0, 0, Header, 0, 1, 384
1, 0, Start_track
1, 0, Title_t, "LisztVeneziaNapoli--Chon        "
1, 0, Text_t, "2011 ePiano Junior Competition"
1, 0, Text_t, "captured in spring and summer 2011"
1, 0, Text_t, "http://www.piano-e-competition.com/"
1, 0, Text_t, "standard-resolution version"
1, 0, Text_t, "File processed for distribution with software designed and coded by Dr. John Q. Walker, founder of Zenph Sound Innovations"
1, 0, Instrument_name_t, "Yamaha Disklavier Pro Mark IV concert grand piano, model DCFIIISM4PRO"
1, 0, Sequencer_specific, 39, 67, 113, 0, 1, 0, 1, 0, 76, 105, 115, 122, 116, 32, 86, 101, 110, 45, 78, 97, 112, 111, 108, 105, 83, 97, 101, 89, 111, 111, 110, 32, 67, 104, 111, 110, 32, 32, 32, 32
1, 0, Sequencer_specific, 6, 67, 113, 0, 0, 0, 69
1, 0, System_exclusive, 21, 67, 113, 126, 21, 0, 2, 2, 2, 5, 12, 8, 4, 14, 1, 4, 14, 0, 8, 14, 6, 247
1, 0, Sequencer_specific, 5, 67, 123, 12, 2, 1
1, 0, Tempo, 512820
1, 0, Time_signature, 4, 2, 24, 8
1, 0, System_exclusive, 5, 126, 127, 9, 1, 247
1, 1, System_exclusive, 8, 67, 16, 76, 0, 0, 126, 0, 247
1, 2, System_exclusive, 8, 67, 16, 76, 8, 9, 7, 1, 247
1, 3, Control_c, 0, 0, 108
1, 3, Control_c, 1, 0, 108
1, 3, Control_c, 2, 0, 0
1, 3, Control_c, 3, 0, 0
1, 3, Control_c, 4, 0, 0
1, 3, Control_c, 5, 0, 0
1, 3, Control_c, 6, 0, 0
1, 3, Control_c, 7, 0, 0
1, 3, Control_c, 8, 0, 0
1, 3, Control_c, 9, 0, 127
1, 3, Control_c, 10, 0, 0
1, 3, Control_c, 11, 0, 0
1, 3, Control_c, 12, 0, 0
1, 3, Control_c, 13, 0, 0
1, 3, Control_c, 14, 0, 0
1, 3, Control_c, 15, 0, 0
1, 4, Control_c, 0, 32, 0
1, 4, Control_c, 1, 32, 0
1, 4, Control_c, 2, 32, 0
1, 4, Control_c, 3, 32, 0
1, 4, Control_c, 4, 32, 0
1, 4, Control_c, 5, 32, 0
1, 4, Control_c, 6, 32, 0
1, 4, Control_c, 7, 32, 0
1, 4, Control_c, 8, 32, 0
1, 4, Control_c, 9, 32, 0
1, 4, Control_c, 10, 32, 0
1, 4, Control_c, 11, 32, 0
1, 4, Control_c, 12, 32, 0
1, 4, Control_c, 13, 32, 0
1, 4, Control_c, 14, 32, 0
1, 4, Control_c, 15, 32, 0
1, 5, Program_c, 0, 0
1, 5, Program_c, 1, 0
1, 5, Program_c, 2, 0
1, 5, Program_c, 3, 0
1, 5, Program_c, 4, 0
1, 5, Program_c, 5, 0
1, 5, Program_c, 6, 0
1, 5, Program_c, 7, 0
1, 5, Program_c, 8, 0
1, 5, Program_c, 9, 0
1, 5, Program_c, 10, 0
1, 5, Program_c, 11, 0
1, 5, Program_c, 12, 0
1, 5, Program_c, 13, 0
1, 5, Program_c, 14, 0
1, 5, Program_c, 15, 0
1, 6, Control_c, 0, 7, 100
1, 6, Control_c, 1, 7, 100
1, 6, Control_c, 2, 7, 100
1, 6, Control_c, 3, 7, 100
1, 6, Control_c, 4, 7, 100
1, 6, Control_c, 5, 7, 100
1, 6, Control_c, 6, 7, 100
1, 6, Control_c, 7, 7, 100
1, 6, Control_c, 8, 7, 100
1, 6, Control_c, 9, 7, 100
1, 6, Control_c, 10, 7, 100
1, 6, Control_c, 11, 7, 100
1, 6, Control_c, 12, 7, 100
1, 6, Control_c, 13, 7, 100
1, 6, Control_c, 14, 7, 100
1, 6, Control_c, 15, 7, 100
1, 42, Control_c, 0, 64, 15
1, 42, Control_c, 0, 67, 15
1, 79, Control_c, 0, 64, 31
1, 79, Control_c, 0, 67, 31
1, 116, Control_c, 0, 64, 46
1, 116, Control_c, 0, 67, 46
1, 153, Control_c, 0, 64, 63
1, 153, Control_c, 0, 67, 63
1, 190, Control_c, 0, 64, 77
1, 190, Control_c, 0, 67, 77
1, 226, Control_c, 0, 64, 94
1, 226, Control_c, 0, 67, 94
1, 263, Control_c, 0, 64, 108
1, 263, Control_c, 0, 67, 108
1, 300, Control_c, 0, 64, 127
1, 300, Control_c, 0, 67, 127
1, 390, Note_on_c, 0, 37, 28
1, 680, Note_on_c, 0, 49, 32
1, 900, Note_off_c, 0, 49, 37
1, 927, Note_off_c, 0, 37, 38
1, 940, Note_on_c, 0, 40, 40
1, 1211, Note_on_c, 0, 37, 43
1, 1440, Note_on_c, 0, 49, 39
1, 1452, Note_off_c, 0, 40, 41
1, 1634, Note_off_c, 0, 37, 36
1, 1705, Note_on_c, 0, 40, 28
1, 1732, Note_off_c, 0, 49, 34
1, 1951, Note_on_c, 0, 37, 39
1, 2158, Note_off_c, 0, 40, 39
1, 2198, Note_on_c, 0, 49, 29
1, 2366, Note_off_c, 0, 37, 26
1, 2472, Note_on_c, 0, 40, 32
1, 2525, Note_off_c, 0, 49, 34
1, 2726, Note_on_c, 0, 52, 45
1, 2736, Note_on_c, 0, 37, 30
1, 2769, Note_off_c, 0, 40, 37
1, 2833, Note_off_c, 0, 52, 54
1, 2838, Note_on_c, 0, 57, 47
1, 2930, Note_on_c, 0, 49, 36
1, 2930, Note_off_c, 0, 57, 62
1, 2938, Note_on_c, 0, 64, 50
1, 3034, Note_off_c, 0, 64, 61
1, 3053, Note_on_c, 0, 57, 55
1, 3122, Note_off_c, 0, 37, 37
1, 3151, Note_off_c, 0, 57, 59
1, 3158, Note_on_c, 0, 61, 59
1, 3172, Note_on_c, 0, 40, 35
1, 3256, Note_off_c, 0, 61, 61
1, 3285, Note_on_c, 0, 69, 44
1, 3303, Note_off_c, 0, 49, 28
1, 3358, Note_off_c, 0, 69, 63
1, 3386, Note_on_c, 0, 37, 34
1, 3390, Note_on_c, 0, 64, 56
1, 3410, Note_off_c, 0, 40, 44
1, 3490, Note_off_c, 0, 64, 60
1, 3496, Note_on_c, 0, 69, 62
1, 3592, Note_off_c, 0, 69, 62
1, 3593, Note_on_c, 0, 49, 38
1, 3598, Note_on_c, 0, 76, 62
1, 3681, Note_off_c, 0, 37, 34
1, 3700, Note_off_c, 0, 76, 63
1, 3719, Note_on_c, 0, 69, 59
1, 3818, Note_on_c, 0, 73, 63
1, 3822, Note_off_c, 0, 69, 60
1, 3823, Note_on_c, 0, 40, 34
1, 3914, Note_off_c, 0, 73, 61
1, 3920, Note_off_c, 0, 49, 29
1, 3929, Note_on_c, 0, 81, 60
1, 4014, Note_off_c, 0, 81, 65
1, 4048, Note_on_c, 0, 37, 38
1, 4048, Note_on_c, 0, 76, 64
1, 4073, Note_off_c, 0, 40, 41
1, 4149, Note_off_c, 0, 76, 58
1, 4152, Note_on_c, 0, 81, 66
1, 4253, Note_on_c, 0, 49, 36
1, 4260, Note_off_c, 0, 81, 65
1, 4268, Note_on_c, 0, 88, 68
1, 4340, Note_off_c, 0, 37, 34
1, 4356, Note_off_c, 0, 88, 64
1, 4383, Note_on_c, 0, 81, 57
1, 4484, Note_on_c, 0, 85, 61
1, 4485, Note_off_c, 0, 81, 61
1, 4503, Note_on_c, 0, 40, 34
1, 4587, Note_on_c, 0, 93, 65
1, 4588, Note_off_c, 0, 85, 62
1, 4656, Note_off_c, 0, 93, 62
1, 4750, Note_on_c, 0, 37, 43
1, 4780, Note_off_c, 0, 40, 43
1, 4945, Note_off_c, 0, 49, 0
1, 4970, Note_on_c, 0, 49, 6
1, 5006, Note_on_c, 0, 81, 52
1, 5028, Note_off_c, 0, 37, 35
1, 5056, Note_off_c, 0, 81, 54
1, 5099, Note_on_c, 0, 88, 47
1, 5300, Note_on_c, 0, 97, 46
1, 5315, Note_on_c, 0, 40, 31
1, 5384, Note_off_c, 0, 88, 36
1, 5407, Note_off_c, 0, 97, 54
1, 5411, Note_off_c, 0, 49, 35
1, 5570, Note_on_c, 0, 37, 30
1, 5584, Note_off_c, 0, 40, 37
1, 5790, Note_on_c, 0, 49, 38
1, 5840, Note_off_c, 0, 37, 36
1, 6042, Note_on_c, 0, 40, 39
1, 6170, Note_off_c, 0, 49, 22
1, 6293, Note_on_c, 0, 37, 38
1, 6300, Note_off_c, 0, 40, 42
1, 6489, Note_off_c, 0, 37, 31
1, 6507, Note_on_c, 0, 49, 25
1, 6799, Note_on_c, 0, 41, 42
1, 6833, Control_c, 0, 64, 97
1, 6848, Control_c, 0, 64, 72
1, 6863, Control_c, 0, 64, 59
1, 6868, Note_off_c, 0, 49, 42
1, 6877, Control_c, 0, 64, 33
1, 6892, Control_c, 0, 64, 0
1, 6951, Control_c, 0, 64, 28
1, 6966, Control_c, 0, 64, 45
1, 6981, Control_c, 0, 64, 51
1, 7003, Control_c, 0, 64, 54
1, 7018, Control_c, 0, 64, 56
1, 7033, Control_c, 0, 64, 59
1, 7048, Control_c, 0, 64, 61
1, 7063, Control_c, 0, 64, 63
1, 7077, Control_c, 0, 64, 64
1, 7092, Control_c, 0, 64, 65
1, 7100, Note_on_c, 0, 37, 23
1, 7107, Control_c, 0, 64, 67
1, 7121, Control_c, 0, 64, 68
1, 7136, Control_c, 0, 64, 70
1, 7151, Control_c, 0, 64, 72
1, 7166, Control_c, 0, 64, 73
1, 7181, Control_c, 0, 64, 75
1, 7196, Control_c, 0, 64, 77
1, 7211, Control_c, 0, 64, 79
1, 7226, Control_c, 0, 64, 80
1, 7240, Control_c, 0, 64, 80
1, 7256, Control_c, 0, 64, 81
1, 7271, Control_c, 0, 64, 83
1, 7286, Control_c, 0, 64, 86
1, 7300, Control_c, 0, 64, 91
1, 7315, Control_c, 0, 64, 96
1, 7330, Control_c, 0, 64, 102
1, 7336, Note_on_c, 0, 49, 38
1, 7345, Control_c, 0, 64, 109
1, 7360, Control_c, 0, 64, 114
1, 7375, Control_c, 0, 64, 116
1, 7389, Control_c, 0, 64, 122
1, 7404, Control_c, 0, 64, 127
1, 7442, Note_off_c, 0, 41, 36
1, 7520, Note_off_c, 0, 37, 35
1, 7590, Note_on_c, 0, 41, 44
1, 7702, Note_off_c, 0, 49, 39
1, 7854, Note_on_c, 0, 37, 34
1, 8079, Note_on_c, 0, 49, 34
1, 8156, Note_off_c, 0, 41, 27
1, 8258, Note_off_c, 0, 37, 24
1, 8317, Note_on_c, 0, 41, 37
1, 8502, Note_off_c, 0, 49, 27
1, 8611, Note_on_c, 0, 37, 26
1, 8612, Note_on_c, 0, 53, 45
1, 8725, Note_on_c, 0, 57, 44
1, 8727, Note_off_c, 0, 53, 51
1, 8741, Note_off_c, 0, 41, 35
1, 8821, Note_off_c, 0, 57, 59
1, 8832, Note_on_c, 0, 49, 33
1, 8835, Note_on_c, 0, 65, 47
1, 8924, Note_off_c, 0, 65, 62
1, 8934, Note_on_c, 0, 57, 51
1, 9029, Note_on_c, 0, 61, 59
1, 9047, Note_off_c, 0, 37, 38
1, 9052, Note_off_c, 0, 57, 52
1, 9060, Note_on_c, 0, 41, 36
1, 9123, Note_off_c, 0, 61, 61
1, 9128, Note_off_c, 0, 49, 36
1, 9138, Note_on_c, 0, 69, 60
1, 9216, Note_off_c, 0, 69, 61
1, 9255, Note_on_c, 0, 65, 57
1, 9268, Note_on_c, 0, 37, 33
1, 9337, Note_off_c, 0, 41, 36
1, 9355, Note_on_c, 0, 69, 63
1, 9367, Note_off_c, 0, 65, 57
1, 9468, Note_off_c, 0, 69, 61
1, 9470, Note_on_c, 0, 49, 40
1, 9470, Note_on_c, 0, 77, 66
1, 9557, Note_off_c, 0, 77, 62
1, 9575, Note_on_c, 0, 69, 58
1, 9667, Note_off_c, 0, 37, 33
1, 9688, Note_on_c, 0, 73, 62
1, 9706, Note_on_c, 0, 41, 41
1, 9716, Note_off_c, 0, 69, 58
1, 9761, Note_off_c, 0, 49, 37
1, 9795, Note_on_c, 0, 81, 66
1, 9796, Note_off_c, 0, 73, 63
1, 9881, Note_off_c, 0, 81, 65
1, 9905, Note_on_c, 0, 77, 69
1, 9919, Note_on_c, 0, 37, 41
1, 9978, Note_off_c, 0, 41, 37
1, 10011, Note_on_c, 0, 81, 71
1, 10031, Note_off_c, 0, 77, 51
1, 10125, Note_on_c, 0, 89, 78
1, 10136, Note_off_c, 0, 81, 63
1, 10138, Note_on_c, 0, 49, 39
1, 10227, Note_on_c, 0, 81, 63
1, 10229, Note_off_c, 0, 89, 62
1, 10347, Note_off_c, 0, 37, 39
1, 10352, Note_on_c, 0, 41, 44
1, 10356, Note_on_c, 0, 85, 66
1, 10377, Note_off_c, 0, 49, 48
1, 10392, Note_off_c, 0, 81, 56
1, 10454, Note_on_c, 0, 93, 47
1, 10472, Note_off_c, 0, 85, 60
1, 10494, Note_off_c, 0, 93, 0
1, 10494, Note_on_c, 0, 93, 10
1, 10527, Note_off_c, 0, 93, 57
1, 10581, Note_off_c, 0, 41, 52
1, 10609, Note_on_c, 0, 37, 35
1, 10865, Note_on_c, 0, 49, 40
1, 10865, Note_on_c, 0, 81, 57
1, 10937, Note_off_c, 0, 37, 35
1, 10967, Note_on_c, 0, 89, 58
1, 10981, Note_off_c, 0, 81, 40
1, 11168, Note_on_c, 0, 41, 41
1, 11178, Note_on_c, 0, 97, 59
1, 11250, Note_off_c, 0, 49, 32
1, 11405, Note_off_c, 0, 89, 54
1, 11435, Note_on_c, 0, 37, 29
1, 11455, Note_off_c, 0, 97, 36
1, 11473, Note_off_c, 0, 41, 29
1, 11685, Note_on_c, 0, 49, 38
1, 11739, Note_off_c, 0, 37, 36
1, 11937, Note_on_c, 0, 41, 38
1, 12003, Note_off_c, 0, 49, 28
1, 12139, Note_off_c, 0, 41, 55
1, 12183, Note_on_c, 0, 37, 33
1, 12425, Note_on_c, 0, 49, 38
1, 12488, Note_off_c, 0, 37, 35
1, 12720, Note_on_c, 0, 42, 54
1, 12748, Control_c, 0, 64, 81
1, 12763, Control_c, 0, 64, 66
1, 12775, Note_off_c, 0, 49, 25
1, 12778, Control_c, 0, 64, 54
1, 12793, Control_c, 0, 64, 36
1, 12807, Control_c, 0, 64, 19
1, 12822, Control_c, 0, 64, 19
1, 12838, Control_c, 0, 64, 31
1, 12853, Control_c, 0, 64, 42
1, 12868, Control_c, 0, 64, 48
1, 12883, Control_c, 0, 64, 53
1, 12898, Control_c, 0, 64, 56
1, 12912, Control_c, 0, 64, 59
1, 12927, Control_c, 0, 64, 61
1, 12942, Control_c, 0, 64, 62
1, 12957, Control_c, 0, 64, 63
1, 12972, Control_c, 0, 64, 64
1, 12994, Control_c, 0, 64, 65
1, 13008, Control_c, 0, 64, 65
1, 13023, Note_on_c, 0, 37, 33
1, 13023, Control_c, 0, 64, 67
1, 13038, Control_c, 0, 64, 69
1, 13053, Control_c, 0, 64, 72
1, 13068, Control_c, 0, 64, 76
1, 13083, Control_c, 0, 64, 80
1, 13098, Control_c, 0, 64, 82
1, 13112, Control_c, 0, 64, 82
1, 13127, Control_c, 0, 64, 82
1, 13157, Control_c, 0, 64, 82
1, 13171, Control_c, 0, 64, 83
1, 13216, Control_c, 0, 64, 83
1, 13245, Control_c, 0, 64, 84
1, 13255, Note_on_c, 0, 49, 37
1, 13275, Control_c, 0, 64, 83
1, 13345, Note_off_c, 0, 42, 38
1, 13350, Control_c, 0, 64, 83
1, 13353, Note_off_c, 0, 37, 37
1, 13409, Control_c, 0, 64, 82
1, 13424, Control_c, 0, 64, 82
1, 13483, Control_c, 0, 64, 81
1, 13498, Control_c, 0, 64, 81
1, 13509, Note_on_c, 0, 42, 45
1, 13587, Control_c, 0, 64, 81
1, 13589, Note_off_c, 0, 49, 37
1, 13721, Control_c, 0, 64, 82
1, 13785, Note_on_c, 0, 37, 25
1, 14046, Note_on_c, 0, 49, 28
1, 14050, Note_off_c, 0, 37, 38
1, 14069, Control_c, 0, 64, 82
1, 14071, Note_off_c, 0, 42, 32
1, 14158, Control_c, 0, 64, 83
1, 14187, Control_c, 0, 64, 83
1, 14232, Control_c, 0, 64, 84
1, 14261, Control_c, 0, 64, 84
1, 14291, Control_c, 0, 64, 85
1, 14297, Note_on_c, 0, 42, 36
1, 14306, Control_c, 0, 64, 86
1, 14321, Control_c, 0, 64, 87
1, 14335, Control_c, 0, 64, 88
1, 14365, Control_c, 0, 64, 89
1, 14395, Control_c, 0, 64, 90
1, 14409, Note_off_c, 0, 49, 36
1, 14410, Control_c, 0, 64, 91
1, 14424, Control_c, 0, 64, 93
1, 14440, Control_c, 0, 64, 93
1, 14455, Control_c, 0, 64, 94
1, 14470, Control_c, 0, 64, 95
1, 14492, Control_c, 0, 64, 96
1, 14507, Control_c, 0, 64, 96
1, 14522, Control_c, 0, 64, 97
1, 14537, Control_c, 0, 64, 97
1, 14552, Control_c, 0, 64, 98
1, 14588, Note_on_c, 0, 54, 43
1, 14596, Control_c, 0, 64, 99
1, 14603, Note_on_c, 0, 37, 30
1, 14610, Control_c, 0, 64, 101
1, 14625, Control_c, 0, 64, 104
1, 14640, Control_c, 0, 64, 107
1, 14655, Control_c, 0, 64, 109
1, 14670, Control_c, 0, 64, 110
1, 14684, Control_c, 0, 64, 111
1, 14699, Control_c, 0, 64, 113
1, 14714, Control_c, 0, 64, 117
1, 14719, Note_on_c, 0, 58, 54
1, 14729, Control_c, 0, 64, 127
1, 14730, Note_off_c, 0, 54, 50
1, 14798, Note_off_c, 0, 42, 40
1, 14825, Note_on_c, 0, 49, 35
1, 14826, Note_on_c, 0, 66, 49
1, 14828, Note_off_c, 0, 58, 55
1, 14869, Note_off_c, 0, 37, 34
1, 14926, Note_off_c, 0, 66, 61
1, 14937, Note_on_c, 0, 58, 53
1, 15038, Control_c, 0, 67, 122
1, 15051, Note_on_c, 0, 61, 60
1, 15053, Control_c, 0, 67, 115
1, 15055, Note_on_c, 0, 42, 43
1, 15063, Note_off_c, 0, 58, 55
1, 15068, Control_c, 0, 67, 112
1, 15083, Control_c, 0, 67, 108
1, 15098, Control_c, 0, 67, 105
1, 15113, Control_c, 0, 67, 103
1, 15128, Control_c, 0, 67, 102
1, 15152, Note_off_c, 0, 61, 62
1, 15161, Note_on_c, 0, 70, 56
1, 15164, Note_off_c, 0, 49, 29
1, 15172, Control_c, 0, 67, 100
1, 15187, Control_c, 0, 67, 99
1, 15201, Control_c, 0, 67, 97
1, 15216, Control_c, 0, 67, 95
1, 15239, Control_c, 0, 67, 92
1, 15241, Note_off_c, 0, 70, 61
1, 15254, Control_c, 0, 67, 86
1, 15269, Control_c, 0, 67, 77
1, 15284, Control_c, 0, 67, 72
1, 15285, Note_on_c, 0, 66, 57
1, 15289, Note_on_c, 0, 37, 38
1, 15299, Control_c, 0, 67, 71
1, 15313, Control_c, 0, 67, 69
1, 15328, Control_c, 0, 67, 69
1, 15349, Note_off_c, 0, 42, 36
1, 15387, Note_on_c, 0, 70, 62
1, 15402, Control_c, 0, 67, 68
1, 15412, Note_off_c, 0, 66, 55
1, 15432, Control_c, 0, 67, 67
1, 15477, Control_c, 0, 67, 67
1, 15492, Control_c, 0, 67, 66
1, 15499, Note_on_c, 0, 78, 71
1, 15506, Control_c, 0, 67, 66
1, 15506, Note_on_c, 0, 49, 39
1, 15514, Note_off_c, 0, 70, 59
1, 15521, Control_c, 0, 67, 64
1, 15536, Control_c, 0, 67, 59
1, 15551, Control_c, 0, 67, 56
1, 15566, Control_c, 0, 67, 55
1, 15569, Note_off_c, 0, 37, 34
1, 15580, Control_c, 0, 67, 54
1, 15595, Control_c, 0, 67, 51
1, 15597, Note_off_c, 0, 78, 59
1, 15610, Control_c, 0, 67, 50
1, 15619, Note_on_c, 0, 70, 72
1, 15625, Control_c, 0, 67, 49
1, 15639, Control_c, 0, 67, 49
1, 15654, Control_c, 0, 67, 47
1, 15669, Control_c, 0, 67, 42
1, 15684, Control_c, 0, 67, 37
1, 15699, Control_c, 0, 67, 36
1, 15713, Control_c, 0, 67, 36
1, 15721, Note_on_c, 0, 73, 72
1, 15728, Control_c, 0, 67, 34
1, 15731, Note_off_c, 0, 70, 59
1, 15737, Note_on_c, 0, 42, 49
1, 15743, Control_c, 0, 67, 27
1, 15757, Control_c, 0, 67, 19
1, 15772, Control_c, 0, 67, 17
1, 15787, Control_c, 0, 67, 16
1, 15802, Control_c, 0, 67, 14
1, 15817, Control_c, 0, 67, 10
1, 15819, Note_off_c, 0, 49, 36
1, 15831, Control_c, 0, 67, 0
1, 15835, Note_on_c, 0, 82, 75
1, 15846, Note_off_c, 0, 73, 63
1, 15922, Note_off_c, 0, 82, 63
1, 15948, Note_on_c, 0, 78, 72
1, 15967, Note_on_c, 0, 37, 35
1, 16042, Note_off_c, 0, 42, 37
1, 16064, Note_on_c, 0, 82, 76
1, 16103, Note_off_c, 0, 78, 63
1, 16183, Note_on_c, 0, 90, 75
1, 16200, Note_on_c, 0, 49, 33
1, 16201, Note_off_c, 0, 82, 64
1, 16254, Note_off_c, 0, 37, 38
1, 16281, Note_off_c, 0, 90, 62
1, 16289, Note_on_c, 0, 82, 62
1, 16299, Control_c, 0, 67, 8
1, 16422, Note_on_c, 0, 85, 66
1, 16426, Note_on_c, 0, 42, 44
1, 16428, Note_off_c, 0, 82, 61
1, 16507, Control_c, 0, 67, 9
1, 16510, Note_off_c, 0, 49, 33
1, 16532, Note_on_c, 0, 94, 62
1, 16547, Note_off_c, 0, 85, 63
1, 16564, Note_off_c, 0, 94, 66
1, 16580, Control_c, 0, 67, 9
1, 16669, Control_c, 0, 67, 10
1, 16697, Note_on_c, 0, 37, 38
1, 16771, Note_off_c, 0, 42, 31
1, 16795, Control_c, 0, 67, 11
1, 16856, Control_c, 0, 67, 11
1, 16871, Control_c, 0, 67, 12
1, 16885, Control_c, 0, 67, 12
1, 16930, Control_c, 0, 67, 13
1, 16945, Control_c, 0, 67, 14
1, 16982, Note_on_c, 0, 82, 54
1, 16988, Note_on_c, 0, 49, 44
1, 17003, Control_c, 0, 67, 14
1, 17018, Note_off_c, 0, 37, 36
1, 17018, Control_c, 0, 67, 15
1, 17078, Control_c, 0, 67, 16
1, 17090, Note_on_c, 0, 90, 55
1, 17093, Control_c, 0, 67, 16
1, 17145, Note_off_c, 0, 82, 54
1, 17152, Control_c, 0, 67, 17
1, 17182, Control_c, 0, 67, 17
1, 17271, Note_on_c, 0, 42, 40
1, 17291, Note_on_c, 0, 97, 51
1, 17301, Note_off_c, 0, 90, 58
1, 17314, Note_off_c, 0, 49, 35
1, 17346, Control_c, 0, 67, 18
1, 17362, Note_off_c, 0, 97, 55
1, 17390, Control_c, 0, 67, 19
1, 17404, Control_c, 0, 67, 19
1, 17545, Control_c, 0, 67, 20
1, 17551, Note_on_c, 0, 37, 36
1, 17604, Control_c, 0, 67, 21
1, 17616, Note_off_c, 0, 42, 40
1, 17650, Control_c, 0, 67, 21
1, 17665, Control_c, 0, 67, 22
1, 17680, Control_c, 0, 67, 22
1, 17694, Control_c, 0, 67, 23
1, 17709, Control_c, 0, 67, 24
1, 17724, Control_c, 0, 67, 24
1, 17754, Control_c, 0, 67, 25
1, 17802, Note_on_c, 0, 49, 37
1, 17812, Note_off_c, 0, 37, 35
1, 17813, Control_c, 0, 67, 26
1, 17827, Control_c, 0, 67, 26
1, 17842, Control_c, 0, 67, 27
1, 17887, Control_c, 0, 67, 27
1, 17901, Control_c, 0, 67, 28
1, 18076, Note_on_c, 0, 42, 34
1, 18103, Note_off_c, 0, 49, 30
1, 18124, Control_c, 0, 67, 29
1, 18154, Control_c, 0, 67, 29
1, 18183, Control_c, 0, 67, 30
1, 18198, Control_c, 0, 67, 31
1, 18213, Control_c, 0, 67, 31
1, 18249, Control_c, 0, 67, 32
1, 18264, Control_c, 0, 67, 32
1, 18279, Control_c, 0, 67, 33
1, 18294, Control_c, 0, 67, 34
1, 18378, Note_on_c, 0, 37, 31
1, 18428, Control_c, 0, 67, 34
1, 18689, Note_on_c, 0, 70, 44
1, 18691, Note_off_c, 0, 42, 38
1, 18768, Control_c, 0, 67, 34
1, 18812, Control_c, 0, 67, 33
1, 18818, Note_on_c, 0, 78, 53
1, 18827, Control_c, 0, 67, 32
1, 18864, Note_off_c, 0, 70, 52
1, 18865, Note_off_c, 0, 37, 52
1, 18887, Control_c, 0, 67, 32
1, 18946, Control_c, 0, 67, 31
1, 18989, Note_on_c, 0, 85, 60
1, 18993, Note_off_c, 0, 78, 60
1, 19027, Control_c, 0, 67, 30
1, 19054, Note_off_c, 0, 85, 59
1, 19057, Control_c, 0, 67, 29
1, 19087, Control_c, 0, 67, 29
1, 19146, Control_c, 0, 67, 28
1, 19236, Control_c, 0, 67, 27
1, 19340, Control_c, 0, 67, 28
1, 19354, Control_c, 0, 67, 29
1, 19497, Note_on_c, 0, 58, 42
1, 19532, Control_c, 0, 67, 28
1, 19606, Control_c, 0, 67, 27
1, 19632, Note_on_c, 0, 66, 39
1, 19653, Note_off_c, 0, 58, 59
1, 19747, Control_c, 0, 67, 27
1, 19793, Note_on_c, 0, 73, 45
1, 19842, Note_off_c, 0, 66, 34
1, 19868, Note_off_c, 0, 73, 39
1, 19999, Control_c, 0, 67, 26
1, 20029, Control_c, 0, 67, 26
1, 20058, Control_c, 0, 67, 25
1, 20088, Control_c, 0, 67, 24
1, 20133, Control_c, 0, 67, 24
1, 20295, Control_c, 0, 67, 24
1, 20325, Control_c, 0, 67, 25
1, 20347, Note_on_c, 0, 70, 44
1, 20485, Note_on_c, 0, 78, 49
1, 20543, Note_off_c, 0, 70, 37
1, 20640, Note_off_c, 0, 78, 57
1, 20658, Note_on_c, 0, 85, 48
1, 20708, Note_off_c, 0, 85, 65
1, 20792, Control_c, 0, 67, 27
1, 20807, Control_c, 0, 67, 30
1, 20823, Control_c, 0, 67, 34
1, 20838, Control_c, 0, 67, 37
1, 20852, Control_c, 0, 67, 39
1, 20867, Control_c, 0, 67, 49
1, 20882, Control_c, 0, 67, 71
1, 20897, Control_c, 0, 67, 92
1, 20912, Control_c, 0, 67, 111
1, 20926, Control_c, 0, 67, 127
1, 21355, Note_on_c, 0, 82, 38
1, 21549, Note_on_c, 0, 90, 45
1, 21619, Note_off_c, 0, 82, 53
1, 21937, Note_off_c, 0, 90, 39
1, 21944, Note_on_c, 0, 97, 44
1, 22309, Note_off_c, 0, 97, 35
1, 24143, Control_c, 0, 64, 110
1, 24158, Control_c, 0, 64, 102
1, 24173, Control_c, 0, 64, 99
1, 24188, Control_c, 0, 64, 97
1, 24203, Control_c, 0, 64, 95
1, 24225, Control_c, 0, 64, 93
1, 24240, Control_c, 0, 64, 91
1, 24255, Control_c, 0, 64, 90
1, 24269, Control_c, 0, 64, 88
1, 24284, Control_c, 0, 64, 86
1, 24299, Control_c, 0, 64, 83
1, 24314, Control_c, 0, 64, 80
1, 24329, Control_c, 0, 64, 78
1, 24343, Control_c, 0, 64, 76
1, 24358, Control_c, 0, 64, 74
1, 24373, Control_c, 0, 64, 73
1, 24388, Control_c, 0, 64, 72
1, 24403, Control_c, 0, 64, 70
1, 24417, Control_c, 0, 64, 68
1, 24432, Control_c, 0, 64, 66
1, 24447, Control_c, 0, 64, 65
1, 24476, Control_c, 0, 64, 65
1, 24551, Control_c, 0, 64, 64
1, 24566, Control_c, 0, 64, 64
1, 24596, Control_c, 0, 64, 63
1, 24611, Control_c, 0, 64, 63
1, 24625, Control_c, 0, 64, 62
1, 24640, Control_c, 0, 64, 62
1, 24655, Control_c, 0, 64, 61
1, 24655, Control_c, 0, 67, 121
1, 24670, Control_c, 0, 64, 61
1, 24670, Control_c, 0, 67, 113
1, 24685, Control_c, 0, 64, 60
1, 24685, Control_c, 0, 67, 107
1, 24700, Control_c, 0, 64, 59
1, 24700, Control_c, 0, 67, 102
1, 24715, Control_c, 0, 64, 58
1, 24715, Control_c, 0, 67, 96
1, 24729, Control_c, 0, 64, 56
1, 24729, Control_c, 0, 67, 88
1, 24744, Control_c, 0, 64, 55
1, 24744, Control_c, 0, 67, 82
1, 24759, Control_c, 0, 64, 53
1, 24759, Control_c, 0, 67, 81
1, 24774, Control_c, 0, 64, 51
1, 24789, Control_c, 0, 64, 49
1, 24789, Control_c, 0, 67, 82
1, 24804, Control_c, 0, 64, 47
1, 24804, Control_c, 0, 67, 82
1, 24819, Control_c, 0, 64, 46
1, 24819, Control_c, 0, 67, 83
1, 24834, Control_c, 0, 64, 45
1, 24834, Control_c, 0, 67, 86
1, 24849, Control_c, 0, 64, 41
1, 24849, Control_c, 0, 67, 90
1, 24864, Control_c, 0, 64, 38
1, 24864, Control_c, 0, 67, 92
1, 24878, Control_c, 0, 64, 36
1, 24878, Control_c, 0, 67, 94
1, 24893, Control_c, 0, 67, 95
1, 24908, Control_c, 0, 67, 97
1, 24923, Control_c, 0, 64, 38
1, 24923, Control_c, 0, 67, 99
1, 24938, Control_c, 0, 64, 43
1, 24938, Control_c, 0, 67, 100
1, 24953, Control_c, 0, 64, 49
1, 24953, Control_c, 0, 67, 101
1, 24974, Control_c, 0, 64, 52
1, 24989, Control_c, 0, 64, 54
1, 25004, Control_c, 0, 64, 55
1, 25019, Control_c, 0, 64, 57
1, 25034, Control_c, 0, 64, 58
1, 25034, Control_c, 0, 67, 102
1, 25048, Control_c, 0, 64, 60
1, 25048, Control_c, 0, 67, 103
1, 25063, Control_c, 0, 64, 61
1, 25078, Control_c, 0, 64, 62
1, 25093, Control_c, 0, 64, 63
1, 25108, Control_c, 0, 64, 64
1, 25123, Control_c, 0, 64, 65
1, 25138, Control_c, 0, 64, 66
1, 25153, Control_c, 0, 64, 66
1, 25153, Control_c, 0, 67, 102
1, 25167, Control_c, 0, 64, 67
1, 25167, Control_c, 0, 67, 100
1, 25182, Control_c, 0, 64, 68
1, 25182, Control_c, 0, 67, 99
1, 25197, Control_c, 0, 64, 70
1, 25212, Control_c, 0, 64, 71
1, 25227, Control_c, 0, 64, 74
1, 25227, Control_c, 0, 67, 99
1, 25241, Control_c, 0, 64, 77
1, 25241, Control_c, 0, 67, 97
1, 25256, Control_c, 0, 64, 80
1, 25256, Control_c, 0, 67, 96
1, 25269, Control_c, 0, 64, 82
1, 25269, Control_c, 0, 67, 95
1, 25284, Control_c, 0, 64, 84
1, 25299, Control_c, 0, 64, 85
1, 25314, Control_c, 0, 64, 89
1, 25329, Control_c, 0, 64, 94
1, 25329, Control_c, 0, 67, 95
1, 25343, Control_c, 0, 64, 103
1, 25343, Control_c, 0, 67, 94
1, 25358, Control_c, 0, 64, 116
1, 25358, Control_c, 0, 67, 93
1, 25373, Control_c, 0, 64, 127
1, 25401, Note_on_c, 0, 73, 45
1, 25417, Control_c, 0, 67, 92
1, 25419, Note_on_c, 0, 70, 35
1, 25472, Note_off_c, 0, 70, 62
1, 25487, Note_off_c, 0, 73, 62
1, 25506, Control_c, 0, 67, 92
1, 25595, Control_c, 0, 67, 91
1, 25656, Control_c, 0, 67, 90
1, 25670, Control_c, 0, 67, 90
1, 25750, Note_on_c, 0, 71, 46
1, 25776, Note_on_c, 0, 68, 30
1, 25808, Note_off_c, 0, 71, 61
1, 25814, Note_off_c, 0, 68, 51
1, 26062, Control_c, 0, 67, 90
1, 26083, Note_on_c, 0, 70, 46
1, 26089, Note_on_c, 0, 66, 39
1, 26092, Control_c, 0, 67, 91
1, 26107, Control_c, 0, 67, 92
1, 26136, Control_c, 0, 64, 86
1, 26151, Control_c, 0, 64, 69
1, 26151, Control_c, 0, 67, 92
1, 26166, Control_c, 0, 64, 63
1, 26181, Control_c, 0, 64, 57
1, 26196, Control_c, 0, 64, 54
1, 26226, Control_c, 0, 64, 56
1, 26226, Control_c, 0, 67, 93
1, 26240, Control_c, 0, 64, 61
1, 26255, Control_c, 0, 64, 63
1, 26270, Control_c, 0, 64, 64
1, 26270, Control_c, 0, 67, 94
1, 26285, Control_c, 0, 64, 64
1, 26300, Control_c, 0, 64, 65
1, 26314, Control_c, 0, 64, 66
1, 26329, Control_c, 0, 64, 69
1, 26344, Control_c, 0, 64, 73
1, 26359, Control_c, 0, 64, 77
1, 26370, Note_on_c, 0, 61, 26
1, 26374, Control_c, 0, 64, 81
1, 26388, Control_c, 0, 64, 86
1, 26402, Note_off_c, 0, 66, 54
1, 26403, Control_c, 0, 64, 91
1, 26419, Control_c, 0, 64, 99
1, 26421, Note_off_c, 0, 70, 56
1, 26434, Control_c, 0, 64, 122
1, 26449, Control_c, 0, 64, 127
1, 26600, Note_on_c, 0, 70, 51
1, 26603, Note_off_c, 0, 61, 39
1, 26614, Note_on_c, 0, 54, 36
1, 26628, Note_on_c, 0, 66, 38
1, 26659, Note_off_c, 0, 66, 55
1, 26671, Note_off_c, 0, 70, 62
1, 26800, Note_on_c, 0, 61, 42
1, 26828, Note_on_c, 0, 66, 50
1, 26859, Note_on_c, 0, 49, 33
1, 26886, Note_on_c, 0, 70, 59
1, 26900, Control_c, 0, 67, 93
1, 26913, Note_off_c, 0, 54, 40
1, 26989, Control_c, 0, 67, 92
1, 27099, Note_off_c, 0, 61, 47
1, 27102, Note_on_c, 0, 42, 37
1, 27112, Note_off_c, 0, 49, 36
1, 27128, Note_off_c, 0, 66, 61
1, 27164, Note_off_c, 0, 70, 63
1, 27302, Note_off_c, 0, 42, 53
1, 27348, Note_on_c, 0, 49, 43
1, 27351, Note_on_c, 0, 71, 64
1, 27353, Note_on_c, 0, 68, 54
1, 27397, Note_off_c, 0, 68, 59
1, 27409, Note_off_c, 0, 71, 64
1, 27501, Control_c, 0, 67, 92
1, 27610, Note_on_c, 0, 75, 63
1, 27626, Note_on_c, 0, 71, 53
1, 27657, Note_off_c, 0, 49, 18
1, 27723, Control_c, 0, 67, 91
1, 27856, Control_c, 0, 64, 96
1, 27871, Control_c, 0, 64, 81
1, 27886, Control_c, 0, 64, 70
1, 27889, Note_on_c, 0, 61, 41
1, 27901, Control_c, 0, 64, 63
1, 27916, Control_c, 0, 64, 56
1, 27931, Control_c, 0, 64, 54
1, 27967, Control_c, 0, 64, 55
1, 27982, Control_c, 0, 64, 56
1, 27997, Control_c, 0, 64, 58
1, 28013, Control_c, 0, 64, 60
1, 28028, Control_c, 0, 64, 61
1, 28043, Control_c, 0, 64, 62
1, 28058, Control_c, 0, 64, 63
1, 28072, Control_c, 0, 64, 64
1, 28087, Control_c, 0, 64, 66
1, 28102, Control_c, 0, 64, 67
1, 28116, Control_c, 0, 64, 68
1, 28131, Control_c, 0, 64, 70
1, 28146, Control_c, 0, 64, 71
1, 28161, Control_c, 0, 64, 73
1, 28176, Note_on_c, 0, 54, 34
1, 28176, Control_c, 0, 64, 74
1, 28187, Note_on_c, 0, 73, 46
1, 28190, Note_on_c, 0, 70, 27
1, 28190, Control_c, 0, 64, 76
1, 28205, Control_c, 0, 64, 76
1, 28220, Control_c, 0, 64, 77
1, 28230, Note_off_c, 0, 71, 36
1, 28235, Control_c, 0, 64, 78
1, 28250, Control_c, 0, 64, 80
1, 28250, Control_c, 0, 67, 92
1, 28265, Control_c, 0, 64, 82
1, 28278, Note_off_c, 0, 61, 34
1, 28280, Control_c, 0, 64, 83
1, 28280, Control_c, 0, 67, 92
1, 28286, Note_off_c, 0, 75, 33
1, 28295, Control_c, 0, 64, 84
1, 28309, Control_c, 0, 64, 84
1, 28324, Control_c, 0, 67, 93
1, 28447, Note_on_c, 0, 49, 31
1, 28454, Note_off_c, 0, 70, 53
1, 28480, Note_off_c, 0, 54, 42
1, 28488, Note_off_c, 0, 73, 39
1, 28532, Control_c, 0, 64, 85
1, 28547, Control_c, 0, 64, 86
1, 28562, Control_c, 0, 64, 86
1, 28606, Control_c, 0, 64, 87
1, 28606, Control_c, 0, 67, 94
1, 28621, Control_c, 0, 64, 89
1, 28635, Control_c, 0, 64, 91
1, 28650, Control_c, 0, 64, 92
1, 28680, Control_c, 0, 64, 94
1, 28695, Control_c, 0, 64, 100
1, 28717, Control_c, 0, 64, 117
1, 28732, Control_c, 0, 64, 127
1, 28751, Note_on_c, 0, 42, 37
1, 28769, Note_on_c, 0, 71, 56
1, 28774, Note_on_c, 0, 68, 47
1, 28777, Control_c, 0, 64, 100
1, 28791, Control_c, 0, 64, 84
1, 28791, Control_c, 0, 67, 94
1, 28795, Note_off_c, 0, 49, 39
1, 28806, Control_c, 0, 64, 74
1, 28822, Control_c, 0, 64, 71
1, 28837, Control_c, 0, 64, 72
1, 28852, Control_c, 0, 64, 72
1, 28867, Control_c, 0, 64, 74
1, 28882, Control_c, 0, 64, 78
1, 28896, Control_c, 0, 64, 85
1, 28911, Control_c, 0, 64, 92
1, 28926, Control_c, 0, 64, 97
1, 28940, Control_c, 0, 64, 97
1, 28970, Control_c, 0, 64, 98
1, 28985, Control_c, 0, 64, 101
1, 29000, Control_c, 0, 64, 104
1, 29000, Control_c, 0, 67, 94
1, 29013, Control_c, 0, 64, 105
1, 29013, Control_c, 0, 67, 93
1, 29014, Note_off_c, 0, 42, 50
1, 29025, Note_off_c, 0, 68, 57
1, 29027, Note_on_c, 0, 49, 40
1, 29027, Note_on_c, 0, 70, 71
1, 29028, Note_on_c, 0, 66, 53
1, 29043, Control_c, 0, 64, 108
1, 29058, Control_c, 0, 64, 115
1, 29073, Control_c, 0, 64, 119
1, 29087, Control_c, 0, 67, 92
1, 29102, Control_c, 0, 67, 92
1, 29132, Control_c, 0, 64, 127
1, 29140, Note_off_c, 0, 71, 40
1, 29162, Control_c, 0, 67, 91
1, 29211, Note_off_c, 0, 66, 58
1, 29243, Note_off_c, 0, 49, 55
1, 29271, Note_on_c, 0, 68, 77
1, 29275, Note_on_c, 0, 65, 54
1, 29295, Control_c, 0, 67, 90
1, 29337, Note_off_c, 0, 70, 59
1, 29339, Control_c, 0, 67, 90
1, 29354, Control_c, 0, 67, 89
1, 29369, Control_c, 0, 67, 89
1, 29384, Control_c, 0, 67, 88
1, 29465, Control_c, 0, 67, 87
1, 29480, Control_c, 0, 67, 87
1, 29510, Control_c, 0, 64, 96
1, 29525, Control_c, 0, 64, 78
1, 29539, Control_c, 0, 64, 71
1, 29541, Note_on_c, 0, 61, 43
1, 29554, Control_c, 0, 64, 69
1, 29560, Note_on_c, 0, 71, 54
1, 29561, Note_on_c, 0, 75, 67
1, 29584, Control_c, 0, 64, 70
1, 29599, Control_c, 0, 64, 72
1, 29615, Control_c, 0, 64, 78
1, 29630, Control_c, 0, 64, 89
1, 29644, Control_c, 0, 64, 101
1, 29659, Control_c, 0, 64, 112
1, 29659, Control_c, 0, 67, 86
1, 29674, Control_c, 0, 64, 117
1, 29674, Control_c, 0, 67, 86
1, 29689, Control_c, 0, 64, 127
1, 29690, Note_off_c, 0, 75, 64
1, 29702, Note_off_c, 0, 68, 60
1, 29717, Note_off_c, 0, 65, 51
1, 29777, Note_on_c, 0, 70, 74
1, 29780, Note_on_c, 0, 73, 72
1, 29797, Note_on_c, 0, 53, 48
1, 29807, Control_c, 0, 67, 85
1, 29814, Note_off_c, 0, 61, 53
1, 29814, Note_off_c, 0, 71, 62
1, 29837, Note_off_c, 0, 70, 63
1, 29844, Note_off_c, 0, 73, 62
1, 29895, Control_c, 0, 67, 84
1, 29910, Control_c, 0, 67, 84
1, 29919, Note_on_c, 0, 65, 37
1, 29940, Control_c, 0, 67, 83
1, 29991, Note_on_c, 0, 70, 58
1, 30029, Control_c, 0, 67, 84
1, 30036, Note_on_c, 0, 49, 40
1, 30037, Note_on_c, 0, 73, 69
1, 30044, Control_c, 0, 64, 112
1, 30044, Control_c, 0, 67, 84
1, 30059, Control_c, 0, 64, 77
1, 30059, Control_c, 0, 67, 85
1, 30073, Note_off_c, 0, 53, 58
1, 30074, Control_c, 0, 64, 65
1, 30074, Control_c, 0, 67, 86
1, 30088, Control_c, 0, 64, 59
1, 30088, Control_c, 0, 67, 86
1, 30103, Control_c, 0, 64, 56
1, 30118, Control_c, 0, 64, 57
1, 30133, Control_c, 0, 64, 60
1, 30148, Control_c, 0, 64, 63
1, 30162, Control_c, 0, 64, 66
1, 30177, Control_c, 0, 64, 69
1, 30192, Control_c, 0, 64, 71
1, 30214, Control_c, 0, 64, 72
1, 30229, Control_c, 0, 64, 73
1, 30244, Control_c, 0, 64, 73
1, 30244, Control_c, 0, 67, 87
1, 30259, Control_c, 0, 64, 74
1, 30274, Control_c, 0, 64, 76
1, 30288, Control_c, 0, 64, 79
1, 30288, Control_c, 0, 67, 87
1, 30303, Control_c, 0, 64, 81
1, 30303, Control_c, 0, 67, 88
1, 30318, Control_c, 0, 64, 83
1, 30326, Note_on_c, 0, 42, 40
1, 30333, Control_c, 0, 64, 85
1, 30333, Control_c, 0, 67, 89
1, 30349, Note_on_c, 0, 75, 57
1, 30353, Note_off_c, 0, 49, 29
1, 30375, Note_on_c, 0, 71, 62
1, 30377, Control_c, 0, 64, 85
1, 30392, Control_c, 0, 64, 86
1, 30392, Control_c, 0, 67, 89
1, 30408, Control_c, 0, 64, 87
1, 30467, Note_off_c, 0, 70, 57
1, 30482, Control_c, 0, 64, 87
1, 30482, Control_c, 0, 67, 90
1, 30500, Note_off_c, 0, 71, 59
1, 30511, Control_c, 0, 64, 87
1, 30556, Control_c, 0, 64, 87
1, 30600, Control_c, 0, 64, 87
1, 30608, Note_on_c, 0, 71, 74
1, 30609, Note_on_c, 0, 68, 64
1, 30614, Note_on_c, 0, 49, 41
1, 30624, Note_off_c, 0, 42, 32
1, 30637, Note_off_c, 0, 65, 35
1, 30659, Control_c, 0, 67, 89
1, 30724, Note_off_c, 0, 75, 40
1, 30746, Note_off_c, 0, 68, 57
1, 30748, Control_c, 0, 64, 86
1, 30796, Note_off_c, 0, 73, 31
1, 30866, Note_on_c, 0, 69, 72
1, 30866, Note_off_c, 0, 71, 57
1, 30867, Control_c, 0, 67, 89
1, 30896, Note_on_c, 0, 65, 52
1, 30941, Control_c, 0, 64, 86
1, 30941, Control_c, 0, 67, 89
1, 30963, Control_c, 0, 64, 84
1, 30963, Control_c, 0, 67, 90
1, 30978, Control_c, 0, 64, 80
1, 30978, Control_c, 0, 67, 90
1, 30992, Control_c, 0, 64, 72
1, 31007, Control_c, 0, 64, 65
1, 31017, Note_off_c, 0, 49, 18
1, 31022, Control_c, 0, 64, 60
1, 31037, Control_c, 0, 64, 55
1, 31052, Control_c, 0, 64, 54
1, 31067, Control_c, 0, 64, 57
1, 31082, Control_c, 0, 64, 60
1, 31097, Control_c, 0, 64, 61
1, 31111, Control_c, 0, 64, 62
1, 31126, Control_c, 0, 64, 64
1, 31126, Control_c, 0, 67, 90
1, 31141, Control_c, 0, 64, 65
1, 31156, Control_c, 0, 64, 67
1, 31162, Note_on_c, 0, 61, 37
1, 31171, Control_c, 0, 64, 67
1, 31185, Control_c, 0, 64, 68
1, 31200, Control_c, 0, 64, 70
1, 31216, Control_c, 0, 64, 72
1, 31231, Control_c, 0, 64, 75
1, 31246, Control_c, 0, 64, 77
1, 31252, Note_off_c, 0, 65, 56
1, 31261, Control_c, 0, 64, 77
1, 31275, Control_c, 0, 64, 79
1, 31290, Control_c, 0, 64, 80
1, 31305, Control_c, 0, 64, 81
1, 31349, Control_c, 0, 64, 82
1, 31364, Control_c, 0, 64, 84
1, 31379, Control_c, 0, 64, 86
1, 31394, Control_c, 0, 64, 90
1, 31408, Control_c, 0, 64, 93
1, 31417, Note_off_c, 0, 69, 55
1, 31423, Control_c, 0, 64, 95
1, 31437, Note_on_c, 0, 54, 35
1, 31438, Control_c, 0, 64, 94
1, 31448, Note_on_c, 0, 70, 43
1, 31453, Control_c, 0, 64, 88
1, 31463, Note_on_c, 0, 66, 39
1, 31468, Control_c, 0, 64, 77
1, 31482, Control_c, 0, 64, 67
1, 31497, Control_c, 0, 64, 61
1, 31512, Control_c, 0, 64, 60
1, 31513, Note_off_c, 0, 61, 36
1, 31526, Control_c, 0, 64, 61
1, 31541, Control_c, 0, 64, 63
1, 31556, Control_c, 0, 64, 64
1, 31571, Control_c, 0, 64, 66
1, 31586, Control_c, 0, 64, 68
1, 31600, Control_c, 0, 64, 72
1, 31615, Control_c, 0, 64, 76
1, 31630, Control_c, 0, 64, 76
1, 31645, Control_c, 0, 64, 77
1, 31660, Control_c, 0, 64, 78
1, 31675, Control_c, 0, 64, 82
1, 31690, Control_c, 0, 64, 85
1, 31691, Note_on_c, 0, 49, 24
1, 31712, Control_c, 0, 64, 87
1, 31727, Control_c, 0, 64, 89
1, 31739, Note_off_c, 0, 54, 44
1, 31741, Control_c, 0, 64, 93
1, 31756, Control_c, 0, 64, 98
1, 31771, Control_c, 0, 64, 103
1, 31786, Control_c, 0, 64, 105
1, 31794, Note_off_c, 0, 70, 59
1, 31801, Control_c, 0, 64, 108
1, 31815, Control_c, 0, 64, 116
1, 31830, Note_off_c, 0, 66, 36
1, 31830, Control_c, 0, 64, 127
1, 32024, Note_on_c, 0, 42, 40
1, 32045, Note_on_c, 0, 70, 42
1, 32046, Note_on_c, 0, 73, 50
1, 32084, Note_off_c, 0, 49, 38
1, 32123, Note_off_c, 0, 70, 60
1, 32142, Note_off_c, 0, 73, 64
1, 32296, Note_on_c, 0, 71, 56
1, 32307, Note_on_c, 0, 68, 49
1, 32319, Note_on_c, 0, 49, 33
1, 32378, Note_off_c, 0, 42, 36
1, 32392, Note_off_c, 0, 71, 63
1, 32396, Note_off_c, 0, 68, 59
1, 32555, Note_off_c, 0, 49, 40
1, 32574, Note_on_c, 0, 70, 52
1, 32590, Note_on_c, 0, 66, 46
1, 32757, Control_c, 0, 67, 90
1, 32787, Control_c, 0, 64, 84
1, 32802, Control_c, 0, 64, 70
1, 32817, Control_c, 0, 64, 65
1, 32832, Control_c, 0, 64, 64
1, 32833, Note_on_c, 0, 61, 43
1, 32847, Control_c, 0, 64, 65
1, 32861, Control_c, 0, 64, 69
1, 32876, Control_c, 0, 64, 78
1, 32891, Control_c, 0, 64, 97
1, 32906, Control_c, 0, 64, 127
1, 32921, Control_c, 0, 67, 91
1, 32966, Note_off_c, 0, 66, 55
1, 32980, Note_off_c, 0, 70, 63
1, 33054, Control_c, 0, 67, 92
1, 33087, Note_off_c, 0, 61, 35
1, 33091, Note_on_c, 0, 54, 39
1, 33093, Note_on_c, 0, 70, 44
1, 33121, Note_on_c, 0, 66, 14
1, 33121, Note_off_c, 0, 70, 54
1, 33165, Note_off_c, 0, 66, 51
1, 33266, Note_on_c, 0, 61, 46
1, 33303, Note_on_c, 0, 66, 49
1, 33338, Note_on_c, 0, 49, 35
1, 33351, Note_on_c, 0, 70, 65
1, 33363, Note_off_c, 0, 54, 40
1, 33387, Control_c, 0, 64, 101
1, 33402, Control_c, 0, 64, 82
1, 33417, Control_c, 0, 64, 75
1, 33432, Control_c, 0, 64, 75
1, 33447, Control_c, 0, 64, 77
1, 33461, Control_c, 0, 64, 79
1, 33476, Control_c, 0, 64, 82
1, 33485, Note_off_c, 0, 61, 34
1, 33491, Control_c, 0, 64, 89
1, 33505, Control_c, 0, 64, 103
1, 33520, Control_c, 0, 64, 122
1, 33535, Control_c, 0, 64, 127
1, 33578, Note_off_c, 0, 66, 60
1, 33594, Note_on_c, 0, 42, 38
1, 33622, Note_off_c, 0, 49, 33
1, 33810, Note_off_c, 0, 70, 41
1, 33831, Note_on_c, 0, 71, 74
1, 33838, Note_on_c, 0, 68, 53
1, 33845, Note_off_c, 0, 42, 42
1, 33848, Note_on_c, 0, 49, 40
1, 33882, Note_off_c, 0, 68, 60
1, 33899, Note_off_c, 0, 71, 62
1, 33973, Control_c, 0, 67, 92
1, 34003, Control_c, 0, 67, 93
1, 34018, Control_c, 0, 67, 94
1, 34018, Note_off_c, 0, 49, 60
1, 34033, Control_c, 0, 67, 94
1, 34063, Control_c, 0, 67, 95
1, 34114, Note_on_c, 0, 75, 72
1, 34128, Note_on_c, 0, 71, 49
1, 34151, Control_c, 0, 67, 94
1, 34166, Control_c, 0, 67, 90
1, 34210, Control_c, 0, 67, 90
1, 34225, Control_c, 0, 67, 91
1, 34270, Control_c, 0, 67, 92
1, 34284, Control_c, 0, 67, 92
1, 34343, Control_c, 0, 67, 93
1, 34358, Control_c, 0, 67, 94
1, 34382, Note_on_c, 0, 61, 42
1, 34388, Control_c, 0, 64, 89
1, 34404, Control_c, 0, 64, 71
1, 34419, Control_c, 0, 64, 61
1, 34433, Control_c, 0, 64, 52
1, 34433, Control_c, 0, 67, 95
1, 34448, Control_c, 0, 64, 50
1, 34463, Control_c, 0, 64, 51
1, 34478, Control_c, 0, 64, 53
1, 34493, Control_c, 0, 64, 56
1, 34507, Control_c, 0, 64, 60
1, 34507, Control_c, 0, 67, 95
1, 34522, Control_c, 0, 64, 62
1, 34522, Control_c, 0, 67, 97
1, 34537, Control_c, 0, 64, 63
1, 34537, Control_c, 0, 67, 97
1, 34551, Control_c, 0, 64, 64
1, 34551, Control_c, 0, 67, 98
1, 34566, Control_c, 0, 64, 65
1, 34581, Control_c, 0, 64, 66
1, 34596, Control_c, 0, 64, 68
1, 34611, Control_c, 0, 64, 69
1, 34626, Control_c, 0, 64, 70
1, 34626, Control_c, 0, 67, 99
1, 34641, Control_c, 0, 64, 71
1, 34656, Control_c, 0, 64, 72
1, 34658, Note_on_c, 0, 73, 52
1, 34660, Note_off_c, 0, 71, 57
1, 34661, Note_on_c, 0, 54, 35
1, 34667, Note_on_c, 0, 70, 38
1, 34671, Control_c, 0, 64, 73
1, 34686, Control_c, 0, 64, 74
1, 34707, Control_c, 0, 64, 75
1, 34710, Note_off_c, 0, 61, 33
1, 34712, Note_off_c, 0, 75, 53
1, 34737, Control_c, 0, 64, 75
1, 34737, Control_c, 0, 67, 100
1, 34751, Control_c, 0, 64, 76
1, 34751, Control_c, 0, 67, 100
1, 34766, Control_c, 0, 64, 77
1, 34766, Control_c, 0, 67, 101
1, 34781, Control_c, 0, 64, 78
1, 34796, Control_c, 0, 64, 78
1, 34870, Control_c, 0, 64, 79
1, 34878, Note_off_c, 0, 70, 53
1, 34885, Control_c, 0, 64, 79
1, 34903, Note_off_c, 0, 73, 57
1, 34915, Control_c, 0, 64, 80
1, 34918, Note_on_c, 0, 49, 38
1, 34930, Control_c, 0, 64, 80
1, 34945, Control_c, 0, 64, 81
1, 34948, Note_off_c, 0, 54, 42
1, 34959, Control_c, 0, 64, 81
1, 35019, Control_c, 0, 64, 82
1, 35033, Control_c, 0, 64, 82
1, 35092, Control_c, 0, 64, 83
1, 35107, Control_c, 0, 64, 85
1, 35122, Control_c, 0, 64, 88
1, 35137, Control_c, 0, 64, 89
1, 35151, Control_c, 0, 64, 88
1, 35166, Control_c, 0, 64, 85
1, 35181, Control_c, 0, 64, 78
1, 35196, Note_on_c, 0, 71, 52
1, 35197, Control_c, 0, 64, 73
1, 35203, Note_on_c, 0, 42, 33
1, 35212, Control_c, 0, 64, 71
1, 35215, Note_on_c, 0, 68, 44
1, 35227, Control_c, 0, 64, 72
1, 35242, Control_c, 0, 64, 73
1, 35242, Control_c, 0, 67, 102
1, 35243, Note_off_c, 0, 49, 31
1, 35256, Control_c, 0, 64, 74
1, 35256, Control_c, 0, 67, 102
1, 35271, Control_c, 0, 64, 77
1, 35286, Control_c, 0, 64, 79
1, 35301, Control_c, 0, 64, 82
1, 35316, Control_c, 0, 64, 85
1, 35335, Note_off_c, 0, 68, 54
1, 35374, Control_c, 0, 64, 85
1, 35404, Control_c, 0, 64, 86
1, 35446, Note_off_c, 0, 42, 42
1, 35456, Control_c, 0, 64, 87
1, 35464, Note_on_c, 0, 70, 73
1, 35471, Control_c, 0, 64, 88
1, 35473, Note_on_c, 0, 49, 37
1, 35478, Note_on_c, 0, 66, 47
1, 35486, Control_c, 0, 64, 89
1, 35501, Control_c, 0, 64, 90
1, 35516, Control_c, 0, 64, 91
1, 35530, Control_c, 0, 64, 92
1, 35535, Note_off_c, 0, 71, 60
1, 35545, Control_c, 0, 64, 92
1, 35560, Control_c, 0, 64, 93
1, 35589, Control_c, 0, 67, 102
1, 35604, Control_c, 0, 64, 94
1, 35619, Control_c, 0, 64, 94
1, 35631, Note_off_c, 0, 66, 50
1, 35634, Control_c, 0, 64, 95
1, 35649, Control_c, 0, 64, 95
1, 35668, Note_off_c, 0, 49, 63
1, 35678, Control_c, 0, 64, 96
1, 35678, Control_c, 0, 67, 101
1, 35693, Control_c, 0, 64, 97
1, 35708, Control_c, 0, 64, 98
1, 35708, Control_c, 0, 67, 100
1, 35714, Note_on_c, 0, 68, 77
1, 35723, Control_c, 0, 64, 99
1, 35729, Note_on_c, 0, 65, 43
1, 35738, Control_c, 0, 64, 101
1, 35738, Control_c, 0, 67, 100
1, 35752, Control_c, 0, 64, 102
1, 35752, Control_c, 0, 67, 99
1, 35767, Control_c, 0, 64, 104
1, 35781, Control_c, 0, 64, 107
1, 35781, Control_c, 0, 67, 99
1, 35796, Note_off_c, 0, 70, 63
1, 35796, Control_c, 0, 64, 111
1, 35796, Control_c, 0, 67, 98
1, 35811, Control_c, 0, 64, 120
1, 35811, Control_c, 0, 67, 97
1, 35826, Control_c, 0, 64, 127
1, 35826, Control_c, 0, 67, 95
1, 35841, Control_c, 0, 67, 94
1, 35855, Control_c, 0, 67, 94
1, 35870, Control_c, 0, 67, 93
1, 35944, Control_c, 0, 67, 94
1, 35959, Control_c, 0, 67, 94
1, 35973, Control_c, 0, 64, 120
1, 35973, Control_c, 0, 67, 96
1, 35982, Note_on_c, 0, 61, 50
1, 35988, Control_c, 0, 64, 85
1, 35988, Control_c, 0, 67, 97
1, 35999, Note_on_c, 0, 75, 71
1, 36004, Control_c, 0, 64, 72
1, 36004, Control_c, 0, 67, 98
1, 36019, Control_c, 0, 64, 67
1, 36030, Note_on_c, 0, 71, 60
1, 36034, Control_c, 0, 64, 68
1, 36049, Control_c, 0, 64, 70
1, 36064, Control_c, 0, 64, 73
1, 36069, Note_off_c, 0, 65, 58
1, 36078, Control_c, 0, 64, 76
1, 36093, Control_c, 0, 64, 80
1, 36105, Note_off_c, 0, 68, 60
1, 36108, Control_c, 0, 64, 86
1, 36108, Control_c, 0, 67, 99
1, 36123, Control_c, 0, 64, 93
1, 36137, Note_off_c, 0, 75, 63
1, 36138, Control_c, 0, 64, 102
1, 36152, Control_c, 0, 64, 107
1, 36152, Control_c, 0, 67, 99
1, 36167, Control_c, 0, 64, 109
1, 36182, Control_c, 0, 64, 113
1, 36204, Control_c, 0, 64, 127
1, 36212, Note_off_c, 0, 61, 46
1, 36234, Note_on_c, 0, 53, 49
1, 36234, Note_on_c, 0, 70, 64
1, 36235, Note_on_c, 0, 73, 76
1, 36258, Note_off_c, 0, 71, 52
1, 36302, Note_off_c, 0, 70, 55
1, 36370, Note_on_c, 0, 61, 44
1, 36429, Note_on_c, 0, 68, 61
1, 36471, Control_c, 0, 67, 100
1, 36478, Note_on_c, 0, 49, 40
1, 36478, Note_on_c, 0, 71, 65
1, 36486, Control_c, 0, 64, 104
1, 36501, Control_c, 0, 64, 79
1, 36501, Control_c, 0, 67, 100
1, 36516, Control_c, 0, 64, 66
1, 36519, Note_off_c, 0, 61, 62
1, 36528, Note_off_c, 0, 53, 55
1, 36530, Control_c, 0, 64, 61
1, 36545, Control_c, 0, 64, 61
1, 36560, Control_c, 0, 64, 62
1, 36575, Control_c, 0, 64, 65
1, 36590, Control_c, 0, 64, 68
1, 36604, Control_c, 0, 64, 71
1, 36619, Control_c, 0, 64, 74
1, 36634, Control_c, 0, 64, 75
1, 36649, Control_c, 0, 67, 101
1, 36678, Control_c, 0, 64, 76
1, 36693, Control_c, 0, 64, 76
1, 36708, Control_c, 0, 64, 78
1, 36716, Note_off_c, 0, 68, 54
1, 36722, Control_c, 0, 64, 79
1, 36722, Control_c, 0, 67, 102
1, 36735, Note_on_c, 0, 70, 64
1, 36737, Control_c, 0, 64, 79
1, 36737, Control_c, 0, 67, 102
1, 36745, Note_on_c, 0, 42, 38
1, 36745, Note_on_c, 0, 66, 28
1, 36754, Note_off_c, 0, 73, 0
1, 36782, Control_c, 0, 67, 103
1, 36783, Note_off_c, 0, 49, 33
1, 36791, Poly_aftertouch_c, 0, 73, 127
1, 36800, Note_off_c, 0, 71, 63
1, 36813, Control_c, 0, 64, 79
1, 36842, Control_c, 0, 64, 80
1, 36857, Control_c, 0, 64, 82
1, 36872, Control_c, 0, 64, 85
1, 36887, Poly_aftertouch_c, 0, 73, 0
1, 36887, Control_c, 0, 64, 89
1, 36901, Control_c, 0, 64, 96
1, 36916, Control_c, 0, 64, 112
1, 36925, Note_off_c, 0, 66, 53
1, 36931, Control_c, 0, 64, 127
1, 36953, Control_c, 0, 64, 107
1, 36968, Control_c, 0, 64, 88
1, 36983, Control_c, 0, 64, 74
1, 36998, Control_c, 0, 64, 65
1, 37008, Note_on_c, 0, 68, 56
1, 37013, Control_c, 0, 64, 61
1, 37017, Note_on_c, 0, 65, 43
1, 37018, Note_on_c, 0, 49, 34
1, 37023, Note_off_c, 0, 42, 36
1, 37025, Note_off_c, 0, 70, 52
1, 37027, Control_c, 0, 64, 62
1, 37042, Control_c, 0, 64, 64
1, 37057, Control_c, 0, 64, 66
1, 37072, Control_c, 0, 64, 67
1, 37087, Control_c, 0, 64, 69
1, 37087, Control_c, 0, 67, 104
1, 37101, Control_c, 0, 64, 70
1, 37101, Control_c, 0, 67, 104
1, 37108, Note_off_c, 0, 65, 62
1, 37116, Control_c, 0, 64, 73
1, 37131, Control_c, 0, 64, 75
1, 37131, Control_c, 0, 67, 105
1, 37145, Control_c, 0, 64, 76
1, 37145, Control_c, 0, 67, 106
1, 37160, Control_c, 0, 64, 76
1, 37160, Control_c, 0, 67, 107
1, 37190, Control_c, 0, 64, 77
1, 37205, Control_c, 0, 64, 77
1, 37205, Control_c, 0, 67, 107
1, 37219, Control_c, 0, 64, 78
1, 37219, Control_c, 0, 67, 108
1, 37272, Note_off_c, 0, 68, 58
1, 37279, Note_on_c, 0, 70, 55
1, 37300, Note_on_c, 0, 66, 44
1, 37309, Control_c, 0, 67, 109
1, 37368, Control_c, 0, 64, 77
1, 37368, Control_c, 0, 67, 110
1, 37398, Control_c, 0, 64, 77
1, 37413, Control_c, 0, 64, 76
1, 37425, Note_off_c, 0, 49, 36
1, 37427, Control_c, 0, 64, 77
1, 37427, Control_c, 0, 67, 110
1, 37442, Control_c, 0, 64, 77
1, 37457, Control_c, 0, 64, 79
1, 37457, Control_c, 0, 67, 110
1, 37472, Control_c, 0, 64, 82
1, 37472, Control_c, 0, 67, 111
1, 37487, Control_c, 0, 64, 85
1, 37501, Control_c, 0, 64, 83
1, 37516, Control_c, 0, 64, 76
1, 37531, Control_c, 0, 64, 67
1, 37545, Control_c, 0, 64, 57
1, 37560, Control_c, 0, 64, 47
1, 37575, Note_on_c, 0, 61, 42
1, 37575, Control_c, 0, 64, 45
1, 37590, Control_c, 0, 64, 46
1, 37606, Control_c, 0, 64, 53
1, 37621, Control_c, 0, 64, 59
1, 37636, Control_c, 0, 64, 62
1, 37650, Control_c, 0, 64, 64
1, 37665, Control_c, 0, 64, 66
1, 37665, Control_c, 0, 67, 112
1, 37680, Control_c, 0, 64, 67
1, 37680, Control_c, 0, 67, 112
1, 37702, Control_c, 0, 64, 70
1, 37717, Control_c, 0, 64, 72
1, 37732, Control_c, 0, 64, 75
1, 37747, Control_c, 0, 64, 77
1, 37747, Control_c, 0, 67, 113
1, 37762, Control_c, 0, 64, 79
1, 37762, Control_c, 0, 67, 115
1, 37776, Control_c, 0, 64, 81
1, 37776, Control_c, 0, 67, 127
1, 37785, Note_off_c, 0, 66, 53
1, 37791, Control_c, 0, 64, 85
1, 37806, Note_off_c, 0, 70, 62
1, 37806, Control_c, 0, 64, 90
1, 37821, Control_c, 0, 64, 94
1, 37836, Note_on_c, 0, 54, 46
1, 37836, Control_c, 0, 64, 99
1, 37850, Control_c, 0, 64, 104
1, 37865, Control_c, 0, 64, 112
1, 37880, Control_c, 0, 64, 127
1, 37937, Note_off_c, 0, 61, 36
1, 38130, Note_on_c, 0, 49, 24
1, 38135, Note_off_c, 0, 54, 58
1, 38406, Note_off_c, 0, 49, 39
1, 38424, Note_on_c, 0, 42, 36
1, 38502, Note_on_c, 0, 85, 65
1, 38517, Note_on_c, 0, 82, 50
1, 38531, Note_on_c, 0, 73, 41
1, 38606, Note_off_c, 0, 73, 64
1, 38610, Note_off_c, 0, 85, 67
1, 38699, Note_off_c, 0, 82, 42
1, 38755, Note_off_c, 0, 42, 34
1, 38769, Note_on_c, 0, 83, 65
1, 38775, Note_on_c, 0, 49, 31
1, 38783, Note_on_c, 0, 80, 57
1, 38786, Note_on_c, 0, 71, 51
1, 38849, Note_off_c, 0, 71, 61
1, 38859, Note_off_c, 0, 83, 63
1, 38883, Note_off_c, 0, 80, 59
1, 38939, Note_off_c, 0, 49, 40
1, 39041, Note_on_c, 0, 82, 62
1, 39051, Note_on_c, 0, 78, 55
1, 39054, Note_on_c, 0, 70, 53
1, 39274, Control_c, 0, 64, 119
1, 39289, Control_c, 0, 64, 81
1, 39303, Control_c, 0, 64, 68
1, 39306, Note_on_c, 0, 61, 39
1, 39315, Note_on_c, 0, 66, 36
1, 39318, Control_c, 0, 64, 63
1, 39333, Control_c, 0, 64, 64
1, 39348, Control_c, 0, 64, 66
1, 39363, Control_c, 0, 64, 72
1, 39378, Control_c, 0, 64, 82
1, 39392, Control_c, 0, 64, 90
1, 39407, Control_c, 0, 64, 91
1, 39419, Note_off_c, 0, 61, 59
1, 39433, Note_off_c, 0, 70, 42
1, 39451, Note_off_c, 0, 82, 62
1, 39452, Control_c, 0, 64, 93
1, 39466, Note_off_c, 0, 78, 35
1, 39467, Control_c, 0, 64, 98
1, 39482, Control_c, 0, 64, 104
1, 39496, Control_c, 0, 64, 106
1, 39508, Note_off_c, 0, 66, 29
1, 39570, Note_on_c, 0, 82, 64
1, 39571, Note_on_c, 0, 54, 49
1, 39580, Note_on_c, 0, 78, 57
1, 39581, Note_on_c, 0, 61, 25
1, 39590, Note_on_c, 0, 70, 42
1, 39619, Note_off_c, 0, 61, 51
1, 39643, Note_off_c, 0, 54, 56
1, 39659, Control_c, 0, 64, 106
1, 39689, Control_c, 0, 64, 107
1, 39699, Note_off_c, 0, 78, 51
1, 39703, Note_off_c, 0, 82, 53
1, 39703, Control_c, 0, 64, 107
1, 39718, Control_c, 0, 64, 109
1, 39733, Control_c, 0, 64, 112
1, 39746, Note_off_c, 0, 70, 36
1, 39747, Control_c, 0, 64, 114
1, 39762, Control_c, 0, 64, 115
1, 39829, Note_on_c, 0, 54, 42
1, 39834, Note_on_c, 0, 49, 44
1, 39837, Note_on_c, 0, 78, 52
1, 39837, Note_on_c, 0, 82, 52
1, 39852, Note_on_c, 0, 70, 48
1, 39925, Note_off_c, 0, 54, 48
1, 39950, Note_off_c, 0, 49, 50
1, 39962, Control_c, 0, 64, 116
1, 39977, Control_c, 0, 64, 117
1, 39993, Control_c, 0, 64, 122
1, 40008, Control_c, 0, 64, 127
1, 40087, Note_on_c, 0, 42, 43
1, 40100, Note_off_c, 0, 70, 56
1, 40116, Note_on_c, 0, 49, 33
1, 40153, Note_off_c, 0, 82, 61
1, 40159, Note_off_c, 0, 49, 53
1, 40200, Note_off_c, 0, 78, 57
1, 40302, Note_off_c, 0, 42, 31
1, 40321, Note_on_c, 0, 80, 56
1, 40329, Note_on_c, 0, 83, 57
1, 40337, Note_on_c, 0, 71, 45
1, 40346, Note_on_c, 0, 49, 37
1, 40347, Note_on_c, 0, 54, 40
1, 40362, Note_off_c, 0, 71, 56
1, 40369, Note_off_c, 0, 80, 63
1, 40380, Note_off_c, 0, 83, 62
1, 40497, Note_off_c, 0, 54, 35
1, 40510, Note_off_c, 0, 49, 37
1, 40624, Note_on_c, 0, 87, 72
1, 40630, Note_on_c, 0, 83, 51
1, 40634, Note_on_c, 0, 75, 55
1, 40862, Control_c, 0, 64, 102
1, 40876, Control_c, 0, 64, 78
1, 40891, Control_c, 0, 64, 67
1, 40904, Note_on_c, 0, 66, 40
1, 40906, Control_c, 0, 64, 63
1, 40921, Note_on_c, 0, 61, 33
1, 40936, Control_c, 0, 64, 65
1, 40950, Control_c, 0, 64, 69
1, 40965, Control_c, 0, 64, 75
1, 40980, Control_c, 0, 64, 82
1, 40994, Control_c, 0, 64, 86
1, 41000, Note_off_c, 0, 61, 57
1, 41027, Note_off_c, 0, 87, 63
1, 41050, Note_off_c, 0, 75, 62
1, 41054, Control_c, 0, 64, 86
1, 41068, Control_c, 0, 64, 87
1, 41106, Note_off_c, 0, 66, 33
1, 41149, Note_off_c, 0, 83, 53
1, 41170, Note_on_c, 0, 85, 60
1, 41180, Note_on_c, 0, 82, 56
1, 41184, Note_on_c, 0, 54, 38
1, 41184, Note_on_c, 0, 73, 40
1, 41229, Note_off_c, 0, 73, 0
1, 41229, Note_on_c, 0, 73, 9
1, 41230, Poly_aftertouch_c, 0, 61, 0
1, 41232, Control_c, 0, 64, 87
1, 41234, Note_off_c, 0, 54, 59
1, 41257, Poly_aftertouch_c, 0, 61, 0
1, 41433, Note_off_c, 0, 82, 49
1, 41443, Note_on_c, 0, 54, 44
1, 41452, Note_on_c, 0, 49, 30
1, 41504, Note_off_c, 0, 73, 58
1, 41515, Note_off_c, 0, 85, 65
1, 41534, Note_off_c, 0, 54, 42
1, 41536, Note_off_c, 0, 49, 53
1, 41610, Control_c, 0, 64, 87
1, 41655, Control_c, 0, 64, 86
1, 41714, Control_c, 0, 64, 86
1, 41721, Note_on_c, 0, 42, 40
1, 41730, Note_on_c, 0, 83, 71
1, 41741, Note_on_c, 0, 49, 25
1, 41751, Note_on_c, 0, 71, 50
1, 41757, Note_on_c, 0, 80, 45
1, 41773, Control_c, 0, 64, 86
1, 41788, Control_c, 0, 64, 87
1, 41803, Control_c, 0, 64, 89
1, 41814, Note_off_c, 0, 80, 49
1, 41817, Control_c, 0, 64, 94
1, 41832, Note_off_c, 0, 49, 47
1, 41832, Control_c, 0, 64, 104
1, 41847, Control_c, 0, 64, 127
1, 41848, Note_off_c, 0, 71, 62
1, 41965, Control_c, 0, 64, 91
1, 41980, Control_c, 0, 64, 77
1, 41986, Note_on_c, 0, 82, 79
1, 41995, Control_c, 0, 64, 73
1, 41998, Note_on_c, 0, 49, 33
1, 42006, Note_on_c, 0, 54, 48
1, 42010, Control_c, 0, 64, 73
1, 42025, Control_c, 0, 64, 75
1, 42027, Note_on_c, 0, 70, 48
1, 42028, Note_on_c, 0, 78, 47
1, 42040, Control_c, 0, 64, 77
1, 42045, Note_off_c, 0, 42, 61
1, 42055, Control_c, 0, 64, 80
1, 42069, Note_off_c, 0, 78, 51
1, 42070, Control_c, 0, 64, 87
1, 42084, Control_c, 0, 64, 93
1, 42088, Note_off_c, 0, 49, 55
1, 42099, Control_c, 0, 64, 97
1, 42114, Control_c, 0, 64, 98
1, 42118, Note_off_c, 0, 70, 50
1, 42131, Note_off_c, 0, 54, 64
1, 42159, Control_c, 0, 64, 100
1, 42174, Control_c, 0, 64, 102
1, 42192, Note_off_c, 0, 83, 34
1, 42196, Control_c, 0, 64, 105
1, 42211, Control_c, 0, 64, 109
1, 42225, Control_c, 0, 64, 114
1, 42240, Control_c, 0, 64, 127
1, 42242, Note_on_c, 0, 80, 75
1, 42248, Note_on_c, 0, 77, 72
1, 42260, Note_on_c, 0, 68, 53
1, 42263, Note_off_c, 0, 82, 65
1, 42285, Note_off_c, 0, 68, 58
1, 42331, Note_off_c, 0, 77, 63
1, 42363, Note_off_c, 0, 80, 64
1, 42522, Note_on_c, 0, 65, 46
1, 42526, Note_on_c, 0, 61, 40
1, 42567, Control_c, 0, 64, 96
1, 42582, Note_on_c, 0, 87, 70
1, 42582, Control_c, 0, 64, 76
1, 42597, Control_c, 0, 64, 69
1, 42600, Note_on_c, 0, 83, 46
1, 42612, Note_on_c, 0, 75, 49
1, 42612, Control_c, 0, 64, 68
1, 42618, Note_off_c, 0, 61, 58
1, 42627, Control_c, 0, 64, 69
1, 42640, Note_off_c, 0, 83, 48
1, 42641, Control_c, 0, 64, 72
1, 42656, Control_c, 0, 64, 77
1, 42671, Control_c, 0, 64, 84
1, 42686, Control_c, 0, 64, 94
1, 42701, Control_c, 0, 64, 110
1, 42704, Note_off_c, 0, 75, 61
1, 42715, Control_c, 0, 64, 127
1, 42773, Note_off_c, 0, 65, 56
1, 42795, Note_on_c, 0, 53, 44
1, 42802, Note_on_c, 0, 61, 26
1, 42836, Note_off_c, 0, 61, 52
1, 42865, Note_off_c, 0, 53, 59
1, 42867, Note_on_c, 0, 73, 57
1, 42873, Note_on_c, 0, 85, 75
1, 42887, Note_off_c, 0, 73, 64
1, 42897, Note_on_c, 0, 82, 36
1, 42902, Note_off_c, 0, 87, 63
1, 42925, Note_off_c, 0, 82, 57
1, 43062, Note_off_c, 0, 85, 64
1, 43086, Note_on_c, 0, 87, 63
1, 43095, Note_on_c, 0, 53, 41
1, 43106, Note_on_c, 0, 49, 39
1, 43112, Note_on_c, 0, 83, 59
1, 43145, Note_off_c, 0, 83, 66
1, 43159, Note_on_c, 0, 82, 62
1, 43179, Note_on_c, 0, 85, 66
1, 43190, Note_off_c, 0, 87, 59
1, 43214, Note_off_c, 0, 82, 59
1, 43223, Note_off_c, 0, 49, 57
1, 43238, Note_on_c, 0, 81, 59
1, 43246, Note_off_c, 0, 85, 64
1, 43249, Note_on_c, 0, 84, 56
1, 43268, Note_off_c, 0, 81, 64
1, 43308, Note_off_c, 0, 84, 65
1, 43316, Note_on_c, 0, 82, 67
1, 43330, Note_on_c, 0, 85, 33
1, 43356, Note_off_c, 0, 82, 55
1, 43377, Note_on_c, 0, 42, 39
1, 43384, Note_on_c, 0, 49, 43
1, 43399, Note_off_c, 0, 53, 39
1, 43423, Note_on_c, 0, 87, 69
1, 43435, Control_c, 0, 64, 114
1, 43442, Note_on_c, 0, 83, 52
1, 43447, Note_on_c, 0, 75, 49
1, 43449, Control_c, 0, 64, 80
1, 43464, Control_c, 0, 64, 66
1, 43479, Control_c, 0, 64, 62
1, 43494, Note_off_c, 0, 49, 52
1, 43494, Control_c, 0, 64, 63
1, 43509, Control_c, 0, 64, 65
1, 43524, Control_c, 0, 64, 68
1, 43526, Note_off_c, 0, 83, 62
1, 43538, Control_c, 0, 64, 72
1, 43550, Note_off_c, 0, 87, 66
1, 43553, Control_c, 0, 64, 78
1, 43556, Note_off_c, 0, 75, 63
1, 43568, Control_c, 0, 64, 82
1, 43570, Note_off_c, 0, 85, 35
1, 43582, Control_c, 0, 64, 83
1, 43597, Control_c, 0, 64, 83
1, 43612, Control_c, 0, 64, 82
1, 43642, Control_c, 0, 64, 83
1, 43657, Control_c, 0, 64, 83
1, 43698, Note_on_c, 0, 83, 65
1, 43707, Note_on_c, 0, 71, 61
1, 43711, Note_on_c, 0, 80, 56
1, 43718, Note_off_c, 0, 42, 33
1, 43718, Note_on_c, 0, 49, 40
1, 43724, Note_on_c, 0, 53, 23
1, 43724, Control_c, 0, 64, 84
1, 43738, Control_c, 0, 64, 85
1, 43753, Control_c, 0, 64, 87
1, 43768, Control_c, 0, 64, 90
1, 43783, Control_c, 0, 64, 92
1, 43803, Note_off_c, 0, 71, 53
1, 43810, Note_off_c, 0, 80, 52
1, 43812, Control_c, 0, 64, 93
1, 43813, Note_off_c, 0, 83, 59
1, 43827, Control_c, 0, 64, 94
1, 43831, Note_off_c, 0, 53, 41
1, 43842, Control_c, 0, 64, 98
1, 43857, Control_c, 0, 64, 101
1, 43858, Note_off_c, 0, 49, 50
1, 43871, Control_c, 0, 64, 102
1, 43886, Control_c, 0, 64, 104
1, 43901, Control_c, 0, 64, 104
1, 43916, Control_c, 0, 64, 105
1, 43931, Control_c, 0, 64, 108
1, 43945, Control_c, 0, 64, 110
1, 43960, Control_c, 0, 64, 114
1, 43975, Control_c, 0, 64, 119
1, 43990, Note_on_c, 0, 81, 64
1, 43991, Control_c, 0, 64, 127
1, 44004, Note_on_c, 0, 69, 54
1, 44005, Note_on_c, 0, 77, 56
1, 44277, Note_on_c, 0, 66, 45
1, 44287, Control_c, 0, 64, 116
1, 44295, Note_on_c, 0, 61, 43
1, 44302, Control_c, 0, 64, 72
1, 44317, Control_c, 0, 64, 58
1, 44332, Control_c, 0, 64, 45
1, 44347, Control_c, 0, 64, 44
1, 44361, Control_c, 0, 64, 49
1, 44376, Control_c, 0, 64, 57
1, 44385, Note_off_c, 0, 81, 60
1, 44391, Control_c, 0, 64, 63
1, 44395, Note_off_c, 0, 61, 57
1, 44406, Control_c, 0, 64, 66
1, 44411, Note_off_c, 0, 69, 61
1, 44420, Control_c, 0, 64, 69
1, 44442, Control_c, 0, 64, 71
1, 44457, Control_c, 0, 64, 72
1, 44472, Control_c, 0, 64, 73
1, 44487, Control_c, 0, 64, 74
1, 44502, Control_c, 0, 64, 77
1, 44517, Control_c, 0, 64, 80
1, 44532, Control_c, 0, 64, 82
1, 44546, Control_c, 0, 64, 83
1, 44552, Note_off_c, 0, 66, 60
1, 44555, Note_on_c, 0, 82, 53
1, 44566, Note_on_c, 0, 61, 36
1, 44568, Note_on_c, 0, 54, 43
1, 44572, Note_off_c, 0, 77, 59
1, 44582, Note_on_c, 0, 70, 42
1, 44583, Note_on_c, 0, 78, 49
1, 44591, Control_c, 0, 64, 85
1, 44606, Control_c, 0, 64, 88
1, 44609, Note_off_c, 0, 61, 53
1, 44620, Control_c, 0, 64, 91
1, 44635, Control_c, 0, 64, 91
1, 44643, Note_off_c, 0, 54, 60
1, 44665, Control_c, 0, 64, 92
1, 44680, Control_c, 0, 64, 94
1, 44694, Control_c, 0, 64, 97
1, 44709, Control_c, 0, 64, 97
1, 44738, Control_c, 0, 64, 98
1, 44753, Control_c, 0, 64, 98
1, 44768, Control_c, 0, 64, 100
1, 44784, Control_c, 0, 64, 101
1, 44799, Control_c, 0, 64, 101
1, 44814, Control_c, 0, 64, 102
1, 44825, Note_off_c, 0, 70, 38
1, 44829, Control_c, 0, 64, 105
1, 44843, Control_c, 0, 64, 108
1, 44849, Note_on_c, 0, 54, 41
1, 44853, Note_off_c, 0, 82, 59
1, 44858, Control_c, 0, 64, 109
1, 44865, Note_off_c, 0, 78, 64
1, 44872, Note_on_c, 0, 49, 24
1, 44888, Control_c, 0, 64, 109
1, 44903, Control_c, 0, 64, 114
1, 44916, Note_off_c, 0, 54, 40
1, 44917, Control_c, 0, 64, 127
1, 44921, Note_off_c, 0, 49, 49
1, 45169, Note_on_c, 0, 42, 32
1, 45172, Note_on_c, 0, 82, 45
1, 45172, Note_on_c, 0, 73, 44
1, 45175, Note_on_c, 0, 49, 28
1, 45187, Note_on_c, 0, 85, 56
1, 45247, Note_off_c, 0, 49, 48
1, 45307, Note_off_c, 0, 73, 65
1, 45313, Note_off_c, 0, 85, 66
1, 45363, Note_off_c, 0, 82, 31
1, 45438, Note_on_c, 0, 83, 68
1, 45453, Note_on_c, 0, 71, 62
1, 45456, Note_on_c, 0, 80, 54
1, 45461, Note_on_c, 0, 49, 26
1, 45474, Note_on_c, 0, 54, 31
1, 45474, Note_off_c, 0, 42, 24
1, 45529, Note_off_c, 0, 71, 58
1, 45542, Note_off_c, 0, 83, 60
1, 45586, Note_off_c, 0, 80, 57
1, 45608, Note_off_c, 0, 49, 35
1, 45627, Note_off_c, 0, 54, 36
1, 45705, Note_on_c, 0, 82, 63
1, 45721, Note_on_c, 0, 78, 57
1, 45729, Note_on_c, 0, 70, 53
1, 45970, Control_c, 0, 64, 84
1, 45976, Note_on_c, 0, 66, 45
1, 45981, Note_on_c, 0, 61, 43
1, 45985, Control_c, 0, 64, 65
1, 45999, Control_c, 0, 64, 61
1, 46014, Control_c, 0, 64, 63
1, 46029, Control_c, 0, 64, 65
1, 46044, Control_c, 0, 64, 70
1, 46059, Control_c, 0, 64, 79
1, 46073, Control_c, 0, 64, 101
1, 46074, Note_off_c, 0, 61, 59
1, 46088, Control_c, 0, 64, 127
1, 46090, Note_off_c, 0, 78, 56
1, 46109, Note_off_c, 0, 82, 63
1, 46112, Note_off_c, 0, 70, 52
1, 46188, Note_off_c, 0, 66, 31
1, 46225, Note_on_c, 0, 82, 60
1, 46230, Note_on_c, 0, 61, 35
1, 46233, Note_on_c, 0, 54, 47
1, 46235, Note_on_c, 0, 78, 56
1, 46240, Note_on_c, 0, 70, 54
1, 46257, Note_off_c, 0, 61, 57
1, 46284, Note_off_c, 0, 54, 61
1, 46312, Note_off_c, 0, 78, 54
1, 46321, Note_off_c, 0, 82, 52
1, 46333, Note_off_c, 0, 70, 39
1, 46495, Note_on_c, 0, 82, 65
1, 46497, Note_on_c, 0, 78, 56
1, 46498, Note_on_c, 0, 49, 42
1, 46500, Note_on_c, 0, 70, 53
1, 46585, Poly_aftertouch_c, 0, 54, 127
1, 46616, Note_off_c, 0, 49, 51
1, 46645, Poly_aftertouch_c, 0, 54, 0
1, 46787, Note_on_c, 0, 49, 39
1, 46788, Note_on_c, 0, 42, 33
1, 46797, Note_off_c, 0, 70, 58
1, 46819, Note_off_c, 0, 78, 56
1, 46824, Note_off_c, 0, 49, 60
1, 46885, Note_off_c, 0, 82, 36
1, 46985, Note_off_c, 0, 42, 36
1, 47002, Note_on_c, 0, 83, 64
1, 47009, Note_on_c, 0, 71, 62
1, 47010, Note_on_c, 0, 80, 61
1, 47015, Note_on_c, 0, 49, 35
1, 47022, Note_on_c, 0, 54, 45
1, 47045, Note_off_c, 0, 71, 61
1, 47060, Note_off_c, 0, 80, 61
1, 47081, Note_off_c, 0, 83, 63
1, 47170, Note_off_c, 0, 49, 51
1, 47181, Note_off_c, 0, 54, 61
1, 47301, Note_on_c, 0, 87, 70
1, 47310, Note_on_c, 0, 83, 60
1, 47328, Note_on_c, 0, 75, 51
1, 47572, Note_on_c, 0, 66, 45
1, 47583, Note_on_c, 0, 61, 41
1, 47584, Control_c, 0, 64, 92
1, 47599, Control_c, 0, 64, 72
1, 47614, Control_c, 0, 64, 63
1, 47629, Control_c, 0, 64, 59
1, 47644, Control_c, 0, 64, 59
1, 47659, Control_c, 0, 64, 62
1, 47673, Control_c, 0, 64, 66
1, 47674, Note_off_c, 0, 61, 56
1, 47688, Note_off_c, 0, 87, 58
1, 47688, Control_c, 0, 64, 71
1, 47694, Note_off_c, 0, 75, 56
1, 47703, Control_c, 0, 64, 76
1, 47718, Control_c, 0, 64, 81
1, 47733, Control_c, 0, 64, 83
1, 47748, Control_c, 0, 64, 85
1, 47763, Control_c, 0, 64, 86
1, 47778, Note_off_c, 0, 83, 61
1, 47778, Control_c, 0, 64, 88
1, 47792, Note_off_c, 0, 66, 48
1, 47793, Control_c, 0, 64, 92
1, 47808, Control_c, 0, 64, 98
1, 47822, Control_c, 0, 64, 106
1, 47837, Control_c, 0, 64, 119
1, 47843, Note_on_c, 0, 82, 52
1, 47844, Note_on_c, 0, 61, 31
1, 47846, Note_on_c, 0, 54, 39
1, 47852, Control_c, 0, 64, 127
1, 47855, Note_on_c, 0, 85, 65
1, 47867, Note_on_c, 0, 73, 49
1, 47889, Note_off_c, 0, 61, 49
1, 47923, Note_off_c, 0, 54, 60
1, 48125, Note_on_c, 0, 49, 38
1, 48131, Note_off_c, 0, 82, 56
1, 48133, Note_on_c, 0, 54, 38
1, 48190, Note_off_c, 0, 54, 55
1, 48201, Note_off_c, 0, 85, 64
1, 48205, Note_off_c, 0, 73, 57
1, 48219, Note_off_c, 0, 49, 52
1, 48419, Note_on_c, 0, 42, 35
1, 48428, Note_on_c, 0, 83, 62
1, 48431, Note_on_c, 0, 49, 34
1, 48444, Note_on_c, 0, 71, 49
1, 48454, Note_on_c, 0, 80, 44
1, 48489, Note_off_c, 0, 80, 53
1, 48489, Note_off_c, 0, 49, 51
1, 48535, Note_off_c, 0, 71, 58
1, 48673, Note_on_c, 0, 82, 78
1, 48701, Note_off_c, 0, 42, 32
1, 48702, Note_on_c, 0, 49, 32
1, 48702, Note_on_c, 0, 70, 57
1, 48710, Note_on_c, 0, 54, 41
1, 48715, Note_on_c, 0, 78, 50
1, 48752, Note_off_c, 0, 78, 61
1, 48776, Note_off_c, 0, 49, 59
1, 48811, Note_off_c, 0, 70, 56
1, 48819, Note_off_c, 0, 54, 60
1, 48854, Note_off_c, 0, 83, 37
1, 48942, Note_on_c, 0, 80, 73
1, 48950, Note_on_c, 0, 77, 65
1, 48959, Note_off_c, 0, 82, 58
1, 48967, Note_on_c, 0, 68, 36
1, 49001, Note_off_c, 0, 68, 48
1, 49054, Note_off_c, 0, 77, 63
1, 49104, Note_off_c, 0, 80, 63
1, 49235, Note_on_c, 0, 87, 66
1, 49235, Note_on_c, 0, 61, 35
1, 49238, Note_on_c, 0, 65, 39
1, 49255, Note_on_c, 0, 83, 57
1, 49261, Control_c, 0, 64, 89
1, 49276, Control_c, 0, 64, 76
1, 49278, Note_on_c, 0, 75, 48
1, 49290, Control_c, 0, 64, 72
1, 49320, Control_c, 0, 64, 74
1, 49322, Note_off_c, 0, 61, 56
1, 49335, Control_c, 0, 64, 78
1, 49349, Control_c, 0, 64, 84
1, 49364, Control_c, 0, 64, 91
1, 49379, Note_off_c, 0, 75, 41
1, 49379, Control_c, 0, 64, 100
1, 49384, Note_off_c, 0, 87, 62
1, 49394, Control_c, 0, 64, 109
1, 49408, Control_c, 0, 64, 117
1, 49423, Control_c, 0, 64, 127
1, 49449, Note_off_c, 0, 83, 44
1, 49495, Note_on_c, 0, 61, 42
1, 49500, Note_on_c, 0, 85, 69
1, 49503, Note_on_c, 0, 82, 59
1, 49504, Note_off_c, 0, 65, 42
1, 49511, Note_on_c, 0, 53, 41
1, 49518, Note_on_c, 0, 73, 50
1, 49525, Note_off_c, 0, 61, 62
1, 49551, Note_off_c, 0, 53, 62
1, 49599, Note_off_c, 0, 82, 56
1, 49634, Note_off_c, 0, 73, 65
1, 49635, Note_off_c, 0, 85, 66
1, 49768, Note_on_c, 0, 83, 64
1, 49772, Note_on_c, 0, 71, 63
1, 49773, Note_on_c, 0, 53, 39
1, 49784, Note_on_c, 0, 49, 40
1, 49785, Note_on_c, 0, 80, 57
1, 49841, Note_off_c, 0, 80, 56
1, 49852, Note_off_c, 0, 71, 61
1, 49883, Note_off_c, 0, 49, 61
1, 49921, Control_c, 0, 64, 110
1, 49936, Control_c, 0, 64, 90
1, 49951, Control_c, 0, 64, 86
1, 49966, Control_c, 0, 64, 88
1, 49979, Control_c, 0, 64, 90
1, 49994, Control_c, 0, 64, 91
1, 50009, Control_c, 0, 64, 94
1, 50019, Note_on_c, 0, 78, 43
1, 50024, Control_c, 0, 64, 102
1, 50027, Note_on_c, 0, 82, 67
1, 50029, Note_off_c, 0, 83, 61
1, 50030, Note_on_c, 0, 49, 39
1, 50034, Note_on_c, 0, 42, 42
1, 50036, Note_on_c, 0, 70, 53
1, 50038, Control_c, 0, 64, 127
1, 50069, Note_off_c, 0, 53, 40
1, 50091, Note_off_c, 0, 78, 65
1, 50091, Note_off_c, 0, 82, 64
1, 50112, Note_off_c, 0, 70, 57
1, 50138, Note_off_c, 0, 49, 54
1, 50174, Note_off_c, 0, 42, 50
1, 50315, Note_on_c, 0, 80, 58
1, 50335, Control_c, 0, 64, 109
1, 50338, Note_on_c, 0, 53, 40
1, 50344, Note_on_c, 0, 49, 31
1, 50350, Note_on_c, 0, 73, 50
1, 50350, Control_c, 0, 64, 81
1, 50359, Note_on_c, 0, 68, 39
1, 50365, Control_c, 0, 64, 72
1, 50380, Control_c, 0, 64, 69
1, 50410, Control_c, 0, 64, 70
1, 50432, Control_c, 0, 64, 73
1, 50447, Control_c, 0, 64, 78
1, 50448, Note_off_c, 0, 73, 45
1, 50449, Note_off_c, 0, 80, 60
1, 50461, Control_c, 0, 64, 85
1, 50475, Note_off_c, 0, 68, 35
1, 50476, Control_c, 0, 64, 90
1, 50491, Control_c, 0, 64, 92
1, 50506, Control_c, 0, 64, 93
1, 50521, Control_c, 0, 64, 94
1, 50535, Control_c, 0, 64, 96
1, 50550, Control_c, 0, 64, 101
1, 50565, Control_c, 0, 64, 106
1, 50580, Control_c, 0, 64, 110
1, 50595, Control_c, 0, 64, 115
1, 50610, Control_c, 0, 64, 120
1, 50625, Control_c, 0, 64, 127
1, 50642, Note_on_c, 0, 70, 54
1, 50643, Note_off_c, 0, 53, 41
1, 50648, Note_on_c, 0, 78, 56
1, 50652, Note_off_c, 0, 49, 56
1, 50659, Note_on_c, 0, 66, 48
1, 50906, Control_c, 0, 64, 101
1, 50921, Control_c, 0, 64, 70
1, 50935, Control_c, 0, 64, 60
1, 50941, Note_on_c, 0, 49, 36
1, 50942, Note_on_c, 0, 42, 31
1, 50950, Control_c, 0, 64, 53
1, 50965, Control_c, 0, 64, 52
1, 50980, Control_c, 0, 64, 54
1, 50995, Control_c, 0, 64, 59
1, 51009, Control_c, 0, 64, 64
1, 51024, Control_c, 0, 64, 68
1, 51039, Note_off_c, 0, 49, 59
1, 51039, Control_c, 0, 64, 72
1, 51054, Control_c, 0, 64, 74
1, 51069, Control_c, 0, 64, 76
1, 51084, Control_c, 0, 64, 79
1, 51088, Note_off_c, 0, 42, 35
1, 51098, Control_c, 0, 64, 85
1, 51113, Control_c, 0, 64, 92
1, 51128, Control_c, 0, 64, 102
1, 51143, Control_c, 0, 64, 127
1, 51231, Note_on_c, 0, 49, 34
1, 51231, Note_on_c, 0, 54, 46
1, 51276, Note_off_c, 0, 49, 63
1, 51288, Note_off_c, 0, 54, 62
1, 51546, Note_on_c, 0, 54, 40
1, 51549, Note_on_c, 0, 61, 42
1, 51589, Note_off_c, 0, 66, 34
1, 51638, Note_off_c, 0, 70, 50
1, 51651, Note_off_c, 0, 61, 51
1, 51676, Note_off_c, 0, 54, 35
1, 51713, Note_off_c, 0, 78, 25
1, 52046, Note_on_c, 0, 66, 32
1, 52067, Note_on_c, 0, 61, 33
1, 52148, Note_off_c, 0, 61, 50
1, 52193, Note_off_c, 0, 66, 35
1, 52582, Control_c, 0, 67, 121
1, 52597, Control_c, 0, 67, 113
1, 52612, Control_c, 0, 67, 105
1, 52626, Control_c, 0, 67, 99
1, 52641, Control_c, 0, 67, 93
1, 52656, Control_c, 0, 67, 87
1, 52678, Control_c, 0, 67, 80
1, 52693, Control_c, 0, 67, 72
1, 52708, Control_c, 0, 67, 64
1, 52723, Control_c, 0, 67, 57
1, 52738, Control_c, 0, 67, 47
1, 52753, Control_c, 0, 67, 36
1, 52768, Control_c, 0, 67, 26
1, 52783, Control_c, 0, 67, 16
1, 52798, Control_c, 0, 67, 0
1, 53109, Control_c, 0, 64, 76
1, 53123, Control_c, 0, 64, 56
1, 53138, Control_c, 0, 64, 0
1, 53227, Control_c, 0, 64, 54
1, 53242, Control_c, 0, 64, 71
1, 53257, Control_c, 0, 64, 127
1, 53263, Note_on_c, 0, 73, 83
1, 53265, Note_on_c, 0, 65, 79
1, 53309, Note_off_c, 0, 65, 64
1, 53318, Note_off_c, 0, 73, 64
1, 53364, Note_on_c, 0, 65, 88
1, 53580, Note_on_c, 0, 73, 92
1, 53828, Note_off_c, 0, 73, 63
1, 53848, Note_off_c, 0, 65, 65
1, 53889, Note_on_c, 0, 37, 49
1, 54097, Note_on_c, 0, 44, 54
1, 54151, Note_off_c, 0, 37, 57
1, 54159, Note_on_c, 0, 61, 76
1, 54174, Note_on_c, 0, 53, 66
1, 54324, Note_off_c, 0, 44, 55
1, 54328, Note_off_c, 0, 53, 60
1, 54363, Note_off_c, 0, 61, 62
1, 54401, Note_on_c, 0, 49, 54
1, 54410, Note_on_c, 0, 56, 54
1, 54475, Note_on_c, 0, 61, 84
1, 54491, Note_on_c, 0, 53, 64
1, 54692, Note_off_c, 0, 53, 56
1, 54703, Note_on_c, 0, 44, 60
1, 54727, Note_off_c, 0, 56, 63
1, 54750, Note_off_c, 0, 49, 56
1, 54806, Note_off_c, 0, 61, 56
1, 54939, Note_on_c, 0, 49, 37
1, 54952, Note_on_c, 0, 56, 55
1, 54963, Note_on_c, 0, 61, 68
1, 54975, Note_on_c, 0, 53, 45
1, 55000, Note_off_c, 0, 53, 62
1, 55022, Note_off_c, 0, 56, 60
1, 55126, Note_off_c, 0, 49, 48
1, 55182, Note_on_c, 0, 51, 58
1, 55228, Note_on_c, 0, 54, 72
1, 55245, Note_off_c, 0, 61, 61
1, 55274, Note_off_c, 0, 44, 60
1, 55294, Note_on_c, 0, 60, 78
1, 55340, Control_c, 0, 64, 85
1, 55355, Control_c, 0, 64, 66
1, 55370, Control_c, 0, 64, 53
1, 55385, Control_c, 0, 64, 34
1, 55400, Control_c, 0, 64, 29
1, 55415, Control_c, 0, 64, 37
1, 55430, Control_c, 0, 64, 52
1, 55445, Control_c, 0, 64, 60
1, 55460, Control_c, 0, 64, 64
1, 55474, Control_c, 0, 64, 69
1, 55489, Control_c, 0, 64, 75
1, 55504, Control_c, 0, 64, 84
1, 55518, Control_c, 0, 64, 99
1, 55533, Control_c, 0, 64, 127
1, 55536, Note_on_c, 0, 37, 52
1, 55602, Note_off_c, 0, 54, 63
1, 55609, Note_off_c, 0, 51, 57
1, 55749, Note_off_c, 0, 60, 63
1, 55776, Note_off_c, 0, 37, 57
1, 55790, Note_on_c, 0, 44, 48
1, 55890, Note_on_c, 0, 63, 60
1, 55937, Note_on_c, 0, 61, 56
1, 55953, Note_off_c, 0, 63, 46
1, 56090, Control_c, 0, 64, 113
1, 56102, Note_on_c, 0, 60, 58
1, 56104, Control_c, 0, 64, 76
1, 56113, Note_off_c, 0, 61, 54
1, 56119, Control_c, 0, 64, 63
1, 56121, Note_on_c, 0, 54, 47
1, 56125, Note_on_c, 0, 51, 49
1, 56133, Note_on_c, 0, 56, 40
1, 56134, Control_c, 0, 64, 54
1, 56148, Control_c, 0, 64, 50
1, 56163, Control_c, 0, 64, 49
1, 56177, Note_off_c, 0, 54, 65
1, 56178, Control_c, 0, 64, 53
1, 56193, Control_c, 0, 64, 58
1, 56208, Control_c, 0, 64, 63
1, 56218, Note_off_c, 0, 60, 65
1, 56223, Control_c, 0, 64, 69
1, 56230, Note_off_c, 0, 44, 41
1, 56238, Control_c, 0, 64, 77
1, 56252, Control_c, 0, 64, 93
1, 56267, Control_c, 0, 64, 127
1, 56371, Control_c, 0, 64, 87
1, 56386, Control_c, 0, 64, 70
1, 56392, Note_off_c, 0, 56, 56
1, 56400, Note_on_c, 0, 68, 51
1, 56401, Control_c, 0, 64, 64
1, 56422, Control_c, 0, 64, 65
1, 56434, Note_on_c, 0, 65, 34
1, 56437, Control_c, 0, 64, 66
1, 56452, Control_c, 0, 64, 69
1, 56467, Control_c, 0, 64, 77
1, 56482, Control_c, 0, 64, 98
1, 56497, Control_c, 0, 64, 127
1, 56498, Note_off_c, 0, 51, 61
1, 56646, Note_on_c, 0, 70, 73
1, 56649, Note_on_c, 0, 66, 59
1, 56706, Note_off_c, 0, 65, 52
1, 56723, Note_off_c, 0, 68, 37
1, 56734, Control_c, 0, 64, 82
1, 56748, Control_c, 0, 64, 65
1, 56764, Control_c, 0, 64, 53
1, 56779, Control_c, 0, 64, 37
1, 56794, Control_c, 0, 64, 13
1, 56809, Control_c, 0, 64, 0
1, 56906, Note_off_c, 0, 66, 54
1, 56909, Note_on_c, 0, 68, 65
1, 56919, Note_on_c, 0, 61, 51
1, 56919, Note_on_c, 0, 71, 65
1, 56999, Note_off_c, 0, 70, 52
1, 57105, Control_c, 0, 64, 24
1, 57120, Control_c, 0, 64, 38
1, 57135, Control_c, 0, 64, 46
1, 57137, Note_on_c, 0, 37, 44
1, 57150, Control_c, 0, 64, 50
1, 57171, Control_c, 0, 64, 52
1, 57186, Control_c, 0, 64, 54
1, 57197, Note_on_c, 0, 70, 63
1, 57201, Control_c, 0, 64, 56
1, 57216, Control_c, 0, 64, 59
1, 57222, Note_on_c, 0, 66, 40
1, 57231, Control_c, 0, 64, 61
1, 57245, Control_c, 0, 64, 63
1, 57254, Note_off_c, 0, 68, 54
1, 57260, Control_c, 0, 64, 64
1, 57275, Control_c, 0, 64, 66
1, 57290, Note_off_c, 0, 71, 57
1, 57290, Control_c, 0, 64, 68
1, 57299, Note_off_c, 0, 66, 54
1, 57305, Control_c, 0, 64, 70
1, 57311, Note_off_c, 0, 37, 55
1, 57320, Control_c, 0, 64, 72
1, 57335, Control_c, 0, 64, 74
1, 57349, Control_c, 0, 64, 77
1, 57364, Control_c, 0, 64, 79
1, 57379, Control_c, 0, 64, 83
1, 57394, Note_on_c, 0, 65, 67
1, 57394, Control_c, 0, 64, 87
1, 57398, Note_on_c, 0, 68, 67
1, 57401, Note_on_c, 0, 47, 52
1, 57409, Control_c, 0, 64, 94
1, 57424, Control_c, 0, 64, 106
1, 57432, Note_off_c, 0, 70, 57
1, 57439, Control_c, 0, 64, 127
1, 57441, Note_off_c, 0, 68, 60
1, 57448, Note_off_c, 0, 61, 23
1, 57449, Note_off_c, 0, 65, 61
1, 57516, Note_on_c, 0, 61, 59
1, 57582, Note_on_c, 0, 71, 72
1, 57582, Note_off_c, 0, 47, 34
1, 57588, Note_on_c, 0, 53, 48
1, 57588, Note_on_c, 0, 70, 9
1, 57600, Note_off_c, 0, 61, 62
1, 57643, Note_off_c, 0, 70, 49
1, 57649, Note_on_c, 0, 75, 78
1, 57659, Control_c, 0, 64, 113
1, 57674, Control_c, 0, 64, 79
1, 57689, Control_c, 0, 64, 66
1, 57704, Control_c, 0, 64, 60
1, 57713, Note_off_c, 0, 71, 62
1, 57719, Control_c, 0, 64, 61
1, 57734, Control_c, 0, 64, 62
1, 57749, Control_c, 0, 64, 65
1, 57764, Control_c, 0, 64, 67
1, 57769, Note_off_c, 0, 53, 48
1, 57779, Control_c, 0, 64, 70
1, 57793, Control_c, 0, 64, 72
1, 57838, Control_c, 0, 64, 73
1, 57853, Control_c, 0, 64, 74
1, 57867, Control_c, 0, 64, 76
1, 57882, Control_c, 0, 64, 78
1, 57889, Note_on_c, 0, 59, 56
1, 57897, Control_c, 0, 64, 81
1, 57898, Note_on_c, 0, 73, 86
1, 57919, Control_c, 0, 64, 84
1, 57926, Note_on_c, 0, 70, 54
1, 57934, Control_c, 0, 64, 86
1, 57949, Control_c, 0, 64, 89
1, 57964, Note_off_c, 0, 70, 59
1, 57964, Control_c, 0, 64, 92
1, 57978, Control_c, 0, 64, 103
1, 57991, Note_off_c, 0, 75, 55
1, 57993, Control_c, 0, 64, 127
1, 58112, Note_off_c, 0, 59, 62
1, 58131, Note_on_c, 0, 71, 79
1, 58135, Note_on_c, 0, 63, 47
1, 58156, Note_on_c, 0, 68, 60
1, 58175, Note_off_c, 0, 73, 64
1, 58179, Note_off_c, 0, 71, 64
1, 58184, Note_off_c, 0, 68, 62
1, 58224, Note_off_c, 0, 63, 62
1, 58242, Note_on_c, 0, 61, 61
1, 58307, Note_off_c, 0, 61, 61
1, 58338, Note_on_c, 0, 59, 56
1, 58399, Note_on_c, 0, 61, 56
1, 58444, Note_on_c, 0, 65, 63
1, 58503, Note_on_c, 0, 69, 80
1, 58512, Control_c, 0, 64, 87
1, 58527, Control_c, 0, 64, 71
1, 58542, Control_c, 0, 64, 61
1, 58557, Control_c, 0, 64, 51
1, 58572, Control_c, 0, 64, 37
1, 58587, Control_c, 0, 64, 21
1, 58601, Control_c, 0, 64, 13
1, 58616, Control_c, 0, 64, 12
1, 58631, Control_c, 0, 64, 15
1, 58646, Control_c, 0, 64, 28
1, 58668, Control_c, 0, 64, 34
1, 58683, Control_c, 0, 64, 39
1, 58697, Control_c, 0, 64, 45
1, 58712, Control_c, 0, 64, 52
1, 58727, Control_c, 0, 64, 55
1, 58730, Note_on_c, 0, 42, 44
1, 58742, Control_c, 0, 64, 58
1, 58756, Control_c, 0, 64, 60
1, 58771, Control_c, 0, 64, 61
1, 58786, Control_c, 0, 64, 63
1, 58801, Control_c, 0, 64, 65
1, 58816, Control_c, 0, 64, 67
1, 58824, Note_off_c, 0, 65, 60
1, 58831, Control_c, 0, 64, 69
1, 58846, Control_c, 0, 64, 70
1, 58861, Control_c, 0, 64, 73
1, 58869, Note_off_c, 0, 59, 60
1, 58875, Control_c, 0, 64, 78
1, 58890, Control_c, 0, 64, 85
1, 58896, Note_off_c, 0, 61, 59
1, 58905, Control_c, 0, 64, 94
1, 58915, Note_off_c, 0, 69, 62
1, 58920, Control_c, 0, 64, 115
1, 58935, Control_c, 0, 64, 127
1, 58959, Poly_aftertouch_c, 0, 67, 127
1, 59005, Poly_aftertouch_c, 0, 67, 0
1, 59006, Note_on_c, 0, 49, 39
1, 59035, Note_off_c, 0, 42, 52
1, 59168, Note_on_c, 0, 58, 46
1, 59207, Note_on_c, 0, 61, 51
1, 59233, Control_c, 0, 64, 117
1, 59247, Control_c, 0, 64, 82
1, 59255, Note_on_c, 0, 66, 44
1, 59262, Control_c, 0, 64, 68
1, 59277, Control_c, 0, 64, 62
1, 59290, Note_off_c, 0, 58, 35
1, 59292, Control_c, 0, 64, 60
1, 59301, Note_on_c, 0, 70, 56
1, 59307, Control_c, 0, 64, 61
1, 59309, Note_on_c, 0, 54, 41
1, 59321, Control_c, 0, 64, 64
1, 59326, Note_off_c, 0, 61, 62
1, 59336, Control_c, 0, 64, 67
1, 59351, Control_c, 0, 64, 74
1, 59354, Note_off_c, 0, 66, 63
1, 59365, Control_c, 0, 64, 84
1, 59380, Note_off_c, 0, 70, 64
1, 59380, Control_c, 0, 64, 110
1, 59395, Control_c, 0, 64, 127
1, 59397, Note_off_c, 0, 49, 60
1, 59536, Control_c, 0, 64, 100
1, 59551, Control_c, 0, 64, 78
1, 59564, Note_on_c, 0, 66, 74
1, 59565, Control_c, 0, 64, 67
1, 59571, Note_on_c, 0, 58, 48
1, 59579, Note_on_c, 0, 61, 43
1, 59580, Control_c, 0, 64, 63
1, 59595, Control_c, 0, 64, 64
1, 59606, Note_off_c, 0, 61, 60
1, 59610, Control_c, 0, 64, 69
1, 59625, Control_c, 0, 64, 84
1, 59639, Control_c, 0, 64, 127
1, 59641, Note_off_c, 0, 66, 60
1, 59652, Note_off_c, 0, 58, 59
1, 59803, Control_c, 0, 64, 92
1, 59818, Control_c, 0, 64, 70
1, 59830, Note_on_c, 0, 58, 49
1, 59833, Control_c, 0, 64, 62
1, 59838, Note_on_c, 0, 51, 47
1, 59844, Note_off_c, 0, 54, 44
1, 59847, Control_c, 0, 64, 61
1, 59862, Control_c, 0, 64, 64
1, 59862, Note_on_c, 0, 73, 77
1, 59871, Note_on_c, 0, 66, 56
1, 59877, Control_c, 0, 64, 69
1, 59891, Control_c, 0, 64, 80
1, 59898, Note_off_c, 0, 51, 63
1, 59903, Note_off_c, 0, 58, 47
1, 59906, Control_c, 0, 64, 127
1, 59913, Note_on_c, 0, 61, 14
1, 59919, Note_off_c, 0, 66, 60
1, 59961, Note_off_c, 0, 61, 51
1, 59988, Note_off_c, 0, 73, 64
1, 60071, Note_on_c, 0, 44, 43
1, 60100, Control_c, 0, 64, 98
1, 60114, Control_c, 0, 64, 70
1, 60129, Control_c, 0, 64, 52
1, 60144, Control_c, 0, 64, 35
1, 60152, Note_on_c, 0, 63, 55
1, 60166, Control_c, 0, 64, 26
1, 60181, Control_c, 0, 64, 29
1, 60196, Control_c, 0, 64, 41
1, 60211, Control_c, 0, 64, 51
1, 60226, Control_c, 0, 64, 57
1, 60228, Note_on_c, 0, 66, 64
1, 60241, Control_c, 0, 64, 60
1, 60256, Control_c, 0, 64, 63
1, 60270, Control_c, 0, 64, 64
1, 60285, Control_c, 0, 64, 65
1, 60293, Note_off_c, 0, 44, 63
1, 60300, Control_c, 0, 64, 66
1, 60314, Control_c, 0, 64, 69
1, 60329, Control_c, 0, 64, 79
1, 60331, Note_on_c, 0, 73, 84
1, 60344, Control_c, 0, 64, 98
1, 60348, Note_off_c, 0, 63, 0
1, 60359, Control_c, 0, 64, 127
1, 60386, Poly_aftertouch_c, 0, 63, 127
1, 60395, Note_off_c, 0, 66, 58
1, 60432, Poly_aftertouch_c, 0, 63, 0
1, 60646, Note_on_c, 0, 72, 55
1, 60701, Note_off_c, 0, 73, 53
1, 60764, Note_on_c, 0, 66, 62
1, 60781, Note_on_c, 0, 56, 48
1, 60790, Note_on_c, 0, 63, 50
1, 60792, Note_off_c, 0, 72, 60
1, 60802, Note_on_c, 0, 70, 63
1, 60894, Note_off_c, 0, 70, 56
1, 60914, Note_on_c, 0, 72, 55
1, 60942, Note_off_c, 0, 63, 0
1, 60953, Note_off_c, 0, 72, 64
1, 60962, Note_on_c, 0, 73, 69
1, 60980, Poly_aftertouch_c, 0, 63, 127
1, 60992, Note_off_c, 0, 66, 60
1, 60995, Note_off_c, 0, 56, 37
1, 61025, Note_off_c, 0, 73, 62
1, 61067, Note_on_c, 0, 66, 72
1, 61067, Note_on_c, 0, 63, 21
1, 61084, Note_on_c, 0, 56, 60
1, 61085, Note_on_c, 0, 72, 59
1, 61107, Control_c, 0, 64, 75
1, 61122, Control_c, 0, 64, 59
1, 61136, Control_c, 0, 64, 35
1, 61144, Note_off_c, 0, 72, 60
1, 61151, Control_c, 0, 64, 22
1, 61162, Note_on_c, 0, 73, 56
1, 61166, Control_c, 0, 64, 28
1, 61181, Control_c, 0, 64, 46
1, 61196, Control_c, 0, 64, 56
1, 61206, Note_off_c, 0, 73, 64
1, 61210, Control_c, 0, 64, 62
1, 61225, Control_c, 0, 64, 65
1, 61240, Control_c, 0, 64, 68
1, 61242, Note_on_c, 0, 72, 52
1, 61255, Control_c, 0, 64, 72
1, 61264, Note_off_c, 0, 72, 60
1, 61270, Control_c, 0, 64, 75
1, 61284, Control_c, 0, 64, 79
1, 61293, Note_on_c, 0, 73, 60
1, 61299, Control_c, 0, 64, 88
1, 61312, Note_off_c, 0, 73, 64
1, 61314, Control_c, 0, 64, 127
1, 61337, Note_off_c, 0, 56, 52
1, 61341, Note_on_c, 0, 72, 65
1, 61344, Note_off_c, 0, 63, 50
1, 61370, Note_off_c, 0, 72, 67
1, 61392, Note_on_c, 0, 73, 66
1, 61423, Note_off_c, 0, 73, 67
1, 61424, Note_off_c, 0, 66, 61
1, 61445, Note_on_c, 0, 72, 66
1, 61474, Note_off_c, 0, 72, 64
1, 61510, Note_on_c, 0, 73, 62
1, 61529, Note_off_c, 0, 73, 66
1, 61531, Note_on_c, 0, 65, 73
1, 61538, Note_on_c, 0, 68, 85
1, 61558, Note_on_c, 0, 72, 73
1, 61584, Note_off_c, 0, 72, 64
1, 61588, Poly_aftertouch_c, 0, 56, 127
1, 61599, Note_off_c, 0, 65, 62
1, 61610, Note_on_c, 0, 73, 61
1, 61617, Note_off_c, 0, 68, 60
1, 61626, Poly_aftertouch_c, 0, 56, 0
1, 61641, Note_off_c, 0, 73, 66
1, 61688, Note_on_c, 0, 72, 61
1, 61699, Note_on_c, 0, 56, 54
1, 61715, Note_off_c, 0, 72, 66
1, 61741, Note_on_c, 0, 73, 60
1, 61773, Note_off_c, 0, 73, 66
1, 61790, Note_on_c, 0, 63, 57
1, 61800, Note_on_c, 0, 72, 56
1, 61821, Note_on_c, 0, 66, 58
1, 61834, Note_off_c, 0, 72, 65
1, 61866, Note_on_c, 0, 73, 58
1, 61897, Note_off_c, 0, 73, 65
1, 61904, Note_on_c, 0, 70, 90
1, 61930, Control_c, 0, 64, 76
1, 61934, Note_on_c, 0, 72, 55
1, 61945, Control_c, 0, 64, 59
1, 61959, Control_c, 0, 64, 31
1, 61969, Note_off_c, 0, 72, 64
1, 61974, Control_c, 0, 64, 0
1, 62001, Note_on_c, 0, 73, 44
1, 62019, Control_c, 0, 64, 36
1, 62028, Note_off_c, 0, 73, 59
1, 62033, Control_c, 0, 64, 48
1, 62048, Control_c, 0, 64, 54
1, 62063, Note_on_c, 0, 72, 57
1, 62063, Control_c, 0, 64, 56
1, 62078, Control_c, 0, 64, 58
1, 62092, Control_c, 0, 64, 61
1, 62096, Note_off_c, 0, 72, 66
1, 62107, Control_c, 0, 64, 64
1, 62113, Note_on_c, 0, 73, 55
1, 62122, Control_c, 0, 64, 65
1, 62137, Control_c, 0, 64, 65
1, 62145, Note_off_c, 0, 73, 66
1, 62152, Control_c, 0, 64, 66
1, 62167, Control_c, 0, 64, 68
1, 62175, Note_on_c, 0, 72, 61
1, 62181, Control_c, 0, 64, 72
1, 62196, Control_c, 0, 64, 75
1, 62204, Note_off_c, 0, 72, 66
1, 62211, Control_c, 0, 64, 75
1, 62224, Note_on_c, 0, 73, 66
1, 62226, Control_c, 0, 64, 76
1, 62241, Control_c, 0, 64, 77
1, 62246, Note_off_c, 0, 73, 64
1, 62256, Control_c, 0, 64, 80
1, 62271, Control_c, 0, 64, 81
1, 62277, Note_on_c, 0, 72, 65
1, 62285, Control_c, 0, 64, 80
1, 62307, Note_off_c, 0, 72, 66
1, 62324, Note_on_c, 0, 73, 72
1, 62330, Control_c, 0, 64, 81
1, 62345, Control_c, 0, 64, 80
1, 62349, Note_off_c, 0, 73, 67
1, 62360, Control_c, 0, 64, 80
1, 62375, Control_c, 0, 64, 80
1, 62390, Control_c, 0, 64, 82
1, 62393, Note_on_c, 0, 72, 57
1, 62412, Control_c, 0, 64, 85
1, 62417, Note_off_c, 0, 72, 67
1, 62427, Control_c, 0, 64, 88
1, 62442, Note_on_c, 0, 73, 64
1, 62458, Note_off_c, 0, 73, 67
1, 62471, Control_c, 0, 64, 89
1, 62486, Control_c, 0, 64, 92
1, 62491, Note_on_c, 0, 72, 62
1, 62501, Control_c, 0, 64, 94
1, 62515, Control_c, 0, 64, 94
1, 62521, Note_off_c, 0, 72, 66
1, 62527, Note_on_c, 0, 73, 76
1, 62530, Control_c, 0, 64, 94
1, 62543, Note_off_c, 0, 70, 62
1, 62545, Control_c, 0, 64, 93
1, 62556, Note_off_c, 0, 73, 65
1, 62597, Note_on_c, 0, 72, 69
1, 62605, Control_c, 0, 64, 93
1, 62620, Control_c, 0, 64, 92
1, 62623, Note_off_c, 0, 72, 69
1, 62638, Note_on_c, 0, 73, 72
1, 62649, Control_c, 0, 64, 92
1, 62662, Note_off_c, 0, 73, 69
1, 62694, Control_c, 0, 64, 93
1, 62706, Note_on_c, 0, 72, 65
1, 62708, Control_c, 0, 64, 97
1, 62724, Control_c, 0, 64, 113
1, 62733, Note_off_c, 0, 72, 64
1, 62739, Control_c, 0, 64, 127
1, 62742, Note_on_c, 0, 73, 69
1, 62769, Control_c, 0, 64, 101
1, 62769, Note_off_c, 0, 73, 68
1, 62775, Note_on_c, 0, 68, 53
1, 62783, Control_c, 0, 64, 78
1, 62798, Control_c, 0, 64, 66
1, 62803, Note_on_c, 0, 72, 70
1, 62813, Control_c, 0, 64, 63
1, 62828, Control_c, 0, 64, 65
1, 62835, Note_off_c, 0, 72, 61
1, 62843, Control_c, 0, 64, 68
1, 62857, Control_c, 0, 64, 73
1, 62859, Note_on_c, 0, 73, 60
1, 62872, Control_c, 0, 64, 80
1, 62880, Note_off_c, 0, 73, 62
1, 62887, Control_c, 0, 64, 91
1, 62902, Control_c, 0, 64, 101
1, 62916, Control_c, 0, 64, 105
1, 62921, Note_on_c, 0, 72, 66
1, 62931, Control_c, 0, 64, 103
1, 62946, Control_c, 0, 64, 100
1, 62951, Note_off_c, 0, 72, 67
1, 62961, Control_c, 0, 64, 99
1, 62964, Note_on_c, 0, 73, 53
1, 62990, Control_c, 0, 64, 100
1, 62996, Note_off_c, 0, 73, 62
1, 63018, Note_on_c, 0, 72, 70
1, 63020, Control_c, 0, 64, 99
1, 63049, Note_off_c, 0, 72, 62
1, 63050, Control_c, 0, 64, 100
1, 63064, Control_c, 0, 64, 100
1, 63079, Control_c, 0, 64, 101
1, 63083, Note_on_c, 0, 73, 56
1, 63103, Note_off_c, 0, 73, 63
1, 63138, Note_on_c, 0, 72, 60
1, 63168, Note_off_c, 0, 72, 64
1, 63187, Note_on_c, 0, 73, 64
1, 63192, Control_c, 0, 64, 101
1, 63208, Note_off_c, 0, 73, 64
1, 63237, Note_on_c, 0, 72, 71
1, 63251, Control_c, 0, 64, 101
1, 63266, Control_c, 0, 64, 102
1, 63271, Note_off_c, 0, 72, 62
1, 63280, Control_c, 0, 64, 102
1, 63280, Control_c, 0, 67, 14
1, 63281, Note_on_c, 0, 73, 65
1, 63295, Control_c, 0, 67, 19
1, 63310, Control_c, 0, 64, 101
1, 63310, Control_c, 0, 67, 22
1, 63325, Control_c, 0, 64, 101
1, 63325, Control_c, 0, 67, 23
1, 63328, Note_off_c, 0, 73, 53
1, 63339, Control_c, 0, 67, 24
1, 63354, Control_c, 0, 67, 25
1, 63369, Control_c, 0, 64, 100
1, 63369, Control_c, 0, 67, 26
1, 63372, Note_on_c, 0, 72, 61
1, 63384, Control_c, 0, 64, 99
1, 63399, Control_c, 0, 64, 100
1, 63399, Control_c, 0, 67, 26
1, 63413, Control_c, 0, 64, 106
1, 63413, Control_c, 0, 67, 27
1, 63428, Control_c, 0, 64, 127
1, 63428, Control_c, 0, 67, 28
1, 63460, Note_off_c, 0, 72, 58
1, 63473, Control_c, 0, 64, 122
1, 63473, Control_c, 0, 67, 31
1, 63487, Control_c, 0, 64, 83
1, 63487, Control_c, 0, 67, 36
1, 63494, Note_on_c, 0, 71, 54
1, 63502, Control_c, 0, 64, 68
1, 63502, Control_c, 0, 67, 41
1, 63517, Control_c, 0, 64, 61
1, 63517, Control_c, 0, 67, 42
1, 63532, Control_c, 0, 64, 61
1, 63532, Control_c, 0, 67, 43
1, 63547, Control_c, 0, 64, 62
1, 63562, Control_c, 0, 64, 64
1, 63572, Note_off_c, 0, 71, 62
1, 63577, Control_c, 0, 64, 66
1, 63591, Control_c, 0, 64, 67
1, 63606, Control_c, 0, 64, 68
1, 63621, Control_c, 0, 64, 69
1, 63636, Control_c, 0, 64, 70
1, 63642, Note_on_c, 0, 72, 61
1, 63651, Control_c, 0, 64, 71
1, 63666, Control_c, 0, 64, 71
1, 63680, Control_c, 0, 64, 73
1, 63689, Note_off_c, 0, 72, 53
1, 63695, Control_c, 0, 64, 75
1, 63695, Control_c, 0, 67, 44
1, 63710, Control_c, 0, 64, 76
1, 63725, Control_c, 0, 67, 44
1, 63739, Control_c, 0, 67, 45
1, 63748, Note_on_c, 0, 75, 68
1, 63754, Control_c, 0, 64, 77
1, 63754, Control_c, 0, 67, 46
1, 63769, Control_c, 0, 64, 78
1, 63769, Control_c, 0, 67, 46
1, 63782, Note_off_c, 0, 75, 61
1, 63784, Control_c, 0, 64, 79
1, 63813, Control_c, 0, 67, 50
1, 63828, Control_c, 0, 64, 80
1, 63828, Control_c, 0, 67, 56
1, 63838, Note_on_c, 0, 78, 65
1, 63843, Control_c, 0, 64, 82
1, 63843, Control_c, 0, 67, 62
1, 63855, Note_off_c, 0, 78, 64
1, 63858, Control_c, 0, 64, 83
1, 63858, Control_c, 0, 67, 65
1, 63873, Control_c, 0, 67, 67
1, 63887, Control_c, 0, 67, 71
1, 63910, Control_c, 0, 64, 84
1, 63910, Control_c, 0, 67, 74
1, 63922, Note_on_c, 0, 80, 74
1, 63925, Control_c, 0, 64, 85
1, 63925, Control_c, 0, 67, 79
1, 63939, Control_c, 0, 64, 86
1, 63939, Control_c, 0, 67, 82
1, 63954, Control_c, 0, 67, 84
1, 63957, Note_off_c, 0, 80, 59
1, 63970, Control_c, 0, 64, 86
1, 63970, Control_c, 0, 67, 86
1, 63985, Control_c, 0, 64, 87
1, 63985, Control_c, 0, 67, 90
1, 64000, Control_c, 0, 64, 87
1, 64000, Control_c, 0, 67, 93
1, 64013, Note_on_c, 0, 82, 74
1, 64015, Control_c, 0, 64, 87
1, 64015, Control_c, 0, 67, 96
1, 64030, Control_c, 0, 67, 99
1, 64038, Note_off_c, 0, 82, 69
1, 64044, Control_c, 0, 64, 87
1, 64044, Control_c, 0, 67, 101
1, 64059, Control_c, 0, 67, 105
1, 64074, Control_c, 0, 67, 110
1, 64089, Control_c, 0, 67, 115
1, 64092, Note_off_c, 0, 68, 59
1, 64103, Control_c, 0, 67, 119
1, 64108, Note_on_c, 0, 83, 62
1, 64108, Note_off_c, 0, 63, 58
1, 64110, Note_off_c, 0, 56, 44
1, 64113, Note_off_c, 0, 66, 60
1, 64118, Control_c, 0, 67, 122
1, 64128, Note_off_c, 0, 83, 64
1, 64133, Control_c, 0, 67, 125
1, 64148, Control_c, 0, 64, 87
1, 64148, Control_c, 0, 67, 127
1, 64190, Note_on_c, 0, 84, 68
1, 64192, Control_c, 0, 64, 87
1, 64261, Note_off_c, 0, 84, 57
1, 64280, Note_on_c, 0, 87, 67
1, 64295, Control_c, 0, 64, 87
1, 64319, Note_off_c, 0, 87, 63
1, 64325, Control_c, 0, 64, 87
1, 64378, Note_on_c, 0, 90, 59
1, 64384, Control_c, 0, 64, 88
1, 64399, Control_c, 0, 64, 90
1, 64414, Control_c, 0, 64, 92
1, 64443, Control_c, 0, 64, 92
1, 64468, Note_off_c, 0, 90, 62
1, 64472, Note_on_c, 0, 92, 61
1, 64502, Control_c, 0, 64, 91
1, 64509, Note_off_c, 0, 92, 63
1, 64517, Control_c, 0, 64, 91
1, 64569, Note_on_c, 0, 93, 51
1, 64634, Note_off_c, 0, 93, 60
1, 64745, Note_on_c, 0, 94, 55
1, 64785, Note_off_c, 0, 94, 63
1, 64807, Control_c, 0, 64, 90
1, 64881, Control_c, 0, 64, 91
1, 64896, Control_c, 0, 64, 91
1, 65029, Control_c, 0, 64, 92
1, 65044, Control_c, 0, 64, 92
1, 65058, Control_c, 0, 64, 93
1, 65073, Control_c, 0, 64, 95
1, 65088, Control_c, 0, 64, 96
1, 65103, Control_c, 0, 64, 96
1, 65118, Control_c, 0, 67, 115
1, 65133, Control_c, 0, 64, 97
1, 65133, Control_c, 0, 67, 97
1, 65147, Control_c, 0, 64, 96
1, 65147, Control_c, 0, 67, 65
1, 65162, Control_c, 0, 64, 95
1, 65162, Control_c, 0, 67, 34
1, 65177, Control_c, 0, 64, 95
1, 65177, Control_c, 0, 67, 0
1, 65218, Note_on_c, 0, 56, 36
1, 65222, Control_c, 0, 64, 95
1, 65237, Control_c, 0, 64, 96
1, 65251, Note_on_c, 0, 72, 79
1, 65251, Control_c, 0, 64, 97
1, 65253, Note_on_c, 0, 66, 52
1, 65264, Note_on_c, 0, 63, 52
1, 65266, Control_c, 0, 64, 100
1, 65281, Control_c, 0, 64, 112
1, 65296, Control_c, 0, 64, 127
1, 65302, Note_off_c, 0, 66, 61
1, 65332, Note_off_c, 0, 63, 53
1, 65371, Note_on_c, 0, 49, 42
1, 65442, Note_off_c, 0, 56, 42
1, 65472, Note_on_c, 0, 59, 43
1, 65511, Note_on_c, 0, 65, 63
1, 65525, Control_c, 0, 64, 105
1, 65540, Control_c, 0, 64, 75
1, 65556, Control_c, 0, 64, 63
1, 65571, Control_c, 0, 64, 55
1, 65580, Note_on_c, 0, 68, 56
1, 65586, Control_c, 0, 64, 46
1, 65601, Control_c, 0, 64, 40
1, 65615, Control_c, 0, 64, 39
1, 65645, Control_c, 0, 64, 43
1, 65660, Control_c, 0, 64, 47
1, 65675, Control_c, 0, 64, 51
1, 65684, Note_on_c, 0, 75, 81
1, 65689, Control_c, 0, 64, 56
1, 65704, Control_c, 0, 64, 61
1, 65717, Note_off_c, 0, 65, 54
1, 65719, Control_c, 0, 64, 64
1, 65734, Control_c, 0, 64, 67
1, 65749, Control_c, 0, 64, 70
1, 65754, Note_off_c, 0, 72, 61
1, 65762, Note_off_c, 0, 68, 61
1, 65763, Control_c, 0, 64, 75
1, 65769, Note_off_c, 0, 49, 63
1, 65778, Control_c, 0, 64, 86
1, 65793, Control_c, 0, 64, 127
1, 65811, Note_off_c, 0, 59, 64
1, 66025, Note_on_c, 0, 73, 58
1, 66194, Note_on_c, 0, 68, 66
1, 66195, Note_on_c, 0, 59, 64
1, 66206, Note_on_c, 0, 65, 52
1, 66215, Note_off_c, 0, 73, 63
1, 66228, Note_off_c, 0, 75, 25
1, 66243, Note_on_c, 0, 72, 50
1, 66257, Note_on_c, 0, 74, 44
1, 66280, Note_off_c, 0, 74, 54
1, 66353, Note_on_c, 0, 73, 56
1, 66373, Note_off_c, 0, 72, 61
1, 66378, Note_off_c, 0, 59, 55
1, 66379, Note_off_c, 0, 68, 61
1, 66399, Note_off_c, 0, 65, 37
1, 66424, Note_on_c, 0, 75, 61
1, 66429, Note_off_c, 0, 73, 63
1, 66481, Note_on_c, 0, 68, 90
1, 66489, Note_on_c, 0, 65, 59
1, 66497, Note_on_c, 0, 59, 66
1, 66506, Note_off_c, 0, 75, 60
1, 66513, Note_on_c, 0, 73, 59
1, 66528, Control_c, 0, 64, 82
1, 66543, Control_c, 0, 64, 66
1, 66557, Control_c, 0, 64, 57
1, 66572, Control_c, 0, 64, 57
1, 66583, Note_off_c, 0, 73, 63
1, 66587, Control_c, 0, 64, 59
1, 66592, Note_on_c, 0, 75, 53
1, 66602, Control_c, 0, 64, 63
1, 66617, Control_c, 0, 64, 67
1, 66626, Note_off_c, 0, 75, 64
1, 66631, Control_c, 0, 64, 73
1, 66646, Control_c, 0, 64, 88
1, 66651, Note_on_c, 0, 73, 57
1, 66661, Control_c, 0, 64, 112
1, 66676, Control_c, 0, 64, 127
1, 66688, Note_off_c, 0, 73, 65
1, 66704, Note_on_c, 0, 75, 68
1, 66730, Note_off_c, 0, 75, 66
1, 66757, Note_on_c, 0, 73, 71
1, 66786, Note_off_c, 0, 73, 67
1, 66798, Note_off_c, 0, 65, 56
1, 66800, Note_on_c, 0, 75, 72
1, 66826, Note_off_c, 0, 75, 68
1, 66851, Note_on_c, 0, 73, 76
1, 66857, Note_off_c, 0, 59, 58
1, 66879, Note_off_c, 0, 68, 63
1, 66893, Note_off_c, 0, 73, 58
1, 66910, Note_on_c, 0, 75, 70
1, 66934, Note_off_c, 0, 75, 69
1, 66952, Note_on_c, 0, 69, 89
1, 66958, Note_on_c, 0, 65, 69
1, 66963, Note_on_c, 0, 73, 72
1, 66981, Note_on_c, 0, 59, 58
1, 67001, Note_off_c, 0, 73, 62
1, 67001, Note_off_c, 0, 59, 63
1, 67009, Note_on_c, 0, 75, 77
1, 67014, Note_off_c, 0, 65, 63
1, 67028, Note_off_c, 0, 69, 59
1, 67033, Note_off_c, 0, 75, 68
1, 67064, Note_on_c, 0, 73, 75
1, 67079, Note_on_c, 0, 59, 64
1, 67109, Note_off_c, 0, 73, 64
1, 67109, Note_on_c, 0, 75, 74
1, 67142, Note_off_c, 0, 75, 58
1, 67171, Note_on_c, 0, 73, 71
1, 67195, Note_on_c, 0, 65, 64
1, 67213, Note_off_c, 0, 73, 63
1, 67225, Note_on_c, 0, 75, 73
1, 67256, Note_off_c, 0, 75, 63
1, 67293, Note_on_c, 0, 73, 57
1, 67319, Note_on_c, 0, 70, 92
1, 67324, Note_off_c, 0, 73, 65
1, 67338, Note_on_c, 0, 75, 75
1, 67350, Control_c, 0, 64, 86
1, 67365, Control_c, 0, 64, 65
1, 67366, Note_off_c, 0, 75, 65
1, 67380, Control_c, 0, 64, 46
1, 67395, Control_c, 0, 64, 31
1, 67405, Note_on_c, 0, 73, 59
1, 67425, Control_c, 0, 64, 38
1, 67434, Note_off_c, 0, 73, 64
1, 67440, Control_c, 0, 64, 49
1, 67454, Control_c, 0, 64, 57
1, 67455, Note_on_c, 0, 75, 69
1, 67469, Control_c, 0, 64, 61
1, 67483, Note_off_c, 0, 75, 67
1, 67484, Control_c, 0, 64, 63
1, 67512, Note_on_c, 0, 73, 57
1, 67533, Note_off_c, 0, 73, 63
1, 67543, Control_c, 0, 64, 64
1, 67558, Control_c, 0, 64, 66
1, 67564, Note_on_c, 0, 75, 68
1, 67572, Control_c, 0, 64, 67
1, 67592, Note_off_c, 0, 75, 67
1, 67613, Note_on_c, 0, 73, 58
1, 67617, Control_c, 0, 64, 67
1, 67632, Control_c, 0, 64, 69
1, 67643, Note_off_c, 0, 73, 66
1, 67654, Control_c, 0, 64, 69
1, 67681, Note_on_c, 0, 75, 63
1, 67684, Control_c, 0, 64, 70
1, 67699, Control_c, 0, 64, 71
1, 67699, Note_off_c, 0, 75, 62
1, 67714, Control_c, 0, 64, 73
1, 67738, Note_on_c, 0, 73, 48
1, 67758, Control_c, 0, 64, 73
1, 67765, Note_off_c, 0, 73, 53
1, 67773, Control_c, 0, 64, 74
1, 67780, Note_on_c, 0, 75, 63
1, 67787, Control_c, 0, 64, 75
1, 67802, Control_c, 0, 64, 75
1, 67811, Note_off_c, 0, 75, 66
1, 67832, Control_c, 0, 64, 76
1, 67840, Note_on_c, 0, 73, 57
1, 67847, Control_c, 0, 64, 77
1, 67860, Note_off_c, 0, 73, 61
1, 67861, Control_c, 0, 64, 78
1, 67902, Note_on_c, 0, 75, 52
1, 67906, Control_c, 0, 64, 79
1, 67921, Control_c, 0, 64, 81
1, 67926, Note_off_c, 0, 75, 54
1, 67935, Control_c, 0, 64, 84
1, 67944, Note_on_c, 0, 73, 53
1, 67967, Note_off_c, 0, 73, 59
1, 67979, Control_c, 0, 64, 83
1, 68002, Note_on_c, 0, 75, 59
1, 68018, Note_off_c, 0, 75, 62
1, 68039, Control_c, 0, 64, 83
1, 68054, Control_c, 0, 64, 82
1, 68054, Note_on_c, 0, 73, 49
1, 68068, Control_c, 0, 64, 83
1, 68080, Note_off_c, 0, 73, 56
1, 68098, Note_on_c, 0, 75, 58
1, 68128, Control_c, 0, 64, 84
1, 68131, Note_off_c, 0, 75, 64
1, 68143, Control_c, 0, 64, 86
1, 68157, Control_c, 0, 64, 89
1, 68168, Note_on_c, 0, 73, 47
1, 68187, Control_c, 0, 64, 87
1, 68194, Note_off_c, 0, 73, 58
1, 68201, Control_c, 0, 64, 82
1, 68216, Control_c, 0, 64, 74
1, 68217, Note_on_c, 0, 75, 56
1, 68231, Control_c, 0, 64, 65
1, 68235, Note_off_c, 0, 75, 61
1, 68245, Note_on_c, 0, 68, 39
1, 68246, Control_c, 0, 64, 62
1, 68269, Note_off_c, 0, 70, 61
1, 68275, Control_c, 0, 64, 63
1, 68278, Note_on_c, 0, 73, 48
1, 68290, Control_c, 0, 64, 64
1, 68305, Note_off_c, 0, 73, 57
1, 68305, Control_c, 0, 64, 65
1, 68320, Note_on_c, 0, 75, 57
1, 68320, Control_c, 0, 64, 66
1, 68335, Control_c, 0, 64, 68
1, 68349, Control_c, 0, 64, 70
1, 68354, Note_off_c, 0, 75, 65
1, 68364, Control_c, 0, 64, 71
1, 68379, Control_c, 0, 64, 73
1, 68386, Note_on_c, 0, 73, 58
1, 68401, Control_c, 0, 64, 74
1, 68416, Control_c, 0, 64, 75
1, 68420, Note_off_c, 0, 73, 60
1, 68431, Control_c, 0, 64, 77
1, 68446, Note_on_c, 0, 75, 58
1, 68446, Control_c, 0, 64, 79
1, 68461, Control_c, 0, 64, 80
1, 68468, Note_off_c, 0, 75, 60
1, 68490, Control_c, 0, 64, 81
1, 68505, Note_on_c, 0, 73, 55
1, 68505, Control_c, 0, 64, 83
1, 68520, Control_c, 0, 64, 85
1, 68534, Note_off_c, 0, 73, 57
1, 68534, Control_c, 0, 64, 86
1, 68549, Control_c, 0, 64, 86
1, 68555, Note_on_c, 0, 75, 59
1, 68576, Note_off_c, 0, 75, 60
1, 68579, Control_c, 0, 64, 87
1, 68594, Control_c, 0, 64, 88
1, 68608, Control_c, 0, 64, 89
1, 68608, Control_c, 0, 67, 9
1, 68622, Note_on_c, 0, 73, 52
1, 68623, Control_c, 0, 67, 21
1, 68638, Control_c, 0, 67, 29
1, 68642, Note_off_c, 0, 73, 61
1, 68653, Control_c, 0, 64, 89
1, 68653, Control_c, 0, 67, 33
1, 68668, Note_on_c, 0, 75, 51
1, 68668, Control_c, 0, 64, 90
1, 68668, Control_c, 0, 67, 35
1, 68683, Control_c, 0, 67, 38
1, 68689, Note_off_c, 0, 75, 59
1, 68698, Control_c, 0, 67, 45
1, 68713, Control_c, 0, 64, 91
1, 68713, Control_c, 0, 67, 56
1, 68723, Note_on_c, 0, 73, 49
1, 68727, Control_c, 0, 67, 63
1, 68742, Control_c, 0, 67, 67
1, 68748, Note_off_c, 0, 73, 59
1, 68758, Control_c, 0, 67, 74
1, 68770, Note_on_c, 0, 75, 54
1, 68772, Control_c, 0, 67, 84
1, 68787, Control_c, 0, 67, 96
1, 68802, Control_c, 0, 67, 109
1, 68809, Note_off_c, 0, 75, 59
1, 68817, Control_c, 0, 67, 124
1, 68831, Note_on_c, 0, 73, 50
1, 68832, Control_c, 0, 67, 127
1, 68862, Note_off_c, 0, 73, 51
1, 68877, Control_c, 0, 64, 91
1, 68921, Control_c, 0, 64, 91
1, 68936, Control_c, 0, 64, 90
1, 68939, Note_on_c, 0, 72, 49
1, 68965, Control_c, 0, 64, 92
1, 68980, Control_c, 0, 64, 96
1, 68995, Control_c, 0, 64, 101
1, 69010, Control_c, 0, 64, 98
1, 69024, Control_c, 0, 64, 88
1, 69029, Note_off_c, 0, 72, 62
1, 69039, Control_c, 0, 64, 75
1, 69054, Control_c, 0, 64, 66
1, 69061, Note_on_c, 0, 73, 59
1, 69069, Control_c, 0, 64, 61
1, 69084, Control_c, 0, 64, 62
1, 69098, Control_c, 0, 64, 63
1, 69113, Control_c, 0, 64, 65
1, 69128, Control_c, 0, 64, 67
1, 69135, Note_off_c, 0, 73, 59
1, 69150, Control_c, 0, 64, 69
1, 69165, Control_c, 0, 64, 72
1, 69180, Control_c, 0, 64, 74
1, 69195, Control_c, 0, 64, 75
1, 69200, Note_on_c, 0, 76, 61
1, 69225, Control_c, 0, 64, 76
1, 69239, Note_off_c, 0, 76, 65
1, 69239, Control_c, 0, 64, 77
1, 69254, Control_c, 0, 64, 79
1, 69269, Control_c, 0, 64, 80
1, 69296, Note_on_c, 0, 77, 68
1, 69298, Control_c, 0, 64, 80
1, 69313, Control_c, 0, 64, 81
1, 69327, Note_off_c, 0, 77, 66
1, 69328, Control_c, 0, 64, 82
1, 69343, Control_c, 0, 64, 83
1, 69372, Control_c, 0, 64, 83
1, 69383, Note_on_c, 0, 80, 69
1, 69387, Control_c, 0, 64, 84
1, 69402, Control_c, 0, 64, 85
1, 69411, Note_off_c, 0, 80, 67
1, 69417, Control_c, 0, 64, 86
1, 69470, Note_on_c, 0, 83, 68
1, 69497, Note_off_c, 0, 83, 68
1, 69506, Control_c, 0, 64, 86
1, 69551, Note_on_c, 0, 84, 75
1, 69566, Control_c, 0, 64, 85
1, 69580, Control_c, 0, 64, 84
1, 69583, Note_off_c, 0, 84, 62
1, 69610, Control_c, 0, 64, 84
1, 69625, Control_c, 0, 64, 83
1, 69640, Control_c, 0, 64, 82
1, 69644, Note_on_c, 0, 85, 71
1, 69655, Control_c, 0, 64, 81
1, 69660, Note_off_c, 0, 85, 69
1, 69670, Control_c, 0, 64, 82
1, 69684, Control_c, 0, 64, 82
1, 69728, Note_on_c, 0, 88, 66
1, 69755, Note_off_c, 0, 88, 69
1, 69759, Control_c, 0, 64, 83
1, 69773, Note_off_c, 0, 59, 38
1, 69810, Note_off_c, 0, 65, 29
1, 69821, Note_on_c, 0, 89, 58
1, 69863, Note_off_c, 0, 89, 59
1, 69872, Note_off_c, 0, 68, 30
1, 69899, Control_c, 0, 64, 84
1, 69921, Note_on_c, 0, 92, 68
1, 69940, Note_off_c, 0, 92, 65
1, 69959, Control_c, 0, 64, 84
1, 69973, Control_c, 0, 64, 85
1, 70018, Control_c, 0, 64, 85
1, 70024, Note_on_c, 0, 95, 66
1, 70033, Control_c, 0, 64, 87
1, 70047, Control_c, 0, 64, 89
1, 70060, Note_off_c, 0, 95, 64
1, 70062, Control_c, 0, 64, 89
1, 70092, Control_c, 0, 64, 89
1, 70154, Note_on_c, 0, 96, 38
1, 70180, Control_c, 0, 64, 90
1, 70195, Control_c, 0, 64, 91
1, 70256, Note_off_c, 0, 96, 52
1, 70285, Control_c, 0, 64, 90
1, 70360, Control_c, 0, 64, 90
1, 70487, Note_on_c, 0, 99, 39
1, 70493, Control_c, 0, 64, 89
1, 70523, Control_c, 0, 64, 90
1, 70826, Control_c, 0, 64, 91
1, 70853, Note_off_c, 0, 99, 26
1, 70856, Control_c, 0, 64, 90
1, 70901, Control_c, 0, 64, 91
1, 70916, Control_c, 0, 64, 91
1, 70959, Control_c, 0, 64, 92
1, 70974, Control_c, 0, 64, 95
1, 70989, Control_c, 0, 64, 98
1, 71003, Control_c, 0, 64, 100
1, 71018, Control_c, 0, 64, 100
1, 71033, Control_c, 0, 64, 102
1, 71048, Control_c, 0, 64, 105
1, 71063, Control_c, 0, 64, 109
1, 71077, Control_c, 0, 64, 115
1, 71092, Control_c, 0, 64, 127
1, 71562, Note_on_c, 0, 97, 18
1, 71692, Note_off_c, 0, 97, 43
1, 71712, Note_on_c, 0, 93, 41
1, 71815, Note_off_c, 0, 93, 61
1, 71857, Note_on_c, 0, 94, 40
1, 71936, Note_on_c, 0, 97, 47
1, 72009, Note_off_c, 0, 97, 58
1, 72036, Note_on_c, 0, 95, 46
1, 72082, Note_off_c, 0, 94, 19
1, 72086, Note_off_c, 0, 95, 63
1, 72107, Note_on_c, 0, 91, 54
1, 72161, Control_c, 0, 64, 122
1, 72175, Note_off_c, 0, 91, 60
1, 72191, Control_c, 0, 64, 115
1, 72196, Note_on_c, 0, 92, 57
1, 72205, Control_c, 0, 64, 102
1, 72220, Control_c, 0, 64, 94
1, 72235, Control_c, 0, 64, 95
1, 72249, Control_c, 0, 64, 95
1, 72251, Note_on_c, 0, 95, 57
1, 72251, Note_off_c, 0, 92, 54
1, 72264, Control_c, 0, 64, 94
1, 72279, Control_c, 0, 64, 93
1, 72294, Control_c, 0, 64, 94
1, 72305, Note_off_c, 0, 95, 62
1, 72309, Control_c, 0, 64, 98
1, 72323, Control_c, 0, 64, 103
1, 72326, Note_on_c, 0, 94, 69
1, 72338, Control_c, 0, 64, 106
1, 72353, Control_c, 0, 64, 107
1, 72367, Control_c, 0, 64, 112
1, 72368, Note_off_c, 0, 94, 61
1, 72382, Control_c, 0, 64, 117
1, 72391, Note_on_c, 0, 89, 57
1, 72412, Control_c, 0, 64, 112
1, 72442, Control_c, 0, 64, 116
1, 72445, Note_off_c, 0, 89, 61
1, 72457, Control_c, 0, 64, 119
1, 72466, Note_on_c, 0, 90, 58
1, 72486, Control_c, 0, 64, 122
1, 72495, Note_on_c, 0, 94, 61
1, 72501, Control_c, 0, 64, 127
1, 72505, Note_off_c, 0, 90, 61
1, 72561, Note_off_c, 0, 94, 63
1, 72564, Note_on_c, 0, 92, 67
1, 72624, Note_off_c, 0, 92, 56
1, 72631, Note_on_c, 0, 88, 58
1, 72670, Note_off_c, 0, 88, 65
1, 72688, Note_on_c, 0, 89, 69
1, 72749, Note_on_c, 0, 92, 68
1, 72756, Note_off_c, 0, 89, 63
1, 72811, Note_on_c, 0, 90, 70
1, 72814, Note_off_c, 0, 92, 60
1, 72861, Note_off_c, 0, 90, 61
1, 72881, Note_on_c, 0, 86, 58
1, 72926, Note_off_c, 0, 86, 64
1, 72943, Note_on_c, 0, 87, 65
1, 72991, Note_on_c, 0, 90, 68
1, 73001, Note_off_c, 0, 87, 51
1, 73056, Note_off_c, 0, 90, 57
1, 73065, Note_on_c, 0, 89, 69
1, 73103, Note_on_c, 0, 84, 60
1, 73116, Note_off_c, 0, 89, 62
1, 73168, Note_off_c, 0, 84, 62
1, 73184, Note_on_c, 0, 85, 67
1, 73190, Control_c, 0, 64, 112
1, 73205, Control_c, 0, 64, 114
1, 73220, Control_c, 0, 64, 120
1, 73235, Control_c, 0, 64, 127
1, 73249, Note_on_c, 0, 89, 68
1, 73318, Note_off_c, 0, 85, 59
1, 73320, Note_on_c, 0, 87, 63
1, 73321, Note_off_c, 0, 89, 60
1, 73361, Note_off_c, 0, 87, 62
1, 73367, Note_on_c, 0, 82, 65
1, 73428, Note_off_c, 0, 82, 63
1, 73461, Note_on_c, 0, 84, 47
1, 73463, Note_on_c, 0, 83, 42
1, 73488, Note_on_c, 0, 87, 67
1, 73500, Note_off_c, 0, 84, 60
1, 73511, Note_off_c, 0, 83, 55
1, 73555, Note_off_c, 0, 87, 60
1, 73561, Note_on_c, 0, 85, 59
1, 73613, Note_off_c, 0, 85, 55
1, 73616, Note_on_c, 0, 81, 64
1, 73680, Note_off_c, 0, 81, 64
1, 73698, Note_on_c, 0, 82, 66
1, 73732, Note_off_c, 0, 82, 62
1, 73736, Note_on_c, 0, 85, 73
1, 73762, Control_c, 0, 64, 111
1, 73777, Control_c, 0, 64, 94
1, 73792, Control_c, 0, 64, 94
1, 73807, Control_c, 0, 64, 100
1, 73810, Note_on_c, 0, 83, 68
1, 73821, Control_c, 0, 64, 115
1, 73836, Control_c, 0, 64, 127
1, 73839, Note_off_c, 0, 85, 53
1, 73868, Note_off_c, 0, 83, 66
1, 73871, Note_on_c, 0, 79, 66
1, 73914, Note_off_c, 0, 79, 61
1, 73952, Note_on_c, 0, 80, 64
1, 73990, Note_on_c, 0, 83, 66
1, 74011, Note_off_c, 0, 80, 46
1, 74054, Note_off_c, 0, 83, 62
1, 74059, Note_on_c, 0, 82, 72
1, 74117, Note_off_c, 0, 82, 63
1, 74119, Note_on_c, 0, 77, 65
1, 74180, Note_off_c, 0, 77, 62
1, 74195, Note_on_c, 0, 78, 70
1, 74233, Note_on_c, 0, 82, 65
1, 74258, Note_off_c, 0, 78, 62
1, 74296, Control_c, 0, 64, 93
1, 74308, Note_on_c, 0, 80, 69
1, 74311, Control_c, 0, 64, 81
1, 74313, Note_off_c, 0, 82, 55
1, 74326, Control_c, 0, 64, 80
1, 74341, Control_c, 0, 64, 81
1, 74356, Control_c, 0, 64, 83
1, 74362, Note_off_c, 0, 80, 53
1, 74369, Note_on_c, 0, 76, 66
1, 74371, Control_c, 0, 64, 90
1, 74393, Control_c, 0, 64, 99
1, 74408, Control_c, 0, 64, 112
1, 74423, Control_c, 0, 64, 127
1, 74439, Note_off_c, 0, 76, 64
1, 74452, Control_c, 0, 64, 122
1, 74458, Note_on_c, 0, 77, 65
1, 74482, Control_c, 0, 64, 127
1, 74508, Note_on_c, 0, 80, 70
1, 74522, Note_off_c, 0, 77, 63
1, 74580, Note_on_c, 0, 78, 70
1, 74587, Note_off_c, 0, 80, 60
1, 74635, Note_on_c, 0, 74, 67
1, 74636, Note_off_c, 0, 78, 62
1, 74685, Note_off_c, 0, 74, 62
1, 74705, Note_on_c, 0, 75, 61
1, 74747, Note_on_c, 0, 78, 73
1, 74767, Note_off_c, 0, 75, 57
1, 74813, Note_off_c, 0, 78, 63
1, 74829, Note_on_c, 0, 77, 62
1, 74853, Note_on_c, 0, 72, 53
1, 74866, Control_c, 0, 64, 102
1, 74881, Control_c, 0, 64, 82
1, 74888, Note_off_c, 0, 77, 62
1, 74896, Control_c, 0, 64, 74
1, 74910, Control_c, 0, 64, 71
1, 74923, Note_off_c, 0, 72, 65
1, 74928, Note_on_c, 0, 73, 71
1, 74940, Control_c, 0, 64, 73
1, 74955, Control_c, 0, 64, 77
1, 74970, Control_c, 0, 64, 82
1, 74984, Control_c, 0, 64, 87
1, 74999, Control_c, 0, 64, 89
1, 75008, Note_on_c, 0, 77, 66
1, 75029, Control_c, 0, 64, 88
1, 75044, Control_c, 0, 64, 90
1, 75059, Control_c, 0, 64, 93
1, 75074, Control_c, 0, 64, 99
1, 75077, Note_on_c, 0, 75, 68
1, 75081, Note_off_c, 0, 73, 59
1, 75083, Note_off_c, 0, 77, 63
1, 75089, Control_c, 0, 64, 103
1, 75104, Control_c, 0, 64, 105
1, 75118, Control_c, 0, 64, 105
1, 75128, Note_on_c, 0, 70, 73
1, 75141, Control_c, 0, 64, 106
1, 75146, Note_off_c, 0, 75, 62
1, 75156, Control_c, 0, 64, 106
1, 75171, Control_c, 0, 64, 108
1, 75186, Control_c, 0, 64, 113
1, 75201, Control_c, 0, 64, 127
1, 75211, Note_on_c, 0, 71, 74
1, 75214, Note_off_c, 0, 70, 51
1, 75262, Note_on_c, 0, 75, 72
1, 75305, Note_off_c, 0, 71, 51
1, 75319, Note_on_c, 0, 73, 72
1, 75328, Note_off_c, 0, 75, 54
1, 75392, Note_on_c, 0, 69, 59
1, 75430, Note_off_c, 0, 73, 64
1, 75473, Note_off_c, 0, 69, 64
1, 75500, Note_on_c, 0, 70, 40
1, 75527, Control_c, 0, 64, 95
1, 75541, Control_c, 0, 64, 77
1, 75546, Note_on_c, 0, 73, 83
1, 75551, Note_off_c, 0, 70, 62
1, 75556, Control_c, 0, 64, 68
1, 75571, Control_c, 0, 64, 64
1, 75600, Control_c, 0, 64, 66
1, 75615, Control_c, 0, 64, 69
1, 75630, Control_c, 0, 64, 73
1, 75645, Control_c, 0, 64, 76
1, 75656, Note_on_c, 0, 71, 61
1, 75660, Control_c, 0, 64, 79
1, 75674, Control_c, 0, 64, 84
1, 75689, Control_c, 0, 64, 93
1, 75704, Control_c, 0, 64, 127
1, 75717, Note_off_c, 0, 71, 64
1, 75727, Note_on_c, 0, 67, 64
1, 75748, Note_off_c, 0, 73, 61
1, 75768, Note_off_c, 0, 67, 60
1, 75792, Control_c, 0, 64, 91
1, 75807, Control_c, 0, 64, 76
1, 75810, Note_on_c, 0, 68, 76
1, 75822, Control_c, 0, 64, 71
1, 75837, Control_c, 0, 64, 73
1, 75852, Control_c, 0, 64, 77
1, 75867, Control_c, 0, 64, 82
1, 75889, Control_c, 0, 64, 86
1, 75904, Control_c, 0, 64, 90
1, 75908, Note_on_c, 0, 69, 72
1, 75913, Note_off_c, 0, 68, 54
1, 75919, Control_c, 0, 64, 98
1, 75934, Control_c, 0, 64, 127
1, 75993, Note_off_c, 0, 69, 61
1, 76004, Note_on_c, 0, 70, 78
1, 76024, Control_c, 0, 64, 102
1, 76038, Control_c, 0, 64, 78
1, 76049, Note_off_c, 0, 70, 61
1, 76053, Control_c, 0, 64, 68
1, 76068, Control_c, 0, 64, 67
1, 76079, Note_on_c, 0, 71, 81
1, 76083, Control_c, 0, 64, 69
1, 76097, Control_c, 0, 64, 73
1, 76112, Control_c, 0, 64, 78
1, 76127, Control_c, 0, 64, 86
1, 76142, Control_c, 0, 64, 98
1, 76157, Control_c, 0, 64, 127
1, 76159, Note_off_c, 0, 71, 61
1, 76161, Note_on_c, 0, 72, 81
1, 76251, Note_on_c, 0, 73, 75
1, 76258, Note_off_c, 0, 72, 61
1, 76409, Note_off_c, 0, 73, 58
1, 76424, Note_on_c, 0, 77, 72
1, 76453, Control_c, 0, 64, 96
1, 76468, Control_c, 0, 64, 74
1, 76482, Control_c, 0, 64, 64
1, 76497, Control_c, 0, 64, 59
1, 76512, Control_c, 0, 64, 60
1, 76527, Control_c, 0, 64, 62
1, 76542, Control_c, 0, 64, 64
1, 76557, Control_c, 0, 64, 66
1, 76571, Control_c, 0, 64, 69
1, 76586, Control_c, 0, 64, 72
1, 76601, Control_c, 0, 64, 80
1, 76615, Control_c, 0, 64, 95
1, 76623, Note_off_c, 0, 77, 59
1, 76630, Control_c, 0, 64, 127
1, 76697, Control_c, 0, 64, 104
1, 76708, Note_on_c, 0, 75, 62
1, 76712, Control_c, 0, 64, 78
1, 76727, Control_c, 0, 64, 69
1, 76743, Control_c, 0, 64, 66
1, 76758, Control_c, 0, 64, 68
1, 76773, Control_c, 0, 64, 71
1, 76787, Control_c, 0, 64, 74
1, 76802, Control_c, 0, 64, 81
1, 76817, Control_c, 0, 64, 93
1, 76832, Control_c, 0, 64, 127
1, 76853, Note_off_c, 0, 75, 64
1, 76906, Control_c, 0, 64, 99
1, 76920, Control_c, 0, 64, 77
1, 76925, Note_on_c, 0, 73, 74
1, 76935, Control_c, 0, 64, 67
1, 76950, Control_c, 0, 64, 65
1, 76965, Control_c, 0, 64, 68
1, 76980, Control_c, 0, 64, 74
1, 76994, Control_c, 0, 64, 83
1, 77009, Control_c, 0, 64, 98
1, 77024, Control_c, 0, 64, 127
1, 77025, Note_off_c, 0, 73, 60
1, 77128, Control_c, 0, 64, 96
1, 77143, Control_c, 0, 64, 80
1, 77149, Note_on_c, 0, 75, 51
1, 77152, Note_on_c, 0, 71, 57
1, 77158, Control_c, 0, 64, 74
1, 77172, Control_c, 0, 64, 74
1, 77187, Control_c, 0, 64, 75
1, 77202, Control_c, 0, 64, 76
1, 77217, Control_c, 0, 64, 77
1, 77231, Control_c, 0, 64, 80
1, 77233, Note_off_c, 0, 71, 60
1, 77246, Control_c, 0, 64, 86
1, 77261, Control_c, 0, 64, 99
1, 77276, Control_c, 0, 64, 127
1, 77284, Note_off_c, 0, 75, 50
1, 77402, Control_c, 0, 64, 108
1, 77416, Note_on_c, 0, 73, 59
1, 77417, Control_c, 0, 64, 82
1, 77417, Note_on_c, 0, 70, 49
1, 77432, Control_c, 0, 64, 71
1, 77446, Control_c, 0, 64, 66
1, 77476, Control_c, 0, 64, 69
1, 77491, Control_c, 0, 64, 73
1, 77506, Control_c, 0, 64, 80
1, 77512, Note_off_c, 0, 70, 55
1, 77520, Control_c, 0, 64, 88
1, 77536, Control_c, 0, 64, 101
1, 77551, Control_c, 0, 64, 127
1, 77614, Note_off_c, 0, 73, 34
1, 77655, Control_c, 0, 64, 125
1, 77669, Control_c, 0, 64, 83
1, 77684, Control_c, 0, 64, 69
1, 77700, Control_c, 0, 64, 64
1, 77713, Note_on_c, 0, 71, 46
1, 77715, Control_c, 0, 64, 65
1, 77717, Note_on_c, 0, 68, 43
1, 77730, Control_c, 0, 64, 67
1, 77744, Control_c, 0, 64, 70
1, 77759, Control_c, 0, 64, 75
1, 77774, Control_c, 0, 64, 82
1, 77789, Control_c, 0, 64, 93
1, 77804, Control_c, 0, 64, 112
1, 77818, Control_c, 0, 64, 127
1, 77849, Note_off_c, 0, 68, 48
1, 77873, Note_off_c, 0, 71, 59
1, 77942, Poly_aftertouch_c, 0, 73, 127
1, 77990, Poly_aftertouch_c, 0, 73, 0
1, 78111, Note_on_c, 0, 70, 47
1, 78152, Note_on_c, 0, 66, 47
1, 78166, Control_c, 0, 64, 98
1, 78181, Control_c, 0, 64, 78
1, 78195, Control_c, 0, 64, 66
1, 78210, Control_c, 0, 64, 62
1, 78225, Control_c, 0, 64, 62
1, 78240, Control_c, 0, 64, 63
1, 78255, Control_c, 0, 64, 65
1, 78269, Control_c, 0, 64, 66
1, 78284, Control_c, 0, 64, 69
1, 78299, Control_c, 0, 64, 72
1, 78314, Control_c, 0, 64, 75
1, 78329, Control_c, 0, 64, 77
1, 78345, Control_c, 0, 64, 80
1, 78359, Control_c, 0, 64, 82
1, 78374, Control_c, 0, 64, 87
1, 78389, Control_c, 0, 64, 95
1, 78399, Note_on_c, 0, 63, 27
1, 78404, Control_c, 0, 64, 100
1, 78419, Control_c, 0, 64, 102
1, 78433, Control_c, 0, 64, 103
1, 78448, Control_c, 0, 64, 107
1, 78463, Control_c, 0, 64, 114
1, 78478, Control_c, 0, 64, 117
1, 78502, Note_off_c, 0, 70, 64
1, 78507, Note_off_c, 0, 66, 55
1, 78508, Control_c, 0, 64, 115
1, 78532, Note_on_c, 0, 61, 41
1, 78535, Note_off_c, 0, 63, 41
1, 78553, Control_c, 0, 64, 116
1, 78567, Control_c, 0, 64, 115
1, 78582, Control_c, 0, 64, 113
1, 78633, Note_off_c, 0, 61, 55
1, 78645, Note_on_c, 0, 70, 52
1, 78655, Note_on_c, 0, 66, 45
1, 78672, Note_on_c, 0, 54, 35
1, 78685, Control_c, 0, 64, 115
1, 78696, Note_off_c, 0, 66, 59
1, 78722, Note_off_c, 0, 70, 60
1, 78730, Note_off_c, 0, 54, 62
1, 78770, Note_on_c, 0, 61, 38
1, 78789, Control_c, 0, 64, 114
1, 78803, Control_c, 0, 64, 115
1, 78818, Control_c, 0, 64, 127
1, 78851, Note_off_c, 0, 61, 53
1, 78904, Note_on_c, 0, 61, 32
1, 78915, Note_on_c, 0, 54, 39
1, 78945, Control_c, 0, 64, 92
1, 78957, Note_on_c, 0, 66, 59
1, 78959, Control_c, 0, 64, 81
1, 78974, Control_c, 0, 64, 76
1, 78988, Note_off_c, 0, 54, 55
1, 78989, Control_c, 0, 64, 73
1, 79004, Control_c, 0, 64, 73
1, 79012, Note_on_c, 0, 49, 39
1, 79018, Control_c, 0, 64, 74
1, 79021, Note_on_c, 0, 70, 65
1, 79033, Control_c, 0, 64, 76
1, 79048, Control_c, 0, 64, 81
1, 79063, Control_c, 0, 64, 85
1, 79078, Control_c, 0, 64, 88
1, 79092, Control_c, 0, 64, 90
1, 79134, Note_off_c, 0, 49, 61
1, 79138, Control_c, 0, 64, 92
1, 79153, Control_c, 0, 64, 97
1, 79168, Control_c, 0, 64, 102
1, 79180, Note_on_c, 0, 51, 50
1, 79183, Control_c, 0, 64, 105
1, 79191, Note_off_c, 0, 66, 61
1, 79196, Control_c, 0, 64, 106
1, 79226, Control_c, 0, 64, 108
1, 79235, Note_off_c, 0, 61, 37
1, 79241, Control_c, 0, 64, 112
1, 79256, Control_c, 0, 64, 117
1, 79258, Note_off_c, 0, 51, 61
1, 79260, Note_on_c, 0, 49, 52
1, 79300, Control_c, 0, 64, 119
1, 79314, Control_c, 0, 64, 127
1, 79360, Note_off_c, 0, 49, 58
1, 79378, Note_on_c, 0, 42, 49
1, 79399, Note_on_c, 0, 68, 62
1, 79405, Note_on_c, 0, 71, 71
1, 79475, Note_off_c, 0, 68, 61
1, 79482, Note_off_c, 0, 71, 63
1, 79492, Note_off_c, 0, 70, 39
1, 79501, Note_on_c, 0, 49, 49
1, 79521, Note_off_c, 0, 42, 57
1, 79651, Note_on_c, 0, 75, 67
1, 79667, Note_on_c, 0, 71, 60
1, 79673, Note_off_c, 0, 49, 61
1, 79885, Control_c, 0, 64, 122
1, 79900, Control_c, 0, 64, 101
1, 79914, Control_c, 0, 64, 83
1, 79930, Control_c, 0, 64, 70
1, 79935, Note_on_c, 0, 63, 42
1, 79945, Control_c, 0, 64, 62
1, 79960, Control_c, 0, 64, 57
1, 79974, Control_c, 0, 64, 56
1, 79989, Control_c, 0, 64, 59
1, 80004, Control_c, 0, 64, 62
1, 80019, Control_c, 0, 64, 63
1, 80029, Note_off_c, 0, 63, 54
1, 80034, Control_c, 0, 64, 64
1, 80049, Control_c, 0, 64, 65
1, 80053, Note_on_c, 0, 61, 44
1, 80063, Control_c, 0, 64, 66
1, 80078, Control_c, 0, 64, 66
1, 80093, Control_c, 0, 64, 67
1, 80108, Control_c, 0, 64, 69
1, 80123, Control_c, 0, 64, 70
1, 80137, Control_c, 0, 64, 72
1, 80152, Control_c, 0, 64, 73
1, 80158, Note_on_c, 0, 73, 50
1, 80162, Note_off_c, 0, 61, 58
1, 80168, Note_on_c, 0, 70, 42
1, 80191, Note_off_c, 0, 71, 52
1, 80198, Note_on_c, 0, 54, 37
1, 80211, Control_c, 0, 64, 73
1, 80226, Control_c, 0, 64, 74
1, 80231, Note_off_c, 0, 75, 54
1, 80241, Control_c, 0, 64, 76
1, 80255, Control_c, 0, 64, 76
1, 80287, Note_off_c, 0, 54, 55
1, 80300, Control_c, 0, 64, 77
1, 80308, Note_on_c, 0, 61, 28
1, 80315, Control_c, 0, 64, 77
1, 80329, Control_c, 0, 64, 78
1, 80374, Control_c, 0, 64, 78
1, 80397, Control_c, 0, 64, 79
1, 80410, Note_off_c, 0, 70, 62
1, 80411, Control_c, 0, 64, 81
1, 80425, Note_off_c, 0, 61, 32
1, 80425, Note_off_c, 0, 73, 64
1, 80426, Control_c, 0, 64, 82
1, 80431, Note_on_c, 0, 54, 51
1, 80470, Control_c, 0, 64, 82
1, 80485, Control_c, 0, 64, 83
1, 80500, Control_c, 0, 64, 84
1, 80546, Note_off_c, 0, 54, 62
1, 80572, Note_on_c, 0, 49, 40
1, 80657, Note_off_c, 0, 49, 63
1, 80716, Note_on_c, 0, 71, 60
1, 80730, Note_on_c, 0, 68, 51
1, 80738, Control_c, 0, 64, 83
1, 80753, Note_on_c, 0, 51, 38
1, 80767, Control_c, 0, 64, 83
1, 80797, Control_c, 0, 64, 83
1, 80812, Control_c, 0, 64, 84
1, 80821, Note_off_c, 0, 68, 61
1, 80827, Control_c, 0, 64, 87
1, 80832, Note_off_c, 0, 51, 58
1, 80842, Control_c, 0, 64, 95
1, 80849, Note_on_c, 0, 49, 42
1, 80857, Control_c, 0, 64, 109
1, 80872, Control_c, 0, 64, 127
1, 80916, Control_c, 0, 64, 106
1, 80931, Control_c, 0, 64, 84
1, 80946, Control_c, 0, 64, 73
1, 80951, Note_off_c, 0, 49, 59
1, 80957, Note_on_c, 0, 70, 76
1, 80960, Control_c, 0, 64, 68
1, 80972, Note_on_c, 0, 42, 52
1, 80975, Control_c, 0, 64, 68
1, 80978, Note_on_c, 0, 66, 56
1, 80990, Control_c, 0, 64, 70
1, 81005, Control_c, 0, 64, 72
1, 81020, Control_c, 0, 64, 77
1, 81034, Control_c, 0, 64, 84
1, 81046, Note_off_c, 0, 71, 53
1, 81049, Control_c, 0, 64, 91
1, 81064, Control_c, 0, 64, 94
1, 81068, Note_off_c, 0, 42, 61
1, 81078, Note_on_c, 0, 49, 53
1, 81131, Control_c, 0, 64, 95
1, 81136, Note_off_c, 0, 66, 59
1, 81146, Control_c, 0, 64, 96
1, 81160, Control_c, 0, 64, 97
1, 81170, Note_off_c, 0, 49, 62
1, 81206, Note_on_c, 0, 68, 81
1, 81214, Note_on_c, 0, 65, 51
1, 81268, Note_off_c, 0, 70, 60
1, 81353, Control_c, 0, 64, 101
1, 81367, Control_c, 0, 64, 127
1, 81456, Control_c, 0, 64, 107
1, 81468, Note_on_c, 0, 63, 44
1, 81471, Control_c, 0, 64, 83
1, 81473, Note_on_c, 0, 75, 72
1, 81486, Control_c, 0, 64, 71
1, 81492, Note_on_c, 0, 71, 63
1, 81501, Control_c, 0, 64, 66
1, 81516, Control_c, 0, 64, 65
1, 81519, Note_off_c, 0, 65, 60
1, 81531, Control_c, 0, 64, 66
1, 81546, Control_c, 0, 64, 69
1, 81551, Note_off_c, 0, 68, 62
1, 81561, Control_c, 0, 64, 74
1, 81575, Control_c, 0, 64, 79
1, 81587, Note_on_c, 0, 61, 55
1, 81590, Control_c, 0, 64, 84
1, 81595, Note_off_c, 0, 63, 38
1, 81598, Note_off_c, 0, 75, 64
1, 81605, Control_c, 0, 64, 87
1, 81620, Control_c, 0, 64, 88
1, 81650, Control_c, 0, 64, 89
1, 81665, Control_c, 0, 64, 91
1, 81680, Control_c, 0, 64, 95
1, 81691, Note_on_c, 0, 73, 72
1, 81694, Control_c, 0, 64, 97
1, 81699, Note_on_c, 0, 70, 66
1, 81703, Note_off_c, 0, 61, 60
1, 81709, Control_c, 0, 64, 97
1, 81716, Note_on_c, 0, 53, 57
1, 81739, Control_c, 0, 64, 98
1, 81744, Note_off_c, 0, 71, 55
1, 81760, Note_off_c, 0, 70, 59
1, 81776, Note_off_c, 0, 53, 63
1, 81818, Note_on_c, 0, 61, 46
1, 81843, Control_c, 0, 64, 101
1, 81857, Control_c, 0, 64, 122
1, 81879, Control_c, 0, 64, 127
1, 81903, Note_off_c, 0, 61, 57
1, 81933, Note_on_c, 0, 53, 49
1, 81950, Note_on_c, 0, 71, 74
1, 81954, Control_c, 0, 64, 85
1, 81962, Note_on_c, 0, 68, 54
1, 81969, Control_c, 0, 64, 71
1, 81983, Control_c, 0, 64, 66
1, 81998, Control_c, 0, 64, 66
1, 82004, Poly_aftertouch_c, 0, 61, 127
1, 82013, Control_c, 0, 64, 69
1, 82024, Note_off_c, 0, 53, 62
1, 82028, Control_c, 0, 64, 73
1, 82039, Poly_aftertouch_c, 0, 61, 0
1, 82042, Control_c, 0, 64, 77
1, 82053, Note_on_c, 0, 49, 46
1, 82057, Control_c, 0, 64, 81
1, 82072, Control_c, 0, 64, 85
1, 82087, Note_off_c, 0, 68, 55
1, 82087, Control_c, 0, 64, 89
1, 82101, Control_c, 0, 64, 91
1, 82146, Control_c, 0, 64, 91
1, 82161, Control_c, 0, 64, 93
1, 82174, Note_off_c, 0, 49, 62
1, 82176, Control_c, 0, 64, 94
1, 82196, Note_on_c, 0, 70, 68
1, 82210, Note_on_c, 0, 66, 50
1, 82213, Note_on_c, 0, 51, 51
1, 82220, Control_c, 0, 64, 94
1, 82234, Control_c, 0, 64, 97
1, 82249, Control_c, 0, 64, 101
1, 82264, Control_c, 0, 64, 104
1, 82304, Note_off_c, 0, 51, 63
1, 82309, Control_c, 0, 64, 109
1, 82317, Note_on_c, 0, 49, 47
1, 82324, Control_c, 0, 64, 127
1, 82370, Note_off_c, 0, 66, 27
1, 82388, Note_off_c, 0, 73, 24
1, 82412, Note_off_c, 0, 49, 61
1, 82428, Note_on_c, 0, 42, 48
1, 82443, Note_on_c, 0, 68, 71
1, 82452, Note_off_c, 0, 71, 36
1, 82458, Control_c, 0, 64, 98
1, 82472, Control_c, 0, 64, 73
1, 82481, Note_off_c, 0, 70, 50
1, 82484, Note_on_c, 0, 65, 45
1, 82487, Control_c, 0, 64, 64
1, 82502, Control_c, 0, 64, 59
1, 82517, Control_c, 0, 64, 59
1, 82519, Note_off_c, 0, 65, 60
1, 82532, Control_c, 0, 64, 61
1, 82546, Note_off_c, 0, 42, 59
1, 82547, Control_c, 0, 64, 64
1, 82548, Note_on_c, 0, 49, 45
1, 82562, Control_c, 0, 64, 67
1, 82577, Control_c, 0, 64, 71
1, 82592, Control_c, 0, 64, 74
1, 82606, Control_c, 0, 64, 75
1, 82663, Note_off_c, 0, 49, 62
1, 82672, Control_c, 0, 64, 76
1, 82687, Control_c, 0, 64, 77
1, 82693, Note_on_c, 0, 69, 76
1, 82702, Control_c, 0, 64, 78
1, 82717, Control_c, 0, 64, 79
1, 82729, Note_on_c, 0, 65, 45
1, 82747, Control_c, 0, 64, 81
1, 82762, Control_c, 0, 64, 85
1, 82777, Control_c, 0, 64, 88
1, 82791, Control_c, 0, 64, 90
1, 82821, Control_c, 0, 64, 90
1, 82836, Control_c, 0, 64, 91
1, 82850, Control_c, 0, 64, 91
1, 82895, Control_c, 0, 64, 93
1, 82910, Control_c, 0, 64, 99
1, 82924, Control_c, 0, 64, 127
1, 82953, Note_on_c, 0, 63, 39
1, 82984, Control_c, 0, 64, 93
1, 82998, Control_c, 0, 64, 69
1, 83013, Control_c, 0, 64, 55
1, 83028, Note_off_c, 0, 63, 56
1, 83028, Control_c, 0, 64, 48
1, 83041, Note_off_c, 0, 68, 8
1, 83043, Control_c, 0, 64, 49
1, 83057, Control_c, 0, 64, 52
1, 83060, Note_on_c, 0, 61, 40
1, 83072, Control_c, 0, 64, 56
1, 83087, Control_c, 0, 64, 59
1, 83102, Control_c, 0, 64, 62
1, 83117, Control_c, 0, 64, 65
1, 83133, Control_c, 0, 64, 66
1, 83147, Control_c, 0, 64, 66
1, 83177, Control_c, 0, 64, 66
1, 83184, Note_on_c, 0, 70, 53
1, 83187, Note_on_c, 0, 54, 39
1, 83188, Note_off_c, 0, 65, 53
1, 83192, Control_c, 0, 64, 67
1, 83196, Note_on_c, 0, 66, 45
1, 83204, Note_off_c, 0, 61, 36
1, 83207, Control_c, 0, 64, 69
1, 83221, Control_c, 0, 64, 69
1, 83225, Note_off_c, 0, 69, 54
1, 83251, Control_c, 0, 64, 70
1, 83266, Control_c, 0, 64, 71
1, 83280, Control_c, 0, 64, 72
1, 83295, Control_c, 0, 64, 73
1, 83307, Note_on_c, 0, 61, 32
1, 83310, Note_off_c, 0, 54, 58
1, 83340, Control_c, 0, 64, 74
1, 83355, Control_c, 0, 64, 75
1, 83377, Control_c, 0, 64, 76
1, 83387, Note_off_c, 0, 66, 62
1, 83392, Control_c, 0, 64, 77
1, 83407, Control_c, 0, 64, 78
1, 83415, Note_off_c, 0, 70, 65
1, 83422, Control_c, 0, 64, 79
1, 83436, Control_c, 0, 64, 82
1, 83451, Control_c, 0, 64, 84
1, 83462, Note_on_c, 0, 54, 48
1, 83466, Control_c, 0, 64, 86
1, 83477, Note_off_c, 0, 61, 43
1, 83480, Control_c, 0, 64, 87
1, 83495, Control_c, 0, 64, 87
1, 83542, Note_off_c, 0, 54, 59
1, 83575, Note_on_c, 0, 49, 41
1, 83666, Note_off_c, 0, 49, 58
1, 83688, Control_c, 0, 64, 87
1, 83718, Control_c, 0, 64, 86
1, 83755, Note_on_c, 0, 85, 55
1, 83774, Note_on_c, 0, 82, 46
1, 83777, Control_c, 0, 64, 87
1, 83784, Note_on_c, 0, 51, 41
1, 83796, Note_on_c, 0, 73, 37
1, 83806, Control_c, 0, 64, 87
1, 83836, Control_c, 0, 64, 88
1, 83844, Note_off_c, 0, 73, 47
1, 83865, Note_off_c, 0, 85, 65
1, 83889, Note_off_c, 0, 51, 52
1, 83900, Note_off_c, 0, 82, 63
1, 83904, Note_on_c, 0, 49, 35
1, 83941, Control_c, 0, 64, 87
1, 83956, Note_off_c, 0, 49, 59
1, 83971, Control_c, 0, 64, 87
1, 83998, Note_on_c, 0, 83, 64
1, 84000, Control_c, 0, 64, 86
1, 84014, Note_on_c, 0, 42, 41
1, 84020, Note_on_c, 0, 71, 45
1, 84026, Note_on_c, 0, 80, 42
1, 84059, Control_c, 0, 64, 87
1, 84070, Note_off_c, 0, 71, 63
1, 84074, Control_c, 0, 64, 88
1, 84096, Note_off_c, 0, 83, 59
1, 84106, Note_off_c, 0, 42, 49
1, 84121, Note_on_c, 0, 49, 41
1, 84147, Note_off_c, 0, 80, 62
1, 84215, Control_c, 0, 64, 88
1, 84217, Note_off_c, 0, 49, 57
1, 84230, Control_c, 0, 64, 89
1, 84245, Control_c, 0, 64, 90
1, 84259, Control_c, 0, 64, 91
1, 84264, Note_on_c, 0, 82, 67
1, 84274, Control_c, 0, 64, 92
1, 84279, Note_on_c, 0, 78, 59
1, 84289, Control_c, 0, 64, 92
1, 84291, Note_on_c, 0, 70, 41
1, 84348, Control_c, 0, 64, 93
1, 84363, Control_c, 0, 64, 99
1, 84377, Control_c, 0, 64, 127
1, 84452, Control_c, 0, 64, 116
1, 84467, Control_c, 0, 64, 80
1, 84482, Control_c, 0, 64, 67
1, 84496, Control_c, 0, 64, 65
1, 84511, Control_c, 0, 64, 67
1, 84514, Note_on_c, 0, 63, 52
1, 84526, Control_c, 0, 64, 72
1, 84541, Control_c, 0, 64, 77
1, 84556, Control_c, 0, 64, 86
1, 84570, Note_off_c, 0, 78, 60
1, 84570, Control_c, 0, 64, 100
1, 84585, Control_c, 0, 64, 127
1, 84586, Note_off_c, 0, 70, 31
1, 84590, Note_off_c, 0, 63, 43
1, 84598, Note_off_c, 0, 82, 57
1, 84610, Note_on_c, 0, 61, 49
1, 84629, Control_c, 0, 64, 122
1, 84644, Control_c, 0, 64, 127
1, 84706, Note_off_c, 0, 61, 57
1, 84723, Note_on_c, 0, 54, 48
1, 84746, Note_on_c, 0, 82, 76
1, 84772, Note_on_c, 0, 78, 57
1, 84784, Note_on_c, 0, 70, 38
1, 84814, Note_off_c, 0, 54, 61
1, 84824, Note_off_c, 0, 70, 46
1, 84827, Note_off_c, 0, 82, 64
1, 84838, Note_off_c, 0, 78, 55
1, 84866, Note_on_c, 0, 61, 50
1, 84973, Note_off_c, 0, 61, 45
1, 84998, Note_on_c, 0, 82, 84
1, 85006, Note_on_c, 0, 54, 41
1, 85020, Note_on_c, 0, 70, 44
1, 85022, Note_on_c, 0, 78, 49
1, 85080, Note_off_c, 0, 54, 57
1, 85104, Note_on_c, 0, 49, 40
1, 85124, Note_off_c, 0, 78, 35
1, 85204, Note_off_c, 0, 49, 63
1, 85250, Note_off_c, 0, 70, 62
1, 85259, Note_on_c, 0, 51, 52
1, 85329, Note_off_c, 0, 82, 62
1, 85340, Note_on_c, 0, 49, 52
1, 85345, Note_off_c, 0, 51, 59
1, 85436, Note_on_c, 0, 83, 83
1, 85444, Note_on_c, 0, 80, 43
1, 85450, Note_off_c, 0, 49, 60
1, 85464, Note_on_c, 0, 42, 55
1, 85468, Note_off_c, 0, 80, 57
1, 85472, Note_on_c, 0, 71, 10
1, 85484, Note_off_c, 0, 83, 66
1, 85519, Note_off_c, 0, 71, 38
1, 85570, Note_off_c, 0, 42, 61
1, 85572, Note_on_c, 0, 49, 57
1, 85674, Note_off_c, 0, 49, 61
1, 85715, Note_on_c, 0, 87, 80
1, 85719, Note_on_c, 0, 83, 50
1, 85753, Note_on_c, 0, 75, 47
1, 85994, Control_c, 0, 64, 98
1, 85996, Note_on_c, 0, 63, 39
1, 86009, Control_c, 0, 64, 68
1, 86023, Control_c, 0, 64, 55
1, 86038, Control_c, 0, 64, 52
1, 86053, Control_c, 0, 64, 54
1, 86065, Note_off_c, 0, 75, 60
1, 86067, Control_c, 0, 64, 60
1, 86082, Control_c, 0, 64, 64
1, 86083, Note_off_c, 0, 63, 48
1, 86095, Note_on_c, 0, 61, 42
1, 86097, Control_c, 0, 64, 67
1, 86099, Note_off_c, 0, 87, 63
1, 86112, Control_c, 0, 64, 70
1, 86127, Control_c, 0, 64, 72
1, 86172, Control_c, 0, 64, 72
1, 86187, Control_c, 0, 64, 73
1, 86202, Control_c, 0, 64, 74
1, 86216, Control_c, 0, 64, 76
1, 86218, Note_off_c, 0, 61, 55
1, 86228, Note_on_c, 0, 85, 51
1, 86231, Control_c, 0, 64, 77
1, 86234, Note_on_c, 0, 73, 43
1, 86237, Note_on_c, 0, 54, 38
1, 86250, Note_on_c, 0, 82, 44
1, 86275, Control_c, 0, 64, 78
1, 86282, Note_off_c, 0, 83, 28
1, 86290, Control_c, 0, 64, 80
1, 86305, Control_c, 0, 64, 81
1, 86321, Control_c, 0, 64, 82
1, 86324, Note_off_c, 0, 54, 62
1, 86343, Note_on_c, 0, 61, 35
1, 86387, Control_c, 0, 64, 82
1, 86421, Note_off_c, 0, 82, 43
1, 86434, Note_off_c, 0, 85, 35
1, 86444, Note_off_c, 0, 73, 43
1, 86476, Note_on_c, 0, 54, 50
1, 86476, Control_c, 0, 64, 83
1, 86485, Note_off_c, 0, 61, 32
1, 86491, Control_c, 0, 64, 83
1, 86573, Note_off_c, 0, 54, 61
1, 86586, Note_on_c, 0, 49, 39
1, 86683, Note_off_c, 0, 49, 61
1, 86720, Note_on_c, 0, 83, 73
1, 86728, Control_c, 0, 64, 84
1, 86739, Note_on_c, 0, 71, 59
1, 86746, Note_on_c, 0, 80, 45
1, 86759, Note_on_c, 0, 51, 45
1, 86772, Control_c, 0, 64, 84
1, 86779, Note_off_c, 0, 80, 49
1, 86787, Control_c, 0, 64, 86
1, 86802, Control_c, 0, 64, 92
1, 86812, Note_off_c, 0, 71, 63
1, 86817, Control_c, 0, 64, 107
1, 86832, Control_c, 0, 64, 127
1, 86849, Note_off_c, 0, 51, 61
1, 86853, Note_on_c, 0, 49, 46
1, 86950, Control_c, 0, 64, 87
1, 86957, Note_on_c, 0, 82, 78
1, 86959, Note_off_c, 0, 49, 58
1, 86965, Control_c, 0, 64, 76
1, 86969, Note_on_c, 0, 42, 53
1, 86980, Control_c, 0, 64, 73
1, 86995, Control_c, 0, 64, 75
1, 86999, Note_on_c, 0, 70, 49
1, 87009, Control_c, 0, 64, 77
1, 87024, Control_c, 0, 64, 81
1, 87039, Control_c, 0, 64, 92
1, 87054, Control_c, 0, 64, 112
1, 87066, Note_off_c, 0, 42, 62
1, 87069, Control_c, 0, 64, 127
1, 87086, Note_on_c, 0, 49, 53
1, 87090, Note_off_c, 0, 70, 50
1, 87134, Note_off_c, 0, 49, 64
1, 87177, Note_off_c, 0, 83, 29
1, 87199, Note_on_c, 0, 80, 75
1, 87204, Note_on_c, 0, 68, 60
1, 87208, Note_on_c, 0, 77, 70
1, 87226, Note_off_c, 0, 82, 64
1, 87239, Note_off_c, 0, 68, 64
1, 87308, Note_off_c, 0, 77, 63
1, 87340, Note_off_c, 0, 80, 62
1, 87459, Note_on_c, 0, 87, 75
1, 87474, Note_on_c, 0, 63, 50
1, 87477, Note_on_c, 0, 83, 61
1, 87477, Control_c, 0, 64, 110
1, 87485, Note_on_c, 0, 75, 54
1, 87492, Control_c, 0, 64, 86
1, 87507, Control_c, 0, 64, 73
1, 87521, Control_c, 0, 64, 69
1, 87536, Control_c, 0, 64, 68
1, 87551, Control_c, 0, 64, 71
1, 87566, Control_c, 0, 64, 76
1, 87576, Note_off_c, 0, 63, 50
1, 87581, Control_c, 0, 64, 86
1, 87591, Note_on_c, 0, 61, 53
1, 87593, Note_off_c, 0, 75, 58
1, 87595, Control_c, 0, 64, 103
1, 87610, Note_off_c, 0, 87, 63
1, 87610, Control_c, 0, 64, 127
1, 87692, Note_off_c, 0, 61, 62
1, 87709, Note_on_c, 0, 85, 75
1, 87710, Note_on_c, 0, 53, 54
1, 87726, Note_on_c, 0, 82, 63
1, 87741, Note_on_c, 0, 73, 50
1, 87766, Note_off_c, 0, 53, 62
1, 87771, Note_off_c, 0, 83, 33
1, 87814, Note_off_c, 0, 82, 56
1, 87820, Note_on_c, 0, 61, 47
1, 87831, Note_off_c, 0, 73, 62
1, 87835, Note_off_c, 0, 85, 66
1, 87930, Control_c, 0, 64, 90
1, 87939, Note_on_c, 0, 53, 50
1, 87944, Control_c, 0, 64, 78
1, 87945, Note_on_c, 0, 83, 76
1, 87959, Control_c, 0, 64, 74
1, 87960, Note_on_c, 0, 71, 64
1, 87969, Note_off_c, 0, 61, 36
1, 87974, Control_c, 0, 64, 75
1, 87975, Note_on_c, 0, 80, 45
1, 87989, Control_c, 0, 64, 77
1, 88004, Control_c, 0, 64, 81
1, 88005, Note_off_c, 0, 80, 52
1, 88018, Control_c, 0, 64, 89
1, 88023, Note_off_c, 0, 71, 62
1, 88026, Note_off_c, 0, 53, 60
1, 88033, Control_c, 0, 64, 104
1, 88048, Control_c, 0, 64, 127
1, 88052, Note_on_c, 0, 49, 42
1, 88150, Note_off_c, 0, 49, 62
1, 88197, Note_on_c, 0, 51, 54
1, 88199, Note_on_c, 0, 82, 78
1, 88211, Note_on_c, 0, 78, 61
1, 88217, Note_on_c, 0, 70, 53
1, 88272, Note_off_c, 0, 78, 62
1, 88291, Note_on_c, 0, 49, 55
1, 88308, Note_off_c, 0, 51, 57
1, 88318, Note_off_c, 0, 70, 48
1, 88342, Note_off_c, 0, 83, 36
1, 88401, Note_off_c, 0, 49, 61
1, 88418, Control_c, 0, 64, 82
1, 88430, Note_on_c, 0, 42, 46
1, 88433, Control_c, 0, 64, 66
1, 88441, Note_off_c, 0, 82, 59
1, 88448, Control_c, 0, 64, 63
1, 88450, Note_on_c, 0, 80, 51
1, 88451, Note_on_c, 0, 68, 50
1, 88459, Note_on_c, 0, 77, 55
1, 88463, Control_c, 0, 64, 64
1, 88478, Control_c, 0, 64, 65
1, 88493, Control_c, 0, 64, 68
1, 88508, Control_c, 0, 64, 72
1, 88520, Note_off_c, 0, 68, 58
1, 88521, Note_off_c, 0, 80, 65
1, 88523, Control_c, 0, 64, 79
1, 88537, Control_c, 0, 64, 85
1, 88552, Control_c, 0, 64, 91
1, 88562, Note_off_c, 0, 42, 52
1, 88567, Control_c, 0, 64, 95
1, 88568, Note_on_c, 0, 49, 50
1, 88582, Control_c, 0, 64, 98
1, 88597, Control_c, 0, 64, 99
1, 88612, Control_c, 0, 64, 100
1, 88634, Control_c, 0, 64, 102
1, 88649, Control_c, 0, 64, 107
1, 88664, Control_c, 0, 64, 113
1, 88678, Control_c, 0, 64, 119
1, 88715, Note_on_c, 0, 78, 51
1, 88715, Note_on_c, 0, 82, 64
1, 88715, Note_off_c, 0, 49, 60
1, 88732, Note_on_c, 0, 70, 49
1, 88751, Note_off_c, 0, 77, 35
1, 88783, Control_c, 0, 64, 117
1, 88872, Control_c, 0, 64, 127
1, 88947, Control_c, 0, 64, 117
1, 88962, Control_c, 0, 64, 82
1, 88976, Control_c, 0, 64, 67
1, 88979, Poly_aftertouch_c, 0, 80, 127
1, 88991, Control_c, 0, 64, 57
1, 89006, Control_c, 0, 64, 55
1, 89007, Note_on_c, 0, 63, 39
1, 89021, Control_c, 0, 64, 58
1, 89036, Control_c, 0, 64, 62
1, 89050, Control_c, 0, 64, 65
1, 89065, Control_c, 0, 64, 68
1, 89080, Control_c, 0, 64, 71
1, 89094, Control_c, 0, 64, 77
1, 89100, Note_off_c, 0, 63, 54
1, 89109, Control_c, 0, 64, 81
1, 89118, Note_on_c, 0, 61, 46
1, 89124, Control_c, 0, 64, 83
1, 89154, Control_c, 0, 64, 83
1, 89168, Control_c, 0, 64, 85
1, 89183, Control_c, 0, 64, 87
1, 89213, Control_c, 0, 64, 86
1, 89217, Note_off_c, 0, 61, 56
1, 89226, Note_on_c, 0, 54, 48
1, 89242, Control_c, 0, 64, 87
1, 89257, Control_c, 0, 64, 87
1, 89319, Note_off_c, 0, 54, 63
1, 89332, Note_on_c, 0, 61, 44
1, 89346, Control_c, 0, 64, 87
1, 89413, Control_c, 0, 64, 86
1, 89428, Control_c, 0, 64, 85
1, 89442, Control_c, 0, 64, 84
1, 89469, Note_off_c, 0, 61, 37
1, 89470, Note_on_c, 0, 54, 51
1, 89501, Control_c, 0, 64, 84
1, 89517, Control_c, 0, 64, 83
1, 89532, Control_c, 0, 64, 82
1, 89555, Note_off_c, 0, 54, 58
1, 89588, Note_on_c, 0, 49, 30
1, 89606, Control_c, 0, 64, 82
1, 89666, Control_c, 0, 64, 81
1, 89679, Control_c, 0, 64, 81
1, 89683, Note_off_c, 0, 49, 56
1, 89723, Control_c, 0, 64, 81
1, 89737, Note_on_c, 0, 51, 47
1, 89768, Control_c, 0, 64, 81
1, 89854, Note_on_c, 0, 49, 29
1, 89857, Control_c, 0, 64, 81
1, 89896, Note_off_c, 0, 51, 37
1, 89931, Control_c, 0, 64, 82
1, 89946, Control_c, 0, 64, 82
1, 89961, Control_c, 0, 64, 83
1, 90035, Control_c, 0, 64, 82
1, 90050, Control_c, 0, 64, 82
1, 90064, Control_c, 0, 64, 81
1, 90105, Note_on_c, 0, 42, 37
1, 90145, Control_c, 0, 64, 82
1, 90152, Note_off_c, 0, 49, 32
1, 90153, Note_off_c, 0, 82, 36
1, 90161, Poly_aftertouch_c, 0, 80, 0
1, 90188, Note_off_c, 0, 70, 62
1, 90196, Note_off_c, 0, 78, 63
1, 90205, Control_c, 0, 64, 82
1, 90220, Control_c, 0, 64, 83
1, 90250, Control_c, 0, 64, 83
1, 90294, Control_c, 0, 64, 84
1, 90309, Control_c, 0, 64, 85
1, 90324, Control_c, 0, 64, 86
1, 90369, Control_c, 0, 64, 86
1, 90384, Control_c, 0, 64, 87
1, 90414, Control_c, 0, 64, 87
1, 90428, Control_c, 0, 64, 88
1, 90443, Control_c, 0, 64, 88
1, 90458, Control_c, 0, 67, 120
1, 90473, Control_c, 0, 67, 109
1, 90488, Control_c, 0, 67, 97
1, 90502, Control_c, 0, 67, 80
1, 90517, Control_c, 0, 67, 58
1, 90532, Control_c, 0, 64, 88
1, 90532, Control_c, 0, 67, 38
1, 90546, Control_c, 0, 67, 19
1, 90561, Control_c, 0, 67, 0
1, 90576, Control_c, 0, 64, 91
1, 90591, Control_c, 0, 64, 104
1, 90606, Control_c, 0, 64, 127
1, 90637, Note_on_c, 0, 73, 87
1, 90639, Note_on_c, 0, 65, 84
1, 90687, Note_off_c, 0, 65, 65
1, 90688, Note_off_c, 0, 73, 64
1, 90721, Note_off_c, 0, 42, 59
1, 90749, Note_on_c, 0, 73, 95
1, 90753, Note_on_c, 0, 65, 90
1, 90828, Control_c, 0, 64, 83
1, 90843, Control_c, 0, 64, 60
1, 90865, Control_c, 0, 64, 0
1, 91043, Control_c, 0, 64, 48
1, 91057, Control_c, 0, 64, 58
1, 91072, Control_c, 0, 64, 64
1, 91087, Control_c, 0, 64, 71
1, 91101, Note_on_c, 0, 37, 47
1, 91102, Control_c, 0, 64, 100
1, 91117, Control_c, 0, 64, 127
1, 91176, Note_off_c, 0, 73, 62
1, 91192, Note_off_c, 0, 65, 64
1, 91316, Note_on_c, 0, 44, 51
1, 91356, Note_off_c, 0, 37, 60
1, 91490, Note_on_c, 0, 61, 73
1, 91490, Note_on_c, 0, 49, 52
1, 91500, Note_on_c, 0, 53, 62
1, 91531, Note_off_c, 0, 44, 62
1, 91638, Note_on_c, 0, 56, 69
1, 91671, Note_off_c, 0, 53, 60
1, 91672, Note_off_c, 0, 56, 64
1, 91678, Note_off_c, 0, 49, 60
1, 91681, Note_off_c, 0, 61, 62
1, 91752, Note_on_c, 0, 56, 74
1, 91756, Note_on_c, 0, 61, 81
1, 91771, Note_on_c, 0, 53, 74
1, 91853, Note_on_c, 0, 49, 74
1, 91883, Note_off_c, 0, 56, 60
1, 91955, Note_on_c, 0, 44, 80
1, 91981, Note_off_c, 0, 49, 63
1, 91983, Note_off_c, 0, 53, 59
1, 92031, Note_off_c, 0, 61, 56
1, 92042, Poly_aftertouch_c, 0, 42, 127
1, 92059, Note_on_c, 0, 49, 64
1, 92080, Poly_aftertouch_c, 0, 42, 0
1, 92175, Note_on_c, 0, 56, 64
1, 92175, Note_on_c, 0, 61, 73
1, 92195, Note_on_c, 0, 53, 66
1, 92247, Note_off_c, 0, 49, 53
1, 92247, Note_off_c, 0, 53, 62
1, 92289, Note_off_c, 0, 56, 59
1, 92477, Note_on_c, 0, 51, 65
1, 92516, Note_on_c, 0, 54, 72
1, 92547, Note_off_c, 0, 44, 62
1, 92551, Note_off_c, 0, 61, 61
1, 92572, Note_on_c, 0, 60, 73
1, 92643, Control_c, 0, 64, 79
1, 92658, Control_c, 0, 64, 63
1, 92673, Control_c, 0, 64, 44
1, 92688, Control_c, 0, 64, 22
1, 92703, Control_c, 0, 64, 0
1, 92719, Control_c, 0, 64, 18
1, 92734, Control_c, 0, 64, 40
1, 92749, Control_c, 0, 64, 53
1, 92763, Control_c, 0, 64, 58
1, 92778, Control_c, 0, 64, 61
1, 92793, Control_c, 0, 64, 65
1, 92807, Control_c, 0, 64, 69
1, 92820, Note_on_c, 0, 37, 50
1, 92822, Control_c, 0, 64, 71
1, 92831, Note_off_c, 0, 54, 56
1, 92837, Note_off_c, 0, 51, 50
1, 92837, Control_c, 0, 64, 71
1, 92852, Control_c, 0, 64, 73
1, 92867, Control_c, 0, 64, 77
1, 92882, Control_c, 0, 64, 83
1, 92897, Control_c, 0, 64, 88
1, 92912, Control_c, 0, 64, 95
1, 92927, Control_c, 0, 64, 102
1, 92931, Note_on_c, 0, 44, 55
1, 92941, Control_c, 0, 64, 119
1, 92953, Note_off_c, 0, 37, 57
1, 92956, Control_c, 0, 64, 127
1, 93018, Note_off_c, 0, 44, 63
1, 93029, Note_on_c, 0, 51, 59
1, 93046, Note_off_c, 0, 60, 60
1, 93141, Note_off_c, 0, 51, 39
1, 93163, Note_on_c, 0, 54, 54
1, 93172, Note_on_c, 0, 63, 61
1, 93220, Note_on_c, 0, 61, 59
1, 93282, Note_off_c, 0, 63, 61
1, 93287, Note_on_c, 0, 60, 64
1, 93289, Control_c, 0, 64, 80
1, 93299, Note_off_c, 0, 54, 58
1, 93304, Note_on_c, 0, 56, 55
1, 93304, Control_c, 0, 64, 63
1, 93317, Note_off_c, 0, 61, 58
1, 93319, Control_c, 0, 64, 53
1, 93334, Control_c, 0, 64, 55
1, 93348, Control_c, 0, 64, 58
1, 93363, Control_c, 0, 64, 61
1, 93378, Control_c, 0, 64, 64
1, 93393, Control_c, 0, 64, 67
1, 93406, Note_off_c, 0, 60, 65
1, 93408, Control_c, 0, 64, 73
1, 93422, Control_c, 0, 64, 79
1, 93437, Control_c, 0, 64, 80
1, 93457, Note_on_c, 0, 51, 59
1, 93460, Note_off_c, 0, 56, 61
1, 93467, Control_c, 0, 64, 80
1, 93482, Control_c, 0, 64, 81
1, 93496, Control_c, 0, 64, 84
1, 93512, Control_c, 0, 64, 87
1, 93527, Control_c, 0, 64, 91
1, 93542, Control_c, 0, 64, 96
1, 93556, Control_c, 0, 64, 100
1, 93571, Control_c, 0, 64, 98
1, 93586, Control_c, 0, 64, 94
1, 93589, Note_on_c, 0, 68, 71
1, 93601, Control_c, 0, 64, 93
1, 93606, Note_on_c, 0, 56, 48
1, 93616, Control_c, 0, 64, 94
1, 93621, Note_on_c, 0, 65, 26
1, 93630, Control_c, 0, 64, 95
1, 93643, Note_off_c, 0, 51, 57
1, 93645, Control_c, 0, 64, 96
1, 93660, Control_c, 0, 64, 98
1, 93675, Control_c, 0, 64, 104
1, 93683, Note_off_c, 0, 56, 62
1, 93690, Control_c, 0, 64, 127
1, 93694, Note_on_c, 0, 63, 49
1, 93734, Note_off_c, 0, 65, 52
1, 93779, Note_off_c, 0, 63, 59
1, 93814, Note_on_c, 0, 70, 78
1, 93822, Note_on_c, 0, 56, 59
1, 93824, Control_c, 0, 64, 95
1, 93829, Note_on_c, 0, 66, 55
1, 93838, Control_c, 0, 64, 74
1, 93842, Note_off_c, 0, 68, 60
1, 93860, Control_c, 0, 64, 67
1, 93875, Control_c, 0, 64, 67
1, 93890, Control_c, 0, 64, 68
1, 93905, Control_c, 0, 64, 70
1, 93916, Note_off_c, 0, 66, 54
1, 93919, Control_c, 0, 64, 73
1, 93934, Control_c, 0, 64, 82
1, 93949, Control_c, 0, 64, 98
1, 93964, Control_c, 0, 64, 127
1, 94019, Note_off_c, 0, 56, 62
1, 94092, Note_on_c, 0, 71, 69
1, 94104, Note_on_c, 0, 68, 60
1, 94107, Note_on_c, 0, 61, 42
1, 94157, Control_c, 0, 64, 107
1, 94171, Control_c, 0, 64, 91
1, 94185, Note_off_c, 0, 70, 52
1, 94186, Control_c, 0, 64, 82
1, 94201, Control_c, 0, 64, 75
1, 94216, Control_c, 0, 64, 67
1, 94231, Control_c, 0, 64, 61
1, 94245, Control_c, 0, 64, 52
1, 94260, Control_c, 0, 64, 30
1, 94275, Control_c, 0, 64, 0
1, 94345, Note_on_c, 0, 37, 35
1, 94394, Control_c, 0, 64, 34
1, 94409, Control_c, 0, 64, 49
1, 94410, Note_on_c, 0, 70, 59
1, 94416, Note_on_c, 0, 66, 47
1, 94424, Control_c, 0, 64, 57
1, 94439, Control_c, 0, 64, 62
1, 94441, Note_off_c, 0, 68, 58
1, 94453, Control_c, 0, 64, 64
1, 94468, Control_c, 0, 64, 66
1, 94483, Control_c, 0, 64, 71
1, 94498, Control_c, 0, 64, 79
1, 94509, Note_off_c, 0, 37, 53
1, 94513, Control_c, 0, 64, 93
1, 94517, Note_on_c, 0, 44, 56
1, 94527, Control_c, 0, 64, 127
1, 94533, Note_off_c, 0, 66, 61
1, 94567, Note_off_c, 0, 71, 32
1, 94626, Note_off_c, 0, 61, 60
1, 94638, Note_on_c, 0, 49, 63
1, 94640, Note_off_c, 0, 44, 62
1, 94644, Note_on_c, 0, 65, 48
1, 94644, Note_on_c, 0, 68, 63
1, 94675, Note_off_c, 0, 65, 65
1, 94678, Note_off_c, 0, 70, 64
1, 94681, Note_off_c, 0, 68, 62
1, 94714, Note_off_c, 0, 49, 63
1, 94742, Note_on_c, 0, 56, 63
1, 94781, Note_off_c, 0, 56, 65
1, 94875, Note_on_c, 0, 75, 65
1, 94878, Note_on_c, 0, 59, 62
1, 94898, Note_on_c, 0, 65, 52
1, 94899, Note_on_c, 0, 68, 52
1, 94905, Control_c, 0, 64, 104
1, 94920, Control_c, 0, 64, 95
1, 94935, Control_c, 0, 64, 91
1, 94950, Control_c, 0, 64, 86
1, 94965, Control_c, 0, 64, 81
1, 94979, Control_c, 0, 64, 77
1, 94994, Control_c, 0, 64, 74
1, 95001, Note_on_c, 0, 60, 66
1, 95009, Control_c, 0, 64, 70
1, 95014, Note_off_c, 0, 59, 64
1, 95024, Control_c, 0, 64, 67
1, 95039, Control_c, 0, 64, 65
1, 95053, Control_c, 0, 64, 64
1, 95068, Control_c, 0, 64, 63
1, 95083, Control_c, 0, 64, 61
1, 95098, Control_c, 0, 64, 57
1, 95106, Note_on_c, 0, 61, 68
1, 95114, Control_c, 0, 64, 53
1, 95124, Note_on_c, 0, 70, 65
1, 95129, Control_c, 0, 64, 46
1, 95143, Control_c, 0, 64, 37
1, 95144, Note_on_c, 0, 73, 68
1, 95153, Note_off_c, 0, 60, 60
1, 95158, Control_c, 0, 64, 29
1, 95173, Control_c, 0, 64, 22
1, 95188, Control_c, 0, 64, 9
1, 95203, Control_c, 0, 64, 0
1, 95217, Note_off_c, 0, 68, 19
1, 95218, Note_on_c, 0, 63, 74
1, 95220, Note_off_c, 0, 70, 58
1, 95261, Note_off_c, 0, 61, 63
1, 95290, Note_off_c, 0, 65, 52
1, 95336, Control_c, 0, 64, 21
1, 95338, Note_on_c, 0, 71, 73
1, 95344, Note_on_c, 0, 61, 72
1, 95358, Control_c, 0, 64, 38
1, 95363, Note_off_c, 0, 75, 55
1, 95368, Note_on_c, 0, 68, 47
1, 95373, Control_c, 0, 64, 54
1, 95380, Note_off_c, 0, 63, 63
1, 95388, Control_c, 0, 64, 62
1, 95391, Note_off_c, 0, 71, 60
1, 95391, Note_off_c, 0, 73, 63
1, 95394, Note_off_c, 0, 68, 56
1, 95403, Control_c, 0, 64, 64
1, 95417, Control_c, 0, 64, 67
1, 95432, Control_c, 0, 64, 71
1, 95447, Control_c, 0, 64, 78
1, 95462, Control_c, 0, 64, 89
1, 95477, Control_c, 0, 64, 106
1, 95486, Note_off_c, 0, 61, 64
1, 95491, Control_c, 0, 64, 127
1, 95562, Note_on_c, 0, 59, 62
1, 95600, Note_on_c, 0, 61, 63
1, 95654, Note_on_c, 0, 65, 59
1, 95669, Control_c, 0, 64, 107
1, 95683, Control_c, 0, 64, 89
1, 95698, Control_c, 0, 64, 77
1, 95713, Control_c, 0, 64, 70
1, 95717, Note_on_c, 0, 69, 59
1, 95727, Control_c, 0, 64, 66
1, 95742, Control_c, 0, 64, 64
1, 95757, Control_c, 0, 64, 62
1, 95772, Control_c, 0, 64, 58
1, 95787, Control_c, 0, 64, 50
1, 95801, Control_c, 0, 64, 39
1, 95816, Control_c, 0, 64, 23
1, 95831, Control_c, 0, 64, 11
1, 95875, Control_c, 0, 64, 12
1, 95890, Control_c, 0, 64, 27
1, 95906, Note_on_c, 0, 42, 47
1, 95906, Control_c, 0, 64, 43
1, 95921, Control_c, 0, 64, 55
1, 95936, Control_c, 0, 64, 59
1, 95951, Control_c, 0, 64, 62
1, 95965, Control_c, 0, 64, 65
1, 95980, Control_c, 0, 64, 69
1, 95995, Control_c, 0, 64, 76
1, 96000, Poly_aftertouch_c, 0, 67, 127
1, 96010, Control_c, 0, 64, 83
1, 96014, Note_off_c, 0, 65, 58
1, 96025, Control_c, 0, 64, 91
1, 96039, Control_c, 0, 64, 102
1, 96041, Note_on_c, 0, 49, 48
1, 96046, Note_off_c, 0, 59, 51
1, 96050, Note_off_c, 0, 69, 62
1, 96054, Control_c, 0, 64, 125
1, 96069, Control_c, 0, 64, 127
1, 96081, Note_off_c, 0, 42, 55
1, 96099, Note_off_c, 0, 61, 62
1, 96132, Note_off_c, 0, 49, 60
1, 96149, Note_on_c, 0, 53, 53
1, 96161, Poly_aftertouch_c, 0, 67, 0
1, 96268, Note_on_c, 0, 49, 40
1, 96270, Note_off_c, 0, 53, 56
1, 96358, Control_c, 0, 64, 86
1, 96372, Control_c, 0, 64, 69
1, 96377, Note_on_c, 0, 58, 41
1, 96387, Control_c, 0, 64, 61
1, 96402, Control_c, 0, 64, 58
1, 96409, Note_on_c, 0, 61, 47
1, 96418, Control_c, 0, 64, 58
1, 96432, Control_c, 0, 64, 61
1, 96446, Note_on_c, 0, 54, 41
1, 96447, Control_c, 0, 64, 65
1, 96461, Note_off_c, 0, 49, 48
1, 96462, Control_c, 0, 64, 68
1, 96468, Note_on_c, 0, 66, 44
1, 96477, Control_c, 0, 64, 74
1, 96489, Note_on_c, 0, 70, 62
1, 96492, Control_c, 0, 64, 84
1, 96501, Note_off_c, 0, 58, 57
1, 96507, Control_c, 0, 64, 96
1, 96521, Control_c, 0, 64, 115
1, 96527, Note_off_c, 0, 61, 62
1, 96536, Control_c, 0, 64, 127
1, 96541, Note_off_c, 0, 66, 63
1, 96561, Note_off_c, 0, 70, 63
1, 96616, Note_on_c, 0, 56, 52
1, 96680, Note_off_c, 0, 54, 43
1, 96685, Control_c, 0, 64, 99
1, 96697, Note_on_c, 0, 66, 73
1, 96700, Control_c, 0, 64, 77
1, 96707, Note_on_c, 0, 61, 59
1, 96715, Control_c, 0, 64, 68
1, 96726, Note_off_c, 0, 56, 62
1, 96730, Control_c, 0, 64, 69
1, 96736, Note_on_c, 0, 57, 51
1, 96745, Control_c, 0, 64, 71
1, 96757, Note_off_c, 0, 61, 57
1, 96760, Control_c, 0, 64, 75
1, 96774, Control_c, 0, 64, 85
1, 96779, Note_off_c, 0, 66, 62
1, 96789, Control_c, 0, 64, 127
1, 96847, Note_on_c, 0, 58, 58
1, 96861, Note_off_c, 0, 57, 60
1, 96945, Control_c, 0, 64, 87
1, 96960, Control_c, 0, 64, 73
1, 96961, Note_on_c, 0, 73, 77
1, 96968, Note_on_c, 0, 66, 53
1, 96975, Note_on_c, 0, 51, 52
1, 96975, Control_c, 0, 64, 68
1, 96977, Note_off_c, 0, 58, 61
1, 96984, Note_on_c, 0, 61, 46
1, 96989, Control_c, 0, 64, 70
1, 97004, Control_c, 0, 64, 76
1, 97019, Control_c, 0, 64, 91
1, 97034, Control_c, 0, 64, 127
1, 97035, Note_off_c, 0, 61, 52
1, 97043, Note_off_c, 0, 66, 59
1, 97065, Note_off_c, 0, 51, 62
1, 97094, Note_on_c, 0, 58, 64
1, 97100, Note_off_c, 0, 73, 55
1, 97195, Note_off_c, 0, 58, 39
1, 97242, Control_c, 0, 64, 87
1, 97256, Control_c, 0, 64, 63
1, 97265, Note_on_c, 0, 44, 49
1, 97271, Control_c, 0, 64, 0
1, 97327, Note_on_c, 0, 63, 46
1, 97359, Note_on_c, 0, 66, 52
1, 97360, Control_c, 0, 64, 47
1, 97374, Control_c, 0, 64, 59
1, 97389, Control_c, 0, 64, 61
1, 97404, Control_c, 0, 64, 64
1, 97419, Control_c, 0, 64, 68
1, 97434, Control_c, 0, 64, 76
1, 97440, Note_on_c, 0, 73, 68
1, 97449, Control_c, 0, 64, 100
1, 97450, Note_off_c, 0, 44, 63
1, 97457, Note_on_c, 0, 46, 27
1, 97463, Control_c, 0, 64, 127
1, 97480, Note_off_c, 0, 66, 59
1, 97497, Note_off_c, 0, 46, 44
1, 97498, Note_off_c, 0, 63, 34
1, 97730, Note_on_c, 0, 72, 47
1, 97806, Note_off_c, 0, 73, 37
1, 97843, Note_on_c, 0, 56, 51
1, 97851, Note_on_c, 0, 66, 71
1, 97856, Note_off_c, 0, 72, 52
1, 97858, Note_on_c, 0, 63, 51
1, 97866, Note_on_c, 0, 70, 56
1, 97945, Note_off_c, 0, 70, 60
1, 97963, Note_on_c, 0, 72, 48
1, 98005, Note_off_c, 0, 72, 65
1, 98018, Note_off_c, 0, 63, 35
1, 98021, Note_on_c, 0, 73, 59
1, 98027, Note_off_c, 0, 56, 37
1, 98036, Note_off_c, 0, 66, 58
1, 98085, Note_off_c, 0, 73, 63
1, 98122, Note_on_c, 0, 66, 83
1, 98140, Note_on_c, 0, 56, 63
1, 98140, Note_on_c, 0, 63, 65
1, 98145, Note_on_c, 0, 72, 50
1, 98153, Control_c, 0, 64, 83
1, 98168, Control_c, 0, 64, 66
1, 98183, Control_c, 0, 64, 54
1, 98198, Control_c, 0, 64, 47
1, 98203, Note_off_c, 0, 72, 62
1, 98212, Control_c, 0, 64, 49
1, 98222, Note_on_c, 0, 73, 58
1, 98227, Control_c, 0, 64, 56
1, 98242, Control_c, 0, 64, 63
1, 98257, Control_c, 0, 64, 67
1, 98262, Note_off_c, 0, 73, 65
1, 98271, Control_c, 0, 64, 72
1, 98286, Control_c, 0, 64, 79
1, 98302, Control_c, 0, 64, 85
1, 98303, Note_on_c, 0, 72, 57
1, 98317, Control_c, 0, 64, 95
1, 98325, Note_off_c, 0, 72, 60
1, 98332, Control_c, 0, 64, 127
1, 98383, Note_on_c, 0, 73, 25
1, 98408, Note_on_c, 0, 72, 67
1, 98411, Note_off_c, 0, 63, 60
1, 98422, Note_off_c, 0, 73, 42
1, 98437, Note_off_c, 0, 72, 64
1, 98483, Note_on_c, 0, 73, 37
1, 98490, Note_off_c, 0, 66, 60
1, 98512, Note_off_c, 0, 56, 34
1, 98512, Note_off_c, 0, 73, 48
1, 98536, Note_on_c, 0, 72, 59
1, 98563, Note_off_c, 0, 72, 68
1, 98594, Note_on_c, 0, 65, 80
1, 98596, Note_on_c, 0, 73, 53
1, 98598, Note_on_c, 0, 68, 91
1, 98632, Note_off_c, 0, 73, 66
1, 98647, Note_on_c, 0, 72, 63
1, 98667, Note_off_c, 0, 65, 60
1, 98678, Poly_aftertouch_c, 0, 56, 127
1, 98684, Note_off_c, 0, 72, 62
1, 98685, Note_off_c, 0, 68, 59
1, 98715, Note_on_c, 0, 73, 64
1, 98724, Poly_aftertouch_c, 0, 56, 0
1, 98742, Note_on_c, 0, 56, 31
1, 98748, Note_off_c, 0, 73, 63
1, 98806, Note_on_c, 0, 72, 38
1, 98829, Note_on_c, 0, 63, 58
1, 98833, Note_off_c, 0, 72, 57
1, 98850, Note_on_c, 0, 73, 55
1, 98852, Note_on_c, 0, 66, 65
1, 98888, Note_off_c, 0, 73, 62
1, 98930, Note_on_c, 0, 72, 48
1, 98937, Note_on_c, 0, 70, 87
1, 98976, Control_c, 0, 64, 80
1, 98989, Note_off_c, 0, 72, 59
1, 98991, Control_c, 0, 64, 61
1, 99006, Control_c, 0, 64, 33
1, 99009, Note_on_c, 0, 73, 52
1, 99021, Control_c, 0, 64, 11
1, 99037, Note_off_c, 0, 73, 63
1, 99050, Control_c, 0, 64, 34
1, 99065, Control_c, 0, 64, 53
1, 99080, Control_c, 0, 64, 60
1, 99089, Note_on_c, 0, 72, 40
1, 99103, Control_c, 0, 64, 62
1, 99118, Control_c, 0, 64, 63
1, 99123, Note_off_c, 0, 72, 57
1, 99133, Control_c, 0, 64, 64
1, 99138, Note_on_c, 0, 73, 52
1, 99148, Control_c, 0, 64, 67
1, 99160, Note_off_c, 0, 73, 61
1, 99163, Control_c, 0, 64, 73
1, 99177, Control_c, 0, 64, 82
1, 99192, Note_on_c, 0, 72, 64
1, 99192, Control_c, 0, 64, 87
1, 99207, Control_c, 0, 64, 87
1, 99213, Note_off_c, 0, 72, 65
1, 99222, Control_c, 0, 64, 88
1, 99237, Control_c, 0, 64, 89
1, 99241, Note_on_c, 0, 73, 55
1, 99266, Control_c, 0, 64, 87
1, 99267, Note_off_c, 0, 73, 59
1, 99281, Control_c, 0, 64, 84
1, 99296, Note_on_c, 0, 72, 59
1, 99296, Control_c, 0, 64, 81
1, 99311, Control_c, 0, 64, 80
1, 99318, Note_off_c, 0, 72, 64
1, 99340, Control_c, 0, 64, 79
1, 99347, Note_on_c, 0, 73, 59
1, 99368, Note_off_c, 0, 73, 61
1, 99398, Note_on_c, 0, 72, 61
1, 99421, Note_off_c, 0, 72, 65
1, 99440, Note_on_c, 0, 73, 69
1, 99458, Control_c, 0, 64, 80
1, 99465, Note_off_c, 0, 73, 68
1, 99493, Note_off_c, 0, 70, 53
1, 99506, Note_on_c, 0, 72, 60
1, 99529, Note_off_c, 0, 72, 64
1, 99554, Note_on_c, 0, 73, 67
1, 99562, Control_c, 0, 64, 79
1, 99580, Note_off_c, 0, 73, 64
1, 99607, Control_c, 0, 64, 80
1, 99616, Note_on_c, 0, 72, 53
1, 99622, Control_c, 0, 64, 79
1, 99635, Note_off_c, 0, 72, 64
1, 99657, Note_on_c, 0, 73, 55
1, 99666, Control_c, 0, 64, 80
1, 99681, Control_c, 0, 64, 82
1, 99695, Note_off_c, 0, 73, 59
1, 99696, Control_c, 0, 64, 85
1, 99711, Control_c, 0, 64, 91
1, 99720, Note_on_c, 0, 72, 50
1, 99725, Control_c, 0, 64, 96
1, 99740, Control_c, 0, 64, 93
1, 99751, Note_off_c, 0, 72, 55
1, 99755, Control_c, 0, 64, 85
1, 99757, Note_on_c, 0, 68, 51
1, 99770, Control_c, 0, 64, 74
1, 99784, Control_c, 0, 64, 66
1, 99785, Note_on_c, 0, 73, 57
1, 99799, Control_c, 0, 64, 65
1, 99807, Note_off_c, 0, 73, 61
1, 99814, Control_c, 0, 64, 68
1, 99829, Control_c, 0, 64, 71
1, 99842, Note_on_c, 0, 72, 55
1, 99844, Control_c, 0, 64, 73
1, 99866, Control_c, 0, 64, 74
1, 99885, Note_off_c, 0, 72, 66
1, 99893, Note_on_c, 0, 73, 62
1, 99896, Control_c, 0, 64, 74
1, 99925, Note_off_c, 0, 73, 66
1, 99926, Control_c, 0, 64, 75
1, 99941, Control_c, 0, 64, 76
1, 99955, Control_c, 0, 64, 79
1, 99966, Note_on_c, 0, 72, 60
1, 99970, Control_c, 0, 64, 81
1, 99985, Control_c, 0, 64, 83
1, 99989, Note_off_c, 0, 72, 61
1, 100012, Note_on_c, 0, 73, 56
1, 100015, Control_c, 0, 64, 82
1, 100030, Control_c, 0, 64, 82
1, 100035, Note_off_c, 0, 73, 60
1, 100045, Control_c, 0, 64, 82
1, 100060, Control_c, 0, 64, 83
1, 100066, Note_on_c, 0, 72, 65
1, 100100, Note_off_c, 0, 72, 61
1, 100115, Note_on_c, 0, 73, 60
1, 100119, Control_c, 0, 64, 84
1, 100119, Control_c, 0, 67, 15
1, 100134, Control_c, 0, 64, 84
1, 100134, Control_c, 0, 67, 22
1, 100148, Control_c, 0, 67, 27
1, 100150, Note_off_c, 0, 73, 63
1, 100162, Control_c, 0, 64, 84
1, 100162, Control_c, 0, 67, 30
1, 100177, Control_c, 0, 64, 84
1, 100177, Control_c, 0, 67, 33
1, 100179, Note_on_c, 0, 72, 56
1, 100192, Control_c, 0, 64, 85
1, 100192, Control_c, 0, 67, 39
1, 100206, Control_c, 0, 64, 86
1, 100206, Control_c, 0, 67, 42
1, 100221, Control_c, 0, 67, 44
1, 100236, Control_c, 0, 67, 47
1, 100251, Control_c, 0, 67, 51
1, 100262, Note_off_c, 0, 72, 0
1, 100266, Control_c, 0, 64, 87
1, 100266, Control_c, 0, 67, 61
1, 100280, Control_c, 0, 64, 88
1, 100280, Control_c, 0, 67, 71
1, 100282, Note_on_c, 0, 72, 27
1, 100295, Control_c, 0, 64, 88
1, 100295, Control_c, 0, 67, 76
1, 100310, Control_c, 0, 67, 81
1, 100313, Note_on_c, 0, 73, 51
1, 100316, Note_off_c, 0, 72, 52
1, 100325, Control_c, 0, 67, 88
1, 100340, Control_c, 0, 67, 97
1, 100352, Note_off_c, 0, 73, 64
1, 100355, Control_c, 0, 67, 105
1, 100370, Control_c, 0, 67, 115
1, 100385, Control_c, 0, 67, 122
1, 100399, Control_c, 0, 64, 89
1, 100399, Control_c, 0, 67, 127
1, 100406, Note_on_c, 0, 72, 56
1, 100414, Control_c, 0, 64, 94
1, 100429, Control_c, 0, 64, 104
1, 100444, Control_c, 0, 64, 127
1, 100459, Control_c, 0, 64, 116
1, 100473, Control_c, 0, 64, 92
1, 100481, Note_off_c, 0, 72, 61
1, 100488, Control_c, 0, 64, 73
1, 100503, Control_c, 0, 64, 62
1, 100512, Note_on_c, 0, 71, 48
1, 100518, Control_c, 0, 64, 55
1, 100533, Control_c, 0, 64, 55
1, 100547, Control_c, 0, 64, 57
1, 100555, Note_off_c, 0, 71, 65
1, 100562, Control_c, 0, 64, 61
1, 100577, Control_c, 0, 64, 63
1, 100592, Control_c, 0, 64, 65
1, 100606, Note_on_c, 0, 72, 58
1, 100614, Control_c, 0, 64, 66
1, 100629, Control_c, 0, 64, 67
1, 100644, Control_c, 0, 64, 67
1, 100644, Note_off_c, 0, 72, 62
1, 100659, Control_c, 0, 64, 68
1, 100674, Control_c, 0, 64, 70
1, 100688, Note_on_c, 0, 75, 58
1, 100688, Control_c, 0, 64, 72
1, 100704, Control_c, 0, 64, 74
1, 100719, Control_c, 0, 64, 74
1, 100743, Note_off_c, 0, 75, 58
1, 100763, Note_on_c, 0, 72, 66
1, 100763, Control_c, 0, 64, 75
1, 100778, Control_c, 0, 64, 77
1, 100793, Control_c, 0, 64, 78
1, 100808, Control_c, 0, 64, 78
1, 100811, Note_off_c, 0, 72, 58
1, 100823, Control_c, 0, 64, 79
1, 100834, Note_on_c, 0, 78, 57
1, 100837, Control_c, 0, 64, 80
1, 100852, Control_c, 0, 64, 80
1, 100888, Note_off_c, 0, 78, 61
1, 100911, Control_c, 0, 64, 81
1, 100932, Note_on_c, 0, 72, 53
1, 100941, Control_c, 0, 64, 81
1, 100971, Control_c, 0, 64, 82
1, 100981, Poly_aftertouch_c, 0, 81, 127
1, 100987, Note_off_c, 0, 72, 60
1, 101000, Poly_aftertouch_c, 0, 81, 0
1, 101029, Control_c, 0, 64, 82
1, 101032, Note_off_c, 0, 56, 43
1, 101044, Control_c, 0, 64, 83
1, 101059, Control_c, 0, 64, 83
1, 101065, Note_off_c, 0, 63, 58
1, 101074, Control_c, 0, 64, 84
1, 101084, Note_off_c, 0, 66, 60
1, 101089, Control_c, 0, 64, 84
1, 101095, Poly_aftertouch_c, 0, 83, 0
1, 101103, Control_c, 0, 64, 85
1, 101118, Control_c, 0, 64, 86
1, 101120, Note_off_c, 0, 68, 61
1, 101125, Note_on_c, 0, 72, 36
1, 101133, Control_c, 0, 64, 87
1, 101148, Control_c, 0, 64, 87
1, 101151, Note_off_c, 0, 72, 57
1, 101273, Note_on_c, 0, 84, 68
1, 101282, Poly_aftertouch_c, 0, 72, 127
1, 101322, Note_off_c, 0, 84, 62
1, 101357, Poly_aftertouch_c, 0, 72, 0
1, 101370, Note_on_c, 0, 72, 47
1, 101413, Note_off_c, 0, 72, 64
1, 101455, Note_on_c, 0, 87, 61
1, 101478, Note_off_c, 0, 87, 62
1, 101549, Note_on_c, 0, 72, 52
1, 101592, Note_off_c, 0, 72, 49
1, 101613, Note_on_c, 0, 90, 61
1, 101649, Note_off_c, 0, 90, 62
1, 101660, Control_c, 0, 64, 88
1, 101731, Note_on_c, 0, 72, 46
1, 101770, Note_off_c, 0, 72, 65
1, 101794, Control_c, 0, 64, 88
1, 101802, Note_on_c, 0, 93, 62
1, 101808, Control_c, 0, 64, 89
1, 101823, Control_c, 0, 64, 90
1, 101838, Control_c, 0, 64, 91
1, 101850, Note_off_c, 0, 93, 64
1, 101912, Control_c, 0, 64, 91
1, 101926, Control_c, 0, 64, 92
1, 101941, Control_c, 0, 64, 93
1, 101949, Note_on_c, 0, 72, 36
1, 101956, Control_c, 0, 64, 93
1, 102105, Note_on_c, 0, 94, 58
1, 102126, Control_c, 0, 64, 94
1, 102141, Control_c, 0, 64, 95
1, 102143, Note_off_c, 0, 94, 64
1, 102156, Control_c, 0, 64, 96
1, 102163, Note_off_c, 0, 72, 41
1, 102170, Control_c, 0, 64, 97
1, 102320, Control_c, 0, 64, 98
1, 102335, Control_c, 0, 64, 99
1, 102349, Control_c, 0, 64, 104
1, 102364, Control_c, 0, 64, 125
1, 102379, Control_c, 0, 64, 127
1, 102409, Control_c, 0, 67, 118
1, 102423, Control_c, 0, 67, 97
1, 102438, Control_c, 0, 67, 74
1, 102453, Control_c, 0, 67, 56
1, 102468, Control_c, 0, 67, 37
1, 102482, Control_c, 0, 67, 14
1, 102497, Control_c, 0, 67, 0
1, 102626, Note_on_c, 0, 56, 48
1, 102627, Note_on_c, 0, 72, 74
1, 102641, Note_on_c, 0, 66, 56
1, 102649, Note_on_c, 0, 63, 47
1, 102676, Note_off_c, 0, 66, 63
1, 102711, Note_off_c, 0, 63, 55
1, 102778, Note_on_c, 0, 49, 46
1, 102784, Note_off_c, 0, 56, 35
1, 102843, Note_on_c, 0, 59, 50
1, 102898, Note_on_c, 0, 65, 59
1, 102934, Control_c, 0, 64, 95
1, 102948, Control_c, 0, 64, 71
1, 102956, Note_on_c, 0, 68, 64
1, 102963, Control_c, 0, 64, 56
1, 102978, Control_c, 0, 64, 36
1, 102993, Control_c, 0, 64, 0
1, 103017, Note_on_c, 0, 75, 81
1, 103038, Control_c, 0, 64, 20
1, 103053, Control_c, 0, 64, 41
1, 103067, Control_c, 0, 64, 51
1, 103082, Control_c, 0, 64, 58
1, 103094, Note_off_c, 0, 72, 63
1, 103097, Control_c, 0, 64, 62
1, 103109, Note_off_c, 0, 65, 45
1, 103110, Note_off_c, 0, 49, 64
1, 103112, Control_c, 0, 64, 66
1, 103113, Note_off_c, 0, 68, 61
1, 103127, Control_c, 0, 64, 71
1, 103142, Control_c, 0, 64, 82
1, 103148, Note_off_c, 0, 59, 64
1, 103157, Control_c, 0, 64, 108
1, 103172, Control_c, 0, 64, 127
1, 103357, Note_on_c, 0, 73, 60
1, 103434, Note_off_c, 0, 75, 45
1, 103447, Note_off_c, 0, 73, 61
1, 103455, Note_on_c, 0, 59, 57
1, 103461, Note_on_c, 0, 68, 73
1, 103467, Note_on_c, 0, 65, 52
1, 103476, Note_on_c, 0, 72, 55
1, 103558, Note_off_c, 0, 72, 62
1, 103568, Note_on_c, 0, 73, 63
1, 103640, Note_on_c, 0, 75, 61
1, 103641, Note_off_c, 0, 73, 63
1, 103649, Note_off_c, 0, 68, 62
1, 103669, Note_off_c, 0, 59, 37
1, 103673, Note_off_c, 0, 65, 35
1, 103687, Note_off_c, 0, 75, 57
1, 103726, Note_on_c, 0, 68, 94
1, 103729, Note_on_c, 0, 73, 57
1, 103736, Note_on_c, 0, 65, 59
1, 103743, Note_on_c, 0, 59, 54
1, 103757, Control_c, 0, 64, 79
1, 103765, Note_off_c, 0, 73, 66
1, 103771, Control_c, 0, 64, 64
1, 103786, Control_c, 0, 64, 52
1, 103788, Note_on_c, 0, 75, 51
1, 103801, Control_c, 0, 64, 41
1, 103816, Control_c, 0, 64, 39
1, 103821, Note_off_c, 0, 75, 62
1, 103831, Control_c, 0, 64, 45
1, 103846, Note_on_c, 0, 73, 57
1, 103846, Control_c, 0, 64, 54
1, 103860, Control_c, 0, 64, 60
1, 103864, Note_off_c, 0, 73, 63
1, 103875, Control_c, 0, 64, 64
1, 103891, Control_c, 0, 64, 68
1, 103905, Note_on_c, 0, 75, 52
1, 103907, Control_c, 0, 64, 74
1, 103921, Control_c, 0, 64, 87
1, 103925, Note_off_c, 0, 75, 57
1, 103936, Control_c, 0, 64, 127
1, 103939, Note_on_c, 0, 73, 63
1, 103967, Note_off_c, 0, 73, 66
1, 103988, Note_on_c, 0, 75, 77
1, 104011, Note_off_c, 0, 75, 68
1, 104023, Note_off_c, 0, 65, 50
1, 104038, Note_off_c, 0, 59, 54
1, 104041, Note_on_c, 0, 73, 67
1, 104057, Note_off_c, 0, 68, 61
1, 104069, Note_off_c, 0, 73, 64
1, 104090, Note_on_c, 0, 75, 80
1, 104117, Note_off_c, 0, 75, 68
1, 104146, Note_on_c, 0, 65, 80
1, 104149, Note_on_c, 0, 73, 65
1, 104151, Note_on_c, 0, 69, 80
1, 104171, Note_off_c, 0, 73, 61
1, 104188, Note_on_c, 0, 75, 83
1, 104197, Note_off_c, 0, 65, 62
1, 104214, Note_off_c, 0, 75, 65
1, 104217, Note_off_c, 0, 69, 54
1, 104242, Note_on_c, 0, 73, 75
1, 104264, Note_on_c, 0, 59, 41
1, 104287, Note_off_c, 0, 73, 61
1, 104296, Note_on_c, 0, 75, 80
1, 104322, Note_off_c, 0, 75, 63
1, 104362, Note_on_c, 0, 65, 61
1, 104363, Note_on_c, 0, 73, 63
1, 104395, Note_off_c, 0, 73, 64
1, 104417, Note_on_c, 0, 75, 74
1, 104444, Note_off_c, 0, 75, 67
1, 104473, Note_on_c, 0, 73, 67
1, 104487, Note_on_c, 0, 70, 89
1, 104506, Note_off_c, 0, 73, 65
1, 104507, Control_c, 0, 64, 100
1, 104521, Control_c, 0, 64, 70
1, 104524, Note_on_c, 0, 75, 76
1, 104536, Control_c, 0, 64, 51
1, 104551, Control_c, 0, 64, 0
1, 104552, Note_off_c, 0, 75, 66
1, 104595, Control_c, 0, 64, 9
1, 104604, Note_on_c, 0, 73, 38
1, 104610, Control_c, 0, 64, 45
1, 104625, Control_c, 0, 64, 54
1, 104636, Note_off_c, 0, 73, 44
1, 104640, Control_c, 0, 64, 58
1, 104641, Note_on_c, 0, 75, 67
1, 104654, Control_c, 0, 64, 60
1, 104661, Note_off_c, 0, 75, 63
1, 104669, Control_c, 0, 64, 62
1, 104684, Control_c, 0, 64, 62
1, 104700, Control_c, 0, 64, 63
1, 104715, Control_c, 0, 64, 63
1, 104730, Control_c, 0, 64, 64
1, 104739, Note_on_c, 0, 75, 70
1, 104744, Control_c, 0, 64, 66
1, 104759, Control_c, 0, 64, 67
1, 104767, Note_off_c, 0, 75, 65
1, 104789, Control_c, 0, 64, 67
1, 104791, Note_on_c, 0, 73, 20
1, 104804, Control_c, 0, 64, 69
1, 104818, Control_c, 0, 64, 73
1, 104828, Note_off_c, 0, 73, 55
1, 104833, Control_c, 0, 64, 75
1, 104847, Note_on_c, 0, 75, 67
1, 104848, Control_c, 0, 64, 75
1, 104862, Control_c, 0, 64, 74
1, 104863, Note_off_c, 0, 75, 62
1, 104877, Control_c, 0, 64, 75
1, 104892, Control_c, 0, 64, 76
1, 104905, Note_on_c, 0, 73, 60
1, 104922, Control_c, 0, 64, 76
1, 104925, Note_off_c, 0, 73, 62
1, 104937, Control_c, 0, 64, 75
1, 104940, Note_on_c, 0, 75, 68
1, 104966, Control_c, 0, 64, 75
1, 104968, Note_off_c, 0, 75, 67
1, 104981, Control_c, 0, 64, 74
1, 104994, Note_on_c, 0, 73, 68
1, 104996, Control_c, 0, 64, 73
1, 105011, Control_c, 0, 64, 73
1, 105026, Note_off_c, 0, 73, 62
1, 105041, Control_c, 0, 64, 73
1, 105057, Note_on_c, 0, 75, 63
1, 105070, Control_c, 0, 64, 73
1, 105073, Note_off_c, 0, 75, 65
1, 105107, Control_c, 0, 64, 73
1, 105117, Note_on_c, 0, 73, 64
1, 105122, Control_c, 0, 64, 74
1, 105135, Note_off_c, 0, 73, 63
1, 105157, Note_on_c, 0, 75, 69
1, 105188, Note_off_c, 0, 75, 63
1, 105208, Note_on_c, 0, 73, 64
1, 105211, Control_c, 0, 64, 73
1, 105241, Control_c, 0, 64, 73
1, 105241, Note_off_c, 0, 73, 63
1, 105273, Note_on_c, 0, 75, 64
1, 105294, Note_off_c, 0, 75, 58
1, 105315, Control_c, 0, 64, 73
1, 105326, Note_on_c, 0, 73, 59
1, 105330, Control_c, 0, 64, 74
1, 105344, Control_c, 0, 64, 76
1, 105352, Note_off_c, 0, 73, 57
1, 105359, Control_c, 0, 64, 78
1, 105374, Note_on_c, 0, 75, 68
1, 105374, Control_c, 0, 64, 80
1, 105389, Control_c, 0, 64, 79
1, 105403, Control_c, 0, 64, 75
1, 105405, Note_off_c, 0, 75, 64
1, 105418, Control_c, 0, 64, 67
1, 105425, Note_on_c, 0, 68, 45
1, 105431, Note_on_c, 0, 73, 60
1, 105433, Control_c, 0, 64, 61
1, 105448, Control_c, 0, 64, 58
1, 105462, Note_off_c, 0, 73, 65
1, 105463, Control_c, 0, 64, 61
1, 105470, Note_off_c, 0, 70, 60
1, 105477, Control_c, 0, 64, 64
1, 105493, Control_c, 0, 64, 65
1, 105496, Note_on_c, 0, 75, 54
1, 105508, Control_c, 0, 64, 66
1, 105516, Note_off_c, 0, 75, 59
1, 105523, Control_c, 0, 64, 68
1, 105538, Note_on_c, 0, 73, 62
1, 105538, Control_c, 0, 64, 69
1, 105553, Control_c, 0, 64, 71
1, 105567, Control_c, 0, 64, 72
1, 105571, Note_off_c, 0, 73, 66
1, 105589, Note_on_c, 0, 75, 63
1, 105612, Control_c, 0, 64, 73
1, 105622, Note_off_c, 0, 75, 65
1, 105626, Control_c, 0, 64, 74
1, 105641, Control_c, 0, 64, 75
1, 105649, Note_on_c, 0, 73, 61
1, 105674, Note_off_c, 0, 73, 58
1, 105685, Control_c, 0, 64, 75
1, 105700, Control_c, 0, 64, 76
1, 105709, Note_on_c, 0, 75, 53
1, 105728, Note_off_c, 0, 75, 60
1, 105754, Note_on_c, 0, 73, 58
1, 105759, Control_c, 0, 64, 76
1, 105759, Control_c, 0, 67, 15
1, 105774, Control_c, 0, 67, 24
1, 105786, Note_off_c, 0, 73, 62
1, 105789, Control_c, 0, 67, 35
1, 105804, Note_on_c, 0, 75, 62
1, 105804, Control_c, 0, 67, 49
1, 105819, Control_c, 0, 67, 71
1, 105841, Control_c, 0, 67, 87
1, 105847, Note_off_c, 0, 75, 61
1, 105856, Control_c, 0, 64, 77
1, 105856, Control_c, 0, 67, 100
1, 105871, Control_c, 0, 67, 112
1, 105886, Control_c, 0, 64, 77
1, 105886, Control_c, 0, 67, 123
1, 105890, Note_on_c, 0, 73, 44
1, 105900, Control_c, 0, 64, 78
1, 105900, Control_c, 0, 67, 127
1, 105915, Note_off_c, 0, 73, 53
1, 105915, Control_c, 0, 64, 78
1, 105925, Note_on_c, 0, 75, 57
1, 105930, Control_c, 0, 64, 79
1, 105959, Note_off_c, 0, 75, 64
1, 105993, Note_on_c, 0, 73, 51
1, 106014, Note_off_c, 0, 73, 60
1, 106019, Control_c, 0, 64, 78
1, 106030, Note_on_c, 0, 75, 63
1, 106064, Note_off_c, 0, 75, 62
1, 106078, Control_c, 0, 64, 78
1, 106086, Note_on_c, 0, 73, 61
1, 106123, Control_c, 0, 64, 78
1, 106138, Control_c, 0, 64, 80
1, 106152, Control_c, 0, 64, 85
1, 106159, Note_off_c, 0, 73, 49
1, 106166, Control_c, 0, 64, 91
1, 106183, Note_on_c, 0, 72, 53
1, 106196, Control_c, 0, 64, 81
1, 106211, Control_c, 0, 64, 68
1, 106225, Control_c, 0, 64, 60
1, 106240, Control_c, 0, 64, 56
1, 106255, Control_c, 0, 64, 57
1, 106270, Control_c, 0, 64, 61
1, 106280, Note_off_c, 0, 72, 54
1, 106281, Note_on_c, 0, 73, 53
1, 106285, Control_c, 0, 64, 63
1, 106301, Control_c, 0, 64, 64
1, 106315, Control_c, 0, 64, 67
1, 106330, Control_c, 0, 64, 70
1, 106345, Control_c, 0, 64, 73
1, 106360, Control_c, 0, 64, 75
1, 106374, Note_off_c, 0, 73, 57
1, 106375, Control_c, 0, 64, 75
1, 106394, Note_on_c, 0, 77, 45
1, 106404, Control_c, 0, 64, 76
1, 106419, Control_c, 0, 64, 78
1, 106434, Control_c, 0, 64, 81
1, 106439, Note_off_c, 0, 77, 64
1, 106463, Control_c, 0, 64, 81
1, 106481, Note_on_c, 0, 73, 60
1, 106493, Control_c, 0, 64, 82
1, 106517, Note_off_c, 0, 73, 61
1, 106554, Note_on_c, 0, 80, 60
1, 106582, Control_c, 0, 64, 83
1, 106609, Note_off_c, 0, 80, 62
1, 106633, Note_on_c, 0, 73, 63
1, 106648, Control_c, 0, 64, 84
1, 106663, Control_c, 0, 64, 85
1, 106678, Control_c, 0, 64, 87
1, 106683, Note_off_c, 0, 59, 59
1, 106686, Note_off_c, 0, 73, 58
1, 106693, Control_c, 0, 64, 87
1, 106703, Note_on_c, 0, 83, 66
1, 106713, Note_off_c, 0, 65, 63
1, 106722, Control_c, 0, 64, 88
1, 106735, Note_off_c, 0, 68, 59
1, 106736, Note_off_c, 0, 83, 65
1, 106737, Control_c, 0, 64, 90
1, 106752, Control_c, 0, 64, 93
1, 106767, Control_c, 0, 64, 96
1, 106782, Note_on_c, 0, 73, 60
1, 106782, Control_c, 0, 64, 97
1, 106814, Note_off_c, 0, 73, 63
1, 106845, Note_on_c, 0, 84, 62
1, 106873, Note_off_c, 0, 84, 64
1, 106898, Note_on_c, 0, 73, 71
1, 106930, Control_c, 0, 64, 96
1, 106951, Note_off_c, 0, 73, 61
1, 106974, Note_on_c, 0, 85, 69
1, 107000, Note_off_c, 0, 85, 68
1, 107004, Control_c, 0, 64, 96
1, 107019, Control_c, 0, 64, 95
1, 107021, Note_on_c, 0, 73, 54
1, 107056, Note_off_c, 0, 73, 64
1, 107097, Note_on_c, 0, 87, 80
1, 107142, Note_off_c, 0, 87, 60
1, 107179, Note_on_c, 0, 73, 57
1, 107198, Control_c, 0, 64, 94
1, 107206, Note_off_c, 0, 73, 63
1, 107227, Control_c, 0, 64, 95
1, 107244, Note_on_c, 0, 89, 77
1, 107257, Control_c, 0, 64, 95
1, 107294, Note_off_c, 0, 89, 63
1, 107313, Note_on_c, 0, 73, 46
1, 107363, Note_off_c, 0, 73, 64
1, 107368, Control_c, 0, 64, 96
1, 107383, Control_c, 0, 64, 96
1, 107397, Note_on_c, 0, 92, 68
1, 107413, Control_c, 0, 64, 97
1, 107427, Control_c, 0, 64, 97
1, 107442, Control_c, 0, 64, 98
1, 107451, Note_off_c, 0, 92, 63
1, 107471, Control_c, 0, 64, 99
1, 107478, Note_on_c, 0, 73, 54
1, 107486, Control_c, 0, 64, 102
1, 107501, Control_c, 0, 64, 107
1, 107512, Note_off_c, 0, 73, 63
1, 107516, Control_c, 0, 64, 113
1, 107531, Control_c, 0, 64, 127
1, 107562, Note_on_c, 0, 95, 55
1, 107633, Note_off_c, 0, 95, 61
1, 107683, Note_on_c, 0, 73, 49
1, 107741, Note_off_c, 0, 73, 56
1, 107806, Note_on_c, 0, 96, 56
1, 107884, Note_off_c, 0, 96, 57
1, 107951, Note_on_c, 0, 73, 47
1, 107992, Note_off_c, 0, 73, 59
1, 108189, Note_on_c, 0, 97, 63
1, 108229, Note_off_c, 0, 97, 61
1, 109382, Note_on_c, 0, 99, 51
1, 109399, Note_on_c, 0, 89, 43
1, 109510, Note_on_c, 0, 92, 42
1, 109510, Note_off_c, 0, 89, 47
1, 109526, Note_off_c, 0, 99, 62
1, 109550, Note_on_c, 0, 95, 62
1, 109595, Poly_aftertouch_c, 0, 94, 0
1, 109599, Note_off_c, 0, 92, 62
1, 109632, Note_off_c, 0, 95, 62
1, 109647, Note_on_c, 0, 98, 56
1, 109655, Note_on_c, 0, 89, 47
1, 109692, Note_off_c, 0, 98, 60
1, 109694, Note_on_c, 0, 94, 47
1, 109705, Note_off_c, 0, 89, 58
1, 109715, Note_on_c, 0, 92, 46
1, 109730, Note_off_c, 0, 94, 48
1, 109744, Note_on_c, 0, 95, 66
1, 109782, Note_off_c, 0, 92, 54
1, 109799, Note_on_c, 0, 88, 53
1, 109804, Note_off_c, 0, 95, 64
1, 109810, Note_on_c, 0, 97, 67
1, 109863, Note_off_c, 0, 88, 64
1, 109864, Note_off_c, 0, 97, 63
1, 109888, Note_on_c, 0, 93, 27
1, 109900, Note_on_c, 0, 91, 49
1, 109918, Note_off_c, 0, 93, 45
1, 109924, Note_off_c, 0, 91, 55
1, 109931, Note_on_c, 0, 94, 57
1, 109964, Note_on_c, 0, 96, 69
1, 109967, Note_on_c, 0, 87, 63
1, 109967, Note_off_c, 0, 94, 63
1, 110019, Note_off_c, 0, 87, 60
1, 110023, Note_off_c, 0, 96, 64
1, 110052, Note_on_c, 0, 90, 51
1, 110058, Note_on_c, 0, 92, 38
1, 110070, Note_on_c, 0, 93, 58
1, 110090, Note_off_c, 0, 92, 44
1, 110112, Note_on_c, 0, 86, 61
1, 110114, Note_off_c, 0, 90, 57
1, 110121, Note_on_c, 0, 95, 69
1, 110127, Note_off_c, 0, 93, 66
1, 110175, Note_off_c, 0, 86, 63
1, 110179, Note_off_c, 0, 95, 64
1, 110203, Note_on_c, 0, 89, 61
1, 110203, Note_on_c, 0, 91, 49
1, 110222, Note_off_c, 0, 91, 61
1, 110242, Note_on_c, 0, 92, 54
1, 110242, Note_off_c, 0, 89, 59
1, 110274, Note_on_c, 0, 85, 64
1, 110280, Note_on_c, 0, 94, 74
1, 110288, Note_off_c, 0, 92, 63
1, 110323, Note_off_c, 0, 85, 58
1, 110333, Note_off_c, 0, 94, 63
1, 110349, Note_on_c, 0, 88, 69
1, 110383, Note_on_c, 0, 91, 57
1, 110404, Note_off_c, 0, 88, 64
1, 110421, Note_off_c, 0, 91, 55
1, 110422, Note_on_c, 0, 84, 61
1, 110433, Note_on_c, 0, 93, 74
1, 110487, Note_off_c, 0, 93, 64
1, 110489, Note_off_c, 0, 84, 63
1, 110502, Note_on_c, 0, 89, 53
1, 110519, Note_on_c, 0, 87, 58
1, 110523, Note_on_c, 0, 90, 70
1, 110529, Note_off_c, 0, 89, 59
1, 110573, Note_off_c, 0, 87, 56
1, 110579, Note_on_c, 0, 92, 71
1, 110583, Note_off_c, 0, 90, 63
1, 110592, Note_on_c, 0, 83, 59
1, 110633, Note_off_c, 0, 92, 65
1, 110645, Note_off_c, 0, 83, 61
1, 110653, Note_on_c, 0, 88, 38
1, 110663, Note_on_c, 0, 86, 55
1, 110672, Note_on_c, 0, 89, 69
1, 110680, Note_off_c, 0, 88, 50
1, 110696, Note_off_c, 0, 86, 65
1, 110719, Note_off_c, 0, 89, 64
1, 110723, Note_on_c, 0, 91, 72
1, 110737, Note_on_c, 0, 82, 66
1, 110781, Note_off_c, 0, 82, 61
1, 110788, Note_off_c, 0, 91, 64
1, 110791, Note_on_c, 0, 87, 54
1, 110812, Note_on_c, 0, 85, 63
1, 110812, Note_off_c, 0, 87, 63
1, 110818, Note_on_c, 0, 88, 59
1, 110850, Note_off_c, 0, 85, 56
1, 110864, Note_on_c, 0, 90, 67
1, 110866, Note_on_c, 0, 81, 57
1, 110869, Note_off_c, 0, 88, 64
1, 110921, Note_off_c, 0, 81, 63
1, 110925, Note_off_c, 0, 90, 64
1, 110927, Note_on_c, 0, 86, 52
1, 110946, Note_on_c, 0, 84, 65
1, 110951, Note_off_c, 0, 86, 61
1, 110970, Note_on_c, 0, 87, 68
1, 110991, Note_off_c, 0, 84, 55
1, 110997, Note_off_c, 0, 87, 68
1, 111000, Note_on_c, 0, 89, 74
1, 111021, Note_on_c, 0, 80, 63
1, 111068, Note_off_c, 0, 80, 61
1, 111070, Note_off_c, 0, 89, 62
1, 111086, Note_on_c, 0, 85, 62
1, 111098, Note_on_c, 0, 83, 56
1, 111104, Note_off_c, 0, 85, 66
1, 111105, Note_on_c, 0, 86, 62
1, 111150, Note_on_c, 0, 79, 64
1, 111151, Note_off_c, 0, 83, 63
1, 111155, Note_on_c, 0, 88, 72
1, 111158, Note_off_c, 0, 86, 65
1, 111204, Note_off_c, 0, 88, 65
1, 111211, Note_off_c, 0, 79, 64
1, 111219, Note_on_c, 0, 84, 60
1, 111250, Note_off_c, 0, 84, 65
1, 111268, Note_on_c, 0, 85, 65
1, 111271, Note_on_c, 0, 82, 47
1, 111298, Note_off_c, 0, 85, 67
1, 111298, Note_on_c, 0, 87, 75
1, 111316, Note_on_c, 0, 78, 65
1, 111331, Note_off_c, 0, 82, 62
1, 111357, Note_off_c, 0, 87, 64
1, 111379, Note_on_c, 0, 83, 52
1, 111387, Note_off_c, 0, 78, 61
1, 111394, Note_on_c, 0, 84, 70
1, 111401, Note_off_c, 0, 83, 60
1, 111402, Note_on_c, 0, 81, 61
1, 111435, Note_off_c, 0, 81, 65
1, 111442, Note_on_c, 0, 86, 73
1, 111444, Note_off_c, 0, 84, 65
1, 111453, Note_on_c, 0, 77, 64
1, 111507, Note_off_c, 0, 86, 63
1, 111514, Note_off_c, 0, 77, 63
1, 111518, Note_on_c, 0, 82, 61
1, 111536, Note_on_c, 0, 83, 58
1, 111536, Note_off_c, 0, 82, 64
1, 111543, Note_on_c, 0, 80, 63
1, 111584, Note_on_c, 0, 85, 74
1, 111587, Note_off_c, 0, 83, 62
1, 111606, Note_off_c, 0, 80, 58
1, 111622, Note_on_c, 0, 76, 58
1, 111642, Note_off_c, 0, 85, 65
1, 111656, Note_on_c, 0, 81, 48
1, 111670, Note_off_c, 0, 76, 60
1, 111685, Note_off_c, 0, 81, 66
1, 111685, Note_on_c, 0, 82, 73
1, 111692, Note_on_c, 0, 79, 57
1, 111721, Note_off_c, 0, 82, 61
1, 111724, Note_off_c, 0, 79, 64
1, 111727, Note_on_c, 0, 84, 69
1, 111764, Note_on_c, 0, 75, 65
1, 111791, Note_off_c, 0, 84, 64
1, 111810, Note_on_c, 0, 80, 47
1, 111817, Note_on_c, 0, 81, 57
1, 111819, Note_off_c, 0, 75, 61
1, 111839, Note_off_c, 0, 80, 58
1, 111847, Note_on_c, 0, 78, 58
1, 111884, Note_off_c, 0, 81, 65
1, 111888, Note_on_c, 0, 83, 76
1, 111899, Note_off_c, 0, 78, 54
1, 111900, Note_on_c, 0, 74, 61
1, 111953, Note_off_c, 0, 83, 60
1, 111957, Note_off_c, 0, 74, 63
1, 111961, Note_on_c, 0, 79, 60
1, 111978, Note_on_c, 0, 77, 69
1, 111989, Note_off_c, 0, 79, 67
1, 111991, Note_on_c, 0, 80, 62
1, 112015, Note_off_c, 0, 77, 58
1, 112037, Note_on_c, 0, 82, 78
1, 112044, Note_on_c, 0, 73, 72
1, 112047, Note_off_c, 0, 80, 63
1, 112090, Note_off_c, 0, 82, 63
1, 112099, Note_off_c, 0, 73, 63
1, 112109, Note_on_c, 0, 78, 59
1, 112118, Note_on_c, 0, 76, 63
1, 112128, Note_off_c, 0, 78, 62
1, 112145, Note_on_c, 0, 79, 52
1, 112168, Note_off_c, 0, 76, 62
1, 112179, Note_off_c, 0, 79, 65
1, 112180, Note_on_c, 0, 81, 72
1, 112189, Note_on_c, 0, 72, 60
1, 112250, Note_off_c, 0, 72, 64
1, 112252, Note_off_c, 0, 81, 65
1, 112274, Note_on_c, 0, 77, 50
1, 112276, Note_on_c, 0, 75, 65
1, 112284, Note_on_c, 0, 78, 75
1, 112296, Note_off_c, 0, 77, 56
1, 112328, Note_off_c, 0, 75, 55
1, 112335, Note_on_c, 0, 80, 76
1, 112343, Note_off_c, 0, 78, 63
1, 112355, Note_on_c, 0, 71, 56
1, 112396, Note_off_c, 0, 80, 63
1, 112418, Note_off_c, 0, 71, 64
1, 112419, Note_on_c, 0, 76, 47
1, 112425, Note_on_c, 0, 77, 63
1, 112427, Note_on_c, 0, 74, 61
1, 112442, Note_off_c, 0, 76, 54
1, 112460, Note_off_c, 0, 74, 65
1, 112481, Note_off_c, 0, 77, 64
1, 112482, Note_on_c, 0, 79, 72
1, 112502, Note_on_c, 0, 70, 65
1, 112550, Note_off_c, 0, 79, 64
1, 112553, Note_on_c, 0, 75, 67
1, 112555, Note_off_c, 0, 70, 63
1, 112574, Note_on_c, 0, 73, 62
1, 112585, Note_on_c, 0, 76, 55
1, 112586, Note_off_c, 0, 75, 64
1, 112622, Note_off_c, 0, 73, 55
1, 112643, Note_on_c, 0, 78, 69
1, 112645, Note_on_c, 0, 69, 58
1, 112646, Note_off_c, 0, 76, 65
1, 112699, Note_off_c, 0, 78, 64
1, 112699, Note_on_c, 0, 74, 55
1, 112711, Note_off_c, 0, 69, 62
1, 112730, Note_on_c, 0, 72, 65
1, 112734, Note_off_c, 0, 74, 63
1, 112753, Note_on_c, 0, 75, 65
1, 112767, Note_off_c, 0, 72, 59
1, 112792, Note_off_c, 0, 75, 62
1, 112794, Note_on_c, 0, 77, 74
1, 112803, Note_on_c, 0, 68, 65
1, 112864, Note_off_c, 0, 68, 59
1, 112871, Note_on_c, 0, 73, 64
1, 112872, Note_on_c, 0, 71, 65
1, 112873, Note_off_c, 0, 77, 63
1, 112889, Note_off_c, 0, 73, 64
1, 112893, Note_on_c, 0, 74, 59
1, 112917, Note_off_c, 0, 71, 54
1, 112942, Note_off_c, 0, 74, 62
1, 112945, Note_on_c, 0, 67, 59
1, 112945, Note_on_c, 0, 76, 75
1, 113021, Note_off_c, 0, 67, 62
1, 113024, Note_off_c, 0, 76, 62
1, 113028, Note_on_c, 0, 72, 67
1, 113046, Note_on_c, 0, 73, 60
1, 113067, Note_on_c, 0, 69, 52
1, 113087, Note_off_c, 0, 69, 61
1, 113110, Note_off_c, 0, 72, 59
1, 113116, Note_on_c, 0, 75, 79
1, 113118, Note_off_c, 0, 73, 64
1, 113138, Note_on_c, 0, 66, 61
1, 113182, Note_off_c, 0, 66, 57
1, 113193, Note_on_c, 0, 69, 53
1, 113196, Note_off_c, 0, 75, 62
1, 113214, Note_on_c, 0, 71, 47
1, 113215, Note_on_c, 0, 72, 69
1, 113268, Note_off_c, 0, 72, 64
1, 113270, Note_off_c, 0, 71, 37
1, 113271, Note_off_c, 0, 69, 63
1, 113272, Note_on_c, 0, 74, 71
1, 113277, Note_on_c, 0, 66, 67
1, 113337, Note_off_c, 0, 74, 60
1, 113358, Note_off_c, 0, 66, 55
1, 113373, Note_on_c, 0, 70, 63
1, 113385, Note_on_c, 0, 68, 51
1, 113387, Control_c, 0, 64, 72
1, 113402, Control_c, 0, 64, 46
1, 113417, Control_c, 0, 64, 0
1, 113434, Note_off_c, 0, 70, 64
1, 113435, Note_off_c, 0, 68, 56
1, 113450, Note_on_c, 0, 71, 52
1, 113453, Note_on_c, 0, 73, 75
1, 113456, Note_on_c, 0, 65, 51
1, 113462, Control_c, 0, 64, 38
1, 113471, Note_off_c, 0, 71, 61
1, 113477, Control_c, 0, 64, 59
1, 113492, Control_c, 0, 64, 66
1, 113507, Control_c, 0, 64, 69
1, 113522, Control_c, 0, 64, 70
1, 113551, Control_c, 0, 64, 71
1, 113566, Control_c, 0, 64, 75
1, 113581, Control_c, 0, 64, 86
1, 113587, Note_off_c, 0, 73, 57
1, 113589, Note_on_c, 0, 68, 48
1, 113593, Note_on_c, 0, 70, 31
1, 113596, Control_c, 0, 64, 94
1, 113601, Note_off_c, 0, 65, 47
1, 113611, Control_c, 0, 64, 94
1, 113626, Control_c, 0, 64, 91
1, 113628, Note_off_c, 0, 70, 49
1, 113641, Control_c, 0, 64, 91
1, 113644, Note_off_c, 0, 68, 61
1, 113649, Note_on_c, 0, 74, 70
1, 113650, Note_on_c, 0, 71, 31
1, 113655, Control_c, 0, 64, 93
1, 113667, Note_on_c, 0, 66, 48
1, 113670, Control_c, 0, 64, 95
1, 113685, Control_c, 0, 64, 96
1, 113697, Note_off_c, 0, 71, 48
1, 113700, Control_c, 0, 64, 97
1, 113714, Control_c, 0, 64, 96
1, 113724, Note_on_c, 0, 70, 59
1, 113729, Note_off_c, 0, 66, 54
1, 113729, Control_c, 0, 64, 93
1, 113744, Control_c, 0, 64, 90
1, 113746, Note_off_c, 0, 74, 54
1, 113754, Note_on_c, 0, 68, 52
1, 113759, Control_c, 0, 64, 89
1, 113772, Note_off_c, 0, 70, 54
1, 113774, Control_c, 0, 64, 90
1, 113788, Control_c, 0, 64, 90
1, 113800, Note_on_c, 0, 71, 38
1, 113805, Note_off_c, 0, 68, 59
1, 113817, Note_on_c, 0, 73, 72
1, 113818, Control_c, 0, 64, 90
1, 113832, Note_on_c, 0, 65, 53
1, 113832, Note_off_c, 0, 71, 51
1, 113833, Control_c, 0, 64, 89
1, 113892, Note_off_c, 0, 73, 62
1, 113897, Note_off_c, 0, 65, 52
1, 113905, Note_on_c, 0, 70, 58
1, 113942, Note_on_c, 0, 68, 46
1, 113955, Note_off_c, 0, 70, 59
1, 113966, Control_c, 0, 64, 90
1, 113970, Note_on_c, 0, 71, 56
1, 113987, Note_off_c, 0, 68, 63
1, 114001, Note_on_c, 0, 74, 73
1, 114002, Note_on_c, 0, 66, 52
1, 114011, Note_off_c, 0, 71, 59
1, 114025, Control_c, 0, 64, 89
1, 114055, Note_off_c, 0, 66, 58
1, 114055, Control_c, 0, 64, 90
1, 114069, Note_off_c, 0, 74, 58
1, 114086, Note_on_c, 0, 70, 54
1, 114102, Note_on_c, 0, 68, 51
1, 114127, Note_off_c, 0, 70, 53
1, 114144, Note_on_c, 0, 71, 56
1, 114146, Note_off_c, 0, 68, 60
1, 114183, Note_on_c, 0, 65, 54
1, 114188, Note_off_c, 0, 71, 56
1, 114192, Note_on_c, 0, 73, 65
1, 114225, Control_c, 0, 64, 89
1, 114246, Note_off_c, 0, 65, 53
1, 114255, Note_off_c, 0, 73, 62
1, 114255, Control_c, 0, 64, 90
1, 114259, Note_on_c, 0, 70, 57
1, 114270, Control_c, 0, 64, 91
1, 114287, Note_on_c, 0, 68, 43
1, 114313, Note_off_c, 0, 70, 52
1, 114315, Control_c, 0, 64, 90
1, 114336, Note_off_c, 0, 68, 62
1, 114341, Note_on_c, 0, 71, 45
1, 114344, Control_c, 0, 64, 90
1, 114361, Note_on_c, 0, 66, 44
1, 114371, Note_off_c, 0, 71, 54
1, 114372, Note_on_c, 0, 74, 67
1, 114422, Note_off_c, 0, 66, 57
1, 114429, Note_off_c, 0, 74, 62
1, 114446, Note_on_c, 0, 70, 55
1, 114455, Note_on_c, 0, 68, 52
1, 114493, Control_c, 0, 64, 90
1, 114493, Note_off_c, 0, 70, 57
1, 114526, Note_on_c, 0, 71, 57
1, 114526, Note_off_c, 0, 68, 59
1, 114547, Note_on_c, 0, 65, 53
1, 114553, Note_on_c, 0, 73, 65
1, 114559, Note_off_c, 0, 71, 63
1, 114607, Note_off_c, 0, 73, 61
1, 114619, Note_off_c, 0, 65, 56
1, 114619, Note_on_c, 0, 70, 61
1, 114654, Note_on_c, 0, 68, 42
1, 114672, Note_off_c, 0, 70, 54
1, 114693, Note_on_c, 0, 71, 52
1, 114706, Note_off_c, 0, 68, 61
1, 114730, Note_off_c, 0, 71, 63
1, 114731, Note_on_c, 0, 74, 61
1, 114739, Note_on_c, 0, 66, 43
1, 114795, Note_off_c, 0, 66, 58
1, 114799, Note_off_c, 0, 74, 61
1, 114805, Note_on_c, 0, 70, 50
1, 114833, Note_on_c, 0, 68, 51
1, 114855, Control_c, 0, 64, 91
1, 114866, Note_off_c, 0, 70, 58
1, 114889, Note_on_c, 0, 71, 52
1, 114889, Note_off_c, 0, 68, 57
1, 114919, Note_on_c, 0, 65, 46
1, 114926, Note_off_c, 0, 71, 61
1, 114927, Note_on_c, 0, 73, 60
1, 114982, Note_off_c, 0, 65, 54
1, 114985, Note_off_c, 0, 73, 57
1, 114989, Note_on_c, 0, 70, 60
1, 115018, Note_on_c, 0, 68, 46
1, 115050, Note_off_c, 0, 70, 59
1, 115084, Note_on_c, 0, 71, 45
1, 115084, Note_off_c, 0, 68, 59
1, 115112, Note_on_c, 0, 66, 47
1, 115112, Note_off_c, 0, 71, 55
1, 115116, Note_on_c, 0, 74, 63
1, 115189, Note_off_c, 0, 74, 57
1, 115193, Note_on_c, 0, 70, 53
1, 115207, Note_on_c, 0, 68, 42
1, 115222, Note_off_c, 0, 66, 33
1, 115242, Control_c, 0, 64, 91
1, 115252, Note_off_c, 0, 70, 58
1, 115259, Note_on_c, 0, 71, 48
1, 115277, Note_off_c, 0, 68, 57
1, 115295, Note_on_c, 0, 65, 52
1, 115307, Note_on_c, 0, 73, 63
1, 115310, Note_off_c, 0, 71, 59
1, 115331, Control_c, 0, 64, 91
1, 115367, Note_off_c, 0, 65, 59
1, 115386, Note_on_c, 0, 68, 52
1, 115388, Note_on_c, 0, 70, 60
1, 115388, Note_off_c, 0, 73, 62
1, 115420, Control_c, 0, 64, 91
1, 115457, Note_off_c, 0, 70, 63
1, 115465, Note_off_c, 0, 68, 58
1, 115473, Note_on_c, 0, 66, 51
1, 115473, Note_on_c, 0, 74, 60
1, 115529, Note_off_c, 0, 74, 52
1, 115539, Control_c, 0, 64, 92
1, 115558, Note_off_c, 0, 66, 54
1, 115566, Note_on_c, 0, 68, 49
1, 115568, Control_c, 0, 64, 92
1, 115580, Note_on_c, 0, 70, 55
1, 115590, Control_c, 0, 64, 93
1, 115605, Note_off_c, 0, 68, 62
1, 115605, Control_c, 0, 64, 95
1, 115617, Note_off_c, 0, 70, 65
1, 115620, Control_c, 0, 64, 97
1, 115635, Control_c, 0, 64, 103
1, 115637, Note_on_c, 0, 65, 55
1, 115650, Control_c, 0, 64, 127
1, 115721, Note_on_c, 0, 68, 39
1, 115724, Control_c, 0, 64, 110
1, 115739, Control_c, 0, 64, 74
1, 115747, Note_on_c, 0, 74, 54
1, 115753, Control_c, 0, 64, 59
1, 115768, Control_c, 0, 64, 47
1, 115779, Note_on_c, 0, 71, 35
1, 115783, Control_c, 0, 64, 45
1, 115798, Control_c, 0, 64, 49
1, 115810, Note_off_c, 0, 74, 63
1, 115813, Control_c, 0, 64, 56
1, 115825, Note_on_c, 0, 73, 55
1, 115827, Control_c, 0, 64, 60
1, 115842, Control_c, 0, 64, 61
1, 115857, Control_c, 0, 64, 62
1, 115865, Note_off_c, 0, 73, 58
1, 115872, Control_c, 0, 64, 62
1, 115888, Control_c, 0, 64, 63
1, 115902, Control_c, 0, 64, 63
1, 115907, Note_on_c, 0, 74, 57
1, 115917, Control_c, 0, 64, 64
1, 115932, Control_c, 0, 64, 64
1, 115941, Note_off_c, 0, 74, 66
1, 115947, Control_c, 0, 64, 65
1, 115962, Control_c, 0, 64, 65
1, 115968, Note_on_c, 0, 73, 53
1, 115976, Control_c, 0, 64, 66
1, 115991, Control_c, 0, 64, 66
1, 116008, Note_off_c, 0, 73, 63
1, 116021, Control_c, 0, 64, 67
1, 116031, Note_on_c, 0, 74, 60
1, 116036, Control_c, 0, 64, 67
1, 116079, Note_off_c, 0, 74, 59
1, 116109, Note_on_c, 0, 73, 52
1, 116150, Note_off_c, 0, 73, 63
1, 116178, Note_on_c, 0, 74, 59
1, 116215, Note_off_c, 0, 74, 64
1, 116243, Note_on_c, 0, 73, 58
1, 116288, Note_off_c, 0, 73, 61
1, 116317, Note_on_c, 0, 74, 55
1, 116365, Note_off_c, 0, 74, 62
1, 116369, Control_c, 0, 64, 68
1, 116397, Note_off_c, 0, 71, 41
1, 116398, Note_on_c, 0, 73, 55
1, 116398, Control_c, 0, 64, 68
1, 116404, Note_off_c, 0, 65, 42
1, 116425, Note_off_c, 0, 68, 39
1, 116438, Note_off_c, 0, 73, 63
1, 116443, Control_c, 0, 64, 69
1, 116473, Note_on_c, 0, 74, 57
1, 116488, Control_c, 0, 64, 69
1, 116502, Control_c, 0, 64, 70
1, 116507, Note_off_c, 0, 74, 62
1, 116543, Note_on_c, 0, 73, 59
1, 116547, Control_c, 0, 64, 70
1, 116562, Control_c, 0, 64, 71
1, 116577, Note_off_c, 0, 73, 63
1, 116591, Control_c, 0, 64, 72
1, 116604, Note_on_c, 0, 74, 53
1, 116606, Control_c, 0, 64, 72
1, 116649, Note_off_c, 0, 74, 59
1, 116649, Control_c, 0, 64, 73
1, 116664, Control_c, 0, 64, 73
1, 116680, Control_c, 0, 64, 74
1, 116681, Note_on_c, 0, 73, 56
1, 116695, Control_c, 0, 64, 74
1, 116715, Note_off_c, 0, 73, 60
1, 116724, Control_c, 0, 64, 75
1, 116739, Control_c, 0, 64, 76
1, 116753, Note_on_c, 0, 74, 58
1, 116754, Control_c, 0, 64, 76
1, 116792, Note_off_c, 0, 74, 62
1, 116813, Note_on_c, 0, 73, 57
1, 116813, Control_c, 0, 64, 77
1, 116828, Control_c, 0, 64, 77
1, 116843, Control_c, 0, 64, 78
1, 116853, Note_off_c, 0, 73, 62
1, 116872, Control_c, 0, 64, 78
1, 116895, Note_on_c, 0, 74, 55
1, 116917, Control_c, 0, 64, 79
1, 116928, Note_off_c, 0, 74, 62
1, 116932, Control_c, 0, 64, 82
1, 116947, Control_c, 0, 64, 91
1, 116962, Note_on_c, 0, 73, 56
1, 116962, Control_c, 0, 64, 127
1, 117018, Note_off_c, 0, 73, 61
1, 117021, Control_c, 0, 64, 89
1, 117036, Control_c, 0, 64, 67
1, 117039, Note_on_c, 0, 75, 58
1, 117051, Control_c, 0, 64, 56
1, 117072, Control_c, 0, 64, 56
1, 117087, Control_c, 0, 64, 58
1, 117099, Note_off_c, 0, 75, 60
1, 117102, Control_c, 0, 64, 62
1, 117117, Control_c, 0, 64, 65
1, 117123, Note_on_c, 0, 73, 54
1, 117131, Control_c, 0, 64, 66
1, 117146, Control_c, 0, 64, 67
1, 117161, Note_off_c, 0, 73, 64
1, 117161, Control_c, 0, 64, 69
1, 117176, Control_c, 0, 64, 70
1, 117191, Note_on_c, 0, 75, 52
1, 117191, Control_c, 0, 64, 72
1, 117206, Control_c, 0, 64, 74
1, 117221, Control_c, 0, 64, 75
1, 117232, Note_off_c, 0, 75, 63
1, 117236, Control_c, 0, 64, 75
1, 117263, Note_on_c, 0, 73, 52
1, 117287, Note_off_c, 0, 73, 57
1, 117322, Note_on_c, 0, 75, 52
1, 117356, Note_off_c, 0, 75, 54
1, 117369, Control_c, 0, 64, 75
1, 117379, Note_on_c, 0, 73, 50
1, 117398, Control_c, 0, 64, 75
1, 117429, Note_off_c, 0, 73, 56
1, 117457, Note_on_c, 0, 75, 53
1, 117501, Note_off_c, 0, 75, 59
1, 117518, Control_c, 0, 64, 76
1, 117533, Control_c, 0, 64, 77
1, 117537, Note_on_c, 0, 73, 53
1, 117547, Control_c, 0, 64, 77
1, 117573, Note_off_c, 0, 73, 50
1, 117598, Note_on_c, 0, 75, 61
1, 117621, Control_c, 0, 64, 78
1, 117640, Note_off_c, 0, 75, 59
1, 117669, Note_on_c, 0, 73, 58
1, 117681, Control_c, 0, 64, 79
1, 117695, Control_c, 0, 64, 80
1, 117713, Note_off_c, 0, 73, 60
1, 117748, Note_on_c, 0, 75, 54
1, 117754, Control_c, 0, 64, 80
1, 117769, Control_c, 0, 64, 81
1, 117772, Note_off_c, 0, 75, 56
1, 117784, Control_c, 0, 64, 81
1, 117799, Control_c, 0, 64, 82
1, 117814, Control_c, 0, 64, 83
1, 117818, Note_on_c, 0, 73, 52
1, 117836, Control_c, 0, 64, 84
1, 117851, Control_c, 0, 64, 85
1, 117856, Note_off_c, 0, 73, 54
1, 117880, Note_on_c, 0, 75, 53
1, 117881, Control_c, 0, 64, 86
1, 117895, Control_c, 0, 64, 87
1, 117910, Control_c, 0, 64, 88
1, 117919, Note_off_c, 0, 75, 61
1, 117925, Control_c, 0, 64, 89
1, 117948, Note_on_c, 0, 73, 54
1, 117969, Control_c, 0, 64, 90
1, 117984, Control_c, 0, 64, 91
1, 117993, Note_off_c, 0, 73, 59
1, 117999, Control_c, 0, 64, 92
1, 118020, Note_on_c, 0, 75, 55
1, 118044, Control_c, 0, 64, 94
1, 118049, Note_off_c, 0, 75, 55
1, 118059, Control_c, 0, 64, 96
1, 118073, Control_c, 0, 64, 97
1, 118103, Control_c, 0, 64, 98
1, 118118, Control_c, 0, 64, 100
1, 118133, Control_c, 0, 64, 106
1, 118147, Control_c, 0, 64, 113
1, 118162, Control_c, 0, 64, 115
1, 118174, Poly_aftertouch_c, 0, 75, 127
1, 118177, Control_c, 0, 64, 117
1, 118190, Poly_aftertouch_c, 0, 78, 127
1, 118192, Control_c, 0, 64, 127
1, 118203, Note_on_c, 0, 73, 42
1, 118208, Poly_aftertouch_c, 0, 75, 0
1, 118255, Note_off_c, 0, 73, 63
1, 118298, Note_on_c, 0, 75, 53
1, 118312, Control_c, 0, 64, 91
1, 118326, Control_c, 0, 64, 72
1, 118334, Note_off_c, 0, 75, 64
1, 118341, Control_c, 0, 64, 70
1, 118356, Control_c, 0, 64, 73
1, 118369, Note_on_c, 0, 73, 58
1, 118370, Control_c, 0, 64, 80
1, 118385, Control_c, 0, 64, 91
1, 118393, Note_off_c, 0, 73, 64
1, 118400, Control_c, 0, 64, 105
1, 118415, Control_c, 0, 64, 127
1, 118421, Note_on_c, 0, 75, 50
1, 118441, Note_off_c, 0, 75, 60
1, 118444, Control_c, 0, 64, 125
1, 118459, Control_c, 0, 64, 111
1, 118464, Note_on_c, 0, 73, 69
1, 118474, Control_c, 0, 64, 109
1, 118489, Control_c, 0, 64, 109
1, 118494, Note_off_c, 0, 73, 64
1, 118518, Note_on_c, 0, 75, 62
1, 118556, Note_off_c, 0, 75, 61
1, 118563, Control_c, 0, 64, 110
1, 118594, Note_on_c, 0, 73, 52
1, 118614, Note_off_c, 0, 73, 61
1, 118615, Control_c, 0, 64, 110
1, 118618, Poly_aftertouch_c, 0, 78, 0
1, 118630, Control_c, 0, 64, 112
1, 118638, Note_on_c, 0, 75, 56
1, 118645, Control_c, 0, 64, 114
1, 118655, Poly_aftertouch_c, 0, 78, 127
1, 118659, Control_c, 0, 64, 115
1, 118675, Note_off_c, 0, 75, 63
1, 118684, Note_on_c, 0, 73, 64
1, 118689, Control_c, 0, 64, 115
1, 118703, Control_c, 0, 64, 125
1, 118717, Note_off_c, 0, 73, 58
1, 118718, Control_c, 0, 64, 127
1, 118733, Poly_aftertouch_c, 0, 78, 0
1, 118741, Note_on_c, 0, 75, 64
1, 118770, Poly_aftertouch_c, 0, 78, 127
1, 118775, Note_off_c, 0, 75, 60
1, 118819, Note_on_c, 0, 73, 50
1, 118840, Note_off_c, 0, 73, 60
1, 118862, Note_on_c, 0, 75, 53
1, 118904, Note_off_c, 0, 75, 63
1, 118916, Note_on_c, 0, 73, 62
1, 118942, Poly_aftertouch_c, 0, 78, 0
1, 118959, Note_off_c, 0, 73, 57
1, 118989, Note_on_c, 0, 75, 61
1, 119054, Note_off_c, 0, 75, 59
1, 119076, Note_on_c, 0, 73, 68
1, 119146, Note_off_c, 0, 73, 58
1, 119223, Note_on_c, 0, 85, 91
1, 119224, Note_on_c, 0, 82, 71
1, 119323, Note_on_c, 0, 73, 40
1, 119381, Note_off_c, 0, 73, 60
1, 119415, Note_on_c, 0, 75, 50
1, 119463, Note_off_c, 0, 75, 58
1, 119470, Note_off_c, 0, 85, 65
1, 119506, Note_on_c, 0, 73, 51
1, 119511, Note_off_c, 0, 82, 58
1, 119558, Note_off_c, 0, 73, 54
1, 119580, Note_on_c, 0, 83, 78
1, 119582, Note_on_c, 0, 80, 65
1, 119600, Note_on_c, 0, 75, 46
1, 119649, Note_off_c, 0, 75, 59
1, 119740, Note_off_c, 0, 83, 62
1, 119751, Note_on_c, 0, 75, 53
1, 119752, Note_off_c, 0, 80, 59
1, 119773, Poly_aftertouch_c, 0, 73, 0
1, 119786, Note_off_c, 0, 75, 62
1, 119886, Poly_aftertouch_c, 0, 73, 127
1, 119900, Note_on_c, 0, 82, 74
1, 119914, Poly_aftertouch_c, 0, 73, 0
1, 119926, Note_on_c, 0, 78, 53
1, 120024, Note_on_c, 0, 73, 47
1, 120055, Note_off_c, 0, 73, 52
1, 120058, Note_off_c, 0, 78, 26
1, 120103, Note_on_c, 0, 75, 42
1, 120136, Note_off_c, 0, 75, 58
1, 120176, Note_on_c, 0, 73, 44
1, 120187, Control_c, 0, 64, 111
1, 120202, Control_c, 0, 64, 78
1, 120217, Control_c, 0, 64, 67
1, 120220, Note_on_c, 0, 54, 56
1, 120232, Control_c, 0, 64, 65
1, 120247, Control_c, 0, 64, 67
1, 120249, Note_on_c, 0, 75, 46
1, 120261, Control_c, 0, 64, 71
1, 120264, Note_off_c, 0, 73, 30
1, 120276, Control_c, 0, 64, 78
1, 120291, Control_c, 0, 64, 86
1, 120306, Control_c, 0, 64, 93
1, 120307, Note_off_c, 0, 75, 61
1, 120309, Note_off_c, 0, 54, 61
1, 120321, Control_c, 0, 64, 95
1, 120329, Note_on_c, 0, 61, 54
1, 120350, Control_c, 0, 64, 94
1, 120360, Note_on_c, 0, 73, 30
1, 120365, Control_c, 0, 64, 95
1, 120380, Control_c, 0, 64, 98
1, 120395, Control_c, 0, 64, 101
1, 120396, Note_off_c, 0, 73, 50
1, 120402, Note_off_c, 0, 61, 61
1, 120410, Note_on_c, 0, 66, 49
1, 120424, Control_c, 0, 64, 100
1, 120428, Note_on_c, 0, 75, 48
1, 120454, Control_c, 0, 64, 101
1, 120469, Control_c, 0, 64, 102
1, 120470, Note_off_c, 0, 82, 60
1, 120473, Note_off_c, 0, 66, 61
1, 120479, Note_off_c, 0, 75, 60
1, 120486, Note_on_c, 0, 70, 56
1, 120498, Control_c, 0, 64, 101
1, 120499, Note_on_c, 0, 73, 59
1, 120513, Control_c, 0, 64, 99
1, 120517, Note_off_c, 0, 73, 63
1, 120528, Control_c, 0, 64, 98
1, 120542, Control_c, 0, 64, 97
1, 120550, Note_off_c, 0, 70, 60
1, 120553, Note_on_c, 0, 82, 77
1, 120560, Note_on_c, 0, 78, 66
1, 120572, Control_c, 0, 64, 97
1, 120582, Note_on_c, 0, 66, 47
1, 120631, Note_off_c, 0, 66, 62
1, 120631, Control_c, 0, 64, 98
1, 120641, Note_off_c, 0, 78, 55
1, 120646, Control_c, 0, 64, 98
1, 120662, Control_c, 0, 64, 100
1, 120671, Note_on_c, 0, 73, 49
1, 120677, Control_c, 0, 64, 101
1, 120680, Note_on_c, 0, 70, 44
1, 120717, Note_off_c, 0, 70, 53
1, 120735, Note_off_c, 0, 73, 52
1, 120736, Control_c, 0, 64, 102
1, 120750, Note_off_c, 0, 82, 59
1, 120751, Control_c, 0, 64, 102
1, 120753, Note_on_c, 0, 75, 55
1, 120756, Note_on_c, 0, 66, 44
1, 120782, Note_off_c, 0, 66, 56
1, 120824, Note_off_c, 0, 75, 51
1, 120829, Note_on_c, 0, 70, 45
1, 120877, Note_off_c, 0, 70, 55
1, 120883, Note_on_c, 0, 82, 80
1, 120895, Note_on_c, 0, 66, 50
1, 120898, Note_on_c, 0, 78, 71
1, 120921, Control_c, 0, 64, 102
1, 120949, Note_off_c, 0, 66, 60
1, 120995, Note_on_c, 0, 70, 45
1, 121013, Note_off_c, 0, 78, 57
1, 121016, Note_on_c, 0, 73, 50
1, 121040, Control_c, 0, 64, 102
1, 121042, Note_off_c, 0, 70, 55
1, 121045, Note_off_c, 0, 73, 61
1, 121060, Note_on_c, 0, 75, 59
1, 121075, Note_on_c, 0, 66, 46
1, 121102, Note_off_c, 0, 66, 57
1, 121128, Control_c, 0, 64, 103
1, 121133, Note_off_c, 0, 75, 61
1, 121149, Note_on_c, 0, 70, 51
1, 121166, Note_on_c, 0, 73, 40
1, 121194, Note_off_c, 0, 73, 56
1, 121197, Note_off_c, 0, 70, 59
1, 121203, Note_on_c, 0, 66, 51
1, 121205, Note_on_c, 0, 75, 59
1, 121254, Note_off_c, 0, 75, 61
1, 121260, Note_off_c, 0, 66, 60
1, 121286, Note_on_c, 0, 73, 52
1, 121290, Note_on_c, 0, 70, 59
1, 121305, Control_c, 0, 64, 103
1, 121320, Control_c, 0, 64, 104
1, 121325, Note_off_c, 0, 73, 54
1, 121335, Control_c, 0, 64, 104
1, 121341, Note_off_c, 0, 70, 59
1, 121350, Control_c, 0, 64, 106
1, 121351, Note_on_c, 0, 75, 61
1, 121364, Control_c, 0, 64, 107
1, 121372, Note_on_c, 0, 66, 53
1, 121395, Note_off_c, 0, 82, 62
1, 121397, Note_off_c, 0, 75, 57
1, 121409, Control_c, 0, 64, 107
1, 121411, Note_off_c, 0, 66, 63
1, 121424, Control_c, 0, 64, 106
1, 121439, Control_c, 0, 64, 104
1, 121442, Note_on_c, 0, 70, 43
1, 121454, Note_on_c, 0, 73, 10
1, 121454, Control_c, 0, 64, 102
1, 121469, Note_on_c, 0, 83, 84
1, 121469, Control_c, 0, 64, 101
1, 121472, Note_on_c, 0, 80, 72
1, 121484, Control_c, 0, 64, 100
1, 121499, Control_c, 0, 64, 99
1, 121504, Note_off_c, 0, 73, 46
1, 121514, Note_on_c, 0, 66, 37
1, 121533, Note_off_c, 0, 83, 64
1, 121543, Control_c, 0, 64, 100
1, 121566, Control_c, 0, 64, 101
1, 121569, Note_off_c, 0, 80, 46
1, 121576, Note_on_c, 0, 75, 78
1, 121581, Control_c, 0, 64, 102
1, 121595, Control_c, 0, 64, 104
1, 121610, Control_c, 0, 64, 107
1, 121617, Note_off_c, 0, 75, 54
1, 121625, Control_c, 0, 64, 110
1, 121640, Control_c, 0, 64, 120
1, 121645, Note_off_c, 0, 70, 42
1, 121655, Control_c, 0, 64, 127
1, 121669, Note_on_c, 0, 73, 57
1, 121696, Note_off_c, 0, 66, 37
1, 121791, Note_on_c, 0, 87, 80
1, 121800, Note_on_c, 0, 83, 63
1, 121800, Note_off_c, 0, 73, 47
1, 121897, Note_off_c, 0, 87, 64
1, 121913, Note_off_c, 0, 83, 63
1, 121939, Note_on_c, 0, 73, 56
1, 122017, Note_off_c, 0, 73, 64
1, 122034, Note_on_c, 0, 75, 64
1, 122076, Note_on_c, 0, 54, 46
1, 122090, Note_off_c, 0, 75, 57
1, 122098, Control_c, 0, 64, 106
1, 122107, Note_off_c, 0, 54, 64
1, 122113, Control_c, 0, 64, 82
1, 122127, Control_c, 0, 64, 73
1, 122128, Note_on_c, 0, 73, 53
1, 122137, Note_on_c, 0, 61, 47
1, 122142, Control_c, 0, 64, 72
1, 122157, Control_c, 0, 64, 76
1, 122169, Note_off_c, 0, 73, 63
1, 122172, Control_c, 0, 64, 82
1, 122187, Control_c, 0, 64, 89
1, 122200, Note_off_c, 0, 61, 61
1, 122202, Control_c, 0, 64, 91
1, 122204, Note_on_c, 0, 75, 34
1, 122224, Note_on_c, 0, 66, 48
1, 122232, Control_c, 0, 64, 90
1, 122235, Note_off_c, 0, 75, 44
1, 122247, Control_c, 0, 64, 91
1, 122258, Note_on_c, 0, 73, 25
1, 122262, Control_c, 0, 64, 92
1, 122266, Note_off_c, 0, 66, 63
1, 122291, Control_c, 0, 64, 92
1, 122306, Control_c, 0, 64, 91
1, 122320, Note_on_c, 0, 70, 46
1, 122334, Note_on_c, 0, 75, 49
1, 122357, Note_off_c, 0, 75, 56
1, 122359, Control_c, 0, 64, 91
1, 122368, Note_off_c, 0, 70, 60
1, 122389, Note_on_c, 0, 66, 46
1, 122389, Note_off_c, 0, 73, 46
1, 122411, Note_on_c, 0, 85, 73
1, 122417, Control_c, 0, 64, 92
1, 122427, Note_on_c, 0, 82, 66
1, 122440, Note_off_c, 0, 66, 61
1, 122462, Control_c, 0, 64, 91
1, 122488, Note_on_c, 0, 70, 41
1, 122504, Note_on_c, 0, 73, 49
1, 122506, Control_c, 0, 64, 92
1, 122510, Note_off_c, 0, 85, 62
1, 122513, Note_off_c, 0, 82, 60
1, 122522, Note_off_c, 0, 70, 53
1, 122564, Note_on_c, 0, 66, 41
1, 122568, Note_off_c, 0, 73, 63
1, 122571, Note_on_c, 0, 75, 61
1, 122581, Control_c, 0, 64, 92
1, 122592, Note_off_c, 0, 66, 56
1, 122627, Note_on_c, 0, 70, 45
1, 122645, Note_off_c, 0, 75, 62
1, 122655, Control_c, 0, 64, 93
1, 122664, Note_on_c, 0, 73, 46
1, 122670, Control_c, 0, 64, 94
1, 122673, Note_off_c, 0, 70, 61
1, 122685, Control_c, 0, 64, 95
1, 122686, Note_on_c, 0, 66, 54
1, 122699, Control_c, 0, 64, 97
1, 122712, Note_off_c, 0, 73, 62
1, 122714, Control_c, 0, 64, 101
1, 122721, Note_on_c, 0, 75, 50
1, 122729, Control_c, 0, 64, 104
1, 122730, Note_off_c, 0, 66, 63
1, 122743, Control_c, 0, 64, 105
1, 122773, Control_c, 0, 64, 106
1, 122784, Note_on_c, 0, 70, 40
1, 122788, Control_c, 0, 64, 109
1, 122794, Note_off_c, 0, 75, 62
1, 122803, Control_c, 0, 64, 114
1, 122817, Control_c, 0, 64, 119
1, 122820, Note_off_c, 0, 70, 59
1, 122839, Note_on_c, 0, 66, 52
1, 122846, Note_on_c, 0, 73, 40
1, 122862, Control_c, 0, 64, 122
1, 122877, Control_c, 0, 64, 127
1, 122885, Note_off_c, 0, 66, 62
1, 122901, Note_on_c, 0, 75, 12
1, 122903, Note_off_c, 0, 73, 0
1, 122903, Note_on_c, 0, 73, 25
1, 122914, Note_on_c, 0, 70, 60
1, 122947, Note_off_c, 0, 75, 35
1, 122959, Note_off_c, 0, 73, 64
1, 122962, Note_off_c, 0, 70, 58
1, 122984, Note_on_c, 0, 80, 71
1, 122986, Note_on_c, 0, 83, 82
1, 122996, Note_on_c, 0, 66, 54
1, 123033, Note_off_c, 0, 66, 64
1, 123081, Note_on_c, 0, 70, 60
1, 123090, Note_on_c, 0, 73, 64
1, 123123, Note_off_c, 0, 70, 64
1, 123133, Note_off_c, 0, 80, 59
1, 123135, Note_off_c, 0, 83, 57
1, 123138, Note_on_c, 0, 66, 54
1, 123147, Note_on_c, 0, 75, 51
1, 123157, Note_off_c, 0, 73, 52
1, 123176, Note_off_c, 0, 66, 63
1, 123204, Note_off_c, 0, 75, 62
1, 123214, Note_on_c, 0, 73, 44
1, 123220, Note_on_c, 0, 70, 55
1, 123256, Note_off_c, 0, 73, 63
1, 123260, Note_off_c, 0, 70, 60
1, 123279, Note_on_c, 0, 82, 85
1, 123288, Note_on_c, 0, 78, 73
1, 123326, Note_on_c, 0, 66, 32
1, 123353, Note_off_c, 0, 78, 50
1, 123403, Note_on_c, 0, 73, 53
1, 123419, Note_off_c, 0, 82, 63
1, 123430, Note_off_c, 0, 66, 0
1, 123433, Note_on_c, 0, 75, 43
1, 123468, Poly_aftertouch_c, 0, 66, 127
1, 123482, Note_off_c, 0, 75, 47
1, 123496, Note_off_c, 0, 73, 61
1, 123558, Note_on_c, 0, 80, 80
1, 123563, Poly_aftertouch_c, 0, 66, 0
1, 123564, Note_on_c, 0, 77, 79
1, 123660, Note_off_c, 0, 77, 49
1, 123663, Note_on_c, 0, 73, 54
1, 123677, Note_off_c, 0, 80, 63
1, 123680, Note_on_c, 0, 75, 67
1, 123693, Note_off_c, 0, 73, 51
1, 123711, Note_off_c, 0, 75, 64
1, 123752, Note_on_c, 0, 73, 50
1, 123863, Note_on_c, 0, 54, 46
1, 123886, Control_c, 0, 64, 100
1, 123899, Note_on_c, 0, 83, 60
1, 123901, Control_c, 0, 64, 78
1, 123902, Note_on_c, 0, 87, 75
1, 123916, Control_c, 0, 64, 67
1, 123931, Control_c, 0, 64, 65
1, 123942, Note_off_c, 0, 73, 37
1, 123946, Control_c, 0, 64, 66
1, 123961, Control_c, 0, 64, 68
1, 123963, Note_on_c, 0, 61, 49
1, 123969, Note_off_c, 0, 54, 62
1, 123976, Control_c, 0, 64, 72
1, 123990, Control_c, 0, 64, 77
1, 123993, Note_off_c, 0, 87, 63
1, 124005, Control_c, 0, 64, 86
1, 124019, Note_off_c, 0, 83, 63
1, 124020, Control_c, 0, 64, 93
1, 124035, Control_c, 0, 64, 96
1, 124046, Note_on_c, 0, 73, 43
1, 124051, Note_off_c, 0, 61, 59
1, 124063, Note_on_c, 0, 65, 49
1, 124064, Control_c, 0, 64, 95
1, 124109, Control_c, 0, 64, 96
1, 124125, Note_on_c, 0, 75, 59
1, 124125, Note_off_c, 0, 65, 58
1, 124166, Note_on_c, 0, 71, 50
1, 124168, Control_c, 0, 64, 97
1, 124181, Note_off_c, 0, 75, 49
1, 124183, Control_c, 0, 64, 97
1, 124184, Note_off_c, 0, 73, 27
1, 124197, Control_c, 0, 64, 98
1, 124201, Note_on_c, 0, 82, 75
1, 124207, Note_on_c, 0, 85, 77
1, 124219, Note_off_c, 0, 71, 61
1, 124242, Control_c, 0, 64, 99
1, 124253, Note_on_c, 0, 65, 43
1, 124257, Control_c, 0, 64, 100
1, 124271, Control_c, 0, 64, 102
1, 124286, Control_c, 0, 64, 103
1, 124287, Note_off_c, 0, 85, 65
1, 124289, Note_off_c, 0, 65, 55
1, 124297, Note_on_c, 0, 73, 60
1, 124297, Note_off_c, 0, 82, 63
1, 124301, Control_c, 0, 64, 104
1, 124316, Control_c, 0, 64, 106
1, 124320, Note_on_c, 0, 71, 56
1, 124330, Control_c, 0, 64, 109
1, 124345, Control_c, 0, 64, 112
1, 124360, Control_c, 0, 64, 115
1, 124366, Note_off_c, 0, 71, 55
1, 124372, Note_off_c, 0, 73, 59
1, 124375, Control_c, 0, 64, 116
1, 124378, Note_on_c, 0, 75, 52
1, 124383, Note_on_c, 0, 65, 60
1, 124423, Note_off_c, 0, 75, 61
1, 124424, Note_off_c, 0, 65, 63
1, 124461, Note_on_c, 0, 71, 58
1, 124473, Note_on_c, 0, 83, 86
1, 124479, Note_on_c, 0, 80, 73
1, 124494, Control_c, 0, 64, 117
1, 124506, Note_off_c, 0, 71, 64
1, 124523, Control_c, 0, 64, 119
1, 124531, Poly_aftertouch_c, 0, 73, 0
1, 124533, Note_on_c, 0, 65, 51
1, 124578, Note_off_c, 0, 65, 63
1, 124604, Note_off_c, 0, 83, 62
1, 124606, Note_on_c, 0, 71, 61
1, 124609, Note_on_c, 0, 73, 72
1, 124627, Note_off_c, 0, 80, 52
1, 124634, Control_c, 0, 64, 117
1, 124655, Note_off_c, 0, 71, 59
1, 124665, Control_c, 0, 64, 119
1, 124674, Note_off_c, 0, 73, 61
1, 124678, Note_on_c, 0, 65, 56
1, 124680, Control_c, 0, 64, 122
1, 124694, Control_c, 0, 64, 125
1, 124726, Note_off_c, 0, 65, 61
1, 124759, Note_on_c, 0, 82, 86
1, 124763, Note_on_c, 0, 71, 61
1, 124777, Note_on_c, 0, 78, 64
1, 124809, Note_off_c, 0, 78, 57
1, 124811, Note_off_c, 0, 71, 61
1, 124840, Note_on_c, 0, 65, 50
1, 124867, Note_off_c, 0, 65, 61
1, 124871, Note_on_c, 0, 73, 60
1, 124876, Note_off_c, 0, 82, 63
1, 124908, Note_on_c, 0, 71, 56
1, 124932, Control_c, 0, 64, 122
1, 124938, Note_off_c, 0, 73, 62
1, 124943, Note_off_c, 0, 71, 63
1, 124954, Note_on_c, 0, 65, 49
1, 125040, Poly_aftertouch_c, 0, 75, 0
1, 125054, Note_on_c, 0, 71, 27
1, 125064, Note_on_c, 0, 80, 80
1, 125070, Note_off_c, 0, 65, 37
1, 125073, Note_on_c, 0, 77, 76
1, 125087, Note_off_c, 0, 71, 52
1, 125106, Note_on_c, 0, 61, 52
1, 125169, Control_c, 0, 64, 120
1, 125173, Note_off_c, 0, 77, 60
1, 125184, Control_c, 0, 64, 119
1, 125197, Note_on_c, 0, 75, 55
1, 125213, Control_c, 0, 64, 117
1, 125228, Control_c, 0, 64, 116
1, 125243, Control_c, 0, 64, 115
1, 125258, Control_c, 0, 64, 115
1, 125279, Note_on_c, 0, 73, 42
1, 125302, Control_c, 0, 64, 114
1, 125305, Note_off_c, 0, 80, 59
1, 125318, Note_off_c, 0, 75, 59
1, 125340, Note_off_c, 0, 73, 60
1, 125369, Control_c, 0, 64, 115
1, 125384, Control_c, 0, 64, 116
1, 125388, Note_on_c, 0, 81, 80
1, 125399, Control_c, 0, 64, 119
1, 125401, Note_on_c, 0, 77, 68
1, 125413, Note_off_c, 0, 61, 54
1, 125459, Control_c, 0, 64, 120
1, 125474, Control_c, 0, 64, 122
1, 125489, Control_c, 0, 64, 127
1, 125498, Note_off_c, 0, 77, 54
1, 125513, Note_on_c, 0, 73, 55
1, 125576, Note_off_c, 0, 73, 55
1, 125585, Note_on_c, 0, 75, 47
1, 125651, Control_c, 0, 64, 120
1, 125658, Note_off_c, 0, 75, 61
1, 125666, Control_c, 0, 64, 76
1, 125681, Control_c, 0, 64, 60
1, 125687, Note_on_c, 0, 73, 38
1, 125689, Note_on_c, 0, 54, 35
1, 125696, Control_c, 0, 64, 54
1, 125724, Note_off_c, 0, 54, 59
1, 125725, Control_c, 0, 64, 56
1, 125740, Control_c, 0, 64, 60
1, 125755, Control_c, 0, 64, 64
1, 125759, Note_on_c, 0, 61, 48
1, 125770, Control_c, 0, 64, 67
1, 125783, Note_on_c, 0, 75, 56
1, 125785, Control_c, 0, 64, 70
1, 125800, Control_c, 0, 64, 73
1, 125801, Note_off_c, 0, 73, 40
1, 125815, Control_c, 0, 64, 76
1, 125820, Note_off_c, 0, 61, 63
1, 125830, Control_c, 0, 64, 77
1, 125844, Control_c, 0, 64, 78
1, 125859, Control_c, 0, 64, 80
1, 125874, Control_c, 0, 64, 85
1, 125874, Note_on_c, 0, 66, 36
1, 125889, Control_c, 0, 64, 93
1, 125895, Note_on_c, 0, 73, 61
1, 125904, Control_c, 0, 64, 105
1, 125915, Note_off_c, 0, 66, 60
1, 125918, Control_c, 0, 64, 113
1, 125922, Note_off_c, 0, 81, 65
1, 125928, Note_off_c, 0, 75, 29
1, 125942, Note_off_c, 0, 73, 61
1, 125944, Note_on_c, 0, 70, 34
1, 125977, Control_c, 0, 64, 114
1, 125992, Control_c, 0, 64, 115
1, 126006, Note_off_c, 0, 70, 49
1, 126007, Note_on_c, 0, 82, 68
1, 126029, Note_on_c, 0, 78, 54
1, 126031, Note_on_c, 0, 66, 48
1, 126074, Note_off_c, 0, 78, 51
1, 126082, Note_off_c, 0, 66, 61
1, 126104, Control_c, 0, 64, 114
1, 126118, Control_c, 0, 64, 113
1, 126136, Note_on_c, 0, 70, 39
1, 126171, Note_on_c, 0, 75, 64
1, 126172, Note_off_c, 0, 70, 53
1, 126178, Note_off_c, 0, 82, 56
1, 126190, Note_on_c, 0, 66, 48
1, 126202, Poly_aftertouch_c, 0, 73, 0
1, 126226, Note_off_c, 0, 66, 61
1, 126236, Control_c, 0, 64, 112
1, 126243, Note_off_c, 0, 75, 58
1, 126266, Note_on_c, 0, 73, 43
1, 126271, Note_on_c, 0, 70, 47
1, 126306, Note_off_c, 0, 73, 53
1, 126311, Note_off_c, 0, 70, 60
1, 126321, Note_on_c, 0, 66, 56
1, 126325, Note_on_c, 0, 75, 51
1, 126356, Control_c, 0, 64, 113
1, 126361, Note_off_c, 0, 66, 63
1, 126371, Control_c, 0, 64, 114
1, 126381, Note_off_c, 0, 75, 51
1, 126415, Control_c, 0, 64, 115
1, 126421, Note_on_c, 0, 70, 40
1, 126430, Control_c, 0, 64, 115
1, 126451, Note_off_c, 0, 70, 55
1, 126457, Note_on_c, 0, 73, 28
1, 126459, Note_on_c, 0, 66, 55
1, 126474, Control_c, 0, 64, 116
1, 126497, Note_on_c, 0, 75, 41
1, 126503, Note_off_c, 0, 66, 58
1, 126519, Control_c, 0, 64, 117
1, 126524, Note_off_c, 0, 75, 52
1, 126543, Note_on_c, 0, 70, 48
1, 126591, Note_off_c, 0, 70, 57
1, 126596, Note_off_c, 0, 73, 43
1, 126611, Note_on_c, 0, 85, 68
1, 126625, Note_on_c, 0, 82, 59
1, 126630, Note_on_c, 0, 66, 51
1, 126638, Control_c, 0, 64, 119
1, 126652, Control_c, 0, 64, 122
1, 126667, Control_c, 0, 64, 125
1, 126670, Note_off_c, 0, 66, 62
1, 126683, Note_off_c, 0, 82, 51
1, 126693, Note_off_c, 0, 85, 65
1, 126699, Note_on_c, 0, 73, 57
1, 126707, Note_on_c, 0, 70, 54
1, 126741, Control_c, 0, 64, 127
1, 126760, Note_off_c, 0, 73, 59
1, 126760, Note_off_c, 0, 70, 58
1, 126778, Note_on_c, 0, 75, 56
1, 126779, Note_on_c, 0, 66, 51
1, 126826, Note_off_c, 0, 66, 63
1, 126837, Note_off_c, 0, 75, 57
1, 126870, Note_on_c, 0, 73, 45
1, 126872, Note_on_c, 0, 70, 49
1, 126900, Note_on_c, 0, 83, 77
1, 126907, Note_off_c, 0, 73, 59
1, 126913, Note_off_c, 0, 70, 62
1, 126915, Note_on_c, 0, 80, 57
1, 126940, Note_on_c, 0, 66, 45
1, 127004, Note_on_c, 0, 73, 65
1, 127046, Note_off_c, 0, 73, 57
1, 127049, Note_on_c, 0, 75, 48
1, 127144, Note_off_c, 0, 83, 63
1, 127151, Note_on_c, 0, 73, 64
1, 127154, Note_off_c, 0, 75, 54
1, 127159, Note_off_c, 0, 80, 19
1, 127182, Note_off_c, 0, 73, 65
1, 127194, Control_c, 0, 64, 125
1, 127201, Note_off_c, 0, 66, 57
1, 127223, Control_c, 0, 64, 122
1, 127227, Note_on_c, 0, 82, 71
1, 127242, Note_on_c, 0, 78, 61
1, 127289, Note_on_c, 0, 80, 19
1, 127311, Note_off_c, 0, 78, 48
1, 127330, Note_on_c, 0, 73, 56
1, 127333, Note_off_c, 0, 80, 47
1, 127371, Control_c, 0, 64, 127
1, 127383, Note_off_c, 0, 73, 61
1, 127413, Note_on_c, 0, 75, 49
1, 127456, Note_off_c, 0, 75, 57
1, 127503, Note_on_c, 0, 73, 49
1, 127520, Note_on_c, 0, 54, 46
1, 127520, Control_c, 0, 64, 80
1, 127534, Note_off_c, 0, 73, 53
1, 127535, Control_c, 0, 64, 65
1, 127548, Note_off_c, 0, 54, 59
1, 127550, Control_c, 0, 64, 63
1, 127566, Note_on_c, 0, 75, 57
1, 127571, Control_c, 0, 64, 64
1, 127586, Control_c, 0, 64, 68
1, 127588, Note_on_c, 0, 61, 51
1, 127601, Control_c, 0, 64, 75
1, 127615, Control_c, 0, 64, 85
1, 127630, Control_c, 0, 64, 93
1, 127636, Note_off_c, 0, 75, 62
1, 127645, Control_c, 0, 64, 95
1, 127648, Note_off_c, 0, 61, 61
1, 127660, Control_c, 0, 64, 96
1, 127666, Note_on_c, 0, 73, 39
1, 127672, Note_on_c, 0, 66, 38
1, 127675, Control_c, 0, 64, 97
1, 127715, Note_off_c, 0, 66, 49
1, 127720, Note_off_c, 0, 73, 0
1, 127732, Note_on_c, 0, 73, 46
1, 127743, Note_on_c, 0, 70, 49
1, 127752, Note_on_c, 0, 75, 30
1, 127754, Note_off_c, 0, 82, 63
1, 127772, Note_off_c, 0, 73, 62
1, 127785, Note_off_c, 0, 75, 46
1, 127794, Control_c, 0, 64, 96
1, 127796, Note_off_c, 0, 70, 60
1, 127824, Note_on_c, 0, 66, 56
1, 127827, Note_on_c, 0, 82, 81
1, 127846, Note_on_c, 0, 78, 61
1, 127853, Control_c, 0, 64, 96
1, 127869, Note_off_c, 0, 66, 58
1, 127898, Control_c, 0, 64, 95
1, 127920, Note_on_c, 0, 70, 50
1, 127958, Control_c, 0, 64, 96
1, 127960, Note_off_c, 0, 70, 63
1, 127985, Note_off_c, 0, 78, 51
1, 127986, Note_on_c, 0, 75, 53
1, 127993, Note_on_c, 0, 66, 53
1, 128002, Control_c, 0, 64, 96
1, 128030, Note_off_c, 0, 66, 63
1, 128046, Control_c, 0, 64, 97
1, 128056, Note_off_c, 0, 82, 62
1, 128071, Note_on_c, 0, 70, 44
1, 128077, Note_off_c, 0, 75, 60
1, 128105, Control_c, 0, 64, 96
1, 128115, Note_off_c, 0, 70, 59
1, 128146, Note_on_c, 0, 66, 52
1, 128154, Note_on_c, 0, 82, 72
1, 128163, Note_on_c, 0, 78, 62
1, 128171, Poly_aftertouch_c, 0, 73, 0
1, 128194, Note_off_c, 0, 66, 61
1, 128230, Note_on_c, 0, 70, 46
1, 128235, Note_off_c, 0, 78, 56
1, 128279, Note_off_c, 0, 70, 60
1, 128280, Note_on_c, 0, 73, 38
1, 128298, Control_c, 0, 64, 96
1, 128317, Note_off_c, 0, 73, 54
1, 128319, Note_on_c, 0, 66, 47
1, 128330, Note_on_c, 0, 75, 56
1, 128361, Note_off_c, 0, 66, 60
1, 128408, Note_off_c, 0, 75, 62
1, 128414, Note_on_c, 0, 70, 45
1, 128424, Control_c, 0, 64, 96
1, 128438, Note_on_c, 0, 73, 23
1, 128447, Note_off_c, 0, 70, 55
1, 128453, Control_c, 0, 64, 97
1, 128468, Control_c, 0, 64, 97
1, 128472, Note_on_c, 0, 66, 52
1, 128477, Note_on_c, 0, 75, 56
1, 128478, Note_off_c, 0, 73, 51
1, 128483, Control_c, 0, 64, 98
1, 128498, Control_c, 0, 64, 100
1, 128513, Control_c, 0, 64, 102
1, 128515, Note_off_c, 0, 66, 63
1, 128527, Control_c, 0, 64, 103
1, 128542, Control_c, 0, 64, 104
1, 128551, Note_off_c, 0, 75, 62
1, 128554, Note_on_c, 0, 70, 49
1, 128557, Control_c, 0, 64, 105
1, 128572, Control_c, 0, 64, 106
1, 128582, Note_on_c, 0, 73, 43
1, 128587, Control_c, 0, 64, 109
1, 128602, Control_c, 0, 64, 115
1, 128613, Note_off_c, 0, 70, 55
1, 128615, Note_on_c, 0, 66, 57
1, 128617, Control_c, 0, 64, 117
1, 128644, Note_off_c, 0, 66, 67
1, 128653, Note_off_c, 0, 82, 61
1, 128662, Note_on_c, 0, 75, 55
1, 128676, Control_c, 0, 64, 119
1, 128691, Control_c, 0, 64, 120
1, 128698, Note_off_c, 0, 73, 41
1, 128724, Note_off_c, 0, 75, 43
1, 128733, Note_on_c, 0, 83, 81
1, 128736, Note_on_c, 0, 80, 65
1, 128747, Note_on_c, 0, 66, 53
1, 128747, Poly_aftertouch_c, 0, 70, 127
1, 128751, Control_c, 0, 64, 119
1, 128784, Poly_aftertouch_c, 0, 70, 0
1, 128792, Note_off_c, 0, 83, 63
1, 128819, Note_off_c, 0, 80, 59
1, 128825, Note_on_c, 0, 75, 77
1, 128840, Control_c, 0, 64, 125
1, 128854, Control_c, 0, 64, 127
1, 128877, Note_off_c, 0, 75, 57
1, 128906, Note_on_c, 0, 73, 71
1, 128973, Note_off_c, 0, 66, 51
1, 129051, Note_on_c, 0, 87, 79
1, 129068, Note_on_c, 0, 83, 62
1, 129106, Note_off_c, 0, 73, 52
1, 129173, Control_c, 0, 64, 93
1, 129187, Control_c, 0, 64, 81
1, 129198, Note_off_c, 0, 87, 63
1, 129202, Control_c, 0, 64, 80
1, 129216, Note_off_c, 0, 83, 64
1, 129217, Control_c, 0, 64, 83
1, 129220, Note_on_c, 0, 73, 62
1, 129232, Control_c, 0, 64, 88
1, 129247, Control_c, 0, 64, 95
1, 129261, Control_c, 0, 64, 102
1, 129276, Control_c, 0, 64, 109
1, 129291, Control_c, 0, 64, 111
1, 129306, Note_off_c, 0, 73, 62
1, 129306, Control_c, 0, 64, 112
1, 129323, Note_on_c, 0, 75, 68
1, 129350, Control_c, 0, 64, 111
1, 129359, Note_on_c, 0, 54, 46
1, 129365, Control_c, 0, 64, 110
1, 129387, Note_off_c, 0, 75, 61
1, 129410, Note_off_c, 0, 54, 61
1, 129424, Note_on_c, 0, 73, 49
1, 129425, Control_c, 0, 64, 110
1, 129439, Note_on_c, 0, 61, 49
1, 129455, Control_c, 0, 64, 110
1, 129457, Note_off_c, 0, 73, 58
1, 129470, Control_c, 0, 64, 113
1, 129484, Note_on_c, 0, 75, 52
1, 129484, Control_c, 0, 64, 127
1, 129499, Note_off_c, 0, 61, 61
1, 129537, Note_on_c, 0, 66, 38
1, 129568, Note_off_c, 0, 75, 58
1, 129581, Note_off_c, 0, 66, 54
1, 129588, Note_on_c, 0, 73, 56
1, 129614, Note_on_c, 0, 70, 46
1, 129632, Note_off_c, 0, 73, 56
1, 129633, Control_c, 0, 64, 109
1, 129648, Control_c, 0, 64, 98
1, 129663, Note_on_c, 0, 85, 67
1, 129663, Control_c, 0, 64, 90
1, 129664, Note_off_c, 0, 70, 55
1, 129676, Note_on_c, 0, 82, 57
1, 129677, Control_c, 0, 64, 84
1, 129692, Control_c, 0, 64, 83
1, 129697, Note_on_c, 0, 66, 51
1, 129707, Control_c, 0, 64, 84
1, 129722, Control_c, 0, 64, 87
1, 129729, Note_off_c, 0, 66, 60
1, 129737, Control_c, 0, 64, 89
1, 129751, Control_c, 0, 64, 89
1, 129757, Note_off_c, 0, 85, 63
1, 129759, Note_on_c, 0, 73, 54
1, 129760, Note_off_c, 0, 82, 59
1, 129781, Control_c, 0, 64, 90
1, 129782, Note_on_c, 0, 70, 40
1, 129796, Control_c, 0, 64, 93
1, 129818, Control_c, 0, 64, 96
1, 129824, Note_off_c, 0, 70, 54
1, 129832, Note_on_c, 0, 66, 55
1, 129833, Control_c, 0, 64, 97
1, 129839, Note_off_c, 0, 73, 62
1, 129848, Control_c, 0, 64, 97
1, 129854, Note_on_c, 0, 75, 60
1, 129876, Note_off_c, 0, 66, 61
1, 129892, Control_c, 0, 64, 98
1, 129907, Control_c, 0, 64, 98
1, 129917, Note_off_c, 0, 75, 59
1, 129925, Note_on_c, 0, 70, 44
1, 129937, Note_on_c, 0, 73, 53
1, 129937, Control_c, 0, 64, 98
1, 129952, Control_c, 0, 64, 98
1, 129961, Note_off_c, 0, 70, 54
1, 129966, Control_c, 0, 64, 100
1, 129980, Note_off_c, 0, 73, 64
1, 129981, Control_c, 0, 64, 101
1, 129982, Note_on_c, 0, 66, 49
1, 129992, Note_on_c, 0, 75, 58
1, 130005, Note_off_c, 0, 66, 60
1, 130034, Note_off_c, 0, 75, 57
1, 130063, Note_on_c, 0, 70, 44
1, 130078, Note_on_c, 0, 73, 57
1, 130096, Note_on_c, 0, 66, 54
1, 130097, Note_off_c, 0, 70, 55
1, 130105, Note_off_c, 0, 73, 55
1, 130128, Note_on_c, 0, 75, 50
1, 130152, Note_off_c, 0, 66, 56
1, 130174, Note_off_c, 0, 75, 57
1, 130193, Note_on_c, 0, 73, 58
1, 130200, Note_on_c, 0, 70, 45
1, 130243, Note_off_c, 0, 70, 51
1, 130254, Note_off_c, 0, 73, 53
1, 130263, Note_on_c, 0, 83, 79
1, 130268, Note_on_c, 0, 80, 65
1, 130279, Note_on_c, 0, 66, 49
1, 130315, Note_off_c, 0, 66, 63
1, 130322, Control_c, 0, 64, 100
1, 130337, Control_c, 0, 64, 100
1, 130353, Note_on_c, 0, 70, 53
1, 130370, Note_on_c, 0, 73, 62
1, 130386, Note_off_c, 0, 83, 60
1, 130408, Note_off_c, 0, 70, 61
1, 130411, Note_off_c, 0, 80, 35
1, 130418, Note_on_c, 0, 66, 54
1, 130436, Note_on_c, 0, 75, 31
1, 130456, Control_c, 0, 64, 100
1, 130462, Note_off_c, 0, 66, 62
1, 130474, Note_off_c, 0, 75, 47
1, 130486, Control_c, 0, 64, 101
1, 130502, Note_on_c, 0, 70, 56
1, 130546, Note_off_c, 0, 73, 60
1, 130557, Note_off_c, 0, 70, 63
1, 130563, Note_on_c, 0, 82, 82
1, 130574, Note_on_c, 0, 78, 66
1, 130584, Note_on_c, 0, 66, 54
1, 130611, Note_off_c, 0, 78, 54
1, 130611, Control_c, 0, 64, 100
1, 130623, Note_off_c, 0, 66, 60
1, 130626, Control_c, 0, 64, 100
1, 130652, Note_on_c, 0, 70, 55
1, 130656, Note_on_c, 0, 73, 70
1, 130674, Note_off_c, 0, 82, 64
1, 130725, Note_off_c, 0, 73, 58
1, 130745, Control_c, 0, 64, 99
1, 130813, Poly_aftertouch_c, 0, 75, 0
1, 130817, Note_on_c, 0, 66, 26
1, 130841, Note_on_c, 0, 80, 81
1, 130848, Control_c, 0, 64, 100
1, 130856, Note_off_c, 0, 70, 37
1, 130858, Note_off_c, 0, 66, 49
1, 130861, Note_on_c, 0, 77, 70
1, 130864, Control_c, 0, 64, 101
1, 130879, Control_c, 0, 64, 104
1, 130894, Control_c, 0, 64, 110
1, 130908, Control_c, 0, 64, 117
1, 130923, Control_c, 0, 64, 120
1, 130936, Note_off_c, 0, 77, 60
1, 130938, Control_c, 0, 64, 122
1, 130952, Control_c, 0, 64, 127
1, 130958, Note_off_c, 0, 80, 63
1, 130966, Note_on_c, 0, 73, 48
1, 130975, Note_on_c, 0, 75, 68
1, 130989, Note_off_c, 0, 73, 59
1, 131006, Note_off_c, 0, 75, 64
1, 131079, Note_on_c, 0, 73, 46
1, 131151, Note_off_c, 0, 73, 35
1, 131171, Note_on_c, 0, 87, 67
1, 131172, Note_on_c, 0, 54, 39
1, 131176, Control_c, 0, 64, 87
1, 131183, Note_on_c, 0, 83, 53
1, 131191, Control_c, 0, 64, 69
1, 131205, Control_c, 0, 64, 65
1, 131220, Control_c, 0, 64, 66
1, 131235, Control_c, 0, 64, 67
1, 131249, Control_c, 0, 64, 69
1, 131264, Control_c, 0, 64, 74
1, 131271, Note_off_c, 0, 54, 63
1, 131273, Note_on_c, 0, 61, 46
1, 131279, Note_off_c, 0, 87, 63
1, 131279, Control_c, 0, 64, 82
1, 131294, Control_c, 0, 64, 89
1, 131297, Note_off_c, 0, 83, 63
1, 131317, Control_c, 0, 64, 92
1, 131331, Control_c, 0, 64, 92
1, 131346, Note_on_c, 0, 73, 56
1, 131346, Control_c, 0, 64, 90
1, 131366, Note_off_c, 0, 61, 60
1, 131376, Control_c, 0, 64, 91
1, 131383, Note_on_c, 0, 65, 45
1, 131391, Control_c, 0, 64, 93
1, 131405, Control_c, 0, 64, 93
1, 131417, Note_on_c, 0, 75, 61
1, 131440, Note_off_c, 0, 65, 59
1, 131458, Note_off_c, 0, 75, 59
1, 131464, Control_c, 0, 64, 93
1, 131467, Note_on_c, 0, 71, 55
1, 131506, Note_on_c, 0, 85, 74
1, 131511, Note_on_c, 0, 82, 72
1, 131532, Note_off_c, 0, 71, 63
1, 131555, Note_off_c, 0, 73, 17
1, 131559, Note_on_c, 0, 65, 50
1, 131568, Control_c, 0, 64, 93
1, 131575, Note_off_c, 0, 85, 66
1, 131584, Note_off_c, 0, 82, 59
1, 131601, Note_on_c, 0, 73, 56
1, 131603, Note_off_c, 0, 65, 61
1, 131624, Note_on_c, 0, 71, 47
1, 131627, Control_c, 0, 64, 93
1, 131668, Note_off_c, 0, 73, 55
1, 131680, Note_off_c, 0, 71, 56
1, 131687, Note_on_c, 0, 75, 50
1, 131708, Note_on_c, 0, 65, 49
1, 131720, Note_off_c, 0, 75, 49
1, 131752, Note_off_c, 0, 65, 62
1, 131782, Note_on_c, 0, 73, 23
1, 131785, Note_on_c, 0, 71, 51
1, 131787, Note_on_c, 0, 83, 76
1, 131798, Note_on_c, 0, 80, 63
1, 131818, Note_off_c, 0, 73, 45
1, 131825, Note_off_c, 0, 71, 48
1, 131854, Note_on_c, 0, 65, 55
1, 131865, Control_c, 0, 64, 93
1, 131879, Control_c, 0, 64, 94
1, 131889, Note_off_c, 0, 83, 61
1, 131894, Control_c, 0, 64, 94
1, 131896, Note_off_c, 0, 65, 61
1, 131905, Note_off_c, 0, 80, 48
1, 131914, Note_on_c, 0, 73, 55
1, 131936, Note_on_c, 0, 71, 50
1, 131984, Note_off_c, 0, 71, 55
1, 132009, Note_on_c, 0, 65, 53
1, 132031, Note_off_c, 0, 73, 55
1, 132058, Note_off_c, 0, 65, 63
1, 132084, Note_on_c, 0, 82, 75
1, 132097, Note_on_c, 0, 71, 54
1, 132106, Note_on_c, 0, 78, 41
1, 132124, Control_c, 0, 64, 95
1, 132136, Note_off_c, 0, 78, 46
1, 132168, Control_c, 0, 64, 95
1, 132178, Note_off_c, 0, 82, 61
1, 132184, Note_off_c, 0, 71, 53
1, 132198, Note_on_c, 0, 73, 38
1, 132204, Note_on_c, 0, 65, 41
1, 132265, Note_off_c, 0, 65, 62
1, 132300, Note_on_c, 0, 71, 45
1, 132331, Note_off_c, 0, 73, 34
1, 132360, Control_c, 0, 64, 96
1, 132388, Note_off_c, 0, 71, 52
1, 132391, Note_on_c, 0, 65, 25
1, 132400, Note_on_c, 0, 80, 66
1, 132410, Note_on_c, 0, 77, 62
1, 132418, Note_on_c, 0, 61, 50
1, 132424, Note_off_c, 0, 65, 50
1, 132434, Control_c, 0, 64, 96
1, 132492, Note_off_c, 0, 77, 54
1, 132493, Control_c, 0, 64, 96
1, 132498, Note_on_c, 0, 73, 55
1, 132564, Note_off_c, 0, 73, 60
1, 132628, Note_on_c, 0, 75, 36
1, 132633, Note_off_c, 0, 80, 63
1, 132659, Note_off_c, 0, 75, 49
1, 132677, Note_on_c, 0, 73, 35
1, 132706, Note_off_c, 0, 73, 48
1, 132716, Control_c, 0, 64, 96
1, 132729, Note_on_c, 0, 82, 68
1, 132731, Control_c, 0, 64, 97
1, 132740, Note_on_c, 0, 78, 56
1, 132746, Control_c, 0, 64, 98
1, 132761, Control_c, 0, 64, 100
1, 132775, Control_c, 0, 64, 102
1, 132782, Note_off_c, 0, 78, 54
1, 132798, Control_c, 0, 64, 107
1, 132809, Note_off_c, 0, 61, 56
1, 132813, Control_c, 0, 64, 116
1, 132814, Note_on_c, 0, 73, 55
1, 132827, Control_c, 0, 64, 127
1, 132876, Note_off_c, 0, 73, 62
1, 132894, Note_on_c, 0, 75, 61
1, 132939, Note_off_c, 0, 75, 57
1, 132985, Note_on_c, 0, 73, 47
1, 133023, Note_off_c, 0, 73, 50
1, 133040, Note_on_c, 0, 54, 55
1, 133049, Control_c, 0, 64, 102
1, 133055, Note_on_c, 0, 75, 58
1, 133064, Control_c, 0, 64, 79
1, 133079, Control_c, 0, 64, 72
1, 133088, Note_off_c, 0, 54, 62
1, 133090, Note_off_c, 0, 75, 63
1, 133094, Control_c, 0, 64, 73
1, 133108, Note_on_c, 0, 61, 58
1, 133109, Control_c, 0, 64, 76
1, 133124, Control_c, 0, 64, 82
1, 133128, Note_on_c, 0, 73, 47
1, 133139, Control_c, 0, 64, 90
1, 133154, Control_c, 0, 64, 104
1, 133169, Control_c, 0, 64, 127
1, 133190, Note_off_c, 0, 61, 62
1, 133200, Note_off_c, 0, 73, 43
1, 133207, Note_on_c, 0, 66, 44
1, 133211, Note_on_c, 0, 75, 53
1, 133224, Note_off_c, 0, 82, 61
1, 133227, Control_c, 0, 64, 125
1, 133242, Control_c, 0, 64, 127
1, 133255, Note_off_c, 0, 75, 61
1, 133263, Note_off_c, 0, 66, 61
1, 133274, Note_on_c, 0, 70, 56
1, 133282, Note_on_c, 0, 73, 47
1, 133304, Note_off_c, 0, 73, 61
1, 133345, Note_on_c, 0, 75, 66
1, 133345, Note_off_c, 0, 70, 63
1, 133365, Note_on_c, 0, 66, 50
1, 133419, Note_off_c, 0, 75, 61
1, 133436, Note_on_c, 0, 73, 58
1, 133443, Note_off_c, 0, 66, 55
1, 133460, Note_on_c, 0, 70, 51
1, 133491, Note_off_c, 0, 73, 62
1, 133519, Note_on_c, 0, 75, 57
1, 133579, Note_off_c, 0, 75, 55
1, 133613, Note_on_c, 0, 73, 57
1, 133647, Poly_aftertouch_c, 0, 66, 127
1, 133660, Note_off_c, 0, 73, 61
1, 133674, Poly_aftertouch_c, 0, 66, 0
1, 133689, Note_on_c, 0, 72, 56
1, 133691, Note_off_c, 0, 70, 35
1, 133720, Note_off_c, 0, 72, 66
1, 133748, Note_on_c, 0, 73, 64
1, 133775, Note_off_c, 0, 73, 69
1, 133785, Note_on_c, 0, 75, 63
1, 133815, Note_off_c, 0, 75, 64
1, 133851, Note_on_c, 0, 77, 70
1, 133881, Note_off_c, 0, 77, 65
1, 133901, Note_on_c, 0, 78, 74
1, 133947, Control_c, 0, 64, 88
1, 133955, Note_on_c, 0, 80, 59
1, 133956, Note_off_c, 0, 78, 63
1, 133962, Control_c, 0, 64, 75
1, 133977, Control_c, 0, 64, 76
1, 133983, Note_on_c, 0, 82, 75
1, 133988, Note_on_c, 0, 73, 85
1, 133991, Control_c, 0, 64, 84
1, 133994, Note_on_c, 0, 70, 66
1, 134002, Note_off_c, 0, 80, 60
1, 134006, Control_c, 0, 64, 127
1, 134030, Note_off_c, 0, 82, 62
1, 134050, Control_c, 0, 67, 126
1, 134051, Note_on_c, 0, 83, 68
1, 134065, Control_c, 0, 67, 103
1, 134078, Note_off_c, 0, 83, 68
1, 134080, Control_c, 0, 67, 80
1, 134095, Control_c, 0, 67, 61
1, 134099, Note_on_c, 0, 84, 76
1, 134110, Control_c, 0, 67, 52
1, 134124, Control_c, 0, 67, 46
1, 134139, Control_c, 0, 67, 39
1, 134154, Control_c, 0, 67, 31
1, 134155, Note_off_c, 0, 73, 64
1, 134162, Note_off_c, 0, 84, 62
1, 134168, Control_c, 0, 67, 23
1, 134170, Note_on_c, 0, 85, 68
1, 134183, Control_c, 0, 67, 17
1, 134198, Control_c, 0, 67, 15
1, 134201, Note_on_c, 0, 87, 72
1, 134213, Control_c, 0, 67, 14
1, 134218, Note_off_c, 0, 85, 63
1, 134228, Control_c, 0, 67, 12
1, 134238, Note_off_c, 0, 70, 52
1, 134244, Control_c, 0, 67, 9
1, 134247, Note_off_c, 0, 87, 64
1, 134259, Control_c, 0, 67, 0
1, 134272, Note_on_c, 0, 89, 77
1, 134279, Note_on_c, 0, 68, 65
1, 134301, Note_on_c, 0, 71, 60
1, 134315, Note_off_c, 0, 89, 61
1, 134321, Note_off_c, 0, 71, 62
1, 134334, Note_off_c, 0, 68, 62
1, 134342, Note_on_c, 0, 90, 69
1, 134354, Note_on_c, 0, 92, 56
1, 134364, Note_on_c, 0, 94, 68
1, 134370, Note_off_c, 0, 90, 63
1, 134376, Note_off_c, 0, 92, 61
1, 134418, Note_off_c, 0, 94, 63
1, 134451, Note_on_c, 0, 95, 55
1, 134468, Note_on_c, 0, 54, 55
1, 134482, Note_on_c, 0, 96, 75
1, 134510, Note_off_c, 0, 95, 0
1, 134543, Note_on_c, 0, 97, 65
1, 134548, Note_off_c, 0, 96, 58
1, 134551, Note_on_c, 0, 61, 66
1, 134551, Note_off_c, 0, 54, 64
1, 134569, Poly_aftertouch_c, 0, 95, 0
1, 134622, Note_on_c, 0, 66, 66
1, 134650, Note_off_c, 0, 97, 62
1, 134745, Note_on_c, 0, 70, 80
1, 134829, Control_c, 0, 64, 100
1, 134844, Control_c, 0, 64, 71
1, 134859, Control_c, 0, 64, 57
1, 134873, Control_c, 0, 64, 44
1, 134884, Note_on_c, 0, 99, 66
1, 134888, Control_c, 0, 64, 41
1, 134903, Control_c, 0, 64, 46
1, 134918, Control_c, 0, 64, 57
1, 134933, Control_c, 0, 64, 63
1, 134946, Note_on_c, 0, 97, 61
1, 134947, Control_c, 0, 64, 65
1, 134962, Control_c, 0, 64, 66
1, 134968, Note_off_c, 0, 99, 60
1, 134977, Control_c, 0, 64, 68
1, 134991, Control_c, 0, 64, 74
1, 135004, Note_on_c, 0, 94, 70
1, 135006, Control_c, 0, 64, 83
1, 135021, Control_c, 0, 64, 96
1, 135022, Note_off_c, 0, 97, 64
1, 135036, Control_c, 0, 64, 127
1, 135063, Note_off_c, 0, 94, 62
1, 135067, Note_on_c, 0, 90, 69
1, 135094, Note_off_c, 0, 90, 68
1, 135139, Note_on_c, 0, 87, 75
1, 135196, Note_on_c, 0, 85, 71
1, 135234, Note_off_c, 0, 87, 62
1, 135240, Note_off_c, 0, 70, 58
1, 135245, Note_off_c, 0, 66, 55
1, 135258, Note_on_c, 0, 82, 79
1, 135280, Note_off_c, 0, 85, 65
1, 135315, Note_off_c, 0, 82, 63
1, 135336, Note_on_c, 0, 78, 74
1, 135352, Note_on_c, 0, 70, 81
1, 135355, Note_on_c, 0, 66, 76
1, 135368, Note_off_c, 0, 78, 64
1, 135413, Note_on_c, 0, 75, 74
1, 135464, Note_off_c, 0, 66, 56
1, 135487, Note_off_c, 0, 75, 63
1, 135494, Note_on_c, 0, 73, 67
1, 135499, Note_off_c, 0, 70, 57
1, 135556, Note_on_c, 0, 75, 69
1, 135567, Note_off_c, 0, 73, 63
1, 135620, Note_off_c, 0, 75, 62
1, 135652, Note_on_c, 0, 78, 62
1, 135656, Note_on_c, 0, 66, 58
1, 135663, Note_on_c, 0, 70, 72
1, 135667, Control_c, 0, 64, 114
1, 135682, Control_c, 0, 64, 76
1, 135696, Control_c, 0, 64, 61
1, 135711, Control_c, 0, 64, 38
1, 135726, Control_c, 0, 64, 0
1, 135756, Control_c, 0, 64, 19
1, 135770, Control_c, 0, 64, 49
1, 135780, Note_on_c, 0, 82, 59
1, 135785, Control_c, 0, 64, 61
1, 135803, Note_off_c, 0, 78, 51
1, 135804, Note_off_c, 0, 61, 35
1, 135807, Control_c, 0, 64, 66
1, 135822, Control_c, 0, 64, 72
1, 135837, Control_c, 0, 64, 81
1, 135853, Control_c, 0, 64, 96
1, 135868, Control_c, 0, 64, 127
1, 135871, Note_on_c, 0, 85, 56
1, 135879, Note_off_c, 0, 82, 61
1, 135914, Note_on_c, 0, 87, 65
1, 135926, Note_off_c, 0, 85, 63
1, 135952, Note_off_c, 0, 87, 60
1, 135995, Note_on_c, 0, 85, 61
1, 136024, Note_off_c, 0, 85, 67
1, 136041, Note_off_c, 0, 66, 60
1, 136042, Note_on_c, 0, 87, 73
1, 136066, Note_off_c, 0, 87, 70
1, 136102, Note_on_c, 0, 85, 76
1, 136115, Note_off_c, 0, 70, 62
1, 136127, Note_off_c, 0, 85, 66
1, 136139, Note_on_c, 0, 87, 82
1, 136173, Note_off_c, 0, 87, 61
1, 136209, Note_on_c, 0, 85, 70
1, 136218, Note_on_c, 0, 68, 56
1, 136226, Note_on_c, 0, 71, 68
1, 136226, Note_off_c, 0, 85, 66
1, 136248, Note_on_c, 0, 87, 85
1, 136257, Note_off_c, 0, 71, 65
1, 136258, Note_off_c, 0, 68, 62
1, 136288, Note_off_c, 0, 87, 60
1, 136301, Note_on_c, 0, 85, 71
1, 136323, Note_off_c, 0, 85, 71
1, 136347, Note_on_c, 0, 84, 74
1, 136371, Note_off_c, 0, 84, 70
1, 136387, Note_on_c, 0, 85, 83
1, 136406, Note_off_c, 0, 85, 72
1, 136446, Note_on_c, 0, 66, 52
1, 136504, Note_on_c, 0, 71, 72
1, 136622, Note_on_c, 0, 75, 73
1, 136675, Control_c, 0, 64, 81
1, 136690, Control_c, 0, 64, 64
1, 136705, Control_c, 0, 64, 50
1, 136716, Note_on_c, 0, 99, 69
1, 136720, Control_c, 0, 64, 43
1, 136735, Control_c, 0, 64, 44
1, 136749, Control_c, 0, 64, 55
1, 136764, Control_c, 0, 64, 63
1, 136773, Note_on_c, 0, 97, 66
1, 136779, Control_c, 0, 64, 66
1, 136793, Note_off_c, 0, 99, 60
1, 136794, Control_c, 0, 64, 69
1, 136809, Control_c, 0, 64, 72
1, 136823, Control_c, 0, 64, 76
1, 136829, Note_on_c, 0, 94, 72
1, 136838, Control_c, 0, 64, 81
1, 136852, Note_off_c, 0, 97, 64
1, 136853, Control_c, 0, 64, 89
1, 136868, Control_c, 0, 64, 102
1, 136883, Control_c, 0, 64, 127
1, 136886, Note_off_c, 0, 94, 63
1, 136890, Note_on_c, 0, 90, 73
1, 136914, Note_off_c, 0, 90, 68
1, 136972, Note_on_c, 0, 87, 70
1, 137025, Note_off_c, 0, 75, 62
1, 137027, Note_on_c, 0, 85, 68
1, 137060, Note_off_c, 0, 87, 63
1, 137103, Note_on_c, 0, 82, 68
1, 137104, Note_off_c, 0, 85, 65
1, 137136, Note_off_c, 0, 71, 37
1, 137154, Note_off_c, 0, 82, 63
1, 137178, Note_on_c, 0, 70, 57
1, 137179, Control_c, 0, 64, 98
1, 137181, Note_on_c, 0, 73, 61
1, 137189, Note_on_c, 0, 78, 70
1, 137194, Control_c, 0, 64, 74
1, 137209, Control_c, 0, 64, 64
1, 137217, Note_off_c, 0, 78, 67
1, 137223, Control_c, 0, 64, 57
1, 137238, Control_c, 0, 64, 55
1, 137253, Control_c, 0, 64, 58
1, 137264, Note_off_c, 0, 73, 65
1, 137267, Note_on_c, 0, 75, 68
1, 137267, Control_c, 0, 64, 63
1, 137282, Control_c, 0, 64, 68
1, 137305, Control_c, 0, 64, 75
1, 137320, Control_c, 0, 64, 84
1, 137335, Control_c, 0, 64, 94
1, 137336, Note_off_c, 0, 75, 63
1, 137342, Note_on_c, 0, 73, 57
1, 137349, Control_c, 0, 64, 112
1, 137364, Control_c, 0, 64, 127
1, 137399, Note_off_c, 0, 73, 65
1, 137402, Note_on_c, 0, 75, 64
1, 137418, Note_off_c, 0, 70, 60
1, 137432, Note_off_c, 0, 75, 66
1, 137478, Note_on_c, 0, 78, 72
1, 137563, Note_on_c, 0, 82, 68
1, 137567, Note_off_c, 0, 78, 55
1, 137638, Note_off_c, 0, 82, 64
1, 137655, Note_on_c, 0, 85, 57
1, 137663, Note_off_c, 0, 66, 26
1, 137698, Note_on_c, 0, 87, 67
1, 137731, Note_off_c, 0, 85, 59
1, 137735, Control_c, 0, 64, 106
1, 137750, Control_c, 0, 64, 81
1, 137756, Note_off_c, 0, 87, 63
1, 137764, Control_c, 0, 64, 72
1, 137779, Control_c, 0, 64, 71
1, 137791, Note_on_c, 0, 68, 42
1, 137792, Note_on_c, 0, 71, 53
1, 137794, Control_c, 0, 64, 72
1, 137796, Note_on_c, 0, 85, 65
1, 137809, Control_c, 0, 64, 77
1, 137824, Control_c, 0, 64, 95
1, 137838, Control_c, 0, 64, 127
1, 137843, Note_off_c, 0, 85, 63
1, 137866, Note_on_c, 0, 87, 56
1, 137885, Note_off_c, 0, 87, 61
1, 137908, Note_on_c, 0, 85, 72
1, 137939, Note_off_c, 0, 85, 64
1, 137961, Note_on_c, 0, 87, 71
1, 137993, Note_off_c, 0, 87, 64
1, 138033, Note_on_c, 0, 85, 64
1, 138054, Note_off_c, 0, 71, 59
1, 138056, Note_off_c, 0, 85, 67
1, 138060, Note_on_c, 0, 70, 68
1, 138069, Note_on_c, 0, 66, 48
1, 138075, Note_on_c, 0, 87, 73
1, 138088, Note_off_c, 0, 70, 68
1, 138093, Note_off_c, 0, 68, 56
1, 138095, Note_off_c, 0, 66, 61
1, 138100, Note_off_c, 0, 87, 66
1, 138115, Note_on_c, 0, 85, 85
1, 138156, Note_off_c, 0, 85, 61
1, 138181, Note_on_c, 0, 84, 75
1, 138218, Note_off_c, 0, 84, 62
1, 138222, Note_on_c, 0, 85, 66
1, 138247, Note_on_c, 0, 54, 27
1, 138251, Note_off_c, 0, 85, 67
1, 138280, Note_on_c, 0, 61, 61
1, 138288, Note_off_c, 0, 54, 52
1, 138338, Note_on_c, 0, 65, 47
1, 138366, Control_c, 0, 64, 112
1, 138381, Control_c, 0, 64, 73
1, 138395, Control_c, 0, 64, 59
1, 138410, Control_c, 0, 64, 55
1, 138425, Control_c, 0, 64, 58
1, 138432, Note_on_c, 0, 68, 67
1, 138440, Control_c, 0, 64, 63
1, 138455, Control_c, 0, 64, 68
1, 138469, Control_c, 0, 64, 77
1, 138475, Note_off_c, 0, 61, 63
1, 138484, Note_off_c, 0, 65, 63
1, 138484, Control_c, 0, 64, 99
1, 138499, Control_c, 0, 64, 127
1, 138519, Note_on_c, 0, 99, 66
1, 138527, Note_off_c, 0, 68, 62
1, 138616, Note_off_c, 0, 99, 60
1, 138619, Note_on_c, 0, 97, 59
1, 138687, Note_on_c, 0, 92, 62
1, 138696, Note_off_c, 0, 97, 63
1, 138746, Note_off_c, 0, 92, 63
1, 138749, Note_on_c, 0, 75, 73
1, 138768, Note_on_c, 0, 89, 67
1, 138773, Note_on_c, 0, 71, 62
1, 138807, Note_off_c, 0, 89, 65
1, 138867, Note_on_c, 0, 87, 61
1, 138892, Note_off_c, 0, 71, 63
1, 138917, Note_off_c, 0, 75, 63
1, 138924, Note_on_c, 0, 85, 65
1, 138943, Note_off_c, 0, 87, 51
1, 138993, Note_on_c, 0, 80, 76
1, 138997, Note_off_c, 0, 85, 66
1, 139046, Note_off_c, 0, 80, 63
1, 139053, Note_on_c, 0, 73, 81
1, 139071, Note_on_c, 0, 70, 70
1, 139073, Note_on_c, 0, 77, 67
1, 139102, Note_off_c, 0, 70, 66
1, 139104, Note_off_c, 0, 77, 65
1, 139111, Note_off_c, 0, 73, 63
1, 139148, Note_on_c, 0, 75, 72
1, 139210, Note_off_c, 0, 75, 62
1, 139216, Note_on_c, 0, 73, 78
1, 139277, Note_off_c, 0, 73, 64
1, 139282, Note_on_c, 0, 75, 62
1, 139310, Note_off_c, 0, 75, 67
1, 139331, Note_on_c, 0, 77, 75
1, 139336, Control_c, 0, 64, 85
1, 139341, Note_on_c, 0, 71, 75
1, 139348, Note_on_c, 0, 68, 69
1, 139351, Control_c, 0, 64, 75
1, 139366, Control_c, 0, 64, 73
1, 139381, Control_c, 0, 64, 74
1, 139396, Control_c, 0, 64, 77
1, 139404, Note_off_c, 0, 77, 48
1, 139410, Note_on_c, 0, 80, 76
1, 139411, Control_c, 0, 64, 84
1, 139426, Control_c, 0, 64, 101
1, 139441, Control_c, 0, 64, 127
1, 139483, Note_off_c, 0, 80, 64
1, 139485, Note_on_c, 0, 85, 71
1, 139549, Note_on_c, 0, 87, 71
1, 139558, Note_off_c, 0, 85, 62
1, 139560, Note_off_c, 0, 71, 60
1, 139576, Note_off_c, 0, 68, 58
1, 139607, Note_off_c, 0, 87, 64
1, 139626, Note_on_c, 0, 85, 63
1, 139652, Note_on_c, 0, 66, 57
1, 139661, Note_on_c, 0, 70, 66
1, 139681, Note_off_c, 0, 85, 64
1, 139688, Note_on_c, 0, 87, 77
1, 139712, Note_off_c, 0, 87, 68
1, 139739, Note_off_c, 0, 66, 57
1, 139742, Note_on_c, 0, 85, 71
1, 139782, Note_off_c, 0, 85, 61
1, 139793, Note_on_c, 0, 87, 81
1, 139815, Note_off_c, 0, 70, 63
1, 139829, Note_off_c, 0, 87, 61
1, 139861, Note_on_c, 0, 85, 66
1, 139886, Note_off_c, 0, 85, 66
1, 139897, Note_on_c, 0, 87, 76
1, 139910, Note_on_c, 0, 68, 63
1, 139923, Note_on_c, 0, 65, 70
1, 139928, Note_off_c, 0, 87, 59
1, 139944, Note_on_c, 0, 85, 84
1, 139954, Note_off_c, 0, 65, 65
1, 139955, Note_off_c, 0, 68, 60
1, 139983, Note_off_c, 0, 85, 61
1, 140008, Note_on_c, 0, 84, 69
1, 140034, Note_off_c, 0, 84, 67
1, 140043, Note_on_c, 0, 85, 65
1, 140072, Note_off_c, 0, 85, 68
1, 140109, Note_on_c, 0, 54, 57
1, 140172, Note_off_c, 0, 54, 63
1, 140184, Note_on_c, 0, 61, 65
1, 140264, Note_on_c, 0, 65, 58
1, 140329, Note_on_c, 0, 69, 81
1, 140360, Control_c, 0, 64, 83
1, 140374, Control_c, 0, 64, 63
1, 140389, Control_c, 0, 64, 27
1, 140404, Control_c, 0, 64, 0
1, 140428, Note_on_c, 0, 99, 57
1, 140434, Control_c, 0, 64, 24
1, 140448, Control_c, 0, 64, 46
1, 140463, Control_c, 0, 64, 55
1, 140478, Control_c, 0, 64, 59
1, 140493, Control_c, 0, 64, 63
1, 140507, Note_on_c, 0, 97, 52
1, 140508, Control_c, 0, 64, 65
1, 140514, Note_off_c, 0, 99, 59
1, 140523, Control_c, 0, 64, 66
1, 140538, Control_c, 0, 64, 66
1, 140552, Control_c, 0, 64, 69
1, 140567, Control_c, 0, 64, 77
1, 140582, Control_c, 0, 64, 90
1, 140586, Note_on_c, 0, 94, 60
1, 140597, Control_c, 0, 64, 102
1, 140598, Note_off_c, 0, 97, 63
1, 140611, Control_c, 0, 64, 119
1, 140626, Control_c, 0, 64, 127
1, 140630, Note_off_c, 0, 94, 60
1, 140663, Note_on_c, 0, 90, 58
1, 140697, Note_off_c, 0, 90, 65
1, 140755, Note_on_c, 0, 87, 61
1, 140773, Note_off_c, 0, 69, 61
1, 140791, Note_off_c, 0, 65, 63
1, 140807, Note_off_c, 0, 61, 49
1, 140830, Note_on_c, 0, 85, 56
1, 140837, Note_off_c, 0, 87, 55
1, 140919, Note_off_c, 0, 85, 64
1, 140930, Note_on_c, 0, 82, 48
1, 140971, Note_off_c, 0, 82, 65
1, 141016, Note_on_c, 0, 70, 59
1, 141017, Note_on_c, 0, 66, 48
1, 141022, Note_on_c, 0, 78, 54
1, 141049, Control_c, 0, 64, 95
1, 141064, Control_c, 0, 64, 72
1, 141069, Note_off_c, 0, 78, 63
1, 141079, Control_c, 0, 64, 62
1, 141094, Control_c, 0, 64, 57
1, 141109, Control_c, 0, 64, 58
1, 141115, Note_on_c, 0, 75, 58
1, 141123, Control_c, 0, 64, 61
1, 141138, Control_c, 0, 64, 64
1, 141153, Control_c, 0, 64, 65
1, 141168, Control_c, 0, 64, 68
1, 141173, Note_off_c, 0, 75, 57
1, 141182, Control_c, 0, 64, 71
1, 141197, Control_c, 0, 64, 74
1, 141201, Note_on_c, 0, 73, 49
1, 141212, Control_c, 0, 64, 77
1, 141227, Control_c, 0, 64, 78
1, 141238, Note_off_c, 0, 73, 63
1, 141256, Control_c, 0, 64, 82
1, 141271, Control_c, 0, 64, 89
1, 141280, Note_on_c, 0, 75, 42
1, 141286, Control_c, 0, 64, 100
1, 141301, Control_c, 0, 64, 110
1, 141305, Note_off_c, 0, 75, 53
1, 141316, Control_c, 0, 64, 116
1, 141330, Control_c, 0, 64, 122
1, 141337, Note_on_c, 0, 78, 62
1, 141345, Control_c, 0, 64, 127
1, 141383, Note_off_c, 0, 66, 51
1, 141436, Note_off_c, 0, 78, 52
1, 141448, Note_on_c, 0, 82, 56
1, 141505, Note_off_c, 0, 70, 0
1, 141535, Note_on_c, 0, 85, 49
1, 141542, Poly_aftertouch_c, 0, 70, 127
1, 141551, Note_off_c, 0, 82, 55
1, 141584, Poly_aftertouch_c, 0, 70, 0
1, 141596, Note_on_c, 0, 87, 64
1, 141605, Note_off_c, 0, 85, 60
1, 141643, Control_c, 0, 64, 92
1, 141655, Note_off_c, 0, 87, 61
1, 141658, Control_c, 0, 64, 74
1, 141673, Control_c, 0, 64, 66
1, 141678, Note_on_c, 0, 70, 55
1, 141685, Note_on_c, 0, 73, 64
1, 141687, Control_c, 0, 64, 66
1, 141701, Note_on_c, 0, 85, 57
1, 141702, Control_c, 0, 64, 68
1, 141717, Control_c, 0, 64, 75
1, 141731, Control_c, 0, 64, 90
1, 141745, Note_off_c, 0, 85, 63
1, 141746, Control_c, 0, 64, 127
1, 141758, Note_on_c, 0, 87, 67
1, 141792, Note_off_c, 0, 87, 68
1, 141824, Note_on_c, 0, 85, 70
1, 141861, Note_off_c, 0, 85, 62
1, 141873, Note_on_c, 0, 87, 73
1, 141877, Note_off_c, 0, 73, 64
1, 141900, Note_off_c, 0, 87, 66
1, 141942, Note_on_c, 0, 85, 64
1, 141959, Note_off_c, 0, 85, 67
1, 141974, Note_on_c, 0, 71, 63
1, 141983, Note_on_c, 0, 68, 56
1, 141983, Note_on_c, 0, 87, 77
1, 141996, Note_off_c, 0, 70, 56
1, 142004, Note_off_c, 0, 87, 71
1, 142005, Note_off_c, 0, 71, 65
1, 142015, Note_off_c, 0, 68, 64
1, 142027, Note_on_c, 0, 85, 82
1, 142067, Note_off_c, 0, 85, 61
1, 142092, Note_on_c, 0, 84, 72
1, 142120, Note_off_c, 0, 84, 65
1, 142127, Note_on_c, 0, 85, 72
1, 142132, Note_on_c, 0, 54, 52
1, 142154, Note_off_c, 0, 85, 68
1, 142165, Note_off_c, 0, 54, 64
1, 142193, Note_on_c, 0, 61, 60
1, 142269, Note_on_c, 0, 66, 62
1, 142329, Note_on_c, 0, 70, 69
1, 142362, Control_c, 0, 64, 87
1, 142377, Control_c, 0, 64, 67
1, 142392, Control_c, 0, 64, 56
1, 142407, Control_c, 0, 64, 49
1, 142421, Control_c, 0, 64, 49
1, 142430, Note_on_c, 0, 99, 64
1, 142436, Control_c, 0, 64, 56
1, 142451, Control_c, 0, 64, 61
1, 142466, Control_c, 0, 64, 63
1, 142480, Control_c, 0, 64, 65
1, 142495, Control_c, 0, 64, 67
1, 142498, Note_on_c, 0, 97, 58
1, 142510, Control_c, 0, 64, 69
1, 142513, Note_off_c, 0, 99, 59
1, 142525, Control_c, 0, 64, 73
1, 142547, Control_c, 0, 64, 79
1, 142562, Control_c, 0, 64, 86
1, 142572, Note_on_c, 0, 94, 71
1, 142576, Control_c, 0, 64, 94
1, 142591, Note_off_c, 0, 97, 63
1, 142591, Control_c, 0, 64, 107
1, 142606, Control_c, 0, 64, 127
1, 142616, Note_off_c, 0, 94, 61
1, 142641, Note_on_c, 0, 90, 61
1, 142659, Note_off_c, 0, 90, 65
1, 142707, Note_on_c, 0, 87, 68
1, 142723, Note_off_c, 0, 70, 56
1, 142740, Note_off_c, 0, 66, 58
1, 142764, Note_on_c, 0, 85, 71
1, 142803, Note_off_c, 0, 87, 63
1, 142830, Note_on_c, 0, 82, 74
1, 142842, Note_off_c, 0, 85, 63
1, 142882, Note_off_c, 0, 82, 63
1, 142906, Note_on_c, 0, 70, 70
1, 142907, Note_on_c, 0, 66, 60
1, 142913, Note_on_c, 0, 78, 63
1, 142923, Note_off_c, 0, 61, 37
1, 142947, Note_off_c, 0, 78, 66
1, 142987, Note_on_c, 0, 75, 63
1, 143007, Note_off_c, 0, 66, 59
1, 143016, Note_off_c, 0, 70, 58
1, 143056, Note_off_c, 0, 75, 61
1, 143063, Note_on_c, 0, 73, 55
1, 143123, Note_on_c, 0, 75, 61
1, 143128, Note_off_c, 0, 73, 64
1, 143176, Note_off_c, 0, 75, 63
1, 143196, Note_on_c, 0, 66, 65
1, 143199, Note_on_c, 0, 70, 82
1, 143209, Note_on_c, 0, 78, 64
1, 143214, Control_c, 0, 64, 117
1, 143229, Control_c, 0, 64, 80
1, 143244, Control_c, 0, 64, 67
1, 143258, Control_c, 0, 64, 61
1, 143273, Control_c, 0, 64, 62
1, 143295, Control_c, 0, 64, 65
1, 143302, Note_off_c, 0, 78, 61
1, 143307, Note_on_c, 0, 82, 62
1, 143310, Control_c, 0, 64, 70
1, 143325, Control_c, 0, 64, 78
1, 143340, Control_c, 0, 64, 93
1, 143354, Control_c, 0, 64, 127
1, 143373, Note_off_c, 0, 82, 64
1, 143375, Note_on_c, 0, 85, 59
1, 143386, Poly_aftertouch_c, 0, 63, 127
1, 143421, Note_on_c, 0, 87, 65
1, 143426, Note_off_c, 0, 85, 63
1, 143485, Note_off_c, 0, 87, 60
1, 143492, Note_on_c, 0, 85, 68
1, 143524, Note_off_c, 0, 66, 61
1, 143536, Note_off_c, 0, 85, 60
1, 143548, Note_on_c, 0, 87, 70
1, 143579, Note_off_c, 0, 87, 61
1, 143591, Note_off_c, 0, 70, 62
1, 143606, Note_on_c, 0, 85, 69
1, 143635, Note_off_c, 0, 85, 64
1, 143663, Note_on_c, 0, 87, 71
1, 143688, Note_off_c, 0, 87, 69
1, 143718, Note_on_c, 0, 85, 71
1, 143722, Note_on_c, 0, 68, 68
1, 143728, Note_on_c, 0, 71, 67
1, 143734, Note_off_c, 0, 85, 68
1, 143753, Note_off_c, 0, 68, 65
1, 143754, Poly_aftertouch_c, 0, 63, 0
1, 143755, Note_on_c, 0, 87, 76
1, 143761, Note_off_c, 0, 71, 65
1, 143778, Note_off_c, 0, 87, 70
1, 143790, Note_on_c, 0, 85, 88
1, 143834, Note_off_c, 0, 85, 66
1, 143863, Note_on_c, 0, 84, 75
1, 143897, Note_off_c, 0, 84, 61
1, 143904, Note_on_c, 0, 66, 61
1, 143911, Note_on_c, 0, 85, 61
1, 143927, Note_off_c, 0, 85, 65
1, 143959, Note_on_c, 0, 71, 72
1, 144083, Note_on_c, 0, 75, 82
1, 144118, Control_c, 0, 64, 95
1, 144132, Control_c, 0, 64, 70
1, 144147, Control_c, 0, 64, 57
1, 144162, Control_c, 0, 64, 40
1, 144177, Control_c, 0, 64, 35
1, 144188, Note_on_c, 0, 99, 59
1, 144192, Control_c, 0, 64, 38
1, 144207, Control_c, 0, 64, 52
1, 144222, Control_c, 0, 64, 59
1, 144237, Control_c, 0, 64, 61
1, 144252, Control_c, 0, 64, 62
1, 144253, Note_on_c, 0, 97, 61
1, 144264, Note_off_c, 0, 99, 63
1, 144267, Control_c, 0, 64, 64
1, 144281, Control_c, 0, 64, 65
1, 144296, Control_c, 0, 64, 69
1, 144311, Control_c, 0, 64, 74
1, 144315, Note_on_c, 0, 94, 79
1, 144326, Control_c, 0, 64, 80
1, 144332, Note_off_c, 0, 97, 64
1, 144339, Control_c, 0, 64, 87
1, 144354, Control_c, 0, 64, 98
1, 144367, Note_off_c, 0, 94, 63
1, 144369, Control_c, 0, 64, 127
1, 144380, Note_on_c, 0, 90, 69
1, 144406, Note_off_c, 0, 90, 67
1, 144455, Note_on_c, 0, 87, 73
1, 144488, Note_off_c, 0, 75, 62
1, 144520, Note_on_c, 0, 85, 69
1, 144535, Note_off_c, 0, 87, 61
1, 144537, Note_off_c, 0, 71, 59
1, 144591, Note_on_c, 0, 82, 67
1, 144595, Note_off_c, 0, 85, 64
1, 144638, Note_off_c, 0, 82, 61
1, 144651, Control_c, 0, 64, 99
1, 144658, Note_on_c, 0, 70, 57
1, 144666, Control_c, 0, 64, 73
1, 144672, Note_on_c, 0, 73, 40
1, 144678, Note_on_c, 0, 78, 63
1, 144681, Control_c, 0, 64, 63
1, 144696, Control_c, 0, 64, 59
1, 144708, Note_off_c, 0, 78, 65
1, 144711, Control_c, 0, 64, 61
1, 144726, Control_c, 0, 64, 64
1, 144741, Control_c, 0, 64, 70
1, 144742, Note_off_c, 0, 73, 59
1, 144746, Note_on_c, 0, 75, 65
1, 144755, Control_c, 0, 64, 82
1, 144770, Control_c, 0, 64, 104
1, 144792, Control_c, 0, 64, 127
1, 144813, Note_off_c, 0, 75, 62
1, 144828, Note_on_c, 0, 73, 63
1, 144868, Note_off_c, 0, 70, 62
1, 144872, Note_off_c, 0, 73, 63
1, 144878, Note_on_c, 0, 75, 61
1, 144916, Note_off_c, 0, 75, 63
1, 144955, Note_off_c, 0, 66, 37
1, 144957, Note_on_c, 0, 78, 68
1, 145050, Note_on_c, 0, 82, 63
1, 145051, Note_off_c, 0, 78, 59
1, 145131, Note_off_c, 0, 82, 60
1, 145134, Note_on_c, 0, 85, 52
1, 145185, Note_off_c, 0, 85, 60
1, 145194, Note_on_c, 0, 87, 61
1, 145207, Control_c, 0, 64, 112
1, 145214, Note_on_c, 0, 71, 43
1, 145222, Control_c, 0, 64, 82
1, 145223, Note_on_c, 0, 68, 34
1, 145236, Control_c, 0, 64, 69
1, 145240, Note_off_c, 0, 87, 54
1, 145251, Control_c, 0, 64, 64
1, 145266, Control_c, 0, 64, 65
1, 145280, Control_c, 0, 64, 68
1, 145282, Note_on_c, 0, 85, 56
1, 145295, Control_c, 0, 64, 74
1, 145310, Control_c, 0, 64, 87
1, 145316, Note_off_c, 0, 85, 66
1, 145325, Control_c, 0, 64, 127
1, 145340, Note_on_c, 0, 87, 63
1, 145361, Note_off_c, 0, 87, 66
1, 145393, Note_on_c, 0, 85, 71
1, 145426, Note_off_c, 0, 85, 64
1, 145441, Note_on_c, 0, 87, 64
1, 145470, Note_off_c, 0, 87, 67
1, 145507, Note_on_c, 0, 85, 59
1, 145531, Note_off_c, 0, 85, 64
1, 145540, Note_on_c, 0, 70, 58
1, 145541, Note_off_c, 0, 71, 59
1, 145548, Note_on_c, 0, 87, 69
1, 145554, Note_on_c, 0, 66, 40
1, 145566, Note_off_c, 0, 70, 64
1, 145575, Note_off_c, 0, 87, 69
1, 145578, Note_off_c, 0, 68, 36
1, 145582, Note_off_c, 0, 66, 53
1, 145594, Note_on_c, 0, 85, 78
1, 145623, Note_off_c, 0, 85, 61
1, 145660, Note_on_c, 0, 84, 65
1, 145691, Note_off_c, 0, 84, 65
1, 145724, Note_on_c, 0, 85, 25
1, 145757, Note_off_c, 0, 85, 45
1, 145757, Poly_aftertouch_c, 0, 54, 127
1, 145763, Note_on_c, 0, 61, 52
1, 145799, Poly_aftertouch_c, 0, 54, 0
1, 145827, Note_on_c, 0, 65, 59
1, 145852, Control_c, 0, 64, 83
1, 145867, Control_c, 0, 64, 65
1, 145882, Control_c, 0, 64, 59
1, 145894, Note_on_c, 0, 68, 56
1, 145897, Control_c, 0, 64, 61
1, 145912, Control_c, 0, 64, 64
1, 145927, Control_c, 0, 64, 67
1, 145942, Control_c, 0, 64, 74
1, 145944, Note_off_c, 0, 61, 63
1, 145948, Note_off_c, 0, 65, 63
1, 145957, Control_c, 0, 64, 88
1, 145972, Control_c, 0, 64, 127
1, 145976, Note_off_c, 0, 68, 64
1, 145999, Note_on_c, 0, 99, 65
1, 146076, Note_off_c, 0, 99, 60
1, 146085, Note_on_c, 0, 97, 61
1, 146157, Note_on_c, 0, 92, 59
1, 146162, Note_off_c, 0, 97, 63
1, 146201, Note_off_c, 0, 92, 61
1, 146222, Note_on_c, 0, 89, 69
1, 146223, Note_on_c, 0, 75, 67
1, 146253, Note_off_c, 0, 89, 65
1, 146255, Note_on_c, 0, 71, 38
1, 146291, Note_off_c, 0, 71, 50
1, 146303, Note_off_c, 0, 75, 62
1, 146321, Note_on_c, 0, 87, 63
1, 146383, Note_on_c, 0, 85, 60
1, 146402, Note_off_c, 0, 87, 58
1, 146454, Note_off_c, 0, 85, 66
1, 146460, Note_on_c, 0, 80, 64
1, 146504, Note_off_c, 0, 80, 59
1, 146514, Note_on_c, 0, 73, 63
1, 146525, Note_on_c, 0, 70, 53
1, 146534, Note_on_c, 0, 77, 66
1, 146544, Note_off_c, 0, 73, 67
1, 146547, Note_off_c, 0, 70, 63
1, 146566, Note_off_c, 0, 77, 65
1, 146615, Note_on_c, 0, 75, 62
1, 146678, Note_off_c, 0, 75, 62
1, 146684, Note_on_c, 0, 73, 66
1, 146755, Note_on_c, 0, 75, 45
1, 146756, Note_off_c, 0, 73, 60
1, 146786, Note_off_c, 0, 75, 62
1, 146802, Note_on_c, 0, 77, 72
1, 146818, Note_on_c, 0, 71, 57
1, 146827, Note_on_c, 0, 68, 63
1, 146872, Note_off_c, 0, 77, 54
1, 146890, Note_on_c, 0, 80, 69
1, 146890, Note_off_c, 0, 71, 59
1, 146924, Note_off_c, 0, 68, 49
1, 146964, Note_off_c, 0, 80, 63
1, 146975, Note_on_c, 0, 85, 62
1, 147048, Note_on_c, 0, 87, 60
1, 147052, Note_off_c, 0, 85, 61
1, 147106, Note_off_c, 0, 87, 61
1, 147122, Note_on_c, 0, 70, 56
1, 147128, Note_on_c, 0, 66, 54
1, 147129, Note_on_c, 0, 85, 58
1, 147170, Note_off_c, 0, 85, 62
1, 147176, Note_off_c, 0, 66, 55
1, 147192, Note_on_c, 0, 87, 68
1, 147209, Note_off_c, 0, 70, 51
1, 147218, Note_off_c, 0, 87, 68
1, 147262, Note_on_c, 0, 85, 58
1, 147280, Note_off_c, 0, 85, 64
1, 147301, Note_on_c, 0, 87, 65
1, 147329, Note_off_c, 0, 87, 65
1, 147352, Note_on_c, 0, 85, 69
1, 147377, Note_off_c, 0, 85, 68
1, 147396, Note_on_c, 0, 87, 64
1, 147418, Note_on_c, 0, 68, 54
1, 147421, Note_on_c, 0, 65, 52
1, 147452, Note_off_c, 0, 68, 64
1, 147453, Note_off_c, 0, 65, 65
1, 147476, Note_off_c, 0, 87, 63
1, 147500, Note_on_c, 0, 85, 46
1, 147531, Note_off_c, 0, 85, 67
1, 147536, Note_on_c, 0, 84, 61
1, 147588, Note_off_c, 0, 84, 62
1, 147629, Note_on_c, 0, 54, 54
1, 147673, Note_on_c, 0, 63, 58
1, 147706, Control_c, 0, 64, 82
1, 147721, Control_c, 0, 64, 62
1, 147731, Note_on_c, 0, 66, 60
1, 147736, Control_c, 0, 64, 47
1, 147750, Control_c, 0, 64, 49
1, 147765, Control_c, 0, 64, 57
1, 147778, Note_off_c, 0, 54, 65
1, 147787, Control_c, 0, 64, 64
1, 147793, Note_off_c, 0, 63, 63
1, 147796, Note_off_c, 0, 66, 63
1, 147802, Control_c, 0, 64, 68
1, 147817, Control_c, 0, 64, 71
1, 147833, Control_c, 0, 64, 72
1, 147847, Note_on_c, 0, 99, 64
1, 147862, Control_c, 0, 64, 73
1, 147877, Control_c, 0, 64, 76
1, 147892, Control_c, 0, 64, 83
1, 147906, Note_off_c, 0, 99, 62
1, 147907, Control_c, 0, 64, 95
1, 147912, Note_on_c, 0, 97, 58
1, 147922, Control_c, 0, 64, 112
1, 147936, Control_c, 0, 64, 127
1, 147955, Note_off_c, 0, 97, 62
1, 147986, Note_on_c, 0, 90, 62
1, 148014, Note_off_c, 0, 90, 67
1, 148026, Control_c, 0, 64, 125
1, 148029, Note_on_c, 0, 73, 58
1, 148034, Note_on_c, 0, 70, 61
1, 148040, Control_c, 0, 64, 122
1, 148055, Control_c, 0, 64, 125
1, 148064, Note_on_c, 0, 87, 67
1, 148064, Note_off_c, 0, 73, 63
1, 148064, Note_off_c, 0, 70, 67
1, 148070, Control_c, 0, 64, 127
1, 148124, Note_off_c, 0, 87, 64
1, 148127, Note_on_c, 0, 85, 62
1, 148158, Control_c, 0, 64, 122
1, 148166, Note_off_c, 0, 85, 63
1, 148172, Control_c, 0, 64, 120
1, 148184, Note_on_c, 0, 87, 60
1, 148232, Control_c, 0, 64, 117
1, 148252, Note_off_c, 0, 87, 63
1, 148256, Note_on_c, 0, 85, 68
1, 148290, Note_off_c, 0, 85, 65
1, 148318, Note_on_c, 0, 71, 63
1, 148322, Note_on_c, 0, 68, 58
1, 148326, Note_on_c, 0, 78, 69
1, 148354, Note_off_c, 0, 78, 68
1, 148362, Note_off_c, 0, 68, 61
1, 148365, Note_off_c, 0, 71, 60
1, 148401, Note_on_c, 0, 75, 63
1, 148410, Control_c, 0, 64, 116
1, 148425, Control_c, 0, 64, 115
1, 148447, Note_off_c, 0, 75, 61
1, 148466, Note_on_c, 0, 73, 62
1, 148507, Note_off_c, 0, 73, 62
1, 148529, Note_on_c, 0, 75, 56
1, 148535, Control_c, 0, 64, 116
1, 148550, Control_c, 0, 64, 117
1, 148560, Note_off_c, 0, 75, 64
1, 148610, Note_on_c, 0, 66, 50
1, 148613, Note_on_c, 0, 78, 73
1, 148625, Note_on_c, 0, 70, 49
1, 148666, Note_off_c, 0, 78, 55
1, 148689, Note_off_c, 0, 66, 57
1, 148699, Control_c, 0, 64, 119
1, 148702, Note_on_c, 0, 85, 60
1, 148710, Note_off_c, 0, 70, 50
1, 148714, Control_c, 0, 64, 120
1, 148762, Note_off_c, 0, 85, 64
1, 148767, Note_on_c, 0, 87, 69
1, 148774, Control_c, 0, 64, 119
1, 148800, Note_off_c, 0, 87, 62
1, 148833, Control_c, 0, 64, 120
1, 148848, Control_c, 0, 64, 125
1, 148851, Note_on_c, 0, 85, 61
1, 148863, Control_c, 0, 64, 127
1, 148875, Note_off_c, 0, 85, 65
1, 148903, Note_on_c, 0, 68, 49
1, 148908, Note_on_c, 0, 87, 51
1, 148911, Note_on_c, 0, 65, 55
1, 148929, Note_off_c, 0, 87, 59
1, 148949, Note_off_c, 0, 65, 65
1, 148950, Note_on_c, 0, 85, 71
1, 148956, Note_off_c, 0, 68, 62
1, 148975, Note_off_c, 0, 85, 67
1, 149003, Note_on_c, 0, 87, 72
1, 149027, Note_off_c, 0, 87, 70
1, 149058, Note_on_c, 0, 85, 71
1, 149085, Note_off_c, 0, 85, 66
1, 149106, Note_on_c, 0, 87, 74
1, 149130, Note_off_c, 0, 87, 67
1, 149176, Note_on_c, 0, 54, 53
1, 149178, Note_on_c, 0, 85, 51
1, 149195, Note_on_c, 0, 66, 35
1, 149197, Note_on_c, 0, 63, 42
1, 149197, Note_off_c, 0, 85, 61
1, 149212, Note_on_c, 0, 87, 58
1, 149225, Note_off_c, 0, 66, 52
1, 149227, Note_off_c, 0, 63, 58
1, 149232, Note_off_c, 0, 87, 61
1, 149233, Note_off_c, 0, 54, 60
1, 149254, Note_on_c, 0, 85, 78
1, 149283, Note_off_c, 0, 85, 71
1, 149323, Note_on_c, 0, 84, 68
1, 149349, Note_off_c, 0, 84, 67
1, 149364, Note_on_c, 0, 85, 73
1, 149383, Note_off_c, 0, 85, 66
1, 149424, Note_on_c, 0, 54, 45
1, 149491, Note_on_c, 0, 61, 54
1, 149537, Control_c, 0, 64, 113
1, 149552, Control_c, 0, 64, 73
1, 149563, Note_on_c, 0, 65, 64
1, 149567, Control_c, 0, 64, 56
1, 149582, Control_c, 0, 64, 41
1, 149612, Control_c, 0, 64, 52
1, 149626, Control_c, 0, 64, 62
1, 149641, Control_c, 0, 64, 68
1, 149651, Note_on_c, 0, 99, 64
1, 149656, Control_c, 0, 64, 79
1, 149670, Note_off_c, 0, 54, 59
1, 149671, Control_c, 0, 64, 94
1, 149686, Control_c, 0, 64, 109
1, 149690, Note_off_c, 0, 61, 63
1, 149701, Control_c, 0, 64, 127
1, 149701, Note_off_c, 0, 65, 63
1, 149728, Note_on_c, 0, 97, 65
1, 149733, Note_off_c, 0, 99, 57
1, 149796, Note_off_c, 0, 97, 64
1, 149817, Note_on_c, 0, 89, 56
1, 149843, Note_off_c, 0, 89, 64
1, 149907, Note_on_c, 0, 71, 72
1, 149907, Note_on_c, 0, 87, 62
1, 149913, Note_on_c, 0, 68, 55
1, 149974, Note_off_c, 0, 87, 64
1, 149982, Note_on_c, 0, 85, 62
1, 150023, Note_off_c, 0, 85, 66
1, 150023, Note_off_c, 0, 71, 61
1, 150047, Note_on_c, 0, 87, 59
1, 150077, Note_off_c, 0, 68, 46
1, 150119, Note_off_c, 0, 87, 63
1, 150126, Note_on_c, 0, 85, 63
1, 150154, Note_off_c, 0, 85, 69
1, 150199, Note_on_c, 0, 70, 62
1, 150204, Note_on_c, 0, 77, 60
1, 150210, Note_on_c, 0, 66, 54
1, 150247, Note_off_c, 0, 77, 58
1, 150289, Note_on_c, 0, 75, 53
1, 150315, Note_off_c, 0, 70, 59
1, 150327, Note_off_c, 0, 75, 63
1, 150339, Note_on_c, 0, 73, 62
1, 150369, Note_off_c, 0, 66, 51
1, 150401, Note_off_c, 0, 73, 64
1, 150410, Note_on_c, 0, 75, 67
1, 150442, Note_off_c, 0, 75, 65
1, 150473, Note_on_c, 0, 65, 57
1, 150476, Note_on_c, 0, 68, 50
1, 150476, Note_on_c, 0, 77, 71
1, 150539, Note_off_c, 0, 77, 59
1, 150568, Note_off_c, 0, 68, 55
1, 150570, Note_on_c, 0, 85, 66
1, 150598, Note_off_c, 0, 65, 57
1, 150634, Note_off_c, 0, 85, 64
1, 150643, Note_on_c, 0, 87, 64
1, 150692, Note_off_c, 0, 87, 57
1, 150720, Note_on_c, 0, 85, 60
1, 150754, Note_off_c, 0, 85, 65
1, 150774, Note_on_c, 0, 66, 45
1, 150780, Note_on_c, 0, 63, 53
1, 150785, Note_on_c, 0, 87, 64
1, 150809, Note_off_c, 0, 87, 65
1, 150822, Note_off_c, 0, 66, 62
1, 150827, Note_off_c, 0, 63, 61
1, 150848, Note_on_c, 0, 85, 58
1, 150866, Note_off_c, 0, 85, 64
1, 150886, Note_on_c, 0, 87, 71
1, 150911, Note_off_c, 0, 87, 68
1, 150937, Note_on_c, 0, 85, 74
1, 150965, Note_off_c, 0, 85, 64
1, 150990, Note_on_c, 0, 87, 75
1, 151019, Note_off_c, 0, 87, 62
1, 151048, Note_on_c, 0, 61, 48
1, 151053, Note_on_c, 0, 54, 49
1, 151055, Note_on_c, 0, 65, 50
1, 151074, Note_on_c, 0, 85, 31
1, 151094, Note_on_c, 0, 87, 66
1, 151094, Note_off_c, 0, 65, 63
1, 151105, Note_off_c, 0, 54, 61
1, 151105, Note_off_c, 0, 85, 52
1, 151106, Note_off_c, 0, 61, 56
1, 151111, Note_off_c, 0, 87, 67
1, 151133, Note_on_c, 0, 85, 65
1, 151164, Note_off_c, 0, 85, 65
1, 151197, Note_on_c, 0, 84, 68
1, 151223, Note_off_c, 0, 84, 67
1, 151239, Note_on_c, 0, 85, 60
1, 151256, Note_off_c, 0, 85, 64
1, 151276, Note_on_c, 0, 54, 45
1, 151298, Note_on_c, 0, 59, 59
1, 151409, Note_on_c, 0, 63, 61
1, 151436, Control_c, 0, 64, 81
1, 151451, Control_c, 0, 64, 66
1, 151466, Control_c, 0, 64, 59
1, 151495, Control_c, 0, 64, 62
1, 151510, Control_c, 0, 64, 66
1, 151525, Note_off_c, 0, 59, 63
1, 151531, Control_c, 0, 64, 70
1, 151532, Note_off_c, 0, 54, 64
1, 151533, Note_on_c, 0, 99, 62
1, 151546, Control_c, 0, 64, 76
1, 151561, Control_c, 0, 64, 83
1, 151573, Note_off_c, 0, 63, 63
1, 151576, Control_c, 0, 64, 88
1, 151591, Control_c, 0, 64, 91
1, 151600, Note_on_c, 0, 97, 65
1, 151603, Note_off_c, 0, 99, 60
1, 151606, Control_c, 0, 64, 93
1, 151621, Control_c, 0, 64, 96
1, 151636, Control_c, 0, 64, 111
1, 151651, Control_c, 0, 64, 127
1, 151653, Note_off_c, 0, 97, 62
1, 151677, Note_on_c, 0, 87, 69
1, 151704, Note_off_c, 0, 87, 68
1, 151749, Note_on_c, 0, 70, 56
1, 151749, Note_on_c, 0, 66, 44
1, 151765, Note_on_c, 0, 87, 55
1, 151796, Note_off_c, 0, 87, 50
1, 151813, Note_on_c, 0, 85, 72
1, 151857, Note_off_c, 0, 70, 61
1, 151869, Note_off_c, 0, 85, 61
1, 151877, Note_on_c, 0, 87, 80
1, 151895, Note_off_c, 0, 66, 54
1, 151948, Note_on_c, 0, 85, 69
1, 151954, Note_off_c, 0, 87, 61
1, 152001, Note_off_c, 0, 85, 63
1, 152019, Note_on_c, 0, 68, 55
1, 152025, Note_on_c, 0, 65, 51
1, 152032, Note_on_c, 0, 75, 66
1, 152062, Note_off_c, 0, 75, 67
1, 152094, Note_off_c, 0, 68, 48
1, 152100, Note_on_c, 0, 73, 72
1, 152109, Note_off_c, 0, 65, 53
1, 152151, Note_off_c, 0, 73, 63
1, 152170, Note_on_c, 0, 75, 65
1, 152229, Note_on_c, 0, 73, 62
1, 152229, Note_off_c, 0, 75, 60
1, 152263, Note_off_c, 0, 73, 67
1, 152312, Note_on_c, 0, 75, 61
1, 152321, Note_on_c, 0, 63, 47
1, 152330, Note_on_c, 0, 66, 48
1, 152390, Note_off_c, 0, 75, 58
1, 152404, Note_off_c, 0, 63, 54
1, 152415, Note_on_c, 0, 85, 61
1, 152417, Note_off_c, 0, 66, 58
1, 152479, Note_off_c, 0, 85, 63
1, 152490, Note_on_c, 0, 87, 58
1, 152529, Note_off_c, 0, 87, 61
1, 152567, Note_on_c, 0, 85, 60
1, 152592, Note_off_c, 0, 85, 64
1, 152631, Note_on_c, 0, 87, 58
1, 152632, Note_on_c, 0, 61, 46
1, 152649, Note_off_c, 0, 87, 63
1, 152652, Note_on_c, 0, 65, 10
1, 152673, Note_on_c, 0, 85, 70
1, 152692, Note_off_c, 0, 61, 61
1, 152697, Note_off_c, 0, 65, 39
1, 152701, Note_off_c, 0, 85, 67
1, 152729, Note_on_c, 0, 87, 68
1, 152756, Note_off_c, 0, 87, 68
1, 152781, Note_on_c, 0, 85, 76
1, 152810, Note_off_c, 0, 85, 61
1, 152837, Note_on_c, 0, 87, 74
1, 152865, Note_off_c, 0, 87, 63
1, 152899, Note_on_c, 0, 63, 39
1, 152908, Note_on_c, 0, 59, 52
1, 152908, Note_on_c, 0, 85, 48
1, 152909, Note_on_c, 0, 54, 42
1, 152930, Note_off_c, 0, 85, 60
1, 152937, Note_on_c, 0, 87, 68
1, 152953, Note_off_c, 0, 87, 67
1, 152956, Note_off_c, 0, 54, 56
1, 152956, Note_off_c, 0, 59, 61
1, 152958, Note_off_c, 0, 63, 60
1, 152979, Note_on_c, 0, 85, 71
1, 153009, Note_off_c, 0, 85, 65
1, 153049, Note_on_c, 0, 84, 67
1, 153078, Note_off_c, 0, 84, 65
1, 153087, Note_on_c, 0, 85, 47
1, 153108, Note_off_c, 0, 85, 59
1, 153153, Note_on_c, 0, 56, 40
1, 153156, Note_on_c, 0, 54, 49
1, 153210, Note_on_c, 0, 59, 54
1, 153251, Control_c, 0, 64, 79
1, 153266, Control_c, 0, 64, 63
1, 153281, Control_c, 0, 64, 54
1, 153284, Note_on_c, 0, 65, 48
1, 153296, Control_c, 0, 64, 56
1, 153311, Control_c, 0, 64, 60
1, 153326, Control_c, 0, 64, 66
1, 153341, Control_c, 0, 64, 72
1, 153346, Note_off_c, 0, 54, 63
1, 153356, Control_c, 0, 64, 80
1, 153364, Note_on_c, 0, 99, 66
1, 153370, Control_c, 0, 64, 87
1, 153385, Note_off_c, 0, 59, 61
1, 153385, Control_c, 0, 64, 91
1, 153400, Control_c, 0, 64, 92
1, 153400, Control_c, 0, 67, 8
1, 153415, Control_c, 0, 64, 96
1, 153421, Note_off_c, 0, 56, 63
1, 153431, Control_c, 0, 64, 115
1, 153446, Control_c, 0, 64, 127
1, 153446, Control_c, 0, 67, 9
1, 153457, Note_off_c, 0, 99, 61
1, 153461, Control_c, 0, 67, 9
1, 153467, Note_on_c, 0, 97, 54
1, 153490, Control_c, 0, 67, 10
1, 153513, Note_off_c, 0, 65, 53
1, 153516, Note_off_c, 0, 97, 63
1, 153547, Note_on_c, 0, 87, 45
1, 153579, Note_off_c, 0, 87, 63
1, 153647, Note_on_c, 0, 70, 75
1, 153686, Note_on_c, 0, 87, 24
1, 153728, Note_off_c, 0, 87, 50
1, 153738, Note_on_c, 0, 85, 54
1, 153789, Note_off_c, 0, 85, 65
1, 153821, Note_on_c, 0, 87, 56
1, 153866, Note_off_c, 0, 87, 48
1, 153883, Note_on_c, 0, 85, 65
1, 153908, Note_off_c, 0, 70, 59
1, 153925, Note_off_c, 0, 85, 61
1, 153966, Note_on_c, 0, 75, 54
1, 153978, Note_on_c, 0, 68, 71
1, 154008, Note_off_c, 0, 75, 56
1, 154056, Note_on_c, 0, 73, 57
1, 154095, Note_off_c, 0, 73, 64
1, 154104, Control_c, 0, 67, 11
1, 154118, Note_on_c, 0, 75, 54
1, 154148, Control_c, 0, 67, 11
1, 154174, Note_off_c, 0, 68, 59
1, 154177, Note_off_c, 0, 75, 53
1, 154193, Note_on_c, 0, 73, 47
1, 154223, Control_c, 0, 67, 12
1, 154230, Note_off_c, 0, 73, 65
1, 154272, Note_on_c, 0, 66, 56
1, 154276, Note_on_c, 0, 75, 58
1, 154312, Control_c, 0, 67, 12
1, 154357, Note_off_c, 0, 75, 54
1, 154384, Note_on_c, 0, 85, 50
1, 154387, Control_c, 0, 67, 13
1, 154452, Note_off_c, 0, 66, 53
1, 154456, Note_off_c, 0, 85, 64
1, 154468, Note_on_c, 0, 87, 52
1, 154527, Control_c, 0, 67, 14
1, 154536, Note_off_c, 0, 87, 62
1, 154560, Note_on_c, 0, 85, 52
1, 154572, Note_on_c, 0, 65, 55
1, 154572, Control_c, 0, 67, 14
1, 154609, Note_off_c, 0, 85, 61
1, 154622, Note_on_c, 0, 87, 51
1, 154646, Control_c, 0, 67, 15
1, 154654, Note_off_c, 0, 87, 64
1, 154676, Control_c, 0, 67, 17
1, 154687, Note_on_c, 0, 85, 56
1, 154690, Control_c, 0, 67, 28
1, 154705, Control_c, 0, 67, 37
1, 154717, Note_off_c, 0, 85, 66
1, 154720, Control_c, 0, 67, 40
1, 154735, Control_c, 0, 67, 42
1, 154738, Note_on_c, 0, 87, 60
1, 154749, Control_c, 0, 67, 43
1, 154764, Control_c, 0, 67, 44
1, 154766, Note_off_c, 0, 87, 65
1, 154779, Control_c, 0, 67, 44
1, 154794, Control_c, 0, 67, 46
1, 154795, Note_on_c, 0, 85, 63
1, 154809, Control_c, 0, 67, 47
1, 154813, Note_off_c, 0, 85, 66
1, 154822, Control_c, 0, 67, 51
1, 154837, Control_c, 0, 67, 55
1, 154839, Note_on_c, 0, 87, 69
1, 154850, Note_on_c, 0, 63, 43
1, 154852, Control_c, 0, 67, 57
1, 154855, Note_on_c, 0, 59, 39
1, 154867, Control_c, 0, 67, 59
1, 154870, Note_off_c, 0, 87, 60
1, 154871, Note_on_c, 0, 54, 43
1, 154871, Note_off_c, 0, 65, 44
1, 154881, Note_on_c, 0, 56, 49
1, 154882, Control_c, 0, 67, 59
1, 154888, Note_off_c, 0, 63, 57
1, 154910, Note_on_c, 0, 85, 30
1, 154911, Control_c, 0, 67, 60
1, 154915, Note_on_c, 0, 87, 53
1, 154919, Note_off_c, 0, 59, 63
1, 154928, Note_off_c, 0, 56, 58
1, 154933, Note_off_c, 0, 54, 61
1, 154938, Note_off_c, 0, 87, 63
1, 154953, Note_off_c, 0, 85, 0
1, 154963, Note_on_c, 0, 85, 66
1, 154986, Control_c, 0, 67, 61
1, 154999, Note_off_c, 0, 85, 64
1, 155001, Control_c, 0, 67, 61
1, 155028, Note_on_c, 0, 84, 68
1, 155060, Note_off_c, 0, 84, 65
1, 155066, Note_on_c, 0, 85, 71
1, 155085, Note_on_c, 0, 54, 44
1, 155091, Note_off_c, 0, 85, 70
1, 155104, Note_on_c, 0, 56, 46
1, 155135, Control_c, 0, 67, 62
1, 155150, Control_c, 0, 67, 62
1, 155171, Note_on_c, 0, 59, 65
1, 155180, Control_c, 0, 64, 112
1, 155195, Control_c, 0, 64, 70
1, 155210, Control_c, 0, 64, 57
1, 155210, Control_c, 0, 67, 65
1, 155224, Control_c, 0, 64, 49
1, 155224, Control_c, 0, 67, 71
1, 155239, Control_c, 0, 64, 51
1, 155239, Control_c, 0, 67, 73
1, 155254, Control_c, 0, 64, 58
1, 155254, Control_c, 0, 67, 74
1, 155254, Note_on_c, 0, 65, 48
1, 155276, Control_c, 0, 64, 64
1, 155291, Control_c, 0, 64, 69
1, 155291, Control_c, 0, 67, 74
1, 155306, Control_c, 0, 64, 76
1, 155320, Control_c, 0, 64, 83
1, 155320, Control_c, 0, 67, 75
1, 155326, Note_off_c, 0, 59, 64
1, 155329, Note_on_c, 0, 99, 60
1, 155335, Control_c, 0, 64, 88
1, 155339, Note_off_c, 0, 54, 64
1, 155350, Control_c, 0, 64, 93
1, 155359, Note_off_c, 0, 56, 63
1, 155365, Control_c, 0, 64, 100
1, 155379, Control_c, 0, 64, 110
1, 155379, Control_c, 0, 67, 76
1, 155394, Control_c, 0, 64, 127
1, 155394, Control_c, 0, 67, 76
1, 155413, Note_off_c, 0, 99, 61
1, 155420, Note_on_c, 0, 97, 45
1, 155424, Control_c, 0, 67, 77
1, 155454, Control_c, 0, 67, 77
1, 155465, Note_off_c, 0, 97, 55
1, 155484, Control_c, 0, 67, 78
1, 155490, Note_on_c, 0, 87, 60
1, 155499, Control_c, 0, 67, 82
1, 155513, Control_c, 0, 67, 87
1, 155522, Note_off_c, 0, 87, 67
1, 155528, Control_c, 0, 67, 90
1, 155543, Control_c, 0, 67, 91
1, 155548, Note_on_c, 0, 70, 65
1, 155558, Control_c, 0, 67, 92
1, 155573, Note_off_c, 0, 65, 34
1, 155588, Note_on_c, 0, 87, 62
1, 155644, Note_off_c, 0, 87, 61
1, 155645, Note_on_c, 0, 85, 64
1, 155661, Control_c, 0, 67, 92
1, 155699, Note_off_c, 0, 85, 60
1, 155709, Note_on_c, 0, 87, 62
1, 155773, Note_on_c, 0, 85, 68
1, 155785, Note_off_c, 0, 87, 59
1, 155820, Note_off_c, 0, 70, 58
1, 155835, Note_off_c, 0, 85, 64
1, 155844, Note_on_c, 0, 68, 68
1, 155866, Note_on_c, 0, 75, 65
1, 155884, Control_c, 0, 67, 93
1, 155901, Note_off_c, 0, 75, 61
1, 155941, Note_on_c, 0, 73, 71
1, 155988, Control_c, 0, 67, 94
1, 155996, Note_off_c, 0, 73, 63
1, 156024, Note_on_c, 0, 75, 65
1, 156054, Note_off_c, 0, 68, 59
1, 156055, Control_c, 0, 67, 94
1, 156083, Note_on_c, 0, 73, 57
1, 156085, Note_off_c, 0, 75, 54
1, 156114, Control_c, 0, 67, 95
1, 156125, Note_off_c, 0, 73, 62
1, 156154, Note_on_c, 0, 66, 71
1, 156163, Note_on_c, 0, 75, 67
1, 156173, Control_c, 0, 67, 95
1, 156187, Control_c, 0, 67, 96
1, 156202, Control_c, 0, 67, 99
1, 156217, Control_c, 0, 67, 107
1, 156232, Control_c, 0, 67, 113
1, 156247, Control_c, 0, 67, 117
1, 156256, Note_off_c, 0, 75, 55
1, 156262, Control_c, 0, 67, 122
1, 156273, Note_on_c, 0, 85, 53
1, 156277, Control_c, 0, 67, 125
1, 156292, Control_c, 0, 67, 127
1, 156336, Note_off_c, 0, 85, 59
1, 156345, Note_on_c, 0, 87, 57
1, 156356, Note_off_c, 0, 66, 56
1, 156397, Note_off_c, 0, 87, 59
1, 156443, Note_on_c, 0, 85, 55
1, 156459, Note_on_c, 0, 65, 55
1, 156479, Note_off_c, 0, 85, 66
1, 156504, Note_on_c, 0, 87, 59
1, 156524, Note_off_c, 0, 87, 64
1, 156566, Note_on_c, 0, 85, 55
1, 156587, Note_off_c, 0, 85, 60
1, 156613, Note_on_c, 0, 87, 59
1, 156643, Note_off_c, 0, 87, 65
1, 156667, Note_on_c, 0, 85, 65
1, 156697, Note_off_c, 0, 85, 67
1, 156717, Note_on_c, 0, 87, 67
1, 156745, Note_off_c, 0, 87, 68
1, 156772, Note_on_c, 0, 59, 36
1, 156783, Note_on_c, 0, 63, 43
1, 156786, Note_on_c, 0, 56, 57
1, 156790, Note_off_c, 0, 65, 59
1, 156791, Note_on_c, 0, 54, 42
1, 156825, Note_off_c, 0, 63, 57
1, 156827, Note_on_c, 0, 87, 65
1, 156843, Note_off_c, 0, 59, 62
1, 156845, Note_off_c, 0, 87, 66
1, 156861, Note_off_c, 0, 54, 61
1, 156865, Note_on_c, 0, 85, 55
1, 156867, Note_off_c, 0, 56, 63
1, 156903, Note_off_c, 0, 85, 64
1, 156939, Note_on_c, 0, 84, 64
1, 156969, Note_off_c, 0, 84, 64
1, 156991, Note_on_c, 0, 85, 38
1, 157002, Note_on_c, 0, 54, 52
1, 157019, Note_off_c, 0, 85, 51
1, 157037, Note_on_c, 0, 56, 46
1, 157117, Note_on_c, 0, 59, 64
1, 157219, Control_c, 0, 64, 112
1, 157231, Note_on_c, 0, 65, 75
1, 157234, Control_c, 0, 64, 76
1, 157248, Control_c, 0, 64, 64
1, 157263, Control_c, 0, 64, 59
1, 157271, Poly_aftertouch_c, 0, 58, 127
1, 157293, Control_c, 0, 64, 62
1, 157294, Note_on_c, 0, 99, 66
1, 157308, Control_c, 0, 64, 66
1, 157323, Control_c, 0, 64, 68
1, 157337, Control_c, 0, 64, 71
1, 157352, Control_c, 0, 64, 73
1, 157367, Control_c, 0, 64, 79
1, 157373, Note_on_c, 0, 97, 63
1, 157377, Note_off_c, 0, 99, 62
1, 157382, Control_c, 0, 64, 91
1, 157397, Control_c, 0, 64, 127
1, 157432, Note_off_c, 0, 97, 63
1, 157453, Note_on_c, 0, 87, 69
1, 157478, Note_off_c, 0, 87, 69
1, 157543, Note_on_c, 0, 87, 65
1, 157604, Note_on_c, 0, 85, 74
1, 157628, Note_off_c, 0, 87, 61
1, 157650, Note_off_c, 0, 54, 58
1, 157651, Note_off_c, 0, 85, 62
1, 157662, Note_off_c, 0, 65, 55
1, 157678, Note_on_c, 0, 75, 75
1, 157705, Note_off_c, 0, 75, 68
1, 157708, Note_off_c, 0, 56, 56
1, 157732, Poly_aftertouch_c, 0, 58, 0
1, 157746, Note_on_c, 0, 75, 70
1, 157758, Note_off_c, 0, 59, 54
1, 157791, Note_off_c, 0, 75, 61
1, 157815, Note_on_c, 0, 73, 72
1, 157851, Note_off_c, 0, 73, 62
1, 157874, Note_on_c, 0, 75, 58
1, 157895, Note_off_c, 0, 75, 58
1, 157913, Note_on_c, 0, 54, 52
1, 157934, Note_on_c, 0, 56, 56
1, 157936, Note_on_c, 0, 75, 67
1, 158000, Note_on_c, 0, 59, 57
1, 158003, Note_off_c, 0, 75, 61
1, 158025, Note_on_c, 0, 85, 65
1, 158069, Note_on_c, 0, 65, 52
1, 158101, Note_on_c, 0, 87, 73
1, 158110, Note_off_c, 0, 85, 64
1, 158125, Note_off_c, 0, 87, 69
1, 158167, Note_on_c, 0, 87, 82
1, 158245, Note_on_c, 0, 97, 63
1, 158297, Note_off_c, 0, 97, 61
1, 158304, Note_on_c, 0, 99, 81
1, 158374, Note_off_c, 0, 99, 64
1, 158375, Note_on_c, 0, 97, 69
1, 158377, Note_off_c, 0, 87, 35
1, 158404, Note_off_c, 0, 97, 67
1, 158437, Note_on_c, 0, 87, 70
1, 158462, Note_off_c, 0, 87, 66
1, 158491, Note_off_c, 0, 54, 37
1, 158503, Note_off_c, 0, 65, 39
1, 158513, Note_off_c, 0, 56, 54
1, 158540, Note_on_c, 0, 86, 50
1, 158555, Note_off_c, 0, 59, 61
1, 158563, Note_on_c, 0, 85, 47
1, 158581, Note_off_c, 0, 86, 66
1, 158584, Note_off_c, 0, 85, 57
1, 158617, Note_on_c, 0, 84, 9
1, 158646, Note_on_c, 0, 75, 72
1, 158661, Note_off_c, 0, 84, 35
1, 158681, Note_off_c, 0, 75, 0
1, 158718, Poly_aftertouch_c, 0, 75, 127
1, 158755, Poly_aftertouch_c, 0, 75, 0
1, 158766, Note_on_c, 0, 54, 45
1, 158772, Note_on_c, 0, 56, 50
1, 158778, Note_on_c, 0, 73, 69
1, 158819, Note_off_c, 0, 73, 62
1, 158840, Note_on_c, 0, 59, 54
1, 158856, Note_on_c, 0, 75, 46
1, 158883, Note_off_c, 0, 75, 0
1, 158883, Note_on_c, 0, 75, 47
1, 158891, Note_on_c, 0, 65, 54
1, 158948, Note_off_c, 0, 75, 61
1, 158969, Note_on_c, 0, 85, 65
1, 159045, Note_on_c, 0, 87, 73
1, 159046, Note_off_c, 0, 85, 64
1, 159067, Note_off_c, 0, 87, 69
1, 159106, Note_on_c, 0, 87, 81
1, 159179, Note_on_c, 0, 97, 69
1, 159210, Note_off_c, 0, 87, 44
1, 159217, Note_off_c, 0, 97, 61
1, 159238, Note_on_c, 0, 99, 77
1, 159311, Note_off_c, 0, 99, 61
1, 159315, Note_on_c, 0, 97, 69
1, 159344, Note_off_c, 0, 97, 67
1, 159380, Note_on_c, 0, 87, 75
1, 159386, Note_off_c, 0, 54, 41
1, 159389, Note_off_c, 0, 65, 52
1, 159399, Note_off_c, 0, 56, 62
1, 159402, Note_off_c, 0, 87, 70
1, 159431, Note_off_c, 0, 59, 62
1, 159452, Note_on_c, 0, 87, 65
1, 159519, Note_on_c, 0, 85, 69
1, 159529, Note_off_c, 0, 87, 61
1, 159548, Note_off_c, 0, 85, 66
1, 159586, Note_on_c, 0, 75, 71
1, 159610, Note_off_c, 0, 75, 68
1, 159644, Note_on_c, 0, 54, 45
1, 159660, Note_on_c, 0, 75, 69
1, 159662, Note_on_c, 0, 56, 50
1, 159704, Note_off_c, 0, 75, 59
1, 159705, Note_on_c, 0, 59, 56
1, 159717, Control_c, 0, 64, 108
1, 159729, Note_on_c, 0, 73, 77
1, 159732, Control_c, 0, 64, 94
1, 159746, Note_on_c, 0, 65, 62
1, 159746, Control_c, 0, 64, 96
1, 159768, Control_c, 0, 64, 103
1, 159776, Note_off_c, 0, 73, 61
1, 159783, Control_c, 0, 64, 127
1, 159818, Note_on_c, 0, 75, 45
1, 159845, Note_off_c, 0, 75, 0
1, 159852, Poly_aftertouch_c, 0, 75, 0
1, 159861, Note_on_c, 0, 75, 59
1, 159900, Note_off_c, 0, 75, 61
1, 159937, Note_on_c, 0, 85, 66
1, 160006, Note_off_c, 0, 85, 62
1, 160010, Note_on_c, 0, 87, 71
1, 160035, Note_off_c, 0, 87, 69
1, 160077, Note_on_c, 0, 87, 72
1, 160107, Note_off_c, 0, 87, 60
1, 160153, Note_on_c, 0, 97, 61
1, 160192, Note_off_c, 0, 97, 63
1, 160208, Note_on_c, 0, 99, 61
1, 160241, Note_off_c, 0, 99, 64
1, 160286, Note_on_c, 0, 97, 57
1, 160315, Note_off_c, 0, 97, 61
1, 160342, Note_on_c, 0, 99, 62
1, 160372, Note_off_c, 0, 99, 61
1, 160410, Note_on_c, 0, 97, 68
1, 160441, Note_off_c, 0, 97, 64
1, 160476, Note_on_c, 0, 99, 66
1, 160513, Note_off_c, 0, 99, 66
1, 160545, Note_on_c, 0, 97, 72
1, 160551, Note_off_c, 0, 54, 63
1, 160578, Note_off_c, 0, 97, 63
1, 160584, Note_off_c, 0, 56, 63
1, 160584, Note_off_c, 0, 59, 61
1, 160605, Note_on_c, 0, 99, 67
1, 160611, Note_off_c, 0, 65, 62
1, 160637, Note_off_c, 0, 99, 65
1, 160675, Note_on_c, 0, 97, 62
1, 160700, Note_off_c, 0, 97, 62
1, 160732, Note_on_c, 0, 99, 64
1, 160763, Note_off_c, 0, 99, 66
1, 160793, Note_on_c, 0, 97, 57
1, 160834, Note_off_c, 0, 97, 63
1, 160853, Note_on_c, 0, 99, 64
1, 160886, Note_off_c, 0, 99, 65
1, 160921, Note_on_c, 0, 97, 59
1, 160945, Note_off_c, 0, 97, 61
1, 160987, Note_on_c, 0, 99, 57
1, 161008, Note_off_c, 0, 99, 61
1, 161042, Note_on_c, 0, 97, 51
1, 161080, Note_off_c, 0, 97, 63
1, 161098, Note_on_c, 0, 99, 60
1, 161131, Note_off_c, 0, 99, 64
1, 161172, Note_on_c, 0, 97, 60
1, 161214, Note_off_c, 0, 97, 54
1, 161246, Note_on_c, 0, 99, 53
1, 161273, Note_off_c, 0, 99, 60
1, 161305, Note_on_c, 0, 92, 57
1, 161312, Note_on_c, 0, 97, 62
1, 161350, Note_off_c, 0, 97, 64
1, 161355, Note_off_c, 0, 92, 64
1, 161382, Note_on_c, 0, 99, 43
1, 161398, Note_on_c, 0, 95, 25
1, 161407, Note_off_c, 0, 99, 57
1, 161434, Note_off_c, 0, 95, 44
1, 161449, Note_on_c, 0, 97, 51
1, 161455, Note_on_c, 0, 89, 52
1, 161480, Note_off_c, 0, 97, 52
1, 161481, Note_off_c, 0, 89, 59
1, 161502, Note_on_c, 0, 99, 54
1, 161521, Note_on_c, 0, 95, 49
1, 161526, Note_off_c, 0, 99, 60
1, 161544, Note_off_c, 0, 95, 58
1, 161565, Note_on_c, 0, 92, 63
1, 161574, Note_on_c, 0, 97, 52
1, 161601, Note_off_c, 0, 92, 64
1, 161609, Note_off_c, 0, 97, 63
1, 161633, Note_on_c, 0, 99, 59
1, 161635, Note_on_c, 0, 95, 48
1, 161657, Note_off_c, 0, 95, 60
1, 161659, Note_off_c, 0, 99, 63
1, 161690, Note_on_c, 0, 97, 56
1, 161705, Note_on_c, 0, 89, 43
1, 161717, Note_off_c, 0, 97, 54
1, 161732, Note_off_c, 0, 89, 55
1, 161745, Note_on_c, 0, 95, 64
1, 161745, Note_on_c, 0, 99, 67
1, 161779, Note_off_c, 0, 95, 66
1, 161779, Note_off_c, 0, 99, 63
1, 161809, Note_on_c, 0, 97, 58
1, 161810, Note_on_c, 0, 92, 70
1, 161850, Note_off_c, 0, 92, 61
1, 161851, Note_off_c, 0, 97, 63
1, 161878, Note_on_c, 0, 99, 66
1, 161880, Note_on_c, 0, 95, 55
1, 161901, Note_off_c, 0, 95, 63
1, 161904, Note_off_c, 0, 99, 64
1, 161939, Note_on_c, 0, 97, 66
1, 161950, Note_on_c, 0, 89, 60
1, 161969, Note_off_c, 0, 97, 57
1, 161975, Note_off_c, 0, 89, 62
1, 162008, Note_on_c, 0, 99, 63
1, 162012, Note_on_c, 0, 95, 55
1, 162037, Note_off_c, 0, 95, 64
1, 162037, Note_off_c, 0, 99, 63
1, 162072, Note_on_c, 0, 97, 64
1, 162076, Note_on_c, 0, 92, 66
1, 162110, Note_off_c, 0, 92, 64
1, 162113, Note_off_c, 0, 97, 62
1, 162127, Note_on_c, 0, 99, 69
1, 162130, Note_on_c, 0, 95, 63
1, 162159, Note_off_c, 0, 95, 66
1, 162160, Note_off_c, 0, 99, 63
1, 162197, Note_on_c, 0, 97, 62
1, 162209, Note_on_c, 0, 89, 55
1, 162243, Note_off_c, 0, 97, 60
1, 162244, Note_off_c, 0, 89, 63
1, 162254, Note_on_c, 0, 99, 65
1, 162257, Note_on_c, 0, 95, 51
1, 162280, Note_off_c, 0, 99, 63
1, 162281, Note_off_c, 0, 95, 58
1, 162327, Note_on_c, 0, 97, 62
1, 162334, Note_on_c, 0, 92, 59
1, 162367, Note_off_c, 0, 97, 58
1, 162370, Note_off_c, 0, 92, 66
1, 162373, Note_on_c, 0, 99, 64
1, 162374, Note_on_c, 0, 95, 54
1, 162409, Note_off_c, 0, 99, 62
1, 162410, Note_off_c, 0, 95, 63
1, 162446, Note_on_c, 0, 97, 62
1, 162456, Note_on_c, 0, 89, 52
1, 162484, Note_off_c, 0, 97, 51
1, 162485, Note_off_c, 0, 89, 59
1, 162509, Note_on_c, 0, 99, 58
1, 162512, Note_on_c, 0, 95, 55
1, 162535, Note_off_c, 0, 99, 57
1, 162538, Note_off_c, 0, 95, 62
1, 162575, Note_on_c, 0, 97, 61
1, 162576, Note_on_c, 0, 92, 59
1, 162617, Note_off_c, 0, 92, 63
1, 162621, Note_off_c, 0, 97, 57
1, 162639, Note_on_c, 0, 99, 55
1, 162647, Note_on_c, 0, 95, 44
1, 162674, Note_off_c, 0, 99, 55
1, 162680, Note_off_c, 0, 95, 52
1, 162704, Note_on_c, 0, 97, 58
1, 162721, Note_on_c, 0, 89, 49
1, 162749, Note_off_c, 0, 97, 57
1, 162760, Note_off_c, 0, 89, 53
1, 162791, Note_on_c, 0, 99, 55
1, 162797, Note_on_c, 0, 95, 46
1, 162829, Note_off_c, 0, 99, 60
1, 162829, Note_off_c, 0, 95, 54
1, 162850, Note_on_c, 0, 97, 47
1, 162853, Note_on_c, 0, 92, 53
1, 162888, Note_off_c, 0, 92, 64
1, 162892, Note_off_c, 0, 97, 56
1, 162937, Note_on_c, 0, 99, 52
1, 162951, Note_on_c, 0, 95, 32
1, 162976, Note_off_c, 0, 99, 58
1, 162980, Note_on_c, 0, 97, 41
1, 162981, Note_off_c, 0, 95, 52
1, 162987, Note_on_c, 0, 89, 44
1, 163021, Note_off_c, 0, 89, 51
1, 163021, Note_off_c, 0, 97, 48
1, 163079, Note_on_c, 0, 99, 54
1, 163085, Note_on_c, 0, 95, 34
1, 163109, Note_off_c, 0, 99, 52
1, 163118, Note_off_c, 0, 95, 52
1, 163121, Note_on_c, 0, 97, 40
1, 163124, Note_on_c, 0, 92, 49
1, 163158, Note_off_c, 0, 92, 62
1, 163170, Note_off_c, 0, 97, 56
1, 163218, Note_on_c, 0, 95, 45
1, 163219, Note_on_c, 0, 99, 45
1, 163261, Note_off_c, 0, 95, 58
1, 163262, Note_off_c, 0, 99, 53
1, 163280, Note_on_c, 0, 97, 47
1, 163336, Note_off_c, 0, 97, 51
1, 163346, Poly_aftertouch_c, 0, 89, 127
1, 163376, Note_on_c, 0, 99, 49
1, 163377, Poly_aftertouch_c, 0, 89, 0
1, 163380, Note_on_c, 0, 95, 44
1, 163414, Note_off_c, 0, 99, 56
1, 163417, Note_off_c, 0, 95, 59
1, 163455, Note_on_c, 0, 97, 43
1, 163467, Note_on_c, 0, 92, 52
1, 163514, Note_off_c, 0, 92, 62
1, 163526, Note_off_c, 0, 97, 52
1, 163551, Note_on_c, 0, 99, 43
1, 163559, Note_on_c, 0, 95, 29
1, 163604, Note_off_c, 0, 95, 48
1, 163612, Note_off_c, 0, 99, 47
1, 163668, Note_on_c, 0, 97, 38
1, 163701, Note_on_c, 0, 89, 7
1, 163743, Note_off_c, 0, 97, 36
1, 163754, Note_off_c, 0, 89, 49
1, 163770, Note_on_c, 0, 99, 19
1, 163781, Poly_aftertouch_c, 0, 95, 127
1, 163806, Poly_aftertouch_c, 0, 95, 0
1, 163830, Note_off_c, 0, 99, 45
1, 163932, Note_on_c, 0, 92, 39
1, 163938, Note_on_c, 0, 97, 33
1, 164049, Note_off_c, 0, 97, 42
1, 164100, Note_on_c, 0, 99, 43
1, 164174, Note_off_c, 0, 99, 49
1, 164188, Note_on_c, 0, 97, 32
1, 164268, Note_off_c, 0, 97, 55
1, 164275, Note_off_c, 0, 92, 38
1, 164294, Note_on_c, 0, 96, 47
1, 164381, Note_off_c, 0, 96, 60
1, 164383, Note_on_c, 0, 97, 58
1, 164466, Note_off_c, 0, 97, 61
1, 164498, Note_on_c, 0, 101, 49
1, 164608, Note_on_c, 0, 99, 61
1, 164646, Note_off_c, 0, 101, 37
1, 164693, Note_on_c, 0, 97, 56
1, 164716, Note_off_c, 0, 99, 56
1, 164774, Note_on_c, 0, 96, 62
1, 164796, Note_off_c, 0, 97, 61
1, 164823, Note_off_c, 0, 96, 63
1, 164843, Note_on_c, 0, 95, 66
1, 164906, Note_off_c, 0, 95, 63
1, 164912, Note_on_c, 0, 94, 75
1, 164980, Note_on_c, 0, 92, 65
1, 165020, Note_off_c, 0, 94, 62
1, 165047, Note_on_c, 0, 90, 69
1, 165064, Note_off_c, 0, 92, 65
1, 165087, Note_off_c, 0, 90, 63
1, 165105, Note_on_c, 0, 89, 69
1, 165148, Note_off_c, 0, 89, 55
1, 165163, Note_on_c, 0, 87, 75
1, 165216, Note_on_c, 0, 85, 71
1, 165243, Note_off_c, 0, 87, 63
1, 165269, Note_on_c, 0, 84, 74
1, 165280, Note_off_c, 0, 85, 64
1, 165299, Note_off_c, 0, 84, 64
1, 165326, Note_on_c, 0, 83, 75
1, 165374, Note_off_c, 0, 83, 63
1, 165383, Note_on_c, 0, 82, 81
1, 165441, Note_on_c, 0, 80, 65
1, 165465, Note_off_c, 0, 82, 64
1, 165482, Note_on_c, 0, 78, 76
1, 165497, Note_off_c, 0, 80, 63
1, 165522, Note_off_c, 0, 78, 63
1, 165537, Note_on_c, 0, 77, 70
1, 165574, Control_c, 0, 64, 102
1, 165589, Control_c, 0, 64, 94
1, 165589, Note_off_c, 0, 77, 63
1, 165601, Note_on_c, 0, 75, 71
1, 165603, Control_c, 0, 64, 91
1, 165618, Control_c, 0, 64, 91
1, 165649, Note_on_c, 0, 73, 72
1, 165662, Control_c, 0, 64, 90
1, 165666, Note_off_c, 0, 75, 63
1, 165677, Control_c, 0, 64, 90
1, 165692, Control_c, 0, 64, 89
1, 165704, Note_on_c, 0, 72, 73
1, 165707, Control_c, 0, 64, 86
1, 165719, Note_off_c, 0, 73, 64
1, 165721, Control_c, 0, 64, 84
1, 165736, Control_c, 0, 64, 83
1, 165738, Note_off_c, 0, 72, 64
1, 165759, Control_c, 0, 64, 83
1, 165774, Note_on_c, 0, 71, 75
1, 165774, Control_c, 0, 64, 82
1, 165789, Control_c, 0, 64, 81
1, 165803, Control_c, 0, 64, 79
1, 165817, Note_off_c, 0, 71, 59
1, 165818, Control_c, 0, 64, 79
1, 165833, Note_on_c, 0, 70, 76
1, 165862, Control_c, 0, 64, 78
1, 165877, Control_c, 0, 64, 77
1, 165890, Note_on_c, 0, 68, 69
1, 165892, Control_c, 0, 64, 76
1, 165907, Control_c, 0, 64, 73
1, 165913, Note_off_c, 0, 70, 63
1, 165921, Control_c, 0, 64, 71
1, 165932, Note_on_c, 0, 66, 67
1, 165936, Control_c, 0, 64, 69
1, 165949, Note_off_c, 0, 68, 62
1, 165951, Control_c, 0, 64, 68
1, 165966, Control_c, 0, 64, 67
1, 165975, Note_off_c, 0, 66, 62
1, 165981, Control_c, 0, 64, 65
1, 165989, Note_on_c, 0, 65, 67
1, 165995, Control_c, 0, 64, 64
1, 166025, Control_c, 0, 64, 64
1, 166040, Control_c, 0, 64, 63
1, 166050, Note_off_c, 0, 65, 63
1, 166054, Control_c, 0, 64, 61
1, 166057, Note_on_c, 0, 63, 65
1, 166069, Control_c, 0, 64, 60
1, 166084, Control_c, 0, 64, 58
1, 166099, Control_c, 0, 64, 57
1, 166102, Note_on_c, 0, 61, 71
1, 166118, Note_off_c, 0, 63, 63
1, 166143, Control_c, 0, 64, 57
1, 166158, Note_on_c, 0, 60, 63
1, 166172, Note_off_c, 0, 61, 61
1, 166188, Control_c, 0, 64, 56
1, 166194, Note_off_c, 0, 60, 67
1, 166218, Control_c, 0, 64, 56
1, 166219, Note_on_c, 0, 59, 65
1, 166263, Control_c, 0, 64, 56
1, 166281, Note_off_c, 0, 59, 63
1, 166288, Note_on_c, 0, 58, 68
1, 166347, Note_on_c, 0, 56, 56
1, 166364, Note_off_c, 0, 58, 62
1, 166397, Control_c, 0, 64, 57
1, 166398, Note_on_c, 0, 54, 64
1, 166414, Note_off_c, 0, 56, 64
1, 166434, Note_off_c, 0, 54, 68
1, 166459, Note_on_c, 0, 53, 67
1, 166507, Control_c, 0, 64, 57
1, 166531, Note_off_c, 0, 53, 63
1, 166539, Note_on_c, 0, 51, 64
1, 166600, Note_on_c, 0, 49, 51
1, 166603, Note_off_c, 0, 51, 58
1, 166675, Note_on_c, 0, 48, 58
1, 166679, Note_off_c, 0, 49, 61
1, 166743, Note_off_c, 0, 48, 59
1, 166776, Note_on_c, 0, 47, 44
1, 166804, Control_c, 0, 64, 57
1, 166835, Note_off_c, 0, 47, 63
1, 166942, Note_on_c, 0, 46, 55
1, 166996, Note_off_c, 0, 46, 56
1, 167086, Control_c, 0, 67, 126
1, 167100, Control_c, 0, 67, 120
1, 167115, Control_c, 0, 67, 115
1, 167118, Note_on_c, 0, 44, 52
1, 167130, Control_c, 0, 67, 111
1, 167145, Control_c, 0, 67, 105
1, 167160, Control_c, 0, 67, 98
1, 167171, Note_off_c, 0, 44, 61
1, 167175, Control_c, 0, 67, 92
1, 167190, Control_c, 0, 67, 87
1, 167205, Control_c, 0, 67, 82
1, 167220, Control_c, 0, 67, 78
1, 167234, Control_c, 0, 67, 76
1, 167256, Control_c, 0, 67, 74
1, 167271, Control_c, 0, 67, 74
1, 167286, Control_c, 0, 67, 72
1, 167288, Note_on_c, 0, 42, 54
1, 167300, Control_c, 0, 67, 69
1, 167315, Control_c, 0, 67, 64
1, 167330, Control_c, 0, 67, 60
1, 167339, Note_off_c, 0, 42, 64
1, 167345, Control_c, 0, 67, 55
1, 167360, Control_c, 0, 67, 48
1, 167375, Control_c, 0, 67, 41
1, 167389, Control_c, 0, 67, 36
1, 167404, Control_c, 0, 67, 33
1, 167419, Control_c, 0, 67, 32
1, 167434, Control_c, 0, 67, 32
1, 167467, Note_on_c, 0, 41, 53
1, 167531, Note_off_c, 0, 41, 62
1, 167553, Control_c, 0, 67, 32
1, 167597, Control_c, 0, 64, 57
1, 167612, Control_c, 0, 67, 33
1, 167626, Control_c, 0, 67, 34
1, 167640, Note_on_c, 0, 39, 55
1, 167700, Control_c, 0, 67, 34
1, 167706, Note_off_c, 0, 39, 53
1, 167790, Control_c, 0, 67, 35
1, 167834, Note_on_c, 0, 37, 53
1, 167879, Control_c, 0, 67, 36
1, 167944, Note_off_c, 0, 37, 61
1, 168005, Control_c, 0, 67, 36
1, 168065, Control_c, 0, 67, 37
1, 168168, Control_c, 0, 67, 37
1, 168194, Note_on_c, 0, 36, 43
1, 168287, Control_c, 0, 64, 57
1, 168287, Control_c, 0, 67, 38
1, 168317, Note_off_c, 0, 36, 52
1, 168376, Control_c, 0, 67, 39
1, 168436, Control_c, 0, 67, 39
1, 168450, Control_c, 0, 67, 40
1, 168560, Note_on_c, 0, 35, 35
1, 168709, Note_off_c, 0, 35, 35
1, 168755, Control_c, 0, 67, 41
1, 168888, Control_c, 0, 67, 41
1, 168955, Note_on_c, 0, 34, 31
1, 169110, Note_off_c, 0, 34, 40
1, 169258, Control_c, 0, 67, 42
1, 169394, Note_on_c, 0, 32, 29
1, 169407, Control_c, 0, 67, 42
1, 169567, Note_off_c, 0, 32, 46
1, 169710, Control_c, 0, 64, 57
1, 169710, Control_c, 0, 67, 42
1, 169784, Control_c, 0, 67, 41
1, 169814, Control_c, 0, 64, 58
1, 169858, Control_c, 0, 64, 58
1, 169858, Control_c, 0, 67, 40
1, 169887, Control_c, 0, 67, 39
1, 169902, Control_c, 0, 64, 59
1, 169917, Control_c, 0, 64, 59
1, 169917, Control_c, 0, 67, 39
1, 169932, Control_c, 0, 67, 38
1, 169947, Control_c, 0, 64, 60
1, 169962, Control_c, 0, 67, 37
1, 169977, Control_c, 0, 64, 60
1, 169977, Control_c, 0, 67, 37
1, 169992, Control_c, 0, 64, 61
1, 169992, Control_c, 0, 67, 36
1, 170007, Control_c, 0, 64, 62
1, 170007, Control_c, 0, 67, 36
1, 170022, Control_c, 0, 64, 63
1, 170051, Control_c, 0, 64, 63
1, 170056, Note_on_c, 0, 30, 38
1, 170066, Control_c, 0, 64, 64
1, 170066, Control_c, 0, 67, 35
1, 170081, Control_c, 0, 64, 65
1, 170081, Control_c, 0, 67, 34
1, 170095, Control_c, 0, 64, 68
1, 170110, Control_c, 0, 64, 71
1, 170110, Control_c, 0, 67, 34
1, 170125, Control_c, 0, 64, 76
1, 170140, Control_c, 0, 64, 81
1, 170155, Control_c, 0, 64, 87
1, 170169, Control_c, 0, 64, 96
1, 170184, Control_c, 0, 64, 125
1, 170200, Control_c, 0, 64, 127
1, 170230, Control_c, 0, 67, 34
1, 170281, Control_c, 0, 67, 34
1, 170369, Note_off_c, 0, 30, 42
1, 170430, Control_c, 0, 67, 33
1, 170460, Control_c, 0, 67, 34
1, 170474, Control_c, 0, 67, 35
1, 170592, Control_c, 0, 67, 34
1, 170725, Control_c, 0, 67, 35
1, 170815, Control_c, 0, 67, 36
1, 170929, Note_on_c, 0, 42, 46
1, 171011, Note_on_c, 0, 49, 39
1, 171047, Note_on_c, 0, 54, 49
1, 171073, Note_on_c, 0, 58, 40
1, 171122, Note_on_c, 0, 61, 48
1, 171199, Note_on_c, 0, 66, 54
1, 171241, Note_off_c, 0, 42, 37
1, 171246, Note_on_c, 0, 70, 57
1, 171302, Note_off_c, 0, 54, 37
1, 171326, Note_off_c, 0, 49, 36
1, 171356, Control_c, 0, 67, 35
1, 171373, Note_off_c, 0, 58, 55
1, 171399, Note_off_c, 0, 61, 58
1, 171399, Note_off_c, 0, 70, 55
1, 171408, Note_off_c, 0, 66, 60
1, 171458, Note_on_c, 0, 42, 42
1, 171489, Control_c, 0, 67, 36
1, 171506, Note_on_c, 0, 49, 33
1, 171554, Note_on_c, 0, 54, 40
1, 171578, Control_c, 0, 67, 36
1, 171592, Note_on_c, 0, 58, 32
1, 171622, Control_c, 0, 67, 37
1, 171627, Note_on_c, 0, 61, 48
1, 171670, Note_on_c, 0, 66, 49
1, 171697, Control_c, 0, 67, 37
1, 171720, Note_on_c, 0, 70, 57
1, 171957, Control_c, 0, 67, 38
1, 172031, Control_c, 0, 67, 39
1, 172054, Note_off_c, 0, 42, 35
1, 172115, Note_off_c, 0, 61, 35
1, 172117, Note_off_c, 0, 66, 34
1, 172120, Control_c, 0, 67, 40
1, 172135, Control_c, 0, 67, 41
1, 172150, Control_c, 0, 67, 42
1, 172165, Control_c, 0, 67, 42
1, 172170, Note_off_c, 0, 54, 36
1, 172210, Control_c, 0, 67, 43
1, 172213, Note_off_c, 0, 49, 39
1, 172239, Control_c, 0, 67, 44
1, 172245, Note_off_c, 0, 58, 22
1, 172358, Control_c, 0, 67, 44
1, 172372, Control_c, 0, 67, 45
1, 172417, Control_c, 0, 67, 46
1, 172579, Note_on_c, 0, 42, 38
1, 172633, Control_c, 0, 67, 45
1, 172638, Note_on_c, 0, 49, 41
1, 172653, Note_off_c, 0, 70, 16
1, 172711, Note_on_c, 0, 56, 46
1, 172761, Note_on_c, 0, 59, 47
1, 172795, Control_c, 0, 67, 46
1, 172808, Note_on_c, 0, 66, 52
1, 172810, Control_c, 0, 64, 103
1, 172825, Control_c, 0, 64, 81
1, 172825, Control_c, 0, 67, 47
1, 172840, Control_c, 0, 64, 71
1, 172855, Control_c, 0, 64, 67
1, 172863, Note_on_c, 0, 71, 70
1, 172884, Control_c, 0, 64, 70
1, 172899, Control_c, 0, 64, 75
1, 172899, Control_c, 0, 67, 46
1, 172913, Control_c, 0, 64, 85
1, 172913, Control_c, 0, 67, 46
1, 172928, Control_c, 0, 64, 100
1, 172928, Control_c, 0, 67, 45
1, 172943, Control_c, 0, 64, 127
1, 172943, Control_c, 0, 67, 44
1, 172958, Control_c, 0, 67, 44
1, 172973, Control_c, 0, 67, 43
1, 172988, Control_c, 0, 67, 42
1, 173003, Control_c, 0, 67, 41
1, 173032, Control_c, 0, 67, 41
1, 173047, Control_c, 0, 67, 40
1, 173062, Control_c, 0, 67, 39
1, 173067, Note_off_c, 0, 42, 36
1, 173077, Control_c, 0, 67, 39
1, 173092, Control_c, 0, 67, 38
1, 173098, Note_off_c, 0, 49, 56
1, 173107, Control_c, 0, 67, 37
1, 173113, Note_off_c, 0, 56, 32
1, 173136, Control_c, 0, 67, 37
1, 173151, Control_c, 0, 67, 36
1, 173195, Control_c, 0, 67, 37
1, 173209, Note_on_c, 0, 42, 54
1, 173210, Control_c, 0, 67, 38
1, 173247, Control_c, 0, 64, 72
1, 173247, Control_c, 0, 67, 39
1, 173262, Control_c, 0, 64, 44
1, 173277, Control_c, 0, 64, 25
1, 173277, Control_c, 0, 67, 39
1, 173307, Control_c, 0, 64, 44
1, 173321, Control_c, 0, 64, 59
1, 173336, Control_c, 0, 64, 65
1, 173339, Note_off_c, 0, 66, 37
1, 173351, Control_c, 0, 64, 71
1, 173352, Note_on_c, 0, 49, 53
1, 173366, Control_c, 0, 64, 77
1, 173379, Note_off_c, 0, 59, 39
1, 173381, Control_c, 0, 64, 84
1, 173388, Note_off_c, 0, 42, 57
1, 173396, Control_c, 0, 64, 91
1, 173411, Control_c, 0, 64, 100
1, 173426, Control_c, 0, 64, 108
1, 173441, Control_c, 0, 64, 127
1, 173446, Note_off_c, 0, 71, 63
1, 173495, Note_on_c, 0, 57, 51
1, 173558, Control_c, 0, 67, 40
1, 173594, Note_on_c, 0, 60, 62
1, 173603, Control_c, 0, 67, 41
1, 173662, Control_c, 0, 67, 41
1, 173716, Note_on_c, 0, 66, 70
1, 173751, Control_c, 0, 67, 42
1, 173884, Control_c, 0, 67, 42
1, 173973, Control_c, 0, 67, 43
1, 173995, Control_c, 0, 67, 44
1, 173999, Poly_aftertouch_c, 0, 62, 127
1, 174076, Note_on_c, 0, 75, 70
1, 174084, Control_c, 0, 67, 44
1, 174463, Poly_aftertouch_c, 0, 62, 0
1, 174490, Note_off_c, 0, 60, 39
1, 174573, Control_c, 0, 67, 45
1, 174648, Control_c, 0, 64, 103
1, 174663, Control_c, 0, 64, 91
1, 174677, Control_c, 0, 64, 86
1, 174692, Control_c, 0, 64, 85
1, 174707, Control_c, 0, 64, 86
1, 174722, Control_c, 0, 64, 88
1, 174744, Control_c, 0, 64, 90
1, 174773, Control_c, 0, 64, 89
1, 174788, Control_c, 0, 64, 88
1, 174803, Control_c, 0, 64, 87
1, 174818, Control_c, 0, 64, 85
1, 174833, Control_c, 0, 64, 81
1, 174848, Control_c, 0, 64, 77
1, 174863, Control_c, 0, 64, 75
1, 174878, Control_c, 0, 64, 75
1, 174892, Control_c, 0, 64, 76
1, 174907, Control_c, 0, 64, 76
1, 174922, Control_c, 0, 64, 77
1, 174922, Control_c, 0, 67, 46
1, 174937, Control_c, 0, 64, 79
1, 174952, Control_c, 0, 64, 84
1, 174966, Control_c, 0, 64, 90
1, 174982, Control_c, 0, 64, 96
1, 174982, Control_c, 0, 67, 46
1, 174997, Control_c, 0, 64, 101
1, 175012, Control_c, 0, 64, 110
1, 175027, Control_c, 0, 64, 127
1, 175071, Note_off_c, 0, 75, 53
1, 175086, Note_off_c, 0, 57, 39
1, 175238, Note_off_c, 0, 49, 36
1, 175249, Note_off_c, 0, 66, 54
1, 175506, Control_c, 0, 67, 47
1, 175706, Note_on_c, 0, 73, 43
1, 175714, Control_c, 0, 67, 47
1, 175721, Note_on_c, 0, 66, 40
1, 175729, Control_c, 0, 67, 48
1, 175736, Note_on_c, 0, 58, 30
1, 175744, Note_on_c, 0, 61, 23
1, 175744, Control_c, 0, 64, 114
1, 175744, Control_c, 0, 67, 49
1, 175745, Note_on_c, 0, 49, 19
1, 175754, Note_on_c, 0, 42, 24
1, 175759, Control_c, 0, 64, 87
1, 175774, Control_c, 0, 64, 73
1, 175774, Control_c, 0, 67, 49
1, 175790, Control_c, 0, 64, 67
1, 175805, Control_c, 0, 64, 63
1, 175805, Control_c, 0, 67, 50
1, 175819, Control_c, 0, 64, 61
1, 175834, Control_c, 0, 64, 58
1, 175849, Control_c, 0, 64, 55
1, 175864, Control_c, 0, 64, 53
1, 175879, Control_c, 0, 67, 51
1, 175893, Control_c, 0, 64, 53
1, 175908, Control_c, 0, 64, 52
1, 175923, Control_c, 0, 64, 52
1, 175937, Control_c, 0, 64, 51
1, 176011, Control_c, 0, 64, 52
1, 176026, Control_c, 0, 64, 53
1, 176041, Control_c, 0, 64, 53
1, 176085, Control_c, 0, 64, 54
1, 176100, Control_c, 0, 64, 57
1, 176115, Control_c, 0, 64, 59
1, 176159, Control_c, 0, 64, 60
1, 176174, Control_c, 0, 64, 62
1, 176189, Control_c, 0, 64, 64
1, 176189, Control_c, 0, 67, 50
1, 176204, Control_c, 0, 64, 65
1, 176219, Control_c, 0, 64, 66
1, 176241, Control_c, 0, 64, 67
1, 176256, Control_c, 0, 64, 69
1, 176271, Control_c, 0, 64, 72
1, 176285, Control_c, 0, 64, 74
1, 176285, Control_c, 0, 67, 49
1, 176297, Note_off_c, 0, 58, 26
1, 176300, Control_c, 0, 64, 75
1, 176315, Control_c, 0, 64, 76
1, 176333, Note_off_c, 0, 61, 26
1, 176344, Control_c, 0, 64, 77
1, 176360, Note_off_c, 0, 66, 28
1, 176374, Control_c, 0, 64, 78
1, 176389, Control_c, 0, 64, 78
1, 176404, Control_c, 0, 64, 79
1, 176405, Note_off_c, 0, 73, 33
1, 176419, Control_c, 0, 64, 80
1, 176422, Note_off_c, 0, 49, 34
1, 176434, Control_c, 0, 64, 81
1, 176448, Control_c, 0, 64, 82
1, 176463, Control_c, 0, 64, 85
1, 176478, Control_c, 0, 64, 87
1, 176493, Control_c, 0, 64, 90
1, 176508, Control_c, 0, 64, 90
1, 176523, Control_c, 0, 64, 91
1, 176592, Note_off_c, 0, 42, 36
1, 176612, Control_c, 0, 64, 90
1, 176642, Control_c, 0, 64, 90
1, 176657, Control_c, 0, 64, 89
1, 176672, Control_c, 0, 64, 88
1, 176687, Control_c, 0, 64, 87
1, 176702, Control_c, 0, 64, 86
1, 176716, Control_c, 0, 64, 86
1, 176731, Control_c, 0, 64, 85
1, 176746, Control_c, 0, 64, 84
1, 176760, Control_c, 0, 64, 83
1, 176775, Control_c, 0, 64, 82
1, 176790, Control_c, 0, 64, 81
1, 176820, Control_c, 0, 64, 80
1, 176834, Control_c, 0, 64, 80
1, 176849, Control_c, 0, 64, 78
1, 176864, Control_c, 0, 64, 77
1, 176879, Control_c, 0, 64, 75
1, 176894, Control_c, 0, 64, 74
1, 176908, Control_c, 0, 64, 73
1, 176952, Control_c, 0, 64, 73
1, 176967, Control_c, 0, 64, 72
1, 176990, Control_c, 0, 64, 71
1, 177005, Control_c, 0, 64, 71
1, 177020, Control_c, 0, 64, 70
1, 177034, Control_c, 0, 64, 69
1, 177049, Control_c, 0, 64, 69
1, 177064, Control_c, 0, 64, 68
1, 177079, Control_c, 0, 64, 67
1, 177094, Control_c, 0, 64, 66
1, 177108, Control_c, 0, 64, 66
1, 177123, Control_c, 0, 64, 65
1, 177138, Control_c, 0, 64, 64
1, 177152, Control_c, 0, 64, 62
1, 177167, Control_c, 0, 64, 58
1, 177182, Control_c, 0, 64, 53
1, 177197, Control_c, 0, 64, 43
1, 177197, Control_c, 0, 67, 50
1, 177212, Control_c, 0, 64, 21
1, 177226, Control_c, 0, 64, 0
1, 177271, Control_c, 0, 64, 17
1, 177286, Control_c, 0, 64, 43
1, 177301, Control_c, 0, 64, 54
1, 177316, Control_c, 0, 64, 59
1, 177316, Control_c, 0, 67, 49
1, 177318, Note_on_c, 0, 30, 41
1, 177331, Control_c, 0, 64, 63
1, 177331, Control_c, 0, 67, 49
1, 177346, Control_c, 0, 64, 67
1, 177346, Control_c, 0, 67, 48
1, 177360, Control_c, 0, 64, 74
1, 177360, Control_c, 0, 67, 47
1, 177361, Note_off_c, 0, 30, 61
1, 177376, Control_c, 0, 64, 81
1, 177376, Control_c, 0, 67, 47
1, 177390, Control_c, 0, 64, 91
1, 177405, Control_c, 0, 64, 113
1, 177405, Control_c, 0, 67, 46
1, 177420, Control_c, 0, 64, 127
1, 177420, Control_c, 0, 67, 46
1, 177465, Control_c, 0, 67, 45
1, 177480, Control_c, 0, 67, 44
1, 177510, Control_c, 0, 67, 44
1, 177525, Control_c, 0, 67, 43
1, 177539, Control_c, 0, 67, 42
1, 177569, Control_c, 0, 67, 42
1, 177598, Control_c, 0, 67, 41
1, 177628, Control_c, 0, 67, 41
1, 177687, Control_c, 0, 67, 40
1, 177739, Control_c, 0, 67, 39
1, 177769, Control_c, 0, 67, 39
1, 177775, Note_on_c, 0, 71, 49
1, 177783, Control_c, 0, 67, 38
1, 177795, Note_on_c, 0, 62, 33
1, 177803, Note_on_c, 0, 66, 33
1, 177805, Note_on_c, 0, 59, 30
1, 177813, Control_c, 0, 67, 37
1, 177817, Note_on_c, 0, 50, 24
1, 177817, Note_on_c, 0, 54, 29
1, 177843, Control_c, 0, 67, 37
1, 177887, Control_c, 0, 67, 36
1, 177902, Control_c, 0, 67, 36
1, 177946, Control_c, 0, 67, 35
1, 177949, Note_off_c, 0, 54, 37
1, 177960, Note_off_c, 0, 59, 35
1, 177964, Note_off_c, 0, 50, 43
1, 177969, Note_off_c, 0, 71, 58
1, 177975, Control_c, 0, 67, 34
1, 178013, Note_off_c, 0, 66, 38
1, 178020, Note_off_c, 0, 62, 40
1, 178035, Control_c, 0, 67, 34
1, 178064, Control_c, 0, 67, 33
1, 178109, Control_c, 0, 67, 32
1, 178112, Note_on_c, 0, 69, 64
1, 178119, Note_on_c, 0, 59, 42
1, 178130, Note_on_c, 0, 54, 31
1, 178136, Note_on_c, 0, 66, 51
1, 178139, Note_on_c, 0, 50, 28
1, 178157, Note_on_c, 0, 62, 41
1, 178184, Control_c, 0, 67, 32
1, 178237, Note_off_c, 0, 54, 37
1, 178243, Note_off_c, 0, 50, 37
1, 178249, Note_off_c, 0, 59, 38
1, 178251, Note_off_c, 0, 62, 49
1, 178252, Note_off_c, 0, 69, 62
1, 178259, Note_off_c, 0, 66, 50
1, 178387, Note_on_c, 0, 68, 72
1, 178399, Note_on_c, 0, 66, 57
1, 178407, Note_on_c, 0, 59, 37
1, 178409, Note_on_c, 0, 54, 31
1, 178417, Note_on_c, 0, 62, 38
1, 178421, Note_on_c, 0, 50, 26
1, 178467, Note_off_c, 0, 62, 55
1, 178470, Note_off_c, 0, 66, 61
1, 178500, Note_off_c, 0, 54, 51
1, 178511, Note_off_c, 0, 59, 49
1, 178519, Note_off_c, 0, 50, 37
1, 178528, Note_off_c, 0, 68, 55
1, 178592, Control_c, 0, 67, 32
1, 178643, Note_on_c, 0, 74, 80
1, 178668, Note_on_c, 0, 59, 42
1, 178669, Note_on_c, 0, 66, 53
1, 178671, Note_on_c, 0, 54, 41
1, 178678, Note_on_c, 0, 50, 31
1, 178680, Note_on_c, 0, 62, 50
1, 178725, Control_c, 0, 67, 32
1, 178769, Control_c, 0, 67, 31
1, 178771, Note_off_c, 0, 59, 54
1, 178776, Note_off_c, 0, 74, 62
1, 178809, Note_off_c, 0, 62, 30
1, 178812, Note_off_c, 0, 54, 34
1, 178813, Control_c, 0, 67, 31
1, 178814, Note_off_c, 0, 50, 34
1, 178817, Note_off_c, 0, 66, 36
1, 178873, Control_c, 0, 67, 30
1, 178900, Note_on_c, 0, 73, 85
1, 178902, Control_c, 0, 67, 29
1, 178922, Note_on_c, 0, 54, 53
1, 178923, Note_on_c, 0, 59, 45
1, 178929, Note_on_c, 0, 50, 40
1, 178932, Control_c, 0, 67, 29
1, 178940, Note_on_c, 0, 66, 42
1, 178976, Note_off_c, 0, 66, 59
1, 179007, Note_off_c, 0, 54, 57
1, 179009, Note_off_c, 0, 59, 55
1, 179071, Note_off_c, 0, 50, 31
1, 179143, Note_off_c, 0, 73, 60
1, 179147, Note_on_c, 0, 54, 64
1, 179148, Note_on_c, 0, 71, 80
1, 179154, Note_on_c, 0, 59, 55
1, 179161, Note_on_c, 0, 50, 14
1, 179168, Note_on_c, 0, 66, 56
1, 179185, Control_c, 0, 67, 29
1, 179189, Note_off_c, 0, 66, 61
1, 179194, Note_off_c, 0, 54, 61
1, 179194, Note_off_c, 0, 59, 62
1, 179203, Note_off_c, 0, 50, 45
1, 179207, Note_off_c, 0, 71, 65
1, 179237, Control_c, 0, 67, 30
1, 179267, Control_c, 0, 67, 31
1, 179282, Control_c, 0, 67, 31
1, 179341, Control_c, 0, 67, 32
1, 179370, Control_c, 0, 67, 32
1, 179385, Control_c, 0, 67, 34
1, 179414, Note_on_c, 0, 78, 84
1, 179428, Note_on_c, 0, 66, 37
1, 179429, Control_c, 0, 67, 36
1, 179430, Note_on_c, 0, 59, 47
1, 179432, Note_on_c, 0, 71, 58
1, 179439, Note_on_c, 0, 54, 44
1, 179444, Control_c, 0, 64, 95
1, 179444, Control_c, 0, 67, 37
1, 179446, Note_on_c, 0, 62, 46
1, 179459, Control_c, 0, 64, 78
1, 179474, Control_c, 0, 64, 69
1, 179489, Control_c, 0, 64, 66
1, 179489, Control_c, 0, 67, 36
1, 179504, Control_c, 0, 64, 67
1, 179504, Control_c, 0, 67, 35
1, 179519, Control_c, 0, 64, 71
1, 179519, Control_c, 0, 67, 34
1, 179534, Control_c, 0, 64, 80
1, 179534, Control_c, 0, 67, 34
1, 179549, Control_c, 0, 64, 107
1, 179563, Control_c, 0, 64, 127
1, 179573, Note_off_c, 0, 62, 60
1, 179575, Note_off_c, 0, 59, 62
1, 179588, Note_off_c, 0, 54, 52
1, 179633, Note_off_c, 0, 66, 35
1, 179638, Note_off_c, 0, 71, 33
1, 179695, Note_on_c, 0, 76, 81
1, 179697, Control_c, 0, 64, 91
1, 179697, Control_c, 0, 67, 34
1, 179711, Control_c, 0, 64, 80
1, 179714, Note_on_c, 0, 71, 42
1, 179718, Note_on_c, 0, 62, 44
1, 179720, Note_on_c, 0, 54, 54
1, 179721, Note_on_c, 0, 59, 48
1, 179726, Control_c, 0, 64, 77
1, 179726, Control_c, 0, 67, 35
1, 179731, Note_on_c, 0, 66, 41
1, 179755, Control_c, 0, 64, 80
1, 179770, Control_c, 0, 64, 93
1, 179770, Control_c, 0, 67, 36
1, 179786, Control_c, 0, 64, 127
1, 179801, Control_c, 0, 67, 36
1, 179832, Note_off_c, 0, 66, 28
1, 179834, Note_off_c, 0, 59, 56
1, 179845, Control_c, 0, 67, 35
1, 179850, Note_off_c, 0, 78, 59
1, 179860, Note_off_c, 0, 54, 36
1, 179860, Control_c, 0, 67, 34
1, 179872, Note_off_c, 0, 62, 36
1, 179900, Note_off_c, 0, 71, 40
1, 179905, Control_c, 0, 67, 35
1, 179949, Control_c, 0, 64, 115
1, 179949, Control_c, 0, 67, 36
1, 179959, Note_on_c, 0, 74, 73
1, 179964, Control_c, 0, 64, 80
1, 179964, Control_c, 0, 67, 37
1, 179978, Note_on_c, 0, 59, 46
1, 179985, Note_on_c, 0, 54, 50
1, 179986, Control_c, 0, 64, 69
1, 179987, Note_on_c, 0, 62, 42
1, 179989, Note_on_c, 0, 71, 55
1, 180001, Control_c, 0, 64, 64
1, 180016, Control_c, 0, 64, 63
1, 180031, Control_c, 0, 64, 65
1, 180046, Control_c, 0, 64, 70
1, 180060, Note_off_c, 0, 76, 56
1, 180060, Control_c, 0, 64, 80
1, 180075, Control_c, 0, 64, 95
1, 180084, Poly_aftertouch_c, 0, 66, 127
1, 180090, Control_c, 0, 64, 127
1, 180114, Note_off_c, 0, 59, 60
1, 180127, Note_off_c, 0, 62, 38
1, 180136, Poly_aftertouch_c, 0, 66, 0
1, 180136, Note_off_c, 0, 54, 37
1, 180147, Note_off_c, 0, 74, 62
1, 180149, Control_c, 0, 67, 36
1, 180163, Note_off_c, 0, 71, 61
1, 180178, Control_c, 0, 67, 36
1, 180252, Control_c, 0, 64, 103
1, 180252, Control_c, 0, 67, 36
1, 180267, Control_c, 0, 64, 77
1, 180276, Note_on_c, 0, 73, 67
1, 180282, Note_on_c, 0, 62, 25
1, 180282, Control_c, 0, 64, 66
1, 180285, Note_on_c, 0, 54, 36
1, 180294, Note_on_c, 0, 56, 31
1, 180297, Control_c, 0, 64, 61
1, 180312, Control_c, 0, 64, 59
1, 180317, Note_on_c, 0, 66, 29
1, 180327, Control_c, 0, 64, 60
1, 180342, Control_c, 0, 64, 63
1, 180356, Control_c, 0, 64, 67
1, 180371, Control_c, 0, 64, 72
1, 180378, Note_off_c, 0, 66, 39
1, 180386, Control_c, 0, 64, 79
1, 180401, Control_c, 0, 64, 89
1, 180416, Control_c, 0, 64, 100
1, 180416, Control_c, 0, 67, 36
1, 180431, Control_c, 0, 64, 127
1, 180435, Note_off_c, 0, 73, 60
1, 180460, Control_c, 0, 67, 35
1, 180470, Note_off_c, 0, 62, 39
1, 180474, Note_off_c, 0, 54, 43
1, 180480, Note_off_c, 0, 56, 39
1, 180609, Control_c, 0, 64, 80
1, 180619, Note_on_c, 0, 71, 48
1, 180624, Control_c, 0, 64, 66
1, 180634, Note_on_c, 0, 54, 32
1, 180637, Note_on_c, 0, 56, 33
1, 180639, Control_c, 0, 64, 62
1, 180639, Control_c, 0, 67, 36
1, 180647, Note_on_c, 0, 62, 22
1, 180654, Control_c, 0, 64, 61
1, 180662, Note_on_c, 0, 66, 23
1, 180669, Control_c, 0, 64, 61
1, 180669, Control_c, 0, 67, 35
1, 180683, Control_c, 0, 64, 63
1, 180683, Control_c, 0, 67, 34
1, 180695, Note_off_c, 0, 62, 52
1, 180698, Control_c, 0, 64, 66
1, 180702, Note_off_c, 0, 56, 57
1, 180713, Control_c, 0, 64, 71
1, 180735, Control_c, 0, 64, 78
1, 180741, Note_off_c, 0, 54, 58
1, 180750, Control_c, 0, 64, 84
1, 180765, Control_c, 0, 64, 90
1, 180765, Control_c, 0, 67, 34
1, 180780, Control_c, 0, 64, 97
1, 180795, Control_c, 0, 64, 113
1, 180809, Control_c, 0, 64, 127
1, 180854, Control_c, 0, 67, 33
1, 180913, Control_c, 0, 67, 34
1, 180943, Note_off_c, 0, 66, 38
1, 180957, Control_c, 0, 67, 34
1, 180987, Control_c, 0, 67, 35
1, 181056, Note_off_c, 0, 71, 40
1, 181090, Control_c, 0, 67, 36
1, 181105, Control_c, 0, 67, 36
1, 181120, Control_c, 0, 67, 37
1, 181128, Note_on_c, 0, 30, 41
1, 181134, Control_c, 0, 64, 80
1, 181134, Control_c, 0, 67, 37
1, 181149, Control_c, 0, 64, 63
1, 181149, Control_c, 0, 67, 39
1, 181164, Control_c, 0, 64, 41
1, 181179, Control_c, 0, 64, 0
1, 181224, Control_c, 0, 64, 30
1, 181239, Control_c, 0, 64, 48
1, 181254, Control_c, 0, 64, 57
1, 181269, Control_c, 0, 64, 62
1, 181269, Control_c, 0, 67, 38
1, 181283, Control_c, 0, 64, 65
1, 181283, Control_c, 0, 67, 37
1, 181298, Control_c, 0, 64, 69
1, 181298, Control_c, 0, 67, 36
1, 181313, Control_c, 0, 64, 77
1, 181327, Control_c, 0, 64, 93
1, 181327, Control_c, 0, 67, 36
1, 181340, Note_off_c, 0, 30, 49
1, 181342, Control_c, 0, 64, 127
1, 181342, Control_c, 0, 67, 35
1, 181373, Control_c, 0, 67, 34
1, 181432, Control_c, 0, 67, 34
1, 181850, Note_on_c, 0, 82, 50
1, 181869, Control_c, 0, 67, 34
1, 181874, Note_on_c, 0, 73, 32
1, 181879, Note_on_c, 0, 54, 30
1, 181882, Note_on_c, 0, 66, 15
1, 181882, Note_on_c, 0, 70, 27
1, 181886, Note_on_c, 0, 78, 35
1, 181887, Note_on_c, 0, 61, 27
1, 181928, Note_off_c, 0, 73, 59
1, 181937, Note_off_c, 0, 78, 54
1, 181942, Note_off_c, 0, 82, 59
1, 181946, Note_off_c, 0, 70, 43
1, 181957, Control_c, 0, 67, 35
1, 181964, Note_off_c, 0, 61, 50
1, 181997, Note_off_c, 0, 66, 38
1, 182001, Note_off_c, 0, 54, 36
1, 182032, Control_c, 0, 67, 36
1, 182076, Control_c, 0, 67, 36
1, 182136, Control_c, 0, 67, 37
1, 182165, Control_c, 0, 67, 37
1, 182220, Note_on_c, 0, 82, 56
1, 182231, Note_on_c, 0, 78, 46
1, 182233, Note_on_c, 0, 73, 41
1, 182235, Note_on_c, 0, 61, 38
1, 182237, Note_on_c, 0, 70, 39
1, 182240, Note_on_c, 0, 54, 32
1, 182249, Note_on_c, 0, 66, 24
1, 182262, Control_c, 0, 67, 38
1, 182277, Control_c, 0, 67, 39
1, 182559, Control_c, 0, 67, 38
1, 182573, Control_c, 0, 67, 37
1, 182595, Note_off_c, 0, 73, 36
1, 182598, Note_off_c, 0, 78, 33
1, 182622, Note_off_c, 0, 54, 39
1, 182650, Note_off_c, 0, 82, 64
1, 182653, Note_off_c, 0, 70, 36
1, 182683, Note_off_c, 0, 61, 41
1, 182683, Note_off_c, 0, 66, 39
1, 182840, Control_c, 0, 67, 38
1, 182884, Control_c, 0, 67, 39
1, 182982, Control_c, 0, 67, 39
1, 183008, Note_on_c, 0, 54, 39
1, 183011, Control_c, 0, 67, 40
1, 183013, Note_on_c, 0, 83, 72
1, 183015, Note_on_c, 0, 61, 36
1, 183021, Note_on_c, 0, 68, 27
1, 183026, Control_c, 0, 64, 101
1, 183032, Note_on_c, 0, 78, 54
1, 183033, Note_on_c, 0, 71, 48
1, 183041, Control_c, 0, 64, 77
1, 183056, Control_c, 0, 64, 68
1, 183056, Control_c, 0, 67, 41
1, 183071, Control_c, 0, 64, 65
1, 183097, Note_off_c, 0, 78, 0
1, 183097, Note_on_c, 0, 78, 26
1, 183100, Control_c, 0, 64, 67
1, 183115, Control_c, 0, 64, 73
1, 183130, Control_c, 0, 64, 88
1, 183145, Control_c, 0, 64, 127
1, 183159, Control_c, 0, 67, 41
1, 183189, Control_c, 0, 67, 42
1, 183233, Control_c, 0, 67, 41
1, 183248, Control_c, 0, 67, 39
1, 183251, Note_off_c, 0, 54, 41
1, 183263, Control_c, 0, 67, 37
1, 183278, Note_off_c, 0, 61, 49
1, 183278, Control_c, 0, 67, 37
1, 183299, Note_off_c, 0, 68, 36
1, 183308, Control_c, 0, 67, 37
1, 183323, Control_c, 0, 67, 38
1, 183338, Control_c, 0, 67, 39
1, 183367, Control_c, 0, 64, 76
1, 183367, Control_c, 0, 67, 39
1, 183382, Control_c, 0, 64, 60
1, 183384, Note_on_c, 0, 54, 45
1, 183397, Control_c, 0, 64, 49
1, 183397, Control_c, 0, 67, 40
1, 183412, Control_c, 0, 64, 49
1, 183427, Control_c, 0, 64, 55
1, 183428, Note_off_c, 0, 78, 57
1, 183436, Note_off_c, 0, 71, 31
1, 183442, Control_c, 0, 64, 62
1, 183457, Control_c, 0, 64, 68
1, 183457, Control_c, 0, 67, 39
1, 183471, Control_c, 0, 64, 77
1, 183486, Control_c, 0, 64, 91
1, 183493, Note_on_c, 0, 61, 52
1, 183501, Control_c, 0, 64, 107
1, 183510, Note_off_c, 0, 54, 63
1, 183516, Control_c, 0, 64, 110
1, 183516, Control_c, 0, 67, 40
1, 183543, Note_off_c, 0, 83, 60
1, 183545, Control_c, 0, 64, 110
1, 183560, Control_c, 0, 64, 122
1, 183560, Control_c, 0, 67, 41
1, 183575, Control_c, 0, 64, 127
1, 183575, Control_c, 0, 67, 41
1, 183606, Note_on_c, 0, 69, 50
1, 183634, Control_c, 0, 67, 42
1, 183729, Note_on_c, 0, 72, 57
1, 183849, Note_on_c, 0, 78, 59
1, 183909, Control_c, 0, 67, 42
1, 183918, Note_off_c, 0, 72, 58
1, 184056, Control_c, 0, 67, 43
1, 184104, Note_on_c, 0, 87, 74
1, 184387, Note_off_c, 0, 69, 36
1, 184825, Poly_aftertouch_c, 0, 84, 127
1, 184851, Note_off_c, 0, 61, 37
1, 184879, Note_off_c, 0, 87, 37
1, 184944, Note_off_c, 0, 78, 26
1, 184982, Poly_aftertouch_c, 0, 84, 0
1, 185449, Note_on_c, 0, 85, 40
1, 185450, Note_on_c, 0, 54, 31
1, 185452, Note_on_c, 0, 70, 39
1, 185454, Note_on_c, 0, 78, 40
1, 185465, Note_on_c, 0, 61, 24
1, 185465, Note_on_c, 0, 73, 17
1, 185495, Control_c, 0, 67, 44
1, 185510, Control_c, 0, 64, 119
1, 185525, Control_c, 0, 64, 85
1, 185525, Control_c, 0, 67, 44
1, 185539, Control_c, 0, 64, 70
1, 185554, Control_c, 0, 64, 59
1, 185569, Control_c, 0, 64, 47
1, 185584, Control_c, 0, 64, 39
1, 185598, Control_c, 0, 64, 39
1, 185613, Control_c, 0, 64, 39
1, 185628, Control_c, 0, 64, 43
1, 185643, Control_c, 0, 64, 46
1, 185658, Control_c, 0, 64, 47
1, 185672, Control_c, 0, 64, 49
1, 185687, Control_c, 0, 64, 52
1, 185702, Control_c, 0, 64, 54
1, 185717, Control_c, 0, 64, 55
1, 185732, Control_c, 0, 64, 56
1, 185732, Control_c, 0, 67, 44
1, 185746, Control_c, 0, 64, 58
1, 185746, Control_c, 0, 67, 43
1, 185761, Control_c, 0, 64, 61
1, 185776, Control_c, 0, 64, 63
1, 185776, Control_c, 0, 67, 42
1, 185791, Control_c, 0, 64, 63
1, 185806, Control_c, 0, 64, 64
1, 185835, Control_c, 0, 64, 64
1, 185850, Control_c, 0, 64, 65
1, 185880, Control_c, 0, 67, 42
1, 185895, Control_c, 0, 64, 65
1, 185910, Control_c, 0, 64, 67
1, 185925, Control_c, 0, 64, 69
1, 185939, Control_c, 0, 64, 70
1, 185954, Control_c, 0, 64, 71
1, 185976, Control_c, 0, 64, 72
1, 185991, Control_c, 0, 64, 74
1, 186005, Control_c, 0, 64, 76
1, 186020, Note_off_c, 0, 61, 37
1, 186020, Control_c, 0, 64, 78
1, 186035, Control_c, 0, 64, 80
1, 186035, Control_c, 0, 67, 41
1, 186050, Control_c, 0, 64, 82
1, 186065, Control_c, 0, 64, 84
1, 186080, Control_c, 0, 64, 87
1, 186080, Control_c, 0, 67, 41
1, 186095, Control_c, 0, 64, 89
1, 186099, Note_off_c, 0, 70, 15
1, 186110, Control_c, 0, 64, 90
1, 186124, Control_c, 0, 64, 93
1, 186134, Note_off_c, 0, 54, 41
1, 186139, Control_c, 0, 64, 100
1, 186146, Note_off_c, 0, 73, 33
1, 186154, Control_c, 0, 64, 110
1, 186169, Control_c, 0, 64, 115
1, 186173, Note_off_c, 0, 85, 40
1, 186196, Note_off_c, 0, 78, 29
1, 186214, Control_c, 0, 64, 122
1, 186229, Control_c, 0, 64, 127
1, 186229, Control_c, 0, 67, 40
1, 186539, Control_c, 0, 67, 41
1, 186568, Control_c, 0, 67, 41
1, 186598, Control_c, 0, 67, 42
1, 186612, Control_c, 0, 67, 42
1, 186672, Control_c, 0, 67, 43
1, 186686, Control_c, 0, 67, 44
1, 186739, Control_c, 0, 67, 44
1, 186753, Control_c, 0, 67, 45
1, 186813, Control_c, 0, 64, 83
1, 186827, Control_c, 0, 64, 65
1, 186842, Control_c, 0, 64, 53
1, 186857, Note_on_c, 0, 30, 34
1, 186857, Control_c, 0, 64, 52
1, 186872, Control_c, 0, 64, 55
1, 186872, Control_c, 0, 67, 44
1, 186887, Control_c, 0, 64, 60
1, 186887, Control_c, 0, 67, 43
1, 186901, Control_c, 0, 64, 64
1, 186901, Control_c, 0, 67, 42
1, 186916, Control_c, 0, 64, 69
1, 186923, Note_off_c, 0, 30, 60
1, 186931, Control_c, 0, 64, 78
1, 186931, Control_c, 0, 67, 42
1, 186945, Control_c, 0, 64, 94
1, 186945, Control_c, 0, 67, 41
1, 186960, Control_c, 0, 64, 127
1, 186960, Control_c, 0, 67, 40
1, 187006, Control_c, 0, 67, 39
1, 187037, Control_c, 0, 67, 39
1, 187170, Control_c, 0, 67, 38
1, 187214, Control_c, 0, 67, 37
1, 187229, Control_c, 0, 67, 37
1, 187258, Control_c, 0, 67, 36
1, 187314, Note_on_c, 0, 83, 50
1, 187323, Note_on_c, 0, 71, 16
1, 187323, Note_on_c, 0, 78, 41
1, 187329, Note_on_c, 0, 62, 32
1, 187329, Note_on_c, 0, 66, 20
1, 187329, Note_on_c, 0, 74, 37
1, 187332, Control_c, 0, 67, 36
1, 187362, Control_c, 0, 67, 35
1, 187406, Control_c, 0, 67, 34
1, 187475, Note_off_c, 0, 71, 35
1, 187478, Note_off_c, 0, 66, 34
1, 187488, Control_c, 0, 67, 34
1, 187490, Note_off_c, 0, 83, 60
1, 187497, Note_off_c, 0, 62, 34
1, 187503, Control_c, 0, 67, 32
1, 187506, Note_off_c, 0, 78, 43
1, 187523, Note_off_c, 0, 74, 35
1, 187547, Control_c, 0, 67, 32
1, 187635, Note_on_c, 0, 81, 57
1, 187644, Note_on_c, 0, 74, 46
1, 187646, Note_on_c, 0, 62, 32
1, 187646, Note_on_c, 0, 71, 45
1, 187648, Note_on_c, 0, 66, 33
1, 187654, Note_on_c, 0, 78, 42
1, 187737, Note_off_c, 0, 71, 49
1, 187746, Note_off_c, 0, 62, 39
1, 187751, Note_off_c, 0, 66, 37
1, 187761, Note_off_c, 0, 81, 64
1, 187770, Control_c, 0, 67, 31
1, 187783, Note_off_c, 0, 74, 56
1, 187810, Note_off_c, 0, 78, 45
1, 187874, Control_c, 0, 67, 31
1, 187883, Note_on_c, 0, 80, 71
1, 187897, Note_on_c, 0, 66, 40
1, 187900, Note_on_c, 0, 71, 38
1, 187904, Note_on_c, 0, 62, 34
1, 187904, Control_c, 0, 67, 30
1, 187911, Note_on_c, 0, 78, 53
1, 187912, Note_on_c, 0, 74, 53
1, 187981, Note_off_c, 0, 62, 51
1, 187989, Note_off_c, 0, 66, 53
1, 187991, Note_off_c, 0, 74, 60
1, 187994, Note_off_c, 0, 71, 54
1, 188002, Note_off_c, 0, 78, 58
1, 188022, Control_c, 0, 67, 29
1, 188058, Note_off_c, 0, 80, 57
1, 188134, Note_on_c, 0, 86, 80
1, 188154, Note_on_c, 0, 66, 39
1, 188161, Note_on_c, 0, 78, 66
1, 188162, Note_on_c, 0, 74, 54
1, 188163, Note_on_c, 0, 71, 43
1, 188168, Note_on_c, 0, 62, 38
1, 188254, Note_off_c, 0, 62, 49
1, 188267, Note_off_c, 0, 74, 51
1, 188271, Note_off_c, 0, 71, 53
1, 188289, Note_off_c, 0, 86, 64
1, 188298, Note_off_c, 0, 78, 53
1, 188307, Note_off_c, 0, 66, 34
1, 188390, Note_on_c, 0, 85, 88
1, 188404, Note_on_c, 0, 66, 57
1, 188414, Control_c, 0, 67, 29
1, 188417, Note_on_c, 0, 74, 50
1, 188419, Note_on_c, 0, 71, 44
1, 188420, Note_on_c, 0, 62, 39
1, 188422, Note_on_c, 0, 78, 60
1, 188459, Note_off_c, 0, 74, 56
1, 188470, Note_off_c, 0, 78, 55
1, 188492, Note_off_c, 0, 71, 35
1, 188501, Note_off_c, 0, 66, 55
1, 188521, Note_off_c, 0, 62, 49
1, 188639, Note_on_c, 0, 83, 84
1, 188643, Note_on_c, 0, 66, 59
1, 188653, Note_on_c, 0, 78, 65
1, 188654, Note_on_c, 0, 71, 52
1, 188664, Note_on_c, 0, 62, 35
1, 188666, Note_off_c, 0, 85, 65
1, 188678, Note_off_c, 0, 78, 64
1, 188693, Note_off_c, 0, 62, 53
1, 188694, Note_off_c, 0, 83, 66
1, 188702, Note_off_c, 0, 71, 61
1, 188706, Note_off_c, 0, 66, 60
1, 188727, Control_c, 0, 67, 29
1, 188771, Control_c, 0, 67, 30
1, 188860, Control_c, 0, 67, 31
1, 188875, Control_c, 0, 67, 31
1, 188904, Control_c, 0, 67, 32
1, 188910, Note_on_c, 0, 90, 85
1, 188919, Control_c, 0, 67, 34
1, 188930, Note_on_c, 0, 71, 43
1, 188934, Control_c, 0, 67, 34
1, 188937, Note_on_c, 0, 74, 41
1, 188941, Note_on_c, 0, 66, 43
1, 188968, Note_on_c, 0, 83, 40
1, 188971, Control_c, 0, 64, 96
1, 188977, Note_on_c, 0, 78, 19
1, 188986, Control_c, 0, 64, 82
1, 189001, Control_c, 0, 64, 81
1, 189015, Control_c, 0, 64, 86
1, 189030, Control_c, 0, 64, 100
1, 189037, Note_off_c, 0, 78, 0
1, 189045, Control_c, 0, 64, 127
1, 189045, Control_c, 0, 67, 34
1, 189071, Note_off_c, 0, 71, 55
1, 189075, Poly_aftertouch_c, 0, 78, 127
1, 189077, Note_off_c, 0, 83, 35
1, 189079, Note_off_c, 0, 74, 55
1, 189096, Note_off_c, 0, 66, 34
1, 189118, Poly_aftertouch_c, 0, 78, 0
1, 189149, Control_c, 0, 67, 34
1, 189178, Control_c, 0, 64, 96
1, 189193, Control_c, 0, 64, 89
1, 189195, Note_on_c, 0, 88, 77
1, 189208, Control_c, 0, 64, 84
1, 189214, Note_on_c, 0, 74, 42
1, 189219, Note_on_c, 0, 66, 50
1, 189219, Note_on_c, 0, 71, 47
1, 189222, Control_c, 0, 64, 81
1, 189236, Note_on_c, 0, 83, 36
1, 189237, Control_c, 0, 64, 80
1, 189239, Note_on_c, 0, 78, 31
1, 189252, Control_c, 0, 64, 82
1, 189267, Control_c, 0, 64, 90
1, 189282, Control_c, 0, 64, 119
1, 189296, Control_c, 0, 64, 127
1, 189329, Note_off_c, 0, 71, 58
1, 189335, Note_off_c, 0, 74, 44
1, 189347, Note_off_c, 0, 78, 26
1, 189361, Note_off_c, 0, 66, 33
1, 189380, Note_off_c, 0, 83, 40
1, 189460, Control_c, 0, 64, 95
1, 189467, Note_off_c, 0, 90, 27
1, 189475, Control_c, 0, 64, 75
1, 189479, Note_on_c, 0, 86, 66
1, 189490, Control_c, 0, 64, 67
1, 189494, Note_on_c, 0, 66, 38
1, 189499, Note_on_c, 0, 74, 36
1, 189505, Control_c, 0, 64, 64
1, 189511, Note_on_c, 0, 71, 30
1, 189520, Control_c, 0, 64, 64
1, 189524, Note_on_c, 0, 78, 12
1, 189550, Control_c, 0, 64, 65
1, 189550, Poly_aftertouch_c, 0, 83, 127
1, 189564, Control_c, 0, 64, 67
1, 189578, Note_off_c, 0, 78, 44
1, 189579, Control_c, 0, 64, 71
1, 189590, Note_off_c, 0, 88, 33
1, 189594, Control_c, 0, 64, 76
1, 189597, Poly_aftertouch_c, 0, 83, 0
1, 189609, Control_c, 0, 64, 81
1, 189621, Note_off_c, 0, 86, 61
1, 189624, Control_c, 0, 64, 84
1, 189638, Control_c, 0, 64, 91
1, 189638, Control_c, 0, 67, 34
1, 189639, Note_off_c, 0, 71, 45
1, 189643, Note_off_c, 0, 66, 35
1, 189648, Note_off_c, 0, 74, 35
1, 189653, Control_c, 0, 64, 119
1, 189653, Control_c, 0, 67, 33
1, 189668, Control_c, 0, 64, 127
1, 189668, Control_c, 0, 67, 32
1, 189794, Control_c, 0, 64, 90
1, 189797, Note_on_c, 0, 85, 58
1, 189809, Control_c, 0, 64, 72
1, 189812, Note_on_c, 0, 66, 30
1, 189824, Control_c, 0, 64, 64
1, 189829, Note_on_c, 0, 74, 17
1, 189832, Note_on_c, 0, 68, 34
1, 189838, Control_c, 0, 64, 62
1, 189868, Control_c, 0, 64, 63
1, 189871, Poly_aftertouch_c, 0, 78, 127
1, 189883, Control_c, 0, 64, 66
1, 189898, Control_c, 0, 64, 70
1, 189912, Control_c, 0, 64, 77
1, 189916, Poly_aftertouch_c, 0, 78, 0
1, 189927, Control_c, 0, 64, 91
1, 189942, Control_c, 0, 64, 109
1, 189957, Control_c, 0, 64, 127
1, 189970, Note_off_c, 0, 74, 34
1, 189976, Note_off_c, 0, 66, 39
1, 189997, Note_off_c, 0, 68, 30
1, 190014, Note_off_c, 0, 85, 37
1, 190179, Control_c, 0, 64, 90
1, 190181, Note_on_c, 0, 68, 33
1, 190185, Note_on_c, 0, 83, 46
1, 190194, Control_c, 0, 64, 70
1, 190200, Note_on_c, 0, 74, 25
1, 190207, Note_on_c, 0, 66, 23
1, 190208, Control_c, 0, 64, 63
1, 190214, Note_on_c, 0, 78, 9
1, 190223, Control_c, 0, 64, 62
1, 190238, Control_c, 0, 64, 63
1, 190253, Control_c, 0, 64, 66
1, 190268, Control_c, 0, 64, 70
1, 190270, Note_off_c, 0, 74, 61
1, 190277, Note_off_c, 0, 68, 53
1, 190283, Control_c, 0, 64, 78
1, 190298, Control_c, 0, 64, 94
1, 190313, Control_c, 0, 64, 122
1, 190325, Note_off_c, 0, 66, 36
1, 190328, Control_c, 0, 64, 127
1, 190372, Control_c, 0, 67, 33
1, 190431, Control_c, 0, 67, 34
1, 190446, Control_c, 0, 67, 34
1, 190527, Control_c, 0, 67, 35
1, 190587, Control_c, 0, 67, 36
1, 190604, Note_off_c, 0, 78, 31
1, 190959, Note_on_c, 0, 30, 33
1, 190988, Control_c, 0, 64, 96
1, 191003, Control_c, 0, 64, 73
1, 191018, Control_c, 0, 64, 62
1, 191032, Control_c, 0, 64, 54
1, 191062, Control_c, 0, 64, 57
1, 191076, Control_c, 0, 64, 60
1, 191082, Note_off_c, 0, 83, 28
1, 191091, Control_c, 0, 64, 63
1, 191106, Control_c, 0, 64, 67
1, 191121, Control_c, 0, 64, 73
1, 191136, Control_c, 0, 64, 84
1, 191150, Control_c, 0, 64, 97
1, 191165, Control_c, 0, 64, 127
1, 191231, Note_off_c, 0, 30, 38
1, 191742, Note_on_c, 0, 94, 47
1, 191747, Note_on_c, 0, 61, 31
1, 191751, Note_on_c, 0, 66, 37
1, 191760, Note_on_c, 0, 85, 33
1, 191764, Note_on_c, 0, 82, 34
1, 191766, Note_on_c, 0, 90, 39
1, 191773, Note_on_c, 0, 73, 5
1, 191779, Note_on_c, 0, 70, 28
1, 191802, Note_off_c, 0, 85, 55
1, 191807, Note_off_c, 0, 82, 49
1, 191809, Note_off_c, 0, 90, 56
1, 191816, Note_off_c, 0, 94, 62
1, 191823, Note_off_c, 0, 70, 49
1, 191828, Note_off_c, 0, 66, 52
1, 191828, Note_off_c, 0, 73, 48
1, 191854, Note_off_c, 0, 61, 38
1, 192108, Note_on_c, 0, 94, 45
1, 192119, Note_on_c, 0, 82, 36
1, 192122, Note_on_c, 0, 85, 37
1, 192127, Note_on_c, 0, 90, 34
1, 192133, Note_on_c, 0, 66, 24
1, 192136, Note_on_c, 0, 61, 28
1, 192149, Note_on_c, 0, 70, 27
1, 192150, Note_on_c, 0, 73, 20
1, 192203, Control_c, 0, 67, 37
1, 192218, Control_c, 0, 67, 37
1, 192232, Control_c, 0, 67, 38
1, 192247, Control_c, 0, 67, 39
1, 192262, Control_c, 0, 67, 40
1, 192277, Control_c, 0, 67, 41
1, 192292, Control_c, 0, 67, 42
1, 192307, Control_c, 0, 67, 44
1, 192322, Control_c, 0, 67, 44
1, 192334, Note_off_c, 0, 73, 42
1, 192337, Control_c, 0, 67, 46
1, 192352, Control_c, 0, 67, 47
1, 192360, Note_off_c, 0, 70, 43
1, 192365, Note_off_c, 0, 66, 39
1, 192366, Control_c, 0, 67, 49
1, 192381, Control_c, 0, 67, 50
1, 192396, Control_c, 0, 67, 51
1, 192411, Control_c, 0, 67, 52
1, 192415, Note_off_c, 0, 61, 41
1, 192426, Control_c, 0, 67, 54
1, 192440, Control_c, 0, 67, 56
1, 192455, Control_c, 0, 67, 57
1, 192470, Control_c, 0, 67, 59
1, 192485, Control_c, 0, 67, 59
1, 192500, Control_c, 0, 67, 61
1, 192514, Control_c, 0, 67, 62
1, 192529, Control_c, 0, 67, 68
1, 192544, Control_c, 0, 67, 78
1, 192560, Control_c, 0, 67, 87
1, 192575, Control_c, 0, 67, 95
1, 192590, Control_c, 0, 67, 102
1, 192604, Control_c, 0, 67, 109
1, 192619, Control_c, 0, 67, 115
1, 192634, Control_c, 0, 67, 122
1, 192649, Control_c, 0, 67, 127
1, 192732, Note_off_c, 0, 82, 36
1, 192737, Note_off_c, 0, 94, 41
1, 192740, Note_off_c, 0, 85, 35
1, 192762, Note_off_c, 0, 90, 34
1, 193159, Control_c, 0, 64, 115
1, 193161, Note_on_c, 0, 30, 41
1, 193174, Control_c, 0, 64, 69
1, 193189, Control_c, 0, 64, 53
1, 193204, Control_c, 0, 64, 41
1, 193234, Control_c, 0, 64, 48
1, 193247, Note_off_c, 0, 30, 60
1, 193249, Control_c, 0, 64, 58
1, 193263, Control_c, 0, 64, 65
1, 193278, Control_c, 0, 64, 80
1, 193293, Control_c, 0, 64, 127
1, 193634, Note_on_c, 0, 90, 55
1, 193663, Note_on_c, 0, 78, 42
1, 193663, Note_on_c, 0, 74, 29
1, 193678, Note_on_c, 0, 69, 18
1, 193686, Note_on_c, 0, 66, 23
1, 193697, Note_on_c, 0, 62, 15
1, 193753, Note_off_c, 0, 78, 49
1, 193765, Note_off_c, 0, 62, 42
1, 193771, Note_off_c, 0, 74, 41
1, 193786, Note_off_c, 0, 69, 40
1, 193789, Note_off_c, 0, 66, 34
1, 193819, Note_off_c, 0, 90, 51
1, 193943, Note_on_c, 0, 88, 54
1, 193952, Note_on_c, 0, 78, 41
1, 193955, Note_on_c, 0, 69, 31
1, 193957, Note_on_c, 0, 74, 36
1, 193958, Note_on_c, 0, 66, 19
1, 193984, Note_on_c, 0, 62, 22
1, 194035, Note_off_c, 0, 62, 45
1, 194054, Note_off_c, 0, 88, 52
1, 194072, Note_off_c, 0, 78, 34
1, 194075, Note_off_c, 0, 74, 37
1, 194082, Note_off_c, 0, 69, 36
1, 194083, Note_off_c, 0, 66, 38
1, 194238, Note_on_c, 0, 86, 52
1, 194253, Note_on_c, 0, 69, 27
1, 194262, Note_on_c, 0, 66, 20
1, 194267, Note_on_c, 0, 74, 27
1, 194285, Poly_aftertouch_c, 0, 78, 127
1, 194325, Poly_aftertouch_c, 0, 62, 127
1, 194335, Note_off_c, 0, 86, 61
1, 194339, Poly_aftertouch_c, 0, 78, 0
1, 194363, Poly_aftertouch_c, 0, 62, 0
1, 194370, Note_off_c, 0, 74, 33
1, 194390, Note_off_c, 0, 69, 34
1, 194394, Note_off_c, 0, 66, 34
1, 194554, Note_on_c, 0, 85, 48
1, 194561, Note_on_c, 0, 69, 34
1, 194565, Note_on_c, 0, 74, 27
1, 194574, Note_on_c, 0, 66, 23
1, 194587, Note_on_c, 0, 62, 29
1, 194599, Note_on_c, 0, 78, 6
1, 194649, Note_off_c, 0, 78, 46
1, 194653, Note_off_c, 0, 85, 54
1, 194687, Note_off_c, 0, 74, 36
1, 194697, Note_off_c, 0, 62, 28
1, 194703, Note_off_c, 0, 66, 30
1, 194706, Note_off_c, 0, 69, 33
1, 194943, Note_on_c, 0, 84, 41
1, 194947, Note_on_c, 0, 66, 9
1, 194961, Note_on_c, 0, 69, 31
1, 194962, Note_on_c, 0, 74, 26
1, 194967, Note_on_c, 0, 78, 29
1, 194984, Note_on_c, 0, 62, 23
1, 195064, Note_off_c, 0, 74, 57
1, 195102, Note_off_c, 0, 66, 40
1, 195108, Note_off_c, 0, 69, 35
1, 195143, Note_off_c, 0, 62, 37
1, 195154, Note_off_c, 0, 84, 31
1, 195156, Note_off_c, 0, 78, 35
1, 195678, Note_on_c, 0, 30, 44
1, 195711, Control_c, 0, 64, 82
1, 195726, Control_c, 0, 64, 64
1, 195740, Control_c, 0, 64, 51
1, 195756, Control_c, 0, 64, 49
1, 195771, Control_c, 0, 64, 49
1, 195786, Control_c, 0, 64, 56
1, 195800, Control_c, 0, 64, 62
1, 195815, Control_c, 0, 64, 68
1, 195830, Control_c, 0, 64, 79
1, 195845, Control_c, 0, 64, 103
1, 195851, Note_off_c, 0, 30, 54
1, 195860, Control_c, 0, 64, 127
1, 196459, Note_on_c, 0, 85, 38
1, 196459, Note_on_c, 0, 94, 55
1, 196468, Note_on_c, 0, 90, 46
1, 196474, Note_on_c, 0, 73, 32
1, 196478, Note_on_c, 0, 66, 31
1, 196479, Note_on_c, 0, 61, 37
1, 196480, Note_on_c, 0, 82, 40
1, 196489, Note_on_c, 0, 70, 28
1, 196538, Note_off_c, 0, 82, 57
1, 196540, Note_off_c, 0, 85, 62
1, 196549, Note_off_c, 0, 90, 60
1, 196549, Note_off_c, 0, 94, 62
1, 196561, Note_off_c, 0, 70, 50
1, 196561, Note_off_c, 0, 73, 57
1, 196562, Note_off_c, 0, 66, 53
1, 196571, Note_off_c, 0, 61, 52
1, 196841, Note_on_c, 0, 90, 41
1, 196841, Note_on_c, 0, 85, 42
1, 196842, Note_on_c, 0, 94, 48
1, 196844, Note_on_c, 0, 82, 39
1, 196853, Note_on_c, 0, 66, 30
1, 196857, Note_on_c, 0, 61, 30
1, 196871, Note_on_c, 0, 70, 26
1, 196871, Note_on_c, 0, 73, 18
1, 197130, Note_off_c, 0, 73, 42
1, 197167, Note_off_c, 0, 70, 41
1, 197184, Note_off_c, 0, 66, 40
1, 197258, Note_off_c, 0, 61, 45
1, 197562, Note_off_c, 0, 94, 51
1, 197598, Note_off_c, 0, 82, 54
1, 197664, Note_off_c, 0, 85, 40
1, 197702, Note_off_c, 0, 90, 35
1, 197933, Control_c, 0, 64, 80
1, 197956, Control_c, 0, 64, 64
1, 197958, Note_on_c, 0, 30, 38
1, 197971, Control_c, 0, 64, 56
1, 197985, Control_c, 0, 64, 53
1, 198000, Control_c, 0, 64, 54
1, 198015, Control_c, 0, 64, 59
1, 198018, Note_off_c, 0, 30, 62
1, 198030, Control_c, 0, 64, 64
1, 198045, Control_c, 0, 64, 70
1, 198059, Control_c, 0, 64, 80
1, 198074, Control_c, 0, 64, 104
1, 198089, Control_c, 0, 64, 127
1, 198407, Note_on_c, 0, 90, 54
1, 198426, Note_on_c, 0, 78, 35
1, 198428, Note_on_c, 0, 74, 23
1, 198432, Note_on_c, 0, 62, 27
1, 198432, Note_on_c, 0, 69, 37
1, 198435, Note_on_c, 0, 66, 31
1, 198501, Note_off_c, 0, 78, 39
1, 198519, Note_off_c, 0, 74, 47
1, 198521, Note_off_c, 0, 90, 49
1, 198525, Note_off_c, 0, 69, 49
1, 198539, Note_off_c, 0, 62, 38
1, 198540, Note_off_c, 0, 66, 37
1, 198734, Note_on_c, 0, 88, 56
1, 198753, Note_on_c, 0, 69, 34
1, 198754, Note_on_c, 0, 66, 19
1, 198760, Note_on_c, 0, 62, 25
1, 198761, Note_on_c, 0, 78, 29
1, 198764, Note_on_c, 0, 74, 19
1, 198817, Note_off_c, 0, 78, 40
1, 198826, Note_off_c, 0, 74, 43
1, 198835, Note_off_c, 0, 88, 61
1, 198846, Note_off_c, 0, 69, 54
1, 198877, Note_off_c, 0, 66, 32
1, 198894, Note_off_c, 0, 62, 30
1, 199044, Note_on_c, 0, 86, 40
1, 199047, Note_on_c, 0, 66, 22
1, 199051, Note_on_c, 0, 69, 20
1, 199055, Note_on_c, 0, 62, 29
1, 199059, Note_on_c, 0, 74, 31
1, 199072, Note_on_c, 0, 78, 16
1, 199122, Note_off_c, 0, 74, 58
1, 199123, Note_off_c, 0, 86, 54
1, 199126, Note_off_c, 0, 78, 44
1, 199196, Note_off_c, 0, 69, 38
1, 199204, Note_off_c, 0, 66, 38
1, 199217, Note_off_c, 0, 62, 30
1, 199378, Note_on_c, 0, 85, 39
1, 199383, Note_on_c, 0, 69, 22
1, 199388, Note_on_c, 0, 62, 16
1, 199390, Note_on_c, 0, 74, 29
1, 199395, Note_on_c, 0, 66, 19
1, 199472, Poly_aftertouch_c, 0, 78, 0
1, 199489, Note_off_c, 0, 74, 40
1, 199512, Note_off_c, 0, 69, 36
1, 199536, Note_off_c, 0, 66, 28
1, 199545, Note_off_c, 0, 62, 30
1, 199557, Note_off_c, 0, 85, 24
1, 199763, Note_on_c, 0, 84, 36
1, 199772, Note_on_c, 0, 74, 23
1, 199776, Note_on_c, 0, 66, 17
1, 199777, Note_on_c, 0, 69, 32
1, 199792, Note_on_c, 0, 62, 21
1, 199815, Note_on_c, 0, 78, 14
1, 199847, Note_off_c, 0, 74, 51
1, 199855, Note_off_c, 0, 69, 57
1, 199905, Note_off_c, 0, 66, 41
1, 199917, Note_off_c, 0, 62, 50
1, 199950, Note_off_c, 0, 78, 25
1, 200076, Note_off_c, 0, 84, 41
1, 200583, Note_on_c, 0, 30, 35
1, 200633, Control_c, 0, 64, 74
1, 200647, Control_c, 0, 64, 60
1, 200662, Control_c, 0, 64, 43
1, 200677, Control_c, 0, 64, 36
1, 200692, Control_c, 0, 64, 39
1, 200707, Control_c, 0, 64, 51
1, 200722, Control_c, 0, 64, 59
1, 200737, Control_c, 0, 64, 64
1, 200751, Control_c, 0, 64, 69
1, 200766, Control_c, 0, 64, 79
1, 200781, Control_c, 0, 64, 98
1, 200786, Note_off_c, 0, 30, 53
1, 200796, Control_c, 0, 64, 127
1, 201385, Note_on_c, 0, 66, 34
1, 201387, Note_on_c, 0, 94, 42
1, 201388, Note_on_c, 0, 85, 40
1, 201390, Note_on_c, 0, 70, 34
1, 201391, Note_on_c, 0, 90, 39
1, 201397, Note_on_c, 0, 73, 31
1, 201400, Note_on_c, 0, 61, 41
1, 201400, Note_on_c, 0, 82, 39
1, 201457, Note_off_c, 0, 85, 55
1, 201459, Note_off_c, 0, 94, 56
1, 201461, Note_off_c, 0, 82, 54
1, 201463, Note_off_c, 0, 90, 55
1, 201487, Note_off_c, 0, 73, 56
1, 201502, Note_off_c, 0, 70, 50
1, 201522, Note_off_c, 0, 61, 38
1, 201530, Note_off_c, 0, 66, 34
1, 201756, Note_on_c, 0, 73, 37
1, 201762, Note_on_c, 0, 94, 48
1, 201767, Note_on_c, 0, 90, 39
1, 201768, Note_on_c, 0, 85, 40
1, 201768, Note_on_c, 0, 82, 41
1, 201771, Note_on_c, 0, 70, 38
1, 201783, Note_on_c, 0, 66, 33
1, 201795, Note_on_c, 0, 61, 29
1, 202716, Note_off_c, 0, 61, 30
1, 202787, Note_off_c, 0, 85, 35
1, 202883, Note_off_c, 0, 94, 37
1, 202913, Note_off_c, 0, 82, 35
1, 202926, Note_off_c, 0, 90, 36
1, 202942, Note_off_c, 0, 70, 33
1, 203005, Note_off_c, 0, 66, 37
1, 203036, Note_off_c, 0, 73, 41
1, 203399, Note_on_c, 0, 75, 33
1, 203408, Note_on_c, 0, 94, 43
1, 203410, Note_on_c, 0, 87, 40
1, 203413, Note_on_c, 0, 90, 40
1, 203416, Note_on_c, 0, 66, 37
1, 203417, Note_on_c, 0, 82, 32
1, 203421, Note_on_c, 0, 70, 41
1, 203423, Note_on_c, 0, 63, 34
1, 203435, Control_c, 0, 64, 96
1, 203450, Control_c, 0, 64, 72
1, 203465, Control_c, 0, 64, 63
1, 203480, Control_c, 0, 64, 61
1, 203494, Control_c, 0, 64, 63
1, 203509, Control_c, 0, 64, 66
1, 203524, Control_c, 0, 64, 72
1, 203539, Control_c, 0, 64, 80
1, 203554, Control_c, 0, 64, 90
1, 203569, Control_c, 0, 64, 105
1, 203584, Control_c, 0, 64, 127
1, 203604, Note_off_c, 0, 94, 47
1, 203605, Note_off_c, 0, 87, 48
1, 203614, Note_off_c, 0, 82, 40
1, 203622, Note_off_c, 0, 90, 41
1, 203640, Note_off_c, 0, 70, 36
1, 203641, Note_off_c, 0, 63, 37
1, 203643, Note_off_c, 0, 75, 35
1, 203659, Note_off_c, 0, 66, 36
1, 203804, Note_on_c, 0, 87, 36
1, 203810, Note_on_c, 0, 82, 33
1, 203817, Note_on_c, 0, 75, 24
1, 203819, Note_on_c, 0, 90, 41
1, 203820, Note_on_c, 0, 94, 38
1, 203822, Note_on_c, 0, 66, 38
1, 203829, Note_on_c, 0, 63, 26
1, 203832, Note_on_c, 0, 70, 39
1, 204201, Note_off_c, 0, 75, 41
1, 204217, Note_off_c, 0, 70, 42
1, 204250, Note_off_c, 0, 66, 40
1, 204274, Note_off_c, 0, 63, 53
1, 204767, Note_off_c, 0, 94, 38
1, 204821, Note_off_c, 0, 87, 41
1, 204848, Note_off_c, 0, 90, 34
1, 204851, Note_off_c, 0, 82, 35
1, 205116, Note_on_c, 0, 30, 39
1, 205140, Control_c, 0, 64, 81
1, 205155, Control_c, 0, 64, 65
1, 205169, Control_c, 0, 64, 50
1, 205184, Control_c, 0, 64, 22
1, 205199, Control_c, 0, 64, 24
1, 205214, Control_c, 0, 64, 47
1, 205229, Control_c, 0, 64, 61
1, 205244, Control_c, 0, 64, 65
1, 205258, Control_c, 0, 64, 70
1, 205273, Control_c, 0, 64, 77
1, 205288, Control_c, 0, 64, 107
1, 205299, Note_off_c, 0, 30, 52
1, 205303, Control_c, 0, 64, 127
1, 205853, Note_on_c, 0, 94, 41
1, 205855, Note_on_c, 0, 61, 29
1, 205857, Note_on_c, 0, 82, 35
1, 205866, Note_on_c, 0, 90, 33
1, 205867, Note_on_c, 0, 85, 38
1, 205874, Note_on_c, 0, 58, 37
1, 205880, Note_on_c, 0, 66, 29
1, 205880, Note_on_c, 0, 70, 30
1, 205937, Note_off_c, 0, 85, 58
1, 205950, Note_off_c, 0, 82, 54
1, 205954, Note_off_c, 0, 94, 57
1, 205957, Note_off_c, 0, 90, 53
1, 205969, Note_off_c, 0, 70, 50
1, 205971, Note_off_c, 0, 58, 55
1, 205973, Note_off_c, 0, 61, 44
1, 206001, Note_off_c, 0, 66, 35
1, 206255, Note_on_c, 0, 61, 25
1, 206255, Note_on_c, 0, 90, 28
1, 206255, Note_on_c, 0, 82, 21
1, 206257, Note_on_c, 0, 94, 31
1, 206260, Note_on_c, 0, 58, 30
1, 206260, Note_on_c, 0, 85, 32
1, 206264, Note_on_c, 0, 66, 23
1, 206268, Note_on_c, 0, 70, 9
1, 206362, Note_off_c, 0, 85, 0
1, 206400, Poly_aftertouch_c, 0, 85, 127
1, 207038, Note_off_c, 0, 58, 40
1, 207092, Note_off_c, 0, 70, 42
1, 207117, Note_off_c, 0, 66, 38
1, 207119, Poly_aftertouch_c, 0, 85, 0
1, 207125, Note_off_c, 0, 61, 41
1, 207134, Note_off_c, 0, 82, 37
1, 207158, Note_off_c, 0, 94, 37
1, 207182, Note_off_c, 0, 90, 34
1, 207962, Note_on_c, 0, 65, 30
1, 207963, Note_on_c, 0, 89, 43
1, 207969, Note_on_c, 0, 94, 33
1, 207976, Note_on_c, 0, 70, 33
1, 207976, Note_on_c, 0, 82, 30
1, 207976, Note_on_c, 0, 85, 31
1, 207983, Note_on_c, 0, 73, 28
1, 207988, Note_on_c, 0, 61, 35
1, 208016, Control_c, 0, 64, 92
1, 208031, Control_c, 0, 64, 72
1, 208046, Control_c, 0, 64, 62
1, 208061, Control_c, 0, 64, 52
1, 208076, Control_c, 0, 64, 50
1, 208090, Control_c, 0, 64, 54
1, 208105, Control_c, 0, 64, 60
1, 208120, Control_c, 0, 64, 64
1, 208134, Control_c, 0, 64, 66
1, 208149, Control_c, 0, 64, 69
1, 208164, Control_c, 0, 64, 73
1, 208175, Note_off_c, 0, 73, 42
1, 208179, Control_c, 0, 64, 76
1, 208183, Note_off_c, 0, 61, 43
1, 208189, Note_off_c, 0, 89, 49
1, 208194, Note_off_c, 0, 70, 42
1, 208194, Control_c, 0, 64, 80
1, 208195, Note_off_c, 0, 85, 41
1, 208206, Note_off_c, 0, 65, 38
1, 208207, Note_off_c, 0, 82, 39
1, 208208, Note_off_c, 0, 94, 43
1, 208208, Control_c, 0, 64, 81
1, 208238, Control_c, 0, 64, 82
1, 208253, Control_c, 0, 64, 83
1, 208268, Control_c, 0, 64, 87
1, 208282, Control_c, 0, 64, 89
1, 208312, Control_c, 0, 64, 90
1, 208326, Control_c, 0, 64, 94
1, 208341, Control_c, 0, 64, 102
1, 208356, Control_c, 0, 64, 112
1, 208371, Control_c, 0, 64, 122
1, 208386, Control_c, 0, 64, 127
1, 208390, Note_on_c, 0, 89, 38
1, 208394, Note_on_c, 0, 82, 15
1, 208395, Note_on_c, 0, 94, 22
1, 208407, Note_on_c, 0, 85, 36
1, 208408, Note_on_c, 0, 70, 26
1, 208410, Note_on_c, 0, 65, 12
1, 208416, Note_on_c, 0, 73, 24
1, 208421, Note_on_c, 0, 61, 28
1, 208901, Note_off_c, 0, 73, 42
1, 208928, Note_off_c, 0, 70, 42
1, 208941, Note_off_c, 0, 65, 40
1, 209014, Note_off_c, 0, 61, 40
1, 209764, Note_off_c, 0, 82, 35
1, 209817, Note_off_c, 0, 85, 37
1, 209817, Note_off_c, 0, 94, 40
1, 209836, Note_off_c, 0, 89, 40
1, 209957, Note_on_c, 0, 30, 30
1, 209966, Control_c, 0, 64, 82
1, 209981, Control_c, 0, 64, 67
1, 209996, Control_c, 0, 64, 60
1, 210010, Control_c, 0, 64, 58
1, 210040, Control_c, 0, 64, 60
1, 210055, Control_c, 0, 64, 63
1, 210070, Control_c, 0, 64, 67
1, 210085, Control_c, 0, 64, 73
1, 210100, Control_c, 0, 64, 83
1, 210114, Control_c, 0, 64, 102
1, 210130, Control_c, 0, 64, 127
1, 210187, Note_off_c, 0, 30, 39
1, 210777, Note_on_c, 0, 94, 46
1, 210789, Note_on_c, 0, 85, 40
1, 210790, Note_on_c, 0, 66, 26
1, 210791, Note_on_c, 0, 82, 35
1, 210794, Note_on_c, 0, 90, 36
1, 210797, Note_on_c, 0, 73, 32
1, 210800, Note_on_c, 0, 61, 32
1, 210811, Note_on_c, 0, 70, 31
1, 210867, Note_off_c, 0, 85, 55
1, 210879, Note_off_c, 0, 94, 54
1, 210881, Note_off_c, 0, 90, 54
1, 210905, Note_off_c, 0, 82, 37
1, 210929, Note_off_c, 0, 73, 35
1, 210933, Note_off_c, 0, 70, 35
1, 210949, Note_off_c, 0, 66, 41
1, 210969, Note_off_c, 0, 61, 39
1, 211149, Note_on_c, 0, 94, 53
1, 211158, Note_on_c, 0, 73, 36
1, 211158, Note_on_c, 0, 85, 44
1, 211161, Note_on_c, 0, 61, 25
1, 211163, Note_on_c, 0, 82, 33
1, 211167, Note_on_c, 0, 90, 41
1, 211173, Note_on_c, 0, 70, 40
1, 211175, Note_on_c, 0, 66, 31
1, 212180, Note_off_c, 0, 61, 36
1, 212359, Note_off_c, 0, 85, 62
1, 212448, Note_off_c, 0, 94, 29
1, 212459, Note_off_c, 0, 70, 37
1, 212463, Note_off_c, 0, 90, 28
1, 212480, Note_off_c, 0, 66, 35
1, 212485, Note_off_c, 0, 73, 44
1, 212485, Note_off_c, 0, 82, 38
1, 212947, Note_on_c, 0, 87, 37
1, 212950, Note_on_c, 0, 94, 43
1, 212954, Note_on_c, 0, 82, 32
1, 212956, Note_on_c, 0, 90, 40
1, 212957, Note_on_c, 0, 70, 32
1, 212969, Note_on_c, 0, 75, 16
1, 212972, Note_on_c, 0, 66, 37
1, 212973, Note_on_c, 0, 63, 21
1, 212991, Control_c, 0, 64, 89
1, 213005, Control_c, 0, 64, 71
1, 213020, Control_c, 0, 64, 62
1, 213035, Control_c, 0, 64, 58
1, 213050, Control_c, 0, 64, 60
1, 213065, Control_c, 0, 64, 63
1, 213079, Control_c, 0, 64, 68
1, 213094, Control_c, 0, 64, 75
1, 213109, Control_c, 0, 64, 86
1, 213124, Control_c, 0, 64, 95
1, 213139, Control_c, 0, 64, 105
1, 213153, Control_c, 0, 64, 125
1, 213159, Note_off_c, 0, 94, 53
1, 213160, Note_off_c, 0, 87, 57
1, 213162, Note_off_c, 0, 75, 41
1, 213162, Note_off_c, 0, 82, 44
1, 213168, Control_c, 0, 64, 127
1, 213171, Note_off_c, 0, 70, 42
1, 213176, Note_off_c, 0, 66, 38
1, 213179, Note_off_c, 0, 63, 38
1, 213184, Note_off_c, 0, 90, 41
1, 213349, Note_on_c, 0, 87, 31
1, 213357, Note_on_c, 0, 94, 35
1, 213367, Note_on_c, 0, 82, 35
1, 213369, Note_on_c, 0, 90, 27
1, 213377, Note_on_c, 0, 75, 21
1, 213381, Note_on_c, 0, 70, 36
1, 213400, Note_on_c, 0, 63, 15
1, 213400, Note_on_c, 0, 66, 34
1, 213808, Note_off_c, 0, 75, 42
1, 213809, Note_off_c, 0, 70, 36
1, 213873, Note_off_c, 0, 66, 38
1, 213903, Note_off_c, 0, 63, 42
1, 214733, Note_off_c, 0, 94, 35
1, 214839, Note_off_c, 0, 82, 37
1, 214868, Note_off_c, 0, 87, 37
1, 214901, Note_off_c, 0, 90, 24
1, 214965, Note_on_c, 0, 30, 36
1, 214993, Control_c, 0, 64, 86
1, 215008, Control_c, 0, 64, 68
1, 215023, Control_c, 0, 64, 58
1, 215038, Control_c, 0, 64, 46
1, 215053, Control_c, 0, 64, 45
1, 215067, Control_c, 0, 64, 52
1, 215082, Control_c, 0, 64, 60
1, 215097, Control_c, 0, 64, 65
1, 215112, Control_c, 0, 64, 70
1, 215127, Control_c, 0, 64, 77
1, 215141, Control_c, 0, 64, 89
1, 215156, Control_c, 0, 64, 127
1, 215197, Note_off_c, 0, 30, 46
1, 215793, Note_on_c, 0, 94, 37
1, 215796, Note_on_c, 0, 58, 27
1, 215798, Note_on_c, 0, 66, 31
1, 215802, Note_on_c, 0, 85, 33
1, 215805, Note_on_c, 0, 61, 32
1, 215809, Note_on_c, 0, 82, 32
1, 215817, Note_on_c, 0, 70, 23
1, 215820, Note_on_c, 0, 90, 29
1, 215923, Note_off_c, 0, 82, 39
1, 215923, Note_off_c, 0, 85, 37
1, 215938, Note_off_c, 0, 70, 42
1, 215942, Note_off_c, 0, 90, 33
1, 215957, Note_off_c, 0, 94, 34
1, 215960, Note_off_c, 0, 66, 41
1, 215968, Note_off_c, 0, 58, 35
1, 215968, Note_off_c, 0, 61, 33
1, 216202, Note_on_c, 0, 82, 28
1, 216205, Note_on_c, 0, 70, 17
1, 216206, Note_on_c, 0, 94, 25
1, 216208, Note_on_c, 0, 85, 30
1, 216209, Note_on_c, 0, 66, 28
1, 216210, Note_on_c, 0, 61, 22
1, 216220, Note_on_c, 0, 90, 30
1, 216234, Note_on_c, 0, 58, 24
1, 217136, Note_off_c, 0, 82, 26
1, 217169, Note_off_c, 0, 94, 32
1, 217186, Note_off_c, 0, 85, 32
1, 217227, Note_off_c, 0, 90, 32
1, 217229, Note_off_c, 0, 58, 37
1, 217317, Note_off_c, 0, 70, 40
1, 217320, Note_off_c, 0, 61, 39
1, 217346, Note_off_c, 0, 66, 37
1, 218215, Note_on_c, 0, 89, 36
1, 218222, Note_on_c, 0, 73, 19
1, 218229, Note_on_c, 0, 65, 26
1, 218231, Note_on_c, 0, 70, 32
1, 218233, Note_on_c, 0, 94, 28
1, 218234, Note_on_c, 0, 82, 19
1, 218234, Control_c, 0, 64, 109
1, 218236, Note_on_c, 0, 85, 27
1, 218248, Control_c, 0, 64, 79
1, 218263, Control_c, 0, 64, 67
1, 218270, Note_on_c, 0, 61, 19
1, 218278, Control_c, 0, 64, 60
1, 218292, Control_c, 0, 64, 59
1, 218307, Control_c, 0, 64, 60
1, 218322, Control_c, 0, 64, 63
1, 218337, Control_c, 0, 64, 66
1, 218352, Control_c, 0, 64, 72
1, 218366, Control_c, 0, 64, 81
1, 218381, Control_c, 0, 64, 89
1, 218396, Control_c, 0, 64, 93
1, 218411, Control_c, 0, 64, 99
1, 218426, Control_c, 0, 64, 112
1, 218433, Note_off_c, 0, 70, 42
1, 218436, Note_off_c, 0, 73, 39
1, 218439, Note_off_c, 0, 94, 40
1, 218440, Note_off_c, 0, 61, 38
1, 218440, Control_c, 0, 64, 127
1, 218443, Note_off_c, 0, 85, 39
1, 218446, Note_off_c, 0, 89, 40
1, 218452, Note_off_c, 0, 82, 37
1, 218455, Note_off_c, 0, 65, 38
1, 218648, Note_on_c, 0, 82, 6
1, 218657, Note_on_c, 0, 94, 12
1, 218658, Note_on_c, 0, 85, 33
1, 218661, Note_on_c, 0, 89, 37
1, 218665, Note_on_c, 0, 70, 31
1, 218668, Note_on_c, 0, 73, 14
1, 218672, Note_on_c, 0, 65, 22
1, 218673, Note_on_c, 0, 61, 28
1, 219394, Note_off_c, 0, 73, 42
1, 219445, Note_off_c, 0, 70, 43
1, 219457, Note_off_c, 0, 65, 36
1, 219538, Note_off_c, 0, 61, 40
1, 220390, Note_off_c, 0, 94, 42
1, 220391, Note_off_c, 0, 82, 39
1, 220421, Note_off_c, 0, 89, 42
1, 220426, Note_off_c, 0, 85, 41
1, 220436, Note_on_c, 0, 30, 33
1, 220523, Control_c, 0, 64, 89
1, 220538, Control_c, 0, 64, 67
1, 220553, Control_c, 0, 64, 50
1, 220567, Control_c, 0, 64, 43
1, 220582, Control_c, 0, 64, 41
1, 220597, Control_c, 0, 64, 43
1, 220612, Control_c, 0, 64, 52
1, 220627, Control_c, 0, 64, 61
1, 220641, Control_c, 0, 64, 68
1, 220656, Control_c, 0, 64, 77
1, 220671, Control_c, 0, 64, 88
1, 220685, Control_c, 0, 64, 103
1, 220700, Control_c, 0, 64, 127
1, 220746, Note_off_c, 0, 30, 38
1, 221409, Note_on_c, 0, 94, 50
1, 221413, Note_on_c, 0, 85, 39
1, 221414, Note_on_c, 0, 90, 40
1, 221424, Note_on_c, 0, 82, 36
1, 221426, Note_on_c, 0, 66, 33
1, 221429, Note_on_c, 0, 54, 28
1, 221436, Note_on_c, 0, 61, 34
1, 221439, Note_on_c, 0, 58, 30
1, 221654, Note_off_c, 0, 54, 42
1, 221676, Note_off_c, 0, 66, 40
1, 221678, Note_off_c, 0, 58, 41
1, 221678, Note_off_c, 0, 94, 52
1, 221690, Note_off_c, 0, 61, 41
1, 221696, Note_off_c, 0, 82, 41
1, 221744, Note_off_c, 0, 85, 34
1, 221771, Note_off_c, 0, 90, 38
1, 222679, Note_on_c, 0, 90, 43
1, 222682, Note_on_c, 0, 87, 44
1, 222683, Note_on_c, 0, 94, 49
1, 222686, Note_on_c, 0, 82, 39
1, 222689, Note_on_c, 0, 70, 33
1, 222690, Note_on_c, 0, 58, 35
1, 222695, Note_on_c, 0, 66, 29
1, 222698, Note_on_c, 0, 63, 36
1, 222813, Control_c, 0, 64, 86
1, 222828, Control_c, 0, 64, 70
1, 222843, Control_c, 0, 64, 62
1, 222857, Control_c, 0, 64, 57
1, 222872, Control_c, 0, 64, 53
1, 222887, Control_c, 0, 64, 53
1, 222902, Control_c, 0, 64, 55
1, 222918, Control_c, 0, 64, 58
1, 222933, Control_c, 0, 64, 61
1, 222948, Control_c, 0, 64, 62
1, 222977, Control_c, 0, 64, 62
1, 222992, Control_c, 0, 64, 64
1, 223007, Control_c, 0, 64, 66
1, 223022, Control_c, 0, 64, 69
1, 223036, Control_c, 0, 64, 71
1, 223051, Control_c, 0, 64, 74
1, 223066, Control_c, 0, 64, 76
1, 223080, Control_c, 0, 64, 76
1, 223110, Control_c, 0, 64, 77
1, 223125, Control_c, 0, 64, 81
1, 223140, Control_c, 0, 64, 86
1, 223154, Control_c, 0, 64, 91
1, 223169, Control_c, 0, 64, 92
1, 223199, Control_c, 0, 64, 91
1, 223258, Control_c, 0, 64, 92
1, 223273, Control_c, 0, 64, 92
1, 223287, Control_c, 0, 64, 93
1, 223302, Control_c, 0, 64, 93
1, 223332, Control_c, 0, 64, 94
1, 223347, Control_c, 0, 64, 95
1, 223362, Control_c, 0, 64, 98
1, 223377, Control_c, 0, 64, 99
1, 223392, Control_c, 0, 64, 101
1, 223413, Control_c, 0, 64, 104
1, 223428, Control_c, 0, 64, 108
1, 223443, Control_c, 0, 64, 115
1, 223458, Control_c, 0, 64, 127
1, 224322, Note_off_c, 0, 70, 42
1, 224352, Note_off_c, 0, 66, 39
1, 224365, Note_off_c, 0, 63, 41
1, 224475, Note_off_c, 0, 58, 42
1, 225205, Note_off_c, 0, 94, 34
1, 225246, Note_off_c, 0, 90, 32
1, 225253, Note_off_c, 0, 82, 36
1, 225257, Note_off_c, 0, 87, 37
1, 225347, Note_on_c, 0, 30, 33
1, 225402, Control_c, 0, 64, 90
1, 225417, Control_c, 0, 64, 71
1, 225431, Control_c, 0, 64, 61
1, 225446, Control_c, 0, 64, 48
1, 225461, Control_c, 0, 64, 36
1, 225475, Control_c, 0, 64, 35
1, 225490, Control_c, 0, 64, 40
1, 225505, Control_c, 0, 64, 51
1, 225520, Control_c, 0, 64, 59
1, 225535, Control_c, 0, 64, 63
1, 225550, Control_c, 0, 64, 66
1, 225565, Control_c, 0, 64, 69
1, 225580, Control_c, 0, 64, 73
1, 225595, Control_c, 0, 64, 77
1, 225610, Control_c, 0, 64, 83
1, 225624, Control_c, 0, 64, 92
1, 225639, Control_c, 0, 64, 109
1, 225642, Note_off_c, 0, 30, 40
1, 225661, Control_c, 0, 64, 127
1, 226562, Note_on_c, 0, 94, 35
1, 226565, Note_on_c, 0, 66, 18
1, 226566, Note_on_c, 0, 61, 33
1, 226569, Note_on_c, 0, 82, 31
1, 226574, Note_on_c, 0, 85, 27
1, 226575, Note_on_c, 0, 54, 28
1, 226580, Note_on_c, 0, 58, 37
1, 226584, Note_on_c, 0, 90, 27
1, 226896, Note_off_c, 0, 54, 41
1, 226939, Note_off_c, 0, 82, 24
1, 226948, Note_off_c, 0, 94, 33
1, 226951, Note_off_c, 0, 58, 33
1, 226954, Note_off_c, 0, 66, 30
1, 226969, Note_off_c, 0, 61, 32
1, 226971, Note_off_c, 0, 85, 31
1, 227041, Note_off_c, 0, 90, 29
1, 228164, Note_on_c, 0, 65, 32
1, 228172, Note_on_c, 0, 58, 23
1, 228180, Note_on_c, 0, 61, 33
1, 228182, Note_on_c, 0, 89, 37
1, 228185, Note_on_c, 0, 82, 19
1, 228188, Note_on_c, 0, 70, 18
1, 228188, Note_on_c, 0, 94, 12
1, 228189, Note_on_c, 0, 85, 18
1, 228263, Control_c, 0, 64, 106
1, 228277, Control_c, 0, 64, 77
1, 228292, Control_c, 0, 64, 66
1, 228307, Control_c, 0, 64, 57
1, 228322, Control_c, 0, 64, 48
1, 228337, Control_c, 0, 64, 41
1, 228351, Control_c, 0, 64, 41
1, 228366, Control_c, 0, 64, 45
1, 228381, Control_c, 0, 64, 53
1, 228396, Control_c, 0, 64, 57
1, 228411, Control_c, 0, 64, 59
1, 228425, Control_c, 0, 64, 60
1, 228440, Control_c, 0, 64, 61
1, 228455, Control_c, 0, 64, 63
1, 228469, Control_c, 0, 64, 65
1, 228484, Control_c, 0, 64, 66
1, 228500, Control_c, 0, 64, 66
1, 228515, Control_c, 0, 64, 67
1, 228530, Control_c, 0, 64, 69
1, 228545, Control_c, 0, 64, 70
1, 228560, Control_c, 0, 64, 71
1, 228574, Control_c, 0, 64, 71
1, 228589, Control_c, 0, 64, 72
1, 228604, Control_c, 0, 64, 74
1, 228619, Control_c, 0, 64, 75
1, 228634, Control_c, 0, 64, 76
1, 228656, Control_c, 0, 64, 77
1, 228671, Control_c, 0, 64, 78
1, 228686, Control_c, 0, 64, 79
1, 228700, Control_c, 0, 64, 79
1, 228715, Control_c, 0, 64, 80
1, 228730, Control_c, 0, 64, 81
1, 228745, Control_c, 0, 64, 87
1, 228760, Control_c, 0, 64, 93
1, 228774, Control_c, 0, 64, 97
1, 228789, Control_c, 0, 64, 100
1, 228804, Control_c, 0, 64, 102
1, 228819, Control_c, 0, 64, 107
1, 228834, Control_c, 0, 64, 111
1, 228878, Control_c, 0, 64, 112
1, 228893, Control_c, 0, 64, 115
1, 228907, Control_c, 0, 64, 127
1, 230031, Note_off_c, 0, 65, 27
1, 230033, Note_off_c, 0, 70, 37
1, 230109, Note_off_c, 0, 61, 29
1, 230167, Note_off_c, 0, 58, 32
1, 231119, Note_off_c, 0, 89, 34
1, 231136, Note_off_c, 0, 94, 37
1, 231137, Note_off_c, 0, 82, 32
1, 231198, Note_off_c, 0, 85, 37
1, 231625, Note_on_c, 0, 30, 17
1, 231679, Control_c, 0, 64, 109
1, 231695, Control_c, 0, 64, 78
1, 231710, Control_c, 0, 64, 64
1, 231724, Control_c, 0, 64, 48
1, 231739, Control_c, 0, 64, 29
1, 231754, Control_c, 0, 64, 0
1, 231784, Control_c, 0, 64, 22
1, 231798, Control_c, 0, 64, 39
1, 231813, Control_c, 0, 64, 51
1, 231828, Control_c, 0, 64, 56
1, 231843, Control_c, 0, 64, 58
1, 231858, Control_c, 0, 64, 61
1, 231872, Control_c, 0, 64, 63
1, 231887, Control_c, 0, 64, 65
1, 231902, Control_c, 0, 64, 66
1, 231917, Control_c, 0, 64, 68
1, 231932, Control_c, 0, 64, 71
1, 231947, Control_c, 0, 64, 75
1, 231961, Control_c, 0, 64, 79
1, 231976, Control_c, 0, 64, 82
1, 231990, Control_c, 0, 64, 85
1, 232005, Control_c, 0, 64, 93
1, 232020, Control_c, 0, 64, 106
1, 232035, Control_c, 0, 64, 127
1, 232175, Note_off_c, 0, 30, 41
1, 233289, Note_on_c, 0, 94, 36
1, 233303, Note_on_c, 0, 85, 31
1, 233303, Note_on_c, 0, 90, 31
1, 233303, Note_on_c, 0, 54, 25
1, 233305, Note_on_c, 0, 61, 30
1, 233313, Note_on_c, 0, 82, 27
1, 233318, Note_on_c, 0, 58, 26
1, 233330, Poly_aftertouch_c, 0, 66, 127
1, 233453, Note_off_c, 0, 85, 0
1, 233467, Note_off_c, 0, 82, 0
1, 233491, Poly_aftertouch_c, 0, 85, 127
1, 233505, Poly_aftertouch_c, 0, 82, 127
1, 234341, Poly_aftertouch_c, 0, 82, 0
1, 234349, Poly_aftertouch_c, 0, 66, 0
1, 234369, Poly_aftertouch_c, 0, 85, 0
1, 234390, Note_off_c, 0, 54, 41
1, 234397, Note_off_c, 0, 61, 36
1, 234428, Note_off_c, 0, 94, 28
1, 234432, Note_off_c, 0, 58, 35
1, 234436, Note_off_c, 0, 90, 27
1, 235736, Note_on_c, 0, 61, 25
1, 235745, Note_on_c, 0, 90, 35
1, 235746, Note_on_c, 0, 94, 33
1, 235748, Note_on_c, 0, 58, 23
1, 235753, Note_on_c, 0, 85, 24
1, 235755, Note_on_c, 0, 66, 27
1, 235757, Note_on_c, 0, 70, 10
1, 235760, Note_on_c, 0, 82, 16
1, 241254, Note_off_c, 0, 94, 22
1, 241315, Note_off_c, 0, 85, 22
1, 241328, Note_off_c, 0, 82, 18
1, 241369, Note_off_c, 0, 90, 21
1, 241449, Note_off_c, 0, 58, 25
1, 241471, Note_off_c, 0, 70, 22
1, 241621, Note_off_c, 0, 66, 22
1, 241634, Note_off_c, 0, 61, 23
1, 242517, Control_c, 0, 64, 119
1, 242532, Control_c, 0, 64, 111
1, 242547, Control_c, 0, 64, 110
1, 242562, Control_c, 0, 64, 111
1, 242592, Control_c, 0, 64, 110
1, 242606, Control_c, 0, 64, 110
1, 242651, Control_c, 0, 64, 109
1, 242666, Control_c, 0, 64, 107
1, 242680, Control_c, 0, 64, 104
1, 242725, Control_c, 0, 64, 104
1, 242740, Control_c, 0, 64, 103
1, 242754, Control_c, 0, 64, 102
1, 242769, Control_c, 0, 64, 101
1, 242784, Control_c, 0, 64, 99
1, 242798, Control_c, 0, 64, 95
1, 242813, Control_c, 0, 64, 93
1, 242881, Control_c, 0, 64, 92
1, 242896, Control_c, 0, 64, 91
1, 242911, Control_c, 0, 64, 92
1, 243000, Control_c, 0, 64, 93
1, 243059, Control_c, 0, 64, 93
1, 243163, Control_c, 0, 64, 93
1, 243236, Control_c, 0, 64, 92
1, 243429, Control_c, 0, 64, 92
1, 243474, Control_c, 0, 64, 91
1, 243503, Control_c, 0, 64, 91
1, 243577, Control_c, 0, 64, 89
1, 243592, Control_c, 0, 64, 88
1, 243644, Control_c, 0, 64, 87
1, 243659, Control_c, 0, 64, 86
1, 243674, Control_c, 0, 64, 85
1, 243733, Control_c, 0, 64, 84
1, 243748, Control_c, 0, 64, 83
1, 243793, Control_c, 0, 64, 82
1, 243808, Control_c, 0, 64, 80
1, 243823, Control_c, 0, 64, 79
1, 243838, Control_c, 0, 64, 79
1, 243867, Control_c, 0, 64, 78
1, 243882, Control_c, 0, 64, 77
1, 243942, Control_c, 0, 64, 76
1, 243987, Control_c, 0, 67, 119
1, 244001, Control_c, 0, 64, 76
1, 244001, Control_c, 0, 67, 109
1, 244016, Control_c, 0, 64, 75
1, 244016, Control_c, 0, 67, 100
1, 244031, Control_c, 0, 67, 92
1, 244045, Control_c, 0, 67, 85
1, 244060, Control_c, 0, 64, 75
1, 244060, Control_c, 0, 67, 78
1, 244075, Control_c, 0, 64, 74
1, 244075, Control_c, 0, 67, 71
1, 244090, Control_c, 0, 64, 73
1, 244090, Control_c, 0, 67, 62
1, 244105, Control_c, 0, 64, 72
1, 244105, Control_c, 0, 67, 54
1, 244120, Control_c, 0, 67, 46
1, 244134, Control_c, 0, 67, 39
1, 244149, Control_c, 0, 64, 71
1, 244149, Control_c, 0, 67, 31
1, 244164, Control_c, 0, 64, 70
1, 244164, Control_c, 0, 67, 23
1, 244178, Control_c, 0, 64, 69
1, 244178, Control_c, 0, 67, 10
1, 244193, Control_c, 0, 64, 69
1, 244193, Control_c, 0, 67, 0
1, 244208, Control_c, 0, 64, 67
1, 244223, Control_c, 0, 64, 66
1, 244238, Control_c, 0, 64, 65
1, 244267, Control_c, 0, 64, 65
1, 244282, Control_c, 0, 64, 64
1, 244297, Control_c, 0, 64, 64
1, 244312, Control_c, 0, 64, 63
1, 244327, Control_c, 0, 64, 63
1, 244342, Control_c, 0, 64, 62
1, 244356, Control_c, 0, 64, 61
1, 244378, Control_c, 0, 64, 59
1, 244423, Control_c, 0, 64, 59
1, 244438, Control_c, 0, 64, 58
1, 244452, Control_c, 0, 64, 57
1, 244467, Control_c, 0, 64, 55
1, 244483, Control_c, 0, 64, 53
1, 244498, Control_c, 0, 64, 47
1, 244513, Control_c, 0, 64, 34
1, 244528, Control_c, 0, 64, 0
1, 244595, Note_on_c, 0, 70, 86
1, 244663, Note_on_c, 0, 68, 102
1, 244671, Note_on_c, 0, 59, 76
1, 244682, Note_on_c, 0, 60, 74
1, 244699, Note_off_c, 0, 70, 64
1, 244718, Note_off_c, 0, 60, 42
1, 244750, Control_c, 0, 64, 17
1, 244765, Control_c, 0, 64, 41
1, 244780, Control_c, 0, 64, 56
1, 244780, Note_off_c, 0, 59, 63
1, 244791, Note_on_c, 0, 62, 55
1, 244794, Control_c, 0, 64, 61
1, 244809, Control_c, 0, 64, 62
1, 244824, Control_c, 0, 64, 64
1, 244839, Control_c, 0, 64, 66
1, 244854, Control_c, 0, 64, 73
1, 244868, Control_c, 0, 64, 80
1, 244882, Note_off_c, 0, 62, 64
1, 244883, Control_c, 0, 64, 87
1, 244889, Note_on_c, 0, 59, 62
1, 244898, Control_c, 0, 64, 93
1, 244913, Control_c, 0, 64, 99
1, 244928, Control_c, 0, 64, 104
1, 244932, Note_off_c, 0, 59, 63
1, 244942, Control_c, 0, 64, 111
1, 244952, Note_on_c, 0, 62, 60
1, 244957, Control_c, 0, 64, 112
1, 244972, Control_c, 0, 64, 115
1, 244987, Control_c, 0, 64, 127
1, 245026, Note_on_c, 0, 59, 52
1, 245055, Note_off_c, 0, 59, 59
1, 245057, Note_off_c, 0, 62, 0
1, 245072, Note_on_c, 0, 62, 51
1, 245137, Note_on_c, 0, 59, 68
1, 245160, Note_off_c, 0, 62, 63
1, 245181, Note_off_c, 0, 59, 64
1, 245191, Note_on_c, 0, 62, 57
1, 245233, Note_on_c, 0, 59, 64
1, 245266, Note_off_c, 0, 62, 64
1, 245288, Note_off_c, 0, 59, 63
1, 245300, Note_on_c, 0, 62, 63
1, 245326, Note_on_c, 0, 59, 59
1, 245378, Note_off_c, 0, 62, 0
1, 245384, Note_off_c, 0, 59, 63
1, 245391, Note_on_c, 0, 62, 57
1, 245431, Note_on_c, 0, 59, 68
1, 245463, Note_off_c, 0, 62, 64
1, 245491, Note_off_c, 0, 68, 58
1, 245521, Note_on_c, 0, 62, 70
1, 245529, Note_off_c, 0, 59, 65
1, 245531, Note_on_c, 0, 66, 92
1, 245579, Note_off_c, 0, 66, 63
1, 245586, Note_off_c, 0, 62, 61
1, 245602, Control_c, 0, 64, 91
1, 245611, Note_on_c, 0, 65, 95
1, 245617, Control_c, 0, 64, 63
1, 245628, Note_on_c, 0, 56, 66
1, 245632, Control_c, 0, 64, 0
1, 245632, Note_on_c, 0, 59, 69
1, 245705, Note_off_c, 0, 56, 64
1, 245706, Control_c, 0, 64, 40
1, 245721, Control_c, 0, 64, 53
1, 245724, Note_off_c, 0, 59, 64
1, 245731, Note_on_c, 0, 62, 67
1, 245736, Control_c, 0, 64, 57
1, 245751, Control_c, 0, 64, 60
1, 245765, Control_c, 0, 64, 62
1, 245780, Control_c, 0, 64, 64
1, 245795, Control_c, 0, 64, 68
1, 245799, Note_off_c, 0, 62, 65
1, 245808, Note_on_c, 0, 56, 50
1, 245810, Control_c, 0, 64, 72
1, 245813, Note_on_c, 0, 59, 60
1, 245824, Control_c, 0, 64, 79
1, 245839, Control_c, 0, 64, 83
1, 245854, Control_c, 0, 64, 86
1, 245856, Note_off_c, 0, 56, 64
1, 245859, Note_off_c, 0, 59, 62
1, 245877, Control_c, 0, 64, 92
1, 245880, Note_on_c, 0, 62, 70
1, 245892, Control_c, 0, 64, 101
1, 245906, Control_c, 0, 64, 115
1, 245921, Control_c, 0, 64, 127
1, 245942, Note_on_c, 0, 56, 62
1, 245942, Note_on_c, 0, 59, 68
1, 245942, Note_off_c, 0, 62, 65
1, 245980, Note_off_c, 0, 56, 63
1, 245996, Note_off_c, 0, 59, 64
1, 246006, Note_on_c, 0, 62, 75
1, 246056, Note_on_c, 0, 59, 72
1, 246064, Note_off_c, 0, 62, 65
1, 246070, Note_on_c, 0, 56, 52
1, 246098, Note_off_c, 0, 56, 64
1, 246119, Note_off_c, 0, 59, 64
1, 246125, Note_on_c, 0, 62, 78
1, 246157, Note_off_c, 0, 65, 62
1, 246163, Note_on_c, 0, 56, 44
1, 246176, Note_on_c, 0, 59, 69
1, 246186, Note_off_c, 0, 62, 63
1, 246199, Note_off_c, 0, 56, 49
1, 246240, Note_off_c, 0, 59, 65
1, 246245, Note_on_c, 0, 56, 71
1, 246246, Note_on_c, 0, 62, 74
1, 246305, Note_off_c, 0, 62, 63
1, 246315, Note_on_c, 0, 59, 66
1, 246359, Note_on_c, 0, 62, 74
1, 246404, Note_off_c, 0, 59, 64
1, 246407, Note_off_c, 0, 56, 63
1, 246418, Note_off_c, 0, 62, 63
1, 246423, Note_on_c, 0, 66, 93
1, 246500, Note_off_c, 0, 66, 60
1, 246552, Note_on_c, 0, 54, 52
1, 246569, Note_on_c, 0, 62, 87
1, 246574, Control_c, 0, 64, 95
1, 246589, Control_c, 0, 64, 64
1, 246603, Control_c, 0, 64, 0
1, 246685, Control_c, 0, 64, 48
1, 246693, Note_off_c, 0, 54, 64
1, 246699, Control_c, 0, 64, 61
1, 246714, Control_c, 0, 64, 67
1, 246721, Note_on_c, 0, 58, 64
1, 246729, Control_c, 0, 64, 76
1, 246744, Control_c, 0, 64, 95
1, 246759, Control_c, 0, 64, 127
1, 246793, Note_off_c, 0, 58, 61
1, 246816, Note_on_c, 0, 54, 56
1, 246846, Note_off_c, 0, 54, 64
1, 246853, Note_on_c, 0, 58, 67
1, 246911, Note_off_c, 0, 58, 63
1, 246917, Note_on_c, 0, 54, 79
1, 246947, Note_off_c, 0, 54, 65
1, 246965, Note_on_c, 0, 58, 72
1, 247018, Note_on_c, 0, 54, 76
1, 247024, Note_off_c, 0, 58, 64
1, 247062, Note_off_c, 0, 54, 62
1, 247072, Note_on_c, 0, 58, 71
1, 247105, Note_on_c, 0, 54, 70
1, 247132, Note_off_c, 0, 58, 63
1, 247164, Note_off_c, 0, 54, 64
1, 247170, Note_on_c, 0, 58, 78
1, 247211, Note_on_c, 0, 54, 68
1, 247235, Note_off_c, 0, 58, 63
1, 247278, Note_off_c, 0, 54, 65
1, 247281, Note_on_c, 0, 58, 75
1, 247319, Note_on_c, 0, 54, 64
1, 247344, Note_off_c, 0, 58, 64
1, 247393, Note_off_c, 0, 54, 65
1, 247400, Note_on_c, 0, 58, 70
1, 247437, Note_on_c, 0, 54, 62
1, 247457, Note_off_c, 0, 58, 62
1, 247498, Note_off_c, 0, 54, 64
1, 247522, Note_on_c, 0, 58, 62
1, 247554, Note_on_c, 0, 54, 68
1, 247577, Note_off_c, 0, 58, 63
1, 247616, Note_off_c, 0, 54, 64
1, 247638, Note_on_c, 0, 58, 61
1, 247687, Note_on_c, 0, 54, 60
1, 247707, Note_off_c, 0, 58, 64
1, 247734, Note_off_c, 0, 54, 61
1, 247776, Note_on_c, 0, 58, 44
1, 247793, Note_on_c, 0, 54, 60
1, 247832, Note_off_c, 0, 58, 0
1, 247869, Poly_aftertouch_c, 0, 58, 127
1, 247887, Note_off_c, 0, 54, 51
1, 247940, Note_off_c, 0, 62, 55
1, 247949, Note_on_c, 0, 63, 73
1, 248026, Control_c, 0, 64, 81
1, 248041, Control_c, 0, 64, 67
1, 248056, Control_c, 0, 64, 62
1, 248062, Poly_aftertouch_c, 0, 58, 0
1, 248086, Control_c, 0, 64, 63
1, 248100, Control_c, 0, 64, 65
1, 248123, Control_c, 0, 64, 69
1, 248138, Control_c, 0, 64, 72
1, 248153, Control_c, 0, 64, 74
1, 248168, Control_c, 0, 64, 75
1, 248182, Control_c, 0, 64, 79
1, 248197, Control_c, 0, 64, 85
1, 248212, Control_c, 0, 64, 91
1, 248226, Control_c, 0, 64, 94
1, 248241, Control_c, 0, 64, 98
1, 248256, Control_c, 0, 64, 107
1, 248271, Control_c, 0, 64, 127
1, 248529, Note_off_c, 0, 63, 61
1, 248568, Control_c, 0, 64, 105
1, 248576, Note_on_c, 0, 54, 63
1, 248583, Control_c, 0, 64, 71
1, 248586, Note_on_c, 0, 61, 90
1, 248598, Control_c, 0, 64, 55
1, 248613, Control_c, 0, 64, 44
1, 248628, Control_c, 0, 64, 46
1, 248642, Control_c, 0, 64, 56
1, 248657, Control_c, 0, 64, 62
1, 248672, Control_c, 0, 64, 64
1, 248687, Control_c, 0, 64, 68
1, 248692, Note_off_c, 0, 54, 61
1, 248702, Control_c, 0, 64, 73
1, 248711, Note_on_c, 0, 57, 58
1, 248716, Control_c, 0, 64, 80
1, 248731, Control_c, 0, 64, 86
1, 248746, Control_c, 0, 64, 89
1, 248761, Control_c, 0, 64, 90
1, 248776, Control_c, 0, 64, 92
1, 248790, Note_off_c, 0, 57, 62
1, 248790, Control_c, 0, 64, 96
1, 248802, Note_on_c, 0, 54, 58
1, 248805, Control_c, 0, 64, 103
1, 248820, Control_c, 0, 64, 114
1, 248835, Control_c, 0, 64, 127
1, 248844, Note_off_c, 0, 54, 64
1, 248870, Note_on_c, 0, 57, 57
1, 248934, Note_off_c, 0, 57, 63
1, 248938, Note_on_c, 0, 54, 69
1, 248986, Note_off_c, 0, 54, 65
1, 248995, Note_on_c, 0, 57, 63
1, 249048, Note_on_c, 0, 54, 74
1, 249056, Note_off_c, 0, 57, 64
1, 249099, Note_off_c, 0, 54, 63
1, 249117, Note_on_c, 0, 57, 65
1, 249154, Note_on_c, 0, 54, 71
1, 249176, Note_off_c, 0, 57, 63
1, 249212, Note_off_c, 0, 54, 64
1, 249224, Note_on_c, 0, 57, 68
1, 249265, Note_on_c, 0, 54, 65
1, 249294, Note_off_c, 0, 57, 64
1, 249324, Note_off_c, 0, 54, 65
1, 249335, Note_on_c, 0, 57, 64
1, 249380, Note_on_c, 0, 54, 67
1, 249397, Note_off_c, 0, 57, 64
1, 249419, Note_off_c, 0, 61, 61
1, 249463, Note_on_c, 0, 60, 97
1, 249470, Note_on_c, 0, 57, 71
1, 249472, Note_off_c, 0, 54, 63
1, 249532, Note_off_c, 0, 60, 63
1, 249569, Control_c, 0, 64, 91
1, 249577, Note_off_c, 0, 57, 64
1, 249584, Note_on_c, 0, 51, 69
1, 249584, Control_c, 0, 64, 65
1, 249588, Note_on_c, 0, 59, 94
1, 249590, Note_on_c, 0, 54, 65
1, 249599, Control_c, 0, 64, 17
1, 249621, Control_c, 0, 64, 0
1, 249656, Note_off_c, 0, 51, 63
1, 249665, Control_c, 0, 64, 34
1, 249679, Note_off_c, 0, 54, 63
1, 249680, Control_c, 0, 64, 52
1, 249686, Note_on_c, 0, 57, 70
1, 249695, Control_c, 0, 64, 59
1, 249710, Control_c, 0, 64, 61
1, 249725, Control_c, 0, 64, 62
1, 249740, Control_c, 0, 64, 62
1, 249750, Note_off_c, 0, 57, 65
1, 249754, Control_c, 0, 64, 64
1, 249762, Note_on_c, 0, 54, 64
1, 249764, Note_on_c, 0, 51, 48
1, 249769, Control_c, 0, 64, 65
1, 249784, Control_c, 0, 64, 65
1, 249799, Control_c, 0, 64, 66
1, 249804, Note_off_c, 0, 51, 64
1, 249814, Control_c, 0, 64, 67
1, 249814, Note_off_c, 0, 54, 63
1, 249828, Control_c, 0, 64, 69
1, 249829, Note_on_c, 0, 57, 64
1, 249843, Control_c, 0, 64, 71
1, 249858, Control_c, 0, 64, 73
1, 249872, Control_c, 0, 64, 73
1, 249890, Note_off_c, 0, 57, 65
1, 249892, Note_on_c, 0, 54, 62
1, 249901, Note_on_c, 0, 51, 63
1, 249902, Control_c, 0, 64, 74
1, 249917, Control_c, 0, 64, 75
1, 249932, Control_c, 0, 64, 78
1, 249934, Note_off_c, 0, 51, 64
1, 249946, Control_c, 0, 64, 79
1, 249949, Note_off_c, 0, 54, 63
1, 249953, Note_on_c, 0, 57, 63
1, 249961, Control_c, 0, 64, 81
1, 249976, Control_c, 0, 64, 85
1, 249990, Control_c, 0, 64, 93
1, 250005, Control_c, 0, 64, 127
1, 250008, Note_on_c, 0, 51, 66
1, 250014, Note_on_c, 0, 54, 72
1, 250015, Note_off_c, 0, 57, 64
1, 250044, Note_off_c, 0, 51, 65
1, 250074, Note_on_c, 0, 57, 66
1, 250076, Note_off_c, 0, 54, 63
1, 250121, Note_on_c, 0, 51, 55
1, 250133, Note_on_c, 0, 54, 67
1, 250141, Note_off_c, 0, 57, 65
1, 250160, Note_off_c, 0, 51, 58
1, 250194, Note_off_c, 0, 54, 65
1, 250199, Note_on_c, 0, 57, 74
1, 250203, Note_off_c, 0, 59, 63
1, 250257, Note_on_c, 0, 54, 70
1, 250262, Note_off_c, 0, 57, 65
1, 250270, Note_on_c, 0, 51, 44
1, 250310, Note_off_c, 0, 54, 65
1, 250339, Note_on_c, 0, 57, 69
1, 250420, Note_on_c, 0, 54, 62
1, 250423, Note_off_c, 0, 57, 58
1, 250455, Note_on_c, 0, 61, 92
1, 250482, Note_off_c, 0, 51, 32
1, 250482, Note_off_c, 0, 54, 59
1, 250525, Note_off_c, 0, 61, 60
1, 250575, Note_on_c, 0, 50, 61
1, 250577, Control_c, 0, 64, 80
1, 250578, Note_on_c, 0, 57, 89
1, 250592, Control_c, 0, 64, 56
1, 250607, Control_c, 0, 64, 0
1, 250643, Note_off_c, 0, 50, 63
1, 250666, Control_c, 0, 64, 35
1, 250679, Control_c, 0, 64, 53
1, 250688, Note_on_c, 0, 53, 61
1, 250694, Control_c, 0, 64, 59
1, 250709, Control_c, 0, 64, 63
1, 250724, Control_c, 0, 64, 66
1, 250739, Control_c, 0, 64, 69
1, 250745, Note_off_c, 0, 53, 60
1, 250753, Control_c, 0, 64, 73
1, 250761, Note_on_c, 0, 50, 64
1, 250768, Control_c, 0, 64, 76
1, 250783, Control_c, 0, 64, 78
1, 250798, Control_c, 0, 64, 79
1, 250806, Note_off_c, 0, 50, 62
1, 250812, Control_c, 0, 64, 80
1, 250827, Control_c, 0, 64, 82
1, 250829, Note_on_c, 0, 53, 58
1, 250842, Control_c, 0, 64, 84
1, 250857, Control_c, 0, 64, 85
1, 250873, Control_c, 0, 64, 84
1, 250888, Control_c, 0, 64, 83
1, 250888, Note_on_c, 0, 50, 61
1, 250890, Note_off_c, 0, 53, 63
1, 250917, Control_c, 0, 64, 83
1, 250929, Note_off_c, 0, 50, 63
1, 250947, Control_c, 0, 64, 83
1, 250947, Note_on_c, 0, 53, 58
1, 250962, Control_c, 0, 64, 81
1, 250977, Control_c, 0, 64, 79
1, 250991, Control_c, 0, 64, 78
1, 251005, Note_on_c, 0, 50, 65
1, 251006, Control_c, 0, 64, 79
1, 251009, Note_off_c, 0, 53, 64
1, 251053, Note_off_c, 0, 50, 62
1, 251066, Note_on_c, 0, 53, 67
1, 251117, Control_c, 0, 64, 78
1, 251122, Note_on_c, 0, 50, 64
1, 251135, Note_off_c, 0, 53, 64
1, 251162, Control_c, 0, 64, 79
1, 251174, Note_off_c, 0, 50, 61
1, 251177, Control_c, 0, 64, 79
1, 251189, Note_on_c, 0, 53, 69
1, 251227, Note_on_c, 0, 50, 60
1, 251247, Note_off_c, 0, 53, 64
1, 251250, Control_c, 0, 64, 79
1, 251265, Control_c, 0, 64, 78
1, 251280, Control_c, 0, 64, 78
1, 251293, Note_off_c, 0, 50, 56
1, 251300, Note_on_c, 0, 53, 67
1, 251310, Control_c, 0, 64, 77
1, 251324, Control_c, 0, 64, 76
1, 251335, Note_on_c, 0, 50, 41
1, 251339, Control_c, 0, 64, 74
1, 251354, Control_c, 0, 64, 73
1, 251355, Note_off_c, 0, 53, 63
1, 251369, Control_c, 0, 64, 73
1, 251396, Note_off_c, 0, 50, 59
1, 251398, Control_c, 0, 64, 73
1, 251413, Note_on_c, 0, 53, 56
1, 251453, Note_on_c, 0, 50, 44
1, 251466, Note_off_c, 0, 53, 64
1, 251473, Control_c, 0, 64, 73
1, 251488, Control_c, 0, 64, 73
1, 251525, Note_off_c, 0, 50, 51
1, 251534, Note_on_c, 0, 53, 60
1, 251572, Note_on_c, 0, 50, 39
1, 251583, Note_off_c, 0, 53, 63
1, 251591, Control_c, 0, 64, 74
1, 251642, Note_off_c, 0, 50, 58
1, 251651, Control_c, 0, 64, 74
1, 251661, Note_on_c, 0, 53, 60
1, 251701, Note_off_c, 0, 53, 63
1, 251702, Note_on_c, 0, 50, 42
1, 251849, Note_off_c, 0, 50, 55
1, 251867, Note_on_c, 0, 53, 60
1, 251926, Control_c, 0, 64, 75
1, 251966, Note_off_c, 0, 57, 54
1, 251969, Note_on_c, 0, 58, 76
1, 252000, Note_off_c, 0, 53, 39
1, 252000, Control_c, 0, 64, 75
1, 252044, Control_c, 0, 64, 76
1, 252059, Control_c, 0, 64, 76
1, 252074, Control_c, 0, 64, 77
1, 252119, Control_c, 0, 64, 77
1, 252148, Control_c, 0, 64, 78
1, 252163, Control_c, 0, 64, 79
1, 252178, Control_c, 0, 64, 80
1, 252193, Control_c, 0, 64, 81
1, 252222, Control_c, 0, 64, 81
1, 252237, Control_c, 0, 64, 82
1, 252252, Control_c, 0, 64, 84
1, 252266, Control_c, 0, 64, 85
1, 252281, Control_c, 0, 64, 86
1, 252296, Control_c, 0, 64, 89
1, 252311, Control_c, 0, 64, 91
1, 252326, Control_c, 0, 64, 94
1, 252340, Control_c, 0, 64, 95
1, 252355, Control_c, 0, 64, 96
1, 252370, Control_c, 0, 64, 100
1, 252385, Control_c, 0, 64, 111
1, 252400, Control_c, 0, 64, 127
1, 252520, Note_off_c, 0, 58, 36
1, 252562, Note_on_c, 0, 47, 56
1, 252619, Note_on_c, 0, 56, 100
1, 252631, Control_c, 0, 64, 90
1, 252645, Control_c, 0, 64, 70
1, 252660, Control_c, 0, 64, 60
1, 252675, Control_c, 0, 64, 54
1, 252689, Control_c, 0, 64, 56
1, 252704, Control_c, 0, 64, 61
1, 252719, Control_c, 0, 64, 66
1, 252733, Note_off_c, 0, 47, 61
1, 252734, Control_c, 0, 64, 69
1, 252749, Control_c, 0, 64, 75
1, 252760, Note_on_c, 0, 50, 53
1, 252763, Control_c, 0, 64, 83
1, 252778, Control_c, 0, 64, 88
1, 252793, Control_c, 0, 64, 89
1, 252808, Control_c, 0, 64, 88
1, 252834, Note_off_c, 0, 50, 60
1, 252837, Control_c, 0, 64, 89
1, 252852, Control_c, 0, 64, 90
1, 252855, Note_on_c, 0, 47, 60
1, 252867, Control_c, 0, 64, 92
1, 252882, Control_c, 0, 64, 93
1, 252891, Note_off_c, 0, 47, 63
1, 252897, Control_c, 0, 64, 94
1, 252912, Control_c, 0, 64, 98
1, 252923, Note_on_c, 0, 50, 48
1, 252926, Control_c, 0, 64, 106
1, 252941, Control_c, 0, 64, 116
1, 252956, Control_c, 0, 64, 127
1, 252971, Note_off_c, 0, 50, 61
1, 252980, Note_on_c, 0, 47, 56
1, 253034, Note_off_c, 0, 47, 58
1, 253076, Note_on_c, 0, 50, 51
1, 253129, Note_off_c, 0, 50, 60
1, 253135, Note_on_c, 0, 47, 56
1, 253193, Note_off_c, 0, 47, 59
1, 253219, Note_on_c, 0, 50, 51
1, 253263, Note_on_c, 0, 47, 45
1, 253278, Note_off_c, 0, 50, 57
1, 253326, Note_off_c, 0, 47, 62
1, 253345, Note_on_c, 0, 50, 61
1, 253421, Note_on_c, 0, 47, 56
1, 253422, Note_off_c, 0, 50, 61
1, 253459, Note_off_c, 0, 47, 62
1, 253470, Note_off_c, 0, 56, 57
1, 253474, Note_on_c, 0, 50, 51
1, 253539, Note_on_c, 0, 47, 65
1, 253551, Note_off_c, 0, 50, 59
1, 253594, Note_on_c, 0, 54, 100
1, 253628, Note_off_c, 0, 47, 62
1, 253639, Note_on_c, 0, 50, 56
1, 253659, Note_off_c, 0, 54, 64
1, 253728, Note_on_c, 0, 53, 93
1, 253734, Control_c, 0, 64, 96
1, 253736, Note_off_c, 0, 50, 60
1, 253740, Note_on_c, 0, 44, 65
1, 253749, Control_c, 0, 64, 66
1, 253752, Note_on_c, 0, 47, 56
1, 253764, Control_c, 0, 64, 36
1, 253779, Control_c, 0, 64, 0
1, 253813, Note_off_c, 0, 44, 59
1, 253823, Control_c, 0, 64, 37
1, 253832, Note_off_c, 0, 47, 63
1, 253837, Control_c, 0, 64, 55
1, 253845, Note_on_c, 0, 50, 56
1, 253852, Control_c, 0, 64, 61
1, 253867, Control_c, 0, 64, 64
1, 253882, Control_c, 0, 64, 65
1, 253897, Control_c, 0, 64, 66
1, 253911, Control_c, 0, 64, 67
1, 253916, Note_on_c, 0, 47, 57
1, 253918, Note_off_c, 0, 50, 62
1, 253924, Note_on_c, 0, 44, 44
1, 253926, Control_c, 0, 64, 67
1, 253941, Control_c, 0, 64, 69
1, 253956, Control_c, 0, 64, 70
1, 253970, Note_off_c, 0, 44, 59
1, 253971, Control_c, 0, 64, 72
1, 253983, Note_off_c, 0, 47, 59
1, 253998, Note_on_c, 0, 50, 53
1, 254000, Control_c, 0, 64, 73
1, 254015, Control_c, 0, 64, 74
1, 254029, Control_c, 0, 64, 75
1, 254044, Control_c, 0, 64, 76
1, 254075, Note_on_c, 0, 47, 58
1, 254075, Control_c, 0, 64, 77
1, 254080, Note_off_c, 0, 50, 59
1, 254086, Note_on_c, 0, 44, 56
1, 254090, Control_c, 0, 64, 79
1, 254113, Control_c, 0, 64, 83
1, 254128, Control_c, 0, 64, 86
1, 254135, Note_off_c, 0, 44, 58
1, 254140, Note_off_c, 0, 47, 62
1, 254142, Control_c, 0, 64, 86
1, 254153, Note_on_c, 0, 50, 53
1, 254157, Control_c, 0, 64, 87
1, 254172, Control_c, 0, 64, 93
1, 254187, Control_c, 0, 64, 117
1, 254202, Control_c, 0, 64, 127
1, 254229, Note_off_c, 0, 50, 61
1, 254230, Note_on_c, 0, 47, 56
1, 254255, Note_on_c, 0, 44, 31
1, 254286, Note_off_c, 0, 44, 53
1, 254301, Note_on_c, 0, 50, 54
1, 254360, Note_off_c, 0, 47, 0
1, 254374, Note_on_c, 0, 47, 48
1, 254380, Note_on_c, 0, 44, 52
1, 254384, Note_off_c, 0, 50, 63
1, 254412, Note_off_c, 0, 53, 58
1, 254415, Note_off_c, 0, 44, 63
1, 254468, Note_on_c, 0, 50, 62
1, 254468, Note_off_c, 0, 47, 62
1, 254521, Note_on_c, 0, 44, 47
1, 254560, Note_off_c, 0, 50, 59
1, 254576, Note_on_c, 0, 47, 57
1, 254649, Note_on_c, 0, 54, 92
1, 254653, Note_on_c, 0, 50, 52
1, 254670, Note_off_c, 0, 44, 37
1, 254670, Note_off_c, 0, 47, 55
1, 254684, Note_off_c, 0, 50, 65
1, 254713, Note_off_c, 0, 54, 64
1, 254790, Note_on_c, 0, 50, 81
1, 254794, Control_c, 0, 64, 101
1, 254799, Note_on_c, 0, 42, 57
1, 254808, Control_c, 0, 64, 64
1, 254823, Control_c, 0, 64, 22
1, 254838, Control_c, 0, 64, 0
1, 254906, Control_c, 0, 64, 45
1, 254921, Control_c, 0, 64, 57
1, 254924, Note_off_c, 0, 42, 62
1, 254936, Control_c, 0, 64, 61
1, 254945, Note_on_c, 0, 46, 51
1, 254951, Control_c, 0, 64, 64
1, 254965, Control_c, 0, 64, 65
1, 254980, Control_c, 0, 64, 67
1, 254995, Control_c, 0, 64, 69
1, 255010, Control_c, 0, 64, 71
1, 255025, Control_c, 0, 64, 72
1, 255030, Note_off_c, 0, 46, 60
1, 255039, Control_c, 0, 64, 73
1, 255046, Note_on_c, 0, 42, 59
1, 255085, Note_off_c, 0, 42, 64
1, 255111, Note_on_c, 0, 46, 54
1, 255143, Control_c, 0, 64, 73
1, 255157, Control_c, 0, 64, 72
1, 255171, Note_on_c, 0, 42, 65
1, 255173, Control_c, 0, 64, 73
1, 255218, Control_c, 0, 64, 72
1, 255225, Note_off_c, 0, 46, 0
1, 255230, Note_off_c, 0, 42, 62
1, 255242, Note_on_c, 0, 46, 35
1, 255247, Control_c, 0, 64, 73
1, 255291, Control_c, 0, 64, 72
1, 255302, Note_on_c, 0, 42, 64
1, 255317, Note_off_c, 0, 46, 60
1, 255351, Control_c, 0, 64, 72
1, 255359, Note_off_c, 0, 42, 63
1, 255362, Note_on_c, 0, 46, 49
1, 255416, Note_on_c, 0, 42, 67
1, 255433, Note_off_c, 0, 46, 63
1, 255476, Note_off_c, 0, 42, 63
1, 255482, Note_on_c, 0, 46, 56
1, 255499, Control_c, 0, 64, 71
1, 255514, Control_c, 0, 64, 71
1, 255529, Control_c, 0, 64, 70
1, 255536, Note_on_c, 0, 42, 65
1, 255544, Control_c, 0, 64, 70
1, 255553, Note_off_c, 0, 46, 63
1, 255558, Control_c, 0, 64, 69
1, 255573, Control_c, 0, 64, 69
1, 255588, Control_c, 0, 64, 68
1, 255594, Note_off_c, 0, 42, 62
1, 255607, Note_on_c, 0, 46, 56
1, 255662, Note_on_c, 0, 42, 63
1, 255678, Note_off_c, 0, 46, 63
1, 255726, Note_off_c, 0, 42, 62
1, 255735, Note_on_c, 0, 46, 51
1, 255774, Control_c, 0, 64, 69
1, 255791, Note_on_c, 0, 42, 54
1, 255809, Note_off_c, 0, 46, 63
1, 255818, Control_c, 0, 64, 68
1, 255854, Note_off_c, 0, 42, 62
1, 255866, Note_on_c, 0, 46, 54
1, 255916, Note_on_c, 0, 42, 52
1, 255922, Control_c, 0, 64, 69
1, 255937, Note_off_c, 0, 46, 63
1, 255970, Note_off_c, 0, 42, 58
1, 255992, Note_on_c, 0, 46, 52
1, 256054, Note_on_c, 0, 42, 58
1, 256059, Note_off_c, 0, 46, 62
1, 256140, Note_on_c, 0, 46, 40
1, 256228, Note_off_c, 0, 42, 27
1, 256337, Control_c, 0, 64, 68
1, 256356, Note_on_c, 0, 51, 75
1, 256388, Control_c, 0, 64, 69
1, 256396, Note_off_c, 0, 46, 36
1, 256403, Control_c, 0, 64, 69
1, 256418, Control_c, 0, 64, 70
1, 256432, Control_c, 0, 64, 71
1, 256447, Note_off_c, 0, 50, 53
1, 256464, Control_c, 0, 64, 70
1, 256479, Control_c, 0, 64, 68
1, 256493, Control_c, 0, 64, 68
1, 256508, Control_c, 0, 64, 68
1, 256582, Control_c, 0, 64, 69
1, 256597, Control_c, 0, 64, 69
1, 256656, Control_c, 0, 64, 70
1, 256685, Control_c, 0, 64, 70
1, 256700, Control_c, 0, 64, 71
1, 256715, Control_c, 0, 64, 71
1, 256730, Control_c, 0, 64, 72
1, 256745, Control_c, 0, 64, 72
1, 256760, Control_c, 0, 64, 73
1, 256775, Control_c, 0, 64, 74
1, 256790, Control_c, 0, 64, 75
1, 256804, Control_c, 0, 64, 77
1, 256819, Control_c, 0, 64, 78
1, 256834, Control_c, 0, 64, 79
1, 256864, Control_c, 0, 64, 79
1, 256878, Control_c, 0, 64, 80
1, 256893, Control_c, 0, 64, 81
1, 256908, Control_c, 0, 64, 83
1, 256922, Control_c, 0, 64, 85
1, 256937, Control_c, 0, 64, 87
1, 256952, Control_c, 0, 64, 88
1, 256967, Control_c, 0, 64, 88
1, 257046, Note_on_c, 0, 42, 42
1, 257055, Control_c, 0, 64, 91
1, 257070, Control_c, 0, 64, 104
1, 257075, Note_off_c, 0, 51, 36
1, 257085, Control_c, 0, 64, 127
1, 257130, Note_on_c, 0, 49, 87
1, 257137, Control_c, 0, 64, 93
1, 257152, Control_c, 0, 64, 77
1, 257167, Control_c, 0, 64, 68
1, 257182, Control_c, 0, 64, 65
1, 257197, Control_c, 0, 64, 66
1, 257211, Control_c, 0, 64, 68
1, 257226, Control_c, 0, 64, 72
1, 257241, Control_c, 0, 64, 80
1, 257257, Control_c, 0, 64, 87
1, 257272, Control_c, 0, 64, 91
1, 257303, Note_off_c, 0, 42, 60
1, 257320, Note_on_c, 0, 45, 43
1, 257331, Control_c, 0, 64, 92
1, 257346, Control_c, 0, 64, 93
1, 257360, Control_c, 0, 64, 95
1, 257375, Control_c, 0, 64, 95
1, 257418, Note_off_c, 0, 45, 60
1, 257428, Note_on_c, 0, 42, 55
1, 257463, Control_c, 0, 64, 95
1, 257475, Note_off_c, 0, 42, 61
1, 257520, Note_on_c, 0, 45, 46
1, 257569, Note_off_c, 0, 45, 59
1, 257585, Note_on_c, 0, 42, 58
1, 257632, Note_off_c, 0, 42, 59
1, 257671, Control_c, 0, 64, 95
1, 257672, Note_on_c, 0, 45, 51
1, 257685, Control_c, 0, 64, 96
1, 257719, Note_off_c, 0, 45, 58
1, 257730, Note_on_c, 0, 42, 56
1, 257771, Note_off_c, 0, 42, 58
1, 257774, Control_c, 0, 64, 96
1, 257813, Note_on_c, 0, 45, 48
1, 257875, Note_on_c, 0, 42, 48
1, 257879, Note_off_c, 0, 45, 59
1, 257950, Note_off_c, 0, 42, 63
1, 257959, Control_c, 0, 64, 97
1, 257973, Note_on_c, 0, 45, 53
1, 257989, Control_c, 0, 64, 98
1, 258004, Control_c, 0, 64, 98
1, 258019, Control_c, 0, 64, 100
1, 258033, Control_c, 0, 64, 101
1, 258048, Control_c, 0, 64, 102
1, 258051, Note_off_c, 0, 45, 51
1, 258056, Note_on_c, 0, 42, 51
1, 258064, Control_c, 0, 64, 103
1, 258079, Control_c, 0, 64, 104
1, 258092, Note_off_c, 0, 42, 62
1, 258109, Control_c, 0, 64, 104
1, 258118, Note_on_c, 0, 45, 32
1, 258124, Control_c, 0, 64, 105
1, 258138, Control_c, 0, 64, 106
1, 258153, Control_c, 0, 64, 108
1, 258164, Note_off_c, 0, 49, 60
1, 258168, Control_c, 0, 64, 108
1, 258189, Note_on_c, 0, 42, 54
1, 258197, Control_c, 0, 64, 107
1, 258207, Note_on_c, 0, 48, 89
1, 258209, Note_off_c, 0, 45, 59
1, 258212, Control_c, 0, 64, 107
1, 258242, Control_c, 0, 64, 109
1, 258256, Control_c, 0, 64, 127
1, 258271, Note_off_c, 0, 42, 62
1, 258301, Note_on_c, 0, 45, 32
1, 258302, Note_off_c, 0, 48, 64
1, 258346, Control_c, 0, 64, 105
1, 258361, Control_c, 0, 64, 72
1, 258361, Note_on_c, 0, 47, 82
1, 258368, Note_off_c, 0, 45, 61
1, 258374, Note_on_c, 0, 39, 48
1, 258375, Control_c, 0, 64, 57
1, 258386, Note_on_c, 0, 42, 44
1, 258390, Control_c, 0, 64, 41
1, 258405, Control_c, 0, 64, 34
1, 258420, Control_c, 0, 64, 35
1, 258435, Control_c, 0, 64, 43
1, 258436, Note_off_c, 0, 39, 56
1, 258449, Control_c, 0, 64, 56
1, 258464, Control_c, 0, 64, 61
1, 258473, Note_off_c, 0, 42, 60
1, 258479, Control_c, 0, 64, 64
1, 258489, Note_on_c, 0, 45, 51
1, 258494, Control_c, 0, 64, 65
1, 258508, Control_c, 0, 64, 66
1, 258571, Note_off_c, 0, 45, 61
1, 258577, Note_on_c, 0, 42, 53
1, 258582, Control_c, 0, 64, 67
1, 258590, Note_on_c, 0, 39, 35
1, 258605, Control_c, 0, 64, 67
1, 258635, Control_c, 0, 64, 68
1, 258640, Note_off_c, 0, 39, 54
1, 258640, Note_off_c, 0, 42, 61
1, 258649, Control_c, 0, 64, 68
1, 258671, Note_on_c, 0, 45, 41
1, 258708, Control_c, 0, 64, 69
1, 258723, Control_c, 0, 64, 69
1, 258732, Note_off_c, 0, 45, 61
1, 258745, Note_on_c, 0, 42, 54
1, 258757, Note_on_c, 0, 39, 37
1, 258768, Control_c, 0, 64, 70
1, 258796, Note_off_c, 0, 42, 60
1, 258798, Note_off_c, 0, 39, 51
1, 258812, Control_c, 0, 64, 70
1, 258827, Control_c, 0, 64, 71
1, 258835, Note_on_c, 0, 45, 50
1, 258842, Control_c, 0, 64, 71
1, 258858, Control_c, 0, 64, 72
1, 258872, Control_c, 0, 64, 73
1, 258880, Note_off_c, 0, 45, 61
1, 258893, Note_on_c, 0, 42, 59
1, 258942, Note_off_c, 0, 42, 59
1, 258946, Poly_aftertouch_c, 0, 39, 127
1, 258947, Control_c, 0, 64, 74
1, 258962, Control_c, 0, 64, 74
1, 258975, Note_on_c, 0, 45, 58
1, 258992, Control_c, 0, 64, 75
1, 259006, Control_c, 0, 64, 76
1, 259021, Control_c, 0, 64, 78
1, 259036, Control_c, 0, 64, 78
1, 259039, Note_off_c, 0, 45, 56
1, 259043, Note_on_c, 0, 42, 54
1, 259051, Control_c, 0, 64, 79
1, 259066, Control_c, 0, 64, 79
1, 259080, Control_c, 0, 64, 80
1, 259095, Control_c, 0, 64, 82
1, 259110, Control_c, 0, 64, 85
1, 259124, Note_off_c, 0, 42, 63
1, 259124, Control_c, 0, 64, 87
1, 259139, Control_c, 0, 64, 88
1, 259141, Note_on_c, 0, 45, 56
1, 259153, Poly_aftertouch_c, 0, 39, 0
1, 259154, Control_c, 0, 64, 91
1, 259169, Control_c, 0, 64, 92
1, 259178, Note_on_c, 0, 39, 17
1, 259184, Control_c, 0, 64, 95
1, 259198, Control_c, 0, 64, 97
1, 259201, Note_off_c, 0, 45, 58
1, 259213, Control_c, 0, 64, 98
1, 259216, Note_on_c, 0, 42, 56
1, 259228, Control_c, 0, 64, 99
1, 259243, Control_c, 0, 64, 100
1, 259259, Note_off_c, 0, 42, 63
1, 259261, Note_off_c, 0, 47, 61
1, 259288, Control_c, 0, 64, 100
1, 259303, Control_c, 0, 64, 101
1, 259319, Note_on_c, 0, 45, 45
1, 259368, Note_off_c, 0, 45, 58
1, 259369, Control_c, 0, 64, 101
1, 259384, Control_c, 0, 64, 102
1, 259399, Control_c, 0, 64, 103
1, 259413, Control_c, 0, 64, 104
1, 259420, Note_on_c, 0, 49, 69
1, 259437, Note_off_c, 0, 39, 41
1, 259473, Control_c, 0, 64, 105
1, 259487, Control_c, 0, 64, 106
1, 259502, Control_c, 0, 64, 108
1, 259517, Control_c, 0, 64, 114
1, 259519, Note_off_c, 0, 49, 57
1, 259532, Control_c, 0, 64, 127
1, 259595, Note_on_c, 0, 45, 69
1, 259597, Note_on_c, 0, 38, 40
1, 259606, Control_c, 0, 64, 105
1, 259621, Control_c, 0, 64, 77
1, 259636, Control_c, 0, 64, 63
1, 259651, Control_c, 0, 64, 55
1, 259666, Control_c, 0, 64, 49
1, 259681, Control_c, 0, 64, 48
1, 259696, Control_c, 0, 64, 53
1, 259711, Control_c, 0, 64, 60
1, 259711, Note_off_c, 0, 38, 57
1, 259726, Control_c, 0, 64, 64
1, 259734, Note_on_c, 0, 41, 45
1, 259741, Control_c, 0, 64, 67
1, 259755, Control_c, 0, 64, 70
1, 259770, Control_c, 0, 64, 73
1, 259785, Control_c, 0, 64, 73
1, 259812, Note_off_c, 0, 41, 59
1, 259841, Note_on_c, 0, 38, 38
1, 259883, Note_off_c, 0, 38, 61
1, 259903, Control_c, 0, 64, 73
1, 259921, Note_on_c, 0, 41, 43
1, 259933, Control_c, 0, 64, 72
1, 259947, Control_c, 0, 64, 71
1, 259971, Note_off_c, 0, 41, 59
1, 259994, Note_on_c, 0, 38, 44
1, 260029, Note_off_c, 0, 38, 60
1, 260066, Note_on_c, 0, 41, 47
1, 260066, Control_c, 0, 64, 71
1, 260111, Note_off_c, 0, 41, 63
1, 260133, Control_c, 0, 64, 71
1, 260137, Note_on_c, 0, 38, 44
1, 260162, Control_c, 0, 64, 71
1, 260174, Note_off_c, 0, 38, 58
1, 260200, Note_on_c, 0, 41, 57
1, 260241, Note_off_c, 0, 41, 62
1, 260256, Note_on_c, 0, 38, 46
1, 260298, Note_off_c, 0, 38, 60
1, 260332, Note_on_c, 0, 41, 52
1, 260366, Note_off_c, 0, 41, 62
1, 260396, Note_on_c, 0, 38, 34
1, 260447, Note_off_c, 0, 38, 42
1, 260453, Note_on_c, 0, 41, 54
1, 260496, Note_off_c, 0, 41, 61
1, 260516, Note_on_c, 0, 38, 29
1, 260534, Control_c, 0, 67, 9
1, 260549, Control_c, 0, 67, 9
1, 260560, Note_off_c, 0, 38, 53
1, 260564, Control_c, 0, 64, 71
1, 260564, Control_c, 0, 67, 10
1, 260578, Control_c, 0, 67, 12
1, 260582, Note_on_c, 0, 41, 55
1, 260593, Control_c, 0, 67, 17
1, 260608, Control_c, 0, 67, 20
1, 260623, Note_off_c, 0, 41, 62
1, 260623, Control_c, 0, 67, 23
1, 260638, Control_c, 0, 67, 26
1, 260652, Control_c, 0, 67, 27
1, 260657, Note_on_c, 0, 38, 26
1, 260667, Control_c, 0, 67, 28
1, 260682, Control_c, 0, 67, 29
1, 260704, Note_off_c, 0, 38, 48
1, 260726, Control_c, 0, 67, 29
1, 260727, Note_on_c, 0, 41, 49
1, 260770, Control_c, 0, 64, 72
1, 260774, Note_off_c, 0, 41, 58
1, 260799, Note_on_c, 0, 38, 30
1, 260853, Note_off_c, 0, 38, 49
1, 260878, Note_on_c, 0, 41, 43
1, 260897, Control_c, 0, 64, 72
1, 260928, Note_off_c, 0, 41, 55
1, 260948, Note_on_c, 0, 38, 28
1, 261000, Control_c, 0, 64, 73
1, 261014, Note_off_c, 0, 38, 41
1, 261022, Note_on_c, 0, 41, 41
1, 261084, Note_off_c, 0, 41, 55
1, 261085, Note_on_c, 0, 38, 17
1, 261138, Note_off_c, 0, 38, 57
1, 261162, Note_on_c, 0, 41, 32
1, 261162, Control_c, 0, 64, 73
1, 261176, Control_c, 0, 64, 74
1, 261191, Control_c, 0, 64, 78
1, 261206, Control_c, 0, 64, 83
1, 261221, Control_c, 0, 64, 85
1, 261223, Note_off_c, 0, 41, 46
1, 261226, Note_off_c, 0, 45, 57
1, 261228, Note_on_c, 0, 46, 57
1, 261236, Control_c, 0, 64, 80
1, 261236, Control_c, 0, 67, 30
1, 261237, Note_on_c, 0, 38, 24
1, 261252, Control_c, 0, 64, 72
1, 261267, Control_c, 0, 64, 65
1, 261281, Control_c, 0, 64, 61
1, 261282, Note_off_c, 0, 38, 49
1, 261311, Control_c, 0, 64, 63
1, 261317, Note_on_c, 0, 41, 34
1, 261325, Control_c, 0, 64, 66
1, 261340, Control_c, 0, 64, 69
1, 261340, Control_c, 0, 67, 31
1, 261355, Control_c, 0, 64, 71
1, 261355, Control_c, 0, 67, 31
1, 261370, Control_c, 0, 64, 73
1, 261370, Control_c, 0, 67, 32
1, 261378, Note_off_c, 0, 41, 58
1, 261385, Control_c, 0, 64, 75
1, 261387, Note_on_c, 0, 38, 29
1, 261399, Control_c, 0, 64, 75
1, 261399, Control_c, 0, 67, 32
1, 261414, Control_c, 0, 67, 33
1, 261429, Control_c, 0, 64, 75
1, 261430, Note_off_c, 0, 38, 49
1, 261444, Control_c, 0, 67, 36
1, 261459, Control_c, 0, 64, 75
1, 261459, Control_c, 0, 67, 48
1, 261460, Note_on_c, 0, 41, 44
1, 261473, Control_c, 0, 67, 56
1, 261488, Control_c, 0, 64, 76
1, 261488, Control_c, 0, 67, 62
1, 261503, Control_c, 0, 67, 68
1, 261517, Control_c, 0, 64, 76
1, 261517, Control_c, 0, 67, 72
1, 261532, Note_off_c, 0, 41, 0
1, 261532, Control_c, 0, 64, 77
1, 261532, Control_c, 0, 67, 76
1, 261547, Control_c, 0, 64, 77
1, 261547, Control_c, 0, 67, 80
1, 261562, Control_c, 0, 64, 78
1, 261562, Control_c, 0, 67, 85
1, 261569, Poly_aftertouch_c, 0, 41, 127
1, 261577, Control_c, 0, 64, 79
1, 261577, Control_c, 0, 67, 90
1, 261599, Control_c, 0, 64, 80
1, 261599, Control_c, 0, 67, 98
1, 261614, Control_c, 0, 64, 80
1, 261614, Control_c, 0, 67, 105
1, 261625, Poly_aftertouch_c, 0, 41, 0
1, 261629, Control_c, 0, 64, 81
1, 261629, Control_c, 0, 67, 111
1, 261636, Note_on_c, 0, 38, 22
1, 261644, Control_c, 0, 64, 82
1, 261644, Control_c, 0, 67, 119
1, 261659, Control_c, 0, 64, 83
1, 261659, Control_c, 0, 67, 127
1, 261673, Control_c, 0, 64, 84
1, 261703, Control_c, 0, 64, 85
1, 261718, Control_c, 0, 64, 86
1, 261732, Control_c, 0, 64, 87
1, 261747, Control_c, 0, 64, 89
1, 261753, Note_off_c, 0, 38, 34
1, 261756, Note_on_c, 0, 41, 52
1, 261762, Control_c, 0, 64, 90
1, 261822, Control_c, 0, 64, 90
1, 261830, Note_off_c, 0, 41, 53
1, 261833, Note_off_c, 0, 46, 55
1, 261836, Control_c, 0, 64, 96
1, 261851, Control_c, 0, 64, 127
1, 261896, Control_c, 0, 64, 97
1, 261911, Control_c, 0, 64, 69
1, 261925, Control_c, 0, 64, 49
1, 261934, Note_on_c, 0, 35, 48
1, 261940, Control_c, 0, 64, 9
1, 261955, Control_c, 0, 64, 0
1, 261970, Control_c, 0, 64, 21
1, 261985, Control_c, 0, 64, 50
1, 261999, Control_c, 0, 64, 59
1, 262014, Control_c, 0, 64, 63
1, 262029, Control_c, 0, 64, 66
1, 262045, Control_c, 0, 64, 68
1, 262052, Note_off_c, 0, 35, 55
1, 262075, Control_c, 0, 64, 67
1, 262075, Note_on_c, 0, 47, 38
1, 262090, Control_c, 0, 64, 67
1, 262104, Control_c, 0, 64, 67
1, 262119, Control_c, 0, 64, 68
1, 262132, Note_off_c, 0, 47, 60
1, 262149, Note_on_c, 0, 35, 36
1, 262178, Control_c, 0, 64, 68
1, 262212, Note_off_c, 0, 35, 53
1, 262239, Note_on_c, 0, 47, 44
1, 262277, Note_off_c, 0, 47, 58
1, 262294, Note_on_c, 0, 35, 32
1, 262296, Control_c, 0, 64, 68
1, 262356, Note_off_c, 0, 35, 50
1, 262378, Control_c, 0, 64, 67
1, 262379, Note_on_c, 0, 47, 49
1, 262413, Note_off_c, 0, 47, 59
1, 262422, Control_c, 0, 64, 68
1, 262433, Note_on_c, 0, 35, 40
1, 262452, Control_c, 0, 64, 67
1, 262491, Note_off_c, 0, 35, 49
1, 262510, Note_on_c, 0, 47, 48
1, 262543, Note_off_c, 0, 47, 52
1, 262555, Control_c, 0, 64, 68
1, 262557, Note_on_c, 0, 35, 48
1, 262603, Note_off_c, 0, 35, 57
1, 262635, Note_on_c, 0, 47, 50
1, 262671, Note_off_c, 0, 47, 52
1, 262695, Note_on_c, 0, 35, 38
1, 262730, Note_off_c, 0, 35, 49
1, 262734, Control_c, 0, 64, 68
1, 262749, Control_c, 0, 64, 68
1, 262757, Note_on_c, 0, 47, 48
1, 262802, Note_off_c, 0, 47, 58
1, 262817, Note_on_c, 0, 35, 46
1, 262866, Note_off_c, 0, 35, 51
1, 262889, Note_on_c, 0, 47, 45
1, 262898, Control_c, 0, 64, 67
1, 262930, Note_off_c, 0, 47, 53
1, 262935, Note_on_c, 0, 35, 37
1, 262986, Note_off_c, 0, 35, 52
1, 263004, Note_on_c, 0, 47, 38
1, 263032, Control_c, 0, 64, 68
1, 263062, Note_off_c, 0, 47, 48
1, 263066, Note_on_c, 0, 35, 41
1, 263113, Control_c, 0, 64, 67
1, 263127, Note_off_c, 0, 35, 52
1, 263128, Note_on_c, 0, 47, 37
1, 263184, Note_off_c, 0, 47, 56
1, 263193, Note_on_c, 0, 35, 41
1, 263257, Note_on_c, 0, 47, 33
1, 263297, Note_off_c, 0, 35, 0
1, 263312, Note_off_c, 0, 47, 55
1, 263315, Note_on_c, 0, 35, 30
1, 263395, Note_on_c, 0, 47, 27
1, 263428, Note_off_c, 0, 35, 0
1, 263441, Note_off_c, 0, 47, 48
1, 263444, Note_on_c, 0, 35, 33
1, 263452, Control_c, 0, 64, 67
1, 263509, Note_off_c, 0, 35, 52
1, 263535, Note_on_c, 0, 47, 30
1, 263586, Note_on_c, 0, 35, 31
1, 263591, Note_off_c, 0, 47, 42
1, 263649, Note_off_c, 0, 35, 52
1, 263669, Note_on_c, 0, 47, 27
1, 263722, Note_off_c, 0, 47, 46
1, 263729, Note_on_c, 0, 35, 25
1, 263791, Note_off_c, 0, 35, 54
1, 263807, Note_on_c, 0, 47, 45
1, 263866, Note_off_c, 0, 47, 56
1, 263887, Note_on_c, 0, 35, 23
1, 263968, Note_on_c, 0, 47, 27
1, 264006, Note_off_c, 0, 35, 0
1, 264024, Note_off_c, 0, 47, 45
1, 264031, Note_on_c, 0, 35, 11
1, 264109, Note_off_c, 0, 35, 40
1, 264111, Note_on_c, 0, 47, 39
1, 264165, Note_off_c, 0, 47, 54
1, 264193, Note_on_c, 0, 35, 14
1, 264254, Note_off_c, 0, 35, 44
1, 264264, Note_on_c, 0, 47, 32
1, 264333, Note_off_c, 0, 47, 54
1, 264359, Note_on_c, 0, 35, 32
1, 264406, Note_off_c, 0, 35, 50
1, 264424, Control_c, 0, 64, 66
1, 264450, Note_on_c, 0, 47, 3
1, 264496, Note_off_c, 0, 47, 44
1, 264528, Control_c, 0, 64, 66
1, 264532, Note_on_c, 0, 35, 39
1, 264595, Control_c, 0, 64, 65
1, 264622, Note_on_c, 0, 47, 34
1, 264684, Control_c, 0, 64, 65
1, 264698, Control_c, 0, 64, 64
1, 264713, Control_c, 0, 64, 64
1, 264722, Note_off_c, 0, 47, 61
1, 264739, Note_off_c, 0, 35, 40
1, 264817, Control_c, 0, 64, 63
1, 264847, Control_c, 0, 64, 63
1, 264877, Control_c, 0, 64, 62
1, 264921, Control_c, 0, 64, 62
1, 264936, Control_c, 0, 64, 61
1, 265010, Control_c, 0, 64, 61
1, 265039, Control_c, 0, 64, 60
1, 265054, Control_c, 0, 64, 60
1, 265069, Control_c, 0, 64, 59
1, 265172, Control_c, 0, 64, 59
1, 265187, Control_c, 0, 64, 58
1, 265202, Control_c, 0, 64, 57
1, 265247, Control_c, 0, 64, 57
1, 265262, Control_c, 0, 64, 56
1, 265277, Control_c, 0, 64, 56
1, 265292, Control_c, 0, 64, 55
1, 265344, Control_c, 0, 64, 54
1, 265359, Control_c, 0, 64, 54
1, 265373, Control_c, 0, 64, 53
1, 265462, Control_c, 0, 64, 52
1, 265492, Control_c, 0, 64, 52
1, 265507, Control_c, 0, 64, 51
1, 265714, Control_c, 0, 64, 52
1, 265729, Control_c, 0, 64, 53
1, 265744, Control_c, 0, 64, 54
1, 265759, Control_c, 0, 64, 54
1, 265773, Control_c, 0, 64, 55
1, 265788, Control_c, 0, 64, 56
1, 265803, Control_c, 0, 64, 57
1, 265818, Control_c, 0, 64, 57
1, 265862, Control_c, 0, 64, 58
1, 265877, Control_c, 0, 64, 60
1, 265877, Control_c, 0, 67, 119
1, 265892, Control_c, 0, 64, 61
1, 265892, Control_c, 0, 67, 96
1, 265907, Control_c, 0, 64, 62
1, 265907, Control_c, 0, 67, 71
1, 265921, Control_c, 0, 67, 46
1, 265936, Control_c, 0, 67, 21
1, 265951, Control_c, 0, 64, 63
1, 265951, Control_c, 0, 67, 0
1, 265965, Control_c, 0, 64, 63
1, 265980, Control_c, 0, 64, 64
1, 266010, Control_c, 0, 64, 64
1, 266025, Control_c, 0, 64, 65
1, 266041, Control_c, 0, 64, 66
1, 266056, Control_c, 0, 64, 67
1, 266070, Control_c, 0, 64, 68
1, 266093, Control_c, 0, 64, 69
1, 266108, Control_c, 0, 64, 69
1, 266123, Control_c, 0, 64, 71
1, 266138, Control_c, 0, 64, 72
1, 266152, Control_c, 0, 64, 74
1, 266167, Control_c, 0, 64, 77
1, 266182, Control_c, 0, 64, 81
1, 266196, Control_c, 0, 64, 86
1, 266211, Control_c, 0, 64, 99
1, 266226, Control_c, 0, 64, 127
1, 266370, Note_on_c, 0, 34, 85
1, 266582, Note_on_c, 0, 42, 54
1, 266630, Note_on_c, 0, 39, 90
1, 266642, Control_c, 0, 64, 115
1, 266651, Note_off_c, 0, 34, 62
1, 266657, Control_c, 0, 64, 73
1, 266671, Control_c, 0, 64, 56
1, 266686, Control_c, 0, 64, 18
1, 266701, Control_c, 0, 64, 0
1, 266760, Control_c, 0, 64, 13
1, 266775, Control_c, 0, 64, 34
1, 266780, Note_off_c, 0, 42, 61
1, 266785, Note_on_c, 0, 46, 40
1, 266789, Control_c, 0, 64, 40
1, 266804, Control_c, 0, 64, 43
1, 266819, Control_c, 0, 64, 49
1, 266842, Control_c, 0, 64, 54
1, 266857, Control_c, 0, 64, 56
1, 266872, Control_c, 0, 64, 56
1, 266887, Control_c, 0, 64, 57
1, 266894, Note_off_c, 0, 46, 62
1, 266901, Control_c, 0, 64, 59
1, 266910, Note_on_c, 0, 42, 56
1, 266916, Control_c, 0, 64, 61
1, 266931, Control_c, 0, 64, 62
1, 266946, Control_c, 0, 64, 63
1, 266961, Control_c, 0, 64, 63
1, 266976, Control_c, 0, 64, 65
1, 266976, Note_off_c, 0, 42, 58
1, 266990, Control_c, 0, 64, 66
1, 267005, Control_c, 0, 64, 67
1, 267010, Note_on_c, 0, 46, 43
1, 267020, Control_c, 0, 64, 68
1, 267035, Control_c, 0, 64, 68
1, 267050, Control_c, 0, 64, 70
1, 267065, Control_c, 0, 64, 71
1, 267080, Note_off_c, 0, 46, 61
1, 267080, Control_c, 0, 64, 72
1, 267095, Note_on_c, 0, 42, 57
1, 267109, Control_c, 0, 64, 73
1, 267124, Control_c, 0, 64, 75
1, 267139, Control_c, 0, 64, 80
1, 267147, Note_off_c, 0, 42, 60
1, 267154, Control_c, 0, 64, 85
1, 267168, Control_c, 0, 64, 87
1, 267183, Control_c, 0, 64, 89
1, 267198, Control_c, 0, 64, 95
1, 267202, Note_on_c, 0, 46, 42
1, 267212, Control_c, 0, 64, 115
1, 267227, Control_c, 0, 64, 127
1, 267262, Note_off_c, 0, 46, 60
1, 267270, Note_on_c, 0, 42, 50
1, 267350, Note_off_c, 0, 42, 61
1, 267393, Note_on_c, 0, 46, 41
1, 267444, Note_off_c, 0, 46, 61
1, 267481, Note_on_c, 0, 42, 53
1, 267539, Note_off_c, 0, 42, 61
1, 267562, Note_on_c, 0, 46, 54
1, 267614, Note_off_c, 0, 39, 58
1, 267647, Note_off_c, 0, 46, 57
1, 267670, Note_on_c, 0, 38, 91
1, 267672, Note_on_c, 0, 42, 61
1, 267731, Note_off_c, 0, 38, 61
1, 267737, Note_off_c, 0, 42, 63
1, 267764, Note_on_c, 0, 46, 53
1, 267781, Note_on_c, 0, 39, 93
1, 267798, Control_c, 0, 64, 82
1, 267813, Control_c, 0, 64, 60
1, 267828, Note_on_c, 0, 42, 55
1, 267828, Note_off_c, 0, 46, 61
1, 267828, Control_c, 0, 64, 0
1, 267897, Note_off_c, 0, 42, 61
1, 267916, Control_c, 0, 64, 20
1, 267926, Note_on_c, 0, 46, 51
1, 267931, Control_c, 0, 64, 28
1, 267946, Control_c, 0, 64, 37
1, 267960, Control_c, 0, 64, 47
1, 267975, Control_c, 0, 64, 52
1, 267990, Control_c, 0, 64, 53
1, 267995, Note_off_c, 0, 46, 61
1, 267999, Note_on_c, 0, 42, 65
1, 268005, Control_c, 0, 64, 54
1, 268020, Control_c, 0, 64, 56
1, 268034, Control_c, 0, 64, 60
1, 268049, Note_off_c, 0, 42, 61
1, 268049, Control_c, 0, 64, 62
1, 268064, Control_c, 0, 64, 63
1, 268079, Control_c, 0, 64, 63
1, 268085, Note_on_c, 0, 46, 51
1, 268094, Control_c, 0, 64, 64
1, 268108, Control_c, 0, 64, 66
1, 268123, Control_c, 0, 64, 68
1, 268133, Note_on_c, 0, 42, 57
1, 268138, Note_off_c, 0, 46, 62
1, 268138, Control_c, 0, 64, 69
1, 268168, Control_c, 0, 64, 69
1, 268183, Control_c, 0, 64, 70
1, 268185, Note_off_c, 0, 42, 61
1, 268198, Control_c, 0, 64, 71
1, 268206, Note_on_c, 0, 46, 60
1, 268242, Control_c, 0, 64, 72
1, 268254, Note_on_c, 0, 42, 48
1, 268257, Control_c, 0, 64, 73
1, 268260, Note_off_c, 0, 46, 63
1, 268272, Control_c, 0, 64, 73
1, 268287, Control_c, 0, 64, 74
1, 268290, Note_off_c, 0, 42, 64
1, 268302, Control_c, 0, 64, 74
1, 268311, Note_on_c, 0, 46, 56
1, 268316, Control_c, 0, 64, 75
1, 268338, Control_c, 0, 64, 76
1, 268353, Control_c, 0, 64, 77
1, 268358, Note_off_c, 0, 46, 65
1, 268363, Note_on_c, 0, 42, 66
1, 268397, Control_c, 0, 64, 78
1, 268412, Control_c, 0, 64, 80
1, 268427, Control_c, 0, 64, 83
1, 268443, Control_c, 0, 64, 85
1, 268445, Note_off_c, 0, 39, 51
1, 268458, Control_c, 0, 64, 87
1, 268464, Note_on_c, 0, 46, 56
1, 268472, Control_c, 0, 64, 91
1, 268475, Note_off_c, 0, 42, 58
1, 268487, Control_c, 0, 64, 98
1, 268502, Control_c, 0, 64, 127
1, 268610, Note_off_c, 0, 46, 51
1, 268877, Note_on_c, 0, 41, 97
1, 268956, Note_off_c, 0, 41, 62
1, 268997, Note_on_c, 0, 42, 96
1, 269013, Note_on_c, 0, 46, 67
1, 269020, Control_c, 0, 64, 85
1, 269035, Control_c, 0, 64, 61
1, 269050, Control_c, 0, 64, 0
1, 269134, Note_off_c, 0, 46, 60
1, 269139, Note_on_c, 0, 51, 54
1, 269161, Control_c, 0, 64, 19
1, 269176, Control_c, 0, 64, 36
1, 269190, Control_c, 0, 64, 45
1, 269205, Control_c, 0, 64, 51
1, 269220, Control_c, 0, 64, 56
1, 269235, Note_off_c, 0, 51, 62
1, 269236, Control_c, 0, 64, 60
1, 269242, Note_on_c, 0, 46, 46
1, 269251, Control_c, 0, 64, 64
1, 269266, Control_c, 0, 64, 68
1, 269281, Control_c, 0, 64, 74
1, 269295, Control_c, 0, 64, 84
1, 269304, Note_off_c, 0, 46, 61
1, 269310, Control_c, 0, 64, 102
1, 269322, Note_on_c, 0, 51, 62
1, 269325, Control_c, 0, 64, 127
1, 269403, Note_off_c, 0, 51, 57
1, 269411, Note_on_c, 0, 46, 57
1, 269488, Note_off_c, 0, 46, 60
1, 269505, Note_on_c, 0, 51, 60
1, 269575, Note_off_c, 0, 51, 62
1, 269583, Note_on_c, 0, 46, 59
1, 269639, Note_off_c, 0, 46, 61
1, 269672, Note_off_c, 0, 42, 62
1, 269678, Note_on_c, 0, 51, 59
1, 269752, Note_on_c, 0, 46, 60
1, 269758, Note_off_c, 0, 51, 61
1, 269824, Note_on_c, 0, 51, 57
1, 269846, Note_off_c, 0, 46, 59
1, 269944, Note_off_c, 0, 51, 61
1, 269963, Note_on_c, 0, 46, 47
1, 269970, Note_on_c, 0, 44, 86
1, 270016, Note_off_c, 0, 46, 59
1, 270028, Note_on_c, 0, 42, 87
1, 270064, Note_off_c, 0, 44, 62
1, 270070, Note_on_c, 0, 51, 47
1, 270108, Note_on_c, 0, 41, 87
1, 270114, Note_off_c, 0, 42, 64
1, 270144, Note_off_c, 0, 51, 56
1, 270150, Note_on_c, 0, 46, 56
1, 270174, Note_on_c, 0, 42, 89
1, 270193, Control_c, 0, 64, 82
1, 270203, Note_off_c, 0, 41, 64
1, 270208, Control_c, 0, 64, 59
1, 270211, Note_off_c, 0, 46, 63
1, 270223, Control_c, 0, 64, 0
1, 270255, Note_on_c, 0, 51, 63
1, 270304, Note_off_c, 0, 51, 61
1, 270326, Note_on_c, 0, 46, 56
1, 270341, Control_c, 0, 64, 32
1, 270356, Control_c, 0, 64, 48
1, 270371, Control_c, 0, 64, 51
1, 270373, Note_off_c, 0, 46, 63
1, 270386, Control_c, 0, 64, 52
1, 270401, Control_c, 0, 64, 52
1, 270404, Note_on_c, 0, 51, 57
1, 270415, Control_c, 0, 64, 55
1, 270430, Control_c, 0, 64, 58
1, 270445, Control_c, 0, 64, 59
1, 270466, Note_on_c, 0, 46, 59
1, 270478, Note_off_c, 0, 51, 58
1, 270490, Control_c, 0, 64, 61
1, 270504, Control_c, 0, 64, 62
1, 270514, Note_off_c, 0, 46, 63
1, 270531, Note_on_c, 0, 51, 50
1, 270549, Control_c, 0, 64, 63
1, 270563, Control_c, 0, 64, 63
1, 270585, Control_c, 0, 64, 64
1, 270602, Note_on_c, 0, 46, 54
1, 270610, Note_off_c, 0, 51, 63
1, 270615, Control_c, 0, 64, 64
1, 270645, Control_c, 0, 64, 64
1, 270650, Note_off_c, 0, 46, 64
1, 270660, Control_c, 0, 64, 65
1, 270669, Note_on_c, 0, 51, 61
1, 270675, Control_c, 0, 64, 66
1, 270690, Control_c, 0, 64, 66
1, 270719, Control_c, 0, 64, 67
1, 270725, Note_off_c, 0, 51, 63
1, 270732, Note_on_c, 0, 46, 55
1, 270734, Control_c, 0, 64, 70
1, 270749, Control_c, 0, 64, 73
1, 270763, Control_c, 0, 64, 74
1, 270778, Control_c, 0, 64, 76
1, 270793, Control_c, 0, 64, 78
1, 270808, Control_c, 0, 64, 80
1, 270823, Control_c, 0, 64, 83
1, 270836, Note_on_c, 0, 51, 61
1, 270839, Control_c, 0, 64, 87
1, 270853, Control_c, 0, 64, 93
1, 270855, Note_off_c, 0, 46, 57
1, 270868, Control_c, 0, 64, 107
1, 270883, Control_c, 0, 64, 127
1, 270912, Note_off_c, 0, 42, 62
1, 271002, Note_off_c, 0, 51, 64
1, 271186, Note_on_c, 0, 44, 96
1, 271360, Note_off_c, 0, 44, 63
1, 271399, Note_on_c, 0, 51, 68
1, 271405, Note_on_c, 0, 46, 94
1, 271423, Control_c, 0, 64, 98
1, 271438, Control_c, 0, 64, 67
1, 271453, Control_c, 0, 64, 37
1, 271468, Control_c, 0, 64, 0
1, 271498, Note_off_c, 0, 51, 61
1, 271516, Note_on_c, 0, 54, 65
1, 271542, Control_c, 0, 64, 21
1, 271557, Control_c, 0, 64, 36
1, 271572, Control_c, 0, 64, 50
1, 271586, Control_c, 0, 64, 57
1, 271600, Note_off_c, 0, 54, 63
1, 271601, Control_c, 0, 64, 60
1, 271616, Control_c, 0, 64, 61
1, 271620, Note_on_c, 0, 51, 64
1, 271632, Control_c, 0, 64, 62
1, 271645, Control_c, 0, 64, 64
1, 271660, Control_c, 0, 64, 66
1, 271669, Note_off_c, 0, 51, 59
1, 271675, Control_c, 0, 64, 69
1, 271689, Control_c, 0, 64, 72
1, 271698, Note_on_c, 0, 54, 63
1, 271704, Control_c, 0, 64, 75
1, 271719, Control_c, 0, 64, 79
1, 271734, Control_c, 0, 64, 82
1, 271749, Control_c, 0, 64, 83
1, 271757, Note_off_c, 0, 54, 62
1, 271763, Note_on_c, 0, 51, 67
1, 271778, Control_c, 0, 64, 85
1, 271793, Control_c, 0, 64, 91
1, 271808, Control_c, 0, 64, 101
1, 271809, Note_off_c, 0, 51, 62
1, 271822, Control_c, 0, 64, 115
1, 271826, Note_on_c, 0, 54, 68
1, 271837, Control_c, 0, 64, 127
1, 271876, Note_on_c, 0, 51, 68
1, 271888, Note_off_c, 0, 54, 64
1, 271918, Note_off_c, 0, 51, 63
1, 271929, Note_on_c, 0, 54, 68
1, 271983, Note_on_c, 0, 51, 71
1, 271990, Note_off_c, 0, 54, 65
1, 272001, Note_off_c, 0, 46, 61
1, 272055, Note_on_c, 0, 54, 77
1, 272127, Note_off_c, 0, 51, 37
1, 272190, Note_off_c, 0, 54, 61
1, 272433, Note_on_c, 0, 47, 93
1, 272547, Note_off_c, 0, 47, 59
1, 272567, Note_on_c, 0, 50, 91
1, 272592, Note_on_c, 0, 54, 63
1, 272601, Control_c, 0, 64, 116
1, 272616, Control_c, 0, 64, 68
1, 272630, Control_c, 0, 64, 0
1, 272680, Note_off_c, 0, 54, 65
1, 272687, Note_on_c, 0, 58, 61
1, 272720, Control_c, 0, 64, 32
1, 272735, Control_c, 0, 64, 50
1, 272750, Control_c, 0, 64, 57
1, 272755, Note_off_c, 0, 58, 47
1, 272764, Control_c, 0, 64, 62
1, 272773, Note_on_c, 0, 54, 71
1, 272779, Control_c, 0, 64, 71
1, 272794, Control_c, 0, 64, 90
1, 272809, Control_c, 0, 64, 127
1, 272843, Note_off_c, 0, 54, 63
1, 272865, Note_on_c, 0, 58, 75
1, 272906, Note_on_c, 0, 54, 69
1, 272919, Note_off_c, 0, 58, 62
1, 272972, Note_off_c, 0, 54, 65
1, 272978, Note_on_c, 0, 58, 74
1, 273012, Note_on_c, 0, 51, 31
1, 273025, Note_on_c, 0, 54, 76
1, 273028, Note_off_c, 0, 50, 64
1, 273042, Note_off_c, 0, 58, 64
1, 273048, Note_off_c, 0, 51, 48
1, 273088, Note_off_c, 0, 54, 65
1, 273091, Note_on_c, 0, 58, 73
1, 273134, Note_on_c, 0, 54, 72
1, 273148, Note_off_c, 0, 58, 64
1, 273159, Note_on_c, 0, 51, 6
1, 273192, Note_off_c, 0, 51, 0
1, 273203, Note_on_c, 0, 58, 73
1, 273206, Note_off_c, 0, 54, 60
1, 273214, Poly_aftertouch_c, 0, 51, 0
1, 273331, Note_off_c, 0, 58, 59
1, 273619, Note_on_c, 0, 51, 94
1, 273802, Control_c, 0, 64, 115
1, 273806, Note_on_c, 0, 56, 56
1, 273817, Control_c, 0, 64, 65
1, 273817, Note_on_c, 0, 49, 86
1, 273821, Note_on_c, 0, 53, 47
1, 273832, Control_c, 0, 64, 0
1, 273881, Note_off_c, 0, 51, 59
1, 273891, Control_c, 0, 64, 38
1, 273906, Control_c, 0, 64, 60
1, 273921, Control_c, 0, 64, 65
1, 273935, Control_c, 0, 64, 70
1, 273950, Control_c, 0, 64, 76
1, 273952, Note_off_c, 0, 53, 56
1, 273965, Control_c, 0, 64, 81
1, 273970, Note_off_c, 0, 56, 64
1, 273973, Note_on_c, 0, 61, 52
1, 273979, Control_c, 0, 64, 84
1, 273994, Control_c, 0, 64, 86
1, 274009, Control_c, 0, 64, 89
1, 274025, Control_c, 0, 64, 92
1, 274061, Note_off_c, 0, 61, 55
1, 274070, Control_c, 0, 64, 92
1, 274073, Note_on_c, 0, 56, 50
1, 274095, Note_on_c, 0, 53, 50
1, 274099, Control_c, 0, 64, 92
1, 274114, Control_c, 0, 64, 91
1, 274129, Control_c, 0, 64, 90
1, 274140, Note_off_c, 0, 53, 53
1, 274144, Note_off_c, 0, 56, 57
1, 274144, Control_c, 0, 64, 87
1, 274158, Control_c, 0, 64, 86
1, 274163, Note_on_c, 0, 61, 48
1, 274217, Control_c, 0, 64, 87
1, 274230, Note_on_c, 0, 56, 51
1, 274231, Note_off_c, 0, 61, 59
1, 274232, Control_c, 0, 64, 88
1, 274255, Note_on_c, 0, 53, 46
1, 274288, Note_off_c, 0, 53, 50
1, 274291, Control_c, 0, 64, 89
1, 274296, Note_off_c, 0, 56, 60
1, 274306, Control_c, 0, 64, 90
1, 274315, Note_on_c, 0, 61, 55
1, 274329, Control_c, 0, 64, 90
1, 274380, Note_on_c, 0, 56, 46
1, 274380, Note_off_c, 0, 61, 52
1, 274408, Note_on_c, 0, 53, 37
1, 274432, Control_c, 0, 64, 91
1, 274447, Control_c, 0, 64, 93
1, 274449, Note_off_c, 0, 56, 63
1, 274461, Note_on_c, 0, 61, 51
1, 274462, Control_c, 0, 64, 95
1, 274476, Control_c, 0, 64, 95
1, 274506, Control_c, 0, 64, 96
1, 274521, Control_c, 0, 64, 98
1, 274531, Note_on_c, 0, 56, 50
1, 274532, Note_off_c, 0, 53, 0
1, 274532, Note_off_c, 0, 61, 58
1, 274536, Control_c, 0, 64, 101
1, 274550, Control_c, 0, 64, 103
1, 274556, Note_on_c, 0, 53, 21
1, 274565, Control_c, 0, 64, 105
1, 274580, Control_c, 0, 64, 108
1, 274595, Control_c, 0, 64, 108
1, 274611, Note_off_c, 0, 56, 63
1, 274634, Note_on_c, 0, 61, 52
1, 274671, Note_off_c, 0, 53, 0
1, 274693, Note_on_c, 0, 56, 59
1, 274695, Note_off_c, 0, 61, 60
1, 274708, Poly_aftertouch_c, 0, 53, 127
1, 274750, Note_off_c, 0, 56, 60
1, 274758, Control_c, 0, 64, 109
1, 274773, Control_c, 0, 64, 109
1, 274775, Note_on_c, 0, 61, 53
1, 274788, Control_c, 0, 64, 111
1, 274802, Control_c, 0, 64, 115
1, 274817, Control_c, 0, 64, 120
1, 274833, Control_c, 0, 64, 127
1, 274842, Note_off_c, 0, 61, 61
1, 274858, Note_on_c, 0, 56, 57
1, 274944, Note_on_c, 0, 61, 47
1, 274946, Note_on_c, 0, 47, 75
1, 275015, Note_off_c, 0, 56, 35
1, 275126, Note_off_c, 0, 61, 54
1, 275158, Note_on_c, 0, 54, 42
1, 275161, Note_on_c, 0, 58, 43
1, 275211, Control_c, 0, 64, 88
1, 275225, Control_c, 0, 64, 67
1, 275230, Note_on_c, 0, 46, 67
1, 275234, Poly_aftertouch_c, 0, 53, 0
1, 275240, Control_c, 0, 64, 53
1, 275254, Note_off_c, 0, 49, 25
1, 275255, Control_c, 0, 64, 39
1, 275261, Note_off_c, 0, 47, 52
1, 275270, Control_c, 0, 64, 33
1, 275285, Control_c, 0, 64, 34
1, 275299, Control_c, 0, 64, 47
1, 275314, Control_c, 0, 64, 57
1, 275329, Control_c, 0, 64, 62
1, 275344, Control_c, 0, 64, 63
1, 275359, Control_c, 0, 64, 64
1, 275366, Note_off_c, 0, 54, 58
1, 275373, Control_c, 0, 64, 65
1, 275376, Note_on_c, 0, 61, 46
1, 275377, Note_off_c, 0, 58, 62
1, 275388, Control_c, 0, 64, 68
1, 275403, Control_c, 0, 64, 72
1, 275418, Control_c, 0, 64, 76
1, 275432, Control_c, 0, 64, 80
1, 275447, Control_c, 0, 64, 83
1, 275462, Control_c, 0, 64, 86
1, 275473, Note_off_c, 0, 61, 49
1, 275477, Control_c, 0, 64, 87
1, 275484, Note_on_c, 0, 58, 50
1, 275496, Note_on_c, 0, 54, 43
1, 275507, Control_c, 0, 64, 86
1, 275537, Control_c, 0, 64, 86
1, 275544, Note_off_c, 0, 54, 60
1, 275544, Note_off_c, 0, 58, 57
1, 275564, Note_on_c, 0, 61, 41
1, 275623, Note_off_c, 0, 61, 57
1, 275639, Note_on_c, 0, 58, 55
1, 275652, Note_on_c, 0, 54, 44
1, 275683, Note_off_c, 0, 58, 61
1, 275686, Note_off_c, 0, 54, 53
1, 275713, Note_on_c, 0, 61, 51
1, 275716, Control_c, 0, 64, 85
1, 275757, Note_on_c, 0, 58, 59
1, 275757, Note_off_c, 0, 61, 58
1, 275779, Note_on_c, 0, 54, 47
1, 275804, Control_c, 0, 64, 85
1, 275808, Note_off_c, 0, 54, 60
1, 275810, Note_off_c, 0, 58, 59
1, 275838, Note_on_c, 0, 61, 59
1, 275841, Control_c, 0, 64, 84
1, 275871, Control_c, 0, 64, 85
1, 275882, Note_on_c, 0, 58, 53
1, 275885, Note_off_c, 0, 61, 59
1, 275903, Note_on_c, 0, 54, 57
1, 275955, Note_on_c, 0, 61, 56
1, 275964, Note_off_c, 0, 54, 0
1, 275976, Note_off_c, 0, 58, 0
1, 275991, Note_on_c, 0, 58, 44
1, 276001, Note_off_c, 0, 61, 60
1, 276001, Poly_aftertouch_c, 0, 54, 127
1, 276074, Note_on_c, 0, 61, 51
1, 276078, Control_c, 0, 64, 84
1, 276090, Poly_aftertouch_c, 0, 54, 0
1, 276093, Note_off_c, 0, 58, 0
1, 276108, Control_c, 0, 64, 85
1, 276109, Note_on_c, 0, 58, 45
1, 276127, Poly_aftertouch_c, 0, 54, 127
1, 276130, Note_off_c, 0, 61, 62
1, 276181, Control_c, 0, 64, 85
1, 276190, Poly_aftertouch_c, 0, 54, 0
1, 276191, Note_off_c, 0, 58, 62
1, 276212, Note_on_c, 0, 61, 61
1, 276220, Note_off_c, 0, 46, 61
1, 276241, Control_c, 0, 64, 86
1, 276243, Note_on_c, 0, 54, 41
1, 276244, Note_on_c, 0, 58, 57
1, 276255, Note_off_c, 0, 61, 60
1, 276285, Control_c, 0, 64, 86
1, 276304, Note_off_c, 0, 54, 60
1, 276320, Note_off_c, 0, 58, 61
1, 276329, Note_on_c, 0, 61, 59
1, 276345, Control_c, 0, 64, 87
1, 276359, Control_c, 0, 64, 89
1, 276374, Control_c, 0, 64, 92
1, 276379, Note_off_c, 0, 61, 61
1, 276385, Note_on_c, 0, 58, 51
1, 276389, Control_c, 0, 64, 93
1, 276401, Note_on_c, 0, 54, 41
1, 276404, Control_c, 0, 64, 95
1, 276434, Control_c, 0, 64, 95
1, 276443, Note_off_c, 0, 58, 60
1, 276449, Note_off_c, 0, 54, 58
1, 276449, Control_c, 0, 64, 96
1, 276464, Control_c, 0, 64, 98
1, 276468, Note_on_c, 0, 61, 57
1, 276479, Control_c, 0, 64, 103
1, 276494, Control_c, 0, 64, 115
1, 276508, Control_c, 0, 64, 127
1, 276516, Note_off_c, 0, 61, 62
1, 276532, Note_on_c, 0, 58, 59
1, 276564, Note_on_c, 0, 54, 43
1, 276612, Note_off_c, 0, 58, 62
1, 276613, Note_off_c, 0, 54, 58
1, 276622, Note_on_c, 0, 61, 63
1, 276694, Note_off_c, 0, 61, 59
1, 276696, Note_on_c, 0, 58, 55
1, 276702, Note_on_c, 0, 54, 50
1, 276772, Note_off_c, 0, 54, 55
1, 276793, Note_off_c, 0, 58, 60
1, 276796, Note_on_c, 0, 61, 60
1, 276833, Note_on_c, 0, 46, 90
1, 276857, Control_c, 0, 64, 102
1, 276868, Note_on_c, 0, 54, 41
1, 276869, Note_off_c, 0, 61, 60
1, 276871, Note_on_c, 0, 58, 46
1, 276871, Control_c, 0, 64, 80
1, 276886, Control_c, 0, 64, 71
1, 276901, Control_c, 0, 64, 68
1, 276916, Control_c, 0, 64, 69
1, 276931, Control_c, 0, 64, 74
1, 276945, Control_c, 0, 64, 90
1, 276950, Note_off_c, 0, 54, 53
1, 276960, Control_c, 0, 64, 127
1, 276976, Note_off_c, 0, 58, 61
1, 276985, Note_on_c, 0, 61, 55
1, 277066, Note_off_c, 0, 61, 59
1, 277071, Note_on_c, 0, 58, 60
1, 277085, Note_on_c, 0, 54, 61
1, 277096, Note_off_c, 0, 46, 63
1, 277139, Note_off_c, 0, 54, 55
1, 277155, Note_off_c, 0, 58, 61
1, 277162, Note_on_c, 0, 61, 69
1, 277243, Note_off_c, 0, 61, 58
1, 277266, Note_on_c, 0, 58, 61
1, 277267, Note_on_c, 0, 54, 46
1, 277310, Note_on_c, 0, 46, 83
1, 277351, Note_off_c, 0, 54, 61
1, 277359, Note_on_c, 0, 61, 71
1, 277359, Note_off_c, 0, 58, 62
1, 277376, Note_on_c, 0, 49, 79
1, 277394, Note_off_c, 0, 46, 63
1, 277438, Note_on_c, 0, 47, 87
1, 277441, Note_off_c, 0, 61, 59
1, 277456, Note_on_c, 0, 58, 71
1, 277457, Control_c, 0, 64, 70
1, 277461, Note_on_c, 0, 54, 66
1, 277472, Control_c, 0, 64, 36
1, 277482, Note_off_c, 0, 49, 60
1, 277487, Control_c, 0, 64, 0
1, 277533, Note_off_c, 0, 54, 62
1, 277550, Note_off_c, 0, 58, 60
1, 277553, Note_on_c, 0, 61, 67
1, 277561, Control_c, 0, 64, 46
1, 277576, Control_c, 0, 64, 55
1, 277591, Control_c, 0, 64, 60
1, 277605, Control_c, 0, 64, 64
1, 277620, Control_c, 0, 64, 68
1, 277626, Note_off_c, 0, 61, 61
1, 277629, Note_on_c, 0, 58, 60
1, 277635, Control_c, 0, 64, 71
1, 277638, Note_on_c, 0, 54, 51
1, 277650, Control_c, 0, 64, 74
1, 277665, Control_c, 0, 64, 78
1, 277680, Control_c, 0, 64, 82
1, 277692, Note_off_c, 0, 54, 60
1, 277695, Control_c, 0, 64, 87
1, 277708, Note_off_c, 0, 58, 58
1, 277710, Control_c, 0, 64, 89
1, 277723, Note_on_c, 0, 61, 60
1, 277725, Control_c, 0, 64, 90
1, 277740, Control_c, 0, 64, 94
1, 277754, Control_c, 0, 64, 104
1, 277769, Control_c, 0, 64, 127
1, 277789, Note_off_c, 0, 61, 60
1, 277799, Note_on_c, 0, 58, 59
1, 277813, Note_on_c, 0, 54, 53
1, 277856, Note_off_c, 0, 54, 61
1, 277865, Note_off_c, 0, 58, 62
1, 277884, Note_on_c, 0, 61, 64
1, 277954, Note_off_c, 0, 61, 60
1, 277960, Note_on_c, 0, 54, 47
1, 277966, Note_on_c, 0, 58, 68
1, 278003, Note_off_c, 0, 54, 60
1, 278027, Note_off_c, 0, 58, 65
1, 278055, Note_on_c, 0, 61, 68
1, 278114, Note_on_c, 0, 54, 61
1, 278121, Note_off_c, 0, 47, 58
1, 278139, Note_on_c, 0, 58, 72
1, 278142, Note_off_c, 0, 61, 55
1, 278158, Note_off_c, 0, 54, 56
1, 278202, Note_on_c, 0, 61, 55
1, 278205, Note_off_c, 0, 58, 63
1, 278263, Note_on_c, 0, 46, 96
1, 278271, Note_on_c, 0, 54, 61
1, 278286, Note_off_c, 0, 61, 62
1, 278302, Note_on_c, 0, 58, 65
1, 278389, Note_off_c, 0, 54, 59
1, 278394, Note_on_c, 0, 61, 63
1, 278395, Note_off_c, 0, 58, 58
1, 278482, Note_on_c, 0, 56, 63
1, 278487, Note_off_c, 0, 61, 61
1, 278504, Note_on_c, 0, 53, 56
1, 278547, Note_off_c, 0, 46, 55
1, 278658, Note_on_c, 0, 46, 93
1, 278665, Control_c, 0, 64, 120
1, 278680, Control_c, 0, 64, 70
1, 278695, Control_c, 0, 64, 46
1, 278710, Control_c, 0, 64, 0
1, 278754, Control_c, 0, 64, 33
1, 278769, Control_c, 0, 64, 52
1, 278784, Control_c, 0, 64, 59
1, 278798, Control_c, 0, 64, 62
1, 278822, Control_c, 0, 64, 65
1, 278823, Note_off_c, 0, 53, 54
1, 278837, Control_c, 0, 64, 68
1, 278851, Control_c, 0, 64, 70
1, 278857, Note_off_c, 0, 56, 58
1, 278866, Control_c, 0, 64, 70
1, 278881, Control_c, 0, 64, 71
1, 278883, Note_on_c, 0, 62, 27
1, 278896, Control_c, 0, 64, 72
1, 278911, Control_c, 0, 64, 73
1, 278926, Control_c, 0, 64, 74
1, 278941, Control_c, 0, 64, 76
1, 278955, Control_c, 0, 64, 79
1, 278970, Control_c, 0, 64, 85
1, 278980, Note_on_c, 0, 53, 49
1, 278982, Note_on_c, 0, 56, 52
1, 278985, Control_c, 0, 64, 89
1, 278993, Note_off_c, 0, 62, 42
1, 279000, Control_c, 0, 64, 90
1, 279030, Note_off_c, 0, 56, 58
1, 279039, Note_off_c, 0, 53, 53
1, 279044, Control_c, 0, 64, 92
1, 279059, Control_c, 0, 64, 94
1, 279073, Control_c, 0, 64, 94
1, 279075, Note_on_c, 0, 62, 56
1, 279103, Control_c, 0, 64, 94
1, 279118, Control_c, 0, 64, 93
1, 279138, Note_off_c, 0, 62, 50
1, 279147, Control_c, 0, 64, 94
1, 279160, Note_on_c, 0, 56, 55
1, 279161, Note_on_c, 0, 53, 39
1, 279162, Control_c, 0, 64, 94
1, 279219, Note_off_c, 0, 53, 56
1, 279219, Note_off_c, 0, 56, 54
1, 279248, Note_on_c, 0, 62, 48
1, 279266, Control_c, 0, 64, 94
1, 279310, Note_on_c, 0, 53, 37
1, 279311, Control_c, 0, 64, 94
1, 279316, Note_on_c, 0, 56, 53
1, 279319, Note_off_c, 0, 62, 61
1, 279325, Control_c, 0, 64, 95
1, 279340, Control_c, 0, 64, 96
1, 279355, Control_c, 0, 64, 96
1, 279382, Note_off_c, 0, 56, 52
1, 279400, Control_c, 0, 64, 96
1, 279412, Note_off_c, 0, 53, 35
1, 279414, Note_on_c, 0, 62, 51
1, 279429, Control_c, 0, 64, 96
1, 279459, Control_c, 0, 64, 97
1, 279473, Control_c, 0, 64, 97
1, 279483, Note_on_c, 0, 53, 36
1, 279483, Note_on_c, 0, 56, 46
1, 279483, Note_off_c, 0, 62, 61
1, 279488, Control_c, 0, 64, 99
1, 279503, Control_c, 0, 64, 100
1, 279518, Control_c, 0, 64, 103
1, 279533, Control_c, 0, 64, 112
1, 279547, Control_c, 0, 64, 127
1, 279566, Note_off_c, 0, 56, 56
1, 279573, Note_off_c, 0, 53, 48
1, 279593, Note_on_c, 0, 62, 51
1, 279649, Note_off_c, 0, 62, 55
1, 279683, Note_on_c, 0, 56, 51
1, 279689, Control_c, 0, 64, 113
1, 279692, Note_on_c, 0, 53, 46
1, 279704, Control_c, 0, 64, 91
1, 279719, Control_c, 0, 64, 88
1, 279727, Note_on_c, 0, 44, 88
1, 279734, Control_c, 0, 64, 92
1, 279749, Control_c, 0, 64, 104
1, 279764, Control_c, 0, 64, 127
1, 279772, Note_off_c, 0, 56, 49
1, 279800, Note_on_c, 0, 62, 49
1, 279820, Note_off_c, 0, 53, 32
1, 279889, Note_off_c, 0, 62, 60
1, 279896, Note_on_c, 0, 56, 54
1, 279897, Note_on_c, 0, 53, 35
1, 279926, Control_c, 0, 64, 125
1, 279941, Control_c, 0, 64, 85
1, 279956, Control_c, 0, 64, 71
1, 279962, Note_off_c, 0, 53, 54
1, 279964, Note_off_c, 0, 56, 55
1, 279970, Control_c, 0, 64, 67
1, 279981, Note_on_c, 0, 42, 93
1, 279985, Control_c, 0, 64, 67
1, 279990, Note_off_c, 0, 46, 24
1, 280000, Control_c, 0, 64, 70
1, 280009, Note_on_c, 0, 62, 56
1, 280015, Control_c, 0, 64, 75
1, 280030, Control_c, 0, 64, 84
1, 280044, Control_c, 0, 64, 101
1, 280059, Control_c, 0, 64, 127
1, 280079, Note_off_c, 0, 62, 51
1, 280083, Note_on_c, 0, 56, 52
1, 280110, Note_on_c, 0, 53, 46
1, 280164, Note_off_c, 0, 53, 52
1, 280165, Note_off_c, 0, 56, 55
1, 280167, Note_on_c, 0, 62, 48
1, 280208, Control_c, 0, 64, 77
1, 280222, Note_on_c, 0, 41, 80
1, 280222, Control_c, 0, 64, 56
1, 280237, Control_c, 0, 64, 19
1, 280252, Control_c, 0, 64, 0
1, 280253, Note_on_c, 0, 56, 29
1, 280259, Note_off_c, 0, 62, 52
1, 280262, Note_off_c, 0, 42, 62
1, 280266, Note_on_c, 0, 53, 11
1, 280273, Note_off_c, 0, 44, 29
1, 280318, Control_c, 0, 64, 39
1, 280333, Control_c, 0, 64, 46
1, 280347, Note_off_c, 0, 56, 58
1, 280348, Control_c, 0, 64, 47
1, 280359, Note_on_c, 0, 62, 34
1, 280363, Control_c, 0, 64, 49
1, 280368, Note_off_c, 0, 53, 37
1, 280378, Control_c, 0, 64, 53
1, 280393, Control_c, 0, 64, 57
1, 280407, Control_c, 0, 64, 59
1, 280423, Control_c, 0, 64, 60
1, 280438, Control_c, 0, 64, 60
1, 280453, Control_c, 0, 64, 61
1, 280457, Note_on_c, 0, 56, 35
1, 280460, Note_off_c, 0, 62, 56
1, 280467, Control_c, 0, 64, 63
1, 280481, Note_on_c, 0, 53, 21
1, 280512, Control_c, 0, 64, 63
1, 280514, Note_off_c, 0, 56, 59
1, 280524, Note_off_c, 0, 53, 51
1, 280527, Control_c, 0, 64, 64
1, 280542, Control_c, 0, 64, 65
1, 280548, Note_on_c, 0, 62, 34
1, 280586, Control_c, 0, 64, 65
1, 280601, Control_c, 0, 64, 67
1, 280615, Note_off_c, 0, 62, 59
1, 280616, Control_c, 0, 64, 68
1, 280624, Note_on_c, 0, 56, 39
1, 280651, Note_on_c, 0, 53, 35
1, 280661, Note_off_c, 0, 56, 57
1, 280675, Control_c, 0, 64, 69
1, 280693, Note_off_c, 0, 53, 47
1, 280705, Control_c, 0, 64, 69
1, 280706, Note_on_c, 0, 62, 56
1, 280734, Control_c, 0, 64, 70
1, 280749, Control_c, 0, 64, 72
1, 280757, Note_off_c, 0, 62, 59
1, 280762, Note_on_c, 0, 56, 45
1, 280764, Control_c, 0, 64, 72
1, 280780, Note_on_c, 0, 53, 23
1, 280804, Note_off_c, 0, 56, 59
1, 280808, Control_c, 0, 64, 73
1, 280822, Note_off_c, 0, 53, 47
1, 280823, Control_c, 0, 64, 74
1, 280837, Control_c, 0, 64, 75
1, 280843, Note_on_c, 0, 62, 56
1, 280852, Control_c, 0, 64, 75
1, 280884, Note_off_c, 0, 62, 61
1, 280888, Note_on_c, 0, 56, 48
1, 280901, Note_on_c, 0, 53, 31
1, 280926, Control_c, 0, 64, 75
1, 280935, Note_off_c, 0, 56, 59
1, 280940, Note_off_c, 0, 53, 50
1, 280956, Control_c, 0, 64, 75
1, 280971, Control_c, 0, 64, 76
1, 280977, Note_on_c, 0, 62, 60
1, 280986, Control_c, 0, 64, 77
1, 281001, Control_c, 0, 64, 78
1, 281009, Note_off_c, 0, 62, 62
1, 281010, Note_on_c, 0, 56, 56
1, 281016, Control_c, 0, 64, 78
1, 281030, Control_c, 0, 64, 80
1, 281031, Note_on_c, 0, 53, 40
1, 281045, Control_c, 0, 64, 81
1, 281054, Note_off_c, 0, 56, 59
1, 281067, Control_c, 0, 64, 82
1, 281073, Note_off_c, 0, 53, 50
1, 281105, Note_on_c, 0, 62, 58
1, 281132, Note_on_c, 0, 56, 66
1, 281141, Note_off_c, 0, 62, 64
1, 281147, Note_on_c, 0, 53, 48
1, 281156, Control_c, 0, 64, 82
1, 281174, Note_off_c, 0, 56, 57
1, 281186, Control_c, 0, 64, 83
1, 281192, Note_off_c, 0, 53, 56
1, 281215, Control_c, 0, 64, 84
1, 281221, Note_on_c, 0, 62, 63
1, 281231, Control_c, 0, 64, 84
1, 281245, Note_on_c, 0, 56, 60
1, 281246, Control_c, 0, 64, 85
1, 281258, Note_off_c, 0, 62, 64
1, 281287, Note_on_c, 0, 53, 25
1, 281290, Control_c, 0, 64, 86
1, 281305, Control_c, 0, 64, 86
1, 281309, Note_off_c, 0, 56, 43
1, 281329, Note_off_c, 0, 53, 49
1, 281337, Note_on_c, 0, 62, 62
1, 281349, Control_c, 0, 64, 87
1, 281360, Note_on_c, 0, 56, 46
1, 281364, Control_c, 0, 64, 88
1, 281376, Note_off_c, 0, 62, 64
1, 281380, Control_c, 0, 64, 89
1, 281395, Control_c, 0, 64, 90
1, 281401, Note_on_c, 0, 53, 42
1, 281410, Control_c, 0, 64, 91
1, 281418, Note_off_c, 0, 56, 57
1, 281433, Note_off_c, 0, 53, 52
1, 281456, Note_on_c, 0, 62, 62
1, 281469, Control_c, 0, 64, 92
1, 281484, Control_c, 0, 64, 94
1, 281487, Note_on_c, 0, 56, 50
1, 281494, Note_off_c, 0, 62, 61
1, 281498, Control_c, 0, 64, 95
1, 281537, Note_on_c, 0, 53, 42
1, 281558, Control_c, 0, 64, 98
1, 281573, Control_c, 0, 64, 110
1, 281574, Note_on_c, 0, 62, 58
1, 281576, Note_off_c, 0, 53, 50
1, 281580, Note_off_c, 0, 41, 31
1, 281588, Control_c, 0, 64, 127
1, 281603, Note_off_c, 0, 56, 0
1, 281619, Note_on_c, 0, 56, 35
1, 281637, Note_off_c, 0, 62, 55
1, 281651, Note_on_c, 0, 53, 46
1, 281657, Note_on_c, 0, 41, 74
1, 281661, Control_c, 0, 64, 105
1, 281676, Control_c, 0, 64, 80
1, 281691, Control_c, 0, 64, 71
1, 281698, Note_off_c, 0, 53, 58
1, 281706, Control_c, 0, 64, 72
1, 281710, Note_off_c, 0, 56, 57
1, 281720, Note_on_c, 0, 62, 56
1, 281721, Control_c, 0, 64, 76
1, 281735, Control_c, 0, 64, 78
1, 281765, Control_c, 0, 64, 79
1, 281775, Note_on_c, 0, 56, 40
1, 281780, Control_c, 0, 64, 82
1, 281785, Note_off_c, 0, 62, 63
1, 281795, Control_c, 0, 64, 86
1, 281800, Note_on_c, 0, 53, 52
1, 281817, Control_c, 0, 64, 90
1, 281832, Control_c, 0, 64, 91
1, 281844, Note_off_c, 0, 53, 48
1, 281859, Note_off_c, 0, 56, 59
1, 281862, Control_c, 0, 64, 93
1, 281876, Control_c, 0, 64, 97
1, 281877, Note_on_c, 0, 62, 56
1, 281891, Control_c, 0, 64, 102
1, 281906, Control_c, 0, 64, 103
1, 281919, Note_on_c, 0, 56, 52
1, 281921, Control_c, 0, 64, 106
1, 281934, Note_on_c, 0, 53, 46
1, 281934, Note_off_c, 0, 62, 59
1, 281936, Control_c, 0, 64, 115
1, 281950, Control_c, 0, 64, 127
1, 281979, Note_off_c, 0, 53, 55
1, 281990, Note_off_c, 0, 41, 63
1, 281998, Note_off_c, 0, 56, 62
1, 282017, Note_on_c, 0, 62, 68
1, 282069, Note_on_c, 0, 56, 53
1, 282074, Note_off_c, 0, 62, 61
1, 282076, Note_on_c, 0, 53, 59
1, 282150, Note_on_c, 0, 62, 57
1, 282220, Note_off_c, 0, 56, 49
1, 282244, Note_on_c, 0, 41, 83
1, 282248, Note_off_c, 0, 62, 60
1, 282253, Note_off_c, 0, 53, 27
1, 282290, Control_c, 0, 64, 108
1, 282305, Control_c, 0, 64, 80
1, 282320, Control_c, 0, 64, 68
1, 282335, Control_c, 0, 64, 63
1, 282350, Control_c, 0, 64, 63
1, 282364, Control_c, 0, 64, 65
1, 282379, Control_c, 0, 64, 67
1, 282394, Control_c, 0, 64, 72
1, 282409, Control_c, 0, 64, 81
1, 282424, Control_c, 0, 64, 97
1, 282438, Control_c, 0, 64, 127
1, 282742, Note_on_c, 0, 42, 90
1, 282742, Control_c, 0, 64, 89
1, 282757, Control_c, 0, 64, 72
1, 282771, Control_c, 0, 64, 65
1, 282773, Note_off_c, 0, 41, 53
1, 282786, Control_c, 0, 64, 65
1, 282801, Control_c, 0, 64, 68
1, 282817, Control_c, 0, 64, 75
1, 282832, Control_c, 0, 64, 90
1, 282847, Control_c, 0, 64, 127
1, 282923, Note_off_c, 0, 42, 62
1, 283055, Control_c, 0, 64, 93
1, 283069, Control_c, 0, 64, 78
1, 283076, Note_on_c, 0, 44, 90
1, 283084, Control_c, 0, 64, 76
1, 283099, Control_c, 0, 64, 85
1, 283113, Control_c, 0, 64, 127
1, 283186, Note_off_c, 0, 44, 62
1, 283433, Note_on_c, 0, 51, 53
1, 283436, Note_on_c, 0, 54, 56
1, 283491, Control_c, 0, 64, 104
1, 283505, Note_on_c, 0, 46, 92
1, 283506, Control_c, 0, 64, 66
1, 283520, Control_c, 0, 64, 20
1, 283535, Control_c, 0, 64, 0
1, 283594, Control_c, 0, 64, 47
1, 283610, Control_c, 0, 64, 59
1, 283625, Control_c, 0, 64, 64
1, 283640, Control_c, 0, 64, 67
1, 283655, Control_c, 0, 64, 68
1, 283670, Control_c, 0, 64, 69
1, 283684, Control_c, 0, 64, 72
1, 283699, Control_c, 0, 64, 77
1, 283714, Control_c, 0, 64, 86
1, 283715, Note_on_c, 0, 63, 50
1, 283722, Note_off_c, 0, 51, 34
1, 283724, Note_off_c, 0, 54, 54
1, 283729, Control_c, 0, 64, 93
1, 283743, Control_c, 0, 64, 96
1, 283758, Control_c, 0, 64, 97
1, 283773, Control_c, 0, 64, 96
1, 283788, Control_c, 0, 64, 95
1, 283803, Control_c, 0, 64, 93
1, 283814, Note_on_c, 0, 54, 48
1, 283818, Note_off_c, 0, 63, 50
1, 283818, Control_c, 0, 64, 91
1, 283833, Control_c, 0, 64, 90
1, 283835, Note_on_c, 0, 51, 44
1, 283847, Control_c, 0, 64, 89
1, 283892, Control_c, 0, 64, 88
1, 283892, Note_off_c, 0, 51, 52
1, 283897, Note_off_c, 0, 54, 54
1, 283907, Control_c, 0, 64, 88
1, 283923, Note_on_c, 0, 63, 48
1, 283936, Control_c, 0, 64, 88
1, 283985, Note_on_c, 0, 54, 52
1, 283991, Note_off_c, 0, 63, 58
1, 283996, Control_c, 0, 64, 89
1, 284001, Note_on_c, 0, 51, 50
1, 284041, Note_off_c, 0, 51, 51
1, 284047, Note_off_c, 0, 54, 58
1, 284062, Control_c, 0, 64, 88
1, 284077, Note_on_c, 0, 63, 55
1, 284137, Control_c, 0, 64, 89
1, 284143, Note_on_c, 0, 54, 54
1, 284146, Note_off_c, 0, 63, 62
1, 284149, Note_on_c, 0, 51, 50
1, 284151, Control_c, 0, 64, 89
1, 284166, Control_c, 0, 64, 90
1, 284195, Note_off_c, 0, 54, 56
1, 284197, Note_off_c, 0, 51, 60
1, 284217, Note_on_c, 0, 63, 59
1, 284281, Note_on_c, 0, 54, 55
1, 284282, Note_off_c, 0, 63, 61
1, 284284, Control_c, 0, 64, 89
1, 284289, Note_on_c, 0, 51, 51
1, 284347, Note_off_c, 0, 54, 54
1, 284354, Note_off_c, 0, 51, 50
1, 284360, Note_on_c, 0, 63, 55
1, 284426, Note_on_c, 0, 54, 55
1, 284426, Note_off_c, 0, 63, 62
1, 284431, Note_on_c, 0, 51, 51
1, 284506, Note_off_c, 0, 54, 62
1, 284517, Note_on_c, 0, 63, 46
1, 284525, Note_off_c, 0, 51, 39
1, 284577, Note_on_c, 0, 54, 55
1, 284578, Note_off_c, 0, 63, 61
1, 284588, Note_on_c, 0, 51, 36
1, 284625, Control_c, 0, 64, 90
1, 284637, Note_off_c, 0, 54, 58
1, 284643, Note_off_c, 0, 51, 45
1, 284655, Control_c, 0, 64, 90
1, 284661, Note_on_c, 0, 63, 61
1, 284670, Control_c, 0, 64, 91
1, 284684, Control_c, 0, 64, 91
1, 284699, Control_c, 0, 64, 92
1, 284714, Control_c, 0, 64, 93
1, 284729, Control_c, 0, 64, 95
1, 284732, Note_off_c, 0, 63, 61
1, 284735, Note_on_c, 0, 54, 57
1, 284744, Control_c, 0, 64, 99
1, 284753, Note_on_c, 0, 51, 33
1, 284758, Control_c, 0, 64, 110
1, 284773, Control_c, 0, 64, 127
1, 284791, Note_off_c, 0, 54, 58
1, 284792, Note_off_c, 0, 51, 49
1, 284824, Note_on_c, 0, 63, 48
1, 284866, Note_on_c, 0, 44, 88
1, 284884, Control_c, 0, 64, 104
1, 284889, Note_off_c, 0, 46, 62
1, 284896, Note_off_c, 0, 63, 62
1, 284899, Control_c, 0, 64, 81
1, 284901, Note_on_c, 0, 54, 58
1, 284914, Control_c, 0, 64, 71
1, 284915, Note_on_c, 0, 51, 39
1, 284929, Control_c, 0, 64, 67
1, 284940, Note_off_c, 0, 54, 63
1, 284944, Control_c, 0, 64, 68
1, 284947, Note_off_c, 0, 51, 55
1, 284958, Control_c, 0, 64, 72
1, 284968, Note_on_c, 0, 63, 58
1, 284973, Control_c, 0, 64, 78
1, 284988, Control_c, 0, 64, 89
1, 285003, Control_c, 0, 64, 113
1, 285018, Control_c, 0, 64, 127
1, 285038, Note_off_c, 0, 63, 60
1, 285049, Note_on_c, 0, 54, 63
1, 285052, Note_on_c, 0, 51, 39
1, 285101, Note_off_c, 0, 51, 53
1, 285117, Note_off_c, 0, 54, 60
1, 285124, Note_on_c, 0, 63, 53
1, 285181, Control_c, 0, 64, 99
1, 285192, Note_on_c, 0, 42, 95
1, 285196, Control_c, 0, 64, 79
1, 285198, Note_off_c, 0, 63, 56
1, 285204, Note_on_c, 0, 54, 63
1, 285212, Control_c, 0, 64, 70
1, 285222, Note_off_c, 0, 44, 65
1, 285222, Note_on_c, 0, 51, 58
1, 285227, Control_c, 0, 64, 68
1, 285242, Control_c, 0, 64, 72
1, 285256, Control_c, 0, 64, 85
1, 285265, Note_off_c, 0, 54, 61
1, 285269, Note_off_c, 0, 51, 57
1, 285271, Control_c, 0, 64, 127
1, 285285, Note_on_c, 0, 63, 64
1, 285348, Note_on_c, 0, 54, 59
1, 285353, Note_on_c, 0, 51, 50
1, 285360, Note_off_c, 0, 63, 61
1, 285401, Note_off_c, 0, 51, 59
1, 285420, Note_off_c, 0, 54, 62
1, 285431, Note_on_c, 0, 63, 57
1, 285434, Control_c, 0, 64, 111
1, 285449, Control_c, 0, 64, 81
1, 285463, Control_c, 0, 64, 74
1, 285466, Note_on_c, 0, 41, 85
1, 285478, Control_c, 0, 64, 75
1, 285493, Note_on_c, 0, 54, 63
1, 285493, Control_c, 0, 64, 81
1, 285497, Note_on_c, 0, 51, 60
1, 285499, Note_off_c, 0, 63, 62
1, 285508, Control_c, 0, 64, 96
1, 285523, Control_c, 0, 64, 127
1, 285559, Note_off_c, 0, 51, 59
1, 285563, Note_off_c, 0, 54, 63
1, 285570, Note_on_c, 0, 63, 63
1, 285636, Note_on_c, 0, 54, 60
1, 285642, Note_on_c, 0, 51, 39
1, 285657, Note_off_c, 0, 63, 59
1, 285681, Note_off_c, 0, 51, 50
1, 285691, Note_off_c, 0, 54, 61
1, 285732, Note_off_c, 0, 41, 62
1, 285733, Note_on_c, 0, 51, 66
1, 285737, Note_off_c, 0, 42, 42
1, 285747, Note_on_c, 0, 54, 69
1, 285752, Control_c, 0, 64, 81
1, 285763, Note_on_c, 0, 39, 89
1, 285767, Control_c, 0, 64, 63
1, 285770, Poly_aftertouch_c, 0, 63, 0
1, 285782, Control_c, 0, 64, 45
1, 285783, Note_on_c, 0, 63, 33
1, 285797, Control_c, 0, 64, 25
1, 285812, Control_c, 0, 64, 9
1, 285827, Control_c, 0, 64, 30
1, 285830, Note_off_c, 0, 54, 64
1, 285840, Note_off_c, 0, 51, 64
1, 285842, Control_c, 0, 64, 53
1, 285856, Control_c, 0, 64, 60
1, 285871, Control_c, 0, 64, 63
1, 285886, Control_c, 0, 64, 65
1, 285887, Note_off_c, 0, 63, 53
1, 285901, Control_c, 0, 64, 67
1, 285915, Control_c, 0, 64, 72
1, 285930, Control_c, 0, 64, 79
1, 285945, Control_c, 0, 64, 89
1, 285960, Control_c, 0, 64, 108
1, 285975, Control_c, 0, 64, 127
1, 286335, Note_off_c, 0, 39, 60
1, 286351, Note_on_c, 0, 38, 94
1, 286375, Note_on_c, 0, 39, 35
1, 286383, Control_c, 0, 64, 78
1, 286398, Control_c, 0, 64, 59
1, 286409, Note_off_c, 0, 39, 52
1, 286412, Control_c, 0, 64, 22
1, 286427, Control_c, 0, 64, 0
1, 286457, Control_c, 0, 64, 17
1, 286472, Control_c, 0, 64, 54
1, 286486, Control_c, 0, 64, 60
1, 286501, Control_c, 0, 64, 63
1, 286516, Control_c, 0, 64, 65
1, 286530, Control_c, 0, 64, 69
1, 286545, Control_c, 0, 64, 80
1, 286560, Control_c, 0, 64, 127
1, 286941, Note_off_c, 0, 38, 56
1, 286961, Note_on_c, 0, 37, 88
1, 286991, Control_c, 0, 64, 80
1, 286992, Note_on_c, 0, 38, 30
1, 287006, Control_c, 0, 64, 63
1, 287021, Control_c, 0, 64, 44
1, 287028, Note_off_c, 0, 38, 43
1, 287035, Control_c, 0, 64, 31
1, 287058, Control_c, 0, 64, 32
1, 287073, Control_c, 0, 64, 51
1, 287088, Control_c, 0, 64, 63
1, 287103, Control_c, 0, 64, 68
1, 287117, Control_c, 0, 64, 77
1, 287132, Control_c, 0, 64, 91
1, 287147, Control_c, 0, 64, 127
1, 287606, Note_on_c, 0, 36, 94
1, 287636, Control_c, 0, 64, 81
1, 287651, Control_c, 0, 64, 63
1, 287666, Control_c, 0, 64, 45
1, 287681, Control_c, 0, 64, 13
1, 287696, Control_c, 0, 64, 0
1, 287725, Note_off_c, 0, 37, 55
1, 287725, Control_c, 0, 64, 34
1, 287740, Control_c, 0, 64, 57
1, 287755, Control_c, 0, 64, 66
1, 287770, Control_c, 0, 64, 76
1, 287784, Control_c, 0, 64, 99
1, 287799, Control_c, 0, 64, 127
1, 288369, Note_on_c, 0, 58, 71
1, 288370, Note_on_c, 0, 35, 94
1, 288374, Note_on_c, 0, 54, 68
1, 288399, Control_c, 0, 64, 89
1, 288414, Control_c, 0, 64, 64
1, 288422, Note_off_c, 0, 36, 63
1, 288429, Control_c, 0, 64, 0
1, 288519, Control_c, 0, 64, 49
1, 288533, Control_c, 0, 64, 59
1, 288555, Control_c, 0, 64, 61
1, 288570, Control_c, 0, 64, 62
1, 288584, Note_off_c, 0, 54, 63
1, 288585, Control_c, 0, 64, 63
1, 288600, Control_c, 0, 64, 67
1, 288604, Note_off_c, 0, 58, 62
1, 288605, Note_on_c, 0, 63, 56
1, 288614, Control_c, 0, 64, 73
1, 288629, Control_c, 0, 64, 79
1, 288644, Control_c, 0, 64, 83
1, 288659, Control_c, 0, 64, 88
1, 288674, Control_c, 0, 64, 91
1, 288693, Note_on_c, 0, 58, 61
1, 288699, Note_off_c, 0, 63, 58
1, 288703, Note_on_c, 0, 54, 58
1, 288703, Control_c, 0, 64, 89
1, 288718, Control_c, 0, 64, 88
1, 288733, Control_c, 0, 64, 91
1, 288739, Note_off_c, 0, 54, 65
1, 288747, Note_off_c, 0, 58, 59
1, 288748, Control_c, 0, 64, 95
1, 288763, Control_c, 0, 64, 98
1, 288765, Note_on_c, 0, 63, 54
1, 288793, Control_c, 0, 64, 96
1, 288807, Control_c, 0, 64, 95
1, 288818, Note_on_c, 0, 54, 66
1, 288822, Control_c, 0, 64, 94
1, 288824, Note_on_c, 0, 58, 68
1, 288831, Note_off_c, 0, 63, 63
1, 288837, Control_c, 0, 64, 91
1, 288852, Control_c, 0, 64, 89
1, 288859, Note_off_c, 0, 54, 60
1, 288867, Control_c, 0, 64, 90
1, 288872, Note_off_c, 0, 58, 60
1, 288881, Control_c, 0, 64, 93
1, 288890, Note_on_c, 0, 63, 60
1, 288896, Control_c, 0, 64, 95
1, 288911, Control_c, 0, 64, 95
1, 288925, Control_c, 0, 64, 95
1, 288936, Note_on_c, 0, 58, 69
1, 288939, Note_on_c, 0, 54, 59
1, 288949, Note_off_c, 0, 63, 62
1, 288955, Control_c, 0, 64, 94
1, 288978, Note_off_c, 0, 54, 58
1, 288985, Control_c, 0, 64, 93
1, 288994, Note_off_c, 0, 58, 64
1, 288999, Control_c, 0, 64, 93
1, 289001, Note_on_c, 0, 63, 66
1, 289045, Note_on_c, 0, 54, 46
1, 289046, Note_on_c, 0, 58, 73
1, 289059, Control_c, 0, 64, 92
1, 289065, Note_off_c, 0, 63, 63
1, 289085, Note_off_c, 0, 54, 56
1, 289112, Note_off_c, 0, 58, 63
1, 289123, Note_on_c, 0, 63, 72
1, 289140, Poly_aftertouch_c, 0, 54, 0
1, 289162, Control_c, 0, 64, 93
1, 289167, Note_on_c, 0, 58, 74
1, 289177, Poly_aftertouch_c, 0, 54, 127
1, 289177, Control_c, 0, 64, 93
1, 289183, Note_off_c, 0, 63, 62
1, 289192, Control_c, 0, 64, 95
1, 289208, Control_c, 0, 64, 95
1, 289222, Control_c, 0, 64, 96
1, 289231, Poly_aftertouch_c, 0, 54, 0
1, 289236, Note_off_c, 0, 58, 63
1, 289237, Control_c, 0, 64, 96
1, 289246, Note_on_c, 0, 63, 71
1, 289252, Control_c, 0, 64, 97
1, 289267, Control_c, 0, 64, 100
1, 289268, Poly_aftertouch_c, 0, 54, 127
1, 289282, Control_c, 0, 64, 105
1, 289304, Control_c, 0, 64, 113
1, 289316, Note_on_c, 0, 58, 72
1, 289319, Control_c, 0, 64, 127
1, 289321, Note_off_c, 0, 63, 63
1, 289411, Note_on_c, 0, 63, 74
1, 289435, Poly_aftertouch_c, 0, 54, 0
1, 289461, Note_off_c, 0, 58, 62
1, 289496, Note_on_c, 0, 57, 77
1, 289501, Note_on_c, 0, 53, 84
1, 289511, Control_c, 0, 64, 82
1, 289526, Control_c, 0, 64, 63
1, 289535, Note_off_c, 0, 63, 51
1, 289541, Control_c, 0, 64, 44
1, 289556, Control_c, 0, 64, 41
1, 289571, Control_c, 0, 64, 43
1, 289586, Control_c, 0, 64, 54
1, 289601, Control_c, 0, 64, 60
1, 289615, Control_c, 0, 64, 62
1, 289630, Control_c, 0, 64, 65
1, 289645, Control_c, 0, 64, 66
1, 289660, Control_c, 0, 64, 68
1, 289672, Note_on_c, 0, 63, 58
1, 289678, Note_off_c, 0, 57, 59
1, 289680, Note_off_c, 0, 53, 46
1, 289690, Control_c, 0, 64, 68
1, 289704, Control_c, 0, 64, 71
1, 289719, Control_c, 0, 64, 76
1, 289734, Control_c, 0, 64, 83
1, 289749, Control_c, 0, 64, 91
1, 289752, Note_on_c, 0, 57, 55
1, 289763, Control_c, 0, 64, 103
1, 289765, Note_on_c, 0, 53, 35
1, 289768, Note_off_c, 0, 63, 59
1, 289778, Control_c, 0, 64, 127
1, 289832, Note_off_c, 0, 57, 64
1, 289851, Note_on_c, 0, 63, 64
1, 289882, Note_off_c, 0, 53, 0
1, 289901, Note_on_c, 0, 53, 40
1, 289902, Note_on_c, 0, 57, 64
1, 289913, Note_off_c, 0, 63, 62
1, 289976, Note_off_c, 0, 57, 62
1, 289980, Note_on_c, 0, 63, 68
1, 290026, Note_on_c, 0, 57, 59
1, 290055, Note_off_c, 0, 63, 62
1, 290103, Note_off_c, 0, 57, 62
1, 290117, Note_on_c, 0, 63, 73
1, 290153, Note_on_c, 0, 57, 55
1, 290186, Note_off_c, 0, 63, 60
1, 290209, Note_off_c, 0, 35, 35
1, 290210, Note_off_c, 0, 53, 0
1, 290227, Note_off_c, 0, 57, 65
1, 290230, Note_on_c, 0, 63, 66
1, 290240, Note_on_c, 0, 53, 13
1, 290296, Note_on_c, 0, 57, 64
1, 290315, Note_off_c, 0, 63, 59
1, 290371, Note_on_c, 0, 63, 61
1, 290373, Note_off_c, 0, 53, 0
1, 290377, Note_off_c, 0, 57, 61
1, 290411, Poly_aftertouch_c, 0, 53, 127
1, 290447, Note_on_c, 0, 57, 50
1, 290468, Note_on_c, 0, 35, 81
1, 290542, Note_off_c, 0, 35, 62
1, 290555, Note_off_c, 0, 57, 60
1, 290578, Poly_aftertouch_c, 0, 53, 0
1, 290581, Note_on_c, 0, 34, 89
1, 290586, Control_c, 0, 64, 91
1, 290594, Note_on_c, 0, 53, 25
1, 290601, Control_c, 0, 64, 64
1, 290606, Note_on_c, 0, 58, 65
1, 290616, Control_c, 0, 64, 0
1, 290636, Note_off_c, 0, 63, 48
1, 290719, Control_c, 0, 64, 36
1, 290734, Control_c, 0, 64, 44
1, 290749, Control_c, 0, 64, 57
1, 290764, Control_c, 0, 64, 62
1, 290766, Note_off_c, 0, 53, 44
1, 290767, Note_off_c, 0, 58, 57
1, 290777, Note_on_c, 0, 62, 51
1, 290778, Control_c, 0, 64, 63
1, 290802, Control_c, 0, 64, 64
1, 290817, Control_c, 0, 64, 65
1, 290832, Control_c, 0, 64, 68
1, 290847, Control_c, 0, 64, 75
1, 290862, Control_c, 0, 64, 81
1, 290870, Note_off_c, 0, 62, 54
1, 290870, Note_on_c, 0, 58, 51
1, 290873, Note_on_c, 0, 53, 56
1, 290876, Control_c, 0, 64, 85
1, 290891, Control_c, 0, 64, 86
1, 290906, Control_c, 0, 64, 87
1, 290927, Note_off_c, 0, 58, 58
1, 290929, Note_off_c, 0, 53, 57
1, 290965, Control_c, 0, 64, 87
1, 290973, Note_on_c, 0, 62, 41
1, 290980, Control_c, 0, 64, 89
1, 290995, Control_c, 0, 64, 90
1, 291024, Control_c, 0, 64, 89
1, 291026, Note_off_c, 0, 62, 59
1, 291028, Note_on_c, 0, 58, 68
1, 291034, Note_on_c, 0, 53, 45
1, 291039, Control_c, 0, 64, 89
1, 291054, Control_c, 0, 64, 88
1, 291069, Control_c, 0, 64, 88
1, 291071, Note_off_c, 0, 58, 58
1, 291083, Control_c, 0, 64, 87
1, 291085, Note_off_c, 0, 53, 52
1, 291098, Control_c, 0, 64, 85
1, 291113, Control_c, 0, 64, 84
1, 291121, Note_on_c, 0, 62, 59
1, 291142, Control_c, 0, 64, 83
1, 291157, Control_c, 0, 64, 82
1, 291158, Note_off_c, 0, 62, 61
1, 291162, Note_on_c, 0, 53, 45
1, 291163, Note_on_c, 0, 58, 65
1, 291172, Control_c, 0, 64, 81
1, 291187, Control_c, 0, 64, 80
1, 291198, Note_off_c, 0, 58, 64
1, 291207, Note_off_c, 0, 53, 61
1, 291234, Note_on_c, 0, 62, 63
1, 291288, Note_off_c, 0, 62, 62
1, 291290, Note_on_c, 0, 53, 46
1, 291291, Note_on_c, 0, 58, 66
1, 291291, Control_c, 0, 64, 80
1, 291321, Note_off_c, 0, 58, 65
1, 291335, Control_c, 0, 64, 79
1, 291341, Note_off_c, 0, 53, 52
1, 291347, Note_on_c, 0, 62, 56
1, 291365, Control_c, 0, 64, 79
1, 291380, Control_c, 0, 64, 78
1, 291395, Control_c, 0, 64, 78
1, 291398, Note_on_c, 0, 58, 70
1, 291404, Note_off_c, 0, 62, 63
1, 291439, Control_c, 0, 64, 77
1, 291447, Note_off_c, 0, 58, 60
1, 291454, Control_c, 0, 64, 77
1, 291469, Note_on_c, 0, 62, 47
1, 291475, Poly_aftertouch_c, 0, 53, 0
1, 291527, Control_c, 0, 64, 77
1, 291532, Note_on_c, 0, 58, 64
1, 291538, Note_off_c, 0, 62, 55
1, 291542, Control_c, 0, 64, 78
1, 291570, Poly_aftertouch_c, 0, 53, 127
1, 291586, Note_off_c, 0, 58, 55
1, 291622, Note_on_c, 0, 62, 39
1, 291640, Control_c, 0, 64, 78
1, 291654, Control_c, 0, 64, 78
1, 291657, Poly_aftertouch_c, 0, 53, 0
1, 291677, Note_on_c, 0, 58, 48
1, 291694, Poly_aftertouch_c, 0, 53, 127
1, 291713, Note_on_c, 0, 53, 11
1, 291714, Control_c, 0, 64, 78
1, 291738, Note_off_c, 0, 58, 54
1, 291745, Note_off_c, 0, 62, 0
1, 291765, Note_on_c, 0, 62, 21
1, 291821, Note_on_c, 0, 58, 47
1, 291842, Note_off_c, 0, 62, 56
1, 291877, Control_c, 0, 64, 78
1, 291881, Note_off_c, 0, 58, 48
1, 291915, Note_on_c, 0, 62, 37
1, 291957, Note_off_c, 0, 53, 0
1, 291957, Note_on_c, 0, 53, 10
1, 291962, Note_on_c, 0, 58, 43
1, 292019, Note_off_c, 0, 58, 55
1, 292024, Control_c, 0, 64, 78
1, 292035, Note_off_c, 0, 62, 0
1, 292053, Note_on_c, 0, 62, 21
1, 292070, Note_off_c, 0, 34, 58
1, 292142, Note_on_c, 0, 58, 48
1, 292182, Note_off_c, 0, 62, 36
1, 292257, Note_off_c, 0, 58, 0
1, 292266, Note_on_c, 0, 62, 42
1, 292301, Poly_aftertouch_c, 0, 58, 127
1, 292388, Control_c, 0, 64, 79
1, 292413, Note_off_c, 0, 53, 39
1, 292461, Poly_aftertouch_c, 0, 58, 0
1, 292462, Control_c, 0, 64, 79
1, 292477, Control_c, 0, 64, 80
1, 292507, Control_c, 0, 64, 80
1, 292537, Control_c, 0, 64, 81
1, 292552, Control_c, 0, 64, 82
1, 292563, Note_off_c, 0, 62, 34
1, 292567, Control_c, 0, 64, 82
1, 292581, Control_c, 0, 64, 83
1, 292596, Control_c, 0, 64, 83
1, 292611, Control_c, 0, 64, 84
1, 292626, Control_c, 0, 64, 84
1, 292641, Control_c, 0, 64, 85
1, 292685, Control_c, 0, 64, 86
1, 292700, Control_c, 0, 64, 87
1, 292715, Control_c, 0, 64, 88
1, 292729, Control_c, 0, 64, 88
1, 292744, Control_c, 0, 64, 90
1, 292759, Control_c, 0, 64, 92
1, 292773, Control_c, 0, 64, 95
1, 292788, Control_c, 0, 64, 97
1, 292803, Control_c, 0, 64, 100
1, 292818, Control_c, 0, 64, 103
1, 292833, Control_c, 0, 64, 106
1, 292847, Control_c, 0, 64, 110
1, 292862, Control_c, 0, 64, 116
1, 292877, Control_c, 0, 64, 127
1, 293049, Note_on_c, 0, 70, 97
1, 293181, Control_c, 0, 64, 68
1, 293187, Note_on_c, 0, 59, 59
1, 293196, Control_c, 0, 64, 26
1, 293211, Control_c, 0, 64, 0
1, 293212, Note_on_c, 0, 68, 97
1, 293268, Note_off_c, 0, 59, 57
1, 293271, Control_c, 0, 64, 14
1, 293285, Control_c, 0, 64, 54
1, 293300, Control_c, 0, 64, 59
1, 293315, Control_c, 0, 64, 60
1, 293320, Note_off_c, 0, 70, 43
1, 293330, Control_c, 0, 64, 61
1, 293333, Note_on_c, 0, 62, 42
1, 293345, Control_c, 0, 64, 64
1, 293359, Control_c, 0, 64, 67
1, 293374, Control_c, 0, 64, 70
1, 293386, Note_off_c, 0, 62, 61
1, 293389, Control_c, 0, 64, 70
1, 293401, Note_on_c, 0, 59, 55
1, 293403, Control_c, 0, 64, 71
1, 293418, Control_c, 0, 64, 72
1, 293433, Control_c, 0, 64, 73
1, 293444, Note_off_c, 0, 59, 62
1, 293448, Control_c, 0, 64, 76
1, 293463, Control_c, 0, 64, 77
1, 293477, Control_c, 0, 64, 79
1, 293491, Note_on_c, 0, 62, 50
1, 293492, Control_c, 0, 64, 82
1, 293507, Control_c, 0, 64, 85
1, 293521, Control_c, 0, 64, 88
1, 293536, Control_c, 0, 64, 92
1, 293540, Note_off_c, 0, 62, 61
1, 293548, Note_on_c, 0, 59, 60
1, 293551, Control_c, 0, 64, 96
1, 293566, Control_c, 0, 64, 101
1, 293581, Control_c, 0, 64, 106
1, 293589, Note_off_c, 0, 59, 62
1, 293595, Control_c, 0, 64, 110
1, 293610, Control_c, 0, 64, 120
1, 293625, Control_c, 0, 64, 127
1, 293627, Note_on_c, 0, 62, 52
1, 293681, Note_on_c, 0, 59, 55
1, 293684, Note_off_c, 0, 62, 62
1, 293728, Note_off_c, 0, 59, 52
1, 293750, Note_on_c, 0, 62, 50
1, 293808, Note_on_c, 0, 59, 44
1, 293824, Note_off_c, 0, 62, 62
1, 293863, Note_off_c, 0, 59, 57
1, 293873, Note_on_c, 0, 62, 51
1, 293917, Note_on_c, 0, 59, 50
1, 293941, Note_off_c, 0, 62, 62
1, 293979, Note_off_c, 0, 59, 62
1, 293994, Note_on_c, 0, 62, 53
1, 294035, Note_on_c, 0, 59, 65
1, 294051, Note_off_c, 0, 62, 63
1, 294093, Note_off_c, 0, 59, 63
1, 294114, Note_on_c, 0, 62, 61
1, 294169, Note_off_c, 0, 68, 60
1, 294170, Note_on_c, 0, 59, 66
1, 294175, Note_off_c, 0, 62, 62
1, 294208, Note_on_c, 0, 66, 91
1, 294235, Note_off_c, 0, 59, 64
1, 294257, Note_on_c, 0, 62, 55
1, 294262, Note_off_c, 0, 66, 64
1, 294300, Control_c, 0, 64, 73
1, 294304, Note_on_c, 0, 65, 91
1, 294315, Control_c, 0, 64, 47
1, 294317, Note_off_c, 0, 62, 60
1, 294325, Note_on_c, 0, 56, 53
1, 294330, Control_c, 0, 64, 0
1, 294331, Note_on_c, 0, 59, 54
1, 294385, Note_off_c, 0, 56, 61
1, 294389, Control_c, 0, 64, 32
1, 294397, Note_off_c, 0, 59, 61
1, 294404, Control_c, 0, 64, 52
1, 294418, Control_c, 0, 64, 58
1, 294422, Note_on_c, 0, 62, 54
1, 294433, Control_c, 0, 64, 61
1, 294448, Control_c, 0, 64, 63
1, 294463, Control_c, 0, 64, 64
1, 294474, Note_off_c, 0, 62, 62
1, 294478, Control_c, 0, 64, 67
1, 294490, Note_on_c, 0, 59, 59
1, 294492, Control_c, 0, 64, 71
1, 294501, Note_on_c, 0, 56, 42
1, 294507, Control_c, 0, 64, 74
1, 294522, Control_c, 0, 64, 75
1, 294544, Control_c, 0, 64, 77
1, 294547, Note_off_c, 0, 59, 61
1, 294549, Note_off_c, 0, 56, 62
1, 294559, Control_c, 0, 64, 79
1, 294564, Note_on_c, 0, 62, 59
1, 294574, Control_c, 0, 64, 83
1, 294589, Control_c, 0, 64, 84
1, 294619, Control_c, 0, 64, 84
1, 294632, Note_off_c, 0, 62, 62
1, 294633, Control_c, 0, 64, 85
1, 294642, Note_on_c, 0, 59, 48
1, 294643, Note_on_c, 0, 56, 50
1, 294648, Control_c, 0, 64, 88
1, 294663, Control_c, 0, 64, 92
1, 294674, Note_off_c, 0, 56, 62
1, 294678, Control_c, 0, 64, 95
1, 294692, Control_c, 0, 64, 97
1, 294693, Note_off_c, 0, 59, 62
1, 294702, Note_on_c, 0, 62, 61
1, 294707, Control_c, 0, 64, 98
1, 294737, Control_c, 0, 64, 99
1, 294752, Control_c, 0, 64, 103
1, 294757, Note_on_c, 0, 56, 51
1, 294765, Note_off_c, 0, 62, 63
1, 294766, Control_c, 0, 64, 111
1, 294768, Note_on_c, 0, 59, 65
1, 294781, Control_c, 0, 64, 127
1, 294792, Note_off_c, 0, 56, 58
1, 294832, Note_on_c, 0, 62, 60
1, 294835, Note_off_c, 0, 59, 64
1, 294865, Note_on_c, 0, 56, 63
1, 294885, Note_on_c, 0, 59, 65
1, 294891, Note_off_c, 0, 62, 64
1, 294913, Note_off_c, 0, 56, 59
1, 294952, Note_on_c, 0, 62, 68
1, 294952, Note_off_c, 0, 59, 63
1, 295005, Note_on_c, 0, 56, 32
1, 295011, Note_on_c, 0, 59, 65
1, 295019, Note_off_c, 0, 62, 64
1, 295047, Note_off_c, 0, 56, 48
1, 295056, Note_off_c, 0, 65, 59
1, 295078, Note_on_c, 0, 62, 69
1, 295080, Note_off_c, 0, 59, 64
1, 295118, Note_on_c, 0, 56, 47
1, 295151, Note_off_c, 0, 62, 63
1, 295157, Note_on_c, 0, 59, 73
1, 295226, Note_on_c, 0, 62, 59
1, 295243, Note_off_c, 0, 56, 53
1, 295249, Note_off_c, 0, 59, 55
1, 295283, Note_on_c, 0, 66, 91
1, 295315, Note_off_c, 0, 62, 62
1, 295352, Note_off_c, 0, 66, 63
1, 295426, Control_c, 0, 64, 96
1, 295427, Note_on_c, 0, 54, 61
1, 295437, Note_on_c, 0, 62, 82
1, 295441, Control_c, 0, 64, 65
1, 295455, Control_c, 0, 64, 37
1, 295470, Control_c, 0, 64, 0
1, 295500, Control_c, 0, 64, 31
1, 295513, Note_off_c, 0, 54, 64
1, 295515, Control_c, 0, 64, 56
1, 295530, Control_c, 0, 64, 63
1, 295542, Note_on_c, 0, 58, 61
1, 295545, Control_c, 0, 64, 67
1, 295559, Control_c, 0, 64, 71
1, 295574, Control_c, 0, 64, 77
1, 295589, Control_c, 0, 64, 82
1, 295604, Control_c, 0, 64, 84
1, 295610, Note_off_c, 0, 58, 59
1, 295633, Note_on_c, 0, 54, 61
1, 295634, Control_c, 0, 64, 85
1, 295649, Control_c, 0, 64, 87
1, 295664, Control_c, 0, 64, 88
1, 295670, Note_off_c, 0, 54, 66
1, 295702, Note_on_c, 0, 58, 57
1, 295708, Control_c, 0, 64, 88
1, 295723, Control_c, 0, 64, 87
1, 295738, Control_c, 0, 64, 84
1, 295750, Note_on_c, 0, 54, 70
1, 295753, Control_c, 0, 64, 82
1, 295753, Note_off_c, 0, 58, 61
1, 295768, Control_c, 0, 64, 82
1, 295795, Note_off_c, 0, 54, 61
1, 295824, Note_on_c, 0, 58, 63
1, 295827, Control_c, 0, 64, 82
1, 295871, Note_on_c, 0, 54, 69
1, 295875, Note_off_c, 0, 58, 63
1, 295901, Control_c, 0, 64, 83
1, 295916, Control_c, 0, 64, 83
1, 295918, Note_off_c, 0, 54, 65
1, 295935, Note_on_c, 0, 58, 60
1, 295960, Control_c, 0, 64, 84
1, 295983, Note_on_c, 0, 54, 70
1, 295994, Note_off_c, 0, 58, 63
1, 296045, Note_off_c, 0, 54, 63
1, 296054, Note_on_c, 0, 58, 63
1, 296071, Control_c, 0, 64, 84
1, 296108, Note_on_c, 0, 54, 57
1, 296114, Note_off_c, 0, 58, 64
1, 296145, Control_c, 0, 64, 85
1, 296159, Note_off_c, 0, 54, 61
1, 296160, Control_c, 0, 64, 84
1, 296170, Note_on_c, 0, 58, 60
1, 296175, Control_c, 0, 64, 84
1, 296231, Note_on_c, 0, 54, 59
1, 296234, Note_off_c, 0, 58, 64
1, 296281, Note_off_c, 0, 54, 65
1, 296291, Note_on_c, 0, 58, 59
1, 296361, Note_on_c, 0, 54, 66
1, 296362, Note_off_c, 0, 58, 64
1, 296383, Control_c, 0, 64, 84
1, 296413, Control_c, 0, 64, 85
1, 296418, Note_off_c, 0, 54, 63
1, 296428, Control_c, 0, 64, 86
1, 296435, Note_on_c, 0, 58, 57
1, 296443, Control_c, 0, 64, 87
1, 296488, Note_on_c, 0, 54, 52
1, 296497, Note_off_c, 0, 58, 64
1, 296517, Control_c, 0, 64, 86
1, 296532, Control_c, 0, 64, 86
1, 296547, Note_off_c, 0, 54, 62
1, 296547, Control_c, 0, 64, 85
1, 296567, Note_on_c, 0, 58, 48
1, 296629, Note_on_c, 0, 54, 49
1, 296630, Note_off_c, 0, 58, 62
1, 296650, Control_c, 0, 64, 85
1, 296687, Note_off_c, 0, 54, 55
1, 296715, Note_on_c, 0, 58, 41
1, 296759, Note_on_c, 0, 54, 47
1, 296777, Note_off_c, 0, 58, 57
1, 296856, Note_on_c, 0, 58, 42
1, 296876, Note_off_c, 0, 54, 0
1, 296895, Note_on_c, 0, 54, 32
1, 296906, Note_off_c, 0, 58, 63
1, 297002, Note_on_c, 0, 58, 52
1, 297080, Note_off_c, 0, 54, 38
1, 297088, Control_c, 0, 64, 85
1, 297133, Note_on_c, 0, 63, 65
1, 297168, Note_off_c, 0, 62, 54
1, 297235, Note_off_c, 0, 58, 36
1, 297237, Control_c, 0, 64, 86
1, 297399, Control_c, 0, 64, 86
1, 297414, Control_c, 0, 64, 87
1, 297488, Control_c, 0, 64, 87
1, 297518, Control_c, 0, 64, 88
1, 297540, Control_c, 0, 64, 88
1, 297555, Control_c, 0, 64, 89
1, 297569, Control_c, 0, 64, 90
1, 297584, Control_c, 0, 64, 90
1, 297599, Control_c, 0, 64, 91
1, 297614, Control_c, 0, 64, 92
1, 297629, Control_c, 0, 64, 92
1, 297643, Control_c, 0, 64, 93
1, 297658, Control_c, 0, 64, 95
1, 297673, Control_c, 0, 64, 97
1, 297688, Control_c, 0, 64, 99
1, 297703, Control_c, 0, 64, 102
1, 297718, Control_c, 0, 64, 103
1, 297732, Control_c, 0, 64, 104
1, 297747, Control_c, 0, 64, 108
1, 297762, Control_c, 0, 64, 125
1, 297777, Control_c, 0, 64, 127
1, 297858, Note_off_c, 0, 63, 37
1, 297890, Note_on_c, 0, 54, 52
1, 297907, Note_on_c, 0, 61, 90
1, 297911, Control_c, 0, 64, 89
1, 297925, Control_c, 0, 64, 67
1, 297940, Control_c, 0, 64, 59
1, 297955, Control_c, 0, 64, 57
1, 297969, Control_c, 0, 64, 58
1, 297985, Control_c, 0, 64, 62
1, 298000, Control_c, 0, 64, 65
1, 298015, Control_c, 0, 64, 68
1, 298016, Note_off_c, 0, 54, 58
1, 298030, Control_c, 0, 64, 71
1, 298045, Control_c, 0, 64, 73
1, 298059, Note_on_c, 0, 57, 35
1, 298060, Control_c, 0, 64, 76
1, 298074, Control_c, 0, 64, 79
1, 298089, Control_c, 0, 64, 80
1, 298117, Note_off_c, 0, 57, 59
1, 298134, Control_c, 0, 64, 81
1, 298137, Note_on_c, 0, 54, 51
1, 298148, Control_c, 0, 64, 83
1, 298178, Control_c, 0, 64, 83
1, 298179, Note_off_c, 0, 54, 61
1, 298192, Control_c, 0, 64, 85
1, 298207, Control_c, 0, 64, 90
1, 298222, Control_c, 0, 64, 94
1, 298232, Note_on_c, 0, 57, 44
1, 298237, Control_c, 0, 64, 95
1, 298266, Control_c, 0, 64, 97
1, 298275, Note_off_c, 0, 57, 59
1, 298281, Control_c, 0, 64, 103
1, 298300, Note_on_c, 0, 54, 55
1, 298304, Control_c, 0, 64, 127
1, 298341, Note_off_c, 0, 54, 64
1, 298378, Note_on_c, 0, 57, 52
1, 298420, Note_off_c, 0, 57, 62
1, 298431, Note_on_c, 0, 54, 61
1, 298472, Note_off_c, 0, 54, 63
1, 298505, Note_on_c, 0, 57, 54
1, 298547, Note_off_c, 0, 57, 63
1, 298549, Note_on_c, 0, 54, 66
1, 298595, Note_off_c, 0, 54, 62
1, 298621, Note_on_c, 0, 57, 58
1, 298660, Note_off_c, 0, 57, 62
1, 298663, Note_on_c, 0, 54, 64
1, 298719, Note_off_c, 0, 54, 62
1, 298732, Note_on_c, 0, 57, 61
1, 298788, Note_on_c, 0, 54, 59
1, 298797, Note_off_c, 0, 57, 62
1, 298866, Note_off_c, 0, 54, 62
1, 298869, Note_off_c, 0, 61, 61
1, 298877, Note_on_c, 0, 57, 54
1, 298916, Note_on_c, 0, 60, 94
1, 298981, Note_off_c, 0, 60, 61
1, 299012, Note_off_c, 0, 57, 60
1, 299019, Note_on_c, 0, 54, 68
1, 299023, Note_on_c, 0, 51, 64
1, 299028, Note_on_c, 0, 59, 89
1, 299030, Control_c, 0, 64, 95
1, 299053, Control_c, 0, 64, 66
1, 299068, Control_c, 0, 64, 45
1, 299083, Control_c, 0, 64, 31
1, 299097, Control_c, 0, 64, 31
1, 299112, Control_c, 0, 64, 41
1, 299118, Note_off_c, 0, 51, 58
1, 299118, Note_off_c, 0, 54, 61
1, 299127, Control_c, 0, 64, 55
1, 299136, Note_on_c, 0, 57, 63
1, 299142, Control_c, 0, 64, 61
1, 299157, Control_c, 0, 64, 63
1, 299171, Control_c, 0, 64, 66
1, 299186, Control_c, 0, 64, 69
1, 299201, Control_c, 0, 64, 71
1, 299211, Note_off_c, 0, 57, 63
1, 299223, Note_on_c, 0, 54, 56
1, 299230, Control_c, 0, 64, 70
1, 299235, Note_on_c, 0, 51, 46
1, 299245, Control_c, 0, 64, 69
1, 299260, Control_c, 0, 64, 70
1, 299270, Note_off_c, 0, 51, 64
1, 299274, Note_off_c, 0, 54, 62
1, 299275, Control_c, 0, 64, 71
1, 299289, Control_c, 0, 64, 74
1, 299294, Note_on_c, 0, 57, 61
1, 299304, Control_c, 0, 64, 75
1, 299319, Control_c, 0, 64, 76
1, 299334, Control_c, 0, 64, 77
1, 299348, Control_c, 0, 64, 78
1, 299360, Note_off_c, 0, 57, 64
1, 299363, Control_c, 0, 64, 79
1, 299364, Note_on_c, 0, 54, 64
1, 299365, Note_on_c, 0, 51, 56
1, 299404, Note_off_c, 0, 51, 64
1, 299408, Note_off_c, 0, 54, 61
1, 299422, Control_c, 0, 64, 79
1, 299431, Note_on_c, 0, 57, 55
1, 299437, Control_c, 0, 64, 80
1, 299452, Control_c, 0, 64, 81
1, 299467, Control_c, 0, 64, 82
1, 299481, Control_c, 0, 64, 83
1, 299493, Note_on_c, 0, 54, 68
1, 299494, Note_on_c, 0, 51, 61
1, 299494, Note_off_c, 0, 57, 64
1, 299496, Control_c, 0, 64, 86
1, 299511, Control_c, 0, 64, 89
1, 299526, Control_c, 0, 64, 92
1, 299529, Note_off_c, 0, 51, 63
1, 299540, Control_c, 0, 64, 93
1, 299551, Note_off_c, 0, 54, 63
1, 299555, Control_c, 0, 64, 94
1, 299561, Note_on_c, 0, 57, 65
1, 299570, Control_c, 0, 64, 95
1, 299586, Control_c, 0, 64, 97
1, 299601, Control_c, 0, 64, 103
1, 299616, Control_c, 0, 64, 127
1, 299630, Note_on_c, 0, 54, 65
1, 299633, Note_off_c, 0, 57, 64
1, 299635, Note_on_c, 0, 51, 55
1, 299684, Note_off_c, 0, 54, 64
1, 299700, Note_on_c, 0, 57, 69
1, 299708, Note_off_c, 0, 51, 0
1, 299745, Poly_aftertouch_c, 0, 51, 127
1, 299764, Note_on_c, 0, 54, 66
1, 299765, Note_off_c, 0, 57, 63
1, 299771, Note_off_c, 0, 59, 62
1, 299833, Note_off_c, 0, 54, 64
1, 299867, Note_on_c, 0, 57, 59
1, 299952, Poly_aftertouch_c, 0, 51, 0
1, 299960, Note_on_c, 0, 54, 51
1, 299961, Note_off_c, 0, 57, 62
1, 300003, Note_off_c, 0, 54, 61
1, 300011, Note_on_c, 0, 61, 85
1, 300076, Note_off_c, 0, 61, 59
1, 300105, Note_on_c, 0, 50, 48
1, 300129, Note_on_c, 0, 57, 85
1, 300142, Control_c, 0, 64, 100
1, 300156, Control_c, 0, 64, 65
1, 300171, Control_c, 0, 64, 35
1, 300177, Note_off_c, 0, 50, 65
1, 300186, Control_c, 0, 64, 9
1, 300201, Control_c, 0, 64, 12
1, 300213, Note_on_c, 0, 53, 54
1, 300216, Control_c, 0, 64, 39
1, 300231, Control_c, 0, 64, 56
1, 300245, Control_c, 0, 64, 60
1, 300260, Control_c, 0, 64, 63
1, 300275, Control_c, 0, 64, 65
1, 300287, Note_off_c, 0, 53, 61
1, 300290, Control_c, 0, 64, 66
1, 300295, Note_on_c, 0, 50, 54
1, 300305, Control_c, 0, 64, 67
1, 300320, Control_c, 0, 64, 67
1, 300335, Control_c, 0, 64, 67
1, 300347, Note_off_c, 0, 50, 64
1, 300350, Control_c, 0, 64, 69
1, 300364, Control_c, 0, 64, 72
1, 300374, Note_on_c, 0, 53, 51
1, 300380, Control_c, 0, 64, 75
1, 300395, Control_c, 0, 64, 75
1, 300434, Note_on_c, 0, 50, 60
1, 300439, Control_c, 0, 64, 75
1, 300440, Note_off_c, 0, 53, 62
1, 300469, Control_c, 0, 64, 74
1, 300478, Note_off_c, 0, 50, 63
1, 300484, Control_c, 0, 64, 74
1, 300495, Note_on_c, 0, 53, 54
1, 300550, Control_c, 0, 64, 74
1, 300567, Note_on_c, 0, 50, 62
1, 300577, Note_off_c, 0, 53, 63
1, 300594, Control_c, 0, 64, 75
1, 300615, Note_off_c, 0, 50, 61
1, 300624, Control_c, 0, 64, 75
1, 300629, Note_on_c, 0, 53, 57
1, 300639, Control_c, 0, 64, 76
1, 300654, Control_c, 0, 64, 76
1, 300669, Control_c, 0, 64, 77
1, 300683, Note_on_c, 0, 50, 56
1, 300684, Control_c, 0, 64, 77
1, 300696, Note_off_c, 0, 53, 63
1, 300698, Control_c, 0, 64, 78
1, 300713, Control_c, 0, 64, 78
1, 300741, Note_off_c, 0, 50, 60
1, 300756, Note_on_c, 0, 53, 58
1, 300804, Note_on_c, 0, 50, 48
1, 300821, Note_off_c, 0, 53, 63
1, 300860, Note_off_c, 0, 50, 62
1, 300874, Note_on_c, 0, 53, 53
1, 300931, Note_on_c, 0, 50, 54
1, 300935, Control_c, 0, 64, 78
1, 300943, Note_off_c, 0, 53, 61
1, 300985, Note_off_c, 0, 50, 58
1, 301005, Note_on_c, 0, 53, 52
1, 301061, Note_on_c, 0, 50, 37
1, 301083, Note_off_c, 0, 53, 61
1, 301134, Note_on_c, 0, 53, 36
1, 301176, Note_off_c, 0, 50, 0
1, 301196, Note_on_c, 0, 50, 29
1, 301217, Note_off_c, 0, 53, 61
1, 301291, Note_on_c, 0, 53, 44
1, 301324, Note_off_c, 0, 50, 0
1, 301342, Note_on_c, 0, 50, 32
1, 301359, Note_off_c, 0, 53, 60
1, 301439, Note_on_c, 0, 53, 54
1, 301447, Note_off_c, 0, 50, 0
1, 301471, Note_on_c, 0, 50, 21
1, 301510, Note_off_c, 0, 53, 64
1, 301605, Note_on_c, 0, 53, 35
1, 301653, Note_off_c, 0, 50, 40
1, 301718, Note_on_c, 0, 58, 70
1, 301739, Note_off_c, 0, 57, 48
1, 301985, Note_off_c, 0, 53, 41
1, 302078, Control_c, 0, 64, 78
1, 302107, Control_c, 0, 64, 79
1, 302137, Control_c, 0, 64, 79
1, 302152, Control_c, 0, 64, 80
1, 302167, Control_c, 0, 64, 81
1, 302181, Control_c, 0, 64, 83
1, 302196, Control_c, 0, 64, 85
1, 302211, Control_c, 0, 64, 89
1, 302226, Control_c, 0, 64, 92
1, 302240, Control_c, 0, 64, 97
1, 302255, Control_c, 0, 64, 104
1, 302270, Control_c, 0, 64, 116
1, 302285, Control_c, 0, 64, 127
1, 302354, Note_off_c, 0, 58, 59
1, 302383, Note_on_c, 0, 47, 51
1, 302410, Note_on_c, 0, 56, 91
1, 302418, Control_c, 0, 64, 103
1, 302433, Control_c, 0, 64, 76
1, 302448, Control_c, 0, 64, 63
1, 302463, Control_c, 0, 64, 57
1, 302478, Control_c, 0, 64, 59
1, 302493, Control_c, 0, 64, 63
1, 302507, Control_c, 0, 64, 66
1, 302522, Control_c, 0, 64, 69
1, 302528, Note_off_c, 0, 47, 61
1, 302537, Control_c, 0, 64, 72
1, 302552, Control_c, 0, 64, 74
1, 302555, Note_on_c, 0, 50, 50
1, 302567, Control_c, 0, 64, 75
1, 302581, Control_c, 0, 64, 76
1, 302596, Control_c, 0, 64, 75
1, 302626, Control_c, 0, 64, 76
1, 302633, Note_off_c, 0, 50, 57
1, 302640, Control_c, 0, 64, 77
1, 302647, Note_on_c, 0, 47, 50
1, 302655, Control_c, 0, 64, 78
1, 302670, Control_c, 0, 64, 79
1, 302685, Control_c, 0, 64, 80
1, 302695, Note_off_c, 0, 47, 60
1, 302700, Control_c, 0, 64, 81
1, 302714, Control_c, 0, 64, 83
1, 302729, Note_on_c, 0, 50, 47
1, 302729, Control_c, 0, 64, 85
1, 302744, Control_c, 0, 64, 86
1, 302758, Control_c, 0, 64, 89
1, 302782, Control_c, 0, 64, 91
1, 302797, Control_c, 0, 64, 93
1, 302806, Note_off_c, 0, 50, 57
1, 302809, Note_on_c, 0, 47, 55
1, 302812, Control_c, 0, 64, 94
1, 302827, Control_c, 0, 64, 95
1, 302842, Control_c, 0, 64, 97
1, 302856, Control_c, 0, 64, 101
1, 302871, Control_c, 0, 64, 108
1, 302875, Note_off_c, 0, 47, 58
1, 302886, Control_c, 0, 64, 127
1, 302906, Note_on_c, 0, 50, 54
1, 302974, Note_on_c, 0, 47, 47
1, 302993, Note_off_c, 0, 50, 60
1, 303042, Note_off_c, 0, 47, 56
1, 303068, Note_on_c, 0, 50, 51
1, 303129, Note_on_c, 0, 47, 45
1, 303147, Note_off_c, 0, 50, 59
1, 303199, Note_off_c, 0, 47, 61
1, 303207, Note_on_c, 0, 50, 45
1, 303292, Note_on_c, 0, 47, 53
1, 303307, Note_off_c, 0, 50, 62
1, 303329, Note_off_c, 0, 47, 62
1, 303369, Note_on_c, 0, 50, 45
1, 303388, Note_off_c, 0, 56, 55
1, 303401, Note_on_c, 0, 54, 93
1, 303417, Note_on_c, 0, 47, 71
1, 303425, Note_off_c, 0, 50, 61
1, 303465, Note_off_c, 0, 47, 62
1, 303483, Note_off_c, 0, 54, 64
1, 303514, Note_on_c, 0, 50, 50
1, 303521, Note_on_c, 0, 53, 92
1, 303544, Control_c, 0, 64, 74
1, 303559, Control_c, 0, 64, 58
1, 303565, Note_off_c, 0, 50, 58
1, 303572, Note_on_c, 0, 47, 59
1, 303574, Note_on_c, 0, 44, 42
1, 303574, Control_c, 0, 64, 36
1, 303590, Control_c, 0, 64, 31
1, 303605, Control_c, 0, 64, 35
1, 303620, Control_c, 0, 64, 51
1, 303634, Control_c, 0, 64, 59
1, 303644, Note_off_c, 0, 44, 61
1, 303649, Control_c, 0, 64, 61
1, 303650, Note_off_c, 0, 47, 59
1, 303664, Control_c, 0, 64, 63
1, 303668, Note_on_c, 0, 50, 55
1, 303679, Control_c, 0, 64, 64
1, 303693, Control_c, 0, 64, 66
1, 303708, Control_c, 0, 64, 68
1, 303723, Control_c, 0, 64, 70
1, 303736, Note_on_c, 0, 47, 59
1, 303738, Control_c, 0, 64, 72
1, 303739, Note_off_c, 0, 50, 63
1, 303748, Note_on_c, 0, 44, 37
1, 303753, Control_c, 0, 64, 74
1, 303767, Control_c, 0, 64, 76
1, 303782, Control_c, 0, 64, 79
1, 303797, Note_off_c, 0, 44, 56
1, 303797, Control_c, 0, 64, 82
1, 303805, Note_off_c, 0, 47, 62
1, 303812, Control_c, 0, 64, 84
1, 303820, Note_on_c, 0, 50, 55
1, 303827, Control_c, 0, 64, 86
1, 303840, Control_c, 0, 64, 88
1, 303855, Control_c, 0, 64, 91
1, 303870, Control_c, 0, 64, 96
1, 303881, Note_on_c, 0, 47, 58
1, 303885, Control_c, 0, 64, 111
1, 303888, Note_off_c, 0, 50, 62
1, 303900, Control_c, 0, 64, 127
1, 303903, Note_on_c, 0, 44, 38
1, 303948, Note_off_c, 0, 47, 62
1, 303962, Note_on_c, 0, 50, 58
1, 304018, Note_off_c, 0, 44, 0
1, 304037, Note_on_c, 0, 47, 64
1, 304042, Note_off_c, 0, 50, 62
1, 304055, Poly_aftertouch_c, 0, 44, 127
1, 304106, Poly_aftertouch_c, 0, 44, 0
1, 304110, Note_on_c, 0, 50, 57
1, 304110, Note_off_c, 0, 47, 62
1, 304183, Note_on_c, 0, 47, 63
1, 304189, Note_off_c, 0, 50, 63
1, 304248, Poly_aftertouch_c, 0, 44, 127
1, 304283, Note_on_c, 0, 50, 57
1, 304314, Poly_aftertouch_c, 0, 44, 0
1, 304327, Note_on_c, 0, 44, 43
1, 304354, Note_off_c, 0, 50, 63
1, 304382, Note_off_c, 0, 53, 51
1, 304413, Note_off_c, 0, 47, 22
1, 304450, Note_on_c, 0, 50, 40
1, 304508, Note_on_c, 0, 54, 89
1, 304510, Note_on_c, 0, 47, 61
1, 304523, Note_off_c, 0, 50, 57
1, 304568, Note_off_c, 0, 44, 51
1, 304580, Note_off_c, 0, 47, 62
1, 304590, Note_off_c, 0, 54, 61
1, 304630, Note_on_c, 0, 50, 89
1, 304634, Control_c, 0, 64, 99
1, 304646, Note_on_c, 0, 42, 66
1, 304649, Control_c, 0, 64, 68
1, 304664, Control_c, 0, 64, 50
1, 304679, Control_c, 0, 64, 27
1, 304694, Control_c, 0, 64, 23
1, 304708, Control_c, 0, 64, 40
1, 304723, Control_c, 0, 64, 59
1, 304732, Note_off_c, 0, 42, 62
1, 304738, Control_c, 0, 64, 62
1, 304753, Control_c, 0, 64, 63
1, 304757, Note_on_c, 0, 46, 56
1, 304768, Control_c, 0, 64, 64
1, 304797, Control_c, 0, 64, 65
1, 304812, Control_c, 0, 64, 66
1, 304818, Note_off_c, 0, 46, 60
1, 304833, Note_on_c, 0, 42, 56
1, 304842, Control_c, 0, 64, 65
1, 304872, Control_c, 0, 64, 66
1, 304889, Note_off_c, 0, 42, 62
1, 304919, Note_on_c, 0, 46, 57
1, 304946, Control_c, 0, 64, 66
1, 304973, Note_off_c, 0, 46, 60
1, 304985, Note_on_c, 0, 42, 59
1, 304990, Control_c, 0, 64, 67
1, 305005, Control_c, 0, 64, 67
1, 305027, Control_c, 0, 64, 68
1, 305043, Note_off_c, 0, 42, 62
1, 305080, Note_on_c, 0, 46, 43
1, 305086, Control_c, 0, 64, 68
1, 305101, Control_c, 0, 64, 69
1, 305125, Note_off_c, 0, 46, 62
1, 305134, Note_on_c, 0, 42, 59
1, 305176, Control_c, 0, 64, 69
1, 305185, Note_off_c, 0, 42, 60
1, 305219, Note_on_c, 0, 46, 53
1, 305250, Control_c, 0, 64, 70
1, 305267, Note_off_c, 0, 46, 62
1, 305276, Note_on_c, 0, 42, 59
1, 305310, Control_c, 0, 64, 70
1, 305322, Note_off_c, 0, 42, 61
1, 305353, Control_c, 0, 64, 70
1, 305355, Note_on_c, 0, 46, 44
1, 305383, Control_c, 0, 64, 70
1, 305399, Note_off_c, 0, 46, 62
1, 305412, Control_c, 0, 64, 70
1, 305416, Note_on_c, 0, 42, 55
1, 305459, Note_off_c, 0, 42, 61
1, 305492, Note_on_c, 0, 46, 48
1, 305532, Note_off_c, 0, 46, 61
1, 305554, Note_on_c, 0, 42, 53
1, 305596, Note_off_c, 0, 42, 61
1, 305634, Note_on_c, 0, 46, 47
1, 305668, Note_off_c, 0, 46, 63
1, 305689, Note_on_c, 0, 42, 53
1, 305736, Note_off_c, 0, 42, 60
1, 305768, Note_on_c, 0, 46, 47
1, 305820, Note_off_c, 0, 46, 62
1, 305824, Note_on_c, 0, 42, 47
1, 305876, Note_off_c, 0, 42, 59
1, 305909, Control_c, 0, 64, 70
1, 305911, Note_on_c, 0, 46, 51
1, 305951, Note_off_c, 0, 46, 63
1, 305964, Note_on_c, 0, 42, 48
1, 306054, Note_on_c, 0, 46, 37
1, 306102, Control_c, 0, 64, 70
1, 306121, Note_off_c, 0, 42, 32
1, 306132, Control_c, 0, 64, 70
1, 306161, Control_c, 0, 64, 71
1, 306176, Control_c, 0, 64, 72
1, 306191, Control_c, 0, 64, 72
1, 306220, Control_c, 0, 64, 71
1, 306235, Control_c, 0, 64, 70
1, 306237, Note_on_c, 0, 51, 64
1, 306250, Control_c, 0, 64, 68
1, 306265, Control_c, 0, 64, 66
1, 306294, Control_c, 0, 64, 67
1, 306317, Note_off_c, 0, 50, 58
1, 306339, Control_c, 0, 64, 68
1, 306353, Control_c, 0, 64, 69
1, 306368, Control_c, 0, 64, 70
1, 306380, Note_off_c, 0, 46, 36
1, 306383, Control_c, 0, 64, 70
1, 306398, Control_c, 0, 64, 71
1, 306413, Control_c, 0, 64, 71
1, 306443, Control_c, 0, 64, 72
1, 306458, Control_c, 0, 64, 72
1, 306472, Control_c, 0, 64, 73
1, 306487, Control_c, 0, 64, 73
1, 306628, Control_c, 0, 64, 74
1, 306642, Control_c, 0, 64, 74
1, 306657, Control_c, 0, 64, 75
1, 306672, Control_c, 0, 64, 75
1, 306732, Control_c, 0, 64, 76
1, 306747, Control_c, 0, 64, 77
1, 306761, Control_c, 0, 64, 79
1, 306777, Control_c, 0, 64, 80
1, 306791, Control_c, 0, 64, 81
1, 306806, Control_c, 0, 64, 81
1, 306836, Control_c, 0, 64, 82
1, 306851, Control_c, 0, 64, 82
1, 306881, Control_c, 0, 64, 83
1, 306895, Control_c, 0, 64, 85
1, 306910, Control_c, 0, 64, 88
1, 306925, Control_c, 0, 64, 93
1, 306940, Control_c, 0, 64, 110
1, 306955, Control_c, 0, 64, 127
1, 306966, Note_off_c, 0, 51, 31
1, 306989, Note_on_c, 0, 42, 45
1, 307027, Note_on_c, 0, 49, 82
1, 307043, Control_c, 0, 64, 85
1, 307058, Control_c, 0, 64, 72
1, 307073, Control_c, 0, 64, 69
1, 307088, Control_c, 0, 64, 72
1, 307102, Control_c, 0, 64, 77
1, 307117, Control_c, 0, 64, 84
1, 307132, Control_c, 0, 64, 92
1, 307146, Note_off_c, 0, 42, 57
1, 307147, Control_c, 0, 64, 94
1, 307186, Note_on_c, 0, 45, 32
1, 307191, Control_c, 0, 64, 95
1, 307206, Control_c, 0, 64, 96
1, 307221, Control_c, 0, 64, 97
1, 307241, Note_off_c, 0, 45, 54
1, 307251, Control_c, 0, 64, 96
1, 307262, Note_on_c, 0, 42, 49
1, 307265, Control_c, 0, 64, 96
1, 307302, Control_c, 0, 64, 95
1, 307323, Note_off_c, 0, 42, 56
1, 307374, Note_on_c, 0, 45, 39
1, 307391, Control_c, 0, 64, 96
1, 307425, Note_off_c, 0, 45, 56
1, 307436, Note_on_c, 0, 42, 50
1, 307465, Control_c, 0, 64, 95
1, 307492, Note_off_c, 0, 42, 56
1, 307532, Note_on_c, 0, 45, 37
1, 307584, Note_off_c, 0, 45, 55
1, 307587, Note_on_c, 0, 42, 44
1, 307645, Note_off_c, 0, 42, 54
1, 307674, Control_c, 0, 64, 96
1, 307689, Control_c, 0, 64, 96
1, 307692, Note_on_c, 0, 45, 34
1, 307728, Note_on_c, 0, 42, 44
1, 307730, Note_off_c, 0, 45, 51
1, 307785, Note_off_c, 0, 42, 59
1, 307792, Control_c, 0, 64, 97
1, 307822, Control_c, 0, 64, 97
1, 307837, Control_c, 0, 64, 98
1, 307842, Note_on_c, 0, 45, 45
1, 307851, Control_c, 0, 64, 101
1, 307866, Control_c, 0, 64, 104
1, 307881, Note_off_c, 0, 45, 58
1, 307881, Control_c, 0, 64, 107
1, 307888, Note_on_c, 0, 42, 54
1, 307896, Control_c, 0, 64, 108
1, 307911, Control_c, 0, 64, 109
1, 307925, Control_c, 0, 64, 110
1, 307940, Control_c, 0, 64, 110
1, 307955, Control_c, 0, 64, 114
1, 307970, Control_c, 0, 64, 127
1, 307977, Note_off_c, 0, 42, 56
1, 307993, Note_on_c, 0, 45, 44
1, 308047, Note_on_c, 0, 48, 78
1, 308133, Note_off_c, 0, 49, 37
1, 308149, Note_off_c, 0, 45, 56
1, 308160, Note_off_c, 0, 48, 45
1, 308170, Control_c, 0, 64, 81
1, 308184, Note_on_c, 0, 47, 76
1, 308184, Note_on_c, 0, 42, 45
1, 308185, Control_c, 0, 64, 66
1, 308195, Note_on_c, 0, 39, 41
1, 308199, Control_c, 0, 64, 58
1, 308214, Control_c, 0, 64, 56
1, 308229, Control_c, 0, 64, 56
1, 308244, Control_c, 0, 64, 59
1, 308258, Control_c, 0, 64, 61
1, 308268, Note_off_c, 0, 39, 50
1, 308273, Control_c, 0, 64, 63
1, 308279, Note_off_c, 0, 42, 57
1, 308288, Control_c, 0, 64, 66
1, 308300, Note_on_c, 0, 45, 41
1, 308303, Control_c, 0, 64, 70
1, 308318, Control_c, 0, 64, 75
1, 308333, Control_c, 0, 64, 80
1, 308348, Control_c, 0, 64, 82
1, 308363, Control_c, 0, 64, 84
1, 308379, Note_off_c, 0, 45, 59
1, 308379, Control_c, 0, 64, 87
1, 308394, Control_c, 0, 64, 93
1, 308399, Note_on_c, 0, 42, 55
1, 308409, Control_c, 0, 64, 99
1, 308410, Note_on_c, 0, 39, 26
1, 308423, Control_c, 0, 64, 104
1, 308458, Note_off_c, 0, 42, 59
1, 308467, Control_c, 0, 64, 106
1, 308472, Note_off_c, 0, 39, 45
1, 308482, Control_c, 0, 64, 111
1, 308491, Note_on_c, 0, 45, 46
1, 308497, Control_c, 0, 64, 115
1, 308512, Control_c, 0, 64, 116
1, 308565, Note_off_c, 0, 45, 56
1, 308581, Note_on_c, 0, 42, 55
1, 308586, Control_c, 0, 64, 115
1, 308596, Note_on_c, 0, 39, 36
1, 308616, Control_c, 0, 64, 115
1, 308623, Note_off_c, 0, 42, 60
1, 308631, Control_c, 0, 64, 114
1, 308640, Note_off_c, 0, 39, 50
1, 308646, Control_c, 0, 64, 113
1, 308665, Note_on_c, 0, 45, 45
1, 308720, Control_c, 0, 64, 114
1, 308730, Note_off_c, 0, 45, 59
1, 308738, Note_on_c, 0, 42, 60
1, 308749, Control_c, 0, 64, 115
1, 308771, Control_c, 0, 64, 120
1, 308786, Control_c, 0, 64, 127
1, 308793, Note_off_c, 0, 42, 59
1, 308813, Poly_aftertouch_c, 0, 39, 127
1, 308836, Note_on_c, 0, 45, 47
1, 308893, Note_off_c, 0, 45, 58
1, 308895, Note_on_c, 0, 42, 58
1, 308970, Note_off_c, 0, 42, 58
1, 309002, Note_on_c, 0, 45, 56
1, 309052, Note_off_c, 0, 45, 58
1, 309146, Note_off_c, 0, 47, 53
1, 309186, Note_on_c, 0, 42, 41
1, 309196, Note_on_c, 0, 49, 62
1, 309209, Poly_aftertouch_c, 0, 39, 0
1, 309230, Note_off_c, 0, 42, 58
1, 309317, Note_off_c, 0, 49, 35
1, 309339, Note_on_c, 0, 45, 65
1, 309348, Note_on_c, 0, 38, 38
1, 309365, Control_c, 0, 64, 82
1, 309379, Control_c, 0, 64, 62
1, 309394, Control_c, 0, 64, 46
1, 309409, Control_c, 0, 64, 38
1, 309424, Control_c, 0, 64, 37
1, 309437, Note_off_c, 0, 38, 58
1, 309439, Control_c, 0, 64, 44
1, 309453, Control_c, 0, 64, 56
1, 309468, Note_on_c, 0, 41, 43
1, 309468, Control_c, 0, 64, 61
1, 309483, Control_c, 0, 64, 62
1, 309498, Control_c, 0, 64, 63
1, 309513, Control_c, 0, 64, 64
1, 309535, Control_c, 0, 64, 65
1, 309544, Note_off_c, 0, 41, 59
1, 309550, Control_c, 0, 64, 67
1, 309565, Control_c, 0, 64, 68
1, 309578, Note_on_c, 0, 38, 38
1, 309579, Control_c, 0, 64, 68
1, 309594, Control_c, 0, 64, 69
1, 309609, Control_c, 0, 64, 69
1, 309616, Note_off_c, 0, 38, 59
1, 309624, Control_c, 0, 64, 70
1, 309639, Control_c, 0, 64, 71
1, 309653, Control_c, 0, 64, 71
1, 309653, Control_c, 0, 67, 25
1, 309666, Note_on_c, 0, 41, 42
1, 309668, Control_c, 0, 67, 37
1, 309683, Control_c, 0, 67, 47
1, 309698, Control_c, 0, 67, 57
1, 309704, Note_off_c, 0, 41, 58
1, 309713, Control_c, 0, 67, 66
1, 309723, Note_on_c, 0, 38, 44
1, 309728, Control_c, 0, 67, 72
1, 309743, Control_c, 0, 67, 77
1, 309757, Control_c, 0, 64, 71
1, 309757, Control_c, 0, 67, 80
1, 309766, Note_off_c, 0, 38, 61
1, 309772, Control_c, 0, 67, 84
1, 309787, Control_c, 0, 67, 89
1, 309802, Control_c, 0, 67, 97
1, 309804, Note_on_c, 0, 41, 47
1, 309816, Control_c, 0, 67, 104
1, 309830, Control_c, 0, 67, 113
1, 309845, Control_c, 0, 67, 122
1, 309850, Note_off_c, 0, 41, 57
1, 309860, Control_c, 0, 67, 127
1, 309880, Note_on_c, 0, 38, 37
1, 309912, Note_off_c, 0, 38, 54
1, 309942, Note_on_c, 0, 41, 45
1, 309965, Control_c, 0, 64, 70
1, 310001, Note_off_c, 0, 41, 59
1, 310024, Control_c, 0, 64, 71
1, 310040, Note_on_c, 0, 38, 23
1, 310075, Note_off_c, 0, 38, 48
1, 310080, Note_on_c, 0, 41, 46
1, 310142, Control_c, 0, 64, 71
1, 310146, Note_off_c, 0, 41, 56
1, 310157, Control_c, 0, 64, 72
1, 310163, Note_on_c, 0, 38, 33
1, 310172, Control_c, 0, 64, 72
1, 310202, Control_c, 0, 64, 73
1, 310211, Note_on_c, 0, 41, 41
1, 310211, Note_off_c, 0, 38, 52
1, 310217, Control_c, 0, 64, 73
1, 310231, Control_c, 0, 64, 75
1, 310246, Control_c, 0, 64, 77
1, 310261, Control_c, 0, 64, 77
1, 310298, Control_c, 0, 64, 78
1, 310299, Note_off_c, 0, 41, 52
1, 310300, Note_on_c, 0, 38, 30
1, 310349, Note_on_c, 0, 41, 32
1, 310410, Note_off_c, 0, 38, 0
1, 310428, Note_on_c, 0, 38, 17
1, 310461, Control_c, 0, 64, 78
1, 310464, Note_off_c, 0, 41, 0
1, 310475, Note_off_c, 0, 38, 58
1, 310476, Control_c, 0, 64, 79
1, 310481, Note_on_c, 0, 41, 30
1, 310550, Control_c, 0, 64, 79
1, 310563, Note_off_c, 0, 41, 54
1, 310576, Note_on_c, 0, 38, 29
1, 310624, Control_c, 0, 64, 80
1, 310632, Note_off_c, 0, 38, 43
1, 310636, Note_on_c, 0, 41, 27
1, 310668, Control_c, 0, 64, 80
1, 310683, Control_c, 0, 64, 81
1, 310715, Note_on_c, 0, 38, 25
1, 310742, Control_c, 0, 64, 81
1, 310757, Control_c, 0, 64, 82
1, 310769, Note_off_c, 0, 41, 0
1, 310773, Control_c, 0, 64, 83
1, 310777, Note_off_c, 0, 38, 53
1, 310784, Note_on_c, 0, 41, 28
1, 310788, Control_c, 0, 64, 83
1, 310875, Note_on_c, 0, 38, 18
1, 310877, Control_c, 0, 64, 84
1, 310891, Control_c, 0, 64, 85
1, 310906, Control_c, 0, 64, 87
1, 310920, Note_off_c, 0, 41, 0
1, 310921, Control_c, 0, 64, 91
1, 310936, Control_c, 0, 64, 96
1, 310941, Note_on_c, 0, 41, 21
1, 310950, Control_c, 0, 64, 97
1, 310960, Note_on_c, 0, 46, 56
1, 310965, Control_c, 0, 64, 94
1, 310980, Control_c, 0, 64, 88
1, 310995, Note_off_c, 0, 38, 0
1, 310995, Control_c, 0, 64, 78
1, 311010, Control_c, 0, 64, 69
1, 311021, Note_on_c, 0, 38, 13
1, 311029, Note_off_c, 0, 41, 54
1, 311030, Note_off_c, 0, 45, 55
1, 311032, Control_c, 0, 64, 63
1, 311047, Control_c, 0, 64, 63
1, 311062, Control_c, 0, 64, 64
1, 311076, Control_c, 0, 64, 65
1, 311084, Note_off_c, 0, 38, 50
1, 311091, Control_c, 0, 64, 66
1, 311099, Note_on_c, 0, 41, 20
1, 311106, Control_c, 0, 64, 66
1, 311121, Control_c, 0, 64, 67
1, 311136, Control_c, 0, 64, 68
1, 311150, Control_c, 0, 64, 71
1, 311158, Note_off_c, 0, 41, 57
1, 311165, Control_c, 0, 64, 73
1, 311173, Note_on_c, 0, 38, 15
1, 311180, Control_c, 0, 64, 75
1, 311195, Control_c, 0, 64, 75
1, 311227, Note_off_c, 0, 38, 49
1, 311239, Control_c, 0, 64, 76
1, 311248, Note_on_c, 0, 41, 36
1, 311254, Control_c, 0, 64, 76
1, 311269, Control_c, 0, 64, 78
1, 311284, Control_c, 0, 64, 79
1, 311299, Control_c, 0, 64, 81
1, 311300, Note_off_c, 0, 41, 58
1, 311313, Control_c, 0, 64, 85
1, 311314, Note_on_c, 0, 38, 36
1, 311328, Control_c, 0, 64, 91
1, 311343, Control_c, 0, 64, 98
1, 311358, Control_c, 0, 64, 110
1, 311366, Note_off_c, 0, 38, 54
1, 311373, Control_c, 0, 64, 127
1, 311390, Note_on_c, 0, 41, 36
1, 311432, Control_c, 0, 64, 94
1, 311447, Note_on_c, 0, 38, 38
1, 311447, Control_c, 0, 64, 78
1, 311452, Note_off_c, 0, 41, 53
1, 311461, Control_c, 0, 64, 69
1, 311476, Control_c, 0, 64, 67
1, 311491, Control_c, 0, 64, 69
1, 311506, Control_c, 0, 64, 71
1, 311514, Note_off_c, 0, 38, 54
1, 311521, Control_c, 0, 64, 73
1, 311535, Control_c, 0, 64, 75
1, 311539, Note_on_c, 0, 41, 33
1, 311550, Control_c, 0, 64, 79
1, 311566, Control_c, 0, 64, 82
1, 311581, Control_c, 0, 64, 87
1, 311590, Note_on_c, 0, 38, 28
1, 311596, Control_c, 0, 64, 92
1, 311606, Note_off_c, 0, 41, 58
1, 311611, Control_c, 0, 64, 95
1, 311626, Control_c, 0, 64, 96
1, 311640, Control_c, 0, 64, 97
1, 311655, Control_c, 0, 64, 98
1, 311670, Control_c, 0, 64, 101
1, 311677, Note_off_c, 0, 46, 62
1, 311684, Control_c, 0, 64, 104
1, 311689, Note_on_c, 0, 41, 43
1, 311699, Control_c, 0, 64, 108
1, 311714, Control_c, 0, 64, 114
1, 311726, Note_off_c, 0, 38, 0
1, 311729, Control_c, 0, 64, 127
1, 311741, Note_on_c, 0, 38, 29
1, 311746, Note_off_c, 0, 41, 58
1, 311818, Note_off_c, 0, 38, 54
1, 311868, Note_on_c, 0, 41, 44
1, 311919, Note_off_c, 0, 41, 58
1, 311936, Note_on_c, 0, 38, 42
1, 311988, Note_off_c, 0, 38, 57
1, 312029, Note_on_c, 0, 41, 43
1, 312081, Note_off_c, 0, 41, 55
1, 312115, Note_on_c, 0, 38, 43
1, 312178, Note_off_c, 0, 38, 53
1, 312207, Note_on_c, 0, 41, 35
1, 312220, Note_on_c, 0, 35, 71
1, 312241, Control_c, 0, 64, 110
1, 312255, Control_c, 0, 64, 80
1, 312268, Note_off_c, 0, 41, 56
1, 312270, Control_c, 0, 64, 71
1, 312285, Control_c, 0, 64, 68
1, 312286, Note_on_c, 0, 38, 30
1, 312300, Control_c, 0, 64, 69
1, 312315, Control_c, 0, 64, 71
1, 312330, Control_c, 0, 64, 74
1, 312345, Control_c, 0, 64, 82
1, 312350, Note_off_c, 0, 38, 56
1, 312360, Control_c, 0, 64, 92
1, 312375, Control_c, 0, 64, 105
1, 312390, Control_c, 0, 64, 120
1, 312393, Note_on_c, 0, 41, 46
1, 312404, Control_c, 0, 64, 127
1, 312458, Note_off_c, 0, 41, 56
1, 312476, Note_on_c, 0, 38, 42
1, 312546, Note_off_c, 0, 38, 53
1, 312589, Note_on_c, 0, 41, 46
1, 312637, Note_off_c, 0, 41, 60
1, 312649, Control_c, 0, 67, 119
1, 312658, Note_on_c, 0, 38, 40
1, 312664, Control_c, 0, 67, 97
1, 312679, Control_c, 0, 67, 75
1, 312694, Control_c, 0, 67, 54
1, 312709, Control_c, 0, 67, 40
1, 312723, Control_c, 0, 67, 34
1, 312738, Control_c, 0, 67, 32
1, 312747, Note_on_c, 0, 41, 46
1, 312753, Control_c, 0, 67, 31
1, 312768, Control_c, 0, 67, 30
1, 312780, Note_off_c, 0, 38, 33
1, 312783, Control_c, 0, 67, 29
1, 312797, Control_c, 0, 67, 29
1, 312812, Control_c, 0, 67, 27
1, 312827, Control_c, 0, 67, 26
1, 312841, Control_c, 0, 67, 22
1, 312843, Note_off_c, 0, 41, 61
1, 312856, Control_c, 0, 67, 17
1, 312858, Note_on_c, 0, 38, 31
1, 312871, Control_c, 0, 67, 9
1, 312877, Note_off_c, 0, 35, 32
1, 312886, Control_c, 0, 67, 0
1, 312910, Note_on_c, 0, 34, 83
1, 312967, Note_on_c, 0, 41, 56
1, 312975, Control_c, 0, 64, 88
1, 312980, Note_off_c, 0, 38, 35
1, 312989, Control_c, 0, 64, 73
1, 313004, Control_c, 0, 64, 68
1, 313019, Control_c, 0, 64, 71
1, 313034, Control_c, 0, 64, 81
1, 313047, Note_off_c, 0, 41, 60
1, 313048, Control_c, 0, 64, 106
1, 313061, Note_on_c, 0, 38, 36
1, 313063, Control_c, 0, 64, 127
1, 313128, Note_off_c, 0, 38, 58
1, 313145, Note_on_c, 0, 41, 45
1, 313240, Note_off_c, 0, 41, 62
1, 313269, Note_on_c, 0, 38, 48
1, 313311, Note_off_c, 0, 38, 62
1, 313338, Note_on_c, 0, 41, 50
1, 313411, Note_on_c, 0, 38, 53
1, 313439, Note_off_c, 0, 41, 60
1, 313506, Note_off_c, 0, 38, 59
1, 313528, Note_on_c, 0, 41, 48
1, 313623, Note_off_c, 0, 41, 63
1, 313630, Note_on_c, 0, 38, 64
1, 313634, Control_c, 0, 64, 85
1, 313645, Note_on_c, 0, 32, 94
1, 313649, Control_c, 0, 64, 69
1, 313663, Control_c, 0, 64, 70
1, 313675, Note_off_c, 0, 34, 63
1, 313678, Control_c, 0, 64, 82
1, 313693, Control_c, 0, 64, 127
1, 313704, Note_on_c, 0, 41, 64
1, 313704, Note_off_c, 0, 38, 62
1, 313706, Note_off_c, 0, 32, 64
1, 313791, Note_on_c, 0, 38, 71
1, 313797, Note_off_c, 0, 41, 64
1, 313871, Note_off_c, 0, 38, 61
1, 313882, Note_on_c, 0, 41, 69
1, 313969, Note_on_c, 0, 38, 68
1, 313975, Note_off_c, 0, 41, 63
1, 314065, Note_off_c, 0, 38, 61
1, 314074, Note_on_c, 0, 41, 70
1, 314166, Note_on_c, 0, 38, 66
1, 314169, Note_off_c, 0, 41, 63
1, 314206, Note_on_c, 0, 70, 96
1, 314214, Note_on_c, 0, 58, 80
1, 314243, Note_off_c, 0, 38, 61
1, 314257, Note_on_c, 0, 41, 67
1, 314327, Note_on_c, 0, 38, 62
1, 314344, Note_off_c, 0, 41, 62
1, 314375, Note_off_c, 0, 58, 62
1, 314405, Note_off_c, 0, 38, 62
1, 314417, Note_on_c, 0, 41, 66
1, 314467, Note_on_c, 0, 38, 57
1, 314475, Note_off_c, 0, 41, 64
1, 314548, Note_off_c, 0, 38, 58
1, 314548, Note_on_c, 0, 41, 76
1, 314661, Note_off_c, 0, 41, 61
1, 314727, Note_on_c, 0, 30, 71
1, 314736, Note_on_c, 0, 34, 77
1, 314741, Note_on_c, 0, 75, 100
1, 314747, Note_on_c, 0, 63, 90
1, 314753, Control_c, 0, 64, 101
1, 314776, Control_c, 0, 64, 60
1, 314790, Control_c, 0, 64, 0
1, 314894, Control_c, 0, 64, 31
1, 314909, Control_c, 0, 64, 44
1, 314923, Control_c, 0, 64, 51
1, 314938, Control_c, 0, 64, 56
1, 314953, Control_c, 0, 64, 62
1, 314968, Control_c, 0, 64, 66
1, 314983, Control_c, 0, 64, 70
1, 314998, Control_c, 0, 64, 75
1, 315003, Note_off_c, 0, 70, 49
1, 315013, Control_c, 0, 64, 83
1, 315019, Note_on_c, 0, 39, 47
1, 315028, Control_c, 0, 64, 94
1, 315040, Note_off_c, 0, 34, 52
1, 315043, Control_c, 0, 64, 113
1, 315048, Note_off_c, 0, 30, 36
1, 315057, Control_c, 0, 64, 127
1, 315140, Note_on_c, 0, 34, 54
1, 315144, Note_off_c, 0, 39, 59
1, 315164, Note_on_c, 0, 30, 39
1, 315198, Note_off_c, 0, 30, 53
1, 315236, Note_on_c, 0, 39, 41
1, 315264, Note_off_c, 0, 34, 37
1, 315318, Note_on_c, 0, 34, 46
1, 315342, Note_off_c, 0, 39, 53
1, 315352, Note_on_c, 0, 30, 19
1, 315391, Note_off_c, 0, 30, 53
1, 315410, Note_off_c, 0, 34, 57
1, 315414, Note_on_c, 0, 39, 50
1, 315493, Note_on_c, 0, 34, 53
1, 315501, Note_off_c, 0, 39, 59
1, 315529, Note_on_c, 0, 30, 40
1, 315588, Note_off_c, 0, 30, 51
1, 315588, Note_on_c, 0, 39, 46
1, 315600, Note_off_c, 0, 34, 55
1, 315680, Note_on_c, 0, 34, 58
1, 315704, Note_off_c, 0, 39, 59
1, 315707, Note_on_c, 0, 30, 46
1, 315755, Note_off_c, 0, 30, 59
1, 315761, Note_on_c, 0, 39, 52
1, 315769, Note_off_c, 0, 34, 59
1, 315846, Note_on_c, 0, 34, 69
1, 315858, Note_on_c, 0, 30, 61
1, 315862, Note_off_c, 0, 39, 60
1, 315893, Note_off_c, 0, 75, 61
1, 315902, Note_off_c, 0, 30, 59
1, 315925, Note_on_c, 0, 39, 63
1, 315930, Note_off_c, 0, 34, 61
1, 315930, Note_off_c, 0, 63, 62
1, 316010, Note_on_c, 0, 34, 75
1, 316013, Note_on_c, 0, 30, 59
1, 316023, Note_off_c, 0, 39, 61
1, 316034, Note_on_c, 0, 74, 88
1, 316038, Note_on_c, 0, 62, 82
1, 316069, Note_on_c, 0, 73, 33
1, 316070, Note_off_c, 0, 73, 127
1, 316077, Note_off_c, 0, 74, 67
1, 316078, Note_off_c, 0, 62, 61
1, 316081, Note_on_c, 0, 39, 57
1, 316092, Note_off_c, 0, 30, 60
1, 316110, Note_off_c, 0, 34, 59
1, 316144, Note_on_c, 0, 75, 103
1, 316151, Note_on_c, 0, 63, 90
1, 316157, Note_on_c, 0, 34, 56
1, 316161, Control_c, 0, 64, 87
1, 316167, Note_on_c, 0, 30, 51
1, 316176, Control_c, 0, 64, 66
1, 316187, Note_off_c, 0, 39, 64
1, 316191, Control_c, 0, 64, 56
1, 316205, Control_c, 0, 64, 54
1, 316220, Control_c, 0, 64, 57
1, 316235, Control_c, 0, 64, 62
1, 316257, Control_c, 0, 64, 67
1, 316259, Note_on_c, 0, 39, 58
1, 316272, Control_c, 0, 64, 73
1, 316286, Note_off_c, 0, 34, 59
1, 316287, Control_c, 0, 64, 82
1, 316302, Control_c, 0, 64, 92
1, 316309, Note_off_c, 0, 30, 0
1, 316317, Control_c, 0, 64, 96
1, 316334, Note_on_c, 0, 30, 21
1, 316335, Note_on_c, 0, 34, 52
1, 316346, Control_c, 0, 64, 98
1, 316360, Note_off_c, 0, 39, 59
1, 316362, Control_c, 0, 64, 110
1, 316377, Control_c, 0, 64, 127
1, 316421, Note_on_c, 0, 39, 46
1, 316423, Note_off_c, 0, 30, 59
1, 316482, Note_off_c, 0, 34, 0
1, 316497, Note_on_c, 0, 34, 47
1, 316512, Note_on_c, 0, 30, 43
1, 316524, Note_off_c, 0, 39, 53
1, 316579, Note_off_c, 0, 30, 55
1, 316581, Note_on_c, 0, 39, 48
1, 316585, Note_off_c, 0, 34, 61
1, 316665, Note_on_c, 0, 34, 65
1, 316670, Note_on_c, 0, 30, 34
1, 316673, Note_off_c, 0, 39, 60
1, 316744, Note_off_c, 0, 34, 60
1, 316745, Note_on_c, 0, 39, 59
1, 316765, Note_off_c, 0, 30, 37
1, 316791, Note_off_c, 0, 63, 51
1, 316819, Note_on_c, 0, 34, 62
1, 316829, Note_on_c, 0, 30, 37
1, 316834, Note_off_c, 0, 39, 61
1, 316891, Note_on_c, 0, 39, 55
1, 316900, Note_off_c, 0, 34, 60
1, 316941, Note_off_c, 0, 30, 0
1, 316969, Note_on_c, 0, 30, 22
1, 316974, Note_on_c, 0, 34, 68
1, 316983, Note_off_c, 0, 39, 60
1, 317050, Note_off_c, 0, 30, 58
1, 317061, Note_on_c, 0, 39, 60
1, 317061, Note_off_c, 0, 34, 60
1, 317127, Note_on_c, 0, 34, 65
1, 317135, Note_on_c, 0, 30, 56
1, 317143, Note_off_c, 0, 39, 62
1, 317190, Note_off_c, 0, 30, 61
1, 317205, Note_on_c, 0, 39, 64
1, 317213, Note_off_c, 0, 34, 60
1, 317274, Note_off_c, 0, 75, 60
1, 317288, Note_on_c, 0, 30, 65
1, 317289, Note_off_c, 0, 39, 62
1, 317290, Note_on_c, 0, 34, 74
1, 317315, Note_on_c, 0, 77, 102
1, 317319, Note_on_c, 0, 65, 94
1, 317353, Note_off_c, 0, 65, 66
1, 317355, Note_off_c, 0, 77, 68
1, 317365, Note_off_c, 0, 30, 60
1, 317368, Note_on_c, 0, 39, 71
1, 317371, Note_off_c, 0, 34, 61
1, 317432, Note_on_c, 0, 34, 72
1, 317432, Note_on_c, 0, 78, 101
1, 317434, Note_on_c, 0, 30, 64
1, 317434, Note_on_c, 0, 66, 100
1, 317458, Note_off_c, 0, 39, 64
1, 317466, Control_c, 0, 64, 66
1, 317481, Control_c, 0, 64, 25
1, 317496, Control_c, 0, 64, 0
1, 317526, Control_c, 0, 64, 23
1, 317530, Note_on_c, 0, 39, 63
1, 317541, Control_c, 0, 64, 56
1, 317554, Note_off_c, 0, 34, 60
1, 317555, Control_c, 0, 64, 62
1, 317570, Control_c, 0, 64, 66
1, 317576, Note_off_c, 0, 30, 36
1, 317585, Control_c, 0, 64, 72
1, 317600, Control_c, 0, 64, 84
1, 317615, Control_c, 0, 64, 127
1, 317618, Note_on_c, 0, 34, 60
1, 317637, Note_off_c, 0, 39, 61
1, 317639, Note_on_c, 0, 30, 49
1, 317706, Note_off_c, 0, 34, 59
1, 317708, Note_on_c, 0, 39, 61
1, 317716, Note_off_c, 0, 30, 53
1, 317776, Note_off_c, 0, 66, 56
1, 317802, Note_on_c, 0, 34, 64
1, 317811, Note_off_c, 0, 39, 61
1, 317821, Note_on_c, 0, 30, 46
1, 317889, Note_on_c, 0, 39, 60
1, 317889, Note_off_c, 0, 34, 59
1, 317904, Note_off_c, 0, 30, 41
1, 317978, Note_on_c, 0, 34, 67
1, 317987, Note_off_c, 0, 39, 60
1, 317992, Note_on_c, 0, 30, 32
1, 318079, Note_off_c, 0, 34, 60
1, 318081, Note_on_c, 0, 39, 63
1, 318086, Note_off_c, 0, 30, 39
1, 318172, Note_on_c, 0, 34, 68
1, 318179, Note_off_c, 0, 39, 60
1, 318190, Note_on_c, 0, 30, 43
1, 318244, Note_off_c, 0, 30, 58
1, 318260, Note_on_c, 0, 39, 60
1, 318262, Note_off_c, 0, 34, 56
1, 318351, Note_on_c, 0, 34, 67
1, 318360, Note_off_c, 0, 39, 61
1, 318368, Note_on_c, 0, 30, 51
1, 318405, Note_off_c, 0, 78, 37
1, 318414, Note_off_c, 0, 30, 59
1, 318445, Note_on_c, 0, 39, 65
1, 318448, Note_off_c, 0, 34, 60
1, 318533, Note_on_c, 0, 80, 79
1, 318535, Note_on_c, 0, 30, 49
1, 318543, Note_on_c, 0, 34, 68
1, 318552, Note_off_c, 0, 39, 62
1, 318600, Note_on_c, 0, 78, 87
1, 318617, Note_off_c, 0, 30, 57
1, 318627, Note_off_c, 0, 80, 63
1, 318640, Note_off_c, 0, 34, 61
1, 318641, Note_on_c, 0, 39, 69
1, 318664, Note_on_c, 0, 77, 91
1, 318672, Note_off_c, 0, 78, 65
1, 318727, Note_on_c, 0, 34, 75
1, 318731, Note_off_c, 0, 39, 62
1, 318735, Note_on_c, 0, 30, 59
1, 318737, Note_on_c, 0, 78, 98
1, 318773, Note_off_c, 0, 77, 60
1, 318787, Control_c, 0, 64, 125
1, 318802, Control_c, 0, 64, 81
1, 318804, Note_on_c, 0, 39, 67
1, 318807, Note_off_c, 0, 30, 61
1, 318816, Control_c, 0, 64, 68
1, 318819, Note_off_c, 0, 34, 60
1, 318831, Control_c, 0, 64, 64
1, 318846, Control_c, 0, 64, 65
1, 318861, Control_c, 0, 64, 75
1, 318876, Control_c, 0, 64, 108
1, 318890, Note_on_c, 0, 34, 61
1, 318891, Control_c, 0, 64, 127
1, 318900, Note_on_c, 0, 30, 50
1, 318904, Note_off_c, 0, 39, 62
1, 318946, Note_off_c, 0, 30, 62
1, 318970, Note_on_c, 0, 39, 63
1, 318972, Note_off_c, 0, 34, 61
1, 319048, Note_on_c, 0, 34, 67
1, 319055, Note_on_c, 0, 30, 53
1, 319058, Note_off_c, 0, 39, 61
1, 319112, Note_off_c, 0, 30, 59
1, 319125, Note_on_c, 0, 39, 65
1, 319129, Note_off_c, 0, 34, 60
1, 319199, Note_on_c, 0, 34, 61
1, 319218, Note_on_c, 0, 30, 50
1, 319222, Note_off_c, 0, 39, 59
1, 319266, Note_off_c, 0, 30, 61
1, 319279, Note_on_c, 0, 39, 62
1, 319289, Note_off_c, 0, 34, 61
1, 319352, Note_on_c, 0, 34, 67
1, 319359, Note_on_c, 0, 30, 54
1, 319362, Note_off_c, 0, 78, 49
1, 319373, Note_off_c, 0, 39, 60
1, 319401, Note_off_c, 0, 30, 61
1, 319416, Note_on_c, 0, 39, 57
1, 319427, Note_off_c, 0, 34, 61
1, 319482, Note_on_c, 0, 34, 70
1, 319493, Note_on_c, 0, 30, 64
1, 319505, Note_off_c, 0, 39, 58
1, 319531, Note_off_c, 0, 30, 62
1, 319551, Note_on_c, 0, 39, 61
1, 319559, Note_off_c, 0, 34, 60
1, 319615, Note_on_c, 0, 34, 66
1, 319623, Note_on_c, 0, 30, 66
1, 319635, Note_off_c, 0, 39, 58
1, 319669, Note_off_c, 0, 30, 60
1, 319687, Note_on_c, 0, 39, 60
1, 319688, Note_off_c, 0, 34, 61
1, 319758, Note_on_c, 0, 34, 72
1, 319764, Note_on_c, 0, 30, 66
1, 319767, Note_off_c, 0, 39, 60
1, 319818, Note_off_c, 0, 30, 58
1, 319835, Note_off_c, 0, 34, 60
1, 319843, Note_on_c, 0, 39, 68
1, 319890, Note_on_c, 0, 80, 101
1, 319893, Note_on_c, 0, 68, 98
1, 319898, Note_on_c, 0, 30, 63
1, 319898, Note_on_c, 0, 34, 69
1, 319927, Note_off_c, 0, 39, 60
1, 319948, Note_off_c, 0, 68, 63
1, 319963, Note_off_c, 0, 80, 66
1, 319966, Note_off_c, 0, 30, 61
1, 319975, Note_on_c, 0, 39, 57
1, 319985, Note_off_c, 0, 34, 60
1, 320015, Note_on_c, 0, 82, 105
1, 320018, Note_on_c, 0, 70, 97
1, 320030, Poly_aftertouch_c, 0, 34, 0
1, 320033, Control_c, 0, 64, 99
1, 320039, Note_on_c, 0, 30, 69
1, 320040, Note_on_c, 0, 34, 68
1, 320048, Control_c, 0, 64, 67
1, 320062, Control_c, 0, 64, 45
1, 320070, Note_off_c, 0, 39, 66
1, 320077, Control_c, 0, 64, 31
1, 320092, Control_c, 0, 64, 43
1, 320106, Control_c, 0, 64, 61
1, 320109, Note_off_c, 0, 30, 62
1, 320121, Control_c, 0, 64, 67
1, 320127, Note_on_c, 0, 39, 62
1, 320136, Control_c, 0, 64, 74
1, 320137, Note_off_c, 0, 34, 60
1, 320151, Control_c, 0, 64, 82
1, 320166, Control_c, 0, 64, 96
1, 320180, Control_c, 0, 64, 127
1, 320184, Note_on_c, 0, 34, 57
1, 320196, Note_on_c, 0, 30, 59
1, 320213, Note_off_c, 0, 39, 62
1, 320244, Note_off_c, 0, 30, 53
1, 320265, Note_on_c, 0, 39, 60
1, 320268, Note_off_c, 0, 34, 60
1, 320328, Note_on_c, 0, 34, 62
1, 320339, Note_on_c, 0, 30, 43
1, 320349, Note_off_c, 0, 39, 61
1, 320403, Note_off_c, 0, 34, 59
1, 320404, Note_off_c, 0, 30, 46
1, 320408, Note_on_c, 0, 39, 50
1, 320479, Note_on_c, 0, 34, 58
1, 320485, Note_off_c, 0, 39, 62
1, 320490, Note_on_c, 0, 30, 42
1, 320530, Note_off_c, 0, 30, 59
1, 320550, Note_off_c, 0, 34, 59
1, 320560, Note_on_c, 0, 39, 53
1, 320629, Note_on_c, 0, 30, 47
1, 320630, Note_on_c, 0, 34, 57
1, 320641, Note_off_c, 0, 39, 58
1, 320699, Note_off_c, 0, 30, 43
1, 320706, Note_off_c, 0, 34, 59
1, 320708, Note_on_c, 0, 39, 49
1, 320787, Note_on_c, 0, 34, 63
1, 320795, Note_on_c, 0, 30, 43
1, 320803, Note_off_c, 0, 39, 57
1, 320866, Note_off_c, 0, 30, 49
1, 320867, Note_off_c, 0, 34, 62
1, 320876, Note_on_c, 0, 39, 62
1, 320953, Note_on_c, 0, 34, 71
1, 320962, Note_off_c, 0, 39, 62
1, 320963, Note_on_c, 0, 30, 58
1, 321031, Note_off_c, 0, 70, 58
1, 321037, Note_on_c, 0, 39, 70
1, 321038, Note_off_c, 0, 30, 57
1, 321039, Note_off_c, 0, 34, 62
1, 321064, Note_off_c, 0, 82, 60
1, 321121, Note_on_c, 0, 30, 56
1, 321123, Note_on_c, 0, 34, 71
1, 321135, Note_off_c, 0, 39, 58
1, 321217, Note_on_c, 0, 39, 78
1, 321219, Note_on_c, 0, 83, 110
1, 321220, Note_on_c, 0, 71, 109
1, 321222, Note_off_c, 0, 30, 58
1, 321233, Note_off_c, 0, 34, 61
1, 321267, Note_off_c, 0, 71, 62
1, 321285, Note_off_c, 0, 83, 64
1, 321313, Note_on_c, 0, 34, 71
1, 321327, Note_on_c, 0, 30, 60
1, 321338, Note_off_c, 0, 39, 57
1, 321377, Note_on_c, 0, 74, 105
1, 321377, Note_on_c, 0, 86, 104
1, 321395, Note_on_c, 0, 39, 77
1, 321404, Control_c, 0, 64, 81
1, 321408, Note_off_c, 0, 34, 60
1, 321419, Control_c, 0, 64, 59
1, 321433, Control_c, 0, 64, 31
1, 321448, Control_c, 0, 64, 32
1, 321459, Note_on_c, 0, 34, 61
1, 321463, Control_c, 0, 64, 50
1, 321478, Control_c, 0, 64, 63
1, 321486, Note_off_c, 0, 39, 61
1, 321493, Control_c, 0, 64, 65
1, 321514, Control_c, 0, 64, 69
1, 321529, Control_c, 0, 64, 75
1, 321536, Note_off_c, 0, 30, 59
1, 321541, Note_on_c, 0, 39, 55
1, 321544, Control_c, 0, 64, 91
1, 321547, Note_off_c, 0, 34, 63
1, 321559, Control_c, 0, 64, 127
1, 321610, Note_on_c, 0, 34, 65
1, 321611, Note_on_c, 0, 30, 58
1, 321627, Note_off_c, 0, 39, 60
1, 321673, Note_off_c, 0, 30, 60
1, 321684, Note_on_c, 0, 39, 64
1, 321684, Note_off_c, 0, 34, 61
1, 321744, Note_on_c, 0, 34, 65
1, 321754, Note_on_c, 0, 30, 60
1, 321765, Note_off_c, 0, 39, 60
1, 321806, Note_off_c, 0, 30, 54
1, 321813, Note_on_c, 0, 39, 69
1, 321819, Note_off_c, 0, 34, 61
1, 321879, Note_on_c, 0, 34, 72
1, 321880, Note_on_c, 0, 30, 67
1, 321892, Note_off_c, 0, 39, 64
1, 321927, Note_off_c, 0, 30, 59
1, 321942, Note_on_c, 0, 39, 65
1, 321952, Note_off_c, 0, 34, 61
1, 322000, Note_on_c, 0, 30, 66
1, 322001, Note_on_c, 0, 34, 68
1, 322021, Note_off_c, 0, 39, 61
1, 322034, Note_off_c, 0, 74, 56
1, 322057, Note_off_c, 0, 30, 61
1, 322071, Note_on_c, 0, 39, 72
1, 322074, Note_off_c, 0, 86, 62
1, 322081, Note_off_c, 0, 34, 60
1, 322119, Poly_aftertouch_c, 0, 34, 0
1, 322128, Note_on_c, 0, 30, 63
1, 322129, Note_on_c, 0, 34, 68
1, 322157, Note_off_c, 0, 39, 61
1, 322183, Note_off_c, 0, 30, 63
1, 322200, Note_on_c, 0, 39, 67
1, 322206, Note_off_c, 0, 34, 61
1, 322273, Note_on_c, 0, 30, 73
1, 322274, Note_on_c, 0, 34, 72
1, 322296, Note_off_c, 0, 39, 59
1, 322334, Note_on_c, 0, 39, 66
1, 322348, Note_off_c, 0, 34, 61
1, 322405, Note_on_c, 0, 34, 76
1, 322423, Note_off_c, 0, 39, 62
1, 322482, Note_off_c, 0, 34, 61
1, 322497, Note_on_c, 0, 39, 72
1, 322542, Note_on_c, 0, 87, 111
1, 322546, Note_on_c, 0, 75, 105
1, 322575, Note_on_c, 0, 34, 70
1, 322640, Note_off_c, 0, 39, 0
1, 322655, Note_on_c, 0, 39, 49
1, 322677, Note_off_c, 0, 87, 63
1, 322695, Note_off_c, 0, 75, 58
1, 322742, Note_off_c, 0, 30, 42
1, 322782, Note_off_c, 0, 34, 54
1, 322784, Note_on_c, 0, 32, 72
1, 322787, Note_on_c, 0, 29, 67
1, 322824, Note_off_c, 0, 39, 56
1, 322840, Note_on_c, 0, 85, 109
1, 322841, Note_on_c, 0, 73, 104
1, 322857, Control_c, 0, 64, 77
1, 322871, Control_c, 0, 64, 47
1, 322886, Control_c, 0, 64, 0
1, 322960, Control_c, 0, 64, 40
1, 322975, Control_c, 0, 64, 60
1, 323012, Control_c, 0, 64, 61
1, 323027, Control_c, 0, 64, 64
1, 323029, Note_off_c, 0, 29, 55
1, 323042, Control_c, 0, 64, 68
1, 323057, Control_c, 0, 64, 75
1, 323058, Note_off_c, 0, 32, 61
1, 323066, Note_on_c, 0, 37, 47
1, 323072, Control_c, 0, 64, 82
1, 323086, Control_c, 0, 64, 93
1, 323101, Control_c, 0, 64, 127
1, 323151, Note_off_c, 0, 37, 58
1, 323157, Note_on_c, 0, 32, 50
1, 323162, Note_on_c, 0, 29, 48
1, 323211, Note_off_c, 0, 29, 55
1, 323220, Note_off_c, 0, 32, 58
1, 323240, Note_on_c, 0, 37, 47
1, 323320, Note_off_c, 0, 37, 57
1, 323322, Note_on_c, 0, 32, 54
1, 323346, Note_on_c, 0, 29, 31
1, 323390, Note_off_c, 0, 29, 48
1, 323392, Note_off_c, 0, 32, 57
1, 323404, Note_on_c, 0, 37, 48
1, 323478, Note_on_c, 0, 32, 45
1, 323499, Note_on_c, 0, 29, 31
1, 323501, Note_off_c, 0, 37, 49
1, 323558, Note_off_c, 0, 32, 51
1, 323562, Note_off_c, 0, 29, 41
1, 323566, Note_on_c, 0, 37, 41
1, 323646, Note_on_c, 0, 32, 42
1, 323660, Note_on_c, 0, 29, 15
1, 323711, Note_off_c, 0, 37, 0
1, 323731, Note_off_c, 0, 32, 56
1, 323732, Note_on_c, 0, 37, 35
1, 323735, Note_off_c, 0, 85, 62
1, 323840, Note_on_c, 0, 32, 47
1, 323874, Note_off_c, 0, 73, 59
1, 323902, Note_off_c, 0, 37, 0
1, 323911, Note_off_c, 0, 32, 58
1, 323920, Note_on_c, 0, 37, 39
1, 324009, Poly_aftertouch_c, 0, 75, 127
1, 324018, Note_on_c, 0, 32, 46
1, 324024, Note_off_c, 0, 37, 56
1, 324072, Note_off_c, 0, 32, 59
1, 324099, Note_on_c, 0, 37, 37
1, 324147, Note_on_c, 0, 83, 79
1, 324161, Note_on_c, 0, 71, 62
1, 324181, Note_on_c, 0, 32, 53
1, 324182, Note_off_c, 0, 37, 54
1, 324268, Note_off_c, 0, 71, 63
1, 324275, Poly_aftertouch_c, 0, 75, 0
1, 324278, Note_on_c, 0, 37, 39
1, 324343, Note_off_c, 0, 32, 37
1, 324421, Note_on_c, 0, 30, 44
1, 324443, Note_on_c, 0, 82, 74
1, 324458, Control_c, 0, 64, 77
1, 324459, Note_on_c, 0, 70, 51
1, 324466, Note_off_c, 0, 37, 31
1, 324468, Note_off_c, 0, 29, 29
1, 324473, Control_c, 0, 64, 59
1, 324495, Control_c, 0, 64, 21
1, 324510, Control_c, 0, 64, 0
1, 324555, Control_c, 0, 64, 46
1, 324569, Control_c, 0, 64, 58
1, 324584, Control_c, 0, 64, 61
1, 324599, Control_c, 0, 64, 63
1, 324606, Note_off_c, 0, 83, 27
1, 324614, Control_c, 0, 64, 64
1, 324629, Control_c, 0, 64, 67
1, 324635, Note_on_c, 0, 37, 38
1, 324637, Note_off_c, 0, 30, 49
1, 324643, Control_c, 0, 64, 71
1, 324658, Control_c, 0, 64, 74
1, 324673, Control_c, 0, 64, 77
1, 324688, Control_c, 0, 64, 80
1, 324703, Control_c, 0, 64, 82
1, 324718, Control_c, 0, 64, 84
1, 324726, Note_on_c, 0, 30, 37
1, 324732, Control_c, 0, 64, 85
1, 324747, Control_c, 0, 64, 86
1, 324762, Control_c, 0, 64, 87
1, 324776, Control_c, 0, 64, 91
1, 324787, Note_off_c, 0, 37, 0
1, 324790, Note_off_c, 0, 30, 60
1, 324791, Control_c, 0, 64, 94
1, 324807, Note_on_c, 0, 37, 29
1, 324821, Control_c, 0, 64, 94
1, 324850, Control_c, 0, 64, 94
1, 324880, Control_c, 0, 64, 93
1, 324895, Control_c, 0, 64, 93
1, 324899, Note_on_c, 0, 30, 42
1, 324899, Note_off_c, 0, 37, 54
1, 324924, Control_c, 0, 64, 93
1, 324939, Control_c, 0, 64, 93
1, 324954, Control_c, 0, 64, 92
1, 324957, Note_off_c, 0, 30, 56
1, 324978, Note_on_c, 0, 37, 38
1, 324999, Control_c, 0, 64, 93
1, 325041, Note_on_c, 0, 30, 33
1, 325043, Control_c, 0, 64, 93
1, 325058, Control_c, 0, 64, 94
1, 325088, Note_off_c, 0, 37, 0
1, 325118, Note_on_c, 0, 37, 21
1, 325132, Control_c, 0, 64, 94
1, 325151, Note_off_c, 0, 30, 0
1, 325169, Note_on_c, 0, 30, 34
1, 325192, Control_c, 0, 64, 95
1, 325207, Control_c, 0, 64, 96
1, 325222, Control_c, 0, 64, 97
1, 325257, Note_off_c, 0, 37, 0
1, 325275, Note_on_c, 0, 37, 34
1, 325288, Control_c, 0, 64, 97
1, 325297, Note_off_c, 0, 30, 0
1, 325300, Note_off_c, 0, 82, 59
1, 325303, Control_c, 0, 64, 98
1, 325318, Note_on_c, 0, 30, 27
1, 325339, Note_off_c, 0, 70, 37
1, 325362, Control_c, 0, 64, 98
1, 325377, Control_c, 0, 64, 99
1, 325397, Note_off_c, 0, 30, 52
1, 325401, Note_off_c, 0, 37, 0
1, 325419, Note_on_c, 0, 37, 30
1, 325437, Control_c, 0, 64, 99
1, 325461, Note_on_c, 0, 30, 34
1, 325511, Note_off_c, 0, 37, 47
1, 325511, Control_c, 0, 64, 100
1, 325526, Control_c, 0, 64, 101
1, 325554, Control_c, 0, 64, 101
1, 325565, Note_on_c, 0, 37, 35
1, 325589, Note_off_c, 0, 30, 0
1, 325598, Control_c, 0, 64, 102
1, 325609, Note_on_c, 0, 30, 25
1, 325613, Control_c, 0, 64, 104
1, 325628, Control_c, 0, 64, 106
1, 325643, Control_c, 0, 64, 109
1, 325658, Control_c, 0, 64, 120
1, 325670, Note_off_c, 0, 37, 0
1, 325672, Control_c, 0, 64, 127
1, 325694, Note_on_c, 0, 37, 26
1, 325695, Note_off_c, 0, 30, 57
1, 325773, Note_on_c, 0, 30, 48
1, 325845, Note_off_c, 0, 37, 0
1, 325853, Note_off_c, 0, 30, 58
1, 325860, Note_on_c, 0, 37, 43
1, 325914, Note_on_c, 0, 30, 44
1, 325946, Note_off_c, 0, 37, 57
1, 326011, Note_off_c, 0, 30, 58
1, 326018, Note_on_c, 0, 37, 47
1, 326084, Note_on_c, 0, 30, 46
1, 326105, Note_off_c, 0, 37, 58
1, 326124, Note_on_c, 0, 70, 93
1, 326129, Note_on_c, 0, 58, 85
1, 326171, Note_off_c, 0, 30, 56
1, 326191, Note_on_c, 0, 37, 52
1, 326265, Note_on_c, 0, 30, 56
1, 326268, Note_off_c, 0, 37, 60
1, 326333, Note_off_c, 0, 30, 61
1, 326347, Note_on_c, 0, 37, 53
1, 326409, Note_on_c, 0, 30, 63
1, 326420, Note_off_c, 0, 37, 60
1, 326480, Note_off_c, 0, 30, 60
1, 326492, Note_on_c, 0, 37, 57
1, 326540, Note_on_c, 0, 30, 60
1, 326569, Note_off_c, 0, 37, 60
1, 326577, Note_off_c, 0, 58, 62
1, 326606, Note_off_c, 0, 70, 62
1, 326620, Note_on_c, 0, 37, 63
1, 326628, Note_off_c, 0, 30, 60
1, 326689, Note_on_c, 0, 30, 63
1, 326711, Note_off_c, 0, 37, 60
1, 326770, Note_on_c, 0, 37, 55
1, 326772, Note_off_c, 0, 30, 63
1, 326808, Note_on_c, 0, 71, 99
1, 326813, Note_on_c, 0, 59, 88
1, 326838, Note_on_c, 0, 30, 71
1, 326844, Control_c, 0, 64, 91
1, 326859, Control_c, 0, 64, 69
1, 326862, Note_off_c, 0, 37, 61
1, 326874, Control_c, 0, 64, 56
1, 326889, Control_c, 0, 64, 45
1, 326904, Control_c, 0, 64, 35
1, 326917, Note_off_c, 0, 30, 63
1, 326918, Control_c, 0, 64, 41
1, 326924, Note_on_c, 0, 37, 66
1, 326933, Control_c, 0, 64, 57
1, 326948, Control_c, 0, 64, 65
1, 326963, Control_c, 0, 64, 72
1, 326977, Control_c, 0, 64, 81
1, 326990, Note_on_c, 0, 30, 64
1, 326992, Control_c, 0, 64, 97
1, 327007, Control_c, 0, 64, 127
1, 327008, Note_off_c, 0, 37, 61
1, 327064, Note_off_c, 0, 30, 61
1, 327071, Note_on_c, 0, 37, 64
1, 327127, Note_on_c, 0, 30, 68
1, 327148, Note_off_c, 0, 37, 60
1, 327202, Note_off_c, 0, 30, 62
1, 327208, Note_on_c, 0, 37, 63
1, 327266, Note_on_c, 0, 30, 71
1, 327284, Note_off_c, 0, 37, 60
1, 327353, Note_off_c, 0, 30, 60
1, 327356, Note_on_c, 0, 37, 72
1, 327411, Note_off_c, 0, 59, 61
1, 327426, Note_on_c, 0, 30, 60
1, 327434, Note_off_c, 0, 71, 60
1, 327469, Note_off_c, 0, 37, 58
1, 327528, Note_on_c, 0, 37, 69
1, 327530, Note_off_c, 0, 30, 62
1, 327598, Note_on_c, 0, 30, 52
1, 327625, Note_off_c, 0, 37, 60
1, 327631, Note_on_c, 0, 70, 101
1, 327636, Note_on_c, 0, 58, 97
1, 327654, Note_on_c, 0, 33, 48
1, 327693, Note_off_c, 0, 33, 61
1, 327706, Note_on_c, 0, 37, 67
1, 327741, Poly_aftertouch_c, 0, 71, 0
1, 327765, Note_off_c, 0, 58, 64
1, 327801, Note_off_c, 0, 70, 59
1, 327819, Note_off_c, 0, 37, 0
1, 327834, Note_on_c, 0, 37, 52
1, 327846, Note_on_c, 0, 58, 101
1, 327902, Note_off_c, 0, 30, 58
1, 328004, Note_on_c, 0, 32, 61
1, 328010, Note_on_c, 0, 29, 68
1, 328092, Note_off_c, 0, 37, 40
1, 328159, Note_on_c, 0, 70, 99
1, 328171, Control_c, 0, 64, 69
1, 328185, Control_c, 0, 64, 37
1, 328200, Control_c, 0, 64, 0
1, 328282, Control_c, 0, 64, 41
1, 328297, Control_c, 0, 64, 53
1, 328312, Control_c, 0, 64, 54
1, 328327, Control_c, 0, 64, 57
1, 328343, Control_c, 0, 64, 61
1, 328348, Note_off_c, 0, 29, 57
1, 328358, Control_c, 0, 64, 63
1, 328358, Note_on_c, 0, 38, 52
1, 328366, Note_off_c, 0, 32, 62
1, 328372, Control_c, 0, 64, 64
1, 328387, Control_c, 0, 64, 65
1, 328402, Control_c, 0, 64, 66
1, 328416, Control_c, 0, 64, 69
1, 328431, Control_c, 0, 64, 72
1, 328446, Control_c, 0, 64, 74
1, 328456, Note_on_c, 0, 29, 51
1, 328457, Note_on_c, 0, 32, 43
1, 328459, Note_off_c, 0, 38, 60
1, 328461, Control_c, 0, 64, 77
1, 328476, Control_c, 0, 64, 79
1, 328490, Control_c, 0, 64, 82
1, 328505, Control_c, 0, 64, 82
1, 328520, Control_c, 0, 64, 82
1, 328524, Note_off_c, 0, 32, 59
1, 328540, Note_off_c, 0, 29, 39
1, 328564, Note_on_c, 0, 38, 42
1, 328594, Control_c, 0, 64, 81
1, 328624, Control_c, 0, 64, 83
1, 328633, Note_off_c, 0, 38, 56
1, 328634, Note_on_c, 0, 32, 53
1, 328636, Note_on_c, 0, 29, 32
1, 328638, Control_c, 0, 64, 84
1, 328653, Control_c, 0, 64, 85
1, 328685, Note_off_c, 0, 32, 59
1, 328694, Note_off_c, 0, 29, 51
1, 328736, Note_on_c, 0, 38, 43
1, 328772, Control_c, 0, 64, 85
1, 328785, Note_off_c, 0, 58, 52
1, 328787, Control_c, 0, 64, 86
1, 328799, Note_on_c, 0, 32, 52
1, 328802, Control_c, 0, 64, 86
1, 328809, Note_off_c, 0, 38, 54
1, 328815, Note_on_c, 0, 29, 44
1, 328816, Control_c, 0, 64, 88
1, 328831, Control_c, 0, 64, 89
1, 328846, Control_c, 0, 64, 90
1, 328861, Control_c, 0, 64, 91
1, 328866, Note_off_c, 0, 29, 52
1, 328876, Control_c, 0, 64, 91
1, 328877, Note_off_c, 0, 32, 55
1, 328900, Note_on_c, 0, 38, 39
1, 328920, Control_c, 0, 64, 92
1, 328935, Control_c, 0, 64, 93
1, 328950, Control_c, 0, 64, 96
1, 328964, Control_c, 0, 64, 98
1, 328979, Control_c, 0, 64, 100
1, 328981, Note_off_c, 0, 38, 59
1, 329001, Note_on_c, 0, 32, 55
1, 329002, Control_c, 0, 64, 101
1, 329016, Control_c, 0, 64, 103
1, 329018, Note_on_c, 0, 29, 43
1, 329031, Control_c, 0, 64, 104
1, 329046, Control_c, 0, 64, 105
1, 329061, Control_c, 0, 64, 107
1, 329076, Control_c, 0, 64, 112
1, 329087, Note_off_c, 0, 29, 48
1, 329090, Control_c, 0, 64, 115
1, 329091, Note_off_c, 0, 32, 57
1, 329104, Note_on_c, 0, 38, 54
1, 329105, Control_c, 0, 64, 115
1, 329120, Control_c, 0, 64, 116
1, 329136, Control_c, 0, 64, 122
1, 329151, Control_c, 0, 64, 127
1, 329209, Note_on_c, 0, 32, 53
1, 329221, Note_off_c, 0, 38, 58
1, 329226, Note_on_c, 0, 29, 43
1, 329248, Note_on_c, 0, 68, 88
1, 329249, Note_on_c, 0, 56, 84
1, 329269, Note_off_c, 0, 70, 64
1, 329329, Note_off_c, 0, 29, 46
1, 329335, Note_off_c, 0, 32, 58
1, 329339, Note_on_c, 0, 38, 54
1, 329431, Note_off_c, 0, 56, 64
1, 329437, Note_on_c, 0, 32, 53
1, 329446, Note_off_c, 0, 68, 62
1, 329450, Note_on_c, 0, 29, 51
1, 329456, Note_off_c, 0, 38, 59
1, 329476, Control_c, 0, 64, 93
1, 329491, Control_c, 0, 64, 91
1, 329501, Note_on_c, 0, 66, 91
1, 329506, Control_c, 0, 64, 96
1, 329508, Note_on_c, 0, 54, 86
1, 329521, Control_c, 0, 64, 112
1, 329523, Note_off_c, 0, 29, 53
1, 329528, Note_off_c, 0, 32, 60
1, 329536, Control_c, 0, 64, 127
1, 329548, Note_on_c, 0, 38, 53
1, 329624, Note_on_c, 0, 32, 55
1, 329635, Note_on_c, 0, 29, 46
1, 329641, Note_off_c, 0, 38, 58
1, 329676, Note_off_c, 0, 54, 65
1, 329683, Note_off_c, 0, 66, 56
1, 329697, Note_off_c, 0, 32, 60
1, 329708, Note_on_c, 0, 38, 46
1, 329713, Control_c, 0, 64, 91
1, 329724, Note_on_c, 0, 53, 82
1, 329724, Note_on_c, 0, 65, 86
1, 329728, Control_c, 0, 64, 64
1, 329750, Control_c, 0, 64, 37
1, 329765, Control_c, 0, 64, 0
1, 329777, Note_on_c, 0, 32, 50
1, 329802, Note_off_c, 0, 38, 57
1, 329810, Control_c, 0, 64, 39
1, 329825, Control_c, 0, 64, 57
1, 329839, Control_c, 0, 64, 63
1, 329854, Control_c, 0, 64, 66
1, 329855, Note_off_c, 0, 32, 60
1, 329856, Note_off_c, 0, 29, 53
1, 329874, Note_on_c, 0, 38, 43
1, 329884, Control_c, 0, 64, 65
1, 329913, Control_c, 0, 64, 66
1, 329928, Control_c, 0, 64, 66
1, 329938, Note_on_c, 0, 32, 44
1, 329944, Control_c, 0, 64, 66
1, 329947, Note_off_c, 0, 38, 61
1, 329951, Note_on_c, 0, 29, 38
1, 329997, Note_off_c, 0, 32, 58
1, 330003, Note_off_c, 0, 29, 55
1, 330004, Control_c, 0, 64, 66
1, 330017, Note_on_c, 0, 38, 44
1, 330018, Control_c, 0, 64, 66
1, 330033, Control_c, 0, 64, 65
1, 330062, Control_c, 0, 64, 66
1, 330087, Note_off_c, 0, 38, 61
1, 330088, Note_on_c, 0, 32, 41
1, 330091, Note_on_c, 0, 29, 37
1, 330136, Control_c, 0, 64, 66
1, 330141, Note_off_c, 0, 32, 52
1, 330144, Note_off_c, 0, 29, 52
1, 330160, Note_on_c, 0, 38, 45
1, 330166, Control_c, 0, 64, 66
1, 330195, Control_c, 0, 64, 66
1, 330225, Control_c, 0, 64, 67
1, 330228, Note_on_c, 0, 29, 31
1, 330228, Note_on_c, 0, 32, 39
1, 330228, Note_off_c, 0, 38, 59
1, 330255, Control_c, 0, 64, 67
1, 330269, Control_c, 0, 64, 68
1, 330274, Note_off_c, 0, 32, 54
1, 330284, Control_c, 0, 64, 68
1, 330298, Note_off_c, 0, 29, 41
1, 330299, Note_on_c, 0, 38, 40
1, 330314, Control_c, 0, 64, 69
1, 330329, Control_c, 0, 64, 69
1, 330344, Control_c, 0, 64, 71
1, 330352, Note_on_c, 0, 32, 43
1, 330358, Control_c, 0, 64, 73
1, 330364, Note_off_c, 0, 38, 58
1, 330364, Note_on_c, 0, 29, 20
1, 330373, Control_c, 0, 64, 74
1, 330388, Control_c, 0, 64, 75
1, 330399, Note_off_c, 0, 32, 55
1, 330421, Note_off_c, 0, 29, 43
1, 330435, Note_on_c, 0, 38, 38
1, 330476, Note_on_c, 0, 32, 50
1, 330500, Note_off_c, 0, 38, 57
1, 330501, Note_on_c, 0, 29, 30
1, 330531, Note_off_c, 0, 32, 56
1, 330563, Note_on_c, 0, 38, 44
1, 330600, Note_off_c, 0, 29, 0
1, 330607, Note_on_c, 0, 32, 46
1, 330619, Note_on_c, 0, 29, 27
1, 330627, Note_off_c, 0, 38, 57
1, 330648, Control_c, 0, 64, 75
1, 330662, Control_c, 0, 64, 76
1, 330674, Note_off_c, 0, 32, 48
1, 330677, Control_c, 0, 64, 77
1, 330692, Control_c, 0, 64, 78
1, 330693, Note_on_c, 0, 38, 39
1, 330722, Control_c, 0, 64, 78
1, 330723, Note_off_c, 0, 29, 0
1, 330732, Note_on_c, 0, 32, 39
1, 330737, Control_c, 0, 64, 79
1, 330752, Note_on_c, 0, 29, 18
1, 330752, Control_c, 0, 64, 81
1, 330757, Note_off_c, 0, 38, 58
1, 330767, Control_c, 0, 64, 83
1, 330782, Control_c, 0, 64, 84
1, 330797, Control_c, 0, 64, 84
1, 330808, Note_off_c, 0, 32, 46
1, 330812, Note_off_c, 0, 29, 49
1, 330826, Control_c, 0, 64, 85
1, 330832, Note_on_c, 0, 38, 47
1, 330841, Control_c, 0, 64, 86
1, 330856, Control_c, 0, 64, 87
1, 330874, Note_off_c, 0, 53, 35
1, 330878, Note_on_c, 0, 32, 33
1, 330889, Note_on_c, 0, 29, 26
1, 330889, Note_off_c, 0, 38, 58
1, 330900, Control_c, 0, 64, 88
1, 330915, Control_c, 0, 64, 89
1, 330930, Control_c, 0, 64, 89
1, 330940, Note_off_c, 0, 65, 29
1, 330945, Control_c, 0, 64, 90
1, 330959, Control_c, 0, 64, 91
1, 330974, Control_c, 0, 64, 93
1, 330989, Control_c, 0, 64, 95
1, 330990, Note_on_c, 0, 38, 42
1, 331004, Control_c, 0, 64, 98
1, 331006, Note_off_c, 0, 32, 0
1, 331013, Note_off_c, 0, 29, 0
1, 331018, Control_c, 0, 64, 103
1, 331023, Note_on_c, 0, 32, 33
1, 331033, Control_c, 0, 64, 109
1, 331035, Note_on_c, 0, 29, 23
1, 331035, Note_off_c, 0, 38, 57
1, 331048, Control_c, 0, 64, 115
1, 331063, Control_c, 0, 64, 122
1, 331077, Control_c, 0, 64, 127
1, 331101, Note_off_c, 0, 32, 54
1, 331122, Note_off_c, 0, 29, 39
1, 331146, Note_on_c, 0, 38, 42
1, 331175, Note_on_c, 0, 32, 42
1, 331186, Note_on_c, 0, 29, 31
1, 331192, Note_off_c, 0, 38, 57
1, 331259, Note_off_c, 0, 32, 54
1, 331266, Note_off_c, 0, 29, 48
1, 331300, Note_on_c, 0, 38, 44
1, 331341, Note_on_c, 0, 32, 41
1, 331352, Note_on_c, 0, 29, 35
1, 331363, Note_off_c, 0, 38, 58
1, 331389, Note_on_c, 0, 65, 76
1, 331396, Note_on_c, 0, 53, 65
1, 331441, Control_c, 0, 64, 90
1, 331452, Note_off_c, 0, 29, 0
1, 331455, Control_c, 0, 64, 79
1, 331456, Note_on_c, 0, 38, 39
1, 331466, Note_off_c, 0, 32, 0
1, 331470, Control_c, 0, 64, 75
1, 331485, Note_on_c, 0, 32, 25
1, 331485, Control_c, 0, 64, 74
1, 331489, Poly_aftertouch_c, 0, 29, 127
1, 331500, Control_c, 0, 64, 76
1, 331507, Note_on_c, 0, 29, 11
1, 331507, Note_off_c, 0, 38, 57
1, 331515, Control_c, 0, 64, 79
1, 331530, Control_c, 0, 64, 88
1, 331545, Control_c, 0, 64, 101
1, 331560, Control_c, 0, 64, 127
1, 331581, Note_off_c, 0, 29, 42
1, 331617, Note_on_c, 0, 38, 47
1, 331639, Note_off_c, 0, 32, 0
1, 331657, Note_on_c, 0, 32, 32
1, 331668, Note_off_c, 0, 38, 56
1, 331669, Note_on_c, 0, 29, 30
1, 331746, Note_off_c, 0, 53, 57
1, 331764, Note_on_c, 0, 38, 47
1, 331798, Note_off_c, 0, 65, 55
1, 331807, Note_off_c, 0, 29, 0
1, 331810, Note_off_c, 0, 32, 0
1, 331825, Note_on_c, 0, 29, 28
1, 331825, Note_on_c, 0, 32, 36
1, 331828, Note_off_c, 0, 38, 59
1, 331897, Note_off_c, 0, 29, 55
1, 331899, Note_off_c, 0, 32, 55
1, 331928, Note_on_c, 0, 38, 46
1, 331996, Note_on_c, 0, 65, 81
1, 332000, Note_on_c, 0, 32, 46
1, 332002, Note_on_c, 0, 53, 70
1, 332003, Note_on_c, 0, 29, 51
1, 332010, Note_off_c, 0, 38, 57
1, 332027, Control_c, 0, 64, 102
1, 332041, Control_c, 0, 64, 83
1, 332056, Control_c, 0, 64, 76
1, 332086, Control_c, 0, 64, 78
1, 332101, Control_c, 0, 64, 82
1, 332106, Note_on_c, 0, 38, 45
1, 332115, Control_c, 0, 64, 90
1, 332130, Control_c, 0, 64, 109
1, 332145, Control_c, 0, 64, 127
1, 332174, Note_off_c, 0, 32, 0
1, 332175, Note_off_c, 0, 29, 0
1, 332189, Note_on_c, 0, 32, 34
1, 332195, Note_on_c, 0, 29, 25
1, 332283, Note_off_c, 0, 65, 63
1, 332286, Note_off_c, 0, 53, 63
1, 332289, Note_off_c, 0, 38, 0
1, 332292, Note_off_c, 0, 32, 53
1, 332302, Note_on_c, 0, 38, 40
1, 332385, Note_on_c, 0, 32, 46
1, 332398, Note_off_c, 0, 29, 0
1, 332398, Note_on_c, 0, 29, 14
1, 332410, Note_off_c, 0, 38, 61
1, 332442, Control_c, 0, 64, 108
1, 332445, Note_on_c, 0, 66, 94
1, 332448, Note_on_c, 0, 54, 88
1, 332457, Control_c, 0, 64, 101
1, 332472, Control_c, 0, 64, 105
1, 332474, Note_off_c, 0, 32, 60
1, 332475, Note_on_c, 0, 38, 56
1, 332487, Control_c, 0, 64, 127
1, 332557, Note_off_c, 0, 29, 0
1, 332559, Note_on_c, 0, 32, 63
1, 332571, Note_on_c, 0, 29, 42
1, 332585, Note_off_c, 0, 38, 61
1, 332643, Note_off_c, 0, 32, 61
1, 332648, Note_on_c, 0, 38, 60
1, 332655, Note_off_c, 0, 29, 53
1, 332676, Note_off_c, 0, 54, 61
1, 332711, Note_on_c, 0, 32, 65
1, 332715, Note_off_c, 0, 66, 61
1, 332724, Note_on_c, 0, 29, 31
1, 332794, Note_off_c, 0, 32, 62
1, 332809, Note_on_c, 0, 68, 104
1, 332810, Note_on_c, 0, 56, 95
1, 332852, Note_on_c, 0, 32, 62
1, 332877, Note_off_c, 0, 38, 61
1, 332918, Note_off_c, 0, 56, 63
1, 332929, Note_off_c, 0, 32, 61
1, 332937, Note_on_c, 0, 38, 65
1, 332949, Note_off_c, 0, 68, 61
1, 332985, Note_on_c, 0, 32, 62
1, 333002, Note_off_c, 0, 38, 61
1, 333065, Note_on_c, 0, 38, 67
1, 333090, Note_off_c, 0, 29, 40
1, 333118, Note_off_c, 0, 32, 60
1, 333165, Note_on_c, 0, 30, 66
1, 333169, Note_on_c, 0, 34, 73
1, 333173, Note_off_c, 0, 38, 59
1, 333175, Note_on_c, 0, 70, 99
1, 333178, Note_on_c, 0, 58, 95
1, 333191, Control_c, 0, 64, 79
1, 333206, Control_c, 0, 64, 46
1, 333221, Control_c, 0, 64, 0
1, 333295, Control_c, 0, 64, 33
1, 333310, Control_c, 0, 64, 60
1, 333324, Control_c, 0, 64, 65
1, 333339, Control_c, 0, 64, 67
1, 333354, Control_c, 0, 64, 68
1, 333369, Control_c, 0, 64, 71
1, 333371, Note_off_c, 0, 30, 62
1, 333383, Note_on_c, 0, 39, 64
1, 333384, Control_c, 0, 64, 75
1, 333393, Note_off_c, 0, 34, 61
1, 333399, Control_c, 0, 64, 76
1, 333413, Control_c, 0, 64, 75
1, 333428, Control_c, 0, 64, 76
1, 333443, Control_c, 0, 64, 78
1, 333458, Control_c, 0, 64, 80
1, 333465, Note_on_c, 0, 34, 55
1, 333469, Note_on_c, 0, 30, 45
1, 333474, Note_off_c, 0, 39, 58
1, 333494, Control_c, 0, 64, 78
1, 333509, Control_c, 0, 64, 78
1, 333524, Control_c, 0, 64, 78
1, 333557, Note_off_c, 0, 34, 58
1, 333569, Control_c, 0, 64, 78
1, 333572, Note_on_c, 0, 39, 61
1, 333604, Note_off_c, 0, 30, 0
1, 333613, Control_c, 0, 64, 78
1, 333619, Note_on_c, 0, 34, 39
1, 333624, Note_on_c, 0, 30, 30
1, 333643, Note_off_c, 0, 39, 62
1, 333658, Control_c, 0, 64, 79
1, 333673, Control_c, 0, 64, 80
1, 333700, Note_off_c, 0, 34, 56
1, 333713, Note_on_c, 0, 39, 53
1, 333718, Note_off_c, 0, 30, 0
1, 333732, Control_c, 0, 64, 81
1, 333751, Note_on_c, 0, 30, 18
1, 333753, Note_on_c, 0, 34, 42
1, 333780, Note_off_c, 0, 39, 61
1, 333835, Note_off_c, 0, 34, 60
1, 333848, Note_on_c, 0, 39, 52
1, 333850, Control_c, 0, 64, 81
1, 333856, Note_off_c, 0, 30, 0
1, 333865, Control_c, 0, 64, 82
1, 333880, Control_c, 0, 64, 84
1, 333891, Note_on_c, 0, 34, 41
1, 333893, Poly_aftertouch_c, 0, 30, 127
1, 333909, Control_c, 0, 64, 84
1, 333917, Note_off_c, 0, 39, 62
1, 333925, Control_c, 0, 64, 86
1, 333940, Control_c, 0, 64, 89
1, 333955, Control_c, 0, 64, 89
1, 333975, Note_off_c, 0, 34, 61
1, 333990, Note_on_c, 0, 39, 55
1, 333999, Control_c, 0, 64, 90
1, 334014, Control_c, 0, 64, 93
1, 334021, Poly_aftertouch_c, 0, 30, 0
1, 334028, Control_c, 0, 64, 97
1, 334031, Note_off_c, 0, 58, 54
1, 334043, Control_c, 0, 64, 98
1, 334048, Note_on_c, 0, 34, 52
1, 334049, Note_on_c, 0, 30, 10
1, 334058, Control_c, 0, 64, 99
1, 334073, Control_c, 0, 64, 100
1, 334088, Control_c, 0, 64, 101
1, 334102, Control_c, 0, 64, 102
1, 334114, Note_off_c, 0, 39, 0
1, 334117, Control_c, 0, 64, 102
1, 334120, Note_off_c, 0, 34, 61
1, 334127, Note_on_c, 0, 39, 49
1, 334132, Control_c, 0, 64, 104
1, 334147, Control_c, 0, 64, 107
1, 334162, Control_c, 0, 64, 111
1, 334173, Note_off_c, 0, 30, 0
1, 334177, Control_c, 0, 64, 112
1, 334202, Note_on_c, 0, 34, 53
1, 334207, Control_c, 0, 64, 115
1, 334210, Poly_aftertouch_c, 0, 30, 127
1, 334211, Note_off_c, 0, 39, 59
1, 334222, Control_c, 0, 64, 125
1, 334243, Control_c, 0, 64, 127
1, 334279, Note_off_c, 0, 34, 59
1, 334287, Poly_aftertouch_c, 0, 30, 0
1, 334295, Note_on_c, 0, 39, 50
1, 334361, Note_on_c, 0, 34, 59
1, 334371, Note_off_c, 0, 39, 60
1, 334373, Note_on_c, 0, 30, 34
1, 334433, Note_on_c, 0, 39, 54
1, 334435, Note_off_c, 0, 30, 47
1, 334435, Note_off_c, 0, 34, 59
1, 334516, Note_off_c, 0, 70, 51
1, 334517, Note_on_c, 0, 34, 58
1, 334519, Note_off_c, 0, 39, 60
1, 334542, Note_on_c, 0, 30, 34
1, 334585, Note_off_c, 0, 34, 59
1, 334603, Note_on_c, 0, 39, 54
1, 334604, Note_off_c, 0, 30, 43
1, 334634, Note_on_c, 0, 68, 86
1, 334642, Note_on_c, 0, 56, 75
1, 334658, Control_c, 0, 64, 91
1, 334660, Note_on_c, 0, 34, 51
1, 334666, Note_on_c, 0, 30, 31
1, 334673, Control_c, 0, 64, 79
1, 334677, Note_off_c, 0, 39, 56
1, 334688, Control_c, 0, 64, 76
1, 334702, Control_c, 0, 64, 80
1, 334717, Control_c, 0, 64, 88
1, 334733, Control_c, 0, 64, 107
1, 334745, Note_off_c, 0, 34, 61
1, 334748, Note_off_c, 0, 30, 53
1, 334748, Control_c, 0, 64, 127
1, 334749, Note_on_c, 0, 39, 52
1, 334823, Note_on_c, 0, 30, 29
1, 334828, Note_on_c, 0, 34, 62
1, 334831, Note_off_c, 0, 39, 61
1, 334875, Note_off_c, 0, 56, 50
1, 334887, Note_off_c, 0, 68, 60
1, 334904, Note_off_c, 0, 34, 60
1, 334911, Note_on_c, 0, 39, 57
1, 334982, Note_off_c, 0, 30, 0
1, 334999, Note_on_c, 0, 34, 60
1, 335012, Note_on_c, 0, 30, 20
1, 335013, Note_off_c, 0, 39, 59
1, 335033, Note_on_c, 0, 66, 89
1, 335041, Note_on_c, 0, 54, 86
1, 335052, Control_c, 0, 64, 104
1, 335066, Control_c, 0, 64, 82
1, 335081, Control_c, 0, 64, 78
1, 335091, Note_off_c, 0, 34, 59
1, 335096, Control_c, 0, 64, 82
1, 335098, Note_on_c, 0, 39, 51
1, 335111, Control_c, 0, 64, 97
1, 335126, Control_c, 0, 64, 127
1, 335176, Note_on_c, 0, 34, 56
1, 335200, Note_off_c, 0, 39, 58
1, 335261, Note_off_c, 0, 34, 62
1, 335263, Note_on_c, 0, 39, 51
1, 335289, Note_off_c, 0, 30, 39
1, 335306, Note_off_c, 0, 66, 63
1, 335313, Note_off_c, 0, 54, 63
1, 335351, Note_on_c, 0, 34, 66
1, 335355, Note_off_c, 0, 39, 61
1, 335360, Note_on_c, 0, 65, 92
1, 335363, Note_on_c, 0, 53, 92
1, 335366, Note_on_c, 0, 30, 58
1, 335378, Control_c, 0, 64, 87
1, 335393, Control_c, 0, 64, 76
1, 335407, Control_c, 0, 64, 74
1, 335422, Control_c, 0, 64, 79
1, 335426, Note_off_c, 0, 34, 61
1, 335430, Note_off_c, 0, 30, 55
1, 335435, Note_on_c, 0, 39, 58
1, 335437, Control_c, 0, 64, 100
1, 335451, Control_c, 0, 64, 127
1, 335498, Note_on_c, 0, 30, 35
1, 335505, Note_on_c, 0, 34, 67
1, 335527, Note_off_c, 0, 39, 57
1, 335541, Note_off_c, 0, 53, 63
1, 335567, Note_off_c, 0, 65, 59
1, 335573, Note_on_c, 0, 39, 46
1, 335575, Note_off_c, 0, 30, 57
1, 335583, Note_off_c, 0, 34, 62
1, 335656, Note_on_c, 0, 34, 61
1, 335670, Note_on_c, 0, 30, 51
1, 335681, Note_off_c, 0, 39, 59
1, 335697, Note_on_c, 0, 63, 100
1, 335699, Note_on_c, 0, 51, 96
1, 335704, Control_c, 0, 64, 113
1, 335727, Control_c, 0, 64, 76
1, 335742, Control_c, 0, 64, 65
1, 335745, Note_on_c, 0, 39, 59
1, 335751, Note_off_c, 0, 34, 60
1, 335756, Control_c, 0, 64, 60
1, 335771, Control_c, 0, 64, 61
1, 335785, Note_off_c, 0, 30, 0
1, 335786, Control_c, 0, 64, 65
1, 335801, Control_c, 0, 64, 74
1, 335803, Note_on_c, 0, 30, 37
1, 335816, Note_on_c, 0, 34, 59
1, 335816, Control_c, 0, 64, 110
1, 335830, Control_c, 0, 64, 127
1, 335834, Note_off_c, 0, 39, 61
1, 335893, Note_on_c, 0, 39, 59
1, 335919, Note_off_c, 0, 30, 0
1, 335932, Note_off_c, 0, 34, 0
1, 335952, Note_on_c, 0, 34, 40
1, 335956, Poly_aftertouch_c, 0, 30, 127
1, 335957, Note_on_c, 0, 30, 14
1, 335977, Note_off_c, 0, 39, 62
1, 336034, Note_off_c, 0, 30, 49
1, 336037, Note_off_c, 0, 34, 60
1, 336046, Note_on_c, 0, 39, 55
1, 336106, Note_on_c, 0, 34, 55
1, 336115, Note_on_c, 0, 30, 43
1, 336130, Note_off_c, 0, 39, 60
1, 336185, Note_off_c, 0, 63, 57
1, 336189, Note_on_c, 0, 39, 60
1, 336189, Note_off_c, 0, 34, 56
1, 336266, Note_on_c, 0, 34, 61
1, 336281, Note_off_c, 0, 51, 57
1, 336287, Note_off_c, 0, 39, 59
1, 336340, Note_on_c, 0, 50, 98
1, 336341, Note_on_c, 0, 62, 90
1, 336343, Note_off_c, 0, 34, 61
1, 336346, Note_on_c, 0, 39, 70
1, 336349, Control_c, 0, 64, 115
1, 336351, Note_off_c, 0, 30, 0
1, 336351, Note_on_c, 0, 30, 25
1, 336364, Control_c, 0, 64, 74
1, 336369, Poly_aftertouch_c, 0, 34, 0
1, 336378, Control_c, 0, 64, 63
1, 336386, Note_on_c, 0, 34, 46
1, 336393, Control_c, 0, 64, 59
1, 336408, Control_c, 0, 64, 62
1, 336421, Note_off_c, 0, 39, 62
1, 336423, Control_c, 0, 64, 66
1, 336438, Control_c, 0, 64, 76
1, 336452, Control_c, 0, 64, 112
1, 336460, Note_on_c, 0, 39, 61
1, 336467, Control_c, 0, 64, 127
1, 336499, Note_off_c, 0, 34, 0
1, 336522, Note_on_c, 0, 34, 45
1, 336553, Note_off_c, 0, 39, 61
1, 336599, Note_off_c, 0, 30, 0
1, 336606, Note_on_c, 0, 39, 64
1, 336609, Note_off_c, 0, 34, 60
1, 336636, Poly_aftertouch_c, 0, 30, 127
1, 336645, Note_on_c, 0, 30, 22
1, 336664, Note_on_c, 0, 34, 56
1, 336685, Note_off_c, 0, 39, 61
1, 336745, Note_on_c, 0, 39, 64
1, 336747, Note_off_c, 0, 34, 60
1, 336755, Note_off_c, 0, 50, 61
1, 336758, Note_off_c, 0, 62, 58
1, 336791, Note_off_c, 0, 30, 0
1, 336791, Note_on_c, 0, 30, 31
1, 336803, Note_on_c, 0, 34, 62
1, 336829, Note_off_c, 0, 39, 61
1, 336881, Note_on_c, 0, 39, 59
1, 336921, Note_off_c, 0, 34, 0
1, 336926, Note_off_c, 0, 30, 0
1, 336947, Note_on_c, 0, 30, 43
1, 336950, Note_on_c, 0, 34, 44
1, 336967, Note_on_c, 0, 49, 99
1, 336970, Note_on_c, 0, 61, 95
1, 336970, Note_off_c, 0, 39, 62
1, 337007, Control_c, 0, 64, 80
1, 337021, Control_c, 0, 64, 63
1, 337036, Control_c, 0, 64, 58
1, 337045, Note_on_c, 0, 39, 68
1, 337047, Note_off_c, 0, 34, 62
1, 337051, Control_c, 0, 64, 61
1, 337066, Control_c, 0, 64, 66
1, 337080, Note_off_c, 0, 30, 0
1, 337081, Control_c, 0, 64, 78
1, 337095, Control_c, 0, 64, 127
1, 337099, Note_on_c, 0, 30, 39
1, 337107, Note_on_c, 0, 34, 64
1, 337131, Note_off_c, 0, 39, 63
1, 337176, Note_off_c, 0, 30, 59
1, 337186, Note_on_c, 0, 39, 61
1, 337191, Note_off_c, 0, 34, 60
1, 337259, Note_on_c, 0, 30, 57
1, 337262, Note_on_c, 0, 34, 65
1, 337278, Note_off_c, 0, 39, 61
1, 337322, Note_off_c, 0, 30, 60
1, 337335, Note_off_c, 0, 34, 61
1, 337338, Note_on_c, 0, 39, 64
1, 337393, Note_on_c, 0, 30, 59
1, 337397, Note_on_c, 0, 34, 65
1, 337418, Note_off_c, 0, 39, 62
1, 337471, Note_on_c, 0, 39, 65
1, 337482, Note_off_c, 0, 34, 61
1, 337510, Note_off_c, 0, 30, 0
1, 337510, Note_on_c, 0, 30, 25
1, 337511, Poly_aftertouch_c, 0, 59, 0
1, 337539, Note_on_c, 0, 34, 63
1, 337548, Note_off_c, 0, 61, 64
1, 337568, Note_off_c, 0, 39, 64
1, 337590, Note_off_c, 0, 49, 59
1, 337595, Note_off_c, 0, 30, 60
1, 337604, Note_off_c, 0, 34, 62
1, 337623, Note_on_c, 0, 60, 99
1, 337624, Note_on_c, 0, 48, 105
1, 337628, Note_on_c, 0, 39, 76
1, 337638, Control_c, 0, 64, 100
1, 337645, Note_on_c, 0, 30, 70
1, 337647, Note_on_c, 0, 34, 68
1, 337652, Control_c, 0, 64, 72
1, 337667, Control_c, 0, 64, 56
1, 337682, Control_c, 0, 64, 48
1, 337689, Note_off_c, 0, 39, 62
1, 337697, Control_c, 0, 64, 52
1, 337712, Control_c, 0, 64, 62
1, 337726, Control_c, 0, 64, 71
1, 337741, Control_c, 0, 64, 92
1, 337745, Note_on_c, 0, 39, 77
1, 337756, Control_c, 0, 64, 127
1, 337764, Note_off_c, 0, 30, 0
1, 337785, Note_on_c, 0, 30, 35
1, 337788, Note_off_c, 0, 34, 0
1, 337804, Note_on_c, 0, 34, 49
1, 337832, Note_off_c, 0, 39, 61
1, 337873, Note_off_c, 0, 30, 60
1, 337876, Note_on_c, 0, 39, 66
1, 337878, Note_off_c, 0, 34, 62
1, 337947, Note_on_c, 0, 34, 70
1, 337949, Note_on_c, 0, 30, 60
1, 337956, Note_off_c, 0, 39, 62
1, 338011, Note_off_c, 0, 30, 63
1, 338019, Note_off_c, 0, 34, 62
1, 338020, Note_on_c, 0, 39, 66
1, 338020, Note_off_c, 0, 60, 57
1, 338088, Note_on_c, 0, 30, 63
1, 338095, Note_on_c, 0, 34, 69
1, 338098, Note_off_c, 0, 39, 60
1, 338123, Note_off_c, 0, 48, 59
1, 338194, Note_on_c, 0, 39, 77
1, 338230, Note_off_c, 0, 34, 57
1, 338243, Note_off_c, 0, 30, 61
1, 338279, Note_off_c, 0, 39, 63
1, 338323, Poly_aftertouch_c, 0, 39, 0
1, 338326, Note_on_c, 0, 32, 82
1, 338329, Note_on_c, 0, 47, 103
1, 338329, Note_on_c, 0, 59, 93
1, 338331, Note_on_c, 0, 39, 75
1, 338343, Control_c, 0, 64, 76
1, 338357, Control_c, 0, 64, 53
1, 338372, Control_c, 0, 64, 0
1, 338446, Control_c, 0, 64, 54
1, 338461, Control_c, 0, 64, 68
1, 338475, Control_c, 0, 64, 77
1, 338490, Control_c, 0, 64, 82
1, 338520, Control_c, 0, 64, 83
1, 338527, Note_off_c, 0, 32, 61
1, 338535, Control_c, 0, 64, 84
1, 338541, Note_off_c, 0, 39, 62
1, 338542, Note_on_c, 0, 42, 64
1, 338565, Control_c, 0, 64, 84
1, 338580, Control_c, 0, 64, 82
1, 338595, Control_c, 0, 64, 81
1, 338610, Control_c, 0, 64, 80
1, 338625, Note_on_c, 0, 32, 70
1, 338628, Note_on_c, 0, 39, 68
1, 338635, Note_off_c, 0, 42, 64
1, 338668, Control_c, 0, 64, 80
1, 338678, Note_off_c, 0, 32, 64
1, 338683, Control_c, 0, 64, 79
1, 338695, Note_off_c, 0, 39, 59
1, 338698, Control_c, 0, 64, 78
1, 338712, Note_on_c, 0, 42, 69
1, 338713, Control_c, 0, 64, 79
1, 338736, Control_c, 0, 64, 80
1, 338751, Control_c, 0, 64, 80
1, 338762, Note_on_c, 0, 32, 66
1, 338771, Note_on_c, 0, 39, 52
1, 338780, Control_c, 0, 64, 80
1, 338785, Note_off_c, 0, 42, 62
1, 338795, Control_c, 0, 64, 79
1, 338814, Note_off_c, 0, 32, 63
1, 338824, Note_off_c, 0, 39, 60
1, 338852, Note_on_c, 0, 42, 65
1, 338879, Note_on_c, 0, 32, 64
1, 338882, Note_on_c, 0, 39, 64
1, 338884, Control_c, 0, 64, 80
1, 338910, Note_off_c, 0, 42, 62
1, 338926, Note_off_c, 0, 32, 63
1, 338962, Note_on_c, 0, 42, 65
1, 338970, Note_off_c, 0, 39, 0
1, 338989, Note_on_c, 0, 39, 44
1, 338994, Note_on_c, 0, 32, 67
1, 339003, Control_c, 0, 64, 80
1, 339021, Note_off_c, 0, 42, 61
1, 339036, Note_off_c, 0, 32, 63
1, 339047, Control_c, 0, 64, 81
1, 339063, Note_off_c, 0, 39, 62
1, 339075, Note_on_c, 0, 42, 54
1, 339110, Note_on_c, 0, 32, 69
1, 339119, Note_on_c, 0, 39, 66
1, 339143, Note_off_c, 0, 42, 63
1, 339159, Note_off_c, 0, 32, 63
1, 339166, Control_c, 0, 64, 81
1, 339182, Note_off_c, 0, 39, 61
1, 339193, Note_on_c, 0, 42, 59
1, 339242, Note_on_c, 0, 32, 62
1, 339249, Note_on_c, 0, 39, 62
1, 339261, Note_off_c, 0, 42, 59
1, 339269, Control_c, 0, 64, 82
1, 339284, Control_c, 0, 64, 82
1, 339301, Note_off_c, 0, 32, 48
1, 339304, Note_off_c, 0, 39, 61
1, 339316, Note_on_c, 0, 42, 63
1, 339368, Note_on_c, 0, 32, 48
1, 339394, Note_off_c, 0, 42, 62
1, 339402, Note_on_c, 0, 39, 68
1, 339462, Control_c, 0, 64, 83
1, 339484, Note_on_c, 0, 42, 64
1, 339484, Control_c, 0, 64, 83
1, 339498, Control_c, 0, 64, 84
1, 339513, Control_c, 0, 64, 89
1, 339523, Note_off_c, 0, 32, 57
1, 339529, Control_c, 0, 64, 103
1, 339544, Control_c, 0, 64, 127
1, 339562, Note_off_c, 0, 39, 0
1, 339586, Note_on_c, 0, 33, 88
1, 339591, Note_on_c, 0, 39, 27
1, 339605, Note_off_c, 0, 42, 60
1, 339618, Control_c, 0, 64, 92
1, 339633, Control_c, 0, 64, 64
1, 339648, Control_c, 0, 64, 41
1, 339663, Control_c, 0, 64, 16
1, 339677, Control_c, 0, 64, 13
1, 339692, Control_c, 0, 64, 30
1, 339707, Control_c, 0, 64, 52
1, 339716, Note_on_c, 0, 42, 46
1, 339721, Control_c, 0, 64, 62
1, 339736, Control_c, 0, 64, 67
1, 339750, Note_off_c, 0, 33, 62
1, 339751, Control_c, 0, 64, 71
1, 339766, Note_off_c, 0, 39, 55
1, 339766, Control_c, 0, 64, 75
1, 339781, Control_c, 0, 64, 76
1, 339796, Control_c, 0, 64, 76
1, 339811, Control_c, 0, 64, 77
1, 339822, Note_on_c, 0, 33, 71
1, 339836, Note_off_c, 0, 42, 63
1, 339841, Control_c, 0, 64, 76
1, 339863, Note_on_c, 0, 39, 27
1, 339906, Note_off_c, 0, 39, 51
1, 339907, Note_off_c, 0, 33, 57
1, 339910, Note_on_c, 0, 42, 72
1, 339972, Note_on_c, 0, 33, 50
1, 339981, Note_off_c, 0, 42, 63
1, 339987, Note_on_c, 0, 39, 60
1, 340003, Control_c, 0, 64, 76
1, 340038, Note_off_c, 0, 33, 59
1, 340043, Note_off_c, 0, 39, 47
1, 340047, Note_on_c, 0, 42, 74
1, 340047, Control_c, 0, 64, 75
1, 340062, Control_c, 0, 64, 75
1, 340092, Control_c, 0, 64, 75
1, 340118, Note_off_c, 0, 42, 63
1, 340124, Note_on_c, 0, 33, 58
1, 340127, Note_on_c, 0, 39, 71
1, 340136, Control_c, 0, 64, 76
1, 340168, Note_off_c, 0, 33, 58
1, 340187, Note_on_c, 0, 42, 70
1, 340193, Note_off_c, 0, 39, 61
1, 340195, Control_c, 0, 64, 76
1, 340210, Control_c, 0, 64, 77
1, 340233, Control_c, 0, 64, 77
1, 340247, Control_c, 0, 64, 78
1, 340262, Control_c, 0, 64, 78
1, 340270, Note_on_c, 0, 33, 56
1, 340273, Note_on_c, 0, 39, 57
1, 340277, Control_c, 0, 64, 79
1, 340282, Note_off_c, 0, 47, 53
1, 340289, Note_off_c, 0, 42, 50
1, 340292, Control_c, 0, 64, 79
1, 340307, Control_c, 0, 64, 80
1, 340312, Note_off_c, 0, 33, 57
1, 340323, Control_c, 0, 64, 81
1, 340338, Control_c, 0, 64, 82
1, 340342, Note_off_c, 0, 39, 61
1, 340345, Note_off_c, 0, 59, 42
1, 340349, Note_on_c, 0, 42, 58
1, 340367, Control_c, 0, 64, 83
1, 340382, Control_c, 0, 64, 84
1, 340397, Control_c, 0, 64, 87
1, 340401, Note_on_c, 0, 33, 34
1, 340412, Control_c, 0, 64, 92
1, 340426, Control_c, 0, 64, 97
1, 340428, Note_on_c, 0, 39, 67
1, 340441, Control_c, 0, 64, 102
1, 340446, Note_off_c, 0, 42, 57
1, 340456, Control_c, 0, 64, 107
1, 340470, Control_c, 0, 64, 112
1, 340485, Note_off_c, 0, 39, 62
1, 340485, Control_c, 0, 64, 119
1, 340500, Control_c, 0, 64, 127
1, 340510, Note_on_c, 0, 42, 57
1, 340578, Note_on_c, 0, 39, 66
1, 340595, Note_off_c, 0, 42, 58
1, 340677, Note_on_c, 0, 59, 90
1, 340681, Note_on_c, 0, 47, 90
1, 340685, Note_on_c, 0, 42, 65
1, 340775, Note_off_c, 0, 47, 62
1, 340791, Note_off_c, 0, 33, 60
1, 340830, Note_off_c, 0, 39, 57
1, 340830, Note_off_c, 0, 42, 59
1, 340884, Note_on_c, 0, 34, 63
1, 340892, Note_on_c, 0, 38, 49
1, 340915, Control_c, 0, 64, 75
1, 340916, Note_on_c, 0, 58, 87
1, 340930, Note_on_c, 0, 46, 73
1, 340930, Control_c, 0, 64, 53
1, 340944, Note_off_c, 0, 59, 61
1, 340944, Control_c, 0, 64, 0
1, 341026, Control_c, 0, 64, 47
1, 341041, Control_c, 0, 64, 56
1, 341056, Control_c, 0, 64, 59
1, 341070, Control_c, 0, 64, 62
1, 341085, Control_c, 0, 64, 64
1, 341099, Note_on_c, 0, 41, 48
1, 341100, Control_c, 0, 64, 66
1, 341111, Note_off_c, 0, 38, 52
1, 341115, Control_c, 0, 64, 68
1, 341131, Control_c, 0, 64, 71
1, 341146, Control_c, 0, 64, 74
1, 341161, Control_c, 0, 64, 80
1, 341175, Control_c, 0, 64, 89
1, 341179, Note_off_c, 0, 41, 56
1, 341190, Control_c, 0, 64, 103
1, 341205, Control_c, 0, 64, 127
1, 341230, Note_on_c, 0, 38, 33
1, 341260, Note_off_c, 0, 58, 66
1, 341309, Note_off_c, 0, 38, 56
1, 341317, Note_off_c, 0, 46, 63
1, 341336, Note_on_c, 0, 41, 39
1, 341375, Note_off_c, 0, 34, 60
1, 341430, Note_off_c, 0, 41, 60
1, 341453, Note_on_c, 0, 38, 42
1, 341504, Note_off_c, 0, 38, 57
1, 341551, Note_on_c, 0, 41, 37
1, 341605, Note_off_c, 0, 41, 60
1, 341612, Note_on_c, 0, 35, 89
1, 341620, Note_on_c, 0, 38, 52
1, 341634, Control_c, 0, 64, 120
1, 341648, Control_c, 0, 64, 81
1, 341663, Control_c, 0, 64, 67
1, 341678, Note_off_c, 0, 38, 58
1, 341678, Control_c, 0, 64, 60
1, 341692, Control_c, 0, 64, 59
1, 341707, Control_c, 0, 64, 61
1, 341710, Note_on_c, 0, 41, 50
1, 341730, Control_c, 0, 64, 65
1, 341745, Control_c, 0, 64, 69
1, 341760, Control_c, 0, 64, 76
1, 341774, Control_c, 0, 64, 88
1, 341782, Note_off_c, 0, 41, 60
1, 341789, Control_c, 0, 64, 100
1, 341804, Note_on_c, 0, 38, 47
1, 341804, Control_c, 0, 64, 117
1, 341819, Control_c, 0, 64, 127
1, 341861, Note_off_c, 0, 38, 59
1, 341899, Note_on_c, 0, 41, 50
1, 341957, Note_off_c, 0, 41, 58
1, 341975, Note_on_c, 0, 38, 49
1, 342027, Note_off_c, 0, 38, 58
1, 342067, Note_on_c, 0, 41, 51
1, 342148, Note_off_c, 0, 41, 61
1, 342151, Note_on_c, 0, 38, 49
1, 342227, Note_off_c, 0, 35, 54
1, 342234, Note_off_c, 0, 38, 60
1, 342258, Note_on_c, 0, 41, 62
1, 342327, Note_on_c, 0, 34, 99
1, 342333, Note_on_c, 0, 38, 70
1, 342333, Note_off_c, 0, 41, 61
1, 342369, Control_c, 0, 64, 90
1, 342383, Control_c, 0, 64, 70
1, 342398, Control_c, 0, 64, 61
1, 342411, Note_off_c, 0, 38, 62
1, 342413, Control_c, 0, 64, 56
1, 342422, Note_on_c, 0, 41, 66
1, 342428, Control_c, 0, 64, 58
1, 342443, Control_c, 0, 64, 64
1, 342458, Control_c, 0, 64, 71
1, 342479, Control_c, 0, 64, 87
1, 342494, Control_c, 0, 64, 127
1, 342511, Note_off_c, 0, 41, 62
1, 342514, Note_on_c, 0, 38, 61
1, 342592, Note_off_c, 0, 38, 62
1, 342606, Note_on_c, 0, 41, 70
1, 342683, Note_off_c, 0, 41, 62
1, 342687, Note_on_c, 0, 38, 67
1, 342758, Note_off_c, 0, 38, 61
1, 342768, Note_on_c, 0, 41, 75
1, 342842, Note_on_c, 0, 38, 70
1, 342854, Note_off_c, 0, 41, 64
1, 342922, Note_on_c, 0, 41, 75
1, 342923, Note_off_c, 0, 38, 61
1, 343020, Note_on_c, 0, 38, 74
1, 343023, Note_off_c, 0, 41, 64
1, 343030, Note_off_c, 0, 34, 59
1, 343088, Note_off_c, 0, 38, 59
1, 343098, Note_on_c, 0, 32, 93
1, 343099, Note_on_c, 0, 41, 82
1, 343102, Control_c, 0, 64, 85
1, 343117, Control_c, 0, 64, 62
1, 343132, Control_c, 0, 64, 31
1, 343147, Control_c, 0, 64, 0
1, 343167, Note_on_c, 0, 38, 67
1, 343182, Note_off_c, 0, 41, 64
1, 343191, Control_c, 0, 64, 52
1, 343206, Control_c, 0, 64, 64
1, 343228, Control_c, 0, 64, 70
1, 343243, Control_c, 0, 64, 78
1, 343250, Note_off_c, 0, 38, 62
1, 343252, Note_on_c, 0, 41, 71
1, 343258, Control_c, 0, 64, 96
1, 343272, Control_c, 0, 64, 127
1, 343322, Note_on_c, 0, 38, 72
1, 343334, Note_off_c, 0, 41, 63
1, 343399, Note_off_c, 0, 38, 61
1, 343400, Note_on_c, 0, 41, 74
1, 343460, Note_on_c, 0, 38, 70
1, 343477, Note_off_c, 0, 41, 63
1, 343511, Note_off_c, 0, 32, 58
1, 343535, Note_on_c, 0, 41, 77
1, 343537, Note_off_c, 0, 38, 62
1, 343609, Note_on_c, 0, 38, 72
1, 343623, Note_off_c, 0, 41, 64
1, 343674, Note_off_c, 0, 38, 60
1, 343681, Note_on_c, 0, 41, 74
1, 343726, Note_on_c, 0, 38, 60
1, 343738, Note_off_c, 0, 41, 66
1, 343794, Note_on_c, 0, 41, 78
1, 343808, Note_off_c, 0, 38, 61
1, 343865, Note_off_c, 0, 41, 59
1, 343903, Note_on_c, 0, 31, 80
1, 344003, Note_on_c, 0, 37, 75
1, 344007, Control_c, 0, 64, 84
1, 344022, Control_c, 0, 64, 57
1, 344037, Control_c, 0, 64, 0
1, 344106, Note_on_c, 0, 40, 102
1, 344184, Control_c, 0, 64, 39
1, 344199, Control_c, 0, 64, 62
1, 344209, Note_off_c, 0, 31, 64
1, 344214, Control_c, 0, 64, 72
1, 344229, Control_c, 0, 64, 98
1, 344235, Note_off_c, 0, 40, 65
1, 344240, Note_off_c, 0, 37, 61
1, 344244, Control_c, 0, 64, 127
1, 344909, Note_on_c, 0, 52, 61
1, 344915, Note_on_c, 0, 58, 63
1, 344918, Note_on_c, 0, 82, 101
1, 344922, Note_on_c, 0, 70, 97
1, 345048, Note_off_c, 0, 58, 57
1, 345060, Note_on_c, 0, 61, 66
1, 345139, Note_off_c, 0, 52, 0
1, 345153, Note_on_c, 0, 58, 54
1, 345155, Note_on_c, 0, 52, 37
1, 345160, Note_off_c, 0, 61, 57
1, 345230, Note_on_c, 0, 61, 46
1, 345230, Note_off_c, 0, 58, 60
1, 345235, Note_off_c, 0, 52, 41
1, 345302, Note_on_c, 0, 58, 56
1, 345302, Note_off_c, 0, 61, 61
1, 345320, Note_on_c, 0, 52, 39
1, 345351, Note_off_c, 0, 52, 54
1, 345364, Note_off_c, 0, 58, 62
1, 345380, Note_on_c, 0, 61, 65
1, 345428, Note_on_c, 0, 58, 68
1, 345436, Note_off_c, 0, 61, 63
1, 345444, Note_on_c, 0, 52, 59
1, 345486, Note_off_c, 0, 52, 62
1, 345501, Note_off_c, 0, 58, 64
1, 345504, Note_on_c, 0, 61, 69
1, 345550, Note_on_c, 0, 58, 73
1, 345555, Poly_aftertouch_c, 0, 52, 0
1, 345570, Note_off_c, 0, 61, 62
1, 345586, Poly_aftertouch_c, 0, 52, 0
1, 345615, Note_off_c, 0, 58, 63
1, 345627, Note_on_c, 0, 61, 73
1, 345659, Note_on_c, 0, 52, 72
1, 345667, Note_on_c, 0, 58, 73
1, 345689, Note_off_c, 0, 61, 62
1, 345728, Note_off_c, 0, 52, 0
1, 345738, Note_off_c, 0, 58, 63
1, 345740, Note_on_c, 0, 61, 72
1, 345766, Poly_aftertouch_c, 0, 52, 127
1, 345770, Note_on_c, 0, 52, 18
1, 345785, Note_on_c, 0, 58, 74
1, 345811, Note_off_c, 0, 61, 63
1, 345853, Note_off_c, 0, 52, 62
1, 345858, Note_off_c, 0, 58, 64
1, 345859, Note_on_c, 0, 61, 78
1, 345895, Note_on_c, 0, 58, 65
1, 345905, Note_on_c, 0, 52, 21
1, 345921, Note_off_c, 0, 61, 63
1, 345960, Note_off_c, 0, 58, 65
1, 345962, Note_on_c, 0, 61, 78
1, 345969, Note_off_c, 0, 52, 0
1, 345969, Note_on_c, 0, 52, 24
1, 346016, Note_on_c, 0, 58, 81
1, 346016, Note_off_c, 0, 61, 64
1, 346086, Note_on_c, 0, 61, 86
1, 346107, Note_off_c, 0, 58, 53
1, 346130, Note_off_c, 0, 70, 50
1, 346132, Note_off_c, 0, 52, 62
1, 346140, Note_off_c, 0, 82, 51
1, 346159, Note_off_c, 0, 61, 58
1, 346276, Note_on_c, 0, 83, 104
1, 346280, Note_on_c, 0, 71, 104
1, 346386, Poly_aftertouch_c, 0, 81, 0
1, 346434, Note_off_c, 0, 71, 59
1, 346574, Note_off_c, 0, 83, 61
1, 346613, Note_on_c, 0, 85, 102
1, 346619, Note_on_c, 0, 73, 92
1, 346883, Note_off_c, 0, 73, 59
1, 346908, Note_on_c, 0, 32, 52
1, 346992, Note_off_c, 0, 32, 62
1, 347002, Note_on_c, 0, 39, 40
1, 347057, Note_on_c, 0, 87, 98
1, 347061, Note_on_c, 0, 75, 93
1, 347064, Note_on_c, 0, 47, 68
1, 347090, Control_c, 0, 64, 101
1, 347105, Control_c, 0, 64, 65
1, 347120, Control_c, 0, 64, 0
1, 347137, Note_off_c, 0, 85, 58
1, 347267, Control_c, 0, 64, 22
1, 347282, Control_c, 0, 64, 48
1, 347297, Control_c, 0, 64, 56
1, 347311, Control_c, 0, 64, 62
1, 347326, Control_c, 0, 64, 68
1, 347341, Control_c, 0, 64, 80
1, 347356, Control_c, 0, 64, 127
1, 347375, Note_off_c, 0, 39, 61
1, 347392, Note_off_c, 0, 47, 60
1, 347693, Note_on_c, 0, 56, 41
1, 347712, Note_on_c, 0, 51, 44
1, 347768, Note_off_c, 0, 51, 58
1, 347788, Note_off_c, 0, 56, 57
1, 347813, Note_on_c, 0, 59, 38
1, 347903, Note_off_c, 0, 59, 58
1, 347904, Note_on_c, 0, 51, 39
1, 347907, Note_on_c, 0, 56, 50
1, 347952, Note_off_c, 0, 51, 55
1, 347956, Note_off_c, 0, 56, 61
1, 347971, Note_on_c, 0, 59, 42
1, 348043, Note_off_c, 0, 75, 52
1, 348050, Note_off_c, 0, 59, 59
1, 348055, Note_on_c, 0, 56, 59
1, 348062, Note_on_c, 0, 51, 27
1, 348100, Note_off_c, 0, 56, 59
1, 348113, Note_off_c, 0, 51, 44
1, 348135, Note_on_c, 0, 59, 45
1, 348184, Note_off_c, 0, 59, 60
1, 348188, Note_on_c, 0, 51, 27
1, 348208, Note_on_c, 0, 56, 52
1, 348245, Note_off_c, 0, 51, 54
1, 348256, Note_off_c, 0, 56, 60
1, 348281, Note_on_c, 0, 59, 52
1, 348340, Note_off_c, 0, 59, 53
1, 348356, Note_on_c, 0, 56, 59
1, 348370, Note_on_c, 0, 51, 27
1, 348411, Note_off_c, 0, 56, 58
1, 348444, Note_on_c, 0, 59, 59
1, 348449, Note_off_c, 0, 87, 56
1, 348465, Note_off_c, 0, 51, 0
1, 348494, Note_off_c, 0, 59, 62
1, 348503, Poly_aftertouch_c, 0, 51, 127
1, 348525, Note_on_c, 0, 56, 49
1, 348576, Note_on_c, 0, 85, 67
1, 348578, Note_off_c, 0, 56, 54
1, 348587, Poly_aftertouch_c, 0, 51, 0
1, 348590, Note_on_c, 0, 73, 49
1, 348597, Note_on_c, 0, 59, 45
1, 348735, Note_off_c, 0, 85, 65
1, 348745, Note_off_c, 0, 73, 64
1, 348846, Note_on_c, 0, 83, 72
1, 348861, Note_on_c, 0, 71, 50
1, 348863, Note_on_c, 0, 84, 47
1, 348864, Note_off_c, 0, 84, 127
1, 348944, Note_off_c, 0, 71, 0
1, 348981, Poly_aftertouch_c, 0, 71, 127
1, 348995, Note_off_c, 0, 83, 63
1, 349010, Poly_aftertouch_c, 0, 71, 0
1, 349053, Note_on_c, 0, 83, 80
1, 349070, Note_off_c, 0, 59, 57
1, 349081, Note_on_c, 0, 71, 68
1, 349116, Note_off_c, 0, 71, 61
1, 349241, Note_on_c, 0, 82, 92
1, 349259, Note_on_c, 0, 70, 72
1, 349325, Note_off_c, 0, 70, 63
1, 349346, Note_off_c, 0, 83, 57
1, 349398, Note_on_c, 0, 80, 88
1, 349412, Note_on_c, 0, 68, 80
1, 349445, Note_off_c, 0, 82, 63
1, 349514, Note_on_c, 0, 32, 56
1, 349522, Note_off_c, 0, 68, 60
1, 349565, Note_off_c, 0, 80, 64
1, 349575, Note_on_c, 0, 40, 52
1, 349602, Note_off_c, 0, 32, 61
1, 349614, Note_on_c, 0, 68, 85
1, 349746, Note_on_c, 0, 47, 55
1, 349796, Control_c, 0, 64, 99
1, 349811, Control_c, 0, 64, 71
1, 349820, Note_on_c, 0, 80, 90
1, 349826, Control_c, 0, 64, 54
1, 349841, Control_c, 0, 64, 0
1, 349982, Control_c, 0, 64, 45
1, 349997, Control_c, 0, 64, 61
1, 350012, Control_c, 0, 64, 64
1, 350026, Control_c, 0, 64, 68
1, 350041, Control_c, 0, 64, 76
1, 350056, Control_c, 0, 64, 127
1, 350067, Note_off_c, 0, 40, 61
1, 350123, Note_off_c, 0, 47, 62
1, 350438, Note_on_c, 0, 52, 36
1, 350446, Note_on_c, 0, 56, 34
1, 350503, Note_off_c, 0, 56, 61
1, 350520, Note_off_c, 0, 52, 62
1, 350550, Note_on_c, 0, 59, 37
1, 350627, Note_off_c, 0, 68, 37
1, 350635, Note_off_c, 0, 59, 61
1, 350638, Note_on_c, 0, 56, 43
1, 350671, Note_on_c, 0, 52, 33
1, 350693, Note_off_c, 0, 56, 58
1, 350711, Note_off_c, 0, 52, 54
1, 350738, Note_on_c, 0, 59, 32
1, 350809, Note_off_c, 0, 59, 55
1, 350837, Note_on_c, 0, 56, 44
1, 350868, Note_on_c, 0, 78, 62
1, 350885, Note_on_c, 0, 66, 44
1, 350888, Note_off_c, 0, 56, 57
1, 350890, Note_off_c, 0, 80, 58
1, 350901, Poly_aftertouch_c, 0, 52, 127
1, 350930, Note_on_c, 0, 59, 37
1, 350930, Poly_aftertouch_c, 0, 52, 0
1, 350995, Note_off_c, 0, 78, 65
1, 351001, Note_off_c, 0, 59, 55
1, 351013, Note_off_c, 0, 66, 57
1, 351027, Note_on_c, 0, 56, 36
1, 351066, Note_on_c, 0, 52, 13
1, 351076, Note_off_c, 0, 56, 58
1, 351105, Note_on_c, 0, 59, 37
1, 351120, Note_off_c, 0, 52, 43
1, 351137, Note_on_c, 0, 76, 74
1, 351155, Note_on_c, 0, 64, 49
1, 351174, Note_off_c, 0, 59, 62
1, 351187, Note_on_c, 0, 56, 46
1, 351207, Note_on_c, 0, 52, 14
1, 351248, Note_off_c, 0, 56, 59
1, 351264, Note_on_c, 0, 59, 55
1, 351303, Note_off_c, 0, 76, 57
1, 351319, Note_off_c, 0, 64, 39
1, 351329, Note_on_c, 0, 56, 43
1, 351335, Note_off_c, 0, 59, 62
1, 351401, Note_on_c, 0, 76, 85
1, 351413, Note_on_c, 0, 59, 46
1, 351421, Note_on_c, 0, 64, 69
1, 351454, Note_off_c, 0, 56, 60
1, 351460, Note_off_c, 0, 52, 44
1, 351516, Note_off_c, 0, 64, 55
1, 351564, Note_off_c, 0, 59, 35
1, 351690, Note_on_c, 0, 78, 80
1, 351700, Note_on_c, 0, 66, 59
1, 351702, Control_c, 0, 64, 96
1, 351708, Note_off_c, 0, 76, 54
1, 351717, Control_c, 0, 64, 81
1, 351732, Control_c, 0, 64, 76
1, 351746, Control_c, 0, 64, 77
1, 351761, Control_c, 0, 64, 81
1, 351776, Control_c, 0, 64, 91
1, 351790, Control_c, 0, 64, 127
1, 351905, Note_off_c, 0, 66, 38
1, 352042, Control_c, 0, 64, 90
1, 352047, Note_on_c, 0, 80, 71
1, 352056, Control_c, 0, 64, 71
1, 352059, Note_on_c, 0, 68, 54
1, 352071, Control_c, 0, 64, 64
1, 352086, Control_c, 0, 64, 62
1, 352101, Control_c, 0, 64, 66
1, 352103, Note_off_c, 0, 78, 56
1, 352116, Control_c, 0, 64, 73
1, 352131, Control_c, 0, 64, 82
1, 352146, Control_c, 0, 64, 90
1, 352161, Control_c, 0, 64, 91
1, 352190, Control_c, 0, 64, 90
1, 352212, Control_c, 0, 64, 93
1, 352227, Control_c, 0, 64, 103
1, 352242, Control_c, 0, 64, 127
1, 352516, Note_off_c, 0, 68, 32
1, 352614, Note_on_c, 0, 81, 53
1, 352632, Note_on_c, 0, 69, 38
1, 352673, Control_c, 0, 64, 114
1, 352687, Control_c, 0, 64, 82
1, 352702, Control_c, 0, 64, 69
1, 352717, Control_c, 0, 64, 62
1, 352730, Note_off_c, 0, 80, 38
1, 352732, Control_c, 0, 64, 57
1, 352747, Control_c, 0, 64, 51
1, 352761, Control_c, 0, 64, 46
1, 352776, Control_c, 0, 64, 43
1, 352820, Control_c, 0, 64, 44
1, 352850, Control_c, 0, 64, 45
1, 352865, Control_c, 0, 64, 46
1, 352879, Control_c, 0, 64, 50
1, 352894, Control_c, 0, 64, 52
1, 352909, Control_c, 0, 64, 52
1, 352939, Control_c, 0, 64, 55
1, 352961, Control_c, 0, 64, 59
1, 352976, Control_c, 0, 64, 62
1, 352991, Control_c, 0, 64, 65
1, 353005, Control_c, 0, 64, 66
1, 353020, Control_c, 0, 64, 69
1, 353035, Control_c, 0, 64, 74
1, 353050, Control_c, 0, 64, 82
1, 353065, Control_c, 0, 64, 92
1, 353079, Control_c, 0, 64, 106
1, 353094, Control_c, 0, 64, 127
1, 353244, Note_off_c, 0, 69, 41
1, 353370, Note_off_c, 0, 81, 39
1, 353638, Note_on_c, 0, 82, 41
1, 353645, Note_on_c, 0, 70, 39
1, 353741, Control_c, 0, 64, 114
1, 353755, Control_c, 0, 64, 86
1, 353770, Control_c, 0, 64, 73
1, 353785, Control_c, 0, 64, 66
1, 353800, Control_c, 0, 64, 63
1, 353815, Control_c, 0, 64, 61
1, 353829, Control_c, 0, 64, 60
1, 353829, Control_c, 0, 67, 8
1, 353844, Control_c, 0, 64, 60
1, 353844, Control_c, 0, 67, 12
1, 353859, Control_c, 0, 64, 59
1, 353859, Control_c, 0, 67, 19
1, 353874, Control_c, 0, 64, 59
1, 353874, Control_c, 0, 67, 27
1, 353889, Control_c, 0, 64, 58
1, 353889, Control_c, 0, 67, 36
1, 353905, Control_c, 0, 64, 58
1, 353905, Control_c, 0, 67, 41
1, 353920, Control_c, 0, 64, 57
1, 353920, Control_c, 0, 67, 46
1, 353934, Control_c, 0, 64, 58
1, 353934, Control_c, 0, 67, 51
1, 353949, Control_c, 0, 64, 58
1, 353949, Control_c, 0, 67, 57
1, 353964, Control_c, 0, 64, 59
1, 353964, Control_c, 0, 67, 63
1, 353978, Control_c, 0, 67, 73
1, 353993, Control_c, 0, 67, 82
1, 354008, Control_c, 0, 64, 60
1, 354008, Control_c, 0, 67, 94
1, 354023, Control_c, 0, 64, 61
1, 354023, Control_c, 0, 67, 106
1, 354038, Control_c, 0, 64, 62
1, 354038, Control_c, 0, 67, 121
1, 354052, Control_c, 0, 67, 127
1, 354067, Control_c, 0, 64, 62
1, 354082, Control_c, 0, 64, 63
1, 354097, Control_c, 0, 64, 65
1, 354112, Control_c, 0, 64, 67
1, 354126, Control_c, 0, 64, 67
1, 354156, Control_c, 0, 64, 69
1, 354170, Control_c, 0, 64, 71
1, 354185, Control_c, 0, 64, 73
1, 354200, Control_c, 0, 64, 76
1, 354215, Control_c, 0, 64, 79
1, 354230, Control_c, 0, 64, 86
1, 354244, Control_c, 0, 64, 98
1, 354259, Control_c, 0, 64, 114
1, 354274, Control_c, 0, 64, 127
1, 354344, Note_on_c, 0, 34, 32
1, 354516, Note_off_c, 0, 34, 47
1, 354534, Note_on_c, 0, 46, 49
1, 354569, Note_off_c, 0, 46, 64
1, 354743, Note_on_c, 0, 58, 53
1, 354753, Note_on_c, 0, 54, 47
1, 354884, Note_off_c, 0, 54, 58
1, 354885, Note_off_c, 0, 58, 58
1, 354909, Note_on_c, 0, 63, 44
1, 354959, Note_off_c, 0, 63, 55
1, 354995, Note_on_c, 0, 58, 52
1, 355006, Note_on_c, 0, 54, 43
1, 355036, Note_off_c, 0, 54, 61
1, 355037, Note_off_c, 0, 58, 62
1, 355072, Note_on_c, 0, 63, 51
1, 355112, Note_off_c, 0, 63, 61
1, 355121, Note_on_c, 0, 54, 63
1, 355122, Note_on_c, 0, 58, 67
1, 355158, Note_off_c, 0, 54, 63
1, 355159, Note_off_c, 0, 58, 58
1, 355200, Note_on_c, 0, 63, 63
1, 355243, Note_on_c, 0, 54, 66
1, 355251, Note_on_c, 0, 58, 65
1, 355258, Note_off_c, 0, 63, 58
1, 355279, Note_off_c, 0, 54, 58
1, 355294, Note_off_c, 0, 58, 57
1, 355321, Note_on_c, 0, 63, 56
1, 355365, Note_on_c, 0, 58, 65
1, 355369, Note_on_c, 0, 54, 57
1, 355374, Note_off_c, 0, 63, 61
1, 355400, Note_off_c, 0, 54, 66
1, 355411, Note_off_c, 0, 58, 62
1, 355431, Note_on_c, 0, 63, 58
1, 355479, Note_on_c, 0, 54, 55
1, 355481, Note_on_c, 0, 58, 65
1, 355484, Note_off_c, 0, 63, 62
1, 355518, Note_off_c, 0, 54, 63
1, 355531, Note_off_c, 0, 58, 60
1, 355544, Note_on_c, 0, 63, 62
1, 355599, Note_off_c, 0, 63, 64
1, 355604, Note_on_c, 0, 58, 66
1, 355606, Note_on_c, 0, 54, 46
1, 355637, Note_off_c, 0, 54, 61
1, 355645, Note_off_c, 0, 58, 58
1, 355666, Note_on_c, 0, 63, 63
1, 355723, Note_off_c, 0, 63, 62
1, 355727, Note_on_c, 0, 58, 70
1, 355765, Note_on_c, 0, 54, 13
1, 355766, Note_off_c, 0, 58, 61
1, 355788, Note_on_c, 0, 63, 55
1, 355845, Note_off_c, 0, 54, 0
1, 355846, Note_off_c, 0, 63, 62
1, 355850, Note_on_c, 0, 58, 71
1, 355865, Note_on_c, 0, 54, 27
1, 355892, Note_off_c, 0, 58, 63
1, 355920, Note_on_c, 0, 63, 55
1, 355982, Note_off_c, 0, 54, 0
1, 355982, Note_on_c, 0, 54, 15
1, 355987, Note_off_c, 0, 63, 62
1, 355991, Note_on_c, 0, 58, 59
1, 356064, Note_off_c, 0, 58, 60
1, 356072, Note_on_c, 0, 63, 53
1, 356141, Note_on_c, 0, 58, 55
1, 356143, Note_on_c, 0, 53, 61
1, 356144, Note_off_c, 0, 63, 53
1, 356164, Control_c, 0, 64, 91
1, 356179, Control_c, 0, 64, 66
1, 356194, Control_c, 0, 64, 47
1, 356209, Control_c, 0, 64, 30
1, 356223, Control_c, 0, 64, 37
1, 356227, Note_off_c, 0, 54, 17
1, 356238, Control_c, 0, 64, 55
1, 356253, Control_c, 0, 64, 64
1, 356268, Control_c, 0, 64, 68
1, 356283, Control_c, 0, 64, 73
1, 356298, Control_c, 0, 64, 77
1, 356313, Note_off_c, 0, 53, 60
1, 356322, Note_off_c, 0, 58, 60
1, 356328, Control_c, 0, 64, 76
1, 356334, Note_on_c, 0, 63, 50
1, 356343, Control_c, 0, 64, 76
1, 356358, Control_c, 0, 64, 77
1, 356373, Control_c, 0, 64, 81
1, 356388, Control_c, 0, 64, 89
1, 356402, Control_c, 0, 64, 95
1, 356409, Note_on_c, 0, 53, 47
1, 356414, Note_on_c, 0, 58, 50
1, 356415, Note_off_c, 0, 63, 52
1, 356417, Control_c, 0, 64, 95
1, 356432, Control_c, 0, 64, 94
1, 356446, Control_c, 0, 64, 94
1, 356461, Control_c, 0, 64, 93
1, 356473, Note_off_c, 0, 53, 45
1, 356476, Control_c, 0, 64, 93
1, 356492, Note_off_c, 0, 58, 59
1, 356506, Control_c, 0, 64, 94
1, 356507, Note_on_c, 0, 63, 39
1, 356520, Control_c, 0, 64, 98
1, 356534, Note_off_c, 0, 82, 54
1, 356535, Control_c, 0, 64, 102
1, 356549, Note_off_c, 0, 70, 45
1, 356550, Control_c, 0, 64, 104
1, 356558, Note_on_c, 0, 53, 33
1, 356563, Note_on_c, 0, 58, 40
1, 356565, Control_c, 0, 64, 104
1, 356572, Note_off_c, 0, 63, 56
1, 356580, Control_c, 0, 64, 103
1, 356609, Control_c, 0, 64, 103
1, 356610, Note_off_c, 0, 53, 56
1, 356629, Note_off_c, 0, 58, 61
1, 356638, Control_c, 0, 64, 103
1, 356653, Control_c, 0, 64, 102
1, 356665, Note_on_c, 0, 63, 38
1, 356721, Note_off_c, 0, 63, 59
1, 356733, Note_on_c, 0, 58, 49
1, 356745, Note_on_c, 0, 53, 25
1, 356778, Note_off_c, 0, 58, 61
1, 356786, Note_off_c, 0, 53, 50
1, 356822, Note_on_c, 0, 63, 56
1, 356865, Note_off_c, 0, 63, 59
1, 356885, Note_on_c, 0, 58, 57
1, 356894, Note_on_c, 0, 53, 38
1, 356899, Note_on_c, 0, 82, 74
1, 356912, Note_on_c, 0, 70, 55
1, 356939, Note_off_c, 0, 58, 63
1, 356942, Control_c, 0, 64, 103
1, 356955, Note_off_c, 0, 53, 39
1, 356969, Note_on_c, 0, 63, 51
1, 357002, Control_c, 0, 64, 103
1, 357027, Note_off_c, 0, 63, 58
1, 357038, Note_on_c, 0, 58, 58
1, 357040, Note_on_c, 0, 53, 23
1, 357088, Note_off_c, 0, 58, 57
1, 357122, Control_c, 0, 64, 104
1, 357126, Note_on_c, 0, 63, 47
1, 357127, Note_off_c, 0, 53, 36
1, 357187, Note_on_c, 0, 58, 62
1, 357187, Note_off_c, 0, 63, 59
1, 357210, Control_c, 0, 64, 105
1, 357216, Note_on_c, 0, 53, 13
1, 357225, Control_c, 0, 64, 107
1, 357231, Note_off_c, 0, 58, 55
1, 357240, Control_c, 0, 64, 108
1, 357270, Control_c, 0, 64, 108
1, 357271, Note_on_c, 0, 63, 53
1, 357285, Control_c, 0, 64, 109
1, 357300, Control_c, 0, 64, 112
1, 357315, Control_c, 0, 64, 115
1, 357321, Note_off_c, 0, 53, 0
1, 357329, Note_off_c, 0, 63, 58
1, 357330, Control_c, 0, 64, 115
1, 357337, Note_on_c, 0, 58, 60
1, 357344, Control_c, 0, 64, 116
1, 357359, Poly_aftertouch_c, 0, 53, 127
1, 357359, Control_c, 0, 64, 120
1, 357365, Note_on_c, 0, 53, 3
1, 357374, Control_c, 0, 64, 127
1, 357401, Note_off_c, 0, 58, 61
1, 357428, Note_on_c, 0, 63, 51
1, 357500, Note_off_c, 0, 53, 0
1, 357504, Note_on_c, 0, 58, 55
1, 357517, Note_off_c, 0, 63, 53
1, 357517, Note_on_c, 0, 56, 54
1, 357519, Note_on_c, 0, 53, 18
1, 357544, Control_c, 0, 64, 78
1, 357559, Control_c, 0, 64, 62
1, 357574, Control_c, 0, 64, 49
1, 357603, Control_c, 0, 64, 56
1, 357618, Control_c, 0, 64, 61
1, 357620, Note_off_c, 0, 56, 55
1, 357633, Control_c, 0, 64, 64
1, 357635, Note_off_c, 0, 58, 56
1, 357648, Control_c, 0, 64, 66
1, 357651, Note_off_c, 0, 53, 42
1, 357658, Note_on_c, 0, 62, 35
1, 357663, Control_c, 0, 64, 70
1, 357677, Control_c, 0, 64, 75
1, 357692, Control_c, 0, 64, 77
1, 357717, Note_off_c, 0, 62, 61
1, 357722, Control_c, 0, 64, 77
1, 357726, Note_on_c, 0, 58, 42
1, 357735, Note_on_c, 0, 56, 39
1, 357737, Control_c, 0, 64, 78
1, 357750, Control_c, 0, 64, 81
1, 357765, Control_c, 0, 64, 84
1, 357779, Poly_aftertouch_c, 0, 53, 127
1, 357780, Control_c, 0, 64, 85
1, 357794, Control_c, 0, 64, 85
1, 357796, Note_off_c, 0, 56, 54
1, 357813, Note_off_c, 0, 58, 51
1, 357827, Poly_aftertouch_c, 0, 53, 0
1, 357840, Note_on_c, 0, 62, 41
1, 357883, Control_c, 0, 64, 85
1, 357891, Note_on_c, 0, 58, 29
1, 357894, Note_off_c, 0, 62, 60
1, 357899, Control_c, 0, 64, 87
1, 357904, Note_on_c, 0, 56, 28
1, 357914, Control_c, 0, 64, 89
1, 357929, Control_c, 0, 64, 90
1, 357946, Note_off_c, 0, 56, 49
1, 357950, Note_off_c, 0, 70, 36
1, 357956, Poly_aftertouch_c, 0, 53, 127
1, 357959, Control_c, 0, 64, 90
1, 357960, Note_off_c, 0, 58, 53
1, 357973, Control_c, 0, 64, 92
1, 357988, Control_c, 0, 64, 95
1, 357994, Poly_aftertouch_c, 0, 53, 0
1, 358003, Control_c, 0, 64, 97
1, 358007, Note_on_c, 0, 62, 44
1, 358017, Control_c, 0, 64, 97
1, 358032, Control_c, 0, 64, 98
1, 358044, Note_off_c, 0, 82, 29
1, 358047, Note_on_c, 0, 58, 42
1, 358047, Control_c, 0, 64, 98
1, 358049, Note_off_c, 0, 62, 60
1, 358062, Control_c, 0, 64, 100
1, 358066, Note_on_c, 0, 56, 33
1, 358077, Control_c, 0, 64, 101
1, 358091, Control_c, 0, 64, 104
1, 358106, Control_c, 0, 64, 109
1, 358111, Note_off_c, 0, 56, 48
1, 358111, Poly_aftertouch_c, 0, 53, 127
1, 358121, Control_c, 0, 64, 117
1, 358125, Note_off_c, 0, 58, 52
1, 358136, Control_c, 0, 64, 120
1, 358149, Poly_aftertouch_c, 0, 53, 0
1, 358151, Control_c, 0, 64, 122
1, 358158, Note_on_c, 0, 62, 43
1, 358180, Control_c, 0, 64, 127
1, 358218, Note_off_c, 0, 62, 58
1, 358236, Note_on_c, 0, 82, 69
1, 358237, Note_on_c, 0, 58, 42
1, 358247, Note_on_c, 0, 70, 51
1, 358250, Note_on_c, 0, 56, 34
1, 358297, Poly_aftertouch_c, 0, 53, 127
1, 358298, Note_off_c, 0, 56, 52
1, 358316, Note_off_c, 0, 58, 50
1, 358342, Note_on_c, 0, 62, 42
1, 358343, Poly_aftertouch_c, 0, 53, 0
1, 358401, Note_off_c, 0, 62, 54
1, 358420, Note_on_c, 0, 58, 40
1, 358440, Note_on_c, 0, 56, 45
1, 358478, Note_off_c, 0, 56, 58
1, 358484, Note_off_c, 0, 58, 57
1, 358511, Note_on_c, 0, 62, 32
1, 358594, Note_off_c, 0, 62, 58
1, 358610, Note_on_c, 0, 53, 36
1, 358611, Note_on_c, 0, 58, 46
1, 358614, Note_on_c, 0, 56, 39
1, 358659, Note_off_c, 0, 56, 60
1, 358672, Note_off_c, 0, 58, 53
1, 358684, Note_off_c, 0, 53, 42
1, 358699, Note_on_c, 0, 62, 27
1, 358776, Note_off_c, 0, 62, 58
1, 358794, Note_on_c, 0, 56, 35
1, 358802, Note_on_c, 0, 58, 46
1, 358843, Poly_aftertouch_c, 0, 53, 127
1, 358880, Poly_aftertouch_c, 0, 53, 0
1, 358919, Note_off_c, 0, 58, 50
1, 358963, Note_on_c, 0, 62, 34
1, 358983, Note_off_c, 0, 56, 40
1, 358995, Note_off_c, 0, 62, 54
1, 359200, Note_off_c, 0, 82, 64
1, 359259, Note_off_c, 0, 70, 62
1, 359372, Note_on_c, 0, 39, 40
1, 359455, Control_c, 0, 64, 99
1, 359470, Control_c, 0, 64, 73
1, 359485, Control_c, 0, 64, 61
1, 359500, Control_c, 0, 64, 47
1, 359515, Control_c, 0, 64, 37
1, 359530, Control_c, 0, 64, 38
1, 359536, Note_on_c, 0, 46, 35
1, 359545, Control_c, 0, 64, 47
1, 359559, Control_c, 0, 64, 60
1, 359574, Control_c, 0, 64, 64
1, 359589, Control_c, 0, 64, 67
1, 359604, Control_c, 0, 64, 71
1, 359619, Control_c, 0, 64, 77
1, 359634, Control_c, 0, 64, 86
1, 359649, Control_c, 0, 64, 110
1, 359649, Note_on_c, 0, 51, 51
1, 359663, Control_c, 0, 64, 127
1, 359664, Note_off_c, 0, 39, 40
1, 359703, Note_off_c, 0, 46, 48
1, 359714, Note_on_c, 0, 55, 49
1, 359717, Note_off_c, 0, 51, 62
1, 359801, Note_on_c, 0, 58, 56
1, 359826, Note_off_c, 0, 55, 53
1, 359866, Note_on_c, 0, 63, 46
1, 359899, Note_off_c, 0, 58, 60
1, 359923, Note_on_c, 0, 67, 58
1, 359964, Note_off_c, 0, 63, 62
1, 360026, Note_off_c, 0, 67, 55
1, 360037, Note_on_c, 0, 70, 27
1, 360073, Note_off_c, 0, 70, 53
1, 360083, Note_on_c, 0, 75, 64
1, 360123, Note_off_c, 0, 75, 58
1, 360149, Note_on_c, 0, 79, 65
1, 360217, Note_on_c, 0, 75, 60
1, 360218, Note_off_c, 0, 79, 61
1, 360266, Note_on_c, 0, 70, 55
1, 360292, Note_off_c, 0, 75, 61
1, 360324, Note_on_c, 0, 67, 54
1, 360325, Note_off_c, 0, 70, 62
1, 360388, Note_on_c, 0, 63, 54
1, 360444, Note_off_c, 0, 67, 50
1, 360472, Note_on_c, 0, 58, 54
1, 360516, Note_off_c, 0, 63, 49
1, 360546, Note_on_c, 0, 55, 47
1, 360579, Note_off_c, 0, 58, 56
1, 360615, Note_on_c, 0, 51, 47
1, 360624, Note_off_c, 0, 55, 55
1, 360706, Note_on_c, 0, 46, 39
1, 360871, Note_off_c, 0, 51, 19
1, 360905, Note_on_c, 0, 39, 42
1, 360911, Note_off_c, 0, 46, 38
1, 361623, Note_off_c, 0, 39, 39
1, 361646, Note_on_c, 0, 94, 57
1, 361652, Note_on_c, 0, 82, 35
1, 361818, Note_off_c, 0, 94, 62
1, 361840, Note_on_c, 0, 39, 38
1, 361849, Note_off_c, 0, 82, 38
1, 361896, Control_c, 0, 64, 91
1, 361911, Control_c, 0, 64, 73
1, 361926, Control_c, 0, 64, 65
1, 361941, Note_on_c, 0, 92, 61
1, 361941, Note_on_c, 0, 94, 61
1, 361947, Control_c, 0, 64, 63
1, 361962, Control_c, 0, 64, 65
1, 361963, Note_on_c, 0, 82, 41
1, 361977, Control_c, 0, 64, 70
1, 361992, Control_c, 0, 64, 78
1, 362007, Control_c, 0, 64, 95
1, 362022, Control_c, 0, 64, 127
1, 362084, Note_on_c, 0, 46, 45
1, 362119, Note_off_c, 0, 39, 40
1, 362125, Note_off_c, 0, 46, 64
1, 362149, Note_on_c, 0, 50, 55
1, 362180, Note_off_c, 0, 50, 64
1, 362248, Note_on_c, 0, 56, 55
1, 362314, Note_off_c, 0, 56, 60
1, 362327, Note_on_c, 0, 58, 59
1, 362360, Note_off_c, 0, 58, 65
1, 362386, Note_on_c, 0, 62, 58
1, 362420, Note_off_c, 0, 62, 62
1, 362467, Note_on_c, 0, 68, 63
1, 362543, Note_off_c, 0, 68, 61
1, 362545, Note_on_c, 0, 70, 60
1, 362567, Note_off_c, 0, 82, 54
1, 362576, Note_off_c, 0, 70, 67
1, 362609, Note_on_c, 0, 74, 65
1, 362658, Note_off_c, 0, 74, 43
1, 362668, Note_off_c, 0, 94, 55
1, 362670, Note_off_c, 0, 92, 58
1, 362704, Note_on_c, 0, 80, 68
1, 362752, Note_off_c, 0, 80, 61
1, 362823, Note_on_c, 0, 74, 45
1, 362852, Note_on_c, 0, 91, 65
1, 362876, Note_off_c, 0, 74, 51
1, 362880, Note_on_c, 0, 82, 49
1, 362897, Note_on_c, 0, 94, 13
1, 362914, Note_off_c, 0, 82, 57
1, 362925, Note_on_c, 0, 70, 57
1, 362941, Note_off_c, 0, 94, 37
1, 362990, Note_off_c, 0, 70, 65
1, 362993, Note_on_c, 0, 89, 64
1, 363008, Note_on_c, 0, 82, 52
1, 363016, Note_on_c, 0, 68, 49
1, 363027, Note_on_c, 0, 94, 49
1, 363039, Note_off_c, 0, 68, 57
1, 363073, Note_off_c, 0, 91, 25
1, 363102, Note_on_c, 0, 62, 67
1, 363125, Poly_aftertouch_c, 0, 66, 0
1, 363136, Note_off_c, 0, 62, 54
1, 363174, Note_on_c, 0, 58, 65
1, 363234, Note_off_c, 0, 58, 64
1, 363244, Note_on_c, 0, 56, 61
1, 363273, Note_off_c, 0, 56, 66
1, 363333, Note_on_c, 0, 50, 62
1, 363401, Note_off_c, 0, 50, 53
1, 363434, Note_on_c, 0, 46, 56
1, 363483, Note_off_c, 0, 94, 40
1, 363509, Note_off_c, 0, 82, 60
1, 363521, Note_off_c, 0, 46, 58
1, 363533, Note_on_c, 0, 39, 55
1, 363688, Note_off_c, 0, 89, 37
1, 364027, Note_on_c, 0, 91, 61
1, 364036, Note_on_c, 0, 82, 50
1, 364069, Note_off_c, 0, 39, 52
1, 364102, Note_off_c, 0, 82, 57
1, 364144, Note_off_c, 0, 91, 63
1, 364233, Note_on_c, 0, 39, 39
1, 364247, Note_on_c, 0, 82, 48
1, 364332, Note_on_c, 0, 87, 70
1, 364341, Control_c, 0, 64, 84
1, 364356, Control_c, 0, 64, 66
1, 364371, Control_c, 0, 64, 53
1, 364386, Control_c, 0, 64, 45
1, 364415, Control_c, 0, 64, 52
1, 364430, Control_c, 0, 64, 58
1, 364445, Control_c, 0, 64, 62
1, 364447, Note_on_c, 0, 94, 73
1, 364460, Control_c, 0, 64, 65
1, 364475, Control_c, 0, 64, 69
1, 364490, Control_c, 0, 64, 74
1, 364505, Control_c, 0, 64, 78
1, 364520, Control_c, 0, 64, 85
1, 364535, Control_c, 0, 64, 100
1, 364549, Control_c, 0, 64, 127
1, 364567, Note_off_c, 0, 39, 59
1, 364580, Note_on_c, 0, 46, 46
1, 364635, Note_off_c, 0, 94, 63
1, 364663, Note_off_c, 0, 46, 63
1, 364671, Note_off_c, 0, 87, 66
1, 364673, Note_off_c, 0, 82, 65
1, 364678, Note_on_c, 0, 51, 59
1, 364716, Note_off_c, 0, 51, 63
1, 364746, Note_on_c, 0, 55, 60
1, 364807, Note_off_c, 0, 55, 54
1, 364830, Note_on_c, 0, 58, 61
1, 364910, Note_on_c, 0, 63, 44
1, 364966, Note_on_c, 0, 67, 56
1, 364985, Note_off_c, 0, 58, 54
1, 365032, Note_on_c, 0, 70, 61
1, 365047, Note_off_c, 0, 67, 61
1, 365070, Note_off_c, 0, 63, 50
1, 365113, Note_on_c, 0, 75, 60
1, 365113, Note_off_c, 0, 70, 63
1, 365175, Note_off_c, 0, 75, 61
1, 365181, Note_on_c, 0, 79, 61
1, 365229, Note_off_c, 0, 79, 57
1, 365244, Note_on_c, 0, 75, 57
1, 365315, Note_on_c, 0, 70, 66
1, 365324, Note_off_c, 0, 75, 59
1, 365394, Note_off_c, 0, 70, 61
1, 365410, Note_on_c, 0, 67, 57
1, 365437, Note_on_c, 0, 63, 32
1, 365474, Note_off_c, 0, 63, 44
1, 365486, Note_on_c, 0, 58, 63
1, 365516, Note_off_c, 0, 58, 67
1, 365571, Note_on_c, 0, 55, 57
1, 365664, Note_on_c, 0, 51, 60
1, 365685, Note_off_c, 0, 55, 38
1, 365763, Note_off_c, 0, 51, 61
1, 365778, Note_on_c, 0, 46, 58
1, 365894, Note_off_c, 0, 67, 60
1, 365964, Note_on_c, 0, 39, 41
1, 365971, Note_off_c, 0, 46, 37
1, 366218, Note_off_c, 0, 39, 41
1, 366402, Control_c, 0, 67, 122
1, 366417, Control_c, 0, 67, 110
1, 366439, Control_c, 0, 67, 97
1, 366454, Control_c, 0, 67, 82
1, 366469, Control_c, 0, 67, 67
1, 366484, Control_c, 0, 67, 47
1, 366499, Control_c, 0, 67, 24
1, 366513, Control_c, 0, 67, 0
1, 366657, Note_on_c, 0, 63, 96
1, 366796, Control_c, 0, 64, 110
1, 366810, Control_c, 0, 64, 64
1, 366825, Control_c, 0, 64, 0
1, 366829, Note_on_c, 0, 54, 74
1, 366833, Note_on_c, 0, 51, 71
1, 366836, Note_on_c, 0, 61, 102
1, 366914, Control_c, 0, 64, 53
1, 366925, Note_off_c, 0, 63, 45
1, 366928, Note_off_c, 0, 51, 61
1, 366928, Control_c, 0, 64, 61
1, 366940, Note_on_c, 0, 57, 68
1, 366942, Note_off_c, 0, 54, 65
1, 366943, Control_c, 0, 64, 63
1, 366958, Control_c, 0, 64, 63
1, 366973, Control_c, 0, 64, 64
1, 366988, Control_c, 0, 64, 65
1, 367003, Control_c, 0, 64, 68
1, 367018, Control_c, 0, 64, 70
1, 367021, Note_off_c, 0, 57, 64
1, 367024, Note_on_c, 0, 54, 63
1, 367030, Note_on_c, 0, 51, 65
1, 367033, Control_c, 0, 64, 73
1, 367047, Control_c, 0, 64, 76
1, 367062, Control_c, 0, 64, 82
1, 367077, Control_c, 0, 64, 86
1, 367084, Note_off_c, 0, 51, 59
1, 367087, Note_off_c, 0, 54, 63
1, 367092, Control_c, 0, 64, 87
1, 367102, Note_on_c, 0, 57, 62
1, 367121, Control_c, 0, 64, 88
1, 367136, Control_c, 0, 64, 93
1, 367151, Control_c, 0, 64, 102
1, 367158, Note_on_c, 0, 54, 66
1, 367161, Note_on_c, 0, 51, 63
1, 367166, Control_c, 0, 64, 109
1, 367170, Note_off_c, 0, 57, 63
1, 367210, Note_off_c, 0, 51, 60
1, 367217, Control_c, 0, 64, 111
1, 367226, Note_off_c, 0, 54, 63
1, 367229, Note_on_c, 0, 57, 57
1, 367232, Control_c, 0, 64, 117
1, 367247, Control_c, 0, 64, 127
1, 367282, Note_on_c, 0, 51, 60
1, 367286, Note_on_c, 0, 54, 67
1, 367302, Note_off_c, 0, 57, 64
1, 367334, Note_off_c, 0, 51, 60
1, 367357, Note_off_c, 0, 54, 61
1, 367361, Note_on_c, 0, 57, 66
1, 367408, Note_on_c, 0, 51, 55
1, 367415, Note_on_c, 0, 54, 64
1, 367430, Note_off_c, 0, 57, 64
1, 367467, Note_off_c, 0, 51, 59
1, 367482, Note_on_c, 0, 57, 65
1, 367484, Note_off_c, 0, 54, 63
1, 367540, Note_on_c, 0, 51, 54
1, 367545, Note_on_c, 0, 54, 67
1, 367548, Note_off_c, 0, 57, 64
1, 367614, Note_on_c, 0, 57, 60
1, 367619, Note_off_c, 0, 54, 64
1, 367647, Note_off_c, 0, 51, 0
1, 367667, Note_on_c, 0, 51, 30
1, 367679, Note_on_c, 0, 54, 66
1, 367691, Note_off_c, 0, 57, 64
1, 367740, Note_off_c, 0, 51, 62
1, 367754, Note_off_c, 0, 54, 63
1, 367769, Note_on_c, 0, 57, 66
1, 367821, Note_on_c, 0, 51, 57
1, 367823, Note_on_c, 0, 54, 62
1, 367837, Note_off_c, 0, 57, 63
1, 367879, Note_off_c, 0, 61, 60
1, 367885, Note_off_c, 0, 51, 59
1, 367892, Note_off_c, 0, 54, 64
1, 367909, Note_on_c, 0, 57, 60
1, 367933, Note_on_c, 0, 60, 100
1, 367963, Note_on_c, 0, 51, 66
1, 367967, Note_on_c, 0, 54, 64
1, 367987, Note_off_c, 0, 57, 62
1, 368005, Note_off_c, 0, 60, 65
1, 368025, Note_off_c, 0, 51, 62
1, 368034, Note_off_c, 0, 54, 64
1, 368046, Note_on_c, 0, 57, 60
1, 368064, Note_on_c, 0, 59, 96
1, 368070, Control_c, 0, 64, 87
1, 368085, Control_c, 0, 64, 62
1, 368091, Note_on_c, 0, 51, 59
1, 368100, Control_c, 0, 64, 0
1, 368105, Note_on_c, 0, 54, 64
1, 368112, Note_off_c, 0, 57, 65
1, 368157, Note_off_c, 0, 51, 61
1, 368174, Control_c, 0, 64, 26
1, 368181, Note_off_c, 0, 54, 63
1, 368185, Note_on_c, 0, 57, 61
1, 368189, Control_c, 0, 64, 42
1, 368204, Control_c, 0, 64, 50
1, 368219, Control_c, 0, 64, 53
1, 368232, Control_c, 0, 64, 54
1, 368247, Note_on_c, 0, 54, 67
1, 368247, Control_c, 0, 64, 55
1, 368249, Note_off_c, 0, 57, 65
1, 368251, Note_on_c, 0, 51, 51
1, 368262, Control_c, 0, 64, 59
1, 368278, Control_c, 0, 64, 61
1, 368293, Note_off_c, 0, 51, 63
1, 368293, Control_c, 0, 64, 62
1, 368311, Note_off_c, 0, 54, 65
1, 368326, Note_on_c, 0, 57, 60
1, 368337, Control_c, 0, 64, 63
1, 368352, Control_c, 0, 64, 64
1, 368388, Note_on_c, 0, 54, 59
1, 368390, Note_off_c, 0, 57, 64
1, 368395, Note_on_c, 0, 51, 51
1, 368437, Note_off_c, 0, 51, 59
1, 368445, Note_off_c, 0, 54, 63
1, 368455, Control_c, 0, 64, 63
1, 368461, Note_on_c, 0, 57, 58
1, 368499, Control_c, 0, 64, 64
1, 368514, Control_c, 0, 64, 64
1, 368522, Note_on_c, 0, 51, 46
1, 368527, Note_off_c, 0, 57, 64
1, 368534, Note_on_c, 0, 54, 60
1, 368559, Note_off_c, 0, 51, 57
1, 368574, Control_c, 0, 64, 65
1, 368574, Note_off_c, 0, 54, 63
1, 368589, Control_c, 0, 64, 66
1, 368598, Note_on_c, 0, 57, 50
1, 368603, Control_c, 0, 64, 66
1, 368646, Note_off_c, 0, 57, 64
1, 368648, Note_on_c, 0, 51, 43
1, 368659, Note_on_c, 0, 54, 54
1, 368663, Control_c, 0, 64, 67
1, 368685, Control_c, 0, 64, 67
1, 368699, Control_c, 0, 64, 68
1, 368714, Control_c, 0, 64, 69
1, 368729, Note_off_c, 0, 51, 52
1, 368729, Control_c, 0, 64, 70
1, 368744, Control_c, 0, 64, 71
1, 368759, Control_c, 0, 64, 73
1, 368760, Note_off_c, 0, 54, 59
1, 368763, Note_on_c, 0, 57, 50
1, 368773, Control_c, 0, 64, 75
1, 368788, Control_c, 0, 64, 75
1, 368803, Control_c, 0, 64, 76
1, 368818, Control_c, 0, 64, 77
1, 368833, Control_c, 0, 64, 79
1, 368848, Control_c, 0, 64, 82
1, 368863, Control_c, 0, 64, 84
1, 368878, Control_c, 0, 64, 84
1, 368893, Control_c, 0, 64, 85
1, 368907, Control_c, 0, 64, 88
1, 368922, Control_c, 0, 64, 92
1, 368937, Control_c, 0, 64, 96
1, 368952, Control_c, 0, 64, 98
1, 368967, Control_c, 0, 64, 99
1, 368981, Control_c, 0, 64, 100
1, 368994, Note_off_c, 0, 57, 50
1, 369011, Control_c, 0, 64, 100
1, 369025, Control_c, 0, 64, 105
1, 369040, Control_c, 0, 64, 127
1, 369175, Control_c, 0, 67, 14
1, 369190, Control_c, 0, 67, 26
1, 369204, Control_c, 0, 67, 34
1, 369219, Control_c, 0, 67, 39
1, 369234, Control_c, 0, 67, 42
1, 369249, Control_c, 0, 67, 46
1, 369264, Control_c, 0, 67, 51
1, 369278, Control_c, 0, 67, 58
1, 369293, Control_c, 0, 67, 67
1, 369308, Control_c, 0, 67, 74
1, 369322, Control_c, 0, 67, 83
1, 369337, Control_c, 0, 67, 94
1, 369352, Control_c, 0, 67, 112
1, 369367, Control_c, 0, 67, 127
1, 369450, Note_off_c, 0, 59, 42
1, 369804, Control_c, 0, 64, 108
1, 369819, Control_c, 0, 64, 80
1, 369834, Control_c, 0, 64, 66
1, 369839, Note_on_c, 0, 39, 36
1, 369848, Control_c, 0, 64, 55
1, 369863, Control_c, 0, 64, 40
1, 369879, Control_c, 0, 64, 30
1, 369894, Control_c, 0, 64, 33
1, 369909, Control_c, 0, 64, 50
1, 369924, Control_c, 0, 64, 62
1, 369939, Control_c, 0, 64, 65
1, 369953, Control_c, 0, 64, 68
1, 369965, Note_on_c, 0, 46, 40
1, 369968, Control_c, 0, 64, 71
1, 369983, Control_c, 0, 64, 77
1, 369998, Control_c, 0, 64, 86
1, 370013, Control_c, 0, 64, 99
1, 370027, Control_c, 0, 64, 127
1, 370032, Note_off_c, 0, 39, 40
1, 370064, Note_on_c, 0, 51, 48
1, 370079, Note_off_c, 0, 46, 56
1, 370122, Note_off_c, 0, 51, 61
1, 370140, Note_on_c, 0, 55, 50
1, 370227, Note_on_c, 0, 58, 50
1, 370252, Note_off_c, 0, 55, 50
1, 370291, Note_on_c, 0, 63, 54
1, 370311, Note_off_c, 0, 58, 55
1, 370373, Note_on_c, 0, 67, 50
1, 370411, Note_off_c, 0, 63, 59
1, 370453, Note_on_c, 0, 70, 48
1, 370505, Note_off_c, 0, 70, 59
1, 370511, Note_off_c, 0, 67, 55
1, 370534, Note_on_c, 0, 75, 56
1, 370574, Note_off_c, 0, 75, 61
1, 370598, Note_on_c, 0, 79, 61
1, 370673, Note_on_c, 0, 75, 55
1, 370685, Note_off_c, 0, 79, 54
1, 370738, Note_on_c, 0, 70, 60
1, 370770, Note_off_c, 0, 75, 59
1, 370817, Note_on_c, 0, 67, 52
1, 370818, Note_off_c, 0, 70, 62
1, 370888, Note_on_c, 0, 63, 54
1, 370956, Note_off_c, 0, 67, 52
1, 370975, Note_on_c, 0, 58, 62
1, 371055, Note_on_c, 0, 55, 55
1, 371078, Note_off_c, 0, 63, 33
1, 371082, Note_off_c, 0, 58, 52
1, 371131, Note_on_c, 0, 51, 40
1, 371211, Note_off_c, 0, 55, 58
1, 371242, Note_on_c, 0, 46, 44
1, 371328, Note_off_c, 0, 51, 38
1, 371412, Note_on_c, 0, 39, 40
1, 371423, Note_off_c, 0, 46, 36
1, 371986, Note_off_c, 0, 39, 34
1, 372178, Note_on_c, 0, 94, 57
1, 372191, Note_on_c, 0, 82, 45
1, 372340, Note_off_c, 0, 82, 53
1, 372342, Note_off_c, 0, 94, 59
1, 372410, Note_on_c, 0, 39, 38
1, 372452, Note_on_c, 0, 92, 77
1, 372474, Note_on_c, 0, 94, 57
1, 372475, Note_on_c, 0, 82, 58
1, 372475, Control_c, 0, 64, 111
1, 372490, Control_c, 0, 64, 82
1, 372504, Control_c, 0, 64, 69
1, 372519, Control_c, 0, 64, 66
1, 372534, Control_c, 0, 64, 67
1, 372548, Control_c, 0, 64, 71
1, 372563, Control_c, 0, 64, 78
1, 372578, Control_c, 0, 64, 90
1, 372593, Control_c, 0, 64, 125
1, 372608, Control_c, 0, 64, 127
1, 372615, Note_on_c, 0, 46, 45
1, 372628, Note_off_c, 0, 39, 57
1, 372655, Note_off_c, 0, 46, 64
1, 372687, Note_on_c, 0, 50, 51
1, 372713, Note_off_c, 0, 50, 60
1, 372774, Note_on_c, 0, 56, 56
1, 372828, Note_off_c, 0, 56, 61
1, 372856, Note_on_c, 0, 58, 48
1, 372881, Note_off_c, 0, 58, 57
1, 372908, Note_on_c, 0, 62, 50
1, 372932, Note_off_c, 0, 62, 60
1, 372991, Note_on_c, 0, 68, 56
1, 373045, Note_off_c, 0, 68, 55
1, 373057, Note_off_c, 0, 82, 60
1, 373064, Note_on_c, 0, 70, 55
1, 373071, Note_off_c, 0, 94, 49
1, 373096, Note_off_c, 0, 70, 66
1, 373129, Note_on_c, 0, 74, 57
1, 373174, Note_off_c, 0, 92, 61
1, 373200, Note_off_c, 0, 74, 50
1, 373215, Note_on_c, 0, 80, 68
1, 373271, Note_off_c, 0, 80, 63
1, 373323, Note_on_c, 0, 74, 54
1, 373383, Note_off_c, 0, 74, 52
1, 373415, Note_on_c, 0, 91, 77
1, 373426, Note_on_c, 0, 70, 54
1, 373436, Note_on_c, 0, 82, 58
1, 373474, Note_off_c, 0, 82, 60
1, 373522, Note_on_c, 0, 68, 56
1, 373524, Note_off_c, 0, 70, 64
1, 373530, Note_off_c, 0, 91, 51
1, 373559, Note_on_c, 0, 89, 77
1, 373573, Note_off_c, 0, 68, 62
1, 373576, Note_on_c, 0, 82, 63
1, 373647, Note_on_c, 0, 62, 49
1, 373679, Note_off_c, 0, 62, 58
1, 373709, Note_on_c, 0, 58, 64
1, 373778, Note_off_c, 0, 58, 63
1, 373781, Note_on_c, 0, 56, 58
1, 373810, Note_off_c, 0, 56, 66
1, 373881, Note_on_c, 0, 50, 55
1, 373956, Note_off_c, 0, 50, 57
1, 373971, Note_on_c, 0, 46, 57
1, 374056, Note_off_c, 0, 82, 53
1, 374070, Note_off_c, 0, 46, 57
1, 374074, Note_on_c, 0, 39, 42
1, 374252, Note_off_c, 0, 89, 59
1, 374591, Note_on_c, 0, 91, 62
1, 374600, Note_on_c, 0, 82, 45
1, 374651, Note_off_c, 0, 39, 34
1, 374682, Note_off_c, 0, 82, 58
1, 374725, Note_off_c, 0, 91, 63
1, 374790, Note_on_c, 0, 39, 46
1, 374810, Note_on_c, 0, 82, 52
1, 374854, Control_c, 0, 64, 83
1, 374869, Control_c, 0, 64, 66
1, 374884, Control_c, 0, 64, 57
1, 374884, Note_on_c, 0, 87, 62
1, 374898, Control_c, 0, 64, 51
1, 374928, Control_c, 0, 64, 56
1, 374942, Control_c, 0, 64, 62
1, 374957, Control_c, 0, 64, 66
1, 374972, Control_c, 0, 64, 70
1, 374987, Control_c, 0, 64, 74
1, 374999, Note_on_c, 0, 94, 69
1, 375002, Control_c, 0, 64, 81
1, 375016, Control_c, 0, 64, 88
1, 375031, Control_c, 0, 64, 101
1, 375041, Note_off_c, 0, 39, 54
1, 375046, Control_c, 0, 64, 127
1, 375063, Note_on_c, 0, 46, 48
1, 375145, Note_off_c, 0, 46, 62
1, 375163, Note_on_c, 0, 51, 52
1, 375178, Note_off_c, 0, 94, 63
1, 375204, Note_off_c, 0, 51, 64
1, 375223, Note_on_c, 0, 55, 57
1, 375223, Note_off_c, 0, 87, 65
1, 375227, Note_off_c, 0, 82, 65
1, 375271, Note_off_c, 0, 55, 61
1, 375319, Note_on_c, 0, 58, 50
1, 375385, Note_on_c, 0, 63, 54
1, 375466, Note_on_c, 0, 67, 58
1, 375491, Note_off_c, 0, 58, 34
1, 375541, Note_off_c, 0, 63, 54
1, 375542, Note_on_c, 0, 70, 63
1, 375552, Note_off_c, 0, 67, 61
1, 375614, Note_on_c, 0, 75, 59
1, 375624, Note_off_c, 0, 70, 63
1, 375670, Note_off_c, 0, 75, 61
1, 375672, Note_on_c, 0, 79, 63
1, 375730, Note_off_c, 0, 79, 56
1, 375734, Note_on_c, 0, 75, 56
1, 375813, Note_on_c, 0, 70, 63
1, 375825, Note_off_c, 0, 75, 59
1, 375891, Note_off_c, 0, 70, 55
1, 375898, Note_on_c, 0, 67, 53
1, 375928, Note_on_c, 0, 63, 32
1, 375977, Note_off_c, 0, 63, 60
1, 375993, Note_on_c, 0, 58, 55
1, 376036, Note_off_c, 0, 58, 61
1, 376085, Note_on_c, 0, 55, 42
1, 376194, Note_on_c, 0, 51, 53
1, 376209, Note_off_c, 0, 55, 37
1, 376269, Note_off_c, 0, 51, 60
1, 376285, Note_on_c, 0, 46, 55
1, 376324, Note_off_c, 0, 67, 62
1, 376447, Note_on_c, 0, 39, 41
1, 376479, Note_off_c, 0, 46, 36
1, 376690, Note_off_c, 0, 39, 41
1, 376899, Control_c, 0, 67, 121
1, 376921, Control_c, 0, 67, 100
1, 376936, Control_c, 0, 67, 79
1, 376951, Control_c, 0, 67, 59
1, 376966, Control_c, 0, 67, 39
1, 376981, Control_c, 0, 67, 18
1, 376995, Control_c, 0, 67, 0
1, 377166, Note_on_c, 0, 63, 97
1, 377336, Note_on_c, 0, 51, 74
1, 377337, Note_on_c, 0, 54, 71
1, 377337, Control_c, 0, 64, 72
1, 377338, Note_on_c, 0, 61, 102
1, 377352, Control_c, 0, 64, 32
1, 377367, Control_c, 0, 64, 0
1, 377391, Note_off_c, 0, 63, 60
1, 377412, Note_off_c, 0, 51, 62
1, 377425, Note_off_c, 0, 54, 64
1, 377426, Control_c, 0, 64, 45
1, 377439, Note_on_c, 0, 57, 63
1, 377441, Control_c, 0, 64, 62
1, 377456, Control_c, 0, 64, 65
1, 377471, Control_c, 0, 64, 66
1, 377500, Control_c, 0, 64, 68
1, 377507, Note_off_c, 0, 57, 64
1, 377510, Note_on_c, 0, 51, 53
1, 377510, Note_on_c, 0, 54, 71
1, 377515, Control_c, 0, 64, 69
1, 377552, Note_off_c, 0, 51, 63
1, 377559, Control_c, 0, 64, 70
1, 377574, Note_off_c, 0, 54, 64
1, 377574, Control_c, 0, 64, 73
1, 377582, Note_on_c, 0, 57, 59
1, 377589, Control_c, 0, 64, 75
1, 377633, Control_c, 0, 64, 75
1, 377638, Note_on_c, 0, 54, 65
1, 377642, Note_on_c, 0, 51, 68
1, 377643, Note_off_c, 0, 57, 65
1, 377648, Control_c, 0, 64, 77
1, 377671, Control_c, 0, 64, 78
1, 377685, Note_off_c, 0, 51, 63
1, 377686, Control_c, 0, 64, 77
1, 377699, Note_off_c, 0, 54, 65
1, 377700, Control_c, 0, 64, 77
1, 377715, Control_c, 0, 64, 77
1, 377719, Note_on_c, 0, 57, 57
1, 377730, Control_c, 0, 64, 79
1, 377744, Control_c, 0, 64, 81
1, 377759, Control_c, 0, 64, 83
1, 377768, Note_on_c, 0, 54, 70
1, 377773, Note_off_c, 0, 57, 64
1, 377776, Note_on_c, 0, 51, 61
1, 377804, Control_c, 0, 64, 84
1, 377808, Note_off_c, 0, 51, 65
1, 377822, Note_off_c, 0, 54, 63
1, 377836, Note_on_c, 0, 57, 59
1, 377884, Note_on_c, 0, 51, 68
1, 377889, Note_on_c, 0, 54, 68
1, 377898, Note_off_c, 0, 57, 65
1, 377923, Control_c, 0, 64, 84
1, 377933, Note_off_c, 0, 51, 60
1, 377953, Control_c, 0, 64, 85
1, 377956, Note_on_c, 0, 57, 64
1, 377958, Note_off_c, 0, 54, 61
1, 377982, Control_c, 0, 64, 86
1, 377997, Control_c, 0, 64, 87
1, 378008, Note_on_c, 0, 51, 56
1, 378011, Note_on_c, 0, 54, 54
1, 378012, Control_c, 0, 64, 89
1, 378020, Note_off_c, 0, 57, 64
1, 378027, Control_c, 0, 64, 91
1, 378041, Control_c, 0, 64, 94
1, 378053, Note_off_c, 0, 51, 58
1, 378056, Control_c, 0, 64, 98
1, 378071, Control_c, 0, 64, 102
1, 378083, Note_off_c, 0, 54, 63
1, 378086, Control_c, 0, 64, 104
1, 378089, Note_on_c, 0, 57, 70
1, 378101, Control_c, 0, 64, 108
1, 378116, Control_c, 0, 64, 117
1, 378130, Control_c, 0, 64, 127
1, 378136, Note_on_c, 0, 51, 58
1, 378151, Note_on_c, 0, 54, 69
1, 378154, Note_off_c, 0, 57, 64
1, 378199, Note_off_c, 0, 51, 58
1, 378217, Note_on_c, 0, 57, 60
1, 378217, Note_off_c, 0, 54, 65
1, 378274, Note_on_c, 0, 51, 44
1, 378283, Note_on_c, 0, 54, 64
1, 378292, Note_off_c, 0, 57, 63
1, 378328, Note_off_c, 0, 61, 64
1, 378351, Note_off_c, 0, 54, 64
1, 378352, Note_off_c, 0, 51, 56
1, 378354, Note_on_c, 0, 57, 67
1, 378369, Note_on_c, 0, 60, 98
1, 378434, Note_on_c, 0, 54, 71
1, 378441, Note_on_c, 0, 51, 54
1, 378449, Note_off_c, 0, 57, 65
1, 378452, Note_off_c, 0, 60, 62
1, 378479, Control_c, 0, 64, 78
1, 378488, Note_off_c, 0, 51, 59
1, 378494, Control_c, 0, 64, 53
1, 378494, Note_on_c, 0, 59, 93
1, 378508, Control_c, 0, 64, 0
1, 378509, Note_off_c, 0, 54, 64
1, 378510, Note_on_c, 0, 57, 63
1, 378570, Note_on_c, 0, 51, 57
1, 378572, Note_on_c, 0, 54, 65
1, 378578, Note_off_c, 0, 57, 66
1, 378582, Control_c, 0, 64, 46
1, 378597, Control_c, 0, 64, 56
1, 378612, Control_c, 0, 64, 57
1, 378614, Note_off_c, 0, 51, 63
1, 378627, Control_c, 0, 64, 58
1, 378640, Note_off_c, 0, 54, 65
1, 378642, Note_on_c, 0, 57, 56
1, 378656, Control_c, 0, 64, 59
1, 378672, Control_c, 0, 64, 60
1, 378715, Note_off_c, 0, 57, 64
1, 378716, Note_on_c, 0, 54, 63
1, 378721, Note_on_c, 0, 51, 36
1, 378730, Control_c, 0, 64, 61
1, 378745, Control_c, 0, 64, 61
1, 378758, Note_off_c, 0, 51, 55
1, 378765, Note_off_c, 0, 54, 63
1, 378778, Note_on_c, 0, 57, 54
1, 378789, Control_c, 0, 64, 62
1, 378804, Control_c, 0, 64, 63
1, 378819, Control_c, 0, 64, 64
1, 378834, Control_c, 0, 64, 64
1, 378851, Note_off_c, 0, 57, 64
1, 378858, Note_on_c, 0, 54, 55
1, 378859, Note_on_c, 0, 51, 48
1, 378878, Control_c, 0, 64, 65
1, 378902, Note_off_c, 0, 51, 61
1, 378915, Note_off_c, 0, 54, 63
1, 378923, Control_c, 0, 64, 66
1, 378929, Note_on_c, 0, 57, 52
1, 378937, Control_c, 0, 64, 67
1, 378952, Control_c, 0, 64, 67
1, 378981, Control_c, 0, 64, 68
1, 378987, Note_off_c, 0, 57, 63
1, 378996, Control_c, 0, 64, 68
1, 379004, Note_on_c, 0, 54, 51
1, 379006, Note_on_c, 0, 51, 38
1, 379011, Control_c, 0, 64, 69
1, 379026, Control_c, 0, 64, 70
1, 379041, Control_c, 0, 64, 71
1, 379055, Control_c, 0, 64, 71
1, 379060, Note_off_c, 0, 54, 63
1, 379070, Control_c, 0, 64, 72
1, 379084, Note_on_c, 0, 57, 51
1, 379085, Control_c, 0, 64, 73
1, 379100, Control_c, 0, 64, 74
1, 379102, Note_off_c, 0, 51, 0
1, 379115, Control_c, 0, 64, 75
1, 379121, Note_on_c, 0, 51, 29
1, 379127, Note_off_c, 0, 59, 63
1, 379147, Note_off_c, 0, 57, 62
1, 379167, Note_on_c, 0, 54, 57
1, 379196, Note_off_c, 0, 51, 47
1, 379196, Control_c, 0, 64, 75
1, 379211, Control_c, 0, 64, 76
1, 379219, Note_off_c, 0, 54, 60
1, 379226, Control_c, 0, 64, 77
1, 379237, Note_on_c, 0, 57, 62
1, 379241, Control_c, 0, 64, 77
1, 379255, Control_c, 0, 64, 78
1, 379300, Control_c, 0, 64, 78
1, 379303, Note_off_c, 0, 57, 60
1, 379311, Note_on_c, 0, 51, 38
1, 379329, Control_c, 0, 64, 79
1, 379344, Control_c, 0, 64, 80
1, 379345, Note_on_c, 0, 54, 54
1, 379345, Note_off_c, 0, 51, 52
1, 379359, Control_c, 0, 64, 80
1, 379369, Note_off_c, 0, 54, 63
1, 379374, Control_c, 0, 64, 81
1, 379398, Note_on_c, 0, 57, 55
1, 379418, Control_c, 0, 64, 80
1, 379444, Note_off_c, 0, 57, 61
1, 379459, Note_on_c, 0, 51, 46
1, 379460, Note_on_c, 0, 54, 52
1, 379465, Control_c, 0, 64, 81
1, 379499, Note_off_c, 0, 51, 51
1, 379539, Control_c, 0, 64, 81
1, 379543, Note_off_c, 0, 54, 63
1, 379555, Note_on_c, 0, 57, 57
1, 379568, Control_c, 0, 64, 82
1, 379583, Control_c, 0, 64, 82
1, 379598, Control_c, 0, 64, 83
1, 379612, Control_c, 0, 64, 85
1, 379627, Control_c, 0, 64, 87
1, 379642, Control_c, 0, 64, 87
1, 379646, Note_off_c, 0, 57, 54
1, 379672, Control_c, 0, 64, 89
1, 379686, Control_c, 0, 64, 91
1, 379701, Control_c, 0, 64, 92
1, 379725, Note_on_c, 0, 39, 90
1, 379746, Control_c, 0, 64, 92
1, 379761, Control_c, 0, 64, 92
1, 379776, Control_c, 0, 64, 95
1, 379791, Control_c, 0, 64, 103
1, 379805, Control_c, 0, 64, 127
1, 379894, Control_c, 0, 64, 98
1, 379899, Note_on_c, 0, 51, 65
1, 379913, Note_on_c, 0, 37, 92
1, 379916, Control_c, 0, 64, 67
1, 379921, Note_on_c, 0, 45, 52
1, 379931, Control_c, 0, 64, 43
1, 379946, Control_c, 0, 64, 0
1, 379975, Note_off_c, 0, 39, 23
1, 379979, Note_off_c, 0, 45, 59
1, 380005, Control_c, 0, 64, 38
1, 380008, Note_off_c, 0, 51, 58
1, 380012, Note_on_c, 0, 54, 55
1, 380020, Control_c, 0, 64, 54
1, 380035, Control_c, 0, 64, 57
1, 380050, Control_c, 0, 64, 57
1, 380065, Control_c, 0, 64, 58
1, 380079, Control_c, 0, 64, 59
1, 380084, Note_on_c, 0, 51, 52
1, 380094, Note_on_c, 0, 45, 22
1, 380094, Control_c, 0, 64, 61
1, 380100, Note_off_c, 0, 54, 60
1, 380153, Note_off_c, 0, 45, 42
1, 380155, Note_on_c, 0, 54, 51
1, 380159, Note_off_c, 0, 51, 59
1, 380168, Control_c, 0, 64, 61
1, 380222, Note_on_c, 0, 51, 51
1, 380227, Control_c, 0, 64, 62
1, 380235, Note_off_c, 0, 54, 59
1, 380239, Note_on_c, 0, 45, 27
1, 380242, Control_c, 0, 64, 63
1, 380273, Control_c, 0, 64, 63
1, 380292, Note_on_c, 0, 54, 50
1, 380298, Note_off_c, 0, 51, 59
1, 380355, Note_on_c, 0, 51, 49
1, 380360, Note_off_c, 0, 45, 0
1, 380361, Control_c, 0, 64, 64
1, 380372, Note_off_c, 0, 54, 60
1, 380387, Note_on_c, 0, 45, 5
1, 380391, Control_c, 0, 64, 64
1, 380406, Control_c, 0, 64, 65
1, 380429, Note_on_c, 0, 54, 55
1, 380435, Control_c, 0, 64, 65
1, 380450, Control_c, 0, 64, 66
1, 380465, Control_c, 0, 64, 66
1, 380467, Note_off_c, 0, 51, 0
1, 380476, Note_off_c, 0, 45, 0
1, 380480, Control_c, 0, 64, 67
1, 380487, Note_on_c, 0, 51, 38
1, 380499, Note_on_c, 0, 45, 20
1, 380506, Note_off_c, 0, 54, 63
1, 380509, Control_c, 0, 64, 68
1, 380524, Control_c, 0, 64, 68
1, 380539, Control_c, 0, 64, 69
1, 380554, Control_c, 0, 64, 69
1, 380559, Note_on_c, 0, 54, 51
1, 380568, Note_off_c, 0, 51, 57
1, 380584, Control_c, 0, 64, 70
1, 380587, Note_off_c, 0, 45, 0
1, 380599, Control_c, 0, 64, 71
1, 380614, Control_c, 0, 64, 72
1, 380616, Note_on_c, 0, 51, 49
1, 380624, Poly_aftertouch_c, 0, 45, 127
1, 380628, Control_c, 0, 64, 72
1, 380632, Note_off_c, 0, 54, 61
1, 380633, Note_on_c, 0, 45, 6
1, 380695, Control_c, 0, 64, 73
1, 380700, Note_off_c, 0, 51, 63
1, 380701, Note_on_c, 0, 54, 57
1, 380739, Control_c, 0, 64, 73
1, 380765, Note_on_c, 0, 51, 60
1, 380769, Control_c, 0, 64, 74
1, 380777, Note_off_c, 0, 54, 58
1, 380783, Control_c, 0, 64, 74
1, 380825, Note_off_c, 0, 51, 64
1, 380831, Note_on_c, 0, 54, 51
1, 380885, Note_on_c, 0, 51, 55
1, 380888, Control_c, 0, 64, 75
1, 380944, Note_off_c, 0, 54, 59
1, 380977, Note_off_c, 0, 51, 54
1, 380989, Note_off_c, 0, 45, 41
1, 381051, Control_c, 0, 64, 75
1, 381066, Control_c, 0, 64, 76
1, 381081, Control_c, 0, 64, 78
1, 381087, Note_on_c, 0, 36, 66
1, 381096, Control_c, 0, 64, 82
1, 381111, Control_c, 0, 64, 87
1, 381140, Control_c, 0, 64, 82
1, 381155, Control_c, 0, 64, 72
1, 381170, Control_c, 0, 64, 64
1, 381184, Control_c, 0, 64, 56
1, 381199, Control_c, 0, 64, 50
1, 381205, Note_off_c, 0, 37, 30
1, 381214, Control_c, 0, 64, 44
1, 381229, Control_c, 0, 64, 40
1, 381244, Control_c, 0, 64, 39
1, 381267, Note_on_c, 0, 35, 56
1, 381269, Note_off_c, 0, 36, 59
1, 381347, Control_c, 0, 64, 40
1, 381377, Control_c, 0, 64, 41
1, 381392, Control_c, 0, 64, 41
1, 381414, Control_c, 0, 64, 42
1, 381429, Control_c, 0, 64, 44
1, 381444, Control_c, 0, 64, 45
1, 381488, Control_c, 0, 64, 46
1, 381503, Control_c, 0, 64, 47
1, 381518, Control_c, 0, 64, 50
1, 381532, Control_c, 0, 64, 53
1, 381547, Control_c, 0, 64, 54
1, 381562, Control_c, 0, 64, 55
1, 381577, Control_c, 0, 64, 56
1, 381591, Control_c, 0, 64, 57
1, 381606, Control_c, 0, 64, 58
1, 381621, Control_c, 0, 64, 59
1, 381636, Control_c, 0, 64, 59
1, 381651, Control_c, 0, 64, 60
1, 381666, Control_c, 0, 64, 60
1, 381681, Control_c, 0, 64, 61
1, 381696, Control_c, 0, 64, 61
1, 381711, Control_c, 0, 64, 62
1, 381725, Control_c, 0, 64, 63
1, 381755, Control_c, 0, 64, 63
1, 381770, Control_c, 0, 64, 64
1, 381814, Control_c, 0, 64, 64
1, 381829, Control_c, 0, 64, 65
1, 381844, Control_c, 0, 64, 66
1, 381860, Control_c, 0, 64, 67
1, 381874, Control_c, 0, 64, 68
1, 381889, Control_c, 0, 64, 69
1, 381904, Control_c, 0, 64, 70
1, 381919, Control_c, 0, 64, 71
1, 381934, Control_c, 0, 64, 73
1, 381948, Control_c, 0, 64, 75
1, 381963, Control_c, 0, 64, 77
1, 381978, Control_c, 0, 64, 79
1, 381993, Control_c, 0, 64, 81
1, 382007, Control_c, 0, 64, 83
1, 382022, Control_c, 0, 64, 85
1, 382037, Control_c, 0, 64, 87
1, 382052, Control_c, 0, 64, 88
1, 382061, Note_off_c, 0, 35, 30
1, 382067, Control_c, 0, 64, 90
1, 382081, Control_c, 0, 64, 91
1, 382096, Control_c, 0, 64, 93
1, 382111, Control_c, 0, 64, 95
1, 382126, Control_c, 0, 64, 97
1, 382141, Control_c, 0, 64, 98
1, 382163, Control_c, 0, 64, 99
1, 382178, Control_c, 0, 64, 100
1, 382193, Control_c, 0, 64, 101
1, 382207, Control_c, 0, 64, 103
1, 382222, Control_c, 0, 64, 104
1, 382414, Control_c, 0, 64, 104
1, 382444, Control_c, 0, 64, 105
1, 382459, Control_c, 0, 64, 105
1, 382518, Control_c, 0, 64, 106
1, 382533, Control_c, 0, 64, 107
1, 382542, Note_on_c, 0, 39, 76
1, 382548, Control_c, 0, 64, 109
1, 382563, Control_c, 0, 64, 114
1, 382578, Control_c, 0, 64, 125
1, 382593, Control_c, 0, 64, 127
1, 382771, Note_on_c, 0, 45, 47
1, 382789, Note_on_c, 0, 42, 53
1, 382795, Note_off_c, 0, 39, 60
1, 382830, Note_on_c, 0, 37, 85
1, 382830, Control_c, 0, 64, 87
1, 382845, Control_c, 0, 64, 68
1, 382860, Control_c, 0, 64, 57
1, 382867, Note_on_c, 0, 39, 15
1, 382875, Control_c, 0, 64, 49
1, 382890, Control_c, 0, 64, 47
1, 382912, Control_c, 0, 64, 49
1, 382915, Note_off_c, 0, 39, 50
1, 382927, Control_c, 0, 64, 58
1, 382942, Control_c, 0, 64, 64
1, 382956, Control_c, 0, 64, 67
1, 382971, Control_c, 0, 64, 71
1, 382986, Control_c, 0, 64, 74
1, 382990, Note_off_c, 0, 42, 57
1, 383001, Control_c, 0, 64, 75
1, 383002, Note_off_c, 0, 45, 60
1, 383010, Note_on_c, 0, 51, 50
1, 383060, Control_c, 0, 64, 75
1, 383090, Control_c, 0, 64, 76
1, 383107, Note_off_c, 0, 51, 49
1, 383113, Note_on_c, 0, 45, 54
1, 383124, Note_on_c, 0, 42, 54
1, 383170, Note_off_c, 0, 42, 58
1, 383173, Note_off_c, 0, 45, 58
1, 383195, Note_on_c, 0, 51, 50
1, 383237, Control_c, 0, 64, 75
1, 383258, Note_on_c, 0, 45, 52
1, 383258, Note_off_c, 0, 51, 61
1, 383267, Note_on_c, 0, 42, 51
1, 383305, Note_off_c, 0, 42, 59
1, 383318, Note_off_c, 0, 45, 61
1, 383335, Note_on_c, 0, 51, 57
1, 383380, Note_on_c, 0, 45, 51
1, 383383, Note_on_c, 0, 42, 53
1, 383386, Control_c, 0, 64, 75
1, 383390, Note_off_c, 0, 51, 62
1, 383454, Note_on_c, 0, 51, 64
1, 383454, Note_off_c, 0, 42, 42
1, 383480, Note_off_c, 0, 45, 0
1, 383496, Note_on_c, 0, 45, 34
1, 383518, Note_off_c, 0, 51, 64
1, 383523, Poly_aftertouch_c, 0, 42, 127
1, 383560, Poly_aftertouch_c, 0, 42, 0
1, 383571, Note_on_c, 0, 51, 62
1, 383577, Note_off_c, 0, 45, 59
1, 383624, Note_on_c, 0, 45, 43
1, 383655, Note_off_c, 0, 51, 62
1, 383665, Note_on_c, 0, 42, 14
1, 383675, Control_c, 0, 64, 74
1, 383702, Note_on_c, 0, 51, 49
1, 383714, Note_off_c, 0, 45, 56
1, 383747, Note_off_c, 0, 42, 0
1, 383749, Control_c, 0, 64, 75
1, 383752, Note_on_c, 0, 45, 43
1, 383768, Note_on_c, 0, 42, 23
1, 383775, Note_off_c, 0, 51, 63
1, 383828, Note_off_c, 0, 45, 63
1, 383835, Note_on_c, 0, 51, 62
1, 383850, Note_off_c, 0, 42, 0
1, 383884, Note_on_c, 0, 45, 46
1, 383887, Poly_aftertouch_c, 0, 42, 127
1, 383901, Note_off_c, 0, 51, 63
1, 383960, Note_off_c, 0, 45, 63
1, 383961, Note_on_c, 0, 51, 65
1, 384023, Note_on_c, 0, 45, 63
1, 384033, Note_off_c, 0, 51, 63
1, 384045, Control_c, 0, 64, 75
1, 384091, Note_off_c, 0, 45, 60
1, 384093, Note_on_c, 0, 51, 63
1, 384143, Note_on_c, 0, 45, 41
1, 384159, Note_off_c, 0, 51, 64
1, 384223, Control_c, 0, 64, 75
1, 384232, Note_on_c, 0, 51, 47
1, 384343, Control_c, 0, 64, 74
1, 384426, Note_off_c, 0, 45, 22
1, 384545, Note_on_c, 0, 36, 54
1, 384557, Poly_aftertouch_c, 0, 42, 0
1, 384561, Note_off_c, 0, 51, 55
1, 384617, Control_c, 0, 64, 74
1, 384643, Note_off_c, 0, 37, 39
1, 384676, Control_c, 0, 64, 73
1, 384691, Control_c, 0, 64, 73
1, 384706, Control_c, 0, 64, 72
1, 384721, Control_c, 0, 64, 70
1, 384736, Control_c, 0, 64, 67
1, 384750, Control_c, 0, 64, 64
1, 384765, Control_c, 0, 64, 61
1, 384780, Control_c, 0, 64, 58
1, 384794, Control_c, 0, 64, 54
1, 384809, Control_c, 0, 64, 51
1, 384823, Note_on_c, 0, 35, 52
1, 384824, Control_c, 0, 64, 47
1, 384836, Note_off_c, 0, 36, 49
1, 384839, Control_c, 0, 64, 44
1, 384854, Control_c, 0, 64, 42
1, 384868, Control_c, 0, 64, 41
1, 384898, Control_c, 0, 64, 41
1, 385001, Control_c, 0, 64, 41
1, 385047, Control_c, 0, 64, 42
1, 385062, Control_c, 0, 64, 42
1, 385106, Control_c, 0, 64, 44
1, 385121, Control_c, 0, 64, 45
1, 385136, Control_c, 0, 64, 45
1, 385188, Control_c, 0, 64, 46
1, 385203, Control_c, 0, 64, 46
1, 385218, Control_c, 0, 64, 47
1, 385247, Control_c, 0, 64, 48
1, 385262, Control_c, 0, 64, 49
1, 385277, Control_c, 0, 64, 49
1, 385366, Control_c, 0, 64, 50
1, 385529, Control_c, 0, 64, 50
1, 385544, Control_c, 0, 64, 51
1, 385559, Control_c, 0, 64, 51
1, 385573, Control_c, 0, 64, 52
1, 385588, Control_c, 0, 64, 53
1, 385603, Control_c, 0, 64, 54
1, 385618, Control_c, 0, 64, 55
1, 385632, Control_c, 0, 64, 56
1, 385647, Control_c, 0, 64, 57
1, 385662, Control_c, 0, 64, 58
1, 385677, Control_c, 0, 64, 58
1, 385706, Control_c, 0, 64, 59
1, 385721, Control_c, 0, 64, 59
1, 385736, Control_c, 0, 64, 60
1, 385765, Control_c, 0, 64, 60
1, 385780, Control_c, 0, 64, 61
1, 385795, Control_c, 0, 64, 61
1, 385810, Control_c, 0, 64, 62
1, 385824, Control_c, 0, 64, 62
1, 385855, Control_c, 0, 64, 63
1, 385870, Control_c, 0, 64, 63
1, 385885, Control_c, 0, 64, 64
1, 385908, Control_c, 0, 64, 64
1, 385923, Control_c, 0, 64, 65
1, 385937, Control_c, 0, 64, 65
1, 385952, Control_c, 0, 64, 66
1, 385967, Control_c, 0, 64, 66
1, 385997, Control_c, 0, 64, 67
1, 386026, Control_c, 0, 64, 67
1, 386055, Control_c, 0, 64, 68
1, 386085, Control_c, 0, 64, 68
1, 386100, Control_c, 0, 64, 69
1, 386129, Control_c, 0, 64, 69
1, 386144, Control_c, 0, 64, 70
1, 386159, Control_c, 0, 64, 70
1, 386173, Control_c, 0, 64, 71
1, 386188, Control_c, 0, 64, 72
1, 386218, Control_c, 0, 64, 72
1, 386233, Control_c, 0, 64, 73
1, 386247, Control_c, 0, 64, 74
1, 386262, Control_c, 0, 64, 74
1, 386277, Control_c, 0, 64, 75
1, 386292, Control_c, 0, 64, 75
1, 386307, Control_c, 0, 64, 76
1, 386352, Control_c, 0, 64, 76
1, 386367, Control_c, 0, 64, 77
1, 386396, Control_c, 0, 64, 77
1, 386426, Control_c, 0, 64, 78
1, 386441, Control_c, 0, 64, 79
1, 386455, Control_c, 0, 64, 80
1, 386470, Control_c, 0, 64, 81
1, 386485, Control_c, 0, 64, 81
1, 386500, Control_c, 0, 64, 82
1, 386529, Control_c, 0, 64, 82
1, 386573, Control_c, 0, 64, 83
1, 386618, Control_c, 0, 64, 83
1, 386864, Control_c, 0, 64, 83
1, 386923, Control_c, 0, 64, 82
1, 386967, Control_c, 0, 64, 82
1, 387508, Control_c, 0, 67, 9
1, 387523, Control_c, 0, 67, 13
1, 387538, Control_c, 0, 67, 14
1, 387553, Control_c, 0, 67, 15
1, 387568, Control_c, 0, 67, 16
1, 387583, Control_c, 0, 67, 17
1, 387598, Control_c, 0, 67, 19
1, 387613, Control_c, 0, 67, 20
1, 387627, Control_c, 0, 64, 82
1, 387642, Control_c, 0, 64, 83
1, 387642, Control_c, 0, 67, 19
1, 387657, Control_c, 0, 64, 84
1, 387672, Control_c, 0, 64, 84
1, 387672, Control_c, 0, 67, 21
1, 387687, Control_c, 0, 64, 77
1, 387687, Control_c, 0, 67, 23
1, 387694, Note_off_c, 0, 35, 37
1, 387701, Control_c, 0, 64, 66
1, 387701, Control_c, 0, 67, 31
1, 387716, Control_c, 0, 64, 56
1, 387716, Control_c, 0, 67, 46
1, 387731, Control_c, 0, 64, 43
1, 387731, Control_c, 0, 67, 64
1, 387746, Control_c, 0, 64, 9
1, 387746, Control_c, 0, 67, 84
1, 387761, Control_c, 0, 64, 0
1, 387761, Control_c, 0, 67, 107
1, 387775, Control_c, 0, 67, 127
1, 387973, Note_on_c, 0, 27, 50
1, 388006, Note_off_c, 0, 27, 59
1, 388048, Note_on_c, 0, 39, 53
1, 388088, Note_off_c, 0, 39, 63
1, 388093, Note_on_c, 0, 51, 52
1, 388136, Note_off_c, 0, 51, 63
1, 388170, Note_on_c, 0, 30, 50
1, 388209, Note_off_c, 0, 30, 54
1, 388237, Note_on_c, 0, 42, 56
1, 388280, Note_off_c, 0, 42, 61
1, 388304, Note_on_c, 0, 51, 54
1, 388338, Note_off_c, 0, 51, 63
1, 388370, Note_on_c, 0, 39, 49
1, 388371, Note_on_c, 0, 33, 61
1, 388402, Note_off_c, 0, 33, 63
1, 388406, Note_off_c, 0, 39, 63
1, 388439, Note_on_c, 0, 45, 53
1, 388498, Note_off_c, 0, 45, 60
1, 388500, Note_on_c, 0, 51, 62
1, 388534, Note_off_c, 0, 51, 65
1, 388564, Note_on_c, 0, 34, 63
1, 388570, Note_on_c, 0, 39, 50
1, 388593, Note_off_c, 0, 34, 62
1, 388602, Note_off_c, 0, 39, 62
1, 388639, Note_on_c, 0, 46, 43
1, 388677, Note_off_c, 0, 46, 63
1, 388681, Note_on_c, 0, 51, 54
1, 388745, Note_off_c, 0, 51, 59
1, 388755, Note_on_c, 0, 35, 66
1, 388758, Note_on_c, 0, 39, 63
1, 388787, Note_off_c, 0, 35, 61
1, 388793, Note_off_c, 0, 39, 66
1, 388802, Note_on_c, 0, 47, 53
1, 388870, Note_off_c, 0, 47, 63
1, 388875, Note_on_c, 0, 51, 59
1, 388953, Note_on_c, 0, 36, 63
1, 388956, Note_on_c, 0, 39, 68
1, 388965, Note_off_c, 0, 51, 52
1, 388981, Note_off_c, 0, 36, 64
1, 388998, Note_off_c, 0, 39, 66
1, 389009, Note_on_c, 0, 48, 59
1, 389073, Note_off_c, 0, 48, 63
1, 389079, Note_on_c, 0, 51, 67
1, 389121, Note_off_c, 0, 51, 63
1, 389138, Note_on_c, 0, 33, 63
1, 389146, Note_on_c, 0, 39, 49
1, 389179, Note_off_c, 0, 33, 63
1, 389186, Note_off_c, 0, 39, 64
1, 389202, Note_on_c, 0, 45, 52
1, 389267, Note_off_c, 0, 45, 59
1, 389272, Note_on_c, 0, 51, 58
1, 389315, Note_off_c, 0, 51, 64
1, 389327, Note_on_c, 0, 39, 44
1, 389328, Note_on_c, 0, 30, 57
1, 389364, Note_off_c, 0, 39, 65
1, 389371, Note_on_c, 0, 42, 53
1, 389374, Note_off_c, 0, 30, 62
1, 389422, Note_off_c, 0, 42, 61
1, 389453, Note_on_c, 0, 51, 52
1, 389507, Note_off_c, 0, 51, 58
1, 389514, Note_on_c, 0, 27, 61
1, 389547, Note_off_c, 0, 27, 64
1, 389577, Note_on_c, 0, 39, 37
1, 389614, Note_off_c, 0, 39, 56
1, 389645, Note_on_c, 0, 51, 53
1, 389682, Note_off_c, 0, 51, 64
1, 389714, Note_on_c, 0, 30, 65
1, 389747, Note_off_c, 0, 30, 62
1, 389765, Note_on_c, 0, 42, 61
1, 389803, Note_off_c, 0, 42, 59
1, 389829, Note_on_c, 0, 51, 52
1, 389871, Note_off_c, 0, 51, 62
1, 389899, Note_on_c, 0, 33, 68
1, 389904, Note_on_c, 0, 39, 63
1, 389928, Note_off_c, 0, 33, 63
1, 389934, Note_off_c, 0, 39, 64
1, 389977, Note_on_c, 0, 45, 49
1, 390018, Note_off_c, 0, 45, 64
1, 390021, Note_on_c, 0, 51, 62
1, 390065, Note_off_c, 0, 51, 62
1, 390087, Note_on_c, 0, 39, 64
1, 390117, Note_off_c, 0, 39, 64
1, 390128, Note_on_c, 0, 35, 16
1, 390129, Note_off_c, 0, 35, 127
1, 390161, Note_on_c, 0, 46, 54
1, 390203, Note_on_c, 0, 51, 60
1, 390203, Note_off_c, 0, 46, 64
1, 390270, Note_on_c, 0, 35, 72
1, 390278, Note_on_c, 0, 39, 70
1, 390296, Note_off_c, 0, 51, 50
1, 390304, Note_off_c, 0, 35, 65
1, 390312, Note_off_c, 0, 39, 68
1, 390337, Note_on_c, 0, 47, 64
1, 390409, Note_off_c, 0, 47, 62
1, 390418, Note_on_c, 0, 51, 67
1, 390462, Note_on_c, 0, 39, 75
1, 390464, Note_on_c, 0, 36, 76
1, 390495, Note_off_c, 0, 36, 66
1, 390507, Note_off_c, 0, 39, 64
1, 390509, Note_off_c, 0, 51, 60
1, 390537, Note_on_c, 0, 48, 66
1, 390610, Note_off_c, 0, 48, 63
1, 390629, Note_on_c, 0, 51, 56
1, 390651, Note_on_c, 0, 33, 60
1, 390668, Note_on_c, 0, 39, 48
1, 390680, Note_off_c, 0, 51, 61
1, 390689, Note_off_c, 0, 33, 64
1, 390707, Note_off_c, 0, 39, 63
1, 390712, Note_on_c, 0, 45, 59
1, 390782, Note_off_c, 0, 45, 60
1, 390793, Note_on_c, 0, 51, 62
1, 390828, Note_on_c, 0, 39, 46
1, 390832, Note_off_c, 0, 51, 64
1, 390834, Note_on_c, 0, 30, 57
1, 390865, Note_off_c, 0, 39, 60
1, 390877, Note_off_c, 0, 30, 61
1, 390903, Note_on_c, 0, 42, 57
1, 390957, Note_off_c, 0, 42, 61
1, 390976, Note_on_c, 0, 51, 56
1, 391024, Note_on_c, 0, 27, 66
1, 391032, Note_off_c, 0, 51, 58
1, 391069, Note_off_c, 0, 27, 62
1, 391097, Note_on_c, 0, 39, 54
1, 391142, Note_on_c, 0, 51, 60
1, 391143, Note_off_c, 0, 39, 64
1, 391196, Note_off_c, 0, 51, 61
1, 391207, Control_c, 0, 67, 120
1, 391222, Control_c, 0, 64, 11
1, 391222, Control_c, 0, 67, 111
1, 391223, Note_on_c, 0, 30, 74
1, 391237, Control_c, 0, 64, 17
1, 391237, Control_c, 0, 67, 97
1, 391251, Control_c, 0, 64, 21
1, 391251, Control_c, 0, 67, 82
1, 391261, Note_off_c, 0, 30, 65
1, 391261, Note_on_c, 0, 42, 66
1, 391266, Control_c, 0, 64, 24
1, 391266, Control_c, 0, 67, 69
1, 391281, Control_c, 0, 64, 26
1, 391281, Control_c, 0, 67, 62
1, 391296, Control_c, 0, 64, 29
1, 391296, Control_c, 0, 67, 57
1, 391310, Control_c, 0, 64, 30
1, 391310, Control_c, 0, 67, 52
1, 391325, Control_c, 0, 67, 49
1, 391330, Note_on_c, 0, 54, 63
1, 391333, Note_off_c, 0, 42, 60
1, 391340, Control_c, 0, 67, 46
1, 391355, Control_c, 0, 67, 42
1, 391364, Note_off_c, 0, 54, 65
1, 391369, Control_c, 0, 67, 37
1, 391384, Control_c, 0, 67, 32
1, 391399, Control_c, 0, 67, 26
1, 391408, Note_on_c, 0, 33, 79
1, 391414, Control_c, 0, 67, 24
1, 391429, Control_c, 0, 67, 22
1, 391445, Control_c, 0, 67, 21
1, 391446, Note_off_c, 0, 33, 62
1, 391460, Control_c, 0, 67, 19
1, 391464, Note_on_c, 0, 45, 64
1, 391474, Control_c, 0, 67, 14
1, 391489, Control_c, 0, 67, 8
1, 391504, Control_c, 0, 67, 0
1, 391528, Note_on_c, 0, 57, 69
1, 391535, Note_off_c, 0, 45, 63
1, 391548, Control_c, 0, 64, 30
1, 391559, Note_off_c, 0, 57, 66
1, 391563, Control_c, 0, 64, 31
1, 391578, Control_c, 0, 64, 33
1, 391593, Control_c, 0, 64, 36
1, 391605, Note_on_c, 0, 34, 78
1, 391608, Control_c, 0, 64, 38
1, 391622, Control_c, 0, 64, 40
1, 391637, Control_c, 0, 64, 41
1, 391647, Note_on_c, 0, 46, 65
1, 391651, Note_off_c, 0, 34, 63
1, 391652, Control_c, 0, 64, 42
1, 391667, Control_c, 0, 64, 43
1, 391703, Note_on_c, 0, 58, 71
1, 391708, Note_off_c, 0, 46, 60
1, 391711, Control_c, 0, 64, 44
1, 391741, Control_c, 0, 64, 44
1, 391744, Note_off_c, 0, 58, 57
1, 391772, Note_on_c, 0, 35, 88
1, 391813, Note_off_c, 0, 35, 61
1, 391815, Control_c, 0, 64, 45
1, 391839, Note_on_c, 0, 47, 75
1, 391907, Note_on_c, 0, 59, 83
1, 391914, Note_off_c, 0, 47, 63
1, 391948, Note_off_c, 0, 59, 63
1, 391952, Note_on_c, 0, 36, 93
1, 391997, Note_off_c, 0, 36, 64
1, 392013, Note_on_c, 0, 48, 86
1, 392080, Note_on_c, 0, 60, 81
1, 392089, Note_off_c, 0, 48, 64
1, 392124, Note_off_c, 0, 60, 63
1, 392143, Note_on_c, 0, 37, 96
1, 392160, Note_on_c, 0, 38, 88
1, 392178, Control_c, 0, 64, 44
1, 392186, Note_off_c, 0, 38, 68
1, 392188, Note_off_c, 0, 37, 61
1, 392189, Note_on_c, 0, 49, 83
1, 392192, Control_c, 0, 64, 44
1, 392207, Control_c, 0, 64, 42
1, 392222, Control_c, 0, 64, 41
1, 392238, Control_c, 0, 64, 40
1, 392263, Note_on_c, 0, 61, 93
1, 392270, Note_off_c, 0, 49, 62
1, 392282, Control_c, 0, 64, 40
1, 392290, Note_off_c, 0, 61, 66
1, 392297, Control_c, 0, 64, 39
1, 392312, Control_c, 0, 64, 38
1, 392327, Control_c, 0, 64, 37
1, 392342, Control_c, 0, 64, 36
1, 392356, Control_c, 0, 64, 36
1, 392431, Control_c, 0, 64, 35
1, 392675, Control_c, 0, 64, 35
1, 392719, Control_c, 0, 64, 36
1, 392764, Control_c, 0, 64, 36
1, 392793, Note_on_c, 0, 62, 47
1, 392793, Note_on_c, 0, 57, 48
1, 392801, Note_on_c, 0, 54, 44
1, 392817, Note_off_c, 0, 62, 60
1, 392817, Note_off_c, 0, 57, 59
1, 392827, Note_off_c, 0, 54, 59
1, 392893, Note_on_c, 0, 49, 53
1, 392902, Note_on_c, 0, 50, 47
1, 392919, Note_off_c, 0, 49, 61
1, 392928, Note_off_c, 0, 50, 58
1, 393002, Note_on_c, 0, 58, 55
1, 393004, Note_on_c, 0, 63, 60
1, 393006, Note_on_c, 0, 55, 53
1, 393023, Note_off_c, 0, 63, 62
1, 393028, Note_off_c, 0, 58, 63
1, 393032, Note_off_c, 0, 55, 57
1, 393104, Note_on_c, 0, 38, 51
1, 393139, Note_off_c, 0, 38, 63
1, 393189, Note_on_c, 0, 60, 68
1, 393202, Note_on_c, 0, 66, 61
1, 393217, Note_off_c, 0, 60, 67
1, 393232, Note_off_c, 0, 66, 64
1, 393288, Note_on_c, 0, 50, 61
1, 393291, Note_on_c, 0, 49, 53
1, 393316, Note_off_c, 0, 49, 61
1, 393318, Note_off_c, 0, 50, 65
1, 393394, Control_c, 0, 64, 37
1, 393398, Note_on_c, 0, 70, 68
1, 393401, Note_on_c, 0, 65, 63
1, 393404, Note_on_c, 0, 62, 57
1, 393424, Control_c, 0, 64, 37
1, 393425, Note_off_c, 0, 70, 69
1, 393430, Note_off_c, 0, 62, 63
1, 393431, Note_off_c, 0, 65, 64
1, 393497, Note_on_c, 0, 38, 54
1, 393530, Note_off_c, 0, 38, 62
1, 393595, Note_on_c, 0, 69, 72
1, 393607, Note_on_c, 0, 60, 52
1, 393609, Note_on_c, 0, 63, 54
1, 393627, Note_off_c, 0, 69, 62
1, 393631, Note_off_c, 0, 60, 60
1, 393634, Note_off_c, 0, 63, 62
1, 393686, Note_on_c, 0, 49, 48
1, 393690, Note_on_c, 0, 50, 49
1, 393711, Note_off_c, 0, 49, 59
1, 393715, Note_off_c, 0, 50, 59
1, 393776, Note_on_c, 0, 67, 61
1, 393780, Note_on_c, 0, 62, 65
1, 393786, Note_on_c, 0, 58, 57
1, 393807, Note_off_c, 0, 67, 67
1, 393810, Note_off_c, 0, 62, 65
1, 393819, Note_off_c, 0, 58, 65
1, 393867, Note_on_c, 0, 38, 57
1, 393902, Note_off_c, 0, 38, 63
1, 393959, Note_on_c, 0, 60, 69
1, 393964, Note_on_c, 0, 57, 64
1, 393979, Note_on_c, 0, 66, 44
1, 393988, Note_off_c, 0, 60, 65
1, 393995, Note_off_c, 0, 57, 66
1, 394004, Note_off_c, 0, 66, 55
1, 394048, Note_on_c, 0, 49, 55
1, 394058, Note_on_c, 0, 50, 51
1, 394078, Note_off_c, 0, 49, 64
1, 394084, Note_off_c, 0, 50, 57
1, 394138, Note_on_c, 0, 67, 70
1, 394150, Note_on_c, 0, 61, 64
1, 394156, Note_on_c, 0, 58, 61
1, 394165, Note_off_c, 0, 67, 68
1, 394180, Note_off_c, 0, 61, 65
1, 394189, Note_off_c, 0, 58, 65
1, 394250, Note_on_c, 0, 38, 51
1, 394283, Note_off_c, 0, 38, 61
1, 394328, Note_on_c, 0, 57, 63
1, 394331, Note_on_c, 0, 62, 52
1, 394347, Note_on_c, 0, 54, 50
1, 394354, Note_off_c, 0, 57, 66
1, 394358, Note_off_c, 0, 62, 62
1, 394372, Note_off_c, 0, 54, 59
1, 394431, Note_on_c, 0, 49, 55
1, 394442, Note_on_c, 0, 50, 46
1, 394460, Note_off_c, 0, 49, 63
1, 394469, Note_off_c, 0, 50, 53
1, 394513, Control_c, 0, 64, 38
1, 394522, Note_on_c, 0, 58, 69
1, 394525, Note_on_c, 0, 63, 70
1, 394528, Note_on_c, 0, 55, 59
1, 394549, Note_off_c, 0, 58, 66
1, 394551, Note_off_c, 0, 55, 61
1, 394552, Note_off_c, 0, 63, 66
1, 394588, Control_c, 0, 64, 38
1, 394611, Note_on_c, 0, 38, 61
1, 394642, Note_off_c, 0, 38, 64
1, 394712, Note_on_c, 0, 60, 69
1, 394717, Note_on_c, 0, 66, 76
1, 394731, Note_on_c, 0, 57, 20
1, 394740, Note_off_c, 0, 60, 67
1, 394745, Note_off_c, 0, 66, 67
1, 394752, Control_c, 0, 64, 39
1, 394766, Control_c, 0, 64, 40
1, 394771, Note_off_c, 0, 57, 39
1, 394789, Note_on_c, 0, 49, 64
1, 394796, Control_c, 0, 64, 41
1, 394799, Note_on_c, 0, 50, 57
1, 394818, Note_off_c, 0, 49, 66
1, 394823, Note_off_c, 0, 50, 62
1, 394908, Note_on_c, 0, 70, 79
1, 394911, Note_on_c, 0, 65, 68
1, 394916, Note_on_c, 0, 62, 67
1, 394939, Note_off_c, 0, 70, 66
1, 394942, Note_off_c, 0, 65, 67
1, 394945, Note_off_c, 0, 62, 66
1, 394981, Control_c, 0, 64, 41
1, 395001, Note_on_c, 0, 38, 67
1, 395029, Note_off_c, 0, 38, 64
1, 395098, Note_on_c, 0, 69, 76
1, 395106, Note_on_c, 0, 60, 67
1, 395113, Note_on_c, 0, 63, 64
1, 395134, Note_off_c, 0, 69, 63
1, 395136, Note_off_c, 0, 60, 67
1, 395143, Note_off_c, 0, 63, 66
1, 395190, Note_on_c, 0, 49, 67
1, 395210, Note_on_c, 0, 50, 41
1, 395218, Control_c, 0, 64, 41
1, 395220, Note_off_c, 0, 49, 66
1, 395232, Control_c, 0, 64, 40
1, 395238, Note_off_c, 0, 50, 51
1, 395247, Control_c, 0, 64, 40
1, 395291, Note_on_c, 0, 67, 65
1, 395291, Control_c, 0, 64, 39
1, 395298, Note_on_c, 0, 62, 69
1, 395303, Note_on_c, 0, 58, 62
1, 395306, Control_c, 0, 64, 39
1, 395321, Control_c, 0, 64, 38
1, 395325, Note_off_c, 0, 62, 66
1, 395332, Note_off_c, 0, 67, 63
1, 395336, Control_c, 0, 64, 36
1, 395341, Note_off_c, 0, 58, 63
1, 395351, Control_c, 0, 64, 33
1, 395366, Control_c, 0, 64, 29
1, 395372, Note_on_c, 0, 38, 56
1, 395381, Control_c, 0, 64, 24
1, 395396, Control_c, 0, 64, 9
1, 395409, Note_off_c, 0, 38, 63
1, 395410, Control_c, 0, 64, 0
1, 395474, Note_on_c, 0, 57, 57
1, 395476, Note_on_c, 0, 66, 58
1, 395479, Note_on_c, 0, 60, 53
1, 395501, Note_off_c, 0, 60, 60
1, 395504, Note_off_c, 0, 57, 66
1, 395506, Note_off_c, 0, 66, 66
1, 395566, Note_on_c, 0, 49, 63
1, 395577, Note_on_c, 0, 50, 57
1, 395606, Note_off_c, 0, 49, 65
1, 395608, Note_off_c, 0, 50, 65
1, 395653, Note_on_c, 0, 67, 72
1, 395663, Note_on_c, 0, 61, 58
1, 395665, Note_on_c, 0, 58, 51
1, 395691, Note_off_c, 0, 58, 56
1, 395695, Note_off_c, 0, 61, 64
1, 395696, Note_off_c, 0, 67, 63
1, 395742, Note_on_c, 0, 38, 84
1, 395759, Control_c, 0, 64, 59
1, 395774, Note_off_c, 0, 38, 65
1, 395774, Control_c, 0, 64, 82
1, 395789, Control_c, 0, 64, 127
1, 395863, Note_on_c, 0, 62, 63
1, 395863, Note_on_c, 0, 66, 62
1, 395866, Note_on_c, 0, 74, 62
1, 395894, Note_off_c, 0, 66, 65
1, 395894, Note_off_c, 0, 62, 66
1, 395895, Note_off_c, 0, 74, 64
1, 395937, Note_on_c, 0, 50, 65
1, 395938, Note_on_c, 0, 55, 57
1, 395942, Note_on_c, 0, 58, 73
1, 395966, Note_off_c, 0, 50, 65
1, 395967, Note_off_c, 0, 55, 63
1, 395978, Note_off_c, 0, 58, 62
1, 395981, Control_c, 0, 64, 88
1, 395996, Control_c, 0, 64, 71
1, 396011, Control_c, 0, 64, 63
1, 396026, Control_c, 0, 64, 59
1, 396028, Note_on_c, 0, 63, 55
1, 396028, Note_on_c, 0, 67, 56
1, 396030, Note_on_c, 0, 75, 62
1, 396040, Control_c, 0, 64, 56
1, 396049, Note_off_c, 0, 63, 61
1, 396049, Note_off_c, 0, 67, 63
1, 396055, Control_c, 0, 64, 52
1, 396061, Note_off_c, 0, 75, 66
1, 396070, Control_c, 0, 64, 49
1, 396085, Control_c, 0, 64, 48
1, 396099, Control_c, 0, 64, 48
1, 396110, Note_on_c, 0, 50, 62
1, 396114, Control_c, 0, 64, 47
1, 396117, Note_on_c, 0, 57, 72
1, 396120, Note_on_c, 0, 60, 75
1, 396129, Control_c, 0, 64, 45
1, 396144, Control_c, 0, 64, 42
1, 396145, Note_off_c, 0, 60, 70
1, 396147, Note_off_c, 0, 57, 68
1, 396147, Note_off_c, 0, 50, 67
1, 396159, Control_c, 0, 64, 41
1, 396208, Note_on_c, 0, 69, 73
1, 396213, Note_on_c, 0, 78, 78
1, 396214, Note_on_c, 0, 66, 65
1, 396232, Note_off_c, 0, 69, 69
1, 396245, Note_off_c, 0, 66, 66
1, 396252, Note_off_c, 0, 78, 63
1, 396303, Note_on_c, 0, 62, 71
1, 396310, Note_on_c, 0, 65, 69
1, 396332, Note_off_c, 0, 62, 67
1, 396338, Note_off_c, 0, 65, 67
1, 396390, Control_c, 0, 64, 43
1, 396401, Note_on_c, 0, 74, 74
1, 396403, Note_on_c, 0, 82, 80
1, 396405, Control_c, 0, 64, 43
1, 396407, Note_on_c, 0, 70, 72
1, 396427, Note_off_c, 0, 74, 67
1, 396432, Note_off_c, 0, 70, 70
1, 396449, Control_c, 0, 64, 44
1, 396457, Note_off_c, 0, 82, 64
1, 396478, Control_c, 0, 64, 45
1, 396493, Note_on_c, 0, 60, 68
1, 396494, Note_on_c, 0, 63, 72
1, 396523, Note_off_c, 0, 60, 68
1, 396523, Control_c, 0, 64, 44
1, 396526, Note_off_c, 0, 63, 63
1, 396538, Control_c, 0, 64, 44
1, 396579, Note_on_c, 0, 81, 75
1, 396587, Note_on_c, 0, 72, 73
1, 396590, Note_on_c, 0, 69, 71
1, 396612, Note_off_c, 0, 72, 68
1, 396612, Note_off_c, 0, 81, 57
1, 396616, Note_off_c, 0, 69, 68
1, 396627, Control_c, 0, 64, 43
1, 396642, Control_c, 0, 64, 43
1, 396656, Control_c, 0, 64, 42
1, 396671, Control_c, 0, 64, 38
1, 396673, Note_on_c, 0, 58, 70
1, 396675, Note_on_c, 0, 50, 71
1, 396675, Note_on_c, 0, 62, 70
1, 396686, Control_c, 0, 64, 31
1, 396701, Control_c, 0, 64, 13
1, 396701, Note_off_c, 0, 62, 67
1, 396711, Note_off_c, 0, 50, 63
1, 396714, Note_off_c, 0, 58, 60
1, 396716, Control_c, 0, 64, 0
1, 396762, Note_on_c, 0, 79, 77
1, 396767, Note_on_c, 0, 70, 76
1, 396773, Note_on_c, 0, 67, 70
1, 396788, Note_off_c, 0, 79, 65
1, 396795, Note_off_c, 0, 70, 64
1, 396798, Note_off_c, 0, 67, 68
1, 396847, Note_on_c, 0, 50, 64
1, 396848, Note_on_c, 0, 60, 68
1, 396853, Note_on_c, 0, 57, 69
1, 396885, Note_off_c, 0, 57, 67
1, 396885, Note_off_c, 0, 60, 65
1, 396888, Note_off_c, 0, 50, 66
1, 396941, Note_on_c, 0, 78, 72
1, 396943, Note_on_c, 0, 66, 74
1, 396944, Note_on_c, 0, 69, 75
1, 396967, Note_off_c, 0, 69, 69
1, 396970, Note_off_c, 0, 66, 64
1, 396982, Note_off_c, 0, 78, 60
1, 397023, Note_on_c, 0, 58, 71
1, 397029, Note_on_c, 0, 61, 56
1, 397038, Note_on_c, 0, 50, 71
1, 397059, Note_off_c, 0, 61, 63
1, 397071, Note_off_c, 0, 58, 62
1, 397092, Note_off_c, 0, 50, 64
1, 397114, Note_on_c, 0, 79, 76
1, 397115, Note_on_c, 0, 70, 72
1, 397122, Note_on_c, 0, 67, 73
1, 397152, Note_off_c, 0, 79, 63
1, 397157, Note_off_c, 0, 70, 65
1, 397165, Note_off_c, 0, 67, 66
1, 397210, Note_on_c, 0, 38, 96
1, 397213, Control_c, 0, 64, 51
1, 397228, Control_c, 0, 64, 79
1, 397242, Control_c, 0, 64, 127
1, 397249, Note_off_c, 0, 38, 63
1, 397309, Note_on_c, 0, 74, 65
1, 397313, Note_on_c, 0, 62, 72
1, 397314, Note_on_c, 0, 66, 63
1, 397338, Note_off_c, 0, 74, 67
1, 397339, Note_off_c, 0, 62, 69
1, 397346, Note_off_c, 0, 66, 65
1, 397397, Note_on_c, 0, 55, 70
1, 397401, Note_on_c, 0, 58, 87
1, 397403, Note_on_c, 0, 50, 69
1, 397428, Note_off_c, 0, 55, 66
1, 397434, Note_off_c, 0, 50, 66
1, 397435, Control_c, 0, 64, 81
1, 397447, Note_off_c, 0, 58, 63
1, 397450, Control_c, 0, 64, 59
1, 397465, Control_c, 0, 64, 42
1, 397476, Note_on_c, 0, 67, 75
1, 397479, Control_c, 0, 64, 35
1, 397492, Note_on_c, 0, 75, 67
1, 397494, Note_on_c, 0, 63, 54
1, 397494, Control_c, 0, 64, 27
1, 397500, Note_off_c, 0, 67, 69
1, 397509, Control_c, 0, 64, 23
1, 397516, Note_off_c, 0, 63, 59
1, 397521, Note_off_c, 0, 75, 67
1, 397524, Control_c, 0, 64, 22
1, 397584, Note_on_c, 0, 57, 80
1, 397585, Note_on_c, 0, 60, 80
1, 397586, Note_on_c, 0, 50, 75
1, 397611, Note_off_c, 0, 57, 70
1, 397611, Note_off_c, 0, 60, 69
1, 397619, Note_off_c, 0, 50, 67
1, 397661, Note_on_c, 0, 69, 75
1, 397667, Note_on_c, 0, 66, 63
1, 397669, Note_on_c, 0, 78, 77
1, 397684, Note_off_c, 0, 69, 69
1, 397698, Note_off_c, 0, 66, 65
1, 397701, Note_off_c, 0, 78, 66
1, 397762, Note_on_c, 0, 62, 77
1, 397764, Note_on_c, 0, 65, 74
1, 397789, Note_off_c, 0, 65, 67
1, 397793, Note_off_c, 0, 62, 66
1, 397804, Control_c, 0, 64, 23
1, 397843, Note_on_c, 0, 74, 71
1, 397843, Note_on_c, 0, 82, 83
1, 397848, Note_on_c, 0, 70, 70
1, 397868, Note_off_c, 0, 74, 68
1, 397869, Note_off_c, 0, 70, 65
1, 397888, Control_c, 0, 64, 23
1, 397904, Note_off_c, 0, 82, 64
1, 397932, Control_c, 0, 64, 24
1, 397941, Note_on_c, 0, 60, 82
1, 397945, Note_on_c, 0, 63, 77
1, 397970, Note_off_c, 0, 63, 68
1, 397971, Note_off_c, 0, 60, 68
1, 398030, Note_on_c, 0, 81, 79
1, 398031, Note_on_c, 0, 72, 79
1, 398034, Note_on_c, 0, 69, 84
1, 398062, Note_off_c, 0, 72, 65
1, 398068, Note_off_c, 0, 69, 64
1, 398070, Note_off_c, 0, 81, 64
1, 398124, Control_c, 0, 64, 23
1, 398126, Note_on_c, 0, 50, 80
1, 398127, Note_on_c, 0, 58, 76
1, 398128, Note_on_c, 0, 62, 72
1, 398139, Control_c, 0, 64, 19
1, 398154, Control_c, 0, 64, 13
1, 398159, Note_off_c, 0, 62, 66
1, 398169, Control_c, 0, 64, 12
1, 398180, Note_off_c, 0, 58, 64
1, 398181, Note_off_c, 0, 50, 63
1, 398183, Control_c, 0, 64, 11
1, 398198, Control_c, 0, 64, 0
1, 398202, Note_on_c, 0, 79, 83
1, 398207, Note_on_c, 0, 70, 72
1, 398208, Note_on_c, 0, 67, 80
1, 398238, Note_off_c, 0, 70, 66
1, 398239, Note_off_c, 0, 67, 66
1, 398243, Note_off_c, 0, 79, 66
1, 398297, Note_on_c, 0, 60, 83
1, 398299, Note_on_c, 0, 50, 82
1, 398304, Note_on_c, 0, 57, 73
1, 398335, Note_off_c, 0, 57, 68
1, 398335, Note_off_c, 0, 60, 64
1, 398344, Note_off_c, 0, 50, 61
1, 398394, Note_on_c, 0, 69, 70
1, 398395, Note_on_c, 0, 78, 79
1, 398399, Note_on_c, 0, 66, 77
1, 398420, Note_off_c, 0, 69, 68
1, 398445, Note_off_c, 0, 78, 61
1, 398458, Note_off_c, 0, 66, 61
1, 398463, Note_on_c, 0, 61, 64
1, 398471, Note_on_c, 0, 58, 63
1, 398478, Note_on_c, 0, 50, 69
1, 398493, Note_off_c, 0, 61, 66
1, 398524, Note_off_c, 0, 58, 62
1, 398539, Note_off_c, 0, 50, 65
1, 398555, Note_on_c, 0, 70, 83
1, 398557, Note_on_c, 0, 79, 78
1, 398562, Note_on_c, 0, 67, 74
1, 398587, Note_off_c, 0, 67, 68
1, 398597, Note_off_c, 0, 70, 63
1, 398600, Note_off_c, 0, 79, 64
1, 398651, Note_on_c, 0, 38, 91
1, 398651, Note_on_c, 0, 50, 106
1, 398666, Control_c, 0, 64, 64
1, 398678, Note_off_c, 0, 38, 67
1, 398681, Control_c, 0, 64, 127
1, 398691, Note_off_c, 0, 50, 68
1, 398740, Note_on_c, 0, 74, 75
1, 398743, Note_on_c, 0, 86, 73
1, 398751, Note_on_c, 0, 78, 65
1, 398774, Note_off_c, 0, 74, 58
1, 398778, Note_off_c, 0, 86, 64
1, 398786, Note_off_c, 0, 78, 64
1, 398837, Note_on_c, 0, 55, 84
1, 398840, Note_on_c, 0, 63, 89
1, 398842, Note_on_c, 0, 58, 80
1, 398899, Note_off_c, 0, 55, 58
1, 398900, Note_off_c, 0, 63, 61
1, 398904, Note_off_c, 0, 58, 60
1, 398943, Note_on_c, 0, 75, 80
1, 398943, Note_on_c, 0, 79, 68
1, 398943, Note_on_c, 0, 87, 84
1, 398964, Note_off_c, 0, 75, 70
1, 398964, Note_off_c, 0, 79, 65
1, 398979, Note_off_c, 0, 87, 61
1, 399006, Note_on_c, 0, 60, 81
1, 399010, Note_on_c, 0, 57, 84
1, 399012, Note_on_c, 0, 66, 88
1, 399037, Note_off_c, 0, 60, 66
1, 399047, Note_off_c, 0, 57, 65
1, 399050, Note_off_c, 0, 66, 52
1, 399053, Note_on_c, 0, 80, 60
1, 399092, Note_off_c, 0, 80, 0
1, 399107, Note_on_c, 0, 90, 83
1, 399108, Note_on_c, 0, 78, 76
1, 399109, Note_on_c, 0, 81, 71
1, 399119, Note_on_c, 0, 80, 17
1, 399133, Note_off_c, 0, 78, 70
1, 399133, Note_off_c, 0, 81, 70
1, 399147, Note_off_c, 0, 90, 64
1, 399159, Note_off_c, 0, 80, 40
1, 399178, Note_on_c, 0, 65, 66
1, 399190, Note_on_c, 0, 70, 93
1, 399192, Note_on_c, 0, 62, 80
1, 399232, Note_off_c, 0, 65, 63
1, 399263, Note_off_c, 0, 62, 54
1, 399265, Note_on_c, 0, 86, 91
1, 399271, Note_on_c, 0, 82, 84
1, 399272, Note_off_c, 0, 70, 63
1, 399274, Note_on_c, 0, 94, 84
1, 399304, Note_off_c, 0, 86, 66
1, 399321, Note_off_c, 0, 82, 64
1, 399350, Note_off_c, 0, 94, 62
1, 399369, Note_on_c, 0, 69, 100
1, 399371, Note_on_c, 0, 60, 87
1, 399384, Note_on_c, 0, 63, 81
1, 399400, Note_on_c, 0, 85, 38
1, 399414, Note_off_c, 0, 69, 66
1, 399420, Note_off_c, 0, 60, 67
1, 399426, Note_off_c, 0, 85, 54
1, 399427, Note_off_c, 0, 63, 64
1, 399459, Note_on_c, 0, 84, 93
1, 399459, Note_on_c, 0, 93, 89
1, 399462, Note_on_c, 0, 81, 90
1, 399490, Note_off_c, 0, 84, 68
1, 399500, Note_off_c, 0, 93, 67
1, 399503, Note_off_c, 0, 81, 66
1, 399548, Note_on_c, 0, 67, 83
1, 399548, Note_on_c, 0, 58, 79
1, 399548, Note_on_c, 0, 62, 70
1, 399549, Control_c, 0, 64, 72
1, 399564, Control_c, 0, 64, 40
1, 399579, Control_c, 0, 64, 0
1, 399592, Note_off_c, 0, 67, 65
1, 399597, Note_off_c, 0, 62, 64
1, 399606, Note_off_c, 0, 58, 61
1, 399620, Note_on_c, 0, 82, 70
1, 399622, Note_on_c, 0, 91, 88
1, 399626, Note_on_c, 0, 79, 90
1, 399661, Note_off_c, 0, 91, 66
1, 399667, Note_off_c, 0, 79, 64
1, 399671, Note_off_c, 0, 82, 66
1, 399720, Note_on_c, 0, 66, 89
1, 399721, Note_on_c, 0, 57, 81
1, 399721, Note_on_c, 0, 60, 78
1, 399769, Note_off_c, 0, 57, 64
1, 399775, Note_off_c, 0, 66, 62
1, 399796, Note_off_c, 0, 60, 58
1, 399796, Note_on_c, 0, 81, 38
1, 399801, Note_on_c, 0, 78, 93
1, 399809, Note_on_c, 0, 90, 83
1, 399832, Note_off_c, 0, 81, 66
1, 399850, Note_off_c, 0, 78, 64
1, 399867, Note_off_c, 0, 90, 63
1, 399894, Note_on_c, 0, 67, 85
1, 399896, Note_on_c, 0, 61, 78
1, 399899, Note_on_c, 0, 58, 77
1, 399921, Note_off_c, 0, 67, 63
1, 399951, Note_off_c, 0, 61, 64
1, 399955, Note_off_c, 0, 58, 66
1, 399970, Note_on_c, 0, 91, 86
1, 399971, Note_on_c, 0, 82, 73
1, 399980, Note_on_c, 0, 79, 76
1, 400007, Note_off_c, 0, 91, 66
1, 400016, Note_off_c, 0, 79, 66
1, 400016, Note_off_c, 0, 82, 64
1, 400050, Note_on_c, 0, 50, 109
1, 400051, Note_on_c, 0, 38, 93
1, 400068, Control_c, 0, 64, 56
1, 400078, Note_off_c, 0, 38, 65
1, 400082, Control_c, 0, 64, 127
1, 400091, Note_off_c, 0, 50, 69
1, 400140, Note_on_c, 0, 86, 83
1, 400141, Note_on_c, 0, 74, 80
1, 400147, Note_on_c, 0, 78, 66
1, 400171, Note_off_c, 0, 74, 63
1, 400177, Note_off_c, 0, 78, 66
1, 400186, Note_off_c, 0, 86, 64
1, 400230, Note_on_c, 0, 55, 94
1, 400232, Note_on_c, 0, 63, 96
1, 400282, Note_off_c, 0, 55, 59
1, 400290, Note_off_c, 0, 63, 59
1, 400312, Note_on_c, 0, 79, 69
1, 400320, Note_on_c, 0, 75, 82
1, 400320, Poly_aftertouch_c, 0, 57, 127
1, 400325, Note_on_c, 0, 87, 76
1, 400348, Note_off_c, 0, 75, 62
1, 400348, Note_off_c, 0, 79, 66
1, 400357, Poly_aftertouch_c, 0, 57, 0
1, 400371, Note_off_c, 0, 87, 64
1, 400395, Note_on_c, 0, 57, 73
1, 400398, Note_on_c, 0, 60, 76
1, 400399, Note_on_c, 0, 66, 90
1, 400439, Note_off_c, 0, 60, 62
1, 400445, Note_off_c, 0, 57, 65
1, 400445, Note_off_c, 0, 66, 61
1, 400475, Note_on_c, 0, 81, 81
1, 400477, Note_on_c, 0, 90, 85
1, 400478, Note_on_c, 0, 78, 84
1, 400493, Note_on_c, 0, 87, 56
1, 400503, Note_off_c, 0, 78, 67
1, 400508, Note_off_c, 0, 81, 65
1, 400511, Poly_aftertouch_c, 0, 65, 0
1, 400514, Note_off_c, 0, 87, 63
1, 400528, Note_off_c, 0, 90, 65
1, 400561, Note_on_c, 0, 65, 80
1, 400564, Control_c, 0, 64, 79
1, 400570, Note_on_c, 0, 70, 100
1, 400575, Note_on_c, 0, 62, 83
1, 400578, Control_c, 0, 64, 49
1, 400593, Control_c, 0, 64, 44
1, 400608, Control_c, 0, 64, 63
1, 400620, Note_off_c, 0, 65, 63
1, 400623, Control_c, 0, 64, 95
1, 400633, Note_on_c, 0, 94, 82
1, 400634, Note_on_c, 0, 82, 80
1, 400634, Note_on_c, 0, 86, 74
1, 400638, Control_c, 0, 64, 127
1, 400642, Note_off_c, 0, 70, 65
1, 400648, Note_off_c, 0, 62, 61
1, 400684, Note_off_c, 0, 86, 64
1, 400710, Note_off_c, 0, 82, 64
1, 400726, Note_off_c, 0, 94, 64
1, 400739, Note_on_c, 0, 69, 96
1, 400741, Note_on_c, 0, 60, 91
1, 400744, Note_on_c, 0, 63, 83
1, 400783, Note_off_c, 0, 69, 67
1, 400797, Note_off_c, 0, 60, 64
1, 400803, Note_off_c, 0, 63, 63
1, 400812, Note_on_c, 0, 84, 97
1, 400813, Note_on_c, 0, 93, 93
1, 400817, Note_on_c, 0, 81, 92
1, 400863, Note_off_c, 0, 84, 64
1, 400866, Note_off_c, 0, 93, 64
1, 400899, Note_off_c, 0, 81, 64
1, 400913, Note_on_c, 0, 62, 90
1, 400914, Note_on_c, 0, 67, 99
1, 400917, Note_on_c, 0, 58, 93
1, 400965, Note_off_c, 0, 67, 66
1, 400981, Note_off_c, 0, 62, 55
1, 400991, Note_on_c, 0, 91, 95
1, 400992, Note_on_c, 0, 82, 102
1, 400993, Note_off_c, 0, 58, 63
1, 400995, Note_on_c, 0, 79, 96
1, 401033, Note_off_c, 0, 91, 67
1, 401045, Note_off_c, 0, 79, 60
1, 401071, Note_off_c, 0, 82, 64
1, 401082, Note_on_c, 0, 66, 98
1, 401086, Note_on_c, 0, 60, 85
1, 401091, Note_on_c, 0, 58, 61
1, 401096, Note_on_c, 0, 57, 85
1, 401117, Note_off_c, 0, 58, 65
1, 401139, Note_off_c, 0, 57, 61
1, 401145, Note_on_c, 0, 81, 91
1, 401147, Note_on_c, 0, 78, 97
1, 401150, Note_on_c, 0, 90, 99
1, 401151, Note_off_c, 0, 60, 63
1, 401155, Note_off_c, 0, 66, 60
1, 401187, Note_off_c, 0, 81, 65
1, 401248, Note_off_c, 0, 78, 61
1, 401253, Control_c, 0, 64, 75
1, 401255, Note_on_c, 0, 61, 86
1, 401257, Note_on_c, 0, 58, 89
1, 401258, Note_on_c, 0, 67, 101
1, 401261, Note_off_c, 0, 90, 61
1, 401268, Control_c, 0, 64, 23
1, 401283, Control_c, 0, 64, 0
1, 401334, Note_on_c, 0, 82, 105
1, 401334, Note_on_c, 0, 91, 109
1, 401334, Note_on_c, 0, 79, 106
1, 401357, Control_c, 0, 64, 54
1, 401361, Note_on_c, 0, 89, 53
1, 401372, Control_c, 0, 64, 93
1, 401376, Note_off_c, 0, 91, 69
1, 401379, Note_off_c, 0, 82, 68
1, 401380, Note_off_c, 0, 79, 68
1, 401382, Note_off_c, 0, 67, 65
1, 401383, Note_off_c, 0, 89, 40
1, 401387, Control_c, 0, 64, 127
1, 401393, Note_off_c, 0, 61, 67
1, 401393, Note_off_c, 0, 58, 67
1, 401884, Control_c, 0, 64, 68
1, 401898, Control_c, 0, 64, 0
1, 401957, Control_c, 0, 67, 21
1, 401972, Control_c, 0, 67, 42
1, 401987, Control_c, 0, 67, 64
1, 402002, Control_c, 0, 67, 86
1, 402017, Control_c, 0, 67, 111
1, 402031, Control_c, 0, 67, 127
1, 402345, Note_on_c, 0, 62, 69
1, 402376, Note_off_c, 0, 62, 65
1, 402434, Note_on_c, 0, 62, 64
1, 402455, Note_off_c, 0, 62, 65
1, 402500, Note_on_c, 0, 62, 60
1, 402520, Note_off_c, 0, 62, 65
1, 402574, Note_on_c, 0, 50, 65
1, 402575, Note_on_c, 0, 60, 72
1, 402577, Note_on_c, 0, 62, 76
1, 402583, Note_on_c, 0, 57, 67
1, 402601, Note_off_c, 0, 50, 66
1, 402601, Note_off_c, 0, 60, 68
1, 402604, Note_off_c, 0, 62, 67
1, 402611, Note_off_c, 0, 57, 67
1, 402648, Note_on_c, 0, 64, 69
1, 402678, Note_off_c, 0, 64, 64
1, 402708, Note_on_c, 0, 66, 69
1, 402741, Note_off_c, 0, 66, 63
1, 402785, Note_on_c, 0, 67, 75
1, 402809, Note_off_c, 0, 67, 69
1, 402862, Note_on_c, 0, 67, 61
1, 402887, Note_off_c, 0, 67, 63
1, 402931, Note_on_c, 0, 67, 66
1, 402960, Note_off_c, 0, 67, 66
1, 402998, Note_on_c, 0, 58, 68
1, 403005, Note_on_c, 0, 50, 51
1, 403006, Note_on_c, 0, 62, 55
1, 403010, Note_on_c, 0, 67, 75
1, 403023, Note_off_c, 0, 58, 67
1, 403029, Note_off_c, 0, 62, 62
1, 403032, Note_off_c, 0, 50, 53
1, 403037, Note_off_c, 0, 67, 64
1, 403075, Note_on_c, 0, 69, 76
1, 403109, Note_off_c, 0, 69, 65
1, 403137, Note_on_c, 0, 70, 69
1, 403164, Note_off_c, 0, 70, 68
1, 403219, Note_on_c, 0, 69, 72
1, 403243, Note_off_c, 0, 69, 64
1, 403268, Note_on_c, 0, 70, 59
1, 403316, Note_on_c, 0, 50, 53
1, 403330, Note_off_c, 0, 70, 62
1, 403334, Note_on_c, 0, 54, 63
1, 403342, Note_on_c, 0, 69, 67
1, 403355, Note_off_c, 0, 50, 64
1, 403381, Control_c, 0, 64, 49
1, 403385, Note_off_c, 0, 54, 64
1, 403386, Note_off_c, 0, 69, 64
1, 403396, Control_c, 0, 64, 59
1, 403411, Note_on_c, 0, 60, 68
1, 403411, Control_c, 0, 64, 63
1, 403425, Note_on_c, 0, 63, 65
1, 403425, Note_on_c, 0, 69, 64
1, 403426, Control_c, 0, 64, 65
1, 403436, Note_off_c, 0, 60, 64
1, 403441, Control_c, 0, 64, 66
1, 403444, Note_off_c, 0, 63, 63
1, 403456, Note_off_c, 0, 69, 68
1, 403456, Control_c, 0, 64, 65
1, 403471, Control_c, 0, 64, 60
1, 403486, Control_c, 0, 64, 50
1, 403492, Note_on_c, 0, 70, 69
1, 403501, Control_c, 0, 64, 40
1, 403516, Control_c, 0, 64, 29
1, 403530, Control_c, 0, 64, 0
1, 403537, Note_off_c, 0, 70, 59
1, 403559, Note_on_c, 0, 69, 79
1, 403593, Note_off_c, 0, 69, 65
1, 403623, Note_on_c, 0, 67, 77
1, 403663, Note_off_c, 0, 67, 60
1, 403695, Note_on_c, 0, 70, 74
1, 403738, Note_off_c, 0, 70, 62
1, 403767, Note_on_c, 0, 67, 74
1, 403790, Note_off_c, 0, 67, 69
1, 403819, Note_on_c, 0, 58, 71
1, 403829, Note_on_c, 0, 50, 46
1, 403837, Note_on_c, 0, 63, 88
1, 403838, Note_on_c, 0, 55, 41
1, 403851, Note_off_c, 0, 58, 66
1, 403857, Note_off_c, 0, 50, 58
1, 403857, Note_off_c, 0, 63, 70
1, 403877, Note_off_c, 0, 55, 52
1, 403906, Note_on_c, 0, 63, 95
1, 403935, Note_off_c, 0, 63, 58
1, 403997, Note_on_c, 0, 63, 77
1, 404021, Note_off_c, 0, 63, 67
1, 404047, Note_on_c, 0, 62, 83
1, 404068, Note_off_c, 0, 62, 72
1, 404118, Note_on_c, 0, 62, 89
1, 404142, Note_off_c, 0, 62, 64
1, 404198, Note_on_c, 0, 62, 66
1, 404228, Note_off_c, 0, 62, 64
1, 404253, Note_on_c, 0, 57, 68
1, 404259, Note_on_c, 0, 60, 62
1, 404264, Note_on_c, 0, 50, 53
1, 404265, Note_on_c, 0, 62, 77
1, 404278, Note_off_c, 0, 60, 65
1, 404282, Note_off_c, 0, 57, 66
1, 404288, Note_off_c, 0, 50, 58
1, 404300, Note_off_c, 0, 62, 61
1, 404338, Note_on_c, 0, 64, 78
1, 404374, Note_off_c, 0, 64, 61
1, 404391, Note_on_c, 0, 66, 73
1, 404432, Note_off_c, 0, 66, 61
1, 404465, Note_on_c, 0, 67, 80
1, 404486, Note_off_c, 0, 67, 70
1, 404541, Note_on_c, 0, 67, 67
1, 404570, Note_off_c, 0, 67, 65
1, 404634, Poly_aftertouch_c, 0, 67, 0
1, 404690, Note_on_c, 0, 67, 72
1, 404694, Note_on_c, 0, 58, 69
1, 404699, Note_on_c, 0, 50, 61
1, 404699, Note_on_c, 0, 62, 61
1, 404720, Note_off_c, 0, 62, 63
1, 404723, Note_off_c, 0, 50, 60
1, 404723, Note_off_c, 0, 58, 66
1, 404723, Note_off_c, 0, 67, 59
1, 404756, Note_on_c, 0, 69, 74
1, 404793, Note_off_c, 0, 69, 64
1, 404814, Note_on_c, 0, 70, 67
1, 404839, Note_off_c, 0, 70, 69
1, 404887, Note_on_c, 0, 69, 76
1, 404913, Note_off_c, 0, 69, 65
1, 404944, Note_on_c, 0, 70, 64
1, 404977, Note_off_c, 0, 70, 62
1, 405003, Note_on_c, 0, 50, 40
1, 405021, Note_on_c, 0, 69, 69
1, 405027, Note_on_c, 0, 54, 66
1, 405042, Note_off_c, 0, 50, 62
1, 405054, Note_off_c, 0, 69, 62
1, 405057, Control_c, 0, 64, 23
1, 405072, Control_c, 0, 64, 45
1, 405079, Note_on_c, 0, 60, 78
1, 405079, Note_off_c, 0, 54, 62
1, 405084, Note_on_c, 0, 69, 66
1, 405087, Control_c, 0, 64, 57
1, 405102, Control_c, 0, 64, 61
1, 405108, Note_on_c, 0, 63, 47
1, 405115, Note_off_c, 0, 60, 63
1, 405116, Control_c, 0, 64, 63
1, 405118, Note_off_c, 0, 69, 64
1, 405131, Control_c, 0, 64, 64
1, 405137, Note_off_c, 0, 63, 52
1, 405146, Control_c, 0, 64, 65
1, 405149, Note_on_c, 0, 70, 77
1, 405161, Control_c, 0, 64, 66
1, 405161, Control_c, 0, 67, 98
1, 405175, Control_c, 0, 67, 54
1, 405190, Control_c, 0, 64, 67
1, 405190, Control_c, 0, 67, 16
1, 405205, Control_c, 0, 64, 70
1, 405205, Control_c, 0, 67, 0
1, 405219, Note_off_c, 0, 70, 60
1, 405220, Control_c, 0, 64, 73
1, 405235, Control_c, 0, 64, 74
1, 405236, Note_on_c, 0, 69, 76
1, 405249, Control_c, 0, 64, 73
1, 405264, Control_c, 0, 64, 71
1, 405266, Note_off_c, 0, 69, 67
1, 405275, Note_on_c, 0, 55, 65
1, 405279, Control_c, 0, 64, 67
1, 405286, Note_on_c, 0, 58, 52
1, 405287, Note_on_c, 0, 67, 84
1, 405292, Note_on_c, 0, 62, 23
1, 405294, Control_c, 0, 64, 62
1, 405305, Note_off_c, 0, 55, 66
1, 405309, Control_c, 0, 64, 56
1, 405311, Note_off_c, 0, 58, 52
1, 405323, Control_c, 0, 64, 51
1, 405331, Note_off_c, 0, 62, 39
1, 405338, Control_c, 0, 64, 48
1, 405340, Note_off_c, 0, 67, 62
1, 405351, Note_on_c, 0, 70, 85
1, 405353, Control_c, 0, 64, 44
1, 405375, Control_c, 0, 64, 37
1, 405390, Control_c, 0, 64, 18
1, 405405, Control_c, 0, 64, 0
1, 405424, Note_on_c, 0, 74, 78
1, 405433, Note_off_c, 0, 70, 63
1, 405471, Note_on_c, 0, 43, 75
1, 405472, Note_on_c, 0, 79, 95
1, 405478, Note_on_c, 0, 55, 83
1, 405478, Note_on_c, 0, 67, 83
1, 405483, Note_off_c, 0, 74, 66
1, 405497, Note_off_c, 0, 43, 65
1, 405498, Note_off_c, 0, 67, 71
1, 405501, Note_off_c, 0, 79, 70
1, 405502, Note_off_c, 0, 55, 70
1, 405503, Note_on_c, 0, 76, 37
1, 405504, Note_off_c, 0, 76, 127
1, 405597, Control_c, 0, 67, 52
1, 405612, Control_c, 0, 67, 113
1, 405627, Control_c, 0, 67, 127
1, 405701, Control_c, 0, 64, 17
1, 405716, Control_c, 0, 64, 34
1, 405731, Control_c, 0, 64, 53
1, 405734, Note_on_c, 0, 86, 77
1, 405746, Control_c, 0, 64, 66
1, 405747, Note_on_c, 0, 50, 53
1, 405756, Note_on_c, 0, 62, 56
1, 405757, Note_on_c, 0, 74, 41
1, 405758, Note_off_c, 0, 86, 69
1, 405760, Control_c, 0, 64, 77
1, 405772, Note_off_c, 0, 50, 62
1, 405775, Control_c, 0, 64, 100
1, 405781, Note_off_c, 0, 62, 63
1, 405782, Note_off_c, 0, 74, 38
1, 405790, Control_c, 0, 64, 127
1, 405985, Note_on_c, 0, 74, 64
1, 405996, Note_on_c, 0, 62, 47
1, 405998, Control_c, 0, 64, 77
1, 406009, Note_on_c, 0, 69, 26
1, 406013, Control_c, 0, 64, 55
1, 406020, Note_off_c, 0, 74, 61
1, 406026, Note_off_c, 0, 62, 49
1, 406028, Control_c, 0, 64, 0
1, 406045, Note_off_c, 0, 69, 39
1, 406056, Note_on_c, 0, 76, 70
1, 406090, Note_off_c, 0, 76, 64
1, 406107, Note_on_c, 0, 78, 71
1, 406154, Note_off_c, 0, 78, 65
1, 406172, Note_on_c, 0, 79, 79
1, 406193, Note_off_c, 0, 79, 71
1, 406240, Note_on_c, 0, 79, 80
1, 406260, Note_off_c, 0, 79, 66
1, 406301, Note_on_c, 0, 79, 88
1, 406339, Note_off_c, 0, 79, 65
1, 406375, Note_on_c, 0, 79, 71
1, 406383, Note_on_c, 0, 70, 62
1, 406386, Note_on_c, 0, 74, 56
1, 406395, Note_on_c, 0, 62, 36
1, 406404, Note_off_c, 0, 74, 61
1, 406410, Note_off_c, 0, 70, 66
1, 406422, Note_off_c, 0, 79, 63
1, 406431, Note_off_c, 0, 62, 34
1, 406438, Note_on_c, 0, 81, 82
1, 406480, Note_off_c, 0, 81, 66
1, 406503, Note_on_c, 0, 82, 76
1, 406528, Note_off_c, 0, 82, 67
1, 406572, Note_on_c, 0, 81, 73
1, 406595, Note_off_c, 0, 81, 70
1, 406628, Note_on_c, 0, 82, 69
1, 406655, Note_on_c, 0, 62, 46
1, 406682, Note_off_c, 0, 82, 56
1, 406682, Note_off_c, 0, 62, 56
1, 406683, Note_on_c, 0, 66, 55
1, 406712, Note_on_c, 0, 81, 69
1, 406738, Note_off_c, 0, 66, 63
1, 406747, Note_off_c, 0, 81, 62
1, 406763, Note_on_c, 0, 72, 59
1, 406765, Note_on_c, 0, 75, 64
1, 406782, Note_on_c, 0, 81, 61
1, 406783, Note_off_c, 0, 75, 64
1, 406789, Note_off_c, 0, 72, 66
1, 406810, Note_off_c, 0, 81, 68
1, 406841, Note_on_c, 0, 82, 75
1, 406905, Note_off_c, 0, 82, 64
1, 406925, Note_on_c, 0, 81, 69
1, 406949, Note_off_c, 0, 81, 70
1, 406976, Note_on_c, 0, 79, 73
1, 407012, Note_off_c, 0, 79, 63
1, 407035, Note_on_c, 0, 82, 74
1, 407073, Note_off_c, 0, 82, 64
1, 407114, Note_on_c, 0, 79, 53
1, 407133, Note_off_c, 0, 79, 62
1, 407165, Note_on_c, 0, 70, 63
1, 407168, Note_on_c, 0, 62, 45
1, 407170, Note_on_c, 0, 75, 77
1, 407193, Note_off_c, 0, 75, 67
1, 407201, Note_off_c, 0, 70, 63
1, 407204, Note_off_c, 0, 62, 63
1, 407242, Note_on_c, 0, 75, 79
1, 407263, Note_off_c, 0, 75, 68
1, 407305, Note_on_c, 0, 75, 79
1, 407336, Note_off_c, 0, 75, 64
1, 407371, Note_on_c, 0, 74, 85
1, 407394, Note_off_c, 0, 74, 67
1, 407438, Note_on_c, 0, 74, 80
1, 407471, Note_off_c, 0, 74, 60
1, 407519, Note_on_c, 0, 74, 68
1, 407565, Note_off_c, 0, 74, 0
1, 407584, Note_on_c, 0, 69, 63
1, 407586, Note_on_c, 0, 62, 49
1, 407587, Note_on_c, 0, 72, 61
1, 407603, Poly_aftertouch_c, 0, 74, 127
1, 407605, Note_off_c, 0, 72, 65
1, 407609, Note_off_c, 0, 69, 64
1, 407610, Note_off_c, 0, 62, 58
1, 407643, Poly_aftertouch_c, 0, 74, 0
1, 407667, Note_on_c, 0, 76, 77
1, 407705, Note_off_c, 0, 76, 65
1, 407722, Note_on_c, 0, 78, 70
1, 407758, Note_off_c, 0, 78, 60
1, 407789, Note_on_c, 0, 79, 70
1, 407805, Note_on_c, 0, 77, 49
1, 407816, Note_off_c, 0, 79, 68
1, 407831, Note_off_c, 0, 77, 39
1, 407864, Note_on_c, 0, 79, 68
1, 407889, Note_off_c, 0, 79, 66
1, 407932, Note_on_c, 0, 79, 74
1, 407958, Note_off_c, 0, 79, 67
1, 408002, Note_on_c, 0, 79, 75
1, 408011, Note_on_c, 0, 70, 70
1, 408018, Note_on_c, 0, 74, 55
1, 408022, Note_on_c, 0, 62, 42
1, 408036, Note_off_c, 0, 74, 60
1, 408037, Note_off_c, 0, 70, 68
1, 408038, Note_off_c, 0, 79, 64
1, 408049, Note_off_c, 0, 62, 53
1, 408071, Note_on_c, 0, 81, 73
1, 408111, Note_off_c, 0, 81, 64
1, 408130, Note_on_c, 0, 82, 75
1, 408156, Note_off_c, 0, 82, 66
1, 408202, Note_on_c, 0, 81, 72
1, 408227, Note_off_c, 0, 81, 71
1, 408249, Note_on_c, 0, 82, 76
1, 408285, Note_off_c, 0, 82, 60
1, 408303, Note_on_c, 0, 62, 42
1, 408330, Note_on_c, 0, 66, 58
1, 408333, Note_on_c, 0, 81, 69
1, 408367, Note_off_c, 0, 62, 61
1, 408371, Control_c, 0, 64, 12
1, 408374, Note_off_c, 0, 81, 61
1, 408386, Control_c, 0, 64, 48
1, 408400, Control_c, 0, 64, 55
1, 408401, Note_on_c, 0, 81, 70
1, 408406, Note_on_c, 0, 72, 78
1, 408411, Note_on_c, 0, 75, 77
1, 408415, Control_c, 0, 64, 58
1, 408420, Note_off_c, 0, 66, 55
1, 408430, Control_c, 0, 64, 60
1, 408443, Note_off_c, 0, 81, 64
1, 408445, Control_c, 0, 64, 61
1, 408447, Note_off_c, 0, 72, 63
1, 408453, Note_off_c, 0, 75, 62
1, 408460, Note_on_c, 0, 82, 76
1, 408460, Control_c, 0, 64, 63
1, 408474, Control_c, 0, 64, 64
1, 408474, Control_c, 0, 67, 103
1, 408489, Control_c, 0, 64, 66
1, 408489, Control_c, 0, 67, 70
1, 408504, Control_c, 0, 64, 67
1, 408504, Control_c, 0, 67, 39
1, 408519, Control_c, 0, 64, 68
1, 408519, Control_c, 0, 67, 9
1, 408524, Note_off_c, 0, 82, 62
1, 408533, Note_on_c, 0, 81, 76
1, 408534, Control_c, 0, 67, 0
1, 408563, Control_c, 0, 64, 68
1, 408578, Control_c, 0, 64, 67
1, 408581, Note_off_c, 0, 81, 64
1, 408592, Control_c, 0, 64, 66
1, 408595, Note_on_c, 0, 67, 71
1, 408599, Note_on_c, 0, 79, 85
1, 408601, Note_on_c, 0, 70, 69
1, 408607, Control_c, 0, 64, 64
1, 408621, Note_on_c, 0, 74, 18
1, 408622, Note_off_c, 0, 67, 68
1, 408622, Control_c, 0, 64, 62
1, 408624, Note_off_c, 0, 70, 68
1, 408637, Control_c, 0, 64, 58
1, 408646, Note_off_c, 0, 79, 62
1, 408652, Control_c, 0, 64, 54
1, 408655, Note_off_c, 0, 74, 33
1, 408663, Note_on_c, 0, 82, 84
1, 408667, Control_c, 0, 64, 49
1, 408682, Control_c, 0, 64, 40
1, 408697, Control_c, 0, 64, 9
1, 408712, Control_c, 0, 64, 0
1, 408730, Note_on_c, 0, 86, 80
1, 408737, Note_off_c, 0, 82, 63
1, 408791, Note_on_c, 0, 91, 95
1, 408797, Note_off_c, 0, 86, 63
1, 408802, Note_on_c, 0, 79, 73
1, 408803, Note_on_c, 0, 67, 70
1, 408807, Note_on_c, 0, 55, 71
1, 408817, Note_off_c, 0, 79, 70
1, 408822, Note_off_c, 0, 91, 70
1, 408828, Note_off_c, 0, 67, 68
1, 408843, Note_off_c, 0, 55, 66
1, 408859, Control_c, 0, 67, 59
1, 408874, Control_c, 0, 67, 127
1, 408963, Control_c, 0, 64, 11
1, 408978, Control_c, 0, 64, 33
1, 408992, Control_c, 0, 64, 44
1, 409008, Control_c, 0, 64, 54
1, 409023, Control_c, 0, 64, 62
1, 409026, Note_on_c, 0, 50, 48
1, 409038, Control_c, 0, 64, 66
1, 409053, Control_c, 0, 64, 70
1, 409068, Control_c, 0, 64, 74
1, 409069, Note_off_c, 0, 50, 63
1, 409079, Note_on_c, 0, 62, 25
1, 409080, Note_on_c, 0, 86, 56
1, 409082, Control_c, 0, 64, 82
1, 409097, Control_c, 0, 64, 99
1, 409120, Control_c, 0, 64, 127
1, 409127, Note_off_c, 0, 62, 41
1, 409154, Note_off_c, 0, 86, 54
1, 409168, Note_on_c, 0, 98, 60
1, 409242, Note_off_c, 0, 98, 51
1, 409256, Note_on_c, 0, 88, 63
1, 409284, Note_on_c, 0, 69, 59
1, 409302, Note_on_c, 0, 72, 29
1, 409305, Note_off_c, 0, 88, 63
1, 409316, Note_on_c, 0, 74, 24
1, 409329, Note_off_c, 0, 69, 60
1, 409335, Note_off_c, 0, 72, 53
1, 409343, Note_on_c, 0, 98, 59
1, 409351, Note_off_c, 0, 74, 39
1, 409371, Note_off_c, 0, 98, 53
1, 409397, Note_on_c, 0, 90, 78
1, 409445, Control_c, 0, 64, 110
1, 409453, Note_off_c, 0, 90, 62
1, 409460, Control_c, 0, 64, 96
1, 409470, Note_on_c, 0, 98, 75
1, 409475, Control_c, 0, 64, 101
1, 409490, Control_c, 0, 64, 112
1, 409495, Note_on_c, 0, 50, 62
1, 409504, Control_c, 0, 64, 127
1, 409515, Note_on_c, 0, 62, 55
1, 409536, Note_off_c, 0, 50, 60
1, 409537, Note_on_c, 0, 91, 74
1, 409541, Note_off_c, 0, 98, 62
1, 409555, Note_off_c, 0, 62, 62
1, 409606, Note_off_c, 0, 91, 63
1, 409619, Note_on_c, 0, 98, 72
1, 409687, Note_on_c, 0, 93, 73
1, 409688, Note_off_c, 0, 98, 62
1, 409721, Note_off_c, 0, 93, 65
1, 409732, Note_on_c, 0, 67, 58
1, 409736, Note_on_c, 0, 70, 57
1, 409736, Note_on_c, 0, 74, 61
1, 409763, Note_on_c, 0, 98, 59
1, 409768, Note_off_c, 0, 74, 66
1, 409773, Note_off_c, 0, 70, 64
1, 409774, Note_off_c, 0, 67, 62
1, 409823, Note_off_c, 0, 98, 66
1, 409829, Note_on_c, 0, 94, 75
1, 409862, Note_on_c, 0, 86, 38
1, 409889, Note_off_c, 0, 86, 51
1, 409902, Note_off_c, 0, 94, 61
1, 409910, Note_on_c, 0, 98, 70
1, 409913, Control_c, 0, 64, 95
1, 409928, Control_c, 0, 64, 80
1, 409943, Control_c, 0, 64, 79
1, 409958, Control_c, 0, 64, 84
1, 409959, Note_off_c, 0, 98, 63
1, 409964, Note_on_c, 0, 50, 38
1, 409972, Control_c, 0, 64, 95
1, 409974, Note_on_c, 0, 62, 54
1, 409976, Note_on_c, 0, 93, 78
1, 409982, Note_on_c, 0, 86, 61
1, 409987, Control_c, 0, 64, 127
1, 410018, Note_off_c, 0, 50, 50
1, 410018, Note_off_c, 0, 86, 62
1, 410030, Note_off_c, 0, 62, 61
1, 410037, Note_off_c, 0, 93, 66
1, 410047, Note_on_c, 0, 98, 77
1, 410062, Poly_aftertouch_c, 0, 52, 0
1, 410101, Note_off_c, 0, 98, 63
1, 410118, Note_on_c, 0, 94, 84
1, 410140, Note_on_c, 0, 86, 61
1, 410174, Note_off_c, 0, 86, 63
1, 410188, Note_off_c, 0, 94, 64
1, 410193, Note_on_c, 0, 74, 64
1, 410195, Note_on_c, 0, 66, 56
1, 410195, Note_on_c, 0, 72, 61
1, 410199, Note_on_c, 0, 98, 84
1, 410229, Note_off_c, 0, 74, 64
1, 410232, Note_off_c, 0, 72, 62
1, 410257, Note_off_c, 0, 66, 62
1, 410264, Note_off_c, 0, 98, 63
1, 410271, Note_on_c, 0, 93, 80
1, 410286, Note_on_c, 0, 86, 64
1, 410317, Note_off_c, 0, 86, 64
1, 410326, Note_off_c, 0, 93, 65
1, 410344, Note_on_c, 0, 98, 81
1, 410372, Control_c, 0, 64, 86
1, 410387, Control_c, 0, 64, 72
1, 410396, Note_on_c, 0, 50, 68
1, 410399, Note_off_c, 0, 98, 64
1, 410402, Control_c, 0, 64, 71
1, 410406, Note_on_c, 0, 91, 81
1, 410413, Note_on_c, 0, 62, 60
1, 410417, Control_c, 0, 64, 73
1, 410426, Note_on_c, 0, 86, 59
1, 410432, Control_c, 0, 64, 82
1, 410432, Note_off_c, 0, 50, 62
1, 410446, Control_c, 0, 64, 99
1, 410457, Note_off_c, 0, 86, 66
1, 410458, Note_off_c, 0, 62, 61
1, 410461, Control_c, 0, 64, 127
1, 410477, Note_off_c, 0, 91, 64
1, 410479, Note_on_c, 0, 98, 78
1, 410556, Note_on_c, 0, 94, 81
1, 410556, Note_off_c, 0, 98, 61
1, 410566, Note_on_c, 0, 86, 61
1, 410599, Note_off_c, 0, 86, 65
1, 410636, Note_on_c, 0, 74, 66
1, 410638, Note_on_c, 0, 70, 61
1, 410642, Note_off_c, 0, 94, 62
1, 410643, Note_on_c, 0, 67, 60
1, 410656, Note_on_c, 0, 98, 69
1, 410668, Note_off_c, 0, 74, 62
1, 410681, Note_off_c, 0, 70, 56
1, 410682, Note_off_c, 0, 67, 63
1, 410722, Note_off_c, 0, 98, 65
1, 410726, Note_on_c, 0, 87, 82
1, 410786, Note_off_c, 0, 87, 64
1, 410810, Control_c, 0, 64, 109
1, 410821, Note_on_c, 0, 98, 71
1, 410825, Control_c, 0, 64, 78
1, 410840, Control_c, 0, 64, 67
1, 410855, Control_c, 0, 64, 66
1, 410858, Note_on_c, 0, 50, 61
1, 410869, Note_on_c, 0, 62, 55
1, 410870, Control_c, 0, 64, 69
1, 410872, Note_on_c, 0, 86, 84
1, 410885, Control_c, 0, 64, 73
1, 410889, Note_off_c, 0, 98, 61
1, 410900, Control_c, 0, 64, 81
1, 410910, Note_off_c, 0, 50, 63
1, 410914, Control_c, 0, 64, 94
1, 410928, Control_c, 0, 64, 122
1, 410932, Note_off_c, 0, 62, 60
1, 410935, Note_off_c, 0, 86, 64
1, 410942, Control_c, 0, 64, 127
1, 410967, Note_on_c, 0, 98, 76
1, 411025, Note_off_c, 0, 98, 61
1, 411043, Note_on_c, 0, 88, 79
1, 411090, Note_on_c, 0, 69, 59
1, 411094, Note_off_c, 0, 88, 66
1, 411105, Note_on_c, 0, 74, 46
1, 411114, Note_on_c, 0, 72, 53
1, 411122, Note_on_c, 0, 98, 90
1, 411138, Note_off_c, 0, 74, 54
1, 411141, Note_off_c, 0, 72, 62
1, 411152, Note_off_c, 0, 69, 63
1, 411175, Note_off_c, 0, 98, 65
1, 411190, Note_on_c, 0, 90, 93
1, 411246, Note_off_c, 0, 90, 64
1, 411268, Note_on_c, 0, 98, 88
1, 411268, Control_c, 0, 64, 103
1, 411283, Control_c, 0, 64, 76
1, 411298, Control_c, 0, 64, 67
1, 411310, Note_on_c, 0, 50, 66
1, 411313, Control_c, 0, 64, 68
1, 411318, Note_off_c, 0, 98, 62
1, 411320, Note_on_c, 0, 62, 50
1, 411324, Note_on_c, 0, 91, 94
1, 411327, Control_c, 0, 64, 74
1, 411342, Control_c, 0, 64, 85
1, 411347, Note_on_c, 0, 86, 67
1, 411353, Note_off_c, 0, 50, 59
1, 411365, Control_c, 0, 64, 112
1, 411372, Note_off_c, 0, 86, 65
1, 411379, Control_c, 0, 64, 127
1, 411392, Note_off_c, 0, 62, 61
1, 411396, Note_off_c, 0, 91, 64
1, 411403, Note_on_c, 0, 98, 73
1, 411436, Note_off_c, 0, 98, 62
1, 411476, Note_on_c, 0, 93, 90
1, 411496, Note_on_c, 0, 86, 42
1, 411521, Note_off_c, 0, 86, 56
1, 411533, Note_off_c, 0, 93, 65
1, 411536, Note_on_c, 0, 70, 67
1, 411543, Note_on_c, 0, 98, 85
1, 411550, Note_on_c, 0, 67, 65
1, 411550, Note_on_c, 0, 74, 63
1, 411579, Note_off_c, 0, 74, 66
1, 411597, Note_off_c, 0, 67, 60
1, 411599, Note_off_c, 0, 70, 62
1, 411600, Note_off_c, 0, 98, 65
1, 411621, Note_on_c, 0, 94, 95
1, 411630, Note_on_c, 0, 86, 72
1, 411668, Note_off_c, 0, 86, 63
1, 411698, Note_on_c, 0, 98, 85
1, 411698, Note_off_c, 0, 94, 64
1, 411721, Control_c, 0, 64, 80
1, 411734, Note_off_c, 0, 98, 62
1, 411736, Control_c, 0, 64, 66
1, 411751, Control_c, 0, 64, 63
1, 411760, Note_on_c, 0, 93, 100
1, 411761, Note_on_c, 0, 50, 70
1, 411765, Control_c, 0, 64, 67
1, 411771, Note_on_c, 0, 62, 60
1, 411772, Note_on_c, 0, 86, 86
1, 411780, Control_c, 0, 64, 76
1, 411795, Control_c, 0, 64, 89
1, 411803, Note_off_c, 0, 86, 63
1, 411809, Note_on_c, 0, 60, 27
1, 411810, Note_off_c, 0, 60, 127
1, 411810, Control_c, 0, 64, 127
1, 411810, Control_c, 0, 67, 100
1, 411812, Note_off_c, 0, 50, 61
1, 411824, Note_off_c, 0, 62, 62
1, 411824, Control_c, 0, 67, 62
1, 411830, Note_off_c, 0, 93, 65
1, 411834, Note_on_c, 0, 98, 91
1, 411839, Control_c, 0, 67, 24
1, 411854, Control_c, 0, 67, 0
1, 411880, Note_off_c, 0, 98, 65
1, 411909, Note_on_c, 0, 94, 104
1, 411915, Note_on_c, 0, 86, 86
1, 411956, Note_off_c, 0, 86, 63
1, 411982, Note_on_c, 0, 66, 70
1, 411985, Note_on_c, 0, 98, 94
1, 411986, Note_on_c, 0, 72, 61
1, 411991, Note_on_c, 0, 74, 64
1, 411992, Note_off_c, 0, 94, 64
1, 412022, Note_off_c, 0, 72, 66
1, 412022, Note_off_c, 0, 74, 65
1, 412032, Control_c, 0, 67, 8
1, 412044, Note_off_c, 0, 66, 62
1, 412047, Control_c, 0, 67, 9
1, 412047, Note_off_c, 0, 98, 65
1, 412049, Note_on_c, 0, 93, 90
1, 412053, Note_on_c, 0, 86, 90
1, 412062, Control_c, 0, 67, 9
1, 412107, Note_off_c, 0, 86, 63
1, 412128, Note_on_c, 0, 98, 93
1, 412129, Note_off_c, 0, 93, 65
1, 412172, Control_c, 0, 64, 76
1, 412182, Note_off_c, 0, 98, 65
1, 412187, Control_c, 0, 64, 59
1, 412201, Note_on_c, 0, 86, 98
1, 412201, Note_on_c, 0, 94, 100
1, 412202, Control_c, 0, 64, 57
1, 412202, Control_c, 0, 67, 9
1, 412213, Note_on_c, 0, 50, 81
1, 412217, Note_on_c, 0, 62, 76
1, 412218, Control_c, 0, 64, 64
1, 412218, Control_c, 0, 67, 8
1, 412232, Control_c, 0, 64, 75
1, 412232, Control_c, 0, 67, 0
1, 412247, Control_c, 0, 64, 127
1, 412250, Note_off_c, 0, 50, 62
1, 412259, Note_off_c, 0, 86, 65
1, 412273, Note_on_c, 0, 98, 97
1, 412274, Note_off_c, 0, 62, 61
1, 412295, Note_off_c, 0, 94, 64
1, 412355, Note_off_c, 0, 98, 67
1, 412366, Note_on_c, 0, 86, 97
1, 412369, Note_on_c, 0, 92, 68
1, 412369, Note_on_c, 0, 93, 73
1, 412418, Note_off_c, 0, 93, 61
1, 412420, Note_off_c, 0, 92, 58
1, 412425, Note_off_c, 0, 86, 64
1, 412429, Note_on_c, 0, 66, 75
1, 412430, Note_on_c, 0, 72, 63
1, 412435, Note_on_c, 0, 74, 75
1, 412441, Note_on_c, 0, 98, 100
1, 412497, Note_off_c, 0, 98, 67
1, 412519, Note_on_c, 0, 86, 95
1, 412589, Note_on_c, 0, 98, 93
1, 412593, Note_off_c, 0, 86, 61
1, 412613, Note_off_c, 0, 72, 60
1, 412632, Control_c, 0, 64, 86
1, 412634, Note_off_c, 0, 66, 62
1, 412637, Note_off_c, 0, 74, 59
1, 412647, Control_c, 0, 64, 62
1, 412647, Control_c, 0, 67, 9
1, 412662, Control_c, 0, 64, 51
1, 412662, Control_c, 0, 67, 10
1, 412677, Control_c, 0, 64, 56
1, 412677, Control_c, 0, 67, 11
1, 412692, Control_c, 0, 64, 63
1, 412706, Control_c, 0, 64, 68
1, 412709, Note_on_c, 0, 99, 89
1, 412718, Note_on_c, 0, 87, 83
1, 412721, Control_c, 0, 64, 83
1, 412721, Control_c, 0, 67, 11
1, 412733, Note_off_c, 0, 98, 65
1, 412736, Control_c, 0, 64, 127
1, 412736, Control_c, 0, 67, 13
1, 412751, Control_c, 0, 67, 14
1, 412766, Control_c, 0, 67, 15
1, 412780, Control_c, 0, 67, 16
1, 412810, Control_c, 0, 67, 16
1, 412812, Note_on_c, 0, 85, 80
1, 412825, Note_off_c, 0, 99, 63
1, 412825, Control_c, 0, 67, 17
1, 412825, Note_off_c, 0, 87, 64
1, 412879, Note_off_c, 0, 85, 64
1, 412906, Note_on_c, 0, 98, 89
1, 412911, Note_on_c, 0, 86, 81
1, 412936, Control_c, 0, 67, 16
1, 412941, Note_off_c, 0, 86, 64
1, 412949, Note_off_c, 0, 98, 65
1, 412951, Control_c, 0, 67, 16
1, 412965, Control_c, 0, 67, 15
1, 412982, Note_on_c, 0, 82, 18
1, 412984, Note_on_c, 0, 81, 79
1, 413011, Control_c, 0, 67, 14
1, 413021, Note_off_c, 0, 82, 41
1, 413036, Note_off_c, 0, 81, 63
1, 413041, Control_c, 0, 67, 14
1, 413062, Note_on_c, 0, 94, 91
1, 413073, Note_on_c, 0, 82, 80
1, 413123, Note_off_c, 0, 82, 62
1, 413127, Note_off_c, 0, 94, 63
1, 413136, Note_on_c, 0, 80, 81
1, 413159, Control_c, 0, 67, 14
1, 413188, Note_off_c, 0, 80, 65
1, 413215, Note_on_c, 0, 93, 81
1, 413219, Control_c, 0, 67, 14
1, 413224, Note_on_c, 0, 81, 76
1, 413234, Control_c, 0, 67, 12
1, 413248, Note_off_c, 0, 81, 70
1, 413248, Control_c, 0, 67, 11
1, 413254, Note_off_c, 0, 93, 63
1, 413275, Note_on_c, 0, 74, 72
1, 413278, Control_c, 0, 67, 10
1, 413293, Control_c, 0, 67, 9
1, 413308, Control_c, 0, 67, 9
1, 413325, Note_off_c, 0, 74, 63
1, 413352, Control_c, 0, 67, 8
1, 413361, Note_on_c, 0, 87, 92
1, 413363, Note_on_c, 0, 75, 87
1, 413396, Control_c, 0, 67, 0
1, 413421, Note_off_c, 0, 75, 60
1, 413421, Note_off_c, 0, 87, 62
1, 413443, Note_on_c, 0, 73, 83
1, 413496, Note_off_c, 0, 73, 63
1, 413515, Note_on_c, 0, 86, 85
1, 413517, Note_on_c, 0, 74, 85
1, 413555, Note_off_c, 0, 74, 63
1, 413559, Note_off_c, 0, 86, 63
1, 413585, Note_on_c, 0, 69, 82
1, 413641, Note_off_c, 0, 69, 64
1, 413673, Note_on_c, 0, 82, 89
1, 413677, Note_on_c, 0, 70, 85
1, 413720, Note_off_c, 0, 82, 64
1, 413731, Note_off_c, 0, 70, 62
1, 413741, Note_on_c, 0, 68, 87
1, 413801, Note_off_c, 0, 68, 59
1, 413815, Note_on_c, 0, 81, 87
1, 413817, Note_on_c, 0, 69, 86
1, 413854, Note_off_c, 0, 69, 62
1, 413856, Note_off_c, 0, 81, 65
1, 413880, Note_on_c, 0, 62, 84
1, 413922, Note_off_c, 0, 62, 65
1, 413955, Note_on_c, 0, 75, 92
1, 413958, Note_on_c, 0, 63, 89
1, 414004, Note_off_c, 0, 75, 62
1, 414007, Note_off_c, 0, 63, 63
1, 414029, Note_on_c, 0, 61, 91
1, 414088, Note_off_c, 0, 61, 63
1, 414096, Note_on_c, 0, 74, 92
1, 414099, Note_on_c, 0, 62, 87
1, 414134, Note_off_c, 0, 62, 68
1, 414137, Note_off_c, 0, 74, 66
1, 414163, Note_on_c, 0, 57, 92
1, 414220, Note_off_c, 0, 57, 66
1, 414239, Note_on_c, 0, 70, 95
1, 414242, Note_on_c, 0, 58, 92
1, 414292, Note_off_c, 0, 58, 64
1, 414293, Note_off_c, 0, 70, 61
1, 414310, Note_on_c, 0, 56, 94
1, 414382, Note_off_c, 0, 56, 62
1, 414387, Note_on_c, 0, 69, 99
1, 414390, Note_on_c, 0, 57, 94
1, 414423, Note_off_c, 0, 69, 66
1, 414425, Note_off_c, 0, 57, 66
1, 414438, Note_on_c, 0, 50, 89
1, 414485, Note_off_c, 0, 50, 65
1, 414524, Control_c, 0, 64, 80
1, 414528, Note_on_c, 0, 63, 95
1, 414529, Note_on_c, 0, 51, 104
1, 414539, Control_c, 0, 64, 71
1, 414554, Control_c, 0, 64, 76
1, 414569, Control_c, 0, 64, 94
1, 414572, Note_off_c, 0, 51, 67
1, 414575, Note_off_c, 0, 63, 63
1, 414584, Control_c, 0, 64, 127
1, 414590, Note_on_c, 0, 49, 99
1, 414647, Note_off_c, 0, 49, 65
1, 414670, Note_on_c, 0, 50, 95
1, 414671, Note_on_c, 0, 62, 93
1, 414703, Note_off_c, 0, 62, 69
1, 414709, Note_off_c, 0, 50, 68
1, 414726, Note_on_c, 0, 45, 88
1, 414790, Note_off_c, 0, 45, 64
1, 414826, Note_on_c, 0, 46, 93
1, 414828, Note_on_c, 0, 58, 98
1, 414873, Note_off_c, 0, 46, 63
1, 414873, Note_off_c, 0, 58, 63
1, 414903, Note_on_c, 0, 44, 88
1, 414951, Note_off_c, 0, 44, 60
1, 414959, Note_on_c, 0, 45, 82
1, 414961, Note_on_c, 0, 59, 82
1, 414969, Note_on_c, 0, 57, 78
1, 414980, Note_off_c, 0, 45, 71
1, 414986, Note_on_c, 0, 47, 48
1, 414999, Note_off_c, 0, 57, 67
1, 414999, Note_off_c, 0, 59, 66
1, 415015, Note_off_c, 0, 47, 58
1, 415044, Note_on_c, 0, 38, 93
1, 415120, Note_off_c, 0, 38, 63
1, 415124, Control_c, 0, 64, 86
1, 415129, Note_on_c, 0, 63, 88
1, 415130, Note_on_c, 0, 51, 96
1, 415139, Control_c, 0, 64, 65
1, 415154, Control_c, 0, 64, 61
1, 415169, Control_c, 0, 64, 63
1, 415183, Note_off_c, 0, 51, 64
1, 415183, Control_c, 0, 64, 67
1, 415190, Note_off_c, 0, 63, 62
1, 415198, Control_c, 0, 64, 79
1, 415212, Note_on_c, 0, 49, 92
1, 415213, Control_c, 0, 64, 127
1, 415299, Note_on_c, 0, 62, 98
1, 415299, Note_on_c, 0, 50, 94
1, 415306, Note_off_c, 0, 49, 62
1, 415332, Note_off_c, 0, 62, 67
1, 415338, Note_off_c, 0, 50, 66
1, 415352, Note_on_c, 0, 45, 79
1, 415415, Note_off_c, 0, 45, 65
1, 415434, Note_on_c, 0, 46, 87
1, 415436, Note_on_c, 0, 58, 95
1, 415477, Note_off_c, 0, 58, 65
1, 415483, Note_off_c, 0, 46, 65
1, 415492, Note_on_c, 0, 44, 83
1, 415553, Note_off_c, 0, 44, 63
1, 415568, Note_on_c, 0, 57, 86
1, 415582, Note_on_c, 0, 45, 55
1, 415583, Note_off_c, 0, 45, 127
1, 415609, Note_off_c, 0, 57, 66
1, 415615, Poly_aftertouch_c, 0, 45, 0
1, 415630, Note_on_c, 0, 50, 100
1, 415634, Note_on_c, 0, 38, 87
1, 415688, Control_c, 0, 64, 88
1, 415703, Control_c, 0, 64, 63
1, 415718, Control_c, 0, 64, 59
1, 415732, Control_c, 0, 64, 64
1, 415738, Note_off_c, 0, 38, 60
1, 415739, Note_off_c, 0, 50, 63
1, 415743, Note_on_c, 0, 51, 101
1, 415745, Note_on_c, 0, 63, 98
1, 415747, Control_c, 0, 64, 76
1, 415762, Control_c, 0, 64, 127
1, 415823, Note_off_c, 0, 63, 61
1, 415825, Note_off_c, 0, 51, 61
1, 415831, Note_on_c, 0, 49, 109
1, 415836, Control_c, 0, 64, 98
1, 415837, Note_on_c, 0, 37, 88
1, 415858, Control_c, 0, 64, 70
1, 415873, Control_c, 0, 64, 58
1, 415888, Control_c, 0, 64, 57
1, 415903, Control_c, 0, 64, 64
1, 415918, Control_c, 0, 64, 82
1, 415932, Control_c, 0, 64, 127
1, 415943, Note_on_c, 0, 50, 101
1, 415946, Note_on_c, 0, 62, 102
1, 415981, Note_off_c, 0, 37, 62
1, 415991, Control_c, 0, 64, 105
1, 415994, Note_off_c, 0, 49, 59
1, 416006, Control_c, 0, 64, 75
1, 416021, Note_off_c, 0, 50, 60
1, 416021, Control_c, 0, 64, 69
1, 416027, Note_off_c, 0, 62, 62
1, 416036, Control_c, 0, 64, 74
1, 416038, Note_on_c, 0, 48, 113
1, 416047, Note_on_c, 0, 36, 90
1, 416051, Control_c, 0, 64, 92
1, 416065, Control_c, 0, 64, 127
1, 416125, Note_off_c, 0, 48, 66
1, 416131, Note_off_c, 0, 36, 63
1, 416139, Note_on_c, 0, 50, 105
1, 416143, Note_on_c, 0, 62, 96
1, 416189, Note_on_c, 0, 60, 28
1, 416190, Note_off_c, 0, 60, 127
1, 416228, Note_off_c, 0, 50, 64
1, 416233, Note_on_c, 0, 46, 104
1, 416234, Note_off_c, 0, 62, 61
1, 416244, Note_on_c, 0, 34, 87
1, 416259, Control_c, 0, 64, 111
1, 416274, Control_c, 0, 64, 80
1, 416289, Control_c, 0, 64, 74
1, 416304, Control_c, 0, 64, 80
1, 416319, Control_c, 0, 64, 127
1, 416339, Note_on_c, 0, 50, 105
1, 416340, Note_on_c, 0, 62, 97
1, 416381, Note_off_c, 0, 46, 63
1, 416381, Note_off_c, 0, 50, 65
1, 416385, Note_on_c, 0, 37, 41
1, 416385, Note_off_c, 0, 34, 62
1, 416387, Note_off_c, 0, 62, 65
1, 416403, Note_on_c, 0, 36, 21
1, 416411, Note_off_c, 0, 37, 59
1, 416429, Note_off_c, 0, 36, 60
1, 416438, Note_on_c, 0, 45, 116
1, 416447, Note_on_c, 0, 33, 96
1, 416510, Poly_aftertouch_c, 0, 40, 127
1, 416531, Note_on_c, 0, 43, 33
1, 416532, Note_off_c, 0, 43, 127
1, 416557, Poly_aftertouch_c, 0, 40, 0
1, 416618, Note_off_c, 0, 33, 57
1, 416644, Note_off_c, 0, 45, 54
1, 416707, Note_on_c, 0, 38, 12
1, 416726, Control_c, 0, 64, 102
1, 416733, Note_on_c, 0, 43, 108
1, 416739, Note_on_c, 0, 58, 90
1, 416739, Note_on_c, 0, 67, 98
1, 416740, Note_on_c, 0, 55, 100
1, 416741, Control_c, 0, 64, 65
1, 416745, Note_on_c, 0, 31, 80
1, 416752, Note_on_c, 0, 29, 87
1, 416755, Control_c, 0, 64, 0
1, 416762, Note_on_c, 0, 41, 66
1, 416774, Note_on_c, 0, 64, 49
1, 416779, Note_off_c, 0, 29, 60
1, 416793, Note_off_c, 0, 58, 64
1, 416796, Note_off_c, 0, 41, 37
1, 416799, Note_off_c, 0, 55, 63
1, 416800, Note_off_c, 0, 38, 35
1, 416802, Note_off_c, 0, 64, 55
1, 416805, Note_on_c, 0, 57, 3
1, 416806, Note_off_c, 0, 57, 127
1, 416827, Note_off_c, 0, 67, 61
1, 416827, Poly_aftertouch_c, 0, 33, 127
1, 416833, Note_off_c, 0, 31, 64
1, 416853, Poly_aftertouch_c, 0, 33, 0
1, 416861, Note_off_c, 0, 43, 63
1, 416982, Note_on_c, 0, 62, 80
1, 416984, Note_on_c, 0, 42, 97
1, 416987, Note_on_c, 0, 57, 73
1, 416989, Note_on_c, 0, 30, 78
1, 416990, Note_on_c, 0, 69, 65
1, 416995, Note_on_c, 0, 71, 59
1, 417015, Note_off_c, 0, 71, 63
1, 417016, Note_off_c, 0, 57, 68
1, 417016, Note_off_c, 0, 69, 64
1, 417021, Note_off_c, 0, 62, 65
1, 417037, Note_off_c, 0, 42, 64
1, 417038, Note_off_c, 0, 30, 64
1, 417070, Note_on_c, 0, 70, 99
1, 417072, Note_on_c, 0, 58, 98
1, 417075, Note_on_c, 0, 43, 109
1, 417079, Note_on_c, 0, 63, 60
1, 417079, Note_on_c, 0, 31, 87
1, 417083, Note_on_c, 0, 62, 78
1, 417101, Note_on_c, 0, 38, 30
1, 417108, Note_off_c, 0, 62, 67
1, 417110, Note_off_c, 0, 63, 52
1, 417121, Note_off_c, 0, 58, 64
1, 417138, Note_off_c, 0, 70, 62
1, 417143, Note_off_c, 0, 38, 51
1, 417176, Note_off_c, 0, 31, 58
1, 417208, Note_off_c, 0, 43, 60
1, 417312, Note_on_c, 0, 45, 90
1, 417314, Note_on_c, 0, 33, 76
1, 417317, Note_on_c, 0, 60, 90
1, 417323, Note_on_c, 0, 72, 86
1, 417324, Note_on_c, 0, 65, 80
1, 417356, Note_off_c, 0, 33, 65
1, 417357, Note_on_c, 0, 39, 59
1, 417359, Note_off_c, 0, 65, 65
1, 417359, Note_off_c, 0, 72, 65
1, 417359, Note_off_c, 0, 60, 67
1, 417384, Note_off_c, 0, 39, 62
1, 417386, Note_off_c, 0, 45, 0
1, 417389, Note_on_c, 0, 34, 3
1, 417390, Note_off_c, 0, 34, 127
1, 417413, Note_on_c, 0, 46, 58
1, 417416, Note_on_c, 0, 74, 90
1, 417418, Note_on_c, 0, 34, 5
1, 417422, Note_on_c, 0, 43, 60
1, 417423, Poly_aftertouch_c, 0, 45, 127
1, 417424, Note_on_c, 0, 65, 83
1, 417426, Note_on_c, 0, 44, 52
1, 417427, Note_off_c, 0, 44, 127
1, 417427, Note_on_c, 0, 60, 82
1, 417429, Note_on_c, 0, 62, 79
1, 417429, Note_on_c, 0, 72, 79
1, 417441, Note_off_c, 0, 46, 37
1, 417451, Note_off_c, 0, 43, 38
1, 417453, Poly_aftertouch_c, 0, 45, 0
1, 417453, Note_off_c, 0, 72, 49
1, 417460, Note_off_c, 0, 62, 59
1, 417460, Note_off_c, 0, 60, 67
1, 417463, Note_off_c, 0, 34, 52
1, 417463, Note_off_c, 0, 65, 63
1, 417486, Note_off_c, 0, 74, 57
1, 417636, Note_on_c, 0, 70, 67
1, 417642, Note_on_c, 0, 50, 85
1, 417643, Note_on_c, 0, 62, 87
1, 417644, Note_on_c, 0, 58, 88
1, 417645, Note_on_c, 0, 65, 88
1, 417675, Note_off_c, 0, 62, 64
1, 417687, Note_off_c, 0, 50, 63
1, 417690, Note_off_c, 0, 65, 66
1, 417695, Note_off_c, 0, 70, 64
1, 417716, Note_off_c, 0, 58, 62
1, 417738, Note_on_c, 0, 53, 91
1, 417738, Note_on_c, 0, 60, 96
1, 417740, Note_on_c, 0, 65, 98
1, 417740, Note_on_c, 0, 77, 104
1, 417745, Note_on_c, 0, 69, 90
1, 417754, Note_off_c, 0, 60, 74
1, 417780, Note_off_c, 0, 77, 67
1, 417782, Note_off_c, 0, 65, 66
1, 417796, Note_off_c, 0, 53, 66
1, 417797, Note_off_c, 0, 69, 65
1, 417985, Note_on_c, 0, 41, 90
1, 417985, Note_on_c, 0, 69, 80
1, 417988, Note_on_c, 0, 75, 91
1, 417988, Note_on_c, 0, 29, 74
1, 417990, Note_on_c, 0, 63, 89
1, 418018, Note_off_c, 0, 41, 66
1, 418018, Note_off_c, 0, 29, 63
1, 418021, Note_off_c, 0, 63, 65
1, 418033, Note_off_c, 0, 75, 65
1, 418046, Note_off_c, 0, 69, 63
1, 418103, Note_on_c, 0, 46, 99
1, 418103, Note_on_c, 0, 62, 95
1, 418104, Note_on_c, 0, 74, 96
1, 418105, Note_on_c, 0, 34, 87
1, 418112, Note_on_c, 0, 70, 87
1, 418216, Note_off_c, 0, 74, 65
1, 418224, Note_off_c, 0, 34, 63
1, 418224, Control_c, 0, 64, 72
1, 418233, Note_off_c, 0, 46, 64
1, 418239, Control_c, 0, 64, 127
1, 418243, Note_off_c, 0, 62, 62
1, 418256, Note_off_c, 0, 70, 67
1, 418503, Note_on_c, 0, 65, 69
1, 418503, Note_on_c, 0, 70, 93
1, 418510, Note_on_c, 0, 62, 83
1, 418511, Note_on_c, 0, 58, 82
1, 418512, Note_on_c, 0, 53, 72
1, 418513, Note_on_c, 0, 50, 74
1, 418547, Note_off_c, 0, 65, 62
1, 418549, Note_off_c, 0, 62, 61
1, 418597, Note_off_c, 0, 70, 68
1, 418668, Note_off_c, 0, 50, 60
1, 418702, Note_off_c, 0, 58, 63
1, 418703, Note_off_c, 0, 53, 64
1, 418757, Control_c, 0, 64, 114
1, 418772, Control_c, 0, 64, 68
1, 418787, Control_c, 0, 64, 44
1, 418802, Control_c, 0, 64, 0
1, 418911, Note_on_c, 0, 89, 52
1, 418943, Control_c, 0, 67, 32
1, 418957, Control_c, 0, 67, 68
1, 418972, Control_c, 0, 67, 112
1, 418987, Control_c, 0, 67, 127
1, 418989, Note_on_c, 0, 101, 56
1, 419002, Control_c, 0, 64, 25
1, 419017, Control_c, 0, 64, 42
1, 419031, Note_on_c, 0, 49, 33
1, 419031, Control_c, 0, 64, 55
1, 419041, Note_off_c, 0, 89, 45
1, 419046, Control_c, 0, 64, 62
1, 419061, Control_c, 0, 64, 65
1, 419066, Note_off_c, 0, 101, 57
1, 419067, Note_on_c, 0, 99, 50
1, 419076, Control_c, 0, 64, 67
1, 419091, Control_c, 0, 64, 69
1, 419106, Note_on_c, 0, 97, 58
1, 419106, Control_c, 0, 64, 71
1, 419121, Control_c, 0, 64, 77
1, 419126, Note_off_c, 0, 99, 51
1, 419136, Control_c, 0, 64, 86
1, 419147, Note_on_c, 0, 56, 45
1, 419150, Control_c, 0, 64, 93
1, 419157, Note_off_c, 0, 49, 34
1, 419162, Note_on_c, 0, 92, 66
1, 419165, Control_c, 0, 64, 98
1, 419174, Note_off_c, 0, 97, 64
1, 419180, Control_c, 0, 64, 103
1, 419194, Note_off_c, 0, 92, 65
1, 419194, Control_c, 0, 64, 112
1, 419209, Control_c, 0, 64, 127
1, 419216, Note_on_c, 0, 89, 66
1, 419236, Note_off_c, 0, 56, 63
1, 419239, Note_off_c, 0, 89, 65
1, 419252, Note_on_c, 0, 61, 45
1, 419282, Note_off_c, 0, 61, 61
1, 419285, Note_on_c, 0, 87, 60
1, 419312, Note_on_c, 0, 65, 48
1, 419330, Note_on_c, 0, 85, 68
1, 419379, Note_off_c, 0, 87, 60
1, 419392, Note_off_c, 0, 85, 65
1, 419398, Note_on_c, 0, 80, 65
1, 419401, Note_off_c, 0, 65, 51
1, 419403, Control_c, 0, 64, 122
1, 419421, Note_on_c, 0, 68, 48
1, 419428, Note_on_c, 0, 77, 47
1, 419433, Control_c, 0, 64, 127
1, 419437, Note_off_c, 0, 80, 62
1, 419450, Note_off_c, 0, 77, 56
1, 419458, Note_off_c, 0, 68, 64
1, 419670, Note_on_c, 0, 89, 53
1, 419751, Note_on_c, 0, 101, 56
1, 419806, Note_on_c, 0, 49, 33
1, 419806, Note_on_c, 0, 99, 58
1, 419814, Note_off_c, 0, 101, 57
1, 419822, Note_off_c, 0, 89, 32
1, 419851, Note_on_c, 0, 97, 63
1, 419860, Note_off_c, 0, 49, 57
1, 419864, Note_off_c, 0, 99, 54
1, 419896, Note_on_c, 0, 56, 50
1, 419904, Note_on_c, 0, 92, 73
1, 419926, Note_off_c, 0, 97, 64
1, 419946, Note_off_c, 0, 92, 62
1, 419961, Note_on_c, 0, 89, 75
1, 419974, Note_off_c, 0, 56, 63
1, 419984, Note_off_c, 0, 89, 69
1, 420002, Note_on_c, 0, 61, 40
1, 420027, Note_off_c, 0, 61, 59
1, 420028, Note_on_c, 0, 87, 69
1, 420054, Note_on_c, 0, 65, 53
1, 420078, Note_on_c, 0, 85, 70
1, 420120, Note_off_c, 0, 87, 64
1, 420135, Note_on_c, 0, 80, 65
1, 420137, Note_off_c, 0, 85, 66
1, 420150, Note_on_c, 0, 68, 59
1, 420155, Note_off_c, 0, 65, 46
1, 420160, Note_on_c, 0, 77, 57
1, 420178, Note_off_c, 0, 77, 61
1, 420184, Note_off_c, 0, 68, 65
1, 420184, Note_off_c, 0, 80, 62
1, 420379, Note_on_c, 0, 89, 60
1, 420456, Note_on_c, 0, 101, 57
1, 420531, Note_on_c, 0, 49, 45
1, 420536, Note_on_c, 0, 99, 57
1, 420538, Note_off_c, 0, 101, 56
1, 420570, Note_on_c, 0, 97, 63
1, 420574, Note_off_c, 0, 99, 61
1, 420595, Note_off_c, 0, 49, 58
1, 420605, Note_off_c, 0, 89, 27
1, 420618, Note_on_c, 0, 56, 55
1, 420638, Note_on_c, 0, 92, 74
1, 420645, Note_off_c, 0, 97, 64
1, 420671, Note_off_c, 0, 92, 60
1, 420693, Note_on_c, 0, 89, 69
1, 420697, Note_off_c, 0, 56, 63
1, 420710, Note_off_c, 0, 89, 67
1, 420713, Note_on_c, 0, 61, 52
1, 420747, Note_off_c, 0, 61, 64
1, 420768, Note_on_c, 0, 65, 54
1, 420770, Note_on_c, 0, 87, 60
1, 420808, Note_on_c, 0, 85, 70
1, 420853, Note_off_c, 0, 87, 62
1, 420858, Note_off_c, 0, 85, 65
1, 420866, Note_on_c, 0, 80, 60
1, 420877, Note_on_c, 0, 77, 59
1, 420881, Note_on_c, 0, 68, 61
1, 420885, Control_c, 0, 67, 94
1, 420894, Note_off_c, 0, 80, 64
1, 420900, Control_c, 0, 67, 39
1, 420906, Note_off_c, 0, 77, 64
1, 420914, Control_c, 0, 67, 0
1, 420915, Note_off_c, 0, 65, 31
1, 420931, Note_off_c, 0, 68, 60
1, 420990, Control_c, 0, 64, 105
1, 421005, Control_c, 0, 64, 67
1, 421019, Control_c, 0, 64, 43
1, 421034, Control_c, 0, 64, 0
1, 421193, Note_on_c, 0, 49, 107
1, 421199, Note_on_c, 0, 65, 94
1, 421199, Note_on_c, 0, 68, 93
1, 421200, Note_on_c, 0, 77, 93
1, 421203, Note_on_c, 0, 37, 91
1, 421222, Note_on_c, 0, 74, 58
1, 421226, Note_off_c, 0, 49, 67
1, 421234, Note_off_c, 0, 37, 58
1, 421234, Note_off_c, 0, 65, 66
1, 421243, Note_off_c, 0, 68, 64
1, 421251, Note_off_c, 0, 77, 60
1, 421252, Note_off_c, 0, 74, 63
1, 421283, Note_on_c, 0, 49, 110
1, 421291, Note_on_c, 0, 77, 89
1, 421292, Note_on_c, 0, 37, 91
1, 421294, Note_on_c, 0, 68, 89
1, 421294, Note_on_c, 0, 65, 97
1, 421325, Note_off_c, 0, 49, 68
1, 421334, Note_off_c, 0, 77, 69
1, 421336, Note_off_c, 0, 65, 65
1, 421351, Note_off_c, 0, 37, 61
1, 421351, Note_off_c, 0, 68, 64
1, 421513, Note_on_c, 0, 66, 33
1, 421523, Note_on_c, 0, 63, 83
1, 421523, Note_on_c, 0, 75, 80
1, 421526, Note_on_c, 0, 33, 70
1, 421526, Note_on_c, 0, 47, 83
1, 421528, Note_on_c, 0, 45, 77
1, 421547, Note_off_c, 0, 63, 68
1, 421550, Note_off_c, 0, 75, 64
1, 421551, Note_off_c, 0, 47, 68
1, 421558, Note_off_c, 0, 33, 64
1, 421558, Note_off_c, 0, 45, 66
1, 421562, Note_on_c, 0, 35, 31
1, 421563, Note_off_c, 0, 35, 127
1, 421574, Note_off_c, 0, 66, 64
1, 421604, Note_on_c, 0, 46, 111
1, 421610, Note_on_c, 0, 73, 84
1, 421613, Note_on_c, 0, 61, 91
1, 421613, Note_on_c, 0, 65, 88
1, 421614, Note_on_c, 0, 34, 89
1, 421639, Note_off_c, 0, 34, 68
1, 421643, Note_off_c, 0, 46, 67
1, 421660, Note_off_c, 0, 61, 61
1, 421674, Note_off_c, 0, 73, 62
1, 421685, Note_off_c, 0, 65, 58
1, 421751, Control_c, 0, 64, 11
1, 421797, Control_c, 0, 64, 9
1, 421812, Control_c, 0, 64, 0
1, 421853, Note_on_c, 0, 63, 93
1, 421854, Note_on_c, 0, 60, 92
1, 421856, Note_on_c, 0, 29, 77
1, 421858, Note_on_c, 0, 41, 90
1, 421859, Note_on_c, 0, 72, 78
1, 421880, Note_off_c, 0, 60, 67
1, 421883, Note_off_c, 0, 72, 65
1, 421885, Note_off_c, 0, 29, 64
1, 421887, Note_off_c, 0, 41, 69
1, 421894, Note_off_c, 0, 63, 66
1, 421900, Note_on_c, 0, 36, 44
1, 421936, Note_off_c, 0, 36, 53
1, 421947, Note_on_c, 0, 46, 121
1, 421947, Note_on_c, 0, 61, 97
1, 421950, Note_on_c, 0, 34, 86
1, 421953, Note_on_c, 0, 58, 91
1, 421956, Note_on_c, 0, 70, 87
1, 421974, Note_off_c, 0, 46, 69
1, 421977, Note_off_c, 0, 34, 69
1, 421979, Note_off_c, 0, 70, 66
1, 421987, Note_off_c, 0, 61, 68
1, 421991, Note_off_c, 0, 58, 60
1, 422307, Control_c, 0, 64, 41
1, 422322, Control_c, 0, 64, 127
1, 422324, Note_on_c, 0, 48, 105
1, 422325, Note_on_c, 0, 60, 94
1, 422326, Note_on_c, 0, 68, 104
1, 422327, Note_on_c, 0, 56, 102
1, 422328, Note_on_c, 0, 44, 94
1, 422329, Note_on_c, 0, 39, 85
1, 422344, Note_on_c, 0, 36, 67
1, 422368, Note_off_c, 0, 36, 59
1, 422368, Note_off_c, 0, 48, 66
1, 422385, Note_off_c, 0, 39, 63
1, 422393, Note_off_c, 0, 44, 65
1, 422563, Note_off_c, 0, 60, 60
1, 422578, Note_off_c, 0, 56, 62
1, 422617, Note_off_c, 0, 68, 61
1, 422731, Note_on_c, 0, 50, 97
1, 422731, Note_on_c, 0, 58, 105
1, 422731, Note_on_c, 0, 67, 100
1, 422731, Note_on_c, 0, 55, 105
1, 422735, Note_on_c, 0, 38, 78
1, 422735, Note_on_c, 0, 43, 88
1, 422735, Note_on_c, 0, 46, 88
1, 422746, Control_c, 0, 64, 54
1, 422761, Control_c, 0, 64, 0
1, 422772, Note_off_c, 0, 55, 67
1, 422781, Note_off_c, 0, 67, 65
1, 422781, Note_off_c, 0, 58, 67
1, 422785, Note_off_c, 0, 50, 64
1, 422792, Note_off_c, 0, 38, 62
1, 422805, Note_off_c, 0, 46, 60
1, 422805, Note_off_c, 0, 43, 62
1, 422984, Note_on_c, 0, 58, 91
1, 422986, Note_on_c, 0, 55, 86
1, 422987, Note_on_c, 0, 67, 95
1, 422990, Note_on_c, 0, 50, 79
1, 422993, Note_on_c, 0, 43, 73
1, 422994, Note_on_c, 0, 38, 69
1, 422999, Note_on_c, 0, 46, 62
1, 423009, Note_off_c, 0, 55, 71
1, 423013, Note_off_c, 0, 67, 63
1, 423018, Note_off_c, 0, 58, 65
1, 423018, Note_off_c, 0, 50, 68
1, 423026, Note_off_c, 0, 38, 64
1, 423026, Note_off_c, 0, 43, 67
1, 423027, Note_off_c, 0, 46, 66
1, 423067, Note_on_c, 0, 50, 100
1, 423067, Note_on_c, 0, 69, 101
1, 423068, Note_on_c, 0, 57, 97
1, 423070, Note_on_c, 0, 60, 93
1, 423074, Note_on_c, 0, 38, 81
1, 423074, Note_on_c, 0, 45, 89
1, 423076, Note_on_c, 0, 42, 81
1, 423110, Note_on_c, 0, 66, 26
1, 423111, Note_off_c, 0, 66, 127
1, 423114, Note_off_c, 0, 38, 62
1, 423114, Note_off_c, 0, 69, 64
1, 423121, Note_off_c, 0, 50, 62
1, 423121, Note_off_c, 0, 57, 61
1, 423127, Note_off_c, 0, 60, 64
1, 423132, Note_off_c, 0, 42, 62
1, 423132, Note_off_c, 0, 45, 63
1, 423304, Note_on_c, 0, 57, 94
1, 423306, Note_on_c, 0, 50, 79
1, 423306, Note_on_c, 0, 66, 88
1, 423308, Note_on_c, 0, 60, 58
1, 423323, Note_on_c, 0, 38, 61
1, 423330, Note_off_c, 0, 50, 67
1, 423342, Note_off_c, 0, 60, 67
1, 423347, Note_off_c, 0, 57, 66
1, 423354, Note_on_c, 0, 42, 15
1, 423362, Note_off_c, 0, 38, 61
1, 423362, Note_off_c, 0, 66, 64
1, 423392, Control_c, 0, 64, 64
1, 423404, Note_off_c, 0, 42, 30
1, 423407, Note_on_c, 0, 55, 108
1, 423407, Control_c, 0, 64, 103
1, 423407, Note_on_c, 0, 67, 100
1, 423410, Note_on_c, 0, 58, 96
1, 423416, Note_on_c, 0, 43, 96
1, 423417, Note_on_c, 0, 31, 91
1, 423422, Control_c, 0, 64, 127
1, 423439, Note_off_c, 0, 67, 67
1, 423440, Note_off_c, 0, 58, 64
1, 423443, Note_off_c, 0, 55, 65
1, 423469, Note_off_c, 0, 31, 63
1, 423470, Note_off_c, 0, 43, 63
1, 423628, Note_on_c, 0, 37, 69
1, 423653, Note_on_c, 0, 49, 44
1, 423676, Note_on_c, 0, 50, 65
1, 423682, Note_on_c, 0, 38, 81
1, 423704, Note_off_c, 0, 49, 64
1, 423708, Note_off_c, 0, 37, 60
1, 423720, Note_on_c, 0, 55, 96
1, 423731, Note_off_c, 0, 50, 64
1, 423739, Note_on_c, 0, 43, 94
1, 423747, Control_c, 0, 64, 93
1, 423756, Note_off_c, 0, 38, 62
1, 423762, Note_on_c, 0, 53, 29
1, 423762, Control_c, 0, 64, 0
1, 423768, Note_off_c, 0, 55, 67
1, 423775, Note_off_c, 0, 43, 69
1, 423796, Note_off_c, 0, 53, 33
1, 423987, Note_on_c, 0, 50, 88
1, 423990, Note_on_c, 0, 74, 95
1, 423991, Note_on_c, 0, 62, 89
1, 423999, Note_on_c, 0, 38, 69
1, 424013, Note_off_c, 0, 62, 68
1, 424018, Note_off_c, 0, 74, 67
1, 424022, Note_off_c, 0, 50, 67
1, 424027, Note_off_c, 0, 38, 64
1, 424078, Note_on_c, 0, 79, 106
1, 424081, Note_on_c, 0, 67, 103
1, 424081, Note_on_c, 0, 55, 104
1, 424094, Note_on_c, 0, 43, 91
1, 424122, Note_off_c, 0, 67, 68
1, 424126, Note_on_c, 0, 53, 36
1, 424127, Note_off_c, 0, 53, 127
1, 424128, Note_off_c, 0, 79, 65
1, 424134, Note_off_c, 0, 43, 63
1, 424134, Note_off_c, 0, 55, 66
1, 424320, Note_on_c, 0, 69, 89
1, 424320, Note_on_c, 0, 81, 93
1, 424321, Note_on_c, 0, 74, 89
1, 424323, Note_on_c, 0, 54, 96
1, 424329, Note_on_c, 0, 42, 74
1, 424351, Note_off_c, 0, 69, 67
1, 424353, Note_off_c, 0, 81, 69
1, 424360, Note_off_c, 0, 74, 66
1, 424364, Note_off_c, 0, 42, 67
1, 424372, Note_on_c, 0, 71, 16
1, 424373, Note_off_c, 0, 71, 127
1, 424373, Note_off_c, 0, 54, 65
1, 424407, Note_on_c, 0, 55, 94
1, 424411, Note_on_c, 0, 43, 87
1, 424411, Note_on_c, 0, 74, 90
1, 424412, Note_on_c, 0, 82, 103
1, 424415, Note_on_c, 0, 70, 104
1, 424444, Note_off_c, 0, 74, 64
1, 424453, Note_off_c, 0, 70, 68
1, 424463, Note_off_c, 0, 82, 64
1, 424482, Note_off_c, 0, 43, 63
1, 424492, Note_off_c, 0, 55, 58
1, 424640, Note_on_c, 0, 45, 74
1, 424642, Note_on_c, 0, 57, 90
1, 424642, Note_on_c, 0, 72, 93
1, 424642, Note_on_c, 0, 84, 91
1, 424653, Note_on_c, 0, 77, 77
1, 424662, Note_on_c, 0, 51, 73
1, 424669, Note_off_c, 0, 45, 65
1, 424673, Note_off_c, 0, 57, 68
1, 424677, Note_off_c, 0, 84, 68
1, 424677, Note_off_c, 0, 77, 68
1, 424682, Note_off_c, 0, 72, 64
1, 424687, Note_off_c, 0, 51, 67
1, 424731, Note_on_c, 0, 58, 112
1, 424734, Note_on_c, 0, 86, 104
1, 424736, Note_on_c, 0, 77, 98
1, 424737, Note_on_c, 0, 74, 101
1, 424741, Note_on_c, 0, 46, 73
1, 424742, Note_off_c, 0, 46, 127
1, 424755, Note_on_c, 0, 59, 70
1, 424769, Note_off_c, 0, 58, 67
1, 424775, Note_off_c, 0, 59, 64
1, 424775, Note_off_c, 0, 74, 64
1, 424779, Note_off_c, 0, 77, 64
1, 424812, Note_off_c, 0, 86, 59
1, 424969, Note_on_c, 0, 82, 90
1, 424972, Note_on_c, 0, 77, 87
1, 424975, Note_on_c, 0, 62, 77
1, 424975, Note_on_c, 0, 74, 83
1, 424981, Note_on_c, 0, 70, 78
1, 425002, Note_off_c, 0, 62, 65
1, 425008, Note_off_c, 0, 74, 63
1, 425015, Note_off_c, 0, 77, 65
1, 425017, Note_off_c, 0, 82, 66
1, 425044, Note_off_c, 0, 70, 63
1, 425061, Note_on_c, 0, 89, 105
1, 425062, Note_on_c, 0, 77, 98
1, 425065, Note_on_c, 0, 81, 97
1, 425066, Note_on_c, 0, 65, 90
1, 425068, Note_on_c, 0, 72, 95
1, 425095, Note_off_c, 0, 72, 67
1, 425102, Note_off_c, 0, 77, 68
1, 425108, Note_off_c, 0, 89, 65
1, 425109, Note_on_c, 0, 71, 36
1, 425110, Note_off_c, 0, 71, 127
1, 425113, Note_off_c, 0, 65, 67
1, 425118, Note_off_c, 0, 81, 67
1, 425294, Note_on_c, 0, 81, 68
1, 425302, Note_on_c, 0, 75, 91
1, 425303, Note_on_c, 0, 41, 80
1, 425304, Note_on_c, 0, 87, 90
1, 425307, Note_on_c, 0, 53, 89
1, 425332, Note_off_c, 0, 53, 69
1, 425334, Note_off_c, 0, 41, 65
1, 425341, Note_off_c, 0, 75, 66
1, 425350, Note_off_c, 0, 87, 66
1, 425363, Note_off_c, 0, 81, 66
1, 425402, Note_on_c, 0, 74, 99
1, 425405, Note_on_c, 0, 86, 100
1, 425407, Note_on_c, 0, 58, 108
1, 425409, Note_on_c, 0, 46, 95
1, 425411, Note_on_c, 0, 82, 90
1, 425452, Control_c, 0, 64, 58
1, 425467, Control_c, 0, 64, 127
1, 425491, Note_off_c, 0, 46, 64
1, 425499, Note_off_c, 0, 58, 65
1, 425505, Note_off_c, 0, 86, 65
1, 425525, Note_off_c, 0, 74, 61
1, 425545, Note_off_c, 0, 82, 66
1, 425792, Note_on_c, 0, 82, 97
1, 425794, Note_on_c, 0, 74, 87
1, 425798, Note_on_c, 0, 77, 86
1, 425800, Note_on_c, 0, 70, 85
1, 425803, Note_on_c, 0, 62, 75
1, 425806, Note_on_c, 0, 65, 76
1, 425841, Note_off_c, 0, 74, 64
1, 425855, Note_off_c, 0, 77, 63
1, 425884, Note_off_c, 0, 82, 69
1, 425887, Note_off_c, 0, 70, 63
1, 425912, Note_off_c, 0, 65, 62
1, 425920, Note_off_c, 0, 62, 65
1, 426039, Control_c, 0, 64, 65
1, 426054, Control_c, 0, 64, 0
1, 426054, Control_c, 0, 67, 42
1, 426068, Control_c, 0, 67, 81
1, 426083, Control_c, 0, 67, 127
1, 426098, Control_c, 0, 67, 127
1, 426174, Note_on_c, 0, 89, 39
1, 426250, Note_on_c, 0, 101, 59
1, 426260, Control_c, 0, 64, 24
1, 426275, Control_c, 0, 64, 47
1, 426290, Control_c, 0, 64, 57
1, 426305, Control_c, 0, 64, 60
1, 426320, Note_on_c, 0, 49, 9
1, 426320, Control_c, 0, 64, 62
1, 426331, Note_off_c, 0, 89, 37
1, 426341, Note_off_c, 0, 101, 57
1, 426342, Control_c, 0, 64, 63
1, 426357, Control_c, 0, 64, 66
1, 426364, Note_on_c, 0, 99, 41
1, 426372, Control_c, 0, 64, 68
1, 426379, Note_on_c, 0, 97, 56
1, 426387, Control_c, 0, 64, 72
1, 426392, Note_off_c, 0, 99, 54
1, 426402, Control_c, 0, 64, 76
1, 426416, Control_c, 0, 64, 78
1, 426431, Control_c, 0, 64, 80
1, 426442, Note_on_c, 0, 92, 66
1, 426443, Note_off_c, 0, 49, 39
1, 426446, Control_c, 0, 64, 81
1, 426449, Note_off_c, 0, 97, 64
1, 426456, Note_on_c, 0, 56, 42
1, 426460, Control_c, 0, 64, 82
1, 426474, Note_off_c, 0, 92, 64
1, 426496, Note_on_c, 0, 89, 58
1, 426505, Control_c, 0, 64, 81
1, 426520, Control_c, 0, 64, 82
1, 426529, Note_off_c, 0, 89, 66
1, 426534, Control_c, 0, 64, 82
1, 426539, Note_off_c, 0, 56, 63
1, 426549, Control_c, 0, 64, 83
1, 426564, Control_c, 0, 64, 84
1, 426571, Note_on_c, 0, 87, 61
1, 426579, Note_on_c, 0, 61, 17
1, 426620, Note_off_c, 0, 61, 40
1, 426632, Note_on_c, 0, 85, 59
1, 426633, Note_on_c, 0, 65, 40
1, 426639, Control_c, 0, 64, 83
1, 426703, Note_off_c, 0, 87, 38
1, 426705, Note_on_c, 0, 80, 57
1, 426711, Note_off_c, 0, 65, 51
1, 426737, Note_on_c, 0, 77, 53
1, 426741, Note_on_c, 0, 68, 44
1, 426742, Note_off_c, 0, 85, 41
1, 426758, Note_off_c, 0, 77, 58
1, 426768, Note_off_c, 0, 80, 64
1, 426773, Control_c, 0, 64, 83
1, 426773, Note_off_c, 0, 68, 55
1, 426818, Control_c, 0, 64, 83
1, 426877, Control_c, 0, 64, 84
1, 426891, Control_c, 0, 64, 85
1, 426906, Control_c, 0, 64, 87
1, 426921, Control_c, 0, 64, 88
1, 426936, Control_c, 0, 64, 89
1, 426951, Control_c, 0, 64, 91
1, 426965, Control_c, 0, 64, 93
1, 426973, Note_on_c, 0, 89, 55
1, 426980, Control_c, 0, 64, 94
1, 426995, Control_c, 0, 64, 95
1, 427010, Control_c, 0, 64, 96
1, 427025, Control_c, 0, 64, 98
1, 427039, Control_c, 0, 64, 100
1, 427054, Control_c, 0, 64, 105
1, 427056, Note_on_c, 0, 101, 60
1, 427069, Control_c, 0, 64, 107
1, 427091, Control_c, 0, 64, 108
1, 427104, Note_on_c, 0, 49, 40
1, 427106, Control_c, 0, 64, 108
1, 427121, Control_c, 0, 64, 111
1, 427131, Note_off_c, 0, 101, 62
1, 427136, Control_c, 0, 64, 115
1, 427142, Note_on_c, 0, 99, 58
1, 427151, Control_c, 0, 64, 117
1, 427165, Control_c, 0, 64, 119
1, 427173, Note_off_c, 0, 49, 56
1, 427174, Note_on_c, 0, 97, 65
1, 427180, Control_c, 0, 64, 122
1, 427191, Note_off_c, 0, 99, 54
1, 427195, Control_c, 0, 64, 127
1, 427198, Note_on_c, 0, 56, 48
1, 427237, Note_on_c, 0, 92, 70
1, 427242, Note_off_c, 0, 89, 39
1, 427252, Note_off_c, 0, 97, 63
1, 427272, Note_off_c, 0, 92, 61
1, 427282, Note_on_c, 0, 89, 67
1, 427291, Note_off_c, 0, 56, 63
1, 427307, Note_on_c, 0, 61, 43
1, 427315, Note_off_c, 0, 89, 65
1, 427345, Note_off_c, 0, 61, 61
1, 427363, Note_on_c, 0, 87, 65
1, 427369, Note_on_c, 0, 65, 51
1, 427413, Note_on_c, 0, 85, 66
1, 427452, Note_off_c, 0, 87, 60
1, 427476, Note_off_c, 0, 85, 65
1, 427476, Note_on_c, 0, 80, 59
1, 427481, Note_on_c, 0, 68, 51
1, 427490, Note_on_c, 0, 77, 56
1, 427509, Note_off_c, 0, 65, 32
1, 427514, Note_off_c, 0, 77, 60
1, 427526, Note_off_c, 0, 68, 62
1, 427530, Note_off_c, 0, 80, 61
1, 427712, Note_on_c, 0, 89, 62
1, 427796, Note_on_c, 0, 101, 61
1, 427852, Note_on_c, 0, 49, 39
1, 427877, Note_on_c, 0, 99, 58
1, 427886, Note_off_c, 0, 101, 56
1, 427919, Note_on_c, 0, 97, 62
1, 427930, Note_off_c, 0, 49, 57
1, 427943, Note_off_c, 0, 99, 56
1, 427963, Note_on_c, 0, 56, 51
1, 427984, Note_on_c, 0, 92, 73
1, 427992, Note_off_c, 0, 89, 37
1, 428000, Note_off_c, 0, 97, 64
1, 428025, Note_off_c, 0, 92, 59
1, 428028, Note_on_c, 0, 89, 67
1, 428034, Note_off_c, 0, 56, 63
1, 428049, Note_on_c, 0, 61, 47
1, 428056, Note_off_c, 0, 89, 68
1, 428075, Note_off_c, 0, 61, 61
1, 428099, Note_on_c, 0, 65, 56
1, 428108, Note_on_c, 0, 87, 67
1, 428152, Note_on_c, 0, 85, 68
1, 428201, Note_off_c, 0, 87, 59
1, 428213, Note_on_c, 0, 68, 54
1, 428215, Note_off_c, 0, 85, 65
1, 428219, Note_on_c, 0, 77, 60
1, 428219, Note_on_c, 0, 80, 58
1, 428241, Note_off_c, 0, 80, 64
1, 428250, Note_off_c, 0, 65, 37
1, 428250, Note_off_c, 0, 77, 65
1, 428271, Control_c, 0, 67, 84
1, 428274, Note_off_c, 0, 68, 63
1, 428285, Control_c, 0, 67, 32
1, 428300, Control_c, 0, 67, 0
1, 428359, Control_c, 0, 64, 101
1, 428374, Control_c, 0, 64, 77
1, 428389, Control_c, 0, 64, 66
1, 428403, Control_c, 0, 64, 62
1, 428418, Control_c, 0, 64, 59
1, 428433, Control_c, 0, 64, 55
1, 428448, Control_c, 0, 64, 50
1, 428463, Control_c, 0, 64, 41
1, 428478, Control_c, 0, 64, 21
1, 428493, Control_c, 0, 64, 0
1, 428543, Note_on_c, 0, 49, 106
1, 428550, Note_on_c, 0, 65, 102
1, 428551, Note_on_c, 0, 68, 93
1, 428552, Note_on_c, 0, 77, 92
1, 428555, Note_on_c, 0, 37, 91
1, 428570, Note_on_c, 0, 74, 57
1, 428585, Note_off_c, 0, 49, 67
1, 428587, Note_off_c, 0, 37, 69
1, 428593, Note_off_c, 0, 65, 66
1, 428598, Note_off_c, 0, 68, 66
1, 428600, Note_off_c, 0, 74, 63
1, 428603, Note_off_c, 0, 77, 63
1, 428605, Note_on_c, 0, 76, 33
1, 428606, Note_off_c, 0, 76, 127
1, 428639, Note_on_c, 0, 49, 105
1, 428645, Note_on_c, 0, 37, 95
1, 428651, Note_on_c, 0, 65, 96
1, 428651, Note_on_c, 0, 68, 93
1, 428651, Note_on_c, 0, 77, 91
1, 428673, Note_on_c, 0, 74, 53
1, 428681, Note_off_c, 0, 49, 68
1, 428691, Note_off_c, 0, 74, 61
1, 428692, Note_off_c, 0, 37, 66
1, 428694, Note_off_c, 0, 65, 63
1, 428696, Note_off_c, 0, 77, 64
1, 428719, Note_off_c, 0, 68, 63
1, 428821, Note_on_c, 0, 66, 28
1, 428862, Note_off_c, 0, 66, 0
1, 428862, Note_on_c, 0, 66, 56
1, 428865, Note_on_c, 0, 75, 88
1, 428865, Note_on_c, 0, 45, 97
1, 428868, Note_on_c, 0, 63, 93
1, 428871, Note_on_c, 0, 33, 83
1, 428899, Note_off_c, 0, 33, 66
1, 428899, Note_off_c, 0, 63, 63
1, 428904, Note_on_c, 0, 73, 23
1, 428908, Note_off_c, 0, 45, 66
1, 428908, Note_off_c, 0, 75, 62
1, 428913, Note_off_c, 0, 66, 63
1, 428920, Note_on_c, 0, 39, 38
1, 428954, Note_off_c, 0, 73, 0
1, 428954, Note_on_c, 0, 73, 79
1, 428955, Note_on_c, 0, 46, 111
1, 428956, Note_on_c, 0, 65, 95
1, 428957, Note_on_c, 0, 61, 97
1, 428961, Note_on_c, 0, 34, 96
1, 428962, Note_off_c, 0, 39, 46
1, 428989, Note_off_c, 0, 46, 69
1, 429002, Note_off_c, 0, 61, 62
1, 429003, Note_off_c, 0, 34, 61
1, 429010, Note_off_c, 0, 73, 65
1, 429012, Note_off_c, 0, 65, 61
1, 429191, Note_on_c, 0, 60, 89
1, 429193, Note_on_c, 0, 63, 83
1, 429196, Note_on_c, 0, 29, 78
1, 429196, Note_on_c, 0, 41, 84
1, 429198, Note_on_c, 0, 72, 72
1, 429213, Note_off_c, 0, 72, 67
1, 429214, Note_off_c, 0, 60, 69
1, 429222, Note_off_c, 0, 29, 66
1, 429222, Note_off_c, 0, 41, 66
1, 429230, Note_off_c, 0, 63, 64
1, 429262, Note_on_c, 0, 32, 3
1, 429279, Note_on_c, 0, 61, 101
1, 429281, Note_on_c, 0, 46, 114
1, 429283, Note_on_c, 0, 58, 97
1, 429283, Note_on_c, 0, 34, 93
1, 429286, Note_on_c, 0, 70, 90
1, 429303, Note_off_c, 0, 32, 27
1, 429304, Note_off_c, 0, 70, 73
1, 429307, Note_off_c, 0, 34, 70
1, 429311, Note_off_c, 0, 46, 66
1, 429312, Note_off_c, 0, 58, 60
1, 429317, Note_off_c, 0, 61, 67
1, 429666, Note_on_c, 0, 48, 93
1, 429667, Note_on_c, 0, 68, 103
1, 429668, Note_on_c, 0, 56, 100
1, 429669, Note_on_c, 0, 60, 92
1, 429671, Note_on_c, 0, 44, 82
1, 429679, Note_on_c, 0, 39, 73
1, 429679, Control_c, 0, 64, 75
1, 429693, Control_c, 0, 64, 127
1, 429699, Note_on_c, 0, 36, 47
1, 429703, Note_on_c, 0, 35, 45
1, 429706, Note_off_c, 0, 48, 64
1, 429711, Note_on_c, 0, 47, 22
1, 429712, Note_off_c, 0, 47, 127
1, 429718, Note_off_c, 0, 39, 65
1, 429718, Note_off_c, 0, 44, 64
1, 429727, Note_on_c, 0, 38, 27
1, 429735, Note_off_c, 0, 36, 51
1, 429742, Note_off_c, 0, 35, 50
1, 429769, Note_off_c, 0, 38, 45
1, 429904, Note_off_c, 0, 56, 62
1, 429904, Note_off_c, 0, 60, 62
1, 429941, Note_off_c, 0, 68, 59
1, 430007, Note_on_c, 0, 44, 5
1, 430036, Note_off_c, 0, 44, 0
1, 430049, Note_on_c, 0, 67, 100
1, 430050, Note_on_c, 0, 55, 103
1, 430051, Note_on_c, 0, 58, 94
1, 430054, Note_on_c, 0, 50, 89
1, 430058, Note_on_c, 0, 46, 89
1, 430059, Note_on_c, 0, 38, 73
1, 430061, Note_on_c, 0, 43, 79
1, 430064, Control_c, 0, 64, 108
1, 430067, Poly_aftertouch_c, 0, 44, 0
1, 430087, Control_c, 0, 64, 66
1, 430097, Note_off_c, 0, 55, 66
1, 430102, Note_off_c, 0, 58, 67
1, 430102, Control_c, 0, 64, 0
1, 430102, Note_off_c, 0, 67, 66
1, 430108, Note_off_c, 0, 50, 64
1, 430110, Note_off_c, 0, 38, 62
1, 430123, Note_off_c, 0, 43, 63
1, 430123, Note_off_c, 0, 46, 63
1, 430317, Note_on_c, 0, 55, 87
1, 430319, Note_on_c, 0, 43, 74
1, 430320, Note_on_c, 0, 50, 82
1, 430323, Note_on_c, 0, 38, 70
1, 430325, Note_on_c, 0, 67, 76
1, 430328, Note_on_c, 0, 46, 64
1, 430328, Note_on_c, 0, 59, 71
1, 430329, Note_on_c, 0, 69, 76
1, 430332, Note_on_c, 0, 57, 71
1, 430338, Note_off_c, 0, 55, 71
1, 430344, Note_off_c, 0, 69, 69
1, 430345, Note_off_c, 0, 59, 66
1, 430348, Note_off_c, 0, 50, 67
1, 430349, Note_off_c, 0, 67, 69
1, 430351, Note_off_c, 0, 57, 66
1, 430354, Note_off_c, 0, 43, 67
1, 430356, Note_off_c, 0, 38, 65
1, 430357, Note_off_c, 0, 46, 64
1, 430397, Note_on_c, 0, 69, 99
1, 430399, Note_on_c, 0, 57, 99
1, 430400, Note_on_c, 0, 50, 94
1, 430400, Note_on_c, 0, 60, 96
1, 430404, Note_on_c, 0, 45, 85
1, 430406, Note_on_c, 0, 42, 88
1, 430409, Note_on_c, 0, 38, 83
1, 430421, Note_on_c, 0, 66, 60
1, 430442, Note_off_c, 0, 38, 62
1, 430442, Note_off_c, 0, 66, 62
1, 430442, Note_off_c, 0, 57, 66
1, 430449, Note_off_c, 0, 50, 62
1, 430451, Note_off_c, 0, 69, 64
1, 430457, Note_off_c, 0, 45, 64
1, 430463, Note_off_c, 0, 60, 58
1, 430463, Note_off_c, 0, 42, 64
1, 430636, Note_on_c, 0, 57, 90
1, 430637, Note_on_c, 0, 50, 74
1, 430637, Note_on_c, 0, 60, 82
1, 430637, Note_on_c, 0, 66, 88
1, 430641, Note_on_c, 0, 38, 78
1, 430660, Note_off_c, 0, 50, 67
1, 430663, Note_on_c, 0, 42, 41
1, 430666, Note_off_c, 0, 60, 68
1, 430675, Note_off_c, 0, 57, 65
1, 430678, Note_off_c, 0, 38, 63
1, 430693, Note_off_c, 0, 66, 63
1, 430702, Note_off_c, 0, 42, 32
1, 430742, Note_on_c, 0, 55, 107
1, 430743, Note_on_c, 0, 58, 100
1, 430744, Note_on_c, 0, 67, 99
1, 430747, Note_on_c, 0, 43, 85
1, 430752, Note_on_c, 0, 31, 77
1, 430768, Note_on_c, 0, 29, 58
1, 430769, Note_off_c, 0, 29, 127
1, 430775, Note_on_c, 0, 41, 57
1, 430776, Note_off_c, 0, 41, 127
1, 430910, Control_c, 0, 64, 55
1, 430925, Control_c, 0, 64, 79
1, 430939, Control_c, 0, 64, 127
1, 430947, Note_off_c, 0, 31, 64
1, 430947, Note_off_c, 0, 55, 66
1, 430964, Note_off_c, 0, 43, 65
1, 430978, Note_off_c, 0, 58, 65
1, 430994, Note_off_c, 0, 67, 68
1, 430999, Control_c, 0, 64, 103
1, 431013, Control_c, 0, 64, 64
1, 431028, Control_c, 0, 64, 0
1, 431191, Control_c, 0, 67, 20
1, 431205, Control_c, 0, 67, 40
1, 431220, Control_c, 0, 67, 60
1, 431235, Control_c, 0, 67, 78
1, 431250, Control_c, 0, 67, 94
1, 431265, Control_c, 0, 67, 103
1, 431280, Control_c, 0, 67, 108
1, 431295, Control_c, 0, 67, 113
1, 431310, Control_c, 0, 67, 115
1, 431324, Control_c, 0, 67, 118
1, 431339, Control_c, 0, 67, 125
1, 431354, Control_c, 0, 67, 127
1, 431483, Note_on_c, 0, 79, 64
1, 431486, Note_on_c, 0, 74, 50
1, 431491, Note_on_c, 0, 71, 52
1, 431526, Note_off_c, 0, 79, 63
1, 431529, Note_off_c, 0, 74, 63
1, 431530, Note_off_c, 0, 71, 64
1, 431587, Note_on_c, 0, 85, 64
1, 431593, Note_on_c, 0, 91, 56
1, 431611, Note_off_c, 0, 85, 65
1, 431618, Note_off_c, 0, 91, 55
1, 431646, Note_on_c, 0, 86, 80
1, 431650, Note_on_c, 0, 79, 70
1, 431667, Note_off_c, 0, 86, 71
1, 431675, Note_off_c, 0, 79, 68
1, 431720, Note_on_c, 0, 75, 68
1, 431727, Note_on_c, 0, 72, 64
1, 431760, Note_off_c, 0, 72, 65
1, 431760, Note_off_c, 0, 75, 59
1, 431799, Note_on_c, 0, 87, 75
1, 431823, Note_on_c, 0, 83, 45
1, 431847, Note_off_c, 0, 87, 64
1, 431855, Note_off_c, 0, 83, 55
1, 431866, Note_on_c, 0, 84, 76
1, 431868, Note_on_c, 0, 79, 59
1, 431885, Note_off_c, 0, 79, 65
1, 431886, Note_off_c, 0, 84, 72
1, 431947, Note_on_c, 0, 77, 68
1, 431949, Note_on_c, 0, 72, 62
1, 431952, Note_on_c, 0, 69, 55
1, 431976, Note_off_c, 0, 77, 65
1, 431980, Note_off_c, 0, 72, 66
1, 431982, Note_off_c, 0, 69, 63
1, 432028, Note_on_c, 0, 89, 72
1, 432040, Note_on_c, 0, 83, 67
1, 432077, Note_off_c, 0, 83, 64
1, 432077, Note_off_c, 0, 89, 62
1, 432081, Note_on_c, 0, 84, 67
1, 432097, Note_on_c, 0, 77, 66
1, 432108, Note_off_c, 0, 84, 68
1, 432117, Note_off_c, 0, 77, 65
1, 432151, Note_on_c, 0, 74, 72
1, 432156, Note_on_c, 0, 70, 65
1, 432185, Note_off_c, 0, 74, 66
1, 432191, Note_on_c, 0, 77, 43
1, 432192, Note_off_c, 0, 70, 66
1, 432215, Note_off_c, 0, 77, 51
1, 432236, Note_on_c, 0, 86, 72
1, 432241, Note_on_c, 0, 81, 65
1, 432261, Note_off_c, 0, 81, 63
1, 432284, Note_off_c, 0, 86, 58
1, 432290, Note_on_c, 0, 77, 67
1, 432310, Note_on_c, 0, 60, 72
1, 432335, Note_off_c, 0, 77, 64
1, 432343, Note_off_c, 0, 60, 67
1, 432356, Note_on_c, 0, 68, 71
1, 432405, Note_on_c, 0, 75, 74
1, 432421, Note_off_c, 0, 68, 62
1, 432421, Note_off_c, 0, 75, 43
1, 432441, Note_on_c, 0, 87, 75
1, 432448, Note_on_c, 0, 80, 69
1, 432476, Note_off_c, 0, 80, 66
1, 432514, Note_on_c, 0, 75, 64
1, 432517, Note_off_c, 0, 87, 62
1, 432526, Note_on_c, 0, 84, 65
1, 432552, Note_off_c, 0, 84, 69
1, 432555, Note_off_c, 0, 75, 61
1, 432595, Note_on_c, 0, 67, 57
1, 432598, Note_on_c, 0, 70, 68
1, 432611, Note_on_c, 0, 62, 59
1, 432630, Note_off_c, 0, 67, 64
1, 432633, Note_off_c, 0, 70, 66
1, 432647, Note_off_c, 0, 62, 62
1, 432657, Note_on_c, 0, 82, 71
1, 432658, Note_on_c, 0, 75, 76
1, 432711, Note_off_c, 0, 82, 64
1, 432720, Note_off_c, 0, 75, 60
1, 432728, Note_on_c, 0, 74, 77
1, 432732, Note_on_c, 0, 79, 64
1, 432758, Note_off_c, 0, 74, 66
1, 432774, Note_off_c, 0, 79, 66
1, 432801, Note_on_c, 0, 66, 65
1, 432807, Note_on_c, 0, 72, 62
1, 432839, Note_off_c, 0, 72, 66
1, 432845, Note_off_c, 0, 66, 59
1, 432877, Note_on_c, 0, 75, 79
1, 432877, Note_on_c, 0, 81, 74
1, 432918, Note_off_c, 0, 81, 66
1, 432931, Note_off_c, 0, 75, 61
1, 432951, Note_on_c, 0, 78, 58
1, 432960, Note_on_c, 0, 74, 71
1, 432971, Note_off_c, 0, 78, 63
1, 432988, Note_off_c, 0, 74, 67
1, 432999, Note_on_c, 0, 67, 63
1, 433005, Note_on_c, 0, 70, 67
1, 433030, Note_off_c, 0, 67, 67
1, 433042, Note_off_c, 0, 70, 64
1, 433086, Note_on_c, 0, 79, 72
1, 433088, Note_on_c, 0, 75, 74
1, 433115, Note_off_c, 0, 79, 67
1, 433125, Note_off_c, 0, 75, 62
1, 433154, Note_on_c, 0, 74, 54
1, 433173, Note_off_c, 0, 74, 61
1, 433211, Note_on_c, 0, 71, 69
1, 433229, Note_on_c, 0, 74, 53
1, 433229, Note_on_c, 0, 79, 71
1, 433259, Note_off_c, 0, 74, 64
1, 433267, Note_off_c, 0, 79, 64
1, 433268, Note_off_c, 0, 71, 62
1, 433282, Note_on_c, 0, 91, 86
1, 433302, Note_on_c, 0, 85, 58
1, 433326, Note_off_c, 0, 85, 63
1, 433328, Note_off_c, 0, 91, 62
1, 433361, Note_on_c, 0, 79, 71
1, 433361, Note_on_c, 0, 86, 75
1, 433384, Note_off_c, 0, 86, 71
1, 433387, Note_off_c, 0, 79, 69
1, 433432, Note_on_c, 0, 72, 64
1, 433435, Note_on_c, 0, 75, 71
1, 433442, Note_on_c, 0, 79, 63
1, 433465, Note_off_c, 0, 72, 65
1, 433470, Note_off_c, 0, 79, 67
1, 433472, Note_off_c, 0, 75, 59
1, 433502, Note_on_c, 0, 87, 76
1, 433507, Note_on_c, 0, 83, 72
1, 433531, Note_off_c, 0, 83, 68
1, 433539, Note_off_c, 0, 87, 66
1, 433549, Note_on_c, 0, 79, 57
1, 433571, Note_on_c, 0, 84, 67
1, 433583, Note_off_c, 0, 79, 67
1, 433596, Note_off_c, 0, 84, 65
1, 433641, Note_on_c, 0, 69, 65
1, 433644, Note_on_c, 0, 77, 67
1, 433646, Note_on_c, 0, 72, 60
1, 433677, Note_off_c, 0, 77, 64
1, 433679, Note_off_c, 0, 69, 61
1, 433684, Note_off_c, 0, 72, 66
1, 433706, Note_on_c, 0, 89, 85
1, 433715, Note_on_c, 0, 83, 80
1, 433749, Note_off_c, 0, 83, 63
1, 433765, Note_off_c, 0, 89, 64
1, 433780, Note_on_c, 0, 77, 69
1, 433817, Note_off_c, 0, 77, 0
1, 433819, Note_on_c, 0, 84, 21
1, 433838, Note_on_c, 0, 74, 76
1, 433838, Note_on_c, 0, 70, 68
1, 433843, Note_off_c, 0, 84, 38
1, 433870, Poly_aftertouch_c, 0, 77, 0
1, 433876, Note_off_c, 0, 74, 64
1, 433877, Note_off_c, 0, 70, 62
1, 433926, Note_on_c, 0, 81, 64
1, 433927, Note_on_c, 0, 86, 71
1, 433963, Note_off_c, 0, 81, 60
1, 433969, Note_on_c, 0, 77, 69
1, 433985, Note_on_c, 0, 60, 62
1, 433989, Note_off_c, 0, 86, 64
1, 434002, Note_off_c, 0, 77, 65
1, 434004, Note_off_c, 0, 60, 65
1, 434007, Note_on_c, 0, 82, 44
1, 434010, Note_on_c, 0, 68, 75
1, 434016, Note_on_c, 0, 62, 39
1, 434033, Note_off_c, 0, 82, 57
1, 434045, Note_off_c, 0, 62, 51
1, 434069, Note_on_c, 0, 75, 77
1, 434076, Note_off_c, 0, 68, 52
1, 434097, Note_off_c, 0, 75, 63
1, 434107, Note_on_c, 0, 87, 81
1, 434127, Note_on_c, 0, 80, 67
1, 434156, Note_off_c, 0, 80, 65
1, 434183, Note_off_c, 0, 87, 63
1, 434190, Note_on_c, 0, 75, 75
1, 434193, Note_on_c, 0, 84, 68
1, 434217, Note_off_c, 0, 75, 67
1, 434219, Note_off_c, 0, 84, 68
1, 434235, Note_on_c, 0, 70, 73
1, 434239, Note_on_c, 0, 67, 62
1, 434255, Note_on_c, 0, 62, 55
1, 434278, Note_off_c, 0, 67, 61
1, 434292, Note_off_c, 0, 62, 61
1, 434300, Note_off_c, 0, 70, 58
1, 434314, Note_on_c, 0, 82, 80
1, 434317, Note_on_c, 0, 75, 80
1, 434374, Note_off_c, 0, 75, 58
1, 434377, Note_off_c, 0, 82, 65
1, 434386, Note_on_c, 0, 79, 68
1, 434395, Note_on_c, 0, 74, 74
1, 434418, Note_off_c, 0, 79, 66
1, 434419, Note_off_c, 0, 74, 69
1, 434449, Note_on_c, 0, 66, 63
1, 434450, Note_on_c, 0, 72, 59
1, 434472, Note_on_c, 0, 62, 34
1, 434479, Note_off_c, 0, 72, 60
1, 434489, Note_off_c, 0, 66, 60
1, 434503, Note_off_c, 0, 62, 47
1, 434522, Note_on_c, 0, 75, 82
1, 434523, Note_on_c, 0, 81, 78
1, 434580, Note_off_c, 0, 81, 64
1, 434580, Note_off_c, 0, 75, 62
1, 434599, Note_on_c, 0, 78, 58
1, 434619, Note_on_c, 0, 74, 71
1, 434629, Note_off_c, 0, 78, 65
1, 434645, Note_off_c, 0, 74, 68
1, 434659, Note_on_c, 0, 70, 66
1, 434664, Note_on_c, 0, 67, 65
1, 434688, Note_off_c, 0, 70, 68
1, 434695, Note_off_c, 0, 67, 66
1, 434727, Note_on_c, 0, 79, 71
1, 434749, Note_on_c, 0, 75, 66
1, 434775, Note_off_c, 0, 79, 62
1, 434803, Note_off_c, 0, 75, 61
1, 434817, Note_on_c, 0, 74, 58
1, 434845, Note_off_c, 0, 74, 66
1, 434878, Note_on_c, 0, 62, 61
1, 434879, Note_on_c, 0, 67, 55
1, 434882, Note_on_c, 0, 59, 49
1, 434917, Note_off_c, 0, 62, 66
1, 434926, Note_off_c, 0, 67, 58
1, 434928, Note_off_c, 0, 59, 60
1, 434931, Note_on_c, 0, 79, 73
1, 434946, Note_on_c, 0, 73, 54
1, 434959, Note_off_c, 0, 79, 63
1, 434971, Note_off_c, 0, 73, 64
1, 435003, Note_on_c, 0, 74, 76
1, 435015, Note_on_c, 0, 67, 57
1, 435026, Note_off_c, 0, 74, 70
1, 435036, Note_off_c, 0, 67, 61
1, 435081, Note_on_c, 0, 60, 61
1, 435081, Note_on_c, 0, 63, 70
1, 435110, Note_on_c, 0, 67, 50
1, 435117, Note_off_c, 0, 60, 63
1, 435131, Note_on_c, 0, 75, 78
1, 435131, Note_off_c, 0, 63, 59
1, 435131, Note_off_c, 0, 67, 59
1, 435150, Note_on_c, 0, 71, 66
1, 435158, Note_off_c, 0, 75, 67
1, 435194, Note_on_c, 0, 67, 76
1, 435197, Note_off_c, 0, 71, 60
1, 435200, Note_on_c, 0, 72, 78
1, 435227, Note_off_c, 0, 67, 66
1, 435227, Note_off_c, 0, 72, 66
1, 435277, Note_on_c, 0, 60, 63
1, 435280, Note_on_c, 0, 57, 56
1, 435281, Note_on_c, 0, 65, 69
1, 435324, Note_off_c, 0, 57, 64
1, 435328, Note_off_c, 0, 65, 60
1, 435336, Note_off_c, 0, 60, 64
1, 435337, Note_on_c, 0, 77, 92
1, 435347, Note_on_c, 0, 71, 76
1, 435385, Note_off_c, 0, 71, 62
1, 435403, Note_off_c, 0, 77, 63
1, 435417, Note_on_c, 0, 65, 79
1, 435430, Note_on_c, 0, 72, 55
1, 435450, Note_off_c, 0, 72, 62
1, 435453, Note_off_c, 0, 65, 56
1, 435468, Note_on_c, 0, 58, 57
1, 435469, Note_on_c, 0, 62, 64
1, 435504, Note_off_c, 0, 62, 64
1, 435507, Note_off_c, 0, 58, 63
1, 435548, Note_on_c, 0, 69, 72
1, 435548, Note_on_c, 0, 74, 78
1, 435584, Note_off_c, 0, 69, 54
1, 435608, Note_off_c, 0, 74, 62
1, 435608, Note_on_c, 0, 48, 54
1, 435611, Note_on_c, 0, 65, 60
1, 435620, Note_on_c, 0, 50, 44
1, 435632, Note_off_c, 0, 48, 60
1, 435641, Note_off_c, 0, 65, 64
1, 435649, Note_off_c, 0, 50, 61
1, 435666, Note_on_c, 0, 57, 49
1, 435691, Note_off_c, 0, 57, 59
1, 435692, Note_on_c, 0, 63, 77
1, 435694, Poly_aftertouch_c, 0, 70, 0
1, 435712, Poly_aftertouch_c, 0, 54, 127
1, 435718, Note_off_c, 0, 63, 67
1, 435736, Note_on_c, 0, 75, 76
1, 435748, Note_on_c, 0, 68, 71
1, 435772, Poly_aftertouch_c, 0, 54, 0
1, 435800, Note_on_c, 0, 63, 65
1, 435804, Note_off_c, 0, 68, 54
1, 435805, Note_off_c, 0, 75, 61
1, 435811, Note_on_c, 0, 72, 67
1, 435838, Note_off_c, 0, 72, 67
1, 435844, Note_off_c, 0, 63, 59
1, 435872, Note_on_c, 0, 55, 62
1, 435877, Note_on_c, 0, 58, 72
1, 435911, Note_on_c, 0, 50, 47
1, 435915, Note_off_c, 0, 55, 63
1, 435930, Note_off_c, 0, 58, 58
1, 435937, Note_off_c, 0, 50, 57
1, 435940, Note_on_c, 0, 70, 73
1, 435942, Note_on_c, 0, 63, 77
1, 435980, Note_off_c, 0, 70, 64
1, 435998, Note_off_c, 0, 63, 63
1, 436002, Note_on_c, 0, 67, 69
1, 436017, Note_on_c, 0, 62, 65
1, 436037, Note_off_c, 0, 67, 62
1, 436046, Note_off_c, 0, 62, 66
1, 436093, Note_on_c, 0, 60, 66
1, 436096, Note_on_c, 0, 54, 66
1, 436132, Note_off_c, 0, 60, 63
1, 436137, Note_off_c, 0, 54, 63
1, 436151, Note_on_c, 0, 69, 78
1, 436153, Note_on_c, 0, 63, 73
1, 436201, Note_off_c, 0, 69, 61
1, 436205, Note_on_c, 0, 66, 67
1, 436212, Note_off_c, 0, 63, 63
1, 436249, Note_on_c, 0, 62, 63
1, 436250, Note_off_c, 0, 66, 62
1, 436279, Note_off_c, 0, 62, 66
1, 436293, Note_on_c, 0, 55, 56
1, 436293, Note_on_c, 0, 58, 75
1, 436324, Note_off_c, 0, 55, 64
1, 436336, Note_off_c, 0, 58, 61
1, 436343, Note_on_c, 0, 63, 69
1, 436346, Note_on_c, 0, 67, 65
1, 436382, Note_off_c, 0, 67, 63
1, 436390, Note_off_c, 0, 63, 60
1, 436404, Note_on_c, 0, 62, 63
1, 436428, Note_off_c, 0, 62, 67
1, 436489, Note_on_c, 0, 59, 64
1, 436493, Note_on_c, 0, 62, 69
1, 436499, Note_on_c, 0, 67, 70
1, 436535, Note_off_c, 0, 62, 61
1, 436543, Note_on_c, 0, 79, 78
1, 436544, Note_off_c, 0, 67, 57
1, 436550, Note_off_c, 0, 59, 63
1, 436562, Note_on_c, 0, 73, 61
1, 436604, Note_off_c, 0, 79, 62
1, 436607, Note_off_c, 0, 73, 57
1, 436616, Note_on_c, 0, 74, 76
1, 436622, Note_on_c, 0, 67, 62
1, 436625, Control_c, 0, 64, 27
1, 436637, Note_off_c, 0, 74, 70
1, 436640, Control_c, 0, 64, 42
1, 436644, Note_off_c, 0, 67, 63
1, 436655, Control_c, 0, 64, 47
1, 436669, Control_c, 0, 64, 53
1, 436684, Control_c, 0, 64, 58
1, 436686, Note_on_c, 0, 60, 69
1, 436698, Note_on_c, 0, 63, 67
1, 436699, Control_c, 0, 64, 61
1, 436707, Note_on_c, 0, 67, 67
1, 436714, Control_c, 0, 64, 63
1, 436726, Note_off_c, 0, 60, 63
1, 436729, Control_c, 0, 64, 64
1, 436733, Note_off_c, 0, 67, 68
1, 436734, Note_off_c, 0, 63, 62
1, 436743, Control_c, 0, 64, 69
1, 436744, Note_on_c, 0, 75, 84
1, 436758, Control_c, 0, 64, 82
1, 436767, Note_on_c, 0, 71, 64
1, 436773, Control_c, 0, 64, 127
1, 436787, Note_off_c, 0, 75, 65
1, 436801, Note_off_c, 0, 71, 62
1, 436818, Note_on_c, 0, 67, 75
1, 436824, Control_c, 0, 64, 101
1, 436827, Note_on_c, 0, 72, 73
1, 436839, Control_c, 0, 64, 72
1, 436848, Note_off_c, 0, 67, 68
1, 436851, Note_off_c, 0, 72, 70
1, 436854, Control_c, 0, 64, 61
1, 436869, Control_c, 0, 64, 56
1, 436886, Note_on_c, 0, 60, 73
1, 436891, Note_on_c, 0, 65, 75
1, 436893, Note_on_c, 0, 57, 67
1, 436899, Control_c, 0, 64, 59
1, 436914, Control_c, 0, 64, 63
1, 436929, Control_c, 0, 64, 67
1, 436930, Note_off_c, 0, 65, 58
1, 436932, Note_off_c, 0, 57, 63
1, 436938, Note_off_c, 0, 60, 64
1, 436944, Control_c, 0, 64, 70
1, 436945, Note_on_c, 0, 77, 86
1, 436955, Note_on_c, 0, 71, 75
1, 436958, Control_c, 0, 64, 75
1, 436973, Control_c, 0, 64, 81
1, 436988, Control_c, 0, 64, 95
1, 437003, Note_off_c, 0, 77, 64
1, 437003, Control_c, 0, 64, 127
1, 437025, Note_on_c, 0, 65, 78
1, 437025, Note_off_c, 0, 71, 62
1, 437036, Note_on_c, 0, 72, 54
1, 437047, Note_off_c, 0, 65, 68
1, 437057, Note_off_c, 0, 72, 60
1, 437063, Control_c, 0, 64, 104
1, 437071, Note_on_c, 0, 62, 72
1, 437074, Note_on_c, 0, 58, 73
1, 437078, Control_c, 0, 64, 77
1, 437087, Note_on_c, 0, 65, 71
1, 437093, Control_c, 0, 64, 65
1, 437108, Control_c, 0, 64, 61
1, 437112, Note_off_c, 0, 65, 69
1, 437116, Note_off_c, 0, 62, 64
1, 437119, Note_off_c, 0, 58, 62
1, 437122, Control_c, 0, 64, 62
1, 437137, Control_c, 0, 64, 65
1, 437139, Note_on_c, 0, 74, 78
1, 437151, Note_on_c, 0, 69, 70
1, 437152, Control_c, 0, 64, 69
1, 437167, Control_c, 0, 64, 74
1, 437181, Control_c, 0, 64, 86
1, 437185, Note_off_c, 0, 69, 61
1, 437196, Control_c, 0, 64, 127
1, 437197, Note_off_c, 0, 74, 62
1, 437202, Note_on_c, 0, 65, 74
1, 437217, Note_on_c, 0, 48, 76
1, 437231, Note_off_c, 0, 65, 62
1, 437251, Note_off_c, 0, 48, 57
1, 437260, Note_on_c, 0, 56, 69
1, 437270, Control_c, 0, 64, 78
1, 437285, Control_c, 0, 64, 62
1, 437300, Control_c, 0, 64, 47
1, 437315, Control_c, 0, 64, 48
1, 437319, Note_on_c, 0, 63, 70
1, 437329, Control_c, 0, 64, 55
1, 437341, Note_on_c, 0, 75, 72
1, 437344, Control_c, 0, 64, 64
1, 437352, Note_off_c, 0, 63, 62
1, 437356, Note_off_c, 0, 56, 61
1, 437357, Note_on_c, 0, 68, 64
1, 437359, Control_c, 0, 64, 72
1, 437373, Control_c, 0, 64, 92
1, 437388, Control_c, 0, 64, 127
1, 437419, Note_on_c, 0, 72, 66
1, 437425, Note_on_c, 0, 63, 64
1, 437430, Note_off_c, 0, 75, 62
1, 437437, Note_off_c, 0, 68, 59
1, 437449, Note_off_c, 0, 72, 65
1, 437478, Note_off_c, 0, 63, 58
1, 437489, Note_on_c, 0, 55, 74
1, 437492, Control_c, 0, 64, 93
1, 437495, Note_on_c, 0, 58, 86
1, 437505, Note_on_c, 0, 50, 70
1, 437507, Control_c, 0, 64, 71
1, 437522, Control_c, 0, 64, 62
1, 437537, Control_c, 0, 64, 59
1, 437545, Note_off_c, 0, 55, 63
1, 437549, Note_on_c, 0, 63, 76
1, 437552, Control_c, 0, 64, 63
1, 437552, Note_on_c, 0, 70, 82
1, 437570, Note_off_c, 0, 58, 61
1, 437573, Control_c, 0, 64, 71
1, 437575, Note_off_c, 0, 50, 62
1, 437588, Control_c, 0, 64, 115
1, 437588, Control_c, 0, 67, 119
1, 437603, Control_c, 0, 64, 127
1, 437603, Control_c, 0, 67, 100
1, 437618, Control_c, 0, 67, 81
1, 437620, Note_on_c, 0, 67, 81
1, 437633, Control_c, 0, 67, 62
1, 437638, Note_off_c, 0, 63, 62
1, 437644, Note_off_c, 0, 70, 65
1, 437644, Note_on_c, 0, 62, 68
1, 437647, Control_c, 0, 67, 43
1, 437662, Control_c, 0, 67, 27
1, 437677, Note_off_c, 0, 67, 62
1, 437677, Control_c, 0, 67, 14
1, 437689, Note_off_c, 0, 62, 64
1, 437692, Control_c, 0, 67, 11
1, 437707, Control_c, 0, 67, 11
1, 437709, Note_on_c, 0, 54, 88
1, 437711, Note_on_c, 0, 60, 95
1, 437722, Control_c, 0, 64, 85
1, 437737, Control_c, 0, 64, 63
1, 437737, Control_c, 0, 67, 10
1, 437751, Control_c, 0, 64, 39
1, 437751, Control_c, 0, 67, 9
1, 437767, Control_c, 0, 64, 23
1, 437774, Note_on_c, 0, 63, 84
1, 437775, Note_on_c, 0, 69, 80
1, 437781, Note_off_c, 0, 60, 65
1, 437782, Note_off_c, 0, 54, 56
1, 437782, Control_c, 0, 64, 25
1, 437796, Control_c, 0, 64, 47
1, 437811, Control_c, 0, 64, 64
1, 437826, Control_c, 0, 64, 75
1, 437837, Note_on_c, 0, 66, 82
1, 437838, Note_off_c, 0, 69, 63
1, 437841, Control_c, 0, 64, 108
1, 437856, Control_c, 0, 64, 127
1, 437871, Control_c, 0, 67, 10
1, 437873, Note_off_c, 0, 63, 65
1, 437877, Note_on_c, 0, 62, 72
1, 437894, Note_off_c, 0, 66, 64
1, 437905, Note_off_c, 0, 62, 68
1, 437915, Control_c, 0, 67, 11
1, 437930, Note_on_c, 0, 58, 88
1, 437930, Control_c, 0, 67, 12
1, 437931, Note_on_c, 0, 55, 84
1, 437960, Control_c, 0, 64, 75
1, 437975, Control_c, 0, 64, 47
1, 437990, Control_c, 0, 64, 0
1, 438002, Note_on_c, 0, 67, 83
1, 438008, Note_on_c, 0, 63, 79
1, 438060, Note_off_c, 0, 55, 63
1, 438062, Note_off_c, 0, 67, 63
1, 438064, Control_c, 0, 64, 39
1, 438064, Control_c, 0, 67, 11
1, 438078, Control_c, 0, 64, 59
1, 438089, Note_on_c, 0, 62, 83
1, 438093, Control_c, 0, 64, 66
1, 438098, Note_off_c, 0, 63, 63
1, 438105, Note_off_c, 0, 58, 64
1, 438108, Control_c, 0, 64, 72
1, 438123, Control_c, 0, 64, 78
1, 438138, Control_c, 0, 64, 85
1, 438152, Control_c, 0, 64, 98
1, 438152, Control_c, 0, 67, 10
1, 438167, Control_c, 0, 64, 127
1, 438193, Note_off_c, 0, 62, 59
1, 438352, Control_c, 0, 67, 11
1, 438367, Control_c, 0, 67, 12
1, 438382, Control_c, 0, 67, 12
1, 438396, Control_c, 0, 67, 13
1, 438411, Control_c, 0, 64, 88
1, 438411, Control_c, 0, 67, 14
1, 438416, Note_on_c, 0, 67, 44
1, 438426, Control_c, 0, 64, 62
1, 438426, Control_c, 0, 67, 15
1, 438441, Control_c, 0, 64, 0
1, 438457, Note_on_c, 0, 70, 58
1, 438462, Note_on_c, 0, 74, 60
1, 438485, Control_c, 0, 67, 16
1, 438515, Control_c, 0, 64, 14
1, 438530, Control_c, 0, 64, 46
1, 438544, Control_c, 0, 64, 55
1, 438559, Control_c, 0, 64, 60
1, 438575, Control_c, 0, 64, 62
1, 438590, Control_c, 0, 64, 63
1, 438596, Note_off_c, 0, 70, 59
1, 438605, Control_c, 0, 64, 66
1, 438619, Control_c, 0, 64, 69
1, 438622, Note_on_c, 0, 62, 40
1, 438634, Control_c, 0, 64, 73
1, 438649, Control_c, 0, 64, 77
1, 438649, Control_c, 0, 67, 16
1, 438664, Control_c, 0, 64, 82
1, 438679, Control_c, 0, 64, 88
1, 438693, Note_off_c, 0, 67, 33
1, 438693, Control_c, 0, 64, 95
1, 438708, Control_c, 0, 64, 102
1, 438713, Note_off_c, 0, 74, 61
1, 438723, Control_c, 0, 64, 110
1, 438738, Control_c, 0, 64, 127
1, 438768, Control_c, 0, 67, 17
1, 438789, Note_off_c, 0, 62, 36
1, 438790, Note_on_c, 0, 55, 42
1, 438838, Note_on_c, 0, 70, 49
1, 438839, Note_on_c, 0, 74, 56
1, 438950, Note_off_c, 0, 74, 60
1, 438966, Note_off_c, 0, 70, 64
1, 439019, Control_c, 0, 64, 101
1, 439024, Note_off_c, 0, 55, 54
1, 439034, Control_c, 0, 64, 78
1, 439043, Note_on_c, 0, 53, 44
1, 439049, Control_c, 0, 64, 67
1, 439068, Note_on_c, 0, 69, 42
1, 439072, Control_c, 0, 64, 63
1, 439073, Note_on_c, 0, 74, 56
1, 439087, Control_c, 0, 64, 64
1, 439101, Control_c, 0, 64, 65
1, 439116, Control_c, 0, 64, 68
1, 439131, Control_c, 0, 64, 72
1, 439145, Control_c, 0, 64, 80
1, 439160, Control_c, 0, 64, 95
1, 439175, Control_c, 0, 64, 117
1, 439190, Control_c, 0, 64, 127
1, 439234, Control_c, 0, 67, 16
1, 439240, Note_on_c, 0, 75, 68
1, 439259, Note_off_c, 0, 74, 60
1, 439266, Note_on_c, 0, 62, 43
1, 439284, Note_off_c, 0, 53, 42
1, 439322, Note_off_c, 0, 69, 54
1, 439340, Note_on_c, 0, 65, 53
1, 439343, Note_off_c, 0, 62, 60
1, 439363, Note_off_c, 0, 65, 59
1, 439371, Note_on_c, 0, 74, 71
1, 439405, Note_off_c, 0, 75, 59
1, 439412, Control_c, 0, 67, 17
1, 439442, Control_c, 0, 64, 112
1, 439442, Control_c, 0, 67, 18
1, 439457, Control_c, 0, 64, 82
1, 439467, Note_on_c, 0, 63, 55
1, 439471, Control_c, 0, 64, 71
1, 439479, Note_on_c, 0, 72, 67
1, 439486, Control_c, 0, 64, 69
1, 439486, Control_c, 0, 67, 19
1, 439489, Note_off_c, 0, 74, 61
1, 439492, Note_on_c, 0, 67, 46
1, 439501, Control_c, 0, 64, 69
1, 439501, Control_c, 0, 67, 19
1, 439516, Control_c, 0, 64, 71
1, 439531, Control_c, 0, 64, 74
1, 439546, Control_c, 0, 64, 80
1, 439561, Control_c, 0, 64, 91
1, 439566, Note_on_c, 0, 60, 58
1, 439573, Note_on_c, 0, 74, 72
1, 439575, Control_c, 0, 64, 116
1, 439590, Control_c, 0, 64, 127
1, 439596, Note_off_c, 0, 63, 38
1, 439599, Note_off_c, 0, 72, 63
1, 439603, Note_off_c, 0, 67, 31
1, 439620, Control_c, 0, 67, 19
1, 439650, Note_off_c, 0, 60, 64
1, 439660, Note_on_c, 0, 51, 71
1, 439664, Control_c, 0, 67, 18
1, 439676, Note_on_c, 0, 72, 78
1, 439692, Note_off_c, 0, 51, 67
1, 439694, Control_c, 0, 67, 17
1, 439751, Note_off_c, 0, 74, 40
1, 439753, Control_c, 0, 64, 82
1, 439755, Note_on_c, 0, 70, 79
1, 439767, Note_on_c, 0, 50, 67
1, 439767, Note_on_c, 0, 67, 68
1, 439767, Control_c, 0, 64, 69
1, 439773, Note_off_c, 0, 72, 62
1, 439782, Control_c, 0, 64, 64
1, 439797, Control_c, 0, 64, 64
1, 439797, Control_c, 0, 67, 17
1, 439820, Control_c, 0, 64, 66
1, 439835, Control_c, 0, 64, 69
1, 439838, Note_off_c, 0, 67, 60
1, 439849, Control_c, 0, 64, 75
1, 439850, Note_on_c, 0, 58, 57
1, 439858, Note_off_c, 0, 70, 65
1, 439864, Control_c, 0, 64, 87
1, 439869, Note_on_c, 0, 72, 73
1, 439879, Control_c, 0, 64, 122
1, 439882, Note_off_c, 0, 50, 54
1, 439894, Control_c, 0, 64, 127
1, 439944, Note_off_c, 0, 72, 44
1, 439946, Note_on_c, 0, 62, 64
1, 439946, Note_off_c, 0, 58, 62
1, 439951, Note_on_c, 0, 70, 89
1, 439976, Note_off_c, 0, 62, 65
1, 439997, Control_c, 0, 64, 114
1, 440012, Control_c, 0, 64, 83
1, 440027, Control_c, 0, 64, 70
1, 440039, Note_on_c, 0, 69, 72
1, 440041, Control_c, 0, 64, 66
1, 440051, Note_on_c, 0, 66, 72
1, 440051, Note_off_c, 0, 70, 62
1, 440052, Note_on_c, 0, 60, 69
1, 440056, Control_c, 0, 64, 67
1, 440056, Control_c, 0, 67, 16
1, 440065, Note_on_c, 0, 63, 50
1, 440071, Control_c, 0, 64, 70
1, 440086, Control_c, 0, 64, 77
1, 440101, Control_c, 0, 64, 88
1, 440113, Note_off_c, 0, 69, 62
1, 440115, Control_c, 0, 64, 117
1, 440131, Control_c, 0, 64, 127
1, 440133, Note_on_c, 0, 70, 80
1, 440136, Note_on_c, 0, 54, 60
1, 440143, Note_off_c, 0, 60, 59
1, 440172, Note_off_c, 0, 66, 60
1, 440180, Note_off_c, 0, 63, 59
1, 440195, Note_on_c, 0, 48, 67
1, 440195, Note_off_c, 0, 54, 63
1, 440235, Note_on_c, 0, 69, 74
1, 440242, Note_off_c, 0, 48, 63
1, 440265, Control_c, 0, 64, 87
1, 440280, Control_c, 0, 64, 69
1, 440280, Control_c, 0, 67, 17
1, 440295, Control_c, 0, 64, 64
1, 440310, Control_c, 0, 67, 17
1, 440318, Note_on_c, 0, 46, 65
1, 440325, Control_c, 0, 64, 66
1, 440326, Note_on_c, 0, 67, 81
1, 440328, Note_off_c, 0, 70, 56
1, 440334, Note_on_c, 0, 56, 49
1, 440338, Note_off_c, 0, 69, 60
1, 440339, Control_c, 0, 64, 70
1, 440345, Note_on_c, 0, 62, 59
1, 440354, Control_c, 0, 64, 80
1, 440360, Note_off_c, 0, 56, 57
1, 440369, Control_c, 0, 64, 127
1, 440369, Control_c, 0, 67, 18
1, 440384, Note_on_c, 0, 55, 53
1, 440410, Note_off_c, 0, 67, 63
1, 440418, Note_on_c, 0, 69, 70
1, 440430, Note_on_c, 0, 71, 56
1, 440443, Control_c, 0, 67, 19
1, 440449, Note_off_c, 0, 46, 38
1, 440456, Note_off_c, 0, 62, 59
1, 440456, Note_off_c, 0, 71, 55
1, 440470, Note_off_c, 0, 55, 62
1, 440471, Note_on_c, 0, 58, 68
1, 440473, Control_c, 0, 67, 19
1, 440488, Control_c, 0, 67, 20
1, 440498, Note_on_c, 0, 67, 85
1, 440503, Control_c, 0, 64, 86
1, 440503, Control_c, 0, 67, 21
1, 440518, Control_c, 0, 64, 68
1, 440518, Control_c, 0, 67, 21
1, 440532, Control_c, 0, 64, 61
1, 440543, Note_off_c, 0, 58, 64
1, 440543, Note_off_c, 0, 69, 61
1, 440547, Control_c, 0, 64, 62
1, 440569, Control_c, 0, 64, 65
1, 440569, Control_c, 0, 67, 21
1, 440577, Note_on_c, 0, 57, 59
1, 440581, Note_off_c, 0, 67, 60
1, 440584, Control_c, 0, 64, 69
1, 440584, Control_c, 0, 67, 20
1, 440589, Note_on_c, 0, 62, 76
1, 440599, Note_on_c, 0, 60, 60
1, 440599, Control_c, 0, 64, 75
1, 440614, Control_c, 0, 64, 87
1, 440614, Control_c, 0, 67, 19
1, 440629, Control_c, 0, 64, 106
1, 440644, Control_c, 0, 64, 127
1, 440655, Note_on_c, 0, 50, 62
1, 440688, Control_c, 0, 67, 19
1, 440692, Note_off_c, 0, 60, 63
1, 440697, Note_off_c, 0, 57, 50
1, 440699, Note_on_c, 0, 64, 71
1, 440703, Control_c, 0, 67, 18
1, 440714, Note_off_c, 0, 62, 61
1, 440767, Note_on_c, 0, 45, 57
1, 440777, Note_off_c, 0, 50, 61
1, 440789, Note_on_c, 0, 66, 65
1, 440822, Note_off_c, 0, 64, 58
1, 440836, Note_off_c, 0, 45, 61
1, 440881, Control_c, 0, 64, 95
1, 440896, Control_c, 0, 64, 70
1, 440911, Control_c, 0, 64, 57
1, 440926, Control_c, 0, 64, 36
1, 440940, Control_c, 0, 64, 0
1, 440941, Note_on_c, 0, 67, 64
1, 440946, Note_on_c, 0, 43, 45
1, 440956, Note_on_c, 0, 62, 40
1, 440961, Note_on_c, 0, 58, 38
1, 440971, Control_c, 0, 67, 19
1, 440991, Note_off_c, 0, 66, 32
1, 441001, Control_c, 0, 67, 19
1, 441015, Control_c, 0, 64, 28
1, 441030, Control_c, 0, 64, 45
1, 441045, Control_c, 0, 64, 53
1, 441060, Control_c, 0, 64, 57
1, 441072, Note_off_c, 0, 62, 63
1, 441075, Control_c, 0, 64, 60
1, 441081, Note_on_c, 0, 50, 49
1, 441087, Note_off_c, 0, 43, 52
1, 441089, Control_c, 0, 64, 62
1, 441104, Control_c, 0, 64, 64
1, 441119, Control_c, 0, 64, 67
1, 441134, Control_c, 0, 64, 69
1, 441138, Note_off_c, 0, 58, 63
1, 441149, Control_c, 0, 64, 73
1, 441163, Control_c, 0, 64, 79
1, 441178, Control_c, 0, 64, 89
1, 441180, Note_off_c, 0, 50, 57
1, 441183, Note_on_c, 0, 55, 50
1, 441193, Control_c, 0, 64, 107
1, 441197, Note_off_c, 0, 67, 61
1, 441207, Control_c, 0, 64, 127
1, 441207, Control_c, 0, 67, 19
1, 441222, Control_c, 0, 67, 18
1, 441226, Note_off_c, 0, 55, 63
1, 441334, Control_c, 0, 64, 93
1, 441346, Note_on_c, 0, 67, 62
1, 441349, Control_c, 0, 64, 74
1, 441360, Note_on_c, 0, 59, 57
1, 441364, Control_c, 0, 64, 65
1, 441367, Note_on_c, 0, 65, 45
1, 441378, Control_c, 0, 64, 61
1, 441393, Control_c, 0, 64, 59
1, 441398, Note_on_c, 0, 62, 25
1, 441408, Control_c, 0, 64, 60
1, 441422, Control_c, 0, 64, 62
1, 441436, Note_off_c, 0, 62, 45
1, 441437, Control_c, 0, 64, 64
1, 441452, Control_c, 0, 64, 67
1, 441467, Note_on_c, 0, 68, 73
1, 441467, Control_c, 0, 64, 71
1, 441469, Note_on_c, 0, 55, 54
1, 441482, Control_c, 0, 64, 77
1, 441484, Note_off_c, 0, 67, 62
1, 441487, Note_off_c, 0, 65, 62
1, 441491, Note_off_c, 0, 59, 40
1, 441496, Control_c, 0, 64, 82
1, 441496, Control_c, 0, 67, 17
1, 441511, Control_c, 0, 64, 87
1, 441511, Control_c, 0, 67, 17
1, 441526, Control_c, 0, 64, 94
1, 441526, Control_c, 0, 67, 16
1, 441537, Note_off_c, 0, 55, 60
1, 441540, Control_c, 0, 64, 127
1, 441546, Note_on_c, 0, 47, 69
1, 441555, Control_c, 0, 67, 16
1, 441562, Note_on_c, 0, 67, 77
1, 441564, Note_off_c, 0, 68, 59
1, 441582, Note_off_c, 0, 47, 63
1, 441603, Note_off_c, 0, 67, 63
1, 441659, Control_c, 0, 64, 95
1, 441659, Control_c, 0, 67, 16
1, 441664, Note_on_c, 0, 48, 74
1, 441664, Note_on_c, 0, 67, 77
1, 441666, Note_on_c, 0, 63, 64
1, 441674, Control_c, 0, 64, 74
1, 441689, Control_c, 0, 64, 67
1, 441689, Control_c, 0, 67, 17
1, 441704, Control_c, 0, 64, 65
1, 441719, Control_c, 0, 64, 66
1, 441719, Control_c, 0, 67, 17
1, 441734, Control_c, 0, 64, 68
1, 441740, Note_on_c, 0, 55, 69
1, 441748, Control_c, 0, 64, 72
1, 441749, Note_off_c, 0, 48, 61
1, 441752, Note_on_c, 0, 72, 78
1, 441764, Control_c, 0, 64, 86
1, 441764, Control_c, 0, 67, 18
1, 441770, Note_off_c, 0, 67, 63
1, 441779, Control_c, 0, 64, 127
1, 441794, Control_c, 0, 67, 19
1, 441808, Control_c, 0, 67, 19
1, 441823, Control_c, 0, 67, 21
1, 441831, Note_on_c, 0, 60, 76
1, 441844, Note_on_c, 0, 67, 60
1, 441846, Note_off_c, 0, 72, 63
1, 441850, Note_off_c, 0, 55, 62
1, 441856, Note_off_c, 0, 60, 68
1, 441869, Note_off_c, 0, 67, 69
1, 441898, Control_c, 0, 64, 125
1, 441907, Note_off_c, 0, 63, 55
1, 441912, Control_c, 0, 64, 77
1, 441927, Control_c, 0, 64, 65
1, 441927, Control_c, 0, 67, 20
1, 441942, Note_on_c, 0, 57, 81
1, 441942, Control_c, 0, 64, 63
1, 441942, Control_c, 0, 67, 19
1, 441943, Note_on_c, 0, 63, 42
1, 441946, Note_on_c, 0, 60, 65
1, 441946, Note_on_c, 0, 65, 83
1, 441957, Control_c, 0, 64, 64
1, 441957, Control_c, 0, 67, 18
1, 441972, Control_c, 0, 64, 66
1, 441972, Control_c, 0, 67, 17
1, 441984, Note_off_c, 0, 63, 63
1, 441986, Control_c, 0, 64, 70
1, 441986, Control_c, 0, 67, 16
1, 442001, Control_c, 0, 64, 79
1, 442001, Control_c, 0, 67, 15
1, 442016, Control_c, 0, 64, 115
1, 442016, Control_c, 0, 67, 14
1, 442030, Control_c, 0, 64, 127
1, 442030, Control_c, 0, 67, 14
1, 442031, Note_on_c, 0, 67, 83
1, 442038, Note_off_c, 0, 65, 63
1, 442042, Note_off_c, 0, 60, 34
1, 442045, Control_c, 0, 67, 13
1, 442053, Note_off_c, 0, 57, 61
1, 442080, Note_on_c, 0, 53, 67
1, 442098, Control_c, 0, 67, 12
1, 442107, Note_on_c, 0, 45, 71
1, 442121, Note_on_c, 0, 65, 85
1, 442125, Note_off_c, 0, 67, 62
1, 442127, Control_c, 0, 67, 12
1, 442142, Control_c, 0, 64, 108
1, 442154, Note_off_c, 0, 53, 63
1, 442157, Control_c, 0, 64, 77
1, 442157, Control_c, 0, 67, 11
1, 442161, Note_off_c, 0, 45, 61
1, 442169, Note_off_c, 0, 65, 64
1, 442172, Control_c, 0, 64, 65
1, 442172, Control_c, 0, 67, 11
1, 442186, Control_c, 0, 64, 63
1, 442186, Control_c, 0, 67, 9
1, 442201, Control_c, 0, 64, 65
1, 442201, Control_c, 0, 67, 9
1, 442212, Note_on_c, 0, 46, 77
1, 442213, Note_on_c, 0, 62, 74
1, 442215, Note_on_c, 0, 65, 72
1, 442216, Control_c, 0, 64, 69
1, 442216, Control_c, 0, 67, 8
1, 442229, Note_on_c, 0, 45, 65
1, 442231, Control_c, 0, 64, 78
1, 442245, Control_c, 0, 64, 127
1, 442268, Note_off_c, 0, 62, 60
1, 442274, Note_on_c, 0, 53, 72
1, 442281, Note_off_c, 0, 45, 38
1, 442297, Note_on_c, 0, 70, 87
1, 442316, Note_off_c, 0, 65, 64
1, 442349, Control_c, 0, 67, 9
1, 442358, Note_on_c, 0, 58, 76
1, 442366, Note_off_c, 0, 53, 63
1, 442384, Note_on_c, 0, 65, 71
1, 442391, Note_off_c, 0, 70, 59
1, 442396, Note_off_c, 0, 58, 59
1, 442408, Control_c, 0, 67, 8
1, 442423, Control_c, 0, 67, 0
1, 442424, Note_off_c, 0, 46, 60
1, 442437, Control_c, 0, 64, 76
1, 442452, Control_c, 0, 64, 36
1, 442461, Note_off_c, 0, 65, 64
1, 442463, Note_on_c, 0, 56, 94
1, 442467, Control_c, 0, 64, 0
1, 442468, Note_on_c, 0, 48, 85
1, 442472, Note_on_c, 0, 63, 84
1, 442473, Note_on_c, 0, 51, 80
1, 442476, Note_on_c, 0, 60, 82
1, 442486, Note_off_c, 0, 56, 70
1, 442498, Note_off_c, 0, 48, 67
1, 442498, Note_off_c, 0, 51, 69
1, 442564, Note_on_c, 0, 65, 87
1, 442572, Note_off_c, 0, 63, 63
1, 442589, Note_off_c, 0, 60, 63
1, 442610, Note_on_c, 0, 36, 81
1, 442633, Note_off_c, 0, 36, 66
1, 442645, Note_off_c, 0, 65, 62
1, 442649, Note_on_c, 0, 63, 86
1, 442715, Note_on_c, 0, 49, 80
1, 442726, Note_on_c, 0, 62, 92
1, 442727, Note_on_c, 0, 55, 93
1, 442730, Note_off_c, 0, 63, 45
1, 442732, Note_on_c, 0, 58, 89
1, 442734, Note_on_c, 0, 46, 84
1, 442737, Note_on_c, 0, 50, 84
1, 442750, Note_off_c, 0, 55, 69
1, 442756, Note_off_c, 0, 49, 56
1, 442762, Note_off_c, 0, 50, 67
1, 442781, Note_off_c, 0, 46, 64
1, 442817, Note_on_c, 0, 63, 83
1, 442838, Note_off_c, 0, 62, 63
1, 442855, Note_off_c, 0, 58, 60
1, 442862, Note_on_c, 0, 38, 95
1, 442903, Note_on_c, 0, 62, 87
1, 442903, Note_off_c, 0, 38, 67
1, 442926, Note_off_c, 0, 63, 58
1, 442946, Note_off_c, 0, 62, 66
1, 442972, Note_on_c, 0, 49, 89
1, 442979, Note_on_c, 0, 54, 97
1, 442985, Note_on_c, 0, 48, 84
1, 442985, Poly_aftertouch_c, 0, 62, 0
1, 442987, Note_on_c, 0, 57, 87
1, 442989, Note_on_c, 0, 62, 91
1, 443003, Note_on_c, 0, 50, 71
1, 443019, Note_off_c, 0, 54, 68
1, 443021, Note_off_c, 0, 57, 67
1, 443025, Note_off_c, 0, 49, 52
1, 443028, Note_off_c, 0, 50, 66
1, 443037, Note_off_c, 0, 48, 66
1, 443074, Note_on_c, 0, 63, 98
1, 443092, Note_off_c, 0, 62, 68
1, 443106, Note_on_c, 0, 36, 97
1, 443130, Note_off_c, 0, 36, 69
1, 443150, Note_on_c, 0, 62, 96
1, 443153, Note_off_c, 0, 63, 66
1, 443210, Note_off_c, 0, 62, 65
1, 443287, Note_on_c, 0, 50, 78
1, 443287, Note_on_c, 0, 62, 102
1, 443292, Note_on_c, 0, 55, 90
1, 443295, Note_on_c, 0, 58, 94
1, 443296, Note_on_c, 0, 43, 79
1, 443482, Control_c, 0, 64, 52
1, 443497, Control_c, 0, 64, 61
1, 443512, Control_c, 0, 64, 67
1, 443514, Note_off_c, 0, 43, 63
1, 443527, Control_c, 0, 64, 75
1, 443534, Note_off_c, 0, 58, 61
1, 443542, Control_c, 0, 64, 94
1, 443547, Note_off_c, 0, 55, 62
1, 443564, Control_c, 0, 64, 127
1, 443568, Note_off_c, 0, 62, 61
1, 443573, Note_off_c, 0, 50, 63
1, 444028, Note_on_c, 0, 67, 46
1, 444038, Control_c, 0, 64, 77
1, 444041, Note_on_c, 0, 74, 55
1, 444053, Control_c, 0, 64, 55
1, 444059, Note_on_c, 0, 70, 46
1, 444068, Control_c, 0, 64, 0
1, 444143, Control_c, 0, 64, 38
1, 444155, Note_off_c, 0, 70, 50
1, 444158, Control_c, 0, 64, 49
1, 444173, Control_c, 0, 64, 56
1, 444187, Control_c, 0, 64, 62
1, 444199, Note_on_c, 0, 62, 36
1, 444202, Control_c, 0, 64, 64
1, 444217, Control_c, 0, 64, 65
1, 444232, Control_c, 0, 64, 66
1, 444247, Control_c, 0, 64, 68
1, 444262, Control_c, 0, 64, 72
1, 444263, Note_off_c, 0, 67, 35
1, 444264, Note_off_c, 0, 74, 63
1, 444277, Control_c, 0, 64, 81
1, 444292, Control_c, 0, 64, 94
1, 444312, Note_off_c, 0, 62, 38
1, 444313, Control_c, 0, 64, 113
1, 444328, Control_c, 0, 64, 127
1, 444357, Note_on_c, 0, 55, 44
1, 444364, Note_on_c, 0, 74, 48
1, 444387, Note_on_c, 0, 70, 34
1, 444453, Note_off_c, 0, 74, 52
1, 444480, Note_off_c, 0, 70, 56
1, 444490, Note_off_c, 0, 55, 56
1, 444514, Note_on_c, 0, 53, 49
1, 444551, Control_c, 0, 64, 94
1, 444556, Note_on_c, 0, 69, 38
1, 444559, Note_on_c, 0, 74, 57
1, 444566, Control_c, 0, 64, 74
1, 444581, Control_c, 0, 64, 66
1, 444595, Control_c, 0, 64, 64
1, 444610, Control_c, 0, 64, 65
1, 444625, Control_c, 0, 64, 68
1, 444639, Control_c, 0, 64, 73
1, 444643, Note_off_c, 0, 53, 60
1, 444654, Control_c, 0, 64, 85
1, 444669, Control_c, 0, 64, 100
1, 444676, Note_on_c, 0, 62, 41
1, 444678, Note_on_c, 0, 75, 67
1, 444679, Note_off_c, 0, 74, 56
1, 444684, Control_c, 0, 64, 127
1, 444729, Note_off_c, 0, 62, 62
1, 444748, Note_off_c, 0, 69, 42
1, 444772, Note_off_c, 0, 75, 56
1, 444777, Note_on_c, 0, 74, 68
1, 444847, Note_on_c, 0, 63, 63
1, 444867, Note_on_c, 0, 72, 71
1, 444870, Note_off_c, 0, 74, 62
1, 444876, Control_c, 0, 64, 87
1, 444882, Note_on_c, 0, 67, 48
1, 444891, Control_c, 0, 64, 73
1, 444906, Control_c, 0, 64, 68
1, 444921, Control_c, 0, 64, 67
1, 444930, Note_off_c, 0, 63, 56
1, 444935, Control_c, 0, 64, 69
1, 444938, Note_on_c, 0, 60, 59
1, 444951, Control_c, 0, 64, 73
1, 444957, Note_on_c, 0, 74, 74
1, 444963, Note_off_c, 0, 67, 42
1, 444966, Control_c, 0, 64, 80
1, 444969, Note_off_c, 0, 72, 64
1, 444981, Control_c, 0, 64, 93
1, 444996, Control_c, 0, 64, 127
1, 445001, Note_off_c, 0, 60, 62
1, 445013, Note_on_c, 0, 51, 67
1, 445044, Note_on_c, 0, 72, 79
1, 445070, Note_off_c, 0, 51, 61
1, 445084, Note_off_c, 0, 74, 59
1, 445122, Control_c, 0, 64, 113
1, 445131, Note_on_c, 0, 50, 66
1, 445132, Note_off_c, 0, 72, 59
1, 445135, Note_on_c, 0, 70, 80
1, 445136, Control_c, 0, 64, 80
1, 445145, Note_on_c, 0, 67, 64
1, 445151, Control_c, 0, 64, 67
1, 445166, Control_c, 0, 64, 63
1, 445196, Control_c, 0, 64, 64
1, 445201, Note_on_c, 0, 58, 61
1, 445201, Note_off_c, 0, 50, 58
1, 445207, Note_off_c, 0, 67, 63
1, 445210, Note_off_c, 0, 70, 63
1, 445210, Control_c, 0, 64, 67
1, 445225, Control_c, 0, 64, 70
1, 445234, Note_on_c, 0, 72, 61
1, 445240, Control_c, 0, 64, 75
1, 445254, Control_c, 0, 64, 84
1, 445269, Control_c, 0, 64, 100
1, 445284, Note_off_c, 0, 72, 53
1, 445284, Control_c, 0, 64, 127
1, 445285, Note_off_c, 0, 58, 61
1, 445293, Note_on_c, 0, 62, 73
1, 445316, Note_on_c, 0, 70, 82
1, 445323, Note_off_c, 0, 62, 65
1, 445400, Note_on_c, 0, 69, 73
1, 445403, Control_c, 0, 64, 86
1, 445405, Note_on_c, 0, 60, 76
1, 445405, Note_on_c, 0, 66, 69
1, 445409, Note_off_c, 0, 70, 56
1, 445418, Control_c, 0, 64, 70
1, 445424, Note_on_c, 0, 63, 48
1, 445433, Control_c, 0, 64, 64
1, 445462, Control_c, 0, 64, 67
1, 445469, Note_off_c, 0, 60, 60
1, 445470, Note_off_c, 0, 63, 42
1, 445477, Control_c, 0, 64, 74
1, 445486, Note_on_c, 0, 54, 71
1, 445486, Note_off_c, 0, 69, 61
1, 445487, Note_on_c, 0, 70, 83
1, 445492, Control_c, 0, 64, 91
1, 445507, Control_c, 0, 64, 127
1, 445512, Note_off_c, 0, 66, 60
1, 445550, Note_on_c, 0, 48, 69
1, 445573, Note_off_c, 0, 54, 63
1, 445579, Note_on_c, 0, 69, 82
1, 445606, Note_off_c, 0, 48, 64
1, 445625, Control_c, 0, 64, 119
1, 445640, Control_c, 0, 64, 82
1, 445654, Note_on_c, 0, 67, 81
1, 445654, Control_c, 0, 64, 69
1, 445658, Note_off_c, 0, 69, 61
1, 445660, Note_off_c, 0, 70, 34
1, 445669, Control_c, 0, 64, 63
1, 445675, Note_on_c, 0, 46, 68
1, 445677, Note_on_c, 0, 62, 59
1, 445699, Control_c, 0, 64, 65
1, 445714, Control_c, 0, 64, 69
1, 445725, Note_on_c, 0, 55, 60
1, 445728, Control_c, 0, 64, 79
1, 445743, Control_c, 0, 64, 110
1, 445752, Note_on_c, 0, 69, 83
1, 445752, Note_off_c, 0, 67, 62
1, 445759, Control_c, 0, 64, 127
1, 445776, Note_off_c, 0, 46, 58
1, 445792, Note_off_c, 0, 62, 61
1, 445824, Note_off_c, 0, 55, 63
1, 445826, Note_on_c, 0, 58, 68
1, 445851, Note_on_c, 0, 67, 84
1, 445856, Control_c, 0, 64, 89
1, 445871, Control_c, 0, 64, 67
1, 445885, Control_c, 0, 64, 61
1, 445890, Note_off_c, 0, 69, 60
1, 445897, Note_off_c, 0, 58, 64
1, 445900, Control_c, 0, 64, 62
1, 445915, Control_c, 0, 64, 63
1, 445921, Note_off_c, 0, 67, 63
1, 445925, Note_on_c, 0, 57, 55
1, 445930, Control_c, 0, 64, 66
1, 445932, Note_on_c, 0, 62, 76
1, 445945, Control_c, 0, 64, 71
1, 445946, Note_on_c, 0, 60, 46
1, 445959, Control_c, 0, 64, 81
1, 445974, Control_c, 0, 64, 96
1, 445989, Control_c, 0, 64, 127
1, 445991, Note_on_c, 0, 50, 55
1, 446032, Note_off_c, 0, 60, 58
1, 446038, Note_on_c, 0, 64, 67
1, 446042, Note_off_c, 0, 57, 38
1, 446056, Note_off_c, 0, 62, 61
1, 446088, Note_on_c, 0, 45, 61
1, 446115, Note_off_c, 0, 50, 63
1, 446117, Note_on_c, 0, 66, 70
1, 446126, Note_off_c, 0, 64, 62
1, 446153, Note_off_c, 0, 45, 61
1, 446196, Control_c, 0, 64, 83
1, 446210, Control_c, 0, 64, 66
1, 446225, Control_c, 0, 64, 50
1, 446240, Control_c, 0, 64, 0
1, 446252, Note_on_c, 0, 43, 49
1, 446252, Note_on_c, 0, 67, 61
1, 446259, Note_on_c, 0, 62, 48
1, 446276, Note_on_c, 0, 58, 39
1, 446313, Note_off_c, 0, 66, 26
1, 446344, Control_c, 0, 64, 31
1, 446358, Control_c, 0, 64, 48
1, 446373, Control_c, 0, 64, 56
1, 446374, Note_off_c, 0, 62, 61
1, 446384, Note_on_c, 0, 50, 47
1, 446387, Note_off_c, 0, 43, 56
1, 446388, Control_c, 0, 64, 61
1, 446402, Control_c, 0, 64, 64
1, 446413, Note_off_c, 0, 58, 61
1, 446417, Control_c, 0, 64, 68
1, 446432, Control_c, 0, 64, 74
1, 446447, Control_c, 0, 64, 85
1, 446462, Control_c, 0, 64, 109
1, 446472, Note_off_c, 0, 50, 59
1, 446473, Note_off_c, 0, 67, 62
1, 446474, Note_on_c, 0, 55, 51
1, 446477, Control_c, 0, 64, 127
1, 446515, Note_off_c, 0, 55, 63
1, 446632, Note_on_c, 0, 67, 53
1, 446648, Control_c, 0, 64, 85
1, 446650, Note_on_c, 0, 59, 51
1, 446658, Note_on_c, 0, 65, 50
1, 446661, Note_on_c, 0, 62, 35
1, 446663, Control_c, 0, 64, 69
1, 446678, Control_c, 0, 64, 63
1, 446693, Control_c, 0, 64, 60
1, 446697, Note_off_c, 0, 62, 52
1, 446722, Control_c, 0, 64, 62
1, 446728, Note_off_c, 0, 59, 55
1, 446737, Control_c, 0, 64, 64
1, 446741, Note_off_c, 0, 67, 62
1, 446744, Note_on_c, 0, 68, 63
1, 446749, Note_on_c, 0, 55, 48
1, 446752, Control_c, 0, 64, 66
1, 446767, Note_off_c, 0, 65, 63
1, 446767, Control_c, 0, 64, 69
1, 446781, Control_c, 0, 64, 74
1, 446796, Control_c, 0, 64, 83
1, 446805, Note_off_c, 0, 55, 61
1, 446811, Control_c, 0, 64, 98
1, 446825, Control_c, 0, 64, 127
1, 446828, Note_on_c, 0, 47, 62
1, 446834, Note_off_c, 0, 68, 51
1, 446834, Note_on_c, 0, 67, 76
1, 446862, Note_off_c, 0, 47, 62
1, 446864, Note_off_c, 0, 67, 65
1, 446926, Note_on_c, 0, 63, 61
1, 446930, Control_c, 0, 64, 100
1, 446939, Note_on_c, 0, 67, 81
1, 446945, Note_on_c, 0, 48, 66
1, 446945, Control_c, 0, 64, 77
1, 446959, Control_c, 0, 64, 68
1, 446974, Control_c, 0, 64, 66
1, 446989, Control_c, 0, 64, 68
1, 447004, Control_c, 0, 64, 71
1, 447019, Control_c, 0, 64, 79
1, 447022, Note_on_c, 0, 55, 63
1, 447023, Note_on_c, 0, 72, 73
1, 447027, Note_off_c, 0, 67, 62
1, 447033, Control_c, 0, 64, 97
1, 447048, Control_c, 0, 64, 127
1, 447071, Note_off_c, 0, 48, 53
1, 447105, Note_on_c, 0, 60, 66
1, 447106, Note_off_c, 0, 72, 62
1, 447111, Note_off_c, 0, 55, 62
1, 447112, Note_on_c, 0, 67, 56
1, 447130, Note_off_c, 0, 60, 64
1, 447139, Note_off_c, 0, 67, 58
1, 447181, Control_c, 0, 64, 117
1, 447190, Note_off_c, 0, 63, 0
1, 447196, Control_c, 0, 64, 80
1, 447202, Note_on_c, 0, 60, 64
1, 447206, Note_on_c, 0, 57, 79
1, 447210, Note_on_c, 0, 65, 80
1, 447211, Control_c, 0, 64, 67
1, 447213, Note_on_c, 0, 63, 22
1, 447225, Control_c, 0, 64, 62
1, 447240, Control_c, 0, 64, 61
1, 447247, Note_off_c, 0, 63, 55
1, 447255, Control_c, 0, 64, 64
1, 447270, Control_c, 0, 64, 69
1, 447285, Control_c, 0, 64, 85
1, 447302, Note_off_c, 0, 65, 62
1, 447304, Note_off_c, 0, 57, 48
1, 447305, Note_on_c, 0, 67, 72
1, 447307, Control_c, 0, 64, 127
1, 447318, Note_off_c, 0, 60, 61
1, 447336, Note_on_c, 0, 53, 65
1, 447377, Note_off_c, 0, 67, 61
1, 447386, Note_on_c, 0, 65, 82
1, 447388, Note_on_c, 0, 45, 57
1, 447398, Control_c, 0, 64, 79
1, 447405, Note_off_c, 0, 53, 63
1, 447412, Control_c, 0, 64, 62
1, 447417, Note_off_c, 0, 45, 62
1, 447427, Control_c, 0, 64, 54
1, 447439, Note_off_c, 0, 65, 61
1, 447442, Control_c, 0, 64, 57
1, 447456, Control_c, 0, 64, 63
1, 447471, Note_on_c, 0, 46, 87
1, 447471, Control_c, 0, 64, 70
1, 447478, Note_on_c, 0, 65, 68
1, 447486, Note_on_c, 0, 62, 67
1, 447486, Control_c, 0, 64, 85
1, 447501, Control_c, 0, 64, 127
1, 447511, Note_on_c, 0, 45, 34
1, 447520, Note_off_c, 0, 62, 62
1, 447526, Note_on_c, 0, 53, 64
1, 447546, Note_off_c, 0, 45, 52
1, 447560, Note_on_c, 0, 70, 88
1, 447576, Note_off_c, 0, 65, 62
1, 447610, Note_on_c, 0, 58, 77
1, 447627, Note_off_c, 0, 53, 62
1, 447656, Note_on_c, 0, 65, 76
1, 447666, Note_off_c, 0, 58, 63
1, 447669, Note_off_c, 0, 70, 58
1, 447675, Note_off_c, 0, 46, 61
1, 447709, Control_c, 0, 64, 72
1, 447721, Note_off_c, 0, 65, 59
1, 447723, Note_on_c, 0, 56, 91
1, 447723, Control_c, 0, 64, 0
1, 447726, Note_on_c, 0, 51, 89
1, 447728, Note_on_c, 0, 48, 88
1, 447729, Note_on_c, 0, 63, 86
1, 447732, Note_on_c, 0, 60, 77
1, 447746, Note_off_c, 0, 56, 71
1, 447755, Note_off_c, 0, 51, 68
1, 447759, Note_off_c, 0, 48, 66
1, 447789, Note_off_c, 0, 60, 64
1, 447805, Note_off_c, 0, 63, 64
1, 447820, Note_on_c, 0, 65, 88
1, 447862, Note_on_c, 0, 36, 88
1, 447865, Note_on_c, 0, 64, 29
1, 447887, Note_off_c, 0, 36, 68
1, 447895, Note_off_c, 0, 65, 63
1, 447901, Note_on_c, 0, 63, 84
1, 447901, Note_off_c, 0, 64, 32
1, 447946, Control_c, 0, 64, 61
1, 447961, Control_c, 0, 64, 62
1, 447970, Note_off_c, 0, 63, 62
1, 447975, Note_on_c, 0, 50, 91
1, 447975, Control_c, 0, 64, 51
1, 447977, Note_on_c, 0, 62, 89
1, 447979, Note_on_c, 0, 55, 85
1, 447983, Note_on_c, 0, 58, 85
1, 447988, Note_on_c, 0, 46, 85
1, 447990, Control_c, 0, 64, 11
1, 448004, Note_on_c, 0, 53, 63
1, 448005, Control_c, 0, 64, 0
1, 448010, Note_off_c, 0, 55, 63
1, 448018, Note_off_c, 0, 50, 65
1, 448028, Note_off_c, 0, 53, 39
1, 448042, Note_off_c, 0, 46, 65
1, 448065, Note_on_c, 0, 63, 92
1, 448080, Note_off_c, 0, 62, 61
1, 448087, Note_off_c, 0, 58, 62
1, 448123, Note_on_c, 0, 36, 89
1, 448143, Note_on_c, 0, 62, 85
1, 448143, Note_off_c, 0, 63, 60
1, 448164, Note_off_c, 0, 36, 64
1, 448178, Note_on_c, 0, 57, 58
1, 448191, Note_off_c, 0, 62, 65
1, 448191, Control_c, 0, 64, 58
1, 448206, Control_c, 0, 64, 67
1, 448209, Note_off_c, 0, 57, 65
1, 448221, Control_c, 0, 64, 51
1, 448235, Note_on_c, 0, 62, 95
1, 448235, Control_c, 0, 64, 0
1, 448241, Note_on_c, 0, 48, 88
1, 448241, Note_on_c, 0, 54, 97
1, 448246, Note_on_c, 0, 50, 74
1, 448275, Note_off_c, 0, 50, 64
1, 448289, Note_off_c, 0, 54, 65
1, 448298, Note_off_c, 0, 48, 64
1, 448299, Note_off_c, 0, 62, 0
1, 448320, Note_on_c, 0, 63, 96
1, 448337, Poly_aftertouch_c, 0, 62, 127
1, 448343, Poly_aftertouch_c, 0, 62, 0
1, 448354, Note_on_c, 0, 40, 92
1, 448393, Note_off_c, 0, 40, 64
1, 448395, Note_off_c, 0, 63, 66
1, 448400, Note_on_c, 0, 62, 83
1, 448458, Note_off_c, 0, 62, 63
1, 448504, Note_on_c, 0, 62, 94
1, 448513, Note_on_c, 0, 50, 93
1, 448514, Note_on_c, 0, 58, 100
1, 448516, Note_on_c, 0, 55, 102
1, 448518, Note_on_c, 0, 43, 92
1, 448532, Control_c, 0, 64, 42
1, 448547, Control_c, 0, 64, 72
1, 448561, Control_c, 0, 64, 127
1, 448573, Note_off_c, 0, 55, 65
1, 448575, Note_off_c, 0, 43, 65
1, 448580, Note_off_c, 0, 50, 65
1, 448630, Note_off_c, 0, 62, 67
1, 448631, Note_off_c, 0, 58, 62
1, 448754, Control_c, 0, 64, 73
1, 448769, Control_c, 0, 64, 22
1, 448784, Control_c, 0, 64, 0
1, 448835, Control_c, 0, 67, 67
1, 448849, Note_on_c, 0, 55, 86
1, 448850, Control_c, 0, 67, 127
1, 448864, Note_off_c, 0, 55, 71
1, 448922, Note_on_c, 0, 58, 68
1, 448929, Note_on_c, 0, 62, 61
1, 448958, Note_off_c, 0, 58, 66
1, 448966, Note_off_c, 0, 62, 65
1, 448990, Note_on_c, 0, 67, 60
1, 449010, Note_off_c, 0, 67, 62
1, 449061, Note_on_c, 0, 58, 58
1, 449064, Note_on_c, 0, 62, 52
1, 449095, Note_off_c, 0, 58, 64
1, 449096, Note_off_c, 0, 62, 64
1, 449123, Note_on_c, 0, 56, 94
1, 449155, Note_off_c, 0, 56, 67
1, 449177, Control_c, 0, 64, 49
1, 449183, Note_on_c, 0, 62, 67
1, 449192, Control_c, 0, 64, 53
1, 449196, Note_on_c, 0, 59, 59
1, 449203, Note_on_c, 0, 65, 62
1, 449207, Control_c, 0, 64, 52
1, 449222, Control_c, 0, 64, 48
1, 449231, Note_off_c, 0, 59, 63
1, 449232, Note_off_c, 0, 62, 60
1, 449236, Control_c, 0, 64, 46
1, 449237, Note_off_c, 0, 65, 64
1, 449251, Control_c, 0, 64, 43
1, 449263, Note_on_c, 0, 68, 82
1, 449266, Control_c, 0, 64, 39
1, 449281, Control_c, 0, 64, 33
1, 449288, Note_off_c, 0, 68, 66
1, 449296, Control_c, 0, 64, 22
1, 449310, Control_c, 0, 64, 0
1, 449312, Note_on_c, 0, 65, 61
1, 449320, Note_on_c, 0, 59, 59
1, 449329, Note_on_c, 0, 62, 55
1, 449351, Note_off_c, 0, 59, 65
1, 449353, Note_off_c, 0, 62, 62
1, 449356, Note_off_c, 0, 65, 62
1, 449405, Note_on_c, 0, 55, 86
1, 449428, Note_off_c, 0, 55, 70
1, 449442, Note_on_c, 0, 63, 67
1, 449455, Note_on_c, 0, 60, 55
1, 449475, Note_off_c, 0, 63, 63
1, 449485, Note_off_c, 0, 60, 66
1, 449542, Note_on_c, 0, 67, 69
1, 449567, Note_off_c, 0, 67, 66
1, 449580, Note_on_c, 0, 60, 62
1, 449582, Note_on_c, 0, 63, 61
1, 449619, Note_off_c, 0, 63, 61
1, 449621, Note_off_c, 0, 60, 64
1, 449680, Note_on_c, 0, 56, 93
1, 449703, Control_c, 0, 64, 66
1, 449718, Control_c, 0, 64, 92
1, 449726, Note_off_c, 0, 56, 64
1, 449733, Control_c, 0, 64, 127
1, 449736, Note_on_c, 0, 59, 79
1, 449738, Note_on_c, 0, 62, 74
1, 449744, Note_on_c, 0, 65, 68
1, 449770, Note_off_c, 0, 62, 65
1, 449774, Note_off_c, 0, 65, 66
1, 449775, Note_off_c, 0, 59, 61
1, 449824, Note_on_c, 0, 68, 79
1, 449845, Note_off_c, 0, 68, 71
1, 449860, Note_on_c, 0, 65, 64
1, 449874, Note_on_c, 0, 62, 57
1, 449877, Note_on_c, 0, 59, 64
1, 449905, Note_off_c, 0, 59, 64
1, 449905, Note_off_c, 0, 62, 64
1, 449911, Control_c, 0, 64, 105
1, 449915, Note_off_c, 0, 65, 62
1, 449925, Control_c, 0, 64, 67
1, 449940, Control_c, 0, 64, 0
1, 449957, Note_on_c, 0, 55, 78
1, 449961, Note_on_c, 0, 53, 77
1, 449978, Note_off_c, 0, 53, 67
1, 449983, Note_off_c, 0, 55, 69
1, 449999, Note_on_c, 0, 63, 64
1, 450000, Note_on_c, 0, 60, 70
1, 450031, Note_off_c, 0, 60, 67
1, 450031, Note_off_c, 0, 63, 65
1, 450076, Note_on_c, 0, 67, 77
1, 450100, Note_off_c, 0, 67, 70
1, 450115, Note_on_c, 0, 63, 63
1, 450133, Note_on_c, 0, 60, 62
1, 450161, Note_off_c, 0, 60, 65
1, 450174, Note_off_c, 0, 63, 62
1, 450203, Note_on_c, 0, 53, 85
1, 450230, Note_off_c, 0, 53, 68
1, 450260, Note_on_c, 0, 56, 71
1, 450262, Note_on_c, 0, 62, 65
1, 450301, Note_off_c, 0, 56, 67
1, 450301, Note_off_c, 0, 62, 64
1, 450350, Note_on_c, 0, 65, 50
1, 450379, Note_off_c, 0, 65, 62
1, 450380, Note_on_c, 0, 62, 72
1, 450384, Note_on_c, 0, 56, 69
1, 450418, Note_off_c, 0, 56, 65
1, 450418, Note_off_c, 0, 62, 64
1, 450461, Note_on_c, 0, 51, 90
1, 450491, Note_off_c, 0, 51, 68
1, 450519, Note_on_c, 0, 60, 79
1, 450527, Note_on_c, 0, 55, 68
1, 450555, Note_off_c, 0, 60, 66
1, 450558, Note_off_c, 0, 55, 65
1, 450602, Note_on_c, 0, 63, 62
1, 450626, Note_off_c, 0, 63, 61
1, 450651, Note_on_c, 0, 60, 74
1, 450657, Note_on_c, 0, 55, 49
1, 450689, Note_off_c, 0, 60, 65
1, 450693, Note_off_c, 0, 55, 63
1, 450724, Note_on_c, 0, 50, 80
1, 450753, Note_off_c, 0, 50, 70
1, 450780, Note_on_c, 0, 55, 72
1, 450782, Note_on_c, 0, 58, 75
1, 450819, Note_off_c, 0, 58, 64
1, 450821, Note_off_c, 0, 55, 63
1, 450864, Note_on_c, 0, 62, 70
1, 450901, Note_off_c, 0, 62, 63
1, 450918, Note_on_c, 0, 58, 77
1, 450925, Note_on_c, 0, 55, 70
1, 450953, Note_off_c, 0, 55, 65
1, 450953, Note_off_c, 0, 58, 65
1, 450991, Note_on_c, 0, 54, 76
1, 451022, Note_off_c, 0, 54, 67
1, 451061, Note_on_c, 0, 57, 71
1, 451064, Note_on_c, 0, 60, 70
1, 451065, Note_on_c, 0, 62, 68
1, 451091, Note_off_c, 0, 57, 67
1, 451091, Note_off_c, 0, 60, 66
1, 451093, Note_off_c, 0, 62, 66
1, 451125, Note_on_c, 0, 66, 67
1, 451160, Note_off_c, 0, 66, 65
1, 451170, Note_on_c, 0, 62, 65
1, 451179, Note_on_c, 0, 57, 58
1, 451179, Note_on_c, 0, 60, 51
1, 451207, Note_off_c, 0, 57, 66
1, 451210, Note_off_c, 0, 60, 65
1, 451210, Note_off_c, 0, 62, 65
1, 451252, Note_on_c, 0, 55, 86
1, 451287, Note_off_c, 0, 55, 65
1, 451324, Note_on_c, 0, 58, 60
1, 451324, Note_on_c, 0, 62, 57
1, 451357, Note_off_c, 0, 62, 64
1, 451359, Note_off_c, 0, 58, 64
1, 451383, Note_on_c, 0, 67, 70
1, 451409, Note_off_c, 0, 67, 69
1, 451437, Note_on_c, 0, 58, 64
1, 451447, Note_on_c, 0, 62, 51
1, 451477, Note_off_c, 0, 58, 65
1, 451483, Note_off_c, 0, 62, 64
1, 451502, Note_on_c, 0, 55, 87
1, 451536, Note_off_c, 0, 55, 66
1, 451561, Note_on_c, 0, 62, 72
1, 451569, Note_on_c, 0, 58, 67
1, 451599, Note_off_c, 0, 62, 64
1, 451601, Note_off_c, 0, 58, 66
1, 451648, Note_on_c, 0, 67, 71
1, 451674, Note_on_c, 0, 58, 71
1, 451675, Note_off_c, 0, 67, 68
1, 451679, Note_on_c, 0, 62, 68
1, 451717, Note_off_c, 0, 58, 60
1, 451721, Note_off_c, 0, 62, 64
1, 451765, Control_c, 0, 64, 66
1, 451766, Note_on_c, 0, 56, 98
1, 451780, Control_c, 0, 64, 84
1, 451802, Control_c, 0, 64, 127
1, 451811, Note_off_c, 0, 56, 66
1, 451836, Note_on_c, 0, 59, 73
1, 451839, Note_on_c, 0, 62, 69
1, 451842, Note_on_c, 0, 65, 57
1, 451866, Note_off_c, 0, 62, 67
1, 451869, Note_off_c, 0, 59, 65
1, 451874, Note_off_c, 0, 65, 65
1, 451946, Note_on_c, 0, 67, 50
1, 451952, Note_on_c, 0, 65, 62
1, 451964, Note_on_c, 0, 62, 48
1, 451965, Control_c, 0, 64, 90
1, 451966, Note_on_c, 0, 59, 62
1, 451968, Note_off_c, 0, 67, 61
1, 451979, Control_c, 0, 64, 58
1, 451985, Note_off_c, 0, 62, 64
1, 451988, Note_off_c, 0, 59, 64
1, 451994, Control_c, 0, 64, 0
1, 452009, Note_off_c, 0, 65, 62
1, 452043, Note_on_c, 0, 55, 90
1, 452075, Note_off_c, 0, 55, 67
1, 452090, Note_on_c, 0, 63, 58
1, 452099, Note_on_c, 0, 60, 54
1, 452113, Note_off_c, 0, 63, 63
1, 452128, Note_off_c, 0, 60, 65
1, 452168, Note_on_c, 0, 67, 83
1, 452193, Note_on_c, 0, 63, 65
1, 452197, Note_on_c, 0, 60, 72
1, 452197, Note_off_c, 0, 67, 65
1, 452233, Note_off_c, 0, 60, 62
1, 452246, Note_off_c, 0, 63, 60
1, 452277, Control_c, 0, 64, 55
1, 452288, Note_on_c, 0, 56, 105
1, 452292, Control_c, 0, 64, 69
1, 452307, Control_c, 0, 64, 83
1, 452321, Control_c, 0, 64, 127
1, 452328, Note_off_c, 0, 56, 69
1, 452361, Note_on_c, 0, 62, 75
1, 452364, Note_on_c, 0, 59, 76
1, 452367, Note_on_c, 0, 65, 62
1, 452400, Note_off_c, 0, 65, 65
1, 452412, Note_off_c, 0, 62, 62
1, 452412, Note_off_c, 0, 59, 60
1, 452438, Note_on_c, 0, 68, 77
1, 452462, Note_off_c, 0, 68, 68
1, 452477, Note_on_c, 0, 65, 68
1, 452486, Note_on_c, 0, 62, 61
1, 452489, Note_on_c, 0, 59, 59
1, 452519, Note_off_c, 0, 62, 66
1, 452519, Note_off_c, 0, 59, 65
1, 452534, Note_off_c, 0, 65, 61
1, 452551, Control_c, 0, 64, 67
1, 452561, Note_on_c, 0, 55, 92
1, 452566, Control_c, 0, 64, 0
1, 452598, Note_off_c, 0, 55, 67
1, 452621, Note_on_c, 0, 63, 69
1, 452623, Note_on_c, 0, 60, 73
1, 452657, Note_off_c, 0, 63, 63
1, 452659, Note_off_c, 0, 60, 66
1, 452696, Note_on_c, 0, 67, 82
1, 452725, Note_off_c, 0, 67, 65
1, 452743, Note_on_c, 0, 60, 69
1, 452746, Note_on_c, 0, 63, 61
1, 452777, Note_off_c, 0, 60, 66
1, 452784, Note_off_c, 0, 63, 62
1, 452826, Note_on_c, 0, 53, 88
1, 452851, Note_off_c, 0, 53, 68
1, 452876, Note_on_c, 0, 62, 66
1, 452884, Note_on_c, 0, 56, 63
1, 452916, Note_off_c, 0, 62, 64
1, 452923, Note_off_c, 0, 56, 67
1, 452955, Note_on_c, 0, 65, 69
1, 452984, Note_off_c, 0, 65, 69
1, 453002, Note_on_c, 0, 56, 63
1, 453002, Note_on_c, 0, 62, 66
1, 453034, Note_off_c, 0, 62, 66
1, 453038, Note_off_c, 0, 56, 64
1, 453076, Note_on_c, 0, 51, 87
1, 453098, Note_off_c, 0, 51, 68
1, 453133, Note_on_c, 0, 60, 75
1, 453141, Note_on_c, 0, 55, 65
1, 453169, Note_off_c, 0, 60, 66
1, 453174, Note_off_c, 0, 55, 64
1, 453206, Note_on_c, 0, 63, 72
1, 453234, Note_off_c, 0, 63, 66
1, 453259, Note_on_c, 0, 60, 77
1, 453261, Note_on_c, 0, 55, 58
1, 453303, Note_off_c, 0, 60, 65
1, 453309, Note_off_c, 0, 55, 66
1, 453333, Note_on_c, 0, 50, 79
1, 453370, Note_off_c, 0, 50, 66
1, 453400, Note_on_c, 0, 58, 72
1, 453407, Note_on_c, 0, 55, 70
1, 453437, Note_off_c, 0, 58, 63
1, 453439, Note_off_c, 0, 55, 66
1, 453466, Note_on_c, 0, 62, 71
1, 453511, Note_off_c, 0, 62, 63
1, 453523, Note_on_c, 0, 58, 75
1, 453531, Note_on_c, 0, 55, 64
1, 453558, Note_off_c, 0, 58, 66
1, 453561, Note_off_c, 0, 55, 65
1, 453589, Note_on_c, 0, 54, 80
1, 453621, Note_off_c, 0, 54, 67
1, 453651, Note_on_c, 0, 60, 63
1, 453652, Note_on_c, 0, 57, 65
1, 453652, Note_on_c, 0, 62, 57
1, 453679, Note_off_c, 0, 60, 67
1, 453680, Note_off_c, 0, 57, 66
1, 453684, Note_off_c, 0, 62, 65
1, 453710, Note_on_c, 0, 66, 75
1, 453747, Note_on_c, 0, 57, 65
1, 453750, Note_on_c, 0, 62, 68
1, 453750, Note_off_c, 0, 66, 58
1, 453752, Note_on_c, 0, 60, 58
1, 453777, Note_off_c, 0, 57, 66
1, 453779, Note_off_c, 0, 60, 67
1, 453781, Note_off_c, 0, 62, 66
1, 453837, Note_on_c, 0, 55, 83
1, 453862, Control_c, 0, 64, 50
1, 453871, Note_off_c, 0, 55, 64
1, 453877, Control_c, 0, 64, 56
1, 453882, Note_on_c, 0, 58, 59
1, 453887, Note_on_c, 0, 62, 63
1, 453891, Control_c, 0, 64, 59
1, 453906, Control_c, 0, 64, 62
1, 453919, Note_off_c, 0, 58, 66
1, 453921, Control_c, 0, 64, 64
1, 453924, Note_off_c, 0, 62, 65
1, 453936, Control_c, 0, 64, 68
1, 453951, Control_c, 0, 64, 74
1, 453959, Note_on_c, 0, 67, 77
1, 453965, Control_c, 0, 64, 89
1, 453980, Control_c, 0, 64, 127
1, 453987, Note_off_c, 0, 67, 64
1, 454092, Control_c, 0, 64, 86
1, 454105, Note_on_c, 0, 67, 101
1, 454106, Control_c, 0, 64, 63
1, 454117, Note_on_c, 0, 58, 83
1, 454121, Note_on_c, 0, 62, 72
1, 454121, Control_c, 0, 64, 42
1, 454136, Control_c, 0, 64, 41
1, 454146, Note_off_c, 0, 62, 69
1, 454148, Note_off_c, 0, 58, 64
1, 454151, Control_c, 0, 64, 53
1, 454158, Note_off_c, 0, 67, 63
1, 454165, Control_c, 0, 64, 62
1, 454180, Control_c, 0, 64, 68
1, 454195, Control_c, 0, 64, 76
1, 454210, Control_c, 0, 64, 93
1, 454225, Control_c, 0, 64, 127
1, 454254, Note_on_c, 0, 58, 79
1, 454282, Note_on_c, 0, 62, 42
1, 454285, Note_on_c, 0, 67, 30
1, 454307, Note_off_c, 0, 58, 62
1, 454311, Note_off_c, 0, 62, 54
1, 454315, Note_off_c, 0, 67, 51
1, 454319, Note_on_c, 0, 79, 47
1, 454340, Note_off_c, 0, 79, 59
1, 454358, Control_c, 0, 64, 113
1, 454373, Control_c, 0, 64, 72
1, 454377, Note_on_c, 0, 68, 99
1, 454382, Note_on_c, 0, 59, 81
1, 454382, Note_on_c, 0, 62, 76
1, 454388, Control_c, 0, 64, 60
1, 454396, Note_on_c, 0, 80, 87
1, 454403, Control_c, 0, 64, 60
1, 454417, Control_c, 0, 64, 66
1, 454432, Control_c, 0, 64, 79
1, 454443, Note_off_c, 0, 80, 64
1, 454444, Note_off_c, 0, 59, 59
1, 454445, Note_on_c, 0, 92, 79
1, 454447, Note_off_c, 0, 62, 49
1, 454447, Control_c, 0, 64, 127
1, 454447, Control_c, 0, 67, 123
1, 454452, Note_off_c, 0, 68, 60
1, 454462, Control_c, 0, 67, 104
1, 454477, Control_c, 0, 67, 86
1, 454486, Note_off_c, 0, 92, 64
1, 454491, Control_c, 0, 67, 69
1, 454506, Control_c, 0, 67, 56
1, 454512, Note_on_c, 0, 80, 72
1, 454521, Control_c, 0, 67, 42
1, 454532, Note_on_c, 0, 68, 73
1, 454536, Control_c, 0, 67, 32
1, 454540, Note_on_c, 0, 59, 60
1, 454540, Note_off_c, 0, 80, 69
1, 454549, Note_on_c, 0, 62, 66
1, 454552, Control_c, 0, 67, 27
1, 454567, Control_c, 0, 67, 25
1, 454582, Control_c, 0, 67, 24
1, 454591, Note_off_c, 0, 62, 58
1, 454593, Note_off_c, 0, 68, 61
1, 454596, Control_c, 0, 67, 23
1, 454602, Note_off_c, 0, 59, 63
1, 454611, Control_c, 0, 67, 21
1, 454626, Control_c, 0, 67, 20
1, 454641, Control_c, 0, 67, 18
1, 454656, Control_c, 0, 64, 87
1, 454656, Control_c, 0, 67, 16
1, 454664, Note_on_c, 0, 67, 105
1, 454670, Control_c, 0, 64, 65
1, 454670, Control_c, 0, 67, 12
1, 454678, Note_on_c, 0, 63, 84
1, 454680, Note_on_c, 0, 60, 72
1, 454680, Note_on_c, 0, 59, 76
1, 454685, Control_c, 0, 64, 52
1, 454685, Control_c, 0, 67, 12
1, 454712, Note_off_c, 0, 59, 62
1, 454714, Control_c, 0, 64, 58
1, 454716, Note_off_c, 0, 60, 61
1, 454721, Note_off_c, 0, 67, 59
1, 454729, Control_c, 0, 64, 65
1, 454731, Note_off_c, 0, 63, 62
1, 454744, Control_c, 0, 64, 74
1, 454759, Control_c, 0, 64, 103
1, 454759, Control_c, 0, 67, 12
1, 454774, Control_c, 0, 64, 127
1, 454796, Control_c, 0, 67, 13
1, 454815, Note_on_c, 0, 67, 54
1, 454820, Note_on_c, 0, 60, 71
1, 454826, Control_c, 0, 67, 14
1, 454826, Note_on_c, 0, 63, 72
1, 454840, Note_off_c, 0, 67, 69
1, 454844, Note_on_c, 0, 79, 65
1, 454856, Control_c, 0, 67, 14
1, 454867, Note_off_c, 0, 60, 63
1, 454877, Note_off_c, 0, 79, 66
1, 454880, Note_off_c, 0, 63, 62
1, 454944, Control_c, 0, 64, 96
1, 454949, Note_on_c, 0, 59, 96
1, 454951, Note_on_c, 0, 68, 103
1, 454959, Control_c, 0, 64, 68
1, 454962, Note_on_c, 0, 80, 87
1, 454963, Note_on_c, 0, 62, 72
1, 454974, Control_c, 0, 64, 58
1, 454989, Control_c, 0, 64, 59
1, 455001, Note_off_c, 0, 59, 58
1, 455003, Control_c, 0, 64, 63
1, 455006, Note_on_c, 0, 92, 80
1, 455017, Note_off_c, 0, 80, 65
1, 455018, Control_c, 0, 64, 70
1, 455020, Note_off_c, 0, 62, 61
1, 455033, Control_c, 0, 64, 86
1, 455034, Note_off_c, 0, 68, 59
1, 455047, Control_c, 0, 64, 127
1, 455062, Control_c, 0, 67, 15
1, 455063, Note_off_c, 0, 92, 65
1, 455082, Note_on_c, 0, 80, 80
1, 455093, Note_on_c, 0, 68, 73
1, 455105, Note_on_c, 0, 62, 51
1, 455110, Note_off_c, 0, 80, 65
1, 455111, Note_on_c, 0, 59, 62
1, 455122, Control_c, 0, 67, 14
1, 455151, Note_off_c, 0, 59, 62
1, 455152, Control_c, 0, 67, 15
1, 455167, Note_off_c, 0, 68, 64
1, 455182, Control_c, 0, 67, 14
1, 455190, Note_off_c, 0, 62, 65
1, 455196, Control_c, 0, 67, 14
1, 455211, Control_c, 0, 67, 13
1, 455224, Note_on_c, 0, 67, 103
1, 455226, Control_c, 0, 64, 90
1, 455233, Note_on_c, 0, 63, 93
1, 455235, Note_on_c, 0, 60, 88
1, 455240, Control_c, 0, 64, 65
1, 455255, Control_c, 0, 64, 51
1, 455267, Note_off_c, 0, 67, 69
1, 455270, Control_c, 0, 64, 50
1, 455270, Control_c, 0, 67, 12
1, 455285, Control_c, 0, 64, 56
1, 455294, Note_off_c, 0, 60, 63
1, 455300, Control_c, 0, 64, 64
1, 455300, Control_c, 0, 67, 12
1, 455301, Note_off_c, 0, 63, 63
1, 455315, Control_c, 0, 64, 73
1, 455330, Control_c, 0, 64, 98
1, 455345, Control_c, 0, 64, 127
1, 455365, Note_on_c, 0, 63, 67
1, 455365, Note_on_c, 0, 67, 61
1, 455381, Note_on_c, 0, 60, 67
1, 455396, Note_off_c, 0, 67, 59
1, 455417, Note_on_c, 0, 79, 61
1, 455429, Note_off_c, 0, 60, 65
1, 455430, Note_off_c, 0, 63, 63
1, 455445, Note_off_c, 0, 79, 67
1, 455464, Control_c, 0, 67, 11
1, 455479, Control_c, 0, 67, 10
1, 455491, Poly_aftertouch_c, 0, 61, 0
1, 455494, Control_c, 0, 67, 9
1, 455498, Note_on_c, 0, 65, 95
1, 455502, Note_on_c, 0, 59, 93
1, 455503, Note_on_c, 0, 77, 95
1, 455509, Note_on_c, 0, 56, 85
1, 455509, Control_c, 0, 64, 82
1, 455509, Control_c, 0, 67, 0
1, 455524, Control_c, 0, 64, 64
1, 455545, Control_c, 0, 64, 54
1, 455557, Note_off_c, 0, 59, 63
1, 455560, Control_c, 0, 64, 53
1, 455568, Note_off_c, 0, 77, 62
1, 455574, Note_off_c, 0, 56, 63
1, 455575, Control_c, 0, 64, 58
1, 455584, Note_on_c, 0, 89, 82
1, 455590, Control_c, 0, 64, 64
1, 455605, Control_c, 0, 64, 71
1, 455607, Note_off_c, 0, 65, 56
1, 455615, Note_off_c, 0, 89, 62
1, 455619, Control_c, 0, 64, 85
1, 455634, Control_c, 0, 64, 127
1, 455648, Note_on_c, 0, 56, 72
1, 455649, Note_on_c, 0, 77, 79
1, 455658, Note_on_c, 0, 65, 50
1, 455661, Note_on_c, 0, 59, 78
1, 455663, Note_off_c, 0, 77, 70
1, 455683, Note_off_c, 0, 65, 68
1, 455718, Note_off_c, 0, 56, 63
1, 455724, Note_off_c, 0, 59, 63
1, 455768, Control_c, 0, 64, 109
1, 455775, Note_on_c, 0, 60, 86
1, 455776, Note_on_c, 0, 55, 88
1, 455776, Note_on_c, 0, 63, 103
1, 455783, Control_c, 0, 64, 72
1, 455798, Control_c, 0, 64, 61
1, 455827, Control_c, 0, 64, 65
1, 455831, Note_off_c, 0, 63, 67
1, 455840, Note_off_c, 0, 55, 60
1, 455841, Note_off_c, 0, 60, 65
1, 455842, Control_c, 0, 64, 72
1, 455857, Control_c, 0, 64, 91
1, 455871, Control_c, 0, 64, 127
1, 455895, Note_on_c, 0, 63, 62
1, 455914, Note_on_c, 0, 60, 58
1, 455922, Note_on_c, 0, 55, 61
1, 455940, Note_off_c, 0, 63, 60
1, 455956, Note_off_c, 0, 60, 63
1, 455959, Note_on_c, 0, 75, 74
1, 455977, Note_off_c, 0, 55, 65
1, 455985, Note_off_c, 0, 75, 68
1, 456034, Control_c, 0, 64, 85
1, 456039, Note_on_c, 0, 62, 94
1, 456048, Note_on_c, 0, 74, 95
1, 456049, Note_on_c, 0, 55, 74
1, 456049, Control_c, 0, 64, 65
1, 456051, Note_on_c, 0, 58, 76
1, 456062, Note_on_c, 0, 50, 67
1, 456063, Control_c, 0, 64, 56
1, 456078, Control_c, 0, 64, 57
1, 456093, Control_c, 0, 64, 63
1, 456102, Note_off_c, 0, 50, 62
1, 456107, Note_off_c, 0, 74, 66
1, 456108, Control_c, 0, 64, 78
1, 456120, Note_off_c, 0, 58, 61
1, 456121, Note_off_c, 0, 55, 60
1, 456123, Note_on_c, 0, 86, 94
1, 456123, Control_c, 0, 64, 127
1, 456124, Note_off_c, 0, 62, 61
1, 456176, Note_off_c, 0, 86, 63
1, 456180, Note_on_c, 0, 55, 65
1, 456185, Note_on_c, 0, 58, 64
1, 456188, Note_on_c, 0, 62, 76
1, 456190, Note_on_c, 0, 74, 93
1, 456195, Note_on_c, 0, 50, 75
1, 456236, Note_off_c, 0, 74, 62
1, 456247, Note_off_c, 0, 50, 62
1, 456248, Note_off_c, 0, 55, 63
1, 456248, Note_off_c, 0, 62, 63
1, 456261, Note_off_c, 0, 58, 63
1, 456294, Control_c, 0, 64, 81
1, 456309, Control_c, 0, 64, 67
1, 456323, Note_on_c, 0, 62, 100
1, 456324, Control_c, 0, 64, 62
1, 456328, Note_on_c, 0, 54, 83
1, 456331, Note_on_c, 0, 50, 80
1, 456331, Note_on_c, 0, 57, 87
1, 456339, Control_c, 0, 64, 64
1, 456354, Control_c, 0, 64, 73
1, 456368, Control_c, 0, 64, 127
1, 456390, Note_off_c, 0, 50, 63
1, 456393, Note_off_c, 0, 62, 64
1, 456400, Note_off_c, 0, 57, 65
1, 456403, Note_off_c, 0, 54, 63
1, 456463, Note_on_c, 0, 74, 84
1, 456465, Note_on_c, 0, 54, 71
1, 456466, Note_on_c, 0, 62, 91
1, 456476, Note_on_c, 0, 50, 71
1, 456481, Note_on_c, 0, 57, 76
1, 456506, Note_off_c, 0, 50, 56
1, 456516, Note_off_c, 0, 74, 63
1, 456518, Note_on_c, 0, 86, 76
1, 456525, Note_off_c, 0, 62, 64
1, 456528, Note_off_c, 0, 57, 65
1, 456531, Note_off_c, 0, 54, 63
1, 456543, Note_off_c, 0, 86, 69
1, 456576, Control_c, 0, 64, 95
1, 456586, Note_on_c, 0, 62, 102
1, 456591, Control_c, 0, 64, 66
1, 456596, Note_on_c, 0, 55, 82
1, 456604, Note_on_c, 0, 57, 84
1, 456604, Note_on_c, 0, 59, 82
1, 456605, Control_c, 0, 64, 55
1, 456607, Note_on_c, 0, 86, 92
1, 456613, Note_on_c, 0, 58, 43
1, 456614, Note_off_c, 0, 58, 127
1, 456615, Note_on_c, 0, 88, 77
1, 456620, Control_c, 0, 64, 60
1, 456624, Note_off_c, 0, 57, 72
1, 456627, Note_off_c, 0, 59, 71
1, 456629, Note_off_c, 0, 88, 70
1, 456630, Note_off_c, 0, 55, 66
1, 456631, Note_off_c, 0, 62, 66
1, 456635, Control_c, 0, 64, 67
1, 456649, Control_c, 0, 64, 84
1, 456650, Note_off_c, 0, 86, 67
1, 456664, Control_c, 0, 64, 127
1, 456676, Note_on_c, 0, 98, 83
1, 456704, Note_off_c, 0, 98, 65
1, 456719, Note_on_c, 0, 86, 90
1, 456758, Note_off_c, 0, 86, 65
1, 456791, Note_on_c, 0, 61, 58
1, 456826, Note_off_c, 0, 61, 64
1, 456886, Control_c, 0, 64, 89
1, 456901, Control_c, 0, 64, 58
1, 456902, Note_on_c, 0, 67, 101
1, 456907, Note_on_c, 0, 58, 91
1, 456910, Note_on_c, 0, 62, 85
1, 456916, Control_c, 0, 64, 0
1, 456961, Control_c, 0, 64, 48
1, 456976, Control_c, 0, 64, 66
1, 456982, Note_off_c, 0, 58, 62
1, 456990, Control_c, 0, 64, 86
1, 457005, Control_c, 0, 64, 127
1, 457032, Note_on_c, 0, 79, 76
1, 457050, Note_on_c, 0, 58, 69
1, 457081, Note_off_c, 0, 67, 62
1, 457087, Note_off_c, 0, 79, 64
1, 457088, Note_on_c, 0, 91, 72
1, 457116, Note_off_c, 0, 91, 68
1, 457127, Note_off_c, 0, 62, 63
1, 457128, Note_off_c, 0, 58, 61
1, 457172, Poly_aftertouch_c, 0, 62, 0
1, 457179, Note_on_c, 0, 62, 74
1, 457182, Note_on_c, 0, 59, 86
1, 457184, Note_on_c, 0, 68, 102
1, 457190, Control_c, 0, 64, 75
1, 457191, Note_on_c, 0, 92, 97
1, 457205, Control_c, 0, 64, 60
1, 457220, Control_c, 0, 64, 61
1, 457235, Control_c, 0, 64, 69
1, 457244, Note_on_c, 0, 104, 83
1, 457250, Note_off_c, 0, 92, 65
1, 457250, Control_c, 0, 64, 95
1, 457264, Control_c, 0, 64, 127
1, 457265, Note_off_c, 0, 59, 58
1, 457270, Note_off_c, 0, 62, 60
1, 457278, Note_off_c, 0, 68, 59
1, 457305, Note_on_c, 0, 92, 86
1, 457307, Note_off_c, 0, 104, 63
1, 457336, Note_on_c, 0, 68, 87
1, 457345, Note_on_c, 0, 62, 77
1, 457349, Note_on_c, 0, 59, 75
1, 457354, Note_off_c, 0, 92, 65
1, 457412, Note_off_c, 0, 68, 65
1, 457417, Note_off_c, 0, 62, 64
1, 457423, Note_off_c, 0, 59, 64
1, 457466, Note_on_c, 0, 67, 107
1, 457472, Control_c, 0, 64, 107
1, 457476, Note_on_c, 0, 63, 94
1, 457476, Note_on_c, 0, 60, 87
1, 457487, Control_c, 0, 64, 71
1, 457502, Control_c, 0, 64, 52
1, 457504, Note_on_c, 0, 61, 41
1, 457505, Note_off_c, 0, 61, 127
1, 457516, Control_c, 0, 64, 51
1, 457531, Control_c, 0, 64, 60
1, 457545, Note_off_c, 0, 67, 62
1, 457546, Control_c, 0, 64, 69
1, 457549, Note_off_c, 0, 63, 63
1, 457556, Note_off_c, 0, 60, 56
1, 457561, Control_c, 0, 64, 92
1, 457576, Control_c, 0, 64, 127
1, 457596, Note_on_c, 0, 60, 59
1, 457604, Note_on_c, 0, 79, 68
1, 457609, Note_on_c, 0, 63, 73
1, 457610, Note_on_c, 0, 67, 83
1, 457643, Note_off_c, 0, 67, 61
1, 457651, Note_on_c, 0, 91, 80
1, 457655, Note_off_c, 0, 79, 65
1, 457676, Note_off_c, 0, 60, 64
1, 457694, Note_off_c, 0, 91, 66
1, 457696, Note_off_c, 0, 63, 63
1, 457741, Note_on_c, 0, 59, 85
1, 457747, Note_on_c, 0, 68, 104
1, 457750, Note_on_c, 0, 62, 77
1, 457759, Note_on_c, 0, 92, 108
1, 457769, Control_c, 0, 64, 77
1, 457792, Control_c, 0, 64, 63
1, 457807, Control_c, 0, 64, 65
1, 457808, Note_off_c, 0, 59, 58
1, 457821, Control_c, 0, 64, 73
1, 457822, Note_off_c, 0, 62, 63
1, 457826, Note_on_c, 0, 104, 89
1, 457831, Note_off_c, 0, 92, 65
1, 457836, Note_off_c, 0, 68, 58
1, 457836, Control_c, 0, 64, 108
1, 457851, Control_c, 0, 64, 127
1, 457882, Note_off_c, 0, 104, 64
1, 457888, Note_on_c, 0, 92, 88
1, 457890, Note_on_c, 0, 68, 84
1, 457899, Note_on_c, 0, 62, 71
1, 457899, Note_on_c, 0, 59, 77
1, 457939, Note_off_c, 0, 92, 66
1, 457976, Note_off_c, 0, 59, 62
1, 457984, Note_off_c, 0, 68, 61
1, 457995, Note_off_c, 0, 62, 62
1, 458031, Note_on_c, 0, 67, 106
1, 458036, Note_on_c, 0, 63, 91
1, 458041, Note_on_c, 0, 60, 86
1, 458043, Control_c, 0, 64, 76
1, 458058, Control_c, 0, 64, 54
1, 458072, Note_on_c, 0, 61, 37
1, 458073, Note_off_c, 0, 61, 127
1, 458073, Control_c, 0, 64, 47
1, 458087, Control_c, 0, 64, 53
1, 458102, Control_c, 0, 64, 63
1, 458114, Note_off_c, 0, 60, 61
1, 458115, Note_off_c, 0, 63, 62
1, 458117, Control_c, 0, 64, 73
1, 458125, Note_off_c, 0, 67, 50
1, 458132, Control_c, 0, 64, 103
1, 458147, Control_c, 0, 64, 127
1, 458168, Note_on_c, 0, 60, 77
1, 458168, Note_on_c, 0, 63, 79
1, 458176, Note_on_c, 0, 79, 69
1, 458186, Poly_aftertouch_c, 0, 67, 0
1, 458206, Note_on_c, 0, 61, 35
1, 458222, Note_off_c, 0, 60, 65
1, 458225, Note_off_c, 0, 63, 64
1, 458227, Note_on_c, 0, 91, 78
1, 458229, Note_off_c, 0, 79, 64
1, 458234, Note_off_c, 0, 61, 54
1, 458257, Note_off_c, 0, 91, 66
1, 458305, Note_on_c, 0, 56, 85
1, 458309, Note_on_c, 0, 59, 86
1, 458311, Note_on_c, 0, 65, 98
1, 458318, Note_on_c, 0, 89, 98
1, 458339, Control_c, 0, 64, 86
1, 458341, Note_on_c, 0, 88, 36
1, 458342, Note_off_c, 0, 88, 127
1, 458354, Control_c, 0, 64, 72
1, 458367, Note_off_c, 0, 89, 67
1, 458369, Control_c, 0, 64, 69
1, 458380, Note_off_c, 0, 56, 63
1, 458384, Note_on_c, 0, 101, 95
1, 458384, Control_c, 0, 64, 72
1, 458385, Note_off_c, 0, 59, 64
1, 458399, Control_c, 0, 64, 81
1, 458413, Control_c, 0, 64, 127
1, 458426, Note_off_c, 0, 101, 65
1, 458436, Note_on_c, 0, 89, 102
1, 458445, Note_on_c, 0, 58, 85
1, 458451, Note_on_c, 0, 56, 68
1, 458469, Note_off_c, 0, 89, 67
1, 458495, Note_on_c, 0, 59, 69
1, 458516, Note_off_c, 0, 65, 62
1, 458522, Note_off_c, 0, 58, 62
1, 458537, Note_off_c, 0, 59, 60
1, 458547, Note_off_c, 0, 56, 64
1, 458585, Control_c, 0, 64, 99
1, 458595, Note_on_c, 0, 63, 111
1, 458597, Note_on_c, 0, 55, 96
1, 458600, Control_c, 0, 64, 64
1, 458603, Note_on_c, 0, 60, 90
1, 458615, Control_c, 0, 64, 34
1, 458630, Control_c, 0, 64, 39
1, 458644, Control_c, 0, 64, 56
1, 458659, Control_c, 0, 64, 68
1, 458667, Note_off_c, 0, 55, 62
1, 458674, Control_c, 0, 64, 96
1, 458682, Note_off_c, 0, 60, 62
1, 458689, Control_c, 0, 64, 127
1, 458734, Note_on_c, 0, 60, 73
1, 458737, Note_on_c, 0, 75, 88
1, 458742, Note_on_c, 0, 55, 84
1, 458761, Note_off_c, 0, 63, 59
1, 458782, Note_off_c, 0, 60, 65
1, 458786, Note_on_c, 0, 87, 81
1, 458789, Note_off_c, 0, 55, 66
1, 458792, Control_c, 0, 64, 111
1, 458794, Note_off_c, 0, 75, 64
1, 458807, Control_c, 0, 64, 97
1, 458822, Control_c, 0, 64, 122
1, 458833, Note_off_c, 0, 87, 66
1, 458836, Control_c, 0, 64, 127
1, 458850, Poly_aftertouch_c, 0, 58, 0
1, 458895, Note_on_c, 0, 86, 107
1, 458901, Note_on_c, 0, 55, 77
1, 458907, Note_on_c, 0, 62, 90
1, 458909, Note_on_c, 0, 58, 77
1, 458920, Note_on_c, 0, 50, 73
1, 458955, Note_off_c, 0, 50, 64
1, 458966, Note_off_c, 0, 62, 63
1, 458966, Note_off_c, 0, 86, 65
1, 458975, Note_off_c, 0, 55, 63
1, 458976, Note_on_c, 0, 98, 99
1, 458976, Note_off_c, 0, 58, 63
1, 459021, Note_on_c, 0, 96, 22
1, 459022, Note_off_c, 0, 96, 127
1, 459022, Note_off_c, 0, 98, 66
1, 459029, Note_on_c, 0, 58, 77
1, 459040, Note_on_c, 0, 50, 78
1, 459041, Note_on_c, 0, 62, 85
1, 459047, Note_on_c, 0, 86, 102
1, 459049, Note_on_c, 0, 55, 68
1, 459096, Note_off_c, 0, 62, 61
1, 459101, Note_off_c, 0, 50, 57
1, 459101, Note_off_c, 0, 55, 61
1, 459119, Note_off_c, 0, 58, 64
1, 459124, Note_on_c, 0, 98, 105
1, 459139, Note_off_c, 0, 86, 66
1, 459173, Note_off_c, 0, 98, 67
1, 459178, Control_c, 0, 64, 125
1, 459190, Note_on_c, 0, 86, 100
1, 459193, Control_c, 0, 64, 78
1, 459198, Note_on_c, 0, 57, 94
1, 459199, Note_on_c, 0, 62, 106
1, 459200, Note_on_c, 0, 50, 90
1, 459205, Note_on_c, 0, 54, 90
1, 459208, Control_c, 0, 64, 66
1, 459223, Control_c, 0, 64, 65
1, 459237, Control_c, 0, 64, 71
1, 459252, Note_on_c, 0, 98, 98
1, 459252, Control_c, 0, 64, 105
1, 459253, Note_on_c, 0, 100, 93
1, 459267, Control_c, 0, 64, 127
1, 459273, Note_off_c, 0, 100, 72
1, 459274, Note_off_c, 0, 86, 66
1, 459287, Note_off_c, 0, 98, 71
1, 459338, Note_off_c, 0, 62, 66
1, 459351, Note_off_c, 0, 57, 67
1, 459357, Note_off_c, 0, 50, 67
1, 459369, Note_off_c, 0, 54, 66
1, 459379, Control_c, 0, 64, 78
1, 459393, Control_c, 0, 64, 30
1, 459408, Control_c, 0, 64, 0
1, 459721, Note_on_c, 0, 43, 112
1, 459725, Note_on_c, 0, 31, 92
1, 459730, Note_on_c, 0, 58, 100
1, 459732, Note_on_c, 0, 67, 98
1, 459733, Note_on_c, 0, 55, 104
1, 459744, Note_on_c, 0, 32, 73
1, 459769, Note_off_c, 0, 32, 59
1, 459770, Note_on_c, 0, 62, 29
1, 459771, Note_off_c, 0, 62, 127
1, 459774, Note_on_c, 0, 65, 42
1, 459777, Note_on_c, 0, 64, 39
1, 459793, Note_off_c, 0, 58, 65
1, 459795, Note_off_c, 0, 55, 57
1, 459805, Note_off_c, 0, 65, 34
1, 459808, Note_off_c, 0, 64, 52
1, 459816, Note_off_c, 0, 31, 62
1, 459827, Note_off_c, 0, 67, 56
1, 459836, Note_off_c, 0, 43, 57
1, 459840, Note_on_c, 0, 39, 28
1, 459884, Note_off_c, 0, 39, 44
1, 459966, Note_on_c, 0, 69, 84
1, 459968, Note_on_c, 0, 62, 84
1, 459973, Note_on_c, 0, 57, 72
1, 459982, Note_on_c, 0, 42, 90
1, 459986, Note_on_c, 0, 30, 76
1, 459995, Note_off_c, 0, 69, 67
1, 460002, Note_off_c, 0, 57, 67
1, 460011, Note_off_c, 0, 62, 66
1, 460022, Note_off_c, 0, 30, 67
1, 460026, Note_off_c, 0, 42, 63
1, 460057, Note_on_c, 0, 58, 101
1, 460058, Note_on_c, 0, 70, 97
1, 460059, Poly_aftertouch_c, 0, 62, 0
1, 460063, Note_on_c, 0, 43, 95
1, 460064, Note_on_c, 0, 62, 87
1, 460068, Note_on_c, 0, 31, 85
1, 460078, Note_on_c, 0, 38, 37
1, 460096, Note_off_c, 0, 58, 67
1, 460108, Note_off_c, 0, 62, 62
1, 460111, Note_off_c, 0, 38, 56
1, 460115, Note_off_c, 0, 70, 58
1, 460155, Note_off_c, 0, 31, 62
1, 460161, Poly_aftertouch_c, 0, 29, 0
1, 460185, Note_off_c, 0, 43, 60
1, 460294, Note_on_c, 0, 60, 92
1, 460296, Note_on_c, 0, 33, 67
1, 460301, Note_on_c, 0, 45, 79
1, 460301, Note_on_c, 0, 72, 78
1, 460308, Note_on_c, 0, 65, 77
1, 460314, Note_on_c, 0, 31, 49
1, 460315, Note_off_c, 0, 31, 127
1, 460320, Note_off_c, 0, 33, 63
1, 460323, Note_off_c, 0, 72, 71
1, 460332, Note_off_c, 0, 65, 69
1, 460332, Note_off_c, 0, 45, 67
1, 460332, Note_off_c, 0, 60, 65
1, 460334, Note_on_c, 0, 43, 36
1, 460335, Note_off_c, 0, 43, 127
1, 460377, Note_on_c, 0, 46, 102
1, 460383, Note_on_c, 0, 74, 101
1, 460385, Note_on_c, 0, 44, 82
1, 460386, Note_on_c, 0, 62, 96
1, 460393, Note_on_c, 0, 65, 90
1, 460400, Note_on_c, 0, 33, 47
1, 460401, Note_off_c, 0, 33, 127
1, 460404, Poly_aftertouch_c, 0, 34, 127
1, 460406, Note_on_c, 0, 66, 49
1, 460412, Note_off_c, 0, 46, 67
1, 460412, Note_off_c, 0, 44, 67
1, 460416, Note_off_c, 0, 65, 65
1, 460421, Poly_aftertouch_c, 0, 34, 0
1, 460427, Note_off_c, 0, 62, 68
1, 460434, Note_off_c, 0, 66, 38
1, 460451, Note_off_c, 0, 74, 60
1, 460610, Note_on_c, 0, 70, 80
1, 460613, Note_on_c, 0, 65, 85
1, 460618, Note_on_c, 0, 50, 84
1, 460620, Note_on_c, 0, 58, 86
1, 460621, Note_on_c, 0, 62, 82
1, 460645, Note_off_c, 0, 65, 66
1, 460645, Note_off_c, 0, 62, 67
1, 460646, Note_off_c, 0, 50, 68
1, 460652, Note_off_c, 0, 70, 65
1, 460672, Note_off_c, 0, 58, 63
1, 460693, Note_on_c, 0, 65, 96
1, 460695, Note_on_c, 0, 69, 101
1, 460695, Note_on_c, 0, 77, 99
1, 460704, Note_on_c, 0, 60, 95
1, 460705, Note_on_c, 0, 53, 84
1, 460707, Note_on_c, 0, 55, 87
1, 460731, Note_off_c, 0, 60, 68
1, 460734, Note_off_c, 0, 65, 66
1, 460737, Note_off_c, 0, 53, 55
1, 460739, Note_off_c, 0, 55, 67
1, 460743, Note_off_c, 0, 77, 65
1, 460749, Note_off_c, 0, 69, 63
1, 460936, Note_on_c, 0, 69, 69
1, 460944, Note_on_c, 0, 75, 91
1, 460945, Note_on_c, 0, 41, 89
1, 460945, Note_on_c, 0, 63, 88
1, 460947, Note_on_c, 0, 29, 77
1, 460978, Note_off_c, 0, 29, 68
1, 460983, Note_off_c, 0, 41, 66
1, 460987, Note_off_c, 0, 63, 64
1, 460987, Note_off_c, 0, 75, 66
1, 461000, Note_off_c, 0, 69, 65
1, 461044, Note_on_c, 0, 62, 107
1, 461044, Note_on_c, 0, 74, 102
1, 461048, Note_on_c, 0, 46, 110
1, 461051, Note_on_c, 0, 70, 95
1, 461054, Note_on_c, 0, 34, 92
1, 461129, Control_c, 0, 64, 70
1, 461131, Note_off_c, 0, 34, 63
1, 461134, Note_off_c, 0, 46, 66
1, 461144, Control_c, 0, 64, 127
1, 461169, Note_off_c, 0, 74, 62
1, 461186, Note_off_c, 0, 62, 64
1, 461198, Note_off_c, 0, 70, 67
1, 461434, Note_on_c, 0, 65, 67
1, 461435, Note_on_c, 0, 70, 98
1, 461438, Note_on_c, 0, 62, 83
1, 461447, Note_on_c, 0, 53, 83
1, 461450, Note_on_c, 0, 50, 77
1, 461450, Note_on_c, 0, 58, 89
1, 461471, Note_off_c, 0, 65, 66
1, 461471, Note_off_c, 0, 62, 65
1, 461510, Note_off_c, 0, 70, 71
1, 461605, Note_off_c, 0, 50, 63
1, 461640, Control_c, 0, 64, 92
1, 461643, Note_off_c, 0, 53, 59
1, 461651, Note_off_c, 0, 58, 61
1, 461655, Control_c, 0, 64, 57
1, 461670, Control_c, 0, 64, 0
1, 461670, Control_c, 0, 67, 38
1, 461684, Control_c, 0, 67, 86
1, 461699, Control_c, 0, 67, 120
1, 461714, Control_c, 0, 67, 127
1, 461822, Note_on_c, 0, 89, 55
1, 461890, Note_on_c, 0, 101, 54
1, 461893, Control_c, 0, 64, 11
1, 461908, Control_c, 0, 64, 41
1, 461923, Control_c, 0, 64, 50
1, 461937, Control_c, 0, 64, 54
1, 461952, Control_c, 0, 64, 57
1, 461967, Control_c, 0, 64, 60
1, 461976, Note_on_c, 0, 49, 3
1, 461977, Note_off_c, 0, 101, 61
1, 461977, Note_on_c, 0, 99, 59
1, 461981, Control_c, 0, 64, 63
1, 461996, Control_c, 0, 64, 64
1, 462011, Control_c, 0, 64, 67
1, 462016, Note_on_c, 0, 97, 54
1, 462026, Control_c, 0, 64, 70
1, 462028, Note_off_c, 0, 89, 28
1, 462041, Note_off_c, 0, 99, 53
1, 462041, Control_c, 0, 64, 75
1, 462047, Note_off_c, 0, 49, 41
1, 462055, Control_c, 0, 64, 81
1, 462070, Control_c, 0, 64, 88
1, 462079, Note_on_c, 0, 56, 46
1, 462085, Note_on_c, 0, 92, 63
1, 462085, Control_c, 0, 64, 94
1, 462094, Note_off_c, 0, 97, 64
1, 462100, Control_c, 0, 64, 98
1, 462114, Control_c, 0, 64, 99
1, 462117, Note_off_c, 0, 92, 66
1, 462129, Control_c, 0, 64, 100
1, 462131, Note_on_c, 0, 89, 73
1, 462156, Note_off_c, 0, 89, 68
1, 462162, Note_off_c, 0, 56, 63
1, 462174, Control_c, 0, 64, 101
1, 462195, Note_on_c, 0, 61, 25
1, 462209, Note_on_c, 0, 87, 58
1, 462232, Note_off_c, 0, 61, 46
1, 462234, Control_c, 0, 64, 100
1, 462242, Note_on_c, 0, 65, 48
1, 462249, Control_c, 0, 64, 99
1, 462257, Note_on_c, 0, 85, 62
1, 462300, Control_c, 0, 64, 98
1, 462311, Note_off_c, 0, 87, 58
1, 462314, Control_c, 0, 64, 97
1, 462329, Control_c, 0, 64, 96
1, 462338, Note_off_c, 0, 85, 60
1, 462344, Control_c, 0, 64, 96
1, 462347, Note_on_c, 0, 80, 51
1, 462374, Note_on_c, 0, 68, 39
1, 462374, Note_off_c, 0, 80, 62
1, 462375, Note_on_c, 0, 77, 20
1, 462377, Note_off_c, 0, 65, 37
1, 462404, Control_c, 0, 64, 96
1, 462409, Note_off_c, 0, 68, 58
1, 462414, Note_off_c, 0, 77, 38
1, 462418, Control_c, 0, 64, 97
1, 462433, Control_c, 0, 64, 98
1, 462448, Control_c, 0, 64, 99
1, 462463, Control_c, 0, 64, 100
1, 462478, Control_c, 0, 64, 100
1, 462493, Control_c, 0, 64, 101
1, 462507, Control_c, 0, 64, 102
1, 462553, Control_c, 0, 64, 103
1, 462568, Control_c, 0, 64, 104
1, 462582, Note_on_c, 0, 89, 58
1, 462598, Control_c, 0, 64, 105
1, 462612, Control_c, 0, 64, 110
1, 462627, Control_c, 0, 64, 115
1, 462642, Control_c, 0, 64, 117
1, 462657, Control_c, 0, 64, 120
1, 462666, Note_on_c, 0, 101, 56
1, 462687, Control_c, 0, 64, 122
1, 462702, Control_c, 0, 64, 125
1, 462717, Control_c, 0, 64, 127
1, 462732, Note_on_c, 0, 99, 62
1, 462741, Note_on_c, 0, 49, 31
1, 462744, Note_off_c, 0, 101, 61
1, 462781, Note_on_c, 0, 97, 61
1, 462797, Note_off_c, 0, 89, 26
1, 462802, Note_off_c, 0, 99, 59
1, 462824, Note_off_c, 0, 49, 53
1, 462835, Note_on_c, 0, 56, 49
1, 462840, Note_on_c, 0, 92, 72
1, 462859, Note_off_c, 0, 97, 64
1, 462882, Note_off_c, 0, 92, 60
1, 462896, Note_on_c, 0, 89, 75
1, 462921, Note_off_c, 0, 89, 69
1, 462926, Note_off_c, 0, 56, 64
1, 462946, Note_on_c, 0, 61, 45
1, 462967, Note_on_c, 0, 87, 68
1, 462975, Note_off_c, 0, 61, 60
1, 463006, Note_on_c, 0, 65, 46
1, 463013, Note_on_c, 0, 85, 64
1, 463065, Note_off_c, 0, 87, 63
1, 463083, Note_off_c, 0, 85, 65
1, 463094, Note_on_c, 0, 80, 55
1, 463101, Note_off_c, 0, 65, 56
1, 463109, Note_on_c, 0, 77, 57
1, 463113, Note_on_c, 0, 68, 56
1, 463129, Note_off_c, 0, 77, 62
1, 463137, Note_off_c, 0, 68, 59
1, 463146, Note_off_c, 0, 80, 62
1, 463334, Note_on_c, 0, 89, 57
1, 463422, Note_on_c, 0, 101, 51
1, 463504, Note_on_c, 0, 49, 35
1, 463506, Note_off_c, 0, 101, 56
1, 463509, Note_on_c, 0, 99, 58
1, 463536, Note_off_c, 0, 89, 37
1, 463545, Note_on_c, 0, 97, 57
1, 463557, Note_off_c, 0, 49, 54
1, 463557, Note_off_c, 0, 99, 55
1, 463584, Note_on_c, 0, 56, 46
1, 463623, Note_on_c, 0, 92, 71
1, 463634, Note_off_c, 0, 97, 64
1, 463650, Note_off_c, 0, 92, 67
1, 463667, Note_on_c, 0, 89, 76
1, 463670, Note_off_c, 0, 56, 63
1, 463692, Note_off_c, 0, 89, 68
1, 463700, Note_on_c, 0, 61, 40
1, 463726, Note_off_c, 0, 61, 57
1, 463744, Note_on_c, 0, 65, 55
1, 463748, Note_on_c, 0, 87, 65
1, 463811, Note_on_c, 0, 85, 63
1, 463842, Note_off_c, 0, 87, 64
1, 463855, Note_off_c, 0, 85, 64
1, 463860, Note_off_c, 0, 65, 53
1, 463864, Note_on_c, 0, 80, 67
1, 463871, Note_on_c, 0, 68, 48
1, 463873, Control_c, 0, 67, 119
1, 463879, Note_on_c, 0, 77, 63
1, 463888, Control_c, 0, 67, 79
1, 463903, Note_off_c, 0, 80, 62
1, 463903, Control_c, 0, 67, 42
1, 463910, Note_off_c, 0, 77, 66
1, 463918, Control_c, 0, 67, 12
1, 463933, Control_c, 0, 67, 0
1, 463935, Note_off_c, 0, 68, 62
1, 463962, Control_c, 0, 64, 110
1, 463977, Control_c, 0, 64, 86
1, 463992, Control_c, 0, 64, 77
1, 464007, Control_c, 0, 64, 73
1, 464022, Control_c, 0, 64, 69
1, 464036, Control_c, 0, 64, 65
1, 464051, Control_c, 0, 64, 62
1, 464066, Control_c, 0, 64, 61
1, 464081, Control_c, 0, 64, 60
1, 464096, Control_c, 0, 64, 58
1, 464110, Control_c, 0, 64, 52
1, 464125, Control_c, 0, 64, 38
1, 464141, Control_c, 0, 64, 32
1, 464200, Control_c, 0, 64, 31
1, 464215, Control_c, 0, 64, 22
1, 464223, Note_on_c, 0, 49, 108
1, 464228, Note_on_c, 0, 77, 91
1, 464228, Note_on_c, 0, 65, 102
1, 464228, Note_on_c, 0, 68, 94
1, 464230, Control_c, 0, 64, 0
1, 464232, Note_on_c, 0, 37, 91
1, 464248, Note_on_c, 0, 74, 66
1, 464257, Note_off_c, 0, 49, 66
1, 464258, Note_off_c, 0, 37, 67
1, 464266, Note_off_c, 0, 65, 67
1, 464268, Note_off_c, 0, 68, 66
1, 464276, Note_off_c, 0, 74, 67
1, 464279, Note_off_c, 0, 77, 63
1, 464311, Note_on_c, 0, 49, 110
1, 464321, Note_on_c, 0, 37, 96
1, 464322, Note_on_c, 0, 77, 88
1, 464324, Note_on_c, 0, 68, 90
1, 464325, Note_on_c, 0, 65, 99
1, 464353, Note_off_c, 0, 49, 69
1, 464365, Note_off_c, 0, 37, 65
1, 464366, Note_off_c, 0, 65, 67
1, 464368, Note_on_c, 0, 74, 29
1, 464369, Note_off_c, 0, 74, 127
1, 464370, Note_off_c, 0, 77, 65
1, 464388, Note_off_c, 0, 68, 65
1, 464451, Control_c, 0, 64, 22
1, 464466, Control_c, 0, 64, 29
1, 464481, Control_c, 0, 64, 30
1, 464545, Note_on_c, 0, 66, 60
1, 464550, Note_on_c, 0, 75, 89
1, 464554, Note_on_c, 0, 63, 88
1, 464557, Note_on_c, 0, 45, 84
1, 464571, Note_on_c, 0, 31, 57
1, 464575, Note_on_c, 0, 33, 58
1, 464575, Note_on_c, 0, 73, 52
1, 464577, Note_on_c, 0, 43, 59
1, 464580, Note_off_c, 0, 63, 65
1, 464590, Note_on_c, 0, 34, 34
1, 464591, Note_off_c, 0, 75, 65
1, 464592, Note_off_c, 0, 45, 67
1, 464595, Note_off_c, 0, 73, 60
1, 464602, Note_off_c, 0, 31, 55
1, 464602, Note_off_c, 0, 66, 64
1, 464603, Note_off_c, 0, 33, 57
1, 464606, Note_on_c, 0, 39, 42
1, 464606, Note_off_c, 0, 43, 39
1, 464607, Control_c, 0, 64, 27
1, 464622, Control_c, 0, 64, 24
1, 464637, Control_c, 0, 64, 18
1, 464642, Note_on_c, 0, 46, 109
1, 464642, Note_on_c, 0, 65, 92
1, 464643, Note_on_c, 0, 61, 98
1, 464643, Note_on_c, 0, 73, 96
1, 464643, Note_off_c, 0, 39, 50
1, 464644, Note_off_c, 0, 34, 0
1, 464644, Note_on_c, 0, 34, 72
1, 464652, Control_c, 0, 64, 0
1, 464675, Note_off_c, 0, 46, 68
1, 464678, Note_off_c, 0, 34, 66
1, 464691, Note_off_c, 0, 61, 61
1, 464703, Note_off_c, 0, 73, 62
1, 464713, Note_off_c, 0, 65, 59
1, 464875, Note_on_c, 0, 63, 89
1, 464879, Note_on_c, 0, 60, 84
1, 464881, Note_on_c, 0, 72, 73
1, 464883, Note_on_c, 0, 29, 76
1, 464886, Note_on_c, 0, 41, 86
1, 464900, Note_off_c, 0, 60, 71
1, 464902, Note_off_c, 0, 72, 64
1, 464907, Note_off_c, 0, 29, 64
1, 464912, Note_off_c, 0, 41, 67
1, 464916, Note_off_c, 0, 63, 66
1, 464922, Note_on_c, 0, 36, 47
1, 464957, Note_off_c, 0, 36, 51
1, 464971, Note_on_c, 0, 46, 101
1, 464973, Note_on_c, 0, 34, 81
1, 464973, Note_on_c, 0, 61, 105
1, 464977, Note_on_c, 0, 58, 101
1, 464978, Note_on_c, 0, 70, 90
1, 464999, Note_off_c, 0, 46, 66
1, 465004, Note_off_c, 0, 34, 67
1, 465004, Note_off_c, 0, 70, 65
1, 465007, Note_on_c, 0, 44, 31
1, 465008, Note_off_c, 0, 44, 127
1, 465015, Note_off_c, 0, 61, 67
1, 465022, Note_off_c, 0, 58, 62
1, 465340, Control_c, 0, 64, 55
1, 465355, Control_c, 0, 64, 127
1, 465355, Note_on_c, 0, 68, 93
1, 465356, Note_on_c, 0, 48, 100
1, 465358, Note_on_c, 0, 60, 95
1, 465358, Note_on_c, 0, 56, 99
1, 465360, Note_on_c, 0, 44, 96
1, 465362, Note_on_c, 0, 39, 88
1, 465374, Note_on_c, 0, 36, 74
1, 465393, Note_on_c, 0, 66, 57
1, 465399, Note_off_c, 0, 36, 62
1, 465399, Note_off_c, 0, 48, 66
1, 465414, Note_off_c, 0, 39, 63
1, 465416, Note_off_c, 0, 44, 64
1, 465425, Note_off_c, 0, 66, 58
1, 465578, Note_off_c, 0, 56, 60
1, 465586, Note_off_c, 0, 60, 60
1, 465622, Note_off_c, 0, 68, 60
1, 465732, Note_on_c, 0, 67, 104
1, 465733, Note_on_c, 0, 50, 97
1, 465733, Note_on_c, 0, 55, 106
1, 465734, Note_on_c, 0, 58, 102
1, 465736, Note_on_c, 0, 38, 79
1, 465739, Note_on_c, 0, 46, 95
1, 465741, Control_c, 0, 64, 87
1, 465742, Note_on_c, 0, 43, 83
1, 465755, Control_c, 0, 64, 0
1, 465777, Note_off_c, 0, 55, 66
1, 465781, Note_off_c, 0, 67, 68
1, 465784, Note_off_c, 0, 58, 66
1, 465786, Note_off_c, 0, 38, 62
1, 465787, Note_off_c, 0, 50, 64
1, 465807, Note_off_c, 0, 46, 62
1, 465817, Note_off_c, 0, 43, 61
1, 465989, Note_on_c, 0, 58, 93
1, 465992, Note_on_c, 0, 55, 87
1, 465994, Note_on_c, 0, 67, 87
1, 465996, Note_on_c, 0, 50, 81
1, 465996, Note_on_c, 0, 38, 73
1, 466002, Note_on_c, 0, 43, 71
1, 466011, Note_on_c, 0, 46, 46
1, 466012, Note_off_c, 0, 46, 127
1, 466013, Note_off_c, 0, 67, 69
1, 466015, Note_off_c, 0, 55, 72
1, 466031, Note_off_c, 0, 58, 63
1, 466035, Note_off_c, 0, 50, 67
1, 466039, Note_off_c, 0, 38, 66
1, 466040, Note_off_c, 0, 43, 63
1, 466053, Note_on_c, 0, 45, 25
1, 466054, Note_off_c, 0, 45, 127
1, 466080, Note_on_c, 0, 50, 93
1, 466081, Note_on_c, 0, 69, 104
1, 466082, Note_on_c, 0, 57, 97
1, 466087, Note_on_c, 0, 38, 85
1, 466088, Note_on_c, 0, 60, 90
1, 466091, Note_on_c, 0, 42, 84
1, 466107, Poly_aftertouch_c, 0, 45, 127
1, 466108, Note_on_c, 0, 61, 37
1, 466129, Note_off_c, 0, 69, 63
1, 466131, Note_off_c, 0, 38, 60
1, 466133, Note_off_c, 0, 50, 66
1, 466133, Note_off_c, 0, 61, 35
1, 466136, Note_off_c, 0, 57, 62
1, 466143, Note_off_c, 0, 42, 62
1, 466149, Poly_aftertouch_c, 0, 45, 0
1, 466152, Note_off_c, 0, 60, 61
1, 466318, Note_on_c, 0, 66, 87
1, 466320, Note_on_c, 0, 60, 72
1, 466323, Note_on_c, 0, 38, 75
1, 466334, Note_on_c, 0, 55, 67
1, 466335, Note_on_c, 0, 57, 64
1, 466345, Note_on_c, 0, 50, 31
1, 466346, Note_off_c, 0, 50, 127
1, 466347, Note_off_c, 0, 60, 68
1, 466354, Note_off_c, 0, 38, 66
1, 466356, Note_on_c, 0, 48, 32
1, 466357, Note_off_c, 0, 48, 127
1, 466362, Note_off_c, 0, 55, 62
1, 466362, Note_off_c, 0, 57, 66
1, 466365, Note_off_c, 0, 66, 63
1, 466386, Control_c, 0, 64, 45
1, 466401, Control_c, 0, 64, 96
1, 466407, Note_on_c, 0, 55, 108
1, 466410, Note_on_c, 0, 67, 92
1, 466412, Note_on_c, 0, 58, 93
1, 466416, Control_c, 0, 64, 127
1, 466416, Note_on_c, 0, 43, 97
1, 466419, Note_on_c, 0, 31, 88
1, 466425, Note_on_c, 0, 65, 71
1, 466434, Note_off_c, 0, 58, 69
1, 466442, Note_off_c, 0, 67, 65
1, 466443, Note_off_c, 0, 65, 65
1, 466444, Note_off_c, 0, 55, 68
1, 466468, Note_off_c, 0, 31, 63
1, 466470, Note_off_c, 0, 43, 64
1, 466598, Note_on_c, 0, 37, 63
1, 466665, Note_on_c, 0, 49, 52
1, 466669, Note_on_c, 0, 38, 79
1, 466678, Note_on_c, 0, 50, 73
1, 466714, Note_off_c, 0, 37, 59
1, 466714, Note_off_c, 0, 49, 65
1, 466726, Note_on_c, 0, 55, 92
1, 466726, Note_off_c, 0, 50, 65
1, 466730, Note_on_c, 0, 43, 95
1, 466754, Note_off_c, 0, 38, 60
1, 466757, Control_c, 0, 64, 61
1, 466768, Note_off_c, 0, 55, 67
1, 466771, Note_off_c, 0, 43, 66
1, 466772, Control_c, 0, 64, 0
1, 466987, Note_on_c, 0, 62, 88
1, 466988, Note_on_c, 0, 74, 96
1, 466991, Note_on_c, 0, 50, 91
1, 466993, Note_on_c, 0, 38, 78
1, 467014, Note_off_c, 0, 62, 65
1, 467023, Note_off_c, 0, 74, 66
1, 467024, Note_off_c, 0, 38, 69
1, 467031, Note_off_c, 0, 50, 64
1, 467079, Note_on_c, 0, 79, 105
1, 467080, Note_on_c, 0, 67, 103
1, 467083, Note_on_c, 0, 55, 97
1, 467084, Note_on_c, 0, 43, 91
1, 467116, Note_off_c, 0, 67, 68
1, 467120, Note_off_c, 0, 79, 66
1, 467137, Note_off_c, 0, 55, 64
1, 467146, Note_off_c, 0, 43, 61
1, 467307, Note_on_c, 0, 81, 84
1, 467313, Note_on_c, 0, 74, 88
1, 467314, Note_on_c, 0, 54, 97
1, 467314, Note_on_c, 0, 69, 85
1, 467322, Note_on_c, 0, 42, 72
1, 467335, Note_on_c, 0, 71, 62
1, 467335, Note_off_c, 0, 69, 71
1, 467339, Note_off_c, 0, 81, 68
1, 467346, Note_off_c, 0, 74, 67
1, 467350, Note_off_c, 0, 42, 65
1, 467353, Note_off_c, 0, 71, 46
1, 467356, Note_off_c, 0, 54, 64
1, 467393, Note_on_c, 0, 55, 104
1, 467397, Note_on_c, 0, 70, 106
1, 467397, Note_on_c, 0, 82, 108
1, 467397, Note_on_c, 0, 43, 88
1, 467398, Note_on_c, 0, 74, 93
1, 467429, Note_off_c, 0, 74, 60
1, 467441, Note_off_c, 0, 70, 65
1, 467456, Note_off_c, 0, 82, 63
1, 467472, Note_off_c, 0, 55, 61
1, 467473, Poly_aftertouch_c, 0, 50, 0
1, 467479, Note_off_c, 0, 43, 63
1, 467626, Note_on_c, 0, 45, 80
1, 467630, Note_on_c, 0, 57, 94
1, 467631, Note_on_c, 0, 72, 87
1, 467633, Note_on_c, 0, 84, 91
1, 467647, Note_on_c, 0, 77, 67
1, 467656, Note_off_c, 0, 45, 67
1, 467659, Note_on_c, 0, 51, 72
1, 467663, Note_off_c, 0, 57, 68
1, 467665, Note_off_c, 0, 77, 65
1, 467666, Note_off_c, 0, 84, 67
1, 467672, Note_off_c, 0, 72, 64
1, 467684, Note_off_c, 0, 51, 67
1, 467716, Note_on_c, 0, 58, 116
1, 467721, Note_on_c, 0, 86, 101
1, 467722, Note_on_c, 0, 46, 89
1, 467723, Note_on_c, 0, 74, 92
1, 467723, Note_on_c, 0, 77, 90
1, 467745, Note_off_c, 0, 46, 69
1, 467753, Note_off_c, 0, 58, 65
1, 467762, Note_on_c, 0, 51, 23
1, 467763, Note_off_c, 0, 51, 127
1, 467776, Note_off_c, 0, 74, 55
1, 467781, Note_off_c, 0, 77, 59
1, 467817, Note_off_c, 0, 86, 62
1, 467942, Note_on_c, 0, 77, 90
1, 467943, Note_on_c, 0, 82, 92
1, 467951, Note_on_c, 0, 62, 77
1, 467952, Note_on_c, 0, 74, 73
1, 467960, Note_on_c, 0, 72, 69
1, 467969, Note_off_c, 0, 74, 64
1, 467975, Note_off_c, 0, 62, 67
1, 467981, Note_off_c, 0, 72, 66
1, 467983, Note_off_c, 0, 77, 66
1, 467990, Note_off_c, 0, 82, 66
1, 468029, Note_on_c, 0, 74, 84
1, 468032, Note_on_c, 0, 89, 96
1, 468033, Note_on_c, 0, 81, 95
1, 468034, Note_on_c, 0, 65, 87
1, 468037, Note_on_c, 0, 76, 87
1, 468038, Note_on_c, 0, 72, 85
1, 468039, Note_on_c, 0, 77, 101
1, 468046, Note_on_c, 0, 88, 77
1, 468050, Note_off_c, 0, 74, 71
1, 468057, Note_off_c, 0, 72, 72
1, 468062, Note_off_c, 0, 88, 61
1, 468073, Note_off_c, 0, 76, 64
1, 468076, Note_off_c, 0, 77, 62
1, 468076, Note_off_c, 0, 89, 67
1, 468087, Note_off_c, 0, 65, 66
1, 468089, Note_off_c, 0, 81, 67
1, 468202, Note_on_c, 0, 81, 31
1, 468231, Note_off_c, 0, 81, 50
1, 468267, Note_on_c, 0, 81, 77
1, 468267, Note_on_c, 0, 53, 89
1, 468267, Note_on_c, 0, 87, 89
1, 468268, Note_on_c, 0, 41, 82
1, 468277, Note_on_c, 0, 75, 88
1, 468307, Note_off_c, 0, 41, 65
1, 468314, Note_off_c, 0, 53, 65
1, 468321, Note_off_c, 0, 75, 64
1, 468330, Note_off_c, 0, 87, 65
1, 468339, Note_off_c, 0, 81, 65
1, 468380, Note_on_c, 0, 74, 105
1, 468380, Note_on_c, 0, 86, 102
1, 468385, Note_on_c, 0, 58, 104
1, 468388, Note_on_c, 0, 46, 96
1, 468389, Note_on_c, 0, 82, 88
1, 468488, Note_off_c, 0, 46, 66
1, 468498, Note_off_c, 0, 86, 65
1, 468499, Control_c, 0, 64, 65
1, 468513, Note_off_c, 0, 58, 67
1, 468513, Control_c, 0, 64, 127
1, 468520, Note_off_c, 0, 74, 61
1, 468540, Note_off_c, 0, 82, 65
1, 468789, Note_on_c, 0, 70, 69
1, 468791, Note_on_c, 0, 82, 100
1, 468792, Note_on_c, 0, 65, 61
1, 468792, Note_on_c, 0, 77, 82
1, 468798, Note_on_c, 0, 62, 68
1, 468799, Note_on_c, 0, 74, 87
1, 468841, Note_off_c, 0, 74, 64
1, 468862, Note_off_c, 0, 77, 62
1, 468880, Note_off_c, 0, 70, 63
1, 468900, Note_off_c, 0, 65, 62
1, 468902, Note_off_c, 0, 82, 67
1, 468913, Note_off_c, 0, 62, 64
1, 469069, Control_c, 0, 67, 47
1, 469084, Control_c, 0, 64, 76
1, 469084, Control_c, 0, 67, 112
1, 469099, Control_c, 0, 64, 59
1, 469099, Control_c, 0, 67, 127
1, 469114, Control_c, 0, 64, 19
1, 469128, Control_c, 0, 64, 0
1, 469185, Note_on_c, 0, 89, 49
1, 469292, Control_c, 0, 64, 23
1, 469300, Note_on_c, 0, 101, 38
1, 469307, Control_c, 0, 64, 37
1, 469321, Control_c, 0, 64, 48
1, 469336, Control_c, 0, 64, 56
1, 469351, Control_c, 0, 64, 61
1, 469366, Control_c, 0, 64, 63
1, 469370, Note_on_c, 0, 99, 59
1, 469373, Note_on_c, 0, 49, 25
1, 469380, Control_c, 0, 64, 65
1, 469395, Control_c, 0, 64, 67
1, 469410, Control_c, 0, 64, 69
1, 469417, Note_off_c, 0, 89, 33
1, 469423, Note_off_c, 0, 101, 42
1, 469425, Control_c, 0, 64, 74
1, 469434, Note_on_c, 0, 97, 54
1, 469440, Control_c, 0, 64, 82
1, 469454, Control_c, 0, 64, 91
1, 469456, Note_off_c, 0, 99, 61
1, 469458, Note_off_c, 0, 49, 48
1, 469469, Control_c, 0, 64, 99
1, 469484, Control_c, 0, 64, 103
1, 469498, Note_on_c, 0, 92, 66
1, 469499, Control_c, 0, 64, 108
1, 469501, Note_on_c, 0, 56, 41
1, 469506, Note_off_c, 0, 97, 64
1, 469514, Control_c, 0, 64, 127
1, 469529, Note_off_c, 0, 92, 67
1, 469550, Note_on_c, 0, 89, 64
1, 469577, Note_off_c, 0, 56, 61
1, 469579, Note_off_c, 0, 89, 66
1, 469596, Note_on_c, 0, 61, 44
1, 469627, Note_on_c, 0, 87, 61
1, 469634, Note_off_c, 0, 61, 63
1, 469661, Note_on_c, 0, 65, 48
1, 469682, Note_on_c, 0, 85, 57
1, 469729, Note_off_c, 0, 87, 60
1, 469740, Note_off_c, 0, 85, 64
1, 469742, Note_on_c, 0, 80, 56
1, 469758, Note_on_c, 0, 77, 63
1, 469793, Note_on_c, 0, 68, 36
1, 469798, Note_off_c, 0, 77, 64
1, 469800, Note_off_c, 0, 65, 35
1, 469808, Note_off_c, 0, 80, 62
1, 469825, Note_off_c, 0, 68, 55
1, 469993, Note_on_c, 0, 89, 60
1, 470076, Note_on_c, 0, 101, 61
1, 470139, Note_off_c, 0, 101, 61
1, 470147, Note_on_c, 0, 99, 56
1, 470152, Note_on_c, 0, 49, 44
1, 470177, Note_on_c, 0, 97, 66
1, 470184, Note_off_c, 0, 99, 63
1, 470191, Note_off_c, 0, 89, 39
1, 470218, Note_off_c, 0, 49, 58
1, 470231, Note_on_c, 0, 92, 73
1, 470232, Note_on_c, 0, 56, 57
1, 470249, Note_off_c, 0, 97, 64
1, 470262, Note_off_c, 0, 92, 63
1, 470275, Note_on_c, 0, 89, 80
1, 470297, Note_off_c, 0, 89, 70
1, 470311, Note_off_c, 0, 56, 63
1, 470323, Note_on_c, 0, 61, 53
1, 470349, Note_on_c, 0, 87, 72
1, 470359, Note_off_c, 0, 61, 65
1, 470393, Note_on_c, 0, 65, 57
1, 470397, Note_on_c, 0, 85, 69
1, 470443, Note_off_c, 0, 87, 61
1, 470461, Note_off_c, 0, 85, 65
1, 470474, Note_on_c, 0, 80, 56
1, 470494, Note_on_c, 0, 77, 54
1, 470519, Note_on_c, 0, 68, 55
1, 470532, Note_off_c, 0, 77, 64
1, 470539, Note_off_c, 0, 65, 35
1, 470539, Note_off_c, 0, 80, 63
1, 470554, Note_off_c, 0, 68, 61
1, 470783, Note_on_c, 0, 89, 41
1, 470837, Note_on_c, 0, 101, 68
1, 470847, Poly_aftertouch_c, 0, 88, 0
1, 470895, Note_on_c, 0, 49, 41
1, 470902, Note_on_c, 0, 99, 66
1, 470902, Note_off_c, 0, 101, 60
1, 470941, Note_on_c, 0, 97, 68
1, 470967, Note_off_c, 0, 99, 62
1, 470975, Note_off_c, 0, 49, 61
1, 470982, Note_on_c, 0, 56, 57
1, 470986, Note_on_c, 0, 92, 75
1, 471000, Note_off_c, 0, 89, 38
1, 471012, Note_off_c, 0, 97, 64
1, 471036, Note_off_c, 0, 92, 64
1, 471037, Note_on_c, 0, 89, 66
1, 471059, Note_off_c, 0, 56, 64
1, 471063, Note_off_c, 0, 89, 67
1, 471068, Note_on_c, 0, 61, 53
1, 471102, Note_off_c, 0, 61, 64
1, 471108, Note_on_c, 0, 87, 66
1, 471125, Note_on_c, 0, 65, 52
1, 471153, Note_on_c, 0, 85, 68
1, 471222, Note_off_c, 0, 87, 61
1, 471223, Note_on_c, 0, 80, 67
1, 471224, Note_off_c, 0, 85, 64
1, 471237, Note_on_c, 0, 77, 53
1, 471245, Note_on_c, 0, 68, 53
1, 471257, Note_off_c, 0, 80, 64
1, 471260, Note_off_c, 0, 65, 53
1, 471263, Control_c, 0, 67, 105
1, 471277, Note_off_c, 0, 77, 65
1, 471286, Control_c, 0, 67, 70
1, 471300, Control_c, 0, 67, 34
1, 471305, Note_off_c, 0, 68, 62
1, 471315, Control_c, 0, 64, 91
1, 471315, Control_c, 0, 67, 0
1, 471331, Control_c, 0, 64, 73
1, 471346, Control_c, 0, 64, 65
1, 471361, Control_c, 0, 64, 61
1, 471376, Control_c, 0, 64, 57
1, 471391, Control_c, 0, 64, 55
1, 471405, Control_c, 0, 64, 54
1, 471420, Control_c, 0, 64, 52
1, 471435, Control_c, 0, 64, 49
1, 471449, Control_c, 0, 64, 46
1, 471464, Control_c, 0, 64, 45
1, 471479, Control_c, 0, 64, 44
1, 471494, Control_c, 0, 64, 42
1, 471509, Control_c, 0, 64, 41
1, 471523, Control_c, 0, 64, 40
1, 471579, Note_on_c, 0, 49, 105
1, 471583, Control_c, 0, 64, 39
1, 471585, Note_on_c, 0, 65, 92
1, 471585, Note_on_c, 0, 77, 89
1, 471588, Note_on_c, 0, 68, 91
1, 471588, Note_on_c, 0, 37, 90
1, 471597, Control_c, 0, 64, 36
1, 471612, Note_on_c, 0, 74, 57
1, 471612, Control_c, 0, 64, 35
1, 471613, Note_off_c, 0, 49, 66
1, 471616, Note_off_c, 0, 37, 68
1, 471621, Note_off_c, 0, 65, 65
1, 471626, Note_off_c, 0, 77, 63
1, 471626, Note_off_c, 0, 68, 60
1, 471627, Control_c, 0, 64, 35
1, 471632, Note_off_c, 0, 74, 62
1, 471641, Control_c, 0, 64, 34
1, 471656, Control_c, 0, 64, 33
1, 471668, Note_on_c, 0, 49, 109
1, 471674, Note_on_c, 0, 37, 95
1, 471676, Note_on_c, 0, 68, 87
1, 471679, Note_on_c, 0, 65, 99
1, 471684, Note_on_c, 0, 77, 88
1, 471706, Note_on_c, 0, 50, 39
1, 471710, Note_on_c, 0, 48, 36
1, 471710, Note_off_c, 0, 49, 68
1, 471719, Note_on_c, 0, 74, 32
1, 471719, Note_off_c, 0, 37, 64
1, 471723, Note_off_c, 0, 77, 64
1, 471727, Note_off_c, 0, 65, 63
1, 471731, Control_c, 0, 64, 34
1, 471739, Note_off_c, 0, 50, 35
1, 471743, Note_off_c, 0, 48, 39
1, 471746, Note_off_c, 0, 68, 63
1, 471746, Note_off_c, 0, 74, 41
1, 471746, Control_c, 0, 64, 35
1, 471761, Control_c, 0, 64, 35
1, 471775, Control_c, 0, 64, 36
1, 471790, Control_c, 0, 64, 38
1, 471805, Control_c, 0, 64, 39
1, 471820, Control_c, 0, 64, 40
1, 471835, Control_c, 0, 64, 42
1, 471848, Note_on_c, 0, 66, 34
1, 471849, Control_c, 0, 64, 43
1, 471864, Control_c, 0, 64, 44
1, 471879, Control_c, 0, 64, 44
1, 471894, Control_c, 0, 64, 45
1, 471895, Note_off_c, 0, 66, 0
1, 471903, Note_on_c, 0, 45, 90
1, 471904, Note_on_c, 0, 66, 66
1, 471908, Note_on_c, 0, 33, 83
1, 471910, Note_on_c, 0, 63, 80
1, 471911, Note_on_c, 0, 75, 75
1, 471927, Note_on_c, 0, 73, 60
1, 471934, Note_off_c, 0, 63, 68
1, 471936, Note_off_c, 0, 75, 69
1, 471937, Note_off_c, 0, 33, 67
1, 471943, Note_off_c, 0, 45, 64
1, 471945, Note_off_c, 0, 73, 62
1, 471957, Note_off_c, 0, 66, 63
1, 471967, Control_c, 0, 64, 46
1, 471996, Note_on_c, 0, 46, 112
1, 471996, Note_on_c, 0, 65, 90
1, 472000, Note_on_c, 0, 73, 92
1, 472002, Note_on_c, 0, 61, 91
1, 472004, Note_on_c, 0, 34, 94
1, 472035, Control_c, 0, 64, 45
1, 472041, Note_off_c, 0, 46, 68
1, 472043, Note_on_c, 0, 70, 40
1, 472047, Note_off_c, 0, 34, 63
1, 472053, Note_on_c, 0, 60, 31
1, 472063, Note_off_c, 0, 61, 62
1, 472068, Note_off_c, 0, 65, 59
1, 472073, Note_off_c, 0, 73, 63
1, 472074, Note_off_c, 0, 70, 49
1, 472079, Control_c, 0, 64, 46
1, 472083, Note_off_c, 0, 60, 39
1, 472094, Control_c, 0, 64, 47
1, 472109, Control_c, 0, 64, 48
1, 472124, Control_c, 0, 64, 50
1, 472139, Control_c, 0, 64, 51
1, 472154, Control_c, 0, 64, 52
1, 472169, Control_c, 0, 64, 52
1, 472184, Control_c, 0, 64, 53
1, 472199, Control_c, 0, 64, 55
1, 472214, Control_c, 0, 64, 58
1, 472228, Control_c, 0, 64, 60
1, 472231, Note_on_c, 0, 60, 88
1, 472231, Note_on_c, 0, 63, 89
1, 472232, Note_on_c, 0, 72, 83
1, 472239, Note_on_c, 0, 41, 89
1, 472240, Note_on_c, 0, 29, 78
1, 472252, Note_on_c, 0, 70, 44
1, 472254, Note_off_c, 0, 72, 69
1, 472258, Control_c, 0, 64, 55
1, 472260, Note_off_c, 0, 60, 69
1, 472266, Note_off_c, 0, 29, 63
1, 472268, Note_off_c, 0, 41, 69
1, 472272, Note_off_c, 0, 63, 67
1, 472272, Control_c, 0, 64, 27
1, 472276, Note_on_c, 0, 32, 30
1, 472277, Note_off_c, 0, 70, 54
1, 472287, Control_c, 0, 64, 0
1, 472319, Note_off_c, 0, 32, 51
1, 472327, Note_on_c, 0, 46, 113
1, 472333, Note_on_c, 0, 34, 85
1, 472333, Note_on_c, 0, 61, 101
1, 472336, Note_on_c, 0, 58, 95
1, 472336, Note_on_c, 0, 70, 93
1, 472355, Note_off_c, 0, 70, 69
1, 472357, Note_off_c, 0, 46, 65
1, 472360, Note_off_c, 0, 34, 69
1, 472372, Note_off_c, 0, 58, 56
1, 472375, Note_off_c, 0, 61, 65
1, 472702, Control_c, 0, 64, 27
1, 472717, Control_c, 0, 64, 75
1, 472731, Note_on_c, 0, 48, 100
1, 472732, Control_c, 0, 64, 127
1, 472732, Note_on_c, 0, 68, 98
1, 472733, Note_on_c, 0, 44, 90
1, 472733, Note_on_c, 0, 63, 79
1, 472735, Note_on_c, 0, 56, 102
1, 472735, Note_on_c, 0, 60, 93
1, 472738, Note_on_c, 0, 39, 84
1, 472745, Note_on_c, 0, 36, 81
1, 472784, Note_off_c, 0, 36, 66
1, 472794, Note_off_c, 0, 48, 65
1, 472819, Note_off_c, 0, 44, 63
1, 472819, Note_off_c, 0, 39, 64
1, 472866, Note_off_c, 0, 56, 66
1, 472884, Note_off_c, 0, 60, 60
1, 472926, Note_off_c, 0, 63, 60
1, 472926, Note_off_c, 0, 68, 59
1, 473152, Note_on_c, 0, 55, 100
1, 473153, Note_on_c, 0, 58, 96
1, 473154, Note_on_c, 0, 67, 91
1, 473155, Control_c, 0, 64, 96
1, 473157, Note_on_c, 0, 50, 102
1, 473159, Note_on_c, 0, 46, 75
1, 473160, Note_on_c, 0, 38, 80
1, 473169, Control_c, 0, 64, 47
1, 473184, Control_c, 0, 64, 0
1, 473199, Note_off_c, 0, 55, 65
1, 473203, Note_on_c, 0, 64, 22
1, 473227, Note_off_c, 0, 67, 65
1, 473230, Note_off_c, 0, 58, 65
1, 473242, Note_off_c, 0, 50, 64
1, 473243, Note_off_c, 0, 64, 41
1, 473251, Note_off_c, 0, 38, 64
1, 473265, Note_off_c, 0, 46, 63
1, 473448, Note_on_c, 0, 62, 100
1, 473454, Note_on_c, 0, 50, 97
1, 473459, Note_on_c, 0, 38, 85
1, 473557, Note_off_c, 0, 50, 64
1, 473567, Note_off_c, 0, 38, 60
1, 473624, Note_on_c, 0, 63, 106
1, 473636, Note_on_c, 0, 51, 98
1, 473642, Note_on_c, 0, 39, 81
1, 473645, Note_off_c, 0, 62, 68
1, 473677, Note_off_c, 0, 63, 69
1, 473694, Note_off_c, 0, 51, 63
1, 473716, Note_off_c, 0, 39, 62
1, 473934, Control_c, 0, 64, 42
1, 473949, Control_c, 0, 64, 62
1, 473962, Note_on_c, 0, 49, 77
1, 473963, Note_on_c, 0, 61, 98
1, 473964, Control_c, 0, 64, 71
1, 473969, Note_on_c, 0, 37, 68
1, 473978, Control_c, 0, 64, 98
1, 473993, Control_c, 0, 64, 127
1, 474110, Note_off_c, 0, 37, 61
1, 474112, Control_c, 0, 67, 46
1, 474115, Note_off_c, 0, 49, 62
1, 474126, Control_c, 0, 67, 112
1, 474136, Note_off_c, 0, 61, 59
1, 474141, Control_c, 0, 67, 127
1, 474185, Control_c, 0, 64, 86
1, 474200, Note_on_c, 0, 62, 77
1, 474200, Control_c, 0, 64, 58
1, 474204, Note_on_c, 0, 50, 82
1, 474215, Control_c, 0, 64, 0
1, 474225, Note_on_c, 0, 38, 36
1, 474226, Note_off_c, 0, 38, 127
1, 474226, Note_off_c, 0, 62, 69
1, 474232, Note_off_c, 0, 50, 68
1, 474290, Note_on_c, 0, 62, 68
1, 474318, Note_off_c, 0, 62, 67
1, 474363, Note_on_c, 0, 62, 64
1, 474396, Note_off_c, 0, 62, 62
1, 474436, Note_on_c, 0, 50, 55
1, 474438, Note_on_c, 0, 57, 55
1, 474443, Note_on_c, 0, 60, 55
1, 474443, Note_on_c, 0, 62, 68
1, 474461, Note_off_c, 0, 50, 58
1, 474463, Note_off_c, 0, 57, 63
1, 474464, Note_off_c, 0, 60, 60
1, 474473, Note_off_c, 0, 62, 66
1, 474518, Note_on_c, 0, 64, 68
1, 474548, Note_off_c, 0, 64, 65
1, 474567, Note_on_c, 0, 66, 66
1, 474601, Note_off_c, 0, 66, 66
1, 474640, Note_on_c, 0, 67, 75
1, 474664, Note_off_c, 0, 67, 69
1, 474712, Note_on_c, 0, 67, 60
1, 474741, Note_off_c, 0, 67, 65
1, 474784, Note_on_c, 0, 67, 64
1, 474814, Note_off_c, 0, 67, 66
1, 474860, Note_on_c, 0, 67, 75
1, 474865, Note_on_c, 0, 50, 56
1, 474868, Note_on_c, 0, 58, 61
1, 474876, Note_on_c, 0, 62, 44
1, 474888, Note_off_c, 0, 67, 63
1, 474890, Note_off_c, 0, 50, 59
1, 474900, Note_off_c, 0, 58, 65
1, 474905, Note_off_c, 0, 62, 56
1, 474934, Note_on_c, 0, 69, 71
1, 474971, Note_off_c, 0, 69, 66
1, 474989, Note_on_c, 0, 70, 77
1, 475026, Note_off_c, 0, 70, 66
1, 475075, Note_on_c, 0, 69, 78
1, 475098, Note_off_c, 0, 69, 69
1, 475134, Note_on_c, 0, 70, 71
1, 475173, Note_on_c, 0, 50, 46
1, 475174, Note_off_c, 0, 70, 61
1, 475197, Note_on_c, 0, 54, 57
1, 475209, Note_off_c, 0, 50, 59
1, 475210, Note_on_c, 0, 69, 74
1, 475236, Note_off_c, 0, 69, 67
1, 475241, Note_off_c, 0, 54, 66
1, 475275, Note_on_c, 0, 60, 68
1, 475280, Note_on_c, 0, 63, 73
1, 475287, Note_on_c, 0, 69, 80
1, 475304, Note_off_c, 0, 60, 67
1, 475306, Note_off_c, 0, 63, 68
1, 475316, Note_off_c, 0, 69, 67
1, 475353, Note_on_c, 0, 70, 75
1, 475402, Note_off_c, 0, 70, 61
1, 475425, Note_on_c, 0, 69, 77
1, 475451, Note_off_c, 0, 69, 67
1, 475479, Note_on_c, 0, 67, 76
1, 475519, Note_off_c, 0, 67, 60
1, 475542, Note_on_c, 0, 70, 75
1, 475579, Note_off_c, 0, 70, 63
1, 475615, Note_on_c, 0, 67, 64
1, 475633, Note_off_c, 0, 67, 64
1, 475677, Note_on_c, 0, 58, 67
1, 475679, Note_on_c, 0, 63, 75
1, 475682, Note_on_c, 0, 50, 53
1, 475703, Note_off_c, 0, 63, 69
1, 475709, Note_off_c, 0, 58, 66
1, 475716, Note_off_c, 0, 50, 65
1, 475747, Note_on_c, 0, 63, 69
1, 475782, Note_off_c, 0, 63, 63
1, 475823, Note_on_c, 0, 63, 69
1, 475841, Note_off_c, 0, 63, 64
1, 475883, Note_on_c, 0, 62, 86
1, 475906, Note_off_c, 0, 62, 70
1, 475942, Note_on_c, 0, 62, 76
1, 475970, Note_off_c, 0, 62, 67
1, 476025, Note_on_c, 0, 62, 74
1, 476050, Note_off_c, 0, 62, 68
1, 476088, Note_on_c, 0, 62, 82
1, 476089, Note_on_c, 0, 60, 73
1, 476091, Note_on_c, 0, 50, 69
1, 476092, Note_on_c, 0, 57, 73
1, 476114, Note_off_c, 0, 60, 69
1, 476118, Note_off_c, 0, 50, 67
1, 476118, Note_off_c, 0, 57, 67
1, 476132, Note_off_c, 0, 62, 58
1, 476167, Note_on_c, 0, 64, 75
1, 476199, Note_off_c, 0, 64, 64
1, 476209, Note_on_c, 0, 66, 73
1, 476249, Note_off_c, 0, 66, 60
1, 476285, Note_on_c, 0, 67, 78
1, 476306, Note_off_c, 0, 67, 69
1, 476351, Note_on_c, 0, 67, 77
1, 476378, Note_off_c, 0, 67, 64
1, 476426, Note_on_c, 0, 67, 54
1, 476456, Note_off_c, 0, 67, 64
1, 476494, Note_on_c, 0, 58, 79
1, 476494, Note_on_c, 0, 67, 78
1, 476495, Note_on_c, 0, 62, 78
1, 476512, Note_on_c, 0, 50, 48
1, 476525, Note_off_c, 0, 58, 70
1, 476528, Note_off_c, 0, 62, 69
1, 476538, Note_off_c, 0, 67, 63
1, 476541, Note_off_c, 0, 50, 52
1, 476575, Note_on_c, 0, 69, 65
1, 476606, Note_off_c, 0, 69, 65
1, 476619, Note_on_c, 0, 70, 73
1, 476649, Note_off_c, 0, 70, 64
1, 476694, Note_on_c, 0, 69, 77
1, 476721, Note_off_c, 0, 69, 61
1, 476747, Note_on_c, 0, 70, 67
1, 476783, Note_off_c, 0, 70, 57
1, 476798, Note_on_c, 0, 50, 36
1, 476815, Note_on_c, 0, 54, 61
1, 476825, Note_on_c, 0, 69, 65
1, 476831, Note_off_c, 0, 50, 51
1, 476855, Note_off_c, 0, 69, 64
1, 476867, Control_c, 0, 64, 32
1, 476882, Control_c, 0, 64, 47
1, 476889, Note_on_c, 0, 69, 62
1, 476894, Note_on_c, 0, 60, 64
1, 476897, Control_c, 0, 64, 55
1, 476903, Note_on_c, 0, 63, 72
1, 476913, Control_c, 0, 64, 61
1, 476925, Note_off_c, 0, 69, 63
1, 476928, Control_c, 0, 64, 65
1, 476942, Control_c, 0, 64, 67
1, 476946, Note_off_c, 0, 60, 63
1, 476951, Note_on_c, 0, 70, 66
1, 476952, Note_off_c, 0, 63, 52
1, 476957, Control_c, 0, 64, 70
1, 476972, Control_c, 0, 64, 72
1, 476987, Control_c, 0, 64, 77
1, 477002, Control_c, 0, 64, 83
1, 477002, Control_c, 0, 67, 116
1, 477007, Note_off_c, 0, 70, 64
1, 477015, Note_on_c, 0, 69, 82
1, 477016, Control_c, 0, 64, 92
1, 477016, Control_c, 0, 67, 95
1, 477017, Note_off_c, 0, 54, 0
1, 477031, Control_c, 0, 64, 108
1, 477031, Control_c, 0, 67, 66
1, 477046, Control_c, 0, 64, 127
1, 477046, Control_c, 0, 67, 38
1, 477055, Poly_aftertouch_c, 0, 54, 127
1, 477061, Control_c, 0, 67, 17
1, 477061, Note_off_c, 0, 69, 61
1, 477076, Control_c, 0, 67, 0
1, 477088, Note_on_c, 0, 67, 81
1, 477097, Note_on_c, 0, 55, 70
1, 477108, Note_on_c, 0, 58, 67
1, 477133, Note_off_c, 0, 55, 65
1, 477134, Note_off_c, 0, 58, 66
1, 477135, Note_off_c, 0, 67, 59
1, 477137, Poly_aftertouch_c, 0, 54, 0
1, 477147, Note_on_c, 0, 70, 83
1, 477180, Control_c, 0, 67, 8
1, 477195, Control_c, 0, 64, 107
1, 477195, Control_c, 0, 67, 11
1, 477209, Control_c, 0, 64, 88
1, 477209, Control_c, 0, 67, 14
1, 477224, Control_c, 0, 64, 74
1, 477224, Control_c, 0, 67, 16
1, 477228, Note_on_c, 0, 74, 71
1, 477233, Note_off_c, 0, 70, 60
1, 477239, Control_c, 0, 64, 62
1, 477239, Control_c, 0, 67, 16
1, 477260, Control_c, 0, 64, 45
1, 477260, Control_c, 0, 67, 19
1, 477275, Control_c, 0, 64, 0
1, 477275, Control_c, 0, 67, 24
1, 477290, Control_c, 0, 67, 31
1, 477305, Control_c, 0, 67, 47
1, 477320, Note_on_c, 0, 79, 84
1, 477320, Note_off_c, 0, 74, 59
1, 477320, Control_c, 0, 67, 72
1, 477333, Note_on_c, 0, 61, 63
1, 477335, Control_c, 0, 67, 94
1, 477339, Note_on_c, 0, 58, 65
1, 477342, Note_on_c, 0, 67, 52
1, 477343, Note_on_c, 0, 51, 57
1, 477350, Control_c, 0, 67, 118
1, 477351, Note_off_c, 0, 79, 67
1, 477363, Note_off_c, 0, 61, 65
1, 477365, Note_off_c, 0, 67, 39
1, 477365, Control_c, 0, 67, 127
1, 477367, Note_off_c, 0, 58, 66
1, 477373, Note_off_c, 0, 51, 66
1, 477596, Note_on_c, 0, 86, 76
1, 477602, Control_c, 0, 64, 33
1, 477611, Note_on_c, 0, 74, 53
1, 477616, Control_c, 0, 64, 57
1, 477621, Note_off_c, 0, 86, 68
1, 477631, Note_off_c, 0, 74, 58
1, 477631, Control_c, 0, 64, 62
1, 477646, Control_c, 0, 64, 64
1, 477660, Control_c, 0, 64, 67
1, 477675, Control_c, 0, 64, 73
1, 477690, Control_c, 0, 64, 84
1, 477706, Control_c, 0, 64, 109
1, 477721, Control_c, 0, 64, 127
1, 477830, Note_on_c, 0, 74, 72
1, 477854, Control_c, 0, 64, 110
1, 477857, Note_on_c, 0, 71, 89
1, 477869, Control_c, 0, 64, 77
1, 477874, Note_off_c, 0, 71, 73
1, 477881, Note_off_c, 0, 74, 61
1, 477883, Control_c, 0, 64, 63
1, 477886, Note_on_c, 0, 60, 30
1, 477898, Control_c, 0, 64, 47
1, 477902, Note_on_c, 0, 76, 70
1, 477913, Control_c, 0, 64, 31
1, 477920, Note_off_c, 0, 60, 43
1, 477928, Control_c, 0, 64, 0
1, 477945, Note_off_c, 0, 76, 63
1, 477956, Note_on_c, 0, 78, 78
1, 478009, Note_off_c, 0, 78, 62
1, 478032, Note_on_c, 0, 79, 79
1, 478061, Note_off_c, 0, 79, 64
1, 478095, Note_on_c, 0, 81, 72
1, 478116, Note_off_c, 0, 81, 59
1, 478117, Note_on_c, 0, 79, 44
1, 478141, Note_off_c, 0, 79, 35
1, 478208, Note_on_c, 0, 81, 40
1, 478229, Note_on_c, 0, 79, 71
1, 478232, Note_off_c, 0, 81, 56
1, 478265, Note_on_c, 0, 74, 77
1, 478272, Note_on_c, 0, 69, 74
1, 478283, Note_on_c, 0, 62, 40
1, 478286, Note_off_c, 0, 74, 69
1, 478296, Note_off_c, 0, 69, 68
1, 478296, Note_off_c, 0, 79, 63
1, 478301, Note_on_c, 0, 81, 82
1, 478313, Note_off_c, 0, 62, 51
1, 478363, Note_off_c, 0, 81, 65
1, 478375, Note_on_c, 0, 82, 80
1, 478417, Note_off_c, 0, 82, 63
1, 478447, Note_on_c, 0, 81, 76
1, 478483, Note_off_c, 0, 81, 65
1, 478506, Note_on_c, 0, 82, 75
1, 478545, Note_off_c, 0, 82, 56
1, 478579, Note_on_c, 0, 62, 31
1, 478592, Note_on_c, 0, 66, 62
1, 478592, Note_on_c, 0, 81, 70
1, 478614, Note_off_c, 0, 62, 54
1, 478621, Note_off_c, 0, 81, 65
1, 478633, Control_c, 0, 64, 27
1, 478648, Control_c, 0, 64, 46
1, 478662, Control_c, 0, 64, 57
1, 478670, Note_on_c, 0, 81, 63
1, 478677, Control_c, 0, 64, 62
1, 478686, Note_on_c, 0, 75, 69
1, 478689, Note_on_c, 0, 72, 62
1, 478692, Control_c, 0, 64, 64
1, 478696, Note_off_c, 0, 66, 51
1, 478701, Note_off_c, 0, 81, 65
1, 478706, Control_c, 0, 64, 67
1, 478713, Note_off_c, 0, 75, 67
1, 478715, Note_off_c, 0, 72, 67
1, 478721, Control_c, 0, 64, 71
1, 478736, Control_c, 0, 64, 81
1, 478738, Note_on_c, 0, 82, 72
1, 478759, Control_c, 0, 64, 91
1, 478774, Control_c, 0, 64, 97
1, 478788, Control_c, 0, 64, 95
1, 478796, Note_off_c, 0, 82, 61
1, 478803, Control_c, 0, 64, 88
1, 478818, Control_c, 0, 64, 79
1, 478822, Note_on_c, 0, 81, 69
1, 478832, Control_c, 0, 64, 69
1, 478847, Control_c, 0, 64, 65
1, 478848, Note_off_c, 0, 81, 69
1, 478862, Control_c, 0, 64, 62
1, 478870, Note_on_c, 0, 79, 75
1, 478877, Control_c, 0, 64, 58
1, 478892, Control_c, 0, 64, 54
1, 478906, Control_c, 0, 64, 48
1, 478919, Note_off_c, 0, 79, 63
1, 478921, Control_c, 0, 64, 39
1, 478936, Note_on_c, 0, 82, 75
1, 478936, Control_c, 0, 64, 27
1, 478951, Control_c, 0, 64, 0
1, 478973, Note_off_c, 0, 82, 63
1, 479006, Note_on_c, 0, 79, 69
1, 479032, Note_off_c, 0, 79, 68
1, 479066, Note_on_c, 0, 75, 76
1, 479075, Note_on_c, 0, 70, 68
1, 479086, Note_on_c, 0, 62, 46
1, 479090, Note_off_c, 0, 75, 68
1, 479106, Note_off_c, 0, 70, 66
1, 479115, Note_off_c, 0, 62, 62
1, 479134, Note_on_c, 0, 75, 83
1, 479165, Note_off_c, 0, 75, 62
1, 479204, Note_on_c, 0, 75, 75
1, 479248, Note_off_c, 0, 75, 63
1, 479267, Note_on_c, 0, 74, 82
1, 479292, Note_off_c, 0, 74, 66
1, 479342, Note_on_c, 0, 74, 78
1, 479366, Note_off_c, 0, 74, 69
1, 479423, Note_on_c, 0, 74, 72
1, 479467, Note_off_c, 0, 74, 0
1, 479477, Note_on_c, 0, 72, 75
1, 479480, Note_on_c, 0, 69, 70
1, 479482, Note_on_c, 0, 62, 59
1, 479512, Note_off_c, 0, 69, 69
1, 479512, Poly_aftertouch_c, 0, 74, 127
1, 479522, Note_off_c, 0, 62, 66
1, 479523, Note_off_c, 0, 72, 63
1, 479545, Poly_aftertouch_c, 0, 74, 0
1, 479563, Note_on_c, 0, 76, 80
1, 479606, Note_off_c, 0, 76, 62
1, 479620, Note_on_c, 0, 78, 76
1, 479667, Note_off_c, 0, 78, 59
1, 479690, Note_on_c, 0, 79, 74
1, 479705, Note_on_c, 0, 77, 51
1, 479713, Note_off_c, 0, 79, 70
1, 479727, Note_off_c, 0, 77, 39
1, 479760, Note_on_c, 0, 79, 77
1, 479785, Note_off_c, 0, 79, 70
1, 479827, Note_on_c, 0, 79, 76
1, 479857, Note_off_c, 0, 79, 62
1, 479894, Note_on_c, 0, 74, 70
1, 479896, Note_on_c, 0, 70, 69
1, 479898, Note_on_c, 0, 79, 78
1, 479901, Note_on_c, 0, 62, 53
1, 479919, Note_off_c, 0, 74, 64
1, 479923, Note_off_c, 0, 70, 68
1, 479926, Note_off_c, 0, 62, 59
1, 479952, Note_off_c, 0, 79, 65
1, 479972, Note_on_c, 0, 81, 80
1, 480015, Note_off_c, 0, 81, 65
1, 480027, Note_on_c, 0, 82, 74
1, 480066, Note_off_c, 0, 82, 62
1, 480095, Note_on_c, 0, 81, 77
1, 480127, Note_off_c, 0, 81, 63
1, 480157, Note_on_c, 0, 82, 76
1, 480182, Note_on_c, 0, 62, 37
1, 480197, Note_off_c, 0, 82, 55
1, 480203, Note_on_c, 0, 66, 58
1, 480214, Note_off_c, 0, 62, 49
1, 480233, Note_on_c, 0, 81, 74
1, 480281, Note_off_c, 0, 66, 62
1, 480288, Note_off_c, 0, 81, 0
1, 480290, Note_on_c, 0, 72, 69
1, 480301, Note_on_c, 0, 75, 67
1, 480325, Poly_aftertouch_c, 0, 81, 127
1, 480345, Note_off_c, 0, 75, 57
1, 480351, Note_off_c, 0, 72, 63
1, 480353, Poly_aftertouch_c, 0, 81, 0
1, 480377, Note_on_c, 0, 82, 68
1, 480439, Note_off_c, 0, 82, 64
1, 480455, Note_on_c, 0, 81, 71
1, 480492, Note_off_c, 0, 81, 66
1, 480521, Note_on_c, 0, 74, 47
1, 480530, Note_on_c, 0, 70, 43
1, 480532, Note_on_c, 0, 67, 38
1, 480538, Note_on_c, 0, 79, 57
1, 480568, Note_off_c, 0, 74, 57
1, 480593, Note_off_c, 0, 70, 58
1, 480593, Note_off_c, 0, 67, 59
1, 480599, Note_off_c, 0, 79, 60
1, 480606, Note_on_c, 0, 82, 63
1, 480676, Note_off_c, 0, 82, 63
1, 480690, Note_on_c, 0, 86, 48
1, 480745, Control_c, 0, 64, 18
1, 480760, Control_c, 0, 64, 22
1, 480769, Note_off_c, 0, 86, 62
1, 480775, Control_c, 0, 64, 26
1, 480790, Control_c, 0, 64, 35
1, 480804, Control_c, 0, 64, 45
1, 480808, Note_on_c, 0, 91, 46
1, 480813, Note_on_c, 0, 63, 38
1, 480819, Note_on_c, 0, 79, 42
1, 480819, Control_c, 0, 64, 53
1, 480825, Note_on_c, 0, 73, 34
1, 480834, Control_c, 0, 64, 57
1, 480836, Note_on_c, 0, 70, 36
1, 480849, Control_c, 0, 64, 58
1, 480864, Control_c, 0, 64, 60
1, 480876, Note_off_c, 0, 79, 50
1, 480878, Control_c, 0, 64, 63
1, 480893, Control_c, 0, 64, 66
1, 480909, Control_c, 0, 64, 70
1, 480919, Note_off_c, 0, 91, 63
1, 480924, Control_c, 0, 64, 77
1, 480939, Control_c, 0, 64, 84
1, 480941, Note_off_c, 0, 70, 39
1, 480954, Control_c, 0, 64, 95
1, 480969, Control_c, 0, 64, 127
1, 480972, Note_off_c, 0, 73, 28
1, 481003, Note_off_c, 0, 63, 30
1, 481124, Control_c, 0, 64, 88
1, 481132, Note_on_c, 0, 62, 41
1, 481135, Note_on_c, 0, 86, 50
1, 481139, Control_c, 0, 64, 75
1, 481153, Control_c, 0, 64, 70
1, 481168, Control_c, 0, 64, 70
1, 481183, Control_c, 0, 64, 73
1, 481198, Control_c, 0, 64, 76
1, 481198, Note_off_c, 0, 86, 51
1, 481213, Control_c, 0, 64, 80
1, 481221, Note_on_c, 0, 98, 61
1, 481228, Control_c, 0, 64, 86
1, 481243, Control_c, 0, 64, 97
1, 481257, Control_c, 0, 64, 117
1, 481272, Control_c, 0, 64, 127
1, 481275, Note_off_c, 0, 98, 63
1, 481313, Note_on_c, 0, 88, 55
1, 481354, Note_off_c, 0, 88, 61
1, 481364, Note_off_c, 0, 62, 35
1, 481371, Note_on_c, 0, 72, 36
1, 481374, Note_on_c, 0, 74, 39
1, 481378, Note_on_c, 0, 69, 33
1, 481389, Note_on_c, 0, 98, 56
1, 481425, Note_off_c, 0, 98, 59
1, 481457, Note_on_c, 0, 90, 62
1, 481459, Note_off_c, 0, 74, 41
1, 481486, Note_off_c, 0, 69, 38
1, 481495, Note_off_c, 0, 90, 56
1, 481499, Note_off_c, 0, 72, 33
1, 481526, Note_on_c, 0, 98, 67
1, 481583, Note_off_c, 0, 98, 65
1, 481597, Note_on_c, 0, 62, 32
1, 481607, Note_on_c, 0, 91, 65
1, 481629, Note_on_c, 0, 86, 33
1, 481633, Note_off_c, 0, 62, 51
1, 481660, Note_off_c, 0, 86, 47
1, 481669, Note_off_c, 0, 91, 60
1, 481682, Note_on_c, 0, 98, 60
1, 481735, Note_off_c, 0, 98, 51
1, 481756, Note_on_c, 0, 93, 76
1, 481773, Note_on_c, 0, 86, 36
1, 481802, Note_off_c, 0, 93, 63
1, 481804, Note_off_c, 0, 86, 51
1, 481835, Note_on_c, 0, 74, 39
1, 481848, Note_on_c, 0, 70, 33
1, 481848, Note_on_c, 0, 98, 67
1, 481851, Note_on_c, 0, 67, 24
1, 481899, Note_off_c, 0, 98, 59
1, 481920, Note_on_c, 0, 94, 78
1, 481943, Note_on_c, 0, 86, 35
1, 481959, Note_off_c, 0, 74, 53
1, 481967, Note_off_c, 0, 67, 38
1, 481974, Note_off_c, 0, 86, 47
1, 481984, Note_off_c, 0, 94, 62
1, 481987, Note_off_c, 0, 70, 36
1, 482003, Note_on_c, 0, 98, 77
1, 482059, Note_off_c, 0, 98, 65
1, 482085, Note_on_c, 0, 62, 41
1, 482089, Note_on_c, 0, 93, 74
1, 482094, Note_on_c, 0, 86, 50
1, 482130, Note_off_c, 0, 86, 62
1, 482137, Note_off_c, 0, 62, 55
1, 482146, Note_off_c, 0, 93, 64
1, 482163, Note_on_c, 0, 98, 76
1, 482244, Note_off_c, 0, 98, 63
1, 482256, Note_on_c, 0, 94, 71
1, 482282, Note_on_c, 0, 86, 24
1, 482306, Note_on_c, 0, 66, 42
1, 482310, Note_on_c, 0, 72, 39
1, 482311, Note_on_c, 0, 74, 40
1, 482321, Note_off_c, 0, 86, 42
1, 482322, Note_off_c, 0, 94, 62
1, 482329, Note_on_c, 0, 98, 74
1, 482372, Note_off_c, 0, 74, 51
1, 482390, Note_off_c, 0, 98, 63
1, 482396, Note_off_c, 0, 66, 49
1, 482411, Note_on_c, 0, 93, 69
1, 482412, Note_off_c, 0, 72, 35
1, 482439, Note_on_c, 0, 86, 23
1, 482441, Note_off_c, 0, 93, 66
1, 482477, Note_off_c, 0, 86, 40
1, 482483, Note_on_c, 0, 98, 48
1, 482518, Control_c, 0, 64, 101
1, 482523, Note_off_c, 0, 98, 50
1, 482533, Control_c, 0, 64, 93
1, 482543, Note_on_c, 0, 91, 71
1, 482548, Control_c, 0, 64, 98
1, 482554, Note_on_c, 0, 62, 46
1, 482562, Control_c, 0, 64, 127
1, 482604, Note_off_c, 0, 91, 61
1, 482616, Note_off_c, 0, 62, 50
1, 482620, Note_on_c, 0, 98, 75
1, 482693, Note_off_c, 0, 98, 59
1, 482713, Note_on_c, 0, 86, 56
1, 482715, Note_on_c, 0, 94, 53
1, 482745, Note_off_c, 0, 86, 62
1, 482752, Note_on_c, 0, 74, 50
1, 482757, Note_on_c, 0, 67, 39
1, 482764, Note_on_c, 0, 70, 43
1, 482772, Note_off_c, 0, 94, 53
1, 482805, Note_on_c, 0, 98, 60
1, 482830, Note_off_c, 0, 67, 52
1, 482852, Note_off_c, 0, 74, 48
1, 482866, Note_off_c, 0, 98, 64
1, 482867, Note_off_c, 0, 70, 52
1, 482872, Note_on_c, 0, 87, 70
1, 482934, Note_off_c, 0, 87, 63
1, 482962, Note_on_c, 0, 98, 65
1, 482962, Control_c, 0, 64, 90
1, 482977, Control_c, 0, 64, 76
1, 482992, Control_c, 0, 64, 72
1, 483005, Note_on_c, 0, 62, 38
1, 483007, Control_c, 0, 64, 74
1, 483012, Note_off_c, 0, 98, 56
1, 483021, Control_c, 0, 64, 85
1, 483024, Note_on_c, 0, 86, 74
1, 483036, Control_c, 0, 64, 115
1, 483051, Control_c, 0, 64, 127
1, 483079, Note_off_c, 0, 86, 62
1, 483117, Note_on_c, 0, 98, 71
1, 483136, Note_off_c, 0, 62, 34
1, 483167, Note_off_c, 0, 98, 63
1, 483189, Note_on_c, 0, 88, 71
1, 483218, Note_on_c, 0, 74, 39
1, 483221, Note_on_c, 0, 69, 47
1, 483226, Note_on_c, 0, 72, 35
1, 483235, Note_off_c, 0, 88, 64
1, 483270, Note_on_c, 0, 98, 85
1, 483326, Note_off_c, 0, 98, 65
1, 483335, Note_off_c, 0, 69, 58
1, 483344, Note_off_c, 0, 74, 51
1, 483348, Note_on_c, 0, 90, 84
1, 483383, Note_off_c, 0, 72, 34
1, 483400, Control_c, 0, 64, 98
1, 483415, Control_c, 0, 64, 81
1, 483423, Note_off_c, 0, 90, 62
1, 483428, Note_on_c, 0, 98, 93
1, 483430, Control_c, 0, 64, 77
1, 483445, Control_c, 0, 64, 81
1, 483458, Note_on_c, 0, 62, 49
1, 483459, Control_c, 0, 64, 92
1, 483474, Control_c, 0, 64, 125
1, 483489, Control_c, 0, 64, 127
1, 483490, Note_off_c, 0, 98, 65
1, 483505, Note_on_c, 0, 91, 88
1, 483522, Note_off_c, 0, 62, 49
1, 483523, Note_on_c, 0, 86, 69
1, 483550, Note_off_c, 0, 86, 68
1, 483580, Note_on_c, 0, 98, 89
1, 483583, Note_off_c, 0, 91, 64
1, 483654, Note_on_c, 0, 93, 85
1, 483661, Note_on_c, 0, 86, 68
1, 483661, Note_off_c, 0, 98, 63
1, 483691, Note_off_c, 0, 86, 65
1, 483693, Note_on_c, 0, 74, 52
1, 483710, Note_on_c, 0, 70, 45
1, 483712, Note_on_c, 0, 67, 42
1, 483720, Note_on_c, 0, 98, 81
1, 483721, Note_off_c, 0, 93, 65
1, 483786, Note_off_c, 0, 98, 65
1, 483807, Note_on_c, 0, 94, 88
1, 483811, Note_off_c, 0, 67, 58
1, 483818, Note_off_c, 0, 70, 53
1, 483821, Note_on_c, 0, 86, 58
1, 483834, Note_off_c, 0, 74, 57
1, 483840, Note_off_c, 0, 86, 64
1, 483870, Note_off_c, 0, 94, 64
1, 483876, Note_on_c, 0, 98, 80
1, 483903, Control_c, 0, 64, 105
1, 483918, Control_c, 0, 64, 78
1, 483925, Note_on_c, 0, 62, 48
1, 483928, Note_off_c, 0, 98, 65
1, 483933, Control_c, 0, 64, 69
1, 483948, Control_c, 0, 64, 70
1, 483950, Note_on_c, 0, 93, 78
1, 483961, Note_on_c, 0, 86, 52
1, 483963, Control_c, 0, 64, 75
1, 483977, Control_c, 0, 64, 85
1, 483989, Note_off_c, 0, 86, 64
1, 484000, Control_c, 0, 64, 102
1, 484013, Note_off_c, 0, 93, 64
1, 484015, Note_off_c, 0, 62, 47
1, 484015, Control_c, 0, 64, 127
1, 484036, Note_on_c, 0, 98, 72
1, 484102, Note_off_c, 0, 98, 63
1, 484113, Note_on_c, 0, 94, 77
1, 484176, Note_on_c, 0, 74, 41
1, 484179, Note_on_c, 0, 66, 42
1, 484183, Note_on_c, 0, 72, 37
1, 484193, Note_off_c, 0, 94, 62
1, 484200, Note_on_c, 0, 98, 72
1, 484215, Poly_aftertouch_c, 0, 86, 0
1, 484253, Note_off_c, 0, 98, 63
1, 484278, Note_on_c, 0, 93, 67
1, 484334, Note_off_c, 0, 93, 63
1, 484361, Note_on_c, 0, 98, 72
1, 484382, Poly_aftertouch_c, 0, 86, 0
1, 484416, Note_off_c, 0, 98, 64
1, 484429, Note_on_c, 0, 94, 73
1, 484507, Note_off_c, 0, 94, 63
1, 484529, Note_on_c, 0, 98, 56
1, 484554, Note_off_c, 0, 74, 38
1, 484558, Note_off_c, 0, 72, 44
1, 484566, Note_off_c, 0, 98, 64
1, 484585, Note_off_c, 0, 66, 57
1, 484588, Note_on_c, 0, 93, 61
1, 484610, Note_on_c, 0, 86, 32
1, 484641, Note_off_c, 0, 86, 45
1, 484643, Note_off_c, 0, 93, 63
1, 484686, Note_on_c, 0, 98, 43
1, 484715, Note_off_c, 0, 98, 56
1, 484729, Note_on_c, 0, 86, 63
1, 484792, Note_off_c, 0, 86, 58
1, 484823, Note_on_c, 0, 98, 55
1, 484897, Control_c, 0, 64, 105
1, 484909, Note_off_c, 0, 98, 60
1, 484912, Control_c, 0, 64, 73
1, 484920, Note_on_c, 0, 67, 63
1, 484927, Control_c, 0, 64, 61
1, 484930, Note_on_c, 0, 91, 55
1, 484931, Note_on_c, 0, 86, 49
1, 484942, Control_c, 0, 64, 54
1, 484952, Note_off_c, 0, 67, 63
1, 484957, Control_c, 0, 64, 56
1, 484972, Control_c, 0, 64, 62
1, 484980, Note_off_c, 0, 86, 55
1, 484987, Control_c, 0, 64, 67
1, 484993, Note_off_c, 0, 91, 59
1, 485002, Control_c, 0, 64, 71
1, 485017, Control_c, 0, 64, 75
1, 485031, Control_c, 0, 64, 77
1, 485035, Note_on_c, 0, 98, 55
1, 485046, Control_c, 0, 64, 78
1, 485090, Note_on_c, 0, 69, 59
1, 485097, Note_off_c, 0, 98, 65
1, 485105, Control_c, 0, 64, 77
1, 485110, Note_on_c, 0, 91, 65
1, 485115, Note_on_c, 0, 86, 49
1, 485143, Note_on_c, 0, 70, 75
1, 485149, Note_off_c, 0, 69, 64
1, 485149, Control_c, 0, 64, 78
1, 485155, Note_off_c, 0, 86, 58
1, 485164, Control_c, 0, 64, 81
1, 485175, Note_off_c, 0, 91, 63
1, 485178, Note_on_c, 0, 98, 67
1, 485179, Control_c, 0, 64, 82
1, 485195, Note_off_c, 0, 70, 62
1, 485253, Control_c, 0, 64, 82
1, 485268, Note_off_c, 0, 98, 64
1, 485286, Note_on_c, 0, 91, 73
1, 485294, Note_on_c, 0, 72, 71
1, 485297, Control_c, 0, 64, 82
1, 485300, Note_on_c, 0, 86, 60
1, 485336, Note_off_c, 0, 86, 62
1, 485341, Note_off_c, 0, 91, 62
1, 485348, Note_on_c, 0, 98, 77
1, 485348, Note_off_c, 0, 72, 65
1, 485357, Note_on_c, 0, 74, 78
1, 485386, Note_off_c, 0, 74, 63
1, 485401, Control_c, 0, 64, 82
1, 485416, Control_c, 0, 64, 84
1, 485416, Note_off_c, 0, 98, 63
1, 485431, Control_c, 0, 64, 86
1, 485441, Note_on_c, 0, 91, 68
1, 485446, Control_c, 0, 64, 87
1, 485454, Note_on_c, 0, 86, 51
1, 485477, Note_off_c, 0, 86, 58
1, 485497, Note_off_c, 0, 91, 61
1, 485497, Control_c, 0, 64, 87
1, 485512, Control_c, 0, 64, 88
1, 485526, Note_on_c, 0, 74, 65
1, 485527, Note_on_c, 0, 98, 79
1, 485542, Control_c, 0, 64, 88
1, 485556, Control_c, 0, 64, 89
1, 485566, Note_off_c, 0, 74, 60
1, 485574, Note_on_c, 0, 77, 80
1, 485586, Note_off_c, 0, 98, 65
1, 485601, Note_off_c, 0, 77, 66
1, 485601, Note_on_c, 0, 91, 71
1, 485603, Note_on_c, 0, 86, 47
1, 485631, Control_c, 0, 64, 90
1, 485637, Note_off_c, 0, 86, 63
1, 485646, Control_c, 0, 64, 94
1, 485649, Note_off_c, 0, 91, 60
1, 485660, Note_on_c, 0, 98, 67
1, 485661, Control_c, 0, 64, 125
1, 485675, Control_c, 0, 64, 127
1, 485721, Note_off_c, 0, 98, 65
1, 485749, Note_on_c, 0, 91, 67
1, 485753, Note_on_c, 0, 86, 50
1, 485753, Note_on_c, 0, 75, 61
1, 485765, Control_c, 0, 64, 119
1, 485780, Control_c, 0, 64, 72
1, 485794, Note_off_c, 0, 91, 62
1, 485795, Control_c, 0, 64, 56
1, 485795, Note_on_c, 0, 74, 71
1, 485798, Note_off_c, 0, 86, 56
1, 485804, Note_on_c, 0, 98, 68
1, 485808, Note_off_c, 0, 75, 64
1, 485809, Control_c, 0, 64, 41
1, 485820, Note_off_c, 0, 74, 68
1, 485824, Control_c, 0, 64, 44
1, 485839, Control_c, 0, 64, 56
1, 485853, Control_c, 0, 64, 64
1, 485868, Control_c, 0, 64, 68
1, 485883, Control_c, 0, 64, 71
1, 485884, Note_off_c, 0, 98, 64
1, 485890, Note_on_c, 0, 91, 71
1, 485897, Control_c, 0, 64, 73
1, 485900, Note_on_c, 0, 86, 54
1, 485912, Control_c, 0, 64, 75
1, 485927, Control_c, 0, 64, 79
1, 485938, Note_off_c, 0, 86, 62
1, 485942, Control_c, 0, 64, 81
1, 485950, Note_off_c, 0, 91, 62
1, 485957, Control_c, 0, 64, 82
1, 485959, Note_on_c, 0, 62, 68
1, 485967, Note_on_c, 0, 98, 68
1, 485986, Control_c, 0, 64, 81
1, 486018, Note_on_c, 0, 63, 72
1, 486027, Note_off_c, 0, 62, 64
1, 486029, Note_off_c, 0, 98, 65
1, 486031, Control_c, 0, 64, 82
1, 486045, Control_c, 0, 64, 82
1, 486046, Note_on_c, 0, 91, 63
1, 486053, Note_off_c, 0, 63, 63
1, 486057, Note_on_c, 0, 86, 46
1, 486060, Control_c, 0, 64, 84
1, 486075, Control_c, 0, 64, 85
1, 486083, Note_off_c, 0, 86, 58
1, 486087, Note_off_c, 0, 91, 61
1, 486105, Note_on_c, 0, 98, 61
1, 486161, Note_off_c, 0, 98, 65
1, 486172, Note_on_c, 0, 66, 72
1, 486184, Note_on_c, 0, 86, 59
1, 486188, Note_on_c, 0, 91, 68
1, 486211, Note_off_c, 0, 66, 62
1, 486224, Control_c, 0, 64, 85
1, 486225, Note_off_c, 0, 91, 61
1, 486229, Note_on_c, 0, 67, 49
1, 486229, Note_off_c, 0, 86, 59
1, 486248, Note_on_c, 0, 98, 64
1, 486259, Note_off_c, 0, 67, 57
1, 486275, Control_c, 0, 64, 86
1, 486304, Control_c, 0, 64, 86
1, 486331, Note_off_c, 0, 98, 60
1, 486346, Note_on_c, 0, 91, 57
1, 486349, Control_c, 0, 64, 87
1, 486360, Note_on_c, 0, 86, 54
1, 486364, Control_c, 0, 64, 88
1, 486374, Note_on_c, 0, 67, 60
1, 486379, Control_c, 0, 64, 89
1, 486394, Control_c, 0, 64, 91
1, 486398, Note_off_c, 0, 86, 59
1, 486409, Control_c, 0, 64, 92
1, 486415, Note_off_c, 0, 91, 62
1, 486424, Control_c, 0, 64, 92
1, 486429, Note_on_c, 0, 98, 75
1, 486439, Note_off_c, 0, 67, 57
1, 486453, Note_on_c, 0, 70, 79
1, 486453, Control_c, 0, 64, 93
1, 486468, Control_c, 0, 64, 97
1, 486483, Control_c, 0, 64, 110
1, 486486, Note_off_c, 0, 98, 64
1, 486498, Control_c, 0, 64, 127
1, 486507, Note_off_c, 0, 70, 63
1, 486508, Note_on_c, 0, 91, 64
1, 486534, Note_on_c, 0, 86, 27
1, 486549, Note_off_c, 0, 91, 58
1, 486569, Note_off_c, 0, 86, 42
1, 486579, Note_on_c, 0, 98, 54
1, 486600, Note_on_c, 0, 69, 59
1, 486617, Control_c, 0, 64, 98
1, 486632, Control_c, 0, 64, 67
1, 486635, Note_off_c, 0, 98, 65
1, 486647, Control_c, 0, 64, 36
1, 486650, Note_on_c, 0, 91, 63
1, 486661, Note_on_c, 0, 86, 50
1, 486662, Control_c, 0, 64, 19
1, 486663, Note_on_c, 0, 67, 70
1, 486664, Note_off_c, 0, 69, 64
1, 486676, Control_c, 0, 64, 26
1, 486686, Note_off_c, 0, 67, 67
1, 486691, Control_c, 0, 64, 51
1, 486700, Note_off_c, 0, 86, 56
1, 486700, Note_off_c, 0, 91, 61
1, 486706, Control_c, 0, 64, 63
1, 486712, Note_on_c, 0, 98, 67
1, 486720, Control_c, 0, 64, 66
1, 486735, Control_c, 0, 64, 69
1, 486750, Control_c, 0, 64, 71
1, 486765, Control_c, 0, 64, 73
1, 486780, Control_c, 0, 64, 74
1, 486787, Note_off_c, 0, 98, 60
1, 486794, Control_c, 0, 64, 75
1, 486805, Note_on_c, 0, 55, 62
1, 486810, Note_on_c, 0, 86, 46
1, 486811, Note_on_c, 0, 91, 59
1, 486824, Control_c, 0, 64, 74
1, 486848, Note_off_c, 0, 86, 56
1, 486852, Note_off_c, 0, 91, 63
1, 486871, Note_on_c, 0, 98, 66
1, 486880, Note_off_c, 0, 55, 64
1, 486881, Note_on_c, 0, 58, 70
1, 486883, Control_c, 0, 64, 75
1, 486898, Control_c, 0, 64, 75
1, 486911, Note_off_c, 0, 58, 65
1, 486913, Control_c, 0, 64, 76
1, 486927, Control_c, 0, 64, 76
1, 486938, Note_off_c, 0, 98, 56
1, 486957, Control_c, 0, 64, 76
1, 486970, Note_on_c, 0, 86, 40
1, 486972, Note_on_c, 0, 91, 38
1, 486987, Control_c, 0, 64, 76
1, 487003, Note_off_c, 0, 86, 51
1, 487005, Note_off_c, 0, 91, 50
1, 487038, Note_on_c, 0, 98, 14
1, 487044, Note_on_c, 0, 60, 73
1, 487077, Note_on_c, 0, 86, 59
1, 487081, Note_on_c, 0, 91, 61
1, 487081, Note_off_c, 0, 98, 42
1, 487091, Note_off_c, 0, 60, 64
1, 487099, Note_off_c, 0, 86, 61
1, 487101, Note_off_c, 0, 91, 59
1, 487112, Note_on_c, 0, 62, 68
1, 487127, Control_c, 0, 64, 77
1, 487132, Note_on_c, 0, 98, 64
1, 487142, Note_off_c, 0, 62, 66
1, 487142, Control_c, 0, 64, 78
1, 487157, Control_c, 0, 64, 79
1, 487172, Control_c, 0, 64, 79
1, 487188, Note_off_c, 0, 98, 62
1, 487202, Control_c, 0, 64, 80
1, 487217, Control_c, 0, 64, 80
1, 487217, Note_on_c, 0, 91, 55
1, 487225, Note_on_c, 0, 86, 39
1, 487246, Control_c, 0, 64, 81
1, 487257, Note_off_c, 0, 86, 52
1, 487261, Control_c, 0, 64, 82
1, 487265, Note_off_c, 0, 91, 58
1, 487267, Note_on_c, 0, 62, 63
1, 487276, Control_c, 0, 64, 83
1, 487291, Control_c, 0, 64, 85
1, 487292, Note_on_c, 0, 98, 68
1, 487304, Note_off_c, 0, 62, 63
1, 487306, Control_c, 0, 64, 86
1, 487336, Note_on_c, 0, 65, 58
1, 487341, Note_off_c, 0, 98, 63
1, 487357, Note_off_c, 0, 65, 59
1, 487366, Control_c, 0, 64, 87
1, 487369, Note_on_c, 0, 91, 62
1, 487376, Note_on_c, 0, 86, 41
1, 487381, Control_c, 0, 64, 90
1, 487395, Control_c, 0, 64, 106
1, 487401, Note_off_c, 0, 86, 57
1, 487409, Note_off_c, 0, 91, 60
1, 487410, Control_c, 0, 64, 127
1, 487442, Note_on_c, 0, 98, 56
1, 487480, Note_off_c, 0, 98, 65
1, 487489, Note_on_c, 0, 63, 61
1, 487499, Note_on_c, 0, 91, 66
1, 487499, Control_c, 0, 64, 93
1, 487509, Note_on_c, 0, 86, 48
1, 487514, Control_c, 0, 64, 67
1, 487529, Control_c, 0, 64, 55
1, 487539, Note_on_c, 0, 62, 69
1, 487543, Control_c, 0, 64, 52
1, 487550, Note_off_c, 0, 86, 56
1, 487550, Note_off_c, 0, 91, 63
1, 487553, Note_off_c, 0, 63, 63
1, 487558, Control_c, 0, 64, 56
1, 487563, Note_off_c, 0, 62, 67
1, 487569, Note_on_c, 0, 98, 67
1, 487573, Control_c, 0, 64, 63
1, 487588, Control_c, 0, 64, 66
1, 487603, Control_c, 0, 64, 71
1, 487617, Control_c, 0, 64, 76
1, 487625, Note_off_c, 0, 98, 62
1, 487632, Control_c, 0, 64, 81
1, 487647, Control_c, 0, 64, 82
1, 487652, Note_on_c, 0, 91, 64
1, 487661, Note_on_c, 0, 86, 41
1, 487692, Note_off_c, 0, 86, 50
1, 487702, Note_on_c, 0, 50, 66
1, 487704, Note_off_c, 0, 91, 58
1, 487721, Control_c, 0, 64, 82
1, 487728, Note_on_c, 0, 98, 63
1, 487743, Control_c, 0, 64, 81
1, 487766, Note_on_c, 0, 51, 77
1, 487773, Control_c, 0, 64, 82
1, 487778, Note_off_c, 0, 50, 64
1, 487795, Note_off_c, 0, 98, 62
1, 487802, Note_off_c, 0, 51, 65
1, 487813, Note_on_c, 0, 91, 58
1, 487818, Control_c, 0, 64, 83
1, 487819, Note_on_c, 0, 86, 45
1, 487832, Control_c, 0, 64, 83
1, 487844, Note_off_c, 0, 86, 57
1, 487846, Note_off_c, 0, 91, 53
1, 487847, Control_c, 0, 64, 84
1, 487889, Note_on_c, 0, 98, 47
1, 487926, Note_off_c, 0, 98, 61
1, 487926, Note_on_c, 0, 54, 72
1, 487943, Note_on_c, 0, 91, 64
1, 487948, Note_on_c, 0, 86, 51
1, 487965, Control_c, 0, 64, 84
1, 487979, Note_off_c, 0, 54, 64
1, 487989, Note_on_c, 0, 55, 65
1, 487991, Note_off_c, 0, 86, 59
1, 487994, Note_off_c, 0, 91, 60
1, 487995, Control_c, 0, 64, 85
1, 488014, Note_on_c, 0, 98, 73
1, 488022, Note_off_c, 0, 55, 65
1, 488024, Control_c, 0, 64, 85
1, 488083, Control_c, 0, 64, 87
1, 488099, Control_c, 0, 64, 88
1, 488103, Note_off_c, 0, 98, 54
1, 488116, Note_on_c, 0, 91, 59
1, 488134, Note_on_c, 0, 86, 38
1, 488142, Note_on_c, 0, 55, 63
1, 488144, Control_c, 0, 64, 89
1, 488163, Note_off_c, 0, 86, 53
1, 488176, Note_off_c, 0, 91, 60
1, 488192, Note_on_c, 0, 98, 65
1, 488197, Note_off_c, 0, 55, 61
1, 488217, Note_on_c, 0, 58, 71
1, 488235, Note_off_c, 0, 98, 61
1, 488247, Control_c, 0, 64, 90
1, 488249, Note_off_c, 0, 58, 64
1, 488262, Note_on_c, 0, 86, 49
1, 488262, Control_c, 0, 64, 91
1, 488265, Note_on_c, 0, 91, 61
1, 488277, Control_c, 0, 64, 92
1, 488292, Control_c, 0, 64, 94
1, 488307, Control_c, 0, 64, 94
1, 488311, Note_off_c, 0, 86, 55
1, 488321, Control_c, 0, 64, 94
1, 488336, Control_c, 0, 64, 93
1, 488356, Note_off_c, 0, 91, 57
1, 488371, Note_on_c, 0, 98, 43
1, 488380, Control_c, 0, 64, 96
1, 488382, Note_on_c, 0, 57, 54
1, 488395, Control_c, 0, 64, 119
1, 488399, Note_off_c, 0, 98, 56
1, 488410, Control_c, 0, 64, 127
1, 488475, Note_off_c, 0, 57, 64
1, 488491, Control_c, 0, 64, 122
1, 488492, Note_on_c, 0, 55, 52
1, 488506, Control_c, 0, 64, 69
1, 488521, Control_c, 0, 64, 23
1, 488536, Control_c, 0, 64, 0
1, 488580, Control_c, 0, 64, 39
1, 488595, Control_c, 0, 64, 58
1, 488610, Control_c, 0, 64, 65
1, 488625, Control_c, 0, 64, 70
1, 488630, Note_off_c, 0, 55, 64
1, 488639, Control_c, 0, 64, 75
1, 488654, Control_c, 0, 64, 77
1, 488669, Control_c, 0, 64, 77
1, 488684, Control_c, 0, 64, 78
1, 488698, Control_c, 0, 64, 80
1, 488713, Control_c, 0, 64, 84
1, 488728, Control_c, 0, 64, 91
1, 488743, Control_c, 0, 64, 99
1, 488758, Control_c, 0, 64, 102
1, 488773, Control_c, 0, 64, 102
1, 488788, Control_c, 0, 64, 100
1, 488802, Control_c, 0, 64, 99
1, 488817, Control_c, 0, 64, 98
1, 488892, Control_c, 0, 64, 97
1, 488981, Control_c, 0, 64, 97
1, 488996, Control_c, 0, 64, 98
1, 489100, Control_c, 0, 64, 98
1, 489144, Control_c, 0, 64, 100
1, 489159, Control_c, 0, 64, 103
1, 489166, Note_on_c, 0, 62, 41
1, 489174, Control_c, 0, 64, 104
1, 489178, Note_on_c, 0, 55, 36
1, 489184, Note_on_c, 0, 50, 34
1, 489185, Note_on_c, 0, 43, 38
1, 489189, Control_c, 0, 64, 105
1, 489196, Note_on_c, 0, 31, 31
1, 489199, Note_on_c, 0, 38, 33
1, 489204, Control_c, 0, 64, 106
1, 489219, Control_c, 0, 64, 110
1, 489241, Control_c, 0, 64, 127
1, 489276, Note_off_c, 0, 50, 56
1, 489280, Note_off_c, 0, 31, 60
1, 489290, Note_off_c, 0, 38, 57
1, 489292, Note_off_c, 0, 55, 61
1, 489316, Note_off_c, 0, 43, 50
1, 489319, Note_off_c, 0, 62, 59
1, 489938, Note_on_c, 0, 67, 36
1, 490000, Note_on_c, 0, 70, 52
1, 490048, Note_off_c, 0, 67, 54
1, 490062, Note_on_c, 0, 74, 53
1, 490084, Note_off_c, 0, 70, 50
1, 490128, Note_on_c, 0, 79, 46
1, 490145, Note_off_c, 0, 74, 63
1, 490180, Note_off_c, 0, 79, 61
1, 490187, Note_on_c, 0, 91, 48
1, 490239, Note_on_c, 0, 94, 56
1, 490290, Note_off_c, 0, 91, 59
1, 490309, Note_off_c, 0, 94, 64
1, 490310, Note_on_c, 0, 98, 57
1, 490361, Note_off_c, 0, 98, 65
1, 490376, Note_on_c, 0, 103, 65
1, 490417, Note_off_c, 0, 103, 66
1, 491392, Control_c, 0, 64, 110
1, 491407, Control_c, 0, 64, 105
1, 491422, Control_c, 0, 64, 103
1, 491437, Control_c, 0, 64, 103
1, 491503, Control_c, 0, 64, 102
1, 491518, Control_c, 0, 64, 102
1, 491533, Control_c, 0, 64, 99
1, 491548, Control_c, 0, 64, 96
1, 491563, Control_c, 0, 64, 95
1, 491592, Control_c, 0, 64, 94
1, 491607, Control_c, 0, 64, 94
1, 491622, Control_c, 0, 64, 93
1, 491637, Control_c, 0, 64, 92
1, 491652, Control_c, 0, 64, 92
1, 491666, Control_c, 0, 64, 90
1, 491681, Control_c, 0, 64, 88
1, 491696, Control_c, 0, 64, 87
1, 491755, Control_c, 0, 64, 87
1, 491785, Control_c, 0, 64, 86
1, 491798, Control_c, 0, 64, 85
1, 491813, Control_c, 0, 64, 83
1, 491828, Control_c, 0, 64, 82
1, 491888, Control_c, 0, 64, 81
1, 491903, Control_c, 0, 64, 81
1, 491947, Control_c, 0, 64, 80
1, 491962, Control_c, 0, 64, 78
1, 491977, Control_c, 0, 64, 77
1, 491991, Control_c, 0, 64, 77
1, 492036, Control_c, 0, 64, 76
1, 492051, Control_c, 0, 64, 76
1, 492081, Control_c, 0, 64, 74
1, 492096, Control_c, 0, 64, 73
1, 492111, Control_c, 0, 64, 72
1, 492236, Control_c, 0, 64, 71
1, 492296, Control_c, 0, 64, 71
1, 492311, Control_c, 0, 67, 119
1, 492326, Control_c, 0, 64, 70
1, 492326, Control_c, 0, 67, 102
1, 492340, Control_c, 0, 67, 89
1, 492355, Control_c, 0, 67, 77
1, 492370, Control_c, 0, 64, 70
1, 492370, Control_c, 0, 67, 67
1, 492385, Control_c, 0, 64, 69
1, 492385, Control_c, 0, 67, 54
1, 492400, Control_c, 0, 64, 67
1, 492400, Control_c, 0, 67, 39
1, 492414, Control_c, 0, 64, 67
1, 492414, Control_c, 0, 67, 24
1, 492429, Control_c, 0, 64, 66
1, 492429, Control_c, 0, 67, 12
1, 492444, Control_c, 0, 64, 65
1, 492444, Control_c, 0, 67, 0
1, 492459, Control_c, 0, 64, 64
1, 492474, Control_c, 0, 64, 64
1, 492488, Control_c, 0, 64, 63
1, 492503, Control_c, 0, 64, 63
1, 492518, Control_c, 0, 64, 61
1, 492532, Control_c, 0, 64, 59
1, 492547, Control_c, 0, 64, 58
1, 492592, Control_c, 0, 64, 57
1, 492607, Control_c, 0, 64, 54
1, 492621, Control_c, 0, 64, 53
1, 492636, Control_c, 0, 64, 52
1, 492651, Control_c, 0, 64, 52
1, 492666, Control_c, 0, 64, 50
1, 492681, Control_c, 0, 64, 48
1, 492696, Control_c, 0, 64, 44
1, 492710, Control_c, 0, 64, 43
1, 492725, Control_c, 0, 64, 42
1, 492740, Control_c, 0, 64, 41
1, 492755, Control_c, 0, 64, 39
1, 492770, Control_c, 0, 64, 37
1, 492814, Control_c, 0, 64, 37
1, 492829, Control_c, 0, 64, 34
1, 492844, Control_c, 0, 64, 31
1, 492859, Control_c, 0, 64, 31
1, 493030, Control_c, 0, 64, 31
1, 493074, Control_c, 0, 64, 32
1, 493089, Control_c, 0, 64, 33
1, 493104, Control_c, 0, 64, 33
1, 493119, Control_c, 0, 64, 34
1, 493149, Control_c, 0, 64, 35
1, 493163, Control_c, 0, 64, 37
1, 493178, Control_c, 0, 64, 38
1, 493193, Control_c, 0, 64, 39
1, 493223, Control_c, 0, 64, 39
1, 493237, Control_c, 0, 64, 42
1, 493241, Note_on_c, 0, 58, 38
1, 493252, Control_c, 0, 64, 44
1, 493267, Control_c, 0, 64, 44
1, 493298, Control_c, 0, 64, 45
1, 493312, Control_c, 0, 64, 47
1, 493327, Control_c, 0, 64, 49
1, 493342, Control_c, 0, 64, 50
1, 493356, Control_c, 0, 64, 50
1, 493371, Control_c, 0, 64, 51
1, 493386, Control_c, 0, 64, 52
1, 493401, Control_c, 0, 64, 53
1, 493416, Control_c, 0, 64, 54
1, 493445, Control_c, 0, 64, 54
1, 493460, Control_c, 0, 64, 56
1, 493475, Control_c, 0, 64, 57
1, 493504, Control_c, 0, 64, 58
1, 493519, Control_c, 0, 64, 58
1, 493534, Control_c, 0, 64, 60
1, 493549, Control_c, 0, 64, 61
1, 493551, Note_on_c, 0, 39, 33
1, 493563, Control_c, 0, 64, 61
1, 493578, Control_c, 0, 64, 62
1, 493593, Control_c, 0, 64, 64
1, 493608, Control_c, 0, 64, 66
1, 493623, Control_c, 0, 64, 69
1, 493635, Note_on_c, 0, 63, 55
1, 493637, Control_c, 0, 64, 71
1, 493652, Control_c, 0, 64, 74
1, 493667, Control_c, 0, 64, 79
1, 493683, Control_c, 0, 64, 87
1, 493698, Control_c, 0, 64, 95
1, 493709, Note_off_c, 0, 39, 35
1, 493713, Control_c, 0, 64, 104
1, 493735, Control_c, 0, 64, 127
1, 493763, Note_off_c, 0, 58, 36
1, 493924, Note_on_c, 0, 58, 34
1, 494093, Note_on_c, 0, 55, 39
1, 494113, Note_off_c, 0, 58, 31
1, 494222, Note_on_c, 0, 46, 41
1, 494307, Note_off_c, 0, 55, 46
1, 494348, Note_on_c, 0, 58, 46
1, 494469, Note_on_c, 0, 67, 73
1, 494490, Note_on_c, 0, 55, 38
1, 494587, Note_off_c, 0, 58, 41
1, 494608, Note_off_c, 0, 63, 47
1, 494630, Note_off_c, 0, 46, 40
1, 494643, Note_on_c, 0, 51, 50
1, 494671, Note_on_c, 0, 68, 65
1, 494720, Note_off_c, 0, 67, 57
1, 494768, Note_off_c, 0, 55, 36
1, 494792, Note_on_c, 0, 58, 43
1, 494905, Note_on_c, 0, 55, 49
1, 494950, Note_off_c, 0, 58, 54
1, 495035, Note_on_c, 0, 46, 54
1, 495066, Note_off_c, 0, 55, 35
1, 495125, Note_off_c, 0, 46, 59
1, 495154, Note_on_c, 0, 58, 55
1, 495189, Poly_aftertouch_c, 0, 49, 127
1, 495247, Note_off_c, 0, 58, 62
1, 495253, Note_on_c, 0, 55, 58
1, 495268, Note_on_c, 0, 69, 87
1, 495288, Note_off_c, 0, 55, 64
1, 495299, Note_off_c, 0, 51, 35
1, 495324, Poly_aftertouch_c, 0, 49, 0
1, 495330, Note_off_c, 0, 68, 54
1, 495445, Note_on_c, 0, 39, 57
1, 495485, Control_c, 0, 64, 101
1, 495495, Note_on_c, 0, 70, 84
1, 495500, Control_c, 0, 64, 64
1, 495514, Control_c, 0, 64, 0
1, 495558, Note_off_c, 0, 69, 57
1, 495569, Note_off_c, 0, 39, 64
1, 495573, Control_c, 0, 64, 55
1, 495588, Control_c, 0, 64, 78
1, 495603, Control_c, 0, 64, 127
1, 495693, Note_on_c, 0, 58, 56
1, 495814, Note_on_c, 0, 55, 54
1, 495844, Note_off_c, 0, 58, 39
1, 495921, Note_on_c, 0, 46, 62
1, 495980, Note_off_c, 0, 55, 56
1, 496032, Note_on_c, 0, 58, 54
1, 496034, Note_off_c, 0, 70, 57
1, 496137, Note_on_c, 0, 70, 64
1, 496167, Note_off_c, 0, 70, 67
1, 496174, Note_on_c, 0, 55, 58
1, 496214, Note_on_c, 0, 70, 79
1, 496230, Note_off_c, 0, 58, 36
1, 496286, Note_on_c, 0, 74, 76
1, 496306, Note_off_c, 0, 46, 61
1, 496311, Note_on_c, 0, 51, 64
1, 496374, Note_on_c, 0, 72, 86
1, 496414, Note_off_c, 0, 55, 32
1, 496459, Note_on_c, 0, 58, 51
1, 496556, Note_on_c, 0, 55, 55
1, 496596, Note_off_c, 0, 70, 51
1, 496598, Note_off_c, 0, 74, 62
1, 496657, Note_off_c, 0, 58, 36
1, 496703, Note_on_c, 0, 46, 54
1, 496738, Note_off_c, 0, 55, 58
1, 496833, Note_on_c, 0, 58, 60
1, 496911, Poly_aftertouch_c, 0, 49, 127
1, 496927, Note_off_c, 0, 46, 51
1, 496938, Note_off_c, 0, 58, 61
1, 496946, Note_on_c, 0, 55, 61
1, 496992, Note_off_c, 0, 55, 62
1, 496993, Note_on_c, 0, 70, 90
1, 497030, Note_off_c, 0, 51, 45
1, 497036, Poly_aftertouch_c, 0, 49, 0
1, 497073, Note_off_c, 0, 72, 61
1, 497175, Note_off_c, 0, 70, 62
1, 497199, Note_on_c, 0, 39, 49
1, 497248, Control_c, 0, 64, 114
1, 497259, Note_on_c, 0, 70, 80
1, 497263, Control_c, 0, 64, 69
1, 497277, Control_c, 0, 64, 45
1, 497292, Control_c, 0, 64, 0
1, 497337, Control_c, 0, 64, 52
1, 497352, Control_c, 0, 64, 67
1, 497355, Note_off_c, 0, 39, 63
1, 497367, Control_c, 0, 64, 77
1, 497381, Control_c, 0, 64, 97
1, 497396, Control_c, 0, 64, 127
1, 497481, Note_on_c, 0, 58, 56
1, 497599, Note_on_c, 0, 56, 52
1, 497600, Note_off_c, 0, 58, 55
1, 497691, Note_on_c, 0, 46, 50
1, 497742, Note_off_c, 0, 56, 32
1, 497810, Note_on_c, 0, 58, 42
1, 497942, Note_on_c, 0, 56, 52
1, 497996, Note_off_c, 0, 58, 34
1, 498030, Note_on_c, 0, 50, 49
1, 498088, Note_off_c, 0, 46, 35
1, 498127, Note_off_c, 0, 56, 54
1, 498161, Note_on_c, 0, 58, 42
1, 498294, Note_on_c, 0, 56, 45
1, 498391, Note_off_c, 0, 58, 38
1, 498421, Note_off_c, 0, 56, 60
1, 498424, Note_on_c, 0, 46, 50
1, 498522, Note_off_c, 0, 46, 57
1, 498541, Note_on_c, 0, 58, 48
1, 498641, Note_off_c, 0, 58, 57
1, 498657, Note_on_c, 0, 56, 48
1, 498660, Note_off_c, 0, 50, 39
1, 498687, Note_on_c, 0, 68, 61
1, 498689, Note_off_c, 0, 56, 64
1, 498750, Note_off_c, 0, 70, 53
1, 498808, Note_on_c, 0, 67, 63
1, 498846, Note_off_c, 0, 68, 54
1, 498915, Note_on_c, 0, 39, 47
1, 498923, Control_c, 0, 64, 88
1, 498938, Control_c, 0, 64, 59
1, 498945, Note_off_c, 0, 67, 57
1, 498946, Note_on_c, 0, 65, 55
1, 498953, Control_c, 0, 64, 17
1, 498975, Control_c, 0, 64, 0
1, 499005, Control_c, 0, 64, 25
1, 499018, Note_off_c, 0, 39, 64
1, 499020, Control_c, 0, 64, 54
1, 499035, Control_c, 0, 64, 66
1, 499050, Control_c, 0, 64, 76
1, 499064, Control_c, 0, 64, 96
1, 499079, Control_c, 0, 64, 127
1, 499142, Note_on_c, 0, 58, 56
1, 499253, Note_off_c, 0, 58, 49
1, 499257, Note_on_c, 0, 56, 45
1, 499352, Note_on_c, 0, 46, 41
1, 499358, Note_off_c, 0, 56, 56
1, 499483, Note_on_c, 0, 58, 43
1, 499611, Note_on_c, 0, 56, 44
1, 499660, Note_off_c, 0, 58, 33
1, 499691, Note_on_c, 0, 50, 44
1, 499739, Note_off_c, 0, 46, 39
1, 499801, Note_off_c, 0, 56, 42
1, 499803, Note_off_c, 0, 65, 36
1, 499832, Note_on_c, 0, 58, 39
1, 499948, Note_on_c, 0, 56, 40
1, 500016, Note_off_c, 0, 58, 42
1, 500061, Note_off_c, 0, 56, 59
1, 500082, Note_on_c, 0, 46, 45
1, 500197, Note_off_c, 0, 46, 57
1, 500217, Note_on_c, 0, 58, 50
1, 500303, Note_off_c, 0, 58, 60
1, 500328, Note_off_c, 0, 50, 35
1, 500339, Note_on_c, 0, 56, 52
1, 500378, Note_off_c, 0, 56, 63
1, 500435, Note_on_c, 0, 58, 79
1, 500625, Note_on_c, 0, 39, 46
1, 500695, Control_c, 0, 64, 78
1, 500710, Control_c, 0, 64, 59
1, 500711, Note_on_c, 0, 65, 74
1, 500725, Control_c, 0, 64, 38
1, 500740, Control_c, 0, 64, 33
1, 500755, Control_c, 0, 64, 40
1, 500769, Control_c, 0, 64, 57
1, 500785, Control_c, 0, 64, 66
1, 500786, Note_off_c, 0, 39, 63
1, 500800, Control_c, 0, 64, 74
1, 500815, Control_c, 0, 64, 96
1, 500829, Control_c, 0, 64, 127
1, 500833, Note_off_c, 0, 58, 52
1, 500959, Note_on_c, 0, 58, 52
1, 501060, Note_on_c, 0, 56, 50
1, 501109, Note_off_c, 0, 58, 35
1, 501148, Note_off_c, 0, 56, 60
1, 501154, Note_on_c, 0, 46, 48
1, 501266, Note_on_c, 0, 58, 39
1, 501388, Note_on_c, 0, 68, 77
1, 501393, Note_on_c, 0, 56, 44
1, 501501, Note_off_c, 0, 46, 54
1, 501513, Note_off_c, 0, 58, 31
1, 501550, Note_on_c, 0, 50, 39
1, 501553, Note_off_c, 0, 65, 46
1, 501569, Note_on_c, 0, 72, 72
1, 501654, Note_off_c, 0, 56, 42
1, 501679, Note_on_c, 0, 58, 49
1, 501681, Note_off_c, 0, 68, 54
1, 501776, Note_on_c, 0, 56, 49
1, 501853, Note_off_c, 0, 58, 50
1, 501895, Note_off_c, 0, 56, 63
1, 501903, Note_on_c, 0, 46, 58
1, 502012, Note_off_c, 0, 46, 61
1, 502029, Note_on_c, 0, 58, 55
1, 502082, Note_off_c, 0, 50, 23
1, 502127, Note_off_c, 0, 58, 62
1, 502129, Note_on_c, 0, 70, 81
1, 502139, Note_on_c, 0, 56, 59
1, 502168, Note_off_c, 0, 72, 62
1, 502171, Note_off_c, 0, 56, 66
1, 502268, Note_off_c, 0, 70, 64
1, 502339, Note_on_c, 0, 39, 58
1, 502381, Note_on_c, 0, 70, 79
1, 502386, Control_c, 0, 64, 110
1, 502400, Control_c, 0, 64, 70
1, 502415, Control_c, 0, 64, 48
1, 502430, Control_c, 0, 64, 30
1, 502445, Control_c, 0, 64, 38
1, 502458, Note_off_c, 0, 39, 62
1, 502460, Control_c, 0, 64, 57
1, 502476, Control_c, 0, 64, 69
1, 502490, Control_c, 0, 64, 78
1, 502505, Control_c, 0, 64, 88
1, 502520, Control_c, 0, 64, 99
1, 502535, Control_c, 0, 64, 127
1, 502577, Note_on_c, 0, 61, 60
1, 502669, Note_off_c, 0, 61, 59
1, 502688, Note_on_c, 0, 51, 46
1, 502791, Note_on_c, 0, 49, 73
1, 502823, Control_c, 0, 64, 110
1, 502838, Control_c, 0, 64, 73
1, 502840, Note_off_c, 0, 51, 54
1, 502853, Control_c, 0, 64, 57
1, 502868, Control_c, 0, 64, 49
1, 502883, Control_c, 0, 64, 48
1, 502897, Control_c, 0, 64, 52
1, 502912, Control_c, 0, 64, 59
1, 502927, Control_c, 0, 64, 64
1, 502942, Control_c, 0, 64, 71
1, 502947, Note_on_c, 0, 61, 38
1, 502957, Control_c, 0, 64, 78
1, 502971, Control_c, 0, 64, 86
1, 502986, Control_c, 0, 64, 95
1, 503001, Control_c, 0, 64, 125
1, 503016, Control_c, 0, 64, 127
1, 503059, Note_on_c, 0, 67, 44
1, 503078, Note_on_c, 0, 51, 49
1, 503129, Note_off_c, 0, 61, 57
1, 503142, Note_off_c, 0, 70, 56
1, 503218, Note_off_c, 0, 49, 57
1, 503224, Note_on_c, 0, 68, 61
1, 503230, Note_on_c, 0, 48, 53
1, 503253, Control_c, 0, 64, 88
1, 503269, Control_c, 0, 64, 66
1, 503273, Note_off_c, 0, 51, 30
1, 503277, Note_off_c, 0, 67, 53
1, 503284, Control_c, 0, 64, 50
1, 503299, Control_c, 0, 64, 42
1, 503313, Control_c, 0, 64, 43
1, 503328, Control_c, 0, 64, 48
1, 503343, Control_c, 0, 64, 55
1, 503358, Control_c, 0, 64, 61
1, 503373, Control_c, 0, 64, 64
1, 503387, Control_c, 0, 64, 67
1, 503402, Control_c, 0, 64, 70
1, 503403, Note_on_c, 0, 60, 19
1, 503417, Control_c, 0, 64, 74
1, 503432, Control_c, 0, 64, 78
1, 503446, Control_c, 0, 64, 85
1, 503468, Control_c, 0, 64, 95
1, 503483, Control_c, 0, 64, 110
1, 503498, Control_c, 0, 64, 127
1, 503507, Note_on_c, 0, 51, 46
1, 503508, Note_off_c, 0, 48, 56
1, 503561, Note_off_c, 0, 60, 42
1, 503654, Note_on_c, 0, 47, 48
1, 503676, Control_c, 0, 64, 86
1, 503691, Control_c, 0, 64, 67
1, 503706, Control_c, 0, 64, 61
1, 503720, Control_c, 0, 64, 62
1, 503734, Note_off_c, 0, 51, 36
1, 503735, Control_c, 0, 64, 65
1, 503750, Control_c, 0, 64, 69
1, 503765, Control_c, 0, 64, 74
1, 503780, Control_c, 0, 64, 79
1, 503791, Note_on_c, 0, 59, 37
1, 503794, Control_c, 0, 64, 82
1, 503809, Control_c, 0, 64, 85
1, 503824, Control_c, 0, 64, 91
1, 503839, Control_c, 0, 64, 104
1, 503853, Control_c, 0, 64, 127
1, 503934, Note_on_c, 0, 56, 38
1, 503944, Note_on_c, 0, 65, 51
1, 503965, Note_off_c, 0, 47, 61
1, 503972, Note_off_c, 0, 68, 62
1, 504029, Note_off_c, 0, 59, 41
1, 504172, Note_on_c, 0, 46, 41
1, 504178, Note_off_c, 0, 56, 41
1, 504195, Note_on_c, 0, 63, 44
1, 504232, Control_c, 0, 64, 86
1, 504247, Control_c, 0, 64, 66
1, 504249, Note_off_c, 0, 65, 60
1, 504262, Control_c, 0, 64, 56
1, 504276, Control_c, 0, 64, 50
1, 504291, Control_c, 0, 64, 49
1, 504306, Control_c, 0, 64, 54
1, 504321, Control_c, 0, 64, 60
1, 504336, Control_c, 0, 64, 64
1, 504351, Control_c, 0, 64, 68
1, 504366, Control_c, 0, 64, 74
1, 504372, Note_on_c, 0, 58, 46
1, 504381, Control_c, 0, 64, 80
1, 504396, Control_c, 0, 64, 84
1, 504410, Control_c, 0, 64, 85
1, 504425, Control_c, 0, 64, 86
1, 504440, Control_c, 0, 64, 91
1, 504455, Control_c, 0, 64, 100
1, 504469, Control_c, 0, 64, 110
1, 504484, Control_c, 0, 64, 115
1, 504499, Control_c, 0, 64, 125
1, 504514, Control_c, 0, 64, 127
1, 504516, Note_on_c, 0, 55, 52
1, 504584, Note_off_c, 0, 58, 30
1, 504617, Note_on_c, 0, 51, 48
1, 504655, Note_off_c, 0, 55, 54
1, 504663, Note_off_c, 0, 63, 62
1, 504682, Note_on_c, 0, 65, 56
1, 504709, Note_off_c, 0, 46, 36
1, 504710, Note_on_c, 0, 58, 49
1, 504753, Note_on_c, 0, 63, 68
1, 504753, Note_off_c, 0, 65, 60
1, 504809, Note_on_c, 0, 55, 45
1, 504811, Note_off_c, 0, 63, 62
1, 504825, Note_on_c, 0, 62, 64
1, 504834, Note_off_c, 0, 58, 0
1, 504852, Note_off_c, 0, 51, 37
1, 504893, Note_on_c, 0, 63, 60
1, 504908, Note_off_c, 0, 62, 62
1, 504917, Poly_aftertouch_c, 0, 58, 0
1, 504945, Control_c, 0, 64, 90
1, 504967, Control_c, 0, 64, 68
1, 504977, Note_off_c, 0, 55, 58
1, 504982, Control_c, 0, 64, 55
1, 504995, Note_on_c, 0, 67, 66
1, 504997, Control_c, 0, 64, 45
1, 505007, Note_on_c, 0, 46, 44
1, 505012, Control_c, 0, 64, 46
1, 505027, Control_c, 0, 64, 54
1, 505041, Note_off_c, 0, 63, 59
1, 505041, Control_c, 0, 64, 61
1, 505056, Control_c, 0, 64, 64
1, 505071, Control_c, 0, 64, 66
1, 505086, Control_c, 0, 64, 69
1, 505100, Control_c, 0, 64, 72
1, 505115, Control_c, 0, 64, 75
1, 505130, Control_c, 0, 64, 80
1, 505145, Control_c, 0, 64, 85
1, 505159, Note_off_c, 0, 67, 59
1, 505160, Control_c, 0, 64, 95
1, 505174, Control_c, 0, 64, 127
1, 505215, Note_on_c, 0, 58, 50
1, 505320, Note_on_c, 0, 67, 61
1, 505415, Note_on_c, 0, 56, 45
1, 505426, Control_c, 0, 64, 83
1, 505441, Control_c, 0, 64, 66
1, 505456, Control_c, 0, 64, 55
1, 505471, Control_c, 0, 64, 53
1, 505485, Control_c, 0, 64, 56
1, 505500, Control_c, 0, 64, 61
1, 505502, Note_off_c, 0, 58, 34
1, 505515, Control_c, 0, 64, 64
1, 505530, Control_c, 0, 64, 65
1, 505545, Control_c, 0, 64, 66
1, 505549, Note_on_c, 0, 50, 42
1, 505560, Control_c, 0, 64, 68
1, 505574, Control_c, 0, 64, 70
1, 505589, Control_c, 0, 64, 75
1, 505604, Control_c, 0, 64, 80
1, 505618, Control_c, 0, 64, 85
1, 505633, Control_c, 0, 64, 89
1, 505648, Control_c, 0, 64, 92
1, 505664, Control_c, 0, 64, 97
1, 505679, Control_c, 0, 64, 106
1, 505694, Control_c, 0, 64, 116
1, 505701, Note_off_c, 0, 56, 37
1, 505708, Note_on_c, 0, 58, 44
1, 505709, Control_c, 0, 64, 119
1, 505731, Control_c, 0, 64, 120
1, 505746, Control_c, 0, 64, 127
1, 505958, Note_on_c, 0, 56, 39
1, 505975, Note_off_c, 0, 58, 35
1, 505990, Note_off_c, 0, 46, 42
1, 506041, Note_off_c, 0, 67, 35
1, 506045, Note_on_c, 0, 65, 47
1, 506067, Note_off_c, 0, 56, 53
1, 506071, Note_off_c, 0, 50, 49
1, 506329, Note_on_c, 0, 39, 42
1, 506368, Control_c, 0, 64, 120
1, 506382, Note_off_c, 0, 65, 38
1, 506383, Control_c, 0, 64, 64
1, 506384, Note_on_c, 0, 63, 48
1, 506397, Control_c, 0, 64, 0
1, 506464, Control_c, 0, 64, 45
1, 506479, Control_c, 0, 64, 64
1, 506493, Note_off_c, 0, 39, 57
1, 506494, Control_c, 0, 64, 70
1, 506509, Control_c, 0, 64, 79
1, 506524, Control_c, 0, 64, 89
1, 506539, Control_c, 0, 64, 101
1, 506554, Control_c, 0, 64, 127
1, 506554, Control_c, 0, 67, 13
1, 506569, Control_c, 0, 67, 18
1, 506584, Control_c, 0, 67, 22
1, 506598, Control_c, 0, 67, 29
1, 506613, Control_c, 0, 67, 38
1, 506628, Note_on_c, 0, 58, 44
1, 506628, Control_c, 0, 67, 49
1, 506643, Control_c, 0, 67, 59
1, 506658, Control_c, 0, 67, 67
1, 506672, Control_c, 0, 67, 73
1, 506687, Control_c, 0, 67, 79
1, 506702, Control_c, 0, 67, 89
1, 506715, Note_off_c, 0, 58, 46
1, 506717, Control_c, 0, 67, 99
1, 506732, Control_c, 0, 67, 104
1, 506746, Control_c, 0, 67, 110
1, 506750, Note_on_c, 0, 55, 43
1, 506761, Control_c, 0, 67, 120
1, 506775, Control_c, 0, 67, 127
1, 506860, Note_on_c, 0, 46, 40
1, 506876, Note_off_c, 0, 55, 36
1, 506982, Note_on_c, 0, 58, 31
1, 507069, Note_off_c, 0, 63, 56
1, 507102, Note_on_c, 0, 55, 41
1, 507107, Note_off_c, 0, 58, 37
1, 507224, Note_on_c, 0, 51, 46
1, 507274, Note_off_c, 0, 46, 36
1, 507290, Note_off_c, 0, 55, 36
1, 507335, Note_on_c, 0, 58, 37
1, 507439, Note_on_c, 0, 55, 43
1, 507492, Note_off_c, 0, 58, 34
1, 507549, Note_on_c, 0, 46, 35
1, 507554, Note_off_c, 0, 55, 54
1, 507626, Note_on_c, 0, 58, 39
1, 507743, Note_on_c, 0, 55, 31
1, 507758, Note_off_c, 0, 58, 37
1, 507816, Note_off_c, 0, 46, 37
1, 507877, Note_off_c, 0, 55, 35
1, 507878, Note_on_c, 0, 39, 63
1, 507922, Note_off_c, 0, 39, 62
1, 508009, Note_on_c, 0, 58, 41
1, 508118, Note_on_c, 0, 55, 38
1, 508141, Note_off_c, 0, 58, 38
1, 508220, Note_on_c, 0, 46, 43
1, 508231, Note_off_c, 0, 55, 55
1, 508303, Note_off_c, 0, 51, 28
1, 508345, Note_on_c, 0, 58, 36
1, 508442, Note_off_c, 0, 58, 49
1, 508478, Note_on_c, 0, 55, 41
1, 508581, Note_on_c, 0, 51, 48
1, 508587, Note_off_c, 0, 46, 35
1, 508640, Note_off_c, 0, 55, 36
1, 508725, Note_on_c, 0, 58, 37
1, 508840, Note_on_c, 0, 55, 35
1, 508852, Note_off_c, 0, 58, 37
1, 508968, Note_off_c, 0, 55, 36
1, 508976, Note_on_c, 0, 46, 38
1, 509034, Poly_aftertouch_c, 0, 49, 127
1, 509082, Note_on_c, 0, 58, 48
1, 509161, Note_off_c, 0, 58, 60
1, 509204, Note_on_c, 0, 55, 23
1, 509215, Note_off_c, 0, 46, 35
1, 509240, Note_on_c, 0, 82, 61
1, 509240, Note_off_c, 0, 55, 53
1, 509245, Note_off_c, 0, 51, 18
1, 509254, Note_on_c, 0, 70, 46
1, 509262, Poly_aftertouch_c, 0, 49, 0
1, 509334, Note_off_c, 0, 70, 63
1, 509463, Note_off_c, 0, 82, 63
1, 509512, Note_on_c, 0, 39, 48
1, 509517, Control_c, 0, 64, 120
1, 509532, Control_c, 0, 64, 81
1, 509536, Note_on_c, 0, 87, 69
1, 509542, Note_on_c, 0, 75, 52
1, 509547, Control_c, 0, 64, 65
1, 509562, Control_c, 0, 64, 60
1, 509577, Control_c, 0, 64, 62
1, 509588, Note_off_c, 0, 39, 62
1, 509592, Control_c, 0, 64, 66
1, 509607, Control_c, 0, 64, 72
1, 509621, Control_c, 0, 64, 86
1, 509636, Control_c, 0, 64, 127
1, 509734, Note_on_c, 0, 58, 48
1, 509823, Note_off_c, 0, 75, 52
1, 509851, Note_on_c, 0, 55, 45
1, 509868, Note_off_c, 0, 58, 38
1, 509964, Note_on_c, 0, 46, 46
1, 510009, Note_off_c, 0, 55, 34
1, 510090, Note_on_c, 0, 58, 28
1, 510166, Note_on_c, 0, 91, 66
1, 510176, Note_on_c, 0, 79, 59
1, 510200, Note_on_c, 0, 55, 38
1, 510219, Note_off_c, 0, 87, 63
1, 510224, Note_off_c, 0, 79, 62
1, 510293, Note_off_c, 0, 58, 38
1, 510349, Note_off_c, 0, 46, 36
1, 510354, Note_on_c, 0, 92, 85
1, 510357, Note_on_c, 0, 80, 57
1, 510360, Note_on_c, 0, 51, 51
1, 510392, Note_off_c, 0, 91, 59
1, 510443, Note_off_c, 0, 55, 36
1, 510497, Note_on_c, 0, 58, 49
1, 510582, Note_on_c, 0, 55, 46
1, 510641, Note_off_c, 0, 58, 52
1, 510696, Note_off_c, 0, 55, 62
1, 510709, Note_on_c, 0, 46, 55
1, 510796, Note_off_c, 0, 46, 60
1, 510796, Note_off_c, 0, 51, 0
1, 510828, Poly_aftertouch_c, 0, 49, 127
1, 510828, Note_off_c, 0, 80, 59
1, 510834, Poly_aftertouch_c, 0, 51, 127
1, 510855, Note_on_c, 0, 58, 46
1, 510896, Note_on_c, 0, 93, 86
1, 510907, Note_on_c, 0, 81, 69
1, 510909, Note_on_c, 0, 55, 63
1, 510913, Note_off_c, 0, 58, 61
1, 510938, Note_off_c, 0, 55, 65
1, 510948, Poly_aftertouch_c, 0, 51, 0
1, 510964, Note_off_c, 0, 92, 65
1, 510965, Poly_aftertouch_c, 0, 49, 0
1, 510992, Note_off_c, 0, 81, 59
1, 511100, Note_on_c, 0, 39, 51
1, 511105, Control_c, 0, 64, 85
1, 511119, Control_c, 0, 64, 69
1, 511126, Note_on_c, 0, 94, 91
1, 511134, Control_c, 0, 64, 64
1, 511140, Note_on_c, 0, 82, 55
1, 511149, Control_c, 0, 64, 66
1, 511158, Note_off_c, 0, 39, 62
1, 511164, Control_c, 0, 64, 73
1, 511171, Note_off_c, 0, 93, 56
1, 511179, Control_c, 0, 64, 88
1, 511193, Control_c, 0, 64, 127
1, 511246, Poly_aftertouch_c, 0, 42, 127
1, 511273, Poly_aftertouch_c, 0, 42, 0
1, 511310, Note_on_c, 0, 58, 53
1, 511426, Note_off_c, 0, 82, 54
1, 511439, Note_on_c, 0, 55, 60
1, 511443, Note_off_c, 0, 58, 53
1, 511547, Note_on_c, 0, 46, 53
1, 511550, Note_off_c, 0, 55, 54
1, 511571, Note_off_c, 0, 94, 61
1, 511660, Note_on_c, 0, 58, 50
1, 511738, Note_on_c, 0, 94, 81
1, 511749, Note_on_c, 0, 82, 70
1, 511771, Note_on_c, 0, 55, 54
1, 511781, Note_off_c, 0, 82, 63
1, 511843, Note_off_c, 0, 58, 30
1, 511908, Note_on_c, 0, 51, 57
1, 511945, Note_off_c, 0, 46, 37
1, 511989, Note_on_c, 0, 98, 72
1, 511991, Note_on_c, 0, 86, 64
1, 511997, Note_off_c, 0, 55, 47
1, 512039, Note_on_c, 0, 58, 54
1, 512041, Note_off_c, 0, 94, 62
1, 512042, Note_off_c, 0, 86, 63
1, 512131, Note_on_c, 0, 96, 75
1, 512143, Note_on_c, 0, 84, 64
1, 512161, Note_on_c, 0, 55, 46
1, 512208, Note_off_c, 0, 58, 54
1, 512216, Note_off_c, 0, 98, 66
1, 512287, Note_on_c, 0, 46, 51
1, 512290, Note_off_c, 0, 55, 57
1, 512317, Note_off_c, 0, 84, 62
1, 512417, Note_off_c, 0, 46, 58
1, 512419, Note_on_c, 0, 58, 58
1, 512510, Note_off_c, 0, 58, 62
1, 512524, Note_on_c, 0, 55, 56
1, 512551, Note_on_c, 0, 94, 77
1, 512555, Note_off_c, 0, 55, 63
1, 512577, Note_on_c, 0, 82, 50
1, 512604, Note_off_c, 0, 51, 40
1, 512671, Note_off_c, 0, 82, 53
1, 512682, Note_off_c, 0, 96, 33
1, 512727, Note_on_c, 0, 39, 50
1, 512736, Control_c, 0, 64, 84
1, 512749, Note_off_c, 0, 94, 59
1, 512751, Control_c, 0, 64, 63
1, 512765, Control_c, 0, 64, 52
1, 512780, Control_c, 0, 64, 55
1, 512782, Note_on_c, 0, 82, 64
1, 512795, Control_c, 0, 64, 61
1, 512810, Control_c, 0, 64, 73
1, 512824, Control_c, 0, 64, 110
1, 512839, Control_c, 0, 64, 127
1, 512849, Note_off_c, 0, 39, 60
1, 512906, Note_off_c, 0, 82, 62
1, 512909, Note_on_c, 0, 94, 63
1, 513001, Note_on_c, 0, 96, 65
1, 513019, Note_on_c, 0, 58, 40
1, 513022, Note_off_c, 0, 94, 62
1, 513085, Note_off_c, 0, 96, 61
1, 513088, Note_on_c, 0, 94, 55
1, 513151, Note_on_c, 0, 56, 32
1, 513152, Note_off_c, 0, 94, 62
1, 513162, Note_on_c, 0, 96, 60
1, 513189, Note_off_c, 0, 96, 66
1, 513191, Note_off_c, 0, 58, 33
1, 513221, Note_on_c, 0, 94, 67
1, 513242, Note_on_c, 0, 46, 52
1, 513252, Note_off_c, 0, 94, 64
1, 513272, Note_on_c, 0, 96, 71
1, 513300, Note_off_c, 0, 56, 36
1, 513300, Note_off_c, 0, 96, 67
1, 513315, Note_on_c, 0, 94, 81
1, 513343, Note_off_c, 0, 94, 62
1, 513352, Note_on_c, 0, 58, 48
1, 513362, Note_on_c, 0, 96, 79
1, 513392, Note_off_c, 0, 96, 64
1, 513413, Note_on_c, 0, 94, 82
1, 513440, Note_off_c, 0, 94, 61
1, 513452, Note_on_c, 0, 56, 28
1, 513466, Note_on_c, 0, 96, 83
1, 513496, Note_off_c, 0, 96, 62
1, 513515, Note_on_c, 0, 94, 81
1, 513542, Note_off_c, 0, 94, 64
1, 513562, Note_off_c, 0, 58, 38
1, 513566, Note_off_c, 0, 46, 53
1, 513568, Note_on_c, 0, 50, 54
1, 513568, Note_on_c, 0, 96, 84
1, 513595, Note_off_c, 0, 96, 63
1, 513619, Note_on_c, 0, 94, 79
1, 513643, Note_off_c, 0, 94, 68
1, 513673, Note_on_c, 0, 96, 80
1, 513691, Note_off_c, 0, 56, 40
1, 513698, Note_off_c, 0, 96, 67
1, 513731, Note_on_c, 0, 94, 80
1, 513736, Note_on_c, 0, 58, 45
1, 513756, Note_off_c, 0, 94, 66
1, 513776, Note_on_c, 0, 96, 78
1, 513806, Note_off_c, 0, 96, 63
1, 513837, Note_on_c, 0, 94, 81
1, 513839, Note_on_c, 0, 56, 47
1, 513863, Note_off_c, 0, 94, 66
1, 513887, Note_on_c, 0, 96, 61
1, 513911, Note_off_c, 0, 96, 57
1, 513932, Note_on_c, 0, 94, 75
1, 513970, Note_off_c, 0, 56, 62
1, 513979, Note_off_c, 0, 94, 59
1, 513993, Note_on_c, 0, 46, 55
1, 514016, Note_on_c, 0, 93, 73
1, 514089, Note_off_c, 0, 93, 54
1, 514101, Note_on_c, 0, 94, 75
1, 514177, Note_off_c, 0, 46, 60
1, 514178, Note_off_c, 0, 94, 63
1, 514179, Note_off_c, 0, 58, 53
1, 514200, Note_on_c, 0, 96, 55
1, 514212, Note_on_c, 0, 56, 47
1, 514257, Note_off_c, 0, 50, 40
1, 514271, Note_off_c, 0, 96, 62
1, 514273, Note_on_c, 0, 94, 65
1, 514311, Note_off_c, 0, 56, 62
1, 514391, Note_off_c, 0, 94, 60
1, 514391, Note_on_c, 0, 101, 70
1, 514476, Note_on_c, 0, 98, 71
1, 514504, Note_off_c, 0, 101, 60
1, 514521, Note_on_c, 0, 94, 70
1, 514559, Note_off_c, 0, 98, 61
1, 514569, Note_on_c, 0, 92, 74
1, 514591, Note_off_c, 0, 94, 63
1, 514593, Note_on_c, 0, 89, 69
1, 514605, Note_off_c, 0, 92, 62
1, 514626, Note_off_c, 0, 89, 65
1, 514651, Note_on_c, 0, 86, 54
1, 514701, Note_on_c, 0, 82, 71
1, 514712, Note_on_c, 0, 80, 64
1, 514738, Note_off_c, 0, 86, 64
1, 514754, Note_off_c, 0, 82, 66
1, 514761, Note_on_c, 0, 77, 59
1, 514772, Note_off_c, 0, 80, 66
1, 514799, Note_on_c, 0, 74, 73
1, 514808, Note_off_c, 0, 77, 64
1, 514868, Note_off_c, 0, 74, 58
1, 514870, Note_on_c, 0, 70, 61
1, 514923, Note_on_c, 0, 68, 65
1, 514960, Note_off_c, 0, 70, 60
1, 514993, Note_off_c, 0, 68, 60
1, 515010, Note_on_c, 0, 67, 55
1, 515136, Note_off_c, 0, 67, 60
1, 515161, Note_on_c, 0, 65, 55
1, 515172, Note_on_c, 0, 46, 39
1, 515204, Control_c, 0, 64, 103
1, 515219, Control_c, 0, 64, 75
1, 515234, Control_c, 0, 64, 63
1, 515249, Control_c, 0, 64, 63
1, 515264, Control_c, 0, 64, 64
1, 515279, Control_c, 0, 64, 67
1, 515294, Control_c, 0, 64, 71
1, 515309, Control_c, 0, 64, 78
1, 515324, Control_c, 0, 64, 86
1, 515337, Note_on_c, 0, 58, 51
1, 515338, Control_c, 0, 64, 92
1, 515353, Control_c, 0, 64, 94
1, 515368, Control_c, 0, 64, 95
1, 515383, Control_c, 0, 64, 97
1, 515398, Control_c, 0, 64, 99
1, 515413, Control_c, 0, 64, 100
1, 515428, Control_c, 0, 64, 101
1, 515449, Control_c, 0, 64, 108
1, 515464, Control_c, 0, 64, 127
1, 515476, Note_on_c, 0, 56, 51
1, 515526, Note_off_c, 0, 58, 29
1, 515599, Note_off_c, 0, 46, 41
1, 515607, Note_on_c, 0, 50, 51
1, 515648, Note_off_c, 0, 56, 52
1, 515745, Note_on_c, 0, 58, 53
1, 515761, Note_off_c, 0, 65, 53
1, 515848, Note_on_c, 0, 56, 46
1, 515939, Control_c, 0, 67, 118
1, 515954, Control_c, 0, 67, 105
1, 515958, Note_off_c, 0, 58, 36
1, 515969, Control_c, 0, 67, 93
1, 515981, Note_on_c, 0, 46, 52
1, 515983, Control_c, 0, 67, 86
1, 515998, Note_off_c, 0, 56, 54
1, 515998, Control_c, 0, 67, 81
1, 516013, Control_c, 0, 67, 76
1, 516028, Control_c, 0, 67, 70
1, 516044, Control_c, 0, 67, 64
1, 516059, Control_c, 0, 67, 59
1, 516073, Control_c, 0, 67, 55
1, 516088, Control_c, 0, 67, 52
1, 516103, Control_c, 0, 67, 49
1, 516118, Control_c, 0, 67, 44
1, 516132, Control_c, 0, 67, 37
1, 516137, Note_off_c, 0, 46, 58
1, 516146, Note_on_c, 0, 58, 51
1, 516147, Control_c, 0, 67, 32
1, 516162, Control_c, 0, 67, 26
1, 516177, Control_c, 0, 67, 22
1, 516199, Control_c, 0, 67, 17
1, 516214, Control_c, 0, 67, 9
1, 516229, Control_c, 0, 67, 0
1, 516267, Note_off_c, 0, 58, 55
1, 516277, Note_on_c, 0, 56, 56
1, 516325, Note_off_c, 0, 50, 38
1, 516330, Note_off_c, 0, 56, 63
1, 516376, Note_on_c, 0, 58, 84
1, 516567, Note_on_c, 0, 39, 56
1, 516659, Control_c, 0, 64, 84
1, 516673, Control_c, 0, 64, 64
1, 516677, Note_on_c, 0, 65, 83
1, 516688, Control_c, 0, 64, 41
1, 516703, Control_c, 0, 64, 0
1, 516732, Control_c, 0, 64, 31
1, 516747, Control_c, 0, 64, 57
1, 516748, Note_off_c, 0, 58, 56
1, 516762, Control_c, 0, 64, 67
1, 516777, Control_c, 0, 64, 82
1, 516778, Note_off_c, 0, 39, 64
1, 516792, Control_c, 0, 64, 127
1, 517051, Poly_aftertouch_c, 0, 57, 127
1, 517085, Poly_aftertouch_c, 0, 57, 0
1, 517151, Note_on_c, 0, 46, 50
1, 517307, Note_on_c, 0, 68, 60
1, 517316, Note_on_c, 0, 58, 49
1, 517327, Note_off_c, 0, 65, 60
1, 517414, Note_off_c, 0, 68, 62
1, 517418, Note_on_c, 0, 72, 66
1, 517432, Note_on_c, 0, 56, 54
1, 517471, Note_off_c, 0, 72, 65
1, 517515, Note_on_c, 0, 70, 77
1, 517533, Note_off_c, 0, 58, 34
1, 517544, Note_on_c, 0, 50, 55
1, 517600, Note_on_c, 0, 77, 73
1, 517614, Note_off_c, 0, 46, 50
1, 517619, Note_off_c, 0, 70, 62
1, 517625, Note_off_c, 0, 56, 51
1, 517680, Note_on_c, 0, 58, 48
1, 517708, Note_on_c, 0, 80, 88
1, 517737, Note_off_c, 0, 77, 63
1, 517775, Note_on_c, 0, 56, 56
1, 517795, Note_on_c, 0, 84, 92
1, 517804, Note_off_c, 0, 80, 65
1, 517809, Poly_aftertouch_c, 0, 82, 127
1, 517825, Poly_aftertouch_c, 0, 82, 0
1, 517845, Note_off_c, 0, 84, 64
1, 517881, Note_on_c, 0, 82, 88
1, 517919, Note_off_c, 0, 58, 34
1, 517935, Note_off_c, 0, 56, 62
1, 517943, Note_on_c, 0, 46, 56
1, 517977, Note_on_c, 0, 89, 76
1, 517997, Note_on_c, 0, 90, 53
1, 517998, Note_off_c, 0, 90, 127
1, 518015, Note_off_c, 0, 82, 62
1, 518092, Note_on_c, 0, 92, 93
1, 518113, Note_on_c, 0, 58, 62
1, 518146, Note_off_c, 0, 89, 63
1, 518205, Note_on_c, 0, 96, 83
1, 518238, Note_off_c, 0, 58, 62
1, 518242, Note_off_c, 0, 92, 65
1, 518253, Note_on_c, 0, 56, 61
1, 518336, Note_on_c, 0, 94, 101
1, 518343, Note_off_c, 0, 56, 63
1, 518364, Note_off_c, 0, 50, 38
1, 518378, Note_off_c, 0, 96, 64
1, 518394, Note_off_c, 0, 46, 63
1, 518546, Note_off_c, 0, 94, 64
1, 518577, Note_on_c, 0, 39, 51
1, 518684, Note_on_c, 0, 94, 95
1, 518692, Note_on_c, 0, 91, 71
1, 518740, Control_c, 0, 64, 83
1, 518755, Control_c, 0, 64, 62
1, 518770, Control_c, 0, 64, 30
1, 518785, Control_c, 0, 64, 29
1, 518799, Control_c, 0, 64, 41
1, 518814, Control_c, 0, 64, 58
1, 518829, Control_c, 0, 64, 68
1, 518844, Control_c, 0, 64, 85
1, 518859, Control_c, 0, 64, 127
1, 518871, Note_on_c, 0, 46, 57
1, 518913, Note_off_c, 0, 39, 60
1, 518957, Note_off_c, 0, 91, 64
1, 519007, Note_on_c, 0, 51, 68
1, 519014, Note_off_c, 0, 46, 62
1, 519110, Note_off_c, 0, 51, 63
1, 519124, Note_on_c, 0, 55, 59
1, 519258, Note_off_c, 0, 55, 62
1, 519262, Note_on_c, 0, 58, 62
1, 519410, Note_on_c, 0, 63, 53
1, 519467, Note_on_c, 0, 91, 73
1, 519469, Note_on_c, 0, 82, 62
1, 519556, Note_off_c, 0, 82, 59
1, 519615, Note_off_c, 0, 91, 60
1, 519623, Note_on_c, 0, 67, 55
1, 519722, Note_on_c, 0, 82, 60
1, 519734, Note_on_c, 0, 91, 76
1, 519774, Note_off_c, 0, 94, 64
1, 519807, Note_off_c, 0, 82, 64
1, 519900, Note_on_c, 0, 84, 71
1, 519914, Note_on_c, 0, 92, 85
1, 519975, Note_off_c, 0, 84, 64
1, 519984, Note_off_c, 0, 91, 59
1, 520068, Note_on_c, 0, 82, 75
1, 520071, Note_on_c, 0, 91, 86
1, 520129, Note_off_c, 0, 67, 57
1, 520135, Note_off_c, 0, 82, 63
1, 520190, Note_off_c, 0, 63, 60
1, 520194, Note_off_c, 0, 92, 59
1, 520205, Note_on_c, 0, 90, 73
1, 520218, Note_on_c, 0, 81, 77
1, 520220, Note_off_c, 0, 58, 63
1, 520242, Note_off_c, 0, 91, 61
1, 520307, Note_off_c, 0, 81, 64
1, 520386, Note_on_c, 0, 91, 81
1, 520388, Note_off_c, 0, 90, 39
1, 520401, Note_on_c, 0, 82, 69
1, 520463, Note_off_c, 0, 82, 63
1, 520478, Note_off_c, 0, 91, 65
1, 520580, Note_on_c, 0, 44, 48
1, 520653, Control_c, 0, 64, 93
1, 520666, Note_on_c, 0, 94, 77
1, 520668, Control_c, 0, 64, 69
1, 520676, Note_on_c, 0, 86, 58
1, 520683, Control_c, 0, 64, 57
1, 520705, Control_c, 0, 64, 50
1, 520719, Control_c, 0, 64, 52
1, 520734, Control_c, 0, 64, 63
1, 520749, Control_c, 0, 64, 70
1, 520764, Control_c, 0, 64, 80
1, 520779, Control_c, 0, 64, 97
1, 520793, Control_c, 0, 64, 127
1, 520795, Note_off_c, 0, 86, 62
1, 520813, Note_off_c, 0, 94, 63
1, 520871, Note_off_c, 0, 44, 55
1, 520911, Note_on_c, 0, 92, 76
1, 520919, Note_on_c, 0, 53, 46
1, 520919, Note_on_c, 0, 84, 62
1, 520957, Note_off_c, 0, 84, 60
1, 520963, Note_off_c, 0, 92, 62
1, 521092, Note_on_c, 0, 56, 53
1, 521101, Note_off_c, 0, 53, 47
1, 521103, Note_on_c, 0, 89, 65
1, 521117, Note_on_c, 0, 80, 52
1, 521145, Note_off_c, 0, 80, 51
1, 521154, Note_off_c, 0, 89, 52
1, 521286, Note_on_c, 0, 84, 59
1, 521287, Note_off_c, 0, 56, 63
1, 521291, Note_on_c, 0, 60, 42
1, 521309, Note_on_c, 0, 77, 38
1, 521318, Note_off_c, 0, 84, 67
1, 521348, Note_off_c, 0, 77, 55
1, 521513, Control_c, 0, 64, 111
1, 521517, Note_on_c, 0, 82, 57
1, 521524, Note_on_c, 0, 74, 47
1, 521527, Note_on_c, 0, 65, 36
1, 521528, Control_c, 0, 64, 90
1, 521543, Control_c, 0, 64, 82
1, 521558, Control_c, 0, 64, 82
1, 521573, Control_c, 0, 64, 85
1, 521588, Control_c, 0, 64, 90
1, 521598, Note_off_c, 0, 60, 36
1, 521602, Control_c, 0, 64, 91
1, 521613, Note_off_c, 0, 82, 64
1, 521620, Note_off_c, 0, 74, 56
1, 521632, Control_c, 0, 64, 92
1, 521648, Control_c, 0, 64, 96
1, 521663, Control_c, 0, 64, 122
1, 521678, Control_c, 0, 64, 127
1, 521745, Note_on_c, 0, 80, 49
1, 521756, Note_on_c, 0, 72, 46
1, 521827, Note_off_c, 0, 72, 60
1, 521843, Note_off_c, 0, 80, 60
1, 521957, Note_on_c, 0, 79, 60
1, 521959, Control_c, 0, 64, 95
1, 521971, Note_on_c, 0, 71, 51
1, 521974, Control_c, 0, 64, 84
1, 522004, Control_c, 0, 64, 90
1, 522018, Control_c, 0, 64, 110
1, 522033, Note_off_c, 0, 71, 61
1, 522033, Control_c, 0, 64, 127
1, 522136, Note_on_c, 0, 80, 74
1, 522140, Note_off_c, 0, 65, 49
1, 522149, Note_on_c, 0, 72, 56
1, 522181, Note_off_c, 0, 72, 66
1, 522316, Note_on_c, 0, 77, 68
1, 522326, Note_on_c, 0, 68, 57
1, 522353, Note_off_c, 0, 79, 24
1, 522354, Note_off_c, 0, 80, 57
1, 522494, Note_off_c, 0, 68, 57
1, 522528, Note_on_c, 0, 46, 33
1, 522555, Note_off_c, 0, 77, 49
1, 522566, Note_on_c, 0, 75, 61
1, 522573, Note_on_c, 0, 67, 49
1, 522574, Control_c, 0, 64, 93
1, 522589, Control_c, 0, 64, 63
1, 522604, Control_c, 0, 64, 15
1, 522619, Control_c, 0, 64, 0
1, 522708, Control_c, 0, 64, 11
1, 522722, Control_c, 0, 64, 31
1, 522737, Control_c, 0, 64, 50
1, 522752, Control_c, 0, 64, 61
1, 522767, Control_c, 0, 64, 68
1, 522782, Control_c, 0, 64, 76
1, 522782, Note_off_c, 0, 46, 42
1, 522797, Control_c, 0, 64, 94
1, 522806, Note_on_c, 0, 55, 48
1, 522812, Control_c, 0, 64, 127
1, 522841, Note_off_c, 0, 55, 56
1, 523029, Note_on_c, 0, 58, 42
1, 523064, Note_off_c, 0, 67, 55
1, 523070, Note_off_c, 0, 75, 56
1, 523099, Note_off_c, 0, 58, 54
1, 523288, Note_on_c, 0, 63, 34
1, 523429, Note_on_c, 0, 67, 33
1, 523432, Note_on_c, 0, 75, 47
1, 523646, Note_on_c, 0, 77, 59
1, 523649, Note_on_c, 0, 68, 47
1, 523692, Note_off_c, 0, 75, 59
1, 523711, Note_off_c, 0, 67, 32
1, 523813, Note_off_c, 0, 68, 37
1, 523823, Note_on_c, 0, 75, 66
1, 523834, Note_on_c, 0, 67, 60
1, 523874, Note_off_c, 0, 77, 59
1, 523875, Note_off_c, 0, 67, 62
1, 523909, Note_off_c, 0, 75, 62
1, 523962, Note_on_c, 0, 66, 67
1, 523968, Note_on_c, 0, 74, 67
1, 524022, Note_off_c, 0, 74, 62
1, 524028, Note_off_c, 0, 66, 59
1, 524090, Note_on_c, 0, 75, 78
1, 524096, Note_on_c, 0, 67, 63
1, 524108, Note_off_c, 0, 63, 56
1, 524183, Note_off_c, 0, 67, 57
1, 524218, Note_off_c, 0, 75, 62
1, 524224, Note_on_c, 0, 66, 55
1, 524227, Note_on_c, 0, 69, 73
1, 524300, Note_off_c, 0, 66, 53
1, 524356, Note_on_c, 0, 70, 75
1, 524368, Note_on_c, 0, 67, 61
1, 524371, Note_off_c, 0, 69, 59
1, 524451, Note_off_c, 0, 67, 57
1, 524474, Note_off_c, 0, 70, 59
1, 524545, Note_on_c, 0, 46, 31
1, 524583, Control_c, 0, 64, 88
1, 524590, Note_on_c, 0, 71, 59
1, 524598, Control_c, 0, 64, 67
1, 524600, Note_on_c, 0, 68, 50
1, 524612, Control_c, 0, 64, 56
1, 524627, Control_c, 0, 64, 53
1, 524642, Control_c, 0, 64, 56
1, 524657, Control_c, 0, 64, 61
1, 524672, Control_c, 0, 64, 65
1, 524687, Control_c, 0, 64, 68
1, 524701, Control_c, 0, 64, 71
1, 524716, Control_c, 0, 64, 77
1, 524731, Control_c, 0, 64, 85
1, 524740, Note_off_c, 0, 71, 59
1, 524746, Control_c, 0, 64, 92
1, 524761, Control_c, 0, 64, 99
1, 524770, Note_on_c, 0, 70, 54
1, 524776, Control_c, 0, 64, 105
1, 524779, Note_on_c, 0, 65, 52
1, 524788, Note_off_c, 0, 46, 36
1, 524791, Control_c, 0, 64, 116
1, 524793, Note_off_c, 0, 68, 58
1, 524805, Control_c, 0, 64, 127
1, 524888, Note_on_c, 0, 53, 45
1, 524908, Note_on_c, 0, 72, 64
1, 524916, Note_on_c, 0, 68, 62
1, 524931, Note_off_c, 0, 70, 36
1, 524946, Note_off_c, 0, 65, 39
1, 524973, Note_off_c, 0, 53, 54
1, 524985, Note_off_c, 0, 72, 58
1, 525026, Note_on_c, 0, 70, 71
1, 525026, Note_off_c, 0, 68, 60
1, 525050, Note_on_c, 0, 65, 59
1, 525083, Note_off_c, 0, 65, 62
1, 525086, Note_off_c, 0, 70, 58
1, 525134, Note_on_c, 0, 56, 43
1, 525140, Note_on_c, 0, 68, 65
1, 525145, Note_on_c, 0, 73, 70
1, 525260, Note_on_c, 0, 70, 75
1, 525264, Note_off_c, 0, 68, 58
1, 525273, Note_off_c, 0, 73, 57
1, 525279, Note_on_c, 0, 65, 51
1, 525316, Note_off_c, 0, 65, 60
1, 525319, Note_off_c, 0, 70, 58
1, 525345, Note_on_c, 0, 62, 44
1, 525363, Note_on_c, 0, 74, 69
1, 525378, Note_on_c, 0, 68, 69
1, 525444, Note_off_c, 0, 56, 43
1, 525460, Note_off_c, 0, 74, 62
1, 525466, Note_on_c, 0, 70, 70
1, 525479, Note_off_c, 0, 68, 59
1, 525485, Note_on_c, 0, 65, 58
1, 525522, Note_off_c, 0, 65, 59
1, 525567, Note_on_c, 0, 75, 77
1, 525585, Note_on_c, 0, 68, 67
1, 525606, Note_off_c, 0, 70, 25
1, 525622, Note_off_c, 0, 62, 40
1, 525675, Note_on_c, 0, 70, 76
1, 525682, Note_off_c, 0, 68, 55
1, 525683, Note_on_c, 0, 65, 63
1, 525688, Note_off_c, 0, 75, 62
1, 525729, Note_off_c, 0, 65, 52
1, 525778, Note_on_c, 0, 76, 85
1, 525788, Note_on_c, 0, 68, 70
1, 525792, Control_c, 0, 64, 101
1, 525795, Note_off_c, 0, 70, 35
1, 525807, Control_c, 0, 64, 83
1, 525822, Control_c, 0, 64, 78
1, 525837, Control_c, 0, 64, 80
1, 525852, Control_c, 0, 64, 87
1, 525866, Control_c, 0, 64, 104
1, 525881, Control_c, 0, 64, 127
1, 525887, Note_on_c, 0, 70, 80
1, 525895, Note_off_c, 0, 76, 61
1, 525909, Note_on_c, 0, 65, 62
1, 525914, Note_off_c, 0, 68, 60
1, 525945, Note_off_c, 0, 70, 61
1, 526147, Note_on_c, 0, 79, 65
1, 526176, Note_on_c, 0, 70, 53
1, 526199, Control_c, 0, 64, 82
1, 526214, Control_c, 0, 64, 65
1, 526229, Control_c, 0, 64, 51
1, 526236, Note_off_c, 0, 65, 26
1, 526244, Control_c, 0, 64, 40
1, 526258, Control_c, 0, 64, 37
1, 526273, Control_c, 0, 64, 41
1, 526288, Control_c, 0, 64, 53
1, 526303, Control_c, 0, 64, 60
1, 526318, Control_c, 0, 64, 63
1, 526332, Control_c, 0, 64, 64
1, 526347, Control_c, 0, 64, 66
1, 526362, Control_c, 0, 64, 71
1, 526377, Control_c, 0, 64, 78
1, 526392, Control_c, 0, 64, 89
1, 526407, Control_c, 0, 64, 127
1, 526483, Note_off_c, 0, 70, 62
1, 526485, Note_off_c, 0, 79, 50
1, 526750, Note_on_c, 0, 79, 54
1, 526761, Note_on_c, 0, 70, 39
1, 526845, Control_c, 0, 64, 92
1, 526860, Control_c, 0, 64, 74
1, 526875, Control_c, 0, 64, 64
1, 526889, Control_c, 0, 64, 60
1, 526904, Control_c, 0, 64, 58
1, 526934, Control_c, 0, 64, 60
1, 526949, Control_c, 0, 64, 62
1, 526963, Control_c, 0, 64, 65
1, 526978, Control_c, 0, 64, 68
1, 526994, Control_c, 0, 64, 72
1, 527008, Control_c, 0, 64, 77
1, 527023, Control_c, 0, 64, 83
1, 527038, Control_c, 0, 64, 89
1, 527053, Control_c, 0, 64, 98
1, 527068, Control_c, 0, 64, 109
1, 527082, Control_c, 0, 64, 127
1, 527163, Note_off_c, 0, 70, 36
1, 527291, Control_c, 0, 67, 9
1, 527305, Control_c, 0, 67, 22
1, 527320, Control_c, 0, 67, 32
1, 527335, Control_c, 0, 67, 37
1, 527350, Control_c, 0, 67, 41
1, 527365, Control_c, 0, 67, 44
1, 527379, Control_c, 0, 67, 48
1, 527394, Control_c, 0, 67, 55
1, 527409, Control_c, 0, 67, 65
1, 527431, Control_c, 0, 67, 77
1, 527446, Control_c, 0, 67, 89
1, 527461, Control_c, 0, 67, 99
1, 527476, Control_c, 0, 67, 110
1, 527491, Control_c, 0, 67, 123
1, 527505, Control_c, 0, 67, 127
1, 527766, Note_on_c, 0, 77, 47
1, 527784, Note_on_c, 0, 68, 33
1, 527889, Note_off_c, 0, 79, 43
1, 528019, Note_off_c, 0, 68, 40
1, 528088, Note_on_c, 0, 39, 34
1, 528147, Note_off_c, 0, 77, 29
1, 528157, Control_c, 0, 64, 91
1, 528164, Note_on_c, 0, 75, 47
1, 528172, Control_c, 0, 64, 69
1, 528189, Note_on_c, 0, 67, 30
1, 528194, Control_c, 0, 64, 62
1, 528209, Control_c, 0, 64, 60
1, 528224, Control_c, 0, 64, 62
1, 528239, Control_c, 0, 64, 67
1, 528254, Control_c, 0, 64, 78
1, 528256, Note_off_c, 0, 39, 55
1, 528268, Control_c, 0, 64, 127
1, 528431, Note_on_c, 0, 58, 31
1, 528532, Note_off_c, 0, 58, 39
1, 528552, Note_on_c, 0, 55, 37
1, 528646, Note_on_c, 0, 46, 39
1, 528690, Note_off_c, 0, 55, 36
1, 528730, Note_off_c, 0, 75, 57
1, 528746, Note_off_c, 0, 67, 48
1, 528758, Note_on_c, 0, 58, 43
1, 528866, Note_on_c, 0, 55, 27
1, 528880, Note_off_c, 0, 58, 38
1, 529001, Note_on_c, 0, 51, 44
1, 529054, Note_off_c, 0, 55, 44
1, 529113, Note_on_c, 0, 58, 32
1, 529134, Note_off_c, 0, 46, 35
1, 529208, Note_off_c, 0, 58, 47
1, 529245, Note_on_c, 0, 55, 33
1, 529325, Note_on_c, 0, 46, 44
1, 529344, Note_off_c, 0, 55, 54
1, 529431, Note_on_c, 0, 58, 36
1, 529502, Note_off_c, 0, 58, 57
1, 529522, Note_on_c, 0, 55, 35
1, 529599, Note_off_c, 0, 55, 55
1, 529627, Note_on_c, 0, 39, 60
1, 529700, Note_off_c, 0, 46, 34
1, 529715, Note_off_c, 0, 39, 58
1, 529775, Note_on_c, 0, 58, 41
1, 529820, Note_off_c, 0, 58, 56
1, 529848, Note_on_c, 0, 55, 38
1, 529947, Note_on_c, 0, 46, 45
1, 529984, Note_off_c, 0, 55, 35
1, 530032, Note_off_c, 0, 51, 23
1, 530077, Note_on_c, 0, 58, 36
1, 530157, Note_off_c, 0, 58, 49
1, 530191, Note_on_c, 0, 55, 29
1, 530303, Note_on_c, 0, 51, 45
1, 530374, Note_off_c, 0, 46, 36
1, 530392, Note_off_c, 0, 55, 42
1, 530438, Note_on_c, 0, 58, 40
1, 530499, Control_c, 0, 67, 124
1, 530514, Control_c, 0, 67, 118
1, 530528, Control_c, 0, 67, 112
1, 530543, Note_on_c, 0, 55, 37
1, 530543, Control_c, 0, 67, 104
1, 530558, Control_c, 0, 67, 93
1, 530573, Control_c, 0, 67, 79
1, 530584, Note_off_c, 0, 58, 33
1, 530588, Control_c, 0, 67, 65
1, 530602, Control_c, 0, 67, 53
1, 530617, Control_c, 0, 67, 43
1, 530632, Control_c, 0, 67, 34
1, 530647, Control_c, 0, 67, 24
1, 530661, Control_c, 0, 67, 14
1, 530675, Note_off_c, 0, 55, 55
1, 530676, Control_c, 0, 67, 0
1, 530688, Note_on_c, 0, 46, 38
1, 530800, Note_on_c, 0, 58, 43
1, 530834, Note_off_c, 0, 46, 47
1, 530854, Note_off_c, 0, 58, 59
1, 530876, Note_on_c, 0, 55, 58
1, 530905, Note_off_c, 0, 51, 57
1, 530907, Note_off_c, 0, 55, 64
1, 530945, Note_on_c, 0, 63, 85
1, 531110, Note_on_c, 0, 39, 52
1, 531188, Control_c, 0, 64, 99
1, 531203, Control_c, 0, 64, 71
1, 531218, Control_c, 0, 64, 57
1, 531233, Control_c, 0, 64, 39
1, 531234, Note_on_c, 0, 67, 80
1, 531248, Control_c, 0, 64, 35
1, 531263, Control_c, 0, 64, 44
1, 531277, Control_c, 0, 64, 57
1, 531292, Control_c, 0, 64, 64
1, 531297, Note_off_c, 0, 39, 63
1, 531307, Control_c, 0, 64, 69
1, 531322, Control_c, 0, 64, 82
1, 531337, Control_c, 0, 64, 127
1, 531366, Note_off_c, 0, 63, 60
1, 531484, Note_on_c, 0, 61, 38
1, 531565, Note_on_c, 0, 55, 52
1, 531598, Note_off_c, 0, 61, 38
1, 531685, Note_on_c, 0, 46, 54
1, 531706, Note_off_c, 0, 55, 50
1, 531811, Note_on_c, 0, 61, 42
1, 531914, Note_on_c, 0, 68, 87
1, 531938, Note_on_c, 0, 55, 45
1, 532052, Note_off_c, 0, 67, 45
1, 532063, Note_off_c, 0, 61, 37
1, 532077, Note_on_c, 0, 51, 53
1, 532087, Note_off_c, 0, 46, 37
1, 532092, Note_on_c, 0, 70, 90
1, 532165, Note_off_c, 0, 55, 50
1, 532213, Note_on_c, 0, 61, 48
1, 532231, Note_off_c, 0, 68, 51
1, 532320, Note_on_c, 0, 55, 54
1, 532399, Note_off_c, 0, 51, 36
1, 532419, Note_off_c, 0, 61, 37
1, 532445, Note_on_c, 0, 46, 68
1, 532468, Note_off_c, 0, 55, 62
1, 532517, Note_off_c, 0, 46, 63
1, 532582, Note_on_c, 0, 61, 52
1, 532628, Note_off_c, 0, 61, 61
1, 532641, Note_on_c, 0, 72, 93
1, 532664, Note_on_c, 0, 55, 65
1, 532701, Note_off_c, 0, 55, 65
1, 532702, Note_off_c, 0, 70, 62
1, 532836, Note_on_c, 0, 39, 62
1, 532879, Control_c, 0, 64, 92
1, 532881, Note_on_c, 0, 73, 94
1, 532894, Control_c, 0, 64, 64
1, 532909, Control_c, 0, 64, 28
1, 532923, Control_c, 0, 64, 0
1, 532938, Control_c, 0, 64, 17
1, 532941, Note_off_c, 0, 72, 55
1, 532952, Note_off_c, 0, 39, 64
1, 532953, Control_c, 0, 64, 50
1, 532968, Control_c, 0, 64, 63
1, 532983, Control_c, 0, 64, 72
1, 532997, Control_c, 0, 64, 89
1, 533012, Control_c, 0, 64, 127
1, 533078, Note_on_c, 0, 61, 61
1, 533169, Note_off_c, 0, 61, 55
1, 533172, Note_on_c, 0, 55, 52
1, 533262, Note_on_c, 0, 46, 62
1, 533303, Note_off_c, 0, 55, 53
1, 533424, Note_on_c, 0, 61, 39
1, 533501, Note_on_c, 0, 70, 82
1, 533548, Note_on_c, 0, 55, 45
1, 533587, Note_off_c, 0, 73, 57
1, 533593, Note_off_c, 0, 61, 29
1, 533612, Control_c, 0, 64, 103
1, 533628, Control_c, 0, 64, 77
1, 533643, Control_c, 0, 64, 67
1, 533658, Control_c, 0, 64, 65
1, 533672, Control_c, 0, 64, 68
1, 533674, Note_on_c, 0, 67, 75
1, 533687, Control_c, 0, 64, 75
1, 533699, Note_on_c, 0, 51, 50
1, 533702, Control_c, 0, 64, 84
1, 533717, Control_c, 0, 64, 93
1, 533721, Note_off_c, 0, 46, 47
1, 533731, Control_c, 0, 64, 101
1, 533746, Control_c, 0, 64, 112
1, 533760, Control_c, 0, 64, 127
1, 533803, Note_on_c, 0, 61, 61
1, 533816, Note_off_c, 0, 70, 60
1, 533829, Note_off_c, 0, 55, 35
1, 533906, Note_off_c, 0, 61, 49
1, 533921, Note_off_c, 0, 51, 55
1, 533921, Note_on_c, 0, 55, 56
1, 534002, Note_on_c, 0, 46, 57
1, 534018, Note_off_c, 0, 55, 54
1, 534068, Note_off_c, 0, 46, 61
1, 534125, Note_on_c, 0, 51, 22
1, 534133, Note_on_c, 0, 61, 52
1, 534204, Note_off_c, 0, 51, 40
1, 534209, Note_off_c, 0, 61, 58
1, 534233, Note_on_c, 0, 55, 51
1, 534235, Note_off_c, 0, 67, 62
1, 534253, Note_on_c, 0, 63, 85
1, 534285, Note_off_c, 0, 55, 65
1, 534452, Note_on_c, 0, 44, 50
1, 534519, Note_on_c, 0, 65, 75
1, 534525, Control_c, 0, 64, 116
1, 534540, Control_c, 0, 64, 69
1, 534555, Control_c, 0, 64, 36
1, 534569, Control_c, 0, 64, 0
1, 534570, Note_off_c, 0, 63, 53
1, 534629, Control_c, 0, 64, 47
1, 534643, Control_c, 0, 64, 63
1, 534652, Note_off_c, 0, 44, 64
1, 534658, Control_c, 0, 64, 68
1, 534673, Control_c, 0, 64, 73
1, 534688, Control_c, 0, 64, 83
1, 534702, Control_c, 0, 64, 101
1, 534717, Control_c, 0, 64, 127
1, 534739, Note_on_c, 0, 60, 54
1, 534848, Note_on_c, 0, 56, 39
1, 534878, Note_off_c, 0, 60, 50
1, 534936, Note_on_c, 0, 48, 51
1, 534989, Note_off_c, 0, 56, 34
1, 535072, Note_on_c, 0, 60, 36
1, 535177, Note_on_c, 0, 56, 49
1, 535238, Note_off_c, 0, 60, 45
1, 535293, Note_on_c, 0, 51, 50
1, 535299, Note_off_c, 0, 48, 35
1, 535349, Note_off_c, 0, 56, 52
1, 535407, Note_on_c, 0, 60, 25
1, 535429, Note_on_c, 0, 63, 60
1, 535454, Note_off_c, 0, 65, 58
1, 535526, Note_off_c, 0, 63, 63
1, 535528, Note_on_c, 0, 56, 38
1, 535528, Note_on_c, 0, 62, 67
1, 535593, Note_off_c, 0, 60, 45
1, 535612, Note_on_c, 0, 63, 74
1, 535619, Note_off_c, 0, 62, 63
1, 535635, Note_on_c, 0, 48, 47
1, 535695, Note_on_c, 0, 62, 68
1, 535704, Note_off_c, 0, 56, 44
1, 535709, Note_off_c, 0, 51, 22
1, 535709, Note_off_c, 0, 63, 64
1, 535716, Note_off_c, 0, 48, 49
1, 535759, Note_on_c, 0, 60, 41
1, 535779, Note_on_c, 0, 63, 74
1, 535820, Note_off_c, 0, 62, 60
1, 535847, Note_on_c, 0, 56, 45
1, 535861, Note_off_c, 0, 60, 36
1, 535876, Note_on_c, 0, 65, 79
1, 535887, Note_off_c, 0, 56, 64
1, 535892, Note_off_c, 0, 63, 63
1, 535965, Note_on_c, 0, 63, 79
1, 535992, Note_off_c, 0, 65, 58
1, 536118, Note_on_c, 0, 44, 47
1, 536123, Note_on_c, 0, 60, 70
1, 536125, Note_off_c, 0, 63, 61
1, 536141, Control_c, 0, 64, 93
1, 536156, Control_c, 0, 64, 70
1, 536171, Control_c, 0, 64, 58
1, 536186, Control_c, 0, 64, 39
1, 536201, Control_c, 0, 64, 35
1, 536215, Control_c, 0, 64, 39
1, 536230, Control_c, 0, 64, 54
1, 536245, Control_c, 0, 64, 61
1, 536260, Control_c, 0, 64, 63
1, 536274, Control_c, 0, 64, 66
1, 536276, Note_off_c, 0, 44, 60
1, 536289, Control_c, 0, 64, 69
1, 536304, Control_c, 0, 64, 75
1, 536319, Control_c, 0, 64, 82
1, 536334, Control_c, 0, 64, 87
1, 536348, Control_c, 0, 64, 94
1, 536363, Control_c, 0, 64, 106
1, 536378, Control_c, 0, 64, 122
1, 536393, Control_c, 0, 64, 119
1, 536408, Control_c, 0, 64, 111
1, 536430, Control_c, 0, 64, 110
1, 536445, Control_c, 0, 64, 122
1, 536460, Control_c, 0, 64, 127
1, 536466, Note_on_c, 0, 56, 46
1, 536532, Note_off_c, 0, 60, 39
1, 536548, Note_on_c, 0, 48, 45
1, 536646, Note_off_c, 0, 56, 35
1, 536659, Note_on_c, 0, 60, 43
1, 536771, Note_on_c, 0, 56, 48
1, 536842, Note_off_c, 0, 60, 41
1, 536853, Note_off_c, 0, 48, 38
1, 536869, Note_on_c, 0, 51, 45
1, 536977, Note_on_c, 0, 60, 34
1, 536986, Note_off_c, 0, 56, 33
1, 537120, Note_on_c, 0, 56, 41
1, 537203, Note_off_c, 0, 60, 34
1, 537221, Note_on_c, 0, 48, 46
1, 537280, Note_off_c, 0, 56, 32
1, 537308, Note_off_c, 0, 51, 35
1, 537373, Note_off_c, 0, 48, 32
1, 537373, Note_on_c, 0, 60, 39
1, 537439, Note_off_c, 0, 60, 54
1, 537466, Note_on_c, 0, 75, 54
1, 537482, Note_on_c, 0, 63, 33
1, 537486, Note_on_c, 0, 56, 23
1, 537515, Note_off_c, 0, 63, 49
1, 537522, Note_off_c, 0, 56, 54
1, 537611, Note_off_c, 0, 75, 57
1, 537668, Control_c, 0, 64, 71
1, 537683, Note_on_c, 0, 79, 53
1, 537683, Control_c, 0, 64, 49
1, 537685, Note_on_c, 0, 39, 41
1, 537698, Control_c, 0, 64, 0
1, 537699, Note_on_c, 0, 70, 47
1, 537728, Control_c, 0, 64, 28
1, 537743, Control_c, 0, 64, 52
1, 537750, Note_off_c, 0, 39, 63
1, 537758, Control_c, 0, 64, 63
1, 537773, Control_c, 0, 64, 70
1, 537787, Control_c, 0, 64, 80
1, 537802, Control_c, 0, 64, 91
1, 537817, Control_c, 0, 64, 94
1, 537832, Control_c, 0, 64, 95
1, 537836, Note_off_c, 0, 70, 63
1, 537836, Note_off_c, 0, 79, 63
1, 537847, Control_c, 0, 64, 96
1, 537861, Control_c, 0, 64, 101
1, 537876, Control_c, 0, 64, 105
1, 537896, Note_on_c, 0, 61, 37
1, 537928, Control_c, 0, 64, 106
1, 537943, Control_c, 0, 64, 107
1, 537958, Control_c, 0, 64, 109
1, 537964, Note_off_c, 0, 61, 39
1, 537972, Control_c, 0, 64, 114
1, 537987, Control_c, 0, 64, 127
1, 537995, Note_on_c, 0, 55, 48
1, 538095, Note_on_c, 0, 46, 52
1, 538098, Note_off_c, 0, 55, 50
1, 538223, Note_on_c, 0, 61, 46
1, 538300, Note_on_c, 0, 80, 65
1, 538308, Note_on_c, 0, 72, 46
1, 538336, Note_on_c, 0, 55, 41
1, 538360, Note_off_c, 0, 72, 56
1, 538404, Note_off_c, 0, 61, 37
1, 538432, Control_c, 0, 64, 100
1, 538447, Control_c, 0, 64, 73
1, 538462, Note_on_c, 0, 82, 61
1, 538462, Control_c, 0, 64, 63
1, 538463, Note_off_c, 0, 80, 55
1, 538464, Note_on_c, 0, 73, 55
1, 538467, Note_on_c, 0, 51, 41
1, 538469, Note_off_c, 0, 46, 43
1, 538477, Control_c, 0, 64, 60
1, 538491, Control_c, 0, 64, 61
1, 538506, Control_c, 0, 64, 65
1, 538521, Control_c, 0, 64, 69
1, 538536, Control_c, 0, 64, 75
1, 538541, Note_off_c, 0, 55, 34
1, 538551, Control_c, 0, 64, 86
1, 538566, Control_c, 0, 64, 100
1, 538578, Note_on_c, 0, 61, 46
1, 538578, Note_off_c, 0, 73, 56
1, 538581, Control_c, 0, 64, 127
1, 538643, Note_off_c, 0, 82, 59
1, 538673, Note_on_c, 0, 55, 48
1, 538713, Note_off_c, 0, 61, 51
1, 538724, Note_off_c, 0, 51, 36
1, 538765, Control_c, 0, 67, 15
1, 538780, Control_c, 0, 67, 29
1, 538792, Note_on_c, 0, 46, 55
1, 538795, Control_c, 0, 67, 39
1, 538807, Note_off_c, 0, 55, 50
1, 538810, Control_c, 0, 67, 46
1, 538825, Control_c, 0, 67, 52
1, 538840, Note_off_c, 0, 46, 63
1, 538840, Control_c, 0, 67, 61
1, 538855, Control_c, 0, 67, 69
1, 538869, Control_c, 0, 67, 79
1, 538884, Control_c, 0, 67, 88
1, 538899, Control_c, 0, 67, 97
1, 538914, Control_c, 0, 67, 104
1, 538925, Note_on_c, 0, 61, 42
1, 538929, Control_c, 0, 67, 110
1, 538943, Control_c, 0, 67, 117
1, 538956, Note_off_c, 0, 61, 62
1, 538958, Control_c, 0, 67, 122
1, 538973, Control_c, 0, 67, 125
1, 538987, Note_on_c, 0, 55, 58
1, 538988, Control_c, 0, 67, 127
1, 538999, Note_on_c, 0, 84, 66
1, 539006, Note_on_c, 0, 75, 56
1, 539014, Note_off_c, 0, 55, 61
1, 539063, Note_off_c, 0, 75, 52
1, 539121, Control_c, 0, 64, 88
1, 539135, Control_c, 0, 64, 67
1, 539150, Control_c, 0, 64, 60
1, 539153, Note_on_c, 0, 39, 47
1, 539165, Control_c, 0, 64, 63
1, 539167, Note_off_c, 0, 84, 62
1, 539180, Control_c, 0, 64, 68
1, 539183, Note_on_c, 0, 85, 69
1, 539191, Note_on_c, 0, 77, 44
1, 539195, Control_c, 0, 64, 76
1, 539210, Note_off_c, 0, 85, 69
1, 539211, Control_c, 0, 64, 93
1, 539215, Note_off_c, 0, 77, 52
1, 539219, Note_off_c, 0, 39, 62
1, 539226, Control_c, 0, 64, 127
1, 539338, Note_on_c, 0, 61, 51
1, 539348, Note_on_c, 0, 97, 66
1, 539368, Note_on_c, 0, 89, 70
1, 539386, Note_off_c, 0, 97, 63
1, 539403, Note_off_c, 0, 89, 63
1, 539405, Note_off_c, 0, 61, 47
1, 539443, Note_on_c, 0, 55, 48
1, 539529, Note_on_c, 0, 82, 77
1, 539537, Note_on_c, 0, 46, 54
1, 539537, Note_on_c, 0, 73, 52
1, 539540, Note_off_c, 0, 55, 50
1, 539559, Note_off_c, 0, 73, 59
1, 539580, Note_off_c, 0, 82, 65
1, 539672, Note_on_c, 0, 61, 49
1, 539675, Note_on_c, 0, 94, 79
1, 539684, Note_on_c, 0, 85, 73
1, 539699, Note_off_c, 0, 94, 69
1, 539711, Note_off_c, 0, 85, 64
1, 539722, Note_on_c, 0, 55, 44
1, 539727, Note_off_c, 0, 61, 49
1, 539791, Note_off_c, 0, 46, 22
1, 539838, Note_on_c, 0, 70, 75
1, 539844, Note_on_c, 0, 79, 72
1, 539850, Note_on_c, 0, 51, 52
1, 539862, Note_off_c, 0, 70, 71
1, 539871, Note_off_c, 0, 79, 68
1, 539932, Note_off_c, 0, 55, 35
1, 539967, Note_on_c, 0, 61, 40
1, 540001, Note_on_c, 0, 91, 79
1, 540005, Note_on_c, 0, 82, 71
1, 540026, Note_off_c, 0, 91, 67
1, 540030, Note_off_c, 0, 82, 69
1, 540050, Note_on_c, 0, 55, 54
1, 540113, Note_off_c, 0, 51, 35
1, 540116, Note_off_c, 0, 61, 34
1, 540145, Note_on_c, 0, 46, 64
1, 540165, Note_on_c, 0, 75, 79
1, 540167, Note_on_c, 0, 67, 66
1, 540179, Note_off_c, 0, 55, 38
1, 540196, Note_off_c, 0, 67, 64
1, 540222, Note_off_c, 0, 75, 64
1, 540231, Note_off_c, 0, 46, 62
1, 540301, Note_on_c, 0, 61, 38
1, 540312, Note_on_c, 0, 79, 77
1, 540331, Note_on_c, 0, 87, 52
1, 540334, Note_off_c, 0, 79, 72
1, 540336, Note_off_c, 0, 61, 59
1, 540352, Note_off_c, 0, 87, 59
1, 540363, Note_on_c, 0, 55, 47
1, 540387, Note_off_c, 0, 55, 58
1, 540517, Note_on_c, 0, 44, 40
1, 540551, Note_on_c, 0, 77, 76
1, 540558, Control_c, 0, 64, 68
1, 540573, Control_c, 0, 64, 38
1, 540574, Note_on_c, 0, 72, 62
1, 540579, Note_on_c, 0, 68, 38
1, 540587, Control_c, 0, 64, 0
1, 540617, Control_c, 0, 64, 28
1, 540631, Control_c, 0, 64, 52
1, 540646, Control_c, 0, 64, 61
1, 540656, Note_off_c, 0, 44, 63
1, 540661, Control_c, 0, 64, 66
1, 540676, Control_c, 0, 64, 72
1, 540691, Control_c, 0, 64, 82
1, 540706, Control_c, 0, 64, 91
1, 540721, Control_c, 0, 64, 97
1, 540733, Note_on_c, 0, 60, 52
1, 540736, Control_c, 0, 64, 98
1, 540751, Control_c, 0, 64, 97
1, 540766, Control_c, 0, 64, 98
1, 540780, Control_c, 0, 64, 100
1, 540795, Control_c, 0, 64, 104
1, 540810, Control_c, 0, 64, 106
1, 540813, Note_on_c, 0, 56, 49
1, 540820, Note_off_c, 0, 60, 50
1, 540840, Control_c, 0, 64, 105
1, 540855, Control_c, 0, 64, 106
1, 540870, Control_c, 0, 64, 106
1, 540900, Control_c, 0, 64, 107
1, 540902, Note_on_c, 0, 51, 50
1, 540915, Note_off_c, 0, 68, 60
1, 540922, Control_c, 0, 64, 109
1, 540935, Note_off_c, 0, 56, 62
1, 540936, Control_c, 0, 64, 127
1, 540993, Note_off_c, 0, 72, 62
1, 541039, Note_on_c, 0, 60, 49
1, 541113, Note_off_c, 0, 51, 62
1, 541154, Note_on_c, 0, 56, 47
1, 541154, Note_off_c, 0, 60, 61
1, 541241, Note_off_c, 0, 56, 58
1, 541259, Note_on_c, 0, 51, 48
1, 541364, Note_off_c, 0, 77, 55
1, 541368, Note_on_c, 0, 75, 65
1, 541380, Note_on_c, 0, 72, 48
1, 541396, Control_c, 0, 67, 125
1, 541410, Control_c, 0, 67, 115
1, 541420, Note_on_c, 0, 63, 33
1, 541420, Note_off_c, 0, 72, 45
1, 541425, Control_c, 0, 67, 107
1, 541440, Control_c, 0, 67, 99
1, 541454, Control_c, 0, 67, 92
1, 541469, Note_on_c, 0, 74, 68
1, 541469, Control_c, 0, 67, 83
1, 541472, Note_off_c, 0, 75, 58
1, 541472, Note_off_c, 0, 63, 45
1, 541478, Note_on_c, 0, 71, 61
1, 541484, Control_c, 0, 67, 74
1, 541499, Control_c, 0, 67, 66
1, 541502, Note_on_c, 0, 60, 46
1, 541514, Control_c, 0, 67, 60
1, 541529, Control_c, 0, 67, 56
1, 541544, Control_c, 0, 67, 52
1, 541550, Note_off_c, 0, 51, 54
1, 541550, Note_off_c, 0, 71, 62
1, 541555, Note_off_c, 0, 74, 63
1, 541558, Control_c, 0, 67, 48
1, 541561, Note_on_c, 0, 75, 79
1, 541573, Control_c, 0, 67, 43
1, 541576, Note_on_c, 0, 72, 46
1, 541587, Note_on_c, 0, 56, 50
1, 541588, Control_c, 0, 67, 37
1, 541604, Control_c, 0, 67, 31
1, 541610, Note_off_c, 0, 60, 61
1, 541619, Control_c, 0, 67, 26
1, 541633, Control_c, 0, 67, 21
1, 541640, Note_off_c, 0, 72, 34
1, 541647, Note_on_c, 0, 74, 78
1, 541647, Note_off_c, 0, 75, 62
1, 541648, Control_c, 0, 67, 18
1, 541671, Control_c, 0, 67, 14
1, 541677, Note_on_c, 0, 71, 53
1, 541686, Note_on_c, 0, 63, 47
1, 541686, Control_c, 0, 67, 12
1, 541701, Control_c, 0, 67, 8
1, 541715, Control_c, 0, 67, 0
1, 541726, Note_off_c, 0, 63, 62
1, 541733, Note_off_c, 0, 74, 62
1, 541737, Note_off_c, 0, 71, 64
1, 541738, Note_on_c, 0, 75, 78
1, 541744, Note_on_c, 0, 72, 65
1, 541755, Note_on_c, 0, 60, 53
1, 541785, Note_off_c, 0, 60, 65
1, 541785, Note_off_c, 0, 72, 62
1, 541794, Note_off_c, 0, 56, 62
1, 541806, Note_off_c, 0, 75, 59
1, 541835, Note_on_c, 0, 77, 68
1, 541836, Note_on_c, 0, 73, 61
1, 541911, Note_on_c, 0, 75, 82
1, 541920, Note_off_c, 0, 73, 60
1, 541929, Note_on_c, 0, 72, 62
1, 541930, Note_off_c, 0, 77, 61
1, 541954, Note_off_c, 0, 72, 65
1, 542023, Note_off_c, 0, 75, 57
1, 542024, Note_on_c, 0, 44, 40
1, 542027, Control_c, 0, 64, 102
1, 542032, Note_on_c, 0, 72, 68
1, 542041, Control_c, 0, 64, 67
1, 542056, Control_c, 0, 64, 51
1, 542071, Control_c, 0, 64, 43
1, 542073, Note_on_c, 0, 68, 46
1, 542086, Control_c, 0, 64, 46
1, 542101, Control_c, 0, 64, 58
1, 542108, Note_off_c, 0, 44, 63
1, 542116, Control_c, 0, 64, 64
1, 542131, Control_c, 0, 64, 68
1, 542146, Control_c, 0, 64, 75
1, 542160, Control_c, 0, 64, 80
1, 542175, Control_c, 0, 64, 84
1, 542188, Note_on_c, 0, 60, 53
1, 542190, Control_c, 0, 64, 86
1, 542234, Control_c, 0, 64, 88
1, 542249, Control_c, 0, 64, 91
1, 542264, Control_c, 0, 64, 93
1, 542292, Note_on_c, 0, 56, 48
1, 542308, Control_c, 0, 64, 95
1, 542316, Note_off_c, 0, 60, 35
1, 542323, Control_c, 0, 64, 98
1, 542338, Control_c, 0, 64, 103
1, 542352, Control_c, 0, 64, 106
1, 542367, Control_c, 0, 64, 106
1, 542376, Note_on_c, 0, 51, 51
1, 542382, Control_c, 0, 64, 107
1, 542405, Control_c, 0, 64, 112
1, 542414, Note_off_c, 0, 56, 53
1, 542420, Control_c, 0, 64, 127
1, 542511, Note_on_c, 0, 60, 43
1, 542539, Note_off_c, 0, 68, 40
1, 542550, Note_off_c, 0, 72, 61
1, 542608, Note_off_c, 0, 51, 58
1, 542632, Note_off_c, 0, 60, 61
1, 542639, Note_on_c, 0, 56, 41
1, 542717, Note_off_c, 0, 56, 60
1, 542737, Note_on_c, 0, 51, 51
1, 542862, Note_on_c, 0, 63, 37
1, 542970, Note_on_c, 0, 60, 48
1, 542977, Note_off_c, 0, 63, 37
1, 543073, Note_on_c, 0, 56, 59
1, 543115, Note_off_c, 0, 51, 36
1, 543119, Note_off_c, 0, 60, 60
1, 543195, Note_on_c, 0, 63, 59
1, 543278, Note_off_c, 0, 63, 64
1, 543299, Note_on_c, 0, 60, 58
1, 543326, Note_off_c, 0, 60, 65
1, 543331, Note_off_c, 0, 56, 64
1, 543348, Note_on_c, 0, 84, 86
1, 543352, Note_on_c, 0, 72, 73
1, 543408, Note_off_c, 0, 72, 60
1, 543535, Note_on_c, 0, 36, 57
1, 543537, Note_on_c, 0, 48, 62
1, 543584, Control_c, 0, 64, 88
1, 543585, Note_on_c, 0, 88, 83
1, 543595, Note_on_c, 0, 79, 67
1, 543599, Control_c, 0, 64, 64
1, 543600, Note_on_c, 0, 76, 65
1, 543613, Control_c, 0, 64, 49
1, 543626, Note_off_c, 0, 36, 62
1, 543628, Control_c, 0, 64, 53
1, 543643, Control_c, 0, 64, 62
1, 543646, Note_off_c, 0, 84, 58
1, 543656, Note_off_c, 0, 48, 64
1, 543658, Control_c, 0, 64, 75
1, 543673, Control_c, 0, 64, 127
1, 543812, Note_on_c, 0, 64, 71
1, 543929, Note_on_c, 0, 58, 71
1, 543953, Note_off_c, 0, 79, 67
1, 543955, Note_off_c, 0, 64, 45
1, 543997, Note_off_c, 0, 88, 65
1, 544015, Note_on_c, 0, 55, 74
1, 544039, Note_off_c, 0, 76, 57
1, 544061, Note_off_c, 0, 58, 61
1, 544118, Note_on_c, 0, 64, 67
1, 544161, Note_on_c, 0, 89, 89
1, 544169, Note_on_c, 0, 77, 79
1, 544172, Note_on_c, 0, 80, 74
1, 544191, Note_on_c, 0, 58, 68
1, 544227, Note_off_c, 0, 77, 63
1, 544227, Note_off_c, 0, 80, 63
1, 544250, Note_off_c, 0, 89, 64
1, 544319, Note_off_c, 0, 64, 44
1, 544326, Note_on_c, 0, 52, 66
1, 544331, Note_on_c, 0, 91, 90
1, 544339, Note_on_c, 0, 82, 78
1, 544341, Note_on_c, 0, 79, 75
1, 544370, Note_off_c, 0, 58, 60
1, 544374, Note_off_c, 0, 55, 31
1, 544459, Note_on_c, 0, 64, 72
1, 544551, Note_on_c, 0, 58, 71
1, 544587, Note_off_c, 0, 79, 64
1, 544599, Note_off_c, 0, 91, 65
1, 544610, Note_off_c, 0, 64, 61
1, 544620, Note_off_c, 0, 82, 65
1, 544653, Note_on_c, 0, 55, 74
1, 544703, Note_off_c, 0, 58, 61
1, 544712, Note_off_c, 0, 52, 61
1, 544742, Note_on_c, 0, 64, 69
1, 544822, Note_on_c, 0, 58, 82
1, 544829, Note_on_c, 0, 92, 94
1, 544832, Note_on_c, 0, 80, 83
1, 544834, Note_on_c, 0, 84, 81
1, 544865, Note_off_c, 0, 64, 60
1, 544867, Note_off_c, 0, 55, 63
1, 544915, Note_off_c, 0, 58, 64
1, 544919, Note_off_c, 0, 84, 64
1, 544924, Note_off_c, 0, 80, 59
1, 544948, Note_off_c, 0, 92, 66
1, 545000, Note_on_c, 0, 48, 80
1, 545025, Note_on_c, 0, 94, 94
1, 545030, Note_on_c, 0, 82, 84
1, 545031, Note_on_c, 0, 85, 81
1, 545037, Control_c, 0, 64, 80
1, 545051, Control_c, 0, 64, 62
1, 545066, Control_c, 0, 64, 51
1, 545081, Control_c, 0, 64, 50
1, 545096, Control_c, 0, 64, 57
1, 545110, Control_c, 0, 64, 67
1, 545111, Note_off_c, 0, 48, 64
1, 545125, Control_c, 0, 64, 96
1, 545140, Control_c, 0, 64, 127
1, 545171, Note_on_c, 0, 64, 74
1, 545264, Note_on_c, 0, 58, 74
1, 545267, Note_off_c, 0, 85, 65
1, 545271, Note_off_c, 0, 82, 65
1, 545294, Note_off_c, 0, 64, 60
1, 545331, Note_off_c, 0, 94, 64
1, 545342, Note_on_c, 0, 55, 84
1, 545380, Note_off_c, 0, 58, 63
1, 545452, Note_on_c, 0, 64, 82
1, 545535, Note_on_c, 0, 58, 75
1, 545542, Note_on_c, 0, 91, 90
1, 545544, Note_on_c, 0, 83, 94
1, 545545, Note_on_c, 0, 95, 94
1, 545598, Note_off_c, 0, 91, 64
1, 545606, Note_off_c, 0, 83, 61
1, 545619, Note_off_c, 0, 64, 59
1, 545630, Note_off_c, 0, 95, 66
1, 545666, Note_on_c, 0, 52, 81
1, 545689, Note_on_c, 0, 96, 103
1, 545692, Note_on_c, 0, 84, 100
1, 545693, Note_on_c, 0, 92, 99
1, 545720, Note_off_c, 0, 58, 58
1, 545733, Note_off_c, 0, 55, 51
1, 545812, Note_on_c, 0, 64, 77
1, 545872, Note_off_c, 0, 96, 65
1, 545887, Note_on_c, 0, 58, 76
1, 545905, Note_off_c, 0, 52, 67
1, 545908, Note_off_c, 0, 64, 63
1, 545913, Note_off_c, 0, 84, 63
1, 545934, Note_off_c, 0, 92, 67
1, 545937, Note_off_c, 0, 58, 64
1, 545992, Note_on_c, 0, 48, 89
1, 546047, Note_off_c, 0, 48, 63
1, 546104, Note_on_c, 0, 64, 86
1, 546199, Note_on_c, 0, 58, 85
1, 546221, Note_off_c, 0, 64, 61
1, 546223, Note_on_c, 0, 88, 90
1, 546226, Note_on_c, 0, 91, 94
1, 546229, Note_on_c, 0, 79, 88
1, 546270, Note_off_c, 0, 58, 65
1, 546284, Note_off_c, 0, 79, 63
1, 546289, Note_off_c, 0, 88, 67
1, 546306, Note_off_c, 0, 91, 66
1, 546449, Note_on_c, 0, 41, 82
1, 546516, Note_on_c, 0, 94, 96
1, 546520, Note_on_c, 0, 85, 91
1, 546520, Control_c, 0, 64, 68
1, 546521, Note_on_c, 0, 82, 88
1, 546535, Control_c, 0, 64, 0
1, 546579, Control_c, 0, 64, 30
1, 546594, Control_c, 0, 64, 65
1, 546609, Note_off_c, 0, 41, 65
1, 546609, Control_c, 0, 64, 127
1, 546736, Note_on_c, 0, 64, 66
1, 546850, Note_on_c, 0, 61, 68
1, 546885, Note_off_c, 0, 64, 61
1, 546950, Note_on_c, 0, 55, 75
1, 546954, Note_on_c, 0, 53, 74
1, 546979, Note_off_c, 0, 61, 58
1, 547070, Note_on_c, 0, 64, 72
1, 547169, Note_on_c, 0, 61, 80
1, 547245, Note_off_c, 0, 64, 60
1, 547275, Note_on_c, 0, 58, 85
1, 547333, Note_off_c, 0, 61, 59
1, 547370, Poly_aftertouch_c, 0, 91, 127
1, 547393, Note_on_c, 0, 64, 69
1, 547493, Note_off_c, 0, 53, 59
1, 547501, Note_on_c, 0, 61, 77
1, 547508, Note_off_c, 0, 55, 61
1, 547584, Note_off_c, 0, 58, 40
1, 547585, Note_off_c, 0, 64, 60
1, 547614, Note_on_c, 0, 55, 79
1, 547619, Note_on_c, 0, 53, 71
1, 547637, Note_off_c, 0, 61, 63
1, 547663, Note_off_c, 0, 85, 61
1, 547762, Note_on_c, 0, 64, 80
1, 547800, Poly_aftertouch_c, 0, 91, 0
1, 547814, Note_off_c, 0, 94, 64
1, 547873, Note_off_c, 0, 82, 63
1, 547880, Note_on_c, 0, 61, 80
1, 547896, Note_off_c, 0, 64, 59
1, 547955, Note_off_c, 0, 61, 63
1, 547959, Note_on_c, 0, 93, 92
1, 547964, Note_on_c, 0, 81, 89
1, 547965, Note_off_c, 0, 55, 63
1, 547966, Note_on_c, 0, 85, 88
1, 547976, Note_off_c, 0, 53, 64
1, 548015, Note_on_c, 0, 91, 9
1, 548096, Note_off_c, 0, 93, 66
1, 548138, Note_off_c, 0, 81, 60
1, 548186, Note_on_c, 0, 41, 65
1, 548214, Note_off_c, 0, 85, 50
1, 548266, Note_on_c, 0, 92, 91
1, 548273, Note_on_c, 0, 84, 76
1, 548274, Note_on_c, 0, 80, 76
1, 548284, Control_c, 0, 64, 94
1, 548299, Control_c, 0, 64, 62
1, 548314, Control_c, 0, 64, 0
1, 548360, Note_off_c, 0, 41, 65
1, 548373, Control_c, 0, 64, 61
1, 548388, Control_c, 0, 64, 73
1, 548410, Control_c, 0, 64, 93
1, 548425, Control_c, 0, 64, 127
1, 548519, Note_on_c, 0, 65, 50
1, 548643, Note_on_c, 0, 60, 34
1, 548655, Note_off_c, 0, 65, 34
1, 548723, Note_on_c, 0, 53, 48
1, 548789, Note_off_c, 0, 60, 36
1, 548856, Note_on_c, 0, 65, 51
1, 548966, Note_off_c, 0, 53, 42
1, 548987, Note_on_c, 0, 60, 36
1, 549046, Note_off_c, 0, 65, 35
1, 549077, Control_c, 0, 64, 98
1, 549082, Note_on_c, 0, 56, 47
1, 549091, Control_c, 0, 64, 82
1, 549106, Control_c, 0, 64, 75
1, 549121, Control_c, 0, 64, 76
1, 549122, Note_off_c, 0, 60, 38
1, 549136, Control_c, 0, 64, 84
1, 549158, Control_c, 0, 64, 104
1, 549166, Note_off_c, 0, 91, 18
1, 549173, Control_c, 0, 64, 127
1, 549227, Note_on_c, 0, 65, 37
1, 549364, Note_on_c, 0, 60, 36
1, 549371, Note_off_c, 0, 92, 64
1, 549407, Note_off_c, 0, 84, 65
1, 549421, Note_off_c, 0, 80, 60
1, 549429, Note_off_c, 0, 65, 28
1, 549487, Note_on_c, 0, 53, 44
1, 549515, Note_off_c, 0, 60, 36
1, 549614, Note_off_c, 0, 56, 35
1, 549640, Note_on_c, 0, 65, 30
1, 549833, Note_on_c, 0, 60, 26
1, 549851, Note_off_c, 0, 65, 39
1, 549881, Note_off_c, 0, 53, 42
1, 549915, Note_off_c, 0, 60, 53
1, 550385, Note_on_c, 0, 44, 33
1, 550427, Control_c, 0, 64, 91
1, 550442, Control_c, 0, 64, 69
1, 550456, Control_c, 0, 64, 57
1, 550471, Control_c, 0, 64, 42
1, 550483, Note_on_c, 0, 77, 43
1, 550486, Control_c, 0, 64, 37
1, 550498, Note_on_c, 0, 68, 36
1, 550501, Control_c, 0, 64, 40
1, 550516, Control_c, 0, 64, 53
1, 550527, Note_off_c, 0, 44, 59
1, 550531, Control_c, 0, 64, 61
1, 550545, Control_c, 0, 64, 66
1, 550560, Control_c, 0, 64, 72
1, 550575, Control_c, 0, 64, 85
1, 550589, Control_c, 0, 64, 127
1, 550694, Note_off_c, 0, 77, 55
1, 550722, Note_on_c, 0, 65, 28
1, 550742, Note_off_c, 0, 68, 40
1, 550782, Note_off_c, 0, 65, 48
1, 550823, Note_on_c, 0, 59, 45
1, 550873, Note_on_c, 0, 77, 50
1, 550878, Note_on_c, 0, 68, 38
1, 550952, Note_off_c, 0, 59, 60
1, 550978, Note_on_c, 0, 56, 39
1, 550984, Note_off_c, 0, 77, 58
1, 551016, Note_off_c, 0, 68, 34
1, 551052, Note_on_c, 0, 65, 25
1, 551089, Note_on_c, 0, 77, 61
1, 551090, Note_on_c, 0, 68, 45
1, 551158, Note_off_c, 0, 56, 42
1, 551182, Note_on_c, 0, 59, 42
1, 551202, Note_off_c, 0, 68, 55
1, 551241, Note_off_c, 0, 65, 39
1, 551329, Note_on_c, 0, 79, 60
1, 551333, Note_on_c, 0, 56, 30
1, 551339, Note_off_c, 0, 59, 52
1, 551339, Note_off_c, 0, 77, 37
1, 551355, Note_on_c, 0, 70, 44
1, 551404, Control_c, 0, 64, 100
1, 551419, Control_c, 0, 64, 74
1, 551434, Control_c, 0, 64, 62
1, 551449, Control_c, 0, 64, 47
1, 551464, Control_c, 0, 64, 37
1, 551479, Control_c, 0, 64, 31
1, 551493, Control_c, 0, 64, 31
1, 551498, Note_on_c, 0, 65, 28
1, 551523, Control_c, 0, 64, 33
1, 551538, Control_c, 0, 64, 39
1, 551552, Control_c, 0, 64, 44
1, 551567, Control_c, 0, 64, 48
1, 551582, Control_c, 0, 64, 52
1, 551597, Control_c, 0, 64, 56
1, 551612, Control_c, 0, 64, 59
1, 551626, Control_c, 0, 64, 61
1, 551641, Control_c, 0, 64, 63
1, 551656, Control_c, 0, 64, 64
1, 551671, Control_c, 0, 64, 66
1, 551686, Control_c, 0, 64, 68
1, 551700, Control_c, 0, 64, 71
1, 551704, Note_on_c, 0, 59, 18
1, 551712, Note_off_c, 0, 65, 40
1, 551715, Control_c, 0, 64, 74
1, 551730, Control_c, 0, 64, 77
1, 551744, Control_c, 0, 64, 81
1, 551747, Note_off_c, 0, 56, 40
1, 551759, Control_c, 0, 64, 87
1, 551774, Control_c, 0, 64, 95
1, 551789, Control_c, 0, 64, 104
1, 551804, Control_c, 0, 64, 125
1, 551819, Control_c, 0, 64, 127
1, 551855, Note_off_c, 0, 70, 43
1, 551899, Note_off_c, 0, 59, 40
1, 552388, Note_on_c, 0, 68, 23
1, 552400, Note_on_c, 0, 77, 46
1, 552573, Note_off_c, 0, 79, 41
1, 552604, Note_off_c, 0, 68, 42
1, 552631, Note_on_c, 0, 46, 27
1, 552641, Control_c, 0, 64, 87
1, 552656, Control_c, 0, 64, 67
1, 552668, Note_off_c, 0, 77, 38
1, 552671, Control_c, 0, 64, 61
1, 552677, Note_on_c, 0, 75, 51
1, 552679, Note_on_c, 0, 67, 25
1, 552686, Control_c, 0, 64, 61
1, 552701, Control_c, 0, 64, 62
1, 552716, Control_c, 0, 64, 64
1, 552731, Control_c, 0, 64, 69
1, 552743, Note_off_c, 0, 46, 59
1, 552746, Control_c, 0, 64, 81
1, 552760, Control_c, 0, 64, 109
1, 552775, Control_c, 0, 64, 127
1, 552858, Note_off_c, 0, 75, 62
1, 552869, Note_on_c, 0, 63, 35
1, 552872, Note_off_c, 0, 67, 51
1, 552953, Note_off_c, 0, 63, 0
1, 552990, Poly_aftertouch_c, 0, 63, 127
1, 552992, Note_on_c, 0, 75, 60
1, 553012, Note_on_c, 0, 67, 47
1, 553015, Note_on_c, 0, 58, 31
1, 553029, Poly_aftertouch_c, 0, 63, 0
1, 553087, Note_on_c, 0, 55, 50
1, 553115, Note_off_c, 0, 75, 58
1, 553121, Note_off_c, 0, 67, 55
1, 553124, Note_off_c, 0, 58, 34
1, 553215, Note_on_c, 0, 63, 44
1, 553228, Note_on_c, 0, 75, 66
1, 553237, Note_on_c, 0, 67, 60
1, 553284, Note_off_c, 0, 67, 60
1, 553306, Note_off_c, 0, 55, 53
1, 553330, Note_on_c, 0, 58, 43
1, 553341, Note_off_c, 0, 75, 51
1, 553446, Note_off_c, 0, 63, 30
1, 553465, Note_on_c, 0, 55, 40
1, 553488, Note_on_c, 0, 74, 57
1, 553494, Note_on_c, 0, 66, 56
1, 553521, Note_off_c, 0, 58, 46
1, 553539, Control_c, 0, 64, 96
1, 553554, Control_c, 0, 64, 73
1, 553569, Control_c, 0, 64, 62
1, 553585, Control_c, 0, 64, 52
1, 553600, Control_c, 0, 64, 46
1, 553614, Control_c, 0, 64, 46
1, 553629, Control_c, 0, 64, 48
1, 553652, Control_c, 0, 64, 52
1, 553667, Control_c, 0, 64, 57
1, 553675, Note_on_c, 0, 63, 37
1, 553682, Control_c, 0, 64, 60
1, 553696, Control_c, 0, 64, 60
1, 553711, Control_c, 0, 64, 61
1, 553726, Control_c, 0, 64, 62
1, 553741, Control_c, 0, 64, 63
1, 553756, Control_c, 0, 64, 65
1, 553770, Control_c, 0, 64, 67
1, 553785, Control_c, 0, 64, 70
1, 553800, Control_c, 0, 64, 71
1, 553814, Control_c, 0, 64, 72
1, 553829, Control_c, 0, 64, 73
1, 553844, Control_c, 0, 64, 74
1, 553873, Note_on_c, 0, 58, 40
1, 553874, Control_c, 0, 64, 75
1, 553881, Note_off_c, 0, 63, 39
1, 553888, Control_c, 0, 64, 77
1, 553903, Control_c, 0, 64, 79
1, 553918, Control_c, 0, 64, 82
1, 553933, Control_c, 0, 64, 84
1, 553948, Control_c, 0, 64, 86
1, 553962, Control_c, 0, 64, 90
1, 553977, Control_c, 0, 64, 93
1, 554007, Control_c, 0, 64, 93
1, 554022, Control_c, 0, 64, 95
1, 554037, Control_c, 0, 64, 100
1, 554051, Control_c, 0, 64, 108
1, 554060, Note_off_c, 0, 55, 37
1, 554066, Control_c, 0, 64, 110
1, 554081, Control_c, 0, 64, 111
1, 554096, Control_c, 0, 64, 112
1, 554111, Control_c, 0, 64, 117
1, 554126, Control_c, 0, 64, 127
1, 554128, Note_off_c, 0, 58, 32
1, 554200, Note_off_c, 0, 74, 54
1, 554440, Note_off_c, 0, 66, 37
1, 554698, Note_on_c, 0, 75, 40
1, 554716, Note_on_c, 0, 67, 41
1, 554984, Note_on_c, 0, 46, 37
1, 554999, Note_off_c, 0, 67, 34
1, 555007, Control_c, 0, 64, 110
1, 555008, Note_off_c, 0, 75, 56
1, 555022, Control_c, 0, 64, 79
1, 555036, Note_on_c, 0, 79, 52
1, 555036, Control_c, 0, 64, 66
1, 555051, Control_c, 0, 64, 63
1, 555052, Note_on_c, 0, 70, 38
1, 555066, Control_c, 0, 64, 64
1, 555081, Control_c, 0, 64, 66
1, 555096, Control_c, 0, 64, 69
1, 555110, Control_c, 0, 64, 74
1, 555125, Control_c, 0, 64, 85
1, 555128, Note_off_c, 0, 46, 58
1, 555148, Control_c, 0, 64, 107
1, 555162, Control_c, 0, 64, 127
1, 555246, Note_on_c, 0, 62, 46
1, 555357, Note_off_c, 0, 62, 52
1, 555360, Note_on_c, 0, 58, 53
1, 555465, Note_on_c, 0, 56, 46
1, 555500, Note_off_c, 0, 58, 52
1, 555578, Note_on_c, 0, 77, 72
1, 555582, Note_on_c, 0, 62, 45
1, 555596, Note_on_c, 0, 68, 53
1, 555673, Note_off_c, 0, 79, 62
1, 555700, Note_off_c, 0, 70, 59
1, 555732, Note_on_c, 0, 58, 45
1, 555816, Note_off_c, 0, 62, 25
1, 555840, Note_off_c, 0, 56, 27
1, 555904, Note_on_c, 0, 80, 59
1, 555917, Note_on_c, 0, 72, 44
1, 555919, Note_on_c, 0, 53, 41
1, 555965, Note_off_c, 0, 77, 55
1, 555965, Note_off_c, 0, 68, 33
1, 555971, Control_c, 0, 64, 98
1, 555972, Note_off_c, 0, 58, 33
1, 555986, Control_c, 0, 64, 76
1, 556001, Control_c, 0, 64, 64
1, 556016, Control_c, 0, 64, 54
1, 556031, Control_c, 0, 64, 45
1, 556046, Control_c, 0, 64, 38
1, 556061, Control_c, 0, 64, 37
1, 556075, Control_c, 0, 64, 38
1, 556090, Control_c, 0, 64, 44
1, 556098, Note_on_c, 0, 62, 31
1, 556105, Control_c, 0, 64, 50
1, 556120, Control_c, 0, 64, 52
1, 556135, Control_c, 0, 64, 54
1, 556150, Control_c, 0, 64, 57
1, 556164, Control_c, 0, 64, 59
1, 556179, Control_c, 0, 64, 60
1, 556194, Control_c, 0, 64, 62
1, 556208, Control_c, 0, 64, 63
1, 556223, Control_c, 0, 64, 64
1, 556238, Control_c, 0, 64, 65
1, 556253, Control_c, 0, 64, 66
1, 556268, Control_c, 0, 64, 68
1, 556282, Control_c, 0, 64, 70
1, 556290, Note_on_c, 0, 58, 31
1, 556297, Control_c, 0, 64, 72
1, 556312, Control_c, 0, 64, 75
1, 556319, Note_off_c, 0, 62, 38
1, 556327, Control_c, 0, 64, 77
1, 556342, Control_c, 0, 64, 80
1, 556356, Control_c, 0, 64, 83
1, 556371, Control_c, 0, 64, 88
1, 556386, Control_c, 0, 64, 94
1, 556401, Control_c, 0, 64, 100
1, 556415, Control_c, 0, 64, 109
1, 556430, Control_c, 0, 64, 127
1, 556506, Note_off_c, 0, 58, 50
1, 556560, Note_off_c, 0, 53, 38
1, 556684, Note_off_c, 0, 72, 62
1, 556900, Note_off_c, 0, 80, 60
1, 557017, Control_c, 0, 67, 14
1, 557032, Control_c, 0, 67, 30
1, 557047, Control_c, 0, 67, 49
1, 557062, Control_c, 0, 67, 74
1, 557077, Control_c, 0, 67, 95
1, 557092, Control_c, 0, 67, 116
1, 557106, Control_c, 0, 67, 127
1, 557128, Note_on_c, 0, 79, 47
1, 557151, Note_on_c, 0, 70, 44
1, 557452, Note_on_c, 0, 39, 42
1, 557499, Control_c, 0, 64, 79
1, 557504, Note_on_c, 0, 67, 36
1, 557506, Note_on_c, 0, 75, 47
1, 557513, Control_c, 0, 64, 61
1, 557528, Control_c, 0, 64, 52
1, 557537, Note_off_c, 0, 70, 39
1, 557543, Control_c, 0, 64, 54
1, 557558, Control_c, 0, 64, 57
1, 557572, Control_c, 0, 64, 62
1, 557589, Control_c, 0, 64, 67
1, 557591, Note_off_c, 0, 79, 32
1, 557601, Note_off_c, 0, 39, 56
1, 557604, Control_c, 0, 64, 74
1, 557618, Control_c, 0, 64, 87
1, 557633, Control_c, 0, 64, 106
1, 557648, Control_c, 0, 64, 127
1, 557736, Note_on_c, 0, 58, 35
1, 557835, Note_off_c, 0, 58, 51
1, 557843, Note_on_c, 0, 55, 44
1, 557951, Note_on_c, 0, 46, 41
1, 557971, Note_off_c, 0, 55, 37
1, 558065, Note_on_c, 0, 58, 36
1, 558127, Note_off_c, 0, 58, 53
1, 558145, Note_off_c, 0, 75, 61
1, 558150, Note_off_c, 0, 67, 59
1, 558155, Note_on_c, 0, 55, 45
1, 558277, Note_on_c, 0, 51, 50
1, 558314, Note_off_c, 0, 55, 52
1, 558371, Note_on_c, 0, 58, 38
1, 558388, Note_off_c, 0, 46, 31
1, 558495, Note_on_c, 0, 55, 39
1, 558531, Note_off_c, 0, 58, 36
1, 558600, Note_on_c, 0, 46, 44
1, 558615, Note_off_c, 0, 55, 56
1, 558666, Note_on_c, 0, 58, 46
1, 558693, Control_c, 0, 67, 124
1, 558708, Control_c, 0, 67, 121
1, 558723, Control_c, 0, 67, 119
1, 558737, Control_c, 0, 67, 117
1, 558752, Control_c, 0, 67, 114
1, 558767, Control_c, 0, 67, 111
1, 558774, Note_off_c, 0, 58, 55
1, 558782, Control_c, 0, 67, 108
1, 558790, Note_on_c, 0, 55, 45
1, 558797, Control_c, 0, 67, 102
1, 558811, Control_c, 0, 67, 93
1, 558826, Control_c, 0, 67, 86
1, 558841, Control_c, 0, 67, 81
1, 558856, Control_c, 0, 67, 80
1, 558871, Control_c, 0, 67, 79
1, 558883, Note_off_c, 0, 55, 54
1, 558903, Note_off_c, 0, 51, 13
1, 558907, Control_c, 0, 67, 79
1, 558916, Note_on_c, 0, 39, 62
1, 558963, Note_off_c, 0, 46, 41
1, 558967, Control_c, 0, 67, 78
1, 558982, Control_c, 0, 67, 77
1, 559003, Note_off_c, 0, 39, 55
1, 559044, Note_on_c, 0, 58, 48
1, 559071, Control_c, 0, 67, 77
1, 559101, Note_off_c, 0, 58, 53
1, 559122, Note_on_c, 0, 55, 44
1, 559229, Note_on_c, 0, 46, 47
1, 559233, Control_c, 0, 67, 76
1, 559288, Note_off_c, 0, 55, 35
1, 559322, Control_c, 0, 67, 76
1, 559339, Note_on_c, 0, 58, 37
1, 559367, Control_c, 0, 67, 75
1, 559411, Control_c, 0, 67, 74
1, 559426, Control_c, 0, 67, 74
1, 559452, Note_on_c, 0, 55, 30
1, 559464, Note_off_c, 0, 58, 39
1, 559471, Control_c, 0, 67, 73
1, 559501, Control_c, 0, 67, 72
1, 559515, Control_c, 0, 67, 72
1, 559530, Control_c, 0, 67, 71
1, 559545, Control_c, 0, 67, 57
1, 559560, Control_c, 0, 67, 43
1, 559570, Note_on_c, 0, 51, 50
1, 559574, Control_c, 0, 67, 34
1, 559589, Control_c, 0, 67, 27
1, 559604, Control_c, 0, 67, 21
1, 559608, Note_off_c, 0, 55, 55
1, 559619, Control_c, 0, 67, 18
1, 559641, Control_c, 0, 67, 16
1, 559656, Control_c, 0, 67, 15
1, 559670, Control_c, 0, 67, 14
1, 559685, Control_c, 0, 67, 14
1, 559691, Note_off_c, 0, 46, 33
1, 559692, Note_on_c, 0, 58, 39
1, 559700, Control_c, 0, 67, 12
1, 559715, Control_c, 0, 67, 10
1, 559730, Control_c, 0, 67, 0
1, 559800, Note_on_c, 0, 55, 38
1, 559813, Note_off_c, 0, 58, 52
1, 559920, Note_on_c, 0, 46, 48
1, 559968, Note_off_c, 0, 55, 41
1, 560048, Note_on_c, 0, 58, 47
1, 560097, Note_off_c, 0, 46, 37
1, 560125, Note_off_c, 0, 58, 50
1, 560143, Note_on_c, 0, 55, 47
1, 560174, Note_off_c, 0, 55, 61
1, 560210, Note_on_c, 0, 63, 66
1, 560231, Note_off_c, 0, 51, 40
1, 560401, Note_on_c, 0, 39, 48
1, 560419, Control_c, 0, 64, 81
1, 560434, Control_c, 0, 64, 67
1, 560449, Control_c, 0, 64, 60
1, 560463, Control_c, 0, 64, 57
1, 560478, Control_c, 0, 64, 61
1, 560480, Note_on_c, 0, 67, 69
1, 560493, Control_c, 0, 64, 67
1, 560508, Control_c, 0, 64, 75
1, 560516, Note_off_c, 0, 39, 63
1, 560523, Control_c, 0, 64, 90
1, 560538, Control_c, 0, 64, 127
1, 560547, Note_off_c, 0, 63, 60
1, 560693, Note_on_c, 0, 61, 43
1, 560771, Note_on_c, 0, 55, 57
1, 560800, Note_off_c, 0, 61, 48
1, 560872, Note_on_c, 0, 46, 65
1, 560919, Note_off_c, 0, 55, 55
1, 560980, Note_on_c, 0, 61, 52
1, 561068, Note_on_c, 0, 68, 79
1, 561093, Note_on_c, 0, 55, 45
1, 561205, Note_off_c, 0, 67, 39
1, 561223, Note_on_c, 0, 70, 87
1, 561234, Note_on_c, 0, 51, 58
1, 561239, Note_off_c, 0, 61, 33
1, 561257, Control_c, 0, 64, 96
1, 561258, Note_off_c, 0, 46, 38
1, 561272, Control_c, 0, 64, 78
1, 561286, Control_c, 0, 64, 69
1, 561301, Control_c, 0, 64, 68
1, 561316, Control_c, 0, 64, 71
1, 561320, Note_off_c, 0, 68, 59
1, 561331, Control_c, 0, 64, 78
1, 561346, Control_c, 0, 64, 88
1, 561353, Note_off_c, 0, 55, 33
1, 561358, Note_on_c, 0, 61, 57
1, 561361, Control_c, 0, 64, 106
1, 561376, Control_c, 0, 64, 127
1, 561455, Note_on_c, 0, 55, 70
1, 561478, Note_off_c, 0, 61, 55
1, 561479, Note_off_c, 0, 51, 56
1, 561551, Note_on_c, 0, 46, 67
1, 561566, Note_off_c, 0, 55, 58
1, 561609, Note_on_c, 0, 49, 19
1, 561611, Note_off_c, 0, 46, 63
1, 561667, Note_on_c, 0, 61, 58
1, 561698, Poly_aftertouch_c, 0, 51, 127
1, 561700, Note_on_c, 0, 51, 3
1, 561721, Note_off_c, 0, 61, 60
1, 561739, Note_on_c, 0, 72, 85
1, 561743, Note_on_c, 0, 55, 66
1, 561751, Note_off_c, 0, 51, 42
1, 561766, Note_off_c, 0, 70, 64
1, 561775, Note_off_c, 0, 55, 64
1, 561775, Note_off_c, 0, 49, 20
1, 561900, Note_on_c, 0, 39, 73
1, 561946, Control_c, 0, 64, 92
1, 561961, Control_c, 0, 64, 71
1, 561975, Control_c, 0, 64, 61
1, 561991, Note_on_c, 0, 73, 76
1, 561997, Note_off_c, 0, 72, 62
1, 562005, Control_c, 0, 64, 65
1, 562007, Note_off_c, 0, 39, 64
1, 562020, Control_c, 0, 64, 70
1, 562034, Control_c, 0, 64, 80
1, 562040, Note_off_c, 0, 73, 65
1, 562049, Control_c, 0, 64, 98
1, 562064, Control_c, 0, 64, 127
1, 562071, Poly_aftertouch_c, 0, 73, 0
1, 562079, Note_on_c, 0, 73, 68
1, 562134, Note_off_c, 0, 73, 66
1, 562137, Note_on_c, 0, 61, 49
1, 562140, Note_on_c, 0, 75, 78
1, 562204, Note_on_c, 0, 73, 80
1, 562209, Note_off_c, 0, 75, 62
1, 562222, Note_on_c, 0, 55, 57
1, 562246, Note_off_c, 0, 61, 47
1, 562262, Note_off_c, 0, 73, 59
1, 562282, Note_on_c, 0, 72, 79
1, 562316, Control_c, 0, 64, 100
1, 562323, Note_off_c, 0, 72, 64
1, 562327, Note_on_c, 0, 46, 63
1, 562331, Control_c, 0, 64, 90
1, 562346, Control_c, 0, 64, 93
1, 562354, Note_off_c, 0, 55, 53
1, 562358, Note_on_c, 0, 73, 74
1, 562361, Control_c, 0, 64, 99
1, 562377, Control_c, 0, 64, 110
1, 562392, Control_c, 0, 64, 127
1, 562443, Note_on_c, 0, 61, 54
1, 562447, Note_on_c, 0, 84, 78
1, 562526, Note_on_c, 0, 82, 83
1, 562555, Note_off_c, 0, 84, 62
1, 562561, Note_on_c, 0, 55, 54
1, 562601, Note_off_c, 0, 73, 59
1, 562619, Note_on_c, 0, 79, 76
1, 562635, Note_off_c, 0, 61, 55
1, 562648, Note_off_c, 0, 46, 55
1, 562650, Control_c, 0, 64, 112
1, 562657, Note_off_c, 0, 82, 62
1, 562665, Control_c, 0, 64, 100
1, 562666, Note_on_c, 0, 51, 57
1, 562671, Note_off_c, 0, 79, 66
1, 562680, Control_c, 0, 64, 103
1, 562695, Control_c, 0, 64, 112
1, 562707, Note_on_c, 0, 72, 76
1, 562710, Control_c, 0, 64, 127
1, 562746, Note_off_c, 0, 55, 58
1, 562746, Note_off_c, 0, 72, 62
1, 562768, Note_on_c, 0, 61, 62
1, 562779, Note_on_c, 0, 73, 78
1, 562806, Note_off_c, 0, 73, 66
1, 562836, Note_on_c, 0, 74, 78
1, 562874, Note_on_c, 0, 55, 62
1, 562884, Note_off_c, 0, 74, 63
1, 562893, Note_on_c, 0, 75, 78
1, 562920, Note_off_c, 0, 51, 52
1, 562944, Note_off_c, 0, 75, 62
1, 562952, Note_off_c, 0, 61, 37
1, 562953, Note_on_c, 0, 76, 65
1, 562993, Note_on_c, 0, 46, 63
1, 562995, Note_off_c, 0, 76, 66
1, 563002, Note_on_c, 0, 79, 80
1, 563019, Note_on_c, 0, 77, 36
1, 563021, Control_c, 0, 64, 91
1, 563026, Note_off_c, 0, 55, 62
1, 563036, Control_c, 0, 64, 75
1, 563050, Control_c, 0, 64, 71
1, 563065, Control_c, 0, 64, 74
1, 563070, Note_off_c, 0, 79, 62
1, 563080, Control_c, 0, 64, 83
1, 563095, Control_c, 0, 64, 127
1, 563096, Note_on_c, 0, 61, 56
1, 563104, Note_on_c, 0, 73, 79
1, 563128, Note_off_c, 0, 46, 52
1, 563134, Note_off_c, 0, 77, 63
1, 563138, Poly_aftertouch_c, 0, 49, 127
1, 563164, Note_on_c, 0, 70, 77
1, 563176, Note_off_c, 0, 61, 60
1, 563191, Note_off_c, 0, 73, 64
1, 563194, Note_on_c, 0, 55, 44
1, 563198, Note_off_c, 0, 70, 63
1, 563224, Note_off_c, 0, 55, 61
1, 563227, Note_on_c, 0, 67, 71
1, 563233, Poly_aftertouch_c, 0, 49, 0
1, 563243, Note_off_c, 0, 67, 67
1, 563280, Note_on_c, 0, 62, 81
1, 563331, Note_off_c, 0, 62, 64
1, 563334, Note_on_c, 0, 63, 79
1, 563375, Note_off_c, 0, 63, 60
1, 563404, Note_on_c, 0, 64, 79
1, 563494, Note_on_c, 0, 44, 47
1, 563503, Control_c, 0, 64, 94
1, 563508, Note_off_c, 0, 64, 63
1, 563513, Note_on_c, 0, 65, 82
1, 563518, Control_c, 0, 64, 65
1, 563533, Control_c, 0, 64, 36
1, 563547, Control_c, 0, 64, 0
1, 563592, Control_c, 0, 64, 46
1, 563607, Control_c, 0, 64, 61
1, 563618, Note_off_c, 0, 44, 64
1, 563621, Control_c, 0, 64, 66
1, 563636, Control_c, 0, 64, 72
1, 563651, Control_c, 0, 64, 83
1, 563666, Control_c, 0, 64, 94
1, 563680, Control_c, 0, 64, 105
1, 563695, Control_c, 0, 64, 108
1, 563700, Note_on_c, 0, 60, 53
1, 563710, Control_c, 0, 64, 108
1, 563740, Control_c, 0, 64, 115
1, 563754, Control_c, 0, 64, 127
1, 563784, Control_c, 0, 64, 120
1, 563799, Control_c, 0, 64, 115
1, 563802, Note_on_c, 0, 56, 54
1, 563814, Control_c, 0, 64, 122
1, 563829, Control_c, 0, 64, 127
1, 563848, Note_off_c, 0, 60, 47
1, 563885, Note_on_c, 0, 48, 53
1, 563923, Note_off_c, 0, 56, 54
1, 563962, Control_c, 0, 64, 103
1, 563978, Control_c, 0, 64, 90
1, 563993, Control_c, 0, 64, 89
1, 564008, Control_c, 0, 64, 92
1, 564011, Note_on_c, 0, 60, 54
1, 564023, Control_c, 0, 64, 101
1, 564037, Control_c, 0, 64, 127
1, 564121, Note_on_c, 0, 56, 56
1, 564167, Note_off_c, 0, 48, 37
1, 564181, Note_off_c, 0, 60, 53
1, 564231, Note_on_c, 0, 51, 53
1, 564294, Note_off_c, 0, 56, 52
1, 564339, Note_on_c, 0, 60, 44
1, 564350, Note_off_c, 0, 65, 61
1, 564368, Note_on_c, 0, 63, 67
1, 564422, Note_off_c, 0, 63, 63
1, 564442, Note_on_c, 0, 62, 62
1, 564445, Note_on_c, 0, 56, 50
1, 564489, Note_off_c, 0, 62, 61
1, 564506, Note_on_c, 0, 63, 70
1, 564512, Note_off_c, 0, 51, 31
1, 564514, Note_off_c, 0, 60, 60
1, 564541, Note_off_c, 0, 63, 64
1, 564558, Note_on_c, 0, 48, 57
1, 564578, Note_off_c, 0, 56, 57
1, 564582, Note_on_c, 0, 62, 67
1, 564637, Note_on_c, 0, 63, 64
1, 564649, Note_on_c, 0, 60, 61
1, 564653, Note_off_c, 0, 62, 62
1, 564689, Note_on_c, 0, 65, 64
1, 564701, Note_off_c, 0, 63, 62
1, 564717, Note_off_c, 0, 65, 64
1, 564726, Note_on_c, 0, 56, 57
1, 564729, Note_off_c, 0, 60, 59
1, 564741, Note_off_c, 0, 48, 35
1, 564768, Note_off_c, 0, 56, 66
1, 564808, Note_on_c, 0, 72, 58
1, 564878, Note_off_c, 0, 72, 64
1, 564884, Note_on_c, 0, 68, 64
1, 564931, Note_on_c, 0, 65, 74
1, 564940, Note_off_c, 0, 68, 61
1, 564975, Note_off_c, 0, 65, 61
1, 564999, Note_on_c, 0, 63, 61
1, 565058, Note_off_c, 0, 63, 61
1, 565073, Note_on_c, 0, 44, 44
1, 565075, Control_c, 0, 64, 105
1, 565077, Note_on_c, 0, 60, 62
1, 565090, Control_c, 0, 64, 67
1, 565105, Control_c, 0, 64, 34
1, 565120, Control_c, 0, 64, 0
1, 565164, Control_c, 0, 64, 24
1, 565170, Note_off_c, 0, 44, 64
1, 565179, Control_c, 0, 64, 58
1, 565193, Control_c, 0, 64, 66
1, 565208, Control_c, 0, 64, 70
1, 565223, Control_c, 0, 64, 72
1, 565238, Control_c, 0, 64, 72
1, 565252, Control_c, 0, 64, 73
1, 565267, Control_c, 0, 64, 75
1, 565282, Control_c, 0, 64, 78
1, 565297, Control_c, 0, 64, 78
1, 565326, Control_c, 0, 64, 79
1, 565341, Control_c, 0, 64, 82
1, 565352, Note_on_c, 0, 56, 41
1, 565356, Control_c, 0, 64, 85
1, 565371, Control_c, 0, 64, 85
1, 565378, Note_off_c, 0, 60, 52
1, 565400, Control_c, 0, 64, 86
1, 565415, Control_c, 0, 64, 89
1, 565430, Control_c, 0, 64, 91
1, 565433, Note_on_c, 0, 48, 50
1, 565466, Note_off_c, 0, 56, 54
1, 565474, Control_c, 0, 64, 91
1, 565489, Control_c, 0, 64, 93
1, 565504, Control_c, 0, 64, 96
1, 565555, Note_on_c, 0, 60, 36
1, 565594, Control_c, 0, 64, 96
1, 565609, Control_c, 0, 64, 97
1, 565631, Control_c, 0, 64, 98
1, 565646, Control_c, 0, 64, 99
1, 565668, Note_on_c, 0, 56, 41
1, 565705, Control_c, 0, 64, 101
1, 565714, Note_off_c, 0, 60, 34
1, 565720, Control_c, 0, 64, 102
1, 565743, Note_off_c, 0, 48, 39
1, 565747, Note_on_c, 0, 51, 43
1, 565749, Control_c, 0, 64, 103
1, 565764, Control_c, 0, 64, 103
1, 565779, Control_c, 0, 64, 104
1, 565844, Note_off_c, 0, 56, 43
1, 565848, Note_on_c, 0, 60, 44
1, 565912, Control_c, 0, 64, 105
1, 565927, Control_c, 0, 64, 105
1, 565942, Control_c, 0, 64, 106
1, 565972, Note_on_c, 0, 56, 41
1, 566002, Control_c, 0, 64, 106
1, 566051, Note_off_c, 0, 60, 35
1, 566083, Note_on_c, 0, 48, 43
1, 566105, Control_c, 0, 64, 107
1, 566136, Note_off_c, 0, 56, 33
1, 566175, Note_off_c, 0, 51, 30
1, 566206, Note_on_c, 0, 60, 39
1, 566241, Note_off_c, 0, 48, 39
1, 566253, Control_c, 0, 64, 107
1, 566267, Control_c, 0, 64, 108
1, 566282, Control_c, 0, 64, 108
1, 566292, Note_off_c, 0, 60, 58
1, 566297, Control_c, 0, 64, 112
1, 566312, Control_c, 0, 64, 122
1, 566327, Control_c, 0, 64, 127
1, 566329, Note_on_c, 0, 75, 60
1, 566333, Note_on_c, 0, 56, 41
1, 566342, Note_on_c, 0, 63, 37
1, 566371, Note_off_c, 0, 56, 54
1, 566382, Note_off_c, 0, 63, 49
1, 566470, Note_off_c, 0, 75, 60
1, 566512, Note_on_c, 0, 39, 51
1, 566513, Control_c, 0, 64, 119
1, 566523, Note_on_c, 0, 79, 64
1, 566528, Control_c, 0, 64, 80
1, 566543, Control_c, 0, 64, 65
1, 566550, Note_on_c, 0, 70, 44
1, 566558, Control_c, 0, 64, 61
1, 566568, Note_off_c, 0, 39, 64
1, 566572, Control_c, 0, 64, 62
1, 566587, Control_c, 0, 64, 64
1, 566602, Control_c, 0, 64, 66
1, 566617, Control_c, 0, 64, 69
1, 566632, Control_c, 0, 64, 75
1, 566646, Control_c, 0, 64, 80
1, 566661, Control_c, 0, 64, 82
1, 566667, Note_off_c, 0, 70, 64
1, 566679, Note_off_c, 0, 79, 64
1, 566705, Control_c, 0, 64, 84
1, 566708, Note_on_c, 0, 61, 39
1, 566720, Control_c, 0, 64, 90
1, 566735, Control_c, 0, 64, 98
1, 566750, Control_c, 0, 64, 106
1, 566765, Control_c, 0, 64, 110
1, 566780, Control_c, 0, 64, 110
1, 566789, Note_on_c, 0, 55, 49
1, 566810, Control_c, 0, 64, 112
1, 566820, Note_off_c, 0, 61, 35
1, 566825, Control_c, 0, 64, 112
1, 566840, Control_c, 0, 64, 114
1, 566854, Control_c, 0, 64, 115
1, 566869, Control_c, 0, 64, 116
1, 566881, Note_off_c, 0, 55, 55
1, 566885, Note_on_c, 0, 46, 58
1, 566928, Control_c, 0, 64, 115
1, 566943, Control_c, 0, 64, 115
1, 566987, Control_c, 0, 64, 115
1, 567002, Control_c, 0, 64, 119
1, 567005, Note_on_c, 0, 61, 43
1, 567017, Control_c, 0, 64, 120
1, 567032, Control_c, 0, 64, 122
1, 567061, Control_c, 0, 64, 127
1, 567090, Note_on_c, 0, 80, 72
1, 567110, Note_on_c, 0, 72, 50
1, 567125, Note_on_c, 0, 55, 43
1, 567158, Note_off_c, 0, 72, 59
1, 567248, Control_c, 0, 64, 83
1, 567254, Note_off_c, 0, 61, 38
1, 567263, Control_c, 0, 64, 67
1, 567263, Note_off_c, 0, 80, 60
1, 567264, Note_on_c, 0, 51, 49
1, 567269, Note_on_c, 0, 82, 64
1, 567277, Control_c, 0, 64, 58
1, 567279, Note_on_c, 0, 73, 55
1, 567281, Note_off_c, 0, 46, 42
1, 567292, Control_c, 0, 64, 56
1, 567307, Control_c, 0, 64, 58
1, 567309, Note_off_c, 0, 55, 53
1, 567321, Control_c, 0, 64, 63
1, 567336, Control_c, 0, 64, 67
1, 567351, Control_c, 0, 64, 71
1, 567360, Note_off_c, 0, 73, 56
1, 567366, Control_c, 0, 64, 77
1, 567381, Control_c, 0, 64, 80
1, 567394, Note_on_c, 0, 61, 36
1, 567395, Control_c, 0, 64, 82
1, 567410, Control_c, 0, 64, 84
1, 567425, Control_c, 0, 64, 86
1, 567431, Note_off_c, 0, 82, 60
1, 567440, Control_c, 0, 64, 89
1, 567455, Control_c, 0, 64, 94
1, 567469, Control_c, 0, 64, 99
1, 567484, Control_c, 0, 64, 103
1, 567488, Note_on_c, 0, 55, 48
1, 567492, Note_off_c, 0, 51, 52
1, 567499, Control_c, 0, 64, 104
1, 567499, Control_c, 0, 67, 14
1, 567513, Control_c, 0, 67, 32
1, 567527, Note_off_c, 0, 61, 35
1, 567528, Control_c, 0, 64, 105
1, 567528, Control_c, 0, 67, 48
1, 567543, Control_c, 0, 64, 107
1, 567543, Control_c, 0, 67, 62
1, 567558, Control_c, 0, 64, 111
1, 567558, Control_c, 0, 67, 71
1, 567573, Control_c, 0, 64, 115
1, 567573, Control_c, 0, 67, 77
1, 567588, Control_c, 0, 64, 116
1, 567588, Control_c, 0, 67, 84
1, 567589, Note_on_c, 0, 46, 55
1, 567603, Control_c, 0, 64, 117
1, 567603, Control_c, 0, 67, 90
1, 567610, Note_off_c, 0, 55, 35
1, 567618, Control_c, 0, 67, 100
1, 567632, Control_c, 0, 67, 109
1, 567637, Note_off_c, 0, 46, 62
1, 567647, Control_c, 0, 67, 114
1, 567662, Control_c, 0, 67, 114
1, 567721, Control_c, 0, 67, 115
1, 567728, Note_on_c, 0, 61, 45
1, 567736, Control_c, 0, 64, 119
1, 567736, Control_c, 0, 67, 116
1, 567751, Control_c, 0, 64, 120
1, 567759, Note_off_c, 0, 61, 63
1, 567787, Note_on_c, 0, 55, 50
1, 567793, Note_on_c, 0, 84, 67
1, 567795, Control_c, 0, 64, 122
1, 567810, Note_on_c, 0, 75, 53
1, 567810, Control_c, 0, 64, 127
1, 567817, Note_off_c, 0, 55, 53
1, 567825, Control_c, 0, 67, 117
1, 567848, Note_off_c, 0, 84, 65
1, 567867, Note_off_c, 0, 75, 54
1, 567966, Note_on_c, 0, 39, 49
1, 567966, Control_c, 0, 64, 82
1, 567981, Control_c, 0, 64, 67
1, 567981, Control_c, 0, 67, 117
1, 567996, Control_c, 0, 64, 61
1, 568011, Control_c, 0, 64, 62
1, 568026, Control_c, 0, 64, 63
1, 568026, Control_c, 0, 67, 117
1, 568038, Note_on_c, 0, 77, 58
1, 568041, Control_c, 0, 64, 66
1, 568042, Note_on_c, 0, 85, 66
1, 568056, Control_c, 0, 64, 72
1, 568071, Control_c, 0, 64, 83
1, 568075, Note_off_c, 0, 39, 63
1, 568086, Control_c, 0, 64, 103
1, 568100, Control_c, 0, 64, 127
1, 568104, Note_off_c, 0, 77, 59
1, 568144, Control_c, 0, 67, 117
1, 568182, Note_off_c, 0, 85, 61
1, 568214, Note_on_c, 0, 87, 78
1, 568218, Control_c, 0, 67, 119
1, 568226, Note_on_c, 0, 79, 51
1, 568233, Control_c, 0, 67, 120
1, 568237, Note_on_c, 0, 61, 41
1, 568248, Control_c, 0, 67, 127
1, 568254, Note_off_c, 0, 79, 54
1, 568262, Control_c, 0, 67, 127
1, 568274, Note_off_c, 0, 87, 64
1, 568343, Note_on_c, 0, 89, 75
1, 568345, Note_on_c, 0, 55, 55
1, 568352, Note_on_c, 0, 80, 69
1, 568381, Note_off_c, 0, 80, 66
1, 568392, Note_off_c, 0, 89, 64
1, 568428, Note_off_c, 0, 61, 51
1, 568453, Note_on_c, 0, 91, 80
1, 568473, Note_on_c, 0, 46, 53
1, 568497, Note_off_c, 0, 91, 62
1, 568503, Note_off_c, 0, 55, 49
1, 568547, Poly_aftertouch_c, 0, 82, 0
1, 568556, Note_on_c, 0, 84, 78
1, 568561, Note_on_c, 0, 92, 89
1, 568601, Note_on_c, 0, 61, 48
1, 568601, Note_off_c, 0, 84, 64
1, 568605, Note_off_c, 0, 92, 65
1, 568652, Note_off_c, 0, 46, 35
1, 568676, Note_on_c, 0, 94, 80
1, 568712, Note_on_c, 0, 55, 52
1, 568720, Note_off_c, 0, 94, 64
1, 568789, Note_on_c, 0, 87, 48
1, 568804, Note_on_c, 0, 96, 37
1, 568830, Note_off_c, 0, 87, 63
1, 568834, Note_off_c, 0, 96, 47
1, 568840, Note_off_c, 0, 61, 34
1, 568863, Note_on_c, 0, 51, 55
1, 568893, Note_on_c, 0, 89, 71
1, 568902, Note_on_c, 0, 97, 63
1, 568925, Note_off_c, 0, 55, 55
1, 568941, Note_off_c, 0, 89, 63
1, 568946, Note_off_c, 0, 97, 63
1, 568991, Note_on_c, 0, 94, 70
1, 568992, Note_on_c, 0, 85, 74
1, 568999, Note_on_c, 0, 61, 52
1, 569015, Note_off_c, 0, 85, 71
1, 569020, Note_off_c, 0, 94, 67
1, 569087, Note_on_c, 0, 91, 73
1, 569093, Note_on_c, 0, 82, 68
1, 569101, Note_on_c, 0, 55, 50
1, 569108, Note_off_c, 0, 82, 67
1, 569112, Note_on_c, 0, 89, 52
1, 569130, Note_off_c, 0, 91, 59
1, 569132, Note_off_c, 0, 51, 37
1, 569135, Note_off_c, 0, 89, 37
1, 569168, Note_on_c, 0, 87, 77
1, 569171, Note_off_c, 0, 61, 34
1, 569177, Note_on_c, 0, 79, 75
1, 569191, Note_off_c, 0, 87, 70
1, 569200, Note_off_c, 0, 79, 70
1, 569227, Note_on_c, 0, 46, 56
1, 569279, Note_on_c, 0, 85, 70
1, 569281, Note_off_c, 0, 55, 34
1, 569285, Note_on_c, 0, 77, 61
1, 569305, Note_off_c, 0, 77, 58
1, 569316, Note_off_c, 0, 46, 61
1, 569321, Note_off_c, 0, 85, 54
1, 569356, Note_on_c, 0, 82, 69
1, 569359, Note_on_c, 0, 61, 50
1, 569370, Note_on_c, 0, 73, 75
1, 569391, Note_off_c, 0, 82, 68
1, 569394, Note_off_c, 0, 73, 69
1, 569405, Control_c, 0, 67, 121
1, 569420, Control_c, 0, 67, 100
1, 569435, Control_c, 0, 67, 81
1, 569436, Note_off_c, 0, 61, 57
1, 569443, Note_on_c, 0, 55, 49
1, 569449, Control_c, 0, 67, 66
1, 569464, Control_c, 0, 67, 53
1, 569473, Note_on_c, 0, 79, 73
1, 569479, Control_c, 0, 67, 42
1, 569485, Note_on_c, 0, 70, 62
1, 569487, Note_off_c, 0, 55, 65
1, 569493, Control_c, 0, 67, 31
1, 569508, Control_c, 0, 67, 22
1, 569523, Control_c, 0, 67, 14
1, 569538, Control_c, 0, 67, 8
1, 569553, Note_off_c, 0, 79, 64
1, 569553, Control_c, 0, 67, 0
1, 569558, Note_on_c, 0, 75, 68
1, 569560, Note_on_c, 0, 67, 66
1, 569567, Note_off_c, 0, 70, 63
1, 569591, Note_off_c, 0, 67, 65
1, 569615, Note_off_c, 0, 75, 57
1, 569726, Note_on_c, 0, 44, 42
1, 569756, Note_on_c, 0, 77, 81
1, 569776, Control_c, 0, 64, 77
1, 569776, Note_on_c, 0, 72, 61
1, 569779, Note_on_c, 0, 68, 63
1, 569790, Control_c, 0, 64, 52
1, 569805, Control_c, 0, 64, 0
1, 569864, Control_c, 0, 64, 45
1, 569871, Note_off_c, 0, 44, 64
1, 569879, Control_c, 0, 64, 59
1, 569894, Control_c, 0, 64, 63
1, 569908, Control_c, 0, 64, 65
1, 569923, Control_c, 0, 64, 68
1, 569938, Control_c, 0, 64, 74
1, 569952, Note_on_c, 0, 60, 50
1, 569953, Control_c, 0, 64, 87
1, 569968, Control_c, 0, 64, 127
1, 570041, Note_on_c, 0, 56, 49
1, 570054, Note_off_c, 0, 60, 54
1, 570077, Note_off_c, 0, 68, 60
1, 570153, Note_on_c, 0, 51, 48
1, 570187, Note_off_c, 0, 56, 63
1, 570191, Note_off_c, 0, 72, 64
1, 570274, Note_on_c, 0, 60, 56
1, 570354, Note_off_c, 0, 51, 62
1, 570393, Note_on_c, 0, 56, 41
1, 570428, Note_off_c, 0, 60, 59
1, 570492, Note_on_c, 0, 51, 53
1, 570504, Note_off_c, 0, 56, 50
1, 570608, Note_on_c, 0, 75, 66
1, 570615, Note_off_c, 0, 77, 56
1, 570655, Note_on_c, 0, 63, 42
1, 570711, Note_on_c, 0, 74, 71
1, 570711, Note_off_c, 0, 75, 63
1, 570716, Note_on_c, 0, 71, 57
1, 570721, Note_off_c, 0, 63, 50
1, 570771, Note_on_c, 0, 60, 51
1, 570784, Note_off_c, 0, 71, 61
1, 570799, Note_on_c, 0, 75, 76
1, 570801, Note_off_c, 0, 74, 62
1, 570813, Note_off_c, 0, 51, 58
1, 570816, Note_on_c, 0, 72, 57
1, 570852, Note_on_c, 0, 56, 56
1, 570881, Note_off_c, 0, 72, 42
1, 570903, Note_off_c, 0, 75, 63
1, 570906, Note_on_c, 0, 74, 77
1, 570911, Note_on_c, 0, 71, 64
1, 570912, Note_off_c, 0, 60, 59
1, 570962, Note_on_c, 0, 63, 52
1, 570971, Note_on_c, 0, 75, 76
1, 570975, Note_off_c, 0, 74, 63
1, 570982, Note_off_c, 0, 71, 56
1, 571019, Note_on_c, 0, 72, 49
1, 571036, Note_off_c, 0, 63, 62
1, 571039, Note_off_c, 0, 75, 62
1, 571057, Note_on_c, 0, 60, 48
1, 571065, Note_on_c, 0, 73, 80
1, 571069, Note_off_c, 0, 72, 66
1, 571076, Note_on_c, 0, 77, 78
1, 571090, Note_off_c, 0, 60, 65
1, 571104, Note_off_c, 0, 56, 63
1, 571118, Note_off_c, 0, 73, 61
1, 571158, Note_on_c, 0, 75, 79
1, 571171, Note_off_c, 0, 77, 61
1, 571174, Note_on_c, 0, 73, 26
1, 571188, Note_on_c, 0, 72, 57
1, 571210, Note_off_c, 0, 72, 61
1, 571210, Note_off_c, 0, 73, 51
1, 571275, Note_off_c, 0, 75, 60
1, 571288, Note_on_c, 0, 72, 60
1, 571303, Control_c, 0, 64, 70
1, 571311, Note_on_c, 0, 68, 60
1, 571317, Note_on_c, 0, 44, 43
1, 571317, Control_c, 0, 64, 37
1, 571332, Control_c, 0, 64, 0
1, 571376, Control_c, 0, 64, 47
1, 571385, Note_off_c, 0, 44, 63
1, 571391, Control_c, 0, 64, 61
1, 571406, Control_c, 0, 64, 64
1, 571421, Control_c, 0, 64, 66
1, 571436, Control_c, 0, 64, 68
1, 571451, Control_c, 0, 64, 73
1, 571466, Control_c, 0, 64, 85
1, 571474, Note_on_c, 0, 60, 48
1, 571481, Control_c, 0, 64, 95
1, 571495, Control_c, 0, 64, 106
1, 571510, Control_c, 0, 64, 127
1, 571570, Note_on_c, 0, 56, 51
1, 571592, Note_off_c, 0, 60, 49
1, 571678, Note_on_c, 0, 51, 51
1, 571714, Note_off_c, 0, 56, 62
1, 571770, Note_off_c, 0, 68, 49
1, 571805, Note_on_c, 0, 60, 56
1, 571824, Note_off_c, 0, 72, 64
1, 571893, Note_off_c, 0, 51, 60
1, 571908, Note_on_c, 0, 56, 47
1, 571928, Note_off_c, 0, 60, 60
1, 572023, Note_off_c, 0, 56, 60
1, 572027, Note_on_c, 0, 51, 60
1, 572147, Note_on_c, 0, 63, 52
1, 572264, Note_on_c, 0, 60, 60
1, 572387, Note_off_c, 0, 63, 36
1, 572396, Note_on_c, 0, 56, 65
1, 572399, Note_off_c, 0, 51, 54
1, 572446, Note_on_c, 0, 84, 95
1, 572449, Note_on_c, 0, 72, 94
1, 572460, Note_off_c, 0, 60, 58
1, 572577, Note_on_c, 0, 63, 63
1, 572651, Note_off_c, 0, 63, 64
1, 572665, Note_on_c, 0, 60, 58
1, 572687, Note_off_c, 0, 60, 61
1, 572691, Note_off_c, 0, 56, 64
1, 572693, Note_off_c, 0, 72, 60
1, 572881, Note_on_c, 0, 36, 75
1, 572884, Note_on_c, 0, 48, 79
1, 572947, Control_c, 0, 64, 93
1, 572960, Note_off_c, 0, 84, 60
1, 572962, Control_c, 0, 64, 64
1, 572973, Note_on_c, 0, 76, 84
1, 572977, Control_c, 0, 64, 43
1, 572992, Control_c, 0, 64, 44
1, 573005, Note_off_c, 0, 36, 63
1, 573007, Control_c, 0, 64, 55
1, 573022, Control_c, 0, 64, 68
1, 573037, Control_c, 0, 64, 101
1, 573052, Control_c, 0, 64, 127
1, 573052, Note_off_c, 0, 48, 62
1, 573124, Note_on_c, 0, 84, 72
1, 573129, Note_on_c, 0, 88, 73
1, 573163, Note_off_c, 0, 76, 62
1, 573199, Note_off_c, 0, 84, 63
1, 573218, Note_on_c, 0, 64, 63
1, 573224, Note_off_c, 0, 88, 64
1, 573241, Note_on_c, 0, 77, 88
1, 573326, Note_on_c, 0, 86, 76
1, 573332, Note_on_c, 0, 89, 76
1, 573343, Note_off_c, 0, 77, 63
1, 573344, Note_on_c, 0, 58, 58
1, 573359, Note_off_c, 0, 64, 50
1, 573398, Note_off_c, 0, 86, 63
1, 573412, Note_off_c, 0, 89, 62
1, 573433, Note_on_c, 0, 78, 89
1, 573442, Note_on_c, 0, 55, 58
1, 573490, Note_off_c, 0, 58, 59
1, 573520, Note_on_c, 0, 87, 77
1, 573548, Note_on_c, 0, 90, 59
1, 573555, Note_on_c, 0, 64, 66
1, 573561, Note_off_c, 0, 78, 62
1, 573603, Note_off_c, 0, 90, 62
1, 573627, Note_on_c, 0, 79, 84
1, 573633, Note_on_c, 0, 58, 56
1, 573672, Note_off_c, 0, 55, 54
1, 573704, Note_on_c, 0, 91, 71
1, 573705, Note_on_c, 0, 88, 64
1, 573712, Note_off_c, 0, 79, 66
1, 573718, Note_off_c, 0, 87, 0
1, 573718, Note_on_c, 0, 87, 6
1, 573740, Note_off_c, 0, 64, 55
1, 573743, Note_off_c, 0, 87, 57
1, 573763, Note_on_c, 0, 52, 65
1, 573763, Note_off_c, 0, 88, 63
1, 573782, Note_off_c, 0, 91, 63
1, 573794, Note_on_c, 0, 80, 87
1, 573807, Note_off_c, 0, 58, 56
1, 573889, Note_on_c, 0, 88, 59
1, 573891, Note_on_c, 0, 64, 57
1, 573892, Note_on_c, 0, 92, 79
1, 573901, Note_on_c, 0, 89, 40
1, 573914, Note_on_c, 0, 90, 30
1, 573919, Note_off_c, 0, 80, 61
1, 573944, Note_off_c, 0, 89, 61
1, 573950, Note_off_c, 0, 88, 64
1, 573958, Note_off_c, 0, 92, 66
1, 573967, Note_on_c, 0, 81, 90
1, 573988, Note_off_c, 0, 90, 32
1, 573996, Note_on_c, 0, 58, 60
1, 574039, Note_off_c, 0, 81, 64
1, 574050, Note_off_c, 0, 64, 61
1, 574057, Note_on_c, 0, 93, 75
1, 574060, Note_on_c, 0, 90, 65
1, 574069, Note_on_c, 0, 55, 66
1, 574088, Note_off_c, 0, 90, 65
1, 574092, Note_on_c, 0, 92, 38
1, 574100, Note_off_c, 0, 93, 61
1, 574116, Note_off_c, 0, 52, 60
1, 574122, Note_on_c, 0, 82, 94
1, 574125, Note_off_c, 0, 92, 33
1, 574137, Note_off_c, 0, 58, 61
1, 574181, Note_on_c, 0, 64, 67
1, 574208, Note_on_c, 0, 94, 85
1, 574213, Note_on_c, 0, 91, 71
1, 574242, Note_off_c, 0, 82, 57
1, 574272, Note_off_c, 0, 91, 55
1, 574274, Note_on_c, 0, 58, 62
1, 574292, Note_off_c, 0, 94, 63
1, 574295, Note_on_c, 0, 83, 92
1, 574326, Note_off_c, 0, 64, 61
1, 574327, Note_off_c, 0, 55, 63
1, 574349, Note_off_c, 0, 83, 65
1, 574363, Note_off_c, 0, 58, 64
1, 574382, Note_on_c, 0, 95, 89
1, 574401, Control_c, 0, 64, 107
1, 574416, Control_c, 0, 64, 113
1, 574431, Control_c, 0, 64, 127
1, 574435, Note_on_c, 0, 47, 82
1, 574446, Note_on_c, 0, 84, 91
1, 574449, Note_off_c, 0, 95, 65
1, 574477, Note_off_c, 0, 47, 63
1, 574538, Note_on_c, 0, 96, 88
1, 574545, Note_on_c, 0, 92, 64
1, 574549, Note_off_c, 0, 84, 64
1, 574564, Note_on_c, 0, 64, 76
1, 574567, Note_on_c, 0, 93, 55
1, 574567, Note_off_c, 0, 92, 60
1, 574587, Note_off_c, 0, 93, 62
1, 574633, Note_on_c, 0, 84, 95
1, 574654, Note_off_c, 0, 96, 68
1, 574666, Note_on_c, 0, 58, 71
1, 574671, Note_on_c, 0, 86, 37
1, 574694, Note_on_c, 0, 93, 69
1, 574696, Note_off_c, 0, 84, 63
1, 574700, Note_off_c, 0, 86, 37
1, 574718, Note_off_c, 0, 64, 42
1, 574723, Note_on_c, 0, 98, 69
1, 574730, Note_off_c, 0, 93, 67
1, 574740, Note_off_c, 0, 98, 63
1, 574742, Note_on_c, 0, 96, 56
1, 574761, Note_off_c, 0, 96, 61
1, 574769, Note_on_c, 0, 55, 69
1, 574778, Control_c, 0, 64, 101
1, 574787, Note_on_c, 0, 87, 110
1, 574793, Control_c, 0, 64, 78
1, 574808, Control_c, 0, 64, 74
1, 574823, Control_c, 0, 64, 84
1, 574834, Note_off_c, 0, 58, 56
1, 574838, Control_c, 0, 64, 127
1, 574867, Note_on_c, 0, 97, 82
1, 574871, Note_on_c, 0, 64, 72
1, 574877, Note_off_c, 0, 87, 62
1, 574879, Note_on_c, 0, 99, 90
1, 574933, Note_off_c, 0, 99, 65
1, 574941, Note_on_c, 0, 85, 96
1, 574949, Note_off_c, 0, 97, 41
1, 574968, Note_on_c, 0, 87, 60
1, 574971, Note_on_c, 0, 58, 63
1, 574986, Note_off_c, 0, 87, 63
1, 575016, Note_on_c, 0, 94, 88
1, 575028, Note_on_c, 0, 97, 79
1, 575035, Note_off_c, 0, 85, 66
1, 575052, Note_off_c, 0, 64, 54
1, 575069, Note_off_c, 0, 94, 64
1, 575079, Note_off_c, 0, 97, 64
1, 575080, Note_on_c, 0, 52, 77
1, 575092, Note_on_c, 0, 84, 98
1, 575120, Note_off_c, 0, 58, 60
1, 575127, Note_off_c, 0, 55, 51
1, 575159, Note_off_c, 0, 84, 58
1, 575164, Note_on_c, 0, 96, 81
1, 575165, Note_on_c, 0, 92, 69
1, 575181, Note_on_c, 0, 64, 73
1, 575206, Note_off_c, 0, 96, 63
1, 575210, Note_off_c, 0, 92, 64
1, 575229, Note_on_c, 0, 82, 99
1, 575252, Note_on_c, 0, 58, 68
1, 575265, Note_off_c, 0, 52, 65
1, 575266, Note_off_c, 0, 64, 63
1, 575293, Note_on_c, 0, 90, 74
1, 575295, Note_off_c, 0, 58, 64
1, 575296, Note_on_c, 0, 94, 93
1, 575299, Note_off_c, 0, 82, 63
1, 575317, Note_off_c, 0, 90, 69
1, 575327, Note_on_c, 0, 91, 56
1, 575356, Note_off_c, 0, 91, 60
1, 575362, Note_on_c, 0, 48, 83
1, 575364, Note_off_c, 0, 94, 64
1, 575375, Note_on_c, 0, 80, 95
1, 575406, Note_off_c, 0, 48, 65
1, 575460, Note_on_c, 0, 92, 90
1, 575470, Note_on_c, 0, 88, 67
1, 575480, Note_on_c, 0, 64, 78
1, 575480, Note_off_c, 0, 80, 64
1, 575513, Note_on_c, 0, 89, 21
1, 575514, Note_off_c, 0, 89, 127
1, 575527, Note_off_c, 0, 88, 63
1, 575529, Note_off_c, 0, 92, 65
1, 575544, Note_on_c, 0, 79, 95
1, 575570, Note_on_c, 0, 58, 72
1, 575571, Note_off_c, 0, 64, 62
1, 575614, Note_on_c, 0, 88, 91
1, 575616, Note_on_c, 0, 91, 96
1, 575617, Note_off_c, 0, 58, 65
1, 575655, Note_on_c, 0, 89, 34
1, 575656, Note_off_c, 0, 89, 127
1, 575666, Note_off_c, 0, 79, 57
1, 575685, Note_off_c, 0, 88, 64
1, 575699, Note_off_c, 0, 91, 65
1, 575811, Note_on_c, 0, 41, 88
1, 575854, Control_c, 0, 64, 108
1, 575865, Note_on_c, 0, 94, 95
1, 575869, Control_c, 0, 64, 58
1, 575871, Note_on_c, 0, 82, 89
1, 575872, Note_on_c, 0, 85, 85
1, 575883, Control_c, 0, 64, 0
1, 575900, Note_on_c, 0, 89, 41
1, 575927, Control_c, 0, 64, 38
1, 575930, Note_off_c, 0, 89, 34
1, 575942, Control_c, 0, 64, 88
1, 575952, Note_off_c, 0, 41, 65
1, 575958, Control_c, 0, 64, 127
1, 576084, Note_on_c, 0, 64, 71
1, 576201, Note_on_c, 0, 61, 69
1, 576253, Note_off_c, 0, 64, 59
1, 576290, Note_on_c, 0, 55, 70
1, 576290, Poly_aftertouch_c, 0, 91, 127
1, 576298, Note_on_c, 0, 53, 65
1, 576334, Note_off_c, 0, 61, 60
1, 576411, Note_on_c, 0, 64, 75
1, 576522, Note_on_c, 0, 61, 77
1, 576613, Note_off_c, 0, 85, 62
1, 576625, Note_off_c, 0, 64, 54
1, 576638, Note_on_c, 0, 58, 86
1, 576685, Poly_aftertouch_c, 0, 91, 0
1, 576691, Note_off_c, 0, 61, 61
1, 576730, Note_off_c, 0, 94, 62
1, 576742, Note_off_c, 0, 82, 64
1, 576814, Note_on_c, 0, 64, 77
1, 576840, Note_on_c, 0, 93, 90
1, 576842, Note_on_c, 0, 81, 98
1, 576852, Note_on_c, 0, 85, 96
1, 576970, Note_off_c, 0, 93, 67
1, 576993, Note_off_c, 0, 81, 66
1, 577022, Note_off_c, 0, 85, 66
1, 577030, Note_on_c, 0, 61, 61
1, 577031, Note_on_c, 0, 91, 5
1, 577060, Note_off_c, 0, 53, 47
1, 577079, Note_off_c, 0, 55, 59
1, 577094, Note_on_c, 0, 85, 98
1, 577096, Note_on_c, 0, 82, 98
1, 577097, Note_on_c, 0, 94, 101
1, 577108, Note_on_c, 0, 89, 37
1, 577108, Note_off_c, 0, 58, 59
1, 577139, Note_off_c, 0, 89, 49
1, 577142, Note_off_c, 0, 91, 48
1, 577208, Note_off_c, 0, 94, 64
1, 577210, Note_off_c, 0, 82, 65
1, 577216, Note_off_c, 0, 85, 61
1, 577231, Note_on_c, 0, 55, 64
1, 577240, Note_on_c, 0, 53, 69
1, 577259, Note_off_c, 0, 64, 57
1, 577271, Note_on_c, 0, 85, 88
1, 577272, Note_on_c, 0, 93, 92
1, 577273, Note_on_c, 0, 81, 97
1, 577279, Note_off_c, 0, 61, 61
1, 577345, Note_off_c, 0, 81, 67
1, 577349, Note_off_c, 0, 93, 67
1, 577386, Note_off_c, 0, 85, 67
1, 577428, Note_on_c, 0, 82, 99
1, 577429, Note_on_c, 0, 94, 99
1, 577431, Note_on_c, 0, 64, 73
1, 577434, Note_on_c, 0, 85, 82
1, 577434, Note_on_c, 0, 91, 56
1, 577469, Note_off_c, 0, 91, 62
1, 577532, Note_off_c, 0, 94, 64
1, 577538, Note_off_c, 0, 82, 62
1, 577544, Note_off_c, 0, 85, 63
1, 577570, Note_on_c, 0, 61, 74
1, 577571, Note_off_c, 0, 64, 65
1, 577607, Note_on_c, 0, 93, 95
1, 577609, Note_on_c, 0, 81, 96
1, 577611, Note_on_c, 0, 85, 87
1, 577618, Note_off_c, 0, 61, 62
1, 577629, Note_off_c, 0, 55, 63
1, 577635, Note_off_c, 0, 53, 65
1, 577653, Note_on_c, 0, 91, 7
1, 577687, Note_off_c, 0, 93, 67
1, 577699, Note_off_c, 0, 91, 28
1, 577718, Note_off_c, 0, 81, 64
1, 577736, Note_off_c, 0, 85, 62
1, 577825, Note_on_c, 0, 41, 66
1, 577878, Note_on_c, 0, 80, 87
1, 577878, Control_c, 0, 64, 72
1, 577879, Note_on_c, 0, 84, 84
1, 577879, Note_on_c, 0, 92, 92
1, 577893, Control_c, 0, 64, 0
1, 577952, Control_c, 0, 64, 23
1, 577952, Note_off_c, 0, 41, 65
1, 577967, Control_c, 0, 64, 63
1, 577982, Control_c, 0, 64, 74
1, 577997, Control_c, 0, 64, 107
1, 578011, Control_c, 0, 64, 127
1, 578104, Note_on_c, 0, 65, 48
1, 578213, Note_on_c, 0, 60, 37
1, 578254, Note_off_c, 0, 65, 36
1, 578287, Note_on_c, 0, 53, 51
1, 578336, Note_off_c, 0, 60, 37
1, 578432, Note_on_c, 0, 65, 43
1, 578500, Note_off_c, 0, 53, 34
1, 578553, Note_on_c, 0, 60, 38
1, 578623, Note_off_c, 0, 65, 33
1, 578651, Note_on_c, 0, 56, 46
1, 578668, Note_off_c, 0, 60, 52
1, 578789, Note_on_c, 0, 65, 38
1, 578813, Note_off_c, 0, 92, 62
1, 578859, Note_off_c, 0, 84, 61
1, 578890, Note_off_c, 0, 80, 63
1, 578918, Note_on_c, 0, 60, 38
1, 578972, Note_off_c, 0, 65, 35
1, 579040, Note_on_c, 0, 53, 41
1, 579040, Note_off_c, 0, 60, 48
1, 579191, Note_on_c, 0, 65, 36
1, 579324, Note_off_c, 0, 53, 47
1, 579351, Note_on_c, 0, 60, 31
1, 579373, Note_off_c, 0, 56, 12
1, 579379, Note_off_c, 0, 65, 40
1, 579405, Note_off_c, 0, 60, 52
1, 579921, Note_on_c, 0, 44, 39
1, 579946, Control_c, 0, 64, 82
1, 579961, Control_c, 0, 64, 63
1, 579976, Control_c, 0, 64, 36
1, 579991, Control_c, 0, 64, 0
1, 580024, Note_on_c, 0, 77, 40
1, 580036, Control_c, 0, 64, 33
1, 580036, Note_on_c, 0, 68, 28
1, 580051, Control_c, 0, 64, 55
1, 580063, Note_off_c, 0, 44, 59
1, 580066, Control_c, 0, 64, 64
1, 580080, Control_c, 0, 64, 70
1, 580095, Control_c, 0, 64, 83
1, 580110, Control_c, 0, 64, 127
1, 580252, Note_off_c, 0, 77, 54
1, 580274, Note_on_c, 0, 65, 28
1, 580288, Note_off_c, 0, 68, 40
1, 580403, Note_on_c, 0, 60, 41
1, 580432, Note_on_c, 0, 77, 49
1, 580439, Note_on_c, 0, 68, 32
1, 580472, Note_off_c, 0, 65, 38
1, 580529, Note_on_c, 0, 56, 42
1, 580529, Note_off_c, 0, 60, 53
1, 580559, Note_off_c, 0, 77, 55
1, 580576, Note_off_c, 0, 68, 38
1, 580651, Note_on_c, 0, 77, 61
1, 580655, Note_on_c, 0, 65, 43
1, 580660, Note_on_c, 0, 68, 45
1, 580755, Note_off_c, 0, 68, 58
1, 580788, Note_off_c, 0, 56, 37
1, 580795, Note_on_c, 0, 60, 41
1, 580862, Note_off_c, 0, 65, 35
1, 580908, Note_on_c, 0, 79, 59
1, 580931, Note_on_c, 0, 70, 44
1, 580945, Note_on_c, 0, 56, 42
1, 580964, Note_off_c, 0, 60, 52
1, 580981, Note_off_c, 0, 77, 38
1, 581021, Control_c, 0, 64, 86
1, 581036, Control_c, 0, 64, 68
1, 581051, Control_c, 0, 64, 53
1, 581066, Control_c, 0, 64, 39
1, 581073, Note_on_c, 0, 65, 40
1, 581081, Control_c, 0, 64, 30
1, 581110, Control_c, 0, 64, 34
1, 581125, Control_c, 0, 64, 43
1, 581139, Control_c, 0, 64, 52
1, 581154, Control_c, 0, 64, 56
1, 581184, Control_c, 0, 64, 57
1, 581199, Control_c, 0, 64, 59
1, 581213, Control_c, 0, 64, 62
1, 581228, Control_c, 0, 64, 64
1, 581243, Control_c, 0, 64, 65
1, 581258, Control_c, 0, 64, 66
1, 581273, Control_c, 0, 64, 67
1, 581274, Note_on_c, 0, 60, 39
1, 581288, Control_c, 0, 64, 68
1, 581303, Control_c, 0, 64, 69
1, 581318, Control_c, 0, 64, 71
1, 581323, Note_off_c, 0, 65, 35
1, 581333, Control_c, 0, 64, 73
1, 581354, Control_c, 0, 64, 76
1, 581359, Note_off_c, 0, 56, 30
1, 581369, Control_c, 0, 64, 78
1, 581384, Control_c, 0, 64, 80
1, 581386, Poly_aftertouch_c, 0, 58, 0
1, 581399, Control_c, 0, 64, 83
1, 581404, Note_off_c, 0, 70, 48
1, 581414, Control_c, 0, 64, 87
1, 581428, Control_c, 0, 64, 95
1, 581443, Control_c, 0, 64, 112
1, 581458, Control_c, 0, 64, 127
1, 581477, Note_off_c, 0, 60, 33
1, 582031, Note_on_c, 0, 68, 34
1, 582033, Note_on_c, 0, 77, 43
1, 582162, Note_off_c, 0, 79, 46
1, 582251, Note_off_c, 0, 68, 50
1, 582288, Note_on_c, 0, 46, 38
1, 582311, Note_off_c, 0, 77, 33
1, 582311, Control_c, 0, 64, 79
1, 582325, Control_c, 0, 64, 64
1, 582331, Note_on_c, 0, 67, 42
1, 582340, Control_c, 0, 64, 53
1, 582346, Note_on_c, 0, 75, 51
1, 582356, Control_c, 0, 64, 46
1, 582371, Control_c, 0, 64, 49
1, 582386, Control_c, 0, 64, 55
1, 582400, Control_c, 0, 64, 60
1, 582413, Note_off_c, 0, 46, 60
1, 582414, Control_c, 0, 64, 64
1, 582429, Control_c, 0, 64, 69
1, 582444, Control_c, 0, 64, 79
1, 582459, Control_c, 0, 64, 127
1, 582518, Note_on_c, 0, 63, 52
1, 582531, Note_off_c, 0, 75, 63
1, 582537, Note_off_c, 0, 67, 59
1, 582632, Note_on_c, 0, 75, 79
1, 582647, Note_on_c, 0, 67, 56
1, 582648, Note_on_c, 0, 58, 46
1, 582692, Note_off_c, 0, 63, 43
1, 582728, Note_on_c, 0, 55, 50
1, 582775, Note_off_c, 0, 67, 59
1, 582783, Note_off_c, 0, 75, 63
1, 582808, Note_off_c, 0, 58, 35
1, 582864, Note_on_c, 0, 75, 80
1, 582865, Note_on_c, 0, 63, 43
1, 582887, Note_on_c, 0, 67, 65
1, 582954, Note_off_c, 0, 55, 58
1, 582989, Note_on_c, 0, 58, 47
1, 583041, Note_off_c, 0, 67, 53
1, 583076, Note_off_c, 0, 63, 33
1, 583078, Note_off_c, 0, 75, 57
1, 583115, Note_on_c, 0, 77, 72
1, 583115, Note_on_c, 0, 55, 43
1, 583146, Note_on_c, 0, 68, 44
1, 583178, Control_c, 0, 64, 85
1, 583189, Note_off_c, 0, 58, 32
1, 583193, Control_c, 0, 64, 66
1, 583208, Control_c, 0, 64, 52
1, 583222, Control_c, 0, 64, 23
1, 583237, Control_c, 0, 64, 0
1, 583279, Note_on_c, 0, 63, 40
1, 583326, Control_c, 0, 64, 12
1, 583341, Control_c, 0, 64, 18
1, 583356, Control_c, 0, 64, 26
1, 583370, Control_c, 0, 64, 32
1, 583385, Control_c, 0, 64, 38
1, 583400, Control_c, 0, 64, 44
1, 583414, Control_c, 0, 64, 49
1, 583429, Control_c, 0, 64, 54
1, 583444, Control_c, 0, 64, 56
1, 583459, Control_c, 0, 64, 56
1, 583474, Note_on_c, 0, 58, 35
1, 583474, Control_c, 0, 64, 57
1, 583488, Control_c, 0, 64, 59
1, 583503, Control_c, 0, 64, 62
1, 583518, Control_c, 0, 64, 63
1, 583533, Control_c, 0, 64, 64
1, 583548, Control_c, 0, 64, 64
1, 583551, Note_off_c, 0, 63, 36
1, 583562, Control_c, 0, 64, 66
1, 583577, Control_c, 0, 64, 68
1, 583600, Note_off_c, 0, 55, 41
1, 583600, Control_c, 0, 64, 72
1, 583615, Control_c, 0, 64, 76
1, 583629, Control_c, 0, 64, 81
1, 583644, Control_c, 0, 64, 88
1, 583659, Control_c, 0, 64, 102
1, 583674, Control_c, 0, 64, 127
1, 583942, Note_off_c, 0, 58, 60
1, 583971, Note_off_c, 0, 68, 31
1, 584133, Note_on_c, 0, 75, 48
1, 584154, Note_on_c, 0, 67, 40
1, 584192, Note_off_c, 0, 77, 25
1, 584240, Note_off_c, 0, 75, 61
1, 584271, Note_off_c, 0, 67, 57
1, 584404, Note_on_c, 0, 47, 30
1, 584428, Note_on_c, 0, 74, 54
1, 584438, Note_on_c, 0, 68, 43
1, 584439, Control_c, 0, 64, 99
1, 584445, Note_on_c, 0, 65, 43
1, 584453, Control_c, 0, 64, 74
1, 584468, Control_c, 0, 64, 64
1, 584483, Control_c, 0, 64, 62
1, 584498, Control_c, 0, 64, 62
1, 584513, Control_c, 0, 64, 64
1, 584527, Control_c, 0, 64, 69
1, 584531, Note_off_c, 0, 47, 58
1, 584542, Control_c, 0, 64, 80
1, 584557, Control_c, 0, 64, 116
1, 584571, Control_c, 0, 64, 127
1, 584624, Note_off_c, 0, 65, 56
1, 584627, Note_off_c, 0, 68, 59
1, 584630, Note_off_c, 0, 74, 62
1, 584652, Note_on_c, 0, 62, 38
1, 584725, Note_off_c, 0, 62, 50
1, 584746, Note_on_c, 0, 74, 64
1, 584759, Note_on_c, 0, 65, 47
1, 584764, Note_on_c, 0, 56, 41
1, 584764, Note_on_c, 0, 68, 52
1, 584865, Note_on_c, 0, 53, 45
1, 584873, Note_off_c, 0, 56, 38
1, 584878, Note_off_c, 0, 65, 51
1, 584880, Note_off_c, 0, 74, 59
1, 584901, Note_off_c, 0, 68, 33
1, 584989, Note_on_c, 0, 74, 62
1, 584995, Note_on_c, 0, 62, 36
1, 585007, Note_on_c, 0, 65, 47
1, 585037, Note_on_c, 0, 68, 32
1, 585067, Note_off_c, 0, 65, 56
1, 585074, Note_off_c, 0, 53, 42
1, 585078, Note_off_c, 0, 68, 50
1, 585116, Note_off_c, 0, 74, 53
1, 585118, Note_on_c, 0, 56, 39
1, 585168, Note_off_c, 0, 62, 42
1, 585274, Note_on_c, 0, 53, 29
1, 585276, Note_on_c, 0, 73, 57
1, 585296, Note_on_c, 0, 64, 46
1, 585306, Note_on_c, 0, 68, 43
1, 585321, Control_c, 0, 64, 99
1, 585334, Note_off_c, 0, 56, 40
1, 585336, Control_c, 0, 64, 72
1, 585350, Control_c, 0, 64, 61
1, 585365, Control_c, 0, 64, 50
1, 585380, Control_c, 0, 64, 38
1, 585394, Control_c, 0, 64, 29
1, 585409, Control_c, 0, 64, 29
1, 585430, Note_on_c, 0, 62, 17
1, 585439, Control_c, 0, 64, 33
1, 585454, Control_c, 0, 64, 38
1, 585468, Control_c, 0, 64, 42
1, 585483, Control_c, 0, 64, 46
1, 585498, Control_c, 0, 64, 51
1, 585513, Control_c, 0, 64, 53
1, 585528, Control_c, 0, 64, 56
1, 585544, Control_c, 0, 64, 57
1, 585559, Control_c, 0, 64, 59
1, 585573, Control_c, 0, 64, 61
1, 585588, Control_c, 0, 64, 62
1, 585603, Control_c, 0, 64, 63
1, 585617, Control_c, 0, 64, 63
1, 585627, Note_on_c, 0, 56, 33
1, 585632, Control_c, 0, 64, 64
1, 585647, Note_off_c, 0, 62, 40
1, 585647, Control_c, 0, 64, 65
1, 585662, Control_c, 0, 64, 67
1, 585677, Control_c, 0, 64, 69
1, 585691, Control_c, 0, 64, 71
1, 585706, Control_c, 0, 64, 72
1, 585721, Control_c, 0, 64, 74
1, 585727, Note_off_c, 0, 53, 38
1, 585736, Control_c, 0, 64, 78
1, 585751, Control_c, 0, 64, 83
1, 585765, Control_c, 0, 64, 90
1, 585780, Control_c, 0, 64, 97
1, 585795, Control_c, 0, 64, 105
1, 585810, Control_c, 0, 64, 120
1, 585825, Control_c, 0, 64, 127
1, 585864, Note_off_c, 0, 64, 35
1, 585902, Note_off_c, 0, 56, 38
1, 586215, Note_on_c, 0, 74, 41
1, 586242, Note_on_c, 0, 65, 50
1, 586302, Note_off_c, 0, 68, 31
1, 586307, Note_off_c, 0, 65, 51
1, 586365, Note_off_c, 0, 74, 62
1, 586406, Note_off_c, 0, 73, 19
1, 586470, Note_on_c, 0, 66, 42
1, 586571, Note_on_c, 0, 69, 46
1, 586841, Note_on_c, 0, 77, 62
1, 586965, Control_c, 0, 64, 92
1, 586980, Control_c, 0, 64, 72
1, 586995, Control_c, 0, 64, 59
1, 587010, Control_c, 0, 64, 30
1, 587025, Control_c, 0, 64, 0
1, 587054, Control_c, 0, 64, 26
1, 587056, Note_on_c, 0, 48, 41
1, 587069, Control_c, 0, 64, 48
1, 587084, Control_c, 0, 64, 60
1, 587099, Control_c, 0, 64, 64
1, 587113, Control_c, 0, 64, 68
1, 587128, Control_c, 0, 64, 73
1, 587134, Note_off_c, 0, 48, 63
1, 587144, Control_c, 0, 64, 80
1, 587159, Control_c, 0, 64, 89
1, 587174, Control_c, 0, 64, 105
1, 587189, Control_c, 0, 64, 127
1, 587270, Note_on_c, 0, 62, 52
1, 587417, Note_on_c, 0, 57, 40
1, 587467, Note_off_c, 0, 62, 61
1, 587528, Note_off_c, 0, 57, 58
1, 587530, Note_on_c, 0, 54, 37
1, 587548, Note_on_c, 0, 75, 54
1, 587667, Note_on_c, 0, 63, 54
1, 587679, Note_off_c, 0, 54, 35
1, 587777, Note_on_c, 0, 57, 42
1, 587805, Note_off_c, 0, 63, 55
1, 587819, Control_c, 0, 64, 101
1, 587834, Control_c, 0, 64, 85
1, 587840, Note_on_c, 0, 54, 47
1, 587840, Note_off_c, 0, 57, 55
1, 587849, Control_c, 0, 64, 79
1, 587878, Control_c, 0, 64, 82
1, 587893, Control_c, 0, 64, 86
1, 587908, Control_c, 0, 64, 96
1, 587923, Control_c, 0, 64, 127
1, 587947, Note_on_c, 0, 64, 61
1, 587957, Note_off_c, 0, 54, 35
1, 588035, Note_on_c, 0, 57, 54
1, 588042, Note_off_c, 0, 66, 32
1, 588093, Control_c, 0, 64, 120
1, 588096, Note_off_c, 0, 64, 61
1, 588108, Control_c, 0, 64, 122
1, 588116, Note_on_c, 0, 54, 57
1, 588120, Note_off_c, 0, 57, 59
1, 588123, Control_c, 0, 64, 127
1, 588217, Note_on_c, 0, 65, 77
1, 588242, Control_c, 0, 64, 102
1, 588257, Control_c, 0, 64, 84
1, 588272, Control_c, 0, 64, 76
1, 588286, Note_off_c, 0, 54, 43
1, 588286, Control_c, 0, 64, 74
1, 588301, Control_c, 0, 64, 76
1, 588311, Note_on_c, 0, 57, 54
1, 588316, Control_c, 0, 64, 84
1, 588331, Control_c, 0, 64, 100
1, 588346, Control_c, 0, 64, 127
1, 588367, Note_off_c, 0, 65, 63
1, 588408, Note_on_c, 0, 54, 54
1, 588416, Note_off_c, 0, 57, 62
1, 588523, Note_on_c, 0, 66, 65
1, 588523, Control_c, 0, 64, 85
1, 588538, Control_c, 0, 64, 70
1, 588553, Control_c, 0, 64, 64
1, 588567, Control_c, 0, 64, 62
1, 588582, Note_off_c, 0, 54, 28
1, 588582, Control_c, 0, 64, 63
1, 588597, Control_c, 0, 64, 66
1, 588612, Control_c, 0, 64, 72
1, 588626, Note_on_c, 0, 57, 52
1, 588627, Control_c, 0, 64, 84
1, 588632, Note_off_c, 0, 66, 62
1, 588642, Control_c, 0, 64, 110
1, 588657, Control_c, 0, 64, 127
1, 588737, Note_on_c, 0, 54, 46
1, 588773, Note_off_c, 0, 57, 38
1, 588839, Note_on_c, 0, 62, 53
1, 588857, Control_c, 0, 64, 87
1, 588872, Control_c, 0, 64, 71
1, 588887, Control_c, 0, 64, 64
1, 588898, Note_off_c, 0, 75, 33
1, 588902, Control_c, 0, 64, 63
1, 588916, Control_c, 0, 64, 64
1, 588922, Note_off_c, 0, 77, 36
1, 588931, Control_c, 0, 64, 67
1, 588936, Note_off_c, 0, 54, 42
1, 588946, Control_c, 0, 64, 71
1, 588961, Control_c, 0, 64, 77
1, 588971, Note_on_c, 0, 57, 41
1, 588976, Control_c, 0, 64, 86
1, 588977, Note_off_c, 0, 69, 55
1, 588991, Control_c, 0, 64, 95
1, 589006, Control_c, 0, 64, 107
1, 589020, Control_c, 0, 64, 127
1, 589044, Note_off_c, 0, 62, 61
1, 589088, Note_on_c, 0, 54, 41
1, 589170, Note_off_c, 0, 57, 35
1, 589213, Control_c, 0, 64, 102
1, 589228, Note_on_c, 0, 63, 44
1, 589228, Control_c, 0, 64, 75
1, 589242, Control_c, 0, 64, 62
1, 589257, Control_c, 0, 64, 60
1, 589272, Control_c, 0, 64, 63
1, 589287, Control_c, 0, 64, 67
1, 589302, Control_c, 0, 64, 72
1, 589316, Control_c, 0, 64, 80
1, 589331, Control_c, 0, 64, 91
1, 589346, Control_c, 0, 64, 115
1, 589361, Control_c, 0, 64, 127
1, 589387, Note_on_c, 0, 57, 49
1, 589450, Control_c, 0, 67, 15
1, 589465, Control_c, 0, 67, 35
1, 589479, Control_c, 0, 67, 54
1, 589480, Note_off_c, 0, 54, 39
1, 589480, Note_off_c, 0, 57, 63
1, 589483, Note_off_c, 0, 63, 36
1, 589494, Control_c, 0, 67, 67
1, 589509, Control_c, 0, 67, 72
1, 589524, Control_c, 0, 67, 74
1, 589539, Control_c, 0, 67, 77
1, 589554, Control_c, 0, 67, 89
1, 589569, Control_c, 0, 67, 102
1, 589592, Control_c, 0, 67, 110
1, 589606, Control_c, 0, 67, 114
1, 589621, Control_c, 0, 67, 117
1, 589636, Control_c, 0, 67, 121
1, 589651, Control_c, 0, 67, 125
1, 589665, Control_c, 0, 67, 127
1, 589695, Control_c, 0, 67, 127
1, 589816, Note_on_c, 0, 49, 35
1, 589828, Control_c, 0, 64, 99
1, 589843, Control_c, 0, 64, 75
1, 589858, Control_c, 0, 64, 63
1, 589873, Control_c, 0, 64, 57
1, 589888, Control_c, 0, 64, 58
1, 589894, Note_on_c, 0, 82, 56
1, 589903, Control_c, 0, 64, 61
1, 589918, Control_c, 0, 64, 63
1, 589923, Note_on_c, 0, 73, 43
1, 589932, Control_c, 0, 64, 65
1, 589947, Control_c, 0, 64, 69
1, 589962, Control_c, 0, 64, 75
1, 589977, Control_c, 0, 64, 81
1, 589979, Note_off_c, 0, 49, 63
1, 589992, Control_c, 0, 64, 89
1, 590006, Control_c, 0, 64, 101
1, 590021, Control_c, 0, 64, 127
1, 590021, Control_c, 0, 67, 127
1, 590086, Note_on_c, 0, 66, 45
1, 590101, Note_off_c, 0, 73, 50
1, 590102, Note_off_c, 0, 82, 63
1, 590125, Control_c, 0, 67, 126
1, 590198, Control_c, 0, 67, 125
1, 590204, Note_on_c, 0, 82, 77
1, 590208, Note_on_c, 0, 61, 44
1, 590213, Control_c, 0, 67, 125
1, 590224, Note_off_c, 0, 66, 37
1, 590225, Note_on_c, 0, 73, 41
1, 590243, Control_c, 0, 67, 124
1, 590272, Control_c, 0, 67, 124
1, 590302, Control_c, 0, 67, 122
1, 590317, Note_off_c, 0, 61, 54
1, 590320, Note_off_c, 0, 73, 48
1, 590321, Note_on_c, 0, 58, 46
1, 590352, Note_off_c, 0, 82, 65
1, 590436, Note_on_c, 0, 82, 89
1, 590440, Note_on_c, 0, 66, 51
1, 590455, Note_on_c, 0, 73, 55
1, 590519, Note_off_c, 0, 58, 59
1, 590553, Note_on_c, 0, 61, 44
1, 590562, Control_c, 0, 67, 123
1, 590582, Note_off_c, 0, 66, 33
1, 590622, Control_c, 0, 67, 124
1, 590636, Control_c, 0, 67, 124
1, 590637, Note_off_c, 0, 73, 34
1, 590683, Note_on_c, 0, 58, 36
1, 590688, Note_off_c, 0, 82, 65
1, 590710, Control_c, 0, 67, 125
1, 590717, Note_on_c, 0, 83, 70
1, 590718, Note_off_c, 0, 61, 34
1, 590738, Note_on_c, 0, 75, 45
1, 590769, Control_c, 0, 67, 127
1, 590799, Control_c, 0, 67, 127
1, 590851, Note_on_c, 0, 66, 44
1, 590887, Control_c, 0, 64, 100
1, 590902, Control_c, 0, 64, 84
1, 590917, Control_c, 0, 64, 73
1, 590932, Control_c, 0, 64, 71
1, 590947, Control_c, 0, 64, 72
1, 590961, Control_c, 0, 64, 73
1, 590976, Control_c, 0, 64, 73
1, 590991, Control_c, 0, 64, 74
1, 591006, Control_c, 0, 64, 76
1, 591021, Control_c, 0, 64, 77
1, 591024, Note_on_c, 0, 61, 39
1, 591065, Control_c, 0, 64, 78
1, 591087, Control_c, 0, 64, 79
1, 591089, Note_off_c, 0, 66, 32
1, 591102, Control_c, 0, 64, 80
1, 591113, Note_off_c, 0, 58, 36
1, 591117, Control_c, 0, 64, 81
1, 591163, Control_c, 0, 64, 82
1, 591178, Control_c, 0, 64, 85
1, 591192, Control_c, 0, 64, 86
1, 591237, Control_c, 0, 64, 86
1, 591252, Control_c, 0, 64, 87
1, 591266, Control_c, 0, 64, 87
1, 591325, Control_c, 0, 64, 89
1, 591337, Note_off_c, 0, 61, 30
1, 591340, Control_c, 0, 64, 91
1, 591400, Control_c, 0, 64, 91
1, 591415, Control_c, 0, 64, 92
1, 591429, Control_c, 0, 64, 93
1, 591474, Control_c, 0, 64, 94
1, 591489, Control_c, 0, 64, 95
1, 591504, Control_c, 0, 64, 97
1, 591518, Control_c, 0, 64, 98
1, 591533, Control_c, 0, 64, 98
1, 591548, Control_c, 0, 64, 99
1, 591563, Control_c, 0, 64, 102
1, 591578, Control_c, 0, 64, 109
1, 591593, Control_c, 0, 64, 112
1, 591622, Control_c, 0, 64, 113
1, 591644, Note_off_c, 0, 75, 40
1, 591697, Control_c, 0, 64, 115
1, 591711, Control_c, 0, 64, 120
1, 591726, Control_c, 0, 64, 127
1, 591859, Note_on_c, 0, 82, 52
1, 591875, Note_on_c, 0, 73, 36
1, 591945, Note_off_c, 0, 83, 39
1, 591966, Note_off_c, 0, 73, 62
1, 592080, Note_on_c, 0, 50, 32
1, 592090, Control_c, 0, 64, 95
1, 592105, Control_c, 0, 64, 68
1, 592120, Control_c, 0, 64, 53
1, 592134, Control_c, 0, 64, 44
1, 592138, Note_on_c, 0, 80, 53
1, 592139, Note_on_c, 0, 71, 46
1, 592164, Control_c, 0, 64, 48
1, 592179, Control_c, 0, 64, 55
1, 592186, Note_off_c, 0, 50, 60
1, 592194, Control_c, 0, 64, 62
1, 592208, Control_c, 0, 64, 68
1, 592214, Note_off_c, 0, 82, 36
1, 592223, Control_c, 0, 64, 77
1, 592238, Control_c, 0, 64, 84
1, 592252, Control_c, 0, 64, 89
1, 592267, Control_c, 0, 64, 94
1, 592282, Control_c, 0, 64, 107
1, 592297, Control_c, 0, 64, 127
1, 592315, Note_off_c, 0, 71, 58
1, 592327, Note_on_c, 0, 68, 41
1, 592341, Note_off_c, 0, 80, 64
1, 592439, Note_on_c, 0, 65, 40
1, 592442, Note_off_c, 0, 68, 36
1, 592463, Note_on_c, 0, 80, 69
1, 592493, Note_on_c, 0, 71, 45
1, 592553, Note_off_c, 0, 71, 53
1, 592580, Note_off_c, 0, 65, 52
1, 592597, Note_off_c, 0, 80, 58
1, 592599, Note_on_c, 0, 59, 35
1, 592708, Note_on_c, 0, 80, 65
1, 592741, Note_on_c, 0, 71, 32
1, 592753, Note_on_c, 0, 68, 28
1, 592815, Note_off_c, 0, 71, 41
1, 592817, Note_off_c, 0, 59, 37
1, 592849, Note_on_c, 0, 65, 34
1, 592870, Note_off_c, 0, 80, 47
1, 592881, Note_off_c, 0, 68, 35
1, 592995, Note_on_c, 0, 82, 57
1, 593004, Note_on_c, 0, 59, 11
1, 593012, Note_off_c, 0, 65, 40
1, 593019, Note_on_c, 0, 73, 39
1, 593074, Control_c, 0, 64, 102
1, 593089, Control_c, 0, 64, 87
1, 593104, Control_c, 0, 64, 84
1, 593119, Control_c, 0, 64, 84
1, 593163, Note_on_c, 0, 68, 41
1, 593193, Control_c, 0, 64, 85
1, 593208, Control_c, 0, 64, 86
1, 593222, Control_c, 0, 64, 87
1, 593281, Control_c, 0, 64, 87
1, 593296, Control_c, 0, 64, 87
1, 593311, Control_c, 0, 64, 87
1, 593334, Control_c, 0, 64, 88
1, 593348, Control_c, 0, 64, 91
1, 593363, Control_c, 0, 64, 91
1, 593365, Note_on_c, 0, 65, 33
1, 593378, Control_c, 0, 64, 92
1, 593388, Note_off_c, 0, 68, 38
1, 593393, Control_c, 0, 64, 92
1, 593408, Control_c, 0, 64, 93
1, 593422, Control_c, 0, 64, 97
1, 593437, Control_c, 0, 64, 100
1, 593452, Control_c, 0, 64, 101
1, 593496, Control_c, 0, 64, 101
1, 593507, Note_off_c, 0, 59, 35
1, 593511, Control_c, 0, 64, 102
1, 593572, Control_c, 0, 64, 103
1, 593583, Note_off_c, 0, 65, 41
1, 593586, Control_c, 0, 64, 103
1, 593601, Control_c, 0, 64, 104
1, 593616, Control_c, 0, 64, 104
1, 593631, Control_c, 0, 64, 105
1, 593646, Control_c, 0, 64, 107
1, 593660, Control_c, 0, 64, 110
1, 593675, Control_c, 0, 64, 115
1, 593690, Control_c, 0, 64, 127
1, 593745, Note_off_c, 0, 73, 41
1, 594079, Note_on_c, 0, 71, 38
1, 594082, Note_on_c, 0, 80, 37
1, 594177, Note_off_c, 0, 71, 60
1, 594332, Note_on_c, 0, 51, 38
1, 594380, Control_c, 0, 64, 107
1, 594392, Note_on_c, 0, 78, 41
1, 594395, Control_c, 0, 64, 78
1, 594407, Note_on_c, 0, 70, 31
1, 594407, Note_off_c, 0, 80, 39
1, 594409, Control_c, 0, 64, 65
1, 594422, Note_off_c, 0, 82, 24
1, 594424, Control_c, 0, 64, 58
1, 594439, Control_c, 0, 64, 56
1, 594454, Control_c, 0, 64, 59
1, 594469, Control_c, 0, 64, 65
1, 594483, Control_c, 0, 64, 72
1, 594489, Note_off_c, 0, 51, 63
1, 594498, Control_c, 0, 64, 81
1, 594513, Control_c, 0, 64, 90
1, 594527, Control_c, 0, 64, 95
1, 594542, Control_c, 0, 64, 98
1, 594557, Control_c, 0, 64, 100
1, 594572, Control_c, 0, 64, 104
1, 594575, Note_on_c, 0, 66, 39
1, 594587, Control_c, 0, 64, 114
1, 594601, Control_c, 0, 64, 127
1, 594604, Note_off_c, 0, 78, 62
1, 594646, Note_off_c, 0, 70, 42
1, 594727, Note_on_c, 0, 63, 36
1, 594740, Note_on_c, 0, 70, 44
1, 594742, Note_on_c, 0, 78, 47
1, 594777, Note_off_c, 0, 66, 31
1, 594834, Note_on_c, 0, 58, 36
1, 594836, Note_off_c, 0, 78, 55
1, 594851, Note_off_c, 0, 70, 48
1, 594922, Note_off_c, 0, 63, 38
1, 594973, Note_on_c, 0, 78, 51
1, 594987, Note_on_c, 0, 66, 28
1, 594991, Note_on_c, 0, 70, 46
1, 595081, Note_off_c, 0, 78, 53
1, 595102, Note_on_c, 0, 63, 33
1, 595109, Note_off_c, 0, 58, 35
1, 595158, Note_off_c, 0, 70, 36
1, 595200, Note_off_c, 0, 66, 36
1, 595253, Note_on_c, 0, 58, 36
1, 595262, Note_on_c, 0, 69, 37
1, 595264, Note_on_c, 0, 77, 53
1, 595346, Note_off_c, 0, 63, 28
1, 595450, Note_on_c, 0, 66, 31
1, 595648, Note_on_c, 0, 63, 39
1, 595668, Note_off_c, 0, 66, 39
1, 595860, Note_off_c, 0, 69, 40
1, 596049, Note_off_c, 0, 58, 26
1, 596289, Note_on_c, 0, 70, 36
1, 596298, Note_on_c, 0, 78, 46
1, 596337, Note_off_c, 0, 77, 60
1, 596368, Note_off_c, 0, 63, 38
1, 596433, Note_off_c, 0, 70, 61
1, 596520, Note_on_c, 0, 69, 35
1, 596598, Note_off_c, 0, 78, 37
1, 596663, Note_on_c, 0, 72, 49
1, 596907, Note_on_c, 0, 80, 67
1, 597026, Control_c, 0, 64, 104
1, 597041, Control_c, 0, 64, 84
1, 597056, Control_c, 0, 64, 70
1, 597078, Control_c, 0, 64, 62
1, 597108, Control_c, 0, 64, 64
1, 597122, Control_c, 0, 64, 66
1, 597128, Note_on_c, 0, 51, 45
1, 597137, Control_c, 0, 64, 70
1, 597152, Control_c, 0, 64, 76
1, 597167, Control_c, 0, 64, 86
1, 597182, Control_c, 0, 64, 97
1, 597196, Control_c, 0, 64, 117
1, 597205, Note_off_c, 0, 51, 61
1, 597211, Control_c, 0, 64, 127
1, 597315, Note_on_c, 0, 65, 46
1, 597424, Note_on_c, 0, 60, 44
1, 597508, Note_off_c, 0, 65, 60
1, 597540, Note_on_c, 0, 78, 50
1, 597543, Note_off_c, 0, 60, 61
1, 597552, Note_on_c, 0, 57, 47
1, 597668, Note_on_c, 0, 66, 65
1, 597706, Note_off_c, 0, 57, 62
1, 597774, Note_on_c, 0, 60, 45
1, 597801, Note_off_c, 0, 66, 56
1, 597820, Note_off_c, 0, 69, 35
1, 597862, Note_off_c, 0, 60, 62
1, 597900, Note_on_c, 0, 57, 36
1, 597968, Note_on_c, 0, 68, 66
1, 597974, Note_off_c, 0, 57, 51
1, 598070, Note_on_c, 0, 60, 50
1, 598152, Note_off_c, 0, 68, 56
1, 598163, Note_off_c, 0, 60, 53
1, 598165, Note_on_c, 0, 57, 46
1, 598240, Note_off_c, 0, 57, 56
1, 598252, Note_on_c, 0, 69, 67
1, 598256, Control_c, 0, 64, 104
1, 598270, Control_c, 0, 64, 84
1, 598285, Control_c, 0, 64, 74
1, 598300, Control_c, 0, 64, 71
1, 598316, Control_c, 0, 64, 71
1, 598331, Control_c, 0, 64, 74
1, 598346, Control_c, 0, 64, 77
1, 598361, Control_c, 0, 64, 80
1, 598364, Note_on_c, 0, 60, 52
1, 598375, Control_c, 0, 64, 81
1, 598390, Control_c, 0, 64, 82
1, 598405, Control_c, 0, 64, 86
1, 598407, Note_off_c, 0, 69, 60
1, 598420, Control_c, 0, 64, 91
1, 598435, Control_c, 0, 64, 98
1, 598446, Note_off_c, 0, 60, 46
1, 598449, Control_c, 0, 64, 105
1, 598464, Control_c, 0, 64, 127
1, 598467, Note_on_c, 0, 57, 23
1, 598551, Note_on_c, 0, 68, 60
1, 598575, Control_c, 0, 64, 107
1, 598590, Control_c, 0, 64, 91
1, 598605, Control_c, 0, 64, 83
1, 598620, Control_c, 0, 64, 80
1, 598635, Control_c, 0, 64, 80
1, 598639, Note_off_c, 0, 57, 45
1, 598649, Control_c, 0, 64, 82
1, 598664, Control_c, 0, 64, 84
1, 598669, Note_on_c, 0, 60, 50
1, 598679, Control_c, 0, 64, 86
1, 598693, Control_c, 0, 64, 87
1, 598708, Control_c, 0, 64, 90
1, 598723, Control_c, 0, 64, 95
1, 598729, Note_off_c, 0, 68, 58
1, 598738, Control_c, 0, 64, 108
1, 598753, Control_c, 0, 64, 127
1, 598765, Note_off_c, 0, 60, 53
1, 598782, Note_on_c, 0, 57, 39
1, 598887, Note_on_c, 0, 66, 49
1, 598902, Control_c, 0, 64, 99
1, 598917, Control_c, 0, 64, 82
1, 598932, Control_c, 0, 64, 74
1, 598947, Control_c, 0, 64, 73
1, 598950, Note_off_c, 0, 80, 52
1, 598961, Control_c, 0, 64, 76
1, 598962, Note_off_c, 0, 57, 60
1, 598976, Control_c, 0, 64, 80
1, 598978, Note_off_c, 0, 78, 34
1, 598980, Note_off_c, 0, 72, 57
1, 598991, Control_c, 0, 64, 87
1, 599006, Control_c, 0, 64, 102
1, 599006, Note_on_c, 0, 60, 46
1, 599021, Control_c, 0, 64, 127
1, 599074, Note_off_c, 0, 66, 60
1, 599118, Note_on_c, 0, 57, 34
1, 599176, Note_off_c, 0, 60, 33
1, 599236, Note_on_c, 0, 65, 41
1, 599273, Control_c, 0, 64, 86
1, 599288, Control_c, 0, 64, 72
1, 599303, Control_c, 0, 64, 66
1, 599325, Control_c, 0, 64, 68
1, 599340, Control_c, 0, 64, 71
1, 599355, Control_c, 0, 64, 74
1, 599370, Control_c, 0, 64, 78
1, 599385, Control_c, 0, 64, 80
1, 599399, Control_c, 0, 64, 80
1, 599410, Note_on_c, 0, 60, 39
1, 599429, Control_c, 0, 64, 81
1, 599430, Note_off_c, 0, 65, 51
1, 599444, Control_c, 0, 64, 83
1, 599459, Control_c, 0, 64, 86
1, 599473, Control_c, 0, 64, 90
1, 599488, Control_c, 0, 64, 92
1, 599503, Control_c, 0, 64, 93
1, 599532, Control_c, 0, 64, 92
1, 599562, Control_c, 0, 64, 93
1, 599651, Control_c, 0, 64, 92
1, 599670, Note_off_c, 0, 57, 33
1, 599725, Control_c, 0, 64, 91
1, 599740, Control_c, 0, 64, 91
1, 599763, Note_off_c, 0, 60, 40
1, 599799, Control_c, 0, 64, 90
1, 599814, Control_c, 0, 64, 89
1, 599829, Control_c, 0, 64, 89
1, 599844, Control_c, 0, 64, 88
1, 599858, Control_c, 0, 64, 87
1, 599871, Note_on_c, 0, 64, 51
1, 599873, Control_c, 0, 64, 86
1, 599888, Control_c, 0, 64, 85
1, 599903, Control_c, 0, 64, 84
1, 599919, Control_c, 0, 64, 84
1, 599934, Control_c, 0, 64, 83
1, 599948, Control_c, 0, 64, 80
1, 599963, Control_c, 0, 64, 76
1, 599978, Control_c, 0, 64, 74
1, 599993, Control_c, 0, 64, 73
1, 600008, Control_c, 0, 64, 73
1, 600022, Control_c, 0, 64, 71
1, 600037, Control_c, 0, 64, 70
1, 600052, Control_c, 0, 64, 66
1, 600074, Control_c, 0, 64, 63
1, 600089, Control_c, 0, 64, 57
1, 600103, Control_c, 0, 64, 49
1, 600118, Control_c, 0, 64, 42
1, 600133, Control_c, 0, 64, 41
1, 600148, Control_c, 0, 64, 44
1, 600163, Control_c, 0, 64, 50
1, 600178, Control_c, 0, 64, 55
1, 600193, Control_c, 0, 64, 58
1, 600208, Control_c, 0, 64, 61
1, 600222, Control_c, 0, 64, 62
1, 600237, Control_c, 0, 64, 63
1, 600252, Control_c, 0, 64, 65
1, 600258, Note_on_c, 0, 44, 40
1, 600267, Control_c, 0, 64, 66
1, 600282, Control_c, 0, 64, 69
1, 600296, Control_c, 0, 64, 72
1, 600311, Control_c, 0, 64, 75
1, 600326, Control_c, 0, 64, 78
1, 600340, Control_c, 0, 64, 80
1, 600348, Note_off_c, 0, 44, 57
1, 600355, Control_c, 0, 64, 83
1, 600370, Control_c, 0, 64, 85
1, 600385, Control_c, 0, 64, 88
1, 600400, Control_c, 0, 64, 90
1, 600414, Control_c, 0, 64, 91
1, 600429, Control_c, 0, 64, 91
1, 600444, Control_c, 0, 64, 93
1, 600453, Note_on_c, 0, 59, 37
1, 600459, Control_c, 0, 64, 98
1, 600473, Control_c, 0, 64, 107
1, 600488, Control_c, 0, 64, 127
1, 600577, Note_on_c, 0, 56, 44
1, 600594, Note_off_c, 0, 59, 37
1, 600626, Note_on_c, 0, 66, 63
1, 600685, Note_off_c, 0, 64, 38
1, 600726, Note_on_c, 0, 52, 51
1, 600729, Note_off_c, 0, 56, 57
1, 600762, Note_on_c, 0, 68, 69
1, 600804, Note_off_c, 0, 52, 58
1, 600853, Note_off_c, 0, 66, 60
1, 600869, Note_on_c, 0, 64, 57
1, 600964, Note_on_c, 0, 59, 49
1, 600982, Note_off_c, 0, 64, 55
1, 601042, Note_on_c, 0, 56, 53
1, 601048, Note_off_c, 0, 59, 58
1, 601100, Note_off_c, 0, 56, 56
1, 601174, Note_on_c, 0, 64, 45
1, 601241, Note_on_c, 0, 69, 77
1, 601275, Note_off_c, 0, 68, 62
1, 601294, Note_off_c, 0, 64, 55
1, 601295, Note_on_c, 0, 59, 56
1, 601353, Note_off_c, 0, 59, 61
1, 601446, Note_on_c, 0, 71, 83
1, 601467, Note_off_c, 0, 69, 65
1, 601600, Control_c, 0, 64, 83
1, 601615, Control_c, 0, 64, 66
1, 601630, Control_c, 0, 64, 56
1, 601645, Control_c, 0, 64, 57
1, 601660, Control_c, 0, 64, 59
1, 601668, Note_on_c, 0, 44, 52
1, 601674, Control_c, 0, 64, 62
1, 601689, Control_c, 0, 64, 66
1, 601704, Control_c, 0, 64, 72
1, 601719, Control_c, 0, 64, 84
1, 601719, Control_c, 0, 67, 127
1, 601734, Control_c, 0, 64, 127
1, 601734, Control_c, 0, 67, 124
1, 601749, Control_c, 0, 67, 121
1, 601752, Note_off_c, 0, 44, 62
1, 601764, Control_c, 0, 67, 115
1, 601779, Control_c, 0, 67, 106
1, 601793, Control_c, 0, 67, 97
1, 601808, Note_on_c, 0, 59, 52
1, 601808, Control_c, 0, 67, 90
1, 601823, Control_c, 0, 67, 83
1, 601838, Control_c, 0, 67, 75
1, 601853, Control_c, 0, 67, 66
1, 601867, Control_c, 0, 67, 56
1, 601882, Control_c, 0, 67, 49
1, 601892, Note_on_c, 0, 56, 59
1, 601897, Control_c, 0, 67, 44
1, 601898, Note_off_c, 0, 71, 62
1, 601907, Note_off_c, 0, 59, 55
1, 601911, Control_c, 0, 67, 42
1, 601926, Control_c, 0, 67, 41
1, 601941, Control_c, 0, 67, 41
1, 601956, Control_c, 0, 67, 39
1, 601971, Control_c, 0, 67, 39
1, 601985, Control_c, 0, 67, 38
1, 601997, Note_on_c, 0, 71, 76
1, 602000, Control_c, 0, 67, 37
1, 602002, Note_on_c, 0, 52, 56
1, 602022, Note_off_c, 0, 71, 68
1, 602030, Note_off_c, 0, 56, 61
1, 602030, Control_c, 0, 67, 37
1, 602065, Note_on_c, 0, 71, 77
1, 602119, Control_c, 0, 67, 37
1, 602129, Note_on_c, 0, 75, 83
1, 602133, Control_c, 0, 67, 38
1, 602135, Note_off_c, 0, 52, 38
1, 602142, Note_on_c, 0, 64, 56
1, 602178, Control_c, 0, 67, 39
1, 602207, Note_on_c, 0, 73, 87
1, 602208, Control_c, 0, 67, 39
1, 602221, Note_off_c, 0, 71, 53
1, 602253, Control_c, 0, 67, 41
1, 602257, Note_on_c, 0, 59, 48
1, 602267, Control_c, 0, 67, 42
1, 602312, Note_off_c, 0, 75, 60
1, 602320, Control_c, 0, 67, 43
1, 602335, Control_c, 0, 67, 44
1, 602342, Note_off_c, 0, 64, 58
1, 602349, Control_c, 0, 67, 46
1, 602364, Control_c, 0, 67, 47
1, 602371, Note_on_c, 0, 56, 56
1, 602379, Control_c, 0, 67, 47
1, 602394, Control_c, 0, 67, 48
1, 602409, Control_c, 0, 67, 51
1, 602423, Control_c, 0, 67, 52
1, 602437, Note_off_c, 0, 59, 41
1, 602438, Control_c, 0, 67, 54
1, 602453, Control_c, 0, 67, 55
1, 602468, Control_c, 0, 67, 57
1, 602483, Control_c, 0, 67, 59
1, 602497, Control_c, 0, 67, 63
1, 602512, Control_c, 0, 67, 64
1, 602551, Note_on_c, 0, 64, 54
1, 602631, Control_c, 0, 67, 66
1, 602646, Control_c, 0, 67, 68
1, 602661, Control_c, 0, 67, 72
1, 602676, Control_c, 0, 67, 77
1, 602691, Control_c, 0, 67, 79
1, 602706, Control_c, 0, 67, 79
1, 602709, Note_on_c, 0, 71, 70
1, 602721, Control_c, 0, 67, 81
1, 602736, Note_off_c, 0, 73, 64
1, 602736, Control_c, 0, 67, 82
1, 602736, Note_off_c, 0, 64, 58
1, 602742, Note_on_c, 0, 59, 43
1, 602750, Control_c, 0, 67, 84
1, 602810, Control_c, 0, 67, 85
1, 602821, Note_off_c, 0, 71, 63
1, 602884, Control_c, 0, 67, 86
1, 602898, Control_c, 0, 67, 87
1, 602913, Note_off_c, 0, 59, 63
1, 602917, Note_on_c, 0, 71, 72
1, 602945, Note_off_c, 0, 56, 64
1, 602963, Note_off_c, 0, 71, 64
1, 602979, Note_on_c, 0, 73, 73
1, 603016, Control_c, 0, 67, 87
1, 603031, Control_c, 0, 67, 89
1, 603037, Note_on_c, 0, 71, 64
1, 603037, Note_off_c, 0, 73, 63
1, 603076, Note_on_c, 0, 72, 38
1, 603084, Control_c, 0, 67, 88
1, 603099, Note_off_c, 0, 71, 64
1, 603108, Note_off_c, 0, 72, 33
1, 603114, Note_on_c, 0, 70, 80
1, 603129, Control_c, 0, 67, 87
1, 603144, Control_c, 0, 67, 87
1, 603159, Control_c, 0, 67, 86
1, 603169, Note_off_c, 0, 70, 63
1, 603188, Control_c, 0, 67, 87
1, 603189, Note_on_c, 0, 71, 70
1, 603218, Control_c, 0, 64, 108
1, 603230, Note_on_c, 0, 45, 49
1, 603233, Control_c, 0, 64, 77
1, 603247, Control_c, 0, 64, 65
1, 603262, Control_c, 0, 64, 61
1, 603281, Note_on_c, 0, 75, 72
1, 603282, Note_off_c, 0, 71, 61
1, 603292, Control_c, 0, 64, 63
1, 603292, Control_c, 0, 67, 86
1, 603307, Control_c, 0, 64, 67
1, 603307, Control_c, 0, 67, 84
1, 603321, Control_c, 0, 64, 72
1, 603321, Control_c, 0, 67, 84
1, 603336, Control_c, 0, 64, 81
1, 603351, Control_c, 0, 64, 93
1, 603351, Control_c, 0, 67, 83
1, 603365, Control_c, 0, 64, 127
1, 603365, Control_c, 0, 67, 81
1, 603368, Note_off_c, 0, 45, 52
1, 603373, Note_on_c, 0, 54, 60
1, 603375, Note_on_c, 0, 80, 62
1, 603380, Control_c, 0, 67, 77
1, 603395, Control_c, 0, 67, 76
1, 603401, Note_off_c, 0, 75, 62
1, 603410, Control_c, 0, 67, 74
1, 603413, Note_off_c, 0, 80, 63
1, 603425, Control_c, 0, 67, 74
1, 603439, Control_c, 0, 67, 72
1, 603445, Note_off_c, 0, 54, 63
1, 603447, Note_on_c, 0, 74, 75
1, 603454, Note_on_c, 0, 59, 65
1, 603454, Control_c, 0, 67, 71
1, 603469, Control_c, 0, 67, 68
1, 603484, Control_c, 0, 67, 67
1, 603499, Control_c, 0, 67, 66
1, 603502, Note_off_c, 0, 74, 62
1, 603502, Note_off_c, 0, 59, 62
1, 603513, Note_on_c, 0, 75, 80
1, 603543, Control_c, 0, 67, 66
1, 603552, Note_on_c, 0, 63, 66
1, 603558, Control_c, 0, 67, 64
1, 603579, Note_on_c, 0, 78, 86
1, 603588, Note_off_c, 0, 75, 62
1, 603618, Control_c, 0, 67, 64
1, 603628, Note_on_c, 0, 66, 78
1, 603633, Control_c, 0, 67, 63
1, 603641, Note_off_c, 0, 63, 64
1, 603645, Note_off_c, 0, 78, 62
1, 603647, Control_c, 0, 67, 62
1, 603648, Note_on_c, 0, 85, 69
1, 603662, Control_c, 0, 67, 62
1, 603677, Control_c, 0, 67, 60
1, 603678, Note_off_c, 0, 85, 63
1, 603690, Note_on_c, 0, 77, 73
1, 603691, Control_c, 0, 67, 59
1, 603706, Control_c, 0, 67, 57
1, 603713, Note_on_c, 0, 71, 76
1, 603721, Control_c, 0, 67, 53
1, 603728, Note_off_c, 0, 66, 62
1, 603736, Control_c, 0, 67, 52
1, 603751, Control_c, 0, 67, 50
1, 603752, Note_off_c, 0, 77, 59
1, 603765, Control_c, 0, 67, 48
1, 603780, Control_c, 0, 67, 42
1, 603793, Note_on_c, 0, 79, 51
1, 603795, Control_c, 0, 64, 85
1, 603795, Control_c, 0, 67, 34
1, 603818, Control_c, 0, 64, 72
1, 603818, Control_c, 0, 67, 32
1, 603833, Note_on_c, 0, 69, 97
1, 603833, Control_c, 0, 64, 67
1, 603841, Note_off_c, 0, 79, 64
1, 603847, Control_c, 0, 64, 68
1, 603847, Control_c, 0, 67, 31
1, 603848, Note_on_c, 0, 83, 76
1, 603857, Note_off_c, 0, 71, 64
1, 603862, Control_c, 0, 64, 74
1, 603862, Control_c, 0, 67, 30
1, 603877, Control_c, 0, 64, 85
1, 603877, Control_c, 0, 67, 29
1, 603891, Control_c, 0, 64, 127
1, 603922, Note_off_c, 0, 83, 64
1, 603922, Control_c, 0, 67, 30
1, 603925, Note_on_c, 0, 85, 79
1, 604026, Control_c, 0, 67, 31
1, 604031, Note_off_c, 0, 85, 60
1, 604041, Control_c, 0, 67, 31
1, 604053, Note_on_c, 0, 82, 82
1, 604085, Note_on_c, 0, 68, 83
1, 604110, Note_off_c, 0, 82, 62
1, 604116, Note_off_c, 0, 69, 65
1, 604127, Note_on_c, 0, 83, 70
1, 604128, Control_c, 0, 67, 32
1, 604143, Control_c, 0, 67, 32
1, 604157, Control_c, 0, 67, 33
1, 604163, Note_on_c, 0, 66, 93
1, 604172, Control_c, 0, 64, 94
1, 604172, Control_c, 0, 67, 34
1, 604177, Note_off_c, 0, 83, 65
1, 604182, Note_off_c, 0, 68, 64
1, 604187, Control_c, 0, 64, 67
1, 604194, Note_on_c, 0, 87, 85
1, 604202, Control_c, 0, 64, 52
1, 604202, Control_c, 0, 67, 34
1, 604217, Control_c, 0, 64, 47
1, 604232, Control_c, 0, 64, 54
1, 604247, Control_c, 0, 64, 63
1, 604261, Control_c, 0, 64, 69
1, 604262, Note_on_c, 0, 92, 87
1, 604263, Note_off_c, 0, 87, 62
1, 604276, Control_c, 0, 64, 83
1, 604291, Control_c, 0, 64, 127
1, 604316, Note_off_c, 0, 92, 66
1, 604326, Note_on_c, 0, 86, 81
1, 604375, Note_off_c, 0, 86, 65
1, 604384, Note_on_c, 0, 87, 82
1, 604448, Note_on_c, 0, 90, 91
1, 604456, Note_off_c, 0, 87, 64
1, 604468, Control_c, 0, 67, 35
1, 604499, Note_off_c, 0, 90, 62
1, 604507, Note_on_c, 0, 97, 83
1, 604563, Note_off_c, 0, 97, 64
1, 604564, Note_on_c, 0, 89, 77
1, 604609, Control_c, 0, 67, 34
1, 604623, Note_on_c, 0, 90, 82
1, 604624, Control_c, 0, 67, 34
1, 604627, Note_off_c, 0, 89, 64
1, 604639, Control_c, 0, 67, 33
1, 604680, Note_off_c, 0, 90, 62
1, 604710, Note_on_c, 0, 95, 88
1, 604713, Note_off_c, 0, 66, 64
1, 604760, Note_off_c, 0, 95, 66
1, 604762, Note_on_c, 0, 97, 82
1, 604773, Control_c, 0, 67, 34
1, 604803, Control_c, 0, 67, 34
1, 604827, Note_on_c, 0, 95, 80
1, 604830, Note_off_c, 0, 97, 61
1, 604832, Control_c, 0, 67, 35
1, 604868, Note_off_c, 0, 95, 65
1, 604879, Note_on_c, 0, 94, 75
1, 604927, Note_on_c, 0, 95, 75
1, 604927, Note_off_c, 0, 94, 64
1, 604950, Control_c, 0, 67, 36
1, 604965, Control_c, 0, 67, 37
1, 604980, Control_c, 0, 67, 37
1, 604992, Note_off_c, 0, 95, 64
1, 604998, Note_on_c, 0, 96, 73
1, 605025, Control_c, 0, 67, 38
1, 605040, Control_c, 0, 67, 39
1, 605043, Note_off_c, 0, 96, 65
1, 605055, Control_c, 0, 67, 40
1, 605056, Note_on_c, 0, 99, 78
1, 605070, Control_c, 0, 67, 41
1, 605123, Note_on_c, 0, 97, 69
1, 605137, Note_off_c, 0, 99, 60
1, 605170, Note_on_c, 0, 93, 74
1, 605186, Note_off_c, 0, 97, 64
1, 605217, Control_c, 0, 67, 40
1, 605222, Note_on_c, 0, 90, 75
1, 605226, Note_off_c, 0, 93, 67
1, 605232, Control_c, 0, 67, 39
1, 605247, Control_c, 0, 67, 39
1, 605250, Note_off_c, 0, 90, 65
1, 605261, Note_on_c, 0, 87, 63
1, 605262, Control_c, 0, 67, 38
1, 605276, Control_c, 0, 67, 37
1, 605320, Note_on_c, 0, 85, 75
1, 605335, Note_off_c, 0, 87, 64
1, 605370, Note_on_c, 0, 81, 59
1, 605412, Note_off_c, 0, 85, 60
1, 605420, Note_on_c, 0, 78, 61
1, 605460, Note_off_c, 0, 81, 60
1, 605470, Note_on_c, 0, 75, 57
1, 605484, Note_off_c, 0, 78, 64
1, 605511, Note_on_c, 0, 73, 69
1, 605577, Note_on_c, 0, 69, 64
1, 605582, Note_off_c, 0, 75, 55
1, 605626, Control_c, 0, 67, 37
1, 605643, Note_off_c, 0, 73, 64
1, 605660, Note_on_c, 0, 66, 53
1, 605663, Note_off_c, 0, 69, 63
1, 605714, Control_c, 0, 67, 38
1, 605744, Control_c, 0, 67, 39
1, 605803, Control_c, 0, 67, 39
1, 605916, Note_off_c, 0, 66, 56
1, 605929, Note_on_c, 0, 64, 62
1, 605937, Control_c, 0, 67, 40
1, 605951, Control_c, 0, 67, 41
1, 605996, Control_c, 0, 64, 110
1, 606011, Control_c, 0, 64, 77
1, 606011, Control_c, 0, 67, 41
1, 606025, Control_c, 0, 64, 64
1, 606040, Control_c, 0, 64, 53
1, 606040, Control_c, 0, 67, 42
1, 606062, Control_c, 0, 64, 37
1, 606077, Control_c, 0, 64, 25
1, 606092, Control_c, 0, 64, 25
1, 606107, Control_c, 0, 64, 29
1, 606122, Control_c, 0, 64, 38
1, 606137, Control_c, 0, 64, 47
1, 606152, Control_c, 0, 64, 55
1, 606166, Control_c, 0, 64, 59
1, 606166, Control_c, 0, 67, 41
1, 606181, Control_c, 0, 64, 62
1, 606181, Control_c, 0, 67, 41
1, 606196, Control_c, 0, 64, 64
1, 606211, Control_c, 0, 64, 66
1, 606226, Control_c, 0, 64, 69
1, 606232, Note_on_c, 0, 44, 37
1, 606240, Control_c, 0, 64, 74
1, 606255, Control_c, 0, 64, 81
1, 606270, Control_c, 0, 64, 90
1, 606284, Control_c, 0, 64, 110
1, 606301, Control_c, 0, 64, 127
1, 606326, Note_off_c, 0, 44, 59
1, 606390, Control_c, 0, 67, 41
1, 606425, Note_on_c, 0, 59, 50
1, 606502, Note_off_c, 0, 59, 57
1, 606515, Note_on_c, 0, 56, 41
1, 606524, Control_c, 0, 67, 41
1, 606561, Note_on_c, 0, 66, 68
1, 606568, Control_c, 0, 67, 40
1, 606582, Control_c, 0, 67, 39
1, 606612, Control_c, 0, 67, 39
1, 606642, Control_c, 0, 67, 38
1, 606652, Note_off_c, 0, 64, 36
1, 606656, Control_c, 0, 67, 37
1, 606661, Note_on_c, 0, 52, 50
1, 606661, Note_off_c, 0, 56, 51
1, 606674, Note_on_c, 0, 68, 77
1, 606686, Control_c, 0, 67, 37
1, 606716, Control_c, 0, 67, 36
1, 606736, Note_off_c, 0, 52, 58
1, 606760, Control_c, 0, 67, 36
1, 606783, Note_off_c, 0, 66, 54
1, 606784, Note_on_c, 0, 64, 64
1, 606842, Control_c, 0, 67, 35
1, 606856, Control_c, 0, 67, 34
1, 606871, Control_c, 0, 67, 32
1, 606873, Note_off_c, 0, 64, 56
1, 606879, Note_on_c, 0, 59, 50
1, 606886, Control_c, 0, 67, 31
1, 606901, Control_c, 0, 67, 29
1, 606915, Control_c, 0, 67, 29
1, 606945, Control_c, 0, 67, 27
1, 606957, Note_on_c, 0, 56, 59
1, 606960, Control_c, 0, 67, 27
1, 606968, Note_off_c, 0, 59, 58
1, 607033, Note_off_c, 0, 56, 60
1, 607064, Control_c, 0, 67, 27
1, 607070, Note_on_c, 0, 64, 56
1, 607109, Control_c, 0, 67, 28
1, 607135, Note_on_c, 0, 69, 75
1, 607138, Control_c, 0, 67, 29
1, 607141, Note_off_c, 0, 68, 60
1, 607153, Control_c, 0, 67, 29
1, 607171, Note_off_c, 0, 64, 59
1, 607184, Note_on_c, 0, 59, 56
1, 607212, Control_c, 0, 67, 30
1, 607227, Note_off_c, 0, 59, 61
1, 607227, Control_c, 0, 67, 31
1, 607242, Control_c, 0, 67, 31
1, 607286, Control_c, 0, 67, 32
1, 607301, Control_c, 0, 67, 32
1, 607332, Note_on_c, 0, 71, 79
1, 607346, Control_c, 0, 67, 33
1, 607372, Note_off_c, 0, 69, 55
1, 607404, Control_c, 0, 67, 34
1, 607464, Control_c, 0, 67, 35
1, 607478, Control_c, 0, 67, 36
1, 607493, Control_c, 0, 67, 36
1, 607508, Control_c, 0, 64, 99
1, 607508, Control_c, 0, 67, 37
1, 607523, Control_c, 0, 64, 69
1, 607538, Control_c, 0, 64, 54
1, 607542, Note_on_c, 0, 44, 54
1, 607560, Control_c, 0, 64, 43
1, 607590, Control_c, 0, 64, 56
1, 607604, Control_c, 0, 64, 66
1, 607619, Control_c, 0, 64, 76
1, 607632, Note_off_c, 0, 44, 63
1, 607634, Control_c, 0, 64, 104
1, 607649, Control_c, 0, 64, 127
1, 607676, Note_on_c, 0, 59, 64
1, 607723, Control_c, 0, 67, 36
1, 607731, Note_off_c, 0, 71, 62
1, 607752, Control_c, 0, 67, 36
1, 607764, Note_on_c, 0, 56, 62
1, 607767, Note_off_c, 0, 59, 58
1, 607782, Control_c, 0, 67, 35
1, 607797, Control_c, 0, 67, 34
1, 607812, Control_c, 0, 67, 34
1, 607818, Note_on_c, 0, 71, 76
1, 607842, Control_c, 0, 67, 33
1, 607843, Note_off_c, 0, 71, 69
1, 607857, Control_c, 0, 67, 32
1, 607873, Note_on_c, 0, 52, 58
1, 607884, Note_on_c, 0, 71, 75
1, 607886, Control_c, 0, 67, 32
1, 607893, Note_off_c, 0, 56, 62
1, 607946, Note_on_c, 0, 75, 83
1, 608000, Note_on_c, 0, 64, 57
1, 608016, Note_on_c, 0, 73, 90
1, 608046, Note_off_c, 0, 71, 59
1, 608050, Control_c, 0, 67, 32
1, 608083, Note_off_c, 0, 75, 60
1, 608092, Note_on_c, 0, 59, 57
1, 608139, Note_off_c, 0, 52, 39
1, 608155, Note_off_c, 0, 64, 55
1, 608212, Note_on_c, 0, 56, 61
1, 608244, Note_off_c, 0, 59, 60
1, 608406, Note_on_c, 0, 64, 55
1, 608413, Control_c, 0, 67, 32
1, 608426, Note_on_c, 0, 71, 76
1, 608474, Note_off_c, 0, 73, 65
1, 608542, Note_on_c, 0, 59, 59
1, 608551, Note_off_c, 0, 71, 64
1, 608559, Note_off_c, 0, 64, 57
1, 608605, Control_c, 0, 67, 31
1, 608641, Note_off_c, 0, 59, 63
1, 608653, Note_on_c, 0, 71, 75
1, 608673, Note_off_c, 0, 56, 65
1, 608705, Note_off_c, 0, 71, 65
1, 608710, Control_c, 0, 67, 31
1, 608719, Note_on_c, 0, 73, 79
1, 608754, Control_c, 0, 67, 30
1, 608780, Note_on_c, 0, 71, 61
1, 608798, Note_off_c, 0, 73, 57
1, 608814, Note_off_c, 0, 71, 62
1, 608831, Note_on_c, 0, 70, 80
1, 608873, Control_c, 0, 67, 31
1, 608896, Note_off_c, 0, 70, 62
1, 608903, Control_c, 0, 67, 31
1, 608909, Note_on_c, 0, 71, 73
1, 608918, Control_c, 0, 64, 104
1, 608932, Control_c, 0, 64, 70
1, 608935, Note_on_c, 0, 44, 51
1, 608947, Control_c, 0, 64, 55
1, 608947, Control_c, 0, 67, 32
1, 608962, Control_c, 0, 64, 48
1, 608976, Control_c, 0, 64, 49
1, 608977, Note_off_c, 0, 71, 57
1, 608989, Note_on_c, 0, 74, 75
1, 608991, Control_c, 0, 64, 55
1, 609006, Control_c, 0, 64, 63
1, 609021, Control_c, 0, 64, 68
1, 609036, Control_c, 0, 64, 78
1, 609058, Control_c, 0, 64, 100
1, 609073, Note_on_c, 0, 53, 62
1, 609073, Control_c, 0, 64, 127
1, 609084, Note_on_c, 0, 80, 76
1, 609084, Note_off_c, 0, 74, 64
1, 609088, Control_c, 0, 67, 32
1, 609102, Note_off_c, 0, 44, 61
1, 609136, Note_off_c, 0, 80, 64
1, 609144, Note_off_c, 0, 53, 63
1, 609166, Note_on_c, 0, 75, 78
1, 609168, Note_on_c, 0, 59, 65
1, 609195, Note_off_c, 0, 59, 66
1, 609201, Note_off_c, 0, 75, 61
1, 609221, Control_c, 0, 67, 32
1, 609224, Note_on_c, 0, 76, 77
1, 609236, Control_c, 0, 67, 31
1, 609250, Note_on_c, 0, 62, 70
1, 609251, Control_c, 0, 67, 30
1, 609279, Note_off_c, 0, 76, 62
1, 609284, Note_on_c, 0, 77, 86
1, 609310, Control_c, 0, 67, 29
1, 609324, Note_on_c, 0, 65, 72
1, 609334, Note_off_c, 0, 77, 63
1, 609340, Note_off_c, 0, 62, 61
1, 609353, Note_on_c, 0, 85, 78
1, 609414, Note_off_c, 0, 65, 64
1, 609421, Note_on_c, 0, 80, 68
1, 609422, Note_on_c, 0, 70, 80
1, 609435, Poly_aftertouch_c, 0, 64, 0
1, 609461, Note_off_c, 0, 85, 63
1, 609532, Note_off_c, 0, 80, 51
1, 609535, Note_on_c, 0, 68, 98
1, 609547, Note_on_c, 0, 83, 83
1, 609547, Control_c, 0, 64, 86
1, 609562, Control_c, 0, 64, 71
1, 609565, Note_off_c, 0, 70, 63
1, 609577, Control_c, 0, 64, 67
1, 609592, Control_c, 0, 64, 69
1, 609607, Control_c, 0, 64, 75
1, 609607, Control_c, 0, 67, 29
1, 609615, Note_off_c, 0, 83, 64
1, 609621, Control_c, 0, 64, 95
1, 609628, Note_on_c, 0, 85, 80
1, 609636, Control_c, 0, 64, 127
1, 609651, Control_c, 0, 67, 29
1, 609681, Control_c, 0, 67, 30
1, 609703, Note_on_c, 0, 82, 82
1, 609708, Note_off_c, 0, 85, 65
1, 609769, Note_off_c, 0, 82, 62
1, 609770, Note_on_c, 0, 83, 78
1, 609776, Note_on_c, 0, 66, 84
1, 609813, Note_off_c, 0, 68, 61
1, 609843, Note_off_c, 0, 83, 64
1, 609858, Note_on_c, 0, 86, 88
1, 609867, Note_on_c, 0, 65, 77
1, 609870, Note_on_c, 0, 64, 83
1, 609874, Note_off_c, 0, 66, 64
1, 609896, Control_c, 0, 64, 86
1, 609905, Note_off_c, 0, 86, 65
1, 609911, Control_c, 0, 64, 63
1, 609917, Note_on_c, 0, 92, 81
1, 609925, Control_c, 0, 64, 51
1, 609940, Control_c, 0, 64, 57
1, 609955, Control_c, 0, 64, 65
1, 609968, Note_off_c, 0, 64, 53
1, 609970, Note_off_c, 0, 92, 63
1, 609970, Control_c, 0, 64, 78
1, 609970, Control_c, 0, 67, 29
1, 609985, Control_c, 0, 64, 127
1, 609985, Control_c, 0, 67, 29
1, 609985, Note_on_c, 0, 87, 90
1, 610014, Control_c, 0, 67, 28
1, 610031, Note_off_c, 0, 87, 62
1, 610041, Note_on_c, 0, 88, 82
1, 610096, Note_off_c, 0, 88, 64
1, 610099, Note_on_c, 0, 89, 94
1, 610146, Note_off_c, 0, 89, 65
1, 610162, Note_on_c, 0, 97, 81
1, 610222, Note_off_c, 0, 97, 64
1, 610222, Control_c, 0, 67, 29
1, 610226, Note_on_c, 0, 92, 93
1, 610252, Control_c, 0, 64, 125
1, 610267, Control_c, 0, 64, 72
1, 610281, Control_c, 0, 64, 59
1, 610293, Note_on_c, 0, 94, 87
1, 610297, Control_c, 0, 64, 58
1, 610308, Note_off_c, 0, 92, 65
1, 610312, Control_c, 0, 64, 62
1, 610312, Control_c, 0, 67, 30
1, 610327, Control_c, 0, 64, 74
1, 610342, Control_c, 0, 64, 127
1, 610357, Control_c, 0, 67, 31
1, 610375, Note_off_c, 0, 94, 63
1, 610376, Note_on_c, 0, 95, 84
1, 610461, Note_off_c, 0, 95, 65
1, 610462, Note_on_c, 0, 97, 81
1, 610490, Control_c, 0, 67, 30
1, 610512, Note_off_c, 0, 97, 64
1, 610519, Control_c, 0, 67, 29
1, 610522, Note_on_c, 0, 95, 87
1, 610557, Control_c, 0, 67, 29
1, 610575, Note_off_c, 0, 65, 61
1, 610576, Note_on_c, 0, 97, 81
1, 610578, Note_off_c, 0, 95, 65
1, 610601, Control_c, 0, 67, 28
1, 610616, Control_c, 0, 67, 27
1, 610623, Note_off_c, 0, 97, 64
1, 610636, Note_on_c, 0, 95, 88
1, 610669, Note_on_c, 0, 97, 81
1, 610677, Note_off_c, 0, 95, 65
1, 610704, Control_c, 0, 67, 27
1, 610724, Note_off_c, 0, 97, 64
1, 610734, Control_c, 0, 67, 28
1, 610741, Note_on_c, 0, 95, 94
1, 610748, Control_c, 0, 67, 29
1, 610796, Note_on_c, 0, 94, 84
1, 610817, Note_off_c, 0, 95, 52
1, 610863, Note_on_c, 0, 95, 61
1, 610894, Note_on_c, 0, 101, 83
1, 610902, Note_off_c, 0, 94, 63
1, 610912, Control_c, 0, 67, 29
1, 610920, Note_off_c, 0, 95, 65
1, 610927, Control_c, 0, 67, 30
1, 610942, Control_c, 0, 64, 86
1, 610942, Note_on_c, 0, 99, 55
1, 610956, Control_c, 0, 64, 66
1, 610966, Note_off_c, 0, 99, 37
1, 610971, Control_c, 0, 64, 62
1, 610972, Note_on_c, 0, 98, 72
1, 610986, Control_c, 0, 64, 64
1, 610999, Note_off_c, 0, 101, 66
1, 611001, Control_c, 0, 64, 69
1, 611014, Note_on_c, 0, 95, 88
1, 611016, Control_c, 0, 64, 86
1, 611030, Control_c, 0, 64, 127
1, 611036, Note_off_c, 0, 98, 67
1, 611064, Note_off_c, 0, 95, 66
1, 611075, Control_c, 0, 67, 29
1, 611076, Note_on_c, 0, 92, 82
1, 611090, Control_c, 0, 67, 28
1, 611100, Note_off_c, 0, 92, 70
1, 611118, Note_on_c, 0, 89, 54
1, 611135, Control_c, 0, 67, 27
1, 611150, Control_c, 0, 67, 27
1, 611158, Note_off_c, 0, 89, 0
1, 611158, Note_on_c, 0, 89, 27
1, 611177, Note_on_c, 0, 86, 69
1, 611179, Control_c, 0, 67, 26
1, 611229, Note_on_c, 0, 83, 54
1, 611272, Note_off_c, 0, 89, 34
1, 611278, Note_off_c, 0, 86, 53
1, 611279, Note_on_c, 0, 80, 62
1, 611324, Note_off_c, 0, 83, 55
1, 611367, Note_off_c, 0, 80, 64
1, 611386, Note_on_c, 0, 77, 51
1, 611477, Note_on_c, 0, 74, 39
1, 611479, Note_off_c, 0, 77, 58
1, 611488, Note_on_c, 0, 76, 49
1, 611523, Note_off_c, 0, 76, 53
1, 611556, Note_off_c, 0, 74, 58
1, 611581, Note_on_c, 0, 71, 57
1, 611685, Note_off_c, 0, 71, 52
1, 611734, Control_c, 0, 67, 27
1, 611741, Note_on_c, 0, 70, 61
1, 611749, Control_c, 0, 64, 92
1, 611749, Control_c, 0, 67, 27
1, 611764, Control_c, 0, 64, 65
1, 611766, Note_off_c, 0, 70, 66
1, 611778, Control_c, 0, 64, 31
1, 611778, Control_c, 0, 67, 28
1, 611793, Control_c, 0, 64, 25
1, 611807, Note_on_c, 0, 70, 61
1, 611808, Control_c, 0, 64, 36
1, 611823, Control_c, 0, 64, 54
1, 611836, Note_off_c, 0, 70, 66
1, 611838, Control_c, 0, 64, 61
1, 611852, Control_c, 0, 64, 65
1, 611867, Control_c, 0, 64, 71
1, 611875, Note_on_c, 0, 70, 64
1, 611882, Control_c, 0, 64, 76
1, 611898, Control_c, 0, 64, 79
1, 611898, Control_c, 0, 67, 27
1, 611900, Note_off_c, 0, 70, 70
1, 611913, Control_c, 0, 64, 79
1, 611913, Control_c, 0, 67, 27
1, 611928, Control_c, 0, 67, 26
1, 611936, Note_on_c, 0, 70, 69
1, 611942, Control_c, 0, 64, 80
1, 611957, Control_c, 0, 64, 82
1, 611972, Control_c, 0, 64, 86
1, 611987, Control_c, 0, 64, 90
1, 611993, Note_off_c, 0, 70, 61
1, 612001, Control_c, 0, 64, 90
1, 612016, Control_c, 0, 64, 90
1, 612017, Note_on_c, 0, 82, 79
1, 612031, Control_c, 0, 64, 89
1, 612069, Note_on_c, 0, 56, 49
1, 612069, Control_c, 0, 64, 89
1, 612098, Control_c, 0, 64, 89
1, 612102, Note_off_c, 0, 82, 62
1, 612113, Note_on_c, 0, 72, 68
1, 612124, Note_on_c, 0, 62, 42
1, 612143, Control_c, 0, 64, 90
1, 612146, Note_on_c, 0, 65, 46
1, 612157, Note_off_c, 0, 72, 61
1, 612164, Note_off_c, 0, 56, 58
1, 612172, Control_c, 0, 64, 89
1, 612194, Note_on_c, 0, 84, 73
1, 612216, Control_c, 0, 64, 90
1, 612216, Control_c, 0, 67, 27
1, 612231, Control_c, 0, 64, 90
1, 612231, Control_c, 0, 67, 27
1, 612235, Note_off_c, 0, 84, 62
1, 612236, Note_on_c, 0, 70, 52
1, 612246, Control_c, 0, 64, 90
1, 612259, Note_on_c, 0, 74, 71
1, 612275, Control_c, 0, 64, 91
1, 612275, Control_c, 0, 67, 28
1, 612286, Note_off_c, 0, 74, 67
1, 612290, Control_c, 0, 64, 92
1, 612298, Note_off_c, 0, 62, 57
1, 612305, Control_c, 0, 64, 93
1, 612307, Note_off_c, 0, 70, 57
1, 612311, Note_off_c, 0, 65, 56
1, 612320, Control_c, 0, 64, 93
1, 612333, Note_on_c, 0, 74, 74
1, 612349, Control_c, 0, 64, 94
1, 612360, Note_off_c, 0, 74, 67
1, 612364, Control_c, 0, 64, 96
1, 612379, Control_c, 0, 64, 98
1, 612394, Control_c, 0, 64, 98
1, 612394, Control_c, 0, 67, 29
1, 612409, Control_c, 0, 64, 99
1, 612412, Note_on_c, 0, 74, 55
1, 612423, Control_c, 0, 64, 100
1, 612435, Note_off_c, 0, 74, 57
1, 612438, Control_c, 0, 64, 105
1, 612453, Control_c, 0, 64, 127
1, 612453, Control_c, 0, 67, 29
1, 612468, Note_on_c, 0, 74, 72
1, 612507, Note_off_c, 0, 74, 62
1, 612537, Note_on_c, 0, 86, 74
1, 612557, Control_c, 0, 67, 29
1, 612572, Control_c, 0, 67, 27
1, 612581, Note_off_c, 0, 86, 62
1, 612600, Note_on_c, 0, 75, 83
1, 612616, Control_c, 0, 67, 29
1, 612631, Control_c, 0, 67, 29
1, 612650, Note_off_c, 0, 75, 62
1, 612661, Control_c, 0, 64, 74
1, 612661, Control_c, 0, 67, 30
1, 612668, Note_on_c, 0, 87, 75
1, 612675, Control_c, 0, 64, 52
1, 612675, Control_c, 0, 67, 31
1, 612691, Control_c, 0, 64, 0
1, 612695, Note_off_c, 0, 87, 69
1, 612706, Control_c, 0, 64, 13
1, 612721, Control_c, 0, 64, 46
1, 612728, Note_on_c, 0, 76, 79
1, 612736, Control_c, 0, 64, 61
1, 612751, Control_c, 0, 64, 65
1, 612751, Note_off_c, 0, 76, 69
1, 612765, Control_c, 0, 64, 69
1, 612780, Control_c, 0, 64, 74
1, 612780, Control_c, 0, 67, 30
1, 612802, Control_c, 0, 64, 79
1, 612802, Control_c, 0, 67, 29
1, 612803, Note_on_c, 0, 76, 85
1, 612817, Control_c, 0, 64, 85
1, 612817, Control_c, 0, 67, 29
1, 612832, Control_c, 0, 64, 91
1, 612836, Note_off_c, 0, 76, 66
1, 612847, Control_c, 0, 64, 98
1, 612847, Control_c, 0, 67, 28
1, 612862, Control_c, 0, 64, 107
1, 612862, Control_c, 0, 67, 27
1, 612873, Note_on_c, 0, 76, 77
1, 612877, Control_c, 0, 64, 127
1, 612877, Control_c, 0, 67, 26
1, 612891, Control_c, 0, 67, 26
1, 612909, Note_off_c, 0, 76, 64
1, 612945, Note_on_c, 0, 76, 70
1, 612996, Note_off_c, 0, 76, 64
1, 613000, Note_on_c, 0, 56, 51
1, 613012, Note_on_c, 0, 88, 80
1, 613024, Control_c, 0, 67, 26
1, 613039, Control_c, 0, 67, 27
1, 613054, Control_c, 0, 67, 27
1, 613058, Note_on_c, 0, 62, 33
1, 613075, Note_off_c, 0, 88, 64
1, 613085, Note_on_c, 0, 65, 46
1, 613087, Note_on_c, 0, 77, 83
1, 613132, Note_off_c, 0, 77, 63
1, 613158, Note_on_c, 0, 89, 81
1, 613162, Note_on_c, 0, 70, 47
1, 613174, Note_off_c, 0, 56, 34
1, 613204, Note_off_c, 0, 89, 62
1, 613225, Note_on_c, 0, 79, 77
1, 613251, Note_off_c, 0, 79, 69
1, 613282, Note_off_c, 0, 70, 57
1, 613288, Note_on_c, 0, 79, 77
1, 613291, Control_c, 0, 67, 28
1, 613306, Note_off_c, 0, 65, 56
1, 613321, Control_c, 0, 67, 29
1, 613329, Note_off_c, 0, 79, 64
1, 613345, Note_off_c, 0, 62, 39
1, 613362, Note_on_c, 0, 79, 68
1, 613386, Note_off_c, 0, 79, 68
1, 613395, Control_c, 0, 67, 29
1, 613424, Control_c, 0, 67, 30
1, 613425, Note_on_c, 0, 79, 88
1, 613469, Note_off_c, 0, 79, 63
1, 613493, Note_on_c, 0, 91, 82
1, 613500, Control_c, 0, 67, 29
1, 613514, Control_c, 0, 67, 29
1, 613529, Control_c, 0, 67, 27
1, 613554, Note_off_c, 0, 91, 59
1, 613565, Note_on_c, 0, 77, 64
1, 613566, Control_c, 0, 67, 27
1, 613581, Control_c, 0, 67, 27
1, 613587, Note_off_c, 0, 77, 56
1, 613591, Note_on_c, 0, 79, 48
1, 613595, Control_c, 0, 67, 29
1, 613610, Control_c, 0, 67, 31
1, 613616, Note_off_c, 0, 79, 39
1, 613625, Control_c, 0, 67, 32
1, 613638, Note_on_c, 0, 91, 39
1, 613640, Note_on_c, 0, 89, 52
1, 613640, Control_c, 0, 64, 75
1, 613655, Control_c, 0, 64, 49
1, 613663, Note_off_c, 0, 89, 53
1, 613664, Note_off_c, 0, 91, 36
1, 613670, Control_c, 0, 64, 0
1, 613681, Note_on_c, 0, 76, 75
1, 613684, Control_c, 0, 67, 30
1, 613699, Control_c, 0, 64, 24
1, 613699, Control_c, 0, 67, 28
1, 613705, Note_off_c, 0, 76, 68
1, 613714, Control_c, 0, 64, 56
1, 613714, Control_c, 0, 67, 27
1, 613729, Control_c, 0, 64, 65
1, 613729, Control_c, 0, 67, 26
1, 613744, Control_c, 0, 64, 74
1, 613744, Control_c, 0, 67, 25
1, 613747, Note_on_c, 0, 76, 84
1, 613759, Control_c, 0, 64, 87
1, 613759, Control_c, 0, 67, 24
1, 613774, Control_c, 0, 64, 106
1, 613774, Control_c, 0, 67, 23
1, 613775, Note_off_c, 0, 76, 66
1, 613789, Control_c, 0, 64, 127
1, 613816, Note_on_c, 0, 76, 77
1, 613818, Control_c, 0, 67, 22
1, 613845, Note_off_c, 0, 76, 69
1, 613863, Control_c, 0, 67, 22
1, 613893, Control_c, 0, 67, 22
1, 613894, Note_on_c, 0, 76, 73
1, 613927, Note_off_c, 0, 76, 56
1, 613954, Note_on_c, 0, 55, 43
1, 613984, Note_on_c, 0, 89, 57
1, 613988, Note_on_c, 0, 88, 53
1, 614004, Note_off_c, 0, 89, 62
1, 614009, Note_off_c, 0, 88, 64
1, 614032, Note_on_c, 0, 61, 38
1, 614039, Note_on_c, 0, 64, 52
1, 614042, Note_on_c, 0, 77, 76
1, 614065, Note_off_c, 0, 55, 38
1, 614078, Note_off_c, 0, 77, 59
1, 614101, Note_on_c, 0, 89, 69
1, 614135, Note_off_c, 0, 89, 63
1, 614142, Note_on_c, 0, 70, 41
1, 614159, Control_c, 0, 67, 23
1, 614171, Note_on_c, 0, 79, 77
1, 614173, Control_c, 0, 67, 24
1, 614188, Control_c, 0, 67, 25
1, 614193, Note_off_c, 0, 70, 64
1, 614195, Note_off_c, 0, 79, 70
1, 614197, Note_off_c, 0, 61, 60
1, 614206, Note_off_c, 0, 64, 62
1, 614236, Note_on_c, 0, 79, 79
1, 614248, Control_c, 0, 67, 26
1, 614263, Control_c, 0, 67, 26
1, 614275, Note_off_c, 0, 79, 64
1, 614278, Control_c, 0, 67, 27
1, 614314, Note_on_c, 0, 79, 64
1, 614338, Note_off_c, 0, 79, 70
1, 614375, Control_c, 0, 67, 27
1, 614379, Note_on_c, 0, 79, 88
1, 614420, Note_off_c, 0, 79, 63
1, 614443, Note_on_c, 0, 91, 78
1, 614478, Control_c, 0, 67, 27
1, 614497, Note_off_c, 0, 91, 64
1, 614511, Note_on_c, 0, 80, 84
1, 614523, Control_c, 0, 67, 27
1, 614538, Control_c, 0, 67, 28
1, 614552, Control_c, 0, 67, 29
1, 614563, Note_off_c, 0, 80, 61
1, 614568, Note_on_c, 0, 92, 83
1, 614582, Control_c, 0, 64, 86
1, 614597, Note_off_c, 0, 92, 66
1, 614597, Control_c, 0, 64, 63
1, 614610, Control_c, 0, 64, 49
1, 614610, Control_c, 0, 67, 28
1, 614625, Control_c, 0, 64, 52
1, 614625, Control_c, 0, 67, 26
1, 614626, Note_on_c, 0, 81, 82
1, 614640, Control_c, 0, 64, 61
1, 614640, Control_c, 0, 67, 24
1, 614655, Note_off_c, 0, 81, 67
1, 614655, Control_c, 0, 64, 71
1, 614655, Control_c, 0, 67, 23
1, 614669, Control_c, 0, 64, 115
1, 614669, Control_c, 0, 67, 22
1, 614684, Control_c, 0, 64, 127
1, 614699, Control_c, 0, 67, 22
1, 614704, Note_on_c, 0, 81, 65
1, 614709, Note_on_c, 0, 79, 57
1, 614714, Control_c, 0, 67, 20
1, 614728, Note_off_c, 0, 79, 64
1, 614729, Control_c, 0, 67, 12
1, 614731, Note_off_c, 0, 81, 68
1, 614743, Control_c, 0, 67, 0
1, 614772, Note_on_c, 0, 81, 79
1, 614793, Note_off_c, 0, 81, 72
1, 614836, Note_on_c, 0, 81, 75
1, 614864, Note_on_c, 0, 53, 62
1, 614868, Note_off_c, 0, 81, 65
1, 614898, Note_on_c, 0, 93, 75
1, 614945, Note_off_c, 0, 53, 49
1, 614957, Note_on_c, 0, 61, 61
1, 614963, Note_off_c, 0, 93, 64
1, 614987, Poly_aftertouch_c, 0, 55, 127
1, 614987, Note_on_c, 0, 82, 80
1, 615014, Poly_aftertouch_c, 0, 55, 0
1, 615054, Note_on_c, 0, 70, 63
1, 615057, Note_off_c, 0, 82, 63
1, 615071, Note_on_c, 0, 94, 67
1, 615106, Note_off_c, 0, 94, 65
1, 615135, Note_on_c, 0, 84, 78
1, 615140, Note_off_c, 0, 70, 63
1, 615160, Note_off_c, 0, 84, 68
1, 615199, Note_on_c, 0, 84, 78
1, 615223, Note_off_c, 0, 61, 58
1, 615234, Note_off_c, 0, 84, 65
1, 615258, Note_on_c, 0, 84, 70
1, 615282, Note_off_c, 0, 84, 70
1, 615325, Note_on_c, 0, 84, 83
1, 615374, Note_off_c, 0, 84, 66
1, 615379, Note_on_c, 0, 96, 80
1, 615425, Note_off_c, 0, 96, 67
1, 615451, Note_on_c, 0, 82, 93
1, 615492, Control_c, 0, 64, 76
1, 615496, Note_off_c, 0, 82, 63
1, 615506, Note_on_c, 0, 94, 82
1, 615507, Control_c, 0, 64, 55
1, 615522, Control_c, 0, 64, 54
1, 615537, Control_c, 0, 64, 59
1, 615549, Note_off_c, 0, 94, 63
1, 615552, Control_c, 0, 64, 67
1, 615566, Control_c, 0, 64, 87
1, 615570, Note_on_c, 0, 81, 85
1, 615581, Control_c, 0, 64, 127
1, 615604, Note_off_c, 0, 81, 65
1, 615637, Note_on_c, 0, 81, 79
1, 615660, Note_on_c, 0, 52, 64
1, 615675, Note_off_c, 0, 81, 68
1, 615697, Note_on_c, 0, 81, 71
1, 615731, Note_off_c, 0, 81, 67
1, 615732, Note_on_c, 0, 58, 62
1, 615733, Note_off_c, 0, 52, 59
1, 615765, Note_on_c, 0, 81, 80
1, 615804, Note_on_c, 0, 61, 69
1, 615813, Note_off_c, 0, 81, 66
1, 615818, Note_off_c, 0, 58, 63
1, 615834, Note_on_c, 0, 93, 84
1, 615861, Note_off_c, 0, 61, 63
1, 615871, Note_on_c, 0, 67, 57
1, 615895, Note_off_c, 0, 93, 66
1, 615910, Note_on_c, 0, 82, 85
1, 615962, Note_off_c, 0, 67, 62
1, 615964, Note_on_c, 0, 70, 73
1, 615964, Note_off_c, 0, 82, 62
1, 615974, Note_on_c, 0, 94, 89
1, 616012, Note_off_c, 0, 94, 62
1, 616035, Note_off_c, 0, 70, 63
1, 616041, Note_on_c, 0, 84, 76
1, 616062, Note_off_c, 0, 84, 71
1, 616092, Note_on_c, 0, 84, 89
1, 616129, Note_off_c, 0, 84, 67
1, 616159, Note_on_c, 0, 84, 80
1, 616182, Note_off_c, 0, 84, 68
1, 616229, Note_on_c, 0, 84, 92
1, 616263, Note_off_c, 0, 84, 67
1, 616274, Note_on_c, 0, 96, 85
1, 616321, Note_off_c, 0, 96, 67
1, 616346, Note_on_c, 0, 82, 95
1, 616390, Note_off_c, 0, 82, 63
1, 616398, Note_on_c, 0, 94, 88
1, 616419, Control_c, 0, 64, 73
1, 616433, Control_c, 0, 64, 59
1, 616445, Note_off_c, 0, 94, 64
1, 616448, Control_c, 0, 64, 63
1, 616463, Control_c, 0, 64, 70
1, 616465, Note_on_c, 0, 81, 85
1, 616478, Control_c, 0, 64, 102
1, 616491, Note_off_c, 0, 81, 67
1, 616493, Control_c, 0, 64, 127
1, 616523, Note_on_c, 0, 81, 89
1, 616571, Note_off_c, 0, 81, 68
1, 616576, Note_on_c, 0, 49, 62
1, 616600, Note_on_c, 0, 81, 85
1, 616634, Note_off_c, 0, 81, 68
1, 616652, Note_on_c, 0, 53, 65
1, 616668, Note_on_c, 0, 81, 87
1, 616683, Note_off_c, 0, 49, 64
1, 616710, Note_off_c, 0, 81, 68
1, 616714, Note_on_c, 0, 58, 69
1, 616729, Note_on_c, 0, 93, 95
1, 616730, Note_off_c, 0, 53, 64
1, 616774, Note_off_c, 0, 58, 65
1, 616785, Note_off_c, 0, 93, 67
1, 616793, Note_on_c, 0, 65, 69
1, 616797, Note_on_c, 0, 82, 100
1, 616851, Note_off_c, 0, 82, 63
1, 616858, Note_off_c, 0, 65, 62
1, 616872, Note_on_c, 0, 92, 75
1, 616880, Note_on_c, 0, 93, 74
1, 616894, Note_on_c, 0, 70, 78
1, 616906, Note_off_c, 0, 93, 70
1, 616920, Note_off_c, 0, 92, 65
1, 616945, Note_on_c, 0, 84, 83
1, 616971, Note_off_c, 0, 84, 62
1, 616978, Note_off_c, 0, 70, 63
1, 616979, Note_on_c, 0, 83, 48
1, 616980, Note_off_c, 0, 83, 127
1, 617000, Note_on_c, 0, 84, 89
1, 617040, Note_off_c, 0, 84, 66
1, 617078, Note_on_c, 0, 84, 83
1, 617102, Note_off_c, 0, 84, 67
1, 617140, Note_on_c, 0, 84, 93
1, 617182, Note_off_c, 0, 84, 68
1, 617194, Note_on_c, 0, 96, 92
1, 617239, Note_off_c, 0, 96, 66
1, 617263, Note_on_c, 0, 82, 98
1, 617321, Note_off_c, 0, 82, 65
1, 617327, Note_on_c, 0, 94, 98
1, 617372, Note_off_c, 0, 94, 66
1, 617423, Note_on_c, 0, 36, 100
1, 617442, Control_c, 0, 64, 69
1, 617457, Control_c, 0, 64, 0
1, 617517, Control_c, 0, 64, 62
1, 617532, Control_c, 0, 64, 108
1, 617547, Control_c, 0, 64, 127
1, 617625, Note_on_c, 0, 48, 87
1, 617630, Note_off_c, 0, 36, 64
1, 617674, Note_off_c, 0, 48, 64
1, 617778, Note_on_c, 0, 52, 91
1, 617791, Note_on_c, 0, 103, 84
1, 617793, Note_on_c, 0, 94, 89
1, 617796, Note_on_c, 0, 97, 84
1, 617842, Note_on_c, 0, 102, 49
1, 617885, Note_off_c, 0, 103, 64
1, 617887, Note_off_c, 0, 94, 62
1, 617905, Note_off_c, 0, 97, 63
1, 617938, Note_on_c, 0, 55, 85
1, 617940, Note_on_c, 0, 96, 77
1, 617942, Note_on_c, 0, 93, 78
1, 617997, Note_off_c, 0, 93, 66
1, 618016, Note_off_c, 0, 96, 65
1, 618030, Note_off_c, 0, 102, 59
1, 618085, Note_on_c, 0, 60, 88
1, 618086, Note_on_c, 0, 101, 85
1, 618087, Note_on_c, 0, 92, 95
1, 618102, Note_on_c, 0, 95, 76
1, 618126, Note_off_c, 0, 52, 67
1, 618138, Note_off_c, 0, 55, 64
1, 618140, Note_off_c, 0, 60, 66
1, 618156, Note_off_c, 0, 101, 65
1, 618159, Note_off_c, 0, 92, 64
1, 618162, Note_off_c, 0, 95, 65
1, 618218, Note_on_c, 0, 100, 89
1, 618221, Note_on_c, 0, 91, 95
1, 618229, Note_on_c, 0, 94, 87
1, 618263, Note_off_c, 0, 91, 66
1, 618287, Note_off_c, 0, 94, 64
1, 618336, Note_on_c, 0, 90, 90
1, 618336, Note_on_c, 0, 93, 86
1, 618337, Note_on_c, 0, 72, 86
1, 618340, Note_on_c, 0, 99, 89
1, 618357, Note_off_c, 0, 100, 65
1, 618359, Note_off_c, 0, 72, 69
1, 618386, Note_off_c, 0, 93, 67
1, 618402, Note_off_c, 0, 90, 63
1, 618412, Note_off_c, 0, 99, 65
1, 618452, Note_on_c, 0, 98, 97
1, 618456, Note_on_c, 0, 89, 86
1, 618457, Note_on_c, 0, 92, 88
1, 618502, Note_off_c, 0, 89, 63
1, 618539, Note_off_c, 0, 92, 60
1, 618552, Note_off_c, 0, 98, 59
1, 618563, Control_c, 0, 64, 107
1, 618573, Note_on_c, 0, 82, 82
1, 618578, Control_c, 0, 64, 97
1, 618590, Note_on_c, 0, 88, 81
1, 618592, Note_on_c, 0, 91, 84
1, 618592, Control_c, 0, 64, 127
1, 618596, Note_on_c, 0, 97, 85
1, 618645, Note_off_c, 0, 88, 66
1, 618661, Note_off_c, 0, 91, 66
1, 618697, Note_off_c, 0, 97, 64
1, 618737, Note_on_c, 0, 96, 87
1, 618741, Note_on_c, 0, 87, 97
1, 618742, Note_on_c, 0, 81, 69
1, 618755, Note_on_c, 0, 90, 75
1, 618758, Note_off_c, 0, 82, 59
1, 618805, Note_off_c, 0, 96, 65
1, 618812, Note_off_c, 0, 87, 62
1, 618830, Note_off_c, 0, 90, 63
1, 618867, Note_on_c, 0, 80, 78
1, 618879, Note_on_c, 0, 95, 101
1, 618880, Note_on_c, 0, 89, 92
1, 618883, Note_on_c, 0, 86, 91
1, 618892, Note_off_c, 0, 81, 62
1, 618925, Note_off_c, 0, 86, 64
1, 618933, Note_off_c, 0, 89, 64
1, 618963, Note_off_c, 0, 95, 65
1, 618998, Note_on_c, 0, 87, 98
1, 618999, Note_on_c, 0, 79, 85
1, 619000, Note_on_c, 0, 85, 90
1, 619005, Note_on_c, 0, 94, 94
1, 619023, Note_off_c, 0, 80, 64
1, 619048, Note_off_c, 0, 85, 63
1, 619059, Control_c, 0, 64, 110
1, 619074, Control_c, 0, 64, 77
1, 619089, Control_c, 0, 64, 72
1, 619092, Note_off_c, 0, 94, 64
1, 619104, Control_c, 0, 64, 78
1, 619108, Note_off_c, 0, 87, 0
1, 619119, Note_on_c, 0, 78, 90
1, 619119, Control_c, 0, 64, 111
1, 619133, Note_on_c, 0, 84, 99
1, 619134, Control_c, 0, 64, 127
1, 619136, Note_on_c, 0, 93, 87
1, 619139, Note_on_c, 0, 95, 87
1, 619145, Poly_aftertouch_c, 0, 87, 127
1, 619147, Note_on_c, 0, 88, 73
1, 619157, Note_off_c, 0, 79, 66
1, 619175, Note_off_c, 0, 84, 69
1, 619193, Poly_aftertouch_c, 0, 87, 0
1, 619193, Note_off_c, 0, 95, 57
1, 619200, Note_off_c, 0, 88, 64
1, 619217, Note_off_c, 0, 93, 66
1, 619249, Note_on_c, 0, 88, 75
1, 619251, Note_on_c, 0, 85, 92
1, 619253, Note_on_c, 0, 94, 94
1, 619257, Note_on_c, 0, 79, 87
1, 619294, Note_off_c, 0, 88, 65
1, 619299, Note_off_c, 0, 85, 64
1, 619321, Note_off_c, 0, 94, 64
1, 619371, Note_off_c, 0, 79, 61
1, 619373, Note_on_c, 0, 92, 89
1, 619374, Note_on_c, 0, 82, 82
1, 619384, Note_on_c, 0, 97, 91
1, 619387, Note_off_c, 0, 78, 60
1, 619389, Note_on_c, 0, 88, 77
1, 619398, Note_on_c, 0, 91, 78
1, 619418, Note_off_c, 0, 88, 64
1, 619418, Note_off_c, 0, 92, 41
1, 619429, Note_off_c, 0, 91, 65
1, 619433, Note_off_c, 0, 97, 64
1, 619433, Note_off_c, 0, 82, 65
1, 619539, Note_on_c, 0, 91, 100
1, 619541, Note_on_c, 0, 76, 84
1, 619543, Note_on_c, 0, 82, 85
1, 619551, Note_on_c, 0, 85, 94
1, 619586, Control_c, 0, 64, 82
1, 619601, Control_c, 0, 64, 63
1, 619615, Control_c, 0, 64, 63
1, 619630, Control_c, 0, 64, 67
1, 619645, Control_c, 0, 64, 84
1, 619659, Control_c, 0, 64, 127
1, 619675, Note_off_c, 0, 85, 0
1, 619688, Note_on_c, 0, 85, 64
1, 619688, Note_off_c, 0, 76, 64
1, 619691, Note_on_c, 0, 94, 88
1, 619691, Note_on_c, 0, 79, 74
1, 619697, Note_on_c, 0, 88, 75
1, 619700, Note_off_c, 0, 91, 61
1, 619702, Note_off_c, 0, 82, 63
1, 619736, Note_off_c, 0, 85, 65
1, 619739, Note_off_c, 0, 79, 66
1, 619743, Note_off_c, 0, 88, 66
1, 619745, Note_off_c, 0, 94, 64
1, 619813, Note_on_c, 0, 78, 85
1, 619823, Note_on_c, 0, 88, 96
1, 619834, Note_on_c, 0, 82, 84
1, 619841, Note_on_c, 0, 73, 71
1, 619868, Note_on_c, 0, 79, 72
1, 619891, Note_off_c, 0, 82, 59
1, 619941, Note_off_c, 0, 78, 61
1, 619944, Note_off_c, 0, 79, 65
1, 619946, Note_on_c, 0, 82, 78
1, 619950, Note_on_c, 0, 85, 74
1, 619952, Note_on_c, 0, 76, 74
1, 619961, Note_off_c, 0, 88, 65
1, 619965, Note_on_c, 0, 91, 81
1, 619988, Note_off_c, 0, 73, 63
1, 620000, Note_off_c, 0, 82, 65
1, 620004, Note_off_c, 0, 91, 62
1, 620007, Note_off_c, 0, 85, 65
1, 620011, Note_off_c, 0, 76, 64
1, 620061, Control_c, 0, 64, 78
1, 620071, Note_on_c, 0, 76, 81
1, 620072, Note_on_c, 0, 85, 97
1, 620075, Note_on_c, 0, 70, 85
1, 620075, Control_c, 0, 64, 68
1, 620078, Note_on_c, 0, 79, 87
1, 620090, Control_c, 0, 64, 69
1, 620105, Control_c, 0, 64, 77
1, 620120, Control_c, 0, 64, 107
1, 620135, Control_c, 0, 64, 127
1, 620139, Note_off_c, 0, 79, 54
1, 620189, Note_on_c, 0, 82, 76
1, 620191, Note_on_c, 0, 79, 54
1, 620192, Note_on_c, 0, 73, 72
1, 620195, Note_on_c, 0, 88, 74
1, 620197, Note_off_c, 0, 76, 62
1, 620209, Note_off_c, 0, 70, 62
1, 620214, Note_off_c, 0, 85, 65
1, 620222, Note_off_c, 0, 88, 68
1, 620224, Note_off_c, 0, 79, 66
1, 620231, Note_off_c, 0, 82, 66
1, 620243, Note_off_c, 0, 73, 64
1, 620307, Note_on_c, 0, 73, 72
1, 620308, Note_on_c, 0, 67, 87
1, 620314, Note_on_c, 0, 82, 98
1, 620317, Note_on_c, 0, 76, 95
1, 620366, Note_off_c, 0, 76, 58
1, 620414, Note_on_c, 0, 79, 77
1, 620421, Note_on_c, 0, 76, 68
1, 620423, Note_on_c, 0, 85, 79
1, 620428, Note_off_c, 0, 67, 61
1, 620435, Note_on_c, 0, 70, 71
1, 620439, Note_off_c, 0, 73, 64
1, 620439, Note_off_c, 0, 82, 60
1, 620460, Note_off_c, 0, 76, 66
1, 620464, Note_off_c, 0, 79, 66
1, 620469, Note_off_c, 0, 70, 67
1, 620471, Note_off_c, 0, 85, 63
1, 620539, Note_on_c, 0, 79, 93
1, 620542, Note_on_c, 0, 70, 86
1, 620543, Note_on_c, 0, 64, 82
1, 620549, Note_on_c, 0, 73, 86
1, 620617, Note_off_c, 0, 64, 62
1, 620651, Note_on_c, 0, 82, 78
1, 620656, Note_on_c, 0, 76, 77
1, 620658, Note_off_c, 0, 79, 61
1, 620665, Note_on_c, 0, 67, 72
1, 620681, Note_off_c, 0, 70, 63
1, 620696, Note_off_c, 0, 73, 65
1, 620696, Note_off_c, 0, 82, 61
1, 620699, Note_off_c, 0, 67, 65
1, 620703, Note_off_c, 0, 76, 65
1, 620720, Control_c, 0, 64, 104
1, 620735, Control_c, 0, 64, 127
1, 620764, Note_on_c, 0, 66, 87
1, 620774, Note_on_c, 0, 61, 78
1, 620777, Note_on_c, 0, 76, 84
1, 620782, Note_on_c, 0, 70, 73
1, 620785, Note_on_c, 0, 75, 53
1, 620811, Note_off_c, 0, 70, 62
1, 620827, Note_on_c, 0, 67, 61
1, 620828, Note_off_c, 0, 75, 0
1, 620862, Note_off_c, 0, 66, 53
1, 620880, Note_off_c, 0, 61, 58
1, 620882, Note_on_c, 0, 79, 76
1, 620885, Note_off_c, 0, 76, 62
1, 620885, Poly_aftertouch_c, 0, 75, 0
1, 620886, Note_on_c, 0, 73, 81
1, 620888, Note_on_c, 0, 64, 76
1, 620889, Note_off_c, 0, 67, 63
1, 620898, Control_c, 0, 64, 104
1, 620913, Control_c, 0, 64, 87
1, 620917, Note_off_c, 0, 79, 62
1, 620928, Control_c, 0, 64, 87
1, 620929, Note_off_c, 0, 64, 60
1, 620935, Note_off_c, 0, 73, 65
1, 620943, Control_c, 0, 64, 106
1, 620958, Control_c, 0, 64, 127
1, 620992, Note_on_c, 0, 64, 76
1, 620993, Note_on_c, 0, 58, 82
1, 620996, Note_on_c, 0, 73, 89
1, 621006, Note_on_c, 0, 67, 78
1, 621065, Note_off_c, 0, 67, 53
1, 621101, Note_on_c, 0, 61, 71
1, 621104, Note_on_c, 0, 70, 75
1, 621114, Note_off_c, 0, 73, 49
1, 621116, Note_on_c, 0, 76, 75
1, 621126, Note_off_c, 0, 64, 62
1, 621131, Note_on_c, 0, 68, 30
1, 621131, Note_off_c, 0, 58, 59
1, 621131, Note_off_c, 0, 70, 63
1, 621139, Note_on_c, 0, 67, 46
1, 621143, Note_off_c, 0, 76, 68
1, 621149, Note_off_c, 0, 61, 61
1, 621158, Note_off_c, 0, 67, 63
1, 621167, Note_off_c, 0, 68, 53
1, 621202, Control_c, 0, 64, 73
1, 621217, Control_c, 0, 64, 58
1, 621230, Note_on_c, 0, 71, 76
1, 621231, Note_on_c, 0, 62, 73
1, 621231, Note_on_c, 0, 77, 74
1, 621232, Control_c, 0, 64, 53
1, 621246, Control_c, 0, 64, 57
1, 621258, Note_on_c, 0, 68, 58
1, 621261, Control_c, 0, 64, 64
1, 621271, Note_off_c, 0, 71, 60
1, 621276, Control_c, 0, 64, 77
1, 621291, Control_c, 0, 64, 127
1, 621295, Note_off_c, 0, 68, 57
1, 621345, Note_off_c, 0, 77, 58
1, 621357, Note_off_c, 0, 62, 58
1, 621359, Note_on_c, 0, 69, 67
1, 621359, Note_on_c, 0, 78, 70
1, 621363, Note_on_c, 0, 72, 72
1, 621364, Note_on_c, 0, 63, 60
1, 621398, Note_off_c, 0, 72, 62
1, 621408, Note_off_c, 0, 69, 59
1, 621412, Note_off_c, 0, 63, 59
1, 621421, Note_off_c, 0, 78, 56
1, 621470, Note_on_c, 0, 79, 77
1, 621474, Note_on_c, 0, 73, 80
1, 621481, Note_on_c, 0, 64, 71
1, 621499, Note_on_c, 0, 70, 64
1, 621515, Note_off_c, 0, 73, 63
1, 621533, Note_off_c, 0, 70, 60
1, 621533, Note_off_c, 0, 79, 59
1, 621538, Note_off_c, 0, 64, 63
1, 621578, Note_on_c, 0, 80, 81
1, 621587, Note_on_c, 0, 74, 77
1, 621598, Note_on_c, 0, 71, 65
1, 621600, Note_on_c, 0, 65, 63
1, 621614, Note_off_c, 0, 74, 64
1, 621637, Note_off_c, 0, 80, 63
1, 621650, Note_off_c, 0, 65, 53
1, 621664, Note_off_c, 0, 71, 61
1, 621674, Note_on_c, 0, 66, 75
1, 621683, Note_on_c, 0, 81, 83
1, 621685, Note_on_c, 0, 76, 82
1, 621724, Note_off_c, 0, 76, 65
1, 621726, Note_off_c, 0, 81, 65
1, 621727, Note_off_c, 0, 66, 63
1, 621775, Note_on_c, 0, 72, 63
1, 621792, Note_on_c, 0, 82, 89
1, 621795, Note_on_c, 0, 77, 90
1, 621795, Note_on_c, 0, 67, 69
1, 621832, Note_off_c, 0, 72, 65
1, 621833, Note_off_c, 0, 77, 62
1, 621843, Note_off_c, 0, 82, 62
1, 621882, Note_on_c, 0, 82, 78
1, 621889, Note_on_c, 0, 77, 77
1, 621891, Note_on_c, 0, 73, 65
1, 621911, Note_on_c, 0, 68, 77
1, 621912, Note_off_c, 0, 67, 59
1, 621914, Note_off_c, 0, 77, 68
1, 621919, Note_off_c, 0, 73, 67
1, 621936, Note_on_c, 0, 74, 56
1, 621938, Note_off_c, 0, 82, 66
1, 621941, Note_off_c, 0, 68, 66
1, 621954, Note_off_c, 0, 74, 62
1, 621981, Control_c, 0, 64, 72
1, 621996, Control_c, 0, 64, 48
1, 622004, Note_on_c, 0, 78, 79
1, 622010, Control_c, 0, 64, 40
1, 622013, Note_on_c, 0, 69, 72
1, 622014, Note_on_c, 0, 83, 66
1, 622014, Note_on_c, 0, 84, 65
1, 622025, Control_c, 0, 64, 54
1, 622028, Note_on_c, 0, 75, 57
1, 622040, Control_c, 0, 64, 66
1, 622055, Control_c, 0, 64, 78
1, 622070, Control_c, 0, 64, 127
1, 622076, Note_off_c, 0, 78, 54
1, 622108, Note_off_c, 0, 75, 62
1, 622128, Note_off_c, 0, 69, 62
1, 622132, Note_on_c, 0, 76, 51
1, 622134, Note_on_c, 0, 79, 61
1, 622137, Note_off_c, 0, 83, 64
1, 622144, Note_on_c, 0, 70, 57
1, 622158, Note_off_c, 0, 79, 65
1, 622159, Note_off_c, 0, 84, 63
1, 622180, Note_off_c, 0, 76, 61
1, 622215, Note_off_c, 0, 70, 61
1, 622219, Note_on_c, 0, 83, 81
1, 622222, Note_on_c, 0, 78, 84
1, 622228, Note_on_c, 0, 75, 70
1, 622239, Note_on_c, 0, 69, 64
1, 622246, Note_off_c, 0, 78, 68
1, 622255, Note_off_c, 0, 83, 62
1, 622284, Note_off_c, 0, 75, 61
1, 622311, Note_on_c, 0, 84, 85
1, 622313, Note_on_c, 0, 79, 80
1, 622320, Note_on_c, 0, 76, 63
1, 622320, Note_off_c, 0, 69, 62
1, 622326, Note_on_c, 0, 70, 69
1, 622335, Note_off_c, 0, 79, 72
1, 622341, Note_off_c, 0, 84, 62
1, 622352, Note_off_c, 0, 76, 66
1, 622365, Note_off_c, 0, 70, 53
1, 622393, Note_on_c, 0, 83, 88
1, 622395, Note_on_c, 0, 75, 76
1, 622398, Note_on_c, 0, 78, 87
1, 622406, Note_on_c, 0, 69, 73
1, 622422, Note_off_c, 0, 78, 67
1, 622436, Note_off_c, 0, 83, 66
1, 622452, Note_off_c, 0, 75, 58
1, 622476, Note_on_c, 0, 76, 74
1, 622478, Note_on_c, 0, 84, 87
1, 622479, Note_on_c, 0, 79, 90
1, 622488, Note_on_c, 0, 70, 71
1, 622490, Note_off_c, 0, 69, 63
1, 622506, Note_off_c, 0, 79, 65
1, 622514, Note_off_c, 0, 84, 67
1, 622534, Note_off_c, 0, 76, 64
1, 622565, Note_off_c, 0, 70, 61
1, 622570, Note_on_c, 0, 75, 78
1, 622573, Note_on_c, 0, 83, 92
1, 622576, Note_on_c, 0, 78, 90
1, 622586, Note_on_c, 0, 69, 75
1, 622606, Note_off_c, 0, 78, 62
1, 622619, Note_off_c, 0, 83, 64
1, 622632, Note_off_c, 0, 75, 62
1, 622658, Note_on_c, 0, 84, 93
1, 622659, Note_on_c, 0, 76, 63
1, 622660, Note_on_c, 0, 79, 85
1, 622673, Note_off_c, 0, 69, 58
1, 622680, Note_on_c, 0, 70, 71
1, 622681, Note_off_c, 0, 79, 66
1, 622696, Note_off_c, 0, 84, 66
1, 622713, Note_off_c, 0, 76, 62
1, 622756, Note_on_c, 0, 83, 88
1, 622756, Note_off_c, 0, 70, 62
1, 622758, Note_on_c, 0, 75, 66
1, 622761, Note_on_c, 0, 78, 80
1, 622784, Note_on_c, 0, 69, 59
1, 622784, Note_off_c, 0, 78, 70
1, 622805, Note_off_c, 0, 83, 63
1, 622845, Note_off_c, 0, 75, 61
1, 622856, Note_on_c, 0, 84, 80
1, 622860, Note_on_c, 0, 79, 69
1, 622862, Note_on_c, 0, 76, 56
1, 622887, Note_off_c, 0, 79, 62
1, 622895, Note_off_c, 0, 69, 58
1, 622899, Note_off_c, 0, 84, 63
1, 622902, Note_on_c, 0, 70, 56
1, 622944, Note_off_c, 0, 76, 61
1, 622973, Note_on_c, 0, 83, 71
1, 622988, Note_on_c, 0, 78, 51
1, 622993, Note_on_c, 0, 75, 52
1, 622993, Note_off_c, 0, 70, 60
1, 623012, Note_off_c, 0, 78, 56
1, 623031, Note_off_c, 0, 83, 62
1, 623032, Note_on_c, 0, 69, 40
1, 623093, Note_on_c, 0, 84, 66
1, 623101, Note_off_c, 0, 75, 54
1, 623103, Note_on_c, 0, 76, 43
1, 623106, Note_on_c, 0, 79, 52
1, 623140, Note_off_c, 0, 79, 61
1, 623157, Note_off_c, 0, 84, 60
1, 623168, Note_off_c, 0, 69, 42
1, 623193, Note_on_c, 0, 70, 38
1, 623212, Note_off_c, 0, 76, 44
1, 623250, Note_on_c, 0, 83, 57
1, 623259, Note_on_c, 0, 78, 49
1, 623268, Note_on_c, 0, 75, 38
1, 623280, Note_off_c, 0, 70, 53
1, 623301, Note_off_c, 0, 78, 49
1, 623310, Note_on_c, 0, 69, 31
1, 623327, Note_off_c, 0, 83, 56
1, 623409, Note_on_c, 0, 84, 56
1, 623426, Note_on_c, 0, 76, 38
1, 623429, Note_on_c, 0, 79, 41
1, 623443, Note_off_c, 0, 75, 43
1, 623467, Note_off_c, 0, 79, 48
1, 623469, Note_on_c, 0, 70, 24
1, 623510, Note_off_c, 0, 69, 41
1, 623553, Note_off_c, 0, 84, 32
1, 623580, Note_off_c, 0, 76, 52
1, 623604, Note_off_c, 0, 70, 37
1, 623610, Note_on_c, 0, 69, 52
1, 623617, Note_on_c, 0, 78, 48
1, 623638, Note_on_c, 0, 75, 19
1, 623644, Note_on_c, 0, 83, 33
1, 623796, Note_off_c, 0, 78, 34
1, 623812, Note_off_c, 0, 83, 45
1, 623875, Note_off_c, 0, 75, 37
1, 623884, Note_off_c, 0, 69, 35
1, 623924, Note_on_c, 0, 76, 25
1, 623925, Note_on_c, 0, 70, 32
1, 623969, Note_on_c, 0, 79, 37
1, 623969, Note_on_c, 0, 84, 46
1, 624049, Control_c, 0, 64, 101
1, 624064, Control_c, 0, 64, 79
1, 624079, Control_c, 0, 64, 68
1, 624094, Control_c, 0, 64, 64
1, 624109, Control_c, 0, 64, 62
1, 624124, Control_c, 0, 64, 61
1, 624138, Control_c, 0, 64, 62
1, 624153, Control_c, 0, 64, 63
1, 624168, Control_c, 0, 64, 64
1, 624183, Control_c, 0, 64, 66
1, 624198, Control_c, 0, 64, 69
1, 624212, Control_c, 0, 64, 74
1, 624227, Control_c, 0, 64, 81
1, 624242, Control_c, 0, 64, 91
1, 624252, Note_off_c, 0, 84, 56
1, 624256, Control_c, 0, 64, 105
1, 624261, Note_off_c, 0, 79, 52
1, 624271, Control_c, 0, 64, 127
1, 624438, Note_off_c, 0, 76, 38
1, 624456, Note_on_c, 0, 79, 37
1, 624558, Note_off_c, 0, 70, 37
1, 624746, Control_c, 0, 64, 97
1, 624761, Control_c, 0, 64, 82
1, 624783, Control_c, 0, 64, 72
1, 624798, Control_c, 0, 64, 67
1, 624813, Control_c, 0, 64, 63
1, 624815, Note_on_c, 0, 87, 48
1, 624827, Control_c, 0, 64, 61
1, 624842, Control_c, 0, 64, 60
1, 624857, Control_c, 0, 64, 59
1, 624872, Control_c, 0, 64, 58
1, 624946, Control_c, 0, 64, 59
1, 624976, Control_c, 0, 64, 59
1, 624991, Control_c, 0, 64, 60
1, 625006, Control_c, 0, 64, 60
1, 625021, Control_c, 0, 64, 61
1, 625050, Control_c, 0, 64, 62
1, 625065, Control_c, 0, 64, 63
1, 625079, Control_c, 0, 64, 64
1, 625093, Control_c, 0, 64, 65
1, 625108, Control_c, 0, 64, 66
1, 625123, Control_c, 0, 64, 66
1, 625138, Control_c, 0, 64, 68
1, 625152, Control_c, 0, 64, 71
1, 625167, Control_c, 0, 64, 74
1, 625182, Control_c, 0, 64, 77
1, 625197, Control_c, 0, 64, 79
1, 625212, Control_c, 0, 64, 81
1, 625226, Control_c, 0, 64, 83
1, 625241, Control_c, 0, 64, 85
1, 625256, Control_c, 0, 64, 87
1, 625271, Control_c, 0, 64, 91
1, 625286, Control_c, 0, 64, 98
1, 625301, Control_c, 0, 64, 105
1, 625316, Control_c, 0, 64, 111
1, 625331, Control_c, 0, 64, 116
1, 625345, Control_c, 0, 64, 127
1, 625503, Note_off_c, 0, 79, 35
1, 625519, Note_off_c, 0, 87, 34
1, 626167, Note_on_c, 0, 85, 50
1, 626171, Note_on_c, 0, 77, 39
1, 626438, Note_off_c, 0, 85, 65
1, 626503, Note_on_c, 0, 84, 56
1, 626526, Note_on_c, 0, 76, 53
1, 626607, Note_off_c, 0, 76, 61
1, 626616, Note_off_c, 0, 77, 42
1, 626777, Note_on_c, 0, 82, 70
1, 626802, Note_on_c, 0, 73, 43
1, 626865, Note_off_c, 0, 73, 44
1, 626931, Note_off_c, 0, 82, 63
1, 626973, Note_on_c, 0, 73, 68
1, 626985, Note_off_c, 0, 84, 54
1, 627323, Note_on_c, 0, 82, 65
1, 627488, Control_c, 0, 64, 93
1, 627503, Control_c, 0, 64, 75
1, 627518, Control_c, 0, 64, 63
1, 627533, Control_c, 0, 64, 57
1, 627535, Note_on_c, 0, 41, 31
1, 627547, Control_c, 0, 64, 54
1, 627562, Control_c, 0, 64, 56
1, 627577, Control_c, 0, 64, 60
1, 627592, Control_c, 0, 64, 64
1, 627607, Control_c, 0, 64, 67
1, 627621, Control_c, 0, 64, 71
1, 627636, Control_c, 0, 64, 75
1, 627651, Control_c, 0, 64, 81
1, 627665, Control_c, 0, 64, 91
1, 627680, Control_c, 0, 64, 113
1, 627695, Control_c, 0, 64, 127
1, 627734, Note_on_c, 0, 52, 38
1, 627809, Note_off_c, 0, 41, 42
1, 627894, Note_off_c, 0, 52, 62
1, 627927, Note_on_c, 0, 55, 40
1, 628093, Note_off_c, 0, 55, 57
1, 628096, Note_on_c, 0, 58, 48
1, 628300, Note_on_c, 0, 61, 48
1, 628418, Note_off_c, 0, 73, 57
1, 628498, Note_on_c, 0, 64, 46
1, 628758, Note_on_c, 0, 67, 40
1, 628915, Note_on_c, 0, 81, 60
1, 628950, Note_on_c, 0, 73, 36
1, 628962, Note_off_c, 0, 67, 61
1, 628974, Note_off_c, 0, 64, 61
1, 629005, Note_off_c, 0, 61, 62
1, 629015, Note_off_c, 0, 58, 40
1, 629062, Note_off_c, 0, 82, 40
1, 629114, Note_off_c, 0, 73, 37
1, 629149, Note_on_c, 0, 80, 70
1, 629163, Note_on_c, 0, 72, 52
1, 629223, Control_c, 0, 64, 120
1, 629238, Control_c, 0, 64, 80
1, 629253, Control_c, 0, 64, 64
1, 629275, Control_c, 0, 64, 48
1, 629281, Note_off_c, 0, 81, 36
1, 629289, Control_c, 0, 64, 0
1, 629372, Note_on_c, 0, 53, 32
1, 629379, Control_c, 0, 64, 29
1, 629393, Control_c, 0, 64, 39
1, 629408, Control_c, 0, 64, 48
1, 629423, Control_c, 0, 64, 54
1, 629438, Control_c, 0, 64, 57
1, 629452, Control_c, 0, 64, 59
1, 629468, Control_c, 0, 64, 62
1, 629483, Control_c, 0, 64, 65
1, 629498, Control_c, 0, 64, 67
1, 629513, Control_c, 0, 64, 68
1, 629528, Control_c, 0, 64, 69
1, 629542, Control_c, 0, 64, 72
1, 629557, Control_c, 0, 64, 75
1, 629572, Control_c, 0, 64, 79
1, 629578, Note_on_c, 0, 60, 32
1, 629587, Control_c, 0, 64, 84
1, 629602, Control_c, 0, 64, 89
1, 629616, Control_c, 0, 64, 97
1, 629631, Control_c, 0, 64, 119
1, 629646, Control_c, 0, 64, 127
1, 629651, Note_off_c, 0, 53, 38
1, 629691, Control_c, 0, 67, 9
1, 629705, Control_c, 0, 67, 12
1, 629720, Control_c, 0, 67, 31
1, 629735, Control_c, 0, 67, 51
1, 629749, Control_c, 0, 67, 64
1, 629764, Control_c, 0, 67, 75
1, 629779, Control_c, 0, 67, 79
1, 629794, Control_c, 0, 67, 82
1, 629809, Control_c, 0, 67, 86
1, 629823, Control_c, 0, 67, 94
1, 629827, Note_off_c, 0, 60, 41
1, 629828, Note_on_c, 0, 65, 40
1, 629838, Control_c, 0, 67, 105
1, 629853, Control_c, 0, 67, 119
1, 629868, Control_c, 0, 67, 127
1, 630213, Note_on_c, 0, 68, 28
1, 630234, Note_off_c, 0, 65, 39
1, 630404, Note_off_c, 0, 68, 40
1, 630593, Note_off_c, 0, 72, 54
1, 630923, Note_off_c, 0, 80, 31
1, 631549, Note_on_c, 0, 77, 48
1, 631566, Control_c, 0, 64, 112
1, 631569, Note_on_c, 0, 68, 35
1, 631581, Control_c, 0, 64, 95
1, 631595, Control_c, 0, 64, 81
1, 631610, Control_c, 0, 64, 69
1, 631625, Control_c, 0, 64, 60
1, 631640, Control_c, 0, 64, 52
1, 631655, Control_c, 0, 64, 50
1, 631669, Control_c, 0, 64, 51
1, 631684, Control_c, 0, 64, 55
1, 631699, Control_c, 0, 64, 61
1, 631714, Control_c, 0, 64, 65
1, 631728, Control_c, 0, 64, 69
1, 631743, Control_c, 0, 64, 76
1, 631758, Control_c, 0, 64, 88
1, 631773, Control_c, 0, 64, 127
1, 631799, Note_off_c, 0, 77, 64
1, 631824, Note_off_c, 0, 68, 39
1, 631943, Note_on_c, 0, 77, 66
1, 631957, Note_on_c, 0, 68, 50
1, 631966, Control_c, 0, 67, 118
1, 631981, Control_c, 0, 67, 106
1, 631996, Control_c, 0, 67, 94
1, 632011, Control_c, 0, 67, 74
1, 632026, Control_c, 0, 67, 39
1, 632041, Control_c, 0, 67, 13
1, 632056, Control_c, 0, 67, 0
1, 632103, Note_off_c, 0, 68, 58
1, 632122, Note_off_c, 0, 77, 50
1, 632183, Note_on_c, 0, 77, 64
1, 632204, Note_on_c, 0, 68, 60
1, 632380, Note_off_c, 0, 68, 61
1, 632510, Note_on_c, 0, 79, 61
1, 632525, Note_on_c, 0, 70, 39
1, 632566, Control_c, 0, 64, 81
1, 632581, Control_c, 0, 64, 66
1, 632596, Control_c, 0, 64, 56
1, 632611, Control_c, 0, 64, 48
1, 632625, Control_c, 0, 64, 39
1, 632640, Control_c, 0, 64, 32
1, 632655, Control_c, 0, 64, 31
1, 632688, Note_off_c, 0, 77, 34
1, 632701, Control_c, 0, 64, 34
1, 632715, Control_c, 0, 64, 40
1, 632730, Control_c, 0, 64, 49
1, 632745, Control_c, 0, 64, 53
1, 632759, Control_c, 0, 64, 56
1, 632774, Control_c, 0, 64, 58
1, 632789, Control_c, 0, 64, 61
1, 632804, Control_c, 0, 64, 64
1, 632819, Control_c, 0, 64, 67
1, 632834, Control_c, 0, 64, 69
1, 632849, Control_c, 0, 64, 71
1, 632864, Control_c, 0, 64, 73
1, 632878, Control_c, 0, 64, 79
1, 632893, Control_c, 0, 64, 88
1, 632908, Control_c, 0, 64, 96
1, 632923, Control_c, 0, 64, 100
1, 632938, Control_c, 0, 64, 106
1, 632953, Control_c, 0, 64, 127
1, 632987, Note_off_c, 0, 70, 36
1, 633129, Note_off_c, 0, 79, 57
1, 633581, Note_on_c, 0, 77, 41
1, 633591, Note_on_c, 0, 68, 25
1, 633621, Note_on_c, 0, 56, 25
1, 633624, Note_on_c, 0, 60, 18
1, 633632, Note_on_c, 0, 65, 9
1, 633716, Control_c, 0, 64, 88
1, 633731, Control_c, 0, 64, 68
1, 633746, Control_c, 0, 64, 55
1, 633768, Control_c, 0, 64, 51
1, 633783, Control_c, 0, 64, 54
1, 633797, Control_c, 0, 64, 61
1, 633812, Control_c, 0, 64, 65
1, 633827, Control_c, 0, 64, 67
1, 633842, Control_c, 0, 64, 71
1, 633857, Control_c, 0, 64, 77
1, 633871, Control_c, 0, 64, 86
1, 633886, Control_c, 0, 64, 95
1, 633901, Control_c, 0, 64, 104
1, 633916, Control_c, 0, 64, 120
1, 633925, Note_off_c, 0, 60, 43
1, 633926, Note_off_c, 0, 65, 40
1, 633931, Control_c, 0, 64, 127
1, 633934, Note_off_c, 0, 68, 40
1, 633943, Note_off_c, 0, 56, 43
1, 633955, Note_off_c, 0, 77, 35
1, 634180, Note_on_c, 0, 75, 46
1, 634197, Control_c, 0, 64, 113
1, 634202, Note_on_c, 0, 67, 37
1, 634212, Control_c, 0, 64, 73
1, 634227, Control_c, 0, 64, 62
1, 634242, Control_c, 0, 64, 56
1, 634258, Control_c, 0, 64, 55
1, 634287, Control_c, 0, 64, 59
1, 634302, Control_c, 0, 64, 63
1, 634317, Control_c, 0, 64, 68
1, 634332, Control_c, 0, 64, 74
1, 634347, Control_c, 0, 64, 80
1, 634361, Control_c, 0, 64, 84
1, 634376, Control_c, 0, 64, 90
1, 634391, Control_c, 0, 64, 102
1, 634406, Control_c, 0, 64, 127
1, 634419, Note_off_c, 0, 67, 60
1, 634427, Note_off_c, 0, 75, 62
1, 634545, Note_on_c, 0, 75, 62
1, 634563, Note_on_c, 0, 67, 50
1, 634726, Note_off_c, 0, 75, 61
1, 634733, Note_off_c, 0, 67, 61
1, 634835, Note_on_c, 0, 75, 68
1, 634845, Note_on_c, 0, 67, 56
1, 634943, Note_off_c, 0, 67, 59
1, 634976, Note_off_c, 0, 75, 58
1, 635187, Note_on_c, 0, 74, 53
1, 635198, Note_on_c, 0, 66, 48
1, 635243, Control_c, 0, 64, 91
1, 635266, Control_c, 0, 64, 75
1, 635281, Control_c, 0, 64, 66
1, 635296, Control_c, 0, 64, 61
1, 635311, Control_c, 0, 64, 57
1, 635325, Control_c, 0, 64, 53
1, 635340, Control_c, 0, 64, 51
1, 635355, Control_c, 0, 64, 49
1, 635414, Control_c, 0, 64, 51
1, 635429, Control_c, 0, 64, 55
1, 635443, Control_c, 0, 64, 57
1, 635458, Control_c, 0, 64, 60
1, 635473, Control_c, 0, 64, 61
1, 635488, Control_c, 0, 64, 63
1, 635503, Control_c, 0, 64, 65
1, 635517, Control_c, 0, 64, 67
1, 635532, Control_c, 0, 64, 69
1, 635547, Control_c, 0, 64, 71
1, 635561, Control_c, 0, 64, 74
1, 635576, Control_c, 0, 64, 77
1, 635591, Control_c, 0, 64, 79
1, 635606, Control_c, 0, 64, 81
1, 635621, Control_c, 0, 64, 83
1, 635636, Control_c, 0, 64, 89
1, 635651, Control_c, 0, 64, 97
1, 635666, Control_c, 0, 64, 108
1, 635681, Control_c, 0, 64, 127
1, 635828, Control_c, 0, 67, 18
1, 635843, Control_c, 0, 67, 28
1, 635859, Control_c, 0, 67, 35
1, 635874, Control_c, 0, 67, 38
1, 635889, Control_c, 0, 67, 42
1, 635904, Control_c, 0, 67, 51
1, 635919, Control_c, 0, 67, 62
1, 635933, Control_c, 0, 67, 72
1, 635946, Note_on_c, 0, 46, 35
1, 635948, Control_c, 0, 67, 79
1, 635963, Control_c, 0, 67, 86
1, 635977, Control_c, 0, 67, 90
1, 635992, Control_c, 0, 67, 95
1, 636014, Control_c, 0, 67, 102
1, 636029, Control_c, 0, 67, 109
1, 636044, Control_c, 0, 67, 118
1, 636059, Control_c, 0, 67, 126
1, 636074, Control_c, 0, 67, 127
1, 636125, Note_on_c, 0, 55, 39
1, 636200, Note_off_c, 0, 46, 36
1, 636228, Note_off_c, 0, 74, 53
1, 636266, Note_off_c, 0, 66, 35
1, 636287, Note_off_c, 0, 55, 61
1, 636298, Note_on_c, 0, 58, 39
1, 636557, Note_on_c, 0, 75, 41
1, 636561, Note_on_c, 0, 63, 31
1, 636572, Note_on_c, 0, 67, 31
1, 636606, Control_c, 0, 64, 113
1, 636618, Note_off_c, 0, 58, 31
1, 636621, Control_c, 0, 64, 82
1, 636636, Control_c, 0, 64, 67
1, 636652, Control_c, 0, 64, 61
1, 636667, Control_c, 0, 64, 57
1, 636681, Control_c, 0, 64, 55
1, 636696, Control_c, 0, 64, 56
1, 636711, Control_c, 0, 64, 60
1, 636726, Control_c, 0, 64, 64
1, 636741, Control_c, 0, 64, 65
1, 636763, Control_c, 0, 64, 66
1, 636777, Control_c, 0, 64, 67
1, 636792, Control_c, 0, 64, 69
1, 636807, Control_c, 0, 64, 71
1, 636822, Control_c, 0, 64, 74
1, 636837, Control_c, 0, 64, 78
1, 636840, Note_off_c, 0, 63, 42
1, 636852, Control_c, 0, 64, 80
1, 636867, Control_c, 0, 64, 81
1, 636881, Control_c, 0, 64, 83
1, 636896, Control_c, 0, 64, 86
1, 636911, Control_c, 0, 64, 90
1, 636926, Control_c, 0, 64, 94
1, 636941, Control_c, 0, 64, 98
1, 636955, Control_c, 0, 64, 105
1, 636970, Control_c, 0, 64, 119
1, 636985, Control_c, 0, 64, 127
1, 637004, Note_off_c, 0, 67, 34
1, 637043, Note_off_c, 0, 75, 40
1, 637343, Note_on_c, 0, 79, 48
1, 637353, Note_on_c, 0, 70, 38
1, 637400, Control_c, 0, 64, 101
1, 637414, Control_c, 0, 64, 79
1, 637429, Control_c, 0, 64, 67
1, 637444, Control_c, 0, 64, 61
1, 637460, Control_c, 0, 64, 55
1, 637475, Control_c, 0, 64, 51
1, 637490, Control_c, 0, 64, 52
1, 637511, Control_c, 0, 64, 56
1, 637526, Control_c, 0, 64, 59
1, 637541, Control_c, 0, 64, 61
1, 637555, Control_c, 0, 64, 62
1, 637570, Control_c, 0, 64, 64
1, 637585, Control_c, 0, 64, 65
1, 637600, Control_c, 0, 64, 67
1, 637615, Control_c, 0, 64, 70
1, 637630, Control_c, 0, 64, 75
1, 637645, Control_c, 0, 64, 80
1, 637660, Control_c, 0, 64, 84
1, 637675, Control_c, 0, 64, 88
1, 637690, Control_c, 0, 64, 91
1, 637704, Control_c, 0, 64, 94
1, 637719, Control_c, 0, 64, 100
1, 637734, Control_c, 0, 64, 110
1, 637749, Control_c, 0, 64, 127
1, 637798, Note_off_c, 0, 70, 37
1, 638313, Note_on_c, 0, 77, 52
1, 638332, Note_on_c, 0, 68, 26
1, 638470, Note_off_c, 0, 79, 40
1, 638587, Note_off_c, 0, 68, 54
1, 638670, Note_on_c, 0, 76, 57
1, 638678, Note_on_c, 0, 67, 42
1, 638704, Control_c, 0, 64, 111
1, 638719, Control_c, 0, 64, 87
1, 638733, Control_c, 0, 64, 78
1, 638748, Control_c, 0, 64, 78
1, 638763, Control_c, 0, 64, 81
1, 638767, Note_off_c, 0, 77, 54
1, 638778, Control_c, 0, 64, 86
1, 638793, Control_c, 0, 64, 92
1, 638807, Control_c, 0, 64, 97
1, 638822, Control_c, 0, 64, 103
1, 638831, Note_off_c, 0, 67, 59
1, 638837, Control_c, 0, 64, 113
1, 638852, Control_c, 0, 64, 127
1, 638979, Note_on_c, 0, 77, 65
1, 638986, Note_on_c, 0, 68, 54
1, 639035, Note_off_c, 0, 76, 59
1, 639150, Note_on_c, 0, 46, 42
1, 639223, Note_off_c, 0, 68, 35
1, 639246, Note_on_c, 0, 53, 40
1, 639252, Note_off_c, 0, 46, 58
1, 639346, Note_on_c, 0, 56, 48
1, 639365, Note_off_c, 0, 77, 56
1, 639439, Note_on_c, 0, 62, 47
1, 639541, Note_on_c, 0, 68, 51
1, 639601, Note_on_c, 0, 72, 54
1, 639891, Control_c, 0, 64, 104
1, 639896, Note_on_c, 0, 80, 67
1, 639905, Control_c, 0, 64, 87
1, 639920, Control_c, 0, 64, 77
1, 639935, Control_c, 0, 64, 70
1, 639950, Control_c, 0, 64, 65
1, 639965, Control_c, 0, 64, 62
1, 639979, Control_c, 0, 64, 59
1, 639994, Control_c, 0, 64, 57
1, 640009, Control_c, 0, 64, 56
1, 640069, Control_c, 0, 64, 57
1, 640084, Control_c, 0, 64, 58
1, 640098, Control_c, 0, 64, 59
1, 640113, Control_c, 0, 64, 60
1, 640128, Control_c, 0, 64, 62
1, 640143, Control_c, 0, 64, 63
1, 640158, Control_c, 0, 64, 63
1, 640173, Control_c, 0, 64, 64
1, 640188, Control_c, 0, 64, 65
1, 640203, Control_c, 0, 64, 66
1, 640217, Control_c, 0, 64, 69
1, 640232, Control_c, 0, 64, 72
1, 640247, Control_c, 0, 64, 75
1, 640262, Control_c, 0, 64, 77
1, 640277, Control_c, 0, 64, 78
1, 640292, Control_c, 0, 64, 80
1, 640306, Control_c, 0, 64, 84
1, 640321, Control_c, 0, 64, 89
1, 640336, Control_c, 0, 64, 93
1, 640350, Control_c, 0, 64, 97
1, 640365, Control_c, 0, 64, 100
1, 640380, Control_c, 0, 64, 105
1, 640395, Control_c, 0, 64, 119
1, 640410, Control_c, 0, 64, 127
1, 640718, Note_off_c, 0, 53, 31
1, 640764, Note_off_c, 0, 68, 27
1, 640780, Note_off_c, 0, 72, 39
1, 640805, Note_off_c, 0, 62, 32
1, 640907, Note_off_c, 0, 56, 42
1, 641315, Note_off_c, 0, 80, 37
1, 641660, Note_on_c, 0, 80, 41
1, 641661, Note_on_c, 0, 71, 27
1, 641668, Note_on_c, 0, 74, 29
1, 641860, Note_on_c, 0, 70, 39
1, 641883, Note_on_c, 0, 79, 53
1, 641887, Note_off_c, 0, 71, 42
1, 641916, Note_off_c, 0, 74, 40
1, 642000, Note_off_c, 0, 80, 29
1, 642004, Note_off_c, 0, 70, 58
1, 642022, Note_off_c, 0, 79, 64
1, 642033, Note_on_c, 0, 78, 62
1, 642034, Note_on_c, 0, 69, 45
1, 642143, Note_off_c, 0, 78, 60
1, 642149, Note_off_c, 0, 69, 54
1, 642161, Note_on_c, 0, 83, 61
1, 642174, Note_on_c, 0, 74, 51
1, 642189, Note_on_c, 0, 77, 48
1, 642237, Note_off_c, 0, 77, 59
1, 642283, Note_off_c, 0, 74, 59
1, 642298, Note_on_c, 0, 82, 61
1, 642299, Note_on_c, 0, 73, 56
1, 642302, Note_off_c, 0, 83, 60
1, 642392, Note_on_c, 0, 81, 63
1, 642401, Note_off_c, 0, 82, 60
1, 642405, Note_on_c, 0, 72, 38
1, 642451, Note_off_c, 0, 72, 62
1, 642456, Note_off_c, 0, 73, 56
1, 642472, Note_off_c, 0, 81, 65
1, 642474, Note_on_c, 0, 71, 59
1, 642485, Note_on_c, 0, 86, 70
1, 642499, Note_on_c, 0, 77, 51
1, 642536, Note_on_c, 0, 80, 22
1, 642549, Note_off_c, 0, 71, 55
1, 642573, Note_off_c, 0, 77, 56
1, 642575, Note_off_c, 0, 80, 50
1, 642600, Note_on_c, 0, 85, 62
1, 642602, Note_off_c, 0, 86, 61
1, 642611, Note_on_c, 0, 76, 61
1, 642679, Note_off_c, 0, 85, 62
1, 642680, Note_on_c, 0, 75, 55
1, 642686, Note_on_c, 0, 84, 66
1, 642686, Note_off_c, 0, 76, 64
1, 642751, Note_off_c, 0, 84, 63
1, 642768, Note_off_c, 0, 75, 55
1, 642774, Note_on_c, 0, 80, 62
1, 642776, Note_on_c, 0, 74, 58
1, 642776, Note_on_c, 0, 89, 74
1, 642784, Note_on_c, 0, 83, 62
1, 642843, Note_off_c, 0, 83, 56
1, 642851, Note_off_c, 0, 80, 63
1, 642865, Note_off_c, 0, 74, 62
1, 642865, Note_off_c, 0, 89, 61
1, 642868, Note_on_c, 0, 88, 66
1, 642875, Note_on_c, 0, 79, 61
1, 642940, Note_off_c, 0, 88, 65
1, 642942, Note_on_c, 0, 87, 73
1, 642954, Note_on_c, 0, 78, 63
1, 642971, Note_off_c, 0, 79, 54
1, 643008, Note_off_c, 0, 87, 61
1, 643022, Note_off_c, 0, 78, 62
1, 643043, Note_on_c, 0, 83, 64
1, 643043, Note_on_c, 0, 92, 72
1, 643049, Note_on_c, 0, 86, 56
1, 643052, Note_on_c, 0, 77, 23
1, 643087, Note_off_c, 0, 77, 38
1, 643091, Note_off_c, 0, 86, 62
1, 643116, Note_on_c, 0, 91, 69
1, 643128, Note_off_c, 0, 83, 63
1, 643130, Note_off_c, 0, 92, 32
1, 643139, Note_on_c, 0, 82, 67
1, 643179, Note_off_c, 0, 91, 64
1, 643195, Note_on_c, 0, 90, 74
1, 643210, Note_on_c, 0, 81, 52
1, 643247, Note_on_c, 0, 80, 57
1, 643252, Note_off_c, 0, 81, 64
1, 643254, Note_off_c, 0, 82, 61
1, 643268, Note_off_c, 0, 90, 63
1, 643287, Note_on_c, 0, 89, 63
1, 643300, Note_on_c, 0, 86, 68
1, 643303, Note_on_c, 0, 95, 54
1, 643308, Note_off_c, 0, 80, 62
1, 643317, Note_off_c, 0, 89, 65
1, 643371, Note_on_c, 0, 94, 75
1, 643377, Note_off_c, 0, 95, 62
1, 643404, Note_on_c, 0, 85, 66
1, 643435, Note_off_c, 0, 86, 27
1, 643448, Note_off_c, 0, 94, 61
1, 643449, Note_on_c, 0, 93, 77
1, 643511, Note_on_c, 0, 83, 67
1, 643523, Note_off_c, 0, 93, 65
1, 643533, Note_on_c, 0, 98, 76
1, 643535, Note_off_c, 0, 85, 62
1, 643539, Note_on_c, 0, 92, 70
1, 643551, Note_on_c, 0, 89, 56
1, 643579, Note_off_c, 0, 92, 59
1, 643585, Note_off_c, 0, 98, 63
1, 643613, Note_off_c, 0, 89, 62
1, 643617, Note_on_c, 0, 88, 73
1, 643619, Note_off_c, 0, 83, 64
1, 643620, Note_on_c, 0, 97, 69
1, 643671, Note_off_c, 0, 88, 65
1, 643678, Note_off_c, 0, 97, 64
1, 643691, Note_on_c, 0, 96, 78
1, 643738, Control_c, 0, 64, 125
1, 643741, Note_off_c, 0, 96, 65
1, 643753, Control_c, 0, 64, 91
1, 643758, Note_on_c, 0, 86, 67
1, 643768, Control_c, 0, 64, 86
1, 643779, Note_on_c, 0, 101, 90
1, 643781, Note_on_c, 0, 92, 62
1, 643782, Control_c, 0, 64, 87
1, 643783, Note_on_c, 0, 95, 75
1, 643797, Control_c, 0, 64, 92
1, 643812, Control_c, 0, 64, 100
1, 643819, Note_off_c, 0, 95, 64
1, 643827, Control_c, 0, 64, 104
1, 643837, Note_off_c, 0, 86, 63
1, 643860, Note_off_c, 0, 101, 47
1, 643867, Note_off_c, 0, 92, 66
1, 643868, Note_on_c, 0, 100, 80
1, 643872, Control_c, 0, 64, 108
1, 643887, Control_c, 0, 64, 127
1, 643888, Note_on_c, 0, 91, 64
1, 643938, Note_off_c, 0, 100, 50
1, 643950, Note_on_c, 0, 99, 84
1, 643957, Note_on_c, 0, 90, 72
1, 643959, Note_off_c, 0, 91, 60
1, 644012, Note_off_c, 0, 99, 65
1, 644038, Note_off_c, 0, 90, 61
1, 644040, Note_on_c, 0, 98, 86
1, 644046, Note_on_c, 0, 92, 77
1, 644051, Note_on_c, 0, 83, 62
1, 644060, Note_on_c, 0, 89, 64
1, 644105, Note_off_c, 0, 92, 64
1, 644110, Note_off_c, 0, 98, 61
1, 644126, Note_on_c, 0, 97, 84
1, 644137, Note_off_c, 0, 89, 58
1, 644142, Note_off_c, 0, 83, 64
1, 644150, Note_on_c, 0, 88, 67
1, 644181, Note_off_c, 0, 97, 63
1, 644204, Note_on_c, 0, 96, 64
1, 644218, Note_off_c, 0, 88, 64
1, 644230, Note_on_c, 0, 87, 61
1, 644292, Note_off_c, 0, 87, 64
1, 644293, Note_on_c, 0, 95, 79
1, 644294, Note_on_c, 0, 89, 65
1, 644301, Note_off_c, 0, 96, 63
1, 644304, Note_on_c, 0, 80, 59
1, 644307, Note_on_c, 0, 86, 65
1, 644347, Note_off_c, 0, 95, 63
1, 644366, Note_off_c, 0, 86, 62
1, 644376, Note_off_c, 0, 89, 53
1, 644383, Note_on_c, 0, 94, 80
1, 644402, Note_on_c, 0, 85, 64
1, 644423, Note_off_c, 0, 80, 59
1, 644454, Note_off_c, 0, 85, 63
1, 644454, Note_off_c, 0, 94, 64
1, 644465, Note_on_c, 0, 84, 65
1, 644472, Note_on_c, 0, 93, 77
1, 644493, Note_on_c, 0, 86, 64
1, 644549, Note_off_c, 0, 84, 61
1, 644549, Note_off_c, 0, 93, 65
1, 644550, Note_on_c, 0, 77, 57
1, 644555, Note_on_c, 0, 92, 77
1, 644558, Note_off_c, 0, 86, 41
1, 644561, Note_on_c, 0, 83, 66
1, 644627, Note_on_c, 0, 82, 61
1, 644639, Note_off_c, 0, 92, 65
1, 644641, Note_off_c, 0, 83, 60
1, 644647, Note_on_c, 0, 91, 68
1, 644656, Note_off_c, 0, 77, 37
1, 644701, Note_off_c, 0, 82, 65
1, 644717, Note_on_c, 0, 90, 77
1, 644718, Note_off_c, 0, 91, 63
1, 644721, Note_on_c, 0, 81, 63
1, 644782, Note_off_c, 0, 90, 65
1, 644795, Note_off_c, 0, 81, 61
1, 644803, Note_on_c, 0, 80, 65
1, 644804, Note_on_c, 0, 89, 78
1, 644811, Note_on_c, 0, 74, 51
1, 644816, Note_on_c, 0, 83, 69
1, 644848, Note_off_c, 0, 83, 64
1, 644883, Note_off_c, 0, 74, 61
1, 644888, Note_off_c, 0, 80, 63
1, 644902, Note_off_c, 0, 89, 54
1, 644903, Note_on_c, 0, 88, 74
1, 644911, Note_on_c, 0, 79, 63
1, 644966, Note_off_c, 0, 88, 61
1, 644975, Note_off_c, 0, 79, 55
1, 644983, Note_on_c, 0, 78, 68
1, 644997, Note_on_c, 0, 87, 68
1, 645067, Note_off_c, 0, 78, 60
1, 645074, Note_on_c, 0, 80, 48
1, 645080, Note_on_c, 0, 71, 59
1, 645084, Note_off_c, 0, 87, 63
1, 645085, Note_on_c, 0, 86, 73
1, 645091, Note_on_c, 0, 77, 71
1, 645130, Note_off_c, 0, 80, 62
1, 645156, Note_off_c, 0, 71, 60
1, 645171, Note_off_c, 0, 77, 50
1, 645178, Note_off_c, 0, 86, 64
1, 645181, Note_on_c, 0, 85, 71
1, 645185, Note_on_c, 0, 76, 63
1, 645226, Note_off_c, 0, 85, 64
1, 645255, Note_off_c, 0, 76, 63
1, 645267, Note_on_c, 0, 84, 70
1, 645273, Note_on_c, 0, 75, 53
1, 645332, Note_off_c, 0, 75, 62
1, 645342, Note_on_c, 0, 68, 52
1, 645351, Note_off_c, 0, 84, 62
1, 645357, Note_on_c, 0, 83, 71
1, 645359, Note_on_c, 0, 74, 54
1, 645368, Note_on_c, 0, 77, 31
1, 645403, Note_off_c, 0, 77, 50
1, 645440, Note_off_c, 0, 83, 57
1, 645455, Note_on_c, 0, 82, 67
1, 645476, Note_on_c, 0, 73, 64
1, 645480, Note_off_c, 0, 74, 37
1, 645526, Note_off_c, 0, 68, 61
1, 645570, Note_off_c, 0, 82, 63
1, 645573, Note_on_c, 0, 74, 10
1, 645574, Note_on_c, 0, 81, 68
1, 645575, Note_off_c, 0, 73, 64
1, 645605, Note_on_c, 0, 72, 68
1, 645630, Note_off_c, 0, 74, 59
1, 645649, Note_on_c, 0, 65, 54
1, 645664, Note_off_c, 0, 81, 65
1, 645681, Note_on_c, 0, 79, 51
1, 645683, Note_off_c, 0, 72, 42
1, 645685, Note_on_c, 0, 71, 61
1, 645784, Note_on_c, 0, 70, 56
1, 645793, Note_off_c, 0, 71, 59
1, 645816, Note_off_c, 0, 65, 54
1, 645857, Note_off_c, 0, 79, 62
1, 645862, Note_on_c, 0, 78, 69
1, 645871, Note_off_c, 0, 70, 63
1, 645894, Note_on_c, 0, 69, 50
1, 646007, Note_off_c, 0, 78, 63
1, 646039, Note_off_c, 0, 69, 55
1, 646061, Note_on_c, 0, 68, 47
1, 646066, Note_on_c, 0, 62, 41
1, 646078, Note_on_c, 0, 77, 56
1, 646083, Note_on_c, 0, 71, 53
1, 646089, Control_c, 0, 64, 112
1, 646104, Control_c, 0, 64, 78
1, 646118, Control_c, 0, 64, 64
1, 646133, Control_c, 0, 64, 53
1, 646148, Control_c, 0, 64, 52
1, 646163, Control_c, 0, 64, 54
1, 646178, Control_c, 0, 64, 59
1, 646192, Control_c, 0, 64, 62
1, 646207, Control_c, 0, 64, 64
1, 646222, Control_c, 0, 64, 67
1, 646238, Control_c, 0, 64, 69
1, 646253, Control_c, 0, 64, 71
1, 646261, Note_off_c, 0, 68, 59
1, 646266, Note_off_c, 0, 77, 62
1, 646267, Control_c, 0, 64, 73
1, 646272, Note_on_c, 0, 70, 45
1, 646281, Note_on_c, 0, 79, 57
1, 646282, Control_c, 0, 64, 75
1, 646297, Control_c, 0, 64, 78
1, 646312, Control_c, 0, 64, 82
1, 646327, Control_c, 0, 64, 88
1, 646341, Control_c, 0, 64, 93
1, 646356, Control_c, 0, 64, 98
1, 646371, Control_c, 0, 64, 102
1, 646386, Control_c, 0, 64, 106
1, 646394, Note_on_c, 0, 68, 66
1, 646394, Note_on_c, 0, 77, 71
1, 646401, Control_c, 0, 64, 109
1, 646415, Control_c, 0, 64, 117
1, 646420, Note_off_c, 0, 70, 39
1, 646430, Control_c, 0, 64, 127
1, 646432, Note_off_c, 0, 79, 61
1, 646496, Note_on_c, 0, 76, 74
1, 646497, Note_off_c, 0, 71, 56
1, 646509, Note_off_c, 0, 77, 61
1, 646522, Note_on_c, 0, 67, 62
1, 646525, Note_off_c, 0, 68, 56
1, 646600, Note_on_c, 0, 77, 85
1, 646632, Note_off_c, 0, 76, 63
1, 646652, Note_on_c, 0, 68, 46
1, 646689, Note_off_c, 0, 67, 60
1, 646749, Control_c, 0, 64, 89
1, 646757, Note_off_c, 0, 77, 62
1, 646764, Control_c, 0, 64, 71
1, 646766, Note_on_c, 0, 80, 69
1, 646778, Note_on_c, 0, 74, 46
1, 646778, Control_c, 0, 64, 62
1, 646779, Note_off_c, 0, 62, 40
1, 646779, Note_off_c, 0, 68, 60
1, 646780, Note_on_c, 0, 71, 47
1, 646785, Note_on_c, 0, 65, 55
1, 646793, Control_c, 0, 64, 60
1, 646821, Control_c, 0, 64, 62
1, 646836, Control_c, 0, 64, 65
1, 646851, Control_c, 0, 64, 69
1, 646865, Control_c, 0, 64, 75
1, 646880, Control_c, 0, 64, 85
1, 646895, Control_c, 0, 64, 96
1, 646910, Control_c, 0, 64, 127
1, 646938, Note_off_c, 0, 71, 58
1, 646946, Note_off_c, 0, 74, 60
1, 646948, Note_off_c, 0, 65, 36
1, 646957, Note_off_c, 0, 80, 53
1, 647044, Control_c, 0, 64, 97
1, 647046, Note_on_c, 0, 79, 65
1, 647056, Note_on_c, 0, 73, 49
1, 647059, Control_c, 0, 64, 72
1, 647062, Note_on_c, 0, 70, 45
1, 647067, Note_on_c, 0, 64, 48
1, 647074, Control_c, 0, 64, 64
1, 647088, Control_c, 0, 64, 61
1, 647103, Control_c, 0, 64, 61
1, 647118, Control_c, 0, 64, 63
1, 647133, Control_c, 0, 64, 66
1, 647148, Control_c, 0, 64, 69
1, 647163, Control_c, 0, 64, 74
1, 647163, Note_off_c, 0, 64, 57
1, 647167, Note_off_c, 0, 73, 54
1, 647171, Note_off_c, 0, 70, 54
1, 647178, Control_c, 0, 64, 78
1, 647193, Control_c, 0, 64, 84
1, 647208, Control_c, 0, 64, 91
1, 647223, Control_c, 0, 64, 104
1, 647244, Control_c, 0, 64, 127
1, 647343, Note_off_c, 0, 79, 26
1, 647348, Control_c, 0, 64, 99
1, 647351, Note_on_c, 0, 78, 56
1, 647353, Note_on_c, 0, 69, 40
1, 647361, Note_on_c, 0, 63, 47
1, 647363, Control_c, 0, 64, 77
1, 647366, Note_on_c, 0, 72, 39
1, 647378, Control_c, 0, 64, 67
1, 647392, Control_c, 0, 64, 62
1, 647407, Control_c, 0, 64, 60
1, 647437, Control_c, 0, 64, 61
1, 647452, Control_c, 0, 64, 63
1, 647467, Control_c, 0, 64, 65
1, 647482, Control_c, 0, 64, 68
1, 647496, Control_c, 0, 64, 72
1, 647500, Note_off_c, 0, 69, 49
1, 647503, Note_off_c, 0, 72, 57
1, 647511, Control_c, 0, 64, 77
1, 647522, Note_off_c, 0, 63, 55
1, 647526, Control_c, 0, 64, 84
1, 647541, Control_c, 0, 64, 91
1, 647556, Control_c, 0, 64, 102
1, 647571, Control_c, 0, 64, 127
1, 647689, Note_off_c, 0, 78, 41
1, 647795, Note_on_c, 0, 77, 47
1, 647796, Note_on_c, 0, 71, 34
1, 647801, Note_on_c, 0, 62, 17
1, 647812, Note_on_c, 0, 68, 34
1, 647822, Control_c, 0, 64, 88
1, 647838, Control_c, 0, 64, 71
1, 647853, Control_c, 0, 64, 62
1, 647868, Control_c, 0, 64, 57
1, 647883, Control_c, 0, 64, 54
1, 647898, Control_c, 0, 64, 51
1, 647912, Control_c, 0, 64, 52
1, 647927, Control_c, 0, 64, 53
1, 647942, Control_c, 0, 64, 56
1, 647957, Control_c, 0, 64, 57
1, 648009, Control_c, 0, 64, 58
1, 648024, Control_c, 0, 64, 60
1, 648038, Control_c, 0, 64, 62
1, 648053, Control_c, 0, 64, 63
1, 648068, Control_c, 0, 64, 64
1, 648083, Control_c, 0, 64, 64
1, 648113, Control_c, 0, 64, 65
1, 648127, Control_c, 0, 64, 66
1, 648142, Control_c, 0, 64, 67
1, 648157, Control_c, 0, 64, 69
1, 648172, Control_c, 0, 64, 71
1, 648186, Control_c, 0, 64, 73
1, 648201, Control_c, 0, 64, 75
1, 648216, Control_c, 0, 64, 77
1, 648231, Control_c, 0, 64, 80
1, 648245, Control_c, 0, 64, 82
1, 648260, Control_c, 0, 64, 86
1, 648275, Control_c, 0, 64, 92
1, 648290, Control_c, 0, 64, 99
1, 648305, Control_c, 0, 64, 109
1, 648320, Control_c, 0, 64, 127
1, 648466, Note_off_c, 0, 68, 38
1, 648483, Note_off_c, 0, 71, 42
1, 648505, Note_off_c, 0, 62, 39
1, 648539, Note_off_c, 0, 77, 51
1, 649140, Note_on_c, 0, 79, 44
1, 649143, Note_on_c, 0, 70, 26
1, 649154, Note_on_c, 0, 74, 36
1, 649156, Note_on_c, 0, 58, 22
1, 649169, Note_on_c, 0, 68, 19
1, 649172, Control_c, 0, 64, 91
1, 649187, Control_c, 0, 64, 73
1, 649202, Control_c, 0, 64, 61
1, 649216, Control_c, 0, 64, 53
1, 649231, Control_c, 0, 64, 50
1, 649260, Control_c, 0, 64, 53
1, 649275, Control_c, 0, 64, 58
1, 649290, Control_c, 0, 64, 62
1, 649305, Control_c, 0, 64, 64
1, 649320, Control_c, 0, 64, 66
1, 649334, Control_c, 0, 64, 69
1, 649349, Control_c, 0, 64, 72
1, 649364, Control_c, 0, 64, 76
1, 649379, Control_c, 0, 64, 82
1, 649393, Control_c, 0, 64, 94
1, 649408, Control_c, 0, 64, 127
1, 649452, Note_off_c, 0, 58, 41
1, 649476, Note_off_c, 0, 70, 42
1, 649642, Note_off_c, 0, 74, 50
1, 649673, Note_off_c, 0, 68, 35
1, 649849, Note_off_c, 0, 79, 60
1, 649903, Note_on_c, 0, 75, 46
1, 649950, Control_c, 0, 64, 99
1, 649965, Control_c, 0, 64, 78
1, 649980, Control_c, 0, 64, 68
1, 649995, Control_c, 0, 64, 63
1, 650009, Control_c, 0, 64, 62
1, 650024, Control_c, 0, 64, 63
1, 650032, Note_on_c, 0, 70, 38
1, 650039, Control_c, 0, 64, 65
1, 650054, Control_c, 0, 64, 67
1, 650069, Control_c, 0, 64, 71
1, 650083, Control_c, 0, 64, 76
1, 650097, Note_off_c, 0, 70, 53
1, 650098, Control_c, 0, 64, 81
1, 650113, Control_c, 0, 64, 85
1, 650128, Control_c, 0, 64, 90
1, 650130, Note_on_c, 0, 67, 43
1, 650143, Control_c, 0, 64, 96
1, 650157, Control_c, 0, 64, 104
1, 650172, Control_c, 0, 64, 122
1, 650187, Control_c, 0, 64, 127
1, 650251, Note_on_c, 0, 63, 32
1, 650285, Note_off_c, 0, 67, 48
1, 650330, Note_off_c, 0, 63, 57
1, 650376, Note_off_c, 0, 75, 60
1, 650408, Note_on_c, 0, 77, 58
1, 650457, Note_on_c, 0, 82, 58
1, 650524, Note_on_c, 0, 89, 58
1, 650573, Note_on_c, 0, 79, 64
1, 650583, Note_off_c, 0, 77, 60
1, 650645, Note_off_c, 0, 82, 63
1, 650674, Note_off_c, 0, 89, 61
1, 650687, Note_on_c, 0, 75, 51
1, 650719, Note_off_c, 0, 79, 52
1, 650731, Note_off_c, 0, 75, 63
1, 650759, Note_on_c, 0, 70, 50
1, 650871, Note_off_c, 0, 70, 59
1, 650877, Note_on_c, 0, 63, 55
1, 650932, Note_off_c, 0, 63, 55
1, 651051, Note_on_c, 0, 80, 61
1, 651100, Note_on_c, 0, 87, 63
1, 651120, Note_off_c, 0, 80, 64
1, 651153, Note_on_c, 0, 92, 56
1, 651206, Note_on_c, 0, 82, 74
1, 651241, Control_c, 0, 64, 91
1, 651256, Control_c, 0, 64, 71
1, 651270, Control_c, 0, 64, 64
1, 651281, Note_off_c, 0, 92, 58
1, 651284, Note_off_c, 0, 87, 57
1, 651285, Control_c, 0, 64, 62
1, 651300, Control_c, 0, 64, 63
1, 651315, Control_c, 0, 64, 65
1, 651322, Note_on_c, 0, 79, 53
1, 651330, Control_c, 0, 64, 69
1, 651345, Control_c, 0, 64, 77
1, 651360, Control_c, 0, 64, 92
1, 651375, Control_c, 0, 64, 127
1, 651435, Note_on_c, 0, 75, 63
1, 651461, Note_off_c, 0, 79, 53
1, 651509, Note_off_c, 0, 82, 63
1, 651513, Note_on_c, 0, 70, 45
1, 651532, Note_off_c, 0, 75, 60
1, 651550, Note_off_c, 0, 70, 59
1, 651658, Note_on_c, 0, 82, 70
1, 651711, Note_on_c, 0, 87, 64
1, 651752, Note_on_c, 0, 91, 49
1, 651787, Note_on_c, 0, 94, 64
1, 651825, Note_on_c, 0, 84, 75
1, 651906, Note_off_c, 0, 94, 59
1, 651912, Note_off_c, 0, 82, 62
1, 651939, Note_on_c, 0, 79, 58
1, 651986, Note_off_c, 0, 84, 59
1, 651988, Note_off_c, 0, 91, 53
1, 651994, Note_off_c, 0, 87, 55
1, 652014, Note_off_c, 0, 79, 65
1, 652025, Note_on_c, 0, 75, 59
1, 652117, Note_on_c, 0, 70, 53
1, 652170, Note_off_c, 0, 75, 61
1, 652215, Note_off_c, 0, 70, 53
1, 652262, Note_on_c, 0, 82, 77
1, 652316, Note_on_c, 0, 87, 62
1, 652349, Note_off_c, 0, 82, 63
1, 652357, Note_on_c, 0, 91, 46
1, 652371, Note_on_c, 0, 94, 66
1, 652439, Note_on_c, 0, 82, 85
1, 652448, Note_off_c, 0, 91, 59
1, 652448, Note_off_c, 0, 87, 58
1, 652451, Note_off_c, 0, 94, 63
1, 652501, Control_c, 0, 64, 82
1, 652516, Control_c, 0, 64, 65
1, 652531, Control_c, 0, 64, 55
1, 652546, Control_c, 0, 64, 48
1, 652560, Control_c, 0, 64, 48
1, 652575, Control_c, 0, 64, 52
1, 652582, Note_on_c, 0, 77, 52
1, 652590, Control_c, 0, 64, 60
1, 652604, Control_c, 0, 64, 64
1, 652619, Control_c, 0, 64, 66
1, 652636, Control_c, 0, 64, 68
1, 652651, Control_c, 0, 64, 71
1, 652657, Note_on_c, 0, 74, 37
1, 652665, Control_c, 0, 64, 74
1, 652680, Control_c, 0, 64, 79
1, 652695, Control_c, 0, 64, 86
1, 652709, Control_c, 0, 64, 100
1, 652724, Control_c, 0, 64, 127
1, 652747, Note_on_c, 0, 70, 47
1, 652889, Note_off_c, 0, 70, 34
1, 652896, Note_off_c, 0, 74, 39
1, 652909, Note_off_c, 0, 77, 32
1, 652910, Note_on_c, 0, 81, 74
1, 652920, Note_off_c, 0, 82, 63
1, 652958, Note_on_c, 0, 86, 55
1, 652968, Note_on_c, 0, 89, 58
1, 653036, Note_on_c, 0, 93, 50
1, 653070, Note_on_c, 0, 80, 73
1, 653080, Control_c, 0, 64, 92
1, 653091, Note_off_c, 0, 93, 62
1, 653095, Control_c, 0, 64, 78
1, 653095, Note_off_c, 0, 89, 62
1, 653109, Note_off_c, 0, 86, 64
1, 653109, Control_c, 0, 64, 72
1, 653137, Note_off_c, 0, 81, 66
1, 653139, Control_c, 0, 64, 74
1, 653154, Control_c, 0, 64, 78
1, 653169, Control_c, 0, 64, 84
1, 653176, Note_on_c, 0, 77, 61
1, 653183, Control_c, 0, 64, 95
1, 653198, Control_c, 0, 64, 116
1, 653213, Control_c, 0, 64, 127
1, 653263, Note_on_c, 0, 74, 49
1, 653310, Note_off_c, 0, 77, 48
1, 653332, Note_off_c, 0, 80, 60
1, 653352, Note_on_c, 0, 70, 53
1, 653366, Note_off_c, 0, 74, 61
1, 653399, Note_off_c, 0, 70, 60
1, 653505, Note_on_c, 0, 79, 58
1, 653551, Note_on_c, 0, 82, 56
1, 653593, Note_on_c, 0, 86, 55
1, 653618, Note_on_c, 0, 91, 68
1, 653686, Note_on_c, 0, 77, 68
1, 653694, Control_c, 0, 64, 89
1, 653709, Control_c, 0, 64, 70
1, 653724, Control_c, 0, 64, 63
1, 653736, Note_off_c, 0, 91, 62
1, 653754, Control_c, 0, 64, 64
1, 653763, Note_off_c, 0, 86, 65
1, 653769, Control_c, 0, 64, 66
1, 653784, Control_c, 0, 64, 71
1, 653798, Control_c, 0, 64, 80
1, 653811, Note_off_c, 0, 82, 65
1, 653813, Control_c, 0, 64, 91
1, 653814, Note_off_c, 0, 79, 66
1, 653825, Note_on_c, 0, 70, 53
1, 653828, Control_c, 0, 64, 100
1, 653843, Control_c, 0, 64, 111
1, 653857, Control_c, 0, 64, 127
1, 653881, Note_off_c, 0, 77, 60
1, 653923, Note_off_c, 0, 70, 51
1, 653927, Note_on_c, 0, 68, 46
1, 653993, Note_on_c, 0, 63, 54
1, 654062, Note_off_c, 0, 63, 45
1, 654064, Note_off_c, 0, 68, 52
1, 654146, Note_on_c, 0, 70, 59
1, 654194, Note_on_c, 0, 74, 59
1, 654249, Note_on_c, 0, 77, 55
1, 654268, Note_off_c, 0, 70, 38
1, 654284, Note_on_c, 0, 82, 53
1, 654317, Note_on_c, 0, 72, 57
1, 654329, Note_off_c, 0, 74, 57
1, 654364, Note_off_c, 0, 77, 61
1, 654369, Control_c, 0, 64, 84
1, 654384, Control_c, 0, 64, 68
1, 654399, Control_c, 0, 64, 60
1, 654414, Note_off_c, 0, 82, 39
1, 654414, Control_c, 0, 64, 57
1, 654428, Note_on_c, 0, 68, 49
1, 654443, Control_c, 0, 64, 59
1, 654458, Control_c, 0, 64, 62
1, 654472, Control_c, 0, 64, 65
1, 654487, Control_c, 0, 64, 69
1, 654502, Control_c, 0, 64, 73
1, 654517, Control_c, 0, 64, 79
1, 654532, Control_c, 0, 64, 83
1, 654547, Control_c, 0, 64, 88
1, 654562, Control_c, 0, 64, 96
1, 654570, Note_on_c, 0, 63, 54
1, 654576, Control_c, 0, 64, 109
1, 654591, Control_c, 0, 64, 127
1, 654610, Note_off_c, 0, 68, 36
1, 654621, Note_off_c, 0, 63, 56
1, 654738, Note_on_c, 0, 70, 58
1, 654743, Note_off_c, 0, 72, 62
1, 654791, Note_on_c, 0, 74, 52
1, 654803, Note_off_c, 0, 70, 64
1, 654825, Note_on_c, 0, 77, 56
1, 654859, Note_off_c, 0, 74, 62
1, 654861, Note_on_c, 0, 82, 64
1, 654869, Note_off_c, 0, 77, 58
1, 654922, Note_off_c, 0, 82, 64
1, 654954, Note_on_c, 0, 77, 82
1, 654969, Control_c, 0, 64, 84
1, 654984, Control_c, 0, 64, 63
1, 654999, Control_c, 0, 64, 51
1, 655014, Control_c, 0, 64, 51
1, 655030, Control_c, 0, 64, 55
1, 655045, Control_c, 0, 64, 60
1, 655050, Note_on_c, 0, 74, 55
1, 655059, Control_c, 0, 64, 63
1, 655074, Control_c, 0, 64, 67
1, 655089, Control_c, 0, 64, 72
1, 655104, Control_c, 0, 64, 79
1, 655119, Control_c, 0, 64, 86
1, 655134, Control_c, 0, 64, 93
1, 655134, Note_on_c, 0, 70, 49
1, 655149, Control_c, 0, 64, 99
1, 655164, Control_c, 0, 64, 108
1, 655178, Control_c, 0, 64, 127
1, 655251, Note_on_c, 0, 68, 52
1, 655271, Note_off_c, 0, 74, 63
1, 655284, Note_off_c, 0, 70, 62
1, 655289, Note_off_c, 0, 68, 62
1, 655326, Note_off_c, 0, 77, 63
1, 655399, Note_on_c, 0, 80, 78
1, 655447, Note_on_c, 0, 86, 64
1, 655493, Note_on_c, 0, 89, 58
1, 655518, Note_on_c, 0, 92, 71
1, 655556, Note_off_c, 0, 80, 63
1, 655590, Note_on_c, 0, 84, 81
1, 655631, Note_off_c, 0, 92, 64
1, 655639, Note_off_c, 0, 86, 59
1, 655661, Note_off_c, 0, 89, 62
1, 655724, Note_on_c, 0, 80, 42
1, 655759, Note_on_c, 0, 77, 53
1, 655869, Note_off_c, 0, 80, 64
1, 655888, Note_on_c, 0, 74, 43
1, 655924, Note_off_c, 0, 84, 61
1, 655948, Note_off_c, 0, 74, 56
1, 655999, Note_off_c, 0, 77, 62
1, 656016, Note_on_c, 0, 82, 72
1, 656054, Note_on_c, 0, 86, 54
1, 656090, Note_on_c, 0, 89, 60
1, 656121, Note_on_c, 0, 94, 73
1, 656135, Note_off_c, 0, 82, 61
1, 656192, Note_on_c, 0, 82, 74
1, 656198, Note_off_c, 0, 86, 64
1, 656204, Note_off_c, 0, 89, 63
1, 656209, Note_off_c, 0, 94, 62
1, 656231, Control_c, 0, 64, 92
1, 656246, Control_c, 0, 64, 70
1, 656261, Control_c, 0, 64, 59
1, 656275, Control_c, 0, 64, 51
1, 656290, Control_c, 0, 64, 50
1, 656305, Control_c, 0, 64, 52
1, 656307, Note_on_c, 0, 79, 63
1, 656320, Control_c, 0, 64, 58
1, 656334, Control_c, 0, 64, 63
1, 656349, Control_c, 0, 64, 65
1, 656364, Control_c, 0, 64, 67
1, 656379, Control_c, 0, 64, 71
1, 656391, Note_on_c, 0, 75, 46
1, 656394, Control_c, 0, 64, 76
1, 656408, Control_c, 0, 64, 81
1, 656423, Control_c, 0, 64, 87
1, 656438, Control_c, 0, 64, 94
1, 656452, Control_c, 0, 64, 104
1, 656459, Note_off_c, 0, 79, 62
1, 656467, Control_c, 0, 64, 119
1, 656478, Note_on_c, 0, 73, 59
1, 656482, Control_c, 0, 64, 127
1, 656513, Note_off_c, 0, 82, 63
1, 656523, Note_off_c, 0, 75, 62
1, 656533, Note_off_c, 0, 73, 61
1, 656598, Note_on_c, 0, 79, 44
1, 656649, Note_on_c, 0, 82, 44
1, 656703, Note_on_c, 0, 87, 62
1, 656739, Note_on_c, 0, 91, 63
1, 656820, Note_on_c, 0, 80, 72
1, 656824, Control_c, 0, 64, 86
1, 656839, Control_c, 0, 64, 69
1, 656847, Note_off_c, 0, 91, 63
1, 656854, Control_c, 0, 64, 64
1, 656871, Note_off_c, 0, 79, 58
1, 656884, Control_c, 0, 64, 66
1, 656890, Note_off_c, 0, 87, 63
1, 656898, Control_c, 0, 64, 69
1, 656913, Note_on_c, 0, 75, 52
1, 656913, Control_c, 0, 64, 73
1, 656928, Control_c, 0, 64, 80
1, 656931, Note_off_c, 0, 82, 65
1, 656943, Control_c, 0, 64, 86
1, 656957, Control_c, 0, 64, 91
1, 656979, Control_c, 0, 64, 95
1, 656994, Control_c, 0, 64, 97
1, 657009, Control_c, 0, 64, 101
1, 657022, Note_on_c, 0, 72, 58
1, 657024, Control_c, 0, 64, 109
1, 657039, Control_c, 0, 64, 127
1, 657043, Note_off_c, 0, 80, 58
1, 657079, Note_off_c, 0, 75, 51
1, 657130, Note_on_c, 0, 68, 51
1, 657149, Note_off_c, 0, 72, 61
1, 657182, Note_off_c, 0, 68, 60
1, 657280, Note_on_c, 0, 77, 57
1, 657319, Note_on_c, 0, 80, 62
1, 657368, Note_on_c, 0, 84, 57
1, 657402, Note_on_c, 0, 89, 68
1, 657485, Note_on_c, 0, 75, 72
1, 657497, Control_c, 0, 64, 84
1, 657512, Control_c, 0, 64, 64
1, 657527, Control_c, 0, 64, 50
1, 657528, Note_off_c, 0, 89, 62
1, 657542, Control_c, 0, 64, 48
1, 657557, Control_c, 0, 64, 49
1, 657559, Note_off_c, 0, 84, 64
1, 657571, Control_c, 0, 64, 56
1, 657575, Note_off_c, 0, 77, 63
1, 657577, Note_on_c, 0, 70, 63
1, 657586, Control_c, 0, 64, 63
1, 657590, Note_off_c, 0, 75, 60
1, 657601, Control_c, 0, 64, 68
1, 657610, Note_off_c, 0, 80, 64
1, 657616, Control_c, 0, 64, 74
1, 657631, Control_c, 0, 64, 83
1, 657645, Control_c, 0, 64, 96
1, 657660, Control_c, 0, 64, 127
1, 657661, Note_on_c, 0, 67, 38
1, 657677, Note_off_c, 0, 70, 62
1, 657689, Note_off_c, 0, 67, 52
1, 657772, Note_on_c, 0, 58, 60
1, 657814, Note_off_c, 0, 58, 61
1, 657921, Note_on_c, 0, 70, 65
1, 657954, Note_on_c, 0, 75, 67
1, 657979, Note_off_c, 0, 70, 62
1, 658001, Note_on_c, 0, 79, 62
1, 658037, Note_off_c, 0, 75, 62
1, 658052, Note_on_c, 0, 82, 53
1, 658052, Note_off_c, 0, 79, 60
1, 658091, Note_off_c, 0, 82, 65
1, 658128, Note_on_c, 0, 79, 66
1, 658157, Control_c, 0, 64, 113
1, 658171, Control_c, 0, 64, 73
1, 658186, Control_c, 0, 64, 57
1, 658201, Control_c, 0, 64, 38
1, 658216, Control_c, 0, 64, 35
1, 658231, Control_c, 0, 64, 38
1, 658237, Note_on_c, 0, 74, 52
1, 658246, Control_c, 0, 64, 52
1, 658261, Control_c, 0, 64, 59
1, 658276, Control_c, 0, 64, 63
1, 658291, Control_c, 0, 64, 65
1, 658306, Control_c, 0, 64, 67
1, 658317, Note_on_c, 0, 70, 41
1, 658320, Control_c, 0, 64, 69
1, 658335, Control_c, 0, 64, 72
1, 658350, Control_c, 0, 64, 72
1, 658380, Control_c, 0, 64, 74
1, 658394, Control_c, 0, 64, 77
1, 658409, Control_c, 0, 64, 80
1, 658424, Control_c, 0, 64, 84
1, 658429, Note_on_c, 0, 68, 41
1, 658439, Control_c, 0, 64, 84
1, 658450, Note_off_c, 0, 79, 61
1, 658454, Control_c, 0, 64, 85
1, 658475, Control_c, 0, 64, 87
1, 658490, Control_c, 0, 64, 90
1, 658505, Control_c, 0, 64, 94
1, 658520, Control_c, 0, 64, 95
1, 658535, Control_c, 0, 64, 96
1, 658538, Note_off_c, 0, 74, 41
1, 658550, Control_c, 0, 64, 96
1, 658565, Control_c, 0, 64, 99
1, 658571, Note_off_c, 0, 68, 55
1, 658580, Control_c, 0, 64, 101
1, 658589, Note_off_c, 0, 70, 40
1, 658595, Control_c, 0, 64, 102
1, 658601, Note_on_c, 0, 77, 55
1, 658624, Control_c, 0, 64, 103
1, 658639, Control_c, 0, 64, 108
1, 658651, Note_on_c, 0, 82, 48
1, 658654, Control_c, 0, 64, 122
1, 658669, Control_c, 0, 64, 127
1, 658690, Note_on_c, 0, 86, 57
1, 658740, Note_on_c, 0, 89, 59
1, 658828, Note_on_c, 0, 75, 56
1, 658857, Note_off_c, 0, 89, 61
1, 658875, Control_c, 0, 64, 79
1, 658877, Note_off_c, 0, 86, 62
1, 658890, Control_c, 0, 64, 60
1, 658893, Note_off_c, 0, 77, 60
1, 658905, Control_c, 0, 64, 51
1, 658920, Control_c, 0, 64, 52
1, 658920, Note_off_c, 0, 82, 61
1, 658935, Control_c, 0, 64, 55
1, 658949, Control_c, 0, 64, 60
1, 658952, Note_on_c, 0, 70, 50
1, 658964, Control_c, 0, 64, 63
1, 658979, Control_c, 0, 64, 66
1, 658994, Control_c, 0, 64, 69
1, 659009, Control_c, 0, 64, 72
1, 659024, Control_c, 0, 64, 74
1, 659027, Note_off_c, 0, 75, 45
1, 659058, Note_off_c, 0, 70, 58
1, 659069, Control_c, 0, 64, 75
1, 659072, Note_on_c, 0, 67, 42
1, 659084, Control_c, 0, 64, 77
1, 659098, Control_c, 0, 64, 79
1, 659113, Control_c, 0, 64, 80
1, 659128, Control_c, 0, 64, 81
1, 659203, Control_c, 0, 64, 81
1, 659218, Note_on_c, 0, 63, 25
1, 659224, Control_c, 0, 64, 82
1, 659239, Control_c, 0, 64, 82
1, 659253, Note_off_c, 0, 67, 30
1, 659254, Control_c, 0, 64, 83
1, 659284, Control_c, 0, 64, 83
1, 659298, Control_c, 0, 64, 84
1, 659313, Control_c, 0, 64, 85
1, 659328, Control_c, 0, 64, 87
1, 659343, Control_c, 0, 64, 88
1, 659350, Note_on_c, 0, 70, 42
1, 659358, Control_c, 0, 64, 89
1, 659373, Control_c, 0, 64, 90
1, 659388, Control_c, 0, 64, 91
1, 659403, Control_c, 0, 64, 94
1, 659417, Control_c, 0, 64, 97
1, 659432, Control_c, 0, 64, 100
1, 659447, Control_c, 0, 64, 101
1, 659462, Control_c, 0, 64, 102
1, 659477, Control_c, 0, 64, 103
1, 659492, Control_c, 0, 64, 107
1, 659492, Note_on_c, 0, 82, 48
1, 659495, Note_off_c, 0, 70, 34
1, 659506, Control_c, 0, 64, 117
1, 659521, Control_c, 0, 64, 127
1, 659640, Note_on_c, 0, 75, 48
1, 659646, Note_off_c, 0, 82, 33
1, 659655, Note_on_c, 0, 66, 40
1, 659728, Note_off_c, 0, 75, 62
1, 659748, Note_off_c, 0, 63, 30
1, 659760, Note_on_c, 0, 83, 53
1, 659769, Note_on_c, 0, 69, 45
1, 659817, Note_off_c, 0, 69, 59
1, 659818, Note_off_c, 0, 66, 31
1, 659845, Note_on_c, 0, 71, 47
1, 659851, Note_on_c, 0, 75, 58
1, 659868, Note_off_c, 0, 83, 54
1, 659888, Note_off_c, 0, 75, 62
1, 659926, Note_off_c, 0, 71, 59
1, 659927, Note_on_c, 0, 76, 60
1, 659962, Note_on_c, 0, 67, 39
1, 659974, Note_off_c, 0, 76, 62
1, 660009, Note_on_c, 0, 84, 65
1, 660028, Note_off_c, 0, 67, 60
1, 660044, Note_off_c, 0, 84, 63
1, 660071, Note_on_c, 0, 70, 37
1, 660077, Note_on_c, 0, 76, 62
1, 660098, Note_on_c, 0, 72, 36
1, 660126, Note_off_c, 0, 76, 57
1, 660130, Note_off_c, 0, 72, 55
1, 660153, Note_on_c, 0, 77, 67
1, 660157, Note_off_c, 0, 70, 33
1, 660168, Note_on_c, 0, 68, 54
1, 660219, Note_off_c, 0, 77, 62
1, 660228, Note_on_c, 0, 85, 62
1, 660258, Note_on_c, 0, 73, 64
1, 660273, Note_off_c, 0, 85, 55
1, 660280, Note_on_c, 0, 77, 58
1, 660281, Note_off_c, 0, 68, 57
1, 660324, Note_off_c, 0, 77, 63
1, 660327, Note_off_c, 0, 73, 59
1, 660358, Note_on_c, 0, 78, 75
1, 660393, Note_on_c, 0, 69, 57
1, 660413, Note_off_c, 0, 78, 64
1, 660425, Note_on_c, 0, 86, 68
1, 660495, Note_on_c, 0, 72, 52
1, 660495, Note_off_c, 0, 86, 64
1, 660496, Note_off_c, 0, 69, 61
1, 660499, Note_on_c, 0, 78, 63
1, 660523, Note_on_c, 0, 74, 57
1, 660553, Note_off_c, 0, 72, 60
1, 660568, Note_on_c, 0, 77, 73
1, 660571, Note_off_c, 0, 78, 61
1, 660602, Note_on_c, 0, 68, 57
1, 660606, Note_off_c, 0, 74, 62
1, 660625, Note_off_c, 0, 77, 62
1, 660630, Note_on_c, 0, 85, 71
1, 660672, Note_on_c, 0, 71, 47
1, 660694, Note_off_c, 0, 85, 59
1, 660695, Note_off_c, 0, 68, 56
1, 660701, Note_on_c, 0, 77, 70
1, 660738, Note_on_c, 0, 73, 55
1, 660738, Note_off_c, 0, 71, 59
1, 660746, Note_off_c, 0, 77, 61
1, 660780, Note_on_c, 0, 76, 74
1, 660799, Note_off_c, 0, 73, 49
1, 660808, Note_on_c, 0, 67, 51
1, 660825, Note_off_c, 0, 76, 63
1, 660835, Note_on_c, 0, 84, 67
1, 660890, Note_off_c, 0, 67, 63
1, 660895, Note_off_c, 0, 84, 62
1, 660900, Note_on_c, 0, 70, 63
1, 660911, Note_on_c, 0, 76, 76
1, 660929, Note_on_c, 0, 72, 52
1, 660935, Note_off_c, 0, 70, 63
1, 660947, Note_off_c, 0, 76, 60
1, 660988, Note_on_c, 0, 75, 69
1, 660996, Note_off_c, 0, 72, 61
1, 661003, Note_on_c, 0, 66, 59
1, 661034, Note_off_c, 0, 75, 60
1, 661039, Note_on_c, 0, 83, 72
1, 661057, Note_on_c, 0, 69, 51
1, 661084, Note_off_c, 0, 66, 55
1, 661114, Note_off_c, 0, 69, 60
1, 661125, Note_on_c, 0, 71, 56
1, 661127, Note_off_c, 0, 83, 63
1, 661140, Note_on_c, 0, 75, 52
1, 661175, Note_on_c, 0, 65, 55
1, 661175, Note_off_c, 0, 71, 61
1, 661182, Note_on_c, 0, 74, 71
1, 661182, Note_off_c, 0, 75, 59
1, 661233, Note_off_c, 0, 74, 59
1, 661252, Note_off_c, 0, 65, 61
1, 661261, Note_on_c, 0, 82, 70
1, 661268, Note_on_c, 0, 68, 60
1, 661306, Note_off_c, 0, 68, 62
1, 661313, Note_off_c, 0, 82, 62
1, 661319, Note_on_c, 0, 70, 49
1, 661343, Note_on_c, 0, 74, 66
1, 661397, Note_on_c, 0, 64, 55
1, 661406, Note_off_c, 0, 74, 62
1, 661418, Note_off_c, 0, 70, 48
1, 661432, Note_on_c, 0, 73, 64
1, 661482, Note_on_c, 0, 67, 57
1, 661489, Note_off_c, 0, 64, 56
1, 661505, Note_off_c, 0, 73, 64
1, 661510, Note_on_c, 0, 81, 63
1, 661555, Note_on_c, 0, 69, 63
1, 661591, Note_off_c, 0, 67, 45
1, 661598, Note_off_c, 0, 81, 59
1, 661603, Note_on_c, 0, 73, 56
1, 661673, Note_off_c, 0, 69, 25
1, 661704, Note_off_c, 0, 73, 58
1, 661722, Note_on_c, 0, 58, 82
1, 661737, Control_c, 0, 64, 103
1, 661752, Control_c, 0, 64, 68
1, 661767, Control_c, 0, 64, 43
1, 661774, Poly_aftertouch_c, 0, 74, 0
1, 661782, Control_c, 0, 64, 0
1, 661841, Control_c, 0, 64, 46
1, 661850, Note_on_c, 0, 68, 48
1, 661856, Control_c, 0, 64, 56
1, 661871, Control_c, 0, 64, 58
1, 661886, Control_c, 0, 64, 59
1, 661901, Control_c, 0, 64, 62
1, 661915, Control_c, 0, 64, 63
1, 661930, Control_c, 0, 64, 65
1, 661936, Note_off_c, 0, 68, 61
1, 661945, Control_c, 0, 64, 67
1, 661960, Control_c, 0, 64, 70
1, 661975, Control_c, 0, 64, 78
1, 661980, Note_on_c, 0, 70, 4
1, 661990, Control_c, 0, 64, 94
1, 662005, Control_c, 0, 64, 127
1, 662040, Note_off_c, 0, 70, 47
1, 662069, Note_on_c, 0, 63, 73
1, 662079, Control_c, 0, 64, 91
1, 662093, Control_c, 0, 64, 63
1, 662108, Control_c, 0, 64, 29
1, 662108, Control_c, 0, 67, 120
1, 662123, Control_c, 0, 64, 0
1, 662123, Control_c, 0, 67, 102
1, 662136, Note_off_c, 0, 58, 62
1, 662137, Control_c, 0, 67, 79
1, 662152, Control_c, 0, 64, 37
1, 662152, Control_c, 0, 67, 54
1, 662167, Control_c, 0, 64, 54
1, 662167, Control_c, 0, 67, 33
1, 662182, Control_c, 0, 64, 59
1, 662182, Control_c, 0, 67, 24
1, 662184, Note_on_c, 0, 67, 64
1, 662197, Control_c, 0, 64, 60
1, 662197, Control_c, 0, 67, 20
1, 662220, Control_c, 0, 64, 61
1, 662220, Control_c, 0, 67, 17
1, 662235, Control_c, 0, 64, 62
1, 662235, Control_c, 0, 67, 15
1, 662249, Control_c, 0, 64, 65
1, 662249, Control_c, 0, 67, 12
1, 662264, Control_c, 0, 64, 70
1, 662264, Control_c, 0, 67, 12
1, 662279, Control_c, 0, 64, 77
1, 662294, Control_c, 0, 64, 85
1, 662299, Note_on_c, 0, 75, 44
1, 662309, Control_c, 0, 64, 92
1, 662309, Control_c, 0, 67, 11
1, 662315, Note_on_c, 0, 70, 30
1, 662324, Control_c, 0, 64, 101
1, 662324, Control_c, 0, 67, 10
1, 662339, Control_c, 0, 64, 115
1, 662339, Control_c, 0, 67, 9
1, 662354, Control_c, 0, 64, 127
1, 662354, Control_c, 0, 67, 0
1, 662357, Note_on_c, 0, 79, 53
1, 662358, Note_off_c, 0, 67, 60
1, 662395, Note_on_c, 0, 82, 49
1, 662395, Note_off_c, 0, 63, 63
1, 662446, Note_off_c, 0, 75, 34
1, 662455, Note_on_c, 0, 87, 57
1, 662511, Note_off_c, 0, 79, 62
1, 662530, Note_off_c, 0, 82, 62
1, 662564, Note_off_c, 0, 70, 42
1, 662602, Note_on_c, 0, 65, 78
1, 662616, Note_off_c, 0, 87, 61
1, 662745, Note_off_c, 0, 65, 59
1, 662749, Note_on_c, 0, 67, 78
1, 662783, Control_c, 0, 64, 106
1, 662798, Control_c, 0, 64, 70
1, 662813, Control_c, 0, 64, 57
1, 662828, Control_c, 0, 64, 49
1, 662837, Note_on_c, 0, 70, 66
1, 662842, Control_c, 0, 64, 49
1, 662857, Control_c, 0, 64, 50
1, 662872, Control_c, 0, 64, 56
1, 662886, Control_c, 0, 64, 61
1, 662901, Control_c, 0, 64, 62
1, 662916, Control_c, 0, 64, 63
1, 662920, Note_on_c, 0, 75, 37
1, 662931, Control_c, 0, 64, 66
1, 662934, Note_on_c, 0, 79, 47
1, 662946, Control_c, 0, 64, 70
1, 662968, Control_c, 0, 64, 79
1, 662983, Control_c, 0, 64, 94
1, 662990, Note_on_c, 0, 82, 57
1, 662998, Control_c, 0, 64, 112
1, 663012, Control_c, 0, 64, 127
1, 663039, Note_on_c, 0, 87, 52
1, 663041, Note_off_c, 0, 67, 61
1, 663042, Note_off_c, 0, 70, 43
1, 663085, Note_on_c, 0, 91, 64
1, 663185, Note_off_c, 0, 79, 54
1, 663222, Note_off_c, 0, 82, 64
1, 663230, Note_on_c, 0, 68, 81
1, 663240, Note_off_c, 0, 91, 64
1, 663250, Note_off_c, 0, 75, 42
1, 663252, Note_off_c, 0, 87, 64
1, 663382, Note_on_c, 0, 70, 78
1, 663429, Control_c, 0, 64, 85
1, 663436, Note_off_c, 0, 68, 61
1, 663444, Control_c, 0, 64, 64
1, 663446, Note_on_c, 0, 75, 62
1, 663459, Control_c, 0, 64, 44
1, 663473, Control_c, 0, 64, 40
1, 663503, Control_c, 0, 64, 49
1, 663517, Control_c, 0, 64, 59
1, 663522, Note_on_c, 0, 79, 60
1, 663532, Control_c, 0, 64, 63
1, 663547, Control_c, 0, 64, 65
1, 663562, Control_c, 0, 64, 67
1, 663577, Control_c, 0, 64, 69
1, 663590, Note_on_c, 0, 82, 60
1, 663591, Control_c, 0, 64, 73
1, 663606, Note_off_c, 0, 75, 54
1, 663606, Control_c, 0, 64, 82
1, 663621, Control_c, 0, 64, 117
1, 663636, Control_c, 0, 64, 127
1, 663644, Note_on_c, 0, 87, 63
1, 663678, Note_on_c, 0, 91, 59
1, 663681, Note_off_c, 0, 79, 59
1, 663732, Note_on_c, 0, 94, 71
1, 663752, Note_off_c, 0, 82, 60
1, 663806, Note_off_c, 0, 87, 64
1, 663807, Note_off_c, 0, 70, 59
1, 663824, Note_off_c, 0, 91, 64
1, 663868, Note_off_c, 0, 94, 60
1, 663883, Note_on_c, 0, 70, 86
1, 663999, Note_off_c, 0, 70, 60
1, 664041, Note_on_c, 0, 72, 82
1, 664059, Control_c, 0, 64, 97
1, 664074, Control_c, 0, 64, 68
1, 664088, Control_c, 0, 64, 53
1, 664103, Control_c, 0, 64, 43
1, 664115, Note_on_c, 0, 75, 77
1, 664118, Control_c, 0, 64, 39
1, 664147, Control_c, 0, 64, 49
1, 664162, Control_c, 0, 64, 58
1, 664177, Control_c, 0, 64, 60
1, 664189, Note_on_c, 0, 79, 55
1, 664221, Control_c, 0, 64, 61
1, 664235, Note_on_c, 0, 84, 54
1, 664236, Control_c, 0, 64, 63
1, 664251, Control_c, 0, 64, 64
1, 664261, Note_on_c, 0, 87, 59
1, 664266, Control_c, 0, 64, 65
1, 664281, Control_c, 0, 64, 66
1, 664295, Control_c, 0, 64, 67
1, 664310, Note_on_c, 0, 91, 59
1, 664310, Control_c, 0, 64, 70
1, 664325, Control_c, 0, 64, 74
1, 664329, Note_off_c, 0, 79, 54
1, 664339, Control_c, 0, 64, 77
1, 664354, Control_c, 0, 64, 79
1, 664369, Control_c, 0, 64, 80
1, 664384, Control_c, 0, 64, 81
1, 664385, Note_on_c, 0, 96, 63
1, 664399, Control_c, 0, 64, 84
1, 664404, Note_off_c, 0, 75, 53
1, 664413, Control_c, 0, 64, 86
1, 664428, Control_c, 0, 64, 87
1, 664443, Control_c, 0, 64, 88
1, 664466, Control_c, 0, 64, 91
1, 664481, Control_c, 0, 64, 104
1, 664493, Note_off_c, 0, 84, 62
1, 664495, Control_c, 0, 64, 127
1, 664497, Note_off_c, 0, 96, 65
1, 664512, Note_off_c, 0, 91, 61
1, 664545, Note_on_c, 0, 70, 76
1, 664563, Note_off_c, 0, 87, 64
1, 664586, Note_off_c, 0, 72, 61
1, 664631, Note_off_c, 0, 70, 62
1, 664698, Note_on_c, 0, 70, 79
1, 664733, Control_c, 0, 64, 85
1, 664748, Control_c, 0, 64, 65
1, 664762, Control_c, 0, 64, 51
1, 664777, Control_c, 0, 64, 49
1, 664788, Note_on_c, 0, 74, 67
1, 664792, Control_c, 0, 64, 50
1, 664807, Control_c, 0, 64, 57
1, 664822, Control_c, 0, 64, 61
1, 664837, Control_c, 0, 64, 64
1, 664852, Control_c, 0, 64, 65
1, 664867, Control_c, 0, 64, 67
1, 664868, Note_on_c, 0, 77, 50
1, 664881, Control_c, 0, 64, 69
1, 664896, Control_c, 0, 64, 70
1, 664904, Note_on_c, 0, 82, 59
1, 664911, Note_off_c, 0, 74, 62
1, 664911, Control_c, 0, 64, 72
1, 664926, Control_c, 0, 64, 76
1, 664939, Note_on_c, 0, 86, 59
1, 664941, Control_c, 0, 64, 84
1, 664956, Control_c, 0, 64, 90
1, 664970, Control_c, 0, 64, 93
1, 664985, Control_c, 0, 64, 96
1, 664986, Note_off_c, 0, 77, 51
1, 664988, Note_on_c, 0, 89, 65
1, 665000, Control_c, 0, 64, 106
1, 665015, Control_c, 0, 64, 127
1, 665024, Note_on_c, 0, 94, 64
1, 665102, Note_off_c, 0, 70, 58
1, 665156, Note_off_c, 0, 94, 62
1, 665168, Note_on_c, 0, 69, 72
1, 665191, Note_off_c, 0, 86, 64
1, 665196, Note_off_c, 0, 89, 61
1, 665213, Note_off_c, 0, 82, 57
1, 665260, Note_off_c, 0, 69, 63
1, 665335, Note_on_c, 0, 68, 78
1, 665362, Control_c, 0, 64, 107
1, 665377, Control_c, 0, 64, 73
1, 665387, Note_on_c, 0, 74, 64
1, 665392, Control_c, 0, 64, 60
1, 665407, Control_c, 0, 64, 56
1, 665423, Control_c, 0, 64, 57
1, 665438, Control_c, 0, 64, 60
1, 665453, Control_c, 0, 64, 62
1, 665467, Control_c, 0, 64, 64
1, 665482, Control_c, 0, 64, 67
1, 665488, Note_on_c, 0, 77, 52
1, 665497, Control_c, 0, 64, 69
1, 665512, Control_c, 0, 64, 71
1, 665525, Note_off_c, 0, 74, 61
1, 665527, Control_c, 0, 64, 72
1, 665534, Note_on_c, 0, 80, 53
1, 665541, Control_c, 0, 64, 75
1, 665556, Control_c, 0, 64, 81
1, 665568, Note_on_c, 0, 82, 54
1, 665571, Control_c, 0, 64, 89
1, 665585, Control_c, 0, 64, 96
1, 665600, Control_c, 0, 64, 102
1, 665609, Note_off_c, 0, 77, 54
1, 665615, Note_on_c, 0, 86, 57
1, 665615, Control_c, 0, 64, 108
1, 665630, Control_c, 0, 64, 127
1, 665662, Note_on_c, 0, 92, 66
1, 665743, Note_off_c, 0, 68, 59
1, 665806, Note_off_c, 0, 92, 61
1, 665823, Note_on_c, 0, 67, 76
1, 665847, Note_off_c, 0, 86, 64
1, 665901, Note_off_c, 0, 82, 64
1, 665902, Note_off_c, 0, 80, 62
1, 665906, Note_off_c, 0, 67, 62
1, 665988, Note_on_c, 0, 65, 74
1, 666023, Control_c, 0, 64, 119
1, 666038, Control_c, 0, 64, 74
1, 666053, Control_c, 0, 64, 59
1, 666067, Control_c, 0, 64, 50
1, 666075, Note_on_c, 0, 70, 60
1, 666082, Control_c, 0, 64, 50
1, 666097, Control_c, 0, 64, 57
1, 666111, Control_c, 0, 64, 64
1, 666126, Control_c, 0, 64, 69
1, 666140, Note_on_c, 0, 74, 45
1, 666141, Control_c, 0, 64, 74
1, 666156, Control_c, 0, 64, 80
1, 666171, Note_off_c, 0, 70, 56
1, 666171, Control_c, 0, 64, 82
1, 666174, Note_on_c, 0, 77, 53
1, 666178, Note_off_c, 0, 74, 45
1, 666185, Control_c, 0, 64, 83
1, 666200, Control_c, 0, 64, 83
1, 666216, Control_c, 0, 64, 84
1, 666231, Control_c, 0, 64, 89
1, 666232, Note_on_c, 0, 80, 50
1, 666246, Control_c, 0, 64, 104
1, 666257, Note_on_c, 0, 86, 60
1, 666261, Control_c, 0, 64, 127
1, 666271, Note_off_c, 0, 65, 63
1, 666306, Note_on_c, 0, 89, 65
1, 666414, Note_off_c, 0, 89, 64
1, 666429, Note_off_c, 0, 86, 64
1, 666449, Note_off_c, 0, 77, 63
1, 666464, Note_off_c, 0, 80, 63
1, 666467, Note_on_c, 0, 58, 77
1, 666563, Note_off_c, 0, 58, 59
1, 666635, Note_on_c, 0, 60, 80
1, 666676, Control_c, 0, 64, 89
1, 666690, Control_c, 0, 64, 66
1, 666711, Note_on_c, 0, 65, 62
1, 666712, Control_c, 0, 64, 44
1, 666727, Control_c, 0, 64, 23
1, 666742, Control_c, 0, 64, 18
1, 666756, Control_c, 0, 64, 26
1, 666771, Control_c, 0, 64, 46
1, 666786, Control_c, 0, 64, 56
1, 666801, Control_c, 0, 64, 60
1, 666805, Note_on_c, 0, 68, 51
1, 666816, Control_c, 0, 64, 62
1, 666831, Control_c, 0, 64, 63
1, 666846, Control_c, 0, 64, 64
1, 666848, Note_on_c, 0, 70, 55
1, 666848, Note_off_c, 0, 65, 63
1, 666861, Control_c, 0, 64, 66
1, 666876, Control_c, 0, 64, 68
1, 666885, Note_on_c, 0, 74, 58
1, 666890, Control_c, 0, 64, 71
1, 666905, Control_c, 0, 64, 74
1, 666920, Control_c, 0, 64, 77
1, 666920, Note_off_c, 0, 70, 59
1, 666934, Control_c, 0, 64, 82
1, 666935, Note_on_c, 0, 77, 56
1, 666949, Control_c, 0, 64, 90
1, 666960, Note_off_c, 0, 68, 50
1, 666964, Control_c, 0, 64, 106
1, 666979, Control_c, 0, 64, 127
1, 666983, Note_on_c, 0, 82, 72
1, 666994, Note_off_c, 0, 74, 59
1, 667012, Note_off_c, 0, 60, 57
1, 667015, Note_off_c, 0, 77, 62
1, 667053, Note_off_c, 0, 82, 63
1, 667130, Note_on_c, 0, 58, 80
1, 667198, Note_off_c, 0, 58, 62
1, 667293, Note_on_c, 0, 65, 85
1, 667321, Control_c, 0, 64, 73
1, 667336, Control_c, 0, 64, 56
1, 667351, Control_c, 0, 64, 35
1, 667365, Control_c, 0, 64, 32
1, 667380, Control_c, 0, 64, 38
1, 667395, Control_c, 0, 64, 52
1, 667399, Note_on_c, 0, 70, 64
1, 667410, Control_c, 0, 64, 58
1, 667424, Control_c, 0, 64, 62
1, 667439, Control_c, 0, 64, 65
1, 667462, Control_c, 0, 64, 68
1, 667474, Note_off_c, 0, 70, 61
1, 667477, Control_c, 0, 64, 74
1, 667478, Note_on_c, 0, 74, 63
1, 667481, Note_on_c, 0, 77, 57
1, 667492, Control_c, 0, 64, 84
1, 667506, Control_c, 0, 64, 106
1, 667517, Note_on_c, 0, 80, 59
1, 667521, Control_c, 0, 64, 127
1, 667549, Note_off_c, 0, 74, 60
1, 667550, Note_off_c, 0, 65, 61
1, 667561, Note_on_c, 0, 86, 61
1, 667593, Note_off_c, 0, 77, 60
1, 667611, Note_on_c, 0, 89, 77
1, 667634, Note_off_c, 0, 80, 64
1, 667659, Note_off_c, 0, 86, 64
1, 667687, Note_off_c, 0, 89, 63
1, 667765, Note_on_c, 0, 68, 87
1, 667846, Note_off_c, 0, 68, 60
1, 667932, Note_on_c, 0, 72, 82
1, 667966, Control_c, 0, 64, 120
1, 667980, Control_c, 0, 64, 71
1, 667995, Control_c, 0, 64, 53
1, 668010, Control_c, 0, 64, 38
1, 668025, Control_c, 0, 64, 39
1, 668030, Note_on_c, 0, 77, 71
1, 668040, Control_c, 0, 64, 51
1, 668054, Control_c, 0, 64, 62
1, 668069, Control_c, 0, 64, 66
1, 668084, Control_c, 0, 64, 70
1, 668092, Note_on_c, 0, 80, 47
1, 668096, Note_on_c, 0, 84, 66
1, 668099, Control_c, 0, 64, 75
1, 668114, Control_c, 0, 64, 80
1, 668128, Control_c, 0, 64, 88
1, 668143, Control_c, 0, 64, 102
1, 668154, Note_on_c, 0, 86, 55
1, 668158, Control_c, 0, 64, 127
1, 668168, Note_off_c, 0, 77, 61
1, 668189, Note_off_c, 0, 80, 26
1, 668193, Note_on_c, 0, 89, 62
1, 668229, Note_off_c, 0, 84, 62
1, 668266, Note_off_c, 0, 86, 51
1, 668269, Note_on_c, 0, 96, 64
1, 668298, Note_off_c, 0, 72, 60
1, 668306, Note_on_c, 0, 93, 22
1, 668357, Note_off_c, 0, 96, 64
1, 668360, Note_off_c, 0, 93, 45
1, 668360, Note_off_c, 0, 89, 62
1, 668423, Note_on_c, 0, 70, 87
1, 668518, Note_off_c, 0, 70, 60
1, 668592, Note_on_c, 0, 70, 86
1, 668610, Control_c, 0, 64, 95
1, 668625, Control_c, 0, 64, 67
1, 668640, Control_c, 0, 64, 51
1, 668655, Control_c, 0, 64, 39
1, 668658, Note_on_c, 0, 75, 73
1, 668684, Control_c, 0, 64, 51
1, 668699, Control_c, 0, 64, 62
1, 668714, Control_c, 0, 64, 67
1, 668729, Control_c, 0, 64, 70
1, 668732, Note_on_c, 0, 79, 65
1, 668744, Control_c, 0, 64, 72
1, 668758, Control_c, 0, 64, 72
1, 668759, Note_on_c, 0, 82, 55
1, 668773, Control_c, 0, 64, 74
1, 668775, Note_off_c, 0, 75, 58
1, 668788, Control_c, 0, 64, 78
1, 668802, Control_c, 0, 64, 87
1, 668803, Note_off_c, 0, 79, 60
1, 668817, Control_c, 0, 64, 114
1, 668827, Note_on_c, 0, 85, 58
1, 668832, Control_c, 0, 64, 127
1, 668872, Note_off_c, 0, 82, 53
1, 668880, Note_on_c, 0, 87, 55
1, 668897, Note_off_c, 0, 70, 63
1, 668930, Note_on_c, 0, 94, 69
1, 669039, Note_off_c, 0, 94, 62
1, 669067, Note_off_c, 0, 87, 63
1, 669083, Note_off_c, 0, 85, 38
1, 669087, Note_on_c, 0, 67, 79
1, 669204, Note_off_c, 0, 67, 52
1, 669277, Note_on_c, 0, 68, 82
1, 669299, Control_c, 0, 64, 76
1, 669308, Note_on_c, 0, 72, 61
1, 669314, Control_c, 0, 64, 58
1, 669328, Control_c, 0, 64, 45
1, 669343, Control_c, 0, 64, 37
1, 669358, Control_c, 0, 64, 36
1, 669373, Control_c, 0, 64, 41
1, 669388, Control_c, 0, 64, 50
1, 669403, Control_c, 0, 64, 55
1, 669418, Control_c, 0, 64, 59
1, 669425, Note_on_c, 0, 75, 52
1, 669433, Control_c, 0, 64, 61
1, 669448, Control_c, 0, 64, 62
1, 669463, Control_c, 0, 64, 64
1, 669478, Control_c, 0, 64, 65
1, 669481, Note_on_c, 0, 80, 45
1, 669493, Control_c, 0, 64, 67
1, 669507, Control_c, 0, 64, 70
1, 669514, Note_off_c, 0, 72, 64
1, 669522, Control_c, 0, 64, 72
1, 669537, Control_c, 0, 64, 75
1, 669552, Control_c, 0, 64, 80
1, 669562, Note_on_c, 0, 84, 51
1, 669567, Control_c, 0, 64, 87
1, 669577, Note_off_c, 0, 75, 55
1, 669581, Control_c, 0, 64, 96
1, 669583, Note_on_c, 0, 87, 51
1, 669596, Control_c, 0, 64, 110
1, 669611, Control_c, 0, 64, 127
1, 669618, Note_off_c, 0, 80, 32
1, 669621, Note_on_c, 0, 92, 67
1, 669665, Note_off_c, 0, 92, 61
1, 669669, Note_off_c, 0, 84, 60
1, 669684, Note_off_c, 0, 87, 63
1, 669755, Note_off_c, 0, 68, 60
1, 669776, Note_on_c, 0, 65, 71
1, 669903, Note_off_c, 0, 65, 53
1, 669937, Note_on_c, 0, 63, 72
1, 669944, Control_c, 0, 64, 89
1, 669958, Control_c, 0, 64, 66
1, 669973, Control_c, 0, 64, 53
1, 669988, Control_c, 0, 64, 50
1, 670003, Control_c, 0, 64, 50
1, 670018, Control_c, 0, 64, 54
1, 670032, Note_on_c, 0, 67, 59
1, 670032, Control_c, 0, 64, 58
1, 670047, Control_c, 0, 64, 59
1, 670062, Control_c, 0, 64, 60
1, 670077, Control_c, 0, 64, 63
1, 670092, Control_c, 0, 64, 66
1, 670106, Control_c, 0, 64, 70
1, 670117, Note_on_c, 0, 75, 42
1, 670121, Control_c, 0, 64, 74
1, 670131, Note_on_c, 0, 70, 51
1, 670136, Control_c, 0, 64, 77
1, 670150, Control_c, 0, 64, 79
1, 670165, Control_c, 0, 64, 82
1, 670170, Note_on_c, 0, 79, 57
1, 670173, Note_off_c, 0, 75, 58
1, 670174, Note_off_c, 0, 67, 58
1, 670180, Control_c, 0, 64, 85
1, 670196, Note_off_c, 0, 70, 59
1, 670196, Control_c, 0, 64, 89
1, 670208, Note_off_c, 0, 63, 62
1, 670211, Control_c, 0, 64, 94
1, 670221, Note_on_c, 0, 82, 55
1, 670226, Control_c, 0, 64, 100
1, 670241, Control_c, 0, 64, 127
1, 670280, Note_on_c, 0, 87, 62
1, 670284, Note_off_c, 0, 79, 57
1, 670338, Note_off_c, 0, 82, 63
1, 670386, Note_off_c, 0, 87, 64
1, 670439, Note_on_c, 0, 58, 63
1, 670499, Note_off_c, 0, 58, 61
1, 670623, Note_on_c, 0, 67, 75
1, 670677, Control_c, 0, 64, 80
1, 670692, Control_c, 0, 64, 64
1, 670707, Control_c, 0, 64, 57
1, 670713, Note_on_c, 0, 70, 59
1, 670722, Control_c, 0, 64, 55
1, 670736, Control_c, 0, 64, 55
1, 670751, Control_c, 0, 64, 60
1, 670767, Control_c, 0, 64, 64
1, 670775, Note_on_c, 0, 80, 50
1, 670780, Note_on_c, 0, 74, 54
1, 670781, Control_c, 0, 64, 67
1, 670796, Control_c, 0, 64, 69
1, 670811, Control_c, 0, 64, 70
1, 670825, Note_off_c, 0, 70, 56
1, 670826, Control_c, 0, 64, 73
1, 670830, Note_on_c, 0, 82, 56
1, 670841, Control_c, 0, 64, 76
1, 670844, Note_off_c, 0, 80, 56
1, 670855, Control_c, 0, 64, 81
1, 670870, Control_c, 0, 64, 87
1, 670885, Control_c, 0, 64, 94
1, 670898, Note_on_c, 0, 86, 57
1, 670900, Control_c, 0, 64, 107
1, 670903, Note_off_c, 0, 82, 64
1, 670907, Note_off_c, 0, 74, 53
1, 670915, Control_c, 0, 64, 127
1, 670975, Note_off_c, 0, 67, 57
1, 670983, Note_off_c, 0, 86, 58
1, 670989, Note_on_c, 0, 94, 64
1, 671091, Note_off_c, 0, 94, 59
1, 671156, Note_on_c, 0, 65, 56
1, 671329, Note_off_c, 0, 65, 33
1, 671382, Note_on_c, 0, 63, 66
1, 671412, Control_c, 0, 64, 79
1, 671427, Control_c, 0, 64, 64
1, 671442, Control_c, 0, 64, 52
1, 671457, Control_c, 0, 64, 41
1, 671472, Control_c, 0, 64, 39
1, 671477, Note_on_c, 0, 67, 51
1, 671486, Control_c, 0, 64, 42
1, 671501, Control_c, 0, 64, 50
1, 671516, Control_c, 0, 64, 56
1, 671531, Control_c, 0, 64, 58
1, 671546, Control_c, 0, 64, 60
1, 671560, Control_c, 0, 64, 60
1, 671575, Note_on_c, 0, 70, 51
1, 671575, Control_c, 0, 64, 61
1, 671590, Control_c, 0, 64, 62
1, 671604, Control_c, 0, 64, 63
1, 671612, Note_off_c, 0, 67, 60
1, 671619, Control_c, 0, 64, 64
1, 671630, Note_on_c, 0, 75, 48
1, 671634, Control_c, 0, 64, 65
1, 671649, Control_c, 0, 64, 66
1, 671678, Control_c, 0, 64, 67
1, 671684, Note_off_c, 0, 70, 61
1, 671693, Control_c, 0, 64, 67
1, 671708, Control_c, 0, 64, 68
1, 671714, Note_off_c, 0, 75, 55
1, 671723, Control_c, 0, 64, 69
1, 671729, Note_on_c, 0, 79, 50
1, 671767, Control_c, 0, 64, 69
1, 671782, Control_c, 0, 64, 70
1, 671798, Control_c, 0, 64, 71
1, 671812, Note_on_c, 0, 82, 52
1, 671813, Control_c, 0, 64, 72
1, 671819, Note_off_c, 0, 79, 60
1, 671828, Control_c, 0, 64, 73
1, 671843, Control_c, 0, 64, 74
1, 671873, Control_c, 0, 64, 75
1, 671873, Control_c, 0, 67, 9
1, 671888, Control_c, 0, 64, 77
1, 671888, Control_c, 0, 67, 14
1, 671902, Control_c, 0, 64, 80
1, 671902, Control_c, 0, 67, 19
1, 671917, Control_c, 0, 64, 85
1, 671917, Control_c, 0, 67, 25
1, 671919, Note_on_c, 0, 87, 54
1, 671932, Control_c, 0, 64, 91
1, 671932, Control_c, 0, 67, 34
1, 671955, Control_c, 0, 64, 99
1, 671955, Control_c, 0, 67, 41
1, 671970, Control_c, 0, 64, 115
1, 671970, Control_c, 0, 67, 46
1, 671984, Control_c, 0, 64, 127
1, 671984, Control_c, 0, 67, 52
1, 671997, Note_off_c, 0, 87, 61
1, 671999, Control_c, 0, 67, 57
1, 672000, Note_off_c, 0, 82, 40
1, 672014, Control_c, 0, 67, 62
1, 672028, Control_c, 0, 67, 66
1, 672043, Control_c, 0, 67, 69
1, 672058, Control_c, 0, 67, 69
1, 672073, Control_c, 0, 67, 70
1, 672102, Control_c, 0, 67, 71
1, 672162, Control_c, 0, 67, 71
1, 672176, Control_c, 0, 64, 84
1, 672191, Control_c, 0, 64, 67
1, 672206, Note_on_c, 0, 66, 45
1, 672206, Control_c, 0, 64, 57
1, 672215, Note_on_c, 0, 75, 52
1, 672221, Control_c, 0, 64, 57
1, 672235, Control_c, 0, 64, 59
1, 672250, Control_c, 0, 64, 62
1, 672265, Control_c, 0, 64, 64
1, 672280, Control_c, 0, 64, 66
1, 672280, Control_c, 0, 67, 72
1, 672287, Note_off_c, 0, 75, 62
1, 672295, Control_c, 0, 64, 69
1, 672295, Control_c, 0, 67, 72
1, 672298, Note_off_c, 0, 63, 53
1, 672310, Control_c, 0, 64, 72
1, 672310, Control_c, 0, 67, 73
1, 672312, Note_on_c, 0, 69, 48
1, 672314, Note_on_c, 0, 83, 50
1, 672325, Control_c, 0, 64, 74
1, 672340, Control_c, 0, 64, 75
1, 672355, Control_c, 0, 64, 75
1, 672357, Note_off_c, 0, 66, 37
1, 672368, Note_off_c, 0, 69, 61
1, 672369, Control_c, 0, 64, 76
1, 672369, Control_c, 0, 67, 74
1, 672384, Control_c, 0, 64, 78
1, 672384, Control_c, 0, 67, 75
1, 672388, Note_on_c, 0, 71, 48
1, 672399, Control_c, 0, 64, 82
1, 672399, Control_c, 0, 67, 82
1, 672402, Note_on_c, 0, 75, 56
1, 672402, Note_off_c, 0, 83, 51
1, 672414, Control_c, 0, 64, 84
1, 672414, Control_c, 0, 67, 95
1, 672428, Control_c, 0, 64, 86
1, 672428, Control_c, 0, 67, 102
1, 672439, Note_off_c, 0, 75, 63
1, 672443, Control_c, 0, 64, 87
1, 672443, Control_c, 0, 67, 105
1, 672449, Note_off_c, 0, 71, 50
1, 672458, Control_c, 0, 64, 88
1, 672458, Control_c, 0, 67, 107
1, 672473, Control_c, 0, 67, 109
1, 672478, Note_on_c, 0, 76, 58
1, 672488, Control_c, 0, 64, 88
1, 672488, Control_c, 0, 67, 110
1, 672489, Note_on_c, 0, 67, 52
1, 672502, Control_c, 0, 67, 112
1, 672513, Note_off_c, 0, 76, 64
1, 672517, Control_c, 0, 64, 89
1, 672517, Control_c, 0, 67, 114
1, 672532, Control_c, 0, 67, 115
1, 672541, Note_on_c, 0, 84, 59
1, 672546, Control_c, 0, 67, 119
1, 672559, Note_off_c, 0, 67, 62
1, 672561, Control_c, 0, 67, 122
1, 672569, Note_on_c, 0, 70, 54
1, 672574, Note_off_c, 0, 84, 66
1, 672576, Control_c, 0, 67, 125
1, 672591, Control_c, 0, 67, 127
1, 672602, Note_on_c, 0, 76, 65
1, 672607, Control_c, 0, 67, 127
1, 672626, Note_on_c, 0, 72, 27
1, 672645, Note_off_c, 0, 76, 59
1, 672651, Control_c, 0, 64, 89
1, 672660, Note_off_c, 0, 72, 50
1, 672676, Note_on_c, 0, 68, 60
1, 672682, Note_on_c, 0, 77, 63
1, 672686, Note_off_c, 0, 70, 28
1, 672703, Control_c, 0, 64, 90
1, 672733, Control_c, 0, 64, 91
1, 672739, Note_off_c, 0, 77, 61
1, 672746, Note_on_c, 0, 85, 61
1, 672748, Control_c, 0, 64, 91
1, 672763, Control_c, 0, 64, 92
1, 672770, Note_on_c, 0, 73, 63
1, 672773, Note_off_c, 0, 68, 60
1, 672790, Note_off_c, 0, 85, 53
1, 672811, Note_on_c, 0, 77, 43
1, 672836, Note_off_c, 0, 77, 60
1, 672843, Note_off_c, 0, 73, 56
1, 672866, Note_on_c, 0, 78, 70
1, 672883, Note_on_c, 0, 69, 62
1, 672912, Note_off_c, 0, 78, 61
1, 672917, Note_on_c, 0, 86, 67
1, 672977, Note_off_c, 0, 69, 62
1, 672984, Note_off_c, 0, 86, 63
1, 672992, Note_on_c, 0, 78, 64
1, 672995, Note_on_c, 0, 74, 54
1, 673013, Note_on_c, 0, 72, 38
1, 673028, Note_off_c, 0, 78, 64
1, 673031, Note_off_c, 0, 74, 65
1, 673043, Control_c, 0, 64, 92
1, 673049, Note_on_c, 0, 79, 70
1, 673052, Note_off_c, 0, 72, 50
1, 673058, Control_c, 0, 64, 93
1, 673073, Control_c, 0, 64, 95
1, 673076, Note_on_c, 0, 70, 65
1, 673088, Control_c, 0, 64, 97
1, 673093, Note_off_c, 0, 79, 59
1, 673103, Control_c, 0, 64, 100
1, 673118, Note_on_c, 0, 87, 69
1, 673118, Control_c, 0, 64, 102
1, 673133, Control_c, 0, 64, 104
1, 673147, Control_c, 0, 64, 105
1, 673162, Control_c, 0, 64, 105
1, 673165, Note_off_c, 0, 70, 59
1, 673165, Note_off_c, 0, 87, 48
1, 673173, Note_on_c, 0, 75, 59
1, 673173, Note_on_c, 0, 79, 62
1, 673177, Control_c, 0, 64, 106
1, 673189, Note_on_c, 0, 73, 35
1, 673192, Control_c, 0, 64, 109
1, 673207, Control_c, 0, 64, 111
1, 673232, Note_off_c, 0, 79, 52
1, 673234, Note_off_c, 0, 73, 49
1, 673238, Note_off_c, 0, 75, 60
1, 673240, Note_on_c, 0, 80, 74
1, 673258, Note_on_c, 0, 71, 61
1, 673281, Control_c, 0, 64, 115
1, 673291, Note_off_c, 0, 80, 63
1, 673295, Note_on_c, 0, 88, 64
1, 673296, Control_c, 0, 64, 127
1, 673349, Note_off_c, 0, 71, 58
1, 673350, Note_on_c, 0, 74, 46
1, 673371, Note_on_c, 0, 80, 61
1, 673374, Note_on_c, 0, 76, 51
1, 673385, Note_off_c, 0, 88, 64
1, 673395, Note_off_c, 0, 74, 63
1, 673401, Control_c, 0, 64, 98
1, 673411, Note_off_c, 0, 80, 63
1, 673416, Control_c, 0, 64, 82
1, 673420, Note_off_c, 0, 76, 63
1, 673430, Control_c, 0, 64, 78
1, 673433, Note_on_c, 0, 79, 74
1, 673456, Note_on_c, 0, 70, 66
1, 673467, Control_c, 0, 64, 79
1, 673481, Control_c, 0, 64, 82
1, 673488, Note_off_c, 0, 79, 54
1, 673496, Control_c, 0, 64, 85
1, 673511, Control_c, 0, 64, 90
1, 673516, Note_on_c, 0, 87, 67
1, 673526, Control_c, 0, 64, 94
1, 673541, Control_c, 0, 64, 97
1, 673544, Note_on_c, 0, 73, 52
1, 673556, Control_c, 0, 64, 98
1, 673560, Note_on_c, 0, 79, 51
1, 673562, Note_off_c, 0, 87, 58
1, 673565, Note_off_c, 0, 70, 56
1, 673571, Control_c, 0, 64, 99
1, 673586, Note_on_c, 0, 75, 63
1, 673586, Control_c, 0, 64, 100
1, 673601, Control_c, 0, 64, 106
1, 673615, Control_c, 0, 64, 115
1, 673617, Note_off_c, 0, 79, 63
1, 673620, Note_on_c, 0, 80, 79
1, 673627, Note_off_c, 0, 73, 33
1, 673630, Control_c, 0, 64, 127
1, 673654, Note_off_c, 0, 75, 58
1, 673668, Note_on_c, 0, 71, 60
1, 673673, Note_off_c, 0, 80, 63
1, 673690, Note_on_c, 0, 88, 72
1, 673745, Note_on_c, 0, 74, 54
1, 673751, Note_on_c, 0, 80, 71
1, 673756, Note_off_c, 0, 71, 62
1, 673760, Note_off_c, 0, 88, 64
1, 673763, Control_c, 0, 64, 109
1, 673778, Control_c, 0, 64, 96
1, 673787, Note_off_c, 0, 80, 63
1, 673789, Note_off_c, 0, 74, 62
1, 673793, Control_c, 0, 64, 107
1, 673803, Note_on_c, 0, 76, 53
1, 673807, Control_c, 0, 64, 127
1, 673824, Note_on_c, 0, 81, 74
1, 673845, Note_off_c, 0, 76, 64
1, 673863, Note_on_c, 0, 72, 61
1, 673867, Control_c, 0, 64, 93
1, 673872, Note_off_c, 0, 81, 64
1, 673881, Control_c, 0, 64, 80
1, 673896, Control_c, 0, 64, 78
1, 673905, Note_on_c, 0, 89, 58
1, 673911, Control_c, 0, 64, 80
1, 673912, Note_on_c, 0, 91, 57
1, 673926, Control_c, 0, 64, 87
1, 673940, Note_off_c, 0, 72, 59
1, 673941, Control_c, 0, 64, 102
1, 673949, Note_off_c, 0, 91, 46
1, 673955, Control_c, 0, 64, 127
1, 673959, Note_on_c, 0, 75, 58
1, 673967, Note_on_c, 0, 77, 46
1, 673991, Note_on_c, 0, 81, 72
1, 674018, Note_off_c, 0, 77, 57
1, 674030, Control_c, 0, 67, 124
1, 674045, Control_c, 0, 67, 107
1, 674045, Note_off_c, 0, 75, 60
1, 674045, Note_off_c, 0, 81, 63
1, 674055, Note_off_c, 0, 89, 30
1, 674060, Control_c, 0, 64, 87
1, 674060, Control_c, 0, 67, 86
1, 674061, Note_on_c, 0, 71, 57
1, 674062, Note_on_c, 0, 90, 70
1, 674074, Control_c, 0, 64, 74
1, 674074, Control_c, 0, 67, 65
1, 674089, Control_c, 0, 64, 70
1, 674089, Control_c, 0, 67, 46
1, 674104, Control_c, 0, 64, 70
1, 674104, Control_c, 0, 67, 27
1, 674119, Control_c, 0, 64, 73
1, 674119, Control_c, 0, 67, 12
1, 674134, Control_c, 0, 64, 81
1, 674134, Control_c, 0, 67, 0
1, 674140, Note_off_c, 0, 90, 58
1, 674148, Control_c, 0, 64, 98
1, 674163, Note_on_c, 0, 81, 62
1, 674163, Control_c, 0, 64, 127
1, 674164, Note_off_c, 0, 71, 58
1, 674185, Note_on_c, 0, 75, 51
1, 674276, Note_on_c, 0, 90, 57
1, 674283, Note_off_c, 0, 81, 57
1, 674287, Note_on_c, 0, 78, 49
1, 674355, Note_off_c, 0, 78, 63
1, 674360, Note_off_c, 0, 75, 35
1, 674370, Note_off_c, 0, 90, 62
1, 674453, Control_c, 0, 64, 85
1, 674468, Control_c, 0, 64, 64
1, 674483, Control_c, 0, 64, 50
1, 674483, Note_on_c, 0, 79, 74
1, 674497, Control_c, 0, 64, 40
1, 674512, Control_c, 0, 64, 30
1, 674527, Control_c, 0, 64, 34
1, 674542, Control_c, 0, 64, 52
1, 674557, Control_c, 0, 64, 60
1, 674571, Control_c, 0, 64, 61
1, 674586, Control_c, 0, 64, 62
1, 674601, Control_c, 0, 64, 63
1, 674616, Control_c, 0, 64, 66
1, 674618, Note_on_c, 0, 73, 44
1, 674630, Control_c, 0, 64, 71
1, 674645, Control_c, 0, 64, 77
1, 674647, Note_off_c, 0, 79, 60
1, 674660, Control_c, 0, 64, 80
1, 674675, Control_c, 0, 64, 84
1, 674683, Note_off_c, 0, 73, 62
1, 674690, Control_c, 0, 64, 91
1, 674704, Note_on_c, 0, 70, 46
1, 674704, Control_c, 0, 64, 122
1, 674719, Control_c, 0, 64, 127
1, 674798, Note_on_c, 0, 63, 53
1, 674812, Note_off_c, 0, 70, 58
1, 674828, Note_off_c, 0, 63, 62
1, 674913, Note_on_c, 0, 80, 64
1, 674976, Note_on_c, 0, 85, 70
1, 674998, Note_off_c, 0, 80, 64
1, 675021, Note_on_c, 0, 92, 69
1, 675080, Note_on_c, 0, 82, 83
1, 675103, Note_off_c, 0, 85, 64
1, 675131, Note_off_c, 0, 92, 64
1, 675175, Note_on_c, 0, 79, 64
1, 675270, Note_off_c, 0, 79, 65
1, 675271, Note_on_c, 0, 73, 61
1, 675362, Note_on_c, 0, 70, 63
1, 675396, Note_off_c, 0, 73, 61
1, 675419, Note_off_c, 0, 70, 60
1, 675481, Note_off_c, 0, 82, 63
1, 675504, Note_on_c, 0, 84, 82
1, 675519, Note_on_c, 0, 87, 71
1, 675583, Note_on_c, 0, 91, 53
1, 675640, Note_on_c, 0, 96, 54
1, 675688, Note_on_c, 0, 85, 86
1, 675698, Control_c, 0, 64, 86
1, 675713, Control_c, 0, 64, 65
1, 675717, Note_off_c, 0, 96, 63
1, 675727, Control_c, 0, 64, 47
1, 675742, Control_c, 0, 64, 16
1, 675749, Note_off_c, 0, 84, 62
1, 675750, Note_off_c, 0, 91, 64
1, 675757, Control_c, 0, 64, 0
1, 675780, Note_off_c, 0, 87, 61
1, 675783, Note_on_c, 0, 82, 57
1, 675803, Control_c, 0, 64, 38
1, 675817, Control_c, 0, 64, 53
1, 675832, Control_c, 0, 64, 55
1, 675847, Control_c, 0, 64, 56
1, 675861, Note_on_c, 0, 79, 62
1, 675862, Control_c, 0, 64, 58
1, 675876, Control_c, 0, 64, 62
1, 675891, Control_c, 0, 64, 66
1, 675906, Control_c, 0, 64, 70
1, 675909, Note_off_c, 0, 82, 54
1, 675921, Control_c, 0, 64, 76
1, 675934, Note_off_c, 0, 85, 64
1, 675936, Control_c, 0, 64, 84
1, 675950, Control_c, 0, 64, 92
1, 675965, Control_c, 0, 64, 101
1, 675980, Note_off_c, 0, 79, 62
1, 675980, Control_c, 0, 64, 108
1, 675981, Note_on_c, 0, 75, 63
1, 675995, Control_c, 0, 64, 113
1, 676010, Control_c, 0, 64, 120
1, 676024, Control_c, 0, 64, 127
1, 676031, Note_off_c, 0, 75, 54
1, 676142, Note_on_c, 0, 82, 78
1, 676197, Note_on_c, 0, 85, 51
1, 676227, Note_on_c, 0, 87, 59
1, 676262, Note_on_c, 0, 94, 58
1, 676292, Note_on_c, 0, 79, 56
1, 676338, Note_off_c, 0, 94, 61
1, 676404, Note_off_c, 0, 79, 58
1, 676406, Note_off_c, 0, 85, 64
1, 676414, Note_off_c, 0, 87, 63
1, 676416, Note_on_c, 0, 73, 44
1, 676416, Note_off_c, 0, 82, 64
1, 676466, Note_off_c, 0, 73, 63
1, 676488, Note_on_c, 0, 70, 46
1, 676583, Note_on_c, 0, 63, 46
1, 676649, Note_off_c, 0, 70, 35
1, 676662, Note_off_c, 0, 63, 56
1, 676739, Note_on_c, 0, 75, 52
1, 676790, Note_on_c, 0, 79, 47
1, 676811, Note_off_c, 0, 75, 59
1, 676814, Note_on_c, 0, 82, 57
1, 676866, Note_on_c, 0, 87, 58
1, 676875, Note_off_c, 0, 79, 59
1, 676947, Note_on_c, 0, 77, 52
1, 676954, Note_off_c, 0, 87, 58
1, 676966, Control_c, 0, 64, 107
1, 676975, Note_off_c, 0, 82, 60
1, 676981, Control_c, 0, 64, 78
1, 676996, Control_c, 0, 64, 65
1, 677011, Control_c, 0, 64, 56
1, 677025, Control_c, 0, 64, 53
1, 677040, Control_c, 0, 64, 53
1, 677055, Control_c, 0, 64, 56
1, 677070, Control_c, 0, 64, 59
1, 677075, Note_on_c, 0, 72, 34
1, 677085, Control_c, 0, 64, 61
1, 677099, Control_c, 0, 64, 64
1, 677114, Control_c, 0, 64, 67
1, 677129, Control_c, 0, 64, 71
1, 677144, Control_c, 0, 64, 75
1, 677159, Control_c, 0, 64, 78
1, 677173, Control_c, 0, 64, 83
1, 677196, Control_c, 0, 64, 91
1, 677210, Control_c, 0, 64, 104
1, 677215, Note_on_c, 0, 68, 33
1, 677225, Control_c, 0, 64, 120
1, 677240, Control_c, 0, 64, 127
1, 677315, Note_off_c, 0, 77, 63
1, 677374, Note_off_c, 0, 72, 37
1, 677377, Note_on_c, 0, 75, 48
1, 677389, Note_off_c, 0, 68, 32
1, 677446, Note_on_c, 0, 80, 52
1, 677491, Note_off_c, 0, 75, 60
1, 677492, Note_on_c, 0, 84, 44
1, 677520, Note_on_c, 0, 87, 51
1, 677552, Control_c, 0, 64, 90
1, 677553, Note_on_c, 0, 74, 50
1, 677567, Control_c, 0, 64, 71
1, 677580, Note_off_c, 0, 80, 50
1, 677582, Control_c, 0, 64, 63
1, 677596, Control_c, 0, 64, 61
1, 677598, Note_off_c, 0, 87, 55
1, 677611, Control_c, 0, 64, 62
1, 677626, Control_c, 0, 64, 63
1, 677640, Control_c, 0, 64, 66
1, 677651, Note_off_c, 0, 84, 59
1, 677655, Control_c, 0, 64, 73
1, 677669, Note_on_c, 0, 72, 36
1, 677670, Control_c, 0, 64, 86
1, 677685, Control_c, 0, 64, 110
1, 677700, Control_c, 0, 64, 127
1, 677774, Note_on_c, 0, 68, 46
1, 677807, Note_off_c, 0, 72, 50
1, 677887, Note_off_c, 0, 74, 63
1, 677955, Note_off_c, 0, 68, 34
1, 677957, Note_on_c, 0, 75, 51
1, 678015, Note_on_c, 0, 80, 52
1, 678033, Note_off_c, 0, 75, 59
1, 678060, Note_on_c, 0, 84, 49
1, 678099, Note_on_c, 0, 87, 55
1, 678155, Note_off_c, 0, 80, 62
1, 678165, Note_on_c, 0, 71, 51
1, 678167, Control_c, 0, 64, 80
1, 678176, Note_off_c, 0, 87, 62
1, 678182, Note_off_c, 0, 84, 64
1, 678182, Control_c, 0, 64, 61
1, 678197, Control_c, 0, 64, 38
1, 678212, Control_c, 0, 64, 31
1, 678227, Control_c, 0, 64, 35
1, 678242, Control_c, 0, 64, 54
1, 678251, Note_on_c, 0, 68, 47
1, 678257, Control_c, 0, 64, 63
1, 678271, Control_c, 0, 64, 67
1, 678286, Control_c, 0, 64, 70
1, 678294, Note_off_c, 0, 68, 63
1, 678301, Control_c, 0, 64, 74
1, 678316, Control_c, 0, 64, 76
1, 678321, Note_off_c, 0, 71, 63
1, 678331, Control_c, 0, 64, 77
1, 678340, Note_on_c, 0, 63, 47
1, 678345, Control_c, 0, 64, 79
1, 678360, Control_c, 0, 64, 82
1, 678375, Control_c, 0, 64, 87
1, 678390, Control_c, 0, 64, 94
1, 678402, Note_off_c, 0, 63, 45
1, 678405, Control_c, 0, 64, 102
1, 678419, Note_on_c, 0, 56, 41
1, 678419, Control_c, 0, 64, 107
1, 678434, Control_c, 0, 64, 110
1, 678449, Control_c, 0, 64, 125
1, 678463, Control_c, 0, 64, 127
1, 678483, Note_on_c, 0, 72, 59
1, 678549, Note_on_c, 0, 75, 69
1, 678564, Note_off_c, 0, 72, 61
1, 678620, Note_off_c, 0, 75, 62
1, 678624, Note_on_c, 0, 80, 63
1, 678644, Note_off_c, 0, 56, 43
1, 678657, Note_on_c, 0, 84, 56
1, 678672, Note_off_c, 0, 80, 65
1, 678695, Note_off_c, 0, 84, 66
1, 678764, Note_on_c, 0, 84, 64
1, 678797, Note_off_c, 0, 84, 62
1, 678819, Note_on_c, 0, 87, 67
1, 678888, Note_on_c, 0, 92, 67
1, 678900, Note_off_c, 0, 87, 63
1, 678979, Note_off_c, 0, 92, 64
1, 678986, Note_on_c, 0, 96, 53
1, 679031, Note_off_c, 0, 96, 66
1, 679203, Note_on_c, 0, 75, 56
1, 679375, Note_off_c, 0, 75, 62
1, 679379, Note_on_c, 0, 79, 69
1, 679404, Control_c, 0, 64, 92
1, 679419, Control_c, 0, 64, 65
1, 679441, Control_c, 0, 64, 43
1, 679456, Control_c, 0, 64, 36
1, 679471, Control_c, 0, 64, 40
1, 679486, Control_c, 0, 64, 56
1, 679500, Control_c, 0, 64, 63
1, 679515, Control_c, 0, 64, 68
1, 679521, Note_on_c, 0, 73, 48
1, 679530, Control_c, 0, 64, 72
1, 679535, Note_off_c, 0, 79, 61
1, 679545, Control_c, 0, 64, 76
1, 679560, Control_c, 0, 64, 80
1, 679568, Note_off_c, 0, 73, 63
1, 679574, Control_c, 0, 64, 88
1, 679585, Note_on_c, 0, 70, 50
1, 679589, Control_c, 0, 64, 109
1, 679604, Control_c, 0, 64, 127
1, 679661, Note_on_c, 0, 63, 48
1, 679704, Note_off_c, 0, 63, 62
1, 679705, Note_off_c, 0, 70, 55
1, 679810, Note_on_c, 0, 80, 67
1, 679866, Note_on_c, 0, 85, 72
1, 679869, Note_off_c, 0, 80, 65
1, 679914, Note_on_c, 0, 92, 82
1, 679959, Note_on_c, 0, 90, 16
1, 679964, Note_on_c, 0, 82, 75
1, 679965, Note_off_c, 0, 85, 64
1, 680001, Note_off_c, 0, 90, 40
1, 680002, Note_off_c, 0, 92, 65
1, 680070, Note_on_c, 0, 79, 66
1, 680156, Note_on_c, 0, 73, 48
1, 680173, Note_off_c, 0, 79, 58
1, 680245, Note_on_c, 0, 70, 54
1, 680279, Note_off_c, 0, 70, 64
1, 680281, Note_off_c, 0, 73, 62
1, 680323, Note_off_c, 0, 82, 62
1, 680385, Note_on_c, 0, 84, 86
1, 680428, Note_on_c, 0, 87, 59
1, 680488, Note_on_c, 0, 91, 46
1, 680518, Note_on_c, 0, 96, 56
1, 680555, Note_on_c, 0, 85, 83
1, 680559, Note_off_c, 0, 96, 48
1, 680587, Note_off_c, 0, 91, 64
1, 680591, Control_c, 0, 64, 87
1, 680606, Control_c, 0, 64, 64
1, 680609, Note_off_c, 0, 84, 64
1, 680611, Note_off_c, 0, 87, 63
1, 680620, Control_c, 0, 64, 44
1, 680635, Control_c, 0, 64, 24
1, 680648, Note_on_c, 0, 82, 63
1, 680650, Control_c, 0, 64, 0
1, 680679, Control_c, 0, 64, 36
1, 680694, Control_c, 0, 64, 58
1, 680709, Control_c, 0, 64, 65
1, 680713, Note_on_c, 0, 79, 63
1, 680724, Control_c, 0, 64, 70
1, 680738, Control_c, 0, 64, 78
1, 680753, Control_c, 0, 64, 90
1, 680768, Control_c, 0, 64, 127
1, 680802, Note_off_c, 0, 85, 65
1, 680806, Note_off_c, 0, 82, 60
1, 680833, Note_on_c, 0, 75, 64
1, 680841, Note_off_c, 0, 79, 63
1, 680889, Note_off_c, 0, 75, 60
1, 680994, Note_on_c, 0, 82, 83
1, 681072, Note_on_c, 0, 85, 41
1, 681084, Note_on_c, 0, 87, 68
1, 681163, Note_on_c, 0, 79, 56
1, 681269, Note_on_c, 0, 73, 53
1, 681269, Note_off_c, 0, 82, 64
1, 681270, Note_off_c, 0, 87, 64
1, 681270, Note_off_c, 0, 85, 65
1, 681290, Note_off_c, 0, 79, 63
1, 681337, Note_on_c, 0, 70, 51
1, 681389, Note_off_c, 0, 73, 39
1, 681424, Note_on_c, 0, 63, 64
1, 681473, Note_off_c, 0, 70, 57
1, 681495, Note_off_c, 0, 63, 61
1, 681579, Note_on_c, 0, 75, 70
1, 681629, Note_on_c, 0, 79, 63
1, 681649, Note_on_c, 0, 82, 63
1, 681717, Note_on_c, 0, 87, 60
1, 681746, Note_off_c, 0, 75, 58
1, 681770, Note_on_c, 0, 77, 79
1, 681797, Note_off_c, 0, 87, 61
1, 681801, Note_off_c, 0, 79, 63
1, 681850, Control_c, 0, 64, 74
1, 681855, Note_off_c, 0, 82, 61
1, 681865, Control_c, 0, 64, 56
1, 681880, Control_c, 0, 64, 0
1, 681902, Note_on_c, 0, 72, 58
1, 681924, Control_c, 0, 64, 35
1, 681939, Control_c, 0, 64, 53
1, 681954, Control_c, 0, 64, 59
1, 681968, Control_c, 0, 64, 61
1, 681983, Control_c, 0, 64, 62
1, 681999, Control_c, 0, 64, 64
1, 682014, Control_c, 0, 64, 67
1, 682029, Control_c, 0, 64, 71
1, 682032, Note_on_c, 0, 68, 51
1, 682043, Control_c, 0, 64, 76
1, 682058, Control_c, 0, 64, 83
1, 682073, Control_c, 0, 64, 102
1, 682087, Control_c, 0, 64, 127
1, 682150, Note_off_c, 0, 77, 61
1, 682153, Note_off_c, 0, 68, 50
1, 682159, Note_off_c, 0, 72, 53
1, 682221, Note_on_c, 0, 75, 76
1, 682261, Note_on_c, 0, 80, 58
1, 682297, Note_on_c, 0, 84, 61
1, 682352, Note_on_c, 0, 87, 58
1, 682383, Note_on_c, 0, 74, 61
1, 682437, Control_c, 0, 64, 110
1, 682452, Control_c, 0, 64, 70
1, 682463, Note_off_c, 0, 75, 58
1, 682466, Control_c, 0, 64, 56
1, 682478, Note_off_c, 0, 87, 59
1, 682481, Control_c, 0, 64, 43
1, 682496, Control_c, 0, 64, 42
1, 682499, Note_on_c, 0, 72, 60
1, 682511, Control_c, 0, 64, 48
1, 682516, Note_off_c, 0, 80, 64
1, 682525, Control_c, 0, 64, 59
1, 682533, Note_off_c, 0, 84, 61
1, 682540, Control_c, 0, 64, 64
1, 682555, Control_c, 0, 64, 68
1, 682570, Control_c, 0, 64, 73
1, 682585, Control_c, 0, 64, 79
1, 682600, Control_c, 0, 64, 85
1, 682615, Control_c, 0, 64, 95
1, 682624, Note_on_c, 0, 68, 63
1, 682630, Control_c, 0, 64, 127
1, 682659, Note_off_c, 0, 72, 62
1, 682718, Note_off_c, 0, 74, 62
1, 682723, Note_off_c, 0, 68, 61
1, 682806, Note_on_c, 0, 75, 63
1, 682859, Note_on_c, 0, 80, 64
1, 682889, Note_off_c, 0, 75, 59
1, 682897, Note_on_c, 0, 84, 55
1, 682921, Note_on_c, 0, 87, 70
1, 683005, Note_off_c, 0, 87, 62
1, 683005, Note_on_c, 0, 71, 64
1, 683012, Note_off_c, 0, 80, 63
1, 683012, Note_off_c, 0, 84, 64
1, 683030, Control_c, 0, 64, 73
1, 683045, Control_c, 0, 64, 51
1, 683060, Control_c, 0, 64, 0
1, 683084, Note_on_c, 0, 68, 62
1, 683089, Control_c, 0, 64, 23
1, 683104, Control_c, 0, 64, 51
1, 683119, Control_c, 0, 64, 60
1, 683134, Control_c, 0, 64, 64
1, 683148, Control_c, 0, 64, 67
1, 683153, Note_off_c, 0, 68, 63
1, 683163, Control_c, 0, 64, 70
1, 683172, Note_off_c, 0, 71, 63
1, 683186, Control_c, 0, 64, 74
1, 683190, Note_on_c, 0, 63, 51
1, 683201, Control_c, 0, 64, 78
1, 683215, Control_c, 0, 64, 81
1, 683230, Control_c, 0, 64, 85
1, 683245, Control_c, 0, 64, 91
1, 683255, Note_on_c, 0, 56, 55
1, 683259, Control_c, 0, 64, 108
1, 683274, Control_c, 0, 64, 127
1, 683336, Note_off_c, 0, 63, 29
1, 683337, Note_on_c, 0, 72, 66
1, 683406, Note_on_c, 0, 75, 72
1, 683426, Note_off_c, 0, 72, 61
1, 683474, Note_on_c, 0, 80, 70
1, 683479, Note_off_c, 0, 56, 59
1, 683489, Note_off_c, 0, 75, 62
1, 683512, Note_on_c, 0, 84, 65
1, 683526, Note_off_c, 0, 80, 66
1, 683539, Note_off_c, 0, 84, 69
1, 683602, Note_on_c, 0, 84, 73
1, 683667, Note_on_c, 0, 87, 66
1, 683686, Note_off_c, 0, 84, 55
1, 683746, Note_on_c, 0, 92, 60
1, 683800, Note_off_c, 0, 87, 47
1, 683901, Note_on_c, 0, 96, 55
1, 683941, Note_off_c, 0, 92, 64
1, 683979, Note_off_c, 0, 96, 65
1, 684137, Note_on_c, 0, 72, 71
1, 684316, Note_on_c, 0, 76, 77
1, 684320, Control_c, 0, 64, 73
1, 684335, Control_c, 0, 64, 50
1, 684335, Note_off_c, 0, 72, 65
1, 684350, Control_c, 0, 64, 0
1, 684394, Control_c, 0, 64, 20
1, 684409, Control_c, 0, 64, 51
1, 684424, Control_c, 0, 64, 58
1, 684438, Control_c, 0, 64, 60
1, 684453, Control_c, 0, 64, 62
1, 684465, Note_on_c, 0, 70, 53
1, 684468, Control_c, 0, 64, 64
1, 684483, Control_c, 0, 64, 68
1, 684497, Control_c, 0, 64, 75
1, 684511, Note_off_c, 0, 70, 57
1, 684512, Control_c, 0, 64, 86
1, 684527, Note_on_c, 0, 67, 47
1, 684527, Control_c, 0, 64, 105
1, 684542, Control_c, 0, 64, 127
1, 684549, Note_off_c, 0, 76, 61
1, 684634, Note_on_c, 0, 60, 51
1, 684684, Note_off_c, 0, 67, 52
1, 684696, Note_off_c, 0, 60, 62
1, 684768, Note_on_c, 0, 77, 70
1, 684817, Note_on_c, 0, 82, 67
1, 684858, Note_on_c, 0, 89, 71
1, 684869, Note_off_c, 0, 77, 62
1, 684888, Note_off_c, 0, 82, 65
1, 684936, Note_on_c, 0, 79, 81
1, 684951, Note_off_c, 0, 89, 62
1, 685029, Note_on_c, 0, 76, 64
1, 685104, Note_on_c, 0, 70, 52
1, 685122, Note_off_c, 0, 76, 62
1, 685227, Note_on_c, 0, 67, 46
1, 685233, Note_off_c, 0, 70, 61
1, 685253, Note_off_c, 0, 67, 55
1, 685283, Note_off_c, 0, 79, 64
1, 685344, Note_on_c, 0, 80, 87
1, 685397, Note_on_c, 0, 88, 70
1, 685447, Note_on_c, 0, 92, 79
1, 685476, Note_off_c, 0, 80, 63
1, 685531, Note_off_c, 0, 92, 65
1, 685533, Note_on_c, 0, 82, 89
1, 685541, Note_off_c, 0, 88, 59
1, 685580, Control_c, 0, 64, 78
1, 685595, Control_c, 0, 64, 61
1, 685609, Control_c, 0, 64, 44
1, 685624, Control_c, 0, 64, 41
1, 685639, Control_c, 0, 64, 47
1, 685645, Note_on_c, 0, 79, 60
1, 685654, Control_c, 0, 64, 59
1, 685669, Control_c, 0, 64, 64
1, 685683, Control_c, 0, 64, 67
1, 685698, Control_c, 0, 64, 72
1, 685709, Note_on_c, 0, 76, 55
1, 685713, Control_c, 0, 64, 81
1, 685727, Control_c, 0, 64, 94
1, 685743, Control_c, 0, 64, 127
1, 685810, Note_on_c, 0, 72, 69
1, 685844, Note_off_c, 0, 79, 61
1, 685869, Note_off_c, 0, 76, 61
1, 685941, Note_on_c, 0, 83, 94
1, 685982, Note_off_c, 0, 72, 58
1, 686013, Note_on_c, 0, 88, 50
1, 686064, Note_off_c, 0, 82, 62
1, 686070, Note_on_c, 0, 91, 60
1, 686083, Note_on_c, 0, 95, 69
1, 686146, Note_off_c, 0, 91, 62
1, 686148, Note_off_c, 0, 88, 66
1, 686156, Note_on_c, 0, 84, 89
1, 686156, Note_off_c, 0, 95, 61
1, 686182, Note_off_c, 0, 83, 63
1, 686265, Note_on_c, 0, 79, 64
1, 686352, Note_on_c, 0, 76, 68
1, 686408, Note_off_c, 0, 84, 40
1, 686437, Note_off_c, 0, 79, 33
1, 686442, Note_on_c, 0, 72, 57
1, 686517, Note_off_c, 0, 76, 63
1, 686543, Note_off_c, 0, 72, 65
1, 686589, Note_on_c, 0, 79, 83
1, 686651, Note_on_c, 0, 84, 57
1, 686690, Note_on_c, 0, 88, 63
1, 686722, Note_on_c, 0, 91, 63
1, 686803, Control_c, 0, 64, 110
1, 686814, Note_on_c, 0, 82, 75
1, 686818, Control_c, 0, 64, 68
1, 686828, Note_off_c, 0, 79, 61
1, 686833, Control_c, 0, 64, 49
1, 686848, Control_c, 0, 64, 41
1, 686857, Note_off_c, 0, 84, 64
1, 686862, Note_off_c, 0, 91, 60
1, 686863, Control_c, 0, 64, 45
1, 686870, Note_off_c, 0, 88, 64
1, 686877, Control_c, 0, 64, 57
1, 686892, Control_c, 0, 64, 63
1, 686907, Control_c, 0, 64, 67
1, 686928, Note_on_c, 0, 77, 62
1, 686929, Control_c, 0, 64, 68
1, 686939, Note_off_c, 0, 82, 65
1, 686944, Control_c, 0, 64, 69
1, 686973, Control_c, 0, 64, 70
1, 686989, Control_c, 0, 64, 73
1, 686994, Note_off_c, 0, 77, 63
1, 687004, Control_c, 0, 64, 82
1, 687019, Control_c, 0, 64, 95
1, 687025, Note_on_c, 0, 73, 56
1, 687034, Control_c, 0, 64, 127
1, 687065, Note_off_c, 0, 73, 64
1, 687124, Note_on_c, 0, 65, 54
1, 687157, Note_off_c, 0, 65, 55
1, 687256, Note_on_c, 0, 82, 58
1, 687292, Note_on_c, 0, 85, 59
1, 687348, Note_on_c, 0, 89, 57
1, 687369, Note_off_c, 0, 82, 62
1, 687403, Note_on_c, 0, 94, 60
1, 687448, Control_c, 0, 64, 92
1, 687458, Note_on_c, 0, 81, 67
1, 687462, Note_off_c, 0, 94, 60
1, 687463, Control_c, 0, 64, 67
1, 687478, Control_c, 0, 64, 54
1, 687493, Control_c, 0, 64, 53
1, 687495, Note_off_c, 0, 85, 64
1, 687498, Note_off_c, 0, 89, 63
1, 687508, Control_c, 0, 64, 56
1, 687523, Control_c, 0, 64, 62
1, 687538, Control_c, 0, 64, 66
1, 687553, Control_c, 0, 64, 70
1, 687565, Note_on_c, 0, 77, 60
1, 687568, Control_c, 0, 64, 76
1, 687582, Control_c, 0, 64, 80
1, 687594, Note_off_c, 0, 81, 62
1, 687597, Control_c, 0, 64, 84
1, 687602, Note_off_c, 0, 77, 64
1, 687612, Control_c, 0, 64, 89
1, 687627, Control_c, 0, 64, 94
1, 687642, Control_c, 0, 64, 103
1, 687656, Control_c, 0, 64, 127
1, 687658, Note_on_c, 0, 72, 36
1, 687766, Note_on_c, 0, 65, 55
1, 687814, Note_off_c, 0, 65, 59
1, 687837, Note_off_c, 0, 72, 54
1, 687900, Note_on_c, 0, 81, 54
1, 687957, Note_on_c, 0, 84, 47
1, 688018, Note_on_c, 0, 89, 60
1, 688064, Note_on_c, 0, 93, 57
1, 688153, Control_c, 0, 64, 77
1, 688164, Note_on_c, 0, 80, 51
1, 688165, Note_off_c, 0, 93, 64
1, 688165, Note_off_c, 0, 89, 59
1, 688166, Note_off_c, 0, 81, 35
1, 688168, Control_c, 0, 64, 59
1, 688183, Control_c, 0, 64, 42
1, 688198, Control_c, 0, 64, 40
1, 688202, Note_off_c, 0, 84, 65
1, 688213, Control_c, 0, 64, 47
1, 688228, Control_c, 0, 64, 57
1, 688243, Control_c, 0, 64, 62
1, 688243, Note_on_c, 0, 76, 50
1, 688258, Control_c, 0, 64, 65
1, 688272, Control_c, 0, 64, 69
1, 688287, Control_c, 0, 64, 71
1, 688302, Control_c, 0, 64, 72
1, 688317, Control_c, 0, 64, 74
1, 688331, Note_off_c, 0, 80, 36
1, 688331, Control_c, 0, 64, 78
1, 688333, Note_off_c, 0, 76, 59
1, 688346, Control_c, 0, 64, 88
1, 688359, Note_on_c, 0, 71, 38
1, 688361, Control_c, 0, 64, 108
1, 688376, Control_c, 0, 64, 127
1, 688448, Note_on_c, 0, 68, 36
1, 688453, Note_off_c, 0, 71, 50
1, 688486, Note_on_c, 0, 80, 52
1, 688562, Note_off_c, 0, 80, 60
1, 688571, Note_on_c, 0, 83, 55
1, 688630, Note_off_c, 0, 83, 61
1, 688635, Note_on_c, 0, 88, 63
1, 688651, Control_c, 0, 67, 19
1, 688666, Control_c, 0, 67, 28
1, 688681, Control_c, 0, 67, 34
1, 688696, Control_c, 0, 67, 39
1, 688701, Note_off_c, 0, 88, 62
1, 688710, Control_c, 0, 67, 44
1, 688713, Note_on_c, 0, 92, 52
1, 688725, Control_c, 0, 67, 47
1, 688739, Control_c, 0, 67, 49
1, 688753, Control_c, 0, 67, 51
1, 688767, Note_on_c, 0, 88, 54
1, 688767, Note_off_c, 0, 92, 59
1, 688768, Control_c, 0, 67, 52
1, 688783, Control_c, 0, 67, 56
1, 688798, Control_c, 0, 67, 60
1, 688813, Control_c, 0, 67, 64
1, 688827, Control_c, 0, 67, 66
1, 688831, Note_off_c, 0, 88, 64
1, 688842, Control_c, 0, 67, 67
1, 688857, Control_c, 0, 67, 69
1, 688864, Note_on_c, 0, 83, 63
1, 688872, Control_c, 0, 67, 72
1, 688887, Control_c, 0, 67, 79
1, 688902, Control_c, 0, 67, 87
1, 688910, Note_off_c, 0, 83, 53
1, 688916, Control_c, 0, 67, 95
1, 688931, Control_c, 0, 67, 101
1, 688946, Control_c, 0, 67, 107
1, 688952, Note_on_c, 0, 71, 43
1, 688958, Note_on_c, 0, 80, 57
1, 688961, Control_c, 0, 67, 113
1, 688976, Control_c, 0, 67, 119
1, 688991, Control_c, 0, 67, 124
1, 689006, Control_c, 0, 67, 127
1, 689019, Note_off_c, 0, 80, 64
1, 689036, Note_on_c, 0, 88, 65
1, 689057, Note_off_c, 0, 71, 59
1, 689078, Note_on_c, 0, 76, 47
1, 689114, Note_off_c, 0, 88, 58
1, 689134, Note_on_c, 0, 80, 58
1, 689177, Note_off_c, 0, 76, 62
1, 689177, Note_off_c, 0, 80, 65
1, 689217, Note_on_c, 0, 72, 49
1, 689218, Note_on_c, 0, 81, 62
1, 689256, Note_off_c, 0, 81, 63
1, 689284, Note_on_c, 0, 89, 67
1, 689288, Note_off_c, 0, 68, 32
1, 689292, Note_off_c, 0, 72, 63
1, 689324, Note_on_c, 0, 77, 56
1, 689336, Note_off_c, 0, 89, 61
1, 689355, Note_on_c, 0, 81, 58
1, 689388, Note_off_c, 0, 77, 58
1, 689390, Note_off_c, 0, 81, 66
1, 689412, Note_on_c, 0, 82, 69
1, 689415, Note_on_c, 0, 73, 56
1, 689462, Note_off_c, 0, 82, 63
1, 689471, Note_on_c, 0, 90, 70
1, 689495, Note_off_c, 0, 73, 62
1, 689515, Note_on_c, 0, 78, 59
1, 689554, Note_off_c, 0, 90, 49
1, 689556, Note_on_c, 0, 82, 62
1, 689591, Note_off_c, 0, 82, 66
1, 689601, Note_off_c, 0, 78, 61
1, 689609, Note_on_c, 0, 74, 52
1, 689617, Note_on_c, 0, 83, 77
1, 689656, Note_off_c, 0, 83, 61
1, 689661, Note_off_c, 0, 74, 58
1, 689666, Note_on_c, 0, 91, 62
1, 689686, Note_on_c, 0, 79, 57
1, 689719, Note_off_c, 0, 91, 62
1, 689735, Note_on_c, 0, 83, 69
1, 689757, Note_off_c, 0, 79, 64
1, 689763, Note_off_c, 0, 83, 67
1, 689790, Note_on_c, 0, 75, 54
1, 689796, Note_on_c, 0, 84, 75
1, 689855, Note_off_c, 0, 84, 62
1, 689864, Note_on_c, 0, 92, 77
1, 689883, Note_on_c, 0, 80, 55
1, 689885, Note_off_c, 0, 75, 58
1, 689909, Note_on_c, 0, 84, 62
1, 689915, Note_off_c, 0, 92, 61
1, 689960, Note_off_c, 0, 84, 64
1, 689978, Note_on_c, 0, 83, 71
1, 689987, Note_off_c, 0, 80, 54
1, 689988, Note_on_c, 0, 74, 53
1, 690027, Note_off_c, 0, 83, 66
1, 690037, Note_on_c, 0, 91, 71
1, 690063, Note_off_c, 0, 74, 62
1, 690083, Note_on_c, 0, 79, 58
1, 690096, Note_off_c, 0, 91, 64
1, 690105, Note_on_c, 0, 83, 72
1, 690147, Note_off_c, 0, 83, 62
1, 690163, Note_off_c, 0, 79, 57
1, 690180, Note_on_c, 0, 82, 67
1, 690192, Note_on_c, 0, 73, 57
1, 690213, Note_off_c, 0, 82, 64
1, 690219, Note_on_c, 0, 90, 70
1, 690288, Note_off_c, 0, 73, 62
1, 690302, Note_on_c, 0, 82, 61
1, 690304, Note_on_c, 0, 78, 50
1, 690332, Note_off_c, 0, 82, 65
1, 690337, Note_off_c, 0, 90, 57
1, 690352, Note_on_c, 0, 81, 66
1, 690363, Note_off_c, 0, 78, 54
1, 690402, Note_off_c, 0, 81, 63
1, 690419, Note_on_c, 0, 72, 25
1, 690427, Note_on_c, 0, 89, 62
1, 690456, Note_off_c, 0, 72, 52
1, 690484, Note_off_c, 0, 89, 61
1, 690488, Note_on_c, 0, 77, 58
1, 690496, Note_on_c, 0, 81, 62
1, 690560, Note_off_c, 0, 77, 48
1, 690580, Note_off_c, 0, 81, 63
1, 690596, Note_on_c, 0, 80, 55
1, 690622, Control_c, 0, 67, 127
1, 690625, Note_on_c, 0, 71, 41
1, 690636, Control_c, 0, 67, 109
1, 690651, Control_c, 0, 67, 94
1, 690673, Control_c, 0, 67, 80
1, 690688, Control_c, 0, 67, 65
1, 690692, Note_off_c, 0, 80, 64
1, 690693, Note_on_c, 0, 88, 56
1, 690703, Control_c, 0, 67, 50
1, 690718, Control_c, 0, 67, 36
1, 690732, Control_c, 0, 67, 22
1, 690744, Note_on_c, 0, 76, 43
1, 690747, Control_c, 0, 67, 14
1, 690762, Control_c, 0, 67, 9
1, 690774, Note_off_c, 0, 71, 54
1, 690777, Control_c, 0, 67, 0
1, 690808, Note_off_c, 0, 76, 62
1, 690810, Note_off_c, 0, 88, 57
1, 690822, Note_on_c, 0, 80, 53
1, 690904, Note_off_c, 0, 80, 63
1, 691037, Note_on_c, 0, 80, 75
1, 691044, Control_c, 0, 64, 76
1, 691059, Control_c, 0, 64, 61
1, 691074, Control_c, 0, 64, 52
1, 691089, Control_c, 0, 64, 51
1, 691103, Control_c, 0, 64, 52
1, 691118, Control_c, 0, 64, 55
1, 691133, Control_c, 0, 64, 59
1, 691146, Note_on_c, 0, 75, 48
1, 691147, Control_c, 0, 64, 62
1, 691162, Control_c, 0, 64, 64
1, 691177, Control_c, 0, 64, 66
1, 691192, Control_c, 0, 64, 69
1, 691207, Control_c, 0, 64, 74
1, 691212, Note_off_c, 0, 80, 63
1, 691221, Control_c, 0, 64, 84
1, 691236, Control_c, 0, 64, 107
1, 691245, Note_off_c, 0, 75, 62
1, 691250, Note_on_c, 0, 71, 50
1, 691251, Control_c, 0, 64, 127
1, 691379, Note_off_c, 0, 71, 30
1, 691390, Note_on_c, 0, 63, 45
1, 691449, Note_off_c, 0, 63, 61
1, 691531, Note_on_c, 0, 80, 69
1, 691598, Note_on_c, 0, 83, 50
1, 691644, Note_on_c, 0, 87, 45
1, 691716, Note_on_c, 0, 79, 72
1, 691726, Note_off_c, 0, 83, 62
1, 691733, Control_c, 0, 64, 104
1, 691733, Note_off_c, 0, 80, 57
1, 691747, Control_c, 0, 64, 70
1, 691748, Note_off_c, 0, 87, 58
1, 691762, Control_c, 0, 64, 54
1, 691778, Control_c, 0, 64, 51
1, 691793, Control_c, 0, 64, 53
1, 691808, Control_c, 0, 64, 59
1, 691823, Control_c, 0, 64, 64
1, 691836, Note_on_c, 0, 75, 49
1, 691838, Control_c, 0, 64, 69
1, 691852, Control_c, 0, 64, 74
1, 691867, Control_c, 0, 64, 75
1, 691883, Note_off_c, 0, 79, 61
1, 691897, Note_off_c, 0, 75, 63
1, 691912, Control_c, 0, 64, 77
1, 691926, Control_c, 0, 64, 83
1, 691931, Note_on_c, 0, 70, 50
1, 691941, Control_c, 0, 64, 95
1, 691956, Control_c, 0, 64, 104
1, 691970, Control_c, 0, 64, 107
1, 691985, Control_c, 0, 64, 108
1, 692000, Control_c, 0, 64, 115
1, 692015, Control_c, 0, 64, 127
1, 692026, Note_on_c, 0, 63, 52
1, 692069, Note_off_c, 0, 70, 54
1, 692080, Note_off_c, 0, 63, 54
1, 692187, Note_on_c, 0, 79, 60
1, 692230, Note_on_c, 0, 82, 57
1, 692279, Note_on_c, 0, 87, 51
1, 692344, Note_on_c, 0, 91, 44
1, 692392, Note_off_c, 0, 91, 50
1, 692411, Note_on_c, 0, 78, 61
1, 692443, Note_off_c, 0, 79, 64
1, 692443, Note_off_c, 0, 87, 64
1, 692452, Control_c, 0, 64, 74
1, 692455, Note_off_c, 0, 82, 64
1, 692467, Control_c, 0, 64, 48
1, 692482, Control_c, 0, 64, 0
1, 692511, Control_c, 0, 64, 17
1, 692526, Control_c, 0, 64, 47
1, 692533, Note_on_c, 0, 74, 50
1, 692541, Control_c, 0, 64, 58
1, 692556, Control_c, 0, 64, 63
1, 692571, Control_c, 0, 64, 65
1, 692586, Control_c, 0, 64, 67
1, 692601, Control_c, 0, 64, 67
1, 692634, Note_off_c, 0, 74, 61
1, 692644, Note_on_c, 0, 69, 42
1, 692646, Control_c, 0, 64, 70
1, 692660, Control_c, 0, 64, 73
1, 692675, Control_c, 0, 64, 77
1, 692690, Control_c, 0, 64, 77
1, 692692, Note_off_c, 0, 78, 57
1, 692735, Control_c, 0, 64, 78
1, 692738, Note_off_c, 0, 69, 49
1, 692749, Control_c, 0, 64, 80
1, 692753, Note_on_c, 0, 66, 39
1, 692764, Control_c, 0, 64, 82
1, 692779, Control_c, 0, 64, 83
1, 692793, Control_c, 0, 64, 84
1, 692808, Control_c, 0, 64, 85
1, 692838, Control_c, 0, 64, 85
1, 692845, Note_on_c, 0, 78, 52
1, 692853, Control_c, 0, 64, 87
1, 692853, Control_c, 0, 67, 9
1, 692867, Control_c, 0, 64, 90
1, 692867, Control_c, 0, 67, 16
1, 692882, Control_c, 0, 64, 91
1, 692882, Control_c, 0, 67, 22
1, 692897, Control_c, 0, 64, 92
1, 692897, Control_c, 0, 67, 27
1, 692920, Control_c, 0, 64, 92
1, 692920, Control_c, 0, 67, 31
1, 692930, Note_off_c, 0, 78, 57
1, 692935, Control_c, 0, 64, 93
1, 692935, Control_c, 0, 67, 36
1, 692948, Note_on_c, 0, 81, 46
1, 692949, Control_c, 0, 64, 94
1, 692949, Control_c, 0, 67, 42
1, 692964, Control_c, 0, 64, 95
1, 692964, Control_c, 0, 67, 51
1, 692979, Control_c, 0, 64, 96
1, 692979, Control_c, 0, 67, 57
1, 692993, Note_off_c, 0, 81, 63
1, 692993, Control_c, 0, 64, 97
1, 692993, Control_c, 0, 67, 64
1, 692997, Note_on_c, 0, 86, 58
1, 693008, Control_c, 0, 64, 99
1, 693008, Control_c, 0, 67, 69
1, 693023, Control_c, 0, 64, 100
1, 693023, Control_c, 0, 67, 74
1, 693038, Control_c, 0, 64, 100
1, 693038, Control_c, 0, 67, 80
1, 693053, Control_c, 0, 64, 101
1, 693053, Control_c, 0, 67, 87
1, 693067, Control_c, 0, 64, 103
1, 693067, Control_c, 0, 67, 95
1, 693069, Note_off_c, 0, 86, 62
1, 693075, Note_on_c, 0, 90, 62
1, 693082, Control_c, 0, 64, 108
1, 693082, Control_c, 0, 67, 105
1, 693097, Control_c, 0, 64, 125
1, 693097, Control_c, 0, 67, 114
1, 693112, Control_c, 0, 64, 127
1, 693112, Control_c, 0, 67, 124
1, 693126, Control_c, 0, 67, 127
1, 693152, Note_off_c, 0, 90, 57
1, 693155, Note_on_c, 0, 86, 57
1, 693203, Note_off_c, 0, 86, 59
1, 693233, Note_on_c, 0, 81, 61
1, 693277, Note_off_c, 0, 81, 56
1, 693282, Note_on_c, 0, 69, 40
1, 693317, Note_on_c, 0, 78, 60
1, 693378, Note_off_c, 0, 78, 62
1, 693397, Note_on_c, 0, 86, 65
1, 693410, Note_off_c, 0, 69, 57
1, 693412, Note_on_c, 0, 74, 44
1, 693428, Note_off_c, 0, 66, 0
1, 693459, Note_off_c, 0, 86, 62
1, 693465, Poly_aftertouch_c, 0, 66, 127
1, 693479, Note_on_c, 0, 78, 60
1, 693497, Note_off_c, 0, 74, 62
1, 693523, Note_off_c, 0, 78, 62
1, 693543, Note_on_c, 0, 70, 52
1, 693554, Note_on_c, 0, 79, 60
1, 693575, Poly_aftertouch_c, 0, 66, 0
1, 693590, Note_off_c, 0, 79, 64
1, 693610, Note_on_c, 0, 87, 65
1, 693628, Note_off_c, 0, 70, 56
1, 693651, Note_on_c, 0, 75, 56
1, 693701, Note_on_c, 0, 79, 42
1, 693703, Note_off_c, 0, 87, 53
1, 693725, Note_off_c, 0, 79, 58
1, 693738, Note_on_c, 0, 80, 73
1, 693745, Note_off_c, 0, 75, 57
1, 693757, Note_on_c, 0, 71, 47
1, 693793, Note_off_c, 0, 80, 63
1, 693811, Note_off_c, 0, 71, 58
1, 693812, Note_on_c, 0, 88, 68
1, 693838, Note_on_c, 0, 76, 64
1, 693880, Note_off_c, 0, 88, 61
1, 693887, Note_on_c, 0, 80, 49
1, 693897, Note_off_c, 0, 76, 62
1, 693907, Note_off_c, 0, 80, 60
1, 693937, Note_on_c, 0, 81, 74
1, 693951, Note_on_c, 0, 72, 46
1, 693982, Note_off_c, 0, 81, 64
1, 693990, Note_off_c, 0, 72, 62
1, 693992, Note_on_c, 0, 89, 65
1, 693994, Note_on_c, 0, 77, 65
1, 694038, Note_off_c, 0, 89, 63
1, 694050, Note_off_c, 0, 77, 60
1, 694070, Note_on_c, 0, 81, 50
1, 694090, Note_off_c, 0, 81, 63
1, 694104, Note_on_c, 0, 82, 77
1, 694107, Note_on_c, 0, 73, 52
1, 694155, Note_off_c, 0, 82, 64
1, 694169, Note_on_c, 0, 90, 75
1, 694177, Note_off_c, 0, 73, 60
1, 694196, Note_on_c, 0, 78, 51
1, 694236, Note_on_c, 0, 82, 70
1, 694260, Note_off_c, 0, 90, 51
1, 694267, Note_off_c, 0, 78, 57
1, 694280, Note_on_c, 0, 72, 52
1, 694282, Note_off_c, 0, 82, 60
1, 694302, Note_on_c, 0, 81, 75
1, 694333, Note_off_c, 0, 72, 62
1, 694353, Note_off_c, 0, 81, 63
1, 694359, Note_on_c, 0, 77, 59
1, 694369, Note_on_c, 0, 89, 71
1, 694419, Note_off_c, 0, 77, 48
1, 694422, Note_off_c, 0, 89, 61
1, 694430, Note_on_c, 0, 81, 68
1, 694470, Note_on_c, 0, 71, 44
1, 694470, Note_off_c, 0, 81, 63
1, 694496, Note_on_c, 0, 80, 72
1, 694544, Note_off_c, 0, 71, 64
1, 694548, Note_off_c, 0, 80, 64
1, 694549, Note_on_c, 0, 88, 68
1, 694556, Note_on_c, 0, 76, 49
1, 694605, Note_off_c, 0, 88, 62
1, 694610, Note_off_c, 0, 76, 62
1, 694621, Note_on_c, 0, 80, 65
1, 694660, Note_off_c, 0, 80, 61
1, 694667, Note_on_c, 0, 70, 52
1, 694679, Note_on_c, 0, 79, 68
1, 694728, Note_off_c, 0, 79, 62
1, 694739, Note_off_c, 0, 70, 61
1, 694747, Note_on_c, 0, 87, 60
1, 694761, Note_on_c, 0, 75, 48
1, 694822, Note_off_c, 0, 75, 53
1, 694829, Note_off_c, 0, 87, 59
1, 694834, Note_on_c, 0, 79, 57
1, 694876, Note_on_c, 0, 69, 39
1, 694910, Note_off_c, 0, 79, 61
1, 694935, Note_on_c, 0, 78, 53
1, 694963, Note_on_c, 0, 74, 46
1, 695014, Note_off_c, 0, 78, 63
1, 695018, Note_on_c, 0, 86, 56
1, 695024, Note_off_c, 0, 74, 52
1, 695059, Note_off_c, 0, 69, 41
1, 695123, Note_on_c, 0, 78, 59
1, 695176, Note_off_c, 0, 86, 32
1, 695213, Note_off_c, 0, 78, 63
1, 695270, Control_c, 0, 64, 74
1, 695276, Note_on_c, 0, 78, 72
1, 695285, Control_c, 0, 64, 56
1, 695300, Control_c, 0, 64, 43
1, 695315, Control_c, 0, 64, 47
1, 695330, Control_c, 0, 64, 58
1, 695344, Control_c, 0, 64, 64
1, 695359, Control_c, 0, 64, 67
1, 695374, Control_c, 0, 64, 69
1, 695386, Note_on_c, 0, 73, 54
1, 695389, Control_c, 0, 64, 71
1, 695403, Control_c, 0, 64, 73
1, 695418, Control_c, 0, 64, 79
1, 695433, Note_off_c, 0, 78, 64
1, 695433, Control_c, 0, 64, 90
1, 695433, Control_c, 0, 67, 121
1, 695448, Control_c, 0, 64, 113
1, 695448, Control_c, 0, 67, 112
1, 695463, Control_c, 0, 64, 127
1, 695463, Control_c, 0, 67, 109
1, 695465, Note_off_c, 0, 73, 64
1, 695487, Note_on_c, 0, 69, 43
1, 695492, Control_c, 0, 67, 109
1, 695537, Control_c, 0, 67, 110
1, 695551, Control_c, 0, 67, 110
1, 695566, Control_c, 0, 67, 111
1, 695584, Note_off_c, 0, 69, 35
1, 695595, Control_c, 0, 67, 112
1, 695609, Note_on_c, 0, 61, 43
1, 695610, Control_c, 0, 67, 114
1, 695625, Control_c, 0, 67, 115
1, 695640, Control_c, 0, 67, 116
1, 695669, Control_c, 0, 67, 117
1, 695684, Control_c, 0, 67, 117
1, 695698, Note_off_c, 0, 61, 54
1, 695713, Control_c, 0, 67, 118
1, 695728, Control_c, 0, 67, 119
1, 695743, Control_c, 0, 67, 119
1, 695759, Control_c, 0, 67, 120
1, 695762, Note_on_c, 0, 78, 54
1, 695774, Control_c, 0, 67, 120
1, 695804, Control_c, 0, 67, 121
1, 695823, Note_on_c, 0, 81, 51
1, 695848, Control_c, 0, 67, 122
1, 695863, Control_c, 0, 67, 122
1, 695877, Note_on_c, 0, 85, 56
1, 695960, Control_c, 0, 67, 124
1, 695969, Note_on_c, 0, 90, 52
1, 695974, Control_c, 0, 67, 125
1, 695989, Control_c, 0, 67, 127
1, 696004, Control_c, 0, 64, 99
1, 696004, Control_c, 0, 67, 127
1, 696008, Note_on_c, 0, 77, 60
1, 696018, Control_c, 0, 64, 72
1, 696033, Control_c, 0, 64, 60
1, 696034, Note_off_c, 0, 81, 39
1, 696037, Note_off_c, 0, 78, 33
1, 696048, Control_c, 0, 64, 53
1, 696049, Note_off_c, 0, 85, 56
1, 696063, Control_c, 0, 64, 54
1, 696078, Control_c, 0, 64, 59
1, 696091, Note_off_c, 0, 90, 52
1, 696092, Control_c, 0, 64, 64
1, 696107, Control_c, 0, 64, 67
1, 696112, Note_on_c, 0, 73, 48
1, 696122, Control_c, 0, 64, 70
1, 696122, Control_c, 0, 67, 126
1, 696137, Control_c, 0, 64, 74
1, 696152, Control_c, 0, 64, 77
1, 696157, Note_off_c, 0, 77, 51
1, 696166, Control_c, 0, 64, 80
1, 696181, Control_c, 0, 64, 84
1, 696184, Note_off_c, 0, 73, 63
1, 696196, Control_c, 0, 64, 87
1, 696211, Control_c, 0, 64, 92
1, 696226, Control_c, 0, 64, 101
1, 696232, Note_on_c, 0, 68, 47
1, 696241, Control_c, 0, 64, 110
1, 696255, Control_c, 0, 64, 127
1, 696285, Control_c, 0, 67, 127
1, 696326, Note_on_c, 0, 61, 46
1, 696389, Control_c, 0, 67, 127
1, 696428, Note_off_c, 0, 61, 61
1, 696440, Note_off_c, 0, 68, 34
1, 696479, Note_on_c, 0, 77, 45
1, 696538, Note_on_c, 0, 80, 41
1, 696631, Note_on_c, 0, 85, 45
1, 696709, Note_on_c, 0, 89, 41
1, 696770, Note_on_c, 0, 76, 44
1, 696783, Note_off_c, 0, 89, 50
1, 696822, Note_off_c, 0, 77, 35
1, 696827, Control_c, 0, 64, 80
1, 696837, Note_off_c, 0, 85, 63
1, 696841, Control_c, 0, 64, 66
1, 696849, Note_off_c, 0, 80, 61
1, 696856, Control_c, 0, 64, 60
1, 696871, Control_c, 0, 64, 60
1, 696886, Control_c, 0, 64, 62
1, 696890, Note_on_c, 0, 72, 43
1, 696901, Control_c, 0, 64, 66
1, 696915, Control_c, 0, 64, 70
1, 696930, Control_c, 0, 64, 75
1, 696945, Control_c, 0, 64, 81
1, 696954, Note_off_c, 0, 76, 52
1, 696955, Note_off_c, 0, 72, 59
1, 696959, Note_on_c, 0, 67, 48
1, 696959, Control_c, 0, 64, 86
1, 696975, Control_c, 0, 64, 88
1, 697005, Control_c, 0, 64, 89
1, 697020, Control_c, 0, 64, 92
1, 697034, Control_c, 0, 64, 98
1, 697049, Control_c, 0, 64, 105
1, 697064, Control_c, 0, 64, 108
1, 697088, Note_on_c, 0, 64, 32
1, 697089, Note_off_c, 0, 67, 38
1, 697155, Note_on_c, 0, 76, 46
1, 697183, Control_c, 0, 64, 108
1, 697197, Control_c, 0, 64, 111
1, 697212, Control_c, 0, 64, 117
1, 697222, Note_on_c, 0, 79, 57
1, 697222, Note_off_c, 0, 76, 54
1, 697227, Control_c, 0, 64, 127
1, 697275, Note_off_c, 0, 79, 58
1, 697296, Note_on_c, 0, 84, 53
1, 697357, Note_off_c, 0, 84, 63
1, 697362, Note_on_c, 0, 88, 61
1, 697441, Note_off_c, 0, 88, 60
1, 697451, Note_on_c, 0, 84, 65
1, 697490, Note_off_c, 0, 84, 62
1, 697507, Note_on_c, 0, 79, 51
1, 697555, Note_off_c, 0, 79, 61
1, 697593, Note_on_c, 0, 67, 40
1, 697608, Note_on_c, 0, 76, 63
1, 697624, Note_off_c, 0, 64, 35
1, 697668, Note_off_c, 0, 76, 60
1, 697693, Note_on_c, 0, 84, 57
1, 697721, Note_on_c, 0, 72, 46
1, 697725, Note_off_c, 0, 67, 60
1, 697755, Note_off_c, 0, 84, 59
1, 697781, Note_on_c, 0, 76, 63
1, 697804, Note_off_c, 0, 72, 63
1, 697820, Note_off_c, 0, 76, 64
1, 697857, Note_on_c, 0, 77, 60
1, 697864, Note_on_c, 0, 68, 46
1, 697900, Note_off_c, 0, 77, 58
1, 697937, Note_on_c, 0, 85, 61
1, 697963, Note_off_c, 0, 68, 54
1, 697967, Note_on_c, 0, 73, 53
1, 697978, Note_on_c, 0, 77, 47
1, 697979, Note_off_c, 0, 85, 54
1, 698026, Note_off_c, 0, 77, 62
1, 698048, Note_on_c, 0, 78, 64
1, 698056, Note_off_c, 0, 73, 58
1, 698070, Note_on_c, 0, 69, 49
1, 698086, Note_off_c, 0, 78, 64
1, 698110, Note_on_c, 0, 86, 66
1, 698138, Note_off_c, 0, 69, 61
1, 698164, Note_off_c, 0, 86, 62
1, 698166, Note_on_c, 0, 74, 52
1, 698178, Note_on_c, 0, 78, 59
1, 698210, Note_off_c, 0, 74, 62
1, 698216, Note_off_c, 0, 78, 64
1, 698241, Note_on_c, 0, 79, 69
1, 698265, Note_on_c, 0, 70, 56
1, 698277, Note_off_c, 0, 79, 62
1, 698309, Note_on_c, 0, 87, 65
1, 698356, Note_on_c, 0, 75, 54
1, 698358, Note_off_c, 0, 70, 56
1, 698375, Note_on_c, 0, 79, 58
1, 698384, Note_off_c, 0, 87, 50
1, 698408, Note_off_c, 0, 79, 66
1, 698429, Note_on_c, 0, 80, 70
1, 698430, Note_off_c, 0, 75, 54
1, 698442, Note_on_c, 0, 71, 60
1, 698482, Note_off_c, 0, 80, 62
1, 698493, Note_on_c, 0, 88, 65
1, 698511, Note_off_c, 0, 71, 63
1, 698533, Note_on_c, 0, 76, 58
1, 698558, Note_off_c, 0, 88, 60
1, 698569, Note_on_c, 0, 80, 61
1, 698573, Note_off_c, 0, 76, 61
1, 698601, Note_off_c, 0, 80, 67
1, 698613, Note_on_c, 0, 72, 57
1, 698628, Note_on_c, 0, 81, 71
1, 698674, Note_off_c, 0, 81, 61
1, 698688, Note_on_c, 0, 89, 67
1, 698688, Note_off_c, 0, 72, 64
1, 698703, Note_on_c, 0, 77, 61
1, 698736, Note_off_c, 0, 89, 61
1, 698746, Note_on_c, 0, 81, 61
1, 698755, Note_off_c, 0, 77, 61
1, 698780, Note_off_c, 0, 81, 66
1, 698795, Note_on_c, 0, 73, 60
1, 698800, Note_on_c, 0, 82, 73
1, 698851, Note_off_c, 0, 82, 63
1, 698865, Note_on_c, 0, 90, 76
1, 698876, Note_off_c, 0, 73, 62
1, 698886, Note_on_c, 0, 78, 59
1, 698938, Note_on_c, 0, 82, 62
1, 698950, Note_off_c, 0, 90, 57
1, 698968, Note_off_c, 0, 78, 61
1, 698974, Note_on_c, 0, 74, 57
1, 698974, Note_off_c, 0, 82, 65
1, 698999, Note_on_c, 0, 83, 78
1, 699037, Note_off_c, 0, 83, 60
1, 699045, Note_off_c, 0, 74, 62
1, 699060, Note_on_c, 0, 91, 63
1, 699067, Note_on_c, 0, 79, 59
1, 699096, Note_off_c, 0, 91, 66
1, 699111, Note_on_c, 0, 83, 67
1, 699130, Note_off_c, 0, 79, 63
1, 699153, Note_off_c, 0, 83, 63
1, 699159, Note_on_c, 0, 75, 56
1, 699168, Note_on_c, 0, 84, 68
1, 699219, Note_off_c, 0, 84, 65
1, 699233, Note_on_c, 0, 92, 77
1, 699251, Note_off_c, 0, 75, 59
1, 699257, Note_on_c, 0, 80, 63
1, 699281, Note_off_c, 0, 92, 60
1, 699302, Note_on_c, 0, 84, 62
1, 699323, Note_off_c, 0, 84, 58
1, 699332, Note_off_c, 0, 80, 61
1, 699347, Note_on_c, 0, 76, 50
1, 699356, Note_on_c, 0, 85, 76
1, 699403, Note_off_c, 0, 85, 65
1, 699412, Note_on_c, 0, 93, 72
1, 699421, Note_off_c, 0, 76, 60
1, 699431, Note_on_c, 0, 81, 62
1, 699468, Note_off_c, 0, 93, 66
1, 699481, Note_on_c, 0, 85, 69
1, 699506, Note_off_c, 0, 85, 70
1, 699510, Note_off_c, 0, 81, 65
1, 699525, Note_on_c, 0, 77, 65
1, 699531, Note_on_c, 0, 86, 76
1, 699579, Note_off_c, 0, 86, 62
1, 699601, Note_on_c, 0, 94, 74
1, 699602, Note_off_c, 0, 77, 62
1, 699630, Note_on_c, 0, 82, 61
1, 699669, Note_on_c, 0, 86, 66
1, 699685, Note_off_c, 0, 94, 60
1, 699702, Note_off_c, 0, 86, 63
1, 699722, Note_on_c, 0, 78, 61
1, 699723, Note_off_c, 0, 82, 63
1, 699728, Note_on_c, 0, 87, 75
1, 699771, Note_off_c, 0, 87, 62
1, 699791, Note_on_c, 0, 95, 68
1, 699806, Note_on_c, 0, 83, 60
1, 699808, Note_off_c, 0, 78, 60
1, 699848, Note_off_c, 0, 95, 61
1, 699850, Note_on_c, 0, 87, 66
1, 699874, Note_off_c, 0, 83, 61
1, 699881, Note_off_c, 0, 87, 64
1, 699895, Note_on_c, 0, 79, 59
1, 699914, Note_on_c, 0, 88, 75
1, 699960, Note_off_c, 0, 88, 64
1, 699986, Note_on_c, 0, 96, 75
1, 699987, Note_off_c, 0, 79, 59
1, 699999, Note_on_c, 0, 84, 64
1, 700026, Note_off_c, 0, 96, 61
1, 700036, Note_on_c, 0, 88, 69
1, 700069, Note_off_c, 0, 84, 56
1, 700089, Note_off_c, 0, 88, 65
1, 700110, Note_on_c, 0, 87, 74
1, 700111, Note_on_c, 0, 78, 61
1, 700159, Note_off_c, 0, 87, 63
1, 700161, Note_on_c, 0, 95, 72
1, 700197, Note_off_c, 0, 78, 52
1, 700205, Note_on_c, 0, 83, 55
1, 700216, Note_off_c, 0, 95, 64
1, 700223, Note_on_c, 0, 87, 69
1, 700271, Note_off_c, 0, 87, 62
1, 700274, Note_off_c, 0, 83, 63
1, 700278, Note_on_c, 0, 86, 76
1, 700298, Note_on_c, 0, 77, 60
1, 700327, Note_off_c, 0, 86, 62
1, 700345, Note_on_c, 0, 94, 81
1, 700370, Note_off_c, 0, 77, 61
1, 700387, Note_on_c, 0, 82, 62
1, 700394, Note_on_c, 0, 86, 70
1, 700423, Note_off_c, 0, 94, 62
1, 700447, Note_off_c, 0, 86, 62
1, 700476, Note_on_c, 0, 85, 78
1, 700479, Note_off_c, 0, 82, 63
1, 700484, Note_on_c, 0, 76, 61
1, 700519, Note_on_c, 0, 93, 69
1, 700524, Note_off_c, 0, 85, 65
1, 700563, Note_off_c, 0, 76, 64
1, 700575, Note_on_c, 0, 81, 60
1, 700590, Note_on_c, 0, 85, 66
1, 700593, Note_off_c, 0, 93, 64
1, 700627, Note_off_c, 0, 81, 61
1, 700655, Note_off_c, 0, 85, 64
1, 700655, Note_on_c, 0, 84, 79
1, 700673, Note_on_c, 0, 75, 60
1, 700700, Note_off_c, 0, 84, 63
1, 700721, Note_on_c, 0, 92, 78
1, 700755, Note_off_c, 0, 75, 62
1, 700761, Note_on_c, 0, 80, 60
1, 700774, Note_on_c, 0, 84, 78
1, 700780, Note_off_c, 0, 92, 64
1, 700812, Note_off_c, 0, 84, 61
1, 700848, Note_on_c, 0, 74, 61
1, 700848, Note_on_c, 0, 83, 77
1, 700855, Note_off_c, 0, 80, 60
1, 700892, Note_on_c, 0, 91, 70
1, 700892, Note_off_c, 0, 83, 64
1, 700921, Note_off_c, 0, 74, 62
1, 700938, Note_on_c, 0, 79, 62
1, 700943, Note_off_c, 0, 91, 65
1, 700959, Note_on_c, 0, 83, 74
1, 700998, Note_off_c, 0, 79, 63
1, 701001, Note_off_c, 0, 83, 63
1, 701020, Note_on_c, 0, 82, 76
1, 701031, Note_on_c, 0, 73, 60
1, 701072, Note_off_c, 0, 82, 64
1, 701075, Note_on_c, 0, 90, 78
1, 701106, Note_off_c, 0, 73, 63
1, 701121, Note_on_c, 0, 78, 62
1, 701167, Note_on_c, 0, 82, 49
1, 701178, Note_off_c, 0, 90, 62
1, 701192, Note_off_c, 0, 82, 58
1, 701204, Note_on_c, 0, 81, 73
1, 701207, Note_off_c, 0, 78, 54
1, 701219, Note_on_c, 0, 72, 51
1, 701251, Note_off_c, 0, 81, 64
1, 701276, Note_on_c, 0, 89, 70
1, 701281, Note_off_c, 0, 72, 64
1, 701297, Note_on_c, 0, 77, 69
1, 701320, Note_off_c, 0, 89, 60
1, 701322, Note_on_c, 0, 81, 71
1, 701350, Note_off_c, 0, 77, 50
1, 701364, Note_off_c, 0, 81, 62
1, 701387, Note_on_c, 0, 80, 69
1, 701395, Note_on_c, 0, 71, 59
1, 701437, Note_on_c, 0, 88, 68
1, 701439, Note_off_c, 0, 80, 64
1, 701472, Note_off_c, 0, 71, 64
1, 701487, Note_on_c, 0, 76, 47
1, 701501, Note_off_c, 0, 88, 65
1, 701505, Note_on_c, 0, 80, 63
1, 701532, Note_off_c, 0, 76, 64
1, 701575, Note_on_c, 0, 79, 67
1, 701578, Note_on_c, 0, 70, 57
1, 701592, Note_off_c, 0, 80, 57
1, 701622, Note_off_c, 0, 79, 59
1, 701637, Note_on_c, 0, 87, 70
1, 701647, Note_off_c, 0, 70, 63
1, 701678, Note_on_c, 0, 75, 50
1, 701694, Note_on_c, 0, 79, 59
1, 701696, Note_off_c, 0, 87, 64
1, 701725, Note_off_c, 0, 75, 59
1, 701733, Note_off_c, 0, 79, 60
1, 701744, Note_on_c, 0, 69, 57
1, 701751, Note_on_c, 0, 78, 68
1, 701795, Note_on_c, 0, 86, 72
1, 701796, Note_off_c, 0, 78, 62
1, 701823, Note_off_c, 0, 69, 63
1, 701833, Note_on_c, 0, 74, 55
1, 701860, Note_on_c, 0, 78, 64
1, 701866, Note_off_c, 0, 86, 63
1, 701896, Note_off_c, 0, 74, 60
1, 701933, Note_on_c, 0, 68, 62
1, 701959, Note_on_c, 0, 77, 66
1, 701993, Note_off_c, 0, 78, 62
1, 701997, Note_off_c, 0, 68, 62
1, 701999, Note_off_c, 0, 77, 59
1, 702014, Note_on_c, 0, 85, 60
1, 702025, Note_on_c, 0, 73, 58
1, 702067, Note_off_c, 0, 85, 61
1, 702106, Note_on_c, 0, 67, 56
1, 702113, Note_on_c, 0, 76, 71
1, 702120, Note_off_c, 0, 73, 53
1, 702172, Note_off_c, 0, 76, 63
1, 702183, Note_on_c, 0, 84, 67
1, 702190, Note_on_c, 0, 72, 57
1, 702195, Note_off_c, 0, 67, 61
1, 702232, Note_off_c, 0, 84, 61
1, 702255, Note_on_c, 0, 76, 71
1, 702271, Note_off_c, 0, 72, 63
1, 702288, Note_off_c, 0, 76, 61
1, 702298, Note_on_c, 0, 66, 54
1, 702321, Note_on_c, 0, 75, 68
1, 702350, Control_c, 0, 64, 82
1, 702360, Note_off_c, 0, 75, 61
1, 702365, Control_c, 0, 64, 67
1, 702377, Note_on_c, 0, 83, 59
1, 702380, Control_c, 0, 64, 64
1, 702395, Control_c, 0, 64, 65
1, 702401, Note_on_c, 0, 71, 49
1, 702409, Control_c, 0, 64, 69
1, 702424, Control_c, 0, 64, 74
1, 702429, Note_off_c, 0, 83, 58
1, 702439, Control_c, 0, 64, 81
1, 702447, Note_on_c, 0, 75, 66
1, 702453, Control_c, 0, 64, 83
1, 702454, Note_off_c, 0, 71, 54
1, 702468, Note_off_c, 0, 66, 53
1, 702483, Note_off_c, 0, 75, 63
1, 702483, Control_c, 0, 64, 84
1, 702484, Note_on_c, 0, 67, 50
1, 702513, Control_c, 0, 64, 82
1, 702515, Note_on_c, 0, 76, 67
1, 702527, Control_c, 0, 64, 81
1, 702551, Note_off_c, 0, 76, 62
1, 702557, Control_c, 0, 64, 82
1, 702572, Control_c, 0, 64, 83
1, 702581, Note_on_c, 0, 84, 69
1, 702598, Note_on_c, 0, 70, 47
1, 702599, Note_off_c, 0, 67, 51
1, 702617, Control_c, 0, 64, 84
1, 702622, Note_off_c, 0, 84, 60
1, 702632, Control_c, 0, 64, 84
1, 702653, Control_c, 0, 64, 82
1, 702654, Note_on_c, 0, 76, 66
1, 702668, Control_c, 0, 64, 81
1, 702685, Note_off_c, 0, 70, 60
1, 702697, Note_off_c, 0, 76, 54
1, 702698, Control_c, 0, 64, 81
1, 702712, Note_on_c, 0, 66, 45
1, 702733, Note_on_c, 0, 75, 65
1, 702777, Note_off_c, 0, 75, 61
1, 702792, Note_on_c, 0, 83, 59
1, 702802, Control_c, 0, 64, 81
1, 702831, Control_c, 0, 64, 81
1, 702835, Note_on_c, 0, 69, 51
1, 702857, Note_off_c, 0, 83, 55
1, 702875, Note_on_c, 0, 75, 57
1, 702906, Control_c, 0, 64, 82
1, 702914, Note_off_c, 0, 75, 60
1, 702918, Note_off_c, 0, 69, 60
1, 702934, Note_on_c, 0, 67, 45
1, 702941, Note_on_c, 0, 76, 61
1, 702987, Note_off_c, 0, 76, 57
1, 703026, Note_on_c, 0, 84, 57
1, 703039, Note_off_c, 0, 66, 18
1, 703053, Note_on_c, 0, 70, 48
1, 703069, Note_off_c, 0, 84, 62
1, 703089, Note_on_c, 0, 76, 55
1, 703101, Note_off_c, 0, 67, 33
1, 703114, Control_c, 0, 64, 81
1, 703156, Note_off_c, 0, 76, 62
1, 703157, Note_on_c, 0, 66, 36
1, 703173, Control_c, 0, 64, 81
1, 703174, Note_on_c, 0, 75, 57
1, 703201, Note_off_c, 0, 70, 34
1, 703225, Note_off_c, 0, 75, 61
1, 703234, Note_on_c, 0, 83, 58
1, 703295, Note_off_c, 0, 83, 52
1, 703299, Note_on_c, 0, 69, 52
1, 703306, Control_c, 0, 64, 80
1, 703321, Note_on_c, 0, 75, 52
1, 703336, Control_c, 0, 64, 80
1, 703369, Note_off_c, 0, 75, 61
1, 703392, Note_off_c, 0, 69, 59
1, 703410, Note_on_c, 0, 76, 56
1, 703413, Note_on_c, 0, 67, 42
1, 703432, Control_c, 0, 64, 79
1, 703460, Note_off_c, 0, 76, 57
1, 703476, Control_c, 0, 64, 79
1, 703482, Note_on_c, 0, 84, 59
1, 703536, Control_c, 0, 64, 78
1, 703537, Note_off_c, 0, 84, 59
1, 703542, Note_off_c, 0, 66, 16
1, 703543, Note_on_c, 0, 70, 43
1, 703564, Note_on_c, 0, 76, 55
1, 703595, Control_c, 0, 64, 78
1, 703624, Note_off_c, 0, 67, 36
1, 703639, Note_off_c, 0, 76, 64
1, 703639, Control_c, 0, 64, 77
1, 703649, Note_on_c, 0, 66, 33
1, 703654, Control_c, 0, 64, 76
1, 703656, Note_on_c, 0, 75, 58
1, 703699, Control_c, 0, 64, 76
1, 703722, Note_off_c, 0, 75, 62
1, 703727, Note_on_c, 0, 83, 53
1, 703750, Note_off_c, 0, 70, 38
1, 703820, Note_on_c, 0, 75, 50
1, 703822, Note_on_c, 0, 69, 48
1, 703830, Note_off_c, 0, 83, 56
1, 703893, Note_off_c, 0, 75, 53
1, 703893, Control_c, 0, 64, 75
1, 703932, Note_on_c, 0, 76, 53
1, 703937, Control_c, 0, 64, 75
1, 703966, Note_off_c, 0, 69, 53
1, 703974, Note_on_c, 0, 67, 40
1, 703981, Control_c, 0, 64, 74
1, 704002, Note_off_c, 0, 66, 28
1, 704033, Note_off_c, 0, 76, 56
1, 704049, Note_on_c, 0, 84, 58
1, 704055, Control_c, 0, 64, 74
1, 704114, Control_c, 0, 64, 73
1, 704129, Control_c, 0, 64, 73
1, 704152, Control_c, 0, 64, 72
1, 704153, Note_on_c, 0, 70, 34
1, 704168, Note_off_c, 0, 84, 63
1, 704192, Note_on_c, 0, 76, 59
1, 704196, Control_c, 0, 64, 73
1, 704211, Control_c, 0, 64, 73
1, 704225, Control_c, 0, 64, 74
1, 704232, Note_off_c, 0, 76, 63
1, 704240, Control_c, 0, 64, 74
1, 704255, Control_c, 0, 64, 71
1, 704270, Control_c, 0, 64, 66
1, 704285, Control_c, 0, 64, 60
1, 704299, Control_c, 0, 64, 53
1, 704314, Control_c, 0, 64, 50
1, 704325, Note_off_c, 0, 70, 63
1, 704329, Control_c, 0, 64, 54
1, 704336, Note_on_c, 0, 76, 24
1, 704344, Control_c, 0, 64, 62
1, 704356, Note_off_c, 0, 67, 64
1, 704359, Control_c, 0, 64, 65
1, 704372, Note_off_c, 0, 76, 0
1, 704372, Note_on_c, 0, 76, 23
1, 704373, Control_c, 0, 64, 67
1, 704388, Control_c, 0, 64, 69
1, 704403, Control_c, 0, 64, 71
1, 704416, Note_off_c, 0, 76, 65
1, 704418, Control_c, 0, 64, 72
1, 704447, Control_c, 0, 64, 73
1, 704463, Control_c, 0, 64, 73
1, 704466, Note_on_c, 0, 76, 55
1, 704478, Control_c, 0, 64, 75
1, 704493, Control_c, 0, 64, 76
1, 704507, Control_c, 0, 64, 76
1, 704510, Note_off_c, 0, 76, 0
1, 704521, Note_on_c, 0, 76, 54
1, 704557, Note_off_c, 0, 76, 64
1, 704583, Control_c, 0, 64, 77
1, 704586, Note_on_c, 0, 88, 68
1, 704612, Control_c, 0, 64, 78
1, 704627, Control_c, 0, 64, 80
1, 704629, Note_on_c, 0, 59, 43
1, 704629, Note_off_c, 0, 88, 61
1, 704642, Control_c, 0, 64, 82
1, 704656, Control_c, 0, 64, 82
1, 704659, Note_on_c, 0, 64, 46
1, 704677, Note_on_c, 0, 78, 70
1, 704713, Note_off_c, 0, 78, 60
1, 704724, Note_on_c, 0, 68, 39
1, 704730, Control_c, 0, 64, 83
1, 704739, Note_on_c, 0, 71, 55
1, 704745, Control_c, 0, 64, 83
1, 704760, Control_c, 0, 64, 84
1, 704775, Note_on_c, 0, 80, 73
1, 704777, Note_off_c, 0, 59, 26
1, 704799, Note_off_c, 0, 80, 70
1, 704831, Note_off_c, 0, 71, 56
1, 704834, Note_off_c, 0, 64, 34
1, 704846, Note_on_c, 0, 80, 47
1, 704864, Note_off_c, 0, 68, 33
1, 704872, Note_off_c, 0, 80, 35
1, 704879, Control_c, 0, 64, 84
1, 704912, Note_on_c, 0, 80, 63
1, 704942, Note_off_c, 0, 80, 67
1, 704969, Note_on_c, 0, 80, 67
1, 704990, Control_c, 0, 64, 84
1, 705019, Control_c, 0, 64, 86
1, 705021, Note_off_c, 0, 80, 62
1, 705034, Control_c, 0, 64, 94
1, 705040, Note_on_c, 0, 92, 83
1, 705049, Control_c, 0, 64, 127
1, 705097, Note_off_c, 0, 92, 65
1, 705111, Note_on_c, 0, 81, 73
1, 705138, Control_c, 0, 64, 82
1, 705151, Note_off_c, 0, 81, 64
1, 705153, Control_c, 0, 64, 61
1, 705168, Control_c, 0, 64, 29
1, 705183, Control_c, 0, 64, 24
1, 705196, Note_on_c, 0, 83, 80
1, 705197, Control_c, 0, 64, 34
1, 705212, Control_c, 0, 64, 54
1, 705218, Note_off_c, 0, 83, 70
1, 705227, Control_c, 0, 64, 62
1, 705242, Control_c, 0, 64, 66
1, 705256, Control_c, 0, 64, 74
1, 705270, Note_on_c, 0, 83, 69
1, 705271, Control_c, 0, 64, 85
1, 705286, Note_off_c, 0, 83, 67
1, 705286, Control_c, 0, 64, 100
1, 705301, Control_c, 0, 64, 127
1, 705354, Poly_aftertouch_c, 0, 81, 0
1, 705370, Note_on_c, 0, 83, 25
1, 705388, Note_off_c, 0, 83, 0
1, 705389, Note_on_c, 0, 84, 12
1, 705411, Note_on_c, 0, 83, 27
1, 705429, Note_off_c, 0, 84, 33
1, 705459, Note_off_c, 0, 83, 64
1, 705478, Note_on_c, 0, 95, 55
1, 705486, Note_on_c, 0, 59, 37
1, 705500, Note_off_c, 0, 95, 58
1, 705511, Note_on_c, 0, 64, 45
1, 705547, Note_on_c, 0, 83, 73
1, 705568, Note_on_c, 0, 68, 50
1, 705572, Note_off_c, 0, 83, 68
1, 705592, Note_on_c, 0, 71, 57
1, 705632, Note_off_c, 0, 59, 33
1, 705639, Note_on_c, 0, 85, 74
1, 705668, Note_off_c, 0, 64, 51
1, 705671, Note_off_c, 0, 85, 70
1, 705672, Note_off_c, 0, 71, 58
1, 705696, Note_off_c, 0, 68, 56
1, 705720, Note_on_c, 0, 85, 47
1, 705744, Note_off_c, 0, 85, 56
1, 705771, Note_on_c, 0, 85, 69
1, 705801, Note_off_c, 0, 85, 67
1, 705838, Note_on_c, 0, 85, 65
1, 705881, Note_off_c, 0, 85, 61
1, 705912, Note_on_c, 0, 96, 65
1, 705929, Note_off_c, 0, 96, 66
1, 705982, Note_on_c, 0, 83, 79
1, 706004, Control_c, 0, 64, 79
1, 706005, Note_off_c, 0, 83, 69
1, 706019, Control_c, 0, 64, 64
1, 706034, Control_c, 0, 64, 60
1, 706049, Control_c, 0, 64, 61
1, 706064, Control_c, 0, 64, 65
1, 706068, Note_on_c, 0, 83, 84
1, 706078, Control_c, 0, 64, 73
1, 706086, Note_off_c, 0, 83, 73
1, 706093, Control_c, 0, 64, 99
1, 706108, Control_c, 0, 64, 127
1, 706134, Note_on_c, 0, 83, 74
1, 706158, Note_off_c, 0, 83, 61
1, 706209, Note_on_c, 0, 83, 79
1, 706227, Note_off_c, 0, 83, 66
1, 706269, Note_on_c, 0, 83, 62
1, 706273, Note_on_c, 0, 59, 17
1, 706290, Note_off_c, 0, 83, 66
1, 706295, Note_on_c, 0, 60, 31
1, 706316, Note_on_c, 0, 66, 49
1, 706321, Note_off_c, 0, 59, 50
1, 706337, Note_on_c, 0, 94, 30
1, 706337, Note_on_c, 0, 95, 44
1, 706342, Note_off_c, 0, 60, 51
1, 706346, Note_on_c, 0, 69, 54
1, 706364, Note_off_c, 0, 95, 54
1, 706368, Note_off_c, 0, 94, 52
1, 706413, Note_on_c, 0, 82, 72
1, 706445, Note_off_c, 0, 82, 63
1, 706462, Note_on_c, 0, 75, 58
1, 706511, Note_on_c, 0, 81, 38
1, 706532, Note_off_c, 0, 75, 62
1, 706541, Note_off_c, 0, 69, 49
1, 706551, Note_off_c, 0, 81, 0
1, 706551, Note_on_c, 0, 81, 52
1, 706584, Note_off_c, 0, 66, 60
1, 706601, Note_off_c, 0, 81, 67
1, 706637, Note_on_c, 0, 81, 72
1, 706660, Note_off_c, 0, 81, 70
1, 706727, Note_on_c, 0, 81, 60
1, 706755, Note_off_c, 0, 81, 67
1, 706761, Note_on_c, 0, 93, 68
1, 706791, Note_off_c, 0, 93, 67
1, 706826, Poly_aftertouch_c, 0, 83, 0
1, 706831, Note_on_c, 0, 80, 86
1, 706872, Control_c, 0, 64, 122
1, 706876, Note_off_c, 0, 80, 62
1, 706887, Control_c, 0, 64, 72
1, 706901, Control_c, 0, 64, 55
1, 706914, Note_on_c, 0, 78, 82
1, 706916, Control_c, 0, 64, 47
1, 706931, Control_c, 0, 64, 52
1, 706936, Note_off_c, 0, 78, 70
1, 706947, Control_c, 0, 64, 60
1, 706962, Control_c, 0, 64, 66
1, 706977, Control_c, 0, 64, 75
1, 706979, Note_on_c, 0, 78, 72
1, 706991, Control_c, 0, 64, 91
1, 706993, Note_off_c, 0, 78, 68
1, 707006, Control_c, 0, 64, 127
1, 707040, Note_on_c, 0, 78, 87
1, 707062, Note_off_c, 0, 78, 71
1, 707112, Note_on_c, 0, 78, 75
1, 707156, Note_off_c, 0, 78, 53
1, 707163, Note_on_c, 0, 90, 76
1, 707184, Note_off_c, 0, 90, 70
1, 707250, Note_on_c, 0, 71, 83
1, 707293, Note_off_c, 0, 71, 63
1, 707294, Note_on_c, 0, 59, 55
1, 707312, Note_on_c, 0, 63, 47
1, 707319, Note_on_c, 0, 66, 56
1, 707341, Note_on_c, 0, 72, 82
1, 707343, Note_on_c, 0, 69, 52
1, 707365, Note_off_c, 0, 72, 66
1, 707419, Note_on_c, 0, 72, 69
1, 707446, Note_off_c, 0, 72, 65
1, 707465, Note_off_c, 0, 69, 52
1, 707489, Note_on_c, 0, 72, 79
1, 707498, Note_off_c, 0, 63, 57
1, 707507, Note_off_c, 0, 72, 74
1, 707514, Note_off_c, 0, 59, 52
1, 707517, Note_off_c, 0, 66, 55
1, 707561, Note_on_c, 0, 72, 76
1, 707591, Note_off_c, 0, 72, 65
1, 707610, Note_on_c, 0, 84, 82
1, 707645, Note_off_c, 0, 84, 59
1, 707680, Control_c, 0, 64, 69
1, 707689, Note_on_c, 0, 71, 75
1, 707695, Control_c, 0, 64, 42
1, 707710, Control_c, 0, 64, 17
1, 707718, Note_off_c, 0, 71, 62
1, 707724, Control_c, 0, 64, 19
1, 707739, Control_c, 0, 64, 41
1, 707755, Control_c, 0, 64, 58
1, 707765, Note_on_c, 0, 78, 75
1, 707770, Control_c, 0, 64, 65
1, 707785, Control_c, 0, 64, 73
1, 707791, Note_off_c, 0, 78, 68
1, 707800, Control_c, 0, 64, 92
1, 707814, Control_c, 0, 64, 127
1, 707833, Poly_aftertouch_c, 0, 78, 0
1, 707912, Note_on_c, 0, 78, 64
1, 707932, Note_off_c, 0, 78, 62
1, 707959, Note_on_c, 0, 59, 52
1, 707970, Note_on_c, 0, 78, 72
1, 708003, Note_off_c, 0, 78, 65
1, 708032, Note_on_c, 0, 66, 50
1, 708038, Note_off_c, 0, 59, 58
1, 708042, Note_on_c, 0, 90, 80
1, 708055, Poly_aftertouch_c, 0, 60, 127
1, 708056, Note_on_c, 0, 69, 56
1, 708080, Note_off_c, 0, 90, 52
1, 708081, Poly_aftertouch_c, 0, 60, 0
1, 708116, Note_on_c, 0, 81, 65
1, 708167, Note_off_c, 0, 81, 64
1, 708169, Note_on_c, 0, 75, 55
1, 708230, Note_off_c, 0, 66, 58
1, 708234, Note_on_c, 0, 84, 53
1, 708238, Note_off_c, 0, 75, 58
1, 708254, Note_off_c, 0, 84, 39
1, 708268, Note_off_c, 0, 69, 56
1, 708290, Note_on_c, 0, 85, 74
1, 708313, Note_off_c, 0, 85, 69
1, 708361, Note_on_c, 0, 85, 80
1, 708382, Note_off_c, 0, 85, 72
1, 708424, Note_on_c, 0, 85, 81
1, 708475, Note_off_c, 0, 85, 64
1, 708495, Note_on_c, 0, 97, 78
1, 708523, Note_off_c, 0, 97, 65
1, 708557, Note_on_c, 0, 83, 77
1, 708564, Control_c, 0, 64, 82
1, 708578, Note_off_c, 0, 83, 71
1, 708579, Control_c, 0, 64, 57
1, 708593, Control_c, 0, 64, 0
1, 708631, Note_on_c, 0, 83, 92
1, 708645, Control_c, 0, 64, 55
1, 708660, Control_c, 0, 64, 66
1, 708667, Note_off_c, 0, 83, 63
1, 708675, Control_c, 0, 64, 76
1, 708690, Control_c, 0, 64, 98
1, 708704, Control_c, 0, 64, 127
1, 708709, Note_on_c, 0, 83, 79
1, 708748, Note_off_c, 0, 83, 63
1, 708776, Note_on_c, 0, 83, 71
1, 708813, Note_off_c, 0, 83, 62
1, 708850, Note_on_c, 0, 83, 70
1, 708858, Note_on_c, 0, 59, 52
1, 708890, Note_on_c, 0, 65, 48
1, 708898, Note_off_c, 0, 83, 63
1, 708903, Note_on_c, 0, 95, 67
1, 708942, Note_off_c, 0, 95, 64
1, 708948, Note_off_c, 0, 59, 54
1, 708964, Note_on_c, 0, 83, 72
1, 708972, Note_on_c, 0, 68, 60
1, 708995, Note_off_c, 0, 83, 66
1, 709041, Note_off_c, 0, 65, 62
1, 709045, Note_on_c, 0, 74, 50
1, 709069, Note_on_c, 0, 80, 86
1, 709090, Note_off_c, 0, 68, 61
1, 709096, Note_off_c, 0, 74, 61
1, 709107, Note_off_c, 0, 80, 67
1, 709153, Note_on_c, 0, 80, 71
1, 709166, Note_off_c, 0, 80, 70
1, 709207, Note_on_c, 0, 80, 94
1, 709250, Note_off_c, 0, 80, 63
1, 709287, Note_on_c, 0, 80, 72
1, 709340, Note_on_c, 0, 92, 80
1, 709341, Note_off_c, 0, 80, 61
1, 709402, Note_off_c, 0, 92, 65
1, 709418, Note_on_c, 0, 80, 75
1, 709439, Note_off_c, 0, 80, 72
1, 709439, Control_c, 0, 64, 102
1, 709454, Control_c, 0, 64, 60
1, 709469, Control_c, 0, 64, 0
1, 709509, Note_on_c, 0, 81, 84
1, 709513, Control_c, 0, 64, 39
1, 709527, Control_c, 0, 64, 61
1, 709532, Note_off_c, 0, 81, 65
1, 709542, Control_c, 0, 64, 70
1, 709557, Control_c, 0, 64, 83
1, 709572, Control_c, 0, 64, 127
1, 709580, Note_on_c, 0, 81, 72
1, 709600, Note_off_c, 0, 81, 72
1, 709652, Note_on_c, 0, 81, 85
1, 709672, Note_off_c, 0, 81, 69
1, 709725, Note_on_c, 0, 81, 73
1, 709774, Note_off_c, 0, 81, 61
1, 709779, Note_on_c, 0, 93, 68
1, 709826, Note_on_c, 0, 60, 43
1, 709826, Note_off_c, 0, 93, 66
1, 709845, Note_on_c, 0, 64, 47
1, 709862, Note_on_c, 0, 81, 65
1, 709887, Note_off_c, 0, 81, 68
1, 709893, Note_on_c, 0, 69, 44
1, 709933, Note_on_c, 0, 72, 45
1, 709945, Note_on_c, 0, 76, 87
1, 709970, Note_off_c, 0, 76, 68
1, 710000, Note_off_c, 0, 72, 53
1, 710014, Note_off_c, 0, 64, 61
1, 710026, Note_on_c, 0, 76, 79
1, 710037, Note_off_c, 0, 60, 36
1, 710048, Note_off_c, 0, 76, 68
1, 710089, Note_on_c, 0, 76, 88
1, 710102, Note_off_c, 0, 69, 25
1, 710127, Note_off_c, 0, 76, 65
1, 710176, Note_on_c, 0, 76, 75
1, 710220, Note_off_c, 0, 76, 63
1, 710242, Note_on_c, 0, 88, 78
1, 710281, Note_off_c, 0, 88, 62
1, 710313, Note_on_c, 0, 76, 73
1, 710320, Control_c, 0, 64, 73
1, 710335, Control_c, 0, 64, 42
1, 710343, Note_off_c, 0, 76, 66
1, 710349, Control_c, 0, 64, 0
1, 710386, Note_on_c, 0, 79, 74
1, 710394, Control_c, 0, 64, 52
1, 710409, Control_c, 0, 64, 64
1, 710410, Note_off_c, 0, 79, 70
1, 710424, Control_c, 0, 64, 70
1, 710439, Control_c, 0, 64, 82
1, 710453, Control_c, 0, 64, 127
1, 710461, Note_on_c, 0, 79, 79
1, 710480, Note_off_c, 0, 79, 73
1, 710535, Note_on_c, 0, 79, 80
1, 710562, Note_off_c, 0, 79, 64
1, 710603, Note_on_c, 0, 79, 71
1, 710653, Note_off_c, 0, 79, 62
1, 710665, Note_on_c, 0, 61, 52
1, 710671, Note_on_c, 0, 91, 80
1, 710722, Note_on_c, 0, 67, 51
1, 710727, Note_off_c, 0, 91, 64
1, 710762, Note_on_c, 0, 70, 68
1, 710763, Note_on_c, 0, 79, 68
1, 710790, Note_off_c, 0, 79, 68
1, 710835, Note_on_c, 0, 75, 91
1, 710866, Note_on_c, 0, 79, 76
1, 710904, Note_off_c, 0, 79, 67
1, 710957, Note_on_c, 0, 79, 70
1, 710987, Note_off_c, 0, 79, 67
1, 711040, Note_on_c, 0, 79, 72
1, 711065, Note_off_c, 0, 79, 65
1, 711108, Note_on_c, 0, 79, 70
1, 711162, Note_off_c, 0, 79, 63
1, 711180, Note_on_c, 0, 91, 71
1, 711226, Note_off_c, 0, 91, 62
1, 711267, Note_on_c, 0, 79, 61
1, 711294, Note_off_c, 0, 79, 67
1, 711345, Note_on_c, 0, 79, 78
1, 711369, Note_off_c, 0, 79, 68
1, 711434, Note_off_c, 0, 61, 56
1, 711434, Note_on_c, 0, 79, 73
1, 711461, Note_off_c, 0, 79, 67
1, 711482, Note_off_c, 0, 75, 51
1, 711513, Note_on_c, 0, 79, 72
1, 711534, Note_off_c, 0, 70, 51
1, 711539, Note_off_c, 0, 79, 65
1, 711595, Note_on_c, 0, 79, 57
1, 711601, Note_off_c, 0, 67, 35
1, 711606, Note_on_c, 0, 61, 45
1, 711656, Note_off_c, 0, 79, 54
1, 711691, Note_on_c, 0, 91, 63
1, 711723, Note_on_c, 0, 67, 54
1, 711739, Note_off_c, 0, 91, 60
1, 711741, Note_off_c, 0, 61, 60
1, 711760, Note_on_c, 0, 70, 48
1, 711776, Note_on_c, 0, 79, 66
1, 711802, Control_c, 0, 64, 105
1, 711809, Note_on_c, 0, 76, 56
1, 711816, Note_off_c, 0, 79, 64
1, 711817, Control_c, 0, 64, 73
1, 711832, Control_c, 0, 64, 61
1, 711847, Control_c, 0, 64, 56
1, 711861, Control_c, 0, 64, 57
1, 711871, Note_on_c, 0, 79, 69
1, 711876, Control_c, 0, 64, 61
1, 711891, Control_c, 0, 64, 65
1, 711899, Note_off_c, 0, 79, 69
1, 711906, Control_c, 0, 64, 70
1, 711920, Control_c, 0, 64, 76
1, 711935, Control_c, 0, 64, 81
1, 711950, Control_c, 0, 64, 85
1, 711959, Note_on_c, 0, 79, 69
1, 711965, Control_c, 0, 64, 88
1, 711980, Control_c, 0, 64, 93
1, 711981, Note_off_c, 0, 79, 65
1, 711995, Control_c, 0, 64, 104
1, 712010, Control_c, 0, 64, 127
1, 712038, Note_on_c, 0, 79, 68
1, 712060, Note_off_c, 0, 79, 66
1, 712114, Note_on_c, 0, 79, 68
1, 712137, Note_off_c, 0, 67, 37
1, 712147, Note_off_c, 0, 79, 60
1, 712156, Note_off_c, 0, 76, 54
1, 712167, Note_on_c, 0, 91, 65
1, 712197, Note_off_c, 0, 91, 66
1, 712217, Control_c, 0, 64, 103
1, 712232, Control_c, 0, 64, 69
1, 712236, Note_on_c, 0, 79, 64
1, 712239, Note_off_c, 0, 70, 61
1, 712247, Control_c, 0, 64, 57
1, 712261, Control_c, 0, 64, 52
1, 712265, Note_off_c, 0, 79, 68
1, 712276, Control_c, 0, 64, 54
1, 712291, Control_c, 0, 64, 61
1, 712306, Control_c, 0, 64, 67
1, 712316, Note_on_c, 0, 79, 75
1, 712320, Control_c, 0, 64, 74
1, 712335, Control_c, 0, 64, 83
1, 712340, Note_off_c, 0, 79, 68
1, 712350, Control_c, 0, 64, 85
1, 712365, Control_c, 0, 64, 88
1, 712380, Control_c, 0, 64, 98
1, 712397, Note_on_c, 0, 79, 75
1, 712402, Control_c, 0, 64, 127
1, 712415, Note_off_c, 0, 79, 67
1, 712468, Note_on_c, 0, 79, 74
1, 712481, Note_off_c, 0, 79, 73
1, 712527, Note_on_c, 0, 79, 81
1, 712571, Note_off_c, 0, 79, 60
1, 712589, Note_on_c, 0, 91, 68
1, 712608, Note_on_c, 0, 62, 32
1, 712624, Note_on_c, 0, 67, 44
1, 712626, Note_off_c, 0, 91, 63
1, 712659, Note_on_c, 0, 71, 53
1, 712659, Note_on_c, 0, 81, 77
1, 712683, Note_on_c, 0, 74, 58
1, 712686, Note_off_c, 0, 81, 66
1, 712743, Note_on_c, 0, 83, 78
1, 712746, Note_off_c, 0, 62, 39
1, 712753, Note_off_c, 0, 67, 60
1, 712753, Note_off_c, 0, 74, 50
1, 712765, Note_off_c, 0, 83, 71
1, 712774, Note_off_c, 0, 71, 56
1, 712812, Note_on_c, 0, 83, 77
1, 712832, Note_off_c, 0, 83, 72
1, 712887, Note_on_c, 0, 83, 78
1, 712903, Note_off_c, 0, 83, 67
1, 712954, Note_on_c, 0, 83, 84
1, 712989, Note_off_c, 0, 83, 60
1, 713011, Note_on_c, 0, 95, 80
1, 713038, Note_off_c, 0, 95, 65
1, 713069, Control_c, 0, 64, 75
1, 713076, Note_on_c, 0, 84, 85
1, 713084, Control_c, 0, 64, 60
1, 713099, Control_c, 0, 64, 52
1, 713114, Control_c, 0, 64, 55
1, 713115, Note_off_c, 0, 84, 65
1, 713129, Control_c, 0, 64, 62
1, 713151, Control_c, 0, 64, 69
1, 713158, Note_on_c, 0, 86, 87
1, 713166, Control_c, 0, 64, 77
1, 713181, Control_c, 0, 64, 93
1, 713184, Note_off_c, 0, 86, 66
1, 713196, Control_c, 0, 64, 127
1, 713240, Note_on_c, 0, 86, 76
1, 713265, Note_off_c, 0, 86, 69
1, 713309, Note_on_c, 0, 86, 71
1, 713335, Note_off_c, 0, 86, 67
1, 713377, Note_on_c, 0, 86, 82
1, 713420, Note_off_c, 0, 86, 60
1, 713428, Note_on_c, 0, 98, 77
1, 713441, Note_on_c, 0, 62, 49
1, 713477, Note_off_c, 0, 98, 65
1, 713479, Note_on_c, 0, 67, 36
1, 713507, Note_on_c, 0, 86, 72
1, 713509, Note_on_c, 0, 71, 53
1, 713533, Note_off_c, 0, 86, 68
1, 713571, Note_on_c, 0, 74, 62
1, 713580, Note_on_c, 0, 88, 84
1, 713602, Note_off_c, 0, 88, 70
1, 713652, Note_off_c, 0, 74, 51
1, 713660, Note_on_c, 0, 88, 81
1, 713682, Note_off_c, 0, 88, 69
1, 713722, Note_on_c, 0, 88, 87
1, 713747, Poly_aftertouch_c, 0, 74, 127
1, 713757, Note_off_c, 0, 88, 64
1, 713789, Poly_aftertouch_c, 0, 88, 0
1, 713794, Poly_aftertouch_c, 0, 74, 0
1, 713795, Note_on_c, 0, 88, 79
1, 713842, Note_off_c, 0, 88, 61
1, 713849, Note_on_c, 0, 100, 79
1, 713894, Note_off_c, 0, 100, 62
1, 713905, Note_off_c, 0, 67, 41
1, 713906, Note_off_c, 0, 62, 38
1, 713917, Note_off_c, 0, 71, 63
1, 713930, Note_on_c, 0, 86, 80
1, 713944, Control_c, 0, 64, 85
1, 713953, Note_off_c, 0, 86, 70
1, 713959, Control_c, 0, 64, 64
1, 713974, Control_c, 0, 64, 59
1, 713989, Control_c, 0, 64, 62
1, 714004, Control_c, 0, 64, 67
1, 714005, Note_on_c, 0, 86, 86
1, 714019, Control_c, 0, 64, 81
1, 714028, Note_off_c, 0, 86, 67
1, 714034, Control_c, 0, 64, 127
1, 714081, Note_on_c, 0, 86, 78
1, 714105, Note_off_c, 0, 86, 70
1, 714141, Note_on_c, 0, 86, 74
1, 714165, Note_off_c, 0, 86, 70
1, 714205, Note_on_c, 0, 86, 68
1, 714230, Note_off_c, 0, 86, 66
1, 714245, Note_on_c, 0, 62, 13
1, 714256, Note_on_c, 0, 69, 54
1, 714281, Note_off_c, 0, 62, 0
1, 714290, Note_on_c, 0, 72, 51
1, 714297, Poly_aftertouch_c, 0, 62, 0
1, 714329, Note_on_c, 0, 85, 70
1, 714361, Note_off_c, 0, 85, 62
1, 714370, Poly_aftertouch_c, 0, 66, 0
1, 714396, Note_on_c, 0, 78, 69
1, 714406, Note_on_c, 0, 84, 84
1, 714448, Note_off_c, 0, 84, 66
1, 714490, Note_on_c, 0, 84, 79
1, 714499, Note_off_c, 0, 78, 55
1, 714519, Note_off_c, 0, 84, 65
1, 714542, Note_off_c, 0, 72, 53
1, 714562, Note_on_c, 0, 84, 75
1, 714584, Note_off_c, 0, 84, 70
1, 714621, Note_off_c, 0, 69, 40
1, 714634, Note_on_c, 0, 84, 87
1, 714674, Note_off_c, 0, 84, 62
1, 714691, Note_on_c, 0, 96, 75
1, 714716, Note_off_c, 0, 96, 68
1, 714749, Note_on_c, 0, 83, 83
1, 714773, Note_off_c, 0, 83, 69
1, 714797, Control_c, 0, 64, 83
1, 714812, Control_c, 0, 64, 63
1, 714826, Control_c, 0, 64, 56
1, 714829, Note_on_c, 0, 81, 84
1, 714841, Control_c, 0, 64, 59
1, 714853, Note_off_c, 0, 81, 67
1, 714856, Control_c, 0, 64, 65
1, 714871, Control_c, 0, 64, 73
1, 714886, Control_c, 0, 64, 90
1, 714901, Control_c, 0, 64, 127
1, 714910, Note_on_c, 0, 81, 61
1, 714932, Note_off_c, 0, 81, 56
1, 714972, Note_on_c, 0, 81, 65
1, 714998, Note_off_c, 0, 81, 67
1, 715036, Poly_aftertouch_c, 0, 81, 0
1, 715050, Poly_aftertouch_c, 0, 81, 0
1, 715079, Note_on_c, 0, 93, 61
1, 715095, Note_off_c, 0, 93, 64
1, 715158, Note_on_c, 0, 74, 74
1, 715195, Note_on_c, 0, 66, 48
1, 715200, Note_on_c, 0, 62, 41
1, 715205, Note_off_c, 0, 74, 61
1, 715205, Note_on_c, 0, 69, 50
1, 715221, Note_on_c, 0, 72, 30
1, 715241, Note_on_c, 0, 75, 77
1, 715265, Note_off_c, 0, 75, 69
1, 715314, Note_on_c, 0, 75, 81
1, 715339, Note_off_c, 0, 75, 68
1, 715390, Note_on_c, 0, 75, 81
1, 715415, Note_off_c, 0, 75, 66
1, 715465, Note_on_c, 0, 75, 71
1, 715497, Note_off_c, 0, 75, 65
1, 715508, Note_off_c, 0, 66, 58
1, 715511, Note_off_c, 0, 69, 61
1, 715517, Note_on_c, 0, 87, 79
1, 715522, Note_off_c, 0, 62, 53
1, 715542, Note_off_c, 0, 87, 65
1, 715582, Note_off_c, 0, 72, 47
1, 715590, Control_c, 0, 64, 75
1, 715596, Note_on_c, 0, 74, 69
1, 715604, Control_c, 0, 64, 60
1, 715619, Control_c, 0, 64, 53
1, 715622, Note_off_c, 0, 74, 67
1, 715634, Control_c, 0, 64, 54
1, 715649, Control_c, 0, 64, 58
1, 715661, Note_on_c, 0, 78, 82
1, 715664, Control_c, 0, 64, 65
1, 715679, Control_c, 0, 64, 72
1, 715692, Note_off_c, 0, 78, 67
1, 715694, Control_c, 0, 64, 96
1, 715709, Control_c, 0, 64, 127
1, 715804, Note_on_c, 0, 79, 68
1, 715831, Note_off_c, 0, 79, 67
1, 715834, Poly_aftertouch_c, 0, 78, 0
1, 715855, Note_on_c, 0, 78, 47
1, 715878, Note_on_c, 0, 62, 52
1, 715907, Note_off_c, 0, 78, 65
1, 715935, Note_on_c, 0, 90, 72
1, 715943, Note_on_c, 0, 69, 56
1, 715956, Note_off_c, 0, 62, 55
1, 715959, Note_off_c, 0, 90, 65
1, 715985, Note_on_c, 0, 72, 60
1, 716000, Note_on_c, 0, 81, 74
1, 716037, Note_off_c, 0, 81, 63
1, 716064, Note_on_c, 0, 78, 81
1, 716068, Note_on_c, 0, 88, 86
1, 716089, Note_off_c, 0, 78, 67
1, 716097, Note_off_c, 0, 69, 61
1, 716102, Note_off_c, 0, 72, 65
1, 716102, Note_off_c, 0, 88, 69
1, 716172, Note_on_c, 0, 88, 39
1, 716173, Note_off_c, 0, 88, 127
1, 716207, Note_on_c, 0, 88, 66
1, 716252, Note_off_c, 0, 88, 66
1, 716293, Note_on_c, 0, 88, 71
1, 716350, Note_on_c, 0, 100, 71
1, 716364, Note_off_c, 0, 88, 64
1, 716366, Note_on_c, 0, 62, 49
1, 716400, Note_off_c, 0, 100, 64
1, 716426, Note_on_c, 0, 68, 49
1, 716427, Note_on_c, 0, 86, 73
1, 716428, Control_c, 0, 64, 70
1, 716435, Note_off_c, 0, 62, 57
1, 716442, Control_c, 0, 64, 52
1, 716445, Note_on_c, 0, 71, 60
1, 716450, Note_off_c, 0, 86, 70
1, 716457, Control_c, 0, 64, 45
1, 716472, Control_c, 0, 64, 49
1, 716487, Control_c, 0, 64, 61
1, 716494, Note_on_c, 0, 77, 76
1, 716502, Control_c, 0, 64, 69
1, 716509, Note_on_c, 0, 86, 87
1, 716517, Control_c, 0, 64, 85
1, 716526, Note_off_c, 0, 71, 64
1, 716529, Note_off_c, 0, 68, 63
1, 716530, Note_off_c, 0, 86, 70
1, 716532, Control_c, 0, 64, 127
1, 716534, Note_off_c, 0, 77, 63
1, 716594, Note_on_c, 0, 86, 76
1, 716617, Note_off_c, 0, 86, 70
1, 716656, Note_on_c, 0, 86, 80
1, 716678, Note_off_c, 0, 86, 71
1, 716732, Note_on_c, 0, 86, 81
1, 716772, Note_off_c, 0, 86, 57
1, 716784, Note_on_c, 0, 98, 71
1, 716816, Note_off_c, 0, 98, 68
1, 716873, Note_on_c, 0, 84, 50
1, 716901, Note_off_c, 0, 84, 57
1, 716906, Note_on_c, 0, 80, 68
1, 716912, Note_on_c, 0, 77, 59
1, 716915, Note_on_c, 0, 74, 60
1, 716933, Note_off_c, 0, 80, 67
1, 716940, Note_on_c, 0, 83, 83
1, 716943, Note_off_c, 0, 77, 65
1, 716946, Note_off_c, 0, 74, 65
1, 716961, Note_off_c, 0, 83, 69
1, 717012, Note_on_c, 0, 83, 74
1, 717037, Note_off_c, 0, 83, 68
1, 717077, Note_on_c, 0, 83, 88
1, 717101, Note_off_c, 0, 83, 67
1, 717160, Note_on_c, 0, 83, 64
1, 717200, Note_off_c, 0, 83, 62
1, 717212, Note_on_c, 0, 95, 70
1, 717250, Note_off_c, 0, 95, 63
1, 717280, Note_on_c, 0, 67, 52
1, 717281, Note_on_c, 0, 62, 44
1, 717292, Note_on_c, 0, 83, 74
1, 717325, Control_c, 0, 64, 95
1, 717328, Note_off_c, 0, 83, 59
1, 717337, Note_on_c, 0, 70, 53
1, 717340, Control_c, 0, 64, 66
1, 717355, Control_c, 0, 64, 47
1, 717370, Control_c, 0, 64, 49
1, 717385, Control_c, 0, 64, 57
1, 717391, Note_on_c, 0, 85, 78
1, 717392, Note_on_c, 0, 76, 69
1, 717399, Control_c, 0, 64, 66
1, 717402, Note_off_c, 0, 62, 39
1, 717411, Note_off_c, 0, 85, 71
1, 717414, Control_c, 0, 64, 78
1, 717426, Note_off_c, 0, 67, 63
1, 717429, Control_c, 0, 64, 106
1, 717437, Note_off_c, 0, 76, 63
1, 717441, Note_off_c, 0, 70, 64
1, 717444, Control_c, 0, 64, 127
1, 717471, Note_on_c, 0, 85, 75
1, 717490, Note_off_c, 0, 85, 72
1, 717539, Note_on_c, 0, 85, 81
1, 717561, Note_off_c, 0, 85, 71
1, 717605, Note_on_c, 0, 85, 78
1, 717657, Note_off_c, 0, 85, 62
1, 717682, Note_on_c, 0, 97, 74
1, 717733, Note_off_c, 0, 97, 63
1, 717754, Note_on_c, 0, 85, 73
1, 717783, Note_off_c, 0, 85, 67
1, 717827, Note_on_c, 0, 79, 52
1, 717828, Note_on_c, 0, 73, 63
1, 717829, Note_on_c, 0, 76, 43
1, 717842, Note_on_c, 0, 82, 82
1, 717852, Note_off_c, 0, 79, 65
1, 717854, Note_off_c, 0, 76, 61
1, 717858, Note_off_c, 0, 73, 66
1, 717879, Note_off_c, 0, 82, 66
1, 717924, Note_on_c, 0, 82, 66
1, 717947, Note_off_c, 0, 82, 68
1, 718001, Note_on_c, 0, 82, 70
1, 718025, Note_off_c, 0, 82, 69
1, 718068, Note_on_c, 0, 82, 67
1, 718099, Note_off_c, 0, 82, 63
1, 718117, Note_on_c, 0, 94, 71
1, 718162, Note_on_c, 0, 62, 42
1, 718172, Note_off_c, 0, 94, 62
1, 718195, Note_on_c, 0, 82, 62
1, 718202, Note_on_c, 0, 66, 50
1, 718213, Note_on_c, 0, 69, 59
1, 718223, Note_off_c, 0, 82, 67
1, 718237, Control_c, 0, 64, 90
1, 718252, Control_c, 0, 64, 64
1, 718267, Control_c, 0, 64, 50
1, 718275, Note_on_c, 0, 75, 76
1, 718282, Control_c, 0, 64, 51
1, 718292, Note_on_c, 0, 84, 82
1, 718296, Note_off_c, 0, 62, 62
1, 718297, Control_c, 0, 64, 60
1, 718311, Note_off_c, 0, 84, 71
1, 718312, Control_c, 0, 64, 71
1, 718318, Note_off_c, 0, 69, 64
1, 718322, Note_off_c, 0, 66, 63
1, 718324, Note_off_c, 0, 75, 63
1, 718327, Control_c, 0, 64, 103
1, 718342, Control_c, 0, 64, 127
1, 718389, Note_on_c, 0, 84, 76
1, 718413, Note_off_c, 0, 84, 66
1, 718461, Note_on_c, 0, 84, 81
1, 718481, Note_off_c, 0, 84, 69
1, 718535, Note_on_c, 0, 84, 76
1, 718561, Note_off_c, 0, 84, 65
1, 718599, Note_on_c, 0, 96, 64
1, 718631, Note_off_c, 0, 96, 67
1, 718661, Note_on_c, 0, 84, 75
1, 718684, Note_off_c, 0, 84, 69
1, 718717, Note_on_c, 0, 78, 67
1, 718720, Note_on_c, 0, 75, 60
1, 718732, Note_on_c, 0, 72, 54
1, 718746, Note_off_c, 0, 78, 67
1, 718751, Note_off_c, 0, 75, 66
1, 718752, Note_on_c, 0, 81, 81
1, 718752, Note_off_c, 0, 72, 64
1, 718772, Note_off_c, 0, 81, 70
1, 718836, Note_on_c, 0, 81, 71
1, 718866, Note_off_c, 0, 81, 59
1, 718897, Note_on_c, 0, 81, 81
1, 718924, Note_off_c, 0, 81, 67
1, 718976, Note_on_c, 0, 81, 69
1, 719019, Note_off_c, 0, 81, 57
1, 719027, Note_on_c, 0, 93, 78
1, 719069, Note_on_c, 0, 65, 50
1, 719072, Note_off_c, 0, 93, 64
1, 719076, Note_on_c, 0, 62, 43
1, 719101, Note_on_c, 0, 81, 67
1, 719115, Note_on_c, 0, 68, 64
1, 719128, Control_c, 0, 64, 98
1, 719138, Note_off_c, 0, 81, 67
1, 719143, Control_c, 0, 64, 68
1, 719158, Control_c, 0, 64, 56
1, 719173, Control_c, 0, 64, 57
1, 719187, Control_c, 0, 64, 63
1, 719188, Note_on_c, 0, 74, 76
1, 719191, Note_on_c, 0, 83, 86
1, 719202, Control_c, 0, 64, 72
1, 719217, Control_c, 0, 64, 114
1, 719218, Note_off_c, 0, 83, 64
1, 719219, Note_off_c, 0, 65, 62
1, 719225, Note_off_c, 0, 62, 64
1, 719232, Control_c, 0, 64, 127
1, 719238, Note_off_c, 0, 74, 64
1, 719244, Note_off_c, 0, 68, 63
1, 719280, Note_on_c, 0, 83, 80
1, 719305, Note_off_c, 0, 83, 67
1, 719352, Note_on_c, 0, 83, 83
1, 719376, Note_off_c, 0, 83, 66
1, 719428, Note_on_c, 0, 83, 74
1, 719469, Note_off_c, 0, 83, 58
1, 719482, Note_on_c, 0, 95, 72
1, 719525, Note_off_c, 0, 95, 62
1, 719554, Note_on_c, 0, 83, 68
1, 719579, Note_off_c, 0, 83, 68
1, 719629, Note_on_c, 0, 71, 62
1, 719633, Note_on_c, 0, 74, 61
1, 719640, Note_on_c, 0, 77, 58
1, 719644, Note_on_c, 0, 80, 86
1, 719658, Note_off_c, 0, 77, 63
1, 719662, Note_off_c, 0, 74, 65
1, 719662, Note_off_c, 0, 71, 66
1, 719685, Note_off_c, 0, 80, 66
1, 719732, Note_on_c, 0, 80, 59
1, 719757, Note_off_c, 0, 80, 69
1, 719811, Note_on_c, 0, 80, 53
1, 719831, Note_off_c, 0, 80, 60
1, 719921, Note_on_c, 0, 80, 6
1, 719931, Note_on_c, 0, 92, 76
1, 719958, Note_off_c, 0, 92, 67
1, 719960, Note_off_c, 0, 80, 0
1, 719983, Note_on_c, 0, 80, 44
1, 719989, Note_on_c, 0, 64, 47
1, 720001, Note_on_c, 0, 62, 40
1, 720019, Note_on_c, 0, 67, 63
1, 720049, Note_off_c, 0, 80, 64
1, 720070, Control_c, 0, 64, 82
1, 720076, Note_on_c, 0, 73, 67
1, 720085, Control_c, 0, 64, 64
1, 720091, Note_on_c, 0, 82, 83
1, 720100, Control_c, 0, 64, 59
1, 720115, Control_c, 0, 64, 62
1, 720116, Note_off_c, 0, 62, 63
1, 720125, Note_off_c, 0, 82, 66
1, 720129, Control_c, 0, 64, 67
1, 720132, Note_off_c, 0, 67, 64
1, 720135, Note_off_c, 0, 64, 64
1, 720138, Note_off_c, 0, 73, 64
1, 720144, Control_c, 0, 64, 84
1, 720159, Control_c, 0, 64, 127
1, 720166, Note_on_c, 0, 82, 69
1, 720189, Note_off_c, 0, 82, 67
1, 720234, Note_on_c, 0, 82, 85
1, 720260, Note_off_c, 0, 82, 62
1, 720305, Note_on_c, 0, 82, 79
1, 720356, Note_off_c, 0, 82, 64
1, 720372, Note_on_c, 0, 94, 82
1, 720434, Note_off_c, 0, 94, 63
1, 720452, Note_on_c, 0, 82, 74
1, 720478, Note_off_c, 0, 82, 68
1, 720517, Note_on_c, 0, 73, 54
1, 720521, Note_on_c, 0, 76, 67
1, 720533, Note_on_c, 0, 70, 48
1, 720551, Note_off_c, 0, 76, 67
1, 720555, Note_on_c, 0, 79, 78
1, 720556, Note_off_c, 0, 73, 66
1, 720563, Note_off_c, 0, 70, 65
1, 720578, Note_off_c, 0, 79, 67
1, 720630, Poly_aftertouch_c, 0, 79, 0
1, 720663, Poly_aftertouch_c, 0, 79, 0
1, 720717, Poly_aftertouch_c, 0, 79, 0
1, 720729, Poly_aftertouch_c, 0, 79, 0
1, 720797, Note_on_c, 0, 79, 67
1, 720848, Note_off_c, 0, 79, 66
1, 720854, Note_on_c, 0, 91, 25
1, 720889, Note_off_c, 0, 91, 41
1, 720915, Note_on_c, 0, 79, 49
1, 720922, Control_c, 0, 64, 91
1, 720937, Control_c, 0, 64, 68
1, 720942, Note_off_c, 0, 79, 58
1, 720951, Control_c, 0, 64, 60
1, 720966, Control_c, 0, 64, 61
1, 720975, Note_on_c, 0, 87, 85
1, 720981, Control_c, 0, 64, 65
1, 720982, Note_on_c, 0, 75, 85
1, 720985, Note_on_c, 0, 82, 70
1, 720996, Control_c, 0, 64, 75
1, 721011, Control_c, 0, 64, 99
1, 721016, Note_on_c, 0, 70, 54
1, 721023, Note_on_c, 0, 63, 28
1, 721025, Control_c, 0, 64, 127
1, 721027, Note_off_c, 0, 75, 63
1, 721031, Note_off_c, 0, 82, 61
1, 721038, Note_off_c, 0, 70, 63
1, 721056, Note_off_c, 0, 87, 63
1, 721058, Note_off_c, 0, 63, 45
1, 721108, Note_on_c, 0, 70, 68
1, 721113, Note_on_c, 0, 73, 66
1, 721118, Note_on_c, 0, 67, 41
1, 721137, Note_off_c, 0, 70, 67
1, 721141, Note_off_c, 0, 73, 66
1, 721146, Note_off_c, 0, 67, 58
1, 721174, Note_on_c, 0, 63, 29
1, 721194, Poly_aftertouch_c, 0, 73, 0
1, 721203, Note_on_c, 0, 70, 67
1, 721224, Note_off_c, 0, 70, 66
1, 721232, Note_off_c, 0, 63, 64
1, 721242, Note_on_c, 0, 67, 3
1, 721278, Note_off_c, 0, 67, 37
1, 721296, Note_on_c, 0, 78, 74
1, 721300, Note_on_c, 0, 90, 70
1, 721309, Note_on_c, 0, 87, 64
1, 721325, Note_off_c, 0, 78, 68
1, 721327, Note_off_c, 0, 90, 69
1, 721337, Note_off_c, 0, 87, 67
1, 721400, Note_on_c, 0, 91, 84
1, 721402, Note_on_c, 0, 79, 79
1, 721415, Note_on_c, 0, 87, 59
1, 721429, Note_off_c, 0, 79, 66
1, 721434, Note_off_c, 0, 87, 63
1, 721448, Note_off_c, 0, 91, 64
1, 721496, Note_on_c, 0, 70, 73
1, 721497, Note_on_c, 0, 67, 72
1, 721509, Note_on_c, 0, 61, 61
1, 721514, Note_on_c, 0, 63, 60
1, 721522, Note_off_c, 0, 70, 67
1, 721528, Note_off_c, 0, 67, 65
1, 721540, Note_off_c, 0, 61, 64
1, 721544, Note_off_c, 0, 63, 64
1, 721602, Note_on_c, 0, 61, 67
1, 721603, Note_on_c, 0, 70, 67
1, 721614, Note_on_c, 0, 63, 54
1, 721629, Note_off_c, 0, 70, 65
1, 721637, Note_off_c, 0, 61, 64
1, 721642, Note_off_c, 0, 63, 64
1, 721689, Poly_aftertouch_c, 0, 67, 0
1, 721690, Note_on_c, 0, 93, 71
1, 721691, Note_on_c, 0, 81, 64
1, 721691, Note_on_c, 0, 87, 76
1, 721708, Note_off_c, 0, 81, 67
1, 721715, Note_off_c, 0, 93, 70
1, 721717, Note_off_c, 0, 87, 67
1, 721782, Note_on_c, 0, 94, 88
1, 721794, Note_on_c, 0, 82, 66
1, 721798, Note_on_c, 0, 87, 66
1, 721811, Note_off_c, 0, 82, 65
1, 721814, Note_off_c, 0, 87, 66
1, 721814, Note_off_c, 0, 94, 55
1, 721873, Note_on_c, 0, 67, 58
1, 721873, Note_on_c, 0, 63, 60
1, 721875, Note_on_c, 0, 58, 60
1, 721882, Note_on_c, 0, 61, 44
1, 721897, Note_off_c, 0, 67, 62
1, 721903, Note_off_c, 0, 61, 61
1, 721904, Note_off_c, 0, 63, 66
1, 721909, Note_off_c, 0, 58, 61
1, 721967, Note_on_c, 0, 67, 62
1, 721970, Note_on_c, 0, 61, 63
1, 721974, Note_on_c, 0, 58, 65
1, 721978, Note_on_c, 0, 63, 57
1, 721992, Note_off_c, 0, 67, 62
1, 722001, Note_off_c, 0, 61, 66
1, 722007, Note_off_c, 0, 58, 65
1, 722007, Note_off_c, 0, 63, 64
1, 722061, Note_on_c, 0, 94, 82
1, 722066, Note_on_c, 0, 82, 72
1, 722082, Note_on_c, 0, 87, 49
1, 722086, Note_off_c, 0, 94, 68
1, 722088, Note_off_c, 0, 82, 65
1, 722103, Note_off_c, 0, 87, 58
1, 722155, Note_on_c, 0, 96, 90
1, 722173, Note_on_c, 0, 84, 58
1, 722195, Note_off_c, 0, 84, 64
1, 722197, Note_off_c, 0, 96, 66
1, 722262, Note_on_c, 0, 58, 60
1, 722266, Note_on_c, 0, 63, 70
1, 722267, Note_on_c, 0, 61, 65
1, 722293, Note_off_c, 0, 63, 68
1, 722293, Note_off_c, 0, 61, 65
1, 722294, Note_off_c, 0, 58, 65
1, 722347, Note_on_c, 0, 55, 23
1, 722353, Note_on_c, 0, 61, 67
1, 722358, Note_on_c, 0, 58, 66
1, 722359, Note_on_c, 0, 63, 66
1, 722380, Note_off_c, 0, 61, 67
1, 722382, Note_off_c, 0, 63, 64
1, 722383, Note_off_c, 0, 58, 69
1, 722389, Note_off_c, 0, 55, 50
1, 722449, Note_on_c, 0, 94, 86
1, 722449, Control_c, 0, 64, 103
1, 722452, Note_on_c, 0, 82, 80
1, 722454, Note_on_c, 0, 87, 74
1, 722464, Control_c, 0, 64, 79
1, 722470, Note_off_c, 0, 94, 70
1, 722472, Note_off_c, 0, 82, 71
1, 722478, Control_c, 0, 64, 72
1, 722479, Note_off_c, 0, 87, 66
1, 722493, Control_c, 0, 64, 75
1, 722508, Control_c, 0, 64, 89
1, 722522, Control_c, 0, 64, 127
1, 722535, Note_on_c, 0, 94, 95
1, 722540, Note_on_c, 0, 82, 87
1, 722548, Note_on_c, 0, 87, 67
1, 722574, Note_off_c, 0, 87, 68
1, 722583, Note_off_c, 0, 82, 61
1, 722584, Note_off_c, 0, 94, 64
1, 722627, Note_on_c, 0, 73, 74
1, 722631, Note_on_c, 0, 67, 66
1, 722640, Note_on_c, 0, 70, 61
1, 722649, Note_on_c, 0, 63, 38
1, 722652, Note_off_c, 0, 73, 68
1, 722660, Note_off_c, 0, 67, 67
1, 722668, Note_off_c, 0, 70, 66
1, 722677, Note_off_c, 0, 63, 55
1, 722726, Note_on_c, 0, 73, 70
1, 722726, Note_on_c, 0, 70, 71
1, 722735, Note_on_c, 0, 63, 56
1, 722744, Note_on_c, 0, 67, 54
1, 722749, Note_off_c, 0, 70, 71
1, 722751, Note_off_c, 0, 73, 69
1, 722766, Note_off_c, 0, 67, 60
1, 722769, Note_off_c, 0, 63, 63
1, 722812, Note_on_c, 0, 93, 79
1, 722816, Note_on_c, 0, 81, 81
1, 722839, Note_off_c, 0, 81, 69
1, 722852, Note_off_c, 0, 93, 65
1, 722909, Note_on_c, 0, 92, 94
1, 722915, Note_on_c, 0, 80, 85
1, 722940, Note_off_c, 0, 80, 67
1, 722950, Note_off_c, 0, 92, 65
1, 722997, Note_on_c, 0, 70, 75
1, 723005, Note_on_c, 0, 67, 67
1, 723012, Note_on_c, 0, 61, 57
1, 723015, Note_on_c, 0, 63, 61
1, 723025, Note_off_c, 0, 70, 66
1, 723030, Note_off_c, 0, 67, 68
1, 723045, Note_off_c, 0, 61, 63
1, 723046, Note_off_c, 0, 63, 65
1, 723104, Note_on_c, 0, 70, 67
1, 723108, Note_on_c, 0, 63, 66
1, 723119, Note_on_c, 0, 67, 51
1, 723125, Note_on_c, 0, 61, 58
1, 723126, Note_off_c, 0, 70, 70
1, 723137, Note_off_c, 0, 63, 67
1, 723147, Note_off_c, 0, 67, 54
1, 723153, Note_off_c, 0, 61, 62
1, 723179, Note_on_c, 0, 91, 86
1, 723188, Note_on_c, 0, 79, 78
1, 723190, Note_on_c, 0, 82, 79
1, 723218, Note_off_c, 0, 79, 66
1, 723222, Note_off_c, 0, 91, 66
1, 723233, Note_off_c, 0, 82, 64
1, 723292, Note_on_c, 0, 90, 85
1, 723296, Note_on_c, 0, 78, 80
1, 723296, Note_on_c, 0, 82, 77
1, 723318, Note_off_c, 0, 90, 58
1, 723322, Note_off_c, 0, 82, 68
1, 723325, Note_off_c, 0, 78, 62
1, 723368, Note_on_c, 0, 67, 61
1, 723382, Note_on_c, 0, 61, 61
1, 723385, Note_on_c, 0, 58, 63
1, 723386, Note_on_c, 0, 63, 65
1, 723412, Note_off_c, 0, 67, 61
1, 723413, Note_off_c, 0, 63, 68
1, 723414, Note_off_c, 0, 61, 64
1, 723420, Note_off_c, 0, 58, 64
1, 723479, Note_on_c, 0, 67, 68
1, 723483, Note_on_c, 0, 63, 66
1, 723485, Note_on_c, 0, 58, 69
1, 723492, Note_on_c, 0, 61, 67
1, 723508, Note_off_c, 0, 67, 63
1, 723516, Note_off_c, 0, 63, 63
1, 723517, Note_off_c, 0, 61, 69
1, 723528, Note_off_c, 0, 58, 57
1, 723561, Note_on_c, 0, 77, 82
1, 723561, Note_on_c, 0, 82, 80
1, 723563, Note_on_c, 0, 89, 78
1, 723589, Note_off_c, 0, 89, 64
1, 723593, Note_off_c, 0, 82, 62
1, 723599, Note_off_c, 0, 77, 63
1, 723600, Note_on_c, 0, 88, 36
1, 723601, Note_off_c, 0, 88, 127
1, 723671, Note_on_c, 0, 76, 90
1, 723672, Note_on_c, 0, 88, 82
1, 723685, Note_on_c, 0, 82, 69
1, 723697, Note_off_c, 0, 76, 64
1, 723701, Note_off_c, 0, 82, 68
1, 723702, Note_off_c, 0, 88, 61
1, 723757, Note_on_c, 0, 58, 62
1, 723760, Note_on_c, 0, 61, 66
1, 723763, Note_on_c, 0, 63, 71
1, 723787, Note_off_c, 0, 58, 64
1, 723788, Note_off_c, 0, 63, 68
1, 723790, Note_off_c, 0, 61, 65
1, 723837, Note_on_c, 0, 55, 27
1, 723854, Note_on_c, 0, 61, 71
1, 723854, Note_on_c, 0, 63, 71
1, 723857, Note_on_c, 0, 58, 67
1, 723870, Poly_aftertouch_c, 0, 82, 0
1, 723879, Note_off_c, 0, 63, 69
1, 723882, Note_off_c, 0, 55, 61
1, 723882, Note_off_c, 0, 61, 68
1, 723888, Note_off_c, 0, 58, 65
1, 723941, Note_on_c, 0, 75, 85
1, 723942, Note_on_c, 0, 82, 84
1, 723942, Note_on_c, 0, 87, 84
1, 723962, Control_c, 0, 64, 88
1, 723963, Note_off_c, 0, 75, 69
1, 723964, Note_off_c, 0, 87, 69
1, 723965, Note_off_c, 0, 82, 68
1, 723976, Control_c, 0, 64, 58
1, 723991, Control_c, 0, 64, 0
1, 724021, Control_c, 0, 64, 42
1, 724031, Note_on_c, 0, 87, 96
1, 724033, Note_on_c, 0, 75, 93
1, 724036, Control_c, 0, 64, 63
1, 724048, Note_on_c, 0, 82, 64
1, 724050, Control_c, 0, 64, 71
1, 724065, Control_c, 0, 64, 90
1, 724066, Note_off_c, 0, 82, 65
1, 724067, Note_off_c, 0, 75, 62
1, 724076, Note_off_c, 0, 87, 64
1, 724080, Control_c, 0, 64, 127
1, 724118, Note_on_c, 0, 73, 73
1, 724119, Note_on_c, 0, 67, 66
1, 724125, Note_on_c, 0, 70, 70
1, 724136, Note_on_c, 0, 63, 45
1, 724147, Note_off_c, 0, 73, 65
1, 724152, Note_off_c, 0, 67, 64
1, 724152, Note_off_c, 0, 70, 69
1, 724163, Note_off_c, 0, 63, 56
1, 724173, Note_on_c, 0, 78, 45
1, 724199, Note_off_c, 0, 78, 50
1, 724216, Note_on_c, 0, 73, 66
1, 724222, Note_on_c, 0, 70, 66
1, 724227, Note_on_c, 0, 63, 62
1, 724227, Note_on_c, 0, 67, 48
1, 724243, Note_off_c, 0, 73, 68
1, 724250, Note_off_c, 0, 70, 66
1, 724252, Note_off_c, 0, 67, 60
1, 724256, Note_off_c, 0, 63, 67
1, 724289, Note_on_c, 0, 78, 75
1, 724291, Note_on_c, 0, 90, 74
1, 724309, Note_on_c, 0, 87, 61
1, 724314, Note_off_c, 0, 78, 69
1, 724315, Note_off_c, 0, 90, 69
1, 724333, Note_off_c, 0, 87, 65
1, 724381, Note_on_c, 0, 91, 81
1, 724384, Note_on_c, 0, 79, 87
1, 724396, Note_on_c, 0, 87, 79
1, 724413, Note_off_c, 0, 79, 65
1, 724419, Note_off_c, 0, 87, 71
1, 724431, Note_off_c, 0, 91, 66
1, 724489, Note_on_c, 0, 67, 73
1, 724491, Note_on_c, 0, 70, 77
1, 724499, Note_on_c, 0, 61, 58
1, 724509, Note_on_c, 0, 63, 53
1, 724514, Note_off_c, 0, 70, 66
1, 724526, Note_off_c, 0, 67, 64
1, 724530, Note_off_c, 0, 61, 64
1, 724532, Note_off_c, 0, 63, 61
1, 724586, Note_on_c, 0, 70, 72
1, 724590, Note_on_c, 0, 67, 60
1, 724592, Note_on_c, 0, 61, 72
1, 724593, Note_on_c, 0, 63, 68
1, 724608, Note_off_c, 0, 70, 72
1, 724618, Note_off_c, 0, 67, 64
1, 724624, Note_off_c, 0, 63, 65
1, 724626, Note_off_c, 0, 61, 64
1, 724658, Note_on_c, 0, 87, 80
1, 724659, Note_on_c, 0, 81, 79
1, 724659, Note_on_c, 0, 93, 82
1, 724679, Note_off_c, 0, 81, 72
1, 724687, Note_off_c, 0, 93, 65
1, 724697, Note_off_c, 0, 87, 61
1, 724750, Note_on_c, 0, 94, 101
1, 724756, Note_on_c, 0, 82, 87
1, 724767, Note_on_c, 0, 87, 63
1, 724780, Note_off_c, 0, 82, 66
1, 724784, Note_off_c, 0, 87, 65
1, 724795, Note_off_c, 0, 94, 63
1, 724837, Note_on_c, 0, 67, 75
1, 724845, Note_on_c, 0, 63, 68
1, 724848, Note_on_c, 0, 58, 68
1, 724848, Note_on_c, 0, 61, 62
1, 724867, Note_off_c, 0, 67, 66
1, 724873, Note_off_c, 0, 61, 68
1, 724874, Note_off_c, 0, 63, 64
1, 724881, Note_off_c, 0, 58, 65
1, 724946, Note_on_c, 0, 67, 74
1, 724947, Note_on_c, 0, 58, 72
1, 724956, Note_on_c, 0, 63, 62
1, 724957, Note_on_c, 0, 61, 63
1, 724968, Note_off_c, 0, 67, 66
1, 724985, Note_off_c, 0, 63, 67
1, 724989, Note_off_c, 0, 61, 65
1, 724997, Note_off_c, 0, 58, 60
1, 725008, Note_on_c, 0, 94, 86
1, 725016, Note_on_c, 0, 82, 75
1, 725018, Note_on_c, 0, 87, 69
1, 725036, Note_off_c, 0, 87, 66
1, 725036, Note_off_c, 0, 94, 64
1, 725039, Note_off_c, 0, 82, 70
1, 725096, Note_on_c, 0, 96, 97
1, 725103, Note_on_c, 0, 87, 75
1, 725104, Note_on_c, 0, 84, 82
1, 725136, Note_off_c, 0, 84, 67
1, 725140, Note_off_c, 0, 87, 64
1, 725143, Note_off_c, 0, 96, 67
1, 725200, Note_on_c, 0, 61, 69
1, 725200, Note_on_c, 0, 58, 66
1, 725202, Note_on_c, 0, 63, 66
1, 725230, Note_off_c, 0, 61, 66
1, 725234, Note_on_c, 0, 55, 35
1, 725236, Note_off_c, 0, 63, 63
1, 725238, Note_off_c, 0, 58, 64
1, 725282, Note_off_c, 0, 55, 0
1, 725294, Note_on_c, 0, 55, 56
1, 725299, Note_on_c, 0, 63, 69
1, 725300, Note_on_c, 0, 58, 75
1, 725304, Note_on_c, 0, 61, 70
1, 725329, Note_off_c, 0, 58, 65
1, 725330, Note_off_c, 0, 63, 62
1, 725331, Note_off_c, 0, 55, 64
1, 725333, Note_off_c, 0, 61, 67
1, 725375, Note_on_c, 0, 94, 91
1, 725376, Note_on_c, 0, 87, 86
1, 725379, Note_on_c, 0, 82, 79
1, 725394, Note_off_c, 0, 87, 71
1, 725395, Note_off_c, 0, 94, 67
1, 725400, Note_off_c, 0, 82, 71
1, 725430, Control_c, 0, 64, 87
1, 725444, Control_c, 0, 64, 71
1, 725457, Note_on_c, 0, 94, 105
1, 725459, Control_c, 0, 64, 71
1, 725462, Note_on_c, 0, 82, 88
1, 725468, Note_on_c, 0, 87, 82
1, 725474, Control_c, 0, 64, 82
1, 725488, Note_off_c, 0, 87, 69
1, 725489, Control_c, 0, 64, 127
1, 725510, Note_off_c, 0, 82, 64
1, 725513, Note_off_c, 0, 94, 63
1, 725549, Note_on_c, 0, 73, 79
1, 725560, Note_on_c, 0, 70, 62
1, 725561, Note_on_c, 0, 67, 62
1, 725566, Note_on_c, 0, 63, 49
1, 725577, Note_off_c, 0, 73, 64
1, 725588, Note_off_c, 0, 70, 66
1, 725588, Note_off_c, 0, 63, 62
1, 725591, Note_off_c, 0, 67, 65
1, 725650, Note_on_c, 0, 70, 75
1, 725652, Note_on_c, 0, 73, 75
1, 725653, Note_on_c, 0, 67, 67
1, 725656, Note_on_c, 0, 63, 68
1, 725674, Note_off_c, 0, 73, 69
1, 725677, Note_off_c, 0, 67, 69
1, 725680, Note_off_c, 0, 70, 67
1, 725690, Note_off_c, 0, 63, 63
1, 725714, Note_on_c, 0, 93, 92
1, 725716, Note_on_c, 0, 81, 89
1, 725743, Note_off_c, 0, 81, 66
1, 725753, Note_off_c, 0, 93, 66
1, 725808, Note_on_c, 0, 92, 102
1, 725811, Note_on_c, 0, 80, 93
1, 725841, Note_off_c, 0, 80, 62
1, 725841, Note_off_c, 0, 92, 68
1, 725893, Note_on_c, 0, 70, 75
1, 725899, Note_on_c, 0, 67, 65
1, 725907, Note_on_c, 0, 63, 50
1, 725909, Note_on_c, 0, 61, 50
1, 725921, Note_off_c, 0, 70, 68
1, 725924, Note_off_c, 0, 67, 69
1, 725927, Note_off_c, 0, 63, 63
1, 725934, Note_off_c, 0, 61, 62
1, 725984, Note_on_c, 0, 70, 82
1, 725990, Note_on_c, 0, 63, 68
1, 726000, Note_on_c, 0, 67, 66
1, 726014, Note_on_c, 0, 61, 60
1, 726014, Note_off_c, 0, 70, 64
1, 726023, Note_off_c, 0, 67, 64
1, 726031, Note_off_c, 0, 63, 59
1, 726044, Note_off_c, 0, 61, 64
1, 726070, Note_on_c, 0, 82, 91
1, 726071, Note_on_c, 0, 91, 88
1, 726074, Note_on_c, 0, 79, 84
1, 726092, Note_off_c, 0, 79, 73
1, 726093, Note_off_c, 0, 91, 70
1, 726106, Note_off_c, 0, 82, 67
1, 726169, Note_on_c, 0, 90, 91
1, 726177, Note_on_c, 0, 78, 85
1, 726183, Note_on_c, 0, 82, 81
1, 726225, Note_off_c, 0, 82, 42
1, 726243, Note_off_c, 0, 78, 57
1, 726244, Note_on_c, 0, 67, 60
1, 726252, Note_on_c, 0, 58, 60
1, 726252, Note_on_c, 0, 61, 57
1, 726258, Note_on_c, 0, 63, 50
1, 726273, Note_off_c, 0, 67, 68
1, 726276, Note_off_c, 0, 90, 59
1, 726279, Note_off_c, 0, 61, 63
1, 726285, Note_off_c, 0, 58, 63
1, 726287, Note_off_c, 0, 63, 57
1, 726339, Note_on_c, 0, 67, 73
1, 726342, Note_on_c, 0, 61, 67
1, 726350, Note_on_c, 0, 58, 66
1, 726370, Note_off_c, 0, 67, 63
1, 726378, Note_off_c, 0, 61, 61
1, 726380, Note_on_c, 0, 63, 48
1, 726382, Note_off_c, 0, 58, 63
1, 726400, Note_off_c, 0, 63, 61
1, 726415, Note_on_c, 0, 89, 88
1, 726416, Note_on_c, 0, 77, 82
1, 726421, Note_on_c, 0, 82, 79
1, 726435, Note_off_c, 0, 89, 68
1, 726437, Note_off_c, 0, 77, 70
1, 726443, Note_off_c, 0, 82, 71
1, 726503, Note_on_c, 0, 88, 94
1, 726506, Note_on_c, 0, 76, 87
1, 726529, Note_on_c, 0, 82, 49
1, 726544, Note_off_c, 0, 76, 62
1, 726549, Note_off_c, 0, 88, 65
1, 726550, Note_off_c, 0, 82, 59
1, 726560, Note_on_c, 0, 58, 67
1, 726565, Note_on_c, 0, 63, 42
1, 726591, Note_on_c, 0, 61, 35
1, 726598, Note_off_c, 0, 58, 60
1, 726600, Note_off_c, 0, 63, 63
1, 726623, Note_off_c, 0, 61, 56
1, 726632, Poly_aftertouch_c, 0, 55, 127
1, 726647, Note_on_c, 0, 55, 20
1, 726659, Note_on_c, 0, 58, 74
1, 726661, Note_on_c, 0, 63, 75
1, 726665, Note_on_c, 0, 61, 70
1, 726694, Note_off_c, 0, 58, 65
1, 726698, Note_off_c, 0, 55, 63
1, 726699, Note_off_c, 0, 61, 64
1, 726700, Note_off_c, 0, 63, 61
1, 726738, Note_on_c, 0, 87, 90
1, 726741, Note_on_c, 0, 75, 81
1, 726762, Note_off_c, 0, 75, 70
1, 726777, Note_off_c, 0, 87, 63
1, 726823, Control_c, 0, 64, 71
1, 726832, Note_on_c, 0, 93, 102
1, 726833, Note_on_c, 0, 81, 88
1, 726837, Control_c, 0, 64, 56
1, 726852, Control_c, 0, 64, 52
1, 726867, Control_c, 0, 64, 56
1, 726874, Note_off_c, 0, 81, 65
1, 726882, Control_c, 0, 64, 64
1, 726893, Note_off_c, 0, 93, 64
1, 726897, Control_c, 0, 64, 76
1, 726912, Control_c, 0, 64, 127
1, 726918, Note_on_c, 0, 75, 82
1, 726921, Note_on_c, 0, 72, 73
1, 726929, Note_on_c, 0, 67, 56
1, 726935, Note_on_c, 0, 69, 55
1, 726952, Note_off_c, 0, 72, 65
1, 726956, Note_off_c, 0, 67, 53
1, 726961, Note_off_c, 0, 75, 59
1, 726962, Note_off_c, 0, 69, 64
1, 726987, Control_c, 0, 67, 112
1, 727002, Control_c, 0, 67, 103
1, 727004, Note_on_c, 0, 75, 74
1, 727012, Note_on_c, 0, 72, 71
1, 727016, Note_on_c, 0, 67, 68
1, 727016, Control_c, 0, 67, 99
1, 727031, Control_c, 0, 67, 96
1, 727042, Note_off_c, 0, 72, 67
1, 727044, Note_off_c, 0, 75, 60
1, 727046, Control_c, 0, 67, 90
1, 727048, Note_on_c, 0, 69, 43
1, 727055, Note_off_c, 0, 67, 64
1, 727061, Control_c, 0, 67, 82
1, 727073, Note_off_c, 0, 69, 56
1, 727075, Control_c, 0, 67, 76
1, 727090, Control_c, 0, 67, 71
1, 727096, Note_on_c, 0, 94, 96
1, 727098, Note_on_c, 0, 82, 85
1, 727105, Control_c, 0, 67, 69
1, 727120, Control_c, 0, 67, 69
1, 727135, Note_off_c, 0, 82, 63
1, 727141, Note_off_c, 0, 94, 64
1, 727188, Note_on_c, 0, 96, 103
1, 727190, Note_on_c, 0, 84, 91
1, 727209, Control_c, 0, 67, 69
1, 727224, Note_off_c, 0, 84, 68
1, 727232, Note_off_c, 0, 96, 68
1, 727239, Control_c, 0, 67, 70
1, 727254, Control_c, 0, 67, 71
1, 727289, Note_on_c, 0, 72, 73
1, 727297, Note_on_c, 0, 67, 64
1, 727303, Note_on_c, 0, 63, 50
1, 727312, Note_on_c, 0, 69, 49
1, 727314, Note_off_c, 0, 72, 67
1, 727323, Note_off_c, 0, 67, 67
1, 727328, Note_off_c, 0, 63, 57
1, 727332, Note_off_c, 0, 69, 59
1, 727376, Note_on_c, 0, 72, 85
1, 727390, Note_on_c, 0, 67, 68
1, 727391, Note_on_c, 0, 63, 74
1, 727394, Control_c, 0, 67, 70
1, 727409, Control_c, 0, 67, 69
1, 727410, Note_on_c, 0, 69, 57
1, 727421, Note_off_c, 0, 67, 65
1, 727421, Note_off_c, 0, 72, 63
1, 727431, Note_off_c, 0, 69, 62
1, 727445, Note_off_c, 0, 63, 61
1, 727470, Note_on_c, 0, 98, 97
1, 727475, Note_on_c, 0, 86, 90
1, 727497, Note_off_c, 0, 86, 67
1, 727504, Note_off_c, 0, 98, 69
1, 727563, Note_on_c, 0, 87, 100
1, 727563, Note_on_c, 0, 99, 102
1, 727587, Control_c, 0, 67, 69
1, 727593, Note_on_c, 0, 86, 58
1, 727594, Note_off_c, 0, 86, 127
1, 727594, Note_off_c, 0, 99, 67
1, 727600, Note_off_c, 0, 87, 64
1, 727601, Control_c, 0, 67, 68
1, 727616, Control_c, 0, 67, 67
1, 727631, Control_c, 0, 67, 66
1, 727645, Note_on_c, 0, 69, 82
1, 727647, Note_on_c, 0, 67, 77
1, 727652, Note_on_c, 0, 60, 66
1, 727658, Note_on_c, 0, 63, 65
1, 727673, Note_off_c, 0, 67, 68
1, 727680, Note_off_c, 0, 69, 59
1, 727682, Note_off_c, 0, 60, 66
1, 727686, Note_off_c, 0, 63, 65
1, 727721, Control_c, 0, 67, 66
1, 727736, Control_c, 0, 67, 65
1, 727742, Note_on_c, 0, 69, 71
1, 727748, Note_on_c, 0, 63, 83
1, 727751, Control_c, 0, 67, 64
1, 727755, Note_on_c, 0, 67, 58
1, 727759, Note_on_c, 0, 60, 68
1, 727765, Note_off_c, 0, 69, 69
1, 727777, Note_off_c, 0, 67, 59
1, 727780, Control_c, 0, 67, 64
1, 727782, Note_off_c, 0, 60, 70
1, 727782, Poly_aftertouch_c, 0, 87, 0
1, 727787, Note_off_c, 0, 63, 62
1, 727796, Note_on_c, 0, 87, 66
1, 727799, Note_on_c, 0, 99, 101
1, 727808, Note_on_c, 0, 93, 74
1, 727820, Note_off_c, 0, 87, 66
1, 727824, Control_c, 0, 67, 62
1, 727831, Note_off_c, 0, 93, 71
1, 727838, Note_on_c, 0, 88, 41
1, 727838, Note_off_c, 0, 99, 66
1, 727839, Control_c, 0, 67, 59
1, 727854, Control_c, 0, 67, 56
1, 727860, Note_off_c, 0, 88, 59
1, 727869, Control_c, 0, 67, 54
1, 727884, Control_c, 0, 67, 53
1, 727889, Note_on_c, 0, 101, 101
1, 727895, Note_on_c, 0, 89, 91
1, 727896, Note_on_c, 0, 93, 79
1, 727915, Note_off_c, 0, 93, 63
1, 727928, Control_c, 0, 67, 54
1, 727933, Note_off_c, 0, 89, 64
1, 727935, Note_off_c, 0, 101, 66
1, 727972, Control_c, 0, 67, 53
1, 727981, Note_on_c, 0, 63, 42
1, 728007, Note_off_c, 0, 63, 54
1, 728032, Poly_aftertouch_c, 0, 55, 127
1, 728034, Note_on_c, 0, 55, 26
1, 728038, Note_on_c, 0, 60, 58
1, 728051, Note_on_c, 0, 57, 62
1, 728052, Note_on_c, 0, 63, 80
1, 728083, Note_off_c, 0, 63, 64
1, 728086, Note_off_c, 0, 57, 67
1, 728089, Note_off_c, 0, 55, 63
1, 728090, Note_off_c, 0, 60, 65
1, 728150, Note_on_c, 0, 93, 89
1, 728151, Note_on_c, 0, 87, 91
1, 728154, Note_on_c, 0, 99, 86
1, 728156, Poly_aftertouch_c, 0, 58, 0
1, 728173, Note_off_c, 0, 99, 70
1, 728173, Control_c, 0, 67, 54
1, 728178, Note_off_c, 0, 87, 63
1, 728188, Note_off_c, 0, 93, 66
1, 728188, Control_c, 0, 64, 107
1, 728203, Control_c, 0, 64, 74
1, 728217, Control_c, 0, 64, 67
1, 728232, Control_c, 0, 64, 73
1, 728234, Note_on_c, 0, 99, 106
1, 728237, Note_on_c, 0, 87, 96
1, 728247, Note_on_c, 0, 93, 71
1, 728247, Control_c, 0, 64, 104
1, 728262, Control_c, 0, 64, 127
1, 728273, Note_off_c, 0, 93, 70
1, 728295, Note_off_c, 0, 87, 61
1, 728305, Note_off_c, 0, 99, 63
1, 728321, Note_on_c, 0, 72, 74
1, 728322, Note_on_c, 0, 75, 83
1, 728329, Note_on_c, 0, 67, 63
1, 728339, Note_on_c, 0, 69, 58
1, 728360, Note_off_c, 0, 67, 63
1, 728363, Note_off_c, 0, 75, 56
1, 728369, Note_off_c, 0, 72, 62
1, 728370, Note_off_c, 0, 69, 64
1, 728398, Note_on_c, 0, 87, 29
1, 728408, Note_on_c, 0, 75, 76
1, 728415, Note_on_c, 0, 72, 63
1, 728424, Note_on_c, 0, 67, 74
1, 728432, Note_off_c, 0, 87, 44
1, 728452, Note_off_c, 0, 72, 65
1, 728458, Note_off_c, 0, 75, 63
1, 728463, Note_on_c, 0, 69, 37
1, 728473, Note_off_c, 0, 67, 62
1, 728494, Note_on_c, 0, 98, 94
1, 728497, Note_off_c, 0, 69, 50
1, 728500, Note_on_c, 0, 86, 85
1, 728515, Control_c, 0, 67, 54
1, 728522, Note_off_c, 0, 86, 69
1, 728533, Note_off_c, 0, 98, 64
1, 728584, Note_on_c, 0, 97, 98
1, 728585, Note_on_c, 0, 85, 99
1, 728622, Note_off_c, 0, 85, 67
1, 728628, Note_off_c, 0, 97, 65
1, 728667, Note_on_c, 0, 72, 81
1, 728677, Note_on_c, 0, 67, 74
1, 728684, Note_on_c, 0, 63, 62
1, 728688, Note_on_c, 0, 69, 65
1, 728697, Note_off_c, 0, 72, 63
1, 728706, Note_off_c, 0, 67, 66
1, 728712, Note_off_c, 0, 69, 65
1, 728715, Note_off_c, 0, 63, 65
1, 728770, Note_on_c, 0, 69, 71
1, 728771, Note_on_c, 0, 72, 82
1, 728775, Note_on_c, 0, 63, 73
1, 728778, Note_on_c, 0, 67, 70
1, 728800, Note_off_c, 0, 72, 61
1, 728807, Note_off_c, 0, 67, 66
1, 728807, Note_off_c, 0, 69, 63
1, 728826, Control_c, 0, 67, 55
1, 728831, Note_off_c, 0, 63, 62
1, 728840, Note_on_c, 0, 96, 92
1, 728840, Control_c, 0, 67, 56
1, 728849, Note_on_c, 0, 84, 78
1, 728852, Note_on_c, 0, 87, 71
1, 728872, Note_off_c, 0, 96, 66
1, 728876, Note_off_c, 0, 87, 68
1, 728878, Note_off_c, 0, 84, 71
1, 728933, Note_on_c, 0, 95, 97
1, 728937, Control_c, 0, 67, 55
1, 728938, Note_on_c, 0, 83, 93
1, 728971, Note_off_c, 0, 83, 68
1, 728977, Note_off_c, 0, 95, 67
1, 729025, Note_on_c, 0, 67, 79
1, 729025, Note_on_c, 0, 69, 85
1, 729026, Control_c, 0, 67, 54
1, 729034, Note_on_c, 0, 60, 70
1, 729036, Note_on_c, 0, 63, 69
1, 729040, Control_c, 0, 67, 53
1, 729050, Note_off_c, 0, 69, 61
1, 729059, Note_off_c, 0, 67, 62
1, 729062, Note_off_c, 0, 63, 68
1, 729066, Note_off_c, 0, 60, 66
1, 729114, Control_c, 0, 67, 52
1, 729129, Note_on_c, 0, 63, 70
1, 729129, Note_on_c, 0, 69, 80
1, 729136, Note_on_c, 0, 67, 66
1, 729144, Control_c, 0, 67, 52
1, 729148, Note_on_c, 0, 60, 66
1, 729157, Note_off_c, 0, 69, 62
1, 729162, Note_on_c, 0, 94, 95
1, 729165, Note_off_c, 0, 67, 66
1, 729165, Note_on_c, 0, 82, 78
1, 729174, Note_off_c, 0, 60, 68
1, 729183, Note_off_c, 0, 63, 63
1, 729185, Note_off_c, 0, 94, 66
1, 729186, Note_off_c, 0, 82, 71
1, 729240, Note_on_c, 0, 81, 95
1, 729242, Note_on_c, 0, 93, 97
1, 729248, Control_c, 0, 67, 52
1, 729263, Control_c, 0, 67, 53
1, 729275, Note_off_c, 0, 93, 68
1, 729278, Note_off_c, 0, 81, 68
1, 729320, Note_on_c, 0, 61, 74
1, 729329, Note_on_c, 0, 58, 57
1, 729347, Note_off_c, 0, 61, 66
1, 729353, Note_off_c, 0, 58, 63
1, 729382, Control_c, 0, 67, 52
1, 729397, Control_c, 0, 67, 52
1, 729399, Note_on_c, 0, 63, 22
1, 729401, Note_on_c, 0, 55, 70
1, 729405, Note_on_c, 0, 60, 82
1, 729412, Control_c, 0, 67, 51
1, 729414, Note_on_c, 0, 57, 66
1, 729439, Note_on_c, 0, 58, 37
1, 729445, Note_off_c, 0, 57, 66
1, 729446, Note_off_c, 0, 55, 61
1, 729446, Note_off_c, 0, 60, 66
1, 729455, Note_off_c, 0, 63, 62
1, 729457, Control_c, 0, 67, 51
1, 729465, Note_off_c, 0, 58, 56
1, 729491, Note_on_c, 0, 87, 88
1, 729493, Note_on_c, 0, 75, 81
1, 729513, Note_off_c, 0, 75, 70
1, 729519, Note_off_c, 0, 87, 64
1, 729575, Control_c, 0, 64, 75
1, 729575, Control_c, 0, 67, 52
1, 729582, Note_on_c, 0, 93, 103
1, 729586, Note_on_c, 0, 81, 86
1, 729589, Control_c, 0, 64, 63
1, 729589, Control_c, 0, 67, 52
1, 729612, Control_c, 0, 64, 63
1, 729612, Control_c, 0, 67, 53
1, 729627, Control_c, 0, 64, 66
1, 729634, Note_off_c, 0, 81, 65
1, 729642, Control_c, 0, 64, 78
1, 729656, Control_c, 0, 64, 127
1, 729659, Note_off_c, 0, 93, 65
1, 729671, Note_on_c, 0, 75, 85
1, 729675, Note_on_c, 0, 67, 67
1, 729676, Note_on_c, 0, 72, 76
1, 729691, Note_on_c, 0, 69, 54
1, 729713, Note_off_c, 0, 67, 52
1, 729713, Note_off_c, 0, 69, 61
1, 729719, Note_off_c, 0, 72, 62
1, 729720, Note_off_c, 0, 75, 61
1, 729731, Control_c, 0, 67, 52
1, 729745, Control_c, 0, 67, 52
1, 729758, Note_on_c, 0, 75, 75
1, 729760, Control_c, 0, 67, 51
1, 729765, Note_on_c, 0, 72, 67
1, 729782, Poly_aftertouch_c, 0, 67, 127
1, 729789, Control_c, 0, 67, 51
1, 729798, Note_on_c, 0, 69, 43
1, 729801, Note_off_c, 0, 72, 63
1, 729809, Note_off_c, 0, 75, 63
1, 729816, Poly_aftertouch_c, 0, 67, 0
1, 729819, Control_c, 0, 67, 50
1, 729827, Note_off_c, 0, 69, 53
1, 729829, Note_on_c, 0, 94, 96
1, 729832, Note_on_c, 0, 82, 85
1, 729849, Control_c, 0, 67, 49
1, 729856, Note_off_c, 0, 82, 67
1, 729863, Control_c, 0, 67, 49
1, 729874, Note_off_c, 0, 94, 64
1, 729878, Control_c, 0, 67, 47
1, 729921, Note_on_c, 0, 96, 100
1, 729923, Note_on_c, 0, 84, 95
1, 729958, Note_off_c, 0, 84, 67
1, 729976, Note_off_c, 0, 96, 63
1, 730016, Note_on_c, 0, 72, 83
1, 730022, Note_on_c, 0, 67, 75
1, 730025, Note_on_c, 0, 63, 70
1, 730030, Note_on_c, 0, 69, 70
1, 730045, Note_off_c, 0, 72, 62
1, 730054, Note_off_c, 0, 67, 65
1, 730055, Note_off_c, 0, 63, 64
1, 730056, Note_off_c, 0, 69, 67
1, 730117, Note_on_c, 0, 72, 87
1, 730121, Note_on_c, 0, 69, 69
1, 730122, Note_on_c, 0, 63, 80
1, 730128, Note_on_c, 0, 67, 72
1, 730149, Note_off_c, 0, 67, 68
1, 730151, Note_off_c, 0, 72, 59
1, 730154, Note_off_c, 0, 69, 63
1, 730173, Note_off_c, 0, 63, 62
1, 730180, Note_on_c, 0, 98, 95
1, 730184, Note_on_c, 0, 86, 88
1, 730203, Note_off_c, 0, 86, 72
1, 730213, Note_off_c, 0, 98, 65
1, 730265, Control_c, 0, 67, 47
1, 730266, Note_on_c, 0, 99, 106
1, 730268, Note_on_c, 0, 87, 106
1, 730279, Control_c, 0, 67, 46
1, 730294, Control_c, 0, 67, 46
1, 730300, Note_off_c, 0, 87, 66
1, 730303, Note_off_c, 0, 99, 68
1, 730309, Control_c, 0, 67, 45
1, 730324, Control_c, 0, 67, 44
1, 730339, Control_c, 0, 67, 44
1, 730360, Control_c, 0, 67, 42
1, 730366, Note_on_c, 0, 69, 88
1, 730369, Note_on_c, 0, 67, 81
1, 730372, Note_on_c, 0, 60, 77
1, 730375, Control_c, 0, 67, 41
1, 730377, Note_on_c, 0, 63, 72
1, 730390, Control_c, 0, 67, 37
1, 730401, Note_off_c, 0, 69, 61
1, 730404, Note_off_c, 0, 60, 65
1, 730404, Note_off_c, 0, 67, 63
1, 730405, Control_c, 0, 67, 32
1, 730408, Note_off_c, 0, 63, 64
1, 730420, Control_c, 0, 67, 29
1, 730434, Control_c, 0, 67, 27
1, 730449, Control_c, 0, 67, 26
1, 730464, Note_on_c, 0, 69, 85
1, 730464, Note_on_c, 0, 63, 81
1, 730464, Control_c, 0, 67, 24
1, 730471, Note_on_c, 0, 67, 71
1, 730479, Control_c, 0, 67, 23
1, 730486, Note_on_c, 0, 60, 67
1, 730487, Note_on_c, 0, 59, 57
1, 730491, Note_off_c, 0, 67, 71
1, 730494, Control_c, 0, 67, 22
1, 730495, Note_off_c, 0, 69, 61
1, 730510, Note_off_c, 0, 60, 71
1, 730514, Note_off_c, 0, 63, 63
1, 730516, Note_off_c, 0, 59, 65
1, 730521, Note_on_c, 0, 99, 87
1, 730522, Note_on_c, 0, 87, 83
1, 730535, Note_on_c, 0, 93, 62
1, 730539, Control_c, 0, 67, 22
1, 730553, Note_off_c, 0, 99, 64
1, 730560, Note_off_c, 0, 87, 63
1, 730562, Note_off_c, 0, 93, 68
1, 730568, Control_c, 0, 67, 21
1, 730598, Control_c, 0, 67, 20
1, 730602, Note_on_c, 0, 101, 105
1, 730607, Note_on_c, 0, 89, 95
1, 730619, Note_on_c, 0, 93, 65
1, 730634, Note_off_c, 0, 93, 67
1, 730652, Note_on_c, 0, 58, 62
1, 730655, Note_off_c, 0, 101, 65
1, 730657, Note_off_c, 0, 89, 60
1, 730657, Control_c, 0, 67, 21
1, 730675, Note_on_c, 0, 60, 69
1, 730686, Note_off_c, 0, 58, 60
1, 730703, Note_off_c, 0, 60, 63
1, 730733, Note_on_c, 0, 55, 64
1, 730742, Note_on_c, 0, 60, 76
1, 730746, Note_on_c, 0, 63, 75
1, 730759, Note_on_c, 0, 57, 68
1, 730766, Note_on_c, 0, 58, 63
1, 730788, Note_off_c, 0, 58, 63
1, 730790, Note_off_c, 0, 63, 62
1, 730792, Note_off_c, 0, 60, 66
1, 730794, Note_off_c, 0, 55, 63
1, 730794, Note_off_c, 0, 57, 65
1, 730805, Control_c, 0, 67, 20
1, 730819, Control_c, 0, 67, 19
1, 730837, Note_on_c, 0, 87, 94
1, 730837, Note_on_c, 0, 93, 90
1, 730840, Note_on_c, 0, 99, 99
1, 730864, Note_off_c, 0, 99, 67
1, 730873, Note_off_c, 0, 93, 66
1, 730873, Note_off_c, 0, 87, 64
1, 730879, Control_c, 0, 64, 81
1, 730894, Control_c, 0, 64, 73
1, 730909, Control_c, 0, 64, 77
1, 730924, Control_c, 0, 64, 105
1, 730927, Note_on_c, 0, 87, 101
1, 730927, Note_on_c, 0, 99, 111
1, 730936, Note_on_c, 0, 93, 79
1, 730939, Control_c, 0, 64, 127
1, 730956, Note_off_c, 0, 93, 71
1, 730986, Note_off_c, 0, 99, 65
1, 730987, Note_off_c, 0, 87, 61
1, 731007, Note_on_c, 0, 72, 76
1, 731010, Note_on_c, 0, 67, 71
1, 731012, Note_on_c, 0, 75, 84
1, 731013, Control_c, 0, 67, 19
1, 731031, Note_on_c, 0, 69, 52
1, 731060, Note_off_c, 0, 69, 58
1, 731064, Note_off_c, 0, 75, 60
1, 731066, Note_off_c, 0, 72, 62
1, 731100, Note_on_c, 0, 75, 73
1, 731109, Control_c, 0, 67, 18
1, 731120, Note_on_c, 0, 72, 61
1, 731157, Note_off_c, 0, 72, 66
1, 731158, Note_on_c, 0, 98, 102
1, 731161, Note_off_c, 0, 75, 63
1, 731162, Note_on_c, 0, 86, 91
1, 731173, Note_off_c, 0, 67, 64
1, 731178, Note_on_c, 0, 69, 12
1, 731183, Control_c, 0, 67, 17
1, 731186, Note_off_c, 0, 86, 66
1, 731195, Note_off_c, 0, 98, 68
1, 731223, Note_off_c, 0, 69, 39
1, 731247, Note_on_c, 0, 97, 101
1, 731250, Note_on_c, 0, 85, 101
1, 731287, Note_off_c, 0, 85, 67
1, 731287, Control_c, 0, 67, 17
1, 731296, Note_off_c, 0, 97, 65
1, 731338, Note_on_c, 0, 72, 63
1, 731356, Note_on_c, 0, 69, 72
1, 731357, Note_on_c, 0, 67, 76
1, 731361, Note_on_c, 0, 63, 70
1, 731382, Note_off_c, 0, 69, 67
1, 731386, Note_off_c, 0, 72, 65
1, 731388, Note_off_c, 0, 67, 65
1, 731389, Note_off_c, 0, 63, 66
1, 731444, Note_on_c, 0, 72, 83
1, 731454, Note_on_c, 0, 63, 80
1, 731456, Note_on_c, 0, 67, 73
1, 731460, Note_on_c, 0, 69, 68
1, 731485, Note_off_c, 0, 69, 67
1, 731487, Note_off_c, 0, 67, 62
1, 731494, Note_off_c, 0, 72, 64
1, 731508, Note_off_c, 0, 63, 62
1, 731511, Note_on_c, 0, 96, 86
1, 731512, Note_on_c, 0, 84, 84
1, 731514, Note_on_c, 0, 87, 70
1, 731524, Control_c, 0, 67, 17
1, 731531, Note_off_c, 0, 87, 67
1, 731531, Note_off_c, 0, 96, 71
1, 731532, Note_off_c, 0, 84, 72
1, 731584, Control_c, 0, 67, 17
1, 731586, Note_on_c, 0, 95, 102
1, 731591, Note_on_c, 0, 83, 95
1, 731626, Note_off_c, 0, 83, 67
1, 731630, Note_off_c, 0, 95, 67
1, 731672, Control_c, 0, 67, 16
1, 731675, Note_on_c, 0, 67, 82
1, 731675, Note_on_c, 0, 69, 86
1, 731681, Note_on_c, 0, 60, 74
1, 731686, Note_on_c, 0, 63, 72
1, 731687, Control_c, 0, 67, 16
1, 731702, Control_c, 0, 67, 15
1, 731707, Note_off_c, 0, 69, 61
1, 731711, Note_off_c, 0, 67, 62
1, 731714, Note_off_c, 0, 63, 66
1, 731716, Note_off_c, 0, 60, 64
1, 731718, Control_c, 0, 67, 14
1, 731747, Control_c, 0, 67, 14
1, 731774, Note_on_c, 0, 69, 84
1, 731778, Note_on_c, 0, 67, 72
1, 731782, Note_on_c, 0, 63, 77
1, 731782, Note_on_c, 0, 60, 78
1, 731792, Control_c, 0, 67, 13
1, 731803, Note_off_c, 0, 67, 66
1, 731806, Control_c, 0, 67, 12
1, 731807, Note_on_c, 0, 94, 92
1, 731809, Note_off_c, 0, 69, 60
1, 731810, Note_on_c, 0, 82, 83
1, 731821, Control_c, 0, 67, 11
1, 731822, Note_off_c, 0, 60, 65
1, 731827, Note_off_c, 0, 63, 63
1, 731830, Note_off_c, 0, 82, 72
1, 731836, Control_c, 0, 67, 10
1, 731843, Note_off_c, 0, 94, 62
1, 731851, Control_c, 0, 67, 9
1, 731873, Control_c, 0, 67, 0
1, 731890, Note_on_c, 0, 81, 99
1, 731894, Note_on_c, 0, 93, 88
1, 731908, Note_on_c, 0, 91, 79
1, 731915, Note_off_c, 0, 93, 69
1, 731922, Note_off_c, 0, 91, 66
1, 731925, Note_off_c, 0, 81, 69
1, 731980, Note_on_c, 0, 60, 81
1, 731987, Note_on_c, 0, 55, 50
1, 731999, Note_on_c, 0, 63, 60
1, 732017, Note_off_c, 0, 63, 65
1, 732020, Note_on_c, 0, 57, 17
1, 732044, Note_on_c, 0, 63, 85
1, 732061, Note_on_c, 0, 58, 36
1, 732075, Note_off_c, 0, 60, 67
1, 732083, Note_off_c, 0, 63, 63
1, 732091, Note_off_c, 0, 58, 55
1, 732098, Note_off_c, 0, 57, 61
1, 732102, Note_off_c, 0, 55, 64
1, 732131, Note_on_c, 0, 75, 95
1, 732133, Note_on_c, 0, 63, 87
1, 732161, Note_off_c, 0, 63, 62
1, 732166, Note_off_c, 0, 75, 60
1, 732199, Control_c, 0, 64, 71
1, 732213, Control_c, 0, 64, 0
1, 732215, Note_on_c, 0, 74, 100
1, 732219, Note_on_c, 0, 62, 98
1, 732280, Note_off_c, 0, 62, 58
1, 732287, Control_c, 0, 64, 58
1, 732301, Note_on_c, 0, 50, 89
1, 732302, Control_c, 0, 64, 74
1, 732309, Note_on_c, 0, 38, 71
1, 732317, Control_c, 0, 64, 106
1, 732321, Note_on_c, 0, 44, 74
1, 732331, Control_c, 0, 64, 127
1, 732338, Note_off_c, 0, 50, 64
1, 732341, Note_off_c, 0, 38, 65
1, 732359, Note_off_c, 0, 74, 62
1, 732363, Note_off_c, 0, 44, 59
1, 732391, Note_on_c, 0, 51, 104
1, 732393, Note_on_c, 0, 39, 80
1, 732411, Note_on_c, 0, 49, 62
1, 732429, Note_off_c, 0, 51, 67
1, 732437, Note_off_c, 0, 49, 61
1, 732438, Note_off_c, 0, 39, 63
1, 732455, Note_on_c, 0, 63, 93
1, 732455, Note_on_c, 0, 75, 98
1, 732471, Note_off_c, 0, 75, 72
1, 732474, Note_off_c, 0, 63, 71
1, 732535, Note_on_c, 0, 78, 108
1, 732539, Note_on_c, 0, 66, 94
1, 732584, Note_off_c, 0, 78, 65
1, 732592, Note_off_c, 0, 66, 59
1, 732654, Note_on_c, 0, 54, 71
1, 732666, Note_on_c, 0, 42, 46
1, 732683, Note_off_c, 0, 54, 66
1, 732697, Note_off_c, 0, 42, 54
1, 732712, Note_on_c, 0, 55, 85
1, 732715, Note_on_c, 0, 43, 82
1, 732751, Poly_aftertouch_c, 0, 44, 0
1, 732759, Note_off_c, 0, 55, 64
1, 732760, Note_off_c, 0, 43, 61
1, 732786, Note_on_c, 0, 67, 95
1, 732788, Note_on_c, 0, 79, 93
1, 732807, Note_off_c, 0, 67, 69
1, 732807, Note_off_c, 0, 79, 72
1, 732814, Control_c, 0, 64, 109
1, 732829, Control_c, 0, 64, 48
1, 732843, Control_c, 0, 64, 0
1, 732864, Note_on_c, 0, 81, 103
1, 732866, Note_on_c, 0, 69, 99
1, 732888, Control_c, 0, 64, 15
1, 732903, Control_c, 0, 64, 62
1, 732917, Control_c, 0, 64, 68
1, 732924, Note_off_c, 0, 69, 60
1, 732932, Control_c, 0, 64, 75
1, 732933, Note_off_c, 0, 81, 62
1, 732941, Note_on_c, 0, 57, 93
1, 732944, Note_on_c, 0, 45, 80
1, 732947, Control_c, 0, 64, 89
1, 732961, Control_c, 0, 64, 117
1, 732975, Note_off_c, 0, 45, 67
1, 732976, Control_c, 0, 64, 127
1, 732983, Note_off_c, 0, 57, 63
1, 732991, Control_c, 0, 64, 117
1, 733005, Control_c, 0, 64, 111
1, 733020, Control_c, 0, 64, 127
1, 733043, Note_on_c, 0, 57, 93
1, 733049, Note_on_c, 0, 45, 87
1, 733079, Control_c, 0, 64, 119
1, 733081, Note_on_c, 0, 81, 95
1, 733082, Note_on_c, 0, 69, 96
1, 733090, Note_off_c, 0, 57, 65
1, 733092, Note_off_c, 0, 45, 57
1, 733094, Control_c, 0, 64, 115
1, 733107, Note_off_c, 0, 69, 67
1, 733109, Control_c, 0, 64, 116
1, 733113, Note_off_c, 0, 81, 67
1, 733124, Control_c, 0, 64, 113
1, 733139, Control_c, 0, 64, 107
1, 733153, Control_c, 0, 64, 105
1, 733165, Note_on_c, 0, 70, 103
1, 733165, Note_on_c, 0, 82, 98
1, 733168, Control_c, 0, 64, 109
1, 733183, Control_c, 0, 64, 119
1, 733196, Note_off_c, 0, 82, 66
1, 733198, Control_c, 0, 64, 127
1, 733204, Note_off_c, 0, 70, 64
1, 733244, Note_on_c, 0, 58, 89
1, 733250, Note_on_c, 0, 46, 85
1, 733284, Note_off_c, 0, 58, 62
1, 733290, Note_off_c, 0, 46, 59
1, 733343, Note_on_c, 0, 57, 88
1, 733346, Note_on_c, 0, 45, 86
1, 733384, Control_c, 0, 64, 102
1, 733395, Note_off_c, 0, 45, 62
1, 733395, Note_off_c, 0, 57, 65
1, 733399, Control_c, 0, 64, 63
1, 733403, Note_on_c, 0, 81, 91
1, 733404, Note_on_c, 0, 69, 90
1, 733414, Control_c, 0, 64, 0
1, 733422, Note_off_c, 0, 69, 74
1, 733426, Note_off_c, 0, 81, 70
1, 733458, Control_c, 0, 64, 37
1, 733473, Control_c, 0, 64, 57
1, 733480, Note_on_c, 0, 68, 102
1, 733481, Note_on_c, 0, 80, 96
1, 733488, Control_c, 0, 64, 61
1, 733503, Control_c, 0, 64, 66
1, 733516, Note_off_c, 0, 68, 67
1, 733517, Control_c, 0, 64, 73
1, 733527, Note_off_c, 0, 80, 66
1, 733532, Control_c, 0, 64, 83
1, 733547, Control_c, 0, 64, 88
1, 733562, Note_on_c, 0, 56, 90
1, 733562, Control_c, 0, 64, 86
1, 733566, Note_on_c, 0, 44, 85
1, 733577, Control_c, 0, 64, 83
1, 733591, Control_c, 0, 64, 82
1, 733607, Note_off_c, 0, 56, 63
1, 733616, Note_off_c, 0, 44, 60
1, 733651, Control_c, 0, 64, 82
1, 733656, Note_on_c, 0, 55, 88
1, 733666, Note_on_c, 0, 43, 80
1, 733681, Control_c, 0, 64, 81
1, 733699, Note_off_c, 0, 43, 67
1, 733703, Note_off_c, 0, 55, 62
1, 733710, Control_c, 0, 64, 81
1, 733712, Note_on_c, 0, 67, 92
1, 733713, Note_on_c, 0, 79, 89
1, 733725, Control_c, 0, 64, 80
1, 733730, Note_off_c, 0, 67, 73
1, 733732, Note_off_c, 0, 79, 73
1, 733784, Control_c, 0, 64, 81
1, 733787, Note_on_c, 0, 78, 103
1, 733789, Note_on_c, 0, 66, 101
1, 733799, Control_c, 0, 64, 82
1, 733814, Control_c, 0, 64, 83
1, 733827, Note_off_c, 0, 66, 64
1, 733831, Note_off_c, 0, 78, 67
1, 733843, Control_c, 0, 64, 82
1, 733858, Control_c, 0, 64, 81
1, 733873, Control_c, 0, 64, 82
1, 733875, Note_on_c, 0, 54, 87
1, 733880, Note_on_c, 0, 42, 84
1, 733888, Control_c, 0, 64, 86
1, 733902, Control_c, 0, 64, 106
1, 733913, Note_off_c, 0, 54, 61
1, 733917, Note_off_c, 0, 42, 64
1, 733917, Control_c, 0, 64, 127
1, 733968, Note_on_c, 0, 53, 91
1, 733973, Note_on_c, 0, 41, 79
1, 734017, Note_off_c, 0, 53, 64
1, 734021, Control_c, 0, 64, 71
1, 734026, Note_on_c, 0, 43, 14
1, 734027, Note_off_c, 0, 43, 127
1, 734027, Note_on_c, 0, 65, 92
1, 734029, Note_off_c, 0, 41, 64
1, 734031, Note_on_c, 0, 77, 90
1, 734035, Control_c, 0, 64, 47
1, 734047, Note_off_c, 0, 65, 68
1, 734050, Control_c, 0, 64, 0
1, 734051, Note_off_c, 0, 77, 71
1, 734080, Control_c, 0, 64, 45
1, 734104, Control_c, 0, 64, 63
1, 734106, Note_on_c, 0, 76, 101
1, 734109, Note_on_c, 0, 64, 102
1, 734119, Control_c, 0, 64, 70
1, 734133, Control_c, 0, 64, 90
1, 734147, Note_on_c, 0, 75, 39
1, 734148, Control_c, 0, 64, 127
1, 734156, Note_off_c, 0, 64, 65
1, 734161, Note_off_c, 0, 76, 64
1, 734173, Note_off_c, 0, 75, 55
1, 734190, Note_on_c, 0, 52, 86
1, 734195, Note_on_c, 0, 40, 77
1, 734222, Note_off_c, 0, 40, 66
1, 734224, Note_off_c, 0, 52, 65
1, 734285, Note_on_c, 0, 51, 102
1, 734286, Note_on_c, 0, 39, 85
1, 734320, Note_off_c, 0, 51, 66
1, 734322, Note_off_c, 0, 39, 64
1, 734345, Note_on_c, 0, 75, 88
1, 734347, Note_on_c, 0, 63, 89
1, 734368, Note_off_c, 0, 75, 67
1, 734369, Note_off_c, 0, 63, 70
1, 734430, Note_on_c, 0, 78, 103
1, 734433, Note_on_c, 0, 66, 93
1, 734482, Note_off_c, 0, 66, 61
1, 734495, Note_off_c, 0, 78, 61
1, 734502, Note_on_c, 0, 54, 65
1, 734504, Note_on_c, 0, 42, 61
1, 734532, Note_on_c, 0, 44, 44
1, 734532, Note_off_c, 0, 54, 65
1, 734534, Note_off_c, 0, 42, 64
1, 734568, Note_off_c, 0, 44, 48
1, 734575, Note_on_c, 0, 57, 99
1, 734580, Note_on_c, 0, 45, 86
1, 734608, Note_off_c, 0, 45, 67
1, 734613, Note_off_c, 0, 57, 68
1, 734648, Note_on_c, 0, 69, 90
1, 734652, Control_c, 0, 64, 83
1, 734656, Note_on_c, 0, 81, 75
1, 734667, Note_off_c, 0, 69, 73
1, 734667, Control_c, 0, 64, 22
1, 734670, Note_off_c, 0, 81, 70
1, 734682, Control_c, 0, 64, 0
1, 734729, Note_on_c, 0, 86, 98
1, 734730, Note_on_c, 0, 74, 103
1, 734741, Control_c, 0, 64, 64
1, 734756, Control_c, 0, 64, 127
1, 734769, Note_off_c, 0, 74, 65
1, 734773, Note_on_c, 0, 85, 32
1, 734777, Note_off_c, 0, 86, 64
1, 734808, Note_off_c, 0, 85, 50
1, 734819, Note_on_c, 0, 62, 87
1, 734821, Note_on_c, 0, 50, 68
1, 734845, Note_on_c, 0, 52, 67
1, 734859, Note_off_c, 0, 50, 65
1, 734874, Note_off_c, 0, 52, 64
1, 734887, Note_off_c, 0, 62, 56
1, 734910, Note_on_c, 0, 63, 85
1, 734915, Note_on_c, 0, 62, 71
1, 734919, Note_on_c, 0, 51, 88
1, 734955, Note_off_c, 0, 62, 62
1, 734974, Note_off_c, 0, 51, 63
1, 734978, Note_on_c, 0, 87, 107
1, 734980, Note_on_c, 0, 75, 96
1, 734981, Note_off_c, 0, 63, 60
1, 734999, Note_off_c, 0, 75, 69
1, 735002, Note_off_c, 0, 87, 63
1, 735058, Note_on_c, 0, 90, 104
1, 735058, Note_on_c, 0, 78, 102
1, 735079, Poly_aftertouch_c, 0, 85, 0
1, 735116, Note_off_c, 0, 78, 62
1, 735118, Note_off_c, 0, 90, 62
1, 735135, Note_on_c, 0, 66, 87
1, 735138, Note_on_c, 0, 54, 79
1, 735165, Note_off_c, 0, 54, 68
1, 735181, Note_off_c, 0, 66, 61
1, 735227, Note_on_c, 0, 67, 94
1, 735229, Note_on_c, 0, 55, 81
1, 735255, Note_off_c, 0, 55, 67
1, 735258, Poly_aftertouch_c, 0, 56, 0
1, 735263, Note_off_c, 0, 67, 63
1, 735279, Note_on_c, 0, 79, 95
1, 735284, Note_on_c, 0, 91, 94
1, 735304, Note_off_c, 0, 91, 69
1, 735309, Note_off_c, 0, 79, 62
1, 735312, Control_c, 0, 64, 120
1, 735327, Control_c, 0, 64, 57
1, 735342, Control_c, 0, 64, 0
1, 735354, Note_on_c, 0, 93, 98
1, 735358, Note_on_c, 0, 81, 104
1, 735371, Control_c, 0, 64, 24
1, 735386, Control_c, 0, 64, 68
1, 735397, Note_off_c, 0, 81, 67
1, 735398, Note_off_c, 0, 93, 66
1, 735401, Control_c, 0, 64, 127
1, 735437, Note_on_c, 0, 57, 85
1, 735438, Note_on_c, 0, 69, 88
1, 735460, Note_off_c, 0, 57, 69
1, 735460, Note_off_c, 0, 69, 66
1, 735530, Note_on_c, 0, 69, 95
1, 735532, Note_on_c, 0, 57, 86
1, 735571, Note_on_c, 0, 81, 96
1, 735573, Note_on_c, 0, 93, 95
1, 735577, Note_off_c, 0, 69, 65
1, 735580, Note_off_c, 0, 57, 64
1, 735595, Note_off_c, 0, 81, 68
1, 735609, Note_off_c, 0, 93, 65
1, 735656, Note_on_c, 0, 94, 107
1, 735658, Note_on_c, 0, 82, 100
1, 735693, Note_off_c, 0, 94, 66
1, 735696, Note_off_c, 0, 82, 63
1, 735743, Note_on_c, 0, 70, 85
1, 735746, Note_on_c, 0, 58, 85
1, 735761, Note_off_c, 0, 70, 74
1, 735800, Note_off_c, 0, 58, 62
1, 735832, Note_on_c, 0, 69, 54
1, 735843, Note_on_c, 0, 57, 83
1, 735888, Note_off_c, 0, 57, 64
1, 735890, Note_on_c, 0, 81, 93
1, 735890, Note_off_c, 0, 69, 64
1, 735890, Note_on_c, 0, 93, 96
1, 735905, Note_off_c, 0, 81, 75
1, 735913, Note_off_c, 0, 93, 66
1, 735928, Control_c, 0, 64, 62
1, 735943, Control_c, 0, 64, 0
1, 735962, Note_on_c, 0, 92, 105
1, 735966, Note_on_c, 0, 80, 99
1, 735972, Control_c, 0, 64, 47
1, 735987, Control_c, 0, 64, 80
1, 736002, Note_off_c, 0, 80, 64
1, 736002, Control_c, 0, 64, 127
1, 736006, Note_off_c, 0, 92, 67
1, 736044, Note_on_c, 0, 68, 90
1, 736049, Note_on_c, 0, 56, 82
1, 736080, Note_off_c, 0, 68, 61
1, 736090, Note_off_c, 0, 56, 61
1, 736136, Note_on_c, 0, 67, 85
1, 736138, Note_on_c, 0, 55, 83
1, 736182, Note_off_c, 0, 67, 65
1, 736184, Note_off_c, 0, 55, 64
1, 736189, Note_on_c, 0, 79, 96
1, 736191, Note_on_c, 0, 91, 92
1, 736208, Note_off_c, 0, 91, 73
1, 736273, Note_on_c, 0, 90, 73
1, 736275, Note_on_c, 0, 91, 87
1, 736286, Note_off_c, 0, 79, 66
1, 736296, Note_off_c, 0, 91, 66
1, 736328, Note_off_c, 0, 90, 63
1, 736364, Note_on_c, 0, 66, 88
1, 736370, Note_on_c, 0, 54, 82
1, 736405, Note_off_c, 0, 66, 65
1, 736417, Note_off_c, 0, 54, 61
1, 736456, Note_on_c, 0, 65, 89
1, 736458, Note_on_c, 0, 53, 86
1, 736461, Note_on_c, 0, 77, 100
1, 736467, Note_on_c, 0, 89, 92
1, 736495, Note_off_c, 0, 77, 68
1, 736496, Note_off_c, 0, 89, 64
1, 736499, Note_off_c, 0, 65, 63
1, 736503, Note_off_c, 0, 53, 61
1, 736551, Note_on_c, 0, 88, 100
1, 736557, Note_on_c, 0, 76, 91
1, 736565, Note_on_c, 0, 77, 93
1, 736573, Control_c, 0, 64, 71
1, 736588, Control_c, 0, 64, 49
1, 736589, Note_off_c, 0, 77, 51
1, 736602, Control_c, 0, 64, 45
1, 736609, Note_off_c, 0, 76, 64
1, 736617, Control_c, 0, 64, 55
1, 736630, Note_off_c, 0, 88, 63
1, 736632, Control_c, 0, 64, 70
1, 736643, Note_on_c, 0, 64, 87
1, 736647, Control_c, 0, 64, 103
1, 736650, Note_on_c, 0, 52, 74
1, 736662, Control_c, 0, 64, 127
1, 736674, Note_on_c, 0, 53, 57
1, 736679, Note_off_c, 0, 52, 68
1, 736687, Note_off_c, 0, 64, 66
1, 736698, Note_off_c, 0, 53, 60
1, 736745, Note_on_c, 0, 63, 99
1, 736748, Note_on_c, 0, 51, 90
1, 736774, Note_on_c, 0, 87, 99
1, 736776, Note_on_c, 0, 75, 98
1, 736786, Note_off_c, 0, 63, 67
1, 736787, Note_off_c, 0, 51, 63
1, 736799, Note_off_c, 0, 75, 65
1, 736799, Note_off_c, 0, 87, 63
1, 736859, Note_on_c, 0, 90, 113
1, 736863, Note_on_c, 0, 78, 107
1, 736901, Note_off_c, 0, 78, 67
1, 736917, Note_off_c, 0, 90, 60
1, 736939, Note_on_c, 0, 66, 76
1, 736948, Note_on_c, 0, 54, 65
1, 736962, Note_off_c, 0, 66, 67
1, 736978, Note_off_c, 0, 54, 65
1, 737013, Note_on_c, 0, 69, 91
1, 737021, Note_on_c, 0, 55, 58
1, 737022, Note_on_c, 0, 67, 81
1, 737043, Note_off_c, 0, 67, 66
1, 737043, Note_off_c, 0, 69, 63
1, 737044, Note_on_c, 0, 57, 46
1, 737044, Note_off_c, 0, 55, 60
1, 737057, Poly_aftertouch_c, 0, 56, 0
1, 737073, Note_off_c, 0, 57, 55
1, 737080, Note_on_c, 0, 81, 94
1, 737083, Note_on_c, 0, 93, 99
1, 737119, Note_off_c, 0, 93, 71
1, 737121, Note_off_c, 0, 81, 67
1, 737188, Control_c, 0, 64, 99
1, 737202, Control_c, 0, 64, 19
1, 737203, Note_on_c, 0, 86, 105
1, 737203, Note_on_c, 0, 98, 114
1, 737217, Control_c, 0, 64, 0
1, 737276, Control_c, 0, 64, 65
1, 737291, Control_c, 0, 64, 127
1, 737316, Note_off_c, 0, 86, 64
1, 737326, Note_on_c, 0, 74, 85
1, 737327, Note_on_c, 0, 62, 71
1, 737332, Note_off_c, 0, 98, 67
1, 737353, Note_off_c, 0, 62, 68
1, 737361, Note_off_c, 0, 74, 66
1, 737422, Note_on_c, 0, 75, 95
1, 737425, Note_on_c, 0, 63, 90
1, 737425, Note_on_c, 0, 87, 100
1, 737428, Note_on_c, 0, 99, 99
1, 737454, Note_off_c, 0, 99, 66
1, 737457, Note_off_c, 0, 75, 59
1, 737459, Note_off_c, 0, 87, 66
1, 737467, Note_off_c, 0, 63, 60
1, 737520, Note_on_c, 0, 83, 105
1, 737520, Note_on_c, 0, 95, 112
1, 737553, Note_off_c, 0, 83, 71
1, 737560, Note_off_c, 0, 95, 68
1, 737626, Note_on_c, 0, 71, 82
1, 737630, Note_on_c, 0, 59, 73
1, 737657, Note_off_c, 0, 59, 67
1, 737660, Note_off_c, 0, 71, 60
1, 737717, Note_on_c, 0, 60, 74
1, 737722, Note_on_c, 0, 72, 84
1, 737726, Note_on_c, 0, 84, 99
1, 737730, Note_on_c, 0, 96, 95
1, 737742, Note_off_c, 0, 84, 70
1, 737745, Note_off_c, 0, 72, 68
1, 737745, Note_off_c, 0, 96, 66
1, 737759, Note_off_c, 0, 60, 63
1, 737812, Note_on_c, 0, 80, 116
1, 737813, Note_on_c, 0, 92, 111
1, 737830, Note_on_c, 0, 90, 67
1, 737851, Note_off_c, 0, 80, 69
1, 737851, Note_off_c, 0, 92, 68
1, 737854, Note_off_c, 0, 90, 65
1, 737910, Note_on_c, 0, 68, 91
1, 737914, Note_on_c, 0, 56, 88
1, 737952, Note_off_c, 0, 68, 61
1, 737952, Note_off_c, 0, 56, 62
1, 738015, Note_on_c, 0, 69, 93
1, 738015, Note_on_c, 0, 81, 99
1, 738018, Note_on_c, 0, 93, 101
1, 738022, Note_on_c, 0, 57, 83
1, 738033, Note_off_c, 0, 93, 71
1, 738039, Note_off_c, 0, 69, 64
1, 738042, Note_off_c, 0, 81, 67
1, 738045, Note_off_c, 0, 57, 70
1, 738104, Note_on_c, 0, 77, 108
1, 738107, Note_on_c, 0, 89, 105
1, 738134, Note_off_c, 0, 89, 71
1, 738135, Note_off_c, 0, 77, 71
1, 738164, Note_on_c, 0, 65, 84
1, 738169, Note_on_c, 0, 53, 80
1, 738194, Note_off_c, 0, 53, 66
1, 738197, Note_off_c, 0, 65, 64
1, 738265, Note_on_c, 0, 66, 96
1, 738272, Note_on_c, 0, 54, 86
1, 738289, Note_on_c, 0, 78, 104
1, 738289, Note_on_c, 0, 90, 102
1, 738302, Note_off_c, 0, 54, 66
1, 738305, Note_off_c, 0, 90, 70
1, 738307, Note_off_c, 0, 66, 60
1, 738310, Note_off_c, 0, 78, 67
1, 738367, Control_c, 0, 64, 76
1, 738371, Note_on_c, 0, 74, 107
1, 738373, Note_on_c, 0, 86, 103
1, 738382, Control_c, 0, 64, 62
1, 738396, Control_c, 0, 64, 58
1, 738405, Note_off_c, 0, 74, 70
1, 738408, Note_off_c, 0, 86, 68
1, 738411, Control_c, 0, 64, 63
1, 738413, Note_on_c, 0, 85, 35
1, 738414, Note_off_c, 0, 85, 127
1, 738426, Control_c, 0, 64, 73
1, 738441, Control_c, 0, 64, 127
1, 738465, Note_on_c, 0, 50, 83
1, 738466, Note_on_c, 0, 62, 83
1, 738490, Note_off_c, 0, 50, 68
1, 738492, Note_off_c, 0, 62, 66
1, 738564, Note_on_c, 0, 63, 93
1, 738569, Note_on_c, 0, 75, 101
1, 738572, Note_on_c, 0, 87, 96
1, 738572, Note_on_c, 0, 51, 85
1, 738587, Note_off_c, 0, 87, 74
1, 738588, Note_off_c, 0, 75, 68
1, 738602, Note_off_c, 0, 63, 62
1, 738605, Note_off_c, 0, 51, 69
1, 738661, Note_on_c, 0, 71, 105
1, 738662, Note_on_c, 0, 83, 107
1, 738686, Control_c, 0, 64, 90
1, 738692, Note_off_c, 0, 71, 71
1, 738692, Note_off_c, 0, 83, 71
1, 738701, Control_c, 0, 64, 73
1, 738715, Control_c, 0, 64, 73
1, 738730, Control_c, 0, 64, 95
1, 738745, Control_c, 0, 64, 127
1, 738747, Note_on_c, 0, 47, 83
1, 738757, Note_on_c, 0, 57, 67
1, 738774, Note_off_c, 0, 47, 65
1, 738787, Note_off_c, 0, 57, 66
1, 738847, Note_on_c, 0, 72, 92
1, 738853, Note_on_c, 0, 84, 81
1, 738853, Note_on_c, 0, 60, 84
1, 738856, Note_on_c, 0, 48, 80
1, 738864, Note_off_c, 0, 72, 75
1, 738865, Note_off_c, 0, 84, 69
1, 738878, Note_off_c, 0, 60, 69
1, 738884, Note_off_c, 0, 48, 67
1, 738931, Note_on_c, 0, 68, 110
1, 738931, Note_on_c, 0, 80, 105
1, 738960, Note_off_c, 0, 68, 68
1, 738964, Note_off_c, 0, 80, 69
1, 738969, Note_on_c, 0, 78, 37
1, 738970, Note_off_c, 0, 78, 127
1, 739014, Note_on_c, 0, 56, 86
1, 739019, Note_on_c, 0, 44, 81
1, 739060, Note_off_c, 0, 44, 62
1, 739061, Note_off_c, 0, 56, 64
1, 739087, Control_c, 0, 64, 91
1, 739102, Control_c, 0, 64, 84
1, 739110, Note_on_c, 0, 69, 105
1, 739113, Note_on_c, 0, 81, 95
1, 739117, Control_c, 0, 64, 90
1, 739127, Note_off_c, 0, 81, 76
1, 739131, Note_off_c, 0, 69, 68
1, 739131, Control_c, 0, 64, 127
1, 739133, Note_on_c, 0, 57, 80
1, 739139, Note_on_c, 0, 45, 74
1, 739154, Note_off_c, 0, 57, 70
1, 739169, Note_off_c, 0, 45, 65
1, 739198, Note_on_c, 0, 65, 109
1, 739200, Note_on_c, 0, 77, 100
1, 739224, Note_off_c, 0, 77, 67
1, 739226, Note_off_c, 0, 65, 69
1, 739257, Note_on_c, 0, 53, 85
1, 739258, Note_on_c, 0, 41, 79
1, 739284, Note_off_c, 0, 41, 64
1, 739284, Note_off_c, 0, 53, 69
1, 739357, Note_on_c, 0, 54, 93
1, 739364, Note_on_c, 0, 42, 83
1, 739371, Note_on_c, 0, 66, 96
1, 739373, Note_on_c, 0, 78, 100
1, 739390, Note_off_c, 0, 78, 74
1, 739394, Note_off_c, 0, 54, 60
1, 739394, Note_off_c, 0, 66, 67
1, 739396, Note_off_c, 0, 42, 68
1, 739421, Poly_aftertouch_c, 0, 41, 127
1, 739435, Control_c, 0, 64, 113
1, 739447, Poly_aftertouch_c, 0, 41, 0
1, 739449, Control_c, 0, 64, 82
1, 739454, Note_on_c, 0, 62, 109
1, 739455, Note_on_c, 0, 74, 103
1, 739464, Control_c, 0, 64, 77
1, 739479, Control_c, 0, 64, 92
1, 739484, Note_off_c, 0, 62, 71
1, 739484, Note_off_c, 0, 74, 71
1, 739494, Control_c, 0, 64, 127
1, 739527, Note_on_c, 0, 38, 73
1, 739529, Note_on_c, 0, 50, 80
1, 739558, Note_off_c, 0, 50, 68
1, 739561, Note_off_c, 0, 38, 64
1, 739628, Note_on_c, 0, 51, 98
1, 739631, Note_on_c, 0, 39, 66
1, 739631, Note_on_c, 0, 63, 105
1, 739632, Note_on_c, 0, 75, 104
1, 739649, Note_off_c, 0, 75, 68
1, 739655, Note_off_c, 0, 63, 65
1, 739666, Note_off_c, 0, 51, 62
1, 739673, Note_off_c, 0, 39, 63
1, 739720, Note_on_c, 0, 59, 105
1, 739723, Note_on_c, 0, 71, 97
1, 739733, Note_on_c, 0, 69, 79
1, 739746, Note_off_c, 0, 59, 71
1, 739747, Note_off_c, 0, 69, 44
1, 739750, Note_off_c, 0, 71, 67
1, 739790, Note_on_c, 0, 35, 81
1, 739799, Note_on_c, 0, 47, 63
1, 739821, Note_off_c, 0, 47, 62
1, 739823, Note_off_c, 0, 35, 64
1, 739851, Control_c, 0, 64, 82
1, 739866, Control_c, 0, 64, 79
1, 739880, Control_c, 0, 64, 96
1, 739883, Poly_aftertouch_c, 0, 69, 0
1, 739887, Note_on_c, 0, 60, 93
1, 739891, Note_on_c, 0, 72, 78
1, 739895, Control_c, 0, 64, 127
1, 739903, Note_on_c, 0, 50, 70
1, 739903, Note_off_c, 0, 60, 75
1, 739904, Note_on_c, 0, 48, 74
1, 739906, Note_on_c, 0, 36, 65
1, 739906, Note_off_c, 0, 72, 68
1, 739930, Note_off_c, 0, 50, 63
1, 739932, Note_off_c, 0, 48, 66
1, 739938, Note_off_c, 0, 36, 62
1, 739970, Note_on_c, 0, 56, 108
1, 739972, Note_on_c, 0, 68, 102
1, 740003, Note_off_c, 0, 56, 68
1, 740006, Note_off_c, 0, 68, 60
1, 740041, Note_on_c, 0, 44, 85
1, 740043, Note_on_c, 0, 32, 76
1, 740043, Control_c, 0, 64, 112
1, 740058, Control_c, 0, 64, 87
1, 740072, Control_c, 0, 64, 106
1, 740087, Control_c, 0, 64, 127
1, 740090, Note_off_c, 0, 32, 61
1, 740099, Note_off_c, 0, 44, 58
1, 740149, Note_on_c, 0, 57, 96
1, 740154, Note_on_c, 0, 69, 91
1, 740169, Note_on_c, 0, 67, 73
1, 740169, Control_c, 0, 64, 104
1, 740171, Note_off_c, 0, 69, 74
1, 740176, Note_off_c, 0, 57, 68
1, 740179, Note_on_c, 0, 45, 80
1, 740184, Control_c, 0, 64, 85
1, 740185, Note_off_c, 0, 67, 67
1, 740186, Note_on_c, 0, 33, 78
1, 740199, Control_c, 0, 64, 87
1, 740205, Note_off_c, 0, 45, 68
1, 740214, Control_c, 0, 64, 120
1, 740220, Note_off_c, 0, 33, 63
1, 740228, Control_c, 0, 64, 127
1, 740245, Note_on_c, 0, 53, 108
1, 740247, Note_on_c, 0, 65, 103
1, 740273, Note_off_c, 0, 65, 69
1, 740274, Note_off_c, 0, 53, 68
1, 740287, Note_on_c, 0, 29, 81
1, 740289, Note_on_c, 0, 41, 80
1, 740291, Note_on_c, 0, 55, 22
1, 740292, Note_off_c, 0, 55, 127
1, 740324, Note_off_c, 0, 41, 66
1, 740325, Note_off_c, 0, 29, 63
1, 740346, Control_c, 0, 64, 79
1, 740361, Control_c, 0, 64, 69
1, 740376, Control_c, 0, 64, 76
1, 740391, Control_c, 0, 64, 127
1, 740406, Note_on_c, 0, 42, 89
1, 740409, Note_on_c, 0, 66, 99
1, 740409, Note_on_c, 0, 30, 81
1, 740413, Note_on_c, 0, 54, 94
1, 740427, Note_off_c, 0, 66, 69
1, 740432, Note_off_c, 0, 54, 74
1, 740436, Note_off_c, 0, 42, 66
1, 740450, Note_off_c, 0, 30, 63
1, 740465, Control_c, 0, 64, 111
1, 740480, Control_c, 0, 64, 69
1, 740496, Control_c, 0, 64, 52
1, 740499, Note_on_c, 0, 50, 100
1, 740500, Note_on_c, 0, 62, 100
1, 740511, Control_c, 0, 64, 50
1, 740525, Control_c, 0, 64, 58
1, 740531, Note_off_c, 0, 50, 68
1, 740531, Note_off_c, 0, 62, 69
1, 740540, Control_c, 0, 64, 74
1, 740543, Note_on_c, 0, 26, 74
1, 740552, Note_on_c, 0, 38, 62
1, 740552, Note_on_c, 0, 40, 66
1, 740555, Control_c, 0, 64, 127
1, 740582, Note_off_c, 0, 26, 63
1, 740584, Note_off_c, 0, 38, 63
1, 740585, Note_off_c, 0, 40, 64
1, 740592, Note_on_c, 0, 28, 23
1, 740641, Note_off_c, 0, 28, 42
1, 740644, Control_c, 0, 64, 86
1, 740654, Note_on_c, 0, 63, 96
1, 740657, Note_on_c, 0, 51, 89
1, 740659, Control_c, 0, 64, 68
1, 740667, Note_on_c, 0, 27, 75
1, 740670, Note_on_c, 0, 39, 77
1, 740674, Control_c, 0, 64, 71
1, 740679, Note_off_c, 0, 51, 68
1, 740683, Note_off_c, 0, 63, 62
1, 740688, Control_c, 0, 64, 115
1, 740698, Note_off_c, 0, 27, 65
1, 740699, Note_off_c, 0, 39, 65
1, 740703, Control_c, 0, 64, 127
1, 740737, Note_on_c, 0, 59, 110
1, 740773, Note_off_c, 0, 59, 70
1, 740778, Note_on_c, 0, 51, 8
1, 740792, Control_c, 0, 64, 96
1, 740807, Control_c, 0, 64, 68
1, 740811, Note_off_c, 0, 51, 46
1, 740822, Control_c, 0, 64, 61
1, 740837, Note_on_c, 0, 48, 76
1, 740837, Control_c, 0, 64, 68
1, 740852, Note_on_c, 0, 36, 65
1, 740859, Control_c, 0, 64, 96
1, 740873, Note_off_c, 0, 48, 66
1, 740874, Control_c, 0, 64, 127
1, 740879, Note_off_c, 0, 36, 61
1, 740901, Note_on_c, 0, 60, 97
1, 740932, Note_off_c, 0, 60, 67
1, 740933, Control_c, 0, 64, 68
1, 740948, Control_c, 0, 64, 60
1, 740963, Control_c, 0, 64, 68
1, 740964, Note_on_c, 0, 47, 70
1, 740967, Note_on_c, 0, 35, 75
1, 740976, Note_on_c, 0, 56, 106
1, 740977, Control_c, 0, 64, 93
1, 740989, Note_on_c, 0, 45, 55
1, 740992, Control_c, 0, 64, 127
1, 741000, Note_off_c, 0, 35, 65
1, 741008, Note_off_c, 0, 47, 63
1, 741013, Note_off_c, 0, 56, 69
1, 741017, Note_off_c, 0, 45, 58
1, 741104, Note_on_c, 0, 44, 82
1, 741115, Note_on_c, 0, 32, 70
1, 741137, Note_off_c, 0, 44, 63
1, 741142, Note_on_c, 0, 57, 97
1, 741154, Note_off_c, 0, 32, 62
1, 741161, Note_off_c, 0, 57, 72
1, 741219, Note_on_c, 0, 53, 106
1, 741227, Note_on_c, 0, 43, 84
1, 741231, Note_on_c, 0, 41, 80
1, 741232, Note_on_c, 0, 29, 72
1, 741243, Note_on_c, 0, 31, 65
1, 741247, Note_on_c, 0, 32, 45
1, 741257, Note_off_c, 0, 43, 67
1, 741259, Note_off_c, 0, 53, 68
1, 741266, Note_off_c, 0, 41, 66
1, 741270, Note_off_c, 0, 29, 63
1, 741273, Note_off_c, 0, 31, 59
1, 741286, Note_off_c, 0, 32, 50
1, 741348, Note_on_c, 0, 41, 67
1, 741351, Note_on_c, 0, 40, 67
1, 741353, Note_on_c, 0, 30, 68
1, 741372, Note_off_c, 0, 41, 69
1, 741381, Note_off_c, 0, 40, 66
1, 741388, Note_on_c, 0, 54, 99
1, 741394, Note_on_c, 0, 29, 17
1, 741421, Poly_aftertouch_c, 0, 28, 127
1, 741443, Note_off_c, 0, 54, 66
1, 741452, Note_off_c, 0, 29, 41
1, 741463, Poly_aftertouch_c, 0, 28, 0
1, 741481, Control_c, 0, 64, 84
1, 741491, Note_on_c, 0, 26, 89
1, 741493, Note_on_c, 0, 38, 103
1, 741496, Control_c, 0, 64, 48
1, 741497, Note_on_c, 0, 50, 121
1, 741511, Control_c, 0, 64, 0
1, 741532, Note_off_c, 0, 30, 40
1, 741600, Note_off_c, 0, 26, 62
1, 741620, Note_off_c, 0, 38, 63
1, 741652, Control_c, 0, 64, 57
1, 741667, Control_c, 0, 64, 127
1, 741701, Note_off_c, 0, 50, 62
1, 741830, Note_on_c, 0, 54, 82
1, 741832, Note_on_c, 0, 61, 86
1, 741881, Note_off_c, 0, 61, 63
1, 741886, Note_off_c, 0, 54, 63
1, 741896, Note_on_c, 0, 57, 94
1, 741905, Note_on_c, 0, 62, 82
1, 741916, Note_off_c, 0, 57, 74
1, 741926, Note_off_c, 0, 62, 70
1, 741973, Note_on_c, 0, 57, 95
1, 741982, Note_on_c, 0, 62, 79
1, 742000, Note_off_c, 0, 62, 71
1, 742009, Note_off_c, 0, 57, 68
1, 742037, Control_c, 0, 64, 89
1, 742051, Control_c, 0, 64, 68
1, 742066, Control_c, 0, 64, 65
1, 742067, Note_on_c, 0, 63, 98
1, 742069, Note_on_c, 0, 54, 85
1, 742081, Control_c, 0, 64, 69
1, 742097, Control_c, 0, 64, 82
1, 742098, Note_off_c, 0, 54, 64
1, 742111, Note_off_c, 0, 63, 65
1, 742112, Control_c, 0, 64, 127
1, 742146, Note_on_c, 0, 57, 82
1, 742146, Note_on_c, 0, 60, 72
1, 742150, Note_on_c, 0, 55, 87
1, 742162, Note_on_c, 0, 62, 60
1, 742173, Note_off_c, 0, 55, 67
1, 742178, Note_off_c, 0, 60, 55
1, 742181, Note_off_c, 0, 57, 67
1, 742182, Note_off_c, 0, 62, 64
1, 742276, Note_on_c, 0, 57, 58
1, 742297, Note_off_c, 0, 57, 64
1, 742306, Note_on_c, 0, 54, 94
1, 742307, Note_on_c, 0, 61, 91
1, 742360, Note_off_c, 0, 61, 63
1, 742365, Note_off_c, 0, 54, 65
1, 742391, Note_on_c, 0, 62, 89
1, 742400, Note_on_c, 0, 57, 51
1, 742401, Note_off_c, 0, 57, 127
1, 742411, Note_off_c, 0, 62, 73
1, 742465, Note_on_c, 0, 57, 86
1, 742465, Note_on_c, 0, 62, 79
1, 742495, Note_off_c, 0, 57, 67
1, 742496, Note_off_c, 0, 62, 62
1, 742534, Control_c, 0, 64, 93
1, 742549, Control_c, 0, 64, 61
1, 742555, Note_on_c, 0, 63, 97
1, 742558, Note_on_c, 0, 58, 93
1, 742564, Control_c, 0, 64, 0
1, 742608, Control_c, 0, 64, 48
1, 742614, Note_off_c, 0, 63, 58
1, 742621, Note_off_c, 0, 58, 59
1, 742623, Control_c, 0, 64, 71
1, 742625, Note_on_c, 0, 55, 89
1, 742628, Note_on_c, 0, 62, 86
1, 742638, Control_c, 0, 64, 127
1, 742653, Note_off_c, 0, 55, 66
1, 742655, Note_off_c, 0, 62, 62
1, 742713, Note_on_c, 0, 62, 85
1, 742716, Note_on_c, 0, 55, 90
1, 742747, Note_off_c, 0, 62, 65
1, 742760, Note_off_c, 0, 55, 64
1, 742779, Note_on_c, 0, 61, 90
1, 742784, Note_on_c, 0, 58, 78
1, 742830, Note_off_c, 0, 61, 61
1, 742844, Note_off_c, 0, 58, 61
1, 742848, Note_on_c, 0, 62, 83
1, 742850, Note_on_c, 0, 55, 81
1, 742864, Note_off_c, 0, 62, 76
1, 742868, Note_off_c, 0, 55, 75
1, 742913, Note_on_c, 0, 55, 88
1, 742923, Note_on_c, 0, 62, 79
1, 742948, Note_off_c, 0, 62, 68
1, 742953, Note_off_c, 0, 55, 63
1, 742964, Control_c, 0, 64, 77
1, 742979, Control_c, 0, 64, 0
1, 743010, Note_on_c, 0, 56, 78
1, 743010, Note_on_c, 0, 64, 79
1, 743053, Control_c, 0, 64, 67
1, 743068, Control_c, 0, 64, 84
1, 743069, Note_off_c, 0, 56, 56
1, 743083, Control_c, 0, 64, 127
1, 743097, Note_on_c, 0, 62, 84
1, 743098, Note_on_c, 0, 59, 77
1, 743103, Note_on_c, 0, 60, 77
1, 743106, Note_off_c, 0, 64, 55
1, 743122, Note_off_c, 0, 62, 65
1, 743125, Note_off_c, 0, 59, 67
1, 743127, Note_off_c, 0, 60, 68
1, 743163, Note_on_c, 0, 56, 28
1, 743183, Note_on_c, 0, 62, 84
1, 743184, Note_on_c, 0, 59, 83
1, 743193, Note_off_c, 0, 56, 55
1, 743210, Note_on_c, 0, 60, 28
1, 743214, Note_off_c, 0, 62, 62
1, 743215, Note_off_c, 0, 59, 68
1, 743234, Note_off_c, 0, 60, 61
1, 743246, Note_on_c, 0, 65, 98
1, 743257, Note_on_c, 0, 57, 84
1, 743261, Note_on_c, 0, 61, 69
1, 743268, Control_c, 0, 64, 80
1, 743279, Note_off_c, 0, 61, 60
1, 743281, Note_off_c, 0, 57, 62
1, 743283, Control_c, 0, 64, 65
1, 743297, Control_c, 0, 64, 63
1, 743312, Control_c, 0, 64, 68
1, 743327, Control_c, 0, 64, 84
1, 743328, Note_on_c, 0, 62, 84
1, 743333, Note_off_c, 0, 65, 60
1, 743342, Control_c, 0, 64, 127
1, 743350, Note_on_c, 0, 59, 76
1, 743396, Note_off_c, 0, 62, 61
1, 743398, Note_on_c, 0, 60, 12
1, 743401, Note_off_c, 0, 59, 64
1, 743442, Note_off_c, 0, 60, 40
1, 743444, Control_c, 0, 64, 99
1, 743459, Control_c, 0, 64, 62
1, 743463, Note_on_c, 0, 57, 89
1, 743466, Note_on_c, 0, 66, 110
1, 743473, Note_on_c, 0, 63, 95
1, 743474, Control_c, 0, 64, 0
1, 743492, Note_off_c, 0, 57, 68
1, 743515, Note_off_c, 0, 66, 67
1, 743518, Control_c, 0, 64, 57
1, 743527, Note_off_c, 0, 63, 63
1, 743533, Control_c, 0, 64, 68
1, 743548, Control_c, 0, 64, 80
1, 743556, Note_on_c, 0, 60, 68
1, 743557, Note_on_c, 0, 62, 70
1, 743562, Control_c, 0, 64, 127
1, 743583, Note_off_c, 0, 62, 69
1, 743586, Note_off_c, 0, 60, 64
1, 743624, Note_on_c, 0, 60, 66
1, 743634, Note_on_c, 0, 62, 69
1, 743663, Note_off_c, 0, 62, 66
1, 743667, Note_off_c, 0, 60, 65
1, 743700, Note_on_c, 0, 61, 97
1, 743753, Note_off_c, 0, 61, 63
1, 743785, Note_on_c, 0, 60, 78
1, 743787, Note_on_c, 0, 62, 67
1, 743806, Note_off_c, 0, 60, 72
1, 743811, Note_on_c, 0, 64, 39
1, 743819, Note_off_c, 0, 62, 65
1, 743849, Note_off_c, 0, 64, 55
1, 743880, Note_on_c, 0, 60, 65
1, 743886, Note_on_c, 0, 62, 59
1, 743890, Note_on_c, 0, 58, 13
1, 743896, Note_off_c, 0, 60, 66
1, 743897, Control_c, 0, 64, 91
1, 743902, Note_off_c, 0, 62, 71
1, 743912, Control_c, 0, 64, 55
1, 743926, Control_c, 0, 64, 0
1, 743929, Note_off_c, 0, 58, 33
1, 743942, Note_on_c, 0, 57, 93
1, 743943, Note_on_c, 0, 66, 101
1, 743950, Note_on_c, 0, 63, 91
1, 743971, Control_c, 0, 64, 52
1, 743974, Note_off_c, 0, 57, 66
1, 743986, Control_c, 0, 64, 66
1, 743990, Note_off_c, 0, 66, 66
1, 743998, Note_off_c, 0, 63, 65
1, 744001, Control_c, 0, 64, 79
1, 744015, Note_on_c, 0, 62, 61
1, 744015, Control_c, 0, 64, 101
1, 744022, Note_on_c, 0, 60, 59
1, 744030, Control_c, 0, 64, 127
1, 744063, Note_off_c, 0, 62, 62
1, 744105, Note_on_c, 0, 62, 53
1, 744135, Note_off_c, 0, 60, 65
1, 744135, Note_off_c, 0, 62, 63
1, 744164, Note_on_c, 0, 61, 95
1, 744214, Note_off_c, 0, 61, 63
1, 744240, Note_on_c, 0, 62, 86
1, 744248, Note_on_c, 0, 60, 78
1, 744270, Note_off_c, 0, 60, 70
1, 744272, Note_off_c, 0, 62, 62
1, 744321, Note_on_c, 0, 60, 89
1, 744328, Note_on_c, 0, 62, 71
1, 744354, Note_off_c, 0, 60, 63
1, 744355, Note_off_c, 0, 62, 66
1, 744356, Control_c, 0, 64, 66
1, 744371, Control_c, 0, 64, 28
1, 744383, Note_on_c, 0, 57, 81
1, 744385, Note_on_c, 0, 66, 89
1, 744385, Control_c, 0, 64, 16
1, 744387, Note_on_c, 0, 63, 85
1, 744400, Control_c, 0, 64, 47
1, 744415, Note_off_c, 0, 57, 63
1, 744415, Control_c, 0, 64, 67
1, 744426, Note_off_c, 0, 66, 60
1, 744430, Note_off_c, 0, 63, 66
1, 744430, Control_c, 0, 64, 98
1, 744445, Control_c, 0, 64, 127
1, 744471, Note_on_c, 0, 62, 87
1, 744504, Note_off_c, 0, 62, 68
1, 744543, Note_on_c, 0, 62, 90
1, 744593, Note_off_c, 0, 62, 65
1, 744621, Note_on_c, 0, 61, 91
1, 744662, Note_off_c, 0, 61, 66
1, 744701, Note_on_c, 0, 62, 97
1, 744735, Note_off_c, 0, 62, 69
1, 744774, Note_on_c, 0, 62, 86
1, 744807, Note_off_c, 0, 62, 63
1, 744835, Note_on_c, 0, 63, 103
1, 744853, Control_c, 0, 64, 70
1, 744868, Control_c, 0, 64, 0
1, 744869, Note_off_c, 0, 63, 69
1, 744918, Note_on_c, 0, 62, 100
1, 744954, Note_off_c, 0, 62, 68
1, 744992, Note_on_c, 0, 62, 82
1, 745021, Note_off_c, 0, 62, 65
1, 745048, Note_on_c, 0, 61, 101
1, 745079, Note_off_c, 0, 61, 69
1, 745134, Note_on_c, 0, 62, 91
1, 745161, Note_off_c, 0, 62, 66
1, 745202, Note_on_c, 0, 62, 77
1, 745229, Note_off_c, 0, 62, 66
1, 745273, Note_on_c, 0, 63, 102
1, 745305, Note_off_c, 0, 63, 67
1, 745367, Note_on_c, 0, 62, 81
1, 745389, Note_off_c, 0, 62, 72
1, 745437, Note_on_c, 0, 62, 86
1, 745459, Note_off_c, 0, 62, 66
1, 745500, Note_on_c, 0, 61, 96
1, 745528, Note_off_c, 0, 61, 65
1, 745587, Note_on_c, 0, 62, 78
1, 745613, Note_off_c, 0, 62, 67
1, 745651, Note_on_c, 0, 62, 70
1, 745685, Note_off_c, 0, 62, 67
1, 745731, Note_on_c, 0, 64, 93
1, 745758, Note_off_c, 0, 64, 66
1, 745821, Note_on_c, 0, 62, 74
1, 745845, Note_off_c, 0, 62, 69
1, 745855, Control_c, 0, 67, 11
1, 745870, Control_c, 0, 67, 28
1, 745884, Control_c, 0, 67, 37
1, 745896, Note_on_c, 0, 62, 80
1, 745899, Control_c, 0, 67, 43
1, 745914, Control_c, 0, 67, 45
1, 745929, Control_c, 0, 67, 46
1, 745932, Note_off_c, 0, 62, 62
1, 745948, Note_on_c, 0, 61, 75
1, 745974, Note_off_c, 0, 61, 68
1, 746042, Note_on_c, 0, 62, 74
1, 746047, Control_c, 0, 67, 45
1, 746062, Control_c, 0, 67, 44
1, 746069, Note_off_c, 0, 62, 70
1, 746085, Control_c, 0, 67, 44
1, 746149, Note_on_c, 0, 62, 65
1, 746174, Control_c, 0, 67, 42
1, 746179, Note_off_c, 0, 62, 65
1, 746189, Control_c, 0, 67, 40
1, 746203, Control_c, 0, 67, 38
1, 746218, Control_c, 0, 67, 36
1, 746233, Control_c, 0, 67, 34
1, 746235, Note_on_c, 0, 67, 78
1, 746242, Note_on_c, 0, 59, 49
1, 746242, Note_on_c, 0, 62, 64
1, 746248, Control_c, 0, 67, 32
1, 746263, Note_off_c, 0, 62, 65
1, 746266, Note_off_c, 0, 67, 63
1, 746267, Note_off_c, 0, 59, 52
1, 746323, Note_on_c, 0, 55, 55
1, 746326, Note_on_c, 0, 61, 64
1, 746336, Note_on_c, 0, 62, 55
1, 746337, Control_c, 0, 67, 33
1, 746355, Note_off_c, 0, 61, 66
1, 746358, Note_off_c, 0, 55, 64
1, 746360, Note_off_c, 0, 62, 59
1, 746382, Control_c, 0, 67, 34
1, 746406, Note_on_c, 0, 69, 59
1, 746439, Note_off_c, 0, 69, 66
1, 746484, Note_on_c, 0, 62, 38
1, 746489, Note_on_c, 0, 67, 63
1, 746496, Note_on_c, 0, 71, 65
1, 746511, Note_off_c, 0, 62, 60
1, 746512, Note_off_c, 0, 67, 63
1, 746525, Note_off_c, 0, 71, 68
1, 746540, Note_on_c, 0, 72, 11
1, 746541, Note_off_c, 0, 72, 127
1, 746544, Control_c, 0, 67, 34
1, 746572, Note_on_c, 0, 55, 58
1, 746581, Note_on_c, 0, 61, 48
1, 746588, Control_c, 0, 67, 35
1, 746603, Note_off_c, 0, 61, 61
1, 746607, Note_off_c, 0, 55, 64
1, 746612, Note_on_c, 0, 62, 14
1, 746652, Note_on_c, 0, 72, 76
1, 746653, Note_off_c, 0, 62, 31
1, 746657, Note_on_c, 0, 69, 59
1, 746664, Note_on_c, 0, 67, 45
1, 746675, Note_off_c, 0, 69, 62
1, 746676, Note_off_c, 0, 72, 68
1, 746687, Note_off_c, 0, 67, 59
1, 746692, Control_c, 0, 67, 34
1, 746731, Note_on_c, 0, 74, 71
1, 746739, Note_on_c, 0, 71, 63
1, 746743, Note_on_c, 0, 67, 59
1, 746758, Note_off_c, 0, 71, 65
1, 746764, Note_off_c, 0, 74, 66
1, 746770, Note_off_c, 0, 67, 64
1, 746828, Note_on_c, 0, 61, 55
1, 746829, Note_on_c, 0, 55, 45
1, 746843, Note_on_c, 0, 62, 48
1, 746867, Note_off_c, 0, 61, 64
1, 746868, Note_off_c, 0, 62, 59
1, 746872, Note_off_c, 0, 55, 55
1, 746908, Control_c, 0, 67, 34
1, 746913, Note_on_c, 0, 74, 62
1, 746916, Note_on_c, 0, 67, 55
1, 746923, Control_c, 0, 67, 33
1, 746930, Note_off_c, 0, 74, 63
1, 746936, Note_off_c, 0, 67, 60
1, 746952, Control_c, 0, 67, 32
1, 746981, Note_on_c, 0, 76, 84
1, 746997, Control_c, 0, 67, 33
1, 747005, Note_on_c, 0, 67, 56
1, 747011, Control_c, 0, 67, 34
1, 747017, Note_off_c, 0, 76, 65
1, 747025, Note_off_c, 0, 67, 61
1, 747026, Control_c, 0, 67, 35
1, 747041, Control_c, 0, 67, 36
1, 747071, Control_c, 0, 67, 36
1, 747082, Note_on_c, 0, 62, 55
1, 747089, Note_on_c, 0, 55, 45
1, 747094, Note_on_c, 0, 61, 41
1, 747118, Note_off_c, 0, 62, 63
1, 747121, Note_off_c, 0, 61, 55
1, 747123, Note_off_c, 0, 55, 58
1, 747142, Note_on_c, 0, 74, 74
1, 747151, Note_on_c, 0, 66, 62
1, 747155, Note_on_c, 0, 71, 56
1, 747156, Note_off_c, 0, 74, 69
1, 747160, Control_c, 0, 67, 36
1, 747170, Note_off_c, 0, 66, 63
1, 747175, Control_c, 0, 67, 35
1, 747176, Note_off_c, 0, 71, 39
1, 747213, Note_on_c, 0, 74, 81
1, 747227, Note_on_c, 0, 66, 71
1, 747229, Note_on_c, 0, 71, 64
1, 747247, Note_off_c, 0, 71, 64
1, 747254, Note_off_c, 0, 66, 67
1, 747256, Note_off_c, 0, 74, 62
1, 747264, Control_c, 0, 67, 36
1, 747293, Control_c, 0, 67, 36
1, 747323, Control_c, 0, 67, 37
1, 747331, Note_on_c, 0, 55, 41
1, 747331, Note_on_c, 0, 62, 48
1, 747333, Note_on_c, 0, 61, 51
1, 747357, Note_off_c, 0, 61, 60
1, 747361, Note_off_c, 0, 62, 64
1, 747364, Note_off_c, 0, 55, 60
1, 747367, Control_c, 0, 67, 36
1, 747382, Control_c, 0, 67, 35
1, 747393, Note_on_c, 0, 64, 48
1, 747405, Note_on_c, 0, 73, 43
1, 747417, Note_off_c, 0, 64, 58
1, 747429, Note_off_c, 0, 73, 50
1, 747449, Note_on_c, 0, 66, 62
1, 747449, Note_on_c, 0, 72, 64
1, 747451, Note_on_c, 0, 74, 64
1, 747470, Note_off_c, 0, 74, 64
1, 747477, Note_off_c, 0, 72, 67
1, 747479, Note_off_c, 0, 66, 65
1, 747500, Control_c, 0, 67, 36
1, 747515, Control_c, 0, 67, 36
1, 747530, Control_c, 0, 67, 37
1, 747554, Note_on_c, 0, 55, 50
1, 747556, Note_on_c, 0, 62, 55
1, 747562, Note_on_c, 0, 61, 58
1, 747575, Control_c, 0, 67, 36
1, 747597, Control_c, 0, 67, 36
1, 747599, Note_off_c, 0, 62, 63
1, 747600, Note_off_c, 0, 61, 65
1, 747607, Note_on_c, 0, 71, 69
1, 747607, Note_off_c, 0, 55, 64
1, 747611, Control_c, 0, 67, 34
1, 747626, Control_c, 0, 67, 30
1, 747641, Control_c, 0, 67, 26
1, 747656, Control_c, 0, 67, 20
1, 747671, Control_c, 0, 67, 12
1, 747676, Poly_aftertouch_c, 0, 67, 127
1, 747679, Note_on_c, 0, 69, 81
1, 747687, Control_c, 0, 67, 0
1, 747689, Note_on_c, 0, 66, 60
1, 747695, Poly_aftertouch_c, 0, 67, 0
1, 747695, Note_off_c, 0, 71, 37
1, 747703, Note_off_c, 0, 69, 69
1, 747719, Note_off_c, 0, 66, 64
1, 747766, Note_on_c, 0, 55, 56
1, 747771, Note_on_c, 0, 61, 62
1, 747773, Note_on_c, 0, 62, 55
1, 747798, Note_off_c, 0, 62, 63
1, 747800, Note_off_c, 0, 61, 65
1, 747807, Note_off_c, 0, 55, 64
1, 747854, Note_on_c, 0, 62, 91
1, 747864, Control_c, 0, 64, 62
1, 747879, Control_c, 0, 64, 82
1, 747884, Note_off_c, 0, 62, 65
1, 747894, Control_c, 0, 64, 127
1, 747929, Note_on_c, 0, 63, 102
1, 747959, Note_off_c, 0, 63, 67
1, 748051, Note_on_c, 0, 55, 59
1, 748052, Note_on_c, 0, 61, 63
1, 748053, Note_on_c, 0, 62, 63
1, 748078, Note_off_c, 0, 62, 66
1, 748080, Note_off_c, 0, 61, 65
1, 748093, Note_off_c, 0, 55, 63
1, 748133, Note_on_c, 0, 62, 85
1, 748189, Control_c, 0, 64, 89
1, 748198, Note_on_c, 0, 66, 93
1, 748204, Note_off_c, 0, 62, 60
1, 748204, Control_c, 0, 64, 53
1, 748219, Control_c, 0, 64, 0
1, 748228, Note_off_c, 0, 66, 63
1, 748291, Note_on_c, 0, 61, 67
1, 748301, Note_on_c, 0, 55, 52
1, 748302, Note_on_c, 0, 62, 59
1, 748308, Control_c, 0, 67, 41
1, 748323, Control_c, 0, 67, 67
1, 748333, Note_off_c, 0, 61, 63
1, 748339, Note_off_c, 0, 62, 65
1, 748345, Note_off_c, 0, 55, 64
1, 748345, Control_c, 0, 67, 91
1, 748360, Control_c, 0, 67, 111
1, 748365, Note_on_c, 0, 69, 84
1, 748374, Control_c, 0, 67, 127
1, 748384, Note_on_c, 0, 66, 58
1, 748392, Note_off_c, 0, 69, 64
1, 748409, Note_off_c, 0, 66, 63
1, 748440, Note_on_c, 0, 76, 83
1, 748467, Note_on_c, 0, 72, 41
1, 748484, Note_off_c, 0, 76, 65
1, 748496, Note_off_c, 0, 72, 37
1, 748542, Note_on_c, 0, 61, 66
1, 748546, Note_on_c, 0, 55, 59
1, 748549, Note_on_c, 0, 62, 59
1, 748582, Note_off_c, 0, 61, 61
1, 748588, Note_off_c, 0, 62, 62
1, 748592, Note_off_c, 0, 55, 62
1, 748608, Note_on_c, 0, 66, 77
1, 748609, Note_on_c, 0, 74, 75
1, 748617, Note_on_c, 0, 71, 59
1, 748630, Note_off_c, 0, 66, 69
1, 748636, Note_on_c, 0, 72, 29
1, 748636, Note_off_c, 0, 71, 62
1, 748636, Note_off_c, 0, 74, 65
1, 748671, Note_off_c, 0, 72, 30
1, 748689, Note_on_c, 0, 74, 74
1, 748693, Note_on_c, 0, 65, 79
1, 748698, Note_on_c, 0, 71, 72
1, 748713, Note_off_c, 0, 71, 68
1, 748721, Note_off_c, 0, 65, 64
1, 748725, Note_off_c, 0, 74, 61
1, 748783, Note_on_c, 0, 61, 63
1, 748788, Note_on_c, 0, 55, 64
1, 748794, Note_on_c, 0, 62, 51
1, 748822, Note_off_c, 0, 62, 62
1, 748829, Note_off_c, 0, 61, 59
1, 748836, Note_off_c, 0, 55, 60
1, 748849, Note_on_c, 0, 71, 74
1, 748866, Note_on_c, 0, 64, 51
1, 748871, Note_on_c, 0, 67, 43
1, 748876, Note_off_c, 0, 71, 62
1, 748890, Note_off_c, 0, 64, 59
1, 748892, Note_on_c, 0, 65, 12
1, 748893, Note_off_c, 0, 65, 127
1, 748895, Note_off_c, 0, 67, 56
1, 748930, Note_on_c, 0, 72, 86
1, 748945, Note_on_c, 0, 64, 75
1, 748957, Note_on_c, 0, 67, 54
1, 748972, Note_off_c, 0, 64, 68
1, 748977, Note_off_c, 0, 67, 60
1, 748983, Note_off_c, 0, 72, 64
1, 749014, Note_on_c, 0, 59, 68
1, 749019, Note_on_c, 0, 55, 60
1, 749046, Note_off_c, 0, 59, 67
1, 749058, Note_off_c, 0, 55, 66
1, 749100, Note_on_c, 0, 69, 85
1, 749113, Note_on_c, 0, 63, 60
1, 749118, Note_on_c, 0, 60, 52
1, 749133, Note_off_c, 0, 63, 63
1, 749134, Note_off_c, 0, 69, 61
1, 749143, Note_off_c, 0, 60, 57
1, 749193, Note_on_c, 0, 62, 79
1, 749194, Note_on_c, 0, 67, 72
1, 749196, Note_on_c, 0, 59, 76
1, 749219, Note_off_c, 0, 62, 68
1, 749222, Note_off_c, 0, 67, 67
1, 749223, Note_off_c, 0, 59, 67
1, 749266, Note_on_c, 0, 49, 69
1, 749281, Note_on_c, 0, 50, 47
1, 749309, Note_off_c, 0, 50, 62
1, 749323, Note_off_c, 0, 49, 63
1, 749359, Note_on_c, 0, 62, 79
1, 749381, Note_off_c, 0, 62, 70
1, 749426, Note_on_c, 0, 71, 75
1, 749435, Note_on_c, 0, 66, 82
1, 749467, Note_off_c, 0, 71, 64
1, 749475, Note_off_c, 0, 66, 60
1, 749506, Note_on_c, 0, 61, 73
1, 749511, Note_on_c, 0, 62, 59
1, 749533, Note_off_c, 0, 62, 63
1, 749536, Note_off_c, 0, 61, 65
1, 749578, Note_on_c, 0, 69, 85
1, 749615, Note_on_c, 0, 60, 32
1, 749629, Note_off_c, 0, 69, 63
1, 749643, Note_off_c, 0, 60, 37
1, 749661, Note_on_c, 0, 62, 56
1, 749670, Note_on_c, 0, 59, 74
1, 749672, Note_on_c, 0, 67, 70
1, 749697, Note_off_c, 0, 59, 66
1, 749697, Note_off_c, 0, 67, 67
1, 749706, Note_off_c, 0, 62, 64
1, 749751, Note_on_c, 0, 54, 70
1, 749753, Note_on_c, 0, 55, 65
1, 749781, Note_off_c, 0, 54, 66
1, 749783, Note_off_c, 0, 55, 65
1, 749819, Note_on_c, 0, 62, 81
1, 749825, Note_on_c, 0, 59, 60
1, 749852, Note_off_c, 0, 62, 67
1, 749854, Note_off_c, 0, 59, 62
1, 749903, Note_on_c, 0, 67, 85
1, 749938, Note_off_c, 0, 67, 64
1, 749987, Note_on_c, 0, 58, 61
1, 750011, Note_on_c, 0, 59, 28
1, 750017, Note_off_c, 0, 58, 65
1, 750049, Note_on_c, 0, 67, 92
1, 750052, Note_off_c, 0, 59, 29
1, 750062, Note_on_c, 0, 62, 73
1, 750082, Note_off_c, 0, 67, 65
1, 750089, Note_off_c, 0, 62, 69
1, 750141, Note_on_c, 0, 71, 86
1, 750150, Note_on_c, 0, 67, 63
1, 750169, Note_off_c, 0, 67, 63
1, 750172, Note_off_c, 0, 71, 66
1, 750216, Note_on_c, 0, 62, 65
1, 750225, Note_on_c, 0, 61, 68
1, 750249, Note_off_c, 0, 62, 66
1, 750254, Note_off_c, 0, 61, 66
1, 750283, Note_on_c, 0, 71, 87
1, 750290, Note_on_c, 0, 67, 56
1, 750311, Note_off_c, 0, 71, 63
1, 750318, Note_off_c, 0, 67, 66
1, 750367, Note_on_c, 0, 74, 74
1, 750378, Note_on_c, 0, 71, 61
1, 750392, Note_off_c, 0, 74, 68
1, 750398, Note_off_c, 0, 71, 63
1, 750433, Note_on_c, 0, 67, 41
1, 750433, Note_on_c, 0, 66, 57
1, 750466, Note_off_c, 0, 67, 63
1, 750471, Note_off_c, 0, 66, 65
1, 750496, Control_c, 0, 67, 124
1, 750502, Note_on_c, 0, 74, 81
1, 750504, Note_on_c, 0, 71, 62
1, 750511, Control_c, 0, 67, 100
1, 750524, Note_off_c, 0, 74, 69
1, 750526, Control_c, 0, 67, 77
1, 750535, Note_off_c, 0, 71, 67
1, 750541, Control_c, 0, 67, 54
1, 750555, Control_c, 0, 67, 36
1, 750570, Control_c, 0, 67, 19
1, 750586, Note_on_c, 0, 74, 83
1, 750591, Note_on_c, 0, 79, 83
1, 750592, Control_c, 0, 67, 11
1, 750607, Control_c, 0, 67, 0
1, 750612, Note_off_c, 0, 74, 67
1, 750622, Note_off_c, 0, 79, 67
1, 750651, Control_c, 0, 64, 13
1, 750655, Note_on_c, 0, 73, 77
1, 750664, Note_on_c, 0, 74, 54
1, 750666, Control_c, 0, 64, 15
1, 750672, Note_on_c, 0, 67, 56
1, 750684, Note_off_c, 0, 74, 61
1, 750686, Note_off_c, 0, 73, 66
1, 750704, Note_off_c, 0, 67, 65
1, 750741, Note_on_c, 0, 81, 91
1, 750755, Note_on_c, 0, 74, 67
1, 750764, Note_on_c, 0, 78, 43
1, 750784, Note_off_c, 0, 74, 66
1, 750791, Note_off_c, 0, 78, 39
1, 750794, Note_off_c, 0, 81, 63
1, 750828, Note_on_c, 0, 79, 66
1, 750828, Note_on_c, 0, 83, 78
1, 750829, Control_c, 0, 64, 14
1, 750844, Note_off_c, 0, 79, 67
1, 750844, Control_c, 0, 64, 12
1, 750851, Note_off_c, 0, 83, 69
1, 750874, Control_c, 0, 64, 11
1, 750898, Note_on_c, 0, 61, 70
1, 750898, Note_on_c, 0, 55, 57
1, 750903, Note_on_c, 0, 62, 55
1, 750929, Note_off_c, 0, 61, 65
1, 750931, Note_off_c, 0, 62, 65
1, 750931, Note_off_c, 0, 55, 64
1, 750980, Note_on_c, 0, 84, 78
1, 750984, Note_on_c, 0, 81, 64
1, 750991, Note_on_c, 0, 79, 59
1, 751005, Note_off_c, 0, 84, 67
1, 751007, Note_off_c, 0, 81, 65
1, 751009, Note_off_c, 0, 79, 65
1, 751053, Control_c, 0, 67, 9
1, 751053, Note_on_c, 0, 86, 80
1, 751067, Control_c, 0, 67, 10
1, 751081, Note_off_c, 0, 86, 66
1, 751091, Note_on_c, 0, 79, 30
1, 751092, Note_off_c, 0, 79, 127
1, 751092, Note_on_c, 0, 83, 18
1, 751097, Control_c, 0, 67, 11
1, 751131, Note_off_c, 0, 83, 31
1, 751149, Note_on_c, 0, 73, 63
1, 751160, Note_on_c, 0, 67, 48
1, 751178, Note_off_c, 0, 73, 67
1, 751182, Note_on_c, 0, 74, 12
1, 751188, Note_off_c, 0, 67, 63
1, 751205, Note_off_c, 0, 74, 35
1, 751220, Note_on_c, 0, 83, 64
1, 751225, Note_on_c, 0, 86, 65
1, 751235, Note_off_c, 0, 83, 67
1, 751238, Note_on_c, 0, 79, 42
1, 751242, Note_off_c, 0, 86, 66
1, 751245, Control_c, 0, 67, 10
1, 751263, Note_off_c, 0, 79, 55
1, 751279, Note_on_c, 0, 88, 79
1, 751287, Note_on_c, 0, 84, 77
1, 751308, Note_off_c, 0, 84, 72
1, 751319, Note_off_c, 0, 88, 66
1, 751322, Note_on_c, 0, 86, 40
1, 751323, Note_off_c, 0, 86, 127
1, 751385, Control_c, 0, 64, 13
1, 751393, Note_on_c, 0, 55, 51
1, 751400, Control_c, 0, 64, 16
1, 751402, Note_on_c, 0, 62, 40
1, 751403, Note_on_c, 0, 61, 51
1, 751415, Control_c, 0, 64, 19
1, 751427, Note_off_c, 0, 55, 61
1, 751430, Note_off_c, 0, 62, 60
1, 751430, Control_c, 0, 64, 23
1, 751439, Note_off_c, 0, 61, 64
1, 751445, Control_c, 0, 64, 25
1, 751448, Note_on_c, 0, 86, 69
1, 751456, Note_on_c, 0, 78, 64
1, 751459, Control_c, 0, 64, 26
1, 751464, Note_off_c, 0, 86, 67
1, 751474, Note_off_c, 0, 78, 62
1, 751474, Control_c, 0, 64, 27
1, 751489, Control_c, 0, 64, 30
1, 751504, Control_c, 0, 64, 35
1, 751504, Control_c, 0, 67, 11
1, 751512, Note_on_c, 0, 83, 57
1, 751519, Note_on_c, 0, 86, 72
1, 751519, Control_c, 0, 64, 40
1, 751519, Control_c, 0, 67, 12
1, 751523, Note_on_c, 0, 78, 69
1, 751533, Control_c, 0, 64, 44
1, 751533, Control_c, 0, 67, 12
1, 751542, Note_off_c, 0, 83, 67
1, 751545, Note_off_c, 0, 86, 69
1, 751548, Control_c, 0, 64, 46
1, 751548, Control_c, 0, 67, 14
1, 751551, Note_off_c, 0, 78, 65
1, 751578, Control_c, 0, 64, 47
1, 751578, Control_c, 0, 67, 14
1, 751593, Control_c, 0, 64, 50
1, 751593, Control_c, 0, 67, 15
1, 751608, Control_c, 0, 64, 55
1, 751608, Control_c, 0, 67, 16
1, 751623, Note_on_c, 0, 73, 62
1, 751623, Control_c, 0, 64, 58
1, 751632, Note_on_c, 0, 67, 60
1, 751636, Note_on_c, 0, 74, 44
1, 751637, Control_c, 0, 64, 59
1, 751651, Control_c, 0, 67, 15
1, 751653, Note_off_c, 0, 73, 67
1, 751657, Note_off_c, 0, 74, 58
1, 751664, Note_off_c, 0, 67, 66
1, 751666, Control_c, 0, 67, 14
1, 751669, Note_on_c, 0, 76, 73
1, 751682, Control_c, 0, 64, 58
1, 751682, Control_c, 0, 67, 12
1, 751697, Note_off_c, 0, 76, 69
1, 751697, Control_c, 0, 64, 56
1, 751697, Control_c, 0, 67, 11
1, 751703, Note_on_c, 0, 85, 25
1, 751704, Note_off_c, 0, 85, 127
1, 751712, Control_c, 0, 64, 53
1, 751712, Control_c, 0, 67, 10
1, 751727, Control_c, 0, 64, 48
1, 751738, Note_on_c, 0, 84, 83
1, 751740, Note_on_c, 0, 78, 81
1, 751742, Control_c, 0, 64, 41
1, 751742, Control_c, 0, 67, 9
1, 751756, Control_c, 0, 64, 31
1, 751769, Note_off_c, 0, 78, 67
1, 751771, Control_c, 0, 64, 13
1, 751772, Note_off_c, 0, 84, 68
1, 751786, Control_c, 0, 64, 0
1, 751856, Note_on_c, 0, 61, 66
1, 751865, Note_on_c, 0, 62, 52
1, 751869, Note_on_c, 0, 55, 45
1, 751885, Note_off_c, 0, 61, 66
1, 751890, Note_off_c, 0, 62, 61
1, 751892, Note_on_c, 0, 83, 79
1, 751897, Note_off_c, 0, 55, 55
1, 751904, Control_c, 0, 67, 9
1, 751915, Note_on_c, 0, 79, 55
1, 751919, Control_c, 0, 67, 8
1, 751957, Note_on_c, 0, 78, 67
1, 751960, Note_off_c, 0, 79, 43
1, 751962, Note_on_c, 0, 81, 78
1, 751970, Note_off_c, 0, 83, 44
1, 751983, Note_off_c, 0, 81, 73
1, 751992, Note_off_c, 0, 78, 65
1, 752067, Control_c, 0, 67, 0
1, 752077, Note_on_c, 0, 74, 55
1, 752088, Note_on_c, 0, 73, 52
1, 752091, Note_on_c, 0, 67, 47
1, 752115, Note_off_c, 0, 74, 63
1, 752119, Control_c, 0, 64, 48
1, 752126, Note_off_c, 0, 73, 66
1, 752134, Control_c, 0, 64, 66
1, 752136, Note_off_c, 0, 67, 62
1, 752139, Note_on_c, 0, 62, 92
1, 752149, Control_c, 0, 64, 81
1, 752163, Control_c, 0, 64, 127
1, 752168, Note_off_c, 0, 62, 65
1, 752219, Note_on_c, 0, 63, 101
1, 752234, Note_off_c, 0, 63, 74
1, 752353, Note_on_c, 0, 74, 62
1, 752359, Note_on_c, 0, 73, 56
1, 752388, Note_off_c, 0, 74, 63
1, 752413, Note_on_c, 0, 62, 88
1, 752429, Poly_aftertouch_c, 0, 67, 127
1, 752430, Note_off_c, 0, 73, 61
1, 752457, Poly_aftertouch_c, 0, 67, 0
1, 752469, Note_on_c, 0, 66, 90
1, 752469, Note_off_c, 0, 62, 66
1, 752475, Control_c, 0, 64, 83
1, 752490, Control_c, 0, 64, 59
1, 752502, Note_off_c, 0, 66, 62
1, 752505, Control_c, 0, 64, 0
1, 752520, Control_c, 0, 67, 8
1, 752535, Control_c, 0, 67, 9
1, 752550, Control_c, 0, 67, 10
1, 752559, Note_on_c, 0, 73, 71
1, 752565, Note_on_c, 0, 67, 58
1, 752579, Control_c, 0, 67, 11
1, 752583, Note_off_c, 0, 73, 69
1, 752594, Control_c, 0, 67, 12
1, 752598, Note_off_c, 0, 67, 64
1, 752609, Control_c, 0, 67, 12
1, 752651, Note_on_c, 0, 81, 79
1, 752653, Note_on_c, 0, 78, 77
1, 752660, Note_on_c, 0, 80, 39
1, 752661, Note_off_c, 0, 80, 127
1, 752672, Note_off_c, 0, 81, 72
1, 752678, Note_off_c, 0, 78, 70
1, 752717, Note_on_c, 0, 88, 90
1, 752744, Note_on_c, 0, 78, 66
1, 752758, Note_off_c, 0, 88, 66
1, 752761, Note_off_c, 0, 78, 63
1, 752795, Note_on_c, 0, 62, 51
1, 752796, Note_on_c, 0, 55, 57
1, 752798, Note_on_c, 0, 61, 63
1, 752834, Note_off_c, 0, 55, 63
1, 752837, Note_off_c, 0, 62, 65
1, 752838, Control_c, 0, 67, 12
1, 752839, Note_off_c, 0, 61, 65
1, 752884, Note_on_c, 0, 83, 76
1, 752884, Note_on_c, 0, 78, 67
1, 752893, Note_on_c, 0, 86, 69
1, 752898, Control_c, 0, 67, 11
1, 752900, Note_off_c, 0, 78, 65
1, 752906, Note_off_c, 0, 83, 71
1, 752909, Note_off_c, 0, 86, 64
1, 752912, Control_c, 0, 67, 11
1, 752946, Note_on_c, 0, 77, 79
1, 752948, Note_on_c, 0, 86, 83
1, 752954, Note_on_c, 0, 83, 81
1, 752956, Control_c, 0, 67, 11
1, 752975, Note_off_c, 0, 83, 71
1, 752977, Note_off_c, 0, 86, 67
1, 752979, Note_off_c, 0, 77, 65
1, 753045, Note_on_c, 0, 67, 52
1, 753045, Note_on_c, 0, 73, 67
1, 753054, Note_on_c, 0, 74, 31
1, 753060, Control_c, 0, 67, 10
1, 753075, Control_c, 0, 67, 9
1, 753077, Note_off_c, 0, 73, 63
1, 753082, Note_off_c, 0, 74, 51
1, 753087, Note_off_c, 0, 67, 59
1, 753090, Control_c, 0, 67, 9
1, 753104, Control_c, 0, 67, 8
1, 753105, Note_on_c, 0, 83, 77
1, 753117, Note_on_c, 0, 77, 62
1, 753120, Note_on_c, 0, 79, 52
1, 753126, Note_off_c, 0, 83, 70
1, 753134, Control_c, 0, 67, 0
1, 753135, Note_off_c, 0, 77, 64
1, 753140, Note_off_c, 0, 79, 62
1, 753182, Note_on_c, 0, 86, 60
1, 753182, Note_on_c, 0, 84, 66
1, 753183, Note_on_c, 0, 79, 47
1, 753194, Note_on_c, 0, 76, 34
1, 753196, Note_on_c, 0, 77, 48
1, 753200, Note_off_c, 0, 84, 67
1, 753201, Note_off_c, 0, 86, 62
1, 753207, Note_off_c, 0, 79, 51
1, 753209, Control_c, 0, 67, 8
1, 753217, Note_off_c, 0, 76, 46
1, 753218, Note_off_c, 0, 77, 38
1, 753223, Control_c, 0, 67, 9
1, 753238, Control_c, 0, 67, 9
1, 753253, Control_c, 0, 67, 10
1, 753263, Note_on_c, 0, 71, 70
1, 753286, Note_on_c, 0, 67, 40
1, 753295, Note_off_c, 0, 71, 65
1, 753299, Note_on_c, 0, 69, 36
1, 753309, Poly_aftertouch_c, 0, 72, 0
1, 753311, Note_off_c, 0, 67, 58
1, 753325, Note_on_c, 0, 81, 83
1, 753328, Control_c, 0, 67, 11
1, 753328, Note_off_c, 0, 69, 47
1, 753329, Note_on_c, 0, 75, 75
1, 753346, Poly_aftertouch_c, 0, 72, 0
1, 753353, Note_off_c, 0, 75, 69
1, 753358, Control_c, 0, 67, 11
1, 753358, Note_off_c, 0, 81, 52
1, 753395, Note_on_c, 0, 79, 85
1, 753403, Note_on_c, 0, 71, 85
1, 753403, Note_on_c, 0, 74, 82
1, 753426, Note_off_c, 0, 74, 69
1, 753429, Note_off_c, 0, 71, 66
1, 753435, Note_off_c, 0, 79, 66
1, 753488, Note_on_c, 0, 62, 70
1, 753491, Control_c, 0, 67, 10
1, 753493, Note_on_c, 0, 61, 78
1, 753506, Control_c, 0, 67, 9
1, 753520, Control_c, 0, 67, 0
1, 753525, Note_off_c, 0, 62, 64
1, 753539, Note_off_c, 0, 61, 60
1, 753566, Note_on_c, 0, 74, 88
1, 753597, Note_off_c, 0, 74, 67
1, 753602, Note_on_c, 0, 71, 31
1, 753632, Note_on_c, 0, 83, 89
1, 753633, Note_off_c, 0, 71, 39
1, 753648, Note_on_c, 0, 78, 84
1, 753661, Control_c, 0, 67, 8
1, 753669, Note_off_c, 0, 83, 65
1, 753671, Note_off_c, 0, 78, 67
1, 753676, Control_c, 0, 67, 9
1, 753726, Note_on_c, 0, 74, 71
1, 753727, Note_on_c, 0, 73, 79
1, 753751, Note_off_c, 0, 74, 68
1, 753754, Note_off_c, 0, 73, 66
1, 753786, Note_on_c, 0, 81, 82
1, 753840, Note_off_c, 0, 81, 57
1, 753857, Note_on_c, 0, 74, 75
1, 753862, Note_on_c, 0, 79, 73
1, 753867, Note_on_c, 0, 71, 80
1, 753888, Note_off_c, 0, 71, 72
1, 753891, Note_off_c, 0, 74, 65
1, 753899, Note_off_c, 0, 79, 66
1, 753953, Note_on_c, 0, 66, 75
1, 753956, Note_on_c, 0, 67, 66
1, 753983, Note_off_c, 0, 66, 65
1, 753984, Note_off_c, 0, 67, 67
1, 754009, Note_on_c, 0, 74, 69
1, 754009, Note_on_c, 0, 79, 76
1, 754035, Note_off_c, 0, 74, 68
1, 754035, Note_off_c, 0, 79, 64
1, 754066, Note_on_c, 0, 83, 89
1, 754079, Poly_aftertouch_c, 0, 79, 0
1, 754098, Note_off_c, 0, 83, 67
1, 754136, Control_c, 0, 67, 8
1, 754150, Control_c, 0, 67, 0
1, 754151, Note_on_c, 0, 73, 75
1, 754154, Note_on_c, 0, 74, 56
1, 754183, Note_off_c, 0, 73, 66
1, 754186, Note_off_c, 0, 74, 65
1, 754209, Note_on_c, 0, 83, 91
1, 754214, Note_on_c, 0, 79, 75
1, 754237, Note_off_c, 0, 79, 71
1, 754239, Control_c, 0, 64, 14
1, 754254, Control_c, 0, 64, 15
1, 754261, Note_off_c, 0, 83, 0
1, 754267, Note_on_c, 0, 86, 90
1, 754283, Control_c, 0, 64, 17
1, 754298, Control_c, 0, 64, 23
1, 754300, Poly_aftertouch_c, 0, 83, 0
1, 754309, Note_off_c, 0, 86, 65
1, 754313, Control_c, 0, 64, 30
1, 754335, Control_c, 0, 64, 34
1, 754350, Control_c, 0, 64, 36
1, 754363, Note_on_c, 0, 78, 76
1, 754365, Control_c, 0, 64, 38
1, 754367, Note_on_c, 0, 79, 71
1, 754380, Control_c, 0, 64, 39
1, 754393, Note_off_c, 0, 79, 70
1, 754395, Control_c, 0, 64, 41
1, 754407, Note_off_c, 0, 78, 62
1, 754409, Control_c, 0, 64, 43
1, 754410, Note_on_c, 0, 86, 93
1, 754410, Note_on_c, 0, 83, 85
1, 754424, Control_c, 0, 64, 45
1, 754433, Note_off_c, 0, 83, 67
1, 754436, Note_off_c, 0, 86, 68
1, 754439, Control_c, 0, 64, 47
1, 754454, Control_c, 0, 64, 50
1, 754469, Control_c, 0, 64, 55
1, 754483, Note_on_c, 0, 91, 100
1, 754483, Control_c, 0, 64, 60
1, 754484, Note_on_c, 0, 86, 92
1, 754498, Control_c, 0, 64, 65
1, 754511, Note_off_c, 0, 86, 68
1, 754513, Control_c, 0, 64, 74
1, 754514, Note_off_c, 0, 91, 67
1, 754528, Control_c, 0, 64, 98
1, 754543, Control_c, 0, 64, 127
1, 754700, Note_on_c, 0, 43, 71
1, 754720, Control_c, 0, 64, 107
1, 754727, Note_off_c, 0, 43, 65
1, 754734, Note_on_c, 0, 57, 49
1, 754735, Control_c, 0, 64, 65
1, 754750, Control_c, 0, 64, 0
1, 754762, Note_off_c, 0, 57, 38
1, 754765, Note_on_c, 0, 67, 85
1, 754767, Note_on_c, 0, 59, 92
1, 754771, Note_on_c, 0, 43, 96
1, 754773, Note_on_c, 0, 47, 96
1, 754773, Note_on_c, 0, 55, 90
1, 754779, Note_on_c, 0, 60, 75
1, 754794, Note_off_c, 0, 55, 71
1, 754795, Note_off_c, 0, 60, 41
1, 754798, Note_off_c, 0, 59, 67
1, 754799, Note_off_c, 0, 47, 67
1, 754809, Note_off_c, 0, 43, 65
1, 754810, Note_off_c, 0, 67, 62
1, 754959, Note_on_c, 0, 48, 88
1, 754961, Note_on_c, 0, 45, 69
1, 754975, Note_on_c, 0, 67, 58
1, 754982, Note_off_c, 0, 48, 70
1, 754982, Note_on_c, 0, 47, 54
1, 754993, Note_off_c, 0, 45, 65
1, 754995, Note_off_c, 0, 67, 61
1, 755010, Note_off_c, 0, 47, 36
1, 755024, Note_on_c, 0, 62, 87
1, 755034, Note_on_c, 0, 48, 84
1, 755035, Note_on_c, 0, 50, 92
1, 755039, Note_on_c, 0, 55, 2
1, 755040, Note_on_c, 0, 67, 72
1, 755041, Note_on_c, 0, 45, 72
1, 755053, Note_on_c, 0, 47, 70
1, 755057, Note_off_c, 0, 48, 70
1, 755058, Note_off_c, 0, 50, 70
1, 755060, Note_off_c, 0, 62, 64
1, 755062, Note_off_c, 0, 45, 66
1, 755063, Note_off_c, 0, 67, 69
1, 755075, Note_off_c, 0, 55, 57
1, 755090, Note_off_c, 0, 47, 63
1, 755211, Note_on_c, 0, 48, 72
1, 755213, Note_on_c, 0, 52, 79
1, 755218, Note_on_c, 0, 64, 78
1, 755220, Note_on_c, 0, 55, 68
1, 755239, Note_off_c, 0, 52, 69
1, 755242, Note_off_c, 0, 48, 67
1, 755243, Note_off_c, 0, 64, 67
1, 755247, Control_c, 0, 64, 48
1, 755248, Note_off_c, 0, 55, 63
1, 755262, Control_c, 0, 64, 63
1, 755277, Control_c, 0, 64, 64
1, 755283, Note_on_c, 0, 53, 100
1, 755285, Note_on_c, 0, 55, 98
1, 755286, Note_on_c, 0, 65, 89
1, 755288, Note_on_c, 0, 50, 92
1, 755288, Note_on_c, 0, 67, 60
1, 755294, Note_on_c, 0, 64, 74
1, 755306, Control_c, 0, 64, 63
1, 755316, Note_off_c, 0, 64, 70
1, 755316, Note_off_c, 0, 53, 69
1, 755319, Note_off_c, 0, 67, 65
1, 755321, Control_c, 0, 64, 61
1, 755325, Note_off_c, 0, 50, 65
1, 755328, Note_off_c, 0, 55, 61
1, 755328, Note_off_c, 0, 65, 65
1, 755336, Control_c, 0, 64, 48
1, 755351, Control_c, 0, 64, 0
1, 755461, Note_on_c, 0, 47, 80
1, 755470, Note_on_c, 0, 55, 80
1, 755474, Note_on_c, 0, 62, 76
1, 755474, Note_on_c, 0, 50, 64
1, 755490, Note_off_c, 0, 47, 66
1, 755494, Note_off_c, 0, 55, 66
1, 755498, Note_off_c, 0, 50, 59
1, 755500, Note_off_c, 0, 62, 67
1, 755538, Note_on_c, 0, 67, 97
1, 755543, Note_on_c, 0, 43, 87
1, 755543, Note_on_c, 0, 47, 85
1, 755545, Note_on_c, 0, 55, 77
1, 755546, Note_on_c, 0, 59, 74
1, 755571, Note_off_c, 0, 59, 67
1, 755573, Note_off_c, 0, 47, 67
1, 755573, Note_off_c, 0, 55, 68
1, 755582, Note_off_c, 0, 67, 67
1, 755592, Note_off_c, 0, 43, 65
1, 755713, Note_on_c, 0, 53, 88
1, 755724, Note_on_c, 0, 67, 91
1, 755724, Note_on_c, 0, 59, 79
1, 755734, Note_on_c, 0, 41, 50
1, 755736, Note_off_c, 0, 53, 69
1, 755738, Note_on_c, 0, 40, 56
1, 755742, Note_off_c, 0, 67, 73
1, 755748, Note_off_c, 0, 59, 67
1, 755766, Note_off_c, 0, 41, 55
1, 755766, Note_on_c, 0, 52, 7
1, 755767, Note_off_c, 0, 52, 127
1, 755770, Note_off_c, 0, 40, 58
1, 755781, Control_c, 0, 64, 63
1, 755790, Note_on_c, 0, 69, 81
1, 755796, Control_c, 0, 64, 81
1, 755797, Note_on_c, 0, 60, 99
1, 755802, Note_on_c, 0, 52, 40
1, 755804, Note_on_c, 0, 40, 85
1, 755811, Control_c, 0, 64, 127
1, 755828, Note_on_c, 0, 50, 58
1, 755840, Note_off_c, 0, 60, 66
1, 755841, Note_off_c, 0, 40, 68
1, 755844, Note_off_c, 0, 69, 67
1, 755847, Control_c, 0, 64, 82
1, 755851, Note_on_c, 0, 64, 9
1, 755852, Note_off_c, 0, 50, 60
1, 755853, Note_off_c, 0, 52, 67
1, 755862, Control_c, 0, 64, 62
1, 755876, Note_off_c, 0, 64, 50
1, 755877, Control_c, 0, 64, 27
1, 755892, Control_c, 0, 64, 0
1, 755990, Note_on_c, 0, 52, 79
1, 755998, Note_on_c, 0, 55, 74
1, 756005, Note_on_c, 0, 60, 72
1, 756012, Note_on_c, 0, 67, 57
1, 756026, Note_off_c, 0, 55, 65
1, 756029, Note_off_c, 0, 52, 66
1, 756032, Note_off_c, 0, 60, 63
1, 756034, Note_off_c, 0, 67, 39
1, 756058, Note_on_c, 0, 66, 91
1, 756069, Note_on_c, 0, 64, 81
1, 756071, Note_on_c, 0, 54, 94
1, 756074, Note_on_c, 0, 52, 75
1, 756080, Poly_aftertouch_c, 0, 60, 0
1, 756091, Note_off_c, 0, 64, 71
1, 756099, Note_off_c, 0, 66, 66
1, 756103, Note_off_c, 0, 52, 69
1, 756109, Note_off_c, 0, 54, 64
1, 756239, Note_on_c, 0, 55, 86
1, 756246, Note_on_c, 0, 67, 93
1, 756247, Control_c, 0, 64, 19
1, 756249, Note_on_c, 0, 52, 77
1, 756258, Note_on_c, 0, 60, 72
1, 756261, Note_off_c, 0, 55, 70
1, 756262, Control_c, 0, 64, 59
1, 756273, Note_off_c, 0, 67, 60
1, 756275, Note_off_c, 0, 52, 68
1, 756277, Control_c, 0, 64, 62
1, 756283, Note_off_c, 0, 60, 65
1, 756285, Note_on_c, 0, 64, 22
1, 756292, Control_c, 0, 64, 63
1, 756307, Control_c, 0, 64, 64
1, 756312, Note_off_c, 0, 64, 0
1, 756312, Note_on_c, 0, 64, 22
1, 756318, Note_on_c, 0, 52, 94
1, 756321, Note_on_c, 0, 55, 98
1, 756321, Control_c, 0, 64, 68
1, 756326, Note_on_c, 0, 60, 81
1, 756336, Control_c, 0, 64, 75
1, 756347, Note_off_c, 0, 55, 66
1, 756351, Note_off_c, 0, 60, 70
1, 756351, Control_c, 0, 64, 88
1, 756359, Note_off_c, 0, 64, 65
1, 756361, Note_off_c, 0, 52, 68
1, 756365, Control_c, 0, 64, 114
1, 756380, Control_c, 0, 64, 127
1, 756406, Poly_aftertouch_c, 0, 67, 0
1, 756495, Note_on_c, 0, 48, 92
1, 756500, Note_on_c, 0, 36, 84
1, 756508, Note_on_c, 0, 60, 96
1, 756525, Note_off_c, 0, 48, 64
1, 756528, Note_off_c, 0, 36, 67
1, 756539, Note_off_c, 0, 60, 66
1, 756544, Control_c, 0, 64, 75
1, 756559, Control_c, 0, 64, 0
1, 756580, Note_on_c, 0, 64, 96
1, 756590, Note_on_c, 0, 52, 98
1, 756595, Note_on_c, 0, 40, 78
1, 756602, Note_on_c, 0, 38, 63
1, 756614, Note_off_c, 0, 64, 69
1, 756621, Note_on_c, 0, 50, 37
1, 756622, Note_off_c, 0, 50, 127
1, 756628, Note_off_c, 0, 38, 59
1, 756628, Note_off_c, 0, 40, 68
1, 756628, Note_off_c, 0, 52, 68
1, 756770, Note_on_c, 0, 45, 69
1, 756771, Note_on_c, 0, 67, 88
1, 756771, Note_on_c, 0, 79, 91
1, 756774, Note_on_c, 0, 55, 80
1, 756792, Note_off_c, 0, 45, 61
1, 756792, Note_off_c, 0, 67, 67
1, 756798, Note_off_c, 0, 55, 66
1, 756811, Note_off_c, 0, 79, 59
1, 756818, Control_c, 0, 64, 52
1, 756833, Control_c, 0, 64, 72
1, 756840, Note_on_c, 0, 55, 88
1, 756842, Note_on_c, 0, 59, 99
1, 756847, Note_on_c, 0, 79, 76
1, 756848, Control_c, 0, 64, 107
1, 756851, Note_on_c, 0, 67, 88
1, 756852, Note_on_c, 0, 71, 88
1, 756863, Control_c, 0, 64, 127
1, 756878, Note_off_c, 0, 59, 68
1, 756888, Note_off_c, 0, 67, 62
1, 756889, Note_off_c, 0, 79, 68
1, 756890, Note_off_c, 0, 55, 64
1, 756890, Note_off_c, 0, 71, 62
1, 757026, Control_c, 0, 64, 72
1, 757034, Note_on_c, 0, 57, 82
1, 757038, Note_on_c, 0, 72, 81
1, 757041, Control_c, 0, 64, 0
1, 757043, Note_on_c, 0, 67, 76
1, 757044, Note_on_c, 0, 60, 68
1, 757045, Note_on_c, 0, 79, 74
1, 757051, Note_on_c, 0, 59, 67
1, 757058, Note_off_c, 0, 72, 71
1, 757060, Note_off_c, 0, 57, 70
1, 757062, Note_off_c, 0, 60, 66
1, 757065, Note_off_c, 0, 67, 69
1, 757068, Note_off_c, 0, 59, 67
1, 757069, Note_off_c, 0, 79, 71
1, 757111, Note_on_c, 0, 74, 97
1, 757111, Note_on_c, 0, 59, 102
1, 757114, Note_on_c, 0, 62, 96
1, 757114, Note_on_c, 0, 67, 89
1, 757128, Note_on_c, 0, 79, 67
1, 757140, Note_off_c, 0, 67, 63
1, 757143, Note_off_c, 0, 62, 67
1, 757149, Note_off_c, 0, 74, 66
1, 757154, Note_off_c, 0, 59, 67
1, 757155, Note_off_c, 0, 79, 67
1, 757295, Note_on_c, 0, 60, 78
1, 757298, Note_on_c, 0, 76, 86
1, 757299, Note_on_c, 0, 67, 88
1, 757302, Note_on_c, 0, 64, 77
1, 757325, Note_off_c, 0, 76, 72
1, 757325, Note_off_c, 0, 67, 72
1, 757328, Note_on_c, 0, 79, 50
1, 757329, Note_off_c, 0, 60, 67
1, 757331, Control_c, 0, 64, 34
1, 757334, Note_off_c, 0, 64, 68
1, 757346, Control_c, 0, 64, 67
1, 757351, Note_off_c, 0, 79, 39
1, 757361, Control_c, 0, 64, 87
1, 757373, Note_on_c, 0, 65, 100
1, 757375, Control_c, 0, 64, 127
1, 757376, Note_on_c, 0, 67, 96
1, 757378, Note_on_c, 0, 62, 94
1, 757379, Note_on_c, 0, 77, 97
1, 757386, Note_on_c, 0, 79, 74
1, 757399, Note_on_c, 0, 76, 52
1, 757413, Note_off_c, 0, 65, 67
1, 757414, Note_off_c, 0, 79, 65
1, 757421, Note_off_c, 0, 76, 55
1, 757422, Note_off_c, 0, 67, 65
1, 757423, Note_off_c, 0, 62, 66
1, 757428, Note_off_c, 0, 77, 65
1, 757561, Note_on_c, 0, 60, 66
1, 757561, Note_on_c, 0, 64, 62
1, 757562, Note_on_c, 0, 67, 84
1, 757564, Note_on_c, 0, 74, 83
1, 757568, Control_c, 0, 64, 85
1, 757576, Note_off_c, 0, 64, 67
1, 757582, Control_c, 0, 64, 42
1, 757583, Note_off_c, 0, 67, 70
1, 757584, Note_off_c, 0, 74, 70
1, 757585, Note_off_c, 0, 60, 58
1, 757597, Control_c, 0, 64, 0
1, 757635, Note_on_c, 0, 59, 46
1, 757638, Note_on_c, 0, 55, 98
1, 757639, Note_on_c, 0, 79, 95
1, 757647, Note_on_c, 0, 67, 85
1, 757651, Note_on_c, 0, 71, 72
1, 757668, Note_off_c, 0, 67, 67
1, 757675, Note_off_c, 0, 71, 70
1, 757684, Note_off_c, 0, 59, 64
1, 757689, Note_off_c, 0, 79, 66
1, 757690, Note_off_c, 0, 55, 65
1, 757816, Note_on_c, 0, 65, 85
1, 757818, Note_on_c, 0, 79, 96
1, 757819, Note_on_c, 0, 71, 92
1, 757820, Note_on_c, 0, 53, 79
1, 757837, Note_off_c, 0, 71, 73
1, 757838, Note_off_c, 0, 65, 70
1, 757847, Note_off_c, 0, 53, 66
1, 757848, Note_off_c, 0, 79, 64
1, 757865, Control_c, 0, 64, 63
1, 757880, Control_c, 0, 64, 79
1, 757895, Control_c, 0, 64, 127
1, 757900, Note_on_c, 0, 64, 86
1, 757900, Note_on_c, 0, 81, 97
1, 757903, Note_on_c, 0, 52, 82
1, 757904, Note_on_c, 0, 50, 86
1, 757906, Note_on_c, 0, 72, 97
1, 757929, Note_off_c, 0, 50, 69
1, 757933, Note_on_c, 0, 62, 37
1, 757933, Note_off_c, 0, 52, 67
1, 757937, Note_off_c, 0, 72, 68
1, 757939, Note_off_c, 0, 64, 67
1, 757945, Note_off_c, 0, 81, 67
1, 757963, Note_off_c, 0, 62, 58
1, 758081, Control_c, 0, 64, 115
1, 758095, Note_on_c, 0, 79, 96
1, 758096, Note_on_c, 0, 64, 78
1, 758096, Control_c, 0, 64, 65
1, 758098, Note_on_c, 0, 67, 79
1, 758103, Note_on_c, 0, 72, 78
1, 758111, Control_c, 0, 64, 0
1, 758121, Note_off_c, 0, 67, 69
1, 758127, Note_off_c, 0, 72, 68
1, 758128, Note_off_c, 0, 79, 63
1, 758134, Note_off_c, 0, 64, 64
1, 758174, Note_on_c, 0, 64, 77
1, 758174, Note_on_c, 0, 78, 101
1, 758175, Note_on_c, 0, 66, 92
1, 758176, Note_on_c, 0, 72, 91
1, 758191, Note_on_c, 0, 76, 60
1, 758202, Note_off_c, 0, 72, 66
1, 758209, Note_off_c, 0, 64, 66
1, 758211, Note_off_c, 0, 76, 58
1, 758214, Note_off_c, 0, 78, 67
1, 758217, Note_off_c, 0, 66, 64
1, 758354, Note_on_c, 0, 64, 75
1, 758356, Note_on_c, 0, 67, 73
1, 758357, Note_on_c, 0, 79, 92
1, 758372, Note_off_c, 0, 67, 68
1, 758377, Note_off_c, 0, 64, 70
1, 758382, Note_on_c, 0, 72, 52
1, 758383, Note_off_c, 0, 79, 67
1, 758391, Control_c, 0, 64, 50
1, 758405, Note_off_c, 0, 72, 60
1, 758406, Control_c, 0, 64, 122
1, 758421, Control_c, 0, 64, 127
1, 758428, Note_on_c, 0, 67, 96
1, 758432, Note_on_c, 0, 76, 106
1, 758436, Note_on_c, 0, 64, 96
1, 758461, Note_off_c, 0, 67, 68
1, 758467, Note_off_c, 0, 76, 70
1, 758476, Note_off_c, 0, 64, 65
1, 758612, Note_on_c, 0, 72, 97
1, 758618, Note_on_c, 0, 84, 89
1, 758622, Note_on_c, 0, 60, 88
1, 758624, Note_on_c, 0, 48, 78
1, 758631, Note_off_c, 0, 72, 69
1, 758634, Note_off_c, 0, 84, 75
1, 758641, Note_off_c, 0, 60, 73
1, 758646, Note_off_c, 0, 48, 67
1, 758648, Note_on_c, 0, 47, 42
1, 758649, Note_off_c, 0, 47, 127
1, 758694, Note_on_c, 0, 76, 98
1, 758695, Note_on_c, 0, 52, 99
1, 758695, Note_on_c, 0, 88, 94
1, 758698, Note_on_c, 0, 64, 100
1, 758701, Note_on_c, 0, 89, 87
1, 758708, Note_on_c, 0, 77, 78
1, 758709, Note_off_c, 0, 77, 127
1, 758713, Note_off_c, 0, 88, 73
1, 758713, Note_off_c, 0, 89, 71
1, 758723, Note_off_c, 0, 64, 65
1, 758725, Note_off_c, 0, 52, 69
1, 758726, Note_off_c, 0, 76, 69
1, 758782, Poly_aftertouch_c, 0, 53, 127
1, 758818, Poly_aftertouch_c, 0, 53, 0
1, 758828, Control_c, 0, 64, 104
1, 758842, Control_c, 0, 64, 64
1, 758857, Control_c, 0, 64, 0
1, 758931, Note_on_c, 0, 52, 95
1, 758933, Note_on_c, 0, 68, 77
1, 758939, Note_on_c, 0, 56, 73
1, 758941, Note_on_c, 0, 40, 79
1, 758950, Note_off_c, 0, 52, 71
1, 758957, Note_off_c, 0, 56, 65
1, 758957, Note_off_c, 0, 68, 68
1, 758965, Note_on_c, 0, 63, 9
1, 758966, Note_off_c, 0, 63, 127
1, 758974, Note_off_c, 0, 40, 64
1, 758992, Note_on_c, 0, 64, 18
1, 758992, Control_c, 0, 64, 84
1, 758995, Note_on_c, 0, 68, 96
1, 758999, Note_on_c, 0, 56, 102
1, 759003, Note_on_c, 0, 52, 101
1, 759007, Control_c, 0, 64, 127
1, 759012, Note_on_c, 0, 40, 97
1, 759052, Note_off_c, 0, 40, 62
1, 759054, Note_off_c, 0, 52, 66
1, 759074, Note_off_c, 0, 56, 61
1, 759093, Note_off_c, 0, 68, 59
1, 759096, Note_off_c, 0, 64, 60
1, 759190, Note_on_c, 0, 57, 74
1, 759194, Note_on_c, 0, 71, 79
1, 759194, Note_on_c, 0, 51, 86
1, 759196, Note_on_c, 0, 69, 74
1, 759197, Note_on_c, 0, 39, 82
1, 759206, Note_on_c, 0, 59, 58
1, 759209, Note_off_c, 0, 57, 66
1, 759209, Note_off_c, 0, 71, 69
1, 759214, Note_off_c, 0, 51, 66
1, 759221, Note_off_c, 0, 69, 68
1, 759228, Note_off_c, 0, 59, 63
1, 759228, Note_off_c, 0, 39, 66
1, 759263, Note_on_c, 0, 71, 99
1, 759266, Note_on_c, 0, 50, 94
1, 759267, Note_on_c, 0, 59, 102
1, 759271, Note_on_c, 0, 68, 96
1, 759273, Note_on_c, 0, 38, 95
1, 759303, Control_c, 0, 64, 91
1, 759304, Note_off_c, 0, 38, 65
1, 759304, Note_off_c, 0, 71, 66
1, 759304, Note_off_c, 0, 59, 65
1, 759310, Note_off_c, 0, 50, 65
1, 759318, Control_c, 0, 64, 65
1, 759323, Note_off_c, 0, 68, 60
1, 759324, Note_on_c, 0, 60, 11
1, 759325, Note_off_c, 0, 60, 127
1, 759333, Control_c, 0, 64, 0
1, 759445, Note_on_c, 0, 48, 94
1, 759448, Note_on_c, 0, 36, 89
1, 759449, Note_on_c, 0, 60, 93
1, 759457, Note_on_c, 0, 72, 72
1, 759460, Note_on_c, 0, 69, 71
1, 759466, Note_off_c, 0, 48, 69
1, 759469, Note_off_c, 0, 60, 67
1, 759471, Note_off_c, 0, 72, 69
1, 759474, Note_off_c, 0, 69, 67
1, 759475, Note_off_c, 0, 36, 65
1, 759480, Control_c, 0, 64, 62
1, 759495, Control_c, 0, 64, 127
1, 759523, Note_on_c, 0, 74, 99
1, 759528, Note_on_c, 0, 47, 94
1, 759531, Note_on_c, 0, 62, 94
1, 759534, Note_on_c, 0, 35, 93
1, 759579, Note_off_c, 0, 62, 65
1, 759582, Note_off_c, 0, 47, 65
1, 759584, Note_off_c, 0, 74, 63
1, 759593, Note_off_c, 0, 35, 60
1, 759713, Note_on_c, 0, 45, 91
1, 759714, Note_on_c, 0, 75, 82
1, 759715, Note_on_c, 0, 63, 80
1, 759720, Note_on_c, 0, 33, 80
1, 759736, Note_on_c, 0, 71, 50
1, 759740, Note_off_c, 0, 63, 69
1, 759749, Note_off_c, 0, 33, 63
1, 759749, Note_off_c, 0, 45, 64
1, 759759, Note_off_c, 0, 71, 58
1, 759766, Note_off_c, 0, 75, 56
1, 759791, Note_on_c, 0, 71, 83
1, 759794, Note_on_c, 0, 76, 94
1, 759796, Note_on_c, 0, 64, 86
1, 759808, Note_on_c, 0, 32, 87
1, 759809, Note_on_c, 0, 44, 87
1, 759832, Note_off_c, 0, 64, 61
1, 759834, Note_off_c, 0, 44, 66
1, 759836, Note_off_c, 0, 76, 65
1, 759838, Note_off_c, 0, 71, 64
1, 759845, Note_off_c, 0, 32, 62
1, 759859, Control_c, 0, 64, 75
1, 759874, Control_c, 0, 64, 31
1, 759889, Control_c, 0, 64, 0
1, 759971, Note_on_c, 0, 40, 87
1, 759972, Note_on_c, 0, 60, 84
1, 759977, Note_on_c, 0, 71, 82
1, 759996, Note_off_c, 0, 60, 71
1, 759999, Note_off_c, 0, 40, 69
1, 759999, Note_off_c, 0, 71, 68
1, 760022, Control_c, 0, 64, 60
1, 760037, Control_c, 0, 64, 127
1, 760056, Note_on_c, 0, 62, 87
1, 760058, Note_on_c, 0, 47, 100
1, 760059, Note_on_c, 0, 74, 75
1, 760067, Note_on_c, 0, 33, 82
1, 760072, Note_on_c, 0, 45, 74
1, 760074, Note_on_c, 0, 35, 77
1, 760077, Note_on_c, 0, 70, 57
1, 760086, Note_off_c, 0, 62, 61
1, 760086, Note_off_c, 0, 74, 67
1, 760092, Note_off_c, 0, 47, 67
1, 760092, Note_off_c, 0, 33, 65
1, 760092, Note_off_c, 0, 45, 41
1, 760100, Note_off_c, 0, 35, 63
1, 760103, Note_off_c, 0, 70, 64
1, 760244, Note_on_c, 0, 61, 77
1, 760244, Note_on_c, 0, 73, 81
1, 760244, Control_c, 0, 64, 92
1, 760258, Note_on_c, 0, 52, 65
1, 760259, Control_c, 0, 64, 61
1, 760263, Note_on_c, 0, 40, 65
1, 760266, Note_off_c, 0, 61, 70
1, 760268, Note_on_c, 0, 69, 40
1, 760273, Note_off_c, 0, 73, 64
1, 760274, Control_c, 0, 64, 0
1, 760279, Note_off_c, 0, 52, 64
1, 760285, Note_off_c, 0, 40, 64
1, 760299, Note_off_c, 0, 69, 33
1, 760330, Note_on_c, 0, 40, 82
1, 760330, Note_on_c, 0, 52, 98
1, 760330, Note_on_c, 0, 72, 83
1, 760330, Note_on_c, 0, 60, 89
1, 760341, Note_on_c, 0, 68, 74
1, 760341, Control_c, 0, 64, 60
1, 760356, Control_c, 0, 64, 78
1, 760363, Note_off_c, 0, 40, 68
1, 760364, Note_off_c, 0, 72, 63
1, 760366, Note_off_c, 0, 52, 64
1, 760370, Control_c, 0, 64, 127
1, 760384, Note_off_c, 0, 60, 62
1, 760422, Note_off_c, 0, 68, 60
1, 760475, Control_c, 0, 64, 82
1, 760490, Control_c, 0, 64, 50
1, 760499, Note_on_c, 0, 52, 80
1, 760504, Note_on_c, 0, 71, 72
1, 760505, Control_c, 0, 64, 0
1, 760509, Note_on_c, 0, 59, 60
1, 760513, Note_on_c, 0, 45, 61
1, 760521, Note_on_c, 0, 57, 51
1, 760523, Note_off_c, 0, 52, 69
1, 760532, Note_off_c, 0, 59, 64
1, 760536, Note_off_c, 0, 45, 61
1, 760538, Note_off_c, 0, 71, 59
1, 760550, Note_off_c, 0, 57, 38
1, 760564, Control_c, 0, 64, 35
1, 760575, Note_on_c, 0, 72, 93
1, 760579, Note_on_c, 0, 57, 91
1, 760579, Control_c, 0, 64, 68
1, 760580, Note_on_c, 0, 60, 93
1, 760581, Note_on_c, 0, 52, 83
1, 760586, Note_on_c, 0, 45, 82
1, 760593, Control_c, 0, 64, 102
1, 760608, Control_c, 0, 64, 127
1, 760610, Note_off_c, 0, 52, 67
1, 760617, Note_off_c, 0, 72, 65
1, 760617, Note_off_c, 0, 60, 67
1, 760619, Note_on_c, 0, 71, 14
1, 760622, Note_off_c, 0, 57, 66
1, 760638, Note_off_c, 0, 45, 64
1, 760673, Note_off_c, 0, 71, 49
1, 760770, Note_on_c, 0, 63, 91
1, 760771, Note_on_c, 0, 51, 95
1, 760771, Control_c, 0, 64, 82
1, 760783, Note_on_c, 0, 39, 75
1, 760786, Control_c, 0, 64, 45
1, 760796, Note_off_c, 0, 51, 68
1, 760801, Control_c, 0, 64, 0
1, 760806, Note_off_c, 0, 39, 62
1, 760809, Note_off_c, 0, 63, 65
1, 760810, Note_on_c, 0, 42, 30
1, 760842, Note_on_c, 0, 64, 100
1, 760845, Control_c, 0, 64, 43
1, 760847, Note_on_c, 0, 52, 104
1, 760849, Note_on_c, 0, 40, 88
1, 760850, Note_off_c, 0, 42, 45
1, 760860, Control_c, 0, 64, 68
1, 760875, Control_c, 0, 64, 92
1, 760881, Note_off_c, 0, 64, 70
1, 760887, Note_off_c, 0, 40, 65
1, 760890, Control_c, 0, 64, 127
1, 760890, Note_off_c, 0, 52, 69
1, 760993, Control_c, 0, 64, 95
1, 761008, Control_c, 0, 64, 51
1, 761023, Control_c, 0, 64, 0
1, 761048, Note_on_c, 0, 52, 84
1, 761052, Note_on_c, 0, 68, 91
1, 761055, Note_on_c, 0, 76, 84
1, 761057, Note_on_c, 0, 64, 69
1, 761067, Note_on_c, 0, 65, 71
1, 761067, Note_on_c, 0, 80, 73
1, 761075, Note_off_c, 0, 52, 73
1, 761079, Note_off_c, 0, 68, 72
1, 761083, Note_off_c, 0, 80, 66
1, 761084, Note_off_c, 0, 76, 71
1, 761086, Note_off_c, 0, 65, 66
1, 761087, Note_off_c, 0, 64, 65
1, 761119, Control_c, 0, 64, 64
1, 761124, Note_on_c, 0, 80, 102
1, 761127, Note_on_c, 0, 52, 93
1, 761128, Note_on_c, 0, 64, 107
1, 761131, Note_on_c, 0, 68, 106
1, 761134, Control_c, 0, 64, 127
1, 761135, Note_on_c, 0, 76, 91
1, 761174, Note_off_c, 0, 52, 62
1, 761196, Note_off_c, 0, 64, 61
1, 761207, Note_off_c, 0, 68, 59
1, 761223, Note_off_c, 0, 76, 57
1, 761234, Note_off_c, 0, 80, 62
1, 761310, Note_on_c, 0, 69, 86
1, 761313, Note_on_c, 0, 51, 86
1, 761313, Note_on_c, 0, 63, 87
1, 761316, Note_on_c, 0, 81, 79
1, 761329, Note_off_c, 0, 69, 72
1, 761336, Note_off_c, 0, 81, 71
1, 761337, Note_off_c, 0, 63, 68
1, 761367, Note_off_c, 0, 51, 61
1, 761386, Note_on_c, 0, 83, 87
1, 761389, Note_on_c, 0, 71, 91
1, 761391, Note_on_c, 0, 80, 84
1, 761393, Note_on_c, 0, 62, 97
1, 761395, Note_on_c, 0, 50, 87
1, 761430, Note_off_c, 0, 71, 64
1, 761433, Note_off_c, 0, 62, 66
1, 761437, Note_off_c, 0, 50, 65
1, 761444, Note_off_c, 0, 83, 65
1, 761452, Note_off_c, 0, 80, 62
1, 761476, Control_c, 0, 64, 68
1, 761491, Control_c, 0, 64, 0
1, 761562, Note_on_c, 0, 60, 92
1, 761562, Note_on_c, 0, 72, 97
1, 761569, Note_on_c, 0, 48, 76
1, 761569, Note_on_c, 0, 81, 87
1, 761582, Note_on_c, 0, 84, 64
1, 761588, Note_off_c, 0, 81, 73
1, 761588, Note_off_c, 0, 60, 65
1, 761589, Note_off_c, 0, 72, 66
1, 761594, Note_off_c, 0, 48, 67
1, 761598, Note_off_c, 0, 84, 64
1, 761609, Control_c, 0, 64, 87
1, 761624, Control_c, 0, 64, 127
1, 761641, Note_on_c, 0, 86, 103
1, 761642, Note_on_c, 0, 59, 98
1, 761645, Note_on_c, 0, 74, 105
1, 761646, Note_on_c, 0, 47, 94
1, 761685, Note_off_c, 0, 74, 65
1, 761686, Note_off_c, 0, 86, 67
1, 761688, Note_off_c, 0, 59, 65
1, 761697, Note_off_c, 0, 47, 60
1, 761814, Note_on_c, 0, 75, 89
1, 761814, Note_on_c, 0, 87, 90
1, 761822, Note_on_c, 0, 57, 90
1, 761829, Note_on_c, 0, 45, 67
1, 761836, Note_on_c, 0, 83, 69
1, 761849, Note_off_c, 0, 75, 63
1, 761855, Note_off_c, 0, 57, 67
1, 761860, Note_off_c, 0, 45, 63
1, 761863, Note_off_c, 0, 83, 66
1, 761871, Note_off_c, 0, 87, 62
1, 761902, Note_on_c, 0, 88, 92
1, 761904, Note_on_c, 0, 76, 95
1, 761904, Note_on_c, 0, 83, 90
1, 761913, Note_on_c, 0, 44, 85
1, 761913, Note_on_c, 0, 56, 90
1, 761934, Note_off_c, 0, 56, 69
1, 761943, Note_off_c, 0, 76, 65
1, 761947, Note_off_c, 0, 88, 67
1, 761948, Note_off_c, 0, 83, 66
1, 761961, Note_off_c, 0, 44, 60
1, 762002, Control_c, 0, 64, 64
1, 762017, Control_c, 0, 64, 0
1, 762074, Note_on_c, 0, 52, 85
1, 762076, Note_on_c, 0, 40, 88
1, 762081, Note_on_c, 0, 72, 88
1, 762095, Note_on_c, 0, 83, 67
1, 762098, Note_off_c, 0, 52, 71
1, 762099, Note_on_c, 0, 84, 75
1, 762103, Note_off_c, 0, 40, 68
1, 762111, Note_off_c, 0, 72, 66
1, 762121, Note_off_c, 0, 84, 67
1, 762122, Note_off_c, 0, 83, 67
1, 762136, Control_c, 0, 64, 82
1, 762151, Control_c, 0, 64, 127
1, 762164, Note_on_c, 0, 59, 103
1, 762166, Note_on_c, 0, 47, 99
1, 762173, Note_on_c, 0, 82, 71
1, 762186, Note_on_c, 0, 84, 55
1, 762194, Note_on_c, 0, 57, 38
1, 762195, Note_off_c, 0, 57, 127
1, 762196, Note_on_c, 0, 74, 26
1, 762200, Note_off_c, 0, 47, 64
1, 762200, Note_off_c, 0, 59, 66
1, 762206, Note_off_c, 0, 84, 61
1, 762224, Note_off_c, 0, 74, 48
1, 762247, Note_off_c, 0, 82, 64
1, 762271, Poly_aftertouch_c, 0, 83, 0
1, 762272, Poly_aftertouch_c, 0, 72, 0
1, 762341, Note_on_c, 0, 64, 100
1, 762346, Note_on_c, 0, 52, 86
1, 762350, Note_on_c, 0, 81, 67
1, 762351, Note_on_c, 0, 85, 83
1, 762352, Note_on_c, 0, 73, 80
1, 762357, Control_c, 0, 64, 67
1, 762364, Note_off_c, 0, 81, 67
1, 762366, Note_off_c, 0, 64, 68
1, 762367, Note_on_c, 0, 53, 61
1, 762367, Note_off_c, 0, 52, 72
1, 762372, Note_off_c, 0, 73, 65
1, 762372, Control_c, 0, 64, 0
1, 762387, Note_off_c, 0, 85, 65
1, 762390, Note_off_c, 0, 53, 41
1, 762417, Control_c, 0, 64, 61
1, 762419, Note_on_c, 0, 84, 89
1, 762420, Note_on_c, 0, 72, 95
1, 762422, Note_on_c, 0, 81, 81
1, 762430, Note_on_c, 0, 65, 97
1, 762432, Control_c, 0, 64, 79
1, 762433, Note_on_c, 0, 53, 99
1, 762443, Note_on_c, 0, 80, 55
1, 762443, Note_on_c, 0, 64, 79
1, 762446, Control_c, 0, 64, 127
1, 762450, Note_off_c, 0, 81, 61
1, 762455, Note_off_c, 0, 53, 66
1, 762459, Note_off_c, 0, 84, 64
1, 762461, Note_off_c, 0, 80, 63
1, 762463, Note_off_c, 0, 64, 43
1, 762463, Note_off_c, 0, 72, 65
1, 762468, Note_off_c, 0, 65, 66
1, 762587, Control_c, 0, 64, 125
1, 762593, Note_on_c, 0, 64, 68
1, 762595, Note_on_c, 0, 71, 90
1, 762601, Note_on_c, 0, 83, 88
1, 762602, Control_c, 0, 64, 68
1, 762604, Note_on_c, 0, 57, 76
1, 762616, Control_c, 0, 64, 15
1, 762619, Note_off_c, 0, 71, 64
1, 762620, Note_off_c, 0, 57, 66
1, 762625, Note_on_c, 0, 69, 51
1, 762631, Control_c, 0, 64, 0
1, 762635, Note_off_c, 0, 83, 62
1, 762637, Note_off_c, 0, 64, 66
1, 762649, Note_off_c, 0, 69, 39
1, 762661, Control_c, 0, 64, 29
1, 762676, Note_on_c, 0, 84, 101
1, 762676, Control_c, 0, 64, 62
1, 762678, Note_on_c, 0, 72, 100
1, 762679, Note_on_c, 0, 69, 92
1, 762683, Note_on_c, 0, 57, 87
1, 762688, Note_on_c, 0, 64, 82
1, 762691, Control_c, 0, 64, 75
1, 762698, Note_on_c, 0, 83, 42
1, 762703, Note_off_c, 0, 84, 70
1, 762706, Control_c, 0, 64, 127
1, 762706, Note_on_c, 0, 59, 51
1, 762707, Note_off_c, 0, 59, 127
1, 762709, Note_off_c, 0, 64, 71
1, 762714, Note_off_c, 0, 69, 67
1, 762714, Note_off_c, 0, 72, 67
1, 762725, Note_off_c, 0, 83, 57
1, 762738, Note_off_c, 0, 57, 67
1, 762870, Control_c, 0, 64, 85
1, 762879, Note_on_c, 0, 51, 93
1, 762885, Control_c, 0, 64, 46
1, 762885, Note_on_c, 0, 63, 95
1, 762888, Note_on_c, 0, 39, 77
1, 762900, Control_c, 0, 64, 0
1, 762914, Note_on_c, 0, 42, 39
1, 762919, Note_off_c, 0, 39, 64
1, 762922, Note_off_c, 0, 51, 66
1, 762926, Note_off_c, 0, 63, 63
1, 762929, Control_c, 0, 64, 18
1, 762944, Control_c, 0, 64, 69
1, 762957, Note_on_c, 0, 64, 105
1, 762959, Control_c, 0, 64, 127
1, 762959, Note_off_c, 0, 42, 30
1, 762962, Note_on_c, 0, 52, 102
1, 762968, Note_on_c, 0, 40, 94
1, 762998, Note_off_c, 0, 52, 69
1, 763000, Note_off_c, 0, 64, 70
1, 763017, Note_off_c, 0, 40, 65
1, 763053, Poly_aftertouch_c, 0, 46, 0
1, 763136, Control_c, 0, 64, 110
1, 763151, Control_c, 0, 64, 67
1, 763166, Control_c, 0, 64, 0
1, 763180, Note_on_c, 0, 47, 92
1, 763181, Note_on_c, 0, 59, 102
1, 763186, Note_on_c, 0, 35, 87
1, 763214, Note_off_c, 0, 35, 68
1, 763217, Note_off_c, 0, 47, 67
1, 763228, Note_off_c, 0, 59, 68
1, 763279, Note_on_c, 0, 48, 109
1, 763280, Note_on_c, 0, 60, 108
1, 763282, Note_on_c, 0, 36, 93
1, 763349, Note_off_c, 0, 60, 69
1, 763353, Note_off_c, 0, 36, 64
1, 763366, Control_c, 0, 64, 77
1, 763370, Note_off_c, 0, 48, 67
1, 763381, Control_c, 0, 64, 127
1, 763615, Note_on_c, 0, 81, 84
1, 763615, Note_on_c, 0, 93, 89
1, 763618, Note_on_c, 0, 64, 71
1, 763618, Note_on_c, 0, 69, 81
1, 763618, Note_on_c, 0, 88, 80
1, 763626, Note_on_c, 0, 60, 70
1, 763639, Note_off_c, 0, 81, 68
1, 763639, Note_off_c, 0, 88, 72
1, 763652, Note_off_c, 0, 60, 66
1, 763652, Note_off_c, 0, 64, 65
1, 763657, Note_off_c, 0, 69, 63
1, 763659, Note_off_c, 0, 93, 65
1, 763697, Note_on_c, 0, 93, 84
1, 763700, Note_on_c, 0, 81, 89
1, 763700, Note_on_c, 0, 88, 91
1, 763710, Note_on_c, 0, 69, 84
1, 763716, Note_on_c, 0, 64, 68
1, 763725, Note_on_c, 0, 60, 57
1, 763729, Note_off_c, 0, 88, 62
1, 763733, Note_off_c, 0, 81, 68
1, 763736, Note_off_c, 0, 93, 68
1, 763752, Note_off_c, 0, 60, 64
1, 763757, Note_off_c, 0, 69, 63
1, 763758, Note_off_c, 0, 64, 61
1, 763782, Note_on_c, 0, 93, 91
1, 763784, Note_on_c, 0, 88, 91
1, 763788, Note_on_c, 0, 81, 89
1, 763791, Note_on_c, 0, 64, 73
1, 763796, Note_on_c, 0, 69, 80
1, 763818, Note_off_c, 0, 88, 68
1, 763822, Poly_aftertouch_c, 0, 60, 0
1, 763824, Note_off_c, 0, 81, 66
1, 763827, Note_off_c, 0, 93, 68
1, 763831, Note_off_c, 0, 69, 65
1, 763835, Note_off_c, 0, 64, 66
1, 763877, Note_on_c, 0, 71, 104
1, 763877, Note_on_c, 0, 60, 100
1, 763881, Note_on_c, 0, 87, 103
1, 763883, Note_on_c, 0, 95, 106
1, 763884, Note_on_c, 0, 83, 103
1, 763885, Control_c, 0, 64, 96
1, 763887, Note_on_c, 0, 63, 93
1, 763900, Control_c, 0, 64, 55
1, 763915, Control_c, 0, 64, 0
1, 763989, Control_c, 0, 64, 69
1, 764003, Control_c, 0, 64, 127
1, 764067, Note_off_c, 0, 95, 60
1, 764102, Note_off_c, 0, 83, 50
1, 764106, Note_off_c, 0, 71, 59
1, 764177, Note_off_c, 0, 60, 43
1, 764178, Note_on_c, 0, 93, 93
1, 764178, Note_off_c, 0, 87, 63
1, 764182, Note_on_c, 0, 81, 93
1, 764184, Note_on_c, 0, 69, 92
1, 764196, Note_off_c, 0, 93, 72
1, 764204, Note_off_c, 0, 69, 69
1, 764214, Note_off_c, 0, 81, 65
1, 764229, Note_off_c, 0, 63, 67
1, 764299, Poly_aftertouch_c, 0, 67, 0
1, 764399, Note_on_c, 0, 49, 59
1, 764406, Note_on_c, 0, 61, 86
1, 764424, Control_c, 0, 64, 94
1, 764435, Note_off_c, 0, 49, 65
1, 764439, Control_c, 0, 64, 50
1, 764446, Note_on_c, 0, 44, 40
1, 764455, Control_c, 0, 64, 0
1, 764458, Note_off_c, 0, 61, 67
1, 764460, Note_on_c, 0, 42, 9
1, 764474, Note_on_c, 0, 50, 104
1, 764476, Note_on_c, 0, 38, 90
1, 764489, Note_on_c, 0, 62, 103
1, 764508, Note_off_c, 0, 44, 64
1, 764512, Note_off_c, 0, 42, 49
1, 764519, Note_off_c, 0, 38, 67
1, 764520, Note_off_c, 0, 50, 67
1, 764525, Note_off_c, 0, 62, 72
1, 764529, Control_c, 0, 64, 68
1, 764544, Control_c, 0, 64, 127
1, 764786, Note_on_c, 0, 61, 34
1, 764810, Note_on_c, 0, 65, 76
1, 764817, Note_on_c, 0, 91, 92
1, 764819, Note_on_c, 0, 79, 78
1, 764829, Note_on_c, 0, 86, 64
1, 764835, Note_on_c, 0, 57, 27
1, 764836, Note_off_c, 0, 91, 72
1, 764841, Note_off_c, 0, 79, 72
1, 764846, Note_off_c, 0, 65, 64
1, 764846, Note_off_c, 0, 86, 62
1, 764847, Note_off_c, 0, 61, 63
1, 764876, Note_off_c, 0, 57, 47
1, 764888, Note_on_c, 0, 91, 98
1, 764895, Note_on_c, 0, 79, 91
1, 764899, Note_on_c, 0, 67, 82
1, 764900, Note_on_c, 0, 86, 83
1, 764911, Note_on_c, 0, 65, 83
1, 764915, Note_on_c, 0, 57, 47
1, 764916, Note_on_c, 0, 62, 53
1, 764919, Note_off_c, 0, 86, 73
1, 764927, Note_off_c, 0, 79, 64
1, 764930, Note_on_c, 0, 61, 28
1, 764931, Note_off_c, 0, 91, 66
1, 764935, Note_off_c, 0, 62, 64
1, 764941, Note_off_c, 0, 57, 62
1, 764942, Note_off_c, 0, 67, 65
1, 764943, Note_off_c, 0, 65, 65
1, 764963, Note_off_c, 0, 61, 51
1, 764982, Note_on_c, 0, 86, 87
1, 764982, Note_on_c, 0, 91, 87
1, 764983, Note_on_c, 0, 79, 86
1, 764991, Note_on_c, 0, 65, 99
1, 764995, Note_on_c, 0, 57, 79
1, 764996, Note_on_c, 0, 60, 62
1, 765019, Note_off_c, 0, 79, 64
1, 765019, Note_off_c, 0, 91, 66
1, 765020, Note_off_c, 0, 57, 69
1, 765022, Note_off_c, 0, 86, 63
1, 765028, Note_off_c, 0, 65, 67
1, 765031, Note_off_c, 0, 60, 67
1, 765070, Control_c, 0, 64, 95
1, 765071, Note_on_c, 0, 61, 69
1, 765073, Note_on_c, 0, 93, 100
1, 765074, Note_on_c, 0, 67, 105
1, 765075, Note_on_c, 0, 86, 94
1, 765076, Note_on_c, 0, 81, 104
1, 765078, Note_on_c, 0, 57, 84
1, 765084, Control_c, 0, 64, 59
1, 765099, Control_c, 0, 64, 0
1, 765103, Note_on_c, 0, 63, 52
1, 765119, Note_on_c, 0, 59, 29
1, 765120, Note_off_c, 0, 59, 127
1, 765127, Note_off_c, 0, 63, 58
1, 765166, Note_off_c, 0, 61, 63
1, 765174, Control_c, 0, 64, 61
1, 765178, Note_on_c, 0, 60, 60
1, 765189, Control_c, 0, 64, 86
1, 765204, Control_c, 0, 64, 127
1, 765246, Note_off_c, 0, 67, 57
1, 765248, Note_off_c, 0, 81, 62
1, 765248, Note_off_c, 0, 93, 61
1, 765338, Note_on_c, 0, 65, 89
1, 765347, Note_off_c, 0, 86, 63
1, 765348, Note_on_c, 0, 91, 83
1, 765353, Note_on_c, 0, 79, 91
1, 765358, Note_off_c, 0, 60, 57
1, 765368, Note_off_c, 0, 91, 71
1, 765371, Note_on_c, 0, 59, 28
1, 765375, Note_off_c, 0, 65, 66
1, 765387, Note_off_c, 0, 57, 67
1, 765388, Note_off_c, 0, 79, 66
1, 765412, Note_off_c, 0, 59, 40
1, 765575, Note_on_c, 0, 62, 86
1, 765577, Note_on_c, 0, 50, 71
1, 765585, Note_on_c, 0, 38, 39
1, 765601, Note_on_c, 0, 45, 65
1, 765603, Note_off_c, 0, 50, 66
1, 765612, Control_c, 0, 64, 83
1, 765615, Note_off_c, 0, 62, 66
1, 765621, Note_off_c, 0, 38, 50
1, 765627, Control_c, 0, 64, 32
1, 765632, Note_off_c, 0, 45, 65
1, 765641, Control_c, 0, 64, 0
1, 765646, Note_on_c, 0, 63, 102
1, 765648, Note_on_c, 0, 39, 84
1, 765650, Note_on_c, 0, 51, 120
1, 765674, Note_off_c, 0, 39, 69
1, 765681, Note_off_c, 0, 51, 68
1, 765684, Note_on_c, 0, 52, 59
1, 765685, Note_off_c, 0, 52, 127
1, 765685, Note_off_c, 0, 63, 71
1, 765701, Control_c, 0, 64, 52
1, 765715, Control_c, 0, 64, 104
1, 765730, Control_c, 0, 64, 127
1, 765952, Note_on_c, 0, 66, 85
1, 765957, Note_on_c, 0, 90, 85
1, 765958, Note_on_c, 0, 78, 80
1, 765961, Note_on_c, 0, 60, 60
1, 765961, Note_on_c, 0, 84, 74
1, 765975, Note_on_c, 0, 57, 43
1, 765979, Note_off_c, 0, 78, 70
1, 765980, Note_off_c, 0, 90, 64
1, 765982, Note_off_c, 0, 84, 71
1, 765991, Note_off_c, 0, 66, 59
1, 765996, Note_off_c, 0, 60, 65
1, 766000, Note_off_c, 0, 57, 57
1, 766034, Note_on_c, 0, 90, 90
1, 766040, Note_on_c, 0, 78, 88
1, 766043, Note_on_c, 0, 84, 81
1, 766050, Note_on_c, 0, 66, 70
1, 766053, Note_on_c, 0, 60, 67
1, 766064, Note_off_c, 0, 84, 71
1, 766074, Note_off_c, 0, 78, 63
1, 766075, Note_off_c, 0, 90, 64
1, 766085, Note_off_c, 0, 60, 63
1, 766086, Note_off_c, 0, 66, 64
1, 766115, Note_on_c, 0, 90, 84
1, 766122, Note_on_c, 0, 78, 88
1, 766128, Poly_aftertouch_c, 0, 57, 127
1, 766130, Note_on_c, 0, 66, 89
1, 766131, Note_on_c, 0, 84, 78
1, 766134, Note_on_c, 0, 60, 70
1, 766151, Note_on_c, 0, 57, 3
1, 766161, Note_off_c, 0, 84, 57
1, 766164, Note_off_c, 0, 90, 66
1, 766165, Note_off_c, 0, 78, 64
1, 766171, Note_off_c, 0, 66, 64
1, 766182, Note_off_c, 0, 57, 58
1, 766208, Note_on_c, 0, 84, 84
1, 766208, Note_on_c, 0, 89, 100
1, 766211, Note_on_c, 0, 77, 107
1, 766214, Note_on_c, 0, 57, 74
1, 766217, Note_on_c, 0, 65, 98
1, 766220, Control_c, 0, 64, 89
1, 766235, Control_c, 0, 64, 51
1, 766250, Control_c, 0, 64, 0
1, 766316, Control_c, 0, 64, 63
1, 766317, Note_off_c, 0, 77, 54
1, 766331, Control_c, 0, 64, 91
1, 766345, Control_c, 0, 64, 127
1, 766374, Note_off_c, 0, 65, 60
1, 766395, Note_off_c, 0, 89, 60
1, 766488, Note_off_c, 0, 84, 64
1, 766502, Note_on_c, 0, 66, 87
1, 766503, Note_on_c, 0, 78, 104
1, 766503, Note_on_c, 0, 90, 81
1, 766523, Note_off_c, 0, 66, 71
1, 766524, Note_off_c, 0, 90, 71
1, 766530, Note_off_c, 0, 78, 60
1, 766538, Note_off_c, 0, 60, 63
1, 766557, Note_off_c, 0, 57, 58
1, 766716, Note_on_c, 0, 51, 62
1, 766729, Note_on_c, 0, 63, 86
1, 766730, Control_c, 0, 64, 90
1, 766745, Control_c, 0, 64, 51
1, 766751, Note_off_c, 0, 51, 65
1, 766754, Note_on_c, 0, 39, 9
1, 766760, Control_c, 0, 64, 0
1, 766768, Note_on_c, 0, 46, 32
1, 766772, Note_off_c, 0, 63, 65
1, 766790, Note_on_c, 0, 52, 97
1, 766790, Note_on_c, 0, 40, 88
1, 766793, Note_on_c, 0, 64, 101
1, 766805, Note_off_c, 0, 39, 37
1, 766819, Control_c, 0, 64, 60
1, 766823, Note_off_c, 0, 46, 47
1, 766831, Note_off_c, 0, 64, 72
1, 766831, Note_off_c, 0, 40, 66
1, 766834, Control_c, 0, 64, 107
1, 766841, Note_off_c, 0, 52, 69
1, 766849, Control_c, 0, 64, 127
1, 767195, Note_on_c, 0, 93, 106
1, 767197, Note_on_c, 0, 81, 100
1, 767198, Note_on_c, 0, 69, 93
1, 767198, Note_on_c, 0, 85, 100
1, 767199, Note_on_c, 0, 64, 84
1, 767202, Note_on_c, 0, 61, 75
1, 767204, Note_on_c, 0, 58, 79
1, 767586, Note_off_c, 0, 93, 45
1, 767605, Note_off_c, 0, 69, 56
1, 767622, Note_off_c, 0, 58, 52
1, 767624, Note_off_c, 0, 61, 49
1, 767633, Note_off_c, 0, 81, 56
1, 767633, Note_off_c, 0, 64, 41
1, 767679, Note_off_c, 0, 85, 55
1, 767771, Note_on_c, 0, 67, 85
1, 767771, Note_on_c, 0, 61, 82
1, 767773, Note_on_c, 0, 91, 95
1, 767773, Note_on_c, 0, 79, 96
1, 767779, Note_on_c, 0, 85, 88
1, 767785, Note_on_c, 0, 58, 74
1, 767789, Note_on_c, 0, 64, 58
1, 767791, Note_off_c, 0, 67, 71
1, 767812, Note_off_c, 0, 85, 65
1, 767815, Note_off_c, 0, 91, 66
1, 767821, Note_off_c, 0, 64, 58
1, 767822, Note_off_c, 0, 79, 68
1, 767825, Note_off_c, 0, 61, 65
1, 767830, Note_off_c, 0, 58, 64
1, 767996, Note_on_c, 0, 52, 82
1, 767999, Note_on_c, 0, 40, 78
1, 768002, Note_on_c, 0, 64, 95
1, 768033, Note_off_c, 0, 40, 66
1, 768036, Control_c, 0, 64, 105
1, 768037, Note_off_c, 0, 52, 65
1, 768039, Note_off_c, 0, 64, 67
1, 768051, Control_c, 0, 64, 59
1, 768065, Control_c, 0, 64, 0
1, 768072, Note_on_c, 0, 65, 106
1, 768076, Note_on_c, 0, 53, 112
1, 768077, Note_on_c, 0, 41, 96
1, 768090, Note_on_c, 0, 64, 51
1, 768105, Note_off_c, 0, 64, 67
1, 768117, Note_off_c, 0, 53, 69
1, 768122, Note_off_c, 0, 41, 66
1, 768124, Note_off_c, 0, 65, 70
1, 768140, Control_c, 0, 64, 71
1, 768155, Control_c, 0, 64, 127
1, 768393, Note_on_c, 0, 74, 69
1, 768397, Note_on_c, 0, 70, 63
1, 768398, Note_on_c, 0, 65, 59
1, 768404, Note_on_c, 0, 86, 80
1, 768410, Note_on_c, 0, 94, 75
1, 768413, Note_on_c, 0, 98, 67
1, 768420, Note_on_c, 0, 96, 57
1, 768423, Note_off_c, 0, 74, 65
1, 768424, Note_off_c, 0, 86, 70
1, 768428, Note_off_c, 0, 70, 66
1, 768430, Note_off_c, 0, 98, 64
1, 768432, Note_off_c, 0, 65, 64
1, 768435, Note_off_c, 0, 94, 64
1, 768440, Note_off_c, 0, 96, 62
1, 768488, Note_on_c, 0, 86, 90
1, 768489, Note_on_c, 0, 98, 85
1, 768496, Note_on_c, 0, 74, 74
1, 768498, Note_on_c, 0, 70, 71
1, 768499, Note_on_c, 0, 96, 84
1, 768503, Note_on_c, 0, 94, 61
1, 768511, Note_on_c, 0, 65, 56
1, 768513, Note_off_c, 0, 86, 64
1, 768518, Note_off_c, 0, 98, 69
1, 768521, Note_off_c, 0, 96, 70
1, 768521, Note_off_c, 0, 94, 60
1, 768524, Note_off_c, 0, 70, 68
1, 768524, Note_off_c, 0, 74, 61
1, 768545, Note_off_c, 0, 65, 0
1, 768573, Note_on_c, 0, 98, 94
1, 768578, Note_on_c, 0, 86, 97
1, 768581, Note_on_c, 0, 70, 86
1, 768581, Note_on_c, 0, 94, 96
1, 768590, Poly_aftertouch_c, 0, 65, 127
1, 768592, Poly_aftertouch_c, 0, 74, 127
1, 768596, Note_off_c, 0, 98, 69
1, 768602, Poly_aftertouch_c, 0, 74, 0
1, 768605, Note_off_c, 0, 86, 64
1, 768611, Poly_aftertouch_c, 0, 65, 0
1, 768618, Note_off_c, 0, 70, 68
1, 768620, Note_off_c, 0, 94, 64
1, 768662, Note_on_c, 0, 65, 82
1, 768665, Note_on_c, 0, 70, 86
1, 768668, Note_on_c, 0, 87, 107
1, 768668, Note_on_c, 0, 94, 103
1, 768672, Note_on_c, 0, 99, 110
1, 768674, Note_on_c, 0, 75, 101
1, 768875, Note_off_c, 0, 99, 65
1, 768879, Note_off_c, 0, 87, 60
1, 768892, Note_off_c, 0, 75, 61
1, 768930, Note_on_c, 0, 74, 85
1, 768939, Note_on_c, 0, 98, 93
1, 768942, Note_on_c, 0, 86, 87
1, 768948, Note_off_c, 0, 70, 61
1, 768950, Note_off_c, 0, 94, 58
1, 768951, Note_off_c, 0, 74, 69
1, 768953, Note_on_c, 0, 88, 75
1, 768956, Note_off_c, 0, 98, 74
1, 768966, Note_off_c, 0, 88, 69
1, 768971, Note_on_c, 0, 97, 35
1, 768972, Note_off_c, 0, 97, 127
1, 768977, Note_off_c, 0, 86, 67
1, 768984, Note_off_c, 0, 65, 64
1, 769174, Note_on_c, 0, 53, 70
1, 769183, Note_on_c, 0, 65, 85
1, 769185, Control_c, 0, 64, 75
1, 769192, Note_on_c, 0, 48, 65
1, 769199, Control_c, 0, 64, 38
1, 769212, Note_off_c, 0, 53, 65
1, 769214, Control_c, 0, 64, 0
1, 769222, Note_off_c, 0, 48, 63
1, 769238, Poly_aftertouch_c, 0, 41, 0
1, 769241, Note_on_c, 0, 42, 92
1, 769243, Note_on_c, 0, 66, 107
1, 769251, Note_on_c, 0, 54, 102
1, 769260, Control_c, 0, 64, 18
1, 769263, Note_off_c, 0, 65, 63
1, 769275, Control_c, 0, 64, 66
1, 769283, Note_off_c, 0, 54, 69
1, 769283, Note_off_c, 0, 66, 71
1, 769283, Note_off_c, 0, 42, 65
1, 769290, Control_c, 0, 64, 114
1, 769311, Control_c, 0, 64, 127
1, 769560, Note_on_c, 0, 72, 79
1, 769562, Note_on_c, 0, 69, 73
1, 769568, Note_on_c, 0, 84, 73
1, 769570, Note_on_c, 0, 96, 68
1, 769571, Note_on_c, 0, 63, 55
1, 769583, Note_off_c, 0, 84, 69
1, 769583, Note_on_c, 0, 93, 48
1, 769586, Note_off_c, 0, 96, 66
1, 769586, Note_off_c, 0, 72, 66
1, 769591, Note_off_c, 0, 69, 66
1, 769600, Note_off_c, 0, 63, 63
1, 769606, Note_off_c, 0, 93, 59
1, 769637, Note_on_c, 0, 84, 93
1, 769640, Note_on_c, 0, 96, 93
1, 769648, Note_on_c, 0, 72, 86
1, 769651, Note_on_c, 0, 69, 68
1, 769651, Note_on_c, 0, 93, 73
1, 769658, Note_on_c, 0, 63, 74
1, 769669, Note_off_c, 0, 84, 63
1, 769669, Note_off_c, 0, 96, 63
1, 769671, Note_off_c, 0, 93, 66
1, 769679, Note_off_c, 0, 69, 63
1, 769693, Note_off_c, 0, 63, 55
1, 769702, Note_off_c, 0, 72, 60
1, 769719, Note_on_c, 0, 84, 89
1, 769723, Note_on_c, 0, 96, 86
1, 769727, Note_on_c, 0, 93, 84
1, 769729, Note_on_c, 0, 72, 79
1, 769730, Note_on_c, 0, 63, 68
1, 769746, Note_on_c, 0, 69, 84
1, 769746, Note_off_c, 0, 93, 72
1, 769755, Note_off_c, 0, 84, 66
1, 769760, Note_off_c, 0, 96, 65
1, 769764, Note_off_c, 0, 72, 67
1, 769767, Note_off_c, 0, 63, 65
1, 769806, Note_on_c, 0, 63, 68
1, 769807, Note_on_c, 0, 86, 101
1, 769807, Note_on_c, 0, 93, 97
1, 769809, Note_on_c, 0, 66, 87
1, 769809, Note_on_c, 0, 90, 96
1, 769809, Note_on_c, 0, 98, 105
1, 769814, Note_on_c, 0, 74, 106
1, 769815, Control_c, 0, 64, 90
1, 769830, Control_c, 0, 64, 49
1, 769845, Control_c, 0, 64, 0
1, 769889, Control_c, 0, 64, 46
1, 769904, Control_c, 0, 64, 71
1, 769919, Control_c, 0, 64, 127
1, 769974, Note_off_c, 0, 98, 63
1, 769991, Note_off_c, 0, 74, 60
1, 770000, Note_off_c, 0, 86, 59
1, 770062, Note_off_c, 0, 63, 0
1, 770068, Note_off_c, 0, 93, 57
1, 770075, Note_on_c, 0, 96, 84
1, 770077, Note_on_c, 0, 63, 51
1, 770078, Note_on_c, 0, 72, 92
1, 770083, Note_off_c, 0, 90, 61
1, 770086, Note_on_c, 0, 84, 87
1, 770092, Note_off_c, 0, 69, 64
1, 770098, Note_off_c, 0, 96, 68
1, 770098, Note_off_c, 0, 72, 68
1, 770113, Note_off_c, 0, 84, 65
1, 770125, Note_off_c, 0, 66, 65
1, 770133, Note_off_c, 0, 63, 64
1, 770285, Note_on_c, 0, 66, 92
1, 770286, Note_on_c, 0, 54, 78
1, 770298, Note_on_c, 0, 42, 57
1, 770312, Control_c, 0, 64, 68
1, 770315, Note_off_c, 0, 54, 69
1, 770326, Note_off_c, 0, 66, 66
1, 770327, Control_c, 0, 64, 0
1, 770328, Note_on_c, 0, 44, 26
1, 770328, Note_off_c, 0, 42, 62
1, 770343, Note_on_c, 0, 46, 9
1, 770359, Note_on_c, 0, 67, 103
1, 770361, Note_on_c, 0, 55, 90
1, 770367, Note_on_c, 0, 41, 80
1, 770367, Note_off_c, 0, 44, 52
1, 770370, Note_on_c, 0, 53, 88
1, 770371, Note_on_c, 0, 43, 75
1, 770377, Note_off_c, 0, 46, 49
1, 770386, Control_c, 0, 64, 31
1, 770393, Note_off_c, 0, 53, 70
1, 770394, Note_off_c, 0, 41, 65
1, 770399, Note_off_c, 0, 67, 71
1, 770400, Note_off_c, 0, 43, 65
1, 770401, Control_c, 0, 64, 66
1, 770402, Note_off_c, 0, 55, 66
1, 770416, Control_c, 0, 64, 92
1, 770431, Control_c, 0, 64, 127
1, 770559, Note_on_c, 0, 61, 41
1, 770596, Note_on_c, 0, 66, 14
1, 770599, Note_off_c, 0, 61, 63
1, 770639, Note_off_c, 0, 66, 42
1, 770672, Note_on_c, 0, 67, 81
1, 770674, Note_on_c, 0, 71, 101
1, 770674, Note_on_c, 0, 95, 109
1, 770676, Note_on_c, 0, 86, 96
1, 770677, Note_on_c, 0, 83, 108
1, 770677, Note_on_c, 0, 91, 76
1, 770680, Note_on_c, 0, 59, 91
1, 770683, Note_on_c, 0, 62, 75
1, 770707, Note_on_c, 0, 90, 46
1, 770709, Note_off_c, 0, 71, 69
1, 770710, Note_off_c, 0, 95, 68
1, 770712, Note_off_c, 0, 91, 64
1, 770714, Note_off_c, 0, 67, 67
1, 770717, Note_off_c, 0, 86, 70
1, 770718, Note_off_c, 0, 83, 67
1, 770733, Note_off_c, 0, 90, 38
1, 770735, Note_off_c, 0, 62, 65
1, 770738, Note_off_c, 0, 59, 66
1, 770927, Control_c, 0, 64, 91
1, 770942, Control_c, 0, 64, 52
1, 770957, Control_c, 0, 64, 0
1, 770978, Note_on_c, 0, 67, 103
1, 770982, Note_on_c, 0, 55, 109
1, 770987, Note_on_c, 0, 43, 87
1, 771002, Control_c, 0, 64, 55
1, 771014, Note_off_c, 0, 43, 69
1, 771017, Note_off_c, 0, 67, 71
1, 771017, Control_c, 0, 64, 77
1, 771023, Note_off_c, 0, 55, 68
1, 771031, Control_c, 0, 64, 127
1, 771278, Note_on_c, 0, 94, 106
1, 771279, Note_on_c, 0, 70, 99
1, 771281, Note_on_c, 0, 58, 87
1, 771281, Note_on_c, 0, 82, 102
1, 771282, Note_on_c, 0, 67, 86
1, 771284, Note_on_c, 0, 86, 88
1, 771291, Note_on_c, 0, 62, 73
1, 771294, Note_on_c, 0, 91, 78
1, 771311, Note_off_c, 0, 70, 71
1, 771315, Note_off_c, 0, 94, 66
1, 771318, Note_off_c, 0, 91, 69
1, 771320, Note_off_c, 0, 86, 65
1, 771321, Note_off_c, 0, 67, 67
1, 771326, Note_off_c, 0, 82, 66
1, 771343, Note_off_c, 0, 62, 64
1, 771350, Note_off_c, 0, 58, 66
1, 771572, Control_c, 0, 64, 80
1, 771587, Control_c, 0, 64, 33
1, 771601, Control_c, 0, 64, 0
1, 771604, Note_on_c, 0, 48, 100
1, 771606, Note_on_c, 0, 36, 88
1, 771607, Note_on_c, 0, 60, 111
1, 771636, Note_off_c, 0, 36, 68
1, 771647, Control_c, 0, 64, 66
1, 771654, Note_off_c, 0, 48, 67
1, 771654, Note_off_c, 0, 60, 68
1, 771662, Control_c, 0, 64, 104
1, 771677, Control_c, 0, 64, 127
1, 771933, Note_on_c, 0, 69, 98
1, 771940, Note_on_c, 0, 93, 98
1, 771941, Note_on_c, 0, 63, 87
1, 771942, Note_on_c, 0, 84, 92
1, 771943, Note_on_c, 0, 57, 80
1, 771943, Note_on_c, 0, 81, 95
1, 771944, Note_on_c, 0, 87, 94
1, 771945, Note_on_c, 0, 60, 85
1, 771966, Note_on_c, 0, 89, 60
1, 771973, Note_off_c, 0, 69, 70
1, 771984, Note_off_c, 0, 93, 68
1, 771985, Note_off_c, 0, 89, 63
1, 771991, Note_off_c, 0, 81, 66
1, 771997, Note_off_c, 0, 84, 67
1, 771997, Note_off_c, 0, 87, 66
1, 772000, Note_off_c, 0, 57, 66
1, 772003, Note_off_c, 0, 63, 65
1, 772003, Note_off_c, 0, 60, 68
1, 772283, Control_c, 0, 64, 72
1, 772306, Control_c, 0, 64, 0
1, 772312, Note_on_c, 0, 60, 105
1, 772313, Note_on_c, 0, 36, 84
1, 772313, Note_on_c, 0, 48, 106
1, 772359, Note_off_c, 0, 36, 62
1, 772365, Control_c, 0, 64, 60
1, 772367, Note_off_c, 0, 60, 69
1, 772373, Note_off_c, 0, 48, 68
1, 772380, Control_c, 0, 64, 93
1, 772395, Control_c, 0, 64, 127
1, 772797, Note_on_c, 0, 87, 77
1, 772799, Note_on_c, 0, 92, 103
1, 772800, Note_on_c, 0, 68, 110
1, 772802, Note_on_c, 0, 80, 104
1, 772804, Note_on_c, 0, 56, 87
1, 772804, Note_on_c, 0, 60, 81
1, 772804, Note_on_c, 0, 63, 92
1, 772804, Note_on_c, 0, 84, 92
1, 772909, Poly_aftertouch_c, 0, 89, 0
1, 773252, Note_off_c, 0, 56, 61
1, 773286, Note_off_c, 0, 60, 59
1, 773296, Note_off_c, 0, 68, 55
1, 773322, Note_off_c, 0, 63, 58
1, 773484, Poly_aftertouch_c, 0, 89, 127
1, 773955, Note_off_c, 0, 92, 60
1, 773979, Note_off_c, 0, 84, 56
1, 773988, Note_off_c, 0, 80, 60
1, 774001, Poly_aftertouch_c, 0, 89, 0
1, 774013, Note_off_c, 0, 87, 62
1, 774033, Note_on_c, 0, 76, 106
1, 774042, Control_c, 0, 64, 70
1, 774057, Control_c, 0, 64, 0
1, 774116, Control_c, 0, 64, 57
1, 774131, Control_c, 0, 64, 100
1, 774145, Control_c, 0, 64, 127
1, 774202, Note_off_c, 0, 76, 60
1, 774207, Note_on_c, 0, 88, 95
1, 774209, Note_on_c, 0, 80, 92
1, 774219, Note_on_c, 0, 84, 76
1, 774274, Note_off_c, 0, 84, 63
1, 774293, Note_off_c, 0, 80, 59
1, 774300, Note_on_c, 0, 75, 102
1, 774300, Note_off_c, 0, 88, 62
1, 774372, Note_off_c, 0, 75, 63
1, 774387, Note_on_c, 0, 80, 93
1, 774387, Note_on_c, 0, 87, 92
1, 774441, Note_off_c, 0, 80, 64
1, 774453, Note_off_c, 0, 87, 63
1, 774469, Note_on_c, 0, 72, 86
1, 774542, Note_off_c, 0, 72, 65
1, 774543, Note_on_c, 0, 84, 85
1, 774547, Note_on_c, 0, 75, 85
1, 774562, Note_on_c, 0, 86, 54
1, 774563, Note_off_c, 0, 86, 127
1, 774590, Note_off_c, 0, 75, 64
1, 774592, Note_off_c, 0, 84, 66
1, 774620, Note_on_c, 0, 69, 92
1, 774682, Note_off_c, 0, 69, 64
1, 774692, Note_on_c, 0, 81, 91
1, 774693, Note_on_c, 0, 72, 88
1, 774695, Note_on_c, 0, 75, 84
1, 774725, Note_off_c, 0, 72, 62
1, 774727, Note_off_c, 0, 75, 60
1, 774736, Note_off_c, 0, 81, 67
1, 774765, Note_on_c, 0, 68, 99
1, 774808, Note_off_c, 0, 68, 68
1, 774815, Note_on_c, 0, 80, 88
1, 774819, Note_on_c, 0, 72, 81
1, 774826, Note_on_c, 0, 75, 75
1, 774847, Note_off_c, 0, 72, 64
1, 774852, Note_off_c, 0, 75, 68
1, 774858, Note_off_c, 0, 80, 62
1, 774889, Note_on_c, 0, 64, 95
1, 774935, Note_on_c, 0, 75, 87
1, 774936, Note_off_c, 0, 64, 67
1, 774948, Note_on_c, 0, 68, 80
1, 774965, Note_on_c, 0, 71, 48
1, 774970, Note_off_c, 0, 68, 66
1, 774972, Note_on_c, 0, 72, 57
1, 774987, Note_off_c, 0, 71, 58
1, 774990, Note_off_c, 0, 75, 58
1, 774991, Note_off_c, 0, 72, 65
1, 775019, Note_on_c, 0, 63, 93
1, 775055, Note_on_c, 0, 68, 90
1, 775058, Note_on_c, 0, 75, 82
1, 775065, Note_off_c, 0, 63, 65
1, 775094, Note_off_c, 0, 68, 60
1, 775106, Note_off_c, 0, 75, 63
1, 775127, Note_on_c, 0, 60, 99
1, 775147, Poly_aftertouch_c, 0, 72, 0
1, 775175, Control_c, 0, 64, 75
1, 775178, Note_on_c, 0, 72, 77
1, 775179, Note_off_c, 0, 60, 66
1, 775188, Note_on_c, 0, 63, 81
1, 775190, Control_c, 0, 64, 70
1, 775205, Control_c, 0, 64, 80
1, 775214, Note_off_c, 0, 63, 63
1, 775220, Control_c, 0, 64, 127
1, 775226, Note_off_c, 0, 72, 65
1, 775256, Note_on_c, 0, 57, 96
1, 775297, Poly_aftertouch_c, 0, 68, 0
1, 775312, Note_off_c, 0, 57, 65
1, 775321, Note_on_c, 0, 60, 82
1, 775321, Note_on_c, 0, 63, 76
1, 775329, Note_on_c, 0, 69, 63
1, 775333, Note_on_c, 0, 71, 67
1, 775342, Note_off_c, 0, 60, 67
1, 775347, Note_off_c, 0, 63, 64
1, 775359, Note_off_c, 0, 69, 67
1, 775360, Note_off_c, 0, 71, 69
1, 775384, Note_on_c, 0, 56, 80
1, 775430, Note_off_c, 0, 56, 66
1, 775437, Note_on_c, 0, 68, 79
1, 775443, Note_on_c, 0, 60, 72
1, 775451, Note_on_c, 0, 63, 49
1, 775460, Note_off_c, 0, 68, 68
1, 775464, Note_off_c, 0, 60, 71
1, 775481, Note_off_c, 0, 63, 53
1, 775503, Note_on_c, 0, 52, 94
1, 775555, Note_off_c, 0, 52, 66
1, 775567, Note_on_c, 0, 64, 72
1, 775571, Note_on_c, 0, 60, 62
1, 775573, Note_on_c, 0, 56, 66
1, 775599, Note_off_c, 0, 60, 66
1, 775601, Note_off_c, 0, 56, 63
1, 775607, Note_off_c, 0, 64, 59
1, 775626, Control_c, 0, 64, 88
1, 775631, Note_on_c, 0, 51, 91
1, 775642, Control_c, 0, 64, 74
1, 775657, Control_c, 0, 64, 78
1, 775669, Note_on_c, 0, 56, 85
1, 775671, Control_c, 0, 64, 94
1, 775673, Note_on_c, 0, 60, 63
1, 775673, Note_on_c, 0, 63, 74
1, 775684, Note_off_c, 0, 51, 65
1, 775686, Control_c, 0, 64, 127
1, 775701, Note_off_c, 0, 60, 68
1, 775703, Note_off_c, 0, 56, 61
1, 775717, Note_off_c, 0, 63, 59
1, 775741, Poly_aftertouch_c, 0, 49, 0
1, 775753, Note_on_c, 0, 48, 81
1, 775803, Note_on_c, 0, 60, 71
1, 775809, Note_off_c, 0, 48, 64
1, 775815, Note_on_c, 0, 51, 81
1, 775845, Note_off_c, 0, 51, 65
1, 775863, Note_off_c, 0, 60, 64
1, 775881, Note_on_c, 0, 45, 79
1, 775934, Note_off_c, 0, 45, 64
1, 775959, Note_on_c, 0, 57, 64
1, 775964, Note_on_c, 0, 51, 57
1, 775984, Note_off_c, 0, 51, 63
1, 775994, Note_on_c, 0, 44, 84
1, 776000, Note_off_c, 0, 57, 59
1, 776046, Note_off_c, 0, 44, 64
1, 776056, Note_on_c, 0, 56, 80
1, 776063, Note_on_c, 0, 48, 45
1, 776063, Note_on_c, 0, 51, 62
1, 776091, Note_off_c, 0, 51, 66
1, 776099, Note_off_c, 0, 56, 65
1, 776105, Note_off_c, 0, 48, 64
1, 776123, Control_c, 0, 64, 89
1, 776126, Note_on_c, 0, 40, 89
1, 776138, Control_c, 0, 64, 60
1, 776153, Control_c, 0, 64, 0
1, 776187, Note_off_c, 0, 40, 63
1, 776197, Control_c, 0, 64, 39
1, 776208, Note_on_c, 0, 52, 71
1, 776212, Control_c, 0, 64, 61
1, 776227, Control_c, 0, 64, 65
1, 776234, Note_on_c, 0, 48, 44
1, 776241, Note_on_c, 0, 44, 39
1, 776242, Control_c, 0, 64, 68
1, 776256, Note_off_c, 0, 52, 63
1, 776257, Control_c, 0, 64, 70
1, 776263, Note_off_c, 0, 48, 51
1, 776271, Control_c, 0, 64, 72
1, 776275, Note_on_c, 0, 39, 66
1, 776275, Note_off_c, 0, 44, 45
1, 776286, Control_c, 0, 64, 75
1, 776301, Control_c, 0, 64, 76
1, 776315, Control_c, 0, 64, 74
1, 776335, Note_on_c, 0, 51, 77
1, 776342, Note_on_c, 0, 48, 63
1, 776343, Note_off_c, 0, 39, 62
1, 776345, Control_c, 0, 64, 77
1, 776361, Control_c, 0, 64, 83
1, 776373, Note_off_c, 0, 48, 65
1, 776376, Note_on_c, 0, 44, 22
1, 776376, Control_c, 0, 64, 94
1, 776381, Note_off_c, 0, 51, 62
1, 776390, Control_c, 0, 64, 110
1, 776399, Note_on_c, 0, 36, 65
1, 776405, Control_c, 0, 64, 127
1, 776408, Note_off_c, 0, 44, 48
1, 776445, Note_off_c, 0, 36, 62
1, 776471, Note_on_c, 0, 56, 77
1, 776501, Note_on_c, 0, 44, 35
1, 776502, Note_off_c, 0, 56, 66
1, 776537, Note_off_c, 0, 44, 0
1, 776537, Note_on_c, 0, 44, 46
1, 776543, Note_on_c, 0, 32, 68
1, 776580, Note_off_c, 0, 32, 64
1, 776591, Note_off_c, 0, 44, 62
1, 776615, Note_on_c, 0, 60, 76
1, 776616, Note_on_c, 0, 48, 78
1, 776639, Note_off_c, 0, 60, 70
1, 776648, Note_off_c, 0, 48, 65
1, 776695, Note_on_c, 0, 36, 73
1, 776703, Note_on_c, 0, 48, 75
1, 776729, Note_off_c, 0, 48, 66
1, 776731, Note_off_c, 0, 36, 58
1, 776767, Note_on_c, 0, 63, 83
1, 776768, Note_on_c, 0, 51, 84
1, 776796, Note_off_c, 0, 51, 68
1, 776799, Note_off_c, 0, 63, 67
1, 776835, Note_on_c, 0, 51, 89
1, 776841, Note_on_c, 0, 39, 70
1, 776871, Note_off_c, 0, 51, 64
1, 776874, Note_off_c, 0, 39, 64
1, 776907, Note_on_c, 0, 68, 91
1, 776925, Note_on_c, 0, 56, 66
1, 776936, Note_off_c, 0, 68, 62
1, 776946, Note_off_c, 0, 56, 61
1, 776968, Note_on_c, 0, 56, 75
1, 776973, Note_on_c, 0, 44, 78
1, 777002, Note_off_c, 0, 56, 61
1, 777014, Note_off_c, 0, 44, 64
1, 777044, Note_on_c, 0, 72, 81
1, 777045, Note_on_c, 0, 60, 79
1, 777065, Note_off_c, 0, 72, 71
1, 777072, Note_off_c, 0, 60, 69
1, 777104, Note_on_c, 0, 47, 67
1, 777108, Note_on_c, 0, 60, 71
1, 777112, Note_on_c, 0, 48, 69
1, 777112, Note_on_c, 0, 59, 56
1, 777131, Note_off_c, 0, 60, 71
1, 777133, Note_off_c, 0, 47, 65
1, 777142, Note_off_c, 0, 59, 65
1, 777143, Note_off_c, 0, 48, 64
1, 777179, Note_on_c, 0, 75, 91
1, 777184, Note_on_c, 0, 63, 79
1, 777197, Note_off_c, 0, 75, 72
1, 777211, Note_off_c, 0, 63, 0
1, 777225, Note_on_c, 0, 51, 83
1, 777255, Poly_aftertouch_c, 0, 63, 0
1, 777256, Note_off_c, 0, 51, 66
1, 777315, Note_on_c, 0, 82, 95
1, 777321, Note_on_c, 0, 70, 83
1, 777331, Note_off_c, 0, 82, 75
1, 777341, Note_off_c, 0, 70, 72
1, 777345, Note_on_c, 0, 80, 40
1, 777357, Note_on_c, 0, 68, 87
1, 777359, Note_on_c, 0, 56, 89
1, 777374, Note_off_c, 0, 80, 37
1, 777384, Note_off_c, 0, 68, 64
1, 777397, Note_off_c, 0, 56, 63
1, 777431, Poly_aftertouch_c, 0, 81, 0
1, 777457, Note_on_c, 0, 72, 70
1, 777461, Poly_aftertouch_c, 0, 58, 0
1, 777464, Note_on_c, 0, 86, 66
1, 777465, Note_on_c, 0, 74, 66
1, 777467, Note_on_c, 0, 85, 56
1, 777473, Note_off_c, 0, 72, 69
1, 777476, Note_on_c, 0, 63, 93
1, 777480, Note_on_c, 0, 51, 93
1, 777481, Note_off_c, 0, 86, 65
1, 777482, Note_off_c, 0, 74, 64
1, 777487, Note_off_c, 0, 85, 61
1, 777503, Note_on_c, 0, 84, 6
1, 777515, Note_off_c, 0, 51, 59
1, 777521, Note_off_c, 0, 63, 64
1, 777561, Note_off_c, 0, 84, 29
1, 777594, Note_on_c, 0, 87, 86
1, 777604, Note_on_c, 0, 88, 78
1, 777606, Note_on_c, 0, 60, 90
1, 777609, Note_on_c, 0, 48, 84
1, 777624, Note_off_c, 0, 88, 71
1, 777627, Note_off_c, 0, 87, 63
1, 777645, Note_off_c, 0, 60, 67
1, 777658, Note_off_c, 0, 48, 64
1, 777721, Note_on_c, 0, 92, 108
1, 777724, Note_on_c, 0, 80, 95
1, 777732, Note_on_c, 0, 56, 99
1, 777737, Note_on_c, 0, 44, 97
1, 777745, Note_off_c, 0, 80, 64
1, 777771, Note_on_c, 0, 82, 27
1, 777772, Note_off_c, 0, 82, 127
1, 777773, Note_off_c, 0, 92, 64
1, 777785, Note_off_c, 0, 56, 64
1, 777791, Note_off_c, 0, 44, 63
1, 777845, Note_on_c, 0, 95, 106
1, 777849, Note_on_c, 0, 81, 94
1, 777850, Note_on_c, 0, 83, 93
1, 777863, Note_on_c, 0, 93, 78
1, 777871, Note_off_c, 0, 81, 69
1, 777873, Note_on_c, 0, 51, 102
1, 777876, Note_off_c, 0, 93, 66
1, 777882, Note_on_c, 0, 39, 90
1, 777882, Note_off_c, 0, 83, 66
1, 777885, Note_off_c, 0, 95, 67
1, 777918, Note_off_c, 0, 51, 65
1, 777921, Note_off_c, 0, 39, 63
1, 777967, Note_on_c, 0, 84, 99
1, 777972, Note_on_c, 0, 96, 100
1, 777980, Note_on_c, 0, 49, 78
1, 778003, Note_on_c, 0, 42, 56
1, 778004, Note_off_c, 0, 84, 69
1, 778008, Note_off_c, 0, 49, 67
1, 778013, Note_off_c, 0, 96, 65
1, 778019, Note_on_c, 0, 37, 42
1, 778019, Note_on_c, 0, 39, 41
1, 778036, Note_on_c, 0, 48, 14
1, 778065, Note_off_c, 0, 48, 50
1, 778108, Note_on_c, 0, 36, 73
1, 778109, Note_on_c, 0, 48, 102
1, 778113, Note_on_c, 0, 35, 60
1, 778116, Note_off_c, 0, 37, 61
1, 778124, Note_off_c, 0, 42, 61
1, 778130, Note_on_c, 0, 92, 5
1, 778152, Note_on_c, 0, 38, 33
1, 778153, Poly_aftertouch_c, 0, 96, 127
1, 778171, Note_on_c, 0, 96, 42
1, 778175, Note_off_c, 0, 92, 0
1, 778175, Note_on_c, 0, 92, 49
1, 778177, Note_on_c, 0, 99, 109
1, 778178, Note_on_c, 0, 87, 110
1, 778190, Note_off_c, 0, 38, 49
1, 778200, Control_c, 0, 64, 97
1, 778215, Control_c, 0, 64, 54
1, 778230, Control_c, 0, 64, 0
1, 778254, Note_off_c, 0, 35, 48
1, 778326, Control_c, 0, 64, 64
1, 778341, Control_c, 0, 64, 127
1, 778442, Note_off_c, 0, 99, 65
1, 778451, Note_off_c, 0, 92, 65
1, 778453, Note_off_c, 0, 96, 65
1, 778478, Note_off_c, 0, 87, 63
1, 778482, Note_off_c, 0, 36, 63
1, 778486, Note_off_c, 0, 48, 65
1, 778504, Control_c, 0, 64, 79
1, 778509, Note_off_c, 0, 39, 6
1, 778519, Control_c, 0, 64, 0
1, 778829, Control_c, 0, 64, 81
1, 778838, Note_on_c, 0, 87, 108
1, 778839, Note_on_c, 0, 60, 102
1, 778839, Note_on_c, 0, 78, 90
1, 778842, Note_on_c, 0, 75, 104
1, 778843, Note_on_c, 0, 48, 87
1, 778843, Note_on_c, 0, 57, 95
1, 778845, Note_on_c, 0, 54, 94
1, 778845, Note_on_c, 0, 81, 93
1, 778845, Control_c, 0, 64, 127
1, 778880, Note_on_c, 0, 84, 50
1, 778881, Note_off_c, 0, 60, 70
1, 778885, Note_off_c, 0, 87, 70
1, 778885, Note_off_c, 0, 48, 66
1, 778886, Note_on_c, 0, 52, 35
1, 778891, Note_off_c, 0, 57, 67
1, 778898, Note_off_c, 0, 54, 67
1, 778904, Note_off_c, 0, 81, 60
1, 778906, Note_off_c, 0, 84, 53
1, 778915, Note_off_c, 0, 75, 62
1, 778917, Note_off_c, 0, 52, 55
1, 778921, Note_off_c, 0, 78, 63
1, 779075, Control_c, 0, 64, 98
1, 779090, Control_c, 0, 64, 60
1, 779104, Control_c, 0, 64, 0
1, 779208, Note_on_c, 0, 62, 99
1, 779208, Control_c, 0, 64, 14
1, 779209, Note_on_c, 0, 78, 100
1, 779209, Note_on_c, 0, 86, 107
1, 779212, Note_on_c, 0, 50, 89
1, 779212, Note_on_c, 0, 57, 91
1, 779212, Note_on_c, 0, 74, 108
1, 779214, Note_on_c, 0, 54, 88
1, 779220, Note_on_c, 0, 81, 64
1, 779223, Control_c, 0, 64, 127
1, 779244, Note_on_c, 0, 84, 54
1, 779246, Note_off_c, 0, 62, 68
1, 779246, Note_off_c, 0, 81, 69
1, 779250, Note_on_c, 0, 83, 48
1, 779250, Note_off_c, 0, 74, 67
1, 779258, Note_off_c, 0, 57, 66
1, 779260, Note_off_c, 0, 78, 66
1, 779267, Note_off_c, 0, 50, 65
1, 779268, Note_off_c, 0, 86, 70
1, 779268, Note_on_c, 0, 82, 15
1, 779269, Note_off_c, 0, 82, 127
1, 779269, Note_off_c, 0, 84, 59
1, 779273, Note_off_c, 0, 54, 67
1, 779274, Note_off_c, 0, 83, 57
1, 779430, Control_c, 0, 64, 86
1, 779445, Control_c, 0, 64, 43
1, 779460, Control_c, 0, 64, 0
1, 779560, Note_on_c, 0, 83, 100
1, 779562, Note_on_c, 0, 86, 93
1, 779563, Note_on_c, 0, 91, 102
1, 779565, Note_on_c, 0, 79, 98
1, 779566, Note_on_c, 0, 43, 94
1, 779568, Note_on_c, 0, 31, 89
1, 779568, Note_on_c, 0, 38, 84
1, 779578, Control_c, 0, 64, 62
1, 779593, Control_c, 0, 64, 127
1, 779594, Note_on_c, 0, 89, 52
1, 779602, Note_off_c, 0, 86, 65
1, 779604, Note_off_c, 0, 83, 66
1, 779605, Note_off_c, 0, 79, 67
1, 779615, Note_off_c, 0, 31, 64
1, 779618, Note_off_c, 0, 43, 64
1, 779618, Note_off_c, 0, 38, 65
1, 779618, Note_off_c, 0, 89, 55
1, 779625, Note_off_c, 0, 91, 67
1, 779790, Note_on_c, 0, 83, 90
1, 779793, Note_on_c, 0, 95, 87
1, 779799, Note_on_c, 0, 38, 77
1, 779799, Note_on_c, 0, 43, 80
1, 779804, Note_on_c, 0, 31, 72
1, 779804, Note_on_c, 0, 90, 56
1, 779804, Note_on_c, 0, 91, 64
1, 779810, Note_off_c, 0, 83, 70
1, 779812, Note_on_c, 0, 93, 60
1, 779813, Note_on_c, 0, 89, 51
1, 779814, Note_off_c, 0, 95, 71
1, 779817, Note_off_c, 0, 43, 74
1, 779823, Note_off_c, 0, 91, 62
1, 779825, Note_off_c, 0, 90, 59
1, 779827, Note_off_c, 0, 31, 65
1, 779828, Note_off_c, 0, 38, 67
1, 779831, Note_off_c, 0, 93, 41
1, 779835, Note_off_c, 0, 89, 60
1, 779865, Note_on_c, 0, 43, 99
1, 779868, Note_on_c, 0, 31, 94
1, 779869, Note_on_c, 0, 96, 110
1, 779876, Note_on_c, 0, 84, 97
1, 779885, Note_on_c, 0, 38, 78
1, 779893, Note_on_c, 0, 86, 74
1, 779894, Note_off_c, 0, 86, 127
1, 779894, Note_off_c, 0, 31, 70
1, 779902, Note_off_c, 0, 84, 65
1, 779903, Note_off_c, 0, 43, 67
1, 779908, Note_off_c, 0, 96, 65
1, 779912, Note_off_c, 0, 38, 61
1, 779956, Poly_aftertouch_c, 0, 37, 0
1, 780066, Note_on_c, 0, 97, 95
1, 780071, Note_on_c, 0, 85, 86
1, 780095, Note_off_c, 0, 85, 68
1, 780106, Control_c, 0, 64, 70
1, 780116, Note_off_c, 0, 97, 65
1, 780120, Control_c, 0, 64, 0
1, 780158, Note_on_c, 0, 95, 95
1, 780159, Note_on_c, 0, 98, 101
1, 780160, Note_on_c, 0, 86, 92
1, 780165, Control_c, 0, 64, 39
1, 780170, Note_on_c, 0, 62, 101
1, 780172, Note_on_c, 0, 96, 66
1, 780173, Note_on_c, 0, 50, 94
1, 780174, Note_on_c, 0, 54, 95
1, 780178, Note_on_c, 0, 60, 88
1, 780180, Control_c, 0, 64, 79
1, 780189, Note_off_c, 0, 96, 65
1, 780195, Note_off_c, 0, 60, 64
1, 780195, Control_c, 0, 64, 127
1, 780201, Note_off_c, 0, 62, 73
1, 780203, Note_off_c, 0, 54, 64
1, 780208, Note_off_c, 0, 86, 63
1, 780210, Note_off_c, 0, 50, 62
1, 780236, Note_off_c, 0, 95, 55
1, 780251, Note_off_c, 0, 98, 55
1, 780359, Note_on_c, 0, 96, 89
1, 780361, Note_on_c, 0, 86, 87
1, 780363, Note_on_c, 0, 98, 83
1, 780370, Note_on_c, 0, 62, 98
1, 780372, Note_on_c, 0, 54, 88
1, 780382, Note_on_c, 0, 50, 67
1, 780382, Note_off_c, 0, 86, 70
1, 780387, Note_off_c, 0, 62, 74
1, 780387, Note_off_c, 0, 98, 70
1, 780389, Note_off_c, 0, 54, 74
1, 780400, Note_off_c, 0, 96, 66
1, 780401, Note_off_c, 0, 50, 65
1, 780440, Note_on_c, 0, 62, 101
1, 780440, Note_on_c, 0, 100, 105
1, 780443, Note_on_c, 0, 88, 102
1, 780445, Note_on_c, 0, 54, 96
1, 780448, Note_on_c, 0, 50, 99
1, 780449, Note_on_c, 0, 98, 70
1, 780450, Note_on_c, 0, 96, 77
1, 780463, Note_off_c, 0, 62, 63
1, 780474, Note_off_c, 0, 96, 68
1, 780480, Note_off_c, 0, 98, 61
1, 780481, Note_off_c, 0, 88, 65
1, 780483, Note_off_c, 0, 50, 59
1, 780485, Note_off_c, 0, 100, 68
1, 780487, Note_off_c, 0, 54, 68
1, 780657, Note_on_c, 0, 86, 89
1, 780663, Control_c, 0, 64, 66
1, 780665, Note_on_c, 0, 96, 70
1, 780675, Note_on_c, 0, 98, 57
1, 780676, Note_off_c, 0, 86, 72
1, 780678, Control_c, 0, 64, 0
1, 780681, Note_off_c, 0, 96, 67
1, 780686, Note_on_c, 0, 95, 44
1, 780687, Note_off_c, 0, 95, 127
1, 780698, Note_off_c, 0, 98, 60
1, 780732, Note_on_c, 0, 43, 92
1, 780732, Note_on_c, 0, 98, 98
1, 780733, Note_on_c, 0, 86, 100
1, 780735, Note_on_c, 0, 31, 81
1, 780737, Control_c, 0, 64, 34
1, 780737, Note_on_c, 0, 38, 79
1, 780746, Note_on_c, 0, 95, 77
1, 780752, Control_c, 0, 64, 89
1, 780767, Control_c, 0, 64, 127
1, 780770, Note_off_c, 0, 95, 66
1, 780778, Note_off_c, 0, 86, 67
1, 780779, Note_off_c, 0, 31, 63
1, 780779, Note_off_c, 0, 43, 64
1, 780779, Note_off_c, 0, 98, 67
1, 780787, Note_off_c, 0, 38, 63
1, 780928, Note_on_c, 0, 83, 81
1, 780934, Note_on_c, 0, 38, 80
1, 780937, Note_on_c, 0, 95, 72
1, 780939, Note_on_c, 0, 31, 76
1, 780940, Note_on_c, 0, 43, 79
1, 780944, Note_on_c, 0, 90, 46
1, 780947, Note_off_c, 0, 83, 72
1, 780952, Note_off_c, 0, 95, 66
1, 780964, Note_off_c, 0, 43, 65
1, 780967, Note_off_c, 0, 38, 67
1, 780968, Note_off_c, 0, 90, 39
1, 780971, Note_off_c, 0, 31, 64
1, 781003, Note_on_c, 0, 96, 99
1, 781006, Note_on_c, 0, 43, 97
1, 781007, Note_on_c, 0, 84, 97
1, 781011, Note_on_c, 0, 38, 79
1, 781018, Poly_aftertouch_c, 0, 31, 0
1, 781032, Note_off_c, 0, 84, 66
1, 781038, Note_off_c, 0, 38, 69
1, 781039, Note_off_c, 0, 96, 67
1, 781040, Note_on_c, 0, 94, 34
1, 781041, Note_on_c, 0, 95, 26
1, 781042, Note_off_c, 0, 95, 127
1, 781045, Note_off_c, 0, 43, 64
1, 781047, Note_on_c, 0, 86, 36
1, 781048, Note_off_c, 0, 86, 127
1, 781074, Note_off_c, 0, 94, 33
1, 781211, Note_on_c, 0, 97, 89
1, 781223, Note_on_c, 0, 85, 63
1, 781226, Control_c, 0, 64, 68
1, 781241, Note_off_c, 0, 85, 56
1, 781241, Control_c, 0, 64, 0
1, 781268, Note_off_c, 0, 97, 64
1, 781293, Control_c, 0, 64, 23
1, 781298, Note_on_c, 0, 62, 96
1, 781303, Note_on_c, 0, 98, 99
1, 781304, Note_on_c, 0, 50, 78
1, 781304, Note_on_c, 0, 54, 80
1, 781305, Note_on_c, 0, 86, 87
1, 781308, Note_on_c, 0, 95, 87
1, 781308, Control_c, 0, 64, 68
1, 781322, Note_on_c, 0, 96, 57
1, 781323, Control_c, 0, 64, 127
1, 781341, Note_off_c, 0, 96, 61
1, 781348, Note_off_c, 0, 62, 65
1, 781354, Note_off_c, 0, 54, 64
1, 781356, Note_off_c, 0, 50, 63
1, 781359, Note_off_c, 0, 86, 62
1, 781380, Note_off_c, 0, 95, 62
1, 781381, Note_off_c, 0, 98, 65
1, 781491, Note_on_c, 0, 98, 84
1, 781491, Note_on_c, 0, 86, 84
1, 781497, Note_on_c, 0, 96, 82
1, 781507, Note_on_c, 0, 54, 60
1, 781507, Note_on_c, 0, 95, 56
1, 781514, Note_off_c, 0, 98, 70
1, 781517, Note_on_c, 0, 62, 38
1, 781519, Note_off_c, 0, 86, 62
1, 781524, Note_off_c, 0, 54, 69
1, 781524, Note_off_c, 0, 96, 67
1, 781528, Note_off_c, 0, 95, 60
1, 781536, Note_off_c, 0, 62, 66
1, 781557, Note_on_c, 0, 50, 47
1, 781559, Note_on_c, 0, 62, 85
1, 781563, Note_on_c, 0, 100, 106
1, 781566, Note_on_c, 0, 54, 93
1, 781569, Note_on_c, 0, 88, 93
1, 781570, Note_on_c, 0, 96, 78
1, 781590, Note_off_c, 0, 62, 63
1, 781598, Note_off_c, 0, 96, 68
1, 781605, Note_off_c, 0, 88, 67
1, 781607, Note_off_c, 0, 54, 67
1, 781609, Note_on_c, 0, 98, 27
1, 781610, Note_off_c, 0, 98, 127
1, 781613, Note_off_c, 0, 100, 66
1, 781615, Note_off_c, 0, 50, 65
1, 781754, Note_on_c, 0, 98, 86
1, 781755, Note_on_c, 0, 86, 85
1, 781755, Note_on_c, 0, 95, 84
1, 781774, Note_off_c, 0, 86, 72
1, 781776, Note_off_c, 0, 98, 70
1, 781777, Note_off_c, 0, 95, 70
1, 781811, Control_c, 0, 64, 75
1, 781826, Control_c, 0, 64, 61
1, 781831, Note_on_c, 0, 43, 97
1, 781835, Note_on_c, 0, 98, 100
1, 781836, Note_on_c, 0, 86, 95
1, 781837, Note_on_c, 0, 38, 77
1, 781838, Note_on_c, 0, 31, 75
1, 781839, Note_on_c, 0, 35, 72
1, 781840, Note_on_c, 0, 95, 86
1, 781841, Control_c, 0, 64, 59
1, 781856, Control_c, 0, 64, 66
1, 781869, Note_off_c, 0, 31, 66
1, 781870, Note_off_c, 0, 38, 66
1, 781870, Note_off_c, 0, 35, 65
1, 781871, Note_off_c, 0, 43, 61
1, 781871, Control_c, 0, 64, 79
1, 781884, Note_off_c, 0, 86, 65
1, 781884, Note_off_c, 0, 95, 63
1, 781885, Control_c, 0, 64, 127
1, 781888, Note_off_c, 0, 98, 64
1, 781957, Poly_aftertouch_c, 0, 34, 0
1, 782010, Note_on_c, 0, 98, 80
1, 782012, Note_on_c, 0, 86, 78
1, 782046, Note_on_c, 0, 95, 32
1, 782047, Note_off_c, 0, 86, 66
1, 782049, Note_on_c, 0, 96, 52
1, 782051, Note_off_c, 0, 98, 65
1, 782057, Control_c, 0, 64, 117
1, 782070, Note_off_c, 0, 96, 59
1, 782072, Control_c, 0, 64, 69
1, 782081, Note_off_c, 0, 95, 32
1, 782087, Control_c, 0, 64, 59
1, 782100, Note_on_c, 0, 44, 85
1, 782102, Control_c, 0, 64, 60
1, 782102, Note_on_c, 0, 100, 97
1, 782107, Note_on_c, 0, 88, 86
1, 782109, Note_on_c, 0, 42, 77
1, 782109, Note_on_c, 0, 96, 84
1, 782112, Note_on_c, 0, 48, 73
1, 782112, Note_on_c, 0, 50, 76
1, 782116, Control_c, 0, 64, 66
1, 782119, Note_on_c, 0, 36, 53
1, 782131, Control_c, 0, 64, 80
1, 782133, Note_on_c, 0, 38, 42
1, 782138, Note_off_c, 0, 42, 64
1, 782138, Note_off_c, 0, 96, 65
1, 782141, Note_off_c, 0, 50, 66
1, 782141, Note_off_c, 0, 44, 63
1, 782142, Note_off_c, 0, 48, 67
1, 782146, Control_c, 0, 64, 127
1, 782147, Note_off_c, 0, 88, 66
1, 782150, Note_off_c, 0, 36, 56
1, 782150, Note_off_c, 0, 100, 66
1, 782164, Note_off_c, 0, 38, 55
1, 782307, Note_on_c, 0, 95, 86
1, 782308, Note_on_c, 0, 86, 79
1, 782313, Note_on_c, 0, 98, 80
1, 782333, Note_off_c, 0, 86, 67
1, 782337, Note_off_c, 0, 98, 71
1, 782338, Note_off_c, 0, 95, 63
1, 782338, Control_c, 0, 64, 76
1, 782353, Control_c, 0, 64, 60
1, 782367, Note_on_c, 0, 55, 90
1, 782368, Control_c, 0, 64, 57
1, 782371, Note_on_c, 0, 50, 86
1, 782376, Note_on_c, 0, 47, 80
1, 782377, Note_on_c, 0, 43, 59
1, 782383, Control_c, 0, 64, 61
1, 782389, Note_on_c, 0, 98, 99
1, 782392, Note_on_c, 0, 86, 92
1, 782393, Note_off_c, 0, 55, 67
1, 782395, Note_on_c, 0, 95, 88
1, 782396, Note_off_c, 0, 50, 69
1, 782398, Control_c, 0, 64, 70
1, 782401, Note_off_c, 0, 47, 67
1, 782404, Note_off_c, 0, 43, 58
1, 782413, Control_c, 0, 64, 92
1, 782427, Control_c, 0, 64, 127
1, 782431, Note_off_c, 0, 95, 62
1, 782443, Note_off_c, 0, 86, 61
1, 782450, Note_off_c, 0, 98, 65
1, 782547, Note_on_c, 0, 98, 86
1, 782547, Note_on_c, 0, 96, 83
1, 782549, Note_on_c, 0, 86, 73
1, 782560, Control_c, 0, 64, 116
1, 782562, Note_off_c, 0, 86, 69
1, 782567, Note_off_c, 0, 98, 72
1, 782569, Note_off_c, 0, 96, 69
1, 782571, Note_on_c, 0, 88, 49
1, 782572, Note_off_c, 0, 88, 127
1, 782575, Control_c, 0, 64, 73
1, 782590, Control_c, 0, 64, 63
1, 782605, Control_c, 0, 64, 64
1, 782612, Note_on_c, 0, 57, 81
1, 782614, Note_on_c, 0, 62, 91
1, 782615, Note_on_c, 0, 54, 82
1, 782620, Control_c, 0, 64, 73
1, 782621, Note_on_c, 0, 100, 106
1, 782623, Note_on_c, 0, 50, 56
1, 782626, Note_on_c, 0, 88, 87
1, 782629, Note_on_c, 0, 98, 78
1, 782634, Note_on_c, 0, 96, 82
1, 782634, Control_c, 0, 64, 127
1, 782639, Note_off_c, 0, 57, 68
1, 782641, Note_off_c, 0, 62, 64
1, 782645, Note_off_c, 0, 54, 67
1, 782645, Note_off_c, 0, 50, 60
1, 782656, Note_off_c, 0, 96, 71
1, 782656, Note_off_c, 0, 98, 66
1, 782663, Note_off_c, 0, 88, 66
1, 782672, Note_off_c, 0, 100, 66
1, 782836, Note_on_c, 0, 98, 74
1, 782837, Note_on_c, 0, 95, 74
1, 782845, Note_on_c, 0, 86, 63
1, 782868, Note_off_c, 0, 86, 63
1, 782878, Note_off_c, 0, 95, 61
1, 782888, Note_off_c, 0, 98, 63
1, 782950, Note_on_c, 0, 77, 83
1, 782951, Note_on_c, 0, 65, 80
1, 782952, Note_on_c, 0, 98, 91
1, 782955, Note_on_c, 0, 86, 83
1, 782956, Note_on_c, 0, 95, 90
1, 782963, Note_on_c, 0, 76, 77
1, 782970, Note_on_c, 0, 70, 43
1, 782972, Note_on_c, 0, 72, 62
1, 782976, Note_off_c, 0, 77, 67
1, 782977, Note_off_c, 0, 76, 66
1, 782982, Note_off_c, 0, 65, 62
1, 782982, Note_off_c, 0, 86, 66
1, 782986, Note_off_c, 0, 95, 63
1, 782990, Note_off_c, 0, 72, 64
1, 782999, Note_off_c, 0, 70, 54
1, 783003, Note_off_c, 0, 98, 67
1, 783013, Control_c, 0, 64, 66
1, 783028, Control_c, 0, 64, 0
1, 783205, Poly_aftertouch_c, 0, 92, 0
1, 783244, Note_on_c, 0, 71, 81
1, 783246, Note_on_c, 0, 59, 69
1, 783247, Note_on_c, 0, 95, 83
1, 783248, Note_on_c, 0, 83, 87
1, 783249, Note_on_c, 0, 90, 86
1, 783253, Note_on_c, 0, 63, 69
1, 783253, Note_on_c, 0, 66, 72
1, 783254, Note_on_c, 0, 87, 79
1, 783271, Note_off_c, 0, 83, 67
1, 783273, Note_off_c, 0, 90, 67
1, 783274, Note_off_c, 0, 59, 66
1, 783274, Note_off_c, 0, 71, 64
1, 783277, Note_off_c, 0, 87, 68
1, 783277, Note_off_c, 0, 95, 64
1, 783279, Note_off_c, 0, 63, 66
1, 783280, Note_off_c, 0, 66, 68
1, 783489, Note_on_c, 0, 76, 79
1, 783492, Note_on_c, 0, 92, 97
1, 783495, Note_on_c, 0, 71, 70
1, 783497, Note_on_c, 0, 80, 80
1, 783497, Note_on_c, 0, 83, 75
1, 783498, Note_on_c, 0, 68, 71
1, 783503, Note_on_c, 0, 64, 60
1, 783512, Note_off_c, 0, 76, 71
1, 783521, Note_off_c, 0, 71, 68
1, 783536, Note_off_c, 0, 68, 66
1, 783536, Note_off_c, 0, 80, 65
1, 783542, Note_off_c, 0, 64, 66
1, 783542, Note_off_c, 0, 83, 64
1, 783547, Note_off_c, 0, 92, 66
1, 783739, Note_on_c, 0, 91, 87
1, 783745, Note_on_c, 0, 79, 81
1, 783745, Note_on_c, 0, 67, 78
1, 783748, Note_on_c, 0, 55, 61
1, 783751, Note_on_c, 0, 59, 74
1, 783751, Note_on_c, 0, 62, 74
1, 783757, Note_on_c, 0, 83, 59
1, 783766, Note_on_c, 0, 86, 41
1, 783773, Note_on_c, 0, 89, 47
1, 783774, Note_off_c, 0, 89, 127
1, 783774, Note_off_c, 0, 79, 66
1, 783775, Note_off_c, 0, 67, 63
1, 783775, Note_off_c, 0, 83, 63
1, 783776, Note_off_c, 0, 55, 63
1, 783776, Note_off_c, 0, 59, 68
1, 783776, Note_off_c, 0, 62, 68
1, 783780, Note_off_c, 0, 91, 64
1, 783793, Note_off_c, 0, 86, 45
1, 783967, Note_on_c, 0, 64, 82
1, 783970, Note_on_c, 0, 72, 65
1, 783971, Note_on_c, 0, 79, 83
1, 783974, Note_on_c, 0, 67, 68
1, 783974, Note_on_c, 0, 76, 76
1, 783976, Note_on_c, 0, 84, 62
1, 783977, Note_on_c, 0, 88, 73
1, 783989, Note_off_c, 0, 72, 65
1, 783993, Note_on_c, 0, 71, 39
1, 783994, Note_off_c, 0, 71, 127
1, 783997, Note_off_c, 0, 64, 67
1, 783998, Note_off_c, 0, 76, 70
1, 784000, Note_off_c, 0, 67, 68
1, 784003, Note_off_c, 0, 88, 64
1, 784004, Note_off_c, 0, 84, 68
1, 784006, Note_off_c, 0, 79, 67
1, 784010, Note_on_c, 0, 60, 9
1, 784045, Note_off_c, 0, 60, 37
1, 784185, Note_on_c, 0, 87, 82
1, 784189, Note_on_c, 0, 55, 67
1, 784191, Note_on_c, 0, 63, 83
1, 784192, Note_on_c, 0, 82, 75
1, 784193, Note_on_c, 0, 51, 73
1, 784193, Note_on_c, 0, 75, 68
1, 784198, Note_on_c, 0, 58, 75
1, 784201, Note_on_c, 0, 78, 63
1, 784215, Note_off_c, 0, 63, 65
1, 784219, Note_off_c, 0, 75, 67
1, 784221, Note_off_c, 0, 51, 66
1, 784222, Note_off_c, 0, 82, 64
1, 784223, Note_off_c, 0, 87, 65
1, 784224, Note_off_c, 0, 55, 67
1, 784227, Note_off_c, 0, 58, 69
1, 784228, Note_off_c, 0, 78, 64
1, 784356, Note_on_c, 0, 61, 39
1, 784390, Note_on_c, 0, 72, 74
1, 784390, Note_on_c, 0, 84, 78
1, 784394, Note_on_c, 0, 75, 75
1, 784395, Note_on_c, 0, 56, 72
1, 784397, Note_on_c, 0, 80, 83
1, 784399, Note_on_c, 0, 68, 69
1, 784416, Note_off_c, 0, 68, 64
1, 784418, Note_off_c, 0, 72, 66
1, 784419, Note_off_c, 0, 75, 68
1, 784419, Note_off_c, 0, 56, 68
1, 784422, Note_off_c, 0, 80, 68
1, 784429, Note_off_c, 0, 84, 61
1, 784437, Note_off_c, 0, 61, 64
1, 784580, Note_on_c, 0, 54, 79
1, 784580, Note_on_c, 0, 57, 82
1, 784580, Note_on_c, 0, 86, 95
1, 784581, Note_on_c, 0, 74, 81
1, 784583, Note_on_c, 0, 81, 58
1, 784584, Note_on_c, 0, 62, 81
1, 784586, Note_on_c, 0, 78, 81
1, 784592, Note_on_c, 0, 50, 73
1, 784603, Note_on_c, 0, 83, 55
1, 784609, Note_off_c, 0, 78, 70
1, 784612, Note_off_c, 0, 81, 67
1, 784613, Note_off_c, 0, 57, 67
1, 784616, Note_off_c, 0, 74, 64
1, 784618, Note_off_c, 0, 50, 66
1, 784618, Note_off_c, 0, 62, 58
1, 784622, Note_off_c, 0, 83, 61
1, 784623, Note_off_c, 0, 86, 66
1, 784630, Note_off_c, 0, 54, 66
1, 784759, Note_on_c, 0, 83, 93
1, 784762, Note_on_c, 0, 71, 93
1, 784765, Note_on_c, 0, 74, 83
1, 784767, Note_on_c, 0, 67, 80
1, 784770, Note_on_c, 0, 79, 71
1, 784771, Note_on_c, 0, 55, 72
1, 784771, Note_on_c, 0, 59, 62
1, 784775, Note_on_c, 0, 62, 70
1, 784781, Note_on_c, 0, 60, 67
1, 784785, Note_off_c, 0, 74, 71
1, 784788, Note_off_c, 0, 67, 70
1, 784796, Note_off_c, 0, 71, 62
1, 784796, Note_off_c, 0, 79, 70
1, 784799, Note_off_c, 0, 62, 67
1, 784801, Note_off_c, 0, 60, 65
1, 784803, Note_off_c, 0, 55, 65
1, 784803, Note_off_c, 0, 59, 66
1, 784807, Note_off_c, 0, 83, 63
1, 784949, Note_on_c, 0, 59, 79
1, 784949, Note_on_c, 0, 51, 74
1, 784951, Note_on_c, 0, 47, 68
1, 784951, Note_on_c, 0, 78, 81
1, 784953, Note_on_c, 0, 54, 68
1, 784955, Note_on_c, 0, 75, 80
1, 784956, Note_on_c, 0, 82, 83
1, 784964, Note_on_c, 0, 80, 72
1, 784979, Note_off_c, 0, 51, 68
1, 784979, Note_off_c, 0, 75, 68
1, 784980, Note_off_c, 0, 47, 64
1, 784981, Note_on_c, 0, 71, 47
1, 784982, Note_off_c, 0, 78, 65
1, 784988, Note_off_c, 0, 54, 68
1, 784988, Note_off_c, 0, 59, 63
1, 784988, Note_off_c, 0, 80, 70
1, 785000, Note_off_c, 0, 82, 63
1, 785007, Note_off_c, 0, 71, 38
1, 785008, Note_on_c, 0, 83, 7
1, 785009, Note_off_c, 0, 83, 127
1, 785104, Note_on_c, 0, 75, 52
1, 785120, Note_on_c, 0, 56, 67
1, 785125, Note_on_c, 0, 64, 88
1, 785131, Note_on_c, 0, 59, 75
1, 785136, Note_on_c, 0, 52, 76
1, 785136, Note_on_c, 0, 80, 75
1, 785142, Note_on_c, 0, 68, 87
1, 785146, Note_on_c, 0, 78, 75
1, 785148, Note_off_c, 0, 64, 70
1, 785154, Note_on_c, 0, 71, 65
1, 785156, Note_off_c, 0, 59, 69
1, 785170, Note_off_c, 0, 52, 68
1, 785170, Note_off_c, 0, 56, 66
1, 785171, Note_off_c, 0, 78, 69
1, 785177, Note_on_c, 0, 74, 51
1, 785186, Note_off_c, 0, 75, 63
1, 785191, Note_off_c, 0, 68, 62
1, 785194, Note_off_c, 0, 71, 61
1, 785197, Note_off_c, 0, 74, 61
1, 785198, Note_off_c, 0, 80, 65
1, 785294, Note_on_c, 0, 55, 81
1, 785300, Note_on_c, 0, 50, 78
1, 785304, Note_on_c, 0, 47, 68
1, 785305, Note_on_c, 0, 79, 66
1, 785308, Note_on_c, 0, 67, 80
1, 785311, Note_on_c, 0, 43, 57
1, 785316, Note_on_c, 0, 71, 48
1, 785319, Note_on_c, 0, 77, 65
1, 785323, Note_off_c, 0, 79, 63
1, 785334, Note_off_c, 0, 67, 66
1, 785335, Note_off_c, 0, 77, 64
1, 785338, Note_off_c, 0, 43, 60
1, 785340, Note_off_c, 0, 47, 64
1, 785340, Note_off_c, 0, 71, 55
1, 785343, Note_on_c, 0, 76, 11
1, 785345, Note_off_c, 0, 55, 58
1, 785348, Note_off_c, 0, 50, 61
1, 785373, Note_off_c, 0, 76, 32
1, 785450, Note_on_c, 0, 64, 90
1, 785453, Note_on_c, 0, 67, 83
1, 785453, Note_on_c, 0, 76, 89
1, 785457, Note_on_c, 0, 55, 77
1, 785457, Note_on_c, 0, 72, 74
1, 785462, Note_on_c, 0, 60, 65
1, 785463, Note_on_c, 0, 52, 56
1, 785468, Note_on_c, 0, 48, 73
1, 785481, Note_off_c, 0, 60, 64
1, 785481, Note_off_c, 0, 72, 70
1, 785483, Note_off_c, 0, 55, 68
1, 785483, Note_off_c, 0, 64, 66
1, 785484, Note_on_c, 0, 53, 46
1, 785487, Note_off_c, 0, 76, 65
1, 785492, Note_off_c, 0, 52, 67
1, 785492, Note_off_c, 0, 67, 64
1, 785500, Note_off_c, 0, 48, 66
1, 785514, Note_off_c, 0, 53, 35
1, 785613, Note_on_c, 0, 63, 85
1, 785614, Note_on_c, 0, 70, 81
1, 785614, Note_on_c, 0, 67, 62
1, 785617, Note_on_c, 0, 75, 89
1, 785618, Note_on_c, 0, 51, 88
1, 785622, Note_on_c, 0, 43, 70
1, 785627, Note_on_c, 0, 46, 69
1, 785628, Note_on_c, 0, 39, 71
1, 785644, Note_off_c, 0, 67, 66
1, 785650, Note_off_c, 0, 63, 59
1, 785653, Note_off_c, 0, 51, 61
1, 785658, Note_off_c, 0, 43, 65
1, 785659, Note_off_c, 0, 39, 67
1, 785660, Note_off_c, 0, 70, 64
1, 785663, Note_off_c, 0, 75, 66
1, 785666, Note_off_c, 0, 46, 65
1, 785760, Note_on_c, 0, 63, 82
1, 785761, Note_on_c, 0, 60, 89
1, 785761, Note_on_c, 0, 72, 91
1, 785766, Note_on_c, 0, 49, 78
1, 785769, Note_on_c, 0, 51, 75
1, 785778, Note_on_c, 0, 56, 76
1, 785790, Note_on_c, 0, 44, 73
1, 785790, Note_off_c, 0, 60, 69
1, 785795, Note_off_c, 0, 63, 65
1, 785796, Note_on_c, 0, 71, 56
1, 785800, Note_off_c, 0, 71, 57
1, 785805, Note_off_c, 0, 51, 68
1, 785805, Note_off_c, 0, 56, 67
1, 785814, Note_off_c, 0, 72, 65
1, 785815, Note_off_c, 0, 49, 62
1, 785825, Note_off_c, 0, 44, 66
1, 785901, Note_on_c, 0, 62, 93
1, 785901, Note_on_c, 0, 74, 92
1, 785903, Note_on_c, 0, 42, 84
1, 785911, Note_on_c, 0, 66, 71
1, 785914, Note_on_c, 0, 50, 84
1, 785921, Note_on_c, 0, 69, 65
1, 785924, Note_on_c, 0, 45, 66
1, 785927, Note_on_c, 0, 38, 57
1, 785935, Note_off_c, 0, 66, 66
1, 785939, Note_off_c, 0, 69, 63
1, 785941, Note_off_c, 0, 62, 65
1, 785944, Note_off_c, 0, 74, 62
1, 785948, Note_off_c, 0, 50, 63
1, 785951, Note_off_c, 0, 45, 66
1, 785954, Note_off_c, 0, 38, 56
1, 785961, Note_off_c, 0, 42, 64
1, 786037, Note_on_c, 0, 59, 103
1, 786037, Note_on_c, 0, 71, 100
1, 786038, Control_c, 0, 64, 46
1, 786040, Note_on_c, 0, 55, 93
1, 786049, Note_on_c, 0, 67, 76
1, 786052, Note_on_c, 0, 62, 75
1, 786053, Control_c, 0, 64, 76
1, 786055, Note_on_c, 0, 47, 64
1, 786058, Note_on_c, 0, 43, 67
1, 786060, Note_on_c, 0, 50, 63
1, 786062, Note_on_c, 0, 48, 73
1, 786068, Note_off_c, 0, 55, 64
1, 786068, Control_c, 0, 64, 98
1, 786072, Note_on_c, 0, 52, 52
1, 786074, Note_off_c, 0, 67, 69
1, 786076, Note_off_c, 0, 62, 67
1, 786077, Note_off_c, 0, 59, 64
1, 786082, Control_c, 0, 64, 127
1, 786084, Note_off_c, 0, 50, 66
1, 786090, Note_off_c, 0, 47, 66
1, 786090, Note_off_c, 0, 48, 65
1, 786094, Note_off_c, 0, 43, 65
1, 786096, Note_off_c, 0, 52, 61
1, 786096, Control_c, 0, 64, 113
1, 786100, Note_off_c, 0, 71, 59
1, 786111, Control_c, 0, 64, 73
1, 786126, Control_c, 0, 64, 43
1, 786141, Control_c, 0, 64, 0
1, 786170, Note_on_c, 0, 71, 95
1, 786177, Note_on_c, 0, 59, 85
1, 786183, Note_on_c, 0, 60, 80
1, 786184, Note_on_c, 0, 47, 74
1, 786186, Note_on_c, 0, 39, 73
1, 786188, Note_on_c, 0, 35, 62
1, 786190, Note_on_c, 0, 42, 73
1, 786192, Note_on_c, 0, 67, 63
1, 786193, Note_on_c, 0, 63, 52
1, 786194, Note_off_c, 0, 63, 127
1, 786195, Note_on_c, 0, 45, 63
1, 786200, Note_on_c, 0, 33, 52
1, 786204, Note_off_c, 0, 60, 70
1, 786206, Note_on_c, 0, 64, 61
1, 786210, Note_off_c, 0, 67, 63
1, 786211, Note_off_c, 0, 71, 63
1, 786212, Note_off_c, 0, 59, 65
1, 786213, Note_on_c, 0, 69, 37
1, 786215, Note_off_c, 0, 35, 62
1, 786216, Note_off_c, 0, 47, 66
1, 786219, Note_off_c, 0, 39, 68
1, 786220, Note_off_c, 0, 45, 58
1, 786225, Note_off_c, 0, 42, 67
1, 786228, Note_off_c, 0, 64, 64
1, 786234, Note_off_c, 0, 69, 42
1, 786235, Note_off_c, 0, 33, 56
1, 786305, Note_on_c, 0, 63, 75
1, 786309, Note_on_c, 0, 56, 90
1, 786310, Note_on_c, 0, 52, 88
1, 786311, Note_on_c, 0, 68, 83
1, 786318, Note_on_c, 0, 48, 68
1, 786318, Note_on_c, 0, 60, 68
1, 786320, Note_on_c, 0, 59, 67
1, 786321, Note_on_c, 0, 45, 54
1, 786324, Note_on_c, 0, 65, 61
1, 786332, Note_on_c, 0, 40, 64
1, 786335, Note_off_c, 0, 52, 67
1, 786341, Note_off_c, 0, 48, 64
1, 786342, Note_off_c, 0, 63, 61
1, 786344, Note_off_c, 0, 65, 60
1, 786347, Note_off_c, 0, 60, 67
1, 786349, Note_off_c, 0, 59, 66
1, 786352, Note_off_c, 0, 45, 64
1, 786361, Note_off_c, 0, 56, 62
1, 786364, Note_off_c, 0, 40, 64
1, 786368, Note_off_c, 0, 68, 63
1, 786373, Note_on_c, 0, 47, 2
1, 786374, Note_off_c, 0, 47, 127
1, 786422, Note_on_c, 0, 59, 78
1, 786430, Note_on_c, 0, 67, 89
1, 786432, Note_on_c, 0, 55, 93
1, 786434, Note_on_c, 0, 43, 83
1, 786437, Note_on_c, 0, 35, 71
1, 786437, Note_on_c, 0, 62, 70
1, 786438, Note_on_c, 0, 31, 76
1, 786443, Note_on_c, 0, 38, 73
1, 786453, Note_on_c, 0, 63, 49
1, 786456, Note_on_c, 0, 64, 57
1, 786459, Note_on_c, 0, 41, 54
1, 786475, Note_off_c, 0, 31, 64
1, 786475, Note_off_c, 0, 63, 38
1, 786476, Note_off_c, 0, 64, 64
1, 786483, Note_off_c, 0, 38, 61
1, 786483, Note_off_c, 0, 67, 62
1, 786487, Note_off_c, 0, 62, 62
1, 786491, Note_off_c, 0, 59, 65
1, 786492, Note_off_c, 0, 41, 55
1, 786492, Note_off_c, 0, 55, 58
1, 786493, Note_off_c, 0, 35, 60
1, 786498, Note_off_c, 0, 43, 62
1, 786587, Note_on_c, 0, 64, 87
1, 786589, Note_on_c, 0, 52, 103
1, 786590, Note_on_c, 0, 43, 87
1, 786590, Note_on_c, 0, 48, 96
1, 786592, Note_on_c, 0, 55, 98
1, 786592, Control_c, 0, 64, 11
1, 786593, Note_on_c, 0, 40, 77
1, 786596, Note_on_c, 0, 60, 81
1, 786599, Note_on_c, 0, 36, 73
1, 786601, Note_on_c, 0, 62, 70
1, 786607, Note_on_c, 0, 58, 63
1, 786607, Control_c, 0, 64, 96
1, 786619, Note_off_c, 0, 62, 59
1, 786622, Note_off_c, 0, 60, 69
1, 786622, Control_c, 0, 64, 127
1, 786629, Note_off_c, 0, 58, 61
1, 786630, Note_off_c, 0, 48, 63
1, 786635, Note_off_c, 0, 52, 65
1, 786639, Note_off_c, 0, 43, 62
1, 786648, Note_off_c, 0, 40, 61
1, 786651, Note_off_c, 0, 36, 60
1, 786655, Note_off_c, 0, 64, 62
1, 786670, Note_off_c, 0, 55, 61
1, 786681, Control_c, 0, 64, 84
1, 786696, Control_c, 0, 64, 66
1, 786711, Control_c, 0, 64, 43
1, 786726, Control_c, 0, 64, 0
1, 786857, Poly_aftertouch_c, 0, 32, 127
1, 786895, Poly_aftertouch_c, 0, 32, 0
1, 786896, Note_on_c, 0, 39, 97
1, 786900, Note_on_c, 0, 34, 85
1, 786901, Note_on_c, 0, 51, 111
1, 786902, Note_on_c, 0, 63, 100
1, 786903, Note_on_c, 0, 58, 91
1, 786904, Control_c, 0, 64, 61
1, 786905, Note_on_c, 0, 27, 80
1, 786905, Note_on_c, 0, 55, 90
1, 786907, Note_on_c, 0, 31, 73
1, 786919, Control_c, 0, 64, 127
1, 786939, Note_on_c, 0, 60, 44
1, 786939, Note_off_c, 0, 27, 64
1, 786955, Note_off_c, 0, 31, 62
1, 786967, Note_off_c, 0, 60, 55
1, 786967, Note_off_c, 0, 63, 64
1, 786971, Note_off_c, 0, 39, 63
1, 786978, Note_off_c, 0, 55, 63
1, 786980, Note_off_c, 0, 51, 56
1, 786982, Note_off_c, 0, 34, 62
1, 786986, Note_off_c, 0, 58, 64
1, 787003, Poly_aftertouch_c, 0, 64, 0
1, 787009, Control_c, 0, 64, 117
1, 787023, Control_c, 0, 64, 70
1, 787024, Poly_aftertouch_c, 0, 64, 0
1, 787038, Control_c, 0, 64, 46
1, 787053, Control_c, 0, 64, 0
1, 787172, Poly_aftertouch_c, 0, 37, 127
1, 787178, Poly_aftertouch_c, 0, 58, 127
1, 787207, Poly_aftertouch_c, 0, 58, 0
1, 787234, Note_on_c, 0, 44, 96
1, 787237, Poly_aftertouch_c, 0, 37, 0
1, 787242, Note_on_c, 0, 32, 78
1, 787242, Note_on_c, 0, 39, 81
1, 787242, Note_on_c, 0, 51, 103
1, 787242, Note_on_c, 0, 60, 98
1, 787243, Note_on_c, 0, 48, 100
1, 787244, Note_on_c, 0, 56, 89
1, 787245, Control_c, 0, 64, 41
1, 787250, Note_on_c, 0, 36, 77
1, 787260, Control_c, 0, 64, 95
1, 787282, Poly_aftertouch_c, 0, 37, 127
1, 787283, Control_c, 0, 64, 127
1, 787298, Note_on_c, 0, 34, 36
1, 787300, Note_off_c, 0, 44, 64
1, 787304, Note_off_c, 0, 48, 63
1, 787321, Note_on_c, 0, 57, 3
1, 787322, Note_off_c, 0, 36, 62
1, 787322, Note_off_c, 0, 39, 65
1, 787325, Note_off_c, 0, 32, 62
1, 787328, Note_off_c, 0, 60, 61
1, 787332, Note_off_c, 0, 51, 65
1, 787335, Note_off_c, 0, 56, 62
1, 787340, Note_off_c, 0, 34, 52
1, 787341, Poly_aftertouch_c, 0, 37, 0
1, 787344, Note_off_c, 0, 57, 0
1, 787367, Poly_aftertouch_c, 0, 57, 0
1, 787372, Control_c, 0, 64, 107
1, 787386, Control_c, 0, 64, 70
1, 787401, Control_c, 0, 64, 55
1, 787416, Control_c, 0, 64, 22
1, 787430, Control_c, 0, 64, 0
1, 787584, Note_on_c, 0, 38, 98
1, 787585, Note_on_c, 0, 30, 74
1, 787586, Note_on_c, 0, 33, 80
1, 787591, Note_on_c, 0, 50, 101
1, 787592, Note_on_c, 0, 62, 96
1, 787593, Note_on_c, 0, 54, 98
1, 787596, Note_on_c, 0, 26, 74
1, 787605, Note_on_c, 0, 57, 59
1, 787609, Control_c, 0, 64, 66
1, 787625, Control_c, 0, 64, 119
1, 787627, Note_off_c, 0, 26, 64
1, 787638, Note_on_c, 0, 58, 33
1, 787639, Note_off_c, 0, 58, 127
1, 787640, Control_c, 0, 64, 127
1, 787656, Note_off_c, 0, 38, 64
1, 787658, Note_off_c, 0, 62, 64
1, 787665, Note_off_c, 0, 57, 62
1, 787667, Note_off_c, 0, 33, 62
1, 787667, Note_off_c, 0, 50, 63
1, 787682, Note_off_c, 0, 30, 61
1, 787716, Note_off_c, 0, 54, 63
1, 787936, Control_c, 0, 64, 98
1, 787951, Control_c, 0, 64, 60
1, 787966, Control_c, 0, 64, 0
1, 787975, Note_on_c, 0, 35, 61
1, 787975, Note_on_c, 0, 43, 98
1, 787978, Note_on_c, 0, 31, 71
1, 787985, Note_on_c, 0, 38, 72
1, 788055, Note_off_c, 0, 31, 63
1, 788061, Control_c, 0, 64, 47
1, 788076, Control_c, 0, 64, 56
1, 788091, Control_c, 0, 64, 57
1, 788106, Control_c, 0, 64, 58
1, 788108, Note_off_c, 0, 43, 63
1, 788114, Note_on_c, 0, 59, 74
1, 788118, Note_on_c, 0, 47, 73
1, 788120, Note_on_c, 0, 55, 74
1, 788121, Control_c, 0, 64, 61
1, 788130, Note_off_c, 0, 35, 55
1, 788136, Control_c, 0, 64, 64
1, 788151, Control_c, 0, 64, 66
1, 788158, Note_off_c, 0, 38, 62
1, 788166, Control_c, 0, 64, 67
1, 788179, Note_off_c, 0, 47, 61
1, 788192, Note_off_c, 0, 55, 62
1, 788195, Note_off_c, 0, 59, 62
1, 788195, Control_c, 0, 64, 67
1, 788205, Note_on_c, 0, 34, 75
1, 788208, Note_on_c, 0, 46, 92
1, 788210, Control_c, 0, 64, 68
1, 788225, Control_c, 0, 64, 69
1, 788240, Control_c, 0, 64, 69
1, 788269, Control_c, 0, 64, 70
1, 788284, Control_c, 0, 64, 71
1, 788298, Note_off_c, 0, 46, 61
1, 788299, Note_off_c, 0, 34, 62
1, 788299, Control_c, 0, 64, 72
1, 788300, Note_on_c, 0, 55, 77
1, 788305, Note_on_c, 0, 47, 75
1, 788305, Note_on_c, 0, 59, 78
1, 788345, Note_off_c, 0, 47, 61
1, 788352, Note_off_c, 0, 55, 62
1, 788371, Note_off_c, 0, 59, 63
1, 788387, Note_on_c, 0, 35, 75
1, 788391, Note_on_c, 0, 47, 85
1, 788402, Control_c, 0, 64, 73
1, 788417, Control_c, 0, 64, 73
1, 788419, Note_off_c, 0, 35, 65
1, 788433, Control_c, 0, 64, 74
1, 788435, Note_off_c, 0, 47, 61
1, 788448, Control_c, 0, 64, 75
1, 788461, Note_on_c, 0, 55, 73
1, 788466, Note_on_c, 0, 50, 77
1, 788467, Note_on_c, 0, 59, 70
1, 788471, Note_on_c, 0, 62, 70
1, 788477, Control_c, 0, 64, 76
1, 788492, Control_c, 0, 64, 77
1, 788503, Note_off_c, 0, 50, 63
1, 788506, Note_off_c, 0, 59, 56
1, 788507, Control_c, 0, 64, 78
1, 788508, Note_off_c, 0, 62, 59
1, 788518, Note_off_c, 0, 55, 61
1, 788541, Note_on_c, 0, 49, 84
1, 788548, Note_on_c, 0, 37, 70
1, 788551, Control_c, 0, 64, 78
1, 788566, Control_c, 0, 64, 78
1, 788581, Control_c, 0, 64, 77
1, 788594, Note_off_c, 0, 49, 64
1, 788596, Control_c, 0, 64, 76
1, 788601, Note_on_c, 0, 55, 78
1, 788604, Note_on_c, 0, 50, 74
1, 788606, Note_on_c, 0, 62, 74
1, 788608, Note_off_c, 0, 37, 61
1, 788611, Control_c, 0, 64, 76
1, 788619, Note_on_c, 0, 59, 61
1, 788634, Note_off_c, 0, 50, 66
1, 788637, Note_off_c, 0, 59, 65
1, 788640, Note_off_c, 0, 55, 63
1, 788640, Control_c, 0, 64, 75
1, 788659, Note_off_c, 0, 62, 63
1, 788688, Note_on_c, 0, 38, 79
1, 788689, Note_on_c, 0, 50, 87
1, 788714, Control_c, 0, 64, 76
1, 788719, Note_off_c, 0, 38, 64
1, 788729, Control_c, 0, 64, 77
1, 788732, Note_off_c, 0, 50, 62
1, 788744, Control_c, 0, 64, 78
1, 788746, Note_on_c, 0, 55, 84
1, 788747, Note_on_c, 0, 59, 55
1, 788752, Note_on_c, 0, 67, 71
1, 788759, Control_c, 0, 64, 79
1, 788759, Note_on_c, 0, 62, 72
1, 788781, Control_c, 0, 64, 80
1, 788784, Note_off_c, 0, 55, 62
1, 788789, Note_off_c, 0, 59, 65
1, 788792, Note_on_c, 0, 65, 45
1, 788796, Note_off_c, 0, 62, 65
1, 788796, Control_c, 0, 64, 80
1, 788805, Note_off_c, 0, 67, 59
1, 788811, Control_c, 0, 64, 81
1, 788818, Note_off_c, 0, 65, 36
1, 788825, Control_c, 0, 64, 82
1, 788840, Control_c, 0, 64, 83
1, 788841, Note_on_c, 0, 54, 89
1, 788842, Note_on_c, 0, 42, 83
1, 788869, Control_c, 0, 64, 82
1, 788883, Note_on_c, 0, 55, 74
1, 788885, Note_on_c, 0, 62, 54
1, 788886, Note_on_c, 0, 59, 63
1, 788891, Note_on_c, 0, 67, 74
1, 788895, Note_off_c, 0, 54, 63
1, 788898, Note_off_c, 0, 42, 62
1, 788907, Note_off_c, 0, 55, 71
1, 788914, Note_off_c, 0, 62, 66
1, 788916, Note_off_c, 0, 59, 65
1, 788919, Note_on_c, 0, 64, 42
1, 788925, Note_off_c, 0, 67, 66
1, 788929, Control_c, 0, 64, 82
1, 788944, Control_c, 0, 64, 81
1, 788946, Note_off_c, 0, 64, 55
1, 788959, Control_c, 0, 64, 81
1, 788962, Note_on_c, 0, 43, 86
1, 788965, Note_on_c, 0, 55, 94
1, 788988, Control_c, 0, 64, 83
1, 788992, Note_off_c, 0, 43, 66
1, 789003, Control_c, 0, 64, 91
1, 789004, Note_off_c, 0, 55, 65
1, 789013, Note_on_c, 0, 59, 80
1, 789018, Control_c, 0, 64, 127
1, 789019, Note_on_c, 0, 62, 66
1, 789024, Note_on_c, 0, 67, 73
1, 789030, Note_on_c, 0, 71, 70
1, 789042, Note_off_c, 0, 62, 69
1, 789045, Note_off_c, 0, 59, 62
1, 789048, Note_off_c, 0, 67, 67
1, 789058, Note_off_c, 0, 71, 67
1, 789101, Note_on_c, 0, 58, 92
1, 789102, Note_on_c, 0, 46, 84
1, 789130, Note_on_c, 0, 56, 43
1, 789131, Note_on_c, 0, 62, 80
1, 789136, Note_on_c, 0, 59, 78
1, 789136, Note_on_c, 0, 71, 73
1, 789137, Control_c, 0, 64, 74
1, 789141, Note_on_c, 0, 67, 67
1, 789147, Note_off_c, 0, 58, 66
1, 789151, Control_c, 0, 64, 61
1, 789157, Note_off_c, 0, 59, 70
1, 789160, Note_off_c, 0, 56, 56
1, 789161, Note_off_c, 0, 62, 65
1, 789164, Note_off_c, 0, 46, 60
1, 789166, Control_c, 0, 64, 63
1, 789170, Note_off_c, 0, 67, 66
1, 789181, Control_c, 0, 64, 69
1, 789189, Note_off_c, 0, 71, 65
1, 789195, Control_c, 0, 64, 85
1, 789210, Control_c, 0, 64, 127
1, 789220, Note_on_c, 0, 47, 89
1, 789224, Note_on_c, 0, 59, 96
1, 789263, Note_off_c, 0, 47, 63
1, 789267, Note_off_c, 0, 59, 66
1, 789284, Note_on_c, 0, 71, 85
1, 789285, Note_on_c, 0, 62, 86
1, 789285, Note_on_c, 0, 67, 74
1, 789289, Note_on_c, 0, 74, 79
1, 789320, Note_off_c, 0, 67, 62
1, 789321, Note_off_c, 0, 62, 59
1, 789323, Note_off_c, 0, 74, 62
1, 789327, Note_off_c, 0, 71, 62
1, 789345, Note_on_c, 0, 61, 99
1, 789353, Note_on_c, 0, 49, 81
1, 789391, Poly_aftertouch_c, 0, 72, 0
1, 789401, Note_off_c, 0, 61, 61
1, 789405, Note_off_c, 0, 49, 65
1, 789420, Note_on_c, 0, 67, 76
1, 789420, Note_on_c, 0, 71, 82
1, 789420, Note_on_c, 0, 74, 82
1, 789424, Note_on_c, 0, 62, 75
1, 789440, Note_off_c, 0, 67, 70
1, 789444, Note_off_c, 0, 71, 66
1, 789447, Note_off_c, 0, 62, 70
1, 789467, Note_off_c, 0, 74, 65
1, 789474, Note_on_c, 0, 50, 92
1, 789476, Note_on_c, 0, 62, 91
1, 789524, Note_off_c, 0, 50, 63
1, 789526, Note_off_c, 0, 62, 66
1, 789561, Note_on_c, 0, 67, 89
1, 789567, Note_on_c, 0, 79, 74
1, 789569, Note_on_c, 0, 71, 73
1, 789569, Note_on_c, 0, 74, 70
1, 789591, Note_off_c, 0, 67, 58
1, 789591, Note_off_c, 0, 71, 71
1, 789595, Note_off_c, 0, 74, 66
1, 789598, Poly_aftertouch_c, 0, 52, 0
1, 789610, Note_off_c, 0, 79, 63
1, 789614, Note_on_c, 0, 66, 96
1, 789617, Note_on_c, 0, 54, 87
1, 789664, Note_off_c, 0, 66, 63
1, 789668, Note_on_c, 0, 74, 50
1, 789672, Note_on_c, 0, 71, 77
1, 789672, Note_on_c, 0, 79, 53
1, 789678, Note_off_c, 0, 54, 63
1, 789679, Note_on_c, 0, 67, 65
1, 789696, Note_off_c, 0, 71, 69
1, 789698, Note_off_c, 0, 67, 65
1, 789700, Note_off_c, 0, 74, 53
1, 789701, Poly_aftertouch_c, 0, 53, 127
1, 789703, Note_on_c, 0, 76, 52
1, 789722, Control_c, 0, 64, 110
1, 789725, Note_off_c, 0, 79, 65
1, 789725, Note_off_c, 0, 76, 60
1, 789737, Poly_aftertouch_c, 0, 53, 0
1, 789737, Note_on_c, 0, 55, 96
1, 789737, Note_on_c, 0, 67, 92
1, 789737, Control_c, 0, 64, 62
1, 789752, Control_c, 0, 64, 0
1, 789753, Note_on_c, 0, 65, 74
1, 789771, Note_off_c, 0, 65, 64
1, 789777, Note_off_c, 0, 67, 64
1, 789788, Note_off_c, 0, 55, 64
1, 789796, Control_c, 0, 64, 61
1, 789811, Control_c, 0, 64, 74
1, 789819, Note_on_c, 0, 71, 85
1, 789821, Note_on_c, 0, 74, 69
1, 789825, Note_on_c, 0, 83, 68
1, 789826, Control_c, 0, 64, 127
1, 789828, Note_on_c, 0, 79, 74
1, 789850, Note_off_c, 0, 74, 62
1, 789856, Note_off_c, 0, 83, 63
1, 789865, Note_off_c, 0, 71, 61
1, 789872, Note_off_c, 0, 79, 59
1, 789874, Note_on_c, 0, 61, 93
1, 789879, Note_on_c, 0, 49, 83
1, 789943, Note_off_c, 0, 61, 61
1, 789944, Note_off_c, 0, 49, 63
1, 789948, Note_on_c, 0, 74, 76
1, 789956, Note_on_c, 0, 71, 72
1, 789957, Note_on_c, 0, 83, 76
1, 789971, Note_on_c, 0, 79, 56
1, 789977, Note_off_c, 0, 74, 62
1, 789984, Note_off_c, 0, 71, 68
1, 789989, Note_off_c, 0, 79, 65
1, 790007, Note_off_c, 0, 83, 66
1, 790011, Note_on_c, 0, 62, 86
1, 790012, Note_on_c, 0, 50, 82
1, 790045, Note_on_c, 0, 51, 46
1, 790047, Note_off_c, 0, 62, 63
1, 790061, Note_off_c, 0, 50, 65
1, 790073, Note_off_c, 0, 51, 56
1, 790077, Note_on_c, 0, 74, 91
1, 790079, Note_on_c, 0, 79, 70
1, 790084, Note_on_c, 0, 86, 77
1, 790091, Note_on_c, 0, 83, 78
1, 790115, Note_off_c, 0, 79, 65
1, 790117, Note_off_c, 0, 83, 66
1, 790121, Note_off_c, 0, 74, 62
1, 790133, Note_off_c, 0, 86, 63
1, 790148, Note_on_c, 0, 46, 86
1, 790148, Note_on_c, 0, 58, 86
1, 790154, Note_on_c, 0, 56, 78
1, 790181, Note_off_c, 0, 56, 68
1, 790183, Note_on_c, 0, 45, 43
1, 790205, Note_on_c, 0, 83, 78
1, 790208, Note_off_c, 0, 58, 64
1, 790209, Note_on_c, 0, 74, 79
1, 790211, Note_on_c, 0, 79, 79
1, 790215, Note_on_c, 0, 86, 80
1, 790216, Note_off_c, 0, 45, 54
1, 790217, Note_off_c, 0, 46, 62
1, 790234, Note_off_c, 0, 74, 68
1, 790235, Note_off_c, 0, 79, 70
1, 790249, Note_off_c, 0, 83, 65
1, 790270, Note_off_c, 0, 86, 66
1, 790272, Note_on_c, 0, 59, 97
1, 790279, Note_on_c, 0, 47, 81
1, 790300, Note_on_c, 0, 48, 60
1, 790306, Note_on_c, 0, 49, 55
1, 790312, Note_off_c, 0, 59, 67
1, 790323, Note_off_c, 0, 48, 63
1, 790329, Note_off_c, 0, 47, 63
1, 790335, Note_off_c, 0, 49, 55
1, 790342, Note_on_c, 0, 79, 86
1, 790345, Note_on_c, 0, 91, 92
1, 790349, Note_on_c, 0, 86, 83
1, 790353, Note_on_c, 0, 83, 79
1, 790371, Note_off_c, 0, 86, 70
1, 790376, Note_off_c, 0, 83, 69
1, 790385, Note_off_c, 0, 79, 65
1, 790395, Note_off_c, 0, 91, 65
1, 790404, Note_on_c, 0, 54, 101
1, 790407, Note_on_c, 0, 42, 97
1, 790467, Note_on_c, 0, 79, 89
1, 790468, Note_off_c, 0, 54, 64
1, 790469, Note_on_c, 0, 86, 81
1, 790470, Note_on_c, 0, 83, 84
1, 790471, Note_on_c, 0, 91, 86
1, 790475, Note_off_c, 0, 42, 64
1, 790493, Note_off_c, 0, 83, 67
1, 790499, Note_off_c, 0, 86, 63
1, 790506, Note_off_c, 0, 79, 62
1, 790524, Note_off_c, 0, 91, 66
1, 790527, Note_on_c, 0, 55, 93
1, 790533, Note_on_c, 0, 43, 84
1, 790569, Note_off_c, 0, 55, 66
1, 790589, Note_off_c, 0, 43, 64
1, 790598, Note_on_c, 0, 83, 99
1, 790602, Note_on_c, 0, 95, 95
1, 790604, Note_on_c, 0, 91, 90
1, 790605, Note_on_c, 0, 86, 89
1, 790619, Note_on_c, 0, 89, 65
1, 790624, Note_off_c, 0, 86, 72
1, 790639, Note_off_c, 0, 83, 66
1, 790639, Note_off_c, 0, 89, 61
1, 790640, Note_off_c, 0, 91, 58
1, 790647, Note_off_c, 0, 95, 65
1, 790658, Note_on_c, 0, 49, 98
1, 790666, Note_on_c, 0, 37, 92
1, 790723, Note_on_c, 0, 83, 96
1, 790725, Note_on_c, 0, 95, 96
1, 790725, Note_off_c, 0, 49, 64
1, 790726, Note_on_c, 0, 86, 85
1, 790730, Note_off_c, 0, 37, 63
1, 790747, Note_on_c, 0, 91, 58
1, 790751, Note_off_c, 0, 86, 67
1, 790762, Note_off_c, 0, 83, 65
1, 790767, Note_off_c, 0, 91, 61
1, 790785, Note_off_c, 0, 95, 66
1, 790788, Note_on_c, 0, 50, 95
1, 790796, Note_on_c, 0, 38, 87
1, 790835, Note_off_c, 0, 50, 64
1, 790852, Note_off_c, 0, 38, 64
1, 790863, Note_on_c, 0, 88, 90
1, 790863, Note_on_c, 0, 91, 84
1, 790863, Note_on_c, 0, 100, 93
1, 790866, Note_on_c, 0, 98, 94
1, 790877, Note_on_c, 0, 95, 73
1, 790878, Note_on_c, 0, 96, 72
1, 790879, Poly_aftertouch_c, 0, 39, 127
1, 790896, Note_off_c, 0, 91, 62
1, 790902, Note_off_c, 0, 96, 66
1, 790902, Note_off_c, 0, 95, 65
1, 790904, Poly_aftertouch_c, 0, 39, 0
1, 790907, Note_off_c, 0, 88, 65
1, 790911, Note_off_c, 0, 98, 65
1, 790914, Note_off_c, 0, 100, 66
1, 790922, Note_on_c, 0, 46, 89
1, 790927, Note_on_c, 0, 34, 94
1, 790938, Note_on_c, 0, 44, 71
1, 790959, Note_off_c, 0, 44, 63
1, 790972, Note_on_c, 0, 33, 29
1, 790989, Note_on_c, 0, 98, 97
1, 790989, Note_on_c, 0, 86, 99
1, 790998, Note_off_c, 0, 46, 64
1, 791000, Note_on_c, 0, 91, 74
1, 791001, Note_off_c, 0, 34, 62
1, 791003, Note_on_c, 0, 89, 80
1, 791006, Note_on_c, 0, 95, 60
1, 791021, Note_on_c, 0, 93, 54
1, 791023, Note_off_c, 0, 33, 47
1, 791025, Note_off_c, 0, 89, 68
1, 791033, Note_off_c, 0, 95, 62
1, 791033, Note_off_c, 0, 86, 64
1, 791034, Note_off_c, 0, 91, 65
1, 791041, Note_off_c, 0, 93, 61
1, 791049, Note_off_c, 0, 98, 68
1, 791050, Note_on_c, 0, 47, 94
1, 791062, Note_on_c, 0, 35, 79
1, 791079, Note_on_c, 0, 36, 58
1, 791093, Note_on_c, 0, 37, 31
1, 791096, Note_off_c, 0, 47, 65
1, 791111, Note_off_c, 0, 36, 55
1, 791113, Note_off_c, 0, 35, 62
1, 791118, Note_on_c, 0, 91, 94
1, 791120, Note_on_c, 0, 95, 99
1, 791122, Note_on_c, 0, 98, 102
1, 791137, Note_off_c, 0, 37, 54
1, 791138, Note_on_c, 0, 103, 62
1, 791139, Note_off_c, 0, 103, 127
1, 791148, Note_off_c, 0, 91, 69
1, 791158, Note_off_c, 0, 98, 67
1, 791164, Note_off_c, 0, 95, 65
1, 791192, Note_on_c, 0, 42, 104
1, 791199, Note_on_c, 0, 30, 95
1, 791242, Note_on_c, 0, 91, 100
1, 791244, Note_on_c, 0, 103, 93
1, 791245, Note_on_c, 0, 98, 98
1, 791247, Note_on_c, 0, 95, 92
1, 791268, Note_off_c, 0, 30, 63
1, 791278, Note_off_c, 0, 95, 64
1, 791278, Note_off_c, 0, 98, 60
1, 791298, Note_off_c, 0, 42, 61
1, 791303, Note_off_c, 0, 103, 62
1, 791307, Note_off_c, 0, 91, 63
1, 791394, Note_on_c, 0, 43, 112
1, 791395, Note_on_c, 0, 31, 97
1, 791398, Control_c, 0, 64, 72
1, 791413, Control_c, 0, 64, 0
1, 791725, Control_c, 0, 64, 72
1, 791740, Control_c, 0, 64, 127
1, 791757, Note_off_c, 0, 31, 63
1, 791801, Note_off_c, 0, 43, 64
1, 791998, Note_on_c, 0, 54, 32
1, 792038, Note_off_c, 0, 54, 51
1, 792084, Note_on_c, 0, 67, 100
1, 792084, Note_on_c, 0, 79, 96
1, 792085, Note_on_c, 0, 72, 100
1, 792086, Note_on_c, 0, 55, 91
1, 792086, Note_on_c, 0, 75, 95
1, 792090, Note_on_c, 0, 60, 102
1, 792094, Note_on_c, 0, 48, 84
1, 792099, Note_on_c, 0, 51, 87
1, 792139, Note_on_c, 0, 77, 29
1, 792157, Note_off_c, 0, 67, 67
1, 792166, Note_off_c, 0, 79, 63
1, 792169, Note_off_c, 0, 77, 44
1, 792178, Note_off_c, 0, 72, 65
1, 792196, Note_off_c, 0, 75, 65
1, 792247, Note_off_c, 0, 60, 56
1, 792273, Note_off_c, 0, 55, 62
1, 792339, Note_off_c, 0, 48, 63
1, 792339, Note_off_c, 0, 51, 64
1, 792717, Control_c, 0, 64, 85
1, 792732, Control_c, 0, 64, 46
1, 792747, Control_c, 0, 64, 0
1, 792750, Note_on_c, 0, 95, 106
1, 792751, Note_on_c, 0, 38, 93
1, 792752, Note_on_c, 0, 43, 96
1, 792753, Note_on_c, 0, 35, 75
1, 792753, Note_on_c, 0, 83, 104
1, 792755, Note_on_c, 0, 86, 95
1, 792759, Note_on_c, 0, 31, 60
1, 792759, Note_on_c, 0, 91, 88
1, 792763, Note_on_c, 0, 45, 67
1, 792764, Note_off_c, 0, 45, 127
1, 792777, Control_c, 0, 64, 23
1, 792783, Note_on_c, 0, 93, 36
1, 792784, Note_off_c, 0, 93, 127
1, 792784, Note_off_c, 0, 31, 61
1, 792787, Note_off_c, 0, 35, 65
1, 792788, Note_off_c, 0, 95, 69
1, 792790, Note_off_c, 0, 91, 65
1, 792792, Control_c, 0, 64, 68
1, 792798, Note_off_c, 0, 86, 68
1, 792799, Note_off_c, 0, 38, 65
1, 792801, Note_off_c, 0, 83, 68
1, 792804, Note_off_c, 0, 43, 64
1, 792807, Control_c, 0, 64, 127
1, 793068, Note_on_c, 0, 62, 90
1, 793069, Note_on_c, 0, 59, 92
1, 793069, Note_on_c, 0, 79, 99
1, 793072, Note_on_c, 0, 67, 100
1, 793072, Note_on_c, 0, 71, 84
1, 793074, Note_on_c, 0, 55, 73
1, 793078, Note_on_c, 0, 50, 81
1, 793084, Note_on_c, 0, 74, 77
1, 793093, Note_on_c, 0, 76, 65
1, 793105, Note_off_c, 0, 62, 64
1, 793105, Note_off_c, 0, 67, 68
1, 793105, Note_off_c, 0, 79, 70
1, 793107, Note_off_c, 0, 74, 70
1, 793109, Note_off_c, 0, 59, 66
1, 793109, Note_off_c, 0, 76, 66
1, 793117, Note_off_c, 0, 71, 66
1, 793130, Note_off_c, 0, 55, 65
1, 793144, Note_off_c, 0, 50, 65
1, 793380, Note_on_c, 0, 55, 117
1, 793382, Note_on_c, 0, 43, 94
1, 793385, Note_on_c, 0, 31, 78
1, 793407, Note_off_c, 0, 55, 71
1, 793411, Note_off_c, 0, 31, 65
1, 793421, Note_on_c, 0, 57, 36
1, 793422, Note_off_c, 0, 57, 127
1, 793429, Note_off_c, 0, 43, 65
1, 793679, Note_on_c, 0, 55, 74
1, 793680, Note_on_c, 0, 62, 91
1, 793680, Note_on_c, 0, 71, 96
1, 793682, Note_on_c, 0, 67, 100
1, 793682, Note_on_c, 0, 79, 102
1, 793683, Note_on_c, 0, 59, 91
1, 793684, Note_on_c, 0, 50, 79
1, 793684, Note_on_c, 0, 74, 86
1, 793702, Poly_aftertouch_c, 0, 70, 0
1, 793707, Note_off_c, 0, 50, 69
1, 793717, Note_off_c, 0, 62, 68
1, 793717, Note_off_c, 0, 67, 67
1, 793720, Note_off_c, 0, 71, 68
1, 793722, Note_off_c, 0, 55, 64
1, 793724, Note_off_c, 0, 74, 66
1, 793728, Note_on_c, 0, 76, 34
1, 793728, Note_off_c, 0, 59, 67
1, 793737, Note_off_c, 0, 79, 72
1, 793740, Note_on_c, 0, 77, 22
1, 793761, Note_off_c, 0, 76, 42
1, 793777, Note_off_c, 0, 77, 32
1, 794097, Note_on_c, 0, 95, 106
1, 794099, Note_on_c, 0, 83, 110
1, 794101, Note_on_c, 0, 91, 100
1, 794101, Note_on_c, 0, 71, 96
1, 794101, Note_on_c, 0, 86, 98
1, 794104, Note_on_c, 0, 74, 107
1, 794107, Note_on_c, 0, 67, 81
1, 794109, Note_on_c, 0, 62, 90
1, 794212, Poly_aftertouch_c, 0, 65, 0
1, 794234, Poly_aftertouch_c, 0, 65, 0
1, 794407, Note_off_c, 0, 95, 60
1, 794438, Note_off_c, 0, 83, 54
1, 794438, Note_off_c, 0, 91, 60
1, 794454, Note_off_c, 0, 74, 54
1, 794476, Note_off_c, 0, 86, 59
1, 794506, Note_off_c, 0, 71, 56
1, 794582, Note_off_c, 0, 67, 61
1, 794613, Note_off_c, 0, 62, 61
1, 795105, Note_on_c, 0, 55, 96
1, 795111, Note_on_c, 0, 67, 94
1, 795114, Note_on_c, 0, 43, 90
1, 795115, Note_on_c, 0, 31, 84
1, 795127, Note_off_c, 0, 67, 73
1, 795135, Note_off_c, 0, 55, 65
1, 795143, Note_off_c, 0, 43, 68
1, 795147, Note_off_c, 0, 31, 64
1, 795170, Note_on_c, 0, 55, 96
1, 795173, Note_on_c, 0, 67, 109
1, 795178, Note_on_c, 0, 43, 100
1, 795181, Note_on_c, 0, 31, 92
1, 795212, Note_on_c, 0, 65, 34
1, 795213, Note_off_c, 0, 65, 127
1, 795218, Note_off_c, 0, 67, 66
1, 795224, Note_off_c, 0, 55, 64
1, 795228, Note_off_c, 0, 43, 65
1, 795229, Note_off_c, 0, 31, 66
1, 795231, Control_c, 0, 64, 96
1, 795245, Control_c, 0, 64, 53
1, 795260, Control_c, 0, 64, 0
1, 795335, End_track
0, 0, End_of_file
