0, 0, Header, 0, 1, 384
1, 0, Start_track
1, 0, Title_t, "SchumannRomancesOp28--Colafelice"
1, 0, Text_t, "2011 ePiano Junior Competition"
1, 0, Text_t, "captured in spring and summer 2011"
1, 0, Text_t, "http://www.piano-e-competition.com/"
1, 0, Text_t, "standard-resolution version"
1, 0, Text_t, "File processed for distribution with software designed and coded by Dr. John Q. Walker, founder of Zenph Sound Innovations"
1, 0, Instrument_name_t, "Yamaha Disklavier Pro Mark IV concert grand piano, model DCFIIISM4PRO"
1, 0, Sequencer_specific, 39, 67, 113, 0, 1, 0, 1, 0, 83, 99, 104, 117, 109, 97, 110, 110, 82, 111, 109, 97, 110, 99, 101, 115, 76, 32, 67, 111, 108, 97, 102, 101, 108, 105, 99, 101, 32, 32, 32, 32
1, 0, Sequencer_specific, 6, 67, 113, 0, 0, 0, 69
1, 0, System_exclusive, 21, 67, 113, 126, 21, 0, 2, 2, 2, 5, 12, 8, 4, 14, 1, 4, 14, 12, 2, 9, 0, 247
1, 0, Sequencer_specific, 5, 67, 123, 12, 2, 1
1, 0, Tempo, 512820
1, 0, Time_signature, 4, 2, 24, 8
1, 0, System_exclusive, 5, 126, 127, 9, 1, 247
1, 1, System_exclusive, 8, 67, 16, 76, 0, 0, 126, 0, 247
1, 2, System_exclusive, 8, 67, 16, 76, 8, 9, 7, 1, 247
1, 3, Control_c, 0, 0, 108
1, 3, Control_c, 1, 0, 108
1, 3, Control_c, 2, 0, 0
1, 3, Control_c, 3, 0, 0
1, 3, Control_c, 4, 0, 0
1, 3, Control_c, 5, 0, 0
1, 3, Control_c, 6, 0, 0
1, 3, Control_c, 7, 0, 0
1, 3, Control_c, 8, 0, 0
1, 3, Control_c, 9, 0, 127
1, 3, Control_c, 10, 0, 0
1, 3, Control_c, 11, 0, 0
1, 3, Control_c, 12, 0, 0
1, 3, Control_c, 13, 0, 0
1, 3, Control_c, 14, 0, 0
1, 3, Control_c, 15, 0, 0
1, 4, Control_c, 0, 32, 0
1, 4, Control_c, 1, 32, 0
1, 4, Control_c, 2, 32, 0
1, 4, Control_c, 3, 32, 0
1, 4, Control_c, 4, 32, 0
1, 4, Control_c, 5, 32, 0
1, 4, Control_c, 6, 32, 0
1, 4, Control_c, 7, 32, 0
1, 4, Control_c, 8, 32, 0
1, 4, Control_c, 9, 32, 0
1, 4, Control_c, 10, 32, 0
1, 4, Control_c, 11, 32, 0
1, 4, Control_c, 12, 32, 0
1, 4, Control_c, 13, 32, 0
1, 4, Control_c, 14, 32, 0
1, 4, Control_c, 15, 32, 0
1, 5, Program_c, 0, 0
1, 5, Program_c, 1, 0
1, 5, Program_c, 2, 0
1, 5, Program_c, 3, 0
1, 5, Program_c, 4, 0
1, 5, Program_c, 5, 0
1, 5, Program_c, 6, 0
1, 5, Program_c, 7, 0
1, 5, Program_c, 8, 0
1, 5, Program_c, 9, 0
1, 5, Program_c, 10, 0
1, 5, Program_c, 11, 0
1, 5, Program_c, 12, 0
1, 5, Program_c, 13, 0
1, 5, Program_c, 14, 0
1, 5, Program_c, 15, 0
1, 6, Control_c, 0, 7, 100
1, 6, Control_c, 1, 7, 100
1, 6, Control_c, 2, 7, 100
1, 6, Control_c, 3, 7, 100
1, 6, Control_c, 4, 7, 100
1, 6, Control_c, 5, 7, 100
1, 6, Control_c, 6, 7, 100
1, 6, Control_c, 7, 7, 100
1, 6, Control_c, 8, 7, 100
1, 6, Control_c, 9, 7, 100
1, 6, Control_c, 10, 7, 100
1, 6, Control_c, 11, 7, 100
1, 6, Control_c, 12, 7, 100
1, 6, Control_c, 13, 7, 100
1, 6, Control_c, 14, 7, 100
1, 6, Control_c, 15, 7, 100
1, 42, Control_c, 0, 67, 15
1, 79, Control_c, 0, 67, 31
1, 116, Control_c, 0, 67, 46
1, 153, Control_c, 0, 67, 63
1, 190, Control_c, 0, 67, 77
1, 226, Control_c, 0, 67, 94
1, 263, Control_c, 0, 67, 108
1, 300, Control_c, 0, 67, 127
1, 410, Poly_aftertouch_c, 0, 66, 127
1, 1446, Poly_aftertouch_c, 0, 64, 127
1, 2118, Control_c, 0, 64, 110
1, 2276, Poly_aftertouch_c, 0, 65, 127
1, 3429, Poly_aftertouch_c, 0, 68, 127
1, 4901, Note_on_c, 0, 58, 42
1, 4950, Note_on_c, 0, 54, 30
1, 4963, Control_c, 0, 64, 109
1, 5007, Control_c, 0, 64, 109
1, 5025, Poly_aftertouch_c, 0, 65, 0
1, 5037, Control_c, 0, 64, 108
1, 5051, Control_c, 0, 64, 108
1, 5156, Poly_aftertouch_c, 0, 68, 0
1, 5171, Control_c, 0, 64, 109
1, 5186, Control_c, 0, 64, 111
1, 5200, Control_c, 0, 64, 112
1, 5215, Control_c, 0, 64, 115
1, 5230, Control_c, 0, 64, 116
1, 5245, Control_c, 0, 64, 119
1, 5260, Control_c, 0, 64, 127
1, 5293, Poly_aftertouch_c, 0, 66, 0
1, 5685, Note_on_c, 0, 49, 22
1, 5709, Note_on_c, 0, 61, 38
1, 6144, Note_on_c, 0, 42, 35
1, 6237, Note_on_c, 0, 70, 42
1, 6351, Note_off_c, 0, 49, 45
1, 6354, Note_off_c, 0, 61, 60
1, 6507, Note_on_c, 0, 49, 26
1, 6525, Note_on_c, 0, 61, 41
1, 6594, Note_off_c, 0, 58, 49
1, 6652, Note_off_c, 0, 54, 43
1, 6756, Note_on_c, 0, 56, 62
1, 6766, Note_on_c, 0, 53, 33
1, 6803, Control_c, 0, 64, 105
1, 6818, Control_c, 0, 64, 81
1, 6830, Note_off_c, 0, 61, 61
1, 6833, Control_c, 0, 64, 65
1, 6847, Control_c, 0, 64, 45
1, 6862, Control_c, 0, 64, 9
1, 6877, Control_c, 0, 64, 19
1, 6892, Control_c, 0, 64, 43
1, 6900, Note_off_c, 0, 49, 48
1, 6905, Note_off_c, 0, 70, 40
1, 6907, Control_c, 0, 64, 58
1, 6921, Control_c, 0, 64, 64
1, 6936, Control_c, 0, 64, 69
1, 6951, Control_c, 0, 64, 73
1, 6966, Control_c, 0, 64, 79
1, 6981, Control_c, 0, 64, 87
1, 7002, Control_c, 0, 64, 98
1, 7017, Control_c, 0, 64, 120
1, 7032, Control_c, 0, 64, 127
1, 7071, Note_on_c, 0, 61, 37
1, 7074, Note_on_c, 0, 49, 22
1, 7198, Note_off_c, 0, 56, 58
1, 7204, Note_off_c, 0, 53, 38
1, 7413, Poly_aftertouch_c, 0, 66, 127
1, 7520, Note_on_c, 0, 59, 60
1, 7530, Note_on_c, 0, 56, 30
1, 7566, Control_c, 0, 64, 108
1, 7581, Control_c, 0, 64, 93
1, 7595, Note_off_c, 0, 61, 54
1, 7595, Control_c, 0, 64, 81
1, 7610, Control_c, 0, 64, 70
1, 7625, Control_c, 0, 64, 60
1, 7640, Control_c, 0, 64, 40
1, 7655, Control_c, 0, 64, 33
1, 7669, Control_c, 0, 64, 39
1, 7684, Control_c, 0, 64, 52
1, 7699, Control_c, 0, 64, 61
1, 7714, Control_c, 0, 64, 65
1, 7729, Control_c, 0, 64, 71
1, 7751, Control_c, 0, 64, 78
1, 7766, Control_c, 0, 64, 89
1, 7781, Control_c, 0, 64, 106
1, 7785, Poly_aftertouch_c, 0, 66, 0
1, 7795, Control_c, 0, 64, 127
1, 7811, Note_off_c, 0, 49, 41
1, 8105, Note_on_c, 0, 49, 28
1, 8115, Note_on_c, 0, 61, 34
1, 8199, Note_off_c, 0, 42, 40
1, 8389, Note_on_c, 0, 42, 25
1, 8479, Note_on_c, 0, 71, 49
1, 8533, Note_off_c, 0, 49, 41
1, 8571, Note_off_c, 0, 61, 35
1, 8684, Note_off_c, 0, 71, 57
1, 8697, Note_on_c, 0, 61, 53
1, 8713, Note_off_c, 0, 59, 60
1, 8725, Note_off_c, 0, 56, 41
1, 8736, Note_on_c, 0, 49, 17
1, 8925, Note_on_c, 0, 58, 64
1, 8938, Note_on_c, 0, 54, 39
1, 8959, Control_c, 0, 64, 119
1, 8974, Control_c, 0, 64, 93
1, 8977, Note_off_c, 0, 61, 59
1, 8989, Control_c, 0, 64, 75
1, 9004, Control_c, 0, 64, 62
1, 9018, Control_c, 0, 64, 42
1, 9033, Control_c, 0, 64, 25
1, 9048, Control_c, 0, 64, 32
1, 9057, Note_off_c, 0, 49, 50
1, 9063, Control_c, 0, 64, 48
1, 9078, Control_c, 0, 64, 59
1, 9093, Control_c, 0, 64, 65
1, 9108, Control_c, 0, 64, 70
1, 9123, Control_c, 0, 64, 79
1, 9138, Control_c, 0, 64, 92
1, 9153, Control_c, 0, 64, 127
1, 9195, Note_off_c, 0, 58, 61
1, 9202, Note_on_c, 0, 61, 40
1, 9223, Note_on_c, 0, 49, 14
1, 9234, Note_off_c, 0, 54, 43
1, 9594, Note_on_c, 0, 51, 22
1, 9604, Note_on_c, 0, 54, 53
1, 9634, Control_c, 0, 64, 108
1, 9648, Control_c, 0, 64, 99
1, 9663, Control_c, 0, 64, 92
1, 9678, Control_c, 0, 64, 83
1, 9693, Note_off_c, 0, 61, 36
1, 9693, Control_c, 0, 64, 75
1, 9708, Control_c, 0, 64, 67
1, 9722, Control_c, 0, 64, 57
1, 9737, Control_c, 0, 64, 29
1, 9752, Control_c, 0, 64, 0
1, 9780, Note_off_c, 0, 49, 37
1, 9812, Control_c, 0, 64, 45
1, 9827, Control_c, 0, 64, 59
1, 9841, Control_c, 0, 64, 65
1, 9856, Control_c, 0, 64, 73
1, 9871, Control_c, 0, 64, 84
1, 9886, Control_c, 0, 64, 106
1, 9901, Control_c, 0, 64, 127
1, 10001, Poly_aftertouch_c, 0, 64, 0
1, 10028, Note_on_c, 0, 61, 38
1, 10050, Note_on_c, 0, 49, 23
1, 10088, Note_off_c, 0, 42, 41
1, 10212, Note_off_c, 0, 51, 33
1, 10267, Note_on_c, 0, 42, 28
1, 10271, Note_on_c, 0, 66, 48
1, 10280, Note_off_c, 0, 49, 37
1, 10328, Note_off_c, 0, 61, 33
1, 10482, Note_on_c, 0, 61, 45
1, 10484, Note_off_c, 0, 54, 43
1, 10517, Note_on_c, 0, 49, 25
1, 10553, Note_off_c, 0, 66, 27
1, 10592, Note_off_c, 0, 49, 51
1, 10620, Note_on_c, 0, 54, 60
1, 10626, Note_off_c, 0, 61, 57
1, 10649, Note_on_c, 0, 51, 33
1, 10820, Control_c, 0, 64, 119
1, 10835, Control_c, 0, 64, 105
1, 10850, Control_c, 0, 64, 96
1, 10859, Note_on_c, 0, 56, 52
1, 10864, Note_off_c, 0, 54, 38
1, 10865, Control_c, 0, 64, 88
1, 10875, Note_on_c, 0, 53, 36
1, 10880, Control_c, 0, 64, 82
1, 10894, Control_c, 0, 64, 77
1, 10909, Control_c, 0, 64, 73
1, 10924, Control_c, 0, 64, 69
1, 10939, Control_c, 0, 64, 65
1, 10954, Note_off_c, 0, 51, 37
1, 10954, Control_c, 0, 64, 57
1, 10968, Control_c, 0, 64, 27
1, 10983, Control_c, 0, 64, 0
1, 11073, Control_c, 0, 64, 49
1, 11087, Control_c, 0, 64, 61
1, 11102, Control_c, 0, 64, 64
1, 11117, Control_c, 0, 64, 67
1, 11132, Control_c, 0, 64, 70
1, 11147, Control_c, 0, 64, 75
1, 11161, Control_c, 0, 64, 83
1, 11176, Control_c, 0, 64, 98
1, 11191, Control_c, 0, 64, 127
1, 11280, Note_on_c, 0, 49, 13
1, 11281, Note_on_c, 0, 61, 34
1, 11362, Note_off_c, 0, 53, 41
1, 11375, Note_off_c, 0, 56, 36
1, 11708, Note_on_c, 0, 58, 44
1, 11755, Note_on_c, 0, 54, 24
1, 11791, Control_c, 0, 64, 104
1, 11806, Control_c, 0, 64, 93
1, 11821, Control_c, 0, 64, 86
1, 11836, Control_c, 0, 64, 79
1, 11840, Note_off_c, 0, 61, 33
1, 11851, Control_c, 0, 64, 74
1, 11866, Control_c, 0, 64, 68
1, 11881, Control_c, 0, 64, 61
1, 11896, Control_c, 0, 64, 42
1, 11910, Control_c, 0, 64, 0
1, 11930, Note_off_c, 0, 49, 34
1, 11970, Control_c, 0, 64, 41
1, 11984, Control_c, 0, 64, 57
1, 11999, Control_c, 0, 64, 63
1, 12014, Control_c, 0, 64, 65
1, 12029, Control_c, 0, 64, 68
1, 12043, Control_c, 0, 64, 71
1, 12058, Control_c, 0, 64, 75
1, 12073, Control_c, 0, 64, 80
1, 12088, Control_c, 0, 64, 85
1, 12103, Control_c, 0, 64, 92
1, 12117, Control_c, 0, 64, 98
1, 12132, Control_c, 0, 64, 105
1, 12147, Control_c, 0, 64, 115
1, 12162, Control_c, 0, 64, 127
1, 12185, Note_on_c, 0, 61, 30
1, 12220, Note_on_c, 0, 49, 14
1, 12289, Note_off_c, 0, 42, 41
1, 12462, Note_on_c, 0, 42, 22
1, 12507, Note_on_c, 0, 70, 42
1, 12592, Note_off_c, 0, 49, 38
1, 12618, Note_off_c, 0, 61, 40
1, 12758, Note_on_c, 0, 61, 33
1, 12784, Note_on_c, 0, 49, 8
1, 13088, Note_off_c, 0, 61, 49
1, 13109, Note_off_c, 0, 49, 41
1, 13320, Note_on_c, 0, 61, 43
1, 13338, Note_on_c, 0, 49, 25
1, 13415, Note_off_c, 0, 58, 57
1, 13423, Note_off_c, 0, 54, 42
1, 13466, Note_off_c, 0, 70, 56
1, 13494, Note_off_c, 0, 61, 62
1, 13800, Note_on_c, 0, 61, 67
1, 13808, Note_on_c, 0, 58, 39
1, 13890, Control_c, 0, 64, 102
1, 13905, Control_c, 0, 64, 87
1, 13919, Control_c, 0, 64, 72
1, 13934, Control_c, 0, 64, 55
1, 13949, Control_c, 0, 64, 0
1, 14008, Control_c, 0, 64, 42
1, 14023, Control_c, 0, 64, 61
1, 14037, Control_c, 0, 64, 69
1, 14052, Control_c, 0, 64, 83
1, 14067, Control_c, 0, 64, 127
1, 14079, Note_off_c, 0, 49, 41
1, 14327, Note_on_c, 0, 66, 40
1, 14334, Note_on_c, 0, 49, 33
1, 14357, Note_off_c, 0, 58, 36
1, 14371, Note_off_c, 0, 42, 39
1, 14582, Note_on_c, 0, 42, 38
1, 14597, Note_on_c, 0, 73, 57
1, 14653, Note_off_c, 0, 66, 56
1, 14680, Note_off_c, 0, 49, 34
1, 14811, Note_on_c, 0, 66, 50
1, 14829, Note_on_c, 0, 49, 37
1, 14845, Note_off_c, 0, 61, 60
1, 14875, Control_c, 0, 64, 115
1, 14890, Control_c, 0, 64, 112
1, 14905, Control_c, 0, 64, 108
1, 14909, Note_off_c, 0, 73, 54
1, 14920, Control_c, 0, 64, 103
1, 14934, Control_c, 0, 64, 96
1, 14949, Control_c, 0, 64, 89
1, 14964, Control_c, 0, 64, 84
1, 14979, Control_c, 0, 64, 80
1, 14994, Control_c, 0, 64, 78
1, 15008, Control_c, 0, 64, 77
1, 15023, Control_c, 0, 64, 74
1, 15026, Note_on_c, 0, 59, 69
1, 15038, Note_on_c, 0, 56, 38
1, 15038, Control_c, 0, 64, 69
1, 15052, Control_c, 0, 64, 63
1, 15067, Control_c, 0, 64, 49
1, 15075, Note_off_c, 0, 66, 63
1, 15082, Control_c, 0, 64, 24
1, 15097, Control_c, 0, 64, 22
1, 15112, Control_c, 0, 64, 27
1, 15127, Control_c, 0, 64, 41
1, 15142, Control_c, 0, 64, 54
1, 15157, Control_c, 0, 64, 62
1, 15172, Control_c, 0, 64, 67
1, 15186, Control_c, 0, 64, 73
1, 15201, Control_c, 0, 64, 79
1, 15216, Control_c, 0, 64, 85
1, 15221, Note_off_c, 0, 49, 50
1, 15238, Control_c, 0, 64, 88
1, 15253, Control_c, 0, 64, 91
1, 15267, Control_c, 0, 64, 96
1, 15282, Control_c, 0, 64, 105
1, 15297, Control_c, 0, 64, 127
1, 15351, Note_on_c, 0, 49, 43
1, 15351, Note_on_c, 0, 66, 42
1, 15395, Note_off_c, 0, 56, 41
1, 15395, Note_off_c, 0, 59, 56
1, 15461, Note_off_c, 0, 42, 31
1, 15736, Note_on_c, 0, 63, 66
1, 15742, Note_on_c, 0, 59, 35
1, 15743, Control_c, 0, 64, 113
1, 15757, Control_c, 0, 64, 101
1, 15772, Control_c, 0, 64, 91
1, 15787, Control_c, 0, 64, 82
1, 15792, Note_off_c, 0, 66, 55
1, 15802, Control_c, 0, 64, 73
1, 15817, Control_c, 0, 64, 63
1, 15831, Control_c, 0, 64, 21
1, 15846, Control_c, 0, 64, 0
1, 15905, Control_c, 0, 64, 50
1, 15920, Control_c, 0, 64, 67
1, 15935, Control_c, 0, 64, 76
1, 15950, Control_c, 0, 64, 92
1, 15964, Control_c, 0, 64, 111
1, 15966, Note_off_c, 0, 49, 49
1, 15987, Control_c, 0, 64, 127
1, 16142, Note_off_c, 0, 59, 37
1, 16173, Note_on_c, 0, 49, 28
1, 16191, Note_on_c, 0, 66, 39
1, 16431, Note_on_c, 0, 42, 38
1, 16450, Note_on_c, 0, 75, 43
1, 16477, Note_off_c, 0, 49, 39
1, 16520, Note_off_c, 0, 66, 32
1, 16668, Note_on_c, 0, 66, 39
1, 16685, Note_on_c, 0, 49, 35
1, 16693, Note_off_c, 0, 63, 48
1, 16765, Note_off_c, 0, 75, 39
1, 16913, Control_c, 0, 64, 109
1, 16928, Control_c, 0, 64, 99
1, 16941, Note_on_c, 0, 61, 63
1, 16943, Note_on_c, 0, 58, 39
1, 16943, Control_c, 0, 64, 92
1, 16958, Control_c, 0, 64, 86
1, 16973, Control_c, 0, 64, 81
1, 16987, Control_c, 0, 64, 73
1, 16989, Note_off_c, 0, 66, 60
1, 17002, Control_c, 0, 64, 65
1, 17017, Control_c, 0, 64, 52
1, 17032, Control_c, 0, 64, 0
1, 17092, Control_c, 0, 64, 38
1, 17107, Control_c, 0, 64, 57
1, 17121, Note_off_c, 0, 49, 57
1, 17122, Control_c, 0, 64, 63
1, 17136, Control_c, 0, 64, 68
1, 17151, Control_c, 0, 64, 74
1, 17166, Control_c, 0, 64, 85
1, 17181, Control_c, 0, 64, 106
1, 17196, Control_c, 0, 64, 127
1, 17318, Note_on_c, 0, 66, 35
1, 17323, Note_on_c, 0, 49, 20
1, 17331, Note_off_c, 0, 58, 36
1, 17366, Note_off_c, 0, 61, 58
1, 17406, Note_off_c, 0, 66, 55
1, 17774, Note_on_c, 0, 54, 52
1, 17778, Note_on_c, 0, 51, 25
1, 17825, Control_c, 0, 64, 112
1, 17840, Control_c, 0, 64, 94
1, 17854, Control_c, 0, 64, 81
1, 17869, Control_c, 0, 64, 68
1, 17886, Control_c, 0, 64, 58
1, 17900, Control_c, 0, 64, 32
1, 17915, Control_c, 0, 64, 0
1, 17974, Control_c, 0, 64, 32
1, 17981, Note_off_c, 0, 49, 41
1, 17989, Control_c, 0, 64, 54
1, 18004, Control_c, 0, 64, 62
1, 18019, Control_c, 0, 64, 66
1, 18033, Control_c, 0, 64, 70
1, 18048, Control_c, 0, 64, 77
1, 18063, Control_c, 0, 64, 90
1, 18078, Control_c, 0, 64, 112
1, 18093, Control_c, 0, 64, 127
1, 18250, Note_on_c, 0, 49, 23
1, 18254, Note_on_c, 0, 61, 31
1, 18290, Note_off_c, 0, 42, 42
1, 18383, Note_off_c, 0, 51, 36
1, 18484, Note_on_c, 0, 42, 24
1, 18493, Note_on_c, 0, 66, 40
1, 18502, Note_off_c, 0, 49, 34
1, 18555, Note_off_c, 0, 61, 27
1, 18701, Note_on_c, 0, 61, 40
1, 18716, Note_off_c, 0, 54, 34
1, 18726, Note_on_c, 0, 49, 31
1, 18814, Note_off_c, 0, 49, 50
1, 18835, Note_on_c, 0, 54, 59
1, 18841, Note_off_c, 0, 61, 53
1, 18856, Note_on_c, 0, 51, 41
1, 18898, Note_off_c, 0, 66, 21
1, 19042, Control_c, 0, 64, 105
1, 19056, Note_off_c, 0, 54, 53
1, 19056, Control_c, 0, 64, 95
1, 19071, Control_c, 0, 64, 87
1, 19078, Note_on_c, 0, 56, 51
1, 19086, Control_c, 0, 64, 79
1, 19090, Note_on_c, 0, 53, 37
1, 19100, Control_c, 0, 64, 71
1, 19115, Control_c, 0, 64, 63
1, 19130, Control_c, 0, 64, 43
1, 19145, Control_c, 0, 64, 0
1, 19157, Note_off_c, 0, 51, 38
1, 19234, Control_c, 0, 64, 30
1, 19249, Control_c, 0, 64, 52
1, 19264, Control_c, 0, 64, 60
1, 19279, Control_c, 0, 64, 64
1, 19294, Control_c, 0, 64, 66
1, 19308, Control_c, 0, 64, 69
1, 19323, Control_c, 0, 64, 72
1, 19338, Control_c, 0, 64, 77
1, 19353, Control_c, 0, 64, 83
1, 19368, Control_c, 0, 64, 94
1, 19382, Control_c, 0, 64, 107
1, 19397, Control_c, 0, 64, 127
1, 19458, Note_on_c, 0, 49, 27
1, 19464, Note_off_c, 0, 53, 42
1, 19484, Note_on_c, 0, 61, 34
1, 19561, Note_off_c, 0, 56, 35
1, 19879, Note_on_c, 0, 58, 46
1, 19923, Note_on_c, 0, 54, 30
1, 19968, Control_c, 0, 64, 99
1, 19983, Note_off_c, 0, 61, 40
1, 19983, Control_c, 0, 64, 82
1, 19998, Control_c, 0, 64, 70
1, 20013, Control_c, 0, 64, 59
1, 20027, Control_c, 0, 64, 33
1, 20042, Control_c, 0, 64, 0
1, 20091, Note_off_c, 0, 49, 43
1, 20102, Control_c, 0, 64, 39
1, 20117, Control_c, 0, 64, 57
1, 20131, Control_c, 0, 64, 64
1, 20146, Control_c, 0, 64, 67
1, 20161, Control_c, 0, 64, 72
1, 20176, Control_c, 0, 64, 80
1, 20191, Control_c, 0, 64, 91
1, 20205, Control_c, 0, 64, 119
1, 20220, Control_c, 0, 64, 127
1, 20343, Note_on_c, 0, 61, 32
1, 20350, Note_on_c, 0, 49, 25
1, 20444, Note_off_c, 0, 42, 42
1, 20613, Note_on_c, 0, 42, 26
1, 20641, Note_on_c, 0, 70, 44
1, 20767, Note_off_c, 0, 49, 39
1, 20770, Note_off_c, 0, 61, 34
1, 20954, Note_on_c, 0, 61, 49
1, 20975, Note_on_c, 0, 49, 29
1, 21402, Note_off_c, 0, 49, 41
1, 21417, Note_off_c, 0, 61, 56
1, 21693, Note_on_c, 0, 61, 38
1, 21709, Note_on_c, 0, 49, 23
1, 21834, Note_off_c, 0, 58, 36
1, 21976, Note_off_c, 0, 42, 40
1, 21979, Note_off_c, 0, 54, 43
1, 22278, Note_on_c, 0, 55, 35
1, 22278, Note_on_c, 0, 58, 64
1, 22349, Note_off_c, 0, 61, 60
1, 22362, Note_off_c, 0, 70, 47
1, 22363, Control_c, 0, 64, 98
1, 22378, Control_c, 0, 64, 82
1, 22392, Control_c, 0, 64, 71
1, 22407, Control_c, 0, 64, 63
1, 22422, Control_c, 0, 64, 48
1, 22437, Control_c, 0, 64, 0
1, 22452, Note_off_c, 0, 49, 41
1, 22540, Control_c, 0, 64, 36
1, 22555, Control_c, 0, 64, 59
1, 22570, Control_c, 0, 64, 66
1, 22585, Control_c, 0, 64, 72
1, 22600, Control_c, 0, 64, 86
1, 22615, Control_c, 0, 64, 127
1, 22795, Note_on_c, 0, 61, 48
1, 22830, Note_on_c, 0, 51, 32
1, 22914, Note_off_c, 0, 55, 40
1, 22927, Note_off_c, 0, 51, 59
1, 23107, Note_on_c, 0, 39, 40
1, 23117, Note_on_c, 0, 70, 54
1, 23201, Note_off_c, 0, 61, 60
1, 23218, Note_off_c, 0, 39, 52
1, 23356, Note_on_c, 0, 51, 47
1, 23360, Note_on_c, 0, 61, 49
1, 23436, Note_off_c, 0, 58, 61
1, 23452, Note_off_c, 0, 70, 56
1, 23478, Note_off_c, 0, 61, 60
1, 23774, Note_on_c, 0, 61, 70
1, 23798, Note_on_c, 0, 58, 31
1, 23831, Control_c, 0, 64, 109
1, 23846, Control_c, 0, 64, 97
1, 23861, Control_c, 0, 64, 82
1, 23876, Control_c, 0, 64, 68
1, 23891, Control_c, 0, 64, 57
1, 23905, Control_c, 0, 64, 54
1, 23920, Control_c, 0, 64, 62
1, 23935, Control_c, 0, 64, 68
1, 23950, Control_c, 0, 64, 79
1, 23965, Control_c, 0, 64, 120
1, 23979, Control_c, 0, 64, 127
1, 24058, Note_off_c, 0, 51, 59
1, 24210, Note_on_c, 0, 51, 35
1, 24221, Note_on_c, 0, 63, 38
1, 24522, Note_on_c, 0, 44, 34
1, 24585, Note_on_c, 0, 73, 48
1, 24636, Note_off_c, 0, 51, 42
1, 24654, Note_off_c, 0, 63, 54
1, 24801, Note_on_c, 0, 63, 45
1, 24820, Note_off_c, 0, 58, 42
1, 24821, Note_on_c, 0, 51, 32
1, 24860, Note_off_c, 0, 61, 58
1, 24880, Note_off_c, 0, 73, 36
1, 25026, Note_on_c, 0, 59, 72
1, 25031, Control_c, 0, 64, 125
1, 25038, Note_on_c, 0, 56, 36
1, 25046, Control_c, 0, 64, 95
1, 25061, Control_c, 0, 64, 77
1, 25077, Control_c, 0, 64, 64
1, 25077, Note_off_c, 0, 63, 57
1, 25091, Control_c, 0, 64, 49
1, 25106, Control_c, 0, 64, 38
1, 25120, Note_off_c, 0, 51, 43
1, 25121, Control_c, 0, 64, 44
1, 25136, Control_c, 0, 64, 56
1, 25150, Control_c, 0, 64, 62
1, 25165, Control_c, 0, 64, 67
1, 25180, Control_c, 0, 64, 73
1, 25195, Control_c, 0, 64, 84
1, 25210, Control_c, 0, 64, 107
1, 25224, Control_c, 0, 64, 127
1, 25248, Note_on_c, 0, 63, 44
1, 25253, Note_on_c, 0, 51, 39
1, 25259, Note_off_c, 0, 56, 51
1, 25261, Note_off_c, 0, 59, 63
1, 25493, Note_on_c, 0, 54, 40
1, 25506, Control_c, 0, 64, 100
1, 25513, Note_on_c, 0, 58, 63
1, 25521, Control_c, 0, 64, 91
1, 25535, Control_c, 0, 64, 85
1, 25538, Note_off_c, 0, 63, 58
1, 25550, Control_c, 0, 64, 80
1, 25565, Control_c, 0, 64, 73
1, 25580, Control_c, 0, 64, 64
1, 25595, Control_c, 0, 64, 37
1, 25602, Note_off_c, 0, 51, 39
1, 25609, Control_c, 0, 64, 0
1, 25669, Control_c, 0, 64, 38
1, 25684, Control_c, 0, 64, 57
1, 25697, Note_off_c, 0, 44, 36
1, 25698, Control_c, 0, 64, 64
1, 25721, Control_c, 0, 64, 69
1, 25736, Control_c, 0, 64, 74
1, 25750, Control_c, 0, 64, 82
1, 25765, Control_c, 0, 64, 95
1, 25780, Control_c, 0, 64, 127
1, 25813, Note_on_c, 0, 63, 37
1, 25846, Note_on_c, 0, 48, 32
1, 25888, Note_off_c, 0, 58, 52
1, 26071, Note_off_c, 0, 54, 35
1, 26136, Control_c, 0, 64, 115
1, 26144, Note_on_c, 0, 56, 50
1, 26150, Note_on_c, 0, 53, 35
1, 26151, Control_c, 0, 64, 98
1, 26165, Control_c, 0, 64, 89
1, 26180, Control_c, 0, 64, 85
1, 26195, Control_c, 0, 64, 82
1, 26210, Control_c, 0, 64, 78
1, 26218, Note_off_c, 0, 48, 29
1, 26224, Note_off_c, 0, 63, 57
1, 26225, Control_c, 0, 64, 68
1, 26240, Control_c, 0, 64, 54
1, 26255, Control_c, 0, 64, 0
1, 26314, Control_c, 0, 64, 34
1, 26329, Control_c, 0, 64, 56
1, 26344, Control_c, 0, 64, 64
1, 26358, Control_c, 0, 64, 70
1, 26373, Control_c, 0, 64, 78
1, 26388, Control_c, 0, 64, 92
1, 26403, Control_c, 0, 64, 127
1, 26490, Note_on_c, 0, 49, 26
1, 26496, Note_on_c, 0, 61, 47
1, 26515, Note_off_c, 0, 53, 42
1, 26526, Note_off_c, 0, 49, 54
1, 26684, Note_on_c, 0, 37, 43
1, 26719, Note_on_c, 0, 68, 54
1, 26736, Note_off_c, 0, 37, 48
1, 26767, Note_off_c, 0, 61, 50
1, 26901, Note_on_c, 0, 61, 61
1, 26914, Note_on_c, 0, 49, 36
1, 26939, Note_off_c, 0, 56, 58
1, 27160, Note_on_c, 0, 56, 35
1, 27181, Note_off_c, 0, 68, 27
1, 27181, Control_c, 0, 64, 98
1, 27182, Note_on_c, 0, 59, 75
1, 27196, Control_c, 0, 64, 80
1, 27218, Control_c, 0, 64, 65
1, 27233, Control_c, 0, 64, 48
1, 27238, Note_off_c, 0, 61, 61
1, 27248, Control_c, 0, 64, 36
1, 27262, Control_c, 0, 64, 43
1, 27277, Control_c, 0, 64, 56
1, 27292, Control_c, 0, 64, 62
1, 27307, Control_c, 0, 64, 67
1, 27322, Control_c, 0, 64, 76
1, 27337, Control_c, 0, 64, 93
1, 27339, Note_off_c, 0, 49, 52
1, 27351, Control_c, 0, 64, 127
1, 27496, Note_on_c, 0, 61, 41
1, 27508, Note_on_c, 0, 49, 34
1, 27718, Note_on_c, 0, 71, 47
1, 27742, Note_on_c, 0, 42, 30
1, 27771, Note_off_c, 0, 61, 33
1, 27784, Note_off_c, 0, 49, 32
1, 27843, Note_off_c, 0, 71, 53
1, 27902, Note_off_c, 0, 59, 62
1, 27912, Note_on_c, 0, 61, 41
1, 27930, Note_off_c, 0, 56, 47
1, 27931, Note_on_c, 0, 49, 32
1, 28163, Note_on_c, 0, 58, 61
1, 28174, Control_c, 0, 64, 93
1, 28185, Note_off_c, 0, 61, 51
1, 28189, Control_c, 0, 64, 72
1, 28189, Note_on_c, 0, 54, 37
1, 28204, Control_c, 0, 64, 53
1, 28218, Control_c, 0, 64, 0
1, 28219, Note_off_c, 0, 49, 41
1, 28264, Control_c, 0, 64, 23
1, 28279, Control_c, 0, 64, 46
1, 28293, Control_c, 0, 64, 60
1, 28308, Control_c, 0, 64, 65
1, 28323, Control_c, 0, 64, 70
1, 28338, Control_c, 0, 64, 79
1, 28353, Control_c, 0, 64, 92
1, 28367, Control_c, 0, 64, 127
1, 28439, Note_on_c, 0, 49, 28
1, 28446, Note_on_c, 0, 61, 39
1, 28478, Note_off_c, 0, 58, 55
1, 28589, Note_off_c, 0, 54, 43
1, 28716, Control_c, 0, 64, 104
1, 28731, Control_c, 0, 64, 92
1, 28733, Note_on_c, 0, 53, 35
1, 28734, Note_on_c, 0, 56, 54
1, 28746, Control_c, 0, 64, 85
1, 28756, Note_off_c, 0, 61, 55
1, 28761, Control_c, 0, 64, 80
1, 28775, Control_c, 0, 64, 76
1, 28790, Control_c, 0, 64, 70
1, 28805, Control_c, 0, 64, 62
1, 28815, Note_off_c, 0, 49, 40
1, 28820, Control_c, 0, 64, 42
1, 28835, Control_c, 0, 64, 0
1, 28879, Control_c, 0, 64, 25
1, 28894, Control_c, 0, 64, 48
1, 28909, Control_c, 0, 64, 59
1, 28923, Control_c, 0, 64, 63
1, 28938, Control_c, 0, 64, 64
1, 28953, Control_c, 0, 64, 67
1, 28967, Control_c, 0, 64, 70
1, 28982, Control_c, 0, 64, 74
1, 28997, Control_c, 0, 64, 79
1, 29012, Control_c, 0, 64, 84
1, 29027, Control_c, 0, 64, 89
1, 29042, Control_c, 0, 64, 95
1, 29057, Control_c, 0, 64, 103
1, 29072, Control_c, 0, 64, 116
1, 29077, Note_on_c, 0, 46, 29
1, 29084, Note_on_c, 0, 62, 43
1, 29087, Control_c, 0, 64, 127
1, 29100, Note_off_c, 0, 53, 41
1, 29191, Note_off_c, 0, 56, 55
1, 29221, Note_off_c, 0, 42, 9
1, 29516, Note_on_c, 0, 51, 33
1, 29525, Control_c, 0, 64, 114
1, 29534, Note_on_c, 0, 54, 47
1, 29539, Control_c, 0, 64, 106
1, 29554, Control_c, 0, 64, 98
1, 29569, Control_c, 0, 64, 91
1, 29584, Control_c, 0, 64, 85
1, 29596, Note_off_c, 0, 62, 61
1, 29598, Control_c, 0, 64, 79
1, 29613, Control_c, 0, 64, 72
1, 29628, Control_c, 0, 64, 66
1, 29643, Control_c, 0, 64, 60
1, 29657, Note_off_c, 0, 46, 37
1, 29658, Control_c, 0, 64, 46
1, 29672, Control_c, 0, 64, 21
1, 29687, Control_c, 0, 64, 0
1, 29716, Control_c, 0, 64, 29
1, 29731, Control_c, 0, 64, 47
1, 29746, Control_c, 0, 64, 58
1, 29761, Control_c, 0, 64, 63
1, 29776, Control_c, 0, 64, 65
1, 29790, Control_c, 0, 64, 68
1, 29805, Control_c, 0, 64, 72
1, 29820, Control_c, 0, 64, 77
1, 29835, Control_c, 0, 64, 83
1, 29850, Control_c, 0, 64, 92
1, 29866, Control_c, 0, 64, 104
1, 29880, Control_c, 0, 64, 127
1, 29996, Note_on_c, 0, 63, 29
1, 30049, Note_on_c, 0, 46, 21
1, 30309, Note_on_c, 0, 66, 47
1, 30327, Note_on_c, 0, 39, 36
1, 30369, Note_off_c, 0, 63, 40
1, 30379, Note_off_c, 0, 46, 40
1, 30556, Note_on_c, 0, 63, 50
1, 30571, Note_on_c, 0, 46, 33
1, 30618, Note_off_c, 0, 51, 48
1, 30620, Note_off_c, 0, 54, 61
1, 30635, Note_off_c, 0, 66, 36
1, 30729, Note_off_c, 0, 39, 27
1, 30941, Note_on_c, 0, 54, 42
1, 31021, Note_on_c, 0, 56, 70
1, 31066, Control_c, 0, 64, 102
1, 31078, Note_off_c, 0, 63, 55
1, 31081, Control_c, 0, 64, 79
1, 31096, Control_c, 0, 64, 62
1, 31110, Control_c, 0, 64, 41
1, 31125, Control_c, 0, 64, 0
1, 31155, Control_c, 0, 64, 26
1, 31167, Note_off_c, 0, 46, 37
1, 31170, Control_c, 0, 64, 49
1, 31185, Control_c, 0, 64, 61
1, 31200, Control_c, 0, 64, 69
1, 31215, Control_c, 0, 64, 79
1, 31230, Control_c, 0, 64, 104
1, 31244, Control_c, 0, 64, 127
1, 31469, Note_off_c, 0, 54, 34
1, 31524, Note_on_c, 0, 44, 31
1, 31528, Note_on_c, 0, 63, 33
1, 31865, Note_on_c, 0, 36, 35
1, 31912, Note_on_c, 0, 68, 46
1, 31933, Note_off_c, 0, 44, 25
1, 31969, Note_off_c, 0, 63, 39
1, 32061, Note_off_c, 0, 36, 39
1, 32137, Note_on_c, 0, 63, 45
1, 32142, Note_off_c, 0, 56, 56
1, 32148, Note_on_c, 0, 44, 29
1, 32203, Note_off_c, 0, 44, 45
1, 32391, Note_on_c, 0, 56, 63
1, 32404, Note_on_c, 0, 53, 40
1, 32407, Control_c, 0, 64, 88
1, 32410, Note_off_c, 0, 63, 51
1, 32422, Control_c, 0, 64, 69
1, 32437, Control_c, 0, 64, 57
1, 32461, Control_c, 0, 64, 48
1, 32473, Note_off_c, 0, 68, 35
1, 32476, Control_c, 0, 64, 52
1, 32490, Control_c, 0, 64, 59
1, 32505, Control_c, 0, 64, 65
1, 32520, Control_c, 0, 64, 72
1, 32535, Control_c, 0, 64, 84
1, 32550, Control_c, 0, 64, 127
1, 32575, Note_off_c, 0, 53, 54
1, 32741, Note_on_c, 0, 61, 38
1, 32752, Note_on_c, 0, 37, 30
1, 32801, Note_off_c, 0, 37, 48
1, 32803, Note_off_c, 0, 56, 53
1, 33076, Note_on_c, 0, 52, 30
1, 33099, Note_on_c, 0, 58, 57
1, 33143, Control_c, 0, 64, 100
1, 33155, Note_off_c, 0, 61, 53
1, 33158, Control_c, 0, 64, 82
1, 33173, Control_c, 0, 64, 69
1, 33187, Control_c, 0, 64, 57
1, 33209, Control_c, 0, 64, 31
1, 33224, Control_c, 0, 64, 0
1, 33254, Control_c, 0, 64, 35
1, 33269, Control_c, 0, 64, 53
1, 33283, Control_c, 0, 64, 63
1, 33298, Control_c, 0, 64, 68
1, 33313, Control_c, 0, 64, 76
1, 33328, Control_c, 0, 64, 92
1, 33343, Control_c, 0, 64, 127
1, 33556, Note_on_c, 0, 70, 37
1, 33567, Note_on_c, 0, 43, 24
1, 33772, Note_off_c, 0, 52, 42
1, 33787, Note_off_c, 0, 58, 54
1, 34189, Note_on_c, 0, 53, 30
1, 34195, Note_on_c, 0, 56, 49
1, 34285, Note_off_c, 0, 70, 33
1, 34328, Control_c, 0, 64, 103
1, 34343, Control_c, 0, 64, 90
1, 34358, Control_c, 0, 64, 82
1, 34373, Control_c, 0, 64, 76
1, 34387, Note_off_c, 0, 43, 36
1, 34387, Control_c, 0, 64, 68
1, 34402, Control_c, 0, 64, 58
1, 34417, Control_c, 0, 64, 26
1, 34432, Control_c, 0, 64, 0
1, 34476, Control_c, 0, 64, 35
1, 34491, Control_c, 0, 64, 55
1, 34506, Control_c, 0, 64, 63
1, 34521, Control_c, 0, 64, 68
1, 34535, Control_c, 0, 64, 75
1, 34550, Control_c, 0, 64, 86
1, 34565, Control_c, 0, 64, 105
1, 34580, Control_c, 0, 64, 127
1, 34786, Note_on_c, 0, 49, 14
1, 34790, Note_on_c, 0, 61, 30
1, 35141, Note_on_c, 0, 44, 22
1, 35143, Note_on_c, 0, 68, 36
1, 35209, Note_off_c, 0, 49, 38
1, 35212, Note_off_c, 0, 61, 40
1, 35416, Note_off_c, 0, 53, 42
1, 35419, Note_on_c, 0, 61, 32
1, 35429, Note_on_c, 0, 49, 21
1, 35464, Note_off_c, 0, 56, 54
1, 35495, Note_off_c, 0, 44, 38
1, 35514, Note_off_c, 0, 68, 26
1, 35712, Note_on_c, 0, 54, 47
1, 35719, Note_on_c, 0, 51, 37
1, 35737, Note_off_c, 0, 61, 40
1, 35795, Control_c, 0, 64, 106
1, 35810, Note_off_c, 0, 49, 40
1, 35810, Control_c, 0, 64, 88
1, 35824, Control_c, 0, 64, 74
1, 35839, Control_c, 0, 64, 62
1, 35854, Control_c, 0, 64, 51
1, 35869, Control_c, 0, 64, 41
1, 35884, Control_c, 0, 64, 41
1, 35898, Control_c, 0, 64, 48
1, 35913, Control_c, 0, 64, 56
1, 35928, Control_c, 0, 64, 62
1, 35943, Control_c, 0, 64, 67
1, 35958, Control_c, 0, 64, 72
1, 35972, Control_c, 0, 64, 80
1, 35987, Control_c, 0, 64, 89
1, 36002, Control_c, 0, 64, 102
1, 36017, Control_c, 0, 64, 127
1, 36035, Note_on_c, 0, 44, 31
1, 36067, Note_on_c, 0, 60, 24
1, 36300, Note_on_c, 0, 68, 36
1, 36324, Note_off_c, 0, 60, 39
1, 36333, Note_on_c, 0, 37, 28
1, 36400, Note_off_c, 0, 44, 37
1, 36619, Note_off_c, 0, 68, 32
1, 36625, Note_on_c, 0, 60, 32
1, 36649, Note_on_c, 0, 44, 16
1, 36666, Note_off_c, 0, 51, 34
1, 36845, Note_off_c, 0, 54, 37
1, 37037, Note_on_c, 0, 53, 39
1, 37064, Note_on_c, 0, 49, 21
1, 37160, Control_c, 0, 64, 99
1, 37164, Note_off_c, 0, 60, 39
1, 37175, Control_c, 0, 64, 82
1, 37190, Control_c, 0, 64, 69
1, 37205, Control_c, 0, 64, 57
1, 37220, Control_c, 0, 64, 28
1, 37234, Control_c, 0, 64, 0
1, 37260, Note_off_c, 0, 44, 40
1, 37278, Control_c, 0, 64, 16
1, 37293, Control_c, 0, 64, 44
1, 37308, Control_c, 0, 64, 58
1, 37323, Control_c, 0, 64, 63
1, 37338, Control_c, 0, 64, 66
1, 37352, Control_c, 0, 64, 69
1, 37367, Control_c, 0, 64, 74
1, 37382, Control_c, 0, 64, 82
1, 37397, Control_c, 0, 64, 98
1, 37412, Control_c, 0, 64, 127
1, 37469, Note_on_c, 0, 61, 34
1, 37506, Note_on_c, 0, 44, 28
1, 37564, Note_off_c, 0, 37, 40
1, 37857, Note_on_c, 0, 37, 33
1, 37941, Note_on_c, 0, 68, 42
1, 38064, Note_off_c, 0, 61, 53
1, 38246, Note_off_c, 0, 37, 39
1, 38319, Note_off_c, 0, 49, 39
1, 38325, Note_on_c, 0, 61, 45
1, 38370, Note_off_c, 0, 44, 32
1, 38452, Note_off_c, 0, 53, 35
1, 38578, Note_off_c, 0, 68, 33
1, 39274, Note_on_c, 0, 54, 30
1, 39278, Note_on_c, 0, 58, 45
1, 39380, Note_off_c, 0, 61, 39
1, 39420, Control_c, 0, 64, 122
1, 39435, Control_c, 0, 64, 88
1, 39451, Control_c, 0, 64, 71
1, 39466, Control_c, 0, 64, 60
1, 39480, Control_c, 0, 64, 18
1, 39495, Control_c, 0, 64, 0
1, 39554, Control_c, 0, 64, 37
1, 39569, Control_c, 0, 64, 57
1, 39584, Control_c, 0, 64, 63
1, 39599, Control_c, 0, 64, 66
1, 39614, Control_c, 0, 64, 69
1, 39628, Control_c, 0, 64, 75
1, 39643, Control_c, 0, 64, 83
1, 39658, Control_c, 0, 64, 104
1, 39672, Control_c, 0, 64, 127
1, 39908, Note_on_c, 0, 61, 31
1, 39917, Note_on_c, 0, 49, 17
1, 40275, Note_on_c, 0, 42, 28
1, 40308, Note_on_c, 0, 70, 42
1, 40374, Note_off_c, 0, 49, 40
1, 40405, Note_off_c, 0, 61, 41
1, 40527, Note_off_c, 0, 58, 55
1, 40529, Note_on_c, 0, 61, 42
1, 40540, Note_on_c, 0, 49, 14
1, 40661, Note_off_c, 0, 54, 43
1, 40768, Note_on_c, 0, 56, 53
1, 40790, Note_on_c, 0, 53, 35
1, 40815, Control_c, 0, 64, 94
1, 40825, Note_off_c, 0, 61, 48
1, 40829, Control_c, 0, 64, 74
1, 40844, Control_c, 0, 64, 64
1, 40846, Note_off_c, 0, 70, 24
1, 40859, Control_c, 0, 64, 61
1, 40870, Note_off_c, 0, 49, 41
1, 40874, Control_c, 0, 64, 63
1, 40889, Control_c, 0, 64, 65
1, 40903, Control_c, 0, 64, 69
1, 40918, Control_c, 0, 64, 75
1, 40933, Control_c, 0, 64, 86
1, 40948, Control_c, 0, 64, 110
1, 40963, Control_c, 0, 64, 127
1, 41009, Note_on_c, 0, 61, 33
1, 41024, Note_off_c, 0, 53, 41
1, 41029, Note_on_c, 0, 49, 19
1, 41061, Note_off_c, 0, 56, 60
1, 41357, Note_on_c, 0, 59, 55
1, 41395, Note_on_c, 0, 56, 27
1, 41408, Control_c, 0, 64, 102
1, 41423, Control_c, 0, 64, 84
1, 41445, Control_c, 0, 64, 74
1, 41459, Note_off_c, 0, 61, 40
1, 41460, Control_c, 0, 64, 67
1, 41475, Control_c, 0, 64, 60
1, 41490, Control_c, 0, 64, 52
1, 41505, Control_c, 0, 64, 49
1, 41519, Control_c, 0, 64, 53
1, 41534, Control_c, 0, 64, 60
1, 41549, Control_c, 0, 64, 64
1, 41564, Control_c, 0, 64, 69
1, 41579, Control_c, 0, 64, 77
1, 41592, Note_off_c, 0, 49, 42
1, 41593, Control_c, 0, 64, 88
1, 41608, Control_c, 0, 64, 110
1, 41623, Control_c, 0, 64, 127
1, 41712, Note_on_c, 0, 61, 35
1, 41730, Note_on_c, 0, 49, 22
1, 41767, Note_off_c, 0, 42, 42
1, 41928, Note_on_c, 0, 71, 46
1, 41934, Note_on_c, 0, 42, 24
1, 41964, Note_off_c, 0, 61, 33
1, 41987, Note_off_c, 0, 49, 41
1, 42071, Note_off_c, 0, 71, 58
1, 42105, Note_off_c, 0, 59, 57
1, 42107, Note_on_c, 0, 61, 42
1, 42131, Note_on_c, 0, 49, 23
1, 42131, Note_off_c, 0, 56, 42
1, 42357, Note_on_c, 0, 58, 56
1, 42378, Note_on_c, 0, 54, 33
1, 42400, Control_c, 0, 64, 94
1, 42411, Note_off_c, 0, 61, 48
1, 42415, Control_c, 0, 64, 78
1, 42430, Control_c, 0, 64, 69
1, 42445, Control_c, 0, 64, 62
1, 42460, Control_c, 0, 64, 55
1, 42474, Control_c, 0, 64, 52
1, 42483, Note_off_c, 0, 49, 41
1, 42489, Control_c, 0, 64, 53
1, 42504, Control_c, 0, 64, 58
1, 42519, Control_c, 0, 64, 63
1, 42534, Control_c, 0, 64, 68
1, 42548, Control_c, 0, 64, 78
1, 42563, Control_c, 0, 64, 94
1, 42578, Control_c, 0, 64, 127
1, 42598, Note_off_c, 0, 58, 63
1, 42600, Note_on_c, 0, 61, 36
1, 42646, Note_off_c, 0, 54, 42
1, 42665, Note_on_c, 0, 49, 12
1, 42923, Note_on_c, 0, 54, 50
1, 42931, Note_on_c, 0, 51, 33
1, 42986, Control_c, 0, 64, 115
1, 43001, Control_c, 0, 64, 99
1, 43016, Control_c, 0, 64, 88
1, 43028, Note_off_c, 0, 61, 36
1, 43031, Control_c, 0, 64, 79
1, 43046, Control_c, 0, 64, 71
1, 43061, Control_c, 0, 64, 63
1, 43076, Control_c, 0, 64, 51
1, 43090, Control_c, 0, 64, 31
1, 43101, Note_off_c, 0, 49, 41
1, 43105, Control_c, 0, 64, 22
1, 43120, Control_c, 0, 64, 30
1, 43135, Control_c, 0, 64, 45
1, 43150, Control_c, 0, 64, 58
1, 43164, Control_c, 0, 64, 64
1, 43179, Control_c, 0, 64, 68
1, 43194, Control_c, 0, 64, 74
1, 43209, Control_c, 0, 64, 86
1, 43223, Control_c, 0, 64, 104
1, 43238, Control_c, 0, 64, 127
1, 43272, Note_on_c, 0, 61, 39
1, 43298, Note_on_c, 0, 49, 25
1, 43309, Note_off_c, 0, 42, 40
1, 43421, Note_off_c, 0, 51, 36
1, 43498, Note_on_c, 0, 42, 27
1, 43510, Note_off_c, 0, 49, 39
1, 43541, Note_on_c, 0, 66, 19
1, 43553, Note_off_c, 0, 61, 36
1, 43732, Note_on_c, 0, 61, 37
1, 43755, Note_off_c, 0, 54, 33
1, 43764, Note_on_c, 0, 49, 20
1, 43825, Note_off_c, 0, 49, 45
1, 43871, Note_on_c, 0, 54, 55
1, 43881, Note_off_c, 0, 61, 54
1, 43882, Note_on_c, 0, 51, 34
1, 43935, Note_off_c, 0, 66, 29
1, 44062, Control_c, 0, 64, 110
1, 44064, Note_off_c, 0, 54, 57
1, 44077, Control_c, 0, 64, 94
1, 44080, Note_on_c, 0, 56, 52
1, 44092, Control_c, 0, 64, 85
1, 44100, Note_on_c, 0, 53, 35
1, 44107, Control_c, 0, 64, 79
1, 44121, Control_c, 0, 64, 74
1, 44136, Control_c, 0, 64, 68
1, 44151, Control_c, 0, 64, 63
1, 44159, Note_off_c, 0, 51, 37
1, 44166, Control_c, 0, 64, 55
1, 44181, Control_c, 0, 64, 43
1, 44195, Control_c, 0, 64, 30
1, 44210, Control_c, 0, 64, 27
1, 44225, Control_c, 0, 64, 29
1, 44241, Control_c, 0, 64, 40
1, 44256, Control_c, 0, 64, 54
1, 44271, Control_c, 0, 64, 62
1, 44285, Control_c, 0, 64, 66
1, 44300, Control_c, 0, 64, 71
1, 44315, Control_c, 0, 64, 79
1, 44330, Control_c, 0, 64, 91
1, 44344, Control_c, 0, 64, 127
1, 44421, Note_on_c, 0, 61, 33
1, 44440, Note_off_c, 0, 53, 41
1, 44452, Note_on_c, 0, 49, 21
1, 44468, Note_off_c, 0, 56, 37
1, 44858, Note_on_c, 0, 58, 47
1, 44886, Note_on_c, 0, 54, 29
1, 44929, Control_c, 0, 64, 99
1, 44944, Control_c, 0, 64, 90
1, 44951, Note_off_c, 0, 61, 41
1, 44959, Control_c, 0, 64, 84
1, 44974, Control_c, 0, 64, 81
1, 44989, Control_c, 0, 64, 77
1, 45003, Control_c, 0, 64, 72
1, 45018, Control_c, 0, 64, 67
1, 45034, Control_c, 0, 64, 60
1, 45049, Control_c, 0, 64, 49
1, 45064, Control_c, 0, 64, 33
1, 45079, Control_c, 0, 64, 28
1, 45093, Control_c, 0, 64, 29
1, 45105, Note_off_c, 0, 49, 38
1, 45108, Control_c, 0, 64, 41
1, 45123, Control_c, 0, 64, 54
1, 45138, Control_c, 0, 64, 61
1, 45153, Control_c, 0, 64, 65
1, 45167, Control_c, 0, 64, 67
1, 45188, Control_c, 0, 64, 71
1, 45203, Control_c, 0, 64, 76
1, 45218, Control_c, 0, 64, 83
1, 45233, Control_c, 0, 64, 92
1, 45247, Control_c, 0, 64, 117
1, 45262, Control_c, 0, 64, 127
1, 45324, Note_on_c, 0, 61, 33
1, 45355, Note_on_c, 0, 49, 27
1, 45398, Note_off_c, 0, 42, 40
1, 45626, Note_on_c, 0, 70, 37
1, 45629, Note_on_c, 0, 42, 30
1, 45701, Note_off_c, 0, 49, 38
1, 45752, Note_off_c, 0, 61, 36
1, 45904, Note_on_c, 0, 61, 33
1, 45923, Note_on_c, 0, 49, 26
1, 46215, Note_off_c, 0, 61, 62
1, 46224, Note_off_c, 0, 49, 47
1, 46507, Note_on_c, 0, 61, 39
1, 46515, Note_on_c, 0, 49, 31
1, 46593, Note_off_c, 0, 58, 46
1, 46620, Note_off_c, 0, 54, 41
1, 46702, Note_off_c, 0, 61, 61
1, 46710, Note_off_c, 0, 70, 32
1, 46979, Note_on_c, 0, 61, 62
1, 46993, Note_on_c, 0, 58, 34
1, 47070, Control_c, 0, 64, 117
1, 47085, Control_c, 0, 64, 85
1, 47100, Control_c, 0, 64, 67
1, 47115, Control_c, 0, 64, 48
1, 47130, Control_c, 0, 64, 42
1, 47145, Control_c, 0, 64, 51
1, 47160, Control_c, 0, 64, 60
1, 47174, Control_c, 0, 64, 65
1, 47189, Control_c, 0, 64, 73
1, 47204, Control_c, 0, 64, 100
1, 47219, Control_c, 0, 64, 127
1, 47282, Note_off_c, 0, 49, 45
1, 47446, Note_off_c, 0, 42, 1
1, 47458, Note_on_c, 0, 49, 22
1, 47497, Note_on_c, 0, 66, 36
1, 47579, Note_off_c, 0, 58, 38
1, 47711, Note_on_c, 0, 42, 39
1, 47773, Note_on_c, 0, 73, 43
1, 47836, Note_off_c, 0, 66, 45
1, 47863, Note_off_c, 0, 49, 41
1, 47979, Note_on_c, 0, 49, 40
1, 47982, Note_on_c, 0, 66, 47
1, 48057, Note_off_c, 0, 61, 60
1, 48184, Note_off_c, 0, 73, 35
1, 48203, Note_on_c, 0, 59, 72
1, 48223, Note_on_c, 0, 56, 34
1, 48244, Control_c, 0, 64, 94
1, 48248, Note_off_c, 0, 66, 60
1, 48258, Control_c, 0, 64, 73
1, 48273, Control_c, 0, 64, 62
1, 48288, Control_c, 0, 64, 58
1, 48303, Control_c, 0, 64, 62
1, 48313, Note_off_c, 0, 49, 41
1, 48317, Control_c, 0, 64, 68
1, 48332, Control_c, 0, 64, 76
1, 48347, Control_c, 0, 64, 92
1, 48362, Control_c, 0, 64, 127
1, 48454, Note_on_c, 0, 49, 38
1, 48479, Note_on_c, 0, 66, 40
1, 48479, Note_off_c, 0, 59, 54
1, 48492, Note_off_c, 0, 56, 42
1, 48535, Note_off_c, 0, 42, 34
1, 48833, Note_on_c, 0, 59, 33
1, 48901, Note_on_c, 0, 63, 65
1, 48946, Control_c, 0, 64, 112
1, 48952, Note_off_c, 0, 66, 53
1, 48961, Control_c, 0, 64, 95
1, 48976, Control_c, 0, 64, 81
1, 48990, Control_c, 0, 64, 70
1, 49005, Control_c, 0, 64, 61
1, 49020, Control_c, 0, 64, 52
1, 49036, Control_c, 0, 64, 50
1, 49051, Control_c, 0, 64, 54
1, 49066, Control_c, 0, 64, 61
1, 49080, Control_c, 0, 64, 65
1, 49095, Control_c, 0, 64, 71
1, 49110, Control_c, 0, 64, 81
1, 49125, Control_c, 0, 64, 105
1, 49139, Note_off_c, 0, 49, 39
1, 49139, Control_c, 0, 64, 127
1, 49309, Note_on_c, 0, 49, 26
1, 49310, Note_off_c, 0, 59, 34
1, 49323, Note_on_c, 0, 66, 35
1, 49570, Note_on_c, 0, 42, 33
1, 49576, Note_on_c, 0, 75, 41
1, 49608, Note_off_c, 0, 49, 38
1, 49640, Note_off_c, 0, 66, 38
1, 49798, Note_off_c, 0, 63, 56
1, 49799, Note_on_c, 0, 49, 22
1, 49802, Note_on_c, 0, 66, 34
1, 49833, Note_off_c, 0, 75, 33
1, 50046, Note_on_c, 0, 61, 53
1, 50055, Note_on_c, 0, 58, 34
1, 50081, Control_c, 0, 64, 99
1, 50096, Control_c, 0, 64, 87
1, 50111, Control_c, 0, 64, 77
1, 50126, Control_c, 0, 64, 67
1, 50134, Note_off_c, 0, 66, 40
1, 50140, Control_c, 0, 64, 59
1, 50155, Control_c, 0, 64, 50
1, 50170, Control_c, 0, 64, 50
1, 50185, Control_c, 0, 64, 55
1, 50200, Control_c, 0, 64, 60
1, 50208, Note_off_c, 0, 49, 50
1, 50215, Control_c, 0, 64, 64
1, 50229, Control_c, 0, 64, 69
1, 50244, Control_c, 0, 64, 78
1, 50259, Control_c, 0, 64, 96
1, 50273, Control_c, 0, 64, 127
1, 50338, Note_off_c, 0, 58, 47
1, 50378, Note_on_c, 0, 66, 37
1, 50389, Note_on_c, 0, 49, 8
1, 50443, Note_off_c, 0, 61, 56
1, 50491, Note_off_c, 0, 66, 53
1, 50753, Note_on_c, 0, 51, 30
1, 50764, Note_on_c, 0, 54, 51
1, 50889, Control_c, 0, 64, 115
1, 50904, Control_c, 0, 64, 92
1, 50919, Control_c, 0, 64, 76
1, 50933, Control_c, 0, 64, 66
1, 50948, Control_c, 0, 64, 59
1, 50960, Note_off_c, 0, 49, 41
1, 50963, Control_c, 0, 64, 54
1, 50978, Control_c, 0, 64, 56
1, 50993, Control_c, 0, 64, 60
1, 51008, Control_c, 0, 64, 64
1, 51023, Control_c, 0, 64, 68
1, 51038, Control_c, 0, 64, 75
1, 51052, Control_c, 0, 64, 87
1, 51067, Control_c, 0, 64, 110
1, 51082, Control_c, 0, 64, 127
1, 51189, Note_on_c, 0, 61, 30
1, 51197, Note_on_c, 0, 49, 27
1, 51210, Note_off_c, 0, 42, 41
1, 51420, Note_on_c, 0, 66, 34
1, 51429, Note_on_c, 0, 42, 35
1, 51439, Note_off_c, 0, 51, 37
1, 51461, Note_off_c, 0, 49, 38
1, 51479, Note_off_c, 0, 61, 39
1, 51654, Note_off_c, 0, 54, 42
1, 51658, Note_on_c, 0, 61, 31
1, 51670, Note_on_c, 0, 49, 24
1, 51741, Note_off_c, 0, 49, 42
1, 51783, Note_on_c, 0, 54, 55
1, 51789, Note_on_c, 0, 51, 42
1, 51828, Note_off_c, 0, 61, 43
1, 51971, Note_off_c, 0, 66, 36
1, 51986, Note_off_c, 0, 54, 53
1, 52000, Note_on_c, 0, 53, 41
1, 52001, Note_on_c, 0, 56, 50
1, 52016, Control_c, 0, 64, 105
1, 52031, Control_c, 0, 64, 94
1, 52046, Control_c, 0, 64, 86
1, 52061, Control_c, 0, 64, 80
1, 52075, Control_c, 0, 64, 72
1, 52090, Control_c, 0, 64, 64
1, 52105, Control_c, 0, 64, 54
1, 52106, Note_off_c, 0, 51, 42
1, 52120, Control_c, 0, 64, 38
1, 52135, Control_c, 0, 64, 30
1, 52150, Control_c, 0, 64, 31
1, 52165, Control_c, 0, 64, 38
1, 52179, Control_c, 0, 64, 49
1, 52194, Control_c, 0, 64, 58
1, 52209, Control_c, 0, 64, 63
1, 52224, Control_c, 0, 64, 66
1, 52239, Control_c, 0, 64, 72
1, 52254, Control_c, 0, 64, 79
1, 52269, Control_c, 0, 64, 89
1, 52284, Control_c, 0, 64, 106
1, 52299, Control_c, 0, 64, 127
1, 52343, Note_off_c, 0, 53, 41
1, 52344, Note_on_c, 0, 49, 34
1, 52364, Note_on_c, 0, 61, 36
1, 52411, Note_off_c, 0, 56, 37
1, 52749, Note_on_c, 0, 58, 43
1, 52772, Note_on_c, 0, 54, 28
1, 52809, Control_c, 0, 64, 111
1, 52823, Control_c, 0, 64, 96
1, 52831, Note_off_c, 0, 61, 49
1, 52838, Control_c, 0, 64, 87
1, 52853, Control_c, 0, 64, 82
1, 52868, Control_c, 0, 64, 76
1, 52883, Control_c, 0, 64, 69
1, 52898, Control_c, 0, 64, 62
1, 52913, Control_c, 0, 64, 50
1, 52928, Control_c, 0, 64, 37
1, 52943, Control_c, 0, 64, 34
1, 52943, Note_off_c, 0, 49, 43
1, 52972, Control_c, 0, 64, 38
1, 52987, Control_c, 0, 64, 46
1, 53002, Control_c, 0, 64, 56
1, 53017, Control_c, 0, 64, 61
1, 53032, Control_c, 0, 64, 64
1, 53047, Control_c, 0, 64, 68
1, 53062, Control_c, 0, 64, 73
1, 53077, Control_c, 0, 64, 79
1, 53092, Control_c, 0, 64, 86
1, 53106, Control_c, 0, 64, 96
1, 53121, Control_c, 0, 64, 112
1, 53136, Control_c, 0, 64, 127
1, 53156, Note_on_c, 0, 61, 43
1, 53190, Note_on_c, 0, 49, 23
1, 53232, Note_off_c, 0, 42, 42
1, 53436, Note_on_c, 0, 70, 46
1, 53437, Note_on_c, 0, 42, 27
1, 53526, Note_off_c, 0, 61, 53
1, 53560, Note_off_c, 0, 49, 39
1, 53708, Note_on_c, 0, 49, 25
1, 53718, Note_on_c, 0, 61, 41
1, 54067, Note_off_c, 0, 49, 41
1, 54102, Note_off_c, 0, 61, 49
1, 54502, Note_on_c, 0, 61, 37
1, 54538, Note_on_c, 0, 49, 17
1, 54667, Note_off_c, 0, 58, 39
1, 54827, Note_off_c, 0, 54, 42
1, 54928, Note_off_c, 0, 42, 30
1, 55142, Note_on_c, 0, 58, 60
1, 55162, Note_on_c, 0, 55, 34
1, 55219, Control_c, 0, 64, 115
1, 55234, Control_c, 0, 64, 95
1, 55249, Control_c, 0, 64, 86
1, 55251, Note_off_c, 0, 61, 41
1, 55264, Control_c, 0, 64, 80
1, 55279, Control_c, 0, 64, 77
1, 55285, Note_off_c, 0, 70, 31
1, 55293, Control_c, 0, 64, 74
1, 55308, Control_c, 0, 64, 69
1, 55323, Control_c, 0, 64, 64
1, 55327, Note_off_c, 0, 49, 36
1, 55338, Control_c, 0, 64, 58
1, 55352, Control_c, 0, 64, 48
1, 55367, Control_c, 0, 64, 34
1, 55382, Control_c, 0, 64, 16
1, 55397, Control_c, 0, 64, 0
1, 55457, Control_c, 0, 64, 36
1, 55472, Control_c, 0, 64, 56
1, 55487, Control_c, 0, 64, 64
1, 55502, Control_c, 0, 64, 68
1, 55516, Control_c, 0, 64, 74
1, 55531, Control_c, 0, 64, 84
1, 55546, Control_c, 0, 64, 105
1, 55561, Control_c, 0, 64, 127
1, 55671, Note_on_c, 0, 51, 42
1, 55688, Note_on_c, 0, 61, 45
1, 55720, Note_off_c, 0, 55, 43
1, 55752, Note_off_c, 0, 51, 59
1, 55948, Note_on_c, 0, 39, 46
1, 56030, Note_on_c, 0, 70, 61
1, 56072, Note_off_c, 0, 39, 56
1, 56088, Note_off_c, 0, 61, 50
1, 56251, Note_on_c, 0, 51, 41
1, 56260, Note_on_c, 0, 61, 43
1, 56310, Note_off_c, 0, 58, 56
1, 56326, Note_off_c, 0, 70, 56
1, 56362, Note_off_c, 0, 61, 61
1, 56567, Note_on_c, 0, 58, 40
1, 56664, Note_on_c, 0, 61, 71
1, 56760, Control_c, 0, 64, 109
1, 56775, Control_c, 0, 64, 85
1, 56789, Control_c, 0, 64, 72
1, 56804, Control_c, 0, 64, 68
1, 56819, Control_c, 0, 64, 71
1, 56834, Control_c, 0, 64, 79
1, 56849, Control_c, 0, 64, 96
1, 56863, Control_c, 0, 64, 127
1, 56895, Note_off_c, 0, 51, 42
1, 57136, Note_on_c, 0, 51, 40
1, 57153, Note_on_c, 0, 63, 41
1, 57500, Note_on_c, 0, 44, 34
1, 57609, Note_on_c, 0, 73, 56
1, 57612, Control_c, 0, 64, 98
1, 57627, Control_c, 0, 64, 82
1, 57642, Control_c, 0, 64, 70
1, 57657, Control_c, 0, 64, 63
1, 57661, Note_off_c, 0, 51, 42
1, 57672, Control_c, 0, 64, 59
1, 57675, Note_off_c, 0, 63, 53
1, 57686, Control_c, 0, 64, 62
1, 57701, Control_c, 0, 64, 66
1, 57716, Control_c, 0, 64, 74
1, 57731, Control_c, 0, 64, 88
1, 57745, Control_c, 0, 64, 127
1, 57965, Note_on_c, 0, 63, 44
1, 57993, Note_off_c, 0, 58, 44
1, 58009, Note_on_c, 0, 51, 32
1, 58023, Note_off_c, 0, 73, 35
1, 58055, Note_off_c, 0, 61, 48
1, 58192, Note_on_c, 0, 59, 59
1, 58228, Control_c, 0, 64, 102
1, 58237, Note_on_c, 0, 56, 30
1, 58243, Control_c, 0, 64, 89
1, 58246, Note_off_c, 0, 63, 59
1, 58257, Control_c, 0, 64, 79
1, 58272, Control_c, 0, 64, 70
1, 58287, Control_c, 0, 64, 66
1, 58290, Note_off_c, 0, 51, 41
1, 58302, Control_c, 0, 64, 65
1, 58317, Control_c, 0, 64, 67
1, 58332, Control_c, 0, 64, 70
1, 58347, Control_c, 0, 64, 74
1, 58361, Control_c, 0, 64, 82
1, 58376, Control_c, 0, 64, 98
1, 58391, Control_c, 0, 64, 127
1, 58401, Note_off_c, 0, 59, 62
1, 58415, Note_on_c, 0, 63, 38
1, 58421, Note_on_c, 0, 51, 36
1, 58430, Note_off_c, 0, 56, 40
1, 58614, Control_c, 0, 64, 112
1, 58618, Note_on_c, 0, 58, 59
1, 58629, Control_c, 0, 64, 104
1, 58633, Note_on_c, 0, 54, 41
1, 58644, Control_c, 0, 64, 103
1, 58666, Control_c, 0, 64, 99
1, 58669, Note_off_c, 0, 63, 38
1, 58681, Control_c, 0, 64, 89
1, 58696, Control_c, 0, 64, 76
1, 58711, Control_c, 0, 64, 68
1, 58726, Control_c, 0, 64, 62
1, 58740, Note_off_c, 0, 51, 38
1, 58740, Control_c, 0, 64, 60
1, 58755, Control_c, 0, 64, 59
1, 58770, Control_c, 0, 64, 60
1, 58785, Control_c, 0, 64, 63
1, 58800, Control_c, 0, 64, 67
1, 58815, Control_c, 0, 64, 75
1, 58830, Note_off_c, 0, 44, 30
1, 58830, Control_c, 0, 64, 92
1, 58845, Control_c, 0, 64, 127
1, 58890, Note_on_c, 0, 48, 35
1, 58895, Note_on_c, 0, 63, 39
1, 58921, Note_off_c, 0, 58, 39
1, 59024, Note_off_c, 0, 54, 54
1, 59155, Control_c, 0, 64, 120
1, 59161, Note_on_c, 0, 56, 54
1, 59164, Note_on_c, 0, 53, 40
1, 59170, Control_c, 0, 64, 98
1, 59185, Control_c, 0, 64, 92
1, 59199, Control_c, 0, 64, 90
1, 59214, Control_c, 0, 64, 86
1, 59224, Note_off_c, 0, 63, 56
1, 59229, Control_c, 0, 64, 79
1, 59242, Note_off_c, 0, 48, 32
1, 59244, Control_c, 0, 64, 70
1, 59259, Control_c, 0, 64, 61
1, 59274, Control_c, 0, 64, 41
1, 59289, Control_c, 0, 64, 0
1, 59363, Control_c, 0, 64, 47
1, 59378, Control_c, 0, 64, 63
1, 59392, Control_c, 0, 64, 73
1, 59414, Control_c, 0, 64, 90
1, 59429, Control_c, 0, 64, 127
1, 59493, Note_on_c, 0, 49, 35
1, 59515, Note_on_c, 0, 61, 38
1, 59530, Note_off_c, 0, 49, 55
1, 59530, Note_off_c, 0, 53, 41
1, 59701, Note_on_c, 0, 37, 44
1, 59724, Note_on_c, 0, 68, 49
1, 59741, Note_off_c, 0, 37, 52
1, 59769, Note_off_c, 0, 61, 32
1, 59909, Note_on_c, 0, 61, 50
1, 59918, Note_on_c, 0, 49, 35
1, 59926, Note_off_c, 0, 56, 58
1, 60176, Note_on_c, 0, 56, 30
1, 60216, Note_on_c, 0, 59, 68
1, 60223, Control_c, 0, 64, 104
1, 60237, Control_c, 0, 64, 88
1, 60252, Control_c, 0, 64, 77
1, 60267, Control_c, 0, 64, 67
1, 60273, Note_off_c, 0, 68, 48
1, 60282, Control_c, 0, 64, 59
1, 60290, Note_off_c, 0, 61, 57
1, 60297, Control_c, 0, 64, 50
1, 60311, Control_c, 0, 64, 52
1, 60326, Control_c, 0, 64, 60
1, 60341, Control_c, 0, 64, 66
1, 60356, Control_c, 0, 64, 74
1, 60371, Control_c, 0, 64, 94
1, 60386, Control_c, 0, 64, 127
1, 60401, Note_off_c, 0, 49, 57
1, 60521, Note_on_c, 0, 61, 36
1, 60535, Note_on_c, 0, 49, 32
1, 60728, Note_on_c, 0, 71, 54
1, 60735, Note_off_c, 0, 61, 49
1, 60737, Note_on_c, 0, 42, 40
1, 60780, Note_off_c, 0, 49, 41
1, 60897, Note_off_c, 0, 71, 58
1, 60933, Note_on_c, 0, 49, 32
1, 60943, Note_off_c, 0, 59, 63
1, 60943, Note_off_c, 0, 56, 41
1, 60952, Note_on_c, 0, 61, 47
1, 61182, Note_on_c, 0, 54, 39
1, 61221, Note_on_c, 0, 58, 69
1, 61238, Control_c, 0, 64, 111
1, 61253, Control_c, 0, 64, 98
1, 61268, Control_c, 0, 64, 88
1, 61270, Note_off_c, 0, 61, 56
1, 61283, Control_c, 0, 64, 77
1, 61298, Control_c, 0, 64, 65
1, 61313, Control_c, 0, 64, 47
1, 61328, Control_c, 0, 64, 0
1, 61348, Note_off_c, 0, 49, 52
1, 61357, Control_c, 0, 64, 11
1, 61372, Control_c, 0, 64, 40
1, 61386, Control_c, 0, 64, 57
1, 61401, Control_c, 0, 64, 64
1, 61416, Control_c, 0, 64, 69
1, 61431, Control_c, 0, 64, 77
1, 61446, Control_c, 0, 64, 95
1, 61460, Control_c, 0, 64, 127
1, 61502, Note_on_c, 0, 49, 25
1, 61520, Note_on_c, 0, 61, 41
1, 61566, Note_off_c, 0, 58, 59
1, 61665, Note_off_c, 0, 54, 41
1, 61839, Control_c, 0, 64, 112
1, 61848, Note_on_c, 0, 56, 55
1, 61854, Control_c, 0, 64, 94
1, 61855, Note_on_c, 0, 53, 37
1, 61869, Control_c, 0, 64, 85
1, 61883, Control_c, 0, 64, 78
1, 61894, Note_off_c, 0, 61, 53
1, 61898, Control_c, 0, 64, 73
1, 61913, Control_c, 0, 64, 66
1, 61928, Control_c, 0, 64, 57
1, 61939, Note_off_c, 0, 49, 38
1, 61943, Control_c, 0, 64, 35
1, 61957, Control_c, 0, 64, 0
1, 62031, Control_c, 0, 64, 21
1, 62046, Control_c, 0, 64, 51
1, 62061, Control_c, 0, 64, 61
1, 62076, Control_c, 0, 64, 65
1, 62091, Control_c, 0, 64, 68
1, 62106, Control_c, 0, 64, 73
1, 62121, Control_c, 0, 64, 79
1, 62136, Control_c, 0, 64, 88
1, 62151, Control_c, 0, 64, 104
1, 62165, Control_c, 0, 64, 127
1, 62240, Note_off_c, 0, 42, 10
1, 62243, Note_on_c, 0, 62, 35
1, 62244, Note_on_c, 0, 46, 32
1, 62327, Note_off_c, 0, 53, 42
1, 62432, Note_off_c, 0, 56, 55
1, 62718, Note_on_c, 0, 54, 44
1, 62759, Note_on_c, 0, 51, 21
1, 62796, Control_c, 0, 64, 104
1, 62811, Control_c, 0, 64, 89
1, 62826, Control_c, 0, 64, 78
1, 62837, Note_off_c, 0, 62, 53
1, 62840, Control_c, 0, 64, 70
1, 62855, Control_c, 0, 64, 65
1, 62870, Control_c, 0, 64, 61
1, 62885, Control_c, 0, 64, 52
1, 62893, Note_off_c, 0, 46, 36
1, 62900, Control_c, 0, 64, 31
1, 62914, Control_c, 0, 64, 0
1, 62988, Control_c, 0, 64, 34
1, 63003, Control_c, 0, 64, 51
1, 63018, Control_c, 0, 64, 59
1, 63033, Control_c, 0, 64, 63
1, 63048, Control_c, 0, 64, 65
1, 63063, Control_c, 0, 64, 68
1, 63078, Control_c, 0, 64, 71
1, 63093, Control_c, 0, 64, 76
1, 63107, Control_c, 0, 64, 82
1, 63122, Control_c, 0, 64, 93
1, 63137, Control_c, 0, 64, 112
1, 63158, Control_c, 0, 64, 127
1, 63193, Note_on_c, 0, 63, 35
1, 63203, Note_on_c, 0, 46, 32
1, 63458, Note_on_c, 0, 66, 40
1, 63483, Note_on_c, 0, 39, 36
1, 63518, Note_off_c, 0, 63, 32
1, 63526, Note_off_c, 0, 46, 38
1, 63689, Note_on_c, 0, 63, 46
1, 63716, Note_on_c, 0, 46, 25
1, 63773, Note_off_c, 0, 51, 42
1, 63802, Note_off_c, 0, 54, 37
1, 63834, Note_off_c, 0, 66, 23
1, 63836, Note_off_c, 0, 39, 37
1, 64052, Note_on_c, 0, 54, 36
1, 64091, Note_on_c, 0, 56, 65
1, 64144, Control_c, 0, 64, 108
1, 64159, Control_c, 0, 64, 87
1, 64163, Note_off_c, 0, 63, 54
1, 64174, Control_c, 0, 64, 73
1, 64188, Control_c, 0, 64, 63
1, 64204, Control_c, 0, 64, 49
1, 64219, Control_c, 0, 64, 32
1, 64234, Control_c, 0, 64, 28
1, 64249, Control_c, 0, 64, 31
1, 64264, Control_c, 0, 64, 43
1, 64278, Control_c, 0, 64, 57
1, 64283, Note_off_c, 0, 46, 39
1, 64293, Control_c, 0, 64, 64
1, 64308, Control_c, 0, 64, 68
1, 64323, Control_c, 0, 64, 74
1, 64338, Control_c, 0, 64, 84
1, 64352, Control_c, 0, 64, 98
1, 64367, Control_c, 0, 64, 127
1, 64538, Note_off_c, 0, 54, 42
1, 64566, Note_on_c, 0, 44, 30
1, 64589, Note_on_c, 0, 63, 36
1, 64899, Note_on_c, 0, 36, 36
1, 64925, Note_on_c, 0, 68, 42
1, 64950, Note_off_c, 0, 44, 32
1, 64988, Note_off_c, 0, 63, 29
1, 65076, Note_off_c, 0, 36, 43
1, 65155, Note_on_c, 0, 63, 39
1, 65168, Note_on_c, 0, 44, 21
1, 65173, Note_off_c, 0, 56, 54
1, 65218, Note_off_c, 0, 44, 46
1, 65424, Note_on_c, 0, 56, 61
1, 65430, Note_on_c, 0, 53, 34
1, 65434, Control_c, 0, 64, 109
1, 65449, Control_c, 0, 64, 89
1, 65464, Control_c, 0, 64, 76
1, 65474, Note_off_c, 0, 63, 36
1, 65479, Control_c, 0, 64, 65
1, 65494, Control_c, 0, 64, 56
1, 65508, Control_c, 0, 64, 48
1, 65523, Control_c, 0, 64, 51
1, 65537, Note_off_c, 0, 68, 33
1, 65538, Control_c, 0, 64, 58
1, 65553, Control_c, 0, 64, 64
1, 65568, Control_c, 0, 64, 69
1, 65582, Control_c, 0, 64, 78
1, 65588, Note_off_c, 0, 53, 56
1, 65597, Control_c, 0, 64, 95
1, 65612, Control_c, 0, 64, 127
1, 65754, Note_on_c, 0, 37, 38
1, 65763, Note_on_c, 0, 61, 34
1, 65811, Note_off_c, 0, 37, 48
1, 65850, Note_off_c, 0, 56, 54
1, 66088, Note_on_c, 0, 52, 35
1, 66119, Note_on_c, 0, 58, 59
1, 66154, Control_c, 0, 64, 110
1, 66169, Control_c, 0, 64, 91
1, 66184, Control_c, 0, 64, 80
1, 66199, Control_c, 0, 64, 69
1, 66205, Note_off_c, 0, 61, 36
1, 66214, Control_c, 0, 64, 61
1, 66228, Control_c, 0, 64, 43
1, 66243, Control_c, 0, 64, 0
1, 66273, Control_c, 0, 64, 23
1, 66288, Control_c, 0, 64, 44
1, 66303, Control_c, 0, 64, 58
1, 66318, Control_c, 0, 64, 64
1, 66332, Control_c, 0, 64, 69
1, 66347, Control_c, 0, 64, 76
1, 66362, Control_c, 0, 64, 88
1, 66376, Control_c, 0, 64, 114
1, 66391, Control_c, 0, 64, 127
1, 66571, Note_on_c, 0, 43, 23
1, 66574, Note_on_c, 0, 70, 39
1, 66792, Note_off_c, 0, 52, 42
1, 66798, Note_off_c, 0, 58, 52
1, 67198, Note_on_c, 0, 56, 48
1, 67215, Note_on_c, 0, 53, 30
1, 67312, Note_off_c, 0, 70, 35
1, 67316, Control_c, 0, 64, 94
1, 67331, Control_c, 0, 64, 82
1, 67346, Control_c, 0, 64, 71
1, 67361, Control_c, 0, 64, 63
1, 67371, Note_off_c, 0, 43, 40
1, 67376, Control_c, 0, 64, 53
1, 67391, Control_c, 0, 64, 37
1, 67406, Control_c, 0, 64, 18
1, 67421, Control_c, 0, 64, 16
1, 67436, Control_c, 0, 64, 17
1, 67451, Control_c, 0, 64, 33
1, 67466, Control_c, 0, 64, 51
1, 67480, Control_c, 0, 64, 61
1, 67495, Control_c, 0, 64, 65
1, 67510, Control_c, 0, 64, 68
1, 67525, Control_c, 0, 64, 72
1, 67540, Control_c, 0, 64, 77
1, 67555, Control_c, 0, 64, 83
1, 67569, Control_c, 0, 64, 91
1, 67584, Control_c, 0, 64, 101
1, 67599, Control_c, 0, 64, 117
1, 67614, Control_c, 0, 64, 127
1, 67722, Note_on_c, 0, 61, 32
1, 67724, Note_on_c, 0, 49, 23
1, 68041, Note_on_c, 0, 68, 41
1, 68065, Note_on_c, 0, 44, 25
1, 68094, Note_off_c, 0, 61, 35
1, 68110, Note_off_c, 0, 49, 37
1, 68276, Note_off_c, 0, 53, 41
1, 68277, Note_on_c, 0, 61, 35
1, 68296, Note_on_c, 0, 49, 19
1, 68327, Note_off_c, 0, 44, 35
1, 68332, Note_off_c, 0, 56, 49
1, 68357, Note_off_c, 0, 68, 24
1, 68551, Note_off_c, 0, 61, 57
1, 68558, Note_on_c, 0, 54, 47
1, 68571, Note_on_c, 0, 51, 35
1, 68607, Control_c, 0, 64, 98
1, 68622, Control_c, 0, 64, 82
1, 68637, Control_c, 0, 64, 70
1, 68651, Control_c, 0, 64, 61
1, 68655, Note_off_c, 0, 49, 41
1, 68666, Control_c, 0, 64, 44
1, 68681, Control_c, 0, 64, 21
1, 68696, Control_c, 0, 64, 20
1, 68711, Control_c, 0, 64, 36
1, 68725, Control_c, 0, 64, 51
1, 68740, Control_c, 0, 64, 61
1, 68755, Control_c, 0, 64, 65
1, 68770, Control_c, 0, 64, 70
1, 68785, Control_c, 0, 64, 78
1, 68799, Control_c, 0, 64, 90
1, 68814, Control_c, 0, 64, 104
1, 68829, Control_c, 0, 64, 127
1, 68863, Note_on_c, 0, 44, 29
1, 68902, Note_on_c, 0, 60, 31
1, 69163, Note_on_c, 0, 68, 43
1, 69164, Note_on_c, 0, 37, 35
1, 69177, Note_off_c, 0, 60, 40
1, 69272, Note_off_c, 0, 44, 23
1, 69486, Note_on_c, 0, 60, 38
1, 69500, Note_off_c, 0, 68, 34
1, 69515, Note_on_c, 0, 44, 29
1, 69576, Note_off_c, 0, 51, 41
1, 69642, Note_off_c, 0, 37, 35
1, 69690, Note_off_c, 0, 54, 36
1, 69926, Note_on_c, 0, 53, 43
1, 69949, Note_on_c, 0, 49, 22
1, 69986, Control_c, 0, 64, 116
1, 70001, Control_c, 0, 64, 90
1, 70014, Note_off_c, 0, 60, 39
1, 70016, Control_c, 0, 64, 73
1, 70031, Control_c, 0, 64, 64
1, 70045, Control_c, 0, 64, 57
1, 70060, Control_c, 0, 64, 46
1, 70075, Control_c, 0, 64, 15
1, 70090, Control_c, 0, 64, 0
1, 70122, Note_off_c, 0, 44, 39
1, 70178, Control_c, 0, 64, 35
1, 70193, Control_c, 0, 64, 56
1, 70208, Control_c, 0, 64, 63
1, 70223, Control_c, 0, 64, 65
1, 70238, Control_c, 0, 64, 68
1, 70253, Control_c, 0, 64, 72
1, 70268, Control_c, 0, 64, 77
1, 70282, Control_c, 0, 64, 85
1, 70297, Control_c, 0, 64, 100
1, 70312, Control_c, 0, 64, 127
1, 70388, Note_on_c, 0, 61, 38
1, 70392, Note_on_c, 0, 44, 31
1, 70774, Note_on_c, 0, 37, 30
1, 70805, Note_on_c, 0, 68, 42
1, 70889, Poly_aftertouch_c, 0, 63, 127
1, 70960, Note_off_c, 0, 61, 52
1, 70994, Note_off_c, 0, 49, 40
1, 71111, Note_off_c, 0, 44, 23
1, 71131, Note_off_c, 0, 37, 36
1, 71213, Note_on_c, 0, 61, 46
1, 71439, Note_off_c, 0, 53, 40
1, 71500, Poly_aftertouch_c, 0, 63, 0
1, 71500, Note_off_c, 0, 68, 52
1, 72047, Note_on_c, 0, 32, 30
1, 72056, Note_on_c, 0, 44, 26
1, 72173, Note_on_c, 0, 71, 72
1, 72193, Note_on_c, 0, 68, 50
1, 72253, Note_off_c, 0, 61, 37
1, 72277, Control_c, 0, 64, 110
1, 72292, Control_c, 0, 64, 89
1, 72306, Control_c, 0, 64, 73
1, 72321, Control_c, 0, 64, 59
1, 72336, Control_c, 0, 64, 0
1, 72455, Control_c, 0, 64, 54
1, 72470, Control_c, 0, 64, 69
1, 72485, Control_c, 0, 64, 83
1, 72499, Control_c, 0, 64, 127
1, 72816, Note_on_c, 0, 63, 42
1, 73156, Note_on_c, 0, 59, 38
1, 73195, Note_off_c, 0, 44, 38
1, 73201, Note_off_c, 0, 63, 35
1, 73257, Note_off_c, 0, 32, 36
1, 73389, Note_off_c, 0, 71, 56
1, 73397, Note_off_c, 0, 68, 35
1, 73428, Note_on_c, 0, 63, 41
1, 73791, Note_on_c, 0, 46, 27
1, 73805, Note_on_c, 0, 34, 35
1, 73868, Note_on_c, 0, 70, 52
1, 73901, Note_on_c, 0, 68, 42
1, 73944, Note_off_c, 0, 63, 38
1, 73967, Control_c, 0, 64, 92
1, 73982, Control_c, 0, 64, 75
1, 73984, Note_off_c, 0, 59, 34
1, 73997, Control_c, 0, 64, 61
1, 74012, Control_c, 0, 64, 0
1, 74086, Control_c, 0, 64, 30
1, 74101, Control_c, 0, 64, 55
1, 74116, Control_c, 0, 64, 65
1, 74131, Control_c, 0, 64, 71
1, 74145, Control_c, 0, 64, 86
1, 74160, Control_c, 0, 64, 127
1, 74318, Note_on_c, 0, 65, 42
1, 74463, Note_off_c, 0, 46, 40
1, 74568, Note_on_c, 0, 62, 49
1, 74585, Note_off_c, 0, 34, 42
1, 74596, Note_off_c, 0, 65, 55
1, 74641, Note_off_c, 0, 68, 37
1, 74790, Note_on_c, 0, 68, 52
1, 74826, Note_off_c, 0, 70, 59
1, 74876, Note_off_c, 0, 62, 37
1, 75049, Note_on_c, 0, 30, 35
1, 75049, Note_on_c, 0, 42, 26
1, 75175, Note_on_c, 0, 70, 67
1, 75183, Control_c, 0, 64, 108
1, 75192, Note_on_c, 0, 66, 55
1, 75198, Control_c, 0, 64, 86
1, 75212, Note_off_c, 0, 68, 57
1, 75213, Control_c, 0, 64, 71
1, 75228, Control_c, 0, 64, 51
1, 75242, Control_c, 0, 64, 0
1, 75286, Control_c, 0, 64, 17
1, 75301, Control_c, 0, 64, 46
1, 75316, Control_c, 0, 64, 61
1, 75331, Control_c, 0, 64, 67
1, 75346, Control_c, 0, 64, 75
1, 75360, Control_c, 0, 64, 96
1, 75375, Control_c, 0, 64, 127
1, 75397, Note_off_c, 0, 42, 42
1, 75430, Note_off_c, 0, 66, 59
1, 75435, Note_on_c, 0, 63, 53
1, 75496, Note_off_c, 0, 30, 35
1, 75623, Note_on_c, 0, 68, 75
1, 75639, Note_off_c, 0, 63, 59
1, 75643, Control_c, 0, 64, 99
1, 75645, Note_on_c, 0, 44, 36
1, 75645, Note_on_c, 0, 65, 50
1, 75652, Note_on_c, 0, 32, 37
1, 75657, Control_c, 0, 64, 79
1, 75672, Control_c, 0, 64, 65
1, 75687, Control_c, 0, 64, 45
1, 75702, Control_c, 0, 64, 0
1, 75712, Note_off_c, 0, 70, 37
1, 75761, Control_c, 0, 64, 41
1, 75776, Control_c, 0, 64, 60
1, 75791, Control_c, 0, 64, 69
1, 75806, Control_c, 0, 64, 81
1, 75821, Control_c, 0, 64, 110
1, 75822, Note_off_c, 0, 65, 60
1, 75836, Control_c, 0, 64, 127
1, 75837, Note_on_c, 0, 59, 53
1, 75839, Note_off_c, 0, 44, 39
1, 75853, Note_off_c, 0, 68, 60
1, 75860, Note_off_c, 0, 32, 38
1, 76089, Note_on_c, 0, 46, 33
1, 76105, Note_on_c, 0, 34, 32
1, 76133, Note_on_c, 0, 66, 63
1, 76154, Control_c, 0, 64, 99
1, 76161, Note_off_c, 0, 59, 54
1, 76169, Control_c, 0, 64, 86
1, 76170, Note_on_c, 0, 63, 56
1, 76185, Control_c, 0, 64, 78
1, 76200, Control_c, 0, 64, 72
1, 76214, Control_c, 0, 64, 67
1, 76229, Control_c, 0, 64, 61
1, 76244, Control_c, 0, 64, 45
1, 76259, Control_c, 0, 64, 0
1, 76318, Control_c, 0, 64, 14
1, 76332, Control_c, 0, 64, 49
1, 76347, Control_c, 0, 64, 62
1, 76362, Control_c, 0, 64, 67
1, 76377, Control_c, 0, 64, 73
1, 76392, Control_c, 0, 64, 82
1, 76406, Control_c, 0, 64, 95
1, 76421, Control_c, 0, 64, 127
1, 76422, Note_on_c, 0, 58, 42
1, 76611, Note_off_c, 0, 58, 54
1, 76623, Note_on_c, 0, 54, 39
1, 76656, Note_off_c, 0, 46, 40
1, 76697, Note_off_c, 0, 34, 41
1, 76849, Note_on_c, 0, 58, 40
1, 76856, Note_off_c, 0, 63, 52
1, 76872, Note_off_c, 0, 54, 43
1, 76932, Note_off_c, 0, 66, 52
1, 77067, Note_on_c, 0, 65, 55
1, 77076, Note_on_c, 0, 44, 20
1, 77077, Note_on_c, 0, 62, 38
1, 77079, Note_on_c, 0, 32, 30
1, 77111, Control_c, 0, 64, 98
1, 77126, Control_c, 0, 64, 88
1, 77141, Control_c, 0, 64, 81
1, 77150, Note_off_c, 0, 58, 37
1, 77155, Control_c, 0, 64, 75
1, 77170, Control_c, 0, 64, 68
1, 77185, Control_c, 0, 64, 57
1, 77200, Control_c, 0, 64, 0
1, 77288, Control_c, 0, 64, 33
1, 77303, Control_c, 0, 64, 56
1, 77318, Control_c, 0, 64, 63
1, 77333, Control_c, 0, 64, 68
1, 77348, Control_c, 0, 64, 75
1, 77353, Note_on_c, 0, 58, 39
1, 77362, Control_c, 0, 64, 91
1, 77377, Control_c, 0, 64, 127
1, 77519, Note_off_c, 0, 44, 40
1, 77538, Note_on_c, 0, 53, 42
1, 77539, Note_off_c, 0, 58, 52
1, 77644, Note_off_c, 0, 32, 40
1, 77747, Note_off_c, 0, 62, 55
1, 77768, Note_on_c, 0, 58, 41
1, 77948, Control_c, 0, 64, 106
1, 77963, Note_on_c, 0, 42, 37
1, 77963, Control_c, 0, 64, 94
1, 77977, Control_c, 0, 64, 88
1, 77988, Note_on_c, 0, 30, 29
1, 77992, Control_c, 0, 64, 84
1, 78007, Control_c, 0, 64, 78
1, 78010, Note_on_c, 0, 63, 43
1, 78022, Control_c, 0, 64, 72
1, 78037, Control_c, 0, 64, 64
1, 78051, Control_c, 0, 64, 48
1, 78054, Note_off_c, 0, 58, 36
1, 78066, Control_c, 0, 64, 0
1, 78076, Note_off_c, 0, 53, 41
1, 78120, Note_off_c, 0, 65, 34
1, 78163, Control_c, 0, 64, 33
1, 78178, Control_c, 0, 64, 56
1, 78192, Control_c, 0, 64, 63
1, 78207, Control_c, 0, 64, 69
1, 78222, Control_c, 0, 64, 75
1, 78237, Control_c, 0, 64, 86
1, 78252, Control_c, 0, 64, 114
1, 78266, Control_c, 0, 64, 127
1, 78280, Note_on_c, 0, 58, 48
1, 78401, Note_off_c, 0, 42, 54
1, 78480, Note_on_c, 0, 41, 21
1, 78504, Control_c, 0, 64, 117
1, 78516, Note_on_c, 0, 29, 42
1, 78518, Control_c, 0, 64, 97
1, 78533, Control_c, 0, 64, 88
1, 78548, Control_c, 0, 64, 82
1, 78560, Note_off_c, 0, 30, 40
1, 78563, Control_c, 0, 64, 74
1, 78578, Control_c, 0, 64, 64
1, 78593, Control_c, 0, 64, 50
1, 78608, Control_c, 0, 64, 42
1, 78623, Control_c, 0, 64, 50
1, 78638, Control_c, 0, 64, 59
1, 78653, Control_c, 0, 64, 64
1, 78668, Control_c, 0, 64, 71
1, 78682, Control_c, 0, 64, 81
1, 78697, Control_c, 0, 64, 102
1, 78712, Control_c, 0, 64, 127
1, 78804, Note_on_c, 0, 56, 56
1, 78807, Note_off_c, 0, 41, 42
1, 78830, Note_off_c, 0, 29, 39
1, 78866, Note_off_c, 0, 58, 60
1, 78930, Note_off_c, 0, 63, 61
1, 79224, Note_on_c, 0, 39, 47
1, 79231, Note_on_c, 0, 27, 43
1, 79367, Note_on_c, 0, 69, 82
1, 79383, Note_on_c, 0, 66, 61
1, 79386, Control_c, 0, 64, 107
1, 79401, Control_c, 0, 64, 92
1, 79416, Control_c, 0, 64, 76
1, 79431, Control_c, 0, 64, 64
1, 79437, Note_off_c, 0, 56, 41
1, 79446, Control_c, 0, 64, 34
1, 79461, Control_c, 0, 64, 0
1, 79520, Control_c, 0, 64, 9
1, 79535, Control_c, 0, 64, 51
1, 79549, Control_c, 0, 64, 63
1, 79564, Control_c, 0, 64, 70
1, 79579, Control_c, 0, 64, 83
1, 79594, Control_c, 0, 64, 127
1, 79760, Note_on_c, 0, 61, 48
1, 79767, Note_off_c, 0, 27, 60
1, 79771, Note_off_c, 0, 39, 56
1, 79927, Control_c, 0, 67, 124
1, 79942, Control_c, 0, 67, 120
1, 79956, Control_c, 0, 67, 115
1, 79971, Control_c, 0, 67, 109
1, 79972, Note_on_c, 0, 57, 56
1, 79986, Control_c, 0, 67, 102
1, 80001, Control_c, 0, 67, 92
1, 80016, Control_c, 0, 67, 79
1, 80030, Control_c, 0, 67, 67
1, 80045, Control_c, 0, 67, 57
1, 80057, Note_off_c, 0, 61, 35
1, 80060, Control_c, 0, 67, 47
1, 80075, Control_c, 0, 67, 37
1, 80090, Control_c, 0, 67, 29
1, 80105, Control_c, 0, 67, 21
1, 80119, Control_c, 0, 67, 16
1, 80134, Control_c, 0, 67, 9
1, 80149, Control_c, 0, 67, 0
1, 80200, Note_off_c, 0, 66, 54
1, 80202, Note_on_c, 0, 61, 55
1, 80209, Note_off_c, 0, 69, 61
1, 80504, Note_on_c, 0, 32, 43
1, 80533, Note_on_c, 0, 44, 38
1, 80599, Note_on_c, 0, 68, 68
1, 80618, Note_on_c, 0, 66, 46
1, 80631, Control_c, 0, 64, 103
1, 80640, Note_off_c, 0, 61, 56
1, 80646, Control_c, 0, 64, 84
1, 80660, Control_c, 0, 64, 68
1, 80666, Note_off_c, 0, 57, 50
1, 80675, Control_c, 0, 64, 47
1, 80690, Control_c, 0, 64, 0
1, 80764, Control_c, 0, 64, 35
1, 80778, Control_c, 0, 64, 58
1, 80793, Control_c, 0, 64, 66
1, 80808, Control_c, 0, 64, 77
1, 80823, Control_c, 0, 64, 104
1, 80838, Control_c, 0, 64, 127
1, 80943, Poly_aftertouch_c, 0, 37, 127
1, 80950, Note_on_c, 0, 63, 50
1, 81063, Note_off_c, 0, 44, 40
1, 81112, Poly_aftertouch_c, 0, 37, 0
1, 81163, Note_on_c, 0, 60, 57
1, 81166, Note_off_c, 0, 66, 34
1, 81185, Note_off_c, 0, 63, 55
1, 81192, Note_off_c, 0, 32, 37
1, 81358, Note_on_c, 0, 66, 70
1, 81401, Note_off_c, 0, 68, 62
1, 81425, Note_off_c, 0, 60, 34
1, 81647, Note_on_c, 0, 40, 44
1, 81657, Note_on_c, 0, 28, 44
1, 81767, Note_off_c, 0, 66, 54
1, 81792, Note_on_c, 0, 68, 78
1, 81801, Note_on_c, 0, 64, 57
1, 81840, Control_c, 0, 64, 94
1, 81855, Control_c, 0, 64, 71
1, 81878, Control_c, 0, 64, 53
1, 81893, Control_c, 0, 64, 0
1, 81922, Control_c, 0, 64, 13
1, 81937, Control_c, 0, 64, 47
1, 81952, Control_c, 0, 64, 60
1, 81966, Control_c, 0, 64, 67
1, 81981, Control_c, 0, 64, 77
1, 81996, Control_c, 0, 64, 110
1, 82011, Control_c, 0, 64, 127
1, 82054, Note_off_c, 0, 40, 46
1, 82090, Note_off_c, 0, 64, 62
1, 82095, Note_on_c, 0, 61, 50
1, 82107, Note_off_c, 0, 28, 39
1, 82342, Note_on_c, 0, 42, 45
1, 82346, Note_on_c, 0, 30, 34
1, 82361, Note_on_c, 0, 66, 75
1, 82366, Note_off_c, 0, 61, 59
1, 82366, Control_c, 0, 64, 110
1, 82378, Note_on_c, 0, 63, 52
1, 82381, Control_c, 0, 64, 87
1, 82396, Control_c, 0, 64, 67
1, 82411, Control_c, 0, 64, 47
1, 82420, Note_off_c, 0, 68, 61
1, 82425, Control_c, 0, 64, 0
1, 82470, Control_c, 0, 64, 46
1, 82485, Control_c, 0, 64, 62
1, 82499, Control_c, 0, 64, 70
1, 82514, Control_c, 0, 64, 85
1, 82529, Control_c, 0, 64, 127
1, 82531, Note_off_c, 0, 42, 56
1, 82553, Note_off_c, 0, 63, 62
1, 82565, Note_on_c, 0, 57, 47
1, 82567, Note_off_c, 0, 66, 62
1, 82573, Note_off_c, 0, 30, 44
1, 82626, Control_c, 0, 67, 9
1, 82641, Control_c, 0, 67, 15
1, 82656, Control_c, 0, 67, 20
1, 82671, Control_c, 0, 67, 23
1, 82686, Control_c, 0, 67, 26
1, 82701, Control_c, 0, 67, 30
1, 82716, Control_c, 0, 67, 37
1, 82730, Control_c, 0, 67, 46
1, 82745, Control_c, 0, 67, 56
1, 82760, Control_c, 0, 67, 62
1, 82774, Control_c, 0, 67, 67
1, 82789, Control_c, 0, 67, 71
1, 82804, Control_c, 0, 67, 74
1, 82818, Note_on_c, 0, 64, 65
1, 82819, Control_c, 0, 67, 80
1, 82828, Note_on_c, 0, 32, 35
1, 82834, Control_c, 0, 67, 87
1, 82838, Note_on_c, 0, 61, 56
1, 82840, Note_on_c, 0, 44, 25
1, 82844, Note_off_c, 0, 57, 50
1, 82848, Control_c, 0, 64, 104
1, 82848, Control_c, 0, 67, 90
1, 82863, Control_c, 0, 64, 85
1, 82863, Control_c, 0, 67, 94
1, 82878, Control_c, 0, 64, 74
1, 82878, Control_c, 0, 67, 95
1, 82893, Control_c, 0, 64, 66
1, 82893, Control_c, 0, 67, 99
1, 82908, Control_c, 0, 64, 59
1, 82908, Control_c, 0, 67, 102
1, 82922, Control_c, 0, 64, 39
1, 82922, Control_c, 0, 67, 109
1, 82937, Control_c, 0, 64, 0
1, 82937, Control_c, 0, 67, 113
1, 82952, Control_c, 0, 67, 117
1, 82967, Control_c, 0, 67, 120
1, 82981, Control_c, 0, 67, 123
1, 82996, Control_c, 0, 64, 38
1, 82996, Control_c, 0, 67, 127
1, 83011, Control_c, 0, 64, 57
1, 83026, Control_c, 0, 64, 65
1, 83041, Control_c, 0, 64, 72
1, 83056, Control_c, 0, 64, 84
1, 83071, Control_c, 0, 64, 109
1, 83085, Control_c, 0, 64, 127
1, 83115, Note_on_c, 0, 56, 44
1, 83285, Note_on_c, 0, 52, 47
1, 83288, Note_off_c, 0, 56, 49
1, 83355, Note_off_c, 0, 44, 40
1, 83424, Note_off_c, 0, 64, 41
1, 83425, Note_off_c, 0, 32, 40
1, 83458, Note_off_c, 0, 61, 57
1, 83492, Note_on_c, 0, 56, 44
1, 83613, Note_off_c, 0, 52, 43
1, 83714, Note_on_c, 0, 42, 32
1, 83718, Note_on_c, 0, 30, 27
1, 83760, Control_c, 0, 64, 108
1, 83774, Note_on_c, 0, 63, 55
1, 83775, Control_c, 0, 64, 94
1, 83786, Note_on_c, 0, 60, 49
1, 83790, Control_c, 0, 64, 84
1, 83804, Control_c, 0, 64, 79
1, 83819, Control_c, 0, 64, 74
1, 83834, Control_c, 0, 64, 67
1, 83849, Note_off_c, 0, 56, 39
1, 83849, Control_c, 0, 64, 59
1, 83864, Control_c, 0, 64, 31
1, 83878, Control_c, 0, 64, 0
1, 83938, Control_c, 0, 64, 43
1, 83953, Control_c, 0, 64, 58
1, 83968, Control_c, 0, 64, 64
1, 83983, Control_c, 0, 64, 70
1, 83997, Control_c, 0, 64, 79
1, 84012, Control_c, 0, 64, 95
1, 84027, Control_c, 0, 64, 127
1, 84034, Note_on_c, 0, 56, 41
1, 84172, Note_off_c, 0, 42, 41
1, 84257, Note_on_c, 0, 51, 49
1, 84263, Note_off_c, 0, 56, 40
1, 84349, Note_off_c, 0, 30, 40
1, 84516, Note_on_c, 0, 56, 43
1, 84540, Note_off_c, 0, 60, 61
1, 84588, Note_off_c, 0, 51, 38
1, 84775, Control_c, 0, 64, 119
1, 84790, Control_c, 0, 64, 110
1, 84805, Control_c, 0, 64, 105
1, 84813, Note_on_c, 0, 40, 34
1, 84819, Control_c, 0, 64, 101
1, 84821, Note_on_c, 0, 28, 31
1, 84834, Control_c, 0, 64, 97
1, 84847, Note_on_c, 0, 61, 54
1, 84849, Control_c, 0, 64, 91
1, 84864, Control_c, 0, 64, 84
1, 84885, Note_off_c, 0, 56, 36
1, 84886, Control_c, 0, 64, 77
1, 84901, Control_c, 0, 64, 70
1, 84916, Control_c, 0, 64, 62
1, 84931, Control_c, 0, 64, 45
1, 84933, Note_off_c, 0, 63, 52
1, 84946, Control_c, 0, 64, 0
1, 85035, Control_c, 0, 64, 45
1, 85050, Control_c, 0, 64, 60
1, 85065, Control_c, 0, 64, 65
1, 85080, Control_c, 0, 64, 71
1, 85095, Control_c, 0, 64, 81
1, 85109, Control_c, 0, 64, 99
1, 85124, Control_c, 0, 64, 127
1, 85191, Note_on_c, 0, 56, 41
1, 85208, Note_off_c, 0, 40, 44
1, 85518, Note_on_c, 0, 39, 33
1, 85528, Note_on_c, 0, 27, 28
1, 85554, Control_c, 0, 64, 102
1, 85568, Control_c, 0, 64, 88
1, 85583, Control_c, 0, 64, 78
1, 85598, Control_c, 0, 64, 69
1, 85610, Note_off_c, 0, 28, 40
1, 85621, Control_c, 0, 64, 60
1, 85636, Control_c, 0, 64, 43
1, 85650, Control_c, 0, 64, 0
1, 85695, Control_c, 0, 64, 27
1, 85710, Control_c, 0, 64, 50
1, 85724, Control_c, 0, 64, 60
1, 85739, Control_c, 0, 64, 65
1, 85754, Control_c, 0, 64, 70
1, 85769, Control_c, 0, 64, 75
1, 85785, Control_c, 0, 64, 84
1, 85799, Control_c, 0, 64, 99
1, 85814, Control_c, 0, 64, 127
1, 85956, Note_on_c, 0, 54, 43
1, 86109, Note_off_c, 0, 39, 40
1, 86111, Note_off_c, 0, 27, 39
1, 86181, Note_off_c, 0, 56, 22
1, 86202, Note_off_c, 0, 61, 38
1, 86797, Note_on_c, 0, 61, 52
1, 86803, Note_on_c, 0, 25, 28
1, 86806, Note_on_c, 0, 37, 23
1, 86859, Control_c, 0, 64, 115
1, 86874, Control_c, 0, 64, 93
1, 86889, Control_c, 0, 64, 82
1, 86900, Note_off_c, 0, 54, 37
1, 86904, Control_c, 0, 64, 73
1, 86919, Control_c, 0, 64, 66
1, 86934, Control_c, 0, 64, 59
1, 86948, Control_c, 0, 64, 43
1, 86963, Control_c, 0, 64, 0
1, 87082, Control_c, 0, 64, 42
1, 87096, Control_c, 0, 64, 57
1, 87111, Control_c, 0, 64, 62
1, 87134, Control_c, 0, 64, 65
1, 87148, Control_c, 0, 64, 69
1, 87163, Control_c, 0, 64, 75
1, 87178, Control_c, 0, 64, 87
1, 87193, Control_c, 0, 64, 127
1, 87430, Note_on_c, 0, 56, 22
1, 87691, Note_off_c, 0, 25, 36
1, 87721, Note_on_c, 0, 52, 41
1, 87811, Note_off_c, 0, 56, 40
1, 87907, Note_off_c, 0, 37, 40
1, 87976, Note_on_c, 0, 56, 38
1, 88252, Control_c, 0, 64, 116
1, 88266, Control_c, 0, 64, 105
1, 88281, Control_c, 0, 64, 99
1, 88296, Control_c, 0, 64, 96
1, 88311, Control_c, 0, 64, 94
1, 88326, Control_c, 0, 64, 92
1, 88341, Control_c, 0, 64, 89
1, 88356, Control_c, 0, 64, 85
1, 88359, Note_on_c, 0, 64, 54
1, 88371, Control_c, 0, 64, 83
1, 88385, Control_c, 0, 64, 81
1, 88400, Note_off_c, 0, 52, 41
1, 88400, Control_c, 0, 64, 80
1, 88415, Control_c, 0, 64, 78
1, 88415, Note_off_c, 0, 56, 40
1, 88430, Control_c, 0, 64, 76
1, 88445, Control_c, 0, 64, 75
1, 88451, Note_off_c, 0, 61, 48
1, 88504, Control_c, 0, 64, 75
1, 88533, Control_c, 0, 64, 74
1, 88548, Control_c, 0, 64, 73
1, 88734, Control_c, 0, 64, 74
1, 88748, Control_c, 0, 64, 75
1, 88763, Control_c, 0, 64, 77
1, 88778, Control_c, 0, 64, 78
1, 88792, Control_c, 0, 64, 80
1, 88804, Note_on_c, 0, 61, 39
1, 88807, Control_c, 0, 64, 82
1, 88822, Control_c, 0, 64, 84
1, 88837, Control_c, 0, 64, 85
1, 88852, Control_c, 0, 64, 87
1, 88866, Control_c, 0, 64, 91
1, 88881, Control_c, 0, 64, 101
1, 88896, Control_c, 0, 64, 127
1, 89214, Note_on_c, 0, 30, 29
1, 89223, Note_on_c, 0, 42, 25
1, 89312, Control_c, 0, 64, 108
1, 89327, Control_c, 0, 64, 97
1, 89342, Control_c, 0, 64, 88
1, 89345, Note_on_c, 0, 57, 30
1, 89364, Control_c, 0, 64, 79
1, 89379, Control_c, 0, 64, 70
1, 89394, Control_c, 0, 64, 64
1, 89409, Control_c, 0, 64, 57
1, 89416, Note_off_c, 0, 61, 29
1, 89423, Control_c, 0, 64, 44
1, 89438, Control_c, 0, 64, 33
1, 89453, Control_c, 0, 64, 35
1, 89468, Control_c, 0, 64, 50
1, 89483, Control_c, 0, 64, 60
1, 89497, Control_c, 0, 64, 65
1, 89512, Control_c, 0, 64, 71
1, 89527, Control_c, 0, 64, 81
1, 89542, Control_c, 0, 64, 99
1, 89557, Control_c, 0, 64, 127
1, 89731, Note_off_c, 0, 42, 42
1, 89757, Note_on_c, 0, 61, 40
1, 89786, Note_off_c, 0, 30, 42
1, 89989, Note_on_c, 0, 63, 52
1, 90034, Note_off_c, 0, 61, 36
1, 90123, Note_off_c, 0, 64, 36
1, 90250, Note_on_c, 0, 61, 33
1, 90263, Note_off_c, 0, 57, 42
1, 90488, Note_on_c, 0, 33, 33
1, 90493, Note_on_c, 0, 45, 31
1, 90579, Note_on_c, 0, 66, 57
1, 90591, Note_on_c, 0, 60, 32
1, 90637, Note_off_c, 0, 61, 33
1, 90648, Control_c, 0, 64, 101
1, 90662, Control_c, 0, 64, 83
1, 90677, Control_c, 0, 64, 69
1, 90692, Control_c, 0, 64, 58
1, 90707, Control_c, 0, 64, 34
1, 90722, Control_c, 0, 64, 0
1, 90751, Control_c, 0, 64, 30
1, 90766, Control_c, 0, 64, 51
1, 90780, Control_c, 0, 64, 60
1, 90795, Control_c, 0, 64, 65
1, 90810, Control_c, 0, 64, 69
1, 90825, Control_c, 0, 64, 76
1, 90840, Control_c, 0, 64, 87
1, 90854, Control_c, 0, 64, 110
1, 90866, Note_on_c, 0, 61, 30
1, 90876, Control_c, 0, 64, 127
1, 90888, Note_off_c, 0, 63, 35
1, 91056, Note_on_c, 0, 65, 63
1, 91135, Note_off_c, 0, 60, 34
1, 91170, Note_off_c, 0, 61, 36
1, 91230, Note_off_c, 0, 66, 28
1, 91234, Note_off_c, 0, 33, 39
1, 91238, Note_off_c, 0, 45, 41
1, 91286, Note_on_c, 0, 62, 41
1, 91555, Note_on_c, 0, 44, 38
1, 91559, Note_on_c, 0, 32, 38
1, 91563, Note_on_c, 0, 59, 42
1, 91590, Note_off_c, 0, 62, 37
1, 91603, Control_c, 0, 64, 81
1, 91625, Control_c, 0, 64, 65
1, 91640, Control_c, 0, 64, 48
1, 91655, Control_c, 0, 64, 30
1, 91670, Control_c, 0, 64, 34
1, 91685, Control_c, 0, 64, 50
1, 91699, Control_c, 0, 64, 61
1, 91714, Control_c, 0, 64, 68
1, 91729, Control_c, 0, 64, 77
1, 91744, Control_c, 0, 64, 98
1, 91758, Control_c, 0, 64, 127
1, 91813, Note_off_c, 0, 32, 41
1, 91818, Note_off_c, 0, 44, 41
1, 91891, Note_on_c, 0, 62, 38
1, 92057, Note_on_c, 0, 35, 36
1, 92069, Note_on_c, 0, 47, 22
1, 92073, Note_on_c, 0, 68, 68
1, 92136, Note_off_c, 0, 62, 35
1, 92149, Note_off_c, 0, 65, 54
1, 92228, Note_off_c, 0, 47, 42
1, 92229, Note_off_c, 0, 35, 38
1, 92296, Note_on_c, 0, 65, 51
1, 92302, Note_off_c, 0, 59, 55
1, 92508, Note_on_c, 0, 45, 41
1, 92515, Note_on_c, 0, 33, 40
1, 92537, Control_c, 0, 64, 122
1, 92552, Note_on_c, 0, 60, 57
1, 92552, Control_c, 0, 64, 90
1, 92567, Control_c, 0, 64, 72
1, 92582, Control_c, 0, 64, 59
1, 92596, Control_c, 0, 64, 31
1, 92611, Control_c, 0, 64, 0
1, 92626, Control_c, 0, 64, 18
1, 92640, Control_c, 0, 64, 48
1, 92655, Control_c, 0, 64, 62
1, 92670, Control_c, 0, 64, 69
1, 92685, Control_c, 0, 64, 86
1, 92700, Control_c, 0, 64, 127
1, 92752, Note_on_c, 0, 63, 58
1, 92754, Note_off_c, 0, 65, 62
1, 92838, Note_off_c, 0, 68, 58
1, 92899, Note_off_c, 0, 45, 55
1, 92927, Note_off_c, 0, 33, 39
1, 92942, Note_on_c, 0, 66, 79
1, 92988, Note_off_c, 0, 63, 60
1, 93110, Note_off_c, 0, 60, 33
1, 93137, Note_on_c, 0, 63, 49
1, 93327, Note_on_c, 0, 36, 41
1, 93329, Note_on_c, 0, 48, 41
1, 93407, Note_on_c, 0, 69, 78
1, 93420, Control_c, 0, 64, 114
1, 93435, Control_c, 0, 64, 102
1, 93441, Note_on_c, 0, 62, 39
1, 93444, Note_off_c, 0, 63, 58
1, 93450, Control_c, 0, 64, 91
1, 93464, Control_c, 0, 64, 76
1, 93479, Control_c, 0, 64, 59
1, 93494, Control_c, 0, 64, 23
1, 93509, Control_c, 0, 64, 0
1, 93538, Control_c, 0, 64, 44
1, 93553, Control_c, 0, 64, 60
1, 93568, Control_c, 0, 64, 68
1, 93582, Control_c, 0, 64, 81
1, 93597, Control_c, 0, 64, 127
1, 93625, Note_on_c, 0, 63, 52
1, 93661, Note_off_c, 0, 66, 57
1, 93818, Note_on_c, 0, 68, 83
1, 93857, Note_off_c, 0, 63, 59
1, 93867, Note_off_c, 0, 48, 59
1, 93891, Note_off_c, 0, 69, 58
1, 93906, Note_off_c, 0, 62, 35
1, 93908, Note_off_c, 0, 36, 55
1, 94027, Note_on_c, 0, 65, 52
1, 94214, Note_on_c, 0, 35, 44
1, 94215, Note_on_c, 0, 47, 45
1, 94242, Note_off_c, 0, 65, 60
1, 94249, Note_on_c, 0, 62, 62
1, 94258, Control_c, 0, 64, 85
1, 94273, Control_c, 0, 64, 66
1, 94287, Control_c, 0, 64, 46
1, 94302, Control_c, 0, 64, 0
1, 94317, Control_c, 0, 64, 12
1, 94332, Control_c, 0, 64, 41
1, 94347, Control_c, 0, 64, 58
1, 94361, Control_c, 0, 64, 66
1, 94376, Control_c, 0, 64, 77
1, 94390, Note_off_c, 0, 35, 58
1, 94391, Control_c, 0, 64, 127
1, 94401, Note_off_c, 0, 47, 61
1, 94435, Note_on_c, 0, 65, 72
1, 94491, Note_off_c, 0, 68, 60
1, 94665, Note_on_c, 0, 50, 42
1, 94686, Note_on_c, 0, 38, 21
1, 94688, Note_on_c, 0, 71, 90
1, 94731, Note_off_c, 0, 65, 63
1, 94863, Note_off_c, 0, 50, 60
1, 94887, Note_off_c, 0, 38, 39
1, 94937, Note_on_c, 0, 68, 51
1, 94991, Note_off_c, 0, 62, 53
1, 95185, Note_on_c, 0, 37, 42
1, 95188, Note_on_c, 0, 49, 39
1, 95295, Note_on_c, 0, 64, 58
1, 95301, Control_c, 0, 64, 112
1, 95316, Control_c, 0, 64, 87
1, 95331, Control_c, 0, 64, 68
1, 95346, Control_c, 0, 64, 57
1, 95370, Control_c, 0, 64, 39
1, 95385, Control_c, 0, 64, 32
1, 95400, Control_c, 0, 64, 37
1, 95414, Control_c, 0, 64, 50
1, 95429, Control_c, 0, 64, 61
1, 95444, Control_c, 0, 64, 66
1, 95458, Control_c, 0, 64, 73
1, 95473, Control_c, 0, 64, 85
1, 95488, Control_c, 0, 64, 125
1, 95503, Control_c, 0, 64, 127
1, 95609, Note_on_c, 0, 67, 54
1, 95664, Note_off_c, 0, 68, 61
1, 95825, Note_on_c, 0, 70, 82
1, 95871, Note_off_c, 0, 67, 63
1, 95873, Control_c, 0, 64, 92
1, 95888, Note_off_c, 0, 71, 55
1, 95888, Control_c, 0, 64, 69
1, 95903, Control_c, 0, 64, 61
1, 95918, Control_c, 0, 64, 61
1, 95932, Control_c, 0, 64, 65
1, 95947, Control_c, 0, 64, 69
1, 95962, Control_c, 0, 64, 78
1, 95976, Control_c, 0, 64, 95
1, 95991, Control_c, 0, 64, 127
1, 96096, Note_off_c, 0, 49, 58
1, 96147, Note_off_c, 0, 37, 37
1, 96172, Note_on_c, 0, 67, 48
1, 96322, Note_off_c, 0, 64, 39
1, 96334, Note_off_c, 0, 70, 52
1, 96560, Note_on_c, 0, 40, 38
1, 96562, Note_on_c, 0, 52, 36
1, 96724, Note_on_c, 0, 73, 74
1, 96755, Control_c, 0, 64, 104
1, 96756, Note_on_c, 0, 66, 44
1, 96756, Note_off_c, 0, 67, 63
1, 96770, Control_c, 0, 64, 89
1, 96785, Control_c, 0, 64, 78
1, 96799, Control_c, 0, 64, 68
1, 96814, Control_c, 0, 64, 61
1, 96829, Control_c, 0, 64, 51
1, 96845, Control_c, 0, 64, 48
1, 96867, Control_c, 0, 64, 49
1, 96881, Control_c, 0, 64, 55
1, 96896, Control_c, 0, 64, 60
1, 96911, Control_c, 0, 64, 65
1, 96926, Control_c, 0, 64, 71
1, 96941, Control_c, 0, 64, 79
1, 96957, Control_c, 0, 64, 91
1, 96972, Control_c, 0, 64, 113
1, 96986, Control_c, 0, 64, 127
1, 97351, Note_on_c, 0, 67, 41
1, 97462, Note_off_c, 0, 66, 25
1, 98034, Note_off_c, 0, 40, 41
1, 98038, Note_on_c, 0, 38, 34
1, 98121, Control_c, 0, 64, 91
1, 98135, Control_c, 0, 64, 73
1, 98150, Control_c, 0, 64, 62
1, 98165, Control_c, 0, 64, 46
1, 98180, Control_c, 0, 64, 39
1, 98195, Control_c, 0, 64, 45
1, 98209, Control_c, 0, 64, 54
1, 98224, Control_c, 0, 64, 62
1, 98239, Control_c, 0, 64, 66
1, 98253, Control_c, 0, 64, 73
1, 98268, Control_c, 0, 64, 85
1, 98283, Control_c, 0, 64, 127
1, 98377, Note_off_c, 0, 67, 59
1, 98528, Note_on_c, 0, 67, 40
1, 98634, Note_off_c, 0, 52, 42
1, 99093, Note_on_c, 0, 50, 29
1, 99221, Note_on_c, 0, 71, 55
1, 99274, Note_off_c, 0, 73, 57
1, 99290, Control_c, 0, 64, 115
1, 99292, Note_off_c, 0, 67, 53
1, 99305, Control_c, 0, 64, 87
1, 99319, Control_c, 0, 64, 71
1, 99334, Control_c, 0, 64, 59
1, 99350, Control_c, 0, 64, 41
1, 99365, Control_c, 0, 64, 36
1, 99379, Control_c, 0, 64, 45
1, 99394, Control_c, 0, 64, 57
1, 99409, Control_c, 0, 64, 64
1, 99424, Control_c, 0, 64, 70
1, 99439, Control_c, 0, 64, 86
1, 99454, Control_c, 0, 64, 127
1, 99656, Note_on_c, 0, 62, 18
1, 99910, Note_on_c, 0, 67, 53
1, 99927, Note_off_c, 0, 62, 41
1, 99936, Note_off_c, 0, 71, 52
1, 100131, Note_on_c, 0, 59, 50
1, 100339, Note_on_c, 0, 62, 59
1, 100356, Note_off_c, 0, 67, 49
1, 100359, Note_off_c, 0, 59, 55
1, 100542, Note_on_c, 0, 55, 61
1, 100839, Note_on_c, 0, 59, 72
1, 100879, Note_off_c, 0, 55, 61
1, 100904, Note_off_c, 0, 62, 51
1, 100943, Note_off_c, 0, 50, 40
1, 101189, Note_on_c, 0, 49, 42
1, 101225, Note_on_c, 0, 50, 74
1, 101263, Control_c, 0, 64, 110
1, 101278, Control_c, 0, 64, 89
1, 101293, Note_off_c, 0, 59, 55
1, 101293, Control_c, 0, 64, 73
1, 101308, Control_c, 0, 64, 64
1, 101323, Control_c, 0, 64, 59
1, 101344, Control_c, 0, 64, 60
1, 101358, Control_c, 0, 64, 65
1, 101373, Control_c, 0, 64, 71
1, 101388, Control_c, 0, 64, 86
1, 101403, Control_c, 0, 64, 127
1, 101601, Note_on_c, 0, 55, 66
1, 101616, Note_on_c, 0, 47, 40
1, 101625, Control_c, 0, 64, 110
1, 101640, Control_c, 0, 64, 79
1, 101643, Note_off_c, 0, 50, 56
1, 101655, Control_c, 0, 64, 64
1, 101669, Control_c, 0, 64, 49
1, 101677, Note_off_c, 0, 49, 47
1, 101684, Control_c, 0, 64, 47
1, 101699, Control_c, 0, 64, 54
1, 101714, Control_c, 0, 64, 61
1, 101729, Control_c, 0, 64, 66
1, 101745, Control_c, 0, 64, 72
1, 101760, Control_c, 0, 64, 83
1, 101774, Control_c, 0, 64, 96
1, 101789, Control_c, 0, 64, 112
1, 101804, Control_c, 0, 64, 125
1, 101819, Control_c, 0, 64, 122
1, 101834, Control_c, 0, 64, 119
1, 101863, Control_c, 0, 64, 117
1, 101878, Control_c, 0, 64, 115
1, 101892, Control_c, 0, 64, 110
1, 101907, Control_c, 0, 64, 105
1, 101922, Control_c, 0, 64, 99
1, 101937, Control_c, 0, 64, 91
1, 101949, Note_on_c, 0, 54, 62
1, 101952, Control_c, 0, 64, 79
1, 101961, Note_on_c, 0, 45, 37
1, 101966, Control_c, 0, 64, 68
1, 101981, Control_c, 0, 64, 57
1, 101996, Control_c, 0, 64, 31
1, 102004, Note_off_c, 0, 55, 59
1, 102011, Note_off_c, 0, 47, 33
1, 102011, Control_c, 0, 64, 0
1, 102086, Control_c, 0, 64, 48
1, 102107, Control_c, 0, 64, 60
1, 102122, Control_c, 0, 64, 64
1, 102137, Control_c, 0, 64, 67
1, 102152, Control_c, 0, 64, 69
1, 102166, Control_c, 0, 64, 72
1, 102181, Control_c, 0, 64, 77
1, 102196, Control_c, 0, 64, 85
1, 102211, Control_c, 0, 64, 98
1, 102226, Control_c, 0, 64, 127
1, 102502, Note_on_c, 0, 44, 33
1, 102522, Note_on_c, 0, 53, 52
1, 102583, Control_c, 0, 64, 103
1, 102597, Control_c, 0, 64, 87
1, 102604, Note_off_c, 0, 54, 36
1, 102612, Control_c, 0, 64, 79
1, 102627, Note_off_c, 0, 45, 33
1, 102627, Control_c, 0, 64, 74
1, 102642, Control_c, 0, 64, 71
1, 102657, Control_c, 0, 64, 68
1, 102671, Control_c, 0, 64, 65
1, 102686, Control_c, 0, 64, 57
1, 102701, Control_c, 0, 64, 37
1, 102715, Control_c, 0, 64, 0
1, 102804, Control_c, 0, 64, 19
1, 102819, Control_c, 0, 64, 50
1, 102834, Control_c, 0, 64, 60
1, 102857, Control_c, 0, 64, 64
1, 102871, Control_c, 0, 64, 68
1, 102886, Control_c, 0, 64, 73
1, 102901, Control_c, 0, 64, 81
1, 102916, Control_c, 0, 64, 98
1, 102930, Control_c, 0, 64, 127
1, 103131, Note_on_c, 0, 50, 44
1, 103187, Note_off_c, 0, 53, 60
1, 103478, Note_on_c, 0, 47, 40
1, 103501, Note_off_c, 0, 44, 38
1, 103506, Note_off_c, 0, 50, 61
1, 103772, Note_on_c, 0, 44, 42
1, 103782, Note_off_c, 0, 47, 37
1, 103940, Note_off_c, 0, 38, 33
1, 103993, Note_on_c, 0, 41, 46
1, 104017, Note_off_c, 0, 44, 47
1, 104124, Control_c, 0, 64, 119
1, 104140, Control_c, 0, 64, 110
1, 104154, Control_c, 0, 64, 105
1, 104169, Control_c, 0, 64, 100
1, 104184, Control_c, 0, 64, 95
1, 104199, Control_c, 0, 64, 90
1, 104211, Note_off_c, 0, 41, 54
1, 104214, Control_c, 0, 64, 83
1, 104229, Control_c, 0, 64, 72
1, 104235, Note_on_c, 0, 38, 42
1, 104243, Control_c, 0, 64, 63
1, 104258, Control_c, 0, 64, 56
1, 104287, Control_c, 0, 64, 59
1, 104302, Control_c, 0, 64, 63
1, 104317, Control_c, 0, 64, 66
1, 104333, Control_c, 0, 64, 71
1, 104355, Control_c, 0, 64, 79
1, 104369, Control_c, 0, 64, 90
1, 104384, Control_c, 0, 64, 95
1, 104399, Control_c, 0, 64, 96
1, 104414, Control_c, 0, 64, 92
1, 104429, Control_c, 0, 64, 84
1, 104444, Control_c, 0, 64, 74
1, 104459, Control_c, 0, 64, 64
1, 104473, Control_c, 0, 64, 59
1, 104488, Control_c, 0, 64, 61
1, 104493, Note_on_c, 0, 39, 41
1, 104503, Control_c, 0, 64, 65
1, 104518, Control_c, 0, 64, 70
1, 104533, Control_c, 0, 64, 80
1, 104545, Note_off_c, 0, 38, 39
1, 104548, Control_c, 0, 64, 93
1, 104563, Control_c, 0, 64, 112
1, 104577, Control_c, 0, 64, 127
1, 104651, Control_c, 0, 64, 115
1, 104666, Control_c, 0, 64, 99
1, 104681, Control_c, 0, 64, 84
1, 104695, Control_c, 0, 64, 70
1, 104710, Control_c, 0, 64, 61
1, 104725, Control_c, 0, 64, 55
1, 104740, Control_c, 0, 64, 58
1, 104755, Control_c, 0, 64, 62
1, 104760, Note_on_c, 0, 42, 43
1, 104769, Control_c, 0, 64, 66
1, 104784, Control_c, 0, 64, 72
1, 104799, Control_c, 0, 64, 80
1, 104814, Control_c, 0, 64, 90
1, 104816, Note_off_c, 0, 39, 39
1, 104829, Control_c, 0, 64, 102
1, 104843, Control_c, 0, 64, 106
1, 104858, Control_c, 0, 64, 104
1, 104873, Control_c, 0, 64, 99
1, 104888, Control_c, 0, 64, 92
1, 104903, Control_c, 0, 64, 83
1, 104918, Control_c, 0, 64, 72
1, 104933, Control_c, 0, 64, 68
1, 104948, Control_c, 0, 64, 69
1, 104963, Control_c, 0, 64, 74
1, 104978, Control_c, 0, 64, 82
1, 104992, Control_c, 0, 64, 91
1, 105007, Control_c, 0, 64, 98
1, 105022, Control_c, 0, 64, 100
1, 105037, Control_c, 0, 64, 101
1, 105053, Note_on_c, 0, 48, 45
1, 105097, Note_off_c, 0, 42, 50
1, 105117, Control_c, 0, 64, 99
1, 105132, Control_c, 0, 64, 98
1, 105147, Control_c, 0, 64, 97
1, 105399, Control_c, 0, 64, 97
1, 105410, Note_on_c, 0, 51, 44
1, 105444, Control_c, 0, 64, 96
1, 105460, Note_off_c, 0, 48, 55
1, 105473, Control_c, 0, 64, 96
1, 105606, Control_c, 0, 64, 95
1, 105802, Note_on_c, 0, 54, 52
1, 105815, Control_c, 0, 64, 95
1, 105837, Control_c, 0, 64, 94
1, 105852, Control_c, 0, 64, 94
1, 105867, Control_c, 0, 64, 93
1, 105883, Note_off_c, 0, 51, 36
1, 105911, Control_c, 0, 64, 93
1, 105926, Control_c, 0, 64, 92
1, 105940, Control_c, 0, 64, 92
1, 106237, Control_c, 0, 64, 91
1, 106252, Control_c, 0, 64, 90
1, 106267, Control_c, 0, 64, 89
1, 106427, Note_on_c, 0, 57, 48
1, 106480, Note_off_c, 0, 54, 58
1, 106549, Control_c, 0, 64, 90
1, 106578, Control_c, 0, 64, 91
1, 106616, Control_c, 0, 64, 91
1, 106631, Control_c, 0, 64, 92
1, 106645, Control_c, 0, 64, 92
1, 106660, Control_c, 0, 64, 93
1, 106675, Control_c, 0, 64, 94
1, 106690, Control_c, 0, 64, 95
1, 106705, Control_c, 0, 64, 96
1, 106719, Control_c, 0, 64, 98
1, 106734, Control_c, 0, 64, 98
1, 106749, Control_c, 0, 64, 99
1, 106763, Control_c, 0, 64, 100
1, 106778, Control_c, 0, 64, 101
1, 106793, Control_c, 0, 64, 102
1, 106808, Control_c, 0, 64, 103
1, 106823, Control_c, 0, 64, 105
1, 106837, Control_c, 0, 64, 106
1, 106852, Control_c, 0, 64, 107
1, 106867, Control_c, 0, 64, 107
1, 106870, Note_off_c, 0, 57, 53
1, 106882, Control_c, 0, 64, 109
1, 106897, Control_c, 0, 64, 110
1, 106912, Control_c, 0, 64, 112
1, 106927, Control_c, 0, 64, 114
1, 106942, Control_c, 0, 64, 115
1, 106956, Control_c, 0, 64, 117
1, 106971, Control_c, 0, 64, 122
1, 106986, Control_c, 0, 64, 127
1, 107993, Note_on_c, 0, 58, 56
1, 108021, Note_on_c, 0, 54, 35
1, 108031, Control_c, 0, 64, 122
1, 108046, Control_c, 0, 64, 114
1, 108060, Control_c, 0, 64, 107
1, 108076, Control_c, 0, 64, 101
1, 108098, Control_c, 0, 64, 94
1, 108113, Control_c, 0, 64, 88
1, 108128, Control_c, 0, 64, 81
1, 108143, Control_c, 0, 64, 74
1, 108158, Control_c, 0, 64, 66
1, 108173, Control_c, 0, 64, 61
1, 108188, Control_c, 0, 64, 56
1, 108203, Control_c, 0, 64, 56
1, 108217, Control_c, 0, 64, 59
1, 108232, Control_c, 0, 64, 62
1, 108247, Control_c, 0, 64, 66
1, 108262, Control_c, 0, 64, 70
1, 108277, Control_c, 0, 64, 80
1, 108292, Control_c, 0, 64, 94
1, 108307, Control_c, 0, 64, 117
1, 108322, Control_c, 0, 64, 127
1, 108699, Note_on_c, 0, 49, 24
1, 108769, Note_on_c, 0, 61, 35
1, 108823, Note_off_c, 0, 54, 41
1, 108861, Note_off_c, 0, 49, 35
1, 109139, Note_on_c, 0, 37, 40
1, 109212, Note_on_c, 0, 70, 47
1, 109273, Note_off_c, 0, 61, 54
1, 109298, Note_off_c, 0, 37, 54
1, 109508, Note_on_c, 0, 49, 28
1, 109508, Note_on_c, 0, 61, 37
1, 109526, Note_off_c, 0, 58, 57
1, 109621, Note_off_c, 0, 70, 38
1, 109768, Note_on_c, 0, 56, 56
1, 109779, Note_on_c, 0, 53, 33
1, 109818, Control_c, 0, 64, 93
1, 109833, Control_c, 0, 64, 74
1, 109835, Note_off_c, 0, 61, 60
1, 109848, Control_c, 0, 64, 64
1, 109862, Control_c, 0, 64, 59
1, 109877, Control_c, 0, 64, 60
1, 109884, Note_off_c, 0, 49, 41
1, 109892, Control_c, 0, 64, 62
1, 109907, Control_c, 0, 64, 65
1, 109922, Control_c, 0, 64, 71
1, 109936, Control_c, 0, 64, 83
1, 109951, Control_c, 0, 64, 127
1, 110023, Note_on_c, 0, 49, 27
1, 110024, Note_off_c, 0, 53, 41
1, 110041, Note_on_c, 0, 61, 35
1, 110087, Note_off_c, 0, 56, 63
1, 110314, Note_on_c, 0, 56, 22
1, 110316, Note_on_c, 0, 59, 66
1, 110373, Control_c, 0, 64, 96
1, 110388, Control_c, 0, 64, 76
1, 110394, Note_off_c, 0, 61, 57
1, 110402, Control_c, 0, 64, 64
1, 110417, Control_c, 0, 64, 57
1, 110432, Control_c, 0, 64, 58
1, 110447, Control_c, 0, 64, 63
1, 110462, Control_c, 0, 64, 68
1, 110477, Poly_aftertouch_c, 0, 66, 0
1, 110477, Control_c, 0, 64, 78
1, 110492, Control_c, 0, 64, 99
1, 110498, Note_off_c, 0, 49, 47
1, 110506, Control_c, 0, 64, 127
1, 110624, Note_on_c, 0, 49, 38
1, 110638, Note_off_c, 0, 56, 50
1, 110659, Note_on_c, 0, 61, 34
1, 110680, Note_off_c, 0, 49, 62
1, 110823, Note_on_c, 0, 37, 47
1, 110840, Note_on_c, 0, 71, 58
1, 110853, Note_off_c, 0, 61, 49
1, 110905, Note_off_c, 0, 37, 55
1, 111006, Note_off_c, 0, 71, 56
1, 111028, Note_off_c, 0, 59, 61
1, 111036, Note_on_c, 0, 61, 44
1, 111064, Note_on_c, 0, 49, 40
1, 111291, Note_on_c, 0, 58, 64
1, 111298, Note_on_c, 0, 54, 36
1, 111338, Note_off_c, 0, 61, 55
1, 111345, Control_c, 0, 64, 103
1, 111359, Control_c, 0, 64, 84
1, 111374, Control_c, 0, 64, 71
1, 111389, Control_c, 0, 64, 63
1, 111404, Control_c, 0, 64, 57
1, 111419, Control_c, 0, 64, 59
1, 111434, Control_c, 0, 64, 63
1, 111449, Control_c, 0, 64, 70
1, 111464, Control_c, 0, 64, 80
1, 111464, Note_off_c, 0, 49, 42
1, 111479, Control_c, 0, 64, 104
1, 111493, Control_c, 0, 64, 127
1, 111582, Note_on_c, 0, 61, 42
1, 111588, Note_off_c, 0, 58, 61
1, 111607, Note_off_c, 0, 54, 42
1, 111610, Note_on_c, 0, 49, 27
1, 111961, Note_on_c, 0, 54, 59
1, 111966, Note_on_c, 0, 51, 30
1, 112019, Control_c, 0, 64, 109
1, 112030, Note_off_c, 0, 61, 53
1, 112033, Control_c, 0, 64, 94
1, 112048, Control_c, 0, 64, 86
1, 112063, Control_c, 0, 64, 78
1, 112078, Control_c, 0, 64, 70
1, 112093, Control_c, 0, 64, 60
1, 112108, Control_c, 0, 64, 43
1, 112122, Control_c, 0, 64, 28
1, 112138, Control_c, 0, 64, 27
1, 112153, Control_c, 0, 64, 36
1, 112163, Note_off_c, 0, 49, 40
1, 112168, Control_c, 0, 64, 52
1, 112182, Control_c, 0, 64, 63
1, 112197, Control_c, 0, 64, 68
1, 112212, Control_c, 0, 64, 75
1, 112227, Control_c, 0, 64, 90
1, 112242, Control_c, 0, 64, 127
1, 112371, Note_on_c, 0, 61, 33
1, 112373, Note_on_c, 0, 49, 22
1, 112415, Note_off_c, 0, 49, 55
1, 112415, Note_off_c, 0, 51, 41
1, 112593, Note_on_c, 0, 66, 39
1, 112611, Note_on_c, 0, 37, 38
1, 112665, Note_off_c, 0, 61, 40
1, 112739, Note_off_c, 0, 37, 39
1, 112868, Note_on_c, 0, 61, 41
1, 112877, Note_off_c, 0, 54, 45
1, 112886, Note_on_c, 0, 49, 22
1, 112947, Note_off_c, 0, 49, 53
1, 113011, Note_on_c, 0, 54, 57
1, 113012, Note_on_c, 0, 51, 35
1, 113015, Note_off_c, 0, 61, 58
1, 113031, Note_off_c, 0, 66, 19
1, 113258, Note_on_c, 0, 56, 51
1, 113261, Note_on_c, 0, 53, 35
1, 113276, Note_off_c, 0, 54, 38
1, 113287, Control_c, 0, 64, 117
1, 113302, Control_c, 0, 64, 98
1, 113317, Control_c, 0, 64, 87
1, 113339, Control_c, 0, 64, 78
1, 113354, Control_c, 0, 64, 69
1, 113368, Control_c, 0, 64, 60
1, 113370, Note_off_c, 0, 51, 39
1, 113383, Control_c, 0, 64, 43
1, 113398, Control_c, 0, 64, 0
1, 113428, Control_c, 0, 64, 13
1, 113443, Control_c, 0, 64, 40
1, 113458, Control_c, 0, 64, 56
1, 113472, Control_c, 0, 64, 63
1, 113487, Control_c, 0, 64, 67
1, 113502, Control_c, 0, 64, 72
1, 113517, Control_c, 0, 64, 79
1, 113531, Control_c, 0, 64, 92
1, 113546, Control_c, 0, 64, 127
1, 113705, Note_on_c, 0, 49, 17
1, 113720, Note_on_c, 0, 61, 36
1, 113816, Note_off_c, 0, 53, 42
1, 113839, Note_off_c, 0, 56, 38
1, 114326, Note_on_c, 0, 58, 45
1, 114334, Note_on_c, 0, 54, 37
1, 114450, Note_off_c, 0, 61, 41
1, 114458, Control_c, 0, 64, 102
1, 114473, Control_c, 0, 64, 85
1, 114488, Control_c, 0, 64, 73
1, 114502, Control_c, 0, 64, 64
1, 114516, Note_off_c, 0, 49, 41
1, 114517, Control_c, 0, 64, 50
1, 114533, Control_c, 0, 64, 38
1, 114548, Control_c, 0, 64, 36
1, 114563, Control_c, 0, 64, 41
1, 114577, Control_c, 0, 64, 51
1, 114592, Control_c, 0, 64, 59
1, 114607, Control_c, 0, 64, 64
1, 114622, Control_c, 0, 64, 68
1, 114637, Control_c, 0, 64, 72
1, 114651, Control_c, 0, 64, 80
1, 114666, Control_c, 0, 64, 91
1, 114681, Control_c, 0, 64, 114
1, 114696, Control_c, 0, 64, 127
1, 114862, Note_on_c, 0, 49, 25
1, 114871, Note_on_c, 0, 61, 39
1, 115182, Note_on_c, 0, 42, 41
1, 115247, Note_on_c, 0, 70, 48
1, 115361, Note_off_c, 0, 61, 56
1, 115370, Note_off_c, 0, 49, 41
1, 115494, Note_on_c, 0, 49, 42
1, 115500, Note_on_c, 0, 61, 51
1, 115808, Note_off_c, 0, 49, 57
1, 115838, Note_off_c, 0, 61, 60
1, 116011, Poly_aftertouch_c, 0, 68, 127
1, 116082, Note_on_c, 0, 49, 30
1, 116106, Note_on_c, 0, 61, 39
1, 116147, Note_off_c, 0, 54, 41
1, 116163, Note_off_c, 0, 58, 46
1, 116215, Note_off_c, 0, 42, 37
1, 116295, Note_off_c, 0, 61, 35
1, 116299, Note_off_c, 0, 70, 39
1, 116335, Poly_aftertouch_c, 0, 68, 0
1, 116544, Note_on_c, 0, 58, 32
1, 116562, Note_on_c, 0, 61, 67
1, 116660, Control_c, 0, 64, 95
1, 116675, Control_c, 0, 64, 77
1, 116690, Control_c, 0, 64, 67
1, 116704, Control_c, 0, 64, 65
1, 116719, Control_c, 0, 64, 70
1, 116734, Control_c, 0, 64, 79
1, 116749, Control_c, 0, 64, 113
1, 116764, Control_c, 0, 64, 127
1, 116824, Note_off_c, 0, 49, 61
1, 117004, Note_on_c, 0, 49, 28
1, 117020, Note_on_c, 0, 66, 36
1, 117055, Note_off_c, 0, 58, 41
1, 117318, Note_on_c, 0, 73, 48
1, 117323, Note_on_c, 0, 42, 41
1, 117390, Note_off_c, 0, 66, 38
1, 117425, Note_off_c, 0, 49, 51
1, 117548, Note_on_c, 0, 66, 44
1, 117554, Note_on_c, 0, 49, 41
1, 117600, Note_off_c, 0, 61, 60
1, 117732, Note_off_c, 0, 73, 37
1, 117735, Note_on_c, 0, 59, 72
1, 117762, Note_on_c, 0, 56, 39
1, 117788, Note_off_c, 0, 66, 57
1, 117799, Note_off_c, 0, 49, 56
1, 117976, Note_off_c, 0, 56, 59
1, 117982, Note_on_c, 0, 49, 30
1, 117983, Note_off_c, 0, 59, 56
1, 117986, Note_on_c, 0, 66, 30
1, 118045, Note_off_c, 0, 42, 40
1, 118331, Note_on_c, 0, 59, 32
1, 118358, Note_on_c, 0, 63, 65
1, 118409, Control_c, 0, 64, 116
1, 118424, Control_c, 0, 64, 89
1, 118427, Note_off_c, 0, 66, 41
1, 118439, Control_c, 0, 64, 71
1, 118454, Control_c, 0, 64, 58
1, 118469, Control_c, 0, 64, 43
1, 118484, Control_c, 0, 64, 47
1, 118499, Control_c, 0, 64, 58
1, 118514, Control_c, 0, 64, 65
1, 118529, Control_c, 0, 64, 72
1, 118544, Control_c, 0, 64, 87
1, 118559, Control_c, 0, 64, 127
1, 118617, Note_off_c, 0, 49, 60
1, 118707, Note_off_c, 0, 59, 37
1, 118766, Note_on_c, 0, 66, 45
1, 118769, Note_on_c, 0, 49, 37
1, 118977, Note_on_c, 0, 75, 47
1, 118991, Note_on_c, 0, 42, 36
1, 119006, Note_off_c, 0, 49, 33
1, 119014, Note_off_c, 0, 66, 55
1, 119156, Note_off_c, 0, 63, 58
1, 119195, Note_off_c, 0, 75, 48
1, 119203, Note_on_c, 0, 66, 37
1, 119214, Note_on_c, 0, 49, 40
1, 119416, Note_on_c, 0, 61, 59
1, 119435, Control_c, 0, 64, 103
1, 119435, Note_on_c, 0, 58, 42
1, 119449, Control_c, 0, 64, 82
1, 119464, Note_off_c, 0, 66, 57
1, 119464, Control_c, 0, 64, 69
1, 119479, Control_c, 0, 64, 61
1, 119494, Control_c, 0, 64, 57
1, 119509, Control_c, 0, 64, 60
1, 119518, Note_off_c, 0, 49, 60
1, 119523, Control_c, 0, 64, 64
1, 119538, Control_c, 0, 64, 70
1, 119553, Control_c, 0, 64, 80
1, 119568, Control_c, 0, 64, 101
1, 119583, Control_c, 0, 64, 127
1, 119634, Note_off_c, 0, 58, 60
1, 119670, Note_on_c, 0, 66, 45
1, 119677, Note_on_c, 0, 49, 36
1, 119697, Note_off_c, 0, 61, 61
1, 119706, Note_off_c, 0, 66, 62
1, 119962, Note_on_c, 0, 51, 41
1, 119971, Note_on_c, 0, 54, 69
1, 120027, Control_c, 0, 64, 115
1, 120041, Control_c, 0, 64, 86
1, 120056, Control_c, 0, 64, 70
1, 120077, Control_c, 0, 64, 59
1, 120092, Control_c, 0, 64, 48
1, 120107, Control_c, 0, 64, 49
1, 120123, Control_c, 0, 64, 57
1, 120138, Control_c, 0, 64, 64
1, 120140, Note_off_c, 0, 49, 45
1, 120152, Control_c, 0, 64, 69
1, 120167, Control_c, 0, 64, 80
1, 120182, Control_c, 0, 64, 106
1, 120197, Control_c, 0, 64, 127
1, 120302, Note_on_c, 0, 61, 47
1, 120315, Note_on_c, 0, 49, 32
1, 120317, Note_off_c, 0, 42, 42
1, 120427, Note_off_c, 0, 51, 39
1, 120524, Note_on_c, 0, 66, 43
1, 120530, Note_off_c, 0, 61, 50
1, 120534, Note_off_c, 0, 49, 39
1, 120537, Note_on_c, 0, 42, 45
1, 120564, Note_off_c, 0, 54, 37
1, 120758, Note_on_c, 0, 61, 49
1, 120760, Note_on_c, 0, 49, 33
1, 120912, Note_on_c, 0, 51, 45
1, 120913, Note_on_c, 0, 54, 69
1, 120925, Note_off_c, 0, 49, 33
1, 120964, Note_off_c, 0, 61, 52
1, 121033, Note_off_c, 0, 54, 63
1, 121171, Note_on_c, 0, 56, 63
1, 121177, Note_on_c, 0, 53, 41
1, 121226, Control_c, 0, 64, 97
1, 121241, Control_c, 0, 64, 80
1, 121256, Control_c, 0, 64, 67
1, 121268, Note_off_c, 0, 51, 40
1, 121271, Control_c, 0, 64, 54
1, 121286, Control_c, 0, 64, 9
1, 121289, Note_off_c, 0, 66, 41
1, 121301, Control_c, 0, 64, 0
1, 121360, Control_c, 0, 64, 28
1, 121375, Control_c, 0, 64, 55
1, 121390, Control_c, 0, 64, 64
1, 121405, Control_c, 0, 64, 70
1, 121419, Control_c, 0, 64, 78
1, 121434, Control_c, 0, 64, 92
1, 121449, Control_c, 0, 64, 127
1, 121567, Note_on_c, 0, 49, 32
1, 121573, Note_on_c, 0, 61, 45
1, 121630, Note_off_c, 0, 53, 42
1, 121754, Note_off_c, 0, 56, 59
1, 121990, Note_on_c, 0, 58, 59
1, 122007, Note_on_c, 0, 54, 34
1, 122064, Control_c, 0, 64, 115
1, 122079, Control_c, 0, 64, 99
1, 122094, Control_c, 0, 64, 84
1, 122108, Control_c, 0, 64, 69
1, 122123, Note_off_c, 0, 61, 40
1, 122123, Control_c, 0, 64, 56
1, 122138, Control_c, 0, 64, 26
1, 122153, Control_c, 0, 64, 0
1, 122168, Control_c, 0, 64, 31
1, 122183, Control_c, 0, 64, 51
1, 122198, Note_off_c, 0, 49, 42
1, 122198, Control_c, 0, 64, 62
1, 122213, Control_c, 0, 64, 68
1, 122228, Control_c, 0, 64, 77
1, 122242, Control_c, 0, 64, 103
1, 122257, Control_c, 0, 64, 127
1, 122342, Note_on_c, 0, 61, 53
1, 122343, Note_on_c, 0, 49, 27
1, 122458, Note_off_c, 0, 42, 35
1, 122597, Note_on_c, 0, 42, 35
1, 122731, Note_on_c, 0, 70, 63
1, 122752, Note_off_c, 0, 49, 34
1, 122881, Note_off_c, 0, 61, 59
1, 123295, Note_on_c, 0, 49, 36
1, 123312, Note_on_c, 0, 61, 55
1, 123399, Control_c, 0, 64, 117
1, 123414, Control_c, 0, 64, 86
1, 123417, Note_off_c, 0, 70, 56
1, 123429, Control_c, 0, 64, 69
1, 123444, Control_c, 0, 64, 57
1, 123459, Control_c, 0, 64, 41
1, 123474, Control_c, 0, 64, 44
1, 123488, Control_c, 0, 64, 53
1, 123503, Control_c, 0, 64, 60
1, 123518, Control_c, 0, 64, 64
1, 123533, Control_c, 0, 64, 69
1, 123548, Control_c, 0, 64, 77
1, 123562, Control_c, 0, 64, 88
1, 123577, Control_c, 0, 64, 102
1, 123592, Control_c, 0, 64, 127
1, 123700, Note_off_c, 0, 42, 36
1, 124577, Poly_aftertouch_c, 0, 68, 127
1, 124714, Note_on_c, 0, 62, 38
1, 124720, Note_on_c, 0, 50, 25
1, 124807, Control_c, 0, 64, 103
1, 124822, Control_c, 0, 64, 90
1, 124836, Control_c, 0, 64, 81
1, 124851, Control_c, 0, 64, 72
1, 124854, Note_off_c, 0, 61, 26
1, 124866, Control_c, 0, 64, 64
1, 124878, Note_off_c, 0, 49, 42
1, 124881, Control_c, 0, 64, 51
1, 124890, Poly_aftertouch_c, 0, 68, 0
1, 124896, Control_c, 0, 64, 25
1, 124912, Control_c, 0, 64, 0
1, 124927, Control_c, 0, 64, 9
1, 124941, Control_c, 0, 64, 31
1, 124956, Control_c, 0, 64, 48
1, 124971, Control_c, 0, 64, 59
1, 124986, Control_c, 0, 64, 64
1, 125001, Control_c, 0, 64, 67
1, 125015, Control_c, 0, 64, 72
1, 125030, Control_c, 0, 64, 79
1, 125045, Control_c, 0, 64, 89
1, 125057, Note_off_c, 0, 58, 27
1, 125060, Control_c, 0, 64, 107
1, 125074, Control_c, 0, 64, 127
1, 125449, Note_off_c, 0, 54, 42
1, 125677, Note_on_c, 0, 58, 58
1, 125702, Poly_aftertouch_c, 0, 55, 127
1, 125793, Note_off_c, 0, 62, 57
1, 125838, Control_c, 0, 64, 112
1, 125853, Control_c, 0, 64, 78
1, 125868, Control_c, 0, 64, 56
1, 125882, Control_c, 0, 64, 0
1, 125956, Note_off_c, 0, 50, 31
1, 125972, Control_c, 0, 64, 36
1, 125987, Control_c, 0, 64, 69
1, 126002, Control_c, 0, 64, 127
1, 126242, Note_on_c, 0, 51, 37
1, 126255, Note_on_c, 0, 63, 41
1, 126377, Poly_aftertouch_c, 0, 55, 0
1, 126388, Note_off_c, 0, 51, 53
1, 126575, Note_on_c, 0, 39, 38
1, 126639, Note_on_c, 0, 70, 49
1, 126733, Note_off_c, 0, 63, 59
1, 126746, Note_off_c, 0, 39, 38
1, 126897, Note_on_c, 0, 63, 38
1, 126906, Note_on_c, 0, 51, 41
1, 126986, Note_off_c, 0, 58, 61
1, 127287, Note_on_c, 0, 61, 56
1, 127313, Note_on_c, 0, 58, 35
1, 127377, Note_off_c, 0, 63, 55
1, 127395, Control_c, 0, 64, 96
1, 127410, Control_c, 0, 64, 71
1, 127425, Control_c, 0, 64, 54
1, 127440, Control_c, 0, 64, 41
1, 127454, Control_c, 0, 64, 54
1, 127469, Control_c, 0, 64, 63
1, 127484, Control_c, 0, 64, 70
1, 127499, Control_c, 0, 64, 84
1, 127514, Control_c, 0, 64, 127
1, 127559, Note_off_c, 0, 51, 51
1, 127587, Poly_aftertouch_c, 0, 68, 127
1, 127721, Note_on_c, 0, 51, 34
1, 127742, Note_off_c, 0, 70, 1
1, 127748, Note_on_c, 0, 63, 37
1, 127756, Poly_aftertouch_c, 0, 68, 0
1, 127995, Note_on_c, 0, 73, 52
1, 128006, Note_on_c, 0, 44, 35
1, 128065, Note_off_c, 0, 51, 40
1, 128082, Note_off_c, 0, 63, 53
1, 128215, Note_on_c, 0, 63, 51
1, 128220, Note_off_c, 0, 58, 56
1, 128222, Note_on_c, 0, 51, 31
1, 128269, Note_off_c, 0, 61, 60
1, 128312, Note_off_c, 0, 73, 59
1, 128435, Note_on_c, 0, 59, 70
1, 128458, Note_on_c, 0, 56, 36
1, 128492, Control_c, 0, 64, 96
1, 128507, Control_c, 0, 64, 78
1, 128518, Note_off_c, 0, 63, 54
1, 128522, Control_c, 0, 64, 69
1, 128552, Control_c, 0, 64, 75
1, 128565, Note_off_c, 0, 51, 40
1, 128566, Control_c, 0, 64, 86
1, 128581, Control_c, 0, 64, 127
1, 128628, Note_off_c, 0, 44, 40
1, 128685, Note_on_c, 0, 63, 46
1, 128706, Note_on_c, 0, 51, 34
1, 128732, Note_off_c, 0, 59, 62
1, 128744, Note_off_c, 0, 63, 58
1, 128781, Note_off_c, 0, 56, 42
1, 129013, Note_on_c, 0, 56, 69
1, 129038, Note_on_c, 0, 47, 33
1, 129078, Control_c, 0, 64, 110
1, 129093, Control_c, 0, 64, 78
1, 129108, Control_c, 0, 64, 64
1, 129123, Control_c, 0, 64, 53
1, 129137, Control_c, 0, 64, 57
1, 129152, Control_c, 0, 64, 63
1, 129156, Note_off_c, 0, 51, 34
1, 129167, Control_c, 0, 64, 68
1, 129182, Control_c, 0, 64, 76
1, 129197, Control_c, 0, 64, 93
1, 129212, Control_c, 0, 64, 127
1, 129286, Note_off_c, 0, 47, 50
1, 129301, Note_off_c, 0, 56, 62
1, 129397, Note_on_c, 0, 59, 75
1, 129441, Note_on_c, 0, 56, 46
1, 129555, Note_off_c, 0, 59, 64
1, 129638, Note_off_c, 0, 56, 33
1, 129686, Note_on_c, 0, 61, 68
1, 129698, Note_on_c, 0, 58, 48
1, 129746, Control_c, 0, 64, 96
1, 129760, Control_c, 0, 64, 79
1, 129775, Control_c, 0, 64, 62
1, 129790, Control_c, 0, 64, 17
1, 129812, Control_c, 0, 64, 0
1, 129886, Control_c, 0, 64, 51
1, 129901, Control_c, 0, 64, 62
1, 129916, Control_c, 0, 64, 69
1, 129930, Control_c, 0, 64, 78
1, 129945, Control_c, 0, 64, 95
1, 129960, Control_c, 0, 64, 127
1, 129993, Note_on_c, 0, 49, 43
1, 130020, Note_on_c, 0, 66, 45
1, 130111, Note_off_c, 0, 58, 54
1, 130193, Note_on_c, 0, 42, 51
1, 130202, Note_on_c, 0, 73, 72
1, 130228, Note_off_c, 0, 49, 48
1, 130276, Note_off_c, 0, 66, 54
1, 130378, Note_on_c, 0, 49, 52
1, 130397, Note_off_c, 0, 42, 58
1, 130398, Note_on_c, 0, 66, 69
1, 130437, Note_off_c, 0, 49, 61
1, 130486, Poly_aftertouch_c, 0, 68, 127
1, 130506, Note_off_c, 0, 61, 60
1, 130664, Note_on_c, 0, 61, 50
1, 130714, Note_off_c, 0, 73, 54
1, 130723, Note_on_c, 0, 64, 79
1, 130798, Control_c, 0, 64, 79
1, 130801, Note_off_c, 0, 66, 59
1, 130813, Control_c, 0, 64, 58
1, 130818, Poly_aftertouch_c, 0, 68, 0
1, 130827, Control_c, 0, 64, 28
1, 130842, Control_c, 0, 64, 33
1, 130857, Control_c, 0, 64, 53
1, 130871, Control_c, 0, 64, 64
1, 130886, Control_c, 0, 64, 73
1, 130901, Control_c, 0, 64, 114
1, 130916, Control_c, 0, 64, 127
1, 131063, Note_on_c, 0, 54, 45
1, 131068, Note_on_c, 0, 66, 46
1, 131186, Poly_aftertouch_c, 0, 70, 127
1, 131258, Note_on_c, 0, 76, 72
1, 131262, Note_on_c, 0, 47, 52
1, 131313, Note_off_c, 0, 66, 57
1, 131337, Note_off_c, 0, 54, 60
1, 131448, Poly_aftertouch_c, 0, 70, 0
1, 131464, Note_on_c, 0, 66, 61
1, 131468, Note_on_c, 0, 54, 57
1, 131486, Poly_aftertouch_c, 0, 70, 127
1, 131488, Note_off_c, 0, 61, 59
1, 131497, Note_off_c, 0, 64, 62
1, 131520, Note_off_c, 0, 76, 56
1, 131624, Poly_aftertouch_c, 0, 70, 0
1, 131726, Note_on_c, 0, 59, 48
1, 131735, Note_on_c, 0, 63, 80
1, 131783, Control_c, 0, 64, 105
1, 131798, Control_c, 0, 64, 73
1, 131801, Note_off_c, 0, 66, 49
1, 131813, Control_c, 0, 64, 51
1, 131828, Control_c, 0, 64, 0
1, 131855, Note_off_c, 0, 54, 55
1, 131872, Control_c, 0, 64, 37
1, 131887, Control_c, 0, 64, 58
1, 131901, Control_c, 0, 64, 66
1, 131916, Control_c, 0, 64, 82
1, 131931, Control_c, 0, 64, 127
1, 132018, Note_on_c, 0, 54, 44
1, 132041, Note_on_c, 0, 66, 56
1, 132052, Note_off_c, 0, 59, 57
1, 132101, Note_off_c, 0, 47, 35
1, 132117, Note_off_c, 0, 63, 60
1, 132155, Note_off_c, 0, 66, 61
1, 132479, Note_on_c, 0, 66, 82
1, 132499, Note_on_c, 0, 63, 47
1, 132591, Control_c, 0, 64, 80
1, 132606, Control_c, 0, 64, 57
1, 132621, Control_c, 0, 64, 0
1, 132659, Note_off_c, 0, 54, 60
1, 132665, Control_c, 0, 64, 48
1, 132680, Control_c, 0, 64, 63
1, 132695, Control_c, 0, 64, 77
1, 132710, Control_c, 0, 64, 127
1, 132934, Note_on_c, 0, 57, 38
1, 132939, Note_on_c, 0, 69, 67
1, 133202, Note_on_c, 0, 48, 48
1, 133257, Note_on_c, 0, 78, 82
1, 133332, Note_off_c, 0, 57, 60
1, 133390, Note_off_c, 0, 69, 35
1, 133474, Note_on_c, 0, 57, 51
1, 133483, Note_on_c, 0, 69, 87
1, 133514, Note_off_c, 0, 66, 60
1, 133545, Note_off_c, 0, 63, 42
1, 133642, Note_off_c, 0, 78, 53
1, 133758, Note_on_c, 0, 63, 54
1, 133844, Note_on_c, 0, 66, 90
1, 133895, Control_c, 0, 64, 77
1, 133903, Note_off_c, 0, 69, 58
1, 133910, Control_c, 0, 64, 60
1, 133925, Control_c, 0, 64, 45
1, 133940, Control_c, 0, 64, 53
1, 133955, Control_c, 0, 64, 63
1, 133969, Control_c, 0, 64, 73
1, 133984, Control_c, 0, 64, 103
1, 133999, Control_c, 0, 64, 127
1, 134020, Note_off_c, 0, 57, 63
1, 134157, Note_on_c, 0, 69, 74
1, 134158, Note_on_c, 0, 57, 52
1, 134217, Note_off_c, 0, 48, 35
1, 134345, Note_on_c, 0, 48, 61
1, 134376, Note_on_c, 0, 78, 82
1, 134443, Note_off_c, 0, 69, 61
1, 134484, Note_off_c, 0, 57, 63
1, 134598, Note_on_c, 0, 57, 70
1, 134601, Note_on_c, 0, 69, 85
1, 134664, Note_off_c, 0, 66, 54
1, 134694, Note_off_c, 0, 63, 32
1, 134694, Note_off_c, 0, 78, 61
1, 134708, Note_off_c, 0, 48, 54
1, 134753, Note_off_c, 0, 69, 62
1, 135262, Note_off_c, 0, 57, 60
1, 135289, Note_on_c, 0, 66, 93
1, 135300, Note_on_c, 0, 63, 61
1, 135456, Note_off_c, 0, 63, 60
1, 135484, Note_off_c, 0, 66, 60
1, 135535, Note_on_c, 0, 69, 89
1, 135547, Note_on_c, 0, 66, 57
1, 135871, Note_off_c, 0, 69, 0
1, 135871, Note_on_c, 0, 69, 4
1, 136609, Control_c, 0, 64, 119
1, 136624, Control_c, 0, 64, 116
1, 136638, Control_c, 0, 64, 115
1, 136653, Control_c, 0, 64, 112
1, 136668, Control_c, 0, 64, 107
1, 136683, Control_c, 0, 64, 102
1, 136697, Control_c, 0, 64, 101
1, 136712, Control_c, 0, 64, 100
1, 136727, Control_c, 0, 64, 100
1, 136757, Control_c, 0, 64, 99
1, 136772, Control_c, 0, 64, 98
1, 136786, Control_c, 0, 64, 96
1, 136801, Control_c, 0, 64, 96
1, 136861, Control_c, 0, 64, 95
1, 136876, Control_c, 0, 64, 94
1, 136891, Control_c, 0, 64, 93
1, 136906, Control_c, 0, 64, 91
1, 136921, Control_c, 0, 64, 90
1, 136935, Control_c, 0, 64, 89
1, 136950, Control_c, 0, 64, 88
1, 136965, Control_c, 0, 64, 86
1, 136980, Control_c, 0, 64, 84
1, 136995, Control_c, 0, 64, 82
1, 137069, Control_c, 0, 64, 82
1, 137099, Control_c, 0, 64, 81
1, 137113, Control_c, 0, 64, 81
1, 137128, Control_c, 0, 64, 80
1, 137143, Control_c, 0, 64, 80
1, 137158, Control_c, 0, 64, 79
1, 137187, Control_c, 0, 64, 79
1, 137202, Control_c, 0, 64, 78
1, 137217, Control_c, 0, 64, 77
1, 137276, Control_c, 0, 64, 77
1, 137387, Control_c, 0, 64, 76
1, 137417, Control_c, 0, 64, 75
1, 137432, Control_c, 0, 64, 74
1, 137461, Control_c, 0, 64, 74
1, 137491, Control_c, 0, 64, 73
1, 137506, Control_c, 0, 64, 72
1, 137520, Control_c, 0, 64, 71
1, 137535, Control_c, 0, 64, 71
1, 137550, Control_c, 0, 64, 70
1, 137565, Control_c, 0, 64, 69
1, 137580, Control_c, 0, 64, 68
1, 137609, Control_c, 0, 64, 68
1, 137654, Control_c, 0, 64, 67
1, 137714, Control_c, 0, 64, 67
1, 137788, Control_c, 0, 64, 66
1, 137818, Control_c, 0, 64, 66
1, 137892, Control_c, 0, 64, 65
1, 137907, Control_c, 0, 64, 65
1, 137936, Control_c, 0, 64, 64
1, 137981, Control_c, 0, 64, 64
1, 137996, Control_c, 0, 64, 63
1, 138122, Control_c, 0, 64, 63
1, 138211, Control_c, 0, 64, 62
1, 138797, Control_c, 0, 64, 62
1, 139241, Control_c, 0, 64, 61
1, 139576, Control_c, 0, 64, 61
1, 139664, Control_c, 0, 64, 60
1, 140125, Control_c, 0, 64, 61
1, 140325, Control_c, 0, 64, 61
1, 140546, Control_c, 0, 64, 62
1, 140843, Note_on_c, 0, 77, 28
1, 140843, Control_c, 0, 64, 62
1, 140888, Control_c, 0, 64, 63
1, 140933, Control_c, 0, 64, 63
1, 140977, Control_c, 0, 64, 64
1, 141022, Control_c, 0, 64, 65
1, 141043, Control_c, 0, 64, 66
1, 141058, Control_c, 0, 64, 66
1, 141073, Control_c, 0, 64, 67
1, 141088, Control_c, 0, 64, 69
1, 141103, Control_c, 0, 64, 70
1, 141117, Control_c, 0, 64, 72
1, 141132, Control_c, 0, 64, 75
1, 141147, Control_c, 0, 64, 77
1, 141161, Control_c, 0, 64, 78
1, 141176, Control_c, 0, 64, 80
1, 141191, Control_c, 0, 64, 82
1, 141206, Control_c, 0, 64, 84
1, 141221, Control_c, 0, 64, 86
1, 141235, Control_c, 0, 64, 87
1, 141280, Control_c, 0, 64, 88
1, 141295, Control_c, 0, 64, 90
1, 141309, Control_c, 0, 64, 91
1, 141324, Control_c, 0, 64, 92
1, 141339, Control_c, 0, 64, 93
1, 141353, Control_c, 0, 64, 95
1, 141368, Control_c, 0, 64, 98
1, 141383, Control_c, 0, 64, 99
1, 141398, Control_c, 0, 64, 101
1, 141428, Control_c, 0, 64, 102
1, 141434, Note_on_c, 0, 78, 41
1, 141443, Control_c, 0, 64, 104
1, 141457, Control_c, 0, 64, 108
1, 141472, Control_c, 0, 64, 110
1, 141487, Control_c, 0, 64, 112
1, 141502, Control_c, 0, 64, 114
1, 141517, Control_c, 0, 64, 115
1, 141606, Control_c, 0, 64, 114
1, 141621, Control_c, 0, 64, 113
1, 141695, Note_off_c, 0, 77, 17
1, 141725, Control_c, 0, 64, 114
1, 141740, Control_c, 0, 64, 115
1, 141755, Control_c, 0, 64, 117
1, 141770, Control_c, 0, 64, 127
1, 141794, Note_on_c, 0, 80, 36
1, 142041, Note_on_c, 0, 81, 43
1, 142044, Note_off_c, 0, 66, 31
1, 142047, Note_off_c, 0, 69, 42
1, 142133, Note_off_c, 0, 78, 26
1, 142229, Note_off_c, 0, 80, 40
1, 142232, Note_off_c, 0, 81, 60
1, 142245, Note_on_c, 0, 74, 41
1, 142442, Note_on_c, 0, 73, 49
1, 142444, Control_c, 0, 64, 120
1, 142458, Control_c, 0, 64, 115
1, 142474, Control_c, 0, 64, 109
1, 142489, Control_c, 0, 64, 105
1, 142504, Control_c, 0, 64, 103
1, 142517, Note_off_c, 0, 74, 35
1, 142519, Control_c, 0, 64, 103
1, 142541, Control_c, 0, 64, 102
1, 142555, Control_c, 0, 64, 102
1, 142570, Control_c, 0, 64, 101
1, 142614, Control_c, 0, 64, 102
1, 142635, Note_on_c, 0, 65, 46
1, 142674, Control_c, 0, 64, 101
1, 142689, Control_c, 0, 64, 100
1, 142704, Control_c, 0, 64, 98
1, 142718, Control_c, 0, 64, 94
1, 142733, Control_c, 0, 64, 91
1, 142748, Control_c, 0, 64, 90
1, 142763, Control_c, 0, 64, 89
1, 142793, Control_c, 0, 64, 87
1, 142807, Control_c, 0, 64, 86
1, 142822, Control_c, 0, 64, 84
1, 142837, Control_c, 0, 64, 82
1, 142841, Note_on_c, 0, 72, 48
1, 142844, Note_on_c, 0, 66, 46
1, 142852, Control_c, 0, 64, 81
1, 142867, Control_c, 0, 64, 81
1, 142881, Control_c, 0, 64, 79
1, 142896, Control_c, 0, 64, 77
1, 142911, Control_c, 0, 64, 74
1, 142918, Note_off_c, 0, 73, 56
1, 142919, Note_off_c, 0, 65, 34
1, 142925, Control_c, 0, 64, 73
1, 142970, Control_c, 0, 64, 73
1, 142985, Control_c, 0, 64, 72
1, 143000, Control_c, 0, 64, 70
1, 143014, Control_c, 0, 64, 69
1, 143017, Note_on_c, 0, 68, 46
1, 143073, Control_c, 0, 64, 69
1, 143077, Note_off_c, 0, 66, 49
1, 143088, Control_c, 0, 64, 68
1, 143133, Control_c, 0, 64, 68
1, 143148, Control_c, 0, 64, 67
1, 143163, Control_c, 0, 64, 67
1, 143192, Control_c, 0, 64, 66
1, 143207, Control_c, 0, 64, 66
1, 143216, Note_off_c, 0, 68, 62
1, 143228, Note_on_c, 0, 69, 45
1, 143237, Control_c, 0, 64, 65
1, 143252, Control_c, 0, 64, 65
1, 143289, Control_c, 0, 64, 64
1, 143304, Control_c, 0, 64, 63
1, 143378, Control_c, 0, 64, 63
1, 143443, Note_on_c, 0, 62, 43
1, 143467, Control_c, 0, 64, 62
1, 143510, Note_off_c, 0, 69, 37
1, 143526, Control_c, 0, 64, 62
1, 143555, Control_c, 0, 64, 61
1, 143600, Control_c, 0, 64, 62
1, 143615, Control_c, 0, 64, 63
1, 143629, Control_c, 0, 64, 65
1, 143644, Control_c, 0, 64, 68
1, 143659, Control_c, 0, 64, 73
1, 143674, Control_c, 0, 64, 80
1, 143689, Control_c, 0, 64, 90
1, 143691, Note_on_c, 0, 73, 47
1, 143692, Note_on_c, 0, 61, 46
1, 143693, Note_off_c, 0, 72, 52
1, 143701, Note_off_c, 0, 62, 51
1, 143703, Control_c, 0, 64, 109
1, 143718, Control_c, 0, 64, 127
1, 143762, Note_off_c, 0, 73, 64
1, 143917, Note_off_c, 0, 61, 58
1, 144011, Note_on_c, 0, 53, 45
1, 144432, Note_on_c, 0, 54, 53
1, 144451, Note_on_c, 0, 63, 41
1, 144451, Note_on_c, 0, 72, 44
1, 144452, Note_on_c, 0, 66, 38
1, 144458, Note_on_c, 0, 60, 43
1, 144467, Control_c, 0, 64, 116
1, 144482, Control_c, 0, 64, 105
1, 144497, Control_c, 0, 64, 98
1, 144512, Control_c, 0, 64, 93
1, 144526, Control_c, 0, 64, 87
1, 144534, Note_off_c, 0, 53, 33
1, 144541, Control_c, 0, 64, 82
1, 144556, Control_c, 0, 64, 76
1, 144570, Control_c, 0, 64, 71
1, 144585, Control_c, 0, 64, 67
1, 144600, Control_c, 0, 64, 64
1, 144615, Control_c, 0, 64, 62
1, 144630, Control_c, 0, 64, 60
1, 144644, Control_c, 0, 64, 59
1, 144659, Control_c, 0, 64, 58
1, 144689, Control_c, 0, 64, 57
1, 144748, Control_c, 0, 64, 57
1, 144761, Note_on_c, 0, 56, 52
1, 144763, Control_c, 0, 64, 56
1, 144800, Control_c, 0, 64, 56
1, 144815, Control_c, 0, 64, 55
1, 144841, Note_off_c, 0, 54, 50
1, 144845, Control_c, 0, 64, 54
1, 144859, Control_c, 0, 64, 53
1, 144875, Control_c, 0, 64, 52
1, 144890, Control_c, 0, 64, 52
1, 144905, Control_c, 0, 64, 51
1, 144920, Control_c, 0, 64, 50
1, 144935, Control_c, 0, 64, 50
1, 144949, Control_c, 0, 64, 49
1, 144964, Control_c, 0, 64, 47
1, 144979, Control_c, 0, 64, 45
1, 144994, Control_c, 0, 64, 42
1, 145008, Control_c, 0, 64, 39
1, 145023, Control_c, 0, 64, 36
1, 145038, Control_c, 0, 64, 33
1, 145047, Note_on_c, 0, 57, 58
1, 145053, Control_c, 0, 64, 28
1, 145068, Control_c, 0, 64, 22
1, 145082, Control_c, 0, 64, 0
1, 145195, Note_off_c, 0, 56, 24
1, 145349, Control_c, 0, 64, 9
1, 145364, Control_c, 0, 64, 12
1, 145379, Control_c, 0, 64, 15
1, 145393, Control_c, 0, 64, 16
1, 145408, Control_c, 0, 64, 18
1, 145413, Note_on_c, 0, 48, 58
1, 145423, Control_c, 0, 64, 26
1, 145438, Control_c, 0, 64, 39
1, 145453, Control_c, 0, 64, 50
1, 145467, Control_c, 0, 64, 57
1, 145482, Control_c, 0, 64, 60
1, 145497, Control_c, 0, 64, 62
1, 145501, Note_off_c, 0, 57, 62
1, 145512, Control_c, 0, 64, 65
1, 145535, Control_c, 0, 64, 69
1, 145550, Control_c, 0, 64, 77
1, 145553, Note_off_c, 0, 72, 62
1, 145565, Control_c, 0, 64, 92
1, 145570, Note_off_c, 0, 60, 63
1, 145580, Control_c, 0, 64, 127
1, 145598, Note_off_c, 0, 48, 63
1, 145598, Note_off_c, 0, 63, 58
1, 145613, Note_off_c, 0, 66, 49
1, 145993, Note_on_c, 0, 54, 39
1, 145997, Note_on_c, 0, 49, 43
1, 146082, Note_on_c, 0, 70, 83
1, 146105, Note_on_c, 0, 61, 51
1, 146129, Control_c, 0, 64, 120
1, 146143, Control_c, 0, 64, 89
1, 146158, Control_c, 0, 64, 72
1, 146173, Control_c, 0, 64, 58
1, 146188, Control_c, 0, 64, 35
1, 146203, Control_c, 0, 64, 19
1, 146232, Control_c, 0, 64, 31
1, 146247, Control_c, 0, 64, 50
1, 146262, Control_c, 0, 64, 63
1, 146284, Control_c, 0, 64, 70
1, 146299, Control_c, 0, 64, 81
1, 146313, Control_c, 0, 64, 109
1, 146328, Control_c, 0, 64, 127
1, 146382, Note_off_c, 0, 61, 57
1, 146463, Note_off_c, 0, 54, 47
1, 146619, Note_on_c, 0, 47, 39
1, 146635, Note_on_c, 0, 53, 39
1, 146700, Control_c, 0, 64, 107
1, 146715, Control_c, 0, 64, 92
1, 146724, Note_on_c, 0, 68, 82
1, 146729, Control_c, 0, 64, 82
1, 146739, Note_on_c, 0, 61, 35
1, 146744, Control_c, 0, 64, 77
1, 146752, Note_off_c, 0, 49, 38
1, 146759, Control_c, 0, 64, 72
1, 146773, Control_c, 0, 64, 67
1, 146788, Control_c, 0, 64, 59
1, 146801, Note_off_c, 0, 70, 56
1, 146803, Control_c, 0, 64, 31
1, 146818, Control_c, 0, 64, 0
1, 146877, Control_c, 0, 64, 39
1, 146892, Control_c, 0, 64, 57
1, 146907, Control_c, 0, 64, 64
1, 146921, Control_c, 0, 64, 67
1, 146936, Control_c, 0, 64, 69
1, 146951, Control_c, 0, 64, 72
1, 146966, Control_c, 0, 64, 74
1, 146981, Control_c, 0, 64, 76
1, 146996, Control_c, 0, 64, 77
1, 147011, Control_c, 0, 64, 78
1, 147032, Control_c, 0, 64, 80
1, 147047, Control_c, 0, 64, 82
1, 147062, Control_c, 0, 64, 86
1, 147077, Control_c, 0, 64, 91
1, 147091, Control_c, 0, 64, 98
1, 147106, Control_c, 0, 64, 112
1, 147121, Control_c, 0, 64, 127
1, 147225, Control_c, 0, 64, 112
1, 147229, Note_on_c, 0, 73, 76
1, 147240, Control_c, 0, 64, 98
1, 147254, Control_c, 0, 64, 85
1, 147270, Control_c, 0, 64, 73
1, 147285, Note_off_c, 0, 68, 60
1, 147285, Control_c, 0, 64, 63
1, 147300, Control_c, 0, 64, 59
1, 147315, Control_c, 0, 64, 61
1, 147330, Control_c, 0, 64, 65
1, 147344, Control_c, 0, 64, 71
1, 147359, Control_c, 0, 64, 84
1, 147374, Control_c, 0, 64, 119
1, 147389, Control_c, 0, 64, 127
1, 147503, Note_off_c, 0, 47, 39
1, 147536, Note_off_c, 0, 53, 42
1, 147550, Note_off_c, 0, 61, 38
1, 147567, Note_off_c, 0, 73, 56
1, 147988, Note_on_c, 0, 73, 58
1, 147993, Note_on_c, 0, 61, 32
1, 147994, Note_on_c, 0, 67, 36
1, 147997, Note_on_c, 0, 52, 33
1, 148012, Note_on_c, 0, 64, 40
1, 148015, Note_on_c, 0, 46, 28
1, 148093, Control_c, 0, 64, 96
1, 148108, Control_c, 0, 64, 84
1, 148123, Control_c, 0, 64, 74
1, 148138, Control_c, 0, 64, 67
1, 148153, Control_c, 0, 64, 60
1, 148167, Control_c, 0, 64, 44
1, 148182, Control_c, 0, 64, 0
1, 148226, Control_c, 0, 64, 19
1, 148241, Control_c, 0, 64, 44
1, 148256, Control_c, 0, 64, 57
1, 148271, Control_c, 0, 64, 63
1, 148286, Control_c, 0, 64, 66
1, 148300, Control_c, 0, 64, 70
1, 148315, Control_c, 0, 64, 75
1, 148330, Control_c, 0, 64, 80
1, 148345, Control_c, 0, 64, 89
1, 148360, Control_c, 0, 64, 104
1, 148374, Control_c, 0, 64, 127
1, 148627, Note_off_c, 0, 52, 49
1, 149037, Note_on_c, 0, 48, 38
1, 149133, Note_off_c, 0, 46, 38
1, 149505, Note_on_c, 0, 49, 37
1, 149582, Poly_aftertouch_c, 0, 70, 127
1, 149642, Note_off_c, 0, 48, 40
1, 149695, Control_c, 0, 64, 122
1, 149710, Control_c, 0, 64, 110
1, 149725, Control_c, 0, 64, 106
1, 149739, Control_c, 0, 64, 105
1, 149784, Control_c, 0, 64, 105
1, 149814, Control_c, 0, 64, 106
1, 149822, Note_on_c, 0, 51, 55
1, 149828, Control_c, 0, 64, 106
1, 149843, Control_c, 0, 64, 108
1, 149858, Control_c, 0, 64, 110
1, 149873, Control_c, 0, 64, 112
1, 149887, Control_c, 0, 64, 114
1, 149902, Control_c, 0, 64, 115
1, 149917, Control_c, 0, 64, 115
1, 149932, Note_off_c, 0, 49, 36
1, 149932, Control_c, 0, 64, 117
1, 149947, Control_c, 0, 64, 127
1, 150050, Note_off_c, 0, 51, 62
1, 150056, Note_on_c, 0, 52, 54
1, 150177, Control_c, 0, 64, 115
1, 150191, Control_c, 0, 64, 109
1, 150206, Control_c, 0, 64, 105
1, 150221, Control_c, 0, 64, 101
1, 150236, Control_c, 0, 64, 99
1, 150247, Note_on_c, 0, 45, 61
1, 150251, Control_c, 0, 64, 98
1, 150266, Control_c, 0, 64, 96
1, 150276, Note_off_c, 0, 52, 47
1, 150280, Control_c, 0, 64, 95
1, 150295, Control_c, 0, 64, 93
1, 150310, Control_c, 0, 64, 91
1, 150325, Control_c, 0, 64, 88
1, 150339, Control_c, 0, 64, 86
1, 150354, Control_c, 0, 64, 85
1, 150369, Control_c, 0, 64, 85
1, 150384, Control_c, 0, 64, 84
1, 150398, Control_c, 0, 64, 82
1, 150413, Control_c, 0, 64, 81
1, 150428, Control_c, 0, 64, 80
1, 150443, Control_c, 0, 64, 79
1, 150446, Note_on_c, 0, 44, 63
1, 150458, Control_c, 0, 64, 73
1, 150474, Control_c, 0, 64, 65
1, 150488, Control_c, 0, 64, 52
1, 150496, Note_off_c, 0, 45, 51
1, 150497, Poly_aftertouch_c, 0, 70, 0
1, 150499, Note_off_c, 0, 61, 42
1, 150503, Control_c, 0, 64, 27
1, 150518, Control_c, 0, 64, 20
1, 150533, Control_c, 0, 64, 26
1, 150548, Control_c, 0, 64, 44
1, 150562, Control_c, 0, 64, 57
1, 150577, Control_c, 0, 64, 63
1, 150592, Control_c, 0, 64, 66
1, 150606, Note_off_c, 0, 73, 37
1, 150607, Control_c, 0, 64, 69
1, 150621, Control_c, 0, 64, 73
1, 150636, Control_c, 0, 64, 79
1, 150648, Note_on_c, 0, 60, 65
1, 150651, Control_c, 0, 64, 83
1, 150666, Control_c, 0, 64, 86
1, 150681, Note_off_c, 0, 64, 17
1, 150681, Control_c, 0, 64, 88
1, 150682, Note_off_c, 0, 67, 39
1, 150792, Control_c, 0, 64, 87
1, 150807, Control_c, 0, 64, 87
1, 150821, Control_c, 0, 64, 86
1, 150836, Control_c, 0, 64, 84
1, 150851, Control_c, 0, 64, 81
1, 150866, Note_on_c, 0, 43, 42
1, 150866, Control_c, 0, 64, 77
1, 150881, Control_c, 0, 64, 74
1, 150895, Control_c, 0, 64, 70
1, 150910, Control_c, 0, 64, 68
1, 150925, Control_c, 0, 64, 67
1, 150934, Note_on_c, 0, 61, 67
1, 150940, Control_c, 0, 64, 66
1, 150944, Note_off_c, 0, 44, 57
1, 150955, Control_c, 0, 64, 65
1, 150970, Control_c, 0, 64, 64
1, 150984, Control_c, 0, 64, 62
1, 150989, Note_off_c, 0, 60, 59
1, 150999, Control_c, 0, 64, 56
1, 151014, Control_c, 0, 64, 42
1, 151029, Control_c, 0, 64, 31
1, 151059, Control_c, 0, 64, 34
1, 151074, Control_c, 0, 64, 45
1, 151089, Control_c, 0, 64, 55
1, 151103, Control_c, 0, 64, 61
1, 151118, Control_c, 0, 64, 63
1, 151133, Control_c, 0, 64, 65
1, 151148, Control_c, 0, 64, 66
1, 151160, Note_on_c, 0, 63, 69
1, 151162, Control_c, 0, 64, 67
1, 151177, Control_c, 0, 64, 68
1, 151192, Control_c, 0, 64, 69
1, 151220, Note_off_c, 0, 61, 57
1, 151297, Control_c, 0, 64, 68
1, 151333, Note_on_c, 0, 64, 73
1, 151356, Control_c, 0, 64, 68
1, 151408, Note_off_c, 0, 63, 52
1, 151495, Note_on_c, 0, 57, 75
1, 151526, Note_off_c, 0, 64, 64
1, 151585, Control_c, 0, 64, 68
1, 151643, Control_c, 0, 64, 69
1, 151656, Note_off_c, 0, 57, 65
1, 151688, Control_c, 0, 64, 68
1, 151703, Note_on_c, 0, 56, 66
1, 151718, Control_c, 0, 64, 68
1, 151724, Note_on_c, 0, 44, 49
1, 151733, Control_c, 0, 64, 67
1, 151748, Control_c, 0, 64, 64
1, 151760, Note_off_c, 0, 43, 38
1, 151762, Control_c, 0, 64, 56
1, 151777, Control_c, 0, 64, 42
1, 151792, Control_c, 0, 64, 25
1, 151807, Control_c, 0, 64, 23
1, 151822, Control_c, 0, 64, 27
1, 151837, Control_c, 0, 64, 44
1, 151851, Control_c, 0, 64, 59
1, 151866, Control_c, 0, 64, 65
1, 151881, Control_c, 0, 64, 69
1, 151896, Control_c, 0, 64, 75
1, 151898, Note_on_c, 0, 72, 75
1, 151910, Control_c, 0, 64, 83
1, 151925, Control_c, 0, 64, 93
1, 151940, Control_c, 0, 64, 115
1, 151955, Control_c, 0, 64, 127
1, 152090, Note_off_c, 0, 56, 58
1, 152135, Note_on_c, 0, 55, 49
1, 152164, Note_on_c, 0, 45, 45
1, 152178, Control_c, 0, 64, 122
1, 152193, Control_c, 0, 64, 101
1, 152207, Control_c, 0, 64, 92
1, 152222, Control_c, 0, 64, 87
1, 152237, Control_c, 0, 64, 86
1, 152244, Note_on_c, 0, 73, 64
1, 152252, Control_c, 0, 64, 84
1, 152270, Note_off_c, 0, 44, 35
1, 152273, Control_c, 0, 64, 81
1, 152288, Control_c, 0, 64, 75
1, 152303, Control_c, 0, 64, 65
1, 152315, Note_off_c, 0, 72, 60
1, 152318, Control_c, 0, 64, 46
1, 152333, Control_c, 0, 64, 0
1, 152407, Control_c, 0, 64, 48
1, 152421, Control_c, 0, 64, 61
1, 152436, Control_c, 0, 64, 66
1, 152451, Control_c, 0, 64, 69
1, 152466, Control_c, 0, 64, 74
1, 152481, Control_c, 0, 64, 78
1, 152496, Control_c, 0, 64, 82
1, 152511, Control_c, 0, 64, 86
1, 152526, Control_c, 0, 64, 90
1, 152540, Control_c, 0, 64, 93
1, 152552, Note_on_c, 0, 75, 65
1, 152555, Control_c, 0, 64, 97
1, 152570, Control_c, 0, 64, 105
1, 152585, Control_c, 0, 64, 127
1, 152609, Note_off_c, 0, 73, 52
1, 152785, Note_on_c, 0, 76, 65
1, 152846, Note_off_c, 0, 75, 59
1, 152945, Note_off_c, 0, 45, 59
1, 153027, Note_off_c, 0, 55, 60
1, 153044, Note_on_c, 0, 67, 67
1, 153116, Note_off_c, 0, 76, 63
1, 153249, Note_off_c, 0, 67, 63
1, 153366, Note_on_c, 0, 46, 40
1, 153368, Note_on_c, 0, 49, 36
1, 153372, Note_on_c, 0, 54, 47
1, 153474, Note_on_c, 0, 66, 67
1, 153512, Control_c, 0, 64, 98
1, 153527, Control_c, 0, 64, 70
1, 153542, Control_c, 0, 64, 56
1, 153557, Control_c, 0, 64, 39
1, 153571, Control_c, 0, 64, 41
1, 153586, Control_c, 0, 64, 52
1, 153601, Control_c, 0, 64, 61
1, 153615, Control_c, 0, 64, 67
1, 153630, Control_c, 0, 64, 77
1, 153645, Control_c, 0, 64, 107
1, 153661, Control_c, 0, 64, 127
1, 153832, Note_on_c, 0, 58, 52
1, 153841, Note_on_c, 0, 70, 73
1, 153876, Note_off_c, 0, 46, 59
1, 153885, Note_off_c, 0, 49, 60
1, 153906, Note_off_c, 0, 66, 39
1, 153911, Note_off_c, 0, 54, 34
1, 153918, Note_off_c, 0, 58, 62
1, 154049, Note_on_c, 0, 61, 48
1, 154067, Note_on_c, 0, 73, 77
1, 154087, Note_off_c, 0, 70, 60
1, 154093, Note_off_c, 0, 61, 60
1, 154245, Note_on_c, 0, 66, 51
1, 154280, Note_off_c, 0, 66, 64
1, 154289, Note_on_c, 0, 78, 75
1, 154430, Note_on_c, 0, 47, 52
1, 154437, Control_c, 0, 64, 112
1, 154452, Control_c, 0, 64, 98
1, 154468, Control_c, 0, 64, 94
1, 154483, Control_c, 0, 64, 85
1, 154498, Control_c, 0, 64, 70
1, 154520, Control_c, 0, 64, 49
1, 154535, Control_c, 0, 64, 0
1, 154589, Note_on_c, 0, 54, 45
1, 154591, Note_on_c, 0, 66, 49
1, 154594, Control_c, 0, 64, 49
1, 154609, Control_c, 0, 64, 64
1, 154624, Control_c, 0, 64, 73
1, 154639, Control_c, 0, 64, 96
1, 154654, Control_c, 0, 64, 127
1, 154661, Note_off_c, 0, 47, 57
1, 154696, Note_off_c, 0, 54, 61
1, 154794, Note_off_c, 0, 78, 63
1, 154842, Note_on_c, 0, 65, 49
1, 154867, Note_off_c, 0, 66, 50
1, 154914, Note_on_c, 0, 77, 81
1, 155002, Note_off_c, 0, 73, 40
1, 155431, Note_on_c, 0, 75, 70
1, 155436, Note_on_c, 0, 63, 37
1, 155471, Note_off_c, 0, 77, 60
1, 155492, Note_off_c, 0, 65, 36
1, 155697, Note_off_c, 0, 63, 47
1, 155707, Note_on_c, 0, 61, 44
1, 155715, Note_on_c, 0, 73, 72
1, 155749, Note_off_c, 0, 75, 54
1, 155782, Note_off_c, 0, 61, 57
1, 155885, Note_on_c, 0, 71, 71
1, 155894, Note_on_c, 0, 59, 40
1, 155894, Note_off_c, 0, 73, 59
1, 155943, Note_off_c, 0, 59, 58
1, 155949, Note_off_c, 0, 71, 58
1, 155998, Note_on_c, 0, 58, 31
1, 156040, Note_off_c, 0, 58, 42
1, 156071, Note_on_c, 0, 59, 46
1, 156083, Note_on_c, 0, 70, 62
1, 156120, Note_off_c, 0, 70, 63
1, 156127, Note_on_c, 0, 71, 67
1, 156130, Note_off_c, 0, 59, 51
1, 156142, Note_on_c, 0, 58, 43
1, 156166, Note_on_c, 0, 65, 55
1, 156170, Note_on_c, 0, 50, 48
1, 156178, Note_on_c, 0, 70, 61
1, 156181, Control_c, 0, 64, 102
1, 156195, Control_c, 0, 64, 90
1, 156198, Note_off_c, 0, 71, 63
1, 156210, Control_c, 0, 64, 80
1, 156225, Control_c, 0, 64, 71
1, 156240, Control_c, 0, 64, 65
1, 156255, Control_c, 0, 64, 54
1, 156270, Control_c, 0, 64, 0
1, 156344, Control_c, 0, 64, 43
1, 156359, Control_c, 0, 64, 60
1, 156374, Control_c, 0, 64, 65
1, 156388, Control_c, 0, 64, 70
1, 156403, Control_c, 0, 64, 78
1, 156418, Control_c, 0, 64, 91
1, 156432, Control_c, 0, 64, 109
1, 156447, Control_c, 0, 64, 127
1, 156524, Note_on_c, 0, 68, 71
1, 156530, Note_on_c, 0, 56, 49
1, 156539, Note_off_c, 0, 58, 52
1, 156544, Note_off_c, 0, 50, 52
1, 156556, Note_off_c, 0, 65, 40
1, 156598, Note_off_c, 0, 70, 60
1, 156773, Note_on_c, 0, 51, 46
1, 156781, Note_on_c, 0, 54, 45
1, 156804, Note_off_c, 0, 56, 36
1, 156811, Control_c, 0, 64, 117
1, 156826, Control_c, 0, 64, 87
1, 156840, Control_c, 0, 64, 67
1, 156857, Control_c, 0, 64, 46
1, 156863, Note_on_c, 0, 66, 68
1, 156872, Control_c, 0, 64, 0
1, 156874, Note_off_c, 0, 68, 62
1, 156901, Control_c, 0, 64, 40
1, 156916, Control_c, 0, 64, 57
1, 156930, Control_c, 0, 64, 66
1, 156945, Control_c, 0, 64, 75
1, 156960, Control_c, 0, 64, 102
1, 156975, Control_c, 0, 64, 127
1, 157008, Note_off_c, 0, 66, 62
1, 157013, Note_off_c, 0, 51, 55
1, 157038, Note_off_c, 0, 54, 58
1, 157122, Note_on_c, 0, 78, 78
1, 157145, Note_on_c, 0, 66, 49
1, 157230, Note_off_c, 0, 66, 61
1, 157321, Note_off_c, 0, 78, 63
1, 157345, Control_c, 0, 64, 108
1, 157360, Control_c, 0, 64, 74
1, 157367, Note_on_c, 0, 77, 76
1, 157371, Note_on_c, 0, 53, 45
1, 157375, Control_c, 0, 64, 59
1, 157381, Note_on_c, 0, 61, 36
1, 157390, Note_on_c, 0, 68, 48
1, 157390, Control_c, 0, 64, 37
1, 157393, Note_on_c, 0, 65, 25
1, 157404, Control_c, 0, 64, 35
1, 157419, Control_c, 0, 64, 46
1, 157434, Control_c, 0, 64, 59
1, 157449, Control_c, 0, 64, 65
1, 157451, Note_off_c, 0, 65, 58
1, 157463, Control_c, 0, 64, 71
1, 157478, Control_c, 0, 64, 83
1, 157493, Control_c, 0, 64, 122
1, 157515, Control_c, 0, 64, 127
1, 157659, Note_on_c, 0, 75, 73
1, 157659, Note_off_c, 0, 68, 55
1, 157666, Note_on_c, 0, 63, 46
1, 157677, Note_on_c, 0, 71, 53
1, 157677, Note_off_c, 0, 61, 36
1, 157708, Note_off_c, 0, 77, 60
1, 157847, Note_off_c, 0, 71, 55
1, 157960, Control_c, 0, 64, 112
1, 157961, Note_on_c, 0, 61, 45
1, 157975, Control_c, 0, 64, 100
1, 157981, Note_on_c, 0, 54, 46
1, 157990, Control_c, 0, 64, 93
1, 158004, Note_off_c, 0, 53, 42
1, 158004, Control_c, 0, 64, 89
1, 158019, Control_c, 0, 64, 86
1, 158034, Control_c, 0, 64, 80
1, 158045, Note_on_c, 0, 73, 75
1, 158049, Control_c, 0, 64, 69
1, 158064, Control_c, 0, 64, 55
1, 158069, Note_on_c, 0, 70, 46
1, 158078, Control_c, 0, 64, 0
1, 158079, Note_off_c, 0, 63, 36
1, 158115, Note_off_c, 0, 75, 56
1, 158123, Control_c, 0, 64, 34
1, 158138, Control_c, 0, 64, 57
1, 158152, Control_c, 0, 64, 66
1, 158167, Control_c, 0, 64, 76
1, 158182, Control_c, 0, 64, 120
1, 158197, Control_c, 0, 64, 127
1, 158285, Note_off_c, 0, 70, 55
1, 158404, Note_off_c, 0, 54, 20
1, 158414, Note_on_c, 0, 51, 46
1, 158431, Note_on_c, 0, 60, 42
1, 158501, Control_c, 0, 64, 107
1, 158513, Note_off_c, 0, 61, 40
1, 158516, Control_c, 0, 64, 93
1, 158525, Note_on_c, 0, 78, 70
1, 158531, Control_c, 0, 64, 80
1, 158536, Note_on_c, 0, 69, 47
1, 158544, Note_off_c, 0, 73, 59
1, 158546, Control_c, 0, 64, 66
1, 158561, Control_c, 0, 64, 43
1, 158575, Control_c, 0, 64, 0
1, 158605, Control_c, 0, 64, 20
1, 158620, Control_c, 0, 64, 47
1, 158635, Control_c, 0, 64, 61
1, 158649, Control_c, 0, 64, 68
1, 158657, Note_off_c, 0, 60, 60
1, 158664, Control_c, 0, 64, 78
1, 158673, Note_off_c, 0, 51, 63
1, 158679, Control_c, 0, 64, 102
1, 158694, Control_c, 0, 64, 127
1, 158724, Note_off_c, 0, 69, 63
1, 158726, Note_off_c, 0, 78, 64
1, 159091, Note_on_c, 0, 49, 39
1, 159205, Control_c, 0, 64, 115
1, 159209, Note_on_c, 0, 70, 68
1, 159220, Control_c, 0, 64, 104
1, 159228, Note_on_c, 0, 61, 45
1, 159228, Note_on_c, 0, 66, 51
1, 159234, Control_c, 0, 64, 99
1, 159249, Control_c, 0, 64, 95
1, 159265, Control_c, 0, 64, 89
1, 159280, Control_c, 0, 64, 81
1, 159295, Control_c, 0, 64, 69
1, 159310, Control_c, 0, 64, 59
1, 159324, Control_c, 0, 64, 38
1, 159339, Control_c, 0, 64, 18
1, 159354, Control_c, 0, 64, 19
1, 159369, Control_c, 0, 64, 35
1, 159384, Control_c, 0, 64, 54
1, 159398, Control_c, 0, 64, 62
1, 159413, Control_c, 0, 64, 67
1, 159428, Control_c, 0, 64, 72
1, 159443, Control_c, 0, 64, 81
1, 159458, Control_c, 0, 64, 97
1, 159472, Control_c, 0, 64, 127
1, 159652, Note_off_c, 0, 61, 48
1, 159735, Note_on_c, 0, 60, 33
1, 160020, Note_on_c, 0, 61, 46
1, 160028, Note_off_c, 0, 60, 42
1, 160100, Note_off_c, 0, 70, 53
1, 160172, Note_off_c, 0, 66, 60
1, 160213, Note_off_c, 0, 61, 61
1, 160232, Note_on_c, 0, 62, 42
1, 160481, Note_on_c, 0, 68, 62
1, 160494, Note_on_c, 0, 63, 47
1, 160507, Note_on_c, 0, 65, 55
1, 160541, Control_c, 0, 64, 105
1, 160555, Control_c, 0, 64, 85
1, 160560, Note_off_c, 0, 62, 47
1, 160570, Control_c, 0, 64, 71
1, 160585, Control_c, 0, 64, 62
1, 160600, Control_c, 0, 64, 60
1, 160615, Control_c, 0, 64, 64
1, 160629, Control_c, 0, 64, 68
1, 160644, Control_c, 0, 64, 75
1, 160659, Control_c, 0, 64, 86
1, 160673, Control_c, 0, 64, 107
1, 160688, Control_c, 0, 64, 127
1, 160783, Note_off_c, 0, 65, 57
1, 160789, Note_on_c, 0, 59, 49
1, 160794, Note_off_c, 0, 68, 52
1, 160814, Note_off_c, 0, 63, 61
1, 161152, Note_on_c, 0, 66, 49
1, 161175, Note_on_c, 0, 58, 39
1, 161180, Note_on_c, 0, 61, 41
1, 161208, Control_c, 0, 64, 105
1, 161223, Control_c, 0, 64, 93
1, 161238, Control_c, 0, 64, 86
1, 161260, Control_c, 0, 64, 81
1, 161275, Control_c, 0, 64, 77
1, 161276, Note_off_c, 0, 59, 34
1, 161289, Control_c, 0, 64, 72
1, 161304, Control_c, 0, 64, 64
1, 161319, Control_c, 0, 64, 49
1, 161334, Control_c, 0, 64, 0
1, 161378, Control_c, 0, 64, 20
1, 161393, Control_c, 0, 64, 46
1, 161408, Control_c, 0, 64, 59
1, 161423, Control_c, 0, 64, 64
1, 161438, Control_c, 0, 64, 69
1, 161452, Control_c, 0, 64, 74
1, 161467, Control_c, 0, 64, 81
1, 161482, Control_c, 0, 64, 91
1, 161492, Note_on_c, 0, 48, 49
1, 161496, Control_c, 0, 64, 105
1, 161511, Control_c, 0, 64, 127
1, 161553, Note_off_c, 0, 49, 38
1, 161713, Note_on_c, 0, 49, 55
1, 161823, Note_off_c, 0, 48, 52
1, 161921, Note_on_c, 0, 50, 65
1, 162102, Note_off_c, 0, 66, 55
1, 162160, Note_on_c, 0, 51, 60
1, 162173, Note_off_c, 0, 49, 34
1, 162191, Note_off_c, 0, 50, 60
1, 162258, Note_on_c, 0, 65, 74
1, 162260, Control_c, 0, 64, 102
1, 162263, Note_on_c, 0, 56, 57
1, 162274, Control_c, 0, 64, 86
1, 162289, Control_c, 0, 64, 75
1, 162298, Note_off_c, 0, 61, 60
1, 162301, Note_off_c, 0, 58, 56
1, 162304, Control_c, 0, 64, 64
1, 162319, Control_c, 0, 64, 43
1, 162333, Control_c, 0, 64, 0
1, 162392, Control_c, 0, 64, 40
1, 162407, Control_c, 0, 64, 57
1, 162422, Control_c, 0, 64, 64
1, 162437, Control_c, 0, 64, 70
1, 162453, Control_c, 0, 64, 78
1, 162468, Control_c, 0, 64, 96
1, 162483, Control_c, 0, 64, 127
1, 162574, Note_on_c, 0, 47, 70
1, 162611, Note_off_c, 0, 51, 53
1, 162634, Note_off_c, 0, 56, 63
1, 162905, Note_on_c, 0, 46, 59
1, 162941, Note_off_c, 0, 47, 57
1, 163006, Note_on_c, 0, 66, 78
1, 163019, Note_on_c, 0, 54, 61
1, 163022, Control_c, 0, 64, 90
1, 163030, Note_off_c, 0, 65, 61
1, 163037, Control_c, 0, 64, 72
1, 163052, Control_c, 0, 64, 59
1, 163067, Control_c, 0, 64, 0
1, 163126, Control_c, 0, 64, 27
1, 163141, Control_c, 0, 64, 54
1, 163155, Control_c, 0, 64, 64
1, 163170, Control_c, 0, 64, 71
1, 163177, Note_off_c, 0, 54, 63
1, 163185, Control_c, 0, 64, 85
1, 163200, Control_c, 0, 64, 127
1, 163245, Note_off_c, 0, 66, 61
1, 163426, Note_on_c, 0, 45, 52
1, 163519, Note_off_c, 0, 46, 35
1, 163600, Note_on_c, 0, 75, 82
1, 163616, Note_on_c, 0, 66, 52
1, 163622, Note_on_c, 0, 72, 51
1, 163623, Control_c, 0, 64, 103
1, 163638, Control_c, 0, 64, 87
1, 163653, Control_c, 0, 64, 71
1, 163668, Control_c, 0, 64, 59
1, 163683, Control_c, 0, 64, 31
1, 163697, Control_c, 0, 64, 23
1, 163712, Control_c, 0, 64, 34
1, 163727, Control_c, 0, 64, 50
1, 163742, Control_c, 0, 64, 60
1, 163757, Control_c, 0, 64, 66
1, 163771, Control_c, 0, 64, 73
1, 163786, Control_c, 0, 64, 86
1, 163801, Control_c, 0, 64, 125
1, 163816, Control_c, 0, 64, 127
1, 164435, Note_on_c, 0, 44, 42
1, 164461, Control_c, 0, 64, 97
1, 164476, Control_c, 0, 64, 81
1, 164491, Control_c, 0, 64, 69
1, 164506, Control_c, 0, 64, 58
1, 164520, Control_c, 0, 64, 41
1, 164522, Note_off_c, 0, 45, 39
1, 164535, Control_c, 0, 64, 28
1, 164550, Control_c, 0, 64, 29
1, 164565, Control_c, 0, 64, 40
1, 164580, Control_c, 0, 64, 51
1, 164594, Control_c, 0, 64, 59
1, 164609, Control_c, 0, 64, 64
1, 164624, Control_c, 0, 64, 67
1, 164639, Control_c, 0, 64, 70
1, 164654, Control_c, 0, 64, 75
1, 164668, Control_c, 0, 64, 81
1, 164683, Control_c, 0, 64, 91
1, 164698, Control_c, 0, 64, 111
1, 164713, Control_c, 0, 64, 127
1, 165313, Note_off_c, 0, 44, 35
1, 165381, Note_off_c, 0, 66, 30
1, 165710, Note_off_c, 0, 72, 29
1, 166819, Note_on_c, 0, 37, 31
1, 166819, Note_on_c, 0, 71, 38
1, 166819, Note_on_c, 0, 65, 38
1, 166929, Control_c, 0, 64, 102
1, 166944, Control_c, 0, 64, 90
1, 166959, Control_c, 0, 64, 84
1, 166974, Control_c, 0, 64, 78
1, 166989, Control_c, 0, 64, 72
1, 167004, Control_c, 0, 64, 68
1, 167019, Control_c, 0, 64, 65
1, 167034, Control_c, 0, 64, 63
1, 167049, Control_c, 0, 64, 62
1, 167063, Control_c, 0, 64, 60
1, 167078, Control_c, 0, 64, 59
1, 167122, Control_c, 0, 64, 59
1, 167167, Control_c, 0, 64, 60
1, 167181, Control_c, 0, 64, 60
1, 167196, Control_c, 0, 64, 61
1, 167249, Control_c, 0, 64, 62
1, 167338, Control_c, 0, 64, 62
1, 167382, Control_c, 0, 64, 63
1, 167560, Control_c, 0, 64, 63
1, 167997, Control_c, 0, 64, 63
1, 167998, Note_on_c, 0, 73, 47
1, 168065, Note_off_c, 0, 75, 47
1, 168072, Control_c, 0, 64, 62
1, 168116, Control_c, 0, 64, 62
1, 168146, Control_c, 0, 64, 61
1, 168160, Control_c, 0, 64, 62
1, 168175, Control_c, 0, 64, 62
1, 168190, Control_c, 0, 64, 64
1, 168205, Control_c, 0, 64, 66
1, 168220, Control_c, 0, 64, 68
1, 168235, Control_c, 0, 64, 72
1, 168250, Control_c, 0, 64, 75
1, 168265, Control_c, 0, 64, 79
1, 168280, Control_c, 0, 64, 84
1, 168295, Control_c, 0, 64, 91
1, 168309, Control_c, 0, 64, 101
1, 168324, Control_c, 0, 64, 127
1, 168432, Note_off_c, 0, 65, 38
1, 168492, Note_off_c, 0, 71, 44
1, 168505, Note_off_c, 0, 37, 38
1, 168534, Note_off_c, 0, 73, 32
1, 170159, Note_on_c, 0, 66, 47
1, 170163, Note_on_c, 0, 58, 40
1, 170168, Note_on_c, 0, 54, 33
1, 170274, Control_c, 0, 64, 100
1, 170288, Control_c, 0, 64, 87
1, 170303, Control_c, 0, 64, 83
1, 170318, Control_c, 0, 64, 81
1, 170333, Control_c, 0, 64, 77
1, 170347, Control_c, 0, 64, 71
1, 170362, Control_c, 0, 64, 66
1, 170377, Control_c, 0, 64, 62
1, 170392, Control_c, 0, 64, 64
1, 170407, Control_c, 0, 64, 67
1, 170421, Control_c, 0, 64, 72
1, 170437, Control_c, 0, 64, 80
1, 170452, Control_c, 0, 64, 91
1, 170467, Control_c, 0, 64, 110
1, 170482, Control_c, 0, 64, 127
1, 170957, Note_on_c, 0, 49, 21
1, 170992, Note_on_c, 0, 61, 33
1, 171342, Note_off_c, 0, 61, 40
1, 171371, Note_on_c, 0, 42, 31
1, 171434, Note_off_c, 0, 49, 40
1, 171603, Note_on_c, 0, 49, 16
1, 171606, Note_on_c, 0, 61, 37
1, 171606, Note_off_c, 0, 58, 58
1, 171743, Note_off_c, 0, 54, 41
1, 171866, Note_on_c, 0, 56, 56
1, 171898, Note_on_c, 0, 53, 31
1, 171904, Control_c, 0, 64, 119
1, 171919, Control_c, 0, 64, 95
1, 171934, Control_c, 0, 64, 79
1, 171939, Note_off_c, 0, 61, 59
1, 171949, Control_c, 0, 64, 67
1, 171964, Control_c, 0, 64, 57
1, 171979, Control_c, 0, 64, 56
1, 171993, Control_c, 0, 64, 61
1, 172008, Control_c, 0, 64, 65
1, 172013, Note_off_c, 0, 49, 35
1, 172023, Control_c, 0, 64, 71
1, 172039, Control_c, 0, 64, 81
1, 172053, Control_c, 0, 64, 109
1, 172068, Control_c, 0, 64, 127
1, 172146, Note_on_c, 0, 61, 37
1, 172159, Note_off_c, 0, 53, 41
1, 172176, Note_on_c, 0, 49, 19
1, 172219, Note_off_c, 0, 56, 62
1, 172557, Note_on_c, 0, 59, 58
1, 172581, Note_on_c, 0, 56, 30
1, 172629, Note_off_c, 0, 61, 47
1, 172638, Control_c, 0, 64, 105
1, 172653, Control_c, 0, 64, 92
1, 172668, Control_c, 0, 64, 81
1, 172682, Control_c, 0, 64, 71
1, 172697, Control_c, 0, 64, 63
1, 172712, Control_c, 0, 64, 55
1, 172727, Control_c, 0, 64, 52
1, 172742, Control_c, 0, 64, 53
1, 172757, Control_c, 0, 64, 57
1, 172772, Control_c, 0, 64, 60
1, 172787, Control_c, 0, 64, 64
1, 172801, Control_c, 0, 64, 69
1, 172816, Control_c, 0, 64, 75
1, 172832, Control_c, 0, 64, 86
1, 172836, Note_off_c, 0, 49, 41
1, 172846, Control_c, 0, 64, 105
1, 172861, Control_c, 0, 64, 127
1, 173016, Note_on_c, 0, 61, 36
1, 173058, Note_on_c, 0, 49, 23
1, 173147, Note_off_c, 0, 66, 18
1, 173179, Note_off_c, 0, 42, 42
1, 173310, Note_off_c, 0, 61, 52
1, 173353, Note_on_c, 0, 42, 29
1, 173404, Note_off_c, 0, 49, 41
1, 173553, Note_off_c, 0, 59, 62
1, 173565, Note_on_c, 0, 49, 21
1, 173571, Note_on_c, 0, 61, 39
1, 173583, Note_off_c, 0, 56, 42
1, 173824, Note_on_c, 0, 58, 53
1, 173837, Note_on_c, 0, 54, 32
1, 173862, Control_c, 0, 64, 109
1, 173877, Control_c, 0, 64, 83
1, 173892, Control_c, 0, 64, 69
1, 173900, Note_off_c, 0, 61, 37
1, 173907, Control_c, 0, 64, 60
1, 173922, Control_c, 0, 64, 57
1, 173936, Control_c, 0, 64, 58
1, 173951, Control_c, 0, 64, 61
1, 173966, Control_c, 0, 64, 64
1, 173987, Control_c, 0, 64, 69
1, 174002, Note_off_c, 0, 49, 41
1, 174002, Control_c, 0, 64, 78
1, 174017, Control_c, 0, 64, 100
1, 174032, Control_c, 0, 64, 127
1, 174133, Note_on_c, 0, 61, 39
1, 174148, Note_off_c, 0, 58, 58
1, 174162, Note_on_c, 0, 49, 20
1, 174191, Note_off_c, 0, 54, 42
1, 174322, Poly_aftertouch_c, 0, 63, 127
1, 174517, Note_on_c, 0, 54, 50
1, 174531, Note_on_c, 0, 51, 28
1, 174610, Control_c, 0, 64, 113
1, 174625, Control_c, 0, 64, 95
1, 174640, Control_c, 0, 64, 83
1, 174653, Note_off_c, 0, 61, 33
1, 174655, Control_c, 0, 64, 71
1, 174669, Control_c, 0, 64, 63
1, 174684, Control_c, 0, 64, 52
1, 174699, Control_c, 0, 64, 41
1, 174714, Control_c, 0, 64, 42
1, 174736, Control_c, 0, 64, 50
1, 174750, Control_c, 0, 64, 60
1, 174756, Note_off_c, 0, 49, 41
1, 174765, Control_c, 0, 64, 64
1, 174780, Control_c, 0, 64, 69
1, 174795, Control_c, 0, 64, 76
1, 174809, Control_c, 0, 64, 88
1, 174824, Control_c, 0, 64, 114
1, 174839, Control_c, 0, 64, 127
1, 174857, Poly_aftertouch_c, 0, 63, 0
1, 174963, Note_on_c, 0, 61, 37
1, 174990, Note_on_c, 0, 49, 29
1, 175080, Note_off_c, 0, 42, 40
1, 175207, Note_off_c, 0, 61, 56
1, 175219, Note_off_c, 0, 51, 38
1, 175224, Note_on_c, 0, 42, 35
1, 175239, Note_off_c, 0, 49, 38
1, 175348, Note_off_c, 0, 54, 28
1, 175484, Note_on_c, 0, 61, 36
1, 175491, Note_on_c, 0, 49, 29
1, 175602, Note_off_c, 0, 49, 35
1, 175627, Note_on_c, 0, 54, 58
1, 175634, Note_on_c, 0, 51, 32
1, 175694, Note_off_c, 0, 54, 60
1, 175836, Note_on_c, 0, 56, 55
1, 175840, Control_c, 0, 64, 102
1, 175855, Control_c, 0, 64, 91
1, 175861, Note_on_c, 0, 53, 38
1, 175870, Control_c, 0, 64, 86
1, 175885, Control_c, 0, 64, 82
1, 175899, Control_c, 0, 64, 73
1, 175914, Control_c, 0, 64, 63
1, 175923, Note_off_c, 0, 61, 46
1, 175929, Control_c, 0, 64, 47
1, 175944, Note_off_c, 0, 51, 40
1, 175944, Control_c, 0, 64, 0
1, 175988, Control_c, 0, 64, 14
1, 176003, Control_c, 0, 64, 42
1, 176018, Control_c, 0, 64, 57
1, 176034, Control_c, 0, 64, 64
1, 176048, Control_c, 0, 64, 68
1, 176063, Control_c, 0, 64, 73
1, 176078, Control_c, 0, 64, 80
1, 176093, Control_c, 0, 64, 93
1, 176108, Control_c, 0, 64, 127
1, 176188, Note_on_c, 0, 49, 27
1, 176190, Note_on_c, 0, 61, 38
1, 176224, Note_off_c, 0, 53, 42
1, 176346, Note_off_c, 0, 56, 59
1, 176593, Note_on_c, 0, 58, 52
1, 176622, Note_on_c, 0, 54, 33
1, 176678, Control_c, 0, 64, 101
1, 176693, Control_c, 0, 64, 90
1, 176708, Control_c, 0, 64, 84
1, 176722, Control_c, 0, 64, 78
1, 176737, Control_c, 0, 64, 70
1, 176738, Note_off_c, 0, 61, 29
1, 176752, Control_c, 0, 64, 62
1, 176767, Control_c, 0, 64, 48
1, 176781, Control_c, 0, 64, 30
1, 176796, Control_c, 0, 64, 25
1, 176811, Control_c, 0, 64, 31
1, 176820, Note_off_c, 0, 49, 41
1, 176827, Control_c, 0, 64, 45
1, 176842, Control_c, 0, 64, 58
1, 176857, Control_c, 0, 64, 65
1, 176871, Control_c, 0, 64, 70
1, 176886, Control_c, 0, 64, 82
1, 176901, Control_c, 0, 64, 107
1, 176916, Control_c, 0, 64, 127
1, 177019, Note_on_c, 0, 61, 43
1, 177042, Note_on_c, 0, 49, 29
1, 177114, Note_off_c, 0, 42, 42
1, 177254, Note_off_c, 0, 58, 59
1, 177288, Note_off_c, 0, 61, 57
1, 177288, Note_off_c, 0, 54, 42
1, 177295, Note_on_c, 0, 42, 39
1, 177319, Note_off_c, 0, 49, 41
1, 177545, Note_on_c, 0, 61, 47
1, 177547, Note_on_c, 0, 49, 27
1, 177687, Note_on_c, 0, 66, 67
1, 177708, Note_on_c, 0, 51, 39
1, 177711, Note_on_c, 0, 54, 50
1, 177728, Note_off_c, 0, 49, 40
1, 177788, Note_off_c, 0, 54, 58
1, 177939, Control_c, 0, 64, 125
1, 177954, Control_c, 0, 64, 100
1, 177969, Control_c, 0, 64, 89
1, 177971, Note_on_c, 0, 53, 40
1, 177973, Note_on_c, 0, 68, 69
1, 177983, Control_c, 0, 64, 83
1, 177995, Note_on_c, 0, 56, 39
1, 177998, Control_c, 0, 64, 79
1, 178013, Control_c, 0, 64, 77
1, 178027, Control_c, 0, 64, 73
1, 178028, Note_off_c, 0, 66, 57
1, 178042, Control_c, 0, 64, 65
1, 178050, Note_off_c, 0, 61, 43
1, 178057, Control_c, 0, 64, 52
1, 178066, Note_off_c, 0, 51, 39
1, 178072, Control_c, 0, 64, 0
1, 178161, Control_c, 0, 64, 46
1, 178176, Control_c, 0, 64, 61
1, 178191, Control_c, 0, 64, 66
1, 178206, Control_c, 0, 64, 71
1, 178220, Control_c, 0, 64, 76
1, 178235, Control_c, 0, 64, 81
1, 178250, Control_c, 0, 64, 88
1, 178265, Control_c, 0, 64, 100
1, 178280, Control_c, 0, 64, 127
1, 178391, Note_on_c, 0, 61, 39
1, 178397, Note_on_c, 0, 49, 28
1, 178474, Note_off_c, 0, 53, 43
1, 178492, Note_off_c, 0, 68, 57
1, 178531, Note_off_c, 0, 56, 41
1, 178891, Note_on_c, 0, 70, 60
1, 178898, Note_on_c, 0, 54, 32
1, 178904, Note_on_c, 0, 58, 35
1, 178954, Control_c, 0, 64, 110
1, 178969, Control_c, 0, 64, 95
1, 178984, Control_c, 0, 64, 86
1, 178998, Control_c, 0, 64, 78
1, 179002, Note_off_c, 0, 61, 36
1, 179013, Control_c, 0, 64, 68
1, 179028, Control_c, 0, 64, 55
1, 179042, Control_c, 0, 64, 26
1, 179057, Control_c, 0, 64, 0
1, 179087, Control_c, 0, 64, 13
1, 179095, Note_off_c, 0, 49, 35
1, 179102, Control_c, 0, 64, 38
1, 179116, Control_c, 0, 64, 55
1, 179131, Control_c, 0, 64, 64
1, 179146, Control_c, 0, 64, 68
1, 179161, Control_c, 0, 64, 75
1, 179175, Control_c, 0, 64, 87
1, 179190, Control_c, 0, 64, 127
1, 179348, Note_on_c, 0, 61, 37
1, 179363, Note_on_c, 0, 49, 30
1, 179479, Note_off_c, 0, 42, 39
1, 179641, Note_off_c, 0, 61, 48
1, 179673, Note_off_c, 0, 49, 38
1, 179688, Note_on_c, 0, 42, 30
1, 179759, Note_off_c, 0, 54, 42
1, 179914, Note_off_c, 0, 70, 22
1, 180075, Note_on_c, 0, 49, 33
1, 180082, Note_on_c, 0, 61, 37
1, 180086, Note_off_c, 0, 58, 41
1, 180272, Note_on_c, 0, 66, 52
1, 180278, Note_off_c, 0, 49, 24
1, 180293, Note_on_c, 0, 54, 34
1, 180307, Note_on_c, 0, 51, 29
1, 180426, Note_off_c, 0, 54, 36
1, 180630, Control_c, 0, 64, 110
1, 180636, Note_on_c, 0, 68, 56
1, 180644, Note_on_c, 0, 56, 39
1, 180644, Control_c, 0, 64, 96
1, 180645, Note_on_c, 0, 53, 29
1, 180659, Control_c, 0, 64, 88
1, 180674, Control_c, 0, 64, 82
1, 180689, Control_c, 0, 64, 77
1, 180704, Control_c, 0, 64, 70
1, 180724, Note_off_c, 0, 61, 37
1, 180726, Control_c, 0, 64, 63
1, 180741, Control_c, 0, 64, 51
1, 180748, Note_off_c, 0, 51, 37
1, 180751, Note_off_c, 0, 66, 29
1, 180756, Control_c, 0, 64, 22
1, 180770, Control_c, 0, 64, 0
1, 180800, Control_c, 0, 64, 26
1, 180815, Control_c, 0, 64, 46
1, 180831, Control_c, 0, 64, 58
1, 180845, Control_c, 0, 64, 64
1, 180860, Control_c, 0, 64, 68
1, 180875, Control_c, 0, 64, 72
1, 180890, Control_c, 0, 64, 80
1, 180905, Control_c, 0, 64, 91
1, 180919, Control_c, 0, 64, 113
1, 180934, Control_c, 0, 64, 127
1, 181309, Note_on_c, 0, 61, 29
1, 181328, Note_on_c, 0, 49, 27
1, 181494, Note_off_c, 0, 68, 38
1, 181521, Note_off_c, 0, 53, 42
1, 181629, Note_off_c, 0, 56, 42
1, 182418, Note_on_c, 0, 70, 46
1, 182421, Note_on_c, 0, 58, 33
1, 182438, Note_on_c, 0, 54, 30
1, 182551, Control_c, 0, 64, 105
1, 182565, Control_c, 0, 64, 86
1, 182573, Note_off_c, 0, 61, 33
1, 182580, Control_c, 0, 64, 75
1, 182595, Control_c, 0, 64, 66
1, 182610, Control_c, 0, 64, 58
1, 182625, Control_c, 0, 64, 49
1, 182639, Control_c, 0, 64, 47
1, 182654, Control_c, 0, 64, 49
1, 182660, Note_off_c, 0, 49, 37
1, 182669, Control_c, 0, 64, 55
1, 182684, Control_c, 0, 64, 60
1, 182698, Control_c, 0, 64, 64
1, 182713, Control_c, 0, 64, 69
1, 182728, Control_c, 0, 64, 74
1, 182743, Control_c, 0, 64, 83
1, 182758, Control_c, 0, 64, 100
1, 182773, Control_c, 0, 64, 127
1, 183095, Note_on_c, 0, 61, 35
1, 183103, Note_on_c, 0, 49, 21
1, 183545, Note_off_c, 0, 49, 38
1, 183558, Note_off_c, 0, 61, 48
1, 183870, Note_on_c, 0, 61, 41
1, 183915, Note_on_c, 0, 49, 17
1, 184318, Note_off_c, 0, 49, 36
1, 184363, Note_off_c, 0, 61, 34
1, 184716, Note_on_c, 0, 61, 33
1, 184728, Note_on_c, 0, 49, 20
1, 185127, Note_off_c, 0, 49, 35
1, 185178, Note_off_c, 0, 61, 39
1, 185663, Note_on_c, 0, 61, 23
1, 185665, Note_on_c, 0, 49, 19
1, 186258, Note_off_c, 0, 49, 26
1, 186365, Note_off_c, 0, 61, 27
1, 186996, Note_on_c, 0, 61, 26
1, 187025, Poly_aftertouch_c, 0, 49, 127
1, 187482, Note_off_c, 0, 61, 26
1, 187610, Poly_aftertouch_c, 0, 49, 0
1, 187755, Note_off_c, 0, 70, 32
1, 187944, Note_off_c, 0, 42, 40
1, 189659, Control_c, 0, 64, 122
1, 189674, Control_c, 0, 64, 120
1, 189689, Control_c, 0, 64, 119
1, 189711, Control_c, 0, 64, 116
1, 189726, Control_c, 0, 64, 115
1, 189741, Control_c, 0, 64, 113
1, 189755, Control_c, 0, 64, 112
1, 189770, Control_c, 0, 64, 111
1, 189978, Control_c, 0, 64, 110
1, 189993, Control_c, 0, 64, 110
1, 190007, Control_c, 0, 64, 109
1, 190022, Control_c, 0, 64, 107
1, 190037, Control_c, 0, 64, 105
1, 190052, Control_c, 0, 64, 105
1, 190067, Control_c, 0, 64, 104
1, 190081, Control_c, 0, 64, 104
1, 190096, Control_c, 0, 64, 103
1, 190111, Control_c, 0, 64, 102
1, 190126, Control_c, 0, 64, 101
1, 190141, Control_c, 0, 64, 100
1, 190155, Control_c, 0, 64, 99
1, 190170, Control_c, 0, 64, 98
1, 190215, Control_c, 0, 64, 98
1, 190229, Control_c, 0, 64, 97
1, 190244, Control_c, 0, 64, 97
1, 190259, Control_c, 0, 64, 96
1, 190273, Control_c, 0, 64, 95
1, 190288, Control_c, 0, 64, 94
1, 190303, Control_c, 0, 64, 93
1, 190362, Control_c, 0, 64, 92
1, 190408, Control_c, 0, 64, 92
1, 190423, Control_c, 0, 64, 91
1, 190438, Control_c, 0, 64, 91
1, 190460, Control_c, 0, 64, 90
1, 190475, Control_c, 0, 64, 90
1, 190490, Control_c, 0, 64, 89
1, 190504, Control_c, 0, 64, 89
1, 190519, Control_c, 0, 64, 88
1, 190534, Control_c, 0, 64, 88
1, 190549, Control_c, 0, 64, 87
1, 190579, Control_c, 0, 64, 87
1, 190593, Control_c, 0, 64, 86
1, 190623, Control_c, 0, 64, 86
1, 190667, Control_c, 0, 64, 85
1, 190726, Control_c, 0, 64, 85
1, 190756, Control_c, 0, 64, 84
1, 190771, Control_c, 0, 64, 84
1, 190800, Control_c, 0, 64, 83
1, 190815, Control_c, 0, 64, 83
1, 190830, Control_c, 0, 64, 82
1, 190845, Control_c, 0, 64, 82
1, 190860, Control_c, 0, 64, 81
1, 190890, Control_c, 0, 64, 81
1, 190919, Control_c, 0, 64, 80
1, 191111, Control_c, 0, 64, 80
1, 191254, Control_c, 0, 64, 79
1, 191283, Control_c, 0, 64, 79
1, 191491, Control_c, 0, 64, 78
1, 191609, Control_c, 0, 64, 77
1, 191624, Control_c, 0, 64, 77
1, 191639, Control_c, 0, 64, 76
1, 191654, Control_c, 0, 64, 76
1, 191772, Control_c, 0, 64, 75
1, 191920, Control_c, 0, 64, 75
1, 191935, Control_c, 0, 64, 74
1, 191957, Control_c, 0, 64, 73
1, 192092, Control_c, 0, 64, 73
1, 192151, Control_c, 0, 64, 72
1, 192181, Control_c, 0, 64, 72
1, 192270, Control_c, 0, 64, 71
1, 192299, Control_c, 0, 64, 71
1, 192329, Control_c, 0, 64, 70
1, 192403, Control_c, 0, 64, 70
1, 192418, Control_c, 0, 64, 69
1, 192462, Control_c, 0, 64, 69
1, 192640, Control_c, 0, 64, 68
1, 192669, Control_c, 0, 64, 68
1, 192684, Control_c, 0, 64, 67
1, 192706, Control_c, 0, 64, 67
1, 192811, Control_c, 0, 64, 66
1, 192885, Control_c, 0, 64, 66
1, 193018, Control_c, 0, 64, 65
1, 193181, Control_c, 0, 64, 65
1, 193211, Control_c, 0, 64, 64
1, 193856, Control_c, 0, 64, 65
1, 193885, Control_c, 0, 64, 65
1, 193915, Control_c, 0, 64, 66
1, 193929, Control_c, 0, 64, 66
1, 193944, Control_c, 0, 64, 67
1, 193959, Control_c, 0, 64, 67
1, 194003, Control_c, 0, 64, 68
1, 194033, Control_c, 0, 64, 68
1, 194048, Control_c, 0, 64, 69
1, 194063, Control_c, 0, 64, 69
1, 194077, Control_c, 0, 64, 70
1, 194092, Control_c, 0, 64, 70
1, 194107, Control_c, 0, 64, 71
1, 194121, Control_c, 0, 64, 72
1, 194136, Control_c, 0, 64, 73
1, 194151, Control_c, 0, 64, 74
1, 194166, Control_c, 0, 64, 76
1, 194181, Control_c, 0, 64, 77
1, 194203, Control_c, 0, 64, 79
1, 194218, Control_c, 0, 64, 82
1, 194233, Control_c, 0, 64, 84
1, 194248, Control_c, 0, 64, 86
1, 194263, Control_c, 0, 64, 89
1, 194277, Control_c, 0, 64, 92
1, 194292, Control_c, 0, 64, 96
1, 194307, Control_c, 0, 64, 102
1, 194321, Control_c, 0, 64, 109
1, 194336, Control_c, 0, 64, 125
1, 194351, Control_c, 0, 64, 127
1, 195173, Note_off_c, 0, 54, 31
1, 195343, Note_off_c, 0, 58, 23
1, 196205, Control_c, 0, 64, 119
1, 196220, Control_c, 0, 64, 117
1, 196235, Control_c, 0, 64, 116
1, 196264, Control_c, 0, 64, 115
1, 196279, Control_c, 0, 64, 115
1, 196294, Control_c, 0, 64, 113
1, 196309, Control_c, 0, 64, 112
1, 196338, Control_c, 0, 64, 111
1, 196397, Control_c, 0, 64, 110
1, 196427, Control_c, 0, 64, 110
1, 196449, Control_c, 0, 64, 109
1, 196464, Control_c, 0, 64, 108
1, 196479, Control_c, 0, 64, 107
1, 196494, Control_c, 0, 64, 106
1, 196509, Control_c, 0, 64, 104
1, 196523, Control_c, 0, 64, 102
1, 196538, Control_c, 0, 64, 101
1, 196568, Control_c, 0, 64, 101
1, 196583, Control_c, 0, 64, 98
1, 196597, Control_c, 0, 64, 96
1, 196612, Control_c, 0, 64, 94
1, 196627, Control_c, 0, 64, 92
1, 196642, Control_c, 0, 64, 92
1, 196657, Control_c, 0, 64, 91
1, 196730, Control_c, 0, 64, 91
1, 196745, Control_c, 0, 64, 90
1, 196760, Control_c, 0, 64, 89
1, 196775, Control_c, 0, 64, 88
1, 196791, Control_c, 0, 64, 87
1, 196820, Control_c, 0, 64, 87
1, 196835, Control_c, 0, 64, 86
1, 196850, Control_c, 0, 64, 84
1, 196865, Control_c, 0, 64, 83
1, 196924, Control_c, 0, 64, 83
1, 196938, Control_c, 0, 64, 82
1, 196953, Control_c, 0, 64, 82
1, 196968, Control_c, 0, 64, 81
1, 197013, Control_c, 0, 64, 81
1, 197028, Control_c, 0, 64, 80
1, 197042, Control_c, 0, 64, 79
1, 197057, Control_c, 0, 64, 78
1, 197087, Control_c, 0, 64, 78
1, 197117, Control_c, 0, 64, 77
1, 197132, Control_c, 0, 64, 76
1, 197146, Control_c, 0, 64, 76
1, 197176, Control_c, 0, 64, 75
1, 197198, Control_c, 0, 64, 75
1, 197213, Control_c, 0, 64, 74
1, 197227, Control_c, 0, 64, 73
1, 197242, Control_c, 0, 64, 73
1, 197257, Control_c, 0, 64, 72
1, 197272, Control_c, 0, 64, 72
1, 197287, Control_c, 0, 64, 71
1, 197302, Control_c, 0, 64, 71
1, 197391, Control_c, 0, 64, 70
1, 197406, Control_c, 0, 64, 70
1, 197420, Control_c, 0, 64, 69
1, 197450, Control_c, 0, 64, 69
1, 197553, Control_c, 0, 64, 68
1, 197629, Control_c, 0, 64, 68
1, 197643, Control_c, 0, 64, 67
1, 197673, Control_c, 0, 64, 67
1, 197747, Control_c, 0, 64, 66
1, 197821, Control_c, 0, 64, 66
1, 197850, Control_c, 0, 64, 65
1, 197865, Control_c, 0, 64, 65
1, 197880, Control_c, 0, 64, 64
1, 197895, Control_c, 0, 64, 64
1, 197910, Control_c, 0, 64, 63
1, 197925, Control_c, 0, 64, 62
1, 197947, Control_c, 0, 64, 61
1, 197962, Control_c, 0, 64, 60
1, 197976, Control_c, 0, 64, 59
1, 197991, Control_c, 0, 64, 57
1, 198006, Control_c, 0, 64, 55
1, 198021, Control_c, 0, 64, 53
1, 198036, Control_c, 0, 64, 50
1, 198050, Control_c, 0, 64, 48
1, 198065, Control_c, 0, 64, 46
1, 198080, Control_c, 0, 64, 45
1, 198095, Control_c, 0, 64, 44
1, 198110, Control_c, 0, 64, 42
1, 198124, Control_c, 0, 64, 38
1, 198139, Control_c, 0, 64, 33
1, 198154, Control_c, 0, 64, 26
1, 198169, Control_c, 0, 64, 17
1, 198184, Control_c, 0, 64, 0
1, 198526, Control_c, 0, 64, 12
1, 198540, Control_c, 0, 64, 17
1, 198555, Control_c, 0, 64, 19
1, 198570, Control_c, 0, 64, 22
1, 198584, Control_c, 0, 64, 25
1, 198599, Control_c, 0, 64, 27
1, 198614, Control_c, 0, 64, 29
1, 198629, Control_c, 0, 64, 31
1, 198644, Control_c, 0, 64, 32
1, 198658, Control_c, 0, 64, 33
1, 198673, Control_c, 0, 64, 34
1, 198697, Control_c, 0, 64, 35
1, 198712, Control_c, 0, 64, 35
1, 198727, Control_c, 0, 64, 36
1, 198756, Control_c, 0, 64, 36
1, 198800, Control_c, 0, 64, 37
1, 198845, Control_c, 0, 64, 37
1, 198889, Control_c, 0, 64, 38
1, 199260, Control_c, 0, 64, 38
1, 199275, Control_c, 0, 64, 39
1, 199290, Control_c, 0, 64, 40
1, 199305, Control_c, 0, 64, 40
1, 199320, Control_c, 0, 64, 41
1, 199350, Control_c, 0, 64, 41
1, 199726, Control_c, 0, 64, 42
1, 199785, Control_c, 0, 64, 42
1, 199815, Control_c, 0, 64, 43
1, 199844, Control_c, 0, 64, 43
1, 199934, Control_c, 0, 64, 44
1, 199963, Control_c, 0, 64, 44
1, 199994, Control_c, 0, 64, 45
1, 200008, Control_c, 0, 64, 46
1, 200023, Control_c, 0, 64, 47
1, 200038, Control_c, 0, 64, 48
1, 200053, Control_c, 0, 64, 49
1, 200068, Control_c, 0, 64, 50
1, 200083, Control_c, 0, 64, 51
1, 200098, Control_c, 0, 64, 53
1, 200112, Control_c, 0, 64, 54
1, 200127, Control_c, 0, 64, 57
1, 200142, Control_c, 0, 64, 59
1, 200156, Control_c, 0, 64, 60
1, 200171, Control_c, 0, 64, 62
1, 200193, Control_c, 0, 64, 63
1, 200208, Control_c, 0, 64, 65
1, 200223, Control_c, 0, 64, 67
1, 200238, Control_c, 0, 64, 69
1, 200253, Control_c, 0, 64, 72
1, 200268, Control_c, 0, 64, 76
1, 200283, Control_c, 0, 64, 79
1, 200298, Control_c, 0, 64, 82
1, 200312, Control_c, 0, 64, 84
1, 200327, Control_c, 0, 64, 87
1, 200342, Control_c, 0, 64, 90
1, 200357, Control_c, 0, 64, 95
1, 200371, Control_c, 0, 64, 99
1, 200386, Control_c, 0, 64, 104
1, 200401, Control_c, 0, 64, 108
1, 200416, Control_c, 0, 64, 111
1, 200431, Control_c, 0, 64, 119
1, 200445, Control_c, 0, 64, 127
1, 201153, Note_on_c, 0, 54, 70
1, 201194, Control_c, 0, 64, 79
1, 201209, Control_c, 0, 64, 61
1, 201218, Note_on_c, 0, 52, 72
1, 201218, Note_off_c, 0, 54, 64
1, 201224, Control_c, 0, 64, 22
1, 201226, Note_on_c, 0, 56, 75
1, 201239, Control_c, 0, 64, 0
1, 201251, Note_off_c, 0, 52, 66
1, 201257, Note_off_c, 0, 56, 67
1, 201520, Note_on_c, 0, 58, 74
1, 201525, Note_on_c, 0, 49, 69
1, 201544, Note_off_c, 0, 58, 67
1, 201551, Note_off_c, 0, 49, 66
1, 201734, Note_on_c, 0, 59, 71
1, 201805, Note_on_c, 0, 61, 81
1, 201813, Note_off_c, 0, 59, 64
1, 201815, Note_on_c, 0, 58, 70
1, 201826, Note_off_c, 0, 61, 71
1, 201842, Note_off_c, 0, 58, 66
1, 201848, Note_on_c, 0, 35, 59
1, 201851, Note_on_c, 0, 47, 50
1, 202113, Note_on_c, 0, 57, 80
1, 202113, Note_on_c, 0, 63, 82
1, 202122, Note_on_c, 0, 60, 66
1, 202122, Note_off_c, 0, 47, 62
1, 202134, Note_off_c, 0, 63, 69
1, 202136, Note_off_c, 0, 57, 70
1, 202138, Note_on_c, 0, 59, 45
1, 202140, Note_off_c, 0, 35, 60
1, 202149, Note_off_c, 0, 60, 67
1, 202161, Note_off_c, 0, 59, 39
1, 202321, Note_on_c, 0, 47, 70
1, 202334, Note_on_c, 0, 35, 18
1, 202352, Note_off_c, 0, 47, 66
1, 202381, Note_off_c, 0, 35, 40
1, 202396, Note_on_c, 0, 59, 91
1, 202396, Note_on_c, 0, 64, 86
1, 202403, Note_on_c, 0, 56, 75
1, 202416, Note_off_c, 0, 59, 71
1, 202423, Note_off_c, 0, 64, 65
1, 202436, Note_off_c, 0, 56, 64
1, 202450, Note_on_c, 0, 63, 5
1, 202451, Note_off_c, 0, 63, 127
1, 202704, Note_on_c, 0, 64, 77
1, 202705, Note_on_c, 0, 58, 82
1, 202706, Note_on_c, 0, 61, 77
1, 202716, Note_on_c, 0, 55, 74
1, 202729, Note_off_c, 0, 58, 70
1, 202730, Note_off_c, 0, 61, 70
1, 202733, Note_off_c, 0, 64, 67
1, 202745, Note_off_c, 0, 55, 68
1, 202942, Note_on_c, 0, 66, 75
1, 202944, Note_on_c, 0, 63, 74
1, 202950, Note_on_c, 0, 59, 73
1, 203013, Note_on_c, 0, 71, 89
1, 203034, Note_on_c, 0, 35, 53
1, 203034, Note_on_c, 0, 47, 57
1, 203061, Note_off_c, 0, 59, 56
1, 203078, Control_c, 0, 64, 58
1, 203093, Control_c, 0, 64, 66
1, 203107, Control_c, 0, 64, 74
1, 203122, Control_c, 0, 64, 96
1, 203137, Control_c, 0, 64, 127
1, 203183, Note_off_c, 0, 63, 59
1, 203190, Note_off_c, 0, 71, 59
1, 203212, Note_off_c, 0, 66, 58
1, 203514, Note_off_c, 0, 47, 60
1, 203519, Note_on_c, 0, 54, 89
1, 203523, Note_on_c, 0, 66, 79
1, 203535, Note_off_c, 0, 35, 35
1, 203541, Note_off_c, 0, 54, 72
1, 203544, Note_off_c, 0, 66, 70
1, 203575, Control_c, 0, 64, 119
1, 203583, Note_on_c, 0, 66, 90
1, 203588, Note_on_c, 0, 54, 90
1, 203589, Control_c, 0, 64, 66
1, 203600, Note_on_c, 0, 56, 74
1, 203604, Control_c, 0, 64, 0
1, 203612, Note_off_c, 0, 54, 70
1, 203619, Note_off_c, 0, 56, 66
1, 203623, Note_off_c, 0, 66, 51
1, 203629, Note_on_c, 0, 67, 27
1, 203630, Note_off_c, 0, 67, 127
1, 203872, Note_on_c, 0, 61, 90
1, 203872, Note_on_c, 0, 66, 89
1, 203872, Note_on_c, 0, 70, 88
1, 203891, Note_off_c, 0, 61, 71
1, 203896, Note_off_c, 0, 66, 68
1, 203900, Note_off_c, 0, 70, 63
1, 204089, Note_on_c, 0, 54, 87
1, 204101, Note_on_c, 0, 42, 60
1, 204112, Note_off_c, 0, 54, 71
1, 204128, Note_off_c, 0, 42, 57
1, 204162, Note_on_c, 0, 63, 90
1, 204162, Note_on_c, 0, 66, 91
1, 204163, Note_on_c, 0, 71, 89
1, 204182, Note_on_c, 0, 59, 88
1, 204184, Note_off_c, 0, 63, 69
1, 204185, Note_on_c, 0, 47, 82
1, 204188, Note_off_c, 0, 66, 65
1, 204189, Note_off_c, 0, 71, 64
1, 204450, Note_on_c, 0, 73, 94
1, 204452, Note_on_c, 0, 64, 92
1, 204452, Note_on_c, 0, 70, 93
1, 204452, Note_off_c, 0, 59, 65
1, 204453, Note_on_c, 0, 66, 89
1, 204468, Note_off_c, 0, 47, 65
1, 204471, Note_off_c, 0, 64, 72
1, 204474, Note_off_c, 0, 66, 67
1, 204486, Note_off_c, 0, 70, 67
1, 204498, Note_off_c, 0, 73, 67
1, 204657, Note_on_c, 0, 54, 81
1, 204664, Note_on_c, 0, 42, 72
1, 204685, Note_off_c, 0, 54, 69
1, 204697, Note_off_c, 0, 42, 66
1, 204735, Note_on_c, 0, 66, 96
1, 204736, Note_on_c, 0, 75, 92
1, 204738, Note_on_c, 0, 63, 99
1, 204745, Note_on_c, 0, 71, 86
1, 204755, Note_on_c, 0, 35, 88
1, 204759, Note_off_c, 0, 63, 69
1, 204760, Note_on_c, 0, 47, 79
1, 204766, Note_on_c, 0, 70, 47
1, 204769, Note_off_c, 0, 71, 65
1, 204770, Note_off_c, 0, 66, 69
1, 204772, Note_off_c, 0, 70, 44
1, 204781, Note_off_c, 0, 35, 65
1, 204787, Note_off_c, 0, 47, 68
1, 204790, Note_off_c, 0, 75, 65
1, 205061, Note_on_c, 0, 77, 94
1, 205064, Note_on_c, 0, 71, 92
1, 205066, Note_on_c, 0, 65, 91
1, 205066, Note_on_c, 0, 73, 87
1, 205069, Note_on_c, 0, 49, 93
1, 205071, Note_on_c, 0, 37, 83
1, 205089, Note_off_c, 0, 49, 71
1, 205091, Note_on_c, 0, 75, 48
1, 205092, Note_off_c, 0, 65, 65
1, 205095, Note_off_c, 0, 37, 66
1, 205099, Note_off_c, 0, 71, 66
1, 205106, Note_off_c, 0, 77, 64
1, 205109, Note_off_c, 0, 73, 65
1, 205112, Note_off_c, 0, 75, 39
1, 205346, Note_on_c, 0, 70, 84
1, 205349, Note_on_c, 0, 66, 78
1, 205353, Note_on_c, 0, 73, 84
1, 205430, Note_on_c, 0, 78, 98
1, 205443, Note_on_c, 0, 42, 95
1, 205444, Note_on_c, 0, 30, 85
1, 205478, Control_c, 0, 64, 63
1, 205493, Control_c, 0, 64, 79
1, 205495, Note_off_c, 0, 66, 61
1, 205508, Control_c, 0, 64, 127
1, 205535, Note_off_c, 0, 70, 60
1, 205538, Note_off_c, 0, 78, 62
1, 205550, Note_off_c, 0, 73, 60
1, 205559, Note_off_c, 0, 30, 58
1, 205576, Note_off_c, 0, 42, 61
1, 206006, Note_on_c, 0, 54, 61
1, 206027, Control_c, 0, 64, 102
1, 206042, Control_c, 0, 64, 79
1, 206057, Control_c, 0, 64, 63
1, 206067, Note_on_c, 0, 52, 81
1, 206072, Control_c, 0, 64, 19
1, 206073, Note_on_c, 0, 56, 76
1, 206075, Note_off_c, 0, 54, 64
1, 206086, Control_c, 0, 64, 0
1, 206100, Note_off_c, 0, 56, 68
1, 206107, Note_off_c, 0, 52, 64
1, 206408, Note_on_c, 0, 58, 70
1, 206417, Note_on_c, 0, 49, 58
1, 206435, Note_off_c, 0, 58, 66
1, 206449, Note_off_c, 0, 49, 65
1, 206631, Note_on_c, 0, 59, 63
1, 206699, Note_off_c, 0, 59, 64
1, 206700, Note_on_c, 0, 61, 68
1, 206705, Note_on_c, 0, 58, 64
1, 206727, Note_off_c, 0, 61, 66
1, 206727, Note_on_c, 0, 47, 49
1, 206736, Note_off_c, 0, 58, 65
1, 206737, Note_on_c, 0, 35, 46
1, 207004, Note_on_c, 0, 63, 72
1, 207011, Note_on_c, 0, 57, 69
1, 207013, Note_on_c, 0, 60, 62
1, 207024, Note_off_c, 0, 47, 57
1, 207028, Note_off_c, 0, 35, 56
1, 207029, Note_off_c, 0, 63, 67
1, 207040, Note_off_c, 0, 57, 66
1, 207040, Note_off_c, 0, 60, 65
1, 207210, Note_on_c, 0, 35, 10
1, 207221, Note_on_c, 0, 47, 48
1, 207246, Note_off_c, 0, 47, 53
1, 207261, Note_off_c, 0, 35, 36
1, 207296, Note_on_c, 0, 59, 79
1, 207297, Note_on_c, 0, 64, 74
1, 207301, Note_on_c, 0, 56, 71
1, 207318, Note_off_c, 0, 59, 69
1, 207321, Note_off_c, 0, 56, 66
1, 207322, Note_off_c, 0, 64, 68
1, 207597, Note_on_c, 0, 58, 73
1, 207598, Note_on_c, 0, 64, 70
1, 207599, Note_on_c, 0, 61, 71
1, 207619, Note_on_c, 0, 55, 63
1, 207622, Note_off_c, 0, 58, 66
1, 207624, Note_off_c, 0, 61, 67
1, 207624, Note_off_c, 0, 64, 69
1, 207651, Note_off_c, 0, 55, 65
1, 207843, Note_on_c, 0, 66, 70
1, 207851, Note_on_c, 0, 63, 58
1, 207853, Note_on_c, 0, 59, 57
1, 207916, Note_on_c, 0, 71, 76
1, 207944, Note_on_c, 0, 35, 52
1, 207945, Note_on_c, 0, 47, 49
1, 207993, Control_c, 0, 64, 45
1, 207997, Note_off_c, 0, 66, 54
1, 208007, Control_c, 0, 64, 57
1, 208022, Control_c, 0, 64, 63
1, 208037, Control_c, 0, 64, 68
1, 208051, Control_c, 0, 64, 76
1, 208066, Control_c, 0, 64, 98
1, 208081, Control_c, 0, 64, 127
1, 208139, Note_off_c, 0, 71, 61
1, 208149, Note_off_c, 0, 59, 63
1, 208155, Note_off_c, 0, 63, 56
1, 208156, Note_on_c, 0, 66, 3
1, 208174, Note_off_c, 0, 66, 0
1, 208194, Poly_aftertouch_c, 0, 66, 0
1, 208296, Poly_aftertouch_c, 0, 39, 127
1, 208409, Note_on_c, 0, 66, 86
1, 208411, Note_on_c, 0, 54, 87
1, 208436, Note_off_c, 0, 66, 70
1, 208441, Note_off_c, 0, 54, 70
1, 208453, Note_off_c, 0, 35, 54
1, 208463, Note_off_c, 0, 47, 61
1, 208489, Control_c, 0, 64, 115
1, 208492, Note_on_c, 0, 68, 92
1, 208494, Note_on_c, 0, 56, 86
1, 208504, Control_c, 0, 64, 67
1, 208512, Poly_aftertouch_c, 0, 39, 0
1, 208519, Control_c, 0, 64, 0
1, 208522, Note_off_c, 0, 56, 66
1, 208525, Note_off_c, 0, 68, 52
1, 208775, Note_on_c, 0, 70, 93
1, 208777, Note_on_c, 0, 66, 83
1, 208778, Note_on_c, 0, 61, 86
1, 208797, Note_off_c, 0, 61, 71
1, 208799, Note_off_c, 0, 66, 69
1, 208822, Note_off_c, 0, 70, 62
1, 208986, Note_on_c, 0, 54, 79
1, 208996, Note_on_c, 0, 42, 59
1, 209011, Note_off_c, 0, 54, 70
1, 209023, Note_off_c, 0, 42, 58
1, 209074, Note_on_c, 0, 71, 90
1, 209075, Note_on_c, 0, 66, 84
1, 209078, Note_on_c, 0, 63, 86
1, 209079, Note_on_c, 0, 59, 86
1, 209087, Note_on_c, 0, 47, 81
1, 209101, Note_off_c, 0, 63, 68
1, 209109, Note_off_c, 0, 66, 61
1, 209112, Note_off_c, 0, 71, 62
1, 209364, Note_on_c, 0, 73, 88
1, 209365, Note_on_c, 0, 70, 92
1, 209366, Note_on_c, 0, 64, 86
1, 209367, Note_on_c, 0, 66, 88
1, 209373, Note_off_c, 0, 59, 62
1, 209386, Note_off_c, 0, 64, 72
1, 209389, Note_off_c, 0, 66, 70
1, 209391, Note_off_c, 0, 47, 63
1, 209402, Note_off_c, 0, 70, 67
1, 209415, Note_off_c, 0, 73, 63
1, 209578, Note_on_c, 0, 54, 83
1, 209584, Note_on_c, 0, 42, 75
1, 209602, Note_off_c, 0, 54, 70
1, 209610, Note_off_c, 0, 42, 66
1, 209657, Note_on_c, 0, 66, 92
1, 209658, Note_on_c, 0, 75, 93
1, 209660, Note_on_c, 0, 63, 94
1, 209660, Note_on_c, 0, 71, 90
1, 209677, Note_on_c, 0, 35, 87
1, 209679, Note_on_c, 0, 47, 89
1, 209681, Note_off_c, 0, 63, 71
1, 209694, Note_off_c, 0, 66, 65
1, 209698, Note_off_c, 0, 71, 65
1, 209701, Note_off_c, 0, 35, 69
1, 209701, Note_off_c, 0, 47, 71
1, 209701, Note_off_c, 0, 75, 67
1, 209968, Note_on_c, 0, 77, 92
1, 209971, Note_on_c, 0, 71, 92
1, 209972, Note_on_c, 0, 65, 88
1, 209972, Note_on_c, 0, 73, 86
1, 209974, Note_on_c, 0, 49, 99
1, 209976, Note_on_c, 0, 37, 89
1, 209991, Note_off_c, 0, 49, 73
1, 209998, Note_on_c, 0, 75, 47
1, 210001, Note_off_c, 0, 37, 69
1, 210004, Note_off_c, 0, 65, 65
1, 210015, Note_off_c, 0, 71, 66
1, 210015, Note_off_c, 0, 77, 65
1, 210019, Note_off_c, 0, 73, 65
1, 210020, Note_off_c, 0, 75, 39
1, 210236, Note_on_c, 0, 66, 91
1, 210241, Note_on_c, 0, 70, 83
1, 210247, Note_on_c, 0, 73, 85
1, 210320, Note_on_c, 0, 78, 102
1, 210323, Note_on_c, 0, 30, 85
1, 210323, Note_on_c, 0, 42, 92
1, 210402, Control_c, 0, 64, 44
1, 210417, Control_c, 0, 64, 60
1, 210432, Control_c, 0, 64, 67
1, 210446, Control_c, 0, 64, 77
1, 210461, Control_c, 0, 64, 122
1, 210476, Control_c, 0, 64, 127
1, 210476, Control_c, 0, 67, 119
1, 210491, Control_c, 0, 67, 110
1, 210506, Control_c, 0, 67, 101
1, 210520, Control_c, 0, 67, 92
1, 210535, Control_c, 0, 67, 80
1, 210543, Note_off_c, 0, 78, 60
1, 210550, Control_c, 0, 67, 62
1, 210552, Note_off_c, 0, 66, 60
1, 210562, Note_off_c, 0, 70, 61
1, 210565, Control_c, 0, 67, 32
1, 210568, Note_off_c, 0, 73, 62
1, 210580, Control_c, 0, 67, 0
1, 210617, Note_off_c, 0, 42, 62
1, 210619, Note_off_c, 0, 30, 61
1, 210819, Note_on_c, 0, 66, 92
1, 210823, Note_on_c, 0, 78, 87
1, 210850, Note_off_c, 0, 66, 63
1, 210860, Note_on_c, 0, 77, 37
1, 210865, Note_off_c, 0, 78, 61
1, 210887, Note_off_c, 0, 77, 54
1, 210898, Control_c, 0, 64, 96
1, 210906, Note_on_c, 0, 81, 100
1, 210910, Note_on_c, 0, 69, 97
1, 210913, Control_c, 0, 64, 54
1, 210927, Control_c, 0, 64, 0
1, 210933, Note_off_c, 0, 69, 68
1, 210939, Note_off_c, 0, 81, 66
1, 211196, Note_on_c, 0, 72, 94
1, 211205, Note_on_c, 0, 60, 84
1, 211223, Note_off_c, 0, 72, 66
1, 211227, Note_off_c, 0, 60, 71
1, 211413, Note_on_c, 0, 51, 66
1, 211414, Note_on_c, 0, 63, 73
1, 211449, Note_off_c, 0, 63, 66
1, 211452, Note_off_c, 0, 51, 66
1, 211487, Note_on_c, 0, 64, 74
1, 211491, Note_on_c, 0, 73, 84
1, 211496, Note_on_c, 0, 61, 79
1, 211503, Note_on_c, 0, 52, 62
1, 211515, Note_off_c, 0, 64, 68
1, 211533, Note_off_c, 0, 52, 66
1, 211721, Control_c, 0, 67, 9
1, 211732, Note_off_c, 0, 61, 64
1, 211736, Control_c, 0, 67, 9
1, 211744, Note_off_c, 0, 73, 62
1, 211750, Control_c, 0, 67, 10
1, 211765, Control_c, 0, 67, 11
1, 211789, Note_on_c, 0, 54, 74
1, 211790, Note_on_c, 0, 42, 70
1, 211819, Note_off_c, 0, 54, 68
1, 211823, Note_off_c, 0, 42, 65
1, 211988, Note_on_c, 0, 75, 74
1, 211989, Control_c, 0, 67, 10
1, 211992, Note_on_c, 0, 69, 75
1, 212013, Note_on_c, 0, 73, 44
1, 212015, Note_off_c, 0, 75, 66
1, 212017, Note_off_c, 0, 69, 68
1, 212033, Control_c, 0, 67, 9
1, 212038, Note_off_c, 0, 73, 53
1, 212063, Control_c, 0, 67, 9
1, 212077, Note_on_c, 0, 56, 82
1, 212078, Note_on_c, 0, 68, 84
1, 212079, Note_on_c, 0, 44, 68
1, 212079, Note_on_c, 0, 73, 72
1, 212081, Note_on_c, 0, 76, 79
1, 212099, Note_off_c, 0, 68, 68
1, 212100, Note_off_c, 0, 56, 68
1, 212103, Note_off_c, 0, 73, 69
1, 212105, Note_off_c, 0, 76, 66
1, 212107, Control_c, 0, 67, 0
1, 212108, Note_off_c, 0, 44, 65
1, 212376, Note_on_c, 0, 75, 89
1, 212379, Note_on_c, 0, 66, 84
1, 212383, Note_on_c, 0, 68, 81
1, 212390, Note_on_c, 0, 72, 71
1, 212400, Note_off_c, 0, 66, 70
1, 212404, Note_off_c, 0, 68, 70
1, 212415, Note_off_c, 0, 72, 68
1, 212416, Note_off_c, 0, 75, 57
1, 212588, Note_on_c, 0, 44, 92
1, 212589, Note_on_c, 0, 32, 78
1, 212611, Note_off_c, 0, 44, 67
1, 212615, Note_off_c, 0, 32, 64
1, 212633, Control_c, 0, 64, 54
1, 212647, Control_c, 0, 64, 67
1, 212662, Control_c, 0, 64, 71
1, 212675, Note_on_c, 0, 49, 93
1, 212677, Control_c, 0, 64, 75
1, 212678, Note_on_c, 0, 37, 89
1, 212678, Note_on_c, 0, 68, 75
1, 212678, Note_on_c, 0, 73, 101
1, 212683, Note_on_c, 0, 64, 83
1, 212692, Control_c, 0, 64, 83
1, 212694, Note_off_c, 0, 49, 73
1, 212704, Note_off_c, 0, 37, 66
1, 212707, Control_c, 0, 64, 99
1, 212722, Control_c, 0, 64, 127
1, 213011, Control_c, 0, 64, 125
1, 213026, Control_c, 0, 64, 68
1, 213038, Note_on_c, 0, 25, 101
1, 213041, Control_c, 0, 64, 43
1, 213065, Note_off_c, 0, 25, 70
1, 213071, Control_c, 0, 64, 60
1, 213086, Control_c, 0, 64, 69
1, 213101, Control_c, 0, 64, 99
1, 213115, Control_c, 0, 64, 127
1, 213131, Note_off_c, 0, 64, 58
1, 213157, Note_off_c, 0, 73, 61
1, 213164, Note_off_c, 0, 68, 61
1, 213280, Note_on_c, 0, 76, 102
1, 213285, Note_on_c, 0, 64, 90
1, 213309, Note_off_c, 0, 64, 68
1, 213312, Note_off_c, 0, 76, 69
1, 213367, Control_c, 0, 64, 100
1, 213379, Note_on_c, 0, 68, 94
1, 213381, Note_on_c, 0, 80, 82
1, 213382, Control_c, 0, 64, 0
1, 213394, Note_off_c, 0, 80, 67
1, 213397, Note_off_c, 0, 68, 72
1, 213673, Note_on_c, 0, 58, 81
1, 213674, Note_on_c, 0, 70, 77
1, 213697, Note_off_c, 0, 58, 67
1, 213698, Note_off_c, 0, 70, 66
1, 213865, Control_c, 0, 67, 29
1, 213879, Control_c, 0, 67, 45
1, 213891, Note_on_c, 0, 61, 74
1, 213894, Control_c, 0, 67, 57
1, 213896, Note_on_c, 0, 49, 53
1, 213909, Control_c, 0, 67, 61
1, 213917, Note_off_c, 0, 61, 68
1, 213922, Note_off_c, 0, 49, 56
1, 213971, Note_on_c, 0, 63, 76
1, 213976, Note_on_c, 0, 71, 77
1, 213977, Note_on_c, 0, 59, 71
1, 213980, Note_on_c, 0, 51, 67
1, 213995, Note_off_c, 0, 63, 69
1, 214009, Note_off_c, 0, 51, 65
1, 214028, Control_c, 0, 67, 62
1, 214102, Control_c, 0, 67, 62
1, 214132, Control_c, 0, 67, 63
1, 214161, Control_c, 0, 67, 64
1, 214239, Note_off_c, 0, 59, 64
1, 214264, Control_c, 0, 67, 65
1, 214269, Note_off_c, 0, 71, 62
1, 214279, Note_on_c, 0, 52, 73
1, 214286, Note_on_c, 0, 40, 69
1, 214305, Note_off_c, 0, 52, 67
1, 214311, Note_off_c, 0, 40, 66
1, 214490, Note_on_c, 0, 73, 73
1, 214494, Control_c, 0, 67, 64
1, 214510, Note_on_c, 0, 71, 49
1, 214513, Note_on_c, 0, 68, 44
1, 214527, Note_off_c, 0, 73, 62
1, 214533, Note_off_c, 0, 71, 59
1, 214543, Note_off_c, 0, 68, 48
1, 214554, Control_c, 0, 67, 64
1, 214568, Control_c, 0, 67, 62
1, 214578, Note_on_c, 0, 75, 83
1, 214580, Note_on_c, 0, 66, 80
1, 214580, Note_on_c, 0, 71, 79
1, 214581, Note_on_c, 0, 42, 72
1, 214583, Control_c, 0, 67, 62
1, 214591, Note_on_c, 0, 54, 60
1, 214598, Control_c, 0, 67, 61
1, 214603, Note_off_c, 0, 66, 68
1, 214610, Note_off_c, 0, 71, 62
1, 214612, Note_off_c, 0, 42, 65
1, 214613, Control_c, 0, 67, 60
1, 214616, Note_off_c, 0, 54, 39
1, 214621, Note_off_c, 0, 75, 49
1, 214628, Control_c, 0, 67, 59
1, 214642, Control_c, 0, 67, 59
1, 214657, Control_c, 0, 67, 57
1, 214672, Control_c, 0, 67, 56
1, 214716, Control_c, 0, 67, 56
1, 214731, Control_c, 0, 67, 55
1, 214746, Control_c, 0, 67, 54
1, 214761, Control_c, 0, 67, 53
1, 214791, Control_c, 0, 67, 52
1, 214806, Control_c, 0, 67, 52
1, 214821, Control_c, 0, 67, 51
1, 214835, Control_c, 0, 67, 49
1, 214850, Control_c, 0, 67, 47
1, 214864, Note_on_c, 0, 73, 83
1, 214867, Note_on_c, 0, 64, 81
1, 214869, Note_on_c, 0, 66, 76
1, 214870, Note_on_c, 0, 70, 76
1, 214880, Control_c, 0, 64, 12
1, 214880, Control_c, 0, 67, 48
1, 214890, Note_off_c, 0, 64, 68
1, 214890, Note_off_c, 0, 70, 72
1, 214894, Control_c, 0, 64, 18
1, 214895, Note_off_c, 0, 66, 67
1, 214898, Note_off_c, 0, 73, 65
1, 214909, Control_c, 0, 64, 23
1, 214924, Control_c, 0, 64, 30
1, 214924, Control_c, 0, 67, 47
1, 214939, Control_c, 0, 64, 36
1, 214954, Control_c, 0, 64, 41
1, 214968, Control_c, 0, 64, 39
1, 214968, Control_c, 0, 67, 48
1, 214983, Control_c, 0, 64, 19
1, 214998, Control_c, 0, 64, 0
1, 215072, Control_c, 0, 67, 47
1, 215087, Note_on_c, 0, 42, 76
1, 215089, Note_on_c, 0, 30, 61
1, 215101, Control_c, 0, 67, 46
1, 215116, Control_c, 0, 67, 44
1, 215119, Note_off_c, 0, 42, 64
1, 215123, Note_off_c, 0, 30, 56
1, 215131, Control_c, 0, 67, 42
1, 215146, Control_c, 0, 67, 38
1, 215148, Note_on_c, 0, 71, 88
1, 215151, Note_on_c, 0, 44, 95
1, 215151, Note_on_c, 0, 59, 90
1, 215153, Note_on_c, 0, 63, 89
1, 215153, Note_on_c, 0, 66, 80
1, 215164, Note_on_c, 0, 32, 83
1, 215169, Control_c, 0, 67, 31
1, 215184, Control_c, 0, 67, 11
1, 215185, Note_off_c, 0, 44, 70
1, 215185, Note_off_c, 0, 66, 69
1, 215187, Note_off_c, 0, 59, 66
1, 215190, Note_off_c, 0, 63, 64
1, 215190, Note_off_c, 0, 71, 64
1, 215193, Note_off_c, 0, 32, 66
1, 215199, Control_c, 0, 67, 0
1, 215478, Note_on_c, 0, 66, 76
1, 215479, Note_on_c, 0, 54, 80
1, 215480, Note_on_c, 0, 61, 74
1, 215482, Note_on_c, 0, 46, 83
1, 215486, Note_on_c, 0, 64, 65
1, 215494, Note_on_c, 0, 34, 56
1, 215503, Note_off_c, 0, 54, 68
1, 215506, Note_off_c, 0, 61, 68
1, 215506, Note_off_c, 0, 46, 67
1, 215515, Note_off_c, 0, 64, 66
1, 215516, Note_off_c, 0, 66, 59
1, 215527, Note_off_c, 0, 34, 55
1, 215704, Note_on_c, 0, 54, 67
1, 215783, Note_on_c, 0, 53, 68
1, 215783, Note_on_c, 0, 56, 71
1, 215784, Note_off_c, 0, 54, 62
1, 215795, Note_on_c, 0, 47, 58
1, 215799, Note_on_c, 0, 35, 51
1, 215810, Note_off_c, 0, 53, 66
1, 215813, Note_off_c, 0, 56, 66
1, 215932, Control_c, 0, 66, 127
1, 216076, Note_off_c, 0, 35, 59
1, 216091, Note_on_c, 0, 52, 64
1, 216092, Note_off_c, 0, 47, 62
1, 216094, Note_on_c, 0, 55, 63
1, 216094, Note_on_c, 0, 58, 69
1, 216112, Note_off_c, 0, 52, 64
1, 216120, Note_off_c, 0, 58, 66
1, 216121, Note_off_c, 0, 55, 64
1, 216319, Note_on_c, 0, 59, 61
1, 216329, Note_on_c, 0, 56, 51
1, 216367, Note_off_c, 0, 56, 62
1, 216383, Note_on_c, 0, 55, 54
1, 216385, Note_on_c, 0, 61, 73
1, 216385, Note_off_c, 0, 59, 58
1, 216388, Note_on_c, 0, 58, 75
1, 216407, Note_off_c, 0, 55, 58
1, 216407, Note_off_c, 0, 61, 67
1, 216411, Note_off_c, 0, 58, 67
1, 216672, Note_on_c, 0, 54, 65
1, 216679, Note_on_c, 0, 57, 72
1, 216680, Note_on_c, 0, 60, 66
1, 216681, Note_on_c, 0, 63, 68
1, 216701, Note_off_c, 0, 54, 67
1, 216704, Note_off_c, 0, 57, 67
1, 216707, Note_off_c, 0, 60, 67
1, 216710, Note_off_c, 0, 63, 67
1, 216892, Note_on_c, 0, 63, 72
1, 216893, Note_on_c, 0, 54, 64
1, 216895, Note_on_c, 0, 45, 48
1, 216898, Note_on_c, 0, 60, 64
1, 216934, Note_off_c, 0, 60, 63
1, 216937, Note_off_c, 0, 45, 65
1, 216955, Note_on_c, 0, 44, 59
1, 216958, Note_off_c, 0, 54, 66
1, 216967, Note_on_c, 0, 59, 85
1, 216968, Note_on_c, 0, 52, 82
1, 216968, Note_off_c, 0, 63, 65
1, 216974, Note_on_c, 0, 64, 75
1, 216991, Note_off_c, 0, 59, 67
1, 217001, Note_off_c, 0, 44, 64
1, 217001, Note_off_c, 0, 64, 67
1, 217010, Note_off_c, 0, 52, 63
1, 217277, Note_on_c, 0, 64, 79
1, 217277, Note_on_c, 0, 58, 78
1, 217278, Note_on_c, 0, 61, 77
1, 217280, Note_on_c, 0, 43, 71
1, 217286, Note_on_c, 0, 49, 57
1, 217300, Note_off_c, 0, 61, 70
1, 217301, Note_off_c, 0, 58, 67
1, 217302, Note_off_c, 0, 64, 68
1, 217307, Note_off_c, 0, 43, 65
1, 217310, Note_off_c, 0, 49, 57
1, 217545, Note_on_c, 0, 66, 71
1, 217548, Note_on_c, 0, 63, 61
1, 217555, Note_on_c, 0, 59, 55
1, 217626, Note_on_c, 0, 71, 76
1, 217658, Note_on_c, 0, 47, 46
1, 217664, Note_on_c, 0, 35, 45
1, 217664, Note_on_c, 0, 42, 45
1, 217666, Note_off_c, 0, 66, 58
1, 217697, Note_off_c, 0, 63, 34
1, 217771, Control_c, 0, 64, 48
1, 217785, Control_c, 0, 64, 61
1, 217800, Control_c, 0, 64, 66
1, 217815, Control_c, 0, 64, 74
1, 217830, Control_c, 0, 64, 92
1, 217845, Control_c, 0, 64, 127
1, 217903, Control_c, 0, 66, 0
1, 217909, Note_off_c, 0, 59, 60
1, 217921, Note_off_c, 0, 71, 62
1, 217950, Note_off_c, 0, 47, 62
1, 217965, Note_off_c, 0, 35, 39
1, 217992, Note_off_c, 0, 42, 62
1, 218098, Note_on_c, 0, 71, 94
1, 218104, Note_on_c, 0, 59, 87
1, 218128, Note_off_c, 0, 59, 69
1, 218135, Note_off_c, 0, 71, 67
1, 218178, Control_c, 0, 64, 97
1, 218189, Note_on_c, 0, 73, 100
1, 218192, Control_c, 0, 64, 61
1, 218193, Note_on_c, 0, 61, 89
1, 218207, Control_c, 0, 64, 0
1, 218217, Note_off_c, 0, 61, 67
1, 218234, Note_off_c, 0, 73, 64
1, 218481, Note_on_c, 0, 66, 95
1, 218481, Note_on_c, 0, 75, 90
1, 218482, Note_on_c, 0, 71, 93
1, 218511, Note_off_c, 0, 71, 67
1, 218514, Note_off_c, 0, 66, 62
1, 218522, Note_off_c, 0, 75, 60
1, 218529, Note_on_c, 0, 73, 17
1, 218541, Note_off_c, 0, 73, 39
1, 218690, Note_on_c, 0, 45, 80
1, 218694, Note_on_c, 0, 59, 77
1, 218698, Note_on_c, 0, 57, 76
1, 218717, Note_off_c, 0, 59, 68
1, 218723, Note_off_c, 0, 45, 67
1, 218725, Note_off_c, 0, 57, 68
1, 218773, Note_on_c, 0, 71, 91
1, 218774, Note_on_c, 0, 44, 86
1, 218774, Note_on_c, 0, 56, 95
1, 218777, Note_on_c, 0, 76, 98
1, 218781, Note_on_c, 0, 64, 92
1, 218808, Note_off_c, 0, 56, 65
1, 218821, Note_off_c, 0, 44, 61
1, 218846, Control_c, 0, 64, 21
1, 218861, Control_c, 0, 64, 52
1, 218875, Control_c, 0, 64, 64
1, 218890, Control_c, 0, 64, 72
1, 218913, Control_c, 0, 64, 86
1, 218928, Control_c, 0, 64, 127
1, 219075, Control_c, 0, 64, 110
1, 219090, Control_c, 0, 64, 72
1, 219104, Note_on_c, 0, 40, 86
1, 219104, Note_on_c, 0, 52, 89
1, 219105, Control_c, 0, 64, 52
1, 219120, Control_c, 0, 64, 0
1, 219125, Note_off_c, 0, 64, 61
1, 219131, Note_off_c, 0, 71, 61
1, 219149, Note_off_c, 0, 76, 65
1, 219149, Control_c, 0, 64, 23
1, 219165, Control_c, 0, 64, 54
1, 219180, Control_c, 0, 64, 63
1, 219195, Control_c, 0, 64, 69
1, 219210, Control_c, 0, 64, 77
1, 219225, Control_c, 0, 64, 89
1, 219239, Control_c, 0, 64, 114
1, 219254, Control_c, 0, 64, 127
1, 219273, Note_off_c, 0, 52, 63
1, 219327, Note_off_c, 0, 40, 61
1, 219335, Note_on_c, 0, 80, 92
1, 219337, Note_on_c, 0, 68, 96
1, 219369, Note_off_c, 0, 80, 59
1, 219373, Note_off_c, 0, 68, 62
1, 219417, Control_c, 0, 64, 84
1, 219420, Note_on_c, 0, 75, 91
1, 219421, Note_on_c, 0, 42, 85
1, 219421, Note_on_c, 0, 54, 94
1, 219421, Note_on_c, 0, 78, 81
1, 219423, Note_on_c, 0, 66, 87
1, 219425, Note_on_c, 0, 72, 78
1, 219427, Note_on_c, 0, 71, 86
1, 219432, Control_c, 0, 64, 54
1, 219441, Note_off_c, 0, 66, 72
1, 219447, Control_c, 0, 64, 0
1, 219462, Note_on_c, 0, 76, 41
1, 219462, Note_off_c, 0, 71, 60
1, 219467, Note_off_c, 0, 78, 61
1, 219469, Note_off_c, 0, 72, 62
1, 219477, Note_off_c, 0, 75, 62
1, 219490, Note_off_c, 0, 76, 36
1, 219750, Note_off_c, 0, 54, 66
1, 219753, Note_on_c, 0, 78, 90
1, 219754, Note_on_c, 0, 66, 92
1, 219755, Note_on_c, 0, 70, 88
1, 219758, Note_on_c, 0, 73, 82
1, 219766, Note_off_c, 0, 42, 66
1, 219778, Note_off_c, 0, 66, 66
1, 219781, Note_off_c, 0, 73, 69
1, 219787, Note_off_c, 0, 70, 65
1, 219806, Note_off_c, 0, 78, 65
1, 219988, Control_c, 0, 64, 40
1, 219996, Note_on_c, 0, 42, 79
1, 219997, Note_on_c, 0, 54, 89
1, 220003, Control_c, 0, 64, 60
1, 220018, Control_c, 0, 64, 65
1, 220021, Note_off_c, 0, 54, 70
1, 220029, Note_off_c, 0, 42, 67
1, 220033, Control_c, 0, 64, 69
1, 220048, Control_c, 0, 64, 74
1, 220062, Control_c, 0, 64, 84
1, 220077, Control_c, 0, 64, 103
1, 220092, Control_c, 0, 64, 127
1, 220112, Note_on_c, 0, 78, 93
1, 220112, Note_on_c, 0, 66, 90
1, 220112, Note_on_c, 0, 75, 90
1, 220116, Note_on_c, 0, 47, 85
1, 220116, Note_on_c, 0, 71, 90
1, 220117, Note_on_c, 0, 59, 89
1, 220121, Control_c, 0, 64, 93
1, 220136, Control_c, 0, 64, 67
1, 220151, Control_c, 0, 64, 36
1, 220166, Control_c, 0, 64, 0
1, 220210, Control_c, 0, 64, 51
1, 220225, Control_c, 0, 64, 62
1, 220240, Control_c, 0, 64, 67
1, 220255, Control_c, 0, 64, 73
1, 220261, Note_off_c, 0, 59, 61
1, 220270, Control_c, 0, 64, 84
1, 220285, Control_c, 0, 64, 106
1, 220299, Control_c, 0, 64, 127
1, 220305, Note_off_c, 0, 47, 63
1, 220587, Control_c, 0, 64, 101
1, 220589, Note_on_c, 0, 35, 88
1, 220602, Control_c, 0, 64, 86
1, 220617, Control_c, 0, 64, 74
1, 220632, Control_c, 0, 64, 66
1, 220647, Control_c, 0, 64, 54
1, 220661, Control_c, 0, 64, 0
1, 220718, Note_off_c, 0, 66, 61
1, 220727, Note_off_c, 0, 71, 62
1, 220738, Note_off_c, 0, 75, 61
1, 220744, Note_off_c, 0, 78, 62
1, 220751, Control_c, 0, 64, 52
1, 220766, Control_c, 0, 64, 65
1, 220781, Control_c, 0, 64, 74
1, 220796, Control_c, 0, 64, 93
1, 220810, Control_c, 0, 64, 127
1, 220890, Note_off_c, 0, 35, 56
1, 220925, Note_on_c, 0, 78, 99
1, 220929, Note_on_c, 0, 66, 90
1, 220969, Note_off_c, 0, 78, 65
1, 220972, Note_off_c, 0, 66, 62
1, 221030, Note_on_c, 0, 81, 106
1, 221033, Note_on_c, 0, 69, 95
1, 221048, Control_c, 0, 64, 91
1, 221060, Note_off_c, 0, 81, 70
1, 221062, Note_off_c, 0, 69, 66
1, 221063, Control_c, 0, 64, 60
1, 221077, Control_c, 0, 64, 0
1, 221371, Note_on_c, 0, 72, 90
1, 221381, Note_on_c, 0, 60, 75
1, 221400, Note_off_c, 0, 72, 66
1, 221405, Note_off_c, 0, 60, 70
1, 221608, Note_on_c, 0, 63, 59
1, 221620, Note_on_c, 0, 51, 38
1, 221636, Note_off_c, 0, 63, 66
1, 221651, Note_off_c, 0, 51, 51
1, 221671, Note_on_c, 0, 64, 63
1, 221690, Note_on_c, 0, 73, 80
1, 221691, Note_on_c, 0, 52, 59
1, 221699, Note_on_c, 0, 61, 67
1, 221711, Note_off_c, 0, 64, 63
1, 221731, Note_off_c, 0, 52, 64
1, 221886, Control_c, 0, 67, 11
1, 221908, Control_c, 0, 67, 14
1, 221923, Control_c, 0, 67, 17
1, 221938, Control_c, 0, 67, 21
1, 221952, Control_c, 0, 67, 27
1, 221967, Control_c, 0, 67, 35
1, 221975, Note_off_c, 0, 61, 63
1, 221982, Control_c, 0, 67, 42
1, 221986, Note_off_c, 0, 73, 62
1, 221997, Control_c, 0, 67, 46
1, 222006, Note_on_c, 0, 42, 69
1, 222010, Note_on_c, 0, 54, 64
1, 222012, Control_c, 0, 67, 47
1, 222038, Note_off_c, 0, 42, 63
1, 222040, Note_off_c, 0, 54, 65
1, 222041, Control_c, 0, 67, 47
1, 222056, Control_c, 0, 67, 48
1, 222071, Control_c, 0, 67, 49
1, 222101, Control_c, 0, 67, 49
1, 222160, Control_c, 0, 67, 50
1, 222189, Control_c, 0, 67, 51
1, 222210, Note_on_c, 0, 75, 71
1, 222216, Note_on_c, 0, 69, 68
1, 222219, Control_c, 0, 67, 51
1, 222237, Note_off_c, 0, 75, 68
1, 222242, Note_off_c, 0, 69, 68
1, 222265, Note_on_c, 0, 73, 3
1, 222292, Note_off_c, 0, 73, 0
1, 222292, Note_on_c, 0, 73, 12
1, 222294, Note_on_c, 0, 76, 84
1, 222297, Note_on_c, 0, 68, 82
1, 222306, Note_on_c, 0, 44, 66
1, 222312, Note_on_c, 0, 56, 53
1, 222322, Note_off_c, 0, 68, 66
1, 222326, Note_off_c, 0, 76, 62
1, 222331, Note_off_c, 0, 73, 59
1, 222338, Note_off_c, 0, 44, 64
1, 222338, Note_off_c, 0, 56, 58
1, 222413, Control_c, 0, 67, 51
1, 222443, Control_c, 0, 67, 50
1, 222502, Control_c, 0, 67, 49
1, 222600, Note_on_c, 0, 66, 83
1, 222601, Note_on_c, 0, 75, 77
1, 222606, Note_on_c, 0, 68, 77
1, 222614, Note_on_c, 0, 72, 65
1, 222623, Note_off_c, 0, 66, 69
1, 222628, Note_off_c, 0, 75, 63
1, 222630, Note_off_c, 0, 68, 68
1, 222635, Control_c, 0, 67, 49
1, 222641, Note_off_c, 0, 72, 67
1, 222657, Control_c, 0, 67, 48
1, 222672, Control_c, 0, 67, 47
1, 222746, Control_c, 0, 67, 47
1, 222775, Control_c, 0, 67, 46
1, 222790, Control_c, 0, 67, 44
1, 222805, Control_c, 0, 64, 22
1, 222805, Control_c, 0, 67, 42
1, 222820, Control_c, 0, 64, 46
1, 222822, Note_on_c, 0, 32, 70
1, 222824, Note_on_c, 0, 44, 78
1, 222835, Control_c, 0, 64, 55
1, 222849, Control_c, 0, 64, 59
1, 222849, Control_c, 0, 67, 41
1, 222850, Note_off_c, 0, 44, 65
1, 222854, Note_off_c, 0, 32, 65
1, 222864, Control_c, 0, 64, 62
1, 222864, Control_c, 0, 67, 40
1, 222879, Control_c, 0, 64, 62
1, 222879, Control_c, 0, 67, 38
1, 222894, Control_c, 0, 64, 58
1, 222894, Control_c, 0, 67, 36
1, 222908, Note_on_c, 0, 73, 91
1, 222908, Control_c, 0, 64, 41
1, 222908, Control_c, 0, 67, 35
1, 222912, Note_on_c, 0, 68, 81
1, 222914, Note_on_c, 0, 37, 79
1, 222916, Note_on_c, 0, 49, 79
1, 222918, Note_on_c, 0, 64, 78
1, 222923, Control_c, 0, 64, 0
1, 222923, Control_c, 0, 67, 33
1, 222938, Control_c, 0, 67, 32
1, 222953, Control_c, 0, 64, 29
1, 222953, Control_c, 0, 67, 30
1, 222968, Control_c, 0, 64, 56
1, 222968, Control_c, 0, 67, 27
1, 222982, Control_c, 0, 64, 67
1, 222982, Control_c, 0, 67, 24
1, 222997, Control_c, 0, 64, 79
1, 222997, Control_c, 0, 67, 24
1, 223000, Note_off_c, 0, 49, 61
1, 223012, Control_c, 0, 64, 127
1, 223012, Control_c, 0, 67, 23
1, 223042, Control_c, 0, 67, 22
1, 223057, Control_c, 0, 67, 21
1, 223072, Control_c, 0, 67, 18
1, 223074, Note_off_c, 0, 37, 60
1, 223087, Control_c, 0, 67, 14
1, 223101, Control_c, 0, 67, 11
1, 223116, Control_c, 0, 67, 10
1, 223176, Control_c, 0, 67, 9
1, 223265, Control_c, 0, 67, 10
1, 223282, Note_on_c, 0, 25, 93
1, 223295, Control_c, 0, 67, 11
1, 223310, Control_c, 0, 64, 109
1, 223324, Control_c, 0, 64, 74
1, 223339, Control_c, 0, 64, 57
1, 223339, Control_c, 0, 67, 10
1, 223354, Control_c, 0, 64, 22
1, 223354, Control_c, 0, 67, 9
1, 223369, Control_c, 0, 64, 34
1, 223384, Control_c, 0, 64, 53
1, 223386, Note_off_c, 0, 64, 59
1, 223406, Control_c, 0, 64, 62
1, 223411, Note_off_c, 0, 68, 62
1, 223418, Note_off_c, 0, 73, 59
1, 223420, Control_c, 0, 64, 69
1, 223435, Control_c, 0, 64, 80
1, 223450, Control_c, 0, 64, 127
1, 223480, Control_c, 0, 67, 9
1, 223495, Control_c, 0, 67, 8
1, 223510, Control_c, 0, 67, 0
1, 223540, Note_on_c, 0, 76, 96
1, 223543, Note_on_c, 0, 64, 90
1, 223576, Note_off_c, 0, 76, 69
1, 223578, Note_off_c, 0, 64, 65
1, 223605, Note_off_c, 0, 25, 60
1, 223632, Note_on_c, 0, 80, 102
1, 223636, Note_on_c, 0, 68, 97
1, 223643, Control_c, 0, 64, 86
1, 223657, Note_off_c, 0, 80, 63
1, 223658, Control_c, 0, 64, 56
1, 223668, Note_off_c, 0, 68, 63
1, 223672, Control_c, 0, 64, 0
1, 223687, Control_c, 0, 67, 8
1, 223702, Control_c, 0, 67, 9
1, 223717, Control_c, 0, 67, 11
1, 223731, Control_c, 0, 67, 11
1, 223746, Control_c, 0, 67, 12
1, 223761, Control_c, 0, 67, 13
1, 223776, Control_c, 0, 67, 14
1, 223791, Control_c, 0, 67, 15
1, 223805, Control_c, 0, 67, 16
1, 223820, Control_c, 0, 67, 18
1, 223835, Control_c, 0, 67, 19
1, 223850, Control_c, 0, 67, 21
1, 223865, Control_c, 0, 67, 23
1, 223879, Control_c, 0, 67, 24
1, 223924, Control_c, 0, 67, 25
1, 223939, Note_on_c, 0, 70, 90
1, 223939, Control_c, 0, 67, 26
1, 223945, Note_on_c, 0, 58, 89
1, 223954, Control_c, 0, 67, 26
1, 223967, Note_off_c, 0, 58, 71
1, 223983, Note_off_c, 0, 70, 59
1, 223999, Control_c, 0, 67, 26
1, 224118, Control_c, 0, 64, 23
1, 224133, Control_c, 0, 64, 40
1, 224154, Control_c, 0, 64, 46
1, 224169, Control_c, 0, 64, 43
1, 224184, Note_on_c, 0, 61, 73
1, 224184, Control_c, 0, 64, 26
1, 224187, Note_on_c, 0, 49, 56
1, 224199, Control_c, 0, 64, 0
1, 224208, Note_off_c, 0, 61, 69
1, 224211, Note_off_c, 0, 49, 58
1, 224214, Control_c, 0, 67, 25
1, 224261, Note_on_c, 0, 71, 84
1, 224266, Note_on_c, 0, 59, 78
1, 224283, Note_on_c, 0, 63, 64
1, 224288, Control_c, 0, 67, 24
1, 224289, Note_on_c, 0, 51, 57
1, 224301, Note_off_c, 0, 63, 64
1, 224312, Note_off_c, 0, 51, 59
1, 224318, Control_c, 0, 67, 24
1, 224421, Control_c, 0, 67, 24
1, 224451, Control_c, 0, 67, 25
1, 224466, Control_c, 0, 67, 26
1, 224481, Control_c, 0, 64, 11
1, 224481, Control_c, 0, 67, 27
1, 224495, Control_c, 0, 64, 13
1, 224495, Control_c, 0, 67, 27
1, 224510, Control_c, 0, 64, 15
1, 224525, Control_c, 0, 67, 28
1, 224535, Note_off_c, 0, 59, 63
1, 224540, Control_c, 0, 64, 16
1, 224554, Control_c, 0, 64, 17
1, 224567, Note_off_c, 0, 71, 61
1, 224569, Control_c, 0, 64, 18
1, 224577, Note_on_c, 0, 52, 67
1, 224583, Note_on_c, 0, 40, 62
1, 224584, Control_c, 0, 64, 19
1, 224599, Control_c, 0, 64, 21
1, 224606, Note_off_c, 0, 52, 66
1, 224614, Control_c, 0, 64, 22
1, 224616, Note_off_c, 0, 40, 64
1, 224628, Control_c, 0, 64, 22
1, 224643, Control_c, 0, 64, 23
1, 224658, Control_c, 0, 64, 23
1, 224673, Control_c, 0, 64, 24
1, 224688, Control_c, 0, 64, 24
1, 224717, Control_c, 0, 64, 25
1, 224717, Control_c, 0, 67, 27
1, 224732, Control_c, 0, 64, 25
1, 224748, Control_c, 0, 64, 26
1, 224748, Control_c, 0, 67, 27
1, 224763, Control_c, 0, 64, 27
1, 224773, Note_on_c, 0, 73, 78
1, 224777, Control_c, 0, 64, 27
1, 224781, Note_on_c, 0, 68, 68
1, 224792, Note_on_c, 0, 71, 49
1, 224792, Control_c, 0, 64, 28
1, 224792, Control_c, 0, 67, 26
1, 224807, Control_c, 0, 64, 28
1, 224807, Control_c, 0, 67, 26
1, 224810, Note_off_c, 0, 68, 66
1, 224814, Note_off_c, 0, 71, 59
1, 224821, Note_off_c, 0, 73, 62
1, 224822, Control_c, 0, 67, 24
1, 224837, Control_c, 0, 64, 29
1, 224837, Control_c, 0, 67, 24
1, 224851, Control_c, 0, 64, 29
1, 224866, Control_c, 0, 64, 30
1, 224872, Note_on_c, 0, 66, 80
1, 224872, Note_on_c, 0, 75, 79
1, 224874, Note_on_c, 0, 71, 78
1, 224875, Note_on_c, 0, 42, 73
1, 224903, Note_on_c, 0, 54, 49
1, 224904, Note_off_c, 0, 66, 66
1, 224904, Note_off_c, 0, 71, 70
1, 224911, Note_off_c, 0, 42, 65
1, 224919, Control_c, 0, 67, 23
1, 224922, Note_off_c, 0, 75, 53
1, 224930, Note_off_c, 0, 54, 57
1, 224948, Control_c, 0, 64, 30
1, 224977, Control_c, 0, 64, 31
1, 224992, Control_c, 0, 64, 28
1, 224992, Control_c, 0, 67, 22
1, 225007, Control_c, 0, 64, 0
1, 225007, Control_c, 0, 67, 22
1, 225022, Control_c, 0, 67, 20
1, 225037, Control_c, 0, 67, 17
1, 225051, Control_c, 0, 67, 16
1, 225066, Control_c, 0, 67, 14
1, 225081, Control_c, 0, 67, 14
1, 225096, Control_c, 0, 67, 13
1, 225126, Control_c, 0, 67, 12
1, 225140, Control_c, 0, 67, 11
1, 225155, Control_c, 0, 67, 11
1, 225170, Control_c, 0, 67, 9
1, 225180, Note_on_c, 0, 73, 76
1, 225183, Note_on_c, 0, 70, 70
1, 225185, Control_c, 0, 67, 8
1, 225187, Note_on_c, 0, 64, 69
1, 225193, Note_on_c, 0, 66, 57
1, 225200, Control_c, 0, 67, 0
1, 225207, Note_off_c, 0, 70, 70
1, 225215, Note_off_c, 0, 64, 68
1, 225215, Note_off_c, 0, 73, 66
1, 225225, Note_off_c, 0, 66, 65
1, 225318, Control_c, 0, 64, 16
1, 225333, Control_c, 0, 64, 18
1, 225436, Note_on_c, 0, 42, 44
1, 225444, Note_on_c, 0, 32, 29
1, 225445, Note_off_c, 0, 32, 127
1, 225477, Note_off_c, 0, 42, 33
1, 225492, Note_on_c, 0, 71, 69
1, 225493, Note_on_c, 0, 32, 29
1, 225495, Control_c, 0, 64, 13
1, 225503, Note_on_c, 0, 59, 68
1, 225504, Note_on_c, 0, 66, 60
1, 225507, Note_on_c, 0, 44, 71
1, 225509, Note_on_c, 0, 63, 56
1, 225510, Control_c, 0, 64, 9
1, 225518, Note_off_c, 0, 71, 68
1, 225525, Control_c, 0, 64, 0
1, 225540, Note_off_c, 0, 66, 64
1, 225543, Note_off_c, 0, 59, 63
1, 225549, Note_off_c, 0, 44, 63
1, 225549, Note_off_c, 0, 63, 63
1, 225555, Note_off_c, 0, 32, 50
1, 225668, Control_c, 0, 66, 127
1, 225851, Note_on_c, 0, 66, 74
1, 225859, Note_on_c, 0, 54, 67
1, 225868, Note_on_c, 0, 64, 53
1, 225872, Note_on_c, 0, 34, 62
1, 225874, Note_on_c, 0, 61, 57
1, 225884, Note_on_c, 0, 46, 52
1, 225895, Note_off_c, 0, 54, 65
1, 225903, Note_off_c, 0, 64, 63
1, 225907, Note_off_c, 0, 34, 63
1, 225908, Note_off_c, 0, 61, 64
1, 225910, Note_off_c, 0, 46, 56
1, 225921, Note_off_c, 0, 66, 60
1, 226053, Control_c, 0, 66, 0
1, 226131, Note_on_c, 0, 54, 56
1, 226230, Note_on_c, 0, 47, 48
1, 226230, Note_off_c, 0, 54, 59
1, 226234, Note_on_c, 0, 56, 63
1, 226238, Note_on_c, 0, 53, 49
1, 226240, Note_on_c, 0, 35, 44
1, 226266, Note_off_c, 0, 56, 66
1, 226267, Note_off_c, 0, 53, 57
1, 226333, Control_c, 0, 66, 127
1, 226535, Note_on_c, 0, 58, 61
1, 226537, Note_on_c, 0, 52, 55
1, 226541, Note_on_c, 0, 55, 56
1, 226556, Note_off_c, 0, 35, 38
1, 226559, Note_off_c, 0, 52, 63
1, 226560, Note_off_c, 0, 47, 62
1, 226565, Note_off_c, 0, 58, 65
1, 226568, Note_off_c, 0, 55, 63
1, 226761, Note_on_c, 0, 59, 70
1, 226766, Note_on_c, 0, 56, 62
1, 226818, Note_off_c, 0, 56, 61
1, 226844, Note_on_c, 0, 55, 63
1, 226845, Note_on_c, 0, 61, 70
1, 226845, Note_off_c, 0, 59, 63
1, 226851, Note_on_c, 0, 58, 63
1, 226871, Note_off_c, 0, 61, 66
1, 226872, Note_off_c, 0, 55, 65
1, 226881, Note_off_c, 0, 58, 65
1, 227153, Note_on_c, 0, 54, 63
1, 227153, Note_on_c, 0, 63, 65
1, 227155, Note_on_c, 0, 57, 67
1, 227161, Note_on_c, 0, 60, 57
1, 227181, Note_off_c, 0, 54, 66
1, 227182, Note_off_c, 0, 63, 66
1, 227182, Note_off_c, 0, 57, 66
1, 227182, Note_off_c, 0, 60, 61
1, 227373, Note_on_c, 0, 63, 69
1, 227375, Note_on_c, 0, 54, 46
1, 227384, Note_on_c, 0, 45, 40
1, 227391, Note_on_c, 0, 60, 49
1, 227420, Note_off_c, 0, 45, 56
1, 227422, Note_on_c, 0, 44, 57
1, 227425, Note_off_c, 0, 60, 61
1, 227443, Note_off_c, 0, 54, 66
1, 227444, Note_on_c, 0, 59, 81
1, 227447, Note_off_c, 0, 63, 64
1, 227453, Note_on_c, 0, 52, 74
1, 227455, Note_on_c, 0, 64, 63
1, 227480, Note_off_c, 0, 59, 63
1, 227483, Note_off_c, 0, 44, 61
1, 227484, Note_off_c, 0, 52, 66
1, 227486, Note_off_c, 0, 64, 65
1, 227489, Note_on_c, 0, 51, 3
1, 227498, Note_off_c, 0, 51, 33
1, 227766, Note_on_c, 0, 58, 72
1, 227767, Note_on_c, 0, 61, 68
1, 227771, Note_on_c, 0, 64, 73
1, 227772, Note_on_c, 0, 49, 61
1, 227777, Note_on_c, 0, 43, 56
1, 227794, Note_off_c, 0, 61, 66
1, 227794, Note_off_c, 0, 58, 66
1, 227797, Note_off_c, 0, 64, 68
1, 227802, Note_off_c, 0, 49, 65
1, 227809, Note_off_c, 0, 43, 64
1, 228017, Note_on_c, 0, 66, 70
1, 228020, Note_on_c, 0, 63, 63
1, 228038, Note_on_c, 0, 59, 48
1, 228096, Note_on_c, 0, 71, 79
1, 228108, Note_off_c, 0, 63, 51
1, 228122, Note_on_c, 0, 42, 47
1, 228126, Note_on_c, 0, 47, 49
1, 228126, Note_off_c, 0, 66, 59
1, 228136, Note_on_c, 0, 35, 48
1, 228193, Control_c, 0, 64, 34
1, 228208, Control_c, 0, 64, 44
1, 228223, Control_c, 0, 64, 50
1, 228238, Control_c, 0, 64, 55
1, 228253, Control_c, 0, 64, 60
1, 228267, Control_c, 0, 64, 64
1, 228282, Control_c, 0, 64, 69
1, 228297, Control_c, 0, 64, 76
1, 228312, Control_c, 0, 64, 88
1, 228327, Control_c, 0, 64, 105
1, 228342, Control_c, 0, 64, 127
1, 228386, Control_c, 0, 66, 0
1, 228392, Note_off_c, 0, 59, 62
1, 228408, Note_off_c, 0, 71, 62
1, 228612, Note_on_c, 0, 71, 91
1, 228616, Note_on_c, 0, 59, 86
1, 228649, Note_off_c, 0, 59, 68
1, 228655, Note_off_c, 0, 71, 65
1, 228691, Control_c, 0, 64, 101
1, 228701, Note_on_c, 0, 73, 99
1, 228703, Note_off_c, 0, 47, 62
1, 228704, Note_on_c, 0, 61, 87
1, 228706, Control_c, 0, 64, 69
1, 228708, Note_off_c, 0, 35, 61
1, 228720, Control_c, 0, 64, 43
1, 228732, Note_off_c, 0, 61, 64
1, 228735, Control_c, 0, 64, 0
1, 228741, Note_off_c, 0, 42, 63
1, 228753, Note_off_c, 0, 73, 61
1, 228997, Note_on_c, 0, 75, 87
1, 228998, Note_on_c, 0, 71, 84
1, 229001, Note_on_c, 0, 66, 85
1, 229022, Note_off_c, 0, 66, 70
1, 229024, Note_off_c, 0, 71, 66
1, 229039, Note_off_c, 0, 75, 57
1, 229218, Note_on_c, 0, 45, 73
1, 229218, Note_on_c, 0, 59, 79
1, 229223, Note_on_c, 0, 57, 79
1, 229242, Note_off_c, 0, 59, 69
1, 229248, Note_off_c, 0, 57, 68
1, 229253, Note_off_c, 0, 45, 66
1, 229297, Note_on_c, 0, 71, 94
1, 229298, Note_on_c, 0, 76, 96
1, 229301, Note_on_c, 0, 44, 83
1, 229301, Note_on_c, 0, 64, 88
1, 229304, Note_on_c, 0, 56, 86
1, 229314, Control_c, 0, 64, 14
1, 229329, Control_c, 0, 64, 44
1, 229335, Note_off_c, 0, 56, 67
1, 229343, Control_c, 0, 64, 55
1, 229358, Note_off_c, 0, 44, 63
1, 229358, Control_c, 0, 64, 61
1, 229373, Control_c, 0, 64, 66
1, 229395, Control_c, 0, 64, 72
1, 229410, Control_c, 0, 64, 89
1, 229424, Control_c, 0, 64, 127
1, 229589, Control_c, 0, 64, 92
1, 229603, Control_c, 0, 64, 69
1, 229618, Control_c, 0, 64, 55
1, 229629, Note_on_c, 0, 52, 96
1, 229630, Note_on_c, 0, 40, 89
1, 229633, Control_c, 0, 64, 36
1, 229648, Control_c, 0, 64, 42
1, 229651, Note_off_c, 0, 64, 61
1, 229660, Note_off_c, 0, 71, 61
1, 229662, Control_c, 0, 64, 56
1, 229677, Control_c, 0, 64, 64
1, 229679, Note_off_c, 0, 76, 66
1, 229692, Control_c, 0, 64, 73
1, 229707, Control_c, 0, 64, 95
1, 229722, Control_c, 0, 64, 127
1, 229802, Note_off_c, 0, 52, 61
1, 229843, Note_on_c, 0, 68, 100
1, 229844, Note_on_c, 0, 80, 96
1, 229847, Note_off_c, 0, 40, 62
1, 229880, Note_off_c, 0, 68, 67
1, 229885, Note_off_c, 0, 80, 63
1, 229929, Control_c, 0, 64, 90
1, 229935, Note_on_c, 0, 75, 91
1, 229937, Note_on_c, 0, 78, 82
1, 229939, Note_on_c, 0, 66, 92
1, 229942, Note_on_c, 0, 42, 84
1, 229943, Note_on_c, 0, 54, 89
1, 229943, Note_on_c, 0, 71, 88
1, 229944, Control_c, 0, 64, 52
1, 229956, Note_on_c, 0, 70, 65
1, 229958, Control_c, 0, 64, 0
1, 229975, Note_off_c, 0, 66, 57
1, 229976, Note_off_c, 0, 70, 39
1, 229993, Note_off_c, 0, 71, 64
1, 230003, Note_off_c, 0, 78, 63
1, 230004, Note_off_c, 0, 75, 62
1, 230285, Note_on_c, 0, 78, 90
1, 230286, Note_on_c, 0, 66, 92
1, 230288, Note_on_c, 0, 70, 93
1, 230295, Note_on_c, 0, 73, 86
1, 230306, Note_off_c, 0, 54, 65
1, 230321, Note_off_c, 0, 42, 64
1, 230321, Note_off_c, 0, 66, 64
1, 230334, Note_off_c, 0, 70, 65
1, 230339, Note_off_c, 0, 73, 63
1, 230352, Note_off_c, 0, 78, 62
1, 230560, Control_c, 0, 64, 47
1, 230575, Control_c, 0, 64, 57
1, 230576, Note_on_c, 0, 54, 85
1, 230579, Note_on_c, 0, 42, 78
1, 230589, Control_c, 0, 64, 62
1, 230603, Note_off_c, 0, 54, 67
1, 230604, Control_c, 0, 64, 66
1, 230613, Note_off_c, 0, 42, 67
1, 230619, Control_c, 0, 64, 69
1, 230634, Control_c, 0, 64, 74
1, 230649, Control_c, 0, 64, 78
1, 230663, Control_c, 0, 64, 80
1, 230693, Control_c, 0, 64, 79
1, 230708, Control_c, 0, 64, 77
1, 230723, Control_c, 0, 64, 74
1, 230725, Note_on_c, 0, 59, 72
1, 230728, Note_on_c, 0, 71, 73
1, 230729, Note_on_c, 0, 66, 78
1, 230730, Note_on_c, 0, 78, 87
1, 230730, Note_on_c, 0, 75, 79
1, 230732, Note_on_c, 0, 47, 66
1, 230737, Control_c, 0, 64, 70
1, 230752, Control_c, 0, 64, 65
1, 230767, Control_c, 0, 64, 53
1, 230782, Control_c, 0, 64, 0
1, 230856, Control_c, 0, 64, 19
1, 230870, Control_c, 0, 64, 54
1, 230892, Control_c, 0, 64, 64
1, 230907, Control_c, 0, 64, 68
1, 230922, Control_c, 0, 64, 72
1, 230936, Control_c, 0, 64, 78
1, 230951, Control_c, 0, 64, 85
1, 230956, Note_off_c, 0, 59, 61
1, 230966, Control_c, 0, 64, 95
1, 230981, Control_c, 0, 64, 116
1, 230995, Control_c, 0, 64, 127
1, 231015, Note_off_c, 0, 47, 57
1, 231323, Control_c, 0, 64, 112
1, 231338, Control_c, 0, 64, 100
1, 231353, Control_c, 0, 64, 92
1, 231367, Control_c, 0, 64, 88
1, 231382, Control_c, 0, 64, 85
1, 231383, Note_on_c, 0, 47, 51
1, 231397, Control_c, 0, 64, 82
1, 231400, Note_on_c, 0, 35, 47
1, 231411, Control_c, 0, 64, 78
1, 231426, Control_c, 0, 64, 70
1, 231441, Control_c, 0, 64, 62
1, 231456, Control_c, 0, 64, 40
1, 231471, Control_c, 0, 64, 9
1, 231485, Control_c, 0, 64, 17
1, 231492, Note_off_c, 0, 78, 54
1, 231500, Control_c, 0, 64, 39
1, 231515, Control_c, 0, 64, 54
1, 231515, Control_c, 0, 67, 10
1, 231530, Control_c, 0, 64, 61
1, 231530, Control_c, 0, 67, 16
1, 231534, Note_off_c, 0, 75, 55
1, 231545, Control_c, 0, 64, 65
1, 231545, Control_c, 0, 67, 22
1, 231553, Note_off_c, 0, 71, 59
1, 231559, Control_c, 0, 64, 68
1, 231559, Control_c, 0, 67, 28
1, 231572, Note_off_c, 0, 66, 56
1, 231574, Control_c, 0, 64, 72
1, 231574, Control_c, 0, 67, 31
1, 231589, Control_c, 0, 64, 76
1, 231589, Control_c, 0, 67, 31
1, 231604, Control_c, 0, 64, 80
1, 231604, Control_c, 0, 67, 32
1, 231618, Control_c, 0, 64, 85
1, 231618, Control_c, 0, 67, 33
1, 231641, Control_c, 0, 64, 92
1, 231641, Control_c, 0, 67, 37
1, 231656, Control_c, 0, 64, 98
1, 231656, Control_c, 0, 67, 43
1, 231671, Control_c, 0, 64, 104
1, 231671, Control_c, 0, 67, 47
1, 231685, Control_c, 0, 64, 106
1, 231685, Control_c, 0, 67, 49
1, 231700, Control_c, 0, 67, 51
1, 231715, Control_c, 0, 67, 52
1, 231730, Control_c, 0, 67, 53
1, 231745, Control_c, 0, 64, 104
1, 231745, Control_c, 0, 67, 56
1, 231760, Control_c, 0, 64, 101
1, 231760, Control_c, 0, 67, 62
1, 231774, Control_c, 0, 64, 99
1, 231774, Control_c, 0, 67, 66
1, 231789, Control_c, 0, 64, 97
1, 231789, Control_c, 0, 67, 68
1, 231804, Control_c, 0, 64, 93
1, 231804, Control_c, 0, 67, 71
1, 231812, Note_on_c, 0, 59, 66
1, 231818, Control_c, 0, 64, 89
1, 231818, Control_c, 0, 67, 73
1, 231833, Control_c, 0, 64, 85
1, 231833, Control_c, 0, 67, 76
1, 231848, Control_c, 0, 64, 81
1, 231848, Control_c, 0, 67, 77
1, 231863, Control_c, 0, 64, 78
1, 231863, Control_c, 0, 67, 79
1, 231878, Control_c, 0, 64, 75
1, 231878, Control_c, 0, 67, 79
1, 231892, Control_c, 0, 64, 70
1, 231892, Control_c, 0, 67, 82
1, 231907, Control_c, 0, 64, 63
1, 231907, Control_c, 0, 67, 86
1, 231922, Control_c, 0, 64, 52
1, 231922, Control_c, 0, 67, 90
1, 231938, Control_c, 0, 64, 40
1, 231938, Control_c, 0, 67, 93
1, 231953, Control_c, 0, 67, 95
1, 231968, Control_c, 0, 64, 50
1, 231968, Control_c, 0, 67, 97
1, 231982, Control_c, 0, 64, 59
1, 231982, Control_c, 0, 67, 99
1, 231997, Control_c, 0, 64, 63
1, 231997, Control_c, 0, 67, 99
1, 232012, Control_c, 0, 64, 67
1, 232027, Control_c, 0, 64, 71
1, 232041, Control_c, 0, 64, 77
1, 232056, Control_c, 0, 64, 82
1, 232071, Control_c, 0, 64, 86
1, 232071, Control_c, 0, 67, 100
1, 232086, Control_c, 0, 64, 89
1, 232086, Control_c, 0, 67, 100
1, 232160, Control_c, 0, 64, 88
1, 232175, Control_c, 0, 64, 87
1, 232190, Control_c, 0, 64, 87
1, 232190, Control_c, 0, 67, 101
1, 232194, Note_on_c, 0, 61, 62
1, 232201, Note_on_c, 0, 58, 49
1, 232205, Control_c, 0, 64, 86
1, 232220, Control_c, 0, 64, 85
1, 232234, Control_c, 0, 64, 84
1, 232234, Control_c, 0, 67, 102
1, 232235, Note_off_c, 0, 59, 61
1, 232249, Control_c, 0, 64, 79
1, 232249, Control_c, 0, 67, 103
1, 232264, Control_c, 0, 64, 71
1, 232264, Control_c, 0, 67, 110
1, 232279, Control_c, 0, 64, 63
1, 232279, Control_c, 0, 67, 122
1, 232294, Control_c, 0, 64, 50
1, 232294, Control_c, 0, 67, 127
1, 232308, Control_c, 0, 64, 47
1, 232323, Control_c, 0, 64, 54
1, 232338, Control_c, 0, 64, 61
1, 232353, Control_c, 0, 64, 65
1, 232368, Control_c, 0, 64, 70
1, 232390, Control_c, 0, 64, 78
1, 232405, Control_c, 0, 64, 86
1, 232420, Control_c, 0, 64, 95
1, 232435, Control_c, 0, 64, 107
1, 232450, Control_c, 0, 64, 127
1, 232453, Note_on_c, 0, 63, 69
1, 232483, Note_off_c, 0, 61, 55
1, 232491, Note_on_c, 0, 57, 42
1, 232500, Note_off_c, 0, 58, 58
1, 232525, Note_off_c, 0, 35, 37
1, 232586, Note_off_c, 0, 47, 48
1, 232614, Note_on_c, 0, 64, 78
1, 232625, Note_off_c, 0, 57, 60
1, 232631, Note_on_c, 0, 56, 64
1, 232662, Note_off_c, 0, 56, 66
1, 232666, Note_off_c, 0, 63, 61
1, 232692, Note_off_c, 0, 64, 62
1, 232776, Note_on_c, 0, 52, 52
1, 232783, Note_on_c, 0, 68, 81
1, 232836, Note_off_c, 0, 52, 56
1, 232945, Note_off_c, 0, 68, 59
1, 232977, Note_on_c, 0, 52, 40
1, 232983, Note_on_c, 0, 47, 42
1, 233035, Note_on_c, 0, 71, 67
1, 233043, Control_c, 0, 64, 111
1, 233058, Control_c, 0, 64, 101
1, 233064, Note_on_c, 0, 59, 43
1, 233065, Note_on_c, 0, 57, 46
1, 233065, Note_on_c, 0, 68, 53
1, 233073, Control_c, 0, 64, 92
1, 233087, Control_c, 0, 64, 79
1, 233102, Control_c, 0, 64, 66
1, 233117, Control_c, 0, 64, 50
1, 233139, Control_c, 0, 64, 0
1, 233169, Control_c, 0, 64, 19
1, 233184, Control_c, 0, 64, 43
1, 233198, Control_c, 0, 64, 56
1, 233212, Note_on_c, 0, 51, 44
1, 233213, Control_c, 0, 64, 62
1, 233224, Note_on_c, 0, 66, 57
1, 233228, Control_c, 0, 64, 67
1, 233231, Note_off_c, 0, 59, 43
1, 233234, Note_off_c, 0, 57, 53
1, 233243, Note_off_c, 0, 71, 56
1, 233243, Control_c, 0, 64, 71
1, 233246, Note_off_c, 0, 52, 50
1, 233258, Control_c, 0, 64, 78
1, 233272, Control_c, 0, 64, 89
1, 233287, Control_c, 0, 64, 116
1, 233302, Control_c, 0, 64, 127
1, 233372, Note_on_c, 0, 64, 71
1, 233374, Note_off_c, 0, 51, 54
1, 233382, Note_on_c, 0, 52, 50
1, 233392, Note_off_c, 0, 47, 33
1, 233408, Note_off_c, 0, 64, 62
1, 233414, Note_off_c, 0, 68, 23
1, 233415, Note_off_c, 0, 66, 56
1, 233454, Note_off_c, 0, 52, 61
1, 233509, Note_on_c, 0, 47, 52
1, 233516, Note_on_c, 0, 71, 79
1, 233614, Control_c, 0, 64, 112
1, 233629, Control_c, 0, 64, 82
1, 233644, Control_c, 0, 64, 65
1, 233659, Control_c, 0, 64, 40
1, 233668, Note_on_c, 0, 59, 52
1, 233674, Control_c, 0, 64, 0
1, 233680, Note_on_c, 0, 73, 68
1, 233684, Note_on_c, 0, 70, 58
1, 233687, Note_off_c, 0, 71, 61
1, 233688, Control_c, 0, 64, 35
1, 233703, Control_c, 0, 64, 55
1, 233718, Control_c, 0, 64, 63
1, 233733, Control_c, 0, 64, 69
1, 233748, Control_c, 0, 64, 76
1, 233762, Control_c, 0, 64, 88
1, 233777, Control_c, 0, 64, 113
1, 233792, Control_c, 0, 64, 127
1, 233827, Note_on_c, 0, 75, 82
1, 233830, Note_off_c, 0, 47, 39
1, 233842, Note_on_c, 0, 69, 62
1, 233842, Note_off_c, 0, 70, 58
1, 233843, Note_off_c, 0, 73, 60
1, 233922, Note_off_c, 0, 59, 60
1, 233970, Note_on_c, 0, 77, 69
1, 233973, Note_on_c, 0, 68, 71
1, 233982, Note_on_c, 0, 76, 67
1, 234000, Note_off_c, 0, 75, 62
1, 234001, Note_off_c, 0, 68, 67
1, 234001, Note_off_c, 0, 76, 63
1, 234006, Note_off_c, 0, 69, 26
1, 234025, Note_off_c, 0, 77, 63
1, 234095, Note_on_c, 0, 64, 57
1, 234119, Note_on_c, 0, 80, 76
1, 234137, Note_off_c, 0, 64, 59
1, 234202, Note_off_c, 0, 80, 59
1, 234229, Control_c, 0, 64, 108
1, 234244, Control_c, 0, 64, 94
1, 234259, Control_c, 0, 64, 89
1, 234274, Note_on_c, 0, 64, 35
1, 234274, Control_c, 0, 64, 87
1, 234280, Note_on_c, 0, 59, 46
1, 234288, Control_c, 0, 64, 86
1, 234303, Control_c, 0, 64, 84
1, 234309, Note_on_c, 0, 83, 68
1, 234318, Control_c, 0, 64, 77
1, 234334, Control_c, 0, 64, 64
1, 234340, Note_on_c, 0, 71, 37
1, 234343, Note_on_c, 0, 69, 40
1, 234345, Note_on_c, 0, 80, 42
1, 234348, Control_c, 0, 64, 41
1, 234363, Control_c, 0, 64, 0
1, 234408, Control_c, 0, 64, 36
1, 234423, Control_c, 0, 64, 57
1, 234437, Control_c, 0, 64, 64
1, 234452, Control_c, 0, 64, 68
1, 234467, Control_c, 0, 64, 73
1, 234473, Note_on_c, 0, 63, 44
1, 234476, Note_off_c, 0, 71, 53
1, 234478, Note_off_c, 0, 69, 64
1, 234482, Control_c, 0, 64, 77
1, 234487, Note_on_c, 0, 78, 63
1, 234497, Control_c, 0, 64, 80
1, 234497, Note_off_c, 0, 83, 57
1, 234500, Note_off_c, 0, 64, 56
1, 234511, Control_c, 0, 64, 83
1, 234526, Control_c, 0, 64, 87
1, 234541, Control_c, 0, 64, 91
1, 234556, Control_c, 0, 64, 97
1, 234566, Note_off_c, 0, 80, 55
1, 234571, Control_c, 0, 64, 101
1, 234585, Control_c, 0, 64, 103
1, 234591, Note_off_c, 0, 59, 51
1, 234608, Note_off_c, 0, 63, 38
1, 234615, Note_on_c, 0, 76, 70
1, 234626, Note_on_c, 0, 64, 47
1, 234637, Control_c, 0, 64, 102
1, 234638, Note_on_c, 0, 68, 47
1, 234651, Note_off_c, 0, 76, 67
1, 234651, Note_off_c, 0, 78, 59
1, 234652, Control_c, 0, 64, 100
1, 234657, Note_off_c, 0, 64, 58
1, 234664, Note_off_c, 0, 68, 55
1, 234667, Control_c, 0, 64, 97
1, 234682, Control_c, 0, 64, 91
1, 234697, Control_c, 0, 64, 83
1, 234711, Control_c, 0, 64, 75
1, 234726, Control_c, 0, 64, 68
1, 234741, Control_c, 0, 64, 62
1, 234756, Control_c, 0, 64, 57
1, 234760, Note_on_c, 0, 80, 67
1, 234762, Note_on_c, 0, 68, 58
1, 234769, Note_on_c, 0, 64, 44
1, 234771, Note_on_c, 0, 71, 61
1, 234771, Control_c, 0, 64, 50
1, 234785, Control_c, 0, 64, 47
1, 234800, Control_c, 0, 64, 47
1, 234815, Control_c, 0, 64, 49
1, 234829, Control_c, 0, 64, 50
1, 234894, Note_on_c, 0, 83, 73
1, 234899, Note_on_c, 0, 78, 71
1, 234900, Note_on_c, 0, 66, 55
1, 234906, Note_off_c, 0, 68, 51
1, 234910, Note_on_c, 0, 63, 47
1, 234912, Note_off_c, 0, 80, 62
1, 234915, Note_off_c, 0, 64, 59
1, 234919, Note_off_c, 0, 71, 64
1, 234927, Note_off_c, 0, 78, 66
1, 234930, Note_off_c, 0, 83, 64
1, 234936, Note_off_c, 0, 66, 62
1, 234939, Note_off_c, 0, 63, 61
1, 235037, Note_on_c, 0, 68, 56
1, 235037, Note_on_c, 0, 80, 72
1, 235040, Note_on_c, 0, 64, 55
1, 235046, Note_on_c, 0, 71, 66
1, 235052, Control_c, 0, 64, 50
1, 235097, Control_c, 0, 64, 51
1, 235111, Control_c, 0, 64, 51
1, 235141, Control_c, 0, 64, 52
1, 235167, Note_off_c, 0, 64, 56
1, 235168, Note_on_c, 0, 78, 69
1, 235168, Note_on_c, 0, 83, 68
1, 235171, Note_on_c, 0, 63, 58
1, 235173, Note_off_c, 0, 68, 60
1, 235174, Note_on_c, 0, 66, 48
1, 235175, Note_off_c, 0, 80, 58
1, 235180, Note_off_c, 0, 71, 64
1, 235193, Note_off_c, 0, 83, 68
1, 235198, Note_off_c, 0, 78, 67
1, 235205, Note_off_c, 0, 66, 63
1, 235207, Note_off_c, 0, 63, 63
1, 235302, Note_on_c, 0, 76, 67
1, 235309, Note_on_c, 0, 68, 59
1, 235310, Note_on_c, 0, 64, 51
1, 235320, Control_c, 0, 64, 52
1, 235331, Note_on_c, 0, 61, 53
1, 235444, Note_off_c, 0, 61, 56
1, 235445, Note_off_c, 0, 64, 51
1, 235450, Note_on_c, 0, 63, 52
1, 235450, Note_on_c, 0, 80, 73
1, 235455, Note_on_c, 0, 75, 62
1, 235457, Note_off_c, 0, 76, 64
1, 235471, Note_on_c, 0, 59, 37
1, 235474, Note_off_c, 0, 68, 62
1, 235474, Control_c, 0, 64, 52
1, 235475, Note_off_c, 0, 63, 62
1, 235484, Note_off_c, 0, 75, 66
1, 235486, Note_off_c, 0, 80, 60
1, 235499, Note_off_c, 0, 59, 54
1, 235533, Control_c, 0, 64, 51
1, 235588, Note_on_c, 0, 73, 68
1, 235595, Note_on_c, 0, 64, 57
1, 235597, Note_on_c, 0, 61, 46
1, 235629, Note_on_c, 0, 57, 32
1, 235651, Control_c, 0, 64, 52
1, 235714, Note_on_c, 0, 76, 67
1, 235729, Note_on_c, 0, 71, 60
1, 235731, Note_on_c, 0, 59, 34
1, 235732, Note_off_c, 0, 61, 36
1, 235733, Note_off_c, 0, 73, 58
1, 235734, Note_on_c, 0, 56, 43
1, 235734, Note_off_c, 0, 57, 53
1, 235741, Note_off_c, 0, 64, 61
1, 235760, Note_off_c, 0, 71, 66
1, 235763, Note_off_c, 0, 76, 57
1, 235766, Note_off_c, 0, 56, 63
1, 235767, Note_off_c, 0, 59, 55
1, 235855, Note_on_c, 0, 73, 61
1, 235871, Note_on_c, 0, 57, 48
1, 235876, Note_on_c, 0, 61, 43
1, 235880, Note_on_c, 0, 64, 49
1, 235998, Note_on_c, 0, 59, 49
1, 236003, Note_on_c, 0, 76, 51
1, 236003, Note_on_c, 0, 71, 49
1, 236003, Note_off_c, 0, 73, 56
1, 236006, Note_off_c, 0, 57, 60
1, 236006, Note_off_c, 0, 61, 44
1, 236012, Note_off_c, 0, 64, 30
1, 236025, Note_off_c, 0, 71, 61
1, 236028, Note_off_c, 0, 76, 59
1, 236048, Note_off_c, 0, 59, 60
1, 236053, Poly_aftertouch_c, 0, 56, 0
1, 236112, Control_c, 0, 64, 52
1, 236145, Note_on_c, 0, 61, 50
1, 236146, Note_on_c, 0, 73, 50
1, 236149, Note_on_c, 0, 64, 46
1, 236150, Control_c, 0, 64, 53
1, 236158, Note_on_c, 0, 57, 46
1, 236164, Control_c, 0, 64, 55
1, 236179, Control_c, 0, 64, 58
1, 236194, Control_c, 0, 64, 61
1, 236209, Control_c, 0, 64, 64
1, 236223, Control_c, 0, 64, 67
1, 236238, Control_c, 0, 64, 71
1, 236253, Control_c, 0, 64, 76
1, 236268, Control_c, 0, 64, 81
1, 236283, Note_off_c, 0, 73, 58
1, 236283, Control_c, 0, 64, 86
1, 236286, Note_on_c, 0, 76, 50
1, 236287, Note_on_c, 0, 71, 44
1, 236292, Note_off_c, 0, 64, 59
1, 236295, Note_on_c, 0, 59, 47
1, 236298, Control_c, 0, 64, 90
1, 236308, Note_off_c, 0, 76, 57
1, 236313, Note_off_c, 0, 71, 54
1, 236313, Control_c, 0, 64, 91
1, 236316, Note_off_c, 0, 61, 31
1, 236320, Note_on_c, 0, 56, 31
1, 236324, Note_off_c, 0, 59, 53
1, 236336, Note_off_c, 0, 57, 36
1, 236356, Note_off_c, 0, 56, 46
1, 236372, Control_c, 0, 64, 90
1, 236387, Control_c, 0, 64, 89
1, 236402, Control_c, 0, 64, 88
1, 236416, Control_c, 0, 64, 85
1, 236431, Control_c, 0, 64, 82
1, 236446, Control_c, 0, 64, 78
1, 236452, Note_on_c, 0, 69, 57
1, 236453, Note_on_c, 0, 57, 48
1, 236458, Note_on_c, 0, 61, 37
1, 236461, Control_c, 0, 64, 75
1, 236472, Note_on_c, 0, 70, 41
1, 236474, Note_on_c, 0, 54, 49
1, 236475, Control_c, 0, 64, 72
1, 236490, Control_c, 0, 64, 68
1, 236505, Control_c, 0, 64, 64
1, 236512, Note_off_c, 0, 70, 46
1, 236520, Control_c, 0, 64, 56
1, 236535, Control_c, 0, 64, 51
1, 236549, Control_c, 0, 64, 54
1, 236564, Control_c, 0, 64, 60
1, 236579, Control_c, 0, 64, 65
1, 236594, Control_c, 0, 64, 69
1, 236602, Note_on_c, 0, 73, 69
1, 236608, Control_c, 0, 64, 75
1, 236610, Note_off_c, 0, 69, 63
1, 236617, Note_off_c, 0, 57, 56
1, 236622, Note_off_c, 0, 54, 53
1, 236623, Control_c, 0, 64, 81
1, 236624, Note_on_c, 0, 68, 59
1, 236635, Note_on_c, 0, 53, 45
1, 236635, Note_on_c, 0, 56, 44
1, 236638, Control_c, 0, 64, 86
1, 236653, Control_c, 0, 64, 88
1, 236668, Note_off_c, 0, 61, 35
1, 236668, Control_c, 0, 64, 87
1, 236682, Control_c, 0, 64, 86
1, 236743, Control_c, 0, 64, 85
1, 236752, Note_on_c, 0, 69, 72
1, 236758, Control_c, 0, 64, 82
1, 236769, Note_off_c, 0, 53, 54
1, 236773, Control_c, 0, 64, 79
1, 236775, Note_on_c, 0, 61, 44
1, 236787, Control_c, 0, 64, 78
1, 236791, Note_on_c, 0, 54, 43
1, 236791, Note_on_c, 0, 57, 41
1, 236797, Note_off_c, 0, 73, 62
1, 236809, Note_off_c, 0, 56, 34
1, 236817, Control_c, 0, 64, 79
1, 236832, Control_c, 0, 64, 79
1, 236841, Note_off_c, 0, 57, 56
1, 236898, Note_off_c, 0, 61, 39
1, 236899, Control_c, 0, 64, 79
1, 236913, Control_c, 0, 64, 76
1, 236928, Control_c, 0, 64, 70
1, 236940, Note_on_c, 0, 66, 73
1, 236943, Control_c, 0, 64, 62
1, 236954, Note_on_c, 0, 59, 49
1, 236955, Note_on_c, 0, 63, 59
1, 236958, Control_c, 0, 64, 55
1, 236973, Control_c, 0, 64, 57
1, 236980, Note_off_c, 0, 54, 44
1, 236987, Control_c, 0, 64, 61
1, 237002, Control_c, 0, 64, 65
1, 237017, Control_c, 0, 64, 69
1, 237031, Control_c, 0, 64, 75
1, 237035, Note_off_c, 0, 59, 61
1, 237046, Control_c, 0, 64, 82
1, 237061, Control_c, 0, 64, 85
1, 237076, Control_c, 0, 64, 85
1, 237080, Note_off_c, 0, 69, 32
1, 237106, Note_on_c, 0, 59, 72
1, 237120, Note_off_c, 0, 63, 63
1, 237121, Control_c, 0, 64, 86
1, 237136, Control_c, 0, 64, 87
1, 237142, Note_on_c, 0, 60, 37
1, 237144, Note_off_c, 0, 66, 62
1, 237150, Control_c, 0, 64, 89
1, 237165, Control_c, 0, 64, 91
1, 237175, Note_off_c, 0, 60, 51
1, 237177, Note_off_c, 0, 68, 3
1, 237180, Control_c, 0, 64, 92
1, 237255, Control_c, 0, 64, 92
1, 237270, Control_c, 0, 64, 90
1, 237285, Control_c, 0, 64, 89
1, 237300, Control_c, 0, 64, 88
1, 237314, Note_on_c, 0, 47, 49
1, 237314, Control_c, 0, 64, 87
1, 237329, Control_c, 0, 64, 86
1, 237332, Note_on_c, 0, 35, 42
1, 237344, Control_c, 0, 64, 85
1, 237359, Control_c, 0, 64, 83
1, 237374, Control_c, 0, 64, 80
1, 237377, Note_on_c, 0, 61, 70
1, 237384, Note_on_c, 0, 58, 64
1, 237388, Control_c, 0, 64, 77
1, 237402, Note_off_c, 0, 59, 57
1, 237403, Control_c, 0, 64, 73
1, 237418, Control_c, 0, 64, 66
1, 237432, Control_c, 0, 64, 55
1, 237447, Control_c, 0, 64, 24
1, 237462, Control_c, 0, 64, 0
1, 237492, Control_c, 0, 64, 36
1, 237506, Control_c, 0, 64, 58
1, 237522, Control_c, 0, 64, 65
1, 237537, Control_c, 0, 64, 70
1, 237552, Note_on_c, 0, 63, 78
1, 237552, Control_c, 0, 64, 77
1, 237567, Control_c, 0, 64, 85
1, 237580, Note_on_c, 0, 57, 65
1, 237581, Note_off_c, 0, 61, 58
1, 237582, Control_c, 0, 64, 94
1, 237587, Note_off_c, 0, 58, 60
1, 237596, Control_c, 0, 64, 107
1, 237603, Note_off_c, 0, 35, 39
1, 237611, Control_c, 0, 64, 127
1, 237663, Note_off_c, 0, 47, 57
1, 237665, Note_off_c, 0, 57, 61
1, 237703, Note_on_c, 0, 64, 81
1, 237710, Note_on_c, 0, 56, 77
1, 237739, Note_off_c, 0, 56, 68
1, 237747, Note_off_c, 0, 63, 62
1, 237763, Note_off_c, 0, 64, 64
1, 237851, Note_on_c, 0, 68, 85
1, 237853, Note_on_c, 0, 52, 42
1, 237928, Control_c, 0, 64, 119
1, 237943, Control_c, 0, 64, 108
1, 237949, Note_off_c, 0, 52, 50
1, 237958, Control_c, 0, 64, 100
1, 237973, Control_c, 0, 64, 92
1, 237988, Control_c, 0, 64, 87
1, 237990, Note_off_c, 0, 68, 57
1, 238002, Control_c, 0, 64, 84
1, 238017, Control_c, 0, 64, 81
1, 238026, Note_on_c, 0, 47, 50
1, 238032, Control_c, 0, 64, 79
1, 238047, Control_c, 0, 64, 76
1, 238061, Control_c, 0, 64, 70
1, 238073, Note_on_c, 0, 71, 73
1, 238076, Control_c, 0, 64, 61
1, 238077, Poly_aftertouch_c, 0, 52, 127
1, 238090, Note_on_c, 0, 59, 42
1, 238091, Control_c, 0, 64, 31
1, 238094, Note_on_c, 0, 57, 50
1, 238104, Note_on_c, 0, 68, 42
1, 238106, Control_c, 0, 64, 0
1, 238180, Control_c, 0, 64, 18
1, 238195, Control_c, 0, 64, 44
1, 238209, Control_c, 0, 64, 56
1, 238224, Control_c, 0, 64, 61
1, 238237, Note_on_c, 0, 66, 61
1, 238239, Control_c, 0, 64, 63
1, 238241, Note_off_c, 0, 59, 55
1, 238242, Note_off_c, 0, 71, 57
1, 238247, Note_off_c, 0, 57, 58
1, 238253, Control_c, 0, 64, 65
1, 238260, Note_on_c, 0, 51, 44
1, 238268, Control_c, 0, 64, 66
1, 238274, Poly_aftertouch_c, 0, 52, 0
1, 238283, Control_c, 0, 64, 68
1, 238298, Control_c, 0, 64, 69
1, 238310, Note_off_c, 0, 47, 36
1, 238313, Control_c, 0, 64, 72
1, 238329, Control_c, 0, 64, 75
1, 238343, Control_c, 0, 64, 76
1, 238379, Note_on_c, 0, 64, 64
1, 238388, Note_on_c, 0, 52, 59
1, 238409, Note_off_c, 0, 64, 66
1, 238411, Note_off_c, 0, 66, 62
1, 238411, Control_c, 0, 64, 77
1, 238429, Note_off_c, 0, 68, 20
1, 238438, Note_off_c, 0, 51, 32
1, 238454, Note_off_c, 0, 52, 60
1, 238470, Control_c, 0, 64, 77
1, 238484, Control_c, 0, 64, 78
1, 238499, Control_c, 0, 64, 79
1, 238502, Note_on_c, 0, 71, 83
1, 238512, Note_on_c, 0, 47, 56
1, 238514, Control_c, 0, 64, 80
1, 238529, Control_c, 0, 64, 81
1, 238544, Control_c, 0, 64, 82
1, 238558, Control_c, 0, 64, 83
1, 238573, Control_c, 0, 64, 83
1, 238588, Control_c, 0, 64, 84
1, 238603, Control_c, 0, 64, 84
1, 238618, Control_c, 0, 64, 87
1, 238632, Control_c, 0, 64, 89
1, 238647, Control_c, 0, 64, 91
1, 238659, Note_on_c, 0, 59, 57
1, 238662, Control_c, 0, 64, 95
1, 238665, Note_on_c, 0, 73, 83
1, 238669, Note_on_c, 0, 70, 73
1, 238677, Control_c, 0, 64, 91
1, 238688, Note_off_c, 0, 71, 62
1, 238692, Control_c, 0, 64, 74
1, 238706, Control_c, 0, 64, 57
1, 238721, Control_c, 0, 64, 0
1, 238781, Control_c, 0, 64, 21
1, 238791, Note_on_c, 0, 75, 86
1, 238796, Control_c, 0, 64, 53
1, 238810, Control_c, 0, 64, 62
1, 238811, Note_on_c, 0, 69, 69
1, 238816, Note_off_c, 0, 47, 50
1, 238825, Control_c, 0, 64, 67
1, 238828, Note_off_c, 0, 70, 60
1, 238828, Note_off_c, 0, 73, 62
1, 238840, Control_c, 0, 64, 73
1, 238855, Control_c, 0, 64, 82
1, 238870, Control_c, 0, 64, 88
1, 238884, Control_c, 0, 64, 92
1, 238885, Note_off_c, 0, 69, 62
1, 238899, Control_c, 0, 64, 95
1, 238903, Note_off_c, 0, 59, 62
1, 238914, Control_c, 0, 64, 97
1, 238921, Note_on_c, 0, 76, 84
1, 238929, Control_c, 0, 64, 98
1, 238932, Note_on_c, 0, 68, 78
1, 238954, Note_off_c, 0, 68, 70
1, 238959, Note_off_c, 0, 75, 62
1, 238984, Note_off_c, 0, 76, 65
1, 239002, Control_c, 0, 64, 98
1, 239017, Control_c, 0, 64, 99
1, 239058, Note_on_c, 0, 80, 94
1, 239062, Control_c, 0, 64, 100
1, 239064, Note_on_c, 0, 64, 59
1, 239076, Control_c, 0, 64, 101
1, 239091, Control_c, 0, 64, 103
1, 239106, Control_c, 0, 64, 104
1, 239116, Note_off_c, 0, 64, 54
1, 239145, Control_c, 0, 64, 101
1, 239160, Control_c, 0, 64, 98
1, 239174, Control_c, 0, 64, 96
1, 239182, Note_off_c, 0, 80, 62
1, 239189, Control_c, 0, 64, 95
1, 239234, Control_c, 0, 64, 92
1, 239246, Note_on_c, 0, 64, 51
1, 239248, Control_c, 0, 64, 79
1, 239258, Note_on_c, 0, 83, 82
1, 239261, Note_on_c, 0, 59, 22
1, 239263, Control_c, 0, 64, 63
1, 239278, Control_c, 0, 64, 0
1, 239284, Note_on_c, 0, 80, 56
1, 239287, Note_on_c, 0, 71, 48
1, 239290, Note_on_c, 0, 69, 57
1, 239337, Control_c, 0, 64, 46
1, 239352, Control_c, 0, 64, 60
1, 239367, Control_c, 0, 64, 67
1, 239381, Control_c, 0, 64, 72
1, 239396, Control_c, 0, 64, 80
1, 239403, Note_on_c, 0, 63, 50
1, 239411, Control_c, 0, 64, 94
1, 239415, Note_off_c, 0, 83, 58
1, 239418, Note_on_c, 0, 78, 67
1, 239421, Note_off_c, 0, 69, 57
1, 239423, Note_off_c, 0, 71, 35
1, 239425, Control_c, 0, 64, 127
1, 239427, Note_off_c, 0, 64, 50
1, 239491, Note_off_c, 0, 80, 45
1, 239526, Note_off_c, 0, 59, 54
1, 239534, Note_off_c, 0, 63, 61
1, 239538, Note_on_c, 0, 76, 70
1, 239552, Note_on_c, 0, 68, 40
1, 239553, Note_on_c, 0, 64, 47
1, 239563, Note_off_c, 0, 78, 60
1, 239566, Note_off_c, 0, 76, 67
1, 239580, Note_off_c, 0, 64, 55
1, 239581, Note_off_c, 0, 68, 54
1, 239648, Control_c, 0, 64, 83
1, 239663, Control_c, 0, 64, 68
1, 239675, Note_on_c, 0, 68, 53
1, 239676, Note_on_c, 0, 83, 86
1, 239678, Control_c, 0, 64, 60
1, 239684, Note_on_c, 0, 71, 58
1, 239687, Note_on_c, 0, 75, 70
1, 239693, Control_c, 0, 64, 55
1, 239707, Control_c, 0, 64, 54
1, 239752, Control_c, 0, 64, 55
1, 239767, Control_c, 0, 64, 56
1, 239781, Control_c, 0, 64, 57
1, 239802, Note_on_c, 0, 82, 48
1, 239812, Note_on_c, 0, 70, 64
1, 239814, Note_off_c, 0, 68, 50
1, 239817, Note_on_c, 0, 67, 63
1, 239819, Note_on_c, 0, 87, 81
1, 239819, Note_off_c, 0, 83, 66
1, 239820, Note_off_c, 0, 71, 59
1, 239825, Control_c, 0, 64, 56
1, 239835, Note_off_c, 0, 75, 62
1, 239840, Control_c, 0, 64, 55
1, 239846, Note_off_c, 0, 70, 66
1, 239850, Note_off_c, 0, 67, 65
1, 239853, Note_off_c, 0, 82, 66
1, 239855, Control_c, 0, 64, 54
1, 239873, Note_off_c, 0, 87, 62
1, 239878, Control_c, 0, 64, 54
1, 239961, Note_on_c, 0, 83, 85
1, 239966, Note_on_c, 0, 75, 74
1, 239970, Note_on_c, 0, 68, 57
1, 239972, Note_on_c, 0, 71, 60
1, 240057, Control_c, 0, 64, 54
1, 240073, Note_off_c, 0, 71, 44
1, 240087, Note_on_c, 0, 70, 57
1, 240089, Note_on_c, 0, 82, 76
1, 240090, Note_off_c, 0, 83, 66
1, 240091, Note_on_c, 0, 87, 80
1, 240091, Note_off_c, 0, 68, 56
1, 240095, Note_on_c, 0, 67, 51
1, 240106, Note_off_c, 0, 75, 60
1, 240113, Note_off_c, 0, 82, 70
1, 240116, Note_off_c, 0, 70, 66
1, 240117, Note_off_c, 0, 67, 60
1, 240121, Note_off_c, 0, 87, 66
1, 240176, Control_c, 0, 64, 54
1, 240216, Note_on_c, 0, 80, 76
1, 240221, Note_on_c, 0, 68, 62
1, 240221, Note_on_c, 0, 71, 69
1, 240251, Note_on_c, 0, 64, 55
1, 240345, Note_on_c, 0, 83, 77
1, 240348, Note_off_c, 0, 68, 52
1, 240349, Note_on_c, 0, 66, 57
1, 240352, Note_on_c, 0, 78, 69
1, 240353, Note_off_c, 0, 64, 58
1, 240361, Note_on_c, 0, 63, 56
1, 240364, Note_off_c, 0, 80, 58
1, 240367, Note_off_c, 0, 71, 65
1, 240368, Control_c, 0, 64, 54
1, 240379, Note_off_c, 0, 83, 66
1, 240380, Note_off_c, 0, 78, 67
1, 240385, Note_off_c, 0, 66, 65
1, 240391, Note_off_c, 0, 63, 65
1, 240494, Note_on_c, 0, 76, 74
1, 240501, Note_on_c, 0, 61, 53
1, 240506, Note_on_c, 0, 68, 54
1, 240510, Note_on_c, 0, 64, 43
1, 240583, Note_off_c, 0, 64, 49
1, 240624, Note_off_c, 0, 61, 53
1, 240625, Note_on_c, 0, 80, 68
1, 240633, Note_off_c, 0, 76, 63
1, 240639, Note_on_c, 0, 75, 51
1, 240641, Note_on_c, 0, 63, 45
1, 240642, Control_c, 0, 64, 55
1, 240647, Note_on_c, 0, 60, 44
1, 240647, Note_off_c, 0, 68, 54
1, 240668, Note_off_c, 0, 75, 62
1, 240674, Note_off_c, 0, 63, 58
1, 240674, Note_off_c, 0, 80, 53
1, 240678, Note_off_c, 0, 60, 59
1, 240701, Control_c, 0, 64, 54
1, 240763, Note_on_c, 0, 76, 66
1, 240770, Note_on_c, 0, 61, 44
1, 240775, Note_on_c, 0, 68, 55
1, 240790, Note_on_c, 0, 64, 44
1, 240850, Control_c, 0, 64, 55
1, 240865, Control_c, 0, 64, 57
1, 240880, Note_off_c, 0, 61, 53
1, 240880, Control_c, 0, 64, 60
1, 240894, Control_c, 0, 64, 63
1, 240903, Note_on_c, 0, 80, 60
1, 240905, Note_off_c, 0, 76, 62
1, 240906, Note_on_c, 0, 63, 39
1, 240909, Control_c, 0, 64, 65
1, 240914, Note_on_c, 0, 75, 47
1, 240917, Note_on_c, 0, 60, 37
1, 240917, Note_off_c, 0, 68, 55
1, 240923, Note_off_c, 0, 64, 36
1, 240924, Control_c, 0, 64, 67
1, 240939, Control_c, 0, 64, 69
1, 240954, Control_c, 0, 64, 71
1, 240967, Note_off_c, 0, 60, 54
1, 240967, Note_off_c, 0, 75, 55
1, 240969, Control_c, 0, 64, 72
1, 240989, Note_off_c, 0, 80, 56
1, 241014, Control_c, 0, 64, 71
1, 241028, Control_c, 0, 64, 69
1, 241043, Control_c, 0, 64, 67
1, 241046, Note_on_c, 0, 76, 62
1, 241052, Note_on_c, 0, 68, 51
1, 241052, Note_on_c, 0, 64, 47
1, 241052, Note_off_c, 0, 63, 34
1, 241058, Control_c, 0, 64, 67
1, 241066, Note_on_c, 0, 61, 38
1, 241072, Control_c, 0, 64, 69
1, 241087, Control_c, 0, 64, 71
1, 241102, Control_c, 0, 64, 73
1, 241115, Note_off_c, 0, 64, 62
1, 241117, Control_c, 0, 64, 75
1, 241132, Control_c, 0, 64, 76
1, 241141, Note_off_c, 0, 76, 61
1, 241206, Control_c, 0, 64, 76
1, 241222, Note_on_c, 0, 80, 63
1, 241240, Note_on_c, 0, 73, 56
1, 241294, Note_off_c, 0, 68, 35
1, 241296, Note_off_c, 0, 73, 57
1, 241307, Note_off_c, 0, 80, 63
1, 241333, Note_off_c, 0, 61, 35
1, 241354, Control_c, 0, 64, 77
1, 241375, Control_c, 0, 64, 77
1, 241390, Control_c, 0, 64, 78
1, 241405, Control_c, 0, 64, 79
1, 241414, Note_on_c, 0, 78, 72
1, 241420, Control_c, 0, 64, 81
1, 241429, Note_off_c, 0, 78, 65
1, 241434, Control_c, 0, 64, 81
1, 241449, Control_c, 0, 64, 82
1, 241460, Note_on_c, 0, 66, 21
1, 241497, Note_off_c, 0, 66, 41
1, 241524, Control_c, 0, 64, 81
1, 241539, Control_c, 0, 64, 80
1, 241554, Control_c, 0, 64, 79
1, 241569, Control_c, 0, 64, 74
1, 241573, Note_on_c, 0, 66, 50
1, 241574, Note_on_c, 0, 75, 72
1, 241583, Control_c, 0, 64, 67
1, 241598, Control_c, 0, 64, 61
1, 241613, Control_c, 0, 64, 60
1, 241628, Control_c, 0, 64, 63
1, 241643, Control_c, 0, 64, 67
1, 241658, Control_c, 0, 64, 72
1, 241672, Control_c, 0, 64, 81
1, 241687, Control_c, 0, 64, 89
1, 241693, Note_off_c, 0, 66, 61
1, 241702, Control_c, 0, 64, 92
1, 241756, Note_on_c, 0, 54, 48
1, 241762, Control_c, 0, 64, 93
1, 241766, Note_on_c, 0, 73, 66
1, 241776, Control_c, 0, 64, 95
1, 241789, Note_on_c, 0, 64, 39
1, 241791, Control_c, 0, 64, 98
1, 241806, Control_c, 0, 64, 98
1, 241828, Note_off_c, 0, 64, 61
1, 241829, Note_off_c, 0, 75, 60
1, 241880, Control_c, 0, 64, 98
1, 241894, Control_c, 0, 64, 96
1, 241909, Control_c, 0, 64, 95
1, 241924, Control_c, 0, 64, 95
1, 241939, Control_c, 0, 64, 93
1, 241954, Control_c, 0, 64, 90
1, 241968, Control_c, 0, 64, 82
1, 241983, Control_c, 0, 64, 72
1, 241998, Control_c, 0, 64, 63
1, 242004, Note_on_c, 0, 59, 42
1, 242006, Note_on_c, 0, 71, 48
1, 242012, Note_off_c, 0, 73, 56
1, 242012, Control_c, 0, 64, 56
1, 242027, Control_c, 0, 64, 52
1, 242031, Note_on_c, 0, 63, 32
1, 242042, Control_c, 0, 64, 54
1, 242057, Control_c, 0, 64, 60
1, 242072, Control_c, 0, 64, 64
1, 242087, Control_c, 0, 64, 69
1, 242093, Note_off_c, 0, 54, 37
1, 242102, Control_c, 0, 64, 76
1, 242107, Note_off_c, 0, 63, 58
1, 242124, Control_c, 0, 64, 83
1, 242129, Note_off_c, 0, 71, 64
1, 242132, Note_off_c, 0, 59, 58
1, 242139, Control_c, 0, 64, 86
1, 242154, Control_c, 0, 64, 87
1, 242198, Control_c, 0, 64, 86
1, 242213, Control_c, 0, 64, 85
1, 242227, Control_c, 0, 64, 84
1, 242237, Note_on_c, 0, 71, 71
1, 242242, Control_c, 0, 64, 82
1, 242248, Note_on_c, 0, 63, 47
1, 242252, Note_on_c, 0, 56, 41
1, 242252, Note_on_c, 0, 59, 43
1, 242257, Control_c, 0, 64, 79
1, 242272, Control_c, 0, 64, 76
1, 242287, Control_c, 0, 64, 71
1, 242301, Control_c, 0, 64, 65
1, 242317, Control_c, 0, 64, 60
1, 242332, Control_c, 0, 64, 55
1, 242347, Control_c, 0, 64, 56
1, 242362, Control_c, 0, 64, 60
1, 242377, Control_c, 0, 64, 63
1, 242392, Control_c, 0, 64, 65
1, 242406, Control_c, 0, 64, 67
1, 242419, Note_on_c, 0, 75, 74
1, 242419, Note_off_c, 0, 71, 64
1, 242420, Note_on_c, 0, 55, 46
1, 242420, Note_on_c, 0, 70, 67
1, 242421, Control_c, 0, 64, 68
1, 242424, Note_on_c, 0, 58, 51
1, 242439, Note_off_c, 0, 63, 59
1, 242448, Note_off_c, 0, 59, 37
1, 242451, Control_c, 0, 64, 68
1, 242466, Control_c, 0, 64, 67
1, 242471, Note_off_c, 0, 56, 35
1, 242480, Control_c, 0, 64, 67
1, 242495, Control_c, 0, 64, 66
1, 242510, Control_c, 0, 64, 64
1, 242525, Control_c, 0, 64, 62
1, 242540, Control_c, 0, 64, 59
1, 242555, Control_c, 0, 64, 57
1, 242570, Control_c, 0, 64, 53
1, 242570, Note_on_c, 0, 63, 65
1, 242570, Note_on_c, 0, 71, 75
1, 242573, Note_off_c, 0, 55, 56
1, 242575, Note_off_c, 0, 58, 62
1, 242581, Note_on_c, 0, 56, 55
1, 242582, Note_on_c, 0, 59, 49
1, 242585, Control_c, 0, 64, 48
1, 242589, Note_off_c, 0, 70, 59
1, 242599, Control_c, 0, 64, 44
1, 242600, Note_off_c, 0, 75, 52
1, 242614, Control_c, 0, 64, 45
1, 242629, Control_c, 0, 64, 52
1, 242643, Control_c, 0, 64, 57
1, 242658, Control_c, 0, 64, 57
1, 242673, Control_c, 0, 64, 55
1, 242688, Control_c, 0, 64, 53
1, 242701, Note_off_c, 0, 59, 54
1, 242702, Note_on_c, 0, 70, 56
1, 242703, Note_off_c, 0, 71, 64
1, 242703, Control_c, 0, 64, 52
1, 242710, Note_on_c, 0, 58, 61
1, 242710, Note_on_c, 0, 75, 77
1, 242714, Note_off_c, 0, 56, 57
1, 242717, Control_c, 0, 64, 50
1, 242731, Note_on_c, 0, 55, 40
1, 242732, Control_c, 0, 64, 50
1, 242738, Note_off_c, 0, 63, 63
1, 242738, Note_off_c, 0, 75, 63
1, 242740, Note_off_c, 0, 70, 64
1, 242747, Control_c, 0, 64, 49
1, 242749, Note_off_c, 0, 58, 63
1, 242761, Note_off_c, 0, 55, 57
1, 242762, Control_c, 0, 64, 48
1, 242777, Control_c, 0, 64, 47
1, 242836, Control_c, 0, 64, 47
1, 242851, Note_on_c, 0, 69, 72
1, 242853, Note_on_c, 0, 61, 61
1, 242883, Note_on_c, 0, 54, 47
1, 242885, Note_on_c, 0, 57, 47
1, 242901, Note_on_c, 0, 70, 11
1, 242902, Note_off_c, 0, 70, 127
1, 242947, Control_c, 0, 64, 47
1, 242977, Control_c, 0, 64, 48
1, 242992, Control_c, 0, 64, 48
1, 243017, Note_off_c, 0, 57, 58
1, 243020, Note_off_c, 0, 54, 54
1, 243035, Note_on_c, 0, 56, 43
1, 243036, Note_on_c, 0, 73, 60
1, 243036, Note_off_c, 0, 69, 61
1, 243036, Control_c, 0, 64, 49
1, 243041, Note_on_c, 0, 68, 61
1, 243048, Note_on_c, 0, 53, 44
1, 243050, Note_off_c, 0, 61, 58
1, 243080, Control_c, 0, 64, 49
1, 243151, Note_off_c, 0, 73, 61
1, 243155, Note_off_c, 0, 53, 52
1, 243159, Note_off_c, 0, 56, 55
1, 243172, Note_off_c, 0, 68, 48
1, 243175, Note_on_c, 0, 69, 60
1, 243178, Note_on_c, 0, 61, 52
1, 243188, Note_on_c, 0, 54, 42
1, 243189, Note_on_c, 0, 57, 29
1, 243303, Note_off_c, 0, 69, 61
1, 243303, Note_on_c, 0, 56, 44
1, 243307, Note_off_c, 0, 54, 54
1, 243309, Note_on_c, 0, 73, 51
1, 243312, Note_off_c, 0, 57, 53
1, 243321, Note_on_c, 0, 68, 37
1, 243330, Note_on_c, 0, 53, 35
1, 243339, Note_off_c, 0, 61, 48
1, 243342, Note_off_c, 0, 73, 66
1, 243343, Note_off_c, 0, 56, 63
1, 243354, Note_off_c, 0, 68, 61
1, 243363, Note_off_c, 0, 53, 49
1, 243462, Note_on_c, 0, 67, 55
1, 243470, Note_on_c, 0, 59, 41
1, 243491, Note_on_c, 0, 55, 39
1, 243492, Note_on_c, 0, 52, 41
1, 243511, Control_c, 0, 64, 50
1, 243526, Control_c, 0, 64, 51
1, 243541, Control_c, 0, 64, 52
1, 243555, Control_c, 0, 64, 53
1, 243585, Control_c, 0, 64, 54
1, 243600, Control_c, 0, 64, 54
1, 243628, Note_off_c, 0, 59, 48
1, 243629, Note_off_c, 0, 55, 54
1, 243630, Note_off_c, 0, 52, 51
1, 243630, Note_off_c, 0, 67, 59
1, 243637, Note_on_c, 0, 54, 38
1, 243637, Control_c, 0, 64, 55
1, 243640, Note_on_c, 0, 71, 53
1, 243655, Note_on_c, 0, 51, 45
1, 243662, Note_on_c, 0, 66, 36
1, 243682, Control_c, 0, 64, 55
1, 243726, Note_off_c, 0, 51, 55
1, 243743, Note_off_c, 0, 71, 52
1, 243752, Note_off_c, 0, 54, 48
1, 243782, Note_on_c, 0, 52, 40
1, 243790, Note_on_c, 0, 55, 34
1, 243791, Note_on_c, 0, 59, 36
1, 243801, Note_on_c, 0, 67, 48
1, 243803, Note_off_c, 0, 66, 38
1, 243905, Note_off_c, 0, 55, 46
1, 243911, Note_off_c, 0, 67, 55
1, 243913, Note_off_c, 0, 52, 52
1, 243923, Note_on_c, 0, 54, 35
1, 243925, Note_on_c, 0, 66, 42
1, 243934, Note_on_c, 0, 71, 35
1, 243941, Note_on_c, 0, 51, 44
1, 243943, Note_off_c, 0, 59, 32
1, 243959, Note_off_c, 0, 66, 56
1, 243962, Note_off_c, 0, 54, 57
1, 243964, Note_off_c, 0, 71, 51
1, 243969, Note_off_c, 0, 51, 60
1, 244082, Note_on_c, 0, 65, 49
1, 244099, Note_on_c, 0, 57, 34
1, 244105, Note_on_c, 0, 53, 36
1, 244116, Note_on_c, 0, 50, 42
1, 244128, Control_c, 0, 64, 56
1, 244143, Control_c, 0, 64, 57
1, 244158, Control_c, 0, 64, 58
1, 244172, Control_c, 0, 64, 59
1, 244187, Control_c, 0, 64, 61
1, 244202, Control_c, 0, 64, 62
1, 244217, Control_c, 0, 64, 63
1, 244232, Control_c, 0, 64, 64
1, 244246, Control_c, 0, 64, 65
1, 244253, Note_off_c, 0, 65, 57
1, 244261, Control_c, 0, 64, 66
1, 244262, Note_on_c, 0, 69, 38
1, 244276, Control_c, 0, 64, 67
1, 244278, Note_on_c, 0, 64, 43
1, 244285, Note_off_c, 0, 57, 45
1, 244290, Control_c, 0, 64, 69
1, 244300, Note_on_c, 0, 52, 33
1, 244300, Note_off_c, 0, 53, 41
1, 244303, Note_on_c, 0, 49, 36
1, 244305, Control_c, 0, 64, 71
1, 244320, Control_c, 0, 64, 72
1, 244331, Note_off_c, 0, 50, 32
1, 244335, Control_c, 0, 64, 74
1, 244350, Control_c, 0, 64, 76
1, 244372, Control_c, 0, 64, 77
1, 244387, Control_c, 0, 64, 79
1, 244402, Control_c, 0, 64, 81
1, 244417, Control_c, 0, 64, 82
1, 244418, Note_off_c, 0, 69, 55
1, 244424, Note_on_c, 0, 57, 42
1, 244429, Note_off_c, 0, 49, 51
1, 244432, Control_c, 0, 64, 84
1, 244436, Note_on_c, 0, 65, 53
1, 244446, Control_c, 0, 64, 86
1, 244450, Note_off_c, 0, 64, 33
1, 244453, Note_on_c, 0, 53, 41
1, 244454, Note_off_c, 0, 52, 34
1, 244461, Control_c, 0, 64, 88
1, 244469, Note_on_c, 0, 50, 47
1, 244476, Control_c, 0, 64, 90
1, 244491, Control_c, 0, 64, 93
1, 244505, Control_c, 0, 64, 96
1, 244520, Control_c, 0, 64, 101
1, 244535, Control_c, 0, 64, 110
1, 244550, Control_c, 0, 64, 127
1, 244579, Note_off_c, 0, 53, 49
1, 244580, Note_on_c, 0, 52, 45
1, 244582, Note_off_c, 0, 50, 56
1, 244585, Note_on_c, 0, 64, 52
1, 244585, Note_on_c, 0, 69, 57
1, 244599, Note_on_c, 0, 49, 44
1, 244600, Note_off_c, 0, 65, 57
1, 244618, Note_off_c, 0, 57, 53
1, 244627, Note_off_c, 0, 64, 61
1, 244633, Note_off_c, 0, 52, 60
1, 244647, Note_off_c, 0, 49, 59
1, 244657, Note_off_c, 0, 69, 61
1, 244762, Note_on_c, 0, 49, 47
1, 244763, Note_on_c, 0, 52, 45
1, 244802, Control_c, 0, 64, 108
1, 244814, Note_on_c, 0, 64, 70
1, 244817, Control_c, 0, 64, 94
1, 244832, Control_c, 0, 64, 80
1, 244847, Control_c, 0, 64, 68
1, 244848, Note_on_c, 0, 57, 40
1, 244862, Control_c, 0, 64, 58
1, 244877, Control_c, 0, 64, 51
1, 244892, Control_c, 0, 64, 52
1, 244907, Control_c, 0, 64, 56
1, 244921, Control_c, 0, 64, 60
1, 244936, Control_c, 0, 64, 63
1, 244951, Control_c, 0, 64, 67
1, 244966, Control_c, 0, 64, 72
1, 244981, Control_c, 0, 64, 77
1, 244995, Control_c, 0, 64, 80
1, 245010, Control_c, 0, 64, 81
1, 245055, Control_c, 0, 64, 80
1, 245074, Note_on_c, 0, 51, 44
1, 245081, Note_on_c, 0, 48, 40
1, 245082, Note_on_c, 0, 69, 79
1, 245084, Control_c, 0, 64, 80
1, 245091, Note_off_c, 0, 57, 53
1, 245095, Note_on_c, 0, 63, 56
1, 245099, Control_c, 0, 64, 79
1, 245100, Note_off_c, 0, 52, 36
1, 245101, Note_off_c, 0, 64, 55
1, 245121, Control_c, 0, 64, 79
1, 245130, Note_off_c, 0, 49, 28
1, 245136, Control_c, 0, 64, 78
1, 245151, Control_c, 0, 64, 78
1, 245181, Control_c, 0, 64, 78
1, 245285, Note_off_c, 0, 51, 58
1, 245288, Note_off_c, 0, 48, 52
1, 245297, Note_on_c, 0, 64, 79
1, 245298, Note_on_c, 0, 49, 40
1, 245305, Note_off_c, 0, 69, 62
1, 245312, Note_on_c, 0, 52, 43
1, 245314, Note_on_c, 0, 57, 59
1, 245314, Control_c, 0, 64, 78
1, 245321, Note_off_c, 0, 63, 62
1, 245343, Control_c, 0, 64, 77
1, 245373, Control_c, 0, 64, 77
1, 245388, Control_c, 0, 64, 76
1, 245402, Control_c, 0, 64, 75
1, 245417, Control_c, 0, 64, 74
1, 245432, Control_c, 0, 64, 73
1, 245446, Control_c, 0, 64, 72
1, 245458, Note_off_c, 0, 52, 54
1, 245461, Control_c, 0, 64, 71
1, 245473, Note_on_c, 0, 51, 42
1, 245476, Control_c, 0, 64, 70
1, 245478, Note_on_c, 0, 69, 76
1, 245490, Note_off_c, 0, 64, 53
1, 245491, Note_on_c, 0, 48, 38
1, 245491, Control_c, 0, 64, 69
1, 245492, Note_on_c, 0, 63, 58
1, 245497, Note_off_c, 0, 57, 53
1, 245504, Note_off_c, 0, 49, 35
1, 245506, Control_c, 0, 64, 68
1, 245522, Control_c, 0, 64, 67
1, 245537, Control_c, 0, 64, 66
1, 245566, Control_c, 0, 64, 66
1, 245596, Control_c, 0, 64, 65
1, 245611, Control_c, 0, 64, 64
1, 245625, Control_c, 0, 64, 64
1, 245640, Control_c, 0, 64, 63
1, 245655, Control_c, 0, 64, 62
1, 245670, Control_c, 0, 64, 61
1, 245684, Note_off_c, 0, 48, 40
1, 245685, Control_c, 0, 64, 59
1, 245686, Note_off_c, 0, 51, 54
1, 245687, Note_on_c, 0, 64, 68
1, 245688, Note_off_c, 0, 69, 56
1, 245694, Note_on_c, 0, 49, 37
1, 245700, Control_c, 0, 64, 57
1, 245705, Note_on_c, 0, 52, 38
1, 245711, Note_on_c, 0, 57, 40
1, 245715, Note_off_c, 0, 63, 58
1, 245730, Control_c, 0, 64, 58
1, 245744, Control_c, 0, 64, 61
1, 245759, Control_c, 0, 64, 64
1, 245774, Control_c, 0, 64, 66
1, 245789, Control_c, 0, 64, 70
1, 245798, Note_off_c, 0, 52, 62
1, 245804, Control_c, 0, 64, 73
1, 245818, Control_c, 0, 64, 76
1, 245833, Control_c, 0, 64, 78
1, 245848, Control_c, 0, 64, 80
1, 245869, Control_c, 0, 64, 81
1, 245884, Control_c, 0, 64, 82
1, 245899, Control_c, 0, 64, 83
1, 245914, Control_c, 0, 64, 84
1, 245929, Control_c, 0, 64, 85
1, 245943, Control_c, 0, 64, 86
1, 245958, Control_c, 0, 64, 86
1, 246041, Note_on_c, 0, 47, 33
1, 246047, Control_c, 0, 64, 86
1, 246048, Note_on_c, 0, 54, 38
1, 246062, Control_c, 0, 64, 85
1, 246076, Control_c, 0, 64, 84
1, 246091, Control_c, 0, 64, 83
1, 246106, Control_c, 0, 64, 82
1, 246121, Control_c, 0, 64, 80
1, 246128, Note_off_c, 0, 49, 36
1, 246136, Control_c, 0, 64, 77
1, 246141, Note_on_c, 0, 69, 56
1, 246150, Control_c, 0, 64, 73
1, 246153, Note_off_c, 0, 64, 57
1, 246155, Note_on_c, 0, 63, 34
1, 246165, Control_c, 0, 64, 69
1, 246175, Note_off_c, 0, 57, 39
1, 246180, Control_c, 0, 64, 66
1, 246195, Control_c, 0, 64, 63
1, 246210, Control_c, 0, 64, 60
1, 246224, Control_c, 0, 64, 53
1, 246239, Control_c, 0, 64, 38
1, 246254, Control_c, 0, 64, 0
1, 246329, Control_c, 0, 64, 36
1, 246344, Control_c, 0, 64, 54
1, 246359, Control_c, 0, 64, 61
1, 246373, Control_c, 0, 64, 63
1, 246388, Control_c, 0, 64, 65
1, 246403, Control_c, 0, 64, 67
1, 246418, Control_c, 0, 64, 70
1, 246433, Control_c, 0, 64, 75
1, 246448, Control_c, 0, 64, 82
1, 246454, Note_off_c, 0, 54, 41
1, 246463, Control_c, 0, 64, 90
1, 246478, Control_c, 0, 64, 100
1, 246484, Note_off_c, 0, 63, 55
1, 246492, Control_c, 0, 64, 115
1, 246507, Control_c, 0, 64, 127
1, 246838, Note_on_c, 0, 52, 32
1, 246847, Note_on_c, 0, 49, 29
1, 246923, Note_on_c, 0, 64, 50
1, 246929, Control_c, 0, 64, 117
1, 246937, Note_on_c, 0, 57, 40
1, 246944, Control_c, 0, 64, 102
1, 246954, Note_off_c, 0, 69, 38
1, 246959, Control_c, 0, 64, 94
1, 246973, Control_c, 0, 64, 87
1, 246988, Control_c, 0, 64, 79
1, 247003, Control_c, 0, 64, 69
1, 247018, Control_c, 0, 64, 63
1, 247033, Control_c, 0, 64, 57
1, 247037, Note_off_c, 0, 47, 35
1, 247047, Control_c, 0, 64, 58
1, 247062, Control_c, 0, 64, 61
1, 247077, Control_c, 0, 64, 64
1, 247092, Control_c, 0, 64, 69
1, 247107, Control_c, 0, 64, 75
1, 247122, Control_c, 0, 64, 82
1, 247137, Control_c, 0, 64, 90
1, 247152, Control_c, 0, 64, 96
1, 247167, Control_c, 0, 64, 101
1, 247182, Control_c, 0, 64, 107
1, 247196, Control_c, 0, 64, 109
1, 247256, Control_c, 0, 64, 108
1, 247271, Control_c, 0, 64, 107
1, 247286, Control_c, 0, 64, 105
1, 247298, Note_off_c, 0, 64, 49
1, 247300, Control_c, 0, 64, 103
1, 247303, Note_on_c, 0, 69, 56
1, 247314, Note_on_c, 0, 48, 39
1, 247314, Note_on_c, 0, 63, 39
1, 247315, Control_c, 0, 64, 100
1, 247316, Note_on_c, 0, 51, 29
1, 247330, Control_c, 0, 64, 97
1, 247345, Control_c, 0, 64, 93
1, 247369, Control_c, 0, 64, 87
1, 247384, Control_c, 0, 64, 79
1, 247390, Note_off_c, 0, 57, 30
1, 247398, Control_c, 0, 64, 73
1, 247403, Note_off_c, 0, 52, 42
1, 247413, Control_c, 0, 64, 70
1, 247428, Control_c, 0, 64, 70
1, 247443, Control_c, 0, 64, 70
1, 247458, Control_c, 0, 64, 71
1, 247458, Note_off_c, 0, 49, 33
1, 247472, Control_c, 0, 64, 72
1, 247570, Note_off_c, 0, 69, 52
1, 247577, Note_off_c, 0, 63, 57
1, 247581, Note_on_c, 0, 64, 51
1, 247588, Note_off_c, 0, 48, 40
1, 247598, Note_off_c, 0, 51, 47
1, 247610, Note_on_c, 0, 49, 33
1, 247610, Note_on_c, 0, 57, 33
1, 247622, Note_on_c, 0, 52, 30
1, 247664, Control_c, 0, 64, 71
1, 247724, Control_c, 0, 64, 71
1, 247739, Control_c, 0, 64, 70
1, 247754, Control_c, 0, 64, 70
1, 247758, Note_off_c, 0, 64, 57
1, 247762, Note_on_c, 0, 51, 32
1, 247765, Note_on_c, 0, 69, 49
1, 247780, Note_off_c, 0, 52, 36
1, 247791, Note_off_c, 0, 57, 41
1, 247795, Note_on_c, 0, 63, 35
1, 247798, Note_on_c, 0, 48, 32
1, 247810, Note_off_c, 0, 49, 33
1, 247858, Control_c, 0, 64, 70
1, 247872, Control_c, 0, 64, 71
1, 247887, Control_c, 0, 64, 71
1, 247902, Control_c, 0, 64, 72
1, 247917, Control_c, 0, 64, 73
1, 247932, Control_c, 0, 64, 73
1, 247937, Note_off_c, 0, 48, 29
1, 247946, Note_off_c, 0, 69, 53
1, 247947, Control_c, 0, 64, 74
1, 247954, Note_off_c, 0, 51, 37
1, 247956, Note_on_c, 0, 52, 20
1, 247961, Note_on_c, 0, 49, 37
1, 247961, Note_on_c, 0, 57, 37
1, 247962, Control_c, 0, 64, 76
1, 247968, Note_off_c, 0, 63, 42
1, 247974, Note_on_c, 0, 64, 51
1, 247977, Control_c, 0, 64, 77
1, 247992, Control_c, 0, 64, 79
1, 248006, Note_off_c, 0, 52, 49
1, 248007, Control_c, 0, 64, 80
1, 248021, Control_c, 0, 64, 81
1, 248036, Control_c, 0, 64, 81
1, 248051, Control_c, 0, 64, 82
1, 248147, Control_c, 0, 64, 81
1, 248162, Control_c, 0, 64, 81
1, 248177, Control_c, 0, 64, 80
1, 248192, Control_c, 0, 64, 79
1, 248207, Control_c, 0, 64, 78
1, 248221, Control_c, 0, 64, 77
1, 248236, Control_c, 0, 64, 75
1, 248251, Control_c, 0, 64, 74
1, 248262, Note_on_c, 0, 54, 34
1, 248263, Note_on_c, 0, 47, 29
1, 248266, Control_c, 0, 64, 72
1, 248281, Control_c, 0, 64, 71
1, 248295, Control_c, 0, 64, 70
1, 248310, Control_c, 0, 64, 69
1, 248311, Note_off_c, 0, 49, 38
1, 248325, Control_c, 0, 64, 66
1, 248339, Control_c, 0, 64, 63
1, 248354, Control_c, 0, 64, 55
1, 248369, Control_c, 0, 64, 38
1, 248370, Note_on_c, 0, 63, 35
1, 248370, Note_off_c, 0, 64, 48
1, 248374, Note_on_c, 0, 69, 43
1, 248384, Control_c, 0, 64, 0
1, 248428, Control_c, 0, 64, 16
1, 248443, Control_c, 0, 64, 35
1, 248447, Note_off_c, 0, 57, 36
1, 248458, Control_c, 0, 64, 49
1, 248472, Control_c, 0, 64, 57
1, 248487, Control_c, 0, 64, 61
1, 248502, Control_c, 0, 64, 62
1, 248517, Control_c, 0, 64, 64
1, 248532, Control_c, 0, 64, 65
1, 248546, Control_c, 0, 64, 67
1, 248561, Control_c, 0, 64, 69
1, 248576, Control_c, 0, 64, 70
1, 248591, Control_c, 0, 64, 73
1, 248606, Control_c, 0, 64, 74
1, 248621, Control_c, 0, 64, 76
1, 248627, Note_on_c, 0, 51, 41
1, 248636, Control_c, 0, 64, 78
1, 248651, Control_c, 0, 64, 79
1, 248654, Note_off_c, 0, 54, 41
1, 248657, Note_off_c, 0, 51, 50
1, 248663, Note_off_c, 0, 47, 57
1, 248665, Control_c, 0, 64, 81
1, 248680, Control_c, 0, 64, 82
1, 248695, Control_c, 0, 64, 83
1, 248710, Control_c, 0, 64, 84
1, 248725, Control_c, 0, 64, 84
1, 248740, Control_c, 0, 64, 85
1, 248805, Note_on_c, 0, 47, 44
1, 248829, Control_c, 0, 64, 85
1, 248857, Control_c, 0, 64, 86
1, 248880, Control_c, 0, 64, 86
1, 248924, Control_c, 0, 64, 87
1, 248971, Note_on_c, 0, 59, 58
1, 248974, Note_off_c, 0, 63, 51
1, 248983, Note_on_c, 0, 42, 35
1, 248998, Control_c, 0, 64, 87
1, 249031, Note_off_c, 0, 69, 37
1, 249072, Control_c, 0, 64, 87
1, 249087, Control_c, 0, 64, 86
1, 249102, Control_c, 0, 64, 86
1, 249116, Control_c, 0, 64, 85
1, 249131, Control_c, 0, 64, 85
1, 249146, Control_c, 0, 64, 84
1, 249161, Control_c, 0, 64, 82
1, 249175, Control_c, 0, 64, 81
1, 249190, Control_c, 0, 64, 78
1, 249192, Note_on_c, 0, 35, 31
1, 249205, Control_c, 0, 64, 76
1, 249220, Control_c, 0, 64, 74
1, 249235, Control_c, 0, 64, 71
1, 249250, Control_c, 0, 64, 70
1, 249259, Note_off_c, 0, 59, 58
1, 249265, Control_c, 0, 64, 67
1, 249265, Note_on_c, 0, 61, 50
1, 249274, Note_on_c, 0, 58, 43
1, 249275, Note_off_c, 0, 42, 32
1, 249280, Control_c, 0, 64, 62
1, 249294, Control_c, 0, 64, 50
1, 249309, Control_c, 0, 64, 18
1, 249324, Control_c, 0, 64, 0
1, 249354, Control_c, 0, 64, 17
1, 249368, Control_c, 0, 64, 43
1, 249374, Note_off_c, 0, 47, 26
1, 249383, Control_c, 0, 64, 57
1, 249398, Control_c, 0, 64, 63
1, 249413, Control_c, 0, 64, 66
1, 249428, Control_c, 0, 64, 69
1, 249442, Control_c, 0, 64, 73
1, 249451, Note_off_c, 0, 58, 57
1, 249457, Control_c, 0, 64, 78
1, 249468, Note_on_c, 0, 63, 60
1, 249472, Control_c, 0, 64, 82
1, 249473, Note_on_c, 0, 57, 37
1, 249478, Note_off_c, 0, 61, 54
1, 249487, Control_c, 0, 64, 87
1, 249488, Note_off_c, 0, 35, 39
1, 249503, Control_c, 0, 64, 91
1, 249518, Control_c, 0, 64, 97
1, 249533, Control_c, 0, 64, 102
1, 249548, Control_c, 0, 64, 107
1, 249563, Control_c, 0, 64, 114
1, 249577, Control_c, 0, 64, 127
1, 249602, Note_off_c, 0, 57, 58
1, 249616, Note_on_c, 0, 64, 64
1, 249622, Note_on_c, 0, 56, 55
1, 249647, Note_off_c, 0, 56, 62
1, 249670, Note_off_c, 0, 63, 45
1, 249676, Note_off_c, 0, 64, 60
1, 249755, Note_on_c, 0, 52, 47
1, 249773, Note_on_c, 0, 68, 72
1, 249804, Note_off_c, 0, 52, 55
1, 249849, Note_off_c, 0, 68, 59
1, 249910, Control_c, 0, 64, 112
1, 249925, Control_c, 0, 64, 100
1, 249932, Note_on_c, 0, 52, 40
1, 249940, Control_c, 0, 64, 93
1, 249955, Control_c, 0, 64, 89
1, 249956, Note_on_c, 0, 47, 41
1, 249963, Note_on_c, 0, 71, 64
1, 249970, Control_c, 0, 64, 86
1, 249984, Control_c, 0, 64, 79
1, 249989, Note_on_c, 0, 68, 48
1, 249999, Note_on_c, 0, 57, 36
1, 249999, Control_c, 0, 64, 69
1, 250001, Note_on_c, 0, 59, 33
1, 250014, Control_c, 0, 64, 61
1, 250029, Control_c, 0, 64, 49
1, 250044, Control_c, 0, 64, 46
1, 250058, Control_c, 0, 64, 48
1, 250073, Control_c, 0, 64, 54
1, 250088, Control_c, 0, 64, 59
1, 250103, Control_c, 0, 64, 63
1, 250117, Control_c, 0, 64, 66
1, 250119, Note_on_c, 0, 51, 47
1, 250120, Note_off_c, 0, 71, 57
1, 250127, Note_on_c, 0, 66, 52
1, 250129, Note_off_c, 0, 52, 49
1, 250132, Note_off_c, 0, 59, 44
1, 250132, Control_c, 0, 64, 69
1, 250147, Control_c, 0, 64, 73
1, 250149, Note_off_c, 0, 57, 39
1, 250162, Control_c, 0, 64, 77
1, 250177, Control_c, 0, 64, 80
1, 250192, Control_c, 0, 64, 84
1, 250207, Control_c, 0, 64, 90
1, 250210, Note_off_c, 0, 47, 25
1, 250222, Control_c, 0, 64, 96
1, 250237, Control_c, 0, 64, 103
1, 250252, Control_c, 0, 64, 111
1, 250263, Note_off_c, 0, 51, 34
1, 250266, Control_c, 0, 64, 113
1, 250269, Note_on_c, 0, 52, 49
1, 250272, Note_on_c, 0, 64, 56
1, 250300, Note_off_c, 0, 66, 60
1, 250305, Note_off_c, 0, 64, 64
1, 250319, Note_off_c, 0, 68, 23
1, 250342, Note_off_c, 0, 52, 60
1, 250363, Control_c, 0, 64, 111
1, 250378, Control_c, 0, 64, 110
1, 250393, Control_c, 0, 64, 109
1, 250396, Note_on_c, 0, 47, 44
1, 250408, Control_c, 0, 64, 107
1, 250413, Note_on_c, 0, 71, 76
1, 250422, Control_c, 0, 64, 106
1, 250437, Control_c, 0, 64, 104
1, 250452, Control_c, 0, 64, 102
1, 250467, Control_c, 0, 64, 101
1, 250481, Control_c, 0, 64, 99
1, 250496, Control_c, 0, 64, 98
1, 250511, Control_c, 0, 64, 98
1, 250526, Control_c, 0, 64, 96
1, 250541, Control_c, 0, 64, 91
1, 250547, Note_on_c, 0, 59, 49
1, 250556, Control_c, 0, 64, 79
1, 250568, Note_on_c, 0, 73, 71
1, 250569, Note_off_c, 0, 71, 63
1, 250570, Note_on_c, 0, 70, 65
1, 250570, Control_c, 0, 64, 66
1, 250585, Control_c, 0, 64, 52
1, 250600, Control_c, 0, 64, 32
1, 250615, Control_c, 0, 64, 31
1, 250630, Control_c, 0, 64, 41
1, 250645, Control_c, 0, 64, 52
1, 250660, Control_c, 0, 64, 60
1, 250675, Control_c, 0, 64, 64
1, 250689, Control_c, 0, 64, 68
1, 250698, Note_off_c, 0, 70, 56
1, 250700, Note_on_c, 0, 75, 76
1, 250704, Control_c, 0, 64, 73
1, 250708, Note_off_c, 0, 73, 59
1, 250709, Note_on_c, 0, 69, 64
1, 250719, Control_c, 0, 64, 80
1, 250733, Control_c, 0, 64, 88
1, 250748, Control_c, 0, 64, 98
1, 250763, Control_c, 0, 64, 115
1, 250778, Control_c, 0, 64, 127
1, 250791, Note_off_c, 0, 69, 60
1, 250806, Note_off_c, 0, 47, 39
1, 250827, Note_on_c, 0, 76, 80
1, 250830, Note_on_c, 0, 68, 72
1, 250853, Note_off_c, 0, 59, 62
1, 250857, Note_off_c, 0, 68, 68
1, 250861, Note_off_c, 0, 75, 62
1, 250890, Note_off_c, 0, 76, 61
1, 250970, Note_on_c, 0, 80, 88
1, 250992, Note_on_c, 0, 64, 53
1, 251033, Note_off_c, 0, 64, 60
1, 251089, Note_off_c, 0, 80, 60
1, 251174, Note_on_c, 0, 64, 43
1, 251183, Note_on_c, 0, 59, 55
1, 251187, Control_c, 0, 64, 104
1, 251196, Note_on_c, 0, 83, 76
1, 251202, Control_c, 0, 64, 90
1, 251211, Note_on_c, 0, 80, 66
1, 251211, Note_on_c, 0, 69, 64
1, 251211, Note_on_c, 0, 71, 60
1, 251217, Control_c, 0, 64, 79
1, 251232, Control_c, 0, 64, 69
1, 251246, Control_c, 0, 64, 59
1, 251261, Control_c, 0, 64, 42
1, 251276, Control_c, 0, 64, 34
1, 251291, Control_c, 0, 64, 37
1, 251306, Control_c, 0, 64, 46
1, 251320, Control_c, 0, 64, 56
1, 251335, Control_c, 0, 64, 62
1, 251350, Control_c, 0, 64, 65
1, 251358, Note_off_c, 0, 83, 55
1, 251359, Note_on_c, 0, 63, 46
1, 251359, Note_on_c, 0, 78, 61
1, 251360, Note_off_c, 0, 69, 56
1, 251364, Note_off_c, 0, 71, 36
1, 251364, Control_c, 0, 64, 68
1, 251379, Control_c, 0, 64, 73
1, 251393, Note_off_c, 0, 64, 54
1, 251394, Control_c, 0, 64, 79
1, 251409, Control_c, 0, 64, 86
1, 251424, Control_c, 0, 64, 96
1, 251438, Control_c, 0, 64, 108
1, 251444, Note_off_c, 0, 80, 46
1, 251453, Control_c, 0, 64, 127
1, 251473, Note_off_c, 0, 59, 57
1, 251480, Note_off_c, 0, 63, 59
1, 251492, Note_on_c, 0, 76, 77
1, 251502, Note_on_c, 0, 68, 59
1, 251518, Note_off_c, 0, 76, 67
1, 251523, Note_off_c, 0, 68, 63
1, 251526, Note_off_c, 0, 78, 59
1, 251566, Poly_aftertouch_c, 0, 64, 127
1, 251594, Poly_aftertouch_c, 0, 64, 0
1, 251602, Control_c, 0, 64, 112
1, 251617, Control_c, 0, 64, 100
1, 251631, Control_c, 0, 64, 95
1, 251646, Control_c, 0, 64, 94
1, 251661, Control_c, 0, 64, 90
1, 251667, Note_on_c, 0, 80, 81
1, 251673, Note_on_c, 0, 76, 76
1, 251675, Note_on_c, 0, 62, 56
1, 251676, Control_c, 0, 64, 80
1, 251690, Control_c, 0, 64, 66
1, 251695, Note_on_c, 0, 71, 40
1, 251705, Control_c, 0, 64, 48
1, 251711, Note_on_c, 0, 72, 48
1, 251720, Control_c, 0, 64, 31
1, 251735, Control_c, 0, 64, 39
1, 251745, Note_off_c, 0, 72, 49
1, 251750, Control_c, 0, 64, 56
1, 251761, Note_off_c, 0, 62, 63
1, 251764, Control_c, 0, 64, 63
1, 251779, Control_c, 0, 64, 69
1, 251794, Control_c, 0, 64, 76
1, 251809, Control_c, 0, 64, 82
1, 251811, Note_on_c, 0, 81, 84
1, 251815, Note_on_c, 0, 88, 81
1, 251824, Control_c, 0, 64, 79
1, 251826, Note_on_c, 0, 69, 72
1, 251831, Note_off_c, 0, 71, 65
1, 251831, Note_off_c, 0, 76, 65
1, 251834, Note_off_c, 0, 80, 65
1, 251836, Note_on_c, 0, 61, 59
1, 251838, Control_c, 0, 64, 70
1, 251843, Note_off_c, 0, 88, 67
1, 251858, Note_off_c, 0, 81, 65
1, 251860, Control_c, 0, 64, 62
1, 251863, Note_off_c, 0, 69, 61
1, 251875, Control_c, 0, 64, 53
1, 251880, Note_off_c, 0, 61, 62
1, 251889, Control_c, 0, 64, 45
1, 251904, Control_c, 0, 64, 36
1, 251921, Control_c, 0, 64, 23
1, 251935, Control_c, 0, 64, 0
1, 251963, Note_on_c, 0, 71, 65
1, 251967, Note_on_c, 0, 80, 94
1, 251969, Note_on_c, 0, 62, 56
1, 251974, Note_on_c, 0, 76, 78
1, 251980, Control_c, 0, 64, 12
1, 251994, Control_c, 0, 64, 26
1, 252009, Control_c, 0, 64, 36
1, 252024, Control_c, 0, 64, 40
1, 252037, Note_off_c, 0, 62, 64
1, 252039, Control_c, 0, 64, 41
1, 252054, Control_c, 0, 64, 45
1, 252068, Control_c, 0, 64, 54
1, 252083, Control_c, 0, 64, 62
1, 252088, Note_off_c, 0, 71, 59
1, 252091, Note_on_c, 0, 69, 58
1, 252094, Note_on_c, 0, 88, 85
1, 252098, Note_on_c, 0, 81, 71
1, 252098, Control_c, 0, 64, 68
1, 252103, Note_on_c, 0, 61, 63
1, 252104, Note_off_c, 0, 76, 62
1, 252112, Note_off_c, 0, 69, 62
1, 252112, Note_off_c, 0, 80, 64
1, 252113, Control_c, 0, 64, 78
1, 252120, Note_off_c, 0, 88, 67
1, 252121, Note_off_c, 0, 81, 71
1, 252128, Control_c, 0, 64, 114
1, 252133, Note_off_c, 0, 61, 66
1, 252142, Control_c, 0, 64, 127
1, 252290, Note_on_c, 0, 50, 56
1, 252291, Note_on_c, 0, 59, 57
1, 252292, Note_on_c, 0, 68, 86
1, 252303, Note_on_c, 0, 64, 75
1, 252320, Control_c, 0, 64, 109
1, 252335, Control_c, 0, 64, 85
1, 252350, Control_c, 0, 64, 68
1, 252365, Control_c, 0, 64, 49
1, 252379, Control_c, 0, 64, 0
1, 252424, Control_c, 0, 64, 46
1, 252430, Note_off_c, 0, 50, 62
1, 252439, Control_c, 0, 64, 62
1, 252453, Control_c, 0, 64, 69
1, 252468, Control_c, 0, 64, 81
1, 252483, Control_c, 0, 64, 113
1, 252497, Control_c, 0, 64, 127
1, 252580, Note_on_c, 0, 57, 54
1, 252583, Note_off_c, 0, 59, 55
1, 252586, Control_c, 0, 64, 119
1, 252600, Note_on_c, 0, 49, 45
1, 252601, Control_c, 0, 64, 101
1, 252624, Control_c, 0, 64, 91
1, 252632, Note_on_c, 0, 76, 72
1, 252636, Note_on_c, 0, 69, 64
1, 252639, Control_c, 0, 64, 83
1, 252652, Note_off_c, 0, 68, 56
1, 252654, Control_c, 0, 64, 76
1, 252668, Control_c, 0, 64, 68
1, 252671, Note_off_c, 0, 64, 42
1, 252683, Control_c, 0, 64, 52
1, 252698, Control_c, 0, 64, 0
1, 252788, Control_c, 0, 64, 48
1, 252803, Control_c, 0, 64, 62
1, 252806, Note_off_c, 0, 57, 61
1, 252817, Control_c, 0, 64, 68
1, 252832, Control_c, 0, 64, 76
1, 252847, Control_c, 0, 64, 93
1, 252854, Note_off_c, 0, 76, 59
1, 252858, Note_off_c, 0, 49, 61
1, 252862, Control_c, 0, 64, 127
1, 252881, Note_off_c, 0, 69, 63
1, 253098, Note_on_c, 0, 59, 48
1, 253120, Note_on_c, 0, 50, 46
1, 253143, Control_c, 0, 64, 116
1, 253158, Control_c, 0, 64, 104
1, 253161, Note_on_c, 0, 68, 76
1, 253170, Note_on_c, 0, 64, 65
1, 253173, Control_c, 0, 64, 88
1, 253188, Control_c, 0, 64, 75
1, 253202, Control_c, 0, 64, 67
1, 253232, Control_c, 0, 64, 71
1, 253247, Control_c, 0, 64, 78
1, 253262, Note_off_c, 0, 50, 63
1, 253262, Control_c, 0, 64, 87
1, 253276, Control_c, 0, 64, 98
1, 253291, Control_c, 0, 64, 109
1, 253306, Control_c, 0, 64, 117
1, 253321, Control_c, 0, 64, 119
1, 253338, Note_on_c, 0, 57, 56
1, 253341, Note_on_c, 0, 76, 85
1, 253344, Note_off_c, 0, 59, 59
1, 253348, Note_on_c, 0, 49, 49
1, 253360, Note_on_c, 0, 69, 77
1, 253361, Note_off_c, 0, 68, 58
1, 253387, Control_c, 0, 64, 116
1, 253388, Note_off_c, 0, 64, 42
1, 253399, Note_off_c, 0, 57, 63
1, 253402, Control_c, 0, 64, 113
1, 253408, Note_off_c, 0, 76, 63
1, 253411, Note_off_c, 0, 69, 64
1, 253417, Control_c, 0, 64, 110
1, 253421, Note_off_c, 0, 49, 58
1, 253432, Control_c, 0, 64, 107
1, 253447, Control_c, 0, 64, 104
1, 253447, Control_c, 0, 67, 127
1, 253462, Control_c, 0, 64, 98
1, 253462, Control_c, 0, 67, 126
1, 253476, Control_c, 0, 64, 90
1, 253491, Control_c, 0, 64, 82
1, 253500, Note_on_c, 0, 59, 60
1, 253505, Note_on_c, 0, 68, 86
1, 253507, Control_c, 0, 64, 77
1, 253510, Note_on_c, 0, 64, 74
1, 253522, Control_c, 0, 64, 70
1, 253522, Control_c, 0, 67, 125
1, 253525, Note_on_c, 0, 50, 43
1, 253536, Control_c, 0, 64, 64
1, 253536, Control_c, 0, 67, 125
1, 253551, Control_c, 0, 64, 59
1, 253551, Control_c, 0, 67, 124
1, 253566, Control_c, 0, 64, 59
1, 253581, Control_c, 0, 64, 61
1, 253581, Control_c, 0, 67, 124
1, 253596, Control_c, 0, 64, 64
1, 253596, Control_c, 0, 67, 123
1, 253609, Note_off_c, 0, 50, 55
1, 253611, Control_c, 0, 64, 68
1, 253626, Control_c, 0, 64, 75
1, 253626, Control_c, 0, 67, 122
1, 253640, Control_c, 0, 64, 85
1, 253655, Control_c, 0, 64, 101
1, 253655, Control_c, 0, 67, 122
1, 253659, Note_off_c, 0, 59, 48
1, 253670, Control_c, 0, 64, 127
1, 253671, Note_on_c, 0, 69, 77
1, 253679, Note_on_c, 0, 57, 48
1, 253684, Note_on_c, 0, 76, 69
1, 253689, Note_on_c, 0, 49, 59
1, 253693, Note_off_c, 0, 64, 58
1, 253700, Note_off_c, 0, 68, 62
1, 253704, Note_off_c, 0, 57, 56
1, 253715, Note_off_c, 0, 76, 65
1, 253718, Note_off_c, 0, 69, 63
1, 253719, Note_off_c, 0, 49, 65
1, 253744, Control_c, 0, 67, 123
1, 253758, Control_c, 0, 67, 125
1, 253773, Control_c, 0, 67, 127
1, 253788, Control_c, 0, 67, 127
1, 253832, Control_c, 0, 64, 114
1, 253847, Control_c, 0, 64, 107
1, 253862, Control_c, 0, 64, 100
1, 253877, Control_c, 0, 64, 93
1, 253892, Control_c, 0, 64, 85
1, 253894, Note_on_c, 0, 39, 58
1, 253906, Control_c, 0, 64, 79
1, 253921, Control_c, 0, 64, 74
1, 253932, Note_off_c, 0, 39, 49
1, 253933, Note_on_c, 0, 49, 29
1, 253936, Control_c, 0, 64, 70
1, 253948, Note_on_c, 0, 40, 47
1, 253951, Control_c, 0, 64, 66
1, 253966, Control_c, 0, 64, 61
1, 253974, Note_on_c, 0, 61, 78
1, 253981, Control_c, 0, 64, 43
1, 253983, Note_on_c, 0, 58, 70
1, 253996, Control_c, 0, 64, 0
1, 254070, Control_c, 0, 64, 29
1, 254085, Control_c, 0, 64, 54
1, 254106, Control_c, 0, 64, 62
1, 254121, Control_c, 0, 64, 65
1, 254136, Control_c, 0, 64, 66
1, 254151, Control_c, 0, 64, 68
1, 254165, Control_c, 0, 64, 68
1, 254188, Note_off_c, 0, 58, 55
1, 254210, Control_c, 0, 64, 68
1, 254211, Note_off_c, 0, 61, 58
1, 254225, Control_c, 0, 64, 67
1, 254231, Note_off_c, 0, 40, 56
1, 254239, Note_on_c, 0, 68, 66
1, 254240, Control_c, 0, 64, 66
1, 254255, Control_c, 0, 64, 65
1, 254270, Control_c, 0, 64, 63
1, 254273, Note_on_c, 0, 59, 54
1, 254283, Note_on_c, 0, 47, 46
1, 254285, Control_c, 0, 64, 59
1, 254293, Note_on_c, 0, 66, 67
1, 254297, Note_on_c, 0, 39, 27
1, 254300, Control_c, 0, 64, 51
1, 254300, Note_on_c, 0, 57, 52
1, 254307, Note_off_c, 0, 49, 38
1, 254315, Control_c, 0, 64, 30
1, 254326, Note_off_c, 0, 68, 61
1, 254329, Control_c, 0, 64, 0
1, 254419, Control_c, 0, 64, 13
1, 254434, Control_c, 0, 64, 48
1, 254449, Control_c, 0, 64, 60
1, 254463, Control_c, 0, 64, 63
1, 254478, Control_c, 0, 64, 66
1, 254493, Control_c, 0, 64, 69
1, 254503, Note_off_c, 0, 57, 59
1, 254508, Control_c, 0, 64, 73
1, 254518, Note_off_c, 0, 47, 52
1, 254523, Control_c, 0, 64, 78
1, 254537, Control_c, 0, 64, 84
1, 254552, Control_c, 0, 64, 91
1, 254559, Note_on_c, 0, 63, 66
1, 254565, Note_off_c, 0, 59, 34
1, 254567, Control_c, 0, 64, 98
1, 254581, Control_c, 0, 64, 103
1, 254588, Note_off_c, 0, 39, 39
1, 254596, Control_c, 0, 64, 106
1, 254611, Control_c, 0, 64, 108
1, 254626, Control_c, 0, 64, 109
1, 254641, Control_c, 0, 64, 109
1, 254683, Note_off_c, 0, 66, 29
1, 254714, Note_on_c, 0, 59, 70
1, 254765, Note_off_c, 0, 63, 36
1, 254784, Note_off_c, 0, 59, 61
1, 254803, Control_c, 0, 64, 109
1, 254818, Control_c, 0, 64, 108
1, 254833, Control_c, 0, 64, 108
1, 254856, Control_c, 0, 64, 107
1, 254871, Control_c, 0, 64, 107
1, 254877, Note_on_c, 0, 59, 67
1, 254886, Control_c, 0, 64, 106
1, 254890, Note_on_c, 0, 35, 43
1, 254901, Control_c, 0, 64, 105
1, 254916, Control_c, 0, 64, 104
1, 254930, Control_c, 0, 64, 103
1, 254945, Control_c, 0, 64, 102
1, 254960, Control_c, 0, 64, 101
1, 254975, Control_c, 0, 64, 99
1, 254989, Control_c, 0, 64, 97
1, 255004, Control_c, 0, 64, 95
1, 255019, Control_c, 0, 64, 92
1, 255034, Control_c, 0, 64, 90
1, 255049, Control_c, 0, 64, 88
1, 255063, Control_c, 0, 64, 84
1, 255072, Note_on_c, 0, 47, 45
1, 255072, Note_off_c, 0, 59, 61
1, 255078, Control_c, 0, 64, 79
1, 255084, Note_on_c, 0, 61, 61
1, 255092, Note_on_c, 0, 58, 51
1, 255093, Control_c, 0, 64, 72
1, 255109, Control_c, 0, 64, 64
1, 255124, Control_c, 0, 64, 53
1, 255139, Control_c, 0, 64, 33
1, 255153, Control_c, 0, 64, 0
1, 255197, Control_c, 0, 64, 19
1, 255212, Control_c, 0, 64, 44
1, 255227, Control_c, 0, 64, 58
1, 255233, Note_off_c, 0, 58, 58
1, 255233, Note_off_c, 0, 61, 57
1, 255236, Note_on_c, 0, 63, 67
1, 255242, Control_c, 0, 64, 63
1, 255257, Control_c, 0, 64, 65
1, 255265, Note_on_c, 0, 57, 41
1, 255271, Control_c, 0, 64, 66
1, 255286, Control_c, 0, 64, 67
1, 255301, Control_c, 0, 64, 69
1, 255316, Control_c, 0, 64, 72
1, 255326, Note_off_c, 0, 35, 40
1, 255331, Control_c, 0, 64, 77
1, 255346, Control_c, 0, 64, 82
1, 255361, Control_c, 0, 64, 88
1, 255373, Note_on_c, 0, 64, 71
1, 255376, Control_c, 0, 64, 95
1, 255383, Note_off_c, 0, 57, 41
1, 255385, Note_off_c, 0, 47, 41
1, 255391, Control_c, 0, 64, 103
1, 255400, Note_on_c, 0, 56, 47
1, 255405, Control_c, 0, 64, 115
1, 255420, Control_c, 0, 64, 127
1, 255421, Note_off_c, 0, 63, 61
1, 255428, Note_off_c, 0, 56, 56
1, 255437, Note_off_c, 0, 64, 62
1, 255534, Note_on_c, 0, 52, 55
1, 255546, Note_on_c, 0, 68, 74
1, 255614, Note_off_c, 0, 52, 56
1, 255674, Note_off_c, 0, 68, 57
1, 255679, Control_c, 0, 64, 113
1, 255694, Control_c, 0, 64, 106
1, 255709, Control_c, 0, 64, 100
1, 255724, Control_c, 0, 64, 96
1, 255738, Control_c, 0, 64, 91
1, 255751, Note_on_c, 0, 52, 48
1, 255753, Control_c, 0, 64, 84
1, 255768, Control_c, 0, 64, 78
1, 255770, Note_on_c, 0, 47, 47
1, 255783, Control_c, 0, 64, 71
1, 255798, Control_c, 0, 64, 64
1, 255801, Note_on_c, 0, 71, 68
1, 255812, Control_c, 0, 64, 53
1, 255818, Note_on_c, 0, 68, 49
1, 255819, Note_on_c, 0, 59, 37
1, 255822, Note_on_c, 0, 57, 44
1, 255827, Control_c, 0, 64, 23
1, 255842, Control_c, 0, 64, 0
1, 255902, Control_c, 0, 64, 37
1, 255917, Control_c, 0, 64, 55
1, 255932, Control_c, 0, 64, 62
1, 255947, Control_c, 0, 64, 65
1, 255962, Control_c, 0, 64, 68
1, 255971, Note_on_c, 0, 66, 57
1, 255972, Note_off_c, 0, 71, 59
1, 255975, Note_on_c, 0, 51, 52
1, 255976, Control_c, 0, 64, 70
1, 255978, Note_off_c, 0, 59, 50
1, 255981, Note_off_c, 0, 57, 53
1, 255991, Control_c, 0, 64, 73
1, 256001, Note_off_c, 0, 47, 36
1, 256001, Note_off_c, 0, 52, 41
1, 256006, Control_c, 0, 64, 76
1, 256021, Control_c, 0, 64, 80
1, 256035, Control_c, 0, 64, 84
1, 256050, Control_c, 0, 64, 87
1, 256060, Note_off_c, 0, 51, 62
1, 256065, Control_c, 0, 64, 92
1, 256080, Control_c, 0, 64, 101
1, 256094, Control_c, 0, 64, 127
1, 256122, Note_on_c, 0, 52, 30
1, 256122, Note_on_c, 0, 64, 65
1, 256156, Note_off_c, 0, 64, 63
1, 256167, Note_off_c, 0, 66, 56
1, 256204, Note_off_c, 0, 68, 17
1, 256262, Note_on_c, 0, 64, 70
1, 256269, Note_on_c, 0, 40, 45
1, 256272, Note_off_c, 0, 52, 44
1, 256273, Control_c, 0, 64, 111
1, 256288, Control_c, 0, 64, 101
1, 256302, Control_c, 0, 64, 94
1, 256317, Control_c, 0, 64, 88
1, 256332, Control_c, 0, 64, 83
1, 256353, Control_c, 0, 64, 78
1, 256368, Control_c, 0, 64, 69
1, 256383, Control_c, 0, 64, 59
1, 256398, Control_c, 0, 64, 28
1, 256398, Note_on_c, 0, 52, 42
1, 256413, Control_c, 0, 64, 0
1, 256425, Note_on_c, 0, 66, 71
1, 256428, Note_off_c, 0, 64, 63
1, 256434, Note_on_c, 0, 63, 58
1, 256457, Control_c, 0, 64, 28
1, 256472, Control_c, 0, 64, 51
1, 256487, Control_c, 0, 64, 61
1, 256501, Control_c, 0, 64, 65
1, 256516, Control_c, 0, 64, 67
1, 256531, Control_c, 0, 64, 70
1, 256546, Control_c, 0, 64, 74
1, 256560, Control_c, 0, 64, 80
1, 256562, Note_on_c, 0, 68, 83
1, 256574, Note_on_c, 0, 62, 62
1, 256575, Control_c, 0, 64, 88
1, 256580, Note_off_c, 0, 63, 56
1, 256590, Note_off_c, 0, 66, 57
1, 256590, Control_c, 0, 64, 101
1, 256605, Control_c, 0, 64, 125
1, 256611, Note_off_c, 0, 40, 39
1, 256620, Control_c, 0, 64, 127
1, 256644, Note_off_c, 0, 62, 62
1, 256654, Note_off_c, 0, 52, 62
1, 256686, Note_on_c, 0, 69, 83
1, 256693, Note_on_c, 0, 61, 74
1, 256720, Note_off_c, 0, 61, 69
1, 256723, Note_off_c, 0, 68, 60
1, 256750, Note_off_c, 0, 69, 64
1, 256823, Note_on_c, 0, 57, 59
1, 256830, Note_on_c, 0, 73, 95
1, 256877, Note_off_c, 0, 57, 56
1, 256935, Note_off_c, 0, 73, 61
1, 256976, Note_on_c, 0, 52, 55
1, 256976, Control_c, 0, 64, 113
1, 256985, Note_on_c, 0, 57, 57
1, 256991, Control_c, 0, 64, 88
1, 257006, Control_c, 0, 64, 67
1, 257014, Note_on_c, 0, 76, 82
1, 257021, Control_c, 0, 64, 39
1, 257030, Note_on_c, 0, 73, 68
1, 257031, Note_on_c, 0, 64, 64
1, 257033, Note_on_c, 0, 62, 63
1, 257036, Control_c, 0, 64, 0
1, 257102, Control_c, 0, 64, 39
1, 257117, Control_c, 0, 64, 58
1, 257131, Control_c, 0, 64, 64
1, 257146, Control_c, 0, 64, 68
1, 257160, Note_on_c, 0, 56, 53
1, 257161, Control_c, 0, 64, 73
1, 257170, Note_on_c, 0, 71, 80
1, 257176, Control_c, 0, 64, 79
1, 257178, Note_off_c, 0, 76, 61
1, 257181, Note_off_c, 0, 64, 57
1, 257183, Note_off_c, 0, 62, 61
1, 257191, Control_c, 0, 64, 85
1, 257191, Note_off_c, 0, 73, 0
1, 257202, Note_off_c, 0, 57, 56
1, 257206, Control_c, 0, 64, 92
1, 257209, Note_on_c, 0, 70, 12
1, 257221, Control_c, 0, 64, 100
1, 257230, Poly_aftertouch_c, 0, 73, 127
1, 257236, Control_c, 0, 64, 114
1, 257250, Control_c, 0, 64, 127
1, 257255, Note_off_c, 0, 70, 29
1, 257267, Note_off_c, 0, 52, 59
1, 257272, Poly_aftertouch_c, 0, 73, 0
1, 257273, Note_off_c, 0, 71, 62
1, 257309, Note_off_c, 0, 56, 63
1, 257310, Note_on_c, 0, 69, 87
1, 257315, Note_on_c, 0, 57, 71
1, 257322, Note_on_c, 0, 61, 66
1, 257349, Note_off_c, 0, 61, 63
1, 257365, Note_off_c, 0, 69, 62
1, 257376, Note_off_c, 0, 57, 62
1, 257443, Note_on_c, 0, 61, 62
1, 257443, Control_c, 0, 67, 127
1, 257457, Control_c, 0, 67, 125
1, 257471, Note_on_c, 0, 73, 100
1, 257472, Control_c, 0, 67, 125
1, 257487, Control_c, 0, 67, 124
1, 257490, Note_on_c, 0, 69, 74
1, 257503, Control_c, 0, 67, 123
1, 257518, Control_c, 0, 67, 122
1, 257533, Control_c, 0, 67, 121
1, 257547, Control_c, 0, 67, 120
1, 257562, Control_c, 0, 67, 119
1, 257577, Control_c, 0, 67, 112
1, 257592, Control_c, 0, 67, 102
1, 257606, Control_c, 0, 67, 89
1, 257614, Note_off_c, 0, 69, 53
1, 257621, Control_c, 0, 67, 77
1, 257636, Control_c, 0, 67, 64
1, 257651, Control_c, 0, 67, 57
1, 257665, Note_off_c, 0, 73, 60
1, 257666, Control_c, 0, 67, 54
1, 257680, Control_c, 0, 67, 52
1, 257692, Note_on_c, 0, 65, 76
1, 257695, Control_c, 0, 67, 52
1, 257710, Control_c, 0, 64, 110
1, 257725, Control_c, 0, 64, 97
1, 257725, Control_c, 0, 67, 51
1, 257740, Control_c, 0, 64, 90
1, 257754, Control_c, 0, 64, 84
1, 257769, Control_c, 0, 64, 74
1, 257784, Control_c, 0, 64, 62
1, 257787, Note_on_c, 0, 73, 93
1, 257799, Control_c, 0, 64, 0
1, 257804, Note_on_c, 0, 69, 73
1, 257814, Control_c, 0, 67, 51
1, 257880, Control_c, 0, 64, 43
1, 257895, Control_c, 0, 64, 62
1, 257910, Control_c, 0, 64, 68
1, 257925, Control_c, 0, 64, 75
1, 257940, Control_c, 0, 64, 87
1, 257940, Control_c, 0, 67, 50
1, 257954, Control_c, 0, 64, 101
1, 257969, Control_c, 0, 64, 127
1, 257969, Control_c, 0, 67, 49
1, 257999, Control_c, 0, 67, 49
1, 258013, Note_on_c, 0, 68, 87
1, 258059, Note_off_c, 0, 73, 61
1, 258070, Note_off_c, 0, 69, 55
1, 258073, Control_c, 0, 67, 48
1, 258103, Control_c, 0, 67, 47
1, 258125, Note_on_c, 0, 66, 66
1, 258130, Note_off_c, 0, 65, 62
1, 258132, Control_c, 0, 67, 46
1, 258136, Note_off_c, 0, 61, 29
1, 258147, Control_c, 0, 64, 116
1, 258152, Note_on_c, 0, 71, 94
1, 258155, Note_off_c, 0, 66, 67
1, 258162, Control_c, 0, 64, 108
1, 258177, Control_c, 0, 64, 104
1, 258177, Control_c, 0, 67, 44
1, 258178, Note_off_c, 0, 68, 63
1, 258192, Control_c, 0, 64, 103
1, 258192, Control_c, 0, 67, 44
1, 258206, Control_c, 0, 64, 101
1, 258206, Control_c, 0, 67, 43
1, 258211, Note_off_c, 0, 71, 66
1, 258221, Control_c, 0, 64, 96
1, 258221, Control_c, 0, 67, 42
1, 258236, Control_c, 0, 64, 89
1, 258251, Control_c, 0, 64, 82
1, 258266, Control_c, 0, 64, 79
1, 258280, Control_c, 0, 67, 44
1, 258282, Note_on_c, 0, 73, 93
1, 258285, Note_on_c, 0, 61, 65
1, 258288, Note_on_c, 0, 49, 56
1, 258296, Control_c, 0, 67, 45
1, 258297, Note_on_c, 0, 69, 83
1, 258311, Control_c, 0, 67, 46
1, 258326, Control_c, 0, 67, 47
1, 258356, Control_c, 0, 67, 47
1, 258361, Note_off_c, 0, 69, 55
1, 258377, Note_off_c, 0, 61, 60
1, 258400, Control_c, 0, 67, 49
1, 258402, Note_off_c, 0, 73, 65
1, 258415, Control_c, 0, 64, 79
1, 258415, Control_c, 0, 67, 50
1, 258429, Control_c, 0, 64, 74
1, 258429, Control_c, 0, 67, 51
1, 258444, Control_c, 0, 64, 65
1, 258444, Control_c, 0, 67, 52
1, 258458, Note_on_c, 0, 73, 88
1, 258459, Control_c, 0, 64, 0
1, 258459, Control_c, 0, 67, 54
1, 258465, Note_on_c, 0, 69, 81
1, 258466, Note_on_c, 0, 61, 74
1, 258470, Note_off_c, 0, 49, 34
1, 258474, Control_c, 0, 67, 55
1, 258476, Note_on_c, 0, 53, 63
1, 258489, Control_c, 0, 67, 56
1, 258503, Control_c, 0, 67, 57
1, 258518, Control_c, 0, 67, 58
1, 258533, Control_c, 0, 67, 59
1, 258548, Control_c, 0, 67, 61
1, 258563, Control_c, 0, 67, 64
1, 258577, Control_c, 0, 67, 66
1, 258601, Control_c, 0, 64, 43
1, 258601, Control_c, 0, 67, 66
1, 258616, Control_c, 0, 64, 42
1, 258629, Note_on_c, 0, 68, 87
1, 258645, Control_c, 0, 67, 67
1, 258660, Control_c, 0, 64, 41
1, 258661, Note_off_c, 0, 73, 55
1, 258670, Note_off_c, 0, 69, 59
1, 258675, Control_c, 0, 67, 64
1, 258687, Note_off_c, 0, 61, 60
1, 258690, Control_c, 0, 64, 45
1, 258690, Control_c, 0, 67, 64
1, 258690, Note_off_c, 0, 53, 61
1, 258704, Control_c, 0, 64, 53
1, 258719, Control_c, 0, 64, 60
1, 258734, Control_c, 0, 64, 64
1, 258748, Control_c, 0, 64, 67
1, 258763, Note_on_c, 0, 71, 91
1, 258763, Control_c, 0, 64, 72
1, 258771, Note_on_c, 0, 54, 70
1, 258771, Note_on_c, 0, 61, 75
1, 258778, Control_c, 0, 64, 80
1, 258790, Note_off_c, 0, 68, 65
1, 258793, Control_c, 0, 64, 91
1, 258806, Note_off_c, 0, 54, 67
1, 258808, Note_off_c, 0, 61, 61
1, 258808, Control_c, 0, 64, 104
1, 258809, Note_off_c, 0, 71, 67
1, 258822, Control_c, 0, 64, 127
1, 258822, Control_c, 0, 67, 62
1, 258837, Control_c, 0, 67, 61
1, 258852, Control_c, 0, 67, 60
1, 258867, Control_c, 0, 67, 59
1, 258882, Control_c, 0, 67, 59
1, 258896, Control_c, 0, 67, 58
1, 258905, Note_on_c, 0, 75, 95
1, 258912, Note_on_c, 0, 66, 84
1, 258912, Note_on_c, 0, 72, 81
1, 258917, Note_on_c, 0, 60, 75
1, 258923, Note_on_c, 0, 57, 71
1, 258926, Control_c, 0, 67, 57
1, 258935, Note_off_c, 0, 66, 67
1, 258941, Control_c, 0, 67, 57
1, 258944, Note_on_c, 0, 71, 42
1, 258945, Note_off_c, 0, 71, 127
1, 258956, Control_c, 0, 67, 56
1, 258958, Note_off_c, 0, 72, 64
1, 258969, Note_off_c, 0, 75, 60
1, 258971, Note_off_c, 0, 60, 64
1, 258979, Note_off_c, 0, 57, 63
1, 258986, Control_c, 0, 67, 56
1, 259030, Control_c, 0, 67, 57
1, 259045, Control_c, 0, 67, 57
1, 259056, Note_on_c, 0, 76, 98
1, 259057, Note_on_c, 0, 71, 87
1, 259060, Control_c, 0, 64, 81
1, 259060, Control_c, 0, 67, 58
1, 259063, Note_on_c, 0, 64, 84
1, 259064, Note_on_c, 0, 59, 82
1, 259066, Note_on_c, 0, 56, 73
1, 259075, Control_c, 0, 64, 50
1, 259084, Note_off_c, 0, 64, 70
1, 259090, Control_c, 0, 64, 0
1, 259090, Control_c, 0, 67, 57
1, 259093, Note_off_c, 0, 71, 62
1, 259099, Note_off_c, 0, 59, 65
1, 259101, Note_off_c, 0, 56, 64
1, 259105, Note_off_c, 0, 76, 64
1, 259105, Control_c, 0, 67, 57
1, 259120, Control_c, 0, 67, 56
1, 259214, Note_on_c, 0, 74, 83
1, 259215, Note_on_c, 0, 77, 93
1, 259217, Note_on_c, 0, 59, 85
1, 259221, Note_on_c, 0, 62, 83
1, 259223, Note_on_c, 0, 65, 81
1, 259240, Note_off_c, 0, 74, 64
1, 259243, Note_off_c, 0, 65, 71
1, 259250, Note_off_c, 0, 59, 64
1, 259251, Note_off_c, 0, 62, 65
1, 259251, Note_off_c, 0, 77, 67
1, 259253, Control_c, 0, 67, 56
1, 259258, Note_on_c, 0, 72, 16
1, 259259, Note_off_c, 0, 72, 127
1, 259298, Control_c, 0, 67, 56
1, 259313, Control_c, 0, 67, 57
1, 259327, Control_c, 0, 67, 57
1, 259374, Note_on_c, 0, 78, 92
1, 259378, Note_on_c, 0, 57, 80
1, 259379, Note_on_c, 0, 61, 77
1, 259379, Note_on_c, 0, 66, 90
1, 259403, Note_off_c, 0, 66, 65
1, 259409, Note_off_c, 0, 61, 65
1, 259413, Note_on_c, 0, 73, 24
1, 259416, Note_off_c, 0, 57, 65
1, 259420, Note_off_c, 0, 78, 59
1, 259451, Note_off_c, 0, 73, 31
1, 259529, Note_on_c, 0, 79, 94
1, 259534, Note_on_c, 0, 73, 78
1, 259536, Note_on_c, 0, 58, 76
1, 259537, Note_on_c, 0, 67, 80
1, 259540, Note_on_c, 0, 64, 76
1, 259558, Note_off_c, 0, 73, 68
1, 259565, Note_off_c, 0, 67, 64
1, 259569, Note_off_c, 0, 64, 65
1, 259570, Control_c, 0, 67, 58
1, 259571, Note_off_c, 0, 79, 64
1, 259585, Control_c, 0, 67, 59
1, 259589, Note_off_c, 0, 58, 53
1, 259600, Control_c, 0, 67, 59
1, 259629, Control_c, 0, 67, 60
1, 259644, Control_c, 0, 67, 61
1, 259659, Control_c, 0, 67, 61
1, 259689, Control_c, 0, 67, 62
1, 259700, Note_on_c, 0, 68, 82
1, 259703, Note_on_c, 0, 80, 80
1, 259704, Note_on_c, 0, 71, 72
1, 259712, Note_on_c, 0, 59, 74
1, 259717, Note_on_c, 0, 64, 67
1, 259718, Control_c, 0, 67, 62
1, 259733, Note_off_c, 0, 68, 60
1, 259740, Note_off_c, 0, 59, 66
1, 259742, Note_off_c, 0, 71, 62
1, 259746, Note_off_c, 0, 64, 68
1, 259748, Control_c, 0, 67, 62
1, 259755, Note_off_c, 0, 80, 61
1, 259807, Control_c, 0, 67, 62
1, 259897, Control_c, 0, 67, 64
1, 259904, Note_on_c, 0, 75, 69
1, 259904, Note_on_c, 0, 78, 72
1, 259907, Note_on_c, 0, 69, 71
1, 259912, Control_c, 0, 67, 65
1, 259914, Note_on_c, 0, 47, 57
1, 259914, Note_on_c, 0, 59, 64
1, 259920, Note_on_c, 0, 71, 53
1, 259927, Control_c, 0, 67, 66
1, 259934, Note_off_c, 0, 69, 67
1, 259937, Note_off_c, 0, 75, 61
1, 259937, Note_off_c, 0, 78, 65
1, 259941, Note_off_c, 0, 71, 59
1, 259941, Control_c, 0, 67, 66
1, 259944, Note_off_c, 0, 59, 64
1, 259949, Note_off_c, 0, 47, 63
1, 259956, Control_c, 0, 67, 67
1, 259971, Control_c, 0, 67, 67
1, 259986, Control_c, 0, 67, 69
1, 260000, Control_c, 0, 67, 69
1, 260015, Control_c, 0, 67, 70
1, 260030, Control_c, 0, 67, 71
1, 260045, Control_c, 0, 67, 72
1, 260060, Control_c, 0, 67, 72
1, 260074, Control_c, 0, 67, 74
1, 260097, Control_c, 0, 67, 79
1, 260112, Control_c, 0, 67, 86
1, 260127, Control_c, 0, 67, 90
1, 260142, Control_c, 0, 67, 94
1, 260156, Control_c, 0, 67, 97
1, 260171, Control_c, 0, 67, 100
1, 260177, Note_on_c, 0, 71, 55
1, 260178, Note_on_c, 0, 76, 57
1, 260186, Control_c, 0, 67, 103
1, 260187, Note_on_c, 0, 52, 52
1, 260193, Note_on_c, 0, 59, 44
1, 260200, Note_on_c, 0, 68, 40
1, 260200, Control_c, 0, 67, 106
1, 260215, Control_c, 0, 64, 26
1, 260215, Control_c, 0, 67, 109
1, 260226, Note_off_c, 0, 76, 60
1, 260230, Control_c, 0, 64, 43
1, 260230, Control_c, 0, 67, 110
1, 260236, Note_off_c, 0, 68, 60
1, 260239, Note_off_c, 0, 71, 61
1, 260243, Note_off_c, 0, 52, 63
1, 260245, Control_c, 0, 64, 51
1, 260245, Control_c, 0, 67, 114
1, 260258, Note_off_c, 0, 59, 58
1, 260260, Control_c, 0, 64, 56
1, 260260, Control_c, 0, 67, 120
1, 260274, Control_c, 0, 64, 59
1, 260274, Control_c, 0, 67, 125
1, 260289, Control_c, 0, 64, 62
1, 260289, Control_c, 0, 67, 127
1, 260304, Control_c, 0, 64, 64
1, 260319, Control_c, 0, 64, 66
1, 260334, Control_c, 0, 64, 69
1, 260348, Control_c, 0, 64, 72
1, 260363, Control_c, 0, 64, 75
1, 260378, Control_c, 0, 64, 80
1, 260393, Control_c, 0, 64, 87
1, 260407, Control_c, 0, 64, 100
1, 260422, Control_c, 0, 64, 122
1, 260437, Control_c, 0, 64, 127
1, 260501, Note_on_c, 0, 71, 52
1, 260515, Note_on_c, 0, 63, 42
1, 260518, Note_on_c, 0, 59, 36
1, 260533, Note_on_c, 0, 56, 42
1, 260571, Control_c, 0, 64, 122
1, 260586, Control_c, 0, 64, 102
1, 260600, Control_c, 0, 64, 93
1, 260615, Control_c, 0, 64, 86
1, 260630, Control_c, 0, 64, 78
1, 260645, Control_c, 0, 64, 70
1, 260660, Control_c, 0, 64, 62
1, 260674, Control_c, 0, 64, 50
1, 260690, Control_c, 0, 64, 41
1, 260705, Control_c, 0, 64, 46
1, 260720, Control_c, 0, 64, 53
1, 260729, Note_off_c, 0, 71, 61
1, 260735, Control_c, 0, 64, 58
1, 260741, Note_on_c, 0, 75, 61
1, 260749, Note_off_c, 0, 63, 53
1, 260750, Note_on_c, 0, 70, 51
1, 260750, Control_c, 0, 64, 62
1, 260764, Control_c, 0, 64, 64
1, 260771, Note_on_c, 0, 58, 43
1, 260779, Control_c, 0, 64, 66
1, 260790, Note_on_c, 0, 55, 47
1, 260794, Control_c, 0, 64, 67
1, 260808, Control_c, 0, 64, 69
1, 260813, Note_off_c, 0, 56, 36
1, 260823, Control_c, 0, 64, 71
1, 260831, Note_off_c, 0, 59, 37
1, 260846, Control_c, 0, 64, 72
1, 260861, Control_c, 0, 64, 73
1, 260875, Control_c, 0, 64, 74
1, 260902, Note_on_c, 0, 71, 77
1, 260905, Control_c, 0, 64, 73
1, 260911, Note_off_c, 0, 75, 59
1, 260917, Note_on_c, 0, 63, 60
1, 260920, Control_c, 0, 64, 73
1, 260922, Note_off_c, 0, 55, 57
1, 260923, Note_off_c, 0, 70, 60
1, 260934, Note_on_c, 0, 56, 60
1, 260935, Note_off_c, 0, 58, 63
1, 260935, Control_c, 0, 64, 72
1, 260945, Note_on_c, 0, 59, 52
1, 260950, Control_c, 0, 64, 70
1, 260965, Control_c, 0, 64, 67
1, 260979, Control_c, 0, 64, 63
1, 260994, Control_c, 0, 64, 59
1, 261009, Control_c, 0, 64, 55
1, 261023, Control_c, 0, 64, 50
1, 261038, Note_off_c, 0, 63, 0
1, 261038, Control_c, 0, 64, 45
1, 261051, Note_on_c, 0, 70, 71
1, 261053, Control_c, 0, 64, 37
1, 261054, Note_off_c, 0, 71, 66
1, 261060, Note_on_c, 0, 75, 71
1, 261061, Note_on_c, 0, 58, 68
1, 261063, Note_off_c, 0, 59, 61
1, 261068, Control_c, 0, 64, 24
1, 261071, Note_on_c, 0, 63, 6
1, 261082, Note_off_c, 0, 70, 66
1, 261083, Control_c, 0, 64, 0
1, 261084, Note_on_c, 0, 55, 50
1, 261084, Note_off_c, 0, 56, 64
1, 261085, Note_off_c, 0, 63, 50
1, 261089, Note_off_c, 0, 75, 64
1, 261098, Note_off_c, 0, 58, 63
1, 261111, Note_off_c, 0, 55, 61
1, 261187, Note_on_c, 0, 70, 73
1, 261216, Note_on_c, 0, 61, 46
1, 261225, Note_on_c, 0, 57, 49
1, 261242, Note_on_c, 0, 54, 43
1, 261269, Note_on_c, 0, 69, 60
1, 261356, Note_off_c, 0, 54, 57
1, 261357, Note_off_c, 0, 57, 56
1, 261358, Note_off_c, 0, 70, 57
1, 261359, Note_off_c, 0, 69, 64
1, 261364, Note_on_c, 0, 56, 50
1, 261366, Note_on_c, 0, 73, 65
1, 261381, Note_on_c, 0, 53, 49
1, 261386, Note_off_c, 0, 61, 55
1, 261388, Note_on_c, 0, 68, 58
1, 261477, Note_off_c, 0, 53, 58
1, 261498, Note_off_c, 0, 56, 60
1, 261501, Note_off_c, 0, 73, 62
1, 261511, Note_on_c, 0, 54, 49
1, 261513, Note_on_c, 0, 69, 63
1, 261519, Note_on_c, 0, 61, 49
1, 261523, Note_on_c, 0, 57, 40
1, 261609, Control_c, 0, 64, 14
1, 261624, Control_c, 0, 64, 22
1, 261639, Control_c, 0, 64, 25
1, 261652, Note_off_c, 0, 54, 50
1, 261653, Control_c, 0, 64, 28
1, 261654, Note_on_c, 0, 56, 49
1, 261654, Note_off_c, 0, 57, 55
1, 261658, Note_off_c, 0, 69, 61
1, 261663, Note_on_c, 0, 73, 66
1, 261668, Control_c, 0, 64, 28
1, 261682, Note_on_c, 0, 53, 39
1, 261683, Note_off_c, 0, 61, 61
1, 261689, Note_off_c, 0, 73, 69
1, 261691, Note_off_c, 0, 56, 64
1, 261705, Note_off_c, 0, 68, 58
1, 261713, Note_off_c, 0, 53, 51
1, 261823, Note_on_c, 0, 67, 61
1, 261834, Note_on_c, 0, 59, 49
1, 261845, Note_on_c, 0, 55, 38
1, 261850, Note_on_c, 0, 52, 41
1, 261861, Control_c, 0, 64, 29
1, 261876, Control_c, 0, 64, 30
1, 261891, Control_c, 0, 64, 32
1, 261906, Control_c, 0, 64, 35
1, 261920, Control_c, 0, 64, 37
1, 261935, Control_c, 0, 64, 38
1, 261950, Control_c, 0, 64, 39
1, 261962, Note_off_c, 0, 52, 57
1, 261964, Control_c, 0, 64, 40
1, 261966, Note_off_c, 0, 55, 53
1, 261966, Note_off_c, 0, 67, 60
1, 261979, Control_c, 0, 64, 40
1, 261984, Note_on_c, 0, 71, 54
1, 261985, Note_off_c, 0, 59, 56
1, 261986, Note_on_c, 0, 51, 46
1, 261990, Note_on_c, 0, 54, 29
1, 261991, Note_on_c, 0, 66, 49
1, 261994, Control_c, 0, 64, 41
1, 262009, Control_c, 0, 64, 41
1, 262059, Note_off_c, 0, 51, 53
1, 262090, Note_off_c, 0, 71, 55
1, 262101, Note_off_c, 0, 54, 43
1, 262118, Note_on_c, 0, 55, 40
1, 262127, Note_off_c, 0, 66, 47
1, 262131, Note_on_c, 0, 52, 38
1, 262133, Note_on_c, 0, 67, 43
1, 262134, Note_on_c, 0, 59, 37
1, 262157, Control_c, 0, 64, 42
1, 262254, Note_off_c, 0, 55, 54
1, 262259, Note_on_c, 0, 54, 39
1, 262260, Note_off_c, 0, 67, 51
1, 262261, Control_c, 0, 64, 42
1, 262274, Note_off_c, 0, 52, 47
1, 262276, Control_c, 0, 64, 43
1, 262278, Note_on_c, 0, 66, 45
1, 262280, Note_on_c, 0, 71, 45
1, 262285, Note_on_c, 0, 51, 46
1, 262287, Note_off_c, 0, 59, 54
1, 262306, Control_c, 0, 64, 43
1, 262309, Note_off_c, 0, 71, 55
1, 262312, Note_off_c, 0, 54, 61
1, 262315, Note_off_c, 0, 51, 59
1, 262318, Note_off_c, 0, 66, 57
1, 262450, Note_on_c, 0, 65, 50
1, 262454, Note_on_c, 0, 57, 44
1, 262470, Note_on_c, 0, 53, 30
1, 262473, Note_on_c, 0, 50, 34
1, 262476, Control_c, 0, 64, 44
1, 262491, Control_c, 0, 64, 46
1, 262506, Control_c, 0, 64, 48
1, 262521, Control_c, 0, 64, 50
1, 262536, Control_c, 0, 64, 51
1, 262551, Control_c, 0, 64, 53
1, 262566, Control_c, 0, 64, 54
1, 262581, Control_c, 0, 64, 56
1, 262595, Control_c, 0, 64, 59
1, 262596, Note_off_c, 0, 65, 53
1, 262610, Note_on_c, 0, 69, 49
1, 262610, Control_c, 0, 64, 60
1, 262622, Note_off_c, 0, 57, 53
1, 262625, Note_on_c, 0, 52, 27
1, 262625, Control_c, 0, 64, 61
1, 262628, Note_off_c, 0, 53, 39
1, 262631, Note_on_c, 0, 49, 36
1, 262634, Note_off_c, 0, 50, 43
1, 262640, Control_c, 0, 64, 62
1, 262641, Note_on_c, 0, 64, 30
1, 262655, Control_c, 0, 64, 63
1, 262669, Control_c, 0, 64, 64
1, 262684, Control_c, 0, 64, 64
1, 262699, Control_c, 0, 64, 65
1, 262714, Control_c, 0, 64, 66
1, 262718, Note_off_c, 0, 49, 50
1, 262729, Control_c, 0, 64, 67
1, 262743, Control_c, 0, 64, 69
1, 262755, Note_off_c, 0, 52, 47
1, 262756, Note_off_c, 0, 69, 56
1, 262758, Control_c, 0, 64, 71
1, 262769, Note_on_c, 0, 65, 52
1, 262773, Control_c, 0, 64, 73
1, 262775, Note_on_c, 0, 53, 40
1, 262783, Note_off_c, 0, 64, 38
1, 262784, Note_on_c, 0, 50, 41
1, 262786, Note_on_c, 0, 57, 36
1, 262788, Control_c, 0, 64, 77
1, 262802, Control_c, 0, 64, 83
1, 262817, Control_c, 0, 64, 90
1, 262832, Control_c, 0, 64, 101
1, 262847, Control_c, 0, 64, 112
1, 262861, Control_c, 0, 64, 127
1, 262920, Note_on_c, 0, 64, 47
1, 262924, Note_on_c, 0, 52, 33
1, 262924, Note_off_c, 0, 53, 34
1, 262926, Note_on_c, 0, 69, 58
1, 262930, Note_off_c, 0, 65, 51
1, 262935, Note_on_c, 0, 49, 47
1, 262947, Note_off_c, 0, 50, 37
1, 262958, Note_off_c, 0, 52, 57
1, 262971, Note_off_c, 0, 64, 61
1, 262980, Note_off_c, 0, 57, 44
1, 262980, Note_off_c, 0, 49, 59
1, 262984, Note_off_c, 0, 69, 59
1, 263093, Note_on_c, 0, 52, 32
1, 263096, Note_on_c, 0, 49, 46
1, 263122, Control_c, 0, 64, 113
1, 263137, Control_c, 0, 64, 102
1, 263152, Control_c, 0, 64, 93
1, 263154, Note_on_c, 0, 64, 70
1, 263166, Control_c, 0, 64, 84
1, 263175, Note_on_c, 0, 57, 50
1, 263181, Control_c, 0, 64, 75
1, 263196, Control_c, 0, 64, 67
1, 263211, Control_c, 0, 64, 55
1, 263225, Control_c, 0, 64, 37
1, 263240, Control_c, 0, 64, 25
1, 263255, Control_c, 0, 64, 28
1, 263270, Control_c, 0, 64, 41
1, 263285, Control_c, 0, 64, 52
1, 263299, Control_c, 0, 64, 59
1, 263314, Control_c, 0, 64, 63
1, 263329, Control_c, 0, 64, 65
1, 263344, Control_c, 0, 64, 67
1, 263359, Control_c, 0, 64, 70
1, 263373, Control_c, 0, 64, 71
1, 263388, Control_c, 0, 64, 72
1, 263398, Note_on_c, 0, 48, 36
1, 263402, Note_on_c, 0, 69, 77
1, 263403, Control_c, 0, 64, 73
1, 263410, Note_on_c, 0, 51, 47
1, 263412, Note_on_c, 0, 63, 52
1, 263421, Note_off_c, 0, 64, 60
1, 263433, Control_c, 0, 64, 73
1, 263450, Note_off_c, 0, 57, 45
1, 263453, Note_off_c, 0, 49, 52
1, 263472, Note_off_c, 0, 52, 42
1, 263552, Control_c, 0, 64, 73
1, 263604, Note_on_c, 0, 64, 82
1, 263610, Control_c, 0, 64, 72
1, 263621, Note_on_c, 0, 49, 48
1, 263621, Note_on_c, 0, 57, 59
1, 263623, Note_off_c, 0, 51, 59
1, 263624, Note_off_c, 0, 69, 61
1, 263626, Note_on_c, 0, 52, 42
1, 263627, Note_off_c, 0, 48, 49
1, 263636, Note_off_c, 0, 63, 63
1, 263640, Control_c, 0, 64, 72
1, 263788, Note_off_c, 0, 52, 55
1, 263795, Note_on_c, 0, 69, 79
1, 263797, Note_on_c, 0, 63, 67
1, 263799, Note_on_c, 0, 51, 47
1, 263800, Note_off_c, 0, 57, 47
1, 263803, Control_c, 0, 64, 71
1, 263806, Note_on_c, 0, 48, 42
1, 263812, Note_off_c, 0, 49, 51
1, 263821, Note_off_c, 0, 64, 61
1, 263979, Note_off_c, 0, 48, 54
1, 263989, Control_c, 0, 64, 71
1, 264005, Note_on_c, 0, 49, 38
1, 264019, Control_c, 0, 64, 70
1, 264032, Note_on_c, 0, 52, 41
1, 264034, Control_c, 0, 64, 69
1, 264048, Control_c, 0, 64, 67
1, 264055, Note_off_c, 0, 51, 32
1, 264059, Note_on_c, 0, 64, 79
1, 264063, Control_c, 0, 64, 65
1, 264071, Note_on_c, 0, 57, 60
1, 264077, Note_off_c, 0, 69, 62
1, 264078, Control_c, 0, 64, 63
1, 264089, Note_off_c, 0, 63, 62
1, 264093, Control_c, 0, 64, 61
1, 264108, Control_c, 0, 64, 62
1, 264122, Control_c, 0, 64, 64
1, 264137, Note_off_c, 0, 52, 59
1, 264137, Control_c, 0, 64, 67
1, 264152, Control_c, 0, 64, 70
1, 264167, Control_c, 0, 64, 75
1, 264182, Control_c, 0, 64, 79
1, 264196, Control_c, 0, 64, 85
1, 264211, Control_c, 0, 64, 91
1, 264226, Control_c, 0, 64, 103
1, 264241, Control_c, 0, 64, 127
1, 264440, Note_on_c, 0, 47, 34
1, 264446, Note_on_c, 0, 54, 38
1, 264495, Note_off_c, 0, 49, 33
1, 264592, Note_on_c, 0, 63, 49
1, 264595, Note_on_c, 0, 69, 64
1, 264619, Control_c, 0, 64, 115
1, 264620, Note_off_c, 0, 57, 37
1, 264627, Note_off_c, 0, 64, 55
1, 264634, Control_c, 0, 64, 98
1, 264648, Control_c, 0, 64, 87
1, 264663, Control_c, 0, 64, 77
1, 264678, Control_c, 0, 64, 68
1, 264694, Control_c, 0, 64, 57
1, 264709, Control_c, 0, 64, 38
1, 264724, Control_c, 0, 64, 0
1, 264783, Control_c, 0, 64, 27
1, 264798, Control_c, 0, 64, 46
1, 264812, Control_c, 0, 64, 55
1, 264827, Control_c, 0, 64, 59
1, 264842, Control_c, 0, 64, 62
1, 264857, Control_c, 0, 64, 64
1, 264871, Control_c, 0, 64, 65
1, 264886, Control_c, 0, 64, 68
1, 264901, Control_c, 0, 64, 71
1, 264916, Control_c, 0, 64, 76
1, 264931, Control_c, 0, 64, 82
1, 264945, Control_c, 0, 64, 91
1, 264960, Control_c, 0, 64, 105
1, 264975, Control_c, 0, 64, 127
1, 264988, Note_off_c, 0, 54, 42
1, 265445, Note_on_c, 0, 49, 40
1, 265454, Note_on_c, 0, 52, 30
1, 265544, Note_on_c, 0, 64, 57
1, 265561, Control_c, 0, 64, 115
1, 265566, Note_on_c, 0, 57, 36
1, 265566, Note_off_c, 0, 63, 41
1, 265576, Control_c, 0, 64, 97
1, 265591, Control_c, 0, 64, 81
1, 265599, Note_off_c, 0, 69, 38
1, 265606, Control_c, 0, 64, 68
1, 265621, Control_c, 0, 64, 54
1, 265624, Note_off_c, 0, 47, 33
1, 265635, Control_c, 0, 64, 40
1, 265650, Control_c, 0, 64, 41
1, 265665, Control_c, 0, 64, 49
1, 265680, Control_c, 0, 64, 57
1, 265694, Control_c, 0, 64, 62
1, 265709, Control_c, 0, 64, 66
1, 265724, Control_c, 0, 64, 70
1, 265739, Control_c, 0, 64, 74
1, 265754, Control_c, 0, 64, 78
1, 265768, Control_c, 0, 64, 81
1, 265783, Control_c, 0, 64, 84
1, 265798, Control_c, 0, 64, 85
1, 265812, Control_c, 0, 64, 86
1, 265872, Control_c, 0, 64, 85
1, 265887, Control_c, 0, 64, 83
1, 265895, Note_on_c, 0, 51, 38
1, 265895, Note_on_c, 0, 63, 40
1, 265895, Note_on_c, 0, 69, 52
1, 265901, Control_c, 0, 64, 79
1, 265908, Note_on_c, 0, 48, 35
1, 265914, Note_off_c, 0, 64, 49
1, 265916, Control_c, 0, 64, 74
1, 265931, Control_c, 0, 64, 69
1, 265946, Control_c, 0, 64, 65
1, 265947, Note_off_c, 0, 57, 32
1, 265953, Note_off_c, 0, 52, 43
1, 265961, Control_c, 0, 64, 63
1, 265970, Note_off_c, 0, 49, 37
1, 265976, Control_c, 0, 64, 63
1, 265991, Control_c, 0, 64, 65
1, 266005, Control_c, 0, 64, 66
1, 266020, Control_c, 0, 64, 68
1, 266035, Control_c, 0, 64, 70
1, 266050, Control_c, 0, 64, 73
1, 266065, Control_c, 0, 64, 75
1, 266086, Control_c, 0, 64, 77
1, 266101, Control_c, 0, 64, 78
1, 266116, Control_c, 0, 64, 79
1, 266131, Control_c, 0, 64, 79
1, 266134, Note_on_c, 0, 49, 38
1, 266134, Note_on_c, 0, 64, 53
1, 266134, Note_off_c, 0, 69, 52
1, 266136, Note_off_c, 0, 63, 57
1, 266146, Control_c, 0, 64, 80
1, 266153, Note_on_c, 0, 57, 39
1, 266155, Note_off_c, 0, 51, 40
1, 266159, Note_on_c, 0, 52, 33
1, 266161, Control_c, 0, 64, 82
1, 266164, Note_off_c, 0, 48, 36
1, 266176, Control_c, 0, 64, 82
1, 266265, Control_c, 0, 64, 82
1, 266280, Control_c, 0, 64, 81
1, 266295, Control_c, 0, 64, 80
1, 266310, Control_c, 0, 64, 77
1, 266325, Control_c, 0, 64, 75
1, 266330, Note_on_c, 0, 63, 38
1, 266330, Note_off_c, 0, 64, 50
1, 266335, Note_on_c, 0, 69, 53
1, 266339, Note_off_c, 0, 52, 43
1, 266339, Control_c, 0, 64, 72
1, 266343, Note_on_c, 0, 51, 32
1, 266345, Note_off_c, 0, 57, 37
1, 266354, Control_c, 0, 64, 71
1, 266362, Note_on_c, 0, 48, 24
1, 266369, Control_c, 0, 64, 71
1, 266386, Note_off_c, 0, 49, 31
1, 266399, Control_c, 0, 64, 71
1, 266428, Control_c, 0, 64, 72
1, 266443, Control_c, 0, 64, 73
1, 266458, Control_c, 0, 64, 74
1, 266473, Control_c, 0, 64, 76
1, 266488, Control_c, 0, 64, 77
1, 266503, Control_c, 0, 64, 78
1, 266517, Control_c, 0, 64, 78
1, 266532, Control_c, 0, 64, 79
1, 266547, Control_c, 0, 64, 80
1, 266549, Note_off_c, 0, 69, 52
1, 266551, Note_off_c, 0, 51, 38
1, 266554, Note_off_c, 0, 48, 36
1, 266557, Note_on_c, 0, 49, 35
1, 266562, Control_c, 0, 64, 83
1, 266563, Note_off_c, 0, 63, 56
1, 266565, Note_on_c, 0, 64, 51
1, 266575, Note_on_c, 0, 52, 34
1, 266577, Control_c, 0, 64, 85
1, 266582, Note_on_c, 0, 57, 35
1, 266591, Control_c, 0, 64, 87
1, 266606, Control_c, 0, 64, 89
1, 266621, Control_c, 0, 64, 90
1, 266635, Control_c, 0, 64, 92
1, 266636, Note_off_c, 0, 52, 57
1, 266650, Control_c, 0, 64, 94
1, 266665, Control_c, 0, 64, 96
1, 266680, Control_c, 0, 64, 99
1, 266695, Control_c, 0, 64, 101
1, 266709, Control_c, 0, 64, 104
1, 266724, Control_c, 0, 64, 107
1, 266739, Control_c, 0, 64, 111
1, 266754, Control_c, 0, 64, 112
1, 266813, Control_c, 0, 64, 112
1, 266835, Control_c, 0, 64, 109
1, 266850, Control_c, 0, 64, 107
1, 266865, Control_c, 0, 64, 104
1, 266880, Control_c, 0, 64, 101
1, 266888, Note_on_c, 0, 47, 34
1, 266895, Control_c, 0, 64, 98
1, 266909, Note_on_c, 0, 54, 37
1, 266909, Control_c, 0, 64, 96
1, 266924, Control_c, 0, 64, 91
1, 266939, Control_c, 0, 64, 87
1, 266954, Control_c, 0, 64, 83
1, 266969, Control_c, 0, 64, 80
1, 266983, Control_c, 0, 64, 76
1, 266984, Note_off_c, 0, 49, 37
1, 266989, Note_on_c, 0, 69, 42
1, 266990, Note_on_c, 0, 63, 37
1, 266998, Control_c, 0, 64, 72
1, 267013, Control_c, 0, 64, 66
1, 267028, Control_c, 0, 64, 52
1, 267034, Note_off_c, 0, 64, 30
1, 267043, Control_c, 0, 64, 0
1, 267052, Note_off_c, 0, 57, 34
1, 267118, Control_c, 0, 64, 35
1, 267132, Control_c, 0, 64, 55
1, 267147, Control_c, 0, 64, 63
1, 267162, Control_c, 0, 64, 67
1, 267177, Control_c, 0, 64, 73
1, 267192, Control_c, 0, 64, 84
1, 267207, Control_c, 0, 64, 109
1, 267222, Control_c, 0, 64, 127
1, 267255, Note_on_c, 0, 51, 45
1, 267283, Note_off_c, 0, 51, 60
1, 267288, Note_off_c, 0, 47, 53
1, 267288, Note_off_c, 0, 54, 40
1, 267430, Note_on_c, 0, 47, 39
1, 267606, Note_on_c, 0, 59, 58
1, 267620, Note_off_c, 0, 63, 59
1, 267626, Note_on_c, 0, 42, 36
1, 267683, Note_off_c, 0, 69, 34
1, 267792, Control_c, 0, 64, 112
1, 267806, Control_c, 0, 64, 100
1, 267816, Note_on_c, 0, 35, 34
1, 267821, Control_c, 0, 64, 94
1, 267836, Control_c, 0, 64, 90
1, 267851, Control_c, 0, 64, 86
1, 267866, Control_c, 0, 64, 80
1, 267872, Note_on_c, 0, 61, 51
1, 267878, Note_off_c, 0, 59, 55
1, 267881, Control_c, 0, 64, 72
1, 267887, Note_on_c, 0, 58, 38
1, 267896, Control_c, 0, 64, 63
1, 267911, Note_off_c, 0, 42, 42
1, 267911, Control_c, 0, 64, 44
1, 267926, Control_c, 0, 64, 0
1, 267954, Note_off_c, 0, 47, 29
1, 267970, Control_c, 0, 64, 16
1, 267985, Control_c, 0, 64, 45
1, 268000, Control_c, 0, 64, 58
1, 268015, Control_c, 0, 64, 63
1, 268030, Control_c, 0, 64, 65
1, 268045, Control_c, 0, 64, 70
1, 268048, Note_on_c, 0, 63, 56
1, 268059, Control_c, 0, 64, 78
1, 268071, Note_on_c, 0, 57, 42
1, 268073, Note_off_c, 0, 61, 50
1, 268074, Control_c, 0, 64, 89
1, 268079, Note_off_c, 0, 58, 36
1, 268088, Note_off_c, 0, 35, 39
1, 268089, Control_c, 0, 64, 105
1, 268104, Control_c, 0, 64, 127
1, 268195, Note_off_c, 0, 57, 56
1, 268199, Note_on_c, 0, 64, 61
1, 268211, Note_on_c, 0, 56, 52
1, 268237, Note_off_c, 0, 56, 58
1, 268261, Note_off_c, 0, 63, 40
1, 268262, Note_off_c, 0, 64, 62
1, 268358, Note_on_c, 0, 52, 50
1, 268369, Note_on_c, 0, 68, 66
1, 268410, Note_off_c, 0, 52, 58
1, 268447, Note_off_c, 0, 68, 58
1, 268537, Note_on_c, 0, 52, 39
1, 268556, Control_c, 0, 64, 125
1, 268560, Note_on_c, 0, 47, 36
1, 268568, Note_on_c, 0, 71, 64
1, 268570, Control_c, 0, 64, 104
1, 268585, Control_c, 0, 64, 94
1, 268592, Note_on_c, 0, 68, 48
1, 268599, Note_on_c, 0, 59, 38
1, 268600, Control_c, 0, 64, 81
1, 268602, Note_on_c, 0, 57, 41
1, 268614, Control_c, 0, 64, 69
1, 268629, Control_c, 0, 64, 55
1, 268644, Control_c, 0, 64, 11
1, 268659, Control_c, 0, 64, 0
1, 268690, Control_c, 0, 64, 32
1, 268704, Control_c, 0, 64, 53
1, 268719, Control_c, 0, 64, 61
1, 268721, Note_off_c, 0, 71, 59
1, 268731, Note_on_c, 0, 66, 54
1, 268733, Note_on_c, 0, 51, 48
1, 268734, Note_off_c, 0, 59, 50
1, 268734, Control_c, 0, 64, 66
1, 268739, Note_off_c, 0, 57, 57
1, 268747, Note_off_c, 0, 52, 41
1, 268749, Control_c, 0, 64, 71
1, 268764, Control_c, 0, 64, 83
1, 268778, Control_c, 0, 64, 116
1, 268793, Control_c, 0, 64, 127
1, 268848, Note_off_c, 0, 47, 21
1, 268853, Note_off_c, 0, 68, 33
1, 268864, Note_off_c, 0, 51, 49
1, 268883, Note_on_c, 0, 64, 59
1, 268884, Note_on_c, 0, 52, 45
1, 268914, Note_off_c, 0, 64, 65
1, 268949, Note_off_c, 0, 66, 34
1, 268967, Note_off_c, 0, 52, 57
1, 269001, Note_on_c, 0, 47, 42
1, 269018, Note_on_c, 0, 71, 76
1, 269162, Note_on_c, 0, 59, 52
1, 269171, Control_c, 0, 64, 80
1, 269178, Note_on_c, 0, 73, 72
1, 269182, Note_off_c, 0, 71, 62
1, 269186, Control_c, 0, 64, 62
1, 269188, Note_on_c, 0, 70, 57
1, 269201, Control_c, 0, 64, 26
1, 269216, Control_c, 0, 64, 0
1, 269260, Control_c, 0, 64, 45
1, 269275, Control_c, 0, 64, 59
1, 269290, Control_c, 0, 64, 65
1, 269304, Note_on_c, 0, 75, 80
1, 269304, Control_c, 0, 64, 70
1, 269319, Note_on_c, 0, 69, 68
1, 269319, Control_c, 0, 64, 78
1, 269326, Note_off_c, 0, 73, 53
1, 269329, Note_off_c, 0, 70, 59
1, 269334, Control_c, 0, 64, 90
1, 269349, Control_c, 0, 64, 127
1, 269365, Note_off_c, 0, 47, 37
1, 269398, Note_off_c, 0, 69, 61
1, 269425, Note_off_c, 0, 59, 62
1, 269430, Note_on_c, 0, 76, 85
1, 269442, Note_on_c, 0, 68, 79
1, 269468, Note_off_c, 0, 68, 67
1, 269473, Note_off_c, 0, 75, 62
1, 269496, Note_off_c, 0, 76, 65
1, 269575, Note_on_c, 0, 80, 90
1, 269591, Note_on_c, 0, 64, 44
1, 269641, Note_off_c, 0, 64, 58
1, 269696, Note_off_c, 0, 80, 59
1, 269705, Control_c, 0, 64, 117
1, 269720, Control_c, 0, 64, 98
1, 269735, Control_c, 0, 64, 91
1, 269750, Control_c, 0, 64, 84
1, 269758, Note_on_c, 0, 64, 46
1, 269765, Control_c, 0, 64, 73
1, 269769, Note_on_c, 0, 59, 48
1, 269779, Control_c, 0, 64, 60
1, 269791, Note_on_c, 0, 83, 81
1, 269794, Control_c, 0, 64, 0
1, 269808, Note_on_c, 0, 80, 63
1, 269815, Note_on_c, 0, 71, 51
1, 269816, Note_on_c, 0, 69, 54
1, 269874, Control_c, 0, 64, 39
1, 269889, Control_c, 0, 64, 57
1, 269904, Control_c, 0, 64, 63
1, 269919, Control_c, 0, 64, 66
1, 269933, Control_c, 0, 64, 69
1, 269943, Note_off_c, 0, 71, 48
1, 269948, Control_c, 0, 64, 73
1, 269951, Note_off_c, 0, 83, 59
1, 269954, Note_on_c, 0, 63, 49
1, 269959, Note_on_c, 0, 78, 66
1, 269961, Note_off_c, 0, 69, 55
1, 269963, Control_c, 0, 64, 76
1, 269978, Control_c, 0, 64, 80
1, 269979, Note_off_c, 0, 64, 47
1, 269993, Control_c, 0, 64, 83
1, 270007, Control_c, 0, 64, 85
1, 270037, Control_c, 0, 64, 86
1, 270045, Note_off_c, 0, 80, 38
1, 270051, Control_c, 0, 64, 87
1, 270066, Control_c, 0, 64, 89
1, 270073, Note_off_c, 0, 59, 52
1, 270076, Note_off_c, 0, 63, 61
1, 270081, Control_c, 0, 64, 89
1, 270082, Note_on_c, 0, 76, 72
1, 270103, Note_on_c, 0, 68, 38
1, 270110, Note_off_c, 0, 76, 68
1, 270114, Note_off_c, 0, 78, 32
1, 270125, Control_c, 0, 64, 88
1, 270135, Note_off_c, 0, 68, 49
1, 270140, Control_c, 0, 64, 85
1, 270155, Control_c, 0, 64, 82
1, 270166, Poly_aftertouch_c, 0, 64, 0
1, 270170, Control_c, 0, 64, 79
1, 270185, Poly_aftertouch_c, 0, 64, 0
1, 270185, Control_c, 0, 64, 75
1, 270200, Control_c, 0, 64, 71
1, 270215, Control_c, 0, 64, 66
1, 270224, Note_on_c, 0, 80, 79
1, 270230, Note_on_c, 0, 76, 71
1, 270230, Control_c, 0, 64, 61
1, 270233, Note_on_c, 0, 71, 66
1, 270241, Note_on_c, 0, 62, 45
1, 270244, Control_c, 0, 64, 51
1, 270259, Control_c, 0, 64, 36
1, 270274, Control_c, 0, 64, 25
1, 270289, Note_off_c, 0, 62, 63
1, 270289, Control_c, 0, 64, 26
1, 270304, Control_c, 0, 64, 36
1, 270319, Control_c, 0, 64, 48
1, 270334, Control_c, 0, 64, 54
1, 270349, Control_c, 0, 64, 55
1, 270361, Note_on_c, 0, 81, 75
1, 270366, Note_on_c, 0, 88, 81
1, 270367, Note_off_c, 0, 71, 56
1, 270378, Note_off_c, 0, 80, 64
1, 270379, Control_c, 0, 64, 55
1, 270383, Note_off_c, 0, 76, 65
1, 270389, Note_on_c, 0, 61, 63
1, 270392, Note_off_c, 0, 81, 67
1, 270394, Control_c, 0, 64, 54
1, 270398, Note_on_c, 0, 69, 47
1, 270399, Note_off_c, 0, 88, 65
1, 270408, Control_c, 0, 64, 53
1, 270421, Note_off_c, 0, 69, 57
1, 270423, Control_c, 0, 64, 51
1, 270436, Note_off_c, 0, 61, 53
1, 270438, Control_c, 0, 64, 48
1, 270453, Control_c, 0, 64, 46
1, 270468, Control_c, 0, 64, 46
1, 270482, Control_c, 0, 64, 45
1, 270497, Control_c, 0, 64, 43
1, 270512, Control_c, 0, 64, 41
1, 270513, Note_on_c, 0, 71, 61
1, 270514, Note_on_c, 0, 80, 87
1, 270527, Control_c, 0, 64, 41
1, 270540, Note_on_c, 0, 76, 52
1, 270543, Note_on_c, 0, 62, 54
1, 270556, Control_c, 0, 64, 42
1, 270577, Note_on_c, 0, 74, 15
1, 270579, Control_c, 0, 64, 42
1, 270620, Note_off_c, 0, 74, 30
1, 270626, Note_off_c, 0, 62, 63
1, 270638, Control_c, 0, 64, 43
1, 270653, Control_c, 0, 64, 44
1, 270662, Note_off_c, 0, 71, 36
1, 270663, Note_on_c, 0, 81, 73
1, 270664, Note_on_c, 0, 88, 75
1, 270677, Note_on_c, 0, 61, 60
1, 270679, Note_on_c, 0, 69, 53
1, 270680, Note_off_c, 0, 76, 64
1, 270685, Note_off_c, 0, 80, 63
1, 270686, Note_off_c, 0, 88, 70
1, 270688, Note_off_c, 0, 81, 69
1, 270701, Note_off_c, 0, 69, 59
1, 270706, Note_off_c, 0, 61, 66
1, 270712, Control_c, 0, 64, 45
1, 270727, Control_c, 0, 64, 46
1, 270831, Control_c, 0, 64, 48
1, 270844, Note_on_c, 0, 68, 79
1, 270846, Control_c, 0, 64, 52
1, 270858, Note_on_c, 0, 64, 62
1, 270861, Control_c, 0, 64, 56
1, 270862, Note_on_c, 0, 50, 51
1, 270866, Note_on_c, 0, 59, 52
1, 270875, Control_c, 0, 64, 60
1, 270890, Control_c, 0, 64, 62
1, 270905, Control_c, 0, 64, 65
1, 270920, Control_c, 0, 64, 67
1, 270935, Control_c, 0, 64, 71
1, 270940, Note_off_c, 0, 50, 63
1, 270949, Control_c, 0, 64, 74
1, 270964, Control_c, 0, 64, 77
1, 270979, Control_c, 0, 64, 81
1, 270994, Control_c, 0, 64, 84
1, 271009, Control_c, 0, 64, 87
1, 271023, Control_c, 0, 64, 89
1, 271053, Control_c, 0, 64, 89
1, 271068, Control_c, 0, 64, 88
1, 271084, Control_c, 0, 64, 87
1, 271093, Note_off_c, 0, 59, 58
1, 271099, Control_c, 0, 64, 85
1, 271112, Note_on_c, 0, 57, 37
1, 271113, Control_c, 0, 64, 83
1, 271121, Note_on_c, 0, 49, 40
1, 271128, Control_c, 0, 64, 81
1, 271143, Control_c, 0, 64, 79
1, 271158, Control_c, 0, 64, 76
1, 271170, Note_on_c, 0, 69, 63
1, 271173, Control_c, 0, 64, 72
1, 271177, Note_on_c, 0, 76, 68
1, 271187, Note_off_c, 0, 68, 55
1, 271187, Control_c, 0, 64, 69
1, 271202, Control_c, 0, 64, 64
1, 271211, Note_off_c, 0, 64, 48
1, 271217, Control_c, 0, 64, 59
1, 271232, Control_c, 0, 64, 49
1, 271246, Control_c, 0, 64, 25
1, 271261, Control_c, 0, 64, 0
1, 271321, Control_c, 0, 64, 42
1, 271343, Control_c, 0, 64, 57
1, 271358, Control_c, 0, 64, 62
1, 271373, Control_c, 0, 64, 65
1, 271387, Control_c, 0, 64, 67
1, 271398, Note_off_c, 0, 57, 55
1, 271402, Control_c, 0, 64, 70
1, 271408, Note_off_c, 0, 76, 57
1, 271417, Control_c, 0, 64, 74
1, 271432, Control_c, 0, 64, 79
1, 271438, Note_off_c, 0, 49, 50
1, 271447, Control_c, 0, 64, 87
1, 271458, Note_off_c, 0, 69, 53
1, 271461, Control_c, 0, 64, 96
1, 271476, Control_c, 0, 64, 106
1, 271491, Control_c, 0, 64, 109
1, 271520, Control_c, 0, 64, 108
1, 271535, Control_c, 0, 64, 105
1, 271550, Control_c, 0, 64, 101
1, 271565, Control_c, 0, 64, 98
1, 271580, Control_c, 0, 64, 96
1, 271595, Control_c, 0, 64, 95
1, 271610, Control_c, 0, 64, 94
1, 271625, Control_c, 0, 64, 93
1, 271640, Control_c, 0, 64, 92
1, 271654, Control_c, 0, 64, 89
1, 271669, Control_c, 0, 64, 87
1, 271684, Control_c, 0, 64, 86
1, 271691, Note_on_c, 0, 59, 39
1, 271698, Control_c, 0, 64, 85
1, 271712, Note_on_c, 0, 50, 40
1, 271723, Note_on_c, 0, 68, 56
1, 271726, Note_on_c, 0, 64, 49
1, 271758, Control_c, 0, 64, 85
1, 271772, Control_c, 0, 64, 83
1, 271787, Control_c, 0, 64, 80
1, 271802, Control_c, 0, 64, 75
1, 271817, Control_c, 0, 64, 71
1, 271822, Note_off_c, 0, 50, 59
1, 271831, Control_c, 0, 64, 68
1, 271861, Control_c, 0, 64, 69
1, 271877, Control_c, 0, 64, 71
1, 271892, Control_c, 0, 64, 74
1, 271907, Control_c, 0, 64, 76
1, 271910, Note_on_c, 0, 69, 59
1, 271915, Note_on_c, 0, 76, 64
1, 271917, Note_on_c, 0, 49, 44
1, 271917, Note_off_c, 0, 59, 53
1, 271919, Note_on_c, 0, 57, 46
1, 271921, Note_off_c, 0, 64, 52
1, 271921, Note_off_c, 0, 68, 54
1, 271921, Control_c, 0, 64, 78
1, 271954, Note_off_c, 0, 69, 57
1, 271958, Note_off_c, 0, 57, 61
1, 271958, Note_off_c, 0, 76, 57
1, 271962, Note_off_c, 0, 49, 61
1, 271966, Control_c, 0, 64, 77
1, 271981, Control_c, 0, 64, 77
1, 272010, Control_c, 0, 64, 75
1, 272025, Control_c, 0, 64, 72
1, 272040, Control_c, 0, 64, 65
1, 272055, Control_c, 0, 64, 60
1, 272060, Note_on_c, 0, 68, 62
1, 272068, Note_on_c, 0, 64, 47
1, 272069, Note_on_c, 0, 59, 42
1, 272070, Control_c, 0, 64, 59
1, 272086, Note_on_c, 0, 50, 50
1, 272092, Control_c, 0, 64, 61
1, 272107, Control_c, 0, 64, 64
1, 272122, Control_c, 0, 64, 68
1, 272136, Control_c, 0, 64, 72
1, 272149, Note_off_c, 0, 50, 60
1, 272151, Control_c, 0, 64, 77
1, 272166, Control_c, 0, 64, 80
1, 272181, Control_c, 0, 64, 82
1, 272196, Control_c, 0, 64, 85
1, 272210, Control_c, 0, 64, 90
1, 272225, Control_c, 0, 64, 94
1, 272228, Note_on_c, 0, 69, 60
1, 272232, Note_off_c, 0, 59, 30
1, 272234, Note_on_c, 0, 76, 63
1, 272235, Note_off_c, 0, 64, 53
1, 272240, Control_c, 0, 64, 95
1, 272241, Note_on_c, 0, 49, 53
1, 272244, Note_off_c, 0, 68, 53
1, 272253, Note_on_c, 0, 57, 9
1, 272254, Control_c, 0, 64, 96
1, 272257, Note_off_c, 0, 69, 65
1, 272265, Note_off_c, 0, 76, 64
1, 272275, Note_off_c, 0, 49, 64
1, 272284, Control_c, 0, 64, 97
1, 272299, Control_c, 0, 64, 98
1, 272301, Note_off_c, 0, 57, 53
1, 272314, Control_c, 0, 64, 98
1, 272358, Control_c, 0, 64, 98
1, 272373, Control_c, 0, 64, 97
1, 272388, Control_c, 0, 64, 96
1, 272403, Control_c, 0, 64, 95
1, 272418, Control_c, 0, 64, 92
1, 272432, Control_c, 0, 64, 89
1, 272447, Control_c, 0, 64, 86
1, 272462, Control_c, 0, 64, 82
1, 272462, Note_on_c, 0, 39, 57
1, 272471, Note_on_c, 0, 49, 42
1, 272477, Control_c, 0, 64, 79
1, 272492, Control_c, 0, 64, 76
1, 272507, Control_c, 0, 64, 72
1, 272518, Note_off_c, 0, 39, 62
1, 272521, Control_c, 0, 64, 67
1, 272525, Note_on_c, 0, 61, 60
1, 272535, Note_on_c, 0, 58, 51
1, 272536, Control_c, 0, 64, 61
1, 272545, Note_on_c, 0, 40, 40
1, 272551, Control_c, 0, 64, 50
1, 272566, Control_c, 0, 64, 34
1, 272581, Control_c, 0, 64, 28
1, 272595, Control_c, 0, 64, 30
1, 272610, Control_c, 0, 64, 45
1, 272625, Control_c, 0, 64, 57
1, 272640, Control_c, 0, 64, 63
1, 272654, Control_c, 0, 64, 65
1, 272671, Control_c, 0, 64, 67
1, 272686, Control_c, 0, 64, 69
1, 272700, Control_c, 0, 64, 70
1, 272715, Control_c, 0, 64, 71
1, 272730, Control_c, 0, 64, 72
1, 272738, Note_off_c, 0, 58, 59
1, 272744, Control_c, 0, 64, 73
1, 272754, Note_off_c, 0, 61, 59
1, 272774, Control_c, 0, 64, 72
1, 272789, Note_on_c, 0, 68, 60
1, 272804, Control_c, 0, 64, 72
1, 272825, Control_c, 0, 64, 71
1, 272840, Control_c, 0, 64, 70
1, 272855, Control_c, 0, 64, 68
1, 272861, Note_off_c, 0, 40, 42
1, 272863, Note_on_c, 0, 59, 47
1, 272870, Control_c, 0, 64, 66
1, 272875, Note_on_c, 0, 47, 37
1, 272875, Note_on_c, 0, 66, 55
1, 272884, Control_c, 0, 64, 63
1, 272887, Note_on_c, 0, 57, 35
1, 272890, Note_off_c, 0, 68, 54
1, 272896, Note_on_c, 0, 39, 43
1, 272899, Note_off_c, 0, 49, 36
1, 272899, Control_c, 0, 64, 58
1, 272914, Control_c, 0, 64, 48
1, 272929, Control_c, 0, 64, 21
1, 272944, Control_c, 0, 64, 0
1, 273018, Control_c, 0, 64, 36
1, 273032, Control_c, 0, 64, 54
1, 273047, Control_c, 0, 64, 61
1, 273062, Control_c, 0, 64, 63
1, 273076, Control_c, 0, 64, 64
1, 273091, Control_c, 0, 64, 66
1, 273106, Control_c, 0, 64, 69
1, 273121, Control_c, 0, 64, 73
1, 273136, Control_c, 0, 64, 77
1, 273151, Control_c, 0, 64, 82
1, 273166, Control_c, 0, 64, 88
1, 273181, Control_c, 0, 64, 92
1, 273181, Note_off_c, 0, 47, 40
1, 273193, Note_off_c, 0, 57, 33
1, 273196, Control_c, 0, 64, 93
1, 273206, Note_on_c, 0, 63, 54
1, 273245, Note_off_c, 0, 39, 41
1, 273270, Control_c, 0, 64, 93
1, 273280, Note_off_c, 0, 59, 37
1, 273299, Control_c, 0, 64, 94
1, 273314, Control_c, 0, 64, 96
1, 273329, Control_c, 0, 64, 99
1, 273343, Control_c, 0, 64, 106
1, 273358, Control_c, 0, 64, 112
1, 273373, Control_c, 0, 64, 119
1, 273378, Note_on_c, 0, 59, 64
1, 273388, Control_c, 0, 64, 127
1, 273428, Note_off_c, 0, 63, 37
1, 273453, Note_off_c, 0, 59, 58
1, 273460, Note_off_c, 0, 66, 38
1, 273529, Note_on_c, 0, 59, 51
1, 273571, Note_on_c, 0, 35, 37
1, 273678, Control_c, 0, 64, 110
1, 273693, Control_c, 0, 64, 101
1, 273707, Control_c, 0, 64, 95
1, 273715, Note_off_c, 0, 59, 58
1, 273722, Control_c, 0, 64, 89
1, 273737, Control_c, 0, 64, 85
1, 273745, Note_on_c, 0, 58, 43
1, 273750, Note_on_c, 0, 61, 45
1, 273752, Control_c, 0, 64, 80
1, 273759, Note_on_c, 0, 47, 38
1, 273767, Control_c, 0, 64, 72
1, 273781, Control_c, 0, 64, 64
1, 273796, Control_c, 0, 64, 47
1, 273811, Control_c, 0, 64, 0
1, 273841, Control_c, 0, 64, 16
1, 273855, Control_c, 0, 64, 38
1, 273870, Control_c, 0, 64, 53
1, 273885, Control_c, 0, 64, 61
1, 273899, Control_c, 0, 64, 65
1, 273904, Note_off_c, 0, 61, 52
1, 273907, Note_on_c, 0, 63, 55
1, 273907, Note_off_c, 0, 58, 53
1, 273914, Control_c, 0, 64, 68
1, 273922, Note_on_c, 0, 57, 40
1, 273929, Control_c, 0, 64, 72
1, 273944, Control_c, 0, 64, 76
1, 273953, Note_off_c, 0, 35, 39
1, 273959, Control_c, 0, 64, 80
1, 273974, Control_c, 0, 64, 84
1, 273988, Control_c, 0, 64, 89
1, 274003, Control_c, 0, 64, 96
1, 274018, Control_c, 0, 64, 102
1, 274033, Control_c, 0, 64, 114
1, 274039, Note_off_c, 0, 47, 41
1, 274047, Note_on_c, 0, 64, 60
1, 274048, Note_off_c, 0, 57, 54
1, 274048, Control_c, 0, 64, 127
1, 274069, Note_on_c, 0, 56, 46
1, 274097, Note_off_c, 0, 56, 56
1, 274107, Note_off_c, 0, 63, 47
1, 274108, Note_off_c, 0, 64, 60
1, 274209, Note_on_c, 0, 52, 50
1, 274219, Note_on_c, 0, 68, 69
1, 274294, Note_off_c, 0, 52, 55
1, 274328, Note_off_c, 0, 68, 57
1, 274412, Control_c, 0, 64, 109
1, 274427, Control_c, 0, 64, 95
1, 274432, Note_on_c, 0, 47, 36
1, 274439, Note_on_c, 0, 52, 35
1, 274442, Control_c, 0, 64, 85
1, 274457, Control_c, 0, 64, 76
1, 274462, Note_on_c, 0, 71, 64
1, 274471, Control_c, 0, 64, 67
1, 274474, Note_on_c, 0, 68, 46
1, 274486, Control_c, 0, 64, 58
1, 274489, Note_on_c, 0, 59, 30
1, 274489, Note_on_c, 0, 57, 36
1, 274501, Control_c, 0, 64, 39
1, 274516, Control_c, 0, 64, 33
1, 274531, Control_c, 0, 64, 39
1, 274546, Control_c, 0, 64, 52
1, 274561, Control_c, 0, 64, 60
1, 274576, Control_c, 0, 64, 65
1, 274591, Control_c, 0, 64, 68
1, 274605, Control_c, 0, 64, 72
1, 274620, Control_c, 0, 64, 76
1, 274635, Control_c, 0, 64, 80
1, 274638, Note_on_c, 0, 51, 48
1, 274644, Note_on_c, 0, 66, 52
1, 274650, Control_c, 0, 64, 85
1, 274651, Note_off_c, 0, 57, 52
1, 274656, Note_off_c, 0, 59, 42
1, 274659, Note_off_c, 0, 71, 54
1, 274662, Note_off_c, 0, 52, 43
1, 274665, Control_c, 0, 64, 88
1, 274679, Control_c, 0, 64, 90
1, 274694, Control_c, 0, 64, 91
1, 274709, Control_c, 0, 64, 92
1, 274710, Note_off_c, 0, 47, 28
1, 274723, Control_c, 0, 64, 95
1, 274738, Control_c, 0, 64, 100
1, 274739, Note_off_c, 0, 68, 39
1, 274753, Control_c, 0, 64, 108
1, 274757, Note_off_c, 0, 51, 61
1, 274768, Control_c, 0, 64, 113
1, 274783, Control_c, 0, 64, 114
1, 274796, Note_on_c, 0, 64, 59
1, 274799, Note_on_c, 0, 52, 47
1, 274817, Note_on_c, 0, 56, 28
1, 274838, Note_off_c, 0, 66, 35
1, 274838, Note_off_c, 0, 64, 60
1, 274856, Note_off_c, 0, 56, 46
1, 274857, Control_c, 0, 64, 113
1, 274871, Control_c, 0, 64, 110
1, 274886, Control_c, 0, 64, 107
1, 274901, Control_c, 0, 64, 104
1, 274916, Control_c, 0, 64, 102
1, 274930, Control_c, 0, 64, 99
1, 274945, Control_c, 0, 64, 96
1, 274954, Note_on_c, 0, 40, 52
1, 274960, Control_c, 0, 64, 93
1, 274961, Note_on_c, 0, 64, 57
1, 274975, Control_c, 0, 64, 90
1, 274978, Note_off_c, 0, 52, 45
1, 274979, Note_on_c, 0, 62, 43
1, 274990, Control_c, 0, 64, 87
1, 275005, Control_c, 0, 64, 84
1, 275020, Note_off_c, 0, 62, 45
1, 275020, Control_c, 0, 64, 81
1, 275035, Control_c, 0, 64, 79
1, 275049, Control_c, 0, 64, 76
1, 275073, Control_c, 0, 64, 72
1, 275088, Control_c, 0, 64, 66
1, 275102, Control_c, 0, 64, 56
1, 275109, Note_on_c, 0, 52, 45
1, 275115, Note_on_c, 0, 66, 65
1, 275117, Control_c, 0, 64, 0
1, 275124, Note_off_c, 0, 64, 59
1, 275128, Note_on_c, 0, 63, 58
1, 275176, Control_c, 0, 64, 23
1, 275191, Control_c, 0, 64, 52
1, 275206, Control_c, 0, 64, 62
1, 275220, Control_c, 0, 64, 67
1, 275235, Control_c, 0, 64, 72
1, 275250, Control_c, 0, 64, 79
1, 275254, Note_on_c, 0, 68, 78
1, 275265, Control_c, 0, 64, 86
1, 275267, Note_on_c, 0, 62, 60
1, 275277, Note_off_c, 0, 66, 57
1, 275280, Control_c, 0, 64, 97
1, 275283, Note_off_c, 0, 63, 54
1, 275294, Control_c, 0, 64, 113
1, 275298, Note_off_c, 0, 40, 37
1, 275309, Control_c, 0, 64, 127
1, 275340, Note_off_c, 0, 52, 62
1, 275388, Note_on_c, 0, 69, 80
1, 275401, Note_on_c, 0, 61, 70
1, 275401, Note_off_c, 0, 62, 58
1, 275428, Note_off_c, 0, 61, 67
1, 275434, Note_off_c, 0, 68, 61
1, 275455, Note_off_c, 0, 69, 62
1, 275524, Note_on_c, 0, 57, 57
1, 275532, Note_on_c, 0, 73, 87
1, 275572, Note_off_c, 0, 57, 58
1, 275591, Control_c, 0, 64, 116
1, 275606, Control_c, 0, 64, 99
1, 275620, Control_c, 0, 64, 90
1, 275635, Control_c, 0, 64, 86
1, 275636, Note_off_c, 0, 73, 60
1, 275650, Control_c, 0, 64, 84
1, 275664, Control_c, 0, 64, 81
1, 275678, Note_on_c, 0, 57, 53
1, 275679, Note_on_c, 0, 52, 54
1, 275679, Control_c, 0, 64, 73
1, 275694, Control_c, 0, 64, 64
1, 275709, Control_c, 0, 64, 40
1, 275716, Note_on_c, 0, 76, 82
1, 275724, Control_c, 0, 64, 0
1, 275740, Note_on_c, 0, 73, 60
1, 275746, Note_on_c, 0, 64, 53
1, 275747, Note_on_c, 0, 62, 58
1, 275784, Control_c, 0, 64, 47
1, 275799, Control_c, 0, 64, 60
1, 275814, Control_c, 0, 64, 65
1, 275836, Control_c, 0, 64, 69
1, 275851, Control_c, 0, 64, 73
1, 275866, Control_c, 0, 64, 77
1, 275876, Note_on_c, 0, 71, 79
1, 275879, Note_on_c, 0, 56, 64
1, 275881, Control_c, 0, 64, 82
1, 275893, Note_off_c, 0, 62, 60
1, 275894, Note_off_c, 0, 64, 58
1, 275896, Control_c, 0, 64, 87
1, 275911, Control_c, 0, 64, 95
1, 275916, Note_off_c, 0, 76, 58
1, 275922, Note_off_c, 0, 57, 55
1, 275926, Control_c, 0, 64, 104
1, 275941, Control_c, 0, 64, 112
1, 275956, Control_c, 0, 64, 116
1, 275970, Control_c, 0, 64, 127
1, 275982, Note_off_c, 0, 52, 58
1, 275998, Note_off_c, 0, 73, 56
1, 276029, Note_on_c, 0, 69, 88
1, 276041, Note_on_c, 0, 57, 67
1, 276045, Note_off_c, 0, 56, 62
1, 276048, Note_off_c, 0, 71, 38
1, 276068, Note_on_c, 0, 61, 32
1, 276102, Note_off_c, 0, 61, 51
1, 276102, Note_off_c, 0, 69, 62
1, 276123, Note_off_c, 0, 57, 62
1, 276189, Note_on_c, 0, 61, 66
1, 276222, Control_c, 0, 67, 127
1, 276230, Note_on_c, 0, 73, 95
1, 276237, Control_c, 0, 67, 125
1, 276251, Control_c, 0, 64, 112
1, 276251, Control_c, 0, 67, 124
1, 276257, Note_on_c, 0, 69, 64
1, 276266, Control_c, 0, 64, 80
1, 276266, Control_c, 0, 67, 121
1, 276281, Control_c, 0, 64, 66
1, 276281, Control_c, 0, 67, 119
1, 276296, Control_c, 0, 64, 62
1, 276296, Control_c, 0, 67, 116
1, 276311, Control_c, 0, 64, 65
1, 276311, Control_c, 0, 67, 114
1, 276326, Control_c, 0, 64, 71
1, 276326, Control_c, 0, 67, 110
1, 276340, Control_c, 0, 64, 81
1, 276340, Control_c, 0, 67, 107
1, 276355, Control_c, 0, 64, 98
1, 276355, Control_c, 0, 67, 104
1, 276370, Control_c, 0, 64, 127
1, 276370, Control_c, 0, 67, 100
1, 276376, Note_off_c, 0, 69, 57
1, 276385, Control_c, 0, 67, 95
1, 276400, Control_c, 0, 67, 90
1, 276415, Control_c, 0, 67, 82
1, 276417, Note_off_c, 0, 73, 61
1, 276430, Control_c, 0, 67, 76
1, 276444, Control_c, 0, 67, 71
1, 276459, Control_c, 0, 67, 67
1, 276466, Note_on_c, 0, 65, 55
1, 276474, Control_c, 0, 67, 66
1, 276488, Control_c, 0, 67, 65
1, 276494, Note_on_c, 0, 73, 89
1, 276518, Control_c, 0, 67, 64
1, 276522, Note_on_c, 0, 69, 61
1, 276533, Control_c, 0, 64, 90
1, 276533, Control_c, 0, 67, 64
1, 276548, Control_c, 0, 64, 68
1, 276548, Control_c, 0, 67, 63
1, 276570, Control_c, 0, 64, 50
1, 276570, Control_c, 0, 67, 62
1, 276585, Control_c, 0, 64, 21
1, 276600, Control_c, 0, 64, 24
1, 276600, Control_c, 0, 67, 62
1, 276615, Control_c, 0, 64, 46
1, 276630, Control_c, 0, 64, 59
1, 276644, Control_c, 0, 64, 66
1, 276644, Control_c, 0, 67, 61
1, 276659, Control_c, 0, 64, 73
1, 276659, Control_c, 0, 67, 59
1, 276674, Control_c, 0, 64, 90
1, 276674, Control_c, 0, 67, 54
1, 276689, Control_c, 0, 64, 127
1, 276689, Control_c, 0, 67, 48
1, 276691, Note_on_c, 0, 68, 84
1, 276704, Control_c, 0, 67, 40
1, 276719, Control_c, 0, 67, 35
1, 276730, Note_off_c, 0, 73, 59
1, 276734, Control_c, 0, 67, 31
1, 276749, Control_c, 0, 67, 27
1, 276764, Control_c, 0, 67, 23
1, 276779, Control_c, 0, 67, 17
1, 276794, Control_c, 0, 67, 8
1, 276795, Note_off_c, 0, 69, 34
1, 276808, Control_c, 0, 67, 0
1, 276811, Note_off_c, 0, 61, 57
1, 276832, Note_on_c, 0, 66, 70
1, 276845, Note_off_c, 0, 65, 62
1, 276847, Note_on_c, 0, 71, 89
1, 276860, Note_off_c, 0, 66, 68
1, 276873, Note_off_c, 0, 68, 62
1, 276906, Note_off_c, 0, 71, 64
1, 276986, Note_on_c, 0, 73, 90
1, 276989, Note_on_c, 0, 61, 72
1, 276996, Note_on_c, 0, 49, 61
1, 276998, Note_on_c, 0, 69, 79
1, 277082, Note_off_c, 0, 69, 61
1, 277092, Note_off_c, 0, 61, 60
1, 277109, Note_off_c, 0, 73, 62
1, 277134, Note_off_c, 0, 49, 57
1, 277161, Note_on_c, 0, 73, 85
1, 277166, Note_on_c, 0, 69, 83
1, 277180, Note_on_c, 0, 53, 72
1, 277182, Note_on_c, 0, 61, 74
1, 277193, Control_c, 0, 64, 94
1, 277208, Control_c, 0, 64, 67
1, 277223, Control_c, 0, 64, 42
1, 277238, Control_c, 0, 64, 17
1, 277253, Control_c, 0, 64, 41
1, 277267, Control_c, 0, 64, 58
1, 277282, Control_c, 0, 64, 67
1, 277297, Control_c, 0, 64, 82
1, 277305, Note_on_c, 0, 68, 82
1, 277318, Note_off_c, 0, 69, 57
1, 277318, Control_c, 0, 64, 127
1, 277366, Note_off_c, 0, 73, 59
1, 277392, Note_off_c, 0, 61, 60
1, 277393, Note_off_c, 0, 53, 61
1, 277438, Note_off_c, 0, 68, 0
1, 277453, Note_on_c, 0, 71, 89
1, 277469, Poly_aftertouch_c, 0, 68, 0
1, 277470, Note_on_c, 0, 61, 74
1, 277471, Note_on_c, 0, 54, 73
1, 277504, Note_off_c, 0, 71, 66
1, 277518, Note_off_c, 0, 54, 61
1, 277523, Note_off_c, 0, 61, 62
1, 277607, Note_on_c, 0, 75, 90
1, 277610, Note_on_c, 0, 66, 84
1, 277616, Note_on_c, 0, 72, 81
1, 277626, Note_on_c, 0, 60, 84
1, 277632, Note_on_c, 0, 57, 73
1, 277655, Note_off_c, 0, 66, 59
1, 277660, Note_off_c, 0, 72, 61
1, 277673, Note_off_c, 0, 75, 61
1, 277674, Note_off_c, 0, 60, 67
1, 277688, Note_off_c, 0, 57, 64
1, 277759, Note_on_c, 0, 76, 94
1, 277762, Note_on_c, 0, 71, 93
1, 277770, Note_on_c, 0, 59, 82
1, 277770, Note_on_c, 0, 64, 79
1, 277778, Control_c, 0, 64, 81
1, 277781, Note_on_c, 0, 56, 71
1, 277792, Note_off_c, 0, 64, 72
1, 277793, Control_c, 0, 64, 58
1, 277798, Note_off_c, 0, 71, 60
1, 277808, Control_c, 0, 64, 0
1, 277809, Note_off_c, 0, 76, 65
1, 277811, Note_off_c, 0, 56, 67
1, 277812, Note_off_c, 0, 59, 65
1, 277925, Note_on_c, 0, 77, 95
1, 277927, Note_on_c, 0, 74, 79
1, 277931, Note_on_c, 0, 59, 85
1, 277931, Note_on_c, 0, 62, 84
1, 277932, Note_on_c, 0, 65, 82
1, 277950, Note_off_c, 0, 74, 67
1, 277956, Note_off_c, 0, 65, 67
1, 277962, Note_off_c, 0, 59, 65
1, 277962, Note_off_c, 0, 77, 69
1, 277969, Note_off_c, 0, 62, 62
1, 278102, Note_on_c, 0, 78, 93
1, 278105, Note_on_c, 0, 61, 83
1, 278105, Note_on_c, 0, 66, 90
1, 278105, Note_on_c, 0, 73, 88
1, 278105, Note_on_c, 0, 57, 79
1, 278127, Note_off_c, 0, 73, 65
1, 278129, Note_off_c, 0, 66, 65
1, 278136, Note_off_c, 0, 61, 64
1, 278141, Note_off_c, 0, 57, 64
1, 278153, Note_off_c, 0, 78, 61
1, 278280, Note_on_c, 0, 79, 94
1, 278281, Note_on_c, 0, 58, 81
1, 278284, Note_on_c, 0, 67, 90
1, 278285, Note_on_c, 0, 64, 79
1, 278286, Note_on_c, 0, 73, 89
1, 278313, Note_off_c, 0, 73, 67
1, 278318, Note_off_c, 0, 64, 61
1, 278320, Note_off_c, 0, 58, 62
1, 278322, Note_off_c, 0, 67, 63
1, 278322, Note_off_c, 0, 79, 67
1, 278476, Note_on_c, 0, 59, 81
1, 278476, Note_on_c, 0, 68, 97
1, 278479, Note_on_c, 0, 64, 84
1, 278481, Note_on_c, 0, 71, 86
1, 278481, Note_on_c, 0, 80, 87
1, 278484, Control_c, 0, 64, 12
1, 278499, Control_c, 0, 64, 0
1, 278502, Note_off_c, 0, 64, 69
1, 278503, Note_off_c, 0, 68, 64
1, 278508, Note_off_c, 0, 59, 66
1, 278519, Note_off_c, 0, 71, 60
1, 278529, Note_off_c, 0, 80, 63
1, 278719, Note_on_c, 0, 69, 91
1, 278720, Note_on_c, 0, 75, 84
1, 278720, Note_on_c, 0, 78, 95
1, 278724, Note_on_c, 0, 47, 73
1, 278724, Note_on_c, 0, 71, 81
1, 278725, Note_on_c, 0, 59, 80
1, 278750, Note_off_c, 0, 69, 67
1, 278752, Note_off_c, 0, 59, 67
1, 278755, Note_off_c, 0, 47, 66
1, 278764, Note_off_c, 0, 71, 63
1, 278769, Note_off_c, 0, 75, 64
1, 278770, Note_off_c, 0, 78, 65
1, 279047, Note_on_c, 0, 68, 96
1, 279047, Note_on_c, 0, 76, 87
1, 279051, Note_on_c, 0, 71, 85
1, 279056, Note_on_c, 0, 59, 77
1, 279061, Note_on_c, 0, 52, 77
1, 279069, Control_c, 0, 64, 66
1, 279076, Note_off_c, 0, 68, 67
1, 279077, Note_on_c, 0, 72, 46
1, 279084, Control_c, 0, 64, 88
1, 279088, Note_off_c, 0, 59, 65
1, 279092, Note_off_c, 0, 71, 66
1, 279096, Note_off_c, 0, 76, 67
1, 279099, Control_c, 0, 64, 127
1, 279104, Note_off_c, 0, 72, 61
1, 279110, Note_off_c, 0, 52, 61
1, 279393, Note_on_c, 0, 54, 73
1, 279473, Note_on_c, 0, 56, 89
1, 279479, Note_on_c, 0, 52, 70
1, 279484, Control_c, 0, 64, 90
1, 279490, Note_off_c, 0, 54, 65
1, 279499, Control_c, 0, 64, 48
1, 279500, Note_off_c, 0, 56, 69
1, 279509, Note_off_c, 0, 52, 67
1, 279513, Control_c, 0, 64, 0
1, 279803, Note_on_c, 0, 58, 91
1, 279804, Note_on_c, 0, 49, 81
1, 279823, Note_off_c, 0, 58, 71
1, 279828, Note_off_c, 0, 49, 68
1, 280055, Note_on_c, 0, 59, 71
1, 280114, Note_on_c, 0, 61, 86
1, 280118, Note_on_c, 0, 58, 81
1, 280121, Note_off_c, 0, 59, 65
1, 280135, Note_off_c, 0, 61, 70
1, 280141, Note_off_c, 0, 58, 70
1, 280147, Note_on_c, 0, 35, 70
1, 280147, Note_on_c, 0, 47, 75
1, 280430, Note_on_c, 0, 63, 86
1, 280439, Note_on_c, 0, 57, 71
1, 280439, Note_on_c, 0, 60, 74
1, 280442, Note_off_c, 0, 47, 62
1, 280446, Note_off_c, 0, 35, 59
1, 280461, Note_off_c, 0, 57, 65
1, 280464, Note_off_c, 0, 60, 68
1, 280467, Note_off_c, 0, 63, 67
1, 280652, Note_on_c, 0, 47, 70
1, 280683, Note_off_c, 0, 47, 64
1, 280719, Note_on_c, 0, 59, 90
1, 280723, Note_on_c, 0, 64, 84
1, 280732, Note_on_c, 0, 56, 83
1, 280749, Note_off_c, 0, 59, 68
1, 280758, Note_off_c, 0, 56, 68
1, 280769, Note_off_c, 0, 64, 60
1, 281037, Note_on_c, 0, 58, 82
1, 281039, Note_on_c, 0, 61, 84
1, 281044, Note_on_c, 0, 64, 75
1, 281062, Note_on_c, 0, 55, 69
1, 281071, Note_off_c, 0, 58, 69
1, 281076, Note_off_c, 0, 64, 70
1, 281083, Note_off_c, 0, 61, 63
1, 281089, Note_off_c, 0, 55, 66
1, 281290, Note_on_c, 0, 63, 77
1, 281290, Note_on_c, 0, 66, 77
1, 281297, Note_on_c, 0, 59, 72
1, 281365, Note_on_c, 0, 71, 90
1, 281384, Note_on_c, 0, 35, 56
1, 281391, Note_on_c, 0, 47, 55
1, 281417, Control_c, 0, 64, 54
1, 281432, Control_c, 0, 64, 64
1, 281447, Control_c, 0, 64, 70
1, 281462, Control_c, 0, 64, 82
1, 281477, Control_c, 0, 64, 127
1, 281620, Note_off_c, 0, 71, 59
1, 281637, Note_off_c, 0, 59, 64
1, 281645, Note_off_c, 0, 63, 62
1, 281649, Note_off_c, 0, 66, 60
1, 281700, Poly_aftertouch_c, 0, 39, 127
1, 281897, Note_on_c, 0, 66, 85
1, 281898, Note_on_c, 0, 54, 88
1, 281915, Note_off_c, 0, 66, 71
1, 281921, Note_off_c, 0, 54, 70
1, 281941, Note_off_c, 0, 35, 55
1, 281947, Note_off_c, 0, 47, 61
1, 281959, Control_c, 0, 64, 106
1, 281974, Control_c, 0, 64, 66
1, 281975, Poly_aftertouch_c, 0, 39, 0
1, 281977, Note_on_c, 0, 68, 83
1, 281978, Note_on_c, 0, 56, 83
1, 281980, Note_on_c, 0, 66, 71
1, 281989, Control_c, 0, 64, 0
1, 282001, Note_off_c, 0, 68, 64
1, 282002, Note_off_c, 0, 66, 56
1, 282003, Note_off_c, 0, 56, 66
1, 282261, Note_on_c, 0, 70, 89
1, 282263, Note_on_c, 0, 66, 82
1, 282266, Note_on_c, 0, 61, 83
1, 282286, Note_off_c, 0, 61, 70
1, 282288, Note_off_c, 0, 66, 67
1, 282311, Note_off_c, 0, 70, 61
1, 282482, Note_on_c, 0, 54, 79
1, 282487, Note_on_c, 0, 42, 64
1, 282506, Note_off_c, 0, 54, 68
1, 282520, Note_off_c, 0, 42, 63
1, 282553, Control_c, 0, 64, 40
1, 282565, Note_on_c, 0, 66, 85
1, 282568, Note_on_c, 0, 63, 89
1, 282569, Note_on_c, 0, 71, 86
1, 282575, Control_c, 0, 64, 0
1, 282582, Note_on_c, 0, 59, 83
1, 282583, Note_on_c, 0, 47, 79
1, 282598, Note_off_c, 0, 63, 63
1, 282608, Note_off_c, 0, 66, 60
1, 282610, Note_off_c, 0, 71, 60
1, 282857, Note_off_c, 0, 59, 64
1, 282862, Note_on_c, 0, 73, 91
1, 282865, Note_on_c, 0, 66, 83
1, 282866, Note_on_c, 0, 70, 84
1, 282866, Note_on_c, 0, 64, 83
1, 282886, Note_off_c, 0, 64, 71
1, 282887, Note_off_c, 0, 47, 63
1, 282896, Note_off_c, 0, 66, 61
1, 282901, Note_off_c, 0, 70, 63
1, 282908, Note_off_c, 0, 73, 66
1, 282916, Control_c, 0, 64, 38
1, 282930, Control_c, 0, 64, 0
1, 283071, Note_on_c, 0, 54, 81
1, 283077, Note_on_c, 0, 42, 75
1, 283095, Note_off_c, 0, 54, 69
1, 283104, Note_off_c, 0, 42, 66
1, 283149, Note_on_c, 0, 66, 89
1, 283152, Note_on_c, 0, 75, 91
1, 283154, Note_on_c, 0, 71, 88
1, 283155, Note_on_c, 0, 63, 90
1, 283165, Note_on_c, 0, 35, 89
1, 283169, Note_on_c, 0, 47, 78
1, 283175, Note_on_c, 0, 70, 48
1, 283179, Note_off_c, 0, 63, 68
1, 283190, Note_off_c, 0, 66, 66
1, 283191, Note_off_c, 0, 35, 67
1, 283194, Note_off_c, 0, 47, 66
1, 283196, Note_off_c, 0, 71, 64
1, 283200, Note_off_c, 0, 70, 35
1, 283211, Note_off_c, 0, 75, 63
1, 283475, Note_on_c, 0, 77, 90
1, 283479, Note_on_c, 0, 71, 90
1, 283479, Note_on_c, 0, 73, 87
1, 283480, Note_on_c, 0, 65, 89
1, 283484, Note_on_c, 0, 37, 85
1, 283486, Note_on_c, 0, 49, 85
1, 283506, Note_off_c, 0, 49, 70
1, 283509, Note_off_c, 0, 37, 68
1, 283512, Note_off_c, 0, 65, 64
1, 283520, Note_off_c, 0, 71, 65
1, 283528, Note_off_c, 0, 77, 62
1, 283532, Note_off_c, 0, 73, 63
1, 283746, Note_on_c, 0, 70, 87
1, 283748, Note_on_c, 0, 66, 74
1, 283750, Note_on_c, 0, 73, 84
1, 283820, Note_on_c, 0, 78, 94
1, 283826, Note_on_c, 0, 30, 80
1, 283827, Note_on_c, 0, 42, 85
1, 283887, Control_c, 0, 64, 32
1, 283902, Control_c, 0, 64, 57
1, 283917, Control_c, 0, 64, 63
1, 283931, Control_c, 0, 64, 68
1, 283946, Control_c, 0, 64, 79
1, 283961, Control_c, 0, 64, 127
1, 284107, Note_off_c, 0, 66, 60
1, 284108, Note_off_c, 0, 78, 57
1, 284118, Note_off_c, 0, 70, 61
1, 284123, Note_off_c, 0, 73, 63
1, 284188, Note_off_c, 0, 30, 61
1, 284188, Note_off_c, 0, 42, 62
1, 284339, Note_on_c, 0, 78, 91
1, 284343, Note_on_c, 0, 66, 88
1, 284362, Note_off_c, 0, 66, 72
1, 284377, Note_off_c, 0, 78, 57
1, 284377, Note_on_c, 0, 77, 45
1, 284401, Note_off_c, 0, 77, 53
1, 284424, Note_on_c, 0, 81, 101
1, 284428, Control_c, 0, 64, 74
1, 284430, Note_on_c, 0, 69, 84
1, 284443, Control_c, 0, 64, 29
1, 284452, Note_off_c, 0, 69, 66
1, 284457, Control_c, 0, 64, 0
1, 284460, Note_off_c, 0, 81, 67
1, 284726, Note_on_c, 0, 72, 92
1, 284735, Note_on_c, 0, 60, 77
1, 284758, Note_off_c, 0, 72, 64
1, 284759, Note_off_c, 0, 60, 70
1, 284895, Control_c, 0, 67, 11
1, 284910, Control_c, 0, 67, 16
1, 284925, Control_c, 0, 67, 22
1, 284940, Control_c, 0, 67, 26
1, 284954, Control_c, 0, 67, 28
1, 284969, Control_c, 0, 67, 32
1, 284973, Note_on_c, 0, 51, 65
1, 284974, Note_on_c, 0, 63, 71
1, 284984, Control_c, 0, 67, 36
1, 284999, Control_c, 0, 67, 41
1, 285002, Note_off_c, 0, 63, 68
1, 285003, Note_off_c, 0, 51, 66
1, 285013, Control_c, 0, 67, 44
1, 285028, Control_c, 0, 67, 47
1, 285039, Note_on_c, 0, 73, 88
1, 285043, Control_c, 0, 67, 49
1, 285044, Note_on_c, 0, 61, 81
1, 285048, Note_on_c, 0, 64, 65
1, 285058, Control_c, 0, 67, 50
1, 285066, Note_on_c, 0, 52, 52
1, 285073, Control_c, 0, 67, 51
1, 285074, Note_off_c, 0, 64, 67
1, 285087, Control_c, 0, 67, 52
1, 285097, Note_off_c, 0, 52, 66
1, 285102, Control_c, 0, 67, 54
1, 285117, Control_c, 0, 67, 56
1, 285132, Control_c, 0, 67, 57
1, 285147, Control_c, 0, 67, 61
1, 285161, Control_c, 0, 67, 66
1, 285176, Control_c, 0, 67, 72
1, 285191, Control_c, 0, 67, 79
1, 285206, Control_c, 0, 67, 85
1, 285221, Control_c, 0, 67, 88
1, 285235, Control_c, 0, 67, 90
1, 285250, Control_c, 0, 67, 93
1, 285265, Control_c, 0, 67, 96
1, 285280, Control_c, 0, 67, 100
1, 285295, Control_c, 0, 67, 103
1, 285310, Control_c, 0, 67, 105
1, 285324, Control_c, 0, 67, 108
1, 285327, Note_off_c, 0, 61, 63
1, 285328, Note_off_c, 0, 73, 62
1, 285339, Control_c, 0, 67, 111
1, 285354, Control_c, 0, 67, 114
1, 285364, Note_on_c, 0, 42, 73
1, 285364, Note_on_c, 0, 54, 76
1, 285369, Control_c, 0, 67, 116
1, 285384, Control_c, 0, 67, 119
1, 285391, Note_off_c, 0, 42, 65
1, 285391, Note_off_c, 0, 54, 68
1, 285399, Control_c, 0, 67, 121
1, 285584, Note_on_c, 0, 75, 76
1, 285592, Note_on_c, 0, 69, 70
1, 285599, Note_on_c, 0, 73, 59
1, 285600, Control_c, 0, 67, 122
1, 285615, Note_off_c, 0, 75, 63
1, 285617, Note_off_c, 0, 69, 68
1, 285620, Note_off_c, 0, 73, 63
1, 285659, Control_c, 0, 67, 122
1, 285674, Note_on_c, 0, 76, 80
1, 285674, Control_c, 0, 67, 123
1, 285675, Note_on_c, 0, 68, 83
1, 285675, Note_on_c, 0, 73, 85
1, 285681, Note_on_c, 0, 56, 76
1, 285685, Note_on_c, 0, 44, 56
1, 285689, Control_c, 0, 67, 124
1, 285695, Note_off_c, 0, 73, 72
1, 285697, Note_off_c, 0, 68, 71
1, 285700, Note_off_c, 0, 76, 65
1, 285703, Control_c, 0, 67, 124
1, 285705, Note_off_c, 0, 56, 68
1, 285717, Note_off_c, 0, 44, 64
1, 285718, Control_c, 0, 67, 125
1, 285808, Control_c, 0, 67, 125
1, 285823, Control_c, 0, 67, 124
1, 285837, Control_c, 0, 67, 124
1, 285852, Control_c, 0, 67, 123
1, 285882, Control_c, 0, 67, 122
1, 285897, Control_c, 0, 67, 122
1, 285911, Control_c, 0, 67, 121
1, 285926, Control_c, 0, 67, 120
1, 285970, Control_c, 0, 67, 120
1, 285972, Note_on_c, 0, 75, 80
1, 285974, Note_on_c, 0, 68, 83
1, 285975, Note_on_c, 0, 66, 77
1, 285975, Note_on_c, 0, 72, 79
1, 285998, Note_off_c, 0, 66, 69
1, 285999, Note_off_c, 0, 68, 68
1, 285999, Note_off_c, 0, 75, 62
1, 286000, Control_c, 0, 67, 119
1, 286006, Note_off_c, 0, 72, 67
1, 286015, Control_c, 0, 67, 119
1, 286044, Control_c, 0, 67, 118
1, 286118, Control_c, 0, 67, 117
1, 286133, Control_c, 0, 67, 117
1, 286162, Control_c, 0, 67, 115
1, 286177, Control_c, 0, 67, 115
1, 286184, Note_on_c, 0, 32, 83
1, 286186, Note_on_c, 0, 44, 88
1, 286192, Control_c, 0, 67, 113
1, 286207, Control_c, 0, 67, 111
1, 286208, Note_off_c, 0, 44, 68
1, 286210, Note_off_c, 0, 32, 67
1, 286222, Control_c, 0, 67, 109
1, 286237, Control_c, 0, 64, 15
1, 286237, Control_c, 0, 67, 109
1, 286252, Control_c, 0, 64, 42
1, 286252, Control_c, 0, 67, 108
1, 286267, Control_c, 0, 64, 56
1, 286267, Control_c, 0, 67, 107
1, 286268, Note_on_c, 0, 73, 97
1, 286272, Note_on_c, 0, 68, 85
1, 286275, Note_on_c, 0, 64, 86
1, 286282, Note_on_c, 0, 37, 87
1, 286282, Control_c, 0, 64, 62
1, 286282, Control_c, 0, 67, 105
1, 286285, Note_on_c, 0, 49, 90
1, 286305, Control_c, 0, 64, 66
1, 286305, Control_c, 0, 67, 103
1, 286314, Note_off_c, 0, 49, 69
1, 286320, Control_c, 0, 64, 73
1, 286320, Control_c, 0, 67, 100
1, 286326, Note_off_c, 0, 37, 61
1, 286334, Control_c, 0, 64, 88
1, 286334, Control_c, 0, 67, 97
1, 286349, Control_c, 0, 64, 127
1, 286349, Control_c, 0, 67, 92
1, 286364, Control_c, 0, 67, 88
1, 286378, Control_c, 0, 67, 86
1, 286438, Control_c, 0, 67, 87
1, 286449, Poly_aftertouch_c, 0, 49, 0
1, 286497, Control_c, 0, 67, 87
1, 286512, Control_c, 0, 67, 88
1, 286526, Control_c, 0, 67, 89
1, 286541, Control_c, 0, 67, 90
1, 286556, Control_c, 0, 67, 91
1, 286571, Control_c, 0, 67, 92
1, 286586, Control_c, 0, 67, 94
1, 286601, Control_c, 0, 67, 94
1, 286616, Control_c, 0, 64, 106
1, 286616, Control_c, 0, 67, 95
1, 286630, Control_c, 0, 64, 75
1, 286637, Note_on_c, 0, 25, 100
1, 286645, Control_c, 0, 64, 61
1, 286660, Control_c, 0, 64, 54
1, 286675, Control_c, 0, 64, 60
1, 286690, Control_c, 0, 64, 66
1, 286690, Control_c, 0, 67, 94
1, 286705, Control_c, 0, 64, 75
1, 286708, Note_off_c, 0, 64, 58
1, 286720, Control_c, 0, 64, 102
1, 286720, Control_c, 0, 67, 94
1, 286723, Note_off_c, 0, 73, 61
1, 286724, Note_off_c, 0, 68, 61
1, 286734, Control_c, 0, 64, 127
1, 286749, Control_c, 0, 67, 93
1, 286764, Control_c, 0, 67, 92
1, 286778, Control_c, 0, 67, 91
1, 286793, Control_c, 0, 67, 90
1, 286808, Control_c, 0, 67, 89
1, 286851, Note_off_c, 0, 25, 59
1, 286864, Note_on_c, 0, 76, 99
1, 286867, Note_on_c, 0, 64, 90
1, 286882, Control_c, 0, 67, 89
1, 286896, Note_off_c, 0, 76, 66
1, 286897, Note_off_c, 0, 64, 64
1, 286912, Control_c, 0, 67, 88
1, 286926, Control_c, 0, 67, 87
1, 286941, Control_c, 0, 64, 93
1, 286954, Note_on_c, 0, 80, 96
1, 286956, Control_c, 0, 64, 57
1, 286958, Note_on_c, 0, 68, 93
1, 286971, Control_c, 0, 64, 0
1, 286973, Note_off_c, 0, 80, 67
1, 286982, Note_off_c, 0, 68, 68
1, 287015, Control_c, 0, 67, 88
1, 287030, Control_c, 0, 67, 89
1, 287045, Control_c, 0, 67, 89
1, 287069, Control_c, 0, 67, 90
1, 287083, Control_c, 0, 67, 90
1, 287098, Control_c, 0, 67, 91
1, 287113, Control_c, 0, 67, 92
1, 287128, Control_c, 0, 67, 94
1, 287143, Control_c, 0, 67, 96
1, 287157, Control_c, 0, 67, 97
1, 287172, Control_c, 0, 67, 98
1, 287187, Control_c, 0, 67, 99
1, 287201, Control_c, 0, 67, 99
1, 287216, Control_c, 0, 67, 100
1, 287231, Control_c, 0, 67, 100
1, 287246, Control_c, 0, 67, 101
1, 287252, Note_on_c, 0, 70, 85
1, 287253, Note_on_c, 0, 58, 85
1, 287261, Control_c, 0, 67, 102
1, 287275, Note_off_c, 0, 58, 69
1, 287279, Note_off_c, 0, 70, 59
1, 287394, Control_c, 0, 67, 101
1, 287409, Control_c, 0, 67, 100
1, 287486, Note_on_c, 0, 61, 77
1, 287496, Note_on_c, 0, 49, 49
1, 287510, Note_off_c, 0, 61, 69
1, 287527, Note_off_c, 0, 49, 35
1, 287549, Note_on_c, 0, 71, 84
1, 287552, Note_on_c, 0, 59, 73
1, 287575, Note_on_c, 0, 51, 76
1, 287577, Note_on_c, 0, 63, 76
1, 287601, Note_off_c, 0, 63, 69
1, 287601, Control_c, 0, 67, 100
1, 287608, Note_off_c, 0, 51, 61
1, 287675, Control_c, 0, 67, 99
1, 287749, Control_c, 0, 67, 100
1, 287779, Control_c, 0, 67, 100
1, 287830, Control_c, 0, 67, 101
1, 287836, Note_off_c, 0, 59, 63
1, 287864, Note_off_c, 0, 71, 62
1, 287871, Note_on_c, 0, 52, 63
1, 287872, Note_on_c, 0, 40, 68
1, 287892, Note_off_c, 0, 52, 64
1, 287901, Note_off_c, 0, 40, 65
1, 287994, Control_c, 0, 67, 100
1, 288024, Control_c, 0, 67, 100
1, 288068, Control_c, 0, 67, 99
1, 288071, Note_on_c, 0, 73, 73
1, 288083, Control_c, 0, 67, 99
1, 288085, Note_on_c, 0, 68, 54
1, 288090, Note_on_c, 0, 71, 51
1, 288097, Control_c, 0, 64, 11
1, 288097, Control_c, 0, 67, 98
1, 288106, Note_off_c, 0, 73, 62
1, 288107, Note_off_c, 0, 68, 59
1, 288111, Note_off_c, 0, 71, 59
1, 288112, Control_c, 0, 64, 15
1, 288112, Control_c, 0, 67, 97
1, 288127, Control_c, 0, 64, 16
1, 288127, Control_c, 0, 67, 97
1, 288159, Note_on_c, 0, 71, 79
1, 288159, Note_on_c, 0, 75, 80
1, 288160, Note_on_c, 0, 54, 79
1, 288160, Note_on_c, 0, 42, 74
1, 288165, Note_on_c, 0, 66, 74
1, 288172, Control_c, 0, 67, 96
1, 288182, Note_off_c, 0, 54, 69
1, 288187, Control_c, 0, 67, 95
1, 288188, Note_off_c, 0, 42, 64
1, 288188, Note_off_c, 0, 66, 68
1, 288192, Note_off_c, 0, 71, 64
1, 288198, Note_off_c, 0, 75, 48
1, 288201, Control_c, 0, 64, 17
1, 288216, Control_c, 0, 64, 19
1, 288216, Control_c, 0, 67, 94
1, 288231, Control_c, 0, 64, 21
1, 288231, Control_c, 0, 67, 94
1, 288246, Control_c, 0, 64, 23
1, 288246, Control_c, 0, 67, 93
1, 288261, Control_c, 0, 67, 92
1, 288276, Control_c, 0, 67, 92
1, 288291, Control_c, 0, 67, 91
1, 288305, Control_c, 0, 67, 90
1, 288320, Control_c, 0, 67, 89
1, 288335, Control_c, 0, 64, 26
1, 288335, Control_c, 0, 67, 89
1, 288350, Control_c, 0, 64, 33
1, 288365, Control_c, 0, 64, 38
1, 288379, Control_c, 0, 64, 41
1, 288394, Control_c, 0, 64, 50
1, 288394, Control_c, 0, 67, 88
1, 288409, Control_c, 0, 64, 57
1, 288423, Control_c, 0, 64, 55
1, 288423, Control_c, 0, 67, 87
1, 288438, Control_c, 0, 64, 38
1, 288438, Control_c, 0, 67, 87
1, 288451, Note_on_c, 0, 70, 83
1, 288452, Note_on_c, 0, 64, 82
1, 288453, Control_c, 0, 64, 0
1, 288456, Note_on_c, 0, 73, 72
1, 288459, Note_on_c, 0, 66, 72
1, 288475, Note_off_c, 0, 64, 69
1, 288482, Note_off_c, 0, 73, 70
1, 288485, Note_off_c, 0, 66, 67
1, 288492, Note_off_c, 0, 70, 67
1, 288564, Control_c, 0, 67, 87
1, 288594, Control_c, 0, 67, 88
1, 288654, Control_c, 0, 67, 87
1, 288666, Note_on_c, 0, 42, 91
1, 288669, Control_c, 0, 67, 87
1, 288672, Note_on_c, 0, 30, 76
1, 288693, Note_off_c, 0, 42, 69
1, 288701, Note_off_c, 0, 30, 64
1, 288714, Control_c, 0, 67, 86
1, 288741, Note_on_c, 0, 71, 89
1, 288744, Note_on_c, 0, 63, 91
1, 288745, Note_on_c, 0, 59, 87
1, 288749, Note_on_c, 0, 66, 80
1, 288755, Note_on_c, 0, 32, 87
1, 288756, Note_on_c, 0, 44, 93
1, 288758, Control_c, 0, 67, 84
1, 288769, Note_off_c, 0, 59, 69
1, 288773, Note_off_c, 0, 66, 68
1, 288773, Control_c, 0, 67, 75
1, 288774, Note_off_c, 0, 71, 64
1, 288777, Note_off_c, 0, 63, 62
1, 288780, Note_off_c, 0, 44, 69
1, 288786, Note_off_c, 0, 32, 66
1, 288788, Control_c, 0, 67, 40
1, 288802, Control_c, 0, 67, 0
1, 288876, Control_c, 0, 64, 11
1, 288891, Control_c, 0, 64, 17
1, 288906, Control_c, 0, 64, 20
1, 288921, Control_c, 0, 64, 22
1, 288935, Control_c, 0, 64, 23
1, 288965, Control_c, 0, 64, 24
1, 288979, Control_c, 0, 66, 127
1, 289054, Control_c, 0, 64, 23
1, 289069, Control_c, 0, 64, 16
1, 289076, Note_on_c, 0, 66, 73
1, 289084, Note_on_c, 0, 54, 75
1, 289084, Control_c, 0, 64, 0
1, 289087, Note_on_c, 0, 61, 68
1, 289089, Note_on_c, 0, 46, 77
1, 289095, Note_on_c, 0, 34, 57
1, 289096, Note_on_c, 0, 64, 48
1, 289111, Note_off_c, 0, 54, 67
1, 289113, Note_off_c, 0, 66, 58
1, 289114, Note_off_c, 0, 61, 65
1, 289115, Note_off_c, 0, 46, 66
1, 289119, Note_off_c, 0, 64, 59
1, 289126, Note_off_c, 0, 34, 56
1, 289232, Control_c, 0, 66, 0
1, 289320, Note_on_c, 0, 54, 61
1, 289406, Note_off_c, 0, 54, 58
1, 289413, Note_on_c, 0, 56, 60
1, 289416, Note_on_c, 0, 53, 54
1, 289430, Note_on_c, 0, 47, 55
1, 289436, Note_off_c, 0, 56, 63
1, 289441, Note_off_c, 0, 53, 59
1, 289443, Note_on_c, 0, 35, 49
1, 289537, Control_c, 0, 66, 127
1, 289719, Note_on_c, 0, 58, 72
1, 289722, Note_on_c, 0, 52, 67
1, 289728, Note_on_c, 0, 55, 60
1, 289739, Note_off_c, 0, 35, 59
1, 289748, Note_off_c, 0, 58, 67
1, 289749, Note_off_c, 0, 47, 62
1, 289750, Note_off_c, 0, 52, 66
1, 289757, Note_off_c, 0, 55, 65
1, 289942, Note_on_c, 0, 56, 76
1, 289948, Note_on_c, 0, 59, 75
1, 290006, Note_off_c, 0, 56, 61
1, 290012, Note_on_c, 0, 61, 82
1, 290014, Note_on_c, 0, 58, 79
1, 290017, Note_off_c, 0, 59, 66
1, 290019, Note_on_c, 0, 55, 75
1, 290033, Note_off_c, 0, 61, 71
1, 290040, Note_off_c, 0, 58, 69
1, 290059, Note_off_c, 0, 55, 61
1, 290312, Note_on_c, 0, 54, 65
1, 290320, Note_on_c, 0, 63, 71
1, 290321, Note_on_c, 0, 57, 66
1, 290332, Note_on_c, 0, 60, 54
1, 290342, Note_off_c, 0, 54, 66
1, 290348, Note_off_c, 0, 63, 67
1, 290351, Note_off_c, 0, 57, 67
1, 290354, Note_off_c, 0, 60, 59
1, 290530, Note_on_c, 0, 54, 64
1, 290536, Note_on_c, 0, 63, 68
1, 290550, Note_on_c, 0, 45, 36
1, 290567, Note_on_c, 0, 60, 45
1, 290580, Note_off_c, 0, 45, 56
1, 290590, Note_off_c, 0, 54, 65
1, 290594, Note_off_c, 0, 60, 55
1, 290598, Note_on_c, 0, 44, 50
1, 290610, Note_off_c, 0, 63, 64
1, 290615, Note_on_c, 0, 52, 71
1, 290616, Note_on_c, 0, 64, 65
1, 290618, Note_on_c, 0, 59, 74
1, 290645, Note_off_c, 0, 59, 66
1, 290647, Note_off_c, 0, 64, 62
1, 290648, Note_off_c, 0, 52, 67
1, 290655, Note_off_c, 0, 44, 63
1, 290941, Note_on_c, 0, 58, 60
1, 290944, Note_on_c, 0, 64, 61
1, 290946, Note_on_c, 0, 43, 49
1, 290947, Note_on_c, 0, 61, 55
1, 290949, Note_on_c, 0, 49, 52
1, 290971, Note_off_c, 0, 58, 66
1, 290976, Note_off_c, 0, 49, 62
1, 290979, Note_off_c, 0, 61, 65
1, 290982, Note_off_c, 0, 64, 61
1, 290990, Note_off_c, 0, 43, 63
1, 291206, Note_on_c, 0, 66, 53
1, 291221, Note_on_c, 0, 63, 35
1, 291228, Note_on_c, 0, 59, 27
1, 291272, Control_c, 0, 64, 14
1, 291287, Control_c, 0, 64, 24
1, 291290, Note_on_c, 0, 71, 71
1, 291302, Control_c, 0, 64, 33
1, 291303, Note_on_c, 0, 47, 48
1, 291314, Note_on_c, 0, 42, 45
1, 291316, Control_c, 0, 64, 43
1, 291321, Note_on_c, 0, 35, 46
1, 291331, Control_c, 0, 64, 49
1, 291336, Note_off_c, 0, 63, 34
1, 291340, Note_off_c, 0, 66, 55
1, 291346, Control_c, 0, 64, 53
1, 291361, Control_c, 0, 64, 57
1, 291376, Control_c, 0, 64, 60
1, 291390, Control_c, 0, 64, 64
1, 291405, Control_c, 0, 64, 67
1, 291420, Control_c, 0, 64, 74
1, 291435, Control_c, 0, 64, 86
1, 291449, Control_c, 0, 64, 113
1, 291464, Control_c, 0, 64, 127
1, 291603, Control_c, 0, 66, 0
1, 291621, Note_off_c, 0, 59, 57
1, 291636, Note_off_c, 0, 71, 62
1, 291785, Note_on_c, 0, 71, 90
1, 291792, Note_on_c, 0, 59, 81
1, 291814, Note_off_c, 0, 59, 71
1, 291819, Note_off_c, 0, 71, 61
1, 291869, Note_on_c, 0, 73, 100
1, 291874, Note_on_c, 0, 61, 83
1, 291886, Control_c, 0, 64, 73
1, 291901, Control_c, 0, 64, 43
1, 291901, Note_off_c, 0, 61, 64
1, 291904, Note_off_c, 0, 35, 60
1, 291911, Note_off_c, 0, 47, 63
1, 291916, Control_c, 0, 64, 0
1, 291927, Note_off_c, 0, 73, 59
1, 291934, Note_off_c, 0, 42, 63
1, 292167, Note_on_c, 0, 75, 89
1, 292169, Note_on_c, 0, 71, 87
1, 292173, Note_on_c, 0, 66, 82
1, 292194, Note_off_c, 0, 66, 70
1, 292194, Note_off_c, 0, 71, 67
1, 292211, Note_off_c, 0, 75, 58
1, 292393, Note_on_c, 0, 45, 81
1, 292397, Note_on_c, 0, 59, 82
1, 292402, Note_on_c, 0, 57, 83
1, 292419, Note_off_c, 0, 59, 71
1, 292425, Note_off_c, 0, 57, 68
1, 292426, Note_off_c, 0, 45, 67
1, 292467, Note_on_c, 0, 71, 94
1, 292467, Note_on_c, 0, 76, 103
1, 292472, Note_on_c, 0, 64, 92
1, 292483, Note_on_c, 0, 56, 99
1, 292485, Note_on_c, 0, 44, 84
1, 292530, Control_c, 0, 64, 57
1, 292537, Note_off_c, 0, 56, 63
1, 292545, Control_c, 0, 64, 65
1, 292560, Control_c, 0, 64, 73
1, 292560, Note_off_c, 0, 44, 63
1, 292574, Control_c, 0, 64, 99
1, 292589, Control_c, 0, 64, 127
1, 292798, Control_c, 0, 64, 93
1, 292807, Note_on_c, 0, 52, 97
1, 292810, Note_on_c, 0, 40, 88
1, 292812, Control_c, 0, 64, 67
1, 292827, Control_c, 0, 64, 52
1, 292833, Note_off_c, 0, 64, 61
1, 292842, Control_c, 0, 64, 44
1, 292844, Note_off_c, 0, 71, 60
1, 292857, Control_c, 0, 64, 51
1, 292864, Note_off_c, 0, 76, 67
1, 292872, Control_c, 0, 64, 60
1, 292886, Control_c, 0, 64, 67
1, 292901, Control_c, 0, 64, 81
1, 292916, Control_c, 0, 64, 127
1, 293006, Note_off_c, 0, 52, 63
1, 293053, Note_on_c, 0, 80, 95
1, 293057, Note_on_c, 0, 68, 96
1, 293063, Note_off_c, 0, 40, 62
1, 293093, Note_off_c, 0, 68, 66
1, 293098, Note_off_c, 0, 80, 62
1, 293149, Note_on_c, 0, 78, 95
1, 293157, Note_on_c, 0, 66, 92
1, 293158, Note_on_c, 0, 75, 90
1, 293159, Note_on_c, 0, 71, 91
1, 293162, Control_c, 0, 64, 96
1, 293164, Note_on_c, 0, 54, 95
1, 293165, Note_on_c, 0, 42, 92
1, 293176, Control_c, 0, 64, 68
1, 293191, Control_c, 0, 64, 32
1, 293206, Control_c, 0, 64, 0
1, 293224, Note_on_c, 0, 41, 10
1, 293244, Note_off_c, 0, 66, 63
1, 293265, Note_off_c, 0, 78, 64
1, 293272, Note_off_c, 0, 71, 65
1, 293272, Note_off_c, 0, 41, 28
1, 293275, Note_off_c, 0, 54, 64
1, 293281, Note_off_c, 0, 75, 66
1, 293296, Note_off_c, 0, 42, 63
1, 293642, Note_on_c, 0, 42, 66
1, 293642, Note_on_c, 0, 54, 66
1, 293646, Note_on_c, 0, 78, 91
1, 293648, Note_on_c, 0, 66, 79
1, 293652, Note_on_c, 0, 70, 85
1, 293654, Note_on_c, 0, 73, 85
1, 293710, Control_c, 0, 64, 45
1, 293725, Control_c, 0, 64, 60
1, 293740, Control_c, 0, 64, 68
1, 293755, Control_c, 0, 64, 78
1, 293766, Note_off_c, 0, 66, 63
1, 293770, Control_c, 0, 64, 105
1, 293778, Note_off_c, 0, 78, 64
1, 293785, Control_c, 0, 64, 127
1, 293803, Note_off_c, 0, 70, 64
1, 293811, Note_off_c, 0, 73, 65
1, 293836, Note_off_c, 0, 42, 59
1, 293839, Note_off_c, 0, 54, 63
1, 293998, Control_c, 0, 64, 98
1, 294013, Control_c, 0, 64, 75
1, 294028, Control_c, 0, 64, 60
1, 294042, Control_c, 0, 64, 34
1, 294057, Control_c, 0, 64, 0
1, 294446, Note_on_c, 0, 54, 41
1, 294554, Control_c, 0, 67, 17
1, 294569, Control_c, 0, 64, 31
1, 294569, Control_c, 0, 67, 24
1, 294584, Control_c, 0, 64, 41
1, 294584, Control_c, 0, 67, 27
1, 294599, Control_c, 0, 64, 46
1, 294599, Control_c, 0, 67, 28
1, 294613, Control_c, 0, 64, 49
1, 294613, Control_c, 0, 67, 29
1, 294628, Control_c, 0, 64, 51
1, 294628, Control_c, 0, 67, 32
1, 294634, Note_on_c, 0, 53, 47
1, 294643, Control_c, 0, 64, 53
1, 294643, Control_c, 0, 67, 39
1, 294658, Control_c, 0, 64, 55
1, 294658, Control_c, 0, 67, 46
1, 294660, Note_on_c, 0, 56, 21
1, 294673, Control_c, 0, 64, 57
1, 294673, Control_c, 0, 67, 50
1, 294688, Control_c, 0, 64, 58
1, 294688, Control_c, 0, 67, 52
1, 294703, Control_c, 0, 64, 59
1, 294703, Control_c, 0, 67, 56
1, 294718, Control_c, 0, 64, 60
1, 294718, Control_c, 0, 67, 62
1, 294733, Control_c, 0, 64, 62
1, 294733, Control_c, 0, 67, 70
1, 294734, Note_on_c, 0, 71, 76
1, 294747, Control_c, 0, 64, 63
1, 294747, Control_c, 0, 67, 72
1, 294759, Note_on_c, 0, 68, 51
1, 294762, Control_c, 0, 64, 64
1, 294771, Note_on_c, 0, 62, 30
1, 294777, Control_c, 0, 64, 66
1, 294777, Control_c, 0, 67, 73
1, 294791, Control_c, 0, 64, 68
1, 294806, Control_c, 0, 64, 72
1, 294806, Control_c, 0, 67, 74
1, 294821, Control_c, 0, 64, 77
1, 294836, Control_c, 0, 64, 83
1, 294836, Control_c, 0, 67, 74
1, 294851, Control_c, 0, 64, 92
1, 294852, Note_off_c, 0, 56, 47
1, 294865, Control_c, 0, 64, 108
1, 294880, Control_c, 0, 64, 127
1, 294925, Control_c, 0, 67, 75
1, 294940, Note_off_c, 0, 68, 58
1, 294970, Note_off_c, 0, 62, 40
1, 294983, Control_c, 0, 67, 76
1, 295055, Note_off_c, 0, 54, 6
1, 295093, Note_off_c, 0, 53, 42
1, 295098, Note_on_c, 0, 52, 45
1, 295102, Note_on_c, 0, 58, 43
1, 295162, Control_c, 0, 64, 96
1, 295172, Note_on_c, 0, 73, 86
1, 295177, Control_c, 0, 64, 76
1, 295192, Control_c, 0, 64, 64
1, 295195, Note_on_c, 0, 67, 46
1, 295196, Note_off_c, 0, 71, 62
1, 295207, Control_c, 0, 64, 52
1, 295207, Control_c, 0, 67, 76
1, 295211, Note_on_c, 0, 64, 38
1, 295222, Control_c, 0, 64, 53
1, 295236, Control_c, 0, 64, 60
1, 295251, Control_c, 0, 64, 65
1, 295251, Control_c, 0, 67, 76
1, 295266, Control_c, 0, 64, 70
1, 295266, Control_c, 0, 67, 74
1, 295281, Control_c, 0, 64, 80
1, 295282, Note_off_c, 0, 58, 59
1, 295303, Control_c, 0, 64, 99
1, 295303, Control_c, 0, 67, 74
1, 295318, Control_c, 0, 64, 127
1, 295379, Note_off_c, 0, 64, 59
1, 295403, Note_off_c, 0, 52, 59
1, 295407, Note_off_c, 0, 67, 38
1, 295415, Note_on_c, 0, 58, 53
1, 295437, Control_c, 0, 67, 74
1, 295444, Note_off_c, 0, 73, 62
1, 295451, Control_c, 0, 67, 75
1, 295466, Control_c, 0, 67, 76
1, 295481, Control_c, 0, 67, 77
1, 295496, Control_c, 0, 67, 77
1, 295511, Control_c, 0, 64, 101
1, 295511, Control_c, 0, 67, 79
1, 295521, Note_on_c, 0, 75, 79
1, 295526, Control_c, 0, 64, 80
1, 295526, Control_c, 0, 67, 83
1, 295536, Note_on_c, 0, 67, 60
1, 295537, Note_on_c, 0, 63, 49
1, 295540, Control_c, 0, 64, 65
1, 295540, Control_c, 0, 67, 93
1, 295542, Note_off_c, 0, 58, 54
1, 295543, Note_on_c, 0, 51, 46
1, 295544, Note_on_c, 0, 70, 54
1, 295555, Control_c, 0, 64, 47
1, 295555, Control_c, 0, 67, 101
1, 295570, Control_c, 0, 64, 0
1, 295570, Control_c, 0, 67, 104
1, 295585, Control_c, 0, 67, 105
1, 295600, Control_c, 0, 64, 36
1, 295614, Control_c, 0, 64, 53
1, 295629, Control_c, 0, 64, 62
1, 295644, Control_c, 0, 64, 66
1, 295659, Control_c, 0, 64, 71
1, 295659, Control_c, 0, 67, 104
1, 295660, Note_off_c, 0, 63, 59
1, 295674, Control_c, 0, 64, 77
1, 295688, Control_c, 0, 64, 85
1, 295688, Control_c, 0, 67, 104
1, 295703, Control_c, 0, 64, 92
1, 295714, Note_off_c, 0, 67, 61
1, 295718, Control_c, 0, 64, 100
1, 295733, Control_c, 0, 64, 107
1, 295748, Control_c, 0, 64, 115
1, 295762, Control_c, 0, 64, 127
1, 295767, Note_off_c, 0, 75, 51
1, 295792, Note_off_c, 0, 70, 59
1, 295792, Control_c, 0, 67, 104
1, 295821, Control_c, 0, 64, 120
1, 295821, Control_c, 0, 67, 105
1, 295838, Control_c, 0, 64, 112
1, 295838, Control_c, 0, 67, 105
1, 295853, Control_c, 0, 64, 104
1, 295858, Note_on_c, 0, 56, 40
1, 295867, Control_c, 0, 64, 98
1, 295870, Note_on_c, 0, 60, 42
1, 295882, Control_c, 0, 64, 87
1, 295882, Control_c, 0, 67, 106
1, 295892, Note_on_c, 0, 75, 76
1, 295897, Control_c, 0, 64, 73
1, 295910, Note_on_c, 0, 68, 52
1, 295911, Control_c, 0, 64, 61
1, 295920, Note_off_c, 0, 51, 39
1, 295926, Control_c, 0, 64, 40
1, 295926, Control_c, 0, 67, 107
1, 295927, Note_on_c, 0, 66, 39
1, 295941, Control_c, 0, 64, 36
1, 295956, Control_c, 0, 64, 50
1, 295971, Control_c, 0, 64, 61
1, 295985, Control_c, 0, 64, 65
1, 295987, Note_off_c, 0, 60, 61
1, 296000, Control_c, 0, 64, 70
1, 296002, Note_off_c, 0, 56, 63
1, 296015, Control_c, 0, 64, 78
1, 296037, Control_c, 0, 64, 88
1, 296052, Control_c, 0, 64, 104
1, 296067, Control_c, 0, 64, 127
1, 296100, Note_off_c, 0, 66, 51
1, 296107, Note_off_c, 0, 75, 61
1, 296114, Note_off_c, 0, 68, 57
1, 296155, Note_on_c, 0, 44, 53
1, 296186, Control_c, 0, 67, 108
1, 296206, Note_off_c, 0, 44, 55
1, 296215, Control_c, 0, 67, 109
1, 296244, Control_c, 0, 67, 109
1, 296348, Control_c, 0, 64, 125
1, 296353, Note_on_c, 0, 61, 50
1, 296363, Note_on_c, 0, 49, 44
1, 296363, Control_c, 0, 64, 104
1, 296378, Control_c, 0, 64, 93
1, 296378, Control_c, 0, 67, 110
1, 296393, Control_c, 0, 64, 82
1, 296393, Control_c, 0, 67, 114
1, 296398, Note_on_c, 0, 78, 69
1, 296408, Control_c, 0, 64, 69
1, 296408, Control_c, 0, 67, 125
1, 296417, Note_on_c, 0, 73, 50
1, 296423, Control_c, 0, 64, 58
1, 296423, Control_c, 0, 67, 127
1, 296431, Note_on_c, 0, 66, 40
1, 296431, Note_on_c, 0, 68, 41
1, 296437, Control_c, 0, 64, 34
1, 296452, Control_c, 0, 64, 31
1, 296467, Control_c, 0, 64, 43
1, 296482, Control_c, 0, 64, 56
1, 296497, Control_c, 0, 64, 62
1, 296511, Control_c, 0, 64, 67
1, 296526, Control_c, 0, 64, 73
1, 296531, Note_off_c, 0, 78, 65
1, 296535, Note_off_c, 0, 66, 62
1, 296541, Control_c, 0, 64, 86
1, 296556, Control_c, 0, 64, 105
1, 296571, Control_c, 0, 64, 127
1, 296596, Note_off_c, 0, 61, 56
1, 296608, Note_on_c, 0, 76, 77
1, 296619, Note_on_c, 0, 64, 58
1, 296649, Note_off_c, 0, 73, 52
1, 296660, Note_off_c, 0, 64, 62
1, 296682, Note_off_c, 0, 68, 47
1, 296748, Note_on_c, 0, 51, 48
1, 296757, Note_on_c, 0, 75, 82
1, 296765, Note_off_c, 0, 49, 37
1, 296773, Note_on_c, 0, 63, 63
1, 296803, Note_off_c, 0, 76, 60
1, 296817, Note_off_c, 0, 63, 60
1, 296904, Note_on_c, 0, 73, 83
1, 296908, Note_on_c, 0, 52, 50
1, 296915, Note_off_c, 0, 51, 35
1, 296919, Note_on_c, 0, 61, 69
1, 296921, Note_off_c, 0, 75, 32
1, 296974, Note_off_c, 0, 52, 49
1, 296974, Note_off_c, 0, 61, 57
1, 297004, Note_off_c, 0, 73, 61
1, 297068, Control_c, 0, 64, 112
1, 297077, Note_on_c, 0, 54, 53
1, 297077, Note_on_c, 0, 71, 76
1, 297083, Control_c, 0, 64, 84
1, 297096, Note_on_c, 0, 63, 46
1, 297098, Control_c, 0, 64, 64
1, 297113, Control_c, 0, 64, 36
1, 297117, Note_on_c, 0, 66, 37
1, 297128, Control_c, 0, 64, 0
1, 297157, Control_c, 0, 64, 22
1, 297172, Control_c, 0, 64, 48
1, 297187, Control_c, 0, 64, 61
1, 297202, Control_c, 0, 64, 66
1, 297216, Control_c, 0, 64, 71
1, 297231, Control_c, 0, 64, 80
1, 297246, Control_c, 0, 64, 92
1, 297260, Control_c, 0, 64, 113
1, 297263, Note_off_c, 0, 54, 59
1, 297267, Note_off_c, 0, 63, 60
1, 297275, Control_c, 0, 64, 127
1, 297294, Note_off_c, 0, 66, 60
1, 297380, Control_c, 0, 64, 125
1, 297395, Control_c, 0, 64, 108
1, 297409, Control_c, 0, 64, 97
1, 297422, Note_on_c, 0, 54, 54
1, 297424, Control_c, 0, 64, 84
1, 297425, Note_on_c, 0, 70, 75
1, 297430, Note_on_c, 0, 66, 56
1, 297439, Control_c, 0, 64, 70
1, 297444, Note_on_c, 0, 61, 49
1, 297451, Note_off_c, 0, 71, 59
1, 297454, Control_c, 0, 64, 60
1, 297467, Note_off_c, 0, 54, 63
1, 297469, Control_c, 0, 64, 53
1, 297484, Control_c, 0, 64, 58
1, 297499, Control_c, 0, 64, 63
1, 297514, Control_c, 0, 64, 68
1, 297536, Control_c, 0, 64, 74
1, 297551, Control_c, 0, 64, 85
1, 297565, Control_c, 0, 64, 108
1, 297580, Control_c, 0, 64, 127
1, 297687, Note_on_c, 0, 54, 43
1, 297702, Note_off_c, 0, 61, 33
1, 297743, Control_c, 0, 64, 116
1, 297745, Note_off_c, 0, 54, 55
1, 297756, Note_off_c, 0, 66, 50
1, 297757, Note_on_c, 0, 53, 48
1, 297758, Control_c, 0, 64, 98
1, 297773, Control_c, 0, 64, 84
1, 297774, Note_on_c, 0, 71, 71
1, 297788, Control_c, 0, 64, 70
1, 297789, Note_on_c, 0, 68, 56
1, 297791, Note_on_c, 0, 56, 43
1, 297797, Note_on_c, 0, 62, 47
1, 297800, Note_off_c, 0, 70, 53
1, 297803, Control_c, 0, 64, 58
1, 297818, Control_c, 0, 64, 0
1, 297891, Control_c, 0, 64, 42
1, 297906, Control_c, 0, 64, 58
1, 297921, Control_c, 0, 64, 64
1, 297922, Note_off_c, 0, 56, 60
1, 297936, Control_c, 0, 64, 70
1, 297951, Control_c, 0, 64, 80
1, 297965, Control_c, 0, 64, 99
1, 297980, Note_off_c, 0, 68, 58
1, 297980, Control_c, 0, 64, 127
1, 297981, Note_off_c, 0, 62, 54
1, 298131, Note_on_c, 0, 52, 44
1, 298133, Note_on_c, 0, 58, 41
1, 298134, Note_off_c, 0, 53, 33
1, 298149, Note_on_c, 0, 73, 71
1, 298158, Control_c, 0, 64, 100
1, 298170, Note_on_c, 0, 67, 43
1, 298171, Note_on_c, 0, 64, 47
1, 298173, Control_c, 0, 64, 76
1, 298181, Note_off_c, 0, 71, 56
1, 298187, Control_c, 0, 64, 63
1, 298202, Control_c, 0, 64, 46
1, 298217, Control_c, 0, 64, 45
1, 298233, Control_c, 0, 64, 53
1, 298248, Control_c, 0, 64, 60
1, 298257, Note_off_c, 0, 58, 57
1, 298262, Control_c, 0, 64, 65
1, 298277, Control_c, 0, 64, 70
1, 298299, Control_c, 0, 64, 79
1, 298313, Control_c, 0, 64, 99
1, 298328, Control_c, 0, 64, 127
1, 298348, Note_off_c, 0, 52, 43
1, 298352, Note_off_c, 0, 64, 53
1, 298391, Note_off_c, 0, 67, 41
1, 298405, Note_on_c, 0, 58, 52
1, 298420, Note_off_c, 0, 73, 58
1, 298492, Control_c, 0, 64, 117
1, 298506, Control_c, 0, 64, 100
1, 298521, Control_c, 0, 64, 90
1, 298528, Note_on_c, 0, 75, 62
1, 298533, Note_on_c, 0, 63, 44
1, 298536, Note_off_c, 0, 58, 0
1, 298536, Control_c, 0, 64, 80
1, 298538, Note_on_c, 0, 67, 46
1, 298538, Note_on_c, 0, 70, 51
1, 298543, Note_on_c, 0, 51, 39
1, 298551, Control_c, 0, 64, 68
1, 298566, Control_c, 0, 64, 57
1, 298575, Poly_aftertouch_c, 0, 58, 0
1, 298580, Control_c, 0, 64, 26
1, 298595, Control_c, 0, 64, 15
1, 298610, Control_c, 0, 64, 30
1, 298625, Control_c, 0, 64, 48
1, 298640, Control_c, 0, 64, 59
1, 298654, Control_c, 0, 64, 65
1, 298669, Control_c, 0, 64, 70
1, 298684, Control_c, 0, 64, 80
1, 298691, Note_off_c, 0, 63, 58
1, 298699, Control_c, 0, 64, 95
1, 298713, Control_c, 0, 64, 127
1, 298727, Note_off_c, 0, 67, 57
1, 298742, Note_off_c, 0, 75, 56
1, 298797, Note_off_c, 0, 70, 52
1, 298912, Note_off_c, 0, 51, 39
1, 298921, Note_on_c, 0, 75, 61
1, 298922, Note_on_c, 0, 56, 38
1, 298933, Note_on_c, 0, 60, 44
1, 298936, Control_c, 0, 64, 107
1, 298939, Note_on_c, 0, 66, 37
1, 298939, Note_on_c, 0, 68, 49
1, 298951, Control_c, 0, 64, 77
1, 298965, Control_c, 0, 64, 64
1, 298980, Control_c, 0, 64, 56
1, 298995, Control_c, 0, 64, 58
1, 299010, Control_c, 0, 64, 63
1, 299025, Control_c, 0, 64, 66
1, 299043, Note_off_c, 0, 60, 61
1, 299048, Control_c, 0, 64, 73
1, 299058, Note_off_c, 0, 56, 54
1, 299063, Control_c, 0, 64, 82
1, 299078, Control_c, 0, 64, 95
1, 299092, Control_c, 0, 64, 114
1, 299107, Control_c, 0, 64, 127
1, 299129, Note_off_c, 0, 75, 62
1, 299156, Note_off_c, 0, 68, 53
1, 299162, Note_off_c, 0, 66, 39
1, 299219, Note_on_c, 0, 44, 50
1, 299273, Note_off_c, 0, 44, 55
1, 299457, Note_on_c, 0, 61, 37
1, 299469, Note_on_c, 0, 49, 30
1, 299503, Note_on_c, 0, 78, 49
1, 299507, Control_c, 0, 64, 110
1, 299521, Note_on_c, 0, 68, 38
1, 299522, Note_on_c, 0, 73, 45
1, 299522, Control_c, 0, 64, 90
1, 299536, Control_c, 0, 64, 73
1, 299550, Note_on_c, 0, 66, 19
1, 299551, Control_c, 0, 64, 62
1, 299566, Control_c, 0, 64, 45
1, 299581, Control_c, 0, 64, 40
1, 299596, Control_c, 0, 64, 49
1, 299610, Control_c, 0, 64, 59
1, 299625, Control_c, 0, 64, 64
1, 299640, Control_c, 0, 64, 69
1, 299654, Control_c, 0, 64, 77
1, 299655, Note_off_c, 0, 66, 53
1, 299663, Note_off_c, 0, 78, 65
1, 299669, Control_c, 0, 64, 88
1, 299684, Control_c, 0, 64, 104
1, 299699, Control_c, 0, 64, 127
1, 299748, Note_on_c, 0, 64, 47
1, 299749, Note_on_c, 0, 76, 61
1, 299752, Note_off_c, 0, 61, 47
1, 299801, Note_off_c, 0, 64, 60
1, 299804, Note_off_c, 0, 73, 56
1, 299887, Note_off_c, 0, 68, 37
1, 299910, Note_on_c, 0, 75, 70
1, 299923, Note_on_c, 0, 63, 55
1, 299927, Note_on_c, 0, 51, 43
1, 299961, Note_off_c, 0, 63, 56
1, 299965, Note_off_c, 0, 49, 36
1, 299995, Note_off_c, 0, 76, 37
1, 300054, Note_on_c, 0, 73, 77
1, 300073, Note_on_c, 0, 61, 58
1, 300089, Note_on_c, 0, 52, 37
1, 300095, Note_off_c, 0, 75, 50
1, 300107, Note_off_c, 0, 51, 32
1, 300134, Note_off_c, 0, 61, 59
1, 300175, Note_off_c, 0, 73, 60
1, 300211, Control_c, 0, 64, 116
1, 300220, Note_off_c, 0, 52, 30
1, 300226, Control_c, 0, 64, 95
1, 300238, Note_on_c, 0, 71, 69
1, 300241, Control_c, 0, 64, 78
1, 300250, Note_on_c, 0, 54, 39
1, 300253, Note_on_c, 0, 63, 45
1, 300256, Control_c, 0, 64, 64
1, 300262, Note_on_c, 0, 66, 48
1, 300271, Control_c, 0, 64, 41
1, 300285, Control_c, 0, 64, 0
1, 300330, Control_c, 0, 64, 32
1, 300345, Control_c, 0, 64, 54
1, 300359, Control_c, 0, 64, 62
1, 300374, Control_c, 0, 64, 66
1, 300389, Control_c, 0, 64, 71
1, 300404, Control_c, 0, 64, 78
1, 300419, Control_c, 0, 64, 87
1, 300421, Note_off_c, 0, 63, 57
1, 300429, Note_off_c, 0, 54, 54
1, 300433, Control_c, 0, 64, 101
1, 300433, Control_c, 0, 67, 127
1, 300447, Note_off_c, 0, 66, 58
1, 300448, Control_c, 0, 64, 127
1, 300607, Note_on_c, 0, 70, 68
1, 300620, Note_on_c, 0, 54, 47
1, 300629, Note_on_c, 0, 66, 55
1, 300637, Note_on_c, 0, 61, 46
1, 300656, Note_off_c, 0, 71, 57
1, 300699, Note_off_c, 0, 54, 56
1, 300781, Note_off_c, 0, 66, 57
1, 300830, Note_off_c, 0, 61, 40
1, 300855, Note_off_c, 0, 70, 39
1, 300923, Note_on_c, 0, 54, 36
1, 300997, Note_off_c, 0, 54, 50
1, 301050, Control_c, 0, 64, 111
1, 301058, Note_on_c, 0, 71, 62
1, 301060, Note_on_c, 0, 59, 39
1, 301064, Control_c, 0, 64, 96
1, 301071, Note_on_c, 0, 66, 46
1, 301073, Note_on_c, 0, 63, 45
1, 301079, Control_c, 0, 64, 86
1, 301088, Note_on_c, 0, 47, 28
1, 301094, Control_c, 0, 64, 78
1, 301109, Control_c, 0, 64, 72
1, 301124, Control_c, 0, 64, 67
1, 301139, Control_c, 0, 64, 60
1, 301139, Control_c, 0, 67, 127
1, 301153, Control_c, 0, 64, 37
1, 301168, Control_c, 0, 64, 0
1, 301227, Control_c, 0, 64, 34
1, 301242, Control_c, 0, 64, 54
1, 301257, Control_c, 0, 64, 62
1, 301272, Control_c, 0, 64, 65
1, 301294, Control_c, 0, 64, 70
1, 301308, Control_c, 0, 64, 77
1, 301322, Note_off_c, 0, 63, 35
1, 301323, Control_c, 0, 64, 88
1, 301338, Control_c, 0, 64, 105
1, 301353, Control_c, 0, 64, 127
1, 301363, Note_off_c, 0, 59, 59
1, 301416, Note_off_c, 0, 66, 60
1, 301424, Note_on_c, 0, 68, 71
1, 301428, Note_off_c, 0, 47, 38
1, 301443, Note_on_c, 0, 64, 53
1, 301445, Note_on_c, 0, 59, 43
1, 301478, Note_off_c, 0, 71, 52
1, 301634, Note_off_c, 0, 59, 58
1, 301648, Note_off_c, 0, 64, 59
1, 301668, Note_on_c, 0, 52, 45
1, 301680, Control_c, 0, 64, 125
1, 301695, Control_c, 0, 64, 101
1, 301710, Control_c, 0, 64, 89
1, 301717, Note_off_c, 0, 52, 53
1, 301725, Control_c, 0, 64, 79
1, 301739, Control_c, 0, 64, 70
1, 301741, Note_on_c, 0, 66, 69
1, 301754, Control_c, 0, 64, 57
1, 301759, Note_on_c, 0, 63, 55
1, 301765, Note_on_c, 0, 47, 42
1, 301768, Note_on_c, 0, 59, 42
1, 301769, Control_c, 0, 64, 0
1, 301828, Control_c, 0, 64, 29
1, 301843, Control_c, 0, 64, 55
1, 301849, Note_off_c, 0, 68, 49
1, 301857, Control_c, 0, 64, 64
1, 301872, Control_c, 0, 64, 69
1, 301882, Note_off_c, 0, 63, 63
1, 301883, Note_off_c, 0, 66, 64
1, 301887, Control_c, 0, 64, 77
1, 301890, Note_off_c, 0, 59, 60
1, 301902, Control_c, 0, 64, 88
1, 301902, Control_c, 0, 67, 127
1, 301917, Control_c, 0, 64, 103
1, 301931, Control_c, 0, 64, 127
1, 301981, Note_off_c, 0, 47, 62
1, 302021, Control_c, 0, 67, 127
1, 302056, Control_c, 0, 64, 120
1, 302058, Note_on_c, 0, 64, 72
1, 302071, Control_c, 0, 64, 116
1, 302081, Note_on_c, 0, 56, 53
1, 302086, Control_c, 0, 64, 113
1, 302089, Note_on_c, 0, 59, 37
1, 302101, Control_c, 0, 64, 111
1, 302116, Control_c, 0, 64, 109
1, 302130, Control_c, 0, 64, 108
1, 302145, Control_c, 0, 64, 106
1, 302160, Control_c, 0, 64, 105
1, 302175, Control_c, 0, 64, 103
1, 302190, Control_c, 0, 64, 101
1, 302204, Control_c, 0, 64, 99
1, 302219, Control_c, 0, 64, 96
1, 302235, Control_c, 0, 64, 94
1, 302242, Note_off_c, 0, 56, 61
1, 302250, Control_c, 0, 64, 91
1, 302265, Control_c, 0, 64, 87
1, 302279, Control_c, 0, 64, 84
1, 302281, Note_on_c, 0, 47, 46
1, 302294, Control_c, 0, 64, 82
1, 302298, Note_off_c, 0, 59, 37
1, 302309, Control_c, 0, 64, 79
1, 302324, Control_c, 0, 64, 77
1, 302339, Control_c, 0, 64, 74
1, 302353, Control_c, 0, 64, 69
1, 302368, Control_c, 0, 64, 61
1, 302381, Note_on_c, 0, 63, 67
1, 302383, Control_c, 0, 64, 45
1, 302393, Note_on_c, 0, 59, 58
1, 302398, Control_c, 0, 64, 0
1, 302410, Note_on_c, 0, 54, 37
1, 302410, Note_off_c, 0, 64, 62
1, 302427, Control_c, 0, 64, 19
1, 302442, Control_c, 0, 64, 41
1, 302457, Control_c, 0, 64, 55
1, 302471, Control_c, 0, 64, 62
1, 302486, Control_c, 0, 64, 66
1, 302501, Control_c, 0, 64, 70
1, 302516, Control_c, 0, 64, 76
1, 302531, Control_c, 0, 64, 83
1, 302546, Control_c, 0, 64, 92
1, 302552, Note_off_c, 0, 59, 63
1, 302558, Note_off_c, 0, 63, 62
1, 302560, Control_c, 0, 64, 101
1, 302572, Note_off_c, 0, 54, 57
1, 302575, Control_c, 0, 64, 105
1, 302650, Control_c, 0, 64, 104
1, 302661, Note_off_c, 0, 47, 49
1, 302665, Control_c, 0, 64, 103
1, 302679, Control_c, 0, 64, 102
1, 302694, Control_c, 0, 64, 100
1, 302709, Note_on_c, 0, 59, 72
1, 302709, Control_c, 0, 64, 99
1, 302724, Control_c, 0, 64, 97
1, 302727, Note_on_c, 0, 56, 50
1, 302739, Control_c, 0, 64, 95
1, 302742, Note_on_c, 0, 52, 44
1, 302753, Control_c, 0, 64, 93
1, 302768, Control_c, 0, 64, 91
1, 302790, Control_c, 0, 64, 91
1, 302939, Control_c, 0, 64, 90
1, 302942, Note_off_c, 0, 59, 57
1, 302953, Control_c, 0, 64, 89
1, 302966, Note_off_c, 0, 56, 62
1, 302968, Control_c, 0, 64, 87
1, 302972, Note_on_c, 0, 47, 40
1, 302983, Control_c, 0, 64, 85
1, 302998, Control_c, 0, 64, 83
1, 303013, Control_c, 0, 64, 80
1, 303028, Control_c, 0, 64, 78
1, 303043, Control_c, 0, 64, 76
1, 303058, Control_c, 0, 64, 74
1, 303073, Control_c, 0, 64, 70
1, 303079, Note_on_c, 0, 59, 56
1, 303088, Control_c, 0, 64, 64
1, 303091, Note_off_c, 0, 52, 57
1, 303097, Note_on_c, 0, 51, 48
1, 303097, Note_on_c, 0, 54, 47
1, 303102, Control_c, 0, 64, 55
1, 303117, Control_c, 0, 64, 28
1, 303132, Control_c, 0, 64, 0
1, 303206, Control_c, 0, 64, 44
1, 303221, Control_c, 0, 64, 58
1, 303236, Control_c, 0, 64, 64
1, 303250, Control_c, 0, 64, 68
1, 303265, Control_c, 0, 64, 73
1, 303280, Control_c, 0, 64, 79
1, 303294, Control_c, 0, 64, 85
1, 303309, Control_c, 0, 64, 90
1, 303315, Note_off_c, 0, 47, 41
1, 303316, Note_off_c, 0, 51, 37
1, 303324, Control_c, 0, 64, 90
1, 303339, Control_c, 0, 64, 90
1, 303354, Control_c, 0, 64, 89
1, 303368, Control_c, 0, 64, 89
1, 303383, Control_c, 0, 64, 86
1, 303398, Control_c, 0, 64, 84
1, 303413, Control_c, 0, 64, 81
1, 303428, Control_c, 0, 64, 80
1, 303443, Control_c, 0, 64, 79
1, 303458, Control_c, 0, 64, 78
1, 303467, Note_off_c, 0, 54, 61
1, 303473, Control_c, 0, 64, 77
1, 303478, Note_on_c, 0, 56, 64
1, 303487, Control_c, 0, 64, 73
1, 303490, Note_on_c, 0, 52, 47
1, 303502, Control_c, 0, 64, 67
1, 303509, Note_on_c, 0, 47, 36
1, 303524, Control_c, 0, 64, 59
1, 303528, Note_off_c, 0, 59, 42
1, 303539, Control_c, 0, 64, 53
1, 303554, Control_c, 0, 64, 55
1, 303569, Control_c, 0, 64, 60
1, 303583, Control_c, 0, 64, 64
1, 303598, Control_c, 0, 64, 67
1, 303613, Control_c, 0, 64, 73
1, 303628, Control_c, 0, 64, 80
1, 303643, Control_c, 0, 64, 86
1, 303657, Control_c, 0, 64, 91
1, 303672, Control_c, 0, 64, 93
1, 303687, Control_c, 0, 64, 94
1, 303702, Control_c, 0, 64, 94
1, 303717, Control_c, 0, 64, 96
1, 303732, Control_c, 0, 64, 100
1, 303747, Control_c, 0, 64, 108
1, 303762, Control_c, 0, 64, 127
1, 303797, Note_on_c, 0, 40, 39
1, 303804, Note_off_c, 0, 47, 35
1, 303809, Note_off_c, 0, 52, 48
1, 304010, Note_off_c, 0, 56, 38
1, 304017, Note_on_c, 0, 54, 57
1, 304029, Control_c, 0, 64, 108
1, 304033, Note_on_c, 0, 51, 52
1, 304036, Note_on_c, 0, 35, 31
1, 304044, Control_c, 0, 64, 94
1, 304050, Note_on_c, 0, 47, 28
1, 304059, Control_c, 0, 64, 84
1, 304073, Control_c, 0, 64, 74
1, 304088, Control_c, 0, 64, 68
1, 304103, Control_c, 0, 64, 63
1, 304117, Control_c, 0, 64, 58
1, 304132, Note_off_c, 0, 40, 39
1, 304132, Control_c, 0, 64, 48
1, 304147, Control_c, 0, 64, 11
1, 304162, Control_c, 0, 64, 0
1, 304251, Control_c, 0, 64, 39
1, 304273, Control_c, 0, 64, 58
1, 304288, Control_c, 0, 64, 63
1, 304303, Control_c, 0, 64, 66
1, 304318, Control_c, 0, 64, 70
1, 304332, Control_c, 0, 64, 77
1, 304347, Control_c, 0, 64, 87
1, 304362, Control_c, 0, 64, 119
1, 304377, Control_c, 0, 64, 127
1, 304547, Note_off_c, 0, 35, 39
1, 304602, Note_off_c, 0, 47, 35
1, 304611, Note_off_c, 0, 51, 35
1, 304617, Note_off_c, 0, 54, 37
1, 304934, Note_on_c, 0, 54, 50
1, 304939, Note_on_c, 0, 51, 40
1, 304945, Note_on_c, 0, 42, 24
1, 304954, Note_on_c, 0, 35, 19
1, 304990, Note_on_c, 0, 47, 6
1, 305157, Note_off_c, 0, 35, 37
1, 305169, Note_off_c, 0, 42, 40
1, 305171, Note_off_c, 0, 54, 48
1, 305199, Note_off_c, 0, 47, 33
1, 305210, Note_off_c, 0, 51, 31
1, 305354, Note_on_c, 0, 54, 56
1, 305374, Note_on_c, 0, 51, 45
1, 305380, Note_on_c, 0, 35, 21
1, 305392, Note_on_c, 0, 42, 6
1, 305394, Note_on_c, 0, 47, 8
1, 305574, Note_off_c, 0, 54, 51
1, 305583, Note_off_c, 0, 42, 42
1, 305590, Note_off_c, 0, 35, 37
1, 305596, Note_off_c, 0, 47, 35
1, 305610, Note_off_c, 0, 51, 31
1, 305854, Note_on_c, 0, 54, 40
1, 305867, Note_on_c, 0, 35, 23
1, 305875, Note_on_c, 0, 47, 14
1, 305881, Note_on_c, 0, 51, 37
1, 305884, Note_on_c, 0, 42, 18
1, 305919, Control_c, 0, 64, 112
1, 305934, Control_c, 0, 64, 100
1, 305949, Control_c, 0, 64, 92
1, 305964, Control_c, 0, 64, 82
1, 305978, Control_c, 0, 64, 72
1, 305993, Control_c, 0, 64, 64
1, 306008, Control_c, 0, 64, 60
1, 306023, Control_c, 0, 64, 61
1, 306038, Control_c, 0, 64, 64
1, 306052, Control_c, 0, 64, 67
1, 306067, Control_c, 0, 64, 72
1, 306082, Control_c, 0, 64, 80
1, 306096, Control_c, 0, 64, 91
1, 306111, Control_c, 0, 64, 109
1, 306126, Control_c, 0, 64, 127
1, 306378, Note_off_c, 0, 35, 38
1, 306388, Note_off_c, 0, 42, 41
1, 306388, Note_off_c, 0, 47, 37
1, 306424, Note_off_c, 0, 51, 37
1, 306426, Note_off_c, 0, 54, 41
1, 306890, Note_on_c, 0, 51, 36
1, 306895, Note_on_c, 0, 54, 45
1, 306908, Note_on_c, 0, 35, 18
1, 306913, Note_on_c, 0, 42, 18
1, 306921, Note_on_c, 0, 47, 12
1, 307175, Note_off_c, 0, 35, 38
1, 307177, Note_off_c, 0, 42, 41
1, 307206, Note_off_c, 0, 54, 36
1, 307225, Note_off_c, 0, 51, 36
1, 307237, Note_off_c, 0, 47, 28
1, 307567, Note_on_c, 0, 35, 20
1, 307570, Note_on_c, 0, 42, 18
1, 307570, Note_on_c, 0, 54, 36
1, 307571, Note_on_c, 0, 47, 27
1, 307581, Note_on_c, 0, 51, 22
1, 307914, Note_off_c, 0, 35, 32
1, 308022, Note_off_c, 0, 47, 32
1, 308067, Note_off_c, 0, 42, 32
1, 308071, Note_off_c, 0, 51, 28
1, 308088, Note_off_c, 0, 54, 30
1, 309164, Note_on_c, 0, 42, 31
1, 309166, Note_on_c, 0, 33, 38
1, 309181, Note_on_c, 0, 48, 28
1, 309184, Note_on_c, 0, 54, 51
1, 309193, Note_on_c, 0, 51, 37
1, 309256, Control_c, 0, 64, 103
1, 309270, Control_c, 0, 64, 91
1, 309285, Control_c, 0, 64, 82
1, 309300, Control_c, 0, 64, 76
1, 309314, Control_c, 0, 64, 70
1, 309329, Control_c, 0, 64, 63
1, 309344, Control_c, 0, 64, 50
1, 309359, Control_c, 0, 64, 16
1, 309374, Control_c, 0, 64, 0
1, 309403, Control_c, 0, 64, 24
1, 309419, Control_c, 0, 64, 45
1, 309434, Control_c, 0, 64, 58
1, 309449, Control_c, 0, 64, 64
1, 309464, Control_c, 0, 64, 67
1, 309479, Control_c, 0, 64, 73
1, 309493, Control_c, 0, 64, 81
1, 309508, Control_c, 0, 64, 96
1, 309530, Control_c, 0, 64, 127
1, 309619, Note_off_c, 0, 48, 48
1, 309718, Note_off_c, 0, 51, 63
1, 309771, Note_off_c, 0, 54, 65
1, 309928, Note_off_c, 0, 33, 39
1, 309973, Note_off_c, 0, 42, 41
1, 310080, Note_on_c, 0, 66, 56
1, 310391, Note_off_c, 0, 66, 60
1, 310460, Note_on_c, 0, 66, 64
1, 310584, Note_off_c, 0, 66, 63
1, 310648, Note_on_c, 0, 66, 67
1, 310712, Note_off_c, 0, 66, 62
1, 310784, Note_on_c, 0, 68, 66
1, 310820, Note_on_c, 0, 66, 73
1, 310841, Note_off_c, 0, 68, 42
1, 310996, Note_on_c, 0, 65, 71
1, 311005, Control_c, 0, 64, 109
1, 311028, Control_c, 0, 64, 95
1, 311031, Note_off_c, 0, 66, 57
1, 311043, Control_c, 0, 64, 87
1, 311058, Control_c, 0, 64, 84
1, 311072, Control_c, 0, 64, 84
1, 311087, Control_c, 0, 64, 86
1, 311102, Control_c, 0, 64, 90
1, 311117, Control_c, 0, 64, 95
1, 311132, Control_c, 0, 64, 102
1, 311146, Control_c, 0, 64, 109
1, 311147, Note_on_c, 0, 66, 79
1, 311161, Control_c, 0, 64, 110
1, 311176, Control_c, 0, 64, 108
1, 311190, Control_c, 0, 64, 107
1, 311208, Note_off_c, 0, 65, 53
1, 311250, Control_c, 0, 64, 106
1, 311265, Control_c, 0, 64, 105
1, 311280, Control_c, 0, 64, 104
1, 311281, Note_on_c, 0, 75, 79
1, 311308, Note_off_c, 0, 66, 61
1, 311309, Control_c, 0, 64, 104
1, 311324, Control_c, 0, 64, 103
1, 311339, Control_c, 0, 64, 101
1, 311354, Control_c, 0, 64, 98
1, 311369, Control_c, 0, 64, 95
1, 311384, Control_c, 0, 64, 92
1, 311398, Control_c, 0, 64, 88
1, 311413, Control_c, 0, 64, 85
1, 311428, Control_c, 0, 64, 83
1, 311443, Control_c, 0, 64, 82
1, 311447, Note_on_c, 0, 32, 45
1, 311457, Control_c, 0, 64, 82
1, 311472, Control_c, 0, 64, 78
1, 311487, Control_c, 0, 64, 69
1, 311502, Control_c, 0, 64, 56
1, 311517, Control_c, 0, 64, 0
1, 311575, Note_on_c, 0, 73, 75
1, 311605, Control_c, 0, 64, 53
1, 311609, Note_off_c, 0, 75, 62
1, 311620, Control_c, 0, 64, 69
1, 311635, Control_c, 0, 64, 79
1, 311650, Control_c, 0, 64, 90
1, 311664, Control_c, 0, 64, 99
1, 311679, Note_off_c, 0, 32, 61
1, 311679, Control_c, 0, 64, 127
1, 311868, Note_on_c, 0, 54, 55
1, 311903, Note_off_c, 0, 54, 66
1, 311985, Note_on_c, 0, 54, 67
1, 312030, Note_off_c, 0, 54, 64
1, 312127, Note_on_c, 0, 54, 65
1, 312162, Note_off_c, 0, 54, 58
1, 312251, Note_on_c, 0, 56, 50
1, 312281, Control_c, 0, 64, 107
1, 312296, Control_c, 0, 64, 99
1, 312311, Control_c, 0, 64, 96
1, 312315, Note_on_c, 0, 72, 57
1, 312316, Note_on_c, 0, 54, 52
1, 312319, Note_on_c, 0, 60, 49
1, 312320, Note_off_c, 0, 56, 54
1, 312326, Control_c, 0, 64, 88
1, 312331, Note_on_c, 0, 66, 42
1, 312340, Control_c, 0, 64, 72
1, 312355, Control_c, 0, 64, 54
1, 312370, Control_c, 0, 64, 34
1, 312374, Note_off_c, 0, 73, 55
1, 312385, Control_c, 0, 64, 46
1, 312400, Control_c, 0, 64, 59
1, 312414, Control_c, 0, 64, 64
1, 312429, Control_c, 0, 64, 69
1, 312444, Control_c, 0, 64, 76
1, 312459, Control_c, 0, 64, 92
1, 312474, Control_c, 0, 64, 127
1, 312488, Note_on_c, 0, 53, 62
1, 312499, Note_off_c, 0, 60, 60
1, 312500, Note_off_c, 0, 66, 61
1, 312505, Note_off_c, 0, 54, 59
1, 312600, Note_on_c, 0, 60, 47
1, 312605, Note_on_c, 0, 66, 39
1, 312632, Note_on_c, 0, 54, 72
1, 312650, Note_off_c, 0, 53, 60
1, 312758, Note_on_c, 0, 63, 75
1, 312770, Note_off_c, 0, 60, 33
1, 312779, Note_off_c, 0, 54, 64
1, 312871, Note_off_c, 0, 63, 61
1, 312969, Control_c, 0, 64, 105
1, 312979, Note_off_c, 0, 66, 41
1, 312982, Note_on_c, 0, 61, 62
1, 312984, Control_c, 0, 64, 94
1, 312999, Control_c, 0, 64, 88
1, 313003, Note_on_c, 0, 54, 55
1, 313012, Note_on_c, 0, 51, 54
1, 313014, Control_c, 0, 64, 83
1, 313029, Control_c, 0, 64, 80
1, 313043, Control_c, 0, 64, 74
1, 313058, Control_c, 0, 64, 65
1, 313073, Control_c, 0, 64, 47
1, 313088, Control_c, 0, 64, 0
1, 313147, Control_c, 0, 64, 25
1, 313161, Control_c, 0, 64, 47
1, 313176, Control_c, 0, 64, 57
1, 313191, Control_c, 0, 64, 62
1, 313200, Note_on_c, 0, 69, 84
1, 313206, Control_c, 0, 64, 64
1, 313221, Control_c, 0, 64, 67
1, 313235, Control_c, 0, 64, 71
1, 313250, Control_c, 0, 64, 76
1, 313273, Control_c, 0, 64, 82
1, 313288, Control_c, 0, 64, 90
1, 313303, Control_c, 0, 64, 104
1, 313306, Note_off_c, 0, 69, 65
1, 313317, Control_c, 0, 64, 127
1, 313368, Note_on_c, 0, 69, 91
1, 313432, Note_off_c, 0, 69, 65
1, 313505, Note_off_c, 0, 51, 51
1, 313510, Note_on_c, 0, 69, 88
1, 313531, Note_off_c, 0, 54, 42
1, 313536, Note_off_c, 0, 72, 61
1, 313561, Note_off_c, 0, 61, 57
1, 313602, Note_off_c, 0, 69, 61
1, 313684, Note_on_c, 0, 51, 38
1, 313685, Note_on_c, 0, 54, 40
1, 313688, Control_c, 0, 64, 115
1, 313690, Note_on_c, 0, 60, 42
1, 313703, Control_c, 0, 64, 103
1, 313715, Note_on_c, 0, 71, 74
1, 313718, Control_c, 0, 64, 95
1, 313733, Control_c, 0, 64, 84
1, 313748, Control_c, 0, 64, 70
1, 313763, Control_c, 0, 64, 53
1, 313764, Note_on_c, 0, 69, 65
1, 313778, Control_c, 0, 64, 21
1, 313792, Control_c, 0, 64, 23
1, 313807, Control_c, 0, 64, 41
1, 313822, Control_c, 0, 64, 55
1, 313837, Control_c, 0, 64, 63
1, 313852, Control_c, 0, 64, 69
1, 313854, Note_off_c, 0, 71, 29
1, 313867, Control_c, 0, 64, 77
1, 313882, Control_c, 0, 64, 91
1, 313897, Control_c, 0, 64, 127
1, 313919, Note_off_c, 0, 51, 49
1, 313921, Note_off_c, 0, 60, 59
1, 313927, Note_off_c, 0, 69, 59
1, 313949, Note_on_c, 0, 68, 72
1, 313953, Note_off_c, 0, 54, 43
1, 314099, Note_on_c, 0, 69, 55
1, 314108, Note_off_c, 0, 68, 58
1, 314119, Note_on_c, 0, 51, 38
1, 314123, Note_on_c, 0, 54, 40
1, 314125, Note_on_c, 0, 60, 36
1, 314218, Note_off_c, 0, 60, 54
1, 314242, Note_off_c, 0, 51, 51
1, 314246, Note_off_c, 0, 54, 48
1, 314307, Note_on_c, 0, 78, 74
1, 314321, Note_off_c, 0, 69, 59
1, 314538, Note_off_c, 0, 78, 65
1, 314585, Note_on_c, 0, 44, 42
1, 314690, Control_c, 0, 64, 119
1, 314705, Control_c, 0, 64, 101
1, 314720, Control_c, 0, 64, 92
1, 314724, Note_on_c, 0, 76, 68
1, 314734, Control_c, 0, 64, 81
1, 314747, Note_on_c, 0, 66, 40
1, 314749, Note_on_c, 0, 69, 45
1, 314749, Control_c, 0, 64, 67
1, 314770, Control_c, 0, 64, 46
1, 314785, Control_c, 0, 64, 0
1, 314830, Control_c, 0, 64, 32
1, 314845, Control_c, 0, 64, 55
1, 314860, Control_c, 0, 64, 64
1, 314875, Control_c, 0, 64, 73
1, 314889, Control_c, 0, 64, 87
1, 314904, Control_c, 0, 64, 127
1, 314906, Note_off_c, 0, 44, 53
1, 315132, Note_on_c, 0, 60, 34
1, 315224, Note_off_c, 0, 60, 62
1, 315360, Note_on_c, 0, 60, 44
1, 315389, Note_off_c, 0, 60, 63
1, 315525, Note_on_c, 0, 60, 34
1, 315667, Note_off_c, 0, 60, 36
1, 315731, Note_on_c, 0, 61, 38
1, 315824, Note_on_c, 0, 60, 36
1, 315831, Note_off_c, 0, 76, 58
1, 315832, Control_c, 0, 64, 112
1, 315834, Note_on_c, 0, 75, 53
1, 315847, Control_c, 0, 64, 101
1, 315857, Note_off_c, 0, 61, 36
1, 315861, Control_c, 0, 64, 93
1, 315876, Control_c, 0, 64, 88
1, 315891, Control_c, 0, 64, 85
1, 315906, Control_c, 0, 64, 80
1, 315921, Control_c, 0, 64, 72
1, 315936, Control_c, 0, 64, 64
1, 315951, Control_c, 0, 64, 58
1, 315966, Control_c, 0, 64, 59
1, 315980, Control_c, 0, 64, 63
1, 315995, Control_c, 0, 64, 68
1, 316010, Control_c, 0, 64, 75
1, 316025, Control_c, 0, 64, 86
1, 316040, Control_c, 0, 64, 101
1, 316054, Control_c, 0, 64, 127
1, 316186, Note_on_c, 0, 59, 42
1, 316202, Control_c, 0, 64, 101
1, 316217, Control_c, 0, 64, 78
1, 316232, Control_c, 0, 64, 66
1, 316247, Note_off_c, 0, 60, 37
1, 316247, Control_c, 0, 64, 60
1, 316269, Control_c, 0, 64, 61
1, 316284, Control_c, 0, 64, 64
1, 316299, Control_c, 0, 64, 68
1, 316314, Control_c, 0, 64, 74
1, 316328, Control_c, 0, 64, 86
1, 316343, Control_c, 0, 64, 114
1, 316358, Control_c, 0, 64, 127
1, 316655, Control_c, 0, 64, 111
1, 316663, Note_off_c, 0, 69, 42
1, 316666, Note_on_c, 0, 60, 37
1, 316670, Control_c, 0, 64, 97
1, 316684, Control_c, 0, 64, 83
1, 316699, Control_c, 0, 64, 70
1, 316714, Control_c, 0, 64, 60
1, 316729, Control_c, 0, 64, 50
1, 316737, Note_off_c, 0, 59, 37
1, 316744, Control_c, 0, 64, 49
1, 316758, Control_c, 0, 64, 50
1, 316773, Control_c, 0, 64, 52
1, 316788, Control_c, 0, 64, 57
1, 316803, Control_c, 0, 64, 62
1, 316818, Control_c, 0, 64, 67
1, 316833, Control_c, 0, 64, 75
1, 316848, Control_c, 0, 64, 87
1, 316863, Control_c, 0, 64, 115
1, 316877, Control_c, 0, 64, 127
1, 316928, Note_off_c, 0, 60, 56
1, 317470, Note_on_c, 0, 68, 30
1, 317567, Control_c, 0, 64, 99
1, 317581, Control_c, 0, 64, 81
1, 317596, Control_c, 0, 64, 69
1, 317611, Control_c, 0, 64, 62
1, 317626, Control_c, 0, 64, 58
1, 317641, Control_c, 0, 64, 60
1, 317656, Control_c, 0, 64, 64
1, 317671, Control_c, 0, 64, 69
1, 317686, Control_c, 0, 64, 77
1, 317700, Control_c, 0, 64, 91
1, 317715, Control_c, 0, 64, 127
1, 317809, Note_off_c, 0, 68, 40
1, 318167, Note_off_c, 0, 66, 40
1, 318194, Note_off_c, 0, 75, 37
1, 318419, Control_c, 0, 64, 106
1, 318434, Control_c, 0, 64, 67
1, 318449, Control_c, 0, 64, 0
1, 318462, Note_on_c, 0, 37, 37
1, 318508, Note_off_c, 0, 37, 50
1, 318628, Note_on_c, 0, 68, 51
1, 318681, Note_off_c, 0, 68, 58
1, 318695, Note_on_c, 0, 73, 56
1, 318759, Note_on_c, 0, 75, 60
1, 318786, Note_off_c, 0, 73, 58
1, 318833, Note_on_c, 0, 76, 48
1, 318842, Note_off_c, 0, 75, 56
1, 318887, Note_on_c, 0, 63, 47
1, 318889, Note_on_c, 0, 56, 49
1, 318891, Note_off_c, 0, 76, 59
1, 318899, Note_on_c, 0, 80, 65
1, 318908, Note_on_c, 0, 72, 50
1, 318918, Note_off_c, 0, 63, 64
1, 318922, Note_off_c, 0, 56, 64
1, 318972, Note_off_c, 0, 72, 55
1, 319033, Note_off_c, 0, 80, 63
1, 319065, Note_on_c, 0, 78, 62
1, 319093, Note_off_c, 0, 78, 66
1, 319134, Note_on_c, 0, 61, 64
1, 319139, Note_on_c, 0, 68, 69
1, 319141, Note_on_c, 0, 76, 76
1, 319146, Note_on_c, 0, 64, 52
1, 319163, Note_off_c, 0, 61, 65
1, 319170, Note_off_c, 0, 64, 61
1, 319179, Note_off_c, 0, 68, 55
1, 319217, Note_on_c, 0, 75, 66
1, 319220, Note_off_c, 0, 76, 60
1, 319292, Note_on_c, 0, 73, 77
1, 319299, Note_off_c, 0, 75, 63
1, 319344, Note_off_c, 0, 73, 64
1, 319371, Note_on_c, 0, 75, 74
1, 319379, Note_on_c, 0, 68, 64
1, 319383, Note_on_c, 0, 72, 58
1, 319399, Note_off_c, 0, 68, 63
1, 319400, Note_off_c, 0, 75, 64
1, 319400, Note_off_c, 0, 72, 65
1, 319538, Note_on_c, 0, 56, 56
1, 319613, Note_on_c, 0, 61, 62
1, 319614, Note_on_c, 0, 73, 69
1, 319617, Note_off_c, 0, 56, 61
1, 319623, Note_on_c, 0, 76, 59
1, 319643, Note_off_c, 0, 73, 65
1, 319650, Note_off_c, 0, 76, 65
1, 319687, Note_on_c, 0, 63, 66
1, 319694, Control_c, 0, 64, 11
1, 319701, Note_off_c, 0, 61, 59
1, 319709, Control_c, 0, 64, 13
1, 319724, Control_c, 0, 64, 15
1, 319739, Control_c, 0, 64, 16
1, 319753, Control_c, 0, 64, 17
1, 319759, Note_off_c, 0, 63, 63
1, 319760, Note_on_c, 0, 64, 62
1, 319768, Control_c, 0, 64, 18
1, 319783, Control_c, 0, 64, 19
1, 319799, Control_c, 0, 64, 19
1, 319814, Control_c, 0, 64, 21
1, 319828, Control_c, 0, 64, 22
1, 319836, Note_on_c, 0, 75, 68
1, 319838, Note_on_c, 0, 68, 77
1, 319842, Note_on_c, 0, 72, 66
1, 319843, Control_c, 0, 64, 22
1, 319858, Control_c, 0, 64, 23
1, 319863, Note_off_c, 0, 75, 64
1, 319868, Note_off_c, 0, 64, 61
1, 319869, Note_off_c, 0, 72, 68
1, 319873, Control_c, 0, 64, 23
1, 319902, Control_c, 0, 64, 24
1, 319917, Control_c, 0, 64, 25
1, 319932, Control_c, 0, 64, 26
1, 319947, Control_c, 0, 64, 26
1, 319962, Control_c, 0, 64, 27
1, 319976, Control_c, 0, 64, 27
1, 319999, Control_c, 0, 64, 28
1, 320011, Note_on_c, 0, 66, 69
1, 320011, Note_off_c, 0, 68, 61
1, 320014, Control_c, 0, 64, 28
1, 320028, Control_c, 0, 64, 29
1, 320044, Note_off_c, 0, 66, 65
1, 320058, Control_c, 0, 64, 29
1, 320079, Note_on_c, 0, 73, 85
1, 320082, Note_on_c, 0, 64, 74
1, 320087, Note_on_c, 0, 68, 75
1, 320103, Note_off_c, 0, 73, 68
1, 320112, Note_off_c, 0, 68, 69
1, 320145, Note_off_c, 0, 64, 59
1, 320147, Control_c, 0, 64, 30
1, 320163, Note_on_c, 0, 63, 71
1, 320229, Note_on_c, 0, 61, 79
1, 320241, Note_off_c, 0, 63, 63
1, 320258, Note_off_c, 0, 61, 67
1, 320295, Control_c, 0, 64, 30
1, 320304, Note_on_c, 0, 69, 80
1, 320312, Note_on_c, 0, 66, 70
1, 320339, Control_c, 0, 64, 31
1, 320398, Control_c, 0, 64, 31
1, 320469, Note_on_c, 0, 49, 60
1, 320502, Control_c, 0, 64, 32
1, 320528, Note_on_c, 0, 60, 84
1, 320529, Note_on_c, 0, 54, 69
1, 320532, Note_on_c, 0, 63, 73
1, 320533, Note_off_c, 0, 66, 57
1, 320544, Note_off_c, 0, 49, 59
1, 320556, Note_off_c, 0, 60, 67
1, 320560, Note_off_c, 0, 63, 69
1, 320596, Note_off_c, 0, 69, 57
1, 320601, Note_on_c, 0, 56, 73
1, 320613, Note_off_c, 0, 54, 62
1, 320672, Note_off_c, 0, 56, 63
1, 320676, Note_on_c, 0, 57, 71
1, 320711, Control_c, 0, 64, 32
1, 320725, Control_c, 0, 64, 33
1, 320755, Note_on_c, 0, 68, 77
1, 320758, Note_on_c, 0, 65, 78
1, 320762, Note_on_c, 0, 61, 76
1, 320778, Note_off_c, 0, 68, 69
1, 320783, Note_off_c, 0, 57, 59
1, 320787, Note_off_c, 0, 65, 66
1, 320807, Control_c, 0, 64, 33
1, 320836, Control_c, 0, 64, 34
1, 320851, Control_c, 0, 64, 34
1, 320866, Control_c, 0, 64, 35
1, 320887, Note_off_c, 0, 61, 62
1, 320911, Control_c, 0, 64, 35
1, 320915, Note_on_c, 0, 59, 68
1, 320979, Note_on_c, 0, 66, 81
1, 320984, Note_on_c, 0, 61, 80
1, 320988, Note_off_c, 0, 59, 58
1, 321001, Note_off_c, 0, 66, 69
1, 321005, Note_off_c, 0, 61, 69
1, 321009, Note_on_c, 0, 57, 67
1, 321069, Note_off_c, 0, 57, 64
1, 321073, Control_c, 0, 64, 36
1, 321074, Note_on_c, 0, 56, 72
1, 321152, Note_off_c, 0, 56, 64
1, 321156, Note_on_c, 0, 54, 69
1, 321187, Note_off_c, 0, 54, 67
1, 321203, Note_on_c, 0, 64, 71
1, 321211, Note_on_c, 0, 61, 65
1, 321405, Note_on_c, 0, 44, 49
1, 321450, Note_on_c, 0, 55, 72
1, 321453, Note_on_c, 0, 58, 65
1, 321464, Note_off_c, 0, 61, 58
1, 321466, Note_on_c, 0, 49, 61
1, 321466, Note_off_c, 0, 44, 60
1, 321479, Note_off_c, 0, 58, 66
1, 321483, Note_off_c, 0, 55, 64
1, 321552, Note_on_c, 0, 51, 74
1, 321558, Note_off_c, 0, 49, 63
1, 321616, Note_off_c, 0, 64, 27
1, 321624, Note_off_c, 0, 51, 63
1, 321632, Note_on_c, 0, 52, 67
1, 321685, Note_on_c, 0, 60, 72
1, 321685, Note_on_c, 0, 63, 71
1, 321697, Note_on_c, 0, 56, 70
1, 321713, Note_off_c, 0, 63, 67
1, 321714, Note_off_c, 0, 52, 61
1, 321718, Note_off_c, 0, 60, 64
1, 321864, Note_off_c, 0, 56, 64
1, 321869, Note_on_c, 0, 54, 59
1, 321900, Note_off_c, 0, 54, 66
1, 321915, Note_on_c, 0, 61, 72
1, 321920, Note_on_c, 0, 56, 54
1, 321928, Note_on_c, 0, 52, 70
1, 321942, Note_off_c, 0, 61, 66
1, 321945, Note_off_c, 0, 56, 58
1, 321992, Note_off_c, 0, 52, 62
1, 321999, Control_c, 0, 64, 36
1, 322009, Note_on_c, 0, 51, 74
1, 322070, Note_on_c, 0, 49, 79
1, 322073, Control_c, 0, 64, 37
1, 322077, Note_off_c, 0, 51, 64
1, 322098, Note_off_c, 0, 49, 70
1, 322177, Note_on_c, 0, 37, 75
1, 322206, Note_off_c, 0, 37, 64
1, 322275, Control_c, 0, 64, 37
1, 322304, Control_c, 0, 64, 38
1, 322349, Control_c, 0, 64, 38
1, 322364, Control_c, 0, 64, 39
1, 322367, Note_on_c, 0, 68, 63
1, 322393, Control_c, 0, 64, 39
1, 322398, Note_off_c, 0, 68, 64
1, 322408, Control_c, 0, 64, 40
1, 322419, Note_on_c, 0, 73, 71
1, 322494, Note_on_c, 0, 75, 64
1, 322500, Note_off_c, 0, 73, 61
1, 322561, Note_off_c, 0, 75, 60
1, 322568, Note_on_c, 0, 76, 36
1, 322607, Note_off_c, 0, 76, 53
1, 322623, Note_on_c, 0, 80, 62
1, 322625, Note_on_c, 0, 72, 58
1, 322628, Note_on_c, 0, 56, 54
1, 322632, Note_on_c, 0, 63, 49
1, 322657, Note_off_c, 0, 63, 57
1, 322660, Control_c, 0, 64, 40
1, 322662, Note_off_c, 0, 56, 65
1, 322667, Note_off_c, 0, 72, 59
1, 322766, Note_off_c, 0, 80, 59
1, 322793, Note_on_c, 0, 78, 63
1, 322828, Note_off_c, 0, 78, 67
1, 322863, Note_on_c, 0, 68, 60
1, 322872, Note_on_c, 0, 76, 74
1, 322875, Note_on_c, 0, 61, 65
1, 322887, Note_on_c, 0, 64, 47
1, 322905, Note_off_c, 0, 61, 65
1, 322905, Note_off_c, 0, 68, 53
1, 322911, Note_off_c, 0, 64, 59
1, 322938, Note_on_c, 0, 75, 70
1, 322940, Note_off_c, 0, 76, 62
1, 323010, Note_off_c, 0, 75, 64
1, 323012, Note_on_c, 0, 73, 74
1, 323074, Note_off_c, 0, 73, 61
1, 323079, Note_on_c, 0, 75, 75
1, 323091, Note_on_c, 0, 72, 66
1, 323093, Note_on_c, 0, 68, 63
1, 323105, Note_off_c, 0, 75, 66
1, 323113, Note_off_c, 0, 68, 61
1, 323120, Note_off_c, 0, 72, 67
1, 323254, Note_on_c, 0, 56, 55
1, 323316, Note_on_c, 0, 61, 52
1, 323316, Note_on_c, 0, 73, 71
1, 323317, Note_on_c, 0, 76, 68
1, 323334, Note_off_c, 0, 56, 53
1, 323345, Note_off_c, 0, 73, 64
1, 323349, Note_off_c, 0, 76, 65
1, 323383, Note_on_c, 0, 63, 67
1, 323399, Note_off_c, 0, 61, 62
1, 323443, Note_off_c, 0, 63, 62
1, 323452, Note_on_c, 0, 64, 61
1, 323528, Note_on_c, 0, 68, 78
1, 323531, Note_on_c, 0, 75, 78
1, 323540, Note_on_c, 0, 72, 68
1, 323553, Note_off_c, 0, 75, 69
1, 323555, Note_off_c, 0, 64, 60
1, 323566, Note_off_c, 0, 72, 68
1, 323681, Note_off_c, 0, 68, 61
1, 323692, Note_on_c, 0, 66, 67
1, 323722, Note_off_c, 0, 66, 66
1, 323742, Control_c, 0, 64, 41
1, 323772, Note_on_c, 0, 64, 68
1, 323773, Note_on_c, 0, 73, 85
1, 323790, Note_on_c, 0, 68, 59
1, 323797, Note_off_c, 0, 73, 68
1, 323811, Note_off_c, 0, 68, 59
1, 323823, Note_off_c, 0, 64, 54
1, 323853, Note_on_c, 0, 63, 65
1, 323923, Note_on_c, 0, 61, 66
1, 323923, Note_off_c, 0, 63, 62
1, 323951, Note_off_c, 0, 61, 65
1, 324014, Note_on_c, 0, 69, 72
1, 324027, Note_on_c, 0, 66, 58
1, 324178, Note_on_c, 0, 49, 40
1, 324242, Note_off_c, 0, 49, 59
1, 324247, Note_on_c, 0, 63, 60
1, 324251, Note_on_c, 0, 60, 55
1, 324252, Note_on_c, 0, 54, 49
1, 324261, Note_off_c, 0, 66, 61
1, 324272, Note_off_c, 0, 60, 63
1, 324277, Note_off_c, 0, 63, 65
1, 324295, Note_off_c, 0, 69, 60
1, 324311, Note_off_c, 0, 54, 61
1, 324320, Note_on_c, 0, 56, 57
1, 324374, Note_off_c, 0, 56, 61
1, 324396, Note_on_c, 0, 57, 50
1, 324477, Note_on_c, 0, 61, 60
1, 324485, Note_off_c, 0, 57, 60
1, 324496, Note_on_c, 0, 65, 57
1, 324496, Note_on_c, 0, 68, 63
1, 324521, Note_off_c, 0, 65, 63
1, 324527, Note_off_c, 0, 68, 64
1, 324625, Note_off_c, 0, 61, 62
1, 324677, Note_on_c, 0, 59, 32
1, 324715, Note_off_c, 0, 59, 51
1, 324725, Note_on_c, 0, 66, 69
1, 324737, Note_on_c, 0, 61, 59
1, 324745, Note_on_c, 0, 57, 55
1, 324753, Note_off_c, 0, 66, 66
1, 324762, Note_off_c, 0, 61, 62
1, 324789, Note_off_c, 0, 57, 64
1, 324808, Note_on_c, 0, 56, 58
1, 324875, Note_off_c, 0, 56, 60
1, 324887, Note_on_c, 0, 54, 49
1, 324913, Note_off_c, 0, 54, 60
1, 324958, Note_on_c, 0, 64, 52
1, 324960, Note_on_c, 0, 61, 58
1, 325134, Note_on_c, 0, 44, 43
1, 325195, Note_on_c, 0, 58, 58
1, 325197, Note_on_c, 0, 55, 56
1, 325201, Note_off_c, 0, 61, 60
1, 325212, Note_off_c, 0, 44, 57
1, 325215, Note_on_c, 0, 49, 48
1, 325226, Note_off_c, 0, 55, 64
1, 325228, Note_off_c, 0, 58, 64
1, 325281, Note_off_c, 0, 49, 57
1, 325284, Note_on_c, 0, 51, 61
1, 325336, Note_off_c, 0, 64, 0
1, 325351, Note_off_c, 0, 51, 63
1, 325366, Note_on_c, 0, 52, 57
1, 325373, Poly_aftertouch_c, 0, 64, 127
1, 325408, Poly_aftertouch_c, 0, 64, 0
1, 325426, Note_on_c, 0, 63, 58
1, 325431, Note_on_c, 0, 60, 59
1, 325443, Note_on_c, 0, 56, 59
1, 325448, Note_off_c, 0, 52, 62
1, 325460, Note_off_c, 0, 63, 62
1, 325469, Note_off_c, 0, 60, 62
1, 325603, Note_on_c, 0, 54, 63
1, 325615, Note_off_c, 0, 56, 59
1, 325649, Note_off_c, 0, 54, 63
1, 325660, Note_on_c, 0, 61, 64
1, 325674, Note_on_c, 0, 56, 24
1, 325693, Note_off_c, 0, 61, 61
1, 325696, Note_on_c, 0, 52, 60
1, 325710, Note_off_c, 0, 56, 44
1, 325747, Note_off_c, 0, 52, 61
1, 325770, Note_on_c, 0, 51, 65
1, 325834, Note_on_c, 0, 49, 67
1, 325835, Note_off_c, 0, 51, 64
1, 325861, Note_off_c, 0, 49, 66
1, 325935, Control_c, 0, 64, 41
1, 325950, Control_c, 0, 64, 44
1, 325965, Control_c, 0, 64, 47
1, 325980, Control_c, 0, 64, 50
1, 325996, Note_on_c, 0, 45, 57
1, 326002, Control_c, 0, 64, 54
1, 326005, Note_on_c, 0, 33, 51
1, 326017, Control_c, 0, 64, 57
1, 326032, Control_c, 0, 64, 60
1, 326046, Control_c, 0, 64, 62
1, 326061, Control_c, 0, 64, 64
1, 326076, Control_c, 0, 64, 66
1, 326091, Control_c, 0, 64, 68
1, 326106, Control_c, 0, 64, 71
1, 326120, Control_c, 0, 64, 77
1, 326135, Control_c, 0, 64, 85
1, 326150, Control_c, 0, 64, 106
1, 326165, Control_c, 0, 64, 127
1, 326174, Note_on_c, 0, 52, 64
1, 326230, Note_off_c, 0, 52, 58
1, 326232, Note_on_c, 0, 57, 64
1, 326241, Note_off_c, 0, 45, 62
1, 326257, Note_off_c, 0, 33, 52
1, 326306, Note_on_c, 0, 59, 68
1, 326309, Note_off_c, 0, 57, 61
1, 326368, Note_off_c, 0, 59, 61
1, 326374, Note_on_c, 0, 61, 71
1, 326417, Control_c, 0, 64, 97
1, 326432, Control_c, 0, 64, 82
1, 326447, Control_c, 0, 64, 68
1, 326461, Note_off_c, 0, 61, 62
1, 326461, Control_c, 0, 64, 54
1, 326466, Note_on_c, 0, 64, 62
1, 326473, Note_on_c, 0, 32, 39
1, 326476, Control_c, 0, 64, 31
1, 326478, Note_on_c, 0, 44, 32
1, 326484, Note_on_c, 0, 59, 45
1, 326491, Control_c, 0, 64, 35
1, 326506, Control_c, 0, 64, 51
1, 326521, Control_c, 0, 64, 60
1, 326536, Control_c, 0, 64, 65
1, 326551, Control_c, 0, 64, 70
1, 326557, Note_off_c, 0, 59, 57
1, 326566, Control_c, 0, 64, 77
1, 326581, Control_c, 0, 64, 89
1, 326595, Control_c, 0, 64, 106
1, 326603, Note_off_c, 0, 32, 33
1, 326610, Control_c, 0, 64, 127
1, 326630, Note_off_c, 0, 64, 61
1, 326634, Note_on_c, 0, 62, 67
1, 326654, Control_c, 0, 64, 122
1, 326667, Note_off_c, 0, 44, 40
1, 326669, Control_c, 0, 64, 96
1, 326684, Control_c, 0, 64, 76
1, 326699, Control_c, 0, 64, 63
1, 326701, Note_on_c, 0, 57, 64
1, 326709, Note_on_c, 0, 61, 80
1, 326714, Control_c, 0, 64, 60
1, 326717, Note_on_c, 0, 33, 54
1, 326719, Note_on_c, 0, 45, 45
1, 326729, Control_c, 0, 64, 65
1, 326742, Note_off_c, 0, 62, 57
1, 326751, Control_c, 0, 64, 71
1, 326756, Note_off_c, 0, 45, 53
1, 326758, Note_off_c, 0, 57, 54
1, 326766, Note_off_c, 0, 33, 60
1, 326766, Control_c, 0, 64, 82
1, 326781, Control_c, 0, 64, 100
1, 326783, Note_on_c, 0, 59, 82
1, 326796, Control_c, 0, 64, 127
1, 326809, Note_off_c, 0, 61, 65
1, 326864, Note_off_c, 0, 59, 64
1, 326867, Note_on_c, 0, 57, 76
1, 326897, Note_off_c, 0, 57, 62
1, 326900, Control_c, 0, 64, 125
1, 326914, Control_c, 0, 64, 107
1, 326929, Control_c, 0, 64, 96
1, 326944, Control_c, 0, 64, 87
1, 326959, Control_c, 0, 64, 73
1, 326974, Control_c, 0, 64, 60
1, 326986, Note_on_c, 0, 28, 61
1, 326989, Control_c, 0, 64, 0
1, 326995, Note_on_c, 0, 40, 56
1, 327013, Note_on_c, 0, 59, 76
1, 327024, Note_on_c, 0, 57, 60
1, 327032, Note_off_c, 0, 28, 63
1, 327049, Control_c, 0, 64, 45
1, 327062, Note_off_c, 0, 40, 63
1, 327063, Control_c, 0, 64, 61
1, 327078, Control_c, 0, 64, 70
1, 327093, Control_c, 0, 64, 81
1, 327108, Control_c, 0, 64, 109
1, 327123, Control_c, 0, 64, 127
1, 327198, Note_on_c, 0, 47, 64
1, 327228, Note_off_c, 0, 59, 52
1, 327233, Note_off_c, 0, 57, 63
1, 327246, Note_on_c, 0, 52, 74
1, 327248, Note_on_c, 0, 55, 81
1, 327271, Note_off_c, 0, 47, 59
1, 327273, Note_off_c, 0, 55, 69
1, 327285, Control_c, 0, 64, 120
1, 327300, Control_c, 0, 64, 101
1, 327305, Note_off_c, 0, 52, 65
1, 327311, Note_on_c, 0, 54, 77
1, 327315, Control_c, 0, 64, 96
1, 327330, Control_c, 0, 64, 96
1, 327345, Control_c, 0, 64, 91
1, 327358, Note_off_c, 0, 54, 65
1, 327359, Control_c, 0, 64, 80
1, 327365, Note_on_c, 0, 55, 78
1, 327374, Control_c, 0, 64, 66
1, 327389, Control_c, 0, 64, 49
1, 327400, Note_off_c, 0, 55, 66
1, 327404, Control_c, 0, 64, 0
1, 327463, Note_on_c, 0, 54, 74
1, 327475, Note_on_c, 0, 59, 79
1, 327475, Note_on_c, 0, 47, 76
1, 327478, Note_on_c, 0, 51, 69
1, 327500, Control_c, 0, 64, 49
1, 327505, Note_off_c, 0, 59, 70
1, 327514, Note_off_c, 0, 47, 61
1, 327515, Control_c, 0, 64, 65
1, 327530, Control_c, 0, 64, 77
1, 327545, Control_c, 0, 64, 127
1, 327572, Note_off_c, 0, 51, 62
1, 327589, Note_off_c, 0, 54, 64
1, 327636, Note_on_c, 0, 57, 73
1, 327710, Note_on_c, 0, 55, 86
1, 327717, Note_off_c, 0, 57, 64
1, 327718, Note_on_c, 0, 40, 75
1, 327722, Control_c, 0, 64, 78
1, 327737, Control_c, 0, 64, 53
1, 327747, Note_off_c, 0, 40, 65
1, 327752, Control_c, 0, 64, 0
1, 327776, Note_on_c, 0, 54, 83
1, 327816, Note_off_c, 0, 55, 63
1, 327854, Note_on_c, 0, 52, 76
1, 327856, Note_off_c, 0, 54, 66
1, 327877, Note_on_c, 0, 50, 52
1, 327878, Note_off_c, 0, 50, 127
1, 327900, Note_off_c, 0, 52, 65
1, 327944, Note_on_c, 0, 54, 90
1, 327952, Note_on_c, 0, 52, 58
1, 327959, Note_on_c, 0, 35, 69
1, 327961, Control_c, 0, 64, 40
1, 327962, Note_on_c, 0, 47, 69
1, 327976, Note_off_c, 0, 52, 59
1, 327976, Control_c, 0, 64, 62
1, 327988, Note_off_c, 0, 35, 63
1, 327990, Control_c, 0, 64, 68
1, 327993, Note_off_c, 0, 54, 64
1, 327994, Note_off_c, 0, 47, 64
1, 328005, Control_c, 0, 64, 78
1, 328020, Control_c, 0, 64, 99
1, 328035, Control_c, 0, 64, 127
1, 328107, Note_on_c, 0, 54, 80
1, 328165, Note_off_c, 0, 54, 65
1, 328190, Note_on_c, 0, 59, 77
1, 328217, Note_on_c, 0, 50, 56
1, 328223, Note_on_c, 0, 52, 51
1, 328251, Note_off_c, 0, 52, 62
1, 328252, Note_off_c, 0, 50, 64
1, 328264, Control_c, 0, 67, 115
1, 328270, Note_on_c, 0, 61, 84
1, 328279, Control_c, 0, 67, 104
1, 328294, Note_off_c, 0, 59, 63
1, 328294, Control_c, 0, 67, 90
1, 328309, Control_c, 0, 67, 72
1, 328323, Control_c, 0, 67, 52
1, 328334, Note_off_c, 0, 61, 66
1, 328338, Control_c, 0, 67, 33
1, 328342, Note_on_c, 0, 62, 84
1, 328353, Control_c, 0, 67, 17
1, 328368, Control_c, 0, 67, 11
1, 328383, Control_c, 0, 67, 9
1, 328397, Control_c, 0, 64, 81
1, 328397, Control_c, 0, 67, 8
1, 328412, Control_c, 0, 64, 59
1, 328417, Note_on_c, 0, 66, 84
1, 328419, Note_on_c, 0, 61, 81
1, 328427, Note_on_c, 0, 46, 72
1, 328427, Control_c, 0, 64, 0
1, 328437, Note_on_c, 0, 34, 56
1, 328438, Note_off_c, 0, 62, 62
1, 328441, Control_c, 0, 64, 22
1, 328455, Note_off_c, 0, 61, 60
1, 328456, Control_c, 0, 64, 53
1, 328471, Control_c, 0, 64, 65
1, 328471, Control_c, 0, 67, 0
1, 328472, Note_off_c, 0, 66, 65
1, 328473, Note_off_c, 0, 34, 62
1, 328473, Note_off_c, 0, 46, 54
1, 328486, Control_c, 0, 64, 77
1, 328501, Control_c, 0, 64, 127
1, 328582, Note_on_c, 0, 64, 86
1, 328650, Control_c, 0, 64, 110
1, 328660, Note_on_c, 0, 62, 83
1, 328665, Note_on_c, 0, 35, 64
1, 328665, Note_on_c, 0, 47, 62
1, 328665, Control_c, 0, 64, 74
1, 328666, Note_off_c, 0, 64, 63
1, 328668, Note_on_c, 0, 59, 80
1, 328680, Control_c, 0, 64, 60
1, 328688, Note_off_c, 0, 47, 62
1, 328694, Control_c, 0, 64, 59
1, 328707, Note_off_c, 0, 35, 58
1, 328709, Control_c, 0, 64, 68
1, 328724, Control_c, 0, 64, 86
1, 328727, Note_off_c, 0, 59, 63
1, 328732, Note_on_c, 0, 61, 88
1, 328739, Control_c, 0, 64, 127
1, 328786, Note_off_c, 0, 62, 62
1, 328798, Note_on_c, 0, 59, 92
1, 328813, Note_off_c, 0, 61, 65
1, 328835, Note_off_c, 0, 59, 67
1, 328843, Control_c, 0, 64, 74
1, 328857, Control_c, 0, 64, 25
1, 328872, Control_c, 0, 64, 0
1, 328879, Note_on_c, 0, 42, 70
1, 328879, Note_on_c, 0, 30, 61
1, 328882, Note_on_c, 0, 61, 91
1, 328890, Note_on_c, 0, 59, 79
1, 328906, Note_off_c, 0, 42, 65
1, 328914, Note_off_c, 0, 30, 60
1, 328917, Control_c, 0, 64, 27
1, 328931, Control_c, 0, 64, 63
1, 328946, Control_c, 0, 64, 77
1, 328961, Control_c, 0, 64, 127
1, 329055, Note_on_c, 0, 49, 77
1, 329111, Note_off_c, 0, 59, 63
1, 329117, Note_on_c, 0, 54, 80
1, 329135, Note_on_c, 0, 57, 93
1, 329138, Note_off_c, 0, 49, 62
1, 329154, Note_off_c, 0, 61, 64
1, 329164, Note_off_c, 0, 57, 66
1, 329193, Note_on_c, 0, 56, 79
1, 329193, Note_off_c, 0, 54, 65
1, 329248, Note_off_c, 0, 56, 65
1, 329255, Note_on_c, 0, 57, 88
1, 329284, Note_off_c, 0, 57, 64
1, 329338, Control_c, 0, 64, 85
1, 329353, Note_on_c, 0, 56, 85
1, 329353, Control_c, 0, 64, 56
1, 329360, Note_on_c, 0, 53, 72
1, 329367, Note_on_c, 0, 61, 93
1, 329368, Control_c, 0, 64, 0
1, 329372, Note_on_c, 0, 49, 85
1, 329384, Control_c, 0, 64, 25
1, 329392, Note_off_c, 0, 61, 65
1, 329399, Control_c, 0, 64, 58
1, 329403, Note_off_c, 0, 49, 65
1, 329414, Control_c, 0, 64, 68
1, 329429, Control_c, 0, 64, 87
1, 329443, Control_c, 0, 64, 127
1, 329468, Note_off_c, 0, 53, 55
1, 329539, Note_off_c, 0, 56, 62
1, 329548, Note_on_c, 0, 59, 76
1, 329591, Control_c, 0, 64, 75
1, 329606, Control_c, 0, 64, 57
1, 329621, Control_c, 0, 64, 45
1, 329625, Note_on_c, 0, 57, 87
1, 329626, Note_on_c, 0, 49, 89
1, 329634, Note_off_c, 0, 59, 64
1, 329636, Control_c, 0, 64, 59
1, 329642, Note_on_c, 0, 41, 56
1, 329645, Note_off_c, 0, 49, 70
1, 329651, Control_c, 0, 64, 69
1, 329651, Note_on_c, 0, 40, 42
1, 329657, Note_on_c, 0, 54, 53
1, 329666, Control_c, 0, 64, 90
1, 329673, Note_off_c, 0, 41, 54
1, 329680, Control_c, 0, 64, 127
1, 329690, Note_off_c, 0, 40, 55
1, 329696, Note_off_c, 0, 54, 54
1, 329714, Note_on_c, 0, 56, 89
1, 329770, Note_off_c, 0, 57, 60
1, 329805, Note_on_c, 0, 54, 90
1, 329836, Note_off_c, 0, 56, 64
1, 329883, Note_off_c, 0, 54, 64
1, 329928, Note_on_c, 0, 50, 91
1, 329930, Note_on_c, 0, 38, 85
1, 329939, Control_c, 0, 64, 78
1, 329954, Control_c, 0, 64, 56
1, 329968, Control_c, 0, 64, 0
1, 330057, Control_c, 0, 64, 61
1, 330072, Control_c, 0, 64, 68
1, 330086, Control_c, 0, 64, 76
1, 330101, Control_c, 0, 64, 91
1, 330116, Control_c, 0, 64, 127
1, 330129, Note_on_c, 0, 57, 82
1, 330141, Note_off_c, 0, 38, 65
1, 330171, Note_off_c, 0, 50, 63
1, 330193, Note_off_c, 0, 57, 58
1, 330202, Note_on_c, 0, 62, 84
1, 330280, Note_on_c, 0, 64, 82
1, 330295, Note_off_c, 0, 62, 62
1, 330348, Note_on_c, 0, 66, 82
1, 330361, Note_off_c, 0, 64, 65
1, 330422, Note_on_c, 0, 64, 80
1, 330425, Note_on_c, 0, 69, 85
1, 330438, Note_off_c, 0, 66, 63
1, 330459, Note_off_c, 0, 64, 63
1, 330506, Note_off_c, 0, 69, 60
1, 330601, Note_on_c, 0, 67, 85
1, 330617, Note_on_c, 0, 57, 40
1, 330671, Note_off_c, 0, 57, 55
1, 330673, Note_on_c, 0, 66, 89
1, 330681, Note_on_c, 0, 62, 30
1, 330715, Note_off_c, 0, 67, 61
1, 330721, Note_off_c, 0, 62, 55
1, 330743, Note_on_c, 0, 64, 77
1, 330751, Note_off_c, 0, 66, 66
1, 330798, Note_on_c, 0, 66, 42
1, 330816, Note_off_c, 0, 66, 63
1, 330822, Note_on_c, 0, 62, 79
1, 330825, Note_off_c, 0, 64, 61
1, 330851, Control_c, 0, 64, 105
1, 330851, Control_c, 0, 67, 9
1, 330866, Control_c, 0, 64, 76
1, 330866, Control_c, 0, 67, 14
1, 330881, Control_c, 0, 64, 63
1, 330881, Control_c, 0, 67, 17
1, 330896, Control_c, 0, 64, 62
1, 330896, Control_c, 0, 67, 17
1, 330910, Note_on_c, 0, 69, 82
1, 330910, Control_c, 0, 64, 68
1, 330910, Control_c, 0, 67, 18
1, 330912, Note_on_c, 0, 61, 76
1, 330915, Note_off_c, 0, 62, 65
1, 330922, Note_on_c, 0, 64, 64
1, 330925, Control_c, 0, 64, 76
1, 330931, Note_on_c, 0, 65, 57
1, 330936, Note_off_c, 0, 61, 66
1, 330940, Control_c, 0, 64, 92
1, 330944, Note_off_c, 0, 69, 63
1, 330955, Control_c, 0, 64, 127
1, 330956, Note_off_c, 0, 64, 65
1, 330962, Note_off_c, 0, 65, 63
1, 330986, Control_c, 0, 67, 17
1, 331001, Control_c, 0, 64, 125
1, 331001, Control_c, 0, 67, 16
1, 331015, Control_c, 0, 64, 114
1, 331015, Control_c, 0, 67, 16
1, 331030, Control_c, 0, 64, 109
1, 331030, Control_c, 0, 67, 15
1, 331045, Control_c, 0, 64, 106
1, 331060, Control_c, 0, 64, 100
1, 331060, Control_c, 0, 67, 14
1, 331075, Control_c, 0, 64, 92
1, 331089, Control_c, 0, 64, 87
1, 331091, Note_on_c, 0, 69, 79
1, 331104, Control_c, 0, 64, 83
1, 331114, Note_on_c, 0, 67, 67
1, 331119, Control_c, 0, 64, 82
1, 331133, Control_c, 0, 64, 79
1, 331133, Control_c, 0, 67, 15
1, 331148, Control_c, 0, 64, 72
1, 331162, Note_off_c, 0, 67, 61
1, 331163, Control_c, 0, 64, 63
1, 331164, Note_off_c, 0, 69, 61
1, 331172, Note_on_c, 0, 76, 61
1, 331174, Note_on_c, 0, 74, 69
1, 331178, Control_c, 0, 64, 57
1, 331180, Note_on_c, 0, 66, 43
1, 331193, Control_c, 0, 64, 55
1, 331207, Control_c, 0, 64, 57
1, 331208, Note_off_c, 0, 66, 54
1, 331222, Control_c, 0, 64, 60
1, 331243, Note_off_c, 0, 74, 58
1, 331245, Control_c, 0, 64, 60
1, 331275, Control_c, 0, 64, 60
1, 331278, Note_on_c, 0, 64, 59
1, 331295, Note_on_c, 0, 78, 76
1, 331296, Note_off_c, 0, 76, 65
1, 331344, Note_off_c, 0, 64, 62
1, 331348, Control_c, 0, 64, 59
1, 331350, Note_off_c, 0, 78, 62
1, 331351, Note_on_c, 0, 62, 59
1, 331366, Note_on_c, 0, 57, 62
1, 331370, Note_on_c, 0, 81, 77
1, 331378, Control_c, 0, 64, 59
1, 331378, Control_c, 0, 67, 16
1, 331380, Note_on_c, 0, 73, 71
1, 331390, Note_off_c, 0, 62, 62
1, 331393, Control_c, 0, 64, 59
1, 331393, Control_c, 0, 67, 17
1, 331407, Control_c, 0, 64, 60
1, 331437, Control_c, 0, 64, 60
1, 331454, Note_off_c, 0, 57, 59
1, 331467, Control_c, 0, 64, 61
1, 331475, Note_off_c, 0, 73, 59
1, 331481, Control_c, 0, 64, 63
1, 331496, Control_c, 0, 64, 64
1, 331511, Control_c, 0, 64, 65
1, 331541, Control_c, 0, 64, 64
1, 331541, Control_c, 0, 67, 16
1, 331552, Note_on_c, 0, 79, 73
1, 331553, Note_off_c, 0, 81, 61
1, 331556, Control_c, 0, 64, 63
1, 331556, Control_c, 0, 67, 15
1, 331571, Control_c, 0, 64, 62
1, 331585, Control_c, 0, 64, 62
1, 331600, Control_c, 0, 64, 61
1, 331600, Control_c, 0, 67, 14
1, 331615, Control_c, 0, 64, 59
1, 331618, Note_on_c, 0, 66, 65
1, 331618, Note_on_c, 0, 78, 78
1, 331620, Note_on_c, 0, 62, 69
1, 331623, Note_on_c, 0, 74, 69
1, 331627, Note_off_c, 0, 79, 65
1, 331630, Control_c, 0, 64, 58
1, 331645, Control_c, 0, 64, 57
1, 331645, Control_c, 0, 67, 13
1, 331647, Note_off_c, 0, 62, 67
1, 331648, Note_off_c, 0, 74, 67
1, 331648, Note_off_c, 0, 78, 67
1, 331648, Note_off_c, 0, 66, 66
1, 331659, Control_c, 0, 64, 55
1, 331659, Control_c, 0, 67, 12
1, 331674, Control_c, 0, 64, 51
1, 331689, Control_c, 0, 64, 41
1, 331704, Control_c, 0, 64, 0
1, 331733, Control_c, 0, 67, 13
1, 331748, Control_c, 0, 67, 14
1, 331763, Control_c, 0, 67, 15
1, 331898, Control_c, 0, 64, 42
1, 331905, Note_on_c, 0, 43, 65
1, 331907, Note_on_c, 0, 31, 59
1, 331912, Control_c, 0, 64, 62
1, 331927, Control_c, 0, 64, 67
1, 331942, Control_c, 0, 64, 75
1, 331942, Control_c, 0, 67, 16
1, 331956, Control_c, 0, 64, 91
1, 331956, Control_c, 0, 67, 16
1, 331971, Control_c, 0, 64, 127
1, 331971, Control_c, 0, 67, 17
1, 331974, Note_off_c, 0, 43, 59
1, 331987, Note_off_c, 0, 31, 60
1, 332024, Control_c, 0, 67, 17
1, 332038, Control_c, 0, 67, 18
1, 332053, Control_c, 0, 67, 19
1, 332068, Control_c, 0, 67, 20
1, 332083, Control_c, 0, 67, 21
1, 332098, Note_on_c, 0, 62, 65
1, 332098, Control_c, 0, 67, 21
1, 332112, Control_c, 0, 67, 22
1, 332127, Control_c, 0, 67, 23
1, 332156, Control_c, 0, 67, 25
1, 332164, Note_on_c, 0, 67, 75
1, 332170, Note_off_c, 0, 62, 61
1, 332171, Control_c, 0, 67, 33
1, 332186, Control_c, 0, 67, 41
1, 332201, Control_c, 0, 67, 44
1, 332216, Control_c, 0, 67, 45
1, 332242, Note_on_c, 0, 69, 78
1, 332250, Note_off_c, 0, 67, 62
1, 332289, Control_c, 0, 67, 46
1, 332304, Control_c, 0, 67, 46
1, 332313, Note_on_c, 0, 71, 79
1, 332313, Note_off_c, 0, 69, 64
1, 332319, Control_c, 0, 67, 47
1, 332334, Control_c, 0, 67, 48
1, 332349, Control_c, 0, 67, 51
1, 332364, Control_c, 0, 67, 55
1, 332378, Control_c, 0, 67, 58
1, 332393, Note_on_c, 0, 74, 82
1, 332393, Control_c, 0, 67, 60
1, 332394, Note_on_c, 0, 69, 63
1, 332404, Note_off_c, 0, 71, 60
1, 332408, Control_c, 0, 67, 62
1, 332423, Note_off_c, 0, 69, 64
1, 332423, Control_c, 0, 67, 64
1, 332438, Control_c, 0, 67, 66
1, 332453, Control_c, 0, 67, 67
1, 332468, Control_c, 0, 67, 69
1, 332482, Control_c, 0, 67, 69
1, 332486, Note_off_c, 0, 74, 56
1, 332497, Control_c, 0, 67, 71
1, 332563, Note_on_c, 0, 72, 85
1, 332581, Note_on_c, 0, 62, 60
1, 332633, Note_on_c, 0, 71, 91
1, 332666, Note_off_c, 0, 62, 56
1, 332698, Note_on_c, 0, 69, 88
1, 332707, Note_off_c, 0, 71, 65
1, 332707, Note_off_c, 0, 72, 62
1, 332735, Poly_aftertouch_c, 0, 67, 0
1, 332772, Note_off_c, 0, 69, 61
1, 332780, Note_on_c, 0, 67, 84
1, 332846, Control_c, 0, 64, 86
1, 332861, Control_c, 0, 64, 70
1, 332870, Note_on_c, 0, 66, 80
1, 332873, Note_on_c, 0, 74, 74
1, 332876, Control_c, 0, 64, 66
1, 332884, Note_on_c, 0, 69, 66
1, 332886, Note_on_c, 0, 71, 70
1, 332891, Note_off_c, 0, 67, 61
1, 332891, Control_c, 0, 64, 72
1, 332899, Note_off_c, 0, 74, 69
1, 332905, Control_c, 0, 64, 91
1, 332905, Control_c, 0, 67, 70
1, 332914, Note_off_c, 0, 66, 65
1, 332920, Control_c, 0, 64, 127
1, 332920, Control_c, 0, 67, 69
1, 332923, Note_off_c, 0, 69, 66
1, 332928, Note_off_c, 0, 71, 59
1, 332935, Control_c, 0, 67, 68
1, 332950, Control_c, 0, 67, 67
1, 332965, Control_c, 0, 67, 67
1, 332979, Control_c, 0, 67, 66
1, 332994, Control_c, 0, 67, 66
1, 333009, Control_c, 0, 67, 64
1, 333024, Control_c, 0, 67, 63
1, 333039, Control_c, 0, 64, 112
1, 333043, Note_on_c, 0, 74, 89
1, 333053, Control_c, 0, 64, 94
1, 333053, Control_c, 0, 67, 62
1, 333064, Note_on_c, 0, 72, 64
1, 333068, Control_c, 0, 64, 82
1, 333073, Note_on_c, 0, 71, 57
1, 333083, Control_c, 0, 64, 74
1, 333098, Control_c, 0, 64, 67
1, 333098, Control_c, 0, 67, 61
1, 333109, Note_off_c, 0, 71, 52
1, 333112, Control_c, 0, 64, 60
1, 333112, Control_c, 0, 67, 60
1, 333115, Note_off_c, 0, 72, 60
1, 333119, Note_on_c, 0, 79, 89
1, 333127, Control_c, 0, 64, 53
1, 333127, Control_c, 0, 67, 58
1, 333133, Note_off_c, 0, 74, 62
1, 333142, Control_c, 0, 64, 55
1, 333142, Control_c, 0, 67, 56
1, 333143, Note_on_c, 0, 69, 43
1, 333154, Note_on_c, 0, 71, 51
1, 333157, Control_c, 0, 64, 62
1, 333157, Control_c, 0, 67, 55
1, 333172, Control_c, 0, 64, 70
1, 333172, Control_c, 0, 67, 54
1, 333178, Note_off_c, 0, 69, 0
1, 333178, Note_on_c, 0, 69, 37
1, 333186, Control_c, 0, 64, 84
1, 333186, Control_c, 0, 67, 54
1, 333193, Note_on_c, 0, 81, 88
1, 333201, Control_c, 0, 64, 127
1, 333201, Control_c, 0, 67, 53
1, 333203, Note_off_c, 0, 71, 60
1, 333216, Control_c, 0, 67, 52
1, 333242, Note_on_c, 0, 67, 60
1, 333242, Note_off_c, 0, 69, 64
1, 333265, Note_on_c, 0, 83, 86
1, 333269, Note_off_c, 0, 79, 61
1, 333272, Note_off_c, 0, 67, 64
1, 333276, Control_c, 0, 67, 53
1, 333280, Note_off_c, 0, 81, 65
1, 333291, Control_c, 0, 67, 54
1, 333305, Control_c, 0, 67, 55
1, 333320, Control_c, 0, 67, 56
1, 333335, Control_c, 0, 67, 57
1, 333350, Control_c, 0, 64, 93
1, 333350, Control_c, 0, 67, 58
1, 333359, Note_on_c, 0, 62, 55
1, 333359, Note_off_c, 0, 83, 60
1, 333362, Note_on_c, 0, 86, 91
1, 333365, Control_c, 0, 64, 69
1, 333371, Note_on_c, 0, 69, 56
1, 333377, Note_on_c, 0, 78, 77
1, 333380, Control_c, 0, 64, 52
1, 333395, Control_c, 0, 64, 33
1, 333395, Control_c, 0, 67, 57
1, 333410, Control_c, 0, 64, 43
1, 333410, Control_c, 0, 67, 56
1, 333425, Control_c, 0, 64, 58
1, 333440, Control_c, 0, 64, 65
1, 333451, Note_off_c, 0, 78, 52
1, 333455, Control_c, 0, 64, 72
1, 333469, Control_c, 0, 64, 85
1, 333490, Control_c, 0, 64, 113
1, 333505, Control_c, 0, 64, 127
1, 333520, Control_c, 0, 67, 56
1, 333535, Control_c, 0, 67, 54
1, 333553, Note_off_c, 0, 69, 59
1, 333592, Note_on_c, 0, 84, 84
1, 333613, Note_off_c, 0, 86, 58
1, 333624, Control_c, 0, 64, 91
1, 333624, Control_c, 0, 67, 53
1, 333639, Control_c, 0, 64, 66
1, 333639, Control_c, 0, 67, 51
1, 333654, Control_c, 0, 64, 44
1, 333654, Control_c, 0, 67, 48
1, 333663, Note_on_c, 0, 79, 77
1, 333666, Note_on_c, 0, 83, 79
1, 333669, Control_c, 0, 64, 20
1, 333669, Control_c, 0, 67, 45
1, 333669, Note_on_c, 0, 71, 55
1, 333673, Note_on_c, 0, 67, 64
1, 333681, Note_on_c, 0, 81, 67
1, 333683, Control_c, 0, 64, 39
1, 333683, Control_c, 0, 67, 41
1, 333693, Note_off_c, 0, 84, 62
1, 333698, Note_off_c, 0, 71, 67
1, 333698, Control_c, 0, 64, 57
1, 333698, Control_c, 0, 67, 36
1, 333704, Note_off_c, 0, 81, 53
1, 333708, Note_off_c, 0, 62, 31
1, 333713, Control_c, 0, 64, 66
1, 333713, Control_c, 0, 67, 27
1, 333727, Control_c, 0, 64, 76
1, 333727, Control_c, 0, 67, 16
1, 333736, Note_off_c, 0, 67, 64
1, 333742, Control_c, 0, 64, 102
1, 333742, Control_c, 0, 67, 0
1, 333757, Control_c, 0, 64, 127
1, 333795, Note_off_c, 0, 79, 62
1, 333834, Note_off_c, 0, 83, 61
1, 333969, Note_on_c, 0, 49, 90
1, 333976, Note_on_c, 0, 37, 75
1, 333994, Control_c, 0, 64, 115
1, 334009, Control_c, 0, 64, 77
1, 334024, Control_c, 0, 64, 58
1, 334039, Control_c, 0, 64, 0
1, 334098, Control_c, 0, 64, 53
1, 334113, Control_c, 0, 64, 65
1, 334127, Control_c, 0, 64, 77
1, 334142, Control_c, 0, 64, 127
1, 334173, Note_on_c, 0, 65, 74
1, 334256, Note_off_c, 0, 37, 60
1, 334262, Note_on_c, 0, 68, 90
1, 334267, Note_off_c, 0, 49, 61
1, 334271, Note_off_c, 0, 65, 63
1, 334301, Note_off_c, 0, 68, 64
1, 334340, Note_on_c, 0, 71, 93
1, 334407, Note_off_c, 0, 71, 57
1, 334413, Note_on_c, 0, 74, 92
1, 334510, Note_on_c, 0, 83, 102
1, 334519, Note_off_c, 0, 74, 54
1, 334701, Note_off_c, 0, 83, 48
1, 334709, Note_on_c, 0, 53, 65
1, 334724, Note_on_c, 0, 81, 92
1, 334772, Control_c, 0, 64, 122
1, 334805, Note_on_c, 0, 80, 94
1, 334810, Note_on_c, 0, 56, 57
1, 334845, Note_off_c, 0, 81, 65
1, 334847, Control_c, 0, 64, 120
1, 334868, Note_off_c, 0, 53, 37
1, 334920, Note_off_c, 0, 56, 62
1, 334931, Note_on_c, 0, 59, 56
1, 334936, Control_c, 0, 64, 122
1, 334950, Control_c, 0, 64, 125
1, 334992, Note_on_c, 0, 78, 95
1, 335003, Control_c, 0, 64, 122
1, 335010, Note_on_c, 0, 62, 68
1, 335011, Note_off_c, 0, 59, 63
1, 335013, Note_off_c, 0, 80, 64
1, 335018, Control_c, 0, 64, 102
1, 335033, Control_c, 0, 64, 83
1, 335048, Control_c, 0, 64, 70
1, 335062, Control_c, 0, 64, 67
1, 335070, Note_on_c, 0, 77, 94
1, 335077, Control_c, 0, 64, 75
1, 335079, Note_off_c, 0, 62, 59
1, 335079, Note_off_c, 0, 78, 59
1, 335091, Note_on_c, 0, 71, 71
1, 335092, Control_c, 0, 64, 93
1, 335107, Control_c, 0, 64, 127
1, 335114, Note_off_c, 0, 77, 67
1, 335260, Note_off_c, 0, 71, 59
1, 335270, Note_on_c, 0, 69, 66
1, 335294, Note_on_c, 0, 74, 81
1, 335295, Note_on_c, 0, 73, 77
1, 335299, Control_c, 0, 64, 110
1, 335301, Note_on_c, 0, 72, 80
1, 335314, Control_c, 0, 64, 86
1, 335329, Control_c, 0, 64, 68
1, 335344, Control_c, 0, 64, 56
1, 335350, Note_off_c, 0, 73, 59
1, 335359, Control_c, 0, 64, 54
1, 335373, Control_c, 0, 64, 61
1, 335380, Note_on_c, 0, 71, 79
1, 335388, Control_c, 0, 64, 67
1, 335398, Note_off_c, 0, 69, 61
1, 335403, Control_c, 0, 64, 76
1, 335404, Note_off_c, 0, 72, 59
1, 335418, Control_c, 0, 64, 91
1, 335430, Note_on_c, 0, 68, 50
1, 335433, Control_c, 0, 64, 127
1, 335503, Note_off_c, 0, 71, 62
1, 335521, Control_c, 0, 67, 9
1, 335536, Control_c, 0, 67, 12
1, 335551, Control_c, 0, 67, 13
1, 335559, Note_on_c, 0, 69, 63
1, 335565, Note_off_c, 0, 68, 60
1, 335566, Control_c, 0, 67, 14
1, 335570, Note_on_c, 0, 66, 57
1, 335580, Control_c, 0, 64, 100
1, 335580, Control_c, 0, 67, 17
1, 335595, Control_c, 0, 64, 80
1, 335595, Control_c, 0, 67, 23
1, 335602, Note_off_c, 0, 66, 64
1, 335610, Control_c, 0, 64, 69
1, 335610, Control_c, 0, 67, 30
1, 335623, Note_on_c, 0, 68, 59
1, 335625, Note_off_c, 0, 69, 62
1, 335625, Control_c, 0, 64, 66
1, 335625, Control_c, 0, 67, 34
1, 335640, Control_c, 0, 64, 70
1, 335640, Control_c, 0, 67, 36
1, 335651, Note_on_c, 0, 65, 56
1, 335654, Control_c, 0, 64, 78
1, 335654, Control_c, 0, 67, 37
1, 335669, Control_c, 0, 64, 89
1, 335669, Control_c, 0, 67, 39
1, 335684, Control_c, 0, 64, 101
1, 335684, Control_c, 0, 67, 43
1, 335699, Control_c, 0, 64, 108
1, 335699, Control_c, 0, 67, 47
1, 335714, Control_c, 0, 64, 108
1, 335714, Control_c, 0, 67, 49
1, 335735, Control_c, 0, 64, 107
1, 335735, Control_c, 0, 67, 50
1, 335750, Control_c, 0, 64, 105
1, 335750, Control_c, 0, 67, 51
1, 335765, Control_c, 0, 64, 103
1, 335765, Control_c, 0, 67, 52
1, 335781, Control_c, 0, 64, 99
1, 335781, Control_c, 0, 67, 53
1, 335790, Note_off_c, 0, 65, 54
1, 335796, Control_c, 0, 64, 87
1, 335796, Control_c, 0, 67, 57
1, 335810, Control_c, 0, 64, 71
1, 335810, Control_c, 0, 67, 61
1, 335812, Note_off_c, 0, 68, 38
1, 335813, Note_on_c, 0, 66, 65
1, 335823, Note_on_c, 0, 62, 48
1, 335825, Control_c, 0, 64, 58
1, 335825, Control_c, 0, 67, 64
1, 335840, Control_c, 0, 64, 50
1, 335840, Control_c, 0, 67, 66
1, 335855, Control_c, 0, 64, 53
1, 335855, Control_c, 0, 67, 69
1, 335870, Control_c, 0, 64, 60
1, 335870, Control_c, 0, 67, 73
1, 335871, Note_off_c, 0, 66, 62
1, 335875, Note_on_c, 0, 61, 52
1, 335875, Note_off_c, 0, 62, 60
1, 335884, Control_c, 0, 64, 65
1, 335884, Control_c, 0, 67, 78
1, 335889, Note_on_c, 0, 65, 72
1, 335899, Control_c, 0, 64, 70
1, 335899, Control_c, 0, 67, 84
1, 335911, Note_off_c, 0, 61, 64
1, 335914, Control_c, 0, 64, 78
1, 335914, Control_c, 0, 67, 89
1, 335929, Control_c, 0, 64, 87
1, 335929, Control_c, 0, 67, 93
1, 335944, Control_c, 0, 64, 95
1, 335944, Control_c, 0, 67, 98
1, 335958, Control_c, 0, 64, 100
1, 335958, Control_c, 0, 67, 103
1, 335973, Control_c, 0, 67, 107
1, 335988, Control_c, 0, 67, 110
1, 336003, Control_c, 0, 64, 98
1, 336003, Control_c, 0, 67, 110
1, 336018, Control_c, 0, 64, 95
1, 336018, Control_c, 0, 67, 112
1, 336033, Control_c, 0, 64, 93
1, 336033, Control_c, 0, 67, 114
1, 336048, Control_c, 0, 64, 91
1, 336048, Control_c, 0, 67, 119
1, 336063, Control_c, 0, 64, 87
1, 336063, Control_c, 0, 67, 126
1, 336077, Control_c, 0, 64, 82
1, 336077, Control_c, 0, 67, 127
1, 336082, Note_on_c, 0, 73, 73
1, 336086, Note_off_c, 0, 74, 61
1, 336090, Note_off_c, 0, 65, 61
1, 336092, Control_c, 0, 64, 77
1, 336107, Control_c, 0, 64, 69
1, 336116, Note_off_c, 0, 73, 61
1, 336121, Control_c, 0, 64, 62
1, 336136, Control_c, 0, 64, 49
1, 336151, Control_c, 0, 64, 11
1, 336166, Control_c, 0, 64, 0
1, 336173, Note_on_c, 0, 42, 59
1, 336174, Note_on_c, 0, 30, 60
1, 336210, Control_c, 0, 64, 43
1, 336225, Control_c, 0, 64, 60
1, 336240, Control_c, 0, 64, 67
1, 336255, Control_c, 0, 64, 73
1, 336269, Control_c, 0, 64, 81
1, 336284, Control_c, 0, 64, 91
1, 336299, Control_c, 0, 64, 101
1, 336301, Note_off_c, 0, 30, 58
1, 336314, Control_c, 0, 64, 110
1, 336319, Note_off_c, 0, 42, 56
1, 336328, Control_c, 0, 64, 115
1, 336342, Note_on_c, 0, 58, 64
1, 336343, Control_c, 0, 64, 116
1, 336409, Note_on_c, 0, 61, 72
1, 336413, Note_off_c, 0, 58, 63
1, 336435, Note_off_c, 0, 61, 69
1, 336447, Control_c, 0, 64, 119
1, 336462, Control_c, 0, 64, 125
1, 336484, Control_c, 0, 64, 127
1, 336496, Note_on_c, 0, 64, 72
1, 336537, Note_off_c, 0, 64, 57
1, 336564, Note_on_c, 0, 67, 73
1, 336574, Control_c, 0, 64, 120
1, 336589, Control_c, 0, 64, 116
1, 336604, Control_c, 0, 64, 113
1, 336619, Control_c, 0, 64, 110
1, 336623, Note_off_c, 0, 67, 62
1, 336633, Control_c, 0, 64, 108
1, 336647, Note_on_c, 0, 76, 76
1, 336648, Control_c, 0, 64, 108
1, 336663, Control_c, 0, 64, 107
1, 336678, Control_c, 0, 64, 106
1, 336693, Control_c, 0, 64, 105
1, 336751, Control_c, 0, 64, 106
1, 336766, Control_c, 0, 64, 106
1, 336796, Control_c, 0, 64, 107
1, 336811, Control_c, 0, 64, 108
1, 336815, Note_off_c, 0, 76, 60
1, 336816, Note_on_c, 0, 46, 44
1, 336820, Note_on_c, 0, 74, 73
1, 336826, Control_c, 0, 64, 109
1, 336841, Control_c, 0, 64, 111
1, 336856, Control_c, 0, 64, 113
1, 336861, Note_off_c, 0, 46, 63
1, 336871, Control_c, 0, 64, 114
1, 336875, Note_on_c, 0, 49, 50
1, 336900, Control_c, 0, 64, 115
1, 336907, Note_on_c, 0, 73, 76
1, 336915, Control_c, 0, 64, 115
1, 336922, Note_off_c, 0, 74, 55
1, 336930, Control_c, 0, 64, 116
1, 336939, Note_off_c, 0, 49, 58
1, 336942, Note_on_c, 0, 52, 63
1, 336945, Control_c, 0, 64, 117
1, 336959, Control_c, 0, 64, 119
1, 336989, Control_c, 0, 64, 120
1, 337041, Note_off_c, 0, 73, 64
1, 337042, Note_off_c, 0, 52, 59
1, 337053, Note_on_c, 0, 55, 63
1, 337057, Note_on_c, 0, 71, 63
1, 337078, Control_c, 0, 64, 122
1, 337107, Control_c, 0, 64, 125
1, 337122, Control_c, 0, 64, 127
1, 337125, Note_off_c, 0, 55, 56
1, 337136, Note_on_c, 0, 70, 76
1, 337137, Note_on_c, 0, 64, 65
1, 337141, Note_off_c, 0, 71, 64
1, 337166, Control_c, 0, 64, 119
1, 337171, Note_off_c, 0, 70, 56
1, 337181, Control_c, 0, 64, 115
1, 337196, Control_c, 0, 64, 110
1, 337211, Control_c, 0, 64, 104
1, 337233, Control_c, 0, 64, 100
1, 337248, Control_c, 0, 64, 96
1, 337263, Control_c, 0, 64, 94
1, 337278, Control_c, 0, 64, 92
1, 337293, Control_c, 0, 64, 90
1, 337307, Control_c, 0, 64, 86
1, 337318, Note_off_c, 0, 64, 42
1, 337322, Control_c, 0, 64, 80
1, 337336, Note_on_c, 0, 67, 83
1, 337337, Control_c, 0, 64, 74
1, 337341, Note_on_c, 0, 62, 52
1, 337343, Note_on_c, 0, 66, 70
1, 337351, Control_c, 0, 64, 70
1, 337366, Control_c, 0, 64, 69
1, 337382, Control_c, 0, 64, 70
1, 337397, Control_c, 0, 64, 71
1, 337412, Control_c, 0, 64, 72
1, 337415, Note_on_c, 0, 64, 69
1, 337425, Note_off_c, 0, 62, 58
1, 337426, Note_on_c, 0, 61, 57
1, 337427, Control_c, 0, 64, 72
1, 337467, Note_off_c, 0, 61, 61
1, 337522, Note_off_c, 0, 64, 63
1, 337537, Note_off_c, 0, 66, 23
1, 337545, Control_c, 0, 64, 72
1, 337580, Note_on_c, 0, 62, 52
1, 337589, Note_on_c, 0, 59, 50
1, 337589, Control_c, 0, 64, 71
1, 337604, Control_c, 0, 64, 71
1, 337619, Control_c, 0, 64, 70
1, 337634, Control_c, 0, 64, 70
1, 337643, Note_off_c, 0, 59, 60
1, 337649, Control_c, 0, 64, 69
1, 337659, Note_off_c, 0, 62, 62
1, 337664, Control_c, 0, 64, 69
1, 337668, Note_on_c, 0, 61, 59
1, 337678, Control_c, 0, 64, 68
1, 337687, Note_on_c, 0, 58, 49
1, 337693, Control_c, 0, 64, 67
1, 337738, Control_c, 0, 64, 67
1, 337767, Control_c, 0, 64, 67
1, 337782, Control_c, 0, 64, 66
1, 337791, Note_off_c, 0, 58, 60
1, 337842, Note_off_c, 0, 61, 60
1, 337842, Control_c, 0, 64, 66
1, 337849, Note_on_c, 0, 55, 44
1, 337854, Note_on_c, 0, 59, 61
1, 337856, Control_c, 0, 64, 64
1, 337871, Control_c, 0, 64, 62
1, 337886, Control_c, 0, 64, 61
1, 337901, Control_c, 0, 64, 62
1, 337916, Control_c, 0, 64, 62
1, 337923, Note_off_c, 0, 59, 59
1, 337930, Control_c, 0, 64, 63
1, 337933, Note_off_c, 0, 55, 62
1, 337935, Note_on_c, 0, 58, 64
1, 337942, Note_on_c, 0, 54, 58
1, 337945, Control_c, 0, 64, 64
1, 337960, Control_c, 0, 64, 67
1, 337981, Note_off_c, 0, 54, 66
1, 337983, Control_c, 0, 64, 71
1, 337997, Control_c, 0, 64, 76
1, 338012, Control_c, 0, 64, 81
1, 338027, Control_c, 0, 64, 84
1, 338042, Control_c, 0, 64, 86
1, 338057, Control_c, 0, 64, 89
1, 338066, Note_off_c, 0, 58, 62
1, 338072, Control_c, 0, 64, 90
1, 338131, Control_c, 0, 64, 90
1, 338146, Control_c, 0, 64, 89
1, 338161, Control_c, 0, 64, 86
1, 338162, Note_on_c, 0, 66, 66
1, 338176, Control_c, 0, 64, 74
1, 338184, Note_off_c, 0, 67, 57
1, 338191, Control_c, 0, 64, 60
1, 338194, Note_off_c, 0, 66, 64
1, 338206, Control_c, 0, 64, 0
1, 338242, Note_on_c, 0, 59, 73
1, 338244, Note_on_c, 0, 66, 74
1, 338248, Note_on_c, 0, 35, 63
1, 338251, Note_on_c, 0, 62, 64
1, 338251, Control_c, 0, 64, 45
1, 338253, Note_on_c, 0, 47, 58
1, 338266, Control_c, 0, 64, 62
1, 338266, Note_off_c, 0, 59, 67
1, 338276, Note_off_c, 0, 47, 59
1, 338277, Note_off_c, 0, 66, 64
1, 338280, Note_off_c, 0, 35, 63
1, 338280, Control_c, 0, 64, 71
1, 338281, Note_off_c, 0, 62, 65
1, 338295, Control_c, 0, 64, 88
1, 338310, Control_c, 0, 64, 127
1, 338453, Note_on_c, 0, 71, 81
1, 338516, Control_c, 0, 64, 87
1, 338527, Note_on_c, 0, 76, 94
1, 338531, Control_c, 0, 64, 41
1, 338534, Note_on_c, 0, 67, 74
1, 338537, Note_on_c, 0, 64, 70
1, 338546, Control_c, 0, 64, 0
1, 338613, Note_on_c, 0, 78, 85
1, 338635, Note_off_c, 0, 76, 66
1, 338681, Note_on_c, 0, 79, 82
1, 338704, Note_off_c, 0, 78, 64
1, 338761, Note_off_c, 0, 64, 64
1, 338761, Note_on_c, 0, 66, 66
1, 338764, Note_on_c, 0, 78, 91
1, 338766, Note_off_c, 0, 67, 65
1, 338768, Note_on_c, 0, 74, 83
1, 338774, Note_on_c, 0, 59, 59
1, 338778, Note_off_c, 0, 71, 63
1, 338778, Note_off_c, 0, 79, 66
1, 338787, Note_off_c, 0, 74, 70
1, 338789, Note_off_c, 0, 66, 66
1, 338796, Note_off_c, 0, 59, 63
1, 338801, Note_off_c, 0, 78, 67
1, 338969, Note_on_c, 0, 71, 77
1, 339012, Note_on_c, 0, 64, 56
1, 339017, Note_on_c, 0, 67, 57
1, 339032, Note_on_c, 0, 76, 72
1, 339114, Note_on_c, 0, 78, 80
1, 339121, Note_off_c, 0, 76, 65
1, 339188, Note_on_c, 0, 79, 70
1, 339190, Note_off_c, 0, 78, 64
1, 339241, Note_off_c, 0, 64, 53
1, 339248, Note_on_c, 0, 74, 76
1, 339252, Note_on_c, 0, 66, 63
1, 339252, Note_on_c, 0, 78, 80
1, 339259, Note_off_c, 0, 67, 62
1, 339260, Note_off_c, 0, 79, 66
1, 339267, Note_on_c, 0, 59, 67
1, 339272, Note_off_c, 0, 71, 60
1, 339272, Note_off_c, 0, 74, 69
1, 339278, Note_off_c, 0, 66, 66
1, 339294, Note_off_c, 0, 78, 65
1, 339296, Note_off_c, 0, 59, 65
1, 339438, Note_on_c, 0, 67, 67
1, 339534, Note_on_c, 0, 72, 63
1, 339536, Note_on_c, 0, 48, 53
1, 339565, Note_off_c, 0, 48, 63
1, 339600, Note_off_c, 0, 72, 65
1, 339613, Note_on_c, 0, 74, 56
1, 339645, Note_off_c, 0, 67, 54
1, 339691, Note_on_c, 0, 76, 61
1, 339694, Note_off_c, 0, 74, 60
1, 339765, Note_on_c, 0, 74, 65
1, 339768, Note_off_c, 0, 76, 62
1, 339771, Note_on_c, 0, 54, 62
1, 339774, Note_on_c, 0, 66, 62
1, 339810, Note_off_c, 0, 74, 60
1, 339810, Note_off_c, 0, 54, 64
1, 339811, Note_off_c, 0, 66, 64
1, 339940, Note_on_c, 0, 64, 68
1, 340024, Note_on_c, 0, 70, 68
1, 340057, Note_on_c, 0, 42, 38
1, 340102, Note_on_c, 0, 71, 65
1, 340108, Note_off_c, 0, 70, 61
1, 340127, Note_off_c, 0, 42, 54
1, 340173, Note_off_c, 0, 71, 61
1, 340180, Note_on_c, 0, 73, 69
1, 340190, Note_off_c, 0, 64, 62
1, 340260, Note_off_c, 0, 73, 62
1, 340266, Note_on_c, 0, 62, 72
1, 340266, Note_on_c, 0, 71, 82
1, 340292, Note_off_c, 0, 71, 65
1, 340292, Note_off_c, 0, 62, 68
1, 340308, Note_on_c, 0, 47, 6
1, 340355, Note_off_c, 0, 47, 28
1, 340362, Control_c, 0, 64, 18
1, 340376, Control_c, 0, 64, 30
1, 340391, Control_c, 0, 64, 40
1, 340406, Control_c, 0, 64, 43
1, 340421, Control_c, 0, 64, 43
1, 340436, Control_c, 0, 64, 44
1, 340451, Control_c, 0, 64, 45
1, 340455, Note_on_c, 0, 59, 75
1, 340466, Control_c, 0, 64, 46
1, 340481, Control_c, 0, 64, 46
1, 340510, Control_c, 0, 64, 47
1, 340524, Note_on_c, 0, 64, 86
1, 340525, Note_on_c, 0, 55, 65
1, 340525, Control_c, 0, 64, 47
1, 340533, Note_on_c, 0, 52, 57
1, 340540, Control_c, 0, 64, 48
1, 340555, Control_c, 0, 64, 50
1, 340570, Control_c, 0, 64, 52
1, 340585, Control_c, 0, 64, 54
1, 340600, Control_c, 0, 64, 57
1, 340608, Note_on_c, 0, 66, 83
1, 340615, Control_c, 0, 64, 59
1, 340630, Control_c, 0, 64, 60
1, 340632, Note_off_c, 0, 64, 63
1, 340644, Control_c, 0, 64, 62
1, 340659, Control_c, 0, 64, 63
1, 340673, Note_on_c, 0, 67, 80
1, 340674, Control_c, 0, 64, 63
1, 340698, Note_off_c, 0, 66, 64
1, 340704, Control_c, 0, 64, 63
1, 340719, Control_c, 0, 64, 62
1, 340734, Note_off_c, 0, 52, 60
1, 340734, Control_c, 0, 64, 61
1, 340748, Control_c, 0, 64, 59
1, 340751, Note_on_c, 0, 54, 70
1, 340751, Note_on_c, 0, 66, 85
1, 340759, Note_off_c, 0, 55, 63
1, 340761, Note_on_c, 0, 62, 75
1, 340763, Control_c, 0, 64, 55
1, 340767, Note_on_c, 0, 47, 58
1, 340769, Note_off_c, 0, 59, 65
1, 340769, Note_off_c, 0, 67, 65
1, 340778, Control_c, 0, 64, 50
1, 340786, Note_off_c, 0, 62, 69
1, 340790, Note_off_c, 0, 54, 61
1, 340792, Control_c, 0, 64, 46
1, 340796, Note_off_c, 0, 66, 66
1, 340801, Note_off_c, 0, 47, 63
1, 340807, Control_c, 0, 64, 43
1, 340822, Control_c, 0, 64, 41
1, 340837, Control_c, 0, 64, 37
1, 340852, Control_c, 0, 64, 32
1, 340866, Control_c, 0, 64, 30
1, 340881, Control_c, 0, 64, 30
1, 340940, Note_on_c, 0, 59, 79
1, 340955, Control_c, 0, 64, 30
1, 340978, Control_c, 0, 64, 31
1, 340992, Control_c, 0, 64, 32
1, 341007, Control_c, 0, 64, 33
1, 341010, Note_on_c, 0, 52, 53
1, 341017, Note_on_c, 0, 55, 48
1, 341022, Control_c, 0, 64, 34
1, 341032, Note_on_c, 0, 64, 87
1, 341037, Control_c, 0, 64, 35
1, 341052, Control_c, 0, 64, 36
1, 341066, Control_c, 0, 64, 36
1, 341096, Control_c, 0, 64, 37
1, 341109, Note_on_c, 0, 66, 83
1, 341111, Control_c, 0, 64, 38
1, 341125, Control_c, 0, 64, 38
1, 341128, Note_off_c, 0, 64, 65
1, 341140, Control_c, 0, 64, 39
1, 341170, Control_c, 0, 64, 40
1, 341176, Note_on_c, 0, 67, 82
1, 341203, Note_off_c, 0, 66, 64
1, 341229, Control_c, 0, 64, 40
1, 341256, Note_off_c, 0, 52, 45
1, 341262, Note_on_c, 0, 66, 85
1, 341264, Note_off_c, 0, 55, 63
1, 341267, Note_on_c, 0, 54, 55
1, 341270, Note_off_c, 0, 67, 66
1, 341273, Note_on_c, 0, 47, 61
1, 341276, Note_off_c, 0, 59, 66
1, 341276, Note_on_c, 0, 62, 61
1, 341284, Note_off_c, 0, 66, 69
1, 341291, Note_off_c, 0, 54, 62
1, 341297, Note_off_c, 0, 62, 62
1, 341311, Note_off_c, 0, 47, 65
1, 341318, Control_c, 0, 64, 41
1, 341446, Note_on_c, 0, 55, 64
1, 341482, Control_c, 0, 64, 41
1, 341512, Note_on_c, 0, 36, 59
1, 341537, Note_on_c, 0, 60, 61
1, 341544, Note_off_c, 0, 36, 63
1, 341604, Note_on_c, 0, 62, 59
1, 341610, Note_off_c, 0, 60, 66
1, 341674, Note_off_c, 0, 55, 61
1, 341685, Note_on_c, 0, 64, 66
1, 341714, Note_off_c, 0, 62, 60
1, 341782, Note_on_c, 0, 62, 63
1, 341783, Note_on_c, 0, 42, 57
1, 341787, Note_off_c, 0, 64, 62
1, 341792, Note_on_c, 0, 54, 60
1, 341815, Note_off_c, 0, 42, 63
1, 341831, Note_off_c, 0, 54, 64
1, 341843, Note_off_c, 0, 62, 63
1, 341861, Control_c, 0, 64, 42
1, 341905, Control_c, 0, 64, 42
1, 341949, Control_c, 0, 64, 43
1, 341979, Control_c, 0, 64, 43
1, 341992, Note_on_c, 0, 52, 57
1, 342009, Control_c, 0, 64, 44
1, 342038, Control_c, 0, 64, 44
1, 342068, Control_c, 0, 64, 45
1, 342083, Control_c, 0, 64, 46
1, 342097, Control_c, 0, 64, 47
1, 342105, Note_on_c, 0, 58, 52
1, 342112, Control_c, 0, 64, 49
1, 342119, Note_on_c, 0, 30, 38
1, 342127, Control_c, 0, 64, 52
1, 342141, Control_c, 0, 64, 55
1, 342156, Control_c, 0, 64, 59
1, 342173, Control_c, 0, 64, 61
1, 342176, Note_off_c, 0, 30, 56
1, 342187, Control_c, 0, 64, 63
1, 342202, Control_c, 0, 64, 64
1, 342217, Control_c, 0, 64, 65
1, 342232, Control_c, 0, 64, 66
1, 342237, Note_on_c, 0, 59, 52
1, 342246, Control_c, 0, 64, 69
1, 342261, Control_c, 0, 64, 73
1, 342263, Note_off_c, 0, 58, 38
1, 342276, Control_c, 0, 64, 78
1, 342291, Control_c, 0, 64, 85
1, 342306, Control_c, 0, 64, 93
1, 342320, Control_c, 0, 64, 102
1, 342335, Control_c, 0, 64, 112
1, 342350, Control_c, 0, 64, 119
1, 342353, Note_off_c, 0, 59, 58
1, 342362, Note_on_c, 0, 61, 52
1, 342364, Control_c, 0, 64, 127
1, 342439, Control_c, 0, 64, 122
1, 342454, Control_c, 0, 64, 117
1, 342476, Control_c, 0, 64, 112
1, 342491, Control_c, 0, 64, 108
1, 342506, Control_c, 0, 64, 103
1, 342520, Control_c, 0, 64, 99
1, 342535, Control_c, 0, 64, 95
1, 342549, Note_off_c, 0, 52, 37
1, 342550, Control_c, 0, 64, 92
1, 342565, Control_c, 0, 64, 88
1, 342573, Note_off_c, 0, 61, 40
1, 342579, Control_c, 0, 64, 85
1, 342594, Control_c, 0, 64, 81
1, 342609, Control_c, 0, 64, 75
1, 342612, Note_on_c, 0, 43, 44
1, 342613, Note_on_c, 0, 31, 41
1, 342624, Control_c, 0, 64, 64
1, 342639, Control_c, 0, 64, 39
1, 342654, Control_c, 0, 64, 0
1, 342743, Control_c, 0, 64, 56
1, 342758, Control_c, 0, 64, 68
1, 342766, Note_off_c, 0, 31, 57
1, 342772, Control_c, 0, 64, 83
1, 342787, Control_c, 0, 64, 127
1, 342802, Note_off_c, 0, 43, 63
1, 343015, Note_on_c, 0, 50, 27
1, 343095, Poly_aftertouch_c, 0, 52, 127
1, 343107, Note_on_c, 0, 55, 55
1, 343128, Poly_aftertouch_c, 0, 52, 0
1, 343168, Note_off_c, 0, 50, 44
1, 343230, Note_on_c, 0, 59, 48
1, 343354, Note_on_c, 0, 65, 43
1, 343572, Note_off_c, 0, 65, 55
1, 343574, Note_on_c, 0, 67, 81
1, 343587, Note_off_c, 0, 55, 55
1, 343636, Note_off_c, 0, 59, 50
1, 343816, Note_on_c, 0, 50, 49
1, 343921, Note_on_c, 0, 55, 53
1, 344016, Note_on_c, 0, 59, 54
1, 344096, Note_off_c, 0, 50, 26
1, 344129, Note_on_c, 0, 65, 58
1, 344328, Note_off_c, 0, 65, 55
1, 344346, Note_on_c, 0, 68, 81
1, 344393, Note_off_c, 0, 67, 58
1, 344462, Control_c, 0, 64, 125
1, 344477, Control_c, 0, 64, 116
1, 344480, Note_off_c, 0, 59, 37
1, 344491, Control_c, 0, 64, 112
1, 344506, Control_c, 0, 64, 110
1, 344521, Control_c, 0, 64, 108
1, 344535, Control_c, 0, 64, 106
1, 344550, Control_c, 0, 64, 104
1, 344567, Control_c, 0, 64, 101
1, 344578, Note_off_c, 0, 55, 42
1, 344579, Note_on_c, 0, 50, 59
1, 344581, Control_c, 0, 64, 95
1, 344596, Control_c, 0, 64, 85
1, 344611, Control_c, 0, 64, 73
1, 344626, Control_c, 0, 64, 65
1, 344640, Control_c, 0, 64, 62
1, 344655, Control_c, 0, 64, 64
1, 344670, Control_c, 0, 64, 68
1, 344677, Note_on_c, 0, 55, 59
1, 344685, Control_c, 0, 64, 76
1, 344700, Control_c, 0, 64, 89
1, 344721, Control_c, 0, 64, 117
1, 344736, Control_c, 0, 64, 127
1, 344755, Note_off_c, 0, 50, 37
1, 344760, Note_on_c, 0, 59, 62
1, 344842, Note_on_c, 0, 65, 65
1, 344927, Note_off_c, 0, 65, 55
1, 344956, Note_on_c, 0, 74, 89
1, 345010, Note_on_c, 0, 67, 38
1, 345014, Note_off_c, 0, 68, 54
1, 345024, Note_off_c, 0, 59, 55
1, 345077, Control_c, 0, 64, 119
1, 345092, Control_c, 0, 64, 108
1, 345106, Control_c, 0, 64, 101
1, 345121, Control_c, 0, 64, 96
1, 345134, Note_off_c, 0, 55, 41
1, 345136, Control_c, 0, 64, 86
1, 345151, Control_c, 0, 64, 78
1, 345165, Control_c, 0, 64, 73
1, 345187, Note_on_c, 0, 50, 38
1, 345195, Control_c, 0, 64, 76
1, 345210, Control_c, 0, 64, 81
1, 345225, Control_c, 0, 64, 89
1, 345238, Poly_aftertouch_c, 0, 48, 127
1, 345239, Control_c, 0, 64, 95
1, 345245, Note_on_c, 0, 55, 49
1, 345254, Control_c, 0, 64, 99
1, 345262, Poly_aftertouch_c, 0, 48, 0
1, 345269, Control_c, 0, 64, 101
1, 345284, Control_c, 0, 64, 104
1, 345299, Control_c, 0, 64, 107
1, 345313, Control_c, 0, 64, 110
1, 345319, Note_off_c, 0, 50, 33
1, 345328, Control_c, 0, 64, 111
1, 345330, Note_on_c, 0, 59, 56
1, 345343, Control_c, 0, 64, 112
1, 345359, Control_c, 0, 64, 113
1, 345374, Control_c, 0, 64, 114
1, 345389, Control_c, 0, 64, 115
1, 345420, Note_on_c, 0, 65, 56
1, 345448, Control_c, 0, 64, 114
1, 345470, Control_c, 0, 64, 112
1, 345480, Note_off_c, 0, 65, 49
1, 345485, Control_c, 0, 64, 110
1, 345500, Control_c, 0, 64, 109
1, 345515, Control_c, 0, 64, 105
1, 345530, Control_c, 0, 64, 102
1, 345534, Note_on_c, 0, 76, 84
1, 345544, Control_c, 0, 64, 100
1, 345559, Control_c, 0, 64, 98
1, 345574, Control_c, 0, 64, 95
1, 345579, Note_off_c, 0, 74, 57
1, 345588, Control_c, 0, 64, 94
1, 345603, Control_c, 0, 64, 92
1, 345611, Note_off_c, 0, 59, 40
1, 345618, Control_c, 0, 64, 92
1, 345677, Control_c, 0, 64, 91
1, 345692, Control_c, 0, 64, 91
1, 345707, Control_c, 0, 64, 90
1, 345710, Note_off_c, 0, 55, 42
1, 345722, Control_c, 0, 64, 90
1, 345728, Note_on_c, 0, 50, 53
1, 345819, Note_on_c, 0, 55, 54
1, 345822, Note_off_c, 0, 50, 52
1, 345903, Note_on_c, 0, 59, 51
1, 345989, Note_on_c, 0, 65, 56
1, 346033, Control_c, 0, 64, 89
1, 346042, Note_off_c, 0, 65, 52
1, 346048, Control_c, 0, 64, 89
1, 346062, Control_c, 0, 64, 88
1, 346077, Control_c, 0, 64, 87
1, 346091, Note_on_c, 0, 74, 76
1, 346092, Control_c, 0, 64, 87
1, 346107, Control_c, 0, 64, 86
1, 346122, Control_c, 0, 64, 85
1, 346136, Control_c, 0, 64, 84
1, 346138, Note_off_c, 0, 76, 59
1, 346152, Control_c, 0, 64, 83
1, 346167, Control_c, 0, 64, 82
1, 346170, Note_off_c, 0, 59, 40
1, 346182, Control_c, 0, 64, 81
1, 346197, Control_c, 0, 64, 80
1, 346259, Note_off_c, 0, 55, 39
1, 346263, Control_c, 0, 64, 79
1, 346318, Note_on_c, 0, 50, 49
1, 346323, Control_c, 0, 64, 79
1, 346353, Control_c, 0, 64, 78
1, 346427, Note_on_c, 0, 55, 38
1, 346519, Note_on_c, 0, 59, 38
1, 346530, Control_c, 0, 64, 79
1, 346559, Control_c, 0, 64, 79
1, 346574, Control_c, 0, 64, 80
1, 346626, Note_on_c, 0, 65, 38
1, 346728, Note_off_c, 0, 50, 29
1, 346737, Control_c, 0, 64, 80
1, 346748, Note_on_c, 0, 72, 66
1, 346752, Control_c, 0, 64, 81
1, 346767, Control_c, 0, 64, 82
1, 346782, Control_c, 0, 64, 83
1, 346790, Note_off_c, 0, 74, 60
1, 346797, Control_c, 0, 64, 84
1, 346805, Note_off_c, 0, 55, 41
1, 346811, Control_c, 0, 64, 87
1, 346826, Control_c, 0, 64, 89
1, 346830, Note_off_c, 0, 59, 41
1, 346841, Control_c, 0, 64, 91
1, 346856, Control_c, 0, 64, 94
1, 346871, Control_c, 0, 64, 96
1, 346872, Note_off_c, 0, 65, 35
1, 346885, Control_c, 0, 64, 98
1, 346900, Control_c, 0, 64, 100
1, 346915, Control_c, 0, 64, 100
1, 346945, Control_c, 0, 64, 101
1, 347032, Note_on_c, 0, 50, 41
1, 347056, Control_c, 0, 64, 100
1, 347071, Control_c, 0, 64, 99
1, 347086, Control_c, 0, 64, 97
1, 347101, Control_c, 0, 64, 96
1, 347116, Control_c, 0, 64, 94
1, 347131, Control_c, 0, 64, 93
1, 347146, Control_c, 0, 64, 92
1, 347161, Control_c, 0, 64, 91
1, 347176, Control_c, 0, 64, 89
1, 347190, Control_c, 0, 64, 86
1, 347195, Note_on_c, 0, 56, 43
1, 347205, Control_c, 0, 64, 84
1, 347220, Control_c, 0, 64, 80
1, 347234, Control_c, 0, 64, 76
1, 347249, Control_c, 0, 64, 72
1, 347264, Control_c, 0, 64, 68
1, 347279, Control_c, 0, 64, 65
1, 347294, Control_c, 0, 64, 65
1, 347308, Control_c, 0, 64, 65
1, 347323, Control_c, 0, 64, 66
1, 347338, Control_c, 0, 64, 68
1, 347352, Note_on_c, 0, 60, 43
1, 347353, Control_c, 0, 64, 71
1, 347368, Control_c, 0, 64, 77
1, 347382, Control_c, 0, 64, 83
1, 347397, Control_c, 0, 64, 89
1, 347412, Control_c, 0, 64, 91
1, 347427, Control_c, 0, 64, 93
1, 347441, Control_c, 0, 64, 95
1, 347456, Control_c, 0, 64, 99
1, 347471, Control_c, 0, 64, 105
1, 347486, Control_c, 0, 64, 113
1, 347495, Note_on_c, 0, 65, 40
1, 347501, Control_c, 0, 64, 120
1, 347515, Control_c, 0, 64, 125
1, 347590, Control_c, 0, 64, 122
1, 347605, Control_c, 0, 64, 117
1, 347620, Control_c, 0, 64, 115
1, 347634, Control_c, 0, 64, 112
1, 347649, Control_c, 0, 64, 109
1, 347664, Control_c, 0, 64, 105
1, 347672, Note_on_c, 0, 71, 57
1, 347679, Control_c, 0, 64, 102
1, 347694, Control_c, 0, 64, 99
1, 347715, Control_c, 0, 64, 96
1, 347730, Control_c, 0, 64, 94
1, 347732, Note_off_c, 0, 72, 61
1, 347740, Note_off_c, 0, 50, 37
1, 347745, Control_c, 0, 64, 90
1, 347747, Note_off_c, 0, 60, 35
1, 347757, Note_off_c, 0, 56, 42
1, 347761, Control_c, 0, 64, 88
1, 347776, Control_c, 0, 64, 86
1, 347793, Note_off_c, 0, 65, 28
1, 347805, Control_c, 0, 64, 85
1, 347894, Control_c, 0, 64, 85
1, 347924, Control_c, 0, 64, 84
1, 347939, Control_c, 0, 64, 84
1, 347940, Note_on_c, 0, 50, 41
1, 347954, Control_c, 0, 64, 83
1, 347969, Control_c, 0, 64, 81
1, 347983, Control_c, 0, 64, 80
1, 347998, Control_c, 0, 64, 78
1, 348013, Control_c, 0, 64, 76
1, 348028, Control_c, 0, 64, 71
1, 348043, Control_c, 0, 64, 65
1, 348057, Control_c, 0, 64, 57
1, 348072, Control_c, 0, 64, 44
1, 348087, Control_c, 0, 64, 39
1, 348102, Control_c, 0, 64, 41
1, 348115, Note_on_c, 0, 55, 38
1, 348117, Control_c, 0, 64, 53
1, 348131, Control_c, 0, 64, 62
1, 348146, Control_c, 0, 64, 67
1, 348161, Control_c, 0, 64, 73
1, 348176, Control_c, 0, 64, 82
1, 348190, Control_c, 0, 64, 95
1, 348205, Control_c, 0, 64, 127
1, 348246, Note_on_c, 0, 59, 39
1, 348382, Note_off_c, 0, 50, 32
1, 348401, Note_on_c, 0, 65, 50
1, 348433, Note_off_c, 0, 65, 64
1, 348440, Note_off_c, 0, 59, 46
1, 348470, Note_off_c, 0, 55, 42
1, 348732, Control_c, 0, 64, 98
1, 348741, Note_on_c, 0, 36, 55
1, 348747, Control_c, 0, 64, 65
1, 348754, Note_off_c, 0, 67, 56
1, 348761, Control_c, 0, 64, 0
1, 348773, Note_off_c, 0, 71, 61
1, 348821, Control_c, 0, 64, 19
1, 348836, Control_c, 0, 64, 67
1, 348851, Control_c, 0, 64, 115
1, 348866, Control_c, 0, 64, 127
1, 348882, Note_off_c, 0, 36, 61
1, 349113, Note_on_c, 0, 55, 49
1, 349221, Note_on_c, 0, 60, 50
1, 349301, Note_on_c, 0, 64, 61
1, 349317, Control_c, 0, 64, 125
1, 349332, Control_c, 0, 64, 119
1, 349363, Control_c, 0, 64, 122
1, 349408, Note_on_c, 0, 70, 50
1, 349451, Control_c, 0, 64, 120
1, 349466, Control_c, 0, 64, 117
1, 349481, Control_c, 0, 64, 116
1, 349487, Note_on_c, 0, 72, 75
1, 349496, Control_c, 0, 64, 115
1, 349510, Control_c, 0, 64, 114
1, 349525, Control_c, 0, 64, 110
1, 349532, Note_off_c, 0, 70, 56
1, 349539, Note_off_c, 0, 55, 43
1, 349540, Control_c, 0, 64, 106
1, 349555, Control_c, 0, 64, 104
1, 349570, Control_c, 0, 64, 103
1, 349579, Note_off_c, 0, 64, 51
1, 349599, Note_off_c, 0, 60, 43
1, 349674, Control_c, 0, 64, 103
1, 349689, Control_c, 0, 64, 104
1, 349703, Control_c, 0, 64, 105
1, 349706, Note_on_c, 0, 55, 56
1, 349733, Control_c, 0, 64, 106
1, 349748, Control_c, 0, 64, 109
1, 349763, Control_c, 0, 64, 112
1, 349777, Control_c, 0, 64, 120
1, 349792, Control_c, 0, 64, 127
1, 349810, Note_on_c, 0, 60, 43
1, 349852, Note_on_c, 0, 64, 58
1, 349949, Note_on_c, 0, 70, 60
1, 349993, Control_c, 0, 64, 119
1, 350007, Control_c, 0, 64, 112
1, 350022, Control_c, 0, 64, 108
1, 350037, Control_c, 0, 64, 106
1, 350052, Control_c, 0, 64, 105
1, 350052, Note_on_c, 0, 73, 91
1, 350067, Control_c, 0, 64, 104
1, 350075, Note_off_c, 0, 70, 56
1, 350082, Control_c, 0, 64, 104
1, 350091, Note_off_c, 0, 72, 58
1, 350097, Control_c, 0, 64, 102
1, 350103, Note_off_c, 0, 55, 38
1, 350111, Control_c, 0, 64, 101
1, 350126, Note_off_c, 0, 60, 32
1, 350126, Control_c, 0, 64, 100
1, 350141, Note_off_c, 0, 64, 49
1, 350141, Control_c, 0, 64, 100
1, 350186, Control_c, 0, 64, 99
1, 350201, Control_c, 0, 64, 98
1, 350216, Control_c, 0, 64, 98
1, 350239, Note_on_c, 0, 55, 53
1, 350246, Control_c, 0, 64, 98
1, 350260, Control_c, 0, 64, 100
1, 350290, Control_c, 0, 64, 101
1, 350305, Control_c, 0, 64, 102
1, 350322, Note_on_c, 0, 60, 45
1, 350364, Control_c, 0, 64, 102
1, 350379, Control_c, 0, 64, 103
1, 350394, Control_c, 0, 64, 104
1, 350399, Note_on_c, 0, 64, 59
1, 350408, Control_c, 0, 64, 106
1, 350423, Control_c, 0, 64, 107
1, 350482, Control_c, 0, 64, 106
1, 350496, Note_on_c, 0, 70, 52
1, 350497, Control_c, 0, 64, 105
1, 350512, Control_c, 0, 64, 104
1, 350526, Control_c, 0, 64, 103
1, 350541, Control_c, 0, 64, 102
1, 350556, Control_c, 0, 64, 101
1, 350571, Control_c, 0, 64, 100
1, 350586, Control_c, 0, 64, 98
1, 350598, Note_on_c, 0, 79, 86
1, 350601, Control_c, 0, 64, 95
1, 350616, Control_c, 0, 64, 89
1, 350619, Note_on_c, 0, 72, 64
1, 350630, Control_c, 0, 64, 76
1, 350638, Note_off_c, 0, 73, 61
1, 350645, Control_c, 0, 64, 65
1, 350660, Control_c, 0, 64, 54
1, 350675, Control_c, 0, 64, 55
1, 350680, Note_off_c, 0, 70, 53
1, 350690, Control_c, 0, 64, 61
1, 350711, Control_c, 0, 64, 67
1, 350714, Note_off_c, 0, 55, 40
1, 350726, Control_c, 0, 64, 77
1, 350741, Control_c, 0, 64, 94
1, 350753, Note_off_c, 0, 64, 38
1, 350756, Control_c, 0, 64, 127
1, 350760, Note_off_c, 0, 60, 39
1, 350830, Note_on_c, 0, 55, 53
1, 350917, Note_on_c, 0, 60, 37
1, 351012, Note_on_c, 0, 64, 55
1, 351109, Note_on_c, 0, 70, 42
1, 351179, Note_off_c, 0, 55, 21
1, 351191, Note_on_c, 0, 81, 78
1, 351192, Note_off_c, 0, 70, 53
1, 351240, Note_off_c, 0, 79, 61
1, 351262, Note_off_c, 0, 64, 35
1, 351269, Note_off_c, 0, 60, 35
1, 351334, Control_c, 0, 64, 116
1, 351349, Control_c, 0, 64, 112
1, 351364, Control_c, 0, 64, 110
1, 351379, Control_c, 0, 64, 107
1, 351391, Note_on_c, 0, 55, 37
1, 351393, Control_c, 0, 64, 104
1, 351408, Control_c, 0, 64, 103
1, 351423, Control_c, 0, 64, 103
1, 351438, Control_c, 0, 64, 101
1, 351460, Control_c, 0, 64, 98
1, 351474, Control_c, 0, 64, 95
1, 351477, Note_on_c, 0, 60, 44
1, 351489, Control_c, 0, 64, 95
1, 351534, Control_c, 0, 64, 94
1, 351547, Note_on_c, 0, 64, 51
1, 351608, Control_c, 0, 64, 95
1, 351623, Control_c, 0, 64, 95
1, 351629, Note_off_c, 0, 55, 19
1, 351638, Control_c, 0, 64, 96
1, 351640, Note_on_c, 0, 70, 52
1, 351712, Control_c, 0, 64, 95
1, 351727, Note_on_c, 0, 79, 74
1, 351740, Note_off_c, 0, 70, 58
1, 351742, Control_c, 0, 64, 94
1, 351757, Control_c, 0, 64, 94
1, 351763, Note_off_c, 0, 81, 61
1, 351772, Control_c, 0, 64, 93
1, 351785, Note_off_c, 0, 64, 36
1, 351787, Control_c, 0, 64, 92
1, 351796, Note_off_c, 0, 60, 36
1, 351802, Control_c, 0, 64, 91
1, 351817, Control_c, 0, 64, 90
1, 351832, Control_c, 0, 64, 89
1, 351847, Control_c, 0, 64, 88
1, 351861, Control_c, 0, 64, 88
1, 351876, Control_c, 0, 64, 87
1, 351891, Control_c, 0, 64, 86
1, 351905, Control_c, 0, 64, 85
1, 351920, Control_c, 0, 64, 84
1, 351921, Note_on_c, 0, 55, 39
1, 351935, Control_c, 0, 64, 83
1, 351950, Control_c, 0, 64, 82
1, 351965, Control_c, 0, 64, 82
1, 352024, Control_c, 0, 64, 81
1, 352031, Note_on_c, 0, 60, 37
1, 352039, Control_c, 0, 64, 81
1, 352088, Note_on_c, 0, 64, 49
1, 352187, Note_on_c, 0, 70, 49
1, 352223, Control_c, 0, 64, 80
1, 352238, Control_c, 0, 64, 79
1, 352253, Control_c, 0, 64, 79
1, 352268, Note_off_c, 0, 55, 24
1, 352276, Note_off_c, 0, 70, 38
1, 352307, Note_on_c, 0, 77, 68
1, 352356, Note_off_c, 0, 79, 60
1, 352364, Note_off_c, 0, 64, 32
1, 352445, Note_off_c, 0, 60, 39
1, 352514, Note_on_c, 0, 55, 38
1, 352535, Control_c, 0, 64, 78
1, 352565, Control_c, 0, 64, 78
1, 352580, Control_c, 0, 64, 77
1, 352595, Control_c, 0, 64, 75
1, 352610, Control_c, 0, 64, 71
1, 352625, Control_c, 0, 64, 66
1, 352640, Control_c, 0, 64, 59
1, 352654, Control_c, 0, 64, 55
1, 352669, Control_c, 0, 64, 58
1, 352672, Note_on_c, 0, 61, 33
1, 352684, Control_c, 0, 64, 62
1, 352699, Control_c, 0, 64, 66
1, 352714, Control_c, 0, 64, 73
1, 352728, Control_c, 0, 64, 83
1, 352743, Control_c, 0, 64, 92
1, 352758, Control_c, 0, 64, 96
1, 352773, Control_c, 0, 64, 96
1, 352797, Note_on_c, 0, 65, 42
1, 352817, Control_c, 0, 64, 97
1, 352832, Control_c, 0, 64, 98
1, 352876, Control_c, 0, 64, 98
1, 352891, Control_c, 0, 64, 99
1, 352906, Control_c, 0, 64, 100
1, 352920, Control_c, 0, 64, 101
1, 352931, Note_on_c, 0, 70, 22
1, 352988, Control_c, 0, 64, 100
1, 353002, Control_c, 0, 64, 100
1, 353017, Control_c, 0, 64, 99
1, 353032, Control_c, 0, 64, 99
1, 353047, Control_c, 0, 64, 98
1, 353061, Control_c, 0, 64, 96
1, 353065, Note_on_c, 0, 76, 48
1, 353076, Control_c, 0, 64, 94
1, 353083, Note_off_c, 0, 65, 35
1, 353091, Control_c, 0, 64, 93
1, 353098, Note_off_c, 0, 70, 42
1, 353106, Note_off_c, 0, 61, 34
1, 353106, Control_c, 0, 64, 92
1, 353110, Note_off_c, 0, 77, 53
1, 353114, Note_off_c, 0, 55, 42
1, 353120, Control_c, 0, 64, 91
1, 353135, Control_c, 0, 64, 90
1, 353150, Control_c, 0, 64, 89
1, 353194, Control_c, 0, 64, 89
1, 353209, Control_c, 0, 64, 88
1, 353224, Control_c, 0, 64, 88
1, 353239, Control_c, 0, 64, 87
1, 353254, Control_c, 0, 64, 87
1, 353283, Control_c, 0, 64, 86
1, 353298, Control_c, 0, 64, 85
1, 353313, Control_c, 0, 64, 84
1, 353316, Note_on_c, 0, 55, 40
1, 353328, Control_c, 0, 64, 84
1, 353343, Control_c, 0, 64, 83
1, 353358, Control_c, 0, 64, 82
1, 353373, Control_c, 0, 64, 81
1, 353388, Control_c, 0, 64, 78
1, 353403, Control_c, 0, 64, 76
1, 353418, Control_c, 0, 64, 74
1, 353433, Control_c, 0, 64, 73
1, 353447, Control_c, 0, 64, 72
1, 353462, Control_c, 0, 64, 68
1, 353477, Control_c, 0, 64, 63
1, 353492, Control_c, 0, 64, 53
1, 353507, Control_c, 0, 64, 33
1, 353522, Control_c, 0, 64, 31
1, 353537, Control_c, 0, 64, 42
1, 353541, Note_on_c, 0, 60, 30
1, 353551, Control_c, 0, 64, 55
1, 353566, Control_c, 0, 64, 62
1, 353581, Control_c, 0, 64, 67
1, 353596, Control_c, 0, 64, 72
1, 353611, Control_c, 0, 64, 80
1, 353625, Control_c, 0, 64, 92
1, 353640, Control_c, 0, 64, 111
1, 353655, Control_c, 0, 64, 127
1, 353754, Note_on_c, 0, 64, 37
1, 353862, Note_off_c, 0, 55, 33
1, 354103, Note_on_c, 0, 70, 36
1, 354125, Note_off_c, 0, 72, 56
1, 354148, Note_off_c, 0, 64, 60
1, 354152, Note_off_c, 0, 76, 59
1, 354163, Note_off_c, 0, 70, 63
1, 354190, Note_off_c, 0, 60, 40
1, 354404, Control_c, 0, 64, 92
1, 354419, Control_c, 0, 64, 73
1, 354434, Control_c, 0, 64, 62
1, 354455, Control_c, 0, 64, 54
1, 354470, Control_c, 0, 64, 57
1, 354485, Control_c, 0, 64, 62
1, 354500, Control_c, 0, 64, 67
1, 354512, Note_on_c, 0, 41, 55
1, 354512, Note_on_c, 0, 53, 54
1, 354515, Control_c, 0, 64, 75
1, 354530, Control_c, 0, 64, 94
1, 354541, Note_off_c, 0, 41, 55
1, 354544, Control_c, 0, 64, 127
1, 354548, Note_off_c, 0, 53, 65
1, 354723, Note_on_c, 0, 72, 57
1, 354738, Note_on_c, 0, 60, 45
1, 354752, Control_c, 0, 64, 88
1, 354762, Note_off_c, 0, 72, 60
1, 354767, Control_c, 0, 64, 69
1, 354769, Note_off_c, 0, 60, 60
1, 354781, Note_on_c, 0, 65, 58
1, 354781, Control_c, 0, 64, 55
1, 354783, Note_on_c, 0, 77, 64
1, 354796, Control_c, 0, 64, 16
1, 354811, Control_c, 0, 64, 0
1, 354820, Note_off_c, 0, 65, 64
1, 354848, Note_on_c, 0, 79, 66
1, 354853, Note_off_c, 0, 77, 54
1, 354880, Note_on_c, 0, 67, 40
1, 354908, Note_off_c, 0, 67, 51
1, 354917, Note_on_c, 0, 80, 70
1, 354926, Note_off_c, 0, 79, 61
1, 354945, Note_on_c, 0, 68, 49
1, 354977, Note_off_c, 0, 68, 62
1, 354982, Note_on_c, 0, 67, 65
1, 354986, Note_on_c, 0, 74, 65
1, 354988, Note_off_c, 0, 80, 64
1, 354992, Note_on_c, 0, 84, 75
1, 355007, Note_on_c, 0, 60, 54
1, 355010, Note_off_c, 0, 67, 66
1, 355016, Note_off_c, 0, 74, 64
1, 355030, Note_off_c, 0, 60, 60
1, 355071, Note_off_c, 0, 84, 59
1, 355157, Note_on_c, 0, 82, 75
1, 355240, Note_on_c, 0, 80, 77
1, 355244, Note_off_c, 0, 82, 62
1, 355257, Note_on_c, 0, 65, 55
1, 355257, Note_on_c, 0, 72, 50
1, 355258, Note_on_c, 0, 68, 61
1, 355278, Note_off_c, 0, 72, 61
1, 355288, Note_off_c, 0, 65, 64
1, 355291, Note_off_c, 0, 68, 64
1, 355299, Note_on_c, 0, 79, 74
1, 355301, Note_off_c, 0, 80, 65
1, 355358, Note_off_c, 0, 79, 65
1, 355379, Note_on_c, 0, 77, 83
1, 355405, Note_off_c, 0, 77, 67
1, 355473, Note_on_c, 0, 79, 79
1, 355477, Note_on_c, 0, 76, 72
1, 355480, Note_on_c, 0, 72, 75
1, 355493, Note_off_c, 0, 76, 68
1, 355500, Note_off_c, 0, 79, 64
1, 355504, Note_off_c, 0, 72, 70
1, 355504, Note_on_c, 0, 77, 41
1, 355529, Note_off_c, 0, 77, 40
1, 355643, Note_on_c, 0, 60, 53
1, 355707, Note_on_c, 0, 80, 81
1, 355715, Note_on_c, 0, 65, 56
1, 355716, Note_on_c, 0, 77, 72
1, 355726, Note_off_c, 0, 80, 71
1, 355727, Note_off_c, 0, 60, 61
1, 355736, Note_off_c, 0, 77, 63
1, 355757, Note_off_c, 0, 65, 65
1, 355776, Note_on_c, 0, 67, 58
1, 355840, Note_off_c, 0, 67, 59
1, 355860, Note_on_c, 0, 68, 70
1, 355948, Note_off_c, 0, 68, 57
1, 355949, Note_on_c, 0, 76, 88
1, 355954, Note_on_c, 0, 79, 77
1, 355966, Note_on_c, 0, 72, 71
1, 355972, Note_off_c, 0, 76, 68
1, 355984, Note_off_c, 0, 79, 63
1, 356089, Note_off_c, 0, 72, 49
1, 356133, Note_on_c, 0, 70, 64
1, 356196, Note_on_c, 0, 77, 89
1, 356197, Note_on_c, 0, 68, 70
1, 356201, Note_off_c, 0, 70, 63
1, 356202, Note_on_c, 0, 72, 76
1, 356217, Note_off_c, 0, 77, 68
1, 356224, Note_off_c, 0, 72, 70
1, 356232, Note_off_c, 0, 68, 61
1, 356276, Note_on_c, 0, 67, 65
1, 356332, Note_off_c, 0, 67, 63
1, 356351, Note_on_c, 0, 65, 69
1, 356388, Note_off_c, 0, 65, 64
1, 356426, Note_on_c, 0, 73, 83
1, 356436, Note_on_c, 0, 70, 70
1, 356546, Control_c, 0, 64, 11
1, 356560, Control_c, 0, 64, 12
1, 356575, Control_c, 0, 64, 13
1, 356590, Control_c, 0, 64, 14
1, 356617, Note_on_c, 0, 53, 62
1, 356649, Control_c, 0, 64, 15
1, 356660, Note_off_c, 0, 73, 54
1, 356694, Note_on_c, 0, 58, 73
1, 356695, Note_on_c, 0, 67, 66
1, 356697, Note_off_c, 0, 70, 63
1, 356702, Note_on_c, 0, 64, 60
1, 356712, Note_off_c, 0, 53, 62
1, 356722, Note_off_c, 0, 64, 64
1, 356722, Note_off_c, 0, 67, 68
1, 356758, Note_off_c, 0, 58, 63
1, 356762, Note_on_c, 0, 60, 71
1, 356828, Note_off_c, 0, 60, 61
1, 356840, Note_on_c, 0, 61, 75
1, 356914, Note_on_c, 0, 69, 68
1, 356917, Note_off_c, 0, 61, 61
1, 356923, Note_on_c, 0, 72, 67
1, 356929, Note_on_c, 0, 65, 79
1, 356940, Note_off_c, 0, 69, 68
1, 356953, Note_off_c, 0, 72, 64
1, 357027, Control_c, 0, 64, 16
1, 357056, Control_c, 0, 64, 17
1, 357068, Note_off_c, 0, 65, 54
1, 357085, Control_c, 0, 64, 18
1, 357102, Note_on_c, 0, 63, 66
1, 357153, Note_on_c, 0, 70, 78
1, 357165, Note_on_c, 0, 65, 60
1, 357169, Note_on_c, 0, 61, 69
1, 357174, Note_off_c, 0, 63, 64
1, 357174, Note_off_c, 0, 70, 72
1, 357185, Note_off_c, 0, 65, 62
1, 357197, Note_off_c, 0, 61, 66
1, 357204, Control_c, 0, 64, 19
1, 357252, Note_on_c, 0, 60, 71
1, 357318, Note_off_c, 0, 60, 62
1, 357332, Note_on_c, 0, 58, 71
1, 357363, Note_off_c, 0, 58, 66
1, 357396, Note_on_c, 0, 68, 72
1, 357408, Note_on_c, 0, 65, 48
1, 357480, Control_c, 0, 64, 19
1, 357598, Control_c, 0, 64, 20
1, 357610, Note_on_c, 0, 48, 30
1, 357622, Note_on_c, 0, 50, 25
1, 357656, Note_off_c, 0, 68, 53
1, 357659, Note_off_c, 0, 65, 57
1, 357661, Note_off_c, 0, 50, 50
1, 357663, Note_off_c, 0, 48, 58
1, 357665, Note_on_c, 0, 53, 67
1, 357665, Note_on_c, 0, 59, 60
1, 357670, Note_on_c, 0, 62, 54
1, 357695, Note_off_c, 0, 59, 64
1, 357696, Note_off_c, 0, 62, 58
1, 357708, Note_off_c, 0, 53, 62
1, 357732, Note_on_c, 0, 55, 59
1, 357796, Note_off_c, 0, 55, 59
1, 357807, Note_on_c, 0, 56, 71
1, 357876, Note_on_c, 0, 64, 64
1, 357881, Note_off_c, 0, 56, 62
1, 357882, Note_on_c, 0, 67, 67
1, 357906, Note_off_c, 0, 64, 66
1, 357907, Note_on_c, 0, 60, 68
1, 357913, Note_off_c, 0, 67, 64
1, 358054, Note_off_c, 0, 60, 61
1, 358065, Note_on_c, 0, 58, 66
1, 358087, Control_c, 0, 64, 21
1, 358102, Control_c, 0, 64, 22
1, 358116, Control_c, 0, 64, 22
1, 358132, Control_c, 0, 64, 23
1, 358140, Note_on_c, 0, 56, 74
1, 358144, Note_off_c, 0, 58, 63
1, 358147, Control_c, 0, 64, 23
1, 358153, Note_on_c, 0, 65, 66
1, 358166, Note_on_c, 0, 60, 52
1, 358177, Control_c, 0, 64, 24
1, 358179, Note_off_c, 0, 56, 64
1, 358181, Note_off_c, 0, 65, 67
1, 358198, Note_off_c, 0, 60, 57
1, 358199, Control_c, 0, 64, 24
1, 358214, Control_c, 0, 64, 25
1, 358229, Control_c, 0, 64, 26
1, 358232, Note_on_c, 0, 55, 67
1, 358244, Control_c, 0, 64, 26
1, 358286, Note_off_c, 0, 55, 59
1, 358288, Control_c, 0, 64, 27
1, 358301, Note_on_c, 0, 53, 71
1, 358303, Control_c, 0, 64, 27
1, 358318, Control_c, 0, 64, 29
1, 358333, Note_off_c, 0, 53, 65
1, 358333, Control_c, 0, 64, 31
1, 358347, Control_c, 0, 64, 33
1, 358362, Control_c, 0, 64, 35
1, 358377, Control_c, 0, 64, 35
1, 358392, Control_c, 0, 64, 36
1, 358407, Control_c, 0, 64, 37
1, 358421, Control_c, 0, 64, 38
1, 358436, Control_c, 0, 64, 39
1, 358445, Note_on_c, 0, 49, 66
1, 358451, Control_c, 0, 64, 40
1, 358461, Note_on_c, 0, 37, 52
1, 358480, Control_c, 0, 64, 40
1, 358634, Note_on_c, 0, 56, 55
1, 358706, Note_on_c, 0, 61, 58
1, 358709, Note_off_c, 0, 56, 60
1, 358718, Control_c, 0, 64, 41
1, 358747, Control_c, 0, 64, 41
1, 358762, Control_c, 0, 64, 42
1, 358762, Note_on_c, 0, 63, 58
1, 358777, Control_c, 0, 64, 43
1, 358792, Control_c, 0, 64, 44
1, 358804, Note_off_c, 0, 61, 59
1, 358806, Control_c, 0, 64, 45
1, 358821, Control_c, 0, 64, 46
1, 358836, Control_c, 0, 64, 46
1, 358851, Control_c, 0, 64, 47
1, 358852, Note_on_c, 0, 65, 55
1, 358852, Note_off_c, 0, 49, 52
1, 358855, Note_off_c, 0, 63, 62
1, 358857, Note_off_c, 0, 37, 50
1, 358865, Control_c, 0, 64, 47
1, 358880, Control_c, 0, 64, 49
1, 358895, Control_c, 0, 64, 52
1, 358910, Control_c, 0, 64, 58
1, 358925, Control_c, 0, 64, 61
1, 358928, Note_on_c, 0, 68, 66
1, 358946, Note_on_c, 0, 63, 48
1, 358948, Control_c, 0, 64, 64
1, 358953, Note_on_c, 0, 48, 45
1, 358953, Note_off_c, 0, 65, 61
1, 358955, Note_on_c, 0, 36, 48
1, 358962, Control_c, 0, 64, 66
1, 358977, Control_c, 0, 64, 68
1, 358992, Control_c, 0, 64, 71
1, 359007, Control_c, 0, 64, 76
1, 359022, Control_c, 0, 64, 80
1, 359037, Control_c, 0, 64, 84
1, 359039, Note_off_c, 0, 48, 62
1, 359052, Control_c, 0, 64, 84
1, 359079, Note_off_c, 0, 63, 35
1, 359111, Control_c, 0, 64, 84
1, 359115, Note_on_c, 0, 66, 62
1, 359115, Note_off_c, 0, 68, 54
1, 359141, Control_c, 0, 64, 82
1, 359156, Control_c, 0, 64, 77
1, 359170, Note_off_c, 0, 36, 35
1, 359170, Control_c, 0, 64, 68
1, 359183, Note_on_c, 0, 61, 60
1, 359185, Control_c, 0, 64, 62
1, 359195, Note_on_c, 0, 65, 72
1, 359200, Control_c, 0, 64, 62
1, 359210, Note_on_c, 0, 37, 60
1, 359210, Note_on_c, 0, 49, 56
1, 359215, Control_c, 0, 64, 65
1, 359230, Control_c, 0, 64, 70
1, 359240, Note_off_c, 0, 49, 63
1, 359244, Note_off_c, 0, 37, 64
1, 359244, Control_c, 0, 64, 77
1, 359258, Note_off_c, 0, 61, 41
1, 359259, Control_c, 0, 64, 89
1, 359265, Note_off_c, 0, 66, 28
1, 359268, Note_on_c, 0, 63, 81
1, 359274, Control_c, 0, 64, 108
1, 359285, Note_off_c, 0, 65, 62
1, 359288, Control_c, 0, 64, 127
1, 359348, Note_on_c, 0, 61, 72
1, 359350, Note_off_c, 0, 63, 64
1, 359362, Control_c, 0, 64, 114
1, 359372, Note_off_c, 0, 61, 68
1, 359377, Control_c, 0, 64, 96
1, 359392, Control_c, 0, 64, 77
1, 359407, Control_c, 0, 64, 62
1, 359422, Control_c, 0, 64, 43
1, 359433, Note_on_c, 0, 44, 61
1, 359436, Control_c, 0, 64, 42
1, 359441, Note_on_c, 0, 32, 48
1, 359445, Note_on_c, 0, 61, 77
1, 359445, Note_on_c, 0, 63, 79
1, 359451, Control_c, 0, 64, 55
1, 359466, Note_off_c, 0, 44, 64
1, 359466, Control_c, 0, 64, 63
1, 359475, Note_off_c, 0, 32, 53
1, 359481, Control_c, 0, 64, 69
1, 359496, Control_c, 0, 64, 78
1, 359511, Control_c, 0, 64, 95
1, 359526, Control_c, 0, 64, 127
1, 359617, Note_on_c, 0, 51, 66
1, 359673, Note_on_c, 0, 56, 73
1, 359691, Note_on_c, 0, 59, 89
1, 359691, Note_off_c, 0, 51, 57
1, 359702, Note_off_c, 0, 63, 59
1, 359716, Note_off_c, 0, 61, 40
1, 359735, Note_off_c, 0, 59, 62
1, 359757, Note_off_c, 0, 56, 63
1, 359763, Note_on_c, 0, 58, 71
1, 359800, Note_off_c, 0, 58, 59
1, 359831, Note_on_c, 0, 59, 50
1, 359849, Note_off_c, 0, 59, 67
1, 359904, Control_c, 0, 64, 88
1, 359919, Control_c, 0, 64, 67
1, 359929, Note_on_c, 0, 58, 77
1, 359934, Control_c, 0, 64, 47
1, 359936, Note_on_c, 0, 63, 77
1, 359939, Note_on_c, 0, 55, 59
1, 359944, Note_on_c, 0, 51, 74
1, 359949, Control_c, 0, 64, 45
1, 359958, Note_on_c, 0, 57, 43
1, 359961, Note_off_c, 0, 63, 67
1, 359964, Control_c, 0, 64, 56
1, 359979, Control_c, 0, 64, 63
1, 359986, Note_off_c, 0, 57, 48
1, 359989, Note_off_c, 0, 51, 61
1, 359993, Control_c, 0, 64, 70
1, 360008, Control_c, 0, 64, 81
1, 360023, Control_c, 0, 64, 119
1, 360038, Control_c, 0, 64, 127
1, 360075, Note_off_c, 0, 55, 51
1, 360128, Note_on_c, 0, 61, 74
1, 360135, Note_off_c, 0, 58, 62
1, 360200, Control_c, 0, 64, 122
1, 360202, Note_on_c, 0, 44, 74
1, 360202, Note_on_c, 0, 59, 80
1, 360212, Note_off_c, 0, 61, 62
1, 360215, Control_c, 0, 64, 81
1, 360228, Note_on_c, 0, 60, 41
1, 360230, Control_c, 0, 64, 66
1, 360236, Note_off_c, 0, 44, 63
1, 360245, Control_c, 0, 64, 60
1, 360256, Note_off_c, 0, 60, 35
1, 360259, Control_c, 0, 64, 63
1, 360267, Note_on_c, 0, 56, 59
1, 360274, Control_c, 0, 64, 68
1, 360289, Control_c, 0, 64, 75
1, 360301, Note_on_c, 0, 58, 80
1, 360304, Note_off_c, 0, 56, 65
1, 360304, Control_c, 0, 64, 89
1, 360318, Control_c, 0, 64, 106
1, 360326, Note_off_c, 0, 59, 63
1, 360333, Control_c, 0, 64, 127
1, 360377, Note_on_c, 0, 56, 84
1, 360382, Note_off_c, 0, 58, 64
1, 360408, Control_c, 0, 64, 113
1, 360423, Control_c, 0, 64, 89
1, 360437, Note_off_c, 0, 56, 0
1, 360445, Control_c, 0, 64, 68
1, 360448, Note_on_c, 0, 56, 69
1, 360454, Note_on_c, 0, 58, 86
1, 360459, Control_c, 0, 64, 48
1, 360462, Note_on_c, 0, 51, 69
1, 360467, Note_on_c, 0, 39, 66
1, 360474, Control_c, 0, 64, 29
1, 360489, Control_c, 0, 64, 43
1, 360495, Note_off_c, 0, 56, 64
1, 360504, Control_c, 0, 64, 60
1, 360512, Note_off_c, 0, 58, 64
1, 360518, Control_c, 0, 64, 67
1, 360523, Note_off_c, 0, 39, 59
1, 360534, Control_c, 0, 64, 78
1, 360549, Control_c, 0, 64, 110
1, 360556, Note_off_c, 0, 51, 64
1, 360564, Control_c, 0, 64, 127
1, 360628, Note_on_c, 0, 58, 86
1, 360698, Note_on_c, 0, 54, 71
1, 360702, Note_off_c, 0, 58, 55
1, 360703, Note_on_c, 0, 63, 85
1, 360728, Note_off_c, 0, 54, 69
1, 360778, Note_on_c, 0, 65, 78
1, 360831, Note_off_c, 0, 63, 61
1, 360852, Note_on_c, 0, 66, 82
1, 360876, Note_off_c, 0, 65, 65
1, 360905, Control_c, 0, 64, 81
1, 360911, Note_off_c, 0, 66, 63
1, 360920, Control_c, 0, 64, 58
1, 360934, Control_c, 0, 64, 0
1, 360941, Note_on_c, 0, 50, 71
1, 360943, Note_on_c, 0, 38, 69
1, 360947, Note_on_c, 0, 70, 87
1, 360949, Note_on_c, 0, 65, 81
1, 360979, Control_c, 0, 64, 47
1, 360989, Note_off_c, 0, 50, 63
1, 360994, Note_off_c, 0, 65, 51
1, 360994, Control_c, 0, 64, 62
1, 361007, Note_off_c, 0, 38, 55
1, 361008, Control_c, 0, 64, 70
1, 361023, Control_c, 0, 64, 86
1, 361038, Control_c, 0, 64, 127
1, 361043, Note_off_c, 0, 70, 62
1, 361111, Note_on_c, 0, 68, 89
1, 361180, Note_on_c, 0, 51, 77
1, 361180, Note_on_c, 0, 39, 68
1, 361192, Note_on_c, 0, 66, 89
1, 361213, Note_on_c, 0, 63, 75
1, 361216, Note_off_c, 0, 51, 66
1, 361217, Note_off_c, 0, 39, 64
1, 361225, Note_off_c, 0, 68, 60
1, 361272, Note_off_c, 0, 66, 65
1, 361278, Note_on_c, 0, 65, 86
1, 361288, Note_off_c, 0, 63, 62
1, 361359, Note_on_c, 0, 63, 81
1, 361364, Note_off_c, 0, 65, 64
1, 361386, Note_off_c, 0, 63, 67
1, 361387, Control_c, 0, 64, 89
1, 361402, Control_c, 0, 64, 59
1, 361417, Control_c, 0, 64, 0
1, 361433, Note_on_c, 0, 46, 78
1, 361438, Note_on_c, 0, 65, 88
1, 361442, Note_on_c, 0, 34, 63
1, 361442, Note_on_c, 0, 63, 83
1, 361461, Control_c, 0, 64, 26
1, 361464, Note_off_c, 0, 46, 69
1, 361472, Note_off_c, 0, 34, 57
1, 361476, Control_c, 0, 64, 57
1, 361491, Control_c, 0, 64, 67
1, 361505, Control_c, 0, 64, 83
1, 361520, Control_c, 0, 64, 127
1, 361622, Note_on_c, 0, 53, 73
1, 361670, Note_off_c, 0, 65, 57
1, 361678, Note_on_c, 0, 58, 76
1, 361688, Note_on_c, 0, 61, 93
1, 361715, Note_off_c, 0, 53, 61
1, 361722, Note_off_c, 0, 63, 62
1, 361748, Note_off_c, 0, 58, 64
1, 361755, Note_off_c, 0, 61, 59
1, 361756, Note_on_c, 0, 60, 60
1, 361774, Poly_aftertouch_c, 0, 64, 0
1, 361824, Note_on_c, 0, 61, 46
1, 361846, Note_off_c, 0, 61, 36
1, 361849, Note_off_c, 0, 60, 64
1, 361890, Control_c, 0, 64, 90
1, 361905, Control_c, 0, 64, 63
1, 361916, Note_on_c, 0, 57, 92
1, 361920, Control_c, 0, 64, 23
1, 361922, Note_on_c, 0, 60, 82
1, 361937, Note_on_c, 0, 53, 80
1, 361939, Note_on_c, 0, 62, 71
1, 361941, Note_on_c, 0, 65, 64
1, 361943, Control_c, 0, 64, 32
1, 361958, Control_c, 0, 64, 54
1, 361960, Note_off_c, 0, 62, 58
1, 361960, Note_off_c, 0, 65, 64
1, 361964, Note_off_c, 0, 53, 67
1, 361972, Control_c, 0, 64, 64
1, 361987, Control_c, 0, 64, 76
1, 362002, Control_c, 0, 64, 127
1, 362065, Note_off_c, 0, 57, 55
1, 362076, Note_off_c, 0, 60, 63
1, 362076, Control_c, 0, 67, 122
1, 362090, Control_c, 0, 67, 106
1, 362105, Control_c, 0, 67, 90
1, 362119, Note_on_c, 0, 63, 83
1, 362120, Control_c, 0, 67, 67
1, 362136, Control_c, 0, 67, 37
1, 362151, Control_c, 0, 67, 0
1, 362184, Note_on_c, 0, 46, 73
1, 362189, Note_on_c, 0, 58, 82
1, 362195, Note_on_c, 0, 53, 51
1, 362199, Note_on_c, 0, 61, 87
1, 362213, Note_off_c, 0, 46, 63
1, 362218, Note_off_c, 0, 63, 58
1, 362223, Note_off_c, 0, 53, 59
1, 362253, Note_off_c, 0, 58, 63
1, 362287, Note_on_c, 0, 60, 89
1, 362372, Note_on_c, 0, 58, 100
1, 362399, Note_off_c, 0, 60, 64
1, 362411, Note_off_c, 0, 61, 25
1, 362480, Note_off_c, 0, 58, 63
1, 362506, Control_c, 0, 64, 98
1, 362507, Note_on_c, 0, 54, 94
1, 362515, Note_on_c, 0, 42, 82
1, 362521, Control_c, 0, 64, 68
1, 362536, Control_c, 0, 64, 19
1, 362551, Control_c, 0, 64, 0
1, 362625, Control_c, 0, 64, 49
1, 362627, Note_on_c, 0, 55, 31
1, 362640, Control_c, 0, 64, 64
1, 362654, Control_c, 0, 64, 71
1, 362664, Poly_aftertouch_c, 0, 53, 127
1, 362669, Control_c, 0, 64, 81
1, 362691, Control_c, 0, 64, 101
1, 362706, Control_c, 0, 64, 127
1, 362711, Note_on_c, 0, 61, 85
1, 362715, Poly_aftertouch_c, 0, 53, 0
1, 362736, Note_off_c, 0, 55, 40
1, 362741, Note_off_c, 0, 54, 62
1, 362752, Note_off_c, 0, 42, 62
1, 362789, Note_on_c, 0, 66, 82
1, 362799, Note_off_c, 0, 61, 61
1, 362865, Note_on_c, 0, 68, 83
1, 362896, Note_off_c, 0, 66, 61
1, 362936, Note_on_c, 0, 70, 78
1, 362968, Note_off_c, 0, 68, 61
1, 363017, Note_on_c, 0, 73, 89
1, 363024, Note_on_c, 0, 68, 75
1, 363056, Note_off_c, 0, 70, 64
1, 363082, Note_off_c, 0, 68, 60
1, 363115, Note_off_c, 0, 73, 60
1, 363191, Note_on_c, 0, 71, 86
1, 363195, Note_on_c, 0, 61, 54
1, 363254, Note_on_c, 0, 70, 89
1, 363287, Note_off_c, 0, 71, 61
1, 363289, Note_off_c, 0, 61, 56
1, 363322, Note_on_c, 0, 68, 76
1, 363329, Control_c, 0, 67, 13
1, 363335, Note_off_c, 0, 70, 61
1, 363344, Control_c, 0, 67, 21
1, 363359, Control_c, 0, 67, 26
1, 363368, Note_off_c, 0, 68, 65
1, 363374, Control_c, 0, 67, 31
1, 363389, Control_c, 0, 67, 37
1, 363391, Note_on_c, 0, 66, 83
1, 363403, Control_c, 0, 67, 45
1, 363418, Control_c, 0, 67, 52
1, 363422, Note_off_c, 0, 66, 61
1, 363440, Control_c, 0, 67, 56
1, 363455, Control_c, 0, 67, 57
1, 363470, Control_c, 0, 64, 77
1, 363470, Control_c, 0, 67, 58
1, 363485, Control_c, 0, 64, 63
1, 363485, Control_c, 0, 67, 59
1, 363496, Note_on_c, 0, 68, 84
1, 363499, Note_on_c, 0, 65, 79
1, 363499, Control_c, 0, 64, 65
1, 363499, Control_c, 0, 67, 59
1, 363502, Note_on_c, 0, 73, 74
1, 363514, Control_c, 0, 64, 72
1, 363523, Note_off_c, 0, 65, 69
1, 363529, Control_c, 0, 64, 87
1, 363530, Note_off_c, 0, 73, 63
1, 363538, Note_off_c, 0, 68, 66
1, 363544, Control_c, 0, 64, 127
1, 363574, Control_c, 0, 67, 60
1, 363663, Control_c, 0, 67, 62
1, 363666, Note_on_c, 0, 73, 86
1, 363677, Control_c, 0, 67, 62
1, 363685, Note_on_c, 0, 71, 68
1, 363692, Control_c, 0, 67, 64
1, 363707, Control_c, 0, 64, 112
1, 363707, Control_c, 0, 67, 67
1, 363722, Control_c, 0, 64, 90
1, 363722, Control_c, 0, 67, 70
1, 363734, Note_off_c, 0, 73, 63
1, 363738, Control_c, 0, 64, 73
1, 363738, Control_c, 0, 67, 72
1, 363745, Note_on_c, 0, 78, 80
1, 363750, Note_off_c, 0, 71, 62
1, 363752, Control_c, 0, 64, 59
1, 363752, Control_c, 0, 67, 74
1, 363756, Note_on_c, 0, 70, 58
1, 363767, Control_c, 0, 64, 22
1, 363767, Control_c, 0, 67, 75
1, 363782, Control_c, 0, 64, 0
1, 363782, Control_c, 0, 67, 76
1, 363812, Control_c, 0, 67, 77
1, 363826, Note_on_c, 0, 68, 58
1, 363827, Control_c, 0, 67, 77
1, 363828, Note_on_c, 0, 80, 80
1, 363840, Note_off_c, 0, 70, 58
1, 363841, Control_c, 0, 67, 78
1, 363842, Note_off_c, 0, 78, 62
1, 363856, Control_c, 0, 67, 81
1, 363871, Control_c, 0, 67, 84
1, 363879, Note_off_c, 0, 68, 60
1, 363886, Control_c, 0, 67, 85
1, 363901, Note_on_c, 0, 66, 42
1, 363901, Control_c, 0, 67, 86
1, 363911, Note_on_c, 0, 82, 66
1, 363915, Control_c, 0, 67, 87
1, 363925, Note_off_c, 0, 80, 64
1, 363930, Control_c, 0, 67, 89
1, 363940, Note_off_c, 0, 66, 64
1, 363945, Control_c, 0, 67, 92
1, 363959, Control_c, 0, 67, 95
1, 363974, Control_c, 0, 67, 96
1, 363979, Note_on_c, 0, 77, 74
1, 363985, Note_on_c, 0, 85, 72
1, 363988, Note_on_c, 0, 61, 55
1, 363989, Control_c, 0, 67, 97
1, 363997, Note_off_c, 0, 82, 63
1, 363999, Note_on_c, 0, 68, 48
1, 364004, Control_c, 0, 67, 98
1, 364019, Control_c, 0, 67, 99
1, 364033, Control_c, 0, 67, 102
1, 364048, Control_c, 0, 67, 105
1, 364063, Control_c, 0, 67, 109
1, 364078, Control_c, 0, 67, 112
1, 364093, Control_c, 0, 67, 117
1, 364101, Note_off_c, 0, 77, 35
1, 364107, Control_c, 0, 67, 121
1, 364108, Note_off_c, 0, 68, 34
1, 364122, Control_c, 0, 64, 52
1, 364122, Control_c, 0, 67, 123
1, 364137, Control_c, 0, 64, 63
1, 364152, Control_c, 0, 64, 68
1, 364161, Note_on_c, 0, 83, 65
1, 364161, Note_off_c, 0, 85, 62
1, 364164, Note_off_c, 0, 61, 51
1, 364167, Control_c, 0, 64, 73
1, 364189, Control_c, 0, 64, 78
1, 364204, Control_c, 0, 64, 80
1, 364219, Control_c, 0, 64, 79
1, 364223, Note_on_c, 0, 82, 69
1, 364234, Control_c, 0, 64, 73
1, 364234, Control_c, 0, 67, 122
1, 364238, Note_on_c, 0, 78, 70
1, 364243, Note_on_c, 0, 66, 68
1, 364247, Note_on_c, 0, 70, 64
1, 364247, Note_off_c, 0, 83, 64
1, 364248, Control_c, 0, 64, 64
1, 364248, Control_c, 0, 67, 121
1, 364263, Control_c, 0, 64, 44
1, 364263, Control_c, 0, 67, 120
1, 364267, Note_off_c, 0, 82, 64
1, 364268, Note_off_c, 0, 78, 68
1, 364271, Note_off_c, 0, 66, 65
1, 364275, Note_off_c, 0, 70, 69
1, 364278, Control_c, 0, 64, 0
1, 364278, Control_c, 0, 67, 119
1, 364293, Control_c, 0, 67, 117
1, 364307, Control_c, 0, 67, 116
1, 364322, Control_c, 0, 67, 115
1, 364352, Control_c, 0, 67, 116
1, 364366, Control_c, 0, 67, 117
1, 364381, Control_c, 0, 67, 117
1, 364456, Control_c, 0, 67, 118
1, 364471, Control_c, 0, 67, 119
1, 364510, Note_on_c, 0, 47, 70
1, 364515, Control_c, 0, 64, 56
1, 364515, Control_c, 0, 67, 118
1, 364518, Note_on_c, 0, 35, 65
1, 364530, Control_c, 0, 64, 64
1, 364530, Control_c, 0, 67, 117
1, 364545, Control_c, 0, 64, 69
1, 364545, Control_c, 0, 67, 115
1, 364560, Control_c, 0, 64, 76
1, 364575, Control_c, 0, 64, 90
1, 364590, Control_c, 0, 64, 127
1, 364590, Control_c, 0, 67, 115
1, 364618, Note_off_c, 0, 35, 60
1, 364620, Control_c, 0, 67, 114
1, 364633, Note_off_c, 0, 47, 59
1, 364635, Control_c, 0, 67, 113
1, 364649, Control_c, 0, 67, 112
1, 364664, Control_c, 0, 67, 112
1, 364703, Note_on_c, 0, 66, 77
1, 364709, Control_c, 0, 67, 111
1, 364738, Control_c, 0, 67, 110
1, 364753, Control_c, 0, 67, 110
1, 364768, Control_c, 0, 67, 109
1, 364770, Note_on_c, 0, 71, 70
1, 364771, Note_off_c, 0, 66, 62
1, 364782, Control_c, 0, 67, 108
1, 364797, Control_c, 0, 67, 107
1, 364812, Control_c, 0, 67, 107
1, 364837, Note_on_c, 0, 73, 80
1, 364864, Note_off_c, 0, 71, 63
1, 364900, Control_c, 0, 67, 107
1, 364907, Note_on_c, 0, 75, 78
1, 364915, Control_c, 0, 67, 108
1, 364928, Note_off_c, 0, 73, 62
1, 364938, Control_c, 0, 67, 109
1, 364953, Control_c, 0, 67, 109
1, 364968, Control_c, 0, 67, 110
1, 364982, Control_c, 0, 67, 110
1, 364997, Control_c, 0, 67, 111
1, 364998, Note_on_c, 0, 78, 83
1, 365002, Note_on_c, 0, 73, 83
1, 365020, Note_off_c, 0, 75, 60
1, 365027, Control_c, 0, 67, 112
1, 365050, Note_off_c, 0, 73, 64
1, 365091, Note_off_c, 0, 78, 62
1, 365173, Note_on_c, 0, 76, 85
1, 365173, Note_on_c, 0, 66, 55
1, 365174, Control_c, 0, 67, 111
1, 365236, Note_on_c, 0, 75, 88
1, 365264, Note_on_c, 0, 71, 49
1, 365270, Note_off_c, 0, 66, 47
1, 365285, Note_off_c, 0, 76, 58
1, 365310, Note_on_c, 0, 73, 85
1, 365319, Note_off_c, 0, 71, 57
1, 365319, Note_off_c, 0, 75, 65
1, 365383, Note_on_c, 0, 71, 85
1, 365387, Note_off_c, 0, 73, 59
1, 365413, Control_c, 0, 67, 112
1, 365457, Control_c, 0, 64, 80
1, 365466, Note_on_c, 0, 73, 93
1, 365470, Note_on_c, 0, 70, 85
1, 365472, Control_c, 0, 64, 63
1, 365478, Note_off_c, 0, 71, 64
1, 365487, Control_c, 0, 64, 53
1, 365487, Control_c, 0, 67, 111
1, 365489, Note_off_c, 0, 70, 72
1, 365498, Note_on_c, 0, 77, 54
1, 365502, Control_c, 0, 64, 58
1, 365502, Control_c, 0, 67, 110
1, 365517, Note_off_c, 0, 73, 60
1, 365517, Control_c, 0, 64, 66
1, 365517, Control_c, 0, 67, 110
1, 365519, Note_off_c, 0, 77, 54
1, 365532, Control_c, 0, 64, 73
1, 365532, Control_c, 0, 67, 109
1, 365546, Control_c, 0, 64, 89
1, 365561, Control_c, 0, 64, 127
1, 365576, Control_c, 0, 67, 109
1, 365620, Control_c, 0, 67, 108
1, 365635, Control_c, 0, 67, 107
1, 365650, Control_c, 0, 67, 107
1, 365671, Note_on_c, 0, 75, 66
1, 365687, Note_on_c, 0, 76, 54
1, 365698, Note_on_c, 0, 77, 54
1, 365708, Note_off_c, 0, 75, 66
1, 365730, Note_off_c, 0, 76, 61
1, 365734, Note_off_c, 0, 77, 55
1, 365746, Control_c, 0, 67, 106
1, 365761, Control_c, 0, 67, 105
1, 365770, Note_on_c, 0, 83, 75
1, 365772, Note_on_c, 0, 75, 46
1, 365776, Control_c, 0, 67, 105
1, 365776, Note_on_c, 0, 84, 68
1, 365805, Control_c, 0, 67, 104
1, 365807, Note_on_c, 0, 85, 69
1, 365815, Note_off_c, 0, 84, 46
1, 365830, Note_off_c, 0, 83, 57
1, 365850, Control_c, 0, 67, 104
1, 365861, Note_on_c, 0, 71, 68
1, 365868, Note_off_c, 0, 75, 56
1, 365878, Note_on_c, 0, 87, 83
1, 365894, Control_c, 0, 67, 103
1, 365911, Note_off_c, 0, 71, 63
1, 365911, Note_off_c, 0, 85, 66
1, 365938, Control_c, 0, 67, 104
1, 365953, Control_c, 0, 64, 101
1, 365953, Control_c, 0, 67, 105
1, 365968, Control_c, 0, 64, 69
1, 365968, Control_c, 0, 67, 106
1, 365979, Note_on_c, 0, 73, 62
1, 365983, Note_on_c, 0, 90, 90
1, 365983, Control_c, 0, 64, 44
1, 365983, Control_c, 0, 67, 107
1, 365987, Note_on_c, 0, 66, 65
1, 365995, Note_on_c, 0, 82, 81
1, 365998, Control_c, 0, 64, 40
1, 366003, Note_off_c, 0, 87, 61
1, 366012, Control_c, 0, 64, 54
1, 366027, Control_c, 0, 64, 62
1, 366033, Note_on_c, 0, 91, 30
1, 366034, Note_off_c, 0, 91, 127
1, 366042, Control_c, 0, 64, 67
1, 366042, Control_c, 0, 67, 106
1, 366057, Control_c, 0, 64, 75
1, 366072, Control_c, 0, 64, 92
1, 366072, Control_c, 0, 67, 107
1, 366086, Control_c, 0, 64, 127
1, 366086, Control_c, 0, 67, 107
1, 366101, Control_c, 0, 67, 109
1, 366113, Note_off_c, 0, 82, 55
1, 366119, Note_off_c, 0, 73, 56
1, 366160, Note_off_c, 0, 66, 55
1, 366167, Note_on_c, 0, 88, 82
1, 366208, Note_off_c, 0, 90, 61
1, 366221, Note_on_c, 0, 75, 77
1, 366221, Control_c, 0, 64, 100
1, 366227, Note_on_c, 0, 71, 76
1, 366236, Control_c, 0, 64, 90
1, 366242, Note_on_c, 0, 87, 94
1, 366244, Note_off_c, 0, 75, 69
1, 366247, Note_on_c, 0, 83, 81
1, 366250, Note_off_c, 0, 71, 69
1, 366250, Control_c, 0, 64, 88
1, 366250, Control_c, 0, 67, 107
1, 366265, Control_c, 0, 64, 89
1, 366265, Control_c, 0, 67, 106
1, 366271, Note_off_c, 0, 88, 65
1, 366277, Note_on_c, 0, 81, 44
1, 366278, Note_off_c, 0, 81, 127
1, 366280, Control_c, 0, 67, 105
1, 366295, Control_c, 0, 67, 104
1, 366301, Note_off_c, 0, 83, 63
1, 366310, Control_c, 0, 64, 90
1, 366312, Note_off_c, 0, 87, 64
1, 366325, Control_c, 0, 64, 92
1, 366325, Control_c, 0, 67, 105
1, 366340, Control_c, 0, 64, 92
1, 366340, Control_c, 0, 67, 105
1, 366354, Control_c, 0, 64, 87
1, 366369, Control_c, 0, 64, 83
1, 366384, Control_c, 0, 64, 81
1, 366399, Control_c, 0, 64, 79
1, 366399, Control_c, 0, 67, 105
1, 366414, Control_c, 0, 64, 75
1, 366435, Control_c, 0, 64, 69
1, 366450, Control_c, 0, 64, 65
1, 366465, Control_c, 0, 64, 62
1, 366480, Control_c, 0, 64, 61
1, 366495, Control_c, 0, 64, 58
1, 366509, Control_c, 0, 64, 51
1, 366509, Control_c, 0, 67, 104
1, 366524, Control_c, 0, 64, 26
1, 366524, Control_c, 0, 67, 104
1, 366525, Note_on_c, 0, 53, 86
1, 366526, Note_on_c, 0, 41, 77
1, 366539, Control_c, 0, 64, 0
1, 366539, Control_c, 0, 67, 103
1, 366553, Control_c, 0, 67, 102
1, 366568, Control_c, 0, 67, 101
1, 366583, Control_c, 0, 67, 99
1, 366598, Control_c, 0, 67, 97
1, 366613, Control_c, 0, 67, 96
1, 366627, Control_c, 0, 67, 94
1, 366642, Control_c, 0, 64, 47
1, 366642, Control_c, 0, 67, 91
1, 366657, Control_c, 0, 64, 63
1, 366657, Control_c, 0, 67, 84
1, 366672, Control_c, 0, 64, 69
1, 366672, Control_c, 0, 67, 74
1, 366687, Control_c, 0, 64, 78
1, 366687, Control_c, 0, 67, 59
1, 366701, Control_c, 0, 64, 98
1, 366701, Control_c, 0, 67, 44
1, 366712, Note_off_c, 0, 41, 64
1, 366714, Note_on_c, 0, 69, 85
1, 366716, Control_c, 0, 64, 127
1, 366716, Control_c, 0, 67, 28
1, 366731, Control_c, 0, 67, 14
1, 366739, Note_off_c, 0, 53, 63
1, 366746, Control_c, 0, 67, 0
1, 366787, Note_on_c, 0, 72, 82
1, 366808, Note_off_c, 0, 69, 59
1, 366856, Note_on_c, 0, 75, 80
1, 366905, Note_off_c, 0, 72, 64
1, 366920, Note_on_c, 0, 78, 80
1, 366939, Note_off_c, 0, 75, 66
1, 366946, Note_off_c, 0, 78, 68
1, 367031, Note_on_c, 0, 87, 98
1, 367183, Control_c, 0, 64, 113
1, 367198, Control_c, 0, 64, 106
1, 367213, Control_c, 0, 64, 103
1, 367228, Control_c, 0, 64, 102
1, 367231, Note_on_c, 0, 57, 56
1, 367243, Control_c, 0, 64, 100
1, 367248, Note_on_c, 0, 85, 89
1, 367257, Control_c, 0, 64, 99
1, 367272, Note_off_c, 0, 87, 55
1, 367272, Control_c, 0, 64, 98
1, 367287, Control_c, 0, 64, 97
1, 367312, Note_on_c, 0, 84, 99
1, 367328, Note_on_c, 0, 60, 57
1, 367346, Control_c, 0, 64, 98
1, 367356, Note_off_c, 0, 57, 38
1, 367361, Control_c, 0, 64, 99
1, 367375, Control_c, 0, 64, 101
1, 367390, Control_c, 0, 64, 103
1, 367399, Note_off_c, 0, 60, 63
1, 367401, Note_on_c, 0, 63, 66
1, 367405, Control_c, 0, 64, 103
1, 367420, Control_c, 0, 64, 104
1, 367435, Control_c, 0, 64, 106
1, 367449, Control_c, 0, 64, 108
1, 367464, Control_c, 0, 64, 113
1, 367472, Note_off_c, 0, 63, 61
1, 367479, Control_c, 0, 64, 115
1, 367487, Note_on_c, 0, 82, 95
1, 367490, Note_on_c, 0, 66, 62
1, 367495, Note_off_c, 0, 84, 62
1, 367508, Control_c, 0, 64, 115
1, 367514, Note_off_c, 0, 85, 17
1, 367538, Control_c, 0, 64, 116
1, 367541, Note_off_c, 0, 66, 60
1, 367553, Note_off_c, 0, 82, 66
1, 367553, Control_c, 0, 64, 117
1, 367557, Note_on_c, 0, 81, 93
1, 367561, Note_on_c, 0, 75, 75
1, 367595, Note_off_c, 0, 81, 68
1, 367707, Note_off_c, 0, 75, 59
1, 367716, Control_c, 0, 64, 119
1, 367732, Control_c, 0, 64, 125
1, 367741, Note_on_c, 0, 73, 69
1, 367747, Control_c, 0, 64, 127
1, 367768, Note_off_c, 0, 73, 65
1, 367773, Note_on_c, 0, 78, 99
1, 367780, Note_on_c, 0, 77, 87
1, 367825, Note_on_c, 0, 72, 38
1, 367851, Control_c, 0, 64, 125
1, 367857, Note_on_c, 0, 75, 82
1, 367865, Control_c, 0, 64, 115
1, 367880, Control_c, 0, 64, 112
1, 367895, Control_c, 0, 64, 109
1, 367906, Note_off_c, 0, 77, 52
1, 367910, Control_c, 0, 64, 108
1, 367932, Control_c, 0, 64, 106
1, 367947, Control_c, 0, 64, 104
1, 367961, Note_off_c, 0, 72, 44
1, 367961, Control_c, 0, 64, 101
1, 367976, Control_c, 0, 64, 99
1, 367991, Control_c, 0, 64, 98
1, 368006, Note_off_c, 0, 75, 60
1, 368010, Note_on_c, 0, 73, 70
1, 368036, Control_c, 0, 64, 98
1, 368051, Control_c, 0, 64, 92
1, 368066, Control_c, 0, 64, 81
1, 368080, Control_c, 0, 64, 72
1, 368091, Note_off_c, 0, 73, 62
1, 368095, Control_c, 0, 64, 68
1, 368105, Note_on_c, 0, 72, 67
1, 368110, Control_c, 0, 64, 70
1, 368112, Note_on_c, 0, 69, 55
1, 368124, Control_c, 0, 64, 80
1, 368139, Control_c, 0, 64, 96
1, 368154, Control_c, 0, 64, 127
1, 368228, Note_off_c, 0, 69, 56
1, 368260, Note_off_c, 0, 72, 62
1, 368268, Note_on_c, 0, 66, 36
1, 368287, Control_c, 0, 64, 110
1, 368287, Control_c, 0, 67, 8
1, 368297, Note_on_c, 0, 70, 70
1, 368302, Control_c, 0, 64, 86
1, 368302, Control_c, 0, 67, 10
1, 368316, Control_c, 0, 64, 69
1, 368316, Control_c, 0, 67, 14
1, 368320, Note_off_c, 0, 66, 61
1, 368320, Note_off_c, 0, 78, 55
1, 368331, Control_c, 0, 64, 62
1, 368331, Control_c, 0, 67, 16
1, 368342, Note_on_c, 0, 65, 54
1, 368346, Control_c, 0, 64, 60
1, 368346, Control_c, 0, 67, 17
1, 368361, Control_c, 0, 64, 62
1, 368361, Control_c, 0, 67, 17
1, 368370, Note_on_c, 0, 69, 72
1, 368376, Note_off_c, 0, 70, 59
1, 368376, Control_c, 0, 64, 66
1, 368383, Note_off_c, 0, 65, 65
1, 368391, Control_c, 0, 64, 72
1, 368391, Control_c, 0, 67, 18
1, 368406, Control_c, 0, 64, 85
1, 368406, Control_c, 0, 67, 19
1, 368421, Control_c, 0, 64, 109
1, 368435, Control_c, 0, 64, 127
1, 368435, Control_c, 0, 67, 19
1, 368465, Control_c, 0, 67, 20
1, 368510, Control_c, 0, 67, 21
1, 368525, Control_c, 0, 67, 21
1, 368555, Control_c, 0, 67, 22
1, 368563, Note_on_c, 0, 77, 69
1, 368570, Control_c, 0, 64, 108
1, 368576, Note_off_c, 0, 69, 62
1, 368584, Control_c, 0, 64, 98
1, 368584, Control_c, 0, 67, 22
1, 368599, Control_c, 0, 64, 92
1, 368614, Control_c, 0, 64, 86
1, 368623, Note_off_c, 0, 77, 60
1, 368629, Control_c, 0, 64, 78
1, 368629, Control_c, 0, 67, 24
1, 368644, Control_c, 0, 64, 67
1, 368656, Note_on_c, 0, 46, 62
1, 368659, Control_c, 0, 64, 53
1, 368659, Control_c, 0, 67, 25
1, 368661, Note_on_c, 0, 34, 56
1, 368682, Control_c, 0, 64, 0
1, 368682, Control_c, 0, 67, 26
1, 368726, Control_c, 0, 64, 33
1, 368741, Control_c, 0, 64, 53
1, 368755, Control_c, 0, 64, 63
1, 368770, Control_c, 0, 64, 67
1, 368785, Control_c, 0, 64, 72
1, 368800, Control_c, 0, 64, 78
1, 368800, Control_c, 0, 67, 27
1, 368812, Note_off_c, 0, 34, 55
1, 368815, Control_c, 0, 64, 82
1, 368818, Note_off_c, 0, 46, 52
1, 368829, Control_c, 0, 64, 86
1, 368829, Control_c, 0, 67, 27
1, 368839, Note_on_c, 0, 62, 67
1, 368844, Control_c, 0, 64, 87
1, 368844, Control_c, 0, 67, 28
1, 368859, Control_c, 0, 64, 88
1, 368874, Control_c, 0, 64, 88
1, 368874, Control_c, 0, 67, 29
1, 368889, Control_c, 0, 67, 32
1, 368900, Note_off_c, 0, 62, 59
1, 368903, Control_c, 0, 67, 36
1, 368909, Note_on_c, 0, 65, 66
1, 368918, Control_c, 0, 67, 38
1, 368933, Control_c, 0, 67, 41
1, 368948, Control_c, 0, 67, 42
1, 368963, Control_c, 0, 67, 44
1, 368978, Control_c, 0, 67, 46
1, 368978, Note_off_c, 0, 65, 62
1, 368986, Note_on_c, 0, 68, 73
1, 368993, Control_c, 0, 67, 47
1, 369008, Control_c, 0, 67, 47
1, 369013, Note_off_c, 0, 68, 68
1, 369022, Control_c, 0, 67, 48
1, 369037, Control_c, 0, 67, 49
1, 369052, Control_c, 0, 64, 88
1, 369052, Control_c, 0, 67, 50
1, 369065, Note_on_c, 0, 71, 73
1, 369067, Control_c, 0, 67, 51
1, 369082, Control_c, 0, 64, 87
1, 369082, Control_c, 0, 67, 51
1, 369096, Control_c, 0, 64, 87
1, 369096, Control_c, 0, 67, 52
1, 369111, Control_c, 0, 67, 55
1, 369124, Note_off_c, 0, 71, 52
1, 369126, Control_c, 0, 64, 86
1, 369126, Control_c, 0, 67, 57
1, 369141, Control_c, 0, 67, 61
1, 369141, Note_on_c, 0, 80, 76
1, 369155, Control_c, 0, 67, 66
1, 369170, Control_c, 0, 64, 86
1, 369170, Control_c, 0, 67, 72
1, 369185, Control_c, 0, 64, 85
1, 369185, Control_c, 0, 67, 77
1, 369200, Control_c, 0, 64, 84
1, 369200, Control_c, 0, 67, 83
1, 369214, Control_c, 0, 64, 82
1, 369214, Control_c, 0, 67, 89
1, 369229, Control_c, 0, 64, 81
1, 369229, Control_c, 0, 67, 94
1, 369244, Control_c, 0, 64, 80
1, 369244, Control_c, 0, 67, 98
1, 369259, Control_c, 0, 64, 79
1, 369259, Control_c, 0, 67, 102
1, 369274, Control_c, 0, 64, 78
1, 369274, Control_c, 0, 67, 107
1, 369288, Control_c, 0, 64, 77
1, 369288, Control_c, 0, 67, 115
1, 369292, Note_on_c, 0, 50, 46
1, 369303, Control_c, 0, 64, 77
1, 369303, Control_c, 0, 67, 124
1, 369316, Note_on_c, 0, 78, 75
1, 369319, Control_c, 0, 64, 76
1, 369319, Control_c, 0, 67, 127
1, 369327, Note_off_c, 0, 80, 47
1, 369334, Control_c, 0, 64, 76
1, 369349, Control_c, 0, 64, 75
1, 369364, Control_c, 0, 64, 74
1, 369374, Note_off_c, 0, 50, 45
1, 369378, Control_c, 0, 64, 74
1, 369384, Note_on_c, 0, 77, 77
1, 369393, Control_c, 0, 64, 73
1, 369395, Note_on_c, 0, 53, 32
1, 369408, Control_c, 0, 64, 72
1, 369412, Note_off_c, 0, 78, 57
1, 369451, Note_off_c, 0, 53, 46
1, 369452, Note_on_c, 0, 56, 56
1, 369475, Control_c, 0, 64, 72
1, 369550, Note_off_c, 0, 56, 63
1, 369571, Note_on_c, 0, 59, 45
1, 369591, Note_off_c, 0, 77, 60
1, 369595, Note_on_c, 0, 75, 71
1, 369608, Control_c, 0, 64, 73
1, 369623, Control_c, 0, 64, 73
1, 369638, Control_c, 0, 64, 74
1, 369652, Control_c, 0, 64, 74
1, 369656, Note_off_c, 0, 75, 64
1, 369664, Note_on_c, 0, 74, 79
1, 369667, Control_c, 0, 64, 75
1, 369672, Note_off_c, 0, 59, 63
1, 369679, Note_on_c, 0, 68, 53
1, 369682, Control_c, 0, 64, 76
1, 369697, Control_c, 0, 64, 77
1, 369702, Note_off_c, 0, 74, 59
1, 369712, Control_c, 0, 64, 79
1, 369726, Control_c, 0, 64, 80
1, 369741, Control_c, 0, 64, 80
1, 369822, Note_off_c, 0, 68, 50
1, 369830, Control_c, 0, 64, 80
1, 369845, Control_c, 0, 64, 79
1, 369860, Control_c, 0, 64, 79
1, 369872, Note_on_c, 0, 66, 51
1, 369875, Control_c, 0, 64, 78
1, 369890, Control_c, 0, 64, 77
1, 369904, Note_on_c, 0, 70, 74
1, 369904, Note_on_c, 0, 71, 81
1, 369905, Control_c, 0, 64, 76
1, 369919, Control_c, 0, 64, 75
1, 369934, Control_c, 0, 64, 70
1, 369949, Control_c, 0, 64, 64
1, 369954, Note_off_c, 0, 66, 63
1, 369963, Control_c, 0, 64, 60
1, 369978, Control_c, 0, 64, 61
1, 369990, Note_on_c, 0, 68, 63
1, 369993, Control_c, 0, 64, 64
1, 369995, Note_off_c, 0, 70, 55
1, 370008, Note_on_c, 0, 65, 38
1, 370008, Control_c, 0, 64, 67
1, 370023, Control_c, 0, 64, 71
1, 370037, Control_c, 0, 64, 76
1, 370052, Control_c, 0, 64, 82
1, 370067, Control_c, 0, 64, 86
1, 370082, Control_c, 0, 64, 87
1, 370128, Control_c, 0, 64, 86
1, 370133, Note_off_c, 0, 68, 55
1, 370150, Note_off_c, 0, 65, 37
1, 370157, Control_c, 0, 64, 86
1, 370161, Note_on_c, 0, 66, 54
1, 370174, Note_on_c, 0, 63, 48
1, 370179, Control_c, 0, 64, 85
1, 370194, Control_c, 0, 64, 84
1, 370209, Control_c, 0, 64, 82
1, 370224, Control_c, 0, 64, 75
1, 370239, Control_c, 0, 64, 67
1, 370243, Note_off_c, 0, 66, 62
1, 370254, Control_c, 0, 64, 62
1, 370266, Note_on_c, 0, 65, 58
1, 370269, Control_c, 0, 64, 61
1, 370280, Note_off_c, 0, 63, 46
1, 370283, Control_c, 0, 64, 63
1, 370298, Control_c, 0, 64, 66
1, 370299, Note_on_c, 0, 62, 42
1, 370313, Control_c, 0, 64, 69
1, 370328, Control_c, 0, 64, 74
1, 370343, Control_c, 0, 64, 80
1, 370357, Control_c, 0, 64, 83
1, 370372, Control_c, 0, 64, 84
1, 370387, Control_c, 0, 64, 84
1, 370408, Note_off_c, 0, 65, 59
1, 370411, Note_off_c, 0, 62, 57
1, 370416, Control_c, 0, 64, 83
1, 370431, Control_c, 0, 64, 82
1, 370446, Control_c, 0, 64, 82
1, 370461, Control_c, 0, 64, 80
1, 370475, Control_c, 0, 64, 78
1, 370483, Note_on_c, 0, 63, 51
1, 370490, Control_c, 0, 64, 71
1, 370505, Control_c, 0, 64, 63
1, 370515, Poly_aftertouch_c, 0, 59, 127
1, 370520, Control_c, 0, 64, 54
1, 370535, Note_off_c, 0, 63, 57
1, 370535, Control_c, 0, 64, 49
1, 370545, Note_on_c, 0, 58, 50
1, 370546, Poly_aftertouch_c, 0, 59, 0
1, 370549, Control_c, 0, 64, 51
1, 370564, Control_c, 0, 64, 56
1, 370567, Note_on_c, 0, 62, 43
1, 370579, Control_c, 0, 64, 61
1, 370594, Control_c, 0, 64, 66
1, 370599, Note_off_c, 0, 58, 59
1, 370609, Control_c, 0, 64, 70
1, 370623, Control_c, 0, 64, 77
1, 370638, Control_c, 0, 64, 85
1, 370653, Control_c, 0, 64, 92
1, 370668, Control_c, 0, 64, 96
1, 370683, Control_c, 0, 64, 101
1, 370698, Control_c, 0, 64, 104
1, 370698, Note_off_c, 0, 62, 58
1, 370772, Control_c, 0, 64, 103
1, 370787, Control_c, 0, 64, 101
1, 370789, Note_on_c, 0, 70, 59
1, 370801, Control_c, 0, 64, 99
1, 370811, Note_off_c, 0, 71, 41
1, 370816, Control_c, 0, 64, 95
1, 370826, Note_off_c, 0, 70, 62
1, 370831, Control_c, 0, 64, 88
1, 370846, Control_c, 0, 64, 75
1, 370861, Control_c, 0, 64, 62
1, 370875, Control_c, 0, 64, 42
1, 370890, Control_c, 0, 64, 40
1, 370900, Note_on_c, 0, 70, 62
1, 370903, Note_on_c, 0, 66, 54
1, 370905, Control_c, 0, 64, 52
1, 370919, Note_on_c, 0, 63, 39
1, 370927, Note_on_c, 0, 39, 16
1, 370928, Control_c, 0, 64, 62
1, 370941, Note_off_c, 0, 66, 63
1, 370943, Note_off_c, 0, 70, 66
1, 370943, Control_c, 0, 64, 67
1, 370948, Note_off_c, 0, 63, 51
1, 370958, Control_c, 0, 64, 74
1, 370972, Control_c, 0, 64, 84
1, 370975, Note_off_c, 0, 39, 45
1, 370987, Control_c, 0, 64, 93
1, 370989, Poly_aftertouch_c, 0, 51, 0
1, 371002, Control_c, 0, 64, 97
1, 371017, Control_c, 0, 64, 95
1, 371032, Control_c, 0, 64, 92
1, 371047, Control_c, 0, 64, 92
1, 371115, Note_on_c, 0, 75, 82
1, 371121, Control_c, 0, 64, 92
1, 371136, Control_c, 0, 64, 93
1, 371166, Control_c, 0, 64, 93
1, 371188, Note_on_c, 0, 68, 61
1, 371194, Note_on_c, 0, 71, 56
1, 371195, Control_c, 0, 64, 86
1, 371199, Note_on_c, 0, 80, 88
1, 371210, Control_c, 0, 64, 64
1, 371224, Control_c, 0, 64, 0
1, 371270, Note_on_c, 0, 82, 80
1, 371299, Note_off_c, 0, 80, 64
1, 371352, Note_on_c, 0, 83, 79
1, 371360, Note_off_c, 0, 82, 64
1, 371416, Note_off_c, 0, 68, 58
1, 371422, Note_on_c, 0, 82, 83
1, 371423, Note_on_c, 0, 70, 62
1, 371425, Note_off_c, 0, 71, 65
1, 371430, Note_on_c, 0, 78, 69
1, 371430, Note_off_c, 0, 83, 65
1, 371431, Note_off_c, 0, 75, 63
1, 371432, Note_on_c, 0, 63, 63
1, 371449, Note_off_c, 0, 78, 66
1, 371451, Note_off_c, 0, 70, 66
1, 371452, Note_off_c, 0, 82, 68
1, 371464, Note_off_c, 0, 63, 65
1, 371622, Note_on_c, 0, 75, 75
1, 371697, Note_on_c, 0, 68, 45
1, 371700, Note_on_c, 0, 71, 51
1, 371702, Note_on_c, 0, 80, 77
1, 371776, Note_on_c, 0, 82, 68
1, 371804, Note_off_c, 0, 80, 62
1, 371843, Note_off_c, 0, 82, 65
1, 371844, Note_on_c, 0, 83, 75
1, 371906, Note_on_c, 0, 70, 63
1, 371909, Note_off_c, 0, 71, 62
1, 371920, Note_off_c, 0, 75, 62
1, 371920, Note_off_c, 0, 83, 64
1, 371922, Note_on_c, 0, 82, 72
1, 371922, Note_off_c, 0, 68, 55
1, 371923, Note_on_c, 0, 63, 63
1, 371926, Note_on_c, 0, 78, 54
1, 371935, Note_off_c, 0, 70, 67
1, 371946, Note_off_c, 0, 82, 70
1, 371947, Note_off_c, 0, 78, 60
1, 371956, Note_off_c, 0, 63, 65
1, 372107, Note_on_c, 0, 71, 62
1, 372181, Note_on_c, 0, 52, 50
1, 372193, Note_on_c, 0, 76, 64
1, 372218, Note_off_c, 0, 52, 65
1, 372249, Note_off_c, 0, 71, 57
1, 372269, Note_off_c, 0, 76, 63
1, 372275, Note_on_c, 0, 78, 59
1, 372346, Note_off_c, 0, 78, 63
1, 372354, Note_on_c, 0, 80, 60
1, 372411, Note_on_c, 0, 70, 59
1, 372424, Note_off_c, 0, 80, 63
1, 372426, Note_on_c, 0, 78, 54
1, 372430, Note_on_c, 0, 58, 55
1, 372451, Note_off_c, 0, 70, 67
1, 372454, Note_off_c, 0, 58, 61
1, 372460, Note_off_c, 0, 78, 64
1, 372600, Note_on_c, 0, 68, 63
1, 372661, Note_on_c, 0, 74, 58
1, 372683, Note_on_c, 0, 46, 50
1, 372728, Note_off_c, 0, 46, 60
1, 372738, Note_on_c, 0, 75, 68
1, 372791, Note_off_c, 0, 74, 61
1, 372813, Note_on_c, 0, 77, 80
1, 372814, Note_off_c, 0, 68, 60
1, 372826, Note_off_c, 0, 75, 63
1, 372887, Note_on_c, 0, 75, 78
1, 372891, Note_on_c, 0, 70, 75
1, 372893, Note_on_c, 0, 66, 71
1, 372895, Note_off_c, 0, 77, 64
1, 372903, Note_on_c, 0, 51, 62
1, 372914, Note_off_c, 0, 70, 69
1, 372922, Note_off_c, 0, 66, 66
1, 372932, Note_off_c, 0, 51, 66
1, 372932, Note_off_c, 0, 75, 65
1, 372988, Control_c, 0, 64, 9
1, 373003, Control_c, 0, 64, 16
1, 373018, Control_c, 0, 64, 20
1, 373033, Control_c, 0, 64, 21
1, 373048, Control_c, 0, 64, 22
1, 373062, Control_c, 0, 64, 22
1, 373071, Note_on_c, 0, 63, 80
1, 373077, Control_c, 0, 64, 23
1, 373092, Control_c, 0, 64, 25
1, 373107, Control_c, 0, 64, 29
1, 373107, Control_c, 0, 67, 121
1, 373122, Control_c, 0, 64, 34
1, 373122, Control_c, 0, 67, 107
1, 373136, Control_c, 0, 64, 39
1, 373136, Control_c, 0, 67, 96
1, 373142, Note_on_c, 0, 68, 92
1, 373147, Note_on_c, 0, 56, 63
1, 373151, Note_on_c, 0, 59, 63
1, 373151, Control_c, 0, 64, 42
1, 373151, Control_c, 0, 67, 90
1, 373174, Control_c, 0, 64, 47
1, 373174, Control_c, 0, 67, 85
1, 373189, Control_c, 0, 64, 53
1, 373189, Control_c, 0, 67, 79
1, 373203, Control_c, 0, 64, 58
1, 373203, Control_c, 0, 67, 71
1, 373218, Control_c, 0, 64, 62
1, 373218, Control_c, 0, 67, 60
1, 373229, Note_on_c, 0, 70, 84
1, 373233, Note_on_c, 0, 69, 43
1, 373233, Control_c, 0, 64, 64
1, 373233, Control_c, 0, 67, 47
1, 373248, Control_c, 0, 64, 66
1, 373248, Control_c, 0, 67, 36
1, 373256, Note_off_c, 0, 68, 54
1, 373263, Control_c, 0, 64, 68
1, 373263, Control_c, 0, 67, 24
1, 373264, Note_off_c, 0, 69, 65
1, 373277, Control_c, 0, 64, 70
1, 373277, Control_c, 0, 67, 18
1, 373292, Control_c, 0, 64, 73
1, 373292, Control_c, 0, 67, 14
1, 373307, Control_c, 0, 64, 76
1, 373307, Control_c, 0, 67, 11
1, 373311, Note_off_c, 0, 70, 65
1, 373316, Note_on_c, 0, 71, 61
1, 373323, Control_c, 0, 64, 78
1, 373323, Control_c, 0, 67, 10
1, 373338, Control_c, 0, 64, 79
1, 373338, Control_c, 0, 67, 9
1, 373353, Control_c, 0, 64, 78
1, 373353, Control_c, 0, 67, 9
1, 373367, Note_on_c, 0, 58, 75
1, 373367, Control_c, 0, 64, 72
1, 373367, Control_c, 0, 67, 8
1, 373373, Note_on_c, 0, 70, 95
1, 373373, Note_off_c, 0, 56, 64
1, 373375, Note_on_c, 0, 51, 70
1, 373377, Note_on_c, 0, 66, 85
1, 373379, Note_off_c, 0, 59, 63
1, 373382, Control_c, 0, 64, 61
1, 373382, Control_c, 0, 67, 0
1, 373390, Note_off_c, 0, 63, 64
1, 373391, Note_off_c, 0, 71, 66
1, 373397, Control_c, 0, 64, 35
1, 373402, Note_off_c, 0, 66, 67
1, 373412, Control_c, 0, 64, 0
1, 373414, Note_off_c, 0, 51, 61
1, 373415, Note_off_c, 0, 70, 70
1, 373416, Note_off_c, 0, 58, 61
1, 373456, Control_c, 0, 67, 9
1, 373471, Control_c, 0, 67, 9
1, 373486, Control_c, 0, 67, 10
1, 373500, Control_c, 0, 67, 11
1, 373515, Control_c, 0, 67, 12
1, 373530, Control_c, 0, 67, 12
1, 373548, Note_on_c, 0, 63, 82
1, 373574, Control_c, 0, 67, 13
1, 373589, Control_c, 0, 67, 14
1, 373604, Control_c, 0, 67, 14
1, 373623, Note_on_c, 0, 68, 88
1, 373628, Note_on_c, 0, 59, 69
1, 373629, Note_on_c, 0, 56, 63
1, 373634, Control_c, 0, 67, 15
1, 373664, Control_c, 0, 64, 26
1, 373679, Control_c, 0, 64, 29
1, 373693, Control_c, 0, 64, 30
1, 373695, Note_on_c, 0, 70, 84
1, 373708, Control_c, 0, 64, 33
1, 373723, Control_c, 0, 64, 39
1, 373725, Note_off_c, 0, 68, 61
1, 373737, Control_c, 0, 64, 47
1, 373752, Control_c, 0, 64, 51
1, 373767, Control_c, 0, 64, 52
1, 373767, Control_c, 0, 67, 14
1, 373777, Note_on_c, 0, 71, 84
1, 373782, Control_c, 0, 64, 52
1, 373797, Note_off_c, 0, 70, 64
1, 373811, Control_c, 0, 67, 14
1, 373827, Note_on_c, 0, 58, 67
1, 373837, Note_off_c, 0, 59, 61
1, 373845, Note_on_c, 0, 51, 71
1, 373846, Note_off_c, 0, 56, 63
1, 373846, Note_on_c, 0, 70, 81
1, 373849, Note_on_c, 0, 66, 81
1, 373856, Control_c, 0, 64, 51
1, 373859, Note_off_c, 0, 58, 67
1, 373860, Note_off_c, 0, 71, 65
1, 373861, Note_off_c, 0, 63, 62
1, 373871, Control_c, 0, 64, 50
1, 373873, Note_off_c, 0, 66, 69
1, 373877, Note_off_c, 0, 51, 67
1, 373885, Control_c, 0, 64, 50
1, 373890, Note_off_c, 0, 70, 68
1, 373923, Control_c, 0, 67, 14
1, 373967, Control_c, 0, 67, 15
1, 373997, Control_c, 0, 67, 16
1, 374012, Control_c, 0, 67, 16
1, 374019, Note_on_c, 0, 59, 79
1, 374026, Control_c, 0, 64, 50
1, 374098, Note_on_c, 0, 40, 56
1, 374099, Note_on_c, 0, 64, 68
1, 374146, Control_c, 0, 64, 51
1, 374167, Note_on_c, 0, 66, 77
1, 374176, Control_c, 0, 64, 51
1, 374176, Control_c, 0, 67, 16
1, 374180, Note_off_c, 0, 64, 61
1, 374190, Control_c, 0, 64, 52
1, 374191, Note_off_c, 0, 59, 60
1, 374205, Control_c, 0, 67, 15
1, 374235, Control_c, 0, 67, 14
1, 374249, Control_c, 0, 64, 52
1, 374251, Note_on_c, 0, 68, 73
1, 374258, Note_off_c, 0, 66, 63
1, 374290, Note_off_c, 0, 40, 49
1, 374294, Control_c, 0, 67, 14
1, 374309, Note_on_c, 0, 58, 80
1, 374311, Note_on_c, 0, 66, 72
1, 374315, Note_on_c, 0, 46, 67
1, 374330, Note_off_c, 0, 68, 62
1, 374334, Note_off_c, 0, 58, 68
1, 374347, Note_off_c, 0, 46, 64
1, 374358, Note_off_c, 0, 66, 63
1, 374472, Control_c, 0, 67, 13
1, 374478, Note_on_c, 0, 56, 78
1, 374487, Control_c, 0, 67, 12
1, 374502, Control_c, 0, 67, 11
1, 374516, Control_c, 0, 67, 10
1, 374557, Note_on_c, 0, 62, 69
1, 374561, Control_c, 0, 67, 11
1, 374573, Note_on_c, 0, 61, 45
1, 374574, Note_on_c, 0, 34, 57
1, 374576, Control_c, 0, 64, 52
1, 374576, Control_c, 0, 67, 11
1, 374590, Control_c, 0, 64, 51
1, 374590, Control_c, 0, 67, 12
1, 374605, Control_c, 0, 67, 13
1, 374620, Note_on_c, 0, 63, 80
1, 374620, Control_c, 0, 64, 51
1, 374620, Control_c, 0, 67, 14
1, 374621, Note_off_c, 0, 61, 41
1, 374645, Note_off_c, 0, 62, 64
1, 374649, Control_c, 0, 64, 50
1, 374671, Control_c, 0, 64, 50
1, 374686, Note_off_c, 0, 56, 58
1, 374686, Control_c, 0, 64, 49
1, 374701, Control_c, 0, 64, 49
1, 374713, Note_on_c, 0, 65, 75
1, 374727, Note_off_c, 0, 63, 64
1, 374731, Control_c, 0, 64, 48
1, 374746, Control_c, 0, 64, 46
1, 374760, Control_c, 0, 64, 44
1, 374767, Note_off_c, 0, 34, 60
1, 374773, Note_on_c, 0, 39, 69
1, 374775, Note_on_c, 0, 54, 89
1, 374775, Control_c, 0, 64, 41
1, 374776, Note_on_c, 0, 58, 92
1, 374779, Note_on_c, 0, 63, 72
1, 374790, Note_off_c, 0, 65, 64
1, 374790, Control_c, 0, 64, 37
1, 374790, Control_c, 0, 67, 14
1, 374797, Note_off_c, 0, 54, 71
1, 374803, Note_off_c, 0, 39, 63
1, 374805, Note_off_c, 0, 58, 66
1, 374805, Control_c, 0, 64, 31
1, 374820, Control_c, 0, 64, 26
1, 374823, Note_off_c, 0, 63, 64
1, 374835, Control_c, 0, 64, 18
1, 374849, Control_c, 0, 64, 15
1, 374879, Control_c, 0, 67, 15
1, 374909, Control_c, 0, 64, 14
1, 374909, Control_c, 0, 67, 16
1, 374925, Control_c, 0, 64, 12
1, 374939, Control_c, 0, 64, 11
1, 374962, Note_on_c, 0, 56, 84
1, 374969, Control_c, 0, 67, 15
1, 374984, Control_c, 0, 67, 14
1, 374999, Control_c, 0, 67, 13
1, 375013, Control_c, 0, 64, 12
1, 375013, Control_c, 0, 67, 12
1, 375028, Note_on_c, 0, 59, 92
1, 375032, Note_on_c, 0, 51, 78
1, 375037, Note_on_c, 0, 44, 66
1, 375043, Control_c, 0, 64, 13
1, 375043, Control_c, 0, 67, 12
1, 375047, Note_on_c, 0, 58, 36
1, 375058, Control_c, 0, 64, 14
1, 375058, Control_c, 0, 67, 11
1, 375072, Control_c, 0, 64, 16
1, 375072, Control_c, 0, 67, 11
1, 375087, Control_c, 0, 64, 20
1, 375102, Control_c, 0, 64, 23
1, 375102, Control_c, 0, 67, 10
1, 375113, Note_on_c, 0, 61, 82
1, 375117, Control_c, 0, 64, 24
1, 375131, Note_off_c, 0, 58, 24
1, 375132, Control_c, 0, 64, 25
1, 375132, Control_c, 0, 67, 9
1, 375136, Note_off_c, 0, 59, 66
1, 375161, Control_c, 0, 67, 8
1, 375169, Note_off_c, 0, 56, 64
1, 375176, Control_c, 0, 67, 0
1, 375190, Note_on_c, 0, 63, 83
1, 375226, Note_off_c, 0, 61, 63
1, 375255, Note_on_c, 0, 58, 90
1, 375256, Note_on_c, 0, 54, 91
1, 375257, Note_off_c, 0, 44, 64
1, 375261, Note_on_c, 0, 39, 67
1, 375266, Note_off_c, 0, 51, 65
1, 375269, Note_off_c, 0, 63, 66
1, 375279, Note_off_c, 0, 54, 70
1, 375292, Note_off_c, 0, 39, 64
1, 375300, Note_off_c, 0, 58, 63
1, 375309, Control_c, 0, 67, 8
1, 375324, Control_c, 0, 67, 9
1, 375339, Control_c, 0, 67, 10
1, 375354, Control_c, 0, 67, 11
1, 375369, Control_c, 0, 64, 26
1, 375369, Control_c, 0, 67, 12
1, 375383, Control_c, 0, 64, 29
1, 375398, Control_c, 0, 64, 30
1, 375420, Control_c, 0, 64, 31
1, 375435, Control_c, 0, 64, 32
1, 375443, Note_on_c, 0, 56, 94
1, 375464, Control_c, 0, 67, 11
1, 375479, Control_c, 0, 67, 11
1, 375494, Control_c, 0, 67, 10
1, 375509, Control_c, 0, 64, 33
1, 375509, Control_c, 0, 67, 9
1, 375524, Note_on_c, 0, 59, 94
1, 375545, Note_on_c, 0, 44, 61
1, 375548, Note_on_c, 0, 51, 70
1, 375553, Control_c, 0, 67, 9
1, 375582, Control_c, 0, 64, 33
1, 375582, Control_c, 0, 67, 8
1, 375597, Control_c, 0, 64, 34
1, 375607, Note_on_c, 0, 61, 83
1, 375612, Control_c, 0, 64, 36
1, 375612, Control_c, 0, 67, 0
1, 375625, Note_off_c, 0, 59, 67
1, 375627, Control_c, 0, 64, 38
1, 375642, Control_c, 0, 64, 41
1, 375656, Control_c, 0, 64, 43
1, 375671, Control_c, 0, 64, 43
1, 375688, Note_off_c, 0, 56, 64
1, 375692, Note_on_c, 0, 63, 87
1, 375717, Control_c, 0, 64, 44
1, 375717, Control_c, 0, 67, 9
1, 375732, Control_c, 0, 67, 10
1, 375739, Note_off_c, 0, 61, 60
1, 375747, Control_c, 0, 64, 45
1, 375747, Control_c, 0, 67, 11
1, 375757, Note_on_c, 0, 58, 95
1, 375760, Note_off_c, 0, 44, 63
1, 375761, Control_c, 0, 64, 46
1, 375761, Control_c, 0, 67, 12
1, 375762, Note_on_c, 0, 54, 82
1, 375764, Note_on_c, 0, 39, 64
1, 375775, Note_off_c, 0, 63, 63
1, 375776, Control_c, 0, 64, 47
1, 375776, Control_c, 0, 67, 12
1, 375780, Note_off_c, 0, 51, 63
1, 375791, Control_c, 0, 64, 47
1, 375791, Control_c, 0, 67, 14
1, 375792, Note_off_c, 0, 54, 66
1, 375802, Note_off_c, 0, 39, 63
1, 375805, Note_off_c, 0, 58, 65
1, 375806, Control_c, 0, 67, 15
1, 375820, Control_c, 0, 67, 16
1, 375835, Control_c, 0, 64, 48
1, 375835, Control_c, 0, 67, 16
1, 375850, Control_c, 0, 67, 17
1, 375865, Control_c, 0, 67, 19
1, 375880, Control_c, 0, 64, 48
1, 375880, Control_c, 0, 67, 21
1, 375894, Control_c, 0, 67, 23
1, 375909, Control_c, 0, 64, 49
1, 375909, Control_c, 0, 67, 25
1, 375924, Control_c, 0, 67, 26
1, 375939, Note_on_c, 0, 56, 87
1, 375939, Control_c, 0, 67, 27
1, 375954, Control_c, 0, 67, 28
1, 375968, Control_c, 0, 67, 29
1, 375983, Control_c, 0, 67, 31
1, 375998, Control_c, 0, 67, 33
1, 376013, Control_c, 0, 67, 36
1, 376019, Note_on_c, 0, 59, 85
1, 376028, Control_c, 0, 67, 41
1, 376040, Note_on_c, 0, 44, 52
1, 376043, Control_c, 0, 67, 47
1, 376045, Note_on_c, 0, 51, 56
1, 376058, Control_c, 0, 67, 50
1, 376072, Control_c, 0, 67, 52
1, 376087, Control_c, 0, 67, 52
1, 376102, Control_c, 0, 64, 49
1, 376106, Note_on_c, 0, 61, 83
1, 376117, Note_off_c, 0, 59, 64
1, 376132, Control_c, 0, 64, 51
1, 376132, Control_c, 0, 67, 53
1, 376147, Control_c, 0, 64, 52
1, 376169, Control_c, 0, 64, 53
1, 376169, Control_c, 0, 67, 54
1, 376184, Control_c, 0, 67, 55
1, 376199, Control_c, 0, 64, 53
1, 376199, Control_c, 0, 67, 56
1, 376202, Note_off_c, 0, 56, 64
1, 376205, Note_on_c, 0, 63, 80
1, 376213, Control_c, 0, 67, 57
1, 376228, Control_c, 0, 67, 59
1, 376243, Control_c, 0, 67, 62
1, 376256, Note_off_c, 0, 61, 57
1, 376258, Control_c, 0, 64, 53
1, 376258, Control_c, 0, 67, 67
1, 376273, Control_c, 0, 64, 52
1, 376273, Control_c, 0, 67, 74
1, 376284, Note_off_c, 0, 44, 62
1, 376287, Control_c, 0, 64, 51
1, 376287, Control_c, 0, 67, 79
1, 376302, Note_on_c, 0, 58, 79
1, 376302, Control_c, 0, 64, 51
1, 376302, Control_c, 0, 67, 84
1, 376311, Note_on_c, 0, 39, 46
1, 376314, Note_on_c, 0, 54, 64
1, 376316, Note_off_c, 0, 63, 62
1, 376317, Control_c, 0, 67, 89
1, 376332, Control_c, 0, 64, 52
1, 376332, Control_c, 0, 67, 93
1, 376347, Control_c, 0, 64, 54
1, 376347, Control_c, 0, 67, 97
1, 376354, Note_off_c, 0, 54, 62
1, 376362, Control_c, 0, 64, 56
1, 376362, Control_c, 0, 67, 102
1, 376369, Note_off_c, 0, 58, 61
1, 376377, Control_c, 0, 64, 58
1, 376377, Control_c, 0, 67, 109
1, 376381, Note_off_c, 0, 51, 57
1, 376391, Control_c, 0, 64, 59
1, 376391, Control_c, 0, 67, 114
1, 376406, Control_c, 0, 64, 59
1, 376406, Control_c, 0, 67, 117
1, 376421, Control_c, 0, 64, 61
1, 376421, Control_c, 0, 67, 118
1, 376436, Control_c, 0, 64, 62
1, 376436, Control_c, 0, 67, 119
1, 376451, Control_c, 0, 64, 64
1, 376454, Note_off_c, 0, 39, 34
1, 376466, Control_c, 0, 64, 65
1, 376481, Control_c, 0, 64, 67
1, 376495, Control_c, 0, 64, 69
1, 376507, Note_on_c, 0, 56, 77
1, 376511, Control_c, 0, 64, 72
1, 376526, Control_c, 0, 64, 74
1, 376526, Control_c, 0, 67, 119
1, 376540, Control_c, 0, 64, 76
1, 376540, Control_c, 0, 67, 120
1, 376555, Control_c, 0, 67, 120
1, 376570, Control_c, 0, 67, 121
1, 376585, Control_c, 0, 67, 122
1, 376600, Control_c, 0, 64, 75
1, 376615, Control_c, 0, 64, 74
1, 376615, Control_c, 0, 67, 122
1, 376617, Note_on_c, 0, 59, 75
1, 376618, Note_on_c, 0, 44, 43
1, 376621, Note_on_c, 0, 51, 44
1, 376629, Control_c, 0, 64, 73
1, 376629, Control_c, 0, 67, 124
1, 376644, Control_c, 0, 64, 70
1, 376644, Control_c, 0, 67, 125
1, 376659, Control_c, 0, 64, 68
1, 376659, Control_c, 0, 67, 127
1, 376674, Control_c, 0, 64, 66
1, 376674, Control_c, 0, 67, 127
1, 376689, Control_c, 0, 64, 64
1, 376704, Control_c, 0, 64, 60
1, 376718, Control_c, 0, 64, 54
1, 376728, Note_on_c, 0, 61, 75
1, 376733, Control_c, 0, 64, 48
1, 376734, Note_off_c, 0, 59, 63
1, 376748, Control_c, 0, 64, 47
1, 376763, Control_c, 0, 64, 49
1, 376778, Control_c, 0, 64, 55
1, 376792, Control_c, 0, 64, 61
1, 376807, Control_c, 0, 64, 64
1, 376822, Control_c, 0, 64, 67
1, 376836, Control_c, 0, 64, 70
1, 376851, Control_c, 0, 64, 73
1, 376862, Note_on_c, 0, 63, 80
1, 376866, Control_c, 0, 64, 77
1, 376881, Control_c, 0, 64, 82
1, 376895, Note_off_c, 0, 61, 60
1, 376896, Control_c, 0, 64, 87
1, 376917, Control_c, 0, 64, 91
1, 376932, Control_c, 0, 64, 94
1, 376947, Control_c, 0, 64, 95
1, 376947, Control_c, 0, 67, 126
1, 376962, Control_c, 0, 67, 125
1, 376967, Note_off_c, 0, 56, 63
1, 376977, Control_c, 0, 67, 124
1, 376991, Control_c, 0, 64, 95
1, 376991, Control_c, 0, 67, 124
1, 377006, Control_c, 0, 67, 122
1, 377021, Control_c, 0, 67, 120
1, 377035, Control_c, 0, 64, 95
1, 377035, Control_c, 0, 67, 119
1, 377050, Control_c, 0, 64, 94
1, 377050, Control_c, 0, 67, 118
1, 377053, Note_off_c, 0, 44, 54
1, 377065, Control_c, 0, 64, 93
1, 377079, Note_on_c, 0, 39, 55
1, 377080, Control_c, 0, 64, 92
1, 377095, Control_c, 0, 64, 91
1, 377110, Control_c, 0, 64, 89
1, 377110, Control_c, 0, 67, 117
1, 377125, Control_c, 0, 64, 87
1, 377125, Control_c, 0, 67, 117
1, 377140, Control_c, 0, 64, 83
1, 377155, Control_c, 0, 64, 80
1, 377169, Control_c, 0, 64, 75
1, 377184, Control_c, 0, 64, 72
1, 377190, Note_on_c, 0, 58, 82
1, 377196, Note_on_c, 0, 54, 66
1, 377199, Control_c, 0, 64, 69
1, 377214, Control_c, 0, 64, 64
1, 377214, Control_c, 0, 67, 117
1, 377229, Control_c, 0, 64, 52
1, 377229, Note_off_c, 0, 63, 61
1, 377243, Control_c, 0, 64, 0
1, 377258, Control_c, 0, 67, 118
1, 377304, Control_c, 0, 64, 31
1, 377319, Control_c, 0, 64, 57
1, 377333, Control_c, 0, 64, 66
1, 377348, Control_c, 0, 64, 75
1, 377363, Control_c, 0, 64, 91
1, 377363, Control_c, 0, 67, 117
1, 377377, Note_off_c, 0, 39, 62
1, 377378, Control_c, 0, 64, 127
1, 377378, Control_c, 0, 67, 117
1, 377393, Control_c, 0, 67, 116
1, 377395, Note_off_c, 0, 51, 59
1, 377407, Control_c, 0, 67, 115
1, 377422, Control_c, 0, 67, 115
1, 377454, Note_off_c, 0, 54, 56
1, 377610, Note_on_c, 0, 46, 73
1, 377629, Control_c, 0, 67, 115
1, 377710, Control_c, 0, 67, 116
1, 377760, Note_off_c, 0, 58, 21
1, 377784, Control_c, 0, 64, 115
1, 377795, Note_on_c, 0, 51, 92
1, 377799, Control_c, 0, 64, 108
1, 377813, Control_c, 0, 64, 106
1, 377828, Control_c, 0, 64, 105
1, 377843, Control_c, 0, 64, 104
1, 377843, Control_c, 0, 67, 115
1, 377858, Control_c, 0, 64, 100
1, 377873, Control_c, 0, 64, 96
1, 377878, Note_off_c, 0, 46, 59
1, 377888, Control_c, 0, 64, 94
1, 377921, Note_on_c, 0, 53, 88
1, 377947, Note_off_c, 0, 51, 63
1, 377947, Control_c, 0, 64, 94
1, 377962, Control_c, 0, 64, 92
1, 377977, Control_c, 0, 64, 92
1, 377991, Control_c, 0, 64, 91
1, 378006, Control_c, 0, 64, 90
1, 378021, Control_c, 0, 64, 88
1, 378036, Control_c, 0, 64, 87
1, 378051, Control_c, 0, 64, 85
1, 378058, Note_on_c, 0, 54, 84
1, 378065, Control_c, 0, 64, 82
1, 378080, Control_c, 0, 64, 77
1, 378091, Note_off_c, 0, 53, 63
1, 378095, Control_c, 0, 64, 70
1, 378111, Control_c, 0, 64, 64
1, 378126, Control_c, 0, 64, 56
1, 378141, Control_c, 0, 64, 40
1, 378155, Control_c, 0, 64, 0
1, 378200, Control_c, 0, 67, 116
1, 378259, Control_c, 0, 64, 41
1, 378259, Control_c, 0, 67, 117
1, 378273, Control_c, 0, 64, 55
1, 378288, Control_c, 0, 64, 60
1, 378288, Control_c, 0, 67, 117
1, 378303, Control_c, 0, 64, 63
1, 378303, Control_c, 0, 67, 118
1, 378318, Control_c, 0, 64, 66
1, 378318, Control_c, 0, 67, 119
1, 378333, Control_c, 0, 64, 69
1, 378333, Control_c, 0, 67, 120
1, 378347, Control_c, 0, 64, 73
1, 378347, Control_c, 0, 67, 122
1, 378352, Note_off_c, 0, 54, 65
1, 378362, Control_c, 0, 64, 77
1, 378362, Control_c, 0, 67, 124
1, 378377, Control_c, 0, 64, 79
1, 378377, Control_c, 0, 67, 125
1, 378392, Control_c, 0, 67, 126
1, 378415, Control_c, 0, 67, 127
1, 378459, Control_c, 0, 64, 78
1, 378474, Control_c, 0, 64, 77
1, 378488, Control_c, 0, 64, 77
1, 378518, Control_c, 0, 64, 76
1, 378533, Control_c, 0, 64, 76
1, 378548, Control_c, 0, 64, 75
1, 378562, Control_c, 0, 64, 74
1, 378592, Control_c, 0, 64, 73
1, 378606, Control_c, 0, 64, 72
1, 378621, Control_c, 0, 64, 72
1, 378651, Control_c, 0, 64, 71
1, 378681, Control_c, 0, 64, 71
1, 378696, Control_c, 0, 64, 70
1, 378711, Control_c, 0, 64, 69
1, 378711, Note_on_c, 0, 46, 62
1, 378726, Control_c, 0, 64, 68
1, 378740, Control_c, 0, 64, 67
1, 378755, Control_c, 0, 64, 66
1, 378770, Control_c, 0, 64, 65
1, 378785, Control_c, 0, 64, 64
1, 378800, Control_c, 0, 64, 63
1, 378814, Control_c, 0, 64, 63
1, 378829, Control_c, 0, 64, 62
1, 378844, Control_c, 0, 64, 61
1, 378859, Control_c, 0, 64, 59
1, 378863, Note_on_c, 0, 51, 75
1, 378874, Control_c, 0, 64, 58
1, 378888, Control_c, 0, 64, 57
1, 378911, Note_off_c, 0, 46, 55
1, 378934, Control_c, 0, 64, 56
1, 378949, Control_c, 0, 64, 56
1, 378992, Note_on_c, 0, 53, 61
1, 379016, Note_off_c, 0, 51, 61
1, 379082, Control_c, 0, 64, 55
1, 379097, Control_c, 0, 64, 54
1, 379111, Control_c, 0, 64, 54
1, 379126, Control_c, 0, 64, 53
1, 379141, Control_c, 0, 64, 53
1, 379158, Note_off_c, 0, 53, 58
1, 379164, Control_c, 0, 64, 51
1, 379166, Note_on_c, 0, 54, 44
1, 379178, Control_c, 0, 64, 50
1, 379297, Control_c, 0, 64, 52
1, 379311, Control_c, 0, 64, 53
1, 379326, Control_c, 0, 64, 54
1, 379341, Control_c, 0, 64, 56
1, 379356, Control_c, 0, 64, 58
1, 379371, Control_c, 0, 64, 62
1, 379385, Control_c, 0, 64, 64
1, 379400, Control_c, 0, 64, 67
1, 379415, Control_c, 0, 64, 69
1, 379429, Control_c, 0, 64, 70
1, 379443, Note_off_c, 0, 54, 61
1, 379444, Control_c, 0, 64, 71
1, 379459, Control_c, 0, 64, 72
1, 379474, Control_c, 0, 64, 73
1, 379489, Control_c, 0, 64, 74
1, 379504, Control_c, 0, 64, 75
1, 379518, Control_c, 0, 64, 75
1, 379578, Control_c, 0, 64, 76
1, 379593, Control_c, 0, 64, 77
1, 379608, Control_c, 0, 64, 79
1, 379623, Control_c, 0, 64, 82
1, 379637, Control_c, 0, 64, 85
1, 379652, Control_c, 0, 64, 88
1, 379667, Control_c, 0, 64, 91
1, 379682, Control_c, 0, 64, 92
1, 379772, Control_c, 0, 64, 92
1, 379787, Control_c, 0, 64, 91
1, 379801, Control_c, 0, 64, 91
1, 379816, Control_c, 0, 64, 89
1, 379822, Note_on_c, 0, 46, 50
1, 379831, Control_c, 0, 64, 87
1, 379846, Control_c, 0, 64, 84
1, 379860, Control_c, 0, 64, 81
1, 379875, Control_c, 0, 64, 77
1, 379890, Control_c, 0, 64, 74
1, 379913, Control_c, 0, 64, 72
1, 379928, Control_c, 0, 64, 69
1, 379942, Control_c, 0, 64, 67
1, 379957, Control_c, 0, 64, 64
1, 379972, Control_c, 0, 64, 61
1, 379987, Control_c, 0, 64, 58
1, 380002, Control_c, 0, 64, 57
1, 380040, Note_on_c, 0, 51, 44
1, 380079, Note_off_c, 0, 46, 37
1, 380175, Note_off_c, 0, 51, 50
1, 380217, Note_on_c, 0, 53, 43
1, 380224, Control_c, 0, 64, 58
1, 380357, Control_c, 0, 64, 58
1, 380401, Control_c, 0, 64, 59
1, 380431, Control_c, 0, 64, 59
1, 380438, Note_on_c, 0, 54, 32
1, 380446, Control_c, 0, 64, 60
1, 380465, Note_off_c, 0, 53, 41
1, 380475, Control_c, 0, 64, 60
1, 380521, Control_c, 0, 64, 61
1, 380565, Control_c, 0, 64, 61
1, 380595, Control_c, 0, 64, 62
1, 380610, Control_c, 0, 64, 62
1, 380624, Control_c, 0, 64, 63
1, 380639, Control_c, 0, 64, 63
1, 380662, Control_c, 0, 64, 64
1, 380677, Control_c, 0, 64, 65
1, 380691, Control_c, 0, 64, 66
1, 380706, Control_c, 0, 64, 69
1, 380721, Control_c, 0, 64, 72
1, 380736, Control_c, 0, 64, 75
1, 380751, Control_c, 0, 64, 79
1, 380765, Control_c, 0, 64, 82
1, 380780, Control_c, 0, 64, 84
1, 380795, Control_c, 0, 64, 88
1, 380810, Control_c, 0, 64, 93
1, 380825, Control_c, 0, 64, 99
1, 380839, Control_c, 0, 64, 106
1, 380854, Control_c, 0, 64, 116
1, 380866, Note_off_c, 0, 54, 43
1, 380869, Control_c, 0, 64, 127
1, 381280, Note_on_c, 0, 46, 30
1, 381359, Control_c, 0, 64, 117
1, 381373, Control_c, 0, 64, 106
1, 381388, Control_c, 0, 64, 99
1, 381411, Control_c, 0, 64, 95
1, 381426, Control_c, 0, 64, 92
1, 381441, Control_c, 0, 64, 90
1, 381455, Control_c, 0, 64, 89
1, 381470, Control_c, 0, 64, 87
1, 381485, Control_c, 0, 64, 86
1, 381500, Control_c, 0, 64, 85
1, 381514, Control_c, 0, 64, 84
1, 381529, Control_c, 0, 64, 83
1, 381544, Control_c, 0, 64, 82
1, 381559, Control_c, 0, 64, 81
1, 381574, Control_c, 0, 64, 80
1, 381633, Control_c, 0, 64, 80
1, 381662, Control_c, 0, 64, 79
1, 381677, Control_c, 0, 64, 79
1, 381692, Control_c, 0, 64, 78
1, 381706, Control_c, 0, 64, 78
1, 381772, Note_on_c, 0, 51, 38
1, 381811, Control_c, 0, 64, 77
1, 381825, Control_c, 0, 64, 77
1, 381840, Control_c, 0, 64, 76
1, 381855, Control_c, 0, 64, 75
1, 381870, Control_c, 0, 64, 74
1, 381885, Control_c, 0, 64, 74
1, 381888, Note_off_c, 0, 46, 40
1, 381899, Control_c, 0, 64, 73
1, 381914, Control_c, 0, 64, 73
1, 381944, Control_c, 0, 64, 72
1, 381959, Control_c, 0, 64, 71
1, 381973, Control_c, 0, 64, 70
1, 382032, Control_c, 0, 64, 70
1, 382154, Note_on_c, 0, 53, 40
1, 382159, Control_c, 0, 64, 69
1, 382189, Control_c, 0, 64, 69
1, 382218, Control_c, 0, 64, 68
1, 382262, Control_c, 0, 64, 68
1, 382277, Control_c, 0, 64, 67
1, 382282, Note_off_c, 0, 51, 55
1, 382292, Control_c, 0, 64, 67
1, 382351, Control_c, 0, 64, 66
1, 382381, Control_c, 0, 64, 66
1, 382410, Control_c, 0, 64, 65
1, 382440, Control_c, 0, 64, 65
1, 382484, Control_c, 0, 64, 64
1, 382514, Control_c, 0, 64, 64
1, 382529, Control_c, 0, 64, 63
1, 382553, Note_on_c, 0, 54, 45
1, 382574, Control_c, 0, 64, 63
1, 382589, Control_c, 0, 64, 62
1, 382592, Note_off_c, 0, 53, 51
1, 382603, Control_c, 0, 64, 62
1, 382618, Control_c, 0, 64, 61
1, 382633, Control_c, 0, 64, 61
1, 382677, Control_c, 0, 64, 60
1, 382692, Control_c, 0, 64, 60
1, 382707, Control_c, 0, 64, 59
1, 382721, Control_c, 0, 64, 59
1, 382736, Control_c, 0, 64, 58
1, 382781, Control_c, 0, 64, 57
1, 382795, Note_off_c, 0, 54, 62
1, 382795, Control_c, 0, 64, 56
1, 382797, Note_on_c, 0, 52, 61
1, 382803, Note_on_c, 0, 56, 60
1, 382810, Control_c, 0, 64, 54
1, 382830, Note_off_c, 0, 52, 66
1, 382830, Note_off_c, 0, 56, 64
1, 382840, Control_c, 0, 64, 53
1, 382854, Control_c, 0, 64, 52
1, 382869, Control_c, 0, 64, 47
1, 382884, Control_c, 0, 64, 43
1, 382908, Control_c, 0, 64, 40
1, 383056, Control_c, 0, 64, 41
1, 383070, Control_c, 0, 64, 42
1, 383085, Control_c, 0, 64, 42
1, 383100, Control_c, 0, 64, 43
1, 383115, Control_c, 0, 64, 44
1, 383130, Control_c, 0, 64, 44
1, 383174, Control_c, 0, 64, 45
1, 383189, Control_c, 0, 64, 45
1, 383204, Control_c, 0, 64, 46
1, 383218, Control_c, 0, 64, 46
1, 383244, Note_on_c, 0, 49, 61
1, 383245, Note_on_c, 0, 58, 64
1, 383265, Note_off_c, 0, 58, 63
1, 383271, Note_off_c, 0, 49, 64
1, 383337, Control_c, 0, 64, 47
1, 383527, Note_on_c, 0, 59, 48
1, 383589, Note_on_c, 0, 61, 72
1, 383594, Note_off_c, 0, 59, 65
1, 383600, Note_on_c, 0, 58, 58
1, 383612, Note_on_c, 0, 47, 57
1, 383615, Note_off_c, 0, 61, 68
1, 383630, Note_off_c, 0, 58, 65
1, 383633, Note_on_c, 0, 35, 40
1, 383790, Control_c, 0, 64, 47
1, 383894, Control_c, 0, 64, 48
1, 383907, Note_on_c, 0, 63, 78
1, 383915, Note_on_c, 0, 60, 64
1, 383916, Note_on_c, 0, 57, 67
1, 383925, Note_off_c, 0, 47, 62
1, 383931, Note_off_c, 0, 63, 71
1, 383933, Note_off_c, 0, 35, 53
1, 383941, Note_off_c, 0, 60, 64
1, 383946, Note_off_c, 0, 57, 65
1, 383998, Control_c, 0, 64, 48
1, 384072, Control_c, 0, 64, 49
1, 384101, Control_c, 0, 64, 49
1, 384115, Note_on_c, 0, 35, 41
1, 384133, Note_on_c, 0, 47, 52
1, 384152, Note_off_c, 0, 35, 47
1, 384164, Note_off_c, 0, 47, 64
1, 384192, Note_on_c, 0, 59, 83
1, 384192, Note_on_c, 0, 64, 81
1, 384205, Control_c, 0, 64, 48
1, 384213, Note_off_c, 0, 59, 71
1, 384214, Note_on_c, 0, 56, 74
1, 384214, Note_off_c, 0, 64, 70
1, 384220, Control_c, 0, 64, 44
1, 384235, Control_c, 0, 64, 36
1, 384242, Note_off_c, 0, 56, 67
1, 384249, Control_c, 0, 64, 0
1, 384513, Note_on_c, 0, 58, 77
1, 384513, Note_on_c, 0, 64, 76
1, 384516, Note_on_c, 0, 61, 72
1, 384534, Note_on_c, 0, 55, 64
1, 384538, Note_off_c, 0, 58, 69
1, 384541, Note_off_c, 0, 61, 67
1, 384544, Note_off_c, 0, 64, 66
1, 384562, Note_off_c, 0, 55, 66
1, 384757, Note_on_c, 0, 66, 69
1, 384759, Note_on_c, 0, 63, 64
1, 384765, Note_on_c, 0, 59, 55
1, 384824, Note_on_c, 0, 71, 84
1, 384848, Note_on_c, 0, 35, 48
1, 384848, Note_on_c, 0, 47, 43
1, 384880, Control_c, 0, 64, 9
1, 384895, Control_c, 0, 64, 62
1, 384907, Note_off_c, 0, 66, 60
1, 384909, Note_off_c, 0, 63, 59
1, 384910, Control_c, 0, 64, 69
1, 384924, Control_c, 0, 64, 81
1, 384939, Control_c, 0, 64, 127
1, 385081, Note_off_c, 0, 71, 61
1, 385090, Note_off_c, 0, 59, 64
1, 385187, Note_off_c, 0, 47, 61
1, 385204, Note_off_c, 0, 35, 52
1, 385228, Control_c, 0, 67, 127
1, 385243, Control_c, 0, 67, 126
1, 385287, Control_c, 0, 67, 125
1, 385303, Control_c, 0, 67, 126
1, 385318, Control_c, 0, 67, 127
1, 385333, Control_c, 0, 67, 127
1, 385362, Note_on_c, 0, 54, 86
1, 385362, Note_on_c, 0, 66, 82
1, 385382, Note_off_c, 0, 66, 70
1, 385385, Note_off_c, 0, 54, 71
1, 385407, Control_c, 0, 64, 94
1, 385421, Control_c, 0, 64, 64
1, 385436, Note_on_c, 0, 56, 91
1, 385436, Control_c, 0, 64, 0
1, 385440, Note_on_c, 0, 68, 85
1, 385468, Note_off_c, 0, 68, 59
1, 385470, Note_off_c, 0, 56, 63
1, 385718, Note_on_c, 0, 66, 84
1, 385719, Note_on_c, 0, 70, 86
1, 385722, Note_on_c, 0, 61, 79
1, 385739, Note_off_c, 0, 66, 69
1, 385742, Note_off_c, 0, 61, 69
1, 385748, Note_off_c, 0, 70, 58
1, 385943, Note_on_c, 0, 42, 75
1, 385944, Note_on_c, 0, 54, 83
1, 385967, Note_off_c, 0, 54, 71
1, 385969, Note_off_c, 0, 42, 66
1, 386017, Note_on_c, 0, 71, 95
1, 386020, Note_on_c, 0, 66, 85
1, 386020, Note_on_c, 0, 63, 88
1, 386042, Note_on_c, 0, 59, 89
1, 386042, Note_off_c, 0, 66, 69
1, 386043, Note_off_c, 0, 63, 68
1, 386045, Note_on_c, 0, 47, 78
1, 386059, Note_off_c, 0, 71, 63
1, 386303, Note_on_c, 0, 73, 92
1, 386303, Note_on_c, 0, 70, 95
1, 386304, Note_on_c, 0, 64, 85
1, 386306, Note_on_c, 0, 66, 87
1, 386326, Note_off_c, 0, 64, 69
1, 386327, Note_off_c, 0, 59, 63
1, 386329, Note_off_c, 0, 47, 64
1, 386329, Note_off_c, 0, 66, 67
1, 386340, Note_off_c, 0, 70, 67
1, 386351, Note_off_c, 0, 73, 65
1, 386351, Note_on_c, 0, 62, 25
1, 386352, Note_off_c, 0, 62, 127
1, 386519, Note_on_c, 0, 42, 81
1, 386532, Note_on_c, 0, 54, 52
1, 386533, Note_off_c, 0, 54, 127
1, 386548, Note_off_c, 0, 42, 64
1, 386582, Note_on_c, 0, 66, 93
1, 386583, Note_on_c, 0, 63, 95
1, 386585, Note_on_c, 0, 75, 93
1, 386589, Note_on_c, 0, 71, 82
1, 386607, Note_on_c, 0, 70, 54
1, 386607, Note_off_c, 0, 63, 67
1, 386611, Note_on_c, 0, 35, 81
1, 386612, Note_on_c, 0, 47, 78
1, 386615, Note_off_c, 0, 71, 67
1, 386616, Note_off_c, 0, 70, 43
1, 386621, Note_off_c, 0, 66, 66
1, 386643, Note_off_c, 0, 75, 65
1, 386643, Note_off_c, 0, 47, 66
1, 386646, Note_off_c, 0, 35, 63
1, 386858, Control_c, 0, 67, 127
1, 386873, Control_c, 0, 67, 125
1, 386888, Control_c, 0, 67, 124
1, 386900, Note_on_c, 0, 71, 88
1, 386900, Note_on_c, 0, 77, 90
1, 386902, Note_on_c, 0, 73, 90
1, 386902, Note_on_c, 0, 65, 88
1, 386904, Control_c, 0, 67, 123
1, 386914, Note_on_c, 0, 49, 87
1, 386917, Note_on_c, 0, 37, 74
1, 386918, Control_c, 0, 67, 121
1, 386933, Control_c, 0, 67, 118
1, 386935, Note_off_c, 0, 49, 70
1, 386938, Note_off_c, 0, 65, 62
1, 386942, Note_off_c, 0, 71, 65
1, 386947, Note_off_c, 0, 37, 64
1, 386947, Note_off_c, 0, 73, 65
1, 386948, Control_c, 0, 67, 115
1, 386951, Note_off_c, 0, 77, 63
1, 386963, Control_c, 0, 67, 110
1, 386978, Control_c, 0, 67, 104
1, 386992, Control_c, 0, 67, 99
1, 387007, Control_c, 0, 67, 93
1, 387022, Control_c, 0, 67, 88
1, 387037, Control_c, 0, 67, 83
1, 387052, Control_c, 0, 67, 77
1, 387066, Control_c, 0, 67, 70
1, 387081, Control_c, 0, 67, 65
1, 387096, Control_c, 0, 67, 61
1, 387111, Control_c, 0, 67, 57
1, 387126, Control_c, 0, 67, 54
1, 387141, Control_c, 0, 67, 52
1, 387155, Control_c, 0, 67, 46
1, 387162, Note_on_c, 0, 70, 84
1, 387163, Note_on_c, 0, 66, 79
1, 387164, Note_on_c, 0, 73, 86
1, 387170, Control_c, 0, 67, 40
1, 387185, Control_c, 0, 67, 35
1, 387200, Control_c, 0, 67, 31
1, 387215, Control_c, 0, 67, 27
1, 387230, Control_c, 0, 67, 24
1, 387232, Note_on_c, 0, 78, 96
1, 387245, Control_c, 0, 67, 22
1, 387252, Note_on_c, 0, 42, 86
1, 387253, Note_on_c, 0, 30, 76
1, 387260, Control_c, 0, 67, 19
1, 387274, Control_c, 0, 67, 16
1, 387289, Control_c, 0, 67, 12
1, 387304, Control_c, 0, 64, 32
1, 387304, Control_c, 0, 67, 0
1, 387318, Control_c, 0, 64, 58
1, 387333, Control_c, 0, 64, 66
1, 387348, Control_c, 0, 64, 75
1, 387363, Control_c, 0, 64, 110
1, 387378, Control_c, 0, 64, 127
1, 387520, Note_off_c, 0, 78, 57
1, 387525, Note_off_c, 0, 66, 60
1, 387528, Note_off_c, 0, 70, 62
1, 387534, Note_off_c, 0, 73, 63
1, 387599, Note_off_c, 0, 30, 60
1, 387604, Note_off_c, 0, 42, 62
1, 387764, Note_on_c, 0, 66, 94
1, 387766, Note_on_c, 0, 78, 96
1, 387795, Note_off_c, 0, 78, 64
1, 387799, Note_off_c, 0, 66, 65
1, 387846, Control_c, 0, 64, 73
1, 387850, Note_on_c, 0, 81, 104
1, 387859, Note_on_c, 0, 69, 86
1, 387861, Control_c, 0, 64, 12
1, 387874, Note_off_c, 0, 81, 68
1, 387876, Control_c, 0, 64, 0
1, 387878, Note_off_c, 0, 69, 72
1, 388136, Note_on_c, 0, 72, 87
1, 388154, Note_on_c, 0, 60, 77
1, 388171, Note_off_c, 0, 72, 66
1, 388178, Note_off_c, 0, 60, 69
1, 388326, Control_c, 0, 67, 9
1, 388340, Control_c, 0, 67, 12
1, 388355, Control_c, 0, 67, 16
1, 388369, Note_on_c, 0, 63, 66
1, 388370, Control_c, 0, 67, 19
1, 388372, Note_on_c, 0, 51, 53
1, 388385, Control_c, 0, 67, 24
1, 388399, Note_off_c, 0, 63, 67
1, 388400, Control_c, 0, 67, 30
1, 388403, Note_off_c, 0, 51, 58
1, 388414, Control_c, 0, 67, 37
1, 388429, Note_on_c, 0, 64, 68
1, 388429, Note_on_c, 0, 73, 87
1, 388429, Control_c, 0, 67, 43
1, 388431, Note_on_c, 0, 61, 83
1, 388443, Note_on_c, 0, 52, 66
1, 388444, Control_c, 0, 67, 48
1, 388459, Control_c, 0, 67, 52
1, 388463, Note_off_c, 0, 64, 65
1, 388473, Control_c, 0, 67, 57
1, 388480, Note_off_c, 0, 52, 65
1, 388490, Control_c, 0, 67, 62
1, 388505, Control_c, 0, 67, 66
1, 388519, Control_c, 0, 67, 71
1, 388534, Control_c, 0, 67, 76
1, 388549, Control_c, 0, 67, 81
1, 388563, Control_c, 0, 67, 89
1, 388578, Control_c, 0, 67, 97
1, 388593, Control_c, 0, 67, 107
1, 388608, Control_c, 0, 67, 115
1, 388623, Control_c, 0, 67, 124
1, 388637, Control_c, 0, 67, 127
1, 388686, Note_off_c, 0, 61, 64
1, 388703, Note_off_c, 0, 73, 62
1, 388740, Note_on_c, 0, 54, 75
1, 388746, Note_on_c, 0, 42, 66
1, 388768, Note_off_c, 0, 54, 69
1, 388772, Note_off_c, 0, 42, 61
1, 388950, Note_on_c, 0, 75, 79
1, 388956, Note_on_c, 0, 69, 77
1, 388965, Note_on_c, 0, 73, 59
1, 388974, Note_off_c, 0, 75, 67
1, 388978, Note_off_c, 0, 69, 70
1, 388984, Note_off_c, 0, 73, 63
1, 389036, Note_on_c, 0, 68, 88
1, 389036, Note_on_c, 0, 76, 79
1, 389037, Note_on_c, 0, 56, 65
1, 389040, Note_on_c, 0, 73, 79
1, 389048, Note_on_c, 0, 44, 40
1, 389056, Note_off_c, 0, 68, 69
1, 389063, Note_off_c, 0, 76, 61
1, 389064, Note_off_c, 0, 73, 70
1, 389066, Note_off_c, 0, 56, 66
1, 389082, Note_off_c, 0, 44, 48
1, 389321, Note_on_c, 0, 66, 80
1, 389321, Note_on_c, 0, 75, 81
1, 389322, Note_on_c, 0, 68, 80
1, 389328, Note_on_c, 0, 72, 76
1, 389342, Note_off_c, 0, 66, 70
1, 389345, Note_off_c, 0, 68, 69
1, 389349, Note_off_c, 0, 72, 71
1, 389355, Note_off_c, 0, 75, 62
1, 389527, Note_on_c, 0, 44, 81
1, 389532, Note_on_c, 0, 32, 60
1, 389549, Control_c, 0, 67, 126
1, 389558, Note_off_c, 0, 44, 66
1, 389564, Note_off_c, 0, 32, 55
1, 389564, Control_c, 0, 67, 122
1, 389579, Control_c, 0, 64, 33
1, 389579, Control_c, 0, 67, 114
1, 389594, Control_c, 0, 64, 54
1, 389594, Control_c, 0, 67, 102
1, 389601, Note_on_c, 0, 73, 93
1, 389608, Note_on_c, 0, 68, 85
1, 389609, Control_c, 0, 64, 64
1, 389609, Control_c, 0, 67, 92
1, 389612, Note_on_c, 0, 64, 85
1, 389613, Note_on_c, 0, 37, 85
1, 389613, Note_on_c, 0, 49, 87
1, 389624, Control_c, 0, 64, 75
1, 389624, Control_c, 0, 67, 81
1, 389642, Note_off_c, 0, 49, 68
1, 389646, Control_c, 0, 64, 127
1, 389646, Control_c, 0, 67, 63
1, 389650, Note_off_c, 0, 37, 65
1, 389660, Control_c, 0, 67, 44
1, 389675, Control_c, 0, 67, 28
1, 389690, Control_c, 0, 67, 13
1, 389705, Control_c, 0, 67, 0
1, 389778, Poly_aftertouch_c, 0, 49, 0
1, 389942, Control_c, 0, 64, 117
1, 389957, Control_c, 0, 64, 74
1, 389966, Note_on_c, 0, 25, 99
1, 389972, Control_c, 0, 64, 60
1, 389987, Control_c, 0, 64, 57
1, 390001, Control_c, 0, 64, 64
1, 390016, Control_c, 0, 64, 72
1, 390031, Control_c, 0, 64, 91
1, 390046, Control_c, 0, 64, 127
1, 390065, Note_off_c, 0, 64, 60
1, 390078, Note_off_c, 0, 73, 62
1, 390083, Note_off_c, 0, 25, 60
1, 390084, Note_off_c, 0, 68, 60
1, 390181, Note_on_c, 0, 76, 99
1, 390187, Note_on_c, 0, 64, 89
1, 390216, Note_off_c, 0, 64, 65
1, 390217, Note_off_c, 0, 76, 68
1, 390254, Control_c, 0, 64, 100
1, 390268, Note_on_c, 0, 68, 97
1, 390268, Note_on_c, 0, 80, 100
1, 390269, Control_c, 0, 64, 55
1, 390283, Control_c, 0, 64, 0
1, 390288, Note_off_c, 0, 80, 69
1, 390300, Note_off_c, 0, 68, 65
1, 390552, Note_on_c, 0, 70, 88
1, 390554, Note_on_c, 0, 58, 86
1, 390576, Note_off_c, 0, 58, 71
1, 390607, Note_off_c, 0, 70, 40
1, 390785, Note_on_c, 0, 61, 68
1, 390789, Note_on_c, 0, 49, 49
1, 390810, Note_off_c, 0, 61, 62
1, 390817, Note_off_c, 0, 49, 35
1, 390849, Note_on_c, 0, 71, 83
1, 390855, Note_on_c, 0, 59, 76
1, 390866, Note_on_c, 0, 63, 68
1, 390869, Note_on_c, 0, 51, 66
1, 390896, Note_off_c, 0, 63, 69
1, 390900, Note_off_c, 0, 51, 64
1, 391122, Note_off_c, 0, 59, 64
1, 391151, Note_on_c, 0, 52, 72
1, 391158, Note_on_c, 0, 40, 66
1, 391160, Note_off_c, 0, 71, 63
1, 391175, Note_off_c, 0, 52, 68
1, 391189, Note_off_c, 0, 40, 64
1, 391362, Note_on_c, 0, 68, 74
1, 391362, Note_on_c, 0, 73, 79
1, 391381, Note_on_c, 0, 71, 57
1, 391390, Note_off_c, 0, 68, 65
1, 391400, Note_off_c, 0, 71, 63
1, 391410, Note_off_c, 0, 73, 62
1, 391451, Note_on_c, 0, 42, 70
1, 391451, Note_on_c, 0, 66, 84
1, 391452, Note_on_c, 0, 54, 74
1, 391453, Note_on_c, 0, 71, 87
1, 391455, Note_on_c, 0, 75, 83
1, 391483, Note_off_c, 0, 66, 62
1, 391489, Note_off_c, 0, 71, 62
1, 391495, Note_off_c, 0, 54, 62
1, 391496, Note_off_c, 0, 42, 61
1, 391498, Note_off_c, 0, 75, 48
1, 391739, Note_on_c, 0, 73, 85
1, 391740, Note_on_c, 0, 70, 89
1, 391743, Note_on_c, 0, 64, 83
1, 391743, Note_on_c, 0, 66, 86
1, 391752, Control_c, 0, 64, 11
1, 391765, Note_off_c, 0, 64, 68
1, 391767, Control_c, 0, 64, 14
1, 391768, Note_off_c, 0, 66, 67
1, 391773, Note_off_c, 0, 70, 65
1, 391782, Control_c, 0, 64, 19
1, 391785, Note_off_c, 0, 73, 62
1, 391797, Control_c, 0, 64, 23
1, 391812, Control_c, 0, 64, 26
1, 391827, Control_c, 0, 64, 29
1, 391841, Control_c, 0, 64, 30
1, 391856, Control_c, 0, 64, 30
1, 391871, Control_c, 0, 64, 31
1, 391893, Control_c, 0, 64, 33
1, 391908, Control_c, 0, 64, 35
1, 391922, Control_c, 0, 64, 36
1, 391937, Control_c, 0, 64, 38
1, 391952, Control_c, 0, 64, 41
1, 391956, Note_on_c, 0, 42, 92
1, 391963, Note_on_c, 0, 30, 67
1, 391967, Control_c, 0, 64, 46
1, 391981, Note_off_c, 0, 42, 67
1, 391982, Control_c, 0, 64, 49
1, 391995, Note_off_c, 0, 30, 58
1, 391996, Control_c, 0, 64, 51
1, 392011, Control_c, 0, 64, 51
1, 392027, Note_on_c, 0, 71, 86
1, 392030, Note_on_c, 0, 59, 92
1, 392031, Note_on_c, 0, 63, 88
1, 392032, Note_on_c, 0, 66, 82
1, 392037, Note_on_c, 0, 44, 91
1, 392038, Note_on_c, 0, 32, 84
1, 392041, Control_c, 0, 64, 43
1, 392056, Control_c, 0, 64, 0
1, 392059, Note_off_c, 0, 66, 67
1, 392060, Note_off_c, 0, 59, 68
1, 392062, Note_off_c, 0, 44, 69
1, 392063, Note_off_c, 0, 63, 60
1, 392065, Note_off_c, 0, 71, 62
1, 392069, Note_off_c, 0, 32, 65
1, 392337, Control_c, 0, 64, 13
1, 392352, Control_c, 0, 64, 18
1, 392360, Note_on_c, 0, 66, 78
1, 392363, Note_on_c, 0, 54, 79
1, 392367, Control_c, 0, 64, 19
1, 392369, Note_on_c, 0, 46, 73
1, 392372, Note_on_c, 0, 61, 66
1, 392372, Note_on_c, 0, 34, 65
1, 392374, Note_on_c, 0, 64, 62
1, 392381, Control_c, 0, 64, 20
1, 392389, Note_off_c, 0, 54, 69
1, 392397, Note_off_c, 0, 46, 66
1, 392401, Note_off_c, 0, 61, 66
1, 392404, Note_off_c, 0, 34, 62
1, 392404, Note_off_c, 0, 64, 65
1, 392406, Note_off_c, 0, 66, 56
1, 392441, Control_c, 0, 64, 21
1, 392486, Control_c, 0, 64, 19
1, 392501, Control_c, 0, 64, 0
1, 392592, Note_on_c, 0, 54, 68
1, 392679, Note_off_c, 0, 54, 37
1, 392683, Note_on_c, 0, 56, 72
1, 392685, Note_on_c, 0, 53, 70
1, 392694, Note_on_c, 0, 47, 60
1, 392701, Note_on_c, 0, 35, 57
1, 392711, Note_off_c, 0, 56, 67
1, 392713, Note_off_c, 0, 53, 66
1, 392819, Control_c, 0, 66, 127
1, 392834, Control_c, 0, 64, 30
1, 392849, Control_c, 0, 64, 47
1, 392864, Control_c, 0, 64, 47
1, 392879, Control_c, 0, 64, 55
1, 392893, Control_c, 0, 64, 61
1, 392908, Control_c, 0, 64, 65
1, 392923, Control_c, 0, 64, 70
1, 392937, Control_c, 0, 64, 73
1, 392967, Control_c, 0, 64, 73
1, 392982, Control_c, 0, 64, 70
1, 392985, Note_on_c, 0, 52, 72
1, 392987, Note_on_c, 0, 58, 73
1, 392996, Note_on_c, 0, 55, 59
1, 392997, Control_c, 0, 64, 65
1, 393009, Note_off_c, 0, 35, 60
1, 393010, Note_off_c, 0, 52, 65
1, 393010, Note_off_c, 0, 58, 67
1, 393011, Control_c, 0, 64, 56
1, 393018, Note_off_c, 0, 55, 59
1, 393026, Control_c, 0, 64, 25
1, 393034, Note_off_c, 0, 47, 62
1, 393041, Control_c, 0, 64, 0
1, 393215, Note_on_c, 0, 59, 73
1, 393217, Note_on_c, 0, 56, 64
1, 393267, Note_off_c, 0, 56, 63
1, 393288, Note_on_c, 0, 61, 78
1, 393289, Note_on_c, 0, 58, 78
1, 393291, Note_off_c, 0, 59, 61
1, 393294, Note_on_c, 0, 55, 63
1, 393309, Note_off_c, 0, 61, 69
1, 393314, Note_off_c, 0, 58, 68
1, 393316, Note_off_c, 0, 55, 60
1, 393574, Note_on_c, 0, 54, 73
1, 393577, Note_on_c, 0, 63, 78
1, 393582, Note_on_c, 0, 57, 70
1, 393585, Note_on_c, 0, 60, 66
1, 393600, Note_off_c, 0, 63, 66
1, 393604, Note_off_c, 0, 54, 69
1, 393609, Note_off_c, 0, 57, 67
1, 393612, Note_off_c, 0, 60, 66
1, 393790, Note_on_c, 0, 54, 68
1, 393793, Note_on_c, 0, 63, 82
1, 393800, Note_on_c, 0, 60, 72
1, 393802, Note_on_c, 0, 45, 57
1, 393833, Note_off_c, 0, 60, 64
1, 393844, Note_on_c, 0, 44, 52
1, 393848, Note_off_c, 0, 45, 65
1, 393855, Note_off_c, 0, 54, 66
1, 393869, Note_on_c, 0, 64, 83
1, 393870, Note_on_c, 0, 59, 87
1, 393871, Note_on_c, 0, 52, 81
1, 393871, Note_off_c, 0, 63, 66
1, 393897, Note_off_c, 0, 59, 65
1, 393904, Note_off_c, 0, 52, 65
1, 393909, Note_off_c, 0, 44, 64
1, 393920, Note_off_c, 0, 64, 64
1, 394184, Note_on_c, 0, 58, 90
1, 394185, Note_on_c, 0, 64, 82
1, 394187, Note_on_c, 0, 61, 87
1, 394192, Note_on_c, 0, 49, 70
1, 394196, Note_on_c, 0, 43, 68
1, 394212, Note_off_c, 0, 58, 68
1, 394214, Note_off_c, 0, 61, 67
1, 394214, Note_off_c, 0, 64, 66
1, 394220, Note_off_c, 0, 49, 66
1, 394229, Note_off_c, 0, 43, 67
1, 394444, Note_on_c, 0, 59, 78
1, 394444, Note_on_c, 0, 66, 81
1, 394453, Note_on_c, 0, 63, 63
1, 394455, Note_on_c, 0, 64, 68
1, 394519, Note_on_c, 0, 42, 72
1, 394520, Note_on_c, 0, 71, 94
1, 394524, Note_on_c, 0, 47, 70
1, 394528, Note_on_c, 0, 35, 69
1, 394528, Note_off_c, 0, 64, 52
1, 394761, Control_c, 0, 64, 48
1, 394775, Control_c, 0, 64, 61
1, 394790, Control_c, 0, 64, 67
1, 394805, Control_c, 0, 64, 78
1, 394820, Control_c, 0, 64, 127
1, 394820, Control_c, 0, 66, 0
1, 394850, Note_off_c, 0, 59, 62
1, 394859, Note_off_c, 0, 71, 60
1, 394881, Note_off_c, 0, 63, 54
1, 394883, Note_off_c, 0, 66, 61
1, 395024, Note_on_c, 0, 71, 101
1, 395027, Note_on_c, 0, 59, 94
1, 395053, Note_off_c, 0, 47, 63
1, 395055, Note_off_c, 0, 71, 69
1, 395058, Note_off_c, 0, 35, 60
1, 395058, Note_off_c, 0, 59, 69
1, 395079, Note_off_c, 0, 42, 63
1, 395107, Note_on_c, 0, 73, 99
1, 395110, Note_on_c, 0, 61, 94
1, 395111, Control_c, 0, 64, 104
1, 395125, Control_c, 0, 64, 62
1, 395140, Control_c, 0, 64, 0
1, 395141, Note_off_c, 0, 61, 60
1, 395152, Note_off_c, 0, 73, 64
1, 395398, Note_on_c, 0, 66, 94
1, 395399, Note_on_c, 0, 71, 89
1, 395401, Note_on_c, 0, 75, 90
1, 395429, Note_off_c, 0, 71, 66
1, 395434, Note_off_c, 0, 66, 62
1, 395452, Note_off_c, 0, 75, 60
1, 395618, Note_on_c, 0, 45, 82
1, 395634, Note_on_c, 0, 57, 73
1, 395634, Note_on_c, 0, 59, 73
1, 395656, Note_off_c, 0, 45, 68
1, 395661, Note_off_c, 0, 59, 68
1, 395663, Note_off_c, 0, 57, 65
1, 395704, Note_on_c, 0, 71, 94
1, 395705, Note_on_c, 0, 76, 97
1, 395708, Note_on_c, 0, 64, 89
1, 395716, Note_on_c, 0, 56, 91
1, 395717, Note_on_c, 0, 44, 78
1, 395755, Note_off_c, 0, 56, 63
1, 395768, Note_off_c, 0, 44, 61
1, 395785, Control_c, 0, 64, 51
1, 395800, Control_c, 0, 64, 62
1, 395815, Control_c, 0, 64, 66
1, 395830, Control_c, 0, 64, 70
1, 395845, Control_c, 0, 64, 77
1, 395860, Control_c, 0, 64, 92
1, 395875, Control_c, 0, 64, 127
1, 396008, Control_c, 0, 64, 99
1, 396023, Control_c, 0, 64, 70
1, 396037, Control_c, 0, 64, 56
1, 396038, Note_on_c, 0, 40, 91
1, 396039, Note_on_c, 0, 52, 90
1, 396052, Control_c, 0, 64, 49
1, 396067, Control_c, 0, 64, 61
1, 396072, Note_off_c, 0, 64, 60
1, 396082, Control_c, 0, 64, 68
1, 396090, Note_off_c, 0, 71, 60
1, 396097, Control_c, 0, 64, 80
1, 396101, Note_off_c, 0, 76, 64
1, 396111, Control_c, 0, 64, 127
1, 396214, Note_off_c, 0, 52, 62
1, 396259, Note_off_c, 0, 40, 61
1, 396282, Note_on_c, 0, 80, 91
1, 396283, Note_on_c, 0, 68, 93
1, 396319, Note_off_c, 0, 68, 66
1, 396325, Note_off_c, 0, 80, 61
1, 396387, Note_on_c, 0, 78, 95
1, 396389, Note_on_c, 0, 66, 95
1, 396389, Note_on_c, 0, 71, 94
1, 396389, Note_on_c, 0, 75, 86
1, 396393, Note_on_c, 0, 54, 92
1, 396398, Note_on_c, 0, 42, 87
1, 396414, Control_c, 0, 64, 81
1, 396429, Control_c, 0, 64, 62
1, 396444, Control_c, 0, 64, 0
1, 396490, Note_off_c, 0, 66, 61
1, 396510, Note_off_c, 0, 78, 64
1, 396513, Note_off_c, 0, 54, 64
1, 396515, Note_off_c, 0, 71, 64
1, 396524, Note_off_c, 0, 75, 65
1, 396530, Note_off_c, 0, 42, 63
1, 396873, Note_on_c, 0, 42, 61
1, 396875, Note_on_c, 0, 54, 69
1, 396876, Note_on_c, 0, 78, 94
1, 396879, Note_on_c, 0, 70, 90
1, 396880, Note_on_c, 0, 66, 85
1, 396882, Note_on_c, 0, 73, 87
1, 396904, Control_c, 0, 64, 20
1, 396919, Control_c, 0, 64, 52
1, 396933, Control_c, 0, 64, 64
1, 396948, Control_c, 0, 64, 75
1, 396960, Note_off_c, 0, 66, 61
1, 396963, Control_c, 0, 64, 111
1, 396978, Control_c, 0, 64, 127
1, 396984, Note_off_c, 0, 78, 62
1, 397001, Note_off_c, 0, 70, 64
1, 397001, Note_off_c, 0, 73, 64
1, 397025, Note_off_c, 0, 42, 57
1, 397058, Note_off_c, 0, 54, 61
1, 397237, Control_c, 0, 64, 116
1, 397252, Control_c, 0, 64, 88
1, 397267, Control_c, 0, 64, 72
1, 397282, Control_c, 0, 64, 60
1, 397297, Control_c, 0, 64, 42
1, 397312, Control_c, 0, 64, 0
1, 397523, Note_on_c, 0, 54, 48
1, 397594, Control_c, 0, 64, 32
1, 397608, Control_c, 0, 64, 51
1, 397623, Control_c, 0, 64, 58
1, 397638, Control_c, 0, 64, 60
1, 397653, Control_c, 0, 64, 61
1, 397666, Note_on_c, 0, 53, 48
1, 397668, Control_c, 0, 64, 62
1, 397682, Control_c, 0, 64, 63
1, 397691, Note_on_c, 0, 56, 42
1, 397697, Control_c, 0, 64, 63
1, 397702, Note_off_c, 0, 54, 37
1, 397712, Control_c, 0, 64, 64
1, 397768, Note_on_c, 0, 71, 78
1, 397771, Control_c, 0, 64, 63
1, 397786, Control_c, 0, 64, 61
1, 397790, Note_on_c, 0, 62, 54
1, 397797, Note_on_c, 0, 68, 46
1, 397800, Control_c, 0, 64, 56
1, 397815, Control_c, 0, 64, 48
1, 397830, Control_c, 0, 64, 42
1, 397845, Control_c, 0, 64, 45
1, 397860, Control_c, 0, 64, 53
1, 397882, Control_c, 0, 64, 60
1, 397897, Control_c, 0, 64, 65
1, 397912, Control_c, 0, 64, 70
1, 397926, Control_c, 0, 64, 79
1, 397941, Control_c, 0, 64, 94
1, 397946, Note_off_c, 0, 56, 41
1, 397956, Control_c, 0, 64, 127
1, 398026, Note_off_c, 0, 62, 38
1, 398030, Note_off_c, 0, 68, 60
1, 398115, Note_off_c, 0, 53, 34
1, 398145, Note_on_c, 0, 52, 45
1, 398145, Note_on_c, 0, 58, 44
1, 398194, Control_c, 0, 64, 99
1, 398197, Note_on_c, 0, 73, 91
1, 398203, Note_off_c, 0, 71, 64
1, 398209, Control_c, 0, 64, 71
1, 398211, Note_on_c, 0, 67, 62
1, 398219, Note_on_c, 0, 64, 53
1, 398224, Control_c, 0, 64, 58
1, 398238, Control_c, 0, 64, 47
1, 398253, Control_c, 0, 64, 53
1, 398268, Control_c, 0, 64, 61
1, 398283, Control_c, 0, 64, 65
1, 398296, Note_off_c, 0, 58, 63
1, 398298, Control_c, 0, 64, 73
1, 398313, Control_c, 0, 64, 86
1, 398328, Control_c, 0, 64, 122
1, 398343, Control_c, 0, 64, 127
1, 398382, Note_off_c, 0, 52, 58
1, 398394, Note_off_c, 0, 64, 51
1, 398416, Note_off_c, 0, 67, 52
1, 398434, Note_on_c, 0, 58, 55
1, 398454, Note_off_c, 0, 73, 62
1, 398540, Note_on_c, 0, 75, 83
1, 398545, Note_on_c, 0, 63, 49
1, 398549, Control_c, 0, 64, 85
1, 398557, Note_on_c, 0, 70, 59
1, 398557, Note_on_c, 0, 51, 47
1, 398562, Note_on_c, 0, 67, 54
1, 398564, Control_c, 0, 64, 64
1, 398578, Note_off_c, 0, 58, 38
1, 398579, Control_c, 0, 64, 46
1, 398594, Control_c, 0, 64, 37
1, 398609, Control_c, 0, 64, 45
1, 398630, Control_c, 0, 64, 55
1, 398645, Control_c, 0, 64, 62
1, 398660, Control_c, 0, 64, 67
1, 398675, Control_c, 0, 64, 76
1, 398689, Note_off_c, 0, 63, 57
1, 398690, Control_c, 0, 64, 93
1, 398704, Control_c, 0, 64, 127
1, 398755, Note_off_c, 0, 67, 60
1, 398774, Note_off_c, 0, 75, 57
1, 398808, Note_off_c, 0, 70, 61
1, 398886, Note_on_c, 0, 75, 76
1, 398889, Note_on_c, 0, 56, 41
1, 398898, Control_c, 0, 64, 99
1, 398906, Note_on_c, 0, 68, 58
1, 398907, Note_on_c, 0, 60, 40
1, 398909, Note_on_c, 0, 66, 48
1, 398913, Control_c, 0, 64, 75
1, 398920, Note_off_c, 0, 51, 29
1, 398927, Control_c, 0, 64, 64
1, 398957, Control_c, 0, 64, 69
1, 398972, Control_c, 0, 64, 77
1, 398987, Control_c, 0, 64, 90
1, 399000, Note_off_c, 0, 60, 58
1, 399002, Control_c, 0, 64, 127
1, 399017, Note_off_c, 0, 56, 61
1, 399088, Note_off_c, 0, 75, 62
1, 399117, Note_off_c, 0, 66, 39
1, 399124, Note_off_c, 0, 68, 55
1, 399154, Note_on_c, 0, 44, 51
1, 399186, Note_off_c, 0, 44, 60
1, 399239, Control_c, 0, 67, 20
1, 399253, Control_c, 0, 67, 29
1, 399268, Control_c, 0, 67, 33
1, 399283, Control_c, 0, 67, 35
1, 399298, Control_c, 0, 64, 112
1, 399298, Control_c, 0, 67, 36
1, 399313, Control_c, 0, 64, 104
1, 399313, Control_c, 0, 67, 37
1, 399327, Control_c, 0, 64, 98
1, 399327, Control_c, 0, 67, 39
1, 399339, Note_on_c, 0, 61, 47
1, 399342, Control_c, 0, 64, 91
1, 399342, Control_c, 0, 67, 42
1, 399344, Note_on_c, 0, 49, 44
1, 399344, Note_on_c, 0, 78, 61
1, 399357, Control_c, 0, 64, 80
1, 399357, Control_c, 0, 67, 45
1, 399360, Note_on_c, 0, 73, 51
1, 399367, Note_on_c, 0, 66, 36
1, 399376, Note_on_c, 0, 68, 43
1, 399379, Control_c, 0, 64, 67
1, 399379, Control_c, 0, 67, 49
1, 399394, Control_c, 0, 64, 53
1, 399394, Control_c, 0, 67, 52
1, 399409, Control_c, 0, 64, 37
1, 399409, Control_c, 0, 67, 54
1, 399424, Control_c, 0, 64, 44
1, 399424, Control_c, 0, 67, 54
1, 399439, Control_c, 0, 64, 56
1, 399439, Control_c, 0, 67, 56
1, 399453, Control_c, 0, 64, 63
1, 399468, Control_c, 0, 64, 67
1, 399468, Control_c, 0, 67, 56
1, 399483, Control_c, 0, 64, 74
1, 399496, Note_off_c, 0, 66, 56
1, 399498, Control_c, 0, 64, 85
1, 399499, Note_off_c, 0, 78, 65
1, 399513, Control_c, 0, 64, 109
1, 399527, Control_c, 0, 64, 127
1, 399567, Note_on_c, 0, 76, 72
1, 399569, Note_off_c, 0, 61, 55
1, 399574, Note_on_c, 0, 64, 58
1, 399609, Note_off_c, 0, 73, 56
1, 399613, Note_off_c, 0, 64, 64
1, 399630, Note_off_c, 0, 68, 57
1, 399699, Note_on_c, 0, 51, 52
1, 399702, Note_on_c, 0, 75, 81
1, 399711, Note_off_c, 0, 49, 48
1, 399719, Note_on_c, 0, 63, 63
1, 399738, Note_off_c, 0, 76, 57
1, 399755, Note_off_c, 0, 63, 60
1, 399817, Note_off_c, 0, 75, 53
1, 399836, Note_on_c, 0, 73, 80
1, 399848, Note_on_c, 0, 52, 55
1, 399848, Note_on_c, 0, 61, 70
1, 399866, Note_off_c, 0, 51, 29
1, 399869, Control_c, 0, 67, 57
1, 399912, Note_off_c, 0, 61, 60
1, 399932, Note_off_c, 0, 52, 43
1, 399943, Note_off_c, 0, 73, 60
1, 399958, Control_c, 0, 67, 57
1, 399973, Control_c, 0, 64, 112
1, 399973, Control_c, 0, 67, 58
1, 399988, Control_c, 0, 64, 92
1, 399988, Control_c, 0, 67, 59
1, 400002, Control_c, 0, 64, 74
1, 400004, Note_on_c, 0, 71, 74
1, 400015, Note_on_c, 0, 63, 58
1, 400017, Control_c, 0, 64, 61
1, 400021, Note_on_c, 0, 54, 41
1, 400032, Control_c, 0, 64, 28
1, 400035, Note_on_c, 0, 66, 52
1, 400047, Control_c, 0, 64, 0
1, 400076, Control_c, 0, 64, 26
1, 400091, Control_c, 0, 64, 47
1, 400106, Control_c, 0, 64, 60
1, 400128, Control_c, 0, 64, 65
1, 400143, Control_c, 0, 64, 71
1, 400158, Control_c, 0, 64, 82
1, 400173, Control_c, 0, 64, 99
1, 400188, Control_c, 0, 64, 127
1, 400209, Note_off_c, 0, 63, 60
1, 400210, Note_off_c, 0, 54, 58
1, 400241, Note_off_c, 0, 66, 54
1, 400355, Note_on_c, 0, 54, 52
1, 400356, Note_on_c, 0, 70, 72
1, 400370, Note_on_c, 0, 66, 58
1, 400384, Note_on_c, 0, 61, 44
1, 400394, Note_off_c, 0, 71, 58
1, 400415, Note_off_c, 0, 54, 57
1, 400613, Note_on_c, 0, 54, 37
1, 400623, Note_off_c, 0, 61, 34
1, 400664, Note_off_c, 0, 54, 55
1, 400692, Control_c, 0, 64, 115
1, 400695, Note_on_c, 0, 53, 47
1, 400695, Note_off_c, 0, 66, 59
1, 400707, Control_c, 0, 64, 94
1, 400713, Note_on_c, 0, 71, 69
1, 400716, Note_on_c, 0, 56, 44
1, 400722, Control_c, 0, 64, 83
1, 400723, Note_on_c, 0, 68, 55
1, 400730, Note_on_c, 0, 62, 48
1, 400736, Control_c, 0, 64, 73
1, 400745, Note_off_c, 0, 70, 46
1, 400751, Control_c, 0, 64, 65
1, 400766, Control_c, 0, 64, 53
1, 400781, Control_c, 0, 64, 21
1, 400796, Control_c, 0, 64, 0
1, 400825, Control_c, 0, 64, 24
1, 400840, Control_c, 0, 64, 46
1, 400855, Control_c, 0, 64, 59
1, 400858, Note_off_c, 0, 56, 61
1, 400877, Control_c, 0, 64, 64
1, 400892, Control_c, 0, 64, 69
1, 400906, Control_c, 0, 64, 77
1, 400921, Control_c, 0, 64, 89
1, 400936, Control_c, 0, 64, 109
1, 400939, Note_off_c, 0, 62, 57
1, 400951, Control_c, 0, 64, 127
1, 400966, Note_off_c, 0, 68, 57
1, 401064, Note_off_c, 0, 53, 37
1, 401077, Note_on_c, 0, 52, 47
1, 401089, Note_on_c, 0, 58, 37
1, 401091, Note_on_c, 0, 73, 78
1, 401114, Note_on_c, 0, 64, 48
1, 401121, Note_on_c, 0, 67, 40
1, 401130, Note_off_c, 0, 71, 57
1, 401144, Note_off_c, 0, 58, 56
1, 401261, Note_off_c, 0, 64, 56
1, 401270, Note_off_c, 0, 52, 36
1, 401284, Note_off_c, 0, 67, 55
1, 401338, Note_off_c, 0, 73, 58
1, 401382, Control_c, 0, 67, 59
1, 401411, Control_c, 0, 67, 60
1, 401426, Control_c, 0, 67, 61
1, 401438, Note_on_c, 0, 63, 49
1, 401440, Control_c, 0, 67, 61
1, 401445, Note_on_c, 0, 75, 66
1, 401452, Note_on_c, 0, 51, 46
1, 401455, Control_c, 0, 64, 115
1, 401467, Note_on_c, 0, 70, 50
1, 401470, Note_on_c, 0, 67, 43
1, 401470, Control_c, 0, 64, 86
1, 401485, Control_c, 0, 64, 68
1, 401485, Control_c, 0, 67, 62
1, 401500, Control_c, 0, 64, 55
1, 401515, Control_c, 0, 64, 43
1, 401529, Control_c, 0, 64, 49
1, 401544, Control_c, 0, 64, 57
1, 401544, Control_c, 0, 67, 62
1, 401559, Control_c, 0, 64, 63
1, 401574, Control_c, 0, 64, 67
1, 401589, Control_c, 0, 64, 74
1, 401601, Note_off_c, 0, 63, 57
1, 401604, Control_c, 0, 64, 85
1, 401626, Control_c, 0, 64, 106
1, 401641, Control_c, 0, 64, 127
1, 401661, Note_off_c, 0, 67, 55
1, 401679, Note_off_c, 0, 75, 55
1, 401726, Note_off_c, 0, 70, 56
1, 401729, Control_c, 0, 67, 63
1, 401759, Control_c, 0, 67, 64
1, 401819, Control_c, 0, 67, 64
1, 401833, Control_c, 0, 64, 106
1, 401841, Note_on_c, 0, 75, 61
1, 401848, Control_c, 0, 64, 82
1, 401848, Control_c, 0, 67, 65
1, 401848, Note_on_c, 0, 56, 41
1, 401857, Note_on_c, 0, 68, 47
1, 401863, Control_c, 0, 64, 66
1, 401863, Control_c, 0, 67, 74
1, 401874, Note_on_c, 0, 60, 38
1, 401876, Note_on_c, 0, 66, 34
1, 401878, Control_c, 0, 64, 57
1, 401878, Control_c, 0, 67, 86
1, 401889, Note_off_c, 0, 51, 33
1, 401893, Control_c, 0, 64, 58
1, 401893, Control_c, 0, 67, 92
1, 401908, Control_c, 0, 64, 62
1, 401908, Control_c, 0, 67, 94
1, 401922, Control_c, 0, 64, 67
1, 401922, Control_c, 0, 67, 94
1, 401937, Control_c, 0, 64, 73
1, 401944, Note_off_c, 0, 60, 61
1, 401952, Control_c, 0, 64, 84
1, 401952, Control_c, 0, 67, 95
1, 401958, Note_off_c, 0, 56, 61
1, 401966, Control_c, 0, 64, 101
1, 401981, Control_c, 0, 64, 127
1, 401981, Control_c, 0, 67, 95
1, 402029, Note_off_c, 0, 75, 60
1, 402055, Control_c, 0, 67, 96
1, 402063, Note_off_c, 0, 68, 55
1, 402071, Control_c, 0, 67, 97
1, 402085, Note_off_c, 0, 66, 38
1, 402101, Control_c, 0, 67, 97
1, 402114, Note_on_c, 0, 44, 45
1, 402116, Control_c, 0, 67, 98
1, 402131, Control_c, 0, 67, 99
1, 402145, Control_c, 0, 67, 109
1, 402160, Control_c, 0, 67, 120
1, 402163, Note_off_c, 0, 44, 57
1, 402175, Control_c, 0, 67, 127
1, 402344, Note_on_c, 0, 61, 38
1, 402347, Note_on_c, 0, 49, 34
1, 402376, Control_c, 0, 64, 106
1, 402391, Control_c, 0, 64, 89
1, 402391, Note_on_c, 0, 78, 65
1, 402405, Control_c, 0, 64, 74
1, 402418, Note_on_c, 0, 68, 40
1, 402418, Note_on_c, 0, 73, 43
1, 402420, Control_c, 0, 64, 63
1, 402425, Note_on_c, 0, 66, 27
1, 402435, Control_c, 0, 64, 52
1, 402450, Control_c, 0, 64, 53
1, 402465, Control_c, 0, 64, 59
1, 402479, Control_c, 0, 64, 64
1, 402494, Control_c, 0, 64, 69
1, 402509, Control_c, 0, 64, 78
1, 402524, Control_c, 0, 64, 93
1, 402539, Control_c, 0, 64, 127
1, 402540, Note_off_c, 0, 78, 64
1, 402540, Note_off_c, 0, 66, 51
1, 402597, Note_off_c, 0, 61, 50
1, 402606, Note_on_c, 0, 76, 75
1, 402617, Note_on_c, 0, 64, 58
1, 402653, Note_off_c, 0, 64, 65
1, 402665, Note_off_c, 0, 73, 36
1, 402685, Note_off_c, 0, 68, 39
1, 402750, Note_on_c, 0, 75, 83
1, 402768, Note_on_c, 0, 51, 50
1, 402772, Note_on_c, 0, 63, 52
1, 402775, Note_off_c, 0, 76, 59
1, 402799, Note_off_c, 0, 63, 59
1, 402819, Note_off_c, 0, 49, 36
1, 402883, Note_off_c, 0, 51, 57
1, 402892, Note_on_c, 0, 73, 81
1, 402913, Note_on_c, 0, 61, 58
1, 402916, Note_on_c, 0, 52, 45
1, 402918, Note_off_c, 0, 75, 31
1, 402954, Note_off_c, 0, 61, 57
1, 403018, Note_off_c, 0, 73, 61
1, 403025, Note_off_c, 0, 52, 45
1, 403058, Control_c, 0, 64, 104
1, 403073, Control_c, 0, 64, 82
1, 403075, Note_on_c, 0, 71, 74
1, 403084, Note_on_c, 0, 54, 44
1, 403087, Control_c, 0, 64, 65
1, 403102, Control_c, 0, 64, 41
1, 403120, Note_on_c, 0, 63, 38
1, 403121, Note_on_c, 0, 66, 43
1, 403124, Control_c, 0, 64, 0
1, 403154, Control_c, 0, 64, 9
1, 403168, Control_c, 0, 64, 42
1, 403183, Control_c, 0, 64, 57
1, 403198, Control_c, 0, 64, 64
1, 403213, Control_c, 0, 64, 68
1, 403227, Control_c, 0, 64, 75
1, 403242, Control_c, 0, 64, 85
1, 403247, Note_off_c, 0, 63, 62
1, 403253, Note_off_c, 0, 54, 60
1, 403257, Control_c, 0, 64, 100
1, 403272, Control_c, 0, 64, 127
1, 403279, Note_off_c, 0, 66, 57
1, 403428, Note_on_c, 0, 70, 78
1, 403437, Note_on_c, 0, 66, 52
1, 403441, Note_on_c, 0, 54, 35
1, 403456, Note_on_c, 0, 61, 48
1, 403468, Note_off_c, 0, 71, 57
1, 403506, Note_off_c, 0, 54, 53
1, 403619, Note_off_c, 0, 61, 55
1, 403619, Note_off_c, 0, 66, 60
1, 403686, Note_off_c, 0, 70, 49
1, 403688, Note_on_c, 0, 54, 41
1, 403816, Note_on_c, 0, 47, 43
1, 403816, Note_on_c, 0, 59, 34
1, 403887, Control_c, 0, 64, 116
1, 403889, Note_on_c, 0, 71, 77
1, 403902, Control_c, 0, 64, 96
1, 403906, Note_on_c, 0, 66, 59
1, 403911, Note_on_c, 0, 63, 52
1, 403917, Control_c, 0, 64, 81
1, 403932, Control_c, 0, 64, 66
1, 403947, Control_c, 0, 64, 49
1, 403962, Control_c, 0, 64, 12
1, 403977, Control_c, 0, 64, 30
1, 403979, Note_off_c, 0, 54, 38
1, 403991, Control_c, 0, 64, 49
1, 404006, Control_c, 0, 64, 59
1, 404021, Control_c, 0, 64, 64
1, 404036, Control_c, 0, 64, 69
1, 404050, Control_c, 0, 64, 76
1, 404065, Control_c, 0, 64, 86
1, 404072, Note_off_c, 0, 63, 58
1, 404080, Control_c, 0, 64, 99
1, 404095, Control_c, 0, 64, 110
1, 404110, Control_c, 0, 64, 115
1, 404111, Note_off_c, 0, 59, 42
1, 404139, Control_c, 0, 64, 116
1, 404154, Control_c, 0, 64, 120
1, 404162, Note_off_c, 0, 66, 59
1, 404169, Control_c, 0, 64, 122
1, 404213, Control_c, 0, 64, 120
1, 404228, Control_c, 0, 64, 116
1, 404242, Control_c, 0, 64, 115
1, 404248, Note_on_c, 0, 68, 83
1, 404257, Control_c, 0, 64, 114
1, 404272, Control_c, 0, 64, 113
1, 404278, Note_on_c, 0, 59, 49
1, 404281, Note_on_c, 0, 64, 57
1, 404327, Note_off_c, 0, 71, 51
1, 404406, Control_c, 0, 64, 112
1, 404421, Control_c, 0, 64, 112
1, 404435, Control_c, 0, 64, 109
1, 404449, Note_off_c, 0, 64, 55
1, 404450, Control_c, 0, 64, 105
1, 404451, Note_off_c, 0, 59, 44
1, 404466, Control_c, 0, 64, 102
1, 404475, Note_off_c, 0, 47, 40
1, 404481, Control_c, 0, 64, 98
1, 404491, Note_on_c, 0, 52, 48
1, 404495, Control_c, 0, 64, 94
1, 404510, Control_c, 0, 64, 90
1, 404525, Control_c, 0, 64, 85
1, 404540, Control_c, 0, 64, 80
1, 404555, Control_c, 0, 64, 71
1, 404558, Note_off_c, 0, 52, 53
1, 404567, Note_on_c, 0, 66, 76
1, 404570, Control_c, 0, 64, 61
1, 404584, Note_on_c, 0, 63, 58
1, 404585, Control_c, 0, 64, 35
1, 404591, Note_on_c, 0, 47, 44
1, 404596, Note_on_c, 0, 59, 41
1, 404599, Control_c, 0, 64, 0
1, 404635, Note_off_c, 0, 68, 61
1, 404636, Control_c, 0, 64, 13
1, 404651, Control_c, 0, 64, 44
1, 404665, Control_c, 0, 64, 59
1, 404680, Control_c, 0, 64, 65
1, 404695, Control_c, 0, 64, 70
1, 404707, Note_off_c, 0, 63, 63
1, 404710, Note_off_c, 0, 59, 64
1, 404710, Control_c, 0, 64, 77
1, 404711, Note_off_c, 0, 66, 64
1, 404725, Control_c, 0, 64, 85
1, 404740, Control_c, 0, 64, 92
1, 404755, Control_c, 0, 64, 96
1, 404770, Control_c, 0, 64, 97
1, 404771, Note_off_c, 0, 47, 60
1, 404829, Control_c, 0, 64, 96
1, 404844, Control_c, 0, 64, 94
1, 404859, Control_c, 0, 64, 93
1, 404873, Control_c, 0, 64, 92
1, 404896, Note_on_c, 0, 64, 79
1, 404918, Note_on_c, 0, 59, 54
1, 404918, Control_c, 0, 64, 91
1, 404924, Note_on_c, 0, 56, 56
1, 404933, Control_c, 0, 64, 91
1, 404962, Control_c, 0, 64, 90
1, 404977, Control_c, 0, 64, 90
1, 404991, Control_c, 0, 64, 89
1, 405006, Control_c, 0, 64, 89
1, 405021, Control_c, 0, 64, 88
1, 405036, Control_c, 0, 64, 88
1, 405051, Control_c, 0, 64, 87
1, 405065, Control_c, 0, 64, 87
1, 405080, Control_c, 0, 64, 86
1, 405082, Note_off_c, 0, 56, 55
1, 405095, Control_c, 0, 64, 84
1, 405110, Control_c, 0, 64, 83
1, 405125, Control_c, 0, 64, 81
1, 405130, Note_on_c, 0, 47, 43
1, 405139, Control_c, 0, 64, 79
1, 405153, Note_off_c, 0, 59, 37
1, 405154, Control_c, 0, 64, 78
1, 405169, Control_c, 0, 64, 76
1, 405184, Control_c, 0, 64, 74
1, 405199, Control_c, 0, 64, 73
1, 405214, Control_c, 0, 64, 69
1, 405214, Note_on_c, 0, 63, 71
1, 405229, Control_c, 0, 64, 62
1, 405231, Note_off_c, 0, 64, 61
1, 405234, Note_on_c, 0, 54, 56
1, 405234, Note_on_c, 0, 59, 55
1, 405244, Control_c, 0, 64, 41
1, 405259, Control_c, 0, 64, 0
1, 405303, Control_c, 0, 64, 16
1, 405318, Control_c, 0, 64, 49
1, 405333, Control_c, 0, 64, 61
1, 405348, Control_c, 0, 64, 66
1, 405370, Control_c, 0, 64, 72
1, 405385, Control_c, 0, 64, 81
1, 405400, Control_c, 0, 64, 90
1, 405404, Note_off_c, 0, 59, 63
1, 405413, Note_off_c, 0, 63, 61
1, 405415, Control_c, 0, 64, 98
1, 405417, Note_off_c, 0, 54, 62
1, 405429, Control_c, 0, 64, 100
1, 405476, Note_off_c, 0, 47, 50
1, 405503, Control_c, 0, 64, 98
1, 405518, Control_c, 0, 64, 97
1, 405533, Control_c, 0, 64, 95
1, 405548, Control_c, 0, 64, 93
1, 405557, Note_on_c, 0, 59, 67
1, 405563, Control_c, 0, 64, 90
1, 405575, Note_on_c, 0, 56, 48
1, 405577, Control_c, 0, 64, 88
1, 405592, Control_c, 0, 64, 87
1, 405595, Note_on_c, 0, 52, 41
1, 405607, Control_c, 0, 64, 85
1, 405622, Control_c, 0, 64, 83
1, 405637, Control_c, 0, 64, 77
1, 405652, Control_c, 0, 64, 68
1, 405667, Control_c, 0, 64, 62
1, 405682, Control_c, 0, 64, 61
1, 405696, Control_c, 0, 64, 63
1, 405711, Control_c, 0, 64, 66
1, 405726, Control_c, 0, 64, 70
1, 405741, Control_c, 0, 64, 77
1, 405756, Control_c, 0, 64, 83
1, 405770, Control_c, 0, 64, 87
1, 405783, Note_off_c, 0, 59, 58
1, 405785, Control_c, 0, 64, 88
1, 405792, Note_on_c, 0, 47, 37
1, 405792, Note_off_c, 0, 56, 63
1, 405814, Control_c, 0, 64, 87
1, 405844, Control_c, 0, 64, 87
1, 405874, Control_c, 0, 64, 86
1, 405888, Control_c, 0, 64, 85
1, 405903, Control_c, 0, 64, 84
1, 405907, Note_on_c, 0, 59, 56
1, 405918, Control_c, 0, 64, 81
1, 405927, Note_on_c, 0, 54, 45
1, 405931, Note_off_c, 0, 52, 53
1, 405933, Control_c, 0, 64, 72
1, 405942, Note_on_c, 0, 51, 38
1, 405948, Control_c, 0, 64, 62
1, 405962, Control_c, 0, 64, 46
1, 405977, Control_c, 0, 64, 25
1, 405992, Control_c, 0, 64, 26
1, 406007, Control_c, 0, 64, 40
1, 406022, Control_c, 0, 64, 55
1, 406037, Control_c, 0, 64, 63
1, 406051, Control_c, 0, 64, 67
1, 406067, Control_c, 0, 64, 71
1, 406082, Control_c, 0, 64, 77
1, 406097, Control_c, 0, 64, 83
1, 406111, Note_off_c, 0, 51, 44
1, 406120, Control_c, 0, 64, 88
1, 406135, Control_c, 0, 64, 91
1, 406137, Note_off_c, 0, 47, 41
1, 406150, Control_c, 0, 64, 91
1, 406238, Control_c, 0, 64, 91
1, 406253, Control_c, 0, 64, 90
1, 406268, Control_c, 0, 64, 89
1, 406283, Control_c, 0, 64, 88
1, 406295, Note_off_c, 0, 54, 57
1, 406298, Control_c, 0, 64, 86
1, 406307, Note_on_c, 0, 56, 64
1, 406312, Control_c, 0, 64, 85
1, 406323, Note_off_c, 0, 59, 38
1, 406327, Control_c, 0, 64, 85
1, 406339, Note_on_c, 0, 52, 40
1, 406342, Control_c, 0, 64, 84
1, 406350, Note_on_c, 0, 47, 30
1, 406460, Control_c, 0, 64, 85
1, 406505, Control_c, 0, 64, 85
1, 406534, Control_c, 0, 64, 86
1, 406549, Control_c, 0, 64, 87
1, 406564, Control_c, 0, 64, 87
1, 406579, Control_c, 0, 64, 88
1, 406584, Note_on_c, 0, 40, 41
1, 406594, Control_c, 0, 64, 89
1, 406620, Note_off_c, 0, 47, 35
1, 406638, Control_c, 0, 64, 89
1, 406667, Note_off_c, 0, 52, 42
1, 406742, Control_c, 0, 64, 89
1, 406757, Control_c, 0, 64, 88
1, 406772, Control_c, 0, 64, 87
1, 406786, Control_c, 0, 64, 85
1, 406801, Control_c, 0, 64, 84
1, 406814, Note_on_c, 0, 35, 33
1, 406816, Control_c, 0, 64, 83
1, 406826, Note_on_c, 0, 54, 53
1, 406830, Control_c, 0, 64, 81
1, 406836, Note_off_c, 0, 56, 38
1, 406845, Note_on_c, 0, 51, 42
1, 406845, Control_c, 0, 64, 79
1, 406867, Note_on_c, 0, 47, 25
1, 406868, Control_c, 0, 64, 75
1, 406883, Control_c, 0, 64, 72
1, 406898, Control_c, 0, 64, 68
1, 406913, Control_c, 0, 64, 66
1, 406925, Note_off_c, 0, 40, 34
1, 406928, Control_c, 0, 64, 64
1, 406942, Control_c, 0, 64, 61
1, 406957, Control_c, 0, 64, 52
1, 406972, Control_c, 0, 64, 17
1, 406987, Control_c, 0, 64, 0
1, 407060, Control_c, 0, 64, 21
1, 407075, Control_c, 0, 64, 48
1, 407090, Control_c, 0, 64, 58
1, 407105, Control_c, 0, 64, 62
1, 407120, Control_c, 0, 64, 64
1, 407134, Control_c, 0, 64, 66
1, 407149, Control_c, 0, 64, 69
1, 407164, Control_c, 0, 64, 72
1, 407179, Control_c, 0, 64, 78
1, 407194, Control_c, 0, 64, 86
1, 407208, Control_c, 0, 64, 96
1, 407223, Control_c, 0, 64, 110
1, 407238, Control_c, 0, 64, 127
1, 407308, Note_off_c, 0, 35, 33
1, 407352, Note_off_c, 0, 47, 34
1, 407375, Note_off_c, 0, 51, 41
1, 407381, Note_off_c, 0, 54, 35
1, 407732, Note_on_c, 0, 54, 50
1, 407750, Note_on_c, 0, 51, 49
1, 407764, Note_on_c, 0, 35, 25
1, 407765, Note_on_c, 0, 42, 30
1, 407769, Note_on_c, 0, 47, 14
1, 408009, Note_off_c, 0, 42, 41
1, 408014, Note_off_c, 0, 47, 38
1, 408015, Note_off_c, 0, 35, 38
1, 408027, Note_off_c, 0, 54, 36
1, 408032, Note_off_c, 0, 51, 32
1, 408190, Note_on_c, 0, 54, 51
1, 408221, Note_on_c, 0, 35, 17
1, 408221, Note_on_c, 0, 42, 14
1, 408235, Note_on_c, 0, 47, 11
1, 408273, Poly_aftertouch_c, 0, 51, 127
1, 408437, Note_off_c, 0, 42, 40
1, 408438, Note_off_c, 0, 35, 36
1, 408452, Note_off_c, 0, 54, 35
1, 408460, Poly_aftertouch_c, 0, 51, 0
1, 408463, Note_off_c, 0, 47, 36
1, 408702, Note_on_c, 0, 54, 44
1, 408713, Note_on_c, 0, 35, 23
1, 408719, Note_on_c, 0, 51, 34
1, 408725, Note_on_c, 0, 42, 8
1, 408763, Poly_aftertouch_c, 0, 47, 127
1, 409351, Note_off_c, 0, 35, 38
1, 409375, Note_off_c, 0, 54, 37
1, 409386, Note_off_c, 0, 51, 33
1, 409389, Note_off_c, 0, 42, 38
1, 409390, Poly_aftertouch_c, 0, 47, 0
1, 409831, Note_on_c, 0, 54, 36
1, 409837, Note_on_c, 0, 47, 13
1, 409854, Note_on_c, 0, 51, 39
1, 409864, Note_on_c, 0, 35, 14
1, 409865, Note_on_c, 0, 42, 20
1, 410138, Note_off_c, 0, 35, 37
1, 410141, Note_off_c, 0, 42, 40
1, 410158, Note_off_c, 0, 47, 31
1, 410168, Note_off_c, 0, 54, 37
1, 410169, Note_off_c, 0, 51, 34
1, 410494, Note_on_c, 0, 47, 22
1, 410505, Note_on_c, 0, 54, 34
1, 410506, Note_on_c, 0, 42, 20
1, 410507, Note_on_c, 0, 35, 26
1, 410511, Note_on_c, 0, 51, 34
1, 410778, Note_off_c, 0, 42, 41
1, 410868, Note_off_c, 0, 35, 37
1, 410979, Note_off_c, 0, 47, 29
1, 411036, Note_off_c, 0, 51, 36
1, 411659, Note_on_c, 0, 52, 31
1, 411662, Note_on_c, 0, 28, 33
1, 411668, Note_on_c, 0, 47, 31
1, 411669, Note_on_c, 0, 55, 37
1, 411688, Note_on_c, 0, 40, 29
1, 411730, Control_c, 0, 64, 119
1, 411745, Control_c, 0, 64, 99
1, 411760, Control_c, 0, 64, 87
1, 411775, Control_c, 0, 64, 78
1, 411790, Control_c, 0, 64, 69
1, 411805, Control_c, 0, 64, 62
1, 411819, Control_c, 0, 64, 47
1, 411834, Control_c, 0, 64, 0
1, 411923, Control_c, 0, 64, 39
1, 411938, Control_c, 0, 64, 53
1, 411953, Control_c, 0, 64, 60
1, 411968, Control_c, 0, 64, 62
1, 411983, Control_c, 0, 64, 64
1, 411998, Control_c, 0, 64, 66
1, 412012, Control_c, 0, 64, 69
1, 412027, Control_c, 0, 64, 73
1, 412042, Control_c, 0, 64, 78
1, 412056, Control_c, 0, 64, 84
1, 412067, Note_off_c, 0, 47, 48
1, 412071, Control_c, 0, 64, 91
1, 412086, Control_c, 0, 64, 99
1, 412092, Note_off_c, 0, 54, 3
1, 412109, Control_c, 0, 64, 109
1, 412124, Control_c, 0, 64, 127
1, 412186, Note_off_c, 0, 52, 43
1, 412258, Note_off_c, 0, 55, 61
1, 412564, Note_on_c, 0, 59, 73
1, 412755, Note_off_c, 0, 28, 36
1, 412953, Note_off_c, 0, 40, 46
1, 413209, Note_on_c, 0, 67, 37
1, 413212, Note_on_c, 0, 64, 41
1, 413220, Note_on_c, 0, 71, 41
1, 413477, Note_on_c, 0, 40, 39
1, 413654, Note_off_c, 0, 59, 59
1, 413671, Note_on_c, 0, 52, 43
1, 413770, Note_off_c, 0, 71, 36
1, 413808, Note_off_c, 0, 67, 61
1, 413838, Note_off_c, 0, 52, 55
1, 413839, Note_on_c, 0, 57, 74
1, 413839, Note_off_c, 0, 64, 62
1, 413933, Note_off_c, 0, 40, 46
1, 414035, Note_on_c, 0, 67, 51
1, 414040, Note_on_c, 0, 64, 45
1, 414118, Note_off_c, 0, 57, 61
1, 414228, Note_on_c, 0, 28, 40
1, 414302, Note_on_c, 0, 55, 65
1, 414303, Control_c, 0, 64, 125
1, 414317, Control_c, 0, 64, 116
1, 414332, Control_c, 0, 64, 114
1, 414342, Note_off_c, 0, 67, 39
1, 414355, Control_c, 0, 64, 112
1, 414370, Control_c, 0, 64, 108
1, 414385, Control_c, 0, 64, 104
1, 414390, Note_off_c, 0, 64, 59
1, 414399, Control_c, 0, 64, 99
1, 414414, Control_c, 0, 64, 96
1, 414429, Control_c, 0, 64, 93
1, 414444, Control_c, 0, 64, 91
1, 414459, Control_c, 0, 64, 88
1, 414473, Control_c, 0, 64, 85
1, 414488, Control_c, 0, 64, 82
1, 414503, Control_c, 0, 64, 79
1, 414518, Control_c, 0, 64, 77
1, 414532, Control_c, 0, 64, 74
1, 414547, Control_c, 0, 64, 71
1, 414562, Control_c, 0, 64, 66
1, 414571, Note_on_c, 0, 40, 41
1, 414577, Control_c, 0, 64, 58
1, 414592, Control_c, 0, 64, 39
1, 414607, Control_c, 0, 64, 31
1, 414622, Control_c, 0, 64, 36
1, 414636, Control_c, 0, 64, 48
1, 414651, Control_c, 0, 64, 58
1, 414666, Control_c, 0, 64, 64
1, 414681, Control_c, 0, 64, 67
1, 414696, Control_c, 0, 64, 71
1, 414711, Control_c, 0, 64, 75
1, 414725, Control_c, 0, 64, 78
1, 414740, Control_c, 0, 64, 79
1, 414755, Control_c, 0, 64, 80
1, 414791, Note_on_c, 0, 54, 63
1, 414799, Control_c, 0, 64, 79
1, 414829, Control_c, 0, 64, 78
1, 414836, Note_off_c, 0, 55, 60
1, 414845, Control_c, 0, 64, 75
1, 414860, Control_c, 0, 64, 68
1, 414875, Control_c, 0, 64, 62
1, 414890, Control_c, 0, 64, 58
1, 414904, Control_c, 0, 64, 60
1, 414919, Control_c, 0, 64, 63
1, 414934, Control_c, 0, 64, 67
1, 414948, Control_c, 0, 64, 71
1, 414963, Control_c, 0, 64, 79
1, 414978, Control_c, 0, 64, 85
1, 414993, Control_c, 0, 64, 91
1, 415008, Control_c, 0, 64, 95
1, 415022, Control_c, 0, 64, 98
1, 415037, Control_c, 0, 64, 100
1, 415048, Note_off_c, 0, 28, 50
1, 415052, Control_c, 0, 64, 101
1, 415066, Control_c, 0, 64, 102
1, 415081, Control_c, 0, 64, 104
1, 415104, Control_c, 0, 64, 107
1, 415119, Control_c, 0, 64, 109
1, 415134, Control_c, 0, 64, 110
1, 415137, Note_off_c, 0, 40, 46
1, 415142, Note_on_c, 0, 64, 36
1, 415143, Note_on_c, 0, 59, 13
1, 415148, Control_c, 0, 64, 113
1, 415163, Control_c, 0, 64, 125
1, 415178, Control_c, 0, 64, 127
1, 415353, Note_on_c, 0, 40, 37
1, 415496, Note_off_c, 0, 59, 39
1, 415567, Note_on_c, 0, 52, 36
1, 415637, Note_off_c, 0, 52, 61
1, 415760, Note_on_c, 0, 52, 54
1, 415777, Note_off_c, 0, 54, 43
1, 415806, Note_off_c, 0, 40, 35
1, 415930, Note_off_c, 0, 64, 9
1, 416011, Note_on_c, 0, 55, 42
1, 416022, Note_on_c, 0, 59, 31
1, 416204, Note_on_c, 0, 28, 48
1, 416327, Control_c, 0, 64, 113
1, 416342, Control_c, 0, 64, 100
1, 416356, Control_c, 0, 64, 86
1, 416371, Control_c, 0, 64, 73
1, 416386, Control_c, 0, 64, 63
1, 416388, Note_off_c, 0, 52, 54
1, 416401, Control_c, 0, 64, 57
1, 416404, Note_on_c, 0, 40, 56
1, 416416, Control_c, 0, 64, 60
1, 416431, Control_c, 0, 64, 64
1, 416437, Note_off_c, 0, 55, 54
1, 416446, Control_c, 0, 64, 69
1, 416461, Control_c, 0, 64, 77
1, 416476, Control_c, 0, 64, 91
1, 416491, Control_c, 0, 64, 115
1, 416501, Note_off_c, 0, 59, 41
1, 416505, Control_c, 0, 64, 127
1, 416631, Note_on_c, 0, 55, 81
1, 416695, Note_off_c, 0, 28, 33
1, 416771, Note_off_c, 0, 40, 53
1, 416887, Note_on_c, 0, 59, 48
1, 416890, Note_on_c, 0, 64, 45
1, 417042, Note_off_c, 0, 55, 55
1, 417060, Note_on_c, 0, 40, 63
1, 417153, Note_off_c, 0, 59, 57
1, 417198, Note_off_c, 0, 64, 54
1, 417216, Note_on_c, 0, 52, 74
1, 417416, Note_on_c, 0, 59, 91
1, 417468, Note_off_c, 0, 52, 61
1, 417644, Note_off_c, 0, 40, 42
1, 417676, Note_on_c, 0, 64, 52
1, 417682, Note_on_c, 0, 67, 48
1, 417731, Note_off_c, 0, 59, 55
1, 417803, Note_off_c, 0, 67, 56
1, 417804, Note_off_c, 0, 64, 58
1, 417904, Note_on_c, 0, 31, 49
1, 417904, Note_on_c, 0, 43, 52
1, 418062, Control_c, 0, 64, 125
1, 418077, Control_c, 0, 64, 116
1, 418100, Control_c, 0, 64, 115
1, 418106, Note_on_c, 0, 64, 82
1, 418115, Control_c, 0, 64, 113
1, 418129, Control_c, 0, 64, 109
1, 418144, Control_c, 0, 64, 106
1, 418159, Control_c, 0, 64, 104
1, 418173, Control_c, 0, 64, 97
1, 418188, Control_c, 0, 64, 82
1, 418203, Control_c, 0, 64, 69
1, 418218, Control_c, 0, 64, 60
1, 418233, Control_c, 0, 64, 60
1, 418247, Control_c, 0, 64, 63
1, 418262, Control_c, 0, 64, 68
1, 418277, Control_c, 0, 64, 77
1, 418292, Control_c, 0, 64, 98
1, 418307, Control_c, 0, 64, 127
1, 418354, Note_off_c, 0, 43, 60
1, 418536, Note_on_c, 0, 42, 48
1, 418544, Control_c, 0, 64, 116
1, 418547, Note_on_c, 0, 30, 46
1, 418559, Control_c, 0, 64, 103
1, 418573, Control_c, 0, 64, 95
1, 418588, Control_c, 0, 64, 88
1, 418603, Control_c, 0, 64, 83
1, 418608, Note_off_c, 0, 31, 38
1, 418618, Control_c, 0, 64, 78
1, 418633, Control_c, 0, 64, 72
1, 418647, Control_c, 0, 64, 64
1, 418662, Control_c, 0, 64, 56
1, 418677, Control_c, 0, 64, 43
1, 418691, Control_c, 0, 64, 37
1, 418706, Control_c, 0, 64, 29
1, 418721, Control_c, 0, 64, 13
1, 418736, Control_c, 0, 64, 0
1, 418751, Control_c, 0, 64, 16
1, 418765, Control_c, 0, 64, 40
1, 418780, Control_c, 0, 64, 59
1, 418795, Control_c, 0, 64, 65
1, 418799, Note_off_c, 0, 64, 60
1, 418810, Control_c, 0, 64, 69
1, 418825, Control_c, 0, 64, 74
1, 418848, Control_c, 0, 64, 80
1, 418863, Control_c, 0, 64, 86
1, 418876, Note_on_c, 0, 64, 61
1, 418878, Control_c, 0, 64, 90
1, 418893, Control_c, 0, 64, 91
1, 418937, Control_c, 0, 64, 90
1, 418952, Control_c, 0, 64, 88
1, 418967, Control_c, 0, 64, 83
1, 418982, Control_c, 0, 64, 73
1, 418996, Control_c, 0, 64, 62
1, 419011, Control_c, 0, 64, 50
1, 419026, Control_c, 0, 64, 50
1, 419041, Control_c, 0, 64, 56
1, 419056, Control_c, 0, 64, 64
1, 419070, Control_c, 0, 64, 70
1, 419085, Control_c, 0, 64, 82
1, 419100, Control_c, 0, 64, 110
1, 419114, Control_c, 0, 64, 127
1, 419141, Note_off_c, 0, 42, 63
1, 419155, Note_off_c, 0, 30, 40
1, 419266, Note_on_c, 0, 72, 46
1, 419284, Note_on_c, 0, 69, 41
1, 419476, Note_on_c, 0, 42, 41
1, 419559, Control_c, 0, 64, 117
1, 419574, Control_c, 0, 64, 115
1, 419594, Control_c, 0, 64, 114
1, 419624, Control_c, 0, 64, 113
1, 419640, Control_c, 0, 64, 112
1, 419650, Note_on_c, 0, 54, 42
1, 419655, Control_c, 0, 64, 109
1, 419670, Control_c, 0, 64, 106
1, 419685, Control_c, 0, 64, 101
1, 419699, Control_c, 0, 64, 97
1, 419714, Control_c, 0, 64, 94
1, 419729, Control_c, 0, 64, 93
1, 419758, Control_c, 0, 64, 91
1, 419773, Control_c, 0, 64, 82
1, 419788, Control_c, 0, 64, 71
1, 419803, Control_c, 0, 64, 62
1, 419817, Control_c, 0, 64, 61
1, 419832, Control_c, 0, 64, 63
1, 419847, Note_on_c, 0, 63, 49
1, 419847, Control_c, 0, 64, 65
1, 419862, Control_c, 0, 64, 68
1, 419877, Control_c, 0, 64, 72
1, 419892, Control_c, 0, 64, 80
1, 419907, Control_c, 0, 64, 93
1, 419909, Note_off_c, 0, 64, 52
1, 419913, Note_off_c, 0, 69, 38
1, 419922, Control_c, 0, 64, 110
1, 419936, Control_c, 0, 64, 127
1, 419937, Note_off_c, 0, 72, 33
1, 419990, Note_off_c, 0, 54, 60
1, 420051, Note_off_c, 0, 42, 48
1, 420071, Note_on_c, 0, 72, 49
1, 420077, Note_on_c, 0, 69, 39
1, 420254, Note_on_c, 0, 33, 51
1, 420480, Note_on_c, 0, 45, 58
1, 420621, Note_off_c, 0, 69, 39
1, 420694, Note_off_c, 0, 72, 34
1, 420741, Note_off_c, 0, 63, 33
1, 420934, Note_on_c, 0, 72, 80
1, 420966, Control_c, 0, 64, 122
1, 420981, Control_c, 0, 64, 101
1, 420996, Control_c, 0, 64, 85
1, 421011, Control_c, 0, 64, 69
1, 421026, Control_c, 0, 64, 59
1, 421040, Control_c, 0, 64, 54
1, 421055, Control_c, 0, 64, 58
1, 421070, Control_c, 0, 64, 63
1, 421093, Control_c, 0, 64, 69
1, 421108, Control_c, 0, 64, 80
1, 421123, Control_c, 0, 64, 102
1, 421138, Control_c, 0, 64, 127
1, 421177, Note_off_c, 0, 33, 51
1, 421204, Note_off_c, 0, 45, 60
1, 421321, Note_on_c, 0, 63, 49
1, 421346, Note_on_c, 0, 60, 36
1, 421499, Note_on_c, 0, 45, 52
1, 421653, Note_on_c, 0, 57, 51
1, 421781, Poly_aftertouch_c, 0, 49, 127
1, 421800, Note_off_c, 0, 57, 59
1, 421819, Poly_aftertouch_c, 0, 49, 0
1, 421840, Note_on_c, 0, 66, 76
1, 421874, Note_off_c, 0, 60, 25
1, 421885, Note_off_c, 0, 63, 58
1, 421901, Note_off_c, 0, 45, 39
1, 422026, Note_on_c, 0, 63, 49
1, 422050, Note_on_c, 0, 60, 36
1, 422188, Note_off_c, 0, 66, 56
1, 422241, Note_on_c, 0, 33, 38
1, 422247, Note_on_c, 0, 45, 28
1, 422317, Control_c, 0, 64, 112
1, 422332, Control_c, 0, 64, 97
1, 422339, Note_on_c, 0, 66, 62
1, 422346, Control_c, 0, 64, 80
1, 422356, Note_off_c, 0, 60, 40
1, 422361, Control_c, 0, 64, 65
1, 422367, Note_off_c, 0, 72, 52
1, 422376, Control_c, 0, 64, 49
1, 422391, Control_c, 0, 64, 43
1, 422405, Control_c, 0, 64, 52
1, 422411, Note_off_c, 0, 63, 50
1, 422420, Control_c, 0, 64, 60
1, 422435, Control_c, 0, 64, 65
1, 422450, Control_c, 0, 64, 71
1, 422465, Control_c, 0, 64, 81
1, 422479, Control_c, 0, 64, 96
1, 422491, Note_off_c, 0, 33, 40
1, 422494, Control_c, 0, 64, 127
1, 422515, Note_off_c, 0, 45, 57
1, 422681, Note_on_c, 0, 43, 31
1, 422699, Note_on_c, 0, 31, 38
1, 422724, Control_c, 0, 64, 95
1, 422739, Control_c, 0, 64, 77
1, 422753, Control_c, 0, 64, 65
1, 422768, Control_c, 0, 64, 53
1, 422783, Control_c, 0, 64, 49
1, 422798, Control_c, 0, 64, 54
1, 422813, Control_c, 0, 64, 60
1, 422828, Control_c, 0, 64, 65
1, 422843, Control_c, 0, 64, 70
1, 422858, Control_c, 0, 64, 77
1, 422873, Control_c, 0, 64, 86
1, 422888, Control_c, 0, 64, 91
1, 422903, Control_c, 0, 64, 93
1, 422917, Control_c, 0, 64, 94
1, 422932, Control_c, 0, 64, 94
1, 422947, Control_c, 0, 64, 95
1, 422962, Control_c, 0, 64, 97
1, 422977, Control_c, 0, 64, 98
1, 422992, Note_on_c, 0, 71, 61
1, 423007, Control_c, 0, 64, 97
1, 423022, Control_c, 0, 64, 95
1, 423036, Control_c, 0, 64, 92
1, 423051, Control_c, 0, 64, 85
1, 423056, Note_off_c, 0, 66, 53
1, 423066, Control_c, 0, 64, 72
1, 423081, Control_c, 0, 64, 62
1, 423096, Control_c, 0, 64, 50
1, 423110, Control_c, 0, 64, 50
1, 423125, Control_c, 0, 64, 55
1, 423140, Control_c, 0, 64, 62
1, 423155, Control_c, 0, 64, 69
1, 423169, Control_c, 0, 64, 79
1, 423184, Control_c, 0, 64, 102
1, 423199, Control_c, 0, 64, 127
1, 423232, Note_off_c, 0, 31, 40
1, 423285, Note_off_c, 0, 43, 40
1, 423356, Note_on_c, 0, 59, 39
1, 423560, Note_on_c, 0, 43, 38
1, 423728, Note_on_c, 0, 55, 47
1, 423868, Note_off_c, 0, 55, 61
1, 423888, Note_on_c, 0, 63, 68
1, 423918, Note_off_c, 0, 59, 29
1, 423940, Note_off_c, 0, 43, 36
1, 424042, Note_on_c, 0, 59, 53
1, 424215, Note_on_c, 0, 31, 44
1, 424233, Note_on_c, 0, 43, 37
1, 424295, Note_on_c, 0, 64, 77
1, 424305, Note_off_c, 0, 59, 57
1, 424318, Poly_aftertouch_c, 0, 69, 127
1, 424354, Note_off_c, 0, 43, 52
1, 424354, Note_off_c, 0, 71, 42
1, 424358, Note_off_c, 0, 31, 37
1, 424364, Note_off_c, 0, 63, 59
1, 424366, Poly_aftertouch_c, 0, 69, 0
1, 424503, Control_c, 0, 64, 106
1, 424512, Note_on_c, 0, 45, 46
1, 424518, Note_on_c, 0, 33, 43
1, 424518, Control_c, 0, 64, 94
1, 424533, Control_c, 0, 64, 86
1, 424548, Control_c, 0, 64, 76
1, 424563, Control_c, 0, 64, 66
1, 424578, Control_c, 0, 64, 52
1, 424593, Control_c, 0, 64, 23
1, 424607, Control_c, 0, 64, 19
1, 424622, Control_c, 0, 64, 37
1, 424637, Control_c, 0, 64, 53
1, 424652, Control_c, 0, 64, 62
1, 424667, Control_c, 0, 64, 67
1, 424681, Control_c, 0, 64, 71
1, 424696, Control_c, 0, 64, 77
1, 424711, Control_c, 0, 64, 83
1, 424726, Control_c, 0, 64, 87
1, 424741, Control_c, 0, 64, 90
1, 424745, Note_on_c, 0, 66, 73
1, 424770, Control_c, 0, 64, 91
1, 424785, Note_off_c, 0, 64, 61
1, 424799, Control_c, 0, 64, 92
1, 424814, Control_c, 0, 64, 93
1, 424837, Control_c, 0, 64, 97
1, 424852, Control_c, 0, 64, 104
1, 424867, Control_c, 0, 64, 117
1, 424870, Note_off_c, 0, 33, 38
1, 424882, Control_c, 0, 64, 127
1, 424904, Note_off_c, 0, 45, 62
1, 424983, Note_on_c, 0, 60, 33
1, 424984, Note_on_c, 0, 64, 55
1, 425151, Note_on_c, 0, 45, 44
1, 425242, Note_off_c, 0, 60, 32
1, 425329, Note_on_c, 0, 57, 47
1, 425401, Control_c, 0, 64, 119
1, 425416, Control_c, 0, 64, 114
1, 425430, Control_c, 0, 64, 110
1, 425445, Control_c, 0, 64, 107
1, 425460, Control_c, 0, 64, 105
1, 425477, Note_off_c, 0, 57, 53
1, 425500, Note_on_c, 0, 67, 70
1, 425505, Control_c, 0, 64, 105
1, 425520, Control_c, 0, 64, 104
1, 425535, Control_c, 0, 64, 103
1, 425549, Control_c, 0, 64, 102
1, 425556, Note_off_c, 0, 64, 61
1, 425564, Control_c, 0, 64, 101
1, 425626, Note_off_c, 0, 45, 59
1, 425669, Note_off_c, 0, 66, 52
1, 425690, Control_c, 0, 64, 101
1, 425705, Control_c, 0, 64, 100
1, 425719, Control_c, 0, 64, 99
1, 425733, Note_on_c, 0, 55, 51
1, 425734, Control_c, 0, 64, 99
1, 425735, Note_on_c, 0, 61, 48
1, 425749, Control_c, 0, 64, 98
1, 425764, Control_c, 0, 64, 98
1, 425779, Control_c, 0, 64, 97
1, 425794, Control_c, 0, 64, 96
1, 425809, Note_off_c, 0, 67, 55
1, 425809, Control_c, 0, 64, 95
1, 425853, Control_c, 0, 64, 95
1, 425883, Control_c, 0, 64, 94
1, 425898, Control_c, 0, 64, 94
1, 425912, Control_c, 0, 64, 92
1, 425927, Control_c, 0, 64, 91
1, 425942, Control_c, 0, 64, 89
1, 425956, Control_c, 0, 64, 87
1, 425960, Note_on_c, 0, 46, 40
1, 425971, Control_c, 0, 64, 85
1, 425984, Note_on_c, 0, 34, 32
1, 425986, Control_c, 0, 64, 83
1, 426001, Control_c, 0, 64, 81
1, 426016, Control_c, 0, 64, 80
1, 426032, Control_c, 0, 64, 78
1, 426040, Note_on_c, 0, 64, 66
1, 426047, Control_c, 0, 64, 75
1, 426061, Control_c, 0, 64, 71
1, 426076, Note_off_c, 0, 55, 37
1, 426076, Control_c, 0, 64, 64
1, 426091, Control_c, 0, 64, 53
1, 426096, Note_off_c, 0, 61, 61
1, 426106, Control_c, 0, 64, 29
1, 426121, Control_c, 0, 64, 12
1, 426135, Control_c, 0, 64, 20
1, 426150, Control_c, 0, 64, 40
1, 426165, Control_c, 0, 64, 57
1, 426179, Control_c, 0, 64, 64
1, 426194, Control_c, 0, 64, 70
1, 426209, Control_c, 0, 64, 78
1, 426224, Control_c, 0, 64, 91
1, 426239, Control_c, 0, 64, 106
1, 426253, Control_c, 0, 64, 127
1, 426271, Note_off_c, 0, 46, 56
1, 426298, Control_c, 0, 64, 119
1, 426313, Control_c, 0, 64, 116
1, 426335, Control_c, 0, 64, 115
1, 426348, Note_on_c, 0, 47, 34
1, 426350, Control_c, 0, 64, 112
1, 426354, Note_on_c, 0, 35, 36
1, 426365, Control_c, 0, 64, 109
1, 426379, Control_c, 0, 64, 105
1, 426394, Control_c, 0, 64, 101
1, 426409, Control_c, 0, 64, 97
1, 426424, Control_c, 0, 64, 91
1, 426439, Control_c, 0, 64, 87
1, 426453, Control_c, 0, 64, 82
1, 426461, Note_off_c, 0, 34, 29
1, 426468, Control_c, 0, 64, 78
1, 426483, Control_c, 0, 64, 72
1, 426498, Control_c, 0, 64, 64
1, 426513, Control_c, 0, 64, 49
1, 426527, Control_c, 0, 64, 0
1, 426538, Note_on_c, 0, 63, 58
1, 426581, Note_off_c, 0, 64, 61
1, 426587, Control_c, 0, 64, 30
1, 426602, Control_c, 0, 64, 58
1, 426617, Control_c, 0, 64, 65
1, 426632, Control_c, 0, 64, 69
1, 426647, Control_c, 0, 64, 75
1, 426661, Control_c, 0, 64, 81
1, 426676, Control_c, 0, 64, 89
1, 426691, Control_c, 0, 64, 105
1, 426706, Control_c, 0, 64, 127
1, 426719, Note_off_c, 0, 35, 39
1, 426754, Note_off_c, 0, 47, 41
1, 426799, Note_on_c, 0, 54, 57
1, 426804, Note_on_c, 0, 59, 50
1, 426858, Note_off_c, 0, 54, 51
1, 426945, Note_off_c, 0, 59, 36
1, 426989, Note_on_c, 0, 47, 34
1, 427167, Note_on_c, 0, 59, 42
1, 427292, Note_off_c, 0, 59, 49
1, 427362, Note_on_c, 0, 66, 55
1, 427418, Note_off_c, 0, 63, 40
1, 427451, Note_off_c, 0, 47, 20
1, 427575, Note_on_c, 0, 59, 41
1, 427578, Note_on_c, 0, 63, 40
1, 427780, Note_on_c, 0, 35, 44
1, 428000, Note_off_c, 0, 59, 60
1, 428033, Note_on_c, 0, 47, 49
1, 428206, Note_off_c, 0, 66, 31
1, 428232, Control_c, 0, 64, 112
1, 428247, Control_c, 0, 64, 88
1, 428262, Control_c, 0, 64, 70
1, 428277, Control_c, 0, 64, 56
1, 428292, Control_c, 0, 64, 51
1, 428300, Note_on_c, 0, 55, 74
1, 428306, Control_c, 0, 64, 56
1, 428321, Control_c, 0, 64, 63
1, 428336, Control_c, 0, 64, 69
1, 428350, Control_c, 0, 64, 81
1, 428356, Note_off_c, 0, 63, 59
1, 428365, Control_c, 0, 64, 127
1, 428409, Note_off_c, 0, 35, 39
1, 428433, Note_off_c, 0, 47, 61
1, 428593, Note_on_c, 0, 62, 40
1, 428599, Note_on_c, 0, 67, 50
1, 428638, Note_off_c, 0, 55, 60
1, 428748, Note_on_c, 0, 47, 49
1, 428761, Note_off_c, 0, 62, 60
1, 428789, Note_off_c, 0, 67, 52
1, 428910, Note_on_c, 0, 59, 51
1, 429138, Note_off_c, 0, 59, 37
1, 429177, Note_on_c, 0, 62, 82
1, 429201, Note_off_c, 0, 47, 59
1, 429403, Note_on_c, 0, 67, 51
1, 429409, Note_on_c, 0, 74, 48
1, 429479, Note_off_c, 0, 62, 54
1, 429543, Note_on_c, 0, 47, 44
1, 429550, Note_on_c, 0, 35, 39
1, 429612, Control_c, 0, 64, 97
1, 429624, Note_on_c, 0, 64, 80
1, 429627, Control_c, 0, 64, 75
1, 429642, Control_c, 0, 64, 65
1, 429645, Note_off_c, 0, 74, 56
1, 429645, Note_off_c, 0, 67, 48
1, 429657, Control_c, 0, 64, 63
1, 429672, Control_c, 0, 64, 68
1, 429686, Control_c, 0, 64, 76
1, 429701, Control_c, 0, 64, 94
1, 429716, Note_on_c, 0, 70, 15
1, 429716, Control_c, 0, 64, 127
1, 429721, Note_off_c, 0, 35, 47
1, 429725, Note_off_c, 0, 47, 57
1, 429840, Note_on_c, 0, 45, 54
1, 429856, Note_on_c, 0, 33, 45
1, 429864, Control_c, 0, 64, 120
1, 429878, Control_c, 0, 64, 78
1, 429893, Control_c, 0, 64, 61
1, 429908, Control_c, 0, 64, 39
1, 429938, Control_c, 0, 64, 52
1, 429952, Control_c, 0, 64, 63
1, 429967, Control_c, 0, 64, 70
1, 429982, Control_c, 0, 64, 82
1, 429997, Control_c, 0, 64, 110
1, 430012, Poly_aftertouch_c, 0, 74, 127
1, 430012, Control_c, 0, 64, 127
1, 430018, Note_off_c, 0, 64, 59
1, 430086, Note_on_c, 0, 62, 75
1, 430124, Note_off_c, 0, 45, 63
1, 430127, Note_off_c, 0, 33, 39
1, 430174, Poly_aftertouch_c, 0, 74, 0
1, 430304, Note_on_c, 0, 67, 43
1, 430310, Note_on_c, 0, 74, 48
1, 430482, Note_on_c, 0, 45, 51
1, 430486, Poly_aftertouch_c, 0, 43, 127
1, 430517, Poly_aftertouch_c, 0, 43, 0
1, 430587, Poly_aftertouch_c, 0, 46, 127
1, 430617, Poly_aftertouch_c, 0, 46, 0
1, 430639, Note_off_c, 0, 62, 59
1, 430645, Note_on_c, 0, 57, 56
1, 430767, Note_off_c, 0, 74, 43
1, 430811, Note_off_c, 0, 57, 63
1, 430842, Note_on_c, 0, 60, 71
1, 430886, Note_off_c, 0, 67, 52
1, 430925, Note_off_c, 0, 45, 63
1, 431021, Note_on_c, 0, 72, 61
1, 431022, Note_on_c, 0, 67, 50
1, 431219, Note_on_c, 0, 33, 67
1, 431271, Control_c, 0, 64, 81
1, 431286, Control_c, 0, 64, 63
1, 431301, Control_c, 0, 64, 43
1, 431315, Control_c, 0, 64, 35
1, 431330, Control_c, 0, 64, 41
1, 431345, Control_c, 0, 64, 53
1, 431360, Control_c, 0, 64, 61
1, 431374, Control_c, 0, 64, 66
1, 431389, Control_c, 0, 64, 73
1, 431404, Control_c, 0, 64, 83
1, 431419, Control_c, 0, 64, 99
1, 431434, Control_c, 0, 64, 127
1, 431493, Control_c, 0, 67, 126
1, 431508, Control_c, 0, 67, 123
1, 431523, Control_c, 0, 67, 122
1, 431525, Note_on_c, 0, 45, 69
1, 431538, Control_c, 0, 67, 120
1, 431553, Control_c, 0, 67, 120
1, 431589, Control_c, 0, 67, 119
1, 431601, Note_off_c, 0, 72, 59
1, 431617, Note_off_c, 0, 70, 35
1, 431619, Control_c, 0, 67, 120
1, 431626, Note_off_c, 0, 67, 58
1, 431635, Control_c, 0, 67, 120
1, 431650, Control_c, 0, 67, 121
1, 431679, Control_c, 0, 67, 122
1, 431694, Control_c, 0, 67, 122
1, 431753, Control_c, 0, 67, 123
1, 431783, Control_c, 0, 67, 124
1, 431887, Control_c, 0, 67, 124
1, 431917, Control_c, 0, 67, 125
1, 431940, Note_on_c, 0, 72, 89
1, 431946, Control_c, 0, 64, 103
1, 431961, Control_c, 0, 64, 81
1, 431961, Control_c, 0, 67, 125
1, 431976, Control_c, 0, 64, 66
1, 431990, Control_c, 0, 64, 59
1, 432005, Control_c, 0, 64, 62
1, 432020, Control_c, 0, 64, 67
1, 432035, Control_c, 0, 64, 76
1, 432050, Control_c, 0, 64, 103
1, 432050, Control_c, 0, 67, 126
1, 432064, Control_c, 0, 64, 127
1, 432084, Note_off_c, 0, 60, 30
1, 432090, Note_off_c, 0, 33, 60
1, 432139, Note_off_c, 0, 45, 61
1, 432153, Control_c, 0, 67, 125
1, 432286, Control_c, 0, 67, 126
1, 432288, Note_on_c, 0, 60, 60
1, 432288, Note_on_c, 0, 67, 54
1, 432301, Control_c, 0, 67, 127
1, 432325, Control_c, 0, 67, 127
1, 432410, Note_off_c, 0, 60, 63
1, 432442, Note_off_c, 0, 67, 62
1, 432470, Note_off_c, 0, 72, 64
1, 432475, Note_on_c, 0, 52, 54
1, 432627, Note_on_c, 0, 57, 47
1, 432637, Note_on_c, 0, 64, 49
1, 432797, Note_off_c, 0, 64, 49
1, 432869, Note_off_c, 0, 57, 62
1, 432892, Note_on_c, 0, 79, 91
1, 432921, Note_off_c, 0, 52, 62
1, 433183, Note_on_c, 0, 72, 54
1, 433187, Note_on_c, 0, 67, 36
1, 433288, Note_off_c, 0, 79, 60
1, 433332, Note_on_c, 0, 45, 40
1, 433339, Note_on_c, 0, 33, 44
1, 433400, Control_c, 0, 64, 103
1, 433415, Control_c, 0, 64, 82
1, 433430, Control_c, 0, 64, 67
1, 433444, Control_c, 0, 64, 60
1, 433452, Note_on_c, 0, 81, 82
1, 433459, Control_c, 0, 64, 61
1, 433474, Control_c, 0, 64, 66
1, 433489, Control_c, 0, 64, 76
1, 433504, Control_c, 0, 64, 98
1, 433518, Control_c, 0, 64, 127
1, 433538, Note_off_c, 0, 33, 39
1, 433550, Note_off_c, 0, 45, 60
1, 433741, Control_c, 0, 64, 108
1, 433754, Note_on_c, 0, 50, 43
1, 433755, Note_on_c, 0, 38, 39
1, 433756, Control_c, 0, 64, 79
1, 433771, Control_c, 0, 64, 63
1, 433786, Control_c, 0, 64, 54
1, 433800, Control_c, 0, 64, 55
1, 433822, Control_c, 0, 64, 60
1, 433837, Control_c, 0, 64, 65
1, 433851, Control_c, 0, 64, 72
1, 433866, Control_c, 0, 64, 92
1, 433881, Control_c, 0, 64, 127
1, 433928, Note_off_c, 0, 81, 53
1, 434027, Note_on_c, 0, 79, 72
1, 434075, Control_c, 0, 64, 86
1, 434090, Control_c, 0, 64, 67
1, 434105, Control_c, 0, 64, 54
1, 434120, Control_c, 0, 64, 46
1, 434123, Note_off_c, 0, 72, 45
1, 434135, Control_c, 0, 64, 52
1, 434149, Control_c, 0, 64, 62
1, 434149, Note_off_c, 0, 67, 37
1, 434164, Control_c, 0, 64, 68
1, 434179, Control_c, 0, 64, 80
1, 434194, Control_c, 0, 64, 110
1, 434209, Control_c, 0, 64, 127
1, 434229, Note_off_c, 0, 38, 39
1, 434251, Note_off_c, 0, 50, 63
1, 434356, Note_on_c, 0, 72, 45
1, 434382, Note_on_c, 0, 67, 31
1, 434451, Note_off_c, 0, 67, 56
1, 434543, Note_off_c, 0, 72, 56
1, 434584, Note_on_c, 0, 57, 44
1, 434743, Note_on_c, 0, 69, 42
1, 434745, Note_on_c, 0, 62, 39
1, 434914, Note_on_c, 0, 78, 61
1, 434932, Note_off_c, 0, 69, 62
1, 434979, Note_off_c, 0, 62, 60
1, 434985, Note_off_c, 0, 57, 63
1, 435093, Note_on_c, 0, 72, 50
1, 435103, Note_on_c, 0, 66, 48
1, 435157, Note_off_c, 0, 79, 32
1, 435263, Note_on_c, 0, 38, 54
1, 435282, Control_c, 0, 64, 77
1, 435297, Control_c, 0, 64, 55
1, 435319, Control_c, 0, 64, 0
1, 435364, Control_c, 0, 64, 33
1, 435378, Control_c, 0, 64, 59
1, 435393, Control_c, 0, 64, 71
1, 435408, Control_c, 0, 64, 96
1, 435422, Note_off_c, 0, 38, 62
1, 435422, Control_c, 0, 64, 127
1, 435515, Note_on_c, 0, 57, 69
1, 435517, Note_off_c, 0, 66, 57
1, 435589, Note_off_c, 0, 72, 53
1, 435866, Note_on_c, 0, 66, 89
1, 435869, Note_off_c, 0, 57, 61
1, 435955, Note_off_c, 0, 78, 55
1, 436177, Note_on_c, 0, 72, 52
1, 436182, Note_on_c, 0, 78, 51
1, 436275, Control_c, 0, 64, 119
1, 436290, Control_c, 0, 64, 87
1, 436305, Control_c, 0, 64, 78
1, 436314, Note_on_c, 0, 55, 54
1, 436320, Control_c, 0, 64, 80
1, 436334, Control_c, 0, 64, 87
1, 436349, Control_c, 0, 64, 106
1, 436364, Control_c, 0, 64, 127
1, 436431, Note_off_c, 0, 72, 61
1, 436439, Note_off_c, 0, 66, 60
1, 436451, Note_off_c, 0, 78, 59
1, 436484, Note_on_c, 0, 61, 55
1, 436485, Note_on_c, 0, 70, 61
1, 436588, Control_c, 0, 64, 119
1, 436603, Control_c, 0, 64, 92
1, 436617, Control_c, 0, 64, 79
1, 436632, Control_c, 0, 64, 73
1, 436647, Control_c, 0, 64, 73
1, 436661, Control_c, 0, 64, 77
1, 436676, Control_c, 0, 64, 84
1, 436691, Control_c, 0, 64, 98
1, 436695, Note_off_c, 0, 70, 64
1, 436698, Note_on_c, 0, 64, 83
1, 436706, Control_c, 0, 64, 127
1, 436749, Note_off_c, 0, 61, 61
1, 436784, Note_off_c, 0, 55, 52
1, 436960, Note_on_c, 0, 76, 56
1, 436967, Note_on_c, 0, 70, 48
1, 436981, Control_c, 0, 64, 112
1, 436996, Control_c, 0, 64, 102
1, 437011, Control_c, 0, 64, 96
1, 437025, Control_c, 0, 64, 91
1, 437040, Control_c, 0, 64, 89
1, 437055, Control_c, 0, 64, 87
1, 437069, Control_c, 0, 64, 83
1, 437084, Control_c, 0, 64, 72
1, 437098, Note_on_c, 0, 38, 45
1, 437099, Control_c, 0, 64, 61
1, 437114, Control_c, 0, 64, 37
1, 437129, Control_c, 0, 64, 36
1, 437143, Control_c, 0, 64, 48
1, 437158, Control_c, 0, 64, 59
1, 437173, Control_c, 0, 64, 65
1, 437187, Control_c, 0, 64, 72
1, 437202, Control_c, 0, 64, 83
1, 437219, Control_c, 0, 64, 105
1, 437234, Control_c, 0, 64, 127
1, 437280, Note_on_c, 0, 54, 57
1, 437333, Poly_aftertouch_c, 0, 73, 127
1, 437393, Note_off_c, 0, 64, 57
1, 437440, Control_c, 0, 64, 125
1, 437455, Control_c, 0, 64, 111
1, 437470, Control_c, 0, 64, 103
1, 437485, Control_c, 0, 64, 95
1, 437500, Control_c, 0, 64, 88
1, 437515, Control_c, 0, 64, 76
1, 437526, Note_off_c, 0, 76, 51
1, 437530, Control_c, 0, 64, 64
1, 437532, Note_on_c, 0, 62, 81
1, 437545, Control_c, 0, 64, 55
1, 437566, Control_c, 0, 64, 57
1, 437581, Control_c, 0, 64, 62
1, 437596, Control_c, 0, 64, 67
1, 437611, Control_c, 0, 64, 75
1, 437616, Note_off_c, 0, 38, 50
1, 437626, Control_c, 0, 64, 89
1, 437640, Control_c, 0, 64, 125
1, 437655, Control_c, 0, 64, 127
1, 437682, Note_off_c, 0, 54, 62
1, 437697, Poly_aftertouch_c, 0, 73, 0
1, 437709, Note_off_c, 0, 70, 26
1, 437830, Note_on_c, 0, 69, 45
1, 437836, Note_on_c, 0, 74, 48
1, 437975, Note_on_c, 0, 53, 50
1, 438145, Control_c, 0, 64, 119
1, 438160, Control_c, 0, 64, 112
1, 438171, Note_on_c, 0, 59, 45
1, 438175, Control_c, 0, 64, 110
1, 438189, Control_c, 0, 64, 109
1, 438195, Note_on_c, 0, 68, 48
1, 438204, Control_c, 0, 64, 107
1, 438219, Control_c, 0, 64, 104
1, 438234, Control_c, 0, 64, 97
1, 438249, Control_c, 0, 64, 88
1, 438263, Control_c, 0, 64, 77
1, 438278, Control_c, 0, 64, 68
1, 438293, Control_c, 0, 64, 63
1, 438314, Control_c, 0, 64, 64
1, 438329, Control_c, 0, 64, 68
1, 438344, Control_c, 0, 64, 75
1, 438359, Control_c, 0, 64, 90
1, 438374, Control_c, 0, 64, 127
1, 438415, Note_off_c, 0, 62, 61
1, 438458, Note_off_c, 0, 68, 58
1, 438498, Note_on_c, 0, 62, 64
1, 438511, Note_off_c, 0, 74, 55
1, 438527, Note_off_c, 0, 69, 51
1, 438542, Note_off_c, 0, 59, 57
1, 438604, Note_off_c, 0, 53, 62
1, 438817, Note_on_c, 0, 74, 46
1, 438831, Note_on_c, 0, 68, 43
1, 438937, Control_c, 0, 64, 110
1, 438952, Control_c, 0, 64, 103
1, 438967, Control_c, 0, 64, 97
1, 438982, Control_c, 0, 64, 91
1, 438996, Note_on_c, 0, 38, 41
1, 438997, Control_c, 0, 64, 84
1, 439011, Control_c, 0, 64, 74
1, 439026, Control_c, 0, 64, 65
1, 439041, Control_c, 0, 64, 59
1, 439063, Control_c, 0, 64, 58
1, 439078, Control_c, 0, 64, 61
1, 439093, Control_c, 0, 64, 64
1, 439108, Control_c, 0, 64, 69
1, 439123, Control_c, 0, 64, 78
1, 439137, Control_c, 0, 64, 93
1, 439152, Control_c, 0, 64, 115
1, 439167, Control_c, 0, 64, 127
1, 439301, Note_on_c, 0, 54, 39
1, 439345, Control_c, 0, 64, 125
1, 439360, Control_c, 0, 64, 119
1, 439375, Control_c, 0, 64, 117
1, 439418, Note_off_c, 0, 62, 33
1, 439523, Control_c, 0, 64, 119
1, 439537, Control_c, 0, 64, 120
1, 439597, Control_c, 0, 64, 119
1, 439613, Control_c, 0, 64, 116
1, 439627, Control_c, 0, 64, 112
1, 439642, Control_c, 0, 64, 107
1, 439657, Control_c, 0, 64, 102
1, 439672, Control_c, 0, 64, 98
1, 439686, Control_c, 0, 64, 94
1, 439697, Note_on_c, 0, 62, 52
1, 439701, Control_c, 0, 64, 89
1, 439703, Note_off_c, 0, 74, 28
1, 439716, Control_c, 0, 64, 80
1, 439731, Control_c, 0, 64, 68
1, 439746, Control_c, 0, 64, 61
1, 439760, Control_c, 0, 64, 60
1, 439775, Control_c, 0, 64, 63
1, 439790, Control_c, 0, 64, 68
1, 439791, Note_off_c, 0, 68, 35
1, 439813, Control_c, 0, 64, 76
1, 439828, Control_c, 0, 64, 98
1, 439842, Control_c, 0, 64, 127
1, 439869, Note_off_c, 0, 38, 37
1, 439946, Note_off_c, 0, 54, 39
1, 440041, Note_on_c, 0, 74, 36
1, 440054, Note_on_c, 0, 69, 39
1, 440216, Note_on_c, 0, 50, 42
1, 440275, Note_off_c, 0, 62, 33
1, 440372, Note_on_c, 0, 57, 47
1, 440392, Note_on_c, 0, 66, 48
1, 440484, Note_off_c, 0, 69, 38
1, 440484, Note_off_c, 0, 66, 59
1, 440521, Note_off_c, 0, 74, 49
1, 440535, Note_off_c, 0, 57, 59
1, 440571, Note_on_c, 0, 64, 71
1, 440609, Note_off_c, 0, 50, 51
1, 440746, Note_on_c, 0, 76, 62
1, 440756, Note_on_c, 0, 69, 52
1, 440800, Note_off_c, 0, 76, 57
1, 440803, Note_off_c, 0, 69, 58
1, 440809, Note_off_c, 0, 64, 63
1, 440909, Note_on_c, 0, 50, 46
1, 440926, Note_on_c, 0, 38, 41
1, 441006, Control_c, 0, 64, 109
1, 441021, Control_c, 0, 64, 98
1, 441031, Note_on_c, 0, 60, 83
1, 441035, Control_c, 0, 64, 84
1, 441050, Control_c, 0, 64, 74
1, 441058, Note_on_c, 0, 72, 52
1, 441065, Control_c, 0, 64, 67
1, 441080, Control_c, 0, 64, 66
1, 441082, Note_off_c, 0, 50, 63
1, 441095, Control_c, 0, 64, 67
1, 441110, Control_c, 0, 64, 71
1, 441125, Control_c, 0, 64, 78
1, 441140, Control_c, 0, 64, 89
1, 441155, Control_c, 0, 64, 103
1, 441169, Control_c, 0, 64, 116
1, 441184, Control_c, 0, 64, 122
1, 441244, Control_c, 0, 64, 120
1, 441259, Control_c, 0, 64, 115
1, 441274, Control_c, 0, 64, 113
1, 441289, Control_c, 0, 64, 111
1, 441310, Control_c, 0, 64, 109
1, 441324, Control_c, 0, 64, 107
1, 441337, Note_on_c, 0, 51, 54
1, 441339, Control_c, 0, 64, 105
1, 441347, Note_on_c, 0, 39, 45
1, 441354, Control_c, 0, 64, 101
1, 441369, Control_c, 0, 64, 91
1, 441384, Control_c, 0, 64, 75
1, 441399, Control_c, 0, 64, 63
1, 441405, Note_off_c, 0, 38, 42
1, 441413, Control_c, 0, 64, 50
1, 441428, Control_c, 0, 64, 51
1, 441443, Control_c, 0, 64, 57
1, 441458, Control_c, 0, 64, 64
1, 441473, Control_c, 0, 64, 70
1, 441487, Control_c, 0, 64, 80
1, 441502, Control_c, 0, 64, 98
1, 441517, Control_c, 0, 64, 125
1, 441522, Note_off_c, 0, 60, 63
1, 441531, Control_c, 0, 64, 127
1, 441576, Control_c, 0, 64, 117
1, 441579, Note_off_c, 0, 72, 36
1, 441591, Control_c, 0, 64, 109
1, 441597, Note_on_c, 0, 59, 75
1, 441605, Control_c, 0, 64, 102
1, 441620, Control_c, 0, 64, 94
1, 441635, Control_c, 0, 64, 80
1, 441650, Control_c, 0, 64, 66
1, 441664, Control_c, 0, 64, 54
1, 441679, Control_c, 0, 64, 47
1, 441694, Control_c, 0, 64, 53
1, 441709, Control_c, 0, 64, 61
1, 441724, Control_c, 0, 64, 66
1, 441739, Control_c, 0, 64, 74
1, 441754, Control_c, 0, 64, 85
1, 441761, Note_off_c, 0, 39, 60
1, 441769, Control_c, 0, 64, 103
1, 441784, Control_c, 0, 64, 127
1, 441787, Note_off_c, 0, 51, 61
1, 441850, Note_on_c, 0, 71, 48
1, 441858, Note_on_c, 0, 66, 50
1, 441933, Note_off_c, 0, 59, 54
1, 441978, Note_off_c, 0, 71, 56
1, 442028, Note_on_c, 0, 47, 48
1, 442043, Note_off_c, 0, 66, 56
1, 442184, Note_on_c, 0, 59, 44
1, 442296, Note_off_c, 0, 59, 61
1, 442353, Note_on_c, 0, 57, 68
1, 442368, Note_off_c, 0, 47, 60
1, 442547, Note_on_c, 0, 66, 45
1, 442551, Note_on_c, 0, 63, 43
1, 442591, Note_off_c, 0, 57, 61
1, 442724, Note_on_c, 0, 35, 37
1, 442730, Note_on_c, 0, 47, 36
1, 442769, Control_c, 0, 64, 114
1, 442784, Control_c, 0, 64, 102
1, 442807, Control_c, 0, 64, 86
1, 442822, Note_on_c, 0, 55, 67
1, 442822, Control_c, 0, 64, 71
1, 442837, Control_c, 0, 64, 62
1, 442852, Control_c, 0, 64, 59
1, 442866, Control_c, 0, 64, 62
1, 442881, Control_c, 0, 64, 66
1, 442896, Control_c, 0, 64, 73
1, 442897, Note_off_c, 0, 63, 59
1, 442902, Note_off_c, 0, 35, 49
1, 442910, Control_c, 0, 64, 85
1, 442913, Note_off_c, 0, 47, 58
1, 442925, Control_c, 0, 64, 101
1, 442932, Note_off_c, 0, 66, 28
1, 442940, Control_c, 0, 64, 127
1, 443044, Control_c, 0, 64, 117
1, 443059, Control_c, 0, 64, 110
1, 443074, Control_c, 0, 64, 104
1, 443083, Note_on_c, 0, 48, 42
1, 443089, Note_on_c, 0, 36, 42
1, 443089, Control_c, 0, 64, 94
1, 443103, Control_c, 0, 64, 82
1, 443118, Control_c, 0, 64, 70
1, 443133, Control_c, 0, 64, 61
1, 443148, Control_c, 0, 64, 53
1, 443163, Control_c, 0, 64, 52
1, 443177, Control_c, 0, 64, 54
1, 443192, Control_c, 0, 64, 59
1, 443207, Control_c, 0, 64, 64
1, 443222, Control_c, 0, 64, 69
1, 443237, Control_c, 0, 64, 77
1, 443251, Control_c, 0, 64, 86
1, 443266, Control_c, 0, 64, 92
1, 443295, Control_c, 0, 64, 92
1, 443310, Control_c, 0, 64, 91
1, 443325, Control_c, 0, 64, 90
1, 443340, Control_c, 0, 64, 87
1, 443348, Note_on_c, 0, 54, 55
1, 443355, Control_c, 0, 64, 83
1, 443370, Control_c, 0, 64, 73
1, 443384, Control_c, 0, 64, 63
1, 443385, Note_off_c, 0, 55, 56
1, 443399, Control_c, 0, 64, 53
1, 443414, Control_c, 0, 64, 53
1, 443429, Control_c, 0, 64, 60
1, 443444, Control_c, 0, 64, 67
1, 443459, Control_c, 0, 64, 78
1, 443474, Control_c, 0, 64, 102
1, 443489, Control_c, 0, 64, 127
1, 443518, Note_off_c, 0, 36, 50
1, 443578, Note_off_c, 0, 48, 58
1, 443644, Note_on_c, 0, 64, 39
1, 443652, Note_on_c, 0, 60, 25
1, 443854, Note_on_c, 0, 43, 34
1, 444008, Note_off_c, 0, 60, 41
1, 444034, Note_on_c, 0, 55, 41
1, 444293, Note_off_c, 0, 55, 37
1, 444319, Note_on_c, 0, 52, 46
1, 444366, Note_off_c, 0, 64, 31
1, 444397, Note_off_c, 0, 54, 48
1, 444425, Note_off_c, 0, 43, 39
1, 444546, Note_on_c, 0, 64, 56
1, 444554, Note_on_c, 0, 60, 48
1, 444792, Note_on_c, 0, 45, 54
1, 444809, Note_on_c, 0, 33, 38
1, 444824, Note_off_c, 0, 45, 64
1, 444849, Note_off_c, 0, 33, 49
1, 444939, Note_on_c, 0, 31, 45
1, 444940, Note_on_c, 0, 43, 46
1, 444970, Note_off_c, 0, 43, 55
1, 444972, Control_c, 0, 64, 116
1, 444982, Note_off_c, 0, 31, 51
1, 444987, Control_c, 0, 64, 110
1, 445002, Control_c, 0, 64, 107
1, 445017, Control_c, 0, 64, 104
1, 445031, Control_c, 0, 64, 103
1, 445053, Control_c, 0, 64, 101
1, 445068, Control_c, 0, 64, 99
1, 445082, Control_c, 0, 64, 98
1, 445096, Note_on_c, 0, 42, 49
1, 445097, Control_c, 0, 64, 96
1, 445099, Note_on_c, 0, 30, 45
1, 445112, Control_c, 0, 64, 95
1, 445127, Control_c, 0, 64, 89
1, 445142, Control_c, 0, 64, 83
1, 445156, Control_c, 0, 64, 79
1, 445171, Control_c, 0, 64, 77
1, 445178, Note_off_c, 0, 30, 39
1, 445186, Control_c, 0, 64, 77
1, 445286, Note_off_c, 0, 42, 35
1, 445335, Control_c, 0, 64, 77
1, 445365, Control_c, 0, 64, 76
1, 445379, Control_c, 0, 64, 76
1, 445394, Note_on_c, 0, 43, 25
1, 445394, Control_c, 0, 64, 75
1, 445397, Note_on_c, 0, 31, 37
1, 445409, Control_c, 0, 64, 74
1, 445424, Control_c, 0, 64, 74
1, 445439, Note_off_c, 0, 52, 36
1, 445439, Control_c, 0, 64, 73
1, 445453, Control_c, 0, 64, 72
1, 445468, Control_c, 0, 64, 70
1, 445483, Control_c, 0, 64, 67
1, 445498, Control_c, 0, 64, 63
1, 445513, Control_c, 0, 64, 58
1, 445528, Control_c, 0, 64, 55
1, 445542, Control_c, 0, 64, 58
1, 445557, Control_c, 0, 64, 62
1, 445572, Control_c, 0, 64, 66
1, 445587, Control_c, 0, 64, 73
1, 445602, Control_c, 0, 64, 80
1, 445617, Control_c, 0, 64, 87
1, 445632, Control_c, 0, 64, 91
1, 445646, Control_c, 0, 64, 92
1, 445779, Control_c, 0, 64, 91
1, 445802, Control_c, 0, 64, 91
1, 445817, Control_c, 0, 64, 90
1, 445832, Control_c, 0, 64, 89
1, 445847, Control_c, 0, 64, 89
1, 445861, Control_c, 0, 64, 88
1, 445876, Control_c, 0, 64, 87
1, 445891, Control_c, 0, 64, 85
1, 445905, Control_c, 0, 64, 82
1, 445909, Note_off_c, 0, 64, 28
1, 445912, Note_on_c, 0, 52, 66
1, 445920, Control_c, 0, 64, 74
1, 445935, Control_c, 0, 64, 66
1, 445950, Control_c, 0, 64, 61
1, 445965, Control_c, 0, 64, 61
1, 445979, Control_c, 0, 64, 64
1, 445994, Note_off_c, 0, 60, 60
1, 445995, Control_c, 0, 64, 68
1, 446010, Control_c, 0, 64, 75
1, 446025, Control_c, 0, 64, 86
1, 446040, Control_c, 0, 64, 100
1, 446055, Control_c, 0, 64, 119
1, 446069, Control_c, 0, 64, 127
1, 446128, Note_off_c, 0, 31, 54
1, 446219, Note_off_c, 0, 43, 40
1, 446269, Note_on_c, 0, 59, 36
1, 446270, Note_on_c, 0, 64, 47
1, 446383, Note_off_c, 0, 52, 55
1, 446487, Note_off_c, 0, 59, 38
1, 446505, Note_on_c, 0, 43, 47
1, 446647, Note_off_c, 0, 64, 43
1, 446706, Note_on_c, 0, 55, 49
1, 446815, Note_off_c, 0, 55, 63
1, 446919, Note_on_c, 0, 55, 74
1, 446923, Note_off_c, 0, 43, 40
1, 447156, Note_on_c, 0, 59, 68
1, 447165, Note_on_c, 0, 64, 62
1, 447202, Note_off_c, 0, 55, 58
1, 447280, Note_off_c, 0, 59, 63
1, 447300, Note_off_c, 0, 64, 59
1, 447435, Note_on_c, 0, 31, 40
1, 447435, Note_on_c, 0, 43, 39
1, 447527, Note_on_c, 0, 64, 82
1, 447620, Note_off_c, 0, 31, 42
1, 447664, Note_off_c, 0, 43, 40
1, 447863, Control_c, 0, 64, 117
1, 447878, Control_c, 0, 64, 106
1, 447888, Note_on_c, 0, 45, 46
1, 447891, Note_on_c, 0, 33, 44
1, 447892, Control_c, 0, 64, 98
1, 447907, Control_c, 0, 64, 90
1, 447922, Control_c, 0, 64, 79
1, 447937, Control_c, 0, 64, 68
1, 447952, Control_c, 0, 64, 55
1, 447966, Control_c, 0, 64, 13
1, 447981, Control_c, 0, 64, 0
1, 448049, Control_c, 0, 64, 42
1, 448064, Control_c, 0, 64, 58
1, 448079, Control_c, 0, 64, 63
1, 448094, Control_c, 0, 64, 64
1, 448108, Control_c, 0, 64, 65
1, 448123, Control_c, 0, 64, 67
1, 448138, Control_c, 0, 64, 69
1, 448153, Control_c, 0, 64, 70
1, 448168, Control_c, 0, 64, 71
1, 448177, Note_on_c, 0, 65, 61
1, 448197, Control_c, 0, 64, 70
1, 448212, Control_c, 0, 64, 68
1, 448219, Note_off_c, 0, 64, 57
1, 448227, Control_c, 0, 64, 64
1, 448242, Control_c, 0, 64, 58
1, 448256, Control_c, 0, 64, 57
1, 448271, Control_c, 0, 64, 60
1, 448286, Control_c, 0, 64, 65
1, 448300, Control_c, 0, 64, 72
1, 448315, Control_c, 0, 64, 87
1, 448330, Control_c, 0, 64, 127
1, 448395, Note_off_c, 0, 33, 40
1, 448413, Note_off_c, 0, 45, 62
1, 448423, Note_on_c, 0, 64, 54
1, 448440, Note_on_c, 0, 60, 48
1, 448572, Note_off_c, 0, 64, 57
1, 448614, Note_off_c, 0, 60, 44
1, 448629, Note_on_c, 0, 45, 48
1, 448823, Note_on_c, 0, 57, 35
1, 448931, Note_off_c, 0, 57, 61
1, 449025, Note_on_c, 0, 64, 36
1, 449036, Note_off_c, 0, 45, 61
1, 449191, Note_off_c, 0, 64, 50
1, 449194, Note_on_c, 0, 60, 50
1, 449316, Note_off_c, 0, 60, 36
1, 449379, Note_on_c, 0, 33, 35
1, 449389, Note_on_c, 0, 45, 34
1, 449438, Note_off_c, 0, 33, 55
1, 449455, Note_off_c, 0, 45, 57
1, 449692, Note_on_c, 0, 35, 39
1, 449700, Note_on_c, 0, 47, 38
1, 449738, Control_c, 0, 64, 102
1, 449753, Control_c, 0, 64, 83
1, 449768, Control_c, 0, 64, 68
1, 449783, Control_c, 0, 64, 49
1, 449798, Control_c, 0, 64, 0
1, 449842, Control_c, 0, 64, 35
1, 449857, Control_c, 0, 64, 58
1, 449872, Control_c, 0, 64, 69
1, 449887, Control_c, 0, 64, 82
1, 449901, Control_c, 0, 64, 127
1, 449909, Note_on_c, 0, 68, 70
1, 449968, Note_off_c, 0, 65, 56
1, 450013, Note_off_c, 0, 35, 39
1, 450017, Note_off_c, 0, 47, 61
1, 450101, Note_on_c, 0, 65, 52
1, 450118, Note_on_c, 0, 62, 36
1, 450297, Note_on_c, 0, 47, 51
1, 450450, Note_on_c, 0, 59, 54
1, 450575, Note_off_c, 0, 59, 59
1, 450595, Note_on_c, 0, 74, 77
1, 450651, Note_off_c, 0, 62, 40
1, 450652, Note_off_c, 0, 65, 52
1, 450673, Note_off_c, 0, 68, 37
1, 450686, Note_off_c, 0, 47, 38
1, 450786, Note_on_c, 0, 65, 59
1, 450807, Note_on_c, 0, 62, 26
1, 450947, Control_c, 0, 64, 125
1, 450962, Control_c, 0, 64, 112
1, 450977, Control_c, 0, 64, 106
1, 450980, Note_on_c, 0, 47, 39
1, 450987, Note_on_c, 0, 35, 41
1, 450992, Control_c, 0, 64, 101
1, 451006, Control_c, 0, 64, 101
1, 451021, Control_c, 0, 64, 100
1, 451059, Control_c, 0, 64, 95
1, 451065, Note_on_c, 0, 68, 83
1, 451073, Control_c, 0, 64, 79
1, 451088, Control_c, 0, 64, 64
1, 451103, Control_c, 0, 64, 58
1, 451117, Control_c, 0, 64, 61
1, 451126, Note_off_c, 0, 65, 58
1, 451132, Control_c, 0, 64, 66
1, 451147, Control_c, 0, 64, 76
1, 451162, Control_c, 0, 64, 117
1, 451169, Note_off_c, 0, 74, 32
1, 451177, Control_c, 0, 64, 127
1, 451203, Note_off_c, 0, 62, 29
1, 451212, Note_off_c, 0, 47, 55
1, 451215, Note_off_c, 0, 35, 40
1, 451296, Control_c, 0, 64, 87
1, 451311, Control_c, 0, 64, 65
1, 451325, Control_c, 0, 64, 47
1, 451325, Note_on_c, 0, 48, 47
1, 451326, Note_on_c, 0, 36, 43
1, 451340, Control_c, 0, 64, 46
1, 451355, Control_c, 0, 64, 57
1, 451370, Control_c, 0, 64, 66
1, 451385, Control_c, 0, 64, 76
1, 451399, Control_c, 0, 64, 102
1, 451403, Note_off_c, 0, 68, 62
1, 451406, Note_on_c, 0, 74, 16
1, 451414, Control_c, 0, 64, 127
1, 451469, Note_on_c, 0, 68, 68
1, 451501, Note_off_c, 0, 74, 33
1, 451503, Control_c, 0, 64, 79
1, 451517, Control_c, 0, 64, 60
1, 451532, Control_c, 0, 64, 22
1, 451547, Control_c, 0, 64, 17
1, 451562, Control_c, 0, 64, 44
1, 451577, Control_c, 0, 64, 60
1, 451593, Control_c, 0, 64, 68
1, 451607, Control_c, 0, 64, 79
1, 451622, Control_c, 0, 64, 110
1, 451632, Note_off_c, 0, 36, 59
1, 451637, Control_c, 0, 64, 127
1, 451666, Note_off_c, 0, 48, 60
1, 451681, Note_on_c, 0, 64, 54
1, 451872, Note_on_c, 0, 48, 50
1, 451925, Control_c, 0, 64, 109
1, 451939, Control_c, 0, 64, 102
1, 451954, Control_c, 0, 64, 100
1, 451969, Control_c, 0, 64, 99
1, 452035, Note_on_c, 0, 60, 51
1, 452074, Control_c, 0, 64, 100
1, 452118, Control_c, 0, 64, 99
1, 452133, Control_c, 0, 64, 99
1, 452147, Control_c, 0, 64, 98
1, 452162, Control_c, 0, 64, 99
1, 452177, Control_c, 0, 64, 100
1, 452181, Note_on_c, 0, 69, 77
1, 452192, Control_c, 0, 64, 101
1, 452202, Note_off_c, 0, 64, 36
1, 452207, Control_c, 0, 64, 102
1, 452221, Control_c, 0, 64, 103
1, 452236, Control_c, 0, 64, 104
1, 452241, Note_off_c, 0, 60, 36
1, 452266, Control_c, 0, 64, 104
1, 452281, Control_c, 0, 64, 106
1, 452295, Control_c, 0, 64, 108
1, 452302, Note_off_c, 0, 48, 62
1, 452310, Control_c, 0, 64, 112
1, 452321, Note_off_c, 0, 68, 27
1, 452325, Control_c, 0, 64, 115
1, 452339, Control_c, 0, 64, 116
1, 452354, Control_c, 0, 64, 117
1, 452369, Control_c, 0, 64, 119
1, 452374, Note_on_c, 0, 64, 58
1, 452385, Control_c, 0, 64, 127
1, 452548, Note_on_c, 0, 48, 65
1, 452557, Note_on_c, 0, 36, 61
1, 452651, Note_off_c, 0, 48, 63
1, 452762, Control_c, 0, 64, 122
1, 452777, Control_c, 0, 64, 108
1, 452792, Control_c, 0, 64, 100
1, 452807, Control_c, 0, 64, 95
1, 452819, Note_on_c, 0, 49, 71
1, 452822, Control_c, 0, 64, 91
1, 452825, Note_on_c, 0, 37, 63
1, 452837, Control_c, 0, 64, 88
1, 452852, Control_c, 0, 64, 86
1, 452867, Control_c, 0, 64, 84
1, 452872, Note_off_c, 0, 36, 57
1, 452881, Control_c, 0, 64, 80
1, 452896, Control_c, 0, 64, 73
1, 452911, Control_c, 0, 64, 64
1, 452926, Control_c, 0, 64, 46
1, 452941, Control_c, 0, 64, 0
1, 452960, Note_off_c, 0, 64, 21
1, 453002, Note_on_c, 0, 70, 89
1, 453030, Control_c, 0, 64, 50
1, 453044, Control_c, 0, 64, 63
1, 453054, Note_off_c, 0, 69, 59
1, 453059, Control_c, 0, 64, 69
1, 453074, Control_c, 0, 64, 77
1, 453089, Control_c, 0, 64, 92
1, 453101, Note_off_c, 0, 37, 60
1, 453104, Control_c, 0, 64, 127
1, 453120, Note_off_c, 0, 49, 62
1, 453209, Note_on_c, 0, 64, 44
1, 453209, Note_on_c, 0, 67, 48
1, 453388, Note_on_c, 0, 49, 57
1, 453581, Note_on_c, 0, 58, 66
1, 453731, Note_off_c, 0, 58, 59
1, 453764, Note_on_c, 0, 76, 88
1, 453771, Note_off_c, 0, 49, 60
1, 453802, Note_off_c, 0, 67, 56
1, 453811, Note_off_c, 0, 70, 56
1, 453832, Note_off_c, 0, 64, 34
1, 453960, Note_on_c, 0, 67, 48
1, 453981, Note_on_c, 0, 64, 37
1, 454136, Note_on_c, 0, 49, 39
1, 454155, Note_on_c, 0, 37, 45
1, 454170, Note_off_c, 0, 76, 49
1, 454276, Control_c, 0, 64, 117
1, 454290, Control_c, 0, 64, 103
1, 454295, Note_on_c, 0, 70, 81
1, 454305, Control_c, 0, 64, 88
1, 454320, Control_c, 0, 64, 71
1, 454334, Control_c, 0, 64, 59
1, 454344, Note_off_c, 0, 64, 43
1, 454349, Control_c, 0, 64, 53
1, 454364, Control_c, 0, 64, 60
1, 454375, Note_off_c, 0, 67, 61
1, 454379, Control_c, 0, 64, 66
1, 454394, Control_c, 0, 64, 73
1, 454408, Control_c, 0, 64, 90
1, 454423, Control_c, 0, 64, 127
1, 454459, Note_off_c, 0, 49, 61
1, 454512, Note_off_c, 0, 37, 37
1, 454720, Note_on_c, 0, 51, 43
1, 454732, Note_on_c, 0, 39, 44
1, 454734, Control_c, 0, 64, 99
1, 454749, Control_c, 0, 64, 81
1, 454764, Control_c, 0, 64, 67
1, 454787, Control_c, 0, 64, 59
1, 454802, Control_c, 0, 64, 56
1, 454817, Control_c, 0, 64, 60
1, 454832, Control_c, 0, 64, 64
1, 454846, Control_c, 0, 64, 69
1, 454861, Control_c, 0, 64, 80
1, 454876, Control_c, 0, 64, 101
1, 454891, Control_c, 0, 64, 127
1, 455187, Control_c, 0, 64, 114
1, 455202, Control_c, 0, 64, 102
1, 455211, Note_on_c, 0, 71, 64
1, 455217, Control_c, 0, 64, 94
1, 455231, Control_c, 0, 64, 87
1, 455246, Control_c, 0, 64, 79
1, 455261, Control_c, 0, 64, 69
1, 455276, Control_c, 0, 64, 60
1, 455291, Control_c, 0, 64, 56
1, 455299, Note_off_c, 0, 70, 57
1, 455305, Control_c, 0, 64, 57
1, 455320, Control_c, 0, 64, 60
1, 455335, Control_c, 0, 64, 63
1, 455350, Control_c, 0, 64, 66
1, 455365, Control_c, 0, 64, 71
1, 455379, Control_c, 0, 64, 77
1, 455394, Control_c, 0, 64, 81
1, 455409, Control_c, 0, 64, 83
1, 455424, Control_c, 0, 64, 86
1, 455439, Control_c, 0, 64, 90
1, 455454, Control_c, 0, 64, 98
1, 455469, Control_c, 0, 64, 105
1, 455484, Control_c, 0, 64, 112
1, 455499, Control_c, 0, 64, 122
1, 455513, Control_c, 0, 64, 127
1, 455629, Note_off_c, 0, 39, 42
1, 455639, Note_off_c, 0, 51, 59
1, 455822, Note_on_c, 0, 59, 23
1, 456062, Note_on_c, 0, 47, 38
1, 456373, Note_on_c, 0, 54, 41
1, 456418, Control_c, 0, 64, 117
1, 456433, Control_c, 0, 64, 109
1, 456448, Control_c, 0, 64, 103
1, 456463, Control_c, 0, 64, 95
1, 456475, Note_off_c, 0, 59, 18
1, 456478, Control_c, 0, 64, 84
1, 456492, Control_c, 0, 64, 74
1, 456507, Control_c, 0, 64, 70
1, 456522, Control_c, 0, 64, 71
1, 456537, Control_c, 0, 64, 74
1, 456552, Control_c, 0, 64, 79
1, 456566, Control_c, 0, 64, 85
1, 456581, Control_c, 0, 64, 95
1, 456596, Control_c, 0, 64, 104
1, 456611, Control_c, 0, 64, 116
1, 456625, Control_c, 0, 64, 127
1, 456703, Note_on_c, 0, 69, 45
1, 456718, Note_on_c, 0, 66, 35
1, 456730, Note_on_c, 0, 63, 30
1, 456890, Note_off_c, 0, 54, 40
1, 456991, Note_off_c, 0, 47, 40
1, 457115, Note_on_c, 0, 59, 41
1, 457386, Note_off_c, 0, 59, 37
1, 457541, Note_on_c, 0, 35, 35
1, 457673, Note_on_c, 0, 59, 61
1, 457834, Note_off_c, 0, 71, 39
1, 457857, Note_off_c, 0, 63, 39
1, 457866, Note_off_c, 0, 69, 36
1, 457870, Note_off_c, 0, 66, 39
1, 458111, Note_on_c, 0, 47, 37
1, 458195, Note_on_c, 0, 61, 55
1, 458197, Control_c, 0, 64, 111
1, 458208, Note_on_c, 0, 58, 45
1, 458212, Control_c, 0, 64, 100
1, 458227, Control_c, 0, 64, 91
1, 458242, Control_c, 0, 64, 82
1, 458256, Control_c, 0, 64, 70
1, 458261, Note_off_c, 0, 59, 38
1, 458271, Control_c, 0, 64, 60
1, 458286, Control_c, 0, 64, 48
1, 458301, Control_c, 0, 64, 46
1, 458316, Control_c, 0, 64, 53
1, 458331, Control_c, 0, 64, 61
1, 458345, Control_c, 0, 64, 67
1, 458360, Control_c, 0, 64, 75
1, 458375, Control_c, 0, 64, 87
1, 458390, Control_c, 0, 64, 102
1, 458405, Control_c, 0, 64, 127
1, 458510, Note_on_c, 0, 63, 62
1, 458512, Note_off_c, 0, 58, 59
1, 458551, Note_on_c, 0, 57, 26
1, 458571, Note_off_c, 0, 35, 37
1, 458604, Note_off_c, 0, 61, 31
1, 458620, Note_off_c, 0, 47, 40
1, 458702, Note_on_c, 0, 64, 62
1, 458711, Note_off_c, 0, 57, 54
1, 458719, Note_on_c, 0, 56, 48
1, 458749, Note_off_c, 0, 56, 63
1, 458751, Note_off_c, 0, 63, 58
1, 458772, Note_off_c, 0, 64, 61
1, 458886, Note_on_c, 0, 52, 47
1, 458889, Note_on_c, 0, 68, 71
1, 458938, Note_off_c, 0, 52, 59
1, 459025, Note_off_c, 0, 68, 57
1, 459079, Control_c, 0, 64, 120
1, 459084, Note_on_c, 0, 52, 35
1, 459094, Control_c, 0, 64, 109
1, 459104, Note_on_c, 0, 47, 36
1, 459109, Control_c, 0, 64, 104
1, 459124, Control_c, 0, 64, 102
1, 459139, Control_c, 0, 64, 99
1, 459153, Control_c, 0, 64, 95
1, 459168, Control_c, 0, 64, 91
1, 459183, Control_c, 0, 64, 82
1, 459186, Note_on_c, 0, 71, 68
1, 459198, Control_c, 0, 64, 73
1, 459203, Note_on_c, 0, 68, 48
1, 459213, Control_c, 0, 64, 64
1, 459214, Note_on_c, 0, 59, 31
1, 459222, Note_on_c, 0, 57, 36
1, 459228, Control_c, 0, 64, 40
1, 459243, Control_c, 0, 64, 0
1, 459368, Note_on_c, 0, 51, 38
1, 459368, Control_c, 0, 64, 47
1, 459383, Control_c, 0, 64, 61
1, 459393, Note_on_c, 0, 66, 55
1, 459398, Control_c, 0, 64, 67
1, 459404, Note_off_c, 0, 59, 42
1, 459410, Note_off_c, 0, 57, 41
1, 459413, Control_c, 0, 64, 72
1, 459417, Note_off_c, 0, 52, 46
1, 459428, Control_c, 0, 64, 76
1, 459430, Note_off_c, 0, 71, 53
1, 459442, Control_c, 0, 64, 77
1, 459457, Control_c, 0, 64, 77
1, 459472, Control_c, 0, 64, 78
1, 459487, Control_c, 0, 64, 79
1, 459502, Control_c, 0, 64, 81
1, 459517, Control_c, 0, 64, 82
1, 459535, Note_off_c, 0, 47, 32
1, 459536, Note_off_c, 0, 51, 56
1, 459545, Note_on_c, 0, 52, 41
1, 459551, Note_on_c, 0, 64, 60
1, 459561, Control_c, 0, 64, 84
1, 459574, Note_off_c, 0, 68, 55
1, 459577, Control_c, 0, 64, 88
1, 459583, Note_off_c, 0, 66, 58
1, 459584, Note_off_c, 0, 64, 66
1, 459591, Control_c, 0, 64, 92
1, 459595, Note_off_c, 0, 52, 59
1, 459606, Control_c, 0, 64, 96
1, 459621, Control_c, 0, 64, 98
1, 459666, Control_c, 0, 64, 98
1, 459675, Note_on_c, 0, 47, 43
1, 459681, Control_c, 0, 64, 97
1, 459698, Note_on_c, 0, 71, 73
1, 459710, Control_c, 0, 64, 96
1, 459725, Control_c, 0, 64, 95
1, 459740, Control_c, 0, 64, 93
1, 459755, Control_c, 0, 64, 90
1, 459770, Control_c, 0, 64, 85
1, 459784, Control_c, 0, 64, 78
1, 459799, Control_c, 0, 64, 68
1, 459814, Control_c, 0, 64, 54
1, 459828, Control_c, 0, 64, 0
1, 459845, Note_on_c, 0, 59, 44
1, 459853, Note_off_c, 0, 71, 61
1, 459857, Note_on_c, 0, 73, 64
1, 459866, Note_on_c, 0, 70, 51
1, 459932, Control_c, 0, 64, 36
1, 459947, Control_c, 0, 64, 45
1, 459962, Control_c, 0, 64, 56
1, 459976, Control_c, 0, 64, 62
1, 459991, Control_c, 0, 64, 65
1, 460000, Note_on_c, 0, 75, 69
1, 460006, Control_c, 0, 64, 67
1, 460012, Note_off_c, 0, 73, 57
1, 460014, Note_on_c, 0, 69, 52
1, 460028, Control_c, 0, 64, 70
1, 460043, Control_c, 0, 64, 74
1, 460044, Note_off_c, 0, 47, 38
1, 460053, Note_off_c, 0, 70, 38
1, 460058, Control_c, 0, 64, 78
1, 460073, Control_c, 0, 64, 83
1, 460088, Control_c, 0, 64, 87
1, 460095, Note_off_c, 0, 59, 61
1, 460102, Control_c, 0, 64, 91
1, 460104, Note_off_c, 0, 69, 55
1, 460117, Control_c, 0, 64, 97
1, 460132, Control_c, 0, 64, 104
1, 460142, Note_on_c, 0, 76, 73
1, 460147, Control_c, 0, 64, 110
1, 460152, Note_on_c, 0, 68, 62
1, 460172, Note_off_c, 0, 68, 62
1, 460176, Note_off_c, 0, 75, 62
1, 460177, Control_c, 0, 64, 107
1, 460191, Control_c, 0, 64, 106
1, 460197, Note_off_c, 0, 76, 61
1, 460206, Control_c, 0, 64, 104
1, 460221, Control_c, 0, 64, 99
1, 460235, Control_c, 0, 64, 95
1, 460250, Control_c, 0, 64, 91
1, 460265, Control_c, 0, 64, 87
1, 460275, Note_on_c, 0, 80, 80
1, 460280, Control_c, 0, 64, 85
1, 460283, Note_on_c, 0, 64, 55
1, 460295, Control_c, 0, 64, 83
1, 460310, Control_c, 0, 64, 80
1, 460322, Note_off_c, 0, 64, 62
1, 460325, Control_c, 0, 64, 78
1, 460340, Control_c, 0, 64, 76
1, 460354, Note_off_c, 0, 80, 62
1, 460354, Control_c, 0, 64, 76
1, 460369, Control_c, 0, 64, 75
1, 460385, Control_c, 0, 64, 75
1, 460399, Control_c, 0, 64, 73
1, 460414, Control_c, 0, 64, 71
1, 460429, Control_c, 0, 64, 68
1, 460435, Note_on_c, 0, 83, 75
1, 460444, Note_on_c, 0, 59, 47
1, 460444, Control_c, 0, 64, 63
1, 460450, Note_on_c, 0, 64, 36
1, 460459, Control_c, 0, 64, 53
1, 460465, Note_on_c, 0, 80, 43
1, 460471, Note_on_c, 0, 69, 43
1, 460473, Note_on_c, 0, 71, 38
1, 460474, Control_c, 0, 64, 33
1, 460489, Control_c, 0, 64, 0
1, 460548, Control_c, 0, 64, 44
1, 460563, Control_c, 0, 64, 59
1, 460578, Control_c, 0, 64, 63
1, 460578, Note_off_c, 0, 64, 55
1, 460584, Note_on_c, 0, 78, 65
1, 460584, Note_on_c, 0, 63, 46
1, 460593, Control_c, 0, 64, 65
1, 460593, Note_off_c, 0, 83, 51
1, 460599, Note_off_c, 0, 69, 58
1, 460603, Note_off_c, 0, 71, 42
1, 460607, Control_c, 0, 64, 66
1, 460622, Control_c, 0, 64, 68
1, 460637, Control_c, 0, 64, 71
1, 460651, Control_c, 0, 64, 73
1, 460653, Note_off_c, 0, 59, 50
1, 460666, Control_c, 0, 64, 75
1, 460680, Note_off_c, 0, 63, 52
1, 460681, Control_c, 0, 64, 75
1, 460696, Control_c, 0, 64, 76
1, 460711, Control_c, 0, 64, 77
1, 460713, Note_on_c, 0, 64, 55
1, 460713, Note_on_c, 0, 76, 76
1, 460721, Note_on_c, 0, 68, 63
1, 460725, Control_c, 0, 64, 77
1, 460736, Note_off_c, 0, 64, 62
1, 460743, Note_off_c, 0, 78, 62
1, 460745, Note_off_c, 0, 76, 66
1, 460745, Note_off_c, 0, 80, 28
1, 460754, Note_off_c, 0, 68, 66
1, 460755, Control_c, 0, 64, 77
1, 460778, Control_c, 0, 64, 75
1, 460793, Control_c, 0, 64, 73
1, 460807, Control_c, 0, 64, 70
1, 460822, Control_c, 0, 64, 66
1, 460837, Control_c, 0, 64, 63
1, 460851, Control_c, 0, 64, 61
1, 460855, Note_on_c, 0, 80, 70
1, 460866, Control_c, 0, 64, 59
1, 460871, Note_on_c, 0, 71, 63
1, 460876, Note_on_c, 0, 64, 45
1, 460877, Note_on_c, 0, 68, 55
1, 460881, Control_c, 0, 64, 57
1, 460896, Control_c, 0, 64, 55
1, 460911, Control_c, 0, 64, 55
1, 460940, Control_c, 0, 64, 54
1, 460968, Note_off_c, 0, 68, 50
1, 460970, Control_c, 0, 64, 54
1, 460992, Note_on_c, 0, 78, 73
1, 460993, Note_on_c, 0, 66, 59
1, 460993, Note_on_c, 0, 83, 72
1, 460997, Note_off_c, 0, 80, 63
1, 460999, Note_off_c, 0, 64, 62
1, 460999, Control_c, 0, 64, 53
1, 461009, Note_off_c, 0, 71, 65
1, 461012, Note_on_c, 0, 63, 47
1, 461014, Control_c, 0, 64, 52
1, 461020, Note_off_c, 0, 78, 67
1, 461021, Note_off_c, 0, 83, 66
1, 461028, Note_off_c, 0, 66, 63
1, 461029, Control_c, 0, 64, 50
1, 461037, Note_off_c, 0, 63, 59
1, 461044, Control_c, 0, 64, 48
1, 461058, Control_c, 0, 64, 47
1, 461131, Note_on_c, 0, 68, 58
1, 461133, Note_on_c, 0, 80, 75
1, 461139, Note_on_c, 0, 64, 55
1, 461147, Note_on_c, 0, 71, 57
1, 461162, Control_c, 0, 64, 48
1, 461178, Control_c, 0, 64, 48
1, 461208, Control_c, 0, 64, 49
1, 461222, Control_c, 0, 64, 49
1, 461236, Note_off_c, 0, 64, 57
1, 461237, Control_c, 0, 64, 50
1, 461267, Note_on_c, 0, 66, 42
1, 461269, Note_on_c, 0, 83, 64
1, 461274, Note_on_c, 0, 78, 60
1, 461276, Note_off_c, 0, 80, 59
1, 461277, Note_off_c, 0, 68, 35
1, 461277, Note_off_c, 0, 71, 62
1, 461282, Control_c, 0, 64, 50
1, 461283, Note_on_c, 0, 63, 47
1, 461294, Note_off_c, 0, 66, 59
1, 461296, Note_off_c, 0, 83, 67
1, 461303, Note_off_c, 0, 78, 64
1, 461307, Note_off_c, 0, 63, 60
1, 461311, Control_c, 0, 64, 51
1, 461326, Control_c, 0, 64, 51
1, 461371, Control_c, 0, 64, 52
1, 461400, Note_on_c, 0, 76, 68
1, 461403, Note_on_c, 0, 68, 58
1, 461431, Note_on_c, 0, 61, 44
1, 461432, Note_on_c, 0, 64, 50
1, 461526, Control_c, 0, 64, 51
1, 461532, Note_off_c, 0, 64, 53
1, 461532, Note_off_c, 0, 61, 57
1, 461538, Note_on_c, 0, 63, 51
1, 461541, Control_c, 0, 64, 51
1, 461542, Note_off_c, 0, 76, 65
1, 461543, Note_on_c, 0, 80, 70
1, 461547, Note_on_c, 0, 75, 63
1, 461565, Note_off_c, 0, 63, 64
1, 461567, Note_off_c, 0, 80, 70
1, 461571, Control_c, 0, 64, 50
1, 461571, Note_off_c, 0, 68, 60
1, 461578, Note_off_c, 0, 75, 65
1, 461586, Control_c, 0, 64, 49
1, 461600, Control_c, 0, 64, 48
1, 461615, Control_c, 0, 64, 47
1, 461630, Control_c, 0, 64, 46
1, 461645, Control_c, 0, 64, 42
1, 461660, Control_c, 0, 64, 34
1, 461674, Control_c, 0, 64, 23
1, 461678, Note_on_c, 0, 73, 63
1, 461689, Control_c, 0, 64, 11
1, 461693, Note_on_c, 0, 64, 37
1, 461704, Control_c, 0, 64, 0
1, 461734, Note_on_c, 0, 57, 47
1, 461738, Poly_aftertouch_c, 0, 61, 127
1, 461763, Poly_aftertouch_c, 0, 61, 0
1, 461802, Note_on_c, 0, 76, 64
1, 461807, Control_c, 0, 64, 9
1, 461809, Note_off_c, 0, 73, 61
1, 461811, Note_off_c, 0, 57, 60
1, 461812, Note_on_c, 0, 59, 41
1, 461813, Note_on_c, 0, 71, 59
1, 461817, Note_off_c, 0, 64, 54
1, 461835, Note_off_c, 0, 71, 64
1, 461839, Note_off_c, 0, 76, 60
1, 461842, Note_off_c, 0, 59, 56
1, 461867, Control_c, 0, 64, 11
1, 461881, Control_c, 0, 64, 14
1, 461896, Control_c, 0, 64, 19
1, 461911, Control_c, 0, 64, 22
1, 461926, Control_c, 0, 64, 22
1, 461934, Note_on_c, 0, 73, 62
1, 461941, Control_c, 0, 64, 23
1, 461949, Note_on_c, 0, 57, 51
1, 461949, Note_on_c, 0, 64, 49
1, 461955, Note_on_c, 0, 61, 44
1, 461955, Control_c, 0, 64, 24
1, 461971, Control_c, 0, 64, 25
1, 461986, Control_c, 0, 64, 28
1, 462001, Control_c, 0, 64, 30
1, 462016, Control_c, 0, 64, 31
1, 462017, Note_off_c, 0, 61, 51
1, 462030, Control_c, 0, 64, 33
1, 462045, Control_c, 0, 64, 34
1, 462060, Control_c, 0, 64, 36
1, 462063, Note_on_c, 0, 59, 56
1, 462063, Note_on_c, 0, 71, 61
1, 462068, Note_on_c, 0, 76, 55
1, 462075, Note_off_c, 0, 57, 61
1, 462075, Control_c, 0, 64, 36
1, 462081, Note_on_c, 0, 56, 32
1, 462083, Note_off_c, 0, 73, 59
1, 462086, Note_off_c, 0, 64, 49
1, 462090, Control_c, 0, 64, 37
1, 462092, Note_off_c, 0, 76, 61
1, 462092, Note_off_c, 0, 71, 65
1, 462101, Note_off_c, 0, 59, 63
1, 462108, Note_off_c, 0, 56, 52
1, 462164, Control_c, 0, 64, 37
1, 462197, Note_on_c, 0, 61, 46
1, 462208, Note_on_c, 0, 57, 50
1, 462209, Control_c, 0, 64, 38
1, 462209, Note_on_c, 0, 73, 53
1, 462216, Note_on_c, 0, 64, 50
1, 462223, Control_c, 0, 64, 40
1, 462238, Control_c, 0, 64, 47
1, 462253, Control_c, 0, 64, 56
1, 462275, Control_c, 0, 64, 60
1, 462290, Control_c, 0, 64, 62
1, 462297, Note_off_c, 0, 61, 37
1, 462304, Control_c, 0, 64, 64
1, 462319, Control_c, 0, 64, 67
1, 462323, Note_on_c, 0, 76, 65
1, 462325, Note_on_c, 0, 59, 45
1, 462325, Note_off_c, 0, 73, 60
1, 462329, Note_on_c, 0, 56, 56
1, 462334, Note_on_c, 0, 71, 53
1, 462334, Note_off_c, 0, 64, 57
1, 462334, Control_c, 0, 64, 70
1, 462343, Note_off_c, 0, 57, 57
1, 462349, Control_c, 0, 64, 74
1, 462352, Note_off_c, 0, 59, 57
1, 462352, Note_off_c, 0, 76, 67
1, 462355, Note_off_c, 0, 71, 59
1, 462364, Control_c, 0, 64, 76
1, 462367, Note_off_c, 0, 56, 66
1, 462379, Control_c, 0, 64, 77
1, 462453, Control_c, 0, 64, 76
1, 462468, Control_c, 0, 64, 75
1, 462478, Note_on_c, 0, 69, 66
1, 462483, Control_c, 0, 64, 73
1, 462490, Note_on_c, 0, 61, 51
1, 462491, Note_on_c, 0, 57, 43
1, 462497, Control_c, 0, 64, 72
1, 462503, Note_on_c, 0, 54, 48
1, 462512, Control_c, 0, 64, 68
1, 462527, Control_c, 0, 64, 64
1, 462542, Control_c, 0, 64, 57
1, 462557, Control_c, 0, 64, 53
1, 462571, Control_c, 0, 64, 52
1, 462586, Control_c, 0, 64, 56
1, 462601, Control_c, 0, 64, 61
1, 462616, Control_c, 0, 64, 65
1, 462617, Note_off_c, 0, 57, 57
1, 462622, Note_off_c, 0, 54, 56
1, 462622, Note_off_c, 0, 69, 57
1, 462624, Note_on_c, 0, 73, 73
1, 462630, Control_c, 0, 64, 69
1, 462638, Note_on_c, 0, 56, 43
1, 462644, Note_on_c, 0, 53, 46
1, 462645, Control_c, 0, 64, 71
1, 462653, Note_on_c, 0, 68, 52
1, 462656, Note_off_c, 0, 61, 35
1, 462660, Control_c, 0, 64, 72
1, 462719, Control_c, 0, 64, 70
1, 462734, Control_c, 0, 64, 66
1, 462742, Note_off_c, 0, 68, 60
1, 462745, Note_off_c, 0, 53, 55
1, 462745, Note_off_c, 0, 56, 53
1, 462749, Control_c, 0, 64, 60
1, 462764, Control_c, 0, 64, 55
1, 462775, Note_on_c, 0, 57, 41
1, 462775, Note_on_c, 0, 69, 71
1, 462776, Note_on_c, 0, 61, 48
1, 462779, Note_on_c, 0, 54, 48
1, 462780, Control_c, 0, 64, 56
1, 462794, Control_c, 0, 64, 61
1, 462802, Note_off_c, 0, 73, 64
1, 462809, Control_c, 0, 64, 65
1, 462824, Control_c, 0, 64, 70
1, 462827, Note_off_c, 0, 57, 61
1, 462839, Control_c, 0, 64, 76
1, 462853, Control_c, 0, 64, 81
1, 462862, Note_off_c, 0, 61, 53
1, 462868, Control_c, 0, 64, 83
1, 462883, Control_c, 0, 64, 84
1, 462909, Note_off_c, 0, 54, 57
1, 462913, Control_c, 0, 64, 84
1, 462927, Control_c, 0, 64, 85
1, 462941, Note_on_c, 0, 66, 71
1, 462942, Control_c, 0, 64, 85
1, 462945, Note_on_c, 0, 59, 42
1, 462951, Note_on_c, 0, 63, 57
1, 462975, Note_off_c, 0, 59, 54
1, 462987, Control_c, 0, 64, 86
1, 462997, Note_off_c, 0, 69, 48
1, 463002, Control_c, 0, 64, 86
1, 463024, Control_c, 0, 64, 87
1, 463038, Control_c, 0, 64, 88
1, 463052, Control_c, 0, 64, 88
1, 463067, Control_c, 0, 64, 89
1, 463082, Control_c, 0, 64, 90
1, 463085, Note_off_c, 0, 63, 62
1, 463088, Note_on_c, 0, 59, 74
1, 463097, Control_c, 0, 64, 91
1, 463105, Note_off_c, 0, 66, 62
1, 463112, Control_c, 0, 64, 92
1, 463172, Control_c, 0, 64, 91
1, 463186, Control_c, 0, 64, 90
1, 463201, Control_c, 0, 64, 89
1, 463216, Control_c, 0, 64, 87
1, 463231, Control_c, 0, 64, 84
1, 463245, Control_c, 0, 64, 82
1, 463260, Control_c, 0, 64, 79
1, 463274, Note_on_c, 0, 47, 39
1, 463275, Control_c, 0, 64, 76
1, 463278, Note_on_c, 0, 35, 39
1, 463290, Control_c, 0, 64, 73
1, 463302, Note_on_c, 0, 61, 69
1, 463305, Control_c, 0, 64, 67
1, 463319, Note_on_c, 0, 58, 52
1, 463319, Control_c, 0, 64, 60
1, 463323, Note_off_c, 0, 59, 57
1, 463334, Control_c, 0, 64, 46
1, 463349, Control_c, 0, 64, 0
1, 463408, Control_c, 0, 64, 25
1, 463423, Control_c, 0, 64, 50
1, 463438, Control_c, 0, 64, 60
1, 463452, Control_c, 0, 64, 63
1, 463467, Control_c, 0, 64, 66
1, 463471, Note_on_c, 0, 63, 72
1, 463481, Note_off_c, 0, 58, 54
1, 463482, Control_c, 0, 64, 68
1, 463490, Note_off_c, 0, 61, 61
1, 463490, Note_on_c, 0, 57, 47
1, 463497, Control_c, 0, 64, 72
1, 463512, Control_c, 0, 64, 76
1, 463523, Note_off_c, 0, 35, 39
1, 463526, Control_c, 0, 64, 79
1, 463541, Control_c, 0, 64, 82
1, 463546, Note_off_c, 0, 47, 57
1, 463556, Control_c, 0, 64, 85
1, 463562, Note_off_c, 0, 57, 62
1, 463572, Control_c, 0, 64, 87
1, 463587, Control_c, 0, 64, 90
1, 463601, Note_on_c, 0, 64, 74
1, 463602, Control_c, 0, 64, 93
1, 463612, Note_on_c, 0, 56, 64
1, 463616, Control_c, 0, 64, 94
1, 463632, Note_off_c, 0, 56, 63
1, 463633, Note_off_c, 0, 63, 62
1, 463646, Control_c, 0, 64, 94
1, 463657, Note_off_c, 0, 64, 62
1, 463726, Note_on_c, 0, 52, 55
1, 463735, Control_c, 0, 64, 95
1, 463744, Note_on_c, 0, 68, 76
1, 463750, Control_c, 0, 64, 95
1, 463780, Note_off_c, 0, 52, 59
1, 463802, Control_c, 0, 64, 94
1, 463817, Control_c, 0, 64, 93
1, 463831, Control_c, 0, 64, 93
1, 463833, Note_off_c, 0, 68, 58
1, 463846, Control_c, 0, 64, 91
1, 463861, Control_c, 0, 64, 89
1, 463875, Control_c, 0, 64, 87
1, 463890, Control_c, 0, 64, 83
1, 463905, Control_c, 0, 64, 77
1, 463907, Note_on_c, 0, 52, 40
1, 463920, Control_c, 0, 64, 69
1, 463922, Note_on_c, 0, 47, 43
1, 463923, Note_on_c, 0, 71, 68
1, 463935, Control_c, 0, 64, 58
1, 463950, Control_c, 0, 64, 41
1, 463961, Note_on_c, 0, 57, 34
1, 463963, Note_on_c, 0, 59, 21
1, 463963, Note_on_c, 0, 68, 47
1, 463964, Control_c, 0, 64, 25
1, 463979, Control_c, 0, 64, 25
1, 463994, Control_c, 0, 64, 38
1, 464009, Control_c, 0, 64, 53
1, 464024, Control_c, 0, 64, 62
1, 464039, Control_c, 0, 64, 66
1, 464048, Note_off_c, 0, 71, 57
1, 464054, Control_c, 0, 64, 70
1, 464057, Note_off_c, 0, 59, 30
1, 464062, Note_off_c, 0, 52, 53
1, 464063, Note_on_c, 0, 66, 63
1, 464066, Note_on_c, 0, 51, 50
1, 464068, Control_c, 0, 64, 75
1, 464083, Control_c, 0, 64, 78
1, 464085, Note_off_c, 0, 57, 40
1, 464098, Control_c, 0, 64, 80
1, 464113, Control_c, 0, 64, 83
1, 464128, Control_c, 0, 64, 87
1, 464142, Control_c, 0, 64, 91
1, 464145, Note_off_c, 0, 47, 29
1, 464157, Control_c, 0, 64, 95
1, 464172, Control_c, 0, 64, 98
1, 464187, Note_on_c, 0, 64, 64
1, 464187, Control_c, 0, 64, 98
1, 464197, Note_on_c, 0, 52, 55
1, 464201, Control_c, 0, 64, 99
1, 464203, Note_off_c, 0, 51, 37
1, 464215, Note_off_c, 0, 66, 50
1, 464216, Control_c, 0, 64, 100
1, 464218, Note_off_c, 0, 64, 67
1, 464224, Note_off_c, 0, 68, 22
1, 464241, Note_off_c, 0, 52, 59
1, 464275, Control_c, 0, 64, 99
1, 464290, Control_c, 0, 64, 99
1, 464305, Control_c, 0, 64, 98
1, 464310, Note_on_c, 0, 71, 79
1, 464316, Note_on_c, 0, 47, 48
1, 464320, Control_c, 0, 64, 98
1, 464335, Control_c, 0, 64, 96
1, 464349, Control_c, 0, 64, 95
1, 464365, Control_c, 0, 64, 92
1, 464380, Control_c, 0, 64, 90
1, 464395, Control_c, 0, 64, 88
1, 464410, Control_c, 0, 64, 82
1, 464425, Control_c, 0, 64, 71
1, 464439, Control_c, 0, 64, 58
1, 464442, Note_on_c, 0, 59, 54
1, 464448, Note_off_c, 0, 71, 64
1, 464450, Note_on_c, 0, 73, 75
1, 464454, Control_c, 0, 64, 17
1, 464456, Note_on_c, 0, 70, 64
1, 464469, Control_c, 0, 64, 0
1, 464484, Control_c, 0, 64, 9
1, 464498, Control_c, 0, 64, 43
1, 464521, Control_c, 0, 64, 59
1, 464536, Control_c, 0, 64, 65
1, 464551, Control_c, 0, 64, 71
1, 464566, Control_c, 0, 64, 78
1, 464580, Control_c, 0, 64, 87
1, 464584, Note_on_c, 0, 75, 86
1, 464585, Note_off_c, 0, 47, 39
1, 464589, Note_off_c, 0, 70, 53
1, 464595, Control_c, 0, 64, 92
1, 464598, Note_off_c, 0, 73, 55
1, 464600, Note_on_c, 0, 69, 71
1, 464610, Control_c, 0, 64, 96
1, 464624, Control_c, 0, 64, 99
1, 464639, Control_c, 0, 64, 103
1, 464640, Note_off_c, 0, 59, 58
1, 464654, Control_c, 0, 64, 107
1, 464660, Note_off_c, 0, 69, 63
1, 464669, Control_c, 0, 64, 115
1, 464684, Control_c, 0, 64, 127
1, 464701, Note_on_c, 0, 76, 84
1, 464708, Note_on_c, 0, 68, 79
1, 464731, Note_off_c, 0, 68, 69
1, 464735, Note_off_c, 0, 75, 62
1, 464757, Note_off_c, 0, 76, 64
1, 464817, Note_on_c, 0, 64, 61
1, 464832, Note_on_c, 0, 80, 92
1, 464854, Note_off_c, 0, 64, 58
1, 464927, Note_off_c, 0, 80, 61
1, 464966, Control_c, 0, 64, 111
1, 464968, Note_on_c, 0, 64, 56
1, 464979, Note_on_c, 0, 59, 52
1, 464980, Control_c, 0, 64, 89
1, 464995, Control_c, 0, 64, 69
1, 464997, Note_on_c, 0, 83, 83
1, 465010, Control_c, 0, 64, 50
1, 465015, Note_on_c, 0, 80, 63
1, 465024, Control_c, 0, 64, 0
1, 465027, Note_on_c, 0, 71, 40
1, 465032, Note_on_c, 0, 69, 57
1, 465069, Control_c, 0, 64, 20
1, 465084, Control_c, 0, 64, 49
1, 465098, Control_c, 0, 64, 61
1, 465113, Control_c, 0, 64, 66
1, 465121, Note_on_c, 0, 63, 52
1, 465128, Control_c, 0, 64, 72
1, 465136, Note_on_c, 0, 78, 76
1, 465136, Note_off_c, 0, 83, 60
1, 465143, Control_c, 0, 64, 83
1, 465148, Note_off_c, 0, 64, 53
1, 465151, Note_off_c, 0, 69, 55
1, 465158, Control_c, 0, 64, 97
1, 465160, Note_off_c, 0, 71, 39
1, 465174, Control_c, 0, 64, 127
1, 465207, Note_off_c, 0, 80, 59
1, 465225, Note_off_c, 0, 59, 58
1, 465243, Note_off_c, 0, 63, 61
1, 465250, Note_on_c, 0, 64, 64
1, 465254, Note_on_c, 0, 76, 79
1, 465285, Note_off_c, 0, 64, 64
1, 465285, Note_off_c, 0, 76, 69
1, 465287, Note_on_c, 0, 68, 36
1, 465288, Note_off_c, 0, 78, 61
1, 465318, Note_off_c, 0, 68, 52
1, 465329, Control_c, 0, 64, 107
1, 465344, Control_c, 0, 64, 73
1, 465359, Control_c, 0, 64, 53
1, 465374, Control_c, 0, 64, 0
1, 465390, Note_on_c, 0, 83, 87
1, 465392, Note_on_c, 0, 71, 65
1, 465395, Note_on_c, 0, 68, 69
1, 465406, Note_on_c, 0, 75, 69
1, 465515, Note_off_c, 0, 68, 59
1, 465517, Note_on_c, 0, 70, 65
1, 465520, Note_on_c, 0, 67, 67
1, 465522, Note_off_c, 0, 71, 58
1, 465526, Note_on_c, 0, 82, 82
1, 465526, Note_on_c, 0, 87, 86
1, 465527, Note_off_c, 0, 83, 67
1, 465541, Note_off_c, 0, 75, 63
1, 465549, Note_off_c, 0, 82, 68
1, 465551, Note_off_c, 0, 70, 65
1, 465559, Note_off_c, 0, 67, 63
1, 465574, Note_off_c, 0, 87, 63
1, 465656, Note_on_c, 0, 68, 64
1, 465656, Note_on_c, 0, 83, 86
1, 465658, Note_on_c, 0, 75, 77
1, 465659, Note_on_c, 0, 71, 63
1, 465738, Note_off_c, 0, 71, 52
1, 465765, Note_off_c, 0, 68, 42
1, 465771, Note_on_c, 0, 82, 75
1, 465775, Note_off_c, 0, 83, 65
1, 465776, Note_on_c, 0, 67, 58
1, 465776, Note_on_c, 0, 70, 58
1, 465780, Note_on_c, 0, 87, 72
1, 465782, Note_off_c, 0, 75, 39
1, 465797, Note_off_c, 0, 82, 68
1, 465803, Note_off_c, 0, 70, 65
1, 465804, Note_off_c, 0, 67, 64
1, 465804, Note_off_c, 0, 87, 69
1, 465902, Note_on_c, 0, 71, 68
1, 465908, Note_on_c, 0, 80, 70
1, 465916, Note_on_c, 0, 68, 30
1, 465941, Note_on_c, 0, 64, 42
1, 465947, Note_on_c, 0, 65, 35
1, 465997, Note_off_c, 0, 65, 59
1, 466000, Note_off_c, 0, 64, 60
1, 466006, Note_off_c, 0, 68, 30
1, 466030, Note_on_c, 0, 83, 73
1, 466033, Note_off_c, 0, 80, 62
1, 466035, Note_on_c, 0, 78, 71
1, 466036, Note_on_c, 0, 66, 49
1, 466038, Note_on_c, 0, 63, 57
1, 466055, Note_off_c, 0, 83, 69
1, 466063, Note_off_c, 0, 78, 69
1, 466066, Note_off_c, 0, 66, 63
1, 466069, Note_off_c, 0, 63, 64
1, 466084, Note_off_c, 0, 71, 24
1, 466176, Note_on_c, 0, 61, 52
1, 466179, Note_on_c, 0, 76, 60
1, 466183, Note_on_c, 0, 68, 54
1, 466185, Note_on_c, 0, 77, 55
1, 466196, Note_on_c, 0, 64, 45
1, 466217, Note_off_c, 0, 77, 53
1, 466265, Note_off_c, 0, 64, 47
1, 466275, Note_off_c, 0, 61, 50
1, 466277, Note_off_c, 0, 76, 63
1, 466291, Note_on_c, 0, 75, 55
1, 466291, Note_on_c, 0, 80, 58
1, 466296, Note_on_c, 0, 63, 48
1, 466304, Note_on_c, 0, 60, 44
1, 466304, Note_off_c, 0, 68, 54
1, 466317, Note_off_c, 0, 75, 61
1, 466321, Note_off_c, 0, 63, 59
1, 466328, Note_off_c, 0, 80, 64
1, 466329, Note_off_c, 0, 60, 56
1, 466358, Control_c, 0, 64, 12
1, 466373, Control_c, 0, 64, 20
1, 466388, Control_c, 0, 64, 27
1, 466403, Control_c, 0, 64, 31
1, 466418, Control_c, 0, 64, 35
1, 466420, Note_on_c, 0, 76, 64
1, 466432, Note_on_c, 0, 61, 43
1, 466433, Control_c, 0, 64, 37
1, 466445, Note_on_c, 0, 68, 41
1, 466448, Control_c, 0, 64, 44
1, 466460, Note_on_c, 0, 64, 31
1, 466462, Control_c, 0, 64, 51
1, 466477, Control_c, 0, 64, 56
1, 466492, Control_c, 0, 64, 59
1, 466507, Control_c, 0, 64, 61
1, 466517, Note_off_c, 0, 64, 45
1, 466522, Control_c, 0, 64, 63
1, 466525, Note_off_c, 0, 61, 58
1, 466536, Control_c, 0, 64, 65
1, 466549, Note_on_c, 0, 63, 43
1, 466549, Note_off_c, 0, 76, 62
1, 466551, Control_c, 0, 64, 67
1, 466554, Note_on_c, 0, 75, 35
1, 466559, Note_on_c, 0, 80, 53
1, 466566, Control_c, 0, 64, 71
1, 466567, Note_on_c, 0, 60, 43
1, 466581, Control_c, 0, 64, 76
1, 466596, Note_off_c, 0, 68, 36
1, 466596, Control_c, 0, 64, 81
1, 466610, Control_c, 0, 64, 86
1, 466613, Note_off_c, 0, 60, 57
1, 466614, Note_off_c, 0, 80, 55
1, 466620, Note_off_c, 0, 75, 59
1, 466625, Control_c, 0, 64, 88
1, 466644, Note_off_c, 0, 63, 38
1, 466655, Control_c, 0, 64, 88
1, 466669, Control_c, 0, 64, 86
1, 466681, Note_on_c, 0, 76, 68
1, 466684, Control_c, 0, 64, 81
1, 466692, Note_on_c, 0, 61, 41
1, 466699, Control_c, 0, 64, 74
1, 466701, Note_on_c, 0, 64, 48
1, 466713, Note_on_c, 0, 68, 45
1, 466714, Control_c, 0, 64, 68
1, 466729, Control_c, 0, 64, 67
1, 466743, Control_c, 0, 64, 68
1, 466766, Control_c, 0, 64, 71
1, 466782, Control_c, 0, 64, 74
1, 466797, Control_c, 0, 64, 77
1, 466805, Note_off_c, 0, 64, 51
1, 466810, Note_off_c, 0, 61, 51
1, 466812, Control_c, 0, 64, 79
1, 466814, Note_off_c, 0, 76, 56
1, 466823, Note_on_c, 0, 63, 44
1, 466840, Note_on_c, 0, 80, 72
1, 466844, Note_off_c, 0, 68, 34
1, 466847, Note_on_c, 0, 75, 62
1, 466849, Note_on_c, 0, 60, 49
1, 466871, Control_c, 0, 64, 79
1, 466886, Control_c, 0, 64, 80
1, 466901, Control_c, 0, 64, 81
1, 466916, Control_c, 0, 64, 83
1, 466922, Note_off_c, 0, 60, 49
1, 466930, Control_c, 0, 64, 85
1, 466945, Control_c, 0, 64, 86
1, 466946, Note_off_c, 0, 63, 53
1, 466960, Control_c, 0, 64, 87
1, 466964, Note_off_c, 0, 75, 52
1, 466975, Control_c, 0, 64, 89
1, 466981, Note_on_c, 0, 76, 82
1, 466983, Note_on_c, 0, 61, 44
1, 466984, Note_on_c, 0, 64, 43
1, 466990, Control_c, 0, 64, 91
1, 466996, Note_on_c, 0, 68, 62
1, 466999, Note_off_c, 0, 80, 62
1, 467005, Control_c, 0, 64, 95
1, 467012, Note_off_c, 0, 64, 60
1, 467020, Control_c, 0, 64, 98
1, 467035, Control_c, 0, 64, 100
1, 467038, Note_off_c, 0, 61, 53
1, 467049, Control_c, 0, 64, 100
1, 467076, Note_off_c, 0, 76, 63
1, 467093, Control_c, 0, 64, 99
1, 467108, Control_c, 0, 64, 96
1, 467123, Control_c, 0, 64, 93
1, 467138, Control_c, 0, 64, 90
1, 467153, Control_c, 0, 64, 86
1, 467163, Note_on_c, 0, 66, 51
1, 467167, Control_c, 0, 64, 78
1, 467178, Note_on_c, 0, 75, 71
1, 467182, Control_c, 0, 64, 68
1, 467197, Control_c, 0, 64, 55
1, 467198, Note_on_c, 0, 70, 56
1, 467200, Note_off_c, 0, 68, 39
1, 467212, Control_c, 0, 64, 41
1, 467227, Control_c, 0, 64, 37
1, 467241, Control_c, 0, 64, 38
1, 467256, Control_c, 0, 64, 46
1, 467271, Control_c, 0, 64, 56
1, 467285, Control_c, 0, 64, 63
1, 467300, Control_c, 0, 64, 66
1, 467315, Control_c, 0, 64, 70
1, 467319, Note_off_c, 0, 66, 61
1, 467330, Control_c, 0, 64, 73
1, 467345, Control_c, 0, 64, 76
1, 467360, Control_c, 0, 64, 78
1, 467360, Note_on_c, 0, 73, 69
1, 467363, Note_off_c, 0, 70, 61
1, 467369, Note_on_c, 0, 54, 47
1, 467370, Note_on_c, 0, 64, 53
1, 467375, Control_c, 0, 64, 80
1, 467389, Control_c, 0, 64, 82
1, 467392, Note_off_c, 0, 75, 52
1, 467404, Control_c, 0, 64, 82
1, 467411, Note_off_c, 0, 64, 63
1, 467419, Control_c, 0, 64, 83
1, 467479, Control_c, 0, 64, 82
1, 467493, Control_c, 0, 64, 81
1, 467515, Control_c, 0, 64, 79
1, 467530, Control_c, 0, 64, 77
1, 467533, Note_off_c, 0, 73, 56
1, 467545, Control_c, 0, 64, 72
1, 467560, Control_c, 0, 64, 66
1, 467576, Control_c, 0, 64, 57
1, 467580, Note_off_c, 0, 54, 36
1, 467581, Note_on_c, 0, 71, 62
1, 467587, Note_on_c, 0, 59, 39
1, 467590, Control_c, 0, 64, 52
1, 467605, Control_c, 0, 64, 53
1, 467615, Note_on_c, 0, 63, 37
1, 467620, Control_c, 0, 64, 58
1, 467635, Control_c, 0, 64, 61
1, 467650, Control_c, 0, 64, 64
1, 467652, Note_off_c, 0, 63, 61
1, 467660, Note_off_c, 0, 71, 63
1, 467665, Note_off_c, 0, 59, 61
1, 467679, Control_c, 0, 64, 63
1, 467694, Control_c, 0, 64, 62
1, 467709, Control_c, 0, 64, 61
1, 467723, Control_c, 0, 64, 59
1, 467738, Control_c, 0, 64, 58
1, 467753, Control_c, 0, 64, 56
1, 467768, Control_c, 0, 64, 54
1, 467775, Note_on_c, 0, 71, 56
1, 467783, Note_on_c, 0, 63, 25
1, 467783, Control_c, 0, 64, 54
1, 467788, Note_on_c, 0, 56, 20
1, 467798, Note_on_c, 0, 59, 40
1, 467896, Note_off_c, 0, 59, 57
1, 467909, Note_off_c, 0, 71, 63
1, 467914, Note_on_c, 0, 58, 43
1, 467917, Note_on_c, 0, 75, 62
1, 467927, Note_on_c, 0, 70, 56
1, 467936, Note_off_c, 0, 63, 40
1, 467946, Note_on_c, 0, 55, 36
1, 467957, Note_off_c, 0, 56, 39
1, 468002, Note_off_c, 0, 55, 52
1, 468013, Note_off_c, 0, 75, 57
1, 468036, Note_off_c, 0, 58, 59
1, 468049, Note_on_c, 0, 71, 74
1, 468051, Note_on_c, 0, 63, 58
1, 468057, Note_on_c, 0, 59, 48
1, 468060, Note_on_c, 0, 56, 51
1, 468080, Control_c, 0, 64, 53
1, 468155, Note_off_c, 0, 70, 0
1, 468159, Note_off_c, 0, 59, 57
1, 468167, Note_off_c, 0, 71, 60
1, 468169, Note_off_c, 0, 56, 58
1, 468170, Note_on_c, 0, 58, 61
1, 468170, Note_on_c, 0, 70, 58
1, 468190, Note_on_c, 0, 75, 58
1, 468195, Note_on_c, 0, 55, 45
1, 468202, Note_off_c, 0, 58, 64
1, 468205, Note_off_c, 0, 70, 67
1, 468213, Control_c, 0, 64, 54
1, 468216, Note_off_c, 0, 75, 62
1, 468221, Note_off_c, 0, 63, 26
1, 468222, Note_off_c, 0, 55, 56
1, 468321, Note_on_c, 0, 69, 59
1, 468326, Note_on_c, 0, 61, 55
1, 468349, Note_on_c, 0, 57, 38
1, 468353, Note_on_c, 0, 54, 48
1, 468458, Note_off_c, 0, 57, 58
1, 468465, Note_off_c, 0, 54, 56
1, 468472, Note_on_c, 0, 68, 48
1, 468474, Note_on_c, 0, 73, 68
1, 468475, Note_on_c, 0, 56, 48
1, 468479, Note_off_c, 0, 69, 65
1, 468480, Note_on_c, 0, 53, 49
1, 468481, Note_off_c, 0, 61, 60
1, 468584, Note_off_c, 0, 73, 62
1, 468588, Note_off_c, 0, 53, 57
1, 468588, Note_off_c, 0, 56, 61
1, 468592, Control_c, 0, 64, 54
1, 468600, Note_on_c, 0, 69, 76
1, 468601, Note_on_c, 0, 61, 61
1, 468603, Note_off_c, 0, 68, 60
1, 468603, Note_on_c, 0, 57, 48
1, 468604, Note_on_c, 0, 54, 52
1, 468692, Note_off_c, 0, 61, 49
1, 468695, Control_c, 0, 64, 55
1, 468707, Note_off_c, 0, 54, 55
1, 468710, Note_on_c, 0, 68, 54
1, 468713, Note_off_c, 0, 69, 62
1, 468714, Note_off_c, 0, 57, 54
1, 468717, Note_on_c, 0, 56, 58
1, 468723, Note_on_c, 0, 73, 59
1, 468740, Note_on_c, 0, 53, 43
1, 468748, Note_off_c, 0, 73, 67
1, 468752, Note_off_c, 0, 56, 65
1, 468755, Note_off_c, 0, 68, 62
1, 468769, Note_off_c, 0, 53, 56
1, 468856, Note_on_c, 0, 67, 68
1, 468869, Note_on_c, 0, 59, 48
1, 468878, Note_on_c, 0, 52, 48
1, 468884, Note_on_c, 0, 55, 45
1, 468962, Control_c, 0, 64, 55
1, 468971, Note_off_c, 0, 67, 61
1, 468987, Note_off_c, 0, 55, 60
1, 468988, Note_off_c, 0, 52, 58
1, 468996, Note_off_c, 0, 59, 48
1, 468998, Note_on_c, 0, 71, 59
1, 469000, Note_on_c, 0, 54, 43
1, 469003, Note_on_c, 0, 66, 53
1, 469017, Note_on_c, 0, 51, 54
1, 469029, Control_c, 0, 64, 56
1, 469080, Note_off_c, 0, 51, 55
1, 469091, Note_off_c, 0, 71, 59
1, 469109, Note_off_c, 0, 54, 58
1, 469116, Note_off_c, 0, 66, 38
1, 469130, Note_on_c, 0, 59, 49
1, 469134, Note_on_c, 0, 55, 41
1, 469137, Note_on_c, 0, 67, 57
1, 469145, Note_on_c, 0, 52, 44
1, 469178, Control_c, 0, 64, 56
1, 469225, Note_off_c, 0, 67, 57
1, 469241, Note_off_c, 0, 55, 55
1, 469241, Note_off_c, 0, 52, 52
1, 469252, Note_on_c, 0, 54, 50
1, 469259, Note_on_c, 0, 66, 49
1, 469259, Note_on_c, 0, 71, 56
1, 469266, Note_on_c, 0, 51, 59
1, 469269, Note_off_c, 0, 59, 58
1, 469282, Control_c, 0, 64, 57
1, 469288, Note_off_c, 0, 54, 66
1, 469290, Note_off_c, 0, 71, 62
1, 469292, Note_off_c, 0, 66, 64
1, 469297, Note_off_c, 0, 51, 65
1, 469407, Note_on_c, 0, 65, 49
1, 469409, Note_on_c, 0, 57, 39
1, 469413, Note_on_c, 0, 53, 44
1, 469431, Note_on_c, 0, 50, 44
1, 469488, Control_c, 0, 64, 57
1, 469503, Control_c, 0, 64, 58
1, 469518, Control_c, 0, 64, 59
1, 469519, Note_off_c, 0, 53, 51
1, 469519, Note_off_c, 0, 65, 60
1, 469533, Control_c, 0, 64, 59
1, 469536, Note_on_c, 0, 69, 53
1, 469539, Note_off_c, 0, 57, 51
1, 469539, Note_off_c, 0, 50, 58
1, 469557, Note_on_c, 0, 64, 46
1, 469560, Note_on_c, 0, 49, 39
1, 469563, Control_c, 0, 64, 60
1, 469574, Note_on_c, 0, 52, 33
1, 469592, Control_c, 0, 64, 60
1, 469607, Control_c, 0, 64, 61
1, 469620, Note_off_c, 0, 49, 56
1, 469622, Control_c, 0, 64, 62
1, 469637, Control_c, 0, 64, 64
1, 469647, Note_off_c, 0, 69, 59
1, 469652, Control_c, 0, 64, 65
1, 469654, Note_off_c, 0, 64, 58
1, 469667, Control_c, 0, 64, 66
1, 469678, Note_on_c, 0, 57, 40
1, 469680, Note_on_c, 0, 65, 50
1, 469681, Control_c, 0, 64, 69
1, 469690, Note_off_c, 0, 52, 40
1, 469695, Note_on_c, 0, 53, 35
1, 469696, Control_c, 0, 64, 71
1, 469703, Note_on_c, 0, 50, 31
1, 469711, Control_c, 0, 64, 75
1, 469726, Control_c, 0, 64, 78
1, 469741, Control_c, 0, 64, 81
1, 469762, Control_c, 0, 64, 84
1, 469777, Control_c, 0, 64, 88
1, 469783, Note_off_c, 0, 65, 56
1, 469792, Control_c, 0, 64, 92
1, 469795, Note_on_c, 0, 64, 53
1, 469807, Control_c, 0, 64, 96
1, 469810, Note_on_c, 0, 52, 43
1, 469813, Note_off_c, 0, 53, 37
1, 469817, Note_on_c, 0, 69, 52
1, 469822, Control_c, 0, 64, 99
1, 469828, Note_off_c, 0, 50, 35
1, 469833, Note_on_c, 0, 49, 42
1, 469836, Control_c, 0, 64, 102
1, 469845, Note_off_c, 0, 57, 27
1, 469849, Note_off_c, 0, 64, 55
1, 469851, Note_off_c, 0, 52, 59
1, 469851, Control_c, 0, 64, 102
1, 469870, Note_off_c, 0, 49, 55
1, 469871, Note_off_c, 0, 69, 55
1, 469910, Control_c, 0, 64, 101
1, 469925, Control_c, 0, 64, 99
1, 469940, Control_c, 0, 64, 97
1, 469955, Control_c, 0, 64, 94
1, 469963, Note_on_c, 0, 52, 39
1, 469971, Control_c, 0, 64, 91
1, 469980, Note_on_c, 0, 64, 62
1, 469985, Control_c, 0, 64, 86
1, 469986, Note_on_c, 0, 57, 53
1, 469992, Note_on_c, 0, 49, 39
1, 470000, Control_c, 0, 64, 82
1, 470015, Control_c, 0, 64, 76
1, 470030, Control_c, 0, 64, 69
1, 470045, Control_c, 0, 64, 63
1, 470059, Control_c, 0, 64, 60
1, 470074, Control_c, 0, 64, 62
1, 470089, Control_c, 0, 64, 64
1, 470104, Control_c, 0, 64, 67
1, 470118, Control_c, 0, 64, 71
1, 470133, Control_c, 0, 64, 76
1, 470148, Control_c, 0, 64, 79
1, 470163, Control_c, 0, 64, 80
1, 470165, Note_on_c, 0, 51, 46
1, 470166, Note_on_c, 0, 69, 70
1, 470176, Note_on_c, 0, 48, 46
1, 470176, Note_on_c, 0, 63, 58
1, 470184, Note_off_c, 0, 64, 56
1, 470186, Note_off_c, 0, 52, 45
1, 470192, Note_off_c, 0, 57, 53
1, 470222, Control_c, 0, 64, 81
1, 470242, Note_off_c, 0, 49, 35
1, 470252, Control_c, 0, 64, 81
1, 470281, Control_c, 0, 64, 82
1, 470296, Control_c, 0, 64, 82
1, 470311, Control_c, 0, 64, 83
1, 470326, Control_c, 0, 64, 83
1, 470329, Note_on_c, 0, 64, 78
1, 470336, Note_on_c, 0, 57, 66
1, 470338, Note_off_c, 0, 48, 61
1, 470341, Control_c, 0, 64, 84
1, 470344, Note_off_c, 0, 51, 57
1, 470347, Note_on_c, 0, 52, 52
1, 470347, Note_off_c, 0, 69, 61
1, 470354, Note_on_c, 0, 49, 52
1, 470361, Note_off_c, 0, 63, 63
1, 470370, Control_c, 0, 64, 85
1, 470385, Control_c, 0, 64, 86
1, 470400, Control_c, 0, 64, 87
1, 470415, Control_c, 0, 64, 88
1, 470430, Control_c, 0, 64, 89
1, 470437, Note_off_c, 0, 64, 64
1, 470445, Control_c, 0, 64, 89
1, 470459, Control_c, 0, 64, 90
1, 470474, Control_c, 0, 64, 90
1, 470481, Note_on_c, 0, 51, 62
1, 470482, Note_off_c, 0, 52, 56
1, 470489, Control_c, 0, 64, 91
1, 470492, Note_on_c, 0, 69, 85
1, 470493, Note_on_c, 0, 48, 55
1, 470507, Note_on_c, 0, 63, 76
1, 470509, Note_off_c, 0, 49, 54
1, 470511, Control_c, 0, 64, 92
1, 470526, Control_c, 0, 64, 93
1, 470541, Control_c, 0, 64, 93
1, 470549, Note_off_c, 0, 57, 23
1, 470553, Note_off_c, 0, 63, 59
1, 470555, Note_on_c, 0, 67, 8
1, 470572, Note_off_c, 0, 69, 62
1, 470597, Note_off_c, 0, 67, 29
1, 470654, Note_off_c, 0, 48, 57
1, 470664, Note_on_c, 0, 49, 50
1, 470666, Note_on_c, 0, 52, 52
1, 470668, Note_off_c, 0, 51, 57
1, 470675, Note_on_c, 0, 64, 95
1, 470689, Control_c, 0, 64, 94
1, 470691, Note_on_c, 0, 57, 62
1, 470704, Control_c, 0, 64, 94
1, 470719, Control_c, 0, 64, 95
1, 470734, Control_c, 0, 64, 96
1, 470736, Note_off_c, 0, 52, 62
1, 470749, Control_c, 0, 64, 98
1, 470764, Control_c, 0, 64, 102
1, 470779, Control_c, 0, 64, 109
1, 470794, Control_c, 0, 64, 120
1, 470809, Control_c, 0, 64, 127
1, 470877, Note_off_c, 0, 64, 64
1, 470937, Note_on_c, 0, 47, 50
1, 470948, Note_on_c, 0, 54, 55
1, 471002, Control_c, 0, 64, 122
1, 471008, Note_off_c, 0, 49, 33
1, 471016, Control_c, 0, 64, 106
1, 471031, Control_c, 0, 64, 97
1, 471046, Control_c, 0, 64, 89
1, 471061, Control_c, 0, 64, 83
1, 471064, Note_on_c, 0, 69, 85
1, 471076, Control_c, 0, 64, 79
1, 471077, Note_on_c, 0, 63, 64
1, 471090, Control_c, 0, 64, 75
1, 471105, Control_c, 0, 64, 70
1, 471120, Control_c, 0, 64, 67
1, 471134, Control_c, 0, 64, 64
1, 471142, Note_off_c, 0, 57, 37
1, 471149, Control_c, 0, 64, 59
1, 471164, Control_c, 0, 64, 49
1, 471179, Control_c, 0, 64, 19
1, 471194, Control_c, 0, 64, 0
1, 471305, Control_c, 0, 64, 39
1, 471320, Control_c, 0, 64, 54
1, 471335, Control_c, 0, 64, 60
1, 471349, Control_c, 0, 64, 62
1, 471364, Control_c, 0, 64, 64
1, 471379, Control_c, 0, 64, 66
1, 471394, Control_c, 0, 64, 69
1, 471409, Control_c, 0, 64, 73
1, 471423, Control_c, 0, 64, 78
1, 471438, Control_c, 0, 64, 84
1, 471448, Note_off_c, 0, 54, 48
1, 471453, Control_c, 0, 64, 94
1, 471467, Control_c, 0, 64, 119
1, 471482, Control_c, 0, 64, 127
1, 471491, Note_off_c, 0, 63, 59
1, 471788, Note_on_c, 0, 49, 38
1, 471791, Note_on_c, 0, 52, 40
1, 471891, Note_on_c, 0, 64, 77
1, 471913, Control_c, 0, 64, 108
1, 471918, Note_on_c, 0, 57, 48
1, 471928, Control_c, 0, 64, 91
1, 471931, Note_off_c, 0, 69, 57
1, 471943, Control_c, 0, 64, 75
1, 471957, Control_c, 0, 64, 64
1, 471972, Control_c, 0, 64, 44
1, 471987, Control_c, 0, 64, 24
1, 472010, Control_c, 0, 64, 28
1, 472012, Note_off_c, 0, 47, 39
1, 472025, Control_c, 0, 64, 43
1, 472039, Control_c, 0, 64, 55
1, 472054, Control_c, 0, 64, 61
1, 472069, Control_c, 0, 64, 64
1, 472083, Control_c, 0, 64, 66
1, 472098, Control_c, 0, 64, 69
1, 472113, Control_c, 0, 64, 72
1, 472128, Control_c, 0, 64, 74
1, 472143, Control_c, 0, 64, 74
1, 472202, Control_c, 0, 64, 74
1, 472217, Control_c, 0, 64, 72
1, 472232, Control_c, 0, 64, 68
1, 472236, Note_on_c, 0, 69, 70
1, 472242, Note_on_c, 0, 48, 39
1, 472243, Note_on_c, 0, 51, 43
1, 472245, Note_off_c, 0, 57, 55
1, 472246, Control_c, 0, 64, 63
1, 472248, Note_off_c, 0, 64, 54
1, 472258, Note_on_c, 0, 63, 44
1, 472261, Control_c, 0, 64, 56
1, 472276, Control_c, 0, 64, 55
1, 472287, Note_off_c, 0, 52, 30
1, 472290, Control_c, 0, 64, 58
1, 472305, Note_off_c, 0, 49, 40
1, 472305, Control_c, 0, 64, 62
1, 472320, Control_c, 0, 64, 65
1, 472335, Control_c, 0, 64, 69
1, 472350, Control_c, 0, 64, 72
1, 472366, Control_c, 0, 64, 72
1, 472380, Control_c, 0, 64, 71
1, 472395, Control_c, 0, 64, 67
1, 472410, Control_c, 0, 64, 60
1, 472425, Control_c, 0, 64, 51
1, 472440, Control_c, 0, 64, 47
1, 472451, Note_on_c, 0, 49, 38
1, 472454, Note_off_c, 0, 69, 59
1, 472454, Control_c, 0, 64, 50
1, 472457, Note_on_c, 0, 64, 62
1, 472463, Note_off_c, 0, 48, 42
1, 472463, Note_off_c, 0, 51, 50
1, 472467, Note_off_c, 0, 63, 59
1, 472469, Control_c, 0, 64, 56
1, 472471, Note_on_c, 0, 52, 35
1, 472472, Note_on_c, 0, 57, 49
1, 472484, Control_c, 0, 64, 62
1, 472499, Control_c, 0, 64, 67
1, 472514, Control_c, 0, 64, 72
1, 472529, Control_c, 0, 64, 77
1, 472543, Control_c, 0, 64, 79
1, 472558, Control_c, 0, 64, 77
1, 472573, Control_c, 0, 64, 71
1, 472588, Control_c, 0, 64, 63
1, 472603, Control_c, 0, 64, 57
1, 472621, Note_on_c, 0, 51, 38
1, 472633, Control_c, 0, 64, 61
1, 472636, Note_off_c, 0, 64, 60
1, 472637, Note_off_c, 0, 57, 57
1, 472640, Note_on_c, 0, 69, 59
1, 472643, Note_off_c, 0, 52, 44
1, 472646, Note_on_c, 0, 63, 43
1, 472648, Control_c, 0, 64, 65
1, 472654, Note_on_c, 0, 48, 32
1, 472662, Control_c, 0, 64, 69
1, 472664, Note_off_c, 0, 49, 36
1, 472677, Control_c, 0, 64, 75
1, 472692, Control_c, 0, 64, 82
1, 472706, Control_c, 0, 64, 85
1, 472736, Control_c, 0, 64, 84
1, 472758, Control_c, 0, 64, 84
1, 472803, Control_c, 0, 64, 83
1, 472818, Control_c, 0, 64, 82
1, 472833, Control_c, 0, 64, 81
1, 472837, Note_off_c, 0, 48, 42
1, 472846, Note_on_c, 0, 49, 40
1, 472848, Control_c, 0, 64, 79
1, 472851, Note_off_c, 0, 69, 56
1, 472851, Note_off_c, 0, 63, 56
1, 472856, Note_on_c, 0, 64, 57
1, 472862, Control_c, 0, 64, 74
1, 472866, Note_on_c, 0, 52, 38
1, 472877, Control_c, 0, 64, 65
1, 472882, Note_on_c, 0, 57, 34
1, 472892, Control_c, 0, 64, 58
1, 472906, Control_c, 0, 64, 56
1, 472907, Note_off_c, 0, 51, 25
1, 472921, Control_c, 0, 64, 58
1, 472936, Control_c, 0, 64, 62
1, 472946, Note_off_c, 0, 52, 59
1, 472951, Control_c, 0, 64, 65
1, 472966, Control_c, 0, 64, 72
1, 472980, Control_c, 0, 64, 80
1, 472995, Control_c, 0, 64, 91
1, 473010, Control_c, 0, 64, 104
1, 473025, Control_c, 0, 64, 127
1, 473193, Note_on_c, 0, 47, 26
1, 473199, Note_on_c, 0, 54, 38
1, 473218, Control_c, 0, 64, 120
1, 473232, Note_off_c, 0, 49, 31
1, 473233, Control_c, 0, 64, 113
1, 473248, Control_c, 0, 64, 104
1, 473263, Control_c, 0, 64, 96
1, 473277, Control_c, 0, 64, 88
1, 473278, Note_on_c, 0, 63, 44
1, 473288, Note_on_c, 0, 69, 50
1, 473292, Control_c, 0, 64, 79
1, 473305, Note_off_c, 0, 64, 53
1, 473307, Control_c, 0, 64, 69
1, 473322, Control_c, 0, 64, 60
1, 473336, Control_c, 0, 64, 39
1, 473351, Control_c, 0, 64, 24
1, 473366, Control_c, 0, 64, 24
1, 473372, Note_off_c, 0, 57, 37
1, 473381, Control_c, 0, 64, 35
1, 473396, Control_c, 0, 64, 50
1, 473411, Control_c, 0, 64, 60
1, 473426, Control_c, 0, 64, 65
1, 473441, Control_c, 0, 64, 70
1, 473456, Control_c, 0, 64, 76
1, 473471, Control_c, 0, 64, 83
1, 473485, Control_c, 0, 64, 91
1, 473507, Control_c, 0, 64, 101
1, 473521, Control_c, 0, 64, 122
1, 473535, Control_c, 0, 64, 127
1, 473578, Note_on_c, 0, 51, 45
1, 473606, Note_off_c, 0, 51, 60
1, 473611, Note_off_c, 0, 54, 41
1, 473619, Note_off_c, 0, 47, 50
1, 473769, Note_on_c, 0, 47, 30
1, 473923, Note_off_c, 0, 63, 55
1, 473929, Note_on_c, 0, 59, 50
1, 473936, Note_off_c, 0, 69, 49
1, 473953, Note_on_c, 0, 42, 25
1, 474173, Note_on_c, 0, 35, 31
1, 474203, Control_c, 0, 64, 112
1, 474204, Note_off_c, 0, 59, 56
1, 474218, Control_c, 0, 64, 102
1, 474232, Control_c, 0, 64, 95
1, 474238, Note_on_c, 0, 61, 49
1, 474239, Note_on_c, 0, 58, 41
1, 474255, Control_c, 0, 64, 90
1, 474270, Control_c, 0, 64, 84
1, 474285, Control_c, 0, 64, 77
1, 474287, Note_off_c, 0, 42, 39
1, 474300, Control_c, 0, 64, 68
1, 474314, Control_c, 0, 64, 57
1, 474329, Control_c, 0, 64, 42
1, 474344, Control_c, 0, 64, 43
1, 474359, Control_c, 0, 64, 52
1, 474374, Control_c, 0, 64, 58
1, 474389, Control_c, 0, 64, 62
1, 474404, Control_c, 0, 64, 66
1, 474418, Control_c, 0, 64, 70
1, 474433, Control_c, 0, 64, 75
1, 474439, Note_off_c, 0, 58, 52
1, 474448, Control_c, 0, 64, 80
1, 474457, Note_off_c, 0, 47, 33
1, 474463, Control_c, 0, 64, 87
1, 474464, Note_on_c, 0, 63, 55
1, 474466, Note_off_c, 0, 61, 52
1, 474472, Note_on_c, 0, 57, 44
1, 474477, Control_c, 0, 64, 94
1, 474492, Control_c, 0, 64, 103
1, 474502, Note_off_c, 0, 35, 39
1, 474507, Control_c, 0, 64, 115
1, 474522, Control_c, 0, 64, 127
1, 474594, Note_off_c, 0, 57, 45
1, 474605, Note_on_c, 0, 64, 62
1, 474620, Note_on_c, 0, 56, 47
1, 474646, Note_off_c, 0, 56, 57
1, 474660, Note_off_c, 0, 63, 46
1, 474664, Note_off_c, 0, 64, 60
1, 474760, Note_on_c, 0, 52, 47
1, 474771, Note_on_c, 0, 68, 62
1, 474809, Note_off_c, 0, 52, 59
1, 474839, Note_off_c, 0, 68, 58
1, 474937, Control_c, 0, 64, 113
1, 474941, Note_on_c, 0, 52, 33
1, 474952, Control_c, 0, 64, 101
1, 474967, Note_on_c, 0, 47, 33
1, 474967, Control_c, 0, 64, 92
1, 474969, Note_on_c, 0, 71, 62
1, 474982, Control_c, 0, 64, 84
1, 474991, Note_on_c, 0, 57, 37
1, 474991, Note_on_c, 0, 68, 45
1, 474995, Note_on_c, 0, 59, 33
1, 474997, Control_c, 0, 64, 74
1, 475019, Control_c, 0, 64, 63
1, 475034, Control_c, 0, 64, 50
1, 475049, Control_c, 0, 64, 45
1, 475063, Control_c, 0, 64, 51
1, 475078, Control_c, 0, 64, 58
1, 475093, Control_c, 0, 64, 62
1, 475107, Control_c, 0, 64, 67
1, 475112, Note_off_c, 0, 71, 49
1, 475121, Note_on_c, 0, 51, 45
1, 475122, Control_c, 0, 64, 72
1, 475130, Note_on_c, 0, 66, 50
1, 475137, Control_c, 0, 64, 79
1, 475139, Note_off_c, 0, 52, 42
1, 475140, Note_off_c, 0, 59, 37
1, 475152, Control_c, 0, 64, 87
1, 475155, Note_off_c, 0, 57, 39
1, 475167, Control_c, 0, 64, 100
1, 475182, Control_c, 0, 64, 127
1, 475247, Note_off_c, 0, 47, 29
1, 475277, Note_on_c, 0, 64, 39
1, 475281, Note_off_c, 0, 51, 47
1, 475292, Note_on_c, 0, 52, 41
1, 475295, Note_off_c, 0, 66, 51
1, 475304, Note_off_c, 0, 64, 56
1, 475310, Note_off_c, 0, 68, 35
1, 475332, Note_off_c, 0, 52, 56
1, 475387, Note_on_c, 0, 47, 45
1, 475402, Note_on_c, 0, 71, 66
1, 475533, Note_off_c, 0, 71, 62
1, 475542, Note_on_c, 0, 59, 49
1, 475542, Note_on_c, 0, 73, 64
1, 475553, Control_c, 0, 64, 90
1, 475558, Note_on_c, 0, 70, 47
1, 475568, Control_c, 0, 64, 68
1, 475583, Control_c, 0, 64, 54
1, 475597, Control_c, 0, 64, 42
1, 475612, Control_c, 0, 64, 46
1, 475627, Control_c, 0, 64, 54
1, 475642, Control_c, 0, 64, 61
1, 475650, Note_off_c, 0, 70, 56
1, 475657, Control_c, 0, 64, 65
1, 475666, Note_off_c, 0, 73, 57
1, 475671, Control_c, 0, 64, 72
1, 475673, Note_on_c, 0, 75, 68
1, 475686, Control_c, 0, 64, 79
1, 475688, Note_on_c, 0, 69, 59
1, 475701, Control_c, 0, 64, 88
1, 475716, Control_c, 0, 64, 98
1, 475721, Note_off_c, 0, 47, 40
1, 475730, Control_c, 0, 64, 109
1, 475742, Note_off_c, 0, 69, 61
1, 475745, Control_c, 0, 64, 127
1, 475791, Note_off_c, 0, 59, 63
1, 475796, Note_on_c, 0, 76, 71
1, 475804, Note_on_c, 0, 68, 63
1, 475826, Note_off_c, 0, 68, 62
1, 475827, Note_off_c, 0, 75, 57
1, 475852, Note_off_c, 0, 76, 62
1, 475923, Note_on_c, 0, 64, 60
1, 475932, Note_on_c, 0, 80, 77
1, 475945, Control_c, 0, 64, 117
1, 475959, Note_off_c, 0, 64, 62
1, 475960, Control_c, 0, 64, 112
1, 475975, Control_c, 0, 64, 109
1, 475986, Note_off_c, 0, 80, 60
1, 475990, Control_c, 0, 64, 107
1, 476004, Control_c, 0, 64, 104
1, 476019, Control_c, 0, 64, 100
1, 476034, Control_c, 0, 64, 92
1, 476049, Control_c, 0, 64, 84
1, 476053, Note_on_c, 0, 64, 67
1, 476064, Control_c, 0, 64, 74
1, 476066, Note_on_c, 0, 59, 53
1, 476066, Note_on_c, 0, 83, 74
1, 476073, Note_on_c, 0, 80, 58
1, 476079, Control_c, 0, 64, 66
1, 476094, Control_c, 0, 64, 62
1, 476101, Note_on_c, 0, 69, 38
1, 476103, Note_on_c, 0, 71, 25
1, 476109, Control_c, 0, 64, 59
1, 476138, Control_c, 0, 64, 61
1, 476153, Control_c, 0, 64, 63
1, 476162, Note_off_c, 0, 80, 0
1, 476165, Note_off_c, 0, 83, 57
1, 476168, Control_c, 0, 64, 65
1, 476183, Control_c, 0, 64, 67
1, 476186, Note_on_c, 0, 63, 53
1, 476186, Note_on_c, 0, 78, 62
1, 476192, Note_off_c, 0, 71, 31
1, 476197, Control_c, 0, 64, 70
1, 476199, Poly_aftertouch_c, 0, 80, 127
1, 476212, Control_c, 0, 64, 71
1, 476223, Note_off_c, 0, 64, 58
1, 476227, Control_c, 0, 64, 72
1, 476241, Note_off_c, 0, 69, 41
1, 476242, Control_c, 0, 64, 73
1, 476257, Control_c, 0, 64, 74
1, 476263, Poly_aftertouch_c, 0, 80, 0
1, 476271, Control_c, 0, 64, 76
1, 476285, Note_off_c, 0, 59, 61
1, 476286, Control_c, 0, 64, 78
1, 476301, Note_off_c, 0, 63, 63
1, 476301, Control_c, 0, 64, 80
1, 476307, Note_off_c, 0, 78, 59
1, 476308, Note_on_c, 0, 76, 66
1, 476316, Control_c, 0, 64, 80
1, 476317, Note_on_c, 0, 64, 51
1, 476324, Note_off_c, 0, 76, 65
1, 476343, Note_off_c, 0, 64, 56
1, 476361, Control_c, 0, 64, 80
1, 476376, Control_c, 0, 64, 79
1, 476391, Control_c, 0, 64, 78
1, 476406, Control_c, 0, 64, 77
1, 476420, Control_c, 0, 64, 76
1, 476435, Control_c, 0, 64, 75
1, 476447, Note_on_c, 0, 82, 82
1, 476450, Control_c, 0, 64, 73
1, 476459, Note_on_c, 0, 71, 65
1, 476465, Control_c, 0, 64, 71
1, 476468, Note_on_c, 0, 68, 47
1, 476480, Control_c, 0, 64, 68
1, 476481, Note_on_c, 0, 83, 59
1, 476487, Note_on_c, 0, 75, 43
1, 476502, Control_c, 0, 64, 66
1, 476516, Control_c, 0, 64, 65
1, 476531, Control_c, 0, 64, 63
1, 476546, Control_c, 0, 64, 62
1, 476560, Control_c, 0, 64, 61
1, 476575, Control_c, 0, 64, 60
1, 476580, Note_off_c, 0, 83, 62
1, 476581, Note_off_c, 0, 71, 58
1, 476585, Note_off_c, 0, 68, 59
1, 476586, Note_on_c, 0, 70, 62
1, 476588, Note_on_c, 0, 87, 46
1, 476595, Note_off_c, 0, 75, 51
1, 476603, Note_on_c, 0, 67, 58
1, 476605, Control_c, 0, 64, 60
1, 476616, Note_off_c, 0, 82, 63
1, 476620, Control_c, 0, 64, 61
1, 476625, Note_off_c, 0, 70, 61
1, 476638, Note_off_c, 0, 67, 63
1, 476638, Note_off_c, 0, 87, 62
1, 476649, Control_c, 0, 64, 60
1, 476694, Control_c, 0, 64, 61
1, 476714, Note_on_c, 0, 83, 75
1, 476716, Note_on_c, 0, 75, 65
1, 476723, Note_on_c, 0, 71, 56
1, 476727, Note_on_c, 0, 68, 65
1, 476782, Control_c, 0, 64, 61
1, 476823, Note_off_c, 0, 83, 63
1, 476824, Note_on_c, 0, 87, 65
1, 476832, Note_off_c, 0, 71, 59
1, 476833, Note_on_c, 0, 82, 70
1, 476844, Note_off_c, 0, 68, 60
1, 476847, Note_on_c, 0, 70, 44
1, 476857, Note_off_c, 0, 87, 68
1, 476858, Note_off_c, 0, 75, 45
1, 476859, Note_off_c, 0, 82, 68
1, 476864, Note_on_c, 0, 67, 25
1, 476871, Note_off_c, 0, 70, 58
1, 476896, Note_off_c, 0, 67, 41
1, 476964, Note_on_c, 0, 68, 68
1, 476967, Note_on_c, 0, 71, 66
1, 476972, Note_on_c, 0, 80, 63
1, 476990, Note_on_c, 0, 64, 44
1, 477009, Note_off_c, 0, 80, 0
1, 477009, Note_on_c, 0, 80, 38
1, 477049, Control_c, 0, 64, 62
1, 477052, Poly_aftertouch_c, 0, 81, 0
1, 477066, Note_off_c, 0, 64, 58
1, 477073, Note_off_c, 0, 80, 63
1, 477074, Note_off_c, 0, 68, 55
1, 477080, Note_on_c, 0, 66, 53
1, 477085, Note_on_c, 0, 78, 69
1, 477089, Note_off_c, 0, 71, 58
1, 477089, Note_on_c, 0, 63, 62
1, 477101, Note_on_c, 0, 83, 44
1, 477112, Note_off_c, 0, 66, 65
1, 477114, Note_off_c, 0, 78, 68
1, 477115, Note_on_c, 0, 84, 36
1, 477119, Note_off_c, 0, 63, 65
1, 477125, Note_off_c, 0, 83, 55
1, 477143, Note_off_c, 0, 84, 36
1, 477214, Note_on_c, 0, 76, 74
1, 477217, Note_on_c, 0, 61, 55
1, 477220, Note_on_c, 0, 64, 53
1, 477224, Note_on_c, 0, 68, 58
1, 477316, Note_off_c, 0, 64, 44
1, 477328, Note_off_c, 0, 76, 61
1, 477334, Note_off_c, 0, 61, 59
1, 477337, Note_on_c, 0, 80, 63
1, 477345, Note_on_c, 0, 75, 54
1, 477346, Note_on_c, 0, 60, 48
1, 477347, Note_on_c, 0, 63, 42
1, 477354, Control_c, 0, 64, 61
1, 477356, Note_off_c, 0, 68, 49
1, 477364, Note_off_c, 0, 75, 61
1, 477369, Control_c, 0, 64, 61
1, 477370, Note_off_c, 0, 60, 60
1, 477372, Note_off_c, 0, 80, 62
1, 477374, Note_off_c, 0, 63, 53
1, 477398, Control_c, 0, 64, 60
1, 477462, Note_on_c, 0, 76, 63
1, 477465, Note_on_c, 0, 61, 49
1, 477480, Note_on_c, 0, 68, 55
1, 477484, Note_on_c, 0, 64, 48
1, 477535, Note_off_c, 0, 68, 51
1, 477553, Note_off_c, 0, 61, 59
1, 477554, Note_off_c, 0, 64, 53
1, 477561, Control_c, 0, 64, 61
1, 477575, Note_off_c, 0, 76, 61
1, 477582, Note_on_c, 0, 75, 44
1, 477593, Note_on_c, 0, 80, 54
1, 477605, Note_on_c, 0, 63, 16
1, 477607, Note_on_c, 0, 60, 29
1, 477624, Note_off_c, 0, 75, 61
1, 477630, Note_off_c, 0, 63, 45
1, 477633, Note_off_c, 0, 60, 50
1, 477633, Note_off_c, 0, 80, 62
1, 477709, Control_c, 0, 64, 61
1, 477715, Note_on_c, 0, 76, 60
1, 477724, Control_c, 0, 64, 62
1, 477727, Note_on_c, 0, 61, 43
1, 477727, Note_on_c, 0, 68, 53
1, 477730, Note_on_c, 0, 64, 46
1, 477739, Control_c, 0, 64, 63
1, 477754, Control_c, 0, 64, 64
1, 477768, Control_c, 0, 64, 66
1, 477783, Control_c, 0, 64, 68
1, 477798, Control_c, 0, 64, 72
1, 477813, Note_off_c, 0, 61, 52
1, 477813, Control_c, 0, 64, 76
1, 477818, Note_off_c, 0, 76, 62
1, 477828, Control_c, 0, 64, 81
1, 477831, Note_off_c, 0, 64, 51
1, 477831, Note_off_c, 0, 68, 37
1, 477843, Control_c, 0, 64, 86
1, 477849, Note_on_c, 0, 80, 56
1, 477853, Note_on_c, 0, 63, 45
1, 477857, Control_c, 0, 64, 91
1, 477860, Note_on_c, 0, 75, 53
1, 477866, Note_on_c, 0, 60, 43
1, 477872, Control_c, 0, 64, 95
1, 477887, Control_c, 0, 64, 100
1, 477901, Control_c, 0, 64, 105
1, 477916, Control_c, 0, 64, 109
1, 477918, Note_off_c, 0, 60, 52
1, 477931, Control_c, 0, 64, 113
1, 477937, Note_off_c, 0, 63, 51
1, 477947, Note_off_c, 0, 75, 48
1, 477947, Control_c, 0, 64, 125
1, 477958, Note_off_c, 0, 80, 54
1, 477962, Control_c, 0, 64, 127
1, 477974, Note_on_c, 0, 76, 59
1, 477976, Note_on_c, 0, 61, 45
1, 477980, Note_on_c, 0, 64, 45
1, 477986, Note_on_c, 0, 68, 52
1, 478016, Note_off_c, 0, 76, 64
1, 478021, Note_off_c, 0, 64, 63
1, 478031, Note_off_c, 0, 61, 60
1, 478118, Control_c, 0, 64, 109
1, 478133, Control_c, 0, 64, 96
1, 478148, Control_c, 0, 64, 84
1, 478162, Control_c, 0, 64, 72
1, 478168, Note_off_c, 0, 68, 36
1, 478177, Note_on_c, 0, 66, 46
1, 478177, Control_c, 0, 64, 63
1, 478179, Note_on_c, 0, 75, 52
1, 478185, Note_on_c, 0, 70, 49
1, 478192, Control_c, 0, 64, 57
1, 478207, Control_c, 0, 64, 56
1, 478222, Control_c, 0, 64, 59
1, 478237, Control_c, 0, 64, 62
1, 478252, Control_c, 0, 64, 66
1, 478267, Control_c, 0, 64, 72
1, 478278, Note_off_c, 0, 66, 60
1, 478281, Control_c, 0, 64, 79
1, 478296, Control_c, 0, 64, 88
1, 478311, Control_c, 0, 64, 96
1, 478325, Control_c, 0, 64, 101
1, 478326, Note_off_c, 0, 70, 53
1, 478340, Note_on_c, 0, 73, 60
1, 478340, Control_c, 0, 64, 105
1, 478345, Note_on_c, 0, 54, 46
1, 478345, Note_on_c, 0, 64, 53
1, 478355, Control_c, 0, 64, 106
1, 478384, Note_off_c, 0, 64, 64
1, 478399, Control_c, 0, 64, 104
1, 478414, Control_c, 0, 64, 102
1, 478429, Control_c, 0, 64, 99
1, 478443, Note_off_c, 0, 75, 24
1, 478444, Control_c, 0, 64, 95
1, 478459, Control_c, 0, 64, 91
1, 478473, Control_c, 0, 64, 87
1, 478488, Control_c, 0, 64, 84
1, 478495, Note_on_c, 0, 71, 66
1, 478503, Note_on_c, 0, 59, 47
1, 478503, Control_c, 0, 64, 82
1, 478517, Note_on_c, 0, 63, 37
1, 478517, Control_c, 0, 64, 79
1, 478520, Note_off_c, 0, 54, 38
1, 478525, Note_off_c, 0, 73, 36
1, 478530, Note_off_c, 0, 59, 57
1, 478530, Note_off_c, 0, 71, 59
1, 478532, Control_c, 0, 64, 76
1, 478547, Control_c, 0, 64, 71
1, 478548, Note_off_c, 0, 63, 45
1, 478562, Control_c, 0, 64, 68
1, 478577, Control_c, 0, 64, 66
1, 478592, Control_c, 0, 64, 64
1, 478607, Control_c, 0, 64, 63
1, 478622, Control_c, 0, 64, 62
1, 478636, Control_c, 0, 64, 61
1, 478646, Note_on_c, 0, 71, 63
1, 478649, Note_on_c, 0, 63, 45
1, 478651, Control_c, 0, 64, 60
1, 478656, Note_on_c, 0, 59, 37
1, 478666, Note_on_c, 0, 56, 41
1, 478740, Control_c, 0, 64, 60
1, 478786, Note_off_c, 0, 71, 63
1, 478787, Note_off_c, 0, 59, 60
1, 478792, Note_on_c, 0, 75, 71
1, 478793, Control_c, 0, 64, 60
1, 478794, Note_off_c, 0, 56, 53
1, 478800, Note_on_c, 0, 70, 68
1, 478803, Note_off_c, 0, 63, 57
1, 478804, Note_on_c, 0, 58, 55
1, 478811, Note_on_c, 0, 55, 49
1, 478920, Note_off_c, 0, 75, 59
1, 478921, Note_off_c, 0, 55, 58
1, 478923, Note_on_c, 0, 63, 64
1, 478926, Control_c, 0, 64, 61
1, 478927, Note_off_c, 0, 58, 62
1, 478930, Note_on_c, 0, 71, 70
1, 478935, Note_off_c, 0, 70, 63
1, 478936, Note_on_c, 0, 56, 55
1, 478943, Note_on_c, 0, 59, 51
1, 479011, Note_off_c, 0, 63, 55
1, 479027, Note_off_c, 0, 59, 58
1, 479030, Note_off_c, 0, 56, 58
1, 479036, Note_off_c, 0, 71, 59
1, 479045, Control_c, 0, 64, 60
1, 479051, Note_on_c, 0, 75, 61
1, 479051, Note_on_c, 0, 58, 54
1, 479054, Note_on_c, 0, 70, 63
1, 479057, Note_on_c, 0, 55, 47
1, 479082, Note_off_c, 0, 58, 64
1, 479083, Note_off_c, 0, 70, 68
1, 479084, Note_off_c, 0, 75, 65
1, 479087, Note_off_c, 0, 55, 63
1, 479119, Control_c, 0, 64, 60
1, 479184, Note_on_c, 0, 69, 59
1, 479191, Note_on_c, 0, 61, 51
1, 479198, Note_on_c, 0, 57, 47
1, 479207, Note_on_c, 0, 54, 45
1, 479308, Note_off_c, 0, 57, 53
1, 479320, Note_off_c, 0, 54, 57
1, 479323, Note_off_c, 0, 69, 62
1, 479326, Note_on_c, 0, 73, 58
1, 479338, Note_on_c, 0, 53, 50
1, 479338, Note_on_c, 0, 56, 44
1, 479340, Note_off_c, 0, 61, 36
1, 479342, Note_on_c, 0, 68, 53
1, 479432, Note_off_c, 0, 73, 60
1, 479443, Note_off_c, 0, 56, 62
1, 479443, Note_off_c, 0, 68, 56
1, 479444, Control_c, 0, 64, 60
1, 479448, Note_off_c, 0, 53, 57
1, 479451, Note_on_c, 0, 61, 50
1, 479459, Note_on_c, 0, 69, 57
1, 479459, Note_on_c, 0, 54, 56
1, 479472, Note_on_c, 0, 57, 36
1, 479572, Note_off_c, 0, 57, 59
1, 479579, Note_off_c, 0, 54, 56
1, 479579, Note_off_c, 0, 69, 62
1, 479581, Note_on_c, 0, 73, 57
1, 479589, Note_on_c, 0, 56, 47
1, 479593, Note_on_c, 0, 68, 43
1, 479598, Note_on_c, 0, 53, 43
1, 479600, Note_off_c, 0, 61, 33
1, 479614, Note_off_c, 0, 73, 66
1, 479619, Note_off_c, 0, 56, 63
1, 479625, Note_off_c, 0, 53, 58
1, 479629, Note_off_c, 0, 68, 63
1, 479733, Note_on_c, 0, 67, 50
1, 479735, Note_on_c, 0, 55, 46
1, 479736, Note_on_c, 0, 59, 35
1, 479747, Note_on_c, 0, 52, 47
1, 479764, Control_c, 0, 64, 61
1, 479793, Control_c, 0, 64, 61
1, 479823, Control_c, 0, 64, 62
1, 479850, Note_off_c, 0, 67, 60
1, 479852, Note_off_c, 0, 55, 59
1, 479853, Control_c, 0, 64, 62
1, 479855, Note_off_c, 0, 52, 58
1, 479868, Note_off_c, 0, 59, 42
1, 479871, Note_on_c, 0, 71, 56
1, 479872, Note_on_c, 0, 54, 46
1, 479879, Note_on_c, 0, 51, 51
1, 479882, Note_on_c, 0, 66, 46
1, 479939, Note_off_c, 0, 71, 57
1, 479944, Note_off_c, 0, 66, 52
1, 479967, Note_off_c, 0, 51, 51
1, 479983, Note_off_c, 0, 54, 59
1, 479990, Note_on_c, 0, 67, 51
1, 479993, Note_on_c, 0, 59, 39
1, 479997, Note_on_c, 0, 55, 41
1, 480002, Note_on_c, 0, 52, 36
1, 480045, Control_c, 0, 64, 63
1, 480083, Note_off_c, 0, 67, 56
1, 480090, Note_off_c, 0, 55, 54
1, 480103, Note_off_c, 0, 52, 53
1, 480121, Note_on_c, 0, 54, 48
1, 480126, Note_on_c, 0, 71, 45
1, 480127, Note_on_c, 0, 51, 46
1, 480128, Note_on_c, 0, 66, 41
1, 480130, Note_off_c, 0, 59, 32
1, 480134, Control_c, 0, 64, 63
1, 480153, Note_off_c, 0, 71, 57
1, 480156, Note_off_c, 0, 54, 63
1, 480157, Note_off_c, 0, 66, 58
1, 480166, Note_off_c, 0, 51, 64
1, 480223, Control_c, 0, 64, 64
1, 480245, Control_c, 0, 64, 64
1, 480259, Control_c, 0, 64, 65
1, 480270, Note_on_c, 0, 57, 50
1, 480274, Control_c, 0, 64, 66
1, 480275, Note_on_c, 0, 53, 42
1, 480282, Note_on_c, 0, 65, 50
1, 480289, Control_c, 0, 64, 66
1, 480303, Control_c, 0, 64, 67
1, 480306, Note_on_c, 0, 50, 37
1, 480318, Control_c, 0, 64, 69
1, 480333, Control_c, 0, 64, 70
1, 480349, Control_c, 0, 64, 72
1, 480364, Control_c, 0, 64, 73
1, 480379, Control_c, 0, 64, 74
1, 480392, Note_off_c, 0, 65, 58
1, 480393, Control_c, 0, 64, 75
1, 480408, Control_c, 0, 64, 76
1, 480419, Note_off_c, 0, 57, 49
1, 480423, Control_c, 0, 64, 77
1, 480424, Note_on_c, 0, 69, 48
1, 480428, Note_on_c, 0, 64, 55
1, 480432, Note_on_c, 0, 52, 48
1, 480434, Note_off_c, 0, 53, 34
1, 480438, Control_c, 0, 64, 78
1, 480453, Control_c, 0, 64, 79
1, 480467, Note_off_c, 0, 50, 35
1, 480468, Control_c, 0, 64, 80
1, 480482, Control_c, 0, 64, 81
1, 480497, Control_c, 0, 64, 82
1, 480502, Note_off_c, 0, 64, 44
1, 480505, Poly_aftertouch_c, 0, 49, 127
1, 480512, Control_c, 0, 64, 83
1, 480525, Note_off_c, 0, 69, 39
1, 480525, Note_off_c, 0, 52, 55
1, 480527, Control_c, 0, 64, 84
1, 480542, Control_c, 0, 64, 85
1, 480547, Poly_aftertouch_c, 0, 49, 0
1, 480549, Note_on_c, 0, 57, 50
1, 480550, Note_on_c, 0, 65, 58
1, 480556, Control_c, 0, 64, 87
1, 480571, Control_c, 0, 64, 90
1, 480581, Note_on_c, 0, 53, 37
1, 480586, Control_c, 0, 64, 94
1, 480600, Note_on_c, 0, 50, 34
1, 480601, Control_c, 0, 64, 100
1, 480616, Control_c, 0, 64, 105
1, 480631, Control_c, 0, 64, 116
1, 480646, Control_c, 0, 64, 127
1, 480649, Note_on_c, 0, 52, 24
1, 480652, Note_off_c, 0, 65, 57
1, 480663, Note_on_c, 0, 69, 65
1, 480670, Note_on_c, 0, 64, 55
1, 480687, Note_off_c, 0, 50, 47
1, 480696, Note_off_c, 0, 53, 38
1, 480698, Note_off_c, 0, 57, 26
1, 480704, Note_off_c, 0, 52, 60
1, 480708, Note_off_c, 0, 64, 60
1, 480710, Note_on_c, 0, 49, 28
1, 480727, Note_off_c, 0, 69, 62
1, 480745, Note_off_c, 0, 49, 52
1, 480823, Note_on_c, 0, 52, 46
1, 480845, Note_on_c, 0, 49, 49
1, 480845, Note_on_c, 0, 64, 68
1, 480853, Control_c, 0, 64, 106
1, 480861, Note_on_c, 0, 57, 49
1, 480867, Control_c, 0, 64, 88
1, 480882, Control_c, 0, 64, 71
1, 480897, Control_c, 0, 64, 62
1, 480911, Control_c, 0, 64, 54
1, 480941, Control_c, 0, 64, 58
1, 480956, Control_c, 0, 64, 61
1, 480971, Control_c, 0, 64, 64
1, 480993, Control_c, 0, 64, 67
1, 481008, Control_c, 0, 64, 70
1, 481023, Control_c, 0, 64, 72
1, 481038, Control_c, 0, 64, 73
1, 481060, Note_on_c, 0, 48, 43
1, 481063, Note_on_c, 0, 51, 47
1, 481067, Control_c, 0, 64, 73
1, 481069, Note_on_c, 0, 69, 70
1, 481078, Note_off_c, 0, 52, 38
1, 481082, Control_c, 0, 64, 74
1, 481084, Note_on_c, 0, 63, 56
1, 481094, Note_off_c, 0, 64, 59
1, 481097, Control_c, 0, 64, 75
1, 481099, Note_off_c, 0, 49, 31
1, 481105, Note_off_c, 0, 57, 48
1, 481112, Control_c, 0, 64, 77
1, 481126, Control_c, 0, 64, 78
1, 481246, Note_off_c, 0, 48, 56
1, 481251, Note_on_c, 0, 64, 78
1, 481254, Note_off_c, 0, 51, 61
1, 481259, Note_on_c, 0, 57, 66
1, 481259, Note_off_c, 0, 69, 59
1, 481263, Note_on_c, 0, 49, 40
1, 481265, Note_on_c, 0, 52, 46
1, 481275, Note_off_c, 0, 63, 63
1, 481305, Control_c, 0, 64, 78
1, 481392, Note_off_c, 0, 52, 55
1, 481394, Note_on_c, 0, 51, 54
1, 481397, Note_off_c, 0, 64, 60
1, 481403, Note_on_c, 0, 69, 77
1, 481404, Note_on_c, 0, 63, 70
1, 481406, Note_on_c, 0, 48, 50
1, 481422, Note_off_c, 0, 57, 30
1, 481434, Note_off_c, 0, 49, 37
1, 481438, Control_c, 0, 64, 78
1, 481453, Control_c, 0, 64, 77
1, 481468, Control_c, 0, 64, 77
1, 481483, Control_c, 0, 64, 76
1, 481498, Control_c, 0, 64, 75
1, 481513, Control_c, 0, 64, 72
1, 481528, Control_c, 0, 64, 69
1, 481542, Control_c, 0, 64, 66
1, 481549, Note_off_c, 0, 51, 53
1, 481561, Note_off_c, 0, 48, 34
1, 481562, Note_off_c, 0, 63, 36
1, 481562, Note_off_c, 0, 69, 60
1, 481566, Note_on_c, 0, 49, 42
1, 481572, Note_on_c, 0, 52, 39
1, 481572, Control_c, 0, 64, 68
1, 481576, Note_on_c, 0, 64, 68
1, 481587, Control_c, 0, 64, 70
1, 481589, Note_on_c, 0, 57, 51
1, 481602, Control_c, 0, 64, 73
1, 481616, Control_c, 0, 64, 78
1, 481630, Note_off_c, 0, 52, 62
1, 481631, Control_c, 0, 64, 81
1, 481646, Control_c, 0, 64, 82
1, 481735, Control_c, 0, 64, 81
1, 481757, Control_c, 0, 64, 80
1, 481772, Control_c, 0, 64, 80
1, 481787, Control_c, 0, 64, 79
1, 481802, Control_c, 0, 64, 78
1, 481817, Control_c, 0, 64, 75
1, 481829, Note_on_c, 0, 54, 43
1, 481832, Control_c, 0, 64, 72
1, 481846, Note_on_c, 0, 47, 31
1, 481847, Control_c, 0, 64, 69
1, 481862, Control_c, 0, 64, 67
1, 481877, Control_c, 0, 64, 66
1, 481891, Control_c, 0, 64, 65
1, 481906, Note_off_c, 0, 49, 39
1, 481906, Control_c, 0, 64, 63
1, 481916, Note_off_c, 0, 57, 58
1, 481918, Note_on_c, 0, 69, 58
1, 481918, Note_off_c, 0, 64, 55
1, 481921, Control_c, 0, 64, 61
1, 481925, Note_on_c, 0, 63, 41
1, 481936, Control_c, 0, 64, 57
1, 481951, Control_c, 0, 64, 50
1, 481966, Control_c, 0, 64, 32
1, 481981, Control_c, 0, 64, 0
1, 482085, Control_c, 0, 64, 44
1, 482100, Control_c, 0, 64, 56
1, 482114, Control_c, 0, 64, 61
1, 482129, Control_c, 0, 64, 63
1, 482144, Control_c, 0, 64, 65
1, 482159, Control_c, 0, 64, 68
1, 482173, Control_c, 0, 64, 71
1, 482187, Note_off_c, 0, 54, 56
1, 482188, Control_c, 0, 64, 76
1, 482198, Note_off_c, 0, 63, 59
1, 482203, Control_c, 0, 64, 82
1, 482218, Control_c, 0, 64, 89
1, 482233, Control_c, 0, 64, 98
1, 482247, Control_c, 0, 64, 115
1, 482262, Control_c, 0, 64, 127
1, 482536, Control_c, 0, 64, 112
1, 482551, Control_c, 0, 64, 103
1, 482566, Control_c, 0, 64, 96
1, 482572, Note_on_c, 0, 49, 32
1, 482575, Note_on_c, 0, 52, 31
1, 482575, Note_on_c, 0, 64, 49
1, 482580, Control_c, 0, 64, 93
1, 482584, Note_on_c, 0, 57, 38
1, 482586, Note_off_c, 0, 69, 38
1, 482595, Control_c, 0, 64, 91
1, 482610, Control_c, 0, 64, 89
1, 482625, Control_c, 0, 64, 87
1, 482640, Control_c, 0, 64, 84
1, 482655, Control_c, 0, 64, 81
1, 482670, Control_c, 0, 64, 79
1, 482714, Control_c, 0, 64, 79
1, 482729, Control_c, 0, 64, 78
1, 482744, Control_c, 0, 64, 77
1, 482759, Control_c, 0, 64, 75
1, 482774, Control_c, 0, 64, 74
1, 482816, Note_off_c, 0, 64, 50
1, 482832, Note_off_c, 0, 47, 17
1, 482838, Note_on_c, 0, 69, 44
1, 482843, Note_on_c, 0, 63, 39
1, 482845, Note_off_c, 0, 57, 38
1, 482860, Note_off_c, 0, 52, 41
1, 482865, Note_on_c, 0, 51, 30
1, 482874, Note_on_c, 0, 48, 36
1, 482909, Note_off_c, 0, 49, 30
1, 482937, Control_c, 0, 64, 74
1, 482967, Control_c, 0, 64, 73
1, 482982, Control_c, 0, 64, 73
1, 482996, Control_c, 0, 64, 72
1, 483024, Note_off_c, 0, 69, 37
1, 483036, Note_off_c, 0, 63, 55
1, 483041, Control_c, 0, 64, 72
1, 483054, Note_off_c, 0, 51, 40
1, 483056, Control_c, 0, 64, 71
1, 483059, Note_on_c, 0, 64, 47
1, 483061, Note_off_c, 0, 48, 40
1, 483069, Note_on_c, 0, 49, 35
1, 483070, Control_c, 0, 64, 71
1, 483074, Note_on_c, 0, 57, 37
1, 483086, Note_on_c, 0, 52, 33
1, 483100, Control_c, 0, 64, 70
1, 483115, Control_c, 0, 64, 70
1, 483144, Control_c, 0, 64, 69
1, 483215, Note_off_c, 0, 64, 55
1, 483226, Note_off_c, 0, 52, 37
1, 483242, Note_on_c, 0, 51, 39
1, 483248, Note_off_c, 0, 57, 33
1, 483254, Note_on_c, 0, 69, 45
1, 483256, Control_c, 0, 64, 69
1, 483260, Note_on_c, 0, 63, 38
1, 483279, Note_on_c, 0, 48, 37
1, 483282, Note_off_c, 0, 49, 33
1, 483374, Control_c, 0, 64, 68
1, 483389, Control_c, 0, 64, 67
1, 483398, Note_off_c, 0, 69, 50
1, 483403, Control_c, 0, 64, 67
1, 483405, Note_off_c, 0, 48, 35
1, 483412, Note_off_c, 0, 51, 51
1, 483425, Note_off_c, 0, 63, 56
1, 483433, Control_c, 0, 64, 67
1, 483442, Note_on_c, 0, 49, 30
1, 483448, Note_on_c, 0, 64, 46
1, 483448, Control_c, 0, 64, 69
1, 483458, Note_on_c, 0, 52, 35
1, 483461, Note_on_c, 0, 57, 32
1, 483463, Control_c, 0, 64, 72
1, 483477, Control_c, 0, 64, 75
1, 483492, Control_c, 0, 64, 78
1, 483507, Control_c, 0, 64, 80
1, 483513, Note_off_c, 0, 52, 50
1, 483522, Control_c, 0, 64, 81
1, 483538, Control_c, 0, 64, 83
1, 483553, Control_c, 0, 64, 85
1, 483567, Control_c, 0, 64, 86
1, 483626, Control_c, 0, 64, 85
1, 483641, Control_c, 0, 64, 85
1, 483656, Control_c, 0, 64, 84
1, 483671, Control_c, 0, 64, 82
1, 483686, Control_c, 0, 64, 81
1, 483701, Control_c, 0, 64, 80
1, 483716, Control_c, 0, 64, 78
1, 483731, Control_c, 0, 64, 76
1, 483739, Note_on_c, 0, 54, 41
1, 483740, Note_on_c, 0, 47, 34
1, 483746, Control_c, 0, 64, 74
1, 483760, Control_c, 0, 64, 72
1, 483775, Control_c, 0, 64, 70
1, 483790, Control_c, 0, 64, 67
1, 483796, Note_off_c, 0, 49, 35
1, 483805, Control_c, 0, 64, 62
1, 483819, Control_c, 0, 64, 51
1, 483826, Note_on_c, 0, 69, 42
1, 483827, Note_on_c, 0, 63, 34
1, 483834, Control_c, 0, 64, 31
1, 483836, Note_off_c, 0, 64, 32
1, 483849, Control_c, 0, 64, 17
1, 483879, Note_off_c, 0, 57, 39
1, 483879, Control_c, 0, 64, 26
1, 483893, Control_c, 0, 64, 43
1, 483908, Control_c, 0, 64, 56
1, 483923, Control_c, 0, 64, 61
1, 483938, Control_c, 0, 64, 64
1, 483953, Control_c, 0, 64, 65
1, 483967, Control_c, 0, 64, 67
1, 483990, Control_c, 0, 64, 68
1, 484003, Control_c, 0, 64, 70
1, 484012, Note_off_c, 0, 54, 57
1, 484017, Control_c, 0, 64, 73
1, 484023, Note_on_c, 0, 51, 37
1, 484032, Control_c, 0, 64, 75
1, 484047, Note_off_c, 0, 47, 47
1, 484047, Control_c, 0, 64, 78
1, 484055, Note_off_c, 0, 51, 55
1, 484062, Control_c, 0, 64, 80
1, 484077, Control_c, 0, 64, 82
1, 484092, Control_c, 0, 64, 84
1, 484106, Control_c, 0, 64, 88
1, 484121, Control_c, 0, 64, 92
1, 484136, Control_c, 0, 64, 97
1, 484151, Control_c, 0, 64, 100
1, 484166, Control_c, 0, 64, 103
1, 484181, Control_c, 0, 64, 105
1, 484186, Note_on_c, 0, 47, 51
1, 484196, Control_c, 0, 64, 109
1, 484210, Control_c, 0, 64, 114
1, 484225, Control_c, 0, 64, 119
1, 484240, Control_c, 0, 64, 120
1, 484299, Control_c, 0, 64, 117
1, 484314, Control_c, 0, 64, 116
1, 484329, Control_c, 0, 64, 115
1, 484345, Control_c, 0, 64, 111
1, 484345, Note_off_c, 0, 63, 59
1, 484360, Control_c, 0, 64, 107
1, 484363, Note_on_c, 0, 59, 55
1, 484369, Note_on_c, 0, 42, 39
1, 484375, Control_c, 0, 64, 104
1, 484375, Note_off_c, 0, 69, 40
1, 484389, Control_c, 0, 64, 101
1, 484404, Control_c, 0, 64, 99
1, 484419, Control_c, 0, 64, 97
1, 484433, Control_c, 0, 64, 95
1, 484448, Control_c, 0, 64, 91
1, 484463, Control_c, 0, 64, 86
1, 484478, Control_c, 0, 64, 82
1, 484493, Control_c, 0, 64, 78
1, 484507, Control_c, 0, 64, 76
1, 484522, Control_c, 0, 64, 75
1, 484531, Note_on_c, 0, 35, 35
1, 484537, Control_c, 0, 64, 73
1, 484552, Control_c, 0, 64, 68
1, 484557, Note_off_c, 0, 59, 61
1, 484567, Control_c, 0, 64, 61
1, 484575, Note_on_c, 0, 61, 45
1, 484581, Control_c, 0, 64, 50
1, 484585, Note_off_c, 0, 42, 29
1, 484596, Control_c, 0, 64, 42
1, 484598, Note_on_c, 0, 58, 32
1, 484611, Control_c, 0, 64, 44
1, 484623, Note_off_c, 0, 47, 32
1, 484626, Control_c, 0, 64, 51
1, 484640, Control_c, 0, 64, 58
1, 484655, Control_c, 0, 64, 63
1, 484670, Control_c, 0, 64, 66
1, 484685, Control_c, 0, 64, 69
1, 484700, Control_c, 0, 64, 72
1, 484715, Control_c, 0, 64, 73
1, 484718, Note_off_c, 0, 61, 55
1, 484723, Note_on_c, 0, 63, 57
1, 484726, Note_on_c, 0, 57, 45
1, 484737, Control_c, 0, 64, 75
1, 484752, Control_c, 0, 64, 76
1, 484764, Note_off_c, 0, 58, 35
1, 484766, Control_c, 0, 64, 78
1, 484777, Note_off_c, 0, 35, 39
1, 484781, Control_c, 0, 64, 80
1, 484796, Control_c, 0, 64, 80
1, 484811, Control_c, 0, 64, 81
1, 484826, Control_c, 0, 64, 82
1, 484840, Control_c, 0, 64, 84
1, 484855, Note_off_c, 0, 57, 41
1, 484855, Control_c, 0, 64, 85
1, 484863, Note_on_c, 0, 64, 59
1, 484870, Control_c, 0, 64, 86
1, 484871, Note_on_c, 0, 56, 59
1, 484885, Control_c, 0, 64, 87
1, 484898, Note_off_c, 0, 56, 64
1, 484907, Note_off_c, 0, 64, 59
1, 484908, Note_off_c, 0, 63, 49
1, 484914, Control_c, 0, 64, 87
1, 484929, Control_c, 0, 64, 88
1, 484959, Control_c, 0, 64, 88
1, 484992, Note_on_c, 0, 52, 48
1, 485004, Control_c, 0, 64, 88
1, 485025, Note_on_c, 0, 68, 55
1, 485028, Note_off_c, 0, 52, 60
1, 485033, Control_c, 0, 64, 87
1, 485063, Control_c, 0, 64, 86
1, 485075, Note_off_c, 0, 68, 58
1, 485078, Control_c, 0, 64, 84
1, 485093, Control_c, 0, 64, 83
1, 485107, Control_c, 0, 64, 81
1, 485122, Control_c, 0, 64, 78
1, 485138, Control_c, 0, 64, 76
1, 485153, Control_c, 0, 64, 73
1, 485168, Note_on_c, 0, 52, 32
1, 485168, Control_c, 0, 64, 69
1, 485174, Note_on_c, 0, 47, 45
1, 485183, Control_c, 0, 64, 65
1, 485194, Note_on_c, 0, 71, 55
1, 485197, Control_c, 0, 64, 61
1, 485212, Control_c, 0, 64, 59
1, 485216, Note_on_c, 0, 57, 34
1, 485217, Note_on_c, 0, 59, 19
1, 485220, Note_on_c, 0, 68, 40
1, 485242, Control_c, 0, 64, 60
1, 485257, Control_c, 0, 64, 62
1, 485271, Control_c, 0, 64, 64
1, 485286, Control_c, 0, 64, 65
1, 485301, Control_c, 0, 64, 67
1, 485316, Control_c, 0, 64, 67
1, 485326, Note_on_c, 0, 66, 52
1, 485330, Control_c, 0, 64, 68
1, 485335, Note_off_c, 0, 71, 40
1, 485339, Note_on_c, 0, 51, 42
1, 485345, Control_c, 0, 64, 70
1, 485357, Note_off_c, 0, 59, 37
1, 485360, Control_c, 0, 64, 71
1, 485373, Note_off_c, 0, 57, 43
1, 485375, Control_c, 0, 64, 72
1, 485388, Note_off_c, 0, 52, 44
1, 485389, Control_c, 0, 64, 73
1, 485419, Control_c, 0, 64, 73
1, 485421, Note_off_c, 0, 47, 57
1, 485434, Control_c, 0, 64, 75
1, 485449, Control_c, 0, 64, 77
1, 485454, Note_off_c, 0, 51, 54
1, 485463, Control_c, 0, 64, 79
1, 485468, Note_on_c, 0, 64, 62
1, 485486, Control_c, 0, 64, 80
1, 485493, Note_on_c, 0, 52, 57
1, 485511, Note_off_c, 0, 64, 65
1, 485528, Note_off_c, 0, 66, 49
1, 485531, Control_c, 0, 64, 80
1, 485538, Note_off_c, 0, 52, 58
1, 485546, Control_c, 0, 64, 81
1, 485553, Note_off_c, 0, 68, 33
1, 485576, Control_c, 0, 64, 80
1, 485590, Control_c, 0, 64, 80
1, 485635, Control_c, 0, 64, 79
1, 485646, Note_on_c, 0, 72, 75
1, 485650, Control_c, 0, 64, 79
1, 485654, Note_on_c, 0, 47, 53
1, 485664, Control_c, 0, 64, 78
1, 485709, Control_c, 0, 64, 79
1, 485768, Control_c, 0, 64, 79
1, 485770, Note_off_c, 0, 72, 53
1, 485776, Note_on_c, 0, 73, 77
1, 485782, Note_on_c, 0, 70, 68
1, 485791, Note_on_c, 0, 59, 62
1, 485827, Control_c, 0, 64, 79
1, 485871, Control_c, 0, 64, 78
1, 485886, Control_c, 0, 64, 75
1, 485901, Note_off_c, 0, 70, 39
1, 485901, Control_c, 0, 64, 65
1, 485907, Note_on_c, 0, 75, 79
1, 485910, Note_off_c, 0, 73, 60
1, 485916, Control_c, 0, 64, 50
1, 485918, Note_on_c, 0, 69, 72
1, 485932, Control_c, 0, 64, 23
1, 485961, Control_c, 0, 64, 39
1, 485976, Control_c, 0, 64, 55
1, 485990, Note_off_c, 0, 47, 59
1, 485991, Note_off_c, 0, 69, 63
1, 485991, Control_c, 0, 64, 63
1, 486005, Control_c, 0, 64, 68
1, 486020, Control_c, 0, 64, 72
1, 486031, Note_on_c, 0, 76, 83
1, 486034, Note_on_c, 0, 68, 76
1, 486034, Note_off_c, 0, 59, 63
1, 486035, Control_c, 0, 64, 75
1, 486038, Note_off_c, 0, 75, 60
1, 486050, Control_c, 0, 64, 75
1, 486059, Note_off_c, 0, 68, 69
1, 486065, Control_c, 0, 64, 76
1, 486080, Control_c, 0, 64, 76
1, 486081, Note_off_c, 0, 76, 64
1, 486095, Control_c, 0, 64, 78
1, 486110, Control_c, 0, 64, 79
1, 486124, Control_c, 0, 64, 80
1, 486154, Control_c, 0, 64, 80
1, 486161, Note_on_c, 0, 80, 84
1, 486163, Note_on_c, 0, 64, 59
1, 486197, Note_off_c, 0, 64, 65
1, 486199, Control_c, 0, 64, 80
1, 486220, Note_off_c, 0, 80, 63
1, 486228, Control_c, 0, 64, 79
1, 486250, Control_c, 0, 64, 79
1, 486265, Control_c, 0, 64, 78
1, 486280, Control_c, 0, 64, 76
1, 486294, Control_c, 0, 64, 72
1, 486306, Note_on_c, 0, 64, 56
1, 486306, Note_on_c, 0, 83, 73
1, 486309, Control_c, 0, 64, 66
1, 486311, Note_on_c, 0, 80, 71
1, 486318, Note_on_c, 0, 59, 50
1, 486324, Control_c, 0, 64, 62
1, 486328, Note_on_c, 0, 71, 40
1, 486334, Note_on_c, 0, 69, 56
1, 486339, Control_c, 0, 64, 62
1, 486354, Control_c, 0, 64, 64
1, 486369, Control_c, 0, 64, 66
1, 486384, Control_c, 0, 64, 69
1, 486399, Control_c, 0, 64, 72
1, 486413, Control_c, 0, 64, 74
1, 486428, Control_c, 0, 64, 75
1, 486433, Note_off_c, 0, 71, 46
1, 486435, Note_on_c, 0, 63, 62
1, 486435, Note_off_c, 0, 83, 60
1, 486438, Note_on_c, 0, 78, 73
1, 486440, Note_off_c, 0, 69, 58
1, 486443, Control_c, 0, 64, 76
1, 486458, Control_c, 0, 64, 78
1, 486473, Control_c, 0, 64, 80
1, 486476, Note_off_c, 0, 64, 42
1, 486487, Control_c, 0, 64, 82
1, 486502, Control_c, 0, 64, 84
1, 486517, Control_c, 0, 64, 86
1, 486525, Note_off_c, 0, 80, 58
1, 486532, Control_c, 0, 64, 87
1, 486547, Control_c, 0, 64, 88
1, 486556, Note_off_c, 0, 59, 56
1, 486556, Note_off_c, 0, 63, 60
1, 486561, Control_c, 0, 64, 88
1, 486572, Note_on_c, 0, 76, 76
1, 486576, Control_c, 0, 64, 89
1, 486583, Note_on_c, 0, 68, 55
1, 486584, Note_on_c, 0, 64, 52
1, 486587, Note_off_c, 0, 78, 60
1, 486598, Note_off_c, 0, 76, 70
1, 486605, Note_off_c, 0, 64, 59
1, 486606, Note_off_c, 0, 68, 58
1, 486650, Control_c, 0, 64, 88
1, 486665, Control_c, 0, 64, 87
1, 486679, Control_c, 0, 64, 87
1, 486694, Control_c, 0, 64, 86
1, 486709, Control_c, 0, 64, 84
1, 486724, Control_c, 0, 64, 82
1, 486727, Note_on_c, 0, 62, 63
1, 486733, Note_on_c, 0, 71, 67
1, 486734, Note_on_c, 0, 80, 86
1, 486740, Control_c, 0, 64, 74
1, 486741, Note_on_c, 0, 76, 76
1, 486755, Control_c, 0, 64, 64
1, 486770, Control_c, 0, 64, 54
1, 486784, Control_c, 0, 64, 48
1, 486796, Note_off_c, 0, 62, 60
1, 486799, Control_c, 0, 64, 50
1, 486814, Control_c, 0, 64, 56
1, 486828, Control_c, 0, 64, 61
1, 486843, Control_c, 0, 64, 66
1, 486858, Control_c, 0, 64, 68
1, 486873, Note_on_c, 0, 81, 79
1, 486873, Control_c, 0, 64, 69
1, 486874, Note_on_c, 0, 88, 77
1, 486881, Note_on_c, 0, 69, 79
1, 486888, Note_off_c, 0, 71, 64
1, 486888, Control_c, 0, 64, 68
1, 486891, Note_off_c, 0, 76, 65
1, 486892, Note_off_c, 0, 80, 64
1, 486897, Note_on_c, 0, 61, 62
1, 486900, Note_off_c, 0, 88, 68
1, 486902, Note_off_c, 0, 81, 68
1, 486903, Control_c, 0, 64, 66
1, 486911, Note_on_c, 0, 86, 33
1, 486912, Note_off_c, 0, 86, 127
1, 486914, Note_off_c, 0, 69, 63
1, 486918, Control_c, 0, 64, 65
1, 486933, Control_c, 0, 64, 63
1, 486947, Note_off_c, 0, 61, 51
1, 486948, Control_c, 0, 64, 60
1, 486963, Control_c, 0, 64, 58
1, 486978, Control_c, 0, 64, 57
1, 487018, Note_on_c, 0, 80, 92
1, 487021, Note_on_c, 0, 71, 70
1, 487025, Note_on_c, 0, 76, 77
1, 487034, Note_on_c, 0, 62, 62
1, 487058, Control_c, 0, 64, 58
1, 487073, Control_c, 0, 64, 59
1, 487088, Control_c, 0, 64, 61
1, 487103, Control_c, 0, 64, 62
1, 487111, Note_off_c, 0, 62, 64
1, 487117, Control_c, 0, 64, 63
1, 487149, Note_on_c, 0, 88, 81
1, 487153, Note_on_c, 0, 81, 75
1, 487156, Note_off_c, 0, 71, 34
1, 487159, Note_on_c, 0, 61, 70
1, 487161, Note_on_c, 0, 69, 69
1, 487165, Note_off_c, 0, 76, 65
1, 487168, Note_off_c, 0, 80, 65
1, 487171, Note_off_c, 0, 88, 67
1, 487177, Note_off_c, 0, 81, 69
1, 487177, Control_c, 0, 64, 63
1, 487189, Note_off_c, 0, 69, 65
1, 487191, Note_off_c, 0, 61, 67
1, 487192, Control_c, 0, 64, 63
1, 487207, Control_c, 0, 64, 63
1, 487221, Control_c, 0, 64, 64
1, 487236, Control_c, 0, 64, 64
1, 487251, Control_c, 0, 64, 65
1, 487266, Control_c, 0, 64, 66
1, 487296, Control_c, 0, 64, 66
1, 487310, Control_c, 0, 64, 67
1, 487322, Note_on_c, 0, 68, 80
1, 487325, Control_c, 0, 64, 68
1, 487326, Note_on_c, 0, 64, 74
1, 487340, Control_c, 0, 64, 69
1, 487342, Note_on_c, 0, 59, 61
1, 487344, Note_on_c, 0, 50, 48
1, 487355, Control_c, 0, 64, 70
1, 487369, Control_c, 0, 64, 71
1, 487384, Control_c, 0, 64, 71
1, 487399, Control_c, 0, 64, 72
1, 487414, Control_c, 0, 64, 74
1, 487418, Note_off_c, 0, 50, 62
1, 487428, Control_c, 0, 64, 76
1, 487443, Control_c, 0, 64, 78
1, 487458, Control_c, 0, 64, 79
1, 487473, Control_c, 0, 64, 79
1, 487548, Control_c, 0, 64, 79
1, 487550, Note_off_c, 0, 59, 59
1, 487551, Note_on_c, 0, 57, 54
1, 487563, Control_c, 0, 64, 78
1, 487564, Note_on_c, 0, 49, 56
1, 487578, Control_c, 0, 64, 75
1, 487588, Note_on_c, 0, 76, 77
1, 487593, Control_c, 0, 64, 70
1, 487596, Note_on_c, 0, 69, 69
1, 487607, Control_c, 0, 64, 63
1, 487609, Note_off_c, 0, 68, 59
1, 487616, Note_off_c, 0, 64, 52
1, 487622, Control_c, 0, 64, 52
1, 487637, Control_c, 0, 64, 38
1, 487651, Control_c, 0, 64, 30
1, 487681, Control_c, 0, 64, 41
1, 487696, Control_c, 0, 64, 56
1, 487711, Control_c, 0, 64, 64
1, 487733, Control_c, 0, 64, 69
1, 487744, Note_off_c, 0, 57, 64
1, 487748, Control_c, 0, 64, 77
1, 487763, Control_c, 0, 64, 91
1, 487778, Note_off_c, 0, 76, 64
1, 487778, Control_c, 0, 64, 127
1, 487783, Note_off_c, 0, 69, 65
1, 487790, Note_off_c, 0, 49, 62
1, 487837, Control_c, 0, 67, 120
1, 487852, Control_c, 0, 67, 109
1, 487866, Control_c, 0, 67, 100
1, 487881, Control_c, 0, 67, 92
1, 487896, Control_c, 0, 67, 85
1, 487911, Control_c, 0, 67, 79
1, 487926, Control_c, 0, 67, 75
1, 487940, Control_c, 0, 67, 72
1, 487955, Control_c, 0, 67, 70
1, 488013, Note_on_c, 0, 59, 58
1, 488015, Note_on_c, 0, 50, 48
1, 488111, Note_on_c, 0, 68, 90
1, 488116, Note_on_c, 0, 64, 78
1, 488148, Control_c, 0, 67, 69
1, 488244, Note_off_c, 0, 50, 62
1, 488281, Control_c, 0, 67, 70
1, 488292, Note_off_c, 0, 64, 61
1, 488295, Note_off_c, 0, 68, 62
1, 488311, Control_c, 0, 67, 71
1, 488312, Note_off_c, 0, 59, 57
1, 488315, Note_on_c, 0, 57, 54
1, 488339, Note_on_c, 0, 49, 52
1, 488342, Control_c, 0, 67, 71
1, 488356, Control_c, 0, 67, 72
1, 488357, Note_on_c, 0, 76, 88
1, 488363, Note_on_c, 0, 69, 85
1, 488371, Control_c, 0, 67, 72
1, 488386, Control_c, 0, 64, 115
1, 488386, Control_c, 0, 67, 73
1, 488399, Note_off_c, 0, 57, 62
1, 488400, Control_c, 0, 64, 106
1, 488415, Control_c, 0, 64, 101
1, 488415, Control_c, 0, 67, 74
1, 488430, Control_c, 0, 64, 100
1, 488432, Note_off_c, 0, 69, 62
1, 488435, Note_off_c, 0, 76, 61
1, 488445, Control_c, 0, 67, 74
1, 488459, Note_off_c, 0, 49, 45
1, 488460, Control_c, 0, 64, 101
1, 488460, Control_c, 0, 67, 75
1, 488482, Control_c, 0, 67, 76
1, 488497, Control_c, 0, 67, 77
1, 488512, Control_c, 0, 67, 78
1, 488513, Note_on_c, 0, 50, 54
1, 488515, Note_on_c, 0, 59, 65
1, 488517, Note_on_c, 0, 68, 89
1, 488528, Note_on_c, 0, 64, 73
1, 488556, Control_c, 0, 64, 96
1, 488571, Control_c, 0, 64, 86
1, 488586, Control_c, 0, 64, 76
1, 488601, Control_c, 0, 64, 70
1, 488603, Note_off_c, 0, 59, 56
1, 488614, Note_off_c, 0, 50, 38
1, 488615, Control_c, 0, 64, 71
1, 488615, Control_c, 0, 67, 77
1, 488627, Note_off_c, 0, 64, 60
1, 488630, Control_c, 0, 64, 76
1, 488630, Control_c, 0, 67, 77
1, 488645, Control_c, 0, 64, 84
1, 488655, Note_on_c, 0, 57, 56
1, 488660, Control_c, 0, 64, 96
1, 488661, Note_on_c, 0, 69, 80
1, 488661, Note_on_c, 0, 76, 84
1, 488665, Note_off_c, 0, 68, 57
1, 488671, Note_on_c, 0, 49, 64
1, 488675, Control_c, 0, 64, 112
1, 488676, Note_off_c, 0, 57, 60
1, 488688, Note_off_c, 0, 69, 65
1, 488689, Note_off_c, 0, 76, 63
1, 488689, Control_c, 0, 64, 122
1, 488697, Note_off_c, 0, 49, 66
1, 488704, Control_c, 0, 64, 119
1, 488719, Control_c, 0, 64, 115
1, 488734, Control_c, 0, 64, 112
1, 488749, Control_c, 0, 64, 109
1, 488749, Control_c, 0, 67, 79
1, 488763, Control_c, 0, 64, 107
1, 488763, Control_c, 0, 67, 81
1, 488778, Control_c, 0, 64, 104
1, 488778, Control_c, 0, 67, 82
1, 488793, Control_c, 0, 64, 102
1, 488793, Control_c, 0, 67, 84
1, 488807, Control_c, 0, 64, 99
1, 488807, Control_c, 0, 67, 86
1, 488822, Control_c, 0, 64, 96
1, 488822, Control_c, 0, 67, 87
1, 488837, Control_c, 0, 64, 93
1, 488837, Control_c, 0, 67, 87
1, 488838, Note_on_c, 0, 49, 37
1, 488844, Note_on_c, 0, 61, 83
1, 488852, Control_c, 0, 64, 87
1, 488852, Control_c, 0, 67, 89
1, 488859, Note_on_c, 0, 58, 70
1, 488865, Note_on_c, 0, 40, 41
1, 488867, Control_c, 0, 64, 75
1, 488882, Control_c, 0, 64, 62
1, 488897, Control_c, 0, 64, 47
1, 488912, Control_c, 0, 64, 43
1, 488912, Control_c, 0, 67, 88
1, 488927, Control_c, 0, 64, 50
1, 488927, Control_c, 0, 67, 87
1, 488941, Control_c, 0, 64, 58
1, 488941, Control_c, 0, 67, 87
1, 488956, Control_c, 0, 64, 63
1, 488965, Note_off_c, 0, 58, 59
1, 488971, Control_c, 0, 64, 66
1, 488971, Control_c, 0, 67, 86
1, 488986, Control_c, 0, 64, 69
1, 489000, Note_off_c, 0, 61, 58
1, 489001, Control_c, 0, 64, 71
1, 489027, Note_on_c, 0, 68, 66
1, 489028, Note_off_c, 0, 40, 43
1, 489030, Control_c, 0, 64, 70
1, 489045, Control_c, 0, 64, 70
1, 489045, Control_c, 0, 67, 87
1, 489060, Control_c, 0, 64, 69
1, 489060, Control_c, 0, 67, 89
1, 489074, Note_on_c, 0, 59, 63
1, 489075, Control_c, 0, 64, 65
1, 489075, Control_c, 0, 67, 91
1, 489077, Note_on_c, 0, 66, 68
1, 489087, Note_on_c, 0, 57, 63
1, 489088, Note_on_c, 0, 47, 55
1, 489089, Control_c, 0, 64, 59
1, 489089, Control_c, 0, 67, 93
1, 489093, Note_on_c, 0, 39, 38
1, 489102, Note_off_c, 0, 49, 37
1, 489102, Note_off_c, 0, 68, 59
1, 489104, Control_c, 0, 64, 46
1, 489104, Control_c, 0, 67, 95
1, 489119, Control_c, 0, 64, 26
1, 489119, Control_c, 0, 67, 97
1, 489135, Control_c, 0, 64, 0
1, 489135, Control_c, 0, 67, 97
1, 489165, Control_c, 0, 64, 30
1, 489165, Control_c, 0, 67, 98
1, 489179, Control_c, 0, 64, 51
1, 489179, Control_c, 0, 67, 99
1, 489194, Control_c, 0, 64, 62
1, 489194, Control_c, 0, 67, 99
1, 489207, Note_off_c, 0, 57, 58
1, 489209, Control_c, 0, 64, 66
1, 489209, Control_c, 0, 67, 100
1, 489231, Control_c, 0, 64, 69
1, 489246, Note_off_c, 0, 47, 62
1, 489246, Control_c, 0, 64, 71
1, 489261, Control_c, 0, 64, 73
1, 489276, Control_c, 0, 64, 74
1, 489281, Note_on_c, 0, 63, 74
1, 489290, Note_off_c, 0, 39, 55
1, 489291, Control_c, 0, 64, 76
1, 489291, Control_c, 0, 67, 100
1, 489295, Note_off_c, 0, 59, 48
1, 489305, Control_c, 0, 64, 79
1, 489305, Control_c, 0, 67, 102
1, 489320, Control_c, 0, 64, 81
1, 489320, Control_c, 0, 67, 103
1, 489335, Control_c, 0, 64, 83
1, 489335, Control_c, 0, 67, 104
1, 489350, Control_c, 0, 64, 84
1, 489350, Control_c, 0, 67, 107
1, 489365, Control_c, 0, 64, 84
1, 489365, Control_c, 0, 67, 109
1, 489369, Note_off_c, 0, 66, 33
1, 489380, Control_c, 0, 64, 85
1, 489380, Control_c, 0, 67, 110
1, 489385, Note_off_c, 0, 63, 56
1, 489395, Control_c, 0, 64, 86
1, 489395, Control_c, 0, 67, 113
1, 489409, Control_c, 0, 64, 89
1, 489409, Control_c, 0, 67, 115
1, 489419, Note_on_c, 0, 59, 78
1, 489424, Control_c, 0, 64, 91
1, 489424, Control_c, 0, 67, 116
1, 489439, Control_c, 0, 64, 92
1, 489439, Control_c, 0, 67, 117
1, 489454, Control_c, 0, 67, 117
1, 489478, Note_off_c, 0, 59, 62
1, 489484, Control_c, 0, 67, 118
1, 489513, Control_c, 0, 67, 119
1, 489543, Control_c, 0, 67, 119
1, 489555, Note_on_c, 0, 59, 74
1, 489570, Note_on_c, 0, 35, 42
1, 489587, Control_c, 0, 64, 91
1, 489587, Control_c, 0, 67, 120
1, 489602, Control_c, 0, 64, 90
1, 489602, Control_c, 0, 67, 120
1, 489617, Control_c, 0, 64, 88
1, 489617, Control_c, 0, 67, 122
1, 489631, Control_c, 0, 64, 83
1, 489631, Control_c, 0, 67, 127
1, 489646, Control_c, 0, 64, 78
1, 489661, Control_c, 0, 64, 74
1, 489676, Control_c, 0, 64, 71
1, 489691, Control_c, 0, 64, 69
1, 489705, Control_c, 0, 64, 66
1, 489719, Note_off_c, 0, 59, 62
1, 489720, Control_c, 0, 64, 63
1, 489731, Note_on_c, 0, 61, 62
1, 489732, Note_on_c, 0, 47, 40
1, 489735, Control_c, 0, 64, 57
1, 489738, Note_on_c, 0, 58, 50
1, 489750, Control_c, 0, 64, 46
1, 489765, Control_c, 0, 64, 0
1, 489824, Control_c, 0, 64, 44
1, 489839, Control_c, 0, 64, 60
1, 489854, Control_c, 0, 64, 66
1, 489868, Control_c, 0, 64, 71
1, 489879, Note_on_c, 0, 63, 69
1, 489883, Note_off_c, 0, 61, 57
1, 489883, Control_c, 0, 64, 79
1, 489898, Control_c, 0, 64, 90
1, 489900, Note_on_c, 0, 57, 57
1, 489913, Control_c, 0, 64, 108
1, 489916, Note_off_c, 0, 35, 39
1, 489916, Note_off_c, 0, 58, 33
1, 489928, Control_c, 0, 64, 127
1, 489955, Note_off_c, 0, 47, 55
1, 489959, Note_off_c, 0, 57, 59
1, 490008, Note_on_c, 0, 64, 74
1, 490021, Note_on_c, 0, 56, 59
1, 490044, Note_off_c, 0, 56, 62
1, 490045, Note_off_c, 0, 63, 51
1, 490062, Note_off_c, 0, 64, 62
1, 490149, Note_on_c, 0, 52, 47
1, 490153, Note_on_c, 0, 68, 72
1, 490186, Note_off_c, 0, 52, 61
1, 490232, Note_off_c, 0, 68, 59
1, 490262, Control_c, 0, 64, 112
1, 490277, Control_c, 0, 64, 99
1, 490292, Control_c, 0, 64, 84
1, 490296, Note_on_c, 0, 52, 40
1, 490307, Control_c, 0, 64, 71
1, 490317, Note_on_c, 0, 47, 42
1, 490322, Control_c, 0, 64, 61
1, 490328, Note_on_c, 0, 71, 63
1, 490336, Control_c, 0, 64, 44
1, 490351, Control_c, 0, 64, 34
1, 490354, Note_on_c, 0, 59, 36
1, 490354, Note_on_c, 0, 57, 43
1, 490363, Note_on_c, 0, 68, 47
1, 490366, Control_c, 0, 64, 36
1, 490380, Control_c, 0, 64, 48
1, 490395, Control_c, 0, 64, 57
1, 490410, Control_c, 0, 64, 63
1, 490425, Control_c, 0, 64, 66
1, 490440, Control_c, 0, 64, 70
1, 490454, Control_c, 0, 64, 75
1, 490456, Note_off_c, 0, 71, 59
1, 490462, Note_on_c, 0, 66, 63
1, 490468, Note_on_c, 0, 51, 53
1, 490469, Control_c, 0, 64, 79
1, 490474, Note_off_c, 0, 52, 51
1, 490484, Control_c, 0, 64, 82
1, 490496, Note_off_c, 0, 59, 36
1, 490499, Control_c, 0, 64, 84
1, 490506, Note_off_c, 0, 57, 39
1, 490514, Control_c, 0, 64, 87
1, 490528, Control_c, 0, 64, 91
1, 490530, Note_off_c, 0, 47, 31
1, 490543, Control_c, 0, 64, 97
1, 490558, Control_c, 0, 64, 106
1, 490572, Note_off_c, 0, 51, 58
1, 490572, Control_c, 0, 64, 116
1, 490587, Control_c, 0, 64, 127
1, 490602, Note_on_c, 0, 64, 66
1, 490611, Note_on_c, 0, 52, 57
1, 490644, Note_off_c, 0, 64, 60
1, 490647, Note_off_c, 0, 66, 56
1, 490647, Control_c, 0, 64, 120
1, 490661, Control_c, 0, 64, 115
1, 490675, Note_off_c, 0, 68, 33
1, 490676, Control_c, 0, 64, 110
1, 490691, Control_c, 0, 64, 107
1, 490706, Control_c, 0, 64, 104
1, 490721, Control_c, 0, 64, 102
1, 490744, Control_c, 0, 64, 100
1, 490754, Note_off_c, 0, 52, 28
1, 490758, Control_c, 0, 64, 97
1, 490766, Note_on_c, 0, 64, 64
1, 490773, Control_c, 0, 64, 94
1, 490778, Note_on_c, 0, 40, 49
1, 490788, Control_c, 0, 64, 92
1, 490803, Control_c, 0, 64, 88
1, 490818, Control_c, 0, 64, 83
1, 490832, Control_c, 0, 64, 74
1, 490847, Control_c, 0, 64, 62
1, 490862, Control_c, 0, 64, 40
1, 490877, Control_c, 0, 64, 0
1, 490909, Note_on_c, 0, 52, 39
1, 490912, Note_off_c, 0, 64, 60
1, 490917, Note_on_c, 0, 66, 56
1, 490921, Control_c, 0, 64, 31
1, 490927, Note_on_c, 0, 63, 48
1, 490936, Control_c, 0, 64, 56
1, 490951, Control_c, 0, 64, 63
1, 490965, Control_c, 0, 64, 68
1, 490980, Control_c, 0, 64, 73
1, 490995, Control_c, 0, 64, 81
1, 491010, Control_c, 0, 64, 93
1, 491025, Control_c, 0, 64, 114
1, 491040, Control_c, 0, 64, 127
1, 491055, Note_on_c, 0, 68, 70
1, 491056, Note_off_c, 0, 40, 32
1, 491058, Note_off_c, 0, 66, 55
1, 491072, Note_off_c, 0, 63, 47
1, 491074, Note_on_c, 0, 62, 52
1, 491097, Note_off_c, 0, 52, 58
1, 491142, Note_off_c, 0, 62, 62
1, 491187, Note_on_c, 0, 69, 73
1, 491200, Note_on_c, 0, 61, 54
1, 491222, Note_off_c, 0, 61, 61
1, 491244, Note_off_c, 0, 69, 61
1, 491255, Note_off_c, 0, 68, 36
1, 491321, Note_on_c, 0, 57, 49
1, 491344, Note_on_c, 0, 73, 74
1, 491395, Note_off_c, 0, 57, 52
1, 491416, Note_off_c, 0, 73, 62
1, 491491, Control_c, 0, 64, 117
1, 491503, Note_on_c, 0, 52, 45
1, 491506, Control_c, 0, 64, 97
1, 491507, Note_on_c, 0, 57, 38
1, 491521, Control_c, 0, 64, 85
1, 491537, Control_c, 0, 64, 74
1, 491547, Note_on_c, 0, 76, 70
1, 491552, Control_c, 0, 64, 65
1, 491563, Note_on_c, 0, 73, 50
1, 491567, Control_c, 0, 64, 59
1, 491580, Note_on_c, 0, 62, 37
1, 491580, Note_on_c, 0, 64, 37
1, 491581, Control_c, 0, 64, 53
1, 491596, Control_c, 0, 64, 54
1, 491611, Control_c, 0, 64, 58
1, 491626, Control_c, 0, 64, 62
1, 491641, Control_c, 0, 64, 66
1, 491655, Control_c, 0, 64, 71
1, 491670, Control_c, 0, 64, 79
1, 491685, Control_c, 0, 64, 92
1, 491691, Note_off_c, 0, 76, 58
1, 491692, Note_on_c, 0, 71, 54
1, 491693, Note_off_c, 0, 64, 51
1, 491693, Note_off_c, 0, 62, 61
1, 491697, Note_on_c, 0, 56, 51
1, 491700, Control_c, 0, 64, 102
1, 491714, Control_c, 0, 64, 113
1, 491717, Note_on_c, 0, 72, 37
1, 491729, Control_c, 0, 64, 127
1, 491732, Note_off_c, 0, 57, 44
1, 491749, Note_off_c, 0, 72, 54
1, 491785, Note_off_c, 0, 52, 55
1, 491824, Note_on_c, 0, 70, 63
1, 491831, Note_off_c, 0, 56, 61
1, 491841, Note_on_c, 0, 69, 76
1, 491841, Note_off_c, 0, 70, 40
1, 491847, Note_on_c, 0, 57, 61
1, 491865, Note_off_c, 0, 71, 56
1, 491895, Note_off_c, 0, 57, 56
1, 491897, Note_off_c, 0, 73, 22
1, 491898, Note_off_c, 0, 69, 58
1, 491925, Poly_aftertouch_c, 0, 61, 0
1, 491985, Note_on_c, 0, 73, 91
1, 492000, Note_on_c, 0, 61, 50
1, 492012, Note_on_c, 0, 69, 60
1, 492073, Note_off_c, 0, 69, 40
1, 492134, Note_off_c, 0, 73, 61
1, 492187, Note_on_c, 0, 65, 64
1, 492203, Control_c, 0, 64, 112
1, 492225, Control_c, 0, 64, 102
1, 492240, Control_c, 0, 64, 84
1, 492252, Note_on_c, 0, 73, 85
1, 492255, Control_c, 0, 64, 68
1, 492270, Control_c, 0, 64, 51
1, 492279, Note_on_c, 0, 69, 60
1, 492285, Control_c, 0, 64, 23
1, 492299, Control_c, 0, 64, 27
1, 492314, Control_c, 0, 64, 44
1, 492330, Control_c, 0, 64, 59
1, 492345, Control_c, 0, 64, 65
1, 492360, Control_c, 0, 64, 73
1, 492375, Control_c, 0, 64, 88
1, 492390, Control_c, 0, 64, 127
1, 492414, Note_on_c, 0, 68, 87
1, 492450, Note_off_c, 0, 73, 59
1, 492463, Control_c, 0, 67, 122
1, 492478, Control_c, 0, 67, 116
1, 492493, Control_c, 0, 67, 109
1, 492494, Note_off_c, 0, 69, 39
1, 492508, Control_c, 0, 67, 101
1, 492523, Control_c, 0, 67, 90
1, 492532, Note_off_c, 0, 68, 61
1, 492537, Control_c, 0, 67, 79
1, 492548, Note_on_c, 0, 66, 68
1, 492552, Control_c, 0, 67, 66
1, 492555, Note_off_c, 0, 65, 63
1, 492562, Note_on_c, 0, 71, 89
1, 492565, Note_off_c, 0, 61, 62
1, 492567, Control_c, 0, 67, 56
1, 492577, Note_off_c, 0, 66, 68
1, 492582, Control_c, 0, 67, 48
1, 492597, Control_c, 0, 67, 39
1, 492611, Note_off_c, 0, 71, 65
1, 492611, Control_c, 0, 67, 27
1, 492626, Control_c, 0, 67, 15
1, 492641, Control_c, 0, 67, 0
1, 492694, Note_on_c, 0, 73, 94
1, 492695, Note_on_c, 0, 61, 67
1, 492702, Note_on_c, 0, 69, 85
1, 492703, Note_on_c, 0, 49, 56
1, 492784, Note_off_c, 0, 61, 61
1, 492787, Note_off_c, 0, 69, 59
1, 492814, Note_off_c, 0, 73, 61
1, 492841, Note_off_c, 0, 49, 59
1, 492870, Note_on_c, 0, 61, 71
1, 492878, Note_on_c, 0, 53, 69
1, 492878, Control_c, 0, 64, 87
1, 492879, Note_on_c, 0, 69, 87
1, 492879, Note_on_c, 0, 73, 85
1, 492893, Control_c, 0, 64, 59
1, 492908, Control_c, 0, 64, 0
1, 492937, Control_c, 0, 64, 22
1, 492952, Control_c, 0, 64, 55
1, 492967, Control_c, 0, 64, 67
1, 492990, Control_c, 0, 64, 109
1, 493004, Control_c, 0, 64, 127
1, 493028, Note_on_c, 0, 68, 87
1, 493057, Note_off_c, 0, 73, 59
1, 493064, Note_off_c, 0, 69, 61
1, 493082, Note_off_c, 0, 61, 60
1, 493090, Note_off_c, 0, 53, 61
1, 493162, Note_on_c, 0, 71, 89
1, 493166, Note_on_c, 0, 54, 77
1, 493168, Note_on_c, 0, 61, 77
1, 493175, Note_off_c, 0, 68, 64
1, 493205, Note_off_c, 0, 71, 67
1, 493207, Note_off_c, 0, 54, 63
1, 493216, Note_off_c, 0, 61, 60
1, 493294, Note_on_c, 0, 75, 92
1, 493300, Note_on_c, 0, 66, 87
1, 493305, Note_on_c, 0, 72, 70
1, 493312, Note_on_c, 0, 57, 77
1, 493312, Note_on_c, 0, 60, 83
1, 493314, Note_on_c, 0, 71, 72
1, 493323, Note_off_c, 0, 66, 68
1, 493333, Note_off_c, 0, 71, 72
1, 493337, Note_off_c, 0, 72, 66
1, 493346, Note_off_c, 0, 60, 65
1, 493351, Note_off_c, 0, 75, 60
1, 493362, Note_off_c, 0, 57, 64
1, 493440, Note_on_c, 0, 76, 99
1, 493443, Note_on_c, 0, 71, 94
1, 493446, Note_on_c, 0, 59, 86
1, 493449, Note_on_c, 0, 64, 83
1, 493450, Control_c, 0, 64, 50
1, 493455, Note_on_c, 0, 56, 70
1, 493465, Control_c, 0, 64, 0
1, 493466, Note_off_c, 0, 71, 65
1, 493469, Note_off_c, 0, 64, 71
1, 493481, Note_off_c, 0, 56, 67
1, 493481, Note_off_c, 0, 59, 66
1, 493487, Note_off_c, 0, 76, 64
1, 493591, Note_on_c, 0, 74, 84
1, 493594, Note_on_c, 0, 77, 93
1, 493599, Note_on_c, 0, 65, 84
1, 493604, Note_on_c, 0, 59, 79
1, 493606, Note_on_c, 0, 62, 81
1, 493619, Note_off_c, 0, 74, 64
1, 493621, Note_off_c, 0, 65, 71
1, 493623, Note_off_c, 0, 77, 65
1, 493627, Note_off_c, 0, 59, 70
1, 493633, Note_off_c, 0, 62, 67
1, 493759, Note_on_c, 0, 73, 92
1, 493759, Note_on_c, 0, 78, 93
1, 493762, Note_on_c, 0, 66, 88
1, 493763, Note_on_c, 0, 57, 75
1, 493763, Note_on_c, 0, 61, 80
1, 493782, Note_off_c, 0, 66, 68
1, 493784, Note_off_c, 0, 73, 62
1, 493789, Note_off_c, 0, 61, 65
1, 493794, Note_off_c, 0, 57, 66
1, 493803, Note_off_c, 0, 78, 60
1, 493926, Note_on_c, 0, 79, 93
1, 493927, Note_on_c, 0, 58, 83
1, 493932, Note_on_c, 0, 67, 88
1, 493933, Note_on_c, 0, 64, 85
1, 493954, Note_on_c, 0, 73, 37
1, 493955, Note_off_c, 0, 73, 127
1, 493955, Note_on_c, 0, 72, 57
1, 493964, Note_off_c, 0, 64, 62
1, 493968, Note_off_c, 0, 67, 62
1, 493969, Note_off_c, 0, 79, 67
1, 493974, Note_off_c, 0, 58, 61
1, 493976, Note_off_c, 0, 72, 62
1, 494112, Note_on_c, 0, 59, 85
1, 494113, Note_on_c, 0, 71, 91
1, 494115, Note_on_c, 0, 64, 83
1, 494116, Note_on_c, 0, 68, 90
1, 494120, Note_on_c, 0, 80, 87
1, 494125, Control_c, 0, 64, 31
1, 494137, Note_off_c, 0, 64, 70
1, 494137, Note_off_c, 0, 68, 69
1, 494140, Control_c, 0, 64, 33
1, 494142, Note_off_c, 0, 59, 67
1, 494154, Note_off_c, 0, 71, 63
1, 494155, Control_c, 0, 64, 0
1, 494169, Note_off_c, 0, 80, 63
1, 494342, Note_on_c, 0, 69, 93
1, 494344, Note_on_c, 0, 47, 75
1, 494346, Note_on_c, 0, 59, 84
1, 494346, Note_on_c, 0, 78, 89
1, 494348, Control_c, 0, 64, 50
1, 494349, Note_on_c, 0, 75, 83
1, 494351, Note_on_c, 0, 71, 84
1, 494363, Control_c, 0, 64, 49
1, 494373, Note_off_c, 0, 69, 65
1, 494377, Control_c, 0, 64, 0
1, 494378, Note_off_c, 0, 47, 63
1, 494378, Note_off_c, 0, 59, 63
1, 494381, Note_off_c, 0, 71, 64
1, 494396, Note_off_c, 0, 75, 63
1, 494396, Note_off_c, 0, 78, 64
1, 494630, Note_on_c, 0, 76, 86
1, 494632, Note_on_c, 0, 71, 90
1, 494637, Note_on_c, 0, 68, 83
1, 494648, Note_on_c, 0, 59, 73
1, 494651, Control_c, 0, 64, 70
1, 494652, Note_on_c, 0, 52, 67
1, 494657, Note_off_c, 0, 68, 71
1, 494666, Note_off_c, 0, 76, 65
1, 494666, Control_c, 0, 64, 127
1, 494670, Note_off_c, 0, 71, 69
1, 494688, Note_off_c, 0, 59, 59
1, 494709, Note_off_c, 0, 52, 61
1, 494963, Note_on_c, 0, 54, 77
1, 495030, Note_on_c, 0, 56, 98
1, 495032, Note_on_c, 0, 52, 80
1, 495059, Note_off_c, 0, 54, 64
1, 495061, Note_off_c, 0, 56, 65
1, 495067, Control_c, 0, 64, 70
1, 495070, Note_off_c, 0, 52, 64
1, 495082, Control_c, 0, 64, 0
1, 495368, Note_on_c, 0, 58, 87
1, 495369, Note_on_c, 0, 49, 78
1, 495388, Note_off_c, 0, 58, 69
1, 495393, Note_off_c, 0, 49, 67
1, 495605, Note_on_c, 0, 59, 77
1, 495663, Note_on_c, 0, 61, 85
1, 495669, Note_on_c, 0, 58, 77
1, 495670, Note_off_c, 0, 59, 65
1, 495682, Note_off_c, 0, 61, 72
1, 495691, Note_on_c, 0, 47, 72
1, 495692, Note_on_c, 0, 35, 70
1, 495694, Note_off_c, 0, 58, 67
1, 495956, Note_on_c, 0, 63, 85
1, 495959, Note_on_c, 0, 57, 80
1, 495970, Note_on_c, 0, 60, 80
1, 495973, Note_off_c, 0, 47, 62
1, 495979, Note_off_c, 0, 35, 59
1, 495984, Note_off_c, 0, 63, 71
1, 495990, Note_off_c, 0, 57, 69
1, 495991, Note_off_c, 0, 60, 71
1, 496175, Note_on_c, 0, 47, 53
1, 496201, Note_off_c, 0, 47, 56
1, 496234, Note_on_c, 0, 64, 86
1, 496236, Note_on_c, 0, 59, 90
1, 496247, Note_on_c, 0, 56, 77
1, 496257, Note_off_c, 0, 59, 70
1, 496271, Note_off_c, 0, 56, 68
1, 496275, Note_off_c, 0, 64, 59
1, 496540, Note_on_c, 0, 64, 77
1, 496540, Note_on_c, 0, 58, 72
1, 496540, Note_on_c, 0, 61, 68
1, 496545, Note_on_c, 0, 55, 71
1, 496567, Note_off_c, 0, 58, 66
1, 496568, Note_off_c, 0, 61, 66
1, 496570, Note_off_c, 0, 64, 65
1, 496574, Note_off_c, 0, 55, 65
1, 496791, Note_on_c, 0, 66, 71
1, 496796, Note_on_c, 0, 63, 61
1, 496806, Note_on_c, 0, 59, 50
1, 496865, Note_on_c, 0, 71, 80
1, 496883, Control_c, 0, 64, 11
1, 496884, Note_on_c, 0, 47, 52
1, 496889, Note_on_c, 0, 35, 52
1, 496897, Control_c, 0, 64, 38
1, 496912, Control_c, 0, 64, 50
1, 496927, Control_c, 0, 64, 57
1, 496942, Control_c, 0, 64, 62
1, 496957, Control_c, 0, 64, 66
1, 496971, Control_c, 0, 64, 70
1, 496986, Control_c, 0, 64, 80
1, 497001, Control_c, 0, 64, 101
1, 497015, Control_c, 0, 64, 127
1, 497106, Note_off_c, 0, 71, 61
1, 497115, Note_off_c, 0, 59, 64
1, 497118, Note_off_c, 0, 63, 62
1, 497128, Note_off_c, 0, 66, 53
1, 497238, Poly_aftertouch_c, 0, 39, 127
1, 497348, Note_on_c, 0, 66, 83
1, 497350, Note_on_c, 0, 54, 83
1, 497368, Note_off_c, 0, 66, 69
1, 497373, Note_off_c, 0, 54, 70
1, 497419, Note_on_c, 0, 68, 94
1, 497419, Note_off_c, 0, 35, 54
1, 497422, Note_off_c, 0, 47, 61
1, 497424, Note_on_c, 0, 56, 87
1, 497431, Control_c, 0, 64, 79
1, 497439, Poly_aftertouch_c, 0, 39, 0
1, 497446, Control_c, 0, 64, 45
1, 497449, Note_off_c, 0, 56, 68
1, 497461, Control_c, 0, 64, 0
1, 497475, Note_off_c, 0, 68, 60
1, 497712, Note_on_c, 0, 70, 94
1, 497717, Note_on_c, 0, 66, 83
1, 497717, Note_on_c, 0, 61, 85
1, 497735, Note_off_c, 0, 61, 71
1, 497736, Note_off_c, 0, 66, 70
1, 497760, Note_off_c, 0, 70, 62
1, 497939, Note_on_c, 0, 54, 77
1, 497947, Note_on_c, 0, 42, 57
1, 497962, Note_off_c, 0, 54, 69
1, 497975, Note_off_c, 0, 42, 57
1, 498003, Note_on_c, 0, 71, 92
1, 498006, Note_on_c, 0, 66, 86
1, 498009, Note_on_c, 0, 63, 86
1, 498016, Control_c, 0, 64, 28
1, 498027, Note_on_c, 0, 59, 80
1, 498031, Control_c, 0, 64, 41
1, 498032, Note_on_c, 0, 47, 72
1, 498034, Note_off_c, 0, 63, 66
1, 498042, Note_off_c, 0, 66, 61
1, 498046, Control_c, 0, 64, 0
1, 498047, Note_off_c, 0, 71, 64
1, 498292, Note_on_c, 0, 73, 93
1, 498296, Note_on_c, 0, 64, 90
1, 498298, Note_on_c, 0, 70, 90
1, 498300, Note_on_c, 0, 66, 82
1, 498310, Note_off_c, 0, 59, 64
1, 498315, Note_off_c, 0, 64, 72
1, 498321, Note_off_c, 0, 66, 70
1, 498324, Note_off_c, 0, 47, 64
1, 498334, Note_off_c, 0, 70, 67
1, 498345, Note_off_c, 0, 73, 65
1, 498500, Note_on_c, 0, 54, 87
1, 498506, Note_on_c, 0, 42, 83
1, 498525, Note_off_c, 0, 54, 70
1, 498536, Note_off_c, 0, 42, 68
1, 498573, Note_on_c, 0, 66, 91
1, 498576, Note_on_c, 0, 63, 94
1, 498576, Note_on_c, 0, 75, 91
1, 498579, Note_on_c, 0, 71, 84
1, 498603, Note_on_c, 0, 47, 85
1, 498604, Note_on_c, 0, 35, 79
1, 498609, Note_off_c, 0, 63, 62
1, 498614, Note_on_c, 0, 70, 14
1, 498614, Note_off_c, 0, 66, 65
1, 498617, Note_off_c, 0, 71, 64
1, 498624, Note_off_c, 0, 47, 68
1, 498626, Note_off_c, 0, 70, 36
1, 498631, Note_off_c, 0, 35, 64
1, 498635, Note_off_c, 0, 75, 65
1, 498880, Note_on_c, 0, 77, 92
1, 498882, Note_on_c, 0, 71, 90
1, 498884, Note_on_c, 0, 73, 85
1, 498885, Note_on_c, 0, 65, 89
1, 498892, Note_on_c, 0, 49, 95
1, 498895, Note_on_c, 0, 37, 86
1, 498913, Note_off_c, 0, 49, 72
1, 498920, Note_off_c, 0, 37, 66
1, 498920, Note_off_c, 0, 65, 63
1, 498925, Note_on_c, 0, 75, 24
1, 498926, Note_off_c, 0, 75, 127
1, 498929, Note_off_c, 0, 71, 64
1, 498936, Note_off_c, 0, 77, 63
1, 498938, Note_off_c, 0, 73, 64
1, 499145, Note_on_c, 0, 66, 79
1, 499146, Note_on_c, 0, 70, 83
1, 499148, Note_on_c, 0, 73, 85
1, 499220, Note_on_c, 0, 78, 98
1, 499232, Note_on_c, 0, 30, 87
1, 499233, Note_on_c, 0, 42, 89
1, 499306, Control_c, 0, 64, 61
1, 499321, Control_c, 0, 64, 69
1, 499336, Control_c, 0, 64, 83
1, 499351, Control_c, 0, 64, 127
1, 499482, Note_off_c, 0, 66, 61
1, 499486, Note_off_c, 0, 70, 62
1, 499491, Note_off_c, 0, 78, 59
1, 499494, Note_off_c, 0, 73, 63
1, 499608, Note_off_c, 0, 30, 60
1, 499610, Note_off_c, 0, 42, 62
1, 499717, Note_on_c, 0, 66, 89
1, 499718, Note_on_c, 0, 78, 91
1, 499744, Note_off_c, 0, 78, 67
1, 499749, Note_off_c, 0, 66, 63
1, 499788, Control_c, 0, 64, 104
1, 499797, Note_on_c, 0, 81, 100
1, 499803, Control_c, 0, 64, 64
1, 499805, Note_on_c, 0, 69, 89
1, 499818, Control_c, 0, 64, 0
1, 499828, Note_off_c, 0, 69, 66
1, 499831, Note_off_c, 0, 81, 67
1, 500093, Note_on_c, 0, 72, 97
1, 500099, Note_on_c, 0, 60, 85
1, 500118, Note_off_c, 0, 72, 65
1, 500120, Note_off_c, 0, 60, 71
1, 500317, Note_on_c, 0, 51, 67
1, 500319, Note_on_c, 0, 63, 72
1, 500346, Note_off_c, 0, 51, 65
1, 500346, Note_off_c, 0, 63, 69
1, 500352, Control_c, 0, 67, 9
1, 500367, Control_c, 0, 67, 14
1, 500382, Control_c, 0, 67, 21
1, 500388, Note_on_c, 0, 73, 86
1, 500392, Note_on_c, 0, 61, 82
1, 500397, Note_on_c, 0, 64, 63
1, 500397, Control_c, 0, 67, 24
1, 500401, Note_on_c, 0, 52, 62
1, 500411, Control_c, 0, 67, 27
1, 500426, Control_c, 0, 67, 29
1, 500427, Note_off_c, 0, 64, 66
1, 500437, Note_off_c, 0, 52, 63
1, 500441, Control_c, 0, 67, 30
1, 500463, Control_c, 0, 67, 31
1, 500479, Control_c, 0, 67, 32
1, 500493, Control_c, 0, 67, 33
1, 500508, Control_c, 0, 67, 34
1, 500523, Control_c, 0, 67, 35
1, 500537, Control_c, 0, 67, 36
1, 500552, Control_c, 0, 67, 36
1, 500582, Control_c, 0, 67, 37
1, 500597, Control_c, 0, 67, 38
1, 500612, Control_c, 0, 67, 41
1, 500627, Control_c, 0, 67, 44
1, 500641, Control_c, 0, 67, 44
1, 500656, Control_c, 0, 67, 45
1, 500664, Note_off_c, 0, 61, 61
1, 500668, Note_off_c, 0, 73, 62
1, 500701, Note_on_c, 0, 42, 81
1, 500702, Note_on_c, 0, 54, 81
1, 500727, Note_off_c, 0, 54, 69
1, 500727, Note_off_c, 0, 42, 65
1, 500745, Control_c, 0, 67, 46
1, 500819, Control_c, 0, 67, 45
1, 500909, Note_on_c, 0, 75, 78
1, 500919, Note_on_c, 0, 69, 67
1, 500931, Note_off_c, 0, 75, 68
1, 500938, Note_off_c, 0, 69, 65
1, 500982, Note_on_c, 0, 73, 57
1, 500988, Note_on_c, 0, 76, 82
1, 500991, Note_on_c, 0, 68, 83
1, 500992, Note_on_c, 0, 56, 79
1, 500993, Note_on_c, 0, 44, 64
1, 501010, Note_off_c, 0, 73, 66
1, 501011, Note_off_c, 0, 68, 71
1, 501015, Note_off_c, 0, 56, 68
1, 501017, Note_off_c, 0, 76, 58
1, 501025, Note_off_c, 0, 44, 64
1, 501026, Control_c, 0, 67, 44
1, 501041, Control_c, 0, 67, 44
1, 501071, Control_c, 0, 67, 43
1, 501086, Control_c, 0, 67, 42
1, 501101, Control_c, 0, 67, 41
1, 501116, Control_c, 0, 67, 41
1, 501131, Control_c, 0, 67, 40
1, 501160, Control_c, 0, 67, 39
1, 501256, Control_c, 0, 67, 39
1, 501279, Note_on_c, 0, 75, 87
1, 501284, Note_on_c, 0, 66, 84
1, 501284, Note_on_c, 0, 68, 83
1, 501288, Note_on_c, 0, 72, 75
1, 501304, Note_off_c, 0, 66, 70
1, 501309, Note_off_c, 0, 68, 67
1, 501312, Note_off_c, 0, 72, 70
1, 501325, Note_off_c, 0, 75, 60
1, 501330, Control_c, 0, 67, 38
1, 501345, Control_c, 0, 67, 37
1, 501405, Control_c, 0, 67, 37
1, 501434, Control_c, 0, 67, 36
1, 501449, Control_c, 0, 67, 35
1, 501464, Control_c, 0, 67, 34
1, 501479, Control_c, 0, 67, 34
1, 501493, Control_c, 0, 67, 32
1, 501497, Note_on_c, 0, 32, 70
1, 501497, Note_on_c, 0, 44, 83
1, 501508, Control_c, 0, 67, 32
1, 501523, Control_c, 0, 67, 29
1, 501524, Note_off_c, 0, 44, 66
1, 501524, Note_off_c, 0, 32, 59
1, 501538, Control_c, 0, 64, 24
1, 501538, Control_c, 0, 67, 28
1, 501553, Control_c, 0, 64, 61
1, 501567, Control_c, 0, 64, 70
1, 501567, Control_c, 0, 67, 27
1, 501569, Note_on_c, 0, 73, 103
1, 501574, Note_on_c, 0, 68, 88
1, 501579, Note_on_c, 0, 37, 88
1, 501580, Note_on_c, 0, 64, 87
1, 501581, Note_on_c, 0, 49, 87
1, 501582, Control_c, 0, 64, 85
1, 501597, Control_c, 0, 64, 127
1, 501603, Note_off_c, 0, 49, 70
1, 501609, Note_off_c, 0, 37, 63
1, 501612, Control_c, 0, 67, 25
1, 501627, Control_c, 0, 67, 22
1, 501641, Control_c, 0, 67, 19
1, 501656, Control_c, 0, 67, 19
1, 501789, Control_c, 0, 67, 19
1, 501804, Control_c, 0, 67, 20
1, 501819, Control_c, 0, 67, 21
1, 501834, Control_c, 0, 67, 21
1, 501864, Control_c, 0, 67, 22
1, 501879, Control_c, 0, 67, 22
1, 501893, Control_c, 0, 67, 23
1, 501908, Control_c, 0, 64, 88
1, 501918, Note_on_c, 0, 25, 96
1, 501923, Control_c, 0, 64, 66
1, 501938, Control_c, 0, 64, 58
1, 501953, Control_c, 0, 64, 61
1, 501976, Control_c, 0, 64, 67
1, 501990, Control_c, 0, 64, 76
1, 502005, Control_c, 0, 64, 94
1, 502011, Note_off_c, 0, 64, 59
1, 502020, Control_c, 0, 64, 127
1, 502020, Control_c, 0, 67, 22
1, 502030, Note_off_c, 0, 73, 60
1, 502031, Note_off_c, 0, 68, 59
1, 502035, Control_c, 0, 67, 22
1, 502050, Control_c, 0, 67, 21
1, 502064, Control_c, 0, 67, 20
1, 502079, Control_c, 0, 67, 19
1, 502094, Control_c, 0, 67, 19
1, 502146, Note_on_c, 0, 76, 93
1, 502150, Note_on_c, 0, 64, 85
1, 502180, Note_off_c, 0, 64, 66
1, 502183, Control_c, 0, 67, 19
1, 502184, Note_off_c, 0, 76, 66
1, 502202, Note_off_c, 0, 25, 61
1, 502227, Control_c, 0, 64, 71
1, 502227, Control_c, 0, 67, 21
1, 502234, Note_on_c, 0, 80, 96
1, 502237, Note_on_c, 0, 68, 95
1, 502242, Control_c, 0, 64, 0
1, 502242, Control_c, 0, 67, 22
1, 502251, Note_off_c, 0, 80, 75
1, 502257, Control_c, 0, 67, 23
1, 502262, Note_off_c, 0, 68, 68
1, 502272, Control_c, 0, 67, 24
1, 502287, Control_c, 0, 67, 24
1, 502302, Control_c, 0, 67, 26
1, 502316, Control_c, 0, 67, 26
1, 502376, Control_c, 0, 67, 27
1, 502390, Control_c, 0, 67, 27
1, 502405, Control_c, 0, 67, 28
1, 502420, Control_c, 0, 67, 29
1, 502435, Control_c, 0, 67, 31
1, 502450, Control_c, 0, 67, 31
1, 502464, Control_c, 0, 67, 32
1, 502494, Control_c, 0, 67, 32
1, 502508, Control_c, 0, 67, 33
1, 502523, Control_c, 0, 67, 34
1, 502528, Note_on_c, 0, 70, 82
1, 502534, Note_on_c, 0, 58, 80
1, 502538, Control_c, 0, 67, 34
1, 502560, Note_off_c, 0, 58, 69
1, 502588, Note_off_c, 0, 70, 56
1, 502763, Note_on_c, 0, 61, 65
1, 502769, Control_c, 0, 67, 35
1, 502775, Note_on_c, 0, 49, 36
1, 502777, Note_off_c, 0, 49, 50
1, 502784, Control_c, 0, 67, 36
1, 502791, Note_off_c, 0, 61, 63
1, 502799, Control_c, 0, 67, 37
1, 502813, Control_c, 0, 67, 37
1, 502828, Control_c, 0, 67, 38
1, 502829, Note_on_c, 0, 71, 79
1, 502835, Note_on_c, 0, 59, 70
1, 502843, Control_c, 0, 67, 39
1, 502853, Note_on_c, 0, 63, 65
1, 502858, Note_on_c, 0, 51, 56
1, 502858, Control_c, 0, 67, 39
1, 502874, Note_off_c, 0, 63, 64
1, 502881, Note_off_c, 0, 51, 58
1, 502887, Control_c, 0, 67, 40
1, 502961, Control_c, 0, 67, 41
1, 502976, Control_c, 0, 67, 41
1, 502991, Control_c, 0, 67, 42
1, 503065, Control_c, 0, 67, 42
1, 503095, Control_c, 0, 67, 43
1, 503116, Note_off_c, 0, 59, 64
1, 503136, Note_on_c, 0, 52, 76
1, 503144, Note_on_c, 0, 40, 69
1, 503148, Note_off_c, 0, 71, 62
1, 503162, Note_off_c, 0, 52, 68
1, 503170, Note_off_c, 0, 40, 66
1, 503213, Control_c, 0, 67, 42
1, 503243, Control_c, 0, 67, 42
1, 503287, Control_c, 0, 67, 41
1, 503317, Control_c, 0, 67, 41
1, 503331, Control_c, 0, 67, 40
1, 503354, Note_on_c, 0, 73, 73
1, 503360, Note_on_c, 0, 68, 68
1, 503372, Note_on_c, 0, 71, 54
1, 503376, Control_c, 0, 67, 39
1, 503390, Note_off_c, 0, 68, 67
1, 503393, Note_off_c, 0, 71, 59
1, 503401, Note_off_c, 0, 73, 62
1, 503405, Control_c, 0, 67, 39
1, 503429, Note_on_c, 0, 42, 78
1, 503435, Control_c, 0, 67, 38
1, 503437, Note_on_c, 0, 71, 89
1, 503438, Note_on_c, 0, 54, 70
1, 503439, Note_on_c, 0, 75, 84
1, 503441, Note_on_c, 0, 66, 85
1, 503462, Note_off_c, 0, 42, 66
1, 503464, Note_off_c, 0, 54, 65
1, 503471, Note_off_c, 0, 66, 65
1, 503472, Control_c, 0, 67, 37
1, 503485, Note_off_c, 0, 71, 63
1, 503487, Control_c, 0, 67, 37
1, 503502, Control_c, 0, 67, 36
1, 503503, Note_off_c, 0, 75, 60
1, 503518, Control_c, 0, 67, 35
1, 503533, Control_c, 0, 67, 34
1, 503548, Control_c, 0, 67, 33
1, 503562, Control_c, 0, 67, 32
1, 503577, Control_c, 0, 67, 31
1, 503592, Control_c, 0, 67, 31
1, 503607, Control_c, 0, 67, 29
1, 503622, Control_c, 0, 67, 28
1, 503636, Control_c, 0, 67, 27
1, 503651, Control_c, 0, 67, 26
1, 503666, Control_c, 0, 67, 26
1, 503710, Control_c, 0, 67, 25
1, 503739, Note_on_c, 0, 73, 91
1, 503740, Control_c, 0, 64, 19
1, 503740, Control_c, 0, 67, 24
1, 503745, Note_on_c, 0, 64, 84
1, 503748, Note_on_c, 0, 70, 77
1, 503749, Note_on_c, 0, 66, 80
1, 503755, Control_c, 0, 64, 28
1, 503755, Control_c, 0, 67, 24
1, 503765, Note_off_c, 0, 64, 70
1, 503768, Note_off_c, 0, 70, 71
1, 503769, Control_c, 0, 64, 33
1, 503771, Note_off_c, 0, 66, 70
1, 503776, Note_off_c, 0, 73, 68
1, 503784, Control_c, 0, 64, 33
1, 503784, Control_c, 0, 67, 22
1, 503799, Control_c, 0, 64, 35
1, 503799, Control_c, 0, 67, 22
1, 503814, Control_c, 0, 64, 33
1, 503829, Control_c, 0, 64, 0
1, 503843, Control_c, 0, 67, 21
1, 503858, Control_c, 0, 67, 21
1, 503873, Control_c, 0, 67, 20
1, 503950, Note_on_c, 0, 42, 92
1, 503953, Note_on_c, 0, 30, 78
1, 503976, Note_off_c, 0, 42, 69
1, 503977, Note_off_c, 0, 30, 65
1, 503992, Control_c, 0, 67, 21
1, 504023, Note_on_c, 0, 59, 97
1, 504023, Note_on_c, 0, 71, 91
1, 504025, Note_on_c, 0, 63, 88
1, 504026, Note_on_c, 0, 66, 84
1, 504040, Note_on_c, 0, 44, 93
1, 504043, Note_on_c, 0, 32, 82
1, 504049, Note_off_c, 0, 66, 68
1, 504051, Control_c, 0, 67, 20
1, 504055, Note_off_c, 0, 59, 68
1, 504058, Note_off_c, 0, 71, 64
1, 504061, Note_off_c, 0, 63, 60
1, 504065, Note_off_c, 0, 44, 68
1, 504066, Control_c, 0, 67, 17
1, 504069, Note_off_c, 0, 32, 64
1, 504080, Control_c, 0, 67, 9
1, 504095, Control_c, 0, 67, 0
1, 504377, Note_on_c, 0, 66, 74
1, 504378, Note_on_c, 0, 54, 80
1, 504383, Note_on_c, 0, 61, 69
1, 504383, Note_on_c, 0, 64, 61
1, 504385, Note_on_c, 0, 34, 68
1, 504385, Note_on_c, 0, 46, 75
1, 504406, Note_off_c, 0, 54, 69
1, 504411, Note_off_c, 0, 61, 67
1, 504412, Note_off_c, 0, 64, 66
1, 504412, Note_off_c, 0, 66, 58
1, 504414, Note_off_c, 0, 46, 65
1, 504416, Note_off_c, 0, 34, 63
1, 504594, Note_on_c, 0, 54, 67
1, 504687, Note_on_c, 0, 56, 70
1, 504688, Note_on_c, 0, 53, 66
1, 504690, Note_off_c, 0, 54, 64
1, 504693, Note_on_c, 0, 47, 57
1, 504701, Note_on_c, 0, 35, 51
1, 504713, Note_off_c, 0, 56, 66
1, 504718, Note_off_c, 0, 53, 64
1, 504830, Control_c, 0, 66, 127
1, 505003, Note_on_c, 0, 58, 72
1, 505006, Note_on_c, 0, 52, 65
1, 505007, Note_on_c, 0, 55, 70
1, 505017, Note_off_c, 0, 35, 60
1, 505028, Note_off_c, 0, 58, 67
1, 505032, Note_off_c, 0, 52, 65
1, 505032, Note_off_c, 0, 47, 62
1, 505036, Note_off_c, 0, 55, 67
1, 505229, Note_on_c, 0, 56, 68
1, 505235, Note_on_c, 0, 59, 71
1, 505286, Note_off_c, 0, 56, 61
1, 505302, Note_on_c, 0, 58, 78
1, 505303, Note_on_c, 0, 61, 80
1, 505305, Note_on_c, 0, 55, 71
1, 505307, Note_off_c, 0, 59, 65
1, 505324, Note_off_c, 0, 61, 71
1, 505327, Note_off_c, 0, 58, 70
1, 505335, Note_off_c, 0, 55, 64
1, 505595, Note_on_c, 0, 63, 79
1, 505598, Note_on_c, 0, 60, 71
1, 505599, Note_on_c, 0, 57, 73
1, 505605, Note_on_c, 0, 54, 66
1, 505623, Note_off_c, 0, 60, 67
1, 505623, Note_off_c, 0, 63, 68
1, 505626, Note_off_c, 0, 57, 68
1, 505635, Note_off_c, 0, 54, 67
1, 505818, Note_on_c, 0, 63, 78
1, 505825, Note_on_c, 0, 54, 64
1, 505825, Note_on_c, 0, 60, 72
1, 505862, Note_off_c, 0, 60, 63
1, 505878, Note_on_c, 0, 44, 62
1, 505882, Note_off_c, 0, 63, 65
1, 505883, Note_on_c, 0, 64, 79
1, 505887, Note_off_c, 0, 54, 66
1, 505893, Note_on_c, 0, 59, 84
1, 505898, Note_on_c, 0, 52, 77
1, 505916, Note_off_c, 0, 59, 71
1, 505930, Note_off_c, 0, 52, 67
1, 505934, Note_off_c, 0, 64, 64
1, 505944, Note_off_c, 0, 44, 63
1, 506198, Note_on_c, 0, 58, 70
1, 506199, Note_on_c, 0, 61, 67
1, 506200, Note_on_c, 0, 49, 59
1, 506200, Note_on_c, 0, 64, 75
1, 506207, Note_on_c, 0, 43, 57
1, 506226, Note_off_c, 0, 61, 67
1, 506227, Note_off_c, 0, 58, 66
1, 506229, Note_off_c, 0, 49, 66
1, 506229, Note_off_c, 0, 64, 67
1, 506244, Note_off_c, 0, 43, 63
1, 506472, Note_on_c, 0, 66, 65
1, 506478, Note_on_c, 0, 63, 54
1, 506487, Note_on_c, 0, 59, 53
1, 506543, Note_on_c, 0, 71, 74
1, 506553, Note_off_c, 0, 63, 56
1, 506556, Note_on_c, 0, 47, 45
1, 506561, Note_on_c, 0, 42, 41
1, 506567, Note_on_c, 0, 35, 46
1, 506579, Note_off_c, 0, 66, 60
1, 506630, Control_c, 0, 64, 28
1, 506645, Control_c, 0, 64, 48
1, 506660, Control_c, 0, 64, 57
1, 506675, Control_c, 0, 64, 64
1, 506689, Control_c, 0, 64, 69
1, 506705, Control_c, 0, 64, 82
1, 506720, Control_c, 0, 64, 127
1, 506851, Note_off_c, 0, 59, 62
1, 506853, Control_c, 0, 66, 0
1, 506872, Note_off_c, 0, 71, 61
1, 507053, Note_on_c, 0, 71, 92
1, 507057, Note_on_c, 0, 59, 87
1, 507082, Note_off_c, 0, 59, 69
1, 507089, Note_off_c, 0, 71, 66
1, 507098, Note_off_c, 0, 35, 56
1, 507104, Note_off_c, 0, 47, 62
1, 507116, Note_off_c, 0, 42, 62
1, 507136, Note_on_c, 0, 73, 95
1, 507137, Note_on_c, 0, 61, 86
1, 507149, Control_c, 0, 64, 73
1, 507164, Control_c, 0, 64, 39
1, 507178, Note_off_c, 0, 61, 59
1, 507179, Control_c, 0, 64, 0
1, 507203, Note_off_c, 0, 73, 57
1, 507440, Note_on_c, 0, 66, 95
1, 507441, Note_on_c, 0, 71, 87
1, 507443, Note_on_c, 0, 75, 89
1, 507468, Note_off_c, 0, 71, 66
1, 507475, Note_off_c, 0, 66, 61
1, 507495, Note_off_c, 0, 75, 60
1, 507657, Note_on_c, 0, 45, 82
1, 507660, Note_on_c, 0, 59, 83
1, 507662, Note_on_c, 0, 57, 80
1, 507682, Note_off_c, 0, 59, 71
1, 507685, Note_off_c, 0, 57, 68
1, 507690, Note_off_c, 0, 45, 66
1, 507733, Note_on_c, 0, 71, 89
1, 507736, Note_on_c, 0, 76, 97
1, 507739, Note_on_c, 0, 64, 87
1, 507740, Note_on_c, 0, 44, 83
1, 507740, Note_on_c, 0, 56, 93
1, 507750, Control_c, 0, 64, 50
1, 507765, Control_c, 0, 64, 63
1, 507780, Control_c, 0, 64, 70
1, 507790, Note_off_c, 0, 56, 64
1, 507795, Control_c, 0, 64, 81
1, 507809, Control_c, 0, 64, 127
1, 507811, Note_off_c, 0, 44, 62
1, 508083, Control_c, 0, 64, 112
1, 508088, Note_on_c, 0, 52, 97
1, 508090, Note_on_c, 0, 40, 90
1, 508098, Control_c, 0, 64, 74
1, 508113, Control_c, 0, 64, 59
1, 508120, Note_off_c, 0, 71, 57
1, 508127, Control_c, 0, 64, 39
1, 508133, Note_off_c, 0, 64, 61
1, 508142, Control_c, 0, 64, 44
1, 508157, Control_c, 0, 64, 59
1, 508161, Note_off_c, 0, 76, 65
1, 508172, Control_c, 0, 64, 65
1, 508187, Control_c, 0, 64, 73
1, 508201, Control_c, 0, 64, 89
1, 508216, Control_c, 0, 64, 127
1, 508293, Note_off_c, 0, 52, 62
1, 508322, Note_off_c, 0, 40, 52
1, 508351, Note_on_c, 0, 80, 97
1, 508353, Note_on_c, 0, 68, 102
1, 508392, Note_off_c, 0, 68, 66
1, 508399, Note_off_c, 0, 80, 63
1, 508452, Note_on_c, 0, 54, 91
1, 508452, Note_on_c, 0, 66, 94
1, 508453, Note_on_c, 0, 75, 91
1, 508454, Note_on_c, 0, 78, 82
1, 508455, Note_on_c, 0, 42, 88
1, 508457, Note_on_c, 0, 71, 85
1, 508499, Control_c, 0, 64, 83
1, 508514, Control_c, 0, 64, 64
1, 508529, Control_c, 0, 64, 33
1, 508544, Control_c, 0, 64, 0
1, 508557, Note_off_c, 0, 66, 62
1, 508579, Note_off_c, 0, 54, 64
1, 508586, Note_off_c, 0, 78, 64
1, 508589, Note_off_c, 0, 71, 65
1, 508600, Note_off_c, 0, 75, 65
1, 508606, Note_off_c, 0, 42, 64
1, 508958, Note_on_c, 0, 42, 67
1, 508958, Note_on_c, 0, 54, 68
1, 508959, Note_on_c, 0, 78, 92
1, 508964, Note_on_c, 0, 70, 90
1, 508964, Note_on_c, 0, 66, 83
1, 508965, Note_on_c, 0, 73, 86
1, 509010, Control_c, 0, 64, 49
1, 509024, Control_c, 0, 64, 63
1, 509039, Control_c, 0, 64, 72
1, 509054, Control_c, 0, 64, 89
1, 509058, Note_off_c, 0, 66, 60
1, 509069, Control_c, 0, 64, 127
1, 509086, Note_off_c, 0, 78, 64
1, 509105, Note_off_c, 0, 70, 63
1, 509105, Note_off_c, 0, 73, 66
1, 509119, Note_off_c, 0, 42, 62
1, 509134, Note_off_c, 0, 54, 62
1, 509322, Control_c, 0, 64, 82
1, 509337, Control_c, 0, 64, 64
1, 509352, Control_c, 0, 64, 43
1, 509367, Control_c, 0, 64, 0
1, 509733, Note_on_c, 0, 54, 52
1, 509833, Control_c, 0, 67, 17
1, 509847, Control_c, 0, 67, 27
1, 509862, Control_c, 0, 67, 39
1, 509877, Control_c, 0, 67, 51
1, 509893, Control_c, 0, 67, 59
1, 509908, Control_c, 0, 67, 62
1, 509919, Note_on_c, 0, 56, 44
1, 509923, Control_c, 0, 67, 67
1, 509927, Note_on_c, 0, 53, 42
1, 509938, Control_c, 0, 67, 76
1, 509952, Control_c, 0, 67, 85
1, 509954, Note_off_c, 0, 54, 34
1, 509967, Control_c, 0, 67, 92
1, 509982, Control_c, 0, 67, 97
1, 509996, Control_c, 0, 67, 98
1, 510011, Control_c, 0, 67, 99
1, 510013, Note_on_c, 0, 71, 80
1, 510026, Control_c, 0, 67, 100
1, 510041, Note_on_c, 0, 68, 41
1, 510041, Control_c, 0, 67, 101
1, 510046, Note_on_c, 0, 62, 42
1, 510056, Control_c, 0, 67, 102
1, 510085, Control_c, 0, 64, 40
1, 510095, Note_off_c, 0, 56, 53
1, 510100, Control_c, 0, 64, 54
1, 510115, Control_c, 0, 64, 61
1, 510115, Control_c, 0, 67, 101
1, 510130, Control_c, 0, 64, 64
1, 510130, Control_c, 0, 67, 100
1, 510145, Control_c, 0, 64, 68
1, 510145, Control_c, 0, 67, 99
1, 510160, Control_c, 0, 64, 73
1, 510160, Control_c, 0, 67, 99
1, 510174, Control_c, 0, 64, 83
1, 510174, Control_c, 0, 67, 98
1, 510189, Control_c, 0, 64, 101
1, 510211, Control_c, 0, 64, 127
1, 510271, Control_c, 0, 67, 97
1, 510274, Note_off_c, 0, 68, 51
1, 510280, Note_off_c, 0, 62, 38
1, 510380, Note_off_c, 0, 53, 42
1, 510388, Note_on_c, 0, 52, 42
1, 510406, Note_on_c, 0, 58, 41
1, 510449, Control_c, 0, 64, 108
1, 510449, Control_c, 0, 67, 98
1, 510449, Note_on_c, 0, 73, 89
1, 510464, Control_c, 0, 64, 80
1, 510464, Control_c, 0, 67, 99
1, 510464, Note_on_c, 0, 67, 55
1, 510467, Note_off_c, 0, 71, 59
1, 510470, Note_on_c, 0, 64, 55
1, 510478, Control_c, 0, 64, 66
1, 510493, Control_c, 0, 64, 61
1, 510508, Control_c, 0, 64, 65
1, 510522, Control_c, 0, 64, 70
1, 510536, Note_off_c, 0, 58, 62
1, 510537, Control_c, 0, 64, 81
1, 510552, Control_c, 0, 64, 99
1, 510567, Control_c, 0, 64, 127
1, 510647, Note_off_c, 0, 52, 59
1, 510655, Note_off_c, 0, 64, 58
1, 510670, Control_c, 0, 67, 99
1, 510678, Note_off_c, 0, 67, 58
1, 510685, Control_c, 0, 67, 100
1, 510687, Note_on_c, 0, 58, 55
1, 510701, Control_c, 0, 67, 100
1, 510710, Note_off_c, 0, 73, 62
1, 510716, Control_c, 0, 67, 102
1, 510731, Control_c, 0, 67, 102
1, 510761, Control_c, 0, 67, 103
1, 510775, Control_c, 0, 64, 99
1, 510775, Control_c, 0, 67, 104
1, 510779, Note_on_c, 0, 63, 57
1, 510785, Note_on_c, 0, 75, 79
1, 510790, Control_c, 0, 64, 75
1, 510790, Control_c, 0, 67, 105
1, 510791, Note_on_c, 0, 70, 65
1, 510799, Note_on_c, 0, 51, 49
1, 510799, Note_on_c, 0, 67, 62
1, 510803, Note_off_c, 0, 58, 54
1, 510805, Control_c, 0, 64, 61
1, 510805, Control_c, 0, 67, 106
1, 510819, Control_c, 0, 64, 44
1, 510819, Control_c, 0, 67, 110
1, 510834, Control_c, 0, 64, 42
1, 510834, Control_c, 0, 67, 114
1, 510849, Control_c, 0, 64, 51
1, 510849, Control_c, 0, 67, 115
1, 510864, Control_c, 0, 64, 60
1, 510864, Control_c, 0, 67, 115
1, 510879, Control_c, 0, 64, 65
1, 510893, Control_c, 0, 64, 71
1, 510903, Note_off_c, 0, 63, 54
1, 510908, Control_c, 0, 64, 81
1, 510923, Control_c, 0, 64, 101
1, 510946, Control_c, 0, 64, 127
1, 510989, Note_off_c, 0, 67, 59
1, 511018, Note_off_c, 0, 75, 57
1, 511071, Note_off_c, 0, 70, 60
1, 511108, Control_c, 0, 64, 94
1, 511114, Note_on_c, 0, 75, 84
1, 511120, Note_on_c, 0, 56, 42
1, 511123, Control_c, 0, 64, 72
1, 511125, Note_on_c, 0, 60, 45
1, 511134, Note_on_c, 0, 66, 51
1, 511137, Note_on_c, 0, 68, 54
1, 511138, Control_c, 0, 64, 59
1, 511138, Control_c, 0, 67, 116
1, 511152, Control_c, 0, 64, 54
1, 511160, Note_off_c, 0, 51, 35
1, 511167, Control_c, 0, 64, 59
1, 511182, Control_c, 0, 64, 64
1, 511197, Control_c, 0, 64, 69
1, 511212, Control_c, 0, 64, 76
1, 511221, Note_off_c, 0, 60, 53
1, 511226, Note_off_c, 0, 56, 62
1, 511227, Control_c, 0, 64, 87
1, 511242, Control_c, 0, 64, 102
1, 511256, Control_c, 0, 64, 127
1, 511304, Note_off_c, 0, 75, 62
1, 511333, Note_off_c, 0, 66, 39
1, 511340, Note_off_c, 0, 68, 54
1, 511360, Control_c, 0, 67, 117
1, 511370, Note_on_c, 0, 44, 49
1, 511390, Control_c, 0, 67, 117
1, 511419, Control_c, 0, 67, 118
1, 511434, Control_c, 0, 67, 119
1, 511435, Note_off_c, 0, 44, 58
1, 511449, Control_c, 0, 67, 121
1, 511464, Control_c, 0, 67, 127
1, 511539, Control_c, 0, 64, 109
1, 511554, Control_c, 0, 64, 96
1, 511560, Note_on_c, 0, 61, 46
1, 511565, Note_on_c, 0, 78, 68
1, 511566, Note_on_c, 0, 49, 40
1, 511568, Control_c, 0, 64, 83
1, 511580, Note_on_c, 0, 73, 55
1, 511583, Control_c, 0, 64, 71
1, 511592, Note_on_c, 0, 68, 41
1, 511598, Control_c, 0, 64, 62
1, 511601, Note_on_c, 0, 66, 41
1, 511613, Control_c, 0, 64, 56
1, 511628, Control_c, 0, 64, 57
1, 511642, Control_c, 0, 64, 61
1, 511657, Control_c, 0, 64, 65
1, 511672, Control_c, 0, 64, 70
1, 511695, Control_c, 0, 64, 78
1, 511710, Control_c, 0, 64, 95
1, 511717, Note_off_c, 0, 66, 62
1, 511719, Note_off_c, 0, 78, 65
1, 511724, Control_c, 0, 64, 127
1, 511778, Note_off_c, 0, 61, 50
1, 511784, Note_on_c, 0, 76, 76
1, 511791, Note_on_c, 0, 64, 63
1, 511826, Note_off_c, 0, 73, 59
1, 511834, Note_off_c, 0, 64, 60
1, 511836, Note_off_c, 0, 68, 56
1, 511933, Note_on_c, 0, 75, 80
1, 511947, Note_on_c, 0, 51, 45
1, 511949, Note_on_c, 0, 63, 58
1, 511980, Note_off_c, 0, 76, 53
1, 512004, Note_off_c, 0, 63, 61
1, 512043, Note_off_c, 0, 49, 35
1, 512050, Note_off_c, 0, 75, 58
1, 512054, Note_off_c, 0, 51, 56
1, 512081, Note_on_c, 0, 73, 80
1, 512095, Note_on_c, 0, 61, 64
1, 512100, Note_on_c, 0, 52, 48
1, 512168, Control_c, 0, 64, 120
1, 512169, Note_off_c, 0, 61, 60
1, 512183, Control_c, 0, 64, 106
1, 512187, Note_off_c, 0, 73, 62
1, 512198, Control_c, 0, 64, 96
1, 512213, Control_c, 0, 64, 88
1, 512227, Note_off_c, 0, 52, 51
1, 512228, Control_c, 0, 64, 82
1, 512242, Control_c, 0, 64, 75
1, 512257, Note_on_c, 0, 71, 77
1, 512257, Control_c, 0, 64, 66
1, 512272, Control_c, 0, 64, 54
1, 512275, Note_on_c, 0, 66, 50
1, 512276, Note_on_c, 0, 54, 46
1, 512276, Note_on_c, 0, 63, 44
1, 512287, Control_c, 0, 64, 0
1, 512362, Control_c, 0, 64, 46
1, 512377, Control_c, 0, 64, 60
1, 512391, Control_c, 0, 64, 65
1, 512406, Control_c, 0, 64, 70
1, 512421, Control_c, 0, 64, 78
1, 512436, Control_c, 0, 64, 96
1, 512458, Control_c, 0, 64, 127
1, 512462, Note_off_c, 0, 63, 59
1, 512488, Note_off_c, 0, 54, 54
1, 512504, Note_off_c, 0, 66, 50
1, 512598, Note_on_c, 0, 70, 71
1, 512606, Control_c, 0, 64, 102
1, 512610, Note_on_c, 0, 54, 45
1, 512611, Note_off_c, 0, 71, 57
1, 512621, Note_on_c, 0, 66, 53
1, 512621, Control_c, 0, 64, 76
1, 512625, Note_on_c, 0, 61, 46
1, 512636, Control_c, 0, 64, 63
1, 512651, Control_c, 0, 64, 53
1, 512661, Note_off_c, 0, 54, 60
1, 512665, Control_c, 0, 64, 54
1, 512680, Control_c, 0, 64, 61
1, 512695, Control_c, 0, 64, 65
1, 512710, Control_c, 0, 64, 71
1, 512725, Control_c, 0, 64, 82
1, 512739, Control_c, 0, 64, 98
1, 512754, Control_c, 0, 64, 127
1, 512830, Note_off_c, 0, 61, 56
1, 512842, Note_on_c, 0, 54, 53
1, 512900, Note_off_c, 0, 66, 53
1, 512911, Note_off_c, 0, 70, 52
1, 512925, Note_off_c, 0, 54, 43
1, 512932, Control_c, 0, 64, 117
1, 512942, Note_on_c, 0, 71, 67
1, 512947, Control_c, 0, 64, 97
1, 512950, Note_on_c, 0, 68, 53
1, 512956, Note_on_c, 0, 56, 48
1, 512962, Control_c, 0, 64, 81
1, 512966, Note_on_c, 0, 53, 42
1, 512970, Note_on_c, 0, 62, 46
1, 512976, Control_c, 0, 64, 67
1, 512991, Control_c, 0, 64, 46
1, 513006, Control_c, 0, 64, 0
1, 513051, Control_c, 0, 64, 30
1, 513063, Note_off_c, 0, 56, 56
1, 513065, Control_c, 0, 64, 51
1, 513080, Control_c, 0, 64, 61
1, 513096, Control_c, 0, 64, 67
1, 513111, Control_c, 0, 64, 72
1, 513126, Control_c, 0, 64, 80
1, 513131, Note_off_c, 0, 62, 57
1, 513138, Note_off_c, 0, 68, 59
1, 513140, Control_c, 0, 64, 90
1, 513155, Control_c, 0, 64, 102
1, 513170, Control_c, 0, 64, 111
1, 513185, Control_c, 0, 64, 110
1, 513207, Control_c, 0, 64, 109
1, 513286, Note_off_c, 0, 53, 43
1, 513288, Note_on_c, 0, 52, 45
1, 513295, Note_on_c, 0, 58, 41
1, 513301, Note_on_c, 0, 73, 71
1, 513316, Note_on_c, 0, 67, 50
1, 513317, Note_on_c, 0, 64, 54
1, 513323, Note_off_c, 0, 71, 51
1, 513340, Control_c, 0, 64, 110
1, 513355, Note_off_c, 0, 58, 56
1, 513355, Control_c, 0, 64, 111
1, 513370, Control_c, 0, 64, 113
1, 513385, Control_c, 0, 64, 120
1, 513400, Control_c, 0, 64, 127
1, 513451, Note_off_c, 0, 52, 50
1, 513473, Note_off_c, 0, 64, 52
1, 513504, Note_off_c, 0, 67, 57
1, 513545, Note_on_c, 0, 58, 54
1, 513553, Note_off_c, 0, 73, 60
1, 513636, Control_c, 0, 64, 120
1, 513649, Note_on_c, 0, 75, 70
1, 513651, Control_c, 0, 64, 101
1, 513662, Note_on_c, 0, 63, 39
1, 513662, Note_on_c, 0, 70, 57
1, 513664, Note_on_c, 0, 67, 50
1, 513665, Note_on_c, 0, 51, 46
1, 513666, Control_c, 0, 64, 85
1, 513681, Control_c, 0, 64, 69
1, 513695, Control_c, 0, 64, 57
1, 513710, Control_c, 0, 64, 37
1, 513713, Note_off_c, 0, 58, 30
1, 513725, Control_c, 0, 64, 35
1, 513740, Control_c, 0, 64, 48
1, 513754, Control_c, 0, 64, 59
1, 513769, Control_c, 0, 64, 65
1, 513784, Control_c, 0, 64, 71
1, 513799, Control_c, 0, 64, 81
1, 513807, Note_off_c, 0, 63, 53
1, 513814, Control_c, 0, 64, 101
1, 513829, Control_c, 0, 64, 127
1, 513842, Note_off_c, 0, 67, 54
1, 513892, Note_off_c, 0, 75, 52
1, 513926, Note_off_c, 0, 70, 59
1, 514046, Note_on_c, 0, 56, 38
1, 514050, Note_on_c, 0, 75, 70
1, 514059, Control_c, 0, 64, 95
1, 514061, Note_on_c, 0, 60, 40
1, 514074, Control_c, 0, 64, 74
1, 514075, Note_on_c, 0, 68, 52
1, 514082, Note_off_c, 0, 51, 36
1, 514089, Note_on_c, 0, 66, 40
1, 514089, Control_c, 0, 64, 62
1, 514104, Control_c, 0, 64, 53
1, 514118, Control_c, 0, 64, 58
1, 514133, Control_c, 0, 64, 64
1, 514148, Control_c, 0, 64, 70
1, 514163, Control_c, 0, 64, 79
1, 514170, Note_off_c, 0, 60, 56
1, 514178, Control_c, 0, 64, 96
1, 514184, Note_off_c, 0, 56, 54
1, 514193, Control_c, 0, 64, 127
1, 514259, Note_off_c, 0, 75, 61
1, 514272, Note_off_c, 0, 66, 48
1, 514294, Note_off_c, 0, 68, 52
1, 514323, Note_on_c, 0, 44, 52
1, 514367, Note_off_c, 0, 44, 58
1, 514533, Control_c, 0, 64, 110
1, 514543, Note_on_c, 0, 49, 37
1, 514548, Control_c, 0, 64, 98
1, 514554, Note_on_c, 0, 61, 38
1, 514562, Control_c, 0, 64, 87
1, 514566, Note_on_c, 0, 78, 63
1, 514569, Note_on_c, 0, 73, 51
1, 514577, Control_c, 0, 64, 74
1, 514581, Note_on_c, 0, 66, 41
1, 514581, Note_on_c, 0, 68, 37
1, 514592, Control_c, 0, 64, 64
1, 514607, Control_c, 0, 64, 52
1, 514622, Control_c, 0, 64, 41
1, 514637, Control_c, 0, 64, 45
1, 514652, Control_c, 0, 64, 54
1, 514667, Control_c, 0, 64, 60
1, 514690, Control_c, 0, 64, 65
1, 514705, Control_c, 0, 64, 69
1, 514713, Note_off_c, 0, 66, 60
1, 514720, Control_c, 0, 64, 75
1, 514734, Note_off_c, 0, 78, 65
1, 514735, Control_c, 0, 64, 83
1, 514749, Control_c, 0, 64, 89
1, 514764, Control_c, 0, 64, 93
1, 514779, Control_c, 0, 64, 95
1, 514793, Control_c, 0, 64, 96
1, 514808, Control_c, 0, 64, 97
1, 514810, Note_on_c, 0, 76, 72
1, 514819, Note_on_c, 0, 64, 55
1, 514823, Control_c, 0, 64, 101
1, 514838, Control_c, 0, 64, 107
1, 514851, Note_off_c, 0, 61, 35
1, 514853, Control_c, 0, 64, 111
1, 514860, Note_off_c, 0, 64, 60
1, 514863, Note_off_c, 0, 73, 42
1, 514867, Control_c, 0, 64, 112
1, 514882, Control_c, 0, 64, 112
1, 514893, Note_off_c, 0, 68, 37
1, 514927, Control_c, 0, 64, 113
1, 514941, Control_c, 0, 64, 114
1, 514956, Control_c, 0, 64, 115
1, 514971, Control_c, 0, 64, 122
1, 514977, Note_on_c, 0, 75, 78
1, 514980, Note_on_c, 0, 51, 49
1, 514986, Control_c, 0, 64, 127
1, 514995, Note_on_c, 0, 63, 60
1, 515020, Note_off_c, 0, 49, 31
1, 515028, Note_off_c, 0, 76, 47
1, 515038, Note_off_c, 0, 63, 51
1, 515099, Note_off_c, 0, 75, 56
1, 515101, Note_off_c, 0, 51, 52
1, 515105, Control_c, 0, 64, 110
1, 515120, Control_c, 0, 64, 96
1, 515133, Note_on_c, 0, 73, 79
1, 515135, Control_c, 0, 64, 80
1, 515145, Note_on_c, 0, 52, 49
1, 515149, Control_c, 0, 64, 72
1, 515153, Note_on_c, 0, 61, 50
1, 515179, Control_c, 0, 64, 77
1, 515193, Control_c, 0, 64, 84
1, 515208, Control_c, 0, 64, 92
1, 515209, Note_off_c, 0, 61, 45
1, 515223, Control_c, 0, 64, 100
1, 515238, Control_c, 0, 64, 102
1, 515267, Control_c, 0, 64, 100
1, 515272, Note_off_c, 0, 73, 53
1, 515282, Control_c, 0, 64, 99
1, 515297, Control_c, 0, 64, 97
1, 515312, Control_c, 0, 64, 95
1, 515327, Control_c, 0, 64, 91
1, 515340, Note_on_c, 0, 71, 63
1, 515341, Control_c, 0, 64, 86
1, 515354, Note_on_c, 0, 54, 46
1, 515356, Control_c, 0, 64, 80
1, 515359, Note_on_c, 0, 66, 52
1, 515371, Control_c, 0, 64, 72
1, 515383, Note_on_c, 0, 63, 27
1, 515385, Control_c, 0, 64, 64
1, 515400, Control_c, 0, 64, 50
1, 515415, Control_c, 0, 64, 0
1, 515416, Note_off_c, 0, 52, 28
1, 515482, Control_c, 0, 64, 34
1, 515498, Control_c, 0, 64, 55
1, 515513, Control_c, 0, 64, 64
1, 515528, Control_c, 0, 64, 69
1, 515543, Control_c, 0, 64, 75
1, 515543, Note_off_c, 0, 63, 50
1, 515556, Note_off_c, 0, 66, 56
1, 515558, Control_c, 0, 64, 83
1, 515570, Note_off_c, 0, 54, 57
1, 515572, Control_c, 0, 64, 89
1, 515587, Control_c, 0, 64, 92
1, 515646, Control_c, 0, 64, 92
1, 515661, Control_c, 0, 64, 91
1, 515676, Control_c, 0, 64, 89
1, 515690, Control_c, 0, 64, 88
1, 515705, Control_c, 0, 64, 87
1, 515735, Control_c, 0, 64, 86
1, 515750, Control_c, 0, 64, 84
1, 515751, Note_on_c, 0, 70, 65
1, 515764, Control_c, 0, 64, 79
1, 515767, Note_on_c, 0, 66, 47
1, 515772, Note_on_c, 0, 54, 43
1, 515777, Note_off_c, 0, 71, 52
1, 515779, Control_c, 0, 64, 70
1, 515782, Note_on_c, 0, 61, 42
1, 515794, Control_c, 0, 64, 61
1, 515809, Control_c, 0, 64, 58
1, 515823, Control_c, 0, 64, 60
1, 515838, Control_c, 0, 64, 64
1, 515853, Control_c, 0, 64, 67
1, 515868, Control_c, 0, 64, 72
1, 515883, Control_c, 0, 64, 80
1, 515886, Note_off_c, 0, 54, 54
1, 515898, Control_c, 0, 64, 89
1, 515913, Control_c, 0, 64, 95
1, 515928, Control_c, 0, 64, 99
1, 515942, Control_c, 0, 64, 100
1, 515956, Note_off_c, 0, 66, 59
1, 515957, Control_c, 0, 64, 101
1, 515960, Note_off_c, 0, 61, 54
1, 515972, Control_c, 0, 64, 103
1, 515982, Note_off_c, 0, 70, 57
1, 515987, Control_c, 0, 64, 111
1, 516002, Control_c, 0, 64, 127
1, 516044, Note_on_c, 0, 54, 39
1, 516150, Control_c, 0, 64, 125
1, 516164, Control_c, 0, 64, 108
1, 516179, Control_c, 0, 64, 99
1, 516201, Control_c, 0, 64, 90
1, 516204, Note_on_c, 0, 71, 52
1, 516215, Control_c, 0, 64, 82
1, 516223, Note_on_c, 0, 66, 43
1, 516230, Control_c, 0, 64, 76
1, 516231, Note_on_c, 0, 63, 39
1, 516237, Note_on_c, 0, 47, 33
1, 516243, Note_on_c, 0, 59, 35
1, 516245, Control_c, 0, 64, 71
1, 516260, Control_c, 0, 64, 66
1, 516275, Control_c, 0, 64, 60
1, 516291, Control_c, 0, 64, 40
1, 516302, Note_off_c, 0, 54, 32
1, 516306, Control_c, 0, 64, 0
1, 516335, Control_c, 0, 64, 24
1, 516350, Control_c, 0, 64, 49
1, 516365, Control_c, 0, 64, 60
1, 516380, Control_c, 0, 64, 64
1, 516394, Control_c, 0, 64, 68
1, 516409, Control_c, 0, 64, 74
1, 516424, Control_c, 0, 64, 81
1, 516438, Control_c, 0, 64, 91
1, 516453, Control_c, 0, 64, 102
1, 516468, Control_c, 0, 64, 111
1, 516470, Note_off_c, 0, 63, 32
1, 516475, Note_off_c, 0, 59, 52
1, 516483, Control_c, 0, 64, 114
1, 516527, Control_c, 0, 64, 117
1, 516542, Control_c, 0, 64, 127
1, 516575, Note_on_c, 0, 68, 66
1, 516581, Note_off_c, 0, 66, 59
1, 516586, Note_on_c, 0, 64, 58
1, 516598, Note_off_c, 0, 71, 39
1, 516609, Note_on_c, 0, 59, 49
1, 516780, Note_off_c, 0, 59, 56
1, 516802, Note_off_c, 0, 64, 57
1, 516820, Note_off_c, 0, 47, 40
1, 516827, Note_on_c, 0, 52, 48
1, 516898, Control_c, 0, 64, 116
1, 516912, Control_c, 0, 64, 99
1, 516919, Note_off_c, 0, 52, 55
1, 516920, Note_on_c, 0, 66, 69
1, 516927, Control_c, 0, 64, 85
1, 516940, Note_on_c, 0, 63, 56
1, 516949, Note_on_c, 0, 47, 40
1, 516950, Control_c, 0, 64, 71
1, 516955, Note_on_c, 0, 59, 38
1, 516964, Control_c, 0, 64, 60
1, 516975, Note_off_c, 0, 68, 53
1, 516979, Control_c, 0, 64, 42
1, 516994, Control_c, 0, 64, 38
1, 517009, Control_c, 0, 64, 48
1, 517024, Control_c, 0, 64, 58
1, 517038, Control_c, 0, 64, 64
1, 517053, Control_c, 0, 64, 68
1, 517068, Control_c, 0, 64, 77
1, 517079, Note_off_c, 0, 63, 62
1, 517083, Control_c, 0, 64, 90
1, 517092, Note_off_c, 0, 59, 58
1, 517095, Note_off_c, 0, 66, 64
1, 517099, Control_c, 0, 64, 117
1, 517114, Control_c, 0, 64, 127
1, 517160, Note_off_c, 0, 47, 62
1, 517247, Control_c, 0, 64, 117
1, 517261, Control_c, 0, 64, 113
1, 517270, Note_on_c, 0, 64, 69
1, 517276, Control_c, 0, 64, 110
1, 517291, Control_c, 0, 64, 106
1, 517297, Note_on_c, 0, 56, 54
1, 517302, Note_on_c, 0, 59, 56
1, 517306, Control_c, 0, 64, 102
1, 517321, Control_c, 0, 64, 100
1, 517335, Control_c, 0, 64, 97
1, 517350, Control_c, 0, 64, 96
1, 517365, Control_c, 0, 64, 96
1, 517424, Control_c, 0, 64, 96
1, 517466, Note_off_c, 0, 56, 62
1, 517484, Control_c, 0, 64, 95
1, 517498, Control_c, 0, 64, 94
1, 517501, Note_off_c, 0, 59, 39
1, 517513, Control_c, 0, 64, 92
1, 517528, Control_c, 0, 64, 90
1, 517529, Note_on_c, 0, 47, 37
1, 517543, Control_c, 0, 64, 88
1, 517558, Control_c, 0, 64, 85
1, 517573, Control_c, 0, 64, 83
1, 517587, Control_c, 0, 64, 80
1, 517602, Control_c, 0, 64, 78
1, 517617, Control_c, 0, 64, 76
1, 517624, Note_off_c, 0, 64, 64
1, 517625, Note_on_c, 0, 59, 59
1, 517630, Note_on_c, 0, 63, 67
1, 517632, Control_c, 0, 64, 74
1, 517647, Control_c, 0, 64, 70
1, 517661, Note_on_c, 0, 54, 43
1, 517661, Control_c, 0, 64, 61
1, 517676, Control_c, 0, 64, 37
1, 517698, Control_c, 0, 64, 0
1, 517758, Control_c, 0, 64, 48
1, 517773, Control_c, 0, 64, 61
1, 517787, Control_c, 0, 64, 65
1, 517802, Control_c, 0, 64, 70
1, 517817, Control_c, 0, 64, 76
1, 517832, Control_c, 0, 64, 85
1, 517835, Note_off_c, 0, 59, 62
1, 517847, Control_c, 0, 64, 97
1, 517852, Note_off_c, 0, 63, 59
1, 517853, Note_off_c, 0, 54, 55
1, 517861, Control_c, 0, 64, 105
1, 517876, Control_c, 0, 64, 108
1, 517907, Control_c, 0, 64, 108
1, 517922, Control_c, 0, 64, 107
1, 517927, Note_off_c, 0, 47, 37
1, 517937, Control_c, 0, 64, 105
1, 517952, Control_c, 0, 64, 103
1, 517966, Control_c, 0, 64, 100
1, 517981, Control_c, 0, 64, 99
1, 517996, Control_c, 0, 64, 97
1, 518011, Control_c, 0, 64, 96
1, 518014, Note_on_c, 0, 59, 67
1, 518026, Control_c, 0, 64, 93
1, 518032, Note_on_c, 0, 56, 50
1, 518039, Note_on_c, 0, 52, 44
1, 518040, Control_c, 0, 64, 90
1, 518055, Control_c, 0, 64, 87
1, 518070, Control_c, 0, 64, 85
1, 518084, Control_c, 0, 64, 84
1, 518099, Control_c, 0, 64, 81
1, 518114, Control_c, 0, 64, 76
1, 518129, Control_c, 0, 64, 71
1, 518144, Control_c, 0, 64, 70
1, 518158, Control_c, 0, 64, 72
1, 518173, Control_c, 0, 64, 74
1, 518188, Control_c, 0, 64, 77
1, 518203, Control_c, 0, 64, 80
1, 518217, Control_c, 0, 64, 82
1, 518232, Control_c, 0, 64, 82
1, 518277, Control_c, 0, 64, 83
1, 518289, Note_off_c, 0, 59, 58
1, 518290, Note_on_c, 0, 47, 35
1, 518291, Control_c, 0, 64, 86
1, 518300, Note_off_c, 0, 56, 61
1, 518306, Control_c, 0, 64, 90
1, 518321, Control_c, 0, 64, 92
1, 518336, Control_c, 0, 64, 93
1, 518381, Control_c, 0, 64, 93
1, 518396, Control_c, 0, 64, 92
1, 518410, Control_c, 0, 64, 90
1, 518432, Control_c, 0, 64, 89
1, 518446, Control_c, 0, 64, 87
1, 518450, Note_on_c, 0, 59, 55
1, 518461, Control_c, 0, 64, 85
1, 518476, Control_c, 0, 64, 81
1, 518481, Note_on_c, 0, 54, 41
1, 518485, Note_on_c, 0, 51, 42
1, 518491, Control_c, 0, 64, 73
1, 518506, Note_off_c, 0, 52, 36
1, 518506, Control_c, 0, 64, 64
1, 518521, Control_c, 0, 64, 50
1, 518536, Control_c, 0, 64, 26
1, 518551, Control_c, 0, 64, 25
1, 518565, Control_c, 0, 64, 39
1, 518580, Control_c, 0, 64, 53
1, 518595, Control_c, 0, 64, 61
1, 518609, Control_c, 0, 64, 65
1, 518624, Control_c, 0, 64, 69
1, 518639, Control_c, 0, 64, 73
1, 518654, Control_c, 0, 64, 77
1, 518669, Control_c, 0, 64, 80
1, 518685, Control_c, 0, 64, 81
1, 518689, Note_off_c, 0, 47, 54
1, 518706, Note_off_c, 0, 51, 40
1, 518744, Control_c, 0, 64, 81
1, 518818, Control_c, 0, 64, 82
1, 518832, Control_c, 0, 64, 82
1, 518892, Control_c, 0, 64, 82
1, 518906, Control_c, 0, 64, 81
1, 518914, Note_off_c, 0, 54, 42
1, 518921, Control_c, 0, 64, 81
1, 518923, Note_on_c, 0, 52, 41
1, 518931, Note_on_c, 0, 56, 63
1, 518942, Note_off_c, 0, 59, 39
1, 518951, Control_c, 0, 64, 80
1, 518952, Note_on_c, 0, 47, 35
1, 518966, Control_c, 0, 64, 79
1, 518980, Control_c, 0, 64, 77
1, 518995, Control_c, 0, 64, 76
1, 519010, Control_c, 0, 64, 75
1, 519040, Control_c, 0, 64, 74
1, 519055, Control_c, 0, 64, 70
1, 519069, Control_c, 0, 64, 66
1, 519084, Control_c, 0, 64, 64
1, 519114, Control_c, 0, 64, 65
1, 519129, Control_c, 0, 64, 65
1, 519144, Control_c, 0, 64, 67
1, 519159, Control_c, 0, 64, 70
1, 519174, Control_c, 0, 64, 74
1, 519196, Control_c, 0, 64, 78
1, 519211, Control_c, 0, 64, 80
1, 519226, Control_c, 0, 64, 80
1, 519240, Control_c, 0, 64, 82
1, 519255, Control_c, 0, 64, 85
1, 519270, Control_c, 0, 64, 89
1, 519285, Control_c, 0, 64, 91
1, 519296, Note_on_c, 0, 40, 41
1, 519314, Control_c, 0, 64, 91
1, 519380, Note_off_c, 0, 47, 37
1, 519383, Note_off_c, 0, 52, 43
1, 519448, Control_c, 0, 64, 90
1, 519463, Control_c, 0, 64, 90
1, 519478, Control_c, 0, 64, 89
1, 519493, Control_c, 0, 64, 88
1, 519508, Control_c, 0, 64, 87
1, 519523, Control_c, 0, 64, 86
1, 519537, Control_c, 0, 64, 84
1, 519552, Control_c, 0, 64, 83
1, 519567, Control_c, 0, 64, 82
1, 519582, Control_c, 0, 64, 80
1, 519594, Note_off_c, 0, 56, 54
1, 519596, Note_on_c, 0, 54, 50
1, 519597, Control_c, 0, 64, 78
1, 519612, Note_on_c, 0, 35, 28
1, 519612, Control_c, 0, 64, 74
1, 519614, Note_on_c, 0, 47, 37
1, 519615, Note_on_c, 0, 51, 45
1, 519627, Control_c, 0, 64, 71
1, 519642, Control_c, 0, 64, 68
1, 519656, Control_c, 0, 64, 65
1, 519671, Control_c, 0, 64, 62
1, 519686, Control_c, 0, 64, 58
1, 519701, Control_c, 0, 64, 48
1, 519706, Note_off_c, 0, 40, 43
1, 519716, Control_c, 0, 64, 23
1, 519730, Control_c, 0, 64, 0
1, 519819, Control_c, 0, 64, 31
1, 519834, Control_c, 0, 64, 50
1, 519849, Control_c, 0, 64, 58
1, 519863, Control_c, 0, 64, 62
1, 519878, Control_c, 0, 64, 64
1, 519893, Control_c, 0, 64, 66
1, 519908, Control_c, 0, 64, 69
1, 519923, Control_c, 0, 64, 73
1, 519945, Control_c, 0, 64, 80
1, 519960, Control_c, 0, 64, 92
1, 519975, Control_c, 0, 64, 119
1, 519990, Control_c, 0, 64, 127
1, 520167, Note_off_c, 0, 47, 36
1, 520175, Note_off_c, 0, 35, 36
1, 520189, Note_off_c, 0, 54, 36
1, 520195, Note_off_c, 0, 51, 33
1, 520582, Note_on_c, 0, 54, 50
1, 520587, Note_on_c, 0, 51, 43
1, 520588, Note_on_c, 0, 35, 25
1, 520598, Note_on_c, 0, 47, 23
1, 520614, Note_on_c, 0, 42, 17
1, 520877, Note_off_c, 0, 42, 42
1, 520884, Note_off_c, 0, 35, 37
1, 520893, Note_off_c, 0, 54, 50
1, 520900, Note_off_c, 0, 47, 39
1, 520930, Note_off_c, 0, 51, 33
1, 521092, Note_on_c, 0, 51, 42
1, 521096, Note_on_c, 0, 54, 43
1, 521103, Note_on_c, 0, 42, 24
1, 521118, Note_on_c, 0, 35, 16
1, 521127, Note_on_c, 0, 47, 14
1, 521374, Note_off_c, 0, 42, 41
1, 521377, Note_off_c, 0, 35, 37
1, 521383, Note_off_c, 0, 54, 34
1, 521406, Note_off_c, 0, 47, 33
1, 521408, Note_off_c, 0, 51, 30
1, 521704, Note_on_c, 0, 51, 38
1, 521704, Note_on_c, 0, 54, 39
1, 521728, Note_on_c, 0, 42, 17
1, 521730, Note_on_c, 0, 47, 23
1, 521737, Note_on_c, 0, 35, 23
1, 521947, Control_c, 0, 64, 122
1, 521962, Control_c, 0, 64, 115
1, 521977, Control_c, 0, 64, 115
1, 522036, Control_c, 0, 64, 114
1, 522050, Control_c, 0, 64, 113
1, 522460, Note_off_c, 0, 42, 41
1, 522463, Note_off_c, 0, 35, 37
1, 522478, Note_off_c, 0, 47, 36
1, 522480, Note_off_c, 0, 51, 37
1, 522569, Note_off_c, 0, 54, 30
1, 523029, Control_c, 0, 64, 114
1, 523490, Control_c, 0, 64, 113
1, 523504, Control_c, 0, 64, 112
1, 523519, Control_c, 0, 64, 112
1, 523549, Control_c, 0, 64, 110
1, 523550, Note_on_c, 0, 42, 29
1, 523564, Control_c, 0, 64, 109
1, 523566, Note_on_c, 0, 59, 44
1, 523576, Note_on_c, 0, 35, 25
1, 523578, Control_c, 0, 64, 107
1, 523582, Note_on_c, 0, 51, 36
1, 523593, Control_c, 0, 64, 105
1, 523608, Control_c, 0, 64, 101
1, 523623, Control_c, 0, 64, 96
1, 523638, Control_c, 0, 64, 91
1, 523652, Control_c, 0, 64, 84
1, 523667, Control_c, 0, 64, 72
1, 523690, Control_c, 0, 64, 63
1, 523704, Control_c, 0, 64, 53
1, 523719, Control_c, 0, 64, 56
1, 523734, Control_c, 0, 64, 62
1, 523749, Control_c, 0, 64, 66
1, 523764, Control_c, 0, 64, 70
1, 523778, Control_c, 0, 64, 74
1, 523793, Control_c, 0, 64, 79
1, 523808, Control_c, 0, 64, 83
1, 523823, Control_c, 0, 64, 87
1, 523838, Control_c, 0, 64, 90
1, 523852, Control_c, 0, 64, 94
1, 523867, Control_c, 0, 64, 98
1, 523882, Control_c, 0, 64, 102
1, 523896, Control_c, 0, 64, 112
1, 523911, Control_c, 0, 64, 127
1, 523940, Note_off_c, 0, 35, 39
1, 523968, Note_off_c, 0, 51, 39
1, 523973, Note_off_c, 0, 59, 32
1, 524019, Note_off_c, 0, 42, 41
1, 525805, Note_on_c, 0, 71, 42
1, 525828, Note_on_c, 0, 47, 22
1, 525829, Note_on_c, 0, 54, 27
1, 525833, Note_on_c, 0, 63, 27
1, 528313, Note_off_c, 0, 63, 31
1, 528356, Note_off_c, 0, 71, 38
1, 528962, Note_off_c, 0, 47, 1
1, 529225, Note_off_c, 0, 54, 1
1, 529537, Control_c, 0, 64, 122
1, 529552, Control_c, 0, 64, 120
1, 529567, Control_c, 0, 64, 119
1, 529582, Control_c, 0, 64, 117
1, 529611, Control_c, 0, 64, 116
1, 529626, Control_c, 0, 64, 115
1, 529641, Control_c, 0, 64, 114
1, 529656, Control_c, 0, 64, 113
1, 529678, Control_c, 0, 64, 112
1, 529693, Control_c, 0, 64, 111
1, 529708, Control_c, 0, 64, 110
1, 529722, Control_c, 0, 64, 110
1, 529737, Control_c, 0, 64, 109
1, 529752, Control_c, 0, 64, 107
1, 529767, Control_c, 0, 64, 106
1, 529782, Control_c, 0, 64, 104
1, 529796, Control_c, 0, 64, 104
1, 529811, Control_c, 0, 64, 103
1, 529826, Control_c, 0, 64, 102
1, 529840, Control_c, 0, 64, 101
1, 529855, Control_c, 0, 64, 100
1, 529872, Control_c, 0, 64, 99
1, 529916, Control_c, 0, 64, 99
1, 529931, Control_c, 0, 64, 98
1, 529945, Control_c, 0, 64, 97
1, 529960, Control_c, 0, 64, 96
1, 529975, Control_c, 0, 64, 95
1, 530019, Control_c, 0, 64, 95
1, 530034, Control_c, 0, 64, 94
1, 530049, Control_c, 0, 64, 94
1, 530064, Control_c, 0, 64, 93
1, 530093, Control_c, 0, 64, 92
1, 530108, Control_c, 0, 64, 92
1, 530123, Control_c, 0, 64, 91
1, 530138, Control_c, 0, 64, 90
1, 530152, Control_c, 0, 64, 89
1, 530167, Control_c, 0, 64, 88
1, 530182, Control_c, 0, 64, 87
1, 530197, Control_c, 0, 64, 86
1, 530212, Control_c, 0, 64, 85
1, 530227, Control_c, 0, 64, 84
1, 530257, Control_c, 0, 64, 83
1, 530345, Control_c, 0, 64, 83
1, 530375, Control_c, 0, 64, 82
1, 530471, Control_c, 0, 64, 82
1, 530590, Control_c, 0, 64, 81
1, 530665, Control_c, 0, 64, 81
1, 530695, Control_c, 0, 64, 80
1, 530739, Control_c, 0, 64, 80
1, 530828, Control_c, 0, 64, 79
1, 530946, Control_c, 0, 64, 79
1, 531005, Control_c, 0, 64, 78
1, 531094, Control_c, 0, 64, 78
1, 531354, Control_c, 0, 64, 77
1, 531398, Control_c, 0, 64, 77
1, 531428, Control_c, 0, 64, 76
1, 531458, Control_c, 0, 64, 76
1, 531725, Control_c, 0, 64, 75
1, 531925, Control_c, 0, 64, 75
1, 532206, Control_c, 0, 64, 74
1, 532236, Control_c, 0, 64, 74
1, 532355, Control_c, 0, 64, 73
1, 532489, Control_c, 0, 64, 73
1, 532519, Control_c, 0, 64, 72
1, 532563, Control_c, 0, 64, 72
1, 532607, Control_c, 0, 64, 71
1, 532637, Control_c, 0, 64, 71
1, 532703, Control_c, 0, 64, 70
1, 532733, Control_c, 0, 64, 70
1, 532836, Control_c, 0, 64, 69
1, 532910, Control_c, 0, 64, 69
1, 533029, Control_c, 0, 64, 68
1, 533104, Control_c, 0, 64, 68
1, 533148, Control_c, 0, 64, 67
1, 533178, Control_c, 0, 64, 67
1, 533208, Control_c, 0, 64, 66
1, 533267, Control_c, 0, 64, 66
1, 533497, Control_c, 0, 64, 65
1, 533703, Control_c, 0, 64, 65
1, 533986, Control_c, 0, 64, 64
1, 534935, Control_c, 0, 64, 64
1, 535618, Control_c, 0, 64, 63
1, 535818, Control_c, 0, 64, 64
1, 536892, Control_c, 0, 64, 64
1, 536981, Control_c, 0, 64, 64
1, 537056, Control_c, 0, 64, 63
1, 537071, Control_c, 0, 64, 63
1, 537086, Control_c, 0, 64, 62
1, 537101, Control_c, 0, 64, 61
1, 537131, Control_c, 0, 64, 62
1, 537166, Control_c, 0, 64, 61
1, 537211, Control_c, 0, 64, 61
1, 537226, Control_c, 0, 64, 60
1, 537241, Control_c, 0, 64, 60
1, 537256, Control_c, 0, 64, 59
1, 537271, Control_c, 0, 64, 58
1, 537285, Control_c, 0, 64, 57
1, 537300, Control_c, 0, 64, 55
1, 537315, Control_c, 0, 64, 54
1, 537359, Control_c, 0, 64, 54
1, 537448, Control_c, 0, 64, 53
1, 537477, Control_c, 0, 64, 53
1, 537566, Control_c, 0, 64, 53
1, 537626, Control_c, 0, 64, 54
1, 537640, Control_c, 0, 64, 54
1, 537655, Control_c, 0, 64, 55
1, 537670, Control_c, 0, 64, 55
1, 537685, Control_c, 0, 64, 56
1, 537715, Control_c, 0, 64, 56
1, 537945, Control_c, 0, 64, 56
1, 537989, Control_c, 0, 64, 55
1, 538048, Control_c, 0, 64, 55
1, 538107, Control_c, 0, 64, 54
1, 538196, Control_c, 0, 64, 55
1, 538225, Control_c, 0, 64, 55
1, 538270, Control_c, 0, 64, 56
1, 538299, Control_c, 0, 64, 56
1, 538314, Control_c, 0, 64, 57
1, 538329, Control_c, 0, 64, 57
1, 538344, Control_c, 0, 64, 58
1, 538374, Control_c, 0, 64, 58
1, 538418, Control_c, 0, 64, 59
1, 538522, Control_c, 0, 64, 59
1, 539531, Control_c, 0, 64, 60
1, 539960, Control_c, 0, 64, 60
1, 540004, Control_c, 0, 64, 61
1, 540354, Control_c, 0, 64, 60
1, 540650, Control_c, 0, 64, 61
1, 540739, Control_c, 0, 64, 61
1, 540842, Control_c, 0, 64, 62
1, 540887, Control_c, 0, 64, 62
1, 540953, Control_c, 0, 64, 63
1, 541369, Control_c, 0, 64, 62
1, 541658, Control_c, 0, 64, 63
1, 541821, Control_c, 0, 64, 62
1, 541985, Control_c, 0, 64, 62
1, 542103, Control_c, 0, 64, 61
1, 542281, Control_c, 0, 64, 62
1, 542340, Control_c, 0, 64, 62
1, 542370, Control_c, 0, 64, 63
1, 542422, Control_c, 0, 64, 63
1, 542556, Control_c, 0, 64, 64
1, 542838, Control_c, 0, 64, 64
1, 542883, Control_c, 0, 64, 65
1, 542912, Control_c, 0, 64, 65
1, 542957, Control_c, 0, 64, 66
1, 542986, Control_c, 0, 64, 66
1, 543045, Control_c, 0, 64, 67
1, 543170, Control_c, 0, 64, 66
1, 543498, Control_c, 0, 64, 66
1, 544082, Control_c, 0, 64, 65
1, 544112, Control_c, 0, 64, 65
1, 544127, Control_c, 0, 64, 64
1, 544142, Control_c, 0, 64, 64
1, 544171, Control_c, 0, 64, 63
1, 544246, Control_c, 0, 64, 63
1, 544380, Control_c, 0, 64, 63
1, 544424, Control_c, 0, 64, 64
1, 544454, Control_c, 0, 64, 64
1, 544483, Control_c, 0, 64, 65
1, 544542, Control_c, 0, 64, 65
1, 544616, Control_c, 0, 64, 66
1, 544757, Control_c, 0, 64, 65
1, 544787, Control_c, 0, 64, 65
1, 544801, Control_c, 0, 64, 64
1, 544890, Control_c, 0, 64, 64
1, 544935, Control_c, 0, 64, 63
1, 544965, Control_c, 0, 64, 63
1, 544979, Control_c, 0, 64, 62
1, 544994, Control_c, 0, 64, 61
1, 545009, Control_c, 0, 64, 60
1, 545024, Control_c, 0, 64, 59
1, 545039, Control_c, 0, 64, 57
1, 545054, Control_c, 0, 64, 56
1, 545069, Control_c, 0, 64, 55
1, 545084, Control_c, 0, 64, 54
1, 545099, Control_c, 0, 64, 52
1, 545114, Control_c, 0, 64, 51
1, 545128, Control_c, 0, 64, 50
1, 545143, Control_c, 0, 64, 49
1, 545158, Control_c, 0, 64, 47
1, 545173, Control_c, 0, 64, 45
1, 545188, Control_c, 0, 64, 39
1, 545203, Control_c, 0, 64, 24
1, 545217, Control_c, 0, 64, 0
1, 545292, End_track
0, 0, End_of_file
