0, 0, Header, 0, 1, 384
1, 0, Start_track
1, 0, Title_t, "RachmaninovOp39No6--Colafelice  "
1, 0, Text_t, "2011 ePiano Junior Competition"
1, 0, Text_t, "captured in spring and summer 2011"
1, 0, Text_t, "http://www.piano-e-competition.com/"
1, 0, Text_t, "standard-resolution version"
1, 0, Text_t, "File processed for distribution with software designed and coded by Dr. John Q. Walker, founder of Zenph Sound Innovations"
1, 0, Instrument_name_t, "Yamaha Disklavier Pro Mark IV concert grand piano, model DCFIIISM4PRO"
1, 0, Sequencer_specific, 39, 67, 113, 0, 1, 0, 1, 0, 82, 97, 99, 104, 109, 97, 110, 105, 110, 111, 118, 32, 51, 57, 45, 54, 76, 32, 67, 111, 108, 97, 102, 101, 108, 105, 99, 101, 32, 32, 32, 32
1, 0, Sequencer_specific, 6, 67, 113, 0, 0, 0, 69
1, 0, System_exclusive, 21, 67, 113, 126, 21, 0, 2, 2, 2, 5, 12, 8, 4, 14, 1, 0, 14, 11, 12, 3, 1, 247
1, 0, Sequencer_specific, 5, 67, 123, 12, 2, 1
1, 0, Tempo, 512820
1, 0, Time_signature, 4, 2, 24, 8
1, 0, System_exclusive, 5, 126, 127, 9, 1, 247
1, 1, System_exclusive, 8, 67, 16, 76, 0, 0, 126, 0, 247
1, 2, System_exclusive, 8, 67, 16, 76, 8, 9, 7, 1, 247
1, 3, Control_c, 0, 0, 108
1, 3, Control_c, 1, 0, 108
1, 3, Control_c, 2, 0, 0
1, 3, Control_c, 3, 0, 0
1, 3, Control_c, 4, 0, 0
1, 3, Control_c, 5, 0, 0
1, 3, Control_c, 6, 0, 0
1, 3, Control_c, 7, 0, 0
1, 3, Control_c, 8, 0, 0
1, 3, Control_c, 9, 0, 127
1, 3, Control_c, 10, 0, 0
1, 3, Control_c, 11, 0, 0
1, 3, Control_c, 12, 0, 0
1, 3, Control_c, 13, 0, 0
1, 3, Control_c, 14, 0, 0
1, 3, Control_c, 15, 0, 0
1, 4, Control_c, 0, 32, 0
1, 4, Control_c, 1, 32, 0
1, 4, Control_c, 2, 32, 0
1, 4, Control_c, 3, 32, 0
1, 4, Control_c, 4, 32, 0
1, 4, Control_c, 5, 32, 0
1, 4, Control_c, 6, 32, 0
1, 4, Control_c, 7, 32, 0
1, 4, Control_c, 8, 32, 0
1, 4, Control_c, 9, 32, 0
1, 4, Control_c, 10, 32, 0
1, 4, Control_c, 11, 32, 0
1, 4, Control_c, 12, 32, 0
1, 4, Control_c, 13, 32, 0
1, 4, Control_c, 14, 32, 0
1, 4, Control_c, 15, 32, 0
1, 5, Program_c, 0, 0
1, 5, Program_c, 1, 0
1, 5, Program_c, 2, 0
1, 5, Program_c, 3, 0
1, 5, Program_c, 4, 0
1, 5, Program_c, 5, 0
1, 5, Program_c, 6, 0
1, 5, Program_c, 7, 0
1, 5, Program_c, 8, 0
1, 5, Program_c, 9, 0
1, 5, Program_c, 10, 0
1, 5, Program_c, 11, 0
1, 5, Program_c, 12, 0
1, 5, Program_c, 13, 0
1, 5, Program_c, 14, 0
1, 5, Program_c, 15, 0
1, 6, Control_c, 0, 7, 100
1, 6, Control_c, 1, 7, 100
1, 6, Control_c, 2, 7, 100
1, 6, Control_c, 3, 7, 100
1, 6, Control_c, 4, 7, 100
1, 6, Control_c, 5, 7, 100
1, 6, Control_c, 6, 7, 100
1, 6, Control_c, 7, 7, 100
1, 6, Control_c, 8, 7, 100
1, 6, Control_c, 9, 7, 100
1, 6, Control_c, 10, 7, 100
1, 6, Control_c, 11, 7, 100
1, 6, Control_c, 12, 7, 100
1, 6, Control_c, 13, 7, 100
1, 6, Control_c, 14, 7, 100
1, 6, Control_c, 15, 7, 100
1, 42, Control_c, 0, 64, 6
1, 42, Control_c, 0, 67, 15
1, 79, Control_c, 0, 64, 12
1, 79, Control_c, 0, 67, 31
1, 116, Control_c, 0, 64, 18
1, 116, Control_c, 0, 67, 46
1, 153, Control_c, 0, 64, 25
1, 153, Control_c, 0, 67, 63
1, 190, Control_c, 0, 64, 30
1, 190, Control_c, 0, 67, 77
1, 226, Control_c, 0, 64, 37
1, 226, Control_c, 0, 67, 94
1, 263, Control_c, 0, 64, 42
1, 263, Control_c, 0, 67, 108
1, 300, Control_c, 0, 64, 50
1, 300, Control_c, 0, 67, 127
1, 412, Poly_aftertouch_c, 0, 51, 127
1, 731, Note_on_c, 0, 48, 27
1, 761, Note_on_c, 0, 36, 24
1, 863, Control_c, 0, 64, 51
1, 922, Control_c, 0, 64, 51
1, 937, Control_c, 0, 64, 52
1, 952, Control_c, 0, 64, 53
1, 967, Control_c, 0, 64, 54
1, 982, Control_c, 0, 64, 55
1, 985, Poly_aftertouch_c, 0, 51, 0
1, 997, Control_c, 0, 64, 56
1, 1012, Control_c, 0, 64, 57
1, 1027, Control_c, 0, 64, 58
1, 1042, Control_c, 0, 64, 60
1, 1056, Control_c, 0, 64, 60
1, 1071, Control_c, 0, 64, 61
1, 1086, Control_c, 0, 64, 62
1, 1101, Control_c, 0, 64, 63
1, 1115, Control_c, 0, 64, 63
1, 1130, Control_c, 0, 64, 64
1, 1145, Control_c, 0, 64, 65
1, 1160, Control_c, 0, 64, 66
1, 1175, Control_c, 0, 64, 67
1, 1189, Control_c, 0, 64, 67
1, 1204, Control_c, 0, 64, 68
1, 1219, Control_c, 0, 64, 70
1, 1233, Control_c, 0, 64, 71
1, 1248, Control_c, 0, 64, 72
1, 1263, Control_c, 0, 64, 74
1, 1278, Control_c, 0, 64, 75
1, 1293, Control_c, 0, 64, 76
1, 1307, Control_c, 0, 64, 77
1, 1322, Control_c, 0, 64, 77
1, 1435, Note_on_c, 0, 49, 42
1, 1449, Note_on_c, 0, 37, 28
1, 1597, Control_c, 0, 64, 77
1, 1648, Note_off_c, 0, 36, 37
1, 1656, Control_c, 0, 64, 77
1, 1680, Note_off_c, 0, 48, 40
1, 1804, Control_c, 0, 64, 77
1, 1819, Control_c, 0, 64, 76
1, 1849, Control_c, 0, 64, 76
1, 1863, Control_c, 0, 64, 75
1, 1868, Note_on_c, 0, 50, 60
1, 1878, Control_c, 0, 64, 74
1, 1893, Control_c, 0, 64, 73
1, 1903, Note_on_c, 0, 38, 34
1, 1908, Control_c, 0, 64, 71
1, 1923, Control_c, 0, 64, 68
1, 1937, Control_c, 0, 64, 65
1, 1952, Control_c, 0, 64, 63
1, 1982, Control_c, 0, 64, 64
1, 1997, Control_c, 0, 64, 66
1, 2011, Control_c, 0, 64, 69
1, 2026, Note_off_c, 0, 49, 61
1, 2026, Control_c, 0, 64, 72
1, 2041, Control_c, 0, 64, 75
1, 2055, Control_c, 0, 64, 77
1, 2068, Note_off_c, 0, 37, 39
1, 2070, Control_c, 0, 64, 78
1, 2085, Control_c, 0, 64, 78
1, 2167, Control_c, 0, 64, 78
1, 2197, Control_c, 0, 64, 77
1, 2205, Note_on_c, 0, 51, 70
1, 2211, Control_c, 0, 64, 77
1, 2226, Control_c, 0, 64, 76
1, 2228, Note_on_c, 0, 39, 52
1, 2241, Control_c, 0, 64, 75
1, 2257, Control_c, 0, 64, 73
1, 2272, Control_c, 0, 64, 71
1, 2287, Control_c, 0, 64, 66
1, 2302, Control_c, 0, 64, 64
1, 2309, Note_off_c, 0, 38, 54
1, 2311, Note_off_c, 0, 50, 56
1, 2316, Control_c, 0, 64, 64
1, 2331, Control_c, 0, 64, 66
1, 2346, Control_c, 0, 64, 68
1, 2360, Control_c, 0, 64, 71
1, 2375, Control_c, 0, 64, 75
1, 2390, Control_c, 0, 64, 77
1, 2405, Control_c, 0, 64, 78
1, 2449, Control_c, 0, 64, 78
1, 2454, Note_on_c, 0, 52, 80
1, 2464, Control_c, 0, 64, 77
1, 2475, Note_on_c, 0, 40, 67
1, 2478, Control_c, 0, 64, 77
1, 2503, Note_off_c, 0, 51, 64
1, 2523, Control_c, 0, 64, 77
1, 2538, Control_c, 0, 64, 78
1, 2538, Control_c, 0, 67, 122
1, 2550, Note_off_c, 0, 39, 59
1, 2553, Control_c, 0, 64, 78
1, 2553, Control_c, 0, 67, 107
1, 2568, Control_c, 0, 64, 79
1, 2568, Control_c, 0, 67, 87
1, 2583, Control_c, 0, 67, 65
1, 2598, Control_c, 0, 64, 79
1, 2598, Control_c, 0, 67, 38
1, 2613, Control_c, 0, 67, 13
1, 2627, Control_c, 0, 64, 80
1, 2627, Control_c, 0, 67, 0
1, 2636, Note_on_c, 0, 53, 95
1, 2638, Note_on_c, 0, 41, 78
1, 2642, Control_c, 0, 64, 81
1, 2657, Control_c, 0, 64, 84
1, 2672, Note_off_c, 0, 40, 59
1, 2672, Control_c, 0, 64, 85
1, 2686, Control_c, 0, 64, 86
1, 2701, Control_c, 0, 64, 87
1, 2716, Control_c, 0, 64, 87
1, 2723, Note_off_c, 0, 52, 27
1, 2746, Control_c, 0, 64, 88
1, 2775, Control_c, 0, 64, 88
1, 2790, Control_c, 0, 64, 89
1, 2805, Control_c, 0, 64, 90
1, 2809, Note_on_c, 0, 54, 104
1, 2817, Note_on_c, 0, 30, 85
1, 2820, Control_c, 0, 64, 91
1, 2834, Control_c, 0, 64, 92
1, 2842, Note_off_c, 0, 53, 63
1, 2849, Control_c, 0, 64, 93
1, 2867, Note_off_c, 0, 41, 62
1, 2872, Control_c, 0, 64, 96
1, 2886, Control_c, 0, 64, 100
1, 2901, Control_c, 0, 64, 107
1, 2916, Control_c, 0, 64, 117
1, 2924, Note_off_c, 0, 30, 62
1, 2931, Control_c, 0, 64, 127
1, 2955, Note_off_c, 0, 54, 65
1, 2955, Note_on_c, 0, 55, 105
1, 2959, Note_on_c, 0, 31, 85
1, 3041, Note_off_c, 0, 31, 63
1, 3046, Note_off_c, 0, 55, 64
1, 3080, Note_on_c, 0, 56, 103
1, 3083, Note_on_c, 0, 32, 94
1, 3096, Note_on_c, 0, 55, 66
1, 3122, Note_off_c, 0, 55, 56
1, 3155, Note_off_c, 0, 32, 61
1, 3194, Poly_aftertouch_c, 0, 58, 127
1, 3216, Note_off_c, 0, 56, 62
1, 3254, Poly_aftertouch_c, 0, 58, 0
1, 3274, Note_on_c, 0, 33, 102
1, 3275, Note_on_c, 0, 57, 103
1, 3277, Note_on_c, 0, 52, 100
1, 3277, Note_on_c, 0, 21, 98
1, 3278, Note_on_c, 0, 60, 101
1, 3287, Control_c, 0, 64, 108
1, 3301, Control_c, 0, 64, 64
1, 3316, Control_c, 0, 64, 0
1, 3391, Control_c, 0, 64, 37
1, 3405, Control_c, 0, 64, 55
1, 3420, Control_c, 0, 64, 65
1, 3434, Note_off_c, 0, 52, 68
1, 3435, Control_c, 0, 64, 85
1, 3438, Poly_aftertouch_c, 0, 22, 0
1, 3450, Control_c, 0, 64, 127
1, 3450, Note_off_c, 0, 60, 73
1, 3456, Note_off_c, 0, 57, 69
1, 3461, Note_off_c, 0, 33, 65
1, 3462, Note_off_c, 0, 21, 62
1, 3539, Control_c, 0, 64, 50
1, 3554, Control_c, 0, 64, 0
1, 5193, Control_c, 0, 67, 11
1, 5208, Control_c, 0, 67, 19
1, 5223, Control_c, 0, 67, 33
1, 5237, Control_c, 0, 67, 62
1, 5252, Control_c, 0, 67, 95
1, 5267, Control_c, 0, 67, 127
1, 5668, Control_c, 0, 64, 9
1, 5683, Control_c, 0, 64, 13
1, 5698, Control_c, 0, 64, 17
1, 5712, Control_c, 0, 64, 19
1, 5720, Note_on_c, 0, 48, 37
1, 5727, Control_c, 0, 64, 20
1, 5742, Control_c, 0, 64, 21
1, 5757, Control_c, 0, 64, 21
1, 5763, Note_on_c, 0, 36, 16
1, 5868, Control_c, 0, 64, 22
1, 5883, Control_c, 0, 64, 23
1, 5897, Control_c, 0, 64, 25
1, 5912, Control_c, 0, 64, 26
1, 5927, Control_c, 0, 64, 27
1, 5942, Control_c, 0, 64, 28
1, 5957, Control_c, 0, 64, 30
1, 5972, Control_c, 0, 64, 31
1, 5986, Control_c, 0, 64, 32
1, 6001, Control_c, 0, 64, 34
1, 6016, Control_c, 0, 64, 35
1, 6030, Control_c, 0, 64, 36
1, 6045, Control_c, 0, 64, 37
1, 6059, Control_c, 0, 64, 37
1, 6074, Control_c, 0, 64, 38
1, 6089, Control_c, 0, 64, 38
1, 6103, Control_c, 0, 64, 39
1, 6118, Control_c, 0, 64, 40
1, 6133, Control_c, 0, 64, 41
1, 6148, Control_c, 0, 64, 42
1, 6163, Control_c, 0, 64, 43
1, 6178, Control_c, 0, 64, 44
1, 6193, Control_c, 0, 64, 44
1, 6207, Control_c, 0, 64, 45
1, 6282, Control_c, 0, 64, 45
1, 6287, Note_on_c, 0, 49, 38
1, 6295, Note_on_c, 0, 37, 17
1, 6342, Control_c, 0, 64, 46
1, 6357, Control_c, 0, 64, 48
1, 6371, Control_c, 0, 64, 50
1, 6386, Control_c, 0, 64, 52
1, 6401, Control_c, 0, 64, 54
1, 6416, Note_off_c, 0, 48, 41
1, 6416, Control_c, 0, 64, 55
1, 6423, Note_off_c, 0, 36, 39
1, 6431, Control_c, 0, 64, 56
1, 6446, Control_c, 0, 64, 58
1, 6461, Control_c, 0, 64, 59
1, 6475, Control_c, 0, 64, 60
1, 6490, Control_c, 0, 64, 61
1, 6505, Control_c, 0, 64, 62
1, 6520, Control_c, 0, 64, 63
1, 6534, Control_c, 0, 64, 63
1, 6642, Note_on_c, 0, 50, 50
1, 6663, Note_on_c, 0, 38, 31
1, 6705, Control_c, 0, 64, 64
1, 6717, Note_off_c, 0, 49, 57
1, 6749, Control_c, 0, 64, 64
1, 6751, Note_off_c, 0, 37, 45
1, 6869, Note_on_c, 0, 51, 64
1, 6890, Note_on_c, 0, 39, 43
1, 6900, Note_off_c, 0, 50, 58
1, 6926, Note_off_c, 0, 38, 42
1, 7046, Control_c, 0, 64, 64
1, 7048, Note_on_c, 0, 52, 68
1, 7059, Note_off_c, 0, 39, 58
1, 7065, Note_on_c, 0, 40, 52
1, 7081, Note_off_c, 0, 51, 64
1, 7091, Control_c, 0, 64, 63
1, 7105, Control_c, 0, 64, 63
1, 7164, Control_c, 0, 64, 62
1, 7179, Control_c, 0, 64, 62
1, 7184, Note_off_c, 0, 40, 63
1, 7200, Note_on_c, 0, 53, 78
1, 7203, Note_on_c, 0, 41, 51
1, 7209, Note_off_c, 0, 52, 61
1, 7209, Control_c, 0, 64, 61
1, 7239, Control_c, 0, 64, 60
1, 7254, Control_c, 0, 64, 60
1, 7298, Control_c, 0, 64, 59
1, 7328, Control_c, 0, 64, 59
1, 7364, Control_c, 0, 64, 58
1, 7369, Note_on_c, 0, 54, 70
1, 7379, Control_c, 0, 64, 58
1, 7382, Note_off_c, 0, 53, 60
1, 7383, Note_on_c, 0, 30, 50
1, 7394, Control_c, 0, 64, 57
1, 7409, Control_c, 0, 64, 55
1, 7420, Note_off_c, 0, 41, 57
1, 7424, Control_c, 0, 64, 53
1, 7439, Control_c, 0, 64, 53
1, 7454, Control_c, 0, 64, 52
1, 7468, Control_c, 0, 64, 51
1, 7483, Control_c, 0, 64, 49
1, 7498, Control_c, 0, 64, 47
1, 7513, Control_c, 0, 64, 46
1, 7556, Control_c, 0, 64, 45
1, 7563, Note_off_c, 0, 30, 59
1, 7567, Note_on_c, 0, 55, 58
1, 7568, Note_off_c, 0, 54, 66
1, 7571, Control_c, 0, 64, 44
1, 7586, Control_c, 0, 64, 43
1, 7597, Note_on_c, 0, 31, 43
1, 7601, Control_c, 0, 64, 42
1, 7616, Control_c, 0, 64, 40
1, 7630, Control_c, 0, 64, 36
1, 7645, Control_c, 0, 64, 30
1, 7660, Control_c, 0, 64, 21
1, 7674, Control_c, 0, 64, 0
1, 7787, Note_off_c, 0, 31, 53
1, 7793, Note_off_c, 0, 55, 56
1, 7804, Note_on_c, 0, 56, 49
1, 7812, Note_on_c, 0, 32, 37
1, 7883, Control_c, 0, 64, 32
1, 7898, Control_c, 0, 64, 48
1, 7913, Control_c, 0, 64, 55
1, 7927, Control_c, 0, 64, 59
1, 7941, Note_off_c, 0, 32, 55
1, 7942, Control_c, 0, 64, 61
1, 7957, Control_c, 0, 64, 63
1, 7972, Control_c, 0, 64, 64
1, 7987, Control_c, 0, 64, 65
1, 8002, Control_c, 0, 64, 66
1, 8017, Control_c, 0, 64, 67
1, 8032, Control_c, 0, 64, 68
1, 8046, Control_c, 0, 64, 69
1, 8061, Control_c, 0, 64, 69
1, 8076, Control_c, 0, 64, 70
1, 8127, Control_c, 0, 64, 69
1, 8155, Note_off_c, 0, 56, 35
1, 8172, Control_c, 0, 64, 69
1, 8187, Control_c, 0, 64, 68
1, 8202, Control_c, 0, 64, 68
1, 8217, Control_c, 0, 64, 67
1, 8232, Control_c, 0, 64, 64
1, 8240, Note_on_c, 0, 52, 42
1, 8246, Control_c, 0, 64, 60
1, 8246, Note_on_c, 0, 57, 49
1, 8251, Note_on_c, 0, 60, 29
1, 8255, Note_on_c, 0, 33, 26
1, 8260, Note_on_c, 0, 21, 41
1, 8261, Control_c, 0, 64, 54
1, 8276, Control_c, 0, 64, 48
1, 8283, Note_off_c, 0, 52, 63
1, 8286, Note_off_c, 0, 60, 55
1, 8287, Note_off_c, 0, 33, 51
1, 8291, Control_c, 0, 64, 43
1, 8291, Note_off_c, 0, 57, 64
1, 8296, Note_off_c, 0, 21, 54
1, 8305, Control_c, 0, 64, 35
1, 8320, Control_c, 0, 64, 25
1, 8335, Control_c, 0, 64, 0
1, 8691, Control_c, 0, 64, 13
1, 8706, Control_c, 0, 64, 20
1, 8720, Control_c, 0, 64, 22
1, 8735, Control_c, 0, 64, 23
1, 8891, Control_c, 0, 64, 23
1, 8906, Control_c, 0, 64, 24
1, 8920, Control_c, 0, 64, 25
1, 8935, Control_c, 0, 64, 25
1, 8950, Control_c, 0, 64, 26
1, 8965, Control_c, 0, 64, 27
1, 8980, Control_c, 0, 64, 28
1, 8995, Control_c, 0, 64, 29
1, 9010, Control_c, 0, 64, 30
1, 9024, Control_c, 0, 64, 30
1, 9099, Control_c, 0, 64, 31
1, 9114, Control_c, 0, 64, 31
1, 9143, Control_c, 0, 64, 32
1, 9365, Control_c, 0, 64, 33
1, 9394, Control_c, 0, 64, 33
1, 9499, Control_c, 0, 64, 34
1, 9514, Control_c, 0, 64, 34
1, 9558, Control_c, 0, 64, 35
1, 9588, Control_c, 0, 64, 35
1, 9611, Control_c, 0, 64, 36
1, 9773, Control_c, 0, 64, 36
1, 9803, Control_c, 0, 64, 35
1, 9838, Note_on_c, 0, 57, 45
1, 9840, Note_on_c, 0, 33, 31
1, 9841, Note_on_c, 0, 21, 32
1, 9841, Note_on_c, 0, 52, 35
1, 9842, Note_on_c, 0, 60, 37
1, 9847, Control_c, 0, 64, 35
1, 9862, Control_c, 0, 64, 34
1, 9867, Note_off_c, 0, 52, 53
1, 9871, Note_off_c, 0, 60, 61
1, 9874, Note_off_c, 0, 57, 66
1, 9877, Note_off_c, 0, 33, 53
1, 9877, Control_c, 0, 64, 34
1, 9880, Note_off_c, 0, 21, 56
1, 9892, Control_c, 0, 64, 33
1, 9907, Control_c, 0, 64, 32
1, 9922, Control_c, 0, 64, 31
1, 9937, Control_c, 0, 64, 30
1, 9951, Control_c, 0, 64, 29
1, 9966, Control_c, 0, 64, 27
1, 9981, Control_c, 0, 64, 25
1, 9996, Control_c, 0, 64, 24
1, 10478, Control_c, 0, 64, 25
1, 10493, Control_c, 0, 64, 26
1, 10508, Control_c, 0, 64, 28
1, 10522, Control_c, 0, 64, 31
1, 10537, Control_c, 0, 64, 35
1, 10552, Control_c, 0, 64, 39
1, 10566, Control_c, 0, 64, 42
1, 10581, Control_c, 0, 64, 44
1, 10596, Control_c, 0, 64, 46
1, 10611, Control_c, 0, 64, 48
1, 10626, Control_c, 0, 64, 51
1, 10640, Control_c, 0, 64, 53
1, 10655, Control_c, 0, 64, 55
1, 10670, Control_c, 0, 64, 57
1, 10685, Control_c, 0, 64, 58
1, 10700, Control_c, 0, 64, 59
1, 10715, Control_c, 0, 64, 61
1, 10730, Control_c, 0, 64, 62
1, 10744, Control_c, 0, 64, 63
1, 10759, Control_c, 0, 64, 65
1, 10774, Control_c, 0, 64, 66
1, 10789, Control_c, 0, 64, 68
1, 10804, Control_c, 0, 64, 70
1, 10819, Control_c, 0, 64, 74
1, 10834, Control_c, 0, 64, 81
1, 10848, Control_c, 0, 64, 93
1, 10863, Control_c, 0, 64, 127
1, 11108, Control_c, 0, 64, 77
1, 11123, Control_c, 0, 64, 17
1, 11130, Note_on_c, 0, 71, 51
1, 11138, Control_c, 0, 64, 0
1, 11141, Note_on_c, 0, 81, 43
1, 11153, Note_on_c, 0, 83, 52
1, 11153, Note_off_c, 0, 71, 58
1, 11174, Note_off_c, 0, 83, 60
1, 11175, Note_off_c, 0, 81, 63
1, 11186, Note_on_c, 0, 75, 70
1, 11203, Note_off_c, 0, 75, 65
1, 11222, Note_on_c, 0, 63, 43
1, 11252, Note_off_c, 0, 63, 50
1, 11264, Note_on_c, 0, 75, 62
1, 11288, Note_off_c, 0, 75, 63
1, 11311, Note_on_c, 0, 69, 51
1, 11333, Note_off_c, 0, 69, 59
1, 11345, Note_on_c, 0, 72, 64
1, 11357, Note_on_c, 0, 81, 63
1, 11376, Note_off_c, 0, 72, 64
1, 11388, Note_off_c, 0, 81, 63
1, 11406, Note_on_c, 0, 76, 64
1, 11435, Note_off_c, 0, 76, 66
1, 11478, Note_on_c, 0, 64, 4
1, 11528, Note_off_c, 0, 64, 34
1, 11539, Note_on_c, 0, 69, 55
1, 11561, Note_off_c, 0, 69, 59
1, 11578, Note_on_c, 0, 64, 41
1, 11582, Control_c, 0, 64, 52
1, 11585, Note_on_c, 0, 81, 58
1, 11597, Control_c, 0, 64, 62
1, 11606, Note_off_c, 0, 64, 61
1, 11612, Control_c, 0, 64, 66
1, 11615, Note_off_c, 0, 81, 66
1, 11627, Control_c, 0, 64, 72
1, 11630, Note_on_c, 0, 76, 66
1, 11642, Control_c, 0, 64, 87
1, 11657, Control_c, 0, 64, 127
1, 11658, Note_off_c, 0, 76, 66
1, 11668, Note_on_c, 0, 57, 63
1, 11696, Note_off_c, 0, 57, 66
1, 11714, Poly_aftertouch_c, 0, 76, 0
1, 11734, Note_on_c, 0, 69, 64
1, 11761, Note_off_c, 0, 69, 66
1, 11789, Control_c, 0, 64, 76
1, 11796, Note_on_c, 0, 83, 77
1, 11799, Note_on_c, 0, 73, 71
1, 11804, Control_c, 0, 64, 46
1, 11819, Control_c, 0, 64, 0
1, 11821, Note_off_c, 0, 83, 65
1, 11824, Note_off_c, 0, 73, 70
1, 11853, Note_on_c, 0, 76, 67
1, 11879, Note_off_c, 0, 76, 65
1, 11911, Note_on_c, 0, 64, 51
1, 11936, Note_off_c, 0, 64, 60
1, 11942, Poly_aftertouch_c, 0, 76, 0
1, 11973, Note_on_c, 0, 71, 59
1, 11999, Note_off_c, 0, 71, 65
1, 12022, Note_on_c, 0, 83, 69
1, 12028, Note_on_c, 0, 74, 62
1, 12047, Note_off_c, 0, 83, 69
1, 12059, Note_off_c, 0, 74, 66
1, 12067, Note_on_c, 0, 77, 74
1, 12092, Note_off_c, 0, 77, 68
1, 12120, Note_on_c, 0, 65, 54
1, 12141, Note_on_c, 0, 77, 76
1, 12151, Note_off_c, 0, 65, 64
1, 12168, Note_off_c, 0, 77, 67
1, 12190, Note_on_c, 0, 71, 69
1, 12220, Note_off_c, 0, 71, 67
1, 12242, Control_c, 0, 64, 38
1, 12250, Note_on_c, 0, 65, 43
1, 12254, Note_on_c, 0, 83, 67
1, 12257, Control_c, 0, 64, 56
1, 12272, Control_c, 0, 64, 63
1, 12281, Note_off_c, 0, 83, 67
1, 12287, Note_off_c, 0, 65, 63
1, 12287, Control_c, 0, 64, 67
1, 12297, Note_on_c, 0, 77, 70
1, 12301, Control_c, 0, 64, 72
1, 12316, Control_c, 0, 64, 80
1, 12323, Note_off_c, 0, 77, 66
1, 12331, Control_c, 0, 64, 94
1, 12345, Note_on_c, 0, 57, 64
1, 12345, Control_c, 0, 64, 116
1, 12360, Control_c, 0, 64, 127
1, 12374, Note_off_c, 0, 57, 65
1, 12377, Poly_aftertouch_c, 0, 77, 0
1, 12398, Note_on_c, 0, 71, 75
1, 12435, Note_off_c, 0, 71, 63
1, 12449, Control_c, 0, 64, 97
1, 12464, Control_c, 0, 64, 69
1, 12464, Control_c, 0, 67, 117
1, 12466, Note_on_c, 0, 84, 90
1, 12479, Control_c, 0, 64, 50
1, 12479, Control_c, 0, 67, 103
1, 12483, Note_on_c, 0, 74, 67
1, 12494, Control_c, 0, 64, 42
1, 12494, Control_c, 0, 67, 85
1, 12509, Control_c, 0, 64, 55
1, 12509, Control_c, 0, 67, 60
1, 12519, Note_on_c, 0, 77, 81
1, 12521, Note_off_c, 0, 84, 64
1, 12524, Control_c, 0, 64, 66
1, 12524, Control_c, 0, 67, 33
1, 12525, Note_off_c, 0, 74, 60
1, 12538, Control_c, 0, 64, 75
1, 12538, Control_c, 0, 67, 0
1, 12545, Note_off_c, 0, 77, 66
1, 12553, Control_c, 0, 64, 92
1, 12568, Control_c, 0, 64, 127
1, 12588, Note_on_c, 0, 77, 75
1, 12590, Note_on_c, 0, 65, 66
1, 12625, Note_off_c, 0, 77, 65
1, 12641, Note_on_c, 0, 72, 73
1, 12649, Note_off_c, 0, 65, 61
1, 12680, Control_c, 0, 64, 102
1, 12690, Note_off_c, 0, 72, 64
1, 12695, Control_c, 0, 64, 74
1, 12706, Note_on_c, 0, 84, 94
1, 12710, Control_c, 0, 64, 57
1, 12718, Note_on_c, 0, 75, 73
1, 12724, Control_c, 0, 64, 51
1, 12739, Control_c, 0, 64, 61
1, 12754, Control_c, 0, 64, 68
1, 12768, Control_c, 0, 64, 80
1, 12777, Note_on_c, 0, 78, 86
1, 12783, Control_c, 0, 64, 115
1, 12798, Note_off_c, 0, 84, 60
1, 12798, Control_c, 0, 64, 127
1, 12799, Note_off_c, 0, 75, 60
1, 12814, Note_on_c, 0, 66, 56
1, 12816, Note_off_c, 0, 78, 65
1, 12852, Note_on_c, 0, 78, 75
1, 12855, Note_off_c, 0, 66, 62
1, 12903, Note_off_c, 0, 78, 63
1, 12909, Note_on_c, 0, 72, 61
1, 12917, Control_c, 0, 64, 112
1, 12932, Control_c, 0, 64, 73
1, 12938, Note_off_c, 0, 72, 67
1, 12947, Control_c, 0, 64, 55
1, 12957, Note_on_c, 0, 84, 88
1, 12962, Control_c, 0, 64, 41
1, 12965, Note_on_c, 0, 57, 57
1, 12976, Control_c, 0, 64, 55
1, 12979, Note_on_c, 0, 69, 42
1, 12989, Note_off_c, 0, 57, 60
1, 12991, Control_c, 0, 64, 66
1, 12991, Control_c, 0, 67, 9
1, 13005, Note_off_c, 0, 69, 56
1, 13006, Control_c, 0, 64, 77
1, 13006, Control_c, 0, 67, 13
1, 13011, Note_off_c, 0, 84, 64
1, 13019, Note_on_c, 0, 79, 66
1, 13021, Control_c, 0, 64, 111
1, 13021, Control_c, 0, 67, 19
1, 13036, Note_off_c, 0, 79, 67
1, 13036, Control_c, 0, 64, 127
1, 13036, Control_c, 0, 67, 28
1, 13050, Control_c, 0, 67, 33
1, 13065, Control_c, 0, 67, 36
1, 13074, Note_on_c, 0, 79, 78
1, 13084, Note_on_c, 0, 66, 57
1, 13095, Control_c, 0, 67, 36
1, 13098, Note_off_c, 0, 79, 69
1, 13124, Control_c, 0, 67, 36
1, 13126, Note_on_c, 0, 75, 59
1, 13132, Note_on_c, 0, 72, 76
1, 13139, Control_c, 0, 67, 35
1, 13148, Note_off_c, 0, 75, 59
1, 13153, Note_off_c, 0, 66, 55
1, 13154, Control_c, 0, 67, 36
1, 13158, Note_on_c, 0, 67, 13
1, 13163, Note_off_c, 0, 72, 65
1, 13168, Control_c, 0, 64, 80
1, 13168, Control_c, 0, 67, 37
1, 13183, Control_c, 0, 64, 0
1, 13183, Control_c, 0, 67, 39
1, 13184, Note_on_c, 0, 83, 84
1, 13193, Note_off_c, 0, 67, 46
1, 13196, Note_on_c, 0, 78, 62
1, 13213, Control_c, 0, 67, 40
1, 13228, Note_off_c, 0, 78, 48
1, 13229, Note_off_c, 0, 83, 60
1, 13239, Note_on_c, 0, 71, 83
1, 13242, Control_c, 0, 67, 40
1, 13257, Control_c, 0, 67, 43
1, 13272, Control_c, 0, 67, 48
1, 13273, Note_off_c, 0, 71, 62
1, 13287, Control_c, 0, 67, 57
1, 13299, Note_on_c, 0, 84, 86
1, 13302, Control_c, 0, 67, 66
1, 13306, Note_on_c, 0, 74, 64
1, 13317, Note_on_c, 0, 66, 52
1, 13317, Control_c, 0, 67, 72
1, 13332, Control_c, 0, 67, 72
1, 13345, Note_off_c, 0, 74, 66
1, 13350, Note_off_c, 0, 84, 65
1, 13354, Note_on_c, 0, 72, 71
1, 13358, Note_off_c, 0, 66, 64
1, 13368, Control_c, 0, 67, 72
1, 13383, Control_c, 0, 67, 71
1, 13392, Note_off_c, 0, 72, 65
1, 13411, Note_on_c, 0, 83, 86
1, 13413, Control_c, 0, 64, 54
1, 13428, Control_c, 0, 64, 62
1, 13444, Control_c, 0, 64, 67
1, 13459, Control_c, 0, 64, 79
1, 13459, Control_c, 0, 67, 70
1, 13467, Note_off_c, 0, 83, 64
1, 13473, Control_c, 0, 64, 127
1, 13473, Control_c, 0, 67, 69
1, 13476, Note_on_c, 0, 77, 73
1, 13488, Control_c, 0, 67, 68
1, 13503, Control_c, 0, 67, 67
1, 13504, Note_off_c, 0, 77, 67
1, 13518, Control_c, 0, 67, 66
1, 13540, Note_on_c, 0, 73, 53
1, 13549, Poly_aftertouch_c, 0, 77, 127
1, 13552, Note_on_c, 0, 65, 39
1, 13557, Poly_aftertouch_c, 0, 77, 0
1, 13561, Note_off_c, 0, 73, 60
1, 13577, Control_c, 0, 67, 67
1, 13583, Note_off_c, 0, 65, 52
1, 13591, Control_c, 0, 67, 68
1, 13595, Note_on_c, 0, 71, 59
1, 13606, Control_c, 0, 64, 106
1, 13613, Note_off_c, 0, 71, 62
1, 13621, Control_c, 0, 64, 62
1, 13636, Control_c, 0, 64, 0
1, 13646, Note_on_c, 0, 83, 84
1, 13659, Note_on_c, 0, 74, 67
1, 13683, Note_off_c, 0, 83, 65
1, 13686, Note_off_c, 0, 74, 67
1, 13696, Control_c, 0, 67, 69
1, 13708, Note_on_c, 0, 75, 62
1, 13710, Control_c, 0, 67, 70
1, 13725, Control_c, 0, 67, 72
1, 13732, Note_off_c, 0, 75, 62
1, 13740, Control_c, 0, 67, 73
1, 13755, Control_c, 0, 67, 74
1, 13762, Note_on_c, 0, 63, 62
1, 13784, Control_c, 0, 67, 75
1, 13794, Note_off_c, 0, 63, 64
1, 13796, Note_on_c, 0, 75, 22
1, 13812, Note_on_c, 0, 71, 72
1, 13814, Control_c, 0, 67, 75
1, 13829, Control_c, 0, 67, 76
1, 13837, Note_off_c, 0, 71, 69
1, 13837, Note_off_c, 0, 75, 39
1, 13844, Control_c, 0, 67, 77
1, 13859, Control_c, 0, 67, 79
1, 13873, Control_c, 0, 67, 82
1, 13883, Note_on_c, 0, 72, 71
1, 13885, Note_on_c, 0, 81, 50
1, 13888, Control_c, 0, 67, 83
1, 13906, Note_off_c, 0, 81, 62
1, 13917, Note_off_c, 0, 72, 61
1, 13933, Note_on_c, 0, 76, 63
1, 13933, Control_c, 0, 67, 83
1, 13947, Control_c, 0, 67, 85
1, 13962, Control_c, 0, 67, 88
1, 13977, Control_c, 0, 67, 100
1, 13985, Note_on_c, 0, 64, 53
1, 13991, Control_c, 0, 67, 108
1, 14006, Note_off_c, 0, 76, 52
1, 14006, Control_c, 0, 67, 114
1, 14009, Note_off_c, 0, 64, 61
1, 14021, Control_c, 0, 67, 119
1, 14036, Control_c, 0, 67, 124
1, 14037, Note_on_c, 0, 69, 62
1, 14051, Control_c, 0, 67, 126
1, 14065, Control_c, 0, 67, 127
1, 14066, Note_off_c, 0, 69, 66
1, 14104, Note_on_c, 0, 81, 69
1, 14112, Note_on_c, 0, 64, 48
1, 14145, Note_off_c, 0, 81, 61
1, 14162, Control_c, 0, 64, 26
1, 14169, Note_on_c, 0, 76, 66
1, 14177, Control_c, 0, 64, 51
1, 14191, Control_c, 0, 64, 60
1, 14191, Control_c, 0, 67, 124
1, 14198, Note_off_c, 0, 76, 67
1, 14199, Note_off_c, 0, 64, 62
1, 14206, Control_c, 0, 64, 64
1, 14206, Control_c, 0, 67, 120
1, 14208, Note_on_c, 0, 57, 59
1, 14221, Control_c, 0, 64, 67
1, 14221, Control_c, 0, 67, 117
1, 14236, Control_c, 0, 64, 71
1, 14236, Control_c, 0, 67, 114
1, 14239, Note_off_c, 0, 57, 65
1, 14252, Control_c, 0, 64, 76
1, 14252, Control_c, 0, 67, 113
1, 14253, Poly_aftertouch_c, 0, 76, 0
1, 14267, Control_c, 0, 64, 80
1, 14267, Control_c, 0, 67, 112
1, 14281, Note_on_c, 0, 69, 75
1, 14282, Control_c, 0, 64, 84
1, 14296, Control_c, 0, 64, 85
1, 14306, Note_off_c, 0, 69, 69
1, 14326, Control_c, 0, 64, 84
1, 14326, Control_c, 0, 67, 113
1, 14341, Control_c, 0, 64, 78
1, 14341, Control_c, 0, 67, 114
1, 14356, Control_c, 0, 64, 64
1, 14356, Control_c, 0, 67, 114
1, 14370, Control_c, 0, 64, 0
1, 14390, Note_on_c, 0, 35, 60
1, 14400, Control_c, 0, 67, 112
1, 14414, Control_c, 0, 67, 110
1, 14429, Control_c, 0, 64, 51
1, 14429, Control_c, 0, 67, 108
1, 14444, Control_c, 0, 64, 64
1, 14444, Control_c, 0, 67, 107
1, 14451, Note_on_c, 0, 36, 69
1, 14456, Note_off_c, 0, 35, 59
1, 14459, Control_c, 0, 64, 73
1, 14459, Control_c, 0, 67, 105
1, 14474, Control_c, 0, 64, 121
1, 14474, Control_c, 0, 67, 101
1, 14488, Control_c, 0, 64, 127
1, 14488, Control_c, 0, 67, 94
1, 14500, Note_on_c, 0, 37, 82
1, 14503, Control_c, 0, 67, 81
1, 14518, Note_off_c, 0, 36, 61
1, 14518, Control_c, 0, 67, 62
1, 14533, Control_c, 0, 67, 36
1, 14548, Control_c, 0, 67, 11
1, 14563, Control_c, 0, 67, 0
1, 14566, Note_on_c, 0, 38, 81
1, 14578, Note_off_c, 0, 37, 61
1, 14602, Note_on_c, 0, 49, 81
1, 14618, Note_off_c, 0, 38, 60
1, 14626, Note_on_c, 0, 37, 62
1, 14652, Note_off_c, 0, 49, 63
1, 14661, Note_on_c, 0, 50, 84
1, 14688, Note_on_c, 0, 38, 58
1, 14721, Note_on_c, 0, 51, 90
1, 14722, Note_off_c, 0, 50, 61
1, 14738, Note_on_c, 0, 39, 81
1, 14742, Note_off_c, 0, 37, 61
1, 14753, Note_off_c, 0, 38, 62
1, 14773, Note_off_c, 0, 51, 67
1, 14774, Poly_aftertouch_c, 0, 40, 127
1, 14792, Note_on_c, 0, 52, 93
1, 14793, Note_on_c, 0, 40, 45
1, 14796, Note_off_c, 0, 39, 64
1, 14855, Note_on_c, 0, 53, 93
1, 14873, Note_on_c, 0, 30, 76
1, 14885, Note_off_c, 0, 40, 62
1, 14912, Note_on_c, 0, 54, 84
1, 14930, Note_off_c, 0, 30, 64
1, 14933, Note_off_c, 0, 52, 61
1, 14936, Note_on_c, 0, 31, 64
1, 14962, Note_on_c, 0, 29, 41
1, 14965, Note_off_c, 0, 53, 0
1, 14970, Note_off_c, 0, 54, 35
1, 14971, Note_on_c, 0, 55, 79
1, 14992, Note_on_c, 0, 32, 82
1, 15003, Poly_aftertouch_c, 0, 53, 127
1, 15013, Note_off_c, 0, 31, 61
1, 15016, Poly_aftertouch_c, 0, 53, 0
1, 15021, Note_off_c, 0, 29, 43
1, 15046, Note_off_c, 0, 32, 63
1, 15066, Note_off_c, 0, 55, 57
1, 15081, Note_on_c, 0, 57, 72
1, 15085, Note_on_c, 0, 21, 97
1, 15089, Note_on_c, 0, 33, 104
1, 15089, Note_on_c, 0, 60, 93
1, 15090, Control_c, 0, 64, 60
1, 15094, Note_on_c, 0, 52, 89
1, 15105, Control_c, 0, 64, 0
1, 15113, Note_off_c, 0, 52, 72
1, 15123, Note_off_c, 0, 57, 65
1, 15124, Note_off_c, 0, 21, 63
1, 15130, Note_off_c, 0, 60, 68
1, 15132, Note_off_c, 0, 33, 65
1, 15388, Note_on_c, 0, 81, 71
1, 15390, Note_on_c, 0, 71, 75
1, 15418, Note_off_c, 0, 71, 64
1, 15435, Note_off_c, 0, 81, 60
1, 15442, Note_on_c, 0, 75, 73
1, 15469, Note_off_c, 0, 75, 68
1, 15489, Note_on_c, 0, 63, 63
1, 15508, Note_on_c, 0, 75, 70
1, 15521, Note_off_c, 0, 63, 65
1, 15539, Note_off_c, 0, 75, 65
1, 15558, Note_on_c, 0, 69, 74
1, 15588, Note_off_c, 0, 69, 69
1, 15624, Note_on_c, 0, 72, 68
1, 15627, Note_on_c, 0, 81, 62
1, 15654, Note_off_c, 0, 72, 65
1, 15658, Note_off_c, 0, 81, 66
1, 15676, Note_on_c, 0, 76, 71
1, 15703, Note_off_c, 0, 76, 67
1, 15731, Note_on_c, 0, 64, 49
1, 15748, Note_on_c, 0, 76, 71
1, 15763, Note_off_c, 0, 64, 63
1, 15766, Note_off_c, 0, 76, 67
1, 15790, Note_on_c, 0, 69, 72
1, 15817, Note_off_c, 0, 69, 68
1, 15852, Note_on_c, 0, 81, 73
1, 15855, Note_on_c, 0, 64, 59
1, 15869, Control_c, 0, 64, 40
1, 15883, Control_c, 0, 64, 61
1, 15887, Note_off_c, 0, 81, 66
1, 15895, Note_off_c, 0, 64, 61
1, 15897, Note_on_c, 0, 76, 60
1, 15898, Control_c, 0, 64, 71
1, 15913, Control_c, 0, 64, 99
1, 15923, Note_off_c, 0, 76, 67
1, 15928, Control_c, 0, 64, 127
1, 15953, Note_on_c, 0, 57, 58
1, 15966, Note_on_c, 0, 76, 79
1, 15983, Note_off_c, 0, 57, 66
1, 15989, Note_off_c, 0, 76, 69
1, 16002, Control_c, 0, 67, 8
1, 16009, Note_on_c, 0, 69, 79
1, 16017, Control_c, 0, 67, 11
1, 16032, Control_c, 0, 67, 14
1, 16037, Note_off_c, 0, 69, 66
1, 16047, Control_c, 0, 67, 19
1, 16061, Control_c, 0, 67, 29
1, 16071, Note_on_c, 0, 83, 83
1, 16073, Note_on_c, 0, 73, 78
1, 16076, Control_c, 0, 67, 41
1, 16091, Control_c, 0, 64, 81
1, 16091, Control_c, 0, 67, 45
1, 16101, Note_off_c, 0, 73, 64
1, 16104, Note_off_c, 0, 83, 59
1, 16106, Control_c, 0, 64, 47
1, 16106, Control_c, 0, 67, 45
1, 16116, Note_on_c, 0, 76, 60
1, 16121, Control_c, 0, 64, 0
1, 16135, Control_c, 0, 67, 45
1, 16143, Note_off_c, 0, 76, 66
1, 16170, Note_on_c, 0, 64, 53
1, 16193, Note_on_c, 0, 76, 59
1, 16202, Note_off_c, 0, 64, 64
1, 16209, Control_c, 0, 67, 45
1, 16212, Note_off_c, 0, 76, 64
1, 16237, Note_on_c, 0, 71, 72
1, 16260, Note_off_c, 0, 71, 69
1, 16268, Control_c, 0, 67, 46
1, 16283, Control_c, 0, 67, 47
1, 16295, Note_on_c, 0, 74, 60
1, 16298, Control_c, 0, 67, 48
1, 16304, Note_on_c, 0, 83, 56
1, 16338, Note_off_c, 0, 83, 67
1, 16339, Note_off_c, 0, 74, 63
1, 16350, Control_c, 0, 67, 47
1, 16351, Note_on_c, 0, 77, 75
1, 16378, Note_off_c, 0, 77, 67
1, 16394, Control_c, 0, 67, 48
1, 16409, Control_c, 0, 67, 48
1, 16417, Note_on_c, 0, 65, 28
1, 16437, Note_on_c, 0, 77, 49
1, 16456, Note_off_c, 0, 65, 41
1, 16459, Note_off_c, 0, 77, 59
1, 16468, Note_on_c, 0, 71, 69
1, 16468, Control_c, 0, 67, 47
1, 16483, Control_c, 0, 67, 46
1, 16495, Note_off_c, 0, 71, 68
1, 16498, Control_c, 0, 67, 45
1, 16512, Control_c, 0, 64, 32
1, 16512, Control_c, 0, 67, 43
1, 16527, Control_c, 0, 64, 54
1, 16527, Control_c, 0, 67, 42
1, 16531, Note_on_c, 0, 83, 66
1, 16542, Control_c, 0, 64, 62
1, 16542, Control_c, 0, 67, 40
1, 16554, Note_on_c, 0, 65, 36
1, 16557, Control_c, 0, 64, 67
1, 16557, Control_c, 0, 67, 38
1, 16572, Note_off_c, 0, 83, 60
1, 16572, Control_c, 0, 64, 74
1, 16572, Control_c, 0, 67, 36
1, 16580, Note_on_c, 0, 77, 59
1, 16583, Note_off_c, 0, 65, 54
1, 16586, Control_c, 0, 64, 86
1, 16586, Control_c, 0, 67, 35
1, 16601, Control_c, 0, 64, 113
1, 16601, Control_c, 0, 67, 35
1, 16616, Note_off_c, 0, 77, 62
1, 16616, Control_c, 0, 64, 127
1, 16616, Control_c, 0, 67, 34
1, 16630, Note_on_c, 0, 57, 49
1, 16657, Note_off_c, 0, 57, 58
1, 16662, Control_c, 0, 67, 35
1, 16664, Poly_aftertouch_c, 0, 77, 127
1, 16673, Poly_aftertouch_c, 0, 77, 0
1, 16676, Control_c, 0, 67, 35
1, 16691, Control_c, 0, 67, 36
1, 16706, Control_c, 0, 67, 36
1, 16707, Note_on_c, 0, 71, 77
1, 16732, Note_off_c, 0, 71, 69
1, 16751, Control_c, 0, 64, 84
1, 16751, Control_c, 0, 67, 36
1, 16765, Control_c, 0, 64, 63
1, 16765, Control_c, 0, 67, 35
1, 16773, Note_on_c, 0, 81, 78
1, 16774, Note_on_c, 0, 73, 66
1, 16780, Control_c, 0, 64, 26
1, 16780, Control_c, 0, 67, 32
1, 16795, Control_c, 0, 64, 0
1, 16795, Control_c, 0, 67, 30
1, 16809, Control_c, 0, 64, 48
1, 16809, Control_c, 0, 67, 28
1, 16817, Note_off_c, 0, 73, 62
1, 16824, Control_c, 0, 64, 61
1, 16824, Control_c, 0, 67, 27
1, 16826, Note_on_c, 0, 76, 75
1, 16826, Note_off_c, 0, 81, 66
1, 16839, Control_c, 0, 64, 66
1, 16839, Control_c, 0, 67, 26
1, 16854, Control_c, 0, 64, 72
1, 16854, Control_c, 0, 67, 24
1, 16856, Note_off_c, 0, 76, 67
1, 16869, Control_c, 0, 64, 83
1, 16869, Control_c, 0, 67, 24
1, 16883, Control_c, 0, 64, 102
1, 16883, Control_c, 0, 67, 22
1, 16885, Note_on_c, 0, 64, 49
1, 16891, Note_on_c, 0, 76, 71
1, 16898, Control_c, 0, 64, 127
1, 16898, Control_c, 0, 67, 21
1, 16913, Control_c, 0, 67, 21
1, 16924, Note_off_c, 0, 76, 67
1, 16933, Note_off_c, 0, 64, 61
1, 16945, Note_on_c, 0, 69, 81
1, 16970, Note_off_c, 0, 69, 67
1, 16972, Control_c, 0, 67, 21
1, 16987, Control_c, 0, 64, 76
1, 17002, Control_c, 0, 64, 57
1, 17005, Note_on_c, 0, 83, 90
1, 17013, Note_on_c, 0, 74, 57
1, 17016, Control_c, 0, 64, 0
1, 17031, Control_c, 0, 67, 21
1, 17046, Control_c, 0, 64, 43
1, 17046, Control_c, 0, 67, 19
1, 17058, Note_off_c, 0, 83, 66
1, 17061, Control_c, 0, 64, 58
1, 17076, Control_c, 0, 64, 64
1, 17076, Control_c, 0, 67, 19
1, 17087, Note_off_c, 0, 74, 60
1, 17095, Note_on_c, 0, 77, 61
1, 17098, Control_c, 0, 64, 68
1, 17113, Control_c, 0, 64, 75
1, 17128, Control_c, 0, 64, 85
1, 17141, Note_off_c, 0, 77, 0
1, 17143, Control_c, 0, 64, 101
1, 17143, Control_c, 0, 67, 17
1, 17148, Note_on_c, 0, 65, 11
1, 17152, Note_on_c, 0, 77, 55
1, 17157, Control_c, 0, 64, 127
1, 17157, Control_c, 0, 67, 14
1, 17171, Note_off_c, 0, 77, 63
1, 17172, Control_c, 0, 67, 0
1, 17189, Note_on_c, 0, 71, 72
1, 17193, Note_off_c, 0, 65, 39
1, 17226, Note_off_c, 0, 71, 63
1, 17240, Note_on_c, 0, 57, 63
1, 17246, Note_on_c, 0, 83, 80
1, 17252, Note_on_c, 0, 69, 50
1, 17255, Note_on_c, 0, 81, 60
1, 17262, Note_off_c, 0, 57, 62
1, 17273, Note_off_c, 0, 81, 67
1, 17278, Note_off_c, 0, 69, 57
1, 17287, Note_off_c, 0, 83, 62
1, 17315, Note_on_c, 0, 71, 75
1, 17335, Control_c, 0, 64, 123
1, 17344, Note_off_c, 0, 71, 67
1, 17350, Control_c, 0, 64, 127
1, 17367, Note_on_c, 0, 78, 80
1, 17370, Note_on_c, 0, 66, 53
1, 17381, Note_on_c, 0, 74, 39
1, 17398, Note_off_c, 0, 78, 64
1, 17412, Note_on_c, 0, 71, 91
1, 17420, Note_off_c, 0, 74, 47
1, 17452, Note_off_c, 0, 66, 55
1, 17458, Note_off_c, 0, 71, 64
1, 17479, Note_on_c, 0, 84, 99
1, 17532, Note_on_c, 0, 72, 86
1, 17541, Note_off_c, 0, 84, 61
1, 17591, Note_on_c, 0, 75, 67
1, 17596, Note_off_c, 0, 72, 63
1, 17598, Note_on_c, 0, 79, 86
1, 17600, Note_on_c, 0, 67, 56
1, 17636, Note_off_c, 0, 67, 62
1, 17643, Note_off_c, 0, 79, 67
1, 17645, Note_off_c, 0, 75, 46
1, 17659, Note_on_c, 0, 72, 88
1, 17706, Control_c, 0, 64, 123
1, 17712, Note_off_c, 0, 72, 66
1, 17721, Control_c, 0, 64, 119
1, 17724, Note_on_c, 0, 85, 101
1, 17736, Control_c, 0, 64, 117
1, 17751, Control_c, 0, 64, 115
1, 17766, Control_c, 0, 64, 116
1, 17781, Control_c, 0, 64, 118
1, 17788, Note_off_c, 0, 85, 64
1, 17793, Note_on_c, 0, 73, 88
1, 17795, Control_c, 0, 64, 127
1, 17824, Note_on_c, 0, 76, 52
1, 17827, Note_on_c, 0, 68, 59
1, 17854, Note_off_c, 0, 76, 61
1, 17860, Note_off_c, 0, 73, 62
1, 17869, Note_off_c, 0, 68, 58
1, 17870, Note_on_c, 0, 80, 83
1, 17934, Note_off_c, 0, 80, 64
1, 17939, Note_on_c, 0, 73, 81
1, 17959, Note_off_c, 0, 73, 72
1, 17980, Control_c, 0, 64, 103
1, 17995, Control_c, 0, 64, 78
1, 18010, Control_c, 0, 64, 62
1, 18021, Note_on_c, 0, 62, 63
1, 18024, Note_on_c, 0, 86, 82
1, 18025, Control_c, 0, 64, 0
1, 18054, Control_c, 0, 64, 44
1, 18069, Control_c, 0, 64, 60
1, 18082, Note_off_c, 0, 86, 65
1, 18084, Control_c, 0, 64, 66
1, 18099, Control_c, 0, 64, 75
1, 18100, Note_on_c, 0, 81, 75
1, 18113, Control_c, 0, 64, 107
1, 18128, Note_off_c, 0, 62, 51
1, 18128, Control_c, 0, 64, 127
1, 18182, Note_off_c, 0, 81, 66
1, 18193, Note_on_c, 0, 77, 58
1, 18195, Note_on_c, 0, 69, 50
1, 18196, Note_on_c, 0, 74, 78
1, 18216, Note_off_c, 0, 77, 56
1, 18237, Note_off_c, 0, 69, 52
1, 18244, Note_off_c, 0, 74, 63
1, 18248, Control_c, 0, 64, 78
1, 18253, Note_on_c, 0, 84, 93
1, 18262, Control_c, 0, 64, 16
1, 18277, Note_on_c, 0, 80, 39
1, 18278, Note_off_c, 0, 80, 127
1, 18278, Control_c, 0, 64, 0
1, 18295, Note_off_c, 0, 84, 64
1, 18310, Note_on_c, 0, 72, 74
1, 18340, Note_off_c, 0, 72, 64
1, 18364, Note_on_c, 0, 68, 50
1, 18367, Note_on_c, 0, 86, 85
1, 18391, Note_off_c, 0, 68, 61
1, 18399, Note_off_c, 0, 86, 58
1, 18435, Note_on_c, 0, 72, 53
1, 18438, Note_on_c, 0, 74, 48
1, 18456, Note_off_c, 0, 72, 63
1, 18460, Note_off_c, 0, 74, 61
1, 18482, Note_on_c, 0, 64, 65
1, 18483, Note_on_c, 0, 84, 87
1, 18485, Control_c, 0, 64, 45
1, 18500, Control_c, 0, 64, 62
1, 18515, Control_c, 0, 64, 67
1, 18519, Note_off_c, 0, 64, 60
1, 18522, Note_off_c, 0, 84, 62
1, 18530, Control_c, 0, 64, 72
1, 18544, Control_c, 0, 64, 88
1, 18554, Note_on_c, 0, 80, 72
1, 18559, Control_c, 0, 64, 127
1, 18587, Note_off_c, 0, 80, 68
1, 18599, Note_on_c, 0, 76, 60
1, 18617, Note_on_c, 0, 68, 43
1, 18624, Note_off_c, 0, 76, 64
1, 18629, Note_on_c, 0, 80, 76
1, 18644, Note_off_c, 0, 68, 54
1, 18656, Note_off_c, 0, 80, 68
1, 18656, Control_c, 0, 64, 78
1, 18664, Note_on_c, 0, 72, 70
1, 18670, Control_c, 0, 64, 44
1, 18685, Control_c, 0, 64, 0
1, 18689, Note_off_c, 0, 72, 69
1, 18723, Note_on_c, 0, 60, 71
1, 18728, Note_on_c, 0, 84, 77
1, 18730, Control_c, 0, 64, 44
1, 18744, Control_c, 0, 64, 61
1, 18756, Note_off_c, 0, 84, 66
1, 18757, Control_c, 0, 64, 70
1, 18772, Control_c, 0, 64, 84
1, 18778, Note_on_c, 0, 79, 67
1, 18785, Note_off_c, 0, 60, 57
1, 18787, Control_c, 0, 64, 127
1, 18806, Note_off_c, 0, 79, 67
1, 18863, Note_on_c, 0, 75, 57
1, 18876, Note_on_c, 0, 67, 39
1, 18887, Note_on_c, 0, 72, 74
1, 18894, Note_off_c, 0, 75, 58
1, 18915, Note_off_c, 0, 67, 50
1, 18918, Note_off_c, 0, 72, 64
1, 18921, Control_c, 0, 64, 100
1, 18935, Control_c, 0, 64, 65
1, 18950, Control_c, 0, 64, 0
1, 18961, Note_on_c, 0, 83, 57
1, 18974, Note_on_c, 0, 81, 45
1, 18978, Note_off_c, 0, 83, 63
1, 18986, Note_on_c, 0, 78, 22
1, 18993, Note_off_c, 0, 78, 40
1, 18996, Note_off_c, 0, 81, 59
1, 19007, Note_on_c, 0, 71, 64
1, 19038, Note_off_c, 0, 71, 66
1, 19060, Note_on_c, 0, 66, 46
1, 19061, Note_on_c, 0, 84, 81
1, 19082, Note_on_c, 0, 75, 24
1, 19083, Note_off_c, 0, 84, 68
1, 19094, Note_off_c, 0, 66, 62
1, 19113, Note_on_c, 0, 72, 53
1, 19114, Note_off_c, 0, 75, 46
1, 19148, Note_off_c, 0, 72, 65
1, 19173, Note_on_c, 0, 83, 80
1, 19173, Control_c, 0, 64, 51
1, 19176, Note_on_c, 0, 62, 51
1, 19188, Control_c, 0, 64, 60
1, 19202, Control_c, 0, 64, 65
1, 19213, Note_off_c, 0, 83, 58
1, 19217, Control_c, 0, 64, 74
1, 19222, Note_off_c, 0, 62, 56
1, 19232, Control_c, 0, 64, 93
1, 19247, Control_c, 0, 64, 127
1, 19252, Note_on_c, 0, 77, 57
1, 19287, Note_on_c, 0, 65, 51
1, 19298, Note_off_c, 0, 77, 0
1, 19309, Note_on_c, 0, 77, 51
1, 19320, Note_off_c, 0, 65, 65
1, 19344, Note_off_c, 0, 77, 63
1, 19370, Note_on_c, 0, 71, 70
1, 19417, Control_c, 0, 64, 84
1, 19424, Note_off_c, 0, 71, 54
1, 19432, Control_c, 0, 64, 64
1, 19447, Control_c, 0, 64, 26
1, 19461, Note_on_c, 0, 83, 70
1, 19462, Control_c, 0, 64, 0
1, 19462, Control_c, 0, 67, 13
1, 19463, Note_on_c, 0, 57, 61
1, 19477, Control_c, 0, 67, 20
1, 19491, Control_c, 0, 64, 47
1, 19491, Control_c, 0, 67, 27
1, 19507, Control_c, 0, 64, 61
1, 19507, Control_c, 0, 67, 37
1, 19522, Control_c, 0, 64, 65
1, 19522, Control_c, 0, 67, 48
1, 19526, Note_off_c, 0, 57, 64
1, 19529, Note_off_c, 0, 83, 57
1, 19537, Control_c, 0, 64, 69
1, 19537, Control_c, 0, 67, 58
1, 19552, Control_c, 0, 64, 72
1, 19552, Control_c, 0, 67, 69
1, 19553, Note_on_c, 0, 75, 54
1, 19566, Control_c, 0, 64, 74
1, 19566, Control_c, 0, 67, 82
1, 19581, Control_c, 0, 64, 74
1, 19581, Control_c, 0, 67, 95
1, 19582, Note_off_c, 0, 75, 65
1, 19596, Control_c, 0, 64, 75
1, 19596, Control_c, 0, 67, 112
1, 19610, Control_c, 0, 67, 127
1, 19625, Control_c, 0, 64, 75
1, 19636, Note_on_c, 0, 75, 54
1, 19640, Control_c, 0, 64, 76
1, 19651, Note_on_c, 0, 72, 47
1, 19654, Note_on_c, 0, 63, 50
1, 19670, Note_off_c, 0, 75, 64
1, 19698, Note_off_c, 0, 72, 60
1, 19699, Control_c, 0, 64, 75
1, 19703, Note_on_c, 0, 71, 59
1, 19714, Control_c, 0, 64, 74
1, 19722, Note_off_c, 0, 71, 65
1, 19729, Control_c, 0, 64, 72
1, 19741, Note_on_c, 0, 81, 67
1, 19744, Control_c, 0, 64, 65
1, 19749, Note_off_c, 0, 63, 51
1, 19759, Control_c, 0, 64, 52
1, 19774, Control_c, 0, 64, 17
1, 19788, Control_c, 0, 64, 0
1, 19789, Note_off_c, 0, 81, 57
1, 19809, Note_on_c, 0, 76, 58
1, 19877, Note_on_c, 0, 64, 52
1, 19892, Note_off_c, 0, 76, 59
1, 19899, Note_off_c, 0, 64, 61
1, 19906, Note_on_c, 0, 69, 67
1, 19940, Note_off_c, 0, 69, 64
1, 19973, Note_on_c, 0, 81, 74
1, 20015, Note_on_c, 0, 62, 42
1, 20018, Note_off_c, 0, 81, 63
1, 20033, Note_on_c, 0, 76, 68
1, 20097, Note_off_c, 0, 62, 63
1, 20098, Note_on_c, 0, 55, 52
1, 20120, Note_off_c, 0, 76, 60
1, 20125, Note_off_c, 0, 55, 62
1, 20159, Note_on_c, 0, 69, 68
1, 20183, Note_off_c, 0, 69, 67
1, 20251, Note_on_c, 0, 35, 62
1, 20300, Control_c, 0, 64, 33
1, 20311, Note_off_c, 0, 35, 59
1, 20312, Note_on_c, 0, 36, 62
1, 20315, Control_c, 0, 64, 49
1, 20330, Control_c, 0, 64, 59
1, 20345, Control_c, 0, 64, 64
1, 20345, Control_c, 0, 67, 116
1, 20358, Note_on_c, 0, 37, 71
1, 20360, Control_c, 0, 64, 68
1, 20360, Control_c, 0, 67, 87
1, 20363, Note_off_c, 0, 36, 60
1, 20375, Control_c, 0, 64, 75
1, 20375, Control_c, 0, 67, 56
1, 20389, Control_c, 0, 64, 89
1, 20389, Control_c, 0, 67, 24
1, 20404, Control_c, 0, 64, 127
1, 20404, Control_c, 0, 67, 0
1, 20425, Note_on_c, 0, 38, 74
1, 20428, Note_off_c, 0, 37, 61
1, 20485, Note_off_c, 0, 38, 50
1, 20486, Note_on_c, 0, 49, 77
1, 20488, Note_on_c, 0, 37, 65
1, 20538, Note_off_c, 0, 49, 63
1, 20545, Note_on_c, 0, 38, 61
1, 20552, Note_on_c, 0, 50, 82
1, 20575, Note_off_c, 0, 37, 60
1, 20604, Note_on_c, 0, 39, 80
1, 20606, Note_off_c, 0, 50, 60
1, 20614, Note_off_c, 0, 38, 60
1, 20617, Note_on_c, 0, 51, 85
1, 20656, Note_off_c, 0, 39, 63
1, 20658, Note_off_c, 0, 51, 67
1, 20668, Note_on_c, 0, 40, 77
1, 20689, Note_on_c, 0, 52, 78
1, 20718, Note_on_c, 0, 53, 49
1, 20733, Note_on_c, 0, 30, 75
1, 20743, Note_off_c, 0, 40, 60
1, 20753, Note_off_c, 0, 52, 65
1, 20770, Note_off_c, 0, 30, 64
1, 20793, Note_on_c, 0, 31, 69
1, 20799, Note_on_c, 0, 54, 90
1, 20803, Note_on_c, 0, 29, 31
1, 20818, Note_off_c, 0, 53, 62
1, 20844, Note_off_c, 0, 54, 65
1, 20862, Note_on_c, 0, 32, 80
1, 20862, Note_off_c, 0, 29, 49
1, 20881, Note_off_c, 0, 31, 61
1, 20886, Note_on_c, 0, 55, 61
1, 20909, Note_off_c, 0, 55, 59
1, 20909, Note_off_c, 0, 32, 63
1, 20917, Note_on_c, 0, 56, 53
1, 20945, Control_c, 0, 64, 50
1, 20948, Note_on_c, 0, 33, 99
1, 20949, Note_on_c, 0, 23, 83
1, 20951, Note_on_c, 0, 21, 89
1, 20953, Note_on_c, 0, 57, 94
1, 20957, Note_on_c, 0, 60, 88
1, 20959, Note_off_c, 0, 56, 0
1, 20959, Note_on_c, 0, 56, 29
1, 20960, Note_on_c, 0, 52, 81
1, 20960, Control_c, 0, 64, 0
1, 20975, Note_off_c, 0, 21, 66
1, 20977, Note_off_c, 0, 23, 68
1, 20984, Note_off_c, 0, 52, 70
1, 20990, Note_off_c, 0, 33, 65
1, 20993, Note_off_c, 0, 56, 61
1, 20998, Note_off_c, 0, 57, 67
1, 20999, Note_on_c, 0, 59, 25
1, 21000, Note_off_c, 0, 59, 127
1, 21012, Note_off_c, 0, 60, 66
1, 21226, Note_on_c, 0, 71, 69
1, 21234, Note_on_c, 0, 81, 74
1, 21251, Note_off_c, 0, 71, 67
1, 21283, Note_on_c, 0, 75, 74
1, 21290, Note_off_c, 0, 81, 63
1, 21306, Note_off_c, 0, 75, 67
1, 21328, Note_on_c, 0, 63, 57
1, 21357, Note_on_c, 0, 75, 69
1, 21364, Note_off_c, 0, 63, 62
1, 21387, Note_off_c, 0, 75, 63
1, 21393, Note_on_c, 0, 69, 72
1, 21419, Note_off_c, 0, 69, 69
1, 21459, Note_on_c, 0, 72, 65
1, 21460, Note_on_c, 0, 81, 75
1, 21491, Note_off_c, 0, 72, 65
1, 21509, Control_c, 0, 64, 49
1, 21518, Note_off_c, 0, 81, 64
1, 21524, Control_c, 0, 64, 59
1, 21527, Note_on_c, 0, 76, 64
1, 21539, Control_c, 0, 64, 64
1, 21553, Control_c, 0, 64, 72
1, 21558, Note_on_c, 0, 64, 55
1, 21561, Note_off_c, 0, 76, 0
1, 21568, Control_c, 0, 64, 90
1, 21591, Control_c, 0, 64, 127
1, 21598, Note_off_c, 0, 64, 65
1, 21606, Poly_aftertouch_c, 0, 76, 127
1, 21620, Poly_aftertouch_c, 0, 76, 0
1, 21652, Note_on_c, 0, 69, 78
1, 21679, Control_c, 0, 64, 83
1, 21688, Note_off_c, 0, 69, 62
1, 21694, Control_c, 0, 64, 62
1, 21708, Note_on_c, 0, 81, 81
1, 21709, Control_c, 0, 64, 30
1, 21710, Note_on_c, 0, 72, 67
1, 21724, Control_c, 0, 64, 39
1, 21739, Control_c, 0, 64, 59
1, 21746, Note_off_c, 0, 72, 62
1, 21753, Control_c, 0, 64, 66
1, 21766, Note_off_c, 0, 81, 65
1, 21768, Control_c, 0, 64, 73
1, 21774, Note_on_c, 0, 76, 74
1, 21783, Control_c, 0, 64, 86
1, 21798, Control_c, 0, 64, 127
1, 21799, Note_off_c, 0, 76, 68
1, 21814, Note_on_c, 0, 64, 63
1, 21862, Poly_aftertouch_c, 0, 76, 0
1, 21875, Note_off_c, 0, 64, 60
1, 21881, Note_on_c, 0, 69, 80
1, 21902, Control_c, 0, 64, 108
1, 21917, Control_c, 0, 64, 72
1, 21926, Note_off_c, 0, 69, 65
1, 21932, Control_c, 0, 64, 33
1, 21938, Note_on_c, 0, 73, 77
1, 21946, Control_c, 0, 64, 0
1, 21947, Note_on_c, 0, 82, 97
1, 21961, Control_c, 0, 64, 34
1, 21976, Control_c, 0, 64, 59
1, 21991, Control_c, 0, 64, 68
1, 21994, Note_off_c, 0, 73, 62
1, 22003, Note_on_c, 0, 70, 89
1, 22005, Control_c, 0, 64, 86
1, 22020, Control_c, 0, 64, 127
1, 22021, Note_off_c, 0, 82, 62
1, 22060, Note_off_c, 0, 70, 63
1, 22066, Note_on_c, 0, 77, 80
1, 22068, Note_on_c, 0, 65, 67
1, 22110, Note_off_c, 0, 65, 52
1, 22113, Note_on_c, 0, 70, 82
1, 22123, Note_off_c, 0, 77, 63
1, 22149, Note_off_c, 0, 70, 68
1, 22153, Control_c, 0, 64, 99
1, 22168, Control_c, 0, 64, 69
1, 22183, Control_c, 0, 64, 41
1, 22197, Control_c, 0, 64, 0
1, 22205, Note_on_c, 0, 83, 89
1, 22218, Note_on_c, 0, 74, 67
1, 22228, Control_c, 0, 64, 37
1, 22243, Control_c, 0, 64, 58
1, 22258, Control_c, 0, 64, 66
1, 22273, Control_c, 0, 64, 77
1, 22278, Note_off_c, 0, 74, 62
1, 22288, Note_on_c, 0, 71, 7
1, 22288, Control_c, 0, 64, 119
1, 22301, Note_on_c, 0, 66, 55
1, 22302, Control_c, 0, 64, 127
1, 22330, Note_on_c, 0, 78, 77
1, 22343, Note_off_c, 0, 66, 64
1, 22346, Note_off_c, 0, 71, 39
1, 22353, Note_off_c, 0, 83, 61
1, 22368, Note_on_c, 0, 71, 64
1, 22384, Control_c, 0, 64, 76
1, 22385, Note_off_c, 0, 78, 64
1, 22399, Control_c, 0, 64, 44
1, 22414, Control_c, 0, 64, 0
1, 22417, Note_off_c, 0, 71, 64
1, 22443, Control_c, 0, 64, 43
1, 22458, Control_c, 0, 64, 59
1, 22473, Control_c, 0, 64, 65
1, 22480, Note_on_c, 0, 65, 89
1, 22488, Control_c, 0, 64, 74
1, 22501, Control_c, 0, 64, 94
1, 22516, Control_c, 0, 64, 127
1, 22531, Note_on_c, 0, 62, 100
1, 22537, Note_off_c, 0, 65, 64
1, 22576, Note_off_c, 0, 62, 67
1, 22585, Note_on_c, 0, 57, 98
1, 22620, Control_c, 0, 64, 67
1, 22631, Note_off_c, 0, 57, 67
1, 22635, Control_c, 0, 64, 0
1, 22758, Note_on_c, 0, 83, 77
1, 22766, Note_on_c, 0, 73, 65
1, 22790, Note_off_c, 0, 73, 65
1, 22806, Note_off_c, 0, 83, 62
1, 22811, Note_on_c, 0, 76, 59
1, 22829, Note_off_c, 0, 76, 63
1, 22868, Note_on_c, 0, 64, 74
1, 22872, Control_c, 0, 64, 20
1, 22881, Note_on_c, 0, 76, 62
1, 22887, Control_c, 0, 64, 58
1, 22901, Control_c, 0, 64, 62
1, 22914, Note_off_c, 0, 64, 58
1, 22916, Control_c, 0, 64, 64
1, 22922, Note_off_c, 0, 76, 63
1, 22924, Note_on_c, 0, 71, 77
1, 22931, Control_c, 0, 64, 68
1, 22946, Control_c, 0, 64, 74
1, 22958, Note_off_c, 0, 71, 66
1, 22961, Control_c, 0, 64, 84
1, 22975, Control_c, 0, 64, 101
1, 22998, Note_on_c, 0, 83, 79
1, 23002, Note_on_c, 0, 74, 75
1, 23005, Control_c, 0, 64, 77
1, 23021, Control_c, 0, 64, 59
1, 23032, Note_off_c, 0, 83, 66
1, 23036, Control_c, 0, 64, 26
1, 23050, Note_on_c, 0, 77, 77
1, 23050, Control_c, 0, 64, 47
1, 23053, Note_off_c, 0, 74, 62
1, 23065, Control_c, 0, 64, 61
1, 23088, Control_c, 0, 64, 69
1, 23093, Note_off_c, 0, 77, 66
1, 23103, Control_c, 0, 64, 80
1, 23118, Note_on_c, 0, 65, 64
1, 23118, Control_c, 0, 64, 113
1, 23132, Control_c, 0, 64, 127
1, 23133, Note_on_c, 0, 77, 66
1, 23164, Note_off_c, 0, 65, 53
1, 23173, Note_off_c, 0, 77, 60
1, 23178, Note_on_c, 0, 71, 82
1, 23235, Note_off_c, 0, 71, 63
1, 23236, Control_c, 0, 64, 88
1, 23249, Note_on_c, 0, 83, 89
1, 23251, Note_on_c, 0, 74, 80
1, 23251, Control_c, 0, 64, 66
1, 23266, Control_c, 0, 64, 51
1, 23281, Control_c, 0, 64, 57
1, 23296, Control_c, 0, 64, 65
1, 23311, Note_on_c, 0, 78, 85
1, 23311, Control_c, 0, 64, 74
1, 23315, Note_off_c, 0, 74, 61
1, 23321, Note_off_c, 0, 83, 63
1, 23325, Control_c, 0, 64, 105
1, 23340, Control_c, 0, 64, 127
1, 23343, Note_off_c, 0, 78, 67
1, 23367, Note_on_c, 0, 66, 75
1, 23379, Note_on_c, 0, 78, 57
1, 23395, Note_on_c, 0, 71, 75
1, 23410, Note_off_c, 0, 78, 64
1, 23439, Note_off_c, 0, 66, 57
1, 23452, Note_off_c, 0, 71, 63
1, 23473, Note_on_c, 0, 84, 91
1, 23473, Control_c, 0, 64, 80
1, 23488, Control_c, 0, 64, 63
1, 23493, Note_on_c, 0, 75, 84
1, 23503, Control_c, 0, 64, 59
1, 23518, Control_c, 0, 64, 66
1, 23522, Note_on_c, 0, 72, 82
1, 23532, Control_c, 0, 64, 76
1, 23535, Note_off_c, 0, 84, 64
1, 23547, Control_c, 0, 64, 106
1, 23553, Note_off_c, 0, 75, 59
1, 23562, Control_c, 0, 64, 127
1, 23584, Note_on_c, 0, 79, 88
1, 23591, Note_off_c, 0, 72, 64
1, 23616, Note_on_c, 0, 67, 77
1, 23630, Note_off_c, 0, 79, 67
1, 23637, Control_c, 0, 64, 91
1, 23645, Note_on_c, 0, 72, 88
1, 23651, Control_c, 0, 64, 64
1, 23663, Note_off_c, 0, 67, 59
1, 23666, Control_c, 0, 64, 0
1, 23696, Control_c, 0, 64, 53
1, 23705, Note_off_c, 0, 72, 65
1, 23711, Control_c, 0, 64, 64
1, 23714, Note_on_c, 0, 85, 95
1, 23725, Note_on_c, 0, 76, 53
1, 23725, Control_c, 0, 64, 75
1, 23740, Control_c, 0, 64, 111
1, 23755, Control_c, 0, 64, 127
1, 23762, Note_off_c, 0, 76, 0
1, 23762, Note_on_c, 0, 76, 19
1, 23762, Note_on_c, 0, 73, 87
1, 23781, Note_off_c, 0, 85, 64
1, 23797, Note_off_c, 0, 76, 60
1, 23798, Note_on_c, 0, 68, 65
1, 23822, Note_off_c, 0, 73, 64
1, 23830, Note_on_c, 0, 80, 85
1, 23835, Note_off_c, 0, 68, 64
1, 23875, Note_on_c, 0, 73, 81
1, 23890, Note_off_c, 0, 80, 63
1, 23911, Control_c, 0, 64, 95
1, 23916, Note_off_c, 0, 73, 67
1, 23926, Control_c, 0, 64, 59
1, 23941, Control_c, 0, 64, 0
1, 23974, Note_on_c, 0, 67, 93
1, 24000, Control_c, 0, 64, 52
1, 24015, Control_c, 0, 64, 65
1, 24018, Note_on_c, 0, 64, 98
1, 24030, Note_off_c, 0, 67, 63
1, 24030, Control_c, 0, 64, 75
1, 24045, Control_c, 0, 64, 106
1, 24060, Control_c, 0, 64, 127
1, 24072, Note_off_c, 0, 64, 63
1, 24078, Note_on_c, 0, 57, 93
1, 24117, Note_off_c, 0, 57, 69
1, 24163, Control_c, 0, 64, 70
1, 24178, Control_c, 0, 64, 0
1, 24231, Note_on_c, 0, 86, 82
1, 24259, Note_on_c, 0, 77, 63
1, 24276, Note_off_c, 0, 86, 58
1, 24278, Note_off_c, 0, 77, 63
1, 24290, Note_on_c, 0, 74, 71
1, 24341, Control_c, 0, 64, 50
1, 24344, Note_on_c, 0, 81, 68
1, 24344, Note_off_c, 0, 74, 62
1, 24355, Control_c, 0, 64, 60
1, 24361, Note_on_c, 0, 69, 54
1, 24370, Control_c, 0, 64, 65
1, 24381, Note_off_c, 0, 81, 64
1, 24385, Control_c, 0, 64, 68
1, 24393, Note_off_c, 0, 69, 57
1, 24398, Note_on_c, 0, 74, 70
1, 24400, Control_c, 0, 64, 71
1, 24415, Control_c, 0, 64, 75
1, 24430, Control_c, 0, 64, 77
1, 24445, Control_c, 0, 64, 74
1, 24456, Note_off_c, 0, 74, 65
1, 24460, Control_c, 0, 64, 64
1, 24474, Control_c, 0, 64, 47
1, 24477, Note_on_c, 0, 87, 80
1, 24489, Control_c, 0, 64, 36
1, 24501, Note_on_c, 0, 78, 59
1, 24504, Control_c, 0, 64, 52
1, 24511, Note_off_c, 0, 87, 62
1, 24519, Control_c, 0, 64, 63
1, 24534, Control_c, 0, 64, 72
1, 24534, Note_on_c, 0, 75, 78
1, 24548, Control_c, 0, 64, 86
1, 24563, Control_c, 0, 64, 127
1, 24582, Note_off_c, 0, 78, 64
1, 24593, Note_off_c, 0, 75, 61
1, 24596, Note_on_c, 0, 82, 72
1, 24606, Note_on_c, 0, 70, 37
1, 24641, Note_off_c, 0, 70, 51
1, 24650, Note_on_c, 0, 75, 77
1, 24654, Note_off_c, 0, 82, 64
1, 24687, Note_off_c, 0, 75, 63
1, 24718, Note_on_c, 0, 74, 80
1, 24721, Note_on_c, 0, 88, 81
1, 24722, Note_on_c, 0, 62, 67
1, 24742, Note_off_c, 0, 62, 65
1, 24743, Note_off_c, 0, 74, 68
1, 24750, Note_on_c, 0, 86, 45
1, 24776, Note_off_c, 0, 86, 58
1, 24781, Note_off_c, 0, 88, 64
1, 24787, Note_on_c, 0, 76, 75
1, 24837, Note_off_c, 0, 76, 62
1, 24838, Note_on_c, 0, 83, 78
1, 24852, Note_on_c, 0, 71, 68
1, 24854, Note_on_c, 0, 79, 69
1, 24886, Note_off_c, 0, 79, 65
1, 24889, Note_off_c, 0, 83, 65
1, 24898, Note_on_c, 0, 76, 83
1, 24901, Note_off_c, 0, 71, 54
1, 24954, Note_off_c, 0, 76, 65
1, 24963, Note_on_c, 0, 89, 98
1, 25023, Note_on_c, 0, 77, 89
1, 25027, Note_off_c, 0, 89, 60
1, 25071, Note_on_c, 0, 80, 65
1, 25081, Note_on_c, 0, 84, 89
1, 25089, Note_on_c, 0, 72, 51
1, 25092, Note_off_c, 0, 77, 64
1, 25109, Note_off_c, 0, 80, 56
1, 25116, Note_off_c, 0, 72, 60
1, 25134, Note_off_c, 0, 84, 65
1, 25159, Note_on_c, 0, 77, 93
1, 25205, Note_off_c, 0, 77, 67
1, 25211, Note_on_c, 0, 90, 100
1, 25280, Note_on_c, 0, 78, 91
1, 25285, Note_off_c, 0, 90, 59
1, 25286, Note_on_c, 0, 73, 44
1, 25312, Note_off_c, 0, 73, 53
1, 25353, Note_off_c, 0, 78, 61
1, 25357, Note_on_c, 0, 85, 79
1, 25416, Note_on_c, 0, 78, 75
1, 25422, Note_off_c, 0, 85, 65
1, 25439, Control_c, 0, 64, 77
1, 25452, Note_off_c, 0, 78, 65
1, 25454, Control_c, 0, 64, 46
1, 25469, Control_c, 0, 64, 0
1, 25483, Control_c, 0, 64, 26
1, 25488, Note_on_c, 0, 70, 50
1, 25497, Note_on_c, 0, 91, 85
1, 25498, Control_c, 0, 64, 55
1, 25506, Note_on_c, 0, 62, 58
1, 25513, Control_c, 0, 64, 65
1, 25527, Note_off_c, 0, 70, 65
1, 25527, Control_c, 0, 64, 77
1, 25542, Control_c, 0, 64, 127
1, 25554, Note_off_c, 0, 91, 63
1, 25557, Note_off_c, 0, 62, 53
1, 25560, Note_on_c, 0, 79, 69
1, 25582, Note_on_c, 0, 55, 62
1, 25612, Note_off_c, 0, 55, 64
1, 25614, Note_off_c, 0, 79, 64
1, 25624, Note_on_c, 0, 86, 73
1, 25667, Note_on_c, 0, 79, 72
1, 25675, Note_off_c, 0, 86, 53
1, 25718, Note_off_c, 0, 79, 66
1, 25723, Note_on_c, 0, 89, 94
1, 25783, Note_off_c, 0, 89, 61
1, 25786, Note_on_c, 0, 77, 90
1, 25795, Note_on_c, 0, 82, 34
1, 25817, Note_on_c, 0, 73, 66
1, 25824, Note_off_c, 0, 82, 61
1, 25839, Note_off_c, 0, 77, 62
1, 25843, Note_off_c, 0, 73, 66
1, 25844, Note_on_c, 0, 91, 103
1, 25899, Note_off_c, 0, 91, 63
1, 25902, Note_on_c, 0, 79, 85
1, 25942, Control_c, 0, 64, 113
1, 25957, Control_c, 0, 64, 73
1, 25970, Note_on_c, 0, 73, 64
1, 25970, Note_off_c, 0, 79, 58
1, 25972, Control_c, 0, 64, 58
1, 25981, Note_on_c, 0, 67, 59
1, 25987, Note_on_c, 0, 89, 96
1, 25987, Control_c, 0, 64, 59
1, 25992, Note_on_c, 0, 88, 77
1, 26001, Control_c, 0, 64, 66
1, 26013, Note_off_c, 0, 73, 65
1, 26016, Control_c, 0, 64, 77
1, 26017, Note_off_c, 0, 67, 64
1, 26031, Control_c, 0, 64, 101
1, 26043, Note_off_c, 0, 88, 56
1, 26045, Note_off_c, 0, 89, 63
1, 26045, Control_c, 0, 64, 127
1, 26048, Note_on_c, 0, 77, 84
1, 26087, Note_on_c, 0, 57, 46
1, 26117, Note_off_c, 0, 57, 56
1, 26117, Note_on_c, 0, 85, 86
1, 26117, Note_off_c, 0, 77, 62
1, 26163, Note_off_c, 0, 85, 66
1, 26182, Note_on_c, 0, 77, 87
1, 26216, Control_c, 0, 64, 70
1, 26231, Note_on_c, 0, 68, 46
1, 26232, Control_c, 0, 64, 0
1, 26234, Note_on_c, 0, 60, 44
1, 26236, Note_off_c, 0, 77, 62
1, 26241, Note_on_c, 0, 89, 101
1, 26281, Note_off_c, 0, 68, 62
1, 26291, Control_c, 0, 64, 50
1, 26306, Control_c, 0, 64, 63
1, 26308, Note_off_c, 0, 89, 62
1, 26313, Note_on_c, 0, 77, 77
1, 26321, Control_c, 0, 64, 71
1, 26336, Control_c, 0, 64, 84
1, 26343, Note_on_c, 0, 53, 57
1, 26346, Note_off_c, 0, 60, 61
1, 26350, Control_c, 0, 64, 97
1, 26365, Control_c, 0, 64, 99
1, 26367, Note_off_c, 0, 53, 59
1, 26373, Note_on_c, 0, 84, 82
1, 26378, Note_off_c, 0, 77, 62
1, 26380, Control_c, 0, 64, 98
1, 26410, Control_c, 0, 64, 98
1, 26425, Note_off_c, 0, 84, 62
1, 26442, Note_on_c, 0, 77, 66
1, 26454, Control_c, 0, 64, 98
1, 26478, Note_off_c, 0, 77, 63
1, 26484, Control_c, 0, 64, 98
1, 26487, Note_on_c, 0, 88, 79
1, 26513, Control_c, 0, 64, 97
1, 26528, Control_c, 0, 64, 96
1, 26537, Note_off_c, 0, 88, 66
1, 26543, Control_c, 0, 64, 96
1, 26555, Note_on_c, 0, 76, 76
1, 26558, Control_c, 0, 64, 95
1, 26592, Note_on_c, 0, 80, 22
1, 26599, Note_off_c, 0, 76, 62
1, 26610, Note_on_c, 0, 72, 51
1, 26613, Note_on_c, 0, 89, 97
1, 26623, Note_off_c, 0, 80, 50
1, 26630, Note_off_c, 0, 72, 60
1, 26632, Control_c, 0, 64, 96
1, 26661, Control_c, 0, 64, 95
1, 26676, Control_c, 0, 64, 93
1, 26682, Note_on_c, 0, 77, 77
1, 26689, Note_off_c, 0, 89, 64
1, 26691, Control_c, 0, 64, 92
1, 26706, Control_c, 0, 64, 91
1, 26721, Control_c, 0, 64, 91
1, 26737, Note_off_c, 0, 77, 59
1, 26750, Control_c, 0, 64, 89
1, 26765, Control_c, 0, 64, 78
1, 26772, Note_on_c, 0, 88, 95
1, 26780, Control_c, 0, 64, 67
1, 26785, Note_on_c, 0, 71, 60
1, 26795, Control_c, 0, 64, 60
1, 26810, Control_c, 0, 64, 57
1, 26811, Note_on_c, 0, 65, 27
1, 26824, Note_on_c, 0, 64, 39
1, 26832, Control_c, 0, 64, 62
1, 26847, Control_c, 0, 64, 68
1, 26861, Note_off_c, 0, 71, 62
1, 26862, Control_c, 0, 64, 80
1, 26863, Note_on_c, 0, 76, 74
1, 26876, Control_c, 0, 64, 99
1, 26889, Note_off_c, 0, 88, 61
1, 26891, Control_c, 0, 64, 127
1, 26916, Note_off_c, 0, 65, 57
1, 26928, Note_on_c, 0, 55, 63
1, 26941, Note_on_c, 0, 83, 89
1, 26944, Note_off_c, 0, 76, 61
1, 26964, Note_off_c, 0, 64, 35
1, 26966, Note_off_c, 0, 55, 64
1, 27007, Note_off_c, 0, 83, 60
1, 27013, Note_on_c, 0, 76, 84
1, 27124, Note_on_c, 0, 38, 74
1, 27129, Control_c, 0, 64, 111
1, 27144, Control_c, 0, 64, 67
1, 27159, Control_c, 0, 64, 0
1, 27192, Note_on_c, 0, 88, 97
1, 27233, Control_c, 0, 64, 54
1, 27236, Note_off_c, 0, 38, 63
1, 27247, Control_c, 0, 64, 64
1, 27262, Control_c, 0, 64, 70
1, 27277, Control_c, 0, 64, 78
1, 27291, Control_c, 0, 64, 85
1, 27297, Note_off_c, 0, 76, 63
1, 27299, Note_off_c, 0, 88, 59
1, 27306, Control_c, 0, 64, 92
1, 27311, Note_on_c, 0, 79, 71
1, 27321, Control_c, 0, 64, 99
1, 27336, Control_c, 0, 64, 107
1, 27340, Note_off_c, 0, 79, 65
1, 27351, Control_c, 0, 64, 110
1, 27364, Note_on_c, 0, 58, 76
1, 27381, Control_c, 0, 64, 109
1, 27381, Note_on_c, 0, 76, 69
1, 27396, Control_c, 0, 64, 108
1, 27416, Note_off_c, 0, 76, 64
1, 27425, Control_c, 0, 64, 107
1, 27432, Note_on_c, 0, 79, 80
1, 27440, Control_c, 0, 64, 105
1, 27455, Control_c, 0, 64, 102
1, 27470, Control_c, 0, 64, 101
1, 27484, Control_c, 0, 64, 100
1, 27488, Note_off_c, 0, 79, 65
1, 27492, Note_on_c, 0, 76, 82
1, 27514, Control_c, 0, 64, 99
1, 27529, Control_c, 0, 64, 99
1, 27544, Control_c, 0, 64, 97
1, 27545, Note_off_c, 0, 76, 62
1, 27548, Note_on_c, 0, 79, 74
1, 27566, Control_c, 0, 64, 94
1, 27581, Control_c, 0, 64, 91
1, 27595, Control_c, 0, 64, 88
1, 27600, Note_on_c, 0, 74, 87
1, 27601, Note_on_c, 0, 62, 72
1, 27610, Control_c, 0, 64, 86
1, 27624, Note_off_c, 0, 79, 64
1, 27625, Control_c, 0, 64, 85
1, 27640, Control_c, 0, 64, 84
1, 27655, Control_c, 0, 64, 82
1, 27658, Note_off_c, 0, 74, 65
1, 27666, Note_on_c, 0, 67, 79
1, 27670, Control_c, 0, 64, 77
1, 27685, Control_c, 0, 64, 74
1, 27699, Control_c, 0, 64, 73
1, 27712, Note_off_c, 0, 67, 66
1, 27714, Control_c, 0, 64, 74
1, 27729, Control_c, 0, 64, 75
1, 27736, Note_on_c, 0, 74, 85
1, 27744, Control_c, 0, 64, 76
1, 27759, Control_c, 0, 64, 78
1, 27773, Control_c, 0, 64, 82
1, 27788, Control_c, 0, 64, 89
1, 27803, Control_c, 0, 64, 100
1, 27807, Note_on_c, 0, 79, 83
1, 27819, Control_c, 0, 64, 123
1, 27825, Note_on_c, 0, 70, 75
1, 27826, Note_off_c, 0, 74, 57
1, 27834, Control_c, 0, 64, 127
1, 27849, Note_off_c, 0, 70, 70
1, 27867, Note_off_c, 0, 58, 61
1, 27874, Note_off_c, 0, 62, 62
1, 27894, Note_on_c, 0, 86, 102
1, 27902, Note_off_c, 0, 79, 67
1, 27991, Note_on_c, 0, 79, 77
1, 28008, Note_off_c, 0, 86, 62
1, 28026, Control_c, 0, 64, 109
1, 28041, Control_c, 0, 64, 69
1, 28056, Control_c, 0, 64, 0
1, 28060, Note_on_c, 0, 39, 72
1, 28078, Note_off_c, 0, 79, 65
1, 28089, Note_on_c, 0, 86, 92
1, 28100, Control_c, 0, 64, 46
1, 28114, Control_c, 0, 64, 61
1, 28129, Note_off_c, 0, 39, 63
1, 28129, Control_c, 0, 64, 68
1, 28144, Control_c, 0, 64, 77
1, 28159, Control_c, 0, 64, 89
1, 28165, Note_off_c, 0, 86, 62
1, 28174, Control_c, 0, 64, 94
1, 28177, Note_on_c, 0, 78, 68
1, 28204, Note_off_c, 0, 78, 68
1, 28228, Note_on_c, 0, 74, 59
1, 28260, Note_on_c, 0, 57, 59
1, 28262, Note_off_c, 0, 74, 64
1, 28263, Control_c, 0, 64, 93
1, 28278, Note_on_c, 0, 78, 81
1, 28329, Control_c, 0, 64, 91
1, 28344, Control_c, 0, 64, 89
1, 28347, Note_off_c, 0, 78, 63
1, 28353, Note_on_c, 0, 74, 75
1, 28359, Control_c, 0, 64, 87
1, 28374, Control_c, 0, 64, 86
1, 28403, Control_c, 0, 64, 86
1, 28412, Note_on_c, 0, 78, 77
1, 28412, Note_off_c, 0, 74, 57
1, 28418, Control_c, 0, 64, 84
1, 28433, Control_c, 0, 64, 82
1, 28448, Control_c, 0, 64, 80
1, 28463, Control_c, 0, 64, 79
1, 28463, Note_on_c, 0, 73, 78
1, 28466, Note_on_c, 0, 61, 61
1, 28478, Control_c, 0, 64, 78
1, 28480, Note_off_c, 0, 78, 63
1, 28493, Control_c, 0, 64, 76
1, 28499, Note_off_c, 0, 57, 62
1, 28508, Control_c, 0, 64, 75
1, 28517, Note_off_c, 0, 73, 64
1, 28522, Control_c, 0, 64, 75
1, 28523, Note_on_c, 0, 66, 77
1, 28552, Control_c, 0, 64, 75
1, 28567, Control_c, 0, 64, 76
1, 28576, Note_off_c, 0, 66, 62
1, 28585, Note_on_c, 0, 73, 78
1, 28654, Note_on_c, 0, 78, 76
1, 28657, Control_c, 0, 64, 76
1, 28662, Note_off_c, 0, 73, 65
1, 28686, Control_c, 0, 64, 77
1, 28690, Note_on_c, 0, 69, 69
1, 28701, Control_c, 0, 64, 77
1, 28710, Note_off_c, 0, 61, 61
1, 28716, Note_on_c, 0, 85, 92
1, 28716, Control_c, 0, 64, 78
1, 28716, Control_c, 0, 67, 11
1, 28719, Note_off_c, 0, 69, 68
1, 28723, Note_off_c, 0, 78, 64
1, 28731, Control_c, 0, 67, 33
1, 28745, Control_c, 0, 64, 79
1, 28745, Control_c, 0, 67, 41
1, 28760, Control_c, 0, 67, 44
1, 28775, Control_c, 0, 64, 76
1, 28775, Control_c, 0, 67, 49
1, 28790, Control_c, 0, 64, 65
1, 28790, Control_c, 0, 67, 61
1, 28796, Note_on_c, 0, 78, 76
1, 28797, Note_off_c, 0, 85, 65
1, 28805, Control_c, 0, 64, 0
1, 28805, Control_c, 0, 67, 82
1, 28819, Control_c, 0, 67, 105
1, 28834, Control_c, 0, 67, 123
1, 28849, Control_c, 0, 67, 127
1, 28854, Note_on_c, 0, 85, 80
1, 28858, Note_off_c, 0, 78, 66
1, 28859, Note_on_c, 0, 40, 58
1, 28873, Note_on_c, 0, 41, 51
1, 28878, Control_c, 0, 64, 52
1, 28890, Note_off_c, 0, 40, 64
1, 28893, Control_c, 0, 64, 63
1, 28904, Note_off_c, 0, 41, 55
1, 28908, Control_c, 0, 64, 66
1, 28923, Control_c, 0, 64, 67
1, 28930, Note_on_c, 0, 77, 71
1, 28937, Control_c, 0, 64, 69
1, 28939, Note_off_c, 0, 85, 65
1, 28952, Control_c, 0, 64, 72
1, 28961, Note_off_c, 0, 77, 64
1, 28967, Control_c, 0, 64, 76
1, 28982, Note_on_c, 0, 73, 61
1, 28982, Control_c, 0, 64, 79
1, 28997, Control_c, 0, 64, 83
1, 28999, Note_off_c, 0, 73, 64
1, 29011, Control_c, 0, 64, 86
1, 29026, Control_c, 0, 64, 88
1, 29044, Note_on_c, 0, 77, 83
1, 29059, Note_on_c, 0, 57, 39
1, 29068, Note_on_c, 0, 59, 41
1, 29078, Control_c, 0, 64, 89
1, 29093, Control_c, 0, 64, 92
1, 29108, Control_c, 0, 64, 98
1, 29110, Note_on_c, 0, 73, 63
1, 29110, Note_off_c, 0, 59, 52
1, 29111, Note_off_c, 0, 77, 62
1, 29123, Control_c, 0, 64, 102
1, 29138, Control_c, 0, 64, 106
1, 29152, Control_c, 0, 64, 110
1, 29159, Note_off_c, 0, 73, 64
1, 29167, Control_c, 0, 64, 111
1, 29173, Note_on_c, 0, 77, 77
1, 29229, Note_on_c, 0, 72, 78
1, 29233, Note_off_c, 0, 77, 62
1, 29250, Note_on_c, 0, 60, 60
1, 29269, Note_off_c, 0, 57, 54
1, 29277, Note_off_c, 0, 72, 64
1, 29278, Note_on_c, 0, 65, 72
1, 29284, Control_c, 0, 64, 112
1, 29299, Control_c, 0, 64, 116
1, 29314, Control_c, 0, 64, 127
1, 29327, Note_off_c, 0, 65, 63
1, 29360, Note_on_c, 0, 72, 64
1, 29396, Note_off_c, 0, 72, 66
1, 29406, Note_on_c, 0, 77, 74
1, 29462, Note_on_c, 0, 69, 64
1, 29475, Note_on_c, 0, 84, 86
1, 29475, Note_off_c, 0, 77, 62
1, 29479, Note_off_c, 0, 60, 64
1, 29488, Note_off_c, 0, 69, 65
1, 29518, Poly_aftertouch_c, 0, 81, 127
1, 29540, Note_off_c, 0, 84, 62
1, 29548, Poly_aftertouch_c, 0, 81, 0
1, 29548, Note_on_c, 0, 77, 72
1, 29566, Control_c, 0, 64, 81
1, 29581, Control_c, 0, 64, 57
1, 29596, Control_c, 0, 64, 0
1, 29611, Control_c, 0, 64, 20
1, 29614, Note_off_c, 0, 77, 63
1, 29614, Note_on_c, 0, 84, 79
1, 29626, Control_c, 0, 64, 52
1, 29637, Note_on_c, 0, 41, 38
1, 29640, Control_c, 0, 64, 60
1, 29647, Note_on_c, 0, 43, 32
1, 29655, Control_c, 0, 64, 65
1, 29670, Control_c, 0, 64, 70
1, 29671, Note_off_c, 0, 84, 63
1, 29676, Note_off_c, 0, 41, 52
1, 29679, Note_on_c, 0, 76, 61
1, 29684, Note_off_c, 0, 43, 41
1, 29685, Control_c, 0, 64, 76
1, 29700, Control_c, 0, 64, 86
1, 29708, Note_off_c, 0, 76, 66
1, 29715, Control_c, 0, 64, 98
1, 29730, Control_c, 0, 64, 116
1, 29743, Note_on_c, 0, 72, 56
1, 29745, Control_c, 0, 64, 127
1, 29767, Note_off_c, 0, 72, 66
1, 29774, Control_c, 0, 64, 119
1, 29789, Note_on_c, 0, 76, 73
1, 29789, Control_c, 0, 64, 116
1, 29797, Note_on_c, 0, 57, 52
1, 29804, Control_c, 0, 64, 117
1, 29826, Control_c, 0, 64, 123
1, 29840, Control_c, 0, 64, 127
1, 29861, Note_off_c, 0, 76, 62
1, 29867, Note_on_c, 0, 72, 64
1, 29885, Control_c, 0, 64, 121
1, 29900, Control_c, 0, 64, 113
1, 29915, Control_c, 0, 64, 102
1, 29924, Note_off_c, 0, 72, 62
1, 29930, Control_c, 0, 64, 90
1, 29935, Note_on_c, 0, 76, 68
1, 29944, Control_c, 0, 64, 80
1, 29959, Control_c, 0, 64, 77
1, 29974, Control_c, 0, 64, 78
1, 29982, Note_on_c, 0, 71, 76
1, 29989, Control_c, 0, 64, 80
1, 29997, Note_off_c, 0, 76, 64
1, 30004, Control_c, 0, 64, 85
1, 30019, Control_c, 0, 64, 94
1, 30032, Note_on_c, 0, 59, 62
1, 30034, Control_c, 0, 64, 105
1, 30036, Note_off_c, 0, 71, 64
1, 30047, Note_on_c, 0, 64, 71
1, 30048, Control_c, 0, 64, 107
1, 30063, Control_c, 0, 64, 108
1, 30067, Note_off_c, 0, 57, 50
1, 30078, Control_c, 0, 64, 109
1, 30081, Note_off_c, 0, 64, 65
1, 30092, Control_c, 0, 64, 110
1, 30114, Note_on_c, 0, 71, 72
1, 30135, Note_off_c, 0, 59, 58
1, 30137, Control_c, 0, 64, 108
1, 30166, Control_c, 0, 64, 109
1, 30169, Note_off_c, 0, 71, 64
1, 30178, Note_on_c, 0, 76, 67
1, 30181, Control_c, 0, 64, 110
1, 30196, Control_c, 0, 64, 110
1, 30226, Note_on_c, 0, 69, 63
1, 30227, Control_c, 0, 64, 109
1, 30242, Control_c, 0, 64, 108
1, 30243, Note_off_c, 0, 76, 63
1, 30245, Note_on_c, 0, 83, 79
1, 30245, Note_off_c, 0, 69, 65
1, 30256, Control_c, 0, 64, 107
1, 30301, Control_c, 0, 64, 97
1, 30307, Note_off_c, 0, 83, 62
1, 30315, Control_c, 0, 64, 76
1, 30320, Note_on_c, 0, 76, 64
1, 30330, Control_c, 0, 64, 52
1, 30345, Control_c, 0, 64, 0
1, 30371, Note_on_c, 0, 42, 70
1, 30381, Note_off_c, 0, 76, 57
1, 30388, Note_on_c, 0, 83, 75
1, 30389, Control_c, 0, 64, 21
1, 30401, Note_off_c, 0, 42, 65
1, 30404, Control_c, 0, 64, 55
1, 30419, Control_c, 0, 64, 63
1, 30434, Control_c, 0, 64, 67
1, 30445, Note_off_c, 0, 83, 61
1, 30446, Note_on_c, 0, 75, 62
1, 30449, Control_c, 0, 64, 69
1, 30463, Control_c, 0, 64, 70
1, 30474, Note_off_c, 0, 75, 65
1, 30478, Control_c, 0, 64, 72
1, 30493, Control_c, 0, 64, 73
1, 30513, Note_on_c, 0, 71, 63
1, 30523, Control_c, 0, 64, 72
1, 30561, Note_on_c, 0, 57, 55
1, 30563, Note_off_c, 0, 71, 53
1, 30570, Note_on_c, 0, 75, 65
1, 30575, Control_c, 0, 64, 73
1, 30604, Control_c, 0, 64, 74
1, 30619, Control_c, 0, 64, 75
1, 30634, Control_c, 0, 64, 77
1, 30642, Note_off_c, 0, 75, 62
1, 30649, Control_c, 0, 64, 78
1, 30650, Note_on_c, 0, 71, 59
1, 30663, Control_c, 0, 64, 79
1, 30678, Control_c, 0, 64, 79
1, 30693, Control_c, 0, 64, 80
1, 30705, Note_on_c, 0, 75, 70
1, 30705, Note_off_c, 0, 71, 56
1, 30737, Control_c, 0, 64, 81
1, 30753, Control_c, 0, 64, 81
1, 30768, Control_c, 0, 64, 82
1, 30780, Note_off_c, 0, 57, 60
1, 30783, Control_c, 0, 64, 83
1, 30788, Note_off_c, 0, 75, 62
1, 30791, Note_on_c, 0, 70, 69
1, 30791, Note_on_c, 0, 58, 55
1, 30797, Control_c, 0, 64, 83
1, 30842, Note_off_c, 0, 70, 63
1, 30866, Note_on_c, 0, 63, 60
1, 30871, Control_c, 0, 64, 83
1, 30899, Note_off_c, 0, 58, 57
1, 30901, Control_c, 0, 64, 82
1, 30902, Note_off_c, 0, 63, 62
1, 30916, Control_c, 0, 64, 82
1, 30943, Note_on_c, 0, 70, 58
1, 30961, Control_c, 0, 64, 83
1, 30976, Control_c, 0, 64, 86
1, 30990, Control_c, 0, 64, 88
1, 31005, Control_c, 0, 64, 89
1, 31015, Note_off_c, 0, 70, 58
1, 31028, Note_on_c, 0, 75, 66
1, 31032, Note_on_c, 0, 69, 58
1, 31035, Control_c, 0, 64, 91
1, 31050, Control_c, 0, 64, 95
1, 31052, Note_off_c, 0, 69, 64
1, 31065, Control_c, 0, 64, 101
1, 31080, Control_c, 0, 64, 108
1, 31095, Control_c, 0, 64, 112
1, 31104, Note_off_c, 0, 75, 60
1, 31110, Control_c, 0, 64, 113
1, 31118, Note_on_c, 0, 82, 74
1, 31125, Control_c, 0, 64, 115
1, 31154, Control_c, 0, 64, 113
1, 31169, Control_c, 0, 64, 110
1, 31184, Control_c, 0, 64, 106
1, 31198, Note_off_c, 0, 82, 62
1, 31199, Control_c, 0, 64, 101
1, 31213, Control_c, 0, 64, 94
1, 31226, Note_on_c, 0, 75, 60
1, 31228, Control_c, 0, 64, 81
1, 31243, Control_c, 0, 64, 65
1, 31258, Control_c, 0, 64, 43
1, 31268, Note_on_c, 0, 40, 41
1, 31273, Control_c, 0, 64, 0
1, 31300, Note_off_c, 0, 75, 54
1, 31310, Control_c, 0, 64, 39
1, 31319, Note_on_c, 0, 82, 55
1, 31325, Control_c, 0, 64, 57
1, 31339, Control_c, 0, 64, 66
1, 31346, Note_off_c, 0, 40, 62
1, 31354, Control_c, 0, 64, 73
1, 31369, Control_c, 0, 64, 80
1, 31373, Note_on_c, 0, 74, 53
1, 31384, Control_c, 0, 64, 83
1, 31396, Note_off_c, 0, 82, 60
1, 31399, Control_c, 0, 64, 86
1, 31409, Note_off_c, 0, 74, 60
1, 31413, Control_c, 0, 64, 90
1, 31428, Control_c, 0, 64, 97
1, 31441, Note_on_c, 0, 70, 58
1, 31443, Control_c, 0, 64, 102
1, 31458, Control_c, 0, 64, 104
1, 31461, Note_off_c, 0, 70, 63
1, 31472, Control_c, 0, 64, 106
1, 31487, Control_c, 0, 64, 113
1, 31502, Control_c, 0, 64, 127
1, 31503, Note_on_c, 0, 56, 49
1, 31533, Note_on_c, 0, 74, 46
1, 31586, Note_off_c, 0, 74, 62
1, 31591, Note_on_c, 0, 70, 58
1, 31644, Note_off_c, 0, 56, 59
1, 31649, Note_off_c, 0, 70, 61
1, 31663, Note_on_c, 0, 74, 76
1, 31704, Note_on_c, 0, 57, 57
1, 31715, Note_on_c, 0, 69, 87
1, 31733, Note_off_c, 0, 74, 60
1, 31786, Note_off_c, 0, 69, 65
1, 31797, Note_on_c, 0, 62, 77
1, 31799, Control_c, 0, 64, 113
1, 31814, Control_c, 0, 64, 107
1, 31829, Control_c, 0, 64, 105
1, 31843, Control_c, 0, 64, 101
1, 31858, Control_c, 0, 64, 91
1, 31859, Note_off_c, 0, 62, 62
1, 31870, Note_on_c, 0, 69, 94
1, 31870, Note_on_c, 0, 58, 54
1, 31873, Note_on_c, 0, 64, 57
1, 31873, Control_c, 0, 64, 78
1, 31888, Note_off_c, 0, 57, 36
1, 31888, Control_c, 0, 64, 69
1, 31903, Control_c, 0, 64, 69
1, 31915, Note_off_c, 0, 64, 46
1, 31918, Control_c, 0, 64, 75
1, 31933, Control_c, 0, 64, 83
1, 31948, Control_c, 0, 64, 94
1, 31955, Note_on_c, 0, 76, 85
1, 31962, Control_c, 0, 64, 100
1, 31965, Note_off_c, 0, 69, 60
1, 31977, Control_c, 0, 64, 102
1, 31991, Note_on_c, 0, 74, 45
1, 31992, Control_c, 0, 64, 102
1, 31994, Note_on_c, 0, 59, 55
1, 31999, Note_off_c, 0, 58, 58
1, 32004, Note_on_c, 0, 68, 89
1, 32007, Control_c, 0, 64, 105
1, 32022, Control_c, 0, 64, 110
1, 32022, Note_off_c, 0, 59, 64
1, 32034, Note_off_c, 0, 74, 41
1, 32036, Control_c, 0, 64, 121
1, 32041, Note_off_c, 0, 76, 58
1, 32058, Control_c, 0, 64, 127
1, 32106, Note_off_c, 0, 68, 59
1, 32107, Note_on_c, 0, 62, 75
1, 32117, Control_c, 0, 64, 121
1, 32132, Control_c, 0, 64, 117
1, 32147, Control_c, 0, 64, 111
1, 32162, Control_c, 0, 64, 106
1, 32177, Control_c, 0, 64, 97
1, 32189, Note_off_c, 0, 62, 60
1, 32192, Control_c, 0, 64, 88
1, 32195, Note_on_c, 0, 45, 54
1, 32207, Control_c, 0, 64, 76
1, 32220, Note_on_c, 0, 68, 71
1, 32222, Control_c, 0, 64, 65
1, 32236, Control_c, 0, 64, 49
1, 32251, Control_c, 0, 64, 0
1, 32266, Control_c, 0, 64, 15
1, 32280, Control_c, 0, 64, 45
1, 32295, Control_c, 0, 64, 58
1, 32310, Control_c, 0, 64, 64
1, 32325, Control_c, 0, 64, 68
1, 32338, Note_on_c, 0, 72, 53
1, 32340, Control_c, 0, 64, 74
1, 32354, Control_c, 0, 64, 82
1, 32369, Control_c, 0, 64, 86
1, 32384, Control_c, 0, 64, 86
1, 32399, Note_off_c, 0, 72, 47
1, 32409, Note_on_c, 0, 51, 49
1, 32439, Note_on_c, 0, 63, 47
1, 32450, Note_off_c, 0, 68, 20
1, 32473, Control_c, 0, 64, 86
1, 32487, Control_c, 0, 64, 85
1, 32502, Control_c, 0, 64, 85
1, 32504, Note_off_c, 0, 63, 52
1, 32509, Note_on_c, 0, 60, 56
1, 32532, Control_c, 0, 64, 84
1, 32547, Control_c, 0, 64, 83
1, 32562, Control_c, 0, 64, 82
1, 32571, Note_off_c, 0, 60, 53
1, 32577, Control_c, 0, 64, 80
1, 32591, Control_c, 0, 64, 77
1, 32607, Control_c, 0, 64, 70
1, 32616, Note_on_c, 0, 69, 53
1, 32622, Control_c, 0, 64, 62
1, 32632, Note_on_c, 0, 52, 38
1, 32637, Control_c, 0, 64, 44
1, 32651, Note_off_c, 0, 51, 38
1, 32652, Control_c, 0, 64, 30
1, 32666, Control_c, 0, 64, 32
1, 32681, Control_c, 0, 64, 45
1, 32696, Control_c, 0, 64, 57
1, 32711, Control_c, 0, 64, 64
1, 32726, Control_c, 0, 64, 70
1, 32733, Note_on_c, 0, 60, 45
1, 32741, Control_c, 0, 64, 76
1, 32755, Control_c, 0, 64, 81
1, 32770, Control_c, 0, 64, 84
1, 32778, Note_off_c, 0, 69, 32
1, 32785, Control_c, 0, 64, 85
1, 32789, Note_off_c, 0, 52, 64
1, 32837, Control_c, 0, 64, 86
1, 32846, Note_on_c, 0, 57, 43
1, 32852, Control_c, 0, 64, 89
1, 32860, Note_off_c, 0, 45, 62
1, 32866, Control_c, 0, 64, 92
1, 32881, Control_c, 0, 64, 93
1, 32910, Control_c, 0, 64, 93
1, 32929, Note_off_c, 0, 60, 33
1, 32940, Control_c, 0, 64, 92
1, 32955, Control_c, 0, 64, 92
1, 32970, Control_c, 0, 64, 91
1, 32985, Control_c, 0, 64, 90
1, 32999, Control_c, 0, 64, 89
1, 33014, Control_c, 0, 64, 88
1, 33029, Control_c, 0, 64, 86
1, 33044, Control_c, 0, 64, 84
1, 33052, Note_on_c, 0, 32, 65
1, 33056, Note_off_c, 0, 57, 41
1, 33058, Control_c, 0, 64, 82
1, 33073, Control_c, 0, 64, 81
1, 33088, Control_c, 0, 64, 79
1, 33102, Control_c, 0, 64, 76
1, 33117, Control_c, 0, 64, 74
1, 33132, Control_c, 0, 64, 73
1, 33147, Control_c, 0, 64, 71
1, 33162, Control_c, 0, 64, 70
1, 33176, Control_c, 0, 64, 69
1, 33191, Control_c, 0, 64, 67
1, 33194, Note_on_c, 0, 33, 76
1, 33206, Control_c, 0, 64, 67
1, 33212, Note_off_c, 0, 32, 63
1, 33221, Control_c, 0, 64, 66
1, 33251, Control_c, 0, 64, 66
1, 33265, Control_c, 0, 64, 65
1, 33280, Control_c, 0, 64, 63
1, 33295, Control_c, 0, 64, 61
1, 33301, Note_on_c, 0, 34, 85
1, 33310, Control_c, 0, 64, 59
1, 33325, Control_c, 0, 64, 57
1, 33340, Control_c, 0, 64, 53
1, 33346, Note_off_c, 0, 33, 61
1, 33355, Control_c, 0, 64, 48
1, 33369, Control_c, 0, 64, 37
1, 33384, Control_c, 0, 64, 12
1, 33399, Control_c, 0, 64, 0
1, 33404, Note_on_c, 0, 35, 82
1, 33435, Note_off_c, 0, 34, 63
1, 33570, Note_on_c, 0, 36, 58
1, 33600, Note_off_c, 0, 35, 54
1, 33658, Note_on_c, 0, 45, 60
1, 33852, Control_c, 0, 64, 28
1, 33867, Control_c, 0, 64, 41
1, 33881, Control_c, 0, 64, 50
1, 33896, Control_c, 0, 64, 53
1, 33911, Control_c, 0, 64, 56
1, 33926, Control_c, 0, 64, 58
1, 33940, Control_c, 0, 64, 60
1, 33955, Control_c, 0, 64, 62
1, 33963, Note_on_c, 0, 37, 42
1, 33970, Control_c, 0, 64, 63
1, 33971, Note_on_c, 0, 46, 56
1, 33985, Control_c, 0, 64, 64
1, 34000, Control_c, 0, 64, 65
1, 34014, Control_c, 0, 64, 67
1, 34029, Control_c, 0, 64, 69
1, 34044, Control_c, 0, 64, 71
1, 34058, Control_c, 0, 64, 72
1, 34073, Control_c, 0, 64, 74
1, 34076, Note_off_c, 0, 45, 33
1, 34088, Control_c, 0, 64, 74
1, 34118, Control_c, 0, 64, 75
1, 34151, Note_off_c, 0, 36, 29
1, 34174, Note_on_c, 0, 47, 74
1, 34178, Note_on_c, 0, 38, 51
1, 34192, Control_c, 0, 64, 74
1, 34223, Control_c, 0, 64, 74
1, 34235, Note_off_c, 0, 37, 58
1, 34243, Note_off_c, 0, 46, 62
1, 34267, Control_c, 0, 64, 73
1, 34349, Control_c, 0, 64, 73
1, 34353, Note_on_c, 0, 48, 77
1, 34358, Note_on_c, 0, 39, 66
1, 34375, Note_off_c, 0, 47, 62
1, 34378, Control_c, 0, 64, 72
1, 34378, Control_c, 0, 67, 120
1, 34379, Note_off_c, 0, 38, 60
1, 34393, Control_c, 0, 67, 112
1, 34408, Control_c, 0, 67, 102
1, 34423, Control_c, 0, 67, 91
1, 34437, Control_c, 0, 67, 77
1, 34452, Control_c, 0, 67, 60
1, 34467, Control_c, 0, 67, 41
1, 34482, Control_c, 0, 64, 72
1, 34482, Control_c, 0, 67, 26
1, 34493, Note_on_c, 0, 40, 76
1, 34497, Note_on_c, 0, 49, 88
1, 34498, Control_c, 0, 67, 15
1, 34512, Control_c, 0, 67, 0
1, 34527, Control_c, 0, 64, 71
1, 34534, Note_off_c, 0, 39, 55
1, 34535, Note_off_c, 0, 48, 63
1, 34571, Control_c, 0, 64, 71
1, 34614, Note_on_c, 0, 50, 93
1, 34616, Control_c, 0, 64, 70
1, 34618, Note_on_c, 0, 41, 85
1, 34636, Note_off_c, 0, 40, 63
1, 34654, Note_off_c, 0, 49, 63
1, 34660, Control_c, 0, 64, 70
1, 34675, Control_c, 0, 64, 69
1, 34705, Control_c, 0, 64, 69
1, 34717, Note_on_c, 0, 42, 87
1, 34720, Control_c, 0, 64, 68
1, 34723, Note_on_c, 0, 51, 99
1, 34735, Control_c, 0, 64, 67
1, 34740, Note_off_c, 0, 41, 65
1, 34747, Note_off_c, 0, 50, 65
1, 34750, Control_c, 0, 64, 65
1, 34764, Control_c, 0, 64, 64
1, 34779, Control_c, 0, 64, 63
1, 34794, Control_c, 0, 64, 64
1, 34808, Note_off_c, 0, 51, 60
1, 34824, Note_on_c, 0, 52, 100
1, 34825, Note_on_c, 0, 43, 88
1, 34838, Control_c, 0, 64, 63
1, 34853, Control_c, 0, 64, 63
1, 34868, Control_c, 0, 64, 62
1, 34870, Note_off_c, 0, 42, 62
1, 34881, Note_off_c, 0, 52, 65
1, 34882, Control_c, 0, 64, 63
1, 34912, Control_c, 0, 64, 63
1, 34923, Note_on_c, 0, 53, 106
1, 34933, Note_on_c, 0, 44, 92
1, 34942, Control_c, 0, 64, 63
1, 34946, Note_off_c, 0, 43, 64
1, 34971, Control_c, 0, 64, 62
1, 34986, Control_c, 0, 64, 61
1, 35017, Control_c, 0, 64, 61
1, 35023, Note_on_c, 0, 45, 101
1, 35032, Control_c, 0, 64, 62
1, 35047, Control_c, 0, 64, 64
1, 35063, Note_off_c, 0, 44, 64
1, 35069, Control_c, 0, 64, 65
1, 35083, Control_c, 0, 64, 66
1, 35098, Control_c, 0, 64, 67
1, 35113, Control_c, 0, 64, 68
1, 35120, Note_off_c, 0, 53, 56
1, 35128, Control_c, 0, 64, 70
1, 35130, Note_off_c, 0, 45, 60
1, 35143, Control_c, 0, 64, 72
1, 35158, Control_c, 0, 64, 73
1, 35187, Control_c, 0, 64, 74
1, 35202, Control_c, 0, 64, 74
1, 35217, Control_c, 0, 64, 76
1, 35232, Control_c, 0, 64, 77
1, 35261, Control_c, 0, 64, 76
1, 35276, Control_c, 0, 64, 76
1, 35291, Control_c, 0, 64, 75
1, 35305, Control_c, 0, 64, 75
1, 35320, Control_c, 0, 64, 75
1, 35335, Control_c, 0, 64, 76
1, 35350, Control_c, 0, 64, 77
1, 35365, Control_c, 0, 64, 77
1, 35376, Note_on_c, 0, 41, 92
1, 35377, Note_on_c, 0, 48, 96
1, 35378, Note_on_c, 0, 60, 96
1, 35379, Note_on_c, 0, 29, 81
1, 35381, Note_on_c, 0, 57, 92
1, 35394, Control_c, 0, 64, 77
1, 35409, Control_c, 0, 64, 71
1, 35424, Control_c, 0, 64, 56
1, 35439, Control_c, 0, 64, 0
1, 35543, Control_c, 0, 64, 38
1, 35557, Control_c, 0, 64, 50
1, 35572, Control_c, 0, 64, 55
1, 35575, Note_off_c, 0, 60, 59
1, 35587, Control_c, 0, 64, 58
1, 35602, Control_c, 0, 64, 61
1, 35617, Control_c, 0, 64, 63
1, 35632, Control_c, 0, 64, 65
1, 35647, Control_c, 0, 64, 66
1, 35661, Control_c, 0, 64, 69
1, 35676, Control_c, 0, 64, 71
1, 35691, Control_c, 0, 64, 74
1, 35694, Note_off_c, 0, 41, 55
1, 35705, Control_c, 0, 64, 76
1, 35720, Control_c, 0, 64, 78
1, 35735, Control_c, 0, 64, 80
1, 35750, Control_c, 0, 64, 82
1, 35765, Control_c, 0, 64, 85
1, 35779, Control_c, 0, 64, 87
1, 35794, Control_c, 0, 64, 91
1, 35817, Control_c, 0, 64, 93
1, 35817, Control_c, 0, 67, 13
1, 35832, Control_c, 0, 64, 95
1, 35832, Control_c, 0, 67, 25
1, 35847, Control_c, 0, 67, 40
1, 35850, Note_off_c, 0, 48, 51
1, 35862, Control_c, 0, 64, 95
1, 35862, Control_c, 0, 67, 58
1, 35876, Control_c, 0, 64, 96
1, 35876, Control_c, 0, 67, 73
1, 35891, Control_c, 0, 64, 97
1, 35891, Control_c, 0, 67, 81
1, 35906, Control_c, 0, 64, 99
1, 35906, Control_c, 0, 67, 84
1, 35921, Control_c, 0, 64, 103
1, 35921, Control_c, 0, 67, 86
1, 35936, Control_c, 0, 64, 109
1, 35936, Control_c, 0, 67, 89
1, 35951, Control_c, 0, 64, 117
1, 35951, Control_c, 0, 67, 95
1, 35966, Control_c, 0, 64, 118
1, 35966, Control_c, 0, 67, 103
1, 35981, Control_c, 0, 64, 89
1, 35981, Control_c, 0, 67, 107
1, 35996, Control_c, 0, 64, 54
1, 35996, Control_c, 0, 67, 109
1, 36002, Note_on_c, 0, 33, 62
1, 36003, Note_on_c, 0, 41, 70
1, 36010, Control_c, 0, 64, 0
1, 36010, Control_c, 0, 67, 110
1, 36011, Note_off_c, 0, 29, 43
1, 36025, Control_c, 0, 67, 110
1, 36036, Note_off_c, 0, 41, 65
1, 36037, Note_off_c, 0, 33, 60
1, 36055, Control_c, 0, 67, 110
1, 36070, Control_c, 0, 67, 109
1, 36084, Control_c, 0, 67, 109
1, 36128, Control_c, 0, 67, 108
1, 36202, Control_c, 0, 67, 109
1, 36217, Control_c, 0, 67, 109
1, 36262, Control_c, 0, 67, 110
1, 36276, Control_c, 0, 67, 111
1, 36285, Note_on_c, 0, 29, 44
1, 36291, Control_c, 0, 67, 112
1, 36306, Control_c, 0, 67, 113
1, 36324, Note_off_c, 0, 29, 54
1, 36335, Control_c, 0, 67, 114
1, 36350, Control_c, 0, 67, 114
1, 36365, Control_c, 0, 67, 115
1, 36395, Control_c, 0, 67, 119
1, 36410, Control_c, 0, 67, 124
1, 36425, Control_c, 0, 67, 127
1, 36500, Note_on_c, 0, 45, 47
1, 36529, Note_on_c, 0, 41, 39
1, 36544, Note_on_c, 0, 33, 34
1, 36693, Note_on_c, 0, 29, 51
1, 36715, Note_off_c, 0, 33, 36
1, 36771, Note_off_c, 0, 41, 32
1, 36844, Note_off_c, 0, 29, 59
1, 36854, Note_on_c, 0, 33, 60
1, 36854, Note_on_c, 0, 41, 63
1, 36884, Note_off_c, 0, 41, 65
1, 36893, Note_off_c, 0, 33, 63
1, 37021, Note_on_c, 0, 29, 39
1, 37078, Note_off_c, 0, 29, 56
1, 37188, Note_on_c, 0, 41, 48
1, 37208, Note_on_c, 0, 35, 27
1, 37220, Note_off_c, 0, 41, 54
1, 37253, Note_off_c, 0, 35, 38
1, 37356, Note_on_c, 0, 29, 40
1, 37403, Note_off_c, 0, 29, 59
1, 37509, Note_on_c, 0, 35, 48
1, 37516, Note_on_c, 0, 41, 38
1, 37546, Note_off_c, 0, 35, 58
1, 37553, Note_off_c, 0, 41, 51
1, 37684, Note_on_c, 0, 29, 31
1, 37728, Note_off_c, 0, 29, 47
1, 37823, Note_on_c, 0, 41, 52
1, 37843, Note_on_c, 0, 35, 33
1, 37853, Note_off_c, 0, 41, 61
1, 37882, Note_off_c, 0, 35, 42
1, 37977, Note_on_c, 0, 29, 37
1, 37999, Note_off_c, 0, 57, 51
1, 38014, Note_off_c, 0, 29, 51
1, 38099, Note_off_c, 0, 45, 41
1, 38161, Note_on_c, 0, 57, 41
1, 38175, Note_on_c, 0, 36, 45
1, 38181, Note_on_c, 0, 53, 33
1, 38199, Note_off_c, 0, 57, 61
1, 38218, Note_off_c, 0, 53, 53
1, 38246, Note_on_c, 0, 38, 52
1, 38260, Note_off_c, 0, 36, 51
1, 38316, Note_on_c, 0, 39, 58
1, 38318, Note_off_c, 0, 38, 60
1, 38354, Note_on_c, 0, 45, 27
1, 38378, Note_off_c, 0, 39, 61
1, 38393, Note_off_c, 0, 45, 50
1, 38395, Note_on_c, 0, 40, 58
1, 38445, Note_off_c, 0, 40, 64
1, 38462, Note_on_c, 0, 57, 45
1, 38468, Note_on_c, 0, 41, 63
1, 38470, Note_on_c, 0, 53, 44
1, 38491, Note_off_c, 0, 57, 63
1, 38499, Note_off_c, 0, 53, 58
1, 38637, Note_on_c, 0, 45, 44
1, 38667, Note_off_c, 0, 45, 48
1, 38672, Poly_aftertouch_c, 0, 29, 127
1, 38715, Poly_aftertouch_c, 0, 29, 0
1, 38777, Note_on_c, 0, 57, 60
1, 38781, Note_on_c, 0, 53, 55
1, 38798, Note_on_c, 0, 36, 42
1, 38820, Note_off_c, 0, 53, 64
1, 38821, Note_off_c, 0, 57, 63
1, 38857, Note_off_c, 0, 36, 55
1, 38901, Control_c, 0, 64, 32
1, 38916, Control_c, 0, 64, 44
1, 38929, Note_on_c, 0, 29, 50
1, 38930, Control_c, 0, 64, 52
1, 38935, Note_on_c, 0, 45, 57
1, 38945, Control_c, 0, 64, 56
1, 38960, Control_c, 0, 64, 58
1, 38974, Note_off_c, 0, 45, 63
1, 38975, Control_c, 0, 64, 59
1, 39035, Control_c, 0, 64, 58
1, 39044, Note_off_c, 0, 41, 54
1, 39050, Control_c, 0, 64, 54
1, 39057, Note_off_c, 0, 29, 55
1, 39065, Control_c, 0, 64, 31
1, 39069, Note_on_c, 0, 59, 78
1, 39072, Note_on_c, 0, 35, 66
1, 39072, Note_on_c, 0, 53, 68
1, 39080, Control_c, 0, 64, 0
1, 39096, Note_on_c, 0, 57, 40
1, 39099, Note_off_c, 0, 53, 66
1, 39103, Note_off_c, 0, 59, 65
1, 39108, Note_off_c, 0, 35, 64
1, 39124, Note_off_c, 0, 57, 54
1, 39219, Note_on_c, 0, 36, 51
1, 39226, Note_on_c, 0, 29, 45
1, 39245, Note_on_c, 0, 47, 41
1, 39258, Note_off_c, 0, 36, 62
1, 39279, Note_off_c, 0, 47, 33
1, 39282, Note_off_c, 0, 29, 55
1, 39365, Note_on_c, 0, 59, 80
1, 39370, Note_on_c, 0, 41, 57
1, 39373, Note_on_c, 0, 35, 52
1, 39377, Note_on_c, 0, 53, 66
1, 39395, Note_off_c, 0, 59, 64
1, 39399, Note_off_c, 0, 53, 63
1, 39409, Note_off_c, 0, 35, 62
1, 39414, Note_off_c, 0, 41, 59
1, 39504, Note_on_c, 0, 29, 54
1, 39509, Note_on_c, 0, 47, 61
1, 39534, Note_off_c, 0, 47, 62
1, 39653, Note_off_c, 0, 29, 53
1, 39655, Note_on_c, 0, 59, 74
1, 39668, Note_on_c, 0, 41, 41
1, 39671, Note_on_c, 0, 35, 34
1, 39683, Note_off_c, 0, 59, 65
1, 39710, Note_off_c, 0, 41, 57
1, 39794, Note_on_c, 0, 29, 39
1, 39796, Note_off_c, 0, 35, 33
1, 39819, Note_on_c, 0, 47, 42
1, 39850, Note_off_c, 0, 47, 45
1, 39955, Note_on_c, 0, 60, 74
1, 39961, Note_on_c, 0, 33, 45
1, 39961, Note_off_c, 0, 29, 45
1, 39962, Note_on_c, 0, 41, 35
1, 39969, Note_on_c, 0, 52, 51
1, 39983, Note_off_c, 0, 60, 65
1, 39992, Note_off_c, 0, 52, 59
1, 40010, Note_on_c, 0, 57, 4
1, 40050, Note_off_c, 0, 57, 27
1, 40059, Note_off_c, 0, 41, 31
1, 40062, Note_off_c, 0, 33, 49
1, 40094, Note_on_c, 0, 29, 38
1, 40103, Note_on_c, 0, 53, 55
1, 40126, Note_off_c, 0, 53, 59
1, 40227, Control_c, 0, 64, 25
1, 40232, Note_on_c, 0, 60, 67
1, 40238, Note_on_c, 0, 52, 58
1, 40241, Note_on_c, 0, 57, 46
1, 40241, Control_c, 0, 64, 51
1, 40242, Note_off_c, 0, 29, 49
1, 40253, Note_on_c, 0, 41, 31
1, 40256, Control_c, 0, 64, 59
1, 40259, Note_off_c, 0, 60, 65
1, 40260, Note_off_c, 0, 52, 62
1, 40267, Note_on_c, 0, 33, 32
1, 40267, Note_off_c, 0, 57, 57
1, 40271, Control_c, 0, 64, 64
1, 40286, Control_c, 0, 64, 68
1, 40309, Control_c, 0, 64, 75
1, 40323, Control_c, 0, 64, 88
1, 40338, Control_c, 0, 64, 108
1, 40353, Control_c, 0, 64, 127
1, 40365, Note_off_c, 0, 41, 50
1, 40381, Note_on_c, 0, 29, 44
1, 40410, Note_off_c, 0, 33, 33
1, 40471, Control_c, 0, 64, 121
1, 40486, Control_c, 0, 64, 107
1, 40501, Control_c, 0, 64, 97
1, 40516, Control_c, 0, 64, 87
1, 40530, Control_c, 0, 64, 75
1, 40545, Note_on_c, 0, 41, 32
1, 40545, Control_c, 0, 64, 63
1, 40556, Note_off_c, 0, 29, 43
1, 40558, Note_on_c, 0, 50, 59
1, 40559, Note_on_c, 0, 60, 61
1, 40560, Control_c, 0, 64, 54
1, 40568, Note_on_c, 0, 33, 35
1, 40574, Control_c, 0, 64, 57
1, 40590, Control_c, 0, 64, 63
1, 40605, Control_c, 0, 64, 68
1, 40616, Poly_aftertouch_c, 0, 57, 127
1, 40620, Control_c, 0, 64, 76
1, 40635, Control_c, 0, 64, 88
1, 40650, Control_c, 0, 64, 127
1, 40692, Note_off_c, 0, 50, 58
1, 40694, Note_on_c, 0, 29, 43
1, 40697, Note_off_c, 0, 60, 51
1, 40704, Note_on_c, 0, 53, 54
1, 40732, Poly_aftertouch_c, 0, 57, 0
1, 40751, Note_off_c, 0, 41, 41
1, 40786, Note_off_c, 0, 33, 38
1, 40792, Note_off_c, 0, 53, 56
1, 40828, Control_c, 0, 64, 98
1, 40836, Note_on_c, 0, 49, 66
1, 40837, Note_on_c, 0, 59, 65
1, 40843, Control_c, 0, 64, 66
1, 40850, Note_on_c, 0, 35, 45
1, 40858, Note_on_c, 0, 41, 51
1, 40858, Note_off_c, 0, 29, 47
1, 40858, Control_c, 0, 64, 0
1, 40868, Note_off_c, 0, 49, 67
1, 40868, Note_off_c, 0, 59, 67
1, 40898, Note_off_c, 0, 41, 57
1, 40905, Note_off_c, 0, 35, 47
1, 40965, Note_on_c, 0, 29, 44
1, 40973, Note_on_c, 0, 60, 64
1, 40980, Note_on_c, 0, 50, 53
1, 41000, Note_off_c, 0, 60, 64
1, 41010, Note_off_c, 0, 50, 64
1, 41063, Note_off_c, 0, 29, 51
1, 41114, Note_on_c, 0, 49, 50
1, 41117, Note_on_c, 0, 41, 55
1, 41123, Note_on_c, 0, 35, 39
1, 41135, Note_on_c, 0, 59, 49
1, 41144, Note_off_c, 0, 49, 55
1, 41162, Note_off_c, 0, 41, 58
1, 41171, Note_off_c, 0, 35, 47
1, 41176, Note_off_c, 0, 59, 55
1, 41254, Note_on_c, 0, 29, 46
1, 41352, Note_off_c, 0, 29, 48
1, 41355, Poly_aftertouch_c, 0, 53, 0
1, 41414, Note_on_c, 0, 59, 56
1, 41422, Note_on_c, 0, 41, 41
1, 41425, Note_on_c, 0, 49, 42
1, 41432, Note_on_c, 0, 35, 29
1, 41457, Note_off_c, 0, 49, 63
1, 41457, Note_off_c, 0, 41, 54
1, 41460, Note_off_c, 0, 59, 56
1, 41474, Poly_aftertouch_c, 0, 57, 127
1, 41478, Note_off_c, 0, 35, 48
1, 41521, Poly_aftertouch_c, 0, 57, 0
1, 41535, Note_on_c, 0, 29, 41
1, 41558, Note_on_c, 0, 53, 41
1, 41573, Note_off_c, 0, 29, 58
1, 41588, Note_off_c, 0, 53, 55
1, 41709, Note_on_c, 0, 60, 57
1, 41716, Note_on_c, 0, 48, 46
1, 41717, Note_on_c, 0, 36, 57
1, 41728, Note_on_c, 0, 57, 29
1, 41751, Note_off_c, 0, 60, 59
1, 41752, Note_off_c, 0, 48, 55
1, 41763, Note_off_c, 0, 57, 53
1, 41799, Note_on_c, 0, 38, 57
1, 41820, Note_off_c, 0, 36, 57
1, 41832, Note_on_c, 0, 53, 51
1, 41841, Note_on_c, 0, 39, 64
1, 41865, Note_off_c, 0, 38, 62
1, 41886, Note_off_c, 0, 53, 57
1, 41903, Note_off_c, 0, 39, 64
1, 41912, Note_on_c, 0, 40, 70
1, 41977, Note_on_c, 0, 41, 74
1, 41980, Note_off_c, 0, 40, 63
1, 41983, Note_on_c, 0, 56, 61
1, 41983, Note_on_c, 0, 60, 67
1, 41987, Note_on_c, 0, 48, 62
1, 42020, Note_off_c, 0, 48, 64
1, 42022, Note_off_c, 0, 56, 61
1, 42024, Note_off_c, 0, 60, 62
1, 42115, Note_on_c, 0, 53, 48
1, 42120, Note_on_c, 0, 29, 47
1, 42155, Note_off_c, 0, 53, 62
1, 42173, Note_off_c, 0, 29, 58
1, 42252, Control_c, 0, 64, 29
1, 42267, Control_c, 0, 64, 41
1, 42268, Note_on_c, 0, 50, 62
1, 42270, Note_on_c, 0, 62, 63
1, 42273, Note_on_c, 0, 36, 44
1, 42273, Note_on_c, 0, 57, 56
1, 42282, Control_c, 0, 64, 48
1, 42297, Control_c, 0, 64, 54
1, 42300, Note_off_c, 0, 50, 64
1, 42306, Note_off_c, 0, 62, 61
1, 42307, Note_off_c, 0, 57, 66
1, 42311, Control_c, 0, 64, 60
1, 42318, Note_off_c, 0, 36, 60
1, 42326, Control_c, 0, 64, 65
1, 42341, Control_c, 0, 64, 71
1, 42343, Note_off_c, 0, 41, 59
1, 42356, Control_c, 0, 64, 81
1, 42370, Control_c, 0, 64, 99
1, 42381, Note_on_c, 0, 29, 57
1, 42385, Control_c, 0, 64, 127
1, 42387, Note_on_c, 0, 53, 64
1, 42419, Note_off_c, 0, 29, 61
1, 42420, Note_off_c, 0, 53, 65
1, 42444, Control_c, 0, 64, 119
1, 42459, Control_c, 0, 64, 114
1, 42474, Control_c, 0, 64, 109
1, 42489, Control_c, 0, 64, 101
1, 42504, Control_c, 0, 64, 84
1, 42518, Control_c, 0, 64, 67
1, 42533, Control_c, 0, 64, 51
1, 42550, Note_on_c, 0, 62, 69
1, 42552, Note_on_c, 0, 58, 69
1, 42554, Note_on_c, 0, 50, 65
1, 42556, Control_c, 0, 64, 0
1, 42558, Note_on_c, 0, 36, 50
1, 42565, Note_on_c, 0, 35, 52
1, 42570, Control_c, 0, 64, 12
1, 42585, Control_c, 0, 64, 44
1, 42590, Note_off_c, 0, 62, 58
1, 42600, Note_on_c, 0, 38, 66
1, 42600, Control_c, 0, 64, 60
1, 42602, Note_off_c, 0, 58, 54
1, 42605, Note_off_c, 0, 35, 56
1, 42605, Note_off_c, 0, 50, 57
1, 42615, Control_c, 0, 64, 65
1, 42630, Control_c, 0, 64, 69
1, 42642, Note_off_c, 0, 36, 61
1, 42644, Control_c, 0, 64, 76
1, 42644, Control_c, 0, 67, 124
1, 42659, Control_c, 0, 64, 85
1, 42659, Control_c, 0, 67, 103
1, 42662, Note_on_c, 0, 54, 68
1, 42665, Note_on_c, 0, 39, 76
1, 42674, Control_c, 0, 64, 95
1, 42674, Control_c, 0, 67, 79
1, 42689, Control_c, 0, 64, 104
1, 42689, Control_c, 0, 67, 51
1, 42691, Note_off_c, 0, 38, 63
1, 42704, Control_c, 0, 67, 24
1, 42718, Control_c, 0, 64, 102
1, 42718, Control_c, 0, 67, 0
1, 42733, Control_c, 0, 64, 101
1, 42738, Note_on_c, 0, 40, 78
1, 42741, Note_off_c, 0, 54, 61
1, 42748, Control_c, 0, 64, 100
1, 42763, Control_c, 0, 64, 98
1, 42777, Control_c, 0, 64, 89
1, 42792, Control_c, 0, 64, 68
1, 42807, Control_c, 0, 64, 42
1, 42808, Note_on_c, 0, 41, 89
1, 42811, Note_off_c, 0, 39, 61
1, 42814, Note_on_c, 0, 63, 87
1, 42817, Note_off_c, 0, 40, 63
1, 42820, Note_on_c, 0, 51, 87
1, 42820, Note_on_c, 0, 59, 79
1, 42822, Control_c, 0, 64, 0
1, 42852, Control_c, 0, 64, 11
1, 42867, Control_c, 0, 64, 51
1, 42882, Control_c, 0, 64, 64
1, 42896, Control_c, 0, 64, 72
1, 42897, Note_off_c, 0, 41, 57
1, 42899, Note_on_c, 0, 42, 79
1, 42902, Note_off_c, 0, 59, 60
1, 42911, Control_c, 0, 64, 88
1, 42912, Note_on_c, 0, 55, 76
1, 42912, Note_off_c, 0, 63, 59
1, 42926, Control_c, 0, 64, 127
1, 42927, Note_off_c, 0, 51, 35
1, 42981, Note_off_c, 0, 55, 61
1, 42990, Note_off_c, 0, 42, 61
1, 42992, Note_on_c, 0, 43, 77
1, 43034, Note_off_c, 0, 43, 63
1, 43120, Control_c, 0, 64, 80
1, 43135, Control_c, 0, 64, 60
1, 43147, Note_on_c, 0, 44, 59
1, 43149, Control_c, 0, 64, 0
1, 43155, Note_on_c, 0, 63, 66
1, 43169, Note_on_c, 0, 51, 60
1, 43171, Note_on_c, 0, 60, 58
1, 43179, Control_c, 0, 64, 16
1, 43193, Control_c, 0, 64, 49
1, 43208, Control_c, 0, 64, 60
1, 43223, Control_c, 0, 64, 65
1, 43238, Control_c, 0, 64, 70
1, 43253, Control_c, 0, 64, 80
1, 43267, Control_c, 0, 64, 91
1, 43278, Note_off_c, 0, 60, 56
1, 43282, Control_c, 0, 64, 110
1, 43305, Note_on_c, 0, 56, 60
1, 43305, Control_c, 0, 64, 127
1, 43311, Note_off_c, 0, 44, 48
1, 43311, Note_off_c, 0, 63, 53
1, 43319, Note_off_c, 0, 51, 37
1, 43323, Note_on_c, 0, 29, 47
1, 43388, Note_off_c, 0, 29, 48
1, 43392, Note_off_c, 0, 56, 62
1, 43423, Control_c, 0, 64, 80
1, 43438, Control_c, 0, 64, 9
1, 43439, Note_on_c, 0, 62, 69
1, 43441, Note_on_c, 0, 50, 70
1, 43447, Note_on_c, 0, 59, 63
1, 43453, Note_on_c, 0, 43, 62
1, 43453, Control_c, 0, 64, 0
1, 43473, Note_off_c, 0, 62, 64
1, 43475, Note_off_c, 0, 50, 66
1, 43478, Note_off_c, 0, 59, 63
1, 43493, Note_off_c, 0, 43, 65
1, 43574, Note_on_c, 0, 63, 75
1, 43579, Note_on_c, 0, 29, 55
1, 43579, Note_on_c, 0, 51, 72
1, 43607, Note_on_c, 0, 55, 25
1, 43615, Note_off_c, 0, 51, 64
1, 43633, Note_off_c, 0, 29, 59
1, 43639, Note_off_c, 0, 63, 60
1, 43645, Note_off_c, 0, 55, 51
1, 43702, Note_on_c, 0, 42, 72
1, 43714, Note_on_c, 0, 62, 70
1, 43716, Note_on_c, 0, 50, 70
1, 43721, Note_on_c, 0, 58, 62
1, 43747, Note_off_c, 0, 42, 61
1, 43754, Note_off_c, 0, 50, 62
1, 43755, Note_off_c, 0, 62, 59
1, 43760, Note_off_c, 0, 58, 64
1, 43843, Note_on_c, 0, 54, 57
1, 43853, Control_c, 0, 67, 16
1, 43855, Note_on_c, 0, 29, 45
1, 43868, Control_c, 0, 67, 44
1, 43883, Control_c, 0, 67, 71
1, 43897, Control_c, 0, 67, 93
1, 43901, Note_off_c, 0, 54, 59
1, 43902, Note_off_c, 0, 29, 58
1, 43912, Control_c, 0, 67, 114
1, 43927, Control_c, 0, 67, 127
1, 43982, Note_on_c, 0, 62, 67
1, 43985, Note_on_c, 0, 41, 57
1, 43987, Note_on_c, 0, 57, 56
1, 43990, Note_on_c, 0, 50, 59
1, 44017, Note_off_c, 0, 57, 66
1, 44022, Note_off_c, 0, 62, 53
1, 44023, Note_off_c, 0, 50, 64
1, 44027, Note_off_c, 0, 41, 60
1, 44115, Note_on_c, 0, 53, 54
1, 44134, Note_on_c, 0, 29, 35
1, 44166, Note_off_c, 0, 53, 58
1, 44181, Note_off_c, 0, 29, 52
1, 44246, Note_on_c, 0, 42, 59
1, 44256, Note_on_c, 0, 60, 64
1, 44265, Note_on_c, 0, 56, 56
1, 44272, Note_on_c, 0, 48, 53
1, 44300, Note_off_c, 0, 42, 59
1, 44303, Note_off_c, 0, 60, 60
1, 44304, Note_off_c, 0, 56, 64
1, 44309, Note_off_c, 0, 48, 64
1, 44396, Note_on_c, 0, 29, 45
1, 44401, Note_on_c, 0, 52, 52
1, 44437, Note_off_c, 0, 52, 64
1, 44441, Note_off_c, 0, 29, 51
1, 44547, Note_on_c, 0, 43, 49
1, 44558, Note_on_c, 0, 60, 50
1, 44565, Note_on_c, 0, 48, 43
1, 44570, Note_on_c, 0, 55, 29
1, 44589, Note_off_c, 0, 43, 61
1, 44595, Note_off_c, 0, 60, 62
1, 44599, Note_off_c, 0, 48, 53
1, 44604, Note_off_c, 0, 55, 46
1, 44679, Note_on_c, 0, 29, 39
1, 44684, Note_on_c, 0, 51, 47
1, 44722, Note_off_c, 0, 29, 49
1, 44722, Note_off_c, 0, 51, 56
1, 44843, Note_on_c, 0, 44, 47
1, 44843, Note_on_c, 0, 60, 57
1, 44852, Note_on_c, 0, 48, 50
1, 44880, Note_off_c, 0, 44, 62
1, 44885, Note_off_c, 0, 48, 61
1, 44885, Note_off_c, 0, 60, 63
1, 44969, Note_on_c, 0, 29, 45
1, 44989, Note_on_c, 0, 53, 39
1, 45004, Note_off_c, 0, 29, 54
1, 45020, Note_off_c, 0, 53, 48
1, 45118, Note_on_c, 0, 46, 53
1, 45123, Note_on_c, 0, 62, 62
1, 45132, Note_on_c, 0, 50, 54
1, 45156, Note_off_c, 0, 46, 64
1, 45162, Note_off_c, 0, 50, 62
1, 45162, Note_off_c, 0, 62, 58
1, 45248, Note_on_c, 0, 29, 50
1, 45260, Note_on_c, 0, 55, 60
1, 45286, Note_off_c, 0, 29, 61
1, 45290, Note_off_c, 0, 55, 66
1, 45335, Control_c, 0, 64, 9
1, 45364, Control_c, 0, 64, 11
1, 45394, Control_c, 0, 64, 12
1, 45402, Note_on_c, 0, 62, 72
1, 45405, Note_on_c, 0, 47, 51
1, 45406, Note_on_c, 0, 50, 66
1, 45432, Note_off_c, 0, 47, 61
1, 45434, Note_off_c, 0, 62, 63
1, 45439, Note_off_c, 0, 50, 64
1, 45469, Control_c, 0, 64, 13
1, 45543, Note_on_c, 0, 29, 47
1, 45544, Note_on_c, 0, 56, 71
1, 45577, Note_off_c, 0, 56, 67
1, 45578, Note_off_c, 0, 29, 57
1, 45580, Control_c, 0, 64, 15
1, 45624, Control_c, 0, 64, 16
1, 45689, Note_on_c, 0, 62, 81
1, 45692, Note_on_c, 0, 50, 75
1, 45698, Note_on_c, 0, 48, 50
1, 45720, Note_off_c, 0, 62, 62
1, 45721, Note_off_c, 0, 50, 65
1, 45727, Note_off_c, 0, 48, 53
1, 45814, Note_on_c, 0, 57, 73
1, 45827, Note_on_c, 0, 29, 34
1, 45842, Note_off_c, 0, 57, 66
1, 45870, Note_off_c, 0, 29, 43
1, 45877, Control_c, 0, 64, 17
1, 45936, Control_c, 0, 64, 17
1, 45958, Note_on_c, 0, 63, 76
1, 45959, Note_on_c, 0, 51, 80
1, 45966, Control_c, 0, 64, 18
1, 45973, Note_on_c, 0, 36, 62
1, 45989, Note_off_c, 0, 63, 59
1, 45990, Note_off_c, 0, 51, 66
1, 46030, Note_on_c, 0, 37, 67
1, 46040, Control_c, 0, 64, 19
1, 46065, Note_off_c, 0, 36, 62
1, 46094, Note_on_c, 0, 58, 64
1, 46096, Note_on_c, 0, 39, 73
1, 46099, Control_c, 0, 67, 111
1, 46114, Control_c, 0, 67, 92
1, 46129, Note_off_c, 0, 37, 63
1, 46129, Control_c, 0, 67, 75
1, 46143, Control_c, 0, 67, 58
1, 46149, Note_off_c, 0, 58, 60
1, 46158, Note_on_c, 0, 41, 78
1, 46158, Control_c, 0, 64, 24
1, 46158, Control_c, 0, 67, 37
1, 46173, Control_c, 0, 64, 43
1, 46173, Control_c, 0, 67, 13
1, 46182, Note_off_c, 0, 39, 62
1, 46189, Control_c, 0, 64, 58
1, 46189, Control_c, 0, 67, 0
1, 46204, Control_c, 0, 64, 64
1, 46218, Control_c, 0, 64, 67
1, 46219, Note_on_c, 0, 43, 89
1, 46220, Note_on_c, 0, 63, 89
1, 46221, Note_on_c, 0, 51, 85
1, 46232, Note_off_c, 0, 41, 60
1, 46233, Control_c, 0, 64, 62
1, 46248, Control_c, 0, 64, 47
1, 46261, Note_off_c, 0, 51, 63
1, 46263, Control_c, 0, 64, 20
1, 46270, Note_off_c, 0, 43, 62
1, 46278, Control_c, 0, 64, 0
1, 46301, Note_off_c, 0, 63, 57
1, 46342, Note_on_c, 0, 29, 70
1, 46350, Note_on_c, 0, 59, 76
1, 46379, Note_off_c, 0, 29, 65
1, 46381, Note_off_c, 0, 59, 66
1, 46498, Note_on_c, 0, 65, 86
1, 46500, Note_on_c, 0, 53, 81
1, 46507, Note_on_c, 0, 37, 69
1, 46534, Note_off_c, 0, 53, 63
1, 46547, Note_off_c, 0, 65, 60
1, 46561, Note_on_c, 0, 39, 69
1, 46628, Note_off_c, 0, 37, 61
1, 46637, Note_on_c, 0, 60, 74
1, 46641, Note_on_c, 0, 41, 77
1, 46679, Note_off_c, 0, 39, 60
1, 46683, Note_off_c, 0, 60, 58
1, 46703, Note_on_c, 0, 43, 79
1, 46709, Note_off_c, 0, 41, 65
1, 46759, Note_on_c, 0, 53, 87
1, 46759, Note_on_c, 0, 65, 90
1, 46759, Control_c, 0, 64, 61
1, 46760, Note_on_c, 0, 45, 92
1, 46761, Note_on_c, 0, 61, 82
1, 46774, Control_c, 0, 64, 46
1, 46778, Note_off_c, 0, 43, 63
1, 46789, Control_c, 0, 64, 0
1, 46792, Note_off_c, 0, 53, 64
1, 46805, Note_off_c, 0, 61, 55
1, 46807, Note_off_c, 0, 45, 64
1, 46808, Note_off_c, 0, 65, 61
1, 46826, Note_on_c, 0, 58, 15
1, 46827, Note_off_c, 0, 58, 127
1, 46877, Note_on_c, 0, 29, 74
1, 46879, Note_on_c, 0, 57, 68
1, 46889, Note_on_c, 0, 55, 58
1, 46912, Note_off_c, 0, 55, 59
1, 46912, Note_off_c, 0, 29, 66
1, 46921, Note_off_c, 0, 57, 62
1, 47020, Note_on_c, 0, 46, 93
1, 47022, Note_on_c, 0, 66, 86
1, 47023, Note_on_c, 0, 54, 86
1, 47027, Control_c, 0, 64, 20
1, 47034, Note_on_c, 0, 62, 69
1, 47049, Control_c, 0, 64, 12
1, 47058, Note_off_c, 0, 54, 68
1, 47059, Note_off_c, 0, 46, 63
1, 47064, Control_c, 0, 64, 0
1, 47073, Note_off_c, 0, 62, 60
1, 47101, Note_off_c, 0, 66, 58
1, 47159, Note_on_c, 0, 58, 69
1, 47198, Note_on_c, 0, 48, 57
1, 47210, Note_off_c, 0, 58, 59
1, 47224, Note_off_c, 0, 48, 62
1, 47252, Note_on_c, 0, 50, 64
1, 47287, Note_off_c, 0, 50, 63
1, 47299, Note_on_c, 0, 51, 74
1, 47301, Note_on_c, 0, 66, 75
1, 47307, Note_on_c, 0, 54, 82
1, 47309, Note_on_c, 0, 63, 69
1, 47315, Control_c, 0, 64, 64
1, 47330, Control_c, 0, 64, 82
1, 47332, Note_off_c, 0, 54, 71
1, 47338, Note_off_c, 0, 51, 64
1, 47345, Control_c, 0, 64, 127
1, 47382, Note_off_c, 0, 63, 60
1, 47384, Note_off_c, 0, 66, 62
1, 47426, Note_on_c, 0, 59, 64
1, 47490, Note_off_c, 0, 59, 62
1, 47565, Note_on_c, 0, 44, 86
1, 47567, Control_c, 0, 64, 78
1, 47573, Note_on_c, 0, 65, 79
1, 47577, Note_on_c, 0, 62, 70
1, 47578, Note_on_c, 0, 32, 67
1, 47578, Note_on_c, 0, 53, 78
1, 47582, Control_c, 0, 64, 0
1, 47593, Note_off_c, 0, 44, 65
1, 47598, Note_off_c, 0, 65, 66
1, 47605, Note_off_c, 0, 53, 66
1, 47606, Note_off_c, 0, 32, 58
1, 47608, Note_off_c, 0, 62, 67
1, 47693, Note_on_c, 0, 54, 90
1, 47693, Note_on_c, 0, 66, 77
1, 47705, Note_on_c, 0, 29, 37
1, 47706, Note_on_c, 0, 58, 66
1, 47719, Note_off_c, 0, 54, 65
1, 47728, Note_off_c, 0, 66, 55
1, 47734, Note_off_c, 0, 58, 65
1, 47749, Note_off_c, 0, 29, 43
1, 47755, Poly_aftertouch_c, 0, 31, 127
1, 47795, Poly_aftertouch_c, 0, 31, 0
1, 47830, Note_on_c, 0, 45, 81
1, 47836, Note_on_c, 0, 61, 88
1, 47839, Note_on_c, 0, 53, 85
1, 47842, Note_on_c, 0, 65, 81
1, 47842, Control_c, 0, 64, 45
1, 47843, Note_on_c, 0, 33, 66
1, 47843, Note_on_c, 0, 34, 57
1, 47857, Note_off_c, 0, 45, 65
1, 47865, Note_off_c, 0, 65, 66
1, 47868, Note_off_c, 0, 53, 66
1, 47872, Control_c, 0, 64, 0
1, 47875, Note_off_c, 0, 33, 62
1, 47877, Note_off_c, 0, 34, 63
1, 47881, Note_off_c, 0, 61, 60
1, 47956, Note_on_c, 0, 57, 71
1, 47961, Note_on_c, 0, 29, 51
1, 47997, Note_off_c, 0, 29, 48
1, 48007, Note_off_c, 0, 57, 55
1, 48092, Note_on_c, 0, 46, 78
1, 48095, Note_on_c, 0, 34, 67
1, 48104, Note_on_c, 0, 66, 84
1, 48108, Note_on_c, 0, 54, 84
1, 48110, Note_on_c, 0, 62, 78
1, 48123, Control_c, 0, 64, 59
1, 48127, Note_off_c, 0, 46, 66
1, 48134, Note_off_c, 0, 34, 64
1, 48137, Control_c, 0, 64, 0
1, 48140, Note_off_c, 0, 54, 64
1, 48162, Note_off_c, 0, 62, 56
1, 48176, Note_off_c, 0, 66, 56
1, 48212, Note_on_c, 0, 28, 53
1, 48221, Note_on_c, 0, 58, 74
1, 48248, Note_off_c, 0, 28, 48
1, 48262, Note_off_c, 0, 58, 60
1, 48347, Note_on_c, 0, 47, 79
1, 48356, Note_on_c, 0, 68, 87
1, 48359, Note_on_c, 0, 56, 84
1, 48360, Note_on_c, 0, 63, 76
1, 48362, Note_on_c, 0, 35, 57
1, 48375, Note_off_c, 0, 47, 65
1, 48375, Control_c, 0, 64, 36
1, 48385, Note_off_c, 0, 56, 67
1, 48389, Control_c, 0, 64, 0
1, 48405, Note_off_c, 0, 63, 54
1, 48414, Note_off_c, 0, 35, 57
1, 48418, Note_off_c, 0, 68, 60
1, 48459, Note_on_c, 0, 58, 61
1, 48464, Note_on_c, 0, 29, 58
1, 48480, Note_off_c, 0, 58, 61
1, 48498, Note_on_c, 0, 59, 51
1, 48498, Note_off_c, 0, 29, 52
1, 48553, Note_off_c, 0, 59, 52
1, 48618, Note_on_c, 0, 48, 76
1, 48625, Note_on_c, 0, 36, 60
1, 48625, Note_on_c, 0, 68, 92
1, 48627, Note_on_c, 0, 56, 91
1, 48635, Control_c, 0, 64, 60
1, 48640, Note_on_c, 0, 64, 69
1, 48646, Note_off_c, 0, 48, 66
1, 48650, Control_c, 0, 64, 0
1, 48668, Note_off_c, 0, 64, 67
1, 48669, Note_off_c, 0, 36, 64
1, 48674, Note_off_c, 0, 56, 63
1, 48696, Note_off_c, 0, 68, 64
1, 48747, Note_on_c, 0, 31, 61
1, 48748, Note_on_c, 0, 60, 67
1, 48778, Note_off_c, 0, 31, 60
1, 48807, Note_off_c, 0, 60, 64
1, 48867, Note_on_c, 0, 49, 72
1, 48871, Note_on_c, 0, 37, 68
1, 48879, Note_on_c, 0, 69, 89
1, 48879, Note_on_c, 0, 65, 83
1, 48882, Note_on_c, 0, 57, 86
1, 48896, Note_off_c, 0, 49, 69
1, 48901, Control_c, 0, 64, 64
1, 48916, Control_c, 0, 64, 64
1, 48931, Control_c, 0, 64, 65
1, 48936, Note_off_c, 0, 57, 62
1, 48944, Note_off_c, 0, 69, 57
1, 48946, Control_c, 0, 64, 72
1, 48960, Control_c, 0, 64, 100
1, 48961, Note_off_c, 0, 65, 59
1, 48975, Note_off_c, 0, 37, 33
1, 48975, Control_c, 0, 64, 127
1, 48992, Note_on_c, 0, 61, 77
1, 49023, Note_on_c, 0, 31, 8
1, 49052, Poly_aftertouch_c, 0, 29, 127
1, 49053, Note_off_c, 0, 61, 61
1, 49079, Control_c, 0, 64, 110
1, 49079, Note_off_c, 0, 31, 50
1, 49094, Control_c, 0, 64, 67
1, 49096, Poly_aftertouch_c, 0, 29, 0
1, 49109, Control_c, 0, 64, 0
1, 49115, Note_on_c, 0, 50, 78
1, 49123, Note_on_c, 0, 70, 94
1, 49125, Note_on_c, 0, 58, 94
1, 49126, Note_on_c, 0, 38, 58
1, 49138, Control_c, 0, 64, 52
1, 49141, Note_on_c, 0, 67, 73
1, 49144, Note_off_c, 0, 50, 67
1, 49145, Note_on_c, 0, 66, 48
1, 49153, Control_c, 0, 64, 64
1, 49159, Note_on_c, 0, 71, 45
1, 49168, Control_c, 0, 64, 75
1, 49176, Note_off_c, 0, 38, 63
1, 49180, Note_off_c, 0, 58, 64
1, 49183, Control_c, 0, 64, 127
1, 49186, Note_off_c, 0, 71, 57
1, 49195, Note_off_c, 0, 67, 57
1, 49207, Note_off_c, 0, 66, 54
1, 49227, Note_off_c, 0, 70, 63
1, 49246, Note_on_c, 0, 62, 83
1, 49288, Note_on_c, 0, 31, 22
1, 49312, Note_off_c, 0, 62, 63
1, 49316, Poly_aftertouch_c, 0, 29, 127
1, 49332, Note_off_c, 0, 31, 53
1, 49353, Control_c, 0, 64, 83
1, 49361, Poly_aftertouch_c, 0, 29, 0
1, 49368, Control_c, 0, 64, 51
1, 49383, Control_c, 0, 64, 0
1, 49395, Note_on_c, 0, 51, 96
1, 49398, Note_on_c, 0, 71, 99
1, 49406, Note_on_c, 0, 67, 85
1, 49407, Note_on_c, 0, 59, 90
1, 49408, Note_on_c, 0, 39, 70
1, 49413, Control_c, 0, 64, 53
1, 49428, Control_c, 0, 64, 65
1, 49437, Note_off_c, 0, 39, 65
1, 49443, Control_c, 0, 64, 83
1, 49445, Note_off_c, 0, 51, 64
1, 49457, Control_c, 0, 64, 127
1, 49482, Note_off_c, 0, 59, 55
1, 49509, Poly_aftertouch_c, 0, 60, 0
1, 49514, Note_off_c, 0, 71, 48
1, 49532, Note_off_c, 0, 67, 60
1, 49550, Note_on_c, 0, 53, 67
1, 49554, Note_on_c, 0, 63, 81
1, 49581, Note_on_c, 0, 55, 84
1, 49582, Note_off_c, 0, 53, 64
1, 49606, Control_c, 0, 64, 104
1, 49611, Note_off_c, 0, 63, 62
1, 49621, Control_c, 0, 64, 64
1, 49636, Control_c, 0, 64, 0
1, 49651, Control_c, 0, 64, 35
1, 49657, Note_off_c, 0, 55, 51
1, 49659, Note_on_c, 0, 56, 98
1, 49666, Control_c, 0, 64, 64
1, 49672, Note_on_c, 0, 68, 97
1, 49674, Note_on_c, 0, 71, 101
1, 49676, Note_on_c, 0, 59, 92
1, 49681, Control_c, 0, 64, 90
1, 49682, Note_on_c, 0, 46, 51
1, 49685, Note_off_c, 0, 56, 68
1, 49696, Control_c, 0, 64, 127
1, 49709, Note_off_c, 0, 46, 57
1, 49721, Note_off_c, 0, 59, 64
1, 49730, Note_off_c, 0, 71, 60
1, 49741, Note_off_c, 0, 68, 60
1, 49789, Note_on_c, 0, 71, 86
1, 49799, Note_on_c, 0, 59, 87
1, 49824, Note_on_c, 0, 33, 29
1, 49831, Note_on_c, 0, 31, 21
1, 49843, Note_off_c, 0, 71, 64
1, 49845, Note_off_c, 0, 59, 64
1, 49869, Note_off_c, 0, 33, 53
1, 49881, Note_off_c, 0, 31, 41
1, 49902, Control_c, 0, 64, 88
1, 49914, Note_on_c, 0, 50, 94
1, 49917, Control_c, 0, 64, 0
1, 49919, Note_on_c, 0, 70, 97
1, 49919, Note_on_c, 0, 38, 77
1, 49922, Note_on_c, 0, 58, 88
1, 49940, Note_off_c, 0, 50, 68
1, 49946, Note_off_c, 0, 38, 68
1, 49951, Note_off_c, 0, 58, 66
1, 49961, Note_on_c, 0, 68, 34
1, 49967, Note_off_c, 0, 70, 64
1, 49998, Note_off_c, 0, 68, 42
1, 50045, Note_on_c, 0, 71, 82
1, 50047, Note_on_c, 0, 59, 75
1, 50048, Note_on_c, 0, 51, 87
1, 50061, Note_on_c, 0, 39, 63
1, 50071, Note_off_c, 0, 51, 71
1, 50079, Note_off_c, 0, 59, 67
1, 50084, Note_off_c, 0, 71, 64
1, 50088, Note_off_c, 0, 39, 58
1, 50173, Note_on_c, 0, 52, 72
1, 50176, Note_on_c, 0, 40, 60
1, 50176, Control_c, 0, 64, 65
1, 50182, Note_on_c, 0, 70, 78
1, 50192, Note_on_c, 0, 58, 72
1, 50193, Control_c, 0, 64, 127
1, 50206, Note_off_c, 0, 40, 65
1, 50209, Note_off_c, 0, 52, 63
1, 50217, Note_off_c, 0, 70, 51
1, 50218, Note_off_c, 0, 58, 65
1, 50302, Note_on_c, 0, 58, 62
1, 50328, Note_on_c, 0, 70, 52
1, 50355, Note_off_c, 0, 58, 60
1, 50358, Note_off_c, 0, 70, 62
1, 50386, Poly_aftertouch_c, 0, 67, 127
1, 50421, Note_on_c, 0, 56, 79
1, 50432, Note_on_c, 0, 50, 65
1, 50433, Poly_aftertouch_c, 0, 67, 0
1, 50443, Control_c, 0, 64, 63
1, 50447, Note_on_c, 0, 67, 42
1, 50447, Note_on_c, 0, 71, 64
1, 50450, Note_on_c, 0, 59, 63
1, 50457, Control_c, 0, 64, 0
1, 50458, Note_off_c, 0, 56, 62
1, 50462, Note_off_c, 0, 50, 64
1, 50468, Note_off_c, 0, 71, 58
1, 50470, Note_off_c, 0, 59, 63
1, 50471, Note_on_c, 0, 70, 14
1, 50475, Note_off_c, 0, 67, 55
1, 50501, Note_off_c, 0, 70, 31
1, 50536, Note_on_c, 0, 41, 61
1, 50564, Note_on_c, 0, 60, 67
1, 50564, Note_on_c, 0, 72, 68
1, 50570, Note_off_c, 0, 41, 64
1, 50584, Note_on_c, 0, 68, 36
1, 50591, Note_off_c, 0, 72, 67
1, 50593, Note_off_c, 0, 60, 67
1, 50614, Note_off_c, 0, 68, 48
1, 50665, Control_c, 0, 64, 52
1, 50680, Control_c, 0, 64, 58
1, 50685, Note_on_c, 0, 73, 73
1, 50690, Note_on_c, 0, 61, 71
1, 50694, Control_c, 0, 64, 0
1, 50713, Note_off_c, 0, 73, 62
1, 50718, Note_on_c, 0, 69, 33
1, 50721, Note_off_c, 0, 61, 65
1, 50750, Note_off_c, 0, 69, 52
1, 50809, Note_on_c, 0, 49, 53
1, 50811, Note_on_c, 0, 57, 60
1, 50816, Note_on_c, 0, 61, 57
1, 50843, Note_off_c, 0, 57, 66
1, 50848, Note_on_c, 0, 69, 34
1, 50848, Note_off_c, 0, 49, 65
1, 50851, Note_off_c, 0, 61, 64
1, 50878, Note_off_c, 0, 69, 48
1, 50931, Note_on_c, 0, 58, 71
1, 50933, Note_on_c, 0, 48, 65
1, 50947, Note_on_c, 0, 74, 73
1, 50952, Note_on_c, 0, 62, 64
1, 50960, Note_off_c, 0, 58, 66
1, 50960, Note_on_c, 0, 70, 49
1, 50963, Note_off_c, 0, 48, 66
1, 50980, Note_off_c, 0, 74, 60
1, 50985, Note_off_c, 0, 62, 65
1, 50985, Note_off_c, 0, 70, 62
1, 51057, Note_on_c, 0, 41, 51
1, 51064, Note_on_c, 0, 62, 58
1, 51066, Note_on_c, 0, 70, 63
1, 51085, Note_off_c, 0, 41, 58
1, 51097, Note_off_c, 0, 62, 65
1, 51100, Note_off_c, 0, 70, 62
1, 51192, Control_c, 0, 64, 68
1, 51195, Note_on_c, 0, 75, 83
1, 51207, Note_on_c, 0, 71, 60
1, 51207, Control_c, 0, 64, 104
1, 51213, Note_on_c, 0, 63, 66
1, 51222, Control_c, 0, 64, 127
1, 51245, Note_off_c, 0, 63, 64
1, 51274, Note_off_c, 0, 71, 62
1, 51307, Note_off_c, 0, 75, 54
1, 51323, Note_on_c, 0, 47, 60
1, 51327, Note_on_c, 0, 71, 59
1, 51328, Note_on_c, 0, 59, 64
1, 51332, Note_on_c, 0, 63, 61
1, 51356, Note_off_c, 0, 59, 65
1, 51357, Note_off_c, 0, 47, 62
1, 51359, Note_off_c, 0, 63, 67
1, 51375, Note_off_c, 0, 71, 62
1, 51446, Note_on_c, 0, 58, 71
1, 51449, Note_on_c, 0, 70, 70
1, 51455, Note_on_c, 0, 48, 58
1, 51457, Note_on_c, 0, 74, 67
1, 51458, Control_c, 0, 64, 95
1, 51459, Note_on_c, 0, 62, 69
1, 51473, Control_c, 0, 64, 57
1, 51478, Note_off_c, 0, 58, 65
1, 51484, Note_off_c, 0, 48, 64
1, 51485, Note_off_c, 0, 74, 67
1, 51487, Control_c, 0, 64, 0
1, 51489, Note_off_c, 0, 62, 67
1, 51502, Note_off_c, 0, 70, 62
1, 51570, Note_on_c, 0, 49, 57
1, 51580, Note_on_c, 0, 75, 78
1, 51583, Note_on_c, 0, 57, 51
1, 51584, Note_on_c, 0, 63, 70
1, 51604, Note_on_c, 0, 71, 39
1, 51605, Note_off_c, 0, 49, 62
1, 51611, Note_off_c, 0, 57, 54
1, 51614, Note_off_c, 0, 75, 57
1, 51616, Note_off_c, 0, 63, 65
1, 51619, Note_on_c, 0, 72, 26
1, 51629, Note_off_c, 0, 71, 59
1, 51647, Note_off_c, 0, 72, 46
1, 51679, Note_on_c, 0, 56, 68
1, 51683, Note_on_c, 0, 50, 67
1, 51706, Note_on_c, 0, 70, 71
1, 51708, Note_off_c, 0, 56, 66
1, 51711, Note_on_c, 0, 74, 68
1, 51711, Note_off_c, 0, 50, 66
1, 51717, Note_on_c, 0, 62, 57
1, 51717, Control_c, 0, 64, 24
1, 51732, Control_c, 0, 64, 84
1, 51741, Note_off_c, 0, 74, 65
1, 51747, Control_c, 0, 64, 127
1, 51747, Note_off_c, 0, 70, 59
1, 51752, Note_off_c, 0, 62, 64
1, 51815, Note_on_c, 0, 31, 65
1, 51818, Note_on_c, 0, 43, 66
1, 51821, Note_on_c, 0, 62, 68
1, 51827, Note_on_c, 0, 74, 66
1, 51848, Note_off_c, 0, 43, 65
1, 51848, Note_on_c, 0, 70, 53
1, 51848, Note_off_c, 0, 31, 62
1, 51859, Note_off_c, 0, 74, 58
1, 51868, Note_off_c, 0, 62, 56
1, 51868, Note_off_c, 0, 70, 65
1, 51931, Note_on_c, 0, 44, 82
1, 51935, Note_on_c, 0, 32, 63
1, 51951, Note_on_c, 0, 74, 76
1, 51952, Note_on_c, 0, 70, 75
1, 51958, Note_off_c, 0, 44, 66
1, 51960, Note_on_c, 0, 62, 69
1, 51967, Note_off_c, 0, 32, 54
1, 51970, Control_c, 0, 64, 67
1, 51975, Note_off_c, 0, 74, 69
1, 51985, Control_c, 0, 64, 0
1, 51987, Note_off_c, 0, 62, 67
1, 52000, Note_off_c, 0, 70, 63
1, 52068, Note_on_c, 0, 53, 72
1, 52077, Note_on_c, 0, 71, 73
1, 52078, Note_on_c, 0, 63, 68
1, 52092, Note_on_c, 0, 74, 41
1, 52096, Note_on_c, 0, 59, 34
1, 52099, Note_off_c, 0, 53, 65
1, 52104, Note_off_c, 0, 63, 67
1, 52116, Note_off_c, 0, 71, 66
1, 52118, Note_off_c, 0, 74, 54
1, 52127, Note_off_c, 0, 59, 52
1, 52194, Note_on_c, 0, 52, 75
1, 52197, Note_on_c, 0, 76, 74
1, 52200, Note_on_c, 0, 60, 72
1, 52212, Note_on_c, 0, 64, 63
1, 52213, Note_on_c, 0, 74, 51
1, 52221, Note_on_c, 0, 72, 38
1, 52221, Note_off_c, 0, 52, 69
1, 52221, Control_c, 0, 64, 108
1, 52225, Note_off_c, 0, 60, 68
1, 52226, Note_on_c, 0, 71, 58
1, 52236, Control_c, 0, 64, 127
1, 52237, Note_off_c, 0, 74, 56
1, 52241, Note_off_c, 0, 64, 65
1, 52244, Note_off_c, 0, 76, 62
1, 52246, Note_off_c, 0, 71, 62
1, 52248, Note_off_c, 0, 72, 57
1, 52315, Note_on_c, 0, 44, 76
1, 52318, Note_on_c, 0, 64, 73
1, 52321, Note_on_c, 0, 72, 78
1, 52348, Note_off_c, 0, 44, 64
1, 52348, Control_c, 0, 64, 102
1, 52358, Note_off_c, 0, 72, 60
1, 52363, Control_c, 0, 64, 63
1, 52368, Note_off_c, 0, 64, 63
1, 52377, Control_c, 0, 64, 0
1, 52449, Note_on_c, 0, 77, 90
1, 52452, Note_on_c, 0, 65, 81
1, 52453, Note_on_c, 0, 73, 81
1, 52478, Note_off_c, 0, 73, 66
1, 52484, Note_off_c, 0, 65, 62
1, 52494, Note_on_c, 0, 75, 15
1, 52495, Note_off_c, 0, 75, 127
1, 52500, Note_off_c, 0, 77, 62
1, 52569, Note_on_c, 0, 61, 79
1, 52569, Note_on_c, 0, 73, 78
1, 52573, Note_on_c, 0, 65, 70
1, 52581, Note_on_c, 0, 51, 67
1, 52602, Note_off_c, 0, 61, 61
1, 52608, Note_off_c, 0, 65, 66
1, 52613, Note_off_c, 0, 73, 58
1, 52620, Note_off_c, 0, 51, 61
1, 52680, Note_on_c, 0, 50, 79
1, 52683, Note_on_c, 0, 62, 69
1, 52689, Control_c, 0, 64, 77
1, 52692, Note_on_c, 0, 78, 94
1, 52698, Note_on_c, 0, 66, 85
1, 52704, Note_on_c, 0, 74, 69
1, 52704, Control_c, 0, 64, 127
1, 52711, Note_off_c, 0, 62, 67
1, 52713, Note_off_c, 0, 50, 66
1, 52746, Note_off_c, 0, 66, 63
1, 52767, Note_off_c, 0, 74, 62
1, 52799, Note_off_c, 0, 78, 56
1, 52815, Note_on_c, 0, 74, 79
1, 52817, Note_on_c, 0, 32, 83
1, 52820, Note_on_c, 0, 44, 86
1, 52822, Note_on_c, 0, 66, 82
1, 52845, Note_off_c, 0, 44, 66
1, 52848, Note_off_c, 0, 32, 65
1, 52872, Note_off_c, 0, 66, 63
1, 52873, Note_off_c, 0, 74, 63
1, 52912, Control_c, 0, 64, 85
1, 52926, Control_c, 0, 64, 0
1, 52933, Note_on_c, 0, 33, 86
1, 52933, Note_on_c, 0, 45, 90
1, 52943, Note_on_c, 0, 73, 76
1, 52944, Note_on_c, 0, 77, 89
1, 52947, Note_on_c, 0, 65, 77
1, 52958, Note_off_c, 0, 45, 69
1, 52960, Note_off_c, 0, 33, 67
1, 52981, Note_off_c, 0, 77, 65
1, 52985, Note_off_c, 0, 65, 64
1, 53004, Note_off_c, 0, 73, 64
1, 53070, Note_on_c, 0, 46, 88
1, 53075, Note_on_c, 0, 66, 77
1, 53076, Note_on_c, 0, 78, 83
1, 53078, Note_on_c, 0, 34, 77
1, 53079, Note_on_c, 0, 74, 79
1, 53093, Note_off_c, 0, 46, 70
1, 53103, Note_off_c, 0, 34, 65
1, 53108, Note_off_c, 0, 66, 66
1, 53115, Note_off_c, 0, 78, 63
1, 53130, Note_off_c, 0, 74, 60
1, 53200, Note_on_c, 0, 47, 81
1, 53200, Control_c, 0, 64, 60
1, 53201, Note_on_c, 0, 77, 92
1, 53208, Note_on_c, 0, 65, 76
1, 53212, Note_on_c, 0, 73, 77
1, 53214, Note_on_c, 0, 36, 53
1, 53216, Control_c, 0, 64, 127
1, 53225, Note_off_c, 0, 47, 66
1, 53249, Note_off_c, 0, 36, 54
1, 53258, Note_off_c, 0, 65, 62
1, 53263, Note_off_c, 0, 73, 59
1, 53273, Note_off_c, 0, 77, 59
1, 53277, Poly_aftertouch_c, 0, 35, 0
1, 53300, Poly_aftertouch_c, 0, 35, 0
1, 53327, Note_on_c, 0, 65, 79
1, 53329, Note_on_c, 0, 73, 77
1, 53333, Note_on_c, 0, 61, 75
1, 53341, Note_on_c, 0, 56, 66
1, 53350, Note_on_c, 0, 77, 48
1, 53357, Note_off_c, 0, 61, 68
1, 53365, Note_off_c, 0, 56, 60
1, 53372, Note_off_c, 0, 77, 60
1, 53380, Note_off_c, 0, 65, 63
1, 53407, Note_off_c, 0, 73, 60
1, 53446, Note_on_c, 0, 56, 76
1, 53452, Note_on_c, 0, 78, 94
1, 53455, Note_on_c, 0, 62, 59
1, 53458, Note_on_c, 0, 74, 86
1, 53460, Note_on_c, 0, 66, 89
1, 53468, Control_c, 0, 64, 119
1, 53473, Note_on_c, 0, 54, 26
1, 53475, Note_off_c, 0, 62, 63
1, 53479, Note_off_c, 0, 56, 59
1, 53483, Control_c, 0, 64, 127
1, 53512, Note_off_c, 0, 66, 63
1, 53513, Note_off_c, 0, 54, 55
1, 53540, Note_on_c, 0, 47, 75
1, 53568, Note_off_c, 0, 47, 64
1, 53571, Note_on_c, 0, 66, 84
1, 53618, Note_on_c, 0, 54, 46
1, 53620, Note_off_c, 0, 78, 60
1, 53628, Note_off_c, 0, 66, 62
1, 53630, Note_off_c, 0, 74, 63
1, 53652, Note_off_c, 0, 54, 51
1, 53661, Control_c, 0, 64, 88
1, 53675, Control_c, 0, 64, 41
1, 53690, Note_on_c, 0, 63, 85
1, 53690, Control_c, 0, 64, 0
1, 53693, Note_on_c, 0, 55, 71
1, 53697, Note_on_c, 0, 57, 51
1, 53699, Note_on_c, 0, 79, 106
1, 53707, Note_on_c, 0, 67, 91
1, 53711, Note_on_c, 0, 75, 82
1, 53720, Control_c, 0, 64, 49
1, 53733, Note_off_c, 0, 55, 63
1, 53735, Control_c, 0, 64, 65
1, 53740, Note_off_c, 0, 57, 66
1, 53744, Note_off_c, 0, 63, 64
1, 53745, Note_off_c, 0, 75, 55
1, 53750, Control_c, 0, 64, 85
1, 53753, Note_off_c, 0, 67, 62
1, 53765, Control_c, 0, 64, 127
1, 53813, Note_on_c, 0, 48, 81
1, 53833, Note_on_c, 0, 75, 91
1, 53834, Note_on_c, 0, 67, 84
1, 53849, Note_off_c, 0, 79, 62
1, 53857, Note_off_c, 0, 48, 58
1, 53876, Note_off_c, 0, 67, 63
1, 53887, Note_off_c, 0, 75, 63
1, 53894, Poly_aftertouch_c, 0, 51, 127
1, 53905, Control_c, 0, 64, 83
1, 53920, Control_c, 0, 64, 54
1, 53922, Poly_aftertouch_c, 0, 51, 0
1, 53935, Control_c, 0, 64, 0
1, 53941, Note_on_c, 0, 54, 83
1, 53947, Note_on_c, 0, 64, 66
1, 53950, Note_on_c, 0, 80, 98
1, 53950, Control_c, 0, 64, 39
1, 53956, Note_on_c, 0, 58, 51
1, 53957, Note_on_c, 0, 68, 91
1, 53964, Note_off_c, 0, 64, 65
1, 53964, Control_c, 0, 64, 63
1, 53968, Note_on_c, 0, 76, 67
1, 53969, Note_off_c, 0, 54, 67
1, 53979, Control_c, 0, 64, 75
1, 53982, Note_off_c, 0, 58, 57
1, 53994, Control_c, 0, 64, 127
1, 54006, Note_off_c, 0, 68, 62
1, 54006, Note_off_c, 0, 76, 54
1, 54063, Note_on_c, 0, 49, 99
1, 54068, Note_on_c, 0, 37, 85
1, 54071, Note_on_c, 0, 68, 86
1, 54074, Note_on_c, 0, 76, 69
1, 54082, Control_c, 0, 64, 105
1, 54097, Control_c, 0, 64, 66
1, 54099, Note_off_c, 0, 37, 65
1, 54103, Note_off_c, 0, 49, 60
1, 54112, Control_c, 0, 64, 0
1, 54136, Note_off_c, 0, 68, 62
1, 54145, Note_off_c, 0, 80, 61
1, 54156, Control_c, 0, 64, 30
1, 54161, Note_off_c, 0, 76, 63
1, 54172, Control_c, 0, 64, 61
1, 54183, Poly_aftertouch_c, 0, 39, 0
1, 54185, Note_on_c, 0, 50, 94
1, 54187, Control_c, 0, 64, 74
1, 54191, Note_on_c, 0, 38, 86
1, 54200, Note_on_c, 0, 76, 85
1, 54202, Note_on_c, 0, 68, 91
1, 54202, Control_c, 0, 64, 127
1, 54203, Note_on_c, 0, 80, 90
1, 54215, Note_off_c, 0, 38, 64
1, 54233, Note_off_c, 0, 50, 66
1, 54247, Poly_aftertouch_c, 0, 39, 0
1, 54252, Note_off_c, 0, 68, 62
1, 54253, Note_off_c, 0, 76, 63
1, 54278, Note_off_c, 0, 80, 62
1, 54316, Note_on_c, 0, 81, 90
1, 54319, Note_on_c, 0, 69, 92
1, 54325, Note_on_c, 0, 64, 65
1, 54329, Note_on_c, 0, 77, 79
1, 54352, Note_off_c, 0, 64, 64
1, 54368, Note_on_c, 0, 78, 27
1, 54369, Note_off_c, 0, 78, 127
1, 54369, Note_off_c, 0, 69, 66
1, 54369, Note_off_c, 0, 81, 66
1, 54376, Note_off_c, 0, 77, 62
1, 54409, Control_c, 0, 64, 82
1, 54417, Note_on_c, 0, 66, 90
1, 54423, Note_on_c, 0, 54, 74
1, 54424, Control_c, 0, 64, 0
1, 54437, Note_off_c, 0, 66, 71
1, 54441, Note_on_c, 0, 82, 99
1, 54444, Note_on_c, 0, 70, 89
1, 54448, Note_off_c, 0, 54, 68
1, 54449, Note_on_c, 0, 78, 80
1, 54492, Note_off_c, 0, 70, 64
1, 54507, Note_off_c, 0, 78, 62
1, 54520, Note_off_c, 0, 82, 60
1, 54543, Note_on_c, 0, 39, 84
1, 54546, Note_on_c, 0, 51, 95
1, 54561, Note_on_c, 0, 78, 73
1, 54563, Note_on_c, 0, 70, 81
1, 54565, Note_off_c, 0, 51, 70
1, 54568, Note_off_c, 0, 39, 70
1, 54571, Note_on_c, 0, 82, 72
1, 54611, Note_off_c, 0, 82, 63
1, 54611, Note_off_c, 0, 78, 63
1, 54614, Note_off_c, 0, 70, 64
1, 54631, Note_on_c, 0, 51, 20
1, 54674, Note_off_c, 0, 51, 41
1, 54677, Note_on_c, 0, 64, 76
1, 54682, Note_on_c, 0, 83, 103
1, 54683, Control_c, 0, 64, 86
1, 54691, Note_on_c, 0, 71, 86
1, 54698, Control_c, 0, 64, 127
1, 54700, Note_on_c, 0, 79, 75
1, 54701, Note_off_c, 0, 64, 69
1, 54722, Note_off_c, 0, 71, 61
1, 54725, Note_on_c, 0, 60, 30
1, 54725, Note_off_c, 0, 79, 68
1, 54740, Note_off_c, 0, 83, 63
1, 54753, Note_off_c, 0, 60, 0
1, 54772, Poly_aftertouch_c, 0, 60, 0
1, 54778, Poly_aftertouch_c, 0, 56, 0
1, 54788, Note_on_c, 0, 40, 82
1, 54793, Note_on_c, 0, 52, 73
1, 54793, Note_on_c, 0, 79, 76
1, 54810, Note_on_c, 0, 83, 73
1, 54818, Note_on_c, 0, 71, 59
1, 54820, Note_off_c, 0, 40, 65
1, 54820, Note_off_c, 0, 52, 69
1, 54831, Control_c, 0, 64, 34
1, 54833, Note_off_c, 0, 83, 67
1, 54838, Note_off_c, 0, 71, 65
1, 54846, Control_c, 0, 64, 0
1, 54851, Note_off_c, 0, 79, 64
1, 54925, Note_on_c, 0, 71, 67
1, 54932, Note_on_c, 0, 84, 74
1, 54948, Note_off_c, 0, 71, 67
1, 54963, Note_off_c, 0, 84, 64
1, 55013, Note_on_c, 0, 85, 80
1, 55035, Note_on_c, 0, 73, 64
1, 55041, Note_on_c, 0, 61, 65
1, 55064, Note_on_c, 0, 49, 18
1, 55065, Note_off_c, 0, 49, 127
1, 55067, Note_off_c, 0, 73, 65
1, 55068, Note_off_c, 0, 61, 66
1, 55072, Note_off_c, 0, 85, 65
1, 55078, Note_on_c, 0, 80, 73
1, 55136, Note_on_c, 0, 85, 81
1, 55137, Note_on_c, 0, 73, 81
1, 55141, Note_off_c, 0, 80, 62
1, 55147, Note_on_c, 0, 56, 66
1, 55152, Note_on_c, 0, 64, 56
1, 55156, Note_on_c, 0, 61, 35
1, 55169, Note_off_c, 0, 56, 64
1, 55171, Note_off_c, 0, 85, 63
1, 55172, Note_off_c, 0, 73, 62
1, 55174, Note_off_c, 0, 64, 61
1, 55191, Note_off_c, 0, 61, 34
1, 55261, Note_on_c, 0, 86, 75
1, 55262, Note_on_c, 0, 56, 55
1, 55262, Note_on_c, 0, 85, 77
1, 55276, Note_on_c, 0, 74, 67
1, 55294, Note_off_c, 0, 56, 59
1, 55294, Note_off_c, 0, 86, 68
1, 55305, Note_on_c, 0, 80, 80
1, 55306, Note_off_c, 0, 85, 62
1, 55308, Note_off_c, 0, 74, 66
1, 55369, Note_off_c, 0, 80, 59
1, 55378, Note_on_c, 0, 86, 86
1, 55380, Note_on_c, 0, 74, 87
1, 55383, Note_on_c, 0, 85, 86
1, 55407, Note_off_c, 0, 74, 65
1, 55409, Note_off_c, 0, 86, 67
1, 55415, Note_off_c, 0, 85, 67
1, 55484, Note_on_c, 0, 52, 75
1, 55487, Note_on_c, 0, 41, 76
1, 55503, Note_on_c, 0, 75, 84
1, 55503, Note_on_c, 0, 87, 79
1, 55509, Note_on_c, 0, 85, 73
1, 55511, Note_off_c, 0, 52, 69
1, 55518, Note_off_c, 0, 41, 64
1, 55532, Note_off_c, 0, 87, 62
1, 55536, Note_off_c, 0, 75, 58
1, 55539, Note_off_c, 0, 85, 63
1, 55541, Note_on_c, 0, 80, 84
1, 55616, Note_on_c, 0, 75, 94
1, 55619, Note_on_c, 0, 87, 89
1, 55622, Note_off_c, 0, 80, 61
1, 55628, Note_on_c, 0, 85, 71
1, 55652, Note_off_c, 0, 75, 60
1, 55652, Note_off_c, 0, 85, 61
1, 55655, Note_off_c, 0, 87, 64
1, 55735, Note_on_c, 0, 88, 88
1, 55739, Note_on_c, 0, 76, 83
1, 55743, Note_on_c, 0, 85, 67
1, 55754, Note_on_c, 0, 37, 27
1, 55755, Note_off_c, 0, 37, 127
1, 55774, Note_off_c, 0, 88, 64
1, 55782, Note_on_c, 0, 86, 33
1, 55783, Note_off_c, 0, 86, 127
1, 55783, Note_on_c, 0, 80, 83
1, 55787, Note_off_c, 0, 76, 65
1, 55805, Note_off_c, 0, 85, 64
1, 55849, Note_off_c, 0, 80, 66
1, 55851, Poly_aftertouch_c, 0, 85, 0
1, 55857, Note_on_c, 0, 85, 82
1, 55859, Note_on_c, 0, 88, 92
1, 55860, Note_on_c, 0, 64, 70
1, 55860, Note_on_c, 0, 76, 94
1, 55885, Note_off_c, 0, 64, 69
1, 55888, Note_off_c, 0, 76, 64
1, 55898, Note_off_c, 0, 88, 64
1, 55908, Note_off_c, 0, 85, 66
1, 55963, Note_on_c, 0, 61, 76
1, 55971, Note_on_c, 0, 89, 95
1, 55977, Note_on_c, 0, 77, 87
1, 55978, Note_on_c, 0, 85, 73
1, 55991, Note_off_c, 0, 61, 65
1, 56036, Note_on_c, 0, 81, 77
1, 56038, Note_off_c, 0, 77, 60
1, 56038, Note_off_c, 0, 89, 62
1, 56054, Note_off_c, 0, 85, 64
1, 56094, Note_on_c, 0, 57, 66
1, 56096, Note_on_c, 0, 65, 83
1, 56101, Note_on_c, 0, 61, 73
1, 56107, Control_c, 0, 64, 59
1, 56108, Note_on_c, 0, 89, 95
1, 56108, Note_off_c, 0, 81, 64
1, 56111, Note_on_c, 0, 85, 79
1, 56115, Note_on_c, 0, 77, 94
1, 56122, Note_off_c, 0, 65, 66
1, 56122, Control_c, 0, 64, 72
1, 56123, Note_on_c, 0, 58, 43
1, 56124, Note_off_c, 0, 58, 127
1, 56127, Note_off_c, 0, 61, 66
1, 56131, Note_off_c, 0, 57, 67
1, 56137, Control_c, 0, 64, 94
1, 56150, Note_off_c, 0, 89, 62
1, 56151, Control_c, 0, 64, 127
1, 56158, Note_off_c, 0, 85, 65
1, 56160, Note_off_c, 0, 77, 61
1, 56224, Note_on_c, 0, 56, 82
1, 56230, Note_on_c, 0, 44, 61
1, 56232, Note_on_c, 0, 76, 81
1, 56232, Note_on_c, 0, 85, 74
1, 56233, Note_on_c, 0, 88, 80
1, 56251, Note_off_c, 0, 56, 69
1, 56257, Note_off_c, 0, 44, 59
1, 56275, Note_off_c, 0, 76, 58
1, 56278, Note_on_c, 0, 80, 85
1, 56281, Note_off_c, 0, 88, 63
1, 56289, Note_off_c, 0, 85, 64
1, 56299, Control_c, 0, 64, 87
1, 56314, Control_c, 0, 64, 65
1, 56329, Control_c, 0, 64, 52
1, 56343, Note_off_c, 0, 80, 66
1, 56343, Control_c, 0, 64, 60
1, 56353, Note_on_c, 0, 54, 56
1, 56354, Note_on_c, 0, 88, 88
1, 56358, Note_on_c, 0, 85, 80
1, 56358, Note_on_c, 0, 76, 91
1, 56358, Control_c, 0, 64, 67
1, 56367, Note_on_c, 0, 62, 32
1, 56373, Control_c, 0, 64, 76
1, 56378, Note_off_c, 0, 54, 59
1, 56387, Note_off_c, 0, 88, 65
1, 56388, Control_c, 0, 64, 103
1, 56389, Note_off_c, 0, 76, 67
1, 56403, Note_off_c, 0, 62, 54
1, 56403, Control_c, 0, 64, 127
1, 56407, Note_off_c, 0, 85, 65
1, 56451, Note_on_c, 0, 52, 84
1, 56454, Note_on_c, 0, 40, 79
1, 56474, Note_on_c, 0, 75, 86
1, 56477, Control_c, 0, 64, 81
1, 56477, Note_on_c, 0, 87, 81
1, 56478, Note_on_c, 0, 85, 75
1, 56480, Note_off_c, 0, 52, 65
1, 56483, Note_off_c, 0, 40, 64
1, 56492, Control_c, 0, 64, 63
1, 56507, Control_c, 0, 64, 40
1, 56509, Note_on_c, 0, 80, 85
1, 56510, Note_off_c, 0, 87, 62
1, 56515, Note_off_c, 0, 75, 57
1, 56518, Note_off_c, 0, 85, 61
1, 56522, Control_c, 0, 64, 45
1, 56537, Control_c, 0, 64, 59
1, 56551, Control_c, 0, 64, 66
1, 56567, Control_c, 0, 64, 76
1, 56577, Note_off_c, 0, 80, 53
1, 56582, Control_c, 0, 64, 97
1, 56588, Note_on_c, 0, 61, 62
1, 56596, Note_on_c, 0, 75, 93
1, 56596, Note_on_c, 0, 87, 96
1, 56597, Control_c, 0, 64, 127
1, 56599, Note_on_c, 0, 85, 84
1, 56608, Note_off_c, 0, 61, 61
1, 56636, Poly_aftertouch_c, 0, 79, 0
1, 56638, Note_off_c, 0, 75, 63
1, 56643, Note_off_c, 0, 87, 64
1, 56645, Note_off_c, 0, 85, 64
1, 56686, Control_c, 0, 64, 102
1, 56697, Note_on_c, 0, 37, 80
1, 56700, Control_c, 0, 64, 98
1, 56713, Note_on_c, 0, 88, 87
1, 56715, Control_c, 0, 64, 127
1, 56716, Note_on_c, 0, 76, 87
1, 56717, Note_on_c, 0, 85, 77
1, 56728, Note_off_c, 0, 37, 64
1, 56755, Note_off_c, 0, 88, 65
1, 56758, Note_on_c, 0, 80, 86
1, 56774, Note_off_c, 0, 76, 63
1, 56784, Note_off_c, 0, 85, 65
1, 56838, Note_on_c, 0, 64, 80
1, 56844, Note_on_c, 0, 88, 96
1, 56847, Note_on_c, 0, 85, 79
1, 56850, Note_on_c, 0, 76, 85
1, 56859, Note_off_c, 0, 80, 58
1, 56860, Note_off_c, 0, 64, 71
1, 56874, Note_off_c, 0, 76, 70
1, 56881, Note_off_c, 0, 88, 64
1, 56886, Control_c, 0, 64, 110
1, 56890, Note_off_c, 0, 85, 61
1, 56901, Control_c, 0, 64, 97
1, 56916, Control_c, 0, 64, 92
1, 56931, Control_c, 0, 64, 98
1, 56945, Note_on_c, 0, 61, 84
1, 56945, Control_c, 0, 64, 127
1, 56963, Note_on_c, 0, 89, 92
1, 56964, Note_on_c, 0, 77, 94
1, 56967, Note_on_c, 0, 85, 83
1, 56990, Note_off_c, 0, 61, 62
1, 57007, Note_off_c, 0, 89, 58
1, 57016, Note_off_c, 0, 77, 61
1, 57017, Note_on_c, 0, 81, 74
1, 57033, Note_off_c, 0, 85, 64
1, 57035, Control_c, 0, 64, 74
1, 57050, Control_c, 0, 64, 45
1, 57065, Control_c, 0, 64, 0
1, 57071, Note_on_c, 0, 57, 73
1, 57074, Note_on_c, 0, 65, 86
1, 57081, Note_on_c, 0, 61, 76
1, 57090, Note_on_c, 0, 85, 85
1, 57091, Note_on_c, 0, 89, 103
1, 57092, Note_on_c, 0, 77, 98
1, 57094, Control_c, 0, 64, 56
1, 57094, Note_off_c, 0, 81, 66
1, 57099, Note_off_c, 0, 65, 65
1, 57103, Note_off_c, 0, 61, 69
1, 57109, Control_c, 0, 64, 65
1, 57115, Note_off_c, 0, 57, 64
1, 57124, Control_c, 0, 64, 78
1, 57134, Note_off_c, 0, 89, 62
1, 57136, Note_off_c, 0, 77, 64
1, 57139, Control_c, 0, 64, 117
1, 57141, Note_off_c, 0, 85, 66
1, 57143, Note_on_c, 0, 58, 16
1, 57154, Control_c, 0, 64, 127
1, 57178, Note_off_c, 0, 58, 47
1, 57205, Note_on_c, 0, 56, 84
1, 57215, Note_on_c, 0, 85, 82
1, 57216, Note_on_c, 0, 88, 83
1, 57217, Note_on_c, 0, 76, 83
1, 57219, Note_on_c, 0, 44, 53
1, 57229, Note_off_c, 0, 56, 70
1, 57247, Note_off_c, 0, 44, 55
1, 57264, Note_on_c, 0, 80, 87
1, 57270, Note_off_c, 0, 76, 60
1, 57271, Note_off_c, 0, 88, 64
1, 57280, Note_off_c, 0, 85, 64
1, 57301, Control_c, 0, 64, 116
1, 57316, Control_c, 0, 64, 83
1, 57326, Note_on_c, 0, 56, 56
1, 57331, Control_c, 0, 64, 80
1, 57338, Note_on_c, 0, 88, 93
1, 57340, Note_on_c, 0, 76, 91
1, 57343, Note_on_c, 0, 85, 82
1, 57346, Control_c, 0, 64, 91
1, 57348, Note_off_c, 0, 56, 62
1, 57354, Note_off_c, 0, 80, 41
1, 57361, Control_c, 0, 64, 127
1, 57379, Note_on_c, 0, 62, 2
1, 57380, Note_off_c, 0, 88, 66
1, 57384, Note_off_c, 0, 76, 67
1, 57394, Note_off_c, 0, 85, 64
1, 57423, Note_off_c, 0, 62, 47
1, 57424, Note_on_c, 0, 40, 82
1, 57427, Note_on_c, 0, 52, 77
1, 57451, Note_off_c, 0, 40, 64
1, 57452, Note_on_c, 0, 75, 91
1, 57455, Note_off_c, 0, 52, 69
1, 57456, Note_on_c, 0, 85, 71
1, 57458, Note_on_c, 0, 87, 82
1, 57466, Control_c, 0, 64, 90
1, 57480, Control_c, 0, 64, 79
1, 57492, Note_on_c, 0, 80, 82
1, 57495, Control_c, 0, 64, 79
1, 57502, Note_off_c, 0, 75, 62
1, 57510, Control_c, 0, 64, 89
1, 57511, Note_off_c, 0, 87, 63
1, 57520, Note_off_c, 0, 85, 64
1, 57532, Control_c, 0, 64, 115
1, 57547, Control_c, 0, 64, 127
1, 57568, Note_on_c, 0, 61, 47
1, 57579, Note_on_c, 0, 75, 101
1, 57579, Note_on_c, 0, 87, 92
1, 57580, Note_on_c, 0, 54, 28
1, 57580, Note_on_c, 0, 85, 85
1, 57593, Note_off_c, 0, 61, 55
1, 57595, Note_off_c, 0, 80, 65
1, 57618, Note_off_c, 0, 54, 51
1, 57621, Note_off_c, 0, 75, 64
1, 57628, Note_off_c, 0, 85, 66
1, 57628, Note_off_c, 0, 87, 65
1, 57651, Control_c, 0, 64, 87
1, 57666, Control_c, 0, 64, 73
1, 57668, Note_on_c, 0, 37, 74
1, 57680, Control_c, 0, 64, 70
1, 57690, Note_off_c, 0, 37, 61
1, 57695, Control_c, 0, 64, 78
1, 57697, Note_on_c, 0, 85, 77
1, 57697, Note_on_c, 0, 88, 80
1, 57699, Note_on_c, 0, 76, 80
1, 57710, Control_c, 0, 64, 96
1, 57724, Control_c, 0, 64, 127
1, 57744, Note_off_c, 0, 76, 58
1, 57747, Note_off_c, 0, 88, 64
1, 57754, Note_on_c, 0, 80, 78
1, 57760, Note_off_c, 0, 85, 64
1, 57819, Note_off_c, 0, 80, 63
1, 57836, Note_on_c, 0, 64, 52
1, 57837, Note_on_c, 0, 85, 68
1, 57837, Note_on_c, 0, 88, 68
1, 57840, Note_on_c, 0, 76, 72
1, 57843, Control_c, 0, 64, 98
1, 57853, Note_off_c, 0, 88, 65
1, 57858, Control_c, 0, 64, 86
1, 57870, Note_off_c, 0, 76, 66
1, 57870, Note_off_c, 0, 64, 64
1, 57873, Control_c, 0, 64, 83
1, 57875, Note_off_c, 0, 85, 60
1, 57887, Control_c, 0, 64, 84
1, 57902, Control_c, 0, 64, 85
1, 57916, Note_on_c, 0, 61, 58
1, 57917, Control_c, 0, 64, 82
1, 57932, Control_c, 0, 64, 71
1, 57944, Note_on_c, 0, 85, 72
1, 57947, Control_c, 0, 64, 58
1, 57956, Note_on_c, 0, 73, 65
1, 57962, Control_c, 0, 64, 0
1, 57968, Note_on_c, 0, 81, 51
1, 57983, Note_on_c, 0, 64, 58
1, 58001, Note_off_c, 0, 73, 58
1, 58006, Control_c, 0, 64, 43
1, 58015, Note_off_c, 0, 85, 62
1, 58021, Control_c, 0, 64, 59
1, 58028, Note_off_c, 0, 61, 56
1, 58033, Note_off_c, 0, 81, 63
1, 58036, Control_c, 0, 64, 66
1, 58050, Control_c, 0, 64, 72
1, 58052, Note_on_c, 0, 57, 56
1, 58053, Note_off_c, 0, 64, 64
1, 58065, Control_c, 0, 64, 84
1, 58078, Note_on_c, 0, 69, 19
1, 58078, Note_on_c, 0, 85, 80
1, 58080, Control_c, 0, 64, 102
1, 58087, Note_on_c, 0, 73, 82
1, 58087, Note_off_c, 0, 57, 63
1, 58088, Note_on_c, 0, 81, 60
1, 58095, Control_c, 0, 64, 127
1, 58116, Note_off_c, 0, 69, 55
1, 58126, Note_off_c, 0, 81, 61
1, 58137, Note_off_c, 0, 73, 64
1, 58146, Note_off_c, 0, 85, 66
1, 58186, Note_on_c, 0, 53, 62
1, 58203, Note_on_c, 0, 80, 92
1, 58204, Note_on_c, 0, 74, 88
1, 58206, Note_on_c, 0, 86, 90
1, 58233, Note_on_c, 0, 56, 77
1, 58257, Note_off_c, 0, 53, 59
1, 58259, Control_c, 0, 64, 96
1, 58260, Note_off_c, 0, 74, 62
1, 58277, Note_off_c, 0, 86, 64
1, 58281, Control_c, 0, 64, 78
1, 58284, Note_off_c, 0, 80, 64
1, 58290, Note_on_c, 0, 48, 55
1, 58296, Control_c, 0, 64, 69
1, 58302, Note_on_c, 0, 60, 67
1, 58302, Note_off_c, 0, 56, 63
1, 58311, Control_c, 0, 64, 69
1, 58315, Note_off_c, 0, 48, 55
1, 58326, Control_c, 0, 64, 76
1, 58332, Note_on_c, 0, 80, 95
1, 58332, Note_on_c, 0, 86, 96
1, 58338, Note_on_c, 0, 74, 92
1, 58341, Control_c, 0, 64, 90
1, 58355, Control_c, 0, 64, 112
1, 58356, Note_off_c, 0, 60, 63
1, 58370, Control_c, 0, 64, 127
1, 58381, Note_off_c, 0, 74, 66
1, 58383, Note_off_c, 0, 86, 67
1, 58409, Note_on_c, 0, 60, 50
1, 58413, Note_off_c, 0, 80, 62
1, 58461, Note_on_c, 0, 85, 94
1, 58464, Note_on_c, 0, 87, 96
1, 58466, Note_on_c, 0, 75, 92
1, 58472, Control_c, 0, 64, 95
1, 58486, Note_on_c, 0, 63, 72
1, 58487, Control_c, 0, 64, 75
1, 58502, Control_c, 0, 64, 64
1, 58517, Control_c, 0, 64, 60
1, 58532, Control_c, 0, 64, 61
1, 58533, Note_off_c, 0, 87, 63
1, 58534, Note_off_c, 0, 75, 61
1, 58537, Note_off_c, 0, 85, 66
1, 58546, Control_c, 0, 64, 65
1, 58558, Note_on_c, 0, 68, 73
1, 58561, Control_c, 0, 64, 72
1, 58566, Note_off_c, 0, 60, 63
1, 58569, Note_on_c, 0, 56, 77
1, 58576, Control_c, 0, 64, 87
1, 58586, Note_on_c, 0, 84, 82
1, 58588, Note_on_c, 0, 75, 95
1, 58589, Note_on_c, 0, 87, 98
1, 58589, Note_off_c, 0, 63, 62
1, 58591, Note_off_c, 0, 68, 66
1, 58591, Control_c, 0, 64, 127
1, 58615, Note_off_c, 0, 56, 63
1, 58639, Note_off_c, 0, 75, 61
1, 58651, Note_off_c, 0, 87, 63
1, 58656, Note_off_c, 0, 84, 65
1, 58662, Poly_aftertouch_c, 0, 55, 127
1, 58690, Poly_aftertouch_c, 0, 55, 0
1, 58701, Note_on_c, 0, 52, 65
1, 58702, Note_on_c, 0, 83, 90
1, 58707, Note_on_c, 0, 76, 84
1, 58708, Note_on_c, 0, 88, 93
1, 58751, Note_on_c, 0, 55, 76
1, 58769, Control_c, 0, 64, 92
1, 58775, Note_off_c, 0, 88, 64
1, 58779, Note_off_c, 0, 76, 59
1, 58782, Note_off_c, 0, 83, 61
1, 58783, Note_on_c, 0, 47, 73
1, 58784, Note_off_c, 0, 52, 65
1, 58784, Control_c, 0, 64, 72
1, 58799, Control_c, 0, 64, 65
1, 58813, Control_c, 0, 64, 68
1, 58821, Note_on_c, 0, 59, 74
1, 58822, Note_on_c, 0, 83, 89
1, 58823, Note_on_c, 0, 76, 82
1, 58823, Note_off_c, 0, 55, 64
1, 58825, Note_on_c, 0, 88, 85
1, 58828, Control_c, 0, 64, 78
1, 58831, Note_off_c, 0, 47, 62
1, 58843, Control_c, 0, 64, 99
1, 58854, Note_off_c, 0, 59, 64
1, 58858, Control_c, 0, 64, 127
1, 58880, Note_off_c, 0, 76, 64
1, 58886, Note_off_c, 0, 88, 68
1, 58888, Note_off_c, 0, 83, 66
1, 58913, Note_on_c, 0, 59, 72
1, 58943, Note_on_c, 0, 89, 107
1, 58944, Note_on_c, 0, 86, 93
1, 58946, Note_on_c, 0, 77, 103
1, 58991, Note_on_c, 0, 62, 79
1, 58992, Control_c, 0, 64, 118
1, 59007, Note_off_c, 0, 89, 63
1, 59007, Control_c, 0, 64, 76
1, 59020, Note_off_c, 0, 77, 62
1, 59029, Note_off_c, 0, 86, 65
1, 59029, Control_c, 0, 64, 60
1, 59040, Note_off_c, 0, 59, 62
1, 59044, Control_c, 0, 64, 54
1, 59059, Control_c, 0, 64, 63
1, 59067, Note_on_c, 0, 53, 75
1, 59068, Note_on_c, 0, 67, 72
1, 59073, Note_on_c, 0, 86, 94
1, 59074, Control_c, 0, 64, 70
1, 59074, Note_off_c, 0, 62, 64
1, 59076, Note_on_c, 0, 89, 104
1, 59080, Note_on_c, 0, 77, 96
1, 59089, Control_c, 0, 64, 83
1, 59093, Note_off_c, 0, 67, 68
1, 59103, Control_c, 0, 64, 111
1, 59113, Note_off_c, 0, 53, 63
1, 59118, Control_c, 0, 64, 127
1, 59124, Note_off_c, 0, 77, 66
1, 59126, Note_off_c, 0, 89, 64
1, 59137, Note_off_c, 0, 86, 64
1, 59177, Control_c, 0, 64, 102
1, 59190, Note_on_c, 0, 51, 82
1, 59192, Control_c, 0, 64, 79
1, 59199, Note_on_c, 0, 90, 107
1, 59203, Note_on_c, 0, 78, 100
1, 59203, Note_on_c, 0, 85, 95
1, 59207, Control_c, 0, 64, 70
1, 59222, Control_c, 0, 64, 72
1, 59237, Control_c, 0, 64, 82
1, 59245, Note_on_c, 0, 54, 84
1, 59251, Control_c, 0, 64, 111
1, 59253, Note_off_c, 0, 51, 63
1, 59266, Control_c, 0, 64, 127
1, 59274, Note_off_c, 0, 78, 62
1, 59282, Note_off_c, 0, 90, 63
1, 59291, Note_off_c, 0, 85, 65
1, 59295, Control_c, 0, 64, 108
1, 59310, Control_c, 0, 64, 75
1, 59320, Note_on_c, 0, 58, 79
1, 59321, Note_off_c, 0, 54, 67
1, 59324, Note_on_c, 0, 46, 83
1, 59325, Control_c, 0, 64, 63
1, 59333, Note_on_c, 0, 90, 103
1, 59334, Note_on_c, 0, 85, 90
1, 59336, Note_on_c, 0, 78, 103
1, 59345, Note_off_c, 0, 58, 69
1, 59351, Note_off_c, 0, 46, 68
1, 59355, Control_c, 0, 64, 70
1, 59369, Control_c, 0, 64, 83
1, 59384, Control_c, 0, 64, 113
1, 59399, Control_c, 0, 64, 127
1, 59402, Note_off_c, 0, 78, 64
1, 59419, Note_off_c, 0, 90, 66
1, 59432, Note_off_c, 0, 85, 63
1, 59458, Control_c, 0, 64, 77
1, 59473, Control_c, 0, 64, 59
1, 59476, Note_on_c, 0, 91, 107
1, 59478, Note_on_c, 0, 88, 90
1, 59481, Note_on_c, 0, 40, 93
1, 59481, Note_on_c, 0, 79, 96
1, 59488, Control_c, 0, 64, 28
1, 59490, Note_on_c, 0, 28, 85
1, 59500, Note_on_c, 0, 81, 64
1, 59501, Note_off_c, 0, 81, 127
1, 59503, Control_c, 0, 64, 42
1, 59503, Note_on_c, 0, 84, 45
1, 59518, Control_c, 0, 64, 60
1, 59530, Note_off_c, 0, 84, 41
1, 59533, Control_c, 0, 64, 66
1, 59548, Control_c, 0, 64, 74
1, 59562, Control_c, 0, 64, 82
1, 59569, Note_on_c, 0, 83, 81
1, 59570, Note_off_c, 0, 79, 63
1, 59573, Note_on_c, 0, 82, 34
1, 59577, Control_c, 0, 64, 88
1, 59585, Note_off_c, 0, 28, 29
1, 59587, Note_off_c, 0, 40, 58
1, 59592, Control_c, 0, 64, 90
1, 59595, Note_off_c, 0, 88, 64
1, 59607, Control_c, 0, 64, 89
1, 59609, Note_off_c, 0, 91, 60
1, 59622, Control_c, 0, 64, 79
1, 59636, Control_c, 0, 64, 56
1, 59651, Control_c, 0, 64, 0
1, 59664, Note_on_c, 0, 91, 102
1, 59667, Note_off_c, 0, 82, 39
1, 59667, Note_on_c, 0, 28, 95
1, 59668, Note_on_c, 0, 88, 89
1, 59670, Note_on_c, 0, 40, 91
1, 59672, Note_on_c, 0, 79, 96
1, 59687, Note_off_c, 0, 83, 62
1, 59695, Control_c, 0, 64, 25
1, 59697, Note_off_c, 0, 28, 65
1, 59710, Control_c, 0, 64, 56
1, 59725, Control_c, 0, 64, 67
1, 59726, Note_off_c, 0, 40, 63
1, 59740, Control_c, 0, 64, 79
1, 59748, Note_off_c, 0, 91, 64
1, 59755, Control_c, 0, 64, 92
1, 59757, Note_off_c, 0, 79, 66
1, 59777, Note_off_c, 0, 88, 64
1, 59778, Control_c, 0, 64, 94
1, 59792, Control_c, 0, 64, 91
1, 59807, Control_c, 0, 64, 89
1, 59847, Note_on_c, 0, 88, 84
1, 59852, Control_c, 0, 64, 89
1, 59853, Note_on_c, 0, 76, 78
1, 59867, Control_c, 0, 64, 88
1, 59884, Note_on_c, 0, 86, 34
1, 59891, Note_off_c, 0, 86, 44
1, 59893, Note_off_c, 0, 76, 60
1, 59897, Control_c, 0, 64, 89
1, 59901, Note_on_c, 0, 83, 51
1, 59911, Note_off_c, 0, 88, 65
1, 59911, Control_c, 0, 64, 90
1, 59926, Control_c, 0, 64, 91
1, 59941, Control_c, 0, 64, 92
1, 59958, Note_on_c, 0, 88, 83
1, 59960, Note_on_c, 0, 76, 85
1, 59961, Note_on_c, 0, 52, 65
1, 59980, Note_off_c, 0, 83, 65
1, 59986, Control_c, 0, 64, 91
1, 59999, Note_off_c, 0, 76, 62
1, 60000, Control_c, 0, 64, 90
1, 60001, Note_on_c, 0, 86, 25
1, 60002, Note_off_c, 0, 88, 66
1, 60015, Control_c, 0, 64, 88
1, 60030, Control_c, 0, 64, 87
1, 60040, Note_off_c, 0, 86, 43
1, 60045, Control_c, 0, 64, 87
1, 60069, Note_off_c, 0, 52, 61
1, 60073, Note_on_c, 0, 89, 94
1, 60079, Note_on_c, 0, 77, 87
1, 60080, Note_on_c, 0, 55, 65
1, 60089, Control_c, 0, 64, 86
1, 60093, Note_on_c, 0, 86, 58
1, 60118, Control_c, 0, 64, 86
1, 60126, Note_off_c, 0, 89, 64
1, 60133, Control_c, 0, 64, 85
1, 60134, Note_off_c, 0, 77, 62
1, 60135, Note_on_c, 0, 83, 73
1, 60135, Note_off_c, 0, 86, 63
1, 60148, Control_c, 0, 64, 84
1, 60152, Note_off_c, 0, 55, 62
1, 60163, Note_on_c, 0, 84, 33
1, 60163, Control_c, 0, 64, 83
1, 60183, Note_on_c, 0, 60, 70
1, 60195, Note_on_c, 0, 89, 93
1, 60198, Note_off_c, 0, 84, 55
1, 60203, Note_on_c, 0, 77, 82
1, 60207, Control_c, 0, 64, 84
1, 60208, Note_off_c, 0, 83, 67
1, 60213, Note_on_c, 0, 86, 65
1, 60222, Control_c, 0, 64, 85
1, 60223, Note_off_c, 0, 60, 64
1, 60224, Note_on_c, 0, 88, 37
1, 60229, Note_off_c, 0, 77, 68
1, 60233, Note_off_c, 0, 86, 64
1, 60239, Note_off_c, 0, 89, 66
1, 60252, Control_c, 0, 64, 85
1, 60254, Note_off_c, 0, 88, 37
1, 60296, Control_c, 0, 64, 86
1, 60324, Note_on_c, 0, 90, 83
1, 60325, Note_on_c, 0, 87, 79
1, 60326, Control_c, 0, 64, 86
1, 60326, Note_on_c, 0, 78, 87
1, 60337, Note_on_c, 0, 63, 58
1, 60341, Control_c, 0, 64, 87
1, 60356, Control_c, 0, 64, 87
1, 60362, Note_off_c, 0, 90, 64
1, 60367, Note_off_c, 0, 87, 63
1, 60371, Control_c, 0, 64, 88
1, 60371, Note_on_c, 0, 83, 77
1, 60373, Note_off_c, 0, 78, 63
1, 60385, Control_c, 0, 64, 88
1, 60387, Note_on_c, 0, 82, 54
1, 60387, Note_off_c, 0, 63, 52
1, 60411, Note_off_c, 0, 82, 59
1, 60415, Control_c, 0, 64, 89
1, 60436, Note_on_c, 0, 78, 91
1, 60442, Note_on_c, 0, 90, 90
1, 60444, Control_c, 0, 64, 89
1, 60445, Note_off_c, 0, 83, 64
1, 60450, Note_on_c, 0, 71, 77
1, 60450, Note_on_c, 0, 87, 83
1, 60459, Control_c, 0, 64, 90
1, 60473, Note_off_c, 0, 87, 70
1, 60474, Control_c, 0, 64, 90
1, 60484, Note_off_c, 0, 78, 65
1, 60492, Note_off_c, 0, 90, 64
1, 60504, Control_c, 0, 64, 91
1, 60517, Note_off_c, 0, 71, 60
1, 60540, Control_c, 0, 64, 90
1, 60563, Note_on_c, 0, 91, 86
1, 60565, Note_on_c, 0, 79, 87
1, 60566, Note_on_c, 0, 88, 81
1, 60585, Note_on_c, 0, 89, 69
1, 60591, Note_on_c, 0, 67, 51
1, 60602, Note_off_c, 0, 89, 64
1, 60608, Note_off_c, 0, 91, 63
1, 60612, Note_on_c, 0, 83, 79
1, 60612, Note_off_c, 0, 79, 65
1, 60630, Note_off_c, 0, 88, 64
1, 60642, Note_off_c, 0, 67, 59
1, 60645, Control_c, 0, 64, 91
1, 60652, Note_on_c, 0, 59, 72
1, 60660, Control_c, 0, 64, 92
1, 60673, Note_on_c, 0, 88, 73
1, 60675, Control_c, 0, 64, 94
1, 60677, Note_on_c, 0, 91, 94
1, 60679, Note_on_c, 0, 79, 87
1, 60684, Note_off_c, 0, 59, 66
1, 60688, Note_off_c, 0, 83, 66
1, 60689, Control_c, 0, 64, 95
1, 60715, Note_off_c, 0, 79, 67
1, 60720, Control_c, 0, 64, 96
1, 60722, Note_off_c, 0, 88, 66
1, 60722, Note_off_c, 0, 91, 65
1, 60735, Control_c, 0, 64, 96
1, 60749, Control_c, 0, 64, 98
1, 60764, Control_c, 0, 64, 102
1, 60779, Control_c, 0, 64, 108
1, 60794, Control_c, 0, 64, 117
1, 60796, Note_on_c, 0, 92, 104
1, 60798, Note_on_c, 0, 80, 99
1, 60803, Note_on_c, 0, 44, 87
1, 60805, Note_on_c, 0, 56, 77
1, 60809, Control_c, 0, 64, 127
1, 60831, Note_off_c, 0, 44, 67
1, 60832, Note_off_c, 0, 56, 65
1, 60879, Note_on_c, 0, 84, 86
1, 60893, Note_off_c, 0, 80, 63
1, 60896, Poly_aftertouch_c, 0, 88, 127
1, 60898, Control_c, 0, 64, 76
1, 60907, Note_off_c, 0, 92, 63
1, 60913, Control_c, 0, 64, 30
1, 60924, Poly_aftertouch_c, 0, 88, 0
1, 60928, Control_c, 0, 64, 0
1, 60945, Note_on_c, 0, 28, 101
1, 60952, Note_on_c, 0, 40, 93
1, 60957, Control_c, 0, 64, 31
1, 60958, Note_on_c, 0, 92, 93
1, 60959, Note_on_c, 0, 80, 92
1, 60961, Note_off_c, 0, 84, 64
1, 60968, Note_off_c, 0, 28, 70
1, 60970, Note_on_c, 0, 88, 71
1, 60972, Control_c, 0, 64, 52
1, 60977, Note_off_c, 0, 40, 68
1, 60987, Control_c, 0, 64, 62
1, 61002, Control_c, 0, 64, 70
1, 61008, Note_off_c, 0, 80, 64
1, 61014, Note_off_c, 0, 88, 57
1, 61016, Control_c, 0, 64, 89
1, 61021, Note_off_c, 0, 92, 66
1, 61031, Control_c, 0, 64, 127
1, 61060, Control_c, 0, 64, 104
1, 61075, Control_c, 0, 64, 94
1, 61083, Note_on_c, 0, 79, 81
1, 61084, Note_on_c, 0, 91, 83
1, 61091, Poly_aftertouch_c, 0, 28, 127
1, 61092, Note_on_c, 0, 88, 73
1, 61105, Control_c, 0, 64, 96
1, 61120, Control_c, 0, 64, 100
1, 61128, Poly_aftertouch_c, 0, 28, 0
1, 61135, Note_on_c, 0, 83, 70
1, 61135, Control_c, 0, 64, 105
1, 61137, Note_off_c, 0, 79, 66
1, 61146, Note_off_c, 0, 91, 60
1, 61149, Control_c, 0, 64, 110
1, 61155, Note_on_c, 0, 47, 11
1, 61157, Note_off_c, 0, 88, 61
1, 61164, Control_c, 0, 64, 127
1, 61196, Note_on_c, 0, 55, 76
1, 61205, Note_off_c, 0, 47, 50
1, 61206, Note_on_c, 0, 91, 86
1, 61207, Note_on_c, 0, 79, 85
1, 61209, Poly_aftertouch_c, 0, 89, 0
1, 61210, Poly_aftertouch_c, 0, 87, 0
1, 61215, Note_on_c, 0, 88, 56
1, 61218, Note_on_c, 0, 89, 65
1, 61225, Note_off_c, 0, 55, 68
1, 61225, Note_off_c, 0, 83, 65
1, 61247, Note_off_c, 0, 89, 66
1, 61248, Note_off_c, 0, 91, 63
1, 61251, Note_off_c, 0, 79, 66
1, 61252, Note_off_c, 0, 88, 67
1, 61342, Note_on_c, 0, 87, 80
1, 61342, Note_on_c, 0, 90, 85
1, 61344, Note_on_c, 0, 63, 74
1, 61344, Note_on_c, 0, 78, 86
1, 61387, Note_on_c, 0, 83, 79
1, 61396, Note_off_c, 0, 78, 63
1, 61402, Note_off_c, 0, 90, 62
1, 61404, Note_off_c, 0, 63, 56
1, 61408, Note_off_c, 0, 87, 62
1, 61465, Note_on_c, 0, 90, 91
1, 61472, Note_on_c, 0, 71, 76
1, 61472, Note_on_c, 0, 78, 90
1, 61476, Note_on_c, 0, 87, 83
1, 61485, Note_off_c, 0, 83, 64
1, 61507, Note_off_c, 0, 87, 64
1, 61508, Note_off_c, 0, 78, 62
1, 61518, Note_off_c, 0, 90, 65
1, 61526, Note_off_c, 0, 71, 61
1, 61582, Note_on_c, 0, 79, 93
1, 61583, Note_on_c, 0, 91, 91
1, 61588, Note_on_c, 0, 88, 78
1, 61618, Note_on_c, 0, 67, 52
1, 61637, Note_off_c, 0, 79, 65
1, 61643, Note_on_c, 0, 84, 72
1, 61646, Note_on_c, 0, 83, 78
1, 61647, Note_off_c, 0, 91, 61
1, 61665, Note_off_c, 0, 67, 61
1, 61668, Note_off_c, 0, 88, 63
1, 61671, Note_on_c, 0, 59, 72
1, 61706, Note_on_c, 0, 91, 97
1, 61709, Note_off_c, 0, 59, 61
1, 61716, Note_on_c, 0, 88, 74
1, 61719, Note_on_c, 0, 79, 91
1, 61724, Note_off_c, 0, 83, 55
1, 61725, Note_on_c, 0, 81, 75
1, 61733, Note_off_c, 0, 84, 65
1, 61746, Note_off_c, 0, 81, 70
1, 61755, Note_off_c, 0, 79, 65
1, 61770, Note_off_c, 0, 91, 62
1, 61775, Note_off_c, 0, 88, 64
1, 61858, Note_on_c, 0, 92, 106
1, 61860, Note_on_c, 0, 80, 103
1, 61861, Note_on_c, 0, 44, 91
1, 61861, Note_on_c, 0, 56, 91
1, 61887, Note_off_c, 0, 56, 68
1, 61894, Note_off_c, 0, 44, 63
1, 61918, Note_on_c, 0, 88, 18
1, 61953, Note_on_c, 0, 84, 81
1, 61991, Note_off_c, 0, 80, 61
1, 62022, Note_off_c, 0, 92, 62
1, 62023, Control_c, 0, 64, 118
1, 62034, Note_off_c, 0, 88, 39
1, 62038, Control_c, 0, 64, 68
1, 62050, Note_off_c, 0, 84, 65
1, 62052, Control_c, 0, 64, 0
1, 62072, Note_on_c, 0, 28, 106
1, 62073, Note_on_c, 0, 40, 87
1, 62078, Note_on_c, 0, 92, 100
1, 62082, Note_on_c, 0, 80, 103
1, 62090, Note_on_c, 0, 88, 87
1, 62096, Control_c, 0, 64, 37
1, 62102, Note_off_c, 0, 28, 66
1, 62111, Control_c, 0, 64, 56
1, 62120, Note_off_c, 0, 40, 63
1, 62126, Control_c, 0, 64, 65
1, 62141, Control_c, 0, 64, 73
1, 62156, Control_c, 0, 64, 85
1, 62172, Note_off_c, 0, 80, 62
1, 62172, Control_c, 0, 64, 93
1, 62183, Note_off_c, 0, 92, 65
1, 62186, Note_off_c, 0, 88, 58
1, 62186, Control_c, 0, 64, 92
1, 62201, Control_c, 0, 64, 90
1, 62246, Control_c, 0, 64, 91
1, 62248, Note_on_c, 0, 79, 82
1, 62253, Note_on_c, 0, 91, 83
1, 62256, Note_on_c, 0, 88, 69
1, 62260, Control_c, 0, 64, 91
1, 62263, Note_on_c, 0, 47, 65
1, 62275, Control_c, 0, 64, 92
1, 62287, Note_on_c, 0, 83, 71
1, 62290, Control_c, 0, 64, 93
1, 62296, Note_off_c, 0, 79, 66
1, 62301, Note_off_c, 0, 91, 61
1, 62304, Note_off_c, 0, 47, 59
1, 62305, Control_c, 0, 64, 94
1, 62311, Note_off_c, 0, 88, 62
1, 62320, Control_c, 0, 64, 95
1, 62335, Control_c, 0, 64, 97
1, 62350, Control_c, 0, 64, 99
1, 62359, Note_on_c, 0, 91, 88
1, 62361, Note_on_c, 0, 55, 72
1, 62362, Note_on_c, 0, 79, 91
1, 62365, Control_c, 0, 64, 101
1, 62372, Note_on_c, 0, 88, 58
1, 62380, Control_c, 0, 64, 104
1, 62380, Note_off_c, 0, 83, 65
1, 62391, Note_off_c, 0, 55, 68
1, 62394, Control_c, 0, 64, 105
1, 62400, Note_off_c, 0, 79, 67
1, 62400, Note_off_c, 0, 91, 64
1, 62401, Note_off_c, 0, 88, 67
1, 62409, Control_c, 0, 64, 106
1, 62454, Control_c, 0, 64, 105
1, 62468, Control_c, 0, 64, 106
1, 62483, Control_c, 0, 64, 107
1, 62489, Note_on_c, 0, 78, 91
1, 62490, Note_on_c, 0, 90, 88
1, 62497, Note_on_c, 0, 63, 72
1, 62498, Control_c, 0, 64, 109
1, 62503, Note_on_c, 0, 87, 73
1, 62512, Control_c, 0, 64, 115
1, 62527, Control_c, 0, 64, 127
1, 62538, Note_off_c, 0, 78, 64
1, 62538, Note_off_c, 0, 87, 60
1, 62542, Note_on_c, 0, 83, 69
1, 62549, Note_off_c, 0, 90, 64
1, 62562, Note_off_c, 0, 63, 52
1, 62601, Control_c, 0, 64, 111
1, 62616, Control_c, 0, 64, 93
1, 62618, Note_on_c, 0, 90, 93
1, 62621, Note_on_c, 0, 71, 81
1, 62621, Note_on_c, 0, 78, 101
1, 62627, Note_on_c, 0, 87, 90
1, 62631, Control_c, 0, 64, 79
1, 62646, Control_c, 0, 64, 72
1, 62648, Note_off_c, 0, 83, 64
1, 62660, Control_c, 0, 64, 73
1, 62662, Note_off_c, 0, 78, 66
1, 62667, Note_off_c, 0, 71, 57
1, 62675, Control_c, 0, 64, 80
1, 62678, Note_off_c, 0, 90, 65
1, 62681, Note_off_c, 0, 87, 64
1, 62690, Control_c, 0, 64, 89
1, 62705, Control_c, 0, 64, 98
1, 62719, Control_c, 0, 64, 100
1, 62734, Control_c, 0, 64, 99
1, 62736, Note_on_c, 0, 91, 94
1, 62738, Note_on_c, 0, 79, 89
1, 62740, Note_on_c, 0, 88, 81
1, 62749, Control_c, 0, 64, 93
1, 62751, Note_on_c, 0, 67, 55
1, 62772, Control_c, 0, 64, 85
1, 62786, Control_c, 0, 64, 76
1, 62790, Note_off_c, 0, 67, 64
1, 62791, Note_off_c, 0, 79, 65
1, 62801, Control_c, 0, 64, 71
1, 62806, Note_off_c, 0, 91, 63
1, 62812, Note_on_c, 0, 83, 68
1, 62815, Note_off_c, 0, 88, 64
1, 62816, Control_c, 0, 64, 72
1, 62831, Control_c, 0, 64, 76
1, 62846, Control_c, 0, 64, 80
1, 62857, Note_on_c, 0, 59, 39
1, 62861, Control_c, 0, 64, 84
1, 62867, Note_on_c, 0, 91, 89
1, 62868, Note_on_c, 0, 79, 87
1, 62871, Note_on_c, 0, 88, 66
1, 62875, Control_c, 0, 64, 87
1, 62887, Note_off_c, 0, 83, 65
1, 62890, Control_c, 0, 64, 91
1, 62904, Note_off_c, 0, 91, 64
1, 62905, Control_c, 0, 64, 97
1, 62916, Note_off_c, 0, 79, 65
1, 62919, Control_c, 0, 64, 100
1, 62920, Note_off_c, 0, 88, 65
1, 62934, Control_c, 0, 64, 100
1, 62937, Note_on_c, 0, 60, 48
1, 62947, Note_off_c, 0, 59, 34
1, 62949, Control_c, 0, 64, 98
1, 62965, Control_c, 0, 64, 97
1, 62992, Note_on_c, 0, 88, 77
1, 62997, Note_on_c, 0, 76, 68
1, 63003, Note_on_c, 0, 83, 72
1, 63009, Note_on_c, 0, 86, 69
1, 63010, Control_c, 0, 64, 98
1, 63029, Note_on_c, 0, 64, 69
1, 63034, Note_off_c, 0, 86, 51
1, 63039, Control_c, 0, 64, 98
1, 63054, Control_c, 0, 64, 98
1, 63056, Note_off_c, 0, 76, 59
1, 63062, Note_off_c, 0, 88, 62
1, 63069, Control_c, 0, 64, 94
1, 63084, Note_off_c, 0, 83, 61
1, 63084, Control_c, 0, 64, 76
1, 63098, Control_c, 0, 64, 59
1, 63113, Control_c, 0, 64, 0
1, 63117, Note_on_c, 0, 56, 76
1, 63122, Note_off_c, 0, 60, 64
1, 63128, Note_on_c, 0, 68, 75
1, 63128, Control_c, 0, 64, 26
1, 63133, Note_on_c, 0, 88, 93
1, 63133, Note_off_c, 0, 64, 63
1, 63136, Note_on_c, 0, 83, 80
1, 63138, Note_on_c, 0, 76, 85
1, 63143, Control_c, 0, 64, 54
1, 63150, Note_off_c, 0, 68, 68
1, 63158, Control_c, 0, 64, 62
1, 63173, Control_c, 0, 64, 66
1, 63179, Note_off_c, 0, 56, 64
1, 63184, Note_off_c, 0, 76, 63
1, 63187, Control_c, 0, 64, 74
1, 63202, Control_c, 0, 64, 86
1, 63203, Note_off_c, 0, 88, 65
1, 63204, Note_off_c, 0, 83, 61
1, 63217, Control_c, 0, 64, 110
1, 63232, Control_c, 0, 64, 127
1, 63262, Note_on_c, 0, 53, 60
1, 63262, Note_on_c, 0, 89, 94
1, 63264, Note_on_c, 0, 84, 87
1, 63265, Note_on_c, 0, 77, 86
1, 63272, Note_on_c, 0, 55, 63
1, 63277, Control_c, 0, 64, 118
1, 63291, Control_c, 0, 64, 116
1, 63306, Control_c, 0, 64, 113
1, 63307, Note_on_c, 0, 56, 77
1, 63307, Note_off_c, 0, 89, 66
1, 63311, Note_off_c, 0, 77, 61
1, 63319, Note_off_c, 0, 84, 63
1, 63320, Note_off_c, 0, 55, 51
1, 63321, Control_c, 0, 64, 94
1, 63332, Note_off_c, 0, 53, 54
1, 63335, Control_c, 0, 64, 76
1, 63350, Control_c, 0, 64, 66
1, 63371, Note_on_c, 0, 89, 99
1, 63375, Note_on_c, 0, 48, 53
1, 63377, Note_on_c, 0, 77, 88
1, 63380, Control_c, 0, 64, 72
1, 63390, Note_on_c, 0, 84, 66
1, 63390, Note_off_c, 0, 56, 61
1, 63392, Note_on_c, 0, 60, 71
1, 63395, Control_c, 0, 64, 86
1, 63401, Note_off_c, 0, 48, 57
1, 63409, Control_c, 0, 64, 127
1, 63411, Note_on_c, 0, 83, 39
1, 63414, Note_off_c, 0, 84, 64
1, 63417, Note_off_c, 0, 77, 64
1, 63420, Note_off_c, 0, 89, 66
1, 63425, Note_off_c, 0, 60, 64
1, 63439, Note_off_c, 0, 83, 56
1, 63486, Note_on_c, 0, 56, 80
1, 63497, Note_on_c, 0, 90, 96
1, 63498, Note_on_c, 0, 78, 98
1, 63500, Note_on_c, 0, 85, 86
1, 63535, Note_on_c, 0, 89, 50
1, 63535, Control_c, 0, 64, 101
1, 63550, Control_c, 0, 64, 75
1, 63560, Note_off_c, 0, 78, 62
1, 63560, Note_off_c, 0, 89, 56
1, 63565, Note_on_c, 0, 60, 76
1, 63565, Control_c, 0, 64, 61
1, 63572, Note_off_c, 0, 90, 63
1, 63580, Control_c, 0, 64, 56
1, 63584, Note_off_c, 0, 85, 66
1, 63595, Control_c, 0, 64, 63
1, 63609, Control_c, 0, 64, 70
1, 63611, Note_off_c, 0, 56, 63
1, 63620, Note_on_c, 0, 52, 79
1, 63623, Note_on_c, 0, 90, 89
1, 63624, Control_c, 0, 64, 82
1, 63627, Note_on_c, 0, 64, 68
1, 63627, Note_on_c, 0, 78, 100
1, 63628, Note_on_c, 0, 86, 93
1, 63636, Note_off_c, 0, 60, 63
1, 63639, Control_c, 0, 64, 127
1, 63655, Note_off_c, 0, 64, 68
1, 63660, Note_off_c, 0, 52, 62
1, 63677, Note_off_c, 0, 78, 64
1, 63682, Note_off_c, 0, 86, 65
1, 63687, Note_off_c, 0, 90, 64
1, 63747, Note_on_c, 0, 48, 79
1, 63747, Note_on_c, 0, 91, 98
1, 63751, Note_on_c, 0, 79, 94
1, 63751, Note_on_c, 0, 87, 99
1, 63805, Note_off_c, 0, 79, 62
1, 63818, Note_off_c, 0, 91, 63
1, 63825, Note_on_c, 0, 52, 77
1, 63828, Note_off_c, 0, 87, 62
1, 63833, Control_c, 0, 64, 71
1, 63839, Note_off_c, 0, 48, 59
1, 63847, Control_c, 0, 64, 43
1, 63861, Note_on_c, 0, 43, 67
1, 63862, Control_c, 0, 64, 0
1, 63873, Note_on_c, 0, 88, 94
1, 63873, Note_on_c, 0, 91, 97
1, 63875, Note_on_c, 0, 79, 93
1, 63877, Control_c, 0, 64, 33
1, 63882, Note_on_c, 0, 55, 78
1, 63885, Note_off_c, 0, 52, 62
1, 63892, Control_c, 0, 64, 57
1, 63893, Note_off_c, 0, 43, 64
1, 63898, Note_on_c, 0, 89, 39
1, 63899, Note_off_c, 0, 89, 127
1, 63906, Control_c, 0, 64, 64
1, 63921, Control_c, 0, 64, 73
1, 63927, Note_off_c, 0, 79, 67
1, 63930, Note_off_c, 0, 55, 62
1, 63936, Control_c, 0, 64, 94
1, 63942, Note_off_c, 0, 91, 64
1, 63951, Control_c, 0, 64, 127
1, 63957, Note_off_c, 0, 88, 64
1, 63981, Note_on_c, 0, 52, 77
1, 63997, Poly_aftertouch_c, 0, 88, 0
1, 64000, Note_on_c, 0, 80, 96
1, 64000, Note_on_c, 0, 92, 101
1, 64002, Note_on_c, 0, 88, 75
1, 64061, Note_on_c, 0, 56, 87
1, 64070, Control_c, 0, 64, 93
1, 64079, Note_off_c, 0, 80, 63
1, 64085, Control_c, 0, 64, 65
1, 64100, Control_c, 0, 64, 23
1, 64103, Note_off_c, 0, 92, 64
1, 64106, Note_off_c, 0, 88, 64
1, 64109, Note_off_c, 0, 52, 63
1, 64114, Control_c, 0, 64, 29
1, 64129, Control_c, 0, 64, 57
1, 64137, Note_on_c, 0, 60, 82
1, 64139, Note_on_c, 0, 48, 73
1, 64144, Control_c, 0, 64, 66
1, 64144, Note_on_c, 0, 88, 85
1, 64145, Note_on_c, 0, 92, 106
1, 64149, Note_on_c, 0, 80, 98
1, 64152, Note_off_c, 0, 56, 65
1, 64158, Control_c, 0, 64, 74
1, 64165, Note_off_c, 0, 60, 64
1, 64173, Control_c, 0, 64, 96
1, 64186, Note_off_c, 0, 48, 63
1, 64188, Control_c, 0, 64, 127
1, 64214, Note_off_c, 0, 80, 62
1, 64219, Note_off_c, 0, 88, 63
1, 64231, Note_off_c, 0, 92, 63
1, 64280, Note_on_c, 0, 44, 86
1, 64280, Note_on_c, 0, 88, 87
1, 64282, Note_on_c, 0, 93, 99
1, 64282, Note_on_c, 0, 81, 91
1, 64284, Note_on_c, 0, 92, 83
1, 64347, Note_on_c, 0, 48, 81
1, 64352, Note_off_c, 0, 81, 63
1, 64352, Note_off_c, 0, 93, 65
1, 64358, Control_c, 0, 64, 101
1, 64373, Control_c, 0, 64, 65
1, 64380, Note_off_c, 0, 44, 63
1, 64383, Note_off_c, 0, 92, 66
1, 64388, Control_c, 0, 64, 0
1, 64407, Note_off_c, 0, 88, 0
1, 64408, Note_on_c, 0, 40, 80
1, 64413, Note_on_c, 0, 52, 77
1, 64418, Control_c, 0, 64, 58
1, 64419, Note_off_c, 0, 48, 65
1, 64424, Note_on_c, 0, 82, 96
1, 64425, Note_on_c, 0, 92, 91
1, 64425, Note_on_c, 0, 94, 108
1, 64432, Control_c, 0, 64, 73
1, 64437, Note_off_c, 0, 52, 69
1, 64439, Note_off_c, 0, 40, 68
1, 64444, Poly_aftertouch_c, 0, 88, 127
1, 64447, Control_c, 0, 64, 127
1, 64466, Note_off_c, 0, 82, 64
1, 64492, Note_off_c, 0, 94, 64
1, 64510, Note_off_c, 0, 92, 61
1, 64517, Poly_aftertouch_c, 0, 88, 0
1, 64521, Control_c, 0, 64, 99
1, 64536, Control_c, 0, 64, 62
1, 64551, Control_c, 0, 64, 0
1, 64570, Note_on_c, 0, 44, 101
1, 64570, Note_on_c, 0, 95, 102
1, 64574, Note_on_c, 0, 92, 85
1, 64575, Note_on_c, 0, 32, 86
1, 64576, Note_on_c, 0, 83, 89
1, 64591, Note_off_c, 0, 44, 69
1, 64594, Note_on_c, 0, 93, 53
1, 64600, Note_off_c, 0, 32, 65
1, 64612, Note_on_c, 0, 34, 25
1, 64613, Note_off_c, 0, 34, 127
1, 64624, Note_off_c, 0, 93, 51
1, 64629, Note_off_c, 0, 83, 59
1, 64633, Note_off_c, 0, 95, 58
1, 64654, Note_on_c, 0, 87, 90
1, 64669, Note_off_c, 0, 92, 63
1, 64726, Note_off_c, 0, 87, 65
1, 64749, Note_on_c, 0, 95, 105
1, 64755, Note_on_c, 0, 92, 96
1, 64756, Note_on_c, 0, 44, 96
1, 64756, Note_on_c, 0, 83, 91
1, 64757, Note_on_c, 0, 32, 80
1, 64759, Control_c, 0, 64, 66
1, 64767, Note_on_c, 0, 39, 64
1, 64774, Control_c, 0, 64, 127
1, 64778, Note_off_c, 0, 44, 69
1, 64780, Note_off_c, 0, 32, 66
1, 64788, Note_on_c, 0, 93, 56
1, 64792, Note_on_c, 0, 84, 44
1, 64793, Note_off_c, 0, 84, 127
1, 64794, Note_off_c, 0, 39, 62
1, 64811, Note_off_c, 0, 93, 60
1, 64821, Note_off_c, 0, 83, 59
1, 64821, Note_off_c, 0, 95, 63
1, 64830, Note_on_c, 0, 87, 81
1, 64840, Note_off_c, 0, 92, 64
1, 64878, Note_off_c, 0, 87, 62
1, 64893, Control_c, 0, 64, 85
1, 64907, Note_on_c, 0, 95, 84
1, 64907, Control_c, 0, 64, 37
1, 64909, Note_on_c, 0, 92, 83
1, 64913, Note_on_c, 0, 51, 72
1, 64916, Note_on_c, 0, 93, 73
1, 64920, Note_on_c, 0, 56, 58
1, 64921, Note_off_c, 0, 56, 127
1, 64922, Control_c, 0, 64, 0
1, 64922, Note_on_c, 0, 83, 64
1, 64924, Note_on_c, 0, 57, 46
1, 64930, Note_on_c, 0, 59, 43
1, 64931, Note_off_c, 0, 59, 127
1, 64934, Note_off_c, 0, 51, 39
1, 64936, Note_on_c, 0, 81, 55
1, 64950, Note_off_c, 0, 57, 57
1, 64955, Note_off_c, 0, 81, 63
1, 64963, Note_off_c, 0, 93, 55
1, 64965, Note_off_c, 0, 83, 61
1, 64967, Note_off_c, 0, 95, 60
1, 64971, Note_on_c, 0, 87, 87
1, 64986, Note_off_c, 0, 92, 65
1, 65039, Note_off_c, 0, 87, 62
1, 65062, Control_c, 0, 64, 17
1, 65064, Note_on_c, 0, 95, 90
1, 65065, Note_on_c, 0, 83, 88
1, 65066, Note_on_c, 0, 44, 90
1, 65067, Note_on_c, 0, 34, 82
1, 65067, Note_on_c, 0, 92, 85
1, 65074, Note_on_c, 0, 93, 79
1, 65077, Control_c, 0, 64, 127
1, 65078, Note_on_c, 0, 32, 44
1, 65079, Note_off_c, 0, 32, 127
1, 65089, Note_off_c, 0, 34, 66
1, 65096, Note_off_c, 0, 44, 67
1, 65104, Note_off_c, 0, 93, 58
1, 65110, Note_off_c, 0, 95, 64
1, 65113, Poly_aftertouch_c, 0, 32, 0
1, 65120, Note_off_c, 0, 83, 60
1, 65142, Note_on_c, 0, 87, 65
1, 65143, Note_off_c, 0, 92, 65
1, 65162, Note_off_c, 0, 87, 62
1, 65167, Control_c, 0, 64, 98
1, 65182, Control_c, 0, 64, 55
1, 65196, Control_c, 0, 64, 0
1, 65203, Note_on_c, 0, 92, 85
1, 65204, Note_on_c, 0, 59, 69
1, 65207, Note_on_c, 0, 96, 86
1, 65213, Note_on_c, 0, 84, 85
1, 65230, Note_off_c, 0, 59, 68
1, 65238, Note_on_c, 0, 95, 45
1, 65239, Note_off_c, 0, 95, 127
1, 65256, Note_off_c, 0, 96, 64
1, 65268, Note_off_c, 0, 84, 62
1, 65272, Note_on_c, 0, 88, 66
1, 65282, Note_off_c, 0, 92, 64
1, 65329, Note_on_c, 0, 51, 97
1, 65329, Control_c, 0, 64, 127
1, 65338, Note_on_c, 0, 39, 84
1, 65342, Note_on_c, 0, 92, 74
1, 65343, Note_on_c, 0, 96, 95
1, 65348, Note_off_c, 0, 51, 73
1, 65350, Note_on_c, 0, 84, 87
1, 65363, Note_off_c, 0, 88, 62
1, 65366, Note_off_c, 0, 39, 63
1, 65394, Note_off_c, 0, 96, 61
1, 65408, Note_on_c, 0, 88, 49
1, 65411, Note_off_c, 0, 84, 64
1, 65441, Note_off_c, 0, 92, 64
1, 65449, Control_c, 0, 64, 75
1, 65464, Note_on_c, 0, 61, 85
1, 65464, Control_c, 0, 64, 0
1, 65485, Note_off_c, 0, 61, 70
1, 65491, Note_on_c, 0, 95, 80
1, 65492, Note_on_c, 0, 83, 87
1, 65497, Note_on_c, 0, 92, 72
1, 65498, Note_on_c, 0, 96, 81
1, 65498, Note_off_c, 0, 88, 63
1, 65522, Note_off_c, 0, 96, 67
1, 65535, Note_off_c, 0, 95, 65
1, 65539, Note_off_c, 0, 83, 64
1, 65563, Note_off_c, 0, 92, 65
1, 65597, Control_c, 0, 64, 62
1, 65599, Note_on_c, 0, 83, 89
1, 65601, Note_on_c, 0, 58, 94
1, 65605, Note_on_c, 0, 92, 70
1, 65605, Note_on_c, 0, 46, 68
1, 65609, Note_on_c, 0, 95, 93
1, 65611, Control_c, 0, 64, 127
1, 65633, Note_off_c, 0, 58, 64
1, 65637, Note_off_c, 0, 46, 67
1, 65659, Note_on_c, 0, 88, 83
1, 65673, Note_off_c, 0, 83, 63
1, 65675, Note_off_c, 0, 95, 63
1, 65692, Note_off_c, 0, 92, 66
1, 65714, Note_off_c, 0, 88, 65
1, 65724, Note_on_c, 0, 62, 68
1, 65730, Note_on_c, 0, 56, 53
1, 65745, Control_c, 0, 64, 73
1, 65746, Note_on_c, 0, 82, 91
1, 65749, Note_off_c, 0, 62, 64
1, 65762, Note_off_c, 0, 56, 60
1, 65763, Note_on_c, 0, 94, 90
1, 65767, Control_c, 0, 64, 0
1, 65769, Poly_aftertouch_c, 0, 58, 0
1, 65781, Note_on_c, 0, 58, 3
1, 65807, Note_off_c, 0, 82, 66
1, 65820, Note_off_c, 0, 58, 35
1, 65832, Note_off_c, 0, 94, 63
1, 65861, Poly_aftertouch_c, 0, 91, 0
1, 65870, Poly_aftertouch_c, 0, 94, 0
1, 65873, Poly_aftertouch_c, 0, 90, 0
1, 65876, Note_on_c, 0, 85, 77
1, 65876, Note_on_c, 0, 94, 82
1, 65877, Note_on_c, 0, 82, 83
1, 65878, Note_on_c, 0, 91, 15
1, 65883, Note_on_c, 0, 34, 81
1, 65892, Note_on_c, 0, 46, 78
1, 65900, Control_c, 0, 64, 87
1, 65911, Note_off_c, 0, 34, 64
1, 65912, Note_off_c, 0, 46, 65
1, 65915, Control_c, 0, 64, 127
1, 65918, Note_on_c, 0, 37, 42
1, 65921, Note_off_c, 0, 82, 0
1, 65954, Note_off_c, 0, 37, 51
1, 65958, Poly_aftertouch_c, 0, 82, 127
1, 65977, Note_off_c, 0, 91, 48
1, 65979, Note_off_c, 0, 94, 65
1, 65988, Poly_aftertouch_c, 0, 82, 0
1, 66001, Note_off_c, 0, 85, 53
1, 66025, Note_on_c, 0, 59, 81
1, 66031, Note_on_c, 0, 51, 73
1, 66037, Note_on_c, 0, 81, 87
1, 66046, Note_on_c, 0, 95, 89
1, 66047, Note_on_c, 0, 93, 82
1, 66049, Note_off_c, 0, 59, 68
1, 66054, Note_off_c, 0, 51, 63
1, 66085, Note_off_c, 0, 95, 63
1, 66086, Note_off_c, 0, 81, 66
1, 66093, Control_c, 0, 64, 91
1, 66108, Control_c, 0, 64, 54
1, 66115, Note_off_c, 0, 93, 66
1, 66123, Control_c, 0, 64, 0
1, 66125, Note_on_c, 0, 87, 81
1, 66153, Note_on_c, 0, 39, 78
1, 66159, Note_on_c, 0, 81, 85
1, 66165, Note_on_c, 0, 93, 76
1, 66167, Note_on_c, 0, 95, 79
1, 66168, Control_c, 0, 64, 62
1, 66177, Note_on_c, 0, 90, 62
1, 66183, Control_c, 0, 64, 83
1, 66185, Note_off_c, 0, 39, 68
1, 66192, Note_off_c, 0, 95, 68
1, 66198, Control_c, 0, 64, 127
1, 66198, Note_off_c, 0, 87, 65
1, 66208, Note_off_c, 0, 90, 66
1, 66208, Note_off_c, 0, 93, 65
1, 66209, Note_off_c, 0, 81, 67
1, 66288, Note_on_c, 0, 60, 74
1, 66290, Note_on_c, 0, 52, 65
1, 66290, Note_on_c, 0, 56, 63
1, 66291, Note_on_c, 0, 80, 90
1, 66292, Note_on_c, 0, 92, 87
1, 66300, Note_on_c, 0, 88, 71
1, 66301, Control_c, 0, 64, 94
1, 66310, Note_off_c, 0, 56, 61
1, 66311, Note_off_c, 0, 60, 68
1, 66316, Control_c, 0, 64, 60
1, 66320, Note_off_c, 0, 52, 65
1, 66331, Control_c, 0, 64, 0
1, 66333, Note_on_c, 0, 84, 83
1, 66335, Note_off_c, 0, 80, 63
1, 66350, Note_off_c, 0, 92, 64
1, 66366, Note_off_c, 0, 88, 64
1, 66407, Note_on_c, 0, 92, 94
1, 66410, Note_on_c, 0, 58, 93
1, 66410, Note_on_c, 0, 80, 98
1, 66413, Note_on_c, 0, 46, 73
1, 66417, Note_on_c, 0, 88, 53
1, 66420, Control_c, 0, 64, 74
1, 66428, Note_off_c, 0, 84, 60
1, 66434, Control_c, 0, 64, 127
1, 66436, Note_off_c, 0, 58, 66
1, 66444, Note_off_c, 0, 46, 66
1, 66452, Note_off_c, 0, 88, 65
1, 66461, Note_off_c, 0, 80, 64
1, 66469, Note_off_c, 0, 92, 65
1, 66529, Note_on_c, 0, 56, 76
1, 66534, Note_on_c, 0, 62, 83
1, 66535, Note_on_c, 0, 79, 84
1, 66538, Note_on_c, 0, 58, 69
1, 66538, Note_on_c, 0, 91, 88
1, 66544, Note_on_c, 0, 86, 73
1, 66555, Note_on_c, 0, 88, 61
1, 66555, Note_off_c, 0, 62, 71
1, 66557, Note_off_c, 0, 56, 68
1, 66560, Control_c, 0, 64, 75
1, 66565, Note_off_c, 0, 58, 65
1, 66575, Control_c, 0, 64, 0
1, 66579, Note_off_c, 0, 88, 61
1, 66580, Note_on_c, 0, 82, 81
1, 66588, Note_off_c, 0, 79, 65
1, 66589, Note_off_c, 0, 86, 60
1, 66589, Note_off_c, 0, 91, 63
1, 66627, Note_off_c, 0, 82, 66
1, 66663, Note_on_c, 0, 90, 97
1, 66664, Control_c, 0, 64, 71
1, 66666, Note_on_c, 0, 32, 76
1, 66666, Note_on_c, 0, 78, 92
1, 66672, Note_on_c, 0, 44, 77
1, 66679, Note_on_c, 0, 87, 67
1, 66679, Control_c, 0, 64, 127
1, 66692, Note_off_c, 0, 44, 64
1, 66699, Note_off_c, 0, 32, 61
1, 66712, Note_off_c, 0, 87, 63
1, 66715, Note_off_c, 0, 78, 61
1, 66729, Note_off_c, 0, 90, 64
1, 66789, Note_on_c, 0, 59, 94
1, 66791, Note_on_c, 0, 89, 100
1, 66793, Note_on_c, 0, 85, 90
1, 66801, Note_on_c, 0, 51, 72
1, 66801, Note_on_c, 0, 77, 80
1, 66803, Note_on_c, 0, 79, 76
1, 66805, Note_on_c, 0, 56, 66
1, 66821, Note_off_c, 0, 59, 60
1, 66822, Note_off_c, 0, 51, 64
1, 66828, Note_off_c, 0, 56, 59
1, 66832, Note_off_c, 0, 79, 62
1, 66842, Note_off_c, 0, 77, 53
1, 66848, Note_off_c, 0, 89, 62
1, 66869, Note_off_c, 0, 85, 64
1, 66872, Control_c, 0, 64, 73
1, 66886, Control_c, 0, 64, 16
1, 66901, Control_c, 0, 64, 0
1, 66916, Control_c, 0, 64, 37
1, 66925, Note_on_c, 0, 76, 91
1, 66925, Note_on_c, 0, 88, 93
1, 66926, Note_on_c, 0, 84, 92
1, 66931, Control_c, 0, 64, 62
1, 66946, Control_c, 0, 64, 71
1, 66947, Note_on_c, 0, 42, 43
1, 66953, Note_on_c, 0, 40, 29
1, 66961, Control_c, 0, 64, 107
1, 66973, Note_off_c, 0, 76, 66
1, 66976, Control_c, 0, 64, 127
1, 66979, Note_off_c, 0, 88, 65
1, 66981, Note_off_c, 0, 42, 55
1, 66995, Note_off_c, 0, 84, 63
1, 66997, Note_off_c, 0, 40, 50
1, 67043, Note_on_c, 0, 61, 92
1, 67052, Note_on_c, 0, 87, 104
1, 67058, Note_on_c, 0, 75, 86
1, 67061, Note_on_c, 0, 83, 79
1, 67081, Note_off_c, 0, 61, 60
1, 67086, Note_on_c, 0, 51, 30
1, 67090, Note_off_c, 0, 75, 57
1, 67124, Control_c, 0, 64, 84
1, 67127, Note_off_c, 0, 83, 62
1, 67128, Note_off_c, 0, 51, 43
1, 67137, Note_off_c, 0, 87, 61
1, 67139, Control_c, 0, 64, 52
1, 67154, Control_c, 0, 64, 0
1, 67169, Control_c, 0, 64, 38
1, 67179, Note_on_c, 0, 92, 101
1, 67180, Note_on_c, 0, 80, 102
1, 67183, Control_c, 0, 64, 64
1, 67185, Note_on_c, 0, 46, 78
1, 67188, Note_on_c, 0, 58, 88
1, 67198, Control_c, 0, 64, 77
1, 67210, Note_off_c, 0, 58, 70
1, 67213, Control_c, 0, 64, 127
1, 67216, Note_off_c, 0, 46, 66
1, 67218, Note_off_c, 0, 92, 66
1, 67221, Note_off_c, 0, 80, 66
1, 67317, Note_on_c, 0, 62, 83
1, 67317, Note_on_c, 0, 74, 90
1, 67319, Note_on_c, 0, 56, 74
1, 67321, Note_on_c, 0, 58, 72
1, 67325, Note_on_c, 0, 86, 84
1, 67339, Note_off_c, 0, 62, 70
1, 67341, Note_off_c, 0, 58, 71
1, 67348, Note_off_c, 0, 56, 66
1, 67356, Note_on_c, 0, 77, 62
1, 67364, Note_on_c, 0, 76, 66
1, 67371, Note_off_c, 0, 74, 62
1, 67377, Note_off_c, 0, 86, 55
1, 67383, Control_c, 0, 64, 100
1, 67398, Control_c, 0, 64, 60
1, 67401, Note_off_c, 0, 76, 62
1, 67413, Control_c, 0, 64, 0
1, 67423, Note_off_c, 0, 77, 63
1, 67435, Note_on_c, 0, 81, 56
1, 67443, Control_c, 0, 64, 40
1, 67447, Note_on_c, 0, 73, 100
1, 67448, Note_on_c, 0, 44, 93
1, 67450, Note_on_c, 0, 85, 95
1, 67451, Note_on_c, 0, 32, 74
1, 67457, Control_c, 0, 64, 64
1, 67468, Note_off_c, 0, 44, 68
1, 67472, Control_c, 0, 64, 77
1, 67479, Note_on_c, 0, 77, 24
1, 67483, Note_on_c, 0, 34, 34
1, 67483, Note_off_c, 0, 32, 61
1, 67487, Control_c, 0, 64, 127
1, 67504, Note_off_c, 0, 77, 0
1, 67518, Note_off_c, 0, 81, 65
1, 67519, Note_off_c, 0, 73, 61
1, 67521, Poly_aftertouch_c, 0, 77, 0
1, 67525, Note_off_c, 0, 34, 51
1, 67526, Note_off_c, 0, 85, 66
1, 67581, Note_on_c, 0, 60, 92
1, 67587, Note_on_c, 0, 80, 91
1, 67588, Note_on_c, 0, 72, 95
1, 67589, Note_on_c, 0, 84, 103
1, 67591, Note_on_c, 0, 51, 74
1, 67593, Note_on_c, 0, 56, 69
1, 67605, Note_off_c, 0, 60, 68
1, 67620, Note_off_c, 0, 51, 66
1, 67623, Note_off_c, 0, 56, 66
1, 67651, Note_off_c, 0, 84, 62
1, 67656, Note_off_c, 0, 72, 57
1, 67665, Control_c, 0, 64, 99
1, 67674, Note_off_c, 0, 80, 62
1, 67680, Control_c, 0, 64, 64
1, 67695, Control_c, 0, 64, 44
1, 67709, Control_c, 0, 64, 62
1, 67718, Note_on_c, 0, 39, 86
1, 67724, Control_c, 0, 64, 73
1, 67724, Note_on_c, 0, 83, 101
1, 67725, Note_on_c, 0, 79, 90
1, 67726, Note_on_c, 0, 71, 97
1, 67731, Note_on_c, 0, 51, 62
1, 67739, Control_c, 0, 64, 127
1, 67743, Note_off_c, 0, 39, 67
1, 67754, Note_off_c, 0, 51, 63
1, 67770, Note_off_c, 0, 71, 66
1, 67773, Note_off_c, 0, 83, 64
1, 67790, Note_off_c, 0, 79, 64
1, 67847, Note_on_c, 0, 61, 101
1, 67849, Note_on_c, 0, 82, 106
1, 67853, Note_on_c, 0, 70, 96
1, 67862, Note_on_c, 0, 78, 83
1, 67881, Note_off_c, 0, 61, 63
1, 67890, Note_off_c, 0, 70, 65
1, 67904, Note_off_c, 0, 78, 50
1, 67918, Note_off_c, 0, 82, 61
1, 67933, Control_c, 0, 64, 80
1, 67946, Poly_aftertouch_c, 0, 51, 0
1, 67947, Control_c, 0, 64, 44
1, 67962, Control_c, 0, 64, 0
1, 67992, Control_c, 0, 64, 53
1, 67993, Note_on_c, 0, 77, 96
1, 67993, Note_on_c, 0, 44, 66
1, 67994, Note_on_c, 0, 88, 82
1, 67995, Note_on_c, 0, 89, 91
1, 68004, Note_on_c, 0, 56, 75
1, 68005, Note_on_c, 0, 58, 83
1, 68014, Note_on_c, 0, 46, 66
1, 68014, Control_c, 0, 64, 68
1, 68019, Note_on_c, 0, 80, 61
1, 68019, Note_off_c, 0, 89, 73
1, 68023, Note_off_c, 0, 44, 59
1, 68025, Note_off_c, 0, 88, 70
1, 68028, Note_off_c, 0, 58, 69
1, 68028, Control_c, 0, 64, 127
1, 68031, Note_off_c, 0, 77, 63
1, 68032, Note_off_c, 0, 56, 65
1, 68035, Note_off_c, 0, 46, 61
1, 68037, Note_off_c, 0, 80, 64
1, 68124, Note_on_c, 0, 56, 63
1, 68130, Note_on_c, 0, 58, 64
1, 68130, Note_on_c, 0, 62, 78
1, 68135, Note_on_c, 0, 80, 77
1, 68136, Note_on_c, 0, 68, 87
1, 68140, Note_on_c, 0, 60, 66
1, 68143, Note_on_c, 0, 77, 77
1, 68153, Note_off_c, 0, 62, 72
1, 68154, Note_off_c, 0, 56, 67
1, 68156, Note_off_c, 0, 58, 65
1, 68159, Note_off_c, 0, 60, 63
1, 68188, Note_off_c, 0, 68, 61
1, 68191, Note_off_c, 0, 80, 64
1, 68192, Note_on_c, 0, 74, 77
1, 68192, Note_off_c, 0, 77, 54
1, 68257, Note_on_c, 0, 34, 90
1, 68259, Note_on_c, 0, 46, 90
1, 68259, Note_on_c, 0, 67, 89
1, 68265, Note_on_c, 0, 79, 85
1, 68266, Control_c, 0, 64, 73
1, 68268, Note_on_c, 0, 75, 90
1, 68274, Note_on_c, 0, 44, 64
1, 68275, Note_off_c, 0, 44, 127
1, 68279, Note_off_c, 0, 46, 72
1, 68280, Control_c, 0, 64, 0
1, 68284, Note_off_c, 0, 34, 68
1, 68292, Note_off_c, 0, 74, 66
1, 68305, Note_off_c, 0, 79, 65
1, 68307, Note_off_c, 0, 67, 64
1, 68347, Note_off_c, 0, 75, 61
1, 68387, Note_on_c, 0, 75, 77
1, 68401, Note_on_c, 0, 59, 92
1, 68404, Note_on_c, 0, 68, 85
1, 68404, Note_on_c, 0, 80, 80
1, 68408, Note_on_c, 0, 51, 79
1, 68419, Note_on_c, 0, 56, 59
1, 68422, Note_off_c, 0, 59, 68
1, 68423, Note_on_c, 0, 78, 48
1, 68425, Note_off_c, 0, 51, 67
1, 68443, Note_off_c, 0, 56, 60
1, 68443, Note_off_c, 0, 80, 64
1, 68454, Note_off_c, 0, 78, 53
1, 68455, Note_off_c, 0, 68, 59
1, 68482, Note_off_c, 0, 75, 61
1, 68532, Control_c, 0, 64, 27
1, 68535, Note_on_c, 0, 51, 92
1, 68538, Note_on_c, 0, 78, 96
1, 68541, Note_on_c, 0, 66, 87
1, 68542, Note_on_c, 0, 74, 84
1, 68544, Note_on_c, 0, 39, 83
1, 68547, Control_c, 0, 64, 127
1, 68569, Note_off_c, 0, 51, 68
1, 68575, Note_off_c, 0, 39, 65
1, 68588, Note_off_c, 0, 66, 61
1, 68605, Note_off_c, 0, 78, 63
1, 68622, Note_off_c, 0, 74, 61
1, 68666, Control_c, 0, 64, 74
1, 68672, Note_on_c, 0, 52, 88
1, 68676, Note_on_c, 0, 60, 86
1, 68676, Note_on_c, 0, 80, 95
1, 68678, Note_on_c, 0, 76, 87
1, 68678, Note_on_c, 0, 56, 77
1, 68678, Note_on_c, 0, 68, 89
1, 68681, Control_c, 0, 64, 0
1, 68697, Note_off_c, 0, 60, 71
1, 68705, Note_off_c, 0, 56, 67
1, 68714, Note_off_c, 0, 68, 62
1, 68715, Note_off_c, 0, 52, 65
1, 68718, Note_off_c, 0, 76, 64
1, 68728, Note_off_c, 0, 80, 63
1, 68821, Note_on_c, 0, 77, 92
1, 68822, Note_on_c, 0, 65, 86
1, 68824, Note_on_c, 0, 58, 94
1, 68827, Note_on_c, 0, 46, 82
1, 68833, Note_on_c, 0, 73, 69
1, 68842, Note_off_c, 0, 77, 67
1, 68844, Note_off_c, 0, 65, 69
1, 68849, Note_off_c, 0, 73, 67
1, 68851, Control_c, 0, 64, 82
1, 68853, Note_off_c, 0, 46, 69
1, 68857, Note_off_c, 0, 58, 65
1, 68866, Control_c, 0, 64, 127
1, 68893, Note_on_c, 0, 65, 87
1, 68896, Note_on_c, 0, 73, 101
1, 68909, Note_on_c, 0, 77, 69
1, 68923, Note_off_c, 0, 65, 65
1, 68928, Note_off_c, 0, 73, 65
1, 68928, Note_off_c, 0, 77, 64
1, 68959, Note_on_c, 0, 56, 81
1, 68960, Note_on_c, 0, 62, 85
1, 68964, Note_on_c, 0, 58, 75
1, 68978, Note_on_c, 0, 80, 100
1, 68979, Note_on_c, 0, 68, 102
1, 68983, Note_on_c, 0, 74, 83
1, 68983, Note_off_c, 0, 58, 73
1, 68983, Note_off_c, 0, 62, 69
1, 69000, Note_off_c, 0, 56, 61
1, 69024, Note_on_c, 0, 75, 5
1, 69025, Note_off_c, 0, 75, 127
1, 69026, Note_off_c, 0, 68, 62
1, 69028, Note_off_c, 0, 80, 66
1, 69051, Note_off_c, 0, 74, 63
1, 69089, Control_c, 0, 64, 99
1, 69103, Control_c, 0, 64, 0
1, 69111, Note_on_c, 0, 64, 88
1, 69111, Note_on_c, 0, 76, 89
1, 69114, Note_on_c, 0, 72, 89
1, 69116, Note_on_c, 0, 32, 78
1, 69117, Note_on_c, 0, 44, 78
1, 69122, Note_on_c, 0, 46, 77
1, 69136, Note_off_c, 0, 44, 65
1, 69140, Note_off_c, 0, 32, 62
1, 69140, Note_off_c, 0, 46, 63
1, 69143, Note_on_c, 0, 34, 42
1, 69149, Note_off_c, 0, 64, 62
1, 69173, Note_off_c, 0, 76, 62
1, 69182, Note_off_c, 0, 34, 35
1, 69206, Note_off_c, 0, 72, 59
1, 69260, Note_on_c, 0, 59, 96
1, 69265, Note_on_c, 0, 51, 88
1, 69268, Note_on_c, 0, 73, 88
1, 69274, Note_on_c, 0, 68, 88
1, 69277, Note_on_c, 0, 80, 88
1, 69281, Note_off_c, 0, 59, 69
1, 69289, Note_off_c, 0, 51, 71
1, 69301, Note_off_c, 0, 68, 63
1, 69313, Note_off_c, 0, 80, 58
1, 69373, Note_off_c, 0, 73, 61
1, 69414, Note_on_c, 0, 51, 100
1, 69415, Control_c, 0, 64, 18
1, 69421, Note_on_c, 0, 39, 84
1, 69424, Note_on_c, 0, 71, 85
1, 69424, Note_on_c, 0, 75, 90
1, 69429, Note_on_c, 0, 63, 84
1, 69430, Control_c, 0, 64, 75
1, 69435, Note_off_c, 0, 51, 71
1, 69445, Control_c, 0, 64, 68
1, 69448, Note_off_c, 0, 39, 65
1, 69453, Note_off_c, 0, 63, 68
1, 69459, Control_c, 0, 64, 22
1, 69474, Control_c, 0, 64, 0
1, 69510, Note_off_c, 0, 71, 51
1, 69526, Note_off_c, 0, 75, 60
1, 69574, Note_on_c, 0, 52, 87
1, 69576, Note_on_c, 0, 60, 90
1, 69579, Note_on_c, 0, 56, 81
1, 69582, Note_on_c, 0, 80, 90
1, 69584, Note_on_c, 0, 68, 95
1, 69584, Note_on_c, 0, 72, 90
1, 69599, Note_off_c, 0, 60, 68
1, 69605, Note_off_c, 0, 56, 69
1, 69609, Note_off_c, 0, 68, 66
1, 69615, Note_off_c, 0, 52, 66
1, 69621, Note_off_c, 0, 72, 66
1, 69629, Note_off_c, 0, 80, 63
1, 69745, Note_on_c, 0, 74, 88
1, 69747, Note_on_c, 0, 62, 88
1, 69750, Note_on_c, 0, 58, 98
1, 69751, Note_on_c, 0, 70, 75
1, 69759, Note_on_c, 0, 46, 73
1, 69773, Note_off_c, 0, 70, 70
1, 69773, Note_off_c, 0, 62, 66
1, 69776, Note_off_c, 0, 74, 62
1, 69778, Note_off_c, 0, 58, 66
1, 69778, Note_off_c, 0, 46, 64
1, 69826, Note_on_c, 0, 70, 96
1, 69837, Note_on_c, 0, 62, 57
1, 69860, Note_off_c, 0, 62, 59
1, 69866, Note_off_c, 0, 70, 65
1, 69918, Note_on_c, 0, 62, 95
1, 69921, Note_on_c, 0, 56, 81
1, 69922, Note_on_c, 0, 53, 76
1, 69923, Note_on_c, 0, 68, 97
1, 69924, Note_on_c, 0, 71, 93
1, 69924, Note_on_c, 0, 80, 97
1, 69930, Note_on_c, 0, 58, 72
1, 69939, Note_on_c, 0, 55, 64
1, 69944, Note_off_c, 0, 62, 67
1, 69944, Note_off_c, 0, 68, 66
1, 69954, Note_off_c, 0, 71, 68
1, 69955, Note_off_c, 0, 58, 66
1, 69959, Note_on_c, 0, 78, 29
1, 69960, Note_off_c, 0, 78, 127
1, 69961, Note_off_c, 0, 55, 60
1, 69968, Note_off_c, 0, 53, 63
1, 69969, Note_off_c, 0, 56, 62
1, 69969, Note_off_c, 0, 80, 63
1, 70193, Control_c, 0, 64, 52
1, 70194, Note_on_c, 0, 71, 105
1, 70195, Note_on_c, 0, 59, 95
1, 70208, Control_c, 0, 64, 127
1, 70210, Note_off_c, 0, 71, 76
1, 70223, Note_off_c, 0, 59, 70
1, 70646, Control_c, 0, 64, 102
1, 70661, Control_c, 0, 64, 65
1, 70673, Note_on_c, 0, 47, 99
1, 70675, Control_c, 0, 64, 0
1, 70678, Note_on_c, 0, 59, 97
1, 70720, Control_c, 0, 64, 41
1, 70734, Control_c, 0, 64, 57
1, 70749, Control_c, 0, 64, 64
1, 70764, Control_c, 0, 64, 71
1, 70779, Control_c, 0, 64, 79
1, 70794, Control_c, 0, 64, 88
1, 70808, Control_c, 0, 64, 95
1, 70823, Control_c, 0, 64, 99
1, 70882, Control_c, 0, 64, 100
1, 70897, Control_c, 0, 64, 102
1, 70912, Control_c, 0, 64, 102
1, 70926, Control_c, 0, 64, 102
1, 70940, Note_on_c, 0, 39, 58
1, 70943, Control_c, 0, 64, 101
1, 70947, Note_on_c, 0, 51, 70
1, 70958, Control_c, 0, 64, 101
1, 70962, Note_off_c, 0, 59, 56
1, 70971, Note_off_c, 0, 47, 53
1, 70987, Control_c, 0, 64, 93
1, 70988, Note_on_c, 0, 56, 78
1, 71006, Note_off_c, 0, 51, 64
1, 71009, Control_c, 0, 64, 69
1, 71013, Note_on_c, 0, 44, 57
1, 71024, Control_c, 0, 64, 39
1, 71039, Control_c, 0, 64, 0
1, 71040, Note_on_c, 0, 47, 78
1, 71054, Note_off_c, 0, 39, 54
1, 71058, Note_on_c, 0, 59, 86
1, 71066, Note_off_c, 0, 56, 64
1, 71069, Control_c, 0, 64, 45
1, 71069, Note_off_c, 0, 44, 63
1, 71084, Control_c, 0, 64, 58
1, 71097, Note_off_c, 0, 47, 64
1, 71098, Control_c, 0, 64, 65
1, 71113, Control_c, 0, 64, 71
1, 71128, Control_c, 0, 64, 82
1, 71143, Control_c, 0, 64, 95
1, 71158, Control_c, 0, 64, 106
1, 71172, Control_c, 0, 64, 103
1, 71187, Control_c, 0, 64, 97
1, 71202, Control_c, 0, 64, 94
1, 71209, Note_off_c, 0, 59, 0
1, 71217, Control_c, 0, 64, 94
1, 71246, Poly_aftertouch_c, 0, 59, 127
1, 71265, Note_on_c, 0, 40, 54
1, 71276, Control_c, 0, 64, 91
1, 71287, Note_on_c, 0, 52, 71
1, 71291, Control_c, 0, 64, 73
1, 71294, Poly_aftertouch_c, 0, 59, 0
1, 71305, Control_c, 0, 64, 55
1, 71310, Note_on_c, 0, 44, 59
1, 71320, Control_c, 0, 64, 0
1, 71328, Note_on_c, 0, 56, 80
1, 71346, Note_off_c, 0, 40, 63
1, 71349, Control_c, 0, 64, 34
1, 71355, Note_off_c, 0, 52, 65
1, 71358, Note_on_c, 0, 47, 76
1, 71364, Control_c, 0, 64, 60
1, 71374, Note_off_c, 0, 44, 62
1, 71379, Control_c, 0, 64, 70
1, 71382, Note_on_c, 0, 59, 81
1, 71391, Note_off_c, 0, 47, 63
1, 71394, Control_c, 0, 64, 88
1, 71395, Note_off_c, 0, 56, 65
1, 71409, Control_c, 0, 64, 127
1, 71584, Note_on_c, 0, 32, 48
1, 71614, Note_on_c, 0, 35, 76
1, 71615, Note_on_c, 0, 34, 32
1, 71647, Note_off_c, 0, 32, 56
1, 71649, Note_on_c, 0, 39, 87
1, 71658, Note_off_c, 0, 34, 53
1, 71676, Control_c, 0, 64, 99
1, 71677, Note_off_c, 0, 39, 67
1, 71679, Note_off_c, 0, 35, 60
1, 71687, Note_on_c, 0, 47, 89
1, 71690, Control_c, 0, 64, 0
1, 71896, Note_off_c, 0, 47, 60
1, 71901, Note_on_c, 0, 38, 61
1, 71920, Note_on_c, 0, 42, 71
1, 71963, Note_on_c, 0, 43, 49
1, 71976, Note_off_c, 0, 38, 55
1, 71977, Note_on_c, 0, 47, 87
1, 71984, Note_off_c, 0, 42, 65
1, 71999, Note_off_c, 0, 43, 63
1, 72008, Note_off_c, 0, 47, 65
1, 72191, Note_on_c, 0, 39, 48
1, 72229, Note_on_c, 0, 43, 68
1, 72263, Note_off_c, 0, 39, 61
1, 72273, Note_on_c, 0, 47, 69
1, 72289, Note_off_c, 0, 43, 64
1, 72476, Note_on_c, 0, 31, 52
1, 72531, Note_on_c, 0, 35, 54
1, 72559, Note_off_c, 0, 31, 61
1, 72580, Note_on_c, 0, 38, 62
1, 72580, Note_off_c, 0, 35, 62
1, 72613, Note_off_c, 0, 38, 62
1, 72780, Note_on_c, 0, 32, 47
1, 72838, Note_on_c, 0, 35, 50
1, 72869, Note_off_c, 0, 32, 58
1, 72887, Note_on_c, 0, 39, 53
1, 72898, Note_off_c, 0, 35, 61
1, 72953, Note_off_c, 0, 39, 54
1, 73102, Note_on_c, 0, 33, 25
1, 73143, Note_on_c, 0, 37, 34
1, 73143, Control_c, 0, 64, 15
1, 73158, Control_c, 0, 64, 29
1, 73173, Control_c, 0, 64, 40
1, 73176, Note_off_c, 0, 33, 43
1, 73179, Note_on_c, 0, 40, 50
1, 73187, Control_c, 0, 64, 49
1, 73202, Control_c, 0, 64, 56
1, 73217, Control_c, 0, 64, 60
1, 73218, Note_off_c, 0, 40, 62
1, 73232, Control_c, 0, 64, 64
1, 73234, Note_off_c, 0, 37, 39
1, 73254, Control_c, 0, 64, 65
1, 73269, Control_c, 0, 64, 67
1, 73284, Control_c, 0, 64, 68
1, 73299, Control_c, 0, 64, 69
1, 73314, Control_c, 0, 64, 69
1, 73318, Note_off_c, 0, 59, 43
1, 73328, Control_c, 0, 64, 70
1, 73344, Control_c, 0, 64, 70
1, 73418, Control_c, 0, 64, 70
1, 73425, Note_off_c, 0, 47, 33
1, 73431, Note_on_c, 0, 32, 34
1, 73433, Control_c, 0, 64, 69
1, 73448, Control_c, 0, 64, 69
1, 73474, Note_on_c, 0, 36, 36
1, 73492, Control_c, 0, 64, 68
1, 73507, Control_c, 0, 64, 68
1, 73522, Control_c, 0, 64, 67
1, 73537, Control_c, 0, 64, 66
1, 73546, Note_on_c, 0, 39, 41
1, 73552, Control_c, 0, 64, 64
1, 73566, Control_c, 0, 64, 63
1, 73570, Note_on_c, 0, 60, 50
1, 73577, Note_on_c, 0, 48, 49
1, 73581, Control_c, 0, 64, 61
1, 73596, Control_c, 0, 64, 58
1, 73611, Control_c, 0, 64, 56
1, 73625, Control_c, 0, 64, 54
1, 73640, Control_c, 0, 64, 53
1, 73655, Control_c, 0, 64, 52
1, 73664, Note_off_c, 0, 32, 42
1, 73670, Control_c, 0, 64, 51
1, 73682, Note_off_c, 0, 36, 37
1, 73685, Control_c, 0, 64, 50
1, 73695, Note_off_c, 0, 39, 35
1, 73699, Control_c, 0, 64, 49
1, 73744, Control_c, 0, 64, 49
1, 73788, Control_c, 0, 64, 48
1, 73790, Note_on_c, 0, 33, 39
1, 73803, Control_c, 0, 64, 48
1, 73832, Control_c, 0, 64, 47
1, 73845, Note_on_c, 0, 36, 40
1, 73847, Control_c, 0, 64, 46
1, 73862, Control_c, 0, 64, 45
1, 73877, Control_c, 0, 64, 44
1, 73909, Note_off_c, 0, 36, 63
1, 73919, Note_on_c, 0, 40, 50
1, 73951, Note_off_c, 0, 33, 55
1, 73951, Control_c, 0, 64, 43
1, 73957, Note_off_c, 0, 40, 65
1, 74154, Note_on_c, 0, 34, 33
1, 74182, Control_c, 0, 64, 43
1, 74211, Control_c, 0, 64, 42
1, 74217, Note_on_c, 0, 38, 37
1, 74226, Control_c, 0, 64, 40
1, 74241, Control_c, 0, 64, 39
1, 74282, Note_on_c, 0, 44, 50
1, 74285, Control_c, 0, 64, 40
1, 74300, Note_off_c, 0, 38, 52
1, 74300, Control_c, 0, 64, 41
1, 74315, Control_c, 0, 64, 43
1, 74326, Note_off_c, 0, 44, 61
1, 74330, Control_c, 0, 64, 45
1, 74345, Control_c, 0, 64, 46
1, 74352, Note_off_c, 0, 34, 44
1, 74360, Control_c, 0, 64, 48
1, 74370, Note_off_c, 0, 48, 59
1, 74375, Control_c, 0, 64, 50
1, 74381, Note_off_c, 0, 60, 61
1, 74390, Control_c, 0, 64, 51
1, 74434, Control_c, 0, 64, 51
1, 74463, Control_c, 0, 64, 50
1, 74493, Control_c, 0, 64, 50
1, 74507, Note_on_c, 0, 37, 41
1, 74508, Control_c, 0, 64, 49
1, 74522, Control_c, 0, 64, 49
1, 74537, Control_c, 0, 64, 48
1, 74552, Control_c, 0, 64, 48
1, 74566, Control_c, 0, 64, 47
1, 74573, Note_off_c, 0, 37, 57
1, 74574, Note_on_c, 0, 40, 53
1, 74581, Control_c, 0, 64, 47
1, 74596, Control_c, 0, 64, 46
1, 74611, Control_c, 0, 64, 45
1, 74625, Note_off_c, 0, 40, 63
1, 74640, Control_c, 0, 64, 45
1, 74649, Note_on_c, 0, 33, 57
1, 74649, Note_on_c, 0, 45, 68
1, 74655, Control_c, 0, 64, 44
1, 74670, Control_c, 0, 64, 42
1, 74679, Note_off_c, 0, 33, 52
1, 74683, Note_off_c, 0, 45, 65
1, 74685, Control_c, 0, 64, 39
1, 74700, Control_c, 0, 64, 34
1, 74715, Control_c, 0, 64, 26
1, 74730, Control_c, 0, 64, 0
1, 74851, Note_on_c, 0, 52, 57
1, 74859, Note_on_c, 0, 61, 68
1, 74860, Note_on_c, 0, 40, 51
1, 74860, Note_on_c, 0, 49, 70
1, 74864, Note_on_c, 0, 57, 62
1, 74876, Note_off_c, 0, 52, 63
1, 74882, Note_off_c, 0, 61, 62
1, 74885, Note_off_c, 0, 49, 63
1, 74892, Note_off_c, 0, 57, 64
1, 74896, Note_off_c, 0, 40, 64
1, 74933, Note_on_c, 0, 61, 75
1, 74938, Note_on_c, 0, 49, 68
1, 74954, Note_on_c, 0, 57, 46
1, 74962, Note_off_c, 0, 61, 62
1, 74966, Note_off_c, 0, 49, 64
1, 74984, Note_off_c, 0, 57, 56
1, 74998, Note_on_c, 0, 44, 85
1, 75001, Note_on_c, 0, 32, 78
1, 75022, Note_off_c, 0, 44, 67
1, 75028, Note_off_c, 0, 32, 64
1, 75180, Note_on_c, 0, 56, 82
1, 75183, Note_on_c, 0, 49, 76
1, 75185, Note_on_c, 0, 40, 61
1, 75185, Note_on_c, 0, 52, 58
1, 75186, Note_on_c, 0, 61, 67
1, 75203, Note_off_c, 0, 56, 68
1, 75205, Note_off_c, 0, 61, 64
1, 75207, Note_off_c, 0, 49, 66
1, 75207, Note_off_c, 0, 52, 62
1, 75215, Note_off_c, 0, 40, 66
1, 75244, Note_on_c, 0, 56, 83
1, 75257, Note_on_c, 0, 61, 67
1, 75262, Poly_aftertouch_c, 0, 49, 0
1, 75274, Note_off_c, 0, 56, 61
1, 75287, Note_off_c, 0, 61, 62
1, 75324, Note_on_c, 0, 49, 91
1, 75332, Note_on_c, 0, 37, 70
1, 75344, Note_off_c, 0, 49, 71
1, 75359, Note_off_c, 0, 37, 61
1, 75500, Note_on_c, 0, 52, 68
1, 75500, Note_on_c, 0, 56, 58
1, 75510, Note_on_c, 0, 44, 54
1, 75511, Note_on_c, 0, 64, 49
1, 75524, Note_off_c, 0, 56, 62
1, 75528, Note_on_c, 0, 65, 22
1, 75528, Note_off_c, 0, 52, 67
1, 75537, Note_off_c, 0, 64, 59
1, 75537, Note_off_c, 0, 44, 53
1, 75565, Note_off_c, 0, 65, 32
1, 75674, Note_on_c, 0, 34, 45
1, 75684, Note_on_c, 0, 44, 26
1, 75712, Note_off_c, 0, 34, 32
1, 75735, Note_off_c, 0, 44, 29
1, 75815, Note_on_c, 0, 60, 62
1, 75818, Note_on_c, 0, 51, 66
1, 75820, Note_on_c, 0, 56, 51
1, 75824, Note_on_c, 0, 48, 55
1, 75837, Note_on_c, 0, 39, 41
1, 75840, Note_off_c, 0, 51, 63
1, 75845, Note_off_c, 0, 56, 58
1, 75846, Note_off_c, 0, 60, 66
1, 75848, Note_off_c, 0, 48, 58
1, 75876, Note_off_c, 0, 39, 47
1, 75969, Note_on_c, 0, 31, 70
1, 76002, Note_off_c, 0, 31, 63
1, 76135, Note_on_c, 0, 60, 71
1, 76139, Note_on_c, 0, 48, 62
1, 76141, Note_on_c, 0, 52, 62
1, 76149, Note_on_c, 0, 55, 51
1, 76151, Note_on_c, 0, 40, 53
1, 76160, Note_off_c, 0, 48, 62
1, 76161, Note_off_c, 0, 52, 62
1, 76166, Note_off_c, 0, 60, 64
1, 76173, Note_off_c, 0, 55, 58
1, 76181, Note_off_c, 0, 40, 56
1, 76282, Note_on_c, 0, 48, 73
1, 76287, Note_on_c, 0, 36, 79
1, 76309, Note_off_c, 0, 48, 66
1, 76313, Note_off_c, 0, 36, 65
1, 76441, Note_on_c, 0, 52, 64
1, 76444, Note_on_c, 0, 43, 71
1, 76444, Note_on_c, 0, 55, 74
1, 76445, Note_on_c, 0, 60, 63
1, 76447, Note_on_c, 0, 64, 60
1, 76461, Note_off_c, 0, 55, 66
1, 76466, Note_off_c, 0, 60, 61
1, 76467, Note_off_c, 0, 64, 62
1, 76472, Note_off_c, 0, 43, 62
1, 76477, Note_off_c, 0, 52, 0
1, 76498, Note_on_c, 0, 60, 69
1, 76502, Note_on_c, 0, 64, 63
1, 76507, Poly_aftertouch_c, 0, 52, 0
1, 76523, Note_off_c, 0, 60, 69
1, 76527, Note_off_c, 0, 64, 63
1, 76579, Note_on_c, 0, 52, 90
1, 76582, Note_on_c, 0, 40, 83
1, 76600, Note_off_c, 0, 52, 70
1, 76611, Note_off_c, 0, 40, 66
1, 76715, Note_on_c, 0, 68, 72
1, 76719, Note_on_c, 0, 56, 70
1, 76723, Note_on_c, 0, 64, 39
1, 76742, Note_on_c, 0, 59, 67
1, 76742, Note_on_c, 0, 47, 66
1, 76745, Note_off_c, 0, 68, 63
1, 76749, Note_off_c, 0, 56, 66
1, 76751, Note_off_c, 0, 64, 61
1, 76770, Note_off_c, 0, 59, 65
1, 76771, Note_off_c, 0, 47, 64
1, 76873, Control_c, 0, 64, 9
1, 76879, Note_on_c, 0, 51, 100
1, 76888, Control_c, 0, 64, 11
1, 76888, Note_on_c, 0, 39, 72
1, 76903, Note_off_c, 0, 51, 69
1, 76915, Note_off_c, 0, 39, 65
1, 76917, Control_c, 0, 64, 12
1, 77041, Note_on_c, 0, 68, 78
1, 77042, Note_on_c, 0, 56, 77
1, 77046, Note_on_c, 0, 63, 65
1, 77052, Note_on_c, 0, 47, 72
1, 77055, Note_on_c, 0, 59, 74
1, 77057, Note_off_c, 0, 68, 69
1, 77065, Note_off_c, 0, 63, 66
1, 77071, Note_off_c, 0, 56, 65
1, 77081, Note_off_c, 0, 59, 68
1, 77083, Note_off_c, 0, 47, 63
1, 77107, Note_on_c, 0, 56, 89
1, 77107, Note_on_c, 0, 68, 85
1, 77108, Note_on_c, 0, 63, 81
1, 77129, Note_off_c, 0, 56, 66
1, 77129, Note_off_c, 0, 63, 69
1, 77130, Note_off_c, 0, 68, 60
1, 77162, Control_c, 0, 64, 13
1, 77180, Note_on_c, 0, 56, 96
1, 77185, Note_on_c, 0, 44, 85
1, 77203, Note_off_c, 0, 56, 71
1, 77210, Note_off_c, 0, 44, 67
1, 77346, Note_on_c, 0, 63, 73
1, 77351, Note_on_c, 0, 51, 69
1, 77356, Note_on_c, 0, 71, 75
1, 77358, Note_on_c, 0, 68, 76
1, 77362, Note_on_c, 0, 59, 74
1, 77374, Note_off_c, 0, 63, 67
1, 77380, Note_off_c, 0, 51, 65
1, 77380, Note_off_c, 0, 71, 68
1, 77382, Note_off_c, 0, 68, 66
1, 77386, Note_off_c, 0, 59, 67
1, 77488, Control_c, 0, 64, 15
1, 77503, Note_on_c, 0, 51, 68
1, 77503, Control_c, 0, 64, 16
1, 77508, Note_on_c, 0, 39, 62
1, 77532, Note_off_c, 0, 51, 65
1, 77536, Note_off_c, 0, 39, 58
1, 77592, Control_c, 0, 64, 17
1, 77660, Note_on_c, 0, 55, 75
1, 77662, Note_on_c, 0, 58, 67
1, 77663, Note_on_c, 0, 63, 68
1, 77663, Note_on_c, 0, 67, 70
1, 77669, Note_on_c, 0, 46, 59
1, 77686, Note_off_c, 0, 55, 67
1, 77690, Note_off_c, 0, 63, 64
1, 77690, Note_off_c, 0, 67, 68
1, 77693, Note_off_c, 0, 58, 65
1, 77694, Note_off_c, 0, 46, 57
1, 77726, Note_on_c, 0, 55, 92
1, 77728, Note_on_c, 0, 63, 89
1, 77728, Note_on_c, 0, 67, 79
1, 77747, Control_c, 0, 64, 17
1, 77758, Note_off_c, 0, 55, 68
1, 77770, Note_off_c, 0, 67, 57
1, 77773, Note_off_c, 0, 63, 58
1, 77795, Note_on_c, 0, 50, 86
1, 77796, Note_on_c, 0, 38, 88
1, 77818, Note_off_c, 0, 50, 69
1, 77822, Note_off_c, 0, 38, 67
1, 77956, Note_on_c, 0, 55, 74
1, 77958, Note_on_c, 0, 59, 71
1, 77962, Note_on_c, 0, 67, 67
1, 77963, Note_on_c, 0, 47, 68
1, 77964, Note_on_c, 0, 62, 60
1, 77982, Note_off_c, 0, 55, 66
1, 77984, Note_off_c, 0, 47, 61
1, 77984, Note_off_c, 0, 59, 68
1, 77985, Note_off_c, 0, 62, 63
1, 77990, Note_off_c, 0, 67, 67
1, 78084, Note_on_c, 0, 55, 74
1, 78090, Note_on_c, 0, 43, 80
1, 78112, Note_off_c, 0, 55, 68
1, 78113, Note_off_c, 0, 43, 66
1, 78248, Note_on_c, 0, 50, 74
1, 78249, Note_on_c, 0, 59, 78
1, 78249, Note_on_c, 0, 71, 83
1, 78250, Note_on_c, 0, 62, 74
1, 78250, Note_on_c, 0, 67, 75
1, 78269, Note_off_c, 0, 71, 72
1, 78272, Note_off_c, 0, 59, 70
1, 78274, Note_off_c, 0, 67, 69
1, 78275, Note_off_c, 0, 62, 69
1, 78277, Note_off_c, 0, 50, 66
1, 78310, Note_on_c, 0, 59, 81
1, 78311, Note_on_c, 0, 71, 88
1, 78312, Note_on_c, 0, 67, 84
1, 78333, Note_off_c, 0, 59, 70
1, 78348, Note_off_c, 0, 67, 62
1, 78353, Note_off_c, 0, 71, 59
1, 78381, Note_on_c, 0, 47, 84
1, 78382, Note_on_c, 0, 59, 90
1, 78404, Note_off_c, 0, 47, 68
1, 78411, Note_off_c, 0, 59, 63
1, 78556, Note_on_c, 0, 66, 74
1, 78562, Note_on_c, 0, 74, 71
1, 78569, Note_on_c, 0, 71, 54
1, 78569, Note_on_c, 0, 54, 49
1, 78572, Note_on_c, 0, 62, 57
1, 78579, Note_off_c, 0, 66, 69
1, 78588, Note_off_c, 0, 71, 61
1, 78588, Note_off_c, 0, 74, 66
1, 78594, Note_off_c, 0, 62, 62
1, 78596, Note_off_c, 0, 54, 57
1, 78644, Control_c, 0, 64, 17
1, 78659, Control_c, 0, 64, 11
1, 78674, Control_c, 0, 64, 9
1, 78688, Control_c, 0, 64, 12
1, 78700, Note_on_c, 0, 46, 72
1, 78700, Note_on_c, 0, 58, 78
1, 78703, Control_c, 0, 64, 35
1, 78718, Control_c, 0, 64, 55
1, 78724, Note_off_c, 0, 58, 67
1, 78733, Note_off_c, 0, 46, 65
1, 78733, Control_c, 0, 64, 65
1, 78748, Control_c, 0, 64, 72
1, 78763, Control_c, 0, 64, 87
1, 78778, Control_c, 0, 64, 127
1, 78855, Note_on_c, 0, 66, 71
1, 78860, Note_on_c, 0, 70, 74
1, 78860, Note_on_c, 0, 74, 72
1, 78866, Note_on_c, 0, 62, 63
1, 78873, Note_on_c, 0, 54, 48
1, 78882, Note_off_c, 0, 66, 68
1, 78884, Note_off_c, 0, 74, 64
1, 78885, Note_off_c, 0, 70, 67
1, 78886, Note_off_c, 0, 62, 64
1, 78896, Control_c, 0, 64, 109
1, 78903, Note_off_c, 0, 54, 56
1, 78911, Control_c, 0, 64, 79
1, 78926, Control_c, 0, 64, 58
1, 78929, Note_on_c, 0, 62, 69
1, 78937, Note_on_c, 0, 74, 68
1, 78942, Control_c, 0, 64, 15
1, 78956, Note_off_c, 0, 74, 64
1, 78956, Control_c, 0, 64, 26
1, 78959, Note_off_c, 0, 62, 66
1, 78966, Note_on_c, 0, 70, 26
1, 78971, Control_c, 0, 64, 51
1, 78986, Control_c, 0, 64, 61
1, 78988, Note_on_c, 0, 62, 68
1, 78989, Note_on_c, 0, 50, 74
1, 79001, Control_c, 0, 64, 66
1, 79002, Note_off_c, 0, 70, 32
1, 79013, Note_off_c, 0, 50, 67
1, 79015, Note_off_c, 0, 62, 69
1, 79016, Control_c, 0, 64, 74
1, 79031, Control_c, 0, 64, 85
1, 79045, Control_c, 0, 64, 97
1, 79060, Control_c, 0, 64, 103
1, 79070, Note_on_c, 0, 65, 65
1, 79075, Control_c, 0, 64, 103
1, 79090, Control_c, 0, 64, 102
1, 79104, Control_c, 0, 64, 101
1, 79115, Note_on_c, 0, 67, 7
1, 79119, Note_off_c, 0, 65, 62
1, 79134, Note_on_c, 0, 57, 75
1, 79134, Control_c, 0, 64, 103
1, 79137, Note_on_c, 0, 69, 69
1, 79140, Note_on_c, 0, 74, 62
1, 79142, Note_on_c, 0, 77, 75
1, 79149, Control_c, 0, 64, 108
1, 79159, Note_off_c, 0, 69, 66
1, 79159, Note_off_c, 0, 74, 65
1, 79161, Note_off_c, 0, 57, 69
1, 79164, Control_c, 0, 64, 127
1, 79175, Note_off_c, 0, 67, 50
1, 79189, Note_on_c, 0, 65, 74
1, 79193, Control_c, 0, 64, 116
1, 79204, Note_off_c, 0, 77, 62
1, 79208, Control_c, 0, 64, 79
1, 79223, Control_c, 0, 64, 58
1, 79245, Control_c, 0, 64, 0
1, 79246, Note_off_c, 0, 65, 64
1, 79270, Note_on_c, 0, 49, 81
1, 79274, Note_on_c, 0, 61, 89
1, 79275, Control_c, 0, 64, 40
1, 79290, Control_c, 0, 64, 59
1, 79296, Note_off_c, 0, 49, 68
1, 79296, Note_off_c, 0, 61, 68
1, 79305, Control_c, 0, 64, 66
1, 79319, Control_c, 0, 64, 72
1, 79334, Control_c, 0, 64, 81
1, 79341, Note_on_c, 0, 68, 83
1, 79349, Control_c, 0, 64, 91
1, 79364, Control_c, 0, 64, 97
1, 79379, Control_c, 0, 64, 97
1, 79393, Control_c, 0, 64, 95
1, 79397, Note_off_c, 0, 68, 62
1, 79405, Note_on_c, 0, 77, 33
1, 79415, Note_on_c, 0, 80, 84
1, 79416, Note_on_c, 0, 59, 78
1, 79417, Note_on_c, 0, 71, 80
1, 79423, Control_c, 0, 64, 95
1, 79437, Control_c, 0, 64, 99
1, 79439, Note_off_c, 0, 71, 71
1, 79451, Note_off_c, 0, 59, 61
1, 79452, Note_off_c, 0, 77, 63
1, 79452, Control_c, 0, 64, 105
1, 79467, Control_c, 0, 64, 113
1, 79473, Note_on_c, 0, 68, 78
1, 79479, Note_off_c, 0, 80, 61
1, 79482, Control_c, 0, 64, 103
1, 79497, Control_c, 0, 64, 72
1, 79511, Control_c, 0, 64, 0
1, 79522, Note_off_c, 0, 68, 62
1, 79550, Note_on_c, 0, 54, 87
1, 79553, Note_on_c, 0, 66, 90
1, 79571, Note_off_c, 0, 66, 71
1, 79573, Note_off_c, 0, 54, 70
1, 79585, Control_c, 0, 64, 55
1, 79600, Control_c, 0, 64, 67
1, 79615, Control_c, 0, 64, 81
1, 79621, Note_on_c, 0, 69, 81
1, 79630, Control_c, 0, 64, 127
1, 79675, Note_off_c, 0, 69, 62
1, 79683, Note_on_c, 0, 73, 78
1, 79683, Note_on_c, 0, 78, 77
1, 79699, Note_on_c, 0, 81, 61
1, 79705, Note_off_c, 0, 73, 71
1, 79723, Note_off_c, 0, 78, 61
1, 79747, Note_off_c, 0, 81, 64
1, 79749, Note_on_c, 0, 69, 80
1, 79764, Control_c, 0, 64, 79
1, 79779, Control_c, 0, 64, 39
1, 79785, Note_off_c, 0, 69, 63
1, 79792, Poly_aftertouch_c, 0, 79, 0
1, 79794, Control_c, 0, 64, 0
1, 79801, Note_on_c, 0, 53, 83
1, 79807, Note_on_c, 0, 65, 83
1, 79824, Note_off_c, 0, 53, 69
1, 79828, Note_off_c, 0, 65, 70
1, 79854, Control_c, 0, 64, 57
1, 79868, Control_c, 0, 64, 68
1, 79881, Note_on_c, 0, 72, 82
1, 79883, Control_c, 0, 64, 72
1, 79898, Control_c, 0, 64, 71
1, 79913, Control_c, 0, 64, 72
1, 79928, Control_c, 0, 64, 74
1, 79935, Note_off_c, 0, 72, 64
1, 79937, Note_on_c, 0, 75, 93
1, 79942, Control_c, 0, 64, 79
1, 79949, Note_on_c, 0, 81, 66
1, 79957, Control_c, 0, 64, 85
1, 79958, Note_off_c, 0, 75, 68
1, 79963, Note_on_c, 0, 63, 41
1, 79967, Note_on_c, 0, 84, 65
1, 79968, Note_on_c, 0, 86, 73
1, 79972, Control_c, 0, 64, 89
1, 79985, Note_off_c, 0, 81, 67
1, 79994, Control_c, 0, 64, 91
1, 80000, Note_off_c, 0, 63, 52
1, 80007, Note_off_c, 0, 86, 59
1, 80009, Control_c, 0, 64, 90
1, 80015, Note_off_c, 0, 84, 57
1, 80016, Note_on_c, 0, 72, 83
1, 80024, Control_c, 0, 64, 73
1, 80039, Control_c, 0, 64, 0
1, 80066, Note_off_c, 0, 72, 65
1, 80076, Note_on_c, 0, 70, 98
1, 80078, Note_on_c, 0, 58, 84
1, 80100, Note_off_c, 0, 58, 70
1, 80102, Note_off_c, 0, 70, 68
1, 80128, Control_c, 0, 64, 63
1, 80142, Control_c, 0, 64, 66
1, 80157, Control_c, 0, 64, 68
1, 80159, Note_on_c, 0, 73, 89
1, 80172, Control_c, 0, 64, 70
1, 80187, Control_c, 0, 64, 72
1, 80202, Control_c, 0, 64, 77
1, 80208, Note_on_c, 0, 77, 90
1, 80213, Note_on_c, 0, 65, 77
1, 80216, Control_c, 0, 64, 84
1, 80223, Note_off_c, 0, 73, 62
1, 80225, Note_on_c, 0, 82, 77
1, 80231, Control_c, 0, 64, 97
1, 80232, Note_off_c, 0, 77, 66
1, 80236, Note_on_c, 0, 85, 78
1, 80239, Note_off_c, 0, 65, 65
1, 80246, Control_c, 0, 64, 127
1, 80280, Note_off_c, 0, 82, 64
1, 80286, Note_on_c, 0, 73, 80
1, 80304, Note_off_c, 0, 85, 64
1, 80305, Control_c, 0, 64, 95
1, 80320, Control_c, 0, 64, 54
1, 80334, Control_c, 0, 64, 0
1, 80340, Note_off_c, 0, 73, 64
1, 80349, Note_on_c, 0, 69, 90
1, 80357, Note_on_c, 0, 57, 75
1, 80357, Note_on_c, 0, 59, 69
1, 80374, Note_off_c, 0, 69, 68
1, 80378, Control_c, 0, 64, 39
1, 80381, Note_off_c, 0, 59, 67
1, 80381, Note_off_c, 0, 57, 67
1, 80393, Control_c, 0, 64, 56
1, 80408, Control_c, 0, 64, 63
1, 80423, Control_c, 0, 64, 66
1, 80438, Control_c, 0, 64, 70
1, 80453, Control_c, 0, 64, 79
1, 80456, Note_on_c, 0, 76, 75
1, 80468, Control_c, 0, 64, 95
1, 80483, Control_c, 0, 64, 127
1, 80521, Note_off_c, 0, 76, 62
1, 80544, Note_on_c, 0, 79, 79
1, 80547, Note_on_c, 0, 85, 64
1, 80557, Note_on_c, 0, 88, 62
1, 80563, Note_on_c, 0, 67, 47
1, 80566, Note_off_c, 0, 79, 71
1, 80568, Note_on_c, 0, 66, 39
1, 80573, Note_on_c, 0, 77, 34
1, 80584, Note_off_c, 0, 85, 62
1, 80589, Note_off_c, 0, 67, 59
1, 80602, Note_off_c, 0, 66, 52
1, 80606, Note_off_c, 0, 77, 54
1, 80617, Note_on_c, 0, 76, 72
1, 80626, Note_off_c, 0, 88, 63
1, 80632, Control_c, 0, 64, 110
1, 80647, Control_c, 0, 64, 104
1, 80653, Note_off_c, 0, 76, 62
1, 80676, Control_c, 0, 64, 103
1, 80691, Control_c, 0, 64, 76
1, 80706, Control_c, 0, 64, 42
1, 80721, Control_c, 0, 64, 0
1, 80723, Note_on_c, 0, 77, 94
1, 80733, Note_on_c, 0, 65, 93
1, 80787, Control_c, 0, 64, 37
1, 80802, Control_c, 0, 64, 60
1, 80817, Control_c, 0, 64, 69
1, 80832, Control_c, 0, 64, 80
1, 80837, Note_off_c, 0, 65, 61
1, 80837, Note_off_c, 0, 77, 60
1, 80846, Control_c, 0, 64, 99
1, 80861, Note_on_c, 0, 84, 78
1, 80861, Control_c, 0, 64, 127
1, 80921, Note_off_c, 0, 84, 63
1, 80935, Note_on_c, 0, 80, 77
1, 80936, Note_on_c, 0, 72, 68
1, 80941, Note_on_c, 0, 96, 83
1, 80972, Note_off_c, 0, 80, 61
1, 80988, Note_off_c, 0, 96, 65
1, 80997, Note_off_c, 0, 72, 60
1, 81004, Note_on_c, 0, 84, 79
1, 81009, Control_c, 0, 64, 110
1, 81024, Control_c, 0, 64, 70
1, 81039, Control_c, 0, 64, 30
1, 81048, Note_on_c, 0, 64, 82
1, 81053, Note_on_c, 0, 76, 83
1, 81054, Control_c, 0, 64, 0
1, 81062, Note_off_c, 0, 84, 64
1, 81069, Control_c, 0, 64, 36
1, 81075, Note_on_c, 0, 96, 86
1, 81081, Note_on_c, 0, 95, 68
1, 81083, Control_c, 0, 64, 58
1, 81092, Note_off_c, 0, 76, 66
1, 81097, Note_off_c, 0, 64, 63
1, 81098, Control_c, 0, 64, 65
1, 81113, Control_c, 0, 64, 72
1, 81116, Note_off_c, 0, 95, 65
1, 81121, Note_off_c, 0, 96, 67
1, 81128, Control_c, 0, 64, 87
1, 81135, Note_on_c, 0, 84, 82
1, 81143, Control_c, 0, 64, 127
1, 81186, Note_off_c, 0, 84, 64
1, 81188, Note_on_c, 0, 94, 92
1, 81192, Note_on_c, 0, 72, 69
1, 81192, Note_on_c, 0, 80, 77
1, 81209, Note_on_c, 0, 96, 75
1, 81224, Note_off_c, 0, 80, 61
1, 81235, Note_off_c, 0, 96, 54
1, 81247, Note_off_c, 0, 94, 64
1, 81256, Note_on_c, 0, 84, 86
1, 81258, Note_off_c, 0, 72, 63
1, 81276, Control_c, 0, 64, 91
1, 81290, Control_c, 0, 64, 63
1, 81305, Control_c, 0, 64, 0
1, 81307, Note_off_c, 0, 84, 62
1, 81314, Note_on_c, 0, 63, 75
1, 81316, Note_on_c, 0, 75, 86
1, 81323, Note_on_c, 0, 93, 84
1, 81327, Note_on_c, 0, 96, 85
1, 81336, Control_c, 0, 64, 37
1, 81349, Note_off_c, 0, 63, 63
1, 81351, Control_c, 0, 64, 57
1, 81357, Note_off_c, 0, 75, 61
1, 81366, Control_c, 0, 64, 65
1, 81372, Note_off_c, 0, 93, 64
1, 81380, Control_c, 0, 64, 72
1, 81386, Note_on_c, 0, 84, 80
1, 81392, Note_off_c, 0, 96, 65
1, 81395, Control_c, 0, 64, 85
1, 81410, Control_c, 0, 64, 115
1, 81425, Control_c, 0, 64, 127
1, 81441, Note_off_c, 0, 84, 63
1, 81445, Note_on_c, 0, 92, 88
1, 81454, Note_on_c, 0, 72, 58
1, 81454, Note_on_c, 0, 96, 68
1, 81462, Note_on_c, 0, 80, 62
1, 81487, Note_off_c, 0, 80, 64
1, 81491, Note_off_c, 0, 96, 67
1, 81497, Note_off_c, 0, 72, 67
1, 81505, Note_off_c, 0, 92, 64
1, 81514, Note_on_c, 0, 84, 80
1, 81536, Control_c, 0, 64, 94
1, 81551, Control_c, 0, 64, 63
1, 81562, Note_off_c, 0, 84, 63
1, 81566, Control_c, 0, 64, 0
1, 81586, Note_on_c, 0, 73, 93
1, 81592, Note_on_c, 0, 61, 77
1, 81595, Control_c, 0, 64, 21
1, 81610, Control_c, 0, 64, 52
1, 81612, Note_on_c, 0, 92, 69
1, 81625, Control_c, 0, 64, 64
1, 81626, Note_off_c, 0, 73, 63
1, 81627, Note_off_c, 0, 61, 61
1, 81639, Control_c, 0, 64, 72
1, 81645, Note_off_c, 0, 92, 64
1, 81653, Note_on_c, 0, 63, 7
1, 81654, Control_c, 0, 64, 86
1, 81666, Note_on_c, 0, 80, 85
1, 81669, Control_c, 0, 64, 127
1, 81692, Note_off_c, 0, 63, 46
1, 81711, Note_on_c, 0, 76, 80
1, 81715, Note_off_c, 0, 80, 64
1, 81717, Note_on_c, 0, 68, 71
1, 81729, Note_on_c, 0, 88, 72
1, 81732, Note_on_c, 0, 92, 79
1, 81747, Note_on_c, 0, 74, 40
1, 81748, Note_off_c, 0, 74, 127
1, 81748, Note_off_c, 0, 76, 61
1, 81760, Note_off_c, 0, 68, 56
1, 81774, Note_on_c, 0, 80, 67
1, 81779, Note_off_c, 0, 88, 63
1, 81786, Note_off_c, 0, 92, 62
1, 81803, Control_c, 0, 64, 82
1, 81818, Control_c, 0, 64, 60
1, 81822, Note_off_c, 0, 80, 64
1, 81830, Note_on_c, 0, 72, 87
1, 81832, Note_on_c, 0, 60, 76
1, 81832, Control_c, 0, 64, 12
1, 81847, Control_c, 0, 64, 38
1, 81857, Note_off_c, 0, 60, 68
1, 81862, Control_c, 0, 64, 58
1, 81877, Note_off_c, 0, 72, 64
1, 81877, Control_c, 0, 64, 65
1, 81884, Note_on_c, 0, 96, 56
1, 81892, Control_c, 0, 64, 74
1, 81905, Note_off_c, 0, 96, 61
1, 81906, Control_c, 0, 64, 103
1, 81912, Note_on_c, 0, 84, 80
1, 81921, Control_c, 0, 64, 127
1, 81954, Note_on_c, 0, 69, 56
1, 81960, Note_on_c, 0, 77, 91
1, 81961, Note_off_c, 0, 84, 64
1, 81971, Note_on_c, 0, 96, 87
1, 81982, Note_off_c, 0, 77, 68
1, 81990, Note_on_c, 0, 93, 43
1, 82005, Note_off_c, 0, 69, 63
1, 82014, Note_off_c, 0, 96, 66
1, 82016, Note_off_c, 0, 93, 53
1, 82030, Note_on_c, 0, 84, 83
1, 82054, Control_c, 0, 64, 84
1, 82066, Note_off_c, 0, 84, 65
1, 82069, Control_c, 0, 64, 59
1, 82084, Control_c, 0, 64, 0
1, 82086, Note_on_c, 0, 71, 88
1, 82092, Note_on_c, 0, 59, 82
1, 82098, Control_c, 0, 64, 45
1, 82113, Note_off_c, 0, 59, 70
1, 82113, Control_c, 0, 64, 60
1, 82125, Note_off_c, 0, 71, 60
1, 82129, Control_c, 0, 64, 66
1, 82144, Control_c, 0, 64, 76
1, 82146, Note_on_c, 0, 92, 46
1, 82159, Control_c, 0, 64, 104
1, 82170, Note_on_c, 0, 80, 82
1, 82174, Control_c, 0, 64, 127
1, 82177, Note_off_c, 0, 92, 52
1, 82200, Poly_aftertouch_c, 0, 88, 0
1, 82206, Note_off_c, 0, 80, 60
1, 82215, Note_on_c, 0, 76, 85
1, 82221, Note_on_c, 0, 88, 37
1, 82238, Note_on_c, 0, 92, 90
1, 82241, Note_on_c, 0, 68, 63
1, 82262, Note_off_c, 0, 76, 63
1, 82270, Note_off_c, 0, 88, 66
1, 82271, Note_off_c, 0, 68, 66
1, 82287, Note_on_c, 0, 80, 78
1, 82299, Note_off_c, 0, 92, 64
1, 82300, Control_c, 0, 64, 111
1, 82312, Note_off_c, 0, 80, 69
1, 82315, Control_c, 0, 64, 67
1, 82329, Control_c, 0, 64, 0
1, 82348, Note_on_c, 0, 69, 84
1, 82350, Note_on_c, 0, 57, 86
1, 82374, Control_c, 0, 64, 45
1, 82379, Note_off_c, 0, 57, 65
1, 82389, Note_off_c, 0, 69, 63
1, 82389, Control_c, 0, 64, 59
1, 82403, Control_c, 0, 64, 66
1, 82417, Control_c, 0, 64, 76
1, 82420, Note_on_c, 0, 87, 24
1, 82426, Note_on_c, 0, 76, 77
1, 82432, Control_c, 0, 64, 99
1, 82447, Control_c, 0, 64, 127
1, 82462, Note_off_c, 0, 87, 29
1, 82472, Note_off_c, 0, 76, 62
1, 82474, Note_on_c, 0, 88, 81
1, 82479, Note_on_c, 0, 72, 73
1, 82486, Note_on_c, 0, 64, 71
1, 82503, Note_on_c, 0, 71, 42
1, 82511, Note_off_c, 0, 72, 64
1, 82528, Note_off_c, 0, 71, 35
1, 82539, Note_on_c, 0, 76, 78
1, 82542, Note_off_c, 0, 64, 62
1, 82550, Control_c, 0, 64, 85
1, 82557, Note_off_c, 0, 88, 59
1, 82565, Control_c, 0, 64, 61
1, 82578, Note_off_c, 0, 76, 67
1, 82580, Control_c, 0, 64, 0
1, 82593, Note_on_c, 0, 68, 84
1, 82596, Note_on_c, 0, 56, 63
1, 82609, Control_c, 0, 64, 28
1, 82624, Control_c, 0, 64, 55
1, 82632, Note_off_c, 0, 56, 66
1, 82635, Note_off_c, 0, 68, 62
1, 82639, Control_c, 0, 64, 65
1, 82653, Control_c, 0, 64, 73
1, 82668, Control_c, 0, 64, 93
1, 82671, Note_on_c, 0, 89, 50
1, 82677, Note_on_c, 0, 80, 79
1, 82683, Control_c, 0, 64, 127
1, 82710, Note_on_c, 0, 65, 67
1, 82718, Note_on_c, 0, 73, 85
1, 82721, Note_off_c, 0, 89, 0
1, 82724, Note_off_c, 0, 80, 62
1, 82733, Note_on_c, 0, 89, 55
1, 82737, Note_on_c, 0, 92, 94
1, 82761, Note_off_c, 0, 73, 65
1, 82784, Note_off_c, 0, 65, 59
1, 82787, Note_on_c, 0, 80, 76
1, 82793, Note_off_c, 0, 89, 61
1, 82799, Note_off_c, 0, 92, 66
1, 82817, Control_c, 0, 64, 81
1, 82832, Control_c, 0, 64, 37
1, 82833, Note_off_c, 0, 80, 65
1, 82841, Note_on_c, 0, 55, 78
1, 82842, Note_on_c, 0, 67, 83
1, 82847, Control_c, 0, 64, 0
1, 82876, Control_c, 0, 64, 39
1, 82879, Note_off_c, 0, 55, 60
1, 82891, Control_c, 0, 64, 58
1, 82891, Note_on_c, 0, 64, 19
1, 82895, Note_off_c, 0, 67, 64
1, 82906, Control_c, 0, 64, 66
1, 82921, Note_on_c, 0, 76, 84
1, 82921, Control_c, 0, 64, 78
1, 82936, Control_c, 0, 64, 107
1, 82951, Control_c, 0, 64, 127
1, 82972, Note_off_c, 0, 76, 64
1, 82981, Note_off_c, 0, 64, 0
1, 82981, Note_on_c, 0, 64, 41
1, 82983, Note_on_c, 0, 72, 84
1, 82989, Note_on_c, 0, 84, 81
1, 82991, Note_on_c, 0, 88, 83
1, 83017, Note_off_c, 0, 72, 62
1, 83018, Note_off_c, 0, 84, 62
1, 83022, Note_off_c, 0, 64, 64
1, 83049, Note_on_c, 0, 76, 80
1, 83053, Note_off_c, 0, 88, 63
1, 83062, Control_c, 0, 64, 78
1, 83076, Control_c, 0, 64, 48
1, 83082, Poly_aftertouch_c, 0, 61, 0
1, 83091, Control_c, 0, 64, 0
1, 83094, Note_off_c, 0, 76, 62
1, 83103, Note_on_c, 0, 53, 87
1, 83103, Note_on_c, 0, 65, 89
1, 83121, Control_c, 0, 64, 47
1, 83134, Note_off_c, 0, 53, 65
1, 83136, Control_c, 0, 64, 63
1, 83151, Note_off_c, 0, 65, 65
1, 83151, Control_c, 0, 64, 72
1, 83165, Control_c, 0, 64, 100
1, 83169, Note_on_c, 0, 52, 10
1, 83180, Control_c, 0, 64, 127
1, 83191, Note_on_c, 0, 72, 84
1, 83209, Note_off_c, 0, 52, 45
1, 83240, Note_on_c, 0, 68, 85
1, 83240, Note_off_c, 0, 72, 64
1, 83258, Note_on_c, 0, 60, 60
1, 83260, Note_on_c, 0, 84, 88
1, 83261, Note_on_c, 0, 80, 67
1, 83285, Note_off_c, 0, 80, 53
1, 83293, Note_off_c, 0, 68, 61
1, 83309, Note_on_c, 0, 72, 81
1, 83314, Control_c, 0, 64, 72
1, 83316, Note_off_c, 0, 84, 63
1, 83320, Note_off_c, 0, 60, 58
1, 83329, Control_c, 0, 64, 22
1, 83344, Control_c, 0, 64, 0
1, 83350, Note_off_c, 0, 72, 63
1, 83365, Note_on_c, 0, 64, 83
1, 83372, Note_on_c, 0, 52, 67
1, 83373, Control_c, 0, 64, 49
1, 83375, Note_on_c, 0, 50, 61
1, 83383, Note_on_c, 0, 88, 91
1, 83388, Control_c, 0, 64, 66
1, 83398, Note_off_c, 0, 50, 61
1, 83403, Control_c, 0, 64, 82
1, 83405, Note_off_c, 0, 52, 67
1, 83416, Note_off_c, 0, 64, 65
1, 83418, Control_c, 0, 64, 127
1, 83427, Note_off_c, 0, 88, 65
1, 83443, Note_on_c, 0, 76, 77
1, 83478, Note_off_c, 0, 76, 59
1, 83497, Note_on_c, 0, 69, 86
1, 83508, Note_on_c, 0, 60, 81
1, 83510, Note_on_c, 0, 84, 90
1, 83514, Note_on_c, 0, 61, 43
1, 83523, Note_off_c, 0, 69, 63
1, 83541, Note_off_c, 0, 60, 63
1, 83542, Note_off_c, 0, 61, 54
1, 83544, Note_on_c, 0, 81, 32
1, 83557, Note_off_c, 0, 84, 61
1, 83572, Note_off_c, 0, 81, 56
1, 83580, Note_on_c, 0, 72, 74
1, 83595, Control_c, 0, 64, 73
1, 83604, Note_off_c, 0, 72, 70
1, 83610, Control_c, 0, 64, 0
1, 83622, Note_on_c, 0, 61, 92
1, 83625, Note_on_c, 0, 49, 92
1, 83654, Control_c, 0, 64, 41
1, 83664, Note_off_c, 0, 61, 64
1, 83669, Control_c, 0, 64, 64
1, 83672, Note_off_c, 0, 49, 61
1, 83684, Control_c, 0, 64, 72
1, 83691, Note_on_c, 0, 80, 16
1, 83699, Control_c, 0, 64, 96
1, 83714, Control_c, 0, 64, 127
1, 83749, Note_off_c, 0, 80, 28
1, 83760, Note_on_c, 0, 64, 87
1, 83767, Note_on_c, 0, 56, 76
1, 83775, Note_on_c, 0, 80, 67
1, 83779, Note_on_c, 0, 76, 69
1, 83790, Note_on_c, 0, 78, 55
1, 83806, Note_off_c, 0, 64, 63
1, 83812, Note_off_c, 0, 78, 59
1, 83814, Note_on_c, 0, 51, 23
1, 83819, Note_on_c, 0, 68, 77
1, 83833, Note_off_c, 0, 76, 64
1, 83835, Note_off_c, 0, 56, 63
1, 83835, Note_off_c, 0, 80, 63
1, 83859, Note_off_c, 0, 51, 52
1, 83862, Note_off_c, 0, 68, 62
1, 83871, Control_c, 0, 64, 91
1, 83886, Control_c, 0, 64, 58
1, 83898, Note_on_c, 0, 60, 84
1, 83900, Control_c, 0, 64, 0
1, 83902, Note_on_c, 0, 48, 81
1, 83904, Note_on_c, 0, 84, 95
1, 83919, Note_on_c, 0, 81, 62
1, 83933, Note_off_c, 0, 48, 66
1, 83946, Control_c, 0, 64, 56
1, 83950, Note_off_c, 0, 81, 63
1, 83952, Note_off_c, 0, 60, 66
1, 83957, Note_on_c, 0, 72, 73
1, 83961, Control_c, 0, 64, 66
1, 83961, Note_off_c, 0, 84, 65
1, 83975, Control_c, 0, 64, 76
1, 83990, Control_c, 0, 64, 95
1, 84005, Control_c, 0, 64, 127
1, 84009, Note_off_c, 0, 72, 65
1, 84046, Note_on_c, 0, 65, 88
1, 84048, Note_on_c, 0, 57, 71
1, 84050, Note_on_c, 0, 81, 83
1, 84057, Note_on_c, 0, 77, 76
1, 84069, Note_off_c, 0, 65, 68
1, 84082, Note_off_c, 0, 57, 66
1, 84085, Note_on_c, 0, 76, 46
1, 84088, Note_off_c, 0, 77, 65
1, 84107, Note_off_c, 0, 81, 66
1, 84110, Note_off_c, 0, 76, 60
1, 84124, Note_on_c, 0, 69, 73
1, 84139, Control_c, 0, 64, 103
1, 84154, Control_c, 0, 64, 61
1, 84155, Note_off_c, 0, 69, 64
1, 84169, Control_c, 0, 64, 0
1, 84180, Note_on_c, 0, 57, 96
1, 84187, Note_on_c, 0, 45, 77
1, 84193, Note_on_c, 0, 43, 74
1, 84200, Note_on_c, 0, 55, 52
1, 84213, Control_c, 0, 64, 15
1, 84217, Note_off_c, 0, 43, 63
1, 84219, Note_off_c, 0, 45, 65
1, 84227, Note_off_c, 0, 55, 55
1, 84227, Control_c, 0, 64, 59
1, 84242, Note_off_c, 0, 57, 55
1, 84242, Control_c, 0, 64, 71
1, 84257, Control_c, 0, 64, 84
1, 84272, Control_c, 0, 64, 116
1, 84287, Control_c, 0, 64, 127
1, 84331, Control_c, 0, 64, 115
1, 84333, Note_on_c, 0, 72, 81
1, 84334, Note_on_c, 0, 76, 81
1, 84343, Note_on_c, 0, 60, 88
1, 84346, Control_c, 0, 64, 121
1, 84349, Note_on_c, 0, 52, 77
1, 84361, Control_c, 0, 64, 127
1, 84370, Note_off_c, 0, 72, 64
1, 84370, Note_off_c, 0, 76, 62
1, 84384, Note_on_c, 0, 49, 35
1, 84386, Note_off_c, 0, 60, 64
1, 84403, Note_on_c, 0, 64, 70
1, 84413, Note_off_c, 0, 52, 63
1, 84430, Note_off_c, 0, 64, 67
1, 84434, Note_off_c, 0, 49, 45
1, 84435, Control_c, 0, 64, 108
1, 84450, Control_c, 0, 64, 66
1, 84465, Control_c, 0, 64, 0
1, 84466, Note_on_c, 0, 44, 79
1, 84467, Note_on_c, 0, 56, 96
1, 84485, Note_on_c, 0, 77, 79
1, 84487, Note_on_c, 0, 80, 86
1, 84502, Control_c, 0, 64, 22
1, 84516, Control_c, 0, 64, 55
1, 84523, Note_on_c, 0, 78, 34
1, 84524, Note_off_c, 0, 78, 127
1, 84532, Control_c, 0, 64, 63
1, 84534, Note_off_c, 0, 56, 63
1, 84536, Note_off_c, 0, 44, 63
1, 84547, Control_c, 0, 64, 68
1, 84555, Note_on_c, 0, 68, 75
1, 84562, Control_c, 0, 64, 72
1, 84568, Note_off_c, 0, 80, 65
1, 84573, Note_off_c, 0, 77, 63
1, 84577, Control_c, 0, 64, 75
1, 84592, Control_c, 0, 64, 74
1, 84593, Note_off_c, 0, 68, 63
1, 84607, Control_c, 0, 64, 73
1, 84621, Control_c, 0, 64, 72
1, 84624, Note_on_c, 0, 53, 57
1, 84628, Note_on_c, 0, 61, 89
1, 84639, Note_on_c, 0, 73, 79
1, 84643, Note_on_c, 0, 77, 87
1, 84651, Control_c, 0, 64, 73
1, 84666, Control_c, 0, 64, 75
1, 84675, Note_off_c, 0, 61, 61
1, 84676, Note_on_c, 0, 75, 36
1, 84680, Note_off_c, 0, 73, 61
1, 84680, Control_c, 0, 64, 77
1, 84685, Note_off_c, 0, 53, 63
1, 84695, Control_c, 0, 64, 82
1, 84706, Note_off_c, 0, 77, 65
1, 84708, Note_on_c, 0, 65, 74
1, 84709, Note_off_c, 0, 75, 32
1, 84710, Control_c, 0, 64, 85
1, 84711, Note_on_c, 0, 67, 64
1, 84725, Control_c, 0, 64, 83
1, 84739, Control_c, 0, 64, 78
1, 84740, Note_off_c, 0, 65, 65
1, 84740, Note_off_c, 0, 67, 66
1, 84754, Control_c, 0, 64, 70
1, 84769, Control_c, 0, 64, 62
1, 84775, Note_on_c, 0, 53, 99
1, 84781, Note_on_c, 0, 41, 85
1, 84784, Note_on_c, 0, 44, 84
1, 84784, Control_c, 0, 64, 49
1, 84799, Control_c, 0, 64, 45
1, 84814, Control_c, 0, 64, 55
1, 84820, Note_off_c, 0, 53, 63
1, 84823, Note_off_c, 0, 41, 59
1, 84824, Note_off_c, 0, 44, 62
1, 84829, Control_c, 0, 64, 62
1, 84841, Note_on_c, 0, 72, 83
1, 84843, Note_on_c, 0, 60, 78
1, 84844, Control_c, 0, 64, 67
1, 84846, Note_on_c, 0, 68, 70
1, 84858, Control_c, 0, 64, 73
1, 84873, Control_c, 0, 64, 75
1, 84880, Note_off_c, 0, 68, 62
1, 84896, Note_off_c, 0, 60, 64
1, 84896, Note_off_c, 0, 72, 65
1, 84918, Control_c, 0, 64, 76
1, 84924, Note_on_c, 0, 52, 94
1, 84927, Note_on_c, 0, 44, 86
1, 84932, Control_c, 0, 64, 77
1, 84936, Note_on_c, 0, 40, 74
1, 84947, Control_c, 0, 64, 78
1, 84966, Note_off_c, 0, 40, 66
1, 84968, Note_on_c, 0, 72, 81
1, 84969, Note_on_c, 0, 60, 87
1, 84971, Note_off_c, 0, 52, 67
1, 84972, Note_on_c, 0, 68, 82
1, 84977, Control_c, 0, 64, 78
1, 84987, Note_off_c, 0, 44, 63
1, 84992, Control_c, 0, 64, 77
1, 84997, Note_off_c, 0, 72, 66
1, 84999, Note_off_c, 0, 68, 62
1, 85017, Note_off_c, 0, 60, 66
1, 85021, Control_c, 0, 64, 78
1, 85036, Control_c, 0, 64, 80
1, 85049, Note_on_c, 0, 51, 104
1, 85050, Control_c, 0, 64, 81
1, 85052, Note_on_c, 0, 39, 88
1, 85065, Control_c, 0, 64, 76
1, 85080, Control_c, 0, 64, 67
1, 85095, Control_c, 0, 64, 59
1, 85096, Note_on_c, 0, 63, 87
1, 85097, Note_on_c, 0, 52, 82
1, 85097, Note_off_c, 0, 39, 62
1, 85097, Note_off_c, 0, 51, 65
1, 85103, Note_on_c, 0, 64, 81
1, 85110, Control_c, 0, 64, 58
1, 85124, Control_c, 0, 64, 60
1, 85131, Note_off_c, 0, 64, 63
1, 85139, Control_c, 0, 64, 51
1, 85146, Note_off_c, 0, 52, 65
1, 85147, Note_off_c, 0, 63, 63
1, 85154, Control_c, 0, 64, 0
1, 85166, Note_on_c, 0, 50, 101
1, 85172, Note_on_c, 0, 40, 87
1, 85177, Note_on_c, 0, 38, 82
1, 85199, Note_off_c, 0, 38, 64
1, 85213, Note_on_c, 0, 64, 89
1, 85214, Note_off_c, 0, 50, 67
1, 85215, Note_on_c, 0, 52, 85
1, 85215, Note_on_c, 0, 62, 81
1, 85232, Note_off_c, 0, 40, 62
1, 85267, Note_off_c, 0, 64, 64
1, 85272, Note_off_c, 0, 52, 66
1, 85276, Note_off_c, 0, 62, 65
1, 85287, Note_on_c, 0, 39, 88
1, 85290, Note_on_c, 0, 49, 95
1, 85321, Note_on_c, 0, 37, 56
1, 85344, Note_off_c, 0, 49, 64
1, 85349, Note_off_c, 0, 39, 63
1, 85350, Note_on_c, 0, 64, 96
1, 85350, Note_off_c, 0, 37, 57
1, 85351, Note_on_c, 0, 52, 94
1, 85353, Note_on_c, 0, 61, 83
1, 85398, Note_off_c, 0, 52, 67
1, 85398, Note_off_c, 0, 64, 66
1, 85409, Note_off_c, 0, 61, 62
1, 85420, Note_on_c, 0, 48, 107
1, 85423, Note_on_c, 0, 36, 100
1, 85425, Note_on_c, 0, 40, 87
1, 85454, Note_off_c, 0, 48, 67
1, 85464, Note_off_c, 0, 40, 66
1, 85466, Note_on_c, 0, 38, 30
1, 85467, Note_off_c, 0, 38, 127
1, 85473, Note_off_c, 0, 36, 60
1, 85477, Note_on_c, 0, 64, 97
1, 85478, Note_on_c, 0, 52, 99
1, 85479, Note_on_c, 0, 60, 87
1, 85503, Note_off_c, 0, 52, 66
1, 85534, Note_off_c, 0, 60, 62
1, 85539, Note_off_c, 0, 64, 58
1, 85705, Note_on_c, 0, 33, 111
1, 85707, Note_on_c, 0, 21, 104
1, 85710, Note_on_c, 0, 57, 107
1, 85710, Control_c, 0, 64, 54
1, 85725, Control_c, 0, 64, 83
1, 85726, Note_off_c, 0, 57, 76
1, 85733, Note_off_c, 0, 21, 67
1, 85740, Control_c, 0, 64, 127
1, 85744, Note_off_c, 0, 33, 65
1, 85898, Poly_aftertouch_c, 0, 21, 0
1, 85962, Control_c, 0, 64, 73
1, 85984, Control_c, 0, 64, 0
1, 86304, Note_on_c, 0, 81, 61
1, 86322, Note_on_c, 0, 71, 54
1, 86339, Note_off_c, 0, 81, 62
1, 86362, Note_off_c, 0, 71, 64
1, 86365, Note_on_c, 0, 75, 62
1, 86391, Note_off_c, 0, 75, 63
1, 86411, Note_on_c, 0, 63, 50
1, 86440, Note_on_c, 0, 75, 63
1, 86447, Note_off_c, 0, 63, 61
1, 86481, Note_off_c, 0, 75, 61
1, 86494, Note_on_c, 0, 69, 66
1, 86525, Note_off_c, 0, 69, 66
1, 86553, Note_on_c, 0, 72, 60
1, 86556, Note_on_c, 0, 81, 56
1, 86590, Note_off_c, 0, 81, 65
1, 86592, Note_off_c, 0, 72, 60
1, 86606, Note_on_c, 0, 76, 66
1, 86641, Note_on_c, 0, 64, 52
1, 86644, Note_off_c, 0, 76, 62
1, 86675, Note_on_c, 0, 76, 54
1, 86677, Note_off_c, 0, 64, 62
1, 86709, Note_off_c, 0, 76, 65
1, 86746, Note_on_c, 0, 69, 64
1, 86776, Note_on_c, 0, 64, 58
1, 86776, Note_off_c, 0, 69, 66
1, 86777, Control_c, 0, 64, 34
1, 86792, Control_c, 0, 64, 56
1, 86797, Note_on_c, 0, 81, 71
1, 86807, Control_c, 0, 64, 64
1, 86821, Control_c, 0, 64, 72
1, 86829, Note_off_c, 0, 64, 59
1, 86836, Control_c, 0, 64, 101
1, 86841, Note_off_c, 0, 81, 61
1, 86850, Note_on_c, 0, 76, 75
1, 86851, Control_c, 0, 64, 127
1, 86876, Note_off_c, 0, 76, 70
1, 86880, Note_on_c, 0, 57, 63
1, 86907, Note_off_c, 0, 57, 66
1, 86921, Note_on_c, 0, 76, 77
1, 86960, Note_off_c, 0, 76, 60
1, 86970, Note_on_c, 0, 69, 69
1, 86999, Note_off_c, 0, 69, 66
1, 87008, Note_on_c, 0, 73, 80
1, 87015, Control_c, 0, 64, 94
1, 87025, Note_on_c, 0, 83, 89
1, 87030, Control_c, 0, 64, 52
1, 87045, Control_c, 0, 64, 0
1, 87046, Note_off_c, 0, 73, 62
1, 87068, Note_off_c, 0, 83, 59
1, 87077, Note_on_c, 0, 76, 63
1, 87106, Note_off_c, 0, 76, 65
1, 87147, Note_on_c, 0, 64, 30
1, 87151, Note_on_c, 0, 76, 74
1, 87178, Note_off_c, 0, 76, 68
1, 87182, Note_off_c, 0, 64, 44
1, 87213, Note_on_c, 0, 71, 59
1, 87242, Note_on_c, 0, 74, 64
1, 87243, Note_off_c, 0, 71, 67
1, 87269, Note_on_c, 0, 83, 59
1, 87283, Note_off_c, 0, 74, 58
1, 87291, Note_off_c, 0, 83, 65
1, 87306, Note_on_c, 0, 77, 69
1, 87332, Note_off_c, 0, 77, 66
1, 87348, Note_on_c, 0, 65, 36
1, 87379, Note_off_c, 0, 65, 52
1, 87383, Note_on_c, 0, 77, 61
1, 87401, Note_off_c, 0, 77, 62
1, 87430, Note_on_c, 0, 71, 70
1, 87459, Control_c, 0, 64, 40
1, 87476, Note_off_c, 0, 71, 66
1, 87476, Note_on_c, 0, 65, 51
1, 87482, Control_c, 0, 64, 55
1, 87496, Note_on_c, 0, 83, 73
1, 87497, Control_c, 0, 64, 64
1, 87512, Control_c, 0, 64, 68
1, 87524, Note_off_c, 0, 65, 61
1, 87526, Control_c, 0, 64, 74
1, 87537, Note_off_c, 0, 83, 62
1, 87541, Control_c, 0, 64, 83
1, 87548, Note_on_c, 0, 77, 69
1, 87556, Control_c, 0, 64, 96
1, 87571, Control_c, 0, 64, 118
1, 87577, Note_off_c, 0, 77, 67
1, 87586, Control_c, 0, 64, 127
1, 87605, Note_on_c, 0, 57, 24
1, 87616, Note_on_c, 0, 77, 70
1, 87643, Note_off_c, 0, 57, 52
1, 87656, Note_off_c, 0, 77, 62
1, 87661, Note_on_c, 0, 72, 77
1, 87714, Note_off_c, 0, 72, 65
1, 87720, Control_c, 0, 64, 84
1, 87733, Note_on_c, 0, 84, 92
1, 87735, Control_c, 0, 64, 62
1, 87744, Note_on_c, 0, 74, 74
1, 87750, Control_c, 0, 64, 25
1, 87765, Control_c, 0, 64, 23
1, 87780, Control_c, 0, 64, 51
1, 87794, Note_off_c, 0, 84, 63
1, 87795, Control_c, 0, 64, 60
1, 87795, Note_off_c, 0, 74, 58
1, 87804, Note_on_c, 0, 77, 67
1, 87810, Control_c, 0, 64, 65
1, 87824, Control_c, 0, 64, 71
1, 87828, Note_off_c, 0, 77, 64
1, 87839, Control_c, 0, 64, 81
1, 87854, Control_c, 0, 64, 95
1, 87865, Note_on_c, 0, 65, 60
1, 87867, Note_on_c, 0, 78, 80
1, 87869, Control_c, 0, 64, 127
1, 87901, Note_off_c, 0, 78, 63
1, 87905, Note_off_c, 0, 65, 59
1, 87925, Note_on_c, 0, 72, 75
1, 87953, Note_off_c, 0, 72, 65
1, 87957, Control_c, 0, 64, 91
1, 87972, Control_c, 0, 64, 68
1, 87975, Note_on_c, 0, 75, 71
1, 87975, Note_on_c, 0, 84, 92
1, 87987, Control_c, 0, 64, 54
1, 88002, Control_c, 0, 64, 57
1, 88017, Control_c, 0, 64, 65
1, 88027, Note_on_c, 0, 78, 76
1, 88031, Control_c, 0, 64, 71
1, 88033, Note_off_c, 0, 84, 62
1, 88046, Control_c, 0, 64, 86
1, 88050, Note_off_c, 0, 78, 71
1, 88061, Control_c, 0, 64, 127
1, 88065, Note_off_c, 0, 75, 62
1, 88069, Note_on_c, 0, 66, 58
1, 88099, Note_on_c, 0, 78, 73
1, 88103, Note_off_c, 0, 66, 64
1, 88141, Note_off_c, 0, 78, 61
1, 88149, Note_on_c, 0, 72, 79
1, 88179, Control_c, 0, 64, 91
1, 88191, Note_off_c, 0, 72, 64
1, 88194, Control_c, 0, 64, 66
1, 88206, Note_on_c, 0, 57, 48
1, 88207, Note_on_c, 0, 84, 87
1, 88208, Note_on_c, 0, 69, 58
1, 88209, Control_c, 0, 64, 50
1, 88231, Control_c, 0, 64, 57
1, 88236, Note_off_c, 0, 69, 61
1, 88242, Note_off_c, 0, 57, 35
1, 88246, Control_c, 0, 64, 65
1, 88261, Control_c, 0, 64, 74
1, 88275, Note_off_c, 0, 84, 63
1, 88275, Control_c, 0, 64, 92
1, 88281, Note_on_c, 0, 79, 79
1, 88290, Control_c, 0, 64, 127
1, 88309, Note_off_c, 0, 79, 67
1, 88343, Note_on_c, 0, 79, 64
1, 88347, Note_on_c, 0, 75, 75
1, 88351, Note_on_c, 0, 67, 59
1, 88370, Note_off_c, 0, 79, 67
1, 88385, Note_on_c, 0, 72, 81
1, 88418, Note_off_c, 0, 75, 59
1, 88424, Control_c, 0, 64, 96
1, 88433, Note_off_c, 0, 72, 65
1, 88438, Note_off_c, 0, 67, 53
1, 88439, Control_c, 0, 64, 67
1, 88454, Control_c, 0, 64, 42
1, 88454, Note_on_c, 0, 83, 88
1, 88468, Note_on_c, 0, 78, 69
1, 88483, Control_c, 0, 64, 59
1, 88496, Note_off_c, 0, 83, 64
1, 88498, Control_c, 0, 64, 65
1, 88499, Note_off_c, 0, 78, 62
1, 88513, Control_c, 0, 64, 73
1, 88513, Note_on_c, 0, 71, 83
1, 88528, Control_c, 0, 64, 89
1, 88543, Control_c, 0, 64, 127
1, 88564, Note_off_c, 0, 71, 64
1, 88573, Note_on_c, 0, 74, 75
1, 88574, Note_on_c, 0, 66, 71
1, 88577, Note_on_c, 0, 84, 92
1, 88601, Note_off_c, 0, 74, 65
1, 88609, Note_off_c, 0, 66, 60
1, 88622, Note_off_c, 0, 84, 58
1, 88632, Note_on_c, 0, 72, 83
1, 88680, Note_off_c, 0, 72, 65
1, 88692, Control_c, 0, 64, 84
1, 88698, Note_on_c, 0, 83, 93
1, 88707, Control_c, 0, 64, 62
1, 88722, Control_c, 0, 64, 58
1, 88737, Control_c, 0, 64, 65
1, 88752, Control_c, 0, 64, 73
1, 88759, Note_on_c, 0, 77, 79
1, 88764, Note_off_c, 0, 83, 64
1, 88767, Control_c, 0, 64, 93
1, 88781, Control_c, 0, 64, 127
1, 88783, Note_off_c, 0, 77, 69
1, 88817, Note_on_c, 0, 77, 82
1, 88818, Note_on_c, 0, 73, 65
1, 88821, Note_on_c, 0, 65, 65
1, 88846, Note_off_c, 0, 73, 67
1, 88853, Note_off_c, 0, 65, 64
1, 88865, Note_off_c, 0, 77, 63
1, 88868, Note_on_c, 0, 71, 75
1, 88899, Control_c, 0, 64, 93
1, 88907, Note_off_c, 0, 71, 63
1, 88914, Control_c, 0, 64, 35
1, 88929, Control_c, 0, 64, 0
1, 88935, Note_on_c, 0, 83, 70
1, 88951, Note_on_c, 0, 81, 61
1, 88979, Note_off_c, 0, 81, 59
1, 88984, Note_off_c, 0, 83, 64
1, 89000, Note_on_c, 0, 75, 68
1, 89026, Note_off_c, 0, 75, 66
1, 89069, Note_on_c, 0, 63, 58
1, 89077, Note_on_c, 0, 75, 69
1, 89105, Note_off_c, 0, 63, 64
1, 89106, Note_off_c, 0, 75, 65
1, 89123, Note_on_c, 0, 71, 69
1, 89150, Note_off_c, 0, 71, 69
1, 89178, Note_on_c, 0, 81, 74
1, 89185, Note_on_c, 0, 72, 70
1, 89217, Note_off_c, 0, 72, 63
1, 89226, Note_off_c, 0, 81, 63
1, 89232, Note_on_c, 0, 76, 71
1, 89258, Note_off_c, 0, 76, 67
1, 89300, Note_on_c, 0, 64, 57
1, 89321, Poly_aftertouch_c, 0, 76, 0
1, 89342, Note_off_c, 0, 64, 61
1, 89345, Note_on_c, 0, 69, 71
1, 89372, Note_off_c, 0, 69, 68
1, 89411, Note_on_c, 0, 83, 84
1, 89427, Note_on_c, 0, 74, 62
1, 89441, Control_c, 0, 64, 35
1, 89456, Control_c, 0, 64, 57
1, 89465, Note_off_c, 0, 83, 63
1, 89470, Note_on_c, 0, 77, 69
1, 89470, Control_c, 0, 64, 64
1, 89485, Control_c, 0, 64, 70
1, 89488, Note_off_c, 0, 74, 53
1, 89500, Control_c, 0, 64, 81
1, 89510, Note_off_c, 0, 77, 0
1, 89515, Control_c, 0, 64, 111
1, 89530, Note_on_c, 0, 65, 54
1, 89530, Control_c, 0, 64, 127
1, 89552, Note_off_c, 0, 65, 62
1, 89560, Poly_aftertouch_c, 0, 77, 0
1, 89577, Note_on_c, 0, 71, 73
1, 89604, Control_c, 0, 64, 111
1, 89619, Control_c, 0, 64, 73
1, 89629, Note_off_c, 0, 71, 62
1, 89634, Control_c, 0, 64, 52
1, 89642, Note_on_c, 0, 83, 76
1, 89649, Control_c, 0, 64, 42
1, 89651, Note_on_c, 0, 57, 63
1, 89653, Note_on_c, 0, 69, 68
1, 89663, Control_c, 0, 64, 56
1, 89664, Note_on_c, 0, 81, 39
1, 89678, Control_c, 0, 64, 64
1, 89681, Note_off_c, 0, 57, 65
1, 89682, Note_off_c, 0, 69, 67
1, 89688, Note_off_c, 0, 83, 60
1, 89689, Note_off_c, 0, 81, 57
1, 89693, Control_c, 0, 64, 71
1, 89708, Control_c, 0, 64, 82
1, 89709, Note_on_c, 0, 71, 68
1, 89729, Control_c, 0, 64, 127
1, 89757, Note_off_c, 0, 71, 60
1, 89777, Note_on_c, 0, 78, 72
1, 89802, Note_on_c, 0, 66, 60
1, 89806, Note_on_c, 0, 74, 53
1, 89814, Note_off_c, 0, 78, 61
1, 89822, Note_on_c, 0, 71, 80
1, 89861, Note_off_c, 0, 74, 55
1, 89875, Note_off_c, 0, 66, 48
1, 89877, Note_off_c, 0, 71, 64
1, 89893, Note_on_c, 0, 84, 96
1, 89947, Note_on_c, 0, 72, 82
1, 89956, Note_off_c, 0, 84, 63
1, 90010, Note_on_c, 0, 79, 91
1, 90022, Note_on_c, 0, 75, 66
1, 90024, Note_off_c, 0, 72, 63
1, 90029, Note_on_c, 0, 67, 55
1, 90054, Note_off_c, 0, 79, 65
1, 90066, Note_off_c, 0, 67, 63
1, 90076, Note_on_c, 0, 72, 76
1, 90125, Note_off_c, 0, 75, 30
1, 90129, Note_off_c, 0, 72, 67
1, 90133, Note_on_c, 0, 85, 99
1, 90192, Note_off_c, 0, 85, 64
1, 90206, Note_on_c, 0, 73, 87
1, 90231, Note_on_c, 0, 76, 53
1, 90241, Note_on_c, 0, 68, 61
1, 90263, Note_on_c, 0, 80, 79
1, 90266, Note_off_c, 0, 76, 62
1, 90270, Note_off_c, 0, 73, 65
1, 90293, Note_off_c, 0, 68, 54
1, 90319, Note_off_c, 0, 80, 66
1, 90320, Note_on_c, 0, 73, 78
1, 90346, Note_off_c, 0, 73, 66
1, 90367, Control_c, 0, 64, 98
1, 90382, Control_c, 0, 64, 69
1, 90397, Control_c, 0, 64, 65
1, 90397, Note_on_c, 0, 62, 73
1, 90402, Note_on_c, 0, 86, 94
1, 90411, Control_c, 0, 64, 69
1, 90426, Control_c, 0, 64, 78
1, 90441, Control_c, 0, 64, 100
1, 90456, Control_c, 0, 64, 127
1, 90478, Note_on_c, 0, 81, 76
1, 90480, Note_off_c, 0, 86, 63
1, 90520, Note_off_c, 0, 62, 43
1, 90558, Note_on_c, 0, 80, 26
1, 90559, Note_off_c, 0, 80, 127
1, 90567, Note_on_c, 0, 74, 77
1, 90575, Note_off_c, 0, 81, 61
1, 90589, Note_on_c, 0, 77, 49
1, 90593, Note_on_c, 0, 69, 46
1, 90625, Note_off_c, 0, 74, 63
1, 90630, Note_off_c, 0, 77, 46
1, 90636, Note_on_c, 0, 84, 95
1, 90641, Control_c, 0, 64, 96
1, 90652, Note_off_c, 0, 69, 55
1, 90656, Control_c, 0, 64, 58
1, 90670, Control_c, 0, 64, 0
1, 90683, Note_off_c, 0, 84, 66
1, 90693, Note_on_c, 0, 72, 74
1, 90738, Note_off_c, 0, 72, 65
1, 90761, Note_on_c, 0, 86, 91
1, 90763, Note_on_c, 0, 68, 50
1, 90793, Note_off_c, 0, 68, 63
1, 90811, Note_on_c, 0, 74, 77
1, 90816, Note_off_c, 0, 86, 63
1, 90871, Note_off_c, 0, 74, 64
1, 90878, Note_on_c, 0, 64, 67
1, 90888, Note_on_c, 0, 84, 82
1, 90892, Control_c, 0, 64, 57
1, 90907, Control_c, 0, 64, 64
1, 90923, Control_c, 0, 64, 69
1, 90938, Note_off_c, 0, 84, 62
1, 90938, Control_c, 0, 64, 80
1, 90942, Note_on_c, 0, 80, 77
1, 90943, Note_off_c, 0, 64, 58
1, 90953, Control_c, 0, 64, 127
1, 90967, Note_off_c, 0, 80, 68
1, 90996, Note_on_c, 0, 76, 47
1, 91007, Note_on_c, 0, 68, 51
1, 91014, Note_on_c, 0, 80, 68
1, 91020, Note_off_c, 0, 76, 57
1, 91036, Note_off_c, 0, 68, 61
1, 91055, Note_on_c, 0, 72, 73
1, 91066, Note_off_c, 0, 80, 62
1, 91100, Note_off_c, 0, 72, 63
1, 91101, Control_c, 0, 64, 98
1, 91116, Control_c, 0, 64, 65
1, 91124, Note_on_c, 0, 84, 86
1, 91125, Note_on_c, 0, 60, 65
1, 91130, Control_c, 0, 64, 37
1, 91145, Control_c, 0, 64, 9
1, 91160, Control_c, 0, 64, 41
1, 91175, Control_c, 0, 64, 57
1, 91187, Note_on_c, 0, 79, 72
1, 91188, Note_off_c, 0, 84, 63
1, 91190, Control_c, 0, 64, 63
1, 91205, Control_c, 0, 64, 68
1, 91227, Control_c, 0, 64, 76
1, 91232, Note_off_c, 0, 79, 59
1, 91241, Control_c, 0, 64, 84
1, 91256, Control_c, 0, 64, 88
1, 91259, Note_on_c, 0, 78, 73
1, 91271, Note_on_c, 0, 67, 49
1, 91271, Control_c, 0, 64, 89
1, 91286, Control_c, 0, 64, 88
1, 91288, Note_off_c, 0, 60, 27
1, 91289, Note_on_c, 0, 75, 39
1, 91300, Control_c, 0, 64, 88
1, 91303, Note_on_c, 0, 72, 81
1, 91318, Note_off_c, 0, 78, 62
1, 91327, Note_off_c, 0, 75, 48
1, 91345, Control_c, 0, 64, 87
1, 91360, Control_c, 0, 64, 87
1, 91363, Note_off_c, 0, 67, 52
1, 91366, Note_off_c, 0, 72, 61
1, 91375, Note_on_c, 0, 83, 86
1, 91375, Control_c, 0, 64, 86
1, 91390, Control_c, 0, 64, 85
1, 91405, Control_c, 0, 64, 79
1, 91420, Control_c, 0, 64, 73
1, 91428, Note_off_c, 0, 83, 64
1, 91435, Control_c, 0, 64, 68
1, 91449, Control_c, 0, 64, 68
1, 91464, Control_c, 0, 64, 71
1, 91479, Control_c, 0, 64, 75
1, 91493, Note_on_c, 0, 66, 58
1, 91494, Control_c, 0, 64, 81
1, 91497, Note_on_c, 0, 75, 56
1, 91502, Note_on_c, 0, 72, 3
1, 91505, Note_on_c, 0, 84, 80
1, 91509, Note_on_c, 0, 86, 81
1, 91509, Control_c, 0, 64, 86
1, 91524, Control_c, 0, 64, 91
1, 91530, Poly_aftertouch_c, 0, 71, 0
1, 91530, Note_off_c, 0, 86, 71
1, 91533, Note_off_c, 0, 75, 50
1, 91539, Note_off_c, 0, 66, 54
1, 91539, Control_c, 0, 64, 92
1, 91546, Note_off_c, 0, 84, 64
1, 91553, Note_off_c, 0, 72, 0
1, 91568, Control_c, 0, 64, 90
1, 91569, Note_on_c, 0, 72, 45
1, 91583, Control_c, 0, 64, 79
1, 91598, Control_c, 0, 64, 64
1, 91598, Note_off_c, 0, 72, 64
1, 91613, Control_c, 0, 64, 43
1, 91622, Note_on_c, 0, 62, 52
1, 91628, Control_c, 0, 64, 24
1, 91630, Note_on_c, 0, 83, 91
1, 91642, Control_c, 0, 64, 43
1, 91657, Control_c, 0, 64, 57
1, 91672, Control_c, 0, 64, 64
1, 91679, Note_off_c, 0, 62, 56
1, 91687, Control_c, 0, 64, 71
1, 91688, Note_off_c, 0, 83, 64
1, 91694, Note_on_c, 0, 77, 73
1, 91701, Control_c, 0, 64, 82
1, 91718, Control_c, 0, 64, 111
1, 91733, Control_c, 0, 64, 127
1, 91741, Note_on_c, 0, 65, 50
1, 91749, Note_off_c, 0, 77, 0
1, 91777, Note_on_c, 0, 76, 38
1, 91786, Poly_aftertouch_c, 0, 77, 127
1, 91806, Note_off_c, 0, 76, 53
1, 91809, Poly_aftertouch_c, 0, 77, 0
1, 91821, Note_on_c, 0, 71, 70
1, 91829, Note_off_c, 0, 65, 56
1, 91902, Note_on_c, 0, 57, 63
1, 91914, Note_off_c, 0, 71, 60
1, 91924, Control_c, 0, 64, 94
1, 91939, Control_c, 0, 64, 69
1, 91954, Control_c, 0, 64, 41
1, 91971, Note_on_c, 0, 82, 68
1, 91977, Control_c, 0, 64, 0
1, 92006, Control_c, 0, 64, 32
1, 92021, Control_c, 0, 64, 52
1, 92036, Control_c, 0, 64, 62
1, 92051, Control_c, 0, 64, 69
1, 92060, Note_on_c, 0, 75, 61
1, 92066, Control_c, 0, 64, 77
1, 92078, Note_off_c, 0, 82, 60
1, 92080, Control_c, 0, 64, 89
1, 92085, Note_off_c, 0, 57, 39
1, 92095, Control_c, 0, 64, 104
1, 92099, Note_off_c, 0, 75, 63
1, 92099, Note_on_c, 0, 67, 58
1, 92110, Control_c, 0, 64, 127
1, 92138, Note_on_c, 0, 74, 46
1, 92138, Note_off_c, 0, 67, 61
1, 92162, Note_off_c, 0, 74, 58
1, 92174, Note_on_c, 0, 73, 68
1, 92207, Note_off_c, 0, 73, 63
1, 92231, Note_on_c, 0, 81, 79
1, 92233, Note_on_c, 0, 72, 71
1, 92269, Note_off_c, 0, 72, 61
1, 92302, Note_on_c, 0, 73, 72
1, 92317, Note_off_c, 0, 81, 62
1, 92341, Note_off_c, 0, 73, 62
1, 92348, Note_on_c, 0, 65, 54
1, 92359, Note_on_c, 0, 69, 74
1, 92385, Note_off_c, 0, 65, 64
1, 92405, Note_off_c, 0, 69, 59
1, 92433, Note_on_c, 0, 73, 66
1, 92451, Control_c, 0, 64, 113
1, 92465, Control_c, 0, 64, 83
1, 92466, Note_off_c, 0, 73, 65
1, 92469, Note_on_c, 0, 72, 67
1, 92474, Note_on_c, 0, 81, 77
1, 92480, Control_c, 0, 64, 66
1, 92495, Control_c, 0, 64, 60
1, 92511, Control_c, 0, 64, 64
1, 92518, Note_off_c, 0, 72, 59
1, 92526, Control_c, 0, 64, 70
1, 92534, Note_on_c, 0, 73, 73
1, 92540, Control_c, 0, 64, 80
1, 92547, Note_off_c, 0, 81, 61
1, 92555, Control_c, 0, 64, 102
1, 92560, Note_off_c, 0, 73, 66
1, 92570, Control_c, 0, 64, 127
1, 92591, Note_on_c, 0, 69, 76
1, 92591, Note_on_c, 0, 64, 38
1, 92620, Note_off_c, 0, 64, 55
1, 92638, Note_off_c, 0, 69, 61
1, 92647, Note_on_c, 0, 73, 64
1, 92663, Note_off_c, 0, 73, 66
1, 92696, Note_on_c, 0, 72, 73
1, 92703, Control_c, 0, 64, 62
1, 92725, Control_c, 0, 64, 0
1, 92725, Control_c, 0, 67, 9
1, 92746, Note_on_c, 0, 84, 62
1, 92755, Control_c, 0, 67, 0
1, 92763, Note_off_c, 0, 72, 60
1, 92764, Note_off_c, 0, 84, 64
1, 92770, Note_on_c, 0, 73, 56
1, 92802, Poly_aftertouch_c, 0, 64, 0
1, 92830, Note_off_c, 0, 73, 65
1, 92832, Poly_aftertouch_c, 0, 83, 0
1, 92833, Note_on_c, 0, 96, 84
1, 92839, Note_on_c, 0, 74, 77
1, 92854, Note_on_c, 0, 90, 59
1, 92874, Note_off_c, 0, 90, 61
1, 92879, Note_off_c, 0, 96, 64
1, 92883, Note_off_c, 0, 74, 53
1, 92906, Note_on_c, 0, 75, 78
1, 92960, Note_on_c, 0, 95, 85
1, 92961, Note_off_c, 0, 75, 61
1, 92965, Note_on_c, 0, 90, 65
1, 92970, Note_on_c, 0, 78, 83
1, 92996, Note_off_c, 0, 95, 63
1, 93002, Note_off_c, 0, 78, 65
1, 93002, Note_off_c, 0, 90, 59
1, 93023, Note_on_c, 0, 77, 87
1, 93069, Note_on_c, 0, 83, 77
1, 93082, Note_off_c, 0, 77, 61
1, 93105, Note_on_c, 0, 76, 65
1, 93106, Note_off_c, 0, 83, 67
1, 93134, Note_off_c, 0, 76, 66
1, 93136, Note_on_c, 0, 75, 72
1, 93161, Note_off_c, 0, 75, 68
1, 93187, Note_on_c, 0, 82, 81
1, 93192, Note_on_c, 0, 74, 86
1, 93209, Note_on_c, 0, 94, 60
1, 93229, Control_c, 0, 67, 8
1, 93229, Note_off_c, 0, 94, 59
1, 93232, Note_off_c, 0, 74, 61
1, 93240, Note_off_c, 0, 82, 64
1, 93262, Note_on_c, 0, 73, 70
1, 93273, Control_c, 0, 67, 0
1, 93288, Control_c, 0, 64, 43
1, 93291, Note_off_c, 0, 73, 66
1, 93292, Note_on_c, 0, 94, 96
1, 93303, Control_c, 0, 64, 65
1, 93315, Note_on_c, 0, 72, 76
1, 93318, Control_c, 0, 64, 74
1, 93332, Note_off_c, 0, 94, 62
1, 93333, Control_c, 0, 64, 98
1, 93348, Control_c, 0, 64, 127
1, 93369, Note_off_c, 0, 72, 65
1, 93378, Note_on_c, 0, 62, 64
1, 93409, Note_off_c, 0, 62, 65
1, 93504, Control_c, 0, 64, 85
1, 93511, Note_on_c, 0, 55, 61
1, 93513, Note_on_c, 0, 80, 90
1, 93518, Control_c, 0, 64, 61
1, 93533, Control_c, 0, 64, 0
1, 93542, Note_on_c, 0, 63, 52
1, 93563, Control_c, 0, 64, 31
1, 93578, Control_c, 0, 64, 55
1, 93593, Control_c, 0, 64, 63
1, 93608, Control_c, 0, 64, 70
1, 93617, Note_on_c, 0, 73, 61
1, 93622, Control_c, 0, 64, 79
1, 93637, Control_c, 0, 64, 92
1, 93650, Control_c, 0, 64, 101
1, 93652, Note_off_c, 0, 55, 42
1, 93652, Note_off_c, 0, 63, 48
1, 93653, Note_off_c, 0, 80, 59
1, 93654, Note_off_c, 0, 73, 63
1, 93665, Control_c, 0, 64, 104
1, 93679, Note_on_c, 0, 72, 57
1, 93705, Note_on_c, 0, 65, 45
1, 93710, Control_c, 0, 64, 105
1, 93723, Note_off_c, 0, 72, 55
1, 93724, Control_c, 0, 64, 107
1, 93731, Note_off_c, 0, 65, 56
1, 93733, Note_on_c, 0, 71, 69
1, 93739, Control_c, 0, 64, 108
1, 93782, Note_off_c, 0, 71, 61
1, 93792, Note_on_c, 0, 79, 84
1, 93798, Control_c, 0, 64, 108
1, 93808, Note_on_c, 0, 70, 75
1, 93828, Control_c, 0, 64, 108
1, 93843, Control_c, 0, 64, 111
1, 93852, Note_off_c, 0, 70, 56
1, 93858, Control_c, 0, 64, 118
1, 93858, Note_on_c, 0, 71, 69
1, 93873, Control_c, 0, 64, 127
1, 93873, Control_c, 0, 67, 8
1, 93884, Note_off_c, 0, 79, 51
1, 93887, Control_c, 0, 67, 9
1, 93902, Control_c, 0, 67, 9
1, 93911, Note_off_c, 0, 71, 63
1, 93917, Control_c, 0, 67, 11
1, 93929, Note_on_c, 0, 63, 56
1, 93932, Control_c, 0, 67, 11
1, 93936, Note_on_c, 0, 67, 67
1, 93947, Control_c, 0, 67, 14
1, 93961, Control_c, 0, 67, 21
1, 93975, Note_off_c, 0, 67, 56
1, 93976, Control_c, 0, 67, 38
1, 93981, Note_off_c, 0, 63, 56
1, 93991, Control_c, 0, 67, 56
1, 93992, Note_on_c, 0, 71, 60
1, 94006, Control_c, 0, 67, 70
1, 94021, Control_c, 0, 64, 94
1, 94021, Control_c, 0, 67, 77
1, 94032, Note_off_c, 0, 71, 63
1, 94035, Control_c, 0, 64, 69
1, 94035, Control_c, 0, 67, 78
1, 94039, Note_on_c, 0, 70, 64
1, 94039, Note_on_c, 0, 79, 75
1, 94050, Control_c, 0, 64, 53
1, 94050, Control_c, 0, 67, 78
1, 94065, Control_c, 0, 64, 54
1, 94065, Control_c, 0, 67, 79
1, 94080, Control_c, 0, 64, 62
1, 94080, Control_c, 0, 67, 80
1, 94087, Note_off_c, 0, 70, 52
1, 94094, Control_c, 0, 64, 68
1, 94094, Control_c, 0, 67, 80
1, 94101, Note_on_c, 0, 71, 65
1, 94111, Control_c, 0, 64, 75
1, 94111, Control_c, 0, 67, 81
1, 94121, Note_off_c, 0, 79, 60
1, 94126, Control_c, 0, 64, 91
1, 94126, Control_c, 0, 67, 82
1, 94134, Note_off_c, 0, 71, 66
1, 94140, Control_c, 0, 64, 127
1, 94140, Control_c, 0, 67, 82
1, 94147, Note_on_c, 0, 62, 55
1, 94155, Control_c, 0, 67, 83
1, 94162, Note_on_c, 0, 67, 75
1, 94170, Control_c, 0, 67, 84
1, 94186, Note_off_c, 0, 62, 62
1, 94199, Control_c, 0, 67, 85
1, 94213, Note_off_c, 0, 67, 62
1, 94222, Control_c, 0, 67, 84
1, 94222, Note_on_c, 0, 71, 52
1, 94237, Control_c, 0, 67, 83
1, 94243, Note_off_c, 0, 71, 62
1, 94266, Control_c, 0, 64, 90
1, 94281, Control_c, 0, 64, 59
1, 94286, Note_on_c, 0, 60, 63
1, 94286, Note_on_c, 0, 70, 71
1, 94296, Control_c, 0, 64, 0
1, 94296, Control_c, 0, 67, 82
1, 94311, Control_c, 0, 67, 80
1, 94314, Note_on_c, 0, 82, 68
1, 94316, Note_off_c, 0, 60, 65
1, 94323, Note_off_c, 0, 70, 59
1, 94325, Control_c, 0, 67, 78
1, 94340, Control_c, 0, 67, 78
1, 94349, Note_off_c, 0, 82, 65
1, 94363, Note_on_c, 0, 71, 14
1, 94384, Control_c, 0, 67, 77
1, 94388, Note_off_c, 0, 71, 46
1, 94400, Note_on_c, 0, 72, 31
1, 94412, Note_on_c, 0, 94, 48
1, 94434, Note_on_c, 0, 88, 59
1, 94444, Control_c, 0, 67, 77
1, 94453, Note_off_c, 0, 72, 62
1, 94459, Control_c, 0, 67, 75
1, 94464, Note_off_c, 0, 88, 65
1, 94473, Control_c, 0, 67, 75
1, 94476, Note_on_c, 0, 73, 61
1, 94483, Note_off_c, 0, 94, 64
1, 94508, Note_off_c, 0, 73, 66
1, 94517, Control_c, 0, 67, 76
1, 94529, Note_on_c, 0, 76, 74
1, 94532, Control_c, 0, 67, 77
1, 94537, Note_on_c, 0, 88, 70
1, 94545, Note_on_c, 0, 93, 70
1, 94569, Note_off_c, 0, 76, 64
1, 94578, Note_off_c, 0, 93, 60
1, 94579, Note_off_c, 0, 88, 62
1, 94605, Note_on_c, 0, 75, 64
1, 94606, Control_c, 0, 67, 77
1, 94621, Control_c, 0, 67, 78
1, 94636, Note_off_c, 0, 75, 65
1, 94636, Control_c, 0, 67, 78
1, 94646, Note_on_c, 0, 81, 67
1, 94670, Note_on_c, 0, 74, 67
1, 94687, Note_off_c, 0, 81, 66
1, 94699, Note_off_c, 0, 74, 64
1, 94725, Control_c, 0, 67, 77
1, 94740, Control_c, 0, 64, 16
1, 94755, Control_c, 0, 64, 56
1, 94755, Control_c, 0, 67, 77
1, 94761, Note_on_c, 0, 73, 48
1, 94770, Control_c, 0, 64, 64
1, 94770, Control_c, 0, 67, 76
1, 94776, Note_on_c, 0, 80, 73
1, 94784, Control_c, 0, 64, 70
1, 94784, Control_c, 0, 67, 75
1, 94785, Note_off_c, 0, 73, 58
1, 94799, Control_c, 0, 64, 78
1, 94799, Control_c, 0, 67, 74
1, 94811, Note_on_c, 0, 72, 71
1, 94814, Control_c, 0, 64, 92
1, 94829, Control_c, 0, 64, 127
1, 94829, Control_c, 0, 67, 73
1, 94841, Note_off_c, 0, 80, 60
1, 94844, Note_off_c, 0, 72, 59
1, 94844, Control_c, 0, 67, 73
1, 94858, Control_c, 0, 67, 72
1, 94869, Note_on_c, 0, 71, 64
1, 94883, Note_on_c, 0, 92, 92
1, 94888, Control_c, 0, 67, 72
1, 94897, Note_off_c, 0, 71, 67
1, 94919, Note_on_c, 0, 70, 45
1, 94930, Note_on_c, 0, 60, 55
1, 94930, Note_off_c, 0, 92, 64
1, 94944, Note_off_c, 0, 70, 57
1, 94967, Note_off_c, 0, 60, 65
1, 94970, Control_c, 0, 67, 71
1, 94985, Control_c, 0, 67, 70
1, 95029, Control_c, 0, 67, 70
1, 95044, Control_c, 0, 67, 72
1, 95059, Control_c, 0, 67, 73
1, 95074, Control_c, 0, 67, 75
1, 95089, Control_c, 0, 67, 75
1, 95102, Note_on_c, 0, 53, 27
1, 95119, Control_c, 0, 67, 76
1, 95123, Note_on_c, 0, 61, 30
1, 95131, Note_on_c, 0, 55, 29
1, 95133, Control_c, 0, 64, 84
1, 95146, Note_on_c, 0, 78, 82
1, 95149, Control_c, 0, 64, 64
1, 95149, Control_c, 0, 67, 77
1, 95164, Control_c, 0, 64, 38
1, 95167, Note_off_c, 0, 55, 46
1, 95179, Control_c, 0, 64, 0
1, 95179, Control_c, 0, 67, 78
1, 95193, Control_c, 0, 64, 33
1, 95193, Control_c, 0, 67, 78
1, 95208, Control_c, 0, 64, 54
1, 95208, Control_c, 0, 67, 79
1, 95223, Control_c, 0, 64, 63
1, 95238, Control_c, 0, 64, 68
1, 95253, Control_c, 0, 64, 75
1, 95253, Control_c, 0, 67, 80
1, 95264, Note_on_c, 0, 71, 58
1, 95268, Control_c, 0, 64, 86
1, 95268, Control_c, 0, 67, 82
1, 95282, Control_c, 0, 64, 101
1, 95282, Control_c, 0, 67, 82
1, 95292, Note_off_c, 0, 53, 51
1, 95297, Control_c, 0, 64, 127
1, 95297, Control_c, 0, 67, 83
1, 95312, Control_c, 0, 67, 84
1, 95327, Control_c, 0, 67, 85
1, 95330, Note_off_c, 0, 78, 53
1, 95331, Note_off_c, 0, 71, 59
1, 95335, Note_on_c, 0, 70, 60
1, 95342, Control_c, 0, 67, 85
1, 95357, Control_c, 0, 67, 87
1, 95372, Control_c, 0, 67, 88
1, 95381, Note_on_c, 0, 63, 42
1, 95387, Control_c, 0, 67, 90
1, 95402, Control_c, 0, 67, 99
1, 95405, Note_on_c, 0, 69, 64
1, 95411, Note_off_c, 0, 61, 41
1, 95411, Note_off_c, 0, 70, 58
1, 95416, Control_c, 0, 67, 114
1, 95431, Control_c, 0, 67, 125
1, 95436, Note_off_c, 0, 63, 56
1, 95441, Note_off_c, 0, 69, 60
1, 95446, Control_c, 0, 67, 127
1, 95478, Note_on_c, 0, 77, 92
1, 95497, Note_on_c, 0, 68, 70
1, 95559, Note_on_c, 0, 69, 79
1, 95568, Note_off_c, 0, 68, 55
1, 95624, Note_off_c, 0, 69, 62
1, 95641, Note_on_c, 0, 61, 53
1, 95642, Note_on_c, 0, 65, 75
1, 95694, Note_off_c, 0, 77, 34
1, 95725, Note_on_c, 0, 69, 85
1, 95732, Note_off_c, 0, 61, 52
1, 95734, Note_off_c, 0, 65, 61
1, 95801, Note_on_c, 0, 77, 109
1, 95814, Note_on_c, 0, 68, 66
1, 95819, Note_off_c, 0, 69, 64
1, 95874, Note_off_c, 0, 68, 57
1, 95895, Note_on_c, 0, 69, 83
1, 95960, Note_on_c, 0, 60, 48
1, 95977, Note_off_c, 0, 69, 62
1, 95977, Note_on_c, 0, 65, 75
1, 95984, Note_off_c, 0, 60, 60
1, 96061, Note_off_c, 0, 77, 58
1, 96064, Note_on_c, 0, 69, 82
1, 96178, Note_off_c, 0, 65, 58
1, 96179, Control_c, 0, 64, 85
1, 96181, Note_on_c, 0, 38, 74
1, 96183, Note_off_c, 0, 69, 62
1, 96194, Control_c, 0, 64, 59
1, 96209, Control_c, 0, 64, 0
1, 96216, Note_on_c, 0, 77, 91
1, 96222, Note_on_c, 0, 74, 72
1, 96253, Control_c, 0, 64, 42
1, 96268, Control_c, 0, 64, 58
1, 96281, Note_off_c, 0, 38, 63
1, 96283, Control_c, 0, 64, 65
1, 96298, Control_c, 0, 64, 73
1, 96302, Note_on_c, 0, 70, 74
1, 96308, Note_off_c, 0, 77, 57
1, 96312, Control_c, 0, 64, 87
1, 96318, Note_off_c, 0, 74, 59
1, 96327, Control_c, 0, 64, 107
1, 96342, Control_c, 0, 64, 127
1, 96365, Note_off_c, 0, 70, 62
1, 96373, Note_on_c, 0, 65, 72
1, 96394, Note_on_c, 0, 62, 73
1, 96395, Note_on_c, 0, 58, 74
1, 96452, Note_off_c, 0, 65, 62
1, 96470, Note_on_c, 0, 70, 65
1, 96508, Note_on_c, 0, 76, 78
1, 96543, Note_off_c, 0, 62, 57
1, 96588, Note_off_c, 0, 76, 64
1, 96595, Note_off_c, 0, 70, 49
1, 96603, Note_off_c, 0, 58, 49
1, 96653, Note_on_c, 0, 57, 67
1, 96658, Note_on_c, 0, 77, 81
1, 96671, Poly_aftertouch_c, 0, 69, 127
1, 96675, Note_on_c, 0, 76, 64
1, 96680, Note_off_c, 0, 57, 67
1, 96699, Note_off_c, 0, 76, 57
1, 96702, Poly_aftertouch_c, 0, 69, 0
1, 96708, Note_off_c, 0, 77, 64
1, 96750, Control_c, 0, 64, 107
1, 96764, Poly_aftertouch_c, 0, 74, 0
1, 96765, Control_c, 0, 64, 87
1, 96766, Poly_aftertouch_c, 0, 72, 0
1, 96780, Control_c, 0, 64, 76
1, 96787, Note_on_c, 0, 76, 76
1, 96791, Note_on_c, 0, 72, 34
1, 96794, Note_on_c, 0, 56, 77
1, 96794, Control_c, 0, 64, 75
1, 96809, Control_c, 0, 64, 84
1, 96824, Control_c, 0, 64, 99
1, 96839, Control_c, 0, 64, 127
1, 96845, Note_on_c, 0, 68, 76
1, 96855, Note_off_c, 0, 72, 60
1, 96860, Note_off_c, 0, 56, 64
1, 96864, Note_off_c, 0, 76, 63
1, 96903, Note_off_c, 0, 68, 63
1, 96907, Note_on_c, 0, 64, 69
1, 96923, Note_on_c, 0, 40, 62
1, 96969, Note_off_c, 0, 40, 64
1, 96979, Note_on_c, 0, 68, 73
1, 96986, Note_off_c, 0, 64, 59
1, 97002, Control_c, 0, 64, 90
1, 97017, Control_c, 0, 64, 64
1, 97032, Control_c, 0, 64, 0
1, 97060, Note_on_c, 0, 75, 86
1, 97062, Note_off_c, 0, 68, 62
1, 97069, Note_on_c, 0, 72, 61
1, 97082, Note_on_c, 0, 35, 47
1, 97091, Control_c, 0, 64, 44
1, 97099, Note_on_c, 0, 36, 42
1, 97105, Control_c, 0, 64, 62
1, 97115, Note_off_c, 0, 35, 49
1, 97120, Control_c, 0, 64, 70
1, 97135, Control_c, 0, 64, 81
1, 97136, Note_on_c, 0, 67, 75
1, 97136, Note_off_c, 0, 36, 44
1, 97150, Control_c, 0, 64, 102
1, 97165, Control_c, 0, 64, 127
1, 97182, Note_off_c, 0, 75, 58
1, 97200, Note_on_c, 0, 63, 70
1, 97211, Note_off_c, 0, 67, 62
1, 97231, Note_off_c, 0, 72, 29
1, 97263, Note_on_c, 0, 56, 53
1, 97263, Note_off_c, 0, 63, 61
1, 97266, Note_on_c, 0, 60, 49
1, 97269, Note_on_c, 0, 67, 48
1, 97334, Note_on_c, 0, 71, 68
1, 97345, Note_off_c, 0, 60, 51
1, 97345, Note_off_c, 0, 67, 61
1, 97348, Note_on_c, 0, 74, 79
1, 97405, Note_off_c, 0, 71, 64
1, 97406, Note_off_c, 0, 56, 54
1, 97417, Note_on_c, 0, 68, 73
1, 97420, Note_off_c, 0, 74, 63
1, 97485, Note_on_c, 0, 55, 58
1, 97504, Note_on_c, 0, 75, 84
1, 97516, Note_off_c, 0, 55, 65
1, 97522, Note_off_c, 0, 68, 56
1, 97564, Note_off_c, 0, 75, 61
1, 97603, Control_c, 0, 64, 118
1, 97617, Control_c, 0, 64, 113
1, 97632, Control_c, 0, 64, 107
1, 97638, Note_on_c, 0, 74, 77
1, 97643, Note_on_c, 0, 70, 72
1, 97647, Control_c, 0, 64, 104
1, 97656, Note_on_c, 0, 54, 59
1, 97662, Control_c, 0, 64, 104
1, 97691, Control_c, 0, 64, 104
1, 97714, Note_off_c, 0, 54, 62
1, 97731, Note_on_c, 0, 66, 71
1, 97734, Note_off_c, 0, 74, 63
1, 97751, Note_off_c, 0, 70, 59
1, 97786, Note_on_c, 0, 38, 52
1, 97790, Note_off_c, 0, 66, 63
1, 97810, Note_on_c, 0, 62, 63
1, 97810, Control_c, 0, 64, 103
1, 97825, Control_c, 0, 64, 101
1, 97832, Note_off_c, 0, 38, 58
1, 97840, Control_c, 0, 64, 99
1, 97855, Control_c, 0, 64, 97
1, 97867, Note_on_c, 0, 66, 67
1, 97870, Control_c, 0, 64, 94
1, 97884, Control_c, 0, 64, 92
1, 97885, Note_off_c, 0, 62, 59
1, 97899, Control_c, 0, 64, 89
1, 97914, Control_c, 0, 64, 86
1, 97928, Control_c, 0, 64, 81
1, 97943, Control_c, 0, 64, 70
1, 97948, Note_on_c, 0, 34, 60
1, 97948, Note_off_c, 0, 66, 57
1, 97966, Control_c, 0, 64, 55
1, 97981, Control_c, 0, 64, 0
1, 97992, Note_on_c, 0, 73, 76
1, 98007, Note_on_c, 0, 70, 64
1, 98047, Note_off_c, 0, 34, 62
1, 98055, Control_c, 0, 64, 46
1, 98070, Control_c, 0, 64, 62
1, 98076, Note_on_c, 0, 65, 57
1, 98084, Control_c, 0, 64, 69
1, 98098, Note_off_c, 0, 73, 52
1, 98099, Control_c, 0, 64, 77
1, 98115, Control_c, 0, 64, 88
1, 98130, Control_c, 0, 64, 98
1, 98145, Control_c, 0, 64, 101
1, 98149, Note_off_c, 0, 65, 62
1, 98158, Note_on_c, 0, 61, 70
1, 98174, Control_c, 0, 64, 100
1, 98194, Note_off_c, 0, 70, 28
1, 98195, Note_on_c, 0, 58, 56
1, 98205, Note_on_c, 0, 54, 44
1, 98219, Note_off_c, 0, 61, 61
1, 98222, Note_on_c, 0, 65, 60
1, 98233, Control_c, 0, 64, 100
1, 98261, Note_off_c, 0, 58, 44
1, 98263, Control_c, 0, 64, 100
1, 98293, Control_c, 0, 64, 99
1, 98299, Note_on_c, 0, 72, 71
1, 98307, Control_c, 0, 64, 97
1, 98317, Note_off_c, 0, 65, 59
1, 98318, Note_on_c, 0, 69, 61
1, 98322, Control_c, 0, 64, 94
1, 98337, Control_c, 0, 64, 94
1, 98362, Note_off_c, 0, 72, 62
1, 98371, Note_off_c, 0, 69, 57
1, 98381, Control_c, 0, 64, 93
1, 98386, Note_off_c, 0, 54, 40
1, 98396, Control_c, 0, 64, 92
1, 98400, Note_on_c, 0, 65, 62
1, 98411, Control_c, 0, 64, 91
1, 98426, Control_c, 0, 64, 90
1, 98440, Control_c, 0, 64, 89
1, 98450, Note_on_c, 0, 53, 56
1, 98455, Note_off_c, 0, 65, 54
1, 98455, Control_c, 0, 64, 88
1, 98470, Note_on_c, 0, 73, 75
1, 98470, Control_c, 0, 64, 88
1, 98482, Note_off_c, 0, 53, 61
1, 98485, Control_c, 0, 64, 87
1, 98500, Control_c, 0, 64, 87
1, 98514, Control_c, 0, 64, 86
1, 98529, Control_c, 0, 64, 85
1, 98538, Note_on_c, 0, 65, 38
1, 98544, Control_c, 0, 64, 85
1, 98559, Control_c, 0, 64, 83
1, 98574, Control_c, 0, 64, 82
1, 98574, Note_off_c, 0, 73, 61
1, 98589, Control_c, 0, 64, 81
1, 98604, Control_c, 0, 64, 80
1, 98610, Note_off_c, 0, 65, 57
1, 98618, Control_c, 0, 64, 80
1, 98633, Control_c, 0, 64, 79
1, 98639, Note_on_c, 0, 52, 55
1, 98648, Control_c, 0, 64, 78
1, 98663, Control_c, 0, 64, 74
1, 98666, Note_on_c, 0, 72, 72
1, 98678, Control_c, 0, 64, 66
1, 98691, Note_on_c, 0, 68, 54
1, 98693, Control_c, 0, 64, 52
1, 98714, Control_c, 0, 64, 0
1, 98788, Control_c, 0, 64, 47
1, 98803, Control_c, 0, 64, 62
1, 98806, Note_on_c, 0, 64, 59
1, 98818, Control_c, 0, 64, 66
1, 98833, Control_c, 0, 64, 70
1, 98848, Control_c, 0, 64, 75
1, 98863, Control_c, 0, 64, 80
1, 98878, Control_c, 0, 64, 85
1, 98893, Control_c, 0, 64, 88
1, 98924, Control_c, 0, 64, 87
1, 98930, Note_on_c, 0, 40, 49
1, 98936, Note_off_c, 0, 52, 55
1, 98938, Control_c, 0, 64, 85
1, 98949, Note_off_c, 0, 64, 57
1, 98953, Note_on_c, 0, 60, 69
1, 98953, Control_c, 0, 64, 77
1, 98968, Control_c, 0, 64, 67
1, 98982, Control_c, 0, 64, 61
1, 98997, Control_c, 0, 64, 63
1, 99012, Control_c, 0, 64, 67
1, 99020, Note_off_c, 0, 40, 63
1, 99027, Control_c, 0, 64, 73
1, 99042, Control_c, 0, 64, 84
1, 99057, Control_c, 0, 64, 93
1, 99069, Note_on_c, 0, 64, 69
1, 99072, Control_c, 0, 64, 99
1, 99086, Control_c, 0, 64, 101
1, 99101, Control_c, 0, 64, 107
1, 99116, Control_c, 0, 64, 127
1, 99164, Note_off_c, 0, 72, 38
1, 99246, Note_on_c, 0, 33, 54
1, 99309, Control_c, 0, 64, 107
1, 99324, Control_c, 0, 64, 92
1, 99338, Control_c, 0, 64, 79
1, 99353, Control_c, 0, 64, 66
1, 99368, Control_c, 0, 64, 39
1, 99382, Control_c, 0, 64, 0
1, 99399, Note_on_c, 0, 72, 70
1, 99410, Note_on_c, 0, 69, 52
1, 99450, Note_off_c, 0, 64, 50
1, 99494, Note_off_c, 0, 68, 35
1, 99494, Control_c, 0, 64, 41
1, 99504, Note_off_c, 0, 60, 33
1, 99509, Control_c, 0, 64, 61
1, 99524, Control_c, 0, 64, 71
1, 99538, Control_c, 0, 64, 86
1, 99553, Control_c, 0, 64, 127
1, 99581, Note_off_c, 0, 33, 62
1, 99674, Note_on_c, 0, 64, 45
1, 99775, Note_off_c, 0, 69, 30
1, 99802, Note_on_c, 0, 52, 67
1, 99841, Note_on_c, 0, 60, 53
1, 99907, Note_off_c, 0, 64, 32
1, 99990, Note_on_c, 0, 57, 78
1, 100017, Note_off_c, 0, 60, 51
1, 100026, Note_on_c, 0, 69, 58
1, 100027, Note_off_c, 0, 52, 62
1, 100039, Note_on_c, 0, 55, 25
1, 100081, Note_off_c, 0, 55, 49
1, 100117, Note_on_c, 0, 52, 84
1, 100130, Note_off_c, 0, 57, 65
1, 100231, Note_off_c, 0, 69, 30
1, 100235, Note_on_c, 0, 60, 85
1, 100286, Note_off_c, 0, 52, 60
1, 100343, Note_on_c, 0, 64, 83
1, 100353, Note_off_c, 0, 60, 64
1, 100361, Control_c, 0, 64, 121
1, 100376, Note_on_c, 0, 69, 70
1, 100376, Control_c, 0, 64, 118
1, 100390, Control_c, 0, 64, 115
1, 100416, Note_off_c, 0, 64, 54
1, 100419, Note_off_c, 0, 69, 52
1, 100419, Control_c, 0, 64, 114
1, 100434, Note_off_c, 0, 72, 58
1, 100446, Note_on_c, 0, 60, 88
1, 100464, Control_c, 0, 64, 115
1, 100554, Control_c, 0, 64, 114
1, 100559, Note_on_c, 0, 69, 86
1, 100569, Control_c, 0, 64, 113
1, 100598, Control_c, 0, 64, 111
1, 100613, Control_c, 0, 64, 110
1, 100628, Control_c, 0, 64, 107
1, 100628, Control_c, 0, 67, 125
1, 100643, Control_c, 0, 64, 105
1, 100643, Control_c, 0, 67, 123
1, 100657, Control_c, 0, 64, 104
1, 100657, Control_c, 0, 67, 121
1, 100672, Control_c, 0, 64, 102
1, 100672, Control_c, 0, 67, 119
1, 100687, Control_c, 0, 64, 99
1, 100687, Control_c, 0, 67, 118
1, 100699, Note_on_c, 0, 68, 77
1, 100702, Control_c, 0, 64, 96
1, 100702, Control_c, 0, 67, 117
1, 100704, Note_on_c, 0, 63, 71
1, 100717, Control_c, 0, 64, 92
1, 100717, Control_c, 0, 67, 115
1, 100732, Control_c, 0, 64, 88
1, 100732, Control_c, 0, 67, 114
1, 100747, Control_c, 0, 64, 84
1, 100747, Control_c, 0, 67, 112
1, 100762, Control_c, 0, 64, 81
1, 100762, Control_c, 0, 67, 110
1, 100776, Control_c, 0, 64, 78
1, 100776, Control_c, 0, 67, 108
1, 100785, Note_off_c, 0, 69, 47
1, 100791, Control_c, 0, 64, 74
1, 100791, Control_c, 0, 67, 106
1, 100806, Control_c, 0, 64, 69
1, 100806, Control_c, 0, 67, 105
1, 100820, Control_c, 0, 64, 65
1, 100820, Control_c, 0, 67, 105
1, 100835, Control_c, 0, 64, 64
1, 100850, Control_c, 0, 64, 64
1, 100865, Control_c, 0, 64, 64
1, 100880, Control_c, 0, 64, 62
1, 100894, Control_c, 0, 64, 59
1, 100902, Note_on_c, 0, 87, 90
1, 100907, Note_on_c, 0, 84, 86
1, 100909, Control_c, 0, 64, 53
1, 100909, Control_c, 0, 67, 105
1, 100911, Note_on_c, 0, 80, 79
1, 100924, Control_c, 0, 64, 44
1, 100939, Control_c, 0, 64, 0
1, 100939, Control_c, 0, 67, 106
1, 100961, Control_c, 0, 67, 107
1, 101065, Control_c, 0, 64, 30
1, 101080, Control_c, 0, 64, 54
1, 101095, Control_c, 0, 64, 62
1, 101109, Control_c, 0, 64, 65
1, 101124, Control_c, 0, 64, 67
1, 101139, Control_c, 0, 64, 70
1, 101153, Control_c, 0, 64, 74
1, 101168, Control_c, 0, 64, 76
1, 101213, Control_c, 0, 64, 77
1, 101213, Control_c, 0, 67, 107
1, 101214, Note_on_c, 0, 89, 83
1, 101223, Note_off_c, 0, 80, 61
1, 101228, Control_c, 0, 64, 78
1, 101228, Control_c, 0, 67, 108
1, 101242, Note_off_c, 0, 84, 59
1, 101242, Control_c, 0, 64, 81
1, 101242, Control_c, 0, 67, 109
1, 101249, Note_off_c, 0, 87, 56
1, 101257, Control_c, 0, 64, 83
1, 101272, Control_c, 0, 67, 109
1, 101335, Note_on_c, 0, 79, 64
1, 101335, Note_on_c, 0, 83, 77
1, 101335, Note_on_c, 0, 86, 78
1, 101346, Note_off_c, 0, 89, 60
1, 101376, Control_c, 0, 64, 84
1, 101391, Control_c, 0, 64, 85
1, 101406, Control_c, 0, 64, 86
1, 101421, Control_c, 0, 64, 87
1, 101426, Note_off_c, 0, 79, 59
1, 101436, Control_c, 0, 64, 88
1, 101447, Note_on_c, 0, 89, 83
1, 101450, Note_off_c, 0, 86, 62
1, 101450, Control_c, 0, 64, 91
1, 101455, Note_off_c, 0, 83, 62
1, 101465, Control_c, 0, 64, 95
1, 101480, Control_c, 0, 64, 100
1, 101495, Control_c, 0, 64, 106
1, 101510, Control_c, 0, 64, 119
1, 101525, Control_c, 0, 64, 127
1, 101525, Control_c, 0, 67, 110
1, 101540, Control_c, 0, 67, 110
1, 101554, Note_on_c, 0, 82, 72
1, 101555, Control_c, 0, 67, 111
1, 101558, Note_on_c, 0, 85, 67
1, 101569, Control_c, 0, 67, 112
1, 101571, Note_off_c, 0, 89, 58
1, 101584, Control_c, 0, 67, 112
1, 101588, Note_on_c, 0, 78, 36
1, 101599, Control_c, 0, 67, 113
1, 101607, Note_off_c, 0, 68, 59
1, 101614, Control_c, 0, 67, 114
1, 101629, Control_c, 0, 67, 114
1, 101643, Control_c, 0, 67, 115
1, 101647, Note_off_c, 0, 63, 34
1, 101658, Control_c, 0, 67, 117
1, 101662, Note_on_c, 0, 89, 74
1, 101666, Note_off_c, 0, 78, 54
1, 101668, Note_off_c, 0, 82, 63
1, 101671, Note_off_c, 0, 85, 63
1, 101673, Control_c, 0, 67, 117
1, 101688, Control_c, 0, 67, 119
1, 101710, Control_c, 0, 67, 119
1, 101717, Note_off_c, 0, 60, 60
1, 101725, Control_c, 0, 67, 120
1, 101739, Control_c, 0, 67, 122
1, 101750, Note_on_c, 0, 86, 71
1, 101754, Control_c, 0, 67, 122
1, 101755, Note_off_c, 0, 89, 59
1, 101758, Note_on_c, 0, 83, 64
1, 101769, Note_on_c, 0, 79, 57
1, 101769, Control_c, 0, 67, 124
1, 101784, Control_c, 0, 67, 125
1, 101799, Control_c, 0, 67, 127
1, 101814, Control_c, 0, 67, 127
1, 101826, Note_off_c, 0, 79, 58
1, 101847, Note_off_c, 0, 86, 63
1, 101858, Note_on_c, 0, 89, 77
1, 101870, Note_off_c, 0, 83, 62
1, 101974, Note_on_c, 0, 87, 73
1, 101987, Note_on_c, 0, 84, 61
1, 101989, Note_off_c, 0, 89, 55
1, 102002, Note_on_c, 0, 80, 51
1, 102158, Note_off_c, 0, 84, 57
1, 102175, Note_off_c, 0, 80, 36
1, 102178, Note_on_c, 0, 33, 45
1, 102185, Control_c, 0, 64, 114
1, 102193, Note_off_c, 0, 87, 36
1, 102199, Control_c, 0, 64, 108
1, 102214, Control_c, 0, 64, 102
1, 102229, Control_c, 0, 64, 94
1, 102244, Control_c, 0, 64, 83
1, 102255, Note_on_c, 0, 88, 65
1, 102259, Control_c, 0, 64, 68
1, 102261, Note_on_c, 0, 84, 59
1, 102273, Note_on_c, 0, 81, 49
1, 102273, Control_c, 0, 64, 42
1, 102288, Control_c, 0, 64, 0
1, 102348, Control_c, 0, 64, 50
1, 102362, Control_c, 0, 64, 63
1, 102377, Control_c, 0, 64, 68
1, 102382, Note_off_c, 0, 33, 56
1, 102392, Control_c, 0, 64, 76
1, 102407, Control_c, 0, 64, 86
1, 102422, Control_c, 0, 64, 104
1, 102437, Control_c, 0, 64, 127
1, 102541, Note_on_c, 0, 93, 56
1, 102660, Note_on_c, 0, 52, 57
1, 102771, Control_c, 0, 64, 118
1, 102785, Note_off_c, 0, 52, 58
1, 102786, Control_c, 0, 64, 117
1, 102801, Control_c, 0, 64, 116
1, 102805, Note_on_c, 0, 60, 52
1, 102860, Control_c, 0, 64, 115
1, 102863, Note_off_c, 0, 93, 38
1, 102874, Control_c, 0, 64, 114
1, 102884, Note_off_c, 0, 60, 59
1, 102889, Control_c, 0, 64, 113
1, 102914, Note_on_c, 0, 52, 52
1, 102923, Note_off_c, 0, 81, 33
1, 102935, Control_c, 0, 64, 113
1, 102950, Control_c, 0, 64, 111
1, 102959, Note_off_c, 0, 84, 38
1, 102965, Control_c, 0, 64, 110
1, 102979, Note_off_c, 0, 88, 38
1, 102979, Control_c, 0, 64, 110
1, 103009, Control_c, 0, 64, 111
1, 103023, Control_c, 0, 64, 113
1, 103024, Note_on_c, 0, 60, 48
1, 103033, Note_off_c, 0, 52, 54
1, 103038, Control_c, 0, 64, 115
1, 103097, Control_c, 0, 64, 117
1, 103102, Note_off_c, 0, 60, 47
1, 103112, Control_c, 0, 64, 118
1, 103127, Control_c, 0, 64, 119
1, 103138, Note_on_c, 0, 64, 53
1, 103142, Control_c, 0, 64, 121
1, 103230, Note_off_c, 0, 64, 59
1, 103264, Note_on_c, 0, 60, 53
1, 103400, Note_on_c, 0, 69, 53
1, 103416, Control_c, 0, 64, 118
1, 103430, Control_c, 0, 64, 116
1, 103445, Control_c, 0, 64, 114
1, 103460, Control_c, 0, 64, 111
1, 103475, Control_c, 0, 64, 108
1, 103490, Control_c, 0, 64, 105
1, 103504, Control_c, 0, 64, 99
1, 103519, Control_c, 0, 64, 95
1, 103534, Control_c, 0, 64, 92
1, 103549, Control_c, 0, 64, 90
1, 103564, Control_c, 0, 64, 88
1, 103566, Note_on_c, 0, 68, 42
1, 103573, Note_on_c, 0, 63, 35
1, 103575, Note_off_c, 0, 69, 39
1, 103579, Control_c, 0, 64, 86
1, 103594, Control_c, 0, 64, 83
1, 103609, Control_c, 0, 64, 80
1, 103623, Control_c, 0, 64, 77
1, 103638, Control_c, 0, 64, 75
1, 103653, Control_c, 0, 64, 72
1, 103668, Control_c, 0, 64, 68
1, 103668, Note_on_c, 0, 75, 57
1, 103681, Note_on_c, 0, 72, 39
1, 103683, Control_c, 0, 64, 63
1, 103698, Control_c, 0, 64, 46
1, 103713, Control_c, 0, 64, 0
1, 103787, Control_c, 0, 64, 23
1, 103802, Control_c, 0, 64, 52
1, 103817, Control_c, 0, 64, 62
1, 103832, Control_c, 0, 64, 66
1, 103846, Control_c, 0, 64, 72
1, 103861, Control_c, 0, 64, 85
1, 103863, Note_off_c, 0, 72, 54
1, 103875, Note_on_c, 0, 77, 55
1, 103875, Note_off_c, 0, 75, 57
1, 103876, Control_c, 0, 64, 127
1, 103981, Note_off_c, 0, 77, 55
1, 104006, Note_on_c, 0, 71, 42
1, 104006, Note_on_c, 0, 74, 49
1, 104054, Note_off_c, 0, 71, 62
1, 104094, Note_off_c, 0, 74, 60
1, 104109, Note_on_c, 0, 77, 57
1, 104192, Note_off_c, 0, 77, 52
1, 104196, Note_off_c, 0, 68, 38
1, 104214, Note_on_c, 0, 73, 52
1, 104224, Note_on_c, 0, 70, 32
1, 104236, Note_off_c, 0, 63, 38
1, 104288, Note_off_c, 0, 70, 39
1, 104305, Note_off_c, 0, 60, 41
1, 104308, Note_off_c, 0, 73, 55
1, 104324, Note_on_c, 0, 77, 57
1, 104341, Control_c, 0, 64, 121
1, 104356, Control_c, 0, 64, 117
1, 104370, Control_c, 0, 64, 113
1, 104379, Note_off_c, 0, 77, 53
1, 104385, Control_c, 0, 64, 110
1, 104400, Control_c, 0, 64, 107
1, 104415, Control_c, 0, 64, 107
1, 104419, Note_on_c, 0, 71, 49
1, 104425, Note_on_c, 0, 74, 51
1, 104497, Note_off_c, 0, 71, 46
1, 104561, Note_off_c, 0, 74, 55
1, 104564, Control_c, 0, 64, 107
1, 104574, Note_on_c, 0, 77, 55
1, 104682, Control_c, 0, 64, 107
1, 104690, Note_off_c, 0, 77, 56
1, 104711, Note_on_c, 0, 75, 61
1, 104737, Note_on_c, 0, 72, 37
1, 104808, Control_c, 0, 64, 106
1, 104823, Control_c, 0, 64, 105
1, 104838, Control_c, 0, 64, 105
1, 104853, Control_c, 0, 64, 104
1, 104868, Control_c, 0, 64, 102
1, 104882, Control_c, 0, 64, 101
1, 104897, Control_c, 0, 64, 99
1, 104912, Control_c, 0, 64, 97
1, 104919, Note_off_c, 0, 72, 41
1, 104923, Note_on_c, 0, 45, 35
1, 104927, Control_c, 0, 64, 94
1, 104938, Note_off_c, 0, 75, 57
1, 104942, Control_c, 0, 64, 92
1, 104956, Control_c, 0, 64, 91
1, 104971, Control_c, 0, 64, 89
1, 104986, Control_c, 0, 64, 87
1, 105001, Control_c, 0, 64, 84
1, 105015, Control_c, 0, 64, 80
1, 105030, Control_c, 0, 64, 76
1, 105041, Note_on_c, 0, 76, 49
1, 105045, Control_c, 0, 64, 69
1, 105048, Note_on_c, 0, 72, 42
1, 105060, Control_c, 0, 64, 61
1, 105075, Control_c, 0, 64, 37
1, 105090, Control_c, 0, 64, 0
1, 105164, Control_c, 0, 64, 40
1, 105179, Control_c, 0, 64, 61
1, 105193, Control_c, 0, 64, 67
1, 105208, Control_c, 0, 64, 72
1, 105223, Note_off_c, 0, 45, 56
1, 105223, Control_c, 0, 64, 82
1, 105238, Control_c, 0, 64, 98
1, 105253, Control_c, 0, 64, 127
1, 105386, Note_on_c, 0, 81, 49
1, 105582, Note_on_c, 0, 52, 37
1, 105705, Control_c, 0, 64, 118
1, 105708, Note_off_c, 0, 52, 52
1, 105720, Control_c, 0, 64, 115
1, 105735, Control_c, 0, 64, 113
1, 105743, Note_on_c, 0, 60, 39
1, 105750, Control_c, 0, 64, 111
1, 105765, Control_c, 0, 64, 108
1, 105779, Control_c, 0, 64, 105
1, 105794, Control_c, 0, 64, 103
1, 105809, Control_c, 0, 64, 102
1, 105853, Control_c, 0, 64, 102
1, 105856, Note_off_c, 0, 60, 53
1, 105868, Control_c, 0, 64, 101
1, 105874, Note_on_c, 0, 52, 37
1, 105898, Control_c, 0, 64, 101
1, 105913, Control_c, 0, 64, 100
1, 105928, Control_c, 0, 64, 100
1, 105943, Control_c, 0, 64, 99
1, 105957, Control_c, 0, 64, 99
1, 106002, Control_c, 0, 64, 98
1, 106024, Note_off_c, 0, 72, 38
1, 106026, Note_on_c, 0, 60, 37
1, 106033, Note_off_c, 0, 81, 43
1, 106142, Note_off_c, 0, 76, 38
1, 106166, Control_c, 0, 64, 98
1, 106213, Note_on_c, 0, 64, 43
1, 106217, Control_c, 0, 64, 97
1, 106247, Control_c, 0, 64, 97
1, 106262, Control_c, 0, 64, 96
1, 106264, Note_off_c, 0, 60, 40
1, 106276, Control_c, 0, 64, 95
1, 106336, Control_c, 0, 64, 95
1, 106377, Note_off_c, 0, 52, 36
1, 106410, Note_on_c, 0, 60, 32
1, 106418, Note_off_c, 0, 64, 35
1, 106558, Control_c, 0, 64, 94
1, 106640, Note_on_c, 0, 52, 38
1, 106644, Note_off_c, 0, 60, 41
1, 106680, Note_off_c, 0, 52, 55
1, 106750, Control_c, 0, 64, 95
1, 106795, Control_c, 0, 64, 95
1, 106981, Control_c, 0, 64, 95
1, 107011, Control_c, 0, 64, 94
1, 107040, Control_c, 0, 64, 93
1, 107055, Control_c, 0, 64, 91
1, 107069, Control_c, 0, 64, 89
1, 107084, Control_c, 0, 64, 87
1, 107099, Control_c, 0, 64, 86
1, 107114, Control_c, 0, 64, 85
1, 107129, Control_c, 0, 64, 84
1, 107141, Note_on_c, 0, 51, 43
1, 107144, Control_c, 0, 64, 81
1, 107159, Note_on_c, 0, 39, 29
1, 107159, Control_c, 0, 64, 80
1, 107174, Control_c, 0, 64, 78
1, 107189, Control_c, 0, 64, 78
1, 107204, Control_c, 0, 64, 77
1, 107218, Control_c, 0, 64, 76
1, 107233, Control_c, 0, 64, 75
1, 107248, Control_c, 0, 64, 73
1, 107263, Control_c, 0, 64, 73
1, 107278, Control_c, 0, 64, 72
1, 107293, Control_c, 0, 64, 71
1, 107308, Control_c, 0, 64, 70
1, 107323, Control_c, 0, 64, 70
1, 107367, Control_c, 0, 64, 69
1, 107382, Control_c, 0, 64, 69
1, 107396, Control_c, 0, 64, 68
1, 107451, Note_on_c, 0, 53, 52
1, 107467, Note_on_c, 0, 41, 41
1, 107470, Control_c, 0, 64, 69
1, 107485, Control_c, 0, 64, 70
1, 107500, Control_c, 0, 64, 71
1, 107515, Control_c, 0, 64, 72
1, 107530, Control_c, 0, 64, 73
1, 107544, Control_c, 0, 64, 74
1, 107559, Control_c, 0, 64, 75
1, 107574, Control_c, 0, 64, 76
1, 107618, Control_c, 0, 64, 76
1, 107622, Note_on_c, 0, 50, 58
1, 107633, Control_c, 0, 64, 77
1, 107636, Note_off_c, 0, 53, 57
1, 107638, Note_on_c, 0, 38, 47
1, 107648, Control_c, 0, 64, 78
1, 107654, Note_off_c, 0, 41, 51
1, 107701, Control_c, 0, 64, 78
1, 107765, Note_off_c, 0, 38, 59
1, 107770, Note_on_c, 0, 53, 68
1, 107777, Note_on_c, 0, 41, 61
1, 107785, Note_off_c, 0, 39, 29
1, 107847, Note_off_c, 0, 50, 56
1, 107879, Control_c, 0, 64, 78
1, 107895, Note_on_c, 0, 37, 62
1, 107897, Note_on_c, 0, 49, 65
1, 107897, Note_off_c, 0, 51, 30
1, 107912, Note_off_c, 0, 41, 59
1, 107923, Control_c, 0, 64, 77
1, 107938, Control_c, 0, 64, 77
1, 107967, Control_c, 0, 64, 76
1, 107982, Control_c, 0, 64, 75
1, 107997, Control_c, 0, 64, 75
1, 108001, Note_on_c, 0, 52, 83
1, 108002, Note_on_c, 0, 40, 73
1, 108020, Note_off_c, 0, 53, 57
1, 108022, Note_off_c, 0, 37, 61
1, 108026, Control_c, 0, 64, 74
1, 108041, Control_c, 0, 64, 74
1, 108047, Note_off_c, 0, 49, 58
1, 108071, Control_c, 0, 64, 73
1, 108101, Note_on_c, 0, 36, 72
1, 108101, Control_c, 0, 64, 73
1, 108112, Note_on_c, 0, 48, 87
1, 108139, Note_off_c, 0, 40, 62
1, 108142, Note_off_c, 0, 52, 65
1, 108145, Control_c, 0, 64, 72
1, 108160, Control_c, 0, 64, 72
1, 108175, Control_c, 0, 64, 71
1, 108190, Control_c, 0, 64, 69
1, 108205, Control_c, 0, 64, 67
1, 108219, Control_c, 0, 64, 65
1, 108220, Note_on_c, 0, 39, 69
1, 108226, Note_on_c, 0, 51, 84
1, 108234, Control_c, 0, 64, 64
1, 108239, Note_off_c, 0, 36, 62
1, 108244, Note_off_c, 0, 48, 62
1, 108249, Control_c, 0, 64, 63
1, 108264, Control_c, 0, 64, 61
1, 108279, Control_c, 0, 64, 60
1, 108323, Control_c, 0, 64, 59
1, 108330, Note_off_c, 0, 39, 62
1, 108337, Note_on_c, 0, 47, 70
1, 108338, Control_c, 0, 64, 59
1, 108340, Note_on_c, 0, 35, 54
1, 108350, Note_off_c, 0, 51, 63
1, 108353, Control_c, 0, 64, 57
1, 108367, Control_c, 0, 64, 57
1, 108382, Control_c, 0, 64, 56
1, 108397, Control_c, 0, 64, 55
1, 108411, Control_c, 0, 64, 54
1, 108426, Control_c, 0, 64, 53
1, 108449, Control_c, 0, 64, 52
1, 108491, Note_on_c, 0, 40, 55
1, 108496, Note_on_c, 0, 52, 61
1, 108500, Note_off_c, 0, 35, 58
1, 108512, Note_off_c, 0, 47, 43
1, 108554, Control_c, 0, 64, 53
1, 108613, Control_c, 0, 64, 53
1, 108637, Note_off_c, 0, 52, 57
1, 108639, Note_off_c, 0, 40, 56
1, 108646, Note_on_c, 0, 48, 52
1, 108650, Note_on_c, 0, 36, 43
1, 108672, Control_c, 0, 64, 54
1, 108751, Note_off_c, 0, 48, 62
1, 108761, Control_c, 0, 64, 54
1, 108762, Note_on_c, 0, 51, 51
1, 108765, Note_off_c, 0, 36, 56
1, 108776, Control_c, 0, 64, 55
1, 108783, Note_on_c, 0, 39, 45
1, 108805, Control_c, 0, 64, 55
1, 108849, Control_c, 0, 64, 56
1, 108858, Note_off_c, 0, 39, 61
1, 108872, Note_off_c, 0, 51, 59
1, 108894, Note_on_c, 0, 47, 48
1, 108899, Note_on_c, 0, 35, 48
1, 108998, Control_c, 0, 64, 55
1, 109002, Note_off_c, 0, 35, 57
1, 109016, Note_on_c, 0, 50, 52
1, 109019, Note_on_c, 0, 38, 43
1, 109042, Control_c, 0, 64, 55
1, 109052, Note_off_c, 0, 47, 35
1, 109087, Control_c, 0, 64, 54
1, 109152, Note_off_c, 0, 50, 56
1, 109173, Note_off_c, 0, 38, 56
1, 109174, Note_on_c, 0, 46, 45
1, 109176, Control_c, 0, 64, 54
1, 109196, Note_on_c, 0, 34, 39
1, 109287, Control_c, 0, 64, 55
1, 109302, Control_c, 0, 64, 55
1, 109317, Control_c, 0, 64, 56
1, 109332, Control_c, 0, 64, 57
1, 109347, Control_c, 0, 64, 58
1, 109362, Control_c, 0, 64, 59
1, 109377, Control_c, 0, 64, 60
1, 109378, Note_off_c, 0, 46, 53
1, 109380, Note_on_c, 0, 49, 44
1, 109389, Note_on_c, 0, 37, 35
1, 109391, Control_c, 0, 64, 61
1, 109406, Control_c, 0, 64, 61
1, 109418, Note_off_c, 0, 34, 44
1, 109421, Control_c, 0, 64, 62
1, 109436, Control_c, 0, 64, 63
1, 109451, Control_c, 0, 64, 64
1, 109465, Control_c, 0, 64, 64
1, 109480, Control_c, 0, 64, 65
1, 109495, Control_c, 0, 64, 65
1, 109510, Control_c, 0, 64, 66
1, 109525, Control_c, 0, 64, 67
1, 109539, Control_c, 0, 64, 68
1, 109554, Control_c, 0, 64, 69
1, 109557, Note_on_c, 0, 34, 34
1, 109569, Control_c, 0, 64, 70
1, 109573, Note_on_c, 0, 46, 42
1, 109584, Control_c, 0, 64, 71
1, 109589, Note_off_c, 0, 37, 50
1, 109599, Control_c, 0, 64, 72
1, 109613, Control_c, 0, 64, 74
1, 109628, Control_c, 0, 64, 76
1, 109636, Note_off_c, 0, 49, 31
1, 109643, Control_c, 0, 64, 78
1, 109658, Control_c, 0, 64, 79
1, 109672, Control_c, 0, 64, 80
1, 109687, Control_c, 0, 64, 81
1, 109702, Control_c, 0, 64, 81
1, 109717, Note_on_c, 0, 47, 54
1, 109717, Control_c, 0, 64, 82
1, 109743, Note_on_c, 0, 35, 51
1, 109745, Note_off_c, 0, 34, 40
1, 109748, Note_off_c, 0, 46, 53
1, 109791, Control_c, 0, 64, 82
1, 109876, Note_on_c, 0, 48, 66
1, 109895, Control_c, 0, 64, 82
1, 109898, Note_off_c, 0, 47, 52
1, 109905, Note_on_c, 0, 36, 51
1, 109925, Control_c, 0, 64, 83
1, 109946, Control_c, 0, 64, 83
1, 109952, Note_off_c, 0, 35, 36
1, 109961, Control_c, 0, 64, 84
1, 109976, Control_c, 0, 64, 85
1, 109991, Control_c, 0, 64, 86
1, 110006, Control_c, 0, 64, 87
1, 110020, Control_c, 0, 64, 87
1, 110030, Note_on_c, 0, 49, 67
1, 110035, Control_c, 0, 64, 88
1, 110050, Control_c, 0, 64, 89
1, 110065, Control_c, 0, 64, 89
1, 110069, Note_on_c, 0, 37, 60
1, 110071, Note_off_c, 0, 48, 62
1, 110081, Note_off_c, 0, 36, 58
1, 110095, Control_c, 0, 64, 90
1, 110110, Control_c, 0, 64, 91
1, 110126, Control_c, 0, 64, 91
1, 110141, Control_c, 0, 64, 92
1, 110156, Control_c, 0, 64, 93
1, 110162, Note_on_c, 0, 50, 81
1, 110170, Control_c, 0, 64, 95
1, 110172, Note_on_c, 0, 38, 71
1, 110181, Note_off_c, 0, 37, 61
1, 110185, Control_c, 0, 64, 96
1, 110192, Note_off_c, 0, 49, 63
1, 110200, Control_c, 0, 64, 97
1, 110215, Control_c, 0, 64, 98
1, 110230, Control_c, 0, 64, 99
1, 110244, Control_c, 0, 64, 100
1, 110259, Control_c, 0, 64, 102
1, 110274, Control_c, 0, 64, 103
1, 110286, Note_on_c, 0, 51, 92
1, 110289, Control_c, 0, 64, 104
1, 110289, Control_c, 0, 67, 126
1, 110291, Note_on_c, 0, 39, 79
1, 110304, Control_c, 0, 64, 107
1, 110304, Control_c, 0, 67, 115
1, 110319, Note_off_c, 0, 38, 62
1, 110319, Note_off_c, 0, 50, 63
1, 110319, Control_c, 0, 64, 110
1, 110319, Control_c, 0, 67, 97
1, 110333, Control_c, 0, 64, 116
1, 110333, Control_c, 0, 67, 75
1, 110348, Control_c, 0, 64, 127
1, 110348, Control_c, 0, 67, 50
1, 110363, Control_c, 0, 67, 25
1, 110378, Control_c, 0, 67, 0
1, 110392, Note_on_c, 0, 52, 95
1, 110396, Note_on_c, 0, 40, 88
1, 110401, Note_off_c, 0, 51, 66
1, 110422, Note_off_c, 0, 39, 61
1, 110485, Note_off_c, 0, 40, 62
1, 110495, Note_on_c, 0, 41, 87
1, 110502, Note_on_c, 0, 53, 103
1, 110533, Note_off_c, 0, 52, 64
1, 110606, Note_on_c, 0, 30, 89
1, 110609, Note_on_c, 0, 54, 100
1, 110609, Note_off_c, 0, 41, 53
1, 110637, Note_off_c, 0, 53, 65
1, 110680, Note_off_c, 0, 30, 63
1, 110695, Note_off_c, 0, 54, 65
1, 110708, Poly_aftertouch_c, 0, 56, 127
1, 110721, Note_on_c, 0, 55, 106
1, 110736, Note_on_c, 0, 31, 80
1, 110742, Note_on_c, 0, 29, 77
1, 110748, Poly_aftertouch_c, 0, 56, 0
1, 110807, Note_off_c, 0, 55, 58
1, 110831, Note_off_c, 0, 31, 56
1, 110832, Note_on_c, 0, 32, 93
1, 110832, Note_on_c, 0, 56, 102
1, 110841, Note_off_c, 0, 29, 52
1, 110861, Poly_aftertouch_c, 0, 55, 127
1, 110868, Poly_aftertouch_c, 0, 55, 0
1, 110870, Note_on_c, 0, 57, 48
1, 110932, Note_off_c, 0, 32, 61
1, 110939, Note_on_c, 0, 61, 22
1, 110953, Note_off_c, 0, 57, 64
1, 110957, Note_off_c, 0, 56, 62
1, 110983, Note_off_c, 0, 61, 52
1, 110992, Control_c, 0, 64, 84
1, 111002, Note_on_c, 0, 33, 102
1, 111007, Note_on_c, 0, 21, 100
1, 111007, Control_c, 0, 64, 52
1, 111011, Note_on_c, 0, 60, 98
1, 111014, Note_on_c, 0, 52, 95
1, 111018, Note_on_c, 0, 57, 91
1, 111019, Note_on_c, 0, 59, 88
1, 111021, Note_on_c, 0, 53, 94
1, 111022, Control_c, 0, 64, 0
1, 111067, Control_c, 0, 64, 50
1, 111082, Control_c, 0, 64, 64
1, 111087, Note_off_c, 0, 53, 59
1, 111097, Control_c, 0, 64, 85
1, 111098, Note_off_c, 0, 52, 65
1, 111108, Note_off_c, 0, 59, 60
1, 111111, Control_c, 0, 64, 127
1, 111118, Note_off_c, 0, 60, 73
1, 111126, Note_off_c, 0, 57, 68
1, 111127, Note_off_c, 0, 33, 67
1, 111143, Note_off_c, 0, 21, 61
1, 111185, Control_c, 0, 64, 110
1, 111200, Control_c, 0, 64, 59
1, 111215, Control_c, 0, 64, 0
1, 111860, Control_c, 0, 67, 51
1, 111875, Control_c, 0, 67, 110
1, 111889, Control_c, 0, 67, 127
1, 112341, Control_c, 0, 64, 12
1, 112356, Control_c, 0, 64, 19
1, 112371, Control_c, 0, 64, 20
1, 112386, Control_c, 0, 64, 21
1, 112401, Control_c, 0, 64, 21
1, 112415, Control_c, 0, 64, 23
1, 112430, Control_c, 0, 64, 27
1, 112445, Control_c, 0, 64, 32
1, 112459, Control_c, 0, 64, 34
1, 112474, Control_c, 0, 64, 36
1, 112490, Control_c, 0, 64, 37
1, 112505, Control_c, 0, 64, 37
1, 112520, Control_c, 0, 64, 38
1, 112535, Control_c, 0, 64, 38
1, 112550, Control_c, 0, 64, 39
1, 112564, Control_c, 0, 64, 41
1, 112579, Control_c, 0, 64, 42
1, 112594, Control_c, 0, 64, 43
1, 112599, Note_on_c, 0, 48, 56
1, 112624, Note_on_c, 0, 36, 36
1, 112624, Control_c, 0, 64, 43
1, 112638, Control_c, 0, 64, 44
1, 112653, Control_c, 0, 64, 44
1, 112668, Control_c, 0, 64, 45
1, 112682, Control_c, 0, 64, 47
1, 112697, Control_c, 0, 64, 48
1, 112712, Control_c, 0, 64, 50
1, 112727, Control_c, 0, 64, 51
1, 112742, Control_c, 0, 64, 52
1, 112757, Control_c, 0, 64, 53
1, 112772, Control_c, 0, 64, 53
1, 112787, Control_c, 0, 64, 54
1, 112802, Control_c, 0, 64, 55
1, 112817, Control_c, 0, 64, 56
1, 112831, Control_c, 0, 64, 58
1, 112846, Control_c, 0, 64, 59
1, 112861, Control_c, 0, 64, 59
1, 112875, Control_c, 0, 64, 60
1, 112890, Control_c, 0, 64, 61
1, 112894, Note_on_c, 0, 49, 68
1, 112905, Control_c, 0, 64, 63
1, 112920, Control_c, 0, 64, 63
1, 112924, Note_on_c, 0, 37, 47
1, 112942, Control_c, 0, 64, 64
1, 112957, Control_c, 0, 64, 64
1, 112986, Control_c, 0, 64, 65
1, 112988, Note_off_c, 0, 48, 62
1, 113016, Control_c, 0, 64, 65
1, 113046, Control_c, 0, 64, 66
1, 113097, Note_on_c, 0, 50, 75
1, 113105, Note_on_c, 0, 38, 59
1, 113105, Control_c, 0, 64, 66
1, 113107, Note_off_c, 0, 36, 42
1, 113120, Control_c, 0, 64, 67
1, 113150, Note_off_c, 0, 49, 64
1, 113150, Control_c, 0, 64, 67
1, 113164, Control_c, 0, 64, 68
1, 113174, Note_off_c, 0, 37, 61
1, 113179, Control_c, 0, 64, 68
1, 113194, Control_c, 0, 64, 69
1, 113208, Control_c, 0, 64, 69
1, 113253, Control_c, 0, 64, 70
1, 113266, Note_on_c, 0, 51, 89
1, 113276, Note_on_c, 0, 39, 72
1, 113284, Control_c, 0, 64, 70
1, 113299, Control_c, 0, 64, 72
1, 113299, Control_c, 0, 67, 120
1, 113305, Note_off_c, 0, 50, 63
1, 113313, Control_c, 0, 64, 73
1, 113313, Control_c, 0, 67, 100
1, 113320, Note_off_c, 0, 38, 61
1, 113328, Control_c, 0, 64, 75
1, 113328, Control_c, 0, 67, 82
1, 113343, Control_c, 0, 64, 76
1, 113343, Control_c, 0, 67, 63
1, 113358, Control_c, 0, 64, 78
1, 113358, Control_c, 0, 67, 45
1, 113373, Control_c, 0, 64, 79
1, 113373, Control_c, 0, 67, 28
1, 113387, Control_c, 0, 64, 80
1, 113387, Control_c, 0, 67, 13
1, 113402, Control_c, 0, 64, 81
1, 113402, Control_c, 0, 67, 0
1, 113417, Control_c, 0, 64, 82
1, 113419, Note_on_c, 0, 52, 86
1, 113428, Note_on_c, 0, 40, 81
1, 113432, Control_c, 0, 64, 84
1, 113447, Control_c, 0, 64, 89
1, 113458, Note_off_c, 0, 51, 64
1, 113461, Control_c, 0, 64, 94
1, 113476, Note_off_c, 0, 39, 61
1, 113476, Control_c, 0, 64, 101
1, 113491, Control_c, 0, 64, 109
1, 113505, Control_c, 0, 64, 127
1, 113565, Note_on_c, 0, 41, 86
1, 113568, Note_on_c, 0, 53, 97
1, 113579, Note_off_c, 0, 40, 63
1, 113702, Note_off_c, 0, 52, 0
1, 113723, Note_on_c, 0, 54, 103
1, 113727, Note_on_c, 0, 30, 82
1, 113753, Note_off_c, 0, 41, 62
1, 113758, Note_off_c, 0, 53, 62
1, 113770, Poly_aftertouch_c, 0, 52, 0
1, 113827, Poly_aftertouch_c, 0, 29, 127
1, 113854, Note_off_c, 0, 30, 62
1, 113863, Poly_aftertouch_c, 0, 29, 0
1, 113877, Note_off_c, 0, 54, 63
1, 113894, Note_on_c, 0, 55, 98
1, 113895, Note_on_c, 0, 31, 87
1, 114015, Note_off_c, 0, 31, 62
1, 114032, Note_off_c, 0, 55, 64
1, 114077, Note_on_c, 0, 32, 94
1, 114081, Note_on_c, 0, 56, 105
1, 114194, Note_off_c, 0, 32, 58
1, 114313, Note_off_c, 0, 56, 52
1, 114370, Note_on_c, 0, 21, 93
1, 114372, Note_on_c, 0, 33, 97
1, 114374, Control_c, 0, 64, 91
1, 114382, Note_on_c, 0, 52, 91
1, 114383, Note_on_c, 0, 60, 102
1, 114384, Note_on_c, 0, 57, 94
1, 114389, Control_c, 0, 64, 71
1, 114403, Control_c, 0, 64, 70
1, 114418, Control_c, 0, 64, 85
1, 114420, Note_off_c, 0, 52, 70
1, 114441, Control_c, 0, 64, 127
1, 114470, Note_off_c, 0, 60, 72
1, 114483, Note_off_c, 0, 57, 69
1, 114487, Note_off_c, 0, 33, 66
1, 114503, Note_off_c, 0, 21, 65
1, 114574, Control_c, 0, 64, 59
1, 114589, Control_c, 0, 64, 0
1, 115811, Control_c, 0, 64, 18
1, 115826, Control_c, 0, 64, 24
1, 115841, Control_c, 0, 64, 30
1, 115855, Control_c, 0, 64, 34
1, 115870, Control_c, 0, 64, 37
1, 115885, Control_c, 0, 64, 40
1, 115899, Control_c, 0, 64, 43
1, 115914, Control_c, 0, 64, 47
1, 115937, Control_c, 0, 64, 53
1, 115952, Control_c, 0, 64, 61
1, 115967, Control_c, 0, 64, 67
1, 115980, Note_on_c, 0, 21, 88
1, 115981, Control_c, 0, 64, 81
1, 115982, Note_on_c, 0, 52, 96
1, 115982, Note_on_c, 0, 60, 93
1, 115984, Note_on_c, 0, 33, 85
1, 115985, Note_on_c, 0, 57, 97
1, 115996, Control_c, 0, 64, 127
1, 116015, Note_off_c, 0, 52, 70
1, 116026, Note_off_c, 0, 60, 69
1, 116030, Note_off_c, 0, 33, 66
1, 116039, Note_off_c, 0, 57, 70
1, 116041, Note_off_c, 0, 21, 66
1, 116159, Control_c, 0, 64, 81
1, 116174, Control_c, 0, 64, 53
1, 116188, Control_c, 0, 64, 0
1, 116263, End_track
0, 0, End_of_file
