0, 0, Header, 0, 1, 384
1, 0, Start_track
1, 0, Title_t, "Cinderella Suite--Anna Denisova "
1, 0, Text_t, "2008 e-Piano Junior Competition recital round"
1, 0, Text_t, "recorded July 2008"
1, 0, Text_t, "http://www.piano-e-competition.com/"
1, 0, Text_t, "File processed for distribution by software from Zenph Studios, Inc., http://www.zenph.com"
1, 0, Instrument_name_t, "Yamaha Disklavier Pro Mark IV concert grand piano, model DCFIIISM4PRO"
1, 0, Sequencer_specific, 39, 67, 113, 0, 1, 0, 1, 0, 67, 105, 110, 100, 101, 114, 101, 108, 108, 97, 32, 83, 117, 105, 116, 101, 65, 110, 110, 97, 32, 68, 101, 110, 105, 115, 111, 118, 97, 32, 32, 32
1, 0, Sequencer_specific, 6, 67, 113, 0, 0, 0, 69
1, 0, System_exclusive, 21, 67, 113, 126, 21, 0, 2, 2, 0, 3, 14, 1, 4, 1, 13, 13, 10, 11, 9, 2, 7, 247
1, 0, Sequencer_specific, 5, 67, 123, 12, 2, 1
1, 0, Tempo, 512820
1, 0, Time_signature, 4, 2, 24, 8
1, 0, System_exclusive, 5, 126, 127, 9, 1, 247
1, 1, System_exclusive, 8, 67, 16, 76, 0, 0, 126, 0, 247
1, 2, System_exclusive, 8, 67, 16, 76, 8, 9, 7, 1, 247
1, 3, Control_c, 0, 0, 0
1, 3, Control_c, 1, 0, 0
1, 3, Control_c, 2, 0, 0
1, 3, Control_c, 3, 0, 0
1, 3, Control_c, 4, 0, 0
1, 3, Control_c, 5, 0, 0
1, 3, Control_c, 6, 0, 0
1, 3, Control_c, 7, 0, 0
1, 3, Control_c, 8, 0, 0
1, 3, Control_c, 9, 0, 127
1, 3, Control_c, 10, 0, 0
1, 3, Control_c, 11, 0, 0
1, 3, Control_c, 12, 0, 0
1, 3, Control_c, 13, 0, 0
1, 3, Control_c, 14, 0, 0
1, 3, Control_c, 15, 0, 0
1, 4, Control_c, 0, 32, 0
1, 4, Control_c, 1, 32, 0
1, 4, Control_c, 2, 32, 0
1, 4, Control_c, 3, 32, 0
1, 4, Control_c, 4, 32, 0
1, 4, Control_c, 5, 32, 0
1, 4, Control_c, 6, 32, 0
1, 4, Control_c, 7, 32, 0
1, 4, Control_c, 8, 32, 0
1, 4, Control_c, 9, 32, 0
1, 4, Control_c, 10, 32, 0
1, 4, Control_c, 11, 32, 0
1, 4, Control_c, 12, 32, 0
1, 4, Control_c, 13, 32, 0
1, 4, Control_c, 14, 32, 0
1, 4, Control_c, 15, 32, 0
1, 5, Program_c, 0, 0
1, 5, Program_c, 1, 0
1, 5, Program_c, 2, 0
1, 5, Program_c, 3, 0
1, 5, Program_c, 4, 0
1, 5, Program_c, 5, 0
1, 5, Program_c, 6, 0
1, 5, Program_c, 7, 0
1, 5, Program_c, 8, 0
1, 5, Program_c, 9, 0
1, 5, Program_c, 10, 0
1, 5, Program_c, 11, 0
1, 5, Program_c, 12, 0
1, 5, Program_c, 13, 0
1, 5, Program_c, 14, 0
1, 5, Program_c, 15, 0
1, 6, Control_c, 0, 7, 100
1, 6, Control_c, 1, 7, 100
1, 6, Control_c, 2, 7, 100
1, 6, Control_c, 3, 7, 100
1, 6, Control_c, 4, 7, 100
1, 6, Control_c, 5, 7, 100
1, 6, Control_c, 6, 7, 100
1, 6, Control_c, 7, 7, 100
1, 6, Control_c, 8, 7, 100
1, 6, Control_c, 9, 7, 100
1, 6, Control_c, 10, 7, 100
1, 6, Control_c, 11, 7, 100
1, 6, Control_c, 12, 7, 100
1, 6, Control_c, 13, 7, 100
1, 6, Control_c, 14, 7, 100
1, 6, Control_c, 15, 7, 100
1, 117, Control_c, 0, 64, 15
1, 117, Control_c, 0, 67, 15
1, 229, Control_c, 0, 64, 31
1, 229, Control_c, 0, 67, 31
1, 341, Control_c, 0, 64, 46
1, 341, Control_c, 0, 67, 46
1, 452, Control_c, 0, 64, 63
1, 452, Control_c, 0, 67, 63
1, 564, Control_c, 0, 64, 77
1, 564, Control_c, 0, 67, 77
1, 676, Control_c, 0, 64, 94
1, 676, Control_c, 0, 67, 94
1, 787, Control_c, 0, 64, 108
1, 787, Control_c, 0, 67, 108
1, 899, Control_c, 0, 64, 127
1, 899, Control_c, 0, 67, 127
1, 1130, Note_on_c, 0, 88, 58
1, 1133, Note_on_c, 0, 59, 41
1, 1139, Note_on_c, 0, 83, 45
1, 1141, Note_on_c, 0, 76, 45
1, 1144, Note_on_c, 0, 56, 36
1, 1144, Note_on_c, 0, 80, 49
1, 1147, Note_on_c, 0, 64, 35
1, 1680, Note_off_c, 0, 83, 52
1, 1737, Note_off_c, 0, 56, 41
1, 1739, Note_off_c, 0, 76, 38
1, 1741, Note_off_c, 0, 59, 54
1, 1743, Note_off_c, 0, 80, 56
1, 1823, Note_off_c, 0, 64, 55
1, 1865, Note_off_c, 0, 88, 61
1, 2430, Note_on_c, 0, 78, 54
1, 2432, Note_on_c, 0, 90, 62
1, 2432, Note_on_c, 0, 61, 40
1, 2436, Note_on_c, 0, 85, 55
1, 2442, Note_on_c, 0, 69, 43
1, 2443, Note_on_c, 0, 66, 43
1, 2444, Note_on_c, 0, 88, 55
1, 2571, Control_c, 0, 64, 118
1, 2587, Control_c, 0, 64, 103
1, 2601, Control_c, 0, 64, 87
1, 2616, Control_c, 0, 64, 71
1, 2631, Control_c, 0, 64, 0
1, 2734, Control_c, 0, 64, 62
1, 2749, Control_c, 0, 64, 71
1, 2764, Control_c, 0, 64, 80
1, 2779, Control_c, 0, 64, 89
1, 2794, Control_c, 0, 64, 96
1, 2808, Control_c, 0, 64, 101
1, 2824, Control_c, 0, 64, 105
1, 2839, Control_c, 0, 64, 109
1, 2854, Control_c, 0, 64, 113
1, 2869, Control_c, 0, 64, 119
1, 2883, Control_c, 0, 64, 124
1, 2898, Control_c, 0, 64, 127
1, 3052, Note_off_c, 0, 61, 61
1, 3091, Note_off_c, 0, 69, 64
1, 3101, Note_off_c, 0, 66, 63
1, 3186, Note_off_c, 0, 78, 58
1, 3259, Note_off_c, 0, 85, 53
1, 3298, Note_off_c, 0, 88, 54
1, 3313, Note_off_c, 0, 90, 53
1, 3505, Note_on_c, 0, 68, 52
1, 3588, Note_on_c, 0, 71, 54
1, 3675, Note_on_c, 0, 77, 61
1, 3746, Note_on_c, 0, 83, 62
1, 3791, Note_off_c, 0, 83, 57
1, 3830, Note_on_c, 0, 92, 68
1, 3946, Note_on_c, 0, 97, 79
1, 3987, Control_c, 0, 64, 122
1, 4002, Control_c, 0, 64, 111
1, 4016, Control_c, 0, 64, 98
1, 4031, Control_c, 0, 64, 80
1, 4053, Control_c, 0, 64, 62
1, 4068, Control_c, 0, 64, 0
1, 4157, Control_c, 0, 64, 62
1, 4172, Control_c, 0, 64, 72
1, 4187, Control_c, 0, 64, 81
1, 4202, Control_c, 0, 64, 91
1, 4217, Control_c, 0, 64, 98
1, 4232, Control_c, 0, 64, 103
1, 4247, Control_c, 0, 64, 108
1, 4253, Note_off_c, 0, 68, 59
1, 4262, Control_c, 0, 64, 112
1, 4277, Control_c, 0, 64, 117
1, 4291, Control_c, 0, 64, 122
1, 4306, Control_c, 0, 64, 127
1, 4566, Note_on_c, 0, 73, 46
1, 4573, Note_off_c, 0, 71, 29
1, 4581, Note_on_c, 0, 70, 44
1, 4877, Note_off_c, 0, 73, 34
1, 4880, Note_off_c, 0, 70, 55
1, 4908, Note_on_c, 0, 75, 44
1, 4911, Note_on_c, 0, 71, 42
1, 4914, Note_off_c, 0, 77, 37
1, 4921, Control_c, 0, 64, 115
1, 4936, Control_c, 0, 64, 104
1, 4950, Control_c, 0, 64, 92
1, 4965, Control_c, 0, 64, 79
1, 4981, Control_c, 0, 64, 64
1, 4995, Control_c, 0, 64, 0
1, 5085, Control_c, 0, 64, 64
1, 5099, Control_c, 0, 64, 72
1, 5114, Control_c, 0, 64, 79
1, 5129, Control_c, 0, 64, 86
1, 5144, Control_c, 0, 64, 91
1, 5159, Control_c, 0, 64, 95
1, 5174, Control_c, 0, 64, 100
1, 5189, Control_c, 0, 64, 103
1, 5203, Control_c, 0, 64, 107
1, 5218, Control_c, 0, 64, 111
1, 5233, Control_c, 0, 64, 115
1, 5248, Control_c, 0, 64, 117
1, 5255, Note_on_c, 0, 82, 50
1, 5262, Control_c, 0, 64, 119
1, 5277, Control_c, 0, 64, 122
1, 5292, Control_c, 0, 64, 124
1, 5307, Control_c, 0, 64, 125
1, 5321, Control_c, 0, 64, 127
1, 5502, Note_off_c, 0, 82, 53
1, 5521, Note_off_c, 0, 71, 36
1, 5545, Note_off_c, 0, 75, 51
1, 5554, Note_off_c, 0, 97, 52
1, 5573, Note_on_c, 0, 90, 58
1, 5576, Note_off_c, 0, 92, 58
1, 5644, Note_off_c, 0, 90, 58
1, 6063, Note_on_c, 0, 91, 50
1, 6078, Note_on_c, 0, 88, 41
1, 6083, Note_on_c, 0, 79, 34
1, 6084, Note_on_c, 0, 76, 35
1, 6086, Note_on_c, 0, 86, 44
1, 6130, Control_c, 0, 64, 120
1, 6144, Control_c, 0, 64, 112
1, 6159, Control_c, 0, 64, 102
1, 6174, Control_c, 0, 64, 92
1, 6189, Control_c, 0, 64, 79
1, 6204, Control_c, 0, 64, 63
1, 6218, Control_c, 0, 64, 0
1, 6300, Control_c, 0, 64, 58
1, 6315, Control_c, 0, 64, 68
1, 6330, Control_c, 0, 64, 74
1, 6344, Control_c, 0, 64, 78
1, 6359, Control_c, 0, 64, 81
1, 6374, Control_c, 0, 64, 83
1, 6389, Control_c, 0, 64, 86
1, 6404, Control_c, 0, 64, 88
1, 6418, Control_c, 0, 64, 90
1, 6433, Control_c, 0, 64, 91
1, 6448, Control_c, 0, 64, 93
1, 6463, Control_c, 0, 64, 93
1, 6558, Note_on_c, 0, 84, 46
1, 6562, Note_off_c, 0, 86, 41
1, 6583, Control_c, 0, 64, 92
1, 6598, Control_c, 0, 64, 88
1, 6613, Control_c, 0, 64, 80
1, 6628, Control_c, 0, 64, 69
1, 6642, Control_c, 0, 64, 0
1, 6761, Control_c, 0, 64, 52
1, 6767, Note_off_c, 0, 79, 50
1, 6775, Control_c, 0, 64, 69
1, 6778, Note_off_c, 0, 91, 36
1, 6790, Note_off_c, 0, 88, 18
1, 6790, Control_c, 0, 64, 77
1, 6805, Control_c, 0, 64, 86
1, 6820, Control_c, 0, 64, 91
1, 6822, Note_off_c, 0, 84, 64
1, 6835, Control_c, 0, 64, 93
1, 6849, Control_c, 0, 64, 96
1, 6864, Control_c, 0, 64, 99
1, 6879, Control_c, 0, 64, 102
1, 6894, Control_c, 0, 64, 107
1, 6909, Control_c, 0, 64, 111
1, 6924, Control_c, 0, 64, 115
1, 6939, Control_c, 0, 64, 118
1, 6954, Control_c, 0, 64, 121
1, 6968, Control_c, 0, 64, 126
1, 6983, Control_c, 0, 64, 127
1, 7349, Note_on_c, 0, 79, 38
1, 7405, Note_off_c, 0, 79, 47
1, 8292, Note_on_c, 0, 79, 56
1, 8381, Note_off_c, 0, 79, 59
1, 9447, Note_on_c, 0, 79, 53
1, 9623, Note_off_c, 0, 76, 37
1, 10412, Note_on_c, 0, 80, 55
1, 10415, Note_off_c, 0, 79, 53
1, 10443, Control_c, 0, 64, 111
1, 10458, Control_c, 0, 64, 100
1, 10473, Control_c, 0, 64, 91
1, 10488, Control_c, 0, 64, 81
1, 10503, Control_c, 0, 64, 70
1, 10517, Control_c, 0, 64, 60
1, 10532, Control_c, 0, 64, 55
1, 10547, Control_c, 0, 64, 61
1, 10563, Control_c, 0, 64, 63
1, 10578, Control_c, 0, 64, 64
1, 10593, Control_c, 0, 64, 65
1, 10607, Control_c, 0, 64, 68
1, 10622, Control_c, 0, 64, 74
1, 10637, Control_c, 0, 64, 83
1, 10652, Control_c, 0, 64, 90
1, 10666, Control_c, 0, 64, 94
1, 10681, Control_c, 0, 64, 97
1, 10696, Control_c, 0, 64, 100
1, 10711, Control_c, 0, 64, 103
1, 10726, Control_c, 0, 64, 106
1, 10740, Control_c, 0, 64, 109
1, 10755, Control_c, 0, 64, 111
1, 10770, Control_c, 0, 64, 114
1, 10793, Control_c, 0, 64, 115
1, 10808, Control_c, 0, 64, 117
1, 10822, Control_c, 0, 64, 119
1, 10837, Control_c, 0, 64, 121
1, 10852, Control_c, 0, 64, 124
1, 10866, Control_c, 0, 64, 125
1, 10881, Control_c, 0, 64, 126
1, 10896, Control_c, 0, 64, 127
1, 10911, Control_c, 0, 64, 127
1, 11069, Note_on_c, 0, 81, 58
1, 11079, Note_on_c, 0, 52, 39
1, 11085, Note_on_c, 0, 40, 42
1, 11088, Control_c, 0, 64, 125
1, 11103, Control_c, 0, 64, 116
1, 11111, Note_off_c, 0, 80, 47
1, 11118, Control_c, 0, 64, 102
1, 11133, Control_c, 0, 64, 88
1, 11148, Control_c, 0, 64, 72
1, 11163, Control_c, 0, 64, 0
1, 11252, Control_c, 0, 64, 66
1, 11266, Control_c, 0, 64, 78
1, 11281, Control_c, 0, 64, 93
1, 11285, Note_off_c, 0, 52, 63
1, 11287, Note_off_c, 0, 81, 59
1, 11288, Note_off_c, 0, 40, 55
1, 11296, Control_c, 0, 64, 108
1, 11311, Control_c, 0, 64, 114
1, 11326, Control_c, 0, 64, 117
1, 11340, Control_c, 0, 64, 123
1, 11356, Control_c, 0, 64, 127
1, 11697, Note_on_c, 0, 57, 39
1, 11699, Note_on_c, 0, 81, 56
1, 11702, Note_on_c, 0, 64, 36
1, 11705, Note_on_c, 0, 61, 35
1, 11708, Note_on_c, 0, 69, 46
1, 11710, Note_on_c, 0, 76, 43
1, 11714, Note_on_c, 0, 73, 38
1, 11765, Note_off_c, 0, 69, 55
1, 11777, Note_off_c, 0, 73, 56
1, 11786, Note_off_c, 0, 76, 57
1, 11787, Note_off_c, 0, 81, 51
1, 11789, Note_off_c, 0, 61, 59
1, 11789, Note_off_c, 0, 64, 59
1, 11792, Note_off_c, 0, 57, 58
1, 12143, Note_on_c, 0, 81, 55
1, 12149, Note_on_c, 0, 64, 39
1, 12152, Note_on_c, 0, 61, 38
1, 12156, Note_on_c, 0, 76, 40
1, 12158, Note_on_c, 0, 69, 42
1, 12167, Note_on_c, 0, 57, 29
1, 12170, Note_on_c, 0, 73, 32
1, 12210, Note_off_c, 0, 64, 59
1, 12224, Note_off_c, 0, 69, 59
1, 12230, Note_off_c, 0, 81, 57
1, 12241, Note_off_c, 0, 73, 54
1, 12242, Note_off_c, 0, 61, 60
1, 12248, Note_off_c, 0, 76, 63
1, 12252, Note_off_c, 0, 57, 55
1, 12617, Note_on_c, 0, 45, 51
1, 12634, Note_on_c, 0, 33, 47
1, 12646, Control_c, 0, 64, 115
1, 12661, Control_c, 0, 64, 98
1, 12676, Control_c, 0, 64, 80
1, 12691, Control_c, 0, 64, 59
1, 12705, Control_c, 0, 64, 0
1, 12750, Control_c, 0, 64, 41
1, 12765, Control_c, 0, 64, 69
1, 12776, Note_off_c, 0, 45, 64
1, 12780, Note_off_c, 0, 33, 59
1, 12780, Control_c, 0, 64, 81
1, 12794, Control_c, 0, 64, 97
1, 12809, Control_c, 0, 64, 115
1, 12824, Control_c, 0, 64, 127
1, 12838, Control_c, 0, 64, 127
1, 13109, Note_on_c, 0, 64, 40
1, 13112, Note_on_c, 0, 79, 49
1, 13112, Note_on_c, 0, 72, 46
1, 13115, Note_on_c, 0, 55, 33
1, 13115, Note_on_c, 0, 60, 28
1, 13123, Note_on_c, 0, 67, 44
1, 13129, Note_on_c, 0, 76, 41
1, 13181, Note_off_c, 0, 67, 60
1, 13193, Note_off_c, 0, 79, 56
1, 13195, Note_off_c, 0, 72, 60
1, 13197, Note_off_c, 0, 76, 55
1, 13199, Note_off_c, 0, 64, 62
1, 13201, Note_off_c, 0, 60, 55
1, 13242, Note_off_c, 0, 55, 42
1, 13509, Note_on_c, 0, 79, 50
1, 13513, Note_on_c, 0, 67, 46
1, 13515, Note_on_c, 0, 60, 43
1, 13521, Note_on_c, 0, 64, 43
1, 13524, Note_on_c, 0, 72, 41
1, 13526, Note_on_c, 0, 76, 40
1, 13529, Note_on_c, 0, 55, 36
1, 13574, Note_off_c, 0, 64, 58
1, 13581, Note_off_c, 0, 67, 46
1, 13589, Note_off_c, 0, 79, 57
1, 13595, Note_off_c, 0, 72, 54
1, 13605, Note_off_c, 0, 60, 60
1, 13607, Note_off_c, 0, 76, 58
1, 13637, Note_off_c, 0, 55, 52
1, 13986, Note_on_c, 0, 50, 51
1, 13994, Note_on_c, 0, 38, 47
1, 14011, Control_c, 0, 64, 113
1, 14026, Control_c, 0, 64, 95
1, 14040, Control_c, 0, 64, 78
1, 14054, Control_c, 0, 64, 50
1, 14069, Control_c, 0, 64, 0
1, 14129, Control_c, 0, 64, 57
1, 14144, Control_c, 0, 64, 71
1, 14149, Note_off_c, 0, 50, 63
1, 14158, Note_off_c, 0, 38, 57
1, 14158, Control_c, 0, 64, 82
1, 14173, Control_c, 0, 64, 99
1, 14188, Control_c, 0, 64, 112
1, 14203, Control_c, 0, 64, 121
1, 14218, Control_c, 0, 64, 127
1, 14432, Note_on_c, 0, 79, 55
1, 14439, Note_on_c, 0, 64, 43
1, 14440, Note_on_c, 0, 57, 40
1, 14443, Note_on_c, 0, 72, 46
1, 14444, Note_on_c, 0, 67, 44
1, 14451, Note_on_c, 0, 60, 27
1, 14458, Note_on_c, 0, 76, 37
1, 14513, Note_off_c, 0, 67, 56
1, 14532, Note_off_c, 0, 64, 56
1, 14533, Note_off_c, 0, 79, 55
1, 14534, Note_off_c, 0, 72, 56
1, 14541, Note_off_c, 0, 57, 51
1, 14542, Note_off_c, 0, 76, 53
1, 14563, Note_off_c, 0, 60, 37
1, 14840, Note_on_c, 0, 79, 55
1, 14844, Note_on_c, 0, 67, 50
1, 14850, Note_on_c, 0, 72, 50
1, 14858, Note_on_c, 0, 64, 44
1, 14861, Note_on_c, 0, 76, 44
1, 14862, Note_on_c, 0, 60, 40
1, 14868, Note_on_c, 0, 57, 37
1, 14902, Note_off_c, 0, 64, 61
1, 14918, Note_off_c, 0, 67, 55
1, 14918, Note_off_c, 0, 79, 57
1, 14929, Note_off_c, 0, 60, 58
1, 14939, Note_off_c, 0, 57, 52
1, 14957, Note_off_c, 0, 72, 56
1, 14971, Note_off_c, 0, 76, 48
1, 15332, Note_on_c, 0, 44, 52
1, 15334, Note_on_c, 0, 32, 47
1, 15360, Control_c, 0, 64, 121
1, 15375, Control_c, 0, 64, 102
1, 15390, Control_c, 0, 64, 85
1, 15404, Control_c, 0, 64, 66
1, 15419, Control_c, 0, 64, 0
1, 15493, Control_c, 0, 64, 47
1, 15508, Control_c, 0, 64, 74
1, 15515, Note_off_c, 0, 32, 59
1, 15522, Control_c, 0, 64, 88
1, 15534, Note_off_c, 0, 44, 63
1, 15537, Control_c, 0, 64, 105
1, 15552, Control_c, 0, 64, 116
1, 15567, Control_c, 0, 64, 121
1, 15582, Control_c, 0, 64, 127
1, 15871, Note_on_c, 0, 72, 49
1, 15871, Note_on_c, 0, 78, 54
1, 15875, Note_on_c, 0, 76, 49
1, 15877, Note_on_c, 0, 66, 45
1, 15887, Note_on_c, 0, 64, 37
1, 15890, Note_on_c, 0, 60, 38
1, 15976, Note_off_c, 0, 78, 57
1, 15977, Note_off_c, 0, 66, 58
1, 15977, Note_off_c, 0, 76, 60
1, 15980, Note_off_c, 0, 72, 61
1, 15989, Note_off_c, 0, 60, 60
1, 15992, Note_off_c, 0, 64, 54
1, 16296, Note_on_c, 0, 66, 47
1, 16299, Note_on_c, 0, 78, 50
1, 16300, Note_on_c, 0, 71, 48
1, 16303, Note_on_c, 0, 76, 46
1, 16304, Note_on_c, 0, 59, 44
1, 16307, Note_on_c, 0, 64, 45
1, 16361, Note_off_c, 0, 64, 59
1, 16371, Note_off_c, 0, 66, 60
1, 16380, Note_off_c, 0, 78, 50
1, 16398, Note_off_c, 0, 71, 57
1, 16401, Note_off_c, 0, 59, 61
1, 16405, Note_off_c, 0, 76, 60
1, 16734, Note_on_c, 0, 49, 53
1, 16741, Note_on_c, 0, 37, 45
1, 16761, Control_c, 0, 64, 119
1, 16783, Control_c, 0, 64, 99
1, 16798, Control_c, 0, 64, 81
1, 16812, Control_c, 0, 64, 57
1, 16827, Control_c, 0, 64, 0
1, 16901, Note_off_c, 0, 37, 65
1, 16901, Control_c, 0, 64, 67
1, 16910, Note_off_c, 0, 49, 62
1, 16916, Control_c, 0, 64, 78
1, 16931, Control_c, 0, 64, 92
1, 16946, Control_c, 0, 64, 107
1, 16962, Control_c, 0, 64, 115
1, 16976, Control_c, 0, 64, 120
1, 16991, Control_c, 0, 64, 125
1, 17006, Control_c, 0, 64, 127
1, 17206, Note_on_c, 0, 78, 56
1, 17211, Note_on_c, 0, 59, 46
1, 17211, Note_on_c, 0, 66, 49
1, 17214, Note_on_c, 0, 71, 47
1, 17220, Note_on_c, 0, 64, 39
1, 17220, Note_on_c, 0, 76, 42
1, 17296, Note_off_c, 0, 76, 53
1, 17299, Note_off_c, 0, 64, 62
1, 17300, Note_off_c, 0, 71, 57
1, 17302, Note_off_c, 0, 66, 53
1, 17327, Note_off_c, 0, 59, 59
1, 17333, Note_off_c, 0, 78, 55
1, 17619, Note_on_c, 0, 78, 59
1, 17619, Note_on_c, 0, 63, 50
1, 17621, Note_on_c, 0, 66, 55
1, 17622, Note_on_c, 0, 70, 55
1, 17622, Note_on_c, 0, 75, 50
1, 17625, Note_on_c, 0, 58, 46
1, 17675, Note_off_c, 0, 63, 59
1, 17694, Note_off_c, 0, 66, 61
1, 17713, Note_off_c, 0, 70, 57
1, 17721, Note_off_c, 0, 58, 63
1, 17723, Note_off_c, 0, 78, 56
1, 17727, Note_off_c, 0, 75, 58
1, 18071, Note_on_c, 0, 42, 61
1, 18075, Note_on_c, 0, 30, 54
1, 18095, Control_c, 0, 64, 121
1, 18110, Control_c, 0, 64, 102
1, 18124, Control_c, 0, 64, 84
1, 18139, Control_c, 0, 64, 64
1, 18154, Control_c, 0, 64, 0
1, 18213, Control_c, 0, 64, 54
1, 18228, Control_c, 0, 64, 72
1, 18241, Note_off_c, 0, 30, 59
1, 18242, Control_c, 0, 64, 85
1, 18257, Control_c, 0, 64, 102
1, 18260, Note_off_c, 0, 42, 63
1, 18280, Control_c, 0, 64, 115
1, 18295, Control_c, 0, 64, 121
1, 18310, Control_c, 0, 64, 127
1, 18603, Note_on_c, 0, 78, 52
1, 18617, Note_on_c, 0, 56, 38
1, 18621, Note_on_c, 0, 68, 34
1, 18627, Note_on_c, 0, 66, 40
1, 18628, Note_on_c, 0, 61, 35
1, 18628, Note_on_c, 0, 73, 43
1, 18688, Note_off_c, 0, 73, 55
1, 18711, Note_off_c, 0, 78, 58
1, 18713, Note_off_c, 0, 61, 58
1, 18716, Note_off_c, 0, 68, 57
1, 18719, Note_off_c, 0, 56, 57
1, 18745, Note_off_c, 0, 66, 38
1, 19062, Note_on_c, 0, 76, 54
1, 19068, Note_on_c, 0, 64, 44
1, 19069, Note_on_c, 0, 68, 46
1, 19077, Note_on_c, 0, 61, 40
1, 19077, Note_on_c, 0, 73, 38
1, 19089, Note_on_c, 0, 56, 33
1, 19132, Note_off_c, 0, 61, 58
1, 19146, Note_off_c, 0, 76, 56
1, 19166, Note_off_c, 0, 56, 56
1, 19186, Note_off_c, 0, 64, 40
1, 19193, Note_off_c, 0, 68, 58
1, 19228, Note_off_c, 0, 73, 29
1, 19588, Note_on_c, 0, 43, 42
1, 19593, Note_on_c, 0, 31, 43
1, 19608, Control_c, 0, 64, 112
1, 19622, Control_c, 0, 64, 90
1, 19637, Control_c, 0, 64, 70
1, 19652, Control_c, 0, 64, 0
1, 19742, Control_c, 0, 64, 67
1, 19757, Control_c, 0, 64, 78
1, 19778, Control_c, 0, 64, 93
1, 19791, Note_off_c, 0, 31, 54
1, 19793, Control_c, 0, 64, 107
1, 19808, Control_c, 0, 64, 115
1, 19812, Note_off_c, 0, 43, 38
1, 19822, Control_c, 0, 64, 120
1, 19837, Control_c, 0, 64, 124
1, 19852, Control_c, 0, 64, 127
1, 20207, Note_on_c, 0, 61, 35
1, 20209, Note_on_c, 0, 58, 33
1, 20209, Note_on_c, 0, 70, 45
1, 20210, Note_on_c, 0, 73, 42
1, 20213, Note_on_c, 0, 63, 36
1, 20215, Note_on_c, 0, 75, 42
1, 20293, Note_off_c, 0, 61, 55
1, 20293, Note_off_c, 0, 63, 58
1, 20297, Note_off_c, 0, 58, 62
1, 20301, Note_off_c, 0, 70, 60
1, 20306, Note_off_c, 0, 75, 62
1, 20312, Note_off_c, 0, 73, 58
1, 20747, Note_on_c, 0, 63, 35
1, 20749, Note_on_c, 0, 73, 44
1, 20752, Note_on_c, 0, 70, 43
1, 20752, Note_on_c, 0, 75, 45
1, 20753, Note_on_c, 0, 61, 38
1, 20788, Note_on_c, 0, 58, 29
1, 20860, Note_off_c, 0, 61, 55
1, 20887, Note_off_c, 0, 58, 55
1, 21408, Note_on_c, 0, 37, 50
1, 21498, Control_c, 0, 64, 111
1, 21513, Control_c, 0, 64, 97
1, 21528, Control_c, 0, 64, 81
1, 21542, Control_c, 0, 64, 58
1, 21557, Control_c, 0, 64, 0
1, 21617, Control_c, 0, 64, 60
1, 21632, Control_c, 0, 64, 71
1, 21646, Control_c, 0, 64, 78
1, 21661, Control_c, 0, 64, 87
1, 21676, Control_c, 0, 64, 93
1, 21691, Control_c, 0, 64, 96
1, 21706, Control_c, 0, 64, 98
1, 21721, Control_c, 0, 64, 101
1, 21736, Control_c, 0, 64, 105
1, 21751, Control_c, 0, 64, 107
1, 21766, Control_c, 0, 64, 108
1, 21810, Control_c, 0, 64, 108
1, 21933, Note_on_c, 0, 38, 50
1, 21944, Control_c, 0, 64, 108
1, 21959, Control_c, 0, 64, 106
1, 21973, Control_c, 0, 64, 101
1, 21988, Control_c, 0, 64, 92
1, 22000, Note_off_c, 0, 37, 36
1, 22003, Control_c, 0, 64, 79
1, 22025, Control_c, 0, 64, 55
1, 22040, Control_c, 0, 64, 0
1, 22129, Control_c, 0, 64, 51
1, 22144, Control_c, 0, 64, 68
1, 22159, Control_c, 0, 64, 75
1, 22173, Control_c, 0, 64, 83
1, 22188, Control_c, 0, 64, 89
1, 22203, Control_c, 0, 64, 93
1, 22217, Control_c, 0, 64, 96
1, 22232, Control_c, 0, 64, 98
1, 22247, Control_c, 0, 64, 101
1, 22262, Control_c, 0, 64, 102
1, 22277, Control_c, 0, 64, 104
1, 22292, Control_c, 0, 64, 105
1, 22306, Control_c, 0, 64, 106
1, 22321, Control_c, 0, 64, 106
1, 22366, Control_c, 0, 64, 107
1, 22551, Note_on_c, 0, 39, 45
1, 22559, Control_c, 0, 64, 106
1, 22574, Control_c, 0, 64, 104
1, 22588, Control_c, 0, 64, 99
1, 22603, Control_c, 0, 64, 93
1, 22618, Control_c, 0, 64, 85
1, 22633, Control_c, 0, 64, 73
1, 22640, Note_off_c, 0, 38, 32
1, 22648, Control_c, 0, 64, 48
1, 22663, Control_c, 0, 64, 0
1, 22742, Note_off_c, 0, 63, 56
1, 22755, Note_off_c, 0, 75, 48
1, 22774, Control_c, 0, 64, 64
1, 22789, Control_c, 0, 64, 76
1, 22795, Note_off_c, 0, 73, 57
1, 22797, Note_off_c, 0, 70, 49
1, 22803, Control_c, 0, 64, 86
1, 22818, Control_c, 0, 64, 94
1, 22833, Control_c, 0, 64, 97
1, 22848, Control_c, 0, 64, 98
1, 22863, Control_c, 0, 64, 99
1, 22878, Control_c, 0, 64, 102
1, 22892, Control_c, 0, 64, 105
1, 22907, Control_c, 0, 64, 108
1, 22922, Control_c, 0, 64, 110
1, 22925, Note_off_c, 0, 39, 35
1, 22937, Control_c, 0, 64, 112
1, 22952, Control_c, 0, 64, 112
1, 22967, Control_c, 0, 64, 113
1, 22982, Control_c, 0, 64, 113
1, 22996, Control_c, 0, 64, 114
1, 23011, Control_c, 0, 64, 114
1, 23026, Control_c, 0, 64, 115
1, 23039, Control_c, 0, 64, 115
1, 23054, Control_c, 0, 64, 116
1, 23069, Control_c, 0, 64, 116
1, 23084, Control_c, 0, 64, 117
1, 23576, Note_on_c, 0, 83, 65
1, 23581, Control_c, 0, 64, 116
1, 23596, Control_c, 0, 64, 111
1, 23607, Note_on_c, 0, 40, 33
1, 23611, Control_c, 0, 64, 101
1, 23626, Control_c, 0, 64, 86
1, 23641, Control_c, 0, 64, 69
1, 23656, Control_c, 0, 64, 0
1, 23715, Control_c, 0, 64, 53
1, 23730, Control_c, 0, 64, 71
1, 23744, Control_c, 0, 64, 84
1, 23759, Control_c, 0, 64, 98
1, 23774, Control_c, 0, 64, 107
1, 23786, Note_off_c, 0, 40, 54
1, 23788, Control_c, 0, 64, 111
1, 23803, Control_c, 0, 64, 114
1, 23818, Control_c, 0, 64, 118
1, 23833, Control_c, 0, 64, 125
1, 23848, Control_c, 0, 64, 127
1, 24050, Note_on_c, 0, 67, 42
1, 24059, Note_on_c, 0, 64, 42
1, 24064, Note_on_c, 0, 59, 37
1, 24173, Note_off_c, 0, 67, 54
1, 24187, Note_on_c, 0, 75, 63
1, 24192, Note_off_c, 0, 59, 32
1, 24195, Note_off_c, 0, 64, 37
1, 24353, Note_on_c, 0, 67, 45
1, 24356, Note_off_c, 0, 83, 28
1, 24362, Note_on_c, 0, 64, 44
1, 24373, Note_on_c, 0, 59, 41
1, 24377, Note_on_c, 0, 71, 67
1, 24378, Note_off_c, 0, 67, 59
1, 24388, Note_off_c, 0, 64, 62
1, 24408, Note_off_c, 0, 75, 58
1, 24416, Note_off_c, 0, 59, 61
1, 24691, Note_on_c, 0, 47, 54
1, 24699, Control_c, 0, 64, 117
1, 24714, Control_c, 0, 64, 99
1, 24729, Control_c, 0, 64, 81
1, 24744, Control_c, 0, 64, 57
1, 24759, Control_c, 0, 64, 0
1, 24788, Control_c, 0, 64, 55
1, 24803, Control_c, 0, 64, 71
1, 24812, Note_off_c, 0, 47, 65
1, 24818, Control_c, 0, 64, 84
1, 24833, Control_c, 0, 64, 100
1, 24848, Control_c, 0, 64, 115
1, 24863, Control_c, 0, 64, 123
1, 24878, Control_c, 0, 64, 127
1, 25064, Note_on_c, 0, 72, 74
1, 25077, Note_on_c, 0, 66, 41
1, 25081, Note_on_c, 0, 58, 41
1, 25095, Note_on_c, 0, 63, 33
1, 25112, Note_off_c, 0, 71, 57
1, 25195, Note_off_c, 0, 58, 51
1, 25207, Note_off_c, 0, 66, 45
1, 25241, Note_off_c, 0, 63, 37
1, 25351, Note_on_c, 0, 58, 41
1, 25352, Note_on_c, 0, 63, 49
1, 25352, Note_on_c, 0, 66, 21
1, 25374, Note_off_c, 0, 63, 62
1, 25379, Note_off_c, 0, 58, 60
1, 25390, Note_off_c, 0, 66, 54
1, 25459, Note_off_c, 0, 72, 44
1, 25480, Note_on_c, 0, 60, 67
1, 25584, Note_off_c, 0, 60, 57
1, 25724, Note_on_c, 0, 60, 66
1, 25732, Note_on_c, 0, 40, 50
1, 25745, Control_c, 0, 64, 106
1, 25768, Control_c, 0, 64, 88
1, 25783, Control_c, 0, 64, 68
1, 25798, Control_c, 0, 64, 0
1, 25857, Control_c, 0, 64, 26
1, 25871, Control_c, 0, 64, 68
1, 25886, Control_c, 0, 64, 80
1, 25888, Note_off_c, 0, 40, 57
1, 25893, Note_off_c, 0, 60, 59
1, 25901, Control_c, 0, 64, 95
1, 25916, Control_c, 0, 64, 108
1, 25931, Control_c, 0, 64, 117
1, 25945, Control_c, 0, 64, 121
1, 25960, Control_c, 0, 64, 126
1, 25975, Control_c, 0, 64, 127
1, 26118, Note_on_c, 0, 64, 41
1, 26127, Note_on_c, 0, 67, 48
1, 26131, Note_on_c, 0, 59, 34
1, 26177, Note_off_c, 0, 67, 56
1, 26192, Note_off_c, 0, 59, 41
1, 26205, Note_off_c, 0, 64, 40
1, 26362, Note_on_c, 0, 64, 52
1, 26368, Note_on_c, 0, 61, 69
1, 26380, Note_on_c, 0, 67, 5
1, 26392, Note_off_c, 0, 64, 66
1, 26411, Note_off_c, 0, 67, 0
1, 26431, Poly_aftertouch_c, 0, 67, 0
1, 26460, Poly_aftertouch_c, 0, 59, 0
1, 26636, Control_c, 0, 64, 113
1, 26651, Control_c, 0, 64, 92
1, 26665, Note_on_c, 0, 45, 63
1, 26666, Control_c, 0, 64, 71
1, 26681, Control_c, 0, 64, 0
1, 26740, Control_c, 0, 64, 65
1, 26744, Note_off_c, 0, 45, 64
1, 26755, Control_c, 0, 64, 78
1, 26769, Control_c, 0, 64, 94
1, 26775, Note_off_c, 0, 61, 62
1, 26784, Control_c, 0, 64, 112
1, 26799, Control_c, 0, 64, 122
1, 26813, Control_c, 0, 64, 124
1, 26828, Control_c, 0, 64, 127
1, 26968, Note_on_c, 0, 73, 72
1, 26981, Note_on_c, 0, 64, 47
1, 26994, Note_on_c, 0, 61, 44
1, 27001, Note_on_c, 0, 66, 42
1, 27053, Note_off_c, 0, 66, 48
1, 27065, Note_off_c, 0, 61, 45
1, 27081, Note_off_c, 0, 64, 52
1, 27222, Note_on_c, 0, 64, 54
1, 27228, Note_on_c, 0, 66, 38
1, 27233, Note_on_c, 0, 61, 47
1, 27245, Note_off_c, 0, 64, 64
1, 27262, Note_off_c, 0, 66, 55
1, 27277, Note_off_c, 0, 61, 63
1, 27355, Note_on_c, 0, 71, 67
1, 27370, Note_off_c, 0, 73, 54
1, 27556, Note_on_c, 0, 72, 71
1, 27563, Control_c, 0, 64, 104
1, 27567, Note_off_c, 0, 71, 57
1, 27571, Note_on_c, 0, 40, 52
1, 27577, Control_c, 0, 64, 81
1, 27592, Control_c, 0, 64, 47
1, 27607, Control_c, 0, 64, 0
1, 27666, Control_c, 0, 64, 29
1, 27681, Control_c, 0, 64, 69
1, 27683, Note_off_c, 0, 40, 65
1, 27696, Control_c, 0, 64, 82
1, 27710, Control_c, 0, 64, 99
1, 27725, Control_c, 0, 64, 113
1, 27740, Control_c, 0, 64, 119
1, 27754, Control_c, 0, 64, 125
1, 27769, Control_c, 0, 64, 127
1, 27875, Note_on_c, 0, 64, 43
1, 27883, Note_on_c, 0, 67, 41
1, 27886, Note_on_c, 0, 60, 40
1, 27932, Note_off_c, 0, 64, 53
1, 27932, Note_off_c, 0, 67, 43
1, 27940, Note_off_c, 0, 60, 45
1, 27982, Note_on_c, 0, 76, 69
1, 27990, Note_off_c, 0, 72, 56
1, 28112, Note_on_c, 0, 60, 44
1, 28120, Note_on_c, 0, 64, 33
1, 28124, Note_on_c, 0, 79, 73
1, 28131, Note_off_c, 0, 76, 63
1, 28155, Note_off_c, 0, 60, 62
1, 28155, Note_off_c, 0, 64, 44
1, 28182, Poly_aftertouch_c, 0, 67, 0
1, 28234, Note_off_c, 0, 79, 61
1, 28234, Note_on_c, 0, 83, 74
1, 28315, Note_off_c, 0, 83, 58
1, 28404, Note_on_c, 0, 83, 73
1, 28410, Note_on_c, 0, 47, 55
1, 28429, Control_c, 0, 64, 102
1, 28444, Control_c, 0, 64, 82
1, 28458, Control_c, 0, 64, 60
1, 28473, Control_c, 0, 64, 0
1, 28503, Control_c, 0, 64, 40
1, 28518, Control_c, 0, 64, 69
1, 28532, Note_off_c, 0, 47, 64
1, 28532, Control_c, 0, 64, 82
1, 28547, Control_c, 0, 64, 95
1, 28562, Control_c, 0, 64, 107
1, 28577, Control_c, 0, 64, 113
1, 28592, Control_c, 0, 64, 117
1, 28607, Control_c, 0, 64, 121
1, 28622, Control_c, 0, 64, 127
1, 28716, Note_on_c, 0, 64, 40
1, 28717, Note_on_c, 0, 67, 44
1, 28720, Note_on_c, 0, 59, 44
1, 28771, Note_off_c, 0, 67, 47
1, 28779, Note_off_c, 0, 64, 47
1, 28784, Note_off_c, 0, 59, 43
1, 28829, Note_on_c, 0, 84, 72
1, 28855, Note_off_c, 0, 83, 46
1, 28971, Note_on_c, 0, 64, 25
1, 28981, Note_on_c, 0, 88, 76
1, 28995, Note_off_c, 0, 84, 61
1, 29011, Note_off_c, 0, 64, 40
1, 29022, Poly_aftertouch_c, 0, 59, 127
1, 29063, Poly_aftertouch_c, 0, 59, 0
1, 29093, Note_off_c, 0, 88, 59
1, 29108, Note_on_c, 0, 91, 80
1, 29185, Note_off_c, 0, 91, 57
1, 29362, Note_on_c, 0, 39, 43
1, 29365, Note_on_c, 0, 91, 74
1, 29386, Control_c, 0, 64, 118
1, 29400, Control_c, 0, 64, 95
1, 29415, Control_c, 0, 64, 74
1, 29430, Control_c, 0, 64, 0
1, 29474, Control_c, 0, 64, 58
1, 29488, Note_off_c, 0, 39, 63
1, 29489, Control_c, 0, 64, 73
1, 29512, Control_c, 0, 64, 86
1, 29527, Control_c, 0, 64, 103
1, 29542, Control_c, 0, 64, 115
1, 29556, Control_c, 0, 64, 118
1, 29571, Control_c, 0, 64, 120
1, 29586, Control_c, 0, 64, 126
1, 29601, Control_c, 0, 64, 127
1, 29731, Note_on_c, 0, 67, 45
1, 29743, Note_on_c, 0, 58, 37
1, 29753, Note_on_c, 0, 63, 41
1, 29814, Note_off_c, 0, 58, 55
1, 29820, Note_off_c, 0, 63, 47
1, 29826, Note_off_c, 0, 67, 37
1, 29997, Note_on_c, 0, 67, 46
1, 30005, Note_on_c, 0, 63, 41
1, 30019, Note_on_c, 0, 58, 28
1, 30026, Note_off_c, 0, 67, 56
1, 30040, Note_off_c, 0, 63, 59
1, 30056, Note_off_c, 0, 58, 53
1, 30300, Note_on_c, 0, 89, 67
1, 30305, Control_c, 0, 64, 108
1, 30312, Note_on_c, 0, 46, 50
1, 30320, Control_c, 0, 64, 89
1, 30335, Control_c, 0, 64, 69
1, 30342, Note_off_c, 0, 91, 55
1, 30350, Control_c, 0, 64, 0
1, 30409, Control_c, 0, 64, 55
1, 30424, Control_c, 0, 64, 71
1, 30429, Note_off_c, 0, 46, 63
1, 30438, Control_c, 0, 64, 85
1, 30453, Control_c, 0, 64, 99
1, 30468, Control_c, 0, 64, 109
1, 30483, Control_c, 0, 64, 114
1, 30498, Control_c, 0, 64, 117
1, 30512, Control_c, 0, 64, 120
1, 30527, Control_c, 0, 64, 125
1, 30543, Control_c, 0, 64, 127
1, 30610, Note_on_c, 0, 65, 41
1, 30615, Note_on_c, 0, 62, 40
1, 30619, Note_on_c, 0, 58, 40
1, 30684, Note_off_c, 0, 65, 58
1, 30688, Note_off_c, 0, 62, 52
1, 30701, Note_off_c, 0, 89, 44
1, 30702, Note_off_c, 0, 58, 59
1, 30923, Note_on_c, 0, 65, 37
1, 30934, Note_on_c, 0, 58, 33
1, 30935, Note_on_c, 0, 62, 37
1, 30953, Note_off_c, 0, 65, 55
1, 30969, Note_off_c, 0, 62, 57
1, 30995, Note_off_c, 0, 58, 60
1, 31361, Note_on_c, 0, 88, 68
1, 31381, Control_c, 0, 64, 111
1, 31388, Note_on_c, 0, 33, 43
1, 31396, Control_c, 0, 64, 90
1, 31410, Control_c, 0, 64, 69
1, 31425, Control_c, 0, 64, 0
1, 31484, Control_c, 0, 64, 67
1, 31499, Control_c, 0, 64, 80
1, 31514, Control_c, 0, 64, 93
1, 31529, Control_c, 0, 64, 105
1, 31531, Note_off_c, 0, 33, 52
1, 31544, Control_c, 0, 64, 111
1, 31558, Control_c, 0, 64, 113
1, 31573, Control_c, 0, 64, 117
1, 31588, Control_c, 0, 64, 122
1, 31603, Control_c, 0, 64, 127
1, 31618, Control_c, 0, 64, 127
1, 31762, Note_on_c, 0, 52, 41
1, 31765, Note_on_c, 0, 57, 38
1, 31768, Note_on_c, 0, 60, 39
1, 31813, Note_off_c, 0, 52, 60
1, 31826, Note_off_c, 0, 60, 50
1, 31826, Note_off_c, 0, 57, 52
1, 31863, Note_on_c, 0, 80, 69
1, 31971, Note_off_c, 0, 88, 31
1, 32001, Note_on_c, 0, 57, 42
1, 32008, Note_on_c, 0, 60, 18
1, 32023, Note_on_c, 0, 76, 74
1, 32027, Note_off_c, 0, 57, 56
1, 32032, Note_on_c, 0, 52, 25
1, 32035, Note_off_c, 0, 80, 61
1, 32043, Note_off_c, 0, 60, 41
1, 32072, Note_off_c, 0, 52, 40
1, 32278, Control_c, 0, 64, 108
1, 32287, Note_on_c, 0, 40, 64
1, 32293, Control_c, 0, 64, 89
1, 32307, Control_c, 0, 64, 68
1, 32322, Control_c, 0, 64, 0
1, 32367, Control_c, 0, 64, 63
1, 32369, Note_off_c, 0, 40, 64
1, 32381, Control_c, 0, 64, 72
1, 32396, Control_c, 0, 64, 82
1, 32411, Control_c, 0, 64, 94
1, 32425, Control_c, 0, 64, 102
1, 32440, Control_c, 0, 64, 108
1, 32455, Control_c, 0, 64, 111
1, 32470, Control_c, 0, 64, 115
1, 32485, Control_c, 0, 64, 121
1, 32507, Control_c, 0, 64, 127
1, 32583, Note_on_c, 0, 77, 77
1, 32595, Note_on_c, 0, 51, 38
1, 32599, Note_on_c, 0, 59, 38
1, 32600, Note_on_c, 0, 56, 44
1, 32610, Note_off_c, 0, 76, 57
1, 32702, Note_off_c, 0, 51, 49
1, 32711, Note_off_c, 0, 59, 41
1, 32718, Note_off_c, 0, 56, 53
1, 32837, Note_on_c, 0, 59, 42
1, 32841, Note_on_c, 0, 51, 52
1, 32845, Note_on_c, 0, 56, 57
1, 32868, Note_off_c, 0, 59, 49
1, 32873, Note_off_c, 0, 56, 64
1, 32885, Note_off_c, 0, 51, 62
1, 32942, Note_off_c, 0, 77, 37
1, 32955, Note_on_c, 0, 65, 75
1, 33055, Note_off_c, 0, 65, 59
1, 33183, Note_on_c, 0, 65, 76
1, 33186, Note_on_c, 0, 33, 49
1, 33204, Control_c, 0, 64, 106
1, 33219, Control_c, 0, 64, 85
1, 33234, Control_c, 0, 64, 65
1, 33256, Control_c, 0, 64, 0
1, 33301, Control_c, 0, 64, 60
1, 33311, Note_off_c, 0, 33, 62
1, 33316, Control_c, 0, 64, 72
1, 33330, Control_c, 0, 64, 82
1, 33345, Control_c, 0, 64, 95
1, 33360, Control_c, 0, 64, 106
1, 33374, Control_c, 0, 64, 114
1, 33389, Control_c, 0, 64, 118
1, 33404, Control_c, 0, 64, 122
1, 33409, Note_off_c, 0, 65, 58
1, 33419, Control_c, 0, 64, 127
1, 33527, Note_on_c, 0, 60, 44
1, 33531, Note_on_c, 0, 57, 34
1, 33537, Note_on_c, 0, 52, 37
1, 33585, Note_off_c, 0, 52, 47
1, 33586, Note_off_c, 0, 60, 52
1, 33594, Note_off_c, 0, 57, 50
1, 33744, Note_on_c, 0, 57, 49
1, 33758, Note_on_c, 0, 66, 71
1, 33764, Note_on_c, 0, 52, 41
1, 33773, Note_off_c, 0, 57, 63
1, 33794, Note_off_c, 0, 52, 58
1, 33817, Poly_aftertouch_c, 0, 60, 0
1, 34020, Control_c, 0, 64, 126
1, 34035, Control_c, 0, 64, 102
1, 34041, Note_on_c, 0, 32, 66
1, 34050, Control_c, 0, 64, 83
1, 34065, Control_c, 0, 64, 61
1, 34079, Control_c, 0, 64, 0
1, 34109, Control_c, 0, 64, 27
1, 34124, Control_c, 0, 64, 67
1, 34125, Note_off_c, 0, 32, 63
1, 34139, Control_c, 0, 64, 79
1, 34153, Control_c, 0, 64, 93
1, 34168, Control_c, 0, 64, 111
1, 34183, Control_c, 0, 64, 118
1, 34197, Control_c, 0, 64, 120
1, 34212, Control_c, 0, 64, 123
1, 34227, Control_c, 0, 64, 127
1, 34366, Note_on_c, 0, 78, 75
1, 34372, Note_on_c, 0, 62, 44
1, 34383, Note_on_c, 0, 58, 44
1, 34390, Note_on_c, 0, 52, 33
1, 34443, Note_off_c, 0, 52, 45
1, 34455, Note_off_c, 0, 66, 54
1, 34458, Note_off_c, 0, 62, 55
1, 34467, Note_off_c, 0, 58, 51
1, 34618, Note_on_c, 0, 62, 50
1, 34620, Note_on_c, 0, 58, 52
1, 34643, Note_off_c, 0, 78, 60
1, 34644, Note_off_c, 0, 62, 56
1, 34659, Note_off_c, 0, 58, 62
1, 34663, Note_on_c, 0, 52, 25
1, 34694, Note_off_c, 0, 52, 50
1, 34761, Note_on_c, 0, 78, 72
1, 34839, Note_off_c, 0, 78, 61
1, 35004, Note_on_c, 0, 78, 65
1, 35009, Note_on_c, 0, 37, 46
1, 35034, Control_c, 0, 64, 101
1, 35049, Control_c, 0, 64, 81
1, 35064, Control_c, 0, 64, 56
1, 35078, Control_c, 0, 64, 0
1, 35138, Control_c, 0, 64, 65
1, 35138, Note_off_c, 0, 37, 61
1, 35152, Control_c, 0, 64, 76
1, 35167, Control_c, 0, 64, 90
1, 35182, Control_c, 0, 64, 104
1, 35197, Control_c, 0, 64, 111
1, 35212, Control_c, 0, 64, 114
1, 35226, Control_c, 0, 64, 117
1, 35241, Control_c, 0, 64, 121
1, 35256, Control_c, 0, 64, 126
1, 35271, Control_c, 0, 64, 127
1, 35359, Note_on_c, 0, 63, 46
1, 35368, Note_on_c, 0, 51, 37
1, 35370, Note_on_c, 0, 58, 37
1, 35403, Note_off_c, 0, 63, 44
1, 35421, Note_off_c, 0, 51, 44
1, 35439, Note_off_c, 0, 58, 40
1, 35459, Note_on_c, 0, 79, 63
1, 35476, Note_off_c, 0, 78, 58
1, 35592, Note_on_c, 0, 80, 64
1, 35592, Note_off_c, 0, 79, 59
1, 35596, Note_on_c, 0, 58, 47
1, 35616, Note_on_c, 0, 51, 38
1, 35620, Note_off_c, 0, 58, 61
1, 35654, Note_off_c, 0, 51, 61
1, 35663, Poly_aftertouch_c, 0, 63, 0
1, 35703, Note_on_c, 0, 79, 73
1, 35732, Note_off_c, 0, 80, 57
1, 35872, Control_c, 0, 64, 113
1, 35875, Note_on_c, 0, 37, 48
1, 35878, Note_on_c, 0, 78, 69
1, 35878, Note_off_c, 0, 79, 55
1, 35887, Control_c, 0, 64, 96
1, 35902, Control_c, 0, 64, 73
1, 35916, Control_c, 0, 64, 0
1, 35961, Control_c, 0, 64, 60
1, 35976, Control_c, 0, 64, 75
1, 35979, Note_off_c, 0, 37, 65
1, 35991, Control_c, 0, 64, 88
1, 36005, Control_c, 0, 64, 102
1, 36020, Control_c, 0, 64, 111
1, 36035, Control_c, 0, 64, 115
1, 36050, Control_c, 0, 64, 116
1, 36065, Control_c, 0, 64, 118
1, 36080, Control_c, 0, 64, 122
1, 36095, Control_c, 0, 64, 125
1, 36110, Control_c, 0, 64, 127
1, 36125, Control_c, 0, 64, 127
1, 36199, Note_on_c, 0, 55, 46
1, 36199, Note_on_c, 0, 64, 45
1, 36207, Note_on_c, 0, 59, 40
1, 36271, Note_off_c, 0, 55, 54
1, 36284, Note_off_c, 0, 64, 53
1, 36288, Note_off_c, 0, 59, 47
1, 36322, Note_on_c, 0, 79, 62
1, 36342, Note_off_c, 0, 78, 58
1, 36451, Note_on_c, 0, 80, 65
1, 36453, Note_on_c, 0, 59, 36
1, 36453, Note_off_c, 0, 79, 59
1, 36474, Note_on_c, 0, 55, 35
1, 36486, Note_off_c, 0, 59, 50
1, 36512, Note_off_c, 0, 55, 52
1, 36513, Poly_aftertouch_c, 0, 64, 0
1, 36569, Note_on_c, 0, 79, 71
1, 36593, Note_off_c, 0, 80, 55
1, 36769, Note_on_c, 0, 78, 69
1, 36769, Control_c, 0, 64, 121
1, 36778, Note_off_c, 0, 79, 53
1, 36784, Control_c, 0, 64, 108
1, 36785, Note_on_c, 0, 36, 46
1, 36798, Control_c, 0, 64, 93
1, 36813, Control_c, 0, 64, 74
1, 36828, Control_c, 0, 64, 0
1, 36892, Note_off_c, 0, 36, 61
1, 36903, Control_c, 0, 64, 61
1, 36918, Control_c, 0, 64, 75
1, 36933, Control_c, 0, 64, 89
1, 36948, Control_c, 0, 64, 107
1, 36963, Control_c, 0, 64, 115
1, 36977, Control_c, 0, 64, 118
1, 37000, Control_c, 0, 64, 120
1, 37015, Control_c, 0, 64, 123
1, 37029, Control_c, 0, 64, 127
1, 37040, Note_off_c, 0, 78, 59
1, 37148, Note_on_c, 0, 60, 37
1, 37150, Note_on_c, 0, 65, 38
1, 37155, Note_on_c, 0, 55, 39
1, 37414, Note_off_c, 0, 65, 42
1, 37454, Note_on_c, 0, 79, 53
1, 37467, Note_on_c, 0, 62, 35
1, 37488, Control_c, 0, 64, 125
1, 37503, Control_c, 0, 64, 119
1, 37518, Control_c, 0, 64, 112
1, 37533, Control_c, 0, 64, 104
1, 37547, Control_c, 0, 64, 96
1, 37562, Control_c, 0, 64, 87
1, 37576, Note_on_c, 0, 86, 58
1, 37577, Control_c, 0, 64, 78
1, 37592, Control_c, 0, 64, 67
1, 37594, Note_off_c, 0, 79, 33
1, 37607, Control_c, 0, 64, 0
1, 37770, Note_off_c, 0, 86, 55
1, 37774, Note_off_c, 0, 62, 40
1, 37779, Note_on_c, 0, 64, 39
1, 37787, Note_on_c, 0, 84, 60
1, 37897, Control_c, 0, 64, 58
1, 37912, Control_c, 0, 64, 76
1, 37926, Control_c, 0, 64, 89
1, 37941, Control_c, 0, 64, 106
1, 37956, Control_c, 0, 64, 120
1, 37970, Control_c, 0, 64, 127
1, 37991, Note_off_c, 0, 64, 57
1, 38011, Note_off_c, 0, 55, 42
1, 38032, Note_off_c, 0, 84, 58
1, 38035, Note_off_c, 0, 60, 51
1, 38238, Control_c, 0, 64, 118
1, 38252, Control_c, 0, 64, 106
1, 38267, Control_c, 0, 64, 96
1, 38282, Control_c, 0, 64, 83
1, 38297, Control_c, 0, 64, 69
1, 38312, Control_c, 0, 64, 0
1, 38554, Note_on_c, 0, 84, 75
1, 38675, Control_c, 0, 64, 58
1, 38690, Control_c, 0, 64, 65
1, 38705, Control_c, 0, 64, 67
1, 38720, Control_c, 0, 64, 70
1, 38735, Control_c, 0, 64, 74
1, 38749, Control_c, 0, 64, 81
1, 38764, Control_c, 0, 64, 90
1, 38779, Control_c, 0, 64, 97
1, 38793, Control_c, 0, 64, 104
1, 38808, Control_c, 0, 64, 111
1, 38823, Control_c, 0, 64, 119
1, 38838, Control_c, 0, 64, 127
1, 38858, Note_on_c, 0, 41, 50
1, 38903, Note_off_c, 0, 84, 63
1, 38912, Note_off_c, 0, 41, 66
1, 39192, Note_on_c, 0, 68, 49
1, 39201, Note_on_c, 0, 65, 46
1, 39206, Note_on_c, 0, 60, 35
1, 39254, Note_off_c, 0, 60, 47
1, 39262, Note_off_c, 0, 68, 56
1, 39264, Note_off_c, 0, 65, 58
1, 39302, Note_on_c, 0, 76, 65
1, 39404, Note_on_c, 0, 65, 37
1, 39405, Note_on_c, 0, 60, 44
1, 39411, Note_on_c, 0, 72, 68
1, 39416, Note_off_c, 0, 76, 59
1, 39431, Note_off_c, 0, 60, 55
1, 39431, Note_off_c, 0, 65, 55
1, 39487, Note_off_c, 0, 72, 63
1, 39514, Note_on_c, 0, 64, 68
1, 39646, Control_c, 0, 64, 102
1, 39659, Note_off_c, 0, 64, 64
1, 39661, Control_c, 0, 64, 81
1, 39665, Note_on_c, 0, 60, 68
1, 39666, Note_on_c, 0, 48, 54
1, 39676, Control_c, 0, 64, 49
1, 39690, Control_c, 0, 64, 0
1, 39735, Control_c, 0, 64, 62
1, 39745, Note_off_c, 0, 60, 62
1, 39749, Control_c, 0, 64, 74
1, 39764, Control_c, 0, 64, 87
1, 39774, Note_off_c, 0, 48, 64
1, 39779, Control_c, 0, 64, 103
1, 39794, Control_c, 0, 64, 115
1, 39809, Control_c, 0, 64, 121
1, 39824, Control_c, 0, 64, 126
1, 39839, Control_c, 0, 64, 127
1, 39970, Note_on_c, 0, 73, 73
1, 40005, Note_on_c, 0, 67, 48
1, 40009, Note_on_c, 0, 64, 41
1, 40012, Note_on_c, 0, 59, 35
1, 40057, Note_off_c, 0, 67, 55
1, 40061, Note_off_c, 0, 59, 43
1, 40088, Note_off_c, 0, 64, 44
1, 40227, Note_on_c, 0, 64, 60
1, 40231, Note_on_c, 0, 67, 47
1, 40253, Note_off_c, 0, 67, 58
1, 40256, Note_on_c, 0, 59, 30
1, 40257, Note_off_c, 0, 64, 66
1, 40289, Note_off_c, 0, 59, 46
1, 40304, Note_off_c, 0, 73, 54
1, 40324, Note_on_c, 0, 61, 73
1, 40399, Note_off_c, 0, 61, 59
1, 40484, Control_c, 0, 64, 114
1, 40499, Control_c, 0, 64, 93
1, 40512, Note_on_c, 0, 41, 53
1, 40512, Note_on_c, 0, 61, 76
1, 40513, Control_c, 0, 64, 70
1, 40528, Control_c, 0, 64, 0
1, 40587, Control_c, 0, 64, 70
1, 40598, Note_off_c, 0, 41, 65
1, 40602, Control_c, 0, 64, 83
1, 40617, Control_c, 0, 64, 100
1, 40632, Control_c, 0, 64, 115
1, 40632, Note_off_c, 0, 61, 60
1, 40647, Control_c, 0, 64, 122
1, 40662, Control_c, 0, 64, 125
1, 40677, Control_c, 0, 64, 127
1, 40820, Note_on_c, 0, 68, 58
1, 40830, Note_on_c, 0, 65, 47
1, 40843, Note_on_c, 0, 60, 35
1, 40858, Note_off_c, 0, 68, 62
1, 40879, Note_off_c, 0, 65, 59
1, 40882, Note_off_c, 0, 60, 47
1, 41055, Control_c, 0, 64, 113
1, 41063, Note_on_c, 0, 74, 73
1, 41070, Control_c, 0, 64, 89
1, 41071, Note_on_c, 0, 68, 52
1, 41075, Note_on_c, 0, 65, 52
1, 41082, Note_on_c, 0, 60, 52
1, 41085, Control_c, 0, 64, 69
1, 41093, Note_off_c, 0, 68, 61
1, 41100, Control_c, 0, 64, 46
1, 41115, Control_c, 0, 64, 63
1, 41121, Note_off_c, 0, 65, 64
1, 41130, Control_c, 0, 64, 72
1, 41144, Control_c, 0, 64, 83
1, 41156, Note_off_c, 0, 60, 62
1, 41159, Control_c, 0, 64, 96
1, 41174, Control_c, 0, 64, 102
1, 41188, Control_c, 0, 64, 105
1, 41203, Control_c, 0, 64, 108
1, 41218, Control_c, 0, 64, 111
1, 41233, Control_c, 0, 64, 116
1, 41248, Control_c, 0, 64, 123
1, 41262, Control_c, 0, 64, 127
1, 41321, Control_c, 0, 64, 120
1, 41328, Note_on_c, 0, 46, 61
1, 41336, Control_c, 0, 64, 99
1, 41351, Control_c, 0, 64, 74
1, 41366, Control_c, 0, 64, 0
1, 41410, Control_c, 0, 64, 65
1, 41425, Control_c, 0, 64, 78
1, 41432, Note_on_c, 0, 63, 73
1, 41434, Note_off_c, 0, 46, 63
1, 41440, Control_c, 0, 64, 95
1, 41455, Control_c, 0, 64, 109
1, 41469, Control_c, 0, 64, 116
1, 41471, Note_off_c, 0, 74, 61
1, 41474, Note_off_c, 0, 63, 62
1, 41492, Control_c, 0, 64, 117
1, 41507, Control_c, 0, 64, 118
1, 41521, Control_c, 0, 64, 121
1, 41536, Control_c, 0, 64, 122
1, 41551, Control_c, 0, 64, 124
1, 41566, Control_c, 0, 64, 127
1, 41581, Control_c, 0, 64, 127
1, 41623, Note_on_c, 0, 75, 75
1, 41640, Control_c, 0, 64, 116
1, 41642, Note_on_c, 0, 66, 53
1, 41652, Note_on_c, 0, 62, 46
1, 41655, Control_c, 0, 64, 96
1, 41656, Note_on_c, 0, 67, 45
1, 41669, Control_c, 0, 64, 76
1, 41684, Control_c, 0, 64, 0
1, 41730, Control_c, 0, 64, 70
1, 41744, Control_c, 0, 64, 82
1, 41759, Control_c, 0, 64, 97
1, 41767, Note_off_c, 0, 67, 56
1, 41774, Note_off_c, 0, 66, 58
1, 41774, Control_c, 0, 64, 107
1, 41789, Control_c, 0, 64, 112
1, 41800, Note_off_c, 0, 62, 46
1, 41804, Control_c, 0, 64, 117
1, 41818, Control_c, 0, 64, 127
1, 41894, Note_on_c, 0, 67, 58
1, 41897, Note_on_c, 0, 64, 63
1, 41904, Note_on_c, 0, 62, 50
1, 41914, Note_off_c, 0, 67, 64
1, 41929, Note_off_c, 0, 64, 66
1, 41942, Note_off_c, 0, 62, 62
1, 41970, Note_off_c, 0, 75, 60
1, 41997, Note_on_c, 0, 76, 78
1, 42090, Note_off_c, 0, 76, 59
1, 42198, Note_on_c, 0, 76, 77
1, 42200, Note_on_c, 0, 41, 55
1, 42203, Control_c, 0, 64, 98
1, 42218, Control_c, 0, 64, 77
1, 42241, Control_c, 0, 64, 0
1, 42285, Control_c, 0, 64, 70
1, 42300, Control_c, 0, 64, 83
1, 42302, Note_off_c, 0, 41, 65
1, 42315, Control_c, 0, 64, 103
1, 42330, Control_c, 0, 64, 114
1, 42344, Control_c, 0, 64, 120
1, 42359, Control_c, 0, 64, 124
1, 42374, Control_c, 0, 64, 127
1, 42499, Note_on_c, 0, 61, 49
1, 42501, Note_on_c, 0, 65, 50
1, 42506, Note_on_c, 0, 68, 49
1, 42508, Control_c, 0, 67, 113
1, 42524, Control_c, 0, 67, 91
1, 42539, Control_c, 0, 67, 64
1, 42554, Control_c, 0, 67, 35
1, 42564, Note_off_c, 0, 61, 49
1, 42566, Note_off_c, 0, 68, 58
1, 42568, Control_c, 0, 67, 10
1, 42575, Note_off_c, 0, 65, 50
1, 42583, Control_c, 0, 67, 0
1, 42594, Note_on_c, 0, 77, 75
1, 42629, Note_off_c, 0, 76, 62
1, 42710, Note_on_c, 0, 80, 75
1, 42719, Note_on_c, 0, 61, 54
1, 42724, Note_off_c, 0, 77, 58
1, 42725, Note_on_c, 0, 65, 46
1, 42748, Note_off_c, 0, 65, 60
1, 42763, Note_off_c, 0, 61, 60
1, 42812, Note_on_c, 0, 84, 80
1, 42812, Note_off_c, 0, 80, 63
1, 42884, Note_off_c, 0, 84, 63
1, 42972, Note_on_c, 0, 48, 58
1, 42972, Note_on_c, 0, 84, 80
1, 42990, Control_c, 0, 64, 120
1, 43005, Control_c, 0, 64, 94
1, 43020, Control_c, 0, 64, 73
1, 43034, Control_c, 0, 64, 16
1, 43049, Control_c, 0, 64, 0
1, 43064, Control_c, 0, 64, 68
1, 43072, Note_off_c, 0, 48, 65
1, 43079, Control_c, 0, 64, 82
1, 43094, Control_c, 0, 64, 101
1, 43109, Control_c, 0, 64, 122
1, 43124, Control_c, 0, 64, 127
1, 43255, Note_on_c, 0, 68, 67
1, 43269, Note_on_c, 0, 60, 48
1, 43270, Note_on_c, 0, 65, 52
1, 43305, Note_off_c, 0, 68, 58
1, 43315, Note_off_c, 0, 60, 58
1, 43329, Note_off_c, 0, 65, 55
1, 43350, Note_on_c, 0, 85, 75
1, 43389, Note_off_c, 0, 84, 59
1, 43461, Note_on_c, 0, 65, 64
1, 43479, Note_on_c, 0, 89, 81
1, 43488, Note_on_c, 0, 60, 42
1, 43491, Note_off_c, 0, 65, 68
1, 43494, Note_off_c, 0, 85, 65
1, 43517, Note_off_c, 0, 60, 53
1, 43523, Poly_aftertouch_c, 0, 68, 127
1, 43544, Poly_aftertouch_c, 0, 68, 0
1, 43584, Note_on_c, 0, 92, 88
1, 43604, Note_off_c, 0, 89, 62
1, 43656, Note_off_c, 0, 92, 63
1, 43778, Note_on_c, 0, 92, 94
1, 43783, Control_c, 0, 64, 122
1, 43789, Note_on_c, 0, 40, 68
1, 43798, Control_c, 0, 64, 93
1, 43812, Control_c, 0, 64, 69
1, 43827, Control_c, 0, 64, 0
1, 43857, Control_c, 0, 64, 36
1, 43869, Note_off_c, 0, 40, 64
1, 43872, Control_c, 0, 64, 70
1, 43887, Control_c, 0, 64, 85
1, 43902, Control_c, 0, 64, 107
1, 43916, Control_c, 0, 64, 127
1, 44103, Note_on_c, 0, 59, 45
1, 44107, Note_on_c, 0, 68, 52
1, 44111, Note_on_c, 0, 64, 50
1, 44142, Note_off_c, 0, 59, 47
1, 44143, Note_off_c, 0, 68, 53
1, 44155, Note_off_c, 0, 64, 59
1, 44343, Note_on_c, 0, 68, 61
1, 44349, Note_on_c, 0, 64, 57
1, 44355, Note_on_c, 0, 59, 52
1, 44362, Note_off_c, 0, 68, 66
1, 44380, Note_off_c, 0, 64, 66
1, 44391, Note_off_c, 0, 59, 63
1, 44620, Control_c, 0, 64, 117
1, 44626, Note_on_c, 0, 90, 87
1, 44627, Note_on_c, 0, 47, 77
1, 44635, Control_c, 0, 64, 90
1, 44650, Control_c, 0, 64, 67
1, 44665, Control_c, 0, 64, 0
1, 44680, Note_off_c, 0, 92, 61
1, 44695, Control_c, 0, 64, 61
1, 44710, Control_c, 0, 64, 74
1, 44713, Note_off_c, 0, 47, 64
1, 44725, Control_c, 0, 64, 86
1, 44739, Control_c, 0, 64, 102
1, 44754, Control_c, 0, 64, 116
1, 44769, Control_c, 0, 64, 127
1, 44927, Note_on_c, 0, 66, 67
1, 44931, Note_on_c, 0, 63, 63
1, 44937, Note_on_c, 0, 59, 60
1, 44963, Note_off_c, 0, 66, 61
1, 44974, Note_off_c, 0, 63, 58
1, 44981, Note_off_c, 0, 59, 56
1, 45102, Note_off_c, 0, 90, 51
1, 45213, Note_on_c, 0, 66, 69
1, 45213, Note_on_c, 0, 63, 69
1, 45229, Note_on_c, 0, 59, 61
1, 45239, Note_off_c, 0, 66, 68
1, 45251, Note_off_c, 0, 63, 66
1, 45266, Note_off_c, 0, 59, 62
1, 45562, Control_c, 0, 64, 118
1, 45567, Note_on_c, 0, 33, 74
1, 45567, Note_on_c, 0, 89, 99
1, 45577, Control_c, 0, 64, 89
1, 45592, Control_c, 0, 64, 65
1, 45607, Control_c, 0, 64, 0
1, 45652, Control_c, 0, 64, 61
1, 45654, Note_off_c, 0, 33, 60
1, 45667, Control_c, 0, 64, 75
1, 45678, Note_on_c, 0, 40, 73
1, 45681, Control_c, 0, 64, 90
1, 45696, Control_c, 0, 64, 116
1, 45712, Control_c, 0, 64, 127
1, 45721, Note_off_c, 0, 40, 65
1, 45816, Note_on_c, 0, 48, 83
1, 45866, Note_off_c, 0, 48, 64
1, 45902, Note_on_c, 0, 87, 85
1, 45909, Note_on_c, 0, 52, 82
1, 45930, Note_off_c, 0, 89, 62
1, 45946, Note_off_c, 0, 52, 62
1, 45953, Note_off_c, 0, 87, 64
1, 46037, Note_on_c, 0, 88, 93
1, 46044, Note_on_c, 0, 60, 78
1, 46051, Note_on_c, 0, 57, 66
1, 46066, Note_off_c, 0, 60, 70
1, 46081, Note_off_c, 0, 57, 64
1, 46287, Note_on_c, 0, 38, 81
1, 46297, Control_c, 0, 64, 103
1, 46311, Control_c, 0, 64, 80
1, 46326, Control_c, 0, 64, 0
1, 46349, Note_off_c, 0, 38, 63
1, 46371, Control_c, 0, 64, 68
1, 46385, Control_c, 0, 64, 82
1, 46397, Note_on_c, 0, 84, 85
1, 46400, Control_c, 0, 64, 101
1, 46414, Note_off_c, 0, 88, 59
1, 46415, Control_c, 0, 64, 127
1, 46449, Note_off_c, 0, 84, 64
1, 46534, Note_on_c, 0, 85, 80
1, 46537, Note_on_c, 0, 61, 72
1, 46547, Note_on_c, 0, 53, 48
1, 46548, Note_on_c, 0, 56, 58
1, 46592, Note_off_c, 0, 61, 55
1, 46626, Note_on_c, 0, 80, 81
1, 46632, Note_off_c, 0, 53, 50
1, 46632, Note_off_c, 0, 56, 53
1, 46648, Note_off_c, 0, 85, 61
1, 46694, Note_off_c, 0, 80, 62
1, 46711, Note_on_c, 0, 56, 54
1, 46716, Note_on_c, 0, 53, 53
1, 46721, Note_on_c, 0, 61, 45
1, 46731, Note_on_c, 0, 77, 79
1, 46746, Note_off_c, 0, 56, 66
1, 46750, Note_off_c, 0, 53, 68
1, 46756, Note_off_c, 0, 61, 51
1, 46811, Note_on_c, 0, 73, 79
1, 46820, Note_off_c, 0, 77, 58
1, 46833, Note_off_c, 0, 73, 68
1, 46948, Note_on_c, 0, 83, 88
1, 46960, Note_on_c, 0, 33, 70
1, 46972, Control_c, 0, 64, 110
1, 46987, Control_c, 0, 64, 88
1, 47000, Control_c, 0, 64, 64
1, 47015, Control_c, 0, 64, 0
1, 47045, Control_c, 0, 64, 67
1, 47047, Note_off_c, 0, 33, 63
1, 47053, Note_on_c, 0, 40, 75
1, 47060, Control_c, 0, 64, 81
1, 47074, Control_c, 0, 64, 97
1, 47089, Control_c, 0, 64, 117
1, 47092, Note_off_c, 0, 40, 66
1, 47104, Control_c, 0, 64, 127
1, 47182, Note_on_c, 0, 48, 81
1, 47231, Note_off_c, 0, 48, 66
1, 47270, Note_on_c, 0, 52, 77
1, 47310, Note_off_c, 0, 52, 66
1, 47391, Note_on_c, 0, 84, 78
1, 47400, Note_on_c, 0, 60, 72
1, 47402, Note_on_c, 0, 57, 65
1, 47411, Note_off_c, 0, 83, 58
1, 47425, Note_off_c, 0, 60, 63
1, 47432, Note_off_c, 0, 57, 64
1, 47437, Note_off_c, 0, 84, 65
1, 47676, Control_c, 0, 67, 23
1, 47684, Note_on_c, 0, 38, 55
1, 47691, Control_c, 0, 64, 101
1, 47691, Control_c, 0, 67, 61
1, 47692, Note_on_c, 0, 79, 74
1, 47705, Control_c, 0, 64, 79
1, 47705, Control_c, 0, 67, 115
1, 47720, Control_c, 0, 64, 0
1, 47720, Control_c, 0, 67, 127
1, 47763, Control_c, 0, 64, 62
1, 47776, Note_off_c, 0, 38, 63
1, 47778, Control_c, 0, 64, 74
1, 47793, Control_c, 0, 64, 86
1, 47808, Control_c, 0, 64, 100
1, 47816, Note_on_c, 0, 76, 76
1, 47822, Control_c, 0, 64, 110
1, 47833, Note_off_c, 0, 79, 44
1, 47837, Control_c, 0, 64, 114
1, 47852, Control_c, 0, 64, 116
1, 47864, Note_off_c, 0, 76, 65
1, 47867, Control_c, 0, 64, 120
1, 47881, Control_c, 0, 64, 125
1, 47896, Control_c, 0, 64, 127
1, 47959, Note_on_c, 0, 77, 69
1, 47962, Note_on_c, 0, 61, 53
1, 47965, Note_on_c, 0, 53, 49
1, 47977, Note_on_c, 0, 56, 44
1, 48013, Note_off_c, 0, 61, 52
1, 48020, Note_off_c, 0, 53, 57
1, 48024, Note_off_c, 0, 77, 44
1, 48026, Note_off_c, 0, 56, 55
1, 48058, Note_on_c, 0, 73, 67
1, 48137, Note_off_c, 0, 73, 49
1, 48171, Note_on_c, 0, 56, 50
1, 48179, Note_on_c, 0, 68, 69
1, 48199, Note_off_c, 0, 56, 61
1, 48200, Note_on_c, 0, 53, 19
1, 48212, Note_off_c, 0, 68, 61
1, 48243, Poly_aftertouch_c, 0, 61, 0
1, 48245, Note_off_c, 0, 53, 42
1, 48296, Note_on_c, 0, 65, 72
1, 48344, Note_off_c, 0, 65, 64
1, 48498, Control_c, 0, 64, 126
1, 48509, Note_on_c, 0, 64, 77
1, 48513, Control_c, 0, 64, 107
1, 48528, Control_c, 0, 64, 86
1, 48528, Note_on_c, 0, 48, 48
1, 48536, Note_on_c, 0, 36, 45
1, 48543, Control_c, 0, 64, 66
1, 48558, Control_c, 0, 64, 0
1, 48639, Note_off_c, 0, 48, 64
1, 48645, Note_off_c, 0, 36, 60
1, 48646, Control_c, 0, 64, 20
1, 48661, Control_c, 0, 64, 68
1, 48676, Control_c, 0, 64, 80
1, 48691, Control_c, 0, 64, 94
1, 48705, Control_c, 0, 64, 107
1, 48720, Control_c, 0, 64, 115
1, 48735, Control_c, 0, 64, 118
1, 48750, Control_c, 0, 64, 120
1, 48765, Control_c, 0, 64, 126
1, 48779, Control_c, 0, 64, 127
1, 48858, Note_on_c, 0, 60, 39
1, 48860, Note_on_c, 0, 55, 38
1, 48862, Note_on_c, 0, 52, 39
1, 48904, Note_off_c, 0, 60, 47
1, 48935, Note_off_c, 0, 55, 39
1, 48938, Note_off_c, 0, 52, 53
1, 48955, Note_off_c, 0, 64, 61
1, 48956, Note_on_c, 0, 67, 64
1, 49111, Note_off_c, 0, 67, 50
1, 49113, Note_on_c, 0, 65, 67
1, 49205, Note_off_c, 0, 65, 55
1, 49220, Note_on_c, 0, 64, 64
1, 49255, Note_off_c, 0, 64, 63
1, 49446, Note_on_c, 0, 74, 61
1, 49458, Note_on_c, 0, 65, 52
1, 49467, Note_on_c, 0, 38, 39
1, 49468, Control_c, 0, 64, 107
1, 49470, Note_on_c, 0, 50, 36
1, 49483, Control_c, 0, 64, 86
1, 49498, Control_c, 0, 64, 67
1, 49513, Control_c, 0, 64, 0
1, 49571, Note_off_c, 0, 50, 56
1, 49572, Control_c, 0, 64, 66
1, 49583, Note_off_c, 0, 38, 58
1, 49587, Control_c, 0, 64, 78
1, 49601, Control_c, 0, 64, 93
1, 49616, Control_c, 0, 64, 108
1, 49631, Control_c, 0, 64, 118
1, 49646, Control_c, 0, 64, 123
1, 49661, Control_c, 0, 64, 127
1, 49828, Note_on_c, 0, 57, 38
1, 49835, Note_on_c, 0, 62, 35
1, 49840, Note_on_c, 0, 53, 35
1, 49873, Note_off_c, 0, 62, 49
1, 49891, Note_off_c, 0, 57, 52
1, 49910, Note_off_c, 0, 53, 54
1, 49937, Note_off_c, 0, 74, 56
1, 49968, Note_on_c, 0, 77, 54
1, 50121, Note_off_c, 0, 77, 55
1, 50126, Note_on_c, 0, 76, 60
1, 50250, Note_off_c, 0, 76, 59
1, 50260, Note_on_c, 0, 74, 54
1, 50484, Note_off_c, 0, 74, 56
1, 50490, Note_on_c, 0, 72, 60
1, 50491, Control_c, 0, 64, 108
1, 50500, Note_off_c, 0, 65, 41
1, 50506, Note_on_c, 0, 35, 47
1, 50508, Control_c, 0, 64, 89
1, 50511, Note_on_c, 0, 47, 44
1, 50522, Control_c, 0, 64, 69
1, 50537, Control_c, 0, 64, 0
1, 50567, Control_c, 0, 64, 40
1, 50581, Control_c, 0, 64, 68
1, 50591, Note_off_c, 0, 35, 63
1, 50594, Note_off_c, 0, 47, 62
1, 50596, Control_c, 0, 64, 80
1, 50611, Control_c, 0, 64, 93
1, 50626, Control_c, 0, 64, 108
1, 50641, Control_c, 0, 64, 117
1, 50655, Control_c, 0, 64, 122
1, 50670, Control_c, 0, 64, 127
1, 50685, Control_c, 0, 64, 127
1, 50898, Note_on_c, 0, 58, 40
1, 50902, Note_on_c, 0, 66, 40
1, 50910, Note_on_c, 0, 63, 39
1, 50967, Note_off_c, 0, 66, 62
1, 50989, Note_off_c, 0, 58, 56
1, 50990, Note_off_c, 0, 63, 57
1, 51062, Note_off_c, 0, 72, 56
1, 51076, Note_on_c, 0, 76, 56
1, 51238, Note_off_c, 0, 76, 59
1, 51256, Note_on_c, 0, 74, 55
1, 51408, Note_off_c, 0, 74, 55
1, 51416, Note_on_c, 0, 72, 56
1, 51685, Note_off_c, 0, 72, 57
1, 51715, Note_on_c, 0, 64, 52
1, 51727, Note_on_c, 0, 40, 44
1, 51730, Note_on_c, 0, 52, 39
1, 51745, Control_c, 0, 64, 115
1, 51760, Control_c, 0, 64, 98
1, 51774, Control_c, 0, 64, 77
1, 51789, Control_c, 0, 64, 0
1, 51888, Note_off_c, 0, 40, 58
1, 51893, Control_c, 0, 64, 67
1, 51899, Note_off_c, 0, 52, 60
1, 51908, Control_c, 0, 64, 78
1, 51922, Control_c, 0, 64, 91
1, 51937, Control_c, 0, 64, 102
1, 51940, Note_off_c, 0, 64, 61
1, 51952, Control_c, 0, 64, 109
1, 51974, Control_c, 0, 64, 118
1, 51989, Control_c, 0, 64, 123
1, 52004, Control_c, 0, 64, 127
1, 52402, Note_on_c, 0, 68, 42
1, 52407, Note_on_c, 0, 59, 39
1, 52623, Note_off_c, 0, 59, 40
1, 52641, Note_off_c, 0, 68, 41
1, 53347, Control_c, 0, 64, 117
1, 53362, Control_c, 0, 64, 109
1, 53376, Control_c, 0, 64, 100
1, 53391, Control_c, 0, 64, 90
1, 53406, Control_c, 0, 64, 75
1, 53421, Control_c, 0, 64, 53
1, 53435, Control_c, 0, 64, 0
1, 53616, Note_on_c, 0, 88, 93
1, 53651, Note_off_c, 0, 88, 64
1, 53741, Note_on_c, 0, 89, 87
1, 53778, Note_off_c, 0, 89, 66
1, 53858, Control_c, 0, 64, 70
1, 53870, Note_on_c, 0, 38, 72
1, 53873, Control_c, 0, 64, 85
1, 53876, Note_on_c, 0, 45, 77
1, 53877, Note_on_c, 0, 88, 106
1, 53880, Note_on_c, 0, 41, 69
1, 53888, Control_c, 0, 64, 109
1, 53894, Note_off_c, 0, 38, 66
1, 53903, Control_c, 0, 64, 127
1, 53906, Note_off_c, 0, 41, 67
1, 53912, Note_off_c, 0, 45, 66
1, 53919, Note_off_c, 0, 88, 64
1, 53976, Note_on_c, 0, 89, 79
1, 53997, Note_off_c, 0, 89, 69
1, 54110, Control_c, 0, 64, 117
1, 54124, Control_c, 0, 64, 102
1, 54132, Note_on_c, 0, 78, 93
1, 54139, Control_c, 0, 64, 86
1, 54140, Note_on_c, 0, 62, 69
1, 54141, Note_on_c, 0, 57, 64
1, 54142, Note_on_c, 0, 65, 72
1, 54154, Control_c, 0, 64, 68
1, 54156, Note_off_c, 0, 78, 65
1, 54169, Control_c, 0, 64, 0
1, 54173, Note_off_c, 0, 65, 63
1, 54179, Note_off_c, 0, 62, 57
1, 54182, Note_off_c, 0, 57, 56
1, 54249, Note_on_c, 0, 79, 84
1, 54275, Note_off_c, 0, 79, 63
1, 54353, Note_on_c, 0, 62, 61
1, 54356, Note_on_c, 0, 80, 92
1, 54360, Note_on_c, 0, 65, 52
1, 54361, Note_on_c, 0, 57, 61
1, 54377, Note_off_c, 0, 62, 63
1, 54384, Note_off_c, 0, 65, 57
1, 54391, Note_off_c, 0, 80, 66
1, 54394, Note_off_c, 0, 57, 65
1, 54457, Note_on_c, 0, 81, 92
1, 54492, Note_off_c, 0, 81, 62
1, 54582, Note_on_c, 0, 38, 73
1, 54582, Note_on_c, 0, 82, 102
1, 54589, Note_on_c, 0, 45, 73
1, 54592, Note_on_c, 0, 41, 75
1, 54592, Control_c, 0, 64, 67
1, 54607, Control_c, 0, 64, 84
1, 54607, Control_c, 0, 67, 126
1, 54621, Control_c, 0, 64, 108
1, 54621, Control_c, 0, 67, 83
1, 54629, Note_off_c, 0, 38, 61
1, 54635, Note_off_c, 0, 82, 63
1, 54636, Control_c, 0, 64, 127
1, 54636, Control_c, 0, 67, 44
1, 54650, Note_off_c, 0, 45, 64
1, 54651, Note_off_c, 0, 41, 64
1, 54651, Control_c, 0, 67, 12
1, 54666, Control_c, 0, 67, 0
1, 54684, Note_on_c, 0, 83, 83
1, 54708, Note_off_c, 0, 83, 62
1, 54770, Control_c, 0, 64, 126
1, 54785, Control_c, 0, 64, 104
1, 54800, Control_c, 0, 64, 86
1, 54814, Control_c, 0, 64, 67
1, 54818, Note_on_c, 0, 57, 57
1, 54818, Note_on_c, 0, 72, 79
1, 54824, Note_on_c, 0, 62, 57
1, 54829, Note_on_c, 0, 65, 52
1, 54829, Control_c, 0, 64, 0
1, 54843, Note_off_c, 0, 72, 69
1, 54854, Note_off_c, 0, 57, 53
1, 54859, Note_off_c, 0, 65, 56
1, 54866, Note_off_c, 0, 62, 60
1, 54913, Note_on_c, 0, 73, 82
1, 54935, Note_off_c, 0, 73, 67
1, 55030, Note_on_c, 0, 62, 55
1, 55040, Note_on_c, 0, 65, 39
1, 55041, Note_on_c, 0, 74, 82
1, 55045, Note_on_c, 0, 57, 46
1, 55047, Note_off_c, 0, 65, 46
1, 55052, Note_off_c, 0, 62, 59
1, 55067, Note_off_c, 0, 74, 66
1, 55070, Note_off_c, 0, 57, 61
1, 55139, Note_on_c, 0, 75, 85
1, 55174, Note_off_c, 0, 75, 64
1, 55259, Note_on_c, 0, 38, 72
1, 55259, Note_on_c, 0, 76, 94
1, 55263, Note_on_c, 0, 45, 74
1, 55265, Note_on_c, 0, 41, 74
1, 55266, Control_c, 0, 64, 53
1, 55281, Control_c, 0, 64, 73
1, 55297, Control_c, 0, 64, 88
1, 55312, Note_off_c, 0, 38, 61
1, 55312, Control_c, 0, 64, 106
1, 55327, Control_c, 0, 64, 113
1, 55328, Note_off_c, 0, 76, 45
1, 55330, Note_off_c, 0, 41, 65
1, 55331, Note_off_c, 0, 45, 64
1, 55342, Control_c, 0, 64, 114
1, 55346, Note_on_c, 0, 77, 80
1, 55367, Note_off_c, 0, 77, 66
1, 55371, Control_c, 0, 64, 115
1, 55460, Control_c, 0, 64, 113
1, 55475, Control_c, 0, 64, 104
1, 55489, Control_c, 0, 64, 90
1, 55495, Note_on_c, 0, 57, 65
1, 55497, Note_on_c, 0, 62, 63
1, 55498, Note_on_c, 0, 65, 67
1, 55501, Note_on_c, 0, 66, 76
1, 55504, Control_c, 0, 64, 71
1, 55519, Control_c, 0, 64, 0
1, 55521, Note_off_c, 0, 66, 64
1, 55539, Note_off_c, 0, 65, 60
1, 55539, Note_off_c, 0, 57, 53
1, 55540, Note_off_c, 0, 62, 55
1, 55589, Note_on_c, 0, 66, 85
1, 55628, Note_off_c, 0, 66, 67
1, 55688, Note_on_c, 0, 65, 42
1, 55690, Note_on_c, 0, 57, 55
1, 55692, Note_on_c, 0, 62, 42
1, 55699, Note_on_c, 0, 66, 92
1, 55725, Note_off_c, 0, 57, 64
1, 55725, Note_off_c, 0, 65, 35
1, 55730, Note_off_c, 0, 62, 45
1, 55742, Note_off_c, 0, 66, 67
1, 55794, Note_on_c, 0, 70, 76
1, 55832, Note_off_c, 0, 70, 64
1, 55912, Note_on_c, 0, 38, 70
1, 55921, Note_on_c, 0, 45, 67
1, 55921, Note_on_c, 0, 66, 88
1, 55924, Note_on_c, 0, 41, 70
1, 55927, Control_c, 0, 64, 23
1, 55942, Control_c, 0, 64, 70
1, 55950, Note_off_c, 0, 38, 64
1, 55956, Note_off_c, 0, 66, 65
1, 55957, Control_c, 0, 64, 83
1, 55965, Note_off_c, 0, 41, 66
1, 55971, Control_c, 0, 64, 99
1, 55972, Note_off_c, 0, 45, 63
1, 55986, Control_c, 0, 64, 114
1, 56001, Control_c, 0, 64, 116
1, 56013, Note_on_c, 0, 66, 86
1, 56016, Control_c, 0, 64, 117
1, 56031, Control_c, 0, 64, 119
1, 56041, Note_off_c, 0, 66, 63
1, 56045, Control_c, 0, 64, 119
1, 56125, Note_on_c, 0, 65, 77
1, 56126, Note_on_c, 0, 66, 90
1, 56129, Note_on_c, 0, 57, 65
1, 56129, Note_on_c, 0, 62, 66
1, 56180, Note_off_c, 0, 66, 64
1, 56183, Note_off_c, 0, 65, 52
1, 56189, Note_on_c, 0, 70, 72
1, 56201, Note_off_c, 0, 57, 53
1, 56213, Note_off_c, 0, 70, 68
1, 56256, Note_off_c, 0, 62, 35
1, 56298, Control_c, 0, 64, 119
1, 56312, Control_c, 0, 64, 116
1, 56327, Control_c, 0, 64, 111
1, 56341, Note_on_c, 0, 88, 103
1, 56342, Control_c, 0, 64, 102
1, 56344, Note_on_c, 0, 57, 56
1, 56347, Note_on_c, 0, 62, 44
1, 56353, Note_on_c, 0, 65, 32
1, 56357, Control_c, 0, 64, 91
1, 56372, Control_c, 0, 64, 75
1, 56374, Note_off_c, 0, 57, 63
1, 56378, Note_off_c, 0, 65, 59
1, 56379, Note_off_c, 0, 88, 64
1, 56381, Note_off_c, 0, 62, 49
1, 56386, Control_c, 0, 64, 54
1, 56401, Control_c, 0, 64, 0
1, 56443, Note_on_c, 0, 89, 89
1, 56487, Note_off_c, 0, 89, 66
1, 56567, Note_on_c, 0, 38, 70
1, 56572, Control_c, 0, 64, 62
1, 56574, Note_on_c, 0, 88, 102
1, 56578, Note_on_c, 0, 45, 69
1, 56581, Note_on_c, 0, 41, 69
1, 56587, Control_c, 0, 64, 77
1, 56601, Control_c, 0, 64, 93
1, 56603, Note_off_c, 0, 38, 64
1, 56616, Note_off_c, 0, 88, 65
1, 56616, Control_c, 0, 64, 110
1, 56620, Note_off_c, 0, 41, 66
1, 56624, Note_off_c, 0, 45, 64
1, 56631, Control_c, 0, 64, 115
1, 56660, Note_on_c, 0, 89, 74
1, 56684, Note_off_c, 0, 89, 69
1, 56779, Control_c, 0, 64, 114
1, 56793, Note_on_c, 0, 78, 85
1, 56794, Control_c, 0, 64, 107
1, 56797, Note_on_c, 0, 57, 57
1, 56800, Note_on_c, 0, 62, 59
1, 56800, Note_on_c, 0, 65, 65
1, 56809, Control_c, 0, 64, 97
1, 56813, Note_off_c, 0, 78, 69
1, 56824, Control_c, 0, 64, 84
1, 56834, Note_off_c, 0, 57, 58
1, 56836, Note_off_c, 0, 65, 63
1, 56838, Control_c, 0, 64, 68
1, 56840, Note_off_c, 0, 62, 58
1, 56853, Control_c, 0, 64, 0
1, 56894, Note_on_c, 0, 79, 81
1, 56918, Note_off_c, 0, 79, 65
1, 56997, Note_on_c, 0, 62, 46
1, 57000, Note_on_c, 0, 80, 90
1, 57002, Note_on_c, 0, 57, 52
1, 57003, Note_on_c, 0, 65, 34
1, 57012, Note_off_c, 0, 65, 42
1, 57025, Note_off_c, 0, 62, 49
1, 57032, Note_off_c, 0, 57, 64
1, 57033, Note_off_c, 0, 80, 65
1, 57092, Note_on_c, 0, 81, 87
1, 57125, Note_off_c, 0, 81, 60
1, 57206, Note_on_c, 0, 38, 67
1, 57206, Note_on_c, 0, 82, 101
1, 57217, Control_c, 0, 64, 38
1, 57220, Note_on_c, 0, 45, 69
1, 57228, Note_on_c, 0, 41, 69
1, 57232, Control_c, 0, 64, 75
1, 57247, Control_c, 0, 64, 93
1, 57253, Note_off_c, 0, 38, 66
1, 57260, Note_off_c, 0, 82, 62
1, 57261, Control_c, 0, 64, 118
1, 57272, Note_off_c, 0, 41, 66
1, 57276, Control_c, 0, 64, 127
1, 57279, Note_off_c, 0, 45, 64
1, 57304, Note_on_c, 0, 83, 84
1, 57330, Note_off_c, 0, 83, 60
1, 57380, Control_c, 0, 64, 122
1, 57395, Control_c, 0, 64, 106
1, 57409, Control_c, 0, 64, 89
1, 57424, Control_c, 0, 64, 67
1, 57435, Note_on_c, 0, 72, 78
1, 57439, Control_c, 0, 64, 0
1, 57439, Control_c, 0, 67, 12
1, 57452, Note_on_c, 0, 57, 44
1, 57454, Control_c, 0, 67, 26
1, 57459, Note_on_c, 0, 65, 45
1, 57461, Note_on_c, 0, 62, 41
1, 57463, Note_off_c, 0, 72, 66
1, 57468, Control_c, 0, 67, 46
1, 57483, Control_c, 0, 67, 73
1, 57489, Note_off_c, 0, 65, 57
1, 57495, Note_off_c, 0, 57, 58
1, 57496, Note_off_c, 0, 62, 55
1, 57498, Control_c, 0, 67, 103
1, 57513, Control_c, 0, 67, 127
1, 57528, Note_on_c, 0, 73, 80
1, 57548, Note_off_c, 0, 73, 70
1, 57641, Note_on_c, 0, 62, 50
1, 57652, Note_on_c, 0, 65, 29
1, 57652, Note_on_c, 0, 74, 71
1, 57660, Note_on_c, 0, 57, 36
1, 57675, Note_off_c, 0, 62, 63
1, 57680, Note_off_c, 0, 74, 66
1, 57687, Note_off_c, 0, 65, 42
1, 57692, Note_off_c, 0, 57, 56
1, 57752, Note_on_c, 0, 76, 73
1, 57775, Note_off_c, 0, 76, 71
1, 57927, Note_on_c, 0, 77, 65
1, 57943, Note_on_c, 0, 44, 40
1, 57965, Control_c, 0, 64, 64
1, 57980, Control_c, 0, 64, 75
1, 57995, Control_c, 0, 64, 90
1, 58010, Control_c, 0, 64, 102
1, 58025, Control_c, 0, 64, 107
1, 58039, Control_c, 0, 64, 110
1, 58043, Note_off_c, 0, 44, 61
1, 58054, Control_c, 0, 64, 113
1, 58069, Control_c, 0, 64, 117
1, 58083, Control_c, 0, 64, 123
1, 58098, Control_c, 0, 64, 127
1, 58240, Note_on_c, 0, 65, 53
1, 58254, Note_on_c, 0, 60, 39
1, 58255, Note_on_c, 0, 62, 37
1, 58274, Note_off_c, 0, 65, 65
1, 58295, Note_off_c, 0, 62, 58
1, 58300, Note_off_c, 0, 60, 60
1, 58340, Note_off_c, 0, 77, 55
1, 58341, Note_on_c, 0, 76, 63
1, 58448, Note_off_c, 0, 76, 62
1, 58454, Note_on_c, 0, 74, 60
1, 58534, Note_on_c, 0, 72, 70
1, 58535, Note_off_c, 0, 74, 60
1, 58589, Control_c, 0, 64, 119
1, 58604, Control_c, 0, 64, 107
1, 58619, Control_c, 0, 64, 93
1, 58629, Note_off_c, 0, 72, 52
1, 58634, Control_c, 0, 64, 74
1, 58648, Control_c, 0, 64, 0
1, 58673, Note_on_c, 0, 44, 47
1, 58680, Note_on_c, 0, 71, 67
1, 58756, Note_off_c, 0, 44, 64
1, 58759, Control_c, 0, 64, 58
1, 58774, Control_c, 0, 64, 75
1, 58789, Control_c, 0, 64, 89
1, 58803, Control_c, 0, 64, 106
1, 58803, Control_c, 0, 67, 105
1, 58818, Note_off_c, 0, 71, 60
1, 58818, Control_c, 0, 64, 119
1, 58818, Control_c, 0, 67, 74
1, 58833, Control_c, 0, 64, 123
1, 58833, Control_c, 0, 67, 40
1, 58848, Control_c, 0, 64, 125
1, 58848, Control_c, 0, 67, 14
1, 58863, Control_c, 0, 64, 127
1, 58863, Control_c, 0, 67, 0
1, 58952, Note_on_c, 0, 64, 53
1, 58956, Note_on_c, 0, 62, 48
1, 58965, Note_on_c, 0, 59, 45
1, 58987, Note_off_c, 0, 64, 64
1, 58997, Note_off_c, 0, 62, 61
1, 59010, Note_off_c, 0, 59, 59
1, 59185, Note_on_c, 0, 88, 101
1, 59188, Control_c, 0, 64, 116
1, 59203, Control_c, 0, 64, 103
1, 59218, Control_c, 0, 64, 90
1, 59222, Note_off_c, 0, 88, 65
1, 59233, Control_c, 0, 64, 72
1, 59248, Control_c, 0, 64, 0
1, 59275, Note_on_c, 0, 89, 85
1, 59309, Note_off_c, 0, 89, 66
1, 59397, Control_c, 0, 64, 60
1, 59398, Note_on_c, 0, 41, 61
1, 59401, Note_on_c, 0, 38, 66
1, 59402, Note_on_c, 0, 88, 102
1, 59403, Note_on_c, 0, 45, 72
1, 59412, Control_c, 0, 64, 74
1, 59425, Note_off_c, 0, 38, 65
1, 59426, Control_c, 0, 64, 91
1, 59441, Note_off_c, 0, 45, 66
1, 59441, Control_c, 0, 64, 107
1, 59443, Note_off_c, 0, 41, 67
1, 59443, Note_off_c, 0, 88, 64
1, 59463, Control_c, 0, 64, 116
1, 59478, Control_c, 0, 64, 117
1, 59493, Control_c, 0, 64, 117
1, 59502, Note_on_c, 0, 89, 64
1, 59519, Note_off_c, 0, 89, 65
1, 59552, Control_c, 0, 64, 118
1, 59622, Note_on_c, 0, 80, 83
1, 59626, Control_c, 0, 64, 117
1, 59635, Note_on_c, 0, 62, 60
1, 59635, Note_on_c, 0, 65, 71
1, 59638, Note_on_c, 0, 57, 57
1, 59641, Control_c, 0, 64, 115
1, 59647, Note_off_c, 0, 80, 65
1, 59656, Control_c, 0, 64, 107
1, 59666, Note_off_c, 0, 65, 63
1, 59671, Control_c, 0, 64, 96
1, 59679, Note_off_c, 0, 57, 56
1, 59680, Note_off_c, 0, 62, 53
1, 59686, Control_c, 0, 64, 82
1, 59686, Control_c, 0, 67, 8
1, 59701, Control_c, 0, 64, 66
1, 59716, Control_c, 0, 64, 0
1, 59722, Note_on_c, 0, 81, 82
1, 59755, Note_off_c, 0, 81, 64
1, 59773, Control_c, 0, 67, 0
1, 59823, Note_on_c, 0, 62, 65
1, 59829, Note_on_c, 0, 57, 59
1, 59832, Note_on_c, 0, 88, 91
1, 59837, Note_on_c, 0, 65, 40
1, 59848, Note_off_c, 0, 62, 64
1, 59853, Note_off_c, 0, 65, 39
1, 59862, Note_off_c, 0, 57, 63
1, 59867, Note_off_c, 0, 88, 64
1, 59906, Control_c, 0, 67, 8
1, 59924, Note_on_c, 0, 89, 83
1, 59936, Control_c, 0, 67, 8
1, 59951, Control_c, 0, 67, 9
1, 59954, Note_off_c, 0, 89, 63
1, 59981, Control_c, 0, 67, 9
1, 60025, Control_c, 0, 67, 9
1, 60032, Note_on_c, 0, 43, 71
1, 60033, Note_on_c, 0, 51, 84
1, 60037, Note_on_c, 0, 47, 76
1, 60040, Control_c, 0, 64, 28
1, 60043, Note_on_c, 0, 91, 75
1, 60054, Control_c, 0, 64, 71
1, 60054, Control_c, 0, 67, 8
1, 60066, Note_off_c, 0, 91, 64
1, 60069, Control_c, 0, 64, 88
1, 60069, Control_c, 0, 67, 8
1, 60070, Note_off_c, 0, 43, 63
1, 60073, Note_off_c, 0, 47, 65
1, 60085, Control_c, 0, 64, 110
1, 60085, Control_c, 0, 67, 0
1, 60092, Note_off_c, 0, 51, 60
1, 60100, Control_c, 0, 64, 127
1, 60142, Note_on_c, 0, 89, 83
1, 60180, Note_off_c, 0, 89, 62
1, 60252, Note_on_c, 0, 86, 81
1, 60266, Note_on_c, 0, 62, 71
1, 60267, Note_on_c, 0, 65, 72
1, 60270, Note_on_c, 0, 59, 63
1, 60279, Note_off_c, 0, 86, 65
1, 60297, Note_off_c, 0, 65, 63
1, 60304, Note_off_c, 0, 62, 55
1, 60306, Note_off_c, 0, 59, 58
1, 60315, Control_c, 0, 64, 121
1, 60330, Control_c, 0, 64, 113
1, 60345, Control_c, 0, 64, 103
1, 60348, Note_on_c, 0, 83, 79
1, 60359, Control_c, 0, 64, 93
1, 60374, Control_c, 0, 64, 81
1, 60374, Control_c, 0, 67, 8
1, 60377, Note_off_c, 0, 83, 59
1, 60389, Control_c, 0, 64, 66
1, 60404, Control_c, 0, 64, 0
1, 60419, Control_c, 0, 67, 8
1, 60433, Control_c, 0, 67, 9
1, 60448, Control_c, 0, 67, 9
1, 60452, Note_on_c, 0, 65, 52
1, 60452, Note_on_c, 0, 79, 79
1, 60455, Note_on_c, 0, 62, 56
1, 60459, Note_on_c, 0, 59, 58
1, 60478, Note_off_c, 0, 65, 55
1, 60478, Control_c, 0, 67, 10
1, 60479, Note_off_c, 0, 62, 56
1, 60486, Note_off_c, 0, 59, 64
1, 60488, Note_off_c, 0, 79, 64
1, 60507, Control_c, 0, 67, 10
1, 60537, Control_c, 0, 67, 11
1, 60543, Note_on_c, 0, 76, 87
1, 60566, Control_c, 0, 67, 11
1, 60576, Note_off_c, 0, 76, 68
1, 60596, Control_c, 0, 67, 11
1, 60611, Control_c, 0, 67, 10
1, 60626, Control_c, 0, 67, 9
1, 60640, Control_c, 0, 67, 9
1, 60657, Note_on_c, 0, 38, 71
1, 60663, Note_on_c, 0, 76, 92
1, 60667, Note_on_c, 0, 41, 71
1, 60670, Control_c, 0, 64, 65
1, 60670, Control_c, 0, 67, 8
1, 60673, Note_on_c, 0, 45, 64
1, 60684, Control_c, 0, 64, 77
1, 60699, Note_off_c, 0, 38, 65
1, 60699, Control_c, 0, 64, 90
1, 60699, Control_c, 0, 67, 8
1, 60714, Note_off_c, 0, 41, 63
1, 60714, Control_c, 0, 64, 103
1, 60723, Note_off_c, 0, 45, 64
1, 60729, Note_off_c, 0, 76, 44
1, 60729, Control_c, 0, 64, 108
1, 60729, Control_c, 0, 67, 0
1, 60734, Note_on_c, 0, 77, 82
1, 60744, Control_c, 0, 64, 108
1, 60759, Note_off_c, 0, 77, 63
1, 60774, Control_c, 0, 64, 109
1, 60803, Control_c, 0, 64, 110
1, 60863, Control_c, 0, 67, 8
1, 60878, Note_on_c, 0, 62, 65
1, 60878, Control_c, 0, 67, 8
1, 60883, Note_on_c, 0, 57, 65
1, 60883, Note_on_c, 0, 66, 77
1, 60885, Note_on_c, 0, 65, 65
1, 60893, Control_c, 0, 64, 109
1, 60905, Note_off_c, 0, 66, 70
1, 60908, Control_c, 0, 64, 107
1, 60917, Note_off_c, 0, 65, 64
1, 60923, Control_c, 0, 64, 102
1, 60925, Note_off_c, 0, 62, 47
1, 60929, Note_off_c, 0, 57, 50
1, 60938, Control_c, 0, 64, 93
1, 60960, Control_c, 0, 64, 81
1, 60965, Note_on_c, 0, 66, 88
1, 60975, Control_c, 0, 64, 68
1, 60975, Control_c, 0, 67, 9
1, 60989, Control_c, 0, 64, 0
1, 60994, Note_off_c, 0, 66, 69
1, 61034, Control_c, 0, 67, 8
1, 61060, Note_on_c, 0, 62, 50
1, 61068, Note_on_c, 0, 57, 64
1, 61071, Note_on_c, 0, 66, 92
1, 61078, Control_c, 0, 67, 9
1, 61085, Note_off_c, 0, 62, 62
1, 61099, Note_off_c, 0, 57, 64
1, 61106, Note_off_c, 0, 66, 67
1, 61151, Note_on_c, 0, 70, 74
1, 61182, Control_c, 0, 67, 9
1, 61185, Note_off_c, 0, 70, 62
1, 61212, Control_c, 0, 67, 10
1, 61242, Control_c, 0, 67, 11
1, 61269, Note_on_c, 0, 43, 71
1, 61270, Note_on_c, 0, 47, 74
1, 61271, Control_c, 0, 67, 10
1, 61275, Note_on_c, 0, 51, 80
1, 61277, Note_on_c, 0, 66, 93
1, 61301, Control_c, 0, 64, 44
1, 61301, Control_c, 0, 67, 9
1, 61306, Note_off_c, 0, 43, 64
1, 61311, Note_off_c, 0, 66, 66
1, 61313, Note_off_c, 0, 47, 67
1, 61315, Control_c, 0, 64, 70
1, 61315, Control_c, 0, 67, 9
1, 61325, Note_off_c, 0, 51, 62
1, 61330, Control_c, 0, 64, 83
1, 61330, Control_c, 0, 67, 8
1, 61345, Control_c, 0, 64, 99
1, 61345, Control_c, 0, 67, 0
1, 61360, Control_c, 0, 64, 107
1, 61364, Note_on_c, 0, 66, 85
1, 61375, Control_c, 0, 64, 109
1, 61389, Control_c, 0, 64, 109
1, 61394, Note_off_c, 0, 66, 64
1, 61404, Control_c, 0, 64, 110
1, 61419, Control_c, 0, 64, 111
1, 61433, Control_c, 0, 64, 112
1, 61448, Control_c, 0, 64, 113
1, 61463, Control_c, 0, 64, 113
1, 61477, Note_on_c, 0, 62, 72
1, 61477, Note_on_c, 0, 65, 76
1, 61477, Note_on_c, 0, 66, 85
1, 61483, Note_on_c, 0, 59, 66
1, 61505, Note_off_c, 0, 65, 62
1, 61524, Note_off_c, 0, 59, 54
1, 61528, Note_off_c, 0, 66, 61
1, 61545, Note_on_c, 0, 70, 59
1, 61565, Note_off_c, 0, 70, 39
1, 61572, Note_off_c, 0, 62, 35
1, 61582, Control_c, 0, 64, 114
1, 61597, Control_c, 0, 67, 8
1, 61686, Note_on_c, 0, 62, 39
1, 61689, Note_on_c, 0, 59, 56
1, 61696, Note_on_c, 0, 88, 97
1, 61709, Control_c, 0, 64, 113
1, 61710, Note_on_c, 0, 65, 13
1, 61716, Note_off_c, 0, 62, 56
1, 61718, Note_off_c, 0, 59, 64
1, 61724, Control_c, 0, 64, 111
1, 61738, Note_off_c, 0, 88, 62
1, 61738, Control_c, 0, 64, 106
1, 61751, Note_off_c, 0, 65, 42
1, 61753, Control_c, 0, 64, 98
1, 61753, Control_c, 0, 67, 8
1, 61768, Control_c, 0, 64, 87
1, 61783, Control_c, 0, 64, 71
1, 61783, Control_c, 0, 67, 9
1, 61793, Note_on_c, 0, 89, 73
1, 61798, Control_c, 0, 64, 0
1, 61809, Note_off_c, 0, 89, 67
1, 61812, Control_c, 0, 67, 9
1, 61827, Control_c, 0, 67, 10
1, 61842, Control_c, 0, 67, 10
1, 61856, Control_c, 0, 67, 11
1, 61901, Control_c, 0, 67, 10
1, 61910, Note_on_c, 0, 38, 67
1, 61910, Note_on_c, 0, 88, 103
1, 61914, Note_on_c, 0, 45, 69
1, 61915, Note_on_c, 0, 41, 67
1, 61916, Control_c, 0, 67, 10
1, 61930, Control_c, 0, 64, 67
1, 61930, Control_c, 0, 67, 8
1, 61936, Note_off_c, 0, 38, 66
1, 61945, Control_c, 0, 64, 80
1, 61951, Note_off_c, 0, 88, 64
1, 61956, Note_off_c, 0, 41, 67
1, 61959, Note_off_c, 0, 45, 63
1, 61960, Control_c, 0, 64, 93
1, 61960, Control_c, 0, 67, 8
1, 61976, Control_c, 0, 64, 103
1, 61991, Control_c, 0, 64, 105
1, 61991, Control_c, 0, 67, 0
1, 61999, Note_on_c, 0, 89, 81
1, 62005, Control_c, 0, 64, 106
1, 62020, Note_off_c, 0, 89, 70
1, 62020, Control_c, 0, 64, 106
1, 62035, Control_c, 0, 64, 107
1, 62050, Control_c, 0, 64, 107
1, 62065, Control_c, 0, 64, 108
1, 62124, Control_c, 0, 67, 8
1, 62132, Note_on_c, 0, 78, 89
1, 62133, Note_on_c, 0, 57, 66
1, 62139, Control_c, 0, 64, 107
1, 62139, Control_c, 0, 67, 8
1, 62142, Note_on_c, 0, 62, 59
1, 62143, Note_on_c, 0, 65, 62
1, 62151, Note_off_c, 0, 78, 69
1, 62154, Control_c, 0, 64, 101
1, 62169, Control_c, 0, 64, 90
1, 62169, Control_c, 0, 67, 9
1, 62171, Note_off_c, 0, 57, 56
1, 62177, Note_off_c, 0, 65, 64
1, 62184, Control_c, 0, 64, 77
1, 62184, Control_c, 0, 67, 9
1, 62185, Note_off_c, 0, 62, 55
1, 62199, Control_c, 0, 64, 53
1, 62213, Control_c, 0, 64, 0
1, 62228, Control_c, 0, 67, 10
1, 62228, Note_on_c, 0, 79, 83
1, 62243, Control_c, 0, 67, 10
1, 62254, Note_off_c, 0, 79, 63
1, 62287, Control_c, 0, 67, 10
1, 62327, Note_on_c, 0, 62, 49
1, 62330, Note_on_c, 0, 80, 94
1, 62333, Note_on_c, 0, 57, 53
1, 62338, Note_on_c, 0, 65, 29
1, 62339, Note_off_c, 0, 65, 127
1, 62352, Note_off_c, 0, 62, 52
1, 62361, Control_c, 0, 67, 10
1, 62364, Note_off_c, 0, 57, 63
1, 62366, Note_off_c, 0, 80, 66
1, 62428, Note_on_c, 0, 81, 87
1, 62470, Note_off_c, 0, 81, 63
1, 62533, Control_c, 0, 67, 10
1, 62547, Note_on_c, 0, 82, 100
1, 62547, Control_c, 0, 67, 9
1, 62548, Note_on_c, 0, 38, 63
1, 62556, Note_on_c, 0, 45, 55
1, 62559, Note_on_c, 0, 41, 64
1, 62577, Control_c, 0, 64, 70
1, 62577, Control_c, 0, 67, 8
1, 62589, Note_off_c, 0, 38, 66
1, 62592, Control_c, 0, 64, 87
1, 62595, Note_off_c, 0, 82, 62
1, 62607, Control_c, 0, 64, 103
1, 62607, Control_c, 0, 67, 8
1, 62610, Note_off_c, 0, 41, 65
1, 62613, Note_off_c, 0, 45, 63
1, 62622, Control_c, 0, 64, 111
1, 62636, Control_c, 0, 64, 112
1, 62636, Control_c, 0, 67, 0
1, 62639, Note_on_c, 0, 83, 81
1, 62667, Note_off_c, 0, 83, 59
1, 62725, Control_c, 0, 64, 111
1, 62725, Control_c, 0, 67, 8
1, 62740, Control_c, 0, 64, 107
1, 62740, Control_c, 0, 67, 9
1, 62754, Control_c, 0, 64, 96
1, 62754, Control_c, 0, 67, 10
1, 62764, Note_on_c, 0, 72, 81
1, 62769, Control_c, 0, 64, 82
1, 62769, Control_c, 0, 67, 12
1, 62776, Note_on_c, 0, 57, 56
1, 62781, Note_on_c, 0, 62, 53
1, 62783, Note_on_c, 0, 65, 56
1, 62784, Control_c, 0, 64, 60
1, 62784, Control_c, 0, 67, 13
1, 62792, Note_off_c, 0, 72, 68
1, 62799, Control_c, 0, 64, 0
1, 62799, Control_c, 0, 67, 14
1, 62810, Note_off_c, 0, 57, 49
1, 62810, Note_off_c, 0, 65, 55
1, 62814, Control_c, 0, 67, 16
1, 62817, Note_off_c, 0, 62, 48
1, 62828, Control_c, 0, 67, 22
1, 62843, Control_c, 0, 67, 26
1, 62857, Note_on_c, 0, 73, 79
1, 62858, Control_c, 0, 67, 26
1, 62872, Control_c, 0, 67, 25
1, 62877, Note_off_c, 0, 73, 68
1, 62887, Control_c, 0, 67, 25
1, 62902, Control_c, 0, 67, 24
1, 62973, Note_on_c, 0, 62, 53
1, 62977, Control_c, 0, 67, 24
1, 62980, Note_on_c, 0, 74, 71
1, 62986, Note_on_c, 0, 65, 24
1, 62992, Control_c, 0, 67, 23
1, 63006, Note_off_c, 0, 62, 63
1, 63009, Note_off_c, 0, 74, 65
1, 63012, Note_on_c, 0, 57, 17
1, 63024, Note_off_c, 0, 65, 31
1, 63056, Note_off_c, 0, 57, 37
1, 63066, Control_c, 0, 67, 23
1, 63074, Note_on_c, 0, 76, 74
1, 63095, Note_off_c, 0, 76, 72
1, 63125, Control_c, 0, 67, 23
1, 63169, Control_c, 0, 67, 24
1, 63221, Control_c, 0, 67, 23
1, 63274, Note_on_c, 0, 44, 43
1, 63280, Note_on_c, 0, 77, 64
1, 63281, Control_c, 0, 67, 23
1, 63311, Control_c, 0, 64, 43
1, 63311, Control_c, 0, 67, 22
1, 63325, Control_c, 0, 64, 69
1, 63325, Control_c, 0, 67, 22
1, 63340, Control_c, 0, 64, 80
1, 63355, Control_c, 0, 64, 97
1, 63355, Control_c, 0, 67, 21
1, 63370, Control_c, 0, 64, 108
1, 63370, Control_c, 0, 67, 21
1, 63385, Control_c, 0, 64, 117
1, 63385, Note_off_c, 0, 44, 59
1, 63400, Control_c, 0, 64, 124
1, 63415, Control_c, 0, 64, 127
1, 63430, Control_c, 0, 67, 20
1, 63445, Control_c, 0, 67, 20
1, 63459, Control_c, 0, 67, 19
1, 63474, Control_c, 0, 67, 19
1, 63489, Control_c, 0, 67, 18
1, 63548, Control_c, 0, 67, 18
1, 63577, Control_c, 0, 67, 17
1, 63599, Note_on_c, 0, 62, 49
1, 63603, Note_on_c, 0, 65, 45
1, 63612, Note_on_c, 0, 60, 39
1, 63621, Note_on_c, 0, 76, 61
1, 63651, Note_off_c, 0, 77, 56
1, 63657, Note_off_c, 0, 65, 57
1, 63666, Control_c, 0, 67, 18
1, 63697, Note_off_c, 0, 62, 58
1, 63701, Note_off_c, 0, 60, 51
1, 63725, Control_c, 0, 67, 18
1, 63742, Note_on_c, 0, 74, 56
1, 63748, Note_off_c, 0, 76, 57
1, 63785, Control_c, 0, 67, 19
1, 63844, Note_off_c, 0, 74, 63
1, 63844, Note_on_c, 0, 72, 59
1, 63911, Note_off_c, 0, 72, 57
1, 63949, Note_on_c, 0, 71, 62
1, 63984, Control_c, 0, 67, 19
1, 63999, Control_c, 0, 67, 20
1, 64014, Control_c, 0, 67, 20
1, 64029, Control_c, 0, 67, 21
1, 64044, Control_c, 0, 67, 21
1, 64059, Control_c, 0, 64, 112
1, 64059, Control_c, 0, 67, 22
1, 64074, Control_c, 0, 64, 93
1, 64089, Control_c, 0, 64, 71
1, 64091, Note_off_c, 0, 71, 58
1, 64092, Note_on_c, 0, 44, 54
1, 64096, Note_on_c, 0, 72, 66
1, 64104, Control_c, 0, 64, 0
1, 64177, Note_off_c, 0, 44, 64
1, 64178, Control_c, 0, 64, 22
1, 64193, Control_c, 0, 64, 68
1, 64208, Control_c, 0, 64, 80
1, 64222, Control_c, 0, 64, 92
1, 64222, Control_c, 0, 67, 21
1, 64237, Control_c, 0, 64, 100
1, 64237, Control_c, 0, 67, 21
1, 64251, Control_c, 0, 64, 104
1, 64266, Control_c, 0, 64, 107
1, 64266, Control_c, 0, 67, 20
1, 64281, Control_c, 0, 64, 110
1, 64296, Control_c, 0, 64, 113
1, 64311, Control_c, 0, 64, 119
1, 64318, Note_off_c, 0, 72, 60
1, 64325, Control_c, 0, 64, 125
1, 64325, Control_c, 0, 67, 21
1, 64340, Control_c, 0, 64, 127
1, 64357, Note_on_c, 0, 65, 55
1, 64361, Note_on_c, 0, 62, 52
1, 64367, Note_on_c, 0, 60, 44
1, 64380, Note_off_c, 0, 65, 63
1, 64389, Note_off_c, 0, 62, 61
1, 64408, Note_off_c, 0, 60, 62
1, 64458, Control_c, 0, 67, 21
1, 64462, Note_on_c, 0, 71, 57
1, 64488, Control_c, 0, 67, 21
1, 64563, Control_c, 0, 67, 22
1, 64577, Control_c, 0, 67, 22
1, 64592, Control_c, 0, 67, 23
1, 64593, Note_on_c, 0, 67, 70
1, 64597, Note_on_c, 0, 37, 56
1, 64607, Control_c, 0, 64, 118
1, 64608, Note_off_c, 0, 71, 57
1, 64622, Control_c, 0, 64, 97
1, 64622, Control_c, 0, 67, 24
1, 64637, Control_c, 0, 64, 78
1, 64651, Control_c, 0, 64, 42
1, 64651, Control_c, 0, 67, 23
1, 64666, Control_c, 0, 64, 0
1, 64681, Control_c, 0, 67, 23
1, 64703, Control_c, 0, 64, 65
1, 64703, Control_c, 0, 67, 22
1, 64708, Note_on_c, 0, 69, 74
1, 64717, Note_off_c, 0, 67, 58
1, 64718, Control_c, 0, 64, 74
1, 64732, Control_c, 0, 64, 81
1, 64732, Control_c, 0, 67, 22
1, 64747, Control_c, 0, 64, 87
1, 64747, Control_c, 0, 67, 21
1, 64762, Control_c, 0, 64, 89
1, 64762, Control_c, 0, 67, 20
1, 64777, Control_c, 0, 64, 90
1, 64777, Control_c, 0, 67, 20
1, 64792, Control_c, 0, 64, 91
1, 64792, Control_c, 0, 67, 19
1, 64807, Control_c, 0, 64, 92
1, 64822, Control_c, 0, 64, 92
1, 64837, Control_c, 0, 64, 93
1, 64837, Control_c, 0, 67, 20
1, 64851, Control_c, 0, 67, 21
1, 64866, Control_c, 0, 67, 22
1, 64881, Control_c, 0, 64, 92
1, 64881, Control_c, 0, 67, 22
1, 64895, Note_on_c, 0, 36, 59
1, 64896, Control_c, 0, 64, 84
1, 64896, Control_c, 0, 67, 23
1, 64897, Note_on_c, 0, 71, 70
1, 64899, Note_off_c, 0, 69, 62
1, 64911, Control_c, 0, 64, 70
1, 64920, Note_off_c, 0, 37, 32
1, 64926, Control_c, 0, 64, 0
1, 64926, Control_c, 0, 67, 23
1, 64941, Control_c, 0, 67, 23
1, 65001, Control_c, 0, 64, 32
1, 65001, Control_c, 0, 67, 22
1, 65016, Control_c, 0, 64, 70
1, 65016, Control_c, 0, 67, 22
1, 65018, Note_off_c, 0, 36, 65
1, 65031, Control_c, 0, 64, 83
1, 65031, Control_c, 0, 67, 21
1, 65045, Control_c, 0, 64, 98
1, 65045, Control_c, 0, 67, 20
1, 65060, Control_c, 0, 64, 107
1, 65060, Control_c, 0, 67, 20
1, 65075, Control_c, 0, 64, 112
1, 65075, Control_c, 0, 67, 19
1, 65090, Control_c, 0, 64, 114
1, 65090, Control_c, 0, 67, 19
1, 65105, Control_c, 0, 64, 117
1, 65120, Control_c, 0, 64, 121
1, 65135, Control_c, 0, 64, 127
1, 65207, Note_on_c, 0, 55, 50
1, 65210, Note_on_c, 0, 60, 47
1, 65211, Note_on_c, 0, 64, 51
1, 65249, Note_off_c, 0, 55, 59
1, 65253, Control_c, 0, 67, 19
1, 65256, Note_off_c, 0, 64, 59
1, 65257, Note_off_c, 0, 60, 57
1, 65272, Note_on_c, 0, 72, 72
1, 65282, Control_c, 0, 67, 20
1, 65290, Note_off_c, 0, 71, 54
1, 65392, Note_on_c, 0, 74, 68
1, 65395, Note_off_c, 0, 72, 62
1, 65401, Note_on_c, 0, 60, 43
1, 65403, Note_on_c, 0, 55, 48
1, 65423, Note_off_c, 0, 60, 57
1, 65427, Note_off_c, 0, 55, 62
1, 65475, Poly_aftertouch_c, 0, 64, 0
1, 65482, Note_on_c, 0, 76, 72
1, 65487, Note_off_c, 0, 74, 61
1, 65571, Control_c, 0, 67, 21
1, 65586, Control_c, 0, 67, 22
1, 65590, Note_off_c, 0, 76, 59
1, 65600, Control_c, 0, 67, 22
1, 65609, Note_on_c, 0, 44, 61
1, 65612, Note_on_c, 0, 77, 81
1, 65615, Control_c, 0, 64, 107
1, 65615, Control_c, 0, 67, 23
1, 65630, Control_c, 0, 64, 86
1, 65630, Control_c, 0, 67, 24
1, 65645, Control_c, 0, 64, 60
1, 65660, Control_c, 0, 64, 0
1, 65676, Control_c, 0, 67, 23
1, 65691, Control_c, 0, 64, 58
1, 65705, Control_c, 0, 64, 71
1, 65707, Note_off_c, 0, 44, 65
1, 65720, Control_c, 0, 64, 82
1, 65720, Control_c, 0, 67, 23
1, 65735, Control_c, 0, 64, 93
1, 65750, Control_c, 0, 64, 103
1, 65750, Control_c, 0, 67, 22
1, 65765, Control_c, 0, 64, 108
1, 65779, Control_c, 0, 64, 112
1, 65779, Control_c, 0, 67, 22
1, 65794, Control_c, 0, 64, 115
1, 65809, Control_c, 0, 64, 118
1, 65824, Control_c, 0, 64, 120
1, 65839, Control_c, 0, 64, 121
1, 65853, Control_c, 0, 64, 121
1, 65856, Note_on_c, 0, 65, 62
1, 65862, Note_on_c, 0, 56, 54
1, 65862, Note_on_c, 0, 60, 49
1, 65868, Control_c, 0, 64, 123
1, 65883, Control_c, 0, 64, 125
1, 65894, Note_off_c, 0, 65, 61
1, 65898, Control_c, 0, 64, 127
1, 65913, Control_c, 0, 64, 127
1, 65913, Note_off_c, 0, 60, 55
1, 65919, Note_off_c, 0, 56, 53
1, 65929, Note_on_c, 0, 79, 72
1, 65937, Note_off_c, 0, 77, 53
1, 66012, Note_on_c, 0, 81, 75
1, 66017, Note_off_c, 0, 79, 61
1, 66032, Note_on_c, 0, 60, 57
1, 66032, Note_on_c, 0, 65, 40
1, 66035, Note_on_c, 0, 56, 59
1, 66056, Note_off_c, 0, 65, 59
1, 66064, Note_off_c, 0, 60, 65
1, 66076, Control_c, 0, 67, 21
1, 66078, Note_off_c, 0, 81, 62
1, 66080, Note_off_c, 0, 56, 59
1, 66081, Note_on_c, 0, 83, 74
1, 66105, Control_c, 0, 67, 21
1, 66161, Note_off_c, 0, 83, 59
1, 66169, Note_on_c, 0, 84, 74
1, 66202, Control_c, 0, 67, 22
1, 66217, Control_c, 0, 67, 22
1, 66231, Control_c, 0, 64, 121
1, 66231, Control_c, 0, 67, 23
1, 66241, Note_on_c, 0, 36, 69
1, 66246, Control_c, 0, 64, 103
1, 66246, Control_c, 0, 67, 24
1, 66257, Note_off_c, 0, 84, 62
1, 66261, Note_on_c, 0, 72, 77
1, 66261, Control_c, 0, 64, 84
1, 66276, Control_c, 0, 64, 60
1, 66291, Control_c, 0, 64, 0
1, 66291, Control_c, 0, 67, 23
1, 66294, Note_off_c, 0, 36, 58
1, 66320, Control_c, 0, 64, 34
1, 66335, Control_c, 0, 64, 68
1, 66335, Control_c, 0, 67, 23
1, 66350, Control_c, 0, 64, 81
1, 66350, Control_c, 0, 67, 22
1, 66365, Control_c, 0, 64, 96
1, 66379, Control_c, 0, 64, 110
1, 66379, Control_c, 0, 67, 22
1, 66394, Control_c, 0, 64, 114
1, 66394, Control_c, 0, 67, 21
1, 66409, Control_c, 0, 64, 115
1, 66409, Control_c, 0, 67, 21
1, 66423, Control_c, 0, 64, 117
1, 66423, Control_c, 0, 67, 20
1, 66438, Control_c, 0, 64, 121
1, 66438, Control_c, 0, 67, 20
1, 66453, Control_c, 0, 64, 124
1, 66469, Control_c, 0, 64, 126
1, 66484, Control_c, 0, 64, 127
1, 66499, Note_on_c, 0, 64, 53
1, 66499, Control_c, 0, 67, 20
1, 66502, Note_on_c, 0, 55, 49
1, 66504, Note_on_c, 0, 60, 42
1, 66529, Note_off_c, 0, 64, 58
1, 66536, Note_off_c, 0, 60, 53
1, 66542, Note_off_c, 0, 55, 61
1, 66543, Control_c, 0, 67, 20
1, 66584, Note_on_c, 0, 71, 70
1, 66587, Note_off_c, 0, 72, 58
1, 66661, Note_off_c, 0, 71, 59
1, 66664, Note_on_c, 0, 60, 48
1, 66666, Note_on_c, 0, 55, 50
1, 66670, Note_on_c, 0, 72, 73
1, 66687, Note_off_c, 0, 60, 62
1, 66691, Control_c, 0, 67, 19
1, 66704, Note_off_c, 0, 55, 64
1, 66716, Poly_aftertouch_c, 0, 64, 0
1, 66738, Poly_aftertouch_c, 0, 64, 0
1, 66762, Note_on_c, 0, 71, 76
1, 66768, Note_off_c, 0, 72, 60
1, 66780, Control_c, 0, 67, 20
1, 66810, Control_c, 0, 67, 20
1, 66825, Control_c, 0, 67, 21
1, 66840, Control_c, 0, 64, 110
1, 66840, Control_c, 0, 67, 22
1, 66854, Control_c, 0, 64, 90
1, 66861, Note_on_c, 0, 44, 66
1, 66869, Control_c, 0, 64, 69
1, 66869, Control_c, 0, 67, 22
1, 66873, Note_off_c, 0, 71, 58
1, 66882, Note_on_c, 0, 72, 80
1, 66884, Control_c, 0, 64, 0
1, 66914, Control_c, 0, 64, 59
1, 66914, Control_c, 0, 67, 22
1, 66928, Control_c, 0, 64, 73
1, 66932, Note_off_c, 0, 44, 63
1, 66950, Control_c, 0, 64, 85
1, 66965, Control_c, 0, 64, 99
1, 66980, Control_c, 0, 64, 108
1, 66980, Control_c, 0, 67, 21
1, 66985, Note_off_c, 0, 72, 65
1, 66995, Control_c, 0, 64, 113
1, 67010, Control_c, 0, 64, 116
1, 67010, Control_c, 0, 67, 21
1, 67025, Control_c, 0, 64, 121
1, 67040, Control_c, 0, 64, 127
1, 67084, Control_c, 0, 67, 21
1, 67090, Note_on_c, 0, 56, 54
1, 67099, Note_on_c, 0, 64, 43
1, 67114, Note_on_c, 0, 73, 73
1, 67136, Note_off_c, 0, 56, 55
1, 67143, Note_off_c, 0, 64, 42
1, 67143, Control_c, 0, 67, 22
1, 67153, Note_off_c, 0, 73, 61
1, 67180, Note_on_c, 0, 85, 78
1, 67262, Note_on_c, 0, 56, 53
1, 67266, Note_on_c, 0, 87, 77
1, 67267, Note_on_c, 0, 61, 42
1, 67271, Note_off_c, 0, 85, 64
1, 67277, Control_c, 0, 67, 21
1, 67294, Note_off_c, 0, 56, 65
1, 67297, Note_off_c, 0, 61, 47
1, 67322, Control_c, 0, 67, 21
1, 67348, Note_on_c, 0, 88, 80
1, 67356, Note_off_c, 0, 87, 59
1, 67381, Control_c, 0, 67, 21
1, 67394, Note_off_c, 0, 88, 61
1, 67396, Control_c, 0, 67, 22
1, 67411, Control_c, 0, 67, 22
1, 67425, Control_c, 0, 67, 23
1, 67440, Control_c, 0, 64, 108
1, 67440, Control_c, 0, 67, 24
1, 67455, Control_c, 0, 64, 84
1, 67455, Control_c, 0, 67, 24
1, 67469, Control_c, 0, 64, 0
1, 67481, Note_on_c, 0, 37, 57
1, 67484, Control_c, 0, 67, 24
1, 67494, Note_on_c, 0, 79, 80
1, 67514, Control_c, 0, 64, 60
1, 67514, Control_c, 0, 67, 23
1, 67529, Control_c, 0, 64, 73
1, 67529, Control_c, 0, 67, 22
1, 67540, Note_off_c, 0, 37, 65
1, 67543, Control_c, 0, 64, 86
1, 67543, Control_c, 0, 67, 22
1, 67558, Control_c, 0, 64, 103
1, 67573, Control_c, 0, 64, 110
1, 67573, Control_c, 0, 67, 21
1, 67588, Control_c, 0, 64, 110
1, 67588, Control_c, 0, 67, 21
1, 67603, Note_off_c, 0, 79, 63
1, 67603, Control_c, 0, 64, 111
1, 67603, Control_c, 0, 67, 20
1, 67618, Control_c, 0, 64, 113
1, 67633, Control_c, 0, 64, 114
1, 67633, Control_c, 0, 67, 20
1, 67677, Control_c, 0, 67, 20
1, 67699, Control_c, 0, 67, 21
1, 67714, Control_c, 0, 67, 21
1, 67716, Note_on_c, 0, 78, 76
1, 67722, Note_on_c, 0, 56, 58
1, 67729, Control_c, 0, 64, 112
1, 67729, Control_c, 0, 67, 22
1, 67737, Note_on_c, 0, 64, 41
1, 67738, Note_on_c, 0, 61, 49
1, 67742, Note_off_c, 0, 78, 64
1, 67744, Control_c, 0, 64, 103
1, 67744, Control_c, 0, 67, 22
1, 67758, Control_c, 0, 64, 89
1, 67758, Control_c, 0, 67, 23
1, 67767, Note_off_c, 0, 64, 51
1, 67769, Note_off_c, 0, 56, 56
1, 67773, Control_c, 0, 64, 75
1, 67782, Note_off_c, 0, 61, 58
1, 67788, Control_c, 0, 64, 58
1, 67803, Control_c, 0, 64, 0
1, 67818, Control_c, 0, 67, 22
1, 67818, Note_on_c, 0, 76, 65
1, 67836, Note_off_c, 0, 76, 68
1, 67904, Note_on_c, 0, 61, 54
1, 67906, Note_on_c, 0, 72, 74
1, 67910, Note_on_c, 0, 56, 60
1, 67927, Note_off_c, 0, 61, 60
1, 67934, Note_off_c, 0, 72, 68
1, 67942, Note_off_c, 0, 56, 64
1, 67965, Control_c, 0, 67, 23
1, 67980, Control_c, 0, 67, 23
1, 67994, Note_on_c, 0, 73, 81
1, 67994, Control_c, 0, 67, 24
1, 68009, Control_c, 0, 67, 24
1, 68028, Note_off_c, 0, 73, 63
1, 68039, Control_c, 0, 67, 25
1, 68085, Control_c, 0, 67, 24
1, 68113, Note_on_c, 0, 83, 80
1, 68114, Control_c, 0, 67, 24
1, 68117, Note_on_c, 0, 42, 67
1, 68129, Control_c, 0, 64, 65
1, 68129, Control_c, 0, 67, 23
1, 68144, Control_c, 0, 64, 84
1, 68144, Control_c, 0, 67, 22
1, 68149, Note_off_c, 0, 83, 60
1, 68158, Note_off_c, 0, 42, 66
1, 68159, Control_c, 0, 64, 106
1, 68173, Control_c, 0, 64, 127
1, 68188, Control_c, 0, 67, 22
1, 68218, Control_c, 0, 67, 21
1, 68233, Control_c, 0, 67, 21
1, 68329, Note_on_c, 0, 71, 80
1, 68341, Note_on_c, 0, 57, 53
1, 68341, Note_on_c, 0, 61, 58
1, 68342, Note_on_c, 0, 64, 56
1, 68356, Note_off_c, 0, 71, 61
1, 68368, Note_off_c, 0, 64, 56
1, 68380, Note_off_c, 0, 57, 58
1, 68381, Control_c, 0, 67, 21
1, 68386, Note_off_c, 0, 61, 56
1, 68396, Control_c, 0, 64, 121
1, 68396, Control_c, 0, 67, 22
1, 68410, Control_c, 0, 64, 111
1, 68410, Control_c, 0, 67, 22
1, 68412, Note_on_c, 0, 69, 67
1, 68425, Control_c, 0, 64, 98
1, 68425, Control_c, 0, 67, 23
1, 68447, Note_off_c, 0, 69, 70
1, 68447, Control_c, 0, 64, 87
1, 68462, Control_c, 0, 64, 74
1, 68462, Control_c, 0, 67, 24
1, 68477, Control_c, 0, 64, 61
1, 68491, Control_c, 0, 64, 0
1, 68517, Note_on_c, 0, 68, 74
1, 68523, Note_on_c, 0, 61, 59
1, 68529, Note_on_c, 0, 57, 52
1, 68536, Control_c, 0, 67, 24
1, 68540, Note_on_c, 0, 64, 21
1, 68547, Note_off_c, 0, 68, 64
1, 68553, Note_off_c, 0, 61, 64
1, 68560, Note_off_c, 0, 57, 64
1, 68578, Note_off_c, 0, 64, 31
1, 68605, Note_on_c, 0, 66, 76
1, 68625, Control_c, 0, 67, 25
1, 68634, Note_off_c, 0, 66, 66
1, 68640, Control_c, 0, 67, 25
1, 68670, Control_c, 0, 67, 26
1, 68699, Control_c, 0, 67, 25
1, 68715, Control_c, 0, 67, 25
1, 68728, Note_on_c, 0, 40, 71
1, 68729, Note_on_c, 0, 72, 77
1, 68730, Control_c, 0, 67, 24
1, 68745, Control_c, 0, 67, 23
1, 68759, Note_off_c, 0, 40, 64
1, 68760, Control_c, 0, 64, 47
1, 68774, Control_c, 0, 64, 71
1, 68774, Control_c, 0, 67, 22
1, 68789, Control_c, 0, 64, 84
1, 68804, Control_c, 0, 64, 101
1, 68804, Control_c, 0, 67, 22
1, 68818, Control_c, 0, 64, 110
1, 68833, Control_c, 0, 64, 113
1, 68848, Control_c, 0, 64, 115
1, 68863, Control_c, 0, 64, 118
1, 68879, Control_c, 0, 64, 124
1, 68894, Control_c, 0, 64, 127
1, 68899, Note_off_c, 0, 72, 54
1, 68983, Note_on_c, 0, 56, 48
1, 68986, Note_on_c, 0, 68, 47
1, 68987, Note_on_c, 0, 61, 45
1, 69011, Note_off_c, 0, 68, 56
1, 69012, Note_off_c, 0, 56, 56
1, 69034, Note_off_c, 0, 61, 57
1, 69052, Note_on_c, 0, 73, 63
1, 69135, Note_off_c, 0, 73, 58
1, 69139, Note_on_c, 0, 68, 40
1, 69140, Note_on_c, 0, 61, 55
1, 69150, Note_on_c, 0, 72, 67
1, 69154, Note_on_c, 0, 56, 44
1, 69170, Note_off_c, 0, 61, 64
1, 69174, Note_off_c, 0, 68, 54
1, 69185, Note_off_c, 0, 56, 61
1, 69234, Note_off_c, 0, 72, 62
1, 69242, Note_on_c, 0, 73, 68
1, 69301, Control_c, 0, 67, 23
1, 69315, Control_c, 0, 67, 24
1, 69330, Control_c, 0, 67, 24
1, 69345, Control_c, 0, 64, 106
1, 69345, Control_c, 0, 67, 25
1, 69360, Control_c, 0, 64, 85
1, 69371, Note_off_c, 0, 73, 57
1, 69375, Control_c, 0, 64, 59
1, 69382, Note_on_c, 0, 38, 62
1, 69384, Note_on_c, 0, 71, 63
1, 69389, Control_c, 0, 64, 0
1, 69389, Control_c, 0, 67, 24
1, 69437, Note_off_c, 0, 38, 61
1, 69448, Control_c, 0, 64, 64
1, 69448, Control_c, 0, 67, 24
1, 69463, Control_c, 0, 64, 75
1, 69463, Control_c, 0, 67, 23
1, 69478, Control_c, 0, 64, 90
1, 69478, Control_c, 0, 67, 23
1, 69481, Note_off_c, 0, 71, 59
1, 69492, Note_on_c, 0, 72, 68
1, 69493, Control_c, 0, 64, 102
1, 69493, Control_c, 0, 67, 22
1, 69508, Control_c, 0, 64, 108
1, 69508, Control_c, 0, 67, 22
1, 69518, Note_off_c, 0, 72, 68
1, 69523, Control_c, 0, 64, 111
1, 69523, Control_c, 0, 67, 21
1, 69538, Control_c, 0, 64, 114
1, 69538, Control_c, 0, 67, 21
1, 69553, Control_c, 0, 64, 115
1, 69567, Control_c, 0, 64, 117
1, 69567, Control_c, 0, 67, 20
1, 69582, Control_c, 0, 64, 119
1, 69582, Control_c, 0, 67, 20
1, 69597, Control_c, 0, 64, 121
1, 69612, Control_c, 0, 64, 124
1, 69625, Note_on_c, 0, 65, 61
1, 69626, Note_on_c, 0, 71, 72
1, 69627, Control_c, 0, 64, 125
1, 69636, Note_on_c, 0, 55, 52
1, 69641, Control_c, 0, 64, 127
1, 69655, Note_off_c, 0, 65, 61
1, 69656, Control_c, 0, 64, 127
1, 69658, Note_off_c, 0, 71, 57
1, 69663, Note_on_c, 0, 53, 29
1, 69709, Note_off_c, 0, 53, 49
1, 69717, Control_c, 0, 67, 20
1, 69722, Note_off_c, 0, 55, 63
1, 69725, Note_on_c, 0, 72, 63
1, 69743, Note_off_c, 0, 72, 66
1, 69761, Control_c, 0, 67, 21
1, 69827, Note_on_c, 0, 67, 78
1, 69868, Note_off_c, 0, 67, 60
1, 69894, Control_c, 0, 67, 20
1, 69915, Note_on_c, 0, 69, 77
1, 69924, Control_c, 0, 67, 20
1, 69946, Note_off_c, 0, 69, 70
1, 69961, Control_c, 0, 67, 20
1, 69976, Control_c, 0, 67, 21
1, 69991, Control_c, 0, 67, 21
1, 70006, Control_c, 0, 64, 119
1, 70006, Control_c, 0, 67, 22
1, 70020, Control_c, 0, 64, 103
1, 70020, Control_c, 0, 67, 22
1, 70035, Control_c, 0, 64, 84
1, 70050, Control_c, 0, 64, 46
1, 70065, Control_c, 0, 64, 0
1, 70068, Note_on_c, 0, 71, 68
1, 70073, Note_on_c, 0, 36, 54
1, 70142, Note_off_c, 0, 36, 65
1, 70153, Control_c, 0, 64, 68
1, 70153, Control_c, 0, 67, 21
1, 70168, Control_c, 0, 64, 78
1, 70168, Control_c, 0, 67, 21
1, 70183, Control_c, 0, 64, 90
1, 70183, Control_c, 0, 67, 20
1, 70197, Control_c, 0, 64, 101
1, 70212, Control_c, 0, 64, 109
1, 70212, Control_c, 0, 67, 20
1, 70227, Control_c, 0, 64, 113
1, 70242, Control_c, 0, 64, 117
1, 70242, Control_c, 0, 67, 19
1, 70257, Control_c, 0, 64, 121
1, 70271, Control_c, 0, 64, 127
1, 70286, Control_c, 0, 67, 20
1, 70316, Note_on_c, 0, 60, 55
1, 70320, Note_on_c, 0, 64, 50
1, 70322, Note_on_c, 0, 55, 43
1, 70348, Note_off_c, 0, 64, 60
1, 70352, Note_off_c, 0, 60, 61
1, 70360, Control_c, 0, 67, 20
1, 70365, Note_off_c, 0, 55, 46
1, 70375, Control_c, 0, 67, 21
1, 70388, Note_on_c, 0, 72, 72
1, 70403, Note_off_c, 0, 71, 56
1, 70487, Note_on_c, 0, 74, 70
1, 70492, Note_on_c, 0, 55, 51
1, 70493, Note_off_c, 0, 72, 63
1, 70500, Note_on_c, 0, 60, 42
1, 70524, Control_c, 0, 67, 20
1, 70530, Note_off_c, 0, 55, 63
1, 70533, Note_off_c, 0, 60, 45
1, 70562, Poly_aftertouch_c, 0, 64, 0
1, 70569, Note_on_c, 0, 76, 72
1, 70576, Note_off_c, 0, 74, 62
1, 70614, Control_c, 0, 67, 21
1, 70643, Control_c, 0, 67, 22
1, 70650, Note_off_c, 0, 76, 65
1, 70658, Control_c, 0, 67, 22
1, 70673, Control_c, 0, 67, 23
1, 70694, Note_on_c, 0, 44, 66
1, 70694, Control_c, 0, 64, 124
1, 70694, Control_c, 0, 67, 24
1, 70700, Note_on_c, 0, 77, 78
1, 70709, Control_c, 0, 64, 98
1, 70724, Control_c, 0, 64, 74
1, 70724, Control_c, 0, 67, 25
1, 70739, Control_c, 0, 64, 0
1, 70754, Control_c, 0, 67, 24
1, 70769, Control_c, 0, 64, 52
1, 70775, Note_off_c, 0, 44, 64
1, 70784, Control_c, 0, 64, 72
1, 70784, Control_c, 0, 67, 24
1, 70799, Control_c, 0, 64, 85
1, 70813, Control_c, 0, 64, 99
1, 70813, Control_c, 0, 67, 23
1, 70828, Control_c, 0, 64, 108
1, 70843, Control_c, 0, 64, 111
1, 70843, Control_c, 0, 67, 23
1, 70858, Control_c, 0, 64, 113
1, 70858, Control_c, 0, 67, 22
1, 70873, Control_c, 0, 64, 116
1, 70888, Control_c, 0, 64, 121
1, 70902, Control_c, 0, 64, 125
1, 70917, Control_c, 0, 64, 127
1, 70932, Control_c, 0, 64, 127
1, 70936, Note_on_c, 0, 56, 52
1, 70936, Note_on_c, 0, 65, 57
1, 70940, Note_on_c, 0, 60, 48
1, 70961, Note_off_c, 0, 65, 60
1, 70981, Note_off_c, 0, 60, 58
1, 70987, Note_off_c, 0, 56, 55
1, 71011, Note_on_c, 0, 79, 78
1, 71013, Note_off_c, 0, 77, 60
1, 71085, Note_on_c, 0, 65, 46
1, 71091, Note_on_c, 0, 60, 54
1, 71094, Note_on_c, 0, 81, 77
1, 71094, Control_c, 0, 67, 22
1, 71098, Note_on_c, 0, 56, 55
1, 71100, Note_off_c, 0, 79, 61
1, 71106, Note_off_c, 0, 65, 62
1, 71121, Note_off_c, 0, 60, 66
1, 71144, Note_off_c, 0, 56, 62
1, 71155, Note_off_c, 0, 81, 61
1, 71158, Note_on_c, 0, 83, 73
1, 71183, Control_c, 0, 67, 21
1, 71232, Note_off_c, 0, 83, 58
1, 71237, Note_on_c, 0, 84, 74
1, 71258, Control_c, 0, 67, 22
1, 71273, Control_c, 0, 67, 23
1, 71288, Control_c, 0, 64, 115
1, 71288, Control_c, 0, 67, 24
1, 71298, Note_on_c, 0, 36, 69
1, 71303, Control_c, 0, 64, 96
1, 71303, Control_c, 0, 67, 24
1, 71308, Note_off_c, 0, 84, 57
1, 71312, Note_on_c, 0, 72, 82
1, 71317, Control_c, 0, 64, 75
1, 71332, Control_c, 0, 64, 0
1, 71361, Note_off_c, 0, 36, 63
1, 71362, Control_c, 0, 67, 24
1, 71377, Control_c, 0, 64, 64
1, 71377, Control_c, 0, 67, 23
1, 71392, Control_c, 0, 64, 76
1, 71407, Control_c, 0, 64, 90
1, 71407, Control_c, 0, 67, 23
1, 71422, Control_c, 0, 64, 103
1, 71422, Control_c, 0, 67, 22
1, 71443, Control_c, 0, 64, 109
1, 71458, Control_c, 0, 64, 111
1, 71458, Control_c, 0, 67, 22
1, 71473, Control_c, 0, 64, 112
1, 71488, Control_c, 0, 64, 114
1, 71488, Control_c, 0, 67, 21
1, 71503, Control_c, 0, 64, 115
1, 71517, Control_c, 0, 64, 117
1, 71532, Control_c, 0, 64, 118
1, 71547, Control_c, 0, 64, 118
1, 71552, Note_on_c, 0, 60, 48
1, 71553, Note_on_c, 0, 55, 51
1, 71553, Note_on_c, 0, 64, 48
1, 71562, Control_c, 0, 64, 119
1, 71577, Control_c, 0, 64, 119
1, 71580, Note_off_c, 0, 64, 60
1, 71587, Note_off_c, 0, 60, 58
1, 71592, Note_off_c, 0, 55, 61
1, 71620, Note_on_c, 0, 71, 71
1, 71621, Note_off_c, 0, 72, 59
1, 71691, Note_off_c, 0, 71, 54
1, 71707, Note_on_c, 0, 72, 73
1, 71711, Control_c, 0, 67, 21
1, 71712, Note_on_c, 0, 60, 46
1, 71713, Note_on_c, 0, 55, 49
1, 71733, Note_off_c, 0, 60, 62
1, 71741, Control_c, 0, 67, 20
1, 71747, Note_off_c, 0, 55, 63
1, 71775, Poly_aftertouch_c, 0, 64, 0
1, 71791, Note_off_c, 0, 72, 42
1, 71798, Note_on_c, 0, 71, 77
1, 71815, Control_c, 0, 67, 20
1, 71830, Control_c, 0, 67, 21
1, 71844, Control_c, 0, 64, 117
1, 71844, Control_c, 0, 67, 22
1, 71859, Control_c, 0, 64, 103
1, 71859, Control_c, 0, 67, 22
1, 71874, Control_c, 0, 64, 80
1, 71875, Note_off_c, 0, 71, 56
1, 71889, Control_c, 0, 64, 0
1, 71889, Control_c, 0, 67, 23
1, 71898, Note_on_c, 0, 44, 68
1, 71906, Note_on_c, 0, 72, 83
1, 71940, Note_off_c, 0, 44, 64
1, 71948, Control_c, 0, 64, 66
1, 71962, Control_c, 0, 64, 82
1, 71962, Control_c, 0, 67, 22
1, 71977, Control_c, 0, 64, 99
1, 71988, Note_off_c, 0, 72, 63
1, 71992, Control_c, 0, 64, 114
1, 71992, Control_c, 0, 67, 22
1, 72007, Control_c, 0, 64, 117
1, 72007, Control_c, 0, 67, 21
1, 72022, Control_c, 0, 64, 119
1, 72022, Control_c, 0, 67, 21
1, 72036, Control_c, 0, 64, 120
1, 72051, Control_c, 0, 64, 122
1, 72067, Control_c, 0, 64, 123
1, 72082, Control_c, 0, 64, 124
1, 72097, Control_c, 0, 64, 126
1, 72097, Control_c, 0, 67, 21
1, 72101, Note_on_c, 0, 56, 58
1, 72110, Note_on_c, 0, 64, 55
1, 72112, Control_c, 0, 64, 127
1, 72118, Note_on_c, 0, 73, 68
1, 72140, Note_off_c, 0, 64, 55
1, 72144, Note_off_c, 0, 73, 64
1, 72156, Control_c, 0, 67, 22
1, 72171, Note_on_c, 0, 85, 80
1, 72175, Note_off_c, 0, 56, 56
1, 72262, Note_on_c, 0, 87, 79
1, 72263, Note_off_c, 0, 85, 63
1, 72275, Note_on_c, 0, 64, 51
1, 72278, Note_on_c, 0, 56, 58
1, 72281, Note_on_c, 0, 61, 58
1, 72297, Note_off_c, 0, 64, 59
1, 72307, Note_off_c, 0, 56, 64
1, 72311, Note_off_c, 0, 61, 64
1, 72325, Note_on_c, 0, 88, 79
1, 72356, Control_c, 0, 67, 21
1, 72357, Note_off_c, 0, 87, 62
1, 72375, Note_off_c, 0, 88, 63
1, 72400, Control_c, 0, 67, 22
1, 72408, Note_on_c, 0, 43, 66
1, 72415, Control_c, 0, 67, 22
1, 72430, Control_c, 0, 64, 103
1, 72430, Control_c, 0, 67, 23
1, 72434, Note_off_c, 0, 43, 55
1, 72445, Control_c, 0, 64, 73
1, 72451, Note_on_c, 0, 51, 74
1, 72459, Control_c, 0, 64, 0
1, 72459, Control_c, 0, 67, 24
1, 72473, Control_c, 0, 67, 24
1, 72488, Control_c, 0, 67, 24
1, 72492, Note_on_c, 0, 89, 94
1, 72494, Note_on_c, 0, 77, 94
1, 72495, Note_on_c, 0, 83, 80
1, 72502, Note_on_c, 0, 59, 89
1, 72503, Control_c, 0, 67, 23
1, 72518, Control_c, 0, 64, 65
1, 72518, Control_c, 0, 67, 23
1, 72533, Control_c, 0, 64, 82
1, 72533, Control_c, 0, 67, 22
1, 72539, Note_off_c, 0, 59, 61
1, 72542, Note_off_c, 0, 51, 62
1, 72547, Control_c, 0, 64, 112
1, 72547, Control_c, 0, 67, 22
1, 72553, Note_off_c, 0, 77, 59
1, 72562, Control_c, 0, 64, 127
1, 72562, Control_c, 0, 67, 21
1, 72565, Note_off_c, 0, 89, 65
1, 72573, Note_off_c, 0, 83, 55
1, 72577, Control_c, 0, 67, 21
1, 72578, Poly_aftertouch_c, 0, 87, 0
1, 72591, Control_c, 0, 67, 20
1, 72606, Control_c, 0, 67, 19
1, 72621, Control_c, 0, 67, 19
1, 72680, Control_c, 0, 67, 19
1, 72695, Control_c, 0, 67, 20
1, 72722, Note_on_c, 0, 88, 83
1, 72754, Control_c, 0, 67, 20
1, 72758, Note_off_c, 0, 88, 61
1, 72769, Control_c, 0, 67, 21
1, 72799, Control_c, 0, 64, 120
1, 72799, Control_c, 0, 67, 21
1, 72804, Note_on_c, 0, 86, 83
1, 72814, Control_c, 0, 64, 109
1, 72814, Control_c, 0, 67, 22
1, 72829, Control_c, 0, 64, 97
1, 72843, Control_c, 0, 64, 87
1, 72845, Note_off_c, 0, 86, 65
1, 72859, Control_c, 0, 64, 76
1, 72874, Control_c, 0, 64, 64
1, 72888, Control_c, 0, 64, 0
1, 72903, Note_on_c, 0, 84, 85
1, 72978, Note_off_c, 0, 84, 62
1, 72982, Note_on_c, 0, 83, 76
1, 73002, Note_off_c, 0, 83, 68
1, 73014, Control_c, 0, 67, 22
1, 73029, Control_c, 0, 67, 23
1, 73044, Control_c, 0, 67, 23
1, 73059, Control_c, 0, 67, 24
1, 73103, Control_c, 0, 67, 24
1, 73118, Control_c, 0, 67, 23
1, 73127, Note_on_c, 0, 61, 84
1, 73127, Note_on_c, 0, 64, 93
1, 73127, Note_on_c, 0, 76, 82
1, 73129, Note_on_c, 0, 70, 85
1, 73130, Note_on_c, 0, 56, 83
1, 73133, Note_on_c, 0, 58, 77
1, 73133, Control_c, 0, 64, 62
1, 73148, Control_c, 0, 64, 80
1, 73148, Control_c, 0, 67, 22
1, 73162, Control_c, 0, 64, 102
1, 73170, Note_off_c, 0, 70, 56
1, 73170, Note_off_c, 0, 64, 65
1, 73177, Control_c, 0, 64, 127
1, 73192, Control_c, 0, 67, 22
1, 73195, Note_off_c, 0, 56, 64
1, 73195, Note_off_c, 0, 76, 65
1, 73197, Note_off_c, 0, 61, 64
1, 73206, Note_off_c, 0, 58, 64
1, 73207, Control_c, 0, 67, 21
1, 73222, Control_c, 0, 67, 20
1, 73237, Control_c, 0, 67, 19
1, 73238, Poly_aftertouch_c, 0, 72, 0
1, 73281, Control_c, 0, 67, 19
1, 73296, Control_c, 0, 67, 20
1, 73326, Control_c, 0, 67, 20
1, 73349, Note_on_c, 0, 71, 78
1, 73371, Note_off_c, 0, 71, 68
1, 73385, Control_c, 0, 67, 21
1, 73400, Control_c, 0, 64, 126
1, 73414, Control_c, 0, 64, 115
1, 73414, Control_c, 0, 67, 22
1, 73427, Note_on_c, 0, 73, 87
1, 73429, Control_c, 0, 64, 107
1, 73429, Control_c, 0, 67, 22
1, 73444, Control_c, 0, 64, 98
1, 73459, Control_c, 0, 64, 89
1, 73468, Note_off_c, 0, 73, 64
1, 73474, Control_c, 0, 64, 79
1, 73474, Control_c, 0, 67, 23
1, 73488, Control_c, 0, 64, 64
1, 73503, Control_c, 0, 64, 0
1, 73524, Note_on_c, 0, 74, 81
1, 73533, Control_c, 0, 67, 23
1, 73548, Control_c, 0, 67, 24
1, 73574, Note_on_c, 0, 43, 73
1, 73577, Control_c, 0, 67, 25
1, 73589, Note_on_c, 0, 76, 77
1, 73594, Note_off_c, 0, 74, 64
1, 73607, Control_c, 0, 67, 24
1, 73619, Note_on_c, 0, 45, 43
1, 73624, Note_off_c, 0, 76, 67
1, 73631, Note_on_c, 0, 51, 75
1, 73636, Control_c, 0, 67, 23
1, 73639, Note_off_c, 0, 43, 62
1, 73651, Note_off_c, 0, 45, 57
1, 73652, Control_c, 0, 67, 22
1, 73667, Control_c, 0, 67, 22
1, 73690, Control_c, 0, 67, 20
1, 73705, Control_c, 0, 64, 18
1, 73705, Control_c, 0, 67, 20
1, 73719, Control_c, 0, 64, 72
1, 73720, Note_on_c, 0, 59, 87
1, 73728, Note_on_c, 0, 82, 90
1, 73729, Note_off_c, 0, 51, 64
1, 73730, Note_on_c, 0, 89, 84
1, 73731, Note_on_c, 0, 77, 91
1, 73734, Control_c, 0, 64, 93
1, 73740, Note_off_c, 0, 82, 68
1, 73741, Note_on_c, 0, 86, 72
1, 73749, Control_c, 0, 64, 127
1, 73749, Control_c, 0, 67, 19
1, 73754, Note_off_c, 0, 77, 58
1, 73758, Note_off_c, 0, 86, 68
1, 73759, Note_on_c, 0, 83, 47
1, 73760, Note_off_c, 0, 83, 127
1, 73763, Note_off_c, 0, 59, 64
1, 73764, Control_c, 0, 67, 18
1, 73769, Note_off_c, 0, 89, 60
1, 73779, Control_c, 0, 67, 17
1, 73784, Poly_aftertouch_c, 0, 83, 0
1, 73808, Control_c, 0, 67, 17
1, 73837, Control_c, 0, 67, 17
1, 73852, Control_c, 0, 67, 18
1, 73867, Control_c, 0, 67, 20
1, 73882, Control_c, 0, 67, 22
1, 73897, Control_c, 0, 64, 109
1, 73897, Control_c, 0, 67, 23
1, 73911, Control_c, 0, 64, 87
1, 73911, Control_c, 0, 67, 23
1, 73926, Control_c, 0, 64, 60
1, 73926, Control_c, 0, 67, 24
1, 73941, Control_c, 0, 64, 0
1, 73941, Control_c, 0, 67, 24
1, 73956, Control_c, 0, 67, 25
1, 73973, Note_on_c, 0, 64, 82
1, 73976, Note_on_c, 0, 73, 80
1, 73976, Note_on_c, 0, 76, 61
1, 73979, Note_on_c, 0, 61, 74
1, 73979, Note_on_c, 0, 70, 79
1, 73982, Note_on_c, 0, 56, 64
1, 73985, Control_c, 0, 67, 24
1, 73995, Note_on_c, 0, 58, 53
1, 74000, Note_off_c, 0, 70, 70
1, 74000, Control_c, 0, 67, 24
1, 74011, Note_off_c, 0, 73, 64
1, 74015, Control_c, 0, 64, 49
1, 74015, Control_c, 0, 67, 23
1, 74016, Note_off_c, 0, 64, 61
1, 74018, Note_off_c, 0, 56, 66
1, 74024, Note_off_c, 0, 76, 66
1, 74030, Control_c, 0, 64, 72
1, 74030, Control_c, 0, 67, 22
1, 74032, Note_off_c, 0, 58, 65
1, 74033, Note_off_c, 0, 61, 59
1, 74045, Control_c, 0, 64, 86
1, 74060, Control_c, 0, 64, 103
1, 74060, Control_c, 0, 67, 22
1, 74075, Control_c, 0, 64, 123
1, 74083, Note_on_c, 0, 76, 91
1, 74090, Control_c, 0, 64, 127
1, 74090, Control_c, 0, 67, 21
1, 74104, Control_c, 0, 67, 20
1, 74119, Control_c, 0, 67, 20
1, 74125, Note_off_c, 0, 76, 67
1, 74134, Control_c, 0, 67, 19
1, 74149, Control_c, 0, 67, 19
1, 74180, Note_on_c, 0, 64, 81
1, 74186, Note_on_c, 0, 76, 90
1, 74236, Note_off_c, 0, 64, 64
1, 74240, Note_off_c, 0, 76, 65
1, 74253, Control_c, 0, 67, 20
1, 74268, Note_on_c, 0, 88, 86
1, 74307, Note_off_c, 0, 88, 65
1, 74356, Control_c, 0, 67, 20
1, 74371, Control_c, 0, 67, 21
1, 74388, Note_on_c, 0, 88, 102
1, 74391, Note_on_c, 0, 76, 79
1, 74422, Note_off_c, 0, 76, 64
1, 74423, Note_off_c, 0, 88, 64
1, 74438, Control_c, 0, 67, 20
1, 74453, Control_c, 0, 67, 20
1, 74487, Note_on_c, 0, 88, 95
1, 74544, Note_off_c, 0, 88, 63
1, 74622, Note_on_c, 0, 100, 97
1, 74632, Note_on_c, 0, 88, 92
1, 74646, Note_off_c, 0, 88, 73
1, 74674, Note_off_c, 0, 100, 65
1, 74721, Control_c, 0, 67, 20
1, 74739, Note_on_c, 0, 88, 85
1, 74750, Control_c, 0, 67, 21
1, 74787, Note_off_c, 0, 88, 63
1, 74857, Note_on_c, 0, 88, 83
1, 74898, Note_off_c, 0, 88, 65
1, 74956, Note_on_c, 0, 38, 72
1, 74972, Control_c, 0, 67, 21
1, 74975, Note_on_c, 0, 88, 89
1, 74987, Control_c, 0, 67, 22
1, 75002, Control_c, 0, 67, 23
1, 75011, Note_on_c, 0, 45, 77
1, 75014, Note_off_c, 0, 38, 61
1, 75015, Note_off_c, 0, 88, 64
1, 75017, Control_c, 0, 64, 100
1, 75017, Control_c, 0, 67, 23
1, 75031, Control_c, 0, 64, 70
1, 75031, Control_c, 0, 67, 24
1, 75046, Control_c, 0, 64, 0
1, 75061, Control_c, 0, 67, 23
1, 75076, Control_c, 0, 67, 22
1, 75089, Note_on_c, 0, 53, 94
1, 75091, Note_on_c, 0, 88, 104
1, 75091, Control_c, 0, 67, 22
1, 75091, Note_off_c, 0, 45, 63
1, 75106, Control_c, 0, 64, 64
1, 75106, Control_c, 0, 67, 21
1, 75121, Control_c, 0, 64, 82
1, 75121, Control_c, 0, 67, 20
1, 75127, Note_off_c, 0, 53, 67
1, 75135, Control_c, 0, 64, 103
1, 75135, Control_c, 0, 67, 19
1, 75137, Note_off_c, 0, 88, 63
1, 75150, Control_c, 0, 64, 127
1, 75150, Control_c, 0, 67, 18
1, 75165, Control_c, 0, 67, 18
1, 75190, Note_on_c, 0, 89, 70
1, 75201, Control_c, 0, 67, 17
1, 75217, Note_off_c, 0, 89, 70
1, 75219, Note_on_c, 0, 91, 24
1, 75220, Note_off_c, 0, 91, 127
1, 75262, Control_c, 0, 67, 18
1, 75277, Control_c, 0, 67, 18
1, 75291, Control_c, 0, 67, 19
1, 75306, Control_c, 0, 67, 21
1, 75321, Control_c, 0, 64, 113
1, 75321, Control_c, 0, 67, 22
1, 75324, Note_on_c, 0, 78, 100
1, 75328, Note_on_c, 0, 62, 61
1, 75331, Note_on_c, 0, 57, 61
1, 75336, Control_c, 0, 64, 95
1, 75336, Control_c, 0, 67, 22
1, 75341, Note_on_c, 0, 65, 57
1, 75350, Note_off_c, 0, 78, 60
1, 75351, Control_c, 0, 64, 77
1, 75365, Note_off_c, 0, 65, 61
1, 75365, Control_c, 0, 64, 56
1, 75369, Note_off_c, 0, 57, 59
1, 75371, Note_off_c, 0, 62, 56
1, 75380, Control_c, 0, 64, 0
1, 75431, Note_on_c, 0, 79, 86
1, 75464, Note_off_c, 0, 79, 61
1, 75514, Note_on_c, 0, 62, 54
1, 75517, Note_on_c, 0, 57, 56
1, 75529, Note_on_c, 0, 65, 15
1, 75530, Note_off_c, 0, 65, 40
1, 75531, Note_on_c, 0, 80, 90
1, 75539, Note_off_c, 0, 62, 54
1, 75547, Note_off_c, 0, 57, 64
1, 75564, Note_off_c, 0, 80, 66
1, 75603, Control_c, 0, 67, 23
1, 75617, Control_c, 0, 67, 24
1, 75631, Note_on_c, 0, 81, 89
1, 75632, Control_c, 0, 67, 24
1, 75647, Control_c, 0, 67, 25
1, 75651, Note_on_c, 0, 44, 65
1, 75667, Note_off_c, 0, 81, 62
1, 75672, Note_on_c, 0, 50, 65
1, 75676, Control_c, 0, 67, 24
1, 75690, Note_off_c, 0, 44, 65
1, 75691, Control_c, 0, 67, 23
1, 75706, Control_c, 0, 67, 22
1, 75721, Control_c, 0, 64, 55
1, 75721, Control_c, 0, 67, 22
1, 75729, Note_off_c, 0, 50, 63
1, 75735, Note_on_c, 0, 58, 91
1, 75736, Control_c, 0, 64, 75
1, 75736, Control_c, 0, 67, 21
1, 75744, Note_on_c, 0, 82, 101
1, 75750, Control_c, 0, 64, 93
1, 75765, Control_c, 0, 64, 124
1, 75765, Control_c, 0, 67, 21
1, 75771, Note_off_c, 0, 58, 62
1, 75780, Control_c, 0, 64, 127
1, 75789, Note_off_c, 0, 82, 64
1, 75795, Control_c, 0, 67, 20
1, 75824, Control_c, 0, 67, 19
1, 75839, Control_c, 0, 67, 19
1, 75842, Note_on_c, 0, 83, 81
1, 75865, Note_off_c, 0, 83, 64
1, 75899, Control_c, 0, 67, 19
1, 75914, Control_c, 0, 67, 20
1, 75935, Control_c, 0, 67, 21
1, 75950, Control_c, 0, 67, 21
1, 75965, Control_c, 0, 64, 117
1, 75965, Control_c, 0, 67, 22
1, 75979, Note_on_c, 0, 66, 82
1, 75980, Control_c, 0, 64, 97
1, 75980, Control_c, 0, 67, 23
1, 75981, Note_on_c, 0, 72, 81
1, 75990, Note_on_c, 0, 60, 67
1, 75995, Control_c, 0, 64, 80
1, 75995, Control_c, 0, 67, 23
1, 75997, Note_on_c, 0, 61, 55
1, 76005, Note_off_c, 0, 72, 69
1, 76009, Control_c, 0, 64, 64
1, 76015, Note_off_c, 0, 66, 62
1, 76024, Control_c, 0, 64, 0
1, 76030, Note_off_c, 0, 60, 57
1, 76036, Note_off_c, 0, 61, 57
1, 76077, Note_on_c, 0, 73, 85
1, 76105, Note_off_c, 0, 73, 60
1, 76170, Note_on_c, 0, 65, 68
1, 76173, Note_on_c, 0, 61, 68
1, 76177, Note_on_c, 0, 60, 54
1, 76191, Note_on_c, 0, 74, 87
1, 76192, Note_off_c, 0, 65, 68
1, 76198, Note_off_c, 0, 61, 65
1, 76209, Note_off_c, 0, 60, 64
1, 76221, Note_off_c, 0, 74, 68
1, 76263, Control_c, 0, 67, 24
1, 76277, Note_on_c, 0, 75, 88
1, 76277, Control_c, 0, 67, 25
1, 76292, Control_c, 0, 67, 26
1, 76307, Control_c, 0, 67, 26
1, 76319, Note_on_c, 0, 38, 68
1, 76319, Note_off_c, 0, 75, 63
1, 76337, Control_c, 0, 67, 25
1, 76349, Note_off_c, 0, 38, 63
1, 76352, Control_c, 0, 67, 24
1, 76365, Note_on_c, 0, 45, 78
1, 76367, Control_c, 0, 67, 23
1, 76381, Control_c, 0, 64, 70
1, 76381, Control_c, 0, 67, 21
1, 76396, Control_c, 0, 64, 87
1, 76396, Control_c, 0, 67, 19
1, 76401, Note_on_c, 0, 76, 99
1, 76405, Note_off_c, 0, 45, 62
1, 76408, Note_on_c, 0, 53, 87
1, 76411, Control_c, 0, 64, 113
1, 76411, Control_c, 0, 67, 19
1, 76426, Control_c, 0, 64, 127
1, 76426, Control_c, 0, 67, 17
1, 76440, Control_c, 0, 67, 17
1, 76441, Note_off_c, 0, 53, 63
1, 76444, Note_off_c, 0, 76, 67
1, 76489, Note_on_c, 0, 77, 78
1, 76510, Note_off_c, 0, 77, 69
1, 76574, Control_c, 0, 67, 17
1, 76588, Control_c, 0, 67, 18
1, 76603, Control_c, 0, 67, 20
1, 76618, Control_c, 0, 67, 21
1, 76620, Note_on_c, 0, 62, 67
1, 76621, Note_on_c, 0, 66, 81
1, 76622, Note_on_c, 0, 57, 68
1, 76630, Note_on_c, 0, 65, 65
1, 76632, Control_c, 0, 64, 107
1, 76632, Control_c, 0, 67, 21
1, 76643, Note_off_c, 0, 66, 71
1, 76647, Control_c, 0, 64, 89
1, 76662, Note_off_c, 0, 65, 66
1, 76662, Control_c, 0, 64, 72
1, 76662, Control_c, 0, 67, 22
1, 76683, Note_off_c, 0, 62, 46
1, 76683, Note_off_c, 0, 57, 53
1, 76685, Control_c, 0, 64, 0
1, 76685, Control_c, 0, 67, 22
1, 76700, Control_c, 0, 67, 22
1, 76724, Note_on_c, 0, 66, 93
1, 76744, Control_c, 0, 67, 21
1, 76756, Note_off_c, 0, 66, 67
1, 76788, Control_c, 0, 67, 22
1, 76806, Note_on_c, 0, 57, 55
1, 76822, Note_on_c, 0, 62, 37
1, 76826, Note_on_c, 0, 66, 93
1, 76837, Note_off_c, 0, 57, 63
1, 76856, Note_off_c, 0, 62, 33
1, 76862, Note_off_c, 0, 66, 68
1, 76893, Control_c, 0, 67, 22
1, 76908, Control_c, 0, 67, 23
1, 76911, Note_on_c, 0, 70, 77
1, 76937, Control_c, 0, 67, 24
1, 76944, Note_off_c, 0, 70, 61
1, 76946, Note_on_c, 0, 44, 68
1, 76952, Control_c, 0, 67, 24
1, 76967, Control_c, 0, 67, 24
1, 76972, Note_off_c, 0, 44, 67
1, 76976, Note_on_c, 0, 50, 67
1, 76982, Control_c, 0, 67, 23
1, 76997, Control_c, 0, 67, 22
1, 77011, Control_c, 0, 67, 21
1, 77026, Control_c, 0, 64, 69
1, 77026, Control_c, 0, 67, 21
1, 77029, Note_off_c, 0, 50, 64
1, 77033, Note_on_c, 0, 66, 95
1, 77035, Note_on_c, 0, 58, 87
1, 77041, Control_c, 0, 64, 91
1, 77041, Control_c, 0, 67, 20
1, 77056, Control_c, 0, 64, 122
1, 77056, Control_c, 0, 67, 20
1, 77056, Note_off_c, 0, 58, 68
1, 77069, Note_off_c, 0, 66, 63
1, 77070, Control_c, 0, 64, 127
1, 77085, Control_c, 0, 67, 19
1, 77100, Control_c, 0, 67, 19
1, 77126, Note_on_c, 0, 66, 83
1, 77156, Note_off_c, 0, 66, 63
1, 77189, Control_c, 0, 67, 19
1, 77204, Control_c, 0, 67, 20
1, 77235, Note_on_c, 0, 66, 90
1, 77255, Note_on_c, 0, 60, 70
1, 77255, Note_on_c, 0, 62, 68
1, 77293, Control_c, 0, 67, 20
1, 77297, Note_on_c, 0, 70, 69
1, 77308, Control_c, 0, 67, 21
1, 77310, Note_off_c, 0, 66, 61
1, 77321, Note_off_c, 0, 70, 68
1, 77335, Note_off_c, 0, 60, 54
1, 77356, Note_off_c, 0, 62, 55
1, 77434, Control_c, 0, 67, 22
1, 77435, Note_on_c, 0, 66, 70
1, 77438, Note_on_c, 0, 62, 64
1, 77446, Note_on_c, 0, 88, 103
1, 77448, Note_off_c, 0, 66, 73
1, 77450, Note_on_c, 0, 60, 58
1, 77463, Control_c, 0, 64, 115
1, 77464, Note_off_c, 0, 62, 66
1, 77478, Control_c, 0, 64, 99
1, 77482, Note_off_c, 0, 60, 64
1, 77482, Note_off_c, 0, 88, 65
1, 77493, Control_c, 0, 64, 83
1, 77508, Control_c, 0, 64, 64
1, 77508, Control_c, 0, 67, 22
1, 77523, Control_c, 0, 64, 0
1, 77537, Note_on_c, 0, 89, 85
1, 77552, Control_c, 0, 67, 23
1, 77566, Note_off_c, 0, 89, 64
1, 77567, Control_c, 0, 67, 23
1, 77580, Note_on_c, 0, 38, 76
1, 77607, Note_off_c, 0, 38, 64
1, 77626, Control_c, 0, 67, 23
1, 77634, Note_on_c, 0, 45, 77
1, 77641, Control_c, 0, 64, 57
1, 77641, Control_c, 0, 67, 22
1, 77657, Control_c, 0, 64, 75
1, 77657, Control_c, 0, 67, 21
1, 77662, Note_on_c, 0, 42, 9
1, 77663, Note_off_c, 0, 42, 127
1, 77665, Note_on_c, 0, 88, 102
1, 77672, Control_c, 0, 64, 92
1, 77672, Control_c, 0, 67, 20
1, 77673, Note_off_c, 0, 45, 65
1, 77679, Note_on_c, 0, 53, 82
1, 77686, Control_c, 0, 64, 113
1, 77686, Control_c, 0, 67, 20
1, 77701, Control_c, 0, 64, 126
1, 77702, Note_off_c, 0, 88, 65
1, 77706, Poly_aftertouch_c, 0, 42, 0
1, 77714, Note_off_c, 0, 53, 63
1, 77716, Control_c, 0, 64, 126
1, 77716, Control_c, 0, 67, 19
1, 77731, Control_c, 0, 64, 127
1, 77731, Control_c, 0, 67, 18
1, 77746, Control_c, 0, 67, 18
1, 77750, Note_on_c, 0, 89, 80
1, 77760, Control_c, 0, 64, 127
1, 77760, Control_c, 0, 67, 17
1, 77771, Note_off_c, 0, 89, 72
1, 77819, Control_c, 0, 67, 18
1, 77849, Control_c, 0, 67, 19
1, 77864, Control_c, 0, 64, 127
1, 77864, Control_c, 0, 67, 20
1, 77878, Control_c, 0, 64, 118
1, 77878, Control_c, 0, 67, 22
1, 77881, Note_on_c, 0, 78, 92
1, 77883, Note_on_c, 0, 62, 65
1, 77891, Note_on_c, 0, 57, 59
1, 77893, Control_c, 0, 64, 104
1, 77893, Control_c, 0, 67, 23
1, 77894, Note_on_c, 0, 65, 61
1, 77899, Note_off_c, 0, 78, 71
1, 77908, Control_c, 0, 64, 84
1, 77908, Control_c, 0, 67, 24
1, 77923, Control_c, 0, 64, 66
1, 77923, Control_c, 0, 67, 25
1, 77928, Note_off_c, 0, 62, 51
1, 77928, Note_off_c, 0, 65, 63
1, 77929, Note_off_c, 0, 57, 59
1, 77938, Control_c, 0, 64, 0
1, 77938, Control_c, 0, 67, 25
1, 77953, Control_c, 0, 67, 27
1, 77968, Control_c, 0, 67, 29
1, 77974, Note_on_c, 0, 79, 83
1, 77983, Control_c, 0, 67, 33
1, 77997, Control_c, 0, 67, 39
1, 78007, Note_off_c, 0, 79, 60
1, 78012, Control_c, 0, 67, 41
1, 78027, Control_c, 0, 67, 41
1, 78057, Control_c, 0, 67, 41
1, 78060, Note_on_c, 0, 57, 54
1, 78063, Note_on_c, 0, 62, 53
1, 78073, Note_on_c, 0, 65, 30
1, 78075, Note_on_c, 0, 80, 99
1, 78077, Note_off_c, 0, 65, 43
1, 78085, Note_off_c, 0, 62, 57
1, 78090, Note_off_c, 0, 57, 64
1, 78109, Note_off_c, 0, 80, 66
1, 78131, Control_c, 0, 67, 40
1, 78160, Control_c, 0, 67, 40
1, 78169, Note_on_c, 0, 81, 89
1, 78182, Control_c, 0, 67, 39
1, 78197, Control_c, 0, 67, 39
1, 78206, Note_on_c, 0, 41, 72
1, 78212, Control_c, 0, 67, 38
1, 78212, Note_off_c, 0, 81, 63
1, 78227, Control_c, 0, 67, 38
1, 78242, Note_off_c, 0, 41, 69
1, 78242, Control_c, 0, 67, 37
1, 78268, Note_on_c, 0, 50, 58
1, 78272, Control_c, 0, 64, 67
1, 78272, Control_c, 0, 67, 36
1, 78286, Control_c, 0, 64, 87
1, 78286, Control_c, 0, 67, 36
1, 78293, Note_on_c, 0, 82, 104
1, 78301, Control_c, 0, 64, 112
1, 78301, Control_c, 0, 67, 36
1, 78305, Note_on_c, 0, 56, 89
1, 78311, Note_off_c, 0, 50, 62
1, 78316, Control_c, 0, 64, 127
1, 78316, Control_c, 0, 67, 36
1, 78334, Note_off_c, 0, 56, 63
1, 78336, Note_off_c, 0, 82, 62
1, 78346, Control_c, 0, 67, 35
1, 78383, Note_on_c, 0, 83, 83
1, 78403, Note_off_c, 0, 83, 65
1, 78419, Control_c, 0, 67, 36
1, 78434, Control_c, 0, 67, 37
1, 78450, Control_c, 0, 67, 38
1, 78465, Control_c, 0, 64, 123
1, 78465, Control_c, 0, 67, 40
1, 78480, Control_c, 0, 64, 103
1, 78480, Control_c, 0, 67, 43
1, 78495, Control_c, 0, 64, 87
1, 78495, Control_c, 0, 67, 53
1, 78506, Note_on_c, 0, 72, 78
1, 78509, Control_c, 0, 64, 69
1, 78509, Control_c, 0, 67, 90
1, 78518, Note_on_c, 0, 60, 56
1, 78524, Control_c, 0, 64, 0
1, 78524, Control_c, 0, 67, 127
1, 78528, Note_on_c, 0, 66, 59
1, 78534, Note_off_c, 0, 72, 66
1, 78543, Note_on_c, 0, 61, 43
1, 78563, Note_off_c, 0, 60, 59
1, 78564, Note_off_c, 0, 66, 63
1, 78576, Note_off_c, 0, 61, 56
1, 78598, Note_on_c, 0, 73, 82
1, 78619, Note_off_c, 0, 73, 70
1, 78713, Note_on_c, 0, 61, 57
1, 78725, Note_on_c, 0, 74, 71
1, 78726, Note_on_c, 0, 66, 42
1, 78732, Note_on_c, 0, 60, 35
1, 78749, Note_off_c, 0, 74, 70
1, 78750, Note_off_c, 0, 61, 64
1, 78754, Note_off_c, 0, 66, 54
1, 78758, Note_off_c, 0, 60, 53
1, 78813, Note_on_c, 0, 76, 76
1, 78832, Note_off_c, 0, 76, 73
1, 78997, Note_on_c, 0, 77, 67
1, 78999, Note_on_c, 0, 44, 41
1, 79020, Control_c, 0, 64, 63
1, 79035, Control_c, 0, 64, 74
1, 79050, Control_c, 0, 64, 88
1, 79065, Control_c, 0, 64, 100
1, 79080, Control_c, 0, 64, 106
1, 79092, Note_off_c, 0, 44, 61
1, 79094, Control_c, 0, 64, 109
1, 79109, Control_c, 0, 64, 112
1, 79124, Control_c, 0, 64, 114
1, 79139, Control_c, 0, 64, 118
1, 79153, Control_c, 0, 64, 121
1, 79168, Control_c, 0, 64, 122
1, 79273, Note_on_c, 0, 65, 55
1, 79285, Note_on_c, 0, 62, 42
1, 79288, Note_on_c, 0, 60, 38
1, 79300, Note_off_c, 0, 65, 65
1, 79325, Note_off_c, 0, 62, 62
1, 79329, Note_off_c, 0, 60, 60
1, 79371, Note_off_c, 0, 77, 56
1, 79375, Note_on_c, 0, 76, 59
1, 79472, Note_off_c, 0, 76, 63
1, 79478, Note_on_c, 0, 74, 59
1, 79549, Note_on_c, 0, 72, 72
1, 79549, Note_off_c, 0, 74, 60
1, 79568, Control_c, 0, 64, 122
1, 79583, Control_c, 0, 64, 121
1, 79598, Control_c, 0, 64, 120
1, 79613, Control_c, 0, 64, 113
1, 79628, Control_c, 0, 64, 99
1, 79634, Note_off_c, 0, 72, 57
1, 79643, Control_c, 0, 64, 80
1, 79658, Control_c, 0, 64, 0
1, 79690, Note_on_c, 0, 71, 68
1, 79691, Note_on_c, 0, 44, 52
1, 79757, Note_off_c, 0, 44, 64
1, 79769, Control_c, 0, 64, 68
1, 79783, Control_c, 0, 64, 83
1, 79783, Control_c, 0, 67, 109
1, 79795, Note_off_c, 0, 71, 62
1, 79798, Control_c, 0, 64, 101
1, 79798, Control_c, 0, 67, 78
1, 79813, Control_c, 0, 64, 120
1, 79813, Control_c, 0, 67, 46
1, 79828, Control_c, 0, 64, 125
1, 79828, Control_c, 0, 67, 18
1, 79843, Control_c, 0, 64, 126
1, 79843, Control_c, 0, 67, 0
1, 79858, Control_c, 0, 64, 127
1, 79942, Note_on_c, 0, 62, 56
1, 79944, Note_on_c, 0, 64, 56
1, 79947, Note_on_c, 0, 59, 52
1, 79977, Note_off_c, 0, 64, 63
1, 79984, Note_off_c, 0, 62, 59
1, 79999, Note_off_c, 0, 59, 56
1, 80153, Note_on_c, 0, 88, 101
1, 80170, Control_c, 0, 64, 122
1, 80185, Control_c, 0, 64, 112
1, 80190, Note_off_c, 0, 88, 65
1, 80199, Control_c, 0, 64, 98
1, 80214, Control_c, 0, 64, 82
1, 80229, Control_c, 0, 64, 62
1, 80243, Note_on_c, 0, 89, 86
1, 80244, Control_c, 0, 64, 0
1, 80250, Note_on_c, 0, 38, 56
1, 80272, Note_off_c, 0, 89, 67
1, 80287, Note_off_c, 0, 38, 54
1, 80296, Note_on_c, 0, 40, 21
1, 80305, Note_on_c, 0, 45, 69
1, 80325, Note_off_c, 0, 40, 48
1, 80326, Note_on_c, 0, 43, 21
1, 80355, Note_on_c, 0, 88, 97
1, 80357, Note_off_c, 0, 43, 48
1, 80361, Note_on_c, 0, 53, 90
1, 80362, Control_c, 0, 64, 65
1, 80366, Note_off_c, 0, 45, 64
1, 80377, Control_c, 0, 64, 83
1, 80391, Control_c, 0, 64, 104
1, 80392, Note_off_c, 0, 88, 63
1, 80396, Note_off_c, 0, 53, 62
1, 80406, Control_c, 0, 64, 127
1, 80450, Note_on_c, 0, 89, 77
1, 80471, Note_off_c, 0, 89, 72
1, 80582, Note_on_c, 0, 80, 87
1, 80589, Note_on_c, 0, 62, 64
1, 80590, Note_on_c, 0, 57, 65
1, 80591, Note_on_c, 0, 65, 66
1, 80592, Control_c, 0, 64, 115
1, 80606, Note_off_c, 0, 80, 64
1, 80606, Control_c, 0, 64, 96
1, 80621, Control_c, 0, 64, 77
1, 80622, Note_off_c, 0, 65, 64
1, 80630, Note_off_c, 0, 57, 53
1, 80635, Note_off_c, 0, 62, 50
1, 80636, Control_c, 0, 64, 43
1, 80651, Control_c, 0, 64, 0
1, 80671, Note_on_c, 0, 81, 82
1, 80708, Note_off_c, 0, 81, 63
1, 80763, Note_on_c, 0, 57, 60
1, 80770, Note_on_c, 0, 65, 45
1, 80779, Note_on_c, 0, 62, 43
1, 80783, Note_on_c, 0, 88, 92
1, 80794, Note_off_c, 0, 57, 63
1, 80795, Note_off_c, 0, 65, 36
1, 80808, Note_off_c, 0, 62, 35
1, 80817, Note_off_c, 0, 88, 64
1, 80866, Note_on_c, 0, 89, 81
1, 80891, Note_off_c, 0, 89, 65
1, 80896, Note_on_c, 0, 43, 61
1, 80916, Note_on_c, 0, 51, 65
1, 80923, Note_off_c, 0, 43, 57
1, 80963, Control_c, 0, 64, 66
1, 80969, Note_on_c, 0, 90, 86
1, 80977, Note_on_c, 0, 59, 85
1, 80978, Control_c, 0, 64, 83
1, 80981, Note_off_c, 0, 51, 64
1, 80993, Control_c, 0, 64, 106
1, 81008, Control_c, 0, 64, 127
1, 81016, Note_off_c, 0, 90, 65
1, 81025, Note_off_c, 0, 59, 62
1, 81077, Note_on_c, 0, 89, 90
1, 81115, Note_off_c, 0, 89, 65
1, 81189, Note_on_c, 0, 86, 84
1, 81193, Note_on_c, 0, 62, 79
1, 81201, Note_on_c, 0, 59, 65
1, 81202, Note_on_c, 0, 65, 67
1, 81226, Note_off_c, 0, 86, 65
1, 81232, Note_off_c, 0, 65, 64
1, 81233, Note_off_c, 0, 59, 57
1, 81252, Control_c, 0, 64, 126
1, 81259, Note_off_c, 0, 62, 56
1, 81267, Control_c, 0, 64, 114
1, 81276, Note_on_c, 0, 83, 79
1, 81282, Control_c, 0, 64, 103
1, 81297, Control_c, 0, 64, 91
1, 81304, Note_off_c, 0, 83, 61
1, 81311, Control_c, 0, 64, 78
1, 81326, Control_c, 0, 64, 62
1, 81341, Control_c, 0, 64, 0
1, 81370, Note_on_c, 0, 59, 54
1, 81375, Note_on_c, 0, 65, 32
1, 81376, Note_off_c, 0, 65, 127
1, 81377, Note_on_c, 0, 62, 45
1, 81379, Note_on_c, 0, 79, 84
1, 81397, Note_off_c, 0, 59, 61
1, 81405, Note_off_c, 0, 62, 35
1, 81420, Note_off_c, 0, 79, 64
1, 81445, Control_c, 0, 67, 8
1, 81469, Note_on_c, 0, 76, 86
1, 81496, Note_on_c, 0, 38, 72
1, 81502, Note_off_c, 0, 76, 68
1, 81504, Control_c, 0, 67, 0
1, 81527, Note_off_c, 0, 38, 63
1, 81546, Note_on_c, 0, 45, 77
1, 81548, Control_c, 0, 64, 66
1, 81551, Note_on_c, 0, 42, 45
1, 81563, Control_c, 0, 64, 80
1, 81578, Control_c, 0, 64, 97
1, 81581, Note_on_c, 0, 76, 96
1, 81583, Note_off_c, 0, 42, 49
1, 81589, Note_off_c, 0, 45, 64
1, 81593, Control_c, 0, 64, 120
1, 81598, Note_on_c, 0, 53, 85
1, 81608, Control_c, 0, 64, 127
1, 81630, Note_off_c, 0, 53, 63
1, 81631, Note_off_c, 0, 76, 59
1, 81656, Note_on_c, 0, 77, 83
1, 81679, Note_off_c, 0, 77, 66
1, 81793, Note_on_c, 0, 62, 69
1, 81794, Note_on_c, 0, 66, 79
1, 81795, Note_on_c, 0, 57, 69
1, 81795, Note_on_c, 0, 65, 75
1, 81816, Note_off_c, 0, 66, 70
1, 81827, Note_off_c, 0, 65, 59
1, 81831, Control_c, 0, 64, 115
1, 81841, Note_off_c, 0, 57, 50
1, 81846, Control_c, 0, 64, 102
1, 81858, Note_off_c, 0, 62, 40
1, 81861, Control_c, 0, 64, 88
1, 81873, Note_on_c, 0, 66, 85
1, 81876, Control_c, 0, 64, 73
1, 81891, Control_c, 0, 64, 46
1, 81901, Note_off_c, 0, 66, 60
1, 81905, Control_c, 0, 64, 0
1, 81974, Note_on_c, 0, 57, 60
1, 81976, Note_on_c, 0, 62, 46
1, 81980, Note_on_c, 0, 65, 40
1, 81985, Note_on_c, 0, 66, 95
1, 82002, Note_off_c, 0, 62, 54
1, 82003, Note_off_c, 0, 57, 63
1, 82010, Note_off_c, 0, 65, 50
1, 82020, Note_off_c, 0, 66, 66
1, 82066, Note_on_c, 0, 70, 84
1, 82108, Note_off_c, 0, 70, 62
1, 82116, Note_on_c, 0, 43, 63
1, 82140, Note_on_c, 0, 51, 69
1, 82145, Note_off_c, 0, 43, 52
1, 82165, Control_c, 0, 64, 64
1, 82179, Control_c, 0, 64, 78
1, 82186, Note_on_c, 0, 66, 101
1, 82194, Control_c, 0, 64, 96
1, 82202, Note_on_c, 0, 59, 76
1, 82204, Note_off_c, 0, 51, 64
1, 82209, Control_c, 0, 64, 121
1, 82221, Note_off_c, 0, 66, 68
1, 82224, Control_c, 0, 64, 125
1, 82228, Note_off_c, 0, 59, 66
1, 82281, Note_on_c, 0, 70, 80
1, 82283, Control_c, 0, 64, 121
1, 82298, Control_c, 0, 64, 109
1, 82313, Control_c, 0, 64, 97
1, 82313, Control_c, 0, 67, 8
1, 82326, Note_off_c, 0, 70, 55
1, 82327, Control_c, 0, 64, 82
1, 82327, Control_c, 0, 67, 12
1, 82342, Control_c, 0, 64, 65
1, 82342, Control_c, 0, 67, 24
1, 82357, Control_c, 0, 64, 0
1, 82357, Control_c, 0, 67, 51
1, 82371, Control_c, 0, 67, 89
1, 82386, Control_c, 0, 67, 127
1, 82411, Note_on_c, 0, 54, 50
1, 82415, Note_on_c, 0, 66, 73
1, 82460, Note_off_c, 0, 66, 48
1, 82500, Note_off_c, 0, 54, 60
1, 82502, Note_on_c, 0, 58, 59
1, 82506, Note_on_c, 0, 70, 64
1, 82550, Note_off_c, 0, 70, 55
1, 82564, Note_off_c, 0, 58, 62
1, 82599, Note_on_c, 0, 74, 61
1, 82605, Note_on_c, 0, 62, 58
1, 82641, Note_off_c, 0, 62, 62
1, 82645, Note_off_c, 0, 74, 61
1, 82709, Note_on_c, 0, 71, 58
1, 82718, Note_on_c, 0, 59, 50
1, 82765, Note_off_c, 0, 71, 54
1, 82783, Note_off_c, 0, 59, 62
1, 82809, Note_on_c, 0, 77, 69
1, 82816, Note_on_c, 0, 65, 60
1, 82841, Note_off_c, 0, 77, 61
1, 82845, Note_off_c, 0, 65, 67
1, 83026, Note_on_c, 0, 62, 37
1, 83030, Note_on_c, 0, 74, 57
1, 83068, Note_off_c, 0, 74, 59
1, 83108, Note_off_c, 0, 62, 37
1, 83109, Note_on_c, 0, 77, 57
1, 83111, Note_on_c, 0, 65, 54
1, 83146, Note_off_c, 0, 65, 66
1, 83146, Note_off_c, 0, 77, 58
1, 83195, Note_on_c, 0, 81, 62
1, 83197, Note_on_c, 0, 69, 55
1, 83231, Note_off_c, 0, 69, 67
1, 83231, Note_off_c, 0, 81, 61
1, 83284, Note_on_c, 0, 73, 60
1, 83291, Note_on_c, 0, 66, 58
1, 83325, Note_off_c, 0, 73, 55
1, 83341, Note_off_c, 0, 66, 62
1, 83378, Note_on_c, 0, 82, 66
1, 83394, Note_on_c, 0, 74, 55
1, 83408, Note_off_c, 0, 82, 63
1, 83414, Note_off_c, 0, 74, 66
1, 83588, Note_on_c, 0, 62, 53
1, 83602, Note_on_c, 0, 74, 50
1, 83634, Note_off_c, 0, 74, 60
1, 83666, Note_off_c, 0, 62, 58
1, 83682, Note_on_c, 0, 77, 59
1, 83682, Note_on_c, 0, 65, 52
1, 83715, Note_off_c, 0, 65, 67
1, 83728, Note_off_c, 0, 77, 57
1, 83764, Note_on_c, 0, 69, 52
1, 83764, Note_on_c, 0, 81, 56
1, 83793, Note_off_c, 0, 69, 62
1, 83796, Note_off_c, 0, 81, 63
1, 83847, Note_on_c, 0, 73, 61
1, 83858, Note_on_c, 0, 66, 58
1, 83894, Note_off_c, 0, 73, 55
1, 83903, Note_off_c, 0, 66, 64
1, 83944, Note_on_c, 0, 82, 59
1, 83961, Note_on_c, 0, 74, 51
1, 83971, Note_off_c, 0, 82, 60
1, 83980, Note_off_c, 0, 74, 64
1, 84141, Note_on_c, 0, 62, 49
1, 84150, Note_on_c, 0, 74, 50
1, 84198, Note_off_c, 0, 74, 59
1, 84225, Note_off_c, 0, 62, 57
1, 84240, Note_on_c, 0, 65, 48
1, 84241, Note_on_c, 0, 77, 59
1, 84272, Note_off_c, 0, 65, 68
1, 84289, Note_off_c, 0, 77, 57
1, 84323, Note_on_c, 0, 69, 51
1, 84326, Note_on_c, 0, 81, 56
1, 84358, Note_off_c, 0, 69, 62
1, 84359, Note_off_c, 0, 81, 62
1, 84403, Note_on_c, 0, 73, 59
1, 84412, Note_on_c, 0, 66, 58
1, 84448, Note_off_c, 0, 73, 53
1, 84469, Note_off_c, 0, 66, 60
1, 84513, Note_on_c, 0, 82, 63
1, 84529, Note_on_c, 0, 74, 57
1, 84544, Note_off_c, 0, 82, 63
1, 84549, Note_off_c, 0, 74, 67
1, 84717, Note_on_c, 0, 74, 52
1, 84758, Note_off_c, 0, 74, 62
1, 84800, Note_on_c, 0, 77, 57
1, 84845, Note_off_c, 0, 77, 58
1, 84876, Note_on_c, 0, 69, 60
1, 84880, Note_on_c, 0, 81, 60
1, 84886, Note_on_c, 0, 57, 56
1, 84895, Note_off_c, 0, 69, 66
1, 84920, Note_off_c, 0, 81, 62
1, 84928, Note_off_c, 0, 57, 63
1, 84968, Note_on_c, 0, 73, 59
1, 85047, Note_off_c, 0, 73, 57
1, 85092, Note_on_c, 0, 82, 65
1, 85098, Note_on_c, 0, 44, 60
1, 85099, Note_on_c, 0, 56, 62
1, 85116, Control_c, 0, 64, 64
1, 85129, Note_off_c, 0, 56, 65
1, 85131, Control_c, 0, 64, 75
1, 85131, Note_off_c, 0, 44, 65
1, 85145, Control_c, 0, 64, 88
1, 85152, Note_off_c, 0, 82, 60
1, 85160, Control_c, 0, 64, 100
1, 85175, Control_c, 0, 64, 106
1, 85187, Control_c, 0, 64, 108
1, 85202, Control_c, 0, 64, 109
1, 85217, Control_c, 0, 64, 110
1, 85232, Control_c, 0, 64, 111
1, 85320, Note_on_c, 0, 74, 60
1, 85354, Note_off_c, 0, 74, 62
1, 85407, Note_on_c, 0, 77, 61
1, 85440, Control_c, 0, 64, 110
1, 85444, Note_off_c, 0, 77, 58
1, 85455, Control_c, 0, 64, 109
1, 85469, Control_c, 0, 64, 108
1, 85484, Control_c, 0, 64, 106
1, 85490, Note_on_c, 0, 81, 61
1, 85498, Note_on_c, 0, 66, 58
1, 85499, Control_c, 0, 64, 103
1, 85513, Control_c, 0, 64, 97
1, 85521, Note_off_c, 0, 81, 62
1, 85528, Control_c, 0, 64, 90
1, 85543, Control_c, 0, 64, 78
1, 85558, Control_c, 0, 64, 67
1, 85567, Note_on_c, 0, 73, 61
1, 85573, Control_c, 0, 64, 0
1, 85629, Note_off_c, 0, 73, 55
1, 85677, Note_off_c, 0, 66, 62
1, 85685, Note_on_c, 0, 82, 68
1, 85697, Note_on_c, 0, 74, 52
1, 85717, Note_off_c, 0, 74, 65
1, 85718, Note_off_c, 0, 82, 59
1, 85897, Note_on_c, 0, 74, 58
1, 85933, Note_off_c, 0, 74, 62
1, 85975, Note_on_c, 0, 77, 59
1, 86015, Note_off_c, 0, 77, 55
1, 86048, Note_on_c, 0, 67, 54
1, 86057, Note_on_c, 0, 81, 61
1, 86058, Note_on_c, 0, 55, 52
1, 86069, Note_off_c, 0, 67, 61
1, 86090, Note_off_c, 0, 81, 59
1, 86097, Note_off_c, 0, 55, 64
1, 86141, Note_on_c, 0, 73, 57
1, 86210, Note_off_c, 0, 73, 48
1, 86260, Note_on_c, 0, 42, 60
1, 86264, Note_on_c, 0, 82, 63
1, 86271, Note_on_c, 0, 54, 51
1, 86278, Control_c, 0, 64, 65
1, 86292, Control_c, 0, 64, 75
1, 86301, Note_off_c, 0, 42, 63
1, 86305, Note_off_c, 0, 54, 51
1, 86307, Control_c, 0, 64, 85
1, 86322, Control_c, 0, 64, 93
1, 86323, Note_off_c, 0, 82, 60
1, 86336, Control_c, 0, 64, 95
1, 86351, Control_c, 0, 64, 96
1, 86366, Control_c, 0, 64, 96
1, 86463, Control_c, 0, 64, 94
1, 86478, Control_c, 0, 64, 89
1, 86493, Control_c, 0, 64, 80
1, 86499, Note_on_c, 0, 74, 57
1, 86508, Control_c, 0, 64, 67
1, 86523, Control_c, 0, 64, 0
1, 86541, Note_off_c, 0, 74, 59
1, 86584, Note_on_c, 0, 77, 60
1, 86631, Note_off_c, 0, 77, 56
1, 86661, Note_on_c, 0, 66, 51
1, 86671, Note_on_c, 0, 81, 61
1, 86672, Note_on_c, 0, 54, 48
1, 86683, Note_off_c, 0, 66, 60
1, 86704, Note_off_c, 0, 81, 61
1, 86710, Note_off_c, 0, 54, 64
1, 86752, Note_on_c, 0, 73, 57
1, 86863, Control_c, 0, 64, 47
1, 86868, Note_off_c, 0, 73, 35
1, 86871, Note_on_c, 0, 41, 58
1, 86875, Note_on_c, 0, 53, 53
1, 86875, Note_on_c, 0, 82, 61
1, 86878, Control_c, 0, 64, 69
1, 86893, Control_c, 0, 64, 78
1, 86904, Note_off_c, 0, 53, 57
1, 86907, Note_off_c, 0, 41, 62
1, 86908, Control_c, 0, 64, 85
1, 86922, Control_c, 0, 64, 88
1, 86926, Note_off_c, 0, 82, 57
1, 86937, Control_c, 0, 64, 90
1, 86952, Control_c, 0, 64, 91
1, 86967, Control_c, 0, 64, 93
1, 86982, Control_c, 0, 64, 94
1, 87056, Control_c, 0, 64, 93
1, 87071, Control_c, 0, 64, 90
1, 87086, Control_c, 0, 64, 84
1, 87101, Control_c, 0, 64, 76
1, 87109, Note_on_c, 0, 74, 56
1, 87115, Control_c, 0, 64, 66
1, 87130, Control_c, 0, 64, 0
1, 87158, Note_off_c, 0, 74, 59
1, 87220, Note_on_c, 0, 77, 49
1, 87271, Note_off_c, 0, 77, 48
1, 87324, Note_on_c, 0, 81, 55
1, 87331, Note_on_c, 0, 52, 49
1, 87379, Note_off_c, 0, 52, 58
1, 87387, Note_off_c, 0, 81, 53
1, 87426, Note_on_c, 0, 73, 52
1, 87591, Note_on_c, 0, 82, 65
1, 87607, Note_on_c, 0, 40, 42
1, 87612, Control_c, 0, 64, 63
1, 87627, Control_c, 0, 64, 75
1, 87640, Note_off_c, 0, 73, 34
1, 87642, Control_c, 0, 64, 89
1, 87657, Control_c, 0, 64, 105
1, 87671, Control_c, 0, 64, 115
1, 87672, Note_off_c, 0, 82, 61
1, 87686, Control_c, 0, 64, 126
1, 87701, Control_c, 0, 64, 127
1, 87714, Note_off_c, 0, 40, 56
1, 87884, Note_on_c, 0, 60, 57
1, 87898, Note_on_c, 0, 55, 47
1, 87918, Note_on_c, 0, 59, 34
1, 87927, Note_off_c, 0, 60, 62
1, 87947, Note_off_c, 0, 55, 61
1, 87954, Note_off_c, 0, 59, 49
1, 87985, Note_on_c, 0, 64, 52
1, 88032, Note_off_c, 0, 64, 55
1, 88067, Note_on_c, 0, 67, 59
1, 88075, Note_on_c, 0, 55, 52
1, 88100, Note_off_c, 0, 67, 65
1, 88106, Note_off_c, 0, 55, 66
1, 88121, Poly_aftertouch_c, 0, 59, 127
1, 88141, Note_on_c, 0, 59, 27
1, 88283, Note_off_c, 0, 59, 36
1, 88299, Note_on_c, 0, 70, 66
1, 88302, Control_c, 0, 64, 114
1, 88306, Note_on_c, 0, 47, 45
1, 88317, Control_c, 0, 64, 94
1, 88332, Control_c, 0, 64, 72
1, 88347, Control_c, 0, 64, 0
1, 88392, Control_c, 0, 64, 63
1, 88407, Control_c, 0, 64, 73
1, 88421, Control_c, 0, 64, 85
1, 88428, Note_off_c, 0, 70, 57
1, 88436, Control_c, 0, 64, 96
1, 88451, Control_c, 0, 64, 102
1, 88466, Control_c, 0, 64, 105
1, 88481, Control_c, 0, 64, 107
1, 88495, Control_c, 0, 64, 110
1, 88510, Control_c, 0, 64, 115
1, 88523, Note_on_c, 0, 63, 62
1, 88525, Control_c, 0, 64, 119
1, 88533, Note_on_c, 0, 54, 52
1, 88539, Control_c, 0, 64, 122
1, 88543, Note_on_c, 0, 58, 43
1, 88554, Control_c, 0, 64, 125
1, 88562, Note_off_c, 0, 63, 61
1, 88569, Control_c, 0, 64, 127
1, 88573, Note_off_c, 0, 58, 55
1, 88589, Note_off_c, 0, 54, 54
1, 88598, Note_on_c, 0, 70, 65
1, 88614, Note_off_c, 0, 47, 42
1, 88669, Note_off_c, 0, 70, 52
1, 88702, Note_on_c, 0, 58, 38
1, 88708, Note_on_c, 0, 54, 53
1, 88711, Note_on_c, 0, 66, 67
1, 88726, Note_off_c, 0, 58, 55
1, 88736, Note_off_c, 0, 54, 55
1, 88751, Note_off_c, 0, 66, 61
1, 88803, Note_on_c, 0, 75, 65
1, 88849, Note_off_c, 0, 75, 55
1, 88904, Control_c, 0, 64, 110
1, 88918, Control_c, 0, 64, 92
1, 88932, Control_c, 0, 64, 71
1, 88937, Note_on_c, 0, 40, 58
1, 88947, Control_c, 0, 64, 0
1, 88949, Note_on_c, 0, 75, 66
1, 88991, Control_c, 0, 64, 65
1, 89006, Control_c, 0, 64, 76
1, 89010, Note_off_c, 0, 40, 64
1, 89021, Control_c, 0, 64, 88
1, 89036, Control_c, 0, 64, 98
1, 89051, Control_c, 0, 64, 104
1, 89066, Control_c, 0, 64, 106
1, 89080, Control_c, 0, 64, 108
1, 89095, Control_c, 0, 64, 110
1, 89099, Note_off_c, 0, 75, 59
1, 89110, Control_c, 0, 64, 113
1, 89125, Control_c, 0, 64, 114
1, 89140, Control_c, 0, 64, 115
1, 89140, Note_on_c, 0, 76, 63
1, 89164, Note_on_c, 0, 60, 49
1, 89168, Note_off_c, 0, 76, 65
1, 89176, Note_on_c, 0, 59, 42
1, 89181, Note_on_c, 0, 55, 36
1, 89195, Note_off_c, 0, 60, 60
1, 89206, Note_off_c, 0, 59, 52
1, 89223, Note_off_c, 0, 55, 48
1, 89232, Note_on_c, 0, 64, 62
1, 89279, Note_off_c, 0, 64, 53
1, 89295, Note_on_c, 0, 59, 53
1, 89311, Note_on_c, 0, 60, 27
1, 89315, Note_on_c, 0, 67, 68
1, 89318, Note_off_c, 0, 59, 62
1, 89341, Note_off_c, 0, 67, 68
1, 89349, Note_off_c, 0, 60, 40
1, 89415, Note_on_c, 0, 59, 66
1, 89477, Note_off_c, 0, 59, 61
1, 89517, Control_c, 0, 64, 114
1, 89532, Control_c, 0, 64, 106
1, 89545, Note_on_c, 0, 70, 69
1, 89547, Control_c, 0, 64, 93
1, 89549, Note_on_c, 0, 47, 52
1, 89561, Control_c, 0, 64, 76
1, 89576, Control_c, 0, 64, 0
1, 89637, Control_c, 0, 64, 65
1, 89652, Control_c, 0, 64, 73
1, 89666, Control_c, 0, 64, 84
1, 89670, Note_off_c, 0, 70, 59
1, 89681, Control_c, 0, 64, 93
1, 89696, Control_c, 0, 64, 97
1, 89711, Control_c, 0, 64, 100
1, 89726, Control_c, 0, 64, 103
1, 89740, Control_c, 0, 64, 106
1, 89755, Control_c, 0, 64, 110
1, 89770, Control_c, 0, 64, 113
1, 89771, Note_on_c, 0, 63, 65
1, 89781, Note_on_c, 0, 54, 51
1, 89784, Control_c, 0, 64, 114
1, 89786, Note_on_c, 0, 58, 45
1, 89799, Control_c, 0, 64, 115
1, 89812, Note_off_c, 0, 58, 56
1, 89813, Note_off_c, 0, 63, 55
1, 89814, Control_c, 0, 64, 115
1, 89829, Control_c, 0, 64, 116
1, 89838, Note_off_c, 0, 54, 54
1, 89841, Note_off_c, 0, 47, 42
1, 89844, Control_c, 0, 64, 117
1, 89854, Note_on_c, 0, 70, 65
1, 89858, Control_c, 0, 64, 118
1, 89873, Control_c, 0, 64, 119
1, 89888, Control_c, 0, 64, 120
1, 89903, Control_c, 0, 64, 120
1, 89918, Control_c, 0, 64, 121
1, 89928, Note_off_c, 0, 70, 54
1, 89933, Control_c, 0, 64, 121
1, 89936, Note_on_c, 0, 58, 40
1, 89948, Control_c, 0, 64, 122
1, 89948, Note_on_c, 0, 54, 48
1, 89954, Note_on_c, 0, 66, 67
1, 89963, Note_off_c, 0, 58, 52
1, 89979, Note_off_c, 0, 54, 50
1, 89988, Note_off_c, 0, 66, 63
1, 89992, Control_c, 0, 64, 122
1, 90037, Note_on_c, 0, 75, 57
1, 90070, Note_off_c, 0, 75, 67
1, 90111, Control_c, 0, 64, 122
1, 90126, Control_c, 0, 64, 115
1, 90140, Control_c, 0, 64, 97
1, 90163, Control_c, 0, 64, 79
1, 90164, Note_on_c, 0, 40, 62
1, 90173, Note_on_c, 0, 75, 66
1, 90177, Control_c, 0, 64, 53
1, 90192, Control_c, 0, 64, 0
1, 90222, Control_c, 0, 64, 67
1, 90236, Note_off_c, 0, 40, 63
1, 90237, Control_c, 0, 64, 78
1, 90241, Note_off_c, 0, 75, 62
1, 90252, Control_c, 0, 64, 92
1, 90266, Control_c, 0, 64, 100
1, 90274, Note_on_c, 0, 76, 60
1, 90281, Control_c, 0, 64, 102
1, 90296, Control_c, 0, 64, 102
1, 90309, Note_off_c, 0, 76, 60
1, 90310, Control_c, 0, 64, 103
1, 90325, Control_c, 0, 64, 104
1, 90340, Control_c, 0, 64, 106
1, 90355, Control_c, 0, 64, 107
1, 90365, Note_on_c, 0, 75, 69
1, 90370, Control_c, 0, 64, 108
1, 90389, Note_on_c, 0, 60, 54
1, 90395, Note_on_c, 0, 59, 45
1, 90398, Note_on_c, 0, 55, 44
1, 90414, Control_c, 0, 64, 109
1, 90421, Note_off_c, 0, 75, 63
1, 90425, Note_off_c, 0, 60, 62
1, 90425, Note_off_c, 0, 59, 54
1, 90443, Note_off_c, 0, 55, 46
1, 90450, Note_on_c, 0, 64, 59
1, 90461, Note_on_c, 0, 71, 64
1, 90472, Note_off_c, 0, 64, 64
1, 90523, Note_on_c, 0, 59, 53
1, 90535, Note_off_c, 0, 71, 54
1, 90550, Note_off_c, 0, 59, 57
1, 90568, Note_on_c, 0, 67, 52
1, 90590, Note_off_c, 0, 67, 59
1, 90640, Note_on_c, 0, 59, 60
1, 90736, Note_off_c, 0, 59, 49
1, 90756, Control_c, 0, 64, 105
1, 90771, Control_c, 0, 64, 95
1, 90784, Note_on_c, 0, 47, 51
1, 90786, Control_c, 0, 64, 79
1, 90789, Note_on_c, 0, 70, 65
1, 90800, Control_c, 0, 64, 47
1, 90815, Control_c, 0, 64, 0
1, 90860, Control_c, 0, 64, 38
1, 90874, Control_c, 0, 64, 69
1, 90889, Control_c, 0, 64, 79
1, 90911, Control_c, 0, 64, 93
1, 90926, Control_c, 0, 64, 99
1, 90929, Note_off_c, 0, 70, 60
1, 90941, Control_c, 0, 64, 102
1, 90955, Control_c, 0, 64, 104
1, 90970, Control_c, 0, 64, 107
1, 90985, Control_c, 0, 64, 110
1, 91000, Control_c, 0, 64, 112
1, 91015, Control_c, 0, 64, 114
1, 91021, Note_on_c, 0, 63, 60
1, 91024, Note_on_c, 0, 54, 46
1, 91024, Note_on_c, 0, 58, 45
1, 91030, Control_c, 0, 64, 115
1, 91045, Control_c, 0, 64, 116
1, 91051, Note_off_c, 0, 58, 56
1, 91060, Control_c, 0, 64, 117
1, 91061, Note_off_c, 0, 63, 59
1, 91066, Note_off_c, 0, 47, 42
1, 91073, Note_off_c, 0, 54, 56
1, 91075, Control_c, 0, 64, 117
1, 91089, Control_c, 0, 64, 118
1, 91103, Note_on_c, 0, 70, 62
1, 91104, Control_c, 0, 64, 119
1, 91119, Control_c, 0, 64, 119
1, 91133, Control_c, 0, 64, 120
1, 91148, Control_c, 0, 64, 120
1, 91163, Control_c, 0, 64, 121
1, 91166, Note_on_c, 0, 58, 45
1, 91175, Note_off_c, 0, 70, 49
1, 91185, Note_on_c, 0, 54, 43
1, 91191, Note_off_c, 0, 58, 59
1, 91198, Note_on_c, 0, 66, 68
1, 91210, Note_off_c, 0, 54, 53
1, 91233, Note_off_c, 0, 66, 63
1, 91292, Note_on_c, 0, 75, 52
1, 91328, Note_off_c, 0, 75, 66
1, 91387, Control_c, 0, 64, 117
1, 91402, Control_c, 0, 64, 102
1, 91414, Note_on_c, 0, 40, 57
1, 91417, Control_c, 0, 64, 84
1, 91424, Note_on_c, 0, 75, 68
1, 91431, Control_c, 0, 64, 63
1, 91446, Control_c, 0, 64, 0
1, 91491, Control_c, 0, 64, 64
1, 91504, Note_off_c, 0, 40, 63
1, 91505, Control_c, 0, 64, 74
1, 91520, Control_c, 0, 64, 85
1, 91535, Control_c, 0, 64, 98
1, 91550, Control_c, 0, 64, 104
1, 91564, Control_c, 0, 64, 107
1, 91579, Control_c, 0, 64, 108
1, 91594, Control_c, 0, 64, 110
1, 91609, Control_c, 0, 64, 111
1, 91623, Control_c, 0, 64, 112
1, 91626, Note_off_c, 0, 75, 58
1, 91638, Control_c, 0, 64, 112
1, 91664, Note_on_c, 0, 76, 62
1, 91673, Note_on_c, 0, 59, 46
1, 91677, Note_on_c, 0, 60, 43
1, 91692, Note_off_c, 0, 76, 67
1, 91694, Note_on_c, 0, 55, 34
1, 91704, Note_off_c, 0, 59, 53
1, 91706, Note_off_c, 0, 60, 54
1, 91735, Note_off_c, 0, 55, 49
1, 91758, Note_on_c, 0, 64, 55
1, 91803, Note_off_c, 0, 64, 61
1, 91808, Note_on_c, 0, 59, 45
1, 91832, Note_off_c, 0, 59, 59
1, 91841, Note_on_c, 0, 67, 60
1, 91861, Note_off_c, 0, 67, 64
1, 91882, Poly_aftertouch_c, 0, 60, 0
1, 91936, Note_on_c, 0, 59, 55
1, 92008, Note_off_c, 0, 59, 60
1, 92032, Control_c, 0, 64, 108
1, 92047, Control_c, 0, 64, 98
1, 92061, Control_c, 0, 64, 79
1, 92074, Note_on_c, 0, 47, 46
1, 92076, Note_on_c, 0, 70, 63
1, 92076, Control_c, 0, 64, 51
1, 92091, Control_c, 0, 64, 0
1, 92166, Control_c, 0, 64, 59
1, 92180, Control_c, 0, 64, 72
1, 92192, Note_off_c, 0, 70, 56
1, 92195, Control_c, 0, 64, 82
1, 92210, Control_c, 0, 64, 92
1, 92225, Control_c, 0, 64, 96
1, 92240, Control_c, 0, 64, 100
1, 92254, Control_c, 0, 64, 104
1, 92269, Control_c, 0, 64, 107
1, 92284, Control_c, 0, 64, 110
1, 92299, Control_c, 0, 64, 114
1, 92309, Note_on_c, 0, 63, 59
1, 92314, Control_c, 0, 64, 118
1, 92318, Note_on_c, 0, 58, 42
1, 92318, Note_on_c, 0, 54, 44
1, 92328, Control_c, 0, 64, 121
1, 92343, Control_c, 0, 64, 125
1, 92345, Note_off_c, 0, 58, 56
1, 92346, Note_off_c, 0, 63, 63
1, 92358, Control_c, 0, 64, 127
1, 92368, Note_off_c, 0, 54, 55
1, 92376, Note_off_c, 0, 47, 42
1, 92397, Note_on_c, 0, 70, 58
1, 92483, Note_on_c, 0, 54, 54
1, 92488, Note_on_c, 0, 58, 30
1, 92510, Note_off_c, 0, 54, 63
1, 92513, Note_off_c, 0, 70, 56
1, 92515, Note_off_c, 0, 58, 48
1, 92516, Note_on_c, 0, 66, 60
1, 92559, Note_off_c, 0, 66, 61
1, 92602, Note_on_c, 0, 75, 58
1, 92632, Note_off_c, 0, 75, 67
1, 92824, Control_c, 0, 64, 126
1, 92836, Note_on_c, 0, 83, 80
1, 92840, Control_c, 0, 64, 105
1, 92850, Note_on_c, 0, 40, 53
1, 92855, Control_c, 0, 64, 86
1, 92870, Control_c, 0, 64, 65
1, 92872, Note_on_c, 0, 75, 40
1, 92884, Control_c, 0, 64, 0
1, 92914, Control_c, 0, 64, 66
1, 92929, Control_c, 0, 64, 77
1, 92944, Control_c, 0, 64, 90
1, 92949, Note_off_c, 0, 40, 63
1, 92953, Note_off_c, 0, 83, 53
1, 92959, Control_c, 0, 64, 102
1, 92974, Control_c, 0, 64, 109
1, 92982, Note_on_c, 0, 76, 64
1, 92987, Note_off_c, 0, 75, 45
1, 92988, Control_c, 0, 64, 112
1, 93003, Control_c, 0, 64, 113
1, 93018, Control_c, 0, 64, 114
1, 93033, Control_c, 0, 64, 114
1, 93098, Note_on_c, 0, 71, 65
1, 93105, Note_on_c, 0, 55, 56
1, 93110, Note_on_c, 0, 52, 56
1, 93179, Note_off_c, 0, 52, 49
1, 93181, Note_off_c, 0, 71, 59
1, 93188, Note_off_c, 0, 76, 57
1, 93190, Note_on_c, 0, 75, 70
1, 93195, Note_on_c, 0, 67, 62
1, 93200, Note_on_c, 0, 60, 47
1, 93247, Note_off_c, 0, 60, 60
1, 93257, Note_off_c, 0, 67, 59
1, 93310, Note_on_c, 0, 71, 79
1, 93319, Note_off_c, 0, 55, 0
1, 93322, Note_on_c, 0, 64, 46
1, 93339, Note_on_c, 0, 55, 14
1, 93352, Note_off_c, 0, 75, 58
1, 93354, Note_off_c, 0, 64, 55
1, 93388, Note_on_c, 0, 59, 53
1, 93409, Note_off_c, 0, 59, 60
1, 93411, Note_off_c, 0, 55, 59
1, 93543, Control_c, 0, 64, 114
1, 93558, Control_c, 0, 64, 105
1, 93573, Control_c, 0, 64, 88
1, 93575, Note_on_c, 0, 47, 67
1, 93581, Note_on_c, 0, 70, 62
1, 93588, Control_c, 0, 64, 64
1, 93602, Control_c, 0, 64, 0
1, 93647, Control_c, 0, 64, 41
1, 93657, Note_off_c, 0, 71, 51
1, 93662, Control_c, 0, 64, 70
1, 93677, Control_c, 0, 64, 82
1, 93692, Control_c, 0, 64, 100
1, 93696, Note_off_c, 0, 47, 64
1, 93707, Note_off_c, 0, 70, 62
1, 93707, Control_c, 0, 64, 112
1, 93722, Control_c, 0, 64, 117
1, 93737, Control_c, 0, 64, 121
1, 93751, Control_c, 0, 64, 127
1, 93860, Note_on_c, 0, 60, 74
1, 93870, Note_on_c, 0, 63, 66
1, 93878, Note_on_c, 0, 58, 59
1, 93887, Note_on_c, 0, 54, 51
1, 93942, Note_off_c, 0, 54, 57
1, 93951, Note_off_c, 0, 63, 60
1, 93956, Note_off_c, 0, 58, 57
1, 93972, Note_on_c, 0, 70, 58
1, 94063, Note_on_c, 0, 58, 73
1, 94064, Note_off_c, 0, 60, 60
1, 94067, Note_on_c, 0, 54, 58
1, 94079, Note_on_c, 0, 66, 67
1, 94089, Note_off_c, 0, 70, 62
1, 94132, Note_off_c, 0, 58, 63
1, 94133, Note_off_c, 0, 66, 62
1, 94169, Note_on_c, 0, 48, 75
1, 94169, Note_on_c, 0, 75, 63
1, 94175, Note_off_c, 0, 54, 63
1, 94225, Note_off_c, 0, 48, 64
1, 94240, Note_off_c, 0, 75, 60
1, 94342, Note_on_c, 0, 48, 76
1, 94356, Note_on_c, 0, 75, 63
1, 94381, Control_c, 0, 64, 108
1, 94395, Control_c, 0, 64, 86
1, 94410, Control_c, 0, 64, 63
1, 94426, Control_c, 0, 64, 0
1, 94470, Control_c, 0, 64, 62
1, 94485, Control_c, 0, 64, 74
1, 94489, Note_off_c, 0, 75, 62
1, 94496, Note_off_c, 0, 48, 62
1, 94500, Control_c, 0, 64, 86
1, 94515, Control_c, 0, 64, 97
1, 94519, Note_on_c, 0, 76, 60
1, 94530, Control_c, 0, 64, 103
1, 94530, Note_on_c, 0, 40, 58
1, 94544, Note_off_c, 0, 76, 70
1, 94544, Control_c, 0, 64, 106
1, 94557, Note_off_c, 0, 40, 62
1, 94559, Control_c, 0, 64, 108
1, 94574, Control_c, 0, 64, 110
1, 94589, Control_c, 0, 64, 112
1, 94604, Control_c, 0, 64, 113
1, 94619, Control_c, 0, 64, 114
1, 94634, Control_c, 0, 64, 115
1, 94640, Note_on_c, 0, 60, 60
1, 94655, Control_c, 0, 64, 115
1, 94658, Note_on_c, 0, 55, 59
1, 94686, Note_off_c, 0, 60, 58
1, 94689, Note_off_c, 0, 55, 65
1, 94738, Note_on_c, 0, 64, 54
1, 94784, Note_off_c, 0, 64, 62
1, 94830, Note_on_c, 0, 67, 54
1, 94839, Note_on_c, 0, 49, 78
1, 94862, Note_off_c, 0, 67, 65
1, 94932, Note_on_c, 0, 59, 51
1, 95025, Note_off_c, 0, 59, 56
1, 95056, Control_c, 0, 64, 110
1, 95071, Control_c, 0, 64, 97
1, 95086, Control_c, 0, 64, 80
1, 95088, Note_on_c, 0, 47, 63
1, 95089, Note_on_c, 0, 70, 57
1, 95100, Control_c, 0, 64, 38
1, 95115, Control_c, 0, 64, 0
1, 95125, Note_off_c, 0, 70, 47
1, 95176, Note_off_c, 0, 49, 60
1, 95189, Control_c, 0, 64, 67
1, 95190, Note_off_c, 0, 47, 65
1, 95204, Control_c, 0, 64, 83
1, 95219, Control_c, 0, 64, 107
1, 95235, Control_c, 0, 64, 127
1, 95346, Note_on_c, 0, 63, 74
1, 95348, Note_on_c, 0, 61, 67
1, 95371, Note_on_c, 0, 58, 40
1, 95388, Note_on_c, 0, 54, 33
1, 95431, Note_off_c, 0, 58, 56
1, 95434, Note_off_c, 0, 54, 49
1, 95436, Note_off_c, 0, 63, 62
1, 95439, Note_on_c, 0, 70, 68
1, 95466, Note_off_c, 0, 61, 55
1, 95546, Note_on_c, 0, 54, 54
1, 95549, Note_on_c, 0, 58, 54
1, 95550, Note_off_c, 0, 70, 52
1, 95555, Note_on_c, 0, 66, 69
1, 95584, Note_off_c, 0, 58, 64
1, 95603, Note_off_c, 0, 66, 62
1, 95604, Note_off_c, 0, 54, 56
1, 95645, Note_on_c, 0, 59, 74
1, 95656, Note_on_c, 0, 75, 59
1, 95698, Note_off_c, 0, 75, 58
1, 95810, Note_off_c, 0, 59, 58
1, 95817, Note_on_c, 0, 75, 64
1, 95820, Control_c, 0, 64, 99
1, 95823, Note_on_c, 0, 60, 70
1, 95835, Control_c, 0, 64, 75
1, 95850, Control_c, 0, 64, 0
1, 95899, Note_off_c, 0, 60, 61
1, 95923, Control_c, 0, 64, 66
1, 95938, Control_c, 0, 64, 78
1, 95953, Control_c, 0, 64, 94
1, 95968, Control_c, 0, 64, 108
1, 95983, Control_c, 0, 64, 116
1, 95997, Control_c, 0, 64, 119
1, 96012, Control_c, 0, 64, 122
1, 96019, Note_off_c, 0, 75, 58
1, 96028, Control_c, 0, 64, 125
1, 96043, Control_c, 0, 64, 127
1, 96053, Note_on_c, 0, 76, 67
1, 96059, Note_on_c, 0, 40, 51
1, 96106, Note_off_c, 0, 40, 44
1, 96114, Note_off_c, 0, 76, 62
1, 96160, Note_on_c, 0, 48, 61
1, 96162, Note_on_c, 0, 64, 68
1, 96211, Note_off_c, 0, 48, 57
1, 96241, Note_off_c, 0, 64, 58
1, 96259, Note_on_c, 0, 67, 67
1, 96263, Note_on_c, 0, 52, 48
1, 96300, Note_off_c, 0, 52, 60
1, 96336, Note_off_c, 0, 67, 61
1, 96346, Note_on_c, 0, 71, 65
1, 96363, Note_on_c, 0, 47, 41
1, 96377, Note_off_c, 0, 71, 61
1, 96450, Control_c, 0, 64, 117
1, 96465, Control_c, 0, 64, 92
1, 96480, Control_c, 0, 64, 70
1, 96486, Note_on_c, 0, 71, 68
1, 96494, Control_c, 0, 64, 0
1, 96502, Note_on_c, 0, 55, 64
1, 96539, Control_c, 0, 64, 51
1, 96546, Note_off_c, 0, 47, 48
1, 96554, Control_c, 0, 64, 73
1, 96568, Control_c, 0, 64, 85
1, 96583, Control_c, 0, 64, 100
1, 96594, Note_off_c, 0, 55, 63
1, 96598, Control_c, 0, 64, 111
1, 96613, Control_c, 0, 64, 116
1, 96628, Control_c, 0, 64, 119
1, 96643, Control_c, 0, 64, 126
1, 96658, Control_c, 0, 64, 127
1, 96715, Note_on_c, 0, 55, 54
1, 96722, Note_on_c, 0, 59, 49
1, 96775, Note_off_c, 0, 55, 57
1, 96803, Note_on_c, 0, 72, 76
1, 96805, Note_off_c, 0, 59, 55
1, 96815, Note_off_c, 0, 71, 55
1, 96819, Note_on_c, 0, 64, 57
1, 96861, Note_off_c, 0, 64, 60
1, 96925, Note_on_c, 0, 76, 79
1, 96939, Note_off_c, 0, 72, 62
1, 96951, Note_on_c, 0, 67, 54
1, 96968, Note_on_c, 0, 59, 39
1, 96989, Note_off_c, 0, 67, 59
1, 97017, Note_off_c, 0, 76, 64
1, 97020, Note_on_c, 0, 79, 79
1, 97025, Note_on_c, 0, 63, 56
1, 97045, Note_off_c, 0, 63, 60
1, 97048, Note_off_c, 0, 59, 55
1, 97097, Note_off_c, 0, 79, 59
1, 97221, Note_on_c, 0, 79, 81
1, 97227, Note_on_c, 0, 39, 52
1, 97227, Control_c, 0, 64, 115
1, 97242, Control_c, 0, 64, 91
1, 97247, Note_on_c, 0, 71, 56
1, 97257, Control_c, 0, 64, 67
1, 97272, Control_c, 0, 64, 0
1, 97302, Note_off_c, 0, 71, 0
1, 97316, Control_c, 0, 64, 58
1, 97331, Control_c, 0, 64, 75
1, 97332, Note_off_c, 0, 39, 63
1, 97339, Poly_aftertouch_c, 0, 71, 127
1, 97346, Control_c, 0, 64, 90
1, 97361, Control_c, 0, 64, 109
1, 97375, Control_c, 0, 64, 121
1, 97390, Control_c, 0, 64, 124
1, 97405, Control_c, 0, 64, 126
1, 97420, Control_c, 0, 64, 127
1, 97508, Note_on_c, 0, 55, 52
1, 97508, Note_on_c, 0, 59, 51
1, 97561, Note_off_c, 0, 55, 57
1, 97561, Note_off_c, 0, 59, 57
1, 97597, Note_on_c, 0, 63, 61
1, 97659, Note_off_c, 0, 63, 57
1, 97728, Note_on_c, 0, 67, 58
1, 97737, Note_on_c, 0, 55, 48
1, 97767, Note_off_c, 0, 67, 60
1, 97814, Note_on_c, 0, 58, 55
1, 97844, Note_off_c, 0, 58, 66
1, 97847, Note_off_c, 0, 55, 44
1, 97962, Control_c, 0, 64, 121
1, 97977, Control_c, 0, 64, 97
1, 97984, Note_on_c, 0, 77, 67
1, 97985, Poly_aftertouch_c, 0, 71, 0
1, 97990, Note_on_c, 0, 46, 54
1, 97991, Note_off_c, 0, 79, 51
1, 97992, Control_c, 0, 64, 70
1, 98005, Note_on_c, 0, 74, 42
1, 98006, Control_c, 0, 64, 0
1, 98051, Control_c, 0, 64, 29
1, 98053, Note_off_c, 0, 74, 60
1, 98066, Control_c, 0, 64, 71
1, 98080, Control_c, 0, 64, 87
1, 98095, Note_off_c, 0, 46, 63
1, 98095, Note_off_c, 0, 77, 62
1, 98095, Control_c, 0, 64, 106
1, 98110, Control_c, 0, 64, 120
1, 98125, Control_c, 0, 64, 125
1, 98139, Control_c, 0, 64, 127
1, 98235, Note_on_c, 0, 65, 63
1, 98254, Note_on_c, 0, 53, 18
1, 98255, Note_on_c, 0, 62, 36
1, 98268, Note_off_c, 0, 65, 63
1, 98302, Note_off_c, 0, 53, 46
1, 98319, Note_on_c, 0, 74, 59
1, 98335, Note_off_c, 0, 62, 31
1, 98380, Note_off_c, 0, 74, 62
1, 98421, Note_on_c, 0, 53, 51
1, 98438, Note_on_c, 0, 70, 68
1, 98445, Note_off_c, 0, 53, 64
1, 98478, Note_off_c, 0, 70, 56
1, 98530, Note_on_c, 0, 80, 65
1, 98554, Note_off_c, 0, 80, 66
1, 98696, Control_c, 0, 64, 117
1, 98711, Control_c, 0, 64, 91
1, 98722, Note_on_c, 0, 88, 84
1, 98726, Control_c, 0, 64, 68
1, 98732, Note_on_c, 0, 33, 60
1, 98734, Note_on_c, 0, 45, 55
1, 98741, Control_c, 0, 64, 0
1, 98753, Note_on_c, 0, 80, 50
1, 98770, Control_c, 0, 64, 68
1, 98784, Note_off_c, 0, 33, 65
1, 98785, Control_c, 0, 64, 80
1, 98800, Control_c, 0, 64, 96
1, 98811, Note_off_c, 0, 45, 63
1, 98813, Note_off_c, 0, 88, 61
1, 98815, Control_c, 0, 64, 112
1, 98829, Control_c, 0, 64, 127
1, 98863, Note_off_c, 0, 80, 45
1, 98864, Note_on_c, 0, 81, 73
1, 98970, Note_on_c, 0, 76, 69
1, 98971, Note_on_c, 0, 57, 57
1, 98985, Note_on_c, 0, 60, 48
1, 99007, Note_off_c, 0, 81, 59
1, 99031, Note_off_c, 0, 60, 55
1, 99042, Note_off_c, 0, 57, 58
1, 99042, Note_off_c, 0, 76, 59
1, 99055, Note_on_c, 0, 80, 76
1, 99062, Note_on_c, 0, 72, 67
1, 99064, Note_on_c, 0, 65, 61
1, 99103, Note_off_c, 0, 65, 60
1, 99189, Note_on_c, 0, 69, 54
1, 99196, Note_on_c, 0, 76, 81
1, 99201, Note_off_c, 0, 72, 32
1, 99210, Note_on_c, 0, 60, 42
1, 99217, Note_off_c, 0, 80, 63
1, 99224, Note_off_c, 0, 69, 66
1, 99251, Note_on_c, 0, 64, 66
1, 99257, Note_off_c, 0, 60, 56
1, 99280, Note_off_c, 0, 64, 66
1, 99430, Control_c, 0, 64, 111
1, 99444, Control_c, 0, 64, 90
1, 99450, Note_on_c, 0, 72, 62
1, 99459, Control_c, 0, 64, 68
1, 99474, Control_c, 0, 64, 0
1, 99491, Note_on_c, 0, 40, 44
1, 99504, Control_c, 0, 64, 42
1, 99518, Control_c, 0, 64, 72
1, 99522, Note_off_c, 0, 40, 60
1, 99533, Control_c, 0, 64, 85
1, 99548, Control_c, 0, 64, 101
1, 99563, Control_c, 0, 64, 115
1, 99577, Control_c, 0, 64, 121
1, 99592, Control_c, 0, 64, 123
1, 99607, Control_c, 0, 64, 127
1, 99696, Note_on_c, 0, 77, 84
1, 99713, Note_off_c, 0, 72, 60
1, 99716, Note_off_c, 0, 76, 58
1, 99722, Note_on_c, 0, 47, 13
1, 99770, Note_off_c, 0, 47, 53
1, 99797, Note_on_c, 0, 63, 70
1, 99836, Note_off_c, 0, 63, 59
1, 99898, Note_on_c, 0, 51, 66
1, 99927, Note_on_c, 0, 59, 53
1, 99928, Note_off_c, 0, 51, 64
1, 100005, Note_off_c, 0, 77, 53
1, 100011, Note_on_c, 0, 65, 77
1, 100031, Note_on_c, 0, 68, 59
1, 100031, Note_off_c, 0, 59, 0
1, 100050, Note_off_c, 0, 68, 63
1, 100104, Poly_aftertouch_c, 0, 59, 0
1, 100134, Note_off_c, 0, 65, 56
1, 100235, Note_on_c, 0, 65, 77
1, 100238, Note_on_c, 0, 33, 56
1, 100253, Control_c, 0, 64, 115
1, 100258, Note_on_c, 0, 45, 49
1, 100267, Control_c, 0, 64, 91
1, 100282, Control_c, 0, 64, 65
1, 100297, Control_c, 0, 64, 0
1, 100326, Note_off_c, 0, 33, 65
1, 100326, Control_c, 0, 64, 60
1, 100330, Poly_aftertouch_c, 0, 68, 127
1, 100341, Control_c, 0, 64, 73
1, 100356, Control_c, 0, 64, 86
1, 100370, Note_off_c, 0, 45, 63
1, 100371, Control_c, 0, 64, 102
1, 100386, Control_c, 0, 64, 115
1, 100400, Control_c, 0, 64, 121
1, 100415, Control_c, 0, 64, 127
1, 100430, Control_c, 0, 64, 127
1, 100441, Poly_aftertouch_c, 0, 68, 0
1, 100509, Note_off_c, 0, 65, 54
1, 100516, Note_on_c, 0, 69, 65
1, 100525, Note_on_c, 0, 53, 44
1, 100552, Note_off_c, 0, 69, 61
1, 100599, Note_off_c, 0, 53, 57
1, 100605, Note_on_c, 0, 57, 56
1, 100651, Note_off_c, 0, 57, 61
1, 100703, Note_on_c, 0, 60, 57
1, 100738, Note_off_c, 0, 60, 62
1, 100739, Note_on_c, 0, 66, 76
1, 100800, Note_on_c, 0, 52, 55
1, 100825, Note_off_c, 0, 52, 60
1, 100972, Control_c, 0, 64, 102
1, 100987, Control_c, 0, 64, 82
1, 100989, Note_on_c, 0, 32, 58
1, 101002, Note_on_c, 0, 44, 54
1, 101002, Control_c, 0, 64, 54
1, 101007, Note_on_c, 0, 64, 65
1, 101013, Note_off_c, 0, 66, 56
1, 101016, Control_c, 0, 64, 0
1, 101027, Note_off_c, 0, 32, 65
1, 101046, Control_c, 0, 64, 66
1, 101049, Note_off_c, 0, 44, 65
1, 101061, Control_c, 0, 64, 78
1, 101075, Note_off_c, 0, 64, 63
1, 101076, Control_c, 0, 64, 93
1, 101091, Control_c, 0, 64, 107
1, 101105, Control_c, 0, 64, 117
1, 101120, Control_c, 0, 64, 121
1, 101135, Control_c, 0, 64, 125
1, 101150, Control_c, 0, 64, 127
1, 101266, Note_on_c, 0, 58, 39
1, 101271, Note_on_c, 0, 78, 77
1, 101302, Note_on_c, 0, 52, 29
1, 101328, Note_off_c, 0, 58, 36
1, 101351, Note_off_c, 0, 52, 65
1, 101392, Note_on_c, 0, 62, 57
1, 101424, Note_off_c, 0, 62, 64
1, 101448, Note_off_c, 0, 78, 61
1, 101511, Note_on_c, 0, 58, 45
1, 101515, Note_on_c, 0, 62, 47
1, 101563, Note_off_c, 0, 62, 61
1, 101575, Note_off_c, 0, 58, 59
1, 101601, Note_on_c, 0, 78, 76
1, 101616, Note_on_c, 0, 70, 54
1, 101636, Note_off_c, 0, 70, 59
1, 101692, Note_off_c, 0, 78, 57
1, 101807, Note_on_c, 0, 78, 75
1, 101818, Note_on_c, 0, 37, 60
1, 101830, Note_on_c, 0, 70, 56
1, 101839, Control_c, 0, 64, 106
1, 101854, Control_c, 0, 64, 85
1, 101869, Control_c, 0, 64, 63
1, 101884, Control_c, 0, 64, 0
1, 101913, Control_c, 0, 64, 69
1, 101918, Note_off_c, 0, 37, 65
1, 101927, Note_off_c, 0, 70, 54
1, 101928, Control_c, 0, 64, 83
1, 101937, Note_on_c, 0, 71, 62
1, 101943, Control_c, 0, 64, 100
1, 101958, Control_c, 0, 64, 113
1, 101973, Control_c, 0, 64, 119
1, 101988, Control_c, 0, 64, 121
1, 102003, Control_c, 0, 64, 126
1, 102018, Control_c, 0, 64, 127
1, 102027, Note_off_c, 0, 71, 59
1, 102043, Note_on_c, 0, 70, 74
1, 102079, Note_off_c, 0, 78, 59
1, 102157, Note_on_c, 0, 79, 76
1, 102199, Note_on_c, 0, 67, 49
1, 102231, Note_off_c, 0, 67, 51
1, 102277, Note_on_c, 0, 80, 74
1, 102291, Note_off_c, 0, 79, 44
1, 102293, Note_on_c, 0, 63, 51
1, 102303, Note_on_c, 0, 58, 52
1, 102316, Note_off_c, 0, 63, 62
1, 102335, Note_off_c, 0, 58, 63
1, 102378, Note_on_c, 0, 79, 72
1, 102414, Note_off_c, 0, 80, 61
1, 102559, Control_c, 0, 64, 121
1, 102563, Note_on_c, 0, 37, 44
1, 102567, Note_on_c, 0, 78, 76
1, 102574, Control_c, 0, 64, 98
1, 102580, Note_off_c, 0, 70, 53
1, 102588, Control_c, 0, 64, 72
1, 102597, Note_off_c, 0, 79, 57
1, 102603, Control_c, 0, 64, 0
1, 102648, Control_c, 0, 64, 58
1, 102654, Note_off_c, 0, 37, 65
1, 102662, Control_c, 0, 64, 74
1, 102677, Control_c, 0, 64, 92
1, 102692, Control_c, 0, 64, 113
1, 102707, Control_c, 0, 64, 127
1, 102841, Note_on_c, 0, 55, 49
1, 102842, Note_on_c, 0, 59, 44
1, 102876, Note_off_c, 0, 59, 57
1, 102882, Note_off_c, 0, 55, 62
1, 102928, Note_on_c, 0, 79, 68
1, 102945, Note_off_c, 0, 78, 57
1, 102956, Note_on_c, 0, 67, 49
1, 102986, Note_off_c, 0, 67, 54
1, 103065, Note_off_c, 0, 79, 54
1, 103066, Note_on_c, 0, 80, 71
1, 103158, Poly_aftertouch_c, 0, 59, 0
1, 103178, Note_on_c, 0, 79, 75
1, 103189, Note_on_c, 0, 71, 26
1, 103189, Note_off_c, 0, 80, 42
1, 103225, Note_off_c, 0, 71, 45
1, 103395, Note_off_c, 0, 79, 56
1, 103398, Note_on_c, 0, 78, 63
1, 103411, Control_c, 0, 64, 107
1, 103413, Note_on_c, 0, 71, 48
1, 103416, Note_on_c, 0, 36, 49
1, 103426, Control_c, 0, 64, 87
1, 103441, Control_c, 0, 64, 62
1, 103456, Control_c, 0, 64, 0
1, 103500, Control_c, 0, 64, 63
1, 103515, Control_c, 0, 64, 75
1, 103525, Note_off_c, 0, 36, 61
1, 103530, Control_c, 0, 64, 90
1, 103544, Control_c, 0, 64, 104
1, 103559, Control_c, 0, 64, 112
1, 103574, Control_c, 0, 64, 115
1, 103589, Note_off_c, 0, 71, 53
1, 103589, Control_c, 0, 64, 118
1, 103604, Control_c, 0, 64, 123
1, 103618, Control_c, 0, 64, 127
1, 103752, Note_on_c, 0, 72, 52
1, 103753, Note_on_c, 0, 60, 45
1, 103764, Note_on_c, 0, 65, 38
1, 103771, Note_on_c, 0, 55, 36
1, 103775, Note_off_c, 0, 72, 61
1, 103776, Note_off_c, 0, 78, 62
1, 104006, Note_off_c, 0, 65, 42
1, 104040, Note_on_c, 0, 79, 55
1, 104046, Note_on_c, 0, 62, 43
1, 104086, Control_c, 0, 64, 126
1, 104101, Control_c, 0, 64, 121
1, 104112, Note_off_c, 0, 79, 53
1, 104115, Control_c, 0, 64, 116
1, 104130, Control_c, 0, 64, 111
1, 104144, Note_on_c, 0, 86, 61
1, 104145, Control_c, 0, 64, 105
1, 104159, Control_c, 0, 64, 98
1, 104174, Control_c, 0, 64, 92
1, 104189, Control_c, 0, 64, 85
1, 104204, Control_c, 0, 64, 76
1, 104219, Control_c, 0, 64, 67
1, 104233, Control_c, 0, 64, 42
1, 104248, Control_c, 0, 64, 0
1, 104277, Note_off_c, 0, 62, 53
1, 104315, Note_off_c, 0, 86, 56
1, 104328, Note_on_c, 0, 84, 58
1, 104331, Note_on_c, 0, 64, 39
1, 104463, Control_c, 0, 64, 67
1, 104478, Control_c, 0, 64, 79
1, 104492, Control_c, 0, 64, 94
1, 104507, Control_c, 0, 64, 102
1, 104519, Note_off_c, 0, 64, 44
1, 104522, Control_c, 0, 64, 106
1, 104536, Note_off_c, 0, 60, 56
1, 104537, Control_c, 0, 64, 109
1, 104541, Note_off_c, 0, 55, 41
1, 104552, Control_c, 0, 64, 112
1, 104557, Note_off_c, 0, 84, 60
1, 104566, Control_c, 0, 64, 117
1, 104581, Control_c, 0, 64, 123
1, 104596, Control_c, 0, 64, 127
1, 104745, Control_c, 0, 64, 123
1, 104760, Control_c, 0, 64, 113
1, 104775, Control_c, 0, 64, 103
1, 104790, Control_c, 0, 64, 90
1, 104805, Control_c, 0, 64, 78
1, 104820, Control_c, 0, 64, 64
1, 104835, Control_c, 0, 64, 0
1, 105010, Note_on_c, 0, 84, 76
1, 105168, Control_c, 0, 64, 63
1, 105183, Control_c, 0, 64, 71
1, 105198, Control_c, 0, 64, 79
1, 105213, Control_c, 0, 64, 87
1, 105228, Control_c, 0, 64, 92
1, 105243, Control_c, 0, 64, 97
1, 105258, Control_c, 0, 64, 102
1, 105272, Control_c, 0, 64, 108
1, 105287, Control_c, 0, 64, 115
1, 105292, Note_on_c, 0, 41, 51
1, 105302, Control_c, 0, 64, 123
1, 105316, Control_c, 0, 64, 127
1, 105351, Note_off_c, 0, 41, 66
1, 105353, Note_off_c, 0, 84, 62
1, 105622, Note_on_c, 0, 68, 47
1, 105633, Note_on_c, 0, 65, 39
1, 105636, Note_on_c, 0, 60, 34
1, 105670, Note_off_c, 0, 68, 49
1, 105678, Note_off_c, 0, 60, 47
1, 105686, Note_off_c, 0, 65, 43
1, 105717, Note_on_c, 0, 76, 64
1, 105814, Note_on_c, 0, 60, 47
1, 105819, Note_on_c, 0, 65, 41
1, 105822, Note_on_c, 0, 72, 67
1, 105823, Note_off_c, 0, 76, 59
1, 105839, Note_off_c, 0, 60, 60
1, 105850, Note_off_c, 0, 65, 52
1, 105893, Note_off_c, 0, 72, 63
1, 105922, Note_on_c, 0, 64, 70
1, 106051, Control_c, 0, 64, 104
1, 106057, Note_off_c, 0, 64, 64
1, 106062, Note_on_c, 0, 60, 71
1, 106063, Note_on_c, 0, 48, 55
1, 106065, Control_c, 0, 64, 85
1, 106080, Control_c, 0, 64, 64
1, 106095, Control_c, 0, 64, 0
1, 106139, Control_c, 0, 64, 62
1, 106154, Control_c, 0, 64, 73
1, 106155, Note_off_c, 0, 60, 61
1, 106169, Control_c, 0, 64, 86
1, 106173, Note_off_c, 0, 48, 64
1, 106184, Control_c, 0, 64, 101
1, 106199, Control_c, 0, 64, 112
1, 106213, Control_c, 0, 64, 120
1, 106228, Control_c, 0, 64, 127
1, 106364, Note_on_c, 0, 73, 73
1, 106392, Note_on_c, 0, 64, 39
1, 106398, Note_on_c, 0, 67, 41
1, 106400, Note_on_c, 0, 59, 36
1, 106462, Note_off_c, 0, 59, 40
1, 106483, Note_off_c, 0, 64, 52
1, 106498, Note_off_c, 0, 67, 36
1, 106596, Note_on_c, 0, 59, 48
1, 106599, Note_on_c, 0, 64, 51
1, 106622, Note_off_c, 0, 59, 57
1, 106624, Note_off_c, 0, 64, 57
1, 106689, Note_on_c, 0, 61, 75
1, 106754, Note_off_c, 0, 61, 59
1, 106829, Control_c, 0, 64, 106
1, 106844, Control_c, 0, 64, 85
1, 106853, Note_on_c, 0, 41, 58
1, 106853, Note_on_c, 0, 61, 75
1, 106859, Control_c, 0, 64, 63
1, 106862, Note_off_c, 0, 73, 14
1, 106873, Control_c, 0, 64, 0
1, 106918, Control_c, 0, 64, 57
1, 106927, Note_off_c, 0, 41, 65
1, 106933, Control_c, 0, 64, 74
1, 106948, Control_c, 0, 64, 89
1, 106962, Control_c, 0, 64, 111
1, 106973, Note_off_c, 0, 61, 61
1, 106977, Control_c, 0, 64, 127
1, 107140, Note_on_c, 0, 68, 47
1, 107144, Note_on_c, 0, 65, 30
1, 107153, Note_on_c, 0, 60, 42
1, 107186, Note_off_c, 0, 68, 51
1, 107192, Note_off_c, 0, 60, 58
1, 107229, Note_off_c, 0, 65, 38
1, 107348, Control_c, 0, 64, 113
1, 107350, Note_on_c, 0, 65, 61
1, 107350, Note_on_c, 0, 74, 77
1, 107356, Note_on_c, 0, 60, 55
1, 107363, Control_c, 0, 64, 87
1, 107383, Note_on_c, 0, 68, 13
1, 107385, Control_c, 0, 64, 74
1, 107388, Note_off_c, 0, 65, 67
1, 107400, Control_c, 0, 64, 71
1, 107415, Control_c, 0, 64, 78
1, 107422, Note_off_c, 0, 60, 61
1, 107425, Note_off_c, 0, 68, 37
1, 107430, Control_c, 0, 64, 89
1, 107445, Control_c, 0, 64, 102
1, 107459, Control_c, 0, 64, 114
1, 107474, Control_c, 0, 64, 122
1, 107489, Control_c, 0, 64, 127
1, 107577, Control_c, 0, 64, 118
1, 107592, Control_c, 0, 64, 94
1, 107600, Note_on_c, 0, 46, 62
1, 107607, Control_c, 0, 64, 72
1, 107622, Control_c, 0, 64, 0
1, 107666, Control_c, 0, 64, 56
1, 107681, Control_c, 0, 64, 74
1, 107696, Note_on_c, 0, 63, 75
1, 107696, Control_c, 0, 64, 89
1, 107702, Note_off_c, 0, 46, 63
1, 107711, Control_c, 0, 64, 107
1, 107726, Control_c, 0, 64, 121
1, 107739, Note_off_c, 0, 63, 63
1, 107741, Control_c, 0, 64, 127
1, 107741, Control_c, 0, 67, 123
1, 107746, Note_off_c, 0, 74, 62
1, 107756, Control_c, 0, 67, 93
1, 107771, Control_c, 0, 67, 65
1, 107785, Control_c, 0, 67, 39
1, 107800, Control_c, 0, 67, 20
1, 107815, Control_c, 0, 67, 0
1, 107869, Note_on_c, 0, 75, 77
1, 107887, Note_on_c, 0, 62, 48
1, 107889, Note_on_c, 0, 67, 49
1, 107892, Note_on_c, 0, 66, 46
1, 107960, Note_off_c, 0, 67, 54
1, 107963, Note_off_c, 0, 66, 55
1, 107982, Note_off_c, 0, 62, 47
1, 108120, Note_on_c, 0, 64, 60
1, 108131, Note_on_c, 0, 67, 41
1, 108134, Note_on_c, 0, 62, 55
1, 108156, Note_off_c, 0, 67, 55
1, 108158, Note_off_c, 0, 64, 65
1, 108167, Note_off_c, 0, 62, 63
1, 108197, Note_off_c, 0, 75, 61
1, 108224, Note_on_c, 0, 76, 72
1, 108310, Note_off_c, 0, 76, 63
1, 108408, Note_on_c, 0, 41, 61
1, 108412, Note_on_c, 0, 76, 77
1, 108415, Control_c, 0, 64, 101
1, 108430, Control_c, 0, 64, 78
1, 108445, Control_c, 0, 64, 0
1, 108489, Control_c, 0, 64, 65
1, 108494, Note_off_c, 0, 41, 66
1, 108504, Control_c, 0, 64, 77
1, 108519, Control_c, 0, 64, 95
1, 108534, Control_c, 0, 64, 112
1, 108549, Control_c, 0, 64, 126
1, 108564, Control_c, 0, 64, 127
1, 108679, Note_on_c, 0, 61, 55
1, 108681, Note_on_c, 0, 68, 44
1, 108692, Note_on_c, 0, 65, 48
1, 108723, Note_off_c, 0, 68, 47
1, 108760, Note_off_c, 0, 65, 54
1, 108764, Note_on_c, 0, 77, 78
1, 108767, Note_off_c, 0, 61, 53
1, 108795, Note_off_c, 0, 76, 60
1, 108871, Note_on_c, 0, 68, 48
1, 108872, Note_on_c, 0, 80, 80
1, 108892, Note_off_c, 0, 77, 59
1, 108899, Note_on_c, 0, 65, 37
1, 108902, Note_off_c, 0, 68, 57
1, 108903, Note_on_c, 0, 61, 50
1, 108924, Note_off_c, 0, 61, 62
1, 108927, Note_off_c, 0, 65, 55
1, 108970, Note_on_c, 0, 84, 78
1, 108972, Note_off_c, 0, 80, 62
1, 109032, Note_off_c, 0, 84, 64
1, 109109, Note_on_c, 0, 48, 73
1, 109110, Note_on_c, 0, 84, 84
1, 109120, Control_c, 0, 64, 98
1, 109135, Control_c, 0, 64, 76
1, 109150, Control_c, 0, 64, 39
1, 109164, Control_c, 0, 64, 0
1, 109177, Note_off_c, 0, 48, 65
1, 109179, Control_c, 0, 64, 62
1, 109194, Control_c, 0, 64, 77
1, 109209, Control_c, 0, 64, 92
1, 109224, Control_c, 0, 64, 110
1, 109238, Control_c, 0, 64, 126
1, 109253, Control_c, 0, 64, 127
1, 109346, Note_on_c, 0, 68, 72
1, 109365, Note_on_c, 0, 60, 56
1, 109366, Note_on_c, 0, 65, 51
1, 109393, Note_off_c, 0, 68, 51
1, 109422, Note_off_c, 0, 60, 44
1, 109431, Note_on_c, 0, 85, 79
1, 109455, Note_off_c, 0, 65, 43
1, 109463, Note_off_c, 0, 84, 63
1, 109526, Note_on_c, 0, 65, 55
1, 109537, Note_on_c, 0, 68, 47
1, 109542, Note_on_c, 0, 89, 86
1, 109545, Note_on_c, 0, 60, 61
1, 109553, Note_off_c, 0, 65, 67
1, 109555, Note_off_c, 0, 68, 63
1, 109556, Note_off_c, 0, 85, 66
1, 109571, Note_off_c, 0, 60, 68
1, 109647, Note_on_c, 0, 92, 92
1, 109670, Note_off_c, 0, 89, 60
1, 109716, Note_off_c, 0, 92, 65
1, 109795, Control_c, 0, 64, 102
1, 109805, Note_on_c, 0, 40, 79
1, 109810, Note_on_c, 0, 92, 97
1, 109810, Control_c, 0, 64, 79
1, 109825, Control_c, 0, 64, 23
1, 109839, Control_c, 0, 64, 0
1, 109854, Control_c, 0, 64, 32
1, 109861, Note_off_c, 0, 40, 63
1, 109869, Control_c, 0, 64, 71
1, 109884, Control_c, 0, 64, 86
1, 109897, Control_c, 0, 64, 107
1, 109911, Control_c, 0, 64, 127
1, 110092, Note_on_c, 0, 59, 47
1, 110093, Note_on_c, 0, 64, 53
1, 110096, Note_on_c, 0, 68, 57
1, 110125, Note_off_c, 0, 59, 50
1, 110130, Note_off_c, 0, 68, 65
1, 110148, Note_off_c, 0, 64, 54
1, 110322, Note_on_c, 0, 68, 56
1, 110327, Note_on_c, 0, 64, 55
1, 110342, Note_on_c, 0, 59, 44
1, 110346, Note_off_c, 0, 68, 57
1, 110350, Note_off_c, 0, 64, 64
1, 110369, Note_off_c, 0, 59, 55
1, 110588, Note_on_c, 0, 47, 81
1, 110588, Note_on_c, 0, 90, 87
1, 110588, Control_c, 0, 64, 100
1, 110602, Control_c, 0, 64, 76
1, 110617, Control_c, 0, 64, 0
1, 110638, Note_off_c, 0, 92, 63
1, 110660, Note_off_c, 0, 47, 64
1, 110662, Control_c, 0, 64, 62
1, 110677, Control_c, 0, 64, 74
1, 110692, Control_c, 0, 64, 89
1, 110707, Control_c, 0, 64, 112
1, 110722, Control_c, 0, 64, 127
1, 110860, Note_on_c, 0, 66, 69
1, 110869, Note_on_c, 0, 63, 65
1, 110873, Note_on_c, 0, 59, 63
1, 110911, Note_off_c, 0, 66, 60
1, 110925, Note_off_c, 0, 63, 57
1, 110936, Note_off_c, 0, 59, 52
1, 110967, Note_off_c, 0, 90, 57
1, 111136, Note_on_c, 0, 66, 73
1, 111141, Note_on_c, 0, 63, 72
1, 111146, Note_on_c, 0, 59, 70
1, 111160, Note_off_c, 0, 66, 71
1, 111168, Note_off_c, 0, 63, 68
1, 111176, Note_off_c, 0, 59, 65
1, 111451, Note_on_c, 0, 33, 77
1, 111452, Note_on_c, 0, 89, 99
1, 111455, Control_c, 0, 64, 119
1, 111470, Control_c, 0, 64, 90
1, 111485, Control_c, 0, 64, 63
1, 111500, Control_c, 0, 64, 0
1, 111519, Note_off_c, 0, 33, 61
1, 111530, Control_c, 0, 64, 61
1, 111545, Control_c, 0, 64, 74
1, 111545, Note_on_c, 0, 40, 76
1, 111559, Control_c, 0, 64, 88
1, 111574, Control_c, 0, 64, 110
1, 111580, Note_off_c, 0, 40, 64
1, 111589, Control_c, 0, 64, 127
1, 111667, Note_on_c, 0, 48, 84
1, 111714, Note_off_c, 0, 48, 64
1, 111747, Note_on_c, 0, 52, 84
1, 111759, Note_on_c, 0, 87, 87
1, 111786, Note_off_c, 0, 89, 62
1, 111789, Note_off_c, 0, 52, 64
1, 111807, Note_off_c, 0, 87, 66
1, 111882, Note_on_c, 0, 60, 83
1, 111886, Note_on_c, 0, 57, 78
1, 111888, Note_on_c, 0, 88, 95
1, 111903, Note_off_c, 0, 60, 71
1, 111911, Note_off_c, 0, 57, 68
1, 112109, Note_on_c, 0, 38, 82
1, 112115, Control_c, 0, 64, 112
1, 112130, Control_c, 0, 64, 87
1, 112145, Control_c, 0, 64, 59
1, 112160, Control_c, 0, 64, 0
1, 112164, Note_off_c, 0, 38, 61
1, 112202, Note_on_c, 0, 84, 84
1, 112204, Control_c, 0, 64, 60
1, 112212, Note_off_c, 0, 88, 58
1, 112219, Control_c, 0, 64, 77
1, 112234, Control_c, 0, 64, 93
1, 112248, Control_c, 0, 64, 125
1, 112250, Note_off_c, 0, 84, 65
1, 112263, Control_c, 0, 64, 127
1, 112331, Note_on_c, 0, 85, 80
1, 112335, Note_on_c, 0, 61, 70
1, 112342, Note_on_c, 0, 53, 58
1, 112349, Note_on_c, 0, 56, 58
1, 112371, Note_off_c, 0, 61, 55
1, 112403, Note_off_c, 0, 56, 53
1, 112408, Note_off_c, 0, 53, 49
1, 112416, Note_on_c, 0, 80, 80
1, 112432, Note_off_c, 0, 85, 63
1, 112475, Note_off_c, 0, 80, 63
1, 112493, Note_on_c, 0, 61, 55
1, 112494, Note_on_c, 0, 53, 51
1, 112499, Note_on_c, 0, 56, 57
1, 112506, Note_on_c, 0, 77, 80
1, 112517, Note_off_c, 0, 61, 55
1, 112523, Note_off_c, 0, 56, 65
1, 112525, Note_off_c, 0, 53, 64
1, 112578, Note_off_c, 0, 77, 41
1, 112583, Note_on_c, 0, 73, 76
1, 112606, Note_off_c, 0, 73, 70
1, 112719, Note_on_c, 0, 83, 89
1, 112719, Note_on_c, 0, 33, 70
1, 112730, Control_c, 0, 64, 104
1, 112745, Control_c, 0, 64, 81
1, 112760, Control_c, 0, 64, 50
1, 112774, Control_c, 0, 64, 0
1, 112791, Note_off_c, 0, 33, 60
1, 112804, Note_on_c, 0, 40, 74
1, 112805, Control_c, 0, 64, 59
1, 112820, Control_c, 0, 64, 73
1, 112835, Control_c, 0, 64, 85
1, 112841, Note_off_c, 0, 40, 65
1, 112850, Control_c, 0, 64, 101
1, 112865, Control_c, 0, 64, 118
1, 112879, Control_c, 0, 64, 127
1, 112940, Note_on_c, 0, 48, 64
1, 112958, Note_on_c, 0, 50, 42
1, 112975, Note_off_c, 0, 48, 65
1, 112991, Note_off_c, 0, 50, 47
1, 113004, Note_on_c, 0, 52, 82
1, 113039, Note_off_c, 0, 52, 67
1, 113130, Note_on_c, 0, 84, 80
1, 113147, Note_off_c, 0, 83, 59
1, 113153, Note_on_c, 0, 60, 49
1, 113158, Note_on_c, 0, 62, 39
1, 113161, Note_on_c, 0, 59, 39
1, 113175, Note_off_c, 0, 84, 62
1, 113176, Note_off_c, 0, 60, 56
1, 113191, Note_off_c, 0, 62, 49
1, 113194, Note_off_c, 0, 59, 51
1, 113208, Note_on_c, 0, 57, 4
1, 113241, Note_off_c, 0, 57, 35
1, 113405, Control_c, 0, 67, 11
1, 113420, Control_c, 0, 64, 99
1, 113420, Control_c, 0, 67, 35
1, 113423, Note_on_c, 0, 38, 54
1, 113423, Note_on_c, 0, 79, 68
1, 113434, Control_c, 0, 64, 76
1, 113434, Control_c, 0, 67, 90
1, 113449, Control_c, 0, 64, 0
1, 113449, Control_c, 0, 67, 127
1, 113494, Control_c, 0, 64, 60
1, 113509, Control_c, 0, 64, 74
1, 113514, Note_off_c, 0, 38, 61
1, 113523, Control_c, 0, 64, 88
1, 113538, Control_c, 0, 64, 103
1, 113545, Note_on_c, 0, 76, 70
1, 113546, Note_off_c, 0, 79, 58
1, 113553, Control_c, 0, 64, 111
1, 113568, Control_c, 0, 64, 113
1, 113582, Note_off_c, 0, 76, 62
1, 113583, Control_c, 0, 64, 114
1, 113598, Control_c, 0, 64, 116
1, 113613, Control_c, 0, 64, 118
1, 113628, Control_c, 0, 64, 120
1, 113643, Control_c, 0, 64, 120
1, 113658, Control_c, 0, 64, 121
1, 113672, Control_c, 0, 64, 122
1, 113684, Note_on_c, 0, 77, 67
1, 113685, Note_on_c, 0, 53, 50
1, 113687, Control_c, 0, 64, 124
1, 113702, Control_c, 0, 64, 125
1, 113707, Note_on_c, 0, 56, 50
1, 113711, Note_on_c, 0, 61, 40
1, 113723, Note_off_c, 0, 77, 52
1, 113753, Note_off_c, 0, 61, 46
1, 113756, Note_off_c, 0, 56, 55
1, 113767, Note_off_c, 0, 53, 52
1, 113774, Note_on_c, 0, 73, 67
1, 113819, Note_off_c, 0, 73, 51
1, 113820, Control_c, 0, 64, 125
1, 113880, Note_on_c, 0, 56, 52
1, 113885, Note_on_c, 0, 68, 70
1, 113904, Note_off_c, 0, 56, 62
1, 113917, Note_on_c, 0, 53, 12
1, 113917, Note_off_c, 0, 68, 61
1, 113941, Poly_aftertouch_c, 0, 61, 0
1, 113956, Note_off_c, 0, 53, 56
1, 113988, Note_on_c, 0, 65, 66
1, 114031, Note_off_c, 0, 65, 61
1, 114124, Control_c, 0, 64, 125
1, 114153, Control_c, 0, 64, 121
1, 114168, Control_c, 0, 64, 108
1, 114183, Control_c, 0, 64, 92
1, 114187, Note_on_c, 0, 64, 72
1, 114198, Control_c, 0, 64, 72
1, 114201, Note_on_c, 0, 48, 43
1, 114207, Note_on_c, 0, 36, 43
1, 114212, Control_c, 0, 64, 0
1, 114302, Control_c, 0, 64, 64
1, 114305, Note_off_c, 0, 36, 61
1, 114308, Note_off_c, 0, 48, 61
1, 114317, Control_c, 0, 64, 77
1, 114332, Control_c, 0, 64, 91
1, 114346, Control_c, 0, 64, 108
1, 114361, Control_c, 0, 64, 120
1, 114376, Control_c, 0, 64, 126
1, 114391, Control_c, 0, 64, 127
1, 114507, Note_on_c, 0, 60, 41
1, 114515, Note_on_c, 0, 52, 36
1, 114522, Note_on_c, 0, 55, 31
1, 114535, Note_off_c, 0, 60, 53
1, 114568, Note_off_c, 0, 52, 46
1, 114568, Note_off_c, 0, 55, 47
1, 114599, Note_off_c, 0, 64, 60
1, 114604, Note_on_c, 0, 67, 67
1, 114749, Note_on_c, 0, 65, 67
1, 114756, Note_off_c, 0, 67, 56
1, 114821, Note_off_c, 0, 65, 59
1, 114855, Note_on_c, 0, 64, 69
1, 114894, Note_off_c, 0, 64, 64
1, 115085, Note_on_c, 0, 74, 63
1, 115092, Note_on_c, 0, 65, 58
1, 115095, Control_c, 0, 64, 116
1, 115101, Note_on_c, 0, 38, 44
1, 115109, Note_on_c, 0, 50, 36
1, 115110, Control_c, 0, 64, 98
1, 115125, Control_c, 0, 64, 75
1, 115140, Control_c, 0, 64, 0
1, 115208, Note_off_c, 0, 50, 57
1, 115214, Control_c, 0, 64, 68
1, 115217, Note_off_c, 0, 38, 59
1, 115229, Control_c, 0, 64, 80
1, 115244, Control_c, 0, 64, 96
1, 115259, Control_c, 0, 64, 110
1, 115274, Control_c, 0, 64, 118
1, 115289, Control_c, 0, 64, 122
1, 115303, Control_c, 0, 64, 127
1, 115440, Note_on_c, 0, 53, 44
1, 115443, Note_on_c, 0, 62, 42
1, 115451, Note_on_c, 0, 57, 32
1, 115494, Note_off_c, 0, 62, 58
1, 115512, Note_off_c, 0, 57, 55
1, 115533, Note_off_c, 0, 53, 55
1, 115536, Note_off_c, 0, 74, 54
1, 115568, Note_on_c, 0, 77, 59
1, 115724, Note_off_c, 0, 77, 54
1, 115728, Note_on_c, 0, 76, 59
1, 115848, Note_off_c, 0, 76, 62
1, 115861, Note_on_c, 0, 74, 55
1, 116012, Note_off_c, 0, 65, 42
1, 116067, Control_c, 0, 64, 120
1, 116076, Note_on_c, 0, 72, 58
1, 116081, Control_c, 0, 64, 96
1, 116084, Note_off_c, 0, 74, 55
1, 116093, Note_on_c, 0, 47, 44
1, 116096, Note_on_c, 0, 35, 43
1, 116096, Control_c, 0, 64, 76
1, 116111, Control_c, 0, 64, 0
1, 116171, Control_c, 0, 64, 54
1, 116185, Note_off_c, 0, 35, 62
1, 116186, Control_c, 0, 64, 72
1, 116187, Note_off_c, 0, 47, 61
1, 116201, Control_c, 0, 64, 84
1, 116215, Control_c, 0, 64, 100
1, 116230, Control_c, 0, 64, 112
1, 116245, Control_c, 0, 64, 120
1, 116260, Control_c, 0, 64, 127
1, 116506, Note_on_c, 0, 63, 37
1, 116511, Note_on_c, 0, 58, 37
1, 116520, Note_on_c, 0, 66, 30
1, 116575, Note_off_c, 0, 66, 46
1, 116584, Note_off_c, 0, 63, 53
1, 116588, Note_off_c, 0, 58, 53
1, 116632, Note_off_c, 0, 72, 52
1, 116636, Note_on_c, 0, 76, 55
1, 116776, Note_off_c, 0, 76, 61
1, 116795, Note_on_c, 0, 74, 56
1, 116925, Note_off_c, 0, 74, 58
1, 116937, Note_on_c, 0, 72, 56
1, 117169, Note_off_c, 0, 72, 64
1, 117199, Note_on_c, 0, 64, 50
1, 117208, Control_c, 0, 64, 122
1, 117211, Note_on_c, 0, 40, 39
1, 117214, Note_on_c, 0, 52, 35
1, 117223, Control_c, 0, 64, 103
1, 117238, Control_c, 0, 64, 87
1, 117253, Control_c, 0, 64, 69
1, 117268, Control_c, 0, 64, 0
1, 117342, Control_c, 0, 64, 59
1, 117357, Control_c, 0, 64, 73
1, 117363, Note_off_c, 0, 40, 56
1, 117371, Control_c, 0, 64, 87
1, 117387, Control_c, 0, 64, 101
1, 117394, Note_off_c, 0, 52, 47
1, 117402, Control_c, 0, 64, 111
1, 117408, Note_off_c, 0, 64, 62
1, 117416, Control_c, 0, 64, 120
1, 117431, Control_c, 0, 64, 127
1, 117752, Note_on_c, 0, 68, 38
1, 117763, Note_on_c, 0, 64, 35
1, 117770, Note_on_c, 0, 59, 32
1, 118647, Note_on_c, 0, 52, 64
1, 118647, Control_c, 0, 64, 112
1, 118662, Control_c, 0, 64, 95
1, 118676, Control_c, 0, 64, 80
1, 118679, Note_off_c, 0, 52, 67
1, 118691, Control_c, 0, 64, 63
1, 118706, Control_c, 0, 64, 0
1, 118854, Note_on_c, 0, 58, 59
1, 118937, Note_off_c, 0, 58, 58
1, 118941, Note_on_c, 0, 54, 54
1, 119024, Note_off_c, 0, 54, 58
1, 119036, Note_on_c, 0, 55, 54
1, 119083, Note_off_c, 0, 55, 62
1, 119117, Note_on_c, 0, 52, 55
1, 119158, Note_off_c, 0, 52, 65
1, 119212, Note_on_c, 0, 56, 61
1, 119243, Note_off_c, 0, 56, 64
1, 119425, Note_on_c, 0, 58, 55
1, 119514, Note_on_c, 0, 54, 48
1, 119531, Note_off_c, 0, 58, 55
1, 119594, Note_off_c, 0, 54, 57
1, 119610, Note_on_c, 0, 55, 49
1, 119654, Note_off_c, 0, 55, 61
1, 119690, Note_on_c, 0, 52, 52
1, 119745, Note_off_c, 0, 52, 58
1, 119792, Note_on_c, 0, 56, 60
1, 119825, Note_off_c, 0, 56, 63
1, 119989, Note_on_c, 0, 58, 59
1, 120064, Note_off_c, 0, 58, 55
1, 120072, Note_on_c, 0, 54, 53
1, 120165, Note_off_c, 0, 54, 58
1, 120179, Note_on_c, 0, 55, 50
1, 120231, Note_off_c, 0, 55, 60
1, 120267, Note_on_c, 0, 52, 51
1, 120326, Note_off_c, 0, 52, 56
1, 120370, Note_on_c, 0, 56, 60
1, 120396, Note_off_c, 0, 56, 65
1, 120455, Control_c, 0, 64, 60
1, 120470, Control_c, 0, 64, 75
1, 120485, Control_c, 0, 64, 88
1, 120500, Control_c, 0, 64, 99
1, 120514, Control_c, 0, 64, 105
1, 120529, Control_c, 0, 64, 108
1, 120544, Control_c, 0, 64, 110
1, 120559, Control_c, 0, 64, 112
1, 120574, Control_c, 0, 64, 116
1, 120589, Control_c, 0, 64, 121
1, 120604, Control_c, 0, 64, 127
1, 120695, Note_on_c, 0, 83, 60
1, 120788, Note_off_c, 0, 68, 42
1, 120891, Note_off_c, 0, 64, 41
1, 120948, Note_on_c, 0, 76, 60
1, 120952, Note_off_c, 0, 83, 58
1, 121146, Control_c, 0, 64, 120
1, 121161, Control_c, 0, 64, 107
1, 121176, Control_c, 0, 64, 93
1, 121191, Control_c, 0, 64, 76
1, 121206, Control_c, 0, 64, 16
1, 121213, Note_on_c, 0, 75, 57
1, 121218, Note_on_c, 0, 67, 39
1, 121220, Control_c, 0, 64, 0
1, 121226, Note_on_c, 0, 63, 32
1, 121227, Note_off_c, 0, 76, 56
1, 121290, Note_off_c, 0, 75, 64
1, 121294, Control_c, 0, 64, 65
1, 121307, Note_off_c, 0, 59, 41
1, 121309, Control_c, 0, 64, 75
1, 121324, Control_c, 0, 64, 86
1, 121338, Control_c, 0, 64, 95
1, 121347, Note_off_c, 0, 63, 56
1, 121353, Control_c, 0, 64, 98
1, 121368, Control_c, 0, 64, 101
1, 121382, Note_off_c, 0, 67, 0
1, 121382, Note_on_c, 0, 67, 9
1, 121382, Control_c, 0, 64, 102
1, 121397, Control_c, 0, 64, 104
1, 121412, Control_c, 0, 64, 105
1, 121442, Control_c, 0, 64, 105
1, 121540, Note_on_c, 0, 59, 52
1, 121573, Note_off_c, 0, 59, 55
1, 121634, Note_on_c, 0, 62, 59
1, 121658, Control_c, 0, 64, 105
1, 121681, Note_off_c, 0, 62, 52
1, 121687, Control_c, 0, 64, 104
1, 121702, Control_c, 0, 64, 103
1, 121717, Control_c, 0, 64, 101
1, 121730, Note_on_c, 0, 63, 56
1, 121732, Control_c, 0, 64, 98
1, 121747, Control_c, 0, 64, 95
1, 121761, Control_c, 0, 64, 90
1, 121776, Control_c, 0, 64, 85
1, 121784, Note_off_c, 0, 63, 57
1, 121791, Control_c, 0, 64, 79
1, 121806, Control_c, 0, 64, 71
1, 121821, Control_c, 0, 64, 61
1, 121827, Note_on_c, 0, 55, 56
1, 121835, Control_c, 0, 64, 18
1, 121850, Control_c, 0, 64, 0
1, 121868, Note_off_c, 0, 55, 64
1, 121931, Note_on_c, 0, 59, 59
1, 121954, Note_off_c, 0, 59, 63
1, 122137, Note_on_c, 0, 59, 60
1, 122194, Note_off_c, 0, 59, 40
1, 122214, Note_on_c, 0, 62, 57
1, 122258, Note_off_c, 0, 62, 58
1, 122309, Note_on_c, 0, 63, 58
1, 122364, Note_off_c, 0, 63, 61
1, 122410, Note_on_c, 0, 55, 60
1, 122451, Note_off_c, 0, 55, 64
1, 122523, Note_on_c, 0, 59, 56
1, 122547, Note_off_c, 0, 59, 58
1, 122732, Note_on_c, 0, 63, 60
1, 122767, Note_off_c, 0, 63, 64
1, 122937, Note_on_c, 0, 55, 57
1, 122967, Note_off_c, 0, 55, 66
1, 123248, Note_on_c, 0, 83, 63
1, 123257, Control_c, 0, 64, 54
1, 123266, Note_on_c, 0, 71, 27
1, 123272, Control_c, 0, 64, 68
1, 123287, Control_c, 0, 64, 76
1, 123302, Control_c, 0, 64, 85
1, 123317, Control_c, 0, 64, 94
1, 123331, Control_c, 0, 64, 102
1, 123346, Control_c, 0, 64, 111
1, 123361, Control_c, 0, 64, 119
1, 123376, Control_c, 0, 64, 127
1, 123392, Note_off_c, 0, 71, 50
1, 123648, Note_off_c, 0, 83, 33
1, 123665, Note_on_c, 0, 61, 52
1, 123671, Note_on_c, 0, 73, 56
1, 123673, Note_off_c, 0, 67, 40
1, 123702, Note_off_c, 0, 61, 61
1, 123757, Note_off_c, 0, 73, 0
1, 123757, Note_on_c, 0, 73, 20
1, 123902, Control_c, 0, 64, 108
1, 123917, Control_c, 0, 64, 89
1, 123930, Note_on_c, 0, 58, 51
1, 123931, Control_c, 0, 64, 71
1, 123933, Note_on_c, 0, 74, 53
1, 123935, Note_on_c, 0, 70, 57
1, 123944, Note_on_c, 0, 62, 43
1, 123946, Control_c, 0, 64, 0
1, 123952, Note_off_c, 0, 73, 41
1, 123978, Note_off_c, 0, 58, 60
1, 123999, Note_off_c, 0, 70, 43
1, 124159, Note_on_c, 0, 55, 46
1, 124159, Note_on_c, 0, 67, 54
1, 124210, Note_off_c, 0, 67, 55
1, 124231, Note_off_c, 0, 55, 58
1, 124243, Note_on_c, 0, 70, 60
1, 124256, Note_on_c, 0, 58, 50
1, 124306, Note_off_c, 0, 70, 58
1, 124320, Note_off_c, 0, 58, 63
1, 124341, Note_on_c, 0, 59, 51
1, 124341, Note_on_c, 0, 71, 53
1, 124398, Note_off_c, 0, 59, 56
1, 124407, Note_off_c, 0, 71, 53
1, 124422, Note_on_c, 0, 66, 61
1, 124431, Note_on_c, 0, 54, 51
1, 124488, Note_off_c, 0, 66, 64
1, 124511, Note_off_c, 0, 54, 57
1, 124536, Note_on_c, 0, 70, 62
1, 124537, Note_on_c, 0, 58, 57
1, 124568, Note_off_c, 0, 70, 65
1, 124570, Note_off_c, 0, 58, 65
1, 124742, Note_on_c, 0, 67, 55
1, 124746, Note_on_c, 0, 55, 50
1, 124801, Note_off_c, 0, 67, 58
1, 124819, Note_off_c, 0, 55, 58
1, 124825, Note_on_c, 0, 70, 54
1, 124836, Note_on_c, 0, 58, 54
1, 124876, Note_off_c, 0, 70, 54
1, 124902, Note_off_c, 0, 58, 62
1, 124923, Note_on_c, 0, 71, 49
1, 124928, Note_on_c, 0, 59, 47
1, 124978, Note_off_c, 0, 71, 52
1, 124979, Note_off_c, 0, 59, 58
1, 125004, Note_on_c, 0, 66, 56
1, 125016, Note_on_c, 0, 54, 54
1, 125058, Note_off_c, 0, 66, 61
1, 125077, Note_off_c, 0, 54, 55
1, 125105, Note_on_c, 0, 70, 59
1, 125111, Note_on_c, 0, 58, 53
1, 125138, Note_off_c, 0, 70, 65
1, 125146, Note_off_c, 0, 58, 64
1, 125307, Note_on_c, 0, 67, 52
1, 125312, Note_on_c, 0, 55, 45
1, 125367, Note_off_c, 0, 67, 59
1, 125386, Note_off_c, 0, 55, 58
1, 125391, Note_on_c, 0, 70, 54
1, 125409, Note_on_c, 0, 58, 50
1, 125451, Note_off_c, 0, 70, 54
1, 125482, Note_off_c, 0, 58, 63
1, 125497, Note_on_c, 0, 71, 50
1, 125505, Note_on_c, 0, 59, 47
1, 125549, Note_off_c, 0, 59, 58
1, 125550, Note_off_c, 0, 62, 0
1, 125551, Note_off_c, 0, 71, 52
1, 125585, Note_on_c, 0, 66, 53
1, 125588, Poly_aftertouch_c, 0, 62, 127
1, 125598, Note_on_c, 0, 54, 45
1, 125695, Note_off_c, 0, 66, 52
1, 125707, Note_off_c, 0, 54, 55
1, 125718, Note_on_c, 0, 70, 54
1, 125725, Note_on_c, 0, 58, 43
1, 125889, Control_c, 0, 64, 55
1, 125904, Control_c, 0, 64, 71
1, 125919, Control_c, 0, 64, 80
1, 125933, Control_c, 0, 64, 92
1, 125948, Control_c, 0, 64, 98
1, 125963, Control_c, 0, 64, 103
1, 125978, Control_c, 0, 64, 107
1, 125993, Control_c, 0, 64, 109
1, 126008, Control_c, 0, 64, 110
1, 126023, Control_c, 0, 64, 112
1, 126038, Control_c, 0, 64, 112
1, 126052, Control_c, 0, 64, 113
1, 126067, Control_c, 0, 64, 114
1, 126082, Control_c, 0, 64, 116
1, 126104, Control_c, 0, 64, 119
1, 126109, Note_off_c, 0, 58, 55
1, 126119, Control_c, 0, 64, 120
1, 126133, Note_on_c, 0, 54, 42
1, 126375, Note_on_c, 0, 58, 42
1, 126386, Control_c, 0, 64, 118
1, 126392, Note_off_c, 0, 54, 39
1, 126401, Control_c, 0, 64, 112
1, 126416, Control_c, 0, 64, 102
1, 126431, Control_c, 0, 64, 90
1, 126446, Control_c, 0, 64, 76
1, 126461, Control_c, 0, 64, 58
1, 126475, Control_c, 0, 64, 0
1, 126564, Control_c, 0, 64, 64
1, 126579, Control_c, 0, 64, 71
1, 126594, Control_c, 0, 64, 78
1, 126608, Control_c, 0, 64, 83
1, 126623, Control_c, 0, 64, 86
1, 126638, Control_c, 0, 64, 89
1, 126653, Control_c, 0, 64, 91
1, 126668, Control_c, 0, 64, 93
1, 126682, Control_c, 0, 64, 95
1, 126697, Control_c, 0, 64, 97
1, 126712, Control_c, 0, 64, 99
1, 126727, Control_c, 0, 64, 100
1, 126737, Note_off_c, 0, 58, 51
1, 126742, Control_c, 0, 64, 101
1, 126756, Control_c, 0, 64, 101
1, 126781, Note_on_c, 0, 53, 44
1, 126801, Control_c, 0, 64, 102
1, 127030, Control_c, 0, 64, 100
1, 127031, Note_off_c, 0, 53, 56
1, 127042, Note_on_c, 0, 58, 44
1, 127045, Control_c, 0, 64, 95
1, 127060, Control_c, 0, 64, 86
1, 127075, Control_c, 0, 64, 70
1, 127090, Control_c, 0, 64, 0
1, 127195, Control_c, 0, 64, 64
1, 127208, Note_off_c, 0, 74, 37
1, 127210, Control_c, 0, 64, 71
1, 127211, Note_off_c, 0, 70, 57
1, 127224, Control_c, 0, 64, 77
1, 127239, Control_c, 0, 64, 82
1, 127254, Control_c, 0, 64, 86
1, 127269, Control_c, 0, 64, 88
1, 127284, Control_c, 0, 64, 90
1, 127285, Poly_aftertouch_c, 0, 62, 0
1, 127299, Control_c, 0, 64, 92
1, 127314, Control_c, 0, 64, 94
1, 127328, Control_c, 0, 64, 97
1, 127343, Control_c, 0, 64, 98
1, 127358, Control_c, 0, 64, 99
1, 127418, Control_c, 0, 64, 100
1, 127419, Note_on_c, 0, 67, 46
1, 127447, Control_c, 0, 64, 100
1, 127462, Control_c, 0, 64, 101
1, 127519, Note_off_c, 0, 58, 31
1, 127521, Control_c, 0, 64, 100
1, 127536, Control_c, 0, 64, 96
1, 127551, Control_c, 0, 64, 84
1, 127566, Control_c, 0, 64, 70
1, 127580, Control_c, 0, 64, 0
1, 127582, Note_on_c, 0, 68, 55
1, 127586, Note_on_c, 0, 52, 36
1, 127617, Note_off_c, 0, 67, 37
1, 127647, Control_c, 0, 64, 62
1, 127662, Control_c, 0, 64, 67
1, 127677, Control_c, 0, 64, 71
1, 127692, Control_c, 0, 64, 75
1, 127706, Control_c, 0, 64, 80
1, 127721, Control_c, 0, 64, 85
1, 127725, Note_off_c, 0, 52, 65
1, 127736, Control_c, 0, 64, 89
1, 127739, Note_on_c, 0, 69, 63
1, 127741, Note_off_c, 0, 68, 58
1, 127751, Control_c, 0, 64, 92
1, 127766, Control_c, 0, 64, 94
1, 127780, Control_c, 0, 64, 96
1, 127795, Control_c, 0, 64, 97
1, 127810, Control_c, 0, 64, 98
1, 127824, Control_c, 0, 64, 99
1, 127839, Control_c, 0, 64, 100
1, 127854, Control_c, 0, 64, 100
1, 127884, Control_c, 0, 64, 101
1, 127986, Note_off_c, 0, 69, 58
1, 127987, Note_on_c, 0, 67, 61
1, 127996, Note_on_c, 0, 39, 40
1, 128018, Control_c, 0, 64, 98
1, 128033, Control_c, 0, 64, 88
1, 128047, Control_c, 0, 64, 75
1, 128062, Control_c, 0, 64, 31
1, 128077, Control_c, 0, 64, 0
1, 128136, Control_c, 0, 64, 63
1, 128151, Control_c, 0, 64, 75
1, 128153, Note_off_c, 0, 39, 60
1, 128166, Control_c, 0, 64, 87
1, 128181, Control_c, 0, 64, 99
1, 128196, Control_c, 0, 64, 105
1, 128211, Control_c, 0, 64, 109
1, 128226, Control_c, 0, 64, 113
1, 128241, Control_c, 0, 64, 116
1, 128255, Control_c, 0, 64, 119
1, 128270, Control_c, 0, 64, 123
1, 128285, Control_c, 0, 64, 127
1, 128354, Note_on_c, 0, 58, 46
1, 128363, Note_on_c, 0, 55, 35
1, 128383, Note_off_c, 0, 58, 61
1, 128400, Note_off_c, 0, 55, 53
1, 128426, Note_off_c, 0, 67, 61
1, 128449, Note_on_c, 0, 68, 61
1, 128561, Note_off_c, 0, 68, 62
1, 128574, Note_on_c, 0, 69, 65
1, 128593, Note_on_c, 0, 34, 47
1, 128648, Note_off_c, 0, 69, 52
1, 128674, Note_on_c, 0, 70, 68
1, 128701, Note_off_c, 0, 70, 67
1, 128892, Note_on_c, 0, 39, 42
1, 128896, Note_on_c, 0, 82, 66
1, 128914, Control_c, 0, 64, 121
1, 128929, Control_c, 0, 64, 105
1, 128944, Control_c, 0, 64, 89
1, 128959, Control_c, 0, 64, 71
1, 128965, Note_off_c, 0, 34, 42
1, 128974, Control_c, 0, 64, 0
1, 129018, Control_c, 0, 64, 65
1, 129028, Note_off_c, 0, 39, 62
1, 129033, Control_c, 0, 64, 75
1, 129048, Control_c, 0, 64, 87
1, 129063, Control_c, 0, 64, 99
1, 129077, Control_c, 0, 64, 107
1, 129099, Control_c, 0, 64, 112
1, 129114, Control_c, 0, 64, 115
1, 129129, Control_c, 0, 64, 120
1, 129144, Control_c, 0, 64, 125
1, 129159, Control_c, 0, 64, 127
1, 129203, Note_on_c, 0, 58, 48
1, 129207, Note_on_c, 0, 55, 44
1, 129227, Note_off_c, 0, 58, 61
1, 129239, Note_off_c, 0, 55, 56
1, 129307, Note_on_c, 0, 81, 68
1, 129370, Note_off_c, 0, 82, 39
1, 129413, Note_on_c, 0, 80, 73
1, 129415, Note_on_c, 0, 34, 48
1, 129436, Note_off_c, 0, 81, 55
1, 129495, Note_off_c, 0, 80, 62
1, 129520, Note_on_c, 0, 79, 72
1, 129627, Note_off_c, 0, 79, 60
1, 129648, Control_c, 0, 64, 119
1, 129663, Control_c, 0, 64, 100
1, 129674, Note_on_c, 0, 39, 54
1, 129677, Note_on_c, 0, 71, 68
1, 129678, Control_c, 0, 64, 83
1, 129692, Control_c, 0, 64, 64
1, 129697, Note_off_c, 0, 34, 51
1, 129707, Control_c, 0, 64, 0
1, 129752, Control_c, 0, 64, 66
1, 129764, Note_off_c, 0, 39, 60
1, 129767, Control_c, 0, 64, 73
1, 129782, Control_c, 0, 64, 81
1, 129797, Control_c, 0, 64, 89
1, 129812, Control_c, 0, 64, 96
1, 129826, Control_c, 0, 64, 101
1, 129848, Control_c, 0, 64, 104
1, 129863, Control_c, 0, 64, 108
1, 129878, Control_c, 0, 64, 110
1, 129893, Control_c, 0, 64, 112
1, 129907, Control_c, 0, 64, 112
1, 129927, Note_on_c, 0, 55, 54
1, 129933, Note_on_c, 0, 59, 40
1, 129954, Note_off_c, 0, 55, 64
1, 129962, Note_off_c, 0, 59, 52
1, 129996, Control_c, 0, 64, 113
1, 130010, Note_off_c, 0, 71, 60
1, 130011, Note_on_c, 0, 75, 66
1, 130097, Note_off_c, 0, 75, 56
1, 130128, Note_on_c, 0, 71, 68
1, 130136, Note_on_c, 0, 34, 50
1, 130169, Note_off_c, 0, 71, 55
1, 130208, Note_on_c, 0, 67, 67
1, 130307, Control_c, 0, 64, 112
1, 130322, Control_c, 0, 64, 109
1, 130337, Note_on_c, 0, 70, 68
1, 130337, Control_c, 0, 64, 95
1, 130351, Note_on_c, 0, 39, 53
1, 130351, Control_c, 0, 64, 78
1, 130358, Note_off_c, 0, 34, 56
1, 130360, Note_off_c, 0, 67, 37
1, 130368, Control_c, 0, 64, 39
1, 130383, Control_c, 0, 64, 0
1, 130417, Note_off_c, 0, 39, 61
1, 130427, Control_c, 0, 64, 62
1, 130441, Control_c, 0, 64, 74
1, 130456, Control_c, 0, 64, 84
1, 130471, Control_c, 0, 64, 95
1, 130486, Control_c, 0, 64, 100
1, 130501, Control_c, 0, 64, 102
1, 130515, Control_c, 0, 64, 105
1, 130530, Control_c, 0, 64, 108
1, 130545, Control_c, 0, 64, 110
1, 130560, Control_c, 0, 64, 112
1, 130575, Control_c, 0, 64, 114
1, 130579, Note_on_c, 0, 62, 50
1, 130584, Note_on_c, 0, 53, 54
1, 130610, Note_off_c, 0, 62, 56
1, 130612, Control_c, 0, 64, 114
1, 130618, Note_off_c, 0, 53, 65
1, 130627, Control_c, 0, 64, 115
1, 130656, Control_c, 0, 64, 115
1, 130659, Note_off_c, 0, 70, 60
1, 130670, Note_on_c, 0, 74, 60
1, 130701, Control_c, 0, 64, 116
1, 130777, Note_on_c, 0, 70, 68
1, 130791, Note_on_c, 0, 34, 49
1, 130818, Note_off_c, 0, 74, 59
1, 130849, Note_off_c, 0, 70, 56
1, 130867, Note_on_c, 0, 65, 70
1, 131008, Note_on_c, 0, 62, 76
1, 131013, Control_c, 0, 64, 112
1, 131023, Note_on_c, 0, 39, 53
1, 131028, Control_c, 0, 64, 101
1, 131039, Note_off_c, 0, 65, 36
1, 131043, Control_c, 0, 64, 85
1, 131051, Note_off_c, 0, 34, 58
1, 131057, Control_c, 0, 64, 66
1, 131072, Control_c, 0, 64, 0
1, 131102, Control_c, 0, 64, 56
1, 131108, Note_off_c, 0, 39, 62
1, 131117, Control_c, 0, 64, 72
1, 131131, Control_c, 0, 64, 84
1, 131146, Control_c, 0, 64, 97
1, 131161, Control_c, 0, 64, 104
1, 131177, Control_c, 0, 64, 107
1, 131191, Control_c, 0, 64, 109
1, 131206, Control_c, 0, 64, 112
1, 131221, Control_c, 0, 64, 116
1, 131236, Control_c, 0, 64, 119
1, 131246, Note_on_c, 0, 53, 50
1, 131248, Note_on_c, 0, 58, 48
1, 131251, Control_c, 0, 64, 121
1, 131265, Control_c, 0, 64, 121
1, 131270, Note_off_c, 0, 58, 58
1, 131274, Note_off_c, 0, 53, 65
1, 131280, Control_c, 0, 64, 122
1, 131310, Control_c, 0, 64, 123
1, 131311, Note_off_c, 0, 62, 60
1, 131315, Note_on_c, 0, 63, 72
1, 131362, Control_c, 0, 64, 123
1, 131379, Note_off_c, 0, 63, 64
1, 131421, Note_on_c, 0, 64, 71
1, 131431, Note_on_c, 0, 34, 54
1, 131490, Note_off_c, 0, 64, 62
1, 131502, Note_on_c, 0, 65, 73
1, 131532, Note_off_c, 0, 65, 66
1, 131643, Control_c, 0, 64, 121
1, 131658, Control_c, 0, 64, 110
1, 131664, Note_on_c, 0, 77, 69
1, 131671, Note_on_c, 0, 39, 55
1, 131672, Control_c, 0, 64, 91
1, 131687, Control_c, 0, 64, 73
1, 131699, Note_off_c, 0, 34, 56
1, 131702, Control_c, 0, 64, 0
1, 131746, Control_c, 0, 64, 48
1, 131752, Note_off_c, 0, 39, 62
1, 131761, Control_c, 0, 64, 71
1, 131776, Control_c, 0, 64, 80
1, 131791, Control_c, 0, 64, 91
1, 131806, Control_c, 0, 64, 97
1, 131821, Control_c, 0, 64, 100
1, 131836, Control_c, 0, 64, 102
1, 131850, Control_c, 0, 64, 104
1, 131865, Control_c, 0, 64, 107
1, 131880, Control_c, 0, 64, 109
1, 131895, Control_c, 0, 64, 110
1, 131902, Note_on_c, 0, 62, 46
1, 131910, Note_on_c, 0, 58, 50
1, 131910, Control_c, 0, 64, 111
1, 131930, Note_off_c, 0, 62, 52
1, 131933, Note_off_c, 0, 58, 63
1, 131954, Control_c, 0, 64, 112
1, 131997, Note_on_c, 0, 74, 57
1, 132013, Note_off_c, 0, 77, 53
1, 132108, Note_on_c, 0, 34, 53
1, 132108, Note_on_c, 0, 70, 63
1, 132117, Note_off_c, 0, 74, 60
1, 132166, Note_off_c, 0, 70, 57
1, 132193, Note_on_c, 0, 65, 55
1, 132289, Control_c, 0, 64, 111
1, 132303, Control_c, 0, 64, 106
1, 132312, Note_off_c, 0, 65, 35
1, 132318, Control_c, 0, 64, 95
1, 132327, Note_on_c, 0, 66, 65
1, 132333, Control_c, 0, 64, 79
1, 132333, Note_on_c, 0, 39, 57
1, 132348, Control_c, 0, 64, 20
1, 132353, Note_off_c, 0, 34, 61
1, 132363, Control_c, 0, 64, 0
1, 132402, Note_off_c, 0, 39, 61
1, 132407, Control_c, 0, 64, 43
1, 132421, Control_c, 0, 64, 69
1, 132436, Control_c, 0, 64, 79
1, 132451, Control_c, 0, 64, 88
1, 132466, Control_c, 0, 64, 93
1, 132481, Control_c, 0, 64, 96
1, 132495, Control_c, 0, 64, 98
1, 132510, Control_c, 0, 64, 101
1, 132525, Control_c, 0, 64, 103
1, 132539, Control_c, 0, 64, 105
1, 132548, Note_on_c, 0, 58, 52
1, 132554, Note_on_c, 0, 54, 52
1, 132554, Control_c, 0, 64, 107
1, 132569, Note_off_c, 0, 58, 61
1, 132569, Control_c, 0, 64, 107
1, 132577, Note_off_c, 0, 54, 60
1, 132584, Control_c, 0, 64, 108
1, 132599, Control_c, 0, 64, 108
1, 132605, Note_off_c, 0, 66, 63
1, 132628, Control_c, 0, 64, 109
1, 132633, Note_on_c, 0, 70, 51
1, 132643, Control_c, 0, 64, 109
1, 132703, Control_c, 0, 64, 110
1, 132736, Note_on_c, 0, 66, 60
1, 132756, Note_on_c, 0, 34, 44
1, 132758, Note_off_c, 0, 70, 47
1, 132805, Note_off_c, 0, 66, 59
1, 132830, Note_on_c, 0, 62, 57
1, 132919, Control_c, 0, 64, 109
1, 132933, Control_c, 0, 64, 105
1, 132948, Control_c, 0, 64, 95
1, 132963, Control_c, 0, 64, 81
1, 132971, Note_on_c, 0, 70, 59
1, 132975, Note_off_c, 0, 62, 44
1, 132977, Note_on_c, 0, 39, 52
1, 132978, Control_c, 0, 64, 62
1, 132992, Control_c, 0, 64, 0
1, 132995, Note_off_c, 0, 34, 57
1, 133051, Note_off_c, 0, 39, 58
1, 133052, Control_c, 0, 64, 63
1, 133067, Control_c, 0, 64, 73
1, 133082, Control_c, 0, 64, 82
1, 133096, Control_c, 0, 64, 92
1, 133111, Control_c, 0, 64, 96
1, 133125, Control_c, 0, 64, 101
1, 133140, Control_c, 0, 64, 104
1, 133155, Control_c, 0, 64, 108
1, 133165, Note_off_c, 0, 70, 59
1, 133169, Control_c, 0, 64, 111
1, 133184, Control_c, 0, 64, 113
1, 133199, Control_c, 0, 64, 117
1, 133214, Control_c, 0, 64, 119
1, 133219, Note_on_c, 0, 58, 46
1, 133228, Note_on_c, 0, 55, 37
1, 133229, Control_c, 0, 64, 120
1, 133241, Note_off_c, 0, 58, 60
1, 133243, Control_c, 0, 64, 121
1, 133258, Control_c, 0, 64, 121
1, 133262, Note_off_c, 0, 55, 51
1, 133288, Control_c, 0, 64, 122
1, 133308, Note_on_c, 0, 67, 62
1, 133332, Control_c, 0, 64, 122
1, 133426, Note_off_c, 0, 67, 57
1, 133436, Note_on_c, 0, 68, 60
1, 133442, Note_on_c, 0, 34, 44
1, 133515, Note_off_c, 0, 68, 61
1, 133517, Note_on_c, 0, 69, 63
1, 133607, Control_c, 0, 64, 121
1, 133622, Control_c, 0, 64, 114
1, 133637, Control_c, 0, 64, 100
1, 133651, Note_off_c, 0, 69, 58
1, 133652, Control_c, 0, 64, 84
1, 133660, Note_on_c, 0, 39, 53
1, 133663, Note_on_c, 0, 67, 72
1, 133667, Control_c, 0, 64, 65
1, 133674, Note_off_c, 0, 34, 57
1, 133681, Control_c, 0, 64, 0
1, 133711, Control_c, 0, 64, 50
1, 133725, Note_off_c, 0, 39, 59
1, 133726, Control_c, 0, 64, 69
1, 133740, Control_c, 0, 64, 79
1, 133755, Control_c, 0, 64, 90
1, 133770, Control_c, 0, 64, 97
1, 133785, Control_c, 0, 64, 101
1, 133800, Control_c, 0, 64, 103
1, 133815, Control_c, 0, 64, 105
1, 133830, Control_c, 0, 64, 108
1, 133845, Control_c, 0, 64, 111
1, 133860, Control_c, 0, 64, 112
1, 133875, Control_c, 0, 64, 113
1, 133883, Note_on_c, 0, 58, 47
1, 133883, Note_on_c, 0, 55, 47
1, 133904, Control_c, 0, 64, 113
1, 133907, Note_off_c, 0, 58, 58
1, 133910, Note_off_c, 0, 55, 61
1, 133917, Note_off_c, 0, 67, 59
1, 133938, Note_on_c, 0, 68, 64
1, 134010, Note_off_c, 0, 68, 60
1, 134043, Note_on_c, 0, 69, 68
1, 134066, Note_on_c, 0, 34, 54
1, 134097, Control_c, 0, 64, 114
1, 134098, Note_off_c, 0, 69, 63
1, 134125, Note_on_c, 0, 70, 72
1, 134150, Note_off_c, 0, 70, 67
1, 134259, Control_c, 0, 64, 113
1, 134274, Control_c, 0, 64, 105
1, 134289, Note_on_c, 0, 82, 77
1, 134289, Control_c, 0, 64, 90
1, 134304, Control_c, 0, 64, 72
1, 134309, Note_on_c, 0, 39, 51
1, 134319, Control_c, 0, 64, 0
1, 134323, Note_off_c, 0, 34, 61
1, 134372, Control_c, 0, 64, 66
1, 134384, Note_off_c, 0, 39, 61
1, 134387, Control_c, 0, 64, 77
1, 134402, Control_c, 0, 64, 88
1, 134416, Control_c, 0, 64, 98
1, 134431, Control_c, 0, 64, 104
1, 134446, Control_c, 0, 64, 108
1, 134461, Control_c, 0, 64, 111
1, 134476, Control_c, 0, 64, 115
1, 134490, Control_c, 0, 64, 118
1, 134505, Control_c, 0, 64, 119
1, 134520, Control_c, 0, 64, 119
1, 134533, Note_on_c, 0, 58, 52
1, 134543, Note_on_c, 0, 55, 39
1, 134550, Control_c, 0, 64, 120
1, 134555, Note_off_c, 0, 58, 62
1, 134572, Note_off_c, 0, 55, 56
1, 134611, Note_on_c, 0, 81, 72
1, 134650, Note_off_c, 0, 82, 28
1, 134711, Note_on_c, 0, 80, 71
1, 134727, Note_on_c, 0, 34, 51
1, 134757, Note_off_c, 0, 81, 35
1, 134767, Note_off_c, 0, 80, 61
1, 134811, Note_on_c, 0, 79, 71
1, 134868, Note_off_c, 0, 79, 60
1, 134889, Control_c, 0, 64, 116
1, 134904, Control_c, 0, 64, 103
1, 134919, Control_c, 0, 64, 84
1, 134933, Control_c, 0, 64, 64
1, 134945, Note_on_c, 0, 39, 51
1, 134947, Note_on_c, 0, 71, 60
1, 134948, Control_c, 0, 64, 0
1, 134954, Note_off_c, 0, 34, 57
1, 134978, Control_c, 0, 64, 58
1, 134989, Note_off_c, 0, 71, 58
1, 134993, Control_c, 0, 64, 71
1, 135007, Control_c, 0, 64, 80
1, 135022, Note_off_c, 0, 39, 61
1, 135022, Control_c, 0, 64, 89
1, 135037, Control_c, 0, 64, 92
1, 135046, Note_on_c, 0, 75, 62
1, 135052, Control_c, 0, 64, 93
1, 135067, Control_c, 0, 64, 94
1, 135089, Control_c, 0, 64, 96
1, 135104, Control_c, 0, 64, 99
1, 135119, Control_c, 0, 64, 101
1, 135134, Control_c, 0, 64, 101
1, 135147, Note_off_c, 0, 75, 52
1, 135154, Note_on_c, 0, 67, 66
1, 135166, Note_on_c, 0, 59, 50
1, 135167, Note_on_c, 0, 55, 57
1, 135189, Note_off_c, 0, 55, 64
1, 135190, Note_off_c, 0, 59, 56
1, 135199, Note_off_c, 0, 67, 59
1, 135224, Control_c, 0, 64, 102
1, 135233, Note_on_c, 0, 75, 63
1, 135253, Control_c, 0, 64, 102
1, 135283, Control_c, 0, 64, 103
1, 135308, Note_off_c, 0, 75, 60
1, 135327, Control_c, 0, 64, 103
1, 135341, Note_on_c, 0, 71, 68
1, 135359, Note_on_c, 0, 34, 55
1, 135380, Note_off_c, 0, 71, 54
1, 135423, Note_on_c, 0, 67, 62
1, 135490, Control_c, 0, 64, 103
1, 135505, Control_c, 0, 64, 96
1, 135519, Control_c, 0, 64, 82
1, 135532, Note_on_c, 0, 70, 73
1, 135534, Control_c, 0, 64, 62
1, 135538, Note_off_c, 0, 67, 35
1, 135545, Note_off_c, 0, 34, 61
1, 135547, Note_on_c, 0, 39, 54
1, 135549, Control_c, 0, 64, 0
1, 135590, Note_off_c, 0, 39, 63
1, 135608, Control_c, 0, 64, 68
1, 135623, Control_c, 0, 64, 79
1, 135637, Control_c, 0, 64, 91
1, 135652, Control_c, 0, 64, 99
1, 135667, Control_c, 0, 64, 102
1, 135682, Control_c, 0, 64, 103
1, 135697, Control_c, 0, 64, 106
1, 135711, Control_c, 0, 64, 109
1, 135726, Control_c, 0, 64, 111
1, 135738, Note_on_c, 0, 62, 60
1, 135740, Note_on_c, 0, 53, 61
1, 135741, Control_c, 0, 64, 112
1, 135756, Control_c, 0, 64, 113
1, 135758, Note_off_c, 0, 62, 60
1, 135770, Control_c, 0, 64, 113
1, 135774, Note_off_c, 0, 53, 65
1, 135785, Control_c, 0, 64, 114
1, 135795, Note_off_c, 0, 70, 60
1, 135800, Control_c, 0, 64, 115
1, 135811, Note_on_c, 0, 74, 59
1, 135815, Control_c, 0, 64, 116
1, 135852, Control_c, 0, 64, 116
1, 135867, Control_c, 0, 64, 117
1, 135897, Control_c, 0, 64, 117
1, 135919, Note_on_c, 0, 70, 69
1, 135942, Note_on_c, 0, 34, 56
1, 135968, Note_off_c, 0, 74, 40
1, 135991, Note_off_c, 0, 70, 59
1, 136006, Note_on_c, 0, 65, 75
1, 136128, Note_off_c, 0, 65, 37
1, 136134, Control_c, 0, 64, 115
1, 136138, Note_on_c, 0, 62, 77
1, 136149, Control_c, 0, 64, 104
1, 136155, Note_on_c, 0, 39, 53
1, 136164, Control_c, 0, 64, 85
1, 136176, Note_off_c, 0, 34, 62
1, 136179, Control_c, 0, 64, 64
1, 136194, Control_c, 0, 64, 0
1, 136224, Note_off_c, 0, 39, 61
1, 136253, Control_c, 0, 64, 68
1, 136268, Control_c, 0, 64, 82
1, 136283, Control_c, 0, 64, 97
1, 136298, Control_c, 0, 64, 105
1, 136313, Control_c, 0, 64, 107
1, 136328, Control_c, 0, 64, 108
1, 136342, Control_c, 0, 64, 109
1, 136356, Note_on_c, 0, 53, 53
1, 136357, Control_c, 0, 64, 112
1, 136359, Note_on_c, 0, 58, 49
1, 136372, Control_c, 0, 64, 113
1, 136381, Note_off_c, 0, 58, 61
1, 136386, Control_c, 0, 64, 114
1, 136390, Note_off_c, 0, 53, 67
1, 136401, Control_c, 0, 64, 115
1, 136416, Control_c, 0, 64, 115
1, 136418, Note_off_c, 0, 62, 59
1, 136431, Note_on_c, 0, 63, 68
1, 136446, Control_c, 0, 64, 116
1, 136476, Note_off_c, 0, 63, 62
1, 136505, Control_c, 0, 64, 116
1, 136527, Note_on_c, 0, 64, 68
1, 136539, Note_on_c, 0, 34, 53
1, 136598, Note_off_c, 0, 64, 60
1, 136617, Note_on_c, 0, 65, 73
1, 136647, Note_off_c, 0, 65, 66
1, 136749, Control_c, 0, 64, 112
1, 136765, Control_c, 0, 64, 100
1, 136777, Note_on_c, 0, 39, 54
1, 136778, Note_on_c, 0, 77, 71
1, 136780, Control_c, 0, 64, 83
1, 136793, Note_off_c, 0, 34, 60
1, 136795, Control_c, 0, 64, 64
1, 136809, Control_c, 0, 64, 0
1, 136849, Note_off_c, 0, 39, 60
1, 136855, Control_c, 0, 64, 65
1, 136870, Control_c, 0, 64, 74
1, 136884, Control_c, 0, 64, 85
1, 136899, Control_c, 0, 64, 95
1, 136914, Control_c, 0, 64, 99
1, 136929, Control_c, 0, 64, 102
1, 136944, Control_c, 0, 64, 105
1, 136958, Control_c, 0, 64, 108
1, 136973, Control_c, 0, 64, 111
1, 136988, Control_c, 0, 64, 113
1, 137003, Control_c, 0, 64, 113
1, 137004, Note_on_c, 0, 62, 41
1, 137005, Note_on_c, 0, 58, 53
1, 137017, Control_c, 0, 64, 114
1, 137026, Note_off_c, 0, 58, 63
1, 137032, Control_c, 0, 64, 114
1, 137033, Note_off_c, 0, 62, 49
1, 137047, Control_c, 0, 64, 115
1, 137086, Note_off_c, 0, 77, 55
1, 137089, Note_on_c, 0, 74, 59
1, 137196, Note_on_c, 0, 70, 65
1, 137203, Note_on_c, 0, 34, 44
1, 137209, Note_off_c, 0, 74, 58
1, 137252, Note_off_c, 0, 70, 54
1, 137286, Note_on_c, 0, 65, 54
1, 137350, Control_c, 0, 64, 114
1, 137365, Control_c, 0, 64, 109
1, 137380, Control_c, 0, 64, 97
1, 137395, Control_c, 0, 64, 82
1, 137410, Control_c, 0, 64, 63
1, 137416, Note_off_c, 0, 65, 51
1, 137421, Note_on_c, 0, 66, 61
1, 137425, Note_on_c, 0, 39, 50
1, 137425, Control_c, 0, 64, 0
1, 137450, Note_off_c, 0, 34, 58
1, 137499, Control_c, 0, 64, 54
1, 137502, Note_off_c, 0, 39, 62
1, 137514, Control_c, 0, 64, 74
1, 137529, Control_c, 0, 64, 86
1, 137543, Control_c, 0, 64, 96
1, 137559, Control_c, 0, 64, 101
1, 137574, Control_c, 0, 64, 105
1, 137589, Control_c, 0, 64, 108
1, 137604, Control_c, 0, 64, 111
1, 137619, Control_c, 0, 64, 113
1, 137633, Control_c, 0, 64, 115
1, 137643, Note_on_c, 0, 58, 53
1, 137645, Note_on_c, 0, 54, 56
1, 137648, Control_c, 0, 64, 116
1, 137663, Control_c, 0, 64, 117
1, 137664, Note_off_c, 0, 58, 61
1, 137669, Note_off_c, 0, 54, 61
1, 137688, Note_off_c, 0, 66, 63
1, 137726, Note_on_c, 0, 70, 53
1, 137830, Note_on_c, 0, 66, 56
1, 137846, Note_on_c, 0, 34, 46
1, 137857, Note_off_c, 0, 70, 44
1, 137897, Note_off_c, 0, 66, 59
1, 137921, Note_on_c, 0, 62, 54
1, 137973, Control_c, 0, 64, 115
1, 137988, Control_c, 0, 64, 109
1, 138003, Control_c, 0, 64, 102
1, 138018, Control_c, 0, 64, 91
1, 138033, Control_c, 0, 64, 78
1, 138048, Control_c, 0, 64, 58
1, 138058, Note_off_c, 0, 62, 50
1, 138063, Control_c, 0, 64, 0
1, 138073, Note_on_c, 0, 39, 47
1, 138076, Note_on_c, 0, 70, 61
1, 138104, Note_off_c, 0, 34, 53
1, 138154, Note_off_c, 0, 39, 61
1, 138173, Control_c, 0, 64, 44
1, 138188, Control_c, 0, 64, 70
1, 138203, Control_c, 0, 64, 82
1, 138218, Control_c, 0, 64, 95
1, 138226, Note_off_c, 0, 70, 61
1, 138233, Control_c, 0, 64, 103
1, 138247, Control_c, 0, 64, 107
1, 138262, Control_c, 0, 64, 110
1, 138277, Control_c, 0, 64, 115
1, 138292, Control_c, 0, 64, 120
1, 138307, Control_c, 0, 64, 127
1, 138342, Note_on_c, 0, 55, 47
1, 138343, Note_on_c, 0, 58, 45
1, 138368, Note_off_c, 0, 58, 61
1, 138376, Note_off_c, 0, 55, 64
1, 138593, Note_on_c, 0, 75, 62
1, 138607, Note_on_c, 0, 39, 37
1, 138811, Control_c, 0, 64, 109
1, 138812, Note_off_c, 0, 75, 58
1, 138820, Note_on_c, 0, 40, 56
1, 138823, Note_off_c, 0, 39, 38
1, 138834, Control_c, 0, 64, 90
1, 138836, Note_on_c, 0, 76, 64
1, 138848, Note_on_c, 0, 67, 54
1, 138849, Control_c, 0, 64, 64
1, 138856, Note_on_c, 0, 71, 48
1, 138863, Control_c, 0, 64, 0
1, 138914, Note_off_c, 0, 40, 63
1, 138923, Control_c, 0, 64, 59
1, 138937, Control_c, 0, 64, 73
1, 138952, Control_c, 0, 64, 86
1, 138967, Control_c, 0, 64, 99
1, 138981, Control_c, 0, 64, 107
1, 138996, Control_c, 0, 64, 112
1, 139007, Note_off_c, 0, 67, 59
1, 139011, Note_off_c, 0, 76, 63
1, 139011, Control_c, 0, 64, 116
1, 139019, Note_off_c, 0, 71, 60
1, 139026, Control_c, 0, 64, 119
1, 139041, Control_c, 0, 64, 123
1, 139056, Control_c, 0, 64, 126
1, 139060, Note_on_c, 0, 55, 56
1, 139062, Note_on_c, 0, 59, 51
1, 139070, Control_c, 0, 64, 127
1, 139076, Note_on_c, 0, 52, 46
1, 139082, Note_off_c, 0, 55, 64
1, 139087, Note_off_c, 0, 59, 55
1, 139101, Note_off_c, 0, 52, 63
1, 139222, Note_on_c, 0, 71, 71
1, 139243, Note_on_c, 0, 35, 64
1, 139397, Control_c, 0, 64, 118
1, 139411, Note_off_c, 0, 71, 57
1, 139411, Control_c, 0, 64, 97
1, 139426, Control_c, 0, 64, 76
1, 139435, Note_on_c, 0, 72, 71
1, 139437, Note_on_c, 0, 36, 65
1, 139438, Note_on_c, 0, 67, 65
1, 139441, Note_off_c, 0, 35, 55
1, 139441, Control_c, 0, 64, 0
1, 139443, Note_on_c, 0, 63, 65
1, 139476, Note_off_c, 0, 36, 67
1, 139500, Control_c, 0, 64, 64
1, 139515, Control_c, 0, 64, 79
1, 139529, Control_c, 0, 64, 92
1, 139535, Note_off_c, 0, 63, 61
1, 139544, Control_c, 0, 64, 104
1, 139545, Note_off_c, 0, 67, 54
1, 139559, Control_c, 0, 64, 108
1, 139582, Control_c, 0, 64, 109
1, 139594, Note_off_c, 0, 72, 63
1, 139597, Control_c, 0, 64, 112
1, 139611, Control_c, 0, 64, 116
1, 139626, Control_c, 0, 64, 119
1, 139628, Note_on_c, 0, 60, 58
1, 139634, Note_on_c, 0, 55, 56
1, 139636, Note_on_c, 0, 51, 65
1, 139641, Control_c, 0, 64, 120
1, 139648, Note_off_c, 0, 60, 60
1, 139656, Control_c, 0, 64, 121
1, 139658, Note_off_c, 0, 55, 65
1, 139674, Note_off_c, 0, 51, 64
1, 139685, Control_c, 0, 64, 121
1, 139700, Control_c, 0, 64, 122
1, 139702, Note_on_c, 0, 73, 70
1, 139729, Control_c, 0, 64, 123
1, 139734, Note_off_c, 0, 73, 62
1, 139744, Control_c, 0, 64, 123
1, 139797, Note_on_c, 0, 74, 69
1, 139807, Note_on_c, 0, 65, 59
1, 139818, Note_on_c, 0, 69, 50
1, 139820, Note_on_c, 0, 38, 53
1, 139848, Note_off_c, 0, 69, 56
1, 139868, Note_off_c, 0, 65, 54
1, 139880, Note_on_c, 0, 75, 75
1, 139881, Note_off_c, 0, 38, 61
1, 139881, Poly_aftertouch_c, 0, 36, 127
1, 139885, Note_on_c, 0, 39, 67
1, 139889, Note_off_c, 0, 74, 62
1, 139914, Poly_aftertouch_c, 0, 36, 0
1, 139923, Control_c, 0, 64, 120
1, 139923, Note_off_c, 0, 75, 61
1, 139936, Note_off_c, 0, 39, 61
1, 139937, Control_c, 0, 64, 103
1, 139953, Control_c, 0, 64, 84
1, 139968, Control_c, 0, 64, 61
1, 139982, Control_c, 0, 64, 0
1, 139987, Note_on_c, 0, 40, 67
1, 139993, Note_on_c, 0, 76, 81
1, 140009, Note_on_c, 0, 67, 66
1, 140012, Control_c, 0, 64, 64
1, 140019, Note_on_c, 0, 71, 57
1, 140027, Control_c, 0, 64, 76
1, 140042, Control_c, 0, 64, 91
1, 140042, Control_c, 0, 67, 117
1, 140045, Note_off_c, 0, 40, 62
1, 140057, Control_c, 0, 64, 107
1, 140057, Control_c, 0, 67, 97
1, 140072, Control_c, 0, 64, 118
1, 140072, Control_c, 0, 67, 73
1, 140087, Control_c, 0, 64, 127
1, 140087, Control_c, 0, 67, 46
1, 140096, Note_off_c, 0, 67, 59
1, 140102, Control_c, 0, 64, 127
1, 140102, Control_c, 0, 67, 22
1, 140117, Control_c, 0, 67, 0
1, 140117, Note_off_c, 0, 71, 61
1, 140155, Note_off_c, 0, 76, 61
1, 140191, Note_on_c, 0, 55, 63
1, 140195, Note_on_c, 0, 52, 62
1, 140198, Note_on_c, 0, 59, 48
1, 140218, Note_off_c, 0, 55, 66
1, 140224, Note_off_c, 0, 59, 55
1, 140227, Note_off_c, 0, 52, 65
1, 140380, Note_on_c, 0, 43, 69
1, 140382, Note_on_c, 0, 79, 80
1, 140568, Control_c, 0, 64, 97
1, 140578, Note_on_c, 0, 81, 85
1, 140583, Control_c, 0, 64, 72
1, 140585, Note_on_c, 0, 72, 74
1, 140588, Note_on_c, 0, 45, 66
1, 140588, Note_on_c, 0, 76, 68
1, 140599, Control_c, 0, 64, 0
1, 140601, Note_off_c, 0, 79, 51
1, 140620, Note_off_c, 0, 43, 52
1, 140656, Note_off_c, 0, 45, 64
1, 140658, Control_c, 0, 64, 66
1, 140671, Note_off_c, 0, 72, 63
1, 140673, Control_c, 0, 64, 81
1, 140688, Control_c, 0, 64, 99
1, 140691, Note_off_c, 0, 76, 64
1, 140702, Control_c, 0, 64, 118
1, 140713, Note_off_c, 0, 81, 61
1, 140717, Control_c, 0, 64, 127
1, 140782, Note_on_c, 0, 60, 67
1, 140785, Note_on_c, 0, 64, 65
1, 140787, Note_on_c, 0, 57, 64
1, 140804, Note_off_c, 0, 64, 64
1, 140811, Note_off_c, 0, 60, 68
1, 140821, Note_off_c, 0, 57, 63
1, 140960, Note_on_c, 0, 84, 81
1, 140966, Note_on_c, 0, 48, 66
1, 140999, Note_off_c, 0, 84, 67
1, 141199, Control_c, 0, 64, 105
1, 141202, Note_on_c, 0, 76, 78
1, 141205, Note_off_c, 0, 48, 57
1, 141205, Note_on_c, 0, 40, 68
1, 141213, Note_on_c, 0, 67, 71
1, 141214, Control_c, 0, 64, 82
1, 141216, Note_on_c, 0, 71, 62
1, 141229, Control_c, 0, 64, 47
1, 141244, Control_c, 0, 64, 0
1, 141263, Note_off_c, 0, 40, 60
1, 141288, Control_c, 0, 64, 65
1, 141303, Control_c, 0, 64, 76
1, 141318, Control_c, 0, 64, 90
1, 141333, Control_c, 0, 64, 108
1, 141348, Control_c, 0, 64, 118
1, 141352, Note_off_c, 0, 67, 60
1, 141353, Note_off_c, 0, 76, 62
1, 141354, Note_off_c, 0, 71, 60
1, 141363, Control_c, 0, 64, 125
1, 141377, Control_c, 0, 64, 127
1, 141398, Note_on_c, 0, 55, 61
1, 141406, Note_on_c, 0, 59, 52
1, 141410, Note_on_c, 0, 52, 57
1, 141422, Note_off_c, 0, 55, 66
1, 141431, Note_off_c, 0, 59, 56
1, 141442, Note_off_c, 0, 52, 68
1, 141559, Note_on_c, 0, 71, 77
1, 141575, Note_on_c, 0, 35, 70
1, 141734, Control_c, 0, 64, 110
1, 141736, Note_off_c, 0, 71, 57
1, 141748, Control_c, 0, 64, 88
1, 141757, Note_on_c, 0, 36, 69
1, 141760, Note_on_c, 0, 72, 78
1, 141763, Control_c, 0, 64, 66
1, 141768, Note_on_c, 0, 63, 71
1, 141771, Note_on_c, 0, 67, 67
1, 141776, Note_off_c, 0, 35, 57
1, 141778, Control_c, 0, 64, 0
1, 141798, Note_off_c, 0, 36, 67
1, 141807, Control_c, 0, 64, 45
1, 141830, Control_c, 0, 64, 70
1, 141845, Control_c, 0, 64, 83
1, 141846, Note_off_c, 0, 63, 62
1, 141848, Note_off_c, 0, 67, 55
1, 141860, Control_c, 0, 64, 99
1, 141875, Control_c, 0, 64, 112
1, 141889, Control_c, 0, 64, 117
1, 141904, Control_c, 0, 64, 119
1, 141905, Note_off_c, 0, 72, 62
1, 141919, Control_c, 0, 64, 122
1, 141933, Control_c, 0, 64, 127
1, 141950, Note_on_c, 0, 60, 58
1, 141952, Note_on_c, 0, 55, 58
1, 141955, Note_on_c, 0, 51, 65
1, 141970, Note_off_c, 0, 60, 60
1, 141975, Note_off_c, 0, 55, 64
1, 141990, Note_off_c, 0, 51, 61
1, 142010, Note_on_c, 0, 73, 69
1, 142042, Note_off_c, 0, 73, 61
1, 142105, Note_on_c, 0, 74, 71
1, 142109, Note_on_c, 0, 65, 69
1, 142111, Note_on_c, 0, 38, 65
1, 142112, Note_on_c, 0, 69, 65
1, 142141, Note_off_c, 0, 65, 64
1, 142141, Note_off_c, 0, 69, 69
1, 142173, Note_off_c, 0, 38, 61
1, 142185, Note_on_c, 0, 75, 75
1, 142187, Note_on_c, 0, 39, 66
1, 142203, Note_off_c, 0, 74, 62
1, 142224, Note_off_c, 0, 75, 62
1, 142266, Note_off_c, 0, 39, 61
1, 142275, Control_c, 0, 64, 114
1, 142289, Control_c, 0, 64, 89
1, 142292, Note_on_c, 0, 40, 81
1, 142293, Note_on_c, 0, 76, 85
1, 142301, Note_on_c, 0, 67, 75
1, 142304, Control_c, 0, 64, 67
1, 142307, Note_on_c, 0, 71, 64
1, 142319, Control_c, 0, 64, 0
1, 142343, Note_off_c, 0, 40, 63
1, 142349, Control_c, 0, 64, 34
1, 142364, Control_c, 0, 64, 68
1, 142379, Control_c, 0, 64, 79
1, 142394, Control_c, 0, 64, 94
1, 142409, Control_c, 0, 64, 104
1, 142423, Control_c, 0, 64, 110
1, 142438, Control_c, 0, 64, 115
1, 142452, Note_off_c, 0, 67, 54
1, 142453, Control_c, 0, 64, 121
1, 142468, Control_c, 0, 64, 127
1, 142471, Note_off_c, 0, 71, 56
1, 142491, Note_off_c, 0, 76, 57
1, 142501, Note_on_c, 0, 55, 62
1, 142502, Note_on_c, 0, 52, 68
1, 142502, Note_on_c, 0, 59, 55
1, 142522, Note_off_c, 0, 55, 65
1, 142526, Note_off_c, 0, 59, 57
1, 142533, Note_off_c, 0, 52, 68
1, 142681, Note_on_c, 0, 40, 78
1, 142683, Note_on_c, 0, 76, 81
1, 142726, Note_off_c, 0, 76, 66
1, 142861, Control_c, 0, 64, 115
1, 142876, Control_c, 0, 64, 91
1, 142882, Note_on_c, 0, 69, 82
1, 142885, Note_on_c, 0, 45, 73
1, 142890, Note_on_c, 0, 60, 74
1, 142891, Note_on_c, 0, 64, 68
1, 142891, Control_c, 0, 64, 67
1, 142897, Note_off_c, 0, 40, 61
1, 142905, Control_c, 0, 64, 0
1, 142937, Note_off_c, 0, 60, 59
1, 142945, Note_off_c, 0, 45, 65
1, 142950, Control_c, 0, 64, 64
1, 142960, Note_off_c, 0, 64, 63
1, 142964, Control_c, 0, 64, 82
1, 142975, Note_off_c, 0, 69, 66
1, 142979, Control_c, 0, 64, 101
1, 142994, Control_c, 0, 64, 127
1, 143070, Note_on_c, 0, 60, 73
1, 143074, Note_on_c, 0, 57, 68
1, 143077, Note_on_c, 0, 64, 65
1, 143094, Note_off_c, 0, 60, 69
1, 143097, Note_off_c, 0, 64, 61
1, 143107, Note_off_c, 0, 57, 62
1, 143236, Note_on_c, 0, 80, 89
1, 143246, Note_on_c, 0, 44, 65
1, 143344, Note_off_c, 0, 80, 60
1, 143359, Note_off_c, 0, 44, 58
1, 143387, Control_c, 0, 64, 117
1, 143402, Control_c, 0, 64, 91
1, 143415, Note_on_c, 0, 45, 73
1, 143417, Control_c, 0, 64, 67
1, 143419, Note_on_c, 0, 81, 83
1, 143421, Note_on_c, 0, 72, 80
1, 143432, Control_c, 0, 64, 0
1, 143445, Note_off_c, 0, 45, 65
1, 143461, Control_c, 0, 64, 68
1, 143476, Control_c, 0, 64, 82
1, 143481, Note_off_c, 0, 81, 57
1, 143482, Note_on_c, 0, 69, 80
1, 143491, Control_c, 0, 64, 105
1, 143506, Control_c, 0, 64, 127
1, 143513, Note_off_c, 0, 72, 62
1, 143536, Note_off_c, 0, 69, 65
1, 143575, Note_on_c, 0, 68, 73
1, 143590, Note_on_c, 0, 69, 75
1, 143617, Note_on_c, 0, 60, 67
1, 143619, Note_on_c, 0, 64, 69
1, 143637, Note_off_c, 0, 69, 67
1, 143642, Note_off_c, 0, 68, 60
1, 143654, Note_off_c, 0, 64, 65
1, 143656, Note_off_c, 0, 60, 63
1, 143800, Note_on_c, 0, 40, 84
1, 143806, Note_on_c, 0, 76, 86
1, 143920, Note_off_c, 0, 76, 55
1, 143951, Control_c, 0, 64, 111
1, 143956, Note_off_c, 0, 40, 57
1, 143961, Note_on_c, 0, 41, 79
1, 143966, Control_c, 0, 64, 87
1, 143972, Note_on_c, 0, 77, 80
1, 143981, Control_c, 0, 64, 64
1, 143983, Note_on_c, 0, 68, 78
1, 143986, Note_on_c, 0, 72, 57
1, 143993, Note_off_c, 0, 41, 69
1, 143996, Control_c, 0, 64, 0
1, 144005, Note_off_c, 0, 72, 63
1, 144025, Control_c, 0, 64, 69
1, 144026, Note_off_c, 0, 77, 60
1, 144037, Note_on_c, 0, 65, 78
1, 144040, Control_c, 0, 64, 83
1, 144055, Control_c, 0, 64, 102
1, 144063, Note_off_c, 0, 68, 63
1, 144070, Control_c, 0, 64, 122
1, 144092, Note_off_c, 0, 65, 64
1, 144092, Control_c, 0, 64, 127
1, 144116, Note_on_c, 0, 59, 83
1, 144169, Note_on_c, 0, 65, 62
1, 144171, Note_on_c, 0, 68, 69
1, 144185, Note_on_c, 0, 60, 57
1, 144188, Note_off_c, 0, 59, 57
1, 144196, Note_off_c, 0, 65, 67
1, 144200, Note_off_c, 0, 68, 66
1, 144211, Note_off_c, 0, 60, 65
1, 144227, Note_on_c, 0, 78, 74
1, 144268, Note_off_c, 0, 78, 47
1, 144314, Note_on_c, 0, 79, 62
1, 144325, Note_on_c, 0, 43, 74
1, 144325, Note_on_c, 0, 70, 75
1, 144339, Note_on_c, 0, 74, 55
1, 144360, Note_off_c, 0, 70, 53
1, 144374, Note_off_c, 0, 74, 63
1, 144378, Note_off_c, 0, 79, 57
1, 144388, Note_on_c, 0, 80, 76
1, 144391, Note_on_c, 0, 44, 73
1, 144397, Note_off_c, 0, 43, 59
1, 144437, Note_off_c, 0, 80, 63
1, 144439, Note_off_c, 0, 44, 64
1, 144448, Control_c, 0, 64, 125
1, 144463, Control_c, 0, 64, 96
1, 144477, Control_c, 0, 64, 72
1, 144492, Note_on_c, 0, 45, 79
1, 144492, Control_c, 0, 64, 0
1, 144495, Note_on_c, 0, 81, 80
1, 144510, Note_on_c, 0, 72, 77
1, 144511, Note_on_c, 0, 76, 70
1, 144516, Note_off_c, 0, 45, 67
1, 144521, Control_c, 0, 64, 62
1, 144536, Control_c, 0, 64, 76
1, 144544, Note_off_c, 0, 76, 58
1, 144551, Control_c, 0, 64, 92
1, 144565, Note_on_c, 0, 69, 75
1, 144566, Control_c, 0, 64, 109
1, 144578, Note_off_c, 0, 72, 63
1, 144581, Control_c, 0, 64, 120
1, 144595, Control_c, 0, 64, 126
1, 144597, Note_off_c, 0, 69, 66
1, 144610, Control_c, 0, 64, 127
1, 144624, Note_off_c, 0, 81, 59
1, 144638, Note_on_c, 0, 68, 88
1, 144669, Note_on_c, 0, 69, 76
1, 144683, Note_off_c, 0, 68, 67
1, 144694, Note_on_c, 0, 64, 72
1, 144698, Note_on_c, 0, 60, 74
1, 144709, Note_off_c, 0, 69, 65
1, 144719, Note_off_c, 0, 60, 67
1, 144720, Note_off_c, 0, 64, 68
1, 144882, Note_on_c, 0, 84, 85
1, 144898, Note_on_c, 0, 48, 67
1, 144901, Note_on_c, 0, 47, 78
1, 144929, Note_off_c, 0, 47, 64
1, 145020, Note_off_c, 0, 84, 62
1, 145029, Note_off_c, 0, 48, 63
1, 145048, Control_c, 0, 64, 103
1, 145059, Note_on_c, 0, 50, 71
1, 145059, Note_on_c, 0, 86, 82
1, 145063, Note_on_c, 0, 77, 73
1, 145063, Control_c, 0, 64, 74
1, 145068, Note_on_c, 0, 81, 62
1, 145078, Control_c, 0, 64, 0
1, 145093, Note_off_c, 0, 50, 66
1, 145106, Note_on_c, 0, 74, 82
1, 145107, Control_c, 0, 64, 45
1, 145122, Control_c, 0, 64, 70
1, 145137, Control_c, 0, 64, 86
1, 145142, Note_off_c, 0, 77, 61
1, 145151, Control_c, 0, 64, 108
1, 145161, Note_off_c, 0, 74, 66
1, 145162, Note_off_c, 0, 81, 31
1, 145166, Note_off_c, 0, 86, 56
1, 145166, Control_c, 0, 64, 127
1, 145214, Note_on_c, 0, 68, 83
1, 145251, Note_on_c, 0, 69, 67
1, 145260, Note_on_c, 0, 62, 53
1, 145263, Note_on_c, 0, 65, 69
1, 145273, Note_off_c, 0, 68, 61
1, 145293, Note_off_c, 0, 69, 66
1, 145312, Note_off_c, 0, 65, 66
1, 145318, Note_off_c, 0, 62, 63
1, 145436, Note_on_c, 0, 89, 81
1, 145444, Note_on_c, 0, 53, 82
1, 145458, Note_off_c, 0, 89, 69
1, 145589, Control_c, 0, 64, 119
1, 145602, Note_off_c, 0, 53, 54
1, 145604, Control_c, 0, 64, 92
1, 145619, Note_on_c, 0, 45, 82
1, 145619, Control_c, 0, 64, 72
1, 145624, Note_on_c, 0, 81, 74
1, 145629, Note_on_c, 0, 72, 58
1, 145631, Note_on_c, 0, 76, 55
1, 145634, Control_c, 0, 64, 56
1, 145647, Note_off_c, 0, 45, 69
1, 145649, Control_c, 0, 64, 67
1, 145652, Note_off_c, 0, 76, 60
1, 145664, Control_c, 0, 64, 78
1, 145670, Note_off_c, 0, 72, 43
1, 145679, Control_c, 0, 64, 97
1, 145685, Note_on_c, 0, 80, 78
1, 145687, Note_off_c, 0, 81, 61
1, 145694, Control_c, 0, 64, 126
1, 145709, Control_c, 0, 64, 127
1, 145733, Note_off_c, 0, 80, 62
1, 145776, Note_on_c, 0, 67, 74
1, 145800, Note_on_c, 0, 63, 45
1, 145801, Note_on_c, 0, 69, 77
1, 145825, Note_on_c, 0, 64, 75
1, 145827, Note_off_c, 0, 63, 57
1, 145836, Note_off_c, 0, 69, 64
1, 145839, Note_on_c, 0, 60, 62
1, 145841, Note_off_c, 0, 67, 53
1, 145850, Note_off_c, 0, 64, 68
1, 145867, Note_off_c, 0, 60, 65
1, 146004, Note_on_c, 0, 76, 85
1, 146019, Note_on_c, 0, 40, 69
1, 146112, Poly_aftertouch_c, 0, 38, 0
1, 146126, Note_off_c, 0, 76, 65
1, 146138, Control_c, 0, 64, 121
1, 146153, Control_c, 0, 64, 91
1, 146156, Note_off_c, 0, 40, 61
1, 146164, Note_on_c, 0, 41, 77
1, 146167, Control_c, 0, 64, 65
1, 146171, Note_on_c, 0, 77, 78
1, 146180, Note_on_c, 0, 68, 79
1, 146182, Control_c, 0, 64, 0
1, 146193, Note_on_c, 0, 72, 42
1, 146198, Note_off_c, 0, 41, 67
1, 146218, Note_off_c, 0, 72, 54
1, 146224, Note_off_c, 0, 77, 59
1, 146227, Control_c, 0, 64, 66
1, 146232, Note_on_c, 0, 65, 77
1, 146241, Control_c, 0, 64, 81
1, 146256, Note_off_c, 0, 68, 63
1, 146256, Control_c, 0, 64, 101
1, 146271, Control_c, 0, 64, 127
1, 146275, Note_off_c, 0, 65, 63
1, 146312, Note_on_c, 0, 59, 80
1, 146382, Note_on_c, 0, 60, 59
1, 146382, Note_on_c, 0, 68, 72
1, 146383, Note_on_c, 0, 65, 72
1, 146390, Note_off_c, 0, 59, 56
1, 146403, Note_off_c, 0, 65, 74
1, 146410, Note_off_c, 0, 68, 67
1, 146416, Note_on_c, 0, 78, 78
1, 146423, Note_off_c, 0, 60, 64
1, 146482, Note_off_c, 0, 78, 61
1, 146522, Note_on_c, 0, 79, 63
1, 146528, Note_on_c, 0, 70, 60
1, 146541, Note_on_c, 0, 43, 77
1, 146544, Note_on_c, 0, 74, 53
1, 146567, Note_off_c, 0, 70, 51
1, 146578, Note_off_c, 0, 79, 63
1, 146587, Note_on_c, 0, 80, 63
1, 146601, Note_off_c, 0, 74, 62
1, 146608, Note_off_c, 0, 43, 58
1, 146615, Note_on_c, 0, 44, 67
1, 146621, Note_off_c, 0, 80, 63
1, 146677, Note_off_c, 0, 44, 54
1, 146693, Control_c, 0, 64, 107
1, 146693, Control_c, 0, 67, 21
1, 146701, Note_on_c, 0, 81, 74
1, 146708, Control_c, 0, 64, 82
1, 146708, Control_c, 0, 67, 62
1, 146716, Note_on_c, 0, 45, 72
1, 146722, Control_c, 0, 64, 39
1, 146722, Control_c, 0, 67, 127
1, 146724, Note_on_c, 0, 76, 56
1, 146729, Note_on_c, 0, 72, 53
1, 146737, Control_c, 0, 64, 0
1, 146746, Note_off_c, 0, 76, 60
1, 146752, Note_off_c, 0, 45, 65
1, 146779, Note_off_c, 0, 81, 56
1, 146782, Control_c, 0, 64, 64
1, 146794, Note_on_c, 0, 69, 69
1, 146796, Note_off_c, 0, 72, 60
1, 146797, Control_c, 0, 64, 75
1, 146812, Control_c, 0, 64, 87
1, 146827, Note_off_c, 0, 69, 63
1, 146827, Control_c, 0, 64, 102
1, 146841, Control_c, 0, 64, 111
1, 146856, Control_c, 0, 64, 116
1, 146871, Control_c, 0, 64, 120
1, 146880, Note_on_c, 0, 63, 66
1, 146886, Control_c, 0, 64, 125
1, 146901, Control_c, 0, 64, 127
1, 146919, Note_off_c, 0, 63, 59
1, 146941, Note_on_c, 0, 64, 50
1, 146958, Note_on_c, 0, 60, 55
1, 146974, Note_on_c, 0, 57, 37
1, 147164, Note_on_c, 0, 72, 62
1, 147175, Control_c, 0, 64, 114
1, 147190, Control_c, 0, 64, 99
1, 147205, Control_c, 0, 64, 81
1, 147220, Control_c, 0, 64, 59
1, 147226, Note_off_c, 0, 72, 61
1, 147229, Note_on_c, 0, 77, 65
1, 147235, Control_c, 0, 64, 0
1, 147240, Note_off_c, 0, 64, 60
1, 147280, Control_c, 0, 64, 59
1, 147289, Note_off_c, 0, 77, 60
1, 147292, Note_off_c, 0, 60, 60
1, 147293, Note_on_c, 0, 81, 74
1, 147295, Control_c, 0, 64, 70
1, 147298, Note_off_c, 0, 57, 41
1, 147309, Control_c, 0, 64, 78
1, 147324, Control_c, 0, 64, 88
1, 147339, Control_c, 0, 64, 96
1, 147354, Control_c, 0, 64, 100
1, 147369, Control_c, 0, 64, 104
1, 147384, Control_c, 0, 64, 108
1, 147399, Control_c, 0, 64, 113
1, 147414, Control_c, 0, 64, 117
1, 147428, Control_c, 0, 64, 121
1, 147443, Control_c, 0, 64, 123
1, 147450, Note_off_c, 0, 81, 40
1, 147458, Control_c, 0, 64, 126
1, 147473, Control_c, 0, 64, 127
1, 147495, Note_on_c, 0, 73, 52
1, 147546, Note_off_c, 0, 73, 56
1, 147563, Note_on_c, 0, 78, 69
1, 147620, Control_c, 0, 64, 116
1, 147634, Note_off_c, 0, 78, 55
1, 147635, Control_c, 0, 64, 103
1, 147650, Control_c, 0, 64, 85
1, 147654, Note_on_c, 0, 81, 74
1, 147664, Note_on_c, 0, 38, 43
1, 147665, Control_c, 0, 64, 65
1, 147680, Control_c, 0, 64, 0
1, 147754, Control_c, 0, 64, 47
1, 147768, Control_c, 0, 64, 71
1, 147783, Control_c, 0, 64, 82
1, 147798, Note_off_c, 0, 38, 54
1, 147798, Control_c, 0, 64, 95
1, 147813, Control_c, 0, 64, 104
1, 147835, Control_c, 0, 64, 111
1, 147850, Control_c, 0, 64, 115
1, 147865, Control_c, 0, 64, 121
1, 147870, Note_off_c, 0, 81, 61
1, 147879, Control_c, 0, 64, 127
1, 148314, Note_on_c, 0, 66, 42
1, 148315, Note_on_c, 0, 57, 37
1, 148320, Note_on_c, 0, 61, 43
1, 148433, Note_off_c, 0, 66, 61
1, 148453, Note_off_c, 0, 61, 57
1, 148472, Note_off_c, 0, 57, 56
1, 148730, Note_on_c, 0, 66, 49
1, 148868, Note_off_c, 0, 66, 58
1, 148897, Note_on_c, 0, 69, 59
1, 149024, Note_off_c, 0, 69, 61
1, 149045, Note_on_c, 0, 70, 61
1, 149287, Note_on_c, 0, 39, 37
1, 149288, Note_on_c, 0, 67, 57
1, 149291, Note_off_c, 0, 70, 55
1, 149296, Control_c, 0, 64, 103
1, 149318, Control_c, 0, 64, 83
1, 149333, Control_c, 0, 64, 59
1, 149348, Control_c, 0, 64, 0
1, 149392, Control_c, 0, 64, 23
1, 149407, Control_c, 0, 64, 70
1, 149422, Control_c, 0, 64, 82
1, 149429, Note_off_c, 0, 39, 58
1, 149437, Control_c, 0, 64, 97
1, 149452, Control_c, 0, 64, 109
1, 149466, Control_c, 0, 64, 116
1, 149481, Control_c, 0, 64, 120
1, 149496, Control_c, 0, 64, 127
1, 149511, Control_c, 0, 64, 127
1, 149634, Note_on_c, 0, 58, 45
1, 149638, Note_on_c, 0, 55, 50
1, 149680, Note_off_c, 0, 58, 63
1, 149685, Note_off_c, 0, 55, 64
1, 149715, Note_off_c, 0, 67, 62
1, 149739, Note_on_c, 0, 68, 58
1, 149827, Note_off_c, 0, 68, 63
1, 149858, Note_on_c, 0, 69, 62
1, 149864, Note_on_c, 0, 34, 45
1, 149903, Note_off_c, 0, 34, 63
1, 149929, Note_off_c, 0, 69, 59
1, 149946, Note_on_c, 0, 70, 67
1, 149954, Note_on_c, 0, 46, 44
1, 149979, Note_off_c, 0, 70, 60
1, 150037, Note_off_c, 0, 46, 38
1, 150153, Note_on_c, 0, 82, 67
1, 150159, Note_on_c, 0, 39, 41
1, 150170, Control_c, 0, 64, 120
1, 150185, Control_c, 0, 64, 99
1, 150200, Control_c, 0, 64, 79
1, 150214, Control_c, 0, 64, 50
1, 150229, Control_c, 0, 64, 0
1, 150259, Control_c, 0, 64, 57
1, 150269, Note_off_c, 0, 39, 62
1, 150273, Control_c, 0, 64, 71
1, 150288, Control_c, 0, 64, 82
1, 150303, Control_c, 0, 64, 95
1, 150318, Control_c, 0, 64, 107
1, 150334, Control_c, 0, 64, 117
1, 150350, Control_c, 0, 64, 123
1, 150364, Control_c, 0, 64, 127
1, 150430, Note_on_c, 0, 55, 56
1, 150439, Note_on_c, 0, 58, 42
1, 150461, Note_off_c, 0, 55, 66
1, 150465, Note_off_c, 0, 58, 56
1, 150497, Note_off_c, 0, 82, 37
1, 150522, Note_on_c, 0, 81, 71
1, 150624, Note_on_c, 0, 80, 67
1, 150630, Note_off_c, 0, 81, 56
1, 150634, Note_on_c, 0, 34, 48
1, 150666, Note_off_c, 0, 34, 61
1, 150688, Note_off_c, 0, 80, 62
1, 150716, Note_on_c, 0, 79, 72
1, 150730, Note_on_c, 0, 46, 37
1, 150782, Note_off_c, 0, 79, 58
1, 150824, Note_off_c, 0, 46, 38
1, 150860, Control_c, 0, 64, 109
1, 150872, Note_on_c, 0, 71, 70
1, 150875, Control_c, 0, 64, 90
1, 150876, Note_on_c, 0, 39, 50
1, 150890, Control_c, 0, 64, 71
1, 150904, Control_c, 0, 64, 0
1, 150949, Control_c, 0, 64, 66
1, 150959, Note_off_c, 0, 39, 63
1, 150964, Control_c, 0, 64, 76
1, 150979, Control_c, 0, 64, 86
1, 150994, Control_c, 0, 64, 96
1, 151009, Control_c, 0, 64, 101
1, 151024, Control_c, 0, 64, 104
1, 151038, Control_c, 0, 64, 106
1, 151053, Control_c, 0, 64, 110
1, 151068, Control_c, 0, 64, 113
1, 151083, Control_c, 0, 64, 115
1, 151097, Control_c, 0, 64, 116
1, 151101, Note_on_c, 0, 55, 58
1, 151112, Note_on_c, 0, 59, 40
1, 151112, Control_c, 0, 64, 117
1, 151127, Control_c, 0, 64, 118
1, 151129, Note_off_c, 0, 55, 66
1, 151143, Note_off_c, 0, 59, 52
1, 151143, Control_c, 0, 64, 119
1, 151158, Control_c, 0, 64, 121
1, 151173, Control_c, 0, 64, 121
1, 151178, Note_on_c, 0, 75, 59
1, 151179, Note_off_c, 0, 71, 59
1, 151187, Control_c, 0, 64, 122
1, 151202, Control_c, 0, 64, 122
1, 151232, Control_c, 0, 64, 123
1, 151260, Note_off_c, 0, 75, 50
1, 151288, Note_on_c, 0, 71, 66
1, 151302, Note_on_c, 0, 34, 46
1, 151318, Note_off_c, 0, 71, 62
1, 151334, Note_off_c, 0, 34, 63
1, 151370, Note_on_c, 0, 67, 63
1, 151378, Note_on_c, 0, 46, 48
1, 151435, Note_off_c, 0, 46, 51
1, 151468, Control_c, 0, 64, 119
1, 151483, Control_c, 0, 64, 101
1, 151498, Note_on_c, 0, 70, 70
1, 151498, Control_c, 0, 64, 82
1, 151502, Note_on_c, 0, 39, 51
1, 151513, Control_c, 0, 64, 57
1, 151514, Note_off_c, 0, 67, 30
1, 151527, Control_c, 0, 64, 0
1, 151577, Note_off_c, 0, 39, 61
1, 151580, Control_c, 0, 64, 47
1, 151594, Control_c, 0, 64, 71
1, 151609, Control_c, 0, 64, 84
1, 151624, Control_c, 0, 64, 100
1, 151639, Control_c, 0, 64, 110
1, 151654, Control_c, 0, 64, 114
1, 151668, Control_c, 0, 64, 117
1, 151683, Control_c, 0, 64, 119
1, 151698, Control_c, 0, 64, 122
1, 151712, Control_c, 0, 64, 125
1, 151727, Control_c, 0, 64, 126
1, 151732, Note_on_c, 0, 62, 52
1, 151733, Note_on_c, 0, 53, 56
1, 151742, Control_c, 0, 64, 127
1, 151757, Note_off_c, 0, 62, 56
1, 151765, Note_off_c, 0, 53, 68
1, 151793, Note_off_c, 0, 70, 60
1, 151802, Note_on_c, 0, 74, 58
1, 151907, Note_on_c, 0, 70, 68
1, 151930, Note_on_c, 0, 34, 52
1, 151932, Note_off_c, 0, 74, 55
1, 151972, Note_off_c, 0, 70, 60
1, 151996, Note_on_c, 0, 65, 72
1, 152129, Control_c, 0, 64, 126
1, 152136, Note_on_c, 0, 62, 76
1, 152143, Control_c, 0, 64, 106
1, 152144, Note_off_c, 0, 65, 30
1, 152152, Note_on_c, 0, 39, 53
1, 152158, Control_c, 0, 64, 87
1, 152171, Note_off_c, 0, 34, 63
1, 152173, Control_c, 0, 64, 67
1, 152188, Control_c, 0, 64, 0
1, 152217, Control_c, 0, 64, 22
1, 152231, Note_off_c, 0, 39, 62
1, 152232, Control_c, 0, 64, 70
1, 152247, Control_c, 0, 64, 80
1, 152262, Control_c, 0, 64, 93
1, 152277, Control_c, 0, 64, 102
1, 152291, Control_c, 0, 64, 106
1, 152314, Control_c, 0, 64, 109
1, 152329, Control_c, 0, 64, 112
1, 152343, Control_c, 0, 64, 117
1, 152358, Control_c, 0, 64, 121
1, 152365, Note_on_c, 0, 58, 62
1, 152368, Note_on_c, 0, 53, 60
1, 152373, Control_c, 0, 64, 125
1, 152386, Note_off_c, 0, 58, 65
1, 152388, Control_c, 0, 64, 126
1, 152401, Note_off_c, 0, 53, 67
1, 152403, Control_c, 0, 64, 127
1, 152432, Note_off_c, 0, 62, 59
1, 152440, Note_on_c, 0, 63, 68
1, 152485, Note_off_c, 0, 63, 63
1, 152533, Note_on_c, 0, 64, 68
1, 152555, Note_on_c, 0, 34, 55
1, 152602, Note_off_c, 0, 64, 60
1, 152617, Note_on_c, 0, 65, 74
1, 152649, Note_off_c, 0, 65, 64
1, 152759, Control_c, 0, 64, 123
1, 152773, Control_c, 0, 64, 104
1, 152782, Note_on_c, 0, 77, 72
1, 152788, Control_c, 0, 64, 86
1, 152790, Note_on_c, 0, 39, 52
1, 152803, Note_off_c, 0, 34, 61
1, 152803, Control_c, 0, 64, 65
1, 152818, Control_c, 0, 64, 0
1, 152863, Control_c, 0, 64, 63
1, 152869, Note_off_c, 0, 39, 61
1, 152878, Control_c, 0, 64, 74
1, 152893, Control_c, 0, 64, 85
1, 152907, Control_c, 0, 64, 98
1, 152922, Control_c, 0, 64, 104
1, 152937, Control_c, 0, 64, 108
1, 152952, Control_c, 0, 64, 111
1, 152966, Control_c, 0, 64, 115
1, 152981, Control_c, 0, 64, 119
1, 152996, Control_c, 0, 64, 122
1, 153011, Control_c, 0, 64, 125
1, 153022, Note_on_c, 0, 62, 50
1, 153025, Note_on_c, 0, 58, 56
1, 153026, Control_c, 0, 64, 126
1, 153040, Control_c, 0, 64, 127
1, 153047, Note_off_c, 0, 62, 55
1, 153054, Note_off_c, 0, 58, 65
1, 153101, Note_off_c, 0, 77, 56
1, 153113, Note_on_c, 0, 74, 59
1, 153212, Note_on_c, 0, 70, 65
1, 153222, Note_off_c, 0, 74, 59
1, 153227, Note_on_c, 0, 34, 46
1, 153266, Note_off_c, 0, 70, 56
1, 153296, Note_on_c, 0, 65, 56
1, 153404, Control_c, 0, 64, 117
1, 153406, Note_off_c, 0, 65, 36
1, 153419, Control_c, 0, 64, 101
1, 153430, Note_on_c, 0, 66, 67
1, 153434, Control_c, 0, 64, 84
1, 153440, Note_on_c, 0, 39, 51
1, 153448, Control_c, 0, 64, 64
1, 153463, Control_c, 0, 64, 0
1, 153464, Note_off_c, 0, 34, 58
1, 153492, Control_c, 0, 64, 25
1, 153507, Control_c, 0, 64, 66
1, 153514, Note_off_c, 0, 39, 60
1, 153522, Control_c, 0, 64, 75
1, 153538, Control_c, 0, 64, 85
1, 153553, Control_c, 0, 64, 95
1, 153568, Control_c, 0, 64, 101
1, 153582, Control_c, 0, 64, 106
1, 153597, Control_c, 0, 64, 109
1, 153612, Control_c, 0, 64, 112
1, 153627, Control_c, 0, 64, 115
1, 153642, Control_c, 0, 64, 117
1, 153656, Control_c, 0, 64, 118
1, 153663, Note_on_c, 0, 54, 50
1, 153663, Note_on_c, 0, 58, 44
1, 153671, Control_c, 0, 64, 119
1, 153686, Control_c, 0, 64, 120
1, 153688, Note_off_c, 0, 54, 58
1, 153689, Note_off_c, 0, 58, 55
1, 153701, Control_c, 0, 64, 120
1, 153704, Note_off_c, 0, 66, 63
1, 153715, Control_c, 0, 64, 121
1, 153733, Note_on_c, 0, 70, 54
1, 153775, Control_c, 0, 64, 122
1, 153843, Note_on_c, 0, 66, 58
1, 153853, Note_off_c, 0, 70, 52
1, 153862, Note_on_c, 0, 34, 48
1, 153900, Note_off_c, 0, 66, 60
1, 153924, Note_on_c, 0, 62, 56
1, 154005, Control_c, 0, 64, 121
1, 154019, Control_c, 0, 64, 114
1, 154034, Control_c, 0, 64, 101
1, 154049, Control_c, 0, 64, 85
1, 154058, Note_off_c, 0, 62, 35
1, 154061, Note_on_c, 0, 70, 58
1, 154064, Control_c, 0, 64, 62
1, 154074, Note_on_c, 0, 39, 47
1, 154078, Control_c, 0, 64, 0
1, 154090, Note_off_c, 0, 34, 58
1, 154137, Control_c, 0, 64, 59
1, 154139, Note_off_c, 0, 39, 61
1, 154152, Control_c, 0, 64, 73
1, 154167, Control_c, 0, 64, 84
1, 154181, Control_c, 0, 64, 95
1, 154196, Control_c, 0, 64, 101
1, 154211, Control_c, 0, 64, 106
1, 154226, Control_c, 0, 64, 110
1, 154241, Control_c, 0, 64, 114
1, 154255, Control_c, 0, 64, 119
1, 154258, Note_off_c, 0, 70, 56
1, 154270, Control_c, 0, 64, 124
1, 154285, Control_c, 0, 64, 127
1, 154319, Note_on_c, 0, 58, 52
1, 154335, Note_on_c, 0, 55, 38
1, 154348, Note_off_c, 0, 58, 64
1, 154365, Note_off_c, 0, 55, 54
1, 154428, Note_on_c, 0, 67, 57
1, 154537, Note_off_c, 0, 67, 55
1, 154538, Note_on_c, 0, 34, 50
1, 154559, Note_on_c, 0, 68, 62
1, 154584, Note_off_c, 0, 34, 63
1, 154631, Note_off_c, 0, 68, 63
1, 154640, Note_on_c, 0, 69, 63
1, 154659, Note_on_c, 0, 46, 26
1, 154723, Note_off_c, 0, 46, 39
1, 154768, Control_c, 0, 64, 110
1, 154771, Note_off_c, 0, 69, 62
1, 154776, Note_on_c, 0, 39, 48
1, 154783, Control_c, 0, 64, 92
1, 154790, Note_on_c, 0, 67, 69
1, 154797, Control_c, 0, 64, 71
1, 154812, Control_c, 0, 64, 0
1, 154857, Control_c, 0, 64, 55
1, 154864, Note_off_c, 0, 39, 62
1, 154872, Control_c, 0, 64, 70
1, 154886, Control_c, 0, 64, 80
1, 154901, Control_c, 0, 64, 92
1, 154916, Control_c, 0, 64, 102
1, 154930, Control_c, 0, 64, 105
1, 154945, Control_c, 0, 64, 108
1, 154960, Control_c, 0, 64, 111
1, 154975, Control_c, 0, 64, 114
1, 154990, Control_c, 0, 64, 117
1, 155005, Control_c, 0, 64, 118
1, 155008, Note_on_c, 0, 58, 52
1, 155012, Note_on_c, 0, 55, 51
1, 155019, Control_c, 0, 64, 120
1, 155029, Note_off_c, 0, 58, 62
1, 155034, Control_c, 0, 64, 121
1, 155036, Note_off_c, 0, 55, 61
1, 155049, Control_c, 0, 64, 121
1, 155058, Note_off_c, 0, 67, 60
1, 155063, Control_c, 0, 64, 122
1, 155078, Control_c, 0, 64, 122
1, 155080, Note_on_c, 0, 68, 65
1, 155123, Control_c, 0, 64, 123
1, 155139, Control_c, 0, 64, 123
1, 155148, Note_off_c, 0, 68, 59
1, 155178, Note_on_c, 0, 69, 70
1, 155183, Control_c, 0, 64, 124
1, 155187, Note_on_c, 0, 34, 54
1, 155220, Note_off_c, 0, 34, 64
1, 155228, Control_c, 0, 64, 124
1, 155242, Note_off_c, 0, 69, 63
1, 155258, Note_on_c, 0, 70, 71
1, 155272, Control_c, 0, 64, 125
1, 155276, Note_on_c, 0, 46, 46
1, 155286, Note_off_c, 0, 70, 64
1, 155339, Control_c, 0, 64, 125
1, 155354, Control_c, 0, 64, 126
1, 155398, Control_c, 0, 64, 126
1, 155402, Note_off_c, 0, 46, 32
1, 155442, Control_c, 0, 64, 126
1, 155449, Note_on_c, 0, 82, 77
1, 155452, Note_on_c, 0, 39, 51
1, 155457, Control_c, 0, 64, 117
1, 155472, Control_c, 0, 64, 103
1, 155486, Control_c, 0, 64, 87
1, 155501, Control_c, 0, 64, 65
1, 155516, Control_c, 0, 64, 0
1, 155561, Note_off_c, 0, 39, 63
1, 155575, Control_c, 0, 64, 66
1, 155590, Control_c, 0, 64, 82
1, 155605, Control_c, 0, 64, 98
1, 155620, Control_c, 0, 64, 112
1, 155635, Control_c, 0, 64, 118
1, 155650, Control_c, 0, 64, 122
1, 155665, Control_c, 0, 64, 127
1, 155700, Note_on_c, 0, 55, 54
1, 155701, Note_on_c, 0, 58, 52
1, 155722, Note_off_c, 0, 58, 60
1, 155725, Note_off_c, 0, 55, 63
1, 155781, Note_on_c, 0, 81, 69
1, 155814, Note_off_c, 0, 82, 31
1, 155862, Note_off_c, 0, 81, 45
1, 155877, Note_on_c, 0, 34, 55
1, 155883, Note_on_c, 0, 80, 63
1, 155915, Note_off_c, 0, 34, 61
1, 155937, Note_off_c, 0, 80, 61
1, 155964, Note_on_c, 0, 79, 72
1, 155989, Note_on_c, 0, 46, 41
1, 156017, Note_off_c, 0, 79, 60
1, 156049, Note_off_c, 0, 46, 49
1, 156088, Control_c, 0, 64, 117
1, 156103, Control_c, 0, 64, 97
1, 156108, Note_on_c, 0, 39, 55
1, 156117, Control_c, 0, 64, 77
1, 156124, Note_on_c, 0, 71, 33
1, 156132, Control_c, 0, 64, 46
1, 156147, Control_c, 0, 64, 0
1, 156151, Note_off_c, 0, 71, 50
1, 156162, Control_c, 0, 64, 27
1, 156177, Control_c, 0, 64, 69
1, 156191, Control_c, 0, 64, 79
1, 156192, Note_off_c, 0, 39, 63
1, 156199, Note_on_c, 0, 75, 64
1, 156206, Control_c, 0, 64, 89
1, 156221, Control_c, 0, 64, 96
1, 156236, Control_c, 0, 64, 99
1, 156251, Control_c, 0, 64, 102
1, 156265, Control_c, 0, 64, 104
1, 156280, Control_c, 0, 64, 106
1, 156295, Control_c, 0, 64, 107
1, 156308, Note_on_c, 0, 67, 68
1, 156312, Note_off_c, 0, 75, 60
1, 156319, Note_on_c, 0, 55, 55
1, 156324, Control_c, 0, 64, 107
1, 156327, Note_on_c, 0, 59, 44
1, 156342, Note_off_c, 0, 55, 62
1, 156354, Control_c, 0, 64, 108
1, 156355, Note_off_c, 0, 59, 53
1, 156361, Note_off_c, 0, 67, 61
1, 156383, Control_c, 0, 64, 109
1, 156385, Note_on_c, 0, 75, 59
1, 156428, Control_c, 0, 64, 109
1, 156464, Note_off_c, 0, 75, 57
1, 156493, Note_on_c, 0, 71, 67
1, 156509, Note_on_c, 0, 34, 52
1, 156543, Note_off_c, 0, 34, 64
1, 156546, Note_off_c, 0, 71, 56
1, 156574, Note_on_c, 0, 67, 62
1, 156594, Note_on_c, 0, 46, 50
1, 156650, Control_c, 0, 64, 104
1, 156655, Note_off_c, 0, 67, 53
1, 156664, Note_off_c, 0, 46, 48
1, 156665, Control_c, 0, 64, 90
1, 156680, Control_c, 0, 64, 72
1, 156691, Note_on_c, 0, 70, 68
1, 156695, Control_c, 0, 64, 0
1, 156698, Note_on_c, 0, 39, 48
1, 156755, Control_c, 0, 64, 63
1, 156770, Control_c, 0, 64, 74
1, 156772, Note_off_c, 0, 39, 61
1, 156785, Control_c, 0, 64, 86
1, 156807, Control_c, 0, 64, 99
1, 156822, Control_c, 0, 64, 106
1, 156836, Control_c, 0, 64, 110
1, 156851, Control_c, 0, 64, 114
1, 156866, Control_c, 0, 64, 117
1, 156881, Control_c, 0, 64, 122
1, 156896, Control_c, 0, 64, 127
1, 156923, Note_on_c, 0, 62, 57
1, 156929, Note_on_c, 0, 53, 56
1, 156944, Note_off_c, 0, 62, 60
1, 156955, Note_off_c, 0, 70, 59
1, 156964, Note_off_c, 0, 53, 67
1, 156977, Note_on_c, 0, 74, 57
1, 157089, Note_on_c, 0, 70, 62
1, 157102, Note_off_c, 0, 74, 54
1, 157126, Note_on_c, 0, 34, 48
1, 157155, Note_off_c, 0, 70, 61
1, 157177, Note_on_c, 0, 65, 68
1, 157262, Note_off_c, 0, 65, 61
1, 157301, Note_on_c, 0, 62, 68
1, 157322, Note_on_c, 0, 39, 51
1, 157331, Note_off_c, 0, 34, 39
1, 157333, Note_off_c, 0, 62, 61
1, 157361, Note_off_c, 0, 39, 62
1, 157537, Note_on_c, 0, 58, 45
1, 157547, Note_on_c, 0, 53, 43
1, 157567, Note_off_c, 0, 58, 60
1, 157577, Note_off_c, 0, 53, 63
1, 157635, Note_on_c, 0, 74, 56
1, 157747, Note_on_c, 0, 70, 59
1, 157758, Note_on_c, 0, 34, 48
1, 157769, Note_off_c, 0, 74, 37
1, 157811, Note_off_c, 0, 70, 58
1, 157838, Note_on_c, 0, 65, 60
1, 157909, Note_off_c, 0, 65, 63
1, 157958, Note_on_c, 0, 62, 59
1, 157972, Note_on_c, 0, 39, 45
1, 157976, Note_off_c, 0, 34, 50
1, 157993, Note_off_c, 0, 62, 62
1, 158011, Note_off_c, 0, 39, 63
1, 158213, Note_on_c, 0, 53, 48
1, 158214, Note_on_c, 0, 58, 44
1, 158234, Note_off_c, 0, 58, 63
1, 158253, Note_off_c, 0, 53, 65
1, 158321, Note_on_c, 0, 74, 50
1, 158470, Note_on_c, 0, 70, 57
1, 158474, Note_on_c, 0, 34, 41
1, 158476, Note_off_c, 0, 74, 51
1, 158559, Note_off_c, 0, 70, 57
1, 158590, Note_on_c, 0, 65, 57
1, 158807, Control_c, 0, 64, 111
1, 158809, Note_on_c, 0, 39, 42
1, 158815, Note_on_c, 0, 70, 52
1, 158822, Control_c, 0, 64, 94
1, 158837, Control_c, 0, 64, 72
1, 158847, Note_off_c, 0, 65, 38
1, 158851, Control_c, 0, 64, 0
1, 158859, Note_off_c, 0, 34, 40
1, 158941, Control_c, 0, 64, 42
1, 158956, Control_c, 0, 64, 70
1, 158971, Control_c, 0, 64, 83
1, 158977, Note_off_c, 0, 70, 60
1, 158985, Control_c, 0, 64, 98
1, 158998, Note_on_c, 0, 74, 53
1, 158998, Note_off_c, 0, 39, 61
1, 159000, Control_c, 0, 64, 110
1, 159015, Control_c, 0, 64, 121
1, 159030, Control_c, 0, 64, 127
1, 159105, Note_on_c, 0, 70, 59
1, 159123, Note_off_c, 0, 74, 36
1, 159150, Note_off_c, 0, 70, 56
1, 159213, Note_on_c, 0, 65, 52
1, 159265, Note_off_c, 0, 65, 57
1, 159317, Note_on_c, 0, 82, 71
1, 159358, Note_off_c, 0, 82, 59
1, 159433, Note_on_c, 0, 74, 51
1, 159474, Note_off_c, 0, 74, 59
1, 159540, Note_on_c, 0, 82, 67
1, 159571, Note_off_c, 0, 82, 63
1, 159631, Note_on_c, 0, 74, 50
1, 159703, Note_off_c, 0, 74, 58
1, 159716, Note_on_c, 0, 70, 55
1, 159758, Note_off_c, 0, 70, 60
1, 159817, Note_on_c, 0, 65, 52
1, 159856, Note_off_c, 0, 65, 61
1, 159899, Note_on_c, 0, 82, 69
1, 159931, Note_off_c, 0, 82, 62
1, 159997, Note_on_c, 0, 74, 57
1, 160037, Note_off_c, 0, 74, 57
1, 160088, Note_on_c, 0, 82, 69
1, 160116, Note_off_c, 0, 82, 64
1, 160174, Note_on_c, 0, 74, 54
1, 160244, Note_off_c, 0, 74, 58
1, 160262, Note_on_c, 0, 70, 53
1, 160306, Note_off_c, 0, 70, 59
1, 160348, Note_on_c, 0, 65, 49
1, 160393, Note_off_c, 0, 65, 62
1, 160431, Note_on_c, 0, 82, 64
1, 160462, Note_off_c, 0, 82, 63
1, 160524, Note_on_c, 0, 74, 55
1, 160563, Note_off_c, 0, 74, 63
1, 160623, Note_on_c, 0, 82, 70
1, 160652, Note_off_c, 0, 82, 63
1, 160709, Note_on_c, 0, 74, 49
1, 160762, Note_off_c, 0, 74, 55
1, 160792, Note_on_c, 0, 70, 57
1, 160833, Note_off_c, 0, 70, 61
1, 160890, Note_on_c, 0, 65, 54
1, 160922, Note_off_c, 0, 65, 68
1, 160983, Note_on_c, 0, 82, 63
1, 161001, Note_off_c, 0, 82, 66
1, 161129, Note_on_c, 0, 82, 68
1, 161411, Note_on_c, 0, 69, 42
1, 161411, Note_on_c, 0, 94, 74
1, 161431, Control_c, 0, 64, 106
1, 161446, Control_c, 0, 64, 85
1, 161461, Control_c, 0, 64, 65
1, 161467, Note_off_c, 0, 69, 60
1, 161476, Control_c, 0, 64, 0
1, 161491, Note_on_c, 0, 74, 41
1, 161521, Control_c, 0, 64, 68
1, 161536, Control_c, 0, 64, 79
1, 161551, Control_c, 0, 64, 92
1, 161557, Note_off_c, 0, 74, 54
1, 161566, Control_c, 0, 64, 106
1, 161581, Control_c, 0, 64, 119
1, 161585, Note_on_c, 0, 69, 60
1, 161596, Control_c, 0, 64, 127
1, 161625, Note_off_c, 0, 69, 62
1, 161648, Note_off_c, 0, 82, 62
1, 161649, Note_off_c, 0, 94, 64
1, 161670, Note_on_c, 0, 65, 53
1, 161758, Note_off_c, 0, 65, 62
1, 161761, Note_on_c, 0, 69, 54
1, 161762, Note_on_c, 0, 94, 72
1, 161763, Note_on_c, 0, 82, 65
1, 161793, Note_off_c, 0, 69, 66
1, 161803, Note_off_c, 0, 82, 56
1, 161815, Note_off_c, 0, 94, 61
1, 161857, Note_on_c, 0, 74, 32
1, 161888, Note_off_c, 0, 74, 52
1, 161920, Note_on_c, 0, 69, 58
1, 161931, Note_on_c, 0, 82, 68
1, 161934, Note_on_c, 0, 94, 77
1, 161954, Note_off_c, 0, 69, 66
1, 161990, Note_on_c, 0, 74, 44
1, 162058, Note_off_c, 0, 74, 54
1, 162083, Note_on_c, 0, 69, 54
1, 162117, Note_off_c, 0, 69, 66
1, 162140, Note_off_c, 0, 82, 62
1, 162147, Note_off_c, 0, 94, 62
1, 162157, Note_on_c, 0, 65, 52
1, 162247, Note_off_c, 0, 65, 57
1, 162247, Note_on_c, 0, 69, 53
1, 162262, Note_on_c, 0, 82, 67
1, 162266, Note_on_c, 0, 94, 74
1, 162279, Note_off_c, 0, 69, 69
1, 162335, Note_off_c, 0, 82, 55
1, 162349, Note_on_c, 0, 74, 31
1, 162354, Note_off_c, 0, 94, 56
1, 162390, Note_off_c, 0, 74, 47
1, 162449, Note_on_c, 0, 68, 51
1, 162463, Note_on_c, 0, 82, 62
1, 162467, Note_on_c, 0, 94, 68
1, 162477, Control_c, 0, 64, 103
1, 162487, Note_off_c, 0, 68, 63
1, 162492, Control_c, 0, 64, 82
1, 162507, Control_c, 0, 64, 60
1, 162521, Note_on_c, 0, 74, 41
1, 162522, Control_c, 0, 64, 0
1, 162551, Control_c, 0, 64, 64
1, 162566, Control_c, 0, 64, 76
1, 162581, Control_c, 0, 64, 91
1, 162596, Control_c, 0, 64, 102
1, 162601, Note_off_c, 0, 74, 43
1, 162603, Note_on_c, 0, 68, 58
1, 162611, Control_c, 0, 64, 109
1, 162625, Control_c, 0, 64, 113
1, 162640, Control_c, 0, 64, 117
1, 162649, Note_off_c, 0, 68, 62
1, 162655, Control_c, 0, 64, 123
1, 162670, Control_c, 0, 64, 127
1, 162677, Note_on_c, 0, 65, 51
1, 162679, Note_off_c, 0, 82, 61
1, 162684, Note_off_c, 0, 94, 63
1, 162746, Note_off_c, 0, 65, 64
1, 162768, Note_on_c, 0, 67, 54
1, 162802, Note_on_c, 0, 94, 64
1, 162805, Note_on_c, 0, 82, 57
1, 162820, Note_off_c, 0, 67, 60
1, 162842, Note_off_c, 0, 82, 49
1, 162867, Note_off_c, 0, 94, 59
1, 162882, Note_on_c, 0, 74, 31
1, 162916, Note_off_c, 0, 74, 51
1, 162962, Note_on_c, 0, 68, 58
1, 162983, Note_on_c, 0, 82, 64
1, 162986, Note_on_c, 0, 94, 71
1, 162989, Control_c, 0, 64, 107
1, 162993, Note_off_c, 0, 68, 66
1, 163004, Control_c, 0, 64, 88
1, 163019, Control_c, 0, 64, 68
1, 163033, Control_c, 0, 64, 0
1, 163037, Note_on_c, 0, 74, 43
1, 163064, Control_c, 0, 64, 57
1, 163078, Control_c, 0, 64, 70
1, 163093, Control_c, 0, 64, 79
1, 163108, Control_c, 0, 64, 89
1, 163112, Note_off_c, 0, 74, 60
1, 163123, Control_c, 0, 64, 96
1, 163124, Note_on_c, 0, 68, 48
1, 163138, Control_c, 0, 64, 101
1, 163153, Control_c, 0, 64, 106
1, 163168, Control_c, 0, 64, 111
1, 163183, Control_c, 0, 64, 116
1, 163195, Note_off_c, 0, 68, 58
1, 163195, Note_off_c, 0, 82, 58
1, 163198, Control_c, 0, 64, 120
1, 163210, Note_on_c, 0, 65, 57
1, 163211, Note_off_c, 0, 94, 60
1, 163213, Control_c, 0, 64, 124
1, 163227, Control_c, 0, 64, 126
1, 163242, Control_c, 0, 64, 127
1, 163318, Note_off_c, 0, 65, 60
1, 163338, Note_on_c, 0, 70, 49
1, 163340, Note_on_c, 0, 82, 53
1, 163344, Note_on_c, 0, 94, 60
1, 163371, Note_off_c, 0, 82, 61
1, 163382, Note_off_c, 0, 94, 60
1, 163384, Note_off_c, 0, 70, 58
1, 163446, Note_on_c, 0, 74, 33
1, 163558, Note_off_c, 0, 74, 35
1, 163597, Note_on_c, 0, 94, 68
1, 163599, Note_on_c, 0, 71, 49
1, 163605, Control_c, 0, 64, 120
1, 163606, Note_on_c, 0, 80, 58
1, 163620, Control_c, 0, 64, 101
1, 163635, Note_off_c, 0, 71, 64
1, 163635, Control_c, 0, 64, 79
1, 163649, Control_c, 0, 64, 55
1, 163654, Note_off_c, 0, 80, 0
1, 163654, Note_on_c, 0, 80, 20
1, 163664, Control_c, 0, 64, 0
1, 163690, Note_on_c, 0, 74, 36
1, 163694, Control_c, 0, 64, 61
1, 163708, Control_c, 0, 64, 71
1, 163723, Control_c, 0, 64, 82
1, 163727, Note_off_c, 0, 74, 49
1, 163738, Control_c, 0, 64, 93
1, 163753, Control_c, 0, 64, 101
1, 163754, Note_on_c, 0, 71, 52
1, 163762, Note_off_c, 0, 94, 54
1, 163768, Control_c, 0, 64, 106
1, 163782, Note_off_c, 0, 80, 46
1, 163782, Control_c, 0, 64, 109
1, 163791, Note_off_c, 0, 71, 62
1, 163797, Control_c, 0, 64, 114
1, 163812, Control_c, 0, 64, 119
1, 163820, Note_on_c, 0, 65, 53
1, 163827, Control_c, 0, 64, 124
1, 163842, Control_c, 0, 64, 127
1, 163856, Control_c, 0, 64, 127
1, 163909, Note_on_c, 0, 80, 65
1, 163910, Note_on_c, 0, 71, 57
1, 163917, Note_on_c, 0, 94, 65
1, 163917, Note_off_c, 0, 65, 57
1, 163931, Note_off_c, 0, 80, 66
1, 163943, Note_off_c, 0, 71, 62
1, 163980, Note_off_c, 0, 94, 63
1, 164000, Note_on_c, 0, 74, 42
1, 164047, Note_off_c, 0, 74, 43
1, 164099, Note_on_c, 0, 70, 60
1, 164106, Note_on_c, 0, 94, 73
1, 164110, Control_c, 0, 64, 113
1, 164114, Note_on_c, 0, 86, 67
1, 164124, Control_c, 0, 64, 96
1, 164131, Note_off_c, 0, 70, 64
1, 164139, Control_c, 0, 64, 78
1, 164154, Control_c, 0, 64, 61
1, 164169, Control_c, 0, 64, 0
1, 164182, Note_on_c, 0, 74, 44
1, 164184, Control_c, 0, 64, 46
1, 164198, Control_c, 0, 64, 67
1, 164213, Control_c, 0, 64, 75
1, 164228, Control_c, 0, 64, 84
1, 164233, Note_off_c, 0, 74, 48
1, 164242, Control_c, 0, 64, 93
1, 164251, Note_on_c, 0, 70, 58
1, 164257, Control_c, 0, 64, 100
1, 164272, Control_c, 0, 64, 105
1, 164295, Control_c, 0, 64, 109
1, 164303, Note_off_c, 0, 70, 60
1, 164310, Note_off_c, 0, 86, 60
1, 164310, Control_c, 0, 64, 113
1, 164324, Control_c, 0, 64, 115
1, 164327, Note_off_c, 0, 94, 63
1, 164339, Control_c, 0, 64, 118
1, 164340, Note_on_c, 0, 65, 53
1, 164354, Control_c, 0, 64, 119
1, 164369, Control_c, 0, 64, 121
1, 164384, Control_c, 0, 64, 123
1, 164398, Control_c, 0, 64, 125
1, 164413, Control_c, 0, 64, 127
1, 164426, Note_off_c, 0, 65, 61
1, 164428, Control_c, 0, 64, 127
1, 164429, Note_on_c, 0, 70, 54
1, 164429, Note_on_c, 0, 86, 61
1, 164443, Note_on_c, 0, 94, 55
1, 164448, Note_off_c, 0, 86, 66
1, 164461, Note_off_c, 0, 70, 65
1, 164466, Note_off_c, 0, 94, 61
1, 164519, Note_on_c, 0, 74, 36
1, 164580, Note_off_c, 0, 74, 45
1, 164630, Note_on_c, 0, 94, 65
1, 164640, Note_on_c, 0, 71, 54
1, 164642, Note_on_c, 0, 80, 51
1, 164649, Control_c, 0, 64, 120
1, 164664, Control_c, 0, 64, 105
1, 164674, Note_off_c, 0, 71, 64
1, 164679, Control_c, 0, 64, 86
1, 164686, Note_off_c, 0, 80, 0
1, 164686, Note_on_c, 0, 80, 13
1, 164694, Control_c, 0, 64, 68
1, 164709, Control_c, 0, 64, 0
1, 164716, Note_on_c, 0, 74, 39
1, 164739, Control_c, 0, 64, 62
1, 164752, Note_off_c, 0, 74, 49
1, 164754, Control_c, 0, 64, 72
1, 164769, Control_c, 0, 64, 81
1, 164783, Control_c, 0, 64, 93
1, 164789, Note_on_c, 0, 71, 49
1, 164798, Control_c, 0, 64, 100
1, 164813, Control_c, 0, 64, 104
1, 164828, Note_off_c, 0, 71, 62
1, 164828, Control_c, 0, 64, 106
1, 164838, Note_off_c, 0, 94, 55
1, 164843, Control_c, 0, 64, 109
1, 164858, Note_off_c, 0, 80, 42
1, 164858, Control_c, 0, 64, 113
1, 164868, Note_on_c, 0, 65, 48
1, 164872, Control_c, 0, 64, 117
1, 164887, Control_c, 0, 64, 118
1, 164917, Control_c, 0, 64, 118
1, 164946, Control_c, 0, 64, 119
1, 164959, Note_off_c, 0, 65, 61
1, 164961, Control_c, 0, 64, 119
1, 164963, Note_on_c, 0, 80, 65
1, 164969, Note_on_c, 0, 71, 49
1, 164970, Note_on_c, 0, 94, 63
1, 164992, Note_off_c, 0, 80, 67
1, 165001, Note_off_c, 0, 71, 63
1, 165006, Control_c, 0, 64, 120
1, 165042, Note_off_c, 0, 94, 62
1, 165067, Note_on_c, 0, 74, 35
1, 165114, Note_off_c, 0, 74, 45
1, 165165, Note_on_c, 0, 70, 56
1, 165176, Control_c, 0, 64, 114
1, 165180, Note_on_c, 0, 94, 67
1, 165184, Note_on_c, 0, 86, 59
1, 165191, Control_c, 0, 64, 100
1, 165201, Note_off_c, 0, 70, 63
1, 165206, Control_c, 0, 64, 84
1, 165220, Control_c, 0, 64, 68
1, 165235, Control_c, 0, 64, 0
1, 165246, Note_on_c, 0, 74, 43
1, 165250, Control_c, 0, 64, 22
1, 165264, Control_c, 0, 64, 65
1, 165279, Control_c, 0, 64, 73
1, 165294, Control_c, 0, 64, 82
1, 165309, Control_c, 0, 64, 93
1, 165311, Note_off_c, 0, 74, 58
1, 165324, Control_c, 0, 64, 100
1, 165326, Note_on_c, 0, 70, 56
1, 165338, Control_c, 0, 64, 104
1, 165353, Control_c, 0, 64, 107
1, 165368, Control_c, 0, 64, 110
1, 165371, Note_off_c, 0, 70, 59
1, 165383, Control_c, 0, 64, 114
1, 165392, Note_off_c, 0, 86, 61
1, 165398, Control_c, 0, 64, 117
1, 165413, Control_c, 0, 64, 118
1, 165416, Note_on_c, 0, 65, 46
1, 165420, Note_off_c, 0, 94, 62
1, 165427, Control_c, 0, 64, 119
1, 165442, Control_c, 0, 64, 119
1, 165457, Control_c, 0, 64, 120
1, 165472, Control_c, 0, 64, 121
1, 165487, Control_c, 0, 64, 121
1, 165502, Control_c, 0, 64, 122
1, 165506, Note_on_c, 0, 70, 52
1, 165529, Note_on_c, 0, 86, 49
1, 165532, Control_c, 0, 64, 123
1, 165534, Note_off_c, 0, 65, 42
1, 165543, Note_off_c, 0, 70, 63
1, 165547, Control_c, 0, 64, 124
1, 165551, Note_off_c, 0, 86, 58
1, 165562, Control_c, 0, 64, 125
1, 165606, Note_on_c, 0, 74, 34
1, 165673, Note_off_c, 0, 74, 39
1, 165761, Note_on_c, 0, 71, 52
1, 165761, Note_on_c, 0, 94, 60
1, 165766, Note_on_c, 0, 80, 57
1, 165791, Control_c, 0, 64, 116
1, 165804, Note_off_c, 0, 71, 62
1, 165806, Control_c, 0, 64, 100
1, 165821, Control_c, 0, 64, 83
1, 165833, Note_off_c, 0, 80, 0
1, 165833, Note_on_c, 0, 80, 21
1, 165836, Control_c, 0, 64, 59
1, 165851, Control_c, 0, 64, 0
1, 165859, Note_on_c, 0, 74, 37
1, 165895, Control_c, 0, 64, 49
1, 165910, Control_c, 0, 64, 68
1, 165912, Note_off_c, 0, 74, 45
1, 165925, Control_c, 0, 64, 77
1, 165940, Control_c, 0, 64, 87
1, 165955, Note_on_c, 0, 71, 46
1, 165955, Control_c, 0, 64, 96
1, 165969, Control_c, 0, 64, 102
1, 165984, Control_c, 0, 64, 107
1, 165999, Control_c, 0, 64, 112
1, 166003, Note_off_c, 0, 71, 58
1, 166013, Control_c, 0, 64, 117
1, 166028, Control_c, 0, 64, 122
1, 166031, Note_on_c, 0, 65, 51
1, 166043, Control_c, 0, 64, 127
1, 166158, Note_off_c, 0, 65, 62
1, 166174, Note_on_c, 0, 71, 53
1, 166198, Note_off_c, 0, 71, 60
1, 166517, Note_on_c, 0, 74, 51
1, 166533, Control_c, 0, 64, 119
1, 166555, Control_c, 0, 64, 102
1, 166570, Control_c, 0, 64, 85
1, 166585, Control_c, 0, 64, 67
1, 166599, Control_c, 0, 64, 0
1, 166644, Control_c, 0, 64, 60
1, 166658, Control_c, 0, 64, 68
1, 166673, Control_c, 0, 64, 73
1, 166688, Control_c, 0, 64, 81
1, 166703, Control_c, 0, 64, 87
1, 166718, Control_c, 0, 64, 91
1, 166733, Control_c, 0, 64, 94
1, 166748, Control_c, 0, 64, 96
1, 166763, Control_c, 0, 64, 98
1, 166778, Control_c, 0, 64, 99
1, 166808, Control_c, 0, 64, 98
1, 166821, Note_on_c, 0, 77, 64
1, 166822, Control_c, 0, 64, 91
1, 166837, Control_c, 0, 64, 80
1, 166852, Control_c, 0, 64, 69
1, 166867, Control_c, 0, 64, 62
1, 166882, Control_c, 0, 64, 65
1, 166897, Control_c, 0, 64, 70
1, 166911, Control_c, 0, 64, 76
1, 166926, Control_c, 0, 64, 82
1, 166941, Control_c, 0, 64, 86
1, 166956, Control_c, 0, 64, 88
1, 166971, Control_c, 0, 64, 89
1, 166985, Control_c, 0, 64, 90
1, 167000, Control_c, 0, 64, 91
1, 167015, Control_c, 0, 64, 92
1, 167030, Control_c, 0, 64, 93
1, 167044, Control_c, 0, 64, 93
1, 167065, Note_off_c, 0, 77, 56
1, 167066, Note_on_c, 0, 78, 66
1, 167074, Control_c, 0, 64, 91
1, 167089, Control_c, 0, 64, 84
1, 167104, Control_c, 0, 64, 71
1, 167120, Control_c, 0, 64, 0
1, 167179, Control_c, 0, 64, 61
1, 167194, Control_c, 0, 64, 71
1, 167209, Control_c, 0, 64, 78
1, 167223, Control_c, 0, 64, 85
1, 167238, Control_c, 0, 64, 88
1, 167253, Control_c, 0, 64, 89
1, 167267, Control_c, 0, 64, 91
1, 167282, Control_c, 0, 64, 92
1, 167305, Control_c, 0, 64, 93
1, 167335, Control_c, 0, 64, 89
1, 167349, Control_c, 0, 64, 79
1, 167356, Note_off_c, 0, 78, 60
1, 167364, Control_c, 0, 64, 61
1, 167365, Note_on_c, 0, 79, 65
1, 167371, Note_off_c, 0, 74, 58
1, 167379, Control_c, 0, 64, 0
1, 167423, Control_c, 0, 64, 60
1, 167438, Control_c, 0, 64, 72
1, 167453, Control_c, 0, 64, 83
1, 167459, Note_off_c, 0, 94, 34
1, 167467, Note_off_c, 0, 79, 63
1, 167467, Control_c, 0, 64, 97
1, 167482, Control_c, 0, 64, 104
1, 167497, Control_c, 0, 64, 108
1, 167512, Control_c, 0, 64, 112
1, 167527, Control_c, 0, 64, 117
1, 167541, Control_c, 0, 64, 123
1, 167556, Control_c, 0, 64, 127
1, 167657, Note_off_c, 0, 80, 45
1, 167672, Note_on_c, 0, 94, 77
1, 167676, Note_on_c, 0, 68, 51
1, 167705, Control_c, 0, 67, 120
1, 167720, Control_c, 0, 67, 95
1, 167734, Control_c, 0, 67, 68
1, 167749, Control_c, 0, 67, 41
1, 167764, Control_c, 0, 67, 16
1, 167779, Control_c, 0, 67, 0
1, 167887, Note_off_c, 0, 68, 61
1, 167911, Note_off_c, 0, 94, 46
1, 167946, Note_on_c, 0, 80, 80
1, 167952, Note_on_c, 0, 65, 60
1, 168039, Note_off_c, 0, 65, 59
1, 168084, Note_off_c, 0, 80, 61
1, 168223, Note_on_c, 0, 81, 89
1, 168227, Note_on_c, 0, 62, 64
1, 168301, Note_off_c, 0, 81, 59
1, 168489, Note_off_c, 0, 62, 49
1, 168523, Note_on_c, 0, 82, 94
1, 168527, Note_on_c, 0, 50, 65
1, 168571, Note_off_c, 0, 82, 63
1, 168891, Control_c, 0, 64, 92
1, 168891, Note_on_c, 0, 95, 102
1, 168892, Note_on_c, 0, 83, 94
1, 168898, Note_on_c, 0, 51, 76
1, 168906, Control_c, 0, 64, 69
1, 168920, Control_c, 0, 64, 0
1, 168935, Note_off_c, 0, 50, 58
1, 168935, Control_c, 0, 64, 45
1, 168950, Control_c, 0, 64, 69
1, 168965, Control_c, 0, 64, 81
1, 168978, Note_off_c, 0, 51, 64
1, 168980, Control_c, 0, 64, 99
1, 168994, Control_c, 0, 64, 126
1, 169009, Control_c, 0, 64, 127
1, 169216, Control_c, 0, 64, 126
1, 169231, Control_c, 0, 64, 94
1, 169246, Control_c, 0, 64, 69
1, 169249, Note_on_c, 0, 40, 88
1, 169250, Note_on_c, 0, 28, 81
1, 169261, Control_c, 0, 64, 0
1, 169291, Control_c, 0, 64, 27
1, 169302, Note_off_c, 0, 28, 63
1, 169306, Control_c, 0, 64, 70
1, 169320, Control_c, 0, 64, 87
1, 169321, Note_off_c, 0, 95, 67
1, 169330, Note_off_c, 0, 83, 59
1, 169335, Control_c, 0, 64, 115
1, 169337, Note_on_c, 0, 87, 52
1, 169338, Note_off_c, 0, 40, 64
1, 169350, Control_c, 0, 64, 127
1, 169360, Note_off_c, 0, 87, 62
1, 169597, Note_on_c, 0, 67, 78
1, 169604, Note_on_c, 0, 59, 65
1, 169604, Note_on_c, 0, 64, 66
1, 169669, Note_on_c, 0, 87, 82
1, 169675, Note_on_c, 0, 75, 80
1, 169702, Note_off_c, 0, 59, 55
1, 169704, Note_off_c, 0, 67, 53
1, 169714, Note_off_c, 0, 75, 62
1, 169717, Note_off_c, 0, 87, 64
1, 169733, Note_off_c, 0, 64, 55
1, 169812, Note_on_c, 0, 64, 68
1, 169815, Note_on_c, 0, 67, 67
1, 169818, Note_on_c, 0, 83, 64
1, 169819, Note_on_c, 0, 71, 81
1, 169824, Note_on_c, 0, 59, 63
1, 169838, Note_off_c, 0, 64, 69
1, 169838, Note_off_c, 0, 67, 65
1, 169847, Note_off_c, 0, 71, 60
1, 169854, Note_off_c, 0, 59, 66
1, 169871, Note_on_c, 0, 81, 4
1, 169898, Note_off_c, 0, 83, 30
1, 169899, Note_on_c, 0, 72, 74
1, 169926, Note_off_c, 0, 81, 45
1, 169961, Note_off_c, 0, 72, 64
1, 169967, Note_on_c, 0, 71, 79
1, 169991, Note_off_c, 0, 71, 65
1, 170101, Note_on_c, 0, 35, 68
1, 170112, Note_on_c, 0, 58, 86
1, 170114, Control_c, 0, 64, 96
1, 170129, Control_c, 0, 64, 71
1, 170143, Control_c, 0, 64, 0
1, 170165, Note_off_c, 0, 35, 64
1, 170179, Note_on_c, 0, 42, 73
1, 170188, Control_c, 0, 64, 66
1, 170203, Control_c, 0, 64, 79
1, 170214, Note_off_c, 0, 58, 63
1, 170218, Control_c, 0, 64, 98
1, 170233, Control_c, 0, 64, 127
1, 170254, Note_on_c, 0, 51, 77
1, 170262, Note_off_c, 0, 42, 63
1, 170277, Note_off_c, 0, 51, 67
1, 170444, Note_on_c, 0, 84, 88
1, 170447, Note_on_c, 0, 72, 85
1, 170464, Note_on_c, 0, 58, 50
1, 170471, Note_on_c, 0, 63, 59
1, 170471, Note_on_c, 0, 66, 57
1, 170511, Note_off_c, 0, 66, 50
1, 170512, Note_off_c, 0, 58, 52
1, 170564, Note_off_c, 0, 63, 56
1, 170578, Note_off_c, 0, 84, 63
1, 170612, Note_off_c, 0, 72, 59
1, 170682, Note_on_c, 0, 58, 67
1, 170693, Note_on_c, 0, 63, 57
1, 170695, Note_on_c, 0, 66, 43
1, 170713, Note_off_c, 0, 63, 61
1, 170714, Note_off_c, 0, 58, 65
1, 170725, Note_off_c, 0, 66, 54
1, 170802, Note_on_c, 0, 72, 87
1, 170805, Note_on_c, 0, 60, 85
1, 170858, Note_off_c, 0, 60, 55
1, 170901, Note_off_c, 0, 72, 61
1, 170980, Note_on_c, 0, 40, 77
1, 170981, Control_c, 0, 64, 112
1, 170982, Note_on_c, 0, 72, 86
1, 170984, Note_on_c, 0, 28, 70
1, 170984, Note_on_c, 0, 60, 80
1, 170996, Control_c, 0, 64, 83
1, 171011, Control_c, 0, 64, 58
1, 171026, Control_c, 0, 64, 0
1, 171040, Note_off_c, 0, 28, 62
1, 171063, Control_c, 0, 64, 69
1, 171076, Note_off_c, 0, 40, 64
1, 171078, Control_c, 0, 64, 84
1, 171092, Control_c, 0, 64, 109
1, 171107, Control_c, 0, 64, 127
1, 171233, Note_on_c, 0, 47, 68
1, 171270, Note_on_c, 0, 67, 68
1, 171273, Note_on_c, 0, 64, 70
1, 171282, Note_off_c, 0, 60, 61
1, 171293, Note_off_c, 0, 72, 61
1, 171312, Note_on_c, 0, 52, 73
1, 171324, Note_off_c, 0, 64, 62
1, 171325, Note_off_c, 0, 67, 63
1, 171333, Note_off_c, 0, 47, 62
1, 171350, Note_on_c, 0, 55, 71
1, 171363, Note_off_c, 0, 52, 64
1, 171380, Note_off_c, 0, 55, 68
1, 171496, Note_on_c, 0, 64, 78
1, 171501, Note_on_c, 0, 61, 83
1, 171502, Note_on_c, 0, 73, 86
1, 171504, Note_on_c, 0, 67, 63
1, 171505, Note_on_c, 0, 59, 66
1, 171517, Note_off_c, 0, 64, 70
1, 171521, Note_off_c, 0, 67, 67
1, 171538, Note_off_c, 0, 59, 64
1, 171744, Control_c, 0, 64, 120
1, 171759, Control_c, 0, 64, 87
1, 171774, Note_on_c, 0, 45, 86
1, 171774, Control_c, 0, 64, 62
1, 171785, Note_on_c, 0, 33, 79
1, 171789, Note_off_c, 0, 61, 64
1, 171795, Control_c, 0, 64, 0
1, 171807, Note_off_c, 0, 33, 67
1, 171825, Control_c, 0, 64, 57
1, 171836, Note_off_c, 0, 45, 64
1, 171837, Note_off_c, 0, 73, 62
1, 171839, Control_c, 0, 64, 74
1, 171854, Control_c, 0, 64, 96
1, 171869, Control_c, 0, 64, 127
1, 172073, Note_on_c, 0, 61, 60
1, 172075, Note_on_c, 0, 85, 92
1, 172078, Note_on_c, 0, 64, 68
1, 172078, Note_on_c, 0, 73, 93
1, 172090, Note_on_c, 0, 66, 58
1, 172137, Note_off_c, 0, 66, 58
1, 172139, Note_off_c, 0, 64, 61
1, 172148, Note_off_c, 0, 61, 59
1, 172246, Note_on_c, 0, 65, 75
1, 172269, Note_off_c, 0, 65, 70
1, 172307, Note_off_c, 0, 73, 59
1, 172318, Note_off_c, 0, 85, 61
1, 172323, Note_on_c, 0, 64, 82
1, 172323, Note_on_c, 0, 66, 80
1, 172334, Note_on_c, 0, 61, 71
1, 172347, Note_off_c, 0, 66, 69
1, 172357, Note_off_c, 0, 64, 65
1, 172383, Note_off_c, 0, 61, 61
1, 172431, Note_on_c, 0, 83, 86
1, 172437, Note_on_c, 0, 71, 77
1, 172469, Note_off_c, 0, 71, 53
1, 172538, Poly_aftertouch_c, 0, 72, 0
1, 172547, Note_off_c, 0, 83, 58
1, 172603, Control_c, 0, 64, 115
1, 172618, Control_c, 0, 64, 87
1, 172620, Note_on_c, 0, 28, 72
1, 172624, Note_on_c, 0, 84, 91
1, 172629, Note_on_c, 0, 40, 76
1, 172631, Note_on_c, 0, 72, 82
1, 172633, Control_c, 0, 64, 57
1, 172648, Control_c, 0, 64, 0
1, 172651, Note_off_c, 0, 28, 62
1, 172662, Control_c, 0, 64, 53
1, 172670, Note_off_c, 0, 40, 66
1, 172674, Note_off_c, 0, 72, 0
1, 172677, Control_c, 0, 64, 74
1, 172690, Note_on_c, 0, 72, 31
1, 172692, Control_c, 0, 64, 90
1, 172708, Control_c, 0, 64, 116
1, 172723, Control_c, 0, 64, 127
1, 172740, Poly_aftertouch_c, 0, 29, 0
1, 172796, Note_off_c, 0, 72, 41
1, 172800, Note_on_c, 0, 48, 65
1, 172872, Note_on_c, 0, 52, 71
1, 172883, Note_off_c, 0, 48, 63
1, 172885, Note_on_c, 0, 75, 80
1, 172926, Note_off_c, 0, 52, 66
1, 172939, Note_on_c, 0, 55, 59
1, 172966, Note_off_c, 0, 55, 66
1, 172999, Note_off_c, 0, 84, 37
1, 173008, Note_on_c, 0, 76, 81
1, 173032, Note_off_c, 0, 75, 59
1, 173047, Note_on_c, 0, 60, 64
1, 173079, Note_off_c, 0, 60, 63
1, 173083, Note_on_c, 0, 64, 69
1, 173088, Note_off_c, 0, 76, 62
1, 173121, Note_off_c, 0, 64, 58
1, 173131, Note_on_c, 0, 79, 76
1, 173141, Note_on_c, 0, 67, 69
1, 173167, Note_off_c, 0, 67, 68
1, 173198, Note_off_c, 0, 79, 58
1, 173231, Note_on_c, 0, 83, 81
1, 173234, Note_on_c, 0, 71, 80
1, 173282, Note_off_c, 0, 71, 56
1, 173309, Note_off_c, 0, 83, 57
1, 173383, Control_c, 0, 64, 112
1, 173390, Note_on_c, 0, 31, 73
1, 173392, Note_on_c, 0, 70, 82
1, 173393, Note_on_c, 0, 83, 67
1, 173395, Note_on_c, 0, 43, 76
1, 173398, Control_c, 0, 64, 88
1, 173412, Control_c, 0, 64, 67
1, 173427, Control_c, 0, 64, 0
1, 173434, Note_off_c, 0, 31, 64
1, 173442, Control_c, 0, 64, 61
1, 173457, Control_c, 0, 64, 72
1, 173471, Note_off_c, 0, 43, 60
1, 173472, Control_c, 0, 64, 86
1, 173475, Note_off_c, 0, 70, 56
1, 173486, Control_c, 0, 64, 107
1, 173502, Control_c, 0, 64, 126
1, 173514, Note_on_c, 0, 71, 81
1, 173517, Control_c, 0, 64, 127
1, 173580, Note_off_c, 0, 71, 62
1, 173602, Note_off_c, 0, 83, 25
1, 173608, Note_on_c, 0, 59, 75
1, 173618, Note_on_c, 0, 76, 79
1, 173638, Note_off_c, 0, 76, 70
1, 173695, Note_on_c, 0, 64, 73
1, 173705, Note_off_c, 0, 59, 61
1, 173741, Note_on_c, 0, 67, 75
1, 173753, Note_on_c, 0, 84, 89
1, 173763, Note_off_c, 0, 64, 62
1, 173804, Note_off_c, 0, 67, 57
1, 173825, Note_on_c, 0, 71, 70
1, 173851, Note_off_c, 0, 71, 67
1, 173863, Note_on_c, 0, 88, 86
1, 173868, Note_on_c, 0, 79, 79
1, 173881, Note_off_c, 0, 84, 57
1, 173899, Note_off_c, 0, 79, 59
1, 173928, Note_off_c, 0, 88, 62
1, 173973, Note_on_c, 0, 91, 87
1, 173983, Note_on_c, 0, 83, 86
1, 174054, Note_off_c, 0, 91, 59
1, 174073, Note_off_c, 0, 83, 58
1, 174143, Note_on_c, 0, 27, 76
1, 174146, Note_on_c, 0, 39, 74
1, 174147, Control_c, 0, 64, 105
1, 174148, Note_on_c, 0, 91, 91
1, 174152, Note_on_c, 0, 79, 86
1, 174161, Control_c, 0, 64, 78
1, 174176, Control_c, 0, 64, 0
1, 174179, Note_off_c, 0, 27, 66
1, 174210, Note_off_c, 0, 39, 60
1, 174221, Control_c, 0, 64, 68
1, 174235, Control_c, 0, 64, 82
1, 174250, Control_c, 0, 64, 108
1, 174265, Control_c, 0, 64, 127
1, 174361, Note_on_c, 0, 46, 62
1, 174421, Note_on_c, 0, 87, 71
1, 174430, Note_on_c, 0, 82, 62
1, 174436, Note_on_c, 0, 51, 64
1, 174445, Note_off_c, 0, 46, 62
1, 174478, Note_on_c, 0, 55, 62
1, 174495, Note_off_c, 0, 51, 62
1, 174507, Note_off_c, 0, 55, 66
1, 174531, Note_off_c, 0, 82, 58
1, 174543, Note_off_c, 0, 87, 61
1, 174630, Note_on_c, 0, 67, 73
1, 174631, Note_on_c, 0, 58, 65
1, 174641, Note_on_c, 0, 63, 66
1, 174643, Note_on_c, 0, 82, 71
1, 174643, Note_on_c, 0, 87, 75
1, 174654, Note_off_c, 0, 67, 68
1, 174662, Note_off_c, 0, 58, 63
1, 174668, Note_off_c, 0, 63, 66
1, 174698, Note_off_c, 0, 79, 50
1, 174701, Note_off_c, 0, 91, 57
1, 174726, Note_off_c, 0, 82, 59
1, 174749, Note_off_c, 0, 87, 60
1, 174895, Control_c, 0, 64, 108
1, 174910, Note_on_c, 0, 77, 85
1, 174910, Control_c, 0, 64, 81
1, 174912, Note_on_c, 0, 89, 82
1, 174915, Note_on_c, 0, 70, 34
1, 174916, Note_on_c, 0, 65, 50
1, 174922, Note_on_c, 0, 62, 55
1, 174925, Control_c, 0, 64, 29
1, 174939, Control_c, 0, 64, 0
1, 174940, Note_off_c, 0, 65, 50
1, 174945, Note_off_c, 0, 70, 42
1, 174945, Note_off_c, 0, 62, 53
1, 174954, Control_c, 0, 64, 65
1, 174955, Note_on_c, 0, 87, 35
1, 174969, Control_c, 0, 64, 77
1, 174984, Control_c, 0, 64, 93
1, 174987, Note_off_c, 0, 87, 46
1, 174999, Control_c, 0, 64, 114
1, 175014, Control_c, 0, 64, 127
1, 175032, Note_on_c, 0, 53, 72
1, 175116, Note_off_c, 0, 53, 60
1, 175163, Note_on_c, 0, 46, 73
1, 175169, Note_on_c, 0, 86, 74
1, 175170, Note_on_c, 0, 82, 76
1, 175243, Note_off_c, 0, 82, 61
1, 175247, Note_off_c, 0, 46, 57
1, 175256, Note_on_c, 0, 41, 72
1, 175272, Note_off_c, 0, 86, 55
1, 175287, Note_off_c, 0, 41, 67
1, 175391, Note_on_c, 0, 86, 72
1, 175394, Note_off_c, 0, 89, 62
1, 175397, Note_on_c, 0, 34, 73
1, 175397, Note_on_c, 0, 82, 73
1, 175398, Note_off_c, 0, 77, 60
1, 175413, Note_off_c, 0, 86, 69
1, 175419, Note_off_c, 0, 82, 68
1, 175442, Note_off_c, 0, 34, 62
1, 175515, Note_on_c, 0, 72, 90
1, 175560, Note_off_c, 0, 72, 67
1, 175756, Note_on_c, 0, 100, 101
1, 175762, Note_on_c, 0, 45, 77
1, 175762, Control_c, 0, 64, 97
1, 175762, Note_on_c, 0, 33, 79
1, 175777, Control_c, 0, 64, 64
1, 175792, Control_c, 0, 64, 0
1, 175801, Note_off_c, 0, 33, 65
1, 175825, Note_off_c, 0, 45, 66
1, 175836, Control_c, 0, 64, 71
1, 175851, Control_c, 0, 64, 92
1, 175866, Control_c, 0, 64, 127
1, 175874, Note_off_c, 0, 100, 64
1, 176058, Note_on_c, 0, 60, 73
1, 176066, Note_on_c, 0, 57, 63
1, 176073, Note_on_c, 0, 52, 59
1, 176133, Note_off_c, 0, 60, 50
1, 176138, Note_on_c, 0, 92, 90
1, 176142, Note_on_c, 0, 80, 86
1, 176162, Note_off_c, 0, 52, 54
1, 176163, Note_off_c, 0, 80, 68
1, 176183, Note_off_c, 0, 92, 65
1, 176209, Note_off_c, 0, 57, 30
1, 176282, Note_on_c, 0, 57, 66
1, 176287, Note_on_c, 0, 88, 93
1, 176288, Note_on_c, 0, 76, 96
1, 176290, Note_on_c, 0, 60, 53
1, 176296, Note_on_c, 0, 52, 64
1, 176307, Note_off_c, 0, 57, 64
1, 176311, Note_off_c, 0, 60, 57
1, 176325, Note_off_c, 0, 52, 68
1, 176510, Control_c, 0, 64, 102
1, 176525, Control_c, 0, 64, 74
1, 176534, Note_on_c, 0, 40, 85
1, 176541, Control_c, 0, 64, 0
1, 176585, Control_c, 0, 64, 64
1, 176591, Note_off_c, 0, 40, 65
1, 176600, Control_c, 0, 64, 78
1, 176615, Control_c, 0, 64, 97
1, 176621, Note_off_c, 0, 76, 49
1, 176630, Control_c, 0, 64, 127
1, 176755, Note_on_c, 0, 51, 61
1, 176769, Note_on_c, 0, 89, 89
1, 176774, Note_on_c, 0, 77, 83
1, 176776, Note_off_c, 0, 88, 57
1, 176802, Note_on_c, 0, 56, 61
1, 176858, Note_off_c, 0, 51, 62
1, 176863, Note_on_c, 0, 59, 63
1, 176880, Note_off_c, 0, 56, 63
1, 176891, Note_off_c, 0, 59, 64
1, 176892, Note_off_c, 0, 89, 65
1, 176904, Note_off_c, 0, 77, 60
1, 177005, Note_on_c, 0, 63, 73
1, 177008, Note_on_c, 0, 68, 65
1, 177034, Note_on_c, 0, 71, 29
1, 177034, Note_off_c, 0, 68, 66
1, 177043, Note_off_c, 0, 63, 65
1, 177065, Note_off_c, 0, 71, 55
1, 177129, Note_on_c, 0, 65, 81
1, 177129, Note_on_c, 0, 77, 81
1, 177214, Note_off_c, 0, 65, 51
1, 177235, Note_off_c, 0, 77, 52
1, 177334, Control_c, 0, 67, 9
1, 177344, Note_on_c, 0, 77, 86
1, 177346, Note_on_c, 0, 45, 62
1, 177347, Note_on_c, 0, 65, 76
1, 177349, Control_c, 0, 64, 100
1, 177349, Control_c, 0, 67, 23
1, 177352, Note_on_c, 0, 33, 60
1, 177364, Control_c, 0, 64, 75
1, 177364, Control_c, 0, 67, 49
1, 177378, Control_c, 0, 64, 0
1, 177378, Control_c, 0, 67, 88
1, 177393, Control_c, 0, 67, 123
1, 177408, Control_c, 0, 67, 127
1, 177422, Note_off_c, 0, 33, 65
1, 177423, Control_c, 0, 64, 32
1, 177438, Control_c, 0, 64, 73
1, 177452, Control_c, 0, 64, 90
1, 177461, Note_off_c, 0, 45, 64
1, 177467, Control_c, 0, 64, 114
1, 177482, Control_c, 0, 64, 127
1, 177560, Note_off_c, 0, 65, 62
1, 177590, Note_off_c, 0, 77, 59
1, 177644, Note_on_c, 0, 57, 47
1, 177645, Note_on_c, 0, 60, 52
1, 177658, Note_on_c, 0, 52, 40
1, 177689, Note_off_c, 0, 60, 56
1, 177697, Note_off_c, 0, 52, 56
1, 177702, Note_off_c, 0, 57, 51
1, 177855, Note_on_c, 0, 57, 51
1, 177862, Note_on_c, 0, 78, 81
1, 177865, Note_on_c, 0, 66, 74
1, 177872, Note_on_c, 0, 60, 11
1, 177884, Note_on_c, 0, 52, 28
1, 177885, Note_off_c, 0, 57, 63
1, 177912, Note_off_c, 0, 52, 52
1, 177913, Note_off_c, 0, 60, 37
1, 178098, Control_c, 0, 64, 107
1, 178113, Control_c, 0, 64, 84
1, 178123, Note_on_c, 0, 37, 55
1, 178128, Control_c, 0, 64, 59
1, 178142, Control_c, 0, 64, 0
1, 178187, Control_c, 0, 64, 58
1, 178200, Note_off_c, 0, 66, 63
1, 178201, Control_c, 0, 64, 74
1, 178211, Note_off_c, 0, 37, 65
1, 178216, Control_c, 0, 64, 89
1, 178231, Control_c, 0, 64, 108
1, 178246, Control_c, 0, 64, 127
1, 178249, Note_off_c, 0, 78, 37
1, 178412, Note_on_c, 0, 79, 62
1, 178424, Note_on_c, 0, 64, 38
1, 178430, Note_on_c, 0, 55, 39
1, 178439, Note_on_c, 0, 58, 29
1, 178502, Note_off_c, 0, 79, 58
1, 178528, Note_on_c, 0, 76, 63
1, 178569, Note_off_c, 0, 58, 25
1, 178588, Note_off_c, 0, 64, 37
1, 178641, Note_on_c, 0, 59, 50
1, 178651, Note_on_c, 0, 71, 63
1, 178665, Note_off_c, 0, 59, 57
1, 178678, Note_off_c, 0, 76, 36
1, 178681, Note_off_c, 0, 55, 53
1, 178710, Note_off_c, 0, 71, 57
1, 178753, Note_on_c, 0, 67, 66
1, 178941, Note_off_c, 0, 67, 61
1, 178947, Note_on_c, 0, 64, 69
1, 178962, Note_on_c, 0, 48, 50
1, 178964, Control_c, 0, 64, 107
1, 178967, Note_on_c, 0, 36, 46
1, 178979, Control_c, 0, 64, 86
1, 178994, Control_c, 0, 64, 65
1, 179009, Control_c, 0, 64, 0
1, 179053, Control_c, 0, 64, 61
1, 179055, Note_off_c, 0, 48, 65
1, 179058, Note_off_c, 0, 36, 63
1, 179068, Control_c, 0, 64, 75
1, 179083, Control_c, 0, 64, 89
1, 179099, Control_c, 0, 64, 108
1, 179113, Control_c, 0, 64, 121
1, 179128, Control_c, 0, 64, 127
1, 179250, Note_on_c, 0, 60, 50
1, 179277, Note_on_c, 0, 52, 36
1, 179277, Note_on_c, 0, 55, 32
1, 179286, Note_off_c, 0, 60, 55
1, 179322, Note_off_c, 0, 55, 47
1, 179325, Note_off_c, 0, 52, 61
1, 179348, Note_off_c, 0, 64, 60
1, 179366, Note_on_c, 0, 67, 60
1, 179482, Note_off_c, 0, 67, 53
1, 179502, Note_on_c, 0, 65, 58
1, 179587, Note_off_c, 0, 65, 55
1, 179597, Note_on_c, 0, 64, 66
1, 179632, Note_off_c, 0, 64, 63
1, 179807, Note_on_c, 0, 74, 57
1, 179816, Note_on_c, 0, 65, 54
1, 179826, Note_on_c, 0, 38, 42
1, 179829, Note_on_c, 0, 50, 42
1, 179833, Control_c, 0, 64, 109
1, 179847, Control_c, 0, 64, 89
1, 179862, Control_c, 0, 64, 68
1, 179877, Control_c, 0, 64, 0
1, 179923, Control_c, 0, 64, 59
1, 179935, Note_off_c, 0, 50, 58
1, 179937, Control_c, 0, 64, 74
1, 179940, Note_off_c, 0, 38, 59
1, 179952, Control_c, 0, 64, 89
1, 179967, Control_c, 0, 64, 108
1, 179982, Control_c, 0, 64, 127
1, 180162, Note_on_c, 0, 53, 43
1, 180166, Note_on_c, 0, 62, 40
1, 180167, Note_on_c, 0, 57, 41
1, 180208, Note_off_c, 0, 62, 46
1, 180220, Note_off_c, 0, 57, 55
1, 180231, Note_off_c, 0, 53, 53
1, 180255, Note_off_c, 0, 74, 56
1, 180290, Note_on_c, 0, 77, 57
1, 180440, Note_off_c, 0, 77, 55
1, 180447, Note_on_c, 0, 76, 59
1, 180576, Note_off_c, 0, 76, 60
1, 180588, Note_on_c, 0, 74, 53
1, 180732, Note_off_c, 0, 65, 39
1, 180812, Control_c, 0, 64, 106
1, 180815, Note_on_c, 0, 72, 57
1, 180820, Note_on_c, 0, 47, 47
1, 180822, Note_on_c, 0, 35, 46
1, 180827, Control_c, 0, 64, 87
1, 180829, Note_off_c, 0, 74, 53
1, 180842, Control_c, 0, 64, 67
1, 180857, Control_c, 0, 64, 0
1, 180886, Control_c, 0, 64, 27
1, 180899, Note_off_c, 0, 47, 62
1, 180901, Note_off_c, 0, 35, 63
1, 180901, Control_c, 0, 64, 67
1, 180916, Control_c, 0, 64, 79
1, 180931, Control_c, 0, 64, 94
1, 180946, Control_c, 0, 64, 112
1, 180961, Control_c, 0, 64, 121
1, 180975, Control_c, 0, 64, 126
1, 180990, Control_c, 0, 64, 127
1, 181203, Note_on_c, 0, 63, 40
1, 181205, Note_on_c, 0, 66, 40
1, 181212, Note_on_c, 0, 58, 32
1, 181263, Note_off_c, 0, 66, 61
1, 181277, Note_off_c, 0, 63, 55
1, 181287, Note_off_c, 0, 58, 58
1, 181346, Note_on_c, 0, 76, 55
1, 181357, Note_off_c, 0, 72, 55
1, 181488, Note_off_c, 0, 76, 60
1, 181515, Note_on_c, 0, 74, 52
1, 181658, Note_off_c, 0, 74, 52
1, 181665, Note_on_c, 0, 72, 51
1, 181885, Note_off_c, 0, 72, 63
1, 181910, Note_on_c, 0, 64, 51
1, 181924, Note_on_c, 0, 40, 42
1, 181928, Note_on_c, 0, 52, 39
1, 181931, Control_c, 0, 64, 118
1, 181946, Control_c, 0, 64, 101
1, 181960, Control_c, 0, 64, 83
1, 181975, Control_c, 0, 64, 64
1, 181990, Control_c, 0, 64, 0
1, 182049, Control_c, 0, 64, 65
1, 182061, Note_off_c, 0, 40, 57
1, 182064, Control_c, 0, 64, 77
1, 182071, Note_off_c, 0, 52, 63
1, 182079, Control_c, 0, 64, 90
1, 182094, Control_c, 0, 64, 108
1, 182109, Control_c, 0, 64, 119
1, 182123, Control_c, 0, 64, 127
1, 182141, Note_off_c, 0, 64, 62
1, 182508, Note_on_c, 0, 68, 33
1, 182514, Note_on_c, 0, 59, 33
1, 182515, Note_on_c, 0, 64, 33
1, 182800, Note_off_c, 0, 64, 34
1, 182824, Note_off_c, 0, 68, 35
1, 182845, Note_off_c, 0, 59, 37
1, 183325, Control_c, 0, 64, 124
1, 183340, Control_c, 0, 64, 120
1, 183355, Control_c, 0, 64, 118
1, 183369, Control_c, 0, 64, 116
1, 183384, Control_c, 0, 64, 113
1, 183399, Control_c, 0, 64, 110
1, 183413, Control_c, 0, 64, 107
1, 183428, Control_c, 0, 64, 104
1, 183443, Control_c, 0, 64, 102
1, 183458, Control_c, 0, 64, 99
1, 183473, Control_c, 0, 64, 95
1, 183487, Control_c, 0, 64, 90
1, 183502, Control_c, 0, 64, 85
1, 183517, Control_c, 0, 64, 80
1, 183532, Control_c, 0, 64, 75
1, 183547, Control_c, 0, 64, 70
1, 183561, Control_c, 0, 64, 65
1, 183576, Control_c, 0, 64, 59
1, 183591, Control_c, 0, 64, 52
1, 183605, Control_c, 0, 64, 46
1, 183620, Control_c, 0, 64, 33
1, 183635, Control_c, 0, 64, 0
1, 183999, Control_c, 0, 64, 48
1, 184014, Control_c, 0, 64, 68
1, 184024, Note_on_c, 0, 88, 66
1, 184029, Control_c, 0, 64, 75
1, 184031, Note_on_c, 0, 76, 57
1, 184034, Note_on_c, 0, 64, 44
1, 184043, Control_c, 0, 64, 83
1, 184058, Control_c, 0, 64, 91
1, 184073, Control_c, 0, 64, 98
1, 184088, Control_c, 0, 64, 106
1, 184103, Control_c, 0, 64, 115
1, 184118, Control_c, 0, 64, 124
1, 184133, Control_c, 0, 64, 127
1, 184283, Note_on_c, 0, 67, 38
1, 184291, Note_on_c, 0, 71, 40
1, 184343, Note_off_c, 0, 71, 58
1, 184350, Note_off_c, 0, 67, 56
1, 184496, Note_on_c, 0, 67, 42
1, 184497, Note_on_c, 0, 71, 45
1, 184543, Note_off_c, 0, 76, 38
1, 184648, Note_off_c, 0, 71, 33
1, 184681, Note_off_c, 0, 64, 52
1, 184714, Note_off_c, 0, 67, 32
1, 184725, Note_on_c, 0, 77, 59
1, 184729, Note_on_c, 0, 62, 43
1, 184763, Control_c, 0, 64, 124
1, 184778, Control_c, 0, 64, 100
1, 184793, Control_c, 0, 64, 83
1, 184807, Control_c, 0, 64, 67
1, 184822, Control_c, 0, 64, 0
1, 184852, Control_c, 0, 64, 59
1, 184866, Control_c, 0, 64, 67
1, 184881, Control_c, 0, 64, 75
1, 184896, Control_c, 0, 64, 83
1, 184911, Control_c, 0, 64, 91
1, 184926, Control_c, 0, 64, 97
1, 184932, Note_on_c, 0, 67, 44
1, 184934, Note_on_c, 0, 71, 44
1, 184940, Control_c, 0, 64, 102
1, 184955, Control_c, 0, 64, 106
1, 184970, Control_c, 0, 64, 110
1, 184977, Note_off_c, 0, 71, 47
1, 184985, Control_c, 0, 64, 114
1, 184985, Note_off_c, 0, 67, 53
1, 185000, Control_c, 0, 64, 116
1, 185015, Control_c, 0, 64, 118
1, 185030, Control_c, 0, 64, 120
1, 185045, Control_c, 0, 64, 123
1, 185059, Control_c, 0, 64, 127
1, 185119, Note_on_c, 0, 67, 48
1, 185119, Note_off_c, 0, 62, 60
1, 185120, Note_on_c, 0, 71, 36
1, 185167, Note_off_c, 0, 71, 43
1, 185180, Note_off_c, 0, 67, 46
1, 185337, Note_off_c, 0, 77, 59
1, 185363, Control_c, 0, 64, 107
1, 185367, Note_on_c, 0, 78, 61
1, 185372, Note_on_c, 0, 61, 43
1, 185378, Control_c, 0, 64, 90
1, 185392, Control_c, 0, 64, 72
1, 185407, Control_c, 0, 64, 0
1, 185437, Control_c, 0, 64, 39
1, 185452, Control_c, 0, 64, 68
1, 185466, Control_c, 0, 64, 77
1, 185482, Control_c, 0, 64, 87
1, 185497, Control_c, 0, 64, 97
1, 185512, Control_c, 0, 64, 103
1, 185526, Control_c, 0, 64, 108
1, 185529, Note_off_c, 0, 88, 38
1, 185541, Control_c, 0, 64, 113
1, 185555, Control_c, 0, 64, 118
1, 185570, Control_c, 0, 64, 123
1, 185585, Control_c, 0, 64, 127
1, 185607, Note_on_c, 0, 85, 61
1, 185622, Note_on_c, 0, 66, 38
1, 185624, Note_on_c, 0, 69, 36
1, 185662, Note_off_c, 0, 66, 48
1, 185663, Note_off_c, 0, 69, 50
1, 185750, Note_off_c, 0, 85, 59
1, 185787, Note_on_c, 0, 90, 74
1, 185787, Note_off_c, 0, 61, 55
1, 185795, Note_on_c, 0, 66, 48
1, 185799, Note_on_c, 0, 69, 40
1, 185841, Note_off_c, 0, 90, 64
1, 185873, Note_off_c, 0, 66, 42
1, 185876, Note_off_c, 0, 69, 48
1, 186008, Note_off_c, 0, 78, 60
1, 186019, Note_on_c, 0, 81, 68
1, 186030, Note_on_c, 0, 59, 49
1, 186096, Control_c, 0, 64, 121
1, 186111, Control_c, 0, 64, 95
1, 186126, Control_c, 0, 64, 76
1, 186140, Control_c, 0, 64, 43
1, 186155, Control_c, 0, 64, 0
1, 186185, Control_c, 0, 64, 64
1, 186200, Control_c, 0, 64, 74
1, 186214, Control_c, 0, 64, 87
1, 186217, Note_on_c, 0, 61, 46
1, 186228, Note_on_c, 0, 76, 61
1, 186229, Control_c, 0, 64, 97
1, 186234, Note_on_c, 0, 66, 36
1, 186244, Control_c, 0, 64, 105
1, 186259, Control_c, 0, 64, 112
1, 186275, Control_c, 0, 64, 117
1, 186290, Note_off_c, 0, 66, 55
1, 186291, Control_c, 0, 64, 125
1, 186305, Control_c, 0, 64, 127
1, 186312, Note_off_c, 0, 61, 56
1, 186398, Note_off_c, 0, 59, 60
1, 186411, Note_on_c, 0, 69, 57
1, 186412, Note_on_c, 0, 66, 51
1, 186420, Note_on_c, 0, 61, 44
1, 186455, Note_off_c, 0, 66, 53
1, 186465, Note_off_c, 0, 76, 54
1, 186498, Note_off_c, 0, 69, 60
1, 186616, Note_off_c, 0, 61, 36
1, 186646, Note_on_c, 0, 57, 45
1, 186651, Note_on_c, 0, 71, 57
1, 186705, Control_c, 0, 64, 113
1, 186720, Control_c, 0, 64, 97
1, 186735, Control_c, 0, 64, 80
1, 186750, Control_c, 0, 64, 61
1, 186771, Control_c, 0, 64, 0
1, 186801, Control_c, 0, 64, 49
1, 186816, Control_c, 0, 64, 69
1, 186831, Control_c, 0, 64, 78
1, 186845, Control_c, 0, 64, 88
1, 186859, Note_on_c, 0, 59, 42
1, 186860, Note_on_c, 0, 64, 41
1, 186860, Control_c, 0, 64, 96
1, 186875, Control_c, 0, 64, 103
1, 186890, Control_c, 0, 64, 107
1, 186897, Note_off_c, 0, 64, 54
1, 186900, Note_off_c, 0, 81, 35
1, 186905, Note_off_c, 0, 59, 49
1, 186905, Control_c, 0, 64, 111
1, 186920, Control_c, 0, 64, 115
1, 186935, Control_c, 0, 64, 121
1, 186949, Control_c, 0, 64, 125
1, 186964, Control_c, 0, 64, 127
1, 187019, Note_on_c, 0, 81, 66
1, 187025, Note_on_c, 0, 64, 41
1, 187033, Note_on_c, 0, 59, 39
1, 187050, Note_off_c, 0, 57, 55
1, 187122, Note_off_c, 0, 64, 41
1, 187239, Note_off_c, 0, 59, 41
1, 187244, Note_off_c, 0, 81, 60
1, 187249, Note_on_c, 0, 76, 69
1, 187258, Note_on_c, 0, 55, 48
1, 187291, Control_c, 0, 64, 117
1, 187306, Control_c, 0, 64, 101
1, 187321, Control_c, 0, 64, 85
1, 187335, Control_c, 0, 64, 68
1, 187350, Control_c, 0, 64, 0
1, 187379, Control_c, 0, 64, 39
1, 187393, Note_off_c, 0, 71, 55
1, 187394, Control_c, 0, 64, 66
1, 187409, Control_c, 0, 64, 74
1, 187424, Control_c, 0, 64, 82
1, 187433, Note_on_c, 0, 57, 47
1, 187439, Control_c, 0, 64, 91
1, 187453, Note_on_c, 0, 64, 32
1, 187453, Control_c, 0, 64, 98
1, 187468, Control_c, 0, 64, 102
1, 187483, Control_c, 0, 64, 106
1, 187487, Note_off_c, 0, 57, 55
1, 187489, Note_off_c, 0, 64, 51
1, 187506, Control_c, 0, 64, 109
1, 187521, Control_c, 0, 64, 114
1, 187535, Control_c, 0, 64, 117
1, 187550, Control_c, 0, 64, 120
1, 187565, Control_c, 0, 64, 121
1, 187579, Control_c, 0, 64, 123
1, 187594, Control_c, 0, 64, 125
1, 187609, Control_c, 0, 64, 126
1, 187617, Note_off_c, 0, 55, 57
1, 187623, Note_on_c, 0, 64, 39
1, 187624, Control_c, 0, 64, 127
1, 187629, Note_on_c, 0, 57, 49
1, 187629, Note_on_c, 0, 72, 54
1, 187654, Note_off_c, 0, 64, 55
1, 187784, Note_off_c, 0, 57, 31
1, 187856, Note_on_c, 0, 64, 52
1, 187859, Note_on_c, 0, 53, 42
1, 187876, Control_c, 0, 64, 120
1, 187891, Control_c, 0, 64, 107
1, 187897, Note_off_c, 0, 76, 37
1, 187906, Control_c, 0, 64, 92
1, 187921, Control_c, 0, 64, 76
1, 187932, Note_off_c, 0, 72, 48
1, 187936, Control_c, 0, 64, 31
1, 187951, Control_c, 0, 64, 0
1, 187996, Control_c, 0, 64, 63
1, 188010, Control_c, 0, 64, 71
1, 188025, Control_c, 0, 64, 80
1, 188040, Control_c, 0, 64, 88
1, 188055, Control_c, 0, 64, 93
1, 188067, Note_on_c, 0, 74, 56
1, 188070, Control_c, 0, 64, 97
1, 188079, Note_on_c, 0, 59, 38
1, 188083, Note_on_c, 0, 57, 33
1, 188084, Control_c, 0, 64, 100
1, 188099, Control_c, 0, 64, 104
1, 188114, Control_c, 0, 64, 107
1, 188117, Note_off_c, 0, 57, 53
1, 188121, Note_off_c, 0, 59, 47
1, 188129, Control_c, 0, 64, 111
1, 188144, Control_c, 0, 64, 113
1, 188158, Control_c, 0, 64, 114
1, 188173, Control_c, 0, 64, 115
1, 188188, Control_c, 0, 64, 116
1, 188202, Control_c, 0, 64, 117
1, 188217, Control_c, 0, 64, 117
1, 188237, Note_on_c, 0, 57, 33
1, 188239, Note_on_c, 0, 59, 37
1, 188243, Note_on_c, 0, 72, 64
1, 188279, Note_off_c, 0, 74, 39
1, 188447, Control_c, 0, 64, 115
1, 188462, Control_c, 0, 64, 105
1, 188464, Note_on_c, 0, 71, 65
1, 188476, Control_c, 0, 64, 91
1, 188491, Control_c, 0, 64, 74
1, 188494, Note_off_c, 0, 72, 58
1, 188498, Note_off_c, 0, 59, 39
1, 188506, Note_off_c, 0, 57, 42
1, 188506, Control_c, 0, 64, 0
1, 188565, Control_c, 0, 64, 44
1, 188580, Control_c, 0, 64, 67
1, 188595, Control_c, 0, 64, 75
1, 188610, Control_c, 0, 64, 85
1, 188623, Note_on_c, 0, 57, 42
1, 188625, Control_c, 0, 64, 92
1, 188640, Note_on_c, 0, 59, 40
1, 188640, Control_c, 0, 64, 96
1, 188655, Control_c, 0, 64, 99
1, 188669, Control_c, 0, 64, 103
1, 188685, Control_c, 0, 64, 107
1, 188700, Control_c, 0, 64, 111
1, 188702, Note_off_c, 0, 57, 48
1, 188710, Note_off_c, 0, 59, 52
1, 188714, Control_c, 0, 64, 114
1, 188729, Control_c, 0, 64, 117
1, 188744, Control_c, 0, 64, 119
1, 188759, Control_c, 0, 64, 121
1, 188774, Control_c, 0, 64, 122
1, 188789, Control_c, 0, 64, 124
1, 188804, Control_c, 0, 64, 125
1, 188819, Control_c, 0, 64, 126
1, 188820, Note_off_c, 0, 71, 60
1, 188833, Control_c, 0, 64, 126
1, 188836, Note_on_c, 0, 69, 52
1, 188847, Note_on_c, 0, 57, 38
1, 188857, Note_on_c, 0, 59, 36
1, 188859, Note_off_c, 0, 69, 65
1, 188891, Note_off_c, 0, 57, 46
1, 188948, Note_off_c, 0, 59, 30
1, 188950, Note_on_c, 0, 69, 53
1, 188979, Note_off_c, 0, 53, 55
1, 189030, Note_off_c, 0, 69, 62
1, 189045, Note_on_c, 0, 74, 61
1, 189078, Control_c, 0, 64, 125
1, 189093, Control_c, 0, 64, 122
1, 189107, Control_c, 0, 64, 119
1, 189122, Control_c, 0, 64, 115
1, 189137, Control_c, 0, 64, 111
1, 189152, Control_c, 0, 64, 104
1, 189166, Control_c, 0, 64, 97
1, 189181, Control_c, 0, 64, 89
1, 189196, Control_c, 0, 64, 82
1, 189210, Note_off_c, 0, 64, 20
1, 189211, Control_c, 0, 64, 75
1, 189225, Control_c, 0, 64, 68
1, 189240, Control_c, 0, 64, 62
1, 189252, Note_on_c, 0, 72, 55
1, 189253, Note_on_c, 0, 60, 44
1, 189255, Control_c, 0, 64, 56
1, 189270, Control_c, 0, 64, 56
1, 189274, Note_off_c, 0, 74, 53
1, 189285, Control_c, 0, 64, 55
1, 189299, Control_c, 0, 64, 52
1, 189314, Control_c, 0, 64, 48
1, 189329, Control_c, 0, 64, 45
1, 189344, Control_c, 0, 64, 43
1, 189358, Control_c, 0, 64, 42
1, 189373, Control_c, 0, 64, 40
1, 189388, Control_c, 0, 64, 35
1, 189403, Control_c, 0, 64, 27
1, 189418, Control_c, 0, 64, 0
1, 189427, Note_off_c, 0, 60, 57
1, 189430, Note_off_c, 0, 72, 63
1, 189447, Note_on_c, 0, 76, 57
1, 189453, Note_on_c, 0, 64, 44
1, 189623, Note_off_c, 0, 64, 53
1, 189668, Note_on_c, 0, 59, 40
1, 189671, Note_on_c, 0, 71, 48
1, 189712, Note_off_c, 0, 76, 37
1, 189861, Note_off_c, 0, 71, 60
1, 189867, Note_off_c, 0, 59, 41
1, 189883, Note_on_c, 0, 67, 55
1, 189886, Note_on_c, 0, 55, 43
1, 190052, Note_off_c, 0, 67, 53
1, 190057, Note_off_c, 0, 55, 37
1, 190075, Note_on_c, 0, 65, 50
1, 190082, Note_on_c, 0, 53, 41
1, 190266, Note_off_c, 0, 65, 53
1, 190287, Note_off_c, 0, 53, 57
1, 190334, Note_on_c, 0, 52, 50
1, 190335, Note_on_c, 0, 76, 53
1, 190347, Note_on_c, 0, 64, 47
1, 190404, Control_c, 0, 64, 64
1, 190419, Control_c, 0, 64, 72
1, 190434, Control_c, 0, 64, 78
1, 190449, Control_c, 0, 64, 84
1, 190464, Control_c, 0, 64, 89
1, 190479, Control_c, 0, 64, 93
1, 190494, Control_c, 0, 64, 97
1, 190516, Control_c, 0, 64, 102
1, 190531, Control_c, 0, 64, 106
1, 190546, Control_c, 0, 64, 110
1, 190560, Control_c, 0, 64, 114
1, 190562, Note_on_c, 0, 55, 46
1, 190567, Note_on_c, 0, 58, 44
1, 190575, Control_c, 0, 64, 117
1, 190590, Control_c, 0, 64, 120
1, 190604, Control_c, 0, 64, 123
1, 190619, Control_c, 0, 64, 126
1, 190634, Control_c, 0, 64, 127
1, 190650, Note_on_c, 0, 59, 45
1, 190654, Note_off_c, 0, 58, 56
1, 190691, Note_off_c, 0, 55, 37
1, 190705, Note_off_c, 0, 64, 61
1, 190717, Note_on_c, 0, 67, 54
1, 190718, Note_on_c, 0, 71, 53
1, 190718, Note_off_c, 0, 52, 61
1, 190952, Note_on_c, 0, 65, 64
1, 190953, Note_off_c, 0, 59, 35
1, 190956, Note_off_c, 0, 71, 53
1, 190969, Note_on_c, 0, 50, 42
1, 190987, Note_off_c, 0, 67, 53
1, 190990, Control_c, 0, 64, 117
1, 191004, Control_c, 0, 64, 103
1, 191019, Control_c, 0, 64, 88
1, 191034, Control_c, 0, 64, 71
1, 191049, Control_c, 0, 64, 0
1, 191124, Control_c, 0, 64, 59
1, 191139, Control_c, 0, 64, 72
1, 191154, Control_c, 0, 64, 81
1, 191164, Note_on_c, 0, 59, 39
1, 191168, Control_c, 0, 64, 91
1, 191170, Note_on_c, 0, 55, 39
1, 191174, Note_on_c, 0, 71, 41
1, 191175, Note_on_c, 0, 67, 36
1, 191183, Control_c, 0, 64, 97
1, 191198, Control_c, 0, 64, 100
1, 191213, Control_c, 0, 64, 103
1, 191216, Note_off_c, 0, 55, 51
1, 191221, Note_off_c, 0, 67, 60
1, 191222, Note_off_c, 0, 59, 47
1, 191224, Note_off_c, 0, 71, 53
1, 191227, Control_c, 0, 64, 106
1, 191250, Control_c, 0, 64, 110
1, 191265, Control_c, 0, 64, 114
1, 191280, Control_c, 0, 64, 118
1, 191295, Control_c, 0, 64, 121
1, 191309, Control_c, 0, 64, 123
1, 191324, Control_c, 0, 64, 125
1, 191339, Control_c, 0, 64, 127
1, 191352, Note_on_c, 0, 67, 46
1, 191357, Note_on_c, 0, 71, 48
1, 191360, Note_on_c, 0, 55, 35
1, 191360, Note_on_c, 0, 59, 39
1, 191361, Note_off_c, 0, 50, 50
1, 191364, Note_off_c, 0, 65, 51
1, 191417, Note_off_c, 0, 59, 42
1, 191429, Note_off_c, 0, 55, 45
1, 191584, Note_off_c, 0, 67, 53
1, 191591, Note_off_c, 0, 71, 33
1, 191610, Note_on_c, 0, 66, 62
1, 191637, Note_on_c, 0, 49, 42
1, 191650, Control_c, 0, 64, 111
1, 191665, Control_c, 0, 64, 92
1, 191679, Note_off_c, 0, 76, 40
1, 191680, Control_c, 0, 64, 74
1, 191695, Control_c, 0, 64, 0
1, 191753, Control_c, 0, 64, 43
1, 191768, Control_c, 0, 64, 68
1, 191783, Control_c, 0, 64, 78
1, 191798, Control_c, 0, 64, 89
1, 191813, Control_c, 0, 64, 98
1, 191827, Control_c, 0, 64, 103
1, 191842, Control_c, 0, 64, 107
1, 191857, Control_c, 0, 64, 114
1, 191872, Note_on_c, 0, 73, 68
1, 191873, Control_c, 0, 64, 119
1, 191874, Note_on_c, 0, 54, 41
1, 191888, Control_c, 0, 64, 126
1, 191889, Note_on_c, 0, 57, 37
1, 191903, Control_c, 0, 64, 127
1, 191928, Note_off_c, 0, 49, 39
1, 191939, Note_off_c, 0, 57, 60
1, 191959, Note_off_c, 0, 54, 57
1, 192026, Note_off_c, 0, 73, 59
1, 192086, Note_on_c, 0, 78, 71
1, 192104, Note_on_c, 0, 61, 48
1, 192121, Note_on_c, 0, 64, 9
1, 192127, Note_off_c, 0, 61, 59
1, 192142, Note_off_c, 0, 78, 63
1, 192164, Note_off_c, 0, 64, 37
1, 192332, Note_on_c, 0, 69, 67
1, 192332, Note_off_c, 0, 66, 65
1, 192348, Note_on_c, 0, 47, 52
1, 192428, Control_c, 0, 64, 105
1, 192443, Control_c, 0, 64, 87
1, 192458, Control_c, 0, 64, 68
1, 192473, Control_c, 0, 64, 0
1, 192517, Control_c, 0, 64, 54
1, 192532, Control_c, 0, 64, 70
1, 192542, Note_on_c, 0, 64, 50
1, 192547, Control_c, 0, 64, 80
1, 192552, Note_on_c, 0, 49, 36
1, 192562, Control_c, 0, 64, 91
1, 192565, Note_on_c, 0, 54, 28
1, 192576, Control_c, 0, 64, 100
1, 192591, Control_c, 0, 64, 105
1, 192606, Control_c, 0, 64, 109
1, 192610, Note_off_c, 0, 54, 45
1, 192621, Control_c, 0, 64, 115
1, 192636, Control_c, 0, 64, 119
1, 192650, Control_c, 0, 64, 124
1, 192665, Control_c, 0, 64, 127
1, 192672, Note_off_c, 0, 49, 35
1, 192738, Note_on_c, 0, 57, 53
1, 192751, Note_on_c, 0, 49, 34
1, 192753, Note_on_c, 0, 54, 35
1, 192756, Note_off_c, 0, 47, 40
1, 192805, Note_off_c, 0, 54, 43
1, 192825, Note_off_c, 0, 57, 58
1, 192843, Note_off_c, 0, 64, 33
1, 192983, Note_off_c, 0, 49, 37
1, 192998, Note_on_c, 0, 59, 53
1, 193011, Note_on_c, 0, 45, 41
1, 193015, Control_c, 0, 64, 125
1, 193030, Control_c, 0, 64, 114
1, 193045, Control_c, 0, 64, 100
1, 193060, Control_c, 0, 64, 85
1, 193074, Control_c, 0, 64, 67
1, 193089, Control_c, 0, 64, 0
1, 193133, Control_c, 0, 64, 60
1, 193148, Control_c, 0, 64, 70
1, 193162, Note_off_c, 0, 59, 60
1, 193163, Control_c, 0, 64, 78
1, 193178, Control_c, 0, 64, 89
1, 193192, Control_c, 0, 64, 98
1, 193200, Note_off_c, 0, 69, 64
1, 193207, Control_c, 0, 64, 102
1, 193211, Note_on_c, 0, 47, 46
1, 193222, Control_c, 0, 64, 106
1, 193229, Note_on_c, 0, 52, 44
1, 193237, Control_c, 0, 64, 109
1, 193252, Control_c, 0, 64, 113
1, 193266, Control_c, 0, 64, 115
1, 193281, Control_c, 0, 64, 117
1, 193296, Control_c, 0, 64, 118
1, 193311, Control_c, 0, 64, 119
1, 193326, Control_c, 0, 64, 120
1, 193402, Note_off_c, 0, 45, 42
1, 193406, Note_on_c, 0, 72, 64
1, 193546, Note_off_c, 0, 52, 28
1, 193549, Note_on_c, 0, 60, 66
1, 193579, Note_off_c, 0, 60, 66
1, 193674, Note_off_c, 0, 72, 61
1, 193679, Note_on_c, 0, 43, 44
1, 193680, Note_on_c, 0, 76, 65
1, 193690, Control_c, 0, 64, 117
1, 193698, Note_off_c, 0, 47, 42
1, 193704, Control_c, 0, 64, 105
1, 193719, Control_c, 0, 64, 88
1, 193734, Control_c, 0, 64, 68
1, 193749, Control_c, 0, 64, 0
1, 193822, Control_c, 0, 64, 64
1, 193837, Control_c, 0, 64, 73
1, 193852, Control_c, 0, 64, 83
1, 193867, Control_c, 0, 64, 94
1, 193882, Control_c, 0, 64, 101
1, 193896, Control_c, 0, 64, 106
1, 193911, Control_c, 0, 64, 111
1, 193926, Control_c, 0, 64, 117
1, 193941, Control_c, 0, 64, 125
1, 193954, Note_off_c, 0, 76, 61
1, 193955, Control_c, 0, 64, 127
1, 193972, Note_on_c, 0, 81, 63
1, 193989, Note_on_c, 0, 45, 34
1, 194007, Note_on_c, 0, 52, 42
1, 194030, Note_off_c, 0, 81, 60
1, 194174, Note_off_c, 0, 52, 36
1, 194175, Note_off_c, 0, 43, 39
1, 194263, Note_off_c, 0, 45, 43
1, 194287, Note_on_c, 0, 62, 60
1, 194364, Note_off_c, 0, 62, 55
1, 194646, Note_on_c, 0, 64, 58
1, 194660, Control_c, 0, 64, 114
1, 194664, Note_on_c, 0, 29, 45
1, 194667, Note_on_c, 0, 41, 45
1, 194675, Control_c, 0, 64, 96
1, 194690, Control_c, 0, 64, 78
1, 194705, Control_c, 0, 64, 49
1, 194719, Control_c, 0, 64, 0
1, 194764, Control_c, 0, 64, 26
1, 194778, Control_c, 0, 64, 70
1, 194784, Note_off_c, 0, 64, 64
1, 194793, Control_c, 0, 64, 82
1, 194808, Control_c, 0, 64, 96
1, 194823, Control_c, 0, 64, 109
1, 194837, Control_c, 0, 64, 116
1, 194852, Control_c, 0, 64, 121
1, 194867, Control_c, 0, 64, 127
1, 195147, Note_off_c, 0, 29, 40
1, 195156, Note_off_c, 0, 41, 44
1, 195189, Note_on_c, 0, 88, 68
1, 195573, Note_on_c, 0, 66, 42
1, 195576, Note_on_c, 0, 61, 37
1, 195585, Note_on_c, 0, 58, 38
1, 195625, Note_off_c, 0, 66, 57
1, 195634, Note_off_c, 0, 61, 56
1, 195637, Note_off_c, 0, 58, 59
1, 195922, Note_on_c, 0, 61, 42
1, 195924, Note_on_c, 0, 66, 41
1, 195934, Note_on_c, 0, 58, 35
1, 195958, Note_off_c, 0, 61, 61
1, 195963, Note_off_c, 0, 66, 55
1, 195964, Note_off_c, 0, 58, 54
1, 196391, Note_on_c, 0, 78, 41
1, 196401, Note_on_c, 0, 73, 38
1, 196405, Note_on_c, 0, 70, 40
1, 196459, Note_off_c, 0, 78, 0
1, 196459, Note_on_c, 0, 78, 3
1, 196539, Note_off_c, 0, 88, 30
1, 196828, Note_on_c, 0, 86, 51
1, 196876, Note_off_c, 0, 86, 58
1, 196961, Note_on_c, 0, 85, 51
1, 197023, Note_off_c, 0, 85, 48
1, 197046, Note_off_c, 0, 78, 32
1, 197094, Note_on_c, 0, 84, 51
1, 197156, Note_off_c, 0, 84, 49
1, 197201, Note_on_c, 0, 82, 58
1, 197231, Note_off_c, 0, 82, 64
1, 197311, Note_off_c, 0, 73, 35
1, 197336, Note_on_c, 0, 81, 61
1, 197365, Note_off_c, 0, 70, 29
1, 197392, Note_off_c, 0, 81, 45
1, 197433, Note_on_c, 0, 80, 60
1, 197475, Note_off_c, 0, 80, 59
1, 197540, Note_on_c, 0, 79, 56
1, 197567, Note_off_c, 0, 79, 58
1, 197632, Note_on_c, 0, 78, 60
1, 197651, Note_off_c, 0, 78, 65
1, 197811, Poly_aftertouch_c, 0, 74, 127
1, 197895, Poly_aftertouch_c, 0, 74, 0
1, 197941, Note_on_c, 0, 73, 61
1, 197980, Note_off_c, 0, 73, 60
1, 198047, Note_on_c, 0, 72, 54
1, 198065, Note_off_c, 0, 72, 64
1, 198146, Note_on_c, 0, 69, 56
1, 198203, Note_off_c, 0, 69, 58
1, 198235, Note_on_c, 0, 68, 56
1, 198280, Note_off_c, 0, 68, 60
1, 198338, Note_on_c, 0, 67, 57
1, 198364, Note_off_c, 0, 67, 61
1, 198425, Note_on_c, 0, 66, 58
1, 198444, Note_off_c, 0, 66, 62
1, 198533, Note_on_c, 0, 63, 54
1, 198610, Note_off_c, 0, 63, 55
1, 198616, Note_on_c, 0, 62, 55
1, 198677, Note_off_c, 0, 62, 46
1, 198715, Note_on_c, 0, 61, 56
1, 198758, Note_off_c, 0, 61, 62
1, 198809, Note_on_c, 0, 60, 55
1, 198841, Note_off_c, 0, 60, 63
1, 198933, Note_on_c, 0, 57, 39
1, 198997, Note_off_c, 0, 57, 41
1, 199098, Poly_aftertouch_c, 0, 55, 127
1, 199131, Poly_aftertouch_c, 0, 55, 0
1, 199240, Note_on_c, 0, 54, 58
1, 199536, Note_off_c, 0, 54, 54
1, 199567, Note_on_c, 0, 53, 62
1, 199752, Control_c, 0, 64, 106
1, 199767, Control_c, 0, 64, 89
1, 199782, Control_c, 0, 64, 69
1, 199797, Control_c, 0, 64, 0
1, 199897, Note_on_c, 0, 61, 40
1, 199902, Note_on_c, 0, 58, 45
1, 199902, Control_c, 0, 64, 32
1, 199916, Control_c, 0, 64, 68
1, 199931, Control_c, 0, 64, 79
1, 199946, Control_c, 0, 64, 92
1, 199961, Control_c, 0, 64, 102
1, 199976, Control_c, 0, 64, 109
1, 199990, Control_c, 0, 64, 113
1, 200005, Control_c, 0, 64, 118
1, 200020, Control_c, 0, 64, 125
1, 200034, Note_off_c, 0, 61, 58
1, 200035, Control_c, 0, 64, 127
1, 200036, Note_off_c, 0, 58, 57
1, 200074, Note_off_c, 0, 53, 62
1, 200101, Note_on_c, 0, 52, 63
1, 200259, Note_off_c, 0, 52, 60
1, 200318, Note_on_c, 0, 64, 61
1, 200368, Control_c, 0, 64, 115
1, 200383, Control_c, 0, 64, 97
1, 200397, Control_c, 0, 64, 80
1, 200412, Control_c, 0, 64, 62
1, 200427, Control_c, 0, 64, 0
1, 200471, Control_c, 0, 64, 64
1, 200486, Control_c, 0, 64, 72
1, 200491, Note_off_c, 0, 64, 64
1, 200501, Control_c, 0, 64, 80
1, 200516, Control_c, 0, 64, 89
1, 200529, Note_on_c, 0, 61, 43
1, 200530, Control_c, 0, 64, 98
1, 200533, Note_on_c, 0, 70, 46
1, 200545, Control_c, 0, 64, 105
1, 200549, Note_on_c, 0, 66, 41
1, 200560, Control_c, 0, 64, 113
1, 200575, Control_c, 0, 64, 121
1, 200590, Control_c, 0, 64, 127
1, 200729, Note_off_c, 0, 61, 52
1, 200732, Note_off_c, 0, 70, 55
1, 200742, Note_on_c, 0, 76, 61
1, 200795, Note_off_c, 0, 66, 59
1, 200957, Note_on_c, 0, 73, 62
1, 200965, Note_off_c, 0, 76, 47
1, 201130, Note_off_c, 0, 73, 61
1, 201156, Note_on_c, 0, 74, 61
1, 201329, Note_on_c, 0, 75, 61
1, 201343, Note_off_c, 0, 74, 39
1, 201467, Note_off_c, 0, 75, 61
1, 201517, Note_on_c, 0, 76, 59
1, 201640, Note_on_c, 0, 70, 50
1, 201703, Note_on_c, 0, 73, 44
1, 201822, Note_off_c, 0, 76, 56
1, 201823, Note_on_c, 0, 78, 47
1, 201834, Note_on_c, 0, 81, 57
1, 201836, Control_c, 0, 64, 107
1, 201851, Control_c, 0, 64, 88
1, 201866, Control_c, 0, 64, 69
1, 201881, Control_c, 0, 64, 0
1, 201925, Control_c, 0, 64, 64
1, 201940, Control_c, 0, 64, 73
1, 201955, Control_c, 0, 64, 82
1, 201966, Note_off_c, 0, 78, 56
1, 201969, Control_c, 0, 64, 93
1, 201970, Note_off_c, 0, 81, 53
1, 201984, Control_c, 0, 64, 101
1, 201999, Control_c, 0, 64, 108
1, 202003, Note_off_c, 0, 73, 58
1, 202014, Control_c, 0, 64, 113
1, 202026, Note_off_c, 0, 70, 50
1, 202029, Control_c, 0, 64, 118
1, 202043, Control_c, 0, 64, 124
1, 202058, Control_c, 0, 64, 127
1, 202197, Note_on_c, 0, 78, 55
1, 202422, Note_on_c, 0, 73, 54
1, 202436, Note_off_c, 0, 78, 57
1, 202598, Note_off_c, 0, 73, 62
1, 202624, Note_on_c, 0, 74, 55
1, 202792, Note_off_c, 0, 74, 59
1, 202805, Note_on_c, 0, 75, 57
1, 203045, Control_c, 0, 64, 125
1, 203050, Note_off_c, 0, 75, 57
1, 203061, Control_c, 0, 64, 110
1, 203066, Note_on_c, 0, 76, 58
1, 203075, Control_c, 0, 64, 96
1, 203090, Control_c, 0, 64, 81
1, 203105, Control_c, 0, 64, 64
1, 203120, Control_c, 0, 64, 0
1, 203208, Control_c, 0, 64, 50
1, 203231, Control_c, 0, 64, 70
1, 203246, Control_c, 0, 64, 81
1, 203261, Control_c, 0, 64, 93
1, 203276, Control_c, 0, 64, 101
1, 203290, Control_c, 0, 64, 108
1, 203305, Control_c, 0, 64, 113
1, 203320, Control_c, 0, 64, 117
1, 203334, Control_c, 0, 64, 127
1, 203451, Note_off_c, 0, 76, 30
1, 203750, Note_on_c, 0, 76, 50
1, 204428, Note_on_c, 0, 88, 57
1, 204430, Note_off_c, 0, 76, 31
1, 204737, Note_off_c, 0, 88, 36
1, 204743, Note_on_c, 0, 76, 54
1, 204946, Note_on_c, 0, 64, 46
1, 205135, Note_off_c, 0, 64, 58
1, 205148, Note_on_c, 0, 63, 51
1, 205196, Note_off_c, 0, 76, 57
1, 205346, Note_on_c, 0, 76, 51
1, 205455, Note_off_c, 0, 63, 52
1, 205538, Note_on_c, 0, 61, 48
1, 205562, Note_off_c, 0, 61, 60
1, 205845, Note_on_c, 0, 74, 43
1, 205851, Note_on_c, 0, 58, 38
1, 205854, Note_on_c, 0, 70, 44
1, 205857, Note_on_c, 0, 65, 37
1, 205862, Control_c, 0, 64, 116
1, 205866, Note_on_c, 0, 62, 39
1, 205874, Note_on_c, 0, 53, 33
1, 205877, Control_c, 0, 64, 94
1, 205892, Control_c, 0, 64, 73
1, 205907, Control_c, 0, 64, 0
1, 205951, Control_c, 0, 64, 60
1, 205966, Control_c, 0, 64, 73
1, 205981, Control_c, 0, 64, 85
1, 205989, Note_off_c, 0, 62, 61
1, 205995, Control_c, 0, 64, 99
1, 206010, Control_c, 0, 64, 112
1, 206011, Note_off_c, 0, 58, 64
1, 206023, Note_off_c, 0, 53, 58
1, 206025, Control_c, 0, 64, 121
1, 206037, Note_off_c, 0, 65, 56
1, 206040, Control_c, 0, 64, 127
1, 206042, Note_off_c, 0, 70, 59
1, 206067, Note_off_c, 0, 74, 58
1, 206318, Note_on_c, 0, 34, 39
1, 206321, Note_on_c, 0, 65, 41
1, 206325, Note_on_c, 0, 41, 42
1, 206329, Note_on_c, 0, 74, 40
1, 206330, Note_on_c, 0, 70, 39
1, 206363, Note_off_c, 0, 34, 63
1, 206367, Note_off_c, 0, 41, 63
1, 206367, Note_off_c, 0, 70, 47
1, 206374, Note_off_c, 0, 65, 46
1, 206381, Note_off_c, 0, 74, 55
1, 206643, Note_on_c, 0, 74, 38
1, 206648, Note_on_c, 0, 70, 42
1, 206652, Note_on_c, 0, 65, 40
1, 206665, Note_on_c, 0, 62, 34
1, 206669, Note_on_c, 0, 58, 24
1, 206674, Note_on_c, 0, 53, 24
1, 206675, Note_off_c, 0, 76, 31
1, 206752, Note_off_c, 0, 74, 58
1, 206755, Note_off_c, 0, 65, 57
1, 206767, Note_off_c, 0, 70, 62
1, 207187, Note_on_c, 0, 88, 68
1, 207378, Note_off_c, 0, 62, 41
1, 207390, Note_off_c, 0, 53, 42
1, 207418, Note_off_c, 0, 58, 44
1, 207673, Note_off_c, 0, 88, 50
1, 207702, Note_on_c, 0, 76, 56
1, 207917, Control_c, 0, 64, 117
1, 207931, Control_c, 0, 64, 91
1, 207946, Control_c, 0, 64, 70
1, 207956, Note_on_c, 0, 32, 44
1, 207956, Note_on_c, 0, 44, 45
1, 207961, Control_c, 0, 64, 0
1, 208004, Control_c, 0, 64, 62
1, 208017, Note_off_c, 0, 32, 64
1, 208019, Control_c, 0, 64, 76
1, 208030, Note_off_c, 0, 44, 63
1, 208034, Control_c, 0, 64, 90
1, 208049, Control_c, 0, 64, 106
1, 208064, Control_c, 0, 64, 123
1, 208078, Control_c, 0, 64, 127
1, 208337, Note_on_c, 0, 75, 46
1, 208346, Note_on_c, 0, 72, 44
1, 208355, Note_on_c, 0, 60, 33
1, 208357, Note_on_c, 0, 56, 35
1, 208362, Note_on_c, 0, 68, 40
1, 208364, Note_on_c, 0, 63, 32
1, 208412, Note_off_c, 0, 76, 55
1, 208430, Note_off_c, 0, 68, 60
1, 208445, Note_off_c, 0, 72, 63
1, 208475, Note_off_c, 0, 75, 63
1, 208853, Note_on_c, 0, 88, 66
1, 209010, Note_off_c, 0, 63, 42
1, 209026, Note_off_c, 0, 60, 37
1, 209051, Note_off_c, 0, 56, 38
1, 209303, Note_off_c, 0, 88, 50
1, 209350, Note_on_c, 0, 76, 50
1, 209562, Control_c, 0, 64, 103
1, 209576, Control_c, 0, 64, 83
1, 209577, Note_on_c, 0, 30, 51
1, 209582, Note_on_c, 0, 42, 47
1, 209591, Control_c, 0, 64, 62
1, 209606, Control_c, 0, 64, 0
1, 209636, Control_c, 0, 64, 63
1, 209639, Note_off_c, 0, 30, 63
1, 209649, Note_off_c, 0, 42, 63
1, 209650, Control_c, 0, 64, 76
1, 209665, Control_c, 0, 64, 88
1, 209680, Control_c, 0, 64, 100
1, 209694, Control_c, 0, 64, 108
1, 209709, Control_c, 0, 64, 116
1, 209724, Control_c, 0, 64, 126
1, 209739, Control_c, 0, 64, 127
1, 209992, Note_on_c, 0, 81, 45
1, 209998, Note_on_c, 0, 78, 46
1, 209999, Note_on_c, 0, 66, 36
1, 210000, Note_on_c, 0, 57, 34
1, 210003, Note_on_c, 0, 61, 36
1, 210019, Note_on_c, 0, 73, 39
1, 210063, Note_off_c, 0, 76, 36
1, 210091, Note_off_c, 0, 73, 55
1, 210099, Note_off_c, 0, 81, 59
1, 210109, Note_off_c, 0, 78, 62
1, 210511, Note_on_c, 0, 88, 62
1, 210543, Note_off_c, 0, 66, 51
1, 210570, Note_off_c, 0, 61, 48
1, 210594, Note_off_c, 0, 57, 40
1, 210925, Note_off_c, 0, 88, 35
1, 210949, Note_on_c, 0, 76, 58
1, 211177, Control_c, 0, 64, 108
1, 211189, Note_on_c, 0, 41, 48
1, 211192, Control_c, 0, 64, 84
1, 211194, Note_on_c, 0, 29, 47
1, 211207, Control_c, 0, 64, 64
1, 211221, Control_c, 0, 64, 0
1, 211236, Control_c, 0, 64, 32
1, 211251, Control_c, 0, 64, 68
1, 211266, Note_off_c, 0, 29, 61
1, 211266, Control_c, 0, 64, 78
1, 211271, Note_off_c, 0, 41, 63
1, 211281, Control_c, 0, 64, 91
1, 211295, Control_c, 0, 64, 100
1, 211310, Control_c, 0, 64, 106
1, 211325, Control_c, 0, 64, 112
1, 211339, Control_c, 0, 64, 122
1, 211354, Control_c, 0, 64, 127
1, 211509, Note_off_c, 0, 76, 49
1, 211588, Note_on_c, 0, 83, 52
1, 211600, Note_on_c, 0, 74, 40
1, 211605, Note_on_c, 0, 79, 47
1, 211606, Note_on_c, 0, 71, 37
1, 211611, Note_on_c, 0, 67, 36
1, 211616, Note_on_c, 0, 62, 30
1, 211631, Note_on_c, 0, 59, 31
1, 211727, Note_off_c, 0, 71, 59
1, 211751, Note_off_c, 0, 74, 63
1, 211754, Note_off_c, 0, 83, 54
1, 211768, Note_off_c, 0, 79, 61
1, 212141, Note_on_c, 0, 88, 63
1, 212288, Note_off_c, 0, 67, 36
1, 212307, Note_off_c, 0, 59, 38
1, 212346, Note_off_c, 0, 62, 38
1, 212725, Note_on_c, 0, 76, 52
1, 212729, Note_off_c, 0, 88, 34
1, 213092, Note_on_c, 0, 40, 46
1, 213098, Control_c, 0, 64, 118
1, 213098, Note_on_c, 0, 28, 43
1, 213113, Control_c, 0, 64, 100
1, 213127, Control_c, 0, 64, 82
1, 213142, Control_c, 0, 64, 60
1, 213157, Control_c, 0, 64, 0
1, 213216, Control_c, 0, 64, 59
1, 213231, Control_c, 0, 64, 73
1, 213238, Note_off_c, 0, 28, 56
1, 213245, Control_c, 0, 64, 85
1, 213260, Control_c, 0, 64, 100
1, 213261, Note_off_c, 0, 40, 51
1, 213275, Control_c, 0, 64, 111
1, 213290, Control_c, 0, 64, 120
1, 213305, Control_c, 0, 64, 127
1, 213928, Note_on_c, 0, 88, 66
1, 213933, Note_on_c, 0, 64, 42
1, 213940, Note_on_c, 0, 59, 40
1, 213940, Note_on_c, 0, 68, 42
1, 213945, Note_on_c, 0, 83, 52
1, 213945, Note_on_c, 0, 80, 52
1, 214928, Note_off_c, 0, 64, 36
1, 214943, Note_off_c, 0, 68, 50
1, 214952, Note_on_c, 0, 67, 39
1, 214958, Note_off_c, 0, 59, 39
1, 215154, Note_off_c, 0, 67, 59
1, 215200, Note_on_c, 0, 68, 40
1, 215217, Note_on_c, 0, 59, 36
1, 215229, Note_on_c, 0, 64, 31
1, 215349, Note_off_c, 0, 68, 63
1, 215372, Note_off_c, 0, 64, 53
1, 215402, Note_off_c, 0, 59, 51
1, 215661, Note_on_c, 0, 52, 52
1, 216180, Note_on_c, 0, 46, 53
1, 216223, Note_off_c, 0, 46, 59
1, 216428, Note_on_c, 0, 56, 44
1, 216447, Note_on_c, 0, 47, 43
1, 216449, Control_c, 0, 64, 118
1, 216463, Control_c, 0, 64, 97
1, 216478, Control_c, 0, 64, 80
1, 216493, Control_c, 0, 64, 64
1, 216508, Control_c, 0, 64, 0
1, 216523, Control_c, 0, 64, 49
1, 216537, Control_c, 0, 64, 66
1, 216552, Control_c, 0, 64, 75
1, 216567, Control_c, 0, 64, 84
1, 216582, Control_c, 0, 64, 93
1, 216597, Control_c, 0, 64, 101
1, 216611, Control_c, 0, 64, 110
1, 216612, Note_off_c, 0, 56, 62
1, 216626, Control_c, 0, 64, 121
1, 216634, Note_off_c, 0, 52, 56
1, 216642, Control_c, 0, 64, 127
1, 216917, Note_off_c, 0, 47, 39
1, 216921, Note_on_c, 0, 40, 46
1, 217662, Note_on_c, 0, 44, 36
1, 217675, Note_on_c, 0, 35, 30
1, 217759, Note_off_c, 0, 44, 56
1, 217775, Note_off_c, 0, 40, 43
1, 218226, Note_off_c, 0, 35, 31
1, 218246, Note_on_c, 0, 28, 40
1, 219000, Note_off_c, 0, 83, 20
1, 219093, Note_off_c, 0, 28, 39
1, 219115, Note_off_c, 0, 80, 33
1, 219142, Note_off_c, 0, 76, 31
1, 220312, Note_on_c, 0, 76, 50
1, 220332, Note_on_c, 0, 64, 36
1, 221993, Control_c, 0, 64, 123
1, 222007, Control_c, 0, 64, 119
1, 222022, Control_c, 0, 64, 115
1, 222037, Control_c, 0, 64, 112
1, 222052, Control_c, 0, 64, 110
1, 222067, Control_c, 0, 64, 107
1, 222081, Control_c, 0, 64, 105
1, 222096, Control_c, 0, 64, 101
1, 222111, Control_c, 0, 64, 98
1, 222126, Control_c, 0, 64, 96
1, 222141, Control_c, 0, 64, 93
1, 222155, Control_c, 0, 64, 89
1, 222170, Control_c, 0, 64, 86
1, 222185, Control_c, 0, 64, 84
1, 222199, Control_c, 0, 64, 82
1, 222215, Control_c, 0, 64, 80
1, 222231, Control_c, 0, 64, 77
1, 222246, Control_c, 0, 64, 73
1, 222261, Control_c, 0, 64, 69
1, 222276, Control_c, 0, 64, 67
1, 222291, Control_c, 0, 64, 65
1, 222305, Control_c, 0, 64, 65
1, 222320, Control_c, 0, 64, 63
1, 222335, Control_c, 0, 64, 59
1, 222350, Control_c, 0, 64, 52
1, 222365, Control_c, 0, 64, 46
1, 222379, Control_c, 0, 64, 38
1, 222394, Control_c, 0, 64, 0
1, 222646, Control_c, 0, 64, 38
1, 222661, Control_c, 0, 64, 64
1, 222676, Control_c, 0, 64, 68
1, 222691, Control_c, 0, 64, 71
1, 222712, Control_c, 0, 64, 76
1, 222727, Control_c, 0, 64, 81
1, 222742, Control_c, 0, 64, 85
1, 222757, Control_c, 0, 64, 89
1, 222772, Control_c, 0, 64, 92
1, 222786, Control_c, 0, 64, 95
1, 222801, Control_c, 0, 64, 99
1, 222816, Control_c, 0, 64, 103
1, 222831, Control_c, 0, 64, 107
1, 222846, Control_c, 0, 64, 112
1, 222860, Control_c, 0, 64, 118
1, 222875, Control_c, 0, 64, 123
1, 222890, Control_c, 0, 64, 127
1, 223491, Control_c, 0, 64, 125
1, 223506, Control_c, 0, 64, 124
1, 223521, Control_c, 0, 64, 122
1, 223535, Control_c, 0, 64, 121
1, 223550, Control_c, 0, 64, 120
1, 223565, Control_c, 0, 64, 119
1, 223580, Control_c, 0, 64, 117
1, 223588, Note_off_c, 0, 64, 24
1, 223595, Control_c, 0, 64, 117
1, 223609, Control_c, 0, 64, 115
1, 223624, Control_c, 0, 64, 114
1, 223639, Control_c, 0, 64, 112
1, 223653, Control_c, 0, 64, 111
1, 223668, Control_c, 0, 64, 110
1, 223683, Control_c, 0, 64, 109
1, 223698, Control_c, 0, 64, 108
1, 223713, Control_c, 0, 64, 106
1, 223724, Note_off_c, 0, 76, 18
1, 223728, Control_c, 0, 64, 105
1, 223743, Control_c, 0, 64, 104
1, 223758, Control_c, 0, 64, 103
1, 223772, Control_c, 0, 64, 102
1, 223787, Control_c, 0, 64, 102
1, 223802, Control_c, 0, 64, 100
1, 223817, Control_c, 0, 64, 98
1, 223832, Control_c, 0, 64, 98
1, 223838, Note_off_c, 0, 88, 20
1, 223847, Control_c, 0, 64, 97
1, 223862, Control_c, 0, 64, 97
1, 223877, Control_c, 0, 64, 96
1, 223892, Control_c, 0, 64, 95
1, 223907, Control_c, 0, 64, 94
1, 223922, Control_c, 0, 64, 93
1, 223951, Control_c, 0, 64, 93
1, 223981, Control_c, 0, 64, 92
1, 223996, Control_c, 0, 64, 91
1, 224011, Control_c, 0, 64, 91
1, 224025, Control_c, 0, 64, 90
1, 224055, Control_c, 0, 64, 90
1, 224069, Control_c, 0, 64, 89
1, 224084, Control_c, 0, 64, 88
1, 224099, Control_c, 0, 64, 87
1, 224114, Control_c, 0, 64, 85
1, 224129, Control_c, 0, 64, 82
1, 224143, Control_c, 0, 64, 80
1, 224158, Control_c, 0, 64, 77
1, 224173, Control_c, 0, 64, 75
1, 224173, Control_c, 0, 67, 125
1, 224188, Control_c, 0, 64, 72
1, 224188, Control_c, 0, 67, 121
1, 224211, Control_c, 0, 64, 71
1, 224211, Control_c, 0, 67, 117
1, 224225, Control_c, 0, 64, 69
1, 224225, Control_c, 0, 67, 112
1, 224240, Control_c, 0, 64, 68
1, 224240, Control_c, 0, 67, 105
1, 224255, Control_c, 0, 64, 66
1, 224255, Control_c, 0, 67, 100
1, 224270, Control_c, 0, 64, 65
1, 224270, Control_c, 0, 67, 94
1, 224284, Control_c, 0, 64, 65
1, 224284, Control_c, 0, 67, 90
1, 224299, Control_c, 0, 64, 64
1, 224299, Control_c, 0, 67, 86
1, 224314, Control_c, 0, 64, 62
1, 224314, Control_c, 0, 67, 82
1, 224329, Control_c, 0, 64, 60
1, 224329, Control_c, 0, 67, 77
1, 224344, Control_c, 0, 64, 57
1, 224344, Control_c, 0, 67, 73
1, 224358, Control_c, 0, 64, 55
1, 224358, Control_c, 0, 67, 69
1, 224373, Control_c, 0, 64, 54
1, 224373, Control_c, 0, 67, 65
1, 224388, Control_c, 0, 64, 52
1, 224388, Control_c, 0, 67, 62
1, 224402, Control_c, 0, 64, 49
1, 224402, Control_c, 0, 67, 59
1, 224417, Control_c, 0, 64, 43
1, 224417, Control_c, 0, 67, 56
1, 224432, Control_c, 0, 64, 30
1, 224432, Control_c, 0, 67, 53
1, 224447, Control_c, 0, 64, 0
1, 224447, Control_c, 0, 67, 51
1, 224462, Control_c, 0, 67, 48
1, 224476, Control_c, 0, 67, 45
1, 224491, Control_c, 0, 67, 42
1, 224506, Control_c, 0, 67, 38
1, 224521, Control_c, 0, 67, 34
1, 224536, Control_c, 0, 67, 30
1, 224551, Control_c, 0, 67, 26
1, 224566, Control_c, 0, 67, 24
1, 224580, Control_c, 0, 67, 21
1, 224595, Control_c, 0, 67, 19
1, 224610, Control_c, 0, 67, 16
1, 224626, Control_c, 0, 67, 14
1, 224640, Control_c, 0, 67, 12
1, 224655, Control_c, 0, 67, 10
1, 224670, Control_c, 0, 67, 8
1, 224685, Control_c, 0, 67, 0
1, 232454, Note_on_c, 0, 107, 45
1, 232480, Note_off_c, 0, 107, 55
1, 249405, Note_on_c, 0, 38, 95
1, 249439, Control_c, 0, 64, 11
1, 249454, Control_c, 0, 64, 72
1, 249469, Control_c, 0, 64, 85
1, 249483, Control_c, 0, 64, 105
1, 249495, Note_on_c, 0, 47, 75
1, 249498, Control_c, 0, 64, 127
1, 249537, Note_off_c, 0, 47, 62
1, 249540, Note_on_c, 0, 43, 80
1, 249557, Note_off_c, 0, 38, 62
1, 249572, Note_on_c, 0, 50, 73
1, 249612, Note_on_c, 0, 47, 86
1, 249633, Note_off_c, 0, 50, 61
1, 249635, Note_on_c, 0, 53, 68
1, 249641, Note_off_c, 0, 43, 61
1, 249687, Note_off_c, 0, 53, 65
1, 249692, Note_on_c, 0, 56, 69
1, 249711, Note_on_c, 0, 50, 77
1, 249715, Note_off_c, 0, 47, 64
1, 249718, Note_off_c, 0, 56, 66
1, 249763, Note_off_c, 0, 50, 64
1, 249786, Note_on_c, 0, 59, 72
1, 249833, Note_on_c, 0, 55, 75
1, 249838, Note_off_c, 0, 59, 62
1, 249862, Note_on_c, 0, 62, 74
1, 249893, Note_on_c, 0, 59, 76
1, 249919, Note_off_c, 0, 55, 63
1, 249931, Note_off_c, 0, 62, 62
1, 249933, Note_on_c, 0, 65, 65
1, 249970, Note_off_c, 0, 59, 58
1, 249988, Note_on_c, 0, 68, 87
1, 249990, Note_on_c, 0, 62, 83
1, 249999, Note_off_c, 0, 65, 64
1, 250061, Note_off_c, 0, 62, 61
1, 250062, Note_on_c, 0, 59, 70
1, 250067, Note_on_c, 0, 65, 78
1, 250103, Note_off_c, 0, 68, 60
1, 250143, Note_off_c, 0, 65, 63
1, 250147, Note_off_c, 0, 59, 62
1, 250149, Note_on_c, 0, 62, 72
1, 250151, Note_on_c, 0, 55, 74
1, 250175, Note_off_c, 0, 62, 66
1, 250201, Note_off_c, 0, 55, 62
1, 250225, Note_on_c, 0, 59, 58
1, 250252, Note_off_c, 0, 59, 64
1, 250276, Note_on_c, 0, 52, 55
1, 250284, Note_on_c, 0, 50, 58
1, 250312, Note_on_c, 0, 56, 71
1, 250314, Note_off_c, 0, 52, 66
1, 250328, Note_off_c, 0, 50, 64
1, 250339, Note_on_c, 0, 47, 80
1, 250384, Note_on_c, 0, 53, 76
1, 250416, Note_off_c, 0, 56, 60
1, 250439, Note_off_c, 0, 47, 63
1, 250440, Note_on_c, 0, 43, 82
1, 250460, Note_off_c, 0, 53, 64
1, 250461, Note_on_c, 0, 50, 76
1, 250486, Note_off_c, 0, 43, 63
1, 250505, Note_off_c, 0, 50, 58
1, 250528, Note_on_c, 0, 47, 82
1, 250559, Note_off_c, 0, 47, 65
1, 250639, Control_c, 0, 64, 101
1, 250654, Control_c, 0, 64, 83
1, 250669, Control_c, 0, 64, 65
1, 250683, Control_c, 0, 64, 0
1, 250726, Note_on_c, 0, 47, 106
1, 250910, Note_off_c, 0, 47, 58
1, 250938, Note_on_c, 0, 44, 85
1, 250982, Note_off_c, 0, 44, 67
1, 251194, Note_on_c, 0, 45, 88
1, 251827, Note_on_c, 0, 69, 51
1, 251830, Note_on_c, 0, 57, 42
1, 251832, Note_on_c, 0, 81, 58
1, 251930, Control_c, 0, 64, 63
1, 251945, Control_c, 0, 64, 74
1, 251960, Control_c, 0, 64, 85
1, 251975, Control_c, 0, 64, 95
1, 251990, Control_c, 0, 64, 101
1, 252004, Control_c, 0, 64, 105
1, 252019, Control_c, 0, 64, 108
1, 252034, Control_c, 0, 64, 114
1, 252049, Control_c, 0, 64, 120
1, 252064, Control_c, 0, 64, 127
1, 252111, Note_off_c, 0, 57, 45
1, 252136, Note_off_c, 0, 81, 58
1, 252160, Note_off_c, 0, 69, 59
1, 252222, Note_off_c, 0, 45, 41
1, 252359, Control_c, 0, 64, 117
1, 252374, Control_c, 0, 64, 105
1, 252389, Control_c, 0, 64, 93
1, 252404, Control_c, 0, 64, 81
1, 252419, Control_c, 0, 64, 65
1, 252434, Control_c, 0, 64, 0
1, 252625, Note_on_c, 0, 38, 94
1, 252664, Control_c, 0, 64, 45
1, 252679, Control_c, 0, 64, 70
1, 252694, Control_c, 0, 64, 81
1, 252702, Note_on_c, 0, 47, 78
1, 252708, Control_c, 0, 64, 98
1, 252723, Control_c, 0, 64, 108
1, 252738, Control_c, 0, 64, 114
1, 252753, Control_c, 0, 64, 117
1, 252763, Note_on_c, 0, 43, 81
1, 252768, Note_off_c, 0, 47, 62
1, 252768, Control_c, 0, 64, 120
1, 252783, Control_c, 0, 64, 123
1, 252783, Note_off_c, 0, 38, 61
1, 252786, Note_on_c, 0, 50, 74
1, 252798, Control_c, 0, 64, 126
1, 252813, Control_c, 0, 64, 127
1, 252845, Note_on_c, 0, 47, 84
1, 252848, Note_on_c, 0, 53, 68
1, 252852, Note_off_c, 0, 50, 63
1, 252873, Note_off_c, 0, 43, 60
1, 252905, Note_off_c, 0, 53, 65
1, 252910, Note_on_c, 0, 56, 69
1, 252940, Note_off_c, 0, 47, 64
1, 252941, Note_off_c, 0, 56, 66
1, 252946, Note_on_c, 0, 50, 78
1, 252995, Note_off_c, 0, 50, 57
1, 253003, Note_on_c, 0, 59, 75
1, 253046, Note_off_c, 0, 59, 56
1, 253057, Note_on_c, 0, 55, 77
1, 253075, Note_on_c, 0, 62, 79
1, 253119, Note_on_c, 0, 59, 84
1, 253136, Note_off_c, 0, 55, 63
1, 253137, Note_off_c, 0, 62, 61
1, 253141, Note_on_c, 0, 65, 70
1, 253181, Note_off_c, 0, 59, 60
1, 253188, Note_on_c, 0, 68, 83
1, 253194, Note_off_c, 0, 65, 67
1, 253199, Note_on_c, 0, 62, 84
1, 253256, Note_off_c, 0, 62, 62
1, 253263, Note_on_c, 0, 65, 76
1, 253263, Note_on_c, 0, 59, 69
1, 253295, Note_off_c, 0, 68, 58
1, 253328, Note_on_c, 0, 62, 66
1, 253332, Note_off_c, 0, 65, 65
1, 253338, Note_off_c, 0, 59, 62
1, 253345, Note_on_c, 0, 55, 76
1, 253357, Note_off_c, 0, 62, 59
1, 253375, Note_off_c, 0, 55, 65
1, 253382, Note_on_c, 0, 59, 53
1, 253423, Note_off_c, 0, 59, 65
1, 253456, Note_on_c, 0, 50, 79
1, 253491, Note_on_c, 0, 56, 71
1, 253515, Note_off_c, 0, 50, 62
1, 253531, Note_on_c, 0, 47, 77
1, 253546, Note_on_c, 0, 53, 71
1, 253569, Note_off_c, 0, 56, 59
1, 253610, Note_off_c, 0, 53, 66
1, 253614, Note_on_c, 0, 43, 81
1, 253615, Note_off_c, 0, 47, 63
1, 253617, Note_on_c, 0, 50, 70
1, 253647, Note_off_c, 0, 50, 62
1, 253663, Note_off_c, 0, 43, 60
1, 253667, Note_on_c, 0, 47, 69
1, 253701, Note_off_c, 0, 47, 63
1, 253724, Control_c, 0, 64, 117
1, 253739, Control_c, 0, 64, 99
1, 253754, Control_c, 0, 64, 82
1, 253769, Control_c, 0, 64, 62
1, 253783, Control_c, 0, 64, 0
1, 253852, Note_on_c, 0, 47, 102
1, 254025, Note_off_c, 0, 47, 60
1, 254055, Note_on_c, 0, 44, 86
1, 254088, Note_off_c, 0, 44, 68
1, 254271, Note_on_c, 0, 47, 94
1, 254472, Note_off_c, 0, 47, 58
1, 254488, Note_on_c, 0, 44, 79
1, 254518, Note_off_c, 0, 44, 66
1, 254809, Note_on_c, 0, 45, 49
1, 254925, Control_c, 0, 64, 64
1, 254939, Control_c, 0, 64, 75
1, 254954, Control_c, 0, 64, 89
1, 254969, Control_c, 0, 64, 103
1, 254985, Control_c, 0, 64, 111
1, 255000, Control_c, 0, 64, 115
1, 255015, Control_c, 0, 64, 121
1, 255029, Control_c, 0, 64, 127
1, 255286, Note_off_c, 0, 45, 41
1, 255300, Note_on_c, 0, 48, 53
1, 255382, Note_on_c, 0, 53, 44
1, 255399, Note_off_c, 0, 48, 64
1, 255425, Note_off_c, 0, 53, 65
1, 255439, Note_on_c, 0, 57, 55
1, 255468, Note_off_c, 0, 57, 63
1, 255528, Note_on_c, 0, 72, 60
1, 255538, Note_on_c, 0, 60, 61
1, 255559, Note_off_c, 0, 72, 66
1, 255561, Note_on_c, 0, 74, 68
1, 255568, Note_off_c, 0, 60, 65
1, 255579, Note_on_c, 0, 65, 34
1, 255587, Note_on_c, 0, 75, 76
1, 255589, Note_off_c, 0, 74, 68
1, 255592, Control_c, 0, 64, 106
1, 255597, Note_on_c, 0, 69, 77
1, 255607, Control_c, 0, 64, 88
1, 255609, Note_off_c, 0, 75, 71
1, 255614, Note_off_c, 0, 65, 52
1, 255618, Note_off_c, 0, 69, 73
1, 255621, Control_c, 0, 64, 71
1, 255636, Control_c, 0, 64, 0
1, 255779, Note_on_c, 0, 76, 67
1, 255817, Note_on_c, 0, 75, 73
1, 255823, Note_off_c, 0, 76, 65
1, 255838, Note_on_c, 0, 65, 73
1, 255844, Note_on_c, 0, 60, 71
1, 255847, Note_on_c, 0, 74, 77
1, 255852, Note_off_c, 0, 75, 67
1, 255862, Note_off_c, 0, 65, 71
1, 255867, Note_off_c, 0, 74, 70
1, 255868, Note_off_c, 0, 60, 67
1, 256009, Note_on_c, 0, 75, 63
1, 256050, Note_off_c, 0, 75, 60
1, 256052, Note_on_c, 0, 74, 66
1, 256076, Note_on_c, 0, 72, 85
1, 256083, Note_off_c, 0, 74, 65
1, 256084, Note_on_c, 0, 57, 77
1, 256085, Note_on_c, 0, 60, 77
1, 256104, Note_off_c, 0, 72, 64
1, 256106, Note_off_c, 0, 60, 69
1, 256109, Note_off_c, 0, 57, 67
1, 256230, Note_on_c, 0, 74, 70
1, 256277, Note_on_c, 0, 72, 58
1, 256284, Note_off_c, 0, 74, 64
1, 256301, Note_on_c, 0, 70, 88
1, 256306, Note_on_c, 0, 57, 74
1, 256310, Note_on_c, 0, 53, 73
1, 256310, Note_off_c, 0, 72, 66
1, 256328, Note_off_c, 0, 57, 66
1, 256337, Note_off_c, 0, 70, 65
1, 256339, Note_off_c, 0, 53, 67
1, 256469, Note_on_c, 0, 72, 70
1, 256502, Note_on_c, 0, 70, 76
1, 256507, Note_off_c, 0, 72, 62
1, 256542, Note_on_c, 0, 69, 73
1, 256546, Note_off_c, 0, 70, 63
1, 256552, Note_on_c, 0, 50, 75
1, 256553, Note_on_c, 0, 53, 77
1, 256566, Note_off_c, 0, 69, 72
1, 256577, Note_off_c, 0, 50, 68
1, 256580, Note_off_c, 0, 53, 68
1, 256655, Note_on_c, 0, 72, 70
1, 256696, Note_on_c, 0, 69, 65
1, 256712, Note_off_c, 0, 72, 66
1, 256732, Note_off_c, 0, 69, 64
1, 256747, Note_on_c, 0, 63, 81
1, 256750, Note_on_c, 0, 48, 76
1, 256755, Note_on_c, 0, 53, 67
1, 256777, Note_off_c, 0, 63, 68
1, 256779, Note_off_c, 0, 48, 68
1, 256782, Note_off_c, 0, 53, 68
1, 256859, Note_on_c, 0, 64, 92
1, 256899, Note_off_c, 0, 64, 64
1, 256998, Note_on_c, 0, 53, 86
1, 257001, Note_on_c, 0, 65, 100
1, 257001, Note_on_c, 0, 74, 96
1, 257001, Note_on_c, 0, 69, 103
1, 257003, Note_on_c, 0, 57, 92
1, 257008, Note_on_c, 0, 47, 76
1, 257016, Control_c, 0, 64, 58
1, 257031, Control_c, 0, 64, 84
1, 257045, Control_c, 0, 64, 127
1, 257060, Note_off_c, 0, 53, 66
1, 257062, Note_off_c, 0, 47, 63
1, 257090, Note_off_c, 0, 65, 59
1, 257092, Note_off_c, 0, 69, 58
1, 257106, Note_off_c, 0, 74, 55
1, 257130, Note_off_c, 0, 57, 57
1, 257248, Note_on_c, 0, 57, 69
1, 257250, Note_on_c, 0, 60, 69
1, 257258, Note_on_c, 0, 52, 65
1, 257260, Note_on_c, 0, 64, 76
1, 257260, Control_c, 0, 64, 114
1, 257267, Note_off_c, 0, 57, 71
1, 257275, Control_c, 0, 64, 89
1, 257277, Note_off_c, 0, 60, 67
1, 257284, Note_off_c, 0, 64, 69
1, 257285, Note_off_c, 0, 52, 69
1, 257290, Control_c, 0, 64, 66
1, 257305, Control_c, 0, 64, 0
1, 257362, Note_on_c, 0, 63, 83
1, 257385, Note_off_c, 0, 63, 70
1, 257496, Note_on_c, 0, 53, 94
1, 257498, Note_on_c, 0, 65, 99
1, 257498, Control_c, 0, 64, 71
1, 257499, Note_on_c, 0, 74, 96
1, 257499, Note_on_c, 0, 69, 100
1, 257501, Note_on_c, 0, 57, 89
1, 257506, Note_on_c, 0, 47, 76
1, 257513, Control_c, 0, 64, 96
1, 257528, Control_c, 0, 64, 127
1, 257555, Note_off_c, 0, 47, 64
1, 257579, Note_off_c, 0, 53, 63
1, 257582, Note_off_c, 0, 69, 59
1, 257588, Note_off_c, 0, 65, 56
1, 257606, Note_off_c, 0, 74, 58
1, 257644, Note_off_c, 0, 57, 60
1, 257736, Note_on_c, 0, 60, 76
1, 257740, Note_on_c, 0, 64, 79
1, 257741, Note_on_c, 0, 52, 71
1, 257744, Note_on_c, 0, 57, 69
1, 257761, Note_off_c, 0, 60, 65
1, 257764, Note_off_c, 0, 64, 70
1, 257764, Control_c, 0, 64, 125
1, 257767, Note_off_c, 0, 57, 69
1, 257771, Note_off_c, 0, 52, 68
1, 257779, Control_c, 0, 64, 96
1, 257794, Control_c, 0, 64, 75
1, 257809, Control_c, 0, 64, 0
1, 257835, Note_on_c, 0, 63, 75
1, 257858, Note_off_c, 0, 63, 68
1, 257979, Control_c, 0, 64, 73
1, 257983, Note_on_c, 0, 83, 104
1, 257990, Note_on_c, 0, 71, 94
1, 257994, Control_c, 0, 64, 94
1, 258009, Control_c, 0, 64, 127
1, 258039, Note_off_c, 0, 71, 61
1, 258082, Note_off_c, 0, 83, 56
1, 258086, Note_on_c, 0, 81, 87
1, 258093, Note_on_c, 0, 69, 83
1, 258114, Note_off_c, 0, 69, 71
1, 258129, Note_off_c, 0, 81, 60
1, 258172, Control_c, 0, 64, 122
1, 258187, Control_c, 0, 64, 92
1, 258202, Control_c, 0, 64, 69
1, 258217, Control_c, 0, 64, 0
1, 258223, Note_on_c, 0, 59, 74
1, 258223, Note_on_c, 0, 71, 74
1, 258246, Note_off_c, 0, 59, 66
1, 258249, Note_off_c, 0, 71, 66
1, 258394, Note_on_c, 0, 72, 66
1, 258421, Note_off_c, 0, 72, 68
1, 258431, Note_on_c, 0, 74, 61
1, 258452, Note_on_c, 0, 75, 71
1, 258455, Note_off_c, 0, 74, 71
1, 258465, Note_on_c, 0, 69, 67
1, 258476, Note_off_c, 0, 75, 70
1, 258480, Note_on_c, 0, 65, 48
1, 258486, Note_off_c, 0, 69, 68
1, 258503, Note_off_c, 0, 65, 57
1, 258622, Note_on_c, 0, 76, 71
1, 258667, Note_off_c, 0, 76, 59
1, 258669, Note_on_c, 0, 75, 70
1, 258691, Note_on_c, 0, 65, 65
1, 258694, Note_on_c, 0, 74, 79
1, 258696, Note_on_c, 0, 60, 71
1, 258701, Note_off_c, 0, 75, 68
1, 258716, Note_off_c, 0, 65, 67
1, 258717, Note_off_c, 0, 74, 69
1, 258721, Note_off_c, 0, 60, 67
1, 258855, Note_on_c, 0, 75, 65
1, 258897, Note_off_c, 0, 75, 61
1, 258900, Note_on_c, 0, 74, 67
1, 258920, Note_on_c, 0, 72, 84
1, 258925, Note_on_c, 0, 57, 75
1, 258925, Note_off_c, 0, 74, 69
1, 258926, Note_on_c, 0, 60, 76
1, 258947, Note_off_c, 0, 60, 68
1, 258949, Note_off_c, 0, 72, 64
1, 258959, Note_off_c, 0, 57, 63
1, 259078, Note_on_c, 0, 74, 76
1, 259120, Note_on_c, 0, 72, 69
1, 259132, Note_off_c, 0, 74, 64
1, 259143, Note_on_c, 0, 57, 76
1, 259146, Note_on_c, 0, 70, 87
1, 259149, Note_on_c, 0, 53, 72
1, 259152, Note_off_c, 0, 72, 65
1, 259167, Note_off_c, 0, 57, 67
1, 259183, Note_off_c, 0, 53, 67
1, 259183, Note_off_c, 0, 70, 64
1, 259296, Note_on_c, 0, 72, 74
1, 259330, Note_on_c, 0, 70, 70
1, 259340, Note_off_c, 0, 72, 62
1, 259364, Note_on_c, 0, 50, 77
1, 259367, Note_on_c, 0, 53, 73
1, 259371, Note_on_c, 0, 69, 77
1, 259378, Note_off_c, 0, 70, 63
1, 259401, Note_off_c, 0, 53, 67
1, 259401, Note_off_c, 0, 69, 69
1, 259406, Note_off_c, 0, 50, 63
1, 259478, Note_on_c, 0, 72, 72
1, 259525, Note_on_c, 0, 69, 68
1, 259540, Note_off_c, 0, 72, 64
1, 259570, Note_off_c, 0, 69, 67
1, 259579, Note_on_c, 0, 48, 76
1, 259582, Note_on_c, 0, 53, 72
1, 259584, Note_on_c, 0, 63, 78
1, 259606, Note_off_c, 0, 53, 69
1, 259609, Note_off_c, 0, 63, 68
1, 259611, Note_off_c, 0, 48, 67
1, 259694, Note_on_c, 0, 64, 91
1, 259733, Note_off_c, 0, 64, 66
1, 259821, Note_on_c, 0, 53, 87
1, 259826, Note_on_c, 0, 57, 98
1, 259826, Note_on_c, 0, 74, 98
1, 259827, Note_on_c, 0, 65, 103
1, 259827, Note_on_c, 0, 69, 103
1, 259831, Note_on_c, 0, 47, 78
1, 259833, Control_c, 0, 64, 70
1, 259847, Control_c, 0, 64, 102
1, 259862, Control_c, 0, 64, 127
1, 259883, Note_off_c, 0, 47, 62
1, 259898, Note_off_c, 0, 53, 66
1, 259918, Note_off_c, 0, 69, 55
1, 259920, Note_off_c, 0, 74, 56
1, 259926, Note_off_c, 0, 65, 59
1, 259937, Poly_aftertouch_c, 0, 71, 0
1, 259961, Note_off_c, 0, 57, 56
1, 260065, Note_on_c, 0, 57, 73
1, 260069, Note_on_c, 0, 60, 67
1, 260071, Note_on_c, 0, 64, 75
1, 260077, Note_on_c, 0, 52, 67
1, 260084, Control_c, 0, 64, 111
1, 260085, Note_off_c, 0, 57, 71
1, 260095, Note_off_c, 0, 60, 63
1, 260096, Note_off_c, 0, 64, 71
1, 260099, Control_c, 0, 64, 84
1, 260105, Note_off_c, 0, 52, 69
1, 260114, Control_c, 0, 64, 56
1, 260129, Control_c, 0, 64, 0
1, 260181, Note_on_c, 0, 63, 86
1, 260206, Note_off_c, 0, 63, 68
1, 260321, Note_on_c, 0, 53, 94
1, 260321, Note_on_c, 0, 74, 97
1, 260323, Note_on_c, 0, 65, 96
1, 260324, Note_on_c, 0, 57, 92
1, 260324, Note_on_c, 0, 69, 101
1, 260329, Control_c, 0, 64, 57
1, 260332, Note_on_c, 0, 47, 75
1, 260343, Control_c, 0, 64, 79
1, 260358, Control_c, 0, 64, 115
1, 260373, Note_off_c, 0, 47, 58
1, 260373, Control_c, 0, 64, 127
1, 260394, Note_off_c, 0, 53, 65
1, 260405, Note_off_c, 0, 69, 60
1, 260418, Note_off_c, 0, 65, 59
1, 260424, Note_off_c, 0, 74, 60
1, 260468, Note_off_c, 0, 57, 57
1, 260551, Note_on_c, 0, 64, 74
1, 260555, Note_on_c, 0, 60, 64
1, 260560, Note_on_c, 0, 57, 64
1, 260563, Note_on_c, 0, 52, 64
1, 260573, Note_off_c, 0, 60, 64
1, 260579, Note_off_c, 0, 64, 68
1, 260581, Note_off_c, 0, 57, 71
1, 260594, Note_off_c, 0, 52, 68
1, 260626, Control_c, 0, 64, 104
1, 260640, Control_c, 0, 64, 84
1, 260655, Note_on_c, 0, 63, 74
1, 260655, Control_c, 0, 64, 57
1, 260670, Control_c, 0, 64, 0
1, 260671, Note_off_c, 0, 63, 69
1, 260793, Note_on_c, 0, 39, 77
1, 260799, Note_on_c, 0, 51, 85
1, 260825, Note_off_c, 0, 39, 62
1, 260837, Note_off_c, 0, 51, 61
1, 260905, Note_on_c, 0, 36, 62
1, 260908, Note_on_c, 0, 48, 98
1, 260942, Note_off_c, 0, 48, 69
1, 260953, Note_off_c, 0, 36, 61
1, 261039, Note_on_c, 0, 32, 91
1, 261042, Note_on_c, 0, 48, 106
1, 261062, Control_c, 0, 64, 58
1, 261077, Control_c, 0, 64, 80
1, 261080, Note_off_c, 0, 48, 70
1, 261082, Note_off_c, 0, 32, 66
1, 261091, Control_c, 0, 64, 99
1, 261106, Control_c, 0, 64, 119
1, 261121, Control_c, 0, 64, 125
1, 261136, Control_c, 0, 64, 127
1, 261255, Control_c, 0, 64, 121
1, 261270, Control_c, 0, 64, 98
1, 261285, Control_c, 0, 64, 76
1, 261299, Control_c, 0, 64, 0
1, 261299, Control_c, 0, 67, 8
1, 261314, Control_c, 0, 67, 22
1, 261329, Control_c, 0, 67, 46
1, 261344, Control_c, 0, 67, 78
1, 261360, Control_c, 0, 67, 116
1, 261375, Control_c, 0, 67, 127
1, 261572, Note_on_c, 0, 56, 57
1, 261594, Note_off_c, 0, 56, 61
1, 261679, Note_on_c, 0, 59, 62
1, 261682, Note_on_c, 0, 71, 51
1, 261687, Note_on_c, 0, 68, 49
1, 261688, Note_on_c, 0, 64, 51
1, 261699, Note_off_c, 0, 59, 61
1, 261708, Note_off_c, 0, 71, 53
1, 261711, Note_off_c, 0, 64, 59
1, 261711, Note_off_c, 0, 68, 59
1, 261809, Note_on_c, 0, 63, 71
1, 261830, Note_off_c, 0, 63, 66
1, 261910, Note_on_c, 0, 59, 57
1, 261916, Note_on_c, 0, 71, 45
1, 261925, Note_on_c, 0, 68, 37
1, 261931, Note_on_c, 0, 65, 25
1, 261932, Note_off_c, 0, 59, 59
1, 261941, Note_off_c, 0, 71, 55
1, 261953, Note_off_c, 0, 68, 50
1, 261969, Note_off_c, 0, 65, 41
1, 262027, Note_on_c, 0, 56, 59
1, 262049, Note_off_c, 0, 56, 64
1, 262141, Note_on_c, 0, 68, 46
1, 262143, Note_on_c, 0, 71, 43
1, 262146, Note_on_c, 0, 64, 44
1, 262146, Note_on_c, 0, 59, 44
1, 262171, Note_off_c, 0, 68, 55
1, 262171, Note_off_c, 0, 71, 54
1, 262173, Note_off_c, 0, 64, 58
1, 262175, Note_off_c, 0, 59, 55
1, 262255, Note_on_c, 0, 63, 76
1, 262280, Note_off_c, 0, 63, 67
1, 262366, Note_on_c, 0, 65, 53
1, 262366, Note_on_c, 0, 71, 45
1, 262369, Note_on_c, 0, 59, 48
1, 262371, Note_on_c, 0, 68, 45
1, 262399, Note_off_c, 0, 65, 64
1, 262402, Note_off_c, 0, 71, 52
1, 262404, Note_off_c, 0, 59, 55
1, 262404, Note_off_c, 0, 68, 58
1, 262486, Note_on_c, 0, 56, 64
1, 262515, Note_off_c, 0, 56, 65
1, 262584, Note_on_c, 0, 68, 49
1, 262594, Note_on_c, 0, 59, 49
1, 262596, Note_on_c, 0, 64, 53
1, 262598, Note_on_c, 0, 71, 48
1, 262617, Note_off_c, 0, 64, 61
1, 262619, Note_off_c, 0, 59, 55
1, 262629, Note_off_c, 0, 68, 65
1, 262632, Note_off_c, 0, 71, 63
1, 262720, Note_on_c, 0, 63, 83
1, 262738, Control_c, 0, 67, 105
1, 262753, Control_c, 0, 67, 65
1, 262754, Note_off_c, 0, 63, 61
1, 262768, Control_c, 0, 67, 21
1, 262783, Control_c, 0, 67, 0
1, 262867, Note_on_c, 0, 85, 68
1, 262868, Note_on_c, 0, 61, 72
1, 262901, Note_on_c, 0, 87, 77
1, 262903, Note_on_c, 0, 63, 77
1, 262912, Note_off_c, 0, 61, 62
1, 262925, Note_off_c, 0, 85, 65
1, 262930, Control_c, 0, 64, 27
1, 262936, Note_on_c, 0, 65, 84
1, 262938, Note_on_c, 0, 89, 81
1, 262945, Control_c, 0, 64, 72
1, 262952, Note_off_c, 0, 87, 66
1, 262961, Control_c, 0, 64, 90
1, 262963, Note_off_c, 0, 63, 64
1, 262975, Note_off_c, 0, 65, 65
1, 262976, Control_c, 0, 64, 127
1, 262984, Note_off_c, 0, 89, 66
1, 262991, Control_c, 0, 64, 127
1, 263075, Note_on_c, 0, 64, 71
1, 263076, Note_on_c, 0, 88, 65
1, 263114, Note_off_c, 0, 88, 59
1, 263115, Note_on_c, 0, 63, 81
1, 263115, Note_on_c, 0, 87, 77
1, 263122, Note_off_c, 0, 64, 65
1, 263152, Note_on_c, 0, 85, 74
1, 263163, Note_on_c, 0, 61, 83
1, 263165, Note_off_c, 0, 87, 63
1, 263174, Note_off_c, 0, 63, 64
1, 263179, Note_off_c, 0, 85, 64
1, 263196, Note_off_c, 0, 61, 62
1, 263266, Note_on_c, 0, 84, 84
1, 263277, Note_on_c, 0, 60, 75
1, 263316, Note_off_c, 0, 84, 63
1, 263324, Note_on_c, 0, 82, 73
1, 263329, Note_on_c, 0, 58, 84
1, 263332, Note_off_c, 0, 60, 60
1, 263348, Note_off_c, 0, 82, 69
1, 263372, Note_off_c, 0, 58, 64
1, 263385, Note_on_c, 0, 84, 62
1, 263393, Note_on_c, 0, 60, 68
1, 263432, Note_off_c, 0, 84, 66
1, 263434, Note_on_c, 0, 86, 71
1, 263455, Note_off_c, 0, 60, 63
1, 263457, Note_on_c, 0, 62, 76
1, 263486, Note_off_c, 0, 86, 64
1, 263490, Note_off_c, 0, 62, 63
1, 263492, Note_on_c, 0, 85, 72
1, 263493, Note_on_c, 0, 61, 76
1, 263519, Note_off_c, 0, 61, 66
1, 263529, Note_off_c, 0, 85, 63
1, 263546, Note_on_c, 0, 84, 66
1, 263557, Note_on_c, 0, 60, 76
1, 263574, Note_off_c, 0, 84, 67
1, 263607, Note_on_c, 0, 82, 76
1, 263623, Note_off_c, 0, 60, 58
1, 263625, Note_on_c, 0, 58, 80
1, 263662, Note_on_c, 0, 56, 73
1, 263666, Note_on_c, 0, 80, 73
1, 263690, Note_off_c, 0, 58, 64
1, 263692, Note_off_c, 0, 82, 61
1, 263711, Note_on_c, 0, 54, 71
1, 263717, Note_on_c, 0, 78, 72
1, 263722, Note_off_c, 0, 80, 65
1, 263724, Note_off_c, 0, 56, 65
1, 263733, Note_off_c, 0, 54, 67
1, 263754, Note_off_c, 0, 78, 63
1, 263764, Note_on_c, 0, 77, 68
1, 263785, Note_on_c, 0, 53, 77
1, 263800, Note_off_c, 0, 77, 60
1, 263824, Note_off_c, 0, 53, 59
1, 263839, Note_on_c, 0, 75, 73
1, 263839, Note_on_c, 0, 51, 78
1, 263899, Note_on_c, 0, 73, 63
1, 263899, Note_off_c, 0, 75, 66
1, 263903, Note_on_c, 0, 49, 76
1, 263904, Note_off_c, 0, 51, 62
1, 263934, Note_off_c, 0, 73, 63
1, 263943, Note_on_c, 0, 72, 63
1, 263946, Note_on_c, 0, 51, 61
1, 263950, Note_off_c, 0, 49, 60
1, 263974, Note_on_c, 0, 52, 69
1, 263974, Note_off_c, 0, 72, 67
1, 263977, Note_off_c, 0, 51, 66
1, 264004, Note_on_c, 0, 70, 75
1, 264009, Note_off_c, 0, 52, 65
1, 264059, Note_on_c, 0, 68, 70
1, 264060, Note_off_c, 0, 70, 62
1, 264087, Note_on_c, 0, 58, 69
1, 264098, Note_on_c, 0, 67, 74
1, 264101, Note_off_c, 0, 68, 63
1, 264104, Note_on_c, 0, 59, 63
1, 264129, Note_on_c, 0, 60, 71
1, 264139, Note_off_c, 0, 59, 57
1, 264149, Note_on_c, 0, 68, 71
1, 264160, Note_off_c, 0, 67, 59
1, 264176, Note_on_c, 0, 62, 76
1, 264183, Note_off_c, 0, 58, 36
1, 264188, Note_on_c, 0, 70, 78
1, 264195, Note_off_c, 0, 60, 61
1, 264203, Note_off_c, 0, 62, 65
1, 264206, Control_c, 0, 64, 120
1, 264213, Note_off_c, 0, 68, 64
1, 264221, Control_c, 0, 64, 88
1, 264229, Note_off_c, 0, 70, 65
1, 264236, Control_c, 0, 64, 35
1, 264251, Control_c, 0, 64, 0
1, 264296, Note_on_c, 0, 71, 97
1, 264311, Note_on_c, 0, 44, 93
1, 264321, Note_on_c, 0, 34, 64
1, 264325, Control_c, 0, 64, 41
1, 264338, Note_off_c, 0, 44, 62
1, 264340, Control_c, 0, 64, 77
1, 264348, Note_off_c, 0, 34, 39
1, 264355, Control_c, 0, 64, 100
1, 264370, Control_c, 0, 64, 127
1, 264386, Poly_aftertouch_c, 0, 33, 127
1, 264425, Poly_aftertouch_c, 0, 33, 0
1, 264426, Note_on_c, 0, 59, 76
1, 264429, Note_on_c, 0, 68, 70
1, 264433, Note_on_c, 0, 63, 66
1, 264450, Note_off_c, 0, 59, 67
1, 264467, Note_off_c, 0, 63, 64
1, 264493, Note_off_c, 0, 68, 62
1, 264502, Control_c, 0, 64, 114
1, 264517, Control_c, 0, 64, 93
1, 264532, Control_c, 0, 64, 73
1, 264547, Control_c, 0, 64, 0
1, 264564, Note_on_c, 0, 58, 80
1, 264586, Note_off_c, 0, 58, 70
1, 264686, Note_on_c, 0, 61, 63
1, 264687, Note_on_c, 0, 68, 60
1, 264689, Note_on_c, 0, 64, 56
1, 264718, Note_off_c, 0, 61, 63
1, 264731, Note_off_c, 0, 64, 62
1, 264749, Note_off_c, 0, 68, 55
1, 264799, Note_on_c, 0, 59, 81
1, 264820, Note_off_c, 0, 59, 69
1, 264912, Note_on_c, 0, 68, 56
1, 264912, Note_on_c, 0, 64, 58
1, 264913, Note_on_c, 0, 63, 64
1, 264944, Note_off_c, 0, 63, 64
1, 264952, Note_off_c, 0, 64, 61
1, 264973, Note_off_c, 0, 68, 55
1, 265035, Note_on_c, 0, 49, 101
1, 265039, Note_on_c, 0, 37, 91
1, 265058, Control_c, 0, 64, 69
1, 265069, Note_off_c, 0, 49, 65
1, 265073, Control_c, 0, 64, 90
1, 265086, Note_off_c, 0, 37, 64
1, 265088, Control_c, 0, 64, 127
1, 265147, Note_on_c, 0, 68, 64
1, 265153, Note_on_c, 0, 61, 61
1, 265157, Note_on_c, 0, 65, 58
1, 265175, Note_off_c, 0, 61, 63
1, 265199, Note_off_c, 0, 65, 60
1, 265231, Note_off_c, 0, 68, 55
1, 265281, Control_c, 0, 64, 117
1, 265290, Note_on_c, 0, 32, 80
1, 265291, Note_on_c, 0, 44, 81
1, 265296, Control_c, 0, 64, 91
1, 265311, Control_c, 0, 64, 68
1, 265312, Note_off_c, 0, 32, 66
1, 265318, Note_off_c, 0, 44, 67
1, 265325, Control_c, 0, 64, 0
1, 265401, Note_on_c, 0, 68, 63
1, 265406, Note_on_c, 0, 59, 63
1, 265414, Note_on_c, 0, 63, 52
1, 265426, Note_off_c, 0, 59, 60
1, 265438, Note_off_c, 0, 63, 61
1, 265448, Note_off_c, 0, 68, 60
1, 265538, Note_on_c, 0, 58, 78
1, 265559, Note_off_c, 0, 58, 70
1, 265642, Note_on_c, 0, 61, 63
1, 265644, Note_on_c, 0, 68, 59
1, 265654, Note_on_c, 0, 64, 44
1, 265663, Note_off_c, 0, 71, 48
1, 265672, Note_off_c, 0, 61, 64
1, 265681, Note_off_c, 0, 64, 58
1, 265684, Note_off_c, 0, 68, 62
1, 265757, Note_on_c, 0, 59, 77
1, 265779, Note_off_c, 0, 59, 68
1, 265851, Note_on_c, 0, 63, 70
1, 265863, Note_on_c, 0, 64, 43
1, 265863, Note_on_c, 0, 68, 47
1, 265881, Note_off_c, 0, 63, 61
1, 265887, Note_off_c, 0, 68, 57
1, 265890, Note_off_c, 0, 64, 49
1, 266003, Note_on_c, 0, 49, 105
1, 266007, Note_on_c, 0, 37, 83
1, 266015, Control_c, 0, 64, 65
1, 266016, Note_on_c, 0, 53, 85
1, 266030, Control_c, 0, 64, 85
1, 266036, Note_on_c, 0, 55, 50
1, 266037, Note_off_c, 0, 53, 70
1, 266045, Control_c, 0, 64, 121
1, 266045, Note_on_c, 0, 40, 40
1, 266051, Note_off_c, 0, 37, 68
1, 266060, Control_c, 0, 64, 127
1, 266062, Note_off_c, 0, 55, 58
1, 266075, Note_off_c, 0, 49, 65
1, 266083, Note_off_c, 0, 40, 51
1, 266097, Poly_aftertouch_c, 0, 56, 0
1, 266371, Note_on_c, 0, 61, 73
1, 266373, Note_on_c, 0, 73, 72
1, 266406, Note_off_c, 0, 61, 63
1, 266409, Note_on_c, 0, 63, 69
1, 266423, Control_c, 0, 64, 110
1, 266428, Note_off_c, 0, 73, 62
1, 266432, Note_on_c, 0, 75, 62
1, 266438, Control_c, 0, 64, 94
1, 266453, Control_c, 0, 64, 79
1, 266457, Note_off_c, 0, 63, 64
1, 266461, Note_off_c, 0, 75, 68
1, 266466, Note_on_c, 0, 77, 70
1, 266468, Control_c, 0, 64, 64
1, 266469, Note_on_c, 0, 65, 61
1, 266483, Control_c, 0, 64, 0
1, 266507, Note_off_c, 0, 65, 64
1, 266522, Note_on_c, 0, 70, 68
1, 266525, Note_on_c, 0, 58, 68
1, 266526, Note_off_c, 0, 77, 57
1, 266581, Note_on_c, 0, 61, 64
1, 266582, Note_on_c, 0, 73, 68
1, 266583, Note_off_c, 0, 70, 60
1, 266609, Note_off_c, 0, 58, 63
1, 266617, Note_on_c, 0, 63, 67
1, 266621, Note_off_c, 0, 73, 58
1, 266623, Note_on_c, 0, 75, 60
1, 266628, Note_off_c, 0, 61, 62
1, 266660, Note_on_c, 0, 64, 71
1, 266662, Note_on_c, 0, 76, 76
1, 266665, Note_off_c, 0, 63, 63
1, 266666, Note_off_c, 0, 75, 66
1, 266683, Note_off_c, 0, 76, 73
1, 266686, Note_off_c, 0, 64, 67
1, 266811, Note_on_c, 0, 70, 71
1, 266811, Note_on_c, 0, 58, 67
1, 266851, Note_on_c, 0, 60, 64
1, 266852, Note_off_c, 0, 70, 62
1, 266859, Note_on_c, 0, 72, 66
1, 266868, Note_off_c, 0, 58, 65
1, 266900, Note_off_c, 0, 60, 62
1, 266901, Note_on_c, 0, 74, 67
1, 266906, Note_off_c, 0, 72, 66
1, 266910, Note_on_c, 0, 62, 59
1, 266924, Note_off_c, 0, 74, 70
1, 266931, Note_off_c, 0, 62, 62
1, 267037, Note_on_c, 0, 66, 65
1, 267040, Note_on_c, 0, 54, 54
1, 267079, Note_off_c, 0, 66, 65
1, 267081, Note_on_c, 0, 58, 62
1, 267084, Note_on_c, 0, 70, 70
1, 267088, Note_off_c, 0, 54, 62
1, 267115, Note_off_c, 0, 58, 66
1, 267121, Note_on_c, 0, 73, 65
1, 267121, Note_on_c, 0, 61, 75
1, 267124, Note_off_c, 0, 70, 65
1, 267145, Note_off_c, 0, 61, 66
1, 267150, Note_off_c, 0, 73, 66
1, 267255, Note_on_c, 0, 65, 66
1, 267261, Note_on_c, 0, 53, 60
1, 267288, Note_off_c, 0, 65, 66
1, 267300, Note_on_c, 0, 67, 65
1, 267301, Note_on_c, 0, 55, 55
1, 267316, Note_off_c, 0, 53, 63
1, 267327, Note_off_c, 0, 55, 65
1, 267333, Note_off_c, 0, 67, 63
1, 267341, Note_on_c, 0, 57, 68
1, 267356, Note_on_c, 0, 69, 63
1, 267374, Note_off_c, 0, 57, 62
1, 267405, Note_off_c, 0, 69, 62
1, 267407, Note_on_c, 0, 54, 73
1, 267411, Note_on_c, 0, 66, 79
1, 267445, Note_off_c, 0, 54, 60
1, 267453, Note_off_c, 0, 66, 66
1, 267465, Note_on_c, 0, 67, 66
1, 267476, Note_on_c, 0, 55, 57
1, 267505, Note_off_c, 0, 55, 60
1, 267511, Note_on_c, 0, 56, 80
1, 267514, Note_on_c, 0, 68, 82
1, 267516, Note_off_c, 0, 67, 63
1, 267560, Note_off_c, 0, 68, 61
1, 267565, Note_off_c, 0, 56, 64
1, 267576, Note_on_c, 0, 57, 93
1, 267577, Note_on_c, 0, 69, 91
1, 267717, Note_off_c, 0, 69, 63
1, 267720, Note_off_c, 0, 57, 61
1, 267746, Note_on_c, 0, 68, 70
1, 267752, Note_on_c, 0, 56, 73
1, 267777, Note_off_c, 0, 68, 64
1, 267807, Note_on_c, 0, 69, 99
1, 267812, Note_on_c, 0, 57, 108
1, 267814, Note_off_c, 0, 56, 57
1, 267954, Note_off_c, 0, 57, 56
1, 267954, Note_off_c, 0, 69, 59
1, 268072, Note_on_c, 0, 70, 97
1, 268077, Note_on_c, 0, 58, 94
1, 268117, Note_off_c, 0, 58, 66
1, 268129, Note_off_c, 0, 70, 63
1, 268336, Note_on_c, 0, 71, 65
1, 268362, Note_on_c, 0, 56, 13
1, 268363, Note_off_c, 0, 56, 127
1, 268364, Note_off_c, 0, 71, 64
1, 268456, Note_on_c, 0, 59, 59
1, 268459, Note_on_c, 0, 68, 51
1, 268468, Note_on_c, 0, 64, 42
1, 268480, Note_on_c, 0, 71, 23
1, 268480, Note_off_c, 0, 59, 55
1, 268490, Note_off_c, 0, 68, 54
1, 268495, Note_off_c, 0, 64, 57
1, 268515, Note_off_c, 0, 71, 43
1, 268577, Note_on_c, 0, 63, 87
1, 268596, Note_off_c, 0, 63, 73
1, 268686, Note_on_c, 0, 59, 56
1, 268686, Note_on_c, 0, 71, 52
1, 268687, Note_on_c, 0, 68, 54
1, 268696, Note_on_c, 0, 65, 42
1, 268708, Note_off_c, 0, 59, 58
1, 268719, Note_off_c, 0, 68, 55
1, 268719, Note_off_c, 0, 71, 52
1, 268725, Note_off_c, 0, 65, 59
1, 268815, Note_on_c, 0, 56, 54
1, 268841, Note_off_c, 0, 56, 36
1, 268918, Note_on_c, 0, 68, 50
1, 268919, Note_on_c, 0, 71, 49
1, 268921, Note_on_c, 0, 59, 53
1, 268929, Note_on_c, 0, 64, 35
1, 268944, Note_off_c, 0, 59, 57
1, 268948, Note_off_c, 0, 68, 55
1, 268949, Note_off_c, 0, 71, 53
1, 268960, Note_off_c, 0, 64, 52
1, 269041, Note_on_c, 0, 63, 81
1, 269061, Note_off_c, 0, 63, 70
1, 269155, Note_on_c, 0, 71, 48
1, 269158, Note_on_c, 0, 68, 46
1, 269160, Note_on_c, 0, 65, 40
1, 269169, Note_on_c, 0, 59, 36
1, 269186, Note_off_c, 0, 68, 56
1, 269190, Note_off_c, 0, 71, 47
1, 269191, Note_off_c, 0, 65, 56
1, 269201, Note_off_c, 0, 59, 48
1, 269275, Note_on_c, 0, 56, 60
1, 269297, Note_off_c, 0, 56, 63
1, 269376, Note_on_c, 0, 64, 55
1, 269380, Note_on_c, 0, 59, 44
1, 269380, Note_on_c, 0, 71, 47
1, 269386, Note_on_c, 0, 68, 51
1, 269401, Note_off_c, 0, 64, 64
1, 269407, Note_off_c, 0, 59, 54
1, 269411, Note_off_c, 0, 68, 60
1, 269413, Note_off_c, 0, 71, 59
1, 269500, Note_on_c, 0, 63, 81
1, 269521, Note_off_c, 0, 63, 70
1, 269660, Note_on_c, 0, 75, 60
1, 269691, Note_on_c, 0, 77, 71
1, 269691, Note_off_c, 0, 75, 67
1, 269725, Note_on_c, 0, 78, 73
1, 269732, Note_off_c, 0, 77, 63
1, 269741, Note_on_c, 0, 72, 59
1, 269747, Note_off_c, 0, 78, 70
1, 269751, Note_on_c, 0, 68, 47
1, 269759, Note_off_c, 0, 72, 63
1, 269775, Note_off_c, 0, 68, 56
1, 269902, Note_on_c, 0, 79, 66
1, 269934, Note_on_c, 0, 78, 75
1, 269934, Note_off_c, 0, 79, 60
1, 269953, Note_on_c, 0, 68, 63
1, 269967, Note_on_c, 0, 77, 75
1, 269971, Note_on_c, 0, 63, 52
1, 269974, Note_off_c, 0, 78, 64
1, 269979, Note_off_c, 0, 68, 67
1, 269989, Note_off_c, 0, 77, 68
1, 269992, Note_off_c, 0, 63, 63
1, 270106, Note_on_c, 0, 78, 72
1, 270158, Note_on_c, 0, 77, 67
1, 270183, Note_on_c, 0, 63, 74
1, 270183, Note_on_c, 0, 75, 81
1, 270187, Note_off_c, 0, 78, 63
1, 270189, Note_off_c, 0, 77, 63
1, 270191, Note_on_c, 0, 60, 66
1, 270209, Note_off_c, 0, 63, 67
1, 270215, Note_off_c, 0, 75, 68
1, 270220, Note_off_c, 0, 60, 65
1, 270328, Note_on_c, 0, 77, 69
1, 270375, Note_on_c, 0, 75, 74
1, 270380, Note_off_c, 0, 77, 61
1, 270400, Note_on_c, 0, 73, 83
1, 270403, Note_on_c, 0, 60, 72
1, 270405, Note_off_c, 0, 75, 69
1, 270407, Note_on_c, 0, 56, 70
1, 270429, Note_off_c, 0, 60, 69
1, 270433, Note_off_c, 0, 73, 65
1, 270438, Note_off_c, 0, 56, 68
1, 270546, Note_on_c, 0, 75, 69
1, 270592, Note_on_c, 0, 73, 68
1, 270594, Note_off_c, 0, 75, 62
1, 270628, Note_on_c, 0, 72, 76
1, 270633, Note_on_c, 0, 56, 78
1, 270633, Note_off_c, 0, 73, 65
1, 270634, Note_on_c, 0, 53, 73
1, 270653, Note_off_c, 0, 72, 67
1, 270658, Note_off_c, 0, 56, 66
1, 270668, Note_off_c, 0, 53, 67
1, 270745, Note_on_c, 0, 75, 67
1, 270781, Note_on_c, 0, 72, 69
1, 270801, Note_off_c, 0, 75, 64
1, 270834, Note_on_c, 0, 66, 83
1, 270836, Note_off_c, 0, 72, 62
1, 270838, Note_on_c, 0, 51, 75
1, 270843, Note_on_c, 0, 56, 72
1, 270862, Note_off_c, 0, 56, 67
1, 270871, Note_off_c, 0, 66, 67
1, 270875, Note_off_c, 0, 51, 66
1, 270947, Note_on_c, 0, 67, 79
1, 270984, Note_off_c, 0, 67, 62
1, 271076, Note_on_c, 0, 72, 81
1, 271080, Note_on_c, 0, 77, 92
1, 271081, Note_on_c, 0, 68, 97
1, 271084, Note_on_c, 0, 60, 97
1, 271089, Note_on_c, 0, 50, 89
1, 271093, Control_c, 0, 64, 59
1, 271108, Note_on_c, 0, 56, 52
1, 271108, Control_c, 0, 64, 91
1, 271117, Note_on_c, 0, 74, 41
1, 271118, Note_on_c, 0, 55, 63
1, 271123, Control_c, 0, 64, 127
1, 271138, Note_off_c, 0, 50, 62
1, 271139, Note_off_c, 0, 56, 53
1, 271139, Note_off_c, 0, 55, 63
1, 271144, Note_off_c, 0, 74, 54
1, 271173, Note_off_c, 0, 68, 61
1, 271220, Note_off_c, 0, 60, 55
1, 271236, Note_off_c, 0, 77, 34
1, 271255, Note_off_c, 0, 72, 53
1, 271336, Note_on_c, 0, 63, 74
1, 271336, Note_on_c, 0, 67, 84
1, 271338, Note_on_c, 0, 55, 67
1, 271341, Note_on_c, 0, 60, 65
1, 271345, Control_c, 0, 64, 104
1, 271357, Note_off_c, 0, 67, 70
1, 271360, Note_off_c, 0, 60, 65
1, 271360, Control_c, 0, 64, 76
1, 271361, Note_off_c, 0, 63, 69
1, 271376, Note_off_c, 0, 55, 66
1, 271382, Control_c, 0, 64, 0
1, 271436, Note_on_c, 0, 66, 82
1, 271461, Note_off_c, 0, 66, 66
1, 271570, Note_on_c, 0, 56, 83
1, 271572, Note_on_c, 0, 60, 102
1, 271572, Note_on_c, 0, 72, 84
1, 271572, Note_on_c, 0, 77, 89
1, 271574, Control_c, 0, 64, 67
1, 271575, Note_on_c, 0, 68, 95
1, 271576, Note_on_c, 0, 50, 81
1, 271589, Control_c, 0, 64, 93
1, 271604, Control_c, 0, 64, 127
1, 271616, Note_off_c, 0, 50, 61
1, 271628, Note_off_c, 0, 56, 64
1, 271630, Note_on_c, 0, 74, 6
1, 271658, Note_off_c, 0, 68, 59
1, 271679, Note_off_c, 0, 77, 51
1, 271687, Note_off_c, 0, 74, 46
1, 271699, Note_off_c, 0, 60, 54
1, 271730, Note_off_c, 0, 72, 51
1, 271813, Note_on_c, 0, 63, 76
1, 271815, Note_on_c, 0, 67, 79
1, 271816, Note_on_c, 0, 55, 60
1, 271820, Note_on_c, 0, 60, 64
1, 271843, Note_off_c, 0, 55, 64
1, 271843, Note_off_c, 0, 60, 70
1, 271844, Note_off_c, 0, 63, 64
1, 271848, Note_off_c, 0, 67, 57
1, 271857, Control_c, 0, 64, 113
1, 271872, Control_c, 0, 64, 87
1, 271887, Control_c, 0, 64, 62
1, 271895, Note_on_c, 0, 66, 73
1, 271902, Control_c, 0, 64, 0
1, 271918, Note_off_c, 0, 66, 69
1, 272045, Note_on_c, 0, 86, 102
1, 272047, Note_on_c, 0, 74, 100
1, 272049, Control_c, 0, 64, 67
1, 272064, Control_c, 0, 64, 84
1, 272079, Control_c, 0, 64, 112
1, 272094, Control_c, 0, 64, 127
1, 272100, Note_off_c, 0, 86, 59
1, 272102, Note_off_c, 0, 74, 66
1, 272158, Note_on_c, 0, 84, 82
1, 272162, Note_on_c, 0, 72, 78
1, 272182, Note_off_c, 0, 72, 72
1, 272195, Note_off_c, 0, 84, 61
1, 272264, Control_c, 0, 64, 99
1, 272279, Control_c, 0, 64, 77
1, 272285, Note_on_c, 0, 72, 74
1, 272294, Control_c, 0, 64, 0
1, 272295, Note_on_c, 0, 60, 76
1, 272314, Note_off_c, 0, 72, 68
1, 272318, Note_off_c, 0, 60, 69
1, 272456, Note_on_c, 0, 75, 63
1, 272477, Note_off_c, 0, 75, 66
1, 272484, Note_on_c, 0, 77, 67
1, 272515, Note_on_c, 0, 78, 75
1, 272521, Note_off_c, 0, 77, 62
1, 272528, Note_on_c, 0, 72, 54
1, 272537, Note_on_c, 0, 68, 47
1, 272539, Note_off_c, 0, 78, 67
1, 272549, Note_off_c, 0, 72, 61
1, 272565, Note_off_c, 0, 68, 36
1, 272677, Note_on_c, 0, 79, 73
1, 272708, Note_on_c, 0, 78, 74
1, 272720, Note_off_c, 0, 79, 60
1, 272734, Note_on_c, 0, 68, 68
1, 272737, Note_on_c, 0, 77, 85
1, 272743, Note_on_c, 0, 63, 69
1, 272758, Note_off_c, 0, 78, 62
1, 272761, Note_off_c, 0, 68, 68
1, 272764, Note_off_c, 0, 77, 61
1, 272770, Note_off_c, 0, 63, 67
1, 272892, Note_on_c, 0, 78, 71
1, 272941, Note_on_c, 0, 77, 67
1, 272960, Note_off_c, 0, 78, 61
1, 272966, Note_on_c, 0, 75, 86
1, 272971, Note_on_c, 0, 63, 76
1, 272977, Note_on_c, 0, 60, 73
1, 272981, Note_off_c, 0, 77, 63
1, 272995, Note_off_c, 0, 63, 67
1, 273002, Note_off_c, 0, 75, 65
1, 273007, Note_off_c, 0, 60, 61
1, 273113, Note_on_c, 0, 77, 72
1, 273160, Note_on_c, 0, 75, 78
1, 273171, Note_off_c, 0, 77, 59
1, 273184, Note_on_c, 0, 73, 80
1, 273185, Note_on_c, 0, 60, 73
1, 273188, Note_on_c, 0, 56, 68
1, 273198, Note_off_c, 0, 75, 65
1, 273210, Note_off_c, 0, 60, 68
1, 273214, Note_off_c, 0, 73, 63
1, 273219, Note_off_c, 0, 56, 67
1, 273330, Note_on_c, 0, 75, 67
1, 273369, Note_on_c, 0, 73, 65
1, 273373, Note_off_c, 0, 75, 60
1, 273399, Note_on_c, 0, 56, 79
1, 273402, Note_on_c, 0, 72, 72
1, 273404, Note_on_c, 0, 53, 75
1, 273408, Note_off_c, 0, 73, 64
1, 273425, Note_off_c, 0, 72, 71
1, 273426, Note_off_c, 0, 56, 65
1, 273436, Note_off_c, 0, 53, 67
1, 273512, Note_on_c, 0, 75, 63
1, 273543, Note_on_c, 0, 72, 70
1, 273566, Note_off_c, 0, 75, 60
1, 273603, Note_off_c, 0, 72, 63
1, 273604, Note_on_c, 0, 56, 69
1, 273604, Note_on_c, 0, 66, 79
1, 273606, Note_on_c, 0, 51, 68
1, 273630, Note_off_c, 0, 56, 65
1, 273643, Note_off_c, 0, 51, 64
1, 273648, Note_off_c, 0, 66, 66
1, 273722, Note_on_c, 0, 67, 80
1, 273762, Note_off_c, 0, 67, 62
1, 273843, Note_on_c, 0, 56, 73
1, 273844, Note_on_c, 0, 77, 93
1, 273845, Note_on_c, 0, 72, 93
1, 273848, Note_on_c, 0, 60, 98
1, 273848, Note_on_c, 0, 68, 96
1, 273851, Control_c, 0, 64, 62
1, 273852, Note_on_c, 0, 50, 78
1, 273866, Control_c, 0, 64, 97
1, 273875, Note_on_c, 0, 74, 52
1, 273881, Control_c, 0, 64, 127
1, 273891, Note_off_c, 0, 50, 56
1, 273902, Note_off_c, 0, 74, 52
1, 273903, Note_off_c, 0, 56, 65
1, 273931, Note_off_c, 0, 68, 57
1, 273941, Note_off_c, 0, 60, 57
1, 273949, Note_off_c, 0, 77, 50
1, 274032, Note_off_c, 0, 72, 59
1, 274078, Note_on_c, 0, 63, 75
1, 274082, Note_on_c, 0, 60, 61
1, 274084, Note_on_c, 0, 55, 60
1, 274087, Note_on_c, 0, 67, 77
1, 274093, Note_on_c, 0, 74, 13
1, 274096, Note_off_c, 0, 60, 67
1, 274102, Note_off_c, 0, 63, 68
1, 274109, Note_off_c, 0, 67, 69
1, 274111, Note_off_c, 0, 55, 67
1, 274132, Control_c, 0, 64, 102
1, 274139, Note_off_c, 0, 74, 36
1, 274148, Control_c, 0, 64, 75
1, 274163, Control_c, 0, 64, 0
1, 274183, Note_on_c, 0, 66, 77
1, 274208, Note_off_c, 0, 66, 68
1, 274293, Note_on_c, 0, 68, 83
1, 274295, Note_on_c, 0, 77, 74
1, 274297, Note_on_c, 0, 50, 65
1, 274297, Note_on_c, 0, 56, 68
1, 274299, Note_on_c, 0, 60, 91
1, 274302, Note_on_c, 0, 72, 65
1, 274311, Control_c, 0, 64, 69
1, 274314, Note_off_c, 0, 68, 70
1, 274317, Note_off_c, 0, 50, 62
1, 274319, Note_off_c, 0, 72, 66
1, 274323, Note_off_c, 0, 56, 65
1, 274326, Control_c, 0, 64, 95
1, 274328, Note_off_c, 0, 60, 58
1, 274332, Note_off_c, 0, 77, 59
1, 274341, Control_c, 0, 64, 127
1, 274468, Note_on_c, 0, 83, 74
1, 274478, Note_on_c, 0, 62, 82
1, 274506, Note_on_c, 0, 68, 82
1, 274509, Note_on_c, 0, 89, 79
1, 274516, Note_off_c, 0, 83, 59
1, 274519, Note_on_c, 0, 71, 78
1, 274525, Note_off_c, 0, 62, 63
1, 274541, Note_on_c, 0, 92, 57
1, 274556, Note_off_c, 0, 89, 0
1, 274558, Note_off_c, 0, 68, 64
1, 274565, Note_on_c, 0, 89, 75
1, 274571, Note_off_c, 0, 92, 0
1, 274574, Note_on_c, 0, 84, 101
1, 274576, Note_on_c, 0, 96, 98
1, 274578, Note_on_c, 0, 72, 102
1, 274578, Note_on_c, 0, 74, 103
1, 274582, Note_on_c, 0, 92, 65
1, 274595, Note_on_c, 0, 94, 69
1, 274602, Note_on_c, 0, 70, 48
1, 274618, Note_off_c, 0, 92, 63
1, 274622, Note_off_c, 0, 94, 68
1, 274625, Note_off_c, 0, 74, 68
1, 274626, Note_off_c, 0, 70, 57
1, 274635, Note_off_c, 0, 72, 69
1, 274644, Note_off_c, 0, 96, 66
1, 274650, Note_off_c, 0, 84, 61
1, 274651, Note_off_c, 0, 71, 25
1, 274657, Note_off_c, 0, 89, 66
1, 274689, Control_c, 0, 67, 18
1, 274704, Control_c, 0, 67, 41
1, 274719, Control_c, 0, 67, 80
1, 274734, Control_c, 0, 64, 106
1, 274734, Control_c, 0, 67, 116
1, 274749, Control_c, 0, 64, 92
1, 274749, Control_c, 0, 67, 127
1, 274764, Control_c, 0, 64, 76
1, 274779, Control_c, 0, 64, 45
1, 274793, Control_c, 0, 64, 0
1, 275198, Note_on_c, 0, 52, 55
1, 275220, Note_off_c, 0, 52, 61
1, 275292, Note_on_c, 0, 52, 65
1, 275298, Note_on_c, 0, 59, 52
1, 275307, Note_on_c, 0, 56, 44
1, 275321, Note_off_c, 0, 52, 68
1, 275321, Note_off_c, 0, 59, 59
1, 275336, Note_off_c, 0, 56, 58
1, 275357, Note_on_c, 0, 47, 67
1, 275373, Note_on_c, 0, 49, 62
1, 275382, Note_on_c, 0, 51, 64
1, 275395, Note_on_c, 0, 52, 78
1, 275399, Note_off_c, 0, 47, 63
1, 275404, Note_off_c, 0, 49, 62
1, 275409, Note_off_c, 0, 51, 65
1, 275428, Note_off_c, 0, 52, 68
1, 275506, Note_on_c, 0, 51, 60
1, 275509, Note_on_c, 0, 56, 44
1, 275521, Note_on_c, 0, 59, 32
1, 275548, Note_off_c, 0, 51, 60
1, 275560, Note_off_c, 0, 56, 62
1, 275566, Note_off_c, 0, 59, 46
1, 275634, Note_on_c, 0, 40, 67
1, 275661, Note_off_c, 0, 40, 64
1, 275748, Note_on_c, 0, 52, 44
1, 275753, Note_on_c, 0, 56, 37
1, 275758, Note_on_c, 0, 59, 26
1, 275775, Note_off_c, 0, 52, 59
1, 275781, Note_off_c, 0, 56, 58
1, 275794, Note_off_c, 0, 59, 51
1, 275867, Note_on_c, 0, 47, 60
1, 275891, Note_off_c, 0, 47, 60
1, 275965, Note_on_c, 0, 59, 42
1, 275965, Note_on_c, 0, 51, 49
1, 275977, Note_on_c, 0, 53, 51
1, 275987, Note_on_c, 0, 56, 21
1, 275996, Note_off_c, 0, 51, 63
1, 276001, Note_off_c, 0, 53, 63
1, 276015, Note_off_c, 0, 56, 47
1, 276017, Note_off_c, 0, 59, 45
1, 276093, Note_on_c, 0, 54, 55
1, 276115, Note_off_c, 0, 54, 58
1, 276198, Note_on_c, 0, 50, 46
1, 276207, Note_on_c, 0, 55, 31
1, 276227, Note_off_c, 0, 50, 54
1, 276239, Note_off_c, 0, 55, 53
1, 276311, Note_on_c, 0, 53, 67
1, 276340, Note_off_c, 0, 53, 68
1, 276425, Note_on_c, 0, 50, 52
1, 276429, Note_on_c, 0, 59, 43
1, 276457, Poly_aftertouch_c, 0, 55, 127
1, 276465, Note_off_c, 0, 50, 61
1, 276475, Note_off_c, 0, 59, 45
1, 276490, Poly_aftertouch_c, 0, 55, 0
1, 276555, Note_on_c, 0, 64, 86
1, 276577, Note_off_c, 0, 64, 69
1, 276680, Note_on_c, 0, 59, 42
1, 276693, Note_on_c, 0, 56, 25
1, 276712, Note_off_c, 0, 59, 52
1, 276719, Note_off_c, 0, 56, 47
1, 276806, Note_on_c, 0, 52, 65
1, 276834, Note_off_c, 0, 52, 67
1, 276907, Note_on_c, 0, 52, 60
1, 276917, Note_on_c, 0, 59, 47
1, 276938, Note_on_c, 0, 56, 20
1, 276940, Note_off_c, 0, 52, 64
1, 276948, Note_off_c, 0, 59, 54
1, 276967, Note_off_c, 0, 56, 45
1, 277025, Note_on_c, 0, 52, 67
1, 277055, Note_off_c, 0, 52, 67
1, 277137, Note_on_c, 0, 52, 46
1, 277142, Note_on_c, 0, 59, 31
1, 277146, Note_on_c, 0, 56, 24
1, 277164, Note_off_c, 0, 52, 55
1, 277172, Note_off_c, 0, 56, 49
1, 277175, Note_on_c, 0, 47, 71
1, 277177, Note_off_c, 0, 59, 44
1, 277193, Note_on_c, 0, 49, 64
1, 277206, Note_on_c, 0, 51, 68
1, 277223, Note_on_c, 0, 52, 89
1, 277224, Note_off_c, 0, 47, 60
1, 277233, Note_off_c, 0, 51, 63
1, 277236, Note_off_c, 0, 49, 60
1, 277259, Note_off_c, 0, 52, 67
1, 277327, Note_on_c, 0, 56, 44
1, 277328, Note_on_c, 0, 51, 53
1, 277331, Note_on_c, 0, 59, 55
1, 277382, Note_off_c, 0, 59, 57
1, 277386, Note_off_c, 0, 51, 57
1, 277392, Note_off_c, 0, 56, 60
1, 277456, Note_on_c, 0, 40, 67
1, 277486, Note_off_c, 0, 40, 64
1, 277578, Note_on_c, 0, 59, 49
1, 277579, Note_on_c, 0, 56, 45
1, 277581, Note_on_c, 0, 52, 49
1, 277608, Note_off_c, 0, 52, 59
1, 277611, Note_off_c, 0, 59, 51
1, 277614, Note_off_c, 0, 56, 62
1, 277682, Note_on_c, 0, 47, 65
1, 277712, Note_off_c, 0, 47, 66
1, 277784, Note_on_c, 0, 53, 64
1, 277793, Note_on_c, 0, 51, 49
1, 277801, Note_on_c, 0, 59, 36
1, 277802, Note_on_c, 0, 56, 40
1, 277813, Note_off_c, 0, 53, 68
1, 277819, Note_off_c, 0, 51, 56
1, 277828, Note_off_c, 0, 56, 56
1, 277845, Note_off_c, 0, 59, 46
1, 277930, Note_on_c, 0, 53, 20
1, 277934, Note_off_c, 0, 53, 41
1, 278021, Note_on_c, 0, 55, 48
1, 278028, Note_on_c, 0, 59, 38
1, 278038, Note_on_c, 0, 50, 29
1, 278056, Note_off_c, 0, 55, 64
1, 278074, Note_off_c, 0, 59, 45
1, 278075, Note_off_c, 0, 50, 43
1, 278162, Note_on_c, 0, 53, 47
1, 278191, Note_off_c, 0, 53, 36
1, 278240, Note_on_c, 0, 50, 54
1, 278250, Note_on_c, 0, 55, 35
1, 278255, Note_on_c, 0, 59, 42
1, 278275, Note_off_c, 0, 50, 62
1, 278288, Note_off_c, 0, 55, 53
1, 278294, Note_off_c, 0, 59, 54
1, 278362, Note_on_c, 0, 52, 67
1, 278390, Note_off_c, 0, 52, 68
1, 278480, Note_on_c, 0, 52, 51
1, 278487, Note_on_c, 0, 59, 46
1, 278499, Note_on_c, 0, 56, 37
1, 278510, Note_off_c, 0, 52, 68
1, 278525, Note_off_c, 0, 59, 54
1, 278529, Note_off_c, 0, 56, 59
1, 278619, Note_on_c, 0, 64, 86
1, 278660, Note_off_c, 0, 64, 60
1, 278700, Control_c, 0, 67, 108
1, 278715, Control_c, 0, 67, 81
1, 278730, Control_c, 0, 67, 51
1, 278745, Control_c, 0, 67, 24
1, 278759, Control_c, 0, 67, 0
1, 278842, Note_on_c, 0, 89, 74
1, 278856, Note_on_c, 0, 65, 76
1, 278886, Note_on_c, 0, 91, 74
1, 278890, Note_off_c, 0, 65, 67
1, 278892, Note_on_c, 0, 67, 82
1, 278909, Note_off_c, 0, 89, 63
1, 278928, Note_on_c, 0, 93, 76
1, 278930, Control_c, 0, 64, 69
1, 278935, Note_off_c, 0, 67, 62
1, 278936, Note_on_c, 0, 69, 78
1, 278937, Note_off_c, 0, 91, 61
1, 278946, Control_c, 0, 64, 83
1, 278952, Note_off_c, 0, 93, 67
1, 278961, Control_c, 0, 64, 102
1, 278976, Control_c, 0, 64, 118
1, 278985, Note_off_c, 0, 69, 62
1, 278990, Control_c, 0, 64, 120
1, 279005, Control_c, 0, 64, 122
1, 279020, Control_c, 0, 64, 127
1, 279035, Control_c, 0, 64, 127
1, 279042, Note_on_c, 0, 92, 85
1, 279050, Note_on_c, 0, 68, 80
1, 279079, Note_off_c, 0, 68, 61
1, 279098, Note_on_c, 0, 91, 81
1, 279107, Note_off_c, 0, 92, 64
1, 279120, Note_on_c, 0, 67, 73
1, 279140, Note_on_c, 0, 89, 70
1, 279142, Note_off_c, 0, 91, 59
1, 279145, Note_on_c, 0, 65, 76
1, 279145, Note_off_c, 0, 67, 66
1, 279169, Note_off_c, 0, 89, 65
1, 279170, Note_off_c, 0, 65, 68
1, 279250, Note_on_c, 0, 64, 77
1, 279256, Note_on_c, 0, 88, 72
1, 279287, Note_off_c, 0, 88, 62
1, 279292, Note_on_c, 0, 86, 72
1, 279303, Note_off_c, 0, 64, 65
1, 279310, Note_on_c, 0, 62, 72
1, 279349, Note_on_c, 0, 88, 62
1, 279353, Note_off_c, 0, 86, 63
1, 279358, Note_on_c, 0, 64, 62
1, 279389, Note_off_c, 0, 62, 61
1, 279393, Note_on_c, 0, 90, 75
1, 279394, Note_off_c, 0, 88, 62
1, 279401, Note_on_c, 0, 66, 69
1, 279410, Note_off_c, 0, 64, 65
1, 279444, Note_off_c, 0, 90, 64
1, 279447, Note_off_c, 0, 66, 63
1, 279453, Note_on_c, 0, 65, 72
1, 279456, Note_on_c, 0, 89, 78
1, 279496, Note_off_c, 0, 65, 68
1, 279513, Note_on_c, 0, 88, 77
1, 279515, Note_on_c, 0, 64, 71
1, 279536, Note_off_c, 0, 89, 63
1, 279550, Note_on_c, 0, 62, 75
1, 279552, Note_off_c, 0, 64, 62
1, 279555, Note_on_c, 0, 86, 70
1, 279561, Note_off_c, 0, 88, 63
1, 279576, Note_off_c, 0, 62, 67
1, 279592, Note_off_c, 0, 86, 61
1, 279599, Note_on_c, 0, 84, 70
1, 279631, Note_on_c, 0, 60, 78
1, 279632, Note_off_c, 0, 84, 67
1, 279680, Note_on_c, 0, 82, 74
1, 279700, Note_on_c, 0, 58, 80
1, 279720, Note_off_c, 0, 60, 53
1, 279734, Note_on_c, 0, 81, 75
1, 279744, Note_on_c, 0, 57, 70
1, 279746, Note_off_c, 0, 82, 49
1, 279779, Note_on_c, 0, 79, 70
1, 279779, Note_off_c, 0, 58, 63
1, 279789, Note_off_c, 0, 81, 60
1, 279807, Note_off_c, 0, 57, 63
1, 279813, Note_on_c, 0, 55, 58
1, 279825, Note_on_c, 0, 77, 72
1, 279825, Note_off_c, 0, 79, 65
1, 279828, Note_on_c, 0, 53, 73
1, 279834, Note_off_c, 0, 55, 65
1, 279854, Note_off_c, 0, 77, 62
1, 279885, Note_on_c, 0, 55, 71
1, 279891, Note_on_c, 0, 76, 77
1, 279912, Note_off_c, 0, 53, 63
1, 279922, Note_on_c, 0, 56, 75
1, 279939, Note_on_c, 0, 74, 63
1, 279946, Note_off_c, 0, 76, 67
1, 279950, Note_off_c, 0, 55, 63
1, 279977, Note_off_c, 0, 56, 63
1, 279978, Note_on_c, 0, 62, 72
1, 279988, Note_off_c, 0, 74, 66
1, 279992, Note_on_c, 0, 72, 64
1, 280003, Note_off_c, 0, 62, 68
1, 280030, Note_off_c, 0, 72, 63
1, 280049, Note_on_c, 0, 71, 77
1, 280063, Note_on_c, 0, 63, 62
1, 280067, Note_on_c, 0, 64, 69
1, 280083, Note_off_c, 0, 63, 63
1, 280092, Note_on_c, 0, 72, 71
1, 280112, Note_on_c, 0, 66, 85
1, 280119, Note_off_c, 0, 71, 60
1, 280124, Note_off_c, 0, 64, 62
1, 280129, Note_on_c, 0, 74, 70
1, 280140, Note_off_c, 0, 66, 66
1, 280142, Note_off_c, 0, 72, 66
1, 280153, Control_c, 0, 64, 116
1, 280160, Note_off_c, 0, 74, 64
1, 280168, Control_c, 0, 64, 82
1, 280182, Control_c, 0, 64, 0
1, 280233, Note_on_c, 0, 75, 83
1, 280240, Note_on_c, 0, 48, 85
1, 280243, Note_on_c, 0, 36, 79
1, 280256, Control_c, 0, 64, 65
1, 280265, Note_off_c, 0, 36, 67
1, 280265, Note_off_c, 0, 48, 70
1, 280271, Control_c, 0, 64, 83
1, 280286, Control_c, 0, 64, 111
1, 280301, Control_c, 0, 64, 127
1, 280364, Note_on_c, 0, 63, 76
1, 280370, Note_on_c, 0, 67, 63
1, 280371, Note_on_c, 0, 72, 62
1, 280398, Note_off_c, 0, 63, 60
1, 280406, Note_off_c, 0, 67, 61
1, 280444, Note_off_c, 0, 72, 62
1, 280456, Control_c, 0, 64, 100
1, 280471, Control_c, 0, 64, 79
1, 280486, Control_c, 0, 64, 37
1, 280492, Note_on_c, 0, 62, 88
1, 280501, Control_c, 0, 64, 0
1, 280516, Note_off_c, 0, 62, 67
1, 280590, Note_on_c, 0, 65, 72
1, 280590, Note_on_c, 0, 72, 69
1, 280604, Note_on_c, 0, 68, 58
1, 280616, Note_off_c, 0, 65, 69
1, 280642, Note_off_c, 0, 68, 63
1, 280678, Note_off_c, 0, 72, 57
1, 280703, Note_on_c, 0, 63, 84
1, 280724, Note_off_c, 0, 63, 73
1, 280803, Note_on_c, 0, 68, 77
1, 280804, Note_off_c, 0, 75, 57
1, 280810, Note_on_c, 0, 67, 68
1, 280813, Note_on_c, 0, 72, 67
1, 280836, Note_off_c, 0, 67, 67
1, 280839, Note_off_c, 0, 68, 64
1, 280839, Note_off_c, 0, 72, 69
1, 280945, Note_on_c, 0, 53, 97
1, 280945, Note_on_c, 0, 60, 99
1, 280947, Note_on_c, 0, 41, 83
1, 280949, Note_on_c, 0, 57, 97
1, 280961, Control_c, 0, 64, 63
1, 280976, Control_c, 0, 64, 81
1, 280977, Note_off_c, 0, 41, 70
1, 280988, Note_off_c, 0, 60, 55
1, 280991, Note_off_c, 0, 57, 61
1, 280991, Control_c, 0, 64, 103
1, 280992, Note_off_c, 0, 53, 69
1, 281005, Control_c, 0, 64, 127
1, 281220, Control_c, 0, 64, 115
1, 281235, Control_c, 0, 64, 96
1, 281250, Control_c, 0, 64, 76
1, 281265, Control_c, 0, 64, 0
1, 281321, Note_on_c, 0, 89, 72
1, 281325, Note_on_c, 0, 65, 74
1, 281352, Note_on_c, 0, 91, 82
1, 281352, Note_on_c, 0, 67, 79
1, 281370, Control_c, 0, 64, 44
1, 281376, Note_off_c, 0, 89, 66
1, 281385, Control_c, 0, 64, 72
1, 281390, Note_on_c, 0, 93, 80
1, 281391, Note_on_c, 0, 69, 84
1, 281392, Note_off_c, 0, 65, 65
1, 281399, Control_c, 0, 64, 91
1, 281402, Note_off_c, 0, 91, 63
1, 281406, Note_off_c, 0, 67, 64
1, 281413, Note_off_c, 0, 93, 68
1, 281414, Control_c, 0, 64, 127
1, 281428, Note_off_c, 0, 69, 64
1, 281513, Note_on_c, 0, 92, 76
1, 281519, Note_on_c, 0, 68, 80
1, 281555, Note_on_c, 0, 91, 80
1, 281561, Note_off_c, 0, 68, 58
1, 281562, Note_on_c, 0, 67, 75
1, 281567, Note_on_c, 0, 69, 45
1, 281578, Note_off_c, 0, 92, 64
1, 281593, Note_on_c, 0, 89, 68
1, 281596, Note_off_c, 0, 69, 51
1, 281605, Note_on_c, 0, 65, 73
1, 281608, Note_off_c, 0, 91, 60
1, 281619, Note_off_c, 0, 67, 63
1, 281621, Note_off_c, 0, 89, 66
1, 281631, Note_off_c, 0, 65, 63
1, 281674, Note_on_c, 0, 88, 77
1, 281697, Note_on_c, 0, 64, 83
1, 281704, Note_off_c, 0, 88, 62
1, 281738, Note_on_c, 0, 86, 76
1, 281754, Note_on_c, 0, 62, 84
1, 281761, Note_off_c, 0, 64, 60
1, 281775, Note_on_c, 0, 85, 74
1, 281796, Note_on_c, 0, 60, 65
1, 281802, Note_off_c, 0, 86, 58
1, 281820, Note_off_c, 0, 85, 61
1, 281824, Note_on_c, 0, 82, 73
1, 281831, Note_off_c, 0, 62, 62
1, 281857, Note_off_c, 0, 60, 61
1, 281867, Note_off_c, 0, 82, 61
1, 281872, Note_on_c, 0, 57, 71
1, 281884, Note_on_c, 0, 81, 60
1, 281910, Note_off_c, 0, 81, 48
1, 281948, Note_on_c, 0, 59, 70
1, 281950, Note_on_c, 0, 81, 47
1, 281955, Note_off_c, 0, 57, 61
1, 281972, Note_off_c, 0, 81, 59
1, 281975, Note_off_c, 0, 59, 65
1, 281982, Note_on_c, 0, 62, 62
1, 281999, Note_on_c, 0, 72, 80
1, 282005, Note_off_c, 0, 62, 62
1, 282048, Note_off_c, 0, 72, 64
1, 282052, Note_on_c, 0, 63, 73
1, 282052, Note_on_c, 0, 71, 79
1, 282091, Note_off_c, 0, 63, 61
1, 282096, Note_on_c, 0, 64, 42
1, 282098, Note_on_c, 0, 72, 60
1, 282124, Note_off_c, 0, 71, 62
1, 282132, Note_on_c, 0, 66, 71
1, 282132, Note_on_c, 0, 74, 75
1, 282138, Note_off_c, 0, 64, 62
1, 282140, Note_off_c, 0, 72, 62
1, 282151, Note_off_c, 0, 66, 70
1, 282157, Note_off_c, 0, 74, 67
1, 282178, Control_c, 0, 64, 110
1, 282193, Control_c, 0, 64, 78
1, 282207, Control_c, 0, 64, 0
1, 282243, Note_on_c, 0, 75, 86
1, 282252, Note_on_c, 0, 36, 79
1, 282275, Note_off_c, 0, 36, 67
1, 282282, Control_c, 0, 64, 62
1, 282297, Control_c, 0, 64, 76
1, 282312, Control_c, 0, 64, 87
1, 282326, Control_c, 0, 64, 95
1, 282363, Note_on_c, 0, 63, 77
1, 282363, Note_on_c, 0, 67, 63
1, 282363, Note_on_c, 0, 72, 65
1, 282371, Control_c, 0, 64, 92
1, 282386, Control_c, 0, 64, 85
1, 282398, Note_off_c, 0, 63, 61
1, 282401, Control_c, 0, 64, 75
1, 282404, Note_off_c, 0, 67, 62
1, 282415, Control_c, 0, 64, 63
1, 282430, Control_c, 0, 64, 0
1, 282438, Note_off_c, 0, 72, 62
1, 282496, Note_on_c, 0, 50, 79
1, 282496, Note_on_c, 0, 62, 77
1, 282514, Note_off_c, 0, 62, 67
1, 282524, Note_off_c, 0, 50, 67
1, 282596, Note_on_c, 0, 65, 73
1, 282597, Note_on_c, 0, 72, 66
1, 282616, Note_on_c, 0, 68, 62
1, 282631, Note_off_c, 0, 65, 69
1, 282653, Note_off_c, 0, 68, 62
1, 282694, Note_off_c, 0, 72, 54
1, 282726, Note_on_c, 0, 48, 92
1, 282727, Note_on_c, 0, 36, 76
1, 282750, Note_off_c, 0, 36, 66
1, 282756, Note_off_c, 0, 48, 70
1, 282827, Note_on_c, 0, 63, 80
1, 282830, Note_on_c, 0, 72, 70
1, 282839, Note_on_c, 0, 68, 67
1, 282852, Note_off_c, 0, 63, 67
1, 282872, Note_off_c, 0, 68, 60
1, 282904, Note_off_c, 0, 72, 59
1, 282937, Note_on_c, 0, 66, 88
1, 282941, Note_on_c, 0, 54, 82
1, 282955, Note_off_c, 0, 66, 73
1, 282972, Note_off_c, 0, 54, 63
1, 283049, Note_on_c, 0, 64, 81
1, 283051, Note_on_c, 0, 72, 69
1, 283061, Note_on_c, 0, 69, 64
1, 283089, Note_off_c, 0, 64, 56
1, 283112, Note_off_c, 0, 69, 61
1, 283131, Note_off_c, 0, 72, 61
1, 283172, Note_on_c, 0, 36, 76
1, 283172, Note_on_c, 0, 48, 95
1, 283196, Note_off_c, 0, 36, 66
1, 283205, Note_off_c, 0, 48, 69
1, 283275, Note_on_c, 0, 65, 80
1, 283276, Note_on_c, 0, 72, 72
1, 283283, Note_on_c, 0, 69, 70
1, 283304, Note_off_c, 0, 65, 62
1, 283328, Note_off_c, 0, 69, 63
1, 283362, Note_off_c, 0, 72, 61
1, 283398, Note_on_c, 0, 56, 81
1, 283400, Note_on_c, 0, 68, 77
1, 283415, Note_off_c, 0, 68, 68
1, 283425, Note_off_c, 0, 56, 63
1, 283428, Note_on_c, 0, 66, 39
1, 283443, Note_off_c, 0, 66, 42
1, 283453, Note_on_c, 0, 55, 15
1, 283501, Note_off_c, 0, 55, 29
1, 283505, Note_on_c, 0, 70, 77
1, 283510, Note_on_c, 0, 72, 63
1, 283521, Note_on_c, 0, 66, 68
1, 283540, Note_off_c, 0, 66, 62
1, 283574, Note_off_c, 0, 70, 62
1, 283585, Note_off_c, 0, 72, 64
1, 283624, Note_on_c, 0, 48, 99
1, 283628, Note_on_c, 0, 36, 80
1, 283650, Note_off_c, 0, 36, 67
1, 283665, Note_off_c, 0, 48, 65
1, 283728, Note_on_c, 0, 67, 85
1, 283731, Note_on_c, 0, 72, 72
1, 283733, Note_on_c, 0, 68, 78
1, 283765, Note_off_c, 0, 67, 63
1, 283799, Note_off_c, 0, 68, 59
1, 283807, Note_off_c, 0, 72, 62
1, 283865, Note_on_c, 0, 71, 103
1, 283868, Note_on_c, 0, 59, 81
1, 283904, Note_off_c, 0, 71, 60
1, 283909, Note_off_c, 0, 59, 65
1, 283911, Control_c, 0, 64, 61
1, 283926, Control_c, 0, 64, 89
1, 283941, Control_c, 0, 64, 127
1, 283960, Note_on_c, 0, 68, 106
1, 283960, Note_on_c, 0, 72, 86
1, 283966, Note_on_c, 0, 69, 87
1, 284003, Note_off_c, 0, 75, 57
1, 284011, Note_off_c, 0, 68, 63
1, 284025, Note_off_c, 0, 69, 65
1, 284031, Note_off_c, 0, 72, 65
1, 284156, Control_c, 0, 64, 109
1, 284171, Control_c, 0, 64, 86
1, 284185, Control_c, 0, 64, 55
1, 284185, Control_c, 0, 67, 15
1, 284200, Control_c, 0, 64, 0
1, 284200, Control_c, 0, 67, 33
1, 284215, Control_c, 0, 67, 62
1, 284229, Control_c, 0, 67, 103
1, 284244, Control_c, 0, 67, 127
1, 284505, Note_on_c, 0, 60, 64
1, 284533, Note_off_c, 0, 60, 65
1, 284604, Note_on_c, 0, 60, 62
1, 284608, Note_on_c, 0, 67, 54
1, 284622, Note_on_c, 0, 64, 38
1, 284628, Note_off_c, 0, 60, 64
1, 284630, Note_off_c, 0, 67, 59
1, 284651, Note_off_c, 0, 64, 47
1, 284660, Note_on_c, 0, 55, 56
1, 284675, Note_on_c, 0, 59, 65
1, 284677, Note_on_c, 0, 57, 47
1, 284694, Note_on_c, 0, 60, 83
1, 284699, Note_off_c, 0, 55, 64
1, 284703, Note_off_c, 0, 57, 61
1, 284707, Note_off_c, 0, 59, 63
1, 284724, Note_off_c, 0, 60, 62
1, 284807, Note_on_c, 0, 67, 62
1, 284809, Note_on_c, 0, 59, 60
1, 284816, Note_on_c, 0, 64, 51
1, 284831, Note_off_c, 0, 59, 59
1, 284832, Note_off_c, 0, 67, 55
1, 284840, Note_off_c, 0, 64, 61
1, 284941, Note_on_c, 0, 48, 73
1, 284968, Note_off_c, 0, 48, 67
1, 285044, Note_on_c, 0, 67, 61
1, 285048, Note_on_c, 0, 64, 56
1, 285056, Note_on_c, 0, 60, 50
1, 285075, Note_off_c, 0, 67, 54
1, 285077, Note_off_c, 0, 64, 60
1, 285079, Note_off_c, 0, 60, 57
1, 285163, Note_on_c, 0, 55, 69
1, 285184, Note_off_c, 0, 55, 63
1, 285256, Note_on_c, 0, 67, 57
1, 285258, Note_on_c, 0, 61, 66
1, 285263, Note_on_c, 0, 59, 47
1, 285283, Note_off_c, 0, 67, 54
1, 285284, Note_off_c, 0, 61, 65
1, 285288, Note_off_c, 0, 59, 56
1, 285379, Note_on_c, 0, 62, 62
1, 285398, Note_off_c, 0, 62, 61
1, 285480, Note_on_c, 0, 67, 55
1, 285496, Note_on_c, 0, 58, 45
1, 285519, Note_off_c, 0, 67, 61
1, 285520, Note_off_c, 0, 58, 58
1, 285603, Note_on_c, 0, 61, 73
1, 285629, Note_off_c, 0, 61, 66
1, 285707, Note_on_c, 0, 67, 52
1, 285725, Note_on_c, 0, 63, 34
1, 285738, Note_on_c, 0, 58, 17
1, 285754, Note_off_c, 0, 67, 55
1, 285765, Note_off_c, 0, 63, 48
1, 285771, Note_off_c, 0, 58, 45
1, 285850, Note_on_c, 0, 72, 87
1, 285868, Note_off_c, 0, 72, 72
1, 285956, Note_on_c, 0, 67, 49
1, 285973, Note_on_c, 0, 64, 41
1, 285983, Note_on_c, 0, 60, 22
1, 285993, Note_off_c, 0, 67, 53
1, 286003, Note_off_c, 0, 64, 57
1, 286010, Note_off_c, 0, 60, 45
1, 286085, Note_on_c, 0, 60, 83
1, 286110, Note_off_c, 0, 60, 63
1, 286208, Note_on_c, 0, 64, 56
1, 286209, Note_on_c, 0, 67, 55
1, 286217, Note_on_c, 0, 60, 52
1, 286229, Note_off_c, 0, 64, 60
1, 286233, Note_off_c, 0, 67, 56
1, 286238, Note_off_c, 0, 60, 57
1, 286319, Note_on_c, 0, 60, 65
1, 286357, Note_off_c, 0, 60, 63
1, 286428, Note_on_c, 0, 67, 59
1, 286440, Note_on_c, 0, 64, 42
1, 286446, Note_on_c, 0, 60, 41
1, 286453, Note_off_c, 0, 67, 56
1, 286465, Note_off_c, 0, 64, 57
1, 286476, Note_off_c, 0, 60, 35
1, 286482, Note_on_c, 0, 55, 65
1, 286502, Note_on_c, 0, 57, 58
1, 286512, Note_on_c, 0, 59, 66
1, 286528, Note_off_c, 0, 55, 61
1, 286533, Note_on_c, 0, 60, 84
1, 286534, Note_off_c, 0, 57, 63
1, 286542, Note_off_c, 0, 59, 64
1, 286553, Note_off_c, 0, 60, 70
1, 286644, Note_on_c, 0, 67, 63
1, 286646, Note_on_c, 0, 59, 62
1, 286649, Note_on_c, 0, 64, 61
1, 286681, Note_off_c, 0, 59, 59
1, 286688, Note_off_c, 0, 64, 63
1, 286691, Note_off_c, 0, 67, 55
1, 286762, Note_on_c, 0, 48, 69
1, 286782, Note_off_c, 0, 48, 67
1, 286870, Note_on_c, 0, 64, 55
1, 286873, Note_on_c, 0, 67, 55
1, 286876, Note_on_c, 0, 60, 54
1, 286899, Note_off_c, 0, 60, 58
1, 286900, Note_off_c, 0, 67, 54
1, 286902, Note_off_c, 0, 64, 58
1, 286981, Note_on_c, 0, 55, 65
1, 287001, Note_off_c, 0, 55, 64
1, 287078, Note_on_c, 0, 61, 67
1, 287087, Note_on_c, 0, 59, 50
1, 287112, Note_off_c, 0, 61, 65
1, 287117, Note_on_c, 0, 67, 23
1, 287123, Note_off_c, 0, 59, 54
1, 287154, Note_off_c, 0, 67, 48
1, 287203, Note_on_c, 0, 62, 68
1, 287224, Note_off_c, 0, 62, 62
1, 287311, Note_on_c, 0, 67, 50
1, 287314, Note_on_c, 0, 63, 56
1, 287335, Note_on_c, 0, 58, 36
1, 287336, Note_off_c, 0, 67, 55
1, 287355, Note_off_c, 0, 63, 62
1, 287364, Note_off_c, 0, 58, 53
1, 287430, Note_on_c, 0, 61, 67
1, 287455, Note_off_c, 0, 61, 65
1, 287535, Note_on_c, 0, 67, 52
1, 287538, Note_on_c, 0, 63, 49
1, 287555, Note_on_c, 0, 58, 12
1, 287566, Note_off_c, 0, 67, 56
1, 287573, Note_off_c, 0, 63, 62
1, 287578, Note_off_c, 0, 58, 45
1, 287665, Note_on_c, 0, 60, 66
1, 287693, Note_off_c, 0, 60, 67
1, 287755, Note_on_c, 0, 67, 57
1, 287767, Note_on_c, 0, 64, 42
1, 287784, Note_off_c, 0, 67, 54
1, 287791, Note_off_c, 0, 64, 57
1, 287819, Control_c, 0, 67, 112
1, 287834, Control_c, 0, 67, 93
1, 287856, Control_c, 0, 67, 71
1, 287871, Control_c, 0, 67, 49
1, 287886, Control_c, 0, 67, 24
1, 287901, Control_c, 0, 67, 0
1, 287931, Note_on_c, 0, 72, 68
1, 287946, Note_off_c, 0, 72, 69
1, 288230, Note_on_c, 0, 73, 92
1, 288232, Note_on_c, 0, 64, 90
1, 288235, Note_on_c, 0, 69, 80
1, 288256, Control_c, 0, 64, 54
1, 288262, Note_off_c, 0, 64, 64
1, 288266, Note_off_c, 0, 69, 58
1, 288270, Control_c, 0, 64, 77
1, 288285, Control_c, 0, 64, 95
1, 288294, Note_off_c, 0, 73, 61
1, 288300, Control_c, 0, 64, 127
1, 288329, Note_on_c, 0, 65, 98
1, 288369, Note_off_c, 0, 65, 70
1, 288456, Note_on_c, 0, 53, 98
1, 288464, Control_c, 0, 64, 120
1, 288478, Control_c, 0, 64, 99
1, 288491, Note_off_c, 0, 53, 66
1, 288493, Control_c, 0, 64, 76
1, 288508, Control_c, 0, 64, 0
1, 288691, Note_on_c, 0, 73, 57
1, 288709, Note_on_c, 0, 69, 91
1, 288744, Note_off_c, 0, 73, 63
1, 288747, Note_off_c, 0, 69, 67
1, 288801, Note_on_c, 0, 65, 87
1, 288830, Note_off_c, 0, 65, 65
1, 289033, Note_on_c, 0, 73, 79
1, 289035, Note_on_c, 0, 69, 78
1, 289036, Note_on_c, 0, 64, 84
1, 289060, Note_off_c, 0, 64, 69
1, 289067, Note_off_c, 0, 69, 61
1, 289078, Note_off_c, 0, 73, 61
1, 289156, Note_on_c, 0, 73, 94
1, 289157, Note_on_c, 0, 64, 92
1, 289161, Note_on_c, 0, 69, 86
1, 289183, Control_c, 0, 64, 63
1, 289197, Control_c, 0, 64, 74
1, 289203, Note_off_c, 0, 64, 63
1, 289212, Control_c, 0, 64, 84
1, 289220, Note_off_c, 0, 69, 60
1, 289225, Note_off_c, 0, 73, 62
1, 289227, Control_c, 0, 64, 93
1, 289242, Control_c, 0, 64, 95
1, 289256, Note_on_c, 0, 65, 92
1, 289257, Control_c, 0, 64, 96
1, 289298, Note_off_c, 0, 65, 66
1, 289369, Control_c, 0, 64, 96
1, 289381, Note_on_c, 0, 53, 89
1, 289384, Control_c, 0, 64, 91
1, 289398, Control_c, 0, 64, 81
1, 289413, Control_c, 0, 64, 66
1, 289415, Note_off_c, 0, 53, 68
1, 289428, Control_c, 0, 64, 0
1, 289563, Note_on_c, 0, 73, 51
1, 289592, Note_on_c, 0, 69, 81
1, 289624, Note_off_c, 0, 73, 64
1, 289635, Note_off_c, 0, 69, 65
1, 289692, Note_on_c, 0, 65, 85
1, 289718, Note_off_c, 0, 65, 68
1, 289909, Note_on_c, 0, 73, 78
1, 289914, Note_on_c, 0, 64, 74
1, 289915, Note_on_c, 0, 69, 71
1, 289952, Note_off_c, 0, 64, 57
1, 289970, Note_off_c, 0, 69, 56
1, 289977, Note_off_c, 0, 73, 57
1, 290028, Note_on_c, 0, 65, 95
1, 290072, Note_off_c, 0, 65, 67
1, 290142, Note_on_c, 0, 53, 76
1, 290172, Note_off_c, 0, 53, 69
1, 290260, Note_on_c, 0, 73, 79
1, 290264, Note_on_c, 0, 64, 78
1, 290267, Note_on_c, 0, 69, 69
1, 290296, Note_off_c, 0, 64, 60
1, 290308, Note_off_c, 0, 69, 57
1, 290323, Note_off_c, 0, 73, 61
1, 290360, Note_on_c, 0, 65, 85
1, 290398, Note_off_c, 0, 65, 69
1, 290465, Note_on_c, 0, 53, 77
1, 290497, Note_off_c, 0, 53, 67
1, 290566, Note_on_c, 0, 73, 83
1, 290573, Note_on_c, 0, 69, 78
1, 290574, Note_on_c, 0, 64, 80
1, 290605, Note_off_c, 0, 64, 61
1, 290620, Note_off_c, 0, 69, 58
1, 290626, Note_off_c, 0, 73, 63
1, 290679, Note_on_c, 0, 65, 84
1, 290719, Note_off_c, 0, 65, 68
1, 290782, Note_on_c, 0, 53, 76
1, 290816, Note_off_c, 0, 53, 66
1, 290902, Note_on_c, 0, 73, 86
1, 290906, Note_on_c, 0, 64, 85
1, 290910, Note_on_c, 0, 69, 75
1, 290940, Note_off_c, 0, 64, 62
1, 290940, Note_off_c, 0, 69, 63
1, 290960, Note_off_c, 0, 73, 61
1, 291001, Note_on_c, 0, 65, 78
1, 291031, Note_off_c, 0, 65, 65
1, 291104, Note_on_c, 0, 73, 86
1, 291109, Note_on_c, 0, 64, 84
1, 291116, Note_on_c, 0, 69, 69
1, 291133, Note_off_c, 0, 64, 69
1, 291144, Note_off_c, 0, 69, 67
1, 291165, Note_off_c, 0, 73, 60
1, 291199, Note_on_c, 0, 65, 87
1, 291238, Note_off_c, 0, 65, 66
1, 291310, Note_on_c, 0, 53, 89
1, 291356, Note_off_c, 0, 53, 64
1, 291376, Note_on_c, 0, 73, 68
1, 291406, Note_on_c, 0, 69, 79
1, 291436, Note_off_c, 0, 73, 64
1, 291442, Note_off_c, 0, 69, 67
1, 291499, Note_on_c, 0, 65, 89
1, 291537, Note_off_c, 0, 65, 67
1, 291602, Note_on_c, 0, 53, 79
1, 291642, Note_off_c, 0, 53, 67
1, 291717, Note_on_c, 0, 74, 81
1, 291717, Note_on_c, 0, 79, 86
1, 291718, Note_on_c, 0, 65, 91
1, 291719, Note_on_c, 0, 71, 86
1, 291747, Note_on_c, 0, 76, 49
1, 291764, Control_c, 0, 64, 69
1, 291770, Note_off_c, 0, 76, 60
1, 291774, Note_off_c, 0, 65, 64
1, 291779, Control_c, 0, 64, 83
1, 291785, Note_off_c, 0, 71, 60
1, 291792, Note_off_c, 0, 74, 64
1, 291793, Control_c, 0, 64, 98
1, 291803, Note_off_c, 0, 79, 61
1, 291808, Control_c, 0, 64, 106
1, 291815, Note_on_c, 0, 66, 89
1, 291850, Note_off_c, 0, 66, 63
1, 291912, Control_c, 0, 64, 105
1, 291923, Note_on_c, 0, 53, 76
1, 291926, Control_c, 0, 64, 104
1, 291941, Control_c, 0, 64, 102
1, 291956, Control_c, 0, 64, 100
1, 291959, Note_off_c, 0, 53, 64
1, 291970, Control_c, 0, 64, 96
1, 291985, Control_c, 0, 64, 90
1, 292000, Control_c, 0, 64, 82
1, 292015, Control_c, 0, 64, 68
1, 292018, Note_on_c, 0, 65, 87
1, 292020, Note_on_c, 0, 79, 74
1, 292020, Note_on_c, 0, 74, 73
1, 292026, Note_on_c, 0, 71, 68
1, 292030, Control_c, 0, 64, 0
1, 292049, Note_off_c, 0, 65, 67
1, 292068, Note_off_c, 0, 71, 59
1, 292068, Note_off_c, 0, 74, 62
1, 292082, Note_off_c, 0, 79, 62
1, 292130, Note_on_c, 0, 74, 75
1, 292131, Note_on_c, 0, 71, 76
1, 292132, Note_on_c, 0, 65, 85
1, 292141, Note_on_c, 0, 79, 46
1, 292149, Control_c, 0, 64, 50
1, 292152, Note_off_c, 0, 65, 72
1, 292163, Control_c, 0, 64, 68
1, 292167, Note_on_c, 0, 77, 18
1, 292172, Note_off_c, 0, 71, 60
1, 292176, Note_off_c, 0, 74, 63
1, 292178, Control_c, 0, 64, 75
1, 292181, Note_off_c, 0, 79, 57
1, 292193, Control_c, 0, 64, 81
1, 292208, Note_off_c, 0, 77, 30
1, 292208, Control_c, 0, 64, 83
1, 292223, Control_c, 0, 64, 83
1, 292229, Note_on_c, 0, 74, 79
1, 292232, Note_on_c, 0, 71, 75
1, 292235, Note_on_c, 0, 65, 83
1, 292273, Note_off_c, 0, 65, 65
1, 292278, Note_off_c, 0, 74, 64
1, 292290, Note_off_c, 0, 71, 61
1, 292311, Control_c, 0, 64, 83
1, 292338, Note_on_c, 0, 66, 80
1, 292348, Control_c, 0, 64, 82
1, 292363, Control_c, 0, 64, 80
1, 292367, Note_off_c, 0, 66, 67
1, 292378, Control_c, 0, 64, 78
1, 292393, Control_c, 0, 64, 74
1, 292408, Control_c, 0, 64, 69
1, 292414, Note_on_c, 0, 53, 70
1, 292423, Control_c, 0, 64, 54
1, 292437, Control_c, 0, 64, 0
1, 292465, Note_off_c, 0, 53, 66
1, 292535, Note_on_c, 0, 59, 96
1, 292535, Note_on_c, 0, 62, 96
1, 292535, Note_on_c, 0, 67, 92
1, 292571, Note_off_c, 0, 59, 60
1, 292572, Control_c, 0, 64, 47
1, 292581, Note_off_c, 0, 62, 60
1, 292586, Control_c, 0, 64, 64
1, 292587, Note_off_c, 0, 67, 63
1, 292601, Control_c, 0, 64, 65
1, 292620, Note_on_c, 0, 54, 83
1, 292631, Control_c, 0, 64, 65
1, 292660, Control_c, 0, 64, 64
1, 292661, Note_off_c, 0, 54, 62
1, 292723, Note_on_c, 0, 41, 76
1, 292749, Control_c, 0, 64, 64
1, 292756, Note_off_c, 0, 41, 68
1, 292843, Note_on_c, 0, 74, 75
1, 292847, Note_on_c, 0, 71, 79
1, 292848, Note_on_c, 0, 79, 85
1, 292867, Control_c, 0, 64, 63
1, 292882, Control_c, 0, 64, 62
1, 292897, Control_c, 0, 64, 61
1, 292903, Note_off_c, 0, 79, 63
1, 292912, Control_c, 0, 64, 61
1, 292916, Note_off_c, 0, 74, 64
1, 292917, Note_off_c, 0, 71, 57
1, 292927, Control_c, 0, 64, 60
1, 292941, Note_on_c, 0, 66, 85
1, 292941, Control_c, 0, 64, 58
1, 292956, Control_c, 0, 64, 57
1, 292971, Control_c, 0, 64, 55
1, 292974, Note_off_c, 0, 66, 68
1, 292986, Control_c, 0, 64, 53
1, 293001, Control_c, 0, 64, 52
1, 293016, Control_c, 0, 64, 50
1, 293031, Control_c, 0, 64, 50
1, 293036, Note_on_c, 0, 53, 84
1, 293046, Control_c, 0, 64, 49
1, 293060, Control_c, 0, 64, 48
1, 293073, Note_off_c, 0, 53, 69
1, 293075, Control_c, 0, 64, 43
1, 293097, Control_c, 0, 64, 36
1, 293112, Control_c, 0, 64, 34
1, 293136, Note_on_c, 0, 72, 80
1, 293142, Note_on_c, 0, 63, 78
1, 293144, Note_on_c, 0, 68, 74
1, 293156, Control_c, 0, 64, 33
1, 293163, Note_off_c, 0, 72, 61
1, 293166, Note_off_c, 0, 63, 69
1, 293170, Note_off_c, 0, 68, 68
1, 293171, Control_c, 0, 64, 30
1, 293186, Control_c, 0, 64, 23
1, 293201, Control_c, 0, 64, 22
1, 293216, Control_c, 0, 64, 16
1, 293231, Control_c, 0, 64, 0
1, 293242, Note_on_c, 0, 73, 81
1, 293246, Note_on_c, 0, 64, 82
1, 293249, Note_on_c, 0, 69, 78
1, 293271, Note_off_c, 0, 64, 65
1, 293285, Note_off_c, 0, 69, 56
1, 293299, Note_off_c, 0, 73, 64
1, 293361, Note_on_c, 0, 65, 92
1, 293404, Note_off_c, 0, 65, 67
1, 293457, Note_on_c, 0, 53, 78
1, 293486, Note_off_c, 0, 53, 68
1, 293554, Note_on_c, 0, 73, 57
1, 293573, Note_on_c, 0, 69, 77
1, 293603, Note_off_c, 0, 69, 62
1, 293606, Note_off_c, 0, 73, 62
1, 293667, Note_on_c, 0, 65, 87
1, 293708, Note_off_c, 0, 65, 67
1, 293771, Note_on_c, 0, 53, 84
1, 293814, Note_off_c, 0, 53, 66
1, 293883, Note_on_c, 0, 69, 79
1, 293884, Note_on_c, 0, 73, 80
1, 293885, Note_on_c, 0, 64, 77
1, 293907, Note_off_c, 0, 64, 71
1, 293925, Note_off_c, 0, 69, 64
1, 293942, Note_off_c, 0, 73, 63
1, 293982, Note_on_c, 0, 65, 83
1, 294008, Note_off_c, 0, 65, 70
1, 294059, Note_on_c, 0, 53, 74
1, 294113, Note_off_c, 0, 53, 63
1, 294123, Note_on_c, 0, 61, 77
1, 294144, Note_off_c, 0, 61, 67
1, 294197, Note_on_c, 0, 76, 71
1, 294202, Note_on_c, 0, 71, 47
1, 294206, Note_on_c, 0, 72, 56
1, 294211, Note_on_c, 0, 74, 45
1, 294223, Note_off_c, 0, 76, 59
1, 294225, Note_off_c, 0, 72, 65
1, 294226, Note_off_c, 0, 71, 60
1, 294232, Note_off_c, 0, 74, 56
1, 294290, Note_on_c, 0, 65, 78
1, 294334, Note_off_c, 0, 65, 62
1, 294398, Note_on_c, 0, 74, 76
1, 294399, Note_on_c, 0, 70, 80
1, 294402, Note_on_c, 0, 63, 81
1, 294426, Note_off_c, 0, 63, 67
1, 294435, Note_off_c, 0, 70, 62
1, 294456, Note_off_c, 0, 74, 62
1, 294486, Note_on_c, 0, 65, 74
1, 294517, Note_off_c, 0, 65, 66
1, 294596, Note_on_c, 0, 53, 82
1, 294637, Note_off_c, 0, 53, 67
1, 294700, Note_on_c, 0, 64, 83
1, 294702, Note_on_c, 0, 69, 80
1, 294702, Note_on_c, 0, 73, 79
1, 294721, Note_off_c, 0, 64, 72
1, 294735, Note_off_c, 0, 69, 67
1, 294755, Note_off_c, 0, 73, 65
1, 294812, Note_on_c, 0, 65, 84
1, 294854, Note_off_c, 0, 65, 66
1, 294897, Note_on_c, 0, 53, 77
1, 294946, Note_off_c, 0, 53, 64
1, 295006, Note_on_c, 0, 75, 85
1, 295006, Note_on_c, 0, 78, 88
1, 295006, Note_on_c, 0, 83, 85
1, 295007, Note_on_c, 0, 69, 85
1, 295033, Note_on_c, 0, 71, 46
1, 295055, Control_c, 0, 64, 64
1, 295058, Note_off_c, 0, 69, 61
1, 295058, Note_off_c, 0, 71, 35
1, 295061, Note_off_c, 0, 83, 61
1, 295069, Control_c, 0, 64, 75
1, 295074, Note_off_c, 0, 78, 63
1, 295076, Note_off_c, 0, 75, 64
1, 295084, Control_c, 0, 64, 85
1, 295099, Control_c, 0, 64, 92
1, 295103, Note_on_c, 0, 66, 92
1, 295147, Note_off_c, 0, 66, 66
1, 295211, Note_on_c, 0, 53, 68
1, 295232, Control_c, 0, 64, 91
1, 295247, Control_c, 0, 64, 91
1, 295261, Control_c, 0, 64, 90
1, 295274, Note_off_c, 0, 53, 64
1, 295276, Control_c, 0, 64, 88
1, 295291, Control_c, 0, 64, 84
1, 295293, Note_on_c, 0, 67, 87
1, 295296, Note_on_c, 0, 78, 72
1, 295300, Note_on_c, 0, 72, 74
1, 295304, Note_on_c, 0, 75, 75
1, 295305, Control_c, 0, 64, 75
1, 295317, Note_off_c, 0, 67, 65
1, 295320, Control_c, 0, 64, 60
1, 295324, Note_off_c, 0, 78, 61
1, 295343, Control_c, 0, 64, 0
1, 295347, Note_off_c, 0, 75, 62
1, 295349, Note_off_c, 0, 72, 63
1, 295404, Note_on_c, 0, 66, 95
1, 295413, Note_on_c, 0, 74, 74
1, 295414, Note_on_c, 0, 71, 71
1, 295422, Note_off_c, 0, 66, 74
1, 295447, Control_c, 0, 64, 60
1, 295452, Note_off_c, 0, 71, 62
1, 295457, Note_off_c, 0, 74, 62
1, 295461, Control_c, 0, 64, 70
1, 295476, Control_c, 0, 64, 77
1, 295491, Control_c, 0, 64, 81
1, 295506, Control_c, 0, 64, 82
1, 295507, Note_on_c, 0, 65, 83
1, 295508, Note_on_c, 0, 79, 77
1, 295510, Note_on_c, 0, 71, 67
1, 295510, Note_on_c, 0, 74, 61
1, 295519, Note_on_c, 0, 67, 62
1, 295531, Note_on_c, 0, 77, 53
1, 295541, Note_off_c, 0, 67, 57
1, 295551, Note_off_c, 0, 65, 65
1, 295556, Note_off_c, 0, 74, 61
1, 295556, Note_off_c, 0, 77, 37
1, 295556, Note_off_c, 0, 79, 62
1, 295559, Note_off_c, 0, 71, 50
1, 295622, Note_on_c, 0, 66, 82
1, 295624, Control_c, 0, 64, 81
1, 295639, Control_c, 0, 64, 81
1, 295654, Note_off_c, 0, 66, 67
1, 295654, Control_c, 0, 64, 80
1, 295669, Control_c, 0, 64, 80
1, 295684, Control_c, 0, 64, 79
1, 295699, Control_c, 0, 64, 78
1, 295708, Note_on_c, 0, 53, 74
1, 295714, Control_c, 0, 64, 75
1, 295729, Control_c, 0, 64, 69
1, 295735, Note_on_c, 0, 57, 39
1, 295744, Control_c, 0, 64, 36
1, 295753, Note_off_c, 0, 53, 67
1, 295758, Control_c, 0, 64, 0
1, 295764, Note_off_c, 0, 57, 47
1, 295822, Note_on_c, 0, 62, 93
1, 295823, Note_on_c, 0, 59, 100
1, 295824, Note_on_c, 0, 67, 91
1, 295854, Note_off_c, 0, 59, 62
1, 295863, Control_c, 0, 64, 57
1, 295870, Note_off_c, 0, 62, 57
1, 295875, Note_off_c, 0, 67, 63
1, 295878, Control_c, 0, 64, 65
1, 295907, Control_c, 0, 64, 65
1, 295909, Note_on_c, 0, 54, 80
1, 295922, Control_c, 0, 64, 64
1, 295949, Note_off_c, 0, 54, 63
1, 296015, Note_on_c, 0, 41, 74
1, 296038, Note_on_c, 0, 74, 25
1, 296048, Note_off_c, 0, 41, 68
1, 296055, Control_c, 0, 64, 64
1, 296070, Control_c, 0, 64, 63
1, 296084, Note_off_c, 0, 74, 50
1, 296092, Control_c, 0, 64, 54
1, 296107, Control_c, 0, 64, 0
1, 296130, Note_on_c, 0, 65, 91
1, 296133, Note_on_c, 0, 79, 73
1, 296134, Note_on_c, 0, 74, 73
1, 296135, Note_on_c, 0, 71, 79
1, 296187, Note_off_c, 0, 65, 65
1, 296196, Control_c, 0, 64, 64
1, 296204, Note_off_c, 0, 71, 60
1, 296207, Note_off_c, 0, 74, 64
1, 296210, Control_c, 0, 64, 72
1, 296225, Control_c, 0, 64, 75
1, 296230, Note_on_c, 0, 66, 84
1, 296230, Note_off_c, 0, 79, 63
1, 296259, Note_off_c, 0, 66, 66
1, 296270, Control_c, 0, 64, 74
1, 296314, Control_c, 0, 64, 74
1, 296336, Note_on_c, 0, 53, 72
1, 296343, Control_c, 0, 64, 73
1, 296354, Note_off_c, 0, 53, 67
1, 296358, Control_c, 0, 64, 73
1, 296373, Control_c, 0, 64, 72
1, 296453, Note_on_c, 0, 88, 88
1, 296459, Note_on_c, 0, 84, 85
1, 296470, Note_on_c, 0, 76, 84
1, 296474, Note_on_c, 0, 72, 73
1, 296477, Note_off_c, 0, 84, 72
1, 296491, Control_c, 0, 64, 72
1, 296496, Note_off_c, 0, 88, 62
1, 296507, Control_c, 0, 64, 71
1, 296522, Control_c, 0, 64, 70
1, 296536, Control_c, 0, 64, 66
1, 296543, Note_on_c, 0, 86, 80
1, 296544, Note_off_c, 0, 72, 58
1, 296547, Note_off_c, 0, 76, 65
1, 296548, Note_on_c, 0, 82, 89
1, 296548, Note_on_c, 0, 74, 61
1, 296551, Control_c, 0, 64, 52
1, 296558, Note_on_c, 0, 78, 73
1, 296566, Control_c, 0, 64, 0
1, 296584, Note_off_c, 0, 82, 64
1, 296586, Note_off_c, 0, 86, 62
1, 296587, Note_off_c, 0, 74, 61
1, 296598, Note_off_c, 0, 78, 63
1, 296659, Note_on_c, 0, 81, 104
1, 296659, Note_on_c, 0, 85, 98
1, 296662, Note_on_c, 0, 75, 84
1, 296670, Control_c, 0, 64, 65
1, 296671, Note_on_c, 0, 79, 56
1, 296683, Note_off_c, 0, 75, 73
1, 296685, Control_c, 0, 64, 79
1, 296691, Note_off_c, 0, 79, 38
1, 296700, Control_c, 0, 64, 95
1, 296705, Note_off_c, 0, 81, 61
1, 296706, Note_off_c, 0, 85, 63
1, 296714, Control_c, 0, 64, 109
1, 296729, Control_c, 0, 64, 110
1, 296744, Control_c, 0, 64, 111
1, 296784, Note_on_c, 0, 65, 82
1, 296832, Note_off_c, 0, 65, 66
1, 296870, Control_c, 0, 64, 110
1, 296887, Note_on_c, 0, 53, 80
1, 296900, Control_c, 0, 64, 107
1, 296912, Note_off_c, 0, 53, 70
1, 296914, Control_c, 0, 64, 97
1, 296929, Control_c, 0, 64, 85
1, 296944, Control_c, 0, 64, 69
1, 296958, Control_c, 0, 64, 0
1, 296978, Note_on_c, 0, 64, 84
1, 296978, Note_on_c, 0, 73, 82
1, 296981, Note_on_c, 0, 69, 80
1, 297005, Note_off_c, 0, 64, 66
1, 297022, Note_off_c, 0, 69, 66
1, 297046, Note_off_c, 0, 73, 63
1, 297094, Note_on_c, 0, 65, 93
1, 297128, Note_off_c, 0, 65, 69
1, 297196, Note_on_c, 0, 52, 66
1, 297200, Note_on_c, 0, 53, 29
1, 297225, Note_off_c, 0, 52, 67
1, 297234, Note_off_c, 0, 53, 65
1, 297258, Note_on_c, 0, 77, 74
1, 297288, Note_on_c, 0, 78, 72
1, 297323, Note_on_c, 0, 83, 81
1, 297341, Note_on_c, 0, 60, 93
1, 297341, Note_off_c, 0, 77, 57
1, 297356, Note_off_c, 0, 78, 64
1, 297356, Note_on_c, 0, 84, 62
1, 297360, Note_on_c, 0, 86, 66
1, 297374, Note_off_c, 0, 83, 60
1, 297376, Note_off_c, 0, 86, 66
1, 297379, Note_off_c, 0, 60, 64
1, 297383, Note_off_c, 0, 84, 67
1, 297452, Note_on_c, 0, 81, 88
1, 297455, Note_on_c, 0, 59, 104
1, 297472, Note_off_c, 0, 81, 68
1, 297478, Control_c, 0, 64, 61
1, 297493, Control_c, 0, 64, 77
1, 297508, Control_c, 0, 64, 95
1, 297523, Control_c, 0, 64, 125
1, 297538, Control_c, 0, 64, 127
1, 297568, Note_off_c, 0, 59, 56
1, 297587, Note_on_c, 0, 60, 76
1, 297587, Note_on_c, 0, 64, 70
1, 297593, Note_on_c, 0, 67, 60
1, 297612, Note_off_c, 0, 60, 69
1, 297613, Note_off_c, 0, 67, 62
1, 297615, Note_off_c, 0, 64, 68
1, 297679, Note_on_c, 0, 59, 90
1, 297715, Note_off_c, 0, 59, 69
1, 297768, Control_c, 0, 64, 125
1, 297775, Note_on_c, 0, 51, 83
1, 297779, Note_on_c, 0, 58, 66
1, 297782, Control_c, 0, 64, 121
1, 297784, Note_on_c, 0, 54, 67
1, 297797, Control_c, 0, 64, 117
1, 297798, Note_off_c, 0, 51, 69
1, 297809, Note_off_c, 0, 54, 65
1, 297812, Control_c, 0, 64, 114
1, 297825, Note_off_c, 0, 58, 63
1, 297827, Control_c, 0, 64, 109
1, 297842, Control_c, 0, 64, 103
1, 297856, Control_c, 0, 64, 96
1, 297871, Control_c, 0, 64, 85
1, 297886, Control_c, 0, 64, 73
1, 297892, Note_on_c, 0, 48, 84
1, 297900, Control_c, 0, 64, 59
1, 297914, Note_on_c, 0, 50, 53
1, 297915, Note_off_c, 0, 50, 127
1, 297915, Control_c, 0, 64, 0
1, 297932, Note_off_c, 0, 48, 68
1, 297988, Note_on_c, 0, 41, 78
1, 298046, Note_off_c, 0, 41, 65
1, 298084, Note_on_c, 0, 47, 93
1, 298090, Note_on_c, 0, 88, 82
1, 298095, Note_on_c, 0, 76, 74
1, 298099, Note_on_c, 0, 84, 73
1, 298113, Note_off_c, 0, 76, 69
1, 298121, Note_on_c, 0, 77, 51
1, 298122, Note_off_c, 0, 47, 68
1, 298122, Note_off_c, 0, 84, 71
1, 298143, Note_off_c, 0, 77, 38
1, 298148, Note_off_c, 0, 88, 63
1, 298188, Note_on_c, 0, 87, 85
1, 298200, Note_on_c, 0, 78, 88
1, 298202, Note_on_c, 0, 82, 83
1, 298220, Note_off_c, 0, 78, 69
1, 298242, Control_c, 0, 67, 8
1, 298247, Note_off_c, 0, 82, 63
1, 298247, Note_off_c, 0, 87, 64
1, 298286, Control_c, 0, 67, 0
1, 298307, Note_on_c, 0, 85, 94
1, 298310, Note_on_c, 0, 75, 96
1, 298314, Note_on_c, 0, 79, 93
1, 298320, Note_on_c, 0, 81, 83
1, 298334, Note_off_c, 0, 75, 73
1, 298338, Control_c, 0, 64, 61
1, 298340, Note_on_c, 0, 82, 20
1, 298341, Note_off_c, 0, 82, 127
1, 298353, Control_c, 0, 64, 81
1, 298354, Note_off_c, 0, 79, 57
1, 298368, Control_c, 0, 64, 105
1, 298380, Note_off_c, 0, 85, 63
1, 298383, Control_c, 0, 64, 127
1, 298385, Note_off_c, 0, 81, 38
1, 298430, Note_on_c, 0, 65, 89
1, 298473, Note_off_c, 0, 65, 68
1, 298531, Note_on_c, 0, 53, 85
1, 298564, Note_off_c, 0, 53, 66
1, 298605, Control_c, 0, 64, 112
1, 298620, Control_c, 0, 64, 95
1, 298635, Note_on_c, 0, 69, 80
1, 298635, Control_c, 0, 64, 75
1, 298635, Note_on_c, 0, 73, 80
1, 298638, Note_on_c, 0, 64, 81
1, 298650, Control_c, 0, 64, 42
1, 298660, Note_off_c, 0, 64, 72
1, 298665, Control_c, 0, 64, 0
1, 298675, Note_off_c, 0, 69, 66
1, 298694, Note_off_c, 0, 73, 65
1, 298745, Note_on_c, 0, 65, 94
1, 298792, Note_off_c, 0, 65, 67
1, 298833, Note_on_c, 0, 53, 76
1, 298890, Note_off_c, 0, 53, 64
1, 298913, Note_on_c, 0, 77, 66
1, 298936, Note_on_c, 0, 78, 75
1, 298960, Note_on_c, 0, 82, 75
1, 298969, Note_off_c, 0, 77, 60
1, 298981, Note_on_c, 0, 60, 90
1, 298984, Note_on_c, 0, 84, 87
1, 298993, Note_off_c, 0, 78, 62
1, 299001, Note_on_c, 0, 83, 53
1, 299019, Note_off_c, 0, 82, 61
1, 299021, Note_off_c, 0, 83, 54
1, 299024, Note_off_c, 0, 60, 63
1, 299028, Note_off_c, 0, 84, 65
1, 299100, Note_on_c, 0, 83, 75
1, 299106, Note_on_c, 0, 59, 105
1, 299122, Note_off_c, 0, 83, 68
1, 299161, Control_c, 0, 64, 63
1, 299176, Control_c, 0, 64, 74
1, 299191, Control_c, 0, 64, 85
1, 299206, Control_c, 0, 64, 95
1, 299221, Control_c, 0, 64, 97
1, 299222, Note_on_c, 0, 67, 69
1, 299228, Note_on_c, 0, 60, 71
1, 299228, Note_off_c, 0, 59, 52
1, 299235, Note_on_c, 0, 64, 51
1, 299235, Control_c, 0, 64, 98
1, 299245, Note_off_c, 0, 60, 66
1, 299248, Note_off_c, 0, 67, 67
1, 299258, Note_off_c, 0, 64, 58
1, 299329, Note_on_c, 0, 59, 86
1, 299365, Note_off_c, 0, 59, 67
1, 299429, Note_on_c, 0, 58, 69
1, 299430, Note_on_c, 0, 51, 79
1, 299437, Note_on_c, 0, 54, 67
1, 299457, Note_off_c, 0, 51, 67
1, 299458, Control_c, 0, 64, 97
1, 299473, Control_c, 0, 64, 97
1, 299477, Note_off_c, 0, 54, 61
1, 299485, Note_off_c, 0, 58, 60
1, 299488, Control_c, 0, 64, 95
1, 299502, Control_c, 0, 64, 91
1, 299517, Control_c, 0, 64, 83
1, 299532, Control_c, 0, 64, 74
1, 299535, Note_on_c, 0, 48, 95
1, 299547, Control_c, 0, 64, 61
1, 299561, Control_c, 0, 64, 0
1, 299578, Note_off_c, 0, 48, 66
1, 299637, Note_on_c, 0, 41, 85
1, 299687, Note_off_c, 0, 41, 66
1, 299744, Note_on_c, 0, 47, 95
1, 299776, Note_off_c, 0, 47, 69
1, 299866, Note_on_c, 0, 76, 84
1, 299868, Note_on_c, 0, 81, 76
1, 299871, Note_on_c, 0, 85, 86
1, 299872, Note_on_c, 0, 73, 89
1, 299881, Control_c, 0, 67, 8
1, 299896, Control_c, 0, 67, 8
1, 299925, Control_c, 0, 67, 8
1, 299936, Note_off_c, 0, 73, 61
1, 299955, Control_c, 0, 67, 0
1, 299999, Control_c, 0, 64, 64
1, 300012, Note_on_c, 0, 77, 95
1, 300014, Control_c, 0, 64, 81
1, 300015, Note_on_c, 0, 65, 73
1, 300029, Control_c, 0, 64, 114
1, 300033, Note_off_c, 0, 77, 66
1, 300044, Control_c, 0, 64, 127
1, 300052, Note_off_c, 0, 76, 62
1, 300060, Note_off_c, 0, 65, 67
1, 300092, Note_off_c, 0, 85, 22
1, 300105, Note_off_c, 0, 81, 36
1, 300149, Note_on_c, 0, 65, 87
1, 300163, Note_on_c, 0, 53, 58
1, 300167, Note_off_c, 0, 65, 75
1, 300185, Note_off_c, 0, 53, 63
1, 300262, Note_on_c, 0, 85, 77
1, 300268, Note_on_c, 0, 81, 82
1, 300306, Note_off_c, 0, 85, 65
1, 300316, Note_off_c, 0, 81, 60
1, 300357, Note_on_c, 0, 65, 79
1, 300358, Note_on_c, 0, 77, 78
1, 300379, Note_off_c, 0, 77, 69
1, 300386, Note_off_c, 0, 65, 69
1, 300475, Note_on_c, 0, 65, 93
1, 300488, Note_on_c, 0, 53, 71
1, 300499, Note_off_c, 0, 65, 69
1, 300507, Note_off_c, 0, 53, 67
1, 300583, Note_on_c, 0, 85, 84
1, 300584, Note_on_c, 0, 73, 87
1, 300587, Note_on_c, 0, 81, 76
1, 300588, Note_on_c, 0, 76, 74
1, 300617, Note_off_c, 0, 73, 56
1, 300626, Note_off_c, 0, 85, 66
1, 300662, Note_off_c, 0, 76, 54
1, 300662, Note_off_c, 0, 81, 53
1, 300683, Note_on_c, 0, 77, 77
1, 300685, Note_on_c, 0, 65, 80
1, 300700, Note_off_c, 0, 77, 69
1, 300707, Note_off_c, 0, 65, 73
1, 300795, Note_on_c, 0, 65, 81
1, 300803, Note_on_c, 0, 53, 81
1, 300820, Note_off_c, 0, 65, 70
1, 300826, Note_off_c, 0, 53, 73
1, 300839, Note_on_c, 0, 64, 23
1, 300872, Note_off_c, 0, 64, 54
1, 300909, Note_on_c, 0, 85, 86
1, 300910, Note_on_c, 0, 73, 88
1, 300911, Note_on_c, 0, 76, 82
1, 300915, Note_on_c, 0, 81, 77
1, 300935, Note_off_c, 0, 73, 61
1, 300955, Note_off_c, 0, 85, 63
1, 300964, Note_off_c, 0, 76, 62
1, 300976, Note_off_c, 0, 81, 57
1, 301014, Note_on_c, 0, 65, 71
1, 301018, Note_on_c, 0, 77, 76
1, 301039, Note_off_c, 0, 77, 63
1, 301066, Note_off_c, 0, 65, 60
1, 301127, Note_on_c, 0, 76, 84
1, 301127, Note_on_c, 0, 85, 80
1, 301130, Note_on_c, 0, 73, 84
1, 301141, Note_on_c, 0, 81, 65
1, 301179, Note_off_c, 0, 73, 61
1, 301199, Note_off_c, 0, 85, 59
1, 301200, Note_on_c, 0, 65, 75
1, 301201, Note_on_c, 0, 77, 82
1, 301207, Note_off_c, 0, 76, 59
1, 301219, Note_off_c, 0, 77, 71
1, 301242, Note_off_c, 0, 65, 65
1, 301245, Note_on_c, 0, 69, 21
1, 301284, Note_off_c, 0, 69, 42
1, 301285, Note_off_c, 0, 81, 29
1, 301336, Note_on_c, 0, 65, 96
1, 301351, Note_on_c, 0, 53, 65
1, 301356, Note_off_c, 0, 65, 72
1, 301367, Note_off_c, 0, 53, 68
1, 301418, Note_on_c, 0, 85, 70
1, 301434, Note_on_c, 0, 81, 77
1, 301468, Note_off_c, 0, 85, 66
1, 301473, Note_off_c, 0, 81, 59
1, 301535, Note_on_c, 0, 65, 82
1, 301535, Note_on_c, 0, 77, 82
1, 301553, Note_off_c, 0, 77, 69
1, 301559, Note_off_c, 0, 65, 66
1, 301654, Note_on_c, 0, 65, 96
1, 301658, Note_on_c, 0, 53, 89
1, 301660, Control_c, 0, 64, 93
1, 301675, Control_c, 0, 64, 66
1, 301684, Note_off_c, 0, 53, 70
1, 301690, Control_c, 0, 64, 0
1, 301696, Note_off_c, 0, 65, 62
1, 301729, Poly_aftertouch_c, 0, 86, 127
1, 301734, Control_c, 0, 64, 40
1, 301748, Control_c, 0, 64, 74
1, 301753, Note_on_c, 0, 86, 45
1, 301757, Note_on_c, 0, 77, 94
1, 301759, Note_on_c, 0, 91, 92
1, 301763, Control_c, 0, 64, 97
1, 301765, Note_on_c, 0, 83, 78
1, 301778, Control_c, 0, 64, 127
1, 301786, Note_on_c, 0, 88, 55
1, 301810, Note_off_c, 0, 88, 59
1, 301823, Note_off_c, 0, 77, 61
1, 301836, Note_off_c, 0, 83, 58
1, 301839, Note_off_c, 0, 86, 64
1, 301845, Note_off_c, 0, 91, 58
1, 301856, Note_on_c, 0, 78, 86
1, 301860, Note_on_c, 0, 66, 81
1, 301874, Note_off_c, 0, 78, 69
1, 301887, Note_on_c, 0, 70, 31
1, 301888, Note_off_c, 0, 70, 127
1, 301893, Note_off_c, 0, 66, 66
1, 301920, Poly_aftertouch_c, 0, 70, 0
1, 301979, Note_on_c, 0, 65, 89
1, 301992, Note_on_c, 0, 53, 75
1, 302017, Note_off_c, 0, 53, 70
1, 302019, Note_off_c, 0, 65, 62
1, 302066, Note_on_c, 0, 77, 90
1, 302066, Note_on_c, 0, 91, 79
1, 302075, Note_on_c, 0, 86, 81
1, 302083, Note_on_c, 0, 83, 66
1, 302100, Note_off_c, 0, 77, 56
1, 302105, Note_on_c, 0, 88, 42
1, 302114, Note_off_c, 0, 83, 60
1, 302123, Note_off_c, 0, 86, 63
1, 302132, Note_off_c, 0, 88, 47
1, 302137, Note_off_c, 0, 91, 59
1, 302179, Note_on_c, 0, 86, 77
1, 302182, Note_on_c, 0, 77, 93
1, 302184, Note_on_c, 0, 91, 54
1, 302188, Note_on_c, 0, 83, 83
1, 302202, Note_off_c, 0, 77, 61
1, 302209, Note_on_c, 0, 88, 48
1, 302230, Note_off_c, 0, 83, 56
1, 302230, Note_off_c, 0, 91, 56
1, 302235, Note_off_c, 0, 88, 51
1, 302240, Note_off_c, 0, 86, 62
1, 302277, Note_on_c, 0, 86, 74
1, 302283, Note_on_c, 0, 83, 74
1, 302290, Note_on_c, 0, 77, 83
1, 302327, Note_off_c, 0, 77, 56
1, 302346, Note_off_c, 0, 83, 60
1, 302346, Note_off_c, 0, 86, 63
1, 302365, Note_on_c, 0, 66, 78
1, 302369, Note_on_c, 0, 78, 64
1, 302387, Note_off_c, 0, 78, 40
1, 302396, Note_off_c, 0, 66, 68
1, 302477, Note_on_c, 0, 65, 77
1, 302490, Note_on_c, 0, 53, 66
1, 302501, Note_off_c, 0, 65, 70
1, 302511, Note_off_c, 0, 53, 65
1, 302545, Poly_aftertouch_c, 0, 86, 127
1, 302567, Poly_aftertouch_c, 0, 86, 0
1, 302581, Note_on_c, 0, 86, 62
1, 302585, Note_on_c, 0, 77, 95
1, 302588, Note_on_c, 0, 83, 85
1, 302588, Note_on_c, 0, 91, 79
1, 302624, Note_on_c, 0, 89, 38
1, 302635, Note_on_c, 0, 88, 34
1, 302646, Note_off_c, 0, 91, 61
1, 302653, Note_off_c, 0, 89, 37
1, 302657, Note_off_c, 0, 77, 58
1, 302668, Note_off_c, 0, 86, 64
1, 302668, Note_off_c, 0, 88, 41
1, 302674, Note_off_c, 0, 83, 57
1, 302676, Note_on_c, 0, 66, 68
1, 302677, Note_on_c, 0, 54, 69
1, 302689, Note_off_c, 0, 66, 70
1, 302707, Note_off_c, 0, 54, 64
1, 302793, Note_on_c, 0, 53, 89
1, 302805, Note_on_c, 0, 41, 69
1, 302823, Note_off_c, 0, 53, 68
1, 302838, Note_off_c, 0, 41, 65
1, 302896, Note_on_c, 0, 74, 87
1, 302897, Note_on_c, 0, 71, 90
1, 302900, Note_on_c, 0, 79, 82
1, 302920, Note_off_c, 0, 71, 63
1, 302921, Note_off_c, 0, 74, 63
1, 302945, Note_off_c, 0, 79, 63
1, 303001, Note_on_c, 0, 66, 82
1, 303005, Note_on_c, 0, 78, 80
1, 303019, Note_off_c, 0, 78, 69
1, 303026, Note_off_c, 0, 66, 67
1, 303120, Note_on_c, 0, 65, 76
1, 303129, Note_on_c, 0, 53, 75
1, 303145, Note_off_c, 0, 65, 69
1, 303157, Note_off_c, 0, 53, 69
1, 303209, Note_on_c, 0, 72, 82
1, 303211, Note_on_c, 0, 75, 80
1, 303211, Note_on_c, 0, 80, 77
1, 303211, Note_on_c, 0, 84, 72
1, 303226, Note_off_c, 0, 84, 69
1, 303230, Note_off_c, 0, 72, 71
1, 303243, Note_off_c, 0, 75, 61
1, 303264, Note_off_c, 0, 80, 63
1, 303306, Control_c, 0, 64, 108
1, 303312, Note_on_c, 0, 73, 86
1, 303312, Note_on_c, 0, 76, 79
1, 303312, Note_on_c, 0, 85, 83
1, 303318, Note_on_c, 0, 81, 72
1, 303320, Control_c, 0, 64, 76
1, 303335, Control_c, 0, 64, 0
1, 303363, Note_off_c, 0, 73, 61
1, 303386, Note_off_c, 0, 85, 59
1, 303400, Note_off_c, 0, 76, 60
1, 303401, Note_off_c, 0, 81, 49
1, 303428, Note_on_c, 0, 77, 95
1, 303433, Note_on_c, 0, 65, 78
1, 303439, Control_c, 0, 64, 72
1, 303446, Note_off_c, 0, 77, 70
1, 303454, Control_c, 0, 64, 94
1, 303459, Note_on_c, 0, 69, 48
1, 303468, Control_c, 0, 64, 127
1, 303472, Note_off_c, 0, 65, 67
1, 303482, Note_off_c, 0, 69, 59
1, 303550, Note_on_c, 0, 65, 95
1, 303557, Note_on_c, 0, 53, 80
1, 303580, Note_off_c, 0, 65, 66
1, 303583, Note_off_c, 0, 53, 70
1, 303641, Note_on_c, 0, 85, 73
1, 303647, Note_on_c, 0, 81, 79
1, 303694, Note_off_c, 0, 81, 62
1, 303694, Note_off_c, 0, 85, 64
1, 303749, Note_on_c, 0, 77, 83
1, 303750, Note_on_c, 0, 65, 75
1, 303768, Note_off_c, 0, 77, 71
1, 303773, Note_off_c, 0, 65, 72
1, 303867, Note_on_c, 0, 65, 83
1, 303874, Note_on_c, 0, 53, 79
1, 303888, Note_off_c, 0, 65, 68
1, 303899, Note_off_c, 0, 53, 71
1, 303951, Note_on_c, 0, 85, 83
1, 303955, Note_on_c, 0, 73, 78
1, 303958, Note_on_c, 0, 76, 75
1, 303960, Note_on_c, 0, 81, 72
1, 304007, Note_off_c, 0, 73, 59
1, 304041, Note_off_c, 0, 85, 57
1, 304042, Note_off_c, 0, 81, 49
1, 304051, Note_on_c, 0, 65, 82
1, 304051, Note_on_c, 0, 77, 79
1, 304073, Note_off_c, 0, 76, 37
1, 304073, Note_off_c, 0, 77, 68
1, 304078, Note_off_c, 0, 65, 70
1, 304174, Note_on_c, 0, 64, 75
1, 304177, Note_on_c, 0, 53, 70
1, 304182, Note_on_c, 0, 65, 61
1, 304194, Note_off_c, 0, 64, 67
1, 304202, Note_off_c, 0, 53, 68
1, 304202, Note_off_c, 0, 65, 64
1, 304224, Note_on_c, 0, 73, 80
1, 304243, Note_off_c, 0, 73, 68
1, 304287, Note_on_c, 0, 88, 86
1, 304289, Note_on_c, 0, 84, 86
1, 304342, Note_off_c, 0, 84, 66
1, 304345, Note_off_c, 0, 88, 64
1, 304386, Note_on_c, 0, 77, 83
1, 304394, Note_on_c, 0, 65, 71
1, 304413, Note_on_c, 0, 69, 39
1, 304414, Note_off_c, 0, 69, 127
1, 304416, Note_off_c, 0, 77, 55
1, 304422, Note_off_c, 0, 65, 59
1, 304498, Note_on_c, 0, 82, 86
1, 304498, Note_on_c, 0, 86, 82
1, 304501, Note_on_c, 0, 75, 90
1, 304522, Note_off_c, 0, 75, 66
1, 304545, Note_off_c, 0, 82, 63
1, 304551, Note_off_c, 0, 86, 62
1, 304574, Note_on_c, 0, 77, 75
1, 304578, Note_on_c, 0, 65, 71
1, 304594, Note_off_c, 0, 77, 69
1, 304607, Note_off_c, 0, 65, 64
1, 304670, Control_c, 0, 64, 97
1, 304685, Control_c, 0, 64, 66
1, 304698, Note_on_c, 0, 65, 93
1, 304700, Control_c, 0, 64, 0
1, 304704, Note_on_c, 0, 53, 84
1, 304724, Note_off_c, 0, 65, 63
1, 304725, Note_off_c, 0, 53, 70
1, 304759, Control_c, 0, 64, 62
1, 304773, Control_c, 0, 64, 78
1, 304788, Control_c, 0, 64, 101
1, 304797, Note_on_c, 0, 76, 90
1, 304797, Note_on_c, 0, 85, 89
1, 304802, Note_on_c, 0, 81, 84
1, 304803, Control_c, 0, 64, 127
1, 304824, Note_off_c, 0, 76, 66
1, 304836, Note_off_c, 0, 81, 57
1, 304855, Note_off_c, 0, 85, 66
1, 304902, Note_on_c, 0, 65, 84
1, 304903, Note_on_c, 0, 77, 82
1, 304919, Note_off_c, 0, 77, 68
1, 304923, Note_off_c, 0, 65, 72
1, 304960, Note_on_c, 0, 68, 3
1, 304997, Note_off_c, 0, 68, 52
1, 305011, Note_on_c, 0, 65, 93
1, 305019, Note_on_c, 0, 53, 85
1, 305032, Note_off_c, 0, 65, 67
1, 305041, Note_off_c, 0, 53, 72
1, 305081, Note_on_c, 0, 57, 3
1, 305113, Note_off_c, 0, 57, 49
1, 305127, Note_on_c, 0, 95, 81
1, 305127, Note_on_c, 0, 81, 94
1, 305129, Note_on_c, 0, 87, 86
1, 305130, Note_on_c, 0, 90, 88
1, 305169, Note_on_c, 0, 83, 24
1, 305170, Note_off_c, 0, 83, 127
1, 305176, Note_off_c, 0, 81, 59
1, 305186, Note_off_c, 0, 95, 66
1, 305197, Note_off_c, 0, 87, 62
1, 305199, Note_off_c, 0, 90, 64
1, 305214, Note_on_c, 0, 78, 81
1, 305215, Note_on_c, 0, 66, 76
1, 305227, Note_off_c, 0, 78, 70
1, 305239, Note_off_c, 0, 66, 70
1, 305340, Note_on_c, 0, 65, 85
1, 305351, Note_on_c, 0, 53, 78
1, 305375, Note_off_c, 0, 53, 63
1, 305375, Note_off_c, 0, 65, 59
1, 305411, Note_on_c, 0, 79, 84
1, 305411, Note_on_c, 0, 90, 76
1, 305419, Note_on_c, 0, 84, 73
1, 305420, Note_on_c, 0, 87, 79
1, 305440, Note_off_c, 0, 79, 63
1, 305451, Note_off_c, 0, 90, 59
1, 305467, Note_off_c, 0, 84, 60
1, 305469, Note_off_c, 0, 87, 47
1, 305522, Note_on_c, 0, 78, 96
1, 305529, Note_on_c, 0, 83, 76
1, 305530, Note_on_c, 0, 86, 75
1, 305554, Note_off_c, 0, 78, 61
1, 305568, Note_off_c, 0, 83, 53
1, 305571, Note_off_c, 0, 86, 61
1, 305614, Note_on_c, 0, 91, 88
1, 305629, Note_on_c, 0, 86, 40
1, 305631, Note_on_c, 0, 79, 54
1, 305633, Note_on_c, 0, 89, 66
1, 305649, Note_on_c, 0, 77, 34
1, 305650, Note_off_c, 0, 89, 67
1, 305653, Note_off_c, 0, 79, 58
1, 305653, Note_off_c, 0, 86, 59
1, 305653, Note_off_c, 0, 91, 59
1, 305680, Note_off_c, 0, 77, 33
1, 305701, Poly_aftertouch_c, 0, 83, 0
1, 305708, Note_on_c, 0, 53, 72
1, 305725, Note_on_c, 0, 77, 72
1, 305738, Note_on_c, 0, 54, 67
1, 305744, Control_c, 0, 64, 103
1, 305749, Note_on_c, 0, 78, 80
1, 305756, Note_on_c, 0, 56, 75
1, 305759, Control_c, 0, 64, 84
1, 305774, Note_on_c, 0, 82, 71
1, 305774, Control_c, 0, 64, 67
1, 305782, Note_on_c, 0, 58, 76
1, 305782, Note_off_c, 0, 53, 61
1, 305785, Note_off_c, 0, 77, 57
1, 305789, Control_c, 0, 64, 0
1, 305804, Note_on_c, 0, 60, 83
1, 305805, Note_on_c, 0, 84, 83
1, 305806, Note_off_c, 0, 78, 63
1, 305810, Note_off_c, 0, 56, 63
1, 305827, Note_off_c, 0, 54, 62
1, 305849, Note_off_c, 0, 82, 64
1, 305855, Note_off_c, 0, 58, 65
1, 305855, Note_off_c, 0, 84, 64
1, 305864, Note_off_c, 0, 60, 64
1, 305925, Note_on_c, 0, 83, 83
1, 305929, Note_on_c, 0, 59, 111
1, 305941, Note_off_c, 0, 83, 71
1, 305974, Control_c, 0, 64, 69
1, 305989, Control_c, 0, 64, 85
1, 306004, Control_c, 0, 64, 115
1, 306019, Control_c, 0, 64, 127
1, 306046, Note_on_c, 0, 67, 72
1, 306049, Note_on_c, 0, 60, 76
1, 306050, Note_on_c, 0, 64, 73
1, 306070, Note_off_c, 0, 67, 69
1, 306071, Note_off_c, 0, 59, 49
1, 306074, Note_off_c, 0, 60, 68
1, 306076, Note_off_c, 0, 64, 69
1, 306154, Note_on_c, 0, 59, 94
1, 306189, Note_off_c, 0, 59, 71
1, 306257, Note_on_c, 0, 51, 86
1, 306259, Note_on_c, 0, 54, 73
1, 306261, Note_on_c, 0, 58, 70
1, 306280, Note_off_c, 0, 51, 67
1, 306303, Note_off_c, 0, 54, 57
1, 306319, Note_off_c, 0, 58, 63
1, 306370, Note_on_c, 0, 48, 101
1, 306375, Control_c, 0, 64, 115
1, 306390, Control_c, 0, 64, 94
1, 306405, Control_c, 0, 64, 76
1, 306412, Note_off_c, 0, 48, 69
1, 306419, Control_c, 0, 64, 40
1, 306434, Control_c, 0, 64, 0
1, 306480, Note_on_c, 0, 41, 100
1, 306531, Note_off_c, 0, 41, 67
1, 306623, Note_on_c, 0, 47, 105
1, 306666, Note_off_c, 0, 47, 67
1, 306868, Note_on_c, 0, 69, 91
1, 306868, Note_on_c, 0, 83, 73
1, 306871, Note_on_c, 0, 42, 90
1, 306871, Note_on_c, 0, 75, 88
1, 306873, Note_on_c, 0, 78, 91
1, 306877, Note_on_c, 0, 47, 90
1, 306882, Note_on_c, 0, 36, 81
1, 306903, Control_c, 0, 64, 77
1, 306909, Note_off_c, 0, 83, 63
1, 306914, Note_on_c, 0, 81, 31
1, 306917, Control_c, 0, 64, 127
1, 306920, Note_off_c, 0, 69, 67
1, 306923, Note_off_c, 0, 36, 66
1, 306934, Note_off_c, 0, 78, 66
1, 306938, Note_off_c, 0, 47, 63
1, 306938, Note_off_c, 0, 75, 67
1, 306946, Note_off_c, 0, 81, 39
1, 306950, Note_off_c, 0, 42, 65
1, 307059, Note_on_c, 0, 59, 84
1, 307061, Note_on_c, 0, 66, 79
1, 307062, Note_on_c, 0, 63, 80
1, 307080, Note_off_c, 0, 59, 69
1, 307088, Note_off_c, 0, 66, 65
1, 307101, Note_off_c, 0, 63, 59
1, 307154, Control_c, 0, 64, 112
1, 307163, Note_on_c, 0, 54, 81
1, 307164, Note_on_c, 0, 58, 87
1, 307169, Control_c, 0, 64, 92
1, 307184, Control_c, 0, 64, 73
1, 307199, Control_c, 0, 64, 0
1, 307211, Note_off_c, 0, 58, 64
1, 307223, Note_off_c, 0, 54, 60
1, 307390, Note_on_c, 0, 66, 95
1, 307391, Note_on_c, 0, 63, 101
1, 307393, Note_on_c, 0, 59, 102
1, 307414, Control_c, 0, 64, 65
1, 307417, Note_off_c, 0, 59, 67
1, 307429, Control_c, 0, 64, 80
1, 307441, Note_off_c, 0, 63, 62
1, 307443, Control_c, 0, 64, 102
1, 307452, Note_off_c, 0, 66, 64
1, 307458, Control_c, 0, 64, 121
1, 307473, Control_c, 0, 64, 126
1, 307493, Note_on_c, 0, 57, 84
1, 307500, Note_on_c, 0, 54, 77
1, 307517, Note_off_c, 0, 57, 67
1, 307532, Control_c, 0, 64, 125
1, 307542, Note_off_c, 0, 54, 61
1, 307547, Control_c, 0, 64, 124
1, 307561, Control_c, 0, 64, 118
1, 307576, Control_c, 0, 64, 108
1, 307590, Control_c, 0, 64, 97
1, 307605, Control_c, 0, 64, 85
1, 307619, Control_c, 0, 64, 71
1, 307634, Control_c, 0, 64, 0
1, 307672, Note_on_c, 0, 51, 85
1, 307674, Note_on_c, 0, 44, 77
1, 307685, Note_on_c, 0, 67, 75
1, 307688, Note_on_c, 0, 60, 88
1, 307688, Note_on_c, 0, 63, 88
1, 307697, Note_off_c, 0, 51, 66
1, 307710, Note_off_c, 0, 44, 63
1, 307712, Note_off_c, 0, 60, 64
1, 307716, Note_off_c, 0, 63, 65
1, 307732, Note_off_c, 0, 67, 60
1, 307754, Control_c, 0, 64, 56
1, 307768, Control_c, 0, 64, 74
1, 307782, Note_on_c, 0, 67, 79
1, 307783, Note_on_c, 0, 41, 89
1, 307783, Control_c, 0, 64, 93
1, 307787, Note_on_c, 0, 48, 86
1, 307798, Control_c, 0, 64, 127
1, 307808, Note_off_c, 0, 67, 64
1, 307811, Note_off_c, 0, 48, 70
1, 307825, Note_off_c, 0, 41, 65
1, 307903, Note_on_c, 0, 82, 89
1, 307943, Note_off_c, 0, 82, 66
1, 308008, Note_on_c, 0, 42, 80
1, 308010, Note_on_c, 0, 83, 75
1, 308011, Note_on_c, 0, 47, 99
1, 308013, Note_on_c, 0, 78, 90
1, 308017, Note_on_c, 0, 36, 81
1, 308017, Note_on_c, 0, 75, 81
1, 308022, Note_on_c, 0, 69, 72
1, 308030, Note_on_c, 0, 71, 56
1, 308037, Note_off_c, 0, 83, 60
1, 308043, Note_on_c, 0, 80, 32
1, 308051, Note_off_c, 0, 69, 51
1, 308051, Note_off_c, 0, 71, 60
1, 308062, Note_off_c, 0, 36, 64
1, 308071, Note_off_c, 0, 78, 64
1, 308076, Note_off_c, 0, 47, 65
1, 308079, Note_off_c, 0, 75, 65
1, 308084, Note_off_c, 0, 42, 63
1, 308084, Note_off_c, 0, 80, 50
1, 308120, Poly_aftertouch_c, 0, 81, 0
1, 308161, Control_c, 0, 64, 109
1, 308176, Control_c, 0, 64, 86
1, 308190, Control_c, 0, 64, 58
1, 308205, Control_c, 0, 64, 0
1, 308231, Note_on_c, 0, 66, 98
1, 308235, Note_on_c, 0, 59, 92
1, 308236, Note_on_c, 0, 63, 84
1, 308255, Note_off_c, 0, 59, 69
1, 308272, Note_off_c, 0, 63, 63
1, 308290, Note_off_c, 0, 66, 65
1, 308294, Control_c, 0, 64, 67
1, 308308, Control_c, 0, 64, 78
1, 308323, Control_c, 0, 64, 90
1, 308326, Note_on_c, 0, 57, 80
1, 308338, Control_c, 0, 64, 99
1, 308340, Note_on_c, 0, 54, 69
1, 308353, Control_c, 0, 64, 100
1, 308373, Note_off_c, 0, 57, 63
1, 308376, Note_off_c, 0, 54, 61
1, 308446, Note_on_c, 0, 77, 78
1, 308451, Note_on_c, 0, 53, 61
1, 308469, Note_on_c, 0, 78, 77
1, 308479, Note_on_c, 0, 54, 69
1, 308487, Control_c, 0, 64, 98
1, 308493, Note_off_c, 0, 77, 59
1, 308496, Note_on_c, 0, 82, 72
1, 308499, Note_on_c, 0, 80, 46
1, 308501, Note_on_c, 0, 56, 78
1, 308502, Control_c, 0, 64, 89
1, 308514, Note_on_c, 0, 58, 81
1, 308517, Control_c, 0, 64, 75
1, 308523, Note_off_c, 0, 80, 59
1, 308529, Note_off_c, 0, 53, 62
1, 308529, Note_off_c, 0, 78, 64
1, 308530, Note_on_c, 0, 84, 83
1, 308532, Control_c, 0, 64, 49
1, 308538, Note_on_c, 0, 60, 78
1, 308544, Note_off_c, 0, 54, 58
1, 308547, Control_c, 0, 64, 0
1, 308552, Note_off_c, 0, 56, 64
1, 308552, Note_off_c, 0, 82, 65
1, 308573, Note_off_c, 0, 84, 65
1, 308573, Note_off_c, 0, 58, 64
1, 308585, Note_off_c, 0, 60, 61
1, 308651, Note_on_c, 0, 59, 109
1, 308656, Note_on_c, 0, 81, 70
1, 308656, Note_on_c, 0, 83, 56
1, 308675, Note_off_c, 0, 81, 66
1, 308677, Note_off_c, 0, 83, 39
1, 308681, Control_c, 0, 64, 57
1, 308696, Control_c, 0, 64, 62
1, 308725, Control_c, 0, 64, 63
1, 308740, Control_c, 0, 64, 63
1, 308755, Control_c, 0, 64, 64
1, 308773, Note_on_c, 0, 65, 63
1, 308779, Note_on_c, 0, 62, 59
1, 308785, Control_c, 0, 64, 63
1, 308792, Note_off_c, 0, 65, 65
1, 308795, Note_off_c, 0, 59, 59
1, 308799, Note_off_c, 0, 62, 61
1, 308800, Control_c, 0, 64, 62
1, 308821, Control_c, 0, 64, 60
1, 308836, Control_c, 0, 64, 60
1, 308866, Control_c, 0, 64, 59
1, 308879, Note_on_c, 0, 59, 94
1, 308881, Control_c, 0, 64, 58
1, 308895, Control_c, 0, 64, 56
1, 308910, Control_c, 0, 64, 53
1, 308925, Control_c, 0, 64, 51
1, 308928, Note_off_c, 0, 59, 68
1, 308940, Control_c, 0, 64, 49
1, 308955, Control_c, 0, 64, 46
1, 308970, Control_c, 0, 64, 43
1, 308985, Control_c, 0, 64, 42
1, 308991, Note_on_c, 0, 58, 73
1, 308991, Note_on_c, 0, 51, 84
1, 308998, Note_on_c, 0, 54, 64
1, 309000, Control_c, 0, 64, 40
1, 309014, Control_c, 0, 64, 37
1, 309041, Note_off_c, 0, 51, 57
1, 309044, Control_c, 0, 64, 37
1, 309059, Control_c, 0, 64, 34
1, 309061, Note_off_c, 0, 54, 56
1, 309066, Note_off_c, 0, 58, 60
1, 309073, Control_c, 0, 64, 32
1, 309088, Control_c, 0, 64, 34
1, 309103, Control_c, 0, 64, 36
1, 309105, Note_on_c, 0, 48, 93
1, 309118, Control_c, 0, 64, 37
1, 309133, Control_c, 0, 64, 36
1, 309145, Note_off_c, 0, 48, 68
1, 309147, Control_c, 0, 64, 34
1, 309162, Control_c, 0, 64, 33
1, 309177, Control_c, 0, 64, 34
1, 309207, Control_c, 0, 64, 35
1, 309208, Note_on_c, 0, 41, 93
1, 309221, Control_c, 0, 64, 36
1, 309251, Control_c, 0, 64, 34
1, 309258, Note_off_c, 0, 41, 67
1, 309297, Control_c, 0, 64, 36
1, 309311, Control_c, 0, 64, 37
1, 309326, Control_c, 0, 64, 39
1, 309329, Note_on_c, 0, 47, 98
1, 309341, Control_c, 0, 64, 40
1, 309385, Control_c, 0, 64, 38
1, 309400, Control_c, 0, 64, 37
1, 309415, Control_c, 0, 64, 36
1, 309428, Note_on_c, 0, 60, 77
1, 309429, Note_on_c, 0, 53, 79
1, 309430, Note_on_c, 0, 56, 76
1, 309444, Note_off_c, 0, 47, 63
1, 309444, Control_c, 0, 64, 37
1, 309453, Note_off_c, 0, 60, 64
1, 309455, Note_off_c, 0, 53, 68
1, 309459, Control_c, 0, 64, 39
1, 309461, Note_off_c, 0, 56, 64
1, 309474, Control_c, 0, 64, 40
1, 309488, Control_c, 0, 64, 40
1, 309503, Control_c, 0, 64, 40
1, 309533, Control_c, 0, 64, 40
1, 309542, Note_on_c, 0, 48, 92
1, 309546, Note_on_c, 0, 41, 78
1, 309548, Note_on_c, 0, 60, 78
1, 309548, Control_c, 0, 64, 41
1, 309554, Note_on_c, 0, 53, 77
1, 309554, Note_on_c, 0, 56, 75
1, 309581, Note_off_c, 0, 60, 64
1, 309585, Control_c, 0, 64, 40
1, 309586, Note_off_c, 0, 53, 70
1, 309590, Note_off_c, 0, 56, 68
1, 309650, Note_on_c, 0, 59, 81
1, 309661, Note_on_c, 0, 54, 78
1, 309661, Note_on_c, 0, 51, 73
1, 309674, Control_c, 0, 64, 41
1, 309688, Note_off_c, 0, 48, 61
1, 309688, Note_off_c, 0, 51, 65
1, 309694, Note_off_c, 0, 41, 62
1, 309697, Note_off_c, 0, 54, 62
1, 309703, Control_c, 0, 64, 40
1, 309712, Note_off_c, 0, 59, 62
1, 309733, Control_c, 0, 64, 40
1, 309748, Control_c, 0, 64, 41
1, 309763, Control_c, 0, 64, 41
1, 309772, Note_on_c, 0, 47, 95
1, 309772, Note_on_c, 0, 51, 66
1, 309778, Note_on_c, 0, 59, 64
1, 309778, Control_c, 0, 64, 42
1, 309780, Note_on_c, 0, 54, 75
1, 309782, Note_on_c, 0, 41, 81
1, 309800, Note_off_c, 0, 51, 64
1, 309807, Control_c, 0, 64, 41
1, 309808, Note_off_c, 0, 59, 62
1, 309812, Note_off_c, 0, 54, 63
1, 309822, Control_c, 0, 64, 41
1, 309837, Control_c, 0, 64, 42
1, 309852, Control_c, 0, 64, 41
1, 309867, Control_c, 0, 64, 41
1, 309876, Note_on_c, 0, 60, 84
1, 309879, Note_on_c, 0, 53, 83
1, 309879, Note_on_c, 0, 56, 81
1, 309910, Note_off_c, 0, 41, 62
1, 309911, Control_c, 0, 64, 40
1, 309913, Note_off_c, 0, 53, 64
1, 309919, Note_off_c, 0, 60, 58
1, 309924, Note_off_c, 0, 56, 61
1, 309926, Control_c, 0, 64, 39
1, 309927, Note_off_c, 0, 47, 62
1, 309941, Control_c, 0, 64, 37
1, 309985, Control_c, 0, 64, 38
1, 309991, Note_on_c, 0, 48, 107
1, 309995, Note_on_c, 0, 60, 84
1, 309998, Note_on_c, 0, 41, 87
1, 309998, Note_on_c, 0, 53, 83
1, 309998, Note_on_c, 0, 56, 79
1, 310000, Control_c, 0, 64, 39
1, 310015, Control_c, 0, 64, 38
1, 310022, Note_off_c, 0, 53, 70
1, 310030, Control_c, 0, 64, 36
1, 310031, Note_off_c, 0, 60, 56
1, 310044, Note_off_c, 0, 56, 65
1, 310044, Control_c, 0, 64, 34
1, 310059, Control_c, 0, 64, 32
1, 310090, Control_c, 0, 64, 31
1, 310094, Note_on_c, 0, 59, 85
1, 310099, Note_on_c, 0, 51, 83
1, 310099, Note_on_c, 0, 54, 84
1, 310104, Control_c, 0, 64, 32
1, 310111, Note_off_c, 0, 48, 56
1, 310119, Control_c, 0, 64, 30
1, 310125, Note_off_c, 0, 41, 59
1, 310126, Note_off_c, 0, 51, 63
1, 310134, Control_c, 0, 64, 29
1, 310147, Note_off_c, 0, 54, 59
1, 310149, Control_c, 0, 64, 22
1, 310160, Note_off_c, 0, 59, 61
1, 310164, Control_c, 0, 64, 0
1, 310207, Note_on_c, 0, 59, 78
1, 310210, Note_on_c, 0, 47, 97
1, 310210, Note_on_c, 0, 51, 87
1, 310214, Note_on_c, 0, 54, 79
1, 310219, Note_on_c, 0, 41, 86
1, 310235, Note_off_c, 0, 51, 66
1, 310249, Note_off_c, 0, 47, 66
1, 310252, Note_off_c, 0, 54, 65
1, 310261, Note_off_c, 0, 41, 66
1, 310265, Note_off_c, 0, 59, 64
1, 310430, Poly_aftertouch_c, 0, 47, 127
1, 310451, Poly_aftertouch_c, 0, 47, 0
1, 310502, Note_on_c, 0, 42, 88
1, 310503, Note_on_c, 0, 69, 86
1, 310507, Note_on_c, 0, 75, 82
1, 310507, Note_on_c, 0, 78, 84
1, 310508, Note_on_c, 0, 83, 78
1, 310508, Note_on_c, 0, 36, 84
1, 310508, Note_on_c, 0, 47, 98
1, 310516, Note_on_c, 0, 81, 75
1, 310526, Note_on_c, 0, 80, 59
1, 310526, Control_c, 0, 64, 65
1, 310541, Control_c, 0, 64, 91
1, 310544, Note_off_c, 0, 69, 66
1, 310545, Note_off_c, 0, 83, 63
1, 310548, Note_off_c, 0, 80, 65
1, 310552, Note_off_c, 0, 36, 65
1, 310554, Note_off_c, 0, 81, 59
1, 310556, Control_c, 0, 64, 127
1, 310557, Note_off_c, 0, 78, 63
1, 310566, Note_off_c, 0, 75, 64
1, 310568, Note_off_c, 0, 47, 64
1, 310577, Note_off_c, 0, 42, 64
1, 310655, Note_on_c, 0, 71, 70
1, 310655, Note_on_c, 0, 78, 77
1, 310659, Note_on_c, 0, 75, 62
1, 310668, Note_off_c, 0, 78, 69
1, 310670, Note_off_c, 0, 71, 66
1, 310675, Note_off_c, 0, 75, 68
1, 310716, Note_on_c, 0, 75, 85
1, 310717, Note_on_c, 0, 78, 86
1, 310739, Note_off_c, 0, 78, 63
1, 310742, Note_on_c, 0, 71, 40
1, 310750, Note_off_c, 0, 75, 62
1, 310773, Note_on_c, 0, 70, 90
1, 310773, Note_off_c, 0, 71, 52
1, 310775, Note_on_c, 0, 66, 87
1, 310793, Control_c, 0, 64, 120
1, 310808, Control_c, 0, 64, 96
1, 310823, Control_c, 0, 64, 78
1, 310837, Note_off_c, 0, 70, 65
1, 310838, Control_c, 0, 64, 61
1, 310853, Control_c, 0, 64, 0
1, 310863, Note_off_c, 0, 66, 64
1, 310973, Note_on_c, 0, 66, 98
1, 310976, Note_on_c, 0, 59, 98
1, 310976, Note_on_c, 0, 63, 91
1, 310997, Note_off_c, 0, 59, 66
1, 311001, Control_c, 0, 64, 68
1, 311006, Note_on_c, 0, 60, 47
1, 311007, Note_off_c, 0, 60, 127
1, 311015, Note_off_c, 0, 63, 55
1, 311016, Control_c, 0, 64, 80
1, 311027, Note_off_c, 0, 66, 63
1, 311031, Control_c, 0, 64, 95
1, 311046, Control_c, 0, 64, 107
1, 311068, Control_c, 0, 64, 110
1, 311083, Note_on_c, 0, 57, 93
1, 311089, Note_on_c, 0, 54, 79
1, 311113, Control_c, 0, 64, 110
1, 311119, Note_off_c, 0, 57, 64
1, 311128, Control_c, 0, 64, 106
1, 311139, Note_off_c, 0, 54, 63
1, 311142, Control_c, 0, 64, 99
1, 311157, Control_c, 0, 64, 91
1, 311172, Control_c, 0, 64, 81
1, 311187, Control_c, 0, 64, 70
1, 311202, Control_c, 0, 64, 34
1, 311216, Control_c, 0, 64, 0
1, 311267, Note_on_c, 0, 51, 86
1, 311271, Note_on_c, 0, 44, 76
1, 311271, Note_on_c, 0, 67, 85
1, 311276, Note_on_c, 0, 63, 77
1, 311277, Note_on_c, 0, 60, 87
1, 311292, Note_off_c, 0, 51, 66
1, 311298, Note_off_c, 0, 60, 67
1, 311301, Note_off_c, 0, 63, 67
1, 311307, Note_off_c, 0, 44, 66
1, 311321, Note_off_c, 0, 67, 59
1, 311349, Control_c, 0, 64, 28
1, 311364, Control_c, 0, 64, 71
1, 311366, Note_on_c, 0, 67, 80
1, 311379, Control_c, 0, 64, 86
1, 311380, Note_on_c, 0, 41, 89
1, 311384, Note_on_c, 0, 48, 85
1, 311390, Note_on_c, 0, 63, 57
1, 311391, Note_off_c, 0, 63, 127
1, 311394, Control_c, 0, 64, 109
1, 311408, Note_off_c, 0, 67, 64
1, 311408, Control_c, 0, 64, 127
1, 311411, Note_off_c, 0, 48, 68
1, 311430, Note_off_c, 0, 41, 63
1, 311490, Note_on_c, 0, 82, 96
1, 311534, Note_off_c, 0, 82, 63
1, 311596, Note_on_c, 0, 42, 78
1, 311602, Note_on_c, 0, 47, 95
1, 311604, Note_on_c, 0, 78, 96
1, 311605, Note_on_c, 0, 83, 77
1, 311608, Note_on_c, 0, 36, 75
1, 311609, Note_on_c, 0, 75, 87
1, 311612, Note_on_c, 0, 69, 78
1, 311625, Note_on_c, 0, 71, 53
1, 311628, Note_off_c, 0, 83, 67
1, 311640, Note_off_c, 0, 69, 52
1, 311644, Note_on_c, 0, 81, 32
1, 311647, Note_off_c, 0, 71, 38
1, 311656, Note_off_c, 0, 78, 63
1, 311659, Note_off_c, 0, 36, 63
1, 311659, Note_off_c, 0, 75, 64
1, 311671, Note_off_c, 0, 47, 63
1, 311675, Note_off_c, 0, 81, 51
1, 311684, Note_off_c, 0, 42, 64
1, 311721, Control_c, 0, 64, 116
1, 311736, Control_c, 0, 64, 94
1, 311751, Control_c, 0, 64, 73
1, 311765, Control_c, 0, 64, 0
1, 311814, Note_on_c, 0, 59, 95
1, 311817, Note_on_c, 0, 66, 84
1, 311821, Note_on_c, 0, 63, 70
1, 311834, Note_off_c, 0, 59, 68
1, 311840, Note_off_c, 0, 66, 66
1, 311846, Note_off_c, 0, 63, 68
1, 311861, Control_c, 0, 64, 55
1, 311876, Control_c, 0, 64, 74
1, 311879, Note_on_c, 0, 66, 87
1, 311888, Note_on_c, 0, 63, 84
1, 311891, Control_c, 0, 64, 91
1, 311906, Control_c, 0, 64, 118
1, 311907, Note_off_c, 0, 63, 73
1, 311921, Control_c, 0, 64, 127
1, 311926, Note_off_c, 0, 66, 67
1, 311931, Note_on_c, 0, 57, 77
1, 311939, Note_on_c, 0, 54, 64
1, 311972, Note_off_c, 0, 57, 61
1, 311973, Poly_aftertouch_c, 0, 59, 0
1, 311976, Note_off_c, 0, 54, 61
1, 312041, Note_on_c, 0, 53, 74
1, 312043, Note_on_c, 0, 77, 82
1, 312067, Note_on_c, 0, 54, 69
1, 312078, Note_on_c, 0, 78, 67
1, 312080, Note_off_c, 0, 77, 57
1, 312088, Note_on_c, 0, 56, 71
1, 312094, Note_on_c, 0, 80, 66
1, 312096, Note_on_c, 0, 58, 81
1, 312097, Note_on_c, 0, 82, 79
1, 312121, Note_on_c, 0, 84, 84
1, 312121, Note_off_c, 0, 80, 68
1, 312124, Note_on_c, 0, 60, 87
1, 312128, Control_c, 0, 64, 115
1, 312130, Note_off_c, 0, 78, 63
1, 312132, Note_off_c, 0, 56, 60
1, 312139, Note_off_c, 0, 53, 59
1, 312139, Note_off_c, 0, 54, 61
1, 312143, Control_c, 0, 64, 92
1, 312153, Note_off_c, 0, 82, 66
1, 312157, Control_c, 0, 64, 71
1, 312165, Note_off_c, 0, 58, 65
1, 312165, Note_off_c, 0, 84, 66
1, 312172, Control_c, 0, 64, 0
1, 312176, Note_off_c, 0, 60, 63
1, 312250, Note_on_c, 0, 83, 80
1, 312253, Note_on_c, 0, 59, 103
1, 312269, Note_off_c, 0, 83, 69
1, 312276, Control_c, 0, 64, 55
1, 312291, Control_c, 0, 64, 68
1, 312305, Control_c, 0, 64, 78
1, 312320, Control_c, 0, 64, 92
1, 312335, Control_c, 0, 64, 99
1, 312350, Control_c, 0, 64, 100
1, 312377, Note_on_c, 0, 60, 75
1, 312388, Note_on_c, 0, 64, 56
1, 312395, Control_c, 0, 64, 101
1, 312401, Note_off_c, 0, 60, 69
1, 312409, Note_on_c, 0, 69, 5
1, 312409, Note_off_c, 0, 64, 62
1, 312410, Note_on_c, 0, 67, 25
1, 312416, Note_off_c, 0, 59, 50
1, 312439, Control_c, 0, 64, 100
1, 312448, Note_off_c, 0, 67, 42
1, 312463, Note_off_c, 0, 69, 34
1, 312489, Note_on_c, 0, 59, 96
1, 312514, Control_c, 0, 64, 99
1, 312523, Note_off_c, 0, 59, 70
1, 312529, Control_c, 0, 64, 98
1, 312544, Control_c, 0, 64, 96
1, 312566, Control_c, 0, 64, 94
1, 312581, Control_c, 0, 64, 91
1, 312595, Control_c, 0, 64, 88
1, 312600, Note_on_c, 0, 51, 84
1, 312600, Note_on_c, 0, 58, 68
1, 312604, Note_on_c, 0, 54, 70
1, 312610, Control_c, 0, 64, 84
1, 312624, Note_off_c, 0, 51, 69
1, 312625, Control_c, 0, 64, 80
1, 312632, Note_off_c, 0, 54, 64
1, 312640, Control_c, 0, 64, 74
1, 312650, Note_off_c, 0, 58, 61
1, 312655, Control_c, 0, 64, 68
1, 312669, Control_c, 0, 64, 60
1, 312684, Control_c, 0, 64, 39
1, 312699, Control_c, 0, 64, 0
1, 312705, Note_on_c, 0, 48, 87
1, 312747, Note_off_c, 0, 48, 67
1, 312810, Note_on_c, 0, 41, 87
1, 312869, Note_off_c, 0, 41, 66
1, 312911, Note_on_c, 0, 47, 93
1, 312931, Note_on_c, 0, 77, 73
1, 312949, Note_off_c, 0, 47, 68
1, 312958, Note_on_c, 0, 78, 76
1, 312982, Note_off_c, 0, 77, 58
1, 313000, Note_on_c, 0, 81, 82
1, 313011, Note_off_c, 0, 78, 63
1, 313032, Note_on_c, 0, 84, 78
1, 313035, Note_on_c, 0, 60, 97
1, 313048, Note_off_c, 0, 81, 62
1, 313053, Note_off_c, 0, 84, 72
1, 313075, Note_off_c, 0, 60, 65
1, 313133, Note_on_c, 0, 83, 82
1, 313142, Note_on_c, 0, 59, 111
1, 313158, Note_off_c, 0, 83, 62
1, 313173, Control_c, 0, 64, 22
1, 313188, Control_c, 0, 64, 70
1, 313203, Control_c, 0, 64, 87
1, 313218, Control_c, 0, 64, 114
1, 313232, Control_c, 0, 64, 127
1, 313265, Note_on_c, 0, 67, 74
1, 313268, Note_on_c, 0, 62, 77
1, 313275, Note_on_c, 0, 64, 63
1, 313290, Note_off_c, 0, 67, 68
1, 313294, Note_off_c, 0, 62, 67
1, 313297, Note_off_c, 0, 64, 66
1, 313310, Note_off_c, 0, 59, 55
1, 313390, Note_on_c, 0, 59, 97
1, 313425, Note_off_c, 0, 59, 70
1, 313492, Control_c, 0, 64, 119
1, 313495, Note_on_c, 0, 58, 69
1, 313503, Note_on_c, 0, 51, 73
1, 313503, Note_on_c, 0, 54, 69
1, 313507, Control_c, 0, 64, 108
1, 313522, Control_c, 0, 64, 97
1, 313531, Note_off_c, 0, 51, 65
1, 313537, Control_c, 0, 64, 85
1, 313551, Control_c, 0, 64, 71
1, 313561, Note_off_c, 0, 58, 61
1, 313563, Note_off_c, 0, 54, 56
1, 313566, Control_c, 0, 64, 0
1, 313608, Note_on_c, 0, 48, 89
1, 313651, Note_off_c, 0, 48, 67
1, 313718, Note_on_c, 0, 41, 96
1, 313769, Note_off_c, 0, 41, 67
1, 313841, Note_on_c, 0, 47, 96
1, 313933, Note_on_c, 0, 53, 78
1, 313934, Note_on_c, 0, 60, 75
1, 313937, Note_on_c, 0, 56, 74
1, 313960, Note_off_c, 0, 53, 69
1, 313960, Note_off_c, 0, 60, 62
1, 313966, Note_off_c, 0, 56, 63
1, 313970, Note_off_c, 0, 47, 62
1, 314058, Note_on_c, 0, 48, 90
1, 314061, Note_on_c, 0, 56, 70
1, 314062, Note_on_c, 0, 60, 75
1, 314066, Note_on_c, 0, 41, 73
1, 314067, Note_on_c, 0, 53, 71
1, 314087, Note_off_c, 0, 60, 67
1, 314094, Note_off_c, 0, 53, 68
1, 314097, Note_off_c, 0, 56, 66
1, 314167, Note_on_c, 0, 51, 74
1, 314170, Note_on_c, 0, 54, 72
1, 314171, Note_on_c, 0, 59, 63
1, 314180, Note_on_c, 0, 60, 54
1, 314198, Note_off_c, 0, 51, 62
1, 314204, Note_off_c, 0, 41, 61
1, 314204, Note_off_c, 0, 48, 61
1, 314204, Note_off_c, 0, 60, 59
1, 314209, Note_off_c, 0, 54, 61
1, 314215, Note_off_c, 0, 59, 62
1, 314283, Note_on_c, 0, 58, 82
1, 314289, Note_on_c, 0, 47, 92
1, 314294, Note_on_c, 0, 51, 68
1, 314296, Note_on_c, 0, 41, 83
1, 314309, Note_on_c, 0, 54, 59
1, 314316, Note_off_c, 0, 58, 66
1, 314320, Note_off_c, 0, 51, 65
1, 314330, Note_off_c, 0, 54, 63
1, 314400, Note_on_c, 0, 60, 89
1, 314404, Note_on_c, 0, 53, 76
1, 314431, Note_off_c, 0, 53, 65
1, 314437, Note_off_c, 0, 41, 62
1, 314446, Note_off_c, 0, 60, 58
1, 314449, Note_on_c, 0, 57, 8
1, 314455, Note_off_c, 0, 47, 63
1, 314494, Note_off_c, 0, 57, 29
1, 314515, Note_on_c, 0, 48, 97
1, 314520, Note_on_c, 0, 53, 79
1, 314523, Note_on_c, 0, 41, 85
1, 314524, Note_on_c, 0, 60, 75
1, 314528, Note_on_c, 0, 56, 77
1, 314549, Note_off_c, 0, 53, 66
1, 314552, Note_off_c, 0, 60, 64
1, 314556, Note_off_c, 0, 56, 66
1, 314624, Note_on_c, 0, 59, 76
1, 314631, Note_on_c, 0, 51, 74
1, 314635, Note_on_c, 0, 54, 71
1, 314653, Note_off_c, 0, 48, 60
1, 314658, Note_off_c, 0, 51, 65
1, 314666, Note_off_c, 0, 41, 61
1, 314666, Note_off_c, 0, 54, 63
1, 314678, Note_off_c, 0, 59, 62
1, 314739, Note_on_c, 0, 47, 96
1, 314741, Note_on_c, 0, 51, 67
1, 314742, Note_on_c, 0, 59, 69
1, 314743, Note_on_c, 0, 54, 69
1, 314747, Note_on_c, 0, 41, 82
1, 314771, Note_off_c, 0, 51, 63
1, 314776, Note_off_c, 0, 59, 62
1, 314777, Note_off_c, 0, 54, 63
1, 314853, Note_on_c, 0, 60, 86
1, 314860, Note_on_c, 0, 53, 79
1, 314871, Note_off_c, 0, 41, 61
1, 314879, Note_off_c, 0, 47, 61
1, 314888, Note_off_c, 0, 53, 65
1, 314891, Note_on_c, 0, 55, 36
1, 314901, Note_off_c, 0, 60, 60
1, 314926, Note_off_c, 0, 55, 32
1, 314970, Note_on_c, 0, 48, 100
1, 314976, Note_on_c, 0, 41, 85
1, 314982, Note_on_c, 0, 60, 77
1, 314984, Note_on_c, 0, 53, 77
1, 314985, Note_on_c, 0, 56, 70
1, 315005, Note_off_c, 0, 60, 67
1, 315008, Note_off_c, 0, 53, 71
1, 315010, Note_off_c, 0, 56, 65
1, 315073, Note_on_c, 0, 59, 75
1, 315076, Note_on_c, 0, 54, 75
1, 315077, Note_on_c, 0, 51, 75
1, 315087, Note_off_c, 0, 48, 61
1, 315103, Note_off_c, 0, 41, 62
1, 315105, Note_off_c, 0, 51, 63
1, 315110, Note_off_c, 0, 54, 60
1, 315125, Note_off_c, 0, 59, 59
1, 315182, Note_on_c, 0, 47, 94
1, 315189, Note_on_c, 0, 59, 65
1, 315190, Note_on_c, 0, 51, 68
1, 315192, Note_on_c, 0, 41, 83
1, 315193, Note_on_c, 0, 54, 73
1, 315220, Note_off_c, 0, 51, 66
1, 315224, Note_off_c, 0, 59, 63
1, 315225, Note_off_c, 0, 54, 63
1, 315230, Note_off_c, 0, 47, 65
1, 315239, Note_off_c, 0, 41, 64
1, 315286, Poly_aftertouch_c, 0, 41, 0
1, 315290, Note_on_c, 0, 48, 101
1, 315294, Note_on_c, 0, 41, 84
1, 315294, Note_on_c, 0, 60, 83
1, 315295, Note_on_c, 0, 53, 81
1, 315297, Note_on_c, 0, 56, 78
1, 315324, Note_off_c, 0, 53, 65
1, 315332, Note_off_c, 0, 60, 63
1, 315334, Note_off_c, 0, 48, 66
1, 315349, Note_off_c, 0, 41, 65
1, 315355, Note_off_c, 0, 56, 63
1, 315422, Note_on_c, 0, 47, 108
1, 315427, Note_on_c, 0, 41, 91
1, 315427, Note_on_c, 0, 51, 88
1, 315429, Note_on_c, 0, 54, 82
1, 315430, Note_on_c, 0, 58, 54
1, 315432, Note_on_c, 0, 59, 84
1, 315459, Note_on_c, 0, 48, 42
1, 315460, Note_off_c, 0, 48, 127
1, 315467, Note_off_c, 0, 58, 45
1, 315474, Note_off_c, 0, 51, 58
1, 315489, Note_off_c, 0, 47, 64
1, 315496, Note_off_c, 0, 59, 57
1, 315498, Note_off_c, 0, 54, 61
1, 315502, Note_off_c, 0, 41, 66
1, 315699, Note_on_c, 0, 47, 106
1, 315704, Note_on_c, 0, 41, 96
1, 315704, Note_on_c, 0, 54, 81
1, 315704, Note_on_c, 0, 59, 83
1, 315705, Note_on_c, 0, 51, 83
1, 315738, Note_off_c, 0, 51, 61
1, 315739, Note_off_c, 0, 47, 67
1, 315752, Note_off_c, 0, 54, 57
1, 315759, Note_off_c, 0, 41, 68
1, 315764, Note_off_c, 0, 59, 61
1, 315980, Note_on_c, 0, 35, 110
1, 316056, Note_off_c, 0, 35, 66
1, 316340, Note_on_c, 0, 29, 102
1, 316487, Note_off_c, 0, 29, 64
1, 316754, Control_c, 0, 67, 13
1, 316769, Control_c, 0, 67, 26
1, 316784, Control_c, 0, 67, 51
1, 316799, Control_c, 0, 67, 87
1, 316814, Control_c, 0, 67, 127
1, 317193, Note_on_c, 0, 51, 54
1, 317217, Note_off_c, 0, 51, 61
1, 317304, Note_on_c, 0, 51, 57
1, 317309, Note_on_c, 0, 54, 55
1, 317312, Note_on_c, 0, 58, 46
1, 317338, Note_off_c, 0, 51, 62
1, 317344, Note_off_c, 0, 58, 62
1, 317346, Note_on_c, 0, 46, 53
1, 317349, Note_off_c, 0, 54, 60
1, 317362, Note_on_c, 0, 48, 53
1, 317382, Note_on_c, 0, 50, 63
1, 317396, Note_off_c, 0, 48, 64
1, 317401, Note_on_c, 0, 51, 89
1, 317411, Note_off_c, 0, 46, 52
1, 317420, Note_off_c, 0, 50, 62
1, 317429, Note_off_c, 0, 51, 64
1, 317503, Note_on_c, 0, 50, 62
1, 317510, Note_on_c, 0, 58, 54
1, 317531, Note_on_c, 0, 54, 33
1, 317532, Note_off_c, 0, 50, 65
1, 317550, Note_off_c, 0, 58, 64
1, 317562, Note_off_c, 0, 54, 50
1, 317644, Note_on_c, 0, 39, 66
1, 317672, Note_off_c, 0, 39, 64
1, 317732, Note_on_c, 0, 58, 47
1, 317738, Note_on_c, 0, 54, 40
1, 317740, Note_on_c, 0, 51, 37
1, 317768, Note_off_c, 0, 54, 55
1, 317769, Note_off_c, 0, 58, 63
1, 317772, Note_off_c, 0, 51, 49
1, 317853, Note_on_c, 0, 46, 72
1, 317893, Note_off_c, 0, 46, 62
1, 317950, Note_on_c, 0, 50, 55
1, 317955, Note_on_c, 0, 52, 67
1, 317957, Note_on_c, 0, 58, 44
1, 317975, Note_off_c, 0, 50, 62
1, 317983, Note_off_c, 0, 52, 68
1, 317984, Note_off_c, 0, 58, 58
1, 318072, Note_on_c, 0, 53, 75
1, 318101, Note_off_c, 0, 53, 67
1, 318170, Note_on_c, 0, 58, 52
1, 318171, Note_on_c, 0, 49, 53
1, 318175, Note_on_c, 0, 54, 42
1, 318205, Note_off_c, 0, 49, 60
1, 318210, Note_off_c, 0, 54, 52
1, 318214, Note_off_c, 0, 58, 62
1, 318304, Note_on_c, 0, 52, 56
1, 318327, Note_off_c, 0, 52, 61
1, 318408, Note_on_c, 0, 49, 50
1, 318408, Note_on_c, 0, 58, 44
1, 318413, Note_on_c, 0, 54, 41
1, 318440, Note_off_c, 0, 49, 55
1, 318449, Note_off_c, 0, 54, 52
1, 318456, Note_off_c, 0, 58, 60
1, 318524, Note_on_c, 0, 63, 84
1, 318547, Note_off_c, 0, 63, 68
1, 318658, Note_on_c, 0, 51, 32
1, 318661, Note_on_c, 0, 58, 29
1, 318665, Note_on_c, 0, 55, 30
1, 318695, Note_off_c, 0, 51, 47
1, 318701, Note_off_c, 0, 55, 52
1, 318701, Note_off_c, 0, 58, 50
1, 318766, Note_on_c, 0, 51, 72
1, 318795, Note_off_c, 0, 51, 65
1, 318870, Note_on_c, 0, 51, 50
1, 318873, Note_on_c, 0, 55, 43
1, 318879, Note_on_c, 0, 58, 36
1, 318914, Note_off_c, 0, 51, 59
1, 318916, Note_off_c, 0, 55, 60
1, 318923, Note_off_c, 0, 58, 56
1, 318992, Note_on_c, 0, 51, 56
1, 319015, Note_off_c, 0, 51, 57
1, 319086, Note_on_c, 0, 51, 59
1, 319090, Note_on_c, 0, 54, 48
1, 319113, Note_on_c, 0, 58, 23
1, 319120, Note_off_c, 0, 51, 62
1, 319122, Note_on_c, 0, 46, 60
1, 319137, Note_on_c, 0, 48, 62
1, 319137, Note_off_c, 0, 54, 58
1, 319144, Note_off_c, 0, 58, 55
1, 319160, Note_on_c, 0, 50, 64
1, 319176, Note_off_c, 0, 46, 57
1, 319179, Note_off_c, 0, 48, 65
1, 319184, Note_on_c, 0, 51, 90
1, 319197, Note_off_c, 0, 50, 63
1, 319211, Note_off_c, 0, 51, 65
1, 319296, Note_on_c, 0, 50, 63
1, 319310, Note_on_c, 0, 58, 45
1, 319314, Note_on_c, 0, 54, 46
1, 319330, Note_off_c, 0, 50, 64
1, 319344, Note_off_c, 0, 58, 61
1, 319349, Note_off_c, 0, 54, 59
1, 319421, Note_on_c, 0, 39, 63
1, 319453, Note_off_c, 0, 39, 63
1, 319541, Note_on_c, 0, 51, 46
1, 319543, Note_on_c, 0, 54, 46
1, 319544, Note_on_c, 0, 58, 43
1, 319568, Note_off_c, 0, 51, 55
1, 319573, Note_off_c, 0, 58, 58
1, 319575, Note_off_c, 0, 54, 54
1, 319633, Note_on_c, 0, 46, 65
1, 319663, Note_off_c, 0, 46, 64
1, 319732, Note_on_c, 0, 52, 60
1, 319741, Note_on_c, 0, 50, 57
1, 319749, Note_on_c, 0, 58, 41
1, 319764, Note_off_c, 0, 52, 68
1, 319764, Note_off_c, 0, 50, 63
1, 319779, Note_off_c, 0, 58, 55
1, 319831, Poly_aftertouch_c, 0, 54, 0
1, 319843, Note_on_c, 0, 53, 74
1, 319871, Note_off_c, 0, 53, 69
1, 319948, Note_on_c, 0, 54, 46
1, 319959, Note_on_c, 0, 49, 57
1, 319967, Note_on_c, 0, 58, 41
1, 319996, Note_off_c, 0, 49, 61
1, 319998, Note_off_c, 0, 58, 55
1, 320001, Note_off_c, 0, 54, 57
1, 320081, Note_on_c, 0, 52, 70
1, 320109, Note_off_c, 0, 52, 68
1, 320197, Note_on_c, 0, 49, 40
1, 320199, Note_on_c, 0, 54, 38
1, 320201, Note_on_c, 0, 58, 37
1, 320227, Note_off_c, 0, 49, 46
1, 320229, Note_off_c, 0, 54, 54
1, 320235, Note_off_c, 0, 58, 52
1, 320303, Note_on_c, 0, 51, 63
1, 320333, Note_off_c, 0, 51, 64
1, 320390, Note_on_c, 0, 58, 34
1, 320398, Note_on_c, 0, 55, 42
1, 320421, Note_off_c, 0, 58, 59
1, 320424, Note_off_c, 0, 55, 58
1, 320549, Note_on_c, 0, 63, 71
1, 320571, Note_off_c, 0, 63, 66
1, 320632, Control_c, 0, 67, 101
1, 320647, Control_c, 0, 67, 69
1, 320662, Control_c, 0, 67, 33
1, 320676, Control_c, 0, 67, 13
1, 320691, Control_c, 0, 67, 0
1, 320732, Note_on_c, 0, 84, 71
1, 320774, Note_off_c, 0, 84, 66
1, 320776, Note_on_c, 0, 86, 72
1, 320801, Note_on_c, 0, 87, 85
1, 320806, Note_off_c, 0, 86, 69
1, 320816, Note_on_c, 0, 81, 86
1, 320820, Note_on_c, 0, 77, 68
1, 320822, Note_off_c, 0, 87, 70
1, 320837, Note_off_c, 0, 81, 66
1, 320844, Note_off_c, 0, 77, 67
1, 320957, Note_on_c, 0, 88, 71
1, 321002, Note_on_c, 0, 87, 74
1, 321010, Note_off_c, 0, 88, 61
1, 321028, Note_on_c, 0, 86, 82
1, 321037, Note_on_c, 0, 77, 78
1, 321038, Note_off_c, 0, 87, 64
1, 321043, Note_on_c, 0, 72, 68
1, 321052, Note_off_c, 0, 86, 66
1, 321057, Note_off_c, 0, 77, 69
1, 321067, Note_off_c, 0, 72, 70
1, 321229, Note_on_c, 0, 86, 53
1, 321248, Note_on_c, 0, 84, 70
1, 321266, Note_on_c, 0, 72, 68
1, 321266, Note_off_c, 0, 86, 66
1, 321269, Note_on_c, 0, 69, 71
1, 321282, Note_off_c, 0, 72, 68
1, 321288, Note_off_c, 0, 84, 68
1, 321295, Note_off_c, 0, 69, 67
1, 321413, Note_on_c, 0, 86, 68
1, 321448, Note_on_c, 0, 84, 71
1, 321449, Note_off_c, 0, 86, 60
1, 321479, Note_on_c, 0, 82, 84
1, 321479, Note_off_c, 0, 84, 66
1, 321482, Note_on_c, 0, 69, 73
1, 321487, Note_on_c, 0, 65, 71
1, 321506, Note_off_c, 0, 69, 72
1, 321508, Note_off_c, 0, 82, 62
1, 321514, Note_off_c, 0, 65, 69
1, 321636, Note_on_c, 0, 84, 71
1, 321673, Note_on_c, 0, 82, 68
1, 321676, Note_off_c, 0, 84, 64
1, 321711, Note_on_c, 0, 81, 79
1, 321715, Note_on_c, 0, 62, 82
1, 321715, Note_off_c, 0, 82, 66
1, 321719, Note_on_c, 0, 65, 72
1, 321732, Note_off_c, 0, 81, 67
1, 321737, Note_off_c, 0, 62, 68
1, 321744, Note_off_c, 0, 65, 69
1, 321835, Note_on_c, 0, 84, 71
1, 321874, Note_on_c, 0, 81, 68
1, 321893, Note_off_c, 0, 84, 65
1, 321907, Note_off_c, 0, 81, 60
1, 321916, Note_on_c, 0, 75, 80
1, 321920, Note_on_c, 0, 60, 75
1, 321925, Note_on_c, 0, 65, 69
1, 321940, Note_off_c, 0, 75, 69
1, 321948, Note_off_c, 0, 60, 63
1, 321951, Note_off_c, 0, 65, 69
1, 322029, Note_on_c, 0, 76, 89
1, 322065, Note_off_c, 0, 76, 69
1, 322159, Control_c, 0, 64, 39
1, 322160, Note_on_c, 0, 86, 102
1, 322161, Note_on_c, 0, 77, 107
1, 322162, Note_on_c, 0, 65, 85
1, 322162, Note_on_c, 0, 81, 105
1, 322163, Note_on_c, 0, 69, 97
1, 322167, Note_on_c, 0, 59, 76
1, 322173, Control_c, 0, 64, 86
1, 322188, Control_c, 0, 64, 127
1, 322216, Note_off_c, 0, 59, 63
1, 322220, Note_off_c, 0, 65, 64
1, 322238, Note_off_c, 0, 77, 58
1, 322245, Note_off_c, 0, 81, 57
1, 322247, Note_off_c, 0, 86, 58
1, 322262, Note_off_c, 0, 69, 59
1, 322399, Note_on_c, 0, 69, 70
1, 322402, Note_on_c, 0, 72, 68
1, 322406, Note_on_c, 0, 76, 77
1, 322414, Note_on_c, 0, 64, 61
1, 322417, Control_c, 0, 64, 101
1, 322419, Note_off_c, 0, 69, 74
1, 322419, Note_off_c, 0, 72, 67
1, 322430, Note_off_c, 0, 76, 70
1, 322432, Control_c, 0, 64, 81
1, 322441, Note_off_c, 0, 64, 66
1, 322447, Control_c, 0, 64, 60
1, 322462, Control_c, 0, 64, 0
1, 322509, Note_on_c, 0, 75, 84
1, 322530, Note_off_c, 0, 75, 72
1, 322643, Note_on_c, 0, 86, 100
1, 322644, Note_on_c, 0, 77, 104
1, 322645, Note_on_c, 0, 69, 94
1, 322646, Note_on_c, 0, 65, 84
1, 322646, Note_on_c, 0, 81, 101
1, 322650, Note_on_c, 0, 59, 73
1, 322655, Control_c, 0, 64, 74
1, 322670, Control_c, 0, 64, 96
1, 322685, Control_c, 0, 64, 127
1, 322699, Note_off_c, 0, 59, 62
1, 322705, Note_off_c, 0, 65, 62
1, 322730, Note_off_c, 0, 81, 55
1, 322733, Note_off_c, 0, 77, 56
1, 322744, Note_off_c, 0, 86, 57
1, 322777, Note_off_c, 0, 69, 63
1, 322880, Note_on_c, 0, 72, 72
1, 322882, Note_on_c, 0, 64, 65
1, 322889, Note_on_c, 0, 69, 66
1, 322891, Note_on_c, 0, 76, 70
1, 322908, Note_off_c, 0, 72, 66
1, 322908, Control_c, 0, 64, 115
1, 322911, Note_off_c, 0, 69, 73
1, 322913, Note_off_c, 0, 64, 66
1, 322914, Note_off_c, 0, 76, 69
1, 322922, Control_c, 0, 64, 96
1, 322937, Control_c, 0, 64, 75
1, 322952, Control_c, 0, 64, 0
1, 322974, Note_on_c, 0, 75, 63
1, 322992, Note_off_c, 0, 75, 64
1, 322996, Control_c, 0, 67, 8
1, 323011, Control_c, 0, 67, 9
1, 323026, Control_c, 0, 67, 10
1, 323064, Control_c, 0, 67, 9
1, 323078, Control_c, 0, 67, 8
1, 323093, Control_c, 0, 67, 8
1, 323108, Control_c, 0, 67, 0
1, 323120, Note_on_c, 0, 95, 105
1, 323122, Control_c, 0, 64, 68
1, 323127, Note_on_c, 0, 83, 90
1, 323137, Control_c, 0, 64, 86
1, 323152, Control_c, 0, 64, 110
1, 323167, Control_c, 0, 64, 127
1, 323174, Note_off_c, 0, 83, 61
1, 323214, Note_off_c, 0, 95, 37
1, 323224, Note_on_c, 0, 93, 86
1, 323230, Note_on_c, 0, 81, 80
1, 323251, Note_off_c, 0, 81, 65
1, 323267, Note_off_c, 0, 93, 61
1, 323315, Control_c, 0, 64, 116
1, 323330, Control_c, 0, 64, 97
1, 323345, Control_c, 0, 64, 81
1, 323347, Note_on_c, 0, 83, 79
1, 323354, Note_on_c, 0, 71, 79
1, 323360, Control_c, 0, 64, 63
1, 323375, Control_c, 0, 64, 0
1, 323376, Note_off_c, 0, 71, 69
1, 323378, Note_off_c, 0, 83, 60
1, 323419, Control_c, 0, 67, 8
1, 323478, Control_c, 0, 67, 8
1, 323493, Note_on_c, 0, 84, 75
1, 323523, Note_off_c, 0, 84, 58
1, 323537, Note_on_c, 0, 86, 58
1, 323560, Note_on_c, 0, 87, 74
1, 323562, Note_off_c, 0, 86, 66
1, 323571, Note_on_c, 0, 81, 69
1, 323576, Note_on_c, 0, 77, 62
1, 323582, Note_off_c, 0, 87, 69
1, 323592, Note_off_c, 0, 81, 65
1, 323597, Note_off_c, 0, 77, 65
1, 323716, Control_c, 0, 67, 8
1, 323722, Note_on_c, 0, 88, 66
1, 323761, Note_on_c, 0, 87, 70
1, 323763, Note_off_c, 0, 88, 59
1, 323794, Note_on_c, 0, 77, 71
1, 323798, Note_on_c, 0, 86, 80
1, 323802, Note_on_c, 0, 72, 70
1, 323808, Note_off_c, 0, 87, 63
1, 323816, Note_off_c, 0, 77, 69
1, 323822, Note_off_c, 0, 86, 65
1, 323826, Note_off_c, 0, 72, 70
1, 323827, Control_c, 0, 67, 8
1, 323945, Note_on_c, 0, 87, 69
1, 323993, Note_on_c, 0, 86, 74
1, 323994, Note_off_c, 0, 87, 62
1, 324020, Note_on_c, 0, 72, 76
1, 324021, Note_on_c, 0, 69, 75
1, 324025, Note_on_c, 0, 84, 75
1, 324029, Note_off_c, 0, 86, 65
1, 324042, Note_off_c, 0, 72, 71
1, 324050, Note_off_c, 0, 84, 67
1, 324053, Note_off_c, 0, 69, 61
1, 324138, Control_c, 0, 67, 8
1, 324178, Note_on_c, 0, 86, 73
1, 324198, Control_c, 0, 67, 8
1, 324213, Note_on_c, 0, 84, 74
1, 324226, Note_off_c, 0, 86, 61
1, 324240, Note_on_c, 0, 69, 78
1, 324244, Note_on_c, 0, 82, 87
1, 324247, Note_on_c, 0, 65, 73
1, 324252, Note_off_c, 0, 84, 66
1, 324262, Note_off_c, 0, 69, 72
1, 324277, Note_off_c, 0, 65, 66
1, 324278, Note_off_c, 0, 82, 66
1, 324395, Note_on_c, 0, 84, 75
1, 324432, Note_on_c, 0, 82, 71
1, 324443, Note_off_c, 0, 84, 63
1, 324459, Note_on_c, 0, 62, 79
1, 324465, Note_on_c, 0, 65, 71
1, 324467, Note_on_c, 0, 81, 76
1, 324473, Note_off_c, 0, 82, 66
1, 324490, Note_off_c, 0, 65, 68
1, 324493, Note_off_c, 0, 81, 63
1, 324502, Note_off_c, 0, 62, 56
1, 324615, Note_on_c, 0, 84, 32
1, 324616, Note_on_c, 0, 81, 77
1, 324643, Note_off_c, 0, 84, 58
1, 324661, Note_on_c, 0, 60, 77
1, 324663, Note_on_c, 0, 65, 70
1, 324665, Note_off_c, 0, 81, 59
1, 324676, Note_on_c, 0, 75, 71
1, 324688, Note_off_c, 0, 65, 69
1, 324694, Note_off_c, 0, 60, 64
1, 324694, Control_c, 0, 67, 8
1, 324703, Note_off_c, 0, 75, 67
1, 324754, Control_c, 0, 67, 8
1, 324771, Note_on_c, 0, 76, 87
1, 324810, Note_off_c, 0, 76, 68
1, 324843, Control_c, 0, 67, 8
1, 324858, Control_c, 0, 67, 0
1, 324894, Note_on_c, 0, 65, 81
1, 324898, Note_on_c, 0, 69, 92
1, 324898, Note_on_c, 0, 86, 100
1, 324899, Note_on_c, 0, 81, 103
1, 324900, Note_on_c, 0, 77, 98
1, 324903, Note_on_c, 0, 59, 72
1, 324917, Control_c, 0, 64, 75
1, 324932, Control_c, 0, 64, 100
1, 324947, Control_c, 0, 64, 127
1, 324950, Note_off_c, 0, 59, 61
1, 324965, Note_off_c, 0, 65, 65
1, 324983, Note_off_c, 0, 77, 56
1, 324983, Note_off_c, 0, 81, 57
1, 324993, Note_off_c, 0, 86, 59
1, 325013, Note_off_c, 0, 69, 59
1, 325129, Note_on_c, 0, 69, 72
1, 325134, Note_on_c, 0, 72, 61
1, 325134, Note_on_c, 0, 76, 75
1, 325141, Note_on_c, 0, 64, 63
1, 325148, Note_off_c, 0, 69, 76
1, 325151, Note_off_c, 0, 72, 64
1, 325154, Control_c, 0, 64, 107
1, 325155, Note_off_c, 0, 76, 72
1, 325168, Control_c, 0, 64, 88
1, 325169, Note_off_c, 0, 64, 67
1, 325183, Control_c, 0, 64, 67
1, 325198, Control_c, 0, 64, 0
1, 325198, Control_c, 0, 67, 8
1, 325234, Note_on_c, 0, 75, 77
1, 325249, Note_off_c, 0, 75, 68
1, 325311, Control_c, 0, 67, 0
1, 325374, Note_on_c, 0, 86, 101
1, 325374, Note_on_c, 0, 65, 87
1, 325377, Note_on_c, 0, 77, 101
1, 325377, Note_on_c, 0, 69, 94
1, 325377, Note_on_c, 0, 81, 100
1, 325384, Note_on_c, 0, 59, 71
1, 325385, Control_c, 0, 64, 63
1, 325399, Control_c, 0, 64, 78
1, 325414, Control_c, 0, 64, 101
1, 325429, Note_off_c, 0, 59, 58
1, 325429, Control_c, 0, 64, 127
1, 325435, Note_off_c, 0, 65, 64
1, 325440, Note_off_c, 0, 81, 58
1, 325464, Note_off_c, 0, 77, 54
1, 325468, Note_off_c, 0, 86, 59
1, 325487, Note_off_c, 0, 69, 59
1, 325591, Note_on_c, 0, 69, 72
1, 325597, Note_on_c, 0, 72, 63
1, 325599, Note_on_c, 0, 76, 75
1, 325601, Note_on_c, 0, 64, 67
1, 325611, Note_off_c, 0, 69, 73
1, 325615, Note_off_c, 0, 72, 66
1, 325624, Note_off_c, 0, 76, 69
1, 325631, Note_off_c, 0, 64, 67
1, 325650, Control_c, 0, 64, 102
1, 325650, Control_c, 0, 67, 8
1, 325665, Control_c, 0, 64, 80
1, 325665, Control_c, 0, 67, 10
1, 325680, Control_c, 0, 64, 0
1, 325680, Control_c, 0, 67, 12
1, 325694, Note_on_c, 0, 75, 79
1, 325695, Control_c, 0, 67, 14
1, 325709, Control_c, 0, 67, 21
1, 325724, Control_c, 0, 67, 31
1, 325728, Note_off_c, 0, 75, 65
1, 325739, Control_c, 0, 67, 38
1, 325754, Control_c, 0, 67, 41
1, 325769, Control_c, 0, 67, 40
1, 325783, Control_c, 0, 67, 38
1, 325798, Control_c, 0, 67, 37
1, 325812, Note_on_c, 0, 84, 89
1, 325813, Control_c, 0, 67, 35
1, 325818, Note_on_c, 0, 63, 83
1, 325828, Control_c, 0, 64, 67
1, 325828, Control_c, 0, 67, 33
1, 325842, Control_c, 0, 64, 80
1, 325842, Control_c, 0, 67, 31
1, 325857, Control_c, 0, 64, 99
1, 325868, Note_off_c, 0, 63, 63
1, 325872, Control_c, 0, 64, 127
1, 325884, Note_off_c, 0, 84, 61
1, 325887, Control_c, 0, 67, 32
1, 325902, Note_on_c, 0, 80, 88
1, 325902, Control_c, 0, 67, 31
1, 325910, Note_on_c, 0, 60, 49
1, 325916, Control_c, 0, 67, 31
1, 325931, Control_c, 0, 67, 30
1, 325933, Note_off_c, 0, 60, 57
1, 325946, Note_off_c, 0, 80, 63
1, 325961, Control_c, 0, 67, 29
1, 326021, Control_c, 0, 67, 30
1, 326103, Control_c, 0, 67, 30
1, 326114, Note_on_c, 0, 60, 97
1, 326115, Note_on_c, 0, 44, 93
1, 326116, Note_on_c, 0, 32, 80
1, 326141, Note_on_c, 0, 67, 59
1, 326142, Note_off_c, 0, 67, 127
1, 326147, Control_c, 0, 67, 30
1, 326148, Note_off_c, 0, 32, 65
1, 326148, Note_off_c, 0, 60, 65
1, 326158, Note_on_c, 0, 34, 32
1, 326158, Note_off_c, 0, 44, 67
1, 326162, Control_c, 0, 67, 29
1, 326164, Poly_aftertouch_c, 0, 67, 0
1, 326177, Control_c, 0, 67, 29
1, 326192, Control_c, 0, 67, 28
1, 326199, Note_off_c, 0, 34, 39
1, 326206, Control_c, 0, 67, 28
1, 326251, Control_c, 0, 67, 27
1, 326265, Control_c, 0, 67, 27
1, 326325, Control_c, 0, 67, 26
1, 326354, Control_c, 0, 67, 26
1, 326401, Note_on_c, 0, 63, 75
1, 326406, Note_on_c, 0, 87, 72
1, 326440, Note_on_c, 0, 65, 80
1, 326455, Note_off_c, 0, 63, 62
1, 326455, Note_off_c, 0, 87, 65
1, 326458, Control_c, 0, 67, 26
1, 326462, Note_on_c, 0, 89, 72
1, 326473, Control_c, 0, 67, 27
1, 326474, Note_on_c, 0, 90, 87
1, 326489, Note_on_c, 0, 66, 91
1, 326494, Note_off_c, 0, 65, 66
1, 326499, Note_off_c, 0, 89, 63
1, 326503, Control_c, 0, 67, 27
1, 326518, Control_c, 0, 67, 28
1, 326520, Note_off_c, 0, 90, 64
1, 326530, Note_off_c, 0, 66, 67
1, 326532, Control_c, 0, 67, 29
1, 326562, Control_c, 0, 67, 28
1, 326577, Control_c, 0, 67, 28
1, 326592, Control_c, 0, 67, 27
1, 326593, Note_on_c, 0, 65, 68
1, 326607, Note_on_c, 0, 89, 69
1, 326621, Control_c, 0, 67, 26
1, 326638, Note_on_c, 0, 63, 68
1, 326644, Note_on_c, 0, 87, 73
1, 326667, Note_off_c, 0, 89, 61
1, 326670, Note_off_c, 0, 65, 65
1, 326680, Control_c, 0, 67, 27
1, 326682, Note_on_c, 0, 86, 72
1, 326688, Note_on_c, 0, 62, 77
1, 326694, Note_off_c, 0, 87, 64
1, 326705, Note_off_c, 0, 86, 69
1, 326708, Note_off_c, 0, 63, 65
1, 326710, Control_c, 0, 67, 27
1, 326723, Note_off_c, 0, 62, 62
1, 326784, Note_on_c, 0, 84, 77
1, 326804, Note_on_c, 0, 60, 70
1, 326825, Note_off_c, 0, 84, 66
1, 326846, Note_on_c, 0, 83, 58
1, 326846, Note_off_c, 0, 60, 50
1, 326849, Note_on_c, 0, 59, 67
1, 326851, Control_c, 0, 67, 27
1, 326868, Note_off_c, 0, 83, 61
1, 326870, Note_on_c, 0, 84, 64
1, 326874, Note_on_c, 0, 60, 61
1, 326909, Note_off_c, 0, 59, 62
1, 326914, Note_off_c, 0, 84, 63
1, 326916, Note_on_c, 0, 87, 73
1, 326926, Control_c, 0, 67, 27
1, 326930, Note_off_c, 0, 60, 63
1, 326938, Note_on_c, 0, 63, 66
1, 326941, Control_c, 0, 67, 28
1, 326961, Note_off_c, 0, 63, 68
1, 326967, Note_off_c, 0, 87, 60
1, 326973, Note_on_c, 0, 86, 71
1, 326985, Note_on_c, 0, 62, 72
1, 327021, Note_on_c, 0, 84, 77
1, 327044, Note_on_c, 0, 60, 73
1, 327044, Control_c, 0, 67, 27
1, 327047, Note_off_c, 0, 62, 0
1, 327050, Note_off_c, 0, 86, 63
1, 327060, Control_c, 0, 67, 27
1, 327066, Note_on_c, 0, 82, 74
1, 327072, Note_off_c, 0, 84, 65
1, 327085, Poly_aftertouch_c, 0, 62, 0
1, 327089, Note_on_c, 0, 58, 75
1, 327109, Note_on_c, 0, 80, 70
1, 327110, Note_off_c, 0, 82, 65
1, 327114, Note_off_c, 0, 60, 60
1, 327134, Control_c, 0, 67, 27
1, 327135, Note_off_c, 0, 80, 68
1, 327138, Note_on_c, 0, 56, 74
1, 327149, Control_c, 0, 67, 28
1, 327153, Note_off_c, 0, 58, 66
1, 327159, Note_off_c, 0, 56, 67
1, 327195, Note_on_c, 0, 79, 72
1, 327204, Note_on_c, 0, 55, 78
1, 327208, Control_c, 0, 67, 27
1, 327237, Control_c, 0, 67, 26
1, 327249, Note_on_c, 0, 78, 79
1, 327251, Note_off_c, 0, 79, 62
1, 327263, Note_off_c, 0, 55, 61
1, 327265, Note_on_c, 0, 54, 76
1, 327267, Control_c, 0, 67, 26
1, 327298, Note_on_c, 0, 75, 66
1, 327304, Note_off_c, 0, 78, 65
1, 327324, Note_on_c, 0, 51, 65
1, 327351, Note_off_c, 0, 54, 61
1, 327355, Note_off_c, 0, 75, 63
1, 327356, Control_c, 0, 67, 25
1, 327358, Note_on_c, 0, 74, 69
1, 327364, Note_on_c, 0, 50, 74
1, 327384, Note_off_c, 0, 74, 67
1, 327401, Control_c, 0, 67, 26
1, 327416, Note_on_c, 0, 72, 80
1, 327430, Control_c, 0, 64, 114
1, 327445, Control_c, 0, 64, 99
1, 327448, Note_off_c, 0, 50, 63
1, 327460, Control_c, 0, 64, 85
1, 327463, Note_on_c, 0, 54, 65
1, 327467, Note_off_c, 0, 51, 64
1, 327470, Note_off_c, 0, 72, 66
1, 327475, Control_c, 0, 64, 72
1, 327477, Note_on_c, 0, 71, 64
1, 327480, Note_off_c, 0, 54, 65
1, 327489, Control_c, 0, 64, 56
1, 327499, Note_on_c, 0, 59, 60
1, 327504, Control_c, 0, 64, 0
1, 327505, Note_off_c, 0, 71, 65
1, 327520, Note_on_c, 0, 69, 60
1, 327520, Note_off_c, 0, 59, 65
1, 327541, Control_c, 0, 67, 26
1, 327582, Note_on_c, 0, 68, 79
1, 327584, Note_off_c, 0, 69, 65
1, 327586, Note_on_c, 0, 60, 65
1, 327603, Note_off_c, 0, 60, 64
1, 327613, Note_on_c, 0, 61, 62
1, 327615, Control_c, 0, 67, 27
1, 327630, Control_c, 0, 67, 28
1, 327633, Note_on_c, 0, 69, 61
1, 327643, Note_off_c, 0, 68, 60
1, 327645, Control_c, 0, 67, 28
1, 327654, Note_on_c, 0, 63, 74
1, 327660, Control_c, 0, 67, 29
1, 327664, Note_off_c, 0, 61, 63
1, 327672, Note_off_c, 0, 63, 67
1, 327675, Note_on_c, 0, 71, 80
1, 327675, Control_c, 0, 67, 30
1, 327690, Control_c, 0, 67, 30
1, 327695, Note_off_c, 0, 69, 67
1, 327722, Note_off_c, 0, 71, 61
1, 327735, Control_c, 0, 67, 29
1, 327749, Control_c, 0, 67, 29
1, 327764, Control_c, 0, 67, 28
1, 327775, Note_on_c, 0, 72, 101
1, 327779, Note_on_c, 0, 45, 88
1, 327794, Note_on_c, 0, 33, 59
1, 327794, Control_c, 0, 64, 72
1, 327794, Control_c, 0, 67, 27
1, 327805, Note_off_c, 0, 45, 70
1, 327809, Control_c, 0, 64, 89
1, 327809, Control_c, 0, 67, 27
1, 327814, Note_on_c, 0, 35, 43
1, 327824, Note_off_c, 0, 33, 60
1, 327824, Control_c, 0, 64, 116
1, 327824, Control_c, 0, 67, 26
1, 327838, Control_c, 0, 64, 127
1, 327849, Note_off_c, 0, 35, 51
1, 327853, Control_c, 0, 67, 26
1, 327868, Control_c, 0, 67, 25
1, 327883, Control_c, 0, 67, 25
1, 327898, Control_c, 0, 67, 24
1, 327911, Note_on_c, 0, 60, 72
1, 327921, Note_on_c, 0, 69, 59
1, 327922, Note_on_c, 0, 64, 58
1, 327939, Note_off_c, 0, 60, 67
1, 327942, Control_c, 0, 64, 122
1, 327951, Note_off_c, 0, 64, 62
1, 327957, Control_c, 0, 64, 109
1, 327957, Control_c, 0, 67, 25
1, 327972, Control_c, 0, 64, 93
1, 327972, Control_c, 0, 67, 25
1, 327986, Control_c, 0, 64, 75
1, 327987, Note_off_c, 0, 69, 63
1, 328001, Control_c, 0, 64, 25
1, 328001, Control_c, 0, 67, 26
1, 328016, Control_c, 0, 64, 0
1, 328031, Note_on_c, 0, 59, 81
1, 328052, Note_off_c, 0, 59, 69
1, 328061, Control_c, 0, 67, 26
1, 328144, Note_on_c, 0, 69, 58
1, 328146, Note_on_c, 0, 62, 60
1, 328146, Note_on_c, 0, 65, 62
1, 328168, Note_off_c, 0, 62, 63
1, 328182, Note_off_c, 0, 65, 65
1, 328194, Note_off_c, 0, 69, 59
1, 328224, Control_c, 0, 67, 27
1, 328259, Note_on_c, 0, 60, 75
1, 328268, Control_c, 0, 67, 26
1, 328292, Note_off_c, 0, 60, 69
1, 328327, Note_off_c, 0, 72, 57
1, 328354, Note_on_c, 0, 64, 74
1, 328356, Note_on_c, 0, 69, 63
1, 328361, Note_on_c, 0, 65, 66
1, 328374, Note_off_c, 0, 69, 67
1, 328379, Note_off_c, 0, 64, 69
1, 328381, Note_off_c, 0, 65, 68
1, 328424, Control_c, 0, 67, 27
1, 328438, Control_c, 0, 67, 27
1, 328453, Control_c, 0, 67, 28
1, 328484, Control_c, 0, 67, 27
1, 328492, Note_on_c, 0, 50, 101
1, 328497, Note_on_c, 0, 57, 90
1, 328499, Control_c, 0, 67, 28
1, 328500, Note_on_c, 0, 38, 82
1, 328502, Note_on_c, 0, 54, 86
1, 328514, Control_c, 0, 64, 78
1, 328514, Control_c, 0, 67, 26
1, 328529, Control_c, 0, 64, 107
1, 328529, Control_c, 0, 67, 25
1, 328530, Note_off_c, 0, 38, 62
1, 328533, Note_off_c, 0, 54, 62
1, 328540, Note_off_c, 0, 57, 63
1, 328543, Control_c, 0, 64, 127
1, 328543, Control_c, 0, 67, 25
1, 328549, Note_off_c, 0, 50, 64
1, 328558, Control_c, 0, 67, 24
1, 328573, Control_c, 0, 67, 24
1, 328588, Control_c, 0, 67, 22
1, 328603, Control_c, 0, 67, 21
1, 328617, Control_c, 0, 67, 19
1, 328632, Control_c, 0, 67, 18
1, 328647, Control_c, 0, 67, 17
1, 328781, Control_c, 0, 67, 17
1, 328810, Control_c, 0, 67, 17
1, 328815, Note_on_c, 0, 62, 67
1, 328820, Note_on_c, 0, 74, 61
1, 328840, Control_c, 0, 67, 18
1, 328854, Note_off_c, 0, 62, 62
1, 328858, Note_on_c, 0, 64, 65
1, 328869, Control_c, 0, 67, 18
1, 328870, Note_on_c, 0, 76, 69
1, 328876, Note_off_c, 0, 74, 65
1, 328884, Control_c, 0, 64, 115
1, 328899, Control_c, 0, 64, 99
1, 328899, Control_c, 0, 67, 19
1, 328906, Note_on_c, 0, 78, 67
1, 328907, Note_off_c, 0, 76, 63
1, 328914, Note_off_c, 0, 64, 63
1, 328914, Control_c, 0, 64, 85
1, 328914, Control_c, 0, 67, 20
1, 328915, Note_on_c, 0, 66, 74
1, 328928, Control_c, 0, 64, 71
1, 328939, Note_off_c, 0, 78, 60
1, 328943, Note_off_c, 0, 66, 69
1, 328943, Control_c, 0, 64, 31
1, 328943, Control_c, 0, 67, 20
1, 328958, Control_c, 0, 64, 0
1, 328962, Note_on_c, 0, 71, 67
1, 328977, Note_on_c, 0, 59, 68
1, 329017, Control_c, 0, 67, 20
1, 329020, Note_on_c, 0, 74, 68
1, 329020, Note_off_c, 0, 71, 61
1, 329040, Control_c, 0, 67, 19
1, 329045, Note_on_c, 0, 62, 66
1, 329055, Control_c, 0, 67, 19
1, 329068, Note_on_c, 0, 64, 73
1, 329073, Note_on_c, 0, 76, 72
1, 329075, Note_off_c, 0, 59, 60
1, 329083, Note_off_c, 0, 62, 59
1, 329084, Control_c, 0, 67, 19
1, 329099, Control_c, 0, 67, 20
1, 329104, Note_off_c, 0, 74, 65
1, 329109, Note_on_c, 0, 77, 82
1, 329115, Note_on_c, 0, 65, 75
1, 329123, Note_off_c, 0, 76, 66
1, 329127, Note_off_c, 0, 64, 64
1, 329129, Control_c, 0, 67, 20
1, 329136, Note_off_c, 0, 77, 63
1, 329142, Note_off_c, 0, 65, 67
1, 329143, Control_c, 0, 67, 21
1, 329249, Note_on_c, 0, 71, 67
1, 329261, Note_on_c, 0, 59, 61
1, 329288, Note_off_c, 0, 71, 59
1, 329300, Note_on_c, 0, 73, 69
1, 329308, Note_on_c, 0, 61, 64
1, 329325, Note_off_c, 0, 59, 62
1, 329332, Note_on_c, 0, 63, 74
1, 329337, Note_on_c, 0, 75, 68
1, 329341, Note_off_c, 0, 61, 63
1, 329341, Note_off_c, 0, 73, 62
1, 329351, Control_c, 0, 67, 21
1, 329359, Note_off_c, 0, 63, 67
1, 329363, Note_off_c, 0, 75, 69
1, 329365, Control_c, 0, 67, 22
1, 329380, Control_c, 0, 67, 22
1, 329455, Control_c, 0, 67, 22
1, 329466, Note_on_c, 0, 67, 71
1, 329476, Note_on_c, 0, 55, 61
1, 329484, Control_c, 0, 67, 21
1, 329499, Control_c, 0, 67, 21
1, 329503, Note_off_c, 0, 67, 62
1, 329508, Note_on_c, 0, 71, 65
1, 329509, Note_on_c, 0, 59, 65
1, 329521, Note_off_c, 0, 55, 63
1, 329550, Note_off_c, 0, 59, 63
1, 329553, Note_on_c, 0, 74, 69
1, 329553, Note_off_c, 0, 71, 63
1, 329558, Note_on_c, 0, 62, 69
1, 329579, Note_off_c, 0, 74, 67
1, 329588, Control_c, 0, 67, 21
1, 329598, Note_off_c, 0, 62, 63
1, 329602, Control_c, 0, 67, 22
1, 329632, Control_c, 0, 67, 22
1, 329678, Note_on_c, 0, 66, 69
1, 329691, Note_on_c, 0, 54, 60
1, 329714, Note_off_c, 0, 66, 63
1, 329720, Note_on_c, 0, 68, 68
1, 329723, Note_on_c, 0, 56, 63
1, 329743, Note_off_c, 0, 54, 62
1, 329762, Note_on_c, 0, 58, 52
1, 329763, Note_off_c, 0, 68, 66
1, 329768, Note_on_c, 0, 70, 70
1, 329802, Note_off_c, 0, 56, 59
1, 329803, Control_c, 0, 67, 22
1, 329820, Note_off_c, 0, 70, 61
1, 329832, Note_on_c, 0, 67, 66
1, 329832, Control_c, 0, 67, 21
1, 329840, Note_on_c, 0, 55, 62
1, 329847, Control_c, 0, 67, 21
1, 329851, Note_off_c, 0, 58, 48
1, 329881, Note_on_c, 0, 68, 71
1, 329890, Note_off_c, 0, 67, 55
1, 329891, Control_c, 0, 67, 20
1, 329902, Note_on_c, 0, 57, 64
1, 329905, Note_off_c, 0, 55, 65
1, 329919, Note_on_c, 0, 69, 76
1, 329921, Control_c, 0, 67, 20
1, 329943, Note_off_c, 0, 68, 63
1, 329969, Note_off_c, 0, 57, 63
1, 329988, Note_on_c, 0, 70, 83
1, 329990, Note_on_c, 0, 58, 89
1, 329995, Control_c, 0, 67, 21
1, 330009, Control_c, 0, 67, 22
1, 330012, Note_off_c, 0, 69, 64
1, 330039, Control_c, 0, 67, 22
1, 330056, Control_c, 0, 67, 23
1, 330071, Control_c, 0, 67, 23
1, 330115, Control_c, 0, 67, 23
1, 330157, Note_off_c, 0, 58, 63
1, 330158, Note_off_c, 0, 70, 59
1, 330188, Note_on_c, 0, 69, 70
1, 330189, Control_c, 0, 67, 22
1, 330200, Note_on_c, 0, 57, 67
1, 330219, Control_c, 0, 67, 22
1, 330230, Note_on_c, 0, 58, 72
1, 330235, Note_on_c, 0, 70, 92
1, 330248, Control_c, 0, 67, 22
1, 330253, Note_off_c, 0, 69, 65
1, 330263, Control_c, 0, 67, 23
1, 330268, Note_off_c, 0, 57, 61
1, 330278, Control_c, 0, 67, 23
1, 330322, Control_c, 0, 67, 24
1, 330337, Control_c, 0, 67, 25
1, 330352, Control_c, 0, 67, 27
1, 330367, Control_c, 0, 67, 31
1, 330382, Control_c, 0, 67, 41
1, 330397, Control_c, 0, 67, 53
1, 330411, Control_c, 0, 67, 66
1, 330420, Note_off_c, 0, 70, 60
1, 330426, Control_c, 0, 67, 77
1, 330441, Control_c, 0, 67, 85
1, 330456, Control_c, 0, 67, 91
1, 330459, Note_off_c, 0, 58, 56
1, 330470, Note_on_c, 0, 71, 94
1, 330471, Control_c, 0, 67, 99
1, 330473, Note_on_c, 0, 59, 84
1, 330486, Control_c, 0, 67, 111
1, 330500, Control_c, 0, 67, 125
1, 330501, Note_off_c, 0, 59, 66
1, 330515, Control_c, 0, 67, 127
1, 330552, Note_off_c, 0, 71, 58
1, 330704, Note_on_c, 0, 72, 92
1, 330714, Note_on_c, 0, 33, 70
1, 330714, Note_on_c, 0, 45, 81
1, 330724, Note_off_c, 0, 72, 70
1, 330730, Control_c, 0, 64, 52
1, 330742, Note_off_c, 0, 33, 66
1, 330742, Note_off_c, 0, 45, 69
1, 330745, Control_c, 0, 64, 74
1, 330760, Control_c, 0, 64, 87
1, 330774, Control_c, 0, 64, 100
1, 330789, Control_c, 0, 64, 104
1, 330833, Control_c, 0, 64, 103
1, 330848, Control_c, 0, 64, 102
1, 330849, Note_on_c, 0, 48, 70
1, 330850, Note_on_c, 0, 45, 66
1, 330856, Note_on_c, 0, 57, 59
1, 330864, Control_c, 0, 64, 97
1, 330876, Note_off_c, 0, 45, 67
1, 330877, Note_on_c, 0, 52, 31
1, 330879, Note_off_c, 0, 48, 67
1, 330879, Control_c, 0, 64, 86
1, 330894, Control_c, 0, 64, 71
1, 330896, Note_off_c, 0, 57, 56
1, 330909, Control_c, 0, 64, 0
1, 330911, Note_off_c, 0, 52, 48
1, 330972, Note_on_c, 0, 45, 62
1, 330978, Note_on_c, 0, 35, 66
1, 330999, Note_off_c, 0, 45, 65
1, 331006, Note_off_c, 0, 35, 64
1, 331074, Note_on_c, 0, 57, 56
1, 331077, Note_on_c, 0, 50, 59
1, 331079, Note_on_c, 0, 53, 59
1, 331081, Note_on_c, 0, 45, 66
1, 331106, Note_off_c, 0, 57, 56
1, 331108, Note_off_c, 0, 50, 67
1, 331109, Note_off_c, 0, 45, 66
1, 331112, Note_off_c, 0, 53, 66
1, 331194, Note_on_c, 0, 45, 73
1, 331206, Note_on_c, 0, 33, 60
1, 331223, Note_off_c, 0, 45, 66
1, 331232, Note_off_c, 0, 33, 61
1, 331307, Note_on_c, 0, 45, 70
1, 331307, Note_on_c, 0, 57, 56
1, 331314, Note_on_c, 0, 53, 50
1, 331315, Note_on_c, 0, 52, 59
1, 331332, Note_off_c, 0, 45, 67
1, 331340, Note_off_c, 0, 53, 64
1, 331343, Note_off_c, 0, 52, 66
1, 331347, Note_off_c, 0, 57, 57
1, 331419, Note_on_c, 0, 45, 92
1, 331423, Note_on_c, 0, 38, 93
1, 331464, Control_c, 0, 64, 64
1, 331479, Control_c, 0, 64, 78
1, 331494, Note_off_c, 0, 45, 45
1, 331494, Control_c, 0, 64, 91
1, 331501, Note_off_c, 0, 38, 62
1, 331504, Note_on_c, 0, 42, 79
1, 331508, Control_c, 0, 64, 101
1, 331521, Note_on_c, 0, 50, 62
1, 331521, Note_on_c, 0, 54, 64
1, 331523, Note_on_c, 0, 57, 64
1, 331523, Control_c, 0, 64, 104
1, 331538, Control_c, 0, 64, 104
1, 331539, Note_off_c, 0, 42, 66
1, 331544, Note_off_c, 0, 50, 62
1, 331550, Note_off_c, 0, 54, 64
1, 331553, Note_off_c, 0, 57, 64
1, 331627, Control_c, 0, 64, 104
1, 331642, Control_c, 0, 64, 99
1, 331657, Control_c, 0, 64, 89
1, 331670, Note_on_c, 0, 57, 78
1, 331672, Control_c, 0, 64, 75
1, 331675, Note_on_c, 0, 45, 72
1, 331687, Control_c, 0, 64, 48
1, 331693, Note_off_c, 0, 57, 68
1, 331702, Control_c, 0, 64, 0
1, 331704, Note_off_c, 0, 45, 67
1, 331776, Note_on_c, 0, 69, 71
1, 331780, Note_on_c, 0, 64, 62
1, 331787, Note_on_c, 0, 60, 54
1, 331798, Note_off_c, 0, 64, 66
1, 331801, Note_off_c, 0, 69, 70
1, 331808, Note_off_c, 0, 60, 58
1, 331814, Note_on_c, 0, 57, 21
1, 331815, Note_off_c, 0, 57, 127
1, 331815, Note_on_c, 0, 55, 21
1, 331861, Note_off_c, 0, 55, 29
1, 331909, Note_on_c, 0, 47, 59
1, 331914, Note_on_c, 0, 57, 49
1, 331938, Note_off_c, 0, 47, 65
1, 331939, Note_off_c, 0, 57, 56
1, 332002, Note_on_c, 0, 57, 69
1, 332006, Note_on_c, 0, 62, 66
1, 332008, Note_on_c, 0, 69, 60
1, 332012, Note_on_c, 0, 65, 53
1, 332037, Note_off_c, 0, 57, 65
1, 332039, Note_off_c, 0, 69, 62
1, 332042, Note_off_c, 0, 65, 60
1, 332044, Note_off_c, 0, 62, 64
1, 332122, Note_on_c, 0, 57, 65
1, 332135, Note_on_c, 0, 48, 57
1, 332151, Note_off_c, 0, 57, 64
1, 332158, Note_off_c, 0, 48, 62
1, 332227, Note_on_c, 0, 57, 66
1, 332232, Note_on_c, 0, 69, 63
1, 332236, Note_on_c, 0, 64, 53
1, 332241, Note_on_c, 0, 65, 40
1, 332252, Note_off_c, 0, 57, 65
1, 332258, Note_off_c, 0, 64, 60
1, 332269, Note_off_c, 0, 65, 51
1, 332269, Note_off_c, 0, 69, 63
1, 332341, Note_on_c, 0, 57, 89
1, 332346, Note_on_c, 0, 50, 92
1, 332374, Control_c, 0, 64, 57
1, 332388, Note_off_c, 0, 57, 60
1, 332389, Control_c, 0, 64, 77
1, 332403, Control_c, 0, 64, 96
1, 332418, Control_c, 0, 64, 127
1, 332435, Note_off_c, 0, 50, 55
1, 332438, Note_on_c, 0, 69, 66
1, 332441, Note_on_c, 0, 54, 76
1, 332449, Note_on_c, 0, 62, 60
1, 332451, Note_on_c, 0, 66, 65
1, 332468, Note_off_c, 0, 69, 68
1, 332470, Note_off_c, 0, 54, 65
1, 332474, Note_off_c, 0, 62, 63
1, 332480, Note_off_c, 0, 66, 67
1, 332567, Control_c, 0, 64, 115
1, 332582, Control_c, 0, 64, 97
1, 332597, Note_on_c, 0, 45, 76
1, 332597, Control_c, 0, 64, 77
1, 332604, Note_on_c, 0, 33, 64
1, 332612, Control_c, 0, 64, 32
1, 332620, Note_off_c, 0, 45, 66
1, 332626, Control_c, 0, 64, 0
1, 332626, Control_c, 0, 67, 122
1, 332629, Note_off_c, 0, 33, 59
1, 332641, Control_c, 0, 67, 99
1, 332656, Control_c, 0, 67, 76
1, 332671, Control_c, 0, 67, 55
1, 332686, Control_c, 0, 67, 37
1, 332692, Note_on_c, 0, 57, 66
1, 332701, Control_c, 0, 67, 22
1, 332710, Note_on_c, 0, 48, 52
1, 332711, Note_on_c, 0, 52, 46
1, 332716, Control_c, 0, 67, 15
1, 332717, Note_on_c, 0, 45, 51
1, 332725, Note_off_c, 0, 57, 61
1, 332731, Control_c, 0, 67, 12
1, 332738, Note_off_c, 0, 48, 57
1, 332738, Note_off_c, 0, 52, 52
1, 332743, Note_off_c, 0, 45, 58
1, 332745, Control_c, 0, 67, 12
1, 332760, Control_c, 0, 67, 11
1, 332782, Control_c, 0, 67, 11
1, 332797, Control_c, 0, 67, 10
1, 332812, Control_c, 0, 67, 9
1, 332826, Note_on_c, 0, 45, 68
1, 332838, Note_on_c, 0, 35, 62
1, 332841, Control_c, 0, 67, 9
1, 332855, Note_off_c, 0, 45, 65
1, 332868, Note_off_c, 0, 35, 64
1, 332871, Control_c, 0, 67, 8
1, 332900, Control_c, 0, 67, 8
1, 332915, Control_c, 0, 67, 0
1, 332937, Note_on_c, 0, 57, 50
1, 332940, Note_on_c, 0, 45, 63
1, 332945, Note_on_c, 0, 50, 50
1, 332945, Note_on_c, 0, 53, 50
1, 332969, Note_off_c, 0, 45, 65
1, 332970, Note_off_c, 0, 50, 60
1, 332972, Note_off_c, 0, 57, 61
1, 332975, Note_off_c, 0, 53, 64
1, 333046, Note_on_c, 0, 45, 80
1, 333057, Note_on_c, 0, 33, 65
1, 333078, Note_off_c, 0, 45, 65
1, 333083, Note_off_c, 0, 33, 66
1, 333131, Note_on_c, 0, 57, 61
1, 333137, Note_on_c, 0, 52, 56
1, 333148, Note_on_c, 0, 53, 21
1, 333150, Note_off_c, 0, 53, 42
1, 333157, Note_on_c, 0, 45, 67
1, 333160, Note_off_c, 0, 52, 61
1, 333161, Note_off_c, 0, 57, 64
1, 333184, Note_off_c, 0, 45, 67
1, 333285, Note_on_c, 0, 45, 65
1, 333288, Note_on_c, 0, 72, 91
1, 333288, Control_c, 0, 64, 64
1, 333296, Note_on_c, 0, 38, 58
1, 333297, Note_on_c, 0, 69, 82
1, 333303, Control_c, 0, 64, 77
1, 333318, Control_c, 0, 64, 90
1, 333324, Note_off_c, 0, 69, 64
1, 333332, Control_c, 0, 64, 103
1, 333345, Note_off_c, 0, 38, 59
1, 333347, Control_c, 0, 64, 109
1, 333355, Note_off_c, 0, 45, 63
1, 333362, Control_c, 0, 64, 115
1, 333368, Note_off_c, 0, 72, 60
1, 333374, Note_on_c, 0, 74, 71
1, 333377, Control_c, 0, 64, 121
1, 333388, Note_on_c, 0, 66, 69
1, 333391, Control_c, 0, 64, 127
1, 333415, Note_off_c, 0, 66, 68
1, 333422, Note_off_c, 0, 74, 63
1, 333495, Control_c, 0, 64, 108
1, 333510, Control_c, 0, 64, 90
1, 333511, Note_on_c, 0, 75, 78
1, 333514, Note_on_c, 0, 48, 65
1, 333516, Note_on_c, 0, 45, 60
1, 333525, Note_on_c, 0, 72, 72
1, 333532, Control_c, 0, 64, 73
1, 333547, Control_c, 0, 64, 0
1, 333550, Note_off_c, 0, 72, 69
1, 333553, Note_off_c, 0, 75, 59
1, 333556, Note_off_c, 0, 48, 65
1, 333563, Note_off_c, 0, 45, 63
1, 333610, Note_on_c, 0, 76, 76
1, 333613, Note_on_c, 0, 57, 70
1, 333616, Note_on_c, 0, 69, 67
1, 333636, Note_off_c, 0, 76, 65
1, 333641, Note_off_c, 0, 69, 67
1, 333643, Note_off_c, 0, 57, 65
1, 333734, Note_on_c, 0, 77, 96
1, 333747, Note_on_c, 0, 72, 83
1, 333750, Note_on_c, 0, 47, 63
1, 333754, Note_on_c, 0, 50, 57
1, 333773, Note_off_c, 0, 72, 60
1, 333794, Note_off_c, 0, 50, 63
1, 333812, Note_off_c, 0, 47, 61
1, 333851, Note_on_c, 0, 69, 65
1, 333851, Note_on_c, 0, 57, 60
1, 333884, Note_off_c, 0, 57, 61
1, 333888, Note_off_c, 0, 69, 59
1, 333957, Note_off_c, 0, 77, 38
1, 333974, Note_on_c, 0, 76, 77
1, 333981, Note_on_c, 0, 52, 65
1, 333989, Note_on_c, 0, 48, 56
1, 334021, Note_off_c, 0, 52, 65
1, 334030, Note_off_c, 0, 76, 63
1, 334031, Note_off_c, 0, 48, 62
1, 334066, Note_on_c, 0, 72, 70
1, 334067, Note_on_c, 0, 57, 58
1, 334089, Note_off_c, 0, 72, 70
1, 334100, Note_off_c, 0, 57, 63
1, 334174, Note_on_c, 0, 78, 88
1, 334182, Note_on_c, 0, 72, 76
1, 334186, Note_on_c, 0, 50, 62
1, 334187, Note_on_c, 0, 54, 64
1, 334218, Note_off_c, 0, 72, 61
1, 334254, Note_off_c, 0, 50, 62
1, 334274, Note_on_c, 0, 69, 70
1, 334279, Note_off_c, 0, 54, 57
1, 334285, Note_on_c, 0, 57, 62
1, 334293, Note_off_c, 0, 78, 62
1, 334302, Note_off_c, 0, 69, 69
1, 334319, Note_off_c, 0, 57, 62
1, 334394, Note_on_c, 0, 81, 85
1, 334406, Note_on_c, 0, 76, 80
1, 334410, Note_on_c, 0, 48, 65
1, 334412, Note_on_c, 0, 45, 60
1, 334426, Note_off_c, 0, 76, 71
1, 334430, Note_off_c, 0, 81, 62
1, 334454, Note_off_c, 0, 48, 64
1, 334456, Note_off_c, 0, 45, 63
1, 334486, Note_on_c, 0, 84, 72
1, 334501, Note_on_c, 0, 72, 66
1, 334502, Note_off_c, 0, 84, 69
1, 334503, Note_on_c, 0, 57, 64
1, 334518, Note_off_c, 0, 72, 67
1, 334531, Note_off_c, 0, 57, 64
1, 334606, Control_c, 0, 67, 8
1, 334608, Note_on_c, 0, 72, 78
1, 334620, Note_on_c, 0, 65, 85
1, 334624, Note_on_c, 0, 47, 63
1, 334624, Note_on_c, 0, 50, 64
1, 334664, Note_off_c, 0, 65, 62
1, 334673, Note_off_c, 0, 50, 64
1, 334692, Note_off_c, 0, 47, 61
1, 334715, Note_on_c, 0, 62, 74
1, 334722, Note_on_c, 0, 57, 62
1, 334755, Note_off_c, 0, 62, 62
1, 334758, Note_off_c, 0, 57, 59
1, 334778, Note_off_c, 0, 72, 64
1, 334837, Note_on_c, 0, 69, 80
1, 334846, Note_on_c, 0, 52, 64
1, 334853, Note_on_c, 0, 48, 58
1, 334873, Note_off_c, 0, 69, 67
1, 334886, Note_off_c, 0, 52, 65
1, 334907, Note_off_c, 0, 48, 63
1, 334919, Control_c, 0, 67, 0
1, 334933, Note_on_c, 0, 74, 80
1, 334944, Note_on_c, 0, 57, 64
1, 334944, Note_on_c, 0, 65, 70
1, 334973, Note_off_c, 0, 65, 66
1, 334987, Note_off_c, 0, 57, 58
1, 334996, Note_off_c, 0, 74, 61
1, 335048, Note_on_c, 0, 72, 68
1, 335053, Note_on_c, 0, 54, 67
1, 335058, Note_on_c, 0, 69, 71
1, 335062, Note_on_c, 0, 50, 54
1, 335085, Note_off_c, 0, 69, 66
1, 335103, Note_off_c, 0, 50, 64
1, 335106, Note_off_c, 0, 54, 54
1, 335106, Note_off_c, 0, 72, 60
1, 335133, Control_c, 0, 67, 8
1, 335140, Note_on_c, 0, 57, 55
1, 335140, Note_on_c, 0, 71, 75
1, 335148, Note_on_c, 0, 66, 72
1, 335148, Control_c, 0, 67, 8
1, 335163, Note_off_c, 0, 57, 63
1, 335176, Note_off_c, 0, 66, 69
1, 335178, Control_c, 0, 67, 9
1, 335182, Note_off_c, 0, 71, 60
1, 335193, Control_c, 0, 67, 9
1, 335237, Control_c, 0, 67, 8
1, 335252, Control_c, 0, 67, 8
1, 335256, Note_on_c, 0, 72, 92
1, 335267, Control_c, 0, 64, 64
1, 335267, Control_c, 0, 67, 0
1, 335273, Note_on_c, 0, 33, 67
1, 335273, Note_on_c, 0, 45, 78
1, 335276, Note_off_c, 0, 72, 69
1, 335282, Control_c, 0, 64, 86
1, 335296, Control_c, 0, 64, 114
1, 335297, Note_off_c, 0, 33, 62
1, 335300, Note_off_c, 0, 45, 64
1, 335311, Control_c, 0, 64, 127
1, 335389, Note_on_c, 0, 45, 65
1, 335416, Note_off_c, 0, 45, 67
1, 335427, Note_on_c, 0, 50, 24
1, 335431, Note_on_c, 0, 57, 29
1, 335444, Control_c, 0, 64, 117
1, 335459, Control_c, 0, 64, 97
1, 335466, Poly_aftertouch_c, 0, 59, 127
1, 335469, Note_off_c, 0, 57, 45
1, 335469, Note_off_c, 0, 50, 40
1, 335474, Control_c, 0, 64, 76
1, 335476, Poly_aftertouch_c, 0, 48, 127
1, 335489, Control_c, 0, 64, 38
1, 335496, Poly_aftertouch_c, 0, 59, 0
1, 335502, Poly_aftertouch_c, 0, 48, 0
1, 335503, Control_c, 0, 64, 0
1, 335509, Note_on_c, 0, 45, 62
1, 335519, Note_on_c, 0, 35, 57
1, 335536, Note_off_c, 0, 45, 65
1, 335546, Note_off_c, 0, 35, 62
1, 335616, Note_on_c, 0, 45, 62
1, 335617, Note_on_c, 0, 54, 46
1, 335622, Note_on_c, 0, 57, 40
1, 335646, Note_off_c, 0, 45, 65
1, 335651, Note_off_c, 0, 54, 36
1, 335655, Note_off_c, 0, 57, 51
1, 335712, Control_c, 0, 67, 8
1, 335714, Poly_aftertouch_c, 0, 50, 0
1, 335732, Note_on_c, 0, 45, 66
1, 335733, Note_on_c, 0, 33, 67
1, 335760, Note_off_c, 0, 45, 66
1, 335763, Note_off_c, 0, 33, 66
1, 335779, Control_c, 0, 67, 0
1, 335838, Note_on_c, 0, 45, 72
1, 335844, Note_on_c, 0, 53, 48
1, 335846, Note_on_c, 0, 57, 41
1, 335848, Note_on_c, 0, 52, 53
1, 335863, Note_off_c, 0, 45, 66
1, 335872, Note_off_c, 0, 53, 61
1, 335875, Note_off_c, 0, 52, 65
1, 335878, Note_off_c, 0, 57, 49
1, 335912, Control_c, 0, 67, 8
1, 335926, Control_c, 0, 67, 9
1, 335956, Note_on_c, 0, 45, 79
1, 335959, Note_on_c, 0, 38, 85
1, 335971, Control_c, 0, 67, 9
1, 335986, Control_c, 0, 67, 8
1, 336001, Control_c, 0, 67, 0
1, 336016, Control_c, 0, 64, 68
1, 336022, Note_off_c, 0, 45, 55
1, 336030, Control_c, 0, 64, 83
1, 336040, Note_off_c, 0, 38, 57
1, 336044, Control_c, 0, 64, 101
1, 336058, Note_on_c, 0, 57, 61
1, 336059, Note_on_c, 0, 42, 73
1, 336059, Control_c, 0, 64, 109
1, 336068, Note_on_c, 0, 50, 60
1, 336068, Note_on_c, 0, 54, 59
1, 336074, Control_c, 0, 64, 109
1, 336087, Note_off_c, 0, 42, 65
1, 336090, Note_off_c, 0, 50, 61
1, 336095, Note_off_c, 0, 57, 62
1, 336097, Note_off_c, 0, 54, 64
1, 336148, Control_c, 0, 64, 109
1, 336163, Control_c, 0, 64, 107
1, 336177, Control_c, 0, 64, 99
1, 336192, Control_c, 0, 64, 86
1, 336201, Note_on_c, 0, 57, 80
1, 336205, Note_on_c, 0, 45, 67
1, 336207, Control_c, 0, 64, 70
1, 336222, Control_c, 0, 64, 0
1, 336223, Note_off_c, 0, 57, 69
1, 336227, Note_off_c, 0, 45, 63
1, 336309, Note_on_c, 0, 69, 78
1, 336314, Note_on_c, 0, 64, 68
1, 336317, Note_on_c, 0, 57, 65
1, 336322, Note_on_c, 0, 60, 58
1, 336333, Note_off_c, 0, 69, 68
1, 336334, Note_off_c, 0, 64, 67
1, 336336, Note_off_c, 0, 57, 62
1, 336340, Note_off_c, 0, 60, 61
1, 336427, Note_on_c, 0, 57, 62
1, 336433, Note_on_c, 0, 47, 69
1, 336458, Note_off_c, 0, 57, 62
1, 336462, Note_off_c, 0, 47, 66
1, 336546, Note_on_c, 0, 69, 66
1, 336547, Note_on_c, 0, 57, 62
1, 336550, Note_on_c, 0, 65, 59
1, 336552, Note_on_c, 0, 62, 60
1, 336573, Note_off_c, 0, 65, 63
1, 336575, Note_off_c, 0, 62, 61
1, 336576, Note_off_c, 0, 57, 65
1, 336576, Note_off_c, 0, 69, 68
1, 336662, Note_on_c, 0, 57, 63
1, 336669, Note_on_c, 0, 48, 62
1, 336689, Control_c, 0, 67, 8
1, 336695, Note_off_c, 0, 57, 63
1, 336698, Note_off_c, 0, 48, 67
1, 336759, Note_on_c, 0, 69, 66
1, 336766, Note_on_c, 0, 57, 71
1, 336767, Note_on_c, 0, 65, 55
1, 336773, Note_on_c, 0, 64, 51
1, 336788, Note_off_c, 0, 69, 68
1, 336790, Note_off_c, 0, 65, 62
1, 336791, Note_off_c, 0, 57, 65
1, 336794, Control_c, 0, 67, 8
1, 336797, Note_off_c, 0, 64, 57
1, 336808, Control_c, 0, 67, 9
1, 336823, Control_c, 0, 67, 9
1, 336853, Control_c, 0, 67, 9
1, 336868, Control_c, 0, 67, 8
1, 336882, Note_on_c, 0, 57, 65
1, 336884, Note_on_c, 0, 72, 93
1, 336892, Note_on_c, 0, 50, 70
1, 336894, Note_on_c, 0, 69, 76
1, 336898, Control_c, 0, 64, 67
1, 336898, Control_c, 0, 67, 8
1, 336913, Control_c, 0, 64, 82
1, 336913, Control_c, 0, 67, 0
1, 336928, Note_off_c, 0, 69, 62
1, 336928, Control_c, 0, 64, 97
1, 336942, Control_c, 0, 64, 106
1, 336953, Note_off_c, 0, 57, 60
1, 336957, Control_c, 0, 64, 107
1, 336958, Note_off_c, 0, 50, 59
1, 336972, Control_c, 0, 64, 108
1, 336979, Note_on_c, 0, 74, 70
1, 336987, Control_c, 0, 64, 108
1, 336990, Note_on_c, 0, 66, 66
1, 336990, Note_off_c, 0, 72, 60
1, 337011, Note_off_c, 0, 74, 63
1, 337017, Note_off_c, 0, 66, 68
1, 337061, Control_c, 0, 64, 107
1, 337061, Control_c, 0, 67, 8
1, 337075, Control_c, 0, 64, 98
1, 337075, Control_c, 0, 67, 8
1, 337090, Control_c, 0, 64, 83
1, 337105, Control_c, 0, 64, 62
1, 337113, Note_on_c, 0, 48, 62
1, 337114, Note_on_c, 0, 45, 61
1, 337116, Note_on_c, 0, 75, 77
1, 337120, Note_on_c, 0, 72, 76
1, 337120, Control_c, 0, 64, 0
1, 337120, Control_c, 0, 67, 9
1, 337135, Control_c, 0, 67, 8
1, 337143, Note_off_c, 0, 72, 69
1, 337145, Note_off_c, 0, 75, 65
1, 337149, Note_off_c, 0, 48, 64
1, 337153, Note_off_c, 0, 45, 56
1, 337206, Note_on_c, 0, 76, 77
1, 337210, Note_on_c, 0, 57, 59
1, 337214, Note_on_c, 0, 69, 65
1, 337234, Note_off_c, 0, 76, 65
1, 337236, Note_off_c, 0, 69, 68
1, 337240, Note_off_c, 0, 57, 64
1, 337343, Note_on_c, 0, 77, 97
1, 337354, Note_on_c, 0, 72, 84
1, 337357, Note_on_c, 0, 47, 59
1, 337363, Note_on_c, 0, 50, 51
1, 337385, Note_off_c, 0, 72, 56
1, 337405, Note_off_c, 0, 50, 62
1, 337417, Note_off_c, 0, 47, 59
1, 337453, Note_on_c, 0, 57, 62
1, 337461, Note_on_c, 0, 69, 60
1, 337491, Note_off_c, 0, 57, 58
1, 337499, Note_off_c, 0, 69, 60
1, 337555, Note_off_c, 0, 77, 0
1, 337580, Poly_aftertouch_c, 0, 77, 0
1, 337585, Note_on_c, 0, 76, 72
1, 337587, Note_on_c, 0, 52, 64
1, 337605, Note_on_c, 0, 48, 45
1, 337626, Note_off_c, 0, 76, 65
1, 337628, Note_off_c, 0, 52, 65
1, 337644, Note_off_c, 0, 48, 64
1, 337679, Note_on_c, 0, 72, 74
1, 337693, Note_on_c, 0, 57, 54
1, 337702, Note_off_c, 0, 72, 71
1, 337719, Note_off_c, 0, 57, 59
1, 337788, Note_on_c, 0, 78, 87
1, 337795, Note_on_c, 0, 54, 68
1, 337798, Note_on_c, 0, 72, 75
1, 337804, Note_on_c, 0, 50, 61
1, 337831, Note_off_c, 0, 72, 60
1, 337860, Note_off_c, 0, 50, 60
1, 337862, Note_off_c, 0, 54, 56
1, 337885, Note_on_c, 0, 69, 69
1, 337895, Note_on_c, 0, 57, 60
1, 337899, Note_off_c, 0, 78, 61
1, 337913, Note_off_c, 0, 69, 68
1, 337930, Note_off_c, 0, 57, 62
1, 338004, Note_on_c, 0, 81, 80
1, 338020, Note_on_c, 0, 76, 81
1, 338022, Note_on_c, 0, 48, 65
1, 338026, Note_on_c, 0, 45, 60
1, 338040, Note_off_c, 0, 76, 72
1, 338042, Note_off_c, 0, 81, 62
1, 338067, Note_off_c, 0, 48, 65
1, 338074, Note_off_c, 0, 45, 61
1, 338103, Note_on_c, 0, 84, 74
1, 338113, Note_on_c, 0, 57, 69
1, 338117, Note_off_c, 0, 84, 70
1, 338120, Note_on_c, 0, 72, 64
1, 338137, Note_off_c, 0, 72, 65
1, 338147, Note_off_c, 0, 57, 63
1, 338227, Note_on_c, 0, 72, 78
1, 338233, Control_c, 0, 67, 9
1, 338239, Note_on_c, 0, 65, 81
1, 338241, Note_on_c, 0, 50, 67
1, 338245, Note_on_c, 0, 47, 65
1, 338276, Note_off_c, 0, 65, 63
1, 338296, Note_off_c, 0, 50, 62
1, 338322, Note_off_c, 0, 47, 60
1, 338332, Note_on_c, 0, 62, 73
1, 338335, Note_on_c, 0, 57, 62
1, 338367, Note_off_c, 0, 57, 61
1, 338371, Note_off_c, 0, 62, 59
1, 338380, Control_c, 0, 67, 8
1, 338397, Note_off_c, 0, 72, 61
1, 338457, Note_on_c, 0, 69, 80
1, 338462, Note_on_c, 0, 52, 66
1, 338475, Note_on_c, 0, 48, 50
1, 338493, Note_off_c, 0, 69, 67
1, 338507, Note_off_c, 0, 52, 68
1, 338517, Note_off_c, 0, 48, 63
1, 338555, Note_on_c, 0, 74, 79
1, 338561, Note_on_c, 0, 65, 71
1, 338562, Note_on_c, 0, 57, 62
1, 338589, Note_off_c, 0, 65, 70
1, 338595, Note_off_c, 0, 74, 62
1, 338605, Note_off_c, 0, 57, 61
1, 338660, Note_on_c, 0, 72, 66
1, 338666, Note_on_c, 0, 54, 65
1, 338674, Note_on_c, 0, 50, 54
1, 338682, Note_on_c, 0, 69, 57
1, 338704, Note_off_c, 0, 69, 65
1, 338716, Note_off_c, 0, 50, 64
1, 338736, Control_c, 0, 67, 8
1, 338743, Note_off_c, 0, 72, 60
1, 338748, Note_on_c, 0, 66, 71
1, 338750, Note_on_c, 0, 71, 68
1, 338752, Note_on_c, 0, 57, 65
1, 338753, Note_off_c, 0, 54, 39
1, 338781, Note_off_c, 0, 71, 65
1, 338784, Note_off_c, 0, 66, 67
1, 338785, Note_off_c, 0, 57, 65
1, 338803, Control_c, 0, 67, 8
1, 338818, Control_c, 0, 67, 9
1, 338885, Note_on_c, 0, 53, 82
1, 338886, Note_on_c, 0, 69, 99
1, 338889, Note_on_c, 0, 41, 72
1, 338892, Control_c, 0, 67, 9
1, 338907, Control_c, 0, 64, 70
1, 338907, Control_c, 0, 67, 8
1, 338910, Note_off_c, 0, 53, 70
1, 338915, Note_off_c, 0, 41, 68
1, 338922, Control_c, 0, 64, 87
1, 338937, Control_c, 0, 64, 103
1, 338952, Control_c, 0, 64, 107
1, 338952, Control_c, 0, 67, 0
1, 338996, Note_on_c, 0, 65, 70
1, 338996, Control_c, 0, 64, 107
1, 339000, Note_on_c, 0, 60, 61
1, 339004, Note_on_c, 0, 57, 54
1, 339005, Note_on_c, 0, 53, 75
1, 339011, Control_c, 0, 64, 100
1, 339021, Note_off_c, 0, 60, 58
1, 339026, Control_c, 0, 64, 89
1, 339029, Note_off_c, 0, 53, 71
1, 339029, Note_off_c, 0, 57, 56
1, 339041, Control_c, 0, 64, 75
1, 339056, Control_c, 0, 64, 48
1, 339056, Control_c, 0, 67, 8
1, 339070, Control_c, 0, 64, 0
1, 339079, Note_off_c, 0, 65, 62
1, 339128, Note_on_c, 0, 53, 67
1, 339131, Note_on_c, 0, 43, 67
1, 339157, Note_off_c, 0, 53, 66
1, 339159, Note_off_c, 0, 43, 62
1, 339223, Note_on_c, 0, 65, 59
1, 339236, Note_on_c, 0, 59, 55
1, 339238, Note_on_c, 0, 62, 52
1, 339241, Note_on_c, 0, 53, 69
1, 339259, Note_off_c, 0, 59, 57
1, 339263, Note_off_c, 0, 62, 58
1, 339268, Note_off_c, 0, 53, 68
1, 339272, Note_off_c, 0, 65, 59
1, 339354, Note_on_c, 0, 53, 67
1, 339364, Note_on_c, 0, 45, 62
1, 339388, Note_off_c, 0, 53, 66
1, 339392, Note_off_c, 0, 45, 66
1, 339435, Note_on_c, 0, 65, 54
1, 339440, Note_on_c, 0, 60, 58
1, 339457, Note_on_c, 0, 53, 63
1, 339461, Note_on_c, 0, 62, 28
1, 339477, Note_off_c, 0, 60, 62
1, 339478, Note_off_c, 0, 53, 66
1, 339485, Control_c, 0, 67, 8
1, 339488, Note_off_c, 0, 62, 50
1, 339500, Control_c, 0, 67, 9
1, 339517, Note_off_c, 0, 65, 53
1, 339522, Control_c, 0, 67, 10
1, 339574, Note_on_c, 0, 53, 83
1, 339579, Note_on_c, 0, 46, 87
1, 339611, Control_c, 0, 64, 71
1, 339611, Control_c, 0, 67, 9
1, 339625, Control_c, 0, 64, 91
1, 339625, Control_c, 0, 67, 9
1, 339626, Note_off_c, 0, 53, 61
1, 339641, Control_c, 0, 64, 127
1, 339641, Control_c, 0, 67, 8
1, 339670, Note_off_c, 0, 69, 50
1, 339671, Control_c, 0, 67, 0
1, 339676, Note_off_c, 0, 46, 59
1, 339681, Note_on_c, 0, 65, 56
1, 339682, Note_on_c, 0, 49, 61
1, 339685, Note_on_c, 0, 61, 66
1, 339690, Note_on_c, 0, 58, 64
1, 339704, Note_off_c, 0, 49, 58
1, 339711, Note_off_c, 0, 65, 68
1, 339715, Note_off_c, 0, 61, 64
1, 339721, Note_off_c, 0, 58, 66
1, 339824, Note_on_c, 0, 29, 69
1, 339834, Note_on_c, 0, 41, 55
1, 339834, Control_c, 0, 64, 111
1, 339849, Control_c, 0, 64, 93
1, 339851, Note_off_c, 0, 29, 62
1, 339861, Note_off_c, 0, 41, 59
1, 339864, Control_c, 0, 64, 74
1, 339879, Control_c, 0, 64, 0
1, 339923, Control_c, 0, 67, 8
1, 339935, Note_on_c, 0, 41, 73
1, 339937, Note_on_c, 0, 53, 61
1, 339955, Note_on_c, 0, 45, 47
1, 339960, Note_off_c, 0, 41, 68
1, 339962, Note_on_c, 0, 48, 33
1, 339974, Note_off_c, 0, 53, 60
1, 339983, Note_off_c, 0, 45, 59
1, 340000, Note_off_c, 0, 48, 31
1, 340051, Note_on_c, 0, 41, 66
1, 340059, Note_on_c, 0, 31, 68
1, 340081, Note_off_c, 0, 41, 66
1, 340085, Control_c, 0, 67, 0
1, 340089, Note_off_c, 0, 31, 64
1, 340150, Note_on_c, 0, 41, 74
1, 340160, Note_on_c, 0, 53, 53
1, 340165, Note_on_c, 0, 50, 55
1, 340171, Note_on_c, 0, 47, 47
1, 340181, Note_off_c, 0, 41, 66
1, 340192, Note_off_c, 0, 53, 55
1, 340201, Note_off_c, 0, 47, 54
1, 340203, Note_off_c, 0, 50, 63
1, 340272, Note_on_c, 0, 41, 75
1, 340281, Note_on_c, 0, 29, 64
1, 340303, Note_off_c, 0, 41, 66
1, 340311, Note_off_c, 0, 29, 57
1, 340359, Note_on_c, 0, 53, 57
1, 340362, Note_on_c, 0, 48, 73
1, 340365, Note_on_c, 0, 50, 56
1, 340366, Note_on_c, 0, 41, 82
1, 340386, Note_off_c, 0, 48, 68
1, 340395, Note_off_c, 0, 50, 65
1, 340397, Note_off_c, 0, 41, 67
1, 340397, Note_off_c, 0, 53, 65
1, 340418, Control_c, 0, 67, 8
1, 340433, Control_c, 0, 67, 8
1, 340449, Control_c, 0, 67, 9
1, 340464, Control_c, 0, 67, 10
1, 340494, Control_c, 0, 67, 9
1, 340504, Note_on_c, 0, 41, 70
1, 340508, Note_on_c, 0, 34, 74
1, 340509, Control_c, 0, 67, 9
1, 340517, Note_on_c, 0, 68, 77
1, 340523, Control_c, 0, 67, 8
1, 340532, Note_on_c, 0, 61, 56
1, 340538, Control_c, 0, 64, 69
1, 340538, Control_c, 0, 67, 8
1, 340553, Control_c, 0, 64, 82
1, 340553, Control_c, 0, 67, 0
1, 340563, Note_off_c, 0, 61, 64
1, 340568, Control_c, 0, 64, 94
1, 340577, Note_off_c, 0, 34, 65
1, 340583, Control_c, 0, 64, 99
1, 340585, Note_off_c, 0, 41, 63
1, 340597, Control_c, 0, 64, 101
1, 340608, Note_on_c, 0, 58, 74
1, 340612, Control_c, 0, 64, 102
1, 340627, Control_c, 0, 64, 103
1, 340632, Note_off_c, 0, 68, 62
1, 340633, Note_off_c, 0, 58, 67
1, 340702, Control_c, 0, 64, 101
1, 340716, Control_c, 0, 64, 94
1, 340728, Note_on_c, 0, 69, 74
1, 340731, Control_c, 0, 64, 80
1, 340734, Note_on_c, 0, 60, 75
1, 340738, Note_on_c, 0, 41, 59
1, 340740, Note_on_c, 0, 45, 57
1, 340746, Control_c, 0, 64, 67
1, 340760, Control_c, 0, 64, 0
1, 340761, Note_off_c, 0, 60, 65
1, 340767, Note_off_c, 0, 69, 54
1, 340778, Note_off_c, 0, 41, 63
1, 340779, Note_off_c, 0, 45, 65
1, 340820, Note_on_c, 0, 65, 61
1, 340823, Note_on_c, 0, 57, 65
1, 340832, Note_on_c, 0, 53, 64
1, 340841, Note_off_c, 0, 65, 67
1, 340852, Note_off_c, 0, 57, 64
1, 340862, Note_off_c, 0, 53, 67
1, 340864, Control_c, 0, 67, 8
1, 340923, Control_c, 0, 67, 8
1, 340937, Note_on_c, 0, 62, 77
1, 340944, Note_on_c, 0, 56, 71
1, 340946, Note_on_c, 0, 47, 66
1, 340950, Note_on_c, 0, 43, 63
1, 340965, Note_off_c, 0, 62, 62
1, 340973, Note_off_c, 0, 56, 66
1, 340986, Note_off_c, 0, 47, 67
1, 341021, Note_off_c, 0, 43, 54
1, 341044, Note_on_c, 0, 53, 66
1, 341046, Note_on_c, 0, 59, 78
1, 341078, Note_off_c, 0, 53, 66
1, 341078, Note_off_c, 0, 59, 64
1, 341161, Note_on_c, 0, 60, 85
1, 341162, Note_on_c, 0, 48, 70
1, 341171, Note_on_c, 0, 45, 60
1, 341192, Note_off_c, 0, 60, 65
1, 341206, Note_off_c, 0, 48, 66
1, 341220, Note_off_c, 0, 45, 64
1, 341256, Note_on_c, 0, 65, 90
1, 341259, Note_on_c, 0, 57, 82
1, 341262, Note_on_c, 0, 53, 69
1, 341272, Control_c, 0, 67, 9
1, 341284, Note_off_c, 0, 57, 65
1, 341287, Control_c, 0, 67, 9
1, 341288, Note_off_c, 0, 65, 67
1, 341298, Note_off_c, 0, 53, 63
1, 341302, Control_c, 0, 67, 10
1, 341332, Control_c, 0, 67, 11
1, 341346, Control_c, 0, 67, 12
1, 341379, Note_on_c, 0, 49, 74
1, 341381, Note_on_c, 0, 68, 85
1, 341384, Note_on_c, 0, 46, 69
1, 341386, Note_on_c, 0, 61, 75
1, 341405, Control_c, 0, 64, 72
1, 341405, Control_c, 0, 67, 10
1, 341413, Note_off_c, 0, 61, 64
1, 341420, Control_c, 0, 64, 87
1, 341435, Control_c, 0, 64, 105
1, 341435, Control_c, 0, 67, 10
1, 341450, Control_c, 0, 64, 115
1, 341450, Control_c, 0, 67, 9
1, 341463, Note_off_c, 0, 46, 61
1, 341465, Control_c, 0, 64, 116
1, 341465, Control_c, 0, 67, 9
1, 341471, Note_off_c, 0, 49, 57
1, 341472, Note_on_c, 0, 58, 80
1, 341480, Control_c, 0, 67, 8
1, 341489, Note_on_c, 0, 53, 66
1, 341494, Control_c, 0, 64, 116
1, 341494, Control_c, 0, 67, 0
1, 341501, Note_off_c, 0, 58, 67
1, 341509, Control_c, 0, 64, 117
1, 341510, Note_off_c, 0, 68, 62
1, 341517, Note_off_c, 0, 53, 67
1, 341583, Control_c, 0, 64, 116
1, 341598, Control_c, 0, 64, 107
1, 341607, Note_on_c, 0, 69, 79
1, 341608, Note_on_c, 0, 41, 68
1, 341608, Note_on_c, 0, 60, 85
1, 341609, Note_on_c, 0, 45, 69
1, 341613, Control_c, 0, 64, 93
1, 341628, Control_c, 0, 64, 76
1, 341636, Note_off_c, 0, 60, 61
1, 341643, Control_c, 0, 64, 27
1, 341643, Note_off_c, 0, 69, 60
1, 341650, Note_off_c, 0, 45, 66
1, 341655, Note_off_c, 0, 41, 62
1, 341657, Control_c, 0, 64, 0
1, 341687, Control_c, 0, 67, 8
1, 341692, Note_on_c, 0, 65, 80
1, 341703, Note_on_c, 0, 57, 72
1, 341709, Note_on_c, 0, 53, 71
1, 341729, Note_off_c, 0, 57, 66
1, 341731, Control_c, 0, 67, 8
1, 341739, Note_off_c, 0, 65, 64
1, 341742, Note_off_c, 0, 53, 66
1, 341836, Note_on_c, 0, 59, 98
1, 341841, Note_on_c, 0, 43, 71
1, 341846, Note_on_c, 0, 47, 71
1, 341872, Control_c, 0, 67, 8
1, 341887, Control_c, 0, 67, 0
1, 341897, Note_off_c, 0, 47, 62
1, 341921, Note_off_c, 0, 43, 57
1, 341948, Note_on_c, 0, 53, 76
1, 341983, Note_off_c, 0, 59, 63
1, 341989, Note_off_c, 0, 53, 68
1, 342070, Note_on_c, 0, 60, 97
1, 342075, Note_on_c, 0, 48, 80
1, 342079, Note_on_c, 0, 45, 70
1, 342095, Control_c, 0, 67, 8
1, 342112, Note_off_c, 0, 60, 64
1, 342118, Note_off_c, 0, 48, 64
1, 342128, Note_off_c, 0, 45, 63
1, 342140, Control_c, 0, 67, 0
1, 342173, Note_on_c, 0, 53, 71
1, 342174, Note_on_c, 0, 65, 90
1, 342207, Note_off_c, 0, 53, 67
1, 342210, Note_off_c, 0, 65, 67
1, 342243, Control_c, 0, 67, 8
1, 342287, Note_on_c, 0, 53, 89
1, 342288, Note_on_c, 0, 49, 72
1, 342291, Note_on_c, 0, 46, 67
1, 342345, Note_off_c, 0, 53, 67
1, 342354, Note_off_c, 0, 46, 59
1, 342386, Note_on_c, 0, 52, 74
1, 342395, Note_on_c, 0, 61, 86
1, 342398, Note_off_c, 0, 49, 43
1, 342406, Control_c, 0, 67, 0
1, 342410, Note_off_c, 0, 52, 70
1, 342436, Control_c, 0, 67, 8
1, 342444, Note_off_c, 0, 61, 64
1, 342451, Control_c, 0, 67, 8
1, 342480, Control_c, 0, 67, 9
1, 342526, Note_on_c, 0, 50, 83
1, 342532, Control_c, 0, 67, 9
1, 342541, Note_on_c, 0, 35, 78
1, 342542, Note_on_c, 0, 42, 82
1, 342547, Control_c, 0, 67, 8
1, 342549, Note_on_c, 0, 52, 48
1, 342562, Control_c, 0, 64, 69
1, 342562, Control_c, 0, 67, 0
1, 342567, Note_off_c, 0, 42, 67
1, 342569, Note_off_c, 0, 35, 65
1, 342577, Control_c, 0, 64, 81
1, 342591, Control_c, 0, 64, 92
1, 342606, Control_c, 0, 64, 96
1, 342642, Note_on_c, 0, 42, 65
1, 342647, Note_on_c, 0, 54, 66
1, 342648, Note_on_c, 0, 59, 62
1, 342651, Control_c, 0, 64, 95
1, 342666, Control_c, 0, 64, 91
1, 342678, Note_off_c, 0, 42, 65
1, 342681, Control_c, 0, 64, 85
1, 342687, Note_off_c, 0, 52, 41
1, 342695, Control_c, 0, 64, 75
1, 342705, Note_off_c, 0, 59, 50
1, 342710, Control_c, 0, 64, 62
1, 342725, Control_c, 0, 64, 0
1, 342729, Note_off_c, 0, 54, 58
1, 342764, Note_on_c, 0, 42, 70
1, 342771, Note_on_c, 0, 37, 56
1, 342794, Note_off_c, 0, 42, 65
1, 342805, Note_off_c, 0, 37, 64
1, 342871, Note_on_c, 0, 54, 56
1, 342872, Note_on_c, 0, 42, 63
1, 342873, Note_on_c, 0, 59, 59
1, 342874, Control_c, 0, 67, 8
1, 342905, Note_off_c, 0, 42, 64
1, 342920, Note_off_c, 0, 54, 57
1, 342931, Note_off_c, 0, 59, 55
1, 342991, Note_on_c, 0, 42, 59
1, 343003, Note_on_c, 0, 38, 50
1, 343024, Note_off_c, 0, 42, 64
1, 343033, Note_off_c, 0, 38, 59
1, 343092, Note_on_c, 0, 59, 55
1, 343093, Note_on_c, 0, 54, 57
1, 343096, Note_on_c, 0, 42, 74
1, 343110, Control_c, 0, 67, 8
1, 343122, Note_off_c, 0, 42, 67
1, 343125, Control_c, 0, 67, 9
1, 343151, Note_off_c, 0, 59, 51
1, 343155, Control_c, 0, 67, 9
1, 343155, Note_off_c, 0, 54, 53
1, 343185, Control_c, 0, 67, 9
1, 343200, Control_c, 0, 67, 8
1, 343207, Note_on_c, 0, 42, 94
1, 343213, Note_on_c, 0, 39, 82
1, 343214, Control_c, 0, 64, 28
1, 343229, Control_c, 0, 64, 73
1, 343229, Control_c, 0, 67, 8
1, 343240, Note_off_c, 0, 42, 60
1, 343244, Control_c, 0, 64, 84
1, 343266, Control_c, 0, 64, 93
1, 343266, Control_c, 0, 67, 0
1, 343277, Note_off_c, 0, 39, 60
1, 343281, Control_c, 0, 64, 95
1, 343319, Note_on_c, 0, 58, 57
1, 343331, Note_on_c, 0, 42, 72
1, 343331, Note_on_c, 0, 54, 50
1, 343352, Note_off_c, 0, 42, 73
1, 343360, Note_off_c, 0, 58, 59
1, 343374, Note_off_c, 0, 54, 59
1, 343399, Control_c, 0, 64, 93
1, 343414, Control_c, 0, 64, 89
1, 343429, Control_c, 0, 64, 82
1, 343444, Control_c, 0, 64, 71
1, 343456, Note_on_c, 0, 35, 67
1, 343459, Control_c, 0, 64, 39
1, 343460, Note_on_c, 0, 42, 64
1, 343474, Control_c, 0, 64, 0
1, 343477, Note_off_c, 0, 42, 66
1, 343481, Note_off_c, 0, 35, 66
1, 343533, Control_c, 0, 67, 8
1, 343568, Note_on_c, 0, 42, 55
1, 343568, Note_on_c, 0, 54, 54
1, 343572, Note_on_c, 0, 59, 58
1, 343604, Note_off_c, 0, 42, 63
1, 343614, Note_off_c, 0, 54, 59
1, 343616, Note_off_c, 0, 59, 58
1, 343697, Note_on_c, 0, 37, 62
1, 343698, Note_on_c, 0, 42, 60
1, 343729, Note_off_c, 0, 37, 64
1, 343732, Note_off_c, 0, 42, 64
1, 343796, Note_on_c, 0, 59, 58
1, 343808, Note_on_c, 0, 54, 43
1, 343811, Note_on_c, 0, 42, 52
1, 343838, Note_off_c, 0, 42, 57
1, 343840, Note_off_c, 0, 59, 56
1, 343854, Note_off_c, 0, 54, 58
1, 343910, Note_on_c, 0, 42, 61
1, 343921, Note_on_c, 0, 38, 47
1, 343948, Note_off_c, 0, 42, 64
1, 343954, Note_off_c, 0, 38, 62
1, 343964, Control_c, 0, 67, 0
1, 343998, Note_on_c, 0, 59, 61
1, 344013, Note_on_c, 0, 54, 55
1, 344034, Note_on_c, 0, 42, 52
1, 344035, Note_off_c, 0, 50, 40
1, 344036, Note_off_c, 0, 59, 63
1, 344049, Note_off_c, 0, 54, 63
1, 344061, Note_off_c, 0, 42, 56
1, 344134, Note_on_c, 0, 42, 65
1, 344141, Note_on_c, 0, 54, 69
1, 344144, Note_on_c, 0, 39, 56
1, 344149, Control_c, 0, 64, 47
1, 344164, Control_c, 0, 64, 74
1, 344179, Control_c, 0, 64, 90
1, 344182, Note_off_c, 0, 42, 60
1, 344194, Control_c, 0, 64, 106
1, 344195, Note_off_c, 0, 39, 57
1, 344209, Control_c, 0, 64, 113
1, 344224, Control_c, 0, 64, 116
1, 344235, Note_off_c, 0, 54, 46
1, 344239, Control_c, 0, 64, 118
1, 344254, Control_c, 0, 64, 121
1, 344258, Note_on_c, 0, 46, 59
1, 344259, Note_on_c, 0, 51, 57
1, 344260, Note_on_c, 0, 42, 57
1, 344268, Control_c, 0, 64, 122
1, 344281, Note_off_c, 0, 46, 59
1, 344282, Control_c, 0, 64, 125
1, 344290, Note_off_c, 0, 42, 66
1, 344292, Note_off_c, 0, 51, 62
1, 344296, Control_c, 0, 64, 127
1, 344341, Control_c, 0, 64, 116
1, 344356, Control_c, 0, 64, 96
1, 344371, Control_c, 0, 64, 72
1, 344383, Note_on_c, 0, 35, 67
1, 344385, Control_c, 0, 64, 0
1, 344389, Note_on_c, 0, 59, 74
1, 344431, Control_c, 0, 64, 55
1, 344440, Note_off_c, 0, 35, 56
1, 344446, Control_c, 0, 64, 70
1, 344460, Control_c, 0, 64, 83
1, 344475, Control_c, 0, 64, 95
1, 344483, Note_on_c, 0, 42, 60
1, 344489, Note_on_c, 0, 47, 59
1, 344490, Control_c, 0, 64, 102
1, 344490, Note_on_c, 0, 50, 60
1, 344492, Note_on_c, 0, 54, 67
1, 344493, Note_off_c, 0, 59, 59
1, 344505, Control_c, 0, 64, 105
1, 344515, Note_off_c, 0, 50, 61
1, 344517, Note_off_c, 0, 47, 65
1, 344520, Control_c, 0, 64, 107
1, 344521, Note_off_c, 0, 42, 62
1, 344530, Note_off_c, 0, 54, 62
1, 344535, Control_c, 0, 64, 109
1, 344550, Control_c, 0, 64, 113
1, 344564, Control_c, 0, 64, 113
1, 344579, Control_c, 0, 64, 111
1, 344594, Control_c, 0, 64, 97
1, 344608, Control_c, 0, 64, 79
1, 344612, Note_on_c, 0, 37, 79
1, 344618, Note_on_c, 0, 62, 86
1, 344623, Control_c, 0, 64, 41
1, 344638, Control_c, 0, 64, 0
1, 344668, Control_c, 0, 64, 64
1, 344681, Note_off_c, 0, 62, 61
1, 344682, Control_c, 0, 64, 74
1, 344697, Control_c, 0, 64, 84
1, 344700, Note_off_c, 0, 37, 61
1, 344712, Control_c, 0, 64, 94
1, 344721, Note_on_c, 0, 42, 59
1, 344722, Note_on_c, 0, 59, 72
1, 344727, Control_c, 0, 64, 100
1, 344729, Note_on_c, 0, 47, 56
1, 344729, Note_on_c, 0, 54, 66
1, 344742, Control_c, 0, 64, 103
1, 344762, Note_off_c, 0, 54, 64
1, 344764, Control_c, 0, 64, 106
1, 344776, Note_off_c, 0, 59, 59
1, 344777, Note_off_c, 0, 47, 62
1, 344779, Control_c, 0, 64, 110
1, 344779, Note_off_c, 0, 42, 61
1, 344794, Control_c, 0, 64, 113
1, 344808, Control_c, 0, 64, 114
1, 344823, Control_c, 0, 64, 111
1, 344838, Control_c, 0, 64, 96
1, 344853, Control_c, 0, 64, 71
1, 344855, Note_on_c, 0, 66, 86
1, 344859, Note_on_c, 0, 38, 72
1, 344868, Control_c, 0, 64, 0
1, 344927, Control_c, 0, 64, 65
1, 344935, Note_off_c, 0, 38, 62
1, 344941, Control_c, 0, 64, 76
1, 344949, Note_on_c, 0, 42, 68
1, 344954, Note_on_c, 0, 59, 68
1, 344955, Note_on_c, 0, 62, 66
1, 344956, Control_c, 0, 64, 91
1, 344959, Note_on_c, 0, 47, 62
1, 344970, Note_off_c, 0, 66, 64
1, 344971, Control_c, 0, 64, 102
1, 344979, Note_off_c, 0, 42, 66
1, 344982, Note_off_c, 0, 59, 64
1, 344985, Note_off_c, 0, 47, 62
1, 344986, Control_c, 0, 64, 106
1, 344988, Note_off_c, 0, 62, 63
1, 345001, Control_c, 0, 64, 108
1, 345015, Control_c, 0, 64, 111
1, 345030, Control_c, 0, 64, 115
1, 345045, Control_c, 0, 64, 117
1, 345045, Control_c, 0, 67, 8
1, 345060, Control_c, 0, 64, 116
1, 345060, Control_c, 0, 67, 9
1, 345075, Control_c, 0, 64, 102
1, 345075, Control_c, 0, 67, 10
1, 345089, Control_c, 0, 64, 81
1, 345089, Control_c, 0, 67, 11
1, 345093, Note_on_c, 0, 46, 82
1, 345093, Note_on_c, 0, 78, 90
1, 345104, Control_c, 0, 64, 29
1, 345119, Control_c, 0, 64, 0
1, 345119, Control_c, 0, 67, 11
1, 345134, Control_c, 0, 67, 10
1, 345149, Control_c, 0, 64, 43
1, 345149, Control_c, 0, 67, 10
1, 345164, Control_c, 0, 64, 69
1, 345164, Control_c, 0, 67, 9
1, 345179, Control_c, 0, 64, 79
1, 345179, Control_c, 0, 67, 9
1, 345189, Note_on_c, 0, 54, 53
1, 345189, Note_off_c, 0, 46, 58
1, 345194, Control_c, 0, 64, 91
1, 345200, Note_on_c, 0, 70, 68
1, 345200, Note_on_c, 0, 66, 70
1, 345207, Note_on_c, 0, 51, 51
1, 345207, Note_off_c, 0, 78, 61
1, 345208, Control_c, 0, 64, 100
1, 345208, Control_c, 0, 67, 8
1, 345223, Control_c, 0, 64, 103
1, 345226, Note_off_c, 0, 54, 55
1, 345238, Control_c, 0, 64, 106
1, 345241, Note_off_c, 0, 66, 64
1, 345253, Note_off_c, 0, 51, 59
1, 345253, Control_c, 0, 64, 111
1, 345268, Control_c, 0, 64, 116
1, 345269, Note_off_c, 0, 70, 62
1, 345283, Control_c, 0, 64, 117
1, 345283, Control_c, 0, 67, 9
1, 345298, Control_c, 0, 64, 115
1, 345298, Control_c, 0, 67, 10
1, 345313, Control_c, 0, 64, 101
1, 345313, Control_c, 0, 67, 11
1, 345319, Note_on_c, 0, 47, 84
1, 345327, Note_on_c, 0, 74, 83
1, 345328, Control_c, 0, 64, 78
1, 345343, Control_c, 0, 64, 0
1, 345357, Control_c, 0, 67, 11
1, 345372, Control_c, 0, 67, 10
1, 345385, Note_off_c, 0, 47, 61
1, 345387, Control_c, 0, 64, 63
1, 345387, Control_c, 0, 67, 9
1, 345402, Control_c, 0, 64, 72
1, 345417, Control_c, 0, 64, 83
1, 345417, Control_c, 0, 67, 9
1, 345423, Note_on_c, 0, 66, 80
1, 345428, Note_on_c, 0, 71, 70
1, 345431, Note_on_c, 0, 54, 62
1, 345431, Control_c, 0, 64, 91
1, 345435, Note_on_c, 0, 59, 60
1, 345446, Note_off_c, 0, 66, 71
1, 345446, Control_c, 0, 64, 95
1, 345449, Note_off_c, 0, 74, 56
1, 345459, Note_off_c, 0, 59, 62
1, 345461, Control_c, 0, 64, 97
1, 345467, Note_off_c, 0, 54, 61
1, 345469, Note_off_c, 0, 71, 57
1, 345476, Control_c, 0, 64, 100
1, 345476, Control_c, 0, 67, 9
1, 345491, Control_c, 0, 64, 103
1, 345513, Control_c, 0, 64, 104
1, 345513, Control_c, 0, 67, 10
1, 345528, Control_c, 0, 64, 102
1, 345528, Control_c, 0, 67, 10
1, 345543, Control_c, 0, 64, 88
1, 345543, Control_c, 0, 67, 11
1, 345557, Note_on_c, 0, 49, 87
1, 345557, Control_c, 0, 64, 68
1, 345557, Control_c, 0, 67, 12
1, 345558, Note_on_c, 0, 83, 89
1, 345572, Control_c, 0, 64, 0
1, 345602, Control_c, 0, 64, 44
1, 345602, Control_c, 0, 67, 11
1, 345617, Control_c, 0, 64, 72
1, 345617, Control_c, 0, 67, 11
1, 345626, Note_off_c, 0, 83, 58
1, 345632, Control_c, 0, 64, 86
1, 345632, Control_c, 0, 67, 9
1, 345647, Control_c, 0, 64, 102
1, 345647, Control_c, 0, 67, 8
1, 345662, Control_c, 0, 64, 112
1, 345662, Control_c, 0, 67, 8
1, 345668, Note_on_c, 0, 74, 55
1, 345671, Note_on_c, 0, 54, 68
1, 345673, Note_on_c, 0, 59, 60
1, 345673, Note_off_c, 0, 49, 60
1, 345674, Note_on_c, 0, 71, 60
1, 345677, Control_c, 0, 64, 114
1, 345692, Control_c, 0, 64, 115
1, 345695, Note_off_c, 0, 74, 66
1, 345701, Note_off_c, 0, 59, 58
1, 345704, Note_off_c, 0, 71, 65
1, 345706, Control_c, 0, 64, 116
1, 345715, Note_off_c, 0, 54, 59
1, 345721, Control_c, 0, 64, 117
1, 345736, Control_c, 0, 64, 117
1, 345751, Control_c, 0, 64, 116
1, 345751, Control_c, 0, 67, 9
1, 345765, Control_c, 0, 64, 103
1, 345765, Control_c, 0, 67, 9
1, 345780, Control_c, 0, 64, 83
1, 345780, Control_c, 0, 67, 10
1, 345793, Note_on_c, 0, 50, 89
1, 345795, Control_c, 0, 64, 54
1, 345795, Control_c, 0, 67, 10
1, 345799, Note_on_c, 0, 66, 91
1, 345810, Control_c, 0, 64, 0
1, 345839, Control_c, 0, 64, 52
1, 345843, Note_on_c, 0, 70, 16
1, 345854, Control_c, 0, 64, 71
1, 345869, Control_c, 0, 64, 82
1, 345869, Control_c, 0, 67, 10
1, 345884, Control_c, 0, 64, 94
1, 345884, Control_c, 0, 67, 9
1, 345885, Note_off_c, 0, 70, 39
1, 345892, Note_on_c, 0, 62, 76
1, 345899, Control_c, 0, 64, 102
1, 345899, Control_c, 0, 67, 9
1, 345906, Note_off_c, 0, 50, 59
1, 345907, Note_on_c, 0, 54, 68
1, 345909, Note_on_c, 0, 59, 65
1, 345912, Note_off_c, 0, 66, 63
1, 345913, Control_c, 0, 64, 104
1, 345913, Control_c, 0, 67, 8
1, 345915, Note_off_c, 0, 62, 66
1, 345928, Control_c, 0, 64, 105
1, 345937, Note_off_c, 0, 59, 64
1, 345943, Control_c, 0, 64, 109
1, 345957, Control_c, 0, 64, 116
1, 345970, Note_off_c, 0, 54, 60
1, 345972, Control_c, 0, 64, 121
1, 345972, Control_c, 0, 67, 10
1, 345987, Control_c, 0, 64, 120
1, 345987, Control_c, 0, 67, 11
1, 346002, Control_c, 0, 64, 101
1, 346002, Control_c, 0, 67, 12
1, 346017, Control_c, 0, 64, 77
1, 346017, Control_c, 0, 67, 13
1, 346033, Control_c, 0, 64, 0
1, 346048, Control_c, 0, 67, 13
1, 346053, Note_on_c, 0, 51, 87
1, 346059, Note_on_c, 0, 90, 75
1, 346062, Control_c, 0, 67, 13
1, 346071, Note_on_c, 0, 91, 79
1, 346077, Control_c, 0, 64, 62
1, 346077, Control_c, 0, 67, 12
1, 346092, Control_c, 0, 64, 84
1, 346092, Control_c, 0, 67, 11
1, 346096, Note_off_c, 0, 91, 58
1, 346107, Control_c, 0, 64, 110
1, 346107, Control_c, 0, 67, 10
1, 346122, Control_c, 0, 64, 127
1, 346122, Control_c, 0, 67, 8
1, 346136, Control_c, 0, 67, 8
1, 346151, Control_c, 0, 67, 0
1, 346162, Note_off_c, 0, 90, 59
1, 346168, Note_on_c, 0, 58, 57
1, 346171, Note_on_c, 0, 78, 80
1, 346171, Note_off_c, 0, 51, 57
1, 346174, Note_on_c, 0, 82, 73
1, 346178, Note_on_c, 0, 54, 39
1, 346180, Control_c, 0, 67, 8
1, 346188, Note_off_c, 0, 58, 62
1, 346195, Control_c, 0, 67, 8
1, 346208, Note_on_c, 0, 55, 33
1, 346212, Note_off_c, 0, 54, 53
1, 346216, Poly_aftertouch_c, 0, 87, 127
1, 346225, Control_c, 0, 67, 9
1, 346240, Poly_aftertouch_c, 0, 87, 0
1, 346240, Control_c, 0, 67, 11
1, 346246, Note_off_c, 0, 55, 50
1, 346262, Control_c, 0, 64, 95
1, 346262, Control_c, 0, 67, 12
1, 346269, Note_off_c, 0, 78, 62
1, 346277, Control_c, 0, 64, 67
1, 346277, Control_c, 0, 67, 13
1, 346292, Note_off_c, 0, 82, 62
1, 346292, Control_c, 0, 64, 0
1, 346321, Note_on_c, 0, 90, 98
1, 346329, Note_on_c, 0, 40, 83
1, 346332, Note_on_c, 0, 28, 79
1, 346336, Control_c, 0, 64, 63
1, 346336, Control_c, 0, 67, 12
1, 346347, Note_off_c, 0, 90, 69
1, 346351, Control_c, 0, 64, 85
1, 346351, Control_c, 0, 67, 11
1, 346362, Note_off_c, 0, 40, 66
1, 346365, Note_off_c, 0, 28, 66
1, 346366, Control_c, 0, 64, 127
1, 346366, Control_c, 0, 67, 11
1, 346369, Note_on_c, 0, 38, 27
1, 346370, Note_off_c, 0, 38, 127
1, 346380, Control_c, 0, 67, 10
1, 346410, Control_c, 0, 67, 10
1, 346413, Poly_aftertouch_c, 0, 38, 0
1, 346455, Control_c, 0, 67, 9
1, 346470, Control_c, 0, 67, 9
1, 346486, Note_on_c, 0, 40, 80
1, 346490, Note_on_c, 0, 56, 71
1, 346492, Note_on_c, 0, 63, 68
1, 346514, Note_off_c, 0, 40, 65
1, 346514, Control_c, 0, 67, 9
1, 346520, Note_off_c, 0, 56, 63
1, 346529, Control_c, 0, 67, 10
1, 346541, Note_off_c, 0, 63, 50
1, 346559, Control_c, 0, 64, 108
1, 346574, Control_c, 0, 64, 91
1, 346574, Control_c, 0, 67, 11
1, 346588, Control_c, 0, 64, 78
1, 346603, Control_c, 0, 64, 64
1, 346603, Control_c, 0, 67, 12
1, 346618, Control_c, 0, 64, 0
1, 346628, Note_on_c, 0, 32, 52
1, 346632, Note_on_c, 0, 30, 37
1, 346633, Note_off_c, 0, 30, 127
1, 346634, Note_on_c, 0, 41, 40
1, 346661, Note_off_c, 0, 32, 55
1, 346674, Note_off_c, 0, 41, 55
1, 346677, Control_c, 0, 67, 11
1, 346692, Control_c, 0, 67, 10
1, 346706, Control_c, 0, 67, 10
1, 346717, Note_on_c, 0, 40, 64
1, 346724, Note_on_c, 0, 63, 69
1, 346726, Note_on_c, 0, 58, 67
1, 346748, Note_off_c, 0, 40, 65
1, 346751, Control_c, 0, 67, 10
1, 346757, Note_off_c, 0, 58, 65
1, 346766, Control_c, 0, 67, 11
1, 346779, Note_off_c, 0, 63, 57
1, 346827, Note_on_c, 0, 40, 76
1, 346839, Note_on_c, 0, 31, 72
1, 346841, Control_c, 0, 67, 10
1, 346866, Note_off_c, 0, 40, 66
1, 346874, Note_off_c, 0, 31, 66
1, 346923, Note_on_c, 0, 63, 62
1, 346925, Note_on_c, 0, 59, 63
1, 346942, Note_on_c, 0, 40, 74
1, 346945, Control_c, 0, 67, 9
1, 346960, Note_off_c, 0, 59, 62
1, 346964, Note_off_c, 0, 63, 63
1, 346970, Note_off_c, 0, 40, 66
1, 346989, Control_c, 0, 67, 10
1, 347011, Control_c, 0, 67, 10
1, 347026, Control_c, 0, 67, 11
1, 347041, Control_c, 0, 67, 12
1, 347052, Note_on_c, 0, 38, 73
1, 347058, Note_on_c, 0, 35, 69
1, 347071, Control_c, 0, 67, 11
1, 347076, Note_on_c, 0, 37, 64
1, 347084, Note_off_c, 0, 38, 61
1, 347085, Control_c, 0, 67, 10
1, 347100, Control_c, 0, 64, 53
1, 347100, Control_c, 0, 67, 10
1, 347115, Control_c, 0, 64, 74
1, 347115, Control_c, 0, 67, 9
1, 347117, Note_on_c, 0, 38, 75
1, 347122, Note_on_c, 0, 62, 60
1, 347125, Note_on_c, 0, 54, 67
1, 347125, Note_off_c, 0, 35, 63
1, 347130, Control_c, 0, 64, 88
1, 347145, Control_c, 0, 64, 106
1, 347145, Control_c, 0, 67, 8
1, 347148, Note_off_c, 0, 37, 64
1, 347154, Note_off_c, 0, 54, 65
1, 347159, Control_c, 0, 64, 112
1, 347161, Note_off_c, 0, 62, 62
1, 347167, Note_off_c, 0, 38, 61
1, 347174, Control_c, 0, 64, 114
1, 347189, Control_c, 0, 64, 115
1, 347189, Control_c, 0, 67, 8
1, 347203, Control_c, 0, 64, 116
1, 347203, Control_c, 0, 67, 0
1, 347295, Note_on_c, 0, 52, 86
1, 347302, Note_on_c, 0, 40, 65
1, 347317, Note_off_c, 0, 52, 73
1, 347327, Note_off_c, 0, 40, 60
1, 347352, Control_c, 0, 64, 115
1, 347367, Control_c, 0, 64, 112
1, 347367, Control_c, 0, 67, 8
1, 347382, Control_c, 0, 64, 101
1, 347382, Control_c, 0, 67, 9
1, 347397, Control_c, 0, 64, 85
1, 347397, Control_c, 0, 67, 10
1, 347404, Note_on_c, 0, 68, 69
1, 347408, Note_on_c, 0, 52, 76
1, 347411, Note_on_c, 0, 63, 62
1, 347411, Control_c, 0, 64, 67
1, 347411, Control_c, 0, 67, 11
1, 347412, Note_on_c, 0, 75, 71
1, 347426, Control_c, 0, 64, 0
1, 347430, Note_off_c, 0, 63, 63
1, 347432, Note_off_c, 0, 52, 71
1, 347437, Note_off_c, 0, 68, 54
1, 347439, Note_off_c, 0, 75, 54
1, 347531, Note_on_c, 0, 42, 66
1, 347535, Note_on_c, 0, 52, 64
1, 347556, Note_off_c, 0, 52, 64
1, 347561, Note_off_c, 0, 42, 65
1, 347589, Control_c, 0, 67, 11
1, 347628, Note_on_c, 0, 52, 73
1, 347630, Note_on_c, 0, 63, 65
1, 347635, Note_on_c, 0, 75, 60
1, 347657, Note_off_c, 0, 63, 66
1, 347661, Note_off_c, 0, 52, 68
1, 347664, Control_c, 0, 67, 11
1, 347668, Note_off_c, 0, 75, 67
1, 347679, Control_c, 0, 67, 12
1, 347723, Control_c, 0, 67, 11
1, 347760, Control_c, 0, 67, 11
1, 347766, Note_on_c, 0, 52, 84
1, 347767, Note_on_c, 0, 43, 77
1, 347769, Note_on_c, 0, 83, 92
1, 347775, Control_c, 0, 64, 61
1, 347775, Control_c, 0, 67, 10
1, 347790, Control_c, 0, 64, 78
1, 347790, Control_c, 0, 67, 9
1, 347797, Note_off_c, 0, 52, 66
1, 347805, Control_c, 0, 64, 97
1, 347805, Control_c, 0, 67, 9
1, 347808, Note_off_c, 0, 43, 61
1, 347820, Control_c, 0, 64, 127
1, 347820, Control_c, 0, 67, 8
1, 347834, Control_c, 0, 67, 8
1, 347835, Note_off_c, 0, 83, 57
1, 347849, Control_c, 0, 67, 0
1, 347869, Note_on_c, 0, 75, 68
1, 347877, Note_on_c, 0, 71, 54
1, 347880, Note_on_c, 0, 52, 76
1, 347900, Note_off_c, 0, 71, 58
1, 347901, Note_off_c, 0, 52, 74
1, 347901, Note_off_c, 0, 75, 64
1, 347938, Control_c, 0, 67, 8
1, 348004, Note_on_c, 0, 50, 62
1, 348008, Note_on_c, 0, 47, 64
1, 348025, Note_on_c, 0, 49, 74
1, 348026, Note_off_c, 0, 50, 63
1, 348062, Note_off_c, 0, 47, 63
1, 348071, Note_on_c, 0, 50, 74
1, 348071, Control_c, 0, 64, 125
1, 348071, Control_c, 0, 67, 9
1, 348086, Note_on_c, 0, 74, 71
1, 348086, Control_c, 0, 64, 113
1, 348086, Control_c, 0, 67, 10
1, 348088, Note_on_c, 0, 66, 74
1, 348088, Note_off_c, 0, 49, 63
1, 348100, Control_c, 0, 64, 94
1, 348108, Note_off_c, 0, 50, 63
1, 348115, Note_off_c, 0, 66, 67
1, 348115, Control_c, 0, 64, 73
1, 348115, Control_c, 0, 67, 11
1, 348130, Control_c, 0, 64, 0
1, 348130, Control_c, 0, 67, 11
1, 348133, Note_off_c, 0, 74, 63
1, 348145, Control_c, 0, 67, 12
1, 348175, Control_c, 0, 67, 11
1, 348190, Control_c, 0, 67, 11
1, 348203, Note_on_c, 0, 78, 89
1, 348204, Control_c, 0, 67, 10
1, 348219, Control_c, 0, 64, 58
1, 348219, Control_c, 0, 67, 11
1, 348221, Note_on_c, 0, 40, 83
1, 348221, Note_off_c, 0, 78, 72
1, 348224, Note_on_c, 0, 28, 72
1, 348234, Control_c, 0, 64, 74
1, 348234, Control_c, 0, 67, 10
1, 348248, Note_off_c, 0, 40, 65
1, 348249, Control_c, 0, 64, 88
1, 348250, Note_off_c, 0, 28, 60
1, 348264, Control_c, 0, 64, 107
1, 348264, Control_c, 0, 67, 9
1, 348279, Control_c, 0, 64, 119
1, 348279, Control_c, 0, 67, 8
1, 348294, Control_c, 0, 64, 120
1, 348294, Control_c, 0, 67, 0
1, 348308, Control_c, 0, 64, 121
1, 348337, Note_on_c, 0, 40, 71
1, 348338, Control_c, 0, 64, 122
1, 348345, Note_on_c, 0, 63, 69
1, 348353, Note_on_c, 0, 56, 60
1, 348367, Control_c, 0, 64, 122
1, 348375, Note_off_c, 0, 56, 61
1, 348378, Note_off_c, 0, 63, 62
1, 348379, Note_off_c, 0, 40, 62
1, 348471, Note_on_c, 0, 30, 72
1, 348472, Control_c, 0, 64, 121
1, 348476, Note_on_c, 0, 40, 70
1, 348487, Control_c, 0, 64, 113
1, 348508, Note_off_c, 0, 30, 63
1, 348509, Note_off_c, 0, 40, 66
1, 348509, Control_c, 0, 64, 101
1, 348524, Control_c, 0, 64, 88
1, 348538, Control_c, 0, 64, 74
1, 348553, Control_c, 0, 64, 54
1, 348568, Control_c, 0, 64, 0
1, 348580, Note_on_c, 0, 63, 67
1, 348583, Note_on_c, 0, 40, 77
1, 348586, Note_on_c, 0, 58, 64
1, 348613, Note_off_c, 0, 40, 65
1, 348619, Note_off_c, 0, 58, 65
1, 348640, Note_off_c, 0, 63, 60
1, 348657, Control_c, 0, 67, 8
1, 348672, Control_c, 0, 67, 8
1, 348693, Note_on_c, 0, 40, 71
1, 348704, Note_on_c, 0, 31, 66
1, 348731, Note_off_c, 0, 40, 67
1, 348734, Note_off_c, 0, 31, 63
1, 348801, Note_on_c, 0, 63, 61
1, 348802, Note_on_c, 0, 40, 75
1, 348805, Control_c, 0, 67, 8
1, 348807, Note_on_c, 0, 59, 60
1, 348828, Note_off_c, 0, 40, 66
1, 348842, Note_off_c, 0, 59, 63
1, 348848, Note_off_c, 0, 63, 56
1, 348864, Control_c, 0, 67, 8
1, 348879, Control_c, 0, 67, 9
1, 348894, Control_c, 0, 67, 9
1, 348920, Note_on_c, 0, 35, 66
1, 348920, Note_on_c, 0, 38, 60
1, 348930, Note_on_c, 0, 37, 68
1, 348951, Note_off_c, 0, 38, 0
1, 348953, Control_c, 0, 64, 68
1, 348953, Control_c, 0, 67, 9
1, 348956, Note_on_c, 0, 62, 71
1, 348968, Control_c, 0, 64, 83
1, 348968, Control_c, 0, 67, 8
1, 348970, Note_on_c, 0, 54, 67
1, 348974, Note_on_c, 0, 38, 58
1, 348977, Note_off_c, 0, 35, 62
1, 348982, Control_c, 0, 64, 98
1, 348982, Control_c, 0, 67, 8
1, 348997, Control_c, 0, 64, 106
1, 348997, Control_c, 0, 67, 0
1, 349000, Note_off_c, 0, 54, 64
1, 349000, Note_off_c, 0, 37, 65
1, 349012, Control_c, 0, 64, 107
1, 349018, Note_off_c, 0, 62, 61
1, 349027, Note_off_c, 0, 38, 63
1, 349149, Note_on_c, 0, 43, 69
1, 349149, Note_on_c, 0, 71, 80
1, 349155, Note_on_c, 0, 33, 63
1, 349161, Control_c, 0, 64, 107
1, 349166, Note_on_c, 0, 45, 43
1, 349175, Control_c, 0, 64, 102
1, 349176, Note_off_c, 0, 43, 64
1, 349185, Note_off_c, 0, 33, 65
1, 349190, Control_c, 0, 64, 91
1, 349197, Note_off_c, 0, 45, 55
1, 349205, Control_c, 0, 64, 77
1, 349205, Control_c, 0, 67, 8
1, 349221, Control_c, 0, 64, 51
1, 349221, Control_c, 0, 67, 8
1, 349236, Control_c, 0, 64, 0
1, 349236, Control_c, 0, 67, 9
1, 349258, Control_c, 0, 67, 9
1, 349261, Note_on_c, 0, 59, 73
1, 349264, Note_on_c, 0, 43, 69
1, 349288, Note_off_c, 0, 43, 64
1, 349290, Note_off_c, 0, 59, 64
1, 349302, Note_on_c, 0, 62, 26
1, 349302, Control_c, 0, 67, 10
1, 349317, Control_c, 0, 67, 10
1, 349332, Control_c, 0, 67, 11
1, 349345, Note_off_c, 0, 62, 30
1, 349347, Control_c, 0, 67, 11
1, 349361, Control_c, 0, 67, 12
1, 349376, Control_c, 0, 67, 13
1, 349391, Note_on_c, 0, 42, 97
1, 349391, Control_c, 0, 67, 13
1, 349398, Note_on_c, 0, 30, 79
1, 349421, Control_c, 0, 67, 13
1, 349436, Control_c, 0, 67, 12
1, 349450, Control_c, 0, 67, 12
1, 349497, Note_off_c, 0, 30, 57
1, 349499, Note_on_c, 0, 58, 64
1, 349506, Note_on_c, 0, 63, 61
1, 349508, Note_off_c, 0, 42, 61
1, 349528, Note_off_c, 0, 58, 66
1, 349555, Control_c, 0, 67, 11
1, 349555, Note_off_c, 0, 63, 58
1, 349585, Control_c, 0, 67, 11
1, 349599, Control_c, 0, 67, 10
1, 349635, Note_on_c, 0, 43, 71
1, 349639, Note_on_c, 0, 31, 53
1, 349665, Note_off_c, 0, 43, 63
1, 349671, Note_off_c, 0, 31, 50
1, 349674, Control_c, 0, 67, 10
1, 349688, Control_c, 0, 67, 9
1, 349744, Note_on_c, 0, 59, 62
1, 349747, Note_on_c, 0, 43, 74
1, 349749, Note_on_c, 0, 63, 57
1, 349764, Note_off_c, 0, 59, 61
1, 349776, Note_off_c, 0, 63, 60
1, 349782, Note_off_c, 0, 43, 64
1, 349864, Note_on_c, 0, 47, 101
1, 349866, Control_c, 0, 67, 10
1, 349877, Note_on_c, 0, 35, 75
1, 349880, Control_c, 0, 67, 10
1, 349968, Note_off_c, 0, 47, 61
1, 349969, Control_c, 0, 67, 10
1, 349975, Note_on_c, 0, 59, 67
1, 349976, Note_on_c, 0, 68, 69
1, 349980, Note_on_c, 0, 63, 64
1, 349989, Note_off_c, 0, 35, 61
1, 349999, Note_off_c, 0, 71, 54
1, 350001, Note_off_c, 0, 59, 63
1, 350017, Note_off_c, 0, 63, 66
1, 350021, Control_c, 0, 67, 10
1, 350022, Note_off_c, 0, 68, 61
1, 350037, Control_c, 0, 67, 11
1, 350052, Control_c, 0, 67, 11
1, 350067, Control_c, 0, 67, 12
1, 350082, Control_c, 0, 67, 12
1, 350097, Control_c, 0, 67, 13
1, 350111, Control_c, 0, 67, 14
1, 350120, Note_on_c, 0, 45, 64
1, 350125, Note_on_c, 0, 33, 60
1, 350125, Note_on_c, 0, 72, 74
1, 350141, Control_c, 0, 67, 14
1, 350143, Note_off_c, 0, 45, 65
1, 350153, Note_off_c, 0, 33, 63
1, 350155, Control_c, 0, 67, 15
1, 350170, Control_c, 0, 67, 15
1, 350185, Control_c, 0, 67, 16
1, 350215, Control_c, 0, 67, 16
1, 350229, Control_c, 0, 67, 18
1, 350234, Note_on_c, 0, 45, 62
1, 350234, Note_on_c, 0, 64, 59
1, 350239, Note_on_c, 0, 69, 57
1, 350240, Note_on_c, 0, 60, 56
1, 350244, Control_c, 0, 67, 21
1, 350259, Control_c, 0, 67, 26
1, 350261, Note_off_c, 0, 60, 59
1, 350263, Note_off_c, 0, 45, 66
1, 350264, Note_off_c, 0, 64, 62
1, 350273, Control_c, 0, 67, 35
1, 350285, Note_off_c, 0, 69, 62
1, 350288, Control_c, 0, 67, 45
1, 350303, Control_c, 0, 67, 53
1, 350318, Control_c, 0, 67, 60
1, 350333, Control_c, 0, 67, 62
1, 350348, Note_on_c, 0, 45, 68
1, 350361, Note_on_c, 0, 35, 57
1, 350362, Control_c, 0, 67, 62
1, 350375, Note_off_c, 0, 45, 66
1, 350377, Control_c, 0, 67, 61
1, 350389, Note_off_c, 0, 35, 59
1, 350407, Control_c, 0, 67, 61
1, 350421, Control_c, 0, 67, 60
1, 350436, Control_c, 0, 67, 60
1, 350451, Control_c, 0, 67, 59
1, 350458, Note_on_c, 0, 69, 58
1, 350460, Note_on_c, 0, 45, 64
1, 350461, Note_on_c, 0, 65, 54
1, 350461, Note_on_c, 0, 62, 52
1, 350481, Control_c, 0, 67, 59
1, 350485, Note_off_c, 0, 62, 58
1, 350487, Note_off_c, 0, 45, 66
1, 350488, Note_off_c, 0, 65, 62
1, 350495, Control_c, 0, 67, 58
1, 350504, Note_off_c, 0, 69, 59
1, 350525, Control_c, 0, 67, 58
1, 350580, Note_on_c, 0, 45, 63
1, 350589, Note_on_c, 0, 36, 56
1, 350599, Control_c, 0, 67, 57
1, 350610, Note_off_c, 0, 45, 66
1, 350620, Note_off_c, 0, 36, 64
1, 350665, Note_on_c, 0, 69, 53
1, 350678, Note_on_c, 0, 45, 73
1, 350679, Note_on_c, 0, 64, 46
1, 350688, Control_c, 0, 67, 57
1, 350700, Note_off_c, 0, 45, 68
1, 350705, Note_off_c, 0, 64, 58
1, 350710, Note_on_c, 0, 65, 4
1, 350715, Note_off_c, 0, 69, 55
1, 350717, Control_c, 0, 67, 57
1, 350732, Control_c, 0, 67, 58
1, 350739, Note_off_c, 0, 65, 43
1, 350799, Note_on_c, 0, 45, 90
1, 350799, Control_c, 0, 67, 57
1, 350807, Note_on_c, 0, 38, 91
1, 350830, Control_c, 0, 64, 68
1, 350830, Control_c, 0, 67, 56
1, 350840, Note_off_c, 0, 45, 66
1, 350845, Control_c, 0, 64, 84
1, 350859, Control_c, 0, 64, 103
1, 350859, Control_c, 0, 67, 57
1, 350872, Note_off_c, 0, 38, 59
1, 350874, Control_c, 0, 64, 115
1, 350874, Control_c, 0, 67, 56
1, 350904, Control_c, 0, 67, 56
1, 350919, Note_on_c, 0, 62, 61
1, 350919, Note_on_c, 0, 66, 64
1, 350923, Note_on_c, 0, 69, 53
1, 350927, Note_on_c, 0, 45, 77
1, 350942, Note_off_c, 0, 62, 64
1, 350948, Control_c, 0, 67, 57
1, 350951, Note_off_c, 0, 45, 68
1, 350953, Note_off_c, 0, 66, 64
1, 350963, Control_c, 0, 67, 57
1, 350965, Note_off_c, 0, 69, 62
1, 350977, Control_c, 0, 67, 58
1, 350992, Control_c, 0, 64, 112
1, 350992, Control_c, 0, 67, 59
1, 351007, Control_c, 0, 64, 102
1, 351007, Control_c, 0, 67, 61
1, 351022, Control_c, 0, 64, 88
1, 351022, Control_c, 0, 67, 64
1, 351037, Control_c, 0, 64, 69
1, 351037, Control_c, 0, 67, 69
1, 351043, Note_on_c, 0, 45, 59
1, 351051, Control_c, 0, 64, 0
1, 351051, Control_c, 0, 67, 84
1, 351060, Note_on_c, 0, 33, 60
1, 351066, Control_c, 0, 67, 106
1, 351068, Note_off_c, 0, 45, 68
1, 351081, Control_c, 0, 67, 127
1, 351089, Note_off_c, 0, 33, 65
1, 351159, Note_on_c, 0, 69, 58
1, 351161, Note_on_c, 0, 45, 51
1, 351164, Note_on_c, 0, 64, 56
1, 351165, Note_on_c, 0, 60, 54
1, 351185, Note_off_c, 0, 60, 60
1, 351188, Note_off_c, 0, 45, 66
1, 351194, Note_off_c, 0, 64, 60
1, 351229, Note_off_c, 0, 69, 59
1, 351280, Note_on_c, 0, 45, 65
1, 351293, Note_on_c, 0, 35, 54
1, 351308, Note_off_c, 0, 45, 66
1, 351319, Note_off_c, 0, 35, 57
1, 351391, Note_on_c, 0, 45, 62
1, 351393, Note_on_c, 0, 69, 54
1, 351397, Note_on_c, 0, 62, 56
1, 351399, Note_on_c, 0, 65, 53
1, 351419, Note_off_c, 0, 45, 65
1, 351420, Note_off_c, 0, 62, 59
1, 351422, Note_off_c, 0, 65, 62
1, 351434, Note_off_c, 0, 69, 63
1, 351516, Note_on_c, 0, 45, 59
1, 351525, Note_on_c, 0, 36, 56
1, 351548, Note_off_c, 0, 45, 65
1, 351555, Note_off_c, 0, 36, 63
1, 351615, Note_on_c, 0, 64, 55
1, 351616, Note_on_c, 0, 69, 50
1, 351621, Note_on_c, 0, 45, 68
1, 351638, Note_off_c, 0, 64, 62
1, 351647, Note_off_c, 0, 45, 67
1, 351680, Note_off_c, 0, 69, 51
1, 351740, Note_on_c, 0, 45, 85
1, 351745, Note_on_c, 0, 38, 79
1, 351756, Control_c, 0, 64, 63
1, 351771, Control_c, 0, 64, 77
1, 351786, Control_c, 0, 64, 92
1, 351800, Control_c, 0, 64, 103
1, 351813, Note_off_c, 0, 45, 58
1, 351815, Control_c, 0, 64, 105
1, 351822, Note_off_c, 0, 72, 54
1, 351828, Note_on_c, 0, 69, 58
1, 351839, Note_on_c, 0, 62, 59
1, 351839, Note_on_c, 0, 66, 60
1, 351840, Note_off_c, 0, 38, 58
1, 351853, Note_off_c, 0, 69, 67
1, 351860, Note_off_c, 0, 66, 67
1, 351861, Note_off_c, 0, 62, 61
1, 351948, Control_c, 0, 64, 102
1, 351963, Control_c, 0, 64, 94
1, 351978, Note_on_c, 0, 45, 73
1, 351978, Control_c, 0, 64, 80
1, 351993, Control_c, 0, 64, 56
1, 352005, Note_off_c, 0, 45, 66
1, 352008, Control_c, 0, 64, 0
1, 352083, Note_on_c, 0, 45, 55
1, 352096, Note_on_c, 0, 52, 42
1, 352112, Note_on_c, 0, 48, 26
1, 352116, Note_off_c, 0, 45, 61
1, 352131, Note_off_c, 0, 52, 51
1, 352142, Note_on_c, 0, 40, 56
1, 352156, Note_off_c, 0, 48, 49
1, 352169, Note_on_c, 0, 42, 55
1, 352178, Note_on_c, 0, 44, 68
1, 352184, Note_on_c, 0, 45, 85
1, 352198, Note_off_c, 0, 40, 63
1, 352205, Note_off_c, 0, 44, 64
1, 352214, Note_off_c, 0, 42, 65
1, 352226, Note_off_c, 0, 45, 66
1, 352308, Note_on_c, 0, 44, 59
1, 352309, Note_on_c, 0, 52, 57
1, 352330, Note_on_c, 0, 48, 30
1, 352350, Note_off_c, 0, 44, 64
1, 352362, Note_off_c, 0, 52, 56
1, 352373, Note_off_c, 0, 48, 50
1, 352437, Note_on_c, 0, 33, 72
1, 352462, Note_off_c, 0, 33, 66
1, 352562, Note_on_c, 0, 48, 47
1, 352563, Note_on_c, 0, 45, 43
1, 352575, Note_on_c, 0, 52, 19
1, 352594, Note_off_c, 0, 45, 54
1, 352599, Note_off_c, 0, 48, 62
1, 352615, Note_off_c, 0, 52, 47
1, 352655, Note_on_c, 0, 40, 68
1, 352685, Note_off_c, 0, 40, 65
1, 352758, Note_on_c, 0, 44, 49
1, 352762, Note_on_c, 0, 46, 69
1, 352786, Note_off_c, 0, 44, 57
1, 352790, Note_off_c, 0, 46, 64
1, 352792, Note_on_c, 0, 52, 13
1, 352835, Note_off_c, 0, 52, 37
1, 352875, Note_on_c, 0, 47, 74
1, 352902, Note_off_c, 0, 47, 66
1, 352978, Note_on_c, 0, 52, 45
1, 352997, Note_on_c, 0, 43, 51
1, 353014, Note_on_c, 0, 48, 25
1, 353037, Note_off_c, 0, 52, 57
1, 353045, Note_off_c, 0, 43, 54
1, 353057, Note_off_c, 0, 48, 49
1, 353117, Note_on_c, 0, 46, 72
1, 353146, Note_off_c, 0, 46, 63
1, 353222, Note_on_c, 0, 43, 54
1, 353230, Note_on_c, 0, 52, 44
1, 353232, Note_on_c, 0, 48, 39
1, 353273, Note_off_c, 0, 43, 55
1, 353279, Note_off_c, 0, 48, 47
1, 353288, Note_off_c, 0, 52, 55
1, 353347, Note_on_c, 0, 57, 83
1, 353367, Note_off_c, 0, 57, 69
1, 353460, Note_on_c, 0, 52, 51
1, 353474, Note_on_c, 0, 45, 38
1, 353477, Note_on_c, 0, 49, 38
1, 353502, Note_off_c, 0, 52, 63
1, 353505, Note_off_c, 0, 45, 53
1, 353509, Note_off_c, 0, 49, 55
1, 353580, Note_on_c, 0, 45, 70
1, 353602, Note_off_c, 0, 45, 65
1, 353692, Note_on_c, 0, 45, 45
1, 353699, Note_on_c, 0, 52, 44
1, 353700, Note_on_c, 0, 49, 44
1, 353724, Note_off_c, 0, 45, 58
1, 353733, Note_off_c, 0, 52, 56
1, 353743, Note_off_c, 0, 49, 58
1, 353813, Note_on_c, 0, 45, 57
1, 353837, Note_off_c, 0, 45, 60
1, 353917, Note_on_c, 0, 45, 47
1, 353926, Note_on_c, 0, 52, 33
1, 353937, Note_on_c, 0, 48, 32
1, 353946, Note_off_c, 0, 45, 58
1, 353973, Note_on_c, 0, 40, 57
1, 353981, Note_off_c, 0, 48, 48
1, 353988, Note_on_c, 0, 42, 60
1, 353992, Note_off_c, 0, 52, 41
1, 354005, Note_on_c, 0, 44, 59
1, 354011, Note_on_c, 0, 45, 81
1, 354018, Note_off_c, 0, 40, 63
1, 354032, Note_off_c, 0, 42, 65
1, 354036, Note_off_c, 0, 44, 65
1, 354042, Note_off_c, 0, 45, 68
1, 354116, Note_on_c, 0, 52, 50
1, 354122, Note_on_c, 0, 44, 54
1, 354148, Note_on_c, 0, 48, 14
1, 354160, Note_off_c, 0, 52, 59
1, 354164, Note_off_c, 0, 44, 61
1, 354197, Note_off_c, 0, 48, 51
1, 354247, Note_on_c, 0, 33, 66
1, 354276, Note_off_c, 0, 33, 66
1, 354356, Note_on_c, 0, 45, 51
1, 354363, Note_on_c, 0, 48, 45
1, 354363, Note_on_c, 0, 52, 35
1, 354393, Note_off_c, 0, 45, 60
1, 354398, Note_off_c, 0, 52, 52
1, 354403, Note_off_c, 0, 48, 58
1, 354464, Note_on_c, 0, 40, 66
1, 354504, Note_off_c, 0, 40, 64
1, 354568, Note_on_c, 0, 44, 52
1, 354572, Note_on_c, 0, 46, 68
1, 354595, Note_on_c, 0, 52, 22
1, 354596, Note_off_c, 0, 44, 60
1, 354597, Note_off_c, 0, 46, 65
1, 354628, Note_off_c, 0, 52, 45
1, 354684, Note_on_c, 0, 47, 75
1, 354713, Note_off_c, 0, 47, 66
1, 354797, Note_on_c, 0, 52, 34
1, 354807, Note_on_c, 0, 48, 44
1, 354809, Note_on_c, 0, 43, 44
1, 354846, Note_off_c, 0, 43, 53
1, 354849, Note_off_c, 0, 48, 58
1, 354851, Note_off_c, 0, 52, 48
1, 354917, Note_on_c, 0, 46, 72
1, 354943, Note_off_c, 0, 46, 65
1, 355022, Note_on_c, 0, 52, 48
1, 355025, Note_on_c, 0, 48, 44
1, 355029, Note_on_c, 0, 43, 40
1, 355053, Note_off_c, 0, 48, 61
1, 355066, Note_off_c, 0, 43, 51
1, 355069, Note_off_c, 0, 52, 59
1, 355141, Note_on_c, 0, 45, 71
1, 355167, Note_off_c, 0, 45, 67
1, 355249, Note_on_c, 0, 45, 47
1, 355258, Note_on_c, 0, 52, 42
1, 355269, Note_on_c, 0, 49, 37
1, 355278, Note_off_c, 0, 45, 57
1, 355287, Note_off_c, 0, 52, 57
1, 355299, Note_off_c, 0, 49, 47
1, 355406, Note_on_c, 0, 57, 73
1, 355425, Control_c, 0, 67, 122
1, 355426, Note_off_c, 0, 57, 65
1, 355440, Control_c, 0, 67, 98
1, 355455, Control_c, 0, 67, 65
1, 355469, Control_c, 0, 67, 26
1, 355484, Control_c, 0, 67, 0
1, 355624, Note_on_c, 0, 75, 63
1, 355657, Note_on_c, 0, 77, 73
1, 355657, Note_off_c, 0, 75, 64
1, 355690, Note_on_c, 0, 78, 68
1, 355692, Note_on_c, 0, 72, 76
1, 355703, Note_on_c, 0, 68, 56
1, 355707, Note_off_c, 0, 72, 70
1, 355709, Note_off_c, 0, 78, 43
1, 355710, Note_off_c, 0, 77, 64
1, 355724, Note_off_c, 0, 68, 61
1, 355851, Note_on_c, 0, 79, 74
1, 355898, Note_on_c, 0, 78, 71
1, 355907, Note_off_c, 0, 79, 57
1, 355919, Note_on_c, 0, 77, 84
1, 355924, Note_on_c, 0, 68, 78
1, 355934, Note_on_c, 0, 63, 68
1, 355935, Note_off_c, 0, 78, 64
1, 355948, Note_off_c, 0, 68, 70
1, 355952, Note_off_c, 0, 77, 61
1, 355958, Note_off_c, 0, 63, 68
1, 356089, Note_on_c, 0, 78, 67
1, 356133, Note_on_c, 0, 77, 70
1, 356155, Note_off_c, 0, 78, 58
1, 356159, Note_on_c, 0, 75, 88
1, 356164, Note_on_c, 0, 63, 76
1, 356169, Note_on_c, 0, 60, 71
1, 356174, Note_off_c, 0, 77, 64
1, 356187, Note_off_c, 0, 63, 69
1, 356194, Note_off_c, 0, 75, 66
1, 356197, Note_off_c, 0, 60, 65
1, 356315, Note_on_c, 0, 77, 71
1, 356359, Note_on_c, 0, 75, 80
1, 356369, Note_off_c, 0, 77, 58
1, 356381, Note_on_c, 0, 60, 76
1, 356384, Note_on_c, 0, 56, 77
1, 356386, Note_on_c, 0, 73, 79
1, 356400, Note_off_c, 0, 75, 67
1, 356404, Note_off_c, 0, 60, 68
1, 356412, Note_off_c, 0, 73, 65
1, 356416, Note_off_c, 0, 56, 67
1, 356553, Note_on_c, 0, 75, 60
1, 356581, Note_on_c, 0, 73, 70
1, 356586, Note_off_c, 0, 75, 67
1, 356611, Note_on_c, 0, 56, 83
1, 356612, Note_on_c, 0, 53, 82
1, 356616, Note_on_c, 0, 72, 76
1, 356624, Note_off_c, 0, 73, 64
1, 356634, Note_off_c, 0, 56, 67
1, 356640, Note_off_c, 0, 72, 68
1, 356646, Note_off_c, 0, 53, 67
1, 356744, Note_on_c, 0, 75, 66
1, 356783, Note_on_c, 0, 72, 66
1, 356798, Note_off_c, 0, 75, 62
1, 356825, Note_on_c, 0, 66, 80
1, 356832, Note_on_c, 0, 51, 74
1, 356834, Note_on_c, 0, 56, 74
1, 356839, Note_off_c, 0, 72, 64
1, 356854, Note_off_c, 0, 56, 66
1, 356867, Note_off_c, 0, 66, 65
1, 356868, Note_off_c, 0, 51, 65
1, 356939, Note_on_c, 0, 67, 78
1, 356981, Note_off_c, 0, 67, 62
1, 357064, Note_on_c, 0, 56, 79
1, 357064, Note_on_c, 0, 72, 89
1, 357067, Note_on_c, 0, 77, 94
1, 357069, Note_on_c, 0, 60, 101
1, 357070, Note_on_c, 0, 68, 96
1, 357070, Control_c, 0, 64, 63
1, 357073, Note_on_c, 0, 50, 81
1, 357085, Control_c, 0, 64, 98
1, 357100, Control_c, 0, 64, 127
1, 357110, Note_on_c, 0, 74, 37
1, 357114, Note_off_c, 0, 50, 60
1, 357125, Note_off_c, 0, 56, 64
1, 357141, Note_off_c, 0, 74, 52
1, 357157, Note_off_c, 0, 68, 62
1, 357168, Note_off_c, 0, 60, 52
1, 357192, Note_off_c, 0, 77, 41
1, 357225, Note_off_c, 0, 72, 54
1, 357293, Control_c, 0, 64, 109
1, 357308, Control_c, 0, 64, 85
1, 357310, Note_on_c, 0, 63, 79
1, 357314, Note_on_c, 0, 60, 72
1, 357320, Note_on_c, 0, 67, 77
1, 357320, Note_on_c, 0, 55, 60
1, 357323, Control_c, 0, 64, 62
1, 357333, Note_off_c, 0, 63, 70
1, 357338, Note_off_c, 0, 60, 64
1, 357338, Control_c, 0, 64, 0
1, 357341, Note_off_c, 0, 67, 70
1, 357350, Note_off_c, 0, 55, 66
1, 357415, Note_on_c, 0, 66, 79
1, 357452, Note_off_c, 0, 66, 65
1, 357551, Note_on_c, 0, 72, 91
1, 357553, Note_on_c, 0, 56, 85
1, 357553, Note_on_c, 0, 60, 101
1, 357553, Control_c, 0, 64, 57
1, 357553, Note_on_c, 0, 77, 93
1, 357556, Note_on_c, 0, 68, 97
1, 357557, Note_on_c, 0, 50, 84
1, 357567, Control_c, 0, 64, 85
1, 357582, Control_c, 0, 64, 127
1, 357591, Note_on_c, 0, 74, 40
1, 357597, Note_off_c, 0, 50, 63
1, 357611, Note_off_c, 0, 56, 64
1, 357618, Note_off_c, 0, 74, 55
1, 357636, Note_off_c, 0, 68, 61
1, 357643, Note_off_c, 0, 77, 54
1, 357668, Note_off_c, 0, 60, 45
1, 357687, Note_off_c, 0, 72, 40
1, 357803, Note_on_c, 0, 55, 66
1, 357805, Note_on_c, 0, 63, 81
1, 357805, Control_c, 0, 64, 112
1, 357806, Note_on_c, 0, 67, 82
1, 357806, Note_on_c, 0, 60, 74
1, 357819, Control_c, 0, 64, 87
1, 357826, Note_off_c, 0, 60, 69
1, 357833, Note_off_c, 0, 55, 66
1, 357834, Control_c, 0, 64, 65
1, 357839, Note_off_c, 0, 63, 63
1, 357849, Control_c, 0, 64, 0
1, 357869, Note_off_c, 0, 67, 56
1, 357871, Note_on_c, 0, 66, 78
1, 357893, Note_off_c, 0, 66, 72
1, 358028, Control_c, 0, 64, 66
1, 358033, Note_on_c, 0, 86, 107
1, 358035, Note_on_c, 0, 74, 94
1, 358042, Control_c, 0, 64, 85
1, 358057, Control_c, 0, 64, 127
1, 358085, Note_off_c, 0, 74, 67
1, 358086, Note_off_c, 0, 86, 63
1, 358139, Note_on_c, 0, 84, 82
1, 358144, Note_on_c, 0, 72, 79
1, 358163, Note_off_c, 0, 72, 72
1, 358177, Note_off_c, 0, 84, 61
1, 358242, Control_c, 0, 64, 105
1, 358257, Control_c, 0, 64, 81
1, 358268, Note_on_c, 0, 72, 71
1, 358272, Control_c, 0, 64, 53
1, 358276, Note_on_c, 0, 60, 75
1, 358287, Control_c, 0, 64, 0
1, 358296, Note_off_c, 0, 72, 67
1, 358300, Note_off_c, 0, 60, 69
1, 358426, Note_on_c, 0, 75, 65
1, 358453, Note_off_c, 0, 75, 68
1, 358462, Note_on_c, 0, 77, 70
1, 358486, Note_on_c, 0, 78, 80
1, 358495, Note_off_c, 0, 77, 63
1, 358503, Note_on_c, 0, 72, 73
1, 358510, Note_on_c, 0, 68, 64
1, 358512, Note_off_c, 0, 78, 65
1, 358528, Note_off_c, 0, 72, 68
1, 358545, Note_off_c, 0, 68, 62
1, 358656, Note_on_c, 0, 79, 70
1, 358687, Note_on_c, 0, 78, 77
1, 358694, Note_off_c, 0, 79, 61
1, 358718, Note_on_c, 0, 77, 79
1, 358718, Note_on_c, 0, 63, 72
1, 358722, Note_on_c, 0, 68, 63
1, 358731, Note_off_c, 0, 78, 63
1, 358739, Note_off_c, 0, 68, 65
1, 358743, Note_off_c, 0, 77, 62
1, 358745, Note_off_c, 0, 63, 69
1, 358864, Note_on_c, 0, 78, 70
1, 358906, Note_on_c, 0, 77, 73
1, 358910, Note_off_c, 0, 78, 63
1, 358932, Note_on_c, 0, 75, 85
1, 358936, Note_on_c, 0, 63, 74
1, 358939, Note_on_c, 0, 60, 74
1, 358948, Note_off_c, 0, 77, 62
1, 358961, Note_off_c, 0, 63, 68
1, 358966, Note_off_c, 0, 75, 67
1, 358968, Note_off_c, 0, 60, 63
1, 359091, Note_on_c, 0, 77, 71
1, 359135, Note_on_c, 0, 75, 76
1, 359137, Note_off_c, 0, 77, 62
1, 359159, Note_on_c, 0, 73, 81
1, 359165, Note_on_c, 0, 60, 75
1, 359170, Note_on_c, 0, 56, 72
1, 359171, Note_off_c, 0, 75, 67
1, 359188, Note_off_c, 0, 60, 67
1, 359192, Note_off_c, 0, 73, 65
1, 359201, Note_off_c, 0, 56, 67
1, 359309, Note_on_c, 0, 75, 66
1, 359344, Note_on_c, 0, 73, 65
1, 359348, Note_off_c, 0, 75, 65
1, 359376, Note_on_c, 0, 72, 78
1, 359377, Note_on_c, 0, 56, 79
1, 359381, Note_off_c, 0, 73, 65
1, 359383, Note_on_c, 0, 53, 75
1, 359401, Note_off_c, 0, 72, 66
1, 359403, Note_off_c, 0, 56, 66
1, 359421, Note_off_c, 0, 53, 65
1, 359490, Note_on_c, 0, 75, 67
1, 359526, Note_on_c, 0, 72, 66
1, 359549, Note_off_c, 0, 75, 64
1, 359578, Note_on_c, 0, 51, 72
1, 359578, Note_on_c, 0, 66, 80
1, 359580, Note_on_c, 0, 56, 71
1, 359586, Note_off_c, 0, 72, 61
1, 359607, Note_off_c, 0, 56, 66
1, 359610, Note_off_c, 0, 51, 66
1, 359618, Note_off_c, 0, 66, 66
1, 359688, Note_on_c, 0, 67, 84
1, 359739, Note_off_c, 0, 67, 62
1, 359822, Note_on_c, 0, 56, 77
1, 359823, Note_on_c, 0, 72, 81
1, 359824, Note_on_c, 0, 77, 94
1, 359827, Note_on_c, 0, 60, 96
1, 359829, Note_on_c, 0, 68, 91
1, 359830, Note_on_c, 0, 50, 80
1, 359830, Control_c, 0, 64, 69
1, 359845, Control_c, 0, 64, 110
1, 359858, Note_off_c, 0, 50, 66
1, 359860, Control_c, 0, 64, 127
1, 359876, Note_off_c, 0, 56, 65
1, 359911, Poly_aftertouch_c, 0, 74, 127
1, 359915, Note_off_c, 0, 68, 61
1, 359916, Note_off_c, 0, 60, 53
1, 359964, Note_off_c, 0, 77, 33
1, 359973, Poly_aftertouch_c, 0, 74, 0
1, 360003, Note_off_c, 0, 72, 55
1, 360061, Note_on_c, 0, 60, 70
1, 360065, Note_on_c, 0, 63, 75
1, 360067, Control_c, 0, 64, 104
1, 360075, Note_on_c, 0, 67, 77
1, 360076, Note_on_c, 0, 55, 56
1, 360082, Control_c, 0, 64, 82
1, 360083, Note_off_c, 0, 60, 69
1, 360089, Note_off_c, 0, 63, 68
1, 360096, Note_off_c, 0, 67, 70
1, 360096, Control_c, 0, 64, 53
1, 360102, Note_off_c, 0, 55, 66
1, 360111, Poly_aftertouch_c, 0, 74, 0
1, 360111, Control_c, 0, 64, 0
1, 360169, Note_on_c, 0, 66, 81
1, 360200, Note_off_c, 0, 66, 62
1, 360304, Note_on_c, 0, 77, 93
1, 360304, Note_on_c, 0, 56, 87
1, 360304, Note_on_c, 0, 60, 105
1, 360307, Note_on_c, 0, 72, 87
1, 360308, Note_on_c, 0, 50, 76
1, 360309, Note_on_c, 0, 68, 92
1, 360319, Control_c, 0, 64, 73
1, 360333, Control_c, 0, 64, 100
1, 360345, Note_off_c, 0, 50, 61
1, 360347, Note_on_c, 0, 74, 37
1, 360348, Control_c, 0, 64, 127
1, 360362, Note_off_c, 0, 56, 64
1, 360377, Note_off_c, 0, 74, 53
1, 360400, Note_off_c, 0, 77, 55
1, 360401, Note_off_c, 0, 60, 56
1, 360408, Note_off_c, 0, 68, 54
1, 360469, Note_off_c, 0, 72, 56
1, 360545, Note_on_c, 0, 63, 76
1, 360546, Note_on_c, 0, 60, 69
1, 360552, Note_on_c, 0, 67, 83
1, 360555, Note_on_c, 0, 55, 64
1, 360565, Note_off_c, 0, 60, 71
1, 360568, Note_off_c, 0, 63, 69
1, 360578, Note_off_c, 0, 67, 64
1, 360578, Control_c, 0, 64, 99
1, 360593, Note_off_c, 0, 55, 66
1, 360593, Control_c, 0, 64, 78
1, 360608, Control_c, 0, 64, 0
1, 360646, Note_on_c, 0, 66, 78
1, 360695, Note_off_c, 0, 66, 63
1, 360771, Note_on_c, 0, 75, 77
1, 360778, Note_on_c, 0, 54, 81
1, 360800, Control_c, 0, 64, 64
1, 360815, Control_c, 0, 64, 79
1, 360829, Note_off_c, 0, 75, 65
1, 360830, Control_c, 0, 64, 108
1, 360844, Control_c, 0, 64, 127
1, 360849, Note_off_c, 0, 54, 61
1, 360851, Note_on_c, 0, 71, 75
1, 360862, Note_on_c, 0, 51, 47
1, 360876, Note_off_c, 0, 71, 68
1, 360878, Note_on_c, 0, 52, 52
1, 360892, Note_off_c, 0, 51, 52
1, 360903, Note_off_c, 0, 52, 61
1, 361016, Note_on_c, 0, 51, 81
1, 361019, Note_on_c, 0, 35, 87
1, 361052, Note_on_c, 0, 61, 43
1, 361078, Note_off_c, 0, 61, 59
1, 361111, Note_off_c, 0, 35, 61
1, 361122, Note_off_c, 0, 51, 60
1, 361141, Note_on_c, 0, 34, 63
1, 361182, Note_on_c, 0, 35, 69
1, 361201, Note_on_c, 0, 37, 76
1, 361243, Note_on_c, 0, 38, 92
1, 361245, Note_off_c, 0, 34, 59
1, 361251, Note_off_c, 0, 35, 64
1, 361253, Control_c, 0, 64, 116
1, 361267, Control_c, 0, 64, 93
1, 361273, Note_off_c, 0, 37, 66
1, 361282, Control_c, 0, 64, 73
1, 361290, Note_off_c, 0, 38, 64
1, 361297, Control_c, 0, 64, 0
1, 361326, Control_c, 0, 67, 9
1, 361341, Control_c, 0, 67, 21
1, 361356, Control_c, 0, 67, 37
1, 361368, Note_on_c, 0, 65, 68
1, 361370, Note_on_c, 0, 54, 64
1, 361371, Note_on_c, 0, 36, 44
1, 361371, Control_c, 0, 67, 58
1, 361386, Control_c, 0, 67, 80
1, 361401, Control_c, 0, 67, 98
1, 361404, Note_off_c, 0, 54, 61
1, 361405, Note_off_c, 0, 36, 52
1, 361413, Note_off_c, 0, 65, 58
1, 361416, Control_c, 0, 67, 111
1, 361431, Control_c, 0, 67, 122
1, 361446, Control_c, 0, 67, 127
1, 361487, Note_on_c, 0, 50, 76
1, 361514, Note_off_c, 0, 50, 67
1, 361580, Note_on_c, 0, 59, 69
1, 361580, Note_on_c, 0, 62, 66
1, 361584, Note_on_c, 0, 49, 69
1, 361609, Note_off_c, 0, 59, 64
1, 361610, Note_off_c, 0, 49, 65
1, 361612, Note_off_c, 0, 62, 61
1, 361712, Note_on_c, 0, 38, 65
1, 361741, Note_off_c, 0, 38, 63
1, 361804, Note_on_c, 0, 37, 65
1, 361807, Note_on_c, 0, 65, 73
1, 361810, Note_on_c, 0, 54, 74
1, 361835, Note_off_c, 0, 37, 65
1, 361841, Note_off_c, 0, 54, 64
1, 361851, Note_off_c, 0, 65, 61
1, 361933, Note_on_c, 0, 49, 79
1, 361961, Note_off_c, 0, 49, 65
1, 362030, Note_on_c, 0, 50, 78
1, 362054, Note_on_c, 0, 59, 60
1, 362054, Note_on_c, 0, 62, 62
1, 362060, Note_off_c, 0, 50, 66
1, 362081, Note_off_c, 0, 59, 64
1, 362084, Note_off_c, 0, 62, 64
1, 362155, Note_on_c, 0, 38, 76
1, 362188, Note_off_c, 0, 38, 62
1, 362256, Note_on_c, 0, 67, 75
1, 362260, Note_on_c, 0, 56, 69
1, 362262, Note_on_c, 0, 37, 59
1, 362280, Note_off_c, 0, 67, 69
1, 362286, Note_off_c, 0, 56, 66
1, 362290, Note_off_c, 0, 37, 66
1, 362362, Note_on_c, 0, 38, 64
1, 362368, Note_on_c, 0, 65, 76
1, 362370, Note_on_c, 0, 54, 74
1, 362391, Note_off_c, 0, 65, 71
1, 362392, Note_off_c, 0, 38, 64
1, 362395, Note_off_c, 0, 54, 65
1, 362477, Note_on_c, 0, 64, 69
1, 362479, Note_on_c, 0, 53, 66
1, 362503, Note_off_c, 0, 64, 67
1, 362508, Note_off_c, 0, 53, 68
1, 362583, Note_on_c, 0, 64, 69
1, 362587, Note_on_c, 0, 38, 62
1, 362589, Note_on_c, 0, 53, 74
1, 362610, Note_off_c, 0, 64, 68
1, 362614, Note_off_c, 0, 53, 69
1, 362618, Note_off_c, 0, 38, 63
1, 362679, Note_on_c, 0, 37, 66
1, 362681, Note_on_c, 0, 65, 82
1, 362688, Note_on_c, 0, 54, 63
1, 362707, Note_off_c, 0, 65, 66
1, 362710, Note_off_c, 0, 54, 58
1, 362712, Note_off_c, 0, 37, 64
1, 362816, Note_on_c, 0, 47, 82
1, 362824, Note_on_c, 0, 71, 91
1, 362825, Note_on_c, 0, 74, 84
1, 362825, Control_c, 0, 64, 59
1, 362838, Note_on_c, 0, 72, 62
1, 362839, Control_c, 0, 64, 82
1, 362854, Note_off_c, 0, 47, 63
1, 362854, Control_c, 0, 64, 104
1, 362858, Note_off_c, 0, 72, 40
1, 362869, Control_c, 0, 64, 127
1, 362876, Note_off_c, 0, 74, 65
1, 362883, Note_off_c, 0, 71, 57
1, 362924, Note_on_c, 0, 38, 74
1, 362960, Note_off_c, 0, 38, 63
1, 363037, Note_on_c, 0, 38, 74
1, 363071, Note_off_c, 0, 38, 63
1, 363106, Control_c, 0, 64, 115
1, 363121, Control_c, 0, 64, 98
1, 363136, Control_c, 0, 64, 83
1, 363143, Note_on_c, 0, 67, 82
1, 363148, Note_on_c, 0, 56, 80
1, 363151, Control_c, 0, 64, 66
1, 363166, Note_off_c, 0, 67, 67
1, 363166, Control_c, 0, 64, 0
1, 363172, Note_off_c, 0, 56, 67
1, 363258, Note_on_c, 0, 65, 81
1, 363259, Note_on_c, 0, 38, 65
1, 363260, Note_on_c, 0, 54, 77
1, 363281, Note_off_c, 0, 65, 69
1, 363287, Note_off_c, 0, 38, 64
1, 363288, Note_off_c, 0, 54, 66
1, 363359, Note_on_c, 0, 37, 66
1, 363369, Note_on_c, 0, 64, 80
1, 363371, Note_on_c, 0, 53, 79
1, 363394, Note_off_c, 0, 37, 64
1, 363395, Note_off_c, 0, 53, 70
1, 363398, Note_off_c, 0, 64, 64
1, 363483, Note_on_c, 0, 38, 70
1, 363491, Note_on_c, 0, 53, 75
1, 363491, Note_on_c, 0, 64, 80
1, 363515, Note_off_c, 0, 53, 70
1, 363515, Note_off_c, 0, 64, 69
1, 363523, Note_off_c, 0, 38, 61
1, 363576, Note_on_c, 0, 54, 77
1, 363577, Note_on_c, 0, 37, 71
1, 363581, Note_on_c, 0, 65, 82
1, 363597, Note_off_c, 0, 54, 67
1, 363614, Note_off_c, 0, 65, 61
1, 363616, Note_off_c, 0, 37, 66
1, 363678, Control_c, 0, 67, 101
1, 363693, Control_c, 0, 67, 47
1, 363707, Control_c, 0, 64, 48
1, 363707, Control_c, 0, 67, 0
1, 363711, Note_on_c, 0, 47, 81
1, 363711, Note_on_c, 0, 74, 96
1, 363714, Note_on_c, 0, 71, 100
1, 363722, Control_c, 0, 64, 76
1, 363737, Control_c, 0, 64, 95
1, 363752, Control_c, 0, 64, 123
1, 363756, Note_off_c, 0, 47, 61
1, 363767, Control_c, 0, 64, 127
1, 363786, Note_off_c, 0, 74, 64
1, 363792, Note_off_c, 0, 71, 58
1, 363825, Note_on_c, 0, 38, 69
1, 363863, Note_off_c, 0, 38, 62
1, 363939, Note_on_c, 0, 38, 68
1, 363970, Note_off_c, 0, 38, 64
1, 363988, Control_c, 0, 64, 125
1, 364003, Control_c, 0, 64, 113
1, 364018, Control_c, 0, 64, 99
1, 364030, Note_on_c, 0, 37, 62
1, 364033, Control_c, 0, 64, 85
1, 364038, Note_on_c, 0, 67, 78
1, 364047, Note_on_c, 0, 56, 71
1, 364048, Control_c, 0, 64, 70
1, 364057, Note_off_c, 0, 37, 65
1, 364061, Note_off_c, 0, 67, 69
1, 364063, Control_c, 0, 64, 0
1, 364075, Note_off_c, 0, 56, 65
1, 364149, Note_on_c, 0, 50, 72
1, 364150, Note_on_c, 0, 65, 81
1, 364154, Note_on_c, 0, 54, 75
1, 364174, Note_off_c, 0, 65, 68
1, 364179, Note_off_c, 0, 50, 64
1, 364181, Note_off_c, 0, 54, 66
1, 364255, Note_on_c, 0, 49, 70
1, 364263, Note_on_c, 0, 64, 77
1, 364266, Note_on_c, 0, 53, 71
1, 364280, Note_off_c, 0, 49, 66
1, 364287, Note_off_c, 0, 64, 69
1, 364292, Note_off_c, 0, 53, 69
1, 364366, Note_on_c, 0, 38, 74
1, 364373, Note_on_c, 0, 64, 76
1, 364376, Note_on_c, 0, 53, 73
1, 364400, Note_off_c, 0, 38, 57
1, 364403, Note_off_c, 0, 64, 67
1, 364404, Note_off_c, 0, 53, 68
1, 364412, Control_c, 0, 64, 41
1, 364427, Control_c, 0, 64, 72
1, 364442, Control_c, 0, 64, 87
1, 364457, Control_c, 0, 64, 106
1, 364470, Note_on_c, 0, 65, 86
1, 364472, Control_c, 0, 64, 127
1, 364480, Note_on_c, 0, 44, 74
1, 364483, Note_on_c, 0, 54, 57
1, 364505, Note_off_c, 0, 54, 59
1, 364510, Note_off_c, 0, 65, 62
1, 364530, Note_off_c, 0, 44, 61
1, 364585, Note_on_c, 0, 49, 75
1, 364590, Note_on_c, 0, 68, 89
1, 364598, Note_on_c, 0, 64, 80
1, 364615, Note_off_c, 0, 68, 62
1, 364621, Note_off_c, 0, 64, 70
1, 364627, Note_off_c, 0, 49, 56
1, 364682, Note_on_c, 0, 53, 76
1, 364686, Note_on_c, 0, 65, 95
1, 364686, Note_on_c, 0, 69, 82
1, 364710, Note_off_c, 0, 65, 65
1, 364722, Note_off_c, 0, 53, 62
1, 364730, Note_off_c, 0, 69, 60
1, 364802, Note_on_c, 0, 50, 75
1, 364804, Note_on_c, 0, 65, 91
1, 364807, Note_on_c, 0, 76, 92
1, 364828, Note_off_c, 0, 65, 69
1, 364837, Note_off_c, 0, 50, 60
1, 364843, Note_off_c, 0, 76, 64
1, 364898, Note_on_c, 0, 66, 95
1, 364899, Note_on_c, 0, 77, 91
1, 364901, Note_on_c, 0, 56, 75
1, 364926, Note_off_c, 0, 66, 66
1, 364946, Note_off_c, 0, 77, 63
1, 364950, Note_off_c, 0, 56, 61
1, 365023, Note_on_c, 0, 61, 84
1, 365032, Note_on_c, 0, 76, 93
1, 365034, Note_on_c, 0, 80, 91
1, 365056, Note_off_c, 0, 80, 65
1, 365062, Note_off_c, 0, 76, 64
1, 365076, Note_off_c, 0, 61, 60
1, 365124, Note_on_c, 0, 77, 97
1, 365124, Note_on_c, 0, 81, 92
1, 365129, Note_on_c, 0, 65, 86
1, 365155, Note_off_c, 0, 77, 60
1, 365168, Note_off_c, 0, 81, 62
1, 365175, Note_off_c, 0, 65, 67
1, 365236, Control_c, 0, 64, 102
1, 365250, Control_c, 0, 64, 73
1, 365256, Note_on_c, 0, 64, 96
1, 365259, Note_on_c, 0, 81, 100
1, 365263, Note_on_c, 0, 85, 85
1, 365265, Control_c, 0, 64, 0
1, 365317, Note_off_c, 0, 64, 60
1, 365339, Control_c, 0, 64, 49
1, 365354, Control_c, 0, 64, 71
1, 365366, Note_on_c, 0, 61, 82
1, 365368, Control_c, 0, 64, 88
1, 365383, Control_c, 0, 64, 120
1, 365398, Control_c, 0, 64, 127
1, 365420, Note_off_c, 0, 61, 62
1, 365428, Note_off_c, 0, 85, 62
1, 365429, Note_off_c, 0, 81, 59
1, 365485, Note_on_c, 0, 64, 96
1, 365526, Note_off_c, 0, 64, 65
1, 365578, Note_on_c, 0, 57, 86
1, 365616, Note_off_c, 0, 57, 67
1, 365691, Note_on_c, 0, 64, 99
1, 365754, Note_off_c, 0, 64, 60
1, 365810, Note_on_c, 0, 52, 95
1, 365854, Note_off_c, 0, 52, 65
1, 365911, Note_on_c, 0, 63, 77
1, 365923, Note_on_c, 0, 64, 94
1, 365946, Note_off_c, 0, 63, 63
1, 365966, Note_off_c, 0, 64, 68
1, 366036, Note_on_c, 0, 45, 94
1, 366080, Note_off_c, 0, 45, 65
1, 366143, Note_on_c, 0, 52, 110
1, 366177, Note_off_c, 0, 52, 69
1, 366248, Note_on_c, 0, 40, 94
1, 366278, Note_off_c, 0, 40, 68
1, 366357, Note_on_c, 0, 49, 92
1, 366378, Note_on_c, 0, 37, 84
1, 366384, Note_off_c, 0, 49, 65
1, 366400, Control_c, 0, 64, 112
1, 366410, Note_off_c, 0, 37, 65
1, 366415, Control_c, 0, 64, 88
1, 366430, Control_c, 0, 64, 66
1, 366444, Control_c, 0, 64, 0
1, 366573, Note_on_c, 0, 93, 96
1, 366606, Note_on_c, 0, 45, 96
1, 366610, Note_on_c, 0, 33, 81
1, 366612, Note_on_c, 0, 81, 93
1, 366619, Note_on_c, 0, 89, 69
1, 366620, Note_off_c, 0, 89, 127
1, 366629, Control_c, 0, 64, 73
1, 366633, Note_off_c, 0, 33, 67
1, 366634, Note_off_c, 0, 45, 69
1, 366644, Note_on_c, 0, 35, 37
1, 366644, Control_c, 0, 64, 103
1, 366659, Control_c, 0, 64, 127
1, 366683, Note_off_c, 0, 35, 52
1, 366745, Note_on_c, 0, 57, 96
1, 366748, Note_off_c, 0, 81, 47
1, 366755, Note_on_c, 0, 45, 78
1, 366764, Note_off_c, 0, 93, 58
1, 366768, Note_on_c, 0, 55, 51
1, 366769, Note_off_c, 0, 55, 127
1, 366771, Note_off_c, 0, 57, 62
1, 366782, Note_off_c, 0, 45, 66
1, 366931, Note_on_c, 0, 52, 96
1, 366933, Note_on_c, 0, 93, 75
1, 366968, Note_off_c, 0, 52, 69
1, 366992, Note_off_c, 0, 93, 64
1, 367002, Note_on_c, 0, 81, 91
1, 367008, Note_on_c, 0, 57, 88
1, 367024, Note_off_c, 0, 81, 66
1, 367039, Note_off_c, 0, 57, 66
1, 367151, Note_on_c, 0, 57, 102
1, 367166, Note_on_c, 0, 47, 83
1, 367168, Note_on_c, 0, 33, 74
1, 367172, Note_on_c, 0, 45, 75
1, 367184, Note_off_c, 0, 57, 68
1, 367184, Note_on_c, 0, 35, 50
1, 367190, Note_off_c, 0, 47, 68
1, 367197, Note_off_c, 0, 33, 65
1, 367200, Note_off_c, 0, 45, 65
1, 367211, Note_off_c, 0, 35, 57
1, 367374, Note_on_c, 0, 52, 99
1, 367398, Note_on_c, 0, 93, 94
1, 367417, Note_off_c, 0, 52, 64
1, 367440, Note_on_c, 0, 57, 81
1, 367443, Note_off_c, 0, 93, 65
1, 367448, Note_on_c, 0, 81, 98
1, 367474, Note_off_c, 0, 57, 62
1, 367483, Note_off_c, 0, 81, 65
1, 367625, Note_on_c, 0, 57, 109
1, 367628, Note_on_c, 0, 45, 84
1, 367631, Note_on_c, 0, 33, 80
1, 367651, Note_on_c, 0, 43, 54
1, 367652, Note_off_c, 0, 43, 127
1, 367654, Note_off_c, 0, 57, 70
1, 367655, Note_off_c, 0, 45, 64
1, 367661, Note_on_c, 0, 39, 23
1, 367662, Note_off_c, 0, 33, 69
1, 367705, Note_off_c, 0, 39, 41
1, 367854, Control_c, 0, 64, 116
1, 367868, Control_c, 0, 64, 94
1, 367883, Control_c, 0, 64, 74
1, 367898, Control_c, 0, 64, 0
1, 368059, Note_on_c, 0, 21, 93
1, 368061, Note_on_c, 0, 33, 103
1, 368083, Control_c, 0, 64, 78
1, 368098, Control_c, 0, 64, 103
1, 368099, Note_off_c, 0, 21, 63
1, 368105, Note_off_c, 0, 33, 67
1, 368113, Control_c, 0, 64, 127
1, 368131, Note_on_c, 0, 23, 75
1, 368135, Note_on_c, 0, 21, 59
1, 368136, Note_off_c, 0, 21, 127
1, 368164, Note_off_c, 0, 23, 52
1, 368209, Note_on_c, 0, 33, 100
1, 368217, Control_c, 0, 64, 110
1, 368231, Control_c, 0, 64, 87
1, 368239, Note_off_c, 0, 33, 70
1, 368246, Control_c, 0, 64, 63
1, 368261, Control_c, 0, 64, 0
1, 391294, Control_c, 0, 67, 9
1, 391309, Control_c, 0, 67, 12
1, 391324, Control_c, 0, 67, 16
1, 391339, Control_c, 0, 67, 22
1, 391354, Control_c, 0, 67, 29
1, 391368, Control_c, 0, 67, 39
1, 391383, Control_c, 0, 67, 52
1, 391398, Control_c, 0, 67, 72
1, 391413, Control_c, 0, 67, 89
1, 391428, Control_c, 0, 67, 108
1, 391442, Control_c, 0, 67, 127
1, 391457, Control_c, 0, 67, 127
1, 392574, Note_on_c, 0, 31, 52
1, 392608, Control_c, 0, 64, 55
1, 392623, Control_c, 0, 64, 67
1, 392638, Control_c, 0, 64, 72
1, 392653, Control_c, 0, 64, 80
1, 392667, Control_c, 0, 64, 89
1, 392689, Control_c, 0, 64, 96
1, 392704, Control_c, 0, 64, 104
1, 392719, Control_c, 0, 64, 109
1, 392733, Control_c, 0, 64, 113
1, 392748, Control_c, 0, 64, 117
1, 392763, Control_c, 0, 64, 121
1, 392778, Control_c, 0, 64, 127
1, 392781, Note_off_c, 0, 31, 48
1, 392960, Note_on_c, 0, 62, 54
1, 392969, Note_on_c, 0, 50, 48
1, 392969, Note_on_c, 0, 58, 50
1, 393016, Note_off_c, 0, 50, 55
1, 393021, Note_off_c, 0, 62, 55
1, 393025, Note_off_c, 0, 58, 59
1, 393251, Note_on_c, 0, 62, 55
1, 393260, Note_on_c, 0, 50, 47
1, 393266, Note_on_c, 0, 58, 45
1, 393287, Note_off_c, 0, 50, 57
1, 393289, Note_off_c, 0, 62, 54
1, 393303, Note_off_c, 0, 58, 63
1, 393459, Note_on_c, 0, 38, 54
1, 393538, Note_on_c, 0, 50, 69
1, 393542, Control_c, 0, 64, 106
1, 393557, Control_c, 0, 64, 85
1, 393571, Control_c, 0, 64, 63
1, 393586, Control_c, 0, 64, 0
1, 393660, Control_c, 0, 64, 67
1, 393668, Note_off_c, 0, 50, 53
1, 393675, Control_c, 0, 64, 78
1, 393690, Control_c, 0, 64, 91
1, 393703, Control_c, 0, 64, 101
1, 393718, Control_c, 0, 64, 105
1, 393723, Note_off_c, 0, 38, 40
1, 393732, Control_c, 0, 64, 107
1, 393747, Control_c, 0, 64, 110
1, 393762, Control_c, 0, 64, 112
1, 393777, Control_c, 0, 64, 114
1, 393792, Control_c, 0, 64, 116
1, 393806, Control_c, 0, 64, 117
1, 393821, Control_c, 0, 64, 118
1, 393833, Note_on_c, 0, 62, 60
1, 393836, Control_c, 0, 64, 119
1, 393840, Note_on_c, 0, 50, 47
1, 393847, Note_on_c, 0, 58, 47
1, 393866, Control_c, 0, 64, 119
1, 393874, Note_off_c, 0, 50, 53
1, 393888, Note_off_c, 0, 58, 61
1, 393890, Note_off_c, 0, 62, 50
1, 394086, Note_on_c, 0, 62, 55
1, 394089, Note_on_c, 0, 50, 52
1, 394091, Note_on_c, 0, 58, 48
1, 394128, Note_off_c, 0, 62, 43
1, 394134, Note_off_c, 0, 50, 51
1, 394136, Note_off_c, 0, 58, 62
1, 394361, Note_on_c, 0, 31, 66
1, 394363, Control_c, 0, 64, 118
1, 394378, Control_c, 0, 64, 113
1, 394393, Control_c, 0, 64, 103
1, 394408, Control_c, 0, 64, 89
1, 394423, Control_c, 0, 64, 67
1, 394437, Control_c, 0, 64, 0
1, 394526, Control_c, 0, 64, 65
1, 394541, Control_c, 0, 64, 74
1, 394555, Control_c, 0, 64, 82
1, 394570, Control_c, 0, 64, 89
1, 394584, Note_off_c, 0, 31, 57
1, 394585, Control_c, 0, 64, 92
1, 394600, Control_c, 0, 64, 95
1, 394615, Control_c, 0, 64, 96
1, 394629, Control_c, 0, 64, 98
1, 394644, Control_c, 0, 64, 101
1, 394650, Note_on_c, 0, 62, 57
1, 394659, Note_on_c, 0, 50, 45
1, 394659, Control_c, 0, 64, 103
1, 394668, Note_on_c, 0, 58, 44
1, 394674, Control_c, 0, 64, 105
1, 394689, Control_c, 0, 64, 107
1, 394693, Note_off_c, 0, 50, 53
1, 394704, Control_c, 0, 64, 108
1, 394704, Note_off_c, 0, 58, 58
1, 394712, Note_off_c, 0, 62, 50
1, 394718, Control_c, 0, 64, 108
1, 394733, Control_c, 0, 64, 109
1, 394749, Control_c, 0, 64, 109
1, 394890, Note_on_c, 0, 62, 51
1, 394892, Note_on_c, 0, 50, 57
1, 394903, Note_on_c, 0, 58, 49
1, 394919, Note_off_c, 0, 50, 59
1, 394941, Note_off_c, 0, 62, 46
1, 394942, Note_off_c, 0, 58, 61
1, 395051, Note_on_c, 0, 38, 58
1, 395127, Control_c, 0, 64, 105
1, 395135, Note_on_c, 0, 50, 73
1, 395142, Control_c, 0, 64, 93
1, 395157, Control_c, 0, 64, 77
1, 395172, Control_c, 0, 64, 20
1, 395186, Control_c, 0, 64, 0
1, 395245, Note_off_c, 0, 50, 57
1, 395246, Control_c, 0, 64, 67
1, 395261, Control_c, 0, 64, 76
1, 395265, Note_off_c, 0, 38, 33
1, 395276, Control_c, 0, 64, 88
1, 395291, Control_c, 0, 64, 95
1, 395306, Control_c, 0, 64, 98
1, 395321, Control_c, 0, 64, 99
1, 395335, Control_c, 0, 64, 101
1, 395350, Control_c, 0, 64, 103
1, 395365, Control_c, 0, 64, 105
1, 395379, Control_c, 0, 64, 107
1, 395394, Control_c, 0, 64, 108
1, 395407, Note_on_c, 0, 62, 54
1, 395409, Control_c, 0, 64, 109
1, 395410, Note_on_c, 0, 50, 47
1, 395424, Control_c, 0, 64, 110
1, 395426, Note_on_c, 0, 58, 41
1, 395439, Control_c, 0, 64, 111
1, 395454, Note_off_c, 0, 50, 47
1, 395468, Control_c, 0, 64, 111
1, 395470, Note_off_c, 0, 58, 60
1, 395479, Note_off_c, 0, 62, 55
1, 395513, Control_c, 0, 64, 112
1, 395646, Note_on_c, 0, 62, 48
1, 395654, Note_on_c, 0, 50, 47
1, 395660, Note_on_c, 0, 58, 38
1, 395693, Note_off_c, 0, 50, 52
1, 395696, Note_off_c, 0, 62, 44
1, 395700, Note_off_c, 0, 58, 52
1, 395759, Note_on_c, 0, 31, 61
1, 396041, Note_on_c, 0, 62, 77
1, 396057, Note_on_c, 0, 50, 60
1, 396069, Control_c, 0, 64, 110
1, 396084, Control_c, 0, 64, 100
1, 396099, Control_c, 0, 64, 85
1, 396114, Control_c, 0, 64, 66
1, 396128, Control_c, 0, 64, 0
1, 396160, Note_off_c, 0, 50, 57
1, 396188, Control_c, 0, 64, 67
1, 396202, Control_c, 0, 64, 77
1, 396217, Control_c, 0, 64, 89
1, 396232, Control_c, 0, 64, 100
1, 396247, Control_c, 0, 64, 103
1, 396262, Control_c, 0, 64, 105
1, 396276, Control_c, 0, 64, 106
1, 396291, Control_c, 0, 64, 108
1, 396306, Control_c, 0, 64, 111
1, 396321, Control_c, 0, 64, 113
1, 396335, Control_c, 0, 64, 114
1, 396349, Note_on_c, 0, 58, 49
1, 396352, Control_c, 0, 64, 115
1, 396361, Note_on_c, 0, 55, 46
1, 396362, Note_off_c, 0, 31, 56
1, 396367, Control_c, 0, 64, 116
1, 396381, Control_c, 0, 64, 117
1, 396396, Control_c, 0, 64, 118
1, 396411, Control_c, 0, 64, 118
1, 396412, Note_off_c, 0, 55, 59
1, 396417, Note_off_c, 0, 58, 55
1, 396432, Control_c, 0, 64, 119
1, 396447, Control_c, 0, 64, 119
1, 396492, Control_c, 0, 64, 120
1, 396537, Control_c, 0, 64, 120
1, 396552, Note_on_c, 0, 61, 75
1, 396558, Note_off_c, 0, 62, 54
1, 396561, Note_on_c, 0, 58, 61
1, 396564, Note_on_c, 0, 55, 58
1, 396567, Control_c, 0, 64, 121
1, 396625, Control_c, 0, 64, 121
1, 396670, Control_c, 0, 64, 122
1, 396745, Note_on_c, 0, 38, 55
1, 396778, Note_off_c, 0, 55, 17
1, 396808, Note_off_c, 0, 58, 37
1, 396817, Control_c, 0, 64, 121
1, 396820, Note_on_c, 0, 49, 70
1, 396832, Control_c, 0, 64, 115
1, 396847, Control_c, 0, 64, 98
1, 396862, Control_c, 0, 64, 79
1, 396877, Control_c, 0, 64, 18
1, 396892, Control_c, 0, 64, 0
1, 396936, Control_c, 0, 64, 44
1, 396950, Control_c, 0, 64, 70
1, 396965, Control_c, 0, 64, 81
1, 396980, Control_c, 0, 64, 94
1, 396995, Control_c, 0, 64, 104
1, 397010, Control_c, 0, 64, 108
1, 397024, Control_c, 0, 64, 109
1, 397039, Control_c, 0, 64, 111
1, 397054, Control_c, 0, 64, 113
1, 397055, Note_on_c, 0, 58, 79
1, 397069, Control_c, 0, 64, 116
1, 397079, Note_on_c, 0, 55, 57
1, 397081, Note_off_c, 0, 49, 61
1, 397084, Control_c, 0, 64, 118
1, 397098, Control_c, 0, 64, 119
1, 397106, Note_off_c, 0, 61, 57
1, 397113, Control_c, 0, 64, 119
1, 397136, Note_off_c, 0, 55, 53
1, 397164, Note_off_c, 0, 38, 39
1, 397275, Note_on_c, 0, 55, 51
1, 397351, Note_off_c, 0, 55, 63
1, 397357, Note_on_c, 0, 60, 68
1, 397393, Note_off_c, 0, 58, 63
1, 397449, Note_on_c, 0, 31, 68
1, 397580, Control_c, 0, 64, 117
1, 397595, Control_c, 0, 64, 107
1, 397598, Note_on_c, 0, 63, 76
1, 397610, Control_c, 0, 64, 91
1, 397613, Note_on_c, 0, 51, 59
1, 397625, Control_c, 0, 64, 71
1, 397633, Note_off_c, 0, 60, 58
1, 397640, Control_c, 0, 64, 0
1, 397699, Control_c, 0, 64, 59
1, 397705, Note_off_c, 0, 51, 55
1, 397714, Control_c, 0, 64, 72
1, 397729, Control_c, 0, 64, 83
1, 397744, Control_c, 0, 64, 95
1, 397759, Control_c, 0, 64, 102
1, 397773, Control_c, 0, 64, 104
1, 397788, Control_c, 0, 64, 105
1, 397803, Control_c, 0, 64, 106
1, 397818, Control_c, 0, 64, 108
1, 397833, Control_c, 0, 64, 109
1, 397834, Note_off_c, 0, 31, 61
1, 397847, Control_c, 0, 64, 110
1, 397853, Note_on_c, 0, 58, 63
1, 397862, Control_c, 0, 64, 111
1, 397875, Note_on_c, 0, 55, 50
1, 397877, Control_c, 0, 64, 112
1, 397892, Control_c, 0, 64, 113
1, 397901, Note_off_c, 0, 63, 62
1, 397924, Note_on_c, 0, 61, 72
1, 397929, Control_c, 0, 64, 113
1, 397931, Note_off_c, 0, 55, 64
1, 397944, Control_c, 0, 64, 114
1, 397946, Note_off_c, 0, 58, 62
1, 398003, Note_off_c, 0, 61, 58
1, 398035, Note_on_c, 0, 62, 76
1, 398048, Note_on_c, 0, 55, 58
1, 398066, Note_on_c, 0, 58, 50
1, 398090, Note_off_c, 0, 55, 56
1, 398092, Note_off_c, 0, 58, 58
1, 398167, Note_on_c, 0, 38, 60
1, 398241, Control_c, 0, 64, 109
1, 398256, Control_c, 0, 64, 95
1, 398271, Note_on_c, 0, 50, 69
1, 398271, Control_c, 0, 64, 76
1, 398285, Control_c, 0, 64, 0
1, 398359, Control_c, 0, 64, 65
1, 398367, Note_off_c, 0, 62, 54
1, 398370, Note_on_c, 0, 55, 62
1, 398374, Control_c, 0, 64, 76
1, 398389, Control_c, 0, 64, 90
1, 398403, Control_c, 0, 64, 103
1, 398418, Control_c, 0, 64, 111
1, 398418, Control_c, 0, 67, 118
1, 398433, Control_c, 0, 64, 119
1, 398433, Control_c, 0, 67, 94
1, 398444, Note_off_c, 0, 50, 60
1, 398448, Control_c, 0, 64, 127
1, 398448, Control_c, 0, 67, 67
1, 398451, Note_off_c, 0, 55, 64
1, 398455, Note_on_c, 0, 58, 66
1, 398463, Control_c, 0, 64, 127
1, 398463, Control_c, 0, 67, 38
1, 398477, Control_c, 0, 67, 21
1, 398492, Control_c, 0, 67, 10
1, 398501, Note_off_c, 0, 58, 52
1, 398507, Control_c, 0, 67, 0
1, 398517, Note_off_c, 0, 38, 40
1, 398668, Note_on_c, 0, 62, 73
1, 398684, Note_on_c, 0, 55, 56
1, 398686, Note_on_c, 0, 58, 54
1, 398707, Note_off_c, 0, 55, 63
1, 398718, Note_off_c, 0, 58, 65
1, 398733, Note_off_c, 0, 62, 59
1, 398800, Note_on_c, 0, 31, 58
1, 398949, Note_on_c, 0, 65, 78
1, 398958, Note_on_c, 0, 53, 62
1, 398975, Control_c, 0, 64, 104
1, 398990, Control_c, 0, 64, 84
1, 399005, Control_c, 0, 64, 48
1, 399020, Control_c, 0, 64, 0
1, 399058, Note_off_c, 0, 53, 50
1, 399065, Control_c, 0, 64, 63
1, 399080, Control_c, 0, 64, 75
1, 399094, Control_c, 0, 64, 87
1, 399109, Control_c, 0, 64, 102
1, 399124, Control_c, 0, 64, 108
1, 399139, Control_c, 0, 64, 110
1, 399153, Control_c, 0, 64, 111
1, 399168, Control_c, 0, 64, 113
1, 399172, Note_off_c, 0, 31, 61
1, 399183, Control_c, 0, 64, 115
1, 399189, Note_on_c, 0, 63, 67
1, 399198, Control_c, 0, 64, 117
1, 399202, Note_on_c, 0, 55, 57
1, 399205, Note_on_c, 0, 58, 57
1, 399213, Control_c, 0, 64, 119
1, 399221, Note_off_c, 0, 65, 54
1, 399227, Control_c, 0, 64, 120
1, 399241, Note_off_c, 0, 55, 62
1, 399242, Control_c, 0, 64, 121
1, 399253, Note_off_c, 0, 58, 58
1, 399257, Control_c, 0, 64, 122
1, 399272, Control_c, 0, 64, 122
1, 399287, Control_c, 0, 64, 123
1, 399301, Control_c, 0, 64, 124
1, 399316, Control_c, 0, 64, 125
1, 399331, Control_c, 0, 64, 126
1, 399342, Note_off_c, 0, 63, 48
1, 399345, Control_c, 0, 64, 126
1, 399372, Note_on_c, 0, 58, 63
1, 399377, Note_on_c, 0, 55, 56
1, 399378, Note_on_c, 0, 62, 63
1, 399405, Control_c, 0, 64, 127
1, 399409, Note_off_c, 0, 55, 64
1, 399488, Note_on_c, 0, 38, 70
1, 399504, Note_off_c, 0, 58, 49
1, 399531, Control_c, 0, 64, 126
1, 399547, Control_c, 0, 64, 125
1, 399556, Note_off_c, 0, 62, 59
1, 399562, Control_c, 0, 64, 112
1, 399576, Control_c, 0, 64, 94
1, 399589, Note_on_c, 0, 66, 80
1, 399591, Control_c, 0, 64, 69
1, 399594, Note_on_c, 0, 54, 75
1, 399606, Control_c, 0, 64, 0
1, 399643, Note_off_c, 0, 54, 63
1, 399650, Control_c, 0, 64, 62
1, 399665, Control_c, 0, 64, 74
1, 399680, Control_c, 0, 64, 89
1, 399695, Control_c, 0, 64, 102
1, 399705, Note_off_c, 0, 38, 60
1, 399710, Control_c, 0, 64, 109
1, 399716, Note_off_c, 0, 66, 63
1, 399724, Control_c, 0, 64, 111
1, 399739, Control_c, 0, 64, 112
1, 399754, Control_c, 0, 64, 113
1, 399769, Control_c, 0, 64, 115
1, 399783, Control_c, 0, 64, 116
1, 399797, Note_on_c, 0, 67, 71
1, 399798, Control_c, 0, 64, 117
1, 399800, Note_on_c, 0, 58, 69
1, 399807, Note_on_c, 0, 62, 67
1, 399813, Control_c, 0, 64, 118
1, 399828, Control_c, 0, 64, 119
1, 399839, Note_off_c, 0, 58, 56
1, 399858, Control_c, 0, 64, 119
1, 399867, Note_off_c, 0, 62, 52
1, 399872, Control_c, 0, 64, 120
1, 399878, Note_off_c, 0, 67, 61
1, 399947, Control_c, 0, 64, 120
1, 399959, Note_on_c, 0, 70, 79
1, 399965, Note_on_c, 0, 58, 51
1, 399976, Control_c, 0, 64, 121
1, 399984, Note_off_c, 0, 58, 63
1, 399991, Control_c, 0, 64, 122
1, 400004, Note_off_c, 0, 70, 62
1, 400006, Control_c, 0, 64, 124
1, 400016, Note_on_c, 0, 31, 72
1, 400021, Control_c, 0, 64, 125
1, 400036, Control_c, 0, 64, 126
1, 400047, Note_off_c, 0, 31, 63
1, 400050, Control_c, 0, 64, 127
1, 400114, Note_on_c, 0, 77, 76
1, 400124, Control_c, 0, 64, 111
1, 400139, Control_c, 0, 64, 90
1, 400154, Control_c, 0, 64, 65
1, 400176, Control_c, 0, 64, 0
1, 400179, Note_on_c, 0, 55, 81
1, 400188, Note_on_c, 0, 75, 80
1, 400198, Note_off_c, 0, 77, 57
1, 400206, Control_c, 0, 64, 64
1, 400221, Control_c, 0, 64, 77
1, 400236, Control_c, 0, 64, 92
1, 400250, Control_c, 0, 64, 110
1, 400265, Control_c, 0, 64, 118
1, 400274, Note_off_c, 0, 75, 62
1, 400280, Control_c, 0, 64, 120
1, 400294, Control_c, 0, 64, 123
1, 400309, Control_c, 0, 64, 127
1, 400310, Note_off_c, 0, 55, 61
1, 400386, Note_on_c, 0, 74, 63
1, 400388, Note_on_c, 0, 67, 74
1, 400448, Note_off_c, 0, 67, 58
1, 400452, Note_on_c, 0, 73, 73
1, 400473, Note_off_c, 0, 74, 62
1, 400489, Note_off_c, 0, 73, 60
1, 400539, Note_on_c, 0, 74, 88
1, 400552, Note_on_c, 0, 67, 72
1, 400572, Note_off_c, 0, 67, 67
1, 400588, Note_on_c, 0, 71, 21
1, 400604, Note_off_c, 0, 74, 65
1, 400605, Note_on_c, 0, 38, 68
1, 400627, Note_off_c, 0, 71, 40
1, 400631, Note_off_c, 0, 38, 65
1, 400722, Poly_aftertouch_c, 0, 40, 0
1, 400767, Note_on_c, 0, 78, 89
1, 400769, Control_c, 0, 64, 105
1, 400775, Note_on_c, 0, 58, 86
1, 400784, Control_c, 0, 64, 81
1, 400798, Control_c, 0, 64, 0
1, 400843, Control_c, 0, 64, 56
1, 400858, Control_c, 0, 64, 71
1, 400872, Control_c, 0, 64, 83
1, 400887, Control_c, 0, 64, 98
1, 400893, Note_off_c, 0, 58, 63
1, 400902, Control_c, 0, 64, 109
1, 400922, Note_off_c, 0, 78, 61
1, 400924, Control_c, 0, 64, 115
1, 400939, Control_c, 0, 64, 117
1, 400954, Control_c, 0, 64, 122
1, 400960, Note_on_c, 0, 79, 83
1, 400963, Note_on_c, 0, 70, 84
1, 400966, Note_on_c, 0, 74, 75
1, 400969, Control_c, 0, 64, 127
1, 400985, Note_off_c, 0, 70, 68
1, 400988, Note_off_c, 0, 74, 68
1, 401028, Note_off_c, 0, 79, 63
1, 401045, Note_on_c, 0, 66, 93
1, 401074, Note_off_c, 0, 66, 62
1, 401160, Note_on_c, 0, 82, 91
1, 401201, Note_off_c, 0, 82, 64
1, 401280, Note_on_c, 0, 30, 73
1, 401348, Note_off_c, 0, 30, 62
1, 401361, Note_on_c, 0, 42, 68
1, 401389, Note_off_c, 0, 42, 66
1, 401443, Control_c, 0, 64, 101
1, 401458, Control_c, 0, 64, 77
1, 401473, Control_c, 0, 64, 0
1, 401507, Note_on_c, 0, 86, 89
1, 401518, Note_on_c, 0, 62, 74
1, 401518, Control_c, 0, 64, 59
1, 401533, Control_c, 0, 64, 72
1, 401542, Note_off_c, 0, 86, 64
1, 401547, Control_c, 0, 64, 83
1, 401562, Control_c, 0, 64, 95
1, 401573, Note_off_c, 0, 62, 55
1, 401577, Control_c, 0, 64, 101
1, 401592, Control_c, 0, 64, 102
1, 401597, Note_on_c, 0, 87, 91
1, 401607, Control_c, 0, 64, 103
1, 401621, Control_c, 0, 64, 103
1, 401635, Note_off_c, 0, 87, 65
1, 401712, Note_on_c, 0, 86, 88
1, 401743, Note_off_c, 0, 86, 60
1, 401747, Control_c, 0, 64, 103
1, 401762, Control_c, 0, 64, 99
1, 401777, Control_c, 0, 64, 93
1, 401789, Note_on_c, 0, 87, 78
1, 401792, Control_c, 0, 64, 80
1, 401807, Control_c, 0, 64, 65
1, 401807, Control_c, 0, 67, 10
1, 401814, Note_off_c, 0, 87, 64
1, 401821, Control_c, 0, 64, 0
1, 401821, Control_c, 0, 67, 20
1, 401836, Control_c, 0, 67, 37
1, 401851, Control_c, 0, 67, 64
1, 401866, Control_c, 0, 67, 101
1, 401881, Control_c, 0, 67, 127
1, 401922, Note_on_c, 0, 73, 87
1, 401990, Note_off_c, 0, 73, 58
1, 402021, Note_on_c, 0, 38, 60
1, 402051, Note_off_c, 0, 38, 64
1, 402134, Control_c, 0, 64, 67
1, 402147, Note_on_c, 0, 74, 74
1, 402149, Control_c, 0, 64, 80
1, 402154, Note_on_c, 0, 54, 66
1, 402163, Control_c, 0, 64, 97
1, 402174, Note_off_c, 0, 54, 64
1, 402174, Note_off_c, 0, 74, 64
1, 402178, Control_c, 0, 64, 107
1, 402193, Control_c, 0, 64, 108
1, 402326, Control_c, 0, 64, 103
1, 402341, Control_c, 0, 64, 90
1, 402344, Note_on_c, 0, 86, 80
1, 402352, Note_on_c, 0, 78, 74
1, 402356, Control_c, 0, 64, 69
1, 402358, Note_on_c, 0, 81, 60
1, 402365, Note_off_c, 0, 86, 69
1, 402368, Note_off_c, 0, 78, 63
1, 402370, Control_c, 0, 64, 0
1, 402376, Note_off_c, 0, 81, 59
1, 402548, Note_on_c, 0, 85, 80
1, 402556, Note_on_c, 0, 81, 74
1, 402557, Note_on_c, 0, 78, 78
1, 402583, Note_off_c, 0, 78, 62
1, 402583, Note_off_c, 0, 81, 63
1, 402588, Note_on_c, 0, 30, 67
1, 402596, Note_off_c, 0, 85, 61
1, 402627, Note_off_c, 0, 30, 65
1, 402642, Note_on_c, 0, 42, 66
1, 402654, Note_on_c, 0, 37, 20
1, 402666, Note_off_c, 0, 42, 67
1, 402675, Control_c, 0, 64, 62
1, 402689, Control_c, 0, 64, 73
1, 402692, Note_off_c, 0, 37, 40
1, 402704, Control_c, 0, 64, 86
1, 402719, Control_c, 0, 64, 102
1, 402734, Control_c, 0, 64, 112
1, 402749, Control_c, 0, 64, 116
1, 402764, Control_c, 0, 64, 118
1, 402779, Note_on_c, 0, 83, 93
1, 402779, Control_c, 0, 64, 120
1, 402786, Note_on_c, 0, 63, 79
1, 402794, Control_c, 0, 64, 123
1, 402809, Control_c, 0, 64, 127
1, 402816, Note_off_c, 0, 83, 59
1, 402830, Note_off_c, 0, 63, 49
1, 402869, Note_on_c, 0, 84, 82
1, 402901, Note_off_c, 0, 84, 61
1, 402967, Note_on_c, 0, 83, 88
1, 403003, Note_off_c, 0, 83, 62
1, 403045, Note_on_c, 0, 84, 82
1, 403088, Note_off_c, 0, 84, 63
1, 403136, Note_on_c, 0, 62, 62
1, 403172, Note_on_c, 0, 71, 87
1, 403174, Note_off_c, 0, 62, 64
1, 403214, Note_off_c, 0, 71, 60
1, 403216, Control_c, 0, 64, 118
1, 403231, Control_c, 0, 64, 106
1, 403246, Control_c, 0, 64, 89
1, 403261, Control_c, 0, 64, 67
1, 403274, Note_on_c, 0, 38, 69
1, 403275, Control_c, 0, 64, 0
1, 403301, Note_off_c, 0, 38, 65
1, 403379, Control_c, 0, 64, 53
1, 403384, Note_on_c, 0, 72, 77
1, 403389, Note_on_c, 0, 54, 63
1, 403393, Control_c, 0, 64, 71
1, 403408, Control_c, 0, 64, 84
1, 403411, Note_off_c, 0, 54, 62
1, 403415, Note_off_c, 0, 72, 64
1, 403423, Control_c, 0, 64, 97
1, 403438, Control_c, 0, 64, 103
1, 403453, Control_c, 0, 64, 103
1, 403557, Control_c, 0, 64, 102
1, 403572, Control_c, 0, 64, 97
1, 403587, Control_c, 0, 64, 85
1, 403588, Note_on_c, 0, 73, 73
1, 403588, Note_on_c, 0, 84, 73
1, 403596, Note_on_c, 0, 81, 60
1, 403602, Control_c, 0, 64, 67
1, 403605, Note_off_c, 0, 73, 68
1, 403613, Note_off_c, 0, 81, 62
1, 403615, Note_off_c, 0, 84, 64
1, 403616, Control_c, 0, 64, 0
1, 403787, Note_on_c, 0, 83, 76
1, 403798, Note_on_c, 0, 80, 68
1, 403804, Note_on_c, 0, 74, 57
1, 403821, Note_off_c, 0, 83, 56
1, 403822, Note_off_c, 0, 74, 65
1, 403825, Note_off_c, 0, 80, 68
1, 403848, Note_on_c, 0, 31, 59
1, 403906, Note_off_c, 0, 31, 62
1, 403933, Note_on_c, 0, 38, 54
1, 404004, Note_off_c, 0, 38, 62
1, 404021, Note_on_c, 0, 70, 81
1, 404024, Control_c, 0, 64, 61
1, 404025, Note_on_c, 0, 46, 67
1, 404039, Control_c, 0, 64, 73
1, 404054, Control_c, 0, 64, 84
1, 404055, Note_off_c, 0, 46, 64
1, 404069, Control_c, 0, 64, 93
1, 404084, Control_c, 0, 64, 96
1, 404086, Note_off_c, 0, 70, 55
1, 404098, Control_c, 0, 64, 96
1, 404202, Control_c, 0, 64, 94
1, 404213, Note_on_c, 0, 74, 66
1, 404216, Control_c, 0, 64, 86
1, 404217, Note_on_c, 0, 79, 64
1, 404217, Note_on_c, 0, 82, 63
1, 404231, Control_c, 0, 64, 72
1, 404236, Note_off_c, 0, 82, 64
1, 404236, Note_off_c, 0, 74, 70
1, 404239, Note_off_c, 0, 79, 63
1, 404246, Control_c, 0, 64, 0
1, 404415, Note_on_c, 0, 82, 72
1, 404421, Note_on_c, 0, 74, 68
1, 404424, Note_on_c, 0, 79, 65
1, 404437, Note_off_c, 0, 82, 69
1, 404443, Note_off_c, 0, 74, 71
1, 404451, Note_off_c, 0, 79, 66
1, 404472, Note_on_c, 0, 36, 64
1, 404520, Note_off_c, 0, 36, 63
1, 404542, Note_on_c, 0, 43, 61
1, 404617, Note_on_c, 0, 67, 79
1, 404618, Control_c, 0, 64, 67
1, 404624, Note_on_c, 0, 52, 71
1, 404633, Control_c, 0, 64, 80
1, 404647, Control_c, 0, 64, 97
1, 404654, Note_off_c, 0, 52, 68
1, 404669, Control_c, 0, 64, 105
1, 404677, Note_off_c, 0, 43, 35
1, 404684, Note_off_c, 0, 67, 59
1, 404684, Control_c, 0, 64, 106
1, 404699, Control_c, 0, 64, 107
1, 404812, Note_on_c, 0, 72, 73
1, 404815, Note_on_c, 0, 76, 70
1, 404818, Control_c, 0, 64, 102
1, 404824, Note_on_c, 0, 79, 59
1, 404833, Control_c, 0, 64, 91
1, 404836, Note_off_c, 0, 72, 70
1, 404838, Note_off_c, 0, 76, 69
1, 404842, Note_off_c, 0, 79, 64
1, 404847, Control_c, 0, 64, 72
1, 404862, Control_c, 0, 64, 0
1, 405008, Note_on_c, 0, 79, 69
1, 405009, Note_on_c, 0, 72, 72
1, 405023, Note_on_c, 0, 76, 55
1, 405032, Note_off_c, 0, 72, 66
1, 405035, Note_off_c, 0, 79, 65
1, 405041, Note_off_c, 0, 76, 64
1, 405075, Note_on_c, 0, 32, 68
1, 405128, Note_on_c, 0, 39, 72
1, 405134, Note_off_c, 0, 32, 64
1, 405174, Control_c, 0, 67, 123
1, 405188, Control_c, 0, 67, 86
1, 405203, Control_c, 0, 64, 71
1, 405203, Control_c, 0, 67, 40
1, 405218, Control_c, 0, 64, 92
1, 405218, Control_c, 0, 67, 0
1, 405223, Note_on_c, 0, 80, 82
1, 405225, Note_on_c, 0, 48, 93
1, 405228, Note_on_c, 0, 68, 83
1, 405229, Note_on_c, 0, 75, 83
1, 405233, Control_c, 0, 64, 127
1, 405250, Note_off_c, 0, 68, 71
1, 405265, Note_off_c, 0, 48, 62
1, 405274, Note_off_c, 0, 75, 65
1, 405279, Note_off_c, 0, 39, 63
1, 405284, Note_off_c, 0, 80, 65
1, 405435, Note_on_c, 0, 84, 84
1, 405478, Note_off_c, 0, 84, 63
1, 405530, Note_on_c, 0, 82, 82
1, 405558, Note_off_c, 0, 82, 59
1, 405619, Note_on_c, 0, 80, 82
1, 405657, Note_off_c, 0, 80, 62
1, 405700, Control_c, 0, 64, 108
1, 405701, Note_on_c, 0, 79, 79
1, 405714, Control_c, 0, 64, 81
1, 405724, Note_off_c, 0, 79, 67
1, 405729, Control_c, 0, 64, 0
1, 405796, Note_on_c, 0, 50, 81
1, 405797, Note_on_c, 0, 38, 70
1, 405804, Note_on_c, 0, 78, 90
1, 405818, Control_c, 0, 64, 59
1, 405822, Note_off_c, 0, 38, 65
1, 405833, Control_c, 0, 64, 73
1, 405842, Note_off_c, 0, 50, 60
1, 405848, Control_c, 0, 64, 85
1, 405861, Note_off_c, 0, 78, 63
1, 405862, Control_c, 0, 64, 97
1, 405877, Control_c, 0, 64, 103
1, 405892, Control_c, 0, 64, 107
1, 405903, Note_on_c, 0, 66, 87
1, 405906, Control_c, 0, 64, 108
1, 405921, Control_c, 0, 64, 110
1, 405925, Note_off_c, 0, 66, 69
1, 405937, Control_c, 0, 64, 112
1, 405952, Control_c, 0, 64, 116
1, 405967, Control_c, 0, 64, 120
1, 405982, Control_c, 0, 64, 122
1, 405997, Control_c, 0, 64, 123
1, 406009, Note_on_c, 0, 63, 84
1, 406011, Control_c, 0, 64, 125
1, 406026, Control_c, 0, 64, 127
1, 406053, Note_off_c, 0, 63, 63
1, 406103, Note_on_c, 0, 62, 85
1, 406124, Note_off_c, 0, 62, 71
1, 406220, Note_on_c, 0, 58, 80
1, 406248, Note_off_c, 0, 58, 65
1, 406306, Note_on_c, 0, 57, 81
1, 406332, Note_off_c, 0, 57, 66
1, 406478, Control_c, 0, 64, 115
1, 406492, Control_c, 0, 64, 96
1, 406494, Note_on_c, 0, 74, 85
1, 406495, Note_on_c, 0, 62, 85
1, 406504, Note_on_c, 0, 50, 64
1, 406507, Control_c, 0, 64, 75
1, 406522, Control_c, 0, 64, 0
1, 406548, Note_off_c, 0, 50, 59
1, 406566, Control_c, 0, 64, 60
1, 406578, Note_on_c, 0, 43, 64
1, 406581, Control_c, 0, 64, 72
1, 406596, Control_c, 0, 64, 83
1, 406610, Control_c, 0, 64, 96
1, 406625, Control_c, 0, 64, 105
1, 406640, Control_c, 0, 64, 109
1, 406651, Note_off_c, 0, 43, 60
1, 406655, Control_c, 0, 64, 111
1, 406661, Note_on_c, 0, 38, 68
1, 406670, Control_c, 0, 64, 114
1, 406685, Control_c, 0, 64, 116
1, 406699, Control_c, 0, 64, 118
1, 406714, Control_c, 0, 64, 119
1, 406730, Control_c, 0, 64, 120
1, 406745, Control_c, 0, 64, 121
1, 406752, Note_on_c, 0, 70, 65
1, 406753, Note_off_c, 0, 38, 61
1, 406758, Note_on_c, 0, 31, 60
1, 406758, Note_on_c, 0, 67, 58
1, 406759, Control_c, 0, 64, 121
1, 406781, Note_off_c, 0, 74, 60
1, 406789, Control_c, 0, 64, 122
1, 406790, Note_off_c, 0, 31, 54
1, 406793, Note_off_c, 0, 62, 52
1, 406804, Control_c, 0, 64, 122
1, 406819, Control_c, 0, 64, 123
1, 406833, Control_c, 0, 64, 124
1, 406836, Note_off_c, 0, 67, 60
1, 406845, Note_off_c, 0, 70, 61
1, 406848, Control_c, 0, 64, 125
1, 406863, Control_c, 0, 64, 126
1, 406878, Control_c, 0, 64, 127
1, 406898, Note_on_c, 0, 73, 83
1, 406909, Note_on_c, 0, 61, 86
1, 406920, Note_on_c, 0, 70, 62
1, 406988, Note_off_c, 0, 61, 61
1, 406997, Note_on_c, 0, 67, 65
1, 407047, Note_off_c, 0, 70, 62
1, 407057, Note_off_c, 0, 73, 52
1, 407060, Note_on_c, 0, 49, 63
1, 407078, Note_off_c, 0, 67, 62
1, 407084, Note_on_c, 0, 61, 64
1, 407112, Note_off_c, 0, 49, 58
1, 407117, Note_off_c, 0, 61, 53
1, 407128, Note_on_c, 0, 46, 73
1, 407187, Note_off_c, 0, 46, 63
1, 407188, Note_on_c, 0, 38, 74
1, 407217, Note_off_c, 0, 38, 63
1, 407280, Note_on_c, 0, 70, 78
1, 407282, Note_on_c, 0, 67, 77
1, 407305, Note_on_c, 0, 58, 80
1, 407328, Note_off_c, 0, 58, 71
1, 407331, Note_on_c, 0, 61, 68
1, 407383, Note_off_c, 0, 67, 58
1, 407405, Note_off_c, 0, 61, 63
1, 407408, Note_on_c, 0, 58, 64
1, 407411, Note_off_c, 0, 70, 37
1, 407430, Note_off_c, 0, 58, 69
1, 407525, Note_on_c, 0, 70, 63
1, 407529, Note_on_c, 0, 67, 44
1, 407587, Note_off_c, 0, 67, 58
1, 407591, Note_off_c, 0, 70, 59
1, 407618, Note_on_c, 0, 72, 82
1, 407621, Note_on_c, 0, 60, 82
1, 407691, Note_off_c, 0, 60, 57
1, 407700, Note_off_c, 0, 72, 64
1, 407790, Note_on_c, 0, 51, 62
1, 407796, Note_on_c, 0, 75, 87
1, 407798, Note_on_c, 0, 63, 85
1, 407823, Note_off_c, 0, 51, 63
1, 407858, Note_on_c, 0, 43, 52
1, 407897, Note_off_c, 0, 43, 58
1, 407907, Note_on_c, 0, 39, 63
1, 407931, Note_off_c, 0, 63, 61
1, 407949, Note_off_c, 0, 75, 61
1, 407952, Note_off_c, 0, 39, 64
1, 407993, Note_on_c, 0, 67, 57
1, 407994, Note_on_c, 0, 31, 76
1, 407994, Note_on_c, 0, 70, 61
1, 408022, Note_off_c, 0, 31, 63
1, 408022, Note_off_c, 0, 67, 66
1, 408034, Note_off_c, 0, 70, 54
1, 408074, Note_on_c, 0, 61, 83
1, 408074, Note_on_c, 0, 73, 77
1, 408081, Note_on_c, 0, 70, 53
1, 408098, Note_off_c, 0, 61, 67
1, 408107, Note_off_c, 0, 73, 61
1, 408111, Note_off_c, 0, 70, 65
1, 408175, Note_on_c, 0, 70, 80
1, 408175, Note_on_c, 0, 74, 77
1, 408177, Note_on_c, 0, 62, 79
1, 408248, Note_off_c, 0, 62, 60
1, 408257, Note_on_c, 0, 67, 64
1, 408286, Note_off_c, 0, 70, 59
1, 408289, Note_on_c, 0, 50, 60
1, 408326, Note_on_c, 0, 62, 61
1, 408329, Note_off_c, 0, 50, 57
1, 408332, Note_off_c, 0, 67, 60
1, 408358, Note_on_c, 0, 43, 61
1, 408380, Note_on_c, 0, 38, 71
1, 408383, Note_off_c, 0, 62, 57
1, 408385, Note_off_c, 0, 43, 56
1, 408392, Note_off_c, 0, 74, 50
1, 408397, Note_on_c, 0, 67, 63
1, 408418, Note_off_c, 0, 38, 63
1, 408428, Note_off_c, 0, 67, 69
1, 408496, Note_on_c, 0, 70, 79
1, 408499, Note_on_c, 0, 67, 82
1, 408521, Note_on_c, 0, 58, 76
1, 408546, Note_off_c, 0, 70, 58
1, 408547, Note_off_c, 0, 58, 69
1, 408562, Note_on_c, 0, 62, 77
1, 408615, Note_off_c, 0, 62, 57
1, 408626, Note_off_c, 0, 67, 39
1, 408630, Note_on_c, 0, 70, 70
1, 408657, Note_off_c, 0, 70, 66
1, 408712, Note_on_c, 0, 74, 83
1, 408714, Note_on_c, 0, 62, 87
1, 408717, Note_on_c, 0, 70, 80
1, 408737, Note_off_c, 0, 70, 63
1, 408740, Note_off_c, 0, 62, 61
1, 408773, Note_off_c, 0, 74, 63
1, 408961, Control_c, 0, 64, 114
1, 408969, Note_on_c, 0, 53, 62
1, 408969, Note_on_c, 0, 77, 80
1, 408976, Note_on_c, 0, 65, 76
1, 408976, Control_c, 0, 64, 88
1, 408987, Note_on_c, 0, 70, 66
1, 408991, Control_c, 0, 64, 64
1, 409005, Control_c, 0, 64, 0
1, 409020, Note_off_c, 0, 53, 55
1, 409035, Control_c, 0, 64, 59
1, 409050, Control_c, 0, 64, 74
1, 409057, Note_on_c, 0, 43, 59
1, 409064, Control_c, 0, 64, 87
1, 409069, Note_off_c, 0, 77, 58
1, 409078, Note_off_c, 0, 65, 61
1, 409079, Control_c, 0, 64, 102
1, 409094, Control_c, 0, 64, 112
1, 409109, Control_c, 0, 64, 117
1, 409124, Control_c, 0, 64, 120
1, 409125, Note_off_c, 0, 70, 56
1, 409134, Note_off_c, 0, 43, 61
1, 409137, Note_on_c, 0, 38, 70
1, 409140, Control_c, 0, 64, 122
1, 409161, Control_c, 0, 64, 125
1, 409176, Control_c, 0, 64, 126
1, 409191, Control_c, 0, 64, 127
1, 409219, Note_off_c, 0, 38, 61
1, 409230, Note_on_c, 0, 31, 77
1, 409230, Note_on_c, 0, 63, 83
1, 409232, Note_on_c, 0, 75, 77
1, 409232, Note_on_c, 0, 70, 75
1, 409261, Note_off_c, 0, 31, 61
1, 409278, Note_off_c, 0, 63, 63
1, 409289, Note_off_c, 0, 70, 61
1, 409296, Note_off_c, 0, 75, 61
1, 409408, Note_on_c, 0, 74, 69
1, 409410, Note_on_c, 0, 62, 61
1, 409411, Note_on_c, 0, 70, 70
1, 409432, Note_off_c, 0, 62, 55
1, 409478, Note_on_c, 0, 67, 65
1, 409494, Note_off_c, 0, 74, 64
1, 409515, Note_on_c, 0, 62, 77
1, 409519, Note_off_c, 0, 70, 49
1, 409551, Note_off_c, 0, 62, 61
1, 409551, Note_off_c, 0, 67, 63
1, 409635, Control_c, 0, 64, 98
1, 409638, Note_on_c, 0, 54, 63
1, 409639, Note_on_c, 0, 78, 95
1, 409641, Note_on_c, 0, 66, 88
1, 409650, Control_c, 0, 64, 75
1, 409665, Control_c, 0, 64, 0
1, 409670, Note_off_c, 0, 54, 64
1, 409686, Note_on_c, 0, 46, 60
1, 409695, Control_c, 0, 64, 52
1, 409706, Note_off_c, 0, 66, 62
1, 409709, Control_c, 0, 64, 72
1, 409724, Control_c, 0, 64, 88
1, 409739, Control_c, 0, 64, 106
1, 409754, Control_c, 0, 64, 122
1, 409757, Note_on_c, 0, 38, 75
1, 409763, Note_off_c, 0, 46, 63
1, 409763, Note_off_c, 0, 78, 59
1, 409769, Control_c, 0, 64, 127
1, 409784, Note_off_c, 0, 38, 65
1, 409829, Note_on_c, 0, 67, 87
1, 409830, Note_on_c, 0, 79, 83
1, 409852, Note_on_c, 0, 74, 61
1, 409858, Note_on_c, 0, 58, 80
1, 409877, Note_off_c, 0, 67, 61
1, 409882, Note_off_c, 0, 58, 69
1, 409910, Note_on_c, 0, 70, 74
1, 409933, Note_off_c, 0, 74, 64
1, 409939, Note_off_c, 0, 79, 59
1, 409969, Note_on_c, 0, 67, 72
1, 409980, Note_off_c, 0, 70, 61
1, 409996, Note_off_c, 0, 67, 65
1, 410067, Note_on_c, 0, 82, 81
1, 410072, Note_on_c, 0, 70, 81
1, 410090, Note_on_c, 0, 80, 51
1, 410096, Note_off_c, 0, 70, 68
1, 410113, Note_off_c, 0, 80, 61
1, 410116, Note_off_c, 0, 82, 63
1, 410201, Note_on_c, 0, 89, 84
1, 410221, Note_off_c, 0, 89, 67
1, 410255, Note_on_c, 0, 63, 61
1, 410275, Note_on_c, 0, 87, 76
1, 410281, Control_c, 0, 64, 95
1, 410283, Note_on_c, 0, 75, 80
1, 410288, Note_off_c, 0, 63, 64
1, 410296, Control_c, 0, 64, 68
1, 410298, Note_on_c, 0, 58, 57
1, 410303, Note_on_c, 0, 85, 47
1, 410310, Control_c, 0, 64, 0
1, 410325, Control_c, 0, 64, 40
1, 410340, Control_c, 0, 64, 70
1, 410355, Control_c, 0, 64, 82
1, 410359, Note_off_c, 0, 75, 61
1, 410362, Note_off_c, 0, 58, 63
1, 410364, Note_off_c, 0, 87, 62
1, 410370, Control_c, 0, 64, 100
1, 410372, Note_on_c, 0, 51, 66
1, 410384, Control_c, 0, 64, 119
1, 410389, Note_off_c, 0, 85, 0
1, 410389, Note_on_c, 0, 85, 17
1, 410399, Control_c, 0, 64, 127
1, 410431, Note_off_c, 0, 85, 45
1, 410437, Note_off_c, 0, 51, 62
1, 410471, Note_on_c, 0, 46, 80
1, 410484, Note_on_c, 0, 86, 76
1, 410485, Note_on_c, 0, 79, 75
1, 410487, Note_on_c, 0, 74, 79
1, 410502, Note_off_c, 0, 46, 62
1, 410504, Note_off_c, 0, 74, 74
1, 410513, Note_off_c, 0, 79, 62
1, 410517, Note_off_c, 0, 86, 49
1, 410564, Note_on_c, 0, 85, 38
1, 410576, Note_on_c, 0, 73, 84
1, 410614, Note_on_c, 0, 78, 27
1, 410614, Note_off_c, 0, 73, 59
1, 410632, Note_off_c, 0, 85, 61
1, 410657, Note_off_c, 0, 78, 38
1, 410672, Poly_aftertouch_c, 0, 85, 0
1, 410686, Note_on_c, 0, 74, 72
1, 410686, Note_on_c, 0, 86, 73
1, 410690, Note_on_c, 0, 85, 24
1, 410702, Note_off_c, 0, 74, 69
1, 410730, Note_on_c, 0, 83, 47
1, 410731, Note_on_c, 0, 82, 36
1, 410735, Note_off_c, 0, 85, 49
1, 410758, Note_on_c, 0, 79, 75
1, 410760, Note_off_c, 0, 86, 60
1, 410772, Note_off_c, 0, 83, 55
1, 410776, Note_off_c, 0, 82, 63
1, 410793, Note_on_c, 0, 74, 71
1, 410824, Note_off_c, 0, 74, 66
1, 410827, Note_off_c, 0, 79, 63
1, 410896, Control_c, 0, 64, 101
1, 410909, Note_on_c, 0, 70, 64
1, 410911, Note_on_c, 0, 90, 92
1, 410911, Control_c, 0, 64, 75
1, 410913, Note_on_c, 0, 78, 91
1, 410925, Control_c, 0, 64, 0
1, 410937, Note_off_c, 0, 70, 68
1, 410955, Control_c, 0, 64, 51
1, 410970, Control_c, 0, 64, 75
1, 410985, Control_c, 0, 64, 90
1, 410989, Note_on_c, 0, 62, 67
1, 411000, Control_c, 0, 64, 108
1, 411006, Note_off_c, 0, 78, 61
1, 411014, Control_c, 0, 64, 122
1, 411016, Note_off_c, 0, 62, 64
1, 411029, Control_c, 0, 64, 127
1, 411062, Note_off_c, 0, 90, 62
1, 411120, Note_on_c, 0, 55, 60
1, 411122, Note_on_c, 0, 91, 78
1, 411125, Note_on_c, 0, 79, 80
1, 411153, Note_off_c, 0, 79, 60
1, 411158, Note_off_c, 0, 55, 65
1, 411178, Note_off_c, 0, 91, 58
1, 411209, Note_on_c, 0, 86, 77
1, 411215, Note_on_c, 0, 46, 61
1, 411262, Note_off_c, 0, 86, 61
1, 411305, Note_off_c, 0, 46, 61
1, 411316, Note_on_c, 0, 82, 76
1, 411332, Note_on_c, 0, 38, 33
1, 411368, Note_off_c, 0, 82, 62
1, 411371, Note_off_c, 0, 38, 51
1, 411385, Control_c, 0, 67, 8
1, 411407, Control_c, 0, 67, 12
1, 411413, Note_on_c, 0, 74, 73
1, 411422, Control_c, 0, 67, 22
1, 411437, Control_c, 0, 67, 43
1, 411439, Note_off_c, 0, 74, 66
1, 411452, Control_c, 0, 67, 72
1, 411467, Control_c, 0, 67, 108
1, 411473, Note_on_c, 0, 30, 72
1, 411481, Control_c, 0, 67, 127
1, 411511, Control_c, 0, 64, 102
1, 411527, Control_c, 0, 64, 78
1, 411531, Note_off_c, 0, 30, 62
1, 411542, Control_c, 0, 64, 0
1, 411549, Note_on_c, 0, 42, 63
1, 411578, Note_off_c, 0, 42, 66
1, 411601, Control_c, 0, 64, 65
1, 411616, Control_c, 0, 64, 79
1, 411630, Control_c, 0, 64, 93
1, 411645, Control_c, 0, 64, 109
1, 411660, Control_c, 0, 64, 113
1, 411676, Control_c, 0, 64, 114
1, 411680, Note_on_c, 0, 86, 82
1, 411691, Control_c, 0, 64, 114
1, 411705, Control_c, 0, 64, 115
1, 411708, Note_off_c, 0, 86, 62
1, 411710, Note_on_c, 0, 62, 58
1, 411720, Control_c, 0, 64, 115
1, 411736, Note_off_c, 0, 62, 62
1, 411764, Control_c, 0, 64, 116
1, 411776, Note_on_c, 0, 87, 90
1, 411779, Control_c, 0, 64, 116
1, 411818, Note_off_c, 0, 87, 64
1, 411885, Note_on_c, 0, 50, 59
1, 411888, Note_on_c, 0, 86, 83
1, 411915, Note_off_c, 0, 50, 65
1, 411915, Note_off_c, 0, 86, 63
1, 411972, Note_on_c, 0, 87, 82
1, 411987, Control_c, 0, 64, 115
1, 412002, Control_c, 0, 64, 113
1, 412003, Note_off_c, 0, 87, 54
1, 412017, Control_c, 0, 64, 106
1, 412031, Control_c, 0, 64, 97
1, 412046, Control_c, 0, 64, 86
1, 412061, Control_c, 0, 64, 72
1, 412075, Control_c, 0, 64, 20
1, 412090, Control_c, 0, 64, 0
1, 412100, Note_on_c, 0, 73, 85
1, 412172, Note_off_c, 0, 73, 61
1, 412216, Note_on_c, 0, 38, 58
1, 412243, Note_off_c, 0, 38, 60
1, 412320, Note_on_c, 0, 74, 78
1, 412320, Control_c, 0, 64, 68
1, 412336, Note_on_c, 0, 54, 57
1, 412336, Control_c, 0, 64, 81
1, 412351, Control_c, 0, 64, 95
1, 412358, Note_off_c, 0, 54, 58
1, 412362, Note_off_c, 0, 74, 62
1, 412365, Control_c, 0, 64, 104
1, 412380, Control_c, 0, 64, 107
1, 412395, Control_c, 0, 64, 107
1, 412410, Control_c, 0, 64, 108
1, 412498, Control_c, 0, 64, 103
1, 412513, Control_c, 0, 64, 91
1, 412520, Note_on_c, 0, 86, 75
1, 412527, Note_on_c, 0, 78, 72
1, 412528, Control_c, 0, 64, 72
1, 412535, Note_on_c, 0, 81, 59
1, 412541, Note_off_c, 0, 86, 66
1, 412543, Control_c, 0, 64, 0
1, 412545, Note_off_c, 0, 78, 62
1, 412554, Note_off_c, 0, 81, 59
1, 412724, Note_on_c, 0, 85, 74
1, 412726, Note_on_c, 0, 81, 59
1, 412728, Note_on_c, 0, 78, 77
1, 412756, Note_off_c, 0, 78, 60
1, 412761, Note_off_c, 0, 81, 63
1, 412766, Note_on_c, 0, 30, 62
1, 412779, Note_off_c, 0, 85, 64
1, 412807, Note_off_c, 0, 30, 65
1, 412816, Note_on_c, 0, 42, 66
1, 412839, Control_c, 0, 64, 66
1, 412845, Note_off_c, 0, 42, 66
1, 412854, Control_c, 0, 64, 78
1, 412869, Control_c, 0, 64, 93
1, 412884, Control_c, 0, 64, 111
1, 412905, Control_c, 0, 64, 117
1, 412920, Control_c, 0, 64, 118
1, 412935, Control_c, 0, 64, 120
1, 412950, Control_c, 0, 64, 121
1, 412960, Note_on_c, 0, 83, 95
1, 412965, Control_c, 0, 64, 125
1, 412979, Control_c, 0, 64, 127
1, 412982, Note_on_c, 0, 63, 74
1, 412996, Note_off_c, 0, 83, 61
1, 413012, Note_off_c, 0, 63, 64
1, 413052, Note_on_c, 0, 84, 85
1, 413093, Note_off_c, 0, 84, 63
1, 413158, Note_on_c, 0, 83, 89
1, 413167, Note_on_c, 0, 51, 55
1, 413202, Note_off_c, 0, 83, 61
1, 413203, Note_off_c, 0, 51, 48
1, 413243, Note_on_c, 0, 84, 78
1, 413277, Note_off_c, 0, 84, 60
1, 413346, Note_on_c, 0, 62, 69
1, 413359, Note_on_c, 0, 71, 87
1, 413367, Note_off_c, 0, 62, 64
1, 413409, Note_off_c, 0, 71, 59
1, 413455, Control_c, 0, 64, 119
1, 413469, Control_c, 0, 64, 102
1, 413484, Control_c, 0, 64, 80
1, 413489, Note_on_c, 0, 38, 55
1, 413499, Control_c, 0, 64, 0
1, 413519, Note_off_c, 0, 38, 49
1, 413585, Note_on_c, 0, 72, 78
1, 413588, Control_c, 0, 64, 67
1, 413592, Note_on_c, 0, 54, 65
1, 413602, Control_c, 0, 64, 79
1, 413611, Note_off_c, 0, 54, 62
1, 413617, Control_c, 0, 64, 93
1, 413623, Note_off_c, 0, 72, 62
1, 413632, Control_c, 0, 64, 101
1, 413655, Control_c, 0, 64, 103
1, 413670, Control_c, 0, 64, 103
1, 413670, Control_c, 0, 67, 125
1, 413684, Control_c, 0, 64, 104
1, 413684, Control_c, 0, 67, 108
1, 413699, Control_c, 0, 64, 104
1, 413699, Control_c, 0, 67, 89
1, 413714, Control_c, 0, 67, 68
1, 413728, Control_c, 0, 67, 48
1, 413743, Control_c, 0, 67, 32
1, 413758, Control_c, 0, 67, 20
1, 413773, Control_c, 0, 64, 102
1, 413773, Control_c, 0, 67, 18
1, 413788, Control_c, 0, 64, 94
1, 413788, Control_c, 0, 67, 17
1, 413794, Note_on_c, 0, 73, 74
1, 413797, Note_on_c, 0, 84, 72
1, 413802, Note_on_c, 0, 81, 68
1, 413802, Control_c, 0, 64, 80
1, 413802, Control_c, 0, 67, 16
1, 413817, Note_off_c, 0, 73, 69
1, 413817, Control_c, 0, 64, 64
1, 413817, Control_c, 0, 67, 14
1, 413825, Note_off_c, 0, 84, 63
1, 413827, Note_off_c, 0, 81, 62
1, 413832, Control_c, 0, 64, 0
1, 413832, Control_c, 0, 67, 12
1, 413847, Control_c, 0, 67, 12
1, 413937, Control_c, 0, 67, 11
1, 413996, Control_c, 0, 67, 12
1, 414002, Note_on_c, 0, 83, 73
1, 414011, Note_on_c, 0, 74, 61
1, 414013, Note_on_c, 0, 80, 68
1, 414026, Note_off_c, 0, 83, 64
1, 414028, Note_off_c, 0, 74, 68
1, 414038, Note_off_c, 0, 80, 68
1, 414130, Control_c, 0, 67, 12
1, 414145, Control_c, 0, 67, 13
1, 414159, Control_c, 0, 67, 13
1, 414233, Control_c, 0, 67, 13
1, 414243, Note_on_c, 0, 70, 77
1, 414250, Note_on_c, 0, 43, 53
1, 414252, Note_on_c, 0, 31, 58
1, 414263, Control_c, 0, 64, 66
1, 414277, Control_c, 0, 64, 79
1, 414277, Control_c, 0, 67, 12
1, 414281, Note_off_c, 0, 43, 54
1, 414287, Note_off_c, 0, 31, 62
1, 414292, Control_c, 0, 64, 94
1, 414292, Control_c, 0, 67, 11
1, 414307, Control_c, 0, 64, 108
1, 414307, Control_c, 0, 67, 11
1, 414322, Control_c, 0, 64, 112
1, 414322, Control_c, 0, 67, 10
1, 414337, Control_c, 0, 64, 113
1, 414351, Control_c, 0, 64, 115
1, 414366, Note_off_c, 0, 70, 57
1, 414366, Control_c, 0, 64, 116
1, 414381, Control_c, 0, 64, 117
1, 414448, Control_c, 0, 64, 114
1, 414448, Control_c, 0, 67, 11
1, 414453, Note_on_c, 0, 74, 68
1, 414457, Note_on_c, 0, 79, 64
1, 414459, Note_on_c, 0, 82, 63
1, 414463, Control_c, 0, 64, 101
1, 414463, Control_c, 0, 67, 11
1, 414476, Note_off_c, 0, 74, 70
1, 414477, Note_off_c, 0, 82, 66
1, 414477, Control_c, 0, 64, 83
1, 414477, Control_c, 0, 67, 12
1, 414485, Note_off_c, 0, 79, 65
1, 414492, Control_c, 0, 64, 64
1, 414507, Control_c, 0, 64, 0
1, 414507, Control_c, 0, 67, 12
1, 414537, Control_c, 0, 67, 13
1, 414658, Note_on_c, 0, 82, 69
1, 414663, Note_on_c, 0, 74, 66
1, 414678, Note_on_c, 0, 79, 47
1, 414681, Note_off_c, 0, 82, 67
1, 414684, Note_off_c, 0, 74, 72
1, 414700, Note_off_c, 0, 79, 55
1, 414723, Note_on_c, 0, 36, 54
1, 414772, Note_off_c, 0, 36, 62
1, 414774, Control_c, 0, 67, 13
1, 414789, Control_c, 0, 67, 14
1, 414798, Note_on_c, 0, 43, 58
1, 414849, Control_c, 0, 67, 13
1, 414863, Control_c, 0, 67, 13
1, 414878, Control_c, 0, 64, 65
1, 414878, Control_c, 0, 67, 12
1, 414884, Note_on_c, 0, 67, 75
1, 414892, Note_on_c, 0, 52, 65
1, 414893, Control_c, 0, 64, 81
1, 414908, Control_c, 0, 64, 96
1, 414908, Control_c, 0, 67, 12
1, 414920, Note_off_c, 0, 52, 68
1, 414923, Control_c, 0, 64, 108
1, 414926, Note_off_c, 0, 43, 33
1, 414938, Control_c, 0, 64, 111
1, 414953, Control_c, 0, 64, 111
1, 414962, Note_off_c, 0, 67, 56
1, 415056, Control_c, 0, 64, 110
1, 415068, Note_on_c, 0, 76, 65
1, 415070, Note_on_c, 0, 72, 65
1, 415071, Control_c, 0, 64, 102
1, 415071, Control_c, 0, 67, 13
1, 415072, Note_on_c, 0, 79, 68
1, 415086, Control_c, 0, 64, 83
1, 415086, Control_c, 0, 67, 13
1, 415087, Note_off_c, 0, 72, 68
1, 415093, Note_off_c, 0, 76, 70
1, 415098, Note_off_c, 0, 79, 67
1, 415100, Control_c, 0, 64, 60
1, 415100, Control_c, 0, 67, 14
1, 415115, Control_c, 0, 64, 0
1, 415130, Control_c, 0, 67, 15
1, 415167, Control_c, 0, 67, 15
1, 415182, Control_c, 0, 67, 16
1, 415242, Control_c, 0, 67, 16
1, 415256, Control_c, 0, 67, 15
1, 415276, Note_on_c, 0, 72, 61
1, 415281, Note_on_c, 0, 68, 83
1, 415281, Note_on_c, 0, 80, 89
1, 415281, Note_on_c, 0, 44, 95
1, 415282, Note_on_c, 0, 32, 78
1, 415286, Control_c, 0, 67, 15
1, 415299, Note_off_c, 0, 68, 72
1, 415300, Control_c, 0, 64, 72
1, 415300, Control_c, 0, 67, 14
1, 415305, Note_off_c, 0, 32, 65
1, 415309, Note_off_c, 0, 72, 67
1, 415315, Control_c, 0, 64, 91
1, 415315, Control_c, 0, 67, 13
1, 415322, Note_off_c, 0, 44, 64
1, 415330, Control_c, 0, 64, 127
1, 415330, Control_c, 0, 67, 13
1, 415332, Note_off_c, 0, 80, 66
1, 415345, Control_c, 0, 67, 12
1, 415360, Control_c, 0, 67, 11
1, 415374, Control_c, 0, 67, 10
1, 415389, Control_c, 0, 67, 8
1, 415404, Control_c, 0, 67, 0
1, 415522, Note_on_c, 0, 56, 96
1, 415527, Note_on_c, 0, 51, 78
1, 415528, Note_on_c, 0, 72, 86
1, 415528, Note_on_c, 0, 75, 87
1, 415528, Note_on_c, 0, 84, 87
1, 415533, Note_on_c, 0, 48, 83
1, 415546, Note_off_c, 0, 72, 73
1, 415549, Note_off_c, 0, 75, 67
1, 415564, Note_off_c, 0, 56, 65
1, 415570, Note_off_c, 0, 84, 59
1, 415593, Note_off_c, 0, 48, 65
1, 415594, Note_off_c, 0, 51, 62
1, 415621, Note_on_c, 0, 82, 79
1, 415672, Note_off_c, 0, 82, 63
1, 415723, Note_on_c, 0, 80, 66
1, 415741, Note_off_c, 0, 80, 63
1, 415808, Note_on_c, 0, 79, 84
1, 415829, Note_off_c, 0, 79, 69
1, 415835, Note_on_c, 0, 80, 24
1, 415872, Note_off_c, 0, 80, 51
1, 415931, Note_on_c, 0, 50, 89
1, 415934, Note_on_c, 0, 78, 93
1, 415937, Note_on_c, 0, 38, 78
1, 415940, Note_on_c, 0, 69, 82
1, 415953, Note_off_c, 0, 50, 71
1, 415960, Note_off_c, 0, 69, 74
1, 415960, Control_c, 0, 64, 105
1, 415964, Note_off_c, 0, 78, 50
1, 415975, Control_c, 0, 64, 85
1, 415975, Control_c, 0, 67, 8
1, 415983, Note_off_c, 0, 38, 63
1, 415990, Control_c, 0, 64, 63
1, 416005, Control_c, 0, 64, 0
1, 416023, Note_on_c, 0, 74, 84
1, 416060, Note_off_c, 0, 74, 67
1, 416138, Control_c, 0, 67, 0
1, 416168, Note_on_c, 0, 70, 94
1, 416170, Note_on_c, 0, 79, 95
1, 416172, Note_on_c, 0, 67, 84
1, 416177, Note_on_c, 0, 43, 89
1, 416180, Note_on_c, 0, 31, 75
1, 416183, Control_c, 0, 64, 64
1, 416197, Control_c, 0, 64, 80
1, 416212, Control_c, 0, 64, 107
1, 416227, Control_c, 0, 64, 127
1, 416236, Note_off_c, 0, 31, 63
1, 416236, Note_off_c, 0, 43, 62
1, 416237, Note_off_c, 0, 67, 59
1, 416271, Control_c, 0, 67, 8
1, 416276, Note_off_c, 0, 79, 58
1, 416279, Note_off_c, 0, 70, 59
1, 416286, Control_c, 0, 67, 11
1, 416301, Control_c, 0, 67, 14
1, 416317, Control_c, 0, 67, 18
1, 416332, Control_c, 0, 67, 31
1, 416346, Control_c, 0, 67, 56
1, 416361, Control_c, 0, 67, 86
1, 416376, Control_c, 0, 67, 114
1, 416391, Control_c, 0, 67, 127
1, 416435, Control_c, 0, 64, 112
1, 416450, Control_c, 0, 64, 93
1, 416465, Control_c, 0, 64, 73
1, 416480, Control_c, 0, 64, 0
1, 416832, Note_on_c, 0, 79, 75
1, 416843, Control_c, 0, 64, 65
1, 416858, Control_c, 0, 64, 73
1, 416872, Control_c, 0, 64, 81
1, 416887, Control_c, 0, 64, 90
1, 416902, Control_c, 0, 64, 98
1, 416917, Control_c, 0, 64, 104
1, 416919, Note_off_c, 0, 79, 58
1, 416932, Control_c, 0, 64, 109
1, 416946, Control_c, 0, 64, 113
1, 416961, Control_c, 0, 64, 118
1, 416976, Control_c, 0, 64, 121
1, 416991, Control_c, 0, 64, 124
1, 417006, Control_c, 0, 64, 125
1, 417020, Control_c, 0, 64, 126
1, 417140, Control_c, 0, 64, 124
1, 417155, Control_c, 0, 64, 111
1, 417169, Control_c, 0, 64, 93
1, 417171, Note_on_c, 0, 78, 82
1, 417184, Control_c, 0, 64, 69
1, 417192, Note_on_c, 0, 36, 49
1, 417199, Control_c, 0, 64, 0
1, 417273, Control_c, 0, 64, 64
1, 417285, Note_off_c, 0, 36, 65
1, 417288, Control_c, 0, 64, 79
1, 417302, Control_c, 0, 64, 95
1, 417317, Control_c, 0, 64, 110
1, 417332, Control_c, 0, 64, 117
1, 417347, Control_c, 0, 64, 121
1, 417361, Control_c, 0, 64, 125
1, 417376, Control_c, 0, 64, 127
1, 417505, Note_on_c, 0, 55, 50
1, 417516, Note_on_c, 0, 63, 49
1, 417524, Note_on_c, 0, 60, 37
1, 417540, Note_off_c, 0, 55, 61
1, 417562, Note_off_c, 0, 63, 47
1, 417579, Note_off_c, 0, 60, 48
1, 417585, Note_on_c, 0, 79, 78
1, 417612, Note_off_c, 0, 78, 61
1, 417682, Note_on_c, 0, 63, 44
1, 417683, Note_on_c, 0, 80, 74
1, 417692, Note_off_c, 0, 79, 56
1, 417694, Note_on_c, 0, 60, 45
1, 417708, Note_off_c, 0, 63, 54
1, 417719, Note_off_c, 0, 60, 53
1, 417734, Poly_aftertouch_c, 0, 55, 127
1, 417772, Poly_aftertouch_c, 0, 55, 0
1, 417779, Note_on_c, 0, 79, 81
1, 417815, Note_off_c, 0, 80, 59
1, 417888, Control_c, 0, 64, 110
1, 417898, Note_on_c, 0, 43, 68
1, 417900, Note_on_c, 0, 78, 82
1, 417902, Control_c, 0, 64, 89
1, 417918, Control_c, 0, 64, 67
1, 417919, Note_off_c, 0, 79, 60
1, 417933, Control_c, 0, 64, 0
1, 417953, Note_off_c, 0, 43, 58
1, 417978, Control_c, 0, 64, 64
1, 417992, Control_c, 0, 64, 76
1, 418007, Control_c, 0, 64, 91
1, 418022, Control_c, 0, 64, 107
1, 418037, Control_c, 0, 64, 117
1, 418052, Control_c, 0, 64, 119
1, 418066, Control_c, 0, 64, 121
1, 418081, Control_c, 0, 64, 124
1, 418096, Control_c, 0, 64, 127
1, 418147, Note_on_c, 0, 63, 55
1, 418148, Note_on_c, 0, 55, 43
1, 418149, Note_on_c, 0, 60, 47
1, 418185, Note_off_c, 0, 78, 62
1, 418190, Note_off_c, 0, 55, 47
1, 418191, Note_off_c, 0, 63, 59
1, 418200, Note_off_c, 0, 60, 56
1, 418211, Note_on_c, 0, 77, 73
1, 418302, Note_on_c, 0, 55, 50
1, 418305, Note_off_c, 0, 77, 53
1, 418306, Note_on_c, 0, 76, 74
1, 418312, Note_on_c, 0, 60, 40
1, 418330, Note_off_c, 0, 55, 66
1, 418337, Note_off_c, 0, 60, 52
1, 418367, Poly_aftertouch_c, 0, 63, 0
1, 418384, Note_off_c, 0, 76, 64
1, 418384, Note_on_c, 0, 75, 78
1, 418473, Control_c, 0, 64, 112
1, 418488, Control_c, 0, 64, 91
1, 418503, Control_c, 0, 64, 69
1, 418511, Note_on_c, 0, 36, 62
1, 418517, Note_off_c, 0, 75, 59
1, 418517, Control_c, 0, 64, 0
1, 418521, Note_on_c, 0, 76, 75
1, 418555, Note_off_c, 0, 36, 65
1, 418577, Control_c, 0, 64, 68
1, 418591, Control_c, 0, 64, 79
1, 418606, Control_c, 0, 64, 93
1, 418621, Control_c, 0, 64, 106
1, 418636, Control_c, 0, 64, 110
1, 418650, Control_c, 0, 64, 112
1, 418665, Control_c, 0, 64, 114
1, 418680, Control_c, 0, 64, 117
1, 418695, Control_c, 0, 64, 120
1, 418711, Control_c, 0, 64, 122
1, 418726, Control_c, 0, 64, 125
1, 418737, Note_on_c, 0, 55, 48
1, 418740, Control_c, 0, 64, 127
1, 418742, Note_on_c, 0, 63, 53
1, 418744, Note_on_c, 0, 60, 44
1, 418774, Note_off_c, 0, 63, 50
1, 418778, Note_off_c, 0, 55, 60
1, 418783, Note_off_c, 0, 60, 50
1, 418810, Note_on_c, 0, 77, 76
1, 418816, Note_off_c, 0, 76, 61
1, 418874, Note_off_c, 0, 77, 59
1, 418903, Note_on_c, 0, 78, 76
1, 418909, Note_on_c, 0, 60, 55
1, 418912, Note_on_c, 0, 55, 50
1, 418935, Note_off_c, 0, 60, 63
1, 418945, Note_off_c, 0, 55, 65
1, 418977, Poly_aftertouch_c, 0, 63, 0
1, 418984, Note_on_c, 0, 77, 79
1, 418994, Note_off_c, 0, 78, 59
1, 419059, Control_c, 0, 64, 110
1, 419064, Note_off_c, 0, 77, 59
1, 419073, Control_c, 0, 64, 90
1, 419088, Control_c, 0, 64, 69
1, 419103, Control_c, 0, 64, 0
1, 419105, Note_on_c, 0, 43, 66
1, 419113, Note_on_c, 0, 76, 74
1, 419133, Control_c, 0, 64, 55
1, 419139, Note_off_c, 0, 43, 61
1, 419147, Control_c, 0, 64, 71
1, 419162, Control_c, 0, 64, 83
1, 419176, Note_off_c, 0, 76, 66
1, 419177, Control_c, 0, 64, 98
1, 419192, Control_c, 0, 64, 112
1, 419207, Control_c, 0, 64, 118
1, 419222, Control_c, 0, 64, 122
1, 419222, Control_c, 0, 67, 118
1, 419236, Control_c, 0, 64, 127
1, 419236, Control_c, 0, 67, 99
1, 419251, Control_c, 0, 67, 79
1, 419266, Control_c, 0, 67, 56
1, 419281, Control_c, 0, 67, 31
1, 419296, Control_c, 0, 67, 10
1, 419308, Note_on_c, 0, 75, 69
1, 419311, Control_c, 0, 67, 0
1, 419395, Note_on_c, 0, 74, 73
1, 419404, Note_off_c, 0, 75, 63
1, 419459, Note_on_c, 0, 55, 65
1, 419469, Note_on_c, 0, 60, 32
1, 419473, Note_off_c, 0, 74, 58
1, 419483, Note_on_c, 0, 71, 72
1, 419485, Note_off_c, 0, 55, 66
1, 419502, Note_off_c, 0, 60, 42
1, 419522, Note_off_c, 0, 71, 59
1, 419560, Note_on_c, 0, 66, 79
1, 419587, Note_off_c, 0, 66, 68
1, 419690, Control_c, 0, 64, 97
1, 419691, Note_on_c, 0, 36, 76
1, 419692, Note_on_c, 0, 61, 84
1, 419704, Control_c, 0, 64, 73
1, 419719, Control_c, 0, 64, 0
1, 419749, Control_c, 0, 64, 11
1, 419764, Control_c, 0, 64, 65
1, 419774, Note_on_c, 0, 42, 77
1, 419777, Note_off_c, 0, 36, 63
1, 419778, Control_c, 0, 64, 78
1, 419793, Control_c, 0, 64, 91
1, 419808, Control_c, 0, 64, 103
1, 419823, Control_c, 0, 64, 109
1, 419837, Control_c, 0, 64, 113
1, 419852, Control_c, 0, 64, 117
1, 419853, Note_off_c, 0, 42, 63
1, 419866, Note_on_c, 0, 50, 77
1, 419867, Control_c, 0, 64, 127
1, 419870, Note_off_c, 0, 61, 60
1, 419882, Control_c, 0, 64, 127
1, 419913, Note_off_c, 0, 50, 60
1, 419920, Note_on_c, 0, 62, 76
1, 419952, Note_on_c, 0, 45, 76
1, 420010, Note_off_c, 0, 45, 63
1, 420017, Note_on_c, 0, 66, 72
1, 420018, Note_off_c, 0, 62, 53
1, 420058, Note_on_c, 0, 57, 72
1, 420089, Note_off_c, 0, 57, 62
1, 420092, Note_on_c, 0, 69, 80
1, 420102, Note_off_c, 0, 66, 66
1, 420113, Note_off_c, 0, 69, 73
1, 420140, Poly_aftertouch_c, 0, 55, 127
1, 420170, Poly_aftertouch_c, 0, 55, 0
1, 420223, Control_c, 0, 64, 105
1, 420237, Control_c, 0, 64, 82
1, 420252, Control_c, 0, 64, 0
1, 420256, Note_on_c, 0, 43, 64
1, 420258, Note_on_c, 0, 80, 77
1, 420295, Note_off_c, 0, 43, 63
1, 420327, Control_c, 0, 64, 57
1, 420342, Control_c, 0, 64, 74
1, 420357, Control_c, 0, 64, 89
1, 420372, Control_c, 0, 64, 106
1, 420393, Control_c, 0, 64, 117
1, 420408, Control_c, 0, 64, 121
1, 420423, Control_c, 0, 64, 123
1, 420438, Control_c, 0, 64, 127
1, 420494, Note_on_c, 0, 60, 55
1, 420497, Note_on_c, 0, 63, 52
1, 420503, Note_on_c, 0, 56, 49
1, 420530, Note_off_c, 0, 63, 53
1, 420531, Note_off_c, 0, 80, 53
1, 420553, Note_off_c, 0, 56, 57
1, 420554, Note_off_c, 0, 60, 52
1, 420557, Note_on_c, 0, 79, 68
1, 420640, Note_on_c, 0, 63, 53
1, 420646, Note_on_c, 0, 75, 74
1, 420656, Note_off_c, 0, 79, 57
1, 420658, Note_off_c, 0, 63, 63
1, 420662, Note_on_c, 0, 60, 41
1, 420664, Note_on_c, 0, 56, 54
1, 420688, Note_off_c, 0, 60, 52
1, 420688, Note_off_c, 0, 56, 63
1, 420700, Note_off_c, 0, 75, 64
1, 420723, Note_on_c, 0, 72, 66
1, 420750, Note_off_c, 0, 72, 69
1, 420823, Control_c, 0, 64, 118
1, 420825, Note_on_c, 0, 36, 76
1, 420837, Control_c, 0, 64, 93
1, 420851, Note_on_c, 0, 61, 85
1, 420852, Control_c, 0, 64, 68
1, 420867, Control_c, 0, 64, 0
1, 420889, Note_off_c, 0, 36, 60
1, 420912, Control_c, 0, 64, 65
1, 420924, Note_on_c, 0, 45, 56
1, 420927, Control_c, 0, 64, 78
1, 420941, Control_c, 0, 64, 92
1, 420951, Note_off_c, 0, 61, 59
1, 420952, Note_off_c, 0, 45, 64
1, 420956, Control_c, 0, 64, 105
1, 420971, Control_c, 0, 64, 113
1, 420986, Control_c, 0, 64, 118
1, 421001, Control_c, 0, 64, 122
1, 421016, Control_c, 0, 64, 127
1, 421024, Note_on_c, 0, 62, 85
1, 421028, Note_on_c, 0, 54, 80
1, 421073, Note_off_c, 0, 62, 59
1, 421099, Note_off_c, 0, 54, 44
1, 421105, Note_on_c, 0, 66, 83
1, 421105, Note_on_c, 0, 49, 81
1, 421192, Note_off_c, 0, 66, 64
1, 421196, Note_off_c, 0, 49, 59
1, 421202, Note_on_c, 0, 69, 70
1, 421204, Note_on_c, 0, 62, 63
1, 421213, Note_on_c, 0, 54, 80
1, 421260, Note_off_c, 0, 54, 58
1, 421260, Note_off_c, 0, 62, 57
1, 421263, Note_on_c, 0, 66, 75
1, 421264, Note_on_c, 0, 74, 64
1, 421268, Note_off_c, 0, 69, 65
1, 421289, Note_off_c, 0, 74, 70
1, 421292, Note_off_c, 0, 66, 68
1, 421378, Note_on_c, 0, 66, 86
1, 421410, Control_c, 0, 64, 115
1, 421422, Note_off_c, 0, 66, 66
1, 421424, Control_c, 0, 64, 90
1, 421439, Control_c, 0, 64, 66
1, 421451, Note_on_c, 0, 80, 85
1, 421454, Control_c, 0, 64, 0
1, 421460, Note_on_c, 0, 51, 65
1, 421465, Note_on_c, 0, 39, 57
1, 421514, Control_c, 0, 64, 70
1, 421529, Control_c, 0, 64, 84
1, 421543, Control_c, 0, 64, 101
1, 421558, Control_c, 0, 64, 112
1, 421573, Control_c, 0, 64, 113
1, 421574, Note_off_c, 0, 51, 59
1, 421588, Control_c, 0, 64, 114
1, 421600, Note_off_c, 0, 80, 62
1, 421603, Control_c, 0, 64, 117
1, 421612, Note_off_c, 0, 39, 61
1, 421617, Control_c, 0, 64, 124
1, 421632, Control_c, 0, 64, 127
1, 421676, Control_c, 0, 64, 111
1, 421677, Note_on_c, 0, 78, 85
1, 421680, Note_on_c, 0, 70, 74
1, 421691, Control_c, 0, 64, 88
1, 421706, Control_c, 0, 64, 66
1, 421721, Control_c, 0, 64, 0
1, 421736, Note_off_c, 0, 70, 56
1, 421740, Note_on_c, 0, 38, 57
1, 421750, Control_c, 0, 64, 66
1, 421765, Control_c, 0, 64, 75
1, 421780, Control_c, 0, 64, 88
1, 421795, Control_c, 0, 64, 99
1, 421803, Note_off_c, 0, 38, 62
1, 421806, Note_on_c, 0, 39, 61
1, 421808, Note_off_c, 0, 78, 60
1, 421809, Control_c, 0, 64, 107
1, 421824, Control_c, 0, 64, 114
1, 421839, Control_c, 0, 64, 116
1, 421854, Control_c, 0, 64, 116
1, 421869, Control_c, 0, 64, 105
1, 421891, Control_c, 0, 64, 88
1, 421901, Note_on_c, 0, 79, 84
1, 421906, Control_c, 0, 64, 68
1, 421913, Note_off_c, 0, 39, 58
1, 421916, Note_on_c, 0, 71, 67
1, 421922, Control_c, 0, 64, 0
1, 421928, Note_on_c, 0, 38, 56
1, 421966, Control_c, 0, 64, 49
1, 421971, Note_off_c, 0, 38, 62
1, 421981, Control_c, 0, 64, 73
1, 421988, Note_off_c, 0, 71, 56
1, 421996, Control_c, 0, 64, 86
1, 422011, Control_c, 0, 64, 100
1, 422026, Control_c, 0, 64, 107
1, 422028, Note_off_c, 0, 79, 56
1, 422040, Control_c, 0, 64, 109
1, 422055, Control_c, 0, 64, 112
1, 422070, Control_c, 0, 64, 117
1, 422085, Control_c, 0, 64, 121
1, 422099, Control_c, 0, 64, 124
1, 422114, Control_c, 0, 64, 126
1, 422129, Control_c, 0, 64, 127
1, 422188, Control_c, 0, 64, 111
1, 422203, Control_c, 0, 64, 91
1, 422211, Note_on_c, 0, 78, 81
1, 422218, Control_c, 0, 64, 68
1, 422221, Note_on_c, 0, 36, 58
1, 422233, Control_c, 0, 64, 0
1, 422277, Control_c, 0, 64, 18
1, 422292, Control_c, 0, 64, 70
1, 422296, Note_off_c, 0, 36, 64
1, 422307, Control_c, 0, 64, 82
1, 422322, Control_c, 0, 64, 98
1, 422337, Control_c, 0, 64, 111
1, 422351, Control_c, 0, 64, 117
1, 422366, Control_c, 0, 64, 120
1, 422381, Control_c, 0, 64, 124
1, 422396, Control_c, 0, 64, 127
1, 422491, Note_on_c, 0, 55, 53
1, 422499, Note_on_c, 0, 63, 50
1, 422527, Note_off_c, 0, 63, 58
1, 422536, Poly_aftertouch_c, 0, 61, 0
1, 422540, Note_off_c, 0, 55, 57
1, 422572, Note_on_c, 0, 79, 75
1, 422592, Note_off_c, 0, 78, 53
1, 422600, Poly_aftertouch_c, 0, 60, 0
1, 422667, Note_on_c, 0, 63, 46
1, 422671, Note_on_c, 0, 60, 50
1, 422676, Note_on_c, 0, 80, 78
1, 422677, Note_off_c, 0, 79, 58
1, 422679, Note_on_c, 0, 55, 46
1, 422689, Note_off_c, 0, 63, 58
1, 422693, Note_off_c, 0, 60, 58
1, 422713, Note_off_c, 0, 55, 53
1, 422760, Note_on_c, 0, 79, 75
1, 422770, Note_off_c, 0, 80, 53
1, 422849, Control_c, 0, 64, 119
1, 422863, Control_c, 0, 64, 96
1, 422873, Note_on_c, 0, 78, 78
1, 422876, Note_on_c, 0, 43, 70
1, 422878, Control_c, 0, 64, 74
1, 422891, Note_off_c, 0, 79, 57
1, 422893, Control_c, 0, 64, 0
1, 422922, Note_off_c, 0, 43, 61
1, 422937, Control_c, 0, 64, 68
1, 422952, Control_c, 0, 64, 81
1, 422967, Control_c, 0, 64, 96
1, 422981, Control_c, 0, 64, 109
1, 422996, Control_c, 0, 64, 115
1, 423011, Control_c, 0, 64, 117
1, 423026, Control_c, 0, 64, 121
1, 423041, Control_c, 0, 64, 127
1, 423101, Note_on_c, 0, 63, 61
1, 423106, Note_on_c, 0, 60, 49
1, 423108, Note_on_c, 0, 55, 46
1, 423138, Note_off_c, 0, 63, 61
1, 423141, Note_off_c, 0, 55, 53
1, 423154, Note_off_c, 0, 60, 58
1, 423172, Note_on_c, 0, 77, 72
1, 423188, Note_off_c, 0, 78, 62
1, 423242, Note_off_c, 0, 77, 59
1, 423251, Note_on_c, 0, 55, 50
1, 423258, Note_on_c, 0, 63, 33
1, 423261, Note_on_c, 0, 60, 52
1, 423267, Note_on_c, 0, 76, 71
1, 423283, Note_off_c, 0, 63, 56
1, 423284, Note_off_c, 0, 60, 56
1, 423286, Note_off_c, 0, 55, 65
1, 423347, Note_on_c, 0, 75, 77
1, 423354, Note_off_c, 0, 76, 58
1, 423478, Control_c, 0, 64, 100
1, 423493, Control_c, 0, 64, 78
1, 423496, Note_off_c, 0, 75, 63
1, 423508, Control_c, 0, 64, 0
1, 423510, Note_on_c, 0, 36, 55
1, 423519, Note_on_c, 0, 86, 82
1, 423553, Control_c, 0, 64, 64
1, 423568, Control_c, 0, 64, 73
1, 423583, Note_off_c, 0, 36, 64
1, 423583, Control_c, 0, 64, 83
1, 423597, Control_c, 0, 64, 97
1, 423612, Control_c, 0, 64, 108
1, 423623, Note_off_c, 0, 86, 63
1, 423627, Control_c, 0, 64, 117
1, 423642, Control_c, 0, 64, 124
1, 423656, Control_c, 0, 64, 127
1, 423741, Note_on_c, 0, 67, 67
1, 423818, Note_on_c, 0, 75, 69
1, 423823, Note_off_c, 0, 67, 52
1, 423883, Note_off_c, 0, 75, 45
1, 423908, Note_on_c, 0, 60, 61
1, 423913, Note_on_c, 0, 74, 69
1, 423930, Note_on_c, 0, 55, 48
1, 423937, Note_off_c, 0, 60, 64
1, 423955, Note_off_c, 0, 55, 61
1, 423964, Note_off_c, 0, 74, 60
1, 423997, Note_on_c, 0, 72, 74
1, 424094, Note_off_c, 0, 72, 59
1, 424101, Control_c, 0, 64, 117
1, 424116, Control_c, 0, 64, 93
1, 424137, Control_c, 0, 64, 69
1, 424149, Note_on_c, 0, 83, 74
1, 424149, Note_on_c, 0, 39, 56
1, 424152, Control_c, 0, 64, 0
1, 424197, Control_c, 0, 64, 66
1, 424212, Control_c, 0, 64, 78
1, 424213, Note_off_c, 0, 39, 64
1, 424226, Control_c, 0, 64, 94
1, 424241, Control_c, 0, 64, 109
1, 424256, Control_c, 0, 64, 116
1, 424265, Note_off_c, 0, 83, 55
1, 424271, Control_c, 0, 64, 118
1, 424286, Control_c, 0, 64, 120
1, 424301, Control_c, 0, 64, 123
1, 424316, Control_c, 0, 64, 127
1, 424345, Note_on_c, 0, 79, 68
1, 424372, Note_on_c, 0, 62, 50
1, 424403, Note_off_c, 0, 62, 50
1, 424411, Note_on_c, 0, 60, 4
1, 424432, Note_on_c, 0, 75, 69
1, 424439, Note_off_c, 0, 79, 56
1, 424461, Note_off_c, 0, 60, 26
1, 424484, Note_off_c, 0, 75, 63
1, 424504, Note_on_c, 0, 55, 64
1, 424522, Note_on_c, 0, 51, 56
1, 424525, Note_on_c, 0, 67, 73
1, 424532, Note_off_c, 0, 55, 66
1, 424547, Note_off_c, 0, 51, 53
1, 424548, Note_off_c, 0, 67, 66
1, 424614, Note_on_c, 0, 60, 78
1, 424716, Control_c, 0, 64, 125
1, 424725, Note_on_c, 0, 36, 81
1, 424731, Control_c, 0, 64, 101
1, 424732, Note_on_c, 0, 61, 86
1, 424746, Note_off_c, 0, 60, 48
1, 424746, Control_c, 0, 64, 75
1, 424760, Control_c, 0, 64, 0
1, 424808, Note_off_c, 0, 36, 63
1, 424810, Note_on_c, 0, 42, 79
1, 424820, Control_c, 0, 64, 66
1, 424835, Control_c, 0, 64, 80
1, 424849, Control_c, 0, 64, 94
1, 424864, Control_c, 0, 64, 107
1, 424886, Control_c, 0, 64, 112
1, 424901, Control_c, 0, 64, 114
1, 424902, Note_off_c, 0, 42, 63
1, 424916, Control_c, 0, 64, 116
1, 424919, Note_on_c, 0, 50, 79
1, 424931, Control_c, 0, 64, 119
1, 424936, Note_off_c, 0, 61, 62
1, 424946, Control_c, 0, 64, 120
1, 424960, Control_c, 0, 64, 121
1, 424969, Note_off_c, 0, 50, 61
1, 424975, Control_c, 0, 64, 122
1, 424982, Note_on_c, 0, 62, 75
1, 424990, Control_c, 0, 64, 122
1, 425005, Control_c, 0, 64, 123
1, 425007, Note_on_c, 0, 45, 81
1, 425034, Control_c, 0, 64, 124
1, 425047, Note_off_c, 0, 62, 57
1, 425049, Control_c, 0, 64, 124
1, 425064, Note_off_c, 0, 45, 64
1, 425064, Control_c, 0, 64, 125
1, 425079, Control_c, 0, 64, 125
1, 425091, Note_on_c, 0, 66, 68
1, 425094, Control_c, 0, 64, 126
1, 425109, Control_c, 0, 64, 126
1, 425117, Note_on_c, 0, 57, 73
1, 425124, Control_c, 0, 64, 127
1, 425139, Control_c, 0, 64, 127
1, 425156, Note_off_c, 0, 57, 59
1, 425163, Note_on_c, 0, 69, 72
1, 425168, Note_off_c, 0, 66, 66
1, 425186, Note_off_c, 0, 69, 72
1, 425273, Control_c, 0, 64, 115
1, 425288, Control_c, 0, 64, 93
1, 425303, Control_c, 0, 64, 70
1, 425317, Control_c, 0, 64, 0
1, 425326, Note_on_c, 0, 43, 66
1, 425330, Note_on_c, 0, 80, 76
1, 425365, Note_off_c, 0, 43, 63
1, 425392, Control_c, 0, 64, 64
1, 425407, Control_c, 0, 64, 75
1, 425422, Control_c, 0, 64, 90
1, 425436, Control_c, 0, 64, 103
1, 425451, Control_c, 0, 64, 108
1, 425466, Control_c, 0, 64, 110
1, 425481, Control_c, 0, 64, 113
1, 425496, Control_c, 0, 64, 116
1, 425510, Control_c, 0, 64, 120
1, 425525, Control_c, 0, 64, 122
1, 425540, Control_c, 0, 64, 124
1, 425555, Control_c, 0, 64, 126
1, 425562, Note_on_c, 0, 63, 59
1, 425568, Note_on_c, 0, 60, 60
1, 425570, Control_c, 0, 64, 127
1, 425571, Note_on_c, 0, 56, 53
1, 425608, Note_off_c, 0, 63, 57
1, 425613, Note_off_c, 0, 80, 55
1, 425627, Note_off_c, 0, 60, 58
1, 425636, Note_off_c, 0, 56, 56
1, 425645, Note_on_c, 0, 79, 63
1, 425724, Note_on_c, 0, 63, 61
1, 425726, Note_on_c, 0, 75, 73
1, 425741, Note_on_c, 0, 56, 57
1, 425744, Note_on_c, 0, 60, 45
1, 425747, Note_off_c, 0, 63, 60
1, 425747, Note_off_c, 0, 79, 60
1, 425769, Note_off_c, 0, 56, 65
1, 425769, Note_off_c, 0, 60, 54
1, 425783, Note_off_c, 0, 75, 63
1, 425806, Note_on_c, 0, 72, 63
1, 425828, Note_off_c, 0, 72, 67
1, 425902, Control_c, 0, 64, 121
1, 425910, Note_on_c, 0, 36, 72
1, 425918, Control_c, 0, 64, 97
1, 425928, Note_on_c, 0, 61, 88
1, 425932, Control_c, 0, 64, 74
1, 425947, Control_c, 0, 64, 0
1, 425973, Note_off_c, 0, 36, 54
1, 425992, Control_c, 0, 64, 42
1, 426000, Note_on_c, 0, 45, 66
1, 426006, Control_c, 0, 64, 70
1, 426021, Control_c, 0, 64, 83
1, 426035, Note_off_c, 0, 45, 64
1, 426036, Control_c, 0, 64, 100
1, 426047, Note_off_c, 0, 61, 61
1, 426051, Control_c, 0, 64, 114
1, 426066, Control_c, 0, 64, 120
1, 426081, Control_c, 0, 64, 125
1, 426095, Control_c, 0, 64, 127
1, 426122, Note_on_c, 0, 54, 81
1, 426124, Note_on_c, 0, 62, 82
1, 426173, Note_off_c, 0, 62, 59
1, 426177, Note_off_c, 0, 54, 59
1, 426199, Note_on_c, 0, 66, 83
1, 426200, Note_on_c, 0, 49, 75
1, 426274, Note_off_c, 0, 49, 60
1, 426277, Note_off_c, 0, 66, 59
1, 426290, Note_on_c, 0, 69, 73
1, 426291, Note_on_c, 0, 54, 80
1, 426293, Note_on_c, 0, 62, 64
1, 426334, Note_off_c, 0, 54, 60
1, 426349, Note_off_c, 0, 62, 61
1, 426352, Note_off_c, 0, 69, 66
1, 426354, Note_on_c, 0, 74, 67
1, 426355, Note_on_c, 0, 66, 76
1, 426386, Note_off_c, 0, 66, 70
1, 426386, Note_off_c, 0, 74, 69
1, 426488, Control_c, 0, 64, 123
1, 426503, Control_c, 0, 64, 94
1, 426518, Control_c, 0, 64, 69
1, 426530, Note_on_c, 0, 47, 83
1, 426531, Note_on_c, 0, 67, 90
1, 426532, Note_on_c, 0, 79, 91
1, 426532, Control_c, 0, 64, 0
1, 426544, Note_on_c, 0, 35, 64
1, 426568, Note_on_c, 0, 69, 36
1, 426569, Note_off_c, 0, 69, 127
1, 426577, Control_c, 0, 64, 58
1, 426592, Control_c, 0, 64, 74
1, 426606, Control_c, 0, 64, 89
1, 426621, Control_c, 0, 64, 105
1, 426623, Note_off_c, 0, 47, 54
1, 426636, Control_c, 0, 64, 111
1, 426647, Note_off_c, 0, 67, 58
1, 426651, Control_c, 0, 64, 113
1, 426656, Note_off_c, 0, 35, 62
1, 426665, Control_c, 0, 64, 118
1, 426680, Note_off_c, 0, 79, 62
1, 426680, Control_c, 0, 64, 127
1, 426741, Control_c, 0, 64, 116
1, 426755, Control_c, 0, 64, 87
1, 426766, Note_on_c, 0, 45, 91
1, 426766, Note_on_c, 0, 81, 93
1, 426766, Note_on_c, 0, 69, 94
1, 426770, Control_c, 0, 64, 65
1, 426775, Note_on_c, 0, 33, 76
1, 426785, Control_c, 0, 64, 0
1, 426800, Control_c, 0, 64, 45
1, 426814, Note_off_c, 0, 69, 53
1, 426815, Control_c, 0, 64, 69
1, 426820, Note_off_c, 0, 45, 63
1, 426829, Control_c, 0, 64, 81
1, 426844, Note_off_c, 0, 33, 62
1, 426844, Control_c, 0, 64, 94
1, 426859, Control_c, 0, 64, 105
1, 426874, Control_c, 0, 64, 107
1, 426888, Control_c, 0, 64, 109
1, 426891, Note_off_c, 0, 81, 59
1, 426903, Control_c, 0, 64, 112
1, 426915, Note_on_c, 0, 78, 72
1, 426918, Control_c, 0, 64, 117
1, 426933, Control_c, 0, 64, 119
1, 426942, Note_on_c, 0, 80, 70
1, 426963, Control_c, 0, 64, 113
1, 426970, Note_off_c, 0, 78, 63
1, 426978, Control_c, 0, 64, 94
1, 426993, Control_c, 0, 64, 70
1, 427000, Note_on_c, 0, 82, 72
1, 427005, Note_off_c, 0, 80, 59
1, 427008, Control_c, 0, 64, 0
1, 427015, Note_on_c, 0, 31, 77
1, 427019, Note_on_c, 0, 43, 87
1, 427021, Note_on_c, 0, 71, 87
1, 427021, Note_on_c, 0, 83, 87
1, 427058, Note_off_c, 0, 31, 64
1, 427067, Control_c, 0, 64, 30
1, 427072, Note_off_c, 0, 82, 59
1, 427077, Note_off_c, 0, 43, 63
1, 427081, Control_c, 0, 64, 70
1, 427096, Control_c, 0, 64, 84
1, 427111, Control_c, 0, 64, 103
1, 427133, Control_c, 0, 64, 121
1, 427148, Control_c, 0, 64, 127
1, 427210, Note_off_c, 0, 71, 52
1, 427237, Note_off_c, 0, 83, 58
1, 427349, Note_on_c, 0, 84, 97
1, 427350, Note_on_c, 0, 72, 93
1, 427355, Control_c, 0, 64, 126
1, 427360, Note_on_c, 0, 60, 82
1, 427370, Control_c, 0, 64, 93
1, 427385, Control_c, 0, 64, 67
1, 427399, Control_c, 0, 64, 0
1, 427444, Control_c, 0, 64, 66
1, 427449, Note_off_c, 0, 60, 61
1, 427455, Note_on_c, 0, 53, 77
1, 427459, Control_c, 0, 64, 78
1, 427473, Control_c, 0, 64, 95
1, 427488, Control_c, 0, 64, 115
1, 427504, Control_c, 0, 64, 127
1, 427538, Note_on_c, 0, 48, 80
1, 427545, Note_off_c, 0, 53, 65
1, 427570, Note_off_c, 0, 48, 69
1, 427671, Note_on_c, 0, 80, 71
1, 427675, Note_on_c, 0, 41, 84
1, 427677, Note_on_c, 0, 77, 62
1, 427682, Note_on_c, 0, 29, 76
1, 427687, Note_off_c, 0, 72, 63
1, 427702, Note_off_c, 0, 84, 60
1, 427709, Note_off_c, 0, 41, 62
1, 427712, Note_off_c, 0, 29, 62
1, 427738, Note_off_c, 0, 77, 55
1, 427756, Note_off_c, 0, 80, 59
1, 427831, Note_on_c, 0, 83, 87
1, 427834, Note_on_c, 0, 71, 86
1, 427842, Note_on_c, 0, 80, 83
1, 427920, Note_off_c, 0, 71, 59
1, 427931, Note_on_c, 0, 77, 70
1, 427994, Note_off_c, 0, 83, 52
1, 428024, Note_on_c, 0, 56, 67
1, 428025, Note_on_c, 0, 71, 67
1, 428027, Note_off_c, 0, 80, 37
1, 428046, Note_off_c, 0, 77, 60
1, 428064, Note_off_c, 0, 56, 63
1, 428071, Note_off_c, 0, 71, 55
1, 428098, Note_on_c, 0, 48, 72
1, 428123, Note_off_c, 0, 48, 67
1, 428183, Note_on_c, 0, 36, 82
1, 428211, Note_off_c, 0, 36, 65
1, 428277, Note_on_c, 0, 80, 81
1, 428280, Note_on_c, 0, 68, 88
1, 428284, Note_on_c, 0, 77, 76
1, 428301, Note_on_c, 0, 59, 76
1, 428324, Note_off_c, 0, 59, 68
1, 428346, Note_off_c, 0, 68, 62
1, 428354, Note_on_c, 0, 71, 69
1, 428382, Note_off_c, 0, 77, 59
1, 428391, Note_off_c, 0, 80, 63
1, 428413, Note_off_c, 0, 71, 61
1, 428424, Note_on_c, 0, 68, 56
1, 428438, Note_off_c, 0, 68, 70
1, 428505, Note_on_c, 0, 80, 73
1, 428530, Note_on_c, 0, 77, 41
1, 428583, Note_off_c, 0, 80, 63
1, 428593, Note_off_c, 0, 77, 41
1, 428631, Note_on_c, 0, 70, 92
1, 428631, Note_on_c, 0, 82, 93
1, 428668, Note_on_c, 0, 78, 31
1, 428669, Note_off_c, 0, 78, 127
1, 428674, Note_on_c, 0, 83, 40
1, 428700, Note_off_c, 0, 83, 35
1, 428707, Note_off_c, 0, 70, 57
1, 428732, Note_off_c, 0, 82, 58
1, 428811, Note_on_c, 0, 61, 63
1, 428813, Note_on_c, 0, 73, 88
1, 428814, Note_on_c, 0, 85, 94
1, 428859, Note_off_c, 0, 61, 59
1, 428874, Note_on_c, 0, 56, 63
1, 428936, Note_on_c, 0, 49, 69
1, 428937, Note_off_c, 0, 56, 64
1, 428966, Note_off_c, 0, 49, 63
1, 428987, Note_off_c, 0, 85, 63
1, 428993, Note_off_c, 0, 73, 59
1, 429061, Note_on_c, 0, 80, 67
1, 429067, Note_on_c, 0, 29, 78
1, 429076, Note_on_c, 0, 41, 69
1, 429100, Note_off_c, 0, 41, 67
1, 429106, Note_off_c, 0, 29, 62
1, 429133, Note_on_c, 0, 83, 67
1, 429137, Note_on_c, 0, 71, 78
1, 429163, Note_off_c, 0, 71, 66
1, 429170, Note_off_c, 0, 83, 59
1, 429181, Note_off_c, 0, 80, 63
1, 429238, Note_on_c, 0, 84, 85
1, 429241, Note_on_c, 0, 72, 71
1, 429246, Note_on_c, 0, 80, 68
1, 429267, Note_off_c, 0, 72, 65
1, 429316, Note_on_c, 0, 77, 68
1, 429339, Poly_aftertouch_c, 0, 71, 0
1, 429344, Note_off_c, 0, 80, 63
1, 429349, Poly_aftertouch_c, 0, 82, 0
1, 429354, Note_off_c, 0, 84, 63
1, 429398, Note_off_c, 0, 77, 56
1, 429400, Note_on_c, 0, 72, 68
1, 429431, Note_off_c, 0, 72, 68
1, 429432, Note_on_c, 0, 48, 69
1, 429500, Note_off_c, 0, 48, 63
1, 429509, Note_on_c, 0, 41, 72
1, 429583, Note_on_c, 0, 36, 65
1, 429587, Note_on_c, 0, 53, 79
1, 429593, Note_off_c, 0, 41, 64
1, 429613, Note_off_c, 0, 36, 65
1, 429642, Note_off_c, 0, 53, 60
1, 429660, Note_on_c, 0, 56, 76
1, 429735, Note_off_c, 0, 56, 58
1, 429872, Note_on_c, 0, 60, 79
1, 429922, Note_off_c, 0, 60, 60
1, 430091, Control_c, 0, 64, 101
1, 430095, Note_on_c, 0, 51, 53
1, 430102, Note_on_c, 0, 63, 75
1, 430106, Control_c, 0, 64, 74
1, 430129, Control_c, 0, 64, 0
1, 430147, Note_off_c, 0, 51, 62
1, 430158, Note_on_c, 0, 44, 56
1, 430203, Control_c, 0, 64, 68
1, 430213, Note_off_c, 0, 44, 62
1, 430218, Control_c, 0, 64, 79
1, 430223, Note_on_c, 0, 39, 59
1, 430232, Control_c, 0, 64, 92
1, 430247, Control_c, 0, 64, 103
1, 430256, Note_off_c, 0, 39, 63
1, 430262, Control_c, 0, 64, 107
1, 430277, Control_c, 0, 64, 112
1, 430292, Control_c, 0, 64, 115
1, 430306, Control_c, 0, 64, 120
1, 430321, Control_c, 0, 64, 123
1, 430334, Note_on_c, 0, 29, 69
1, 430336, Control_c, 0, 64, 126
1, 430337, Note_on_c, 0, 61, 68
1, 430349, Note_on_c, 0, 56, 58
1, 430351, Control_c, 0, 64, 127
1, 430361, Note_on_c, 0, 53, 36
1, 430367, Note_off_c, 0, 29, 61
1, 430368, Note_off_c, 0, 63, 55
1, 430404, Note_off_c, 0, 53, 49
1, 430437, Note_off_c, 0, 56, 57
1, 430523, Note_on_c, 0, 53, 59
1, 430523, Note_on_c, 0, 60, 68
1, 430531, Note_on_c, 0, 56, 55
1, 430537, Note_off_c, 0, 61, 59
1, 430591, Note_off_c, 0, 56, 49
1, 430598, Note_off_c, 0, 53, 56
1, 430636, Note_on_c, 0, 36, 66
1, 430667, Note_off_c, 0, 36, 64
1, 430690, Note_off_c, 0, 60, 57
1, 430692, Control_c, 0, 64, 126
1, 430707, Control_c, 0, 64, 108
1, 430722, Control_c, 0, 64, 87
1, 430728, Note_on_c, 0, 64, 71
1, 430737, Note_on_c, 0, 52, 78
1, 430737, Control_c, 0, 64, 63
1, 430752, Control_c, 0, 64, 0
1, 430781, Control_c, 0, 64, 63
1, 430796, Control_c, 0, 64, 74
1, 430811, Control_c, 0, 64, 86
1, 430826, Control_c, 0, 64, 101
1, 430837, Note_off_c, 0, 52, 57
1, 430841, Control_c, 0, 64, 110
1, 430855, Control_c, 0, 64, 113
1, 430877, Control_c, 0, 64, 114
1, 430892, Control_c, 0, 64, 115
1, 430907, Control_c, 0, 64, 115
1, 430910, Note_off_c, 0, 64, 59
1, 430936, Control_c, 0, 64, 116
1, 430944, Note_on_c, 0, 56, 75
1, 430946, Note_on_c, 0, 65, 74
1, 430951, Control_c, 0, 64, 116
1, 430953, Note_on_c, 0, 60, 66
1, 430981, Control_c, 0, 64, 117
1, 430990, Note_off_c, 0, 56, 61
1, 431008, Note_off_c, 0, 60, 49
1, 431021, Note_off_c, 0, 65, 64
1, 431103, Note_on_c, 0, 68, 77
1, 431107, Note_on_c, 0, 56, 64
1, 431120, Note_on_c, 0, 60, 57
1, 431124, Note_off_c, 0, 56, 67
1, 431142, Note_off_c, 0, 60, 62
1, 431162, Note_off_c, 0, 68, 64
1, 431178, Note_on_c, 0, 29, 68
1, 431208, Note_off_c, 0, 29, 59
1, 431218, Control_c, 0, 64, 118
1, 431233, Control_c, 0, 64, 118
1, 431262, Control_c, 0, 64, 118
1, 431277, Control_c, 0, 64, 104
1, 431280, Note_on_c, 0, 75, 73
1, 431292, Control_c, 0, 64, 84
1, 431307, Control_c, 0, 64, 60
1, 431320, Note_on_c, 0, 53, 81
1, 431321, Control_c, 0, 64, 0
1, 431327, Note_on_c, 0, 73, 78
1, 431336, Note_off_c, 0, 75, 62
1, 431366, Control_c, 0, 64, 62
1, 431381, Control_c, 0, 64, 77
1, 431387, Note_off_c, 0, 73, 62
1, 431396, Control_c, 0, 64, 92
1, 431410, Control_c, 0, 64, 112
1, 431425, Control_c, 0, 64, 122
1, 431437, Note_off_c, 0, 53, 63
1, 431440, Control_c, 0, 64, 125
1, 431455, Control_c, 0, 64, 127
1, 431499, Note_on_c, 0, 72, 79
1, 431506, Note_on_c, 0, 65, 74
1, 431521, Note_on_c, 0, 68, 63
1, 431548, Note_off_c, 0, 65, 44
1, 431565, Note_off_c, 0, 72, 61
1, 431567, Note_on_c, 0, 71, 75
1, 431592, Note_off_c, 0, 68, 63
1, 431626, Note_off_c, 0, 71, 58
1, 431659, Note_on_c, 0, 72, 89
1, 431667, Note_on_c, 0, 65, 74
1, 431676, Note_on_c, 0, 68, 58
1, 431688, Note_off_c, 0, 65, 74
1, 431693, Note_off_c, 0, 68, 66
1, 431709, Note_off_c, 0, 72, 64
1, 431714, Note_on_c, 0, 36, 69
1, 431750, Note_off_c, 0, 36, 64
1, 431864, Control_c, 0, 64, 117
1, 431877, Note_on_c, 0, 56, 87
1, 431878, Control_c, 0, 64, 93
1, 431880, Note_on_c, 0, 76, 94
1, 431892, Control_c, 0, 64, 70
1, 431907, Control_c, 0, 64, 0
1, 431951, Control_c, 0, 64, 66
1, 431966, Control_c, 0, 64, 79
1, 431981, Control_c, 0, 64, 96
1, 431995, Control_c, 0, 64, 114
1, 432008, Note_off_c, 0, 56, 64
1, 432010, Control_c, 0, 64, 120
1, 432025, Control_c, 0, 64, 122
1, 432040, Control_c, 0, 64, 124
1, 432048, Note_off_c, 0, 76, 64
1, 432055, Control_c, 0, 64, 127
1, 432070, Note_on_c, 0, 77, 84
1, 432071, Note_on_c, 0, 72, 83
1, 432072, Note_on_c, 0, 68, 87
1, 432105, Note_off_c, 0, 68, 62
1, 432113, Note_off_c, 0, 72, 62
1, 432144, Note_off_c, 0, 77, 62
1, 432158, Note_on_c, 0, 64, 91
1, 432188, Note_off_c, 0, 64, 66
1, 432257, Note_on_c, 0, 80, 90
1, 432308, Note_off_c, 0, 80, 66
1, 432388, Note_on_c, 0, 28, 73
1, 432433, Note_off_c, 0, 28, 63
1, 432452, Note_on_c, 0, 40, 79
1, 432477, Note_off_c, 0, 40, 66
1, 432522, Control_c, 0, 64, 119
1, 432537, Control_c, 0, 64, 92
1, 432552, Control_c, 0, 64, 67
1, 432567, Control_c, 0, 64, 0
1, 432594, Note_on_c, 0, 84, 79
1, 432597, Control_c, 0, 64, 39
1, 432612, Control_c, 0, 64, 68
1, 432615, Note_on_c, 0, 60, 55
1, 432626, Control_c, 0, 64, 79
1, 432631, Note_off_c, 0, 84, 67
1, 432636, Note_off_c, 0, 60, 59
1, 432641, Control_c, 0, 64, 92
1, 432656, Control_c, 0, 64, 102
1, 432671, Control_c, 0, 64, 104
1, 432683, Note_on_c, 0, 85, 80
1, 432686, Control_c, 0, 64, 105
1, 432700, Control_c, 0, 64, 106
1, 432713, Note_off_c, 0, 85, 61
1, 432715, Control_c, 0, 64, 106
1, 432730, Control_c, 0, 64, 107
1, 432745, Control_c, 0, 64, 107
1, 432779, Note_on_c, 0, 84, 86
1, 432818, Note_off_c, 0, 84, 64
1, 432848, Control_c, 0, 64, 107
1, 432860, Note_on_c, 0, 85, 82
1, 432863, Control_c, 0, 64, 104
1, 432878, Control_c, 0, 64, 96
1, 432880, Note_off_c, 0, 85, 70
1, 432892, Control_c, 0, 64, 83
1, 432907, Control_c, 0, 64, 68
1, 432922, Control_c, 0, 64, 0
1, 432987, Note_on_c, 0, 71, 88
1, 433032, Note_on_c, 0, 80, 29
1, 433044, Note_off_c, 0, 71, 60
1, 433077, Note_on_c, 0, 36, 59
1, 433083, Note_off_c, 0, 80, 44
1, 433107, Note_off_c, 0, 36, 65
1, 433183, Control_c, 0, 64, 67
1, 433197, Control_c, 0, 64, 82
1, 433202, Note_on_c, 0, 52, 67
1, 433205, Note_on_c, 0, 72, 81
1, 433212, Control_c, 0, 64, 104
1, 433227, Control_c, 0, 64, 127
1, 433232, Note_off_c, 0, 52, 67
1, 433247, Note_off_c, 0, 72, 62
1, 433399, Note_on_c, 0, 84, 81
1, 433405, Control_c, 0, 64, 110
1, 433407, Note_on_c, 0, 76, 70
1, 433411, Note_on_c, 0, 79, 69
1, 433420, Control_c, 0, 64, 91
1, 433422, Note_off_c, 0, 84, 65
1, 433423, Note_off_c, 0, 76, 68
1, 433428, Note_off_c, 0, 79, 66
1, 433434, Control_c, 0, 64, 72
1, 433449, Control_c, 0, 64, 0
1, 433598, Note_on_c, 0, 83, 75
1, 433605, Note_on_c, 0, 76, 72
1, 433605, Note_on_c, 0, 79, 73
1, 433630, Note_off_c, 0, 79, 67
1, 433631, Note_off_c, 0, 76, 65
1, 433637, Note_on_c, 0, 28, 72
1, 433648, Note_off_c, 0, 83, 55
1, 433656, Control_c, 0, 67, 8
1, 433671, Control_c, 0, 67, 9
1, 433676, Note_off_c, 0, 28, 64
1, 433698, Note_on_c, 0, 40, 70
1, 433715, Control_c, 0, 67, 8
1, 433721, Note_off_c, 0, 40, 61
1, 433730, Control_c, 0, 67, 8
1, 433745, Control_c, 0, 67, 0
1, 433760, Control_c, 0, 64, 65
1, 433774, Control_c, 0, 64, 78
1, 433789, Control_c, 0, 64, 96
1, 433804, Control_c, 0, 64, 122
1, 433819, Control_c, 0, 64, 127
1, 433822, Note_on_c, 0, 81, 92
1, 433837, Note_on_c, 0, 61, 72
1, 433860, Note_off_c, 0, 81, 63
1, 433882, Note_off_c, 0, 61, 47
1, 433920, Note_on_c, 0, 82, 81
1, 433955, Note_off_c, 0, 82, 62
1, 434022, Note_on_c, 0, 81, 78
1, 434065, Note_off_c, 0, 81, 63
1, 434111, Note_on_c, 0, 82, 67
1, 434135, Note_off_c, 0, 82, 67
1, 434207, Note_on_c, 0, 60, 67
1, 434222, Note_on_c, 0, 69, 83
1, 434233, Note_off_c, 0, 60, 65
1, 434272, Note_off_c, 0, 69, 64
1, 434317, Control_c, 0, 64, 126
1, 434332, Control_c, 0, 64, 107
1, 434341, Note_on_c, 0, 36, 72
1, 434346, Control_c, 0, 64, 88
1, 434361, Control_c, 0, 64, 65
1, 434369, Note_off_c, 0, 36, 65
1, 434376, Control_c, 0, 64, 0
1, 434444, Note_on_c, 0, 70, 84
1, 434459, Note_on_c, 0, 52, 67
1, 434464, Control_c, 0, 64, 60
1, 434479, Control_c, 0, 64, 76
1, 434480, Note_off_c, 0, 52, 67
1, 434491, Note_off_c, 0, 70, 61
1, 434494, Control_c, 0, 64, 91
1, 434509, Control_c, 0, 64, 107
1, 434524, Control_c, 0, 64, 109
1, 434538, Control_c, 0, 64, 109
1, 434635, Control_c, 0, 64, 108
1, 434650, Control_c, 0, 64, 100
1, 434657, Note_on_c, 0, 82, 72
1, 434659, Note_on_c, 0, 71, 72
1, 434665, Note_on_c, 0, 79, 67
1, 434665, Control_c, 0, 64, 86
1, 434677, Note_off_c, 0, 71, 65
1, 434679, Control_c, 0, 64, 71
1, 434691, Note_off_c, 0, 79, 66
1, 434695, Control_c, 0, 64, 0
1, 434702, Note_off_c, 0, 82, 58
1, 434862, Note_on_c, 0, 81, 78
1, 434871, Note_on_c, 0, 72, 63
1, 434872, Note_on_c, 0, 78, 67
1, 434887, Note_off_c, 0, 81, 63
1, 434889, Note_off_c, 0, 72, 65
1, 434899, Note_off_c, 0, 78, 67
1, 435087, Note_on_c, 0, 68, 84
1, 435094, Note_on_c, 0, 41, 66
1, 435095, Note_on_c, 0, 29, 63
1, 435095, Control_c, 0, 64, 18
1, 435110, Control_c, 0, 64, 70
1, 435124, Note_off_c, 0, 41, 67
1, 435125, Control_c, 0, 64, 85
1, 435128, Note_off_c, 0, 29, 60
1, 435140, Control_c, 0, 64, 103
1, 435155, Control_c, 0, 64, 113
1, 435169, Control_c, 0, 64, 115
1, 435184, Note_off_c, 0, 68, 57
1, 435184, Control_c, 0, 64, 115
1, 435199, Control_c, 0, 64, 116
1, 435259, Control_c, 0, 64, 115
1, 435274, Control_c, 0, 64, 105
1, 435280, Note_on_c, 0, 72, 72
1, 435283, Note_on_c, 0, 80, 64
1, 435287, Note_on_c, 0, 77, 59
1, 435288, Control_c, 0, 64, 90
1, 435303, Note_off_c, 0, 72, 70
1, 435303, Control_c, 0, 64, 71
1, 435303, Note_off_c, 0, 80, 65
1, 435307, Note_off_c, 0, 77, 64
1, 435318, Control_c, 0, 64, 0
1, 435490, Note_on_c, 0, 80, 69
1, 435498, Note_on_c, 0, 77, 68
1, 435500, Note_on_c, 0, 72, 67
1, 435515, Note_off_c, 0, 80, 67
1, 435522, Note_off_c, 0, 77, 67
1, 435528, Note_off_c, 0, 72, 67
1, 435550, Note_on_c, 0, 34, 55
1, 435596, Note_off_c, 0, 34, 66
1, 435605, Note_on_c, 0, 41, 58
1, 435682, Note_off_c, 0, 41, 54
1, 435697, Control_c, 0, 64, 66
1, 435709, Note_on_c, 0, 65, 82
1, 435711, Note_on_c, 0, 50, 70
1, 435712, Control_c, 0, 64, 80
1, 435727, Control_c, 0, 64, 96
1, 435740, Note_off_c, 0, 50, 66
1, 435742, Control_c, 0, 64, 111
1, 435757, Control_c, 0, 64, 114
1, 435771, Control_c, 0, 64, 115
1, 435774, Note_off_c, 0, 65, 59
1, 435786, Control_c, 0, 64, 115
1, 435801, Control_c, 0, 64, 116
1, 435845, Control_c, 0, 64, 116
1, 435875, Control_c, 0, 64, 116
1, 435889, Note_on_c, 0, 77, 69
1, 435890, Control_c, 0, 64, 115
1, 435891, Note_on_c, 0, 70, 66
1, 435894, Note_on_c, 0, 74, 56
1, 435905, Control_c, 0, 64, 105
1, 435907, Note_off_c, 0, 70, 66
1, 435912, Note_off_c, 0, 74, 64
1, 435912, Note_off_c, 0, 77, 65
1, 435919, Control_c, 0, 64, 88
1, 435934, Control_c, 0, 64, 68
1, 435949, Control_c, 0, 64, 0
1, 435979, Control_c, 0, 67, 8
1, 435993, Control_c, 0, 67, 8
1, 436008, Control_c, 0, 67, 9
1, 436037, Control_c, 0, 67, 8
1, 436052, Control_c, 0, 67, 8
1, 436067, Control_c, 0, 67, 0
1, 436084, Note_on_c, 0, 70, 69
1, 436087, Note_on_c, 0, 66, 88
1, 436087, Note_on_c, 0, 78, 89
1, 436091, Note_on_c, 0, 42, 85
1, 436093, Note_on_c, 0, 30, 71
1, 436097, Control_c, 0, 64, 67
1, 436114, Note_off_c, 0, 66, 73
1, 436119, Control_c, 0, 64, 82
1, 436129, Note_off_c, 0, 30, 55
1, 436129, Note_off_c, 0, 42, 67
1, 436130, Note_off_c, 0, 70, 65
1, 436134, Control_c, 0, 64, 110
1, 436144, Note_off_c, 0, 78, 65
1, 436149, Control_c, 0, 64, 127
1, 436331, Note_on_c, 0, 82, 85
1, 436335, Note_on_c, 0, 58, 85
1, 436337, Note_on_c, 0, 54, 78
1, 436337, Note_on_c, 0, 70, 85
1, 436340, Note_on_c, 0, 49, 76
1, 436341, Note_on_c, 0, 73, 79
1, 436360, Note_off_c, 0, 70, 64
1, 436365, Note_off_c, 0, 73, 68
1, 436371, Note_off_c, 0, 58, 62
1, 436378, Note_off_c, 0, 82, 63
1, 436394, Note_off_c, 0, 54, 63
1, 436400, Note_off_c, 0, 49, 62
1, 436430, Note_on_c, 0, 80, 80
1, 436480, Note_off_c, 0, 80, 63
1, 436523, Note_on_c, 0, 78, 77
1, 436556, Note_off_c, 0, 78, 58
1, 436606, Note_on_c, 0, 77, 81
1, 436627, Note_off_c, 0, 77, 67
1, 436682, Control_c, 0, 64, 127
1, 436697, Control_c, 0, 64, 107
1, 436712, Control_c, 0, 64, 89
1, 436718, Note_on_c, 0, 48, 86
1, 436719, Note_on_c, 0, 76, 91
1, 436722, Note_on_c, 0, 67, 87
1, 436724, Note_on_c, 0, 36, 74
1, 436727, Control_c, 0, 64, 74
1, 436740, Note_off_c, 0, 48, 70
1, 436741, Control_c, 0, 64, 39
1, 436743, Note_off_c, 0, 67, 69
1, 436747, Note_off_c, 0, 76, 65
1, 436756, Control_c, 0, 64, 0
1, 436760, Note_off_c, 0, 36, 69
1, 436809, Note_on_c, 0, 72, 86
1, 436855, Note_off_c, 0, 72, 63
1, 436952, Note_on_c, 0, 68, 91
1, 436955, Note_on_c, 0, 77, 92
1, 436955, Note_on_c, 0, 65, 87
1, 436962, Note_on_c, 0, 41, 92
1, 436966, Note_on_c, 0, 29, 74
1, 436986, Control_c, 0, 64, 70
1, 437000, Control_c, 0, 64, 96
1, 437015, Control_c, 0, 64, 127
1, 437019, Note_off_c, 0, 29, 61
1, 437022, Note_off_c, 0, 41, 65
1, 437030, Note_off_c, 0, 65, 62
1, 437050, Note_off_c, 0, 77, 56
1, 437061, Note_off_c, 0, 68, 56
1, 437313, Control_c, 0, 64, 124
1, 437328, Control_c, 0, 64, 99
1, 437342, Control_c, 0, 64, 79
1, 437357, Control_c, 0, 64, 41
1, 437372, Control_c, 0, 64, 0
1, 437616, Control_c, 0, 64, 56
1, 437631, Control_c, 0, 64, 71
1, 437646, Control_c, 0, 64, 85
1, 437661, Control_c, 0, 64, 107
1, 437676, Control_c, 0, 64, 127
1, 437796, Note_on_c, 0, 93, 100
1, 437797, Note_on_c, 0, 26, 82
1, 437798, Note_on_c, 0, 38, 89
1, 437798, Note_on_c, 0, 81, 98
1, 437819, Note_off_c, 0, 26, 66
1, 437836, Note_off_c, 0, 38, 63
1, 437841, Note_on_c, 0, 83, 27
1, 437842, Note_off_c, 0, 83, 127
1, 437845, Note_off_c, 0, 81, 61
1, 437855, Note_off_c, 0, 93, 61
1, 438146, Note_on_c, 0, 57, 53
1, 438146, Note_on_c, 0, 66, 64
1, 438152, Note_on_c, 0, 62, 56
1, 438181, Note_off_c, 0, 66, 61
1, 438186, Note_off_c, 0, 57, 56
1, 438204, Note_off_c, 0, 62, 52
1, 438365, Note_on_c, 0, 62, 50
1, 438365, Note_on_c, 0, 81, 91
1, 438368, Note_on_c, 0, 69, 84
1, 438375, Note_on_c, 0, 57, 53
1, 438380, Note_on_c, 0, 66, 17
1, 438386, Note_off_c, 0, 62, 60
1, 438399, Note_off_c, 0, 57, 64
1, 438416, Note_off_c, 0, 66, 49
1, 438618, Control_c, 0, 64, 91
1, 438630, Note_on_c, 0, 31, 71
1, 438631, Note_on_c, 0, 43, 74
1, 438633, Control_c, 0, 64, 65
1, 438647, Control_c, 0, 64, 0
1, 438675, Note_off_c, 0, 31, 64
1, 438693, Control_c, 0, 64, 61
1, 438706, Note_off_c, 0, 43, 62
1, 438708, Control_c, 0, 64, 75
1, 438723, Control_c, 0, 64, 95
1, 438737, Control_c, 0, 64, 123
1, 438752, Control_c, 0, 64, 127
1, 438757, Note_off_c, 0, 69, 63
1, 438783, Note_off_c, 0, 81, 60
1, 438885, Note_on_c, 0, 59, 54
1, 438887, Note_on_c, 0, 81, 90
1, 438888, Note_on_c, 0, 69, 82
1, 438889, Note_on_c, 0, 64, 52
1, 438891, Note_on_c, 0, 55, 50
1, 438937, Note_off_c, 0, 64, 51
1, 438944, Note_off_c, 0, 69, 61
1, 438950, Note_off_c, 0, 55, 55
1, 438955, Note_off_c, 0, 59, 43
1, 438991, Note_off_c, 0, 81, 59
1, 439083, Note_on_c, 0, 55, 60
1, 439085, Note_on_c, 0, 83, 85
1, 439087, Note_on_c, 0, 71, 85
1, 439093, Note_on_c, 0, 59, 38
1, 439119, Note_off_c, 0, 55, 67
1, 439119, Note_off_c, 0, 71, 61
1, 439126, Note_off_c, 0, 59, 56
1, 439141, Note_off_c, 0, 83, 60
1, 439307, Control_c, 0, 64, 110
1, 439322, Control_c, 0, 64, 85
1, 439337, Control_c, 0, 64, 61
1, 439349, Note_on_c, 0, 26, 61
1, 439352, Note_on_c, 0, 38, 58
1, 439352, Note_on_c, 0, 85, 84
1, 439352, Control_c, 0, 64, 0
1, 439359, Note_on_c, 0, 73, 81
1, 439379, Note_off_c, 0, 26, 62
1, 439381, Control_c, 0, 64, 66
1, 439396, Control_c, 0, 64, 80
1, 439411, Control_c, 0, 64, 97
1, 439417, Note_off_c, 0, 73, 59
1, 439420, Note_off_c, 0, 38, 60
1, 439426, Control_c, 0, 64, 116
1, 439441, Control_c, 0, 64, 127
1, 439456, Note_off_c, 0, 85, 63
1, 439527, Note_on_c, 0, 88, 81
1, 439536, Note_on_c, 0, 76, 70
1, 439546, Note_off_c, 0, 88, 71
1, 439551, Note_off_c, 0, 76, 69
1, 439608, Note_on_c, 0, 86, 92
1, 439612, Note_on_c, 0, 74, 83
1, 439615, Note_on_c, 0, 66, 73
1, 439637, Note_off_c, 0, 74, 63
1, 439645, Note_off_c, 0, 66, 65
1, 439646, Note_off_c, 0, 86, 65
1, 439654, Note_on_c, 0, 62, 37
1, 439713, Note_off_c, 0, 62, 39
1, 439805, Note_on_c, 0, 81, 92
1, 439806, Note_on_c, 0, 62, 63
1, 439807, Note_on_c, 0, 69, 86
1, 439809, Note_on_c, 0, 57, 68
1, 439809, Note_on_c, 0, 66, 51
1, 439825, Note_off_c, 0, 62, 63
1, 439826, Note_off_c, 0, 69, 76
1, 439828, Note_off_c, 0, 66, 66
1, 439837, Note_off_c, 0, 57, 67
1, 439848, Note_off_c, 0, 81, 63
1, 440056, Control_c, 0, 64, 119
1, 440071, Control_c, 0, 64, 89
1, 440076, Note_on_c, 0, 31, 67
1, 440081, Note_on_c, 0, 43, 69
1, 440083, Note_on_c, 0, 90, 93
1, 440085, Control_c, 0, 64, 66
1, 440088, Note_on_c, 0, 78, 83
1, 440100, Control_c, 0, 64, 0
1, 440115, Control_c, 0, 64, 54
1, 440127, Note_off_c, 0, 31, 64
1, 440130, Control_c, 0, 64, 71
1, 440144, Control_c, 0, 64, 84
1, 440150, Note_off_c, 0, 43, 62
1, 440159, Control_c, 0, 64, 106
1, 440174, Control_c, 0, 64, 127
1, 440207, Note_off_c, 0, 78, 62
1, 440221, Note_off_c, 0, 90, 65
1, 440314, Note_on_c, 0, 88, 89
1, 440318, Note_on_c, 0, 76, 84
1, 440321, Note_on_c, 0, 59, 60
1, 440326, Note_on_c, 0, 64, 58
1, 440335, Note_on_c, 0, 55, 48
1, 440339, Note_off_c, 0, 76, 62
1, 440361, Note_off_c, 0, 64, 55
1, 440361, Note_off_c, 0, 88, 61
1, 440372, Note_off_c, 0, 59, 49
1, 440383, Note_off_c, 0, 55, 58
1, 440500, Note_on_c, 0, 55, 60
1, 440501, Note_on_c, 0, 83, 93
1, 440505, Note_on_c, 0, 71, 80
1, 440510, Note_on_c, 0, 59, 48
1, 440517, Note_on_c, 0, 64, 19
1, 440520, Note_off_c, 0, 71, 70
1, 440526, Note_off_c, 0, 55, 67
1, 440543, Note_off_c, 0, 59, 50
1, 440544, Note_off_c, 0, 83, 61
1, 440560, Note_off_c, 0, 64, 44
1, 440760, Control_c, 0, 64, 120
1, 440773, Note_on_c, 0, 83, 84
1, 440773, Note_on_c, 0, 95, 93
1, 440775, Control_c, 0, 64, 89
1, 440780, Note_on_c, 0, 38, 78
1, 440782, Note_on_c, 0, 26, 75
1, 440789, Control_c, 0, 64, 63
1, 440804, Control_c, 0, 64, 0
1, 440816, Note_off_c, 0, 26, 67
1, 440833, Control_c, 0, 64, 62
1, 440845, Note_off_c, 0, 38, 62
1, 440848, Control_c, 0, 64, 75
1, 440863, Control_c, 0, 64, 91
1, 440879, Control_c, 0, 64, 116
1, 440894, Control_c, 0, 64, 127
1, 440988, Note_off_c, 0, 95, 63
1, 440988, Note_off_c, 0, 83, 56
1, 441007, Note_on_c, 0, 61, 83
1, 441091, Note_on_c, 0, 93, 86
1, 441095, Note_on_c, 0, 81, 82
1, 441122, Note_off_c, 0, 81, 63
1, 441131, Note_off_c, 0, 93, 60
1, 441182, Note_off_c, 0, 61, 38
1, 441190, Note_on_c, 0, 62, 76
1, 441204, Note_on_c, 0, 90, 80
1, 441207, Note_on_c, 0, 78, 83
1, 441215, Note_off_c, 0, 62, 66
1, 441238, Note_off_c, 0, 90, 63
1, 441244, Note_off_c, 0, 78, 60
1, 441435, Control_c, 0, 64, 96
1, 441447, Note_on_c, 0, 31, 68
1, 441447, Note_on_c, 0, 43, 71
1, 441450, Note_on_c, 0, 66, 80
1, 441450, Control_c, 0, 64, 72
1, 441465, Control_c, 0, 64, 0
1, 441489, Note_off_c, 0, 31, 65
1, 441495, Control_c, 0, 64, 66
1, 441510, Control_c, 0, 64, 78
1, 441519, Note_off_c, 0, 66, 65
1, 441523, Note_off_c, 0, 43, 62
1, 441525, Control_c, 0, 64, 94
1, 441539, Control_c, 0, 64, 114
1, 441554, Control_c, 0, 64, 127
1, 441674, Note_on_c, 0, 88, 78
1, 441676, Note_on_c, 0, 76, 73
1, 441686, Note_on_c, 0, 58, 63
1, 441703, Note_off_c, 0, 76, 55
1, 441720, Note_off_c, 0, 88, 62
1, 441838, Note_off_c, 0, 58, 61
1, 441877, Note_on_c, 0, 59, 64
1, 441877, Note_on_c, 0, 83, 84
1, 441881, Note_on_c, 0, 71, 77
1, 441906, Note_off_c, 0, 71, 64
1, 441941, Note_off_c, 0, 83, 58
1, 442008, Note_off_c, 0, 59, 50
1, 442043, Control_c, 0, 64, 111
1, 442049, Note_on_c, 0, 53, 63
1, 442058, Control_c, 0, 64, 85
1, 442073, Control_c, 0, 64, 56
1, 442078, Note_off_c, 0, 53, 68
1, 442082, Note_on_c, 0, 85, 80
1, 442088, Note_on_c, 0, 73, 76
1, 442088, Control_c, 0, 64, 0
1, 442110, Control_c, 0, 64, 64
1, 442118, Note_off_c, 0, 73, 69
1, 442125, Control_c, 0, 64, 76
1, 442136, Note_off_c, 0, 85, 61
1, 442140, Control_c, 0, 64, 90
1, 442155, Control_c, 0, 64, 109
1, 442169, Control_c, 0, 64, 127
1, 442183, Note_on_c, 0, 38, 64
1, 442216, Note_off_c, 0, 38, 64
1, 442217, Note_on_c, 0, 88, 80
1, 442223, Note_on_c, 0, 76, 73
1, 442238, Note_off_c, 0, 76, 69
1, 442239, Note_off_c, 0, 88, 69
1, 442251, Note_on_c, 0, 45, 53
1, 442282, Note_off_c, 0, 45, 52
1, 442291, Poly_aftertouch_c, 0, 42, 127
1, 442294, Note_on_c, 0, 86, 83
1, 442297, Note_on_c, 0, 54, 80
1, 442300, Note_on_c, 0, 74, 80
1, 442317, Note_off_c, 0, 86, 64
1, 442320, Note_on_c, 0, 84, 55
1, 442321, Note_off_c, 0, 84, 127
1, 442321, Note_off_c, 0, 74, 73
1, 442324, Poly_aftertouch_c, 0, 42, 0
1, 442340, Note_off_c, 0, 54, 58
1, 442490, Note_on_c, 0, 45, 48
1, 442495, Note_on_c, 0, 38, 66
1, 442499, Note_on_c, 0, 81, 91
1, 442500, Note_on_c, 0, 69, 84
1, 442517, Note_off_c, 0, 69, 70
1, 442526, Note_off_c, 0, 38, 64
1, 442535, Note_off_c, 0, 45, 65
1, 442544, Note_off_c, 0, 81, 62
1, 442739, Note_on_c, 0, 90, 91
1, 442744, Note_on_c, 0, 78, 89
1, 442747, Note_on_c, 0, 58, 57
1, 442763, Control_c, 0, 64, 98
1, 442777, Control_c, 0, 64, 72
1, 442789, Note_off_c, 0, 58, 63
1, 442792, Control_c, 0, 64, 0
1, 442822, Control_c, 0, 64, 29
1, 442836, Control_c, 0, 64, 68
1, 442859, Control_c, 0, 64, 81
1, 442874, Control_c, 0, 64, 98
1, 442878, Note_on_c, 0, 43, 60
1, 442889, Control_c, 0, 64, 118
1, 442904, Control_c, 0, 64, 127
1, 442905, Note_off_c, 0, 43, 58
1, 442907, Note_off_c, 0, 78, 61
1, 442920, Note_off_c, 0, 90, 64
1, 442923, Note_on_c, 0, 52, 54
1, 442961, Note_off_c, 0, 52, 66
1, 442990, Note_on_c, 0, 59, 66
1, 443006, Note_on_c, 0, 88, 80
1, 443009, Note_on_c, 0, 76, 78
1, 443018, Note_off_c, 0, 59, 63
1, 443030, Note_off_c, 0, 76, 66
1, 443045, Note_off_c, 0, 88, 53
1, 443076, Note_on_c, 0, 61, 75
1, 443100, Note_off_c, 0, 61, 66
1, 443157, Note_on_c, 0, 59, 52
1, 443180, Note_off_c, 0, 59, 64
1, 443192, Note_on_c, 0, 58, 72
1, 443220, Note_off_c, 0, 58, 68
1, 443308, Note_on_c, 0, 83, 91
1, 443311, Note_on_c, 0, 59, 59
1, 443311, Note_on_c, 0, 71, 86
1, 443313, Note_on_c, 0, 64, 71
1, 443319, Note_on_c, 0, 55, 64
1, 443337, Note_off_c, 0, 71, 64
1, 443341, Note_off_c, 0, 64, 66
1, 443361, Note_off_c, 0, 59, 58
1, 443367, Note_off_c, 0, 83, 62
1, 443379, Note_off_c, 0, 55, 64
1, 443606, Control_c, 0, 64, 117
1, 443621, Control_c, 0, 64, 86
1, 443636, Control_c, 0, 64, 0
1, 443652, Note_on_c, 0, 93, 95
1, 443653, Note_on_c, 0, 81, 96
1, 443657, Note_on_c, 0, 26, 81
1, 443657, Note_on_c, 0, 38, 85
1, 443683, Note_off_c, 0, 26, 65
1, 443692, Note_off_c, 0, 93, 66
1, 443695, Control_c, 0, 64, 64
1, 443700, Note_off_c, 0, 38, 63
1, 443708, Note_off_c, 0, 81, 62
1, 443710, Control_c, 0, 64, 84
1, 443725, Control_c, 0, 64, 121
1, 443739, Control_c, 0, 64, 127
1, 443942, Note_on_c, 0, 78, 71
1, 443966, Note_on_c, 0, 62, 55
1, 443970, Note_on_c, 0, 57, 49
1, 443974, Note_on_c, 0, 66, 59
1, 443975, Note_off_c, 0, 78, 63
1, 443996, Note_off_c, 0, 66, 65
1, 444008, Note_off_c, 0, 57, 58
1, 444018, Note_off_c, 0, 62, 53
1, 444127, Note_on_c, 0, 76, 75
1, 444128, Note_on_c, 0, 57, 57
1, 444129, Note_on_c, 0, 81, 81
1, 444131, Note_on_c, 0, 69, 79
1, 444147, Note_on_c, 0, 62, 33
1, 444158, Note_off_c, 0, 57, 64
1, 444178, Note_off_c, 0, 62, 51
1, 444193, Poly_aftertouch_c, 0, 66, 0
1, 444334, Note_off_c, 0, 76, 50
1, 444370, Control_c, 0, 64, 104
1, 444374, Note_on_c, 0, 31, 71
1, 444377, Note_on_c, 0, 43, 73
1, 444380, Note_on_c, 0, 74, 76
1, 444385, Control_c, 0, 64, 78
1, 444399, Note_off_c, 0, 69, 59
1, 444400, Control_c, 0, 64, 0
1, 444410, Note_off_c, 0, 31, 66
1, 444416, Note_off_c, 0, 81, 35
1, 444431, Note_off_c, 0, 43, 61
1, 444444, Control_c, 0, 64, 65
1, 444459, Control_c, 0, 64, 80
1, 444474, Control_c, 0, 64, 97
1, 444488, Control_c, 0, 64, 120
1, 444503, Control_c, 0, 64, 127
1, 444541, Note_off_c, 0, 74, 62
1, 444595, Note_on_c, 0, 81, 71
1, 444598, Note_on_c, 0, 59, 55
1, 444598, Note_on_c, 0, 69, 75
1, 444604, Note_on_c, 0, 64, 54
1, 444604, Note_on_c, 0, 73, 68
1, 444607, Note_on_c, 0, 55, 49
1, 444650, Note_off_c, 0, 69, 62
1, 444658, Note_off_c, 0, 64, 51
1, 444675, Note_off_c, 0, 55, 51
1, 444681, Note_off_c, 0, 59, 36
1, 444697, Note_off_c, 0, 81, 59
1, 444710, Note_off_c, 0, 73, 61
1, 444782, Note_on_c, 0, 71, 61
1, 444786, Note_on_c, 0, 59, 58
1, 444786, Note_on_c, 0, 64, 54
1, 444792, Note_on_c, 0, 55, 60
1, 444798, Note_off_c, 0, 71, 64
1, 444808, Note_off_c, 0, 64, 60
1, 444816, Note_off_c, 0, 59, 63
1, 444836, Note_off_c, 0, 55, 64
1, 444907, Note_on_c, 0, 93, 87
1, 444913, Note_on_c, 0, 81, 80
1, 444936, Note_off_c, 0, 81, 65
1, 444953, Note_off_c, 0, 93, 61
1, 445090, Note_on_c, 0, 38, 62
1, 445120, Note_on_c, 0, 90, 86
1, 445124, Note_on_c, 0, 78, 85
1, 445134, Control_c, 0, 64, 93
1, 445149, Control_c, 0, 64, 68
1, 445164, Note_off_c, 0, 38, 62
1, 445164, Control_c, 0, 64, 0
1, 445191, Note_on_c, 0, 45, 58
1, 445194, Control_c, 0, 64, 61
1, 445209, Control_c, 0, 64, 73
1, 445223, Control_c, 0, 64, 88
1, 445231, Note_off_c, 0, 45, 64
1, 445238, Control_c, 0, 64, 105
1, 445253, Control_c, 0, 64, 122
1, 445257, Note_on_c, 0, 54, 70
1, 445268, Control_c, 0, 64, 127
1, 445274, Note_off_c, 0, 78, 61
1, 445284, Note_off_c, 0, 54, 65
1, 445313, Note_off_c, 0, 90, 60
1, 445397, Note_on_c, 0, 79, 81
1, 445397, Note_on_c, 0, 91, 85
1, 445412, Note_on_c, 0, 70, 70
1, 445451, Note_off_c, 0, 79, 38
1, 445511, Note_off_c, 0, 91, 58
1, 445595, Note_off_c, 0, 70, 57
1, 445606, Note_on_c, 0, 69, 79
1, 445609, Note_on_c, 0, 93, 91
1, 445613, Note_on_c, 0, 81, 85
1, 445644, Note_off_c, 0, 81, 54
1, 445693, Note_off_c, 0, 93, 59
1, 445801, Control_c, 0, 64, 103
1, 445816, Control_c, 0, 64, 78
1, 445818, Note_on_c, 0, 68, 73
1, 445821, Note_on_c, 0, 94, 85
1, 445826, Note_on_c, 0, 82, 80
1, 445828, Note_off_c, 0, 69, 62
1, 445830, Control_c, 0, 64, 0
1, 445877, Note_off_c, 0, 68, 63
1, 445883, Control_c, 0, 64, 61
1, 445898, Control_c, 0, 64, 76
1, 445913, Control_c, 0, 64, 91
1, 445927, Control_c, 0, 64, 110
1, 445935, Note_off_c, 0, 82, 59
1, 445942, Control_c, 0, 64, 127
1, 445976, Note_off_c, 0, 94, 64
1, 446036, Note_on_c, 0, 95, 85
1, 446038, Note_on_c, 0, 67, 72
1, 446041, Note_on_c, 0, 83, 74
1, 446051, Note_on_c, 0, 59, 61
1, 446053, Note_on_c, 0, 55, 50
1, 446056, Note_off_c, 0, 95, 70
1, 446065, Note_off_c, 0, 83, 65
1, 446088, Note_off_c, 0, 67, 55
1, 446122, Note_off_c, 0, 59, 50
1, 446147, Note_off_c, 0, 55, 33
1, 446240, Note_on_c, 0, 64, 71
1, 446240, Note_on_c, 0, 73, 86
1, 446241, Note_on_c, 0, 85, 80
1, 446255, Note_on_c, 0, 59, 63
1, 446259, Note_off_c, 0, 73, 71
1, 446264, Note_on_c, 0, 82, 44
1, 446264, Note_on_c, 0, 55, 46
1, 446266, Note_off_c, 0, 64, 68
1, 446282, Note_off_c, 0, 59, 64
1, 446286, Note_off_c, 0, 85, 58
1, 446289, Note_off_c, 0, 82, 57
1, 446296, Note_off_c, 0, 55, 54
1, 446381, Note_on_c, 0, 85, 81
1, 446383, Note_on_c, 0, 73, 75
1, 446403, Note_off_c, 0, 73, 72
1, 446406, Note_off_c, 0, 85, 62
1, 446416, Control_c, 0, 64, 121
1, 446431, Control_c, 0, 64, 90
1, 446446, Control_c, 0, 64, 64
1, 446461, Control_c, 0, 64, 0
1, 446471, Note_on_c, 0, 78, 94
1, 446472, Note_on_c, 0, 26, 81
1, 446472, Note_on_c, 0, 90, 97
1, 446479, Note_on_c, 0, 38, 74
1, 446491, Control_c, 0, 64, 68
1, 446497, Note_off_c, 0, 78, 62
1, 446500, Note_off_c, 0, 26, 65
1, 446506, Note_on_c, 0, 87, 38
1, 446507, Note_off_c, 0, 87, 127
1, 446507, Control_c, 0, 64, 83
1, 446509, Note_off_c, 0, 90, 66
1, 446518, Note_off_c, 0, 38, 66
1, 446520, Control_c, 0, 64, 106
1, 446535, Control_c, 0, 64, 127
1, 446737, Note_on_c, 0, 78, 73
1, 446758, Note_on_c, 0, 66, 63
1, 446759, Note_on_c, 0, 57, 48
1, 446771, Note_off_c, 0, 78, 64
1, 446773, Note_on_c, 0, 62, 50
1, 446780, Note_off_c, 0, 66, 64
1, 446795, Note_off_c, 0, 57, 59
1, 446811, Note_off_c, 0, 62, 57
1, 446929, Note_on_c, 0, 76, 71
1, 446932, Note_on_c, 0, 69, 72
1, 446933, Note_on_c, 0, 81, 74
1, 446934, Note_on_c, 0, 57, 57
1, 446937, Note_on_c, 0, 62, 49
1, 446962, Note_off_c, 0, 62, 52
1, 446965, Note_off_c, 0, 57, 64
1, 446996, Poly_aftertouch_c, 0, 66, 0
1, 447110, Note_off_c, 0, 76, 54
1, 447141, Note_off_c, 0, 81, 32
1, 447150, Control_c, 0, 64, 96
1, 447159, Note_on_c, 0, 74, 69
1, 447164, Control_c, 0, 64, 70
1, 447166, Note_on_c, 0, 31, 65
1, 447170, Note_on_c, 0, 43, 66
1, 447170, Note_off_c, 0, 69, 57
1, 447179, Control_c, 0, 64, 0
1, 447199, Note_off_c, 0, 31, 63
1, 447224, Control_c, 0, 64, 68
1, 447227, Note_off_c, 0, 43, 61
1, 447239, Control_c, 0, 64, 83
1, 447254, Control_c, 0, 64, 102
1, 447268, Control_c, 0, 64, 124
1, 447283, Control_c, 0, 64, 127
1, 447319, Note_off_c, 0, 74, 64
1, 447388, Note_on_c, 0, 81, 74
1, 447391, Note_on_c, 0, 69, 72
1, 447393, Note_on_c, 0, 73, 61
1, 447394, Note_on_c, 0, 59, 56
1, 447397, Note_on_c, 0, 55, 55
1, 447398, Note_on_c, 0, 64, 60
1, 447439, Note_off_c, 0, 59, 54
1, 447441, Note_off_c, 0, 55, 57
1, 447441, Note_off_c, 0, 64, 59
1, 447448, Note_off_c, 0, 69, 63
1, 447480, Note_off_c, 0, 81, 60
1, 447514, Note_off_c, 0, 73, 62
1, 447589, Note_on_c, 0, 83, 80
1, 447592, Note_on_c, 0, 64, 55
1, 447594, Note_on_c, 0, 55, 48
1, 447594, Note_on_c, 0, 71, 79
1, 447600, Note_on_c, 0, 59, 46
1, 447619, Note_off_c, 0, 64, 63
1, 447619, Note_off_c, 0, 55, 59
1, 447622, Note_off_c, 0, 71, 61
1, 447626, Note_off_c, 0, 59, 55
1, 447662, Note_off_c, 0, 83, 58
1, 447796, Control_c, 0, 64, 114
1, 447796, Control_c, 0, 67, 8
1, 447811, Control_c, 0, 64, 83
1, 447811, Control_c, 0, 67, 15
1, 447823, Note_on_c, 0, 85, 78
1, 447826, Control_c, 0, 64, 50
1, 447826, Control_c, 0, 67, 36
1, 447828, Note_on_c, 0, 73, 74
1, 447832, Note_on_c, 0, 70, 68
1, 447841, Control_c, 0, 64, 0
1, 447841, Control_c, 0, 67, 66
1, 447856, Control_c, 0, 67, 100
1, 447871, Control_c, 0, 67, 117
1, 447875, Note_off_c, 0, 73, 58
1, 447886, Control_c, 0, 64, 64
1, 447886, Control_c, 0, 67, 125
1, 447900, Control_c, 0, 64, 81
1, 447900, Control_c, 0, 67, 127
1, 447915, Control_c, 0, 64, 98
1, 447919, Note_off_c, 0, 85, 63
1, 447930, Control_c, 0, 64, 117
1, 447944, Control_c, 0, 64, 125
1, 447959, Control_c, 0, 64, 127
1, 447989, Note_off_c, 0, 70, 62
1, 447991, Note_on_c, 0, 88, 78
1, 447994, Note_on_c, 0, 76, 72
1, 448008, Note_off_c, 0, 76, 70
1, 448013, Note_off_c, 0, 88, 69
1, 448042, Note_on_c, 0, 66, 71
1, 448057, Note_on_c, 0, 62, 57
1, 448063, Note_on_c, 0, 57, 58
1, 448066, Note_off_c, 0, 66, 69
1, 448071, Note_on_c, 0, 86, 79
1, 448080, Note_off_c, 0, 62, 59
1, 448083, Note_on_c, 0, 74, 63
1, 448089, Note_off_c, 0, 57, 65
1, 448093, Note_off_c, 0, 86, 65
1, 448106, Note_off_c, 0, 74, 67
1, 448119, Note_on_c, 0, 84, 33
1, 448120, Note_off_c, 0, 84, 127
1, 448124, Note_on_c, 0, 72, 29
1, 448156, Note_off_c, 0, 72, 52
1, 448159, Control_c, 0, 67, 127
1, 448273, Note_on_c, 0, 81, 81
1, 448278, Note_on_c, 0, 69, 77
1, 448285, Note_on_c, 0, 37, 74
1, 448301, Note_off_c, 0, 69, 73
1, 448326, Note_off_c, 0, 81, 61
1, 448329, Note_off_c, 0, 37, 63
1, 448338, Control_c, 0, 67, 127
1, 448353, Control_c, 0, 67, 126
1, 448368, Control_c, 0, 67, 126
1, 448382, Control_c, 0, 67, 125
1, 448412, Control_c, 0, 67, 125
1, 448427, Control_c, 0, 67, 124
1, 448442, Control_c, 0, 67, 124
1, 448456, Control_c, 0, 67, 123
1, 448471, Control_c, 0, 67, 123
1, 448530, Control_c, 0, 67, 123
1, 448545, Control_c, 0, 67, 125
1, 448560, Control_c, 0, 67, 126
1, 448573, Note_on_c, 0, 90, 80
1, 448574, Control_c, 0, 64, 100
1, 448574, Control_c, 0, 67, 127
1, 448578, Note_on_c, 0, 78, 69
1, 448589, Note_on_c, 0, 60, 61
1, 448589, Control_c, 0, 64, 76
1, 448604, Control_c, 0, 64, 0
1, 448658, Note_off_c, 0, 78, 60
1, 448664, Control_c, 0, 64, 62
1, 448664, Control_c, 0, 67, 127
1, 448673, Note_off_c, 0, 90, 60
1, 448679, Control_c, 0, 64, 76
1, 448679, Control_c, 0, 67, 126
1, 448694, Control_c, 0, 64, 89
1, 448694, Control_c, 0, 67, 125
1, 448709, Control_c, 0, 64, 100
1, 448709, Control_c, 0, 67, 125
1, 448723, Control_c, 0, 64, 106
1, 448723, Control_c, 0, 67, 124
1, 448738, Control_c, 0, 64, 109
1, 448738, Control_c, 0, 67, 123
1, 448753, Note_on_c, 0, 76, 62
1, 448753, Control_c, 0, 64, 112
1, 448753, Control_c, 0, 67, 123
1, 448767, Note_off_c, 0, 60, 60
1, 448767, Control_c, 0, 64, 114
1, 448767, Control_c, 0, 67, 122
1, 448782, Control_c, 0, 64, 117
1, 448784, Note_off_c, 0, 76, 65
1, 448797, Control_c, 0, 64, 119
1, 448801, Note_on_c, 0, 78, 64
1, 448812, Control_c, 0, 64, 121
1, 448827, Control_c, 0, 64, 125
1, 448849, Control_c, 0, 64, 127
1, 448868, Note_on_c, 0, 88, 72
1, 448868, Note_off_c, 0, 78, 62
1, 448879, Note_on_c, 0, 76, 59
1, 448879, Control_c, 0, 67, 122
1, 448899, Note_off_c, 0, 76, 57
1, 448938, Control_c, 0, 67, 122
1, 448953, Control_c, 0, 67, 123
1, 448979, Note_off_c, 0, 88, 38
1, 449146, Control_c, 0, 67, 123
1, 449176, Control_c, 0, 67, 124
1, 449191, Control_c, 0, 67, 125
1, 449205, Control_c, 0, 67, 126
1, 449215, Note_on_c, 0, 86, 59
1, 449220, Control_c, 0, 64, 114
1, 449220, Control_c, 0, 67, 127
1, 449224, Note_on_c, 0, 74, 46
1, 449234, Note_on_c, 0, 38, 43
1, 449235, Control_c, 0, 64, 93
1, 449250, Control_c, 0, 64, 69
1, 449265, Control_c, 0, 64, 0
1, 449324, Control_c, 0, 64, 61
1, 449339, Control_c, 0, 64, 74
1, 449353, Control_c, 0, 64, 85
1, 449361, Note_off_c, 0, 86, 62
1, 449364, Note_off_c, 0, 74, 58
1, 449368, Control_c, 0, 64, 95
1, 449383, Control_c, 0, 64, 100
1, 449397, Control_c, 0, 64, 102
1, 449412, Control_c, 0, 64, 104
1, 449423, Note_off_c, 0, 38, 39
1, 449427, Control_c, 0, 64, 106
1, 449442, Control_c, 0, 64, 107
1, 449516, Control_c, 0, 64, 106
1, 449531, Control_c, 0, 64, 100
1, 449546, Control_c, 0, 64, 90
1, 449561, Control_c, 0, 64, 76
1, 449576, Control_c, 0, 64, 55
1, 449597, Control_c, 0, 64, 0
1, 449665, Note_on_c, 0, 31, 55
1, 449716, Control_c, 0, 64, 64
1, 449731, Control_c, 0, 64, 75
1, 449746, Control_c, 0, 64, 84
1, 449761, Control_c, 0, 64, 92
1, 449772, Note_off_c, 0, 31, 61
1, 449776, Control_c, 0, 64, 97
1, 449783, Note_on_c, 0, 43, 54
1, 449790, Control_c, 0, 64, 101
1, 449805, Control_c, 0, 64, 105
1, 449820, Control_c, 0, 64, 110
1, 449835, Control_c, 0, 64, 114
1, 449850, Control_c, 0, 64, 119
1, 449852, Note_off_c, 0, 43, 57
1, 449865, Control_c, 0, 64, 124
1, 449880, Control_c, 0, 64, 127
1, 449973, Note_on_c, 0, 62, 74
1, 449998, Note_on_c, 0, 50, 47
1, 450146, Note_off_c, 0, 50, 59
1, 450229, Note_on_c, 0, 55, 51
1, 450235, Note_on_c, 0, 58, 46
1, 450280, Note_off_c, 0, 55, 59
1, 450282, Note_off_c, 0, 58, 60
1, 450429, Note_on_c, 0, 61, 72
1, 450449, Note_on_c, 0, 55, 44
1, 450452, Note_on_c, 0, 58, 57
1, 450464, Note_off_c, 0, 62, 62
1, 450516, Note_off_c, 0, 55, 37
1, 450588, Note_on_c, 0, 38, 58
1, 450620, Poly_aftertouch_c, 0, 55, 127
1, 450656, Note_on_c, 0, 49, 69
1, 450685, Poly_aftertouch_c, 0, 55, 0
1, 450685, Note_off_c, 0, 58, 37
1, 450688, Control_c, 0, 64, 100
1, 450703, Control_c, 0, 64, 81
1, 450717, Control_c, 0, 64, 58
1, 450732, Control_c, 0, 64, 0
1, 450761, Control_c, 0, 64, 49
1, 450776, Control_c, 0, 64, 71
1, 450791, Control_c, 0, 64, 81
1, 450806, Control_c, 0, 64, 92
1, 450821, Control_c, 0, 64, 100
1, 450836, Control_c, 0, 64, 106
1, 450850, Control_c, 0, 64, 110
1, 450864, Note_on_c, 0, 58, 73
1, 450865, Control_c, 0, 64, 114
1, 450875, Note_off_c, 0, 49, 60
1, 450878, Note_on_c, 0, 55, 54
1, 450880, Control_c, 0, 64, 119
1, 450895, Control_c, 0, 64, 123
1, 450910, Control_c, 0, 64, 127
1, 450923, Note_off_c, 0, 61, 54
1, 450926, Note_off_c, 0, 55, 59
1, 450960, Note_off_c, 0, 38, 39
1, 451056, Note_on_c, 0, 55, 56
1, 451144, Note_on_c, 0, 31, 61
1, 451156, Note_on_c, 0, 60, 71
1, 451182, Note_off_c, 0, 31, 63
1, 451186, Note_off_c, 0, 55, 50
1, 451195, Note_on_c, 0, 43, 61
1, 451207, Note_off_c, 0, 58, 57
1, 451237, Note_off_c, 0, 43, 62
1, 451337, Note_on_c, 0, 63, 78
1, 451348, Note_on_c, 0, 51, 59
1, 451362, Control_c, 0, 64, 118
1, 451377, Control_c, 0, 64, 99
1, 451385, Note_off_c, 0, 60, 53
1, 451391, Control_c, 0, 64, 80
1, 451406, Control_c, 0, 64, 56
1, 451421, Control_c, 0, 64, 0
1, 451451, Control_c, 0, 64, 63
1, 451466, Control_c, 0, 64, 74
1, 451481, Control_c, 0, 64, 85
1, 451496, Control_c, 0, 64, 97
1, 451511, Control_c, 0, 64, 103
1, 451526, Control_c, 0, 64, 105
1, 451540, Control_c, 0, 64, 106
1, 451555, Control_c, 0, 64, 108
1, 451558, Note_on_c, 0, 58, 58
1, 451570, Control_c, 0, 64, 109
1, 451573, Note_on_c, 0, 55, 43
1, 451585, Control_c, 0, 64, 110
1, 451585, Note_off_c, 0, 51, 61
1, 451600, Control_c, 0, 64, 111
1, 451615, Control_c, 0, 64, 112
1, 451622, Note_off_c, 0, 55, 63
1, 451628, Note_on_c, 0, 61, 71
1, 451630, Control_c, 0, 64, 112
1, 451644, Note_off_c, 0, 58, 62
1, 451645, Control_c, 0, 64, 113
1, 451655, Note_off_c, 0, 63, 59
1, 451689, Control_c, 0, 64, 113
1, 451713, Note_off_c, 0, 61, 51
1, 451730, Note_on_c, 0, 62, 70
1, 451737, Note_on_c, 0, 55, 59
1, 451749, Note_on_c, 0, 58, 56
1, 451818, Note_off_c, 0, 55, 56
1, 451857, Note_on_c, 0, 38, 59
1, 451858, Note_off_c, 0, 58, 51
1, 451918, Control_c, 0, 64, 109
1, 451933, Control_c, 0, 64, 96
1, 451940, Note_on_c, 0, 50, 67
1, 451948, Control_c, 0, 64, 80
1, 451963, Control_c, 0, 64, 54
1, 451978, Control_c, 0, 64, 0
1, 452007, Control_c, 0, 64, 35
1, 452022, Control_c, 0, 64, 69
1, 452034, Note_off_c, 0, 62, 51
1, 452037, Control_c, 0, 64, 79
1, 452038, Note_on_c, 0, 55, 64
1, 452052, Control_c, 0, 64, 91
1, 452066, Control_c, 0, 64, 102
1, 452081, Control_c, 0, 64, 107
1, 452096, Control_c, 0, 64, 110
1, 452111, Control_c, 0, 64, 114
1, 452112, Note_off_c, 0, 55, 63
1, 452121, Note_on_c, 0, 58, 61
1, 452122, Note_off_c, 0, 50, 59
1, 452125, Control_c, 0, 64, 118
1, 452140, Control_c, 0, 64, 122
1, 452155, Control_c, 0, 64, 124
1, 452156, Note_off_c, 0, 58, 62
1, 452170, Control_c, 0, 64, 125
1, 452185, Control_c, 0, 64, 126
1, 452199, Control_c, 0, 64, 126
1, 452201, Note_off_c, 0, 38, 40
1, 452214, Control_c, 0, 64, 127
1, 452229, Control_c, 0, 64, 127
1, 452289, Control_c, 0, 67, 124
1, 452304, Control_c, 0, 67, 106
1, 452315, Note_on_c, 0, 62, 64
1, 452317, Note_on_c, 0, 55, 64
1, 452319, Control_c, 0, 67, 80
1, 452323, Note_on_c, 0, 58, 60
1, 452334, Control_c, 0, 67, 55
1, 452346, Note_off_c, 0, 55, 65
1, 452348, Control_c, 0, 67, 34
1, 452354, Note_off_c, 0, 62, 58
1, 452361, Note_off_c, 0, 58, 61
1, 452363, Control_c, 0, 67, 18
1, 452378, Control_c, 0, 67, 9
1, 452393, Control_c, 0, 67, 0
1, 452441, Note_on_c, 0, 31, 55
1, 452556, Control_c, 0, 64, 109
1, 452565, Note_on_c, 0, 65, 69
1, 452571, Control_c, 0, 64, 92
1, 452574, Note_on_c, 0, 53, 62
1, 452593, Control_c, 0, 64, 71
1, 452608, Control_c, 0, 64, 0
1, 452652, Control_c, 0, 64, 64
1, 452666, Note_off_c, 0, 53, 62
1, 452667, Control_c, 0, 64, 75
1, 452682, Control_c, 0, 64, 87
1, 452697, Control_c, 0, 64, 100
1, 452712, Control_c, 0, 64, 106
1, 452727, Control_c, 0, 64, 110
1, 452741, Control_c, 0, 64, 112
1, 452756, Control_c, 0, 64, 116
1, 452757, Note_off_c, 0, 31, 40
1, 452771, Control_c, 0, 64, 120
1, 452786, Control_c, 0, 64, 126
1, 452789, Note_on_c, 0, 63, 68
1, 452798, Note_on_c, 0, 58, 62
1, 452801, Note_on_c, 0, 55, 55
1, 452801, Control_c, 0, 64, 127
1, 452802, Note_off_c, 0, 65, 56
1, 452838, Note_off_c, 0, 55, 63
1, 452866, Note_off_c, 0, 58, 61
1, 452939, Note_off_c, 0, 63, 59
1, 452965, Note_on_c, 0, 55, 56
1, 452966, Note_on_c, 0, 62, 63
1, 452976, Note_on_c, 0, 58, 57
1, 453063, Note_on_c, 0, 38, 66
1, 453123, Note_off_c, 0, 58, 51
1, 453153, Note_off_c, 0, 55, 0
1, 453156, Note_off_c, 0, 62, 60
1, 453168, Note_on_c, 0, 66, 81
1, 453171, Control_c, 0, 64, 107
1, 453175, Note_on_c, 0, 55, 22
1, 453183, Note_on_c, 0, 51, 76
1, 453186, Control_c, 0, 64, 87
1, 453201, Control_c, 0, 64, 66
1, 453207, Note_off_c, 0, 38, 56
1, 453211, Note_off_c, 0, 55, 53
1, 453216, Control_c, 0, 64, 0
1, 453246, Control_c, 0, 64, 48
1, 453260, Control_c, 0, 64, 71
1, 453275, Control_c, 0, 64, 84
1, 453290, Control_c, 0, 64, 99
1, 453305, Control_c, 0, 64, 111
1, 453320, Control_c, 0, 64, 117
1, 453329, Note_off_c, 0, 51, 62
1, 453342, Control_c, 0, 64, 120
1, 453357, Control_c, 0, 64, 125
1, 453371, Control_c, 0, 64, 127
1, 453377, Note_on_c, 0, 65, 74
1, 453386, Note_on_c, 0, 59, 66
1, 453387, Note_on_c, 0, 56, 68
1, 453389, Note_on_c, 0, 53, 68
1, 453421, Note_off_c, 0, 66, 54
1, 453437, Note_off_c, 0, 53, 61
1, 453442, Note_off_c, 0, 56, 55
1, 453479, Note_off_c, 0, 59, 58
1, 453529, Note_on_c, 0, 54, 71
1, 453551, Note_off_c, 0, 65, 51
1, 453556, Note_on_c, 0, 63, 70
1, 453556, Note_on_c, 0, 56, 70
1, 453559, Note_off_c, 0, 54, 63
1, 453568, Note_on_c, 0, 59, 58
1, 453666, Note_on_c, 0, 31, 59
1, 453698, Note_off_c, 0, 31, 54
1, 453701, Note_on_c, 0, 33, 19
1, 453707, Note_off_c, 0, 56, 53
1, 453746, Note_off_c, 0, 33, 54
1, 453773, Note_on_c, 0, 68, 85
1, 453775, Note_off_c, 0, 59, 41
1, 453776, Note_off_c, 0, 63, 61
1, 453791, Note_on_c, 0, 53, 68
1, 453801, Control_c, 0, 64, 111
1, 453816, Control_c, 0, 64, 89
1, 453831, Control_c, 0, 64, 65
1, 453845, Control_c, 0, 64, 0
1, 453876, Control_c, 0, 64, 53
1, 453891, Control_c, 0, 64, 69
1, 453906, Control_c, 0, 64, 80
1, 453910, Note_off_c, 0, 53, 54
1, 453921, Control_c, 0, 64, 92
1, 453935, Control_c, 0, 64, 103
1, 453950, Control_c, 0, 64, 109
1, 453965, Control_c, 0, 64, 114
1, 453968, Note_on_c, 0, 66, 80
1, 453973, Note_on_c, 0, 54, 63
1, 453980, Control_c, 0, 64, 119
1, 453981, Note_on_c, 0, 58, 65
1, 453984, Note_on_c, 0, 61, 61
1, 453994, Control_c, 0, 64, 127
1, 454009, Note_off_c, 0, 68, 58
1, 454012, Note_off_c, 0, 58, 65
1, 454056, Note_off_c, 0, 61, 58
1, 454095, Note_off_c, 0, 54, 59
1, 454152, Note_on_c, 0, 56, 54
1, 454161, Note_on_c, 0, 65, 71
1, 454164, Note_on_c, 0, 58, 72
1, 454164, Note_on_c, 0, 61, 74
1, 454174, Note_off_c, 0, 56, 61
1, 454177, Note_off_c, 0, 66, 61
1, 454298, Note_on_c, 0, 38, 60
1, 454347, Note_off_c, 0, 58, 53
1, 454362, Note_off_c, 0, 61, 59
1, 454396, Note_off_c, 0, 65, 63
1, 454398, Note_on_c, 0, 70, 78
1, 454405, Note_on_c, 0, 50, 70
1, 454417, Control_c, 0, 64, 101
1, 454432, Control_c, 0, 64, 80
1, 454447, Control_c, 0, 64, 50
1, 454462, Control_c, 0, 64, 0
1, 454492, Control_c, 0, 64, 59
1, 454506, Control_c, 0, 64, 75
1, 454521, Control_c, 0, 64, 88
1, 454536, Control_c, 0, 64, 101
1, 454551, Control_c, 0, 64, 108
1, 454566, Control_c, 0, 64, 111
1, 454581, Control_c, 0, 64, 113
1, 454595, Control_c, 0, 64, 117
1, 454601, Note_off_c, 0, 50, 53
1, 454610, Control_c, 0, 64, 122
1, 454625, Control_c, 0, 64, 125
1, 454629, Note_on_c, 0, 58, 51
1, 454629, Note_on_c, 0, 65, 57
1, 454640, Control_c, 0, 64, 127
1, 454652, Note_off_c, 0, 58, 58
1, 454655, Control_c, 0, 64, 127
1, 454675, Note_off_c, 0, 65, 60
1, 454679, Note_off_c, 0, 38, 40
1, 454775, Note_on_c, 0, 68, 78
1, 454778, Note_on_c, 0, 58, 62
1, 454790, Note_on_c, 0, 65, 60
1, 454803, Note_off_c, 0, 70, 58
1, 454822, Note_off_c, 0, 58, 47
1, 454873, Note_on_c, 0, 31, 65
1, 454904, Note_off_c, 0, 31, 63
1, 454934, Poly_aftertouch_c, 0, 58, 127
1, 454948, Note_off_c, 0, 65, 33
1, 454984, Poly_aftertouch_c, 0, 58, 0
1, 454994, Note_on_c, 0, 49, 73
1, 455004, Control_c, 0, 64, 117
1, 455018, Control_c, 0, 64, 97
1, 455033, Control_c, 0, 64, 77
1, 455048, Control_c, 0, 64, 0
1, 455092, Control_c, 0, 64, 61
1, 455106, Control_c, 0, 64, 72
1, 455121, Control_c, 0, 64, 83
1, 455135, Control_c, 0, 64, 94
1, 455150, Control_c, 0, 64, 102
1, 455165, Control_c, 0, 64, 106
1, 455180, Control_c, 0, 64, 110
1, 455186, Note_on_c, 0, 64, 74
1, 455194, Note_on_c, 0, 58, 66
1, 455195, Control_c, 0, 64, 115
1, 455201, Note_off_c, 0, 49, 55
1, 455210, Control_c, 0, 64, 121
1, 455213, Note_off_c, 0, 68, 56
1, 455225, Control_c, 0, 64, 127
1, 455236, Note_off_c, 0, 58, 55
1, 455353, Note_on_c, 0, 58, 68
1, 455383, Note_off_c, 0, 58, 65
1, 455433, Note_on_c, 0, 38, 68
1, 455445, Note_on_c, 0, 73, 78
1, 455465, Note_off_c, 0, 38, 63
1, 455478, Note_off_c, 0, 64, 60
1, 455541, Note_off_c, 0, 73, 62
1, 455546, Note_on_c, 0, 70, 78
1, 455561, Note_on_c, 0, 56, 78
1, 455589, Control_c, 0, 64, 109
1, 455603, Control_c, 0, 64, 89
1, 455618, Control_c, 0, 64, 69
1, 455633, Control_c, 0, 64, 0
1, 455648, Control_c, 0, 64, 36
1, 455663, Control_c, 0, 64, 66
1, 455678, Control_c, 0, 64, 77
1, 455693, Control_c, 0, 64, 91
1, 455708, Control_c, 0, 64, 105
1, 455721, Note_off_c, 0, 56, 64
1, 455722, Control_c, 0, 64, 112
1, 455726, Note_on_c, 0, 65, 67
1, 455737, Note_on_c, 0, 62, 50
1, 455737, Control_c, 0, 64, 114
1, 455752, Control_c, 0, 64, 115
1, 455766, Control_c, 0, 64, 116
1, 455781, Control_c, 0, 64, 117
1, 455785, Note_off_c, 0, 62, 58
1, 455796, Control_c, 0, 64, 117
1, 455797, Note_on_c, 0, 71, 67
1, 455811, Control_c, 0, 64, 118
1, 455821, Note_off_c, 0, 70, 34
1, 455824, Note_off_c, 0, 65, 63
1, 455826, Control_c, 0, 64, 118
1, 455854, Control_c, 0, 64, 119
1, 455860, Note_off_c, 0, 71, 58
1, 455884, Control_c, 0, 64, 119
1, 455890, Note_on_c, 0, 73, 87
1, 455897, Note_on_c, 0, 62, 73
1, 455899, Control_c, 0, 64, 120
1, 455900, Note_on_c, 0, 65, 65
1, 455913, Control_c, 0, 64, 122
1, 455928, Control_c, 0, 64, 124
1, 455943, Control_c, 0, 64, 126
1, 455951, Note_off_c, 0, 62, 54
1, 455958, Control_c, 0, 64, 127
1, 455970, Note_off_c, 0, 65, 62
1, 455979, Note_on_c, 0, 35, 77
1, 456003, Note_off_c, 0, 35, 66
1, 456042, Note_off_c, 0, 73, 59
1, 456094, Note_on_c, 0, 55, 82
1, 456135, Note_on_c, 0, 74, 74
1, 456136, Control_c, 0, 64, 111
1, 456151, Control_c, 0, 64, 90
1, 456165, Control_c, 0, 64, 69
1, 456179, Note_off_c, 0, 74, 64
1, 456180, Control_c, 0, 64, 0
1, 456210, Control_c, 0, 64, 53
1, 456225, Control_c, 0, 64, 73
1, 456239, Control_c, 0, 64, 86
1, 456241, Note_on_c, 0, 72, 77
1, 456241, Note_on_c, 0, 77, 87
1, 456244, Note_on_c, 0, 68, 86
1, 456255, Control_c, 0, 64, 102
1, 456270, Control_c, 0, 64, 115
1, 456285, Control_c, 0, 64, 121
1, 456293, Note_off_c, 0, 68, 61
1, 456300, Control_c, 0, 64, 126
1, 456313, Note_off_c, 0, 72, 63
1, 456315, Control_c, 0, 64, 127
1, 456334, Note_off_c, 0, 77, 59
1, 456358, Note_off_c, 0, 55, 57
1, 456438, Note_on_c, 0, 53, 79
1, 456443, Note_on_c, 0, 78, 91
1, 456446, Note_on_c, 0, 69, 83
1, 456461, Note_off_c, 0, 53, 69
1, 456465, Note_off_c, 0, 69, 74
1, 456494, Note_on_c, 0, 74, 24
1, 456507, Note_off_c, 0, 78, 59
1, 456528, Note_off_c, 0, 74, 46
1, 456580, Note_on_c, 0, 33, 53
1, 456610, Note_off_c, 0, 33, 56
1, 456642, Poly_aftertouch_c, 0, 31, 127
1, 456679, Poly_aftertouch_c, 0, 31, 0
1, 456703, Note_on_c, 0, 79, 90
1, 456706, Control_c, 0, 64, 124
1, 456707, Note_on_c, 0, 51, 80
1, 456721, Control_c, 0, 64, 95
1, 456736, Control_c, 0, 64, 71
1, 456751, Control_c, 0, 64, 0
1, 456781, Control_c, 0, 64, 30
1, 456796, Control_c, 0, 64, 70
1, 456806, Note_off_c, 0, 79, 56
1, 456811, Control_c, 0, 64, 82
1, 456826, Control_c, 0, 64, 98
1, 456841, Control_c, 0, 64, 113
1, 456855, Control_c, 0, 64, 120
1, 456870, Control_c, 0, 64, 122
1, 456885, Control_c, 0, 64, 127
1, 456920, Note_on_c, 0, 63, 78
1, 456922, Note_on_c, 0, 72, 65
1, 456955, Note_off_c, 0, 51, 54
1, 456955, Note_off_c, 0, 63, 58
1, 457006, Note_off_c, 0, 72, 56
1, 457074, Note_on_c, 0, 78, 84
1, 457076, Note_on_c, 0, 72, 67
1, 457152, Note_off_c, 0, 72, 60
1, 457174, Note_on_c, 0, 43, 70
1, 457208, Note_off_c, 0, 43, 63
1, 457278, Control_c, 0, 64, 119
1, 457289, Note_on_c, 0, 62, 92
1, 457293, Control_c, 0, 64, 92
1, 457308, Control_c, 0, 64, 67
1, 457323, Control_c, 0, 64, 0
1, 457367, Control_c, 0, 64, 61
1, 457382, Control_c, 0, 64, 78
1, 457397, Control_c, 0, 64, 93
1, 457411, Control_c, 0, 64, 110
1, 457426, Control_c, 0, 64, 116
1, 457441, Control_c, 0, 64, 118
1, 457442, Note_off_c, 0, 62, 58
1, 457456, Control_c, 0, 64, 121
1, 457471, Control_c, 0, 64, 127
1, 457479, Note_on_c, 0, 75, 79
1, 457481, Note_on_c, 0, 67, 77
1, 457487, Note_on_c, 0, 74, 69
1, 457503, Note_off_c, 0, 78, 60
1, 457536, Note_off_c, 0, 67, 60
1, 457579, Note_off_c, 0, 74, 62
1, 457657, Note_on_c, 0, 74, 67
1, 457659, Note_on_c, 0, 67, 71
1, 457684, Note_on_c, 0, 31, 73
1, 457688, Note_off_c, 0, 67, 64
1, 457699, Note_off_c, 0, 75, 59
1, 457714, Note_off_c, 0, 31, 63
1, 457735, Note_on_c, 0, 77, 82
1, 457750, Note_off_c, 0, 74, 63
1, 457798, Note_off_c, 0, 77, 58
1, 457833, Control_c, 0, 64, 112
1, 457843, Note_on_c, 0, 80, 93
1, 457848, Control_c, 0, 64, 89
1, 457851, Note_on_c, 0, 54, 87
1, 457864, Control_c, 0, 64, 62
1, 457879, Control_c, 0, 64, 0
1, 457923, Control_c, 0, 64, 54
1, 457938, Control_c, 0, 64, 73
1, 457953, Control_c, 0, 64, 90
1, 457967, Control_c, 0, 64, 108
1, 457982, Control_c, 0, 64, 117
1, 457997, Control_c, 0, 64, 119
1, 458012, Control_c, 0, 64, 124
1, 458015, Note_off_c, 0, 54, 60
1, 458027, Control_c, 0, 64, 127
1, 458039, Note_on_c, 0, 75, 67
1, 458048, Note_on_c, 0, 72, 64
1, 458081, Note_off_c, 0, 80, 58
1, 458104, Note_on_c, 0, 78, 77
1, 458106, Note_off_c, 0, 72, 64
1, 458123, Note_off_c, 0, 75, 63
1, 458153, Note_off_c, 0, 78, 63
1, 458197, Note_on_c, 0, 79, 86
1, 458202, Note_on_c, 0, 75, 81
1, 458205, Control_c, 0, 64, 98
1, 458208, Note_on_c, 0, 63, 84
1, 458209, Note_on_c, 0, 72, 77
1, 458220, Control_c, 0, 64, 76
1, 458234, Control_c, 0, 64, 0
1, 458264, Control_c, 0, 64, 34
1, 458279, Note_off_c, 0, 63, 55
1, 458279, Control_c, 0, 64, 70
1, 458294, Control_c, 0, 64, 82
1, 458307, Note_off_c, 0, 72, 62
1, 458308, Control_c, 0, 64, 98
1, 458323, Note_off_c, 0, 75, 64
1, 458323, Control_c, 0, 64, 113
1, 458338, Control_c, 0, 64, 120
1, 458352, Control_c, 0, 64, 127
1, 458358, Note_off_c, 0, 79, 60
1, 458421, Note_on_c, 0, 60, 98
1, 458441, Control_c, 0, 64, 99
1, 458456, Control_c, 0, 64, 74
1, 458471, Control_c, 0, 64, 0
1, 458516, Control_c, 0, 64, 23
1, 458531, Control_c, 0, 64, 70
1, 458546, Control_c, 0, 64, 82
1, 458560, Note_off_c, 0, 60, 62
1, 458560, Control_c, 0, 64, 96
1, 458582, Control_c, 0, 64, 106
1, 458597, Control_c, 0, 64, 111
1, 458606, Note_on_c, 0, 75, 90
1, 458610, Note_on_c, 0, 81, 85
1, 458611, Note_on_c, 0, 79, 82
1, 458612, Control_c, 0, 64, 116
1, 458627, Control_c, 0, 64, 127
1, 458644, Note_off_c, 0, 75, 62
1, 458668, Note_off_c, 0, 79, 59
1, 458673, Note_off_c, 0, 81, 58
1, 458805, Control_c, 0, 64, 108
1, 458820, Control_c, 0, 64, 82
1, 458826, Note_on_c, 0, 43, 85
1, 458829, Note_on_c, 0, 83, 93
1, 458832, Note_on_c, 0, 77, 90
1, 458835, Note_on_c, 0, 74, 80
1, 458835, Control_c, 0, 64, 64
1, 458850, Control_c, 0, 64, 52
1, 458865, Control_c, 0, 64, 67
1, 458879, Control_c, 0, 64, 78
1, 458894, Control_c, 0, 64, 90
1, 458900, Note_off_c, 0, 74, 54
1, 458902, Note_off_c, 0, 77, 59
1, 458909, Control_c, 0, 64, 100
1, 458918, Note_off_c, 0, 83, 55
1, 458924, Control_c, 0, 64, 103
1, 458931, Note_off_c, 0, 43, 55
1, 458939, Control_c, 0, 64, 105
1, 458954, Control_c, 0, 64, 108
1, 458969, Control_c, 0, 64, 114
1, 458983, Control_c, 0, 64, 124
1, 458998, Control_c, 0, 64, 127
1, 459013, Control_c, 0, 64, 125
1, 459027, Note_on_c, 0, 84, 91
1, 459028, Control_c, 0, 64, 106
1, 459028, Note_on_c, 0, 72, 89
1, 459030, Note_on_c, 0, 44, 86
1, 459031, Note_on_c, 0, 75, 84
1, 459043, Control_c, 0, 64, 85
1, 459057, Control_c, 0, 64, 64
1, 459072, Control_c, 0, 64, 0
1, 459101, Note_off_c, 0, 72, 59
1, 459101, Control_c, 0, 64, 66
1, 459116, Control_c, 0, 64, 78
1, 459130, Note_off_c, 0, 75, 62
1, 459131, Control_c, 0, 64, 91
1, 459141, Note_off_c, 0, 44, 59
1, 459146, Control_c, 0, 64, 103
1, 459161, Control_c, 0, 64, 108
1, 459175, Control_c, 0, 64, 109
1, 459190, Control_c, 0, 64, 112
1, 459205, Control_c, 0, 64, 116
1, 459218, Note_on_c, 0, 82, 90
1, 459220, Control_c, 0, 64, 121
1, 459224, Note_on_c, 0, 43, 82
1, 459235, Control_c, 0, 64, 125
1, 459249, Control_c, 0, 64, 127
1, 459252, Note_off_c, 0, 84, 59
1, 459264, Note_off_c, 0, 43, 61
1, 459369, Note_off_c, 0, 82, 60
1, 459405, Control_c, 0, 64, 106
1, 459418, Note_on_c, 0, 80, 92
1, 459420, Control_c, 0, 64, 84
1, 459425, Note_on_c, 0, 72, 85
1, 459426, Note_on_c, 0, 79, 81
1, 459427, Note_on_c, 0, 41, 71
1, 459435, Control_c, 0, 64, 63
1, 459450, Control_c, 0, 64, 0
1, 459466, Control_c, 0, 64, 42
1, 459473, Note_off_c, 0, 72, 62
1, 459480, Control_c, 0, 64, 71
1, 459493, Note_off_c, 0, 41, 64
1, 459495, Control_c, 0, 64, 83
1, 459497, Note_off_c, 0, 79, 63
1, 459499, Note_off_c, 0, 80, 64
1, 459510, Note_on_c, 0, 53, 90
1, 459510, Control_c, 0, 64, 96
1, 459525, Control_c, 0, 64, 104
1, 459540, Control_c, 0, 64, 107
1, 459554, Control_c, 0, 64, 111
1, 459559, Note_off_c, 0, 53, 66
1, 459569, Control_c, 0, 64, 119
1, 459584, Control_c, 0, 64, 127
1, 459628, Control_c, 0, 64, 117
1, 459631, Note_on_c, 0, 40, 85
1, 459637, Note_on_c, 0, 85, 82
1, 459642, Note_on_c, 0, 80, 84
1, 459643, Note_on_c, 0, 73, 91
1, 459643, Control_c, 0, 64, 94
1, 459658, Control_c, 0, 64, 74
1, 459673, Control_c, 0, 64, 41
1, 459687, Control_c, 0, 64, 60
1, 459702, Control_c, 0, 64, 72
1, 459711, Note_off_c, 0, 40, 61
1, 459717, Control_c, 0, 64, 84
1, 459723, Note_on_c, 0, 52, 88
1, 459723, Note_off_c, 0, 73, 59
1, 459732, Control_c, 0, 64, 97
1, 459747, Control_c, 0, 64, 104
1, 459762, Control_c, 0, 64, 105
1, 459776, Note_off_c, 0, 85, 58
1, 459777, Control_c, 0, 64, 110
1, 459792, Control_c, 0, 64, 119
1, 459797, Note_off_c, 0, 80, 60
1, 459798, Note_off_c, 0, 52, 63
1, 459806, Control_c, 0, 64, 127
1, 459836, Control_c, 0, 64, 122
1, 459847, Note_on_c, 0, 39, 79
1, 459848, Note_on_c, 0, 84, 92
1, 459851, Note_on_c, 0, 75, 98
1, 459851, Control_c, 0, 64, 102
1, 459866, Control_c, 0, 64, 80
1, 459866, Control_c, 0, 67, 8
1, 459880, Control_c, 0, 64, 66
1, 459880, Control_c, 0, 67, 8
1, 459895, Control_c, 0, 64, 65
1, 459910, Control_c, 0, 64, 75
1, 459910, Control_c, 0, 67, 8
1, 459924, Control_c, 0, 64, 90
1, 459924, Control_c, 0, 67, 0
1, 459930, Note_on_c, 0, 51, 87
1, 459933, Note_off_c, 0, 75, 57
1, 459939, Control_c, 0, 64, 107
1, 459940, Note_off_c, 0, 39, 53
1, 459954, Control_c, 0, 64, 118
1, 459969, Control_c, 0, 64, 120
1, 459984, Control_c, 0, 64, 125
1, 459988, Note_off_c, 0, 51, 62
1, 459998, Control_c, 0, 64, 127
1, 460020, Note_off_c, 0, 84, 60
1, 460028, Control_c, 0, 67, 8
1, 460043, Control_c, 0, 67, 9
1, 460050, Note_on_c, 0, 37, 78
1, 460058, Control_c, 0, 64, 99
1, 460058, Control_c, 0, 67, 9
1, 460066, Note_on_c, 0, 82, 93
1, 460068, Note_on_c, 0, 76, 91
1, 460073, Control_c, 0, 64, 79
1, 460073, Control_c, 0, 67, 10
1, 460095, Control_c, 0, 64, 63
1, 460095, Control_c, 0, 67, 11
1, 460110, Control_c, 0, 67, 11
1, 460125, Control_c, 0, 64, 73
1, 460125, Control_c, 0, 67, 10
1, 460134, Note_off_c, 0, 76, 62
1, 460139, Control_c, 0, 64, 86
1, 460140, Note_off_c, 0, 37, 57
1, 460146, Note_on_c, 0, 49, 85
1, 460154, Control_c, 0, 64, 107
1, 460154, Control_c, 0, 67, 9
1, 460156, Note_off_c, 0, 82, 61
1, 460169, Control_c, 0, 64, 119
1, 460184, Control_c, 0, 64, 120
1, 460199, Note_off_c, 0, 49, 59
1, 460199, Control_c, 0, 64, 121
1, 460199, Control_c, 0, 67, 8
1, 460213, Control_c, 0, 64, 127
1, 460228, Control_c, 0, 64, 127
1, 460228, Control_c, 0, 67, 8
1, 460274, Control_c, 0, 67, 0
1, 460333, Control_c, 0, 64, 121
1, 460333, Control_c, 0, 67, 8
1, 460348, Control_c, 0, 64, 92
1, 460348, Control_c, 0, 67, 8
1, 460362, Control_c, 0, 64, 67
1, 460362, Control_c, 0, 67, 9
1, 460376, Note_on_c, 0, 74, 95
1, 460377, Note_on_c, 0, 86, 95
1, 460377, Control_c, 0, 64, 0
1, 460377, Control_c, 0, 67, 10
1, 460378, Note_on_c, 0, 47, 96
1, 460379, Note_on_c, 0, 35, 80
1, 460392, Control_c, 0, 67, 11
1, 460407, Control_c, 0, 67, 10
1, 460429, Note_off_c, 0, 35, 62
1, 460436, Control_c, 0, 67, 9
1, 460451, Control_c, 0, 64, 62
1, 460451, Control_c, 0, 67, 9
1, 460466, Control_c, 0, 64, 78
1, 460466, Control_c, 0, 67, 8
1, 460475, Note_off_c, 0, 47, 60
1, 460481, Control_c, 0, 64, 97
1, 460481, Control_c, 0, 67, 8
1, 460496, Control_c, 0, 64, 127
1, 460496, Control_c, 0, 67, 0
1, 460500, Note_off_c, 0, 86, 63
1, 460504, Note_off_c, 0, 74, 58
1, 460520, Poly_aftertouch_c, 0, 78, 127
1, 460550, Poly_aftertouch_c, 0, 78, 0
1, 460689, Control_c, 0, 67, 8
1, 460698, Note_on_c, 0, 62, 71
1, 460705, Note_on_c, 0, 55, 61
1, 460731, Note_off_c, 0, 62, 60
1, 460748, Note_off_c, 0, 55, 60
1, 460844, Control_c, 0, 67, 0
1, 460909, Note_on_c, 0, 55, 64
1, 460911, Note_on_c, 0, 74, 84
1, 460912, Note_on_c, 0, 62, 84
1, 460924, Note_on_c, 0, 50, 55
1, 460931, Note_off_c, 0, 55, 65
1, 460948, Note_off_c, 0, 50, 62
1, 461126, Control_c, 0, 64, 98
1, 461126, Control_c, 0, 67, 8
1, 461141, Control_c, 0, 64, 73
1, 461141, Control_c, 0, 67, 8
1, 461155, Note_on_c, 0, 48, 74
1, 461156, Control_c, 0, 64, 0
1, 461160, Note_on_c, 0, 36, 64
1, 461207, Note_off_c, 0, 36, 64
1, 461215, Control_c, 0, 64, 67
1, 461225, Note_off_c, 0, 48, 66
1, 461230, Control_c, 0, 64, 80
1, 461230, Control_c, 0, 67, 8
1, 461245, Control_c, 0, 64, 98
1, 461259, Control_c, 0, 64, 119
1, 461259, Control_c, 0, 67, 0
1, 461270, Note_off_c, 0, 62, 60
1, 461274, Control_c, 0, 64, 127
1, 461289, Control_c, 0, 64, 127
1, 461290, Note_off_c, 0, 74, 62
1, 461380, Note_on_c, 0, 62, 83
1, 461381, Note_on_c, 0, 74, 83
1, 461385, Note_on_c, 0, 60, 61
1, 461388, Note_on_c, 0, 57, 57
1, 461422, Note_off_c, 0, 60, 61
1, 461431, Note_off_c, 0, 57, 55
1, 461440, Note_off_c, 0, 62, 59
1, 461471, Note_off_c, 0, 74, 62
1, 461559, Note_on_c, 0, 57, 58
1, 461561, Note_on_c, 0, 48, 68
1, 461563, Note_on_c, 0, 76, 86
1, 461568, Note_on_c, 0, 64, 81
1, 461585, Note_off_c, 0, 57, 63
1, 461601, Note_off_c, 0, 64, 65
1, 461604, Note_off_c, 0, 48, 67
1, 461634, Note_off_c, 0, 76, 62
1, 461756, Control_c, 0, 67, 8
1, 461785, Control_c, 0, 64, 98
1, 461785, Control_c, 0, 67, 8
1, 461800, Control_c, 0, 64, 76
1, 461810, Note_on_c, 0, 78, 83
1, 461815, Control_c, 0, 64, 39
1, 461819, Note_on_c, 0, 66, 70
1, 461819, Note_on_c, 0, 47, 64
1, 461826, Note_on_c, 0, 35, 60
1, 461830, Control_c, 0, 64, 0
1, 461845, Control_c, 0, 64, 63
1, 461850, Note_off_c, 0, 66, 68
1, 461860, Control_c, 0, 64, 73
1, 461875, Control_c, 0, 64, 86
1, 461877, Note_off_c, 0, 35, 64
1, 461890, Control_c, 0, 64, 100
1, 461890, Control_c, 0, 67, 8
1, 461893, Note_off_c, 0, 78, 62
1, 461905, Control_c, 0, 64, 110
1, 461905, Control_c, 0, 67, 0
1, 461920, Control_c, 0, 64, 115
1, 461921, Note_off_c, 0, 47, 62
1, 461935, Control_c, 0, 64, 118
1, 461950, Control_c, 0, 64, 123
1, 461965, Control_c, 0, 64, 127
1, 461970, Note_on_c, 0, 81, 85
1, 461971, Note_on_c, 0, 69, 81
1, 461987, Note_off_c, 0, 81, 72
1, 461991, Note_off_c, 0, 69, 74
1, 462050, Note_on_c, 0, 79, 86
1, 462057, Note_on_c, 0, 67, 83
1, 462057, Note_on_c, 0, 62, 70
1, 462058, Note_on_c, 0, 59, 65
1, 462074, Note_off_c, 0, 79, 62
1, 462077, Note_off_c, 0, 67, 70
1, 462087, Note_on_c, 0, 77, 42
1, 462088, Note_off_c, 0, 62, 63
1, 462094, Note_off_c, 0, 59, 58
1, 462114, Note_off_c, 0, 77, 58
1, 462232, Note_on_c, 0, 59, 50
1, 462238, Note_on_c, 0, 50, 64
1, 462238, Note_on_c, 0, 62, 65
1, 462252, Note_on_c, 0, 74, 35
1, 462260, Note_off_c, 0, 59, 53
1, 462266, Note_off_c, 0, 62, 62
1, 462272, Note_off_c, 0, 50, 65
1, 462280, Note_off_c, 0, 74, 55
1, 462299, Note_on_c, 0, 67, 75
1, 462356, Note_off_c, 0, 67, 63
1, 462365, Note_on_c, 0, 71, 70
1, 462397, Note_on_c, 0, 74, 65
1, 462418, Note_off_c, 0, 71, 63
1, 462460, Note_off_c, 0, 74, 70
1, 462464, Note_on_c, 0, 79, 75
1, 462487, Note_off_c, 0, 79, 68
1, 462579, Control_c, 0, 64, 103
1, 462585, Note_on_c, 0, 83, 89
1, 462588, Note_on_c, 0, 71, 87
1, 462593, Note_on_c, 0, 48, 75
1, 462594, Control_c, 0, 64, 76
1, 462596, Note_on_c, 0, 36, 68
1, 462609, Control_c, 0, 64, 0
1, 462654, Control_c, 0, 64, 57
1, 462665, Note_off_c, 0, 36, 64
1, 462669, Control_c, 0, 64, 75
1, 462684, Control_c, 0, 64, 92
1, 462691, Note_off_c, 0, 48, 62
1, 462698, Control_c, 0, 64, 117
1, 462713, Control_c, 0, 64, 127
1, 462757, Note_off_c, 0, 71, 60
1, 462762, Note_off_c, 0, 83, 58
1, 462845, Note_on_c, 0, 81, 91
1, 462850, Note_on_c, 0, 69, 81
1, 462853, Note_on_c, 0, 64, 63
1, 462865, Note_on_c, 0, 60, 56
1, 462879, Note_off_c, 0, 64, 62
1, 462879, Note_off_c, 0, 69, 61
1, 462892, Note_on_c, 0, 71, 27
1, 462896, Note_off_c, 0, 81, 62
1, 462913, Note_off_c, 0, 60, 52
1, 462924, Note_off_c, 0, 71, 54
1, 463026, Note_on_c, 0, 60, 55
1, 463034, Note_on_c, 0, 52, 72
1, 463035, Note_on_c, 0, 76, 90
1, 463045, Note_off_c, 0, 60, 61
1, 463061, Note_off_c, 0, 52, 68
1, 463065, Note_on_c, 0, 64, 35
1, 463066, Note_off_c, 0, 64, 127
1, 463098, Note_off_c, 0, 76, 68
1, 463100, Poly_aftertouch_c, 0, 64, 0
1, 463298, Control_c, 0, 64, 102
1, 463313, Control_c, 0, 64, 73
1, 463313, Control_c, 0, 67, 8
1, 463318, Note_on_c, 0, 88, 89
1, 463321, Note_on_c, 0, 31, 75
1, 463321, Note_on_c, 0, 76, 89
1, 463323, Note_on_c, 0, 43, 75
1, 463328, Control_c, 0, 64, 0
1, 463357, Control_c, 0, 64, 32
1, 463357, Control_c, 0, 67, 0
1, 463361, Note_off_c, 0, 31, 65
1, 463372, Control_c, 0, 64, 68
1, 463387, Control_c, 0, 64, 80
1, 463402, Control_c, 0, 64, 102
1, 463407, Note_off_c, 0, 43, 58
1, 463417, Control_c, 0, 64, 127
1, 463524, Note_off_c, 0, 88, 60
1, 463527, Note_off_c, 0, 76, 63
1, 463548, Note_on_c, 0, 54, 76
1, 463623, Note_on_c, 0, 74, 82
1, 463623, Note_on_c, 0, 86, 82
1, 463644, Note_off_c, 0, 74, 68
1, 463654, Note_off_c, 0, 86, 62
1, 463713, Note_off_c, 0, 54, 55
1, 463730, Note_on_c, 0, 55, 74
1, 463734, Note_on_c, 0, 83, 75
1, 463736, Note_on_c, 0, 71, 76
1, 463759, Note_off_c, 0, 83, 63
1, 463763, Note_off_c, 0, 55, 67
1, 463764, Note_on_c, 0, 84, 15
1, 463771, Note_off_c, 0, 71, 51
1, 463804, Note_off_c, 0, 84, 51
1, 463988, Control_c, 0, 64, 92
1, 463993, Note_on_c, 0, 59, 83
1, 463998, Note_on_c, 0, 36, 59
1, 464000, Note_on_c, 0, 48, 71
1, 464003, Control_c, 0, 64, 68
1, 464018, Control_c, 0, 64, 0
1, 464018, Control_c, 0, 67, 8
1, 464037, Note_off_c, 0, 36, 65
1, 464048, Control_c, 0, 64, 64
1, 464062, Control_c, 0, 64, 76
1, 464068, Note_off_c, 0, 59, 63
1, 464077, Control_c, 0, 64, 94
1, 464093, Control_c, 0, 64, 112
1, 464093, Control_c, 0, 67, 0
1, 464107, Control_c, 0, 64, 125
1, 464122, Control_c, 0, 64, 127
1, 464127, Note_off_c, 0, 48, 60
1, 464230, Note_on_c, 0, 81, 83
1, 464234, Note_on_c, 0, 69, 70
1, 464265, Note_off_c, 0, 69, 65
1, 464293, Note_off_c, 0, 81, 58
1, 464425, Note_on_c, 0, 52, 55
1, 464428, Note_on_c, 0, 76, 83
1, 464430, Note_on_c, 0, 64, 81
1, 464457, Note_off_c, 0, 64, 65
1, 464488, Note_off_c, 0, 76, 64
1, 464598, Note_off_c, 0, 52, 59
1, 464604, Control_c, 0, 67, 8
1, 464619, Control_c, 0, 64, 107
1, 464619, Control_c, 0, 67, 8
1, 464634, Control_c, 0, 64, 83
1, 464649, Control_c, 0, 64, 50
1, 464655, Note_on_c, 0, 78, 79
1, 464660, Note_on_c, 0, 66, 74
1, 464662, Note_on_c, 0, 58, 64
1, 464664, Control_c, 0, 64, 0
1, 464678, Control_c, 0, 64, 62
1, 464693, Control_c, 0, 64, 72
1, 464708, Control_c, 0, 64, 84
1, 464715, Note_off_c, 0, 66, 63
1, 464720, Note_off_c, 0, 58, 62
1, 464722, Control_c, 0, 64, 99
1, 464722, Control_c, 0, 67, 8
1, 464737, Control_c, 0, 64, 112
1, 464737, Control_c, 0, 67, 0
1, 464742, Note_off_c, 0, 78, 62
1, 464752, Control_c, 0, 64, 120
1, 464767, Control_c, 0, 64, 123
1, 464782, Control_c, 0, 64, 127
1, 464811, Note_on_c, 0, 43, 60
1, 464814, Note_on_c, 0, 81, 85
1, 464816, Note_on_c, 0, 69, 86
1, 464831, Note_off_c, 0, 81, 72
1, 464835, Note_off_c, 0, 69, 75
1, 464839, Note_off_c, 0, 43, 55
1, 464844, Note_on_c, 0, 50, 57
1, 464894, Note_on_c, 0, 79, 92
1, 464899, Note_on_c, 0, 67, 81
1, 464904, Note_on_c, 0, 59, 75
1, 464920, Note_off_c, 0, 67, 68
1, 464934, Note_off_c, 0, 79, 61
1, 464964, Note_off_c, 0, 59, 59
1, 465079, Note_on_c, 0, 62, 79
1, 465089, Note_on_c, 0, 74, 61
1, 465090, Note_on_c, 0, 43, 67
1, 465103, Note_off_c, 0, 62, 68
1, 465107, Note_off_c, 0, 74, 67
1, 465130, Note_off_c, 0, 50, 56
1, 465145, Note_on_c, 0, 67, 79
1, 465162, Note_off_c, 0, 43, 57
1, 465196, Note_off_c, 0, 67, 61
1, 465206, Note_on_c, 0, 71, 69
1, 465243, Note_on_c, 0, 74, 65
1, 465256, Note_off_c, 0, 71, 62
1, 465301, Note_off_c, 0, 74, 66
1, 465304, Note_on_c, 0, 79, 78
1, 465332, Note_off_c, 0, 79, 70
1, 465435, Note_on_c, 0, 51, 76
1, 465437, Note_on_c, 0, 83, 87
1, 465441, Note_on_c, 0, 71, 83
1, 465442, Control_c, 0, 64, 109
1, 465457, Control_c, 0, 64, 84
1, 465472, Control_c, 0, 64, 60
1, 465487, Control_c, 0, 64, 0
1, 465515, Note_off_c, 0, 51, 62
1, 465516, Control_c, 0, 64, 66
1, 465531, Control_c, 0, 64, 79
1, 465545, Control_c, 0, 64, 96
1, 465560, Control_c, 0, 64, 119
1, 465575, Control_c, 0, 64, 127
1, 465609, Note_off_c, 0, 83, 57
1, 465611, Note_on_c, 0, 36, 66
1, 465612, Note_off_c, 0, 71, 59
1, 465640, Note_off_c, 0, 36, 65
1, 465658, Note_on_c, 0, 45, 58
1, 465706, Note_on_c, 0, 81, 90
1, 465709, Note_on_c, 0, 52, 76
1, 465709, Note_on_c, 0, 69, 88
1, 465735, Note_off_c, 0, 69, 62
1, 465746, Note_off_c, 0, 81, 60
1, 465747, Note_off_c, 0, 52, 58
1, 465891, Note_off_c, 0, 45, 0
1, 465904, Note_on_c, 0, 45, 58
1, 465911, Note_on_c, 0, 76, 90
1, 465914, Note_on_c, 0, 36, 73
1, 465914, Note_on_c, 0, 64, 88
1, 465934, Note_off_c, 0, 64, 72
1, 465937, Note_off_c, 0, 45, 65
1, 465955, Note_off_c, 0, 36, 65
1, 465962, Note_off_c, 0, 76, 66
1, 466190, Control_c, 0, 64, 97
1, 466203, Note_on_c, 0, 79, 93
1, 466205, Control_c, 0, 64, 71
1, 466207, Note_on_c, 0, 41, 89
1, 466212, Note_on_c, 0, 29, 81
1, 466220, Control_c, 0, 64, 0
1, 466249, Control_c, 0, 67, 8
1, 466279, Control_c, 0, 64, 70
1, 466279, Control_c, 0, 67, 0
1, 466293, Control_c, 0, 64, 88
1, 466308, Control_c, 0, 64, 120
1, 466311, Note_off_c, 0, 29, 61
1, 466323, Control_c, 0, 64, 127
1, 466329, Note_off_c, 0, 79, 64
1, 466352, Note_off_c, 0, 41, 63
1, 466410, Note_on_c, 0, 91, 71
1, 466417, Note_on_c, 0, 81, 68
1, 466417, Note_on_c, 0, 84, 67
1, 466459, Note_off_c, 0, 81, 56
1, 466487, Note_off_c, 0, 84, 59
1, 466487, Note_off_c, 0, 91, 56
1, 466571, Note_on_c, 0, 48, 74
1, 466579, Note_on_c, 0, 81, 73
1, 466585, Note_on_c, 0, 91, 70
1, 466588, Note_on_c, 0, 84, 73
1, 466602, Note_off_c, 0, 91, 59
1, 466602, Note_off_c, 0, 48, 66
1, 466627, Note_off_c, 0, 84, 56
1, 466637, Note_off_c, 0, 81, 60
1, 466662, Note_on_c, 0, 48, 76
1, 466684, Note_on_c, 0, 50, 72
1, 466726, Note_on_c, 0, 52, 79
1, 466749, Note_off_c, 0, 48, 60
1, 466760, Note_on_c, 0, 53, 71
1, 466783, Note_on_c, 0, 72, 92
1, 466796, Note_on_c, 0, 55, 94
1, 466822, Note_off_c, 0, 52, 65
1, 466824, Note_off_c, 0, 50, 58
1, 466835, Note_off_c, 0, 53, 64
1, 466971, Note_off_c, 0, 55, 57
1, 466992, Note_on_c, 0, 79, 64
1, 466993, Note_on_c, 0, 84, 64
1, 467005, Note_on_c, 0, 81, 56
1, 467064, Note_off_c, 0, 84, 59
1, 467064, Note_off_c, 0, 81, 41
1, 467069, Note_off_c, 0, 79, 53
1, 467150, Note_on_c, 0, 57, 93
1, 467159, Note_on_c, 0, 81, 62
1, 467159, Note_on_c, 0, 84, 58
1, 467163, Note_on_c, 0, 79, 60
1, 467169, Note_off_c, 0, 72, 62
1, 467181, Note_off_c, 0, 84, 63
1, 467189, Note_off_c, 0, 81, 61
1, 467194, Note_off_c, 0, 79, 63
1, 467292, Note_off_c, 0, 57, 49
1, 467363, Note_on_c, 0, 67, 96
1, 467369, Control_c, 0, 64, 122
1, 467369, Control_c, 0, 67, 8
1, 467371, Note_on_c, 0, 60, 86
1, 467384, Control_c, 0, 64, 93
1, 467384, Control_c, 0, 67, 8
1, 467399, Control_c, 0, 64, 72
1, 467414, Control_c, 0, 64, 45
1, 467429, Control_c, 0, 64, 58
1, 467444, Control_c, 0, 64, 69
1, 467459, Control_c, 0, 64, 80
1, 467474, Control_c, 0, 64, 96
1, 467474, Control_c, 0, 67, 8
1, 467488, Control_c, 0, 64, 112
1, 467488, Control_c, 0, 67, 0
1, 467503, Control_c, 0, 64, 123
1, 467505, Note_off_c, 0, 67, 59
1, 467518, Control_c, 0, 64, 127
1, 467535, Note_off_c, 0, 60, 59
1, 467551, Note_on_c, 0, 79, 68
1, 467556, Note_on_c, 0, 69, 58
1, 467556, Note_on_c, 0, 72, 62
1, 467605, Note_off_c, 0, 69, 60
1, 467623, Note_off_c, 0, 79, 58
1, 467649, Note_off_c, 0, 72, 51
1, 467733, Note_on_c, 0, 48, 90
1, 467738, Note_on_c, 0, 79, 75
1, 467746, Note_on_c, 0, 69, 70
1, 467755, Note_on_c, 0, 72, 70
1, 467761, Note_off_c, 0, 79, 58
1, 467765, Note_off_c, 0, 48, 65
1, 467783, Note_off_c, 0, 72, 64
1, 467816, Note_off_c, 0, 69, 61
1, 467968, Note_on_c, 0, 64, 86
1, 467968, Note_on_c, 0, 41, 96
1, 467980, Note_on_c, 0, 29, 76
1, 467985, Control_c, 0, 64, 118
1, 467985, Control_c, 0, 67, 8
1, 468000, Control_c, 0, 64, 88
1, 468000, Control_c, 0, 67, 8
1, 468014, Control_c, 0, 64, 66
1, 468029, Control_c, 0, 64, 0
1, 468044, Control_c, 0, 67, 8
1, 468059, Control_c, 0, 64, 60
1, 468073, Control_c, 0, 64, 73
1, 468073, Control_c, 0, 67, 0
1, 468088, Control_c, 0, 64, 89
1, 468103, Control_c, 0, 64, 106
1, 468114, Note_off_c, 0, 41, 63
1, 468118, Control_c, 0, 64, 122
1, 468133, Control_c, 0, 64, 127
1, 468136, Note_off_c, 0, 29, 61
1, 468153, Note_on_c, 0, 69, 67
1, 468158, Note_on_c, 0, 76, 65
1, 468159, Note_on_c, 0, 72, 60
1, 468218, Note_off_c, 0, 72, 56
1, 468219, Note_off_c, 0, 76, 56
1, 468245, Note_off_c, 0, 69, 56
1, 468338, Note_on_c, 0, 40, 91
1, 468342, Note_on_c, 0, 76, 75
1, 468344, Note_on_c, 0, 72, 73
1, 468347, Note_on_c, 0, 28, 78
1, 468353, Note_on_c, 0, 69, 70
1, 468369, Note_off_c, 0, 40, 67
1, 468383, Note_off_c, 0, 69, 64
1, 468395, Note_off_c, 0, 28, 60
1, 468408, Note_off_c, 0, 72, 61
1, 468418, Note_off_c, 0, 76, 57
1, 468423, Note_off_c, 0, 64, 35
1, 468556, Control_c, 0, 67, 8
1, 468561, Note_on_c, 0, 64, 85
1, 468565, Note_on_c, 0, 38, 95
1, 468570, Note_on_c, 0, 26, 79
1, 468570, Control_c, 0, 64, 109
1, 468570, Control_c, 0, 67, 9
1, 468584, Control_c, 0, 64, 83
1, 468584, Control_c, 0, 67, 9
1, 468599, Control_c, 0, 64, 52
1, 468599, Control_c, 0, 67, 10
1, 468614, Control_c, 0, 64, 0
1, 468629, Control_c, 0, 67, 9
1, 468643, Control_c, 0, 64, 60
1, 468650, Note_off_c, 0, 26, 63
1, 468658, Control_c, 0, 64, 73
1, 468658, Control_c, 0, 67, 9
1, 468673, Control_c, 0, 64, 89
1, 468673, Control_c, 0, 67, 8
1, 468687, Control_c, 0, 64, 106
1, 468687, Control_c, 0, 67, 8
1, 468702, Control_c, 0, 64, 119
1, 468702, Control_c, 0, 67, 0
1, 468704, Note_off_c, 0, 38, 59
1, 468717, Control_c, 0, 64, 124
1, 468732, Control_c, 0, 64, 127
1, 468741, Note_on_c, 0, 66, 68
1, 468744, Note_on_c, 0, 69, 67
1, 468745, Note_on_c, 0, 76, 65
1, 468800, Note_off_c, 0, 66, 57
1, 468800, Note_off_c, 0, 69, 57
1, 468815, Note_off_c, 0, 76, 59
1, 468862, Note_on_c, 0, 33, 56
1, 468880, Note_on_c, 0, 35, 70
1, 468893, Note_on_c, 0, 76, 56
1, 468906, Note_on_c, 0, 37, 70
1, 468907, Note_on_c, 0, 66, 75
1, 468907, Note_on_c, 0, 69, 66
1, 468921, Note_off_c, 0, 33, 65
1, 468934, Note_on_c, 0, 38, 63
1, 468937, Note_off_c, 0, 76, 61
1, 468946, Note_off_c, 0, 35, 63
1, 468950, Note_on_c, 0, 40, 78
1, 468961, Note_off_c, 0, 64, 31
1, 468970, Note_off_c, 0, 69, 64
1, 468976, Note_off_c, 0, 37, 64
1, 468992, Note_off_c, 0, 66, 63
1, 468999, Note_off_c, 0, 40, 64
1, 469005, Note_off_c, 0, 38, 60
1, 469116, Note_on_c, 0, 42, 94
1, 469120, Note_on_c, 0, 57, 87
1, 469122, Note_on_c, 0, 30, 78
1, 469125, Control_c, 0, 67, 8
1, 469140, Control_c, 0, 67, 8
1, 469155, Control_c, 0, 64, 106
1, 469155, Control_c, 0, 67, 9
1, 469170, Control_c, 0, 64, 84
1, 469185, Control_c, 0, 64, 61
1, 469199, Control_c, 0, 64, 0
1, 469229, Control_c, 0, 64, 61
1, 469243, Note_off_c, 0, 30, 46
1, 469244, Control_c, 0, 64, 74
1, 469244, Control_c, 0, 67, 9
1, 469259, Control_c, 0, 64, 86
1, 469274, Control_c, 0, 64, 97
1, 469289, Control_c, 0, 64, 105
1, 469289, Control_c, 0, 67, 9
1, 469293, Note_off_c, 0, 42, 61
1, 469300, Note_on_c, 0, 69, 63
1, 469302, Note_on_c, 0, 66, 59
1, 469304, Note_on_c, 0, 64, 57
1, 469304, Control_c, 0, 64, 109
1, 469304, Control_c, 0, 67, 8
1, 469318, Control_c, 0, 64, 113
1, 469333, Control_c, 0, 64, 117
1, 469333, Control_c, 0, 67, 8
1, 469339, Note_off_c, 0, 66, 62
1, 469348, Control_c, 0, 64, 121
1, 469359, Note_off_c, 0, 64, 47
1, 469363, Control_c, 0, 64, 125
1, 469367, Note_off_c, 0, 69, 61
1, 469378, Control_c, 0, 64, 127
1, 469378, Control_c, 0, 67, 0
1, 469461, Note_on_c, 0, 45, 85
1, 469466, Note_on_c, 0, 33, 75
1, 469467, Note_on_c, 0, 66, 72
1, 469481, Note_on_c, 0, 69, 55
1, 469488, Note_on_c, 0, 64, 49
1, 469489, Note_off_c, 0, 33, 66
1, 469493, Note_off_c, 0, 57, 56
1, 469500, Note_off_c, 0, 69, 64
1, 469501, Note_off_c, 0, 66, 66
1, 469506, Note_off_c, 0, 45, 62
1, 469509, Note_off_c, 0, 64, 61
1, 469673, Control_c, 0, 64, 116
1, 469673, Control_c, 0, 67, 8
1, 469674, Note_on_c, 0, 54, 89
1, 469682, Note_on_c, 0, 50, 94
1, 469688, Control_c, 0, 64, 93
1, 469688, Control_c, 0, 67, 8
1, 469694, Note_on_c, 0, 38, 71
1, 469703, Control_c, 0, 64, 72
1, 469718, Control_c, 0, 64, 0
1, 469728, Note_on_c, 0, 63, 4
1, 469748, Control_c, 0, 64, 60
1, 469763, Control_c, 0, 64, 73
1, 469778, Control_c, 0, 64, 85
1, 469792, Control_c, 0, 64, 98
1, 469792, Control_c, 0, 67, 8
1, 469802, Note_off_c, 0, 50, 53
1, 469814, Control_c, 0, 64, 107
1, 469814, Control_c, 0, 67, 0
1, 469829, Control_c, 0, 64, 111
1, 469837, Note_on_c, 0, 57, 65
1, 469844, Control_c, 0, 64, 112
1, 469852, Note_on_c, 0, 64, 60
1, 469860, Control_c, 0, 64, 114
1, 469875, Control_c, 0, 64, 117
1, 469879, Note_off_c, 0, 38, 61
1, 469889, Control_c, 0, 64, 118
1, 469904, Control_c, 0, 64, 119
1, 469917, Note_off_c, 0, 64, 58
1, 469919, Control_c, 0, 64, 119
1, 469948, Note_off_c, 0, 57, 58
1, 469948, Control_c, 0, 64, 120
1, 469949, Note_off_c, 0, 63, 37
1, 469993, Control_c, 0, 64, 120
1, 470008, Control_c, 0, 64, 121
1, 470017, Note_on_c, 0, 66, 69
1, 470022, Note_on_c, 0, 57, 56
1, 470022, Note_on_c, 0, 64, 63
1, 470022, Control_c, 0, 64, 122
1, 470031, Note_off_c, 0, 54, 60
1, 470037, Control_c, 0, 64, 123
1, 470052, Control_c, 0, 64, 123
1, 470053, Note_off_c, 0, 66, 62
1, 470061, Note_off_c, 0, 64, 60
1, 470076, Note_off_c, 0, 57, 58
1, 470082, Control_c, 0, 64, 124
1, 470097, Control_c, 0, 64, 125
1, 470126, Control_c, 0, 64, 126
1, 470141, Control_c, 0, 64, 126
1, 470156, Control_c, 0, 64, 127
1, 470201, Control_c, 0, 64, 126
1, 470215, Control_c, 0, 64, 107
1, 470219, Note_on_c, 0, 50, 85
1, 470222, Note_on_c, 0, 38, 95
1, 470230, Control_c, 0, 64, 87
1, 470231, Note_on_c, 0, 26, 77
1, 470245, Control_c, 0, 64, 64
1, 470259, Control_c, 0, 64, 0
1, 470259, Control_c, 0, 67, 8
1, 470289, Control_c, 0, 64, 56
1, 470304, Control_c, 0, 64, 71
1, 470319, Control_c, 0, 64, 82
1, 470333, Note_off_c, 0, 26, 64
1, 470333, Control_c, 0, 64, 95
1, 470333, Control_c, 0, 67, 0
1, 470343, Note_off_c, 0, 38, 60
1, 470348, Control_c, 0, 64, 105
1, 470363, Control_c, 0, 64, 110
1, 470378, Control_c, 0, 64, 112
1, 470390, Note_on_c, 0, 62, 62
1, 470393, Control_c, 0, 64, 113
1, 470399, Note_on_c, 0, 54, 59
1, 470399, Note_on_c, 0, 57, 63
1, 470407, Control_c, 0, 64, 116
1, 470422, Control_c, 0, 64, 118
1, 470437, Control_c, 0, 64, 120
1, 470442, Note_off_c, 0, 57, 55
1, 470451, Note_off_c, 0, 54, 56
1, 470452, Control_c, 0, 64, 120
1, 470459, Note_off_c, 0, 62, 54
1, 470466, Control_c, 0, 64, 121
1, 470541, Control_c, 0, 64, 121
1, 470544, Note_off_c, 0, 50, 0
1, 470571, Note_on_c, 0, 37, 81
1, 470575, Note_on_c, 0, 57, 62
1, 470576, Note_on_c, 0, 54, 62
1, 470579, Note_on_c, 0, 62, 69
1, 470585, Note_on_c, 0, 25, 62
1, 470624, Note_off_c, 0, 37, 61
1, 470627, Note_off_c, 0, 25, 64
1, 470631, Note_off_c, 0, 54, 52
1, 470643, Poly_aftertouch_c, 0, 50, 0
1, 470647, Note_off_c, 0, 62, 54
1, 470698, Note_off_c, 0, 57, 32
1, 470712, Control_c, 0, 64, 119
1, 470727, Control_c, 0, 64, 102
1, 470742, Control_c, 0, 64, 81
1, 470751, Note_on_c, 0, 50, 75
1, 470757, Control_c, 0, 64, 45
1, 470758, Note_on_c, 0, 62, 75
1, 470760, Note_on_c, 0, 36, 88
1, 470766, Note_on_c, 0, 24, 81
1, 470771, Control_c, 0, 64, 0
1, 470777, Note_off_c, 0, 50, 69
1, 470801, Control_c, 0, 64, 62
1, 470809, Note_off_c, 0, 62, 65
1, 470816, Control_c, 0, 64, 74
1, 470827, Note_off_c, 0, 24, 64
1, 470832, Control_c, 0, 64, 89
1, 470846, Control_c, 0, 64, 107
1, 470861, Control_c, 0, 64, 122
1, 470864, Note_off_c, 0, 36, 61
1, 470876, Control_c, 0, 64, 125
1, 470890, Control_c, 0, 64, 127
1, 470905, Control_c, 0, 64, 127
1, 470910, Note_on_c, 0, 64, 73
1, 470955, Note_on_c, 0, 67, 74
1, 470955, Note_off_c, 0, 64, 63
1, 470986, Note_off_c, 0, 67, 61
1, 470989, Note_on_c, 0, 74, 80
1, 471020, Note_off_c, 0, 74, 63
1, 471089, Note_on_c, 0, 76, 87
1, 471122, Note_on_c, 0, 79, 73
1, 471134, Note_off_c, 0, 76, 68
1, 471151, Note_on_c, 0, 86, 87
1, 471157, Note_on_c, 0, 62, 71
1, 471166, Note_off_c, 0, 79, 65
1, 471168, Note_on_c, 0, 52, 58
1, 471170, Note_on_c, 0, 55, 58
1, 471185, Note_off_c, 0, 86, 66
1, 471206, Note_off_c, 0, 62, 51
1, 471208, Note_off_c, 0, 52, 61
1, 471218, Note_off_c, 0, 55, 58
1, 471358, Note_on_c, 0, 62, 79
1, 471366, Note_on_c, 0, 55, 72
1, 471367, Note_on_c, 0, 52, 72
1, 471381, Note_off_c, 0, 62, 68
1, 471388, Note_off_c, 0, 55, 71
1, 471391, Note_off_c, 0, 52, 72
1, 471580, Control_c, 0, 64, 109
1, 471594, Control_c, 0, 64, 85
1, 471598, Note_on_c, 0, 40, 92
1, 471599, Note_on_c, 0, 55, 90
1, 471604, Note_on_c, 0, 28, 81
1, 471609, Control_c, 0, 64, 63
1, 471624, Control_c, 0, 64, 0
1, 471638, Note_off_c, 0, 55, 66
1, 471639, Control_c, 0, 64, 53
1, 471644, Note_on_c, 0, 62, 60
1, 471654, Control_c, 0, 64, 71
1, 471668, Control_c, 0, 64, 85
1, 471683, Control_c, 0, 64, 103
1, 471694, Note_on_c, 0, 64, 68
1, 471698, Control_c, 0, 64, 118
1, 471700, Note_off_c, 0, 62, 62
1, 471712, Control_c, 0, 64, 122
1, 471713, Note_off_c, 0, 64, 66
1, 471727, Control_c, 0, 64, 124
1, 471731, Note_off_c, 0, 28, 60
1, 471742, Control_c, 0, 64, 127
1, 471757, Control_c, 0, 64, 127
1, 471776, Note_off_c, 0, 40, 63
1, 471778, Poly_aftertouch_c, 0, 65, 0
1, 471783, Note_on_c, 0, 67, 73
1, 471831, Note_off_c, 0, 67, 65
1, 471839, Note_on_c, 0, 74, 70
1, 471867, Note_on_c, 0, 76, 81
1, 471885, Note_off_c, 0, 74, 64
1, 471894, Note_on_c, 0, 79, 89
1, 471906, Note_off_c, 0, 76, 67
1, 471928, Note_off_c, 0, 79, 64
1, 472067, Note_on_c, 0, 55, 78
1, 472072, Note_on_c, 0, 50, 77
1, 472081, Note_on_c, 0, 52, 67
1, 472089, Note_off_c, 0, 55, 71
1, 472102, Note_off_c, 0, 50, 67
1, 472106, Note_off_c, 0, 52, 70
1, 472255, Control_c, 0, 64, 115
1, 472270, Control_c, 0, 64, 89
1, 472283, Note_on_c, 0, 43, 91
1, 472283, Note_on_c, 0, 52, 83
1, 472285, Control_c, 0, 64, 66
1, 472288, Note_on_c, 0, 31, 70
1, 472299, Control_c, 0, 64, 0
1, 472309, Note_off_c, 0, 52, 67
1, 472314, Control_c, 0, 64, 60
1, 472317, Note_on_c, 0, 41, 42
1, 472329, Control_c, 0, 64, 72
1, 472343, Control_c, 0, 64, 85
1, 472358, Control_c, 0, 64, 100
1, 472359, Note_off_c, 0, 41, 33
1, 472373, Control_c, 0, 64, 109
1, 472383, Note_on_c, 0, 55, 79
1, 472388, Control_c, 0, 64, 111
1, 472393, Note_off_c, 0, 31, 62
1, 472403, Control_c, 0, 64, 112
1, 472422, Note_off_c, 0, 55, 65
1, 472432, Control_c, 0, 64, 113
1, 472440, Note_off_c, 0, 43, 59
1, 472440, Note_on_c, 0, 62, 79
1, 472447, Control_c, 0, 64, 114
1, 472462, Control_c, 0, 64, 116
1, 472477, Control_c, 0, 64, 118
1, 472479, Note_on_c, 0, 64, 72
1, 472483, Note_off_c, 0, 62, 61
1, 472491, Control_c, 0, 64, 119
1, 472505, Note_off_c, 0, 64, 68
1, 472506, Control_c, 0, 64, 120
1, 472521, Control_c, 0, 64, 120
1, 472535, Control_c, 0, 64, 121
1, 472550, Control_c, 0, 64, 122
1, 472565, Control_c, 0, 64, 124
1, 472572, Note_on_c, 0, 67, 77
1, 472580, Control_c, 0, 64, 127
1, 472620, Note_on_c, 0, 74, 74
1, 472627, Note_off_c, 0, 67, 63
1, 472649, Note_on_c, 0, 76, 85
1, 472651, Note_on_c, 0, 50, 70
1, 472652, Note_on_c, 0, 52, 73
1, 472655, Note_on_c, 0, 43, 62
1, 472666, Note_off_c, 0, 74, 66
1, 472673, Note_off_c, 0, 76, 67
1, 472680, Note_off_c, 0, 52, 68
1, 472699, Note_off_c, 0, 50, 59
1, 472711, Note_off_c, 0, 43, 55
1, 472843, Note_on_c, 0, 43, 74
1, 472846, Note_on_c, 0, 50, 71
1, 472857, Note_on_c, 0, 52, 50
1, 472871, Note_off_c, 0, 50, 65
1, 472875, Note_off_c, 0, 52, 68
1, 472886, Note_off_c, 0, 43, 63
1, 473033, Control_c, 0, 64, 120
1, 473048, Control_c, 0, 64, 92
1, 473063, Control_c, 0, 64, 64
1, 473063, Control_c, 0, 67, 8
1, 473069, Note_on_c, 0, 36, 91
1, 473071, Note_on_c, 0, 48, 94
1, 473077, Control_c, 0, 64, 0
1, 473107, Control_c, 0, 64, 54
1, 473122, Control_c, 0, 64, 70
1, 473122, Control_c, 0, 67, 0
1, 473126, Note_off_c, 0, 48, 66
1, 473127, Note_on_c, 0, 52, 66
1, 473137, Control_c, 0, 64, 84
1, 473152, Control_c, 0, 64, 102
1, 473152, Note_on_c, 0, 55, 22
1, 473166, Control_c, 0, 64, 123
1, 473177, Note_off_c, 0, 52, 67
1, 473181, Control_c, 0, 64, 127
1, 473200, Note_off_c, 0, 55, 64
1, 473277, Note_on_c, 0, 60, 68
1, 473304, Note_off_c, 0, 60, 67
1, 473320, Note_on_c, 0, 64, 75
1, 473355, Note_on_c, 0, 67, 76
1, 473359, Note_off_c, 0, 36, 39
1, 473374, Note_off_c, 0, 64, 61
1, 473393, Note_on_c, 0, 72, 83
1, 473400, Note_off_c, 0, 67, 64
1, 473435, Note_off_c, 0, 72, 64
1, 473617, Note_on_c, 0, 48, 75
1, 473624, Note_on_c, 0, 40, 70
1, 473629, Note_on_c, 0, 43, 62
1, 473645, Note_off_c, 0, 48, 67
1, 473654, Note_off_c, 0, 40, 64
1, 473658, Note_off_c, 0, 43, 64
1, 473940, Note_on_c, 0, 54, 89
1, 473950, Note_on_c, 0, 42, 61
1, 473960, Control_c, 0, 64, 100
1, 473975, Control_c, 0, 64, 76
1, 473990, Control_c, 0, 64, 0
1, 474039, Note_off_c, 0, 42, 62
1, 474049, Control_c, 0, 64, 57
1, 474064, Control_c, 0, 64, 74
1, 474070, Note_on_c, 0, 31, 59
1, 474079, Control_c, 0, 64, 90
1, 474094, Control_c, 0, 64, 112
1, 474108, Control_c, 0, 64, 127
1, 474180, Note_off_c, 0, 31, 61
1, 474200, Note_on_c, 0, 38, 60
1, 474243, Note_off_c, 0, 38, 63
1, 474252, Note_off_c, 0, 54, 59
1, 474263, Note_on_c, 0, 59, 63
1, 474298, Note_on_c, 0, 31, 64
1, 474352, Note_off_c, 0, 31, 59
1, 474353, Note_off_c, 0, 59, 53
1, 474378, Note_on_c, 0, 55, 68
1, 474392, Note_on_c, 0, 42, 74
1, 474423, Note_off_c, 0, 42, 65
1, 474434, Note_off_c, 0, 55, 64
1, 474469, Note_on_c, 0, 62, 67
1, 474474, Note_on_c, 0, 31, 65
1, 474511, Note_off_c, 0, 31, 63
1, 474562, Note_on_c, 0, 54, 71
1, 474562, Note_off_c, 0, 62, 59
1, 474580, Note_on_c, 0, 46, 79
1, 474584, Poly_aftertouch_c, 0, 33, 127
1, 474613, Note_off_c, 0, 46, 65
1, 474615, Poly_aftertouch_c, 0, 33, 0
1, 474620, Note_off_c, 0, 54, 56
1, 474657, Note_on_c, 0, 59, 65
1, 474672, Note_on_c, 0, 31, 75
1, 474696, Note_off_c, 0, 31, 60
1, 474735, Note_off_c, 0, 59, 57
1, 474748, Note_on_c, 0, 55, 71
1, 474753, Note_on_c, 0, 47, 78
1, 474786, Note_off_c, 0, 47, 65
1, 474803, Note_off_c, 0, 55, 64
1, 474830, Note_on_c, 0, 31, 74
1, 474836, Note_on_c, 0, 62, 66
1, 474866, Note_off_c, 0, 31, 64
1, 474924, Note_off_c, 0, 62, 58
1, 474932, Note_on_c, 0, 58, 70
1, 474935, Note_on_c, 0, 49, 83
1, 474947, Poly_aftertouch_c, 0, 33, 0
1, 474963, Note_off_c, 0, 49, 66
1, 474993, Note_off_c, 0, 58, 58
1, 475024, Note_on_c, 0, 62, 72
1, 475028, Note_on_c, 0, 31, 79
1, 475064, Note_off_c, 0, 31, 63
1, 475096, Note_off_c, 0, 62, 60
1, 475124, Poly_aftertouch_c, 0, 33, 127
1, 475133, Note_on_c, 0, 59, 75
1, 475136, Note_on_c, 0, 50, 79
1, 475146, Control_c, 0, 64, 104
1, 475161, Control_c, 0, 64, 82
1, 475161, Poly_aftertouch_c, 0, 33, 0
1, 475176, Control_c, 0, 64, 54
1, 475182, Note_off_c, 0, 50, 60
1, 475188, Note_off_c, 0, 59, 61
1, 475191, Control_c, 0, 64, 0
1, 475206, Control_c, 0, 64, 63
1, 475207, Note_on_c, 0, 38, 73
1, 475215, Note_on_c, 0, 67, 76
1, 475220, Control_c, 0, 64, 73
1, 475235, Control_c, 0, 64, 85
1, 475250, Control_c, 0, 64, 100
1, 475264, Control_c, 0, 64, 114
1, 475266, Note_off_c, 0, 38, 61
1, 475279, Control_c, 0, 64, 125
1, 475294, Control_c, 0, 64, 127
1, 475301, Note_off_c, 0, 67, 59
1, 475307, Note_on_c, 0, 66, 73
1, 475308, Note_on_c, 0, 51, 77
1, 475337, Note_off_c, 0, 51, 64
1, 475360, Note_off_c, 0, 66, 63
1, 475381, Note_on_c, 0, 38, 80
1, 475389, Note_on_c, 0, 71, 76
1, 475411, Note_off_c, 0, 38, 64
1, 475418, Note_on_c, 0, 40, 52
1, 475449, Note_off_c, 0, 71, 59
1, 475450, Note_off_c, 0, 40, 57
1, 475483, Note_on_c, 0, 67, 76
1, 475485, Note_on_c, 0, 58, 80
1, 475513, Note_off_c, 0, 58, 66
1, 475537, Note_off_c, 0, 67, 63
1, 475564, Note_on_c, 0, 43, 82
1, 475572, Note_on_c, 0, 74, 79
1, 475600, Note_off_c, 0, 43, 61
1, 475646, Note_off_c, 0, 74, 61
1, 475657, Note_on_c, 0, 58, 81
1, 475666, Note_on_c, 0, 73, 75
1, 475694, Note_off_c, 0, 73, 63
1, 475695, Note_off_c, 0, 58, 66
1, 475745, Note_on_c, 0, 47, 78
1, 475752, Note_on_c, 0, 79, 79
1, 475808, Note_off_c, 0, 79, 63
1, 475812, Note_off_c, 0, 47, 64
1, 475841, Note_on_c, 0, 59, 82
1, 475853, Note_on_c, 0, 74, 79
1, 475884, Note_off_c, 0, 59, 65
1, 475900, Note_off_c, 0, 74, 65
1, 475933, Note_on_c, 0, 83, 84
1, 475950, Note_on_c, 0, 50, 72
1, 475963, Note_on_c, 0, 52, 55
1, 475990, Note_off_c, 0, 50, 65
1, 475994, Note_off_c, 0, 52, 66
1, 475999, Note_off_c, 0, 83, 59
1, 476024, Note_on_c, 0, 61, 91
1, 476035, Note_on_c, 0, 82, 84
1, 476061, Note_off_c, 0, 61, 62
1, 476061, Note_off_c, 0, 82, 63
1, 476114, Note_on_c, 0, 83, 86
1, 476132, Note_on_c, 0, 57, 41
1, 476163, Note_off_c, 0, 57, 51
1, 476217, Note_off_c, 0, 83, 42
1, 476265, Control_c, 0, 64, 105
1, 476280, Control_c, 0, 64, 76
1, 476280, Control_c, 0, 67, 8
1, 476295, Control_c, 0, 64, 0
1, 476295, Control_c, 0, 67, 8
1, 476299, Note_on_c, 0, 91, 38
1, 476303, Note_on_c, 0, 86, 101
1, 476303, Note_on_c, 0, 95, 100
1, 476308, Note_on_c, 0, 71, 97
1, 476309, Note_on_c, 0, 67, 92
1, 476311, Note_on_c, 0, 62, 91
1, 476324, Control_c, 0, 67, 0
1, 476342, Note_off_c, 0, 71, 66
1, 476354, Control_c, 0, 64, 69
1, 476355, Note_off_c, 0, 67, 67
1, 476358, Note_off_c, 0, 95, 67
1, 476369, Control_c, 0, 64, 93
1, 476374, Note_off_c, 0, 62, 63
1, 476378, Note_off_c, 0, 91, 62
1, 476380, Note_off_c, 0, 86, 64
1, 476383, Control_c, 0, 64, 127
1, 476646, Note_on_c, 0, 43, 78
1, 476651, Note_on_c, 0, 62, 83
1, 476651, Note_on_c, 0, 74, 78
1, 476658, Note_on_c, 0, 31, 60
1, 476699, Note_off_c, 0, 62, 49
1, 476728, Note_on_c, 0, 35, 70
1, 476729, Note_off_c, 0, 74, 58
1, 476730, Note_on_c, 0, 71, 69
1, 476735, Note_off_c, 0, 43, 60
1, 476737, Note_on_c, 0, 67, 75
1, 476743, Note_on_c, 0, 38, 67
1, 476765, Note_off_c, 0, 31, 50
1, 476774, Poly_aftertouch_c, 0, 33, 0
1, 476791, Note_off_c, 0, 67, 59
1, 476809, Note_off_c, 0, 35, 63
1, 476813, Note_off_c, 0, 71, 48
1, 476813, Note_off_c, 0, 38, 60
1, 476827, Note_on_c, 0, 62, 87
1, 476833, Note_on_c, 0, 43, 76
1, 476837, Note_on_c, 0, 74, 71
1, 476845, Note_on_c, 0, 31, 66
1, 476869, Note_off_c, 0, 62, 65
1, 476872, Note_on_c, 0, 35, 67
1, 476889, Note_off_c, 0, 31, 64
1, 476893, Note_on_c, 0, 71, 69
1, 476894, Note_on_c, 0, 67, 71
1, 476896, Note_off_c, 0, 43, 59
1, 476896, Note_on_c, 0, 38, 64
1, 476912, Note_off_c, 0, 35, 63
1, 476914, Note_off_c, 0, 67, 65
1, 476917, Note_off_c, 0, 74, 65
1, 476918, Note_off_c, 0, 71, 66
1, 476926, Note_off_c, 0, 38, 63
1, 477129, Note_on_c, 0, 67, 94
1, 477129, Note_on_c, 0, 95, 97
1, 477132, Note_on_c, 0, 86, 92
1, 477133, Note_on_c, 0, 91, 90
1, 477134, Note_on_c, 0, 62, 88
1, 477134, Note_on_c, 0, 71, 88
1, 477152, Note_off_c, 0, 71, 72
1, 477154, Note_off_c, 0, 86, 67
1, 477161, Note_off_c, 0, 95, 71
1, 477166, Note_off_c, 0, 67, 66
1, 477171, Note_off_c, 0, 91, 62
1, 477182, Note_off_c, 0, 62, 66
1, 477427, Note_on_c, 0, 43, 81
1, 477433, Note_on_c, 0, 74, 80
1, 477436, Note_on_c, 0, 62, 86
1, 477439, Note_on_c, 0, 31, 57
1, 477478, Note_off_c, 0, 62, 55
1, 477506, Note_on_c, 0, 35, 70
1, 477507, Note_on_c, 0, 71, 68
1, 477513, Note_on_c, 0, 67, 80
1, 477516, Note_off_c, 0, 74, 62
1, 477517, Note_off_c, 0, 43, 60
1, 477524, Note_on_c, 0, 38, 67
1, 477530, Note_off_c, 0, 31, 63
1, 477569, Note_off_c, 0, 67, 62
1, 477573, Note_off_c, 0, 71, 60
1, 477587, Note_off_c, 0, 38, 55
1, 477604, Note_off_c, 0, 35, 60
1, 477611, Note_on_c, 0, 62, 82
1, 477617, Note_on_c, 0, 43, 72
1, 477623, Note_on_c, 0, 74, 71
1, 477642, Note_on_c, 0, 31, 70
1, 477658, Note_off_c, 0, 62, 65
1, 477659, Note_on_c, 0, 35, 69
1, 477673, Note_on_c, 0, 67, 74
1, 477674, Note_on_c, 0, 71, 70
1, 477679, Note_off_c, 0, 43, 58
1, 477680, Note_off_c, 0, 31, 64
1, 477682, Note_on_c, 0, 38, 65
1, 477689, Note_off_c, 0, 35, 67
1, 477694, Note_off_c, 0, 67, 72
1, 477695, Note_off_c, 0, 71, 69
1, 477710, Note_off_c, 0, 74, 64
1, 477715, Note_off_c, 0, 38, 62
1, 477901, Note_on_c, 0, 95, 89
1, 477904, Note_on_c, 0, 67, 90
1, 477908, Note_on_c, 0, 91, 96
1, 477910, Note_on_c, 0, 62, 84
1, 477910, Note_on_c, 0, 71, 84
1, 477910, Note_on_c, 0, 86, 89
1, 477928, Note_off_c, 0, 71, 71
1, 477933, Note_off_c, 0, 86, 65
1, 477940, Note_off_c, 0, 95, 67
1, 477944, Note_off_c, 0, 91, 63
1, 477945, Note_off_c, 0, 67, 58
1, 477954, Note_off_c, 0, 62, 62
1, 478181, Note_on_c, 0, 74, 77
1, 478182, Note_on_c, 0, 62, 84
1, 478184, Note_on_c, 0, 43, 77
1, 478186, Note_on_c, 0, 31, 65
1, 478226, Note_off_c, 0, 62, 60
1, 478259, Note_off_c, 0, 74, 63
1, 478261, Note_on_c, 0, 71, 72
1, 478267, Note_on_c, 0, 67, 78
1, 478267, Note_on_c, 0, 35, 68
1, 478271, Note_off_c, 0, 43, 60
1, 478274, Note_on_c, 0, 38, 70
1, 478287, Note_off_c, 0, 31, 61
1, 478324, Note_off_c, 0, 67, 61
1, 478336, Note_off_c, 0, 38, 58
1, 478343, Note_off_c, 0, 71, 52
1, 478350, Note_off_c, 0, 35, 62
1, 478366, Note_on_c, 0, 62, 86
1, 478369, Note_on_c, 0, 43, 68
1, 478373, Note_on_c, 0, 74, 75
1, 478388, Note_on_c, 0, 31, 59
1, 478408, Note_off_c, 0, 62, 66
1, 478421, Note_on_c, 0, 35, 69
1, 478431, Note_on_c, 0, 67, 76
1, 478431, Note_on_c, 0, 38, 75
1, 478434, Note_off_c, 0, 43, 60
1, 478437, Note_on_c, 0, 71, 72
1, 478437, Note_off_c, 0, 31, 64
1, 478452, Note_off_c, 0, 67, 71
1, 478453, Note_off_c, 0, 35, 67
1, 478459, Note_off_c, 0, 71, 69
1, 478462, Note_off_c, 0, 38, 64
1, 478467, Note_off_c, 0, 74, 64
1, 478700, Note_on_c, 0, 95, 102
1, 478703, Note_on_c, 0, 86, 90
1, 478704, Note_on_c, 0, 91, 92
1, 478705, Note_on_c, 0, 67, 92
1, 478706, Note_on_c, 0, 62, 89
1, 478708, Note_on_c, 0, 71, 93
1, 478742, Note_off_c, 0, 86, 65
1, 478744, Note_off_c, 0, 71, 64
1, 478752, Note_off_c, 0, 95, 68
1, 478759, Note_off_c, 0, 67, 63
1, 478762, Note_off_c, 0, 91, 62
1, 478772, Note_off_c, 0, 62, 64
1, 479126, Note_on_c, 0, 50, 78
1, 479127, Note_on_c, 0, 38, 64
1, 479131, Note_on_c, 0, 62, 84
1, 479131, Note_on_c, 0, 74, 81
1, 479175, Note_off_c, 0, 38, 64
1, 479179, Note_off_c, 0, 62, 60
1, 479211, Note_off_c, 0, 50, 55
1, 479231, Note_on_c, 0, 71, 73
1, 479231, Note_off_c, 0, 74, 63
1, 479234, Note_on_c, 0, 67, 79
1, 479242, Note_on_c, 0, 47, 81
1, 479247, Note_on_c, 0, 43, 70
1, 479311, Note_off_c, 0, 47, 63
1, 479319, Note_off_c, 0, 43, 60
1, 479333, Note_off_c, 0, 71, 56
1, 479334, Note_off_c, 0, 67, 61
1, 479377, Note_on_c, 0, 50, 88
1, 479379, Note_on_c, 0, 62, 95
1, 479379, Note_on_c, 0, 74, 89
1, 479384, Note_on_c, 0, 38, 78
1, 479404, Note_off_c, 0, 50, 68
1, 479421, Note_off_c, 0, 74, 67
1, 479424, Note_off_c, 0, 62, 61
1, 479428, Note_off_c, 0, 38, 63
1, 479678, Note_on_c, 0, 67, 84
1, 479713, Control_c, 0, 64, 105
1, 479728, Control_c, 0, 64, 73
1, 479743, Control_c, 0, 64, 0
1, 479746, Note_on_c, 0, 31, 69
1, 479746, Note_on_c, 0, 55, 99
1, 479749, Note_on_c, 0, 43, 79
1, 479774, Note_off_c, 0, 43, 65
1, 479775, Note_off_c, 0, 31, 64
1, 479788, Control_c, 0, 64, 58
1, 479797, Note_on_c, 0, 64, 25
1, 479802, Control_c, 0, 64, 77
1, 479816, Control_c, 0, 64, 100
1, 479822, Note_off_c, 0, 55, 62
1, 479831, Control_c, 0, 64, 127
1, 479880, Note_on_c, 0, 43, 61
1, 479893, Note_on_c, 0, 54, 75
1, 479921, Note_off_c, 0, 43, 59
1, 479921, Note_off_c, 0, 54, 64
1, 479925, Note_off_c, 0, 64, 36
1, 479949, Note_on_c, 0, 56, 80
1, 479977, Note_off_c, 0, 56, 67
1, 480014, Note_on_c, 0, 54, 62
1, 480016, Note_on_c, 0, 47, 78
1, 480041, Note_off_c, 0, 54, 64
1, 480045, Note_off_c, 0, 47, 67
1, 480067, Note_on_c, 0, 55, 84
1, 480089, Note_off_c, 0, 55, 70
1, 480123, Note_on_c, 0, 54, 76
1, 480133, Note_on_c, 0, 43, 73
1, 480160, Note_off_c, 0, 54, 58
1, 480172, Note_off_c, 0, 43, 58
1, 480184, Note_on_c, 0, 56, 84
1, 480211, Note_off_c, 0, 56, 66
1, 480250, Note_on_c, 0, 54, 74
1, 480256, Note_on_c, 0, 47, 58
1, 480272, Note_off_c, 0, 54, 69
1, 480305, Note_off_c, 0, 47, 49
1, 480306, Note_on_c, 0, 55, 89
1, 480329, Poly_aftertouch_c, 0, 48, 127
1, 480333, Note_off_c, 0, 55, 66
1, 480357, Poly_aftertouch_c, 0, 48, 0
1, 480369, Note_on_c, 0, 54, 81
1, 480370, Poly_aftertouch_c, 0, 64, 127
1, 480372, Note_on_c, 0, 43, 78
1, 480408, Note_off_c, 0, 54, 61
1, 480413, Note_off_c, 0, 43, 62
1, 480413, Poly_aftertouch_c, 0, 64, 0
1, 480437, Note_on_c, 0, 56, 82
1, 480458, Note_off_c, 0, 56, 68
1, 480483, Note_on_c, 0, 47, 74
1, 480484, Note_on_c, 0, 54, 79
1, 480509, Note_off_c, 0, 54, 65
1, 480515, Note_off_c, 0, 47, 67
1, 480550, Note_on_c, 0, 55, 92
1, 480573, Note_off_c, 0, 55, 66
1, 480595, Poly_aftertouch_c, 0, 64, 127
1, 480599, Note_on_c, 0, 54, 79
1, 480610, Note_on_c, 0, 43, 73
1, 480643, Note_off_c, 0, 54, 60
1, 480650, Note_off_c, 0, 43, 63
1, 480651, Note_on_c, 0, 49, 8
1, 480662, Poly_aftertouch_c, 0, 64, 0
1, 480672, Note_on_c, 0, 56, 91
1, 480691, Note_on_c, 0, 65, 16
1, 480698, Note_off_c, 0, 49, 37
1, 480702, Note_off_c, 0, 56, 63
1, 480729, Note_on_c, 0, 47, 82
1, 480741, Note_on_c, 0, 54, 63
1, 480763, Note_off_c, 0, 54, 58
1, 480769, Note_off_c, 0, 65, 35
1, 480773, Poly_aftertouch_c, 0, 64, 0
1, 480774, Note_off_c, 0, 47, 65
1, 480784, Note_off_c, 0, 67, 45
1, 480789, Note_on_c, 0, 55, 93
1, 480822, Note_off_c, 0, 55, 65
1, 480839, Note_on_c, 0, 54, 97
1, 480879, Note_off_c, 0, 54, 65
1, 481209, Note_on_c, 0, 43, 112
1, 481210, Note_on_c, 0, 31, 96
1, 481225, Control_c, 0, 64, 114
1, 481240, Control_c, 0, 64, 89
1, 481254, Control_c, 0, 64, 68
1, 481269, Control_c, 0, 64, 0
1, 481871, Note_off_c, 0, 43, 63
1, 481878, Note_off_c, 0, 31, 65
1, 481878, End_track
0, 0, End_of_file
