0, 0, Header, 0, 1, 384
1, 0, Start_track
1, 0, Title_t, "Sonata K. 457--Anna Denisova    "
1, 0, Text_t, "2008 e-Piano Junior Competition recital round"
1, 0, Text_t, "recorded July 2008"
1, 0, Text_t, "http://www.piano-e-competition.com/"
1, 0, Text_t, "File processed for distribution by software from Zenph Studios, Inc., http://www.zenph.com"
1, 0, Instrument_name_t, "Yamaha Disklavier Pro Mark IV concert grand piano, model DCFIIISM4PRO"
1, 0, Sequencer_specific, 39, 67, 113, 0, 1, 0, 1, 0, 83, 111, 110, 97, 116, 97, 32, 75, 46, 32, 52, 53, 55, 32, 32, 32, 65, 110, 110, 97, 32, 68, 101, 110, 105, 115, 111, 118, 97, 32, 32, 32
1, 0, Sequencer_specific, 6, 67, 113, 0, 0, 0, 69
1, 0, System_exclusive, 21, 67, 113, 126, 21, 0, 2, 2, 0, 3, 14, 1, 4, 1, 13, 13, 10, 11, 9, 2, 7, 247
1, 0, Sequencer_specific, 5, 67, 123, 12, 2, 1
1, 0, Tempo, 512820
1, 0, Time_signature, 4, 2, 24, 8
1, 0, System_exclusive, 5, 126, 127, 9, 1, 247
1, 1, System_exclusive, 8, 67, 16, 76, 0, 0, 126, 0, 247
1, 2, System_exclusive, 8, 67, 16, 76, 8, 9, 7, 1, 247
1, 3, Control_c, 0, 0, 0
1, 3, Control_c, 1, 0, 0
1, 3, Control_c, 2, 0, 0
1, 3, Control_c, 3, 0, 0
1, 3, Control_c, 4, 0, 0
1, 3, Control_c, 5, 0, 0
1, 3, Control_c, 6, 0, 0
1, 3, Control_c, 7, 0, 0
1, 3, Control_c, 8, 0, 0
1, 3, Control_c, 9, 0, 127
1, 3, Control_c, 10, 0, 0
1, 3, Control_c, 11, 0, 0
1, 3, Control_c, 12, 0, 0
1, 3, Control_c, 13, 0, 0
1, 3, Control_c, 14, 0, 0
1, 3, Control_c, 15, 0, 0
1, 4, Control_c, 0, 32, 0
1, 4, Control_c, 1, 32, 0
1, 4, Control_c, 2, 32, 0
1, 4, Control_c, 3, 32, 0
1, 4, Control_c, 4, 32, 0
1, 4, Control_c, 5, 32, 0
1, 4, Control_c, 6, 32, 0
1, 4, Control_c, 7, 32, 0
1, 4, Control_c, 8, 32, 0
1, 4, Control_c, 9, 32, 0
1, 4, Control_c, 10, 32, 0
1, 4, Control_c, 11, 32, 0
1, 4, Control_c, 12, 32, 0
1, 4, Control_c, 13, 32, 0
1, 4, Control_c, 14, 32, 0
1, 4, Control_c, 15, 32, 0
1, 5, Program_c, 0, 0
1, 5, Program_c, 1, 0
1, 5, Program_c, 2, 0
1, 5, Program_c, 3, 0
1, 5, Program_c, 4, 0
1, 5, Program_c, 5, 0
1, 5, Program_c, 6, 0
1, 5, Program_c, 7, 0
1, 5, Program_c, 8, 0
1, 5, Program_c, 9, 0
1, 5, Program_c, 10, 0
1, 5, Program_c, 11, 0
1, 5, Program_c, 12, 0
1, 5, Program_c, 13, 0
1, 5, Program_c, 14, 0
1, 5, Program_c, 15, 0
1, 6, Control_c, 0, 7, 100
1, 6, Control_c, 1, 7, 100
1, 6, Control_c, 2, 7, 100
1, 6, Control_c, 3, 7, 100
1, 6, Control_c, 4, 7, 100
1, 6, Control_c, 5, 7, 100
1, 6, Control_c, 6, 7, 100
1, 6, Control_c, 7, 7, 100
1, 6, Control_c, 8, 7, 100
1, 6, Control_c, 9, 7, 100
1, 6, Control_c, 10, 7, 100
1, 6, Control_c, 11, 7, 100
1, 6, Control_c, 12, 7, 100
1, 6, Control_c, 13, 7, 100
1, 6, Control_c, 14, 7, 100
1, 6, Control_c, 15, 7, 100
1, 1128, Note_on_c, 0, 60, 91
1, 1129, Note_on_c, 0, 48, 91
1, 1137, Note_on_c, 0, 36, 73
1, 1153, Control_c, 0, 64, 63
1, 1168, Control_c, 0, 64, 75
1, 1183, Control_c, 0, 64, 89
1, 1197, Control_c, 0, 64, 105
1, 1212, Control_c, 0, 64, 117
1, 1227, Control_c, 0, 64, 127
1, 1297, Note_off_c, 0, 36, 62
1, 1305, Note_off_c, 0, 48, 64
1, 1308, Note_off_c, 0, 60, 63
1, 1561, Note_on_c, 0, 63, 94
1, 1566, Note_on_c, 0, 51, 88
1, 1568, Control_c, 0, 64, 109
1, 1570, Note_on_c, 0, 39, 73
1, 1583, Control_c, 0, 64, 90
1, 1590, Note_off_c, 0, 63, 64
1, 1594, Note_off_c, 0, 51, 65
1, 1597, Note_off_c, 0, 39, 65
1, 1597, Control_c, 0, 64, 74
1, 1612, Control_c, 0, 64, 45
1, 1627, Control_c, 0, 64, 0
1, 1803, Note_on_c, 0, 67, 96
1, 1805, Note_on_c, 0, 55, 93
1, 1808, Note_on_c, 0, 43, 76
1, 1839, Note_off_c, 0, 67, 66
1, 1842, Note_off_c, 0, 43, 65
1, 1842, Note_off_c, 0, 55, 64
1, 2026, Note_on_c, 0, 72, 103
1, 2038, Note_on_c, 0, 60, 89
1, 2043, Note_on_c, 0, 48, 77
1, 2057, Note_off_c, 0, 72, 69
1, 2067, Note_off_c, 0, 48, 67
1, 2071, Note_off_c, 0, 60, 61
1, 2297, Note_on_c, 0, 75, 92
1, 2302, Note_on_c, 0, 63, 87
1, 2308, Note_on_c, 0, 51, 74
1, 2336, Note_off_c, 0, 51, 68
1, 2342, Note_off_c, 0, 75, 65
1, 2347, Note_off_c, 0, 63, 65
1, 2405, Control_c, 0, 67, 10
1, 2420, Control_c, 0, 67, 37
1, 2435, Control_c, 0, 67, 96
1, 2450, Control_c, 0, 67, 127
1, 2699, Note_on_c, 0, 75, 44
1, 2723, Note_off_c, 0, 75, 49
1, 2825, Note_on_c, 0, 77, 66
1, 2877, Note_on_c, 0, 75, 16
1, 2879, Note_off_c, 0, 77, 60
1, 2914, Note_off_c, 0, 75, 64
1, 2929, Note_on_c, 0, 74, 57
1, 2954, Note_off_c, 0, 74, 63
1, 2962, Note_on_c, 0, 75, 54
1, 3019, Note_on_c, 0, 79, 73
1, 3027, Note_off_c, 0, 75, 65
1, 3253, Note_on_c, 0, 72, 63
1, 3257, Note_on_c, 0, 67, 52
1, 3257, Note_on_c, 0, 63, 50
1, 3258, Note_off_c, 0, 79, 58
1, 3282, Note_off_c, 0, 72, 68
1, 3290, Note_off_c, 0, 67, 64
1, 3293, Note_off_c, 0, 63, 56
1, 3487, Note_on_c, 0, 72, 72
1, 3497, Note_on_c, 0, 67, 54
1, 3502, Note_on_c, 0, 63, 49
1, 3513, Note_off_c, 0, 72, 65
1, 3535, Note_off_c, 0, 67, 62
1, 3538, Note_off_c, 0, 63, 60
1, 3719, Note_on_c, 0, 72, 66
1, 3722, Note_on_c, 0, 63, 48
1, 3725, Note_on_c, 0, 67, 48
1, 3746, Note_off_c, 0, 72, 68
1, 3770, Note_off_c, 0, 67, 62
1, 3772, Note_off_c, 0, 63, 62
1, 3972, Note_on_c, 0, 80, 67
1, 4218, Note_on_c, 0, 71, 60
1, 4219, Note_on_c, 0, 68, 53
1, 4223, Note_on_c, 0, 62, 39
1, 4229, Note_on_c, 0, 65, 43
1, 4230, Note_off_c, 0, 80, 62
1, 4247, Note_off_c, 0, 71, 66
1, 4263, Note_off_c, 0, 65, 57
1, 4268, Note_off_c, 0, 68, 61
1, 4276, Note_off_c, 0, 62, 44
1, 4503, Note_on_c, 0, 71, 56
1, 4509, Note_on_c, 0, 68, 42
1, 4517, Note_on_c, 0, 65, 35
1, 4522, Note_on_c, 0, 62, 37
1, 4581, Note_off_c, 0, 62, 61
1, 4581, Note_off_c, 0, 68, 64
1, 4585, Note_off_c, 0, 65, 63
1, 4585, Note_off_c, 0, 71, 60
1, 4667, Control_c, 0, 67, 123
1, 4682, Control_c, 0, 67, 92
1, 4697, Control_c, 0, 67, 52
1, 4712, Control_c, 0, 67, 8
1, 4727, Control_c, 0, 67, 0
1, 5046, Note_on_c, 0, 55, 94
1, 5048, Note_on_c, 0, 43, 89
1, 5052, Note_on_c, 0, 31, 78
1, 5061, Control_c, 0, 64, 54
1, 5075, Control_c, 0, 64, 72
1, 5090, Control_c, 0, 64, 85
1, 5105, Control_c, 0, 64, 103
1, 5120, Control_c, 0, 64, 117
1, 5135, Control_c, 0, 64, 127
1, 5172, Note_off_c, 0, 31, 63
1, 5192, Note_off_c, 0, 43, 60
1, 5206, Note_off_c, 0, 55, 61
1, 5216, Poly_aftertouch_c, 0, 62, 0
1, 5512, Control_c, 0, 64, 114
1, 5525, Note_on_c, 0, 59, 97
1, 5526, Note_on_c, 0, 47, 93
1, 5527, Control_c, 0, 64, 90
1, 5534, Note_on_c, 0, 35, 73
1, 5542, Control_c, 0, 64, 71
1, 5550, Note_off_c, 0, 59, 65
1, 5557, Note_off_c, 0, 47, 63
1, 5557, Control_c, 0, 64, 0
1, 5560, Note_off_c, 0, 35, 64
1, 5747, Note_on_c, 0, 62, 95
1, 5752, Note_on_c, 0, 50, 91
1, 5762, Note_on_c, 0, 38, 67
1, 5785, Note_off_c, 0, 62, 63
1, 5786, Note_off_c, 0, 50, 64
1, 5793, Note_off_c, 0, 38, 64
1, 5990, Note_on_c, 0, 67, 93
1, 5991, Note_on_c, 0, 55, 91
1, 5998, Note_on_c, 0, 43, 69
1, 6024, Note_off_c, 0, 43, 64
1, 6029, Note_off_c, 0, 55, 64
1, 6029, Note_off_c, 0, 67, 63
1, 6262, Note_on_c, 0, 71, 87
1, 6266, Note_on_c, 0, 59, 85
1, 6275, Note_on_c, 0, 47, 74
1, 6306, Note_off_c, 0, 71, 60
1, 6309, Note_off_c, 0, 47, 66
1, 6318, Note_off_c, 0, 59, 63
1, 6586, Note_on_c, 0, 74, 62
1, 6614, Note_off_c, 0, 74, 70
1, 6673, Note_on_c, 0, 74, 67
1, 6709, Note_off_c, 0, 74, 63
1, 6727, Note_on_c, 0, 75, 62
1, 6772, Note_off_c, 0, 75, 65
1, 6798, Note_on_c, 0, 74, 22
1, 6825, Note_on_c, 0, 72, 60
1, 6837, Note_off_c, 0, 74, 0
1, 6837, Note_on_c, 0, 74, 11
1, 6843, Note_off_c, 0, 72, 64
1, 6926, Note_on_c, 0, 77, 67
1, 6933, Note_off_c, 0, 74, 62
1, 7157, Note_off_c, 0, 77, 49
1, 7166, Note_on_c, 0, 62, 49
1, 7174, Note_on_c, 0, 68, 53
1, 7179, Note_on_c, 0, 65, 46
1, 7180, Note_on_c, 0, 71, 50
1, 7204, Note_off_c, 0, 71, 60
1, 7206, Note_off_c, 0, 68, 55
1, 7210, Note_off_c, 0, 65, 60
1, 7215, Note_off_c, 0, 62, 58
1, 7399, Note_on_c, 0, 71, 63
1, 7404, Note_on_c, 0, 68, 51
1, 7412, Note_on_c, 0, 62, 35
1, 7413, Note_on_c, 0, 65, 42
1, 7429, Note_off_c, 0, 71, 65
1, 7449, Note_off_c, 0, 68, 60
1, 7451, Note_off_c, 0, 65, 56
1, 7461, Note_off_c, 0, 62, 45
1, 7642, Note_on_c, 0, 68, 47
1, 7645, Note_on_c, 0, 62, 37
1, 7647, Note_on_c, 0, 71, 52
1, 7654, Note_on_c, 0, 65, 37
1, 7672, Note_off_c, 0, 71, 60
1, 7684, Note_off_c, 0, 68, 54
1, 7686, Note_off_c, 0, 65, 58
1, 7691, Note_off_c, 0, 62, 50
1, 7902, Note_on_c, 0, 79, 55
1, 8140, Note_on_c, 0, 72, 51
1, 8143, Note_off_c, 0, 79, 56
1, 8145, Note_on_c, 0, 63, 44
1, 8150, Note_on_c, 0, 67, 40
1, 8164, Note_off_c, 0, 72, 60
1, 8185, Note_off_c, 0, 67, 55
1, 8193, Note_off_c, 0, 63, 61
1, 8408, Note_on_c, 0, 72, 44
1, 8420, Note_on_c, 0, 63, 35
1, 8432, Note_on_c, 0, 67, 31
1, 8494, Note_off_c, 0, 72, 65
1, 8496, Note_off_c, 0, 67, 60
1, 8504, Note_off_c, 0, 63, 62
1, 8920, Note_on_c, 0, 43, 59
1, 8921, Note_on_c, 0, 67, 97
1, 8966, Control_c, 0, 64, 64
1, 8981, Control_c, 0, 64, 74
1, 8984, Note_off_c, 0, 43, 59
1, 8997, Control_c, 0, 64, 86
1, 9012, Control_c, 0, 64, 96
1, 9019, Note_on_c, 0, 55, 65
1, 9027, Control_c, 0, 64, 104
1, 9042, Control_c, 0, 64, 108
1, 9056, Control_c, 0, 64, 113
1, 9057, Note_off_c, 0, 55, 61
1, 9071, Control_c, 0, 64, 118
1, 9086, Control_c, 0, 64, 124
1, 9101, Control_c, 0, 64, 127
1, 9134, Note_on_c, 0, 43, 56
1, 9153, Note_off_c, 0, 67, 58
1, 9186, Note_off_c, 0, 43, 59
1, 9243, Note_on_c, 0, 55, 56
1, 9278, Note_off_c, 0, 55, 63
1, 9355, Note_on_c, 0, 43, 59
1, 9390, Control_c, 0, 64, 123
1, 9405, Control_c, 0, 64, 108
1, 9406, Note_off_c, 0, 43, 61
1, 9420, Control_c, 0, 64, 96
1, 9435, Control_c, 0, 64, 87
1, 9448, Note_on_c, 0, 55, 61
1, 9450, Control_c, 0, 64, 79
1, 9464, Control_c, 0, 64, 70
1, 9479, Control_c, 0, 64, 56
1, 9486, Note_off_c, 0, 55, 64
1, 9494, Control_c, 0, 64, 0
1, 9569, Note_on_c, 0, 67, 65
1, 9571, Note_on_c, 0, 43, 52
1, 9577, Note_on_c, 0, 75, 63
1, 9615, Note_off_c, 0, 43, 58
1, 9664, Note_on_c, 0, 55, 57
1, 9702, Note_off_c, 0, 55, 61
1, 9793, Note_on_c, 0, 66, 71
1, 9794, Note_on_c, 0, 43, 55
1, 9838, Note_off_c, 0, 67, 51
1, 9839, Note_off_c, 0, 43, 60
1, 9881, Note_on_c, 0, 55, 59
1, 9924, Note_off_c, 0, 55, 59
1, 9943, Note_off_c, 0, 75, 64
1, 9979, Note_off_c, 0, 66, 65
1, 10000, Note_on_c, 0, 74, 66
1, 10006, Note_on_c, 0, 65, 66
1, 10009, Note_on_c, 0, 43, 58
1, 10054, Note_off_c, 0, 43, 62
1, 10100, Note_on_c, 0, 55, 59
1, 10137, Note_off_c, 0, 55, 60
1, 10214, Note_off_c, 0, 65, 56
1, 10217, Note_on_c, 0, 43, 59
1, 10223, Note_on_c, 0, 64, 73
1, 10265, Note_off_c, 0, 43, 61
1, 10273, Note_off_c, 0, 74, 46
1, 10309, Note_on_c, 0, 55, 63
1, 10355, Note_off_c, 0, 55, 55
1, 10429, Note_on_c, 0, 72, 73
1, 10429, Note_on_c, 0, 43, 61
1, 10436, Note_on_c, 0, 63, 70
1, 10441, Note_off_c, 0, 64, 65
1, 10483, Note_off_c, 0, 43, 61
1, 10522, Note_on_c, 0, 55, 60
1, 10570, Note_off_c, 0, 55, 53
1, 10651, Note_on_c, 0, 43, 58
1, 10651, Note_on_c, 0, 62, 89
1, 10655, Note_off_c, 0, 63, 64
1, 10712, Note_off_c, 0, 43, 59
1, 10755, Control_c, 0, 64, 30
1, 10763, Note_on_c, 0, 55, 56
1, 10770, Control_c, 0, 64, 65
1, 10784, Control_c, 0, 64, 70
1, 10799, Control_c, 0, 64, 77
1, 10806, Note_off_c, 0, 55, 59
1, 10814, Control_c, 0, 64, 83
1, 10829, Control_c, 0, 64, 86
1, 10843, Control_c, 0, 64, 88
1, 10846, Note_off_c, 0, 72, 58
1, 10858, Control_c, 0, 64, 90
1, 10869, Note_off_c, 0, 62, 59
1, 10873, Control_c, 0, 64, 92
1, 10879, Note_on_c, 0, 71, 71
1, 10882, Note_on_c, 0, 43, 57
1, 10888, Control_c, 0, 64, 94
1, 10902, Control_c, 0, 64, 96
1, 10909, Note_off_c, 0, 71, 60
1, 10917, Control_c, 0, 64, 98
1, 10932, Control_c, 0, 64, 99
1, 10934, Note_off_c, 0, 43, 62
1, 10947, Control_c, 0, 64, 99
1, 10981, Note_on_c, 0, 55, 57
1, 10991, Control_c, 0, 64, 100
1, 11019, Note_off_c, 0, 55, 60
1, 11097, Note_on_c, 0, 43, 60
1, 11139, Note_off_c, 0, 43, 60
1, 11183, Note_on_c, 0, 55, 61
1, 11216, Note_off_c, 0, 55, 61
1, 11243, Control_c, 0, 64, 99
1, 11258, Control_c, 0, 64, 99
1, 11273, Control_c, 0, 64, 98
1, 11288, Control_c, 0, 64, 96
1, 11302, Control_c, 0, 64, 93
1, 11304, Note_on_c, 0, 43, 59
1, 11308, Note_on_c, 0, 79, 74
1, 11317, Control_c, 0, 64, 90
1, 11319, Note_on_c, 0, 75, 57
1, 11332, Control_c, 0, 64, 86
1, 11346, Control_c, 0, 64, 82
1, 11356, Note_off_c, 0, 43, 61
1, 11361, Control_c, 0, 64, 78
1, 11376, Control_c, 0, 64, 71
1, 11391, Control_c, 0, 64, 62
1, 11401, Note_on_c, 0, 55, 58
1, 11407, Control_c, 0, 64, 0
1, 11450, Note_off_c, 0, 55, 54
1, 11528, Note_on_c, 0, 43, 58
1, 11532, Note_on_c, 0, 78, 72
1, 11558, Note_off_c, 0, 79, 54
1, 11580, Note_off_c, 0, 43, 62
1, 11621, Note_on_c, 0, 55, 59
1, 11624, Note_off_c, 0, 75, 56
1, 11666, Note_off_c, 0, 55, 58
1, 11735, Note_on_c, 0, 43, 60
1, 11737, Note_on_c, 0, 77, 73
1, 11744, Note_on_c, 0, 74, 66
1, 11765, Note_off_c, 0, 78, 61
1, 11788, Note_off_c, 0, 43, 61
1, 11833, Note_on_c, 0, 55, 58
1, 11879, Note_off_c, 0, 55, 57
1, 11950, Note_on_c, 0, 43, 62
1, 11959, Note_on_c, 0, 76, 71
1, 11985, Note_off_c, 0, 77, 53
1, 12001, Note_off_c, 0, 43, 61
1, 12043, Note_on_c, 0, 55, 59
1, 12087, Note_off_c, 0, 55, 61
1, 12152, Note_on_c, 0, 43, 59
1, 12164, Note_on_c, 0, 75, 75
1, 12173, Note_on_c, 0, 72, 65
1, 12180, Note_off_c, 0, 74, 63
1, 12194, Note_off_c, 0, 76, 61
1, 12215, Note_off_c, 0, 43, 60
1, 12256, Note_on_c, 0, 55, 63
1, 12333, Note_off_c, 0, 55, 61
1, 12352, Note_off_c, 0, 75, 63
1, 12385, Note_on_c, 0, 43, 69
1, 12385, Note_on_c, 0, 74, 79
1, 12415, Note_off_c, 0, 72, 64
1, 12441, Note_off_c, 0, 43, 59
1, 12444, Control_c, 0, 64, 65
1, 12459, Control_c, 0, 64, 73
1, 12474, Control_c, 0, 64, 82
1, 12483, Note_on_c, 0, 55, 68
1, 12489, Control_c, 0, 64, 86
1, 12504, Control_c, 0, 64, 87
1, 12519, Control_c, 0, 64, 87
1, 12528, Note_off_c, 0, 55, 61
1, 12534, Control_c, 0, 64, 88
1, 12599, Note_on_c, 0, 55, 70
1, 12602, Note_on_c, 0, 71, 69
1, 12606, Note_off_c, 0, 74, 61
1, 12628, Note_off_c, 0, 55, 65
1, 12630, Note_off_c, 0, 71, 64
1, 12652, Control_c, 0, 64, 87
1, 12667, Control_c, 0, 64, 84
1, 12681, Control_c, 0, 64, 77
1, 12691, Note_on_c, 0, 55, 68
1, 12696, Control_c, 0, 64, 68
1, 12711, Control_c, 0, 64, 0
1, 12732, Note_off_c, 0, 55, 62
1, 12818, Note_on_c, 0, 41, 73
1, 12863, Note_off_c, 0, 41, 65
1, 12905, Note_on_c, 0, 53, 68
1, 12951, Note_off_c, 0, 53, 66
1, 13040, Note_on_c, 0, 80, 88
1, 13047, Note_on_c, 0, 71, 78
1, 13049, Note_on_c, 0, 74, 74
1, 13050, Note_on_c, 0, 53, 72
1, 13090, Control_c, 0, 64, 26
1, 13093, Note_off_c, 0, 53, 66
1, 13104, Control_c, 0, 64, 65
1, 13119, Control_c, 0, 64, 72
1, 13134, Control_c, 0, 64, 80
1, 13137, Note_on_c, 0, 53, 62
1, 13148, Control_c, 0, 64, 85
1, 13163, Control_c, 0, 64, 88
1, 13178, Control_c, 0, 64, 90
1, 13185, Note_off_c, 0, 53, 65
1, 13192, Control_c, 0, 64, 93
1, 13207, Control_c, 0, 64, 95
1, 13222, Control_c, 0, 64, 97
1, 13237, Control_c, 0, 64, 98
1, 13252, Control_c, 0, 64, 99
1, 13267, Control_c, 0, 64, 99
1, 13273, Note_on_c, 0, 39, 70
1, 13282, Control_c, 0, 64, 100
1, 13298, Note_off_c, 0, 74, 60
1, 13324, Note_off_c, 0, 71, 46
1, 13330, Note_off_c, 0, 39, 57
1, 13365, Note_on_c, 0, 51, 60
1, 13403, Note_off_c, 0, 51, 60
1, 13415, Control_c, 0, 64, 98
1, 13429, Control_c, 0, 64, 92
1, 13444, Control_c, 0, 64, 85
1, 13459, Control_c, 0, 64, 77
1, 13474, Control_c, 0, 64, 67
1, 13476, Note_on_c, 0, 51, 71
1, 13489, Control_c, 0, 64, 0
1, 13491, Note_on_c, 0, 79, 63
1, 13500, Note_on_c, 0, 72, 52
1, 13500, Note_off_c, 0, 80, 61
1, 13501, Note_on_c, 0, 75, 58
1, 13520, Note_off_c, 0, 51, 61
1, 13534, Note_off_c, 0, 79, 54
1, 13535, Note_off_c, 0, 72, 51
1, 13556, Note_off_c, 0, 75, 55
1, 13570, Note_on_c, 0, 51, 65
1, 13613, Note_off_c, 0, 51, 62
1, 13700, Note_on_c, 0, 35, 65
1, 13751, Note_off_c, 0, 35, 64
1, 13803, Note_on_c, 0, 47, 62
1, 13844, Note_off_c, 0, 47, 64
1, 13857, Note_on_c, 0, 67, 71
1, 13899, Note_off_c, 0, 67, 60
1, 13917, Note_on_c, 0, 47, 70
1, 13920, Note_on_c, 0, 74, 79
1, 13964, Note_off_c, 0, 47, 62
1, 14006, Note_off_c, 0, 74, 62
1, 14025, Note_on_c, 0, 47, 54
1, 14036, Note_on_c, 0, 77, 65
1, 14066, Note_off_c, 0, 77, 61
1, 14087, Note_off_c, 0, 47, 61
1, 14116, Note_on_c, 0, 75, 75
1, 14133, Note_on_c, 0, 36, 69
1, 14155, Note_off_c, 0, 75, 61
1, 14156, Note_on_c, 0, 77, 62
1, 14172, Note_off_c, 0, 36, 67
1, 14196, Note_off_c, 0, 77, 59
1, 14210, Note_on_c, 0, 74, 67
1, 14215, Note_on_c, 0, 48, 68
1, 14215, Note_on_c, 0, 75, 38
1, 14259, Note_off_c, 0, 48, 65
1, 14269, Note_on_c, 0, 77, 54
1, 14270, Note_off_c, 0, 74, 51
1, 14306, Note_off_c, 0, 75, 65
1, 14339, Note_on_c, 0, 48, 68
1, 14339, Note_on_c, 0, 79, 83
1, 14355, Note_off_c, 0, 77, 59
1, 14369, Note_off_c, 0, 48, 66
1, 14440, Note_on_c, 0, 48, 71
1, 14498, Note_off_c, 0, 48, 64
1, 14515, Note_off_c, 0, 79, 61
1, 14568, Note_on_c, 0, 41, 82
1, 14605, Note_off_c, 0, 41, 65
1, 14665, Note_on_c, 0, 53, 73
1, 14702, Note_off_c, 0, 53, 64
1, 14783, Note_on_c, 0, 80, 91
1, 14790, Note_on_c, 0, 74, 77
1, 14793, Note_on_c, 0, 71, 77
1, 14794, Note_on_c, 0, 53, 76
1, 14823, Control_c, 0, 64, 62
1, 14835, Note_off_c, 0, 53, 66
1, 14838, Control_c, 0, 64, 69
1, 14853, Control_c, 0, 64, 75
1, 14868, Control_c, 0, 64, 82
1, 14883, Control_c, 0, 64, 85
1, 14889, Note_on_c, 0, 53, 63
1, 14898, Control_c, 0, 64, 87
1, 14912, Control_c, 0, 64, 88
1, 14927, Control_c, 0, 64, 90
1, 14929, Note_off_c, 0, 53, 66
1, 14942, Control_c, 0, 64, 91
1, 14957, Control_c, 0, 64, 92
1, 14972, Control_c, 0, 64, 93
1, 15001, Control_c, 0, 64, 93
1, 15023, Note_on_c, 0, 39, 69
1, 15035, Note_off_c, 0, 74, 61
1, 15062, Note_off_c, 0, 71, 46
1, 15082, Note_off_c, 0, 39, 59
1, 15105, Control_c, 0, 64, 93
1, 15115, Note_on_c, 0, 51, 65
1, 15120, Control_c, 0, 64, 92
1, 15135, Control_c, 0, 64, 88
1, 15148, Note_off_c, 0, 51, 61
1, 15149, Control_c, 0, 64, 81
1, 15164, Control_c, 0, 64, 72
1, 15179, Control_c, 0, 64, 60
1, 15193, Control_c, 0, 64, 0
1, 15239, Note_off_c, 0, 80, 49
1, 15240, Note_on_c, 0, 79, 64
1, 15243, Note_on_c, 0, 51, 62
1, 15249, Note_on_c, 0, 72, 59
1, 15250, Note_on_c, 0, 75, 60
1, 15273, Note_off_c, 0, 72, 60
1, 15297, Note_off_c, 0, 75, 59
1, 15298, Note_off_c, 0, 51, 59
1, 15311, Note_off_c, 0, 79, 60
1, 15335, Note_on_c, 0, 51, 59
1, 15387, Note_off_c, 0, 51, 60
1, 15473, Note_on_c, 0, 38, 66
1, 15517, Note_off_c, 0, 38, 65
1, 15562, Note_on_c, 0, 50, 64
1, 15601, Note_off_c, 0, 50, 60
1, 15616, Note_on_c, 0, 77, 67
1, 15642, Note_off_c, 0, 77, 67
1, 15675, Note_on_c, 0, 83, 91
1, 15682, Note_on_c, 0, 50, 70
1, 15723, Note_off_c, 0, 50, 63
1, 15761, Note_off_c, 0, 83, 58
1, 15795, Note_on_c, 0, 50, 48
1, 15821, Note_on_c, 0, 89, 71
1, 15825, Note_off_c, 0, 50, 65
1, 15870, Note_off_c, 0, 89, 51
1, 15908, Note_on_c, 0, 87, 81
1, 15917, Note_on_c, 0, 48, 66
1, 16001, Note_off_c, 0, 87, 60
1, 16038, Note_on_c, 0, 79, 67
1, 16081, Note_off_c, 0, 79, 62
1, 16147, Note_on_c, 0, 84, 63
1, 16185, Note_off_c, 0, 48, 58
1, 16211, Note_off_c, 0, 84, 55
1, 16263, Note_on_c, 0, 75, 59
1, 16287, Note_off_c, 0, 75, 64
1, 16387, Note_on_c, 0, 53, 55
1, 16491, Note_on_c, 0, 77, 51
1, 16582, Note_off_c, 0, 77, 52
1, 16609, Note_on_c, 0, 80, 58
1, 16636, Note_off_c, 0, 53, 59
1, 16689, Note_off_c, 0, 80, 52
1, 16706, Note_on_c, 0, 74, 56
1, 16743, Note_off_c, 0, 74, 63
1, 16852, Note_on_c, 0, 55, 51
1, 16956, Note_on_c, 0, 75, 56
1, 17034, Note_off_c, 0, 75, 53
1, 17051, Note_off_c, 0, 55, 40
1, 17069, Note_on_c, 0, 79, 64
1, 17139, Note_off_c, 0, 79, 52
1, 17175, Note_on_c, 0, 72, 61
1, 17205, Note_off_c, 0, 72, 67
1, 17294, Note_on_c, 0, 43, 62
1, 17403, Note_on_c, 0, 74, 59
1, 17471, Note_off_c, 0, 43, 61
1, 17487, Note_off_c, 0, 74, 61
1, 17537, Note_on_c, 0, 77, 64
1, 17589, Note_off_c, 0, 77, 59
1, 17636, Note_on_c, 0, 71, 66
1, 17662, Note_off_c, 0, 71, 66
1, 17804, Note_on_c, 0, 72, 96
1, 17807, Note_on_c, 0, 60, 83
1, 17849, Control_c, 0, 64, 67
1, 17864, Control_c, 0, 64, 79
1, 17878, Control_c, 0, 64, 94
1, 17893, Control_c, 0, 64, 107
1, 17908, Control_c, 0, 64, 116
1, 17923, Control_c, 0, 64, 125
1, 17938, Control_c, 0, 64, 127
1, 17957, Note_off_c, 0, 60, 62
1, 17966, Note_off_c, 0, 72, 65
1, 18271, Control_c, 0, 64, 108
1, 18273, Note_on_c, 0, 63, 83
1, 18274, Note_on_c, 0, 75, 93
1, 18286, Control_c, 0, 64, 89
1, 18298, Note_off_c, 0, 75, 64
1, 18300, Control_c, 0, 64, 71
1, 18315, Control_c, 0, 64, 0
1, 18322, Note_off_c, 0, 63, 65
1, 18519, Note_on_c, 0, 79, 93
1, 18522, Note_on_c, 0, 67, 93
1, 18561, Note_off_c, 0, 79, 62
1, 18561, Note_off_c, 0, 67, 63
1, 18749, Note_on_c, 0, 84, 106
1, 18756, Note_on_c, 0, 72, 88
1, 18782, Note_off_c, 0, 84, 67
1, 18802, Note_off_c, 0, 72, 63
1, 19025, Note_on_c, 0, 87, 94
1, 19026, Note_on_c, 0, 75, 81
1, 19074, Note_off_c, 0, 87, 65
1, 19086, Note_off_c, 0, 75, 65
1, 19379, Note_on_c, 0, 75, 51
1, 19402, Note_off_c, 0, 75, 54
1, 19459, Note_on_c, 0, 75, 61
1, 19483, Note_off_c, 0, 75, 64
1, 19503, Note_on_c, 0, 77, 70
1, 19556, Note_off_c, 0, 77, 61
1, 19560, Note_on_c, 0, 75, 69
1, 19592, Note_off_c, 0, 75, 64
1, 19603, Note_on_c, 0, 74, 69
1, 19646, Note_off_c, 0, 74, 66
1, 19647, Note_on_c, 0, 75, 64
1, 19741, Note_off_c, 0, 75, 56
1, 19742, Note_on_c, 0, 80, 77
1, 19753, Note_on_c, 0, 46, 88
1, 19757, Note_on_c, 0, 34, 77
1, 19810, Note_on_c, 0, 44, 4
1, 19811, Note_off_c, 0, 44, 127
1, 19811, Note_on_c, 0, 82, 78
1, 19822, Note_off_c, 0, 80, 62
1, 19828, Control_c, 0, 64, 65
1, 19843, Control_c, 0, 64, 76
1, 19858, Control_c, 0, 64, 87
1, 19873, Control_c, 0, 64, 94
1, 19887, Note_on_c, 0, 84, 80
1, 19888, Control_c, 0, 64, 97
1, 19892, Note_off_c, 0, 82, 62
1, 19902, Control_c, 0, 64, 99
1, 19917, Control_c, 0, 64, 102
1, 19917, Note_off_c, 0, 34, 62
1, 19932, Note_off_c, 0, 46, 62
1, 19932, Control_c, 0, 64, 104
1, 19947, Control_c, 0, 64, 106
1, 19958, Note_off_c, 0, 84, 64
1, 19959, Note_on_c, 0, 82, 74
1, 19962, Control_c, 0, 64, 108
1, 19977, Control_c, 0, 64, 108
1, 19991, Control_c, 0, 64, 109
1, 20006, Control_c, 0, 64, 110
1, 20021, Control_c, 0, 64, 110
1, 20033, Note_on_c, 0, 80, 82
1, 20036, Control_c, 0, 64, 111
1, 20046, Note_off_c, 0, 82, 60
1, 20065, Control_c, 0, 64, 111
1, 20105, Note_on_c, 0, 79, 77
1, 20114, Note_off_c, 0, 80, 62
1, 20139, Control_c, 0, 64, 111
1, 20154, Control_c, 0, 64, 108
1, 20169, Control_c, 0, 64, 98
1, 20170, Note_off_c, 0, 79, 63
1, 20177, Note_on_c, 0, 77, 76
1, 20179, Note_on_c, 0, 50, 88
1, 20185, Note_on_c, 0, 38, 77
1, 20185, Control_c, 0, 64, 85
1, 20200, Control_c, 0, 64, 70
1, 20209, Note_off_c, 0, 50, 61
1, 20212, Note_off_c, 0, 38, 64
1, 20214, Control_c, 0, 64, 0
1, 20239, Note_off_c, 0, 77, 61
1, 20251, Note_on_c, 0, 79, 75
1, 20317, Note_off_c, 0, 79, 61
1, 20323, Note_on_c, 0, 80, 75
1, 20406, Note_on_c, 0, 53, 90
1, 20406, Note_off_c, 0, 80, 64
1, 20409, Note_on_c, 0, 79, 71
1, 20410, Note_on_c, 0, 41, 77
1, 20434, Note_off_c, 0, 41, 69
1, 20442, Note_off_c, 0, 53, 67
1, 20463, Note_off_c, 0, 79, 60
1, 20485, Note_on_c, 0, 77, 66
1, 20534, Note_off_c, 0, 77, 61
1, 20570, Note_on_c, 0, 75, 70
1, 20632, Note_off_c, 0, 75, 62
1, 20650, Note_on_c, 0, 74, 72
1, 20651, Note_on_c, 0, 58, 96
1, 20657, Note_on_c, 0, 46, 77
1, 20680, Note_off_c, 0, 46, 67
1, 20692, Note_off_c, 0, 58, 62
1, 20716, Note_off_c, 0, 74, 63
1, 20719, Note_on_c, 0, 75, 72
1, 20782, Note_off_c, 0, 75, 65
1, 20796, Note_on_c, 0, 77, 70
1, 20880, Note_on_c, 0, 75, 70
1, 20881, Note_off_c, 0, 77, 58
1, 20889, Note_on_c, 0, 62, 90
1, 20899, Note_on_c, 0, 50, 71
1, 20924, Note_off_c, 0, 62, 64
1, 20925, Note_off_c, 0, 50, 66
1, 20946, Note_on_c, 0, 74, 67
1, 20946, Note_off_c, 0, 75, 64
1, 21008, Note_off_c, 0, 74, 63
1, 21023, Note_on_c, 0, 72, 65
1, 21066, Note_off_c, 0, 72, 66
1, 21108, Note_on_c, 0, 70, 75
1, 21141, Control_c, 0, 67, 15
1, 21155, Control_c, 0, 67, 32
1, 21161, Note_off_c, 0, 70, 61
1, 21170, Control_c, 0, 67, 60
1, 21178, Note_on_c, 0, 72, 66
1, 21185, Control_c, 0, 67, 95
1, 21208, Control_c, 0, 67, 127
1, 21247, Note_off_c, 0, 72, 62
1, 21254, Note_on_c, 0, 70, 70
1, 21312, Note_off_c, 0, 70, 61
1, 21325, Note_on_c, 0, 68, 66
1, 21369, Note_off_c, 0, 68, 57
1, 21393, Note_on_c, 0, 70, 61
1, 21441, Note_off_c, 0, 70, 60
1, 21461, Note_on_c, 0, 68, 59
1, 21485, Note_off_c, 0, 68, 63
1, 21617, Note_on_c, 0, 51, 44
1, 21617, Note_on_c, 0, 67, 54
1, 21724, Note_on_c, 0, 58, 49
1, 21818, Note_off_c, 0, 58, 60
1, 21839, Note_off_c, 0, 67, 61
1, 21855, Note_on_c, 0, 55, 46
1, 21889, Note_on_c, 0, 68, 65
1, 21921, Note_off_c, 0, 55, 61
1, 21929, Note_off_c, 0, 68, 65
1, 21940, Note_on_c, 0, 67, 66
1, 21958, Note_on_c, 0, 58, 58
1, 21964, Note_off_c, 0, 51, 37
1, 21975, Note_off_c, 0, 67, 68
1, 21987, Note_on_c, 0, 65, 65
1, 22013, Note_off_c, 0, 65, 66
1, 22034, Note_on_c, 0, 67, 68
1, 22059, Note_off_c, 0, 58, 55
1, 22093, Note_on_c, 0, 53, 54
1, 22093, Note_on_c, 0, 68, 73
1, 22102, Note_off_c, 0, 67, 59
1, 22216, Note_on_c, 0, 58, 43
1, 22258, Note_off_c, 0, 53, 34
1, 22303, Note_off_c, 0, 58, 59
1, 22332, Note_on_c, 0, 56, 57
1, 22351, Note_on_c, 0, 62, 65
1, 22362, Note_off_c, 0, 68, 61
1, 22416, Note_off_c, 0, 62, 61
1, 22418, Note_off_c, 0, 56, 56
1, 22431, Note_on_c, 0, 58, 58
1, 22532, Note_off_c, 0, 58, 51
1, 22566, Note_on_c, 0, 63, 71
1, 22571, Note_on_c, 0, 55, 48
1, 22597, Note_off_c, 0, 63, 67
1, 22619, Note_off_c, 0, 55, 60
1, 22666, Note_on_c, 0, 67, 66
1, 22673, Note_on_c, 0, 58, 50
1, 22693, Note_off_c, 0, 67, 67
1, 22755, Note_off_c, 0, 58, 57
1, 22806, Note_on_c, 0, 51, 53
1, 22806, Note_on_c, 0, 70, 72
1, 22886, Note_off_c, 0, 51, 58
1, 22905, Note_on_c, 0, 58, 53
1, 22976, Note_off_c, 0, 58, 57
1, 23032, Note_on_c, 0, 50, 48
1, 23089, Note_off_c, 0, 50, 62
1, 23134, Note_on_c, 0, 58, 53
1, 23134, Note_on_c, 0, 69, 58
1, 23158, Note_off_c, 0, 70, 56
1, 23184, Note_off_c, 0, 58, 59
1, 23234, Note_off_c, 0, 69, 61
1, 23248, Note_on_c, 0, 68, 67
1, 23252, Note_on_c, 0, 46, 63
1, 23299, Note_off_c, 0, 46, 61
1, 23342, Note_on_c, 0, 66, 69
1, 23347, Note_on_c, 0, 58, 57
1, 23351, Note_off_c, 0, 68, 59
1, 23390, Note_off_c, 0, 58, 62
1, 23471, Note_off_c, 0, 66, 61
1, 23482, Note_on_c, 0, 51, 53
1, 23485, Note_on_c, 0, 67, 64
1, 23584, Note_on_c, 0, 58, 55
1, 23672, Note_off_c, 0, 51, 33
1, 23672, Note_off_c, 0, 58, 52
1, 23699, Note_off_c, 0, 67, 61
1, 23712, Note_on_c, 0, 55, 51
1, 23739, Note_on_c, 0, 68, 64
1, 23774, Note_off_c, 0, 55, 56
1, 23784, Note_off_c, 0, 68, 65
1, 23795, Note_on_c, 0, 67, 68
1, 23807, Note_on_c, 0, 58, 53
1, 23822, Note_off_c, 0, 67, 67
1, 23828, Note_on_c, 0, 65, 66
1, 23858, Note_off_c, 0, 65, 66
1, 23869, Note_on_c, 0, 67, 67
1, 23897, Note_off_c, 0, 58, 53
1, 23922, Note_on_c, 0, 68, 70
1, 23936, Note_on_c, 0, 53, 55
1, 23945, Note_off_c, 0, 67, 59
1, 24046, Note_on_c, 0, 58, 50
1, 24054, Note_off_c, 0, 53, 59
1, 24132, Note_off_c, 0, 58, 59
1, 24171, Note_on_c, 0, 62, 63
1, 24173, Note_on_c, 0, 56, 49
1, 24195, Note_off_c, 0, 68, 57
1, 24245, Note_off_c, 0, 62, 60
1, 24266, Note_off_c, 0, 56, 56
1, 24281, Note_on_c, 0, 58, 55
1, 24376, Note_off_c, 0, 58, 53
1, 24408, Note_on_c, 0, 55, 51
1, 24408, Note_on_c, 0, 63, 66
1, 24460, Note_off_c, 0, 55, 60
1, 24461, Note_off_c, 0, 63, 62
1, 24507, Note_on_c, 0, 58, 59
1, 24514, Note_on_c, 0, 75, 61
1, 24593, Note_off_c, 0, 75, 63
1, 24599, Note_off_c, 0, 58, 45
1, 24619, Note_on_c, 0, 74, 65
1, 24621, Note_on_c, 0, 51, 53
1, 24690, Note_off_c, 0, 51, 55
1, 24720, Note_on_c, 0, 58, 55
1, 24729, Note_on_c, 0, 72, 72
1, 24738, Note_off_c, 0, 74, 59
1, 24799, Note_off_c, 0, 58, 47
1, 24844, Note_on_c, 0, 70, 73
1, 24853, Note_on_c, 0, 50, 46
1, 24862, Note_off_c, 0, 72, 60
1, 24902, Note_off_c, 0, 50, 62
1, 24928, Note_off_c, 0, 70, 60
1, 24938, Note_on_c, 0, 58, 61
1, 24943, Note_on_c, 0, 69, 72
1, 25009, Note_off_c, 0, 58, 58
1, 25044, Note_off_c, 0, 69, 55
1, 25067, Note_on_c, 0, 68, 74
1, 25073, Note_on_c, 0, 46, 62
1, 25117, Note_off_c, 0, 46, 61
1, 25152, Note_on_c, 0, 66, 74
1, 25162, Note_on_c, 0, 58, 58
1, 25167, Note_off_c, 0, 68, 58
1, 25210, Note_off_c, 0, 58, 56
1, 25246, Note_off_c, 0, 66, 57
1, 25282, Note_on_c, 0, 67, 74
1, 25283, Note_on_c, 0, 51, 54
1, 25382, Note_on_c, 0, 58, 53
1, 25439, Control_c, 0, 67, 119
1, 25454, Control_c, 0, 67, 106
1, 25469, Control_c, 0, 67, 95
1, 25476, Note_off_c, 0, 58, 60
1, 25483, Control_c, 0, 67, 87
1, 25498, Control_c, 0, 67, 80
1, 25504, Note_on_c, 0, 70, 66
1, 25513, Note_on_c, 0, 55, 49
1, 25513, Control_c, 0, 67, 74
1, 25527, Note_off_c, 0, 51, 41
1, 25527, Control_c, 0, 67, 68
1, 25532, Note_off_c, 0, 67, 51
1, 25542, Control_c, 0, 67, 61
1, 25557, Control_c, 0, 67, 50
1, 25572, Control_c, 0, 67, 41
1, 25585, Note_off_c, 0, 55, 60
1, 25587, Control_c, 0, 67, 32
1, 25602, Control_c, 0, 67, 25
1, 25617, Control_c, 0, 67, 20
1, 25617, Note_on_c, 0, 58, 52
1, 25632, Control_c, 0, 67, 17
1, 25647, Control_c, 0, 67, 15
1, 25662, Control_c, 0, 67, 13
1, 25676, Control_c, 0, 67, 12
1, 25682, Note_off_c, 0, 58, 58
1, 25691, Control_c, 0, 67, 11
1, 25705, Note_off_c, 0, 70, 60
1, 25713, Control_c, 0, 67, 10
1, 25727, Control_c, 0, 67, 9
1, 25742, Control_c, 0, 67, 8
1, 25749, Note_on_c, 0, 50, 48
1, 25757, Control_c, 0, 67, 0
1, 25811, Note_off_c, 0, 50, 56
1, 25837, Note_on_c, 0, 70, 66
1, 25840, Note_on_c, 0, 58, 58
1, 25868, Note_off_c, 0, 70, 65
1, 25920, Note_off_c, 0, 58, 51
1, 25956, Note_on_c, 0, 70, 76
1, 25958, Note_on_c, 0, 53, 56
1, 25984, Note_off_c, 0, 70, 63
1, 26016, Note_off_c, 0, 53, 62
1, 26056, Note_on_c, 0, 58, 57
1, 26061, Note_on_c, 0, 70, 74
1, 26117, Note_off_c, 0, 70, 58
1, 26136, Note_off_c, 0, 58, 61
1, 26163, Note_on_c, 0, 77, 74
1, 26183, Note_on_c, 0, 48, 59
1, 26227, Note_off_c, 0, 77, 60
1, 26233, Note_off_c, 0, 48, 60
1, 26273, Note_on_c, 0, 75, 71
1, 26285, Note_on_c, 0, 58, 49
1, 26297, Note_off_c, 0, 75, 70
1, 26343, Note_off_c, 0, 58, 55
1, 26398, Note_on_c, 0, 55, 53
1, 26399, Note_on_c, 0, 75, 75
1, 26471, Note_off_c, 0, 55, 58
1, 26505, Note_on_c, 0, 58, 60
1, 26567, Note_off_c, 0, 58, 61
1, 26612, Note_off_c, 0, 75, 61
1, 26627, Note_on_c, 0, 48, 61
1, 26681, Note_off_c, 0, 48, 60
1, 26731, Note_on_c, 0, 58, 58
1, 26732, Note_on_c, 0, 75, 73
1, 26760, Note_off_c, 0, 75, 65
1, 26776, Note_off_c, 0, 58, 58
1, 26840, Note_on_c, 0, 55, 53
1, 26845, Note_on_c, 0, 75, 74
1, 26869, Note_off_c, 0, 75, 68
1, 26914, Note_off_c, 0, 55, 58
1, 26931, Note_on_c, 0, 58, 64
1, 26941, Note_on_c, 0, 75, 82
1, 26967, Note_off_c, 0, 58, 64
1, 26973, Note_off_c, 0, 75, 66
1, 27066, Note_on_c, 0, 57, 69
1, 27069, Note_on_c, 0, 75, 99
1, 27075, Note_on_c, 0, 53, 60
1, 27080, Note_on_c, 0, 48, 59
1, 27185, Note_off_c, 0, 75, 65
1, 27215, Note_on_c, 0, 77, 64
1, 27257, Note_off_c, 0, 77, 62
1, 27259, Note_on_c, 0, 79, 63
1, 27280, Note_off_c, 0, 79, 61
1, 27316, Note_on_c, 0, 77, 70
1, 27356, Note_off_c, 0, 77, 63
1, 27427, Note_on_c, 0, 75, 77
1, 27459, Note_off_c, 0, 75, 62
1, 27538, Note_on_c, 0, 74, 81
1, 27569, Note_off_c, 0, 74, 63
1, 27648, Note_on_c, 0, 72, 78
1, 27662, Note_off_c, 0, 48, 43
1, 27676, Note_off_c, 0, 53, 63
1, 27682, Note_off_c, 0, 72, 67
1, 27690, Note_off_c, 0, 57, 60
1, 27757, Note_on_c, 0, 70, 78
1, 27787, Note_off_c, 0, 70, 60
1, 27865, Note_on_c, 0, 69, 75
1, 27888, Note_off_c, 0, 69, 72
1, 28020, Note_on_c, 0, 72, 72
1, 28271, Note_off_c, 0, 72, 57
1, 28281, Note_on_c, 0, 70, 53
1, 28286, Note_on_c, 0, 62, 37
1, 28291, Note_on_c, 0, 58, 39
1, 28479, Note_off_c, 0, 70, 63
1, 28480, Note_off_c, 0, 62, 54
1, 28490, Note_off_c, 0, 58, 58
1, 28520, Note_on_c, 0, 63, 45
1, 28524, Note_on_c, 0, 59, 44
1, 28767, Note_on_c, 0, 75, 61
1, 28789, Note_off_c, 0, 75, 67
1, 28872, Note_on_c, 0, 75, 63
1, 28897, Note_off_c, 0, 75, 67
1, 28917, Note_off_c, 0, 63, 61
1, 28926, Note_off_c, 0, 59, 61
1, 28994, Note_on_c, 0, 82, 66
1, 29256, Note_on_c, 0, 62, 50
1, 29265, Note_on_c, 0, 58, 42
1, 29268, Note_off_c, 0, 82, 61
1, 29479, Note_off_c, 0, 62, 53
1, 29494, Note_off_c, 0, 58, 57
1, 29508, Note_on_c, 0, 63, 48
1, 29516, Note_on_c, 0, 59, 48
1, 29748, Note_on_c, 0, 75, 60
1, 29767, Note_off_c, 0, 75, 67
1, 29851, Note_on_c, 0, 75, 62
1, 29858, Note_off_c, 0, 63, 59
1, 29867, Note_off_c, 0, 59, 60
1, 29880, Note_off_c, 0, 75, 68
1, 29976, Note_on_c, 0, 82, 67
1, 30228, Note_on_c, 0, 62, 47
1, 30234, Note_on_c, 0, 58, 44
1, 30241, Note_off_c, 0, 82, 62
1, 30421, Note_off_c, 0, 62, 54
1, 30438, Note_off_c, 0, 58, 55
1, 30468, Note_on_c, 0, 63, 48
1, 30475, Note_on_c, 0, 59, 43
1, 30702, Note_on_c, 0, 75, 60
1, 30724, Note_off_c, 0, 75, 64
1, 30732, Note_off_c, 0, 59, 56
1, 30740, Note_off_c, 0, 63, 55
1, 30810, Note_on_c, 0, 75, 61
1, 30833, Note_off_c, 0, 75, 67
1, 30937, Note_on_c, 0, 62, 47
1, 30948, Note_on_c, 0, 82, 68
1, 30952, Note_on_c, 0, 58, 44
1, 31011, Note_off_c, 0, 82, 60
1, 31146, Note_off_c, 0, 62, 55
1, 31168, Note_off_c, 0, 58, 59
1, 31175, Note_on_c, 0, 75, 66
1, 31181, Note_on_c, 0, 63, 52
1, 31190, Note_on_c, 0, 59, 48
1, 31202, Note_off_c, 0, 75, 70
1, 31281, Note_on_c, 0, 75, 65
1, 31310, Note_off_c, 0, 75, 66
1, 31337, Note_off_c, 0, 63, 44
1, 31383, Note_off_c, 0, 59, 56
1, 31403, Note_on_c, 0, 82, 79
1, 31412, Note_on_c, 0, 58, 49
1, 31412, Note_on_c, 0, 62, 46
1, 31487, Note_off_c, 0, 82, 62
1, 31614, Note_off_c, 0, 58, 60
1, 31614, Note_off_c, 0, 62, 54
1, 31632, Note_on_c, 0, 75, 69
1, 31636, Note_on_c, 0, 63, 48
1, 31653, Note_on_c, 0, 59, 40
1, 31658, Note_off_c, 0, 75, 68
1, 31740, Note_on_c, 0, 75, 69
1, 31766, Note_off_c, 0, 75, 68
1, 31774, Note_off_c, 0, 63, 43
1, 31867, Note_on_c, 0, 82, 74
1, 31875, Note_on_c, 0, 62, 42
1, 31877, Note_off_c, 0, 59, 42
1, 31880, Note_on_c, 0, 58, 46
1, 31942, Control_c, 0, 67, 8
1, 31957, Control_c, 0, 67, 14
1, 31971, Control_c, 0, 67, 28
1, 31986, Control_c, 0, 67, 54
1, 32001, Control_c, 0, 67, 90
1, 32005, Note_off_c, 0, 82, 61
1, 32016, Control_c, 0, 67, 125
1, 32031, Control_c, 0, 67, 127
1, 32073, Note_off_c, 0, 62, 54
1, 32079, Note_off_c, 0, 58, 59
1, 32144, Note_on_c, 0, 82, 57
1, 32285, Note_off_c, 0, 82, 61
1, 32386, Note_on_c, 0, 82, 65
1, 32529, Note_off_c, 0, 82, 60
1, 32632, Note_on_c, 0, 82, 68
1, 32772, Note_off_c, 0, 82, 60
1, 32867, Note_on_c, 0, 82, 55
1, 32978, Note_on_c, 0, 81, 64
1, 32995, Note_off_c, 0, 82, 52
1, 33091, Note_on_c, 0, 80, 64
1, 33096, Note_off_c, 0, 81, 49
1, 33203, Note_off_c, 0, 80, 58
1, 33212, Note_on_c, 0, 77, 58
1, 33304, Note_off_c, 0, 77, 48
1, 33333, Note_on_c, 0, 82, 60
1, 33439, Note_on_c, 0, 81, 68
1, 33440, Note_off_c, 0, 82, 52
1, 33555, Note_off_c, 0, 81, 57
1, 33556, Note_on_c, 0, 80, 62
1, 33631, Note_off_c, 0, 80, 62
1, 33655, Note_on_c, 0, 77, 58
1, 33773, Note_off_c, 0, 77, 56
1, 33792, Note_on_c, 0, 75, 66
1, 33794, Note_on_c, 0, 67, 44
1, 33865, Note_off_c, 0, 67, 52
1, 33904, Note_on_c, 0, 70, 51
1, 33968, Note_off_c, 0, 70, 52
1, 34023, Note_on_c, 0, 67, 46
1, 34087, Note_off_c, 0, 67, 57
1, 34090, Note_off_c, 0, 75, 64
1, 34124, Note_on_c, 0, 77, 51
1, 34133, Note_on_c, 0, 70, 48
1, 34163, Note_off_c, 0, 77, 60
1, 34172, Note_on_c, 0, 75, 55
1, 34190, Note_off_c, 0, 70, 52
1, 34224, Note_on_c, 0, 74, 61
1, 34225, Note_off_c, 0, 75, 62
1, 34237, Note_on_c, 0, 65, 50
1, 34270, Note_off_c, 0, 74, 65
1, 34318, Note_off_c, 0, 65, 48
1, 34346, Note_on_c, 0, 70, 49
1, 34401, Note_off_c, 0, 70, 42
1, 34460, Note_on_c, 0, 75, 69
1, 34466, Note_on_c, 0, 67, 54
1, 34525, Note_off_c, 0, 75, 60
1, 34527, Note_off_c, 0, 67, 54
1, 34563, Note_on_c, 0, 70, 51
1, 34655, Note_off_c, 0, 70, 50
1, 34705, Note_on_c, 0, 67, 47
1, 34711, Note_on_c, 0, 76, 68
1, 34762, Note_off_c, 0, 67, 55
1, 34799, Note_on_c, 0, 70, 51
1, 34888, Note_off_c, 0, 70, 51
1, 34923, Note_on_c, 0, 67, 46
1, 34989, Note_off_c, 0, 67, 55
1, 35023, Note_on_c, 0, 70, 50
1, 35101, Note_off_c, 0, 70, 51
1, 35146, Note_off_c, 0, 76, 57
1, 35154, Note_on_c, 0, 68, 56
1, 35154, Note_on_c, 0, 77, 56
1, 35225, Note_off_c, 0, 68, 59
1, 35242, Note_off_c, 0, 77, 61
1, 35259, Note_on_c, 0, 70, 51
1, 35344, Note_off_c, 0, 70, 48
1, 35375, Note_on_c, 0, 68, 53
1, 35471, Note_off_c, 0, 68, 58
1, 35481, Note_on_c, 0, 70, 54
1, 35585, Note_off_c, 0, 70, 45
1, 35619, Note_on_c, 0, 56, 77
1, 35624, Note_on_c, 0, 65, 54
1, 35722, Note_on_c, 0, 70, 50
1, 35730, Note_off_c, 0, 65, 60
1, 35819, Note_off_c, 0, 70, 55
1, 35856, Note_on_c, 0, 65, 59
1, 35910, Note_off_c, 0, 56, 64
1, 35925, Note_on_c, 0, 55, 65
1, 35943, Note_off_c, 0, 65, 62
1, 35949, Note_on_c, 0, 70, 62
1, 35978, Note_off_c, 0, 55, 61
1, 35978, Note_on_c, 0, 56, 61
1, 36023, Note_off_c, 0, 70, 51
1, 36040, Note_on_c, 0, 58, 71
1, 36046, Note_off_c, 0, 56, 64
1, 36056, Note_on_c, 0, 65, 56
1, 36147, Note_off_c, 0, 58, 62
1, 36157, Note_on_c, 0, 56, 73
1, 36161, Note_on_c, 0, 70, 57
1, 36205, Note_off_c, 0, 65, 38
1, 36259, Note_off_c, 0, 70, 56
1, 36271, Note_off_c, 0, 56, 63
1, 36277, Note_on_c, 0, 55, 66
1, 36282, Note_on_c, 0, 67, 59
1, 36330, Note_off_c, 0, 55, 64
1, 36366, Note_off_c, 0, 67, 59
1, 36375, Note_on_c, 0, 53, 66
1, 36381, Note_on_c, 0, 70, 58
1, 36476, Note_off_c, 0, 70, 54
1, 36512, Note_on_c, 0, 68, 58
1, 36514, Note_on_c, 0, 51, 72
1, 36524, Note_off_c, 0, 53, 61
1, 36593, Note_off_c, 0, 68, 61
1, 36603, Note_on_c, 0, 70, 58
1, 36683, Note_off_c, 0, 70, 54
1, 36740, Note_on_c, 0, 65, 57
1, 36822, Note_off_c, 0, 65, 54
1, 36845, Note_on_c, 0, 70, 51
1, 36946, Note_off_c, 0, 70, 54
1, 36994, Note_off_c, 0, 51, 57
1, 36997, Note_on_c, 0, 68, 53
1, 36998, Note_on_c, 0, 50, 52
1, 37064, Note_off_c, 0, 50, 63
1, 37083, Note_off_c, 0, 68, 57
1, 37090, Note_on_c, 0, 70, 52
1, 37187, Note_off_c, 0, 70, 53
1, 37213, Note_on_c, 0, 65, 53
1, 37281, Note_off_c, 0, 65, 58
1, 37314, Note_on_c, 0, 70, 57
1, 37393, Note_off_c, 0, 70, 54
1, 37434, Note_on_c, 0, 77, 75
1, 37450, Note_on_c, 0, 62, 49
1, 37501, Note_off_c, 0, 62, 59
1, 37541, Note_on_c, 0, 70, 52
1, 37615, Note_off_c, 0, 70, 55
1, 37664, Note_on_c, 0, 62, 45
1, 37698, Note_off_c, 0, 77, 55
1, 37734, Note_off_c, 0, 62, 58
1, 37748, Note_on_c, 0, 79, 59
1, 37767, Note_on_c, 0, 70, 50
1, 37807, Note_off_c, 0, 79, 62
1, 37813, Note_on_c, 0, 77, 63
1, 37825, Note_off_c, 0, 70, 53
1, 37859, Note_on_c, 0, 75, 69
1, 37865, Note_off_c, 0, 77, 61
1, 37873, Note_on_c, 0, 60, 62
1, 37894, Note_off_c, 0, 75, 61
1, 37937, Note_off_c, 0, 60, 58
1, 37972, Note_on_c, 0, 70, 54
1, 38041, Note_off_c, 0, 70, 54
1, 38094, Note_on_c, 0, 77, 76
1, 38101, Note_on_c, 0, 62, 55
1, 38134, Note_off_c, 0, 77, 61
1, 38158, Note_off_c, 0, 62, 57
1, 38191, Note_on_c, 0, 70, 56
1, 38272, Note_off_c, 0, 70, 52
1, 38321, Note_on_c, 0, 78, 75
1, 38322, Note_on_c, 0, 62, 45
1, 38381, Note_off_c, 0, 62, 58
1, 38411, Note_on_c, 0, 70, 50
1, 38507, Note_off_c, 0, 70, 53
1, 38542, Note_on_c, 0, 62, 50
1, 38617, Note_off_c, 0, 62, 60
1, 38650, Note_on_c, 0, 70, 50
1, 38731, Note_off_c, 0, 70, 43
1, 38785, Note_on_c, 0, 63, 54
1, 38785, Note_on_c, 0, 79, 61
1, 38796, Note_off_c, 0, 78, 58
1, 38861, Note_off_c, 0, 63, 60
1, 38867, Note_off_c, 0, 79, 63
1, 38896, Note_on_c, 0, 70, 50
1, 38951, Note_off_c, 0, 70, 48
1, 39006, Note_on_c, 0, 63, 57
1, 39117, Note_on_c, 0, 70, 54
1, 39117, Note_off_c, 0, 63, 49
1, 39215, Note_off_c, 0, 70, 56
1, 39237, Note_on_c, 0, 58, 74
1, 39252, Note_on_c, 0, 67, 57
1, 39319, Note_off_c, 0, 67, 57
1, 39343, Note_on_c, 0, 70, 57
1, 39400, Note_off_c, 0, 70, 53
1, 39456, Note_on_c, 0, 63, 60
1, 39524, Note_off_c, 0, 58, 61
1, 39548, Note_on_c, 0, 57, 65
1, 39557, Note_on_c, 0, 70, 62
1, 39595, Note_on_c, 0, 58, 55
1, 39615, Note_off_c, 0, 63, 37
1, 39618, Note_off_c, 0, 57, 58
1, 39636, Note_off_c, 0, 70, 55
1, 39652, Note_on_c, 0, 60, 68
1, 39657, Note_on_c, 0, 67, 59
1, 39671, Note_off_c, 0, 58, 63
1, 39752, Note_off_c, 0, 67, 61
1, 39767, Note_on_c, 0, 70, 57
1, 39770, Note_on_c, 0, 58, 76
1, 39782, Note_off_c, 0, 60, 52
1, 39839, Note_off_c, 0, 70, 56
1, 39878, Note_on_c, 0, 63, 56
1, 39880, Note_on_c, 0, 56, 68
1, 39886, Note_off_c, 0, 58, 63
1, 39965, Note_off_c, 0, 56, 62
1, 39984, Note_on_c, 0, 55, 69
1, 39984, Note_on_c, 0, 70, 58
1, 39999, Note_off_c, 0, 63, 52
1, 40092, Note_off_c, 0, 70, 57
1, 40116, Note_on_c, 0, 53, 73
1, 40119, Note_off_c, 0, 55, 60
1, 40122, Note_on_c, 0, 68, 57
1, 40209, Note_off_c, 0, 68, 61
1, 40222, Note_on_c, 0, 70, 52
1, 40315, Note_off_c, 0, 70, 51
1, 40360, Note_on_c, 0, 65, 52
1, 40420, Note_off_c, 0, 65, 53
1, 40450, Note_on_c, 0, 70, 52
1, 40532, Note_off_c, 0, 70, 51
1, 40583, Note_off_c, 0, 53, 59
1, 40586, Note_on_c, 0, 67, 51
1, 40592, Note_on_c, 0, 51, 55
1, 40667, Note_off_c, 0, 51, 61
1, 40671, Note_off_c, 0, 67, 61
1, 40704, Note_on_c, 0, 70, 52
1, 40705, Control_c, 0, 67, 116
1, 40720, Control_c, 0, 67, 99
1, 40734, Control_c, 0, 67, 71
1, 40749, Control_c, 0, 67, 46
1, 40763, Note_off_c, 0, 70, 57
1, 40764, Control_c, 0, 67, 25
1, 40779, Control_c, 0, 67, 10
1, 40794, Control_c, 0, 67, 0
1, 40808, Note_on_c, 0, 63, 59
1, 40885, Note_off_c, 0, 63, 60
1, 40905, Note_on_c, 0, 70, 62
1, 40960, Note_off_c, 0, 70, 59
1, 41032, Note_on_c, 0, 82, 86
1, 41038, Note_on_c, 0, 70, 85
1, 41045, Note_on_c, 0, 63, 53
1, 41076, Control_c, 0, 64, 13
1, 41091, Control_c, 0, 64, 66
1, 41106, Control_c, 0, 64, 74
1, 41112, Note_off_c, 0, 63, 62
1, 41121, Control_c, 0, 64, 83
1, 41135, Control_c, 0, 64, 89
1, 41143, Note_on_c, 0, 67, 62
1, 41150, Control_c, 0, 64, 91
1, 41165, Control_c, 0, 64, 94
1, 41180, Control_c, 0, 64, 96
1, 41195, Control_c, 0, 64, 98
1, 41210, Control_c, 0, 64, 101
1, 41221, Note_off_c, 0, 67, 54
1, 41224, Control_c, 0, 64, 103
1, 41239, Control_c, 0, 64, 104
1, 41246, Note_off_c, 0, 70, 57
1, 41254, Control_c, 0, 64, 105
1, 41257, Note_on_c, 0, 63, 56
1, 41260, Note_off_c, 0, 82, 57
1, 41269, Control_c, 0, 64, 105
1, 41298, Control_c, 0, 64, 106
1, 41320, Note_off_c, 0, 63, 62
1, 41328, Control_c, 0, 64, 106
1, 41349, Note_on_c, 0, 67, 61
1, 41431, Note_off_c, 0, 67, 57
1, 41454, Control_c, 0, 64, 106
1, 41469, Control_c, 0, 64, 101
1, 41483, Control_c, 0, 64, 89
1, 41495, Note_on_c, 0, 83, 88
1, 41497, Note_on_c, 0, 71, 86
1, 41498, Control_c, 0, 64, 71
1, 41499, Note_on_c, 0, 61, 64
1, 41513, Control_c, 0, 64, 0
1, 41572, Control_c, 0, 64, 64
1, 41587, Note_off_c, 0, 61, 61
1, 41587, Control_c, 0, 64, 73
1, 41597, Note_on_c, 0, 65, 64
1, 41603, Control_c, 0, 64, 81
1, 41618, Control_c, 0, 64, 87
1, 41632, Control_c, 0, 64, 88
1, 41647, Control_c, 0, 64, 90
1, 41662, Control_c, 0, 64, 92
1, 41676, Control_c, 0, 64, 95
1, 41677, Note_off_c, 0, 65, 58
1, 41691, Control_c, 0, 64, 96
1, 41706, Control_c, 0, 64, 97
1, 41717, Note_on_c, 0, 61, 61
1, 41735, Note_off_c, 0, 71, 45
1, 41736, Control_c, 0, 64, 98
1, 41752, Control_c, 0, 64, 98
1, 41781, Control_c, 0, 64, 99
1, 41795, Note_off_c, 0, 83, 44
1, 41796, Control_c, 0, 64, 99
1, 41799, Note_off_c, 0, 61, 60
1, 41802, Note_on_c, 0, 65, 67
1, 41826, Control_c, 0, 64, 100
1, 41841, Control_c, 0, 64, 100
1, 41882, Note_off_c, 0, 65, 55
1, 41885, Control_c, 0, 64, 98
1, 41899, Control_c, 0, 64, 87
1, 41914, Control_c, 0, 64, 67
1, 41929, Control_c, 0, 64, 0
1, 41937, Note_on_c, 0, 60, 64
1, 41939, Note_on_c, 0, 84, 93
1, 41942, Note_on_c, 0, 72, 92
1, 41988, Control_c, 0, 64, 57
1, 41996, Note_off_c, 0, 60, 59
1, 42003, Control_c, 0, 64, 70
1, 42018, Control_c, 0, 64, 78
1, 42027, Note_off_c, 0, 72, 61
1, 42033, Control_c, 0, 64, 85
1, 42039, Note_on_c, 0, 64, 63
1, 42048, Control_c, 0, 64, 86
1, 42058, Note_off_c, 0, 84, 61
1, 42062, Control_c, 0, 64, 87
1, 42071, Note_off_c, 0, 64, 65
1, 42077, Control_c, 0, 64, 88
1, 42092, Control_c, 0, 64, 88
1, 42137, Control_c, 0, 64, 87
1, 42152, Control_c, 0, 64, 82
1, 42167, Control_c, 0, 64, 73
1, 42188, Control_c, 0, 64, 46
1, 42196, Note_on_c, 0, 85, 89
1, 42200, Note_on_c, 0, 73, 86
1, 42203, Control_c, 0, 64, 0
1, 42209, Note_on_c, 0, 58, 61
1, 42213, Note_on_c, 0, 64, 60
1, 42484, Note_off_c, 0, 64, 63
1, 42484, Note_off_c, 0, 73, 60
1, 42492, Note_off_c, 0, 58, 63
1, 42501, Note_off_c, 0, 85, 62
1, 42948, Note_on_c, 0, 65, 42
1, 42952, Note_on_c, 0, 56, 39
1, 43066, Note_on_c, 0, 84, 54
1, 43186, Note_on_c, 0, 82, 64
1, 43191, Note_off_c, 0, 84, 47
1, 43278, Note_on_c, 0, 80, 71
1, 43307, Note_off_c, 0, 82, 57
1, 43362, Note_off_c, 0, 80, 59
1, 43399, Note_on_c, 0, 79, 68
1, 43480, Note_off_c, 0, 79, 39
1, 43493, Note_on_c, 0, 77, 66
1, 43510, Note_off_c, 0, 65, 43
1, 43520, Note_off_c, 0, 56, 47
1, 43549, Note_off_c, 0, 77, 58
1, 43601, Note_on_c, 0, 79, 65
1, 43654, Note_off_c, 0, 79, 57
1, 43706, Note_on_c, 0, 80, 62
1, 43848, Note_on_c, 0, 75, 60
1, 43855, Note_off_c, 0, 80, 58
1, 44081, Note_on_c, 0, 58, 39
1, 44081, Note_on_c, 0, 67, 40
1, 44283, Note_off_c, 0, 67, 57
1, 44304, Note_on_c, 0, 68, 53
1, 44398, Note_off_c, 0, 58, 38
1, 44495, Note_off_c, 0, 75, 53
1, 44526, Note_on_c, 0, 59, 45
1, 44534, Note_on_c, 0, 79, 52
1, 44549, Note_on_c, 0, 74, 45
1, 44564, Note_off_c, 0, 68, 55
1, 44572, Note_off_c, 0, 59, 46
1, 44601, Note_off_c, 0, 79, 60
1, 44607, Note_off_c, 0, 74, 58
1, 44623, Note_on_c, 0, 77, 55
1, 44758, Note_off_c, 0, 77, 48
1, 44760, Note_on_c, 0, 75, 56
1, 44770, Note_on_c, 0, 60, 36
1, 44775, Note_on_c, 0, 67, 44
1, 44912, Note_off_c, 0, 75, 64
1, 45016, Note_off_c, 0, 60, 59
1, 45022, Note_off_c, 0, 67, 60
1, 45127, Note_on_c, 0, 75, 60
1, 45240, Note_on_c, 0, 74, 56
1, 45249, Note_off_c, 0, 75, 51
1, 45339, Note_on_c, 0, 73, 63
1, 45340, Note_off_c, 0, 74, 45
1, 45431, Note_off_c, 0, 73, 50
1, 45443, Note_on_c, 0, 72, 66
1, 45507, Note_off_c, 0, 72, 55
1, 45538, Note_on_c, 0, 71, 73
1, 45631, Note_off_c, 0, 71, 49
1, 45662, Note_on_c, 0, 70, 88
1, 45665, Note_on_c, 0, 51, 59
1, 45717, Control_c, 0, 64, 53
1, 45724, Note_off_c, 0, 51, 59
1, 45732, Control_c, 0, 64, 67
1, 45747, Control_c, 0, 64, 73
1, 45750, Note_on_c, 0, 55, 61
1, 45762, Control_c, 0, 64, 81
1, 45777, Control_c, 0, 64, 83
1, 45792, Control_c, 0, 64, 85
1, 45807, Control_c, 0, 64, 86
1, 45821, Control_c, 0, 64, 87
1, 45836, Control_c, 0, 64, 88
1, 45847, Note_off_c, 0, 55, 52
1, 45851, Control_c, 0, 64, 88
1, 45852, Note_off_c, 0, 70, 57
1, 45861, Note_on_c, 0, 51, 58
1, 45866, Control_c, 0, 64, 89
1, 45881, Control_c, 0, 64, 89
1, 45933, Control_c, 0, 64, 90
1, 45937, Note_off_c, 0, 51, 59
1, 45969, Note_on_c, 0, 55, 62
1, 46027, Note_off_c, 0, 55, 58
1, 46066, Control_c, 0, 64, 89
1, 46081, Control_c, 0, 64, 82
1, 46095, Control_c, 0, 64, 67
1, 46096, Note_on_c, 0, 49, 68
1, 46096, Note_on_c, 0, 71, 87
1, 46099, Note_on_c, 0, 59, 81
1, 46110, Control_c, 0, 64, 0
1, 46184, Control_c, 0, 64, 56
1, 46193, Note_off_c, 0, 49, 61
1, 46196, Note_on_c, 0, 53, 64
1, 46199, Control_c, 0, 64, 68
1, 46214, Control_c, 0, 64, 73
1, 46228, Control_c, 0, 64, 78
1, 46243, Control_c, 0, 64, 80
1, 46258, Control_c, 0, 64, 81
1, 46272, Control_c, 0, 64, 82
1, 46275, Note_off_c, 0, 53, 60
1, 46287, Control_c, 0, 64, 82
1, 46302, Control_c, 0, 64, 83
1, 46311, Note_on_c, 0, 49, 65
1, 46314, Note_off_c, 0, 59, 47
1, 46388, Note_off_c, 0, 49, 57
1, 46390, Note_off_c, 0, 71, 56
1, 46396, Note_on_c, 0, 53, 71
1, 46406, Control_c, 0, 64, 83
1, 46465, Control_c, 0, 64, 83
1, 46467, Note_off_c, 0, 53, 56
1, 46480, Control_c, 0, 64, 78
1, 46495, Control_c, 0, 64, 65
1, 46510, Control_c, 0, 64, 0
1, 46531, Note_on_c, 0, 48, 68
1, 46531, Note_on_c, 0, 72, 92
1, 46535, Note_on_c, 0, 60, 87
1, 46585, Control_c, 0, 64, 59
1, 46585, Note_off_c, 0, 48, 60
1, 46599, Control_c, 0, 64, 68
1, 46614, Control_c, 0, 64, 74
1, 46622, Note_off_c, 0, 60, 59
1, 46629, Control_c, 0, 64, 76
1, 46632, Note_on_c, 0, 52, 62
1, 46636, Note_off_c, 0, 72, 60
1, 46644, Control_c, 0, 64, 77
1, 46672, Note_off_c, 0, 52, 66
1, 46725, Control_c, 0, 64, 75
1, 46740, Control_c, 0, 64, 68
1, 46755, Control_c, 0, 64, 13
1, 46769, Control_c, 0, 64, 0
1, 46781, Note_on_c, 0, 61, 90
1, 46781, Note_on_c, 0, 73, 90
1, 46788, Note_on_c, 0, 52, 60
1, 46794, Note_on_c, 0, 46, 61
1, 47053, Note_off_c, 0, 61, 60
1, 47083, Note_off_c, 0, 52, 63
1, 47091, Note_off_c, 0, 46, 59
1, 47106, Note_off_c, 0, 73, 60
1, 47467, Note_on_c, 0, 72, 85
1, 47471, Note_on_c, 0, 53, 69
1, 47477, Note_on_c, 0, 48, 63
1, 47487, Note_on_c, 0, 44, 56
1, 47512, Note_off_c, 0, 72, 61
1, 47535, Note_on_c, 0, 77, 77
1, 47579, Note_off_c, 0, 77, 61
1, 47609, Note_on_c, 0, 67, 76
1, 47673, Note_off_c, 0, 67, 54
1, 47687, Note_on_c, 0, 68, 74
1, 47749, Note_off_c, 0, 68, 64
1, 47753, Note_on_c, 0, 72, 74
1, 47792, Note_off_c, 0, 72, 65
1, 47824, Note_on_c, 0, 64, 75
1, 47887, Note_off_c, 0, 64, 45
1, 47898, Note_on_c, 0, 65, 75
1, 47955, Note_off_c, 0, 65, 65
1, 47962, Note_on_c, 0, 68, 70
1, 47992, Note_off_c, 0, 53, 34
1, 48006, Note_off_c, 0, 68, 64
1, 48034, Note_on_c, 0, 59, 77
1, 48039, Note_off_c, 0, 48, 61
1, 48079, Note_off_c, 0, 44, 62
1, 48092, Note_off_c, 0, 59, 57
1, 48104, Note_on_c, 0, 60, 77
1, 48156, Note_off_c, 0, 60, 63
1, 48179, Note_on_c, 0, 65, 74
1, 48216, Note_off_c, 0, 65, 65
1, 48248, Note_on_c, 0, 55, 75
1, 48288, Note_off_c, 0, 55, 63
1, 48325, Note_on_c, 0, 56, 75
1, 48334, Note_on_c, 0, 41, 87
1, 48342, Note_on_c, 0, 29, 69
1, 48387, Note_off_c, 0, 56, 64
1, 48393, Note_on_c, 0, 60, 69
1, 48437, Note_off_c, 0, 60, 61
1, 48462, Note_on_c, 0, 52, 73
1, 48521, Note_off_c, 0, 52, 45
1, 48535, Note_on_c, 0, 53, 74
1, 48592, Note_off_c, 0, 53, 64
1, 48600, Note_on_c, 0, 56, 64
1, 48638, Note_off_c, 0, 56, 65
1, 48670, Note_on_c, 0, 47, 74
1, 48729, Note_off_c, 0, 47, 59
1, 48742, Note_on_c, 0, 48, 73
1, 48794, Note_off_c, 0, 48, 65
1, 48800, Note_off_c, 0, 41, 54
1, 48808, Note_on_c, 0, 53, 73
1, 48851, Note_off_c, 0, 53, 67
1, 48883, Note_on_c, 0, 43, 70
1, 48905, Note_off_c, 0, 29, 60
1, 48951, Note_off_c, 0, 43, 49
1, 48965, Note_on_c, 0, 44, 65
1, 49023, Note_off_c, 0, 44, 62
1, 49024, Note_on_c, 0, 48, 79
1, 49088, Note_off_c, 0, 48, 56
1, 49106, Note_on_c, 0, 40, 68
1, 49144, Note_off_c, 0, 40, 62
1, 49183, Note_on_c, 0, 41, 79
1, 49484, Note_off_c, 0, 41, 66
1, 49521, Note_on_c, 0, 36, 62
1, 49588, Note_off_c, 0, 36, 60
1, 49631, Note_on_c, 0, 44, 64
1, 49696, Note_off_c, 0, 44, 61
1, 49750, Note_on_c, 0, 41, 68
1, 49855, Note_off_c, 0, 41, 39
1, 49861, Note_on_c, 0, 48, 66
1, 49951, Note_off_c, 0, 48, 64
1, 49956, Note_on_c, 0, 44, 66
1, 50021, Note_off_c, 0, 44, 60
1, 50060, Note_on_c, 0, 53, 69
1, 50114, Note_off_c, 0, 53, 64
1, 50166, Note_on_c, 0, 48, 69
1, 50232, Note_off_c, 0, 48, 64
1, 50276, Note_on_c, 0, 56, 64
1, 50323, Note_off_c, 0, 56, 60
1, 50375, Note_on_c, 0, 53, 66
1, 50441, Note_off_c, 0, 53, 62
1, 50495, Note_on_c, 0, 60, 68
1, 50585, Note_off_c, 0, 60, 59
1, 50591, Note_on_c, 0, 56, 68
1, 50659, Note_off_c, 0, 56, 60
1, 50697, Note_on_c, 0, 65, 68
1, 50748, Note_off_c, 0, 65, 61
1, 50803, Note_on_c, 0, 60, 70
1, 50868, Note_off_c, 0, 60, 61
1, 50912, Note_on_c, 0, 68, 72
1, 50961, Note_off_c, 0, 68, 63
1, 51008, Note_on_c, 0, 65, 73
1, 51074, Note_off_c, 0, 65, 63
1, 51114, Note_on_c, 0, 72, 75
1, 51213, Note_on_c, 0, 68, 74
1, 51224, Note_off_c, 0, 72, 62
1, 51294, Note_off_c, 0, 68, 63
1, 51330, Note_on_c, 0, 77, 76
1, 51381, Note_off_c, 0, 77, 61
1, 51432, Note_on_c, 0, 72, 75
1, 51498, Note_off_c, 0, 72, 65
1, 51535, Note_on_c, 0, 80, 78
1, 51580, Note_off_c, 0, 80, 62
1, 51627, Note_on_c, 0, 77, 81
1, 51682, Note_off_c, 0, 77, 62
1, 51758, Note_on_c, 0, 84, 99
1, 51989, Note_on_c, 0, 65, 79
1, 51990, Note_off_c, 0, 84, 56
1, 51993, Note_on_c, 0, 56, 66
1, 52001, Note_on_c, 0, 60, 66
1, 52022, Note_off_c, 0, 65, 65
1, 52031, Note_off_c, 0, 60, 65
1, 52033, Note_off_c, 0, 56, 63
1, 52202, Note_on_c, 0, 87, 93
1, 52423, Note_on_c, 0, 66, 76
1, 52427, Note_on_c, 0, 60, 65
1, 52428, Note_on_c, 0, 57, 61
1, 52448, Note_off_c, 0, 66, 69
1, 52454, Note_off_c, 0, 60, 66
1, 52462, Note_off_c, 0, 57, 63
1, 52467, Note_off_c, 0, 87, 62
1, 52717, Note_on_c, 0, 67, 40
1, 52723, Note_on_c, 0, 63, 41
1, 52727, Note_on_c, 0, 58, 41
1, 52832, Note_on_c, 0, 70, 56
1, 52897, Note_off_c, 0, 70, 55
1, 52948, Note_on_c, 0, 82, 57
1, 52998, Note_off_c, 0, 82, 52
1, 53050, Note_on_c, 0, 81, 60
1, 53137, Note_off_c, 0, 81, 57
1, 53140, Note_off_c, 0, 58, 61
1, 53140, Note_off_c, 0, 67, 37
1, 53150, Note_on_c, 0, 80, 64
1, 53183, Note_off_c, 0, 63, 54
1, 53214, Note_off_c, 0, 80, 60
1, 53256, Note_on_c, 0, 79, 67
1, 53336, Note_off_c, 0, 79, 49
1, 53368, Note_on_c, 0, 78, 67
1, 53428, Note_off_c, 0, 78, 59
1, 53462, Note_on_c, 0, 77, 66
1, 53498, Note_off_c, 0, 77, 59
1, 53593, Note_on_c, 0, 77, 64
1, 53681, Note_off_c, 0, 77, 59
1, 53687, Note_on_c, 0, 75, 59
1, 53715, Note_off_c, 0, 75, 62
1, 53819, Note_on_c, 0, 58, 43
1, 53821, Note_on_c, 0, 75, 55
1, 53830, Note_on_c, 0, 67, 38
1, 54049, Note_off_c, 0, 67, 48
1, 54051, Note_on_c, 0, 68, 55
1, 54140, Note_off_c, 0, 75, 58
1, 54231, Note_off_c, 0, 58, 62
1, 54273, Note_off_c, 0, 68, 63
1, 54283, Note_on_c, 0, 79, 61
1, 54290, Note_on_c, 0, 74, 57
1, 54331, Note_off_c, 0, 79, 46
1, 54343, Note_off_c, 0, 74, 54
1, 54382, Note_on_c, 0, 77, 56
1, 54475, Note_off_c, 0, 77, 34
1, 54487, Note_on_c, 0, 63, 52
1, 54496, Note_on_c, 0, 75, 60
1, 54583, Note_on_c, 0, 70, 52
1, 54603, Note_off_c, 0, 63, 0
1, 54618, Note_off_c, 0, 75, 58
1, 54648, Note_off_c, 0, 70, 46
1, 54675, Poly_aftertouch_c, 0, 63, 0
1, 54702, Note_on_c, 0, 67, 52
1, 54749, Note_off_c, 0, 67, 58
1, 54800, Note_on_c, 0, 70, 52
1, 54812, Note_on_c, 0, 75, 66
1, 54851, Note_off_c, 0, 75, 60
1, 54853, Note_off_c, 0, 70, 54
1, 54922, Note_on_c, 0, 76, 72
1, 54931, Note_on_c, 0, 62, 47
1, 54987, Note_off_c, 0, 62, 57
1, 54991, Note_off_c, 0, 76, 56
1, 55016, Note_on_c, 0, 77, 63
1, 55025, Note_on_c, 0, 70, 49
1, 55044, Note_off_c, 0, 77, 65
1, 55086, Note_off_c, 0, 70, 49
1, 55134, Note_on_c, 0, 68, 58
1, 55197, Note_off_c, 0, 68, 57
1, 55241, Note_on_c, 0, 77, 73
1, 55247, Note_on_c, 0, 70, 45
1, 55294, Note_off_c, 0, 77, 60
1, 55297, Note_off_c, 0, 70, 48
1, 55346, Note_on_c, 0, 63, 54
1, 55348, Note_on_c, 0, 78, 73
1, 55408, Note_off_c, 0, 78, 56
1, 55441, Note_off_c, 0, 63, 55
1, 55441, Note_on_c, 0, 70, 53
1, 55445, Note_on_c, 0, 79, 66
1, 55471, Note_off_c, 0, 79, 65
1, 55510, Note_off_c, 0, 70, 57
1, 55546, Note_on_c, 0, 67, 53
1, 55590, Note_off_c, 0, 67, 62
1, 55635, Note_on_c, 0, 70, 58
1, 55664, Note_off_c, 0, 70, 65
1, 55670, Note_on_c, 0, 79, 65
1, 55742, Note_off_c, 0, 79, 60
1, 55775, Note_on_c, 0, 53, 61
1, 55781, Note_on_c, 0, 82, 70
1, 55871, Note_on_c, 0, 62, 58
1, 55871, Note_off_c, 0, 53, 55
1, 55882, Note_off_c, 0, 82, 57
1, 55885, Note_on_c, 0, 80, 67
1, 55911, Note_off_c, 0, 80, 68
1, 55934, Note_off_c, 0, 62, 52
1, 55977, Note_on_c, 0, 56, 47
1, 56049, Note_off_c, 0, 56, 57
1, 56088, Note_on_c, 0, 80, 73
1, 56101, Note_on_c, 0, 62, 49
1, 56153, Note_off_c, 0, 62, 57
1, 56165, Note_off_c, 0, 80, 49
1, 56204, Note_on_c, 0, 55, 57
1, 56210, Note_on_c, 0, 81, 73
1, 56267, Note_off_c, 0, 81, 58
1, 56272, Note_off_c, 0, 55, 63
1, 56305, Note_on_c, 0, 82, 67
1, 56321, Note_on_c, 0, 63, 58
1, 56341, Note_off_c, 0, 82, 61
1, 56374, Note_off_c, 0, 63, 53
1, 56421, Note_on_c, 0, 58, 47
1, 56474, Note_off_c, 0, 58, 61
1, 56511, Note_on_c, 0, 82, 78
1, 56530, Note_on_c, 0, 63, 51
1, 56574, Note_off_c, 0, 82, 60
1, 56576, Note_off_c, 0, 63, 52
1, 56624, Note_on_c, 0, 56, 59
1, 56629, Note_on_c, 0, 83, 74
1, 56688, Note_off_c, 0, 83, 56
1, 56729, Note_on_c, 0, 63, 55
1, 56733, Note_on_c, 0, 84, 69
1, 56758, Note_off_c, 0, 84, 69
1, 56774, Note_off_c, 0, 56, 34
1, 56795, Note_off_c, 0, 63, 60
1, 56841, Note_on_c, 0, 60, 46
1, 56888, Note_off_c, 0, 60, 59
1, 56925, Note_on_c, 0, 63, 58
1, 56931, Note_on_c, 0, 87, 85
1, 56968, Note_off_c, 0, 87, 61
1, 56970, Note_off_c, 0, 63, 58
1, 57046, Note_on_c, 0, 58, 57
1, 57047, Note_on_c, 0, 87, 86
1, 57100, Note_off_c, 0, 87, 64
1, 57143, Note_off_c, 0, 58, 39
1, 57144, Note_on_c, 0, 75, 67
1, 57160, Note_on_c, 0, 67, 54
1, 57183, Note_off_c, 0, 75, 64
1, 57210, Note_off_c, 0, 67, 54
1, 57267, Note_on_c, 0, 63, 51
1, 57283, Note_on_c, 0, 75, 69
1, 57344, Note_off_c, 0, 63, 55
1, 57368, Note_on_c, 0, 67, 51
1, 57413, Note_off_c, 0, 67, 60
1, 57488, Note_on_c, 0, 58, 56
1, 57544, Note_off_c, 0, 75, 60
1, 57587, Note_off_c, 0, 58, 51
1, 57590, Note_on_c, 0, 68, 61
1, 57649, Note_off_c, 0, 68, 50
1, 57706, Note_on_c, 0, 79, 70
1, 57709, Note_on_c, 0, 62, 53
1, 57749, Note_off_c, 0, 62, 61
1, 57768, Note_off_c, 0, 79, 51
1, 57786, Note_on_c, 0, 68, 63
1, 57797, Note_on_c, 0, 77, 61
1, 57816, Note_off_c, 0, 68, 66
1, 57829, Note_off_c, 0, 77, 62
1, 57925, Note_on_c, 0, 75, 78
1, 57929, Note_on_c, 0, 51, 60
1, 57950, Note_off_c, 0, 75, 66
1, 58024, Note_on_c, 0, 75, 71
1, 58026, Note_on_c, 0, 58, 52
1, 58052, Note_off_c, 0, 75, 66
1, 58122, Note_off_c, 0, 58, 58
1, 58153, Note_on_c, 0, 75, 67
1, 58156, Note_on_c, 0, 55, 52
1, 58164, Note_off_c, 0, 51, 37
1, 58183, Note_off_c, 0, 75, 67
1, 58189, Note_on_c, 0, 77, 73
1, 58210, Note_off_c, 0, 55, 60
1, 58245, Note_on_c, 0, 58, 60
1, 58250, Note_off_c, 0, 77, 62
1, 58252, Note_on_c, 0, 75, 76
1, 58286, Note_off_c, 0, 75, 66
1, 58294, Note_on_c, 0, 74, 65
1, 58331, Note_on_c, 0, 75, 65
1, 58333, Note_off_c, 0, 58, 55
1, 58339, Note_off_c, 0, 74, 65
1, 58369, Note_on_c, 0, 50, 61
1, 58370, Note_on_c, 0, 77, 71
1, 58379, Note_off_c, 0, 75, 64
1, 58394, Note_off_c, 0, 77, 68
1, 58472, Note_on_c, 0, 58, 60
1, 58472, Note_on_c, 0, 77, 75
1, 58490, Note_off_c, 0, 50, 52
1, 58496, Note_off_c, 0, 77, 68
1, 58560, Note_off_c, 0, 58, 60
1, 58576, Note_on_c, 0, 56, 61
1, 58583, Note_on_c, 0, 77, 73
1, 58607, Note_off_c, 0, 77, 68
1, 58608, Note_on_c, 0, 79, 70
1, 58666, Note_off_c, 0, 79, 62
1, 58669, Note_on_c, 0, 77, 66
1, 58681, Note_off_c, 0, 56, 58
1, 58694, Note_on_c, 0, 58, 48
1, 58702, Note_on_c, 0, 75, 67
1, 58702, Note_off_c, 0, 77, 62
1, 58744, Note_off_c, 0, 75, 67
1, 58749, Note_on_c, 0, 77, 62
1, 58765, Note_off_c, 0, 58, 59
1, 58793, Note_off_c, 0, 77, 55
1, 58799, Note_on_c, 0, 79, 83
1, 58808, Note_on_c, 0, 51, 54
1, 58824, Note_off_c, 0, 79, 63
1, 58919, Note_on_c, 0, 79, 76
1, 58930, Note_on_c, 0, 58, 52
1, 58941, Note_off_c, 0, 79, 70
1, 59002, Note_off_c, 0, 58, 59
1, 59012, Note_off_c, 0, 51, 50
1, 59024, Note_on_c, 0, 79, 72
1, 59032, Note_on_c, 0, 55, 49
1, 59051, Note_off_c, 0, 79, 65
1, 59062, Note_on_c, 0, 80, 73
1, 59098, Note_off_c, 0, 55, 59
1, 59110, Note_off_c, 0, 80, 63
1, 59111, Note_on_c, 0, 58, 65
1, 59115, Note_on_c, 0, 79, 70
1, 59140, Note_on_c, 0, 77, 59
1, 59148, Note_off_c, 0, 58, 63
1, 59164, Note_off_c, 0, 77, 59
1, 59204, Note_on_c, 0, 80, 74
1, 59209, Note_off_c, 0, 79, 62
1, 59222, Note_on_c, 0, 53, 61
1, 59238, Note_off_c, 0, 80, 61
1, 59333, Note_on_c, 0, 80, 77
1, 59342, Note_on_c, 0, 62, 56
1, 59354, Note_off_c, 0, 80, 72
1, 59423, Note_off_c, 0, 62, 57
1, 59441, Note_on_c, 0, 80, 78
1, 59455, Note_on_c, 0, 58, 55
1, 59477, Note_off_c, 0, 80, 66
1, 59485, Note_on_c, 0, 82, 73
1, 59491, Note_off_c, 0, 53, 55
1, 59534, Note_on_c, 0, 62, 59
1, 59535, Note_on_c, 0, 80, 69
1, 59539, Note_off_c, 0, 82, 63
1, 59544, Note_off_c, 0, 58, 61
1, 59566, Note_off_c, 0, 62, 65
1, 59575, Note_off_c, 0, 80, 65
1, 59589, Note_on_c, 0, 79, 67
1, 59625, Note_on_c, 0, 80, 68
1, 59625, Note_off_c, 0, 79, 60
1, 59678, Note_on_c, 0, 82, 75
1, 59680, Note_off_c, 0, 80, 64
1, 59699, Note_on_c, 0, 58, 54
1, 59700, Note_on_c, 0, 63, 62
1, 59703, Note_on_c, 0, 55, 51
1, 59721, Note_off_c, 0, 82, 66
1, 59757, Note_on_c, 0, 84, 79
1, 59817, Note_off_c, 0, 84, 61
1, 59830, Note_on_c, 0, 86, 73
1, 59882, Note_off_c, 0, 86, 64
1, 59896, Note_on_c, 0, 87, 71
1, 59958, Note_off_c, 0, 87, 63
1, 59967, Note_on_c, 0, 86, 65
1, 60014, Note_off_c, 0, 86, 58
1, 60038, Note_on_c, 0, 84, 66
1, 60071, Note_off_c, 0, 84, 65
1, 60097, Note_off_c, 0, 55, 58
1, 60100, Note_off_c, 0, 63, 51
1, 60109, Note_on_c, 0, 82, 75
1, 60129, Note_off_c, 0, 58, 58
1, 60189, Note_on_c, 0, 80, 68
1, 60193, Note_off_c, 0, 82, 64
1, 60248, Note_off_c, 0, 80, 64
1, 60255, Note_on_c, 0, 79, 68
1, 60297, Note_off_c, 0, 79, 62
1, 60327, Note_on_c, 0, 77, 76
1, 60393, Note_on_c, 0, 75, 76
1, 60397, Note_off_c, 0, 77, 62
1, 60449, Note_off_c, 0, 75, 66
1, 60461, Note_on_c, 0, 74, 69
1, 60514, Note_off_c, 0, 74, 64
1, 60529, Note_on_c, 0, 72, 81
1, 60552, Note_off_c, 0, 72, 68
1, 60789, Note_on_c, 0, 80, 84
1, 60789, Note_on_c, 0, 84, 76
1, 60791, Note_on_c, 0, 75, 87
1, 60792, Note_on_c, 0, 56, 77
1, 60822, Note_off_c, 0, 56, 66
1, 60822, Note_off_c, 0, 84, 61
1, 60827, Note_off_c, 0, 75, 59
1, 60830, Note_off_c, 0, 80, 64
1, 61041, Note_on_c, 0, 82, 84
1, 61042, Note_on_c, 0, 75, 81
1, 61044, Note_on_c, 0, 79, 79
1, 61047, Note_on_c, 0, 58, 78
1, 61066, Note_off_c, 0, 79, 68
1, 61080, Note_off_c, 0, 82, 65
1, 61081, Note_off_c, 0, 58, 63
1, 61081, Note_off_c, 0, 75, 64
1, 61279, Note_on_c, 0, 68, 81
1, 61281, Note_on_c, 0, 74, 73
1, 61282, Note_on_c, 0, 46, 71
1, 61284, Note_on_c, 0, 65, 76
1, 61310, Note_off_c, 0, 65, 69
1, 61315, Note_off_c, 0, 68, 65
1, 61316, Note_off_c, 0, 74, 66
1, 61334, Note_off_c, 0, 46, 57
1, 61535, Note_on_c, 0, 67, 73
1, 61535, Note_on_c, 0, 75, 72
1, 61543, Note_on_c, 0, 51, 76
1, 61560, Note_off_c, 0, 67, 68
1, 61593, Note_off_c, 0, 75, 64
1, 61626, Note_off_c, 0, 51, 63
1, 61805, Note_on_c, 0, 82, 57
1, 61870, Note_off_c, 0, 82, 63
1, 61874, Note_on_c, 0, 80, 59
1, 61913, Note_off_c, 0, 80, 60
1, 61951, Note_on_c, 0, 79, 55
1, 61972, Note_off_c, 0, 79, 61
1, 62014, Note_on_c, 0, 77, 63
1, 62078, Note_off_c, 0, 77, 60
1, 62086, Note_on_c, 0, 75, 61
1, 62129, Note_off_c, 0, 75, 65
1, 62159, Note_on_c, 0, 74, 54
1, 62190, Note_off_c, 0, 74, 63
1, 62219, Note_on_c, 0, 67, 52
1, 62226, Note_on_c, 0, 63, 47
1, 62231, Note_on_c, 0, 75, 54
1, 62271, Note_off_c, 0, 67, 54
1, 62276, Note_off_c, 0, 63, 61
1, 62291, Note_off_c, 0, 75, 63
1, 62295, Note_on_c, 0, 73, 60
1, 62353, Note_off_c, 0, 73, 63
1, 62361, Note_on_c, 0, 71, 59
1, 62410, Note_off_c, 0, 71, 59
1, 62458, Note_on_c, 0, 68, 56
1, 62458, Note_on_c, 0, 72, 67
1, 62461, Note_on_c, 0, 63, 51
1, 62500, Note_off_c, 0, 72, 65
1, 62527, Note_off_c, 0, 68, 64
1, 62536, Note_off_c, 0, 63, 64
1, 62693, Note_on_c, 0, 84, 59
1, 62749, Note_off_c, 0, 84, 61
1, 62759, Note_on_c, 0, 82, 65
1, 62830, Note_off_c, 0, 82, 63
1, 62839, Note_on_c, 0, 80, 63
1, 62879, Note_off_c, 0, 80, 61
1, 62916, Note_on_c, 0, 79, 60
1, 62940, Note_off_c, 0, 79, 62
1, 62985, Note_on_c, 0, 77, 59
1, 63041, Note_off_c, 0, 77, 59
1, 63048, Note_on_c, 0, 75, 62
1, 63090, Note_off_c, 0, 75, 63
1, 63115, Note_on_c, 0, 58, 47
1, 63120, Note_on_c, 0, 74, 60
1, 63121, Note_on_c, 0, 68, 43
1, 63126, Note_on_c, 0, 65, 40
1, 63170, Note_off_c, 0, 65, 57
1, 63170, Note_off_c, 0, 68, 48
1, 63171, Note_off_c, 0, 74, 66
1, 63187, Note_on_c, 0, 80, 62
1, 63187, Note_off_c, 0, 58, 53
1, 63261, Note_off_c, 0, 80, 58
1, 63271, Note_on_c, 0, 77, 54
1, 63340, Note_off_c, 0, 77, 56
1, 63346, Note_on_c, 0, 75, 70
1, 63362, Note_on_c, 0, 63, 58
1, 63365, Note_on_c, 0, 67, 61
1, 63370, Note_off_c, 0, 75, 70
1, 63418, Note_off_c, 0, 67, 59
1, 63447, Note_off_c, 0, 63, 62
1, 63581, Note_on_c, 0, 70, 56
1, 63654, Note_on_c, 0, 68, 65
1, 63656, Note_off_c, 0, 70, 60
1, 63719, Note_off_c, 0, 68, 64
1, 63725, Note_on_c, 0, 67, 64
1, 63764, Note_off_c, 0, 67, 59
1, 63791, Note_on_c, 0, 65, 58
1, 63833, Note_off_c, 0, 65, 64
1, 63856, Note_on_c, 0, 63, 72
1, 63922, Note_off_c, 0, 63, 65
1, 63933, Note_on_c, 0, 62, 65
1, 63973, Note_off_c, 0, 62, 60
1, 64001, Note_on_c, 0, 55, 61
1, 64004, Note_on_c, 0, 63, 65
1, 64013, Note_on_c, 0, 51, 52
1, 64053, Note_off_c, 0, 55, 61
1, 64069, Note_off_c, 0, 51, 57
1, 64073, Note_on_c, 0, 61, 68
1, 64081, Note_off_c, 0, 63, 64
1, 64121, Note_off_c, 0, 61, 62
1, 64141, Note_on_c, 0, 59, 64
1, 64198, Note_off_c, 0, 59, 56
1, 64225, Note_on_c, 0, 60, 72
1, 64235, Note_on_c, 0, 51, 52
1, 64237, Note_on_c, 0, 56, 62
1, 64255, Note_off_c, 0, 60, 62
1, 64324, Note_off_c, 0, 56, 63
1, 64339, Note_off_c, 0, 51, 62
1, 64456, Note_on_c, 0, 72, 57
1, 64515, Note_off_c, 0, 72, 59
1, 64528, Note_on_c, 0, 70, 66
1, 64587, Note_off_c, 0, 70, 62
1, 64594, Note_on_c, 0, 68, 67
1, 64643, Note_off_c, 0, 68, 65
1, 64673, Note_on_c, 0, 67, 65
1, 64703, Note_off_c, 0, 67, 65
1, 64750, Note_on_c, 0, 65, 66
1, 64809, Note_on_c, 0, 63, 72
1, 64810, Note_off_c, 0, 65, 64
1, 64867, Note_off_c, 0, 63, 63
1, 64884, Note_on_c, 0, 62, 65
1, 64887, Note_on_c, 0, 56, 54
1, 64888, Note_on_c, 0, 46, 55
1, 64893, Note_on_c, 0, 53, 51
1, 64928, Note_off_c, 0, 56, 58
1, 64935, Note_off_c, 0, 62, 60
1, 64939, Note_off_c, 0, 53, 62
1, 64947, Note_on_c, 0, 68, 71
1, 64950, Note_off_c, 0, 46, 60
1, 65021, Note_off_c, 0, 68, 63
1, 65034, Note_on_c, 0, 65, 57
1, 65057, Note_off_c, 0, 65, 66
1, 65117, Note_on_c, 0, 63, 89
1, 65130, Note_on_c, 0, 51, 66
1, 65134, Note_on_c, 0, 55, 62
1, 65178, Note_off_c, 0, 55, 64
1, 65180, Note_off_c, 0, 51, 62
1, 65200, Control_c, 0, 64, 59
1, 65215, Control_c, 0, 64, 68
1, 65230, Control_c, 0, 64, 74
1, 65245, Control_c, 0, 64, 82
1, 65260, Control_c, 0, 64, 86
1, 65275, Control_c, 0, 64, 88
1, 65290, Control_c, 0, 64, 89
1, 65305, Control_c, 0, 64, 90
1, 65319, Control_c, 0, 64, 92
1, 65323, Note_off_c, 0, 63, 61
1, 65334, Control_c, 0, 64, 93
1, 65349, Control_c, 0, 64, 94
1, 65363, Control_c, 0, 64, 94
1, 65400, Control_c, 0, 64, 95
1, 65430, Control_c, 0, 64, 95
1, 65549, Control_c, 0, 64, 94
1, 65563, Control_c, 0, 64, 85
1, 65578, Control_c, 0, 64, 71
1, 65593, Control_c, 0, 64, 0
1, 65603, Note_on_c, 0, 67, 85
1, 65639, Note_off_c, 0, 67, 62
1, 65842, Note_on_c, 0, 70, 91
1, 65876, Note_off_c, 0, 70, 66
1, 66080, Note_on_c, 0, 75, 88
1, 66081, Note_on_c, 0, 51, 90
1, 66085, Note_on_c, 0, 39, 74
1, 66112, Control_c, 0, 64, 64
1, 66127, Control_c, 0, 64, 73
1, 66128, Note_off_c, 0, 75, 65
1, 66138, Note_off_c, 0, 39, 63
1, 66139, Note_off_c, 0, 51, 64
1, 66149, Control_c, 0, 64, 83
1, 66164, Control_c, 0, 64, 88
1, 66179, Control_c, 0, 64, 89
1, 66193, Control_c, 0, 64, 90
1, 66208, Control_c, 0, 64, 92
1, 66223, Control_c, 0, 64, 94
1, 66238, Control_c, 0, 64, 96
1, 66253, Control_c, 0, 64, 97
1, 66267, Control_c, 0, 64, 98
1, 66312, Control_c, 0, 64, 99
1, 66327, Control_c, 0, 64, 99
1, 66331, Note_on_c, 0, 79, 82
1, 66357, Control_c, 0, 64, 100
1, 66376, Note_off_c, 0, 79, 61
1, 66416, Control_c, 0, 64, 100
1, 66536, Control_c, 0, 64, 99
1, 66548, Note_on_c, 0, 43, 74
1, 66548, Note_on_c, 0, 55, 82
1, 66551, Control_c, 0, 64, 94
1, 66565, Control_c, 0, 64, 83
1, 66572, Note_off_c, 0, 55, 67
1, 66573, Note_off_c, 0, 43, 64
1, 66580, Control_c, 0, 64, 70
1, 66595, Control_c, 0, 64, 0
1, 66685, Note_on_c, 0, 79, 69
1, 66709, Note_off_c, 0, 79, 67
1, 66761, Note_on_c, 0, 79, 64
1, 66762, Note_on_c, 0, 58, 79
1, 66769, Note_on_c, 0, 46, 68
1, 66789, Note_off_c, 0, 79, 66
1, 66790, Note_on_c, 0, 80, 71
1, 66791, Note_off_c, 0, 46, 66
1, 66801, Note_off_c, 0, 58, 60
1, 66843, Note_off_c, 0, 80, 64
1, 66848, Note_on_c, 0, 79, 75
1, 66877, Note_off_c, 0, 79, 64
1, 66903, Note_on_c, 0, 77, 67
1, 66932, Note_off_c, 0, 77, 59
1, 66943, Note_on_c, 0, 79, 63
1, 67001, Note_on_c, 0, 63, 66
1, 67002, Note_on_c, 0, 82, 76
1, 67003, Note_on_c, 0, 51, 61
1, 67016, Note_off_c, 0, 79, 62
1, 67042, Note_off_c, 0, 63, 62
1, 67044, Note_off_c, 0, 51, 64
1, 67242, Note_off_c, 0, 82, 63
1, 67247, Note_on_c, 0, 67, 54
1, 67250, Note_on_c, 0, 75, 60
1, 67260, Note_on_c, 0, 55, 45
1, 67310, Note_off_c, 0, 75, 64
1, 67321, Note_off_c, 0, 67, 63
1, 67326, Note_off_c, 0, 55, 58
1, 67504, Note_on_c, 0, 75, 59
1, 67549, Note_off_c, 0, 75, 61
1, 67767, Note_on_c, 0, 75, 55
1, 67807, Note_off_c, 0, 75, 65
1, 68124, Note_on_c, 0, 80, 52
1, 68132, Note_on_c, 0, 62, 33
1, 68145, Note_on_c, 0, 55, 28
1, 68149, Note_on_c, 0, 65, 29
1, 68410, Note_on_c, 0, 71, 45
1, 68416, Note_off_c, 0, 80, 62
1, 68449, Note_off_c, 0, 71, 49
1, 68586, Note_off_c, 0, 65, 49
1, 68600, Note_off_c, 0, 55, 42
1, 68605, Note_off_c, 0, 62, 42
1, 68710, Note_on_c, 0, 71, 42
1, 68811, Note_off_c, 0, 71, 50
1, 69627, Note_on_c, 0, 60, 94
1, 69634, Note_on_c, 0, 48, 92
1, 69639, Note_on_c, 0, 36, 76
1, 69678, Control_c, 0, 64, 65
1, 69692, Control_c, 0, 64, 75
1, 69708, Control_c, 0, 64, 88
1, 69723, Control_c, 0, 64, 98
1, 69738, Control_c, 0, 64, 106
1, 69752, Control_c, 0, 64, 116
1, 69758, Note_off_c, 0, 36, 62
1, 69766, Note_off_c, 0, 48, 63
1, 69767, Control_c, 0, 64, 127
1, 69785, Note_off_c, 0, 60, 62
1, 70071, Control_c, 0, 64, 106
1, 70086, Control_c, 0, 64, 88
1, 70089, Note_on_c, 0, 64, 88
1, 70095, Note_on_c, 0, 52, 89
1, 70101, Note_on_c, 0, 40, 73
1, 70101, Control_c, 0, 64, 70
1, 70116, Control_c, 0, 64, 0
1, 70124, Note_off_c, 0, 52, 64
1, 70125, Note_off_c, 0, 64, 61
1, 70127, Note_off_c, 0, 40, 66
1, 70318, Note_on_c, 0, 67, 91
1, 70325, Note_on_c, 0, 55, 92
1, 70333, Note_on_c, 0, 43, 71
1, 70354, Note_off_c, 0, 67, 65
1, 70358, Note_off_c, 0, 43, 62
1, 70361, Note_off_c, 0, 55, 65
1, 70560, Note_on_c, 0, 72, 96
1, 70562, Note_on_c, 0, 60, 91
1, 70565, Note_on_c, 0, 48, 76
1, 70593, Note_off_c, 0, 48, 65
1, 70605, Note_off_c, 0, 72, 65
1, 70611, Note_off_c, 0, 60, 60
1, 70825, Note_on_c, 0, 76, 93
1, 70837, Note_on_c, 0, 64, 85
1, 70843, Note_on_c, 0, 52, 75
1, 70875, Note_off_c, 0, 76, 67
1, 70887, Note_off_c, 0, 52, 68
1, 70892, Note_off_c, 0, 64, 65
1, 71172, Note_on_c, 0, 79, 69
1, 71197, Note_off_c, 0, 79, 68
1, 71248, Note_on_c, 0, 79, 72
1, 71281, Note_off_c, 0, 79, 63
1, 71289, Note_on_c, 0, 80, 71
1, 71341, Note_on_c, 0, 79, 65
1, 71341, Note_off_c, 0, 80, 64
1, 71383, Note_off_c, 0, 79, 64
1, 71397, Note_on_c, 0, 77, 68
1, 71446, Note_off_c, 0, 77, 60
1, 71450, Note_on_c, 0, 79, 70
1, 71502, Note_on_c, 0, 46, 90
1, 71514, Note_on_c, 0, 34, 73
1, 71515, Note_on_c, 0, 82, 76
1, 71523, Note_off_c, 0, 79, 62
1, 71539, Control_c, 0, 64, 64
1, 71554, Control_c, 0, 64, 74
1, 71569, Control_c, 0, 64, 85
1, 71584, Control_c, 0, 64, 91
1, 71585, Note_off_c, 0, 82, 64
1, 71588, Note_on_c, 0, 84, 75
1, 71599, Control_c, 0, 64, 93
1, 71613, Control_c, 0, 64, 95
1, 71628, Control_c, 0, 64, 97
1, 71643, Control_c, 0, 64, 99
1, 71656, Note_off_c, 0, 84, 63
1, 71657, Note_on_c, 0, 85, 75
1, 71658, Control_c, 0, 64, 102
1, 71667, Note_off_c, 0, 34, 64
1, 71673, Control_c, 0, 64, 104
1, 71684, Note_off_c, 0, 46, 62
1, 71687, Control_c, 0, 64, 105
1, 71702, Control_c, 0, 64, 106
1, 71709, Note_off_c, 0, 85, 63
1, 71717, Control_c, 0, 64, 106
1, 71722, Note_on_c, 0, 84, 77
1, 71731, Control_c, 0, 64, 107
1, 71746, Control_c, 0, 64, 107
1, 71798, Note_on_c, 0, 82, 85
1, 71815, Note_off_c, 0, 84, 62
1, 71863, Note_on_c, 0, 80, 76
1, 71872, Note_off_c, 0, 82, 64
1, 71910, Control_c, 0, 64, 106
1, 71924, Control_c, 0, 64, 97
1, 71930, Note_off_c, 0, 80, 65
1, 71931, Note_on_c, 0, 52, 87
1, 71934, Note_on_c, 0, 79, 77
1, 71937, Note_on_c, 0, 40, 74
1, 71939, Control_c, 0, 64, 84
1, 71954, Control_c, 0, 64, 70
1, 71959, Note_off_c, 0, 52, 67
1, 71963, Note_off_c, 0, 40, 66
1, 71969, Control_c, 0, 64, 0
1, 71975, Note_off_c, 0, 79, 54
1, 71995, Note_on_c, 0, 80, 75
1, 72056, Note_off_c, 0, 80, 65
1, 72063, Note_on_c, 0, 82, 78
1, 72144, Note_on_c, 0, 80, 78
1, 72158, Note_off_c, 0, 82, 62
1, 72159, Note_on_c, 0, 55, 91
1, 72164, Note_on_c, 0, 43, 73
1, 72190, Note_off_c, 0, 43, 64
1, 72193, Note_off_c, 0, 55, 66
1, 72211, Note_off_c, 0, 80, 65
1, 72218, Note_on_c, 0, 79, 72
1, 72256, Note_off_c, 0, 79, 62
1, 72292, Note_on_c, 0, 77, 79
1, 72376, Note_on_c, 0, 76, 79
1, 72377, Note_off_c, 0, 77, 56
1, 72379, Note_on_c, 0, 58, 90
1, 72387, Note_on_c, 0, 46, 72
1, 72419, Note_off_c, 0, 46, 64
1, 72420, Note_off_c, 0, 58, 65
1, 72426, Note_off_c, 0, 76, 65
1, 72440, Note_on_c, 0, 79, 75
1, 72510, Note_off_c, 0, 79, 61
1, 72515, Note_on_c, 0, 76, 72
1, 72585, Note_off_c, 0, 76, 65
1, 72588, Note_on_c, 0, 73, 73
1, 72606, Note_on_c, 0, 61, 79
1, 72609, Note_on_c, 0, 49, 68
1, 72640, Note_off_c, 0, 61, 64
1, 72644, Note_off_c, 0, 49, 64
1, 72649, Note_off_c, 0, 73, 62
1, 72659, Note_on_c, 0, 76, 62
1, 72718, Note_off_c, 0, 76, 63
1, 72721, Note_on_c, 0, 73, 67
1, 72793, Note_off_c, 0, 73, 62
1, 72806, Note_on_c, 0, 70, 69
1, 72807, Control_c, 0, 67, 12
1, 72822, Control_c, 0, 67, 26
1, 72836, Control_c, 0, 67, 58
1, 72851, Control_c, 0, 67, 104
1, 72852, Note_off_c, 0, 70, 61
1, 72863, Note_on_c, 0, 73, 60
1, 72866, Control_c, 0, 67, 127
1, 72942, Note_on_c, 0, 70, 67
1, 72954, Note_off_c, 0, 73, 62
1, 72995, Note_off_c, 0, 70, 60
1, 73019, Note_on_c, 0, 67, 62
1, 73061, Note_off_c, 0, 67, 57
1, 73093, Note_on_c, 0, 70, 59
1, 73129, Note_off_c, 0, 70, 63
1, 73161, Note_on_c, 0, 67, 49
1, 73192, Note_off_c, 0, 67, 57
1, 73293, Note_on_c, 0, 53, 42
1, 73293, Note_on_c, 0, 68, 59
1, 73363, Control_c, 0, 64, 57
1, 73377, Control_c, 0, 64, 65
1, 73392, Control_c, 0, 64, 67
1, 73407, Control_c, 0, 64, 69
1, 73411, Note_on_c, 0, 60, 50
1, 73422, Control_c, 0, 64, 72
1, 73437, Control_c, 0, 64, 75
1, 73451, Control_c, 0, 64, 77
1, 73466, Control_c, 0, 64, 78
1, 73481, Control_c, 0, 64, 78
1, 73489, Note_off_c, 0, 60, 43
1, 73496, Control_c, 0, 64, 79
1, 73525, Note_off_c, 0, 68, 63
1, 73529, Note_on_c, 0, 56, 47
1, 73538, Note_off_c, 0, 53, 21
1, 73574, Note_on_c, 0, 70, 58
1, 73606, Note_off_c, 0, 56, 47
1, 73611, Note_off_c, 0, 70, 64
1, 73636, Note_on_c, 0, 68, 67
1, 73638, Note_on_c, 0, 60, 48
1, 73651, Note_off_c, 0, 68, 69
1, 73664, Note_on_c, 0, 67, 65
1, 73699, Note_off_c, 0, 67, 60
1, 73712, Note_on_c, 0, 68, 73
1, 73734, Note_off_c, 0, 60, 49
1, 73742, Control_c, 0, 64, 78
1, 73756, Control_c, 0, 64, 75
1, 73770, Note_on_c, 0, 55, 51
1, 73771, Control_c, 0, 64, 69
1, 73772, Note_on_c, 0, 70, 69
1, 73775, Note_off_c, 0, 68, 62
1, 73786, Control_c, 0, 64, 40
1, 73800, Control_c, 0, 64, 0
1, 73873, Note_off_c, 0, 55, 61
1, 73890, Note_on_c, 0, 60, 49
1, 73984, Note_off_c, 0, 60, 49
1, 74021, Note_on_c, 0, 58, 52
1, 74023, Note_on_c, 0, 64, 65
1, 74074, Note_off_c, 0, 58, 56
1, 74081, Note_off_c, 0, 64, 63
1, 74086, Note_off_c, 0, 70, 23
1, 74122, Note_on_c, 0, 60, 47
1, 74206, Note_off_c, 0, 60, 53
1, 74239, Note_on_c, 0, 65, 63
1, 74253, Note_on_c, 0, 56, 49
1, 74268, Note_off_c, 0, 65, 68
1, 74302, Note_off_c, 0, 56, 59
1, 74349, Note_on_c, 0, 60, 45
1, 74351, Note_on_c, 0, 68, 66
1, 74385, Note_off_c, 0, 68, 68
1, 74445, Note_off_c, 0, 60, 51
1, 74486, Note_on_c, 0, 72, 77
1, 74496, Note_on_c, 0, 53, 44
1, 74563, Note_off_c, 0, 53, 60
1, 74596, Note_on_c, 0, 60, 48
1, 74673, Note_off_c, 0, 60, 57
1, 74724, Note_on_c, 0, 52, 57
1, 74775, Note_off_c, 0, 52, 63
1, 74811, Note_on_c, 0, 71, 66
1, 74824, Note_on_c, 0, 60, 51
1, 74840, Note_off_c, 0, 72, 59
1, 74878, Note_off_c, 0, 60, 56
1, 74932, Note_on_c, 0, 70, 70
1, 74941, Note_on_c, 0, 48, 58
1, 74953, Note_off_c, 0, 71, 54
1, 74975, Note_off_c, 0, 48, 63
1, 75001, Note_off_c, 0, 70, 53
1, 75028, Note_on_c, 0, 67, 71
1, 75035, Note_on_c, 0, 60, 49
1, 75092, Note_off_c, 0, 60, 50
1, 75168, Note_off_c, 0, 67, 47
1, 75176, Note_on_c, 0, 53, 50
1, 75189, Note_on_c, 0, 68, 70
1, 75237, Control_c, 0, 64, 52
1, 75252, Control_c, 0, 64, 62
1, 75267, Control_c, 0, 64, 63
1, 75274, Note_off_c, 0, 53, 49
1, 75293, Note_on_c, 0, 60, 50
1, 75297, Control_c, 0, 64, 64
1, 75313, Control_c, 0, 64, 65
1, 75327, Control_c, 0, 64, 66
1, 75353, Note_off_c, 0, 60, 50
1, 75411, Note_on_c, 0, 56, 47
1, 75419, Note_off_c, 0, 68, 60
1, 75461, Note_on_c, 0, 70, 57
1, 75463, Note_off_c, 0, 56, 60
1, 75500, Note_on_c, 0, 60, 53
1, 75501, Note_off_c, 0, 70, 64
1, 75505, Control_c, 0, 64, 65
1, 75519, Note_on_c, 0, 68, 70
1, 75544, Note_off_c, 0, 68, 67
1, 75551, Note_on_c, 0, 67, 69
1, 75565, Control_c, 0, 64, 65
1, 75578, Note_off_c, 0, 67, 66
1, 75579, Control_c, 0, 64, 61
1, 75593, Note_on_c, 0, 68, 70
1, 75594, Control_c, 0, 64, 10
1, 75598, Note_off_c, 0, 60, 56
1, 75609, Control_c, 0, 64, 0
1, 75625, Note_on_c, 0, 55, 51
1, 75642, Note_on_c, 0, 70, 76
1, 75664, Note_off_c, 0, 68, 64
1, 75722, Note_off_c, 0, 55, 50
1, 75738, Note_on_c, 0, 60, 55
1, 75839, Note_off_c, 0, 60, 53
1, 75884, Note_on_c, 0, 58, 55
1, 75884, Note_off_c, 0, 70, 47
1, 75887, Note_on_c, 0, 64, 67
1, 75947, Note_off_c, 0, 64, 62
1, 75954, Note_off_c, 0, 58, 59
1, 75984, Note_on_c, 0, 60, 55
1, 76074, Note_off_c, 0, 60, 55
1, 76094, Note_on_c, 0, 65, 66
1, 76104, Note_on_c, 0, 56, 55
1, 76149, Note_off_c, 0, 65, 61
1, 76155, Note_off_c, 0, 56, 60
1, 76200, Note_on_c, 0, 60, 58
1, 76201, Note_on_c, 0, 77, 68
1, 76271, Note_off_c, 0, 60, 54
1, 76325, Note_on_c, 0, 75, 70
1, 76325, Note_off_c, 0, 77, 52
1, 76328, Note_on_c, 0, 53, 53
1, 76398, Note_off_c, 0, 53, 60
1, 76417, Control_c, 0, 67, 122
1, 76431, Note_on_c, 0, 73, 70
1, 76432, Control_c, 0, 67, 110
1, 76435, Note_on_c, 0, 60, 51
1, 76447, Control_c, 0, 67, 96
1, 76462, Control_c, 0, 67, 86
1, 76464, Note_off_c, 0, 75, 49
1, 76476, Control_c, 0, 67, 77
1, 76491, Control_c, 0, 67, 68
1, 76506, Control_c, 0, 67, 61
1, 76516, Note_off_c, 0, 60, 57
1, 76520, Control_c, 0, 67, 55
1, 76535, Control_c, 0, 67, 50
1, 76546, Note_on_c, 0, 72, 73
1, 76549, Note_off_c, 0, 73, 60
1, 76550, Control_c, 0, 67, 44
1, 76558, Note_on_c, 0, 52, 54
1, 76565, Control_c, 0, 67, 39
1, 76580, Control_c, 0, 67, 34
1, 76594, Control_c, 0, 67, 29
1, 76602, Note_off_c, 0, 52, 63
1, 76609, Control_c, 0, 67, 23
1, 76629, Note_off_c, 0, 72, 59
1, 76632, Control_c, 0, 67, 20
1, 76647, Control_c, 0, 67, 17
1, 76654, Note_on_c, 0, 60, 56
1, 76660, Note_on_c, 0, 71, 66
1, 76662, Control_c, 0, 67, 15
1, 76676, Control_c, 0, 67, 15
1, 76721, Note_off_c, 0, 71, 61
1, 76724, Note_off_c, 0, 60, 59
1, 76775, Note_on_c, 0, 48, 61
1, 76777, Note_on_c, 0, 70, 71
1, 76814, Note_off_c, 0, 48, 66
1, 76850, Note_off_c, 0, 70, 55
1, 76860, Note_on_c, 0, 67, 72
1, 76862, Note_on_c, 0, 60, 59
1, 76914, Control_c, 0, 67, 15
1, 76921, Note_off_c, 0, 67, 61
1, 76925, Note_off_c, 0, 60, 52
1, 76958, Control_c, 0, 67, 16
1, 76986, Note_on_c, 0, 53, 65
1, 76988, Note_on_c, 0, 68, 87
1, 76988, Control_c, 0, 67, 17
1, 77017, Control_c, 0, 67, 17
1, 77047, Control_c, 0, 64, 62
1, 77052, Note_on_c, 0, 56, 68
1, 77058, Note_off_c, 0, 53, 62
1, 77062, Control_c, 0, 64, 73
1, 77077, Control_c, 0, 64, 82
1, 77091, Control_c, 0, 64, 89
1, 77091, Control_c, 0, 67, 17
1, 77106, Control_c, 0, 64, 91
1, 77112, Note_off_c, 0, 56, 64
1, 77121, Control_c, 0, 64, 92
1, 77136, Control_c, 0, 64, 93
1, 77136, Control_c, 0, 67, 16
1, 77147, Note_on_c, 0, 60, 67
1, 77151, Control_c, 0, 64, 93
1, 77164, Note_off_c, 0, 68, 61
1, 77166, Control_c, 0, 64, 94
1, 77195, Control_c, 0, 64, 94
1, 77208, Note_off_c, 0, 60, 58
1, 77217, Note_on_c, 0, 58, 75
1, 77283, Note_on_c, 0, 56, 70
1, 77313, Note_off_c, 0, 58, 62
1, 77329, Control_c, 0, 67, 17
1, 77374, Note_on_c, 0, 55, 68
1, 77392, Note_off_c, 0, 56, 62
1, 77395, Control_c, 0, 64, 92
1, 77395, Control_c, 0, 67, 17
1, 77410, Control_c, 0, 64, 85
1, 77410, Control_c, 0, 67, 18
1, 77425, Control_c, 0, 64, 71
1, 77425, Control_c, 0, 67, 19
1, 77428, Note_off_c, 0, 55, 65
1, 77429, Note_on_c, 0, 72, 87
1, 77430, Note_on_c, 0, 53, 76
1, 77440, Control_c, 0, 64, 24
1, 77440, Control_c, 0, 67, 19
1, 77455, Control_c, 0, 64, 0
1, 77455, Control_c, 0, 67, 20
1, 77471, Note_off_c, 0, 72, 63
1, 77484, Control_c, 0, 67, 20
1, 77508, Note_on_c, 0, 56, 71
1, 77511, Note_off_c, 0, 53, 64
1, 77563, Note_off_c, 0, 56, 62
1, 77579, Note_on_c, 0, 60, 67
1, 77632, Note_off_c, 0, 60, 51
1, 77654, Note_on_c, 0, 58, 75
1, 77663, Note_on_c, 0, 77, 92
1, 77676, Control_c, 0, 67, 20
1, 77703, Note_off_c, 0, 77, 62
1, 77720, Note_on_c, 0, 56, 70
1, 77751, Note_off_c, 0, 58, 63
1, 77803, Note_on_c, 0, 55, 72
1, 77818, Note_off_c, 0, 56, 62
1, 77876, Note_off_c, 0, 55, 62
1, 77880, Note_on_c, 0, 53, 72
1, 77887, Note_on_c, 0, 80, 90
1, 77932, Note_off_c, 0, 80, 64
1, 77939, Note_on_c, 0, 56, 69
1, 77961, Note_off_c, 0, 53, 63
1, 78007, Note_off_c, 0, 56, 63
1, 78024, Note_on_c, 0, 60, 70
1, 78078, Control_c, 0, 67, 19
1, 78090, Note_off_c, 0, 60, 59
1, 78104, Note_on_c, 0, 58, 72
1, 78106, Note_on_c, 0, 84, 85
1, 78167, Note_off_c, 0, 84, 64
1, 78174, Note_on_c, 0, 56, 73
1, 78179, Note_off_c, 0, 58, 65
1, 78226, Note_off_c, 0, 56, 64
1, 78263, Note_on_c, 0, 55, 73
1, 78263, Control_c, 0, 67, 20
1, 78331, Note_off_c, 0, 55, 60
1, 78334, Note_on_c, 0, 53, 80
1, 78378, Note_off_c, 0, 53, 65
1, 78405, Note_on_c, 0, 55, 71
1, 78471, Note_off_c, 0, 55, 63
1, 78475, Note_on_c, 0, 53, 76
1, 78545, Note_off_c, 0, 53, 66
1, 78549, Note_on_c, 0, 51, 73
1, 78600, Note_off_c, 0, 51, 62
1, 78606, Note_on_c, 0, 53, 74
1, 78664, Note_on_c, 0, 51, 61
1, 78668, Note_off_c, 0, 53, 66
1, 78688, Note_off_c, 0, 51, 66
1, 78773, Note_on_c, 0, 84, 85
1, 78777, Note_on_c, 0, 50, 86
1, 78787, Note_on_c, 0, 38, 74
1, 78796, Control_c, 0, 64, 59
1, 78811, Control_c, 0, 64, 72
1, 78811, Control_c, 0, 67, 19
1, 78826, Control_c, 0, 64, 84
1, 78826, Control_c, 0, 67, 19
1, 78841, Note_on_c, 0, 86, 84
1, 78841, Control_c, 0, 64, 93
1, 78850, Note_off_c, 0, 38, 60
1, 78854, Note_off_c, 0, 84, 56
1, 78856, Control_c, 0, 64, 97
1, 78856, Control_c, 0, 67, 18
1, 78874, Note_off_c, 0, 50, 58
1, 78878, Control_c, 0, 64, 99
1, 78878, Control_c, 0, 67, 18
1, 78893, Control_c, 0, 64, 101
1, 78908, Control_c, 0, 64, 103
1, 78908, Control_c, 0, 67, 17
1, 78912, Note_off_c, 0, 86, 62
1, 78922, Control_c, 0, 64, 105
1, 78924, Note_on_c, 0, 87, 71
1, 78937, Control_c, 0, 64, 106
1, 78937, Control_c, 0, 67, 18
1, 78952, Control_c, 0, 64, 107
1, 78967, Control_c, 0, 64, 108
1, 78982, Control_c, 0, 64, 108
1, 78982, Control_c, 0, 67, 18
1, 78990, Note_on_c, 0, 86, 75
1, 78996, Control_c, 0, 64, 109
1, 78997, Note_off_c, 0, 87, 62
1, 79011, Control_c, 0, 64, 109
1, 79026, Control_c, 0, 64, 110
1, 79054, Note_off_c, 0, 86, 61
1, 79056, Control_c, 0, 67, 18
1, 79064, Note_on_c, 0, 84, 73
1, 79112, Note_off_c, 0, 84, 65
1, 79149, Note_on_c, 0, 82, 79
1, 79175, Control_c, 0, 67, 18
1, 79190, Control_c, 0, 64, 109
1, 79190, Control_c, 0, 67, 19
1, 79204, Control_c, 0, 64, 105
1, 79204, Control_c, 0, 67, 20
1, 79217, Note_on_c, 0, 54, 86
1, 79219, Note_on_c, 0, 42, 76
1, 79219, Control_c, 0, 64, 94
1, 79219, Control_c, 0, 67, 20
1, 79221, Note_on_c, 0, 81, 84
1, 79222, Note_off_c, 0, 82, 63
1, 79234, Control_c, 0, 64, 81
1, 79234, Control_c, 0, 67, 21
1, 79244, Note_off_c, 0, 42, 67
1, 79248, Control_c, 0, 64, 63
1, 79251, Note_off_c, 0, 54, 64
1, 79263, Control_c, 0, 64, 0
1, 79285, Note_off_c, 0, 81, 54
1, 79291, Note_on_c, 0, 82, 78
1, 79339, Control_c, 0, 67, 20
1, 79351, Note_off_c, 0, 82, 64
1, 79361, Note_on_c, 0, 84, 74
1, 79368, Control_c, 0, 67, 20
1, 79427, Control_c, 0, 67, 20
1, 79442, Control_c, 0, 67, 21
1, 79444, Note_on_c, 0, 82, 86
1, 79446, Note_on_c, 0, 57, 93
1, 79451, Note_on_c, 0, 45, 73
1, 79467, Note_off_c, 0, 84, 63
1, 79476, Note_off_c, 0, 45, 67
1, 79482, Note_off_c, 0, 57, 60
1, 79516, Note_on_c, 0, 81, 81
1, 79524, Note_off_c, 0, 82, 64
1, 79545, Control_c, 0, 67, 20
1, 79574, Note_off_c, 0, 81, 63
1, 79584, Note_on_c, 0, 79, 70
1, 79640, Note_off_c, 0, 79, 63
1, 79672, Control_c, 0, 67, 20
1, 79680, Note_on_c, 0, 78, 84
1, 79683, Note_on_c, 0, 62, 94
1, 79687, Note_on_c, 0, 50, 77
1, 79711, Note_off_c, 0, 50, 66
1, 79725, Note_off_c, 0, 62, 61
1, 79731, Control_c, 0, 67, 20
1, 79742, Note_off_c, 0, 78, 64
1, 79745, Note_on_c, 0, 81, 77
1, 79815, Note_on_c, 0, 78, 77
1, 79825, Note_off_c, 0, 81, 53
1, 79893, Control_c, 0, 67, 20
1, 79898, Note_on_c, 0, 75, 80
1, 79905, Note_off_c, 0, 78, 64
1, 79909, Note_on_c, 0, 66, 87
1, 79914, Note_on_c, 0, 54, 67
1, 79941, Note_off_c, 0, 66, 63
1, 79947, Note_off_c, 0, 54, 64
1, 79960, Note_off_c, 0, 75, 62
1, 79965, Note_on_c, 0, 81, 77
1, 80030, Note_on_c, 0, 75, 71
1, 80049, Note_off_c, 0, 81, 52
1, 80101, Note_off_c, 0, 75, 62
1, 80121, Note_on_c, 0, 74, 76
1, 80173, Note_off_c, 0, 74, 64
1, 80185, Note_on_c, 0, 81, 79
1, 80191, Control_c, 0, 67, 19
1, 80230, Note_off_c, 0, 81, 59
1, 80250, Control_c, 0, 67, 20
1, 80257, Note_on_c, 0, 74, 78
1, 80331, Note_off_c, 0, 74, 57
1, 80334, Note_on_c, 0, 72, 78
1, 80373, Note_off_c, 0, 72, 61
1, 80397, Note_on_c, 0, 81, 82
1, 80406, Control_c, 0, 67, 19
1, 80450, Note_off_c, 0, 81, 52
1, 80463, Note_on_c, 0, 72, 82
1, 80494, Control_c, 0, 67, 20
1, 80509, Control_c, 0, 67, 20
1, 80524, Control_c, 0, 67, 21
1, 80547, Note_on_c, 0, 55, 52
1, 80554, Note_on_c, 0, 70, 88
1, 80570, Note_off_c, 0, 72, 62
1, 80612, Note_on_c, 0, 58, 66
1, 80628, Control_c, 0, 64, 67
1, 80629, Note_off_c, 0, 55, 60
1, 80642, Control_c, 0, 64, 78
1, 80642, Control_c, 0, 67, 20
1, 80657, Control_c, 0, 64, 88
1, 80657, Control_c, 0, 67, 20
1, 80668, Note_off_c, 0, 58, 64
1, 80672, Control_c, 0, 64, 92
1, 80686, Control_c, 0, 64, 93
1, 80690, Note_on_c, 0, 62, 71
1, 80701, Control_c, 0, 64, 94
1, 80701, Control_c, 0, 67, 19
1, 80716, Control_c, 0, 64, 96
1, 80716, Control_c, 0, 67, 19
1, 80717, Note_off_c, 0, 70, 57
1, 80731, Control_c, 0, 64, 97
1, 80746, Control_c, 0, 64, 98
1, 80753, Note_off_c, 0, 62, 60
1, 80761, Control_c, 0, 64, 98
1, 80764, Note_on_c, 0, 60, 70
1, 80805, Control_c, 0, 67, 18
1, 80820, Note_on_c, 0, 58, 69
1, 80848, Note_off_c, 0, 60, 61
1, 80895, Note_on_c, 0, 57, 75
1, 80919, Note_off_c, 0, 58, 63
1, 80960, Note_off_c, 0, 57, 62
1, 80968, Note_on_c, 0, 55, 70
1, 80969, Control_c, 0, 64, 97
1, 80969, Control_c, 0, 67, 19
1, 80984, Control_c, 0, 64, 91
1, 80984, Control_c, 0, 67, 20
1, 80993, Note_on_c, 0, 74, 77
1, 80999, Control_c, 0, 64, 79
1, 80999, Control_c, 0, 67, 21
1, 81014, Control_c, 0, 64, 65
1, 81023, Note_off_c, 0, 74, 67
1, 81029, Control_c, 0, 64, 0
1, 81029, Control_c, 0, 67, 21
1, 81034, Note_on_c, 0, 58, 74
1, 81044, Note_off_c, 0, 55, 61
1, 81085, Note_off_c, 0, 58, 65
1, 81088, Control_c, 0, 67, 22
1, 81118, Note_on_c, 0, 62, 70
1, 81169, Control_c, 0, 67, 21
1, 81184, Control_c, 0, 67, 21
1, 81191, Note_off_c, 0, 62, 60
1, 81200, Note_on_c, 0, 60, 70
1, 81213, Note_on_c, 0, 79, 81
1, 81229, Control_c, 0, 67, 20
1, 81248, Note_off_c, 0, 79, 57
1, 81256, Note_on_c, 0, 58, 70
1, 81278, Note_off_c, 0, 60, 59
1, 81339, Note_on_c, 0, 57, 65
1, 81360, Note_off_c, 0, 58, 63
1, 81419, Note_off_c, 0, 57, 62
1, 81423, Note_on_c, 0, 55, 69
1, 81431, Note_on_c, 0, 82, 87
1, 81479, Note_off_c, 0, 82, 63
1, 81488, Note_on_c, 0, 58, 69
1, 81502, Note_off_c, 0, 55, 61
1, 81549, Note_off_c, 0, 58, 65
1, 81576, Note_on_c, 0, 62, 70
1, 81599, Control_c, 0, 67, 20
1, 81639, Note_off_c, 0, 62, 54
1, 81655, Note_on_c, 0, 60, 71
1, 81660, Note_on_c, 0, 86, 82
1, 81697, Note_off_c, 0, 86, 65
1, 81723, Note_on_c, 0, 58, 67
1, 81735, Note_off_c, 0, 60, 55
1, 81802, Note_on_c, 0, 57, 68
1, 81810, Note_off_c, 0, 58, 61
1, 81888, Note_off_c, 0, 57, 60
1, 81893, Note_on_c, 0, 55, 68
1, 81934, Control_c, 0, 67, 19
1, 81943, Note_on_c, 0, 58, 68
1, 81962, Note_off_c, 0, 55, 61
1, 82001, Note_off_c, 0, 58, 65
1, 82039, Note_on_c, 0, 62, 65
1, 82066, Control_c, 0, 67, 19
1, 82087, Note_off_c, 0, 62, 54
1, 82096, Control_c, 0, 67, 18
1, 82108, Note_on_c, 0, 55, 64
1, 82126, Control_c, 0, 67, 18
1, 82155, Control_c, 0, 67, 17
1, 82175, Note_on_c, 0, 58, 61
1, 82185, Note_off_c, 0, 55, 62
1, 82185, Control_c, 0, 67, 17
1, 82222, Note_off_c, 0, 58, 63
1, 82229, Control_c, 0, 67, 16
1, 82248, Note_on_c, 0, 62, 60
1, 82290, Note_off_c, 0, 62, 60
1, 82335, Note_on_c, 0, 71, 84
1, 82337, Note_on_c, 0, 53, 65
1, 82406, Control_c, 0, 64, 64
1, 82411, Note_off_c, 0, 53, 63
1, 82415, Note_on_c, 0, 59, 57
1, 82421, Control_c, 0, 64, 73
1, 82436, Control_c, 0, 64, 81
1, 82451, Control_c, 0, 64, 86
1, 82454, Note_off_c, 0, 59, 61
1, 82466, Control_c, 0, 64, 88
1, 82482, Control_c, 0, 64, 89
1, 82484, Note_on_c, 0, 62, 65
1, 82497, Control_c, 0, 64, 90
1, 82511, Control_c, 0, 64, 92
1, 82526, Control_c, 0, 64, 93
1, 82532, Note_off_c, 0, 62, 56
1, 82532, Note_off_c, 0, 71, 52
1, 82541, Control_c, 0, 64, 94
1, 82541, Control_c, 0, 67, 17
1, 82555, Control_c, 0, 64, 95
1, 82568, Note_on_c, 0, 55, 68
1, 82657, Note_on_c, 0, 59, 62
1, 82662, Note_off_c, 0, 55, 64
1, 82682, Control_c, 0, 67, 17
1, 82699, Note_off_c, 0, 59, 60
1, 82716, Note_on_c, 0, 62, 60
1, 82763, Note_off_c, 0, 62, 56
1, 82770, Control_c, 0, 67, 18
1, 82785, Control_c, 0, 67, 18
1, 82799, Note_on_c, 0, 56, 70
1, 82800, Control_c, 0, 64, 93
1, 82800, Control_c, 0, 67, 19
1, 82808, Note_on_c, 0, 74, 87
1, 82815, Control_c, 0, 64, 86
1, 82815, Control_c, 0, 67, 20
1, 82830, Control_c, 0, 64, 75
1, 82830, Control_c, 0, 67, 20
1, 82844, Control_c, 0, 64, 55
1, 82846, Note_off_c, 0, 74, 66
1, 82859, Control_c, 0, 64, 0
1, 82859, Control_c, 0, 67, 21
1, 82886, Note_off_c, 0, 56, 62
1, 82886, Note_on_c, 0, 59, 59
1, 82931, Note_off_c, 0, 59, 61
1, 82946, Note_on_c, 0, 62, 63
1, 83006, Note_off_c, 0, 62, 57
1, 83008, Control_c, 0, 67, 20
1, 83033, Note_on_c, 0, 77, 90
1, 83036, Note_on_c, 0, 55, 69
1, 83076, Note_off_c, 0, 77, 62
1, 83115, Note_on_c, 0, 59, 67
1, 83125, Note_off_c, 0, 55, 64
1, 83175, Note_off_c, 0, 59, 61
1, 83188, Note_on_c, 0, 62, 60
1, 83230, Control_c, 0, 67, 20
1, 83241, Note_off_c, 0, 62, 55
1, 83264, Note_on_c, 0, 83, 98
1, 83268, Note_on_c, 0, 53, 73
1, 83300, Note_off_c, 0, 83, 62
1, 83350, Note_on_c, 0, 59, 68
1, 83355, Note_off_c, 0, 53, 65
1, 83417, Note_off_c, 0, 59, 61
1, 83433, Note_on_c, 0, 62, 58
1, 83494, Note_off_c, 0, 62, 56
1, 83513, Note_on_c, 0, 55, 70
1, 83515, Note_on_c, 0, 86, 95
1, 83560, Note_off_c, 0, 86, 66
1, 83603, Note_on_c, 0, 59, 60
1, 83607, Note_off_c, 0, 55, 64
1, 83643, Note_off_c, 0, 59, 62
1, 83664, Note_on_c, 0, 62, 53
1, 83667, Control_c, 0, 67, 20
1, 83700, Note_off_c, 0, 62, 62
1, 83734, Note_on_c, 0, 56, 70
1, 83813, Note_on_c, 0, 59, 64
1, 83823, Note_off_c, 0, 56, 62
1, 83865, Note_off_c, 0, 59, 62
1, 83880, Note_on_c, 0, 62, 60
1, 83924, Note_off_c, 0, 62, 59
1, 83944, Note_on_c, 0, 53, 66
1, 83949, Control_c, 0, 67, 20
1, 84019, Note_on_c, 0, 59, 67
1, 84024, Note_off_c, 0, 53, 64
1, 84056, Note_off_c, 0, 59, 64
1, 84081, Note_on_c, 0, 62, 57
1, 84125, Note_off_c, 0, 62, 63
1, 84135, Control_c, 0, 67, 20
1, 84150, Control_c, 0, 67, 21
1, 84183, Note_on_c, 0, 72, 88
1, 84185, Note_on_c, 0, 51, 57
1, 84224, Control_c, 0, 67, 20
1, 84239, Control_c, 0, 64, 60
1, 84239, Control_c, 0, 67, 20
1, 84248, Note_on_c, 0, 55, 60
1, 84254, Control_c, 0, 64, 72
1, 84254, Control_c, 0, 67, 19
1, 84260, Note_off_c, 0, 51, 58
1, 84269, Control_c, 0, 64, 83
1, 84269, Control_c, 0, 67, 19
1, 84284, Control_c, 0, 64, 91
1, 84297, Note_off_c, 0, 55, 63
1, 84299, Control_c, 0, 64, 93
1, 84314, Control_c, 0, 64, 94
1, 84323, Note_on_c, 0, 60, 64
1, 84329, Control_c, 0, 64, 95
1, 84343, Control_c, 0, 64, 97
1, 84343, Control_c, 0, 67, 18
1, 84344, Note_off_c, 0, 72, 56
1, 84358, Control_c, 0, 64, 98
1, 84363, Note_off_c, 0, 60, 55
1, 84373, Control_c, 0, 64, 99
1, 84388, Control_c, 0, 64, 99
1, 84403, Control_c, 0, 64, 100
1, 84404, Note_on_c, 0, 53, 70
1, 84417, Control_c, 0, 64, 100
1, 84447, Control_c, 0, 64, 101
1, 84472, Note_on_c, 0, 56, 63
1, 84478, Note_off_c, 0, 53, 66
1, 84533, Note_on_c, 0, 60, 63
1, 84536, Note_off_c, 0, 56, 62
1, 84580, Control_c, 0, 67, 19
1, 84584, Note_off_c, 0, 60, 61
1, 84595, Control_c, 0, 67, 19
1, 84609, Control_c, 0, 64, 97
1, 84609, Control_c, 0, 67, 20
1, 84611, Note_on_c, 0, 51, 71
1, 84618, Note_on_c, 0, 75, 94
1, 84624, Control_c, 0, 64, 87
1, 84624, Control_c, 0, 67, 21
1, 84639, Control_c, 0, 64, 74
1, 84639, Control_c, 0, 67, 21
1, 84645, Note_off_c, 0, 75, 68
1, 84654, Control_c, 0, 64, 43
1, 84654, Control_c, 0, 67, 22
1, 84669, Control_c, 0, 64, 0
1, 84679, Note_on_c, 0, 55, 59
1, 84693, Note_off_c, 0, 51, 59
1, 84731, Note_off_c, 0, 55, 65
1, 84755, Note_on_c, 0, 60, 69
1, 84758, Control_c, 0, 67, 21
1, 84788, Control_c, 0, 67, 21
1, 84807, Note_off_c, 0, 60, 58
1, 84832, Control_c, 0, 67, 20
1, 84843, Note_on_c, 0, 50, 72
1, 84844, Note_on_c, 0, 79, 100
1, 84897, Note_off_c, 0, 79, 64
1, 84914, Note_on_c, 0, 53, 63
1, 84930, Note_off_c, 0, 50, 61
1, 84964, Note_off_c, 0, 53, 66
1, 84989, Note_on_c, 0, 60, 62
1, 85029, Note_off_c, 0, 60, 60
1, 85074, Note_on_c, 0, 84, 107
1, 85080, Note_on_c, 0, 51, 68
1, 85104, Note_off_c, 0, 84, 67
1, 85154, Note_on_c, 0, 55, 60
1, 85176, Note_off_c, 0, 51, 60
1, 85226, Control_c, 0, 67, 21
1, 85228, Note_off_c, 0, 55, 62
1, 85231, Note_on_c, 0, 60, 60
1, 85270, Control_c, 0, 67, 20
1, 85303, Note_off_c, 0, 60, 56
1, 85309, Note_on_c, 0, 87, 86
1, 85315, Note_on_c, 0, 50, 69
1, 85324, Note_on_c, 0, 88, 75
1, 85342, Note_off_c, 0, 88, 66
1, 85344, Control_c, 0, 67, 21
1, 85355, Note_off_c, 0, 87, 61
1, 85374, Note_on_c, 0, 53, 60
1, 85392, Note_off_c, 0, 50, 61
1, 85426, Note_off_c, 0, 53, 66
1, 85443, Note_on_c, 0, 60, 63
1, 85486, Note_off_c, 0, 60, 60
1, 85540, Note_on_c, 0, 51, 64
1, 85602, Note_on_c, 0, 55, 58
1, 85633, Note_off_c, 0, 51, 61
1, 85647, Control_c, 0, 67, 20
1, 85662, Control_c, 0, 67, 20
1, 85669, Note_off_c, 0, 55, 63
1, 85682, Note_on_c, 0, 60, 64
1, 85693, Control_c, 0, 67, 19
1, 85714, Note_off_c, 0, 60, 63
1, 85753, Note_on_c, 0, 48, 73
1, 85811, Note_on_c, 0, 51, 67
1, 85825, Control_c, 0, 67, 19
1, 85828, Note_off_c, 0, 48, 63
1, 85866, Note_off_c, 0, 51, 61
1, 85881, Note_on_c, 0, 55, 71
1, 85932, Note_off_c, 0, 55, 62
1, 85972, Note_on_c, 0, 47, 74
1, 85980, Note_on_c, 0, 74, 93
1, 85982, Note_on_c, 0, 62, 90
1, 86053, Note_on_c, 0, 50, 61
1, 86058, Note_off_c, 0, 47, 62
1, 86062, Control_c, 0, 64, 65
1, 86062, Control_c, 0, 67, 18
1, 86077, Control_c, 0, 64, 77
1, 86092, Control_c, 0, 64, 91
1, 86098, Note_off_c, 0, 50, 63
1, 86106, Control_c, 0, 64, 102
1, 86106, Control_c, 0, 67, 18
1, 86121, Control_c, 0, 64, 107
1, 86123, Note_on_c, 0, 55, 72
1, 86136, Control_c, 0, 64, 110
1, 86151, Control_c, 0, 64, 114
1, 86151, Control_c, 0, 67, 17
1, 86165, Note_off_c, 0, 62, 57
1, 86166, Control_c, 0, 64, 119
1, 86166, Control_c, 0, 67, 17
1, 86177, Note_off_c, 0, 55, 63
1, 86180, Control_c, 0, 64, 125
1, 86192, Note_off_c, 0, 74, 62
1, 86195, Control_c, 0, 64, 127
1, 86209, Note_on_c, 0, 48, 76
1, 86210, Control_c, 0, 67, 16
1, 86274, Note_on_c, 0, 50, 70
1, 86287, Note_off_c, 0, 48, 63
1, 86340, Note_off_c, 0, 50, 62
1, 86346, Note_on_c, 0, 55, 66
1, 86366, Control_c, 0, 67, 17
1, 86380, Control_c, 0, 67, 17
1, 86395, Control_c, 0, 64, 126
1, 86409, Note_off_c, 0, 55, 62
1, 86410, Control_c, 0, 64, 108
1, 86410, Control_c, 0, 67, 18
1, 86425, Control_c, 0, 64, 89
1, 86425, Control_c, 0, 67, 18
1, 86433, Note_on_c, 0, 47, 82
1, 86433, Note_on_c, 0, 65, 94
1, 86434, Note_on_c, 0, 77, 93
1, 86439, Control_c, 0, 64, 72
1, 86454, Control_c, 0, 64, 0
1, 86454, Control_c, 0, 67, 19
1, 86465, Note_off_c, 0, 65, 66
1, 86481, Note_off_c, 0, 77, 60
1, 86504, Note_on_c, 0, 50, 69
1, 86522, Note_off_c, 0, 47, 62
1, 86573, Note_off_c, 0, 50, 61
1, 86582, Note_on_c, 0, 55, 66
1, 86636, Note_off_c, 0, 55, 62
1, 86663, Note_on_c, 0, 67, 95
1, 86663, Note_on_c, 0, 79, 97
1, 86665, Note_on_c, 0, 45, 75
1, 86689, Note_off_c, 0, 67, 63
1, 86711, Note_off_c, 0, 79, 60
1, 86736, Note_on_c, 0, 50, 67
1, 86737, Control_c, 0, 67, 19
1, 86752, Note_off_c, 0, 45, 64
1, 86803, Note_off_c, 0, 50, 64
1, 86806, Note_on_c, 0, 55, 67
1, 86881, Note_off_c, 0, 55, 57
1, 86892, Note_on_c, 0, 47, 82
1, 86894, Note_on_c, 0, 74, 91
1, 86894, Note_on_c, 0, 86, 96
1, 86928, Note_off_c, 0, 74, 65
1, 86956, Note_off_c, 0, 86, 63
1, 86974, Note_on_c, 0, 50, 70
1, 86989, Note_off_c, 0, 47, 64
1, 87044, Note_off_c, 0, 50, 63
1, 87050, Note_on_c, 0, 55, 68
1, 87155, Note_off_c, 0, 55, 61
1, 87190, Note_on_c, 0, 89, 95
1, 87191, Note_on_c, 0, 43, 80
1, 87193, Note_on_c, 0, 77, 94
1, 87233, Note_on_c, 0, 88, 28
1, 87234, Note_off_c, 0, 88, 127
1, 87262, Control_c, 0, 67, 20
1, 87277, Control_c, 0, 67, 20
1, 87292, Control_c, 0, 67, 21
1, 87307, Control_c, 0, 67, 22
1, 87322, Control_c, 0, 67, 22
1, 87351, Note_off_c, 0, 77, 58
1, 87352, Control_c, 0, 67, 23
1, 87356, Note_off_c, 0, 43, 61
1, 87365, Note_off_c, 0, 89, 64
1, 87366, Control_c, 0, 67, 24
1, 87381, Control_c, 0, 67, 25
1, 87396, Control_c, 0, 67, 26
1, 87411, Control_c, 0, 67, 30
1, 87426, Control_c, 0, 67, 41
1, 87441, Control_c, 0, 67, 57
1, 87456, Control_c, 0, 67, 75
1, 87471, Control_c, 0, 67, 95
1, 87485, Control_c, 0, 67, 118
1, 87500, Control_c, 0, 67, 127
1, 88082, Note_on_c, 0, 77, 60
1, 88130, Note_off_c, 0, 77, 57
1, 88335, Note_on_c, 0, 80, 64
1, 88390, Note_off_c, 0, 80, 60
1, 88642, Note_on_c, 0, 71, 42
1, 88642, Note_on_c, 0, 62, 42
1, 88881, Note_off_c, 0, 62, 60
1, 88881, Note_off_c, 0, 71, 61
1, 89097, Note_on_c, 0, 74, 56
1, 89151, Note_off_c, 0, 74, 60
1, 89344, Note_on_c, 0, 77, 61
1, 89402, Note_off_c, 0, 77, 58
1, 89625, Note_on_c, 0, 68, 41
1, 89634, Note_on_c, 0, 59, 37
1, 89933, Note_off_c, 0, 68, 62
1, 89933, Note_off_c, 0, 59, 55
1, 90239, Note_on_c, 0, 71, 51
1, 90284, Note_off_c, 0, 71, 57
1, 90478, Note_on_c, 0, 74, 56
1, 90520, Note_off_c, 0, 74, 57
1, 90723, Note_on_c, 0, 62, 57
1, 90762, Note_off_c, 0, 62, 61
1, 91006, Note_on_c, 0, 65, 56
1, 91050, Note_off_c, 0, 65, 65
1, 91468, Note_on_c, 0, 56, 45
1, 91472, Note_on_c, 0, 53, 41
1, 91483, Note_on_c, 0, 50, 27
1, 91495, Note_on_c, 0, 47, 39
1, 91504, Note_on_c, 0, 35, 33
1, 92693, Note_on_c, 0, 55, 36
1, 92747, Note_off_c, 0, 56, 30
1, 93534, Note_off_c, 0, 35, 43
1, 93546, Note_off_c, 0, 53, 42
1, 93547, Note_off_c, 0, 50, 40
1, 93551, Note_off_c, 0, 47, 44
1, 93554, Note_off_c, 0, 55, 40
1, 93653, Control_c, 0, 67, 120
1, 93668, Control_c, 0, 67, 113
1, 93683, Control_c, 0, 67, 106
1, 93698, Control_c, 0, 67, 100
1, 93713, Control_c, 0, 67, 93
1, 93728, Control_c, 0, 67, 85
1, 93742, Control_c, 0, 67, 78
1, 93757, Control_c, 0, 67, 70
1, 93772, Control_c, 0, 67, 65
1, 93787, Control_c, 0, 67, 59
1, 93802, Control_c, 0, 67, 51
1, 93817, Control_c, 0, 67, 43
1, 93832, Control_c, 0, 67, 35
1, 93853, Control_c, 0, 67, 29
1, 93868, Control_c, 0, 67, 26
1, 93883, Control_c, 0, 67, 24
1, 93898, Control_c, 0, 67, 21
1, 93913, Control_c, 0, 67, 17
1, 93927, Control_c, 0, 67, 14
1, 93942, Control_c, 0, 67, 12
1, 93957, Control_c, 0, 67, 11
1, 93972, Control_c, 0, 67, 9
1, 93987, Control_c, 0, 67, 0
1, 94339, Note_on_c, 0, 60, 95
1, 94342, Note_on_c, 0, 48, 92
1, 94351, Note_on_c, 0, 36, 72
1, 94388, Control_c, 0, 64, 46
1, 94402, Control_c, 0, 64, 68
1, 94417, Control_c, 0, 64, 79
1, 94432, Control_c, 0, 64, 93
1, 94446, Control_c, 0, 64, 105
1, 94462, Control_c, 0, 64, 116
1, 94477, Control_c, 0, 64, 127
1, 94530, Note_off_c, 0, 36, 62
1, 94535, Note_off_c, 0, 60, 62
1, 94536, Note_off_c, 0, 48, 64
1, 94797, Control_c, 0, 64, 110
1, 94799, Note_on_c, 0, 63, 101
1, 94807, Note_on_c, 0, 51, 87
1, 94812, Control_c, 0, 64, 86
1, 94813, Note_on_c, 0, 39, 76
1, 94826, Control_c, 0, 64, 66
1, 94833, Note_off_c, 0, 63, 66
1, 94839, Note_off_c, 0, 39, 66
1, 94841, Control_c, 0, 64, 0
1, 94842, Note_off_c, 0, 51, 64
1, 95041, Note_on_c, 0, 67, 94
1, 95045, Note_on_c, 0, 55, 94
1, 95049, Note_on_c, 0, 43, 78
1, 95079, Note_off_c, 0, 67, 64
1, 95080, Note_off_c, 0, 43, 62
1, 95089, Note_off_c, 0, 55, 59
1, 95272, Note_on_c, 0, 72, 100
1, 95283, Note_on_c, 0, 60, 89
1, 95284, Note_on_c, 0, 48, 78
1, 95307, Note_off_c, 0, 72, 65
1, 95316, Note_off_c, 0, 48, 65
1, 95322, Note_off_c, 0, 60, 61
1, 95554, Note_on_c, 0, 75, 94
1, 95567, Note_on_c, 0, 63, 83
1, 95570, Note_on_c, 0, 51, 75
1, 95600, Note_off_c, 0, 75, 66
1, 95606, Note_off_c, 0, 51, 64
1, 95611, Note_off_c, 0, 63, 64
1, 95619, Control_c, 0, 67, 8
1, 95634, Control_c, 0, 67, 17
1, 95649, Control_c, 0, 67, 42
1, 95664, Control_c, 0, 67, 85
1, 95679, Control_c, 0, 67, 127
1, 96030, Note_on_c, 0, 75, 24
1, 96074, Note_off_c, 0, 75, 66
1, 96100, Note_on_c, 0, 77, 63
1, 96157, Note_on_c, 0, 75, 58
1, 96157, Note_off_c, 0, 77, 61
1, 96190, Note_off_c, 0, 75, 68
1, 96208, Note_on_c, 0, 74, 61
1, 96235, Note_off_c, 0, 74, 67
1, 96245, Note_on_c, 0, 75, 55
1, 96312, Note_on_c, 0, 79, 63
1, 96315, Note_off_c, 0, 75, 63
1, 96527, Note_off_c, 0, 79, 55
1, 96555, Note_on_c, 0, 72, 59
1, 96567, Note_on_c, 0, 67, 45
1, 96568, Note_on_c, 0, 63, 42
1, 96587, Note_off_c, 0, 72, 66
1, 96597, Note_off_c, 0, 67, 56
1, 96604, Note_off_c, 0, 63, 55
1, 96786, Note_on_c, 0, 72, 62
1, 96790, Note_on_c, 0, 63, 43
1, 96791, Note_on_c, 0, 67, 42
1, 96819, Note_off_c, 0, 72, 66
1, 96843, Note_off_c, 0, 67, 49
1, 96850, Note_off_c, 0, 63, 58
1, 97034, Note_on_c, 0, 72, 61
1, 97046, Note_on_c, 0, 67, 37
1, 97050, Note_on_c, 0, 63, 40
1, 97063, Note_off_c, 0, 72, 68
1, 97086, Note_off_c, 0, 67, 50
1, 97089, Note_off_c, 0, 63, 52
1, 97286, Note_on_c, 0, 80, 61
1, 97525, Note_on_c, 0, 71, 53
1, 97534, Note_on_c, 0, 68, 38
1, 97536, Note_off_c, 0, 80, 61
1, 97537, Note_on_c, 0, 62, 31
1, 97542, Note_on_c, 0, 65, 36
1, 97549, Note_off_c, 0, 71, 62
1, 97575, Note_off_c, 0, 65, 57
1, 97576, Note_off_c, 0, 68, 50
1, 97600, Note_off_c, 0, 62, 43
1, 97825, Note_on_c, 0, 71, 45
1, 97830, Note_on_c, 0, 65, 29
1, 97835, Note_on_c, 0, 62, 36
1, 97839, Note_on_c, 0, 68, 32
1, 97904, Note_off_c, 0, 68, 60
1, 97906, Note_off_c, 0, 62, 61
1, 97911, Note_off_c, 0, 65, 62
1, 97913, Note_off_c, 0, 71, 61
1, 98088, Control_c, 0, 67, 123
1, 98103, Control_c, 0, 67, 90
1, 98118, Control_c, 0, 67, 58
1, 98133, Control_c, 0, 67, 29
1, 98148, Control_c, 0, 67, 0
1, 98383, Note_on_c, 0, 55, 97
1, 98387, Note_on_c, 0, 43, 97
1, 98392, Note_on_c, 0, 31, 83
1, 98421, Control_c, 0, 64, 40
1, 98436, Control_c, 0, 64, 70
1, 98451, Control_c, 0, 64, 87
1, 98467, Control_c, 0, 64, 114
1, 98482, Control_c, 0, 64, 127
1, 98533, Note_off_c, 0, 31, 62
1, 98551, Note_off_c, 0, 43, 60
1, 98555, Note_off_c, 0, 55, 62
1, 98837, Control_c, 0, 64, 98
1, 98848, Note_on_c, 0, 59, 93
1, 98852, Note_on_c, 0, 47, 91
1, 98852, Control_c, 0, 64, 72
1, 98858, Note_on_c, 0, 35, 73
1, 98867, Control_c, 0, 64, 0
1, 98877, Note_off_c, 0, 59, 64
1, 98884, Note_off_c, 0, 35, 66
1, 98889, Note_off_c, 0, 47, 63
1, 99070, Note_on_c, 0, 62, 94
1, 99075, Note_on_c, 0, 50, 95
1, 99090, Note_on_c, 0, 38, 74
1, 99114, Note_off_c, 0, 38, 66
1, 99117, Note_off_c, 0, 62, 63
1, 99124, Note_off_c, 0, 50, 62
1, 99322, Note_on_c, 0, 67, 97
1, 99325, Note_on_c, 0, 55, 90
1, 99332, Note_on_c, 0, 43, 75
1, 99361, Note_off_c, 0, 43, 63
1, 99364, Note_off_c, 0, 67, 64
1, 99367, Note_off_c, 0, 55, 60
1, 99573, Note_on_c, 0, 71, 91
1, 99582, Note_on_c, 0, 59, 86
1, 99587, Note_on_c, 0, 47, 75
1, 99610, Note_off_c, 0, 71, 63
1, 99618, Note_off_c, 0, 47, 65
1, 99621, Note_off_c, 0, 59, 64
1, 99873, Control_c, 0, 67, 10
1, 99888, Control_c, 0, 67, 17
1, 99903, Control_c, 0, 67, 33
1, 99916, Note_on_c, 0, 74, 58
1, 99918, Control_c, 0, 67, 60
1, 99933, Control_c, 0, 67, 94
1, 99937, Note_off_c, 0, 74, 66
1, 99947, Control_c, 0, 67, 119
1, 99962, Control_c, 0, 67, 127
1, 100003, Note_on_c, 0, 74, 70
1, 100029, Note_off_c, 0, 74, 69
1, 100047, Note_on_c, 0, 75, 64
1, 100091, Note_off_c, 0, 75, 65
1, 100097, Note_on_c, 0, 74, 59
1, 100131, Note_off_c, 0, 74, 52
1, 100156, Note_on_c, 0, 72, 47
1, 100177, Note_off_c, 0, 72, 57
1, 100192, Poly_aftertouch_c, 0, 74, 127
1, 100225, Poly_aftertouch_c, 0, 74, 0
1, 100247, Note_on_c, 0, 77, 72
1, 100485, Note_off_c, 0, 77, 45
1, 100498, Note_on_c, 0, 62, 42
1, 100499, Note_on_c, 0, 71, 53
1, 100506, Note_on_c, 0, 68, 44
1, 100509, Note_on_c, 0, 65, 39
1, 100525, Note_off_c, 0, 71, 60
1, 100539, Note_off_c, 0, 68, 54
1, 100540, Note_off_c, 0, 65, 57
1, 100546, Note_off_c, 0, 62, 57
1, 100733, Note_on_c, 0, 71, 63
1, 100739, Note_on_c, 0, 68, 41
1, 100747, Note_on_c, 0, 62, 32
1, 100749, Note_on_c, 0, 65, 39
1, 100763, Note_off_c, 0, 71, 65
1, 100787, Note_off_c, 0, 65, 54
1, 100790, Note_off_c, 0, 68, 47
1, 100797, Note_off_c, 0, 62, 45
1, 100978, Note_on_c, 0, 62, 33
1, 100984, Note_on_c, 0, 68, 40
1, 100984, Note_on_c, 0, 71, 46
1, 101008, Note_on_c, 0, 65, 15
1, 101009, Note_off_c, 0, 71, 59
1, 101028, Note_off_c, 0, 68, 48
1, 101031, Note_off_c, 0, 62, 48
1, 101036, Note_off_c, 0, 65, 48
1, 101242, Note_on_c, 0, 79, 52
1, 101493, Note_on_c, 0, 63, 41
1, 101499, Note_on_c, 0, 72, 42
1, 101501, Note_off_c, 0, 79, 57
1, 101502, Note_on_c, 0, 67, 30
1, 101524, Note_off_c, 0, 72, 57
1, 101540, Note_off_c, 0, 63, 49
1, 101543, Note_off_c, 0, 67, 48
1, 101767, Note_on_c, 0, 63, 31
1, 101770, Note_on_c, 0, 72, 45
1, 101775, Note_on_c, 0, 67, 30
1, 101846, Note_off_c, 0, 67, 61
1, 101846, Note_off_c, 0, 72, 65
1, 101851, Note_off_c, 0, 63, 59
1, 101995, Control_c, 0, 67, 117
1, 102009, Control_c, 0, 67, 99
1, 102024, Control_c, 0, 67, 79
1, 102039, Control_c, 0, 67, 51
1, 102053, Control_c, 0, 67, 27
1, 102068, Control_c, 0, 67, 8
1, 102091, Control_c, 0, 67, 0
1, 102266, Note_on_c, 0, 67, 93
1, 102270, Note_on_c, 0, 43, 59
1, 102298, Control_c, 0, 64, 65
1, 102313, Control_c, 0, 64, 77
1, 102321, Note_off_c, 0, 43, 60
1, 102328, Control_c, 0, 64, 91
1, 102342, Control_c, 0, 64, 104
1, 102357, Control_c, 0, 64, 109
1, 102365, Note_on_c, 0, 55, 62
1, 102372, Control_c, 0, 64, 111
1, 102387, Control_c, 0, 64, 115
1, 102402, Control_c, 0, 64, 120
1, 102402, Note_off_c, 0, 55, 62
1, 102417, Control_c, 0, 64, 127
1, 102477, Note_off_c, 0, 67, 57
1, 102479, Note_on_c, 0, 43, 57
1, 102528, Note_off_c, 0, 43, 61
1, 102579, Note_on_c, 0, 55, 55
1, 102615, Note_off_c, 0, 55, 63
1, 102684, Control_c, 0, 64, 118
1, 102694, Note_on_c, 0, 43, 61
1, 102699, Control_c, 0, 64, 105
1, 102714, Control_c, 0, 64, 94
1, 102729, Control_c, 0, 64, 84
1, 102740, Note_off_c, 0, 43, 60
1, 102744, Control_c, 0, 64, 75
1, 102758, Control_c, 0, 64, 65
1, 102773, Control_c, 0, 64, 0
1, 102784, Note_on_c, 0, 55, 56
1, 102816, Note_off_c, 0, 55, 62
1, 102910, Note_on_c, 0, 43, 53
1, 102911, Note_on_c, 0, 75, 65
1, 102915, Note_on_c, 0, 67, 59
1, 102957, Note_off_c, 0, 43, 60
1, 103005, Note_on_c, 0, 55, 55
1, 103039, Note_off_c, 0, 55, 62
1, 103127, Note_on_c, 0, 66, 69
1, 103132, Note_on_c, 0, 43, 56
1, 103156, Note_off_c, 0, 67, 49
1, 103177, Note_off_c, 0, 43, 60
1, 103224, Note_on_c, 0, 55, 57
1, 103263, Note_off_c, 0, 55, 60
1, 103299, Note_off_c, 0, 75, 64
1, 103322, Note_off_c, 0, 66, 63
1, 103335, Note_on_c, 0, 74, 64
1, 103343, Note_on_c, 0, 65, 69
1, 103344, Note_on_c, 0, 43, 55
1, 103392, Note_off_c, 0, 43, 60
1, 103435, Note_on_c, 0, 55, 60
1, 103471, Note_off_c, 0, 55, 61
1, 103553, Note_off_c, 0, 65, 59
1, 103559, Note_on_c, 0, 43, 58
1, 103564, Note_on_c, 0, 64, 73
1, 103609, Note_off_c, 0, 43, 60
1, 103615, Note_off_c, 0, 74, 56
1, 103654, Note_on_c, 0, 55, 58
1, 103694, Note_off_c, 0, 55, 59
1, 103776, Note_on_c, 0, 72, 74
1, 103779, Note_on_c, 0, 43, 55
1, 103782, Note_on_c, 0, 63, 71
1, 103789, Note_off_c, 0, 64, 66
1, 103828, Note_off_c, 0, 43, 61
1, 103869, Note_on_c, 0, 55, 61
1, 103910, Note_off_c, 0, 55, 58
1, 103995, Note_on_c, 0, 62, 91
1, 103998, Note_off_c, 0, 63, 65
1, 104003, Note_on_c, 0, 43, 59
1, 104058, Note_off_c, 0, 43, 60
1, 104093, Control_c, 0, 64, 48
1, 104104, Note_on_c, 0, 55, 53
1, 104108, Control_c, 0, 64, 68
1, 104123, Control_c, 0, 64, 76
1, 104137, Control_c, 0, 64, 83
1, 104146, Note_off_c, 0, 55, 56
1, 104152, Control_c, 0, 64, 87
1, 104165, Note_off_c, 0, 72, 58
1, 104167, Control_c, 0, 64, 88
1, 104182, Control_c, 0, 64, 90
1, 104197, Control_c, 0, 64, 91
1, 104199, Note_off_c, 0, 62, 58
1, 104211, Note_on_c, 0, 71, 69
1, 104211, Control_c, 0, 64, 93
1, 104226, Control_c, 0, 64, 95
1, 104229, Note_on_c, 0, 43, 57
1, 104241, Control_c, 0, 64, 96
1, 104248, Note_off_c, 0, 71, 59
1, 104256, Control_c, 0, 64, 97
1, 104271, Control_c, 0, 64, 98
1, 104274, Note_off_c, 0, 43, 61
1, 104301, Control_c, 0, 64, 98
1, 104323, Note_on_c, 0, 55, 55
1, 104337, Control_c, 0, 64, 99
1, 104363, Note_off_c, 0, 55, 57
1, 104448, Note_on_c, 0, 43, 60
1, 104486, Note_off_c, 0, 43, 61
1, 104500, Control_c, 0, 64, 97
1, 104515, Control_c, 0, 64, 93
1, 104530, Control_c, 0, 64, 87
1, 104533, Note_on_c, 0, 55, 60
1, 104545, Control_c, 0, 64, 79
1, 104560, Control_c, 0, 64, 70
1, 104564, Note_off_c, 0, 55, 64
1, 104575, Control_c, 0, 64, 54
1, 104589, Control_c, 0, 64, 0
1, 104646, Note_on_c, 0, 79, 67
1, 104647, Note_on_c, 0, 43, 55
1, 104658, Note_on_c, 0, 75, 61
1, 104697, Note_off_c, 0, 43, 62
1, 104743, Note_on_c, 0, 55, 55
1, 104784, Note_off_c, 0, 55, 59
1, 104864, Note_on_c, 0, 43, 57
1, 104867, Note_on_c, 0, 78, 73
1, 104904, Note_off_c, 0, 79, 55
1, 104911, Note_off_c, 0, 43, 61
1, 104956, Note_off_c, 0, 75, 52
1, 104957, Note_on_c, 0, 55, 55
1, 104994, Note_off_c, 0, 55, 61
1, 105071, Note_on_c, 0, 43, 56
1, 105071, Note_on_c, 0, 77, 71
1, 105088, Note_on_c, 0, 74, 63
1, 105111, Note_off_c, 0, 78, 55
1, 105131, Note_off_c, 0, 43, 62
1, 105173, Note_on_c, 0, 55, 57
1, 105227, Note_off_c, 0, 55, 54
1, 105299, Note_on_c, 0, 43, 61
1, 105304, Note_on_c, 0, 76, 71
1, 105324, Note_off_c, 0, 77, 54
1, 105353, Note_off_c, 0, 43, 61
1, 105392, Note_on_c, 0, 55, 57
1, 105439, Note_off_c, 0, 55, 53
1, 105508, Note_on_c, 0, 43, 61
1, 105513, Note_on_c, 0, 75, 73
1, 105523, Note_on_c, 0, 72, 64
1, 105529, Note_off_c, 0, 74, 63
1, 105541, Note_off_c, 0, 76, 60
1, 105575, Note_off_c, 0, 43, 60
1, 105598, Note_on_c, 0, 55, 65
1, 105671, Note_off_c, 0, 55, 60
1, 105677, Note_off_c, 0, 75, 63
1, 105723, Note_on_c, 0, 74, 78
1, 105727, Note_on_c, 0, 43, 70
1, 105749, Note_off_c, 0, 72, 61
1, 105773, Note_off_c, 0, 43, 62
1, 105783, Control_c, 0, 64, 40
1, 105798, Control_c, 0, 64, 68
1, 105813, Control_c, 0, 64, 77
1, 105818, Note_on_c, 0, 55, 66
1, 105835, Control_c, 0, 64, 88
1, 105850, Control_c, 0, 64, 91
1, 105865, Note_off_c, 0, 55, 63
1, 105865, Control_c, 0, 64, 91
1, 105895, Control_c, 0, 64, 92
1, 105946, Note_on_c, 0, 55, 69
1, 105953, Note_on_c, 0, 71, 67
1, 105953, Note_off_c, 0, 74, 62
1, 105982, Note_off_c, 0, 55, 64
1, 105982, Note_off_c, 0, 71, 65
1, 105983, Control_c, 0, 64, 91
1, 105998, Control_c, 0, 64, 91
1, 106013, Control_c, 0, 64, 87
1, 106027, Control_c, 0, 64, 77
1, 106031, Note_on_c, 0, 55, 73
1, 106042, Control_c, 0, 64, 64
1, 106057, Control_c, 0, 64, 0
1, 106068, Note_off_c, 0, 55, 59
1, 106161, Note_on_c, 0, 41, 71
1, 106203, Note_off_c, 0, 41, 67
1, 106244, Note_on_c, 0, 53, 68
1, 106282, Note_off_c, 0, 53, 65
1, 106367, Note_on_c, 0, 80, 91
1, 106373, Note_on_c, 0, 71, 81
1, 106374, Note_on_c, 0, 74, 75
1, 106378, Note_on_c, 0, 53, 73
1, 106413, Control_c, 0, 64, 29
1, 106414, Note_off_c, 0, 53, 65
1, 106427, Control_c, 0, 64, 65
1, 106442, Control_c, 0, 64, 72
1, 106458, Control_c, 0, 64, 80
1, 106463, Note_on_c, 0, 53, 66
1, 106473, Control_c, 0, 64, 86
1, 106488, Control_c, 0, 64, 88
1, 106503, Control_c, 0, 64, 91
1, 106508, Note_off_c, 0, 53, 65
1, 106517, Control_c, 0, 64, 93
1, 106532, Control_c, 0, 64, 95
1, 106547, Control_c, 0, 64, 96
1, 106562, Control_c, 0, 64, 98
1, 106584, Control_c, 0, 64, 98
1, 106608, Note_on_c, 0, 39, 68
1, 106626, Note_off_c, 0, 74, 59
1, 106633, Note_off_c, 0, 71, 56
1, 106647, Note_off_c, 0, 39, 64
1, 106694, Note_on_c, 0, 51, 65
1, 106703, Control_c, 0, 64, 98
1, 106718, Control_c, 0, 64, 95
1, 106727, Note_off_c, 0, 51, 62
1, 106732, Control_c, 0, 64, 88
1, 106746, Control_c, 0, 64, 80
1, 106761, Control_c, 0, 64, 71
1, 106775, Control_c, 0, 64, 57
1, 106790, Control_c, 0, 64, 0
1, 106797, Note_off_c, 0, 80, 57
1, 106808, Note_on_c, 0, 51, 66
1, 106811, Note_on_c, 0, 79, 61
1, 106817, Note_on_c, 0, 75, 64
1, 106817, Note_on_c, 0, 72, 59
1, 106843, Note_off_c, 0, 79, 62
1, 106844, Note_off_c, 0, 72, 59
1, 106850, Note_off_c, 0, 51, 65
1, 106858, Note_off_c, 0, 75, 59
1, 106902, Note_on_c, 0, 51, 60
1, 106941, Note_off_c, 0, 51, 62
1, 107034, Note_on_c, 0, 35, 68
1, 107075, Note_off_c, 0, 35, 66
1, 107130, Note_on_c, 0, 47, 57
1, 107152, Note_on_c, 0, 67, 72
1, 107163, Note_off_c, 0, 47, 63
1, 107195, Note_off_c, 0, 67, 59
1, 107226, Note_on_c, 0, 74, 79
1, 107234, Note_on_c, 0, 47, 75
1, 107276, Note_off_c, 0, 47, 65
1, 107313, Note_off_c, 0, 74, 61
1, 107338, Note_on_c, 0, 77, 70
1, 107347, Note_on_c, 0, 47, 62
1, 107378, Note_off_c, 0, 77, 54
1, 107411, Note_off_c, 0, 47, 61
1, 107422, Note_on_c, 0, 75, 73
1, 107451, Note_on_c, 0, 36, 71
1, 107460, Note_on_c, 0, 77, 55
1, 107467, Note_off_c, 0, 75, 60
1, 107490, Note_off_c, 0, 36, 67
1, 107499, Note_off_c, 0, 77, 62
1, 107514, Note_on_c, 0, 75, 33
1, 107517, Note_on_c, 0, 74, 67
1, 107534, Note_on_c, 0, 48, 71
1, 107566, Note_on_c, 0, 77, 62
1, 107574, Note_off_c, 0, 48, 66
1, 107587, Note_off_c, 0, 74, 42
1, 107597, Note_off_c, 0, 75, 63
1, 107643, Note_on_c, 0, 79, 81
1, 107651, Note_on_c, 0, 48, 69
1, 107659, Note_off_c, 0, 77, 61
1, 107684, Note_off_c, 0, 48, 65
1, 107752, Note_on_c, 0, 48, 71
1, 107798, Note_off_c, 0, 48, 64
1, 107815, Note_off_c, 0, 79, 61
1, 107874, Note_on_c, 0, 41, 81
1, 107913, Note_off_c, 0, 41, 65
1, 107971, Note_on_c, 0, 53, 72
1, 108010, Note_off_c, 0, 53, 63
1, 108098, Note_on_c, 0, 80, 92
1, 108104, Note_on_c, 0, 74, 76
1, 108107, Note_on_c, 0, 71, 80
1, 108116, Note_on_c, 0, 53, 74
1, 108141, Control_c, 0, 64, 49
1, 108152, Note_off_c, 0, 53, 66
1, 108156, Control_c, 0, 64, 66
1, 108171, Control_c, 0, 64, 73
1, 108185, Control_c, 0, 64, 82
1, 108200, Control_c, 0, 64, 88
1, 108206, Note_on_c, 0, 53, 67
1, 108215, Control_c, 0, 64, 92
1, 108230, Control_c, 0, 64, 94
1, 108245, Note_off_c, 0, 53, 65
1, 108245, Control_c, 0, 64, 95
1, 108259, Control_c, 0, 64, 97
1, 108274, Control_c, 0, 64, 98
1, 108289, Control_c, 0, 64, 99
1, 108304, Control_c, 0, 64, 100
1, 108319, Control_c, 0, 64, 100
1, 108334, Control_c, 0, 64, 101
1, 108343, Note_on_c, 0, 39, 68
1, 108360, Note_off_c, 0, 74, 59
1, 108382, Note_off_c, 0, 71, 55
1, 108398, Note_off_c, 0, 39, 61
1, 108437, Control_c, 0, 64, 99
1, 108438, Note_on_c, 0, 51, 63
1, 108452, Control_c, 0, 64, 93
1, 108467, Control_c, 0, 64, 84
1, 108468, Note_off_c, 0, 51, 64
1, 108482, Control_c, 0, 64, 73
1, 108496, Control_c, 0, 64, 56
1, 108511, Control_c, 0, 64, 0
1, 108531, Note_off_c, 0, 80, 58
1, 108560, Note_on_c, 0, 79, 64
1, 108562, Note_on_c, 0, 51, 65
1, 108566, Note_on_c, 0, 75, 61
1, 108568, Note_on_c, 0, 72, 56
1, 108588, Note_off_c, 0, 72, 63
1, 108605, Note_off_c, 0, 75, 60
1, 108607, Note_off_c, 0, 51, 63
1, 108614, Note_off_c, 0, 79, 61
1, 108667, Note_on_c, 0, 51, 60
1, 108710, Note_off_c, 0, 51, 64
1, 108790, Note_on_c, 0, 38, 64
1, 108840, Note_off_c, 0, 38, 64
1, 108891, Note_on_c, 0, 50, 53
1, 108924, Note_off_c, 0, 50, 65
1, 108939, Note_on_c, 0, 77, 67
1, 108965, Note_off_c, 0, 77, 66
1, 109002, Note_on_c, 0, 83, 91
1, 109008, Note_on_c, 0, 50, 66
1, 109048, Note_off_c, 0, 50, 62
1, 109097, Note_off_c, 0, 83, 55
1, 109121, Note_on_c, 0, 50, 46
1, 109154, Note_on_c, 0, 89, 70
1, 109155, Note_off_c, 0, 50, 64
1, 109194, Note_off_c, 0, 89, 56
1, 109236, Note_on_c, 0, 87, 81
1, 109245, Note_on_c, 0, 48, 63
1, 109319, Note_off_c, 0, 87, 60
1, 109350, Note_on_c, 0, 79, 67
1, 109398, Note_off_c, 0, 79, 62
1, 109470, Note_on_c, 0, 84, 64
1, 109508, Note_off_c, 0, 48, 57
1, 109542, Note_off_c, 0, 84, 56
1, 109593, Note_on_c, 0, 75, 54
1, 109623, Note_off_c, 0, 75, 55
1, 109720, Note_on_c, 0, 53, 54
1, 109832, Note_on_c, 0, 77, 48
1, 109926, Note_off_c, 0, 77, 54
1, 109951, Note_on_c, 0, 80, 62
1, 109979, Note_off_c, 0, 53, 64
1, 110025, Note_off_c, 0, 80, 53
1, 110055, Note_on_c, 0, 74, 53
1, 110083, Note_off_c, 0, 74, 63
1, 110186, Note_on_c, 0, 55, 51
1, 110301, Note_on_c, 0, 75, 64
1, 110397, Note_off_c, 0, 75, 55
1, 110418, Note_off_c, 0, 55, 37
1, 110428, Note_on_c, 0, 79, 62
1, 110501, Note_off_c, 0, 79, 54
1, 110533, Note_on_c, 0, 72, 56
1, 110559, Note_off_c, 0, 72, 61
1, 110650, Note_on_c, 0, 43, 60
1, 110765, Note_on_c, 0, 74, 61
1, 110838, Note_off_c, 0, 43, 59
1, 110859, Note_off_c, 0, 74, 55
1, 110882, Note_on_c, 0, 77, 67
1, 110936, Note_off_c, 0, 77, 60
1, 110984, Note_on_c, 0, 71, 71
1, 111011, Note_off_c, 0, 71, 64
1, 111155, Note_on_c, 0, 72, 98
1, 111211, Control_c, 0, 64, 44
1, 111225, Control_c, 0, 64, 68
1, 111240, Control_c, 0, 64, 80
1, 111255, Control_c, 0, 64, 95
1, 111270, Control_c, 0, 64, 106
1, 111285, Control_c, 0, 64, 113
1, 111300, Control_c, 0, 64, 116
1, 111303, Note_off_c, 0, 72, 63
1, 111314, Control_c, 0, 64, 121
1, 111329, Control_c, 0, 64, 127
1, 111610, Control_c, 0, 64, 110
1, 111625, Note_on_c, 0, 75, 93
1, 111625, Control_c, 0, 64, 90
1, 111635, Note_on_c, 0, 60, 86
1, 111640, Control_c, 0, 64, 71
1, 111655, Control_c, 0, 64, 0
1, 111658, Note_off_c, 0, 75, 64
1, 111869, Note_off_c, 0, 60, 57
1, 111872, Note_on_c, 0, 79, 91
1, 111910, Note_off_c, 0, 79, 63
1, 112099, Note_on_c, 0, 84, 88
1, 112100, Note_on_c, 0, 63, 85
1, 112138, Note_off_c, 0, 84, 65
1, 112149, Note_off_c, 0, 63, 66
1, 112312, Note_on_c, 0, 87, 86
1, 112315, Note_on_c, 0, 67, 79
1, 112335, Note_off_c, 0, 87, 64
1, 112337, Note_off_c, 0, 67, 70
1, 112550, Note_on_c, 0, 80, 72
1, 112557, Note_on_c, 0, 44, 93
1, 112569, Note_on_c, 0, 72, 78
1, 112570, Note_on_c, 0, 32, 79
1, 112597, Note_off_c, 0, 72, 65
1, 112611, Note_off_c, 0, 80, 65
1, 112773, Note_on_c, 0, 84, 85
1, 112775, Note_on_c, 0, 75, 75
1, 112776, Note_off_c, 0, 32, 63
1, 112781, Note_off_c, 0, 44, 65
1, 112805, Note_off_c, 0, 84, 66
1, 112809, Note_off_c, 0, 75, 67
1, 113008, Note_on_c, 0, 48, 93
1, 113008, Note_on_c, 0, 68, 83
1, 113008, Note_on_c, 0, 77, 84
1, 113011, Note_on_c, 0, 36, 76
1, 113035, Note_off_c, 0, 36, 66
1, 113040, Note_off_c, 0, 68, 65
1, 113043, Note_off_c, 0, 48, 68
1, 113065, Note_off_c, 0, 77, 57
1, 113216, Note_on_c, 0, 80, 80
1, 113223, Note_on_c, 0, 72, 82
1, 113225, Note_on_c, 0, 53, 87
1, 113229, Note_on_c, 0, 41, 68
1, 113255, Note_off_c, 0, 41, 65
1, 113258, Note_off_c, 0, 72, 65
1, 113261, Note_off_c, 0, 53, 68
1, 113266, Note_off_c, 0, 80, 66
1, 113461, Note_on_c, 0, 73, 85
1, 113464, Note_on_c, 0, 56, 74
1, 113467, Note_on_c, 0, 65, 78
1, 113473, Note_on_c, 0, 44, 63
1, 113490, Note_off_c, 0, 65, 70
1, 113518, Note_off_c, 0, 73, 61
1, 113633, Control_c, 0, 67, 8
1, 113649, Control_c, 0, 67, 13
1, 113664, Control_c, 0, 67, 27
1, 113679, Control_c, 0, 67, 51
1, 113685, Note_on_c, 0, 77, 75
1, 113689, Note_on_c, 0, 68, 77
1, 113694, Control_c, 0, 67, 83
1, 113697, Note_off_c, 0, 44, 64
1, 113709, Control_c, 0, 67, 111
1, 113712, Note_off_c, 0, 68, 69
1, 113714, Note_off_c, 0, 77, 58
1, 113723, Control_c, 0, 67, 127
1, 113735, Note_off_c, 0, 56, 63
1, 113992, Note_on_c, 0, 72, 55
1, 114122, Note_on_c, 0, 66, 42
1, 114130, Control_c, 0, 64, 47
1, 114145, Control_c, 0, 64, 66
1, 114159, Control_c, 0, 64, 73
1, 114174, Control_c, 0, 64, 80
1, 114189, Control_c, 0, 64, 85
1, 114204, Control_c, 0, 64, 88
1, 114209, Note_off_c, 0, 66, 39
1, 114219, Control_c, 0, 64, 91
1, 114231, Note_on_c, 0, 63, 51
1, 114234, Control_c, 0, 64, 93
1, 114248, Control_c, 0, 64, 96
1, 114263, Control_c, 0, 64, 99
1, 114278, Control_c, 0, 64, 102
1, 114288, Note_off_c, 0, 63, 58
1, 114293, Control_c, 0, 64, 105
1, 114308, Control_c, 0, 64, 107
1, 114323, Control_c, 0, 64, 109
1, 114324, Note_on_c, 0, 66, 55
1, 114337, Control_c, 0, 64, 110
1, 114352, Control_c, 0, 64, 111
1, 114382, Control_c, 0, 64, 111
1, 114382, Note_off_c, 0, 66, 58
1, 114412, Control_c, 0, 64, 112
1, 114442, Control_c, 0, 64, 112
1, 114450, Note_on_c, 0, 56, 54
1, 114504, Note_off_c, 0, 56, 55
1, 114516, Control_c, 0, 64, 113
1, 114554, Note_on_c, 0, 66, 42
1, 114597, Note_off_c, 0, 66, 47
1, 114646, Note_on_c, 0, 63, 51
1, 114646, Note_on_c, 0, 80, 76
1, 114683, Note_off_c, 0, 72, 59
1, 114698, Note_off_c, 0, 63, 60
1, 114743, Note_on_c, 0, 66, 46
1, 114762, Note_off_c, 0, 80, 59
1, 114788, Note_off_c, 0, 66, 51
1, 114878, Note_on_c, 0, 56, 50
1, 114879, Control_c, 0, 64, 110
1, 114882, Note_on_c, 0, 80, 72
1, 114894, Control_c, 0, 64, 100
1, 114909, Control_c, 0, 64, 87
1, 114924, Control_c, 0, 64, 68
1, 114938, Control_c, 0, 64, 0
1, 114968, Control_c, 0, 64, 39
1, 114982, Control_c, 0, 64, 67
1, 114988, Note_on_c, 0, 65, 50
1, 114997, Control_c, 0, 64, 75
1, 114999, Note_off_c, 0, 56, 52
1, 115012, Control_c, 0, 64, 83
1, 115027, Control_c, 0, 64, 86
1, 115042, Control_c, 0, 64, 87
1, 115045, Note_off_c, 0, 65, 58
1, 115056, Control_c, 0, 64, 88
1, 115071, Control_c, 0, 64, 89
1, 115086, Control_c, 0, 64, 92
1, 115087, Note_on_c, 0, 61, 48
1, 115101, Control_c, 0, 64, 94
1, 115115, Control_c, 0, 64, 95
1, 115130, Control_c, 0, 64, 96
1, 115145, Control_c, 0, 64, 97
1, 115147, Note_off_c, 0, 61, 54
1, 115160, Control_c, 0, 64, 97
1, 115185, Note_on_c, 0, 77, 65
1, 115190, Control_c, 0, 64, 98
1, 115197, Note_on_c, 0, 65, 45
1, 115197, Note_off_c, 0, 80, 58
1, 115252, Note_off_c, 0, 65, 59
1, 115265, Control_c, 0, 64, 98
1, 115309, Note_off_c, 0, 77, 58
1, 115315, Note_on_c, 0, 56, 51
1, 115320, Note_on_c, 0, 73, 68
1, 115324, Control_c, 0, 64, 97
1, 115339, Control_c, 0, 64, 91
1, 115354, Control_c, 0, 64, 79
1, 115369, Control_c, 0, 64, 63
1, 115384, Control_c, 0, 64, 0
1, 115415, Note_on_c, 0, 65, 51
1, 115428, Control_c, 0, 64, 57
1, 115443, Control_c, 0, 64, 67
1, 115446, Note_off_c, 0, 56, 0
1, 115458, Control_c, 0, 64, 73
1, 115473, Control_c, 0, 64, 81
1, 115487, Control_c, 0, 64, 86
1, 115490, Note_off_c, 0, 65, 51
1, 115502, Control_c, 0, 64, 88
1, 115517, Control_c, 0, 64, 90
1, 115530, Note_on_c, 0, 61, 49
1, 115531, Control_c, 0, 64, 92
1, 115538, Note_off_c, 0, 73, 54
1, 115546, Control_c, 0, 64, 94
1, 115569, Control_c, 0, 64, 97
1, 115577, Poly_aftertouch_c, 0, 56, 0
1, 115583, Control_c, 0, 64, 98
1, 115598, Control_c, 0, 64, 100
1, 115613, Note_off_c, 0, 61, 54
1, 115613, Control_c, 0, 64, 101
1, 115628, Control_c, 0, 64, 101
1, 115638, Note_on_c, 0, 65, 55
1, 115643, Control_c, 0, 64, 102
1, 115658, Control_c, 0, 64, 103
1, 115673, Control_c, 0, 64, 104
1, 115687, Control_c, 0, 64, 104
1, 115700, Note_off_c, 0, 65, 58
1, 115702, Control_c, 0, 64, 105
1, 115761, Control_c, 0, 64, 104
1, 115771, Note_on_c, 0, 72, 75
1, 115776, Control_c, 0, 64, 100
1, 115781, Note_on_c, 0, 56, 50
1, 115791, Control_c, 0, 64, 89
1, 115806, Control_c, 0, 64, 75
1, 115820, Control_c, 0, 64, 49
1, 115835, Control_c, 0, 64, 0
1, 115880, Control_c, 0, 64, 63
1, 115886, Note_on_c, 0, 66, 45
1, 115894, Control_c, 0, 64, 71
1, 115898, Note_off_c, 0, 56, 53
1, 115909, Control_c, 0, 64, 78
1, 115924, Control_c, 0, 64, 84
1, 115938, Control_c, 0, 64, 88
1, 115949, Note_off_c, 0, 66, 46
1, 115953, Control_c, 0, 64, 91
1, 115968, Control_c, 0, 64, 95
1, 115983, Control_c, 0, 64, 98
1, 115998, Note_on_c, 0, 63, 48
1, 115998, Control_c, 0, 64, 103
1, 116013, Control_c, 0, 64, 107
1, 116028, Control_c, 0, 64, 112
1, 116043, Control_c, 0, 64, 116
1, 116053, Note_off_c, 0, 63, 56
1, 116058, Control_c, 0, 64, 119
1, 116073, Control_c, 0, 64, 123
1, 116085, Note_on_c, 0, 66, 52
1, 116088, Control_c, 0, 64, 125
1, 116102, Control_c, 0, 64, 127
1, 116117, Control_c, 0, 64, 127
1, 116151, Note_off_c, 0, 66, 60
1, 116208, Note_on_c, 0, 56, 54
1, 116287, Note_on_c, 0, 80, 72
1, 116296, Note_off_c, 0, 56, 42
1, 116319, Note_on_c, 0, 66, 44
1, 116329, Note_off_c, 0, 72, 54
1, 116358, Note_off_c, 0, 66, 47
1, 116403, Note_off_c, 0, 80, 62
1, 116405, Note_on_c, 0, 82, 72
1, 116413, Note_on_c, 0, 63, 45
1, 116469, Note_off_c, 0, 63, 57
1, 116499, Note_on_c, 0, 66, 44
1, 116499, Note_on_c, 0, 80, 74
1, 116500, Note_off_c, 0, 82, 62
1, 116536, Note_off_c, 0, 80, 57
1, 116546, Note_off_c, 0, 66, 52
1, 116616, Note_on_c, 0, 56, 50
1, 116631, Note_on_c, 0, 80, 80
1, 116643, Control_c, 0, 64, 120
1, 116658, Control_c, 0, 64, 104
1, 116673, Control_c, 0, 64, 87
1, 116688, Control_c, 0, 64, 69
1, 116703, Control_c, 0, 64, 0
1, 116719, Note_on_c, 0, 65, 53
1, 116747, Control_c, 0, 64, 66
1, 116761, Control_c, 0, 64, 76
1, 116774, Note_off_c, 0, 65, 56
1, 116776, Control_c, 0, 64, 84
1, 116789, Note_off_c, 0, 56, 28
1, 116791, Control_c, 0, 64, 89
1, 116806, Control_c, 0, 64, 90
1, 116821, Control_c, 0, 64, 92
1, 116831, Note_on_c, 0, 61, 46
1, 116837, Control_c, 0, 64, 94
1, 116851, Control_c, 0, 64, 97
1, 116866, Control_c, 0, 64, 99
1, 116881, Control_c, 0, 64, 101
1, 116896, Control_c, 0, 64, 102
1, 116910, Note_off_c, 0, 61, 55
1, 116911, Control_c, 0, 64, 103
1, 116931, Note_on_c, 0, 77, 68
1, 116935, Note_on_c, 0, 65, 51
1, 116946, Note_off_c, 0, 80, 56
1, 116955, Control_c, 0, 64, 103
1, 116990, Note_off_c, 0, 77, 58
1, 116990, Note_off_c, 0, 65, 59
1, 117029, Control_c, 0, 64, 104
1, 117041, Note_on_c, 0, 56, 55
1, 117047, Note_on_c, 0, 73, 72
1, 117085, Note_off_c, 0, 73, 59
1, 117143, Note_on_c, 0, 65, 57
1, 117203, Note_off_c, 0, 65, 58
1, 117248, Note_off_c, 0, 56, 30
1, 117273, Note_on_c, 0, 61, 42
1, 117286, Note_on_c, 0, 73, 87
1, 117334, Note_on_c, 0, 65, 61
1, 117352, Note_off_c, 0, 61, 57
1, 117378, Note_off_c, 0, 65, 62
1, 117378, Control_c, 0, 64, 103
1, 117407, Control_c, 0, 64, 102
1, 117422, Control_c, 0, 64, 100
1, 117437, Control_c, 0, 64, 97
1, 117452, Control_c, 0, 64, 94
1, 117466, Control_c, 0, 64, 90
1, 117481, Control_c, 0, 64, 86
1, 117496, Control_c, 0, 64, 80
1, 117501, Note_on_c, 0, 66, 89
1, 117510, Control_c, 0, 64, 73
1, 117511, Note_on_c, 0, 60, 63
1, 117513, Note_on_c, 0, 63, 68
1, 117517, Note_on_c, 0, 57, 55
1, 117525, Control_c, 0, 64, 62
1, 117525, Control_c, 0, 67, 127
1, 117540, Control_c, 0, 64, 0
1, 117540, Control_c, 0, 67, 113
1, 117555, Control_c, 0, 67, 94
1, 117570, Control_c, 0, 67, 72
1, 117584, Control_c, 0, 67, 49
1, 117599, Control_c, 0, 67, 30
1, 117602, Note_on_c, 0, 71, 69
1, 117614, Control_c, 0, 67, 18
1, 117624, Note_off_c, 0, 73, 55
1, 117630, Control_c, 0, 67, 9
1, 117645, Control_c, 0, 67, 0
1, 117712, Note_off_c, 0, 71, 60
1, 117721, Note_on_c, 0, 72, 74
1, 117825, Note_on_c, 0, 74, 72
1, 117829, Note_off_c, 0, 72, 60
1, 117941, Note_off_c, 0, 74, 57
1, 117944, Note_on_c, 0, 77, 75
1, 118042, Note_on_c, 0, 75, 74
1, 118044, Note_off_c, 0, 77, 59
1, 118104, Note_off_c, 0, 66, 59
1, 118132, Note_off_c, 0, 60, 48
1, 118134, Note_off_c, 0, 63, 57
1, 118143, Note_off_c, 0, 75, 63
1, 118144, Note_on_c, 0, 74, 72
1, 118171, Note_off_c, 0, 57, 38
1, 118212, Note_off_c, 0, 74, 59
1, 118245, Note_on_c, 0, 72, 68
1, 118335, Note_off_c, 0, 72, 59
1, 118374, Note_on_c, 0, 79, 71
1, 118623, Note_on_c, 0, 59, 51
1, 118636, Note_on_c, 0, 55, 43
1, 118642, Note_off_c, 0, 79, 61
1, 118806, Note_off_c, 0, 59, 53
1, 118822, Note_off_c, 0, 55, 56
1, 118846, Note_on_c, 0, 60, 52
1, 118852, Note_on_c, 0, 56, 50
1, 119071, Note_on_c, 0, 72, 62
1, 119098, Note_off_c, 0, 72, 68
1, 119171, Note_on_c, 0, 72, 65
1, 119187, Note_off_c, 0, 72, 67
1, 119193, Note_off_c, 0, 56, 61
1, 119195, Note_off_c, 0, 60, 56
1, 119291, Note_on_c, 0, 79, 67
1, 119533, Note_on_c, 0, 59, 48
1, 119550, Note_on_c, 0, 55, 41
1, 119553, Note_off_c, 0, 79, 59
1, 119751, Note_off_c, 0, 59, 43
1, 119766, Note_off_c, 0, 55, 40
1, 119772, Note_on_c, 0, 56, 49
1, 119772, Note_on_c, 0, 60, 50
1, 119992, Note_on_c, 0, 72, 61
1, 120021, Note_off_c, 0, 72, 68
1, 120022, Note_off_c, 0, 60, 58
1, 120029, Note_off_c, 0, 56, 59
1, 120106, Note_on_c, 0, 72, 60
1, 120123, Note_off_c, 0, 72, 65
1, 120231, Note_on_c, 0, 79, 66
1, 120233, Note_on_c, 0, 55, 37
1, 120233, Note_on_c, 0, 59, 41
1, 120276, Note_off_c, 0, 79, 61
1, 120448, Note_off_c, 0, 55, 49
1, 120448, Note_off_c, 0, 59, 43
1, 120454, Note_on_c, 0, 72, 65
1, 120463, Note_on_c, 0, 60, 49
1, 120464, Note_on_c, 0, 56, 49
1, 120481, Note_off_c, 0, 72, 69
1, 120561, Note_on_c, 0, 72, 58
1, 120579, Note_off_c, 0, 72, 62
1, 120627, Note_off_c, 0, 60, 47
1, 120653, Note_off_c, 0, 56, 57
1, 120680, Note_on_c, 0, 79, 70
1, 120684, Note_on_c, 0, 59, 42
1, 120689, Note_on_c, 0, 55, 46
1, 120743, Note_off_c, 0, 79, 61
1, 120884, Note_off_c, 0, 55, 59
1, 120910, Note_on_c, 0, 72, 65
1, 120913, Note_off_c, 0, 59, 39
1, 120916, Note_on_c, 0, 60, 54
1, 120925, Note_on_c, 0, 56, 44
1, 120937, Note_off_c, 0, 72, 68
1, 121000, Note_on_c, 0, 72, 65
1, 121021, Note_off_c, 0, 72, 67
1, 121041, Note_off_c, 0, 60, 46
1, 121096, Note_off_c, 0, 56, 56
1, 121137, Note_on_c, 0, 59, 40
1, 121139, Note_on_c, 0, 79, 67
1, 121148, Note_on_c, 0, 55, 35
1, 121167, Control_c, 0, 67, 8
1, 121182, Control_c, 0, 67, 10
1, 121197, Control_c, 0, 67, 17
1, 121211, Control_c, 0, 67, 29
1, 121226, Control_c, 0, 67, 53
1, 121241, Control_c, 0, 67, 87
1, 121256, Control_c, 0, 67, 120
1, 121271, Control_c, 0, 67, 127
1, 121294, Note_off_c, 0, 79, 59
1, 121369, Note_off_c, 0, 55, 47
1, 121372, Note_off_c, 0, 59, 50
1, 121426, Note_on_c, 0, 79, 59
1, 121566, Note_off_c, 0, 79, 59
1, 121662, Note_on_c, 0, 79, 61
1, 121796, Note_off_c, 0, 79, 59
1, 121897, Note_on_c, 0, 79, 65
1, 122015, Note_off_c, 0, 79, 58
1, 122127, Note_on_c, 0, 79, 60
1, 122233, Note_on_c, 0, 78, 61
1, 122256, Note_off_c, 0, 79, 35
1, 122335, Note_off_c, 0, 78, 61
1, 122358, Note_on_c, 0, 77, 62
1, 122449, Note_off_c, 0, 77, 54
1, 122466, Note_on_c, 0, 74, 60
1, 122556, Note_off_c, 0, 74, 51
1, 122591, Note_on_c, 0, 79, 60
1, 122696, Note_on_c, 0, 78, 65
1, 122710, Note_off_c, 0, 79, 49
1, 122791, Note_off_c, 0, 78, 60
1, 122803, Note_on_c, 0, 77, 57
1, 122870, Note_off_c, 0, 77, 56
1, 122902, Note_on_c, 0, 74, 60
1, 123039, Note_off_c, 0, 74, 35
1, 123054, Note_on_c, 0, 72, 64
1, 123061, Note_on_c, 0, 63, 45
1, 123130, Control_c, 0, 64, 44
1, 123131, Note_off_c, 0, 63, 60
1, 123145, Control_c, 0, 64, 50
1, 123167, Note_on_c, 0, 67, 49
1, 123175, Control_c, 0, 64, 50
1, 123190, Control_c, 0, 64, 51
1, 123220, Control_c, 0, 64, 51
1, 123224, Note_off_c, 0, 67, 56
1, 123235, Control_c, 0, 64, 50
1, 123250, Control_c, 0, 64, 50
1, 123265, Control_c, 0, 64, 48
1, 123269, Note_on_c, 0, 63, 53
1, 123280, Control_c, 0, 64, 47
1, 123295, Control_c, 0, 64, 47
1, 123309, Control_c, 0, 64, 46
1, 123310, Note_off_c, 0, 72, 60
1, 123324, Control_c, 0, 64, 46
1, 123328, Note_off_c, 0, 63, 59
1, 123339, Control_c, 0, 64, 45
1, 123350, Note_on_c, 0, 74, 55
1, 123353, Control_c, 0, 64, 44
1, 123367, Note_on_c, 0, 67, 49
1, 123368, Control_c, 0, 64, 43
1, 123383, Control_c, 0, 64, 41
1, 123398, Control_c, 0, 64, 40
1, 123407, Note_off_c, 0, 74, 60
1, 123414, Note_on_c, 0, 72, 65
1, 123422, Note_off_c, 0, 67, 56
1, 123427, Control_c, 0, 64, 39
1, 123442, Control_c, 0, 64, 37
1, 123456, Note_on_c, 0, 71, 59
1, 123457, Control_c, 0, 64, 30
1, 123458, Note_off_c, 0, 72, 61
1, 123467, Note_on_c, 0, 62, 56
1, 123472, Control_c, 0, 64, 0
1, 123507, Note_off_c, 0, 71, 60
1, 123568, Note_off_c, 0, 62, 52
1, 123576, Note_on_c, 0, 67, 49
1, 123665, Note_off_c, 0, 67, 54
1, 123696, Note_on_c, 0, 63, 51
1, 123697, Note_on_c, 0, 72, 70
1, 123758, Note_off_c, 0, 63, 59
1, 123768, Note_off_c, 0, 72, 61
1, 123802, Note_on_c, 0, 67, 54
1, 123875, Note_off_c, 0, 67, 47
1, 123928, Note_on_c, 0, 73, 69
1, 123935, Note_on_c, 0, 64, 57
1, 123982, Note_off_c, 0, 64, 61
1, 124030, Note_on_c, 0, 67, 52
1, 124098, Note_off_c, 0, 67, 51
1, 124156, Note_on_c, 0, 64, 49
1, 124208, Note_off_c, 0, 64, 58
1, 124249, Note_on_c, 0, 67, 46
1, 124330, Note_off_c, 0, 67, 49
1, 124369, Note_off_c, 0, 73, 54
1, 124378, Note_on_c, 0, 74, 51
1, 124383, Note_on_c, 0, 65, 53
1, 124437, Note_off_c, 0, 65, 59
1, 124475, Note_on_c, 0, 67, 47
1, 124503, Note_off_c, 0, 74, 64
1, 124557, Note_off_c, 0, 67, 50
1, 124597, Note_on_c, 0, 65, 48
1, 124671, Note_off_c, 0, 65, 57
1, 124702, Note_on_c, 0, 67, 51
1, 124759, Note_off_c, 0, 67, 52
1, 124827, Note_on_c, 0, 62, 55
1, 124830, Note_on_c, 0, 53, 72
1, 124917, Note_off_c, 0, 62, 58
1, 124937, Note_on_c, 0, 67, 42
1, 124994, Note_off_c, 0, 67, 56
1, 125048, Note_on_c, 0, 62, 57
1, 125084, Note_off_c, 0, 53, 61
1, 125118, Note_on_c, 0, 52, 52
1, 125125, Note_off_c, 0, 62, 54
1, 125142, Note_on_c, 0, 67, 57
1, 125155, Note_off_c, 0, 52, 66
1, 125164, Note_on_c, 0, 53, 64
1, 125192, Note_off_c, 0, 67, 55
1, 125221, Note_off_c, 0, 53, 65
1, 125224, Note_on_c, 0, 55, 65
1, 125241, Note_on_c, 0, 62, 55
1, 125337, Note_off_c, 0, 55, 61
1, 125349, Note_on_c, 0, 53, 70
1, 125354, Note_off_c, 0, 62, 52
1, 125376, Note_on_c, 0, 67, 49
1, 125444, Note_off_c, 0, 67, 54
1, 125459, Note_on_c, 0, 51, 65
1, 125460, Note_off_c, 0, 53, 61
1, 125463, Note_on_c, 0, 63, 52
1, 125531, Note_off_c, 0, 51, 62
1, 125552, Note_on_c, 0, 50, 70
1, 125558, Note_off_c, 0, 63, 56
1, 125567, Note_on_c, 0, 67, 59
1, 125658, Note_off_c, 0, 67, 52
1, 125696, Note_on_c, 0, 48, 75
1, 125708, Note_off_c, 0, 50, 33
1, 125712, Note_on_c, 0, 65, 53
1, 125772, Note_off_c, 0, 65, 57
1, 125807, Note_on_c, 0, 67, 43
1, 125866, Note_off_c, 0, 67, 55
1, 125933, Note_on_c, 0, 62, 50
1, 126002, Note_off_c, 0, 62, 55
1, 126058, Note_on_c, 0, 67, 39
1, 126128, Note_off_c, 0, 67, 36
1, 126164, Note_on_c, 0, 47, 52
1, 126171, Note_off_c, 0, 48, 57
1, 126187, Note_on_c, 0, 65, 53
1, 126252, Note_off_c, 0, 65, 56
1, 126271, Note_off_c, 0, 47, 64
1, 126286, Note_on_c, 0, 67, 48
1, 126347, Note_off_c, 0, 67, 52
1, 126398, Note_on_c, 0, 62, 50
1, 126446, Note_off_c, 0, 62, 59
1, 126494, Note_on_c, 0, 67, 52
1, 126555, Note_off_c, 0, 67, 52
1, 126614, Note_on_c, 0, 59, 56
1, 126617, Note_on_c, 0, 74, 62
1, 126675, Note_off_c, 0, 59, 58
1, 126720, Note_on_c, 0, 67, 50
1, 126775, Note_off_c, 0, 67, 53
1, 126799, Note_off_c, 0, 74, 59
1, 126845, Note_on_c, 0, 75, 62
1, 126850, Note_on_c, 0, 59, 52
1, 126887, Note_off_c, 0, 75, 64
1, 126896, Note_off_c, 0, 59, 60
1, 126906, Note_on_c, 0, 74, 66
1, 126929, Note_off_c, 0, 74, 67
1, 126940, Note_on_c, 0, 72, 63
1, 126947, Note_on_c, 0, 67, 44
1, 126967, Note_off_c, 0, 72, 61
1, 126980, Note_on_c, 0, 74, 65
1, 127001, Note_off_c, 0, 67, 57
1, 127033, Note_on_c, 0, 75, 79
1, 127042, Note_off_c, 0, 74, 63
1, 127057, Note_on_c, 0, 60, 58
1, 127079, Note_off_c, 0, 75, 64
1, 127116, Note_off_c, 0, 60, 59
1, 127161, Note_on_c, 0, 67, 53
1, 127224, Note_off_c, 0, 67, 50
1, 127266, Note_on_c, 0, 77, 78
1, 127282, Note_on_c, 0, 62, 54
1, 127319, Note_off_c, 0, 77, 61
1, 127336, Note_off_c, 0, 62, 57
1, 127371, Note_on_c, 0, 67, 46
1, 127446, Note_off_c, 0, 67, 47
1, 127495, Note_on_c, 0, 78, 77
1, 127502, Note_on_c, 0, 62, 49
1, 127512, Control_c, 0, 64, 57
1, 127527, Control_c, 0, 64, 68
1, 127549, Control_c, 0, 64, 75
1, 127564, Note_off_c, 0, 62, 57
1, 127564, Control_c, 0, 64, 79
1, 127579, Control_c, 0, 64, 81
1, 127594, Control_c, 0, 64, 82
1, 127605, Note_on_c, 0, 67, 48
1, 127608, Control_c, 0, 64, 83
1, 127638, Control_c, 0, 64, 83
1, 127680, Note_off_c, 0, 67, 46
1, 127732, Note_on_c, 0, 62, 49
1, 127780, Note_off_c, 0, 62, 54
1, 127822, Note_on_c, 0, 67, 51
1, 127830, Control_c, 0, 64, 83
1, 127860, Control_c, 0, 64, 82
1, 127874, Control_c, 0, 64, 81
1, 127889, Control_c, 0, 64, 78
1, 127904, Control_c, 0, 64, 75
1, 127908, Note_off_c, 0, 67, 37
1, 127918, Control_c, 0, 64, 69
1, 127933, Control_c, 0, 64, 52
1, 127948, Control_c, 0, 64, 0
1, 127960, Note_on_c, 0, 63, 48
1, 127960, Note_off_c, 0, 78, 59
1, 127960, Note_on_c, 0, 79, 61
1, 128022, Note_off_c, 0, 63, 59
1, 128057, Note_on_c, 0, 67, 46
1, 128072, Note_off_c, 0, 79, 62
1, 128125, Note_off_c, 0, 67, 50
1, 128169, Note_on_c, 0, 63, 51
1, 128231, Note_off_c, 0, 63, 60
1, 128261, Note_on_c, 0, 67, 54
1, 128371, Note_off_c, 0, 67, 51
1, 128401, Note_on_c, 0, 63, 45
1, 128411, Note_on_c, 0, 55, 70
1, 128467, Note_off_c, 0, 63, 61
1, 128502, Note_on_c, 0, 67, 52
1, 128555, Note_off_c, 0, 67, 53
1, 128614, Note_on_c, 0, 60, 55
1, 128679, Note_off_c, 0, 55, 59
1, 128716, Note_on_c, 0, 54, 59
1, 128725, Note_on_c, 0, 67, 47
1, 128733, Note_off_c, 0, 60, 52
1, 128756, Note_off_c, 0, 54, 62
1, 128772, Note_off_c, 0, 67, 58
1, 128773, Note_on_c, 0, 55, 64
1, 128796, Note_on_c, 0, 63, 58
1, 128816, Note_on_c, 0, 56, 71
1, 128836, Note_off_c, 0, 55, 61
1, 128893, Note_off_c, 0, 63, 60
1, 128914, Note_on_c, 0, 67, 47
1, 128923, Note_on_c, 0, 55, 73
1, 128959, Note_off_c, 0, 56, 52
1, 128981, Note_off_c, 0, 67, 55
1, 128993, Note_off_c, 0, 55, 61
1, 129026, Note_on_c, 0, 53, 73
1, 129030, Note_on_c, 0, 60, 55
1, 129087, Note_off_c, 0, 53, 62
1, 129106, Note_off_c, 0, 60, 50
1, 129124, Note_on_c, 0, 51, 71
1, 129126, Note_on_c, 0, 67, 52
1, 129229, Note_off_c, 0, 67, 49
1, 129262, Note_on_c, 0, 50, 71
1, 129266, Note_off_c, 0, 51, 58
1, 129267, Note_on_c, 0, 65, 57
1, 129335, Note_off_c, 0, 65, 56
1, 129366, Note_on_c, 0, 67, 47
1, 129421, Note_off_c, 0, 67, 54
1, 129501, Note_on_c, 0, 62, 47
1, 129555, Note_off_c, 0, 62, 56
1, 129608, Note_on_c, 0, 67, 38
1, 129682, Note_off_c, 0, 67, 34
1, 129710, Note_off_c, 0, 50, 56
1, 129731, Note_on_c, 0, 48, 52
1, 129735, Note_on_c, 0, 63, 55
1, 129799, Note_off_c, 0, 63, 60
1, 129801, Note_off_c, 0, 48, 64
1, 129835, Note_on_c, 0, 67, 50
1, 129907, Note_off_c, 0, 67, 46
1, 129963, Note_on_c, 0, 60, 53
1, 130010, Note_off_c, 0, 60, 57
1, 130054, Note_on_c, 0, 67, 54
1, 130166, Note_off_c, 0, 67, 52
1, 130189, Note_on_c, 0, 72, 87
1, 130190, Note_on_c, 0, 84, 90
1, 130196, Note_on_c, 0, 60, 59
1, 130196, Control_c, 0, 67, 123
1, 130199, Note_on_c, 0, 63, 54
1, 130211, Control_c, 0, 67, 97
1, 130226, Control_c, 0, 64, 67
1, 130226, Control_c, 0, 67, 66
1, 130239, Note_off_c, 0, 63, 64
1, 130241, Control_c, 0, 64, 74
1, 130241, Control_c, 0, 67, 35
1, 130248, Note_off_c, 0, 60, 53
1, 130256, Control_c, 0, 64, 82
1, 130256, Control_c, 0, 67, 14
1, 130270, Control_c, 0, 64, 85
1, 130270, Control_c, 0, 67, 0
1, 130281, Note_on_c, 0, 67, 66
1, 130285, Control_c, 0, 64, 86
1, 130300, Control_c, 0, 64, 88
1, 130314, Control_c, 0, 64, 89
1, 130329, Control_c, 0, 64, 91
1, 130344, Control_c, 0, 64, 93
1, 130359, Control_c, 0, 64, 94
1, 130374, Control_c, 0, 64, 96
1, 130387, Note_off_c, 0, 67, 57
1, 130388, Control_c, 0, 64, 97
1, 130399, Note_on_c, 0, 63, 57
1, 130403, Control_c, 0, 64, 98
1, 130404, Note_on_c, 0, 60, 46
1, 130419, Control_c, 0, 64, 99
1, 130434, Control_c, 0, 64, 100
1, 130449, Control_c, 0, 64, 101
1, 130459, Note_off_c, 0, 63, 62
1, 130467, Note_off_c, 0, 60, 55
1, 130470, Note_off_c, 0, 72, 55
1, 130479, Control_c, 0, 64, 102
1, 130494, Note_on_c, 0, 67, 71
1, 130502, Note_off_c, 0, 84, 63
1, 130560, Control_c, 0, 64, 102
1, 130626, Note_off_c, 0, 67, 55
1, 130634, Control_c, 0, 64, 99
1, 130639, Note_on_c, 0, 85, 92
1, 130642, Note_on_c, 0, 73, 85
1, 130647, Note_on_c, 0, 64, 63
1, 130649, Control_c, 0, 64, 88
1, 130650, Note_on_c, 0, 58, 66
1, 130664, Control_c, 0, 64, 71
1, 130679, Control_c, 0, 64, 0
1, 130723, Control_c, 0, 64, 42
1, 130724, Note_off_c, 0, 58, 60
1, 130737, Control_c, 0, 64, 66
1, 130740, Note_on_c, 0, 67, 68
1, 130740, Note_off_c, 0, 64, 60
1, 130752, Control_c, 0, 64, 74
1, 130767, Control_c, 0, 64, 82
1, 130782, Control_c, 0, 64, 86
1, 130797, Control_c, 0, 64, 87
1, 130811, Control_c, 0, 64, 88
1, 130826, Control_c, 0, 64, 90
1, 130841, Control_c, 0, 64, 91
1, 130843, Note_off_c, 0, 67, 58
1, 130856, Control_c, 0, 64, 92
1, 130860, Note_on_c, 0, 64, 63
1, 130860, Note_off_c, 0, 73, 57
1, 130866, Note_on_c, 0, 58, 56
1, 130870, Control_c, 0, 64, 93
1, 130887, Note_off_c, 0, 85, 57
1, 130900, Control_c, 0, 64, 93
1, 130929, Control_c, 0, 64, 94
1, 130930, Note_off_c, 0, 58, 57
1, 130944, Control_c, 0, 64, 94
1, 130952, Note_on_c, 0, 67, 72
1, 130960, Note_off_c, 0, 64, 60
1, 131019, Note_off_c, 0, 67, 59
1, 131019, Control_c, 0, 64, 94
1, 131034, Control_c, 0, 64, 87
1, 131048, Control_c, 0, 64, 71
1, 131063, Control_c, 0, 64, 0
1, 131072, Note_on_c, 0, 84, 94
1, 131074, Note_on_c, 0, 72, 87
1, 131078, Note_on_c, 0, 57, 58
1, 131081, Note_on_c, 0, 60, 63
1, 131123, Control_c, 0, 64, 64
1, 131137, Control_c, 0, 64, 73
1, 131138, Note_off_c, 0, 72, 61
1, 131152, Control_c, 0, 64, 81
1, 131156, Note_off_c, 0, 57, 59
1, 131167, Control_c, 0, 64, 83
1, 131171, Note_off_c, 0, 84, 63
1, 131174, Note_off_c, 0, 60, 60
1, 131175, Note_on_c, 0, 65, 67
1, 131182, Control_c, 0, 64, 84
1, 131224, Note_off_c, 0, 65, 61
1, 131257, Control_c, 0, 64, 83
1, 131272, Control_c, 0, 64, 81
1, 131294, Control_c, 0, 64, 75
1, 131309, Control_c, 0, 64, 64
1, 131323, Control_c, 0, 64, 0
1, 131344, Note_on_c, 0, 87, 94
1, 131348, Note_on_c, 0, 75, 86
1, 131352, Note_on_c, 0, 66, 79
1, 131357, Note_on_c, 0, 60, 62
1, 131363, Note_on_c, 0, 56, 66
1, 131501, Control_c, 0, 67, 9
1, 131513, Note_off_c, 0, 75, 62
1, 131516, Control_c, 0, 67, 13
1, 131531, Control_c, 0, 67, 21
1, 131546, Control_c, 0, 67, 38
1, 131549, Note_off_c, 0, 87, 58
1, 131552, Note_off_c, 0, 56, 64
1, 131557, Note_off_c, 0, 66, 64
1, 131560, Control_c, 0, 67, 62
1, 131565, Note_off_c, 0, 60, 60
1, 131575, Control_c, 0, 67, 91
1, 131590, Control_c, 0, 67, 124
1, 131605, Control_c, 0, 67, 127
1, 131762, Note_on_c, 0, 87, 57
1, 131877, Note_off_c, 0, 87, 47
1, 131889, Note_on_c, 0, 86, 58
1, 131958, Note_off_c, 0, 86, 59
1, 131994, Note_on_c, 0, 84, 52
1, 132101, Note_off_c, 0, 84, 42
1, 132117, Note_on_c, 0, 83, 67
1, 132173, Note_off_c, 0, 83, 55
1, 132214, Note_on_c, 0, 86, 62
1, 132347, Note_on_c, 0, 59, 45
1, 132360, Note_on_c, 0, 77, 59
1, 132369, Note_on_c, 0, 55, 39
1, 132393, Note_off_c, 0, 86, 42
1, 132404, Note_off_c, 0, 59, 55
1, 132557, Note_off_c, 0, 77, 55
1, 132578, Note_on_c, 0, 62, 49
1, 132581, Note_on_c, 0, 59, 44
1, 132688, Note_on_c, 0, 80, 68
1, 132712, Note_off_c, 0, 62, 56
1, 132745, Note_off_c, 0, 59, 56
1, 132751, Note_off_c, 0, 55, 38
1, 132813, Note_on_c, 0, 79, 63
1, 132821, Note_off_c, 0, 80, 62
1, 132876, Note_off_c, 0, 79, 59
1, 132914, Note_on_c, 0, 77, 61
1, 132981, Note_off_c, 0, 77, 62
1, 133029, Note_on_c, 0, 76, 67
1, 133085, Note_off_c, 0, 76, 61
1, 133129, Note_on_c, 0, 79, 60
1, 133263, Note_on_c, 0, 70, 66
1, 133268, Note_on_c, 0, 52, 46
1, 133273, Note_off_c, 0, 79, 46
1, 133281, Note_on_c, 0, 48, 43
1, 133325, Note_off_c, 0, 52, 61
1, 133484, Note_off_c, 0, 70, 55
1, 133505, Note_on_c, 0, 55, 54
1, 133513, Note_on_c, 0, 52, 45
1, 133615, Note_on_c, 0, 73, 66
1, 133639, Note_off_c, 0, 48, 42
1, 133674, Note_off_c, 0, 55, 55
1, 133675, Note_off_c, 0, 52, 64
1, 133704, Note_off_c, 0, 73, 53
1, 133725, Note_on_c, 0, 72, 67
1, 133812, Note_off_c, 0, 72, 62
1, 133818, Note_on_c, 0, 70, 70
1, 133892, Note_off_c, 0, 70, 60
1, 133934, Note_on_c, 0, 68, 66
1, 133949, Note_on_c, 0, 53, 55
1, 134005, Note_off_c, 0, 68, 64
1, 134029, Control_c, 0, 67, 122
1, 134038, Note_on_c, 0, 80, 72
1, 134044, Control_c, 0, 67, 114
1, 134059, Control_c, 0, 67, 105
1, 134074, Control_c, 0, 67, 96
1, 134088, Control_c, 0, 67, 86
1, 134103, Control_c, 0, 67, 73
1, 134118, Control_c, 0, 67, 58
1, 134127, Note_off_c, 0, 80, 58
1, 134133, Control_c, 0, 67, 46
1, 134146, Note_on_c, 0, 79, 70
1, 134148, Control_c, 0, 67, 36
1, 134162, Control_c, 0, 67, 27
1, 134177, Control_c, 0, 67, 18
1, 134192, Control_c, 0, 67, 9
1, 134193, Note_off_c, 0, 53, 60
1, 134207, Control_c, 0, 67, 0
1, 134250, Note_on_c, 0, 77, 73
1, 134261, Note_off_c, 0, 79, 54
1, 134377, Note_on_c, 0, 75, 68
1, 134392, Note_off_c, 0, 77, 53
1, 134466, Note_off_c, 0, 75, 61
1, 134476, Note_on_c, 0, 74, 64
1, 134581, Note_off_c, 0, 74, 61
1, 134591, Note_on_c, 0, 75, 65
1, 134666, Note_off_c, 0, 75, 61
1, 134679, Note_on_c, 0, 77, 67
1, 134798, Note_off_c, 0, 77, 49
1, 134829, Note_on_c, 0, 72, 72
1, 134846, Note_on_c, 0, 55, 26
1, 134911, Control_c, 0, 64, 56
1, 134926, Control_c, 0, 64, 64
1, 134941, Control_c, 0, 64, 66
1, 134971, Control_c, 0, 64, 66
1, 134985, Control_c, 0, 64, 67
1, 135000, Control_c, 0, 64, 67
1, 135015, Control_c, 0, 64, 68
1, 135067, Note_on_c, 0, 67, 45
1, 135077, Note_on_c, 0, 63, 45
1, 135082, Control_c, 0, 64, 68
1, 135126, Note_off_c, 0, 63, 58
1, 135134, Note_off_c, 0, 67, 58
1, 135290, Control_c, 0, 64, 68
1, 135305, Control_c, 0, 64, 64
1, 135320, Control_c, 0, 64, 28
1, 135325, Note_on_c, 0, 65, 57
1, 135332, Note_on_c, 0, 62, 45
1, 135334, Control_c, 0, 64, 0
1, 135408, Control_c, 0, 64, 46
1, 135423, Control_c, 0, 64, 64
1, 135438, Control_c, 0, 64, 67
1, 135440, Note_off_c, 0, 65, 61
1, 135453, Control_c, 0, 64, 67
1, 135468, Control_c, 0, 64, 68
1, 135482, Control_c, 0, 64, 69
1, 135491, Note_off_c, 0, 62, 60
1, 135497, Control_c, 0, 64, 70
1, 135512, Control_c, 0, 64, 72
1, 135526, Control_c, 0, 64, 74
1, 135529, Note_off_c, 0, 72, 59
1, 135532, Note_off_c, 0, 55, 40
1, 135538, Note_on_c, 0, 71, 59
1, 135541, Control_c, 0, 64, 74
1, 135545, Note_on_c, 0, 75, 53
1, 135556, Control_c, 0, 64, 75
1, 135609, Note_on_c, 0, 74, 67
1, 135614, Note_off_c, 0, 71, 58
1, 135630, Note_off_c, 0, 75, 61
1, 135643, Note_off_c, 0, 74, 62
1, 135749, Control_c, 0, 64, 71
1, 135763, Note_on_c, 0, 51, 58
1, 135764, Note_on_c, 0, 48, 61
1, 135764, Control_c, 0, 64, 61
1, 135767, Note_on_c, 0, 60, 87
1, 135767, Note_on_c, 0, 72, 86
1, 135786, Control_c, 0, 64, 0
1, 135824, Note_off_c, 0, 51, 59
1, 135845, Control_c, 0, 64, 48
1, 135854, Note_off_c, 0, 48, 61
1, 135856, Note_on_c, 0, 55, 64
1, 135860, Control_c, 0, 64, 67
1, 135875, Control_c, 0, 64, 72
1, 135889, Control_c, 0, 64, 76
1, 135904, Control_c, 0, 64, 77
1, 135919, Control_c, 0, 64, 78
1, 135934, Control_c, 0, 64, 78
1, 135948, Control_c, 0, 64, 79
1, 135956, Note_off_c, 0, 55, 53
1, 135963, Control_c, 0, 64, 79
1, 135972, Note_on_c, 0, 51, 57
1, 135981, Note_on_c, 0, 48, 56
1, 136040, Note_off_c, 0, 48, 59
1, 136045, Note_off_c, 0, 51, 61
1, 136047, Note_off_c, 0, 60, 47
1, 136070, Note_on_c, 0, 55, 71
1, 136090, Note_off_c, 0, 72, 60
1, 136138, Note_off_c, 0, 55, 53
1, 136186, Control_c, 0, 64, 75
1, 136201, Control_c, 0, 64, 65
1, 136208, Note_on_c, 0, 73, 89
1, 136209, Note_on_c, 0, 52, 60
1, 136211, Note_on_c, 0, 61, 88
1, 136212, Note_on_c, 0, 46, 64
1, 136216, Control_c, 0, 64, 0
1, 136274, Control_c, 0, 64, 62
1, 136289, Control_c, 0, 64, 68
1, 136293, Note_off_c, 0, 46, 58
1, 136300, Note_off_c, 0, 52, 61
1, 136302, Note_on_c, 0, 55, 68
1, 136304, Control_c, 0, 64, 71
1, 136319, Control_c, 0, 64, 73
1, 136334, Control_c, 0, 64, 74
1, 136348, Control_c, 0, 64, 76
1, 136363, Control_c, 0, 64, 76
1, 136378, Control_c, 0, 64, 77
1, 136408, Note_off_c, 0, 55, 57
1, 136424, Note_on_c, 0, 46, 57
1, 136425, Note_on_c, 0, 52, 66
1, 136447, Note_off_c, 0, 61, 54
1, 136456, Note_off_c, 0, 73, 49
1, 136482, Control_c, 0, 64, 77
1, 136486, Note_off_c, 0, 46, 60
1, 136516, Note_on_c, 0, 55, 75
1, 136534, Note_off_c, 0, 52, 64
1, 136592, Note_off_c, 0, 55, 62
1, 136608, Control_c, 0, 64, 75
1, 136623, Control_c, 0, 64, 64
1, 136638, Control_c, 0, 64, 0
1, 136646, Note_on_c, 0, 72, 92
1, 136647, Note_on_c, 0, 60, 90
1, 136653, Note_on_c, 0, 45, 63
1, 136657, Note_on_c, 0, 48, 64
1, 136712, Control_c, 0, 64, 53
1, 136716, Note_off_c, 0, 45, 63
1, 136717, Note_off_c, 0, 60, 57
1, 136727, Control_c, 0, 64, 66
1, 136737, Note_off_c, 0, 48, 64
1, 136738, Note_on_c, 0, 53, 70
1, 136739, Note_off_c, 0, 72, 64
1, 136742, Control_c, 0, 64, 69
1, 136756, Control_c, 0, 64, 70
1, 136781, Note_off_c, 0, 53, 66
1, 136831, Control_c, 0, 64, 68
1, 136846, Control_c, 0, 64, 63
1, 136861, Control_c, 0, 64, 0
1, 136895, Note_on_c, 0, 48, 67
1, 136897, Note_on_c, 0, 63, 94
1, 136897, Note_on_c, 0, 75, 91
1, 136900, Note_on_c, 0, 54, 79
1, 136906, Note_on_c, 0, 44, 70
1, 137028, Note_off_c, 0, 63, 62
1, 137085, Note_off_c, 0, 75, 60
1, 137159, Note_off_c, 0, 44, 63
1, 137159, Note_off_c, 0, 54, 60
1, 137159, Note_off_c, 0, 48, 62
1, 137279, Note_on_c, 0, 75, 60
1, 137401, Note_off_c, 0, 75, 55
1, 137412, Note_on_c, 0, 74, 64
1, 137479, Note_off_c, 0, 74, 61
1, 137517, Note_on_c, 0, 72, 65
1, 137576, Note_off_c, 0, 72, 65
1, 137633, Note_on_c, 0, 71, 69
1, 137689, Note_off_c, 0, 71, 54
1, 137724, Note_on_c, 0, 74, 60
1, 137864, Note_on_c, 0, 47, 50
1, 137864, Note_on_c, 0, 65, 64
1, 137869, Note_on_c, 0, 43, 48
1, 137886, Note_off_c, 0, 74, 28
1, 137916, Note_off_c, 0, 47, 58
1, 138073, Note_off_c, 0, 65, 48
1, 138092, Note_on_c, 0, 47, 50
1, 138095, Note_on_c, 0, 50, 50
1, 138190, Note_on_c, 0, 68, 71
1, 138234, Note_off_c, 0, 50, 58
1, 138274, Note_off_c, 0, 47, 58
1, 138298, Note_on_c, 0, 67, 66
1, 138301, Note_off_c, 0, 43, 42
1, 138306, Note_off_c, 0, 68, 61
1, 138359, Note_off_c, 0, 67, 57
1, 138397, Note_on_c, 0, 65, 63
1, 138457, Note_off_c, 0, 65, 65
1, 138508, Note_on_c, 0, 64, 67
1, 138559, Note_off_c, 0, 64, 60
1, 138599, Note_on_c, 0, 67, 60
1, 138727, Note_on_c, 0, 58, 66
1, 138734, Note_on_c, 0, 40, 50
1, 138747, Note_on_c, 0, 36, 42
1, 138789, Note_off_c, 0, 67, 32
1, 138808, Note_off_c, 0, 40, 61
1, 138957, Note_off_c, 0, 58, 57
1, 138974, Note_on_c, 0, 40, 53
1, 138974, Note_on_c, 0, 43, 62
1, 139078, Note_on_c, 0, 61, 68
1, 139103, Note_off_c, 0, 43, 58
1, 139137, Note_off_c, 0, 40, 57
1, 139145, Note_off_c, 0, 36, 54
1, 139192, Note_on_c, 0, 60, 66
1, 139203, Note_off_c, 0, 61, 59
1, 139252, Note_off_c, 0, 60, 61
1, 139286, Note_on_c, 0, 58, 70
1, 139329, Note_off_c, 0, 58, 63
1, 139398, Note_on_c, 0, 41, 80
1, 139402, Note_on_c, 0, 56, 72
1, 139407, Note_on_c, 0, 29, 66
1, 139459, Note_off_c, 0, 56, 63
1, 139464, Note_on_c, 0, 60, 70
1, 139497, Note_off_c, 0, 60, 63
1, 139544, Note_on_c, 0, 52, 74
1, 139604, Note_off_c, 0, 52, 57
1, 139621, Note_on_c, 0, 53, 71
1, 139672, Note_off_c, 0, 53, 66
1, 139684, Note_on_c, 0, 56, 68
1, 139732, Note_off_c, 0, 56, 62
1, 139760, Note_on_c, 0, 47, 79
1, 139798, Note_off_c, 0, 41, 61
1, 139817, Note_off_c, 0, 47, 60
1, 139827, Note_on_c, 0, 48, 70
1, 139886, Note_off_c, 0, 48, 64
1, 139893, Note_on_c, 0, 53, 71
1, 139908, Note_off_c, 0, 29, 60
1, 139929, Note_off_c, 0, 53, 66
1, 139967, Note_on_c, 0, 43, 67
1, 140017, Note_off_c, 0, 43, 54
1, 140038, Note_on_c, 0, 44, 64
1, 140099, Note_off_c, 0, 44, 63
1, 140106, Note_on_c, 0, 48, 71
1, 140158, Note_off_c, 0, 48, 57
1, 140185, Note_on_c, 0, 40, 66
1, 140232, Note_off_c, 0, 40, 60
1, 140242, Note_on_c, 0, 41, 77
1, 140300, Note_off_c, 0, 41, 64
1, 140345, Note_on_c, 0, 36, 69
1, 140385, Note_off_c, 0, 36, 67
1, 140396, Note_on_c, 0, 41, 62
1, 140462, Note_off_c, 0, 41, 65
1, 140474, Note_on_c, 0, 44, 61
1, 140508, Note_off_c, 0, 44, 62
1, 140537, Note_on_c, 0, 41, 62
1, 140598, Note_off_c, 0, 41, 57
1, 140602, Note_on_c, 0, 44, 69
1, 140665, Note_off_c, 0, 44, 64
1, 140680, Note_on_c, 0, 48, 65
1, 140732, Note_off_c, 0, 48, 64
1, 140742, Note_on_c, 0, 44, 66
1, 140808, Note_off_c, 0, 44, 63
1, 140810, Note_on_c, 0, 48, 48
1, 140859, Note_off_c, 0, 48, 66
1, 140870, Note_on_c, 0, 53, 70
1, 140903, Note_off_c, 0, 53, 66
1, 140948, Note_on_c, 0, 48, 71
1, 140990, Note_off_c, 0, 48, 62
1, 141011, Note_on_c, 0, 53, 69
1, 141076, Note_off_c, 0, 53, 65
1, 141084, Note_on_c, 0, 56, 69
1, 141118, Note_off_c, 0, 56, 65
1, 141157, Note_on_c, 0, 53, 62
1, 141195, Note_off_c, 0, 53, 56
1, 141211, Note_on_c, 0, 56, 71
1, 141275, Note_off_c, 0, 56, 63
1, 141285, Note_on_c, 0, 60, 70
1, 141334, Note_off_c, 0, 60, 60
1, 141339, Note_on_c, 0, 56, 68
1, 141401, Note_off_c, 0, 56, 63
1, 141407, Note_on_c, 0, 60, 55
1, 141455, Note_off_c, 0, 60, 62
1, 141465, Note_on_c, 0, 65, 68
1, 141492, Note_off_c, 0, 65, 69
1, 141548, Note_on_c, 0, 60, 62
1, 141589, Note_off_c, 0, 60, 60
1, 141598, Note_on_c, 0, 65, 75
1, 141654, Note_off_c, 0, 65, 63
1, 141669, Note_on_c, 0, 68, 72
1, 141696, Note_off_c, 0, 68, 68
1, 141738, Note_on_c, 0, 65, 62
1, 141785, Note_off_c, 0, 65, 53
1, 141801, Note_on_c, 0, 68, 75
1, 141869, Note_off_c, 0, 68, 63
1, 141875, Note_on_c, 0, 72, 69
1, 141924, Note_off_c, 0, 72, 63
1, 141932, Note_on_c, 0, 68, 72
1, 141992, Note_off_c, 0, 68, 65
1, 141995, Note_on_c, 0, 72, 61
1, 142039, Note_off_c, 0, 72, 66
1, 142048, Note_on_c, 0, 77, 72
1, 142074, Note_off_c, 0, 77, 66
1, 142129, Note_on_c, 0, 72, 69
1, 142159, Note_off_c, 0, 72, 63
1, 142188, Note_on_c, 0, 77, 74
1, 142248, Note_off_c, 0, 77, 60
1, 142256, Note_on_c, 0, 80, 70
1, 142291, Note_off_c, 0, 80, 62
1, 142323, Note_on_c, 0, 77, 58
1, 142363, Note_off_c, 0, 77, 60
1, 142394, Note_on_c, 0, 80, 65
1, 142414, Note_off_c, 0, 80, 67
1, 142525, Control_c, 0, 67, 8
1, 142555, Control_c, 0, 67, 8
1, 142614, Control_c, 0, 67, 9
1, 142617, Note_on_c, 0, 84, 51
1, 142629, Control_c, 0, 67, 10
1, 142644, Control_c, 0, 67, 11
1, 142659, Control_c, 0, 67, 15
1, 142674, Control_c, 0, 67, 23
1, 142688, Control_c, 0, 67, 37
1, 142703, Control_c, 0, 67, 54
1, 142717, Control_c, 0, 67, 75
1, 142732, Control_c, 0, 67, 92
1, 142737, Note_on_c, 0, 79, 55
1, 142747, Note_off_c, 0, 84, 43
1, 142747, Control_c, 0, 67, 107
1, 142762, Control_c, 0, 67, 122
1, 142777, Control_c, 0, 67, 127
1, 142841, Note_off_c, 0, 79, 59
1, 142871, Note_on_c, 0, 80, 59
1, 142945, Note_off_c, 0, 80, 60
1, 142992, Note_on_c, 0, 76, 57
1, 143089, Note_off_c, 0, 76, 41
1, 143109, Note_on_c, 0, 77, 59
1, 143172, Note_off_c, 0, 77, 50
1, 143217, Note_on_c, 0, 73, 58
1, 143329, Note_off_c, 0, 73, 53
1, 143352, Note_on_c, 0, 74, 58
1, 143438, Note_off_c, 0, 74, 58
1, 143461, Note_on_c, 0, 80, 62
1, 143575, Note_off_c, 0, 80, 56
1, 143577, Note_on_c, 0, 77, 58
1, 143663, Note_off_c, 0, 77, 43
1, 143686, Note_on_c, 0, 74, 53
1, 143720, Note_off_c, 0, 74, 67
1, 143809, Note_on_c, 0, 60, 46
1, 143819, Note_on_c, 0, 55, 37
1, 143819, Note_on_c, 0, 63, 43
1, 143927, Note_on_c, 0, 67, 58
1, 143941, Control_c, 0, 67, 126
1, 143956, Control_c, 0, 67, 115
1, 143971, Control_c, 0, 67, 103
1, 143986, Control_c, 0, 67, 92
1, 143994, Note_off_c, 0, 67, 56
1, 144001, Control_c, 0, 67, 83
1, 144024, Control_c, 0, 67, 76
1, 144038, Control_c, 0, 67, 68
1, 144053, Control_c, 0, 67, 61
1, 144061, Note_on_c, 0, 79, 59
1, 144068, Control_c, 0, 67, 52
1, 144083, Control_c, 0, 67, 44
1, 144097, Control_c, 0, 67, 38
1, 144112, Control_c, 0, 67, 33
1, 144127, Control_c, 0, 67, 29
1, 144142, Control_c, 0, 67, 24
1, 144147, Note_off_c, 0, 79, 62
1, 144157, Control_c, 0, 67, 20
1, 144160, Note_on_c, 0, 78, 67
1, 144171, Control_c, 0, 67, 17
1, 144186, Control_c, 0, 67, 14
1, 144201, Control_c, 0, 67, 11
1, 144216, Control_c, 0, 67, 8
1, 144231, Control_c, 0, 67, 0
1, 144257, Note_off_c, 0, 78, 59
1, 144285, Note_on_c, 0, 77, 65
1, 144382, Note_off_c, 0, 63, 56
1, 144385, Note_off_c, 0, 55, 42
1, 144391, Note_on_c, 0, 76, 64
1, 144394, Note_off_c, 0, 77, 53
1, 144421, Note_off_c, 0, 60, 51
1, 144510, Note_off_c, 0, 76, 62
1, 144515, Note_on_c, 0, 75, 60
1, 144603, Note_on_c, 0, 74, 63
1, 144603, Note_off_c, 0, 75, 63
1, 144645, Note_off_c, 0, 74, 61
1, 144736, Note_on_c, 0, 63, 44
1, 144743, Note_on_c, 0, 55, 40
1, 144743, Note_on_c, 0, 74, 61
1, 144855, Note_off_c, 0, 74, 62
1, 144857, Note_off_c, 0, 63, 60
1, 144859, Note_on_c, 0, 72, 62
1, 144867, Note_on_c, 0, 67, 46
1, 144897, Note_off_c, 0, 72, 62
1, 144914, Note_off_c, 0, 67, 59
1, 144986, Note_on_c, 0, 63, 49
1, 144995, Note_on_c, 0, 72, 67
1, 145069, Note_off_c, 0, 63, 61
1, 145077, Note_on_c, 0, 67, 48
1, 145139, Note_off_c, 0, 67, 54
1, 145205, Note_on_c, 0, 65, 57
1, 145266, Note_off_c, 0, 65, 47
1, 145302, Note_on_c, 0, 67, 51
1, 145335, Control_c, 0, 67, 8
1, 145342, Note_off_c, 0, 72, 60
1, 145366, Note_off_c, 0, 67, 47
1, 145427, Note_on_c, 0, 65, 58
1, 145429, Note_on_c, 0, 75, 53
1, 145438, Control_c, 0, 67, 8
1, 145443, Note_on_c, 0, 71, 45
1, 145467, Note_off_c, 0, 55, 41
1, 145474, Note_off_c, 0, 75, 61
1, 145479, Note_off_c, 0, 65, 60
1, 145479, Note_off_c, 0, 71, 56
1, 145521, Note_on_c, 0, 67, 46
1, 145531, Note_on_c, 0, 74, 57
1, 145577, Note_off_c, 0, 67, 55
1, 145591, Note_off_c, 0, 74, 53
1, 145652, Note_on_c, 0, 60, 55
1, 145658, Note_on_c, 0, 72, 61
1, 145708, Note_off_c, 0, 60, 57
1, 145764, Note_on_c, 0, 67, 50
1, 145789, Note_off_c, 0, 72, 60
1, 145813, Note_off_c, 0, 67, 56
1, 145869, Note_on_c, 0, 63, 53
1, 145917, Note_off_c, 0, 63, 63
1, 145983, Note_on_c, 0, 67, 41
1, 145985, Note_on_c, 0, 72, 61
1, 146035, Note_off_c, 0, 72, 55
1, 146037, Note_off_c, 0, 67, 45
1, 146091, Note_on_c, 0, 73, 67
1, 146097, Note_on_c, 0, 59, 51
1, 146099, Control_c, 0, 67, 9
1, 146146, Note_off_c, 0, 59, 59
1, 146168, Note_off_c, 0, 73, 56
1, 146183, Note_on_c, 0, 74, 62
1, 146200, Note_on_c, 0, 67, 44
1, 146210, Note_off_c, 0, 74, 69
1, 146255, Note_off_c, 0, 67, 55
1, 146326, Note_on_c, 0, 65, 49
1, 146371, Note_off_c, 0, 65, 63
1, 146422, Note_on_c, 0, 74, 66
1, 146431, Note_on_c, 0, 67, 44
1, 146484, Note_off_c, 0, 67, 57
1, 146503, Note_off_c, 0, 74, 57
1, 146541, Note_on_c, 0, 60, 54
1, 146542, Note_on_c, 0, 77, 69
1, 146597, Note_off_c, 0, 60, 54
1, 146622, Note_off_c, 0, 77, 52
1, 146644, Note_on_c, 0, 67, 45
1, 146645, Note_on_c, 0, 75, 63
1, 146677, Note_off_c, 0, 75, 64
1, 146698, Note_off_c, 0, 67, 56
1, 146746, Note_on_c, 0, 63, 52
1, 146795, Note_off_c, 0, 63, 63
1, 146835, Note_on_c, 0, 67, 56
1, 146855, Note_on_c, 0, 75, 69
1, 146869, Note_off_c, 0, 67, 65
1, 146922, Note_off_c, 0, 75, 61
1, 146969, Note_on_c, 0, 50, 57
1, 146972, Note_on_c, 0, 76, 73
1, 147055, Note_off_c, 0, 50, 49
1, 147072, Note_off_c, 0, 76, 59
1, 147075, Note_on_c, 0, 59, 54
1, 147080, Note_on_c, 0, 77, 68
1, 147114, Note_off_c, 0, 77, 58
1, 147130, Note_off_c, 0, 59, 51
1, 147182, Note_on_c, 0, 53, 51
1, 147196, Control_c, 0, 67, 9
1, 147234, Note_off_c, 0, 53, 63
1, 147282, Note_on_c, 0, 59, 53
1, 147304, Note_on_c, 0, 77, 73
1, 147334, Note_off_c, 0, 59, 56
1, 147377, Note_off_c, 0, 77, 57
1, 147405, Note_on_c, 0, 51, 59
1, 147417, Note_on_c, 0, 78, 79
1, 147479, Note_off_c, 0, 51, 61
1, 147505, Note_off_c, 0, 78, 45
1, 147513, Note_on_c, 0, 60, 59
1, 147515, Note_on_c, 0, 79, 72
1, 147545, Note_off_c, 0, 79, 62
1, 147577, Note_off_c, 0, 60, 54
1, 147626, Note_on_c, 0, 52, 56
1, 147701, Note_off_c, 0, 52, 63
1, 147727, Note_on_c, 0, 79, 81
1, 147732, Note_on_c, 0, 60, 59
1, 147805, Note_off_c, 0, 60, 53
1, 147805, Note_off_c, 0, 79, 61
1, 147850, Note_on_c, 0, 53, 65
1, 147858, Note_on_c, 0, 82, 81
1, 147947, Note_off_c, 0, 53, 64
1, 147950, Note_on_c, 0, 60, 59
1, 147959, Note_on_c, 0, 80, 77
1, 147960, Note_off_c, 0, 82, 63
1, 148001, Note_off_c, 0, 80, 62
1, 148008, Note_off_c, 0, 60, 59
1, 148068, Note_on_c, 0, 54, 53
1, 148147, Note_off_c, 0, 54, 59
1, 148165, Note_on_c, 0, 84, 77
1, 148174, Note_on_c, 0, 63, 61
1, 148195, Note_off_c, 0, 84, 62
1, 148228, Note_off_c, 0, 63, 51
1, 148285, Note_on_c, 0, 55, 57
1, 148299, Note_on_c, 0, 83, 81
1, 148349, Note_off_c, 0, 55, 62
1, 148353, Note_off_c, 0, 83, 60
1, 148360, Control_c, 0, 64, 10
1, 148375, Control_c, 0, 64, 36
1, 148388, Note_on_c, 0, 63, 54
1, 148388, Note_on_c, 0, 72, 66
1, 148404, Control_c, 0, 64, 40
1, 148420, Note_off_c, 0, 72, 65
1, 148434, Control_c, 0, 64, 37
1, 148443, Note_off_c, 0, 63, 55
1, 148449, Control_c, 0, 64, 33
1, 148463, Control_c, 0, 64, 28
1, 148478, Control_c, 0, 64, 19
1, 148493, Control_c, 0, 64, 0
1, 148494, Note_on_c, 0, 60, 57
1, 148520, Note_on_c, 0, 72, 74
1, 148548, Note_off_c, 0, 60, 59
1, 148597, Note_on_c, 0, 63, 57
1, 148634, Control_c, 0, 67, 9
1, 148645, Note_off_c, 0, 63, 60
1, 148712, Note_on_c, 0, 55, 57
1, 148782, Note_off_c, 0, 72, 61
1, 148813, Note_off_c, 0, 55, 46
1, 148826, Note_on_c, 0, 65, 57
1, 148871, Control_c, 0, 67, 9
1, 148873, Note_off_c, 0, 65, 56
1, 148919, Note_on_c, 0, 75, 65
1, 148929, Note_on_c, 0, 62, 58
1, 148967, Note_off_c, 0, 62, 62
1, 148971, Note_off_c, 0, 75, 50
1, 149005, Note_on_c, 0, 65, 64
1, 149014, Note_on_c, 0, 74, 67
1, 149035, Note_off_c, 0, 65, 67
1, 149045, Note_off_c, 0, 74, 63
1, 149140, Note_on_c, 0, 72, 79
1, 149145, Note_on_c, 0, 48, 68
1, 149166, Control_c, 0, 67, 10
1, 149175, Note_off_c, 0, 72, 67
1, 149247, Note_on_c, 0, 72, 67
1, 149262, Note_on_c, 0, 55, 56
1, 149281, Note_off_c, 0, 72, 70
1, 149303, Note_off_c, 0, 48, 34
1, 149348, Note_off_c, 0, 55, 60
1, 149364, Note_on_c, 0, 72, 79
1, 149366, Note_on_c, 0, 51, 57
1, 149387, Note_off_c, 0, 72, 69
1, 149396, Note_on_c, 0, 74, 65
1, 149442, Note_off_c, 0, 51, 59
1, 149454, Note_off_c, 0, 74, 64
1, 149455, Note_on_c, 0, 72, 66
1, 149471, Note_on_c, 0, 55, 62
1, 149479, Note_off_c, 0, 72, 70
1, 149485, Note_on_c, 0, 71, 74
1, 149500, Control_c, 0, 67, 9
1, 149517, Note_off_c, 0, 71, 61
1, 149537, Note_on_c, 0, 72, 58
1, 149558, Note_off_c, 0, 55, 62
1, 149559, Control_c, 0, 67, 10
1, 149572, Note_off_c, 0, 72, 45
1, 149582, Note_on_c, 0, 74, 82
1, 149591, Note_on_c, 0, 47, 66
1, 149610, Note_off_c, 0, 74, 64
1, 149685, Note_off_c, 0, 47, 53
1, 149702, Note_on_c, 0, 55, 56
1, 149705, Note_on_c, 0, 74, 78
1, 149724, Note_off_c, 0, 74, 73
1, 149786, Note_off_c, 0, 55, 60
1, 149812, Note_on_c, 0, 53, 61
1, 149814, Note_on_c, 0, 74, 74
1, 149855, Note_off_c, 0, 74, 66
1, 149861, Note_on_c, 0, 75, 71
1, 149885, Note_off_c, 0, 53, 61
1, 149898, Note_off_c, 0, 75, 61
1, 149909, Note_on_c, 0, 55, 60
1, 149912, Note_on_c, 0, 74, 62
1, 149941, Note_on_c, 0, 72, 51
1, 149971, Note_off_c, 0, 72, 52
1, 149986, Note_off_c, 0, 55, 59
1, 149995, Note_on_c, 0, 75, 81
1, 150015, Note_off_c, 0, 74, 63
1, 150018, Note_on_c, 0, 48, 65
1, 150040, Note_off_c, 0, 75, 63
1, 150128, Note_on_c, 0, 75, 81
1, 150142, Note_on_c, 0, 55, 55
1, 150152, Note_off_c, 0, 48, 60
1, 150156, Note_off_c, 0, 75, 65
1, 150226, Note_off_c, 0, 55, 63
1, 150235, Control_c, 0, 67, 9
1, 150236, Note_on_c, 0, 51, 58
1, 150245, Note_on_c, 0, 75, 75
1, 150284, Note_off_c, 0, 75, 66
1, 150291, Note_on_c, 0, 77, 74
1, 150305, Note_off_c, 0, 51, 59
1, 150309, Control_c, 0, 67, 10
1, 150337, Note_off_c, 0, 77, 58
1, 150342, Note_on_c, 0, 75, 66
1, 150343, Note_on_c, 0, 55, 56
1, 150385, Note_on_c, 0, 74, 55
1, 150392, Note_off_c, 0, 55, 60
1, 150416, Note_off_c, 0, 74, 53
1, 150433, Note_on_c, 0, 77, 79
1, 150439, Note_on_c, 0, 50, 63
1, 150446, Note_off_c, 0, 75, 63
1, 150457, Note_off_c, 0, 77, 64
1, 150488, Control_c, 0, 67, 10
1, 150549, Note_on_c, 0, 59, 58
1, 150552, Note_on_c, 0, 77, 81
1, 150574, Note_off_c, 0, 77, 66
1, 150633, Note_off_c, 0, 59, 56
1, 150636, Control_c, 0, 67, 10
1, 150652, Note_off_c, 0, 50, 23
1, 150656, Note_on_c, 0, 55, 60
1, 150666, Control_c, 0, 67, 9
1, 150668, Note_on_c, 0, 77, 60
1, 150687, Note_on_c, 0, 79, 68
1, 150687, Note_off_c, 0, 77, 63
1, 150736, Note_off_c, 0, 79, 62
1, 150740, Note_off_c, 0, 55, 62
1, 150749, Note_on_c, 0, 77, 68
1, 150758, Note_on_c, 0, 59, 63
1, 150780, Note_on_c, 0, 75, 77
1, 150784, Note_off_c, 0, 77, 64
1, 150800, Note_off_c, 0, 59, 61
1, 150831, Note_off_c, 0, 75, 65
1, 150832, Note_on_c, 0, 77, 70
1, 150862, Note_off_c, 0, 77, 64
1, 150901, Note_on_c, 0, 79, 85
1, 150916, Note_on_c, 0, 51, 60
1, 150917, Note_on_c, 0, 60, 63
1, 150940, Control_c, 0, 67, 9
1, 150953, Note_off_c, 0, 79, 61
1, 150975, Note_on_c, 0, 84, 76
1, 150985, Control_c, 0, 67, 8
1, 151047, Note_on_c, 0, 82, 79
1, 151050, Note_off_c, 0, 84, 65
1, 151119, Note_on_c, 0, 80, 72
1, 151130, Note_off_c, 0, 82, 60
1, 151184, Note_on_c, 0, 79, 72
1, 151187, Note_off_c, 0, 80, 65
1, 151235, Note_off_c, 0, 79, 59
1, 151259, Note_on_c, 0, 77, 67
1, 151298, Note_off_c, 0, 77, 60
1, 151303, Note_off_c, 0, 51, 55
1, 151336, Note_on_c, 0, 75, 76
1, 151403, Note_on_c, 0, 74, 70
1, 151405, Note_off_c, 0, 75, 64
1, 151459, Note_off_c, 0, 74, 61
1, 151466, Note_on_c, 0, 72, 69
1, 151520, Note_off_c, 0, 72, 65
1, 151523, Note_off_c, 0, 60, 54
1, 151569, Note_on_c, 0, 70, 85
1, 151581, Note_on_c, 0, 52, 62
1, 151620, Note_off_c, 0, 52, 64
1, 151638, Note_on_c, 0, 68, 75
1, 151649, Note_off_c, 0, 70, 60
1, 151699, Note_off_c, 0, 68, 65
1, 151703, Note_on_c, 0, 67, 74
1, 151719, Control_c, 0, 67, 8
1, 151784, Note_off_c, 0, 67, 38
1, 151787, Note_on_c, 0, 68, 87
1, 151801, Note_on_c, 0, 53, 77
1, 151803, Note_on_c, 0, 60, 72
1, 151818, Note_off_c, 0, 68, 67
1, 151828, Note_off_c, 0, 60, 68
1, 151831, Note_off_c, 0, 53, 68
1, 152017, Control_c, 0, 67, 8
1, 152055, Note_on_c, 0, 77, 88
1, 152057, Note_on_c, 0, 72, 80
1, 152057, Note_on_c, 0, 80, 80
1, 152058, Note_on_c, 0, 53, 81
1, 152076, Control_c, 0, 67, 9
1, 152081, Note_off_c, 0, 72, 67
1, 152094, Note_off_c, 0, 77, 62
1, 152100, Note_off_c, 0, 53, 68
1, 152126, Note_off_c, 0, 80, 54
1, 152135, Control_c, 0, 67, 8
1, 152324, Note_on_c, 0, 75, 84
1, 152324, Note_on_c, 0, 79, 81
1, 152325, Note_on_c, 0, 72, 83
1, 152335, Note_on_c, 0, 55, 83
1, 152360, Note_off_c, 0, 72, 66
1, 152361, Note_off_c, 0, 79, 63
1, 152365, Note_off_c, 0, 75, 64
1, 152375, Note_off_c, 0, 55, 66
1, 152581, Note_on_c, 0, 65, 83
1, 152581, Note_on_c, 0, 71, 77
1, 152582, Note_on_c, 0, 62, 79
1, 152589, Note_on_c, 0, 43, 70
1, 152615, Note_off_c, 0, 65, 67
1, 152616, Note_off_c, 0, 62, 59
1, 152639, Note_off_c, 0, 71, 61
1, 152647, Note_off_c, 0, 43, 56
1, 152841, Note_on_c, 0, 63, 76
1, 152843, Note_on_c, 0, 48, 77
1, 152843, Note_on_c, 0, 72, 77
1, 152865, Note_off_c, 0, 63, 69
1, 152881, Note_off_c, 0, 72, 67
1, 152944, Note_off_c, 0, 48, 64
1, 153025, Control_c, 0, 67, 8
1, 153113, Note_on_c, 0, 79, 53
1, 153157, Note_off_c, 0, 79, 53
1, 153182, Note_on_c, 0, 78, 61
1, 153208, Note_off_c, 0, 78, 60
1, 153251, Note_on_c, 0, 80, 61
1, 153321, Note_off_c, 0, 80, 62
1, 153322, Note_on_c, 0, 79, 63
1, 153358, Note_off_c, 0, 79, 59
1, 153402, Note_on_c, 0, 77, 51
1, 153432, Note_off_c, 0, 77, 56
1, 153465, Note_on_c, 0, 75, 66
1, 153509, Note_off_c, 0, 75, 63
1, 153521, Note_on_c, 0, 63, 51
1, 153536, Note_on_c, 0, 74, 55
1, 153539, Note_on_c, 0, 60, 49
1, 153572, Note_off_c, 0, 74, 67
1, 153583, Note_off_c, 0, 60, 62
1, 153592, Note_on_c, 0, 75, 61
1, 153597, Note_off_c, 0, 63, 48
1, 153635, Note_off_c, 0, 75, 62
1, 153667, Note_on_c, 0, 72, 61
1, 153708, Note_off_c, 0, 72, 58
1, 153754, Note_on_c, 0, 71, 66
1, 153762, Note_on_c, 0, 65, 62
1, 153766, Note_on_c, 0, 55, 53
1, 153769, Note_on_c, 0, 62, 54
1, 153783, Note_off_c, 0, 71, 63
1, 153806, Note_off_c, 0, 65, 65
1, 153808, Note_off_c, 0, 55, 64
1, 153811, Note_off_c, 0, 62, 63
1, 153996, Note_on_c, 0, 77, 68
1, 154046, Note_off_c, 0, 77, 59
1, 154062, Note_on_c, 0, 76, 66
1, 154106, Note_off_c, 0, 76, 64
1, 154130, Note_on_c, 0, 79, 62
1, 154195, Note_off_c, 0, 79, 58
1, 154198, Note_on_c, 0, 77, 67
1, 154264, Note_off_c, 0, 77, 61
1, 154267, Note_on_c, 0, 75, 62
1, 154308, Note_off_c, 0, 75, 65
1, 154329, Note_on_c, 0, 74, 63
1, 154365, Note_off_c, 0, 74, 63
1, 154412, Note_on_c, 0, 72, 69
1, 154421, Note_on_c, 0, 65, 60
1, 154424, Note_on_c, 0, 55, 54
1, 154426, Note_on_c, 0, 62, 50
1, 154454, Note_off_c, 0, 72, 63
1, 154463, Note_off_c, 0, 62, 64
1, 154470, Note_off_c, 0, 55, 53
1, 154470, Note_off_c, 0, 65, 54
1, 154476, Note_on_c, 0, 71, 68
1, 154521, Note_off_c, 0, 71, 55
1, 154553, Note_on_c, 0, 74, 61
1, 154598, Note_off_c, 0, 74, 56
1, 154633, Note_on_c, 0, 72, 69
1, 154641, Note_on_c, 0, 63, 64
1, 154648, Note_on_c, 0, 60, 55
1, 154660, Note_off_c, 0, 72, 70
1, 154710, Note_off_c, 0, 60, 55
1, 154711, Note_off_c, 0, 63, 65
1, 154875, Note_on_c, 0, 79, 62
1, 154918, Note_off_c, 0, 79, 64
1, 154929, Note_on_c, 0, 78, 66
1, 154963, Note_off_c, 0, 78, 58
1, 154989, Note_on_c, 0, 80, 70
1, 155069, Note_on_c, 0, 79, 67
1, 155075, Note_off_c, 0, 80, 63
1, 155122, Note_off_c, 0, 79, 57
1, 155137, Note_on_c, 0, 77, 64
1, 155179, Note_off_c, 0, 77, 59
1, 155206, Note_on_c, 0, 75, 78
1, 155273, Note_off_c, 0, 75, 64
1, 155277, Note_on_c, 0, 74, 76
1, 155280, Note_on_c, 0, 51, 73
1, 155289, Note_on_c, 0, 48, 70
1, 155327, Note_off_c, 0, 51, 57
1, 155333, Note_off_c, 0, 48, 65
1, 155336, Note_off_c, 0, 74, 63
1, 155338, Note_on_c, 0, 75, 67
1, 155376, Note_off_c, 0, 75, 67
1, 155390, Note_on_c, 0, 72, 73
1, 155428, Note_off_c, 0, 72, 66
1, 155450, Control_c, 0, 67, 8
1, 155490, Note_on_c, 0, 80, 83
1, 155496, Note_on_c, 0, 50, 80
1, 155498, Note_on_c, 0, 53, 85
1, 155503, Note_on_c, 0, 43, 68
1, 155504, Note_on_c, 0, 47, 76
1, 155509, Control_c, 0, 67, 8
1, 155538, Control_c, 0, 64, 41
1, 155553, Control_c, 0, 64, 65
1, 155553, Control_c, 0, 67, 0
1, 155564, Note_on_c, 0, 79, 80
1, 155568, Control_c, 0, 64, 71
1, 155569, Note_off_c, 0, 80, 63
1, 155582, Control_c, 0, 64, 76
1, 155597, Control_c, 0, 64, 77
1, 155633, Note_off_c, 0, 79, 60
1, 155639, Note_on_c, 0, 77, 76
1, 155689, Note_off_c, 0, 77, 61
1, 155730, Note_on_c, 0, 76, 72
1, 155760, Control_c, 0, 64, 77
1, 155775, Control_c, 0, 64, 76
1, 155788, Note_on_c, 0, 74, 73
1, 155790, Control_c, 0, 64, 75
1, 155791, Note_off_c, 0, 76, 65
1, 155805, Control_c, 0, 64, 73
1, 155820, Control_c, 0, 64, 71
1, 155835, Control_c, 0, 64, 68
1, 155838, Note_off_c, 0, 74, 65
1, 155845, Note_on_c, 0, 72, 70
1, 155849, Control_c, 0, 64, 63
1, 155864, Control_c, 0, 64, 34
1, 155876, Note_off_c, 0, 72, 65
1, 155879, Control_c, 0, 64, 0
1, 155933, Note_on_c, 0, 71, 71
1, 156005, Note_on_c, 0, 68, 79
1, 156028, Note_off_c, 0, 71, 58
1, 156036, Note_off_c, 0, 53, 61
1, 156055, Note_off_c, 0, 50, 62
1, 156069, Note_on_c, 0, 67, 69
1, 156075, Note_off_c, 0, 47, 63
1, 156076, Note_off_c, 0, 68, 64
1, 156091, Note_off_c, 0, 43, 62
1, 156129, Note_off_c, 0, 67, 60
1, 156136, Note_on_c, 0, 65, 69
1, 156172, Note_off_c, 0, 65, 64
1, 156209, Note_on_c, 0, 63, 73
1, 156258, Note_on_c, 0, 62, 73
1, 156268, Note_off_c, 0, 63, 65
1, 156306, Note_off_c, 0, 62, 62
1, 156357, Note_on_c, 0, 60, 94
1, 156359, Note_on_c, 0, 48, 96
1, 156365, Note_on_c, 0, 36, 80
1, 156406, Control_c, 0, 64, 42
1, 156411, Note_off_c, 0, 60, 64
1, 156421, Control_c, 0, 64, 65
1, 156436, Control_c, 0, 64, 74
1, 156451, Control_c, 0, 64, 82
1, 156459, Note_off_c, 0, 36, 63
1, 156466, Control_c, 0, 64, 88
1, 156475, Note_off_c, 0, 48, 65
1, 156480, Control_c, 0, 64, 90
1, 156495, Control_c, 0, 64, 92
1, 156510, Control_c, 0, 64, 93
1, 156525, Control_c, 0, 64, 94
1, 156540, Control_c, 0, 64, 95
1, 156554, Control_c, 0, 64, 95
1, 156569, Control_c, 0, 64, 96
1, 156584, Control_c, 0, 64, 96
1, 156598, Control_c, 0, 64, 97
1, 156628, Control_c, 0, 64, 98
1, 156800, Control_c, 0, 64, 97
1, 156815, Control_c, 0, 64, 92
1, 156829, Control_c, 0, 64, 78
1, 156844, Control_c, 0, 64, 56
1, 156850, Note_on_c, 0, 51, 94
1, 156856, Note_on_c, 0, 39, 73
1, 156859, Control_c, 0, 64, 0
1, 156874, Control_c, 0, 67, 8
1, 156876, Note_off_c, 0, 39, 65
1, 156884, Note_off_c, 0, 51, 64
1, 156932, Control_c, 0, 67, 0
1, 157084, Note_on_c, 0, 55, 97
1, 157087, Note_on_c, 0, 43, 79
1, 157115, Note_off_c, 0, 43, 63
1, 157122, Note_off_c, 0, 55, 63
1, 157243, Control_c, 0, 67, 8
1, 157302, Control_c, 0, 67, 0
1, 157314, Note_on_c, 0, 72, 98
1, 157322, Note_on_c, 0, 60, 89
1, 157323, Note_on_c, 0, 48, 83
1, 157332, Control_c, 0, 64, 43
1, 157346, Control_c, 0, 64, 67
1, 157349, Note_off_c, 0, 48, 69
1, 157350, Note_off_c, 0, 60, 63
1, 157361, Control_c, 0, 64, 77
1, 157376, Control_c, 0, 64, 89
1, 157391, Control_c, 0, 64, 97
1, 157406, Control_c, 0, 64, 100
1, 157409, Note_off_c, 0, 72, 60
1, 157420, Control_c, 0, 64, 103
1, 157435, Control_c, 0, 64, 106
1, 157450, Control_c, 0, 64, 110
1, 157465, Control_c, 0, 64, 113
1, 157480, Control_c, 0, 64, 115
1, 157502, Control_c, 0, 64, 117
1, 157517, Control_c, 0, 64, 118
1, 157532, Control_c, 0, 64, 118
1, 157546, Control_c, 0, 64, 119
1, 157561, Control_c, 0, 64, 120
1, 157562, Note_on_c, 0, 63, 88
1, 157569, Note_on_c, 0, 51, 70
1, 157578, Control_c, 0, 64, 121
1, 157587, Note_off_c, 0, 63, 69
1, 157593, Control_c, 0, 64, 121
1, 157594, Note_off_c, 0, 51, 66
1, 157755, Control_c, 0, 64, 121
1, 157769, Control_c, 0, 64, 112
1, 157775, Note_on_c, 0, 75, 94
1, 157784, Control_c, 0, 64, 98
1, 157799, Control_c, 0, 64, 82
1, 157799, Control_c, 0, 67, 8
1, 157805, Note_off_c, 0, 75, 68
1, 157814, Control_c, 0, 64, 64
1, 157814, Control_c, 0, 67, 8
1, 157829, Control_c, 0, 64, 0
1, 157992, Control_c, 0, 67, 8
1, 158011, Note_on_c, 0, 79, 95
1, 158050, Note_off_c, 0, 79, 62
1, 158229, Control_c, 0, 67, 8
1, 158266, Control_c, 0, 67, 9
1, 158354, Note_on_c, 0, 84, 89
1, 158358, Note_on_c, 0, 44, 87
1, 158362, Note_on_c, 0, 32, 77
1, 158371, Control_c, 0, 67, 8
1, 158386, Control_c, 0, 67, 8
1, 158400, Control_c, 0, 64, 64
1, 158400, Control_c, 0, 67, 0
1, 158415, Control_c, 0, 64, 75
1, 158430, Control_c, 0, 64, 87
1, 158445, Control_c, 0, 64, 98
1, 158449, Note_off_c, 0, 84, 50
1, 158460, Control_c, 0, 64, 102
1, 158474, Control_c, 0, 64, 105
1, 158489, Control_c, 0, 64, 109
1, 158504, Control_c, 0, 64, 112
1, 158505, Note_off_c, 0, 32, 62
1, 158510, Note_off_c, 0, 44, 63
1, 158519, Control_c, 0, 64, 115
1, 158534, Control_c, 0, 64, 116
1, 158548, Control_c, 0, 64, 117
1, 158563, Control_c, 0, 64, 117
1, 158607, Control_c, 0, 64, 118
1, 158610, Note_on_c, 0, 87, 86
1, 158637, Control_c, 0, 64, 118
1, 158645, Note_off_c, 0, 87, 65
1, 158726, Control_c, 0, 64, 119
1, 158786, Control_c, 0, 64, 118
1, 158800, Control_c, 0, 64, 118
1, 158815, Control_c, 0, 64, 110
1, 158816, Note_on_c, 0, 48, 90
1, 158819, Note_on_c, 0, 36, 73
1, 158830, Control_c, 0, 64, 95
1, 158841, Note_off_c, 0, 48, 69
1, 158845, Control_c, 0, 64, 81
1, 158845, Note_off_c, 0, 36, 66
1, 158860, Control_c, 0, 64, 66
1, 158874, Control_c, 0, 64, 0
1, 158948, Control_c, 0, 67, 8
1, 159000, Control_c, 0, 67, 0
1, 159058, Note_on_c, 0, 51, 88
1, 159066, Note_on_c, 0, 39, 73
1, 159090, Note_off_c, 0, 39, 66
1, 159093, Note_off_c, 0, 51, 65
1, 159194, Control_c, 0, 67, 8
1, 159283, Control_c, 0, 67, 0
1, 159292, Note_on_c, 0, 68, 104
1, 159293, Note_on_c, 0, 56, 87
1, 159304, Note_on_c, 0, 44, 60
1, 159312, Control_c, 0, 64, 65
1, 159317, Note_off_c, 0, 56, 68
1, 159327, Control_c, 0, 64, 75
1, 159329, Note_off_c, 0, 44, 56
1, 159342, Control_c, 0, 64, 86
1, 159357, Control_c, 0, 64, 95
1, 159371, Control_c, 0, 64, 99
1, 159386, Control_c, 0, 64, 101
1, 159401, Control_c, 0, 64, 104
1, 159403, Note_off_c, 0, 68, 57
1, 159415, Control_c, 0, 64, 107
1, 159430, Control_c, 0, 64, 109
1, 159445, Control_c, 0, 64, 111
1, 159460, Control_c, 0, 64, 112
1, 159475, Control_c, 0, 64, 112
1, 159489, Control_c, 0, 64, 113
1, 159504, Control_c, 0, 64, 113
1, 159519, Control_c, 0, 64, 114
1, 159529, Note_on_c, 0, 60, 86
1, 159534, Note_on_c, 0, 48, 75
1, 159550, Note_off_c, 0, 60, 68
1, 159567, Note_off_c, 0, 48, 67
1, 159727, Control_c, 0, 64, 110
1, 159727, Control_c, 0, 67, 8
1, 159749, Control_c, 0, 64, 98
1, 159749, Control_c, 0, 67, 8
1, 159752, Note_on_c, 0, 72, 90
1, 159763, Control_c, 0, 64, 82
1, 159776, Note_off_c, 0, 72, 64
1, 159778, Control_c, 0, 64, 65
1, 159793, Control_c, 0, 64, 0
1, 159981, Note_on_c, 0, 75, 90
1, 159988, Control_c, 0, 67, 9
1, 160014, Note_off_c, 0, 75, 68
1, 160062, Control_c, 0, 67, 8
1, 160221, Note_on_c, 0, 81, 96
1, 160226, Note_on_c, 0, 42, 95
1, 160234, Note_on_c, 0, 30, 86
1, 160239, Control_c, 0, 64, 32
1, 160254, Control_c, 0, 64, 70
1, 160267, Note_off_c, 0, 81, 64
1, 160269, Control_c, 0, 64, 89
1, 160269, Control_c, 0, 67, 8
1, 160284, Control_c, 0, 64, 107
1, 160284, Control_c, 0, 67, 0
1, 160299, Control_c, 0, 64, 114
1, 160313, Control_c, 0, 64, 115
1, 160315, Note_off_c, 0, 30, 63
1, 160321, Note_off_c, 0, 42, 61
1, 160328, Control_c, 0, 64, 116
1, 160343, Control_c, 0, 64, 118
1, 160358, Control_c, 0, 64, 120
1, 160372, Control_c, 0, 64, 121
1, 160387, Control_c, 0, 64, 121
1, 160456, Note_on_c, 0, 84, 88
1, 160509, Note_off_c, 0, 84, 65
1, 160646, Control_c, 0, 64, 121
1, 160661, Control_c, 0, 64, 120
1, 160665, Note_on_c, 0, 45, 81
1, 160670, Note_on_c, 0, 33, 75
1, 160676, Control_c, 0, 64, 111
1, 160691, Control_c, 0, 64, 98
1, 160691, Control_c, 0, 67, 8
1, 160692, Note_off_c, 0, 33, 67
1, 160694, Note_off_c, 0, 45, 68
1, 160706, Control_c, 0, 64, 84
1, 160706, Control_c, 0, 67, 8
1, 160720, Control_c, 0, 64, 69
1, 160735, Control_c, 0, 64, 0
1, 160735, Control_c, 0, 67, 9
1, 160810, Control_c, 0, 67, 8
1, 160893, Note_on_c, 0, 48, 84
1, 160894, Note_on_c, 0, 84, 74
1, 160899, Note_on_c, 0, 36, 66
1, 160923, Note_off_c, 0, 48, 68
1, 160928, Note_off_c, 0, 36, 64
1, 160937, Note_off_c, 0, 84, 62
1, 160962, Note_on_c, 0, 87, 67
1, 161017, Note_on_c, 0, 84, 71
1, 161027, Note_off_c, 0, 87, 62
1, 161033, Control_c, 0, 67, 9
1, 161069, Note_off_c, 0, 84, 59
1, 161097, Note_on_c, 0, 81, 70
1, 161098, Note_on_c, 0, 54, 77
1, 161103, Note_on_c, 0, 42, 69
1, 161122, Note_off_c, 0, 54, 66
1, 161122, Note_off_c, 0, 81, 66
1, 161132, Note_off_c, 0, 42, 65
1, 161151, Control_c, 0, 67, 8
1, 161163, Note_on_c, 0, 84, 76
1, 161210, Control_c, 0, 67, 8
1, 161225, Note_off_c, 0, 84, 64
1, 161229, Note_on_c, 0, 81, 74
1, 161306, Note_off_c, 0, 81, 60
1, 161310, Note_on_c, 0, 78, 71
1, 161311, Note_on_c, 0, 57, 80
1, 161317, Note_on_c, 0, 45, 66
1, 161321, Control_c, 0, 67, 8
1, 161341, Note_off_c, 0, 45, 67
1, 161341, Note_off_c, 0, 57, 59
1, 161364, Note_off_c, 0, 78, 60
1, 161373, Note_on_c, 0, 81, 64
1, 161436, Note_on_c, 0, 78, 74
1, 161438, Note_off_c, 0, 81, 60
1, 161513, Note_off_c, 0, 78, 61
1, 161523, Note_on_c, 0, 75, 75
1, 161524, Note_on_c, 0, 60, 77
1, 161526, Note_on_c, 0, 48, 66
1, 161546, Note_off_c, 0, 48, 63
1, 161546, Note_off_c, 0, 60, 68
1, 161572, Note_off_c, 0, 75, 58
1, 161589, Note_on_c, 0, 78, 71
1, 161647, Control_c, 0, 67, 9
1, 161648, Note_on_c, 0, 75, 66
1, 161650, Note_off_c, 0, 78, 63
1, 161662, Control_c, 0, 67, 9
1, 161704, Note_off_c, 0, 75, 63
1, 161729, Note_on_c, 0, 72, 61
1, 161740, Note_on_c, 0, 51, 61
1, 161741, Note_on_c, 0, 63, 70
1, 161765, Note_off_c, 0, 72, 62
1, 161769, Note_off_c, 0, 63, 66
1, 161771, Note_off_c, 0, 51, 64
1, 161793, Note_on_c, 0, 75, 57
1, 161859, Note_off_c, 0, 75, 63
1, 161862, Note_on_c, 0, 72, 67
1, 161898, Control_c, 0, 67, 11
1, 161907, Note_off_c, 0, 72, 62
1, 161913, Control_c, 0, 67, 13
1, 161928, Control_c, 0, 67, 16
1, 161937, Note_on_c, 0, 55, 58
1, 161943, Control_c, 0, 67, 27
1, 161943, Note_on_c, 0, 67, 69
1, 161957, Control_c, 0, 67, 49
1, 161972, Control_c, 0, 67, 80
1, 161980, Note_off_c, 0, 67, 62
1, 161995, Control_c, 0, 67, 114
1, 161999, Note_off_c, 0, 55, 62
1, 162009, Note_on_c, 0, 60, 58
1, 162010, Control_c, 0, 67, 127
1, 162069, Note_off_c, 0, 60, 61
1, 162087, Note_on_c, 0, 63, 58
1, 162150, Note_off_c, 0, 63, 56
1, 162183, Note_on_c, 0, 55, 55
1, 162187, Note_on_c, 0, 79, 78
1, 162247, Control_c, 0, 64, 28
1, 162252, Note_off_c, 0, 55, 63
1, 162261, Control_c, 0, 64, 64
1, 162265, Note_on_c, 0, 60, 53
1, 162276, Control_c, 0, 64, 69
1, 162291, Control_c, 0, 64, 73
1, 162306, Control_c, 0, 64, 75
1, 162307, Note_off_c, 0, 60, 62
1, 162321, Control_c, 0, 64, 77
1, 162335, Control_c, 0, 64, 78
1, 162336, Note_on_c, 0, 63, 62
1, 162350, Control_c, 0, 64, 79
1, 162381, Control_c, 0, 64, 79
1, 162384, Note_off_c, 0, 63, 56
1, 162409, Note_on_c, 0, 55, 56
1, 162472, Note_off_c, 0, 55, 61
1, 162477, Note_on_c, 0, 60, 57
1, 162523, Note_off_c, 0, 79, 55
1, 162528, Note_off_c, 0, 60, 57
1, 162556, Note_on_c, 0, 63, 60
1, 162587, Note_off_c, 0, 63, 49
1, 162632, Note_on_c, 0, 77, 60
1, 162632, Note_on_c, 0, 55, 53
1, 162679, Note_on_c, 0, 75, 69
1, 162683, Note_off_c, 0, 55, 59
1, 162684, Note_off_c, 0, 77, 60
1, 162692, Control_c, 0, 64, 79
1, 162694, Note_on_c, 0, 60, 51
1, 162725, Note_on_c, 0, 74, 68
1, 162727, Note_off_c, 0, 75, 64
1, 162759, Note_off_c, 0, 60, 54
1, 162767, Note_off_c, 0, 74, 65
1, 162780, Note_on_c, 0, 72, 70
1, 162781, Note_on_c, 0, 63, 57
1, 162817, Note_off_c, 0, 63, 53
1, 162833, Control_c, 0, 64, 78
1, 162834, Note_off_c, 0, 72, 51
1, 162847, Control_c, 0, 64, 73
1, 162861, Note_on_c, 0, 74, 73
1, 162862, Control_c, 0, 64, 58
1, 162870, Note_on_c, 0, 55, 54
1, 162877, Control_c, 0, 64, 0
1, 162906, Note_off_c, 0, 74, 65
1, 162912, Note_on_c, 0, 75, 72
1, 162952, Control_c, 0, 64, 62
1, 162958, Note_off_c, 0, 75, 62
1, 162966, Control_c, 0, 64, 71
1, 162970, Note_on_c, 0, 59, 51
1, 162971, Note_on_c, 0, 74, 53
1, 162981, Control_c, 0, 64, 78
1, 162984, Note_off_c, 0, 55, 61
1, 162996, Control_c, 0, 64, 83
1, 163009, Note_off_c, 0, 74, 62
1, 163010, Note_on_c, 0, 75, 61
1, 163011, Control_c, 0, 64, 84
1, 163026, Control_c, 0, 64, 86
1, 163040, Note_off_c, 0, 59, 61
1, 163040, Control_c, 0, 64, 89
1, 163040, Control_c, 0, 67, 124
1, 163047, Note_off_c, 0, 75, 63
1, 163054, Note_on_c, 0, 65, 43
1, 163055, Control_c, 0, 64, 92
1, 163055, Control_c, 0, 67, 107
1, 163060, Note_on_c, 0, 74, 49
1, 163070, Control_c, 0, 64, 94
1, 163070, Control_c, 0, 67, 93
1, 163085, Control_c, 0, 64, 96
1, 163085, Control_c, 0, 67, 82
1, 163100, Control_c, 0, 64, 97
1, 163100, Control_c, 0, 67, 72
1, 163102, Note_off_c, 0, 74, 63
1, 163105, Note_on_c, 0, 75, 65
1, 163107, Note_off_c, 0, 65, 59
1, 163114, Control_c, 0, 64, 98
1, 163114, Control_c, 0, 67, 61
1, 163129, Control_c, 0, 64, 98
1, 163129, Control_c, 0, 67, 51
1, 163131, Note_on_c, 0, 55, 51
1, 163144, Control_c, 0, 64, 99
1, 163144, Control_c, 0, 67, 41
1, 163159, Note_off_c, 0, 75, 62
1, 163160, Control_c, 0, 64, 99
1, 163160, Control_c, 0, 67, 32
1, 163162, Note_on_c, 0, 74, 53
1, 163175, Control_c, 0, 64, 100
1, 163175, Control_c, 0, 67, 29
1, 163189, Control_c, 0, 64, 100
1, 163189, Control_c, 0, 67, 27
1, 163202, Note_off_c, 0, 74, 61
1, 163204, Control_c, 0, 64, 101
1, 163204, Control_c, 0, 67, 26
1, 163206, Note_on_c, 0, 75, 56
1, 163211, Note_off_c, 0, 55, 62
1, 163215, Note_on_c, 0, 59, 54
1, 163219, Control_c, 0, 67, 24
1, 163234, Control_c, 0, 67, 21
1, 163249, Control_c, 0, 67, 19
1, 163251, Note_off_c, 0, 75, 64
1, 163262, Note_on_c, 0, 74, 49
1, 163263, Control_c, 0, 64, 101
1, 163263, Control_c, 0, 67, 18
1, 163278, Note_off_c, 0, 59, 54
1, 163299, Note_off_c, 0, 74, 64
1, 163303, Note_on_c, 0, 65, 45
1, 163305, Note_on_c, 0, 75, 58
1, 163323, Control_c, 0, 64, 102
1, 163342, Note_off_c, 0, 65, 51
1, 163353, Note_off_c, 0, 75, 61
1, 163371, Note_on_c, 0, 74, 50
1, 163379, Note_on_c, 0, 55, 52
1, 163396, Note_off_c, 0, 74, 67
1, 163397, Note_on_c, 0, 75, 56
1, 163449, Note_off_c, 0, 75, 64
1, 163450, Note_on_c, 0, 59, 51
1, 163450, Note_off_c, 0, 55, 63
1, 163469, Note_on_c, 0, 74, 62
1, 163471, Control_c, 0, 67, 19
1, 163501, Note_off_c, 0, 74, 70
1, 163508, Note_on_c, 0, 75, 57
1, 163508, Control_c, 0, 64, 102
1, 163510, Note_off_c, 0, 59, 60
1, 163541, Note_on_c, 0, 65, 34
1, 163549, Note_off_c, 0, 75, 65
1, 163570, Note_off_c, 0, 65, 58
1, 163593, Note_on_c, 0, 75, 57
1, 163594, Note_on_c, 0, 55, 56
1, 163623, Poly_aftertouch_c, 0, 74, 127
1, 163638, Note_off_c, 0, 55, 59
1, 163647, Note_on_c, 0, 59, 52
1, 163651, Note_off_c, 0, 75, 65
1, 163683, Note_on_c, 0, 65, 49
1, 163692, Poly_aftertouch_c, 0, 74, 0
1, 163695, Note_on_c, 0, 72, 66
1, 163695, Note_off_c, 0, 59, 59
1, 163706, Note_off_c, 0, 65, 62
1, 163740, Note_off_c, 0, 72, 64
1, 163746, Note_on_c, 0, 74, 57
1, 163759, Control_c, 0, 64, 102
1, 163771, Note_off_c, 0, 74, 67
1, 163774, Control_c, 0, 64, 98
1, 163788, Control_c, 0, 64, 90
1, 163803, Control_c, 0, 64, 78
1, 163803, Control_c, 0, 67, 19
1, 163818, Control_c, 0, 64, 67
1, 163818, Control_c, 0, 67, 20
1, 163833, Control_c, 0, 64, 0
1, 163848, Control_c, 0, 67, 20
1, 163862, Control_c, 0, 67, 21
1, 163863, Note_on_c, 0, 60, 53
1, 163892, Control_c, 0, 67, 21
1, 163946, Note_on_c, 0, 72, 60
1, 163973, Note_off_c, 0, 72, 65
1, 163997, Control_c, 0, 67, 22
1, 164014, Note_on_c, 0, 84, 53
1, 164035, Note_off_c, 0, 84, 58
1, 164093, Note_off_c, 0, 60, 61
1, 164101, Control_c, 0, 67, 22
1, 164106, Note_on_c, 0, 59, 59
1, 164187, Note_on_c, 0, 71, 63
1, 164213, Note_off_c, 0, 71, 63
1, 164262, Note_on_c, 0, 83, 48
1, 164284, Note_off_c, 0, 83, 37
1, 164315, Control_c, 0, 67, 23
1, 164332, Note_off_c, 0, 59, 59
1, 164347, Note_on_c, 0, 60, 65
1, 164390, Control_c, 0, 67, 23
1, 164415, Note_on_c, 0, 72, 75
1, 164452, Note_off_c, 0, 72, 68
1, 164484, Note_on_c, 0, 84, 68
1, 164506, Note_off_c, 0, 84, 65
1, 164523, Control_c, 0, 67, 24
1, 164537, Control_c, 0, 67, 24
1, 164552, Control_c, 0, 67, 25
1, 164582, Control_c, 0, 67, 25
1, 164587, Note_on_c, 0, 55, 86
1, 164611, Note_off_c, 0, 60, 59
1, 164655, Note_on_c, 0, 67, 88
1, 164656, Control_c, 0, 67, 25
1, 164700, Control_c, 0, 67, 24
1, 164708, Note_off_c, 0, 67, 63
1, 164736, Note_on_c, 0, 79, 71
1, 164745, Control_c, 0, 67, 24
1, 164762, Note_off_c, 0, 79, 68
1, 164825, Note_on_c, 0, 56, 63
1, 164855, Note_off_c, 0, 55, 59
1, 164864, Control_c, 0, 67, 23
1, 164906, Note_on_c, 0, 68, 72
1, 164938, Control_c, 0, 67, 23
1, 164949, Note_off_c, 0, 68, 61
1, 164953, Control_c, 0, 67, 22
1, 164973, Note_on_c, 0, 80, 63
1, 165006, Note_off_c, 0, 80, 62
1, 165040, Note_off_c, 0, 56, 56
1, 165060, Note_on_c, 0, 55, 56
1, 165138, Control_c, 0, 67, 22
1, 165156, Note_on_c, 0, 67, 64
1, 165183, Note_off_c, 0, 67, 66
1, 165225, Note_on_c, 0, 79, 50
1, 165247, Note_off_c, 0, 79, 53
1, 165276, Note_off_c, 0, 55, 60
1, 165285, Note_on_c, 0, 56, 59
1, 165367, Note_on_c, 0, 68, 75
1, 165421, Note_off_c, 0, 68, 53
1, 165428, Note_on_c, 0, 80, 68
1, 165456, Note_off_c, 0, 80, 67
1, 165508, Control_c, 0, 67, 22
1, 165514, Note_on_c, 0, 51, 80
1, 165533, Note_off_c, 0, 56, 61
1, 165600, Note_on_c, 0, 63, 77
1, 165664, Note_off_c, 0, 63, 63
1, 165672, Note_on_c, 0, 75, 67
1, 165701, Note_off_c, 0, 75, 66
1, 165759, Note_on_c, 0, 53, 59
1, 165797, Note_off_c, 0, 51, 54
1, 165828, Control_c, 0, 67, 22
1, 165847, Note_on_c, 0, 65, 67
1, 165877, Note_off_c, 0, 65, 68
1, 165887, Control_c, 0, 67, 21
1, 165904, Note_on_c, 0, 77, 61
1, 165924, Note_off_c, 0, 77, 64
1, 165985, Note_off_c, 0, 53, 61
1, 165989, Note_on_c, 0, 54, 60
1, 166062, Note_on_c, 0, 66, 71
1, 166092, Note_off_c, 0, 66, 68
1, 166126, Note_on_c, 0, 78, 65
1, 166147, Note_off_c, 0, 78, 64
1, 166197, Note_off_c, 0, 54, 59
1, 166216, Note_on_c, 0, 55, 58
1, 166287, Note_on_c, 0, 67, 63
1, 166317, Note_off_c, 0, 67, 65
1, 166348, Note_on_c, 0, 79, 58
1, 166366, Note_off_c, 0, 79, 59
1, 166411, Note_off_c, 0, 55, 54
1, 166436, Control_c, 0, 67, 22
1, 166440, Note_on_c, 0, 43, 62
1, 166528, Note_on_c, 0, 55, 62
1, 166555, Note_off_c, 0, 55, 66
1, 166578, Note_on_c, 0, 67, 67
1, 166605, Note_off_c, 0, 67, 66
1, 166672, Note_on_c, 0, 48, 60
1, 166712, Note_off_c, 0, 43, 51
1, 166751, Note_on_c, 0, 60, 65
1, 166779, Note_off_c, 0, 60, 66
1, 166819, Note_on_c, 0, 72, 57
1, 166837, Note_off_c, 0, 72, 64
1, 166894, Note_off_c, 0, 48, 62
1, 166906, Note_on_c, 0, 47, 62
1, 166979, Note_on_c, 0, 59, 67
1, 167007, Note_off_c, 0, 59, 65
1, 167052, Note_on_c, 0, 71, 54
1, 167073, Note_off_c, 0, 71, 59
1, 167117, Note_off_c, 0, 47, 59
1, 167121, Note_on_c, 0, 48, 63
1, 167194, Note_on_c, 0, 60, 70
1, 167216, Control_c, 0, 67, 21
1, 167222, Note_off_c, 0, 60, 65
1, 167260, Note_on_c, 0, 72, 59
1, 167290, Note_off_c, 0, 72, 67
1, 167297, Control_c, 0, 67, 22
1, 167311, Control_c, 0, 67, 22
1, 167326, Control_c, 0, 67, 23
1, 167341, Control_c, 0, 67, 23
1, 167351, Note_on_c, 0, 43, 85
1, 167356, Control_c, 0, 67, 24
1, 167377, Note_off_c, 0, 48, 50
1, 167419, Note_on_c, 0, 55, 80
1, 167430, Control_c, 0, 67, 23
1, 167473, Note_off_c, 0, 55, 64
1, 167474, Control_c, 0, 67, 23
1, 167489, Control_c, 0, 67, 22
1, 167493, Note_on_c, 0, 67, 77
1, 167525, Note_off_c, 0, 67, 62
1, 167533, Control_c, 0, 67, 22
1, 167584, Note_on_c, 0, 44, 61
1, 167610, Note_off_c, 0, 43, 55
1, 167662, Note_on_c, 0, 56, 63
1, 167690, Note_off_c, 0, 56, 64
1, 167715, Note_on_c, 0, 68, 66
1, 167740, Control_c, 0, 67, 21
1, 167750, Note_off_c, 0, 68, 62
1, 167800, Control_c, 0, 67, 21
1, 167806, Note_off_c, 0, 44, 60
1, 167813, Note_on_c, 0, 43, 58
1, 167886, Note_on_c, 0, 55, 62
1, 167915, Note_off_c, 0, 55, 66
1, 167918, Control_c, 0, 67, 20
1, 167943, Note_on_c, 0, 67, 61
1, 167981, Note_off_c, 0, 67, 65
1, 168034, Note_off_c, 0, 43, 59
1, 168043, Note_on_c, 0, 44, 61
1, 168059, Control_c, 0, 67, 21
1, 168107, Note_on_c, 0, 56, 68
1, 168141, Note_off_c, 0, 56, 64
1, 168170, Note_on_c, 0, 68, 67
1, 168199, Note_off_c, 0, 68, 66
1, 168208, Control_c, 0, 67, 21
1, 168238, Control_c, 0, 67, 22
1, 168268, Note_on_c, 0, 39, 79
1, 168292, Note_off_c, 0, 44, 59
1, 168335, Note_on_c, 0, 51, 74
1, 168396, Note_off_c, 0, 51, 62
1, 168414, Note_on_c, 0, 63, 65
1, 168452, Note_off_c, 0, 63, 61
1, 168509, Note_on_c, 0, 41, 65
1, 168536, Note_off_c, 0, 39, 55
1, 168548, Control_c, 0, 67, 21
1, 168578, Control_c, 0, 67, 21
1, 168580, Note_on_c, 0, 53, 59
1, 168610, Note_off_c, 0, 53, 66
1, 168638, Note_on_c, 0, 65, 62
1, 168667, Note_off_c, 0, 65, 68
1, 168718, Note_off_c, 0, 41, 63
1, 168737, Note_on_c, 0, 42, 56
1, 168801, Note_on_c, 0, 54, 64
1, 168829, Note_off_c, 0, 54, 63
1, 168864, Note_on_c, 0, 66, 63
1, 168896, Note_off_c, 0, 66, 66
1, 168944, Note_off_c, 0, 42, 62
1, 168964, Note_on_c, 0, 43, 61
1, 169019, Note_on_c, 0, 55, 55
1, 169048, Note_off_c, 0, 55, 66
1, 169075, Note_on_c, 0, 67, 62
1, 169098, Note_off_c, 0, 67, 63
1, 169134, Control_c, 0, 67, 21
1, 169145, Note_off_c, 0, 43, 55
1, 169149, Control_c, 0, 67, 22
1, 169172, Note_on_c, 0, 31, 67
1, 169251, Note_on_c, 0, 43, 62
1, 169280, Note_off_c, 0, 43, 61
1, 169309, Note_on_c, 0, 55, 65
1, 169338, Note_off_c, 0, 55, 65
1, 169341, Note_off_c, 0, 31, 63
1, 169431, Note_on_c, 0, 36, 58
1, 169502, Note_on_c, 0, 48, 58
1, 169532, Note_off_c, 0, 48, 64
1, 169576, Note_on_c, 0, 51, 59
1, 169613, Note_off_c, 0, 51, 62
1, 169617, Control_c, 0, 67, 21
1, 169654, Note_on_c, 0, 55, 50
1, 169677, Control_c, 0, 67, 21
1, 169703, Note_off_c, 0, 55, 59
1, 169713, Note_on_c, 0, 51, 55
1, 169757, Note_off_c, 0, 51, 65
1, 169788, Note_on_c, 0, 48, 50
1, 169817, Note_off_c, 0, 48, 59
1, 169858, Note_on_c, 0, 55, 58
1, 169907, Note_off_c, 0, 36, 55
1, 169917, Note_off_c, 0, 55, 57
1, 169929, Note_on_c, 0, 51, 60
1, 169969, Note_off_c, 0, 51, 64
1, 170000, Note_on_c, 0, 48, 50
1, 170033, Note_off_c, 0, 48, 64
1, 170062, Control_c, 0, 67, 20
1, 170070, Note_on_c, 0, 53, 62
1, 170076, Note_on_c, 0, 31, 54
1, 170134, Note_off_c, 0, 53, 62
1, 170144, Note_on_c, 0, 50, 58
1, 170144, Note_off_c, 0, 31, 57
1, 170185, Note_off_c, 0, 50, 63
1, 170204, Note_on_c, 0, 47, 57
1, 170247, Note_off_c, 0, 47, 66
1, 170298, Note_on_c, 0, 36, 58
1, 170375, Note_on_c, 0, 43, 56
1, 170426, Note_off_c, 0, 43, 55
1, 170444, Note_on_c, 0, 48, 59
1, 170489, Note_off_c, 0, 48, 63
1, 170517, Note_on_c, 0, 51, 56
1, 170566, Note_off_c, 0, 51, 62
1, 170587, Note_on_c, 0, 48, 61
1, 170630, Note_off_c, 0, 48, 64
1, 170657, Note_on_c, 0, 43, 46
1, 170704, Note_off_c, 0, 43, 56
1, 170720, Note_on_c, 0, 51, 54
1, 170751, Control_c, 0, 67, 20
1, 170784, Note_off_c, 0, 51, 59
1, 170801, Note_on_c, 0, 48, 61
1, 170806, Note_off_c, 0, 36, 58
1, 170842, Note_off_c, 0, 48, 66
1, 170871, Note_on_c, 0, 43, 47
1, 170912, Note_off_c, 0, 43, 56
1, 170939, Note_on_c, 0, 50, 58
1, 170951, Note_on_c, 0, 31, 50
1, 170997, Note_off_c, 0, 50, 60
1, 171009, Note_off_c, 0, 31, 57
1, 171012, Note_on_c, 0, 47, 58
1, 171054, Note_off_c, 0, 47, 64
1, 171085, Note_on_c, 0, 43, 45
1, 171134, Note_off_c, 0, 43, 51
1, 171184, Note_on_c, 0, 48, 51
1, 171196, Note_on_c, 0, 36, 44
1, 171406, Note_off_c, 0, 48, 65
1, 171416, Note_off_c, 0, 36, 58
1, 171696, Note_on_c, 0, 48, 39
1, 171697, Note_on_c, 0, 43, 36
1, 171699, Note_on_c, 0, 39, 27
1, 171729, Note_on_c, 0, 36, 14
1, 171918, Note_off_c, 0, 43, 53
1, 171923, Note_off_c, 0, 39, 58
1, 171923, Note_off_c, 0, 48, 58
1, 171927, Note_off_c, 0, 36, 57
1, 172333, Note_on_c, 0, 43, 23
1, 172335, Note_on_c, 0, 48, 30
1, 172336, Note_on_c, 0, 39, 23
1, 172338, Control_c, 0, 67, 19
1, 172346, Note_on_c, 0, 36, 25
1, 172612, Control_c, 0, 67, 19
1, 173056, Note_off_c, 0, 36, 42
1, 173064, Note_off_c, 0, 39, 41
1, 173072, Note_off_c, 0, 48, 42
1, 173082, Note_off_c, 0, 43, 42
1, 174036, Control_c, 0, 67, 18
1, 174153, Control_c, 0, 67, 18
1, 174183, Control_c, 0, 67, 17
1, 174242, Control_c, 0, 67, 17
1, 174435, Control_c, 0, 67, 17
1, 174480, Control_c, 0, 67, 18
1, 174510, Control_c, 0, 67, 18
1, 174673, Control_c, 0, 67, 18
1, 174725, Control_c, 0, 67, 17
1, 174754, Control_c, 0, 67, 17
1, 174769, Control_c, 0, 67, 16
1, 174814, Control_c, 0, 67, 16
1, 174843, Control_c, 0, 67, 15
1, 174858, Control_c, 0, 67, 13
1, 174872, Control_c, 0, 67, 11
1, 175035, Control_c, 0, 67, 11
1, 175050, Control_c, 0, 67, 10
1, 175065, Control_c, 0, 67, 10
1, 175079, Control_c, 0, 67, 9
1, 175094, Control_c, 0, 67, 0
1, 175094, End_track
0, 0, End_of_file
