0, 0, Header, 0, 1, 384
1, 0, Start_track
1, 0, Title_t, "Sonata No. 1--Anna Denisova     "
1, 0, Text_t, "2008 e-Piano Junior Competition recital round"
1, 0, Text_t, "recorded July 2008"
1, 0, Text_t, "http://www.piano-e-competition.com/"
1, 0, Text_t, "File processed for distribution by software from Zenph Studios, Inc., http://www.zenph.com"
1, 0, Instrument_name_t, "Yamaha Disklavier Pro Mark IV concert grand piano, model DCFIIISM4PRO"
1, 0, Sequencer_specific, 39, 67, 113, 0, 1, 0, 1, 0, 83, 111, 110, 97, 116, 97, 32, 78, 111, 46, 32, 49, 32, 32, 32, 32, 65, 110, 110, 97, 32, 68, 101, 110, 105, 115, 111, 118, 97, 32, 32, 32
1, 0, Sequencer_specific, 6, 67, 113, 0, 0, 0, 69
1, 0, System_exclusive, 21, 67, 113, 126, 21, 0, 2, 2, 0, 3, 14, 1, 4, 1, 13, 13, 10, 11, 9, 2, 7, 247
1, 0, Sequencer_specific, 5, 67, 123, 12, 2, 1
1, 0, Tempo, 512820
1, 0, Time_signature, 4, 2, 24, 8
1, 0, System_exclusive, 5, 126, 127, 9, 1, 247
1, 1, System_exclusive, 8, 67, 16, 76, 0, 0, 126, 0, 247
1, 2, System_exclusive, 8, 67, 16, 76, 8, 9, 7, 1, 247
1, 3, Control_c, 0, 0, 0
1, 3, Control_c, 1, 0, 0
1, 3, Control_c, 2, 0, 0
1, 3, Control_c, 3, 0, 0
1, 3, Control_c, 4, 0, 0
1, 3, Control_c, 5, 0, 0
1, 3, Control_c, 6, 0, 0
1, 3, Control_c, 7, 0, 0
1, 3, Control_c, 8, 0, 0
1, 3, Control_c, 9, 0, 127
1, 3, Control_c, 10, 0, 0
1, 3, Control_c, 11, 0, 0
1, 3, Control_c, 12, 0, 0
1, 3, Control_c, 13, 0, 0
1, 3, Control_c, 14, 0, 0
1, 3, Control_c, 15, 0, 0
1, 4, Control_c, 0, 32, 0
1, 4, Control_c, 1, 32, 0
1, 4, Control_c, 2, 32, 0
1, 4, Control_c, 3, 32, 0
1, 4, Control_c, 4, 32, 0
1, 4, Control_c, 5, 32, 0
1, 4, Control_c, 6, 32, 0
1, 4, Control_c, 7, 32, 0
1, 4, Control_c, 8, 32, 0
1, 4, Control_c, 9, 32, 0
1, 4, Control_c, 10, 32, 0
1, 4, Control_c, 11, 32, 0
1, 4, Control_c, 12, 32, 0
1, 4, Control_c, 13, 32, 0
1, 4, Control_c, 14, 32, 0
1, 4, Control_c, 15, 32, 0
1, 5, Program_c, 0, 0
1, 5, Program_c, 1, 0
1, 5, Program_c, 2, 0
1, 5, Program_c, 3, 0
1, 5, Program_c, 4, 0
1, 5, Program_c, 5, 0
1, 5, Program_c, 6, 0
1, 5, Program_c, 7, 0
1, 5, Program_c, 8, 0
1, 5, Program_c, 9, 0
1, 5, Program_c, 10, 0
1, 5, Program_c, 11, 0
1, 5, Program_c, 12, 0
1, 5, Program_c, 13, 0
1, 5, Program_c, 14, 0
1, 5, Program_c, 15, 0
1, 6, Control_c, 0, 7, 100
1, 6, Control_c, 1, 7, 100
1, 6, Control_c, 2, 7, 100
1, 6, Control_c, 3, 7, 100
1, 6, Control_c, 4, 7, 100
1, 6, Control_c, 5, 7, 100
1, 6, Control_c, 6, 7, 100
1, 6, Control_c, 7, 7, 100
1, 6, Control_c, 8, 7, 100
1, 6, Control_c, 9, 7, 100
1, 6, Control_c, 10, 7, 100
1, 6, Control_c, 11, 7, 100
1, 6, Control_c, 12, 7, 100
1, 6, Control_c, 13, 7, 100
1, 6, Control_c, 14, 7, 100
1, 6, Control_c, 15, 7, 100
1, 117, Control_c, 0, 67, 15
1, 229, Control_c, 0, 67, 31
1, 341, Control_c, 0, 67, 46
1, 452, Control_c, 0, 67, 63
1, 564, Control_c, 0, 67, 77
1, 676, Control_c, 0, 67, 94
1, 787, Control_c, 0, 67, 108
1, 899, Control_c, 0, 67, 127
1, 1124, Control_c, 0, 64, 41
1, 1134, Note_on_c, 0, 72, 52
1, 1135, Note_on_c, 0, 69, 34
1, 1139, Control_c, 0, 64, 65
1, 1153, Control_c, 0, 64, 69
1, 1168, Control_c, 0, 64, 74
1, 1183, Control_c, 0, 64, 78
1, 1198, Control_c, 0, 64, 84
1, 1213, Control_c, 0, 64, 89
1, 1228, Control_c, 0, 64, 94
1, 1242, Control_c, 0, 64, 99
1, 1257, Control_c, 0, 64, 103
1, 1272, Control_c, 0, 64, 106
1, 1287, Control_c, 0, 64, 110
1, 1302, Control_c, 0, 64, 114
1, 1317, Control_c, 0, 64, 120
1, 1332, Control_c, 0, 64, 126
1, 1346, Control_c, 0, 64, 127
1, 1454, Note_off_c, 0, 69, 57
1, 2062, Note_on_c, 0, 69, 50
1, 2065, Note_on_c, 0, 65, 35
1, 2102, Note_off_c, 0, 72, 51
1, 2155, Control_c, 0, 64, 121
1, 2169, Control_c, 0, 64, 111
1, 2184, Control_c, 0, 64, 100
1, 2199, Control_c, 0, 64, 87
1, 2214, Control_c, 0, 64, 66
1, 2229, Control_c, 0, 64, 0
1, 2354, Control_c, 0, 64, 49
1, 2369, Control_c, 0, 64, 65
1, 2384, Control_c, 0, 64, 69
1, 2399, Control_c, 0, 64, 74
1, 2414, Control_c, 0, 64, 80
1, 2429, Control_c, 0, 64, 86
1, 2444, Control_c, 0, 64, 91
1, 2459, Control_c, 0, 64, 95
1, 2474, Control_c, 0, 64, 98
1, 2488, Control_c, 0, 64, 101
1, 2503, Control_c, 0, 64, 106
1, 2518, Control_c, 0, 64, 109
1, 2533, Control_c, 0, 64, 113
1, 2548, Control_c, 0, 64, 116
1, 2563, Control_c, 0, 64, 121
1, 2578, Control_c, 0, 64, 125
1, 2593, Control_c, 0, 64, 127
1, 2974, Note_on_c, 0, 74, 53
1, 2980, Note_on_c, 0, 70, 46
1, 3000, Note_off_c, 0, 65, 42
1, 3010, Note_off_c, 0, 69, 54
1, 3052, Control_c, 0, 64, 117
1, 3066, Control_c, 0, 64, 106
1, 3081, Control_c, 0, 64, 94
1, 3103, Control_c, 0, 64, 83
1, 3118, Control_c, 0, 64, 71
1, 3132, Control_c, 0, 64, 43
1, 3147, Control_c, 0, 64, 0
1, 3267, Control_c, 0, 64, 54
1, 3282, Control_c, 0, 64, 68
1, 3296, Control_c, 0, 64, 75
1, 3311, Control_c, 0, 64, 84
1, 3326, Control_c, 0, 64, 91
1, 3329, Note_off_c, 0, 70, 56
1, 3341, Control_c, 0, 64, 97
1, 3356, Control_c, 0, 64, 103
1, 3371, Control_c, 0, 64, 108
1, 3386, Control_c, 0, 64, 113
1, 3401, Control_c, 0, 64, 118
1, 3416, Control_c, 0, 64, 125
1, 3430, Control_c, 0, 64, 127
1, 3538, Note_off_c, 0, 74, 34
1, 3952, Note_on_c, 0, 67, 58
1, 3963, Note_on_c, 0, 64, 39
1, 4076, Control_c, 0, 64, 124
1, 4091, Control_c, 0, 64, 110
1, 4106, Control_c, 0, 64, 99
1, 4120, Control_c, 0, 64, 86
1, 4135, Control_c, 0, 64, 68
1, 4150, Control_c, 0, 64, 0
1, 4268, Control_c, 0, 64, 62
1, 4283, Control_c, 0, 64, 72
1, 4298, Control_c, 0, 64, 81
1, 4313, Control_c, 0, 64, 93
1, 4328, Control_c, 0, 64, 99
1, 4343, Control_c, 0, 64, 103
1, 4358, Control_c, 0, 64, 105
1, 4372, Control_c, 0, 64, 108
1, 4387, Control_c, 0, 64, 111
1, 4402, Control_c, 0, 64, 115
1, 4417, Control_c, 0, 64, 119
1, 4432, Control_c, 0, 64, 121
1, 4446, Control_c, 0, 64, 122
1, 4461, Control_c, 0, 64, 123
1, 4476, Control_c, 0, 64, 124
1, 4606, Note_off_c, 0, 67, 51
1, 4652, Note_on_c, 0, 69, 54
1, 4793, Note_off_c, 0, 69, 36
1, 4913, Control_c, 0, 64, 116
1, 4927, Control_c, 0, 64, 102
1, 4929, Note_on_c, 0, 69, 52
1, 4930, Note_off_c, 0, 64, 49
1, 4931, Note_on_c, 0, 65, 48
1, 4942, Control_c, 0, 64, 86
1, 4957, Control_c, 0, 64, 68
1, 4972, Control_c, 0, 64, 0
1, 4983, Note_off_c, 0, 69, 64
1, 5004, Note_on_c, 0, 70, 57
1, 5031, Control_c, 0, 64, 37
1, 5046, Control_c, 0, 64, 68
1, 5051, Note_off_c, 0, 70, 55
1, 5061, Control_c, 0, 64, 77
1, 5075, Note_on_c, 0, 69, 59
1, 5076, Control_c, 0, 64, 87
1, 5091, Control_c, 0, 64, 96
1, 5103, Note_off_c, 0, 69, 66
1, 5106, Control_c, 0, 64, 100
1, 5120, Control_c, 0, 64, 103
1, 5127, Note_on_c, 0, 70, 50
1, 5135, Control_c, 0, 64, 107
1, 5149, Note_off_c, 0, 70, 56
1, 5150, Control_c, 0, 64, 111
1, 5165, Control_c, 0, 64, 114
1, 5180, Control_c, 0, 64, 118
1, 5191, Note_on_c, 0, 69, 32
1, 5194, Control_c, 0, 64, 121
1, 5209, Control_c, 0, 64, 123
1, 5214, Note_on_c, 0, 70, 66
1, 5222, Note_off_c, 0, 69, 49
1, 5224, Control_c, 0, 64, 124
1, 5239, Control_c, 0, 64, 127
1, 5254, Control_c, 0, 64, 127
1, 5278, Note_off_c, 0, 70, 62
1, 5286, Note_on_c, 0, 69, 54
1, 5371, Note_off_c, 0, 69, 62
1, 5401, Note_on_c, 0, 67, 55
1, 5455, Note_off_c, 0, 67, 53
1, 5495, Note_on_c, 0, 69, 56
1, 5677, Control_c, 0, 64, 124
1, 5678, Note_off_c, 0, 69, 41
1, 5685, Note_on_c, 0, 70, 55
1, 5691, Control_c, 0, 64, 117
1, 5692, Note_off_c, 0, 65, 38
1, 5706, Control_c, 0, 64, 108
1, 5714, Note_on_c, 0, 67, 36
1, 5721, Control_c, 0, 64, 99
1, 5736, Control_c, 0, 64, 89
1, 5750, Control_c, 0, 64, 77
1, 5765, Control_c, 0, 64, 58
1, 5780, Control_c, 0, 64, 0
1, 5943, Control_c, 0, 64, 61
1, 5958, Control_c, 0, 64, 69
1, 5973, Control_c, 0, 64, 76
1, 5988, Control_c, 0, 64, 82
1, 6003, Control_c, 0, 64, 87
1, 6017, Control_c, 0, 64, 90
1, 6032, Control_c, 0, 64, 93
1, 6047, Control_c, 0, 64, 96
1, 6061, Control_c, 0, 64, 99
1, 6075, Note_off_c, 0, 67, 53
1, 6076, Control_c, 0, 64, 101
1, 6095, Note_off_c, 0, 70, 51
1, 6098, Control_c, 0, 64, 104
1, 6113, Control_c, 0, 64, 106
1, 6128, Control_c, 0, 64, 107
1, 6143, Control_c, 0, 64, 108
1, 6291, Control_c, 0, 64, 106
1, 6306, Control_c, 0, 64, 102
1, 6321, Control_c, 0, 64, 96
1, 6336, Control_c, 0, 64, 88
1, 6350, Control_c, 0, 64, 81
1, 6365, Control_c, 0, 64, 74
1, 6380, Control_c, 0, 64, 67
1, 6395, Control_c, 0, 64, 54
1, 6410, Control_c, 0, 64, 0
1, 6781, Note_on_c, 0, 72, 58
1, 6812, Note_on_c, 0, 69, 35
1, 6826, Control_c, 0, 64, 56
1, 6847, Control_c, 0, 64, 66
1, 6862, Control_c, 0, 64, 71
1, 6877, Control_c, 0, 64, 78
1, 6891, Control_c, 0, 64, 84
1, 6906, Control_c, 0, 64, 91
1, 6921, Control_c, 0, 64, 97
1, 6936, Control_c, 0, 64, 102
1, 6951, Control_c, 0, 64, 107
1, 6966, Control_c, 0, 64, 113
1, 6981, Control_c, 0, 64, 119
1, 6996, Control_c, 0, 64, 127
1, 7032, Note_off_c, 0, 69, 63
1, 7133, Note_off_c, 0, 72, 60
1, 7691, Note_on_c, 0, 65, 50
1, 7696, Note_on_c, 0, 57, 40
1, 7744, Control_c, 0, 64, 118
1, 7759, Control_c, 0, 64, 107
1, 7774, Control_c, 0, 64, 93
1, 7788, Control_c, 0, 64, 80
1, 7803, Control_c, 0, 64, 66
1, 7818, Control_c, 0, 64, 0
1, 7907, Control_c, 0, 64, 51
1, 7921, Control_c, 0, 64, 65
1, 7936, Control_c, 0, 64, 70
1, 7951, Control_c, 0, 64, 73
1, 7966, Control_c, 0, 64, 75
1, 7981, Control_c, 0, 64, 77
1, 7995, Control_c, 0, 64, 79
1, 8011, Control_c, 0, 64, 80
1, 8026, Control_c, 0, 64, 81
1, 8041, Control_c, 0, 64, 81
1, 8056, Control_c, 0, 64, 82
1, 8085, Control_c, 0, 64, 83
1, 8253, Note_on_c, 0, 58, 39
1, 8254, Note_on_c, 0, 67, 58
1, 8269, Note_off_c, 0, 57, 30
1, 8288, Note_off_c, 0, 65, 54
1, 8489, Note_off_c, 0, 58, 53
1, 8492, Control_c, 0, 64, 79
1, 8495, Note_on_c, 0, 69, 64
1, 8506, Note_on_c, 0, 60, 46
1, 8507, Note_off_c, 0, 67, 54
1, 8507, Control_c, 0, 64, 72
1, 8522, Control_c, 0, 64, 62
1, 8537, Control_c, 0, 64, 0
1, 8626, Control_c, 0, 64, 54
1, 8641, Control_c, 0, 64, 63
1, 8656, Control_c, 0, 64, 65
1, 8670, Control_c, 0, 64, 66
1, 8685, Control_c, 0, 64, 66
1, 8700, Control_c, 0, 64, 67
1, 8715, Control_c, 0, 64, 69
1, 8730, Control_c, 0, 64, 70
1, 8880, Note_off_c, 0, 60, 59
1, 8901, Note_on_c, 0, 67, 62
1, 8913, Note_off_c, 0, 69, 53
1, 8915, Note_on_c, 0, 58, 39
1, 8953, Control_c, 0, 64, 68
1, 8967, Control_c, 0, 64, 64
1, 8982, Control_c, 0, 64, 47
1, 8997, Control_c, 0, 64, 0
1, 9093, Control_c, 0, 64, 33
1, 9108, Control_c, 0, 64, 59
1, 9123, Control_c, 0, 64, 64
1, 9138, Control_c, 0, 64, 66
1, 9153, Control_c, 0, 64, 66
1, 9167, Control_c, 0, 64, 67
1, 9182, Control_c, 0, 64, 67
1, 9197, Control_c, 0, 64, 68
1, 9212, Control_c, 0, 64, 69
1, 9227, Control_c, 0, 64, 69
1, 9256, Control_c, 0, 64, 70
1, 9375, Note_off_c, 0, 58, 37
1, 9376, Note_on_c, 0, 65, 58
1, 9376, Note_off_c, 0, 67, 58
1, 9388, Note_on_c, 0, 57, 39
1, 9449, Control_c, 0, 64, 69
1, 9464, Control_c, 0, 64, 68
1, 9479, Control_c, 0, 64, 66
1, 9493, Control_c, 0, 64, 56
1, 9508, Control_c, 0, 64, 0
1, 9628, Control_c, 0, 64, 42
1, 9643, Control_c, 0, 64, 64
1, 9657, Control_c, 0, 64, 68
1, 9672, Control_c, 0, 64, 71
1, 9687, Control_c, 0, 64, 73
1, 9702, Control_c, 0, 64, 75
1, 9716, Control_c, 0, 64, 77
1, 9731, Control_c, 0, 64, 78
1, 9746, Control_c, 0, 64, 80
1, 9761, Control_c, 0, 64, 81
1, 9776, Control_c, 0, 64, 82
1, 9790, Control_c, 0, 64, 82
1, 9820, Control_c, 0, 64, 83
1, 10207, Note_on_c, 0, 60, 44
1, 10227, Control_c, 0, 64, 82
1, 10242, Control_c, 0, 64, 82
1, 10246, Note_off_c, 0, 65, 48
1, 10257, Control_c, 0, 64, 79
1, 10272, Control_c, 0, 64, 75
1, 10287, Control_c, 0, 64, 67
1, 10301, Control_c, 0, 64, 29
1, 10316, Control_c, 0, 64, 0
1, 10450, Control_c, 0, 64, 63
1, 10465, Control_c, 0, 64, 70
1, 10480, Control_c, 0, 64, 75
1, 10495, Control_c, 0, 64, 80
1, 10510, Control_c, 0, 64, 83
1, 10525, Control_c, 0, 64, 87
1, 10539, Control_c, 0, 64, 90
1, 10554, Control_c, 0, 64, 93
1, 10569, Control_c, 0, 64, 95
1, 10591, Control_c, 0, 64, 98
1, 10606, Control_c, 0, 64, 100
1, 10611, Note_on_c, 0, 41, 41
1, 10620, Control_c, 0, 64, 102
1, 10635, Note_on_c, 0, 29, 28
1, 10635, Control_c, 0, 64, 105
1, 10650, Control_c, 0, 64, 106
1, 10665, Control_c, 0, 64, 108
1, 10680, Control_c, 0, 64, 109
1, 10695, Control_c, 0, 64, 109
1, 10710, Control_c, 0, 64, 110
1, 10719, Note_off_c, 0, 41, 38
1, 10725, Control_c, 0, 64, 111
1, 10739, Control_c, 0, 64, 111
1, 10743, Note_off_c, 0, 29, 35
1, 10755, Control_c, 0, 64, 112
1, 11009, Note_on_c, 0, 41, 34
1, 11018, Note_on_c, 0, 29, 25
1, 11073, Note_off_c, 0, 41, 52
1, 11120, Note_off_c, 0, 29, 36
1, 11196, Note_off_c, 0, 57, 39
1, 11276, Note_off_c, 0, 60, 50
1, 11409, Note_on_c, 0, 41, 42
1, 11422, Note_on_c, 0, 29, 34
1, 11487, Note_off_c, 0, 29, 49
1, 11497, Note_off_c, 0, 41, 39
1, 11917, Note_on_c, 0, 62, 59
1, 11934, Note_on_c, 0, 58, 45
1, 11953, Note_on_c, 0, 29, 30
1, 11956, Note_on_c, 0, 41, 29
1, 12007, Control_c, 0, 64, 111
1, 12022, Control_c, 0, 64, 109
1, 12037, Control_c, 0, 64, 103
1, 12051, Control_c, 0, 64, 93
1, 12066, Control_c, 0, 64, 78
1, 12089, Control_c, 0, 64, 62
1, 12104, Control_c, 0, 64, 0
1, 12192, Control_c, 0, 64, 63
1, 12207, Control_c, 0, 64, 70
1, 12222, Control_c, 0, 64, 75
1, 12237, Control_c, 0, 64, 79
1, 12252, Control_c, 0, 64, 81
1, 12266, Control_c, 0, 64, 82
1, 12281, Control_c, 0, 64, 83
1, 12296, Control_c, 0, 64, 84
1, 12311, Control_c, 0, 64, 85
1, 12325, Control_c, 0, 64, 85
1, 12355, Control_c, 0, 64, 86
1, 12471, Note_off_c, 0, 58, 57
1, 12483, Note_on_c, 0, 57, 57
1, 12696, Note_off_c, 0, 57, 56
1, 12696, Control_c, 0, 64, 85
1, 12710, Control_c, 0, 64, 82
1, 12725, Control_c, 0, 64, 74
1, 12730, Note_on_c, 0, 55, 52
1, 12740, Control_c, 0, 64, 44
1, 12755, Control_c, 0, 64, 0
1, 12853, Control_c, 0, 64, 64
1, 12867, Control_c, 0, 64, 69
1, 12882, Control_c, 0, 64, 72
1, 12897, Control_c, 0, 64, 73
1, 12912, Control_c, 0, 64, 74
1, 12927, Control_c, 0, 64, 75
1, 12941, Control_c, 0, 64, 76
1, 12956, Control_c, 0, 64, 77
1, 12971, Control_c, 0, 64, 78
1, 13001, Control_c, 0, 64, 79
1, 13015, Control_c, 0, 64, 79
1, 13030, Control_c, 0, 64, 80
1, 13045, Control_c, 0, 64, 81
1, 13059, Control_c, 0, 64, 81
1, 13089, Control_c, 0, 64, 79
1, 13104, Control_c, 0, 64, 73
1, 13110, Note_on_c, 0, 64, 63
1, 13118, Note_off_c, 0, 62, 52
1, 13119, Control_c, 0, 64, 59
1, 13133, Note_on_c, 0, 60, 42
1, 13133, Control_c, 0, 64, 0
1, 13198, Note_off_c, 0, 55, 45
1, 13208, Control_c, 0, 64, 63
1, 13223, Control_c, 0, 64, 71
1, 13238, Control_c, 0, 64, 75
1, 13238, Control_c, 0, 67, 114
1, 13252, Control_c, 0, 64, 77
1, 13252, Control_c, 0, 67, 86
1, 13267, Control_c, 0, 64, 79
1, 13267, Control_c, 0, 67, 59
1, 13282, Control_c, 0, 64, 80
1, 13282, Control_c, 0, 67, 34
1, 13297, Control_c, 0, 64, 81
1, 13297, Control_c, 0, 67, 13
1, 13312, Control_c, 0, 64, 83
1, 13312, Control_c, 0, 67, 0
1, 13326, Control_c, 0, 64, 84
1, 13341, Control_c, 0, 64, 84
1, 13356, Control_c, 0, 64, 85
1, 13371, Control_c, 0, 64, 86
1, 13386, Control_c, 0, 64, 87
1, 13400, Control_c, 0, 64, 88
1, 13415, Control_c, 0, 64, 88
1, 13459, Control_c, 0, 64, 85
1, 13474, Control_c, 0, 64, 77
1, 13489, Control_c, 0, 64, 64
1, 13504, Control_c, 0, 64, 0
1, 13509, Note_off_c, 0, 64, 58
1, 13526, Note_on_c, 0, 65, 62
1, 13535, Note_off_c, 0, 60, 59
1, 13542, Note_on_c, 0, 57, 39
1, 13601, Control_c, 0, 64, 50
1, 13609, Note_off_c, 0, 41, 42
1, 13616, Control_c, 0, 64, 68
1, 13621, Note_off_c, 0, 29, 54
1, 13631, Control_c, 0, 64, 75
1, 13646, Control_c, 0, 64, 82
1, 13661, Control_c, 0, 64, 87
1, 13676, Control_c, 0, 64, 93
1, 13690, Control_c, 0, 64, 98
1, 13705, Control_c, 0, 64, 106
1, 13720, Control_c, 0, 64, 112
1, 13735, Control_c, 0, 64, 118
1, 13750, Control_c, 0, 64, 124
1, 13764, Control_c, 0, 64, 127
1, 13949, Note_on_c, 0, 69, 59
1, 13968, Note_off_c, 0, 65, 33
1, 13973, Note_on_c, 0, 53, 41
1, 14028, Note_off_c, 0, 53, 62
1, 14052, Note_off_c, 0, 69, 63
1, 14057, Note_off_c, 0, 57, 39
1, 14468, Note_on_c, 0, 60, 59
1, 14489, Note_on_c, 0, 52, 48
1, 14500, Note_on_c, 0, 48, 40
1, 14507, Note_on_c, 0, 36, 30
1, 14633, Control_c, 0, 64, 115
1, 14648, Control_c, 0, 64, 99
1, 14662, Control_c, 0, 64, 80
1, 14677, Control_c, 0, 64, 62
1, 14692, Control_c, 0, 64, 0
1, 14751, Control_c, 0, 64, 60
1, 14766, Control_c, 0, 64, 71
1, 14780, Control_c, 0, 64, 79
1, 14795, Control_c, 0, 64, 87
1, 14810, Control_c, 0, 64, 92
1, 14824, Control_c, 0, 64, 94
1, 14839, Control_c, 0, 64, 96
1, 14854, Control_c, 0, 64, 98
1, 14869, Control_c, 0, 64, 100
1, 14877, Note_off_c, 0, 48, 42
1, 14884, Control_c, 0, 64, 101
1, 14899, Control_c, 0, 64, 102
1, 14973, Control_c, 0, 64, 102
1, 15080, Note_on_c, 0, 53, 50
1, 15081, Note_off_c, 0, 52, 51
1, 15088, Note_on_c, 0, 50, 42
1, 15253, Note_off_c, 0, 50, 40
1, 15277, Control_c, 0, 64, 102
1, 15291, Control_c, 0, 64, 99
1, 15303, Note_off_c, 0, 53, 62
1, 15306, Control_c, 0, 64, 89
1, 15319, Note_on_c, 0, 55, 53
1, 15321, Control_c, 0, 64, 72
1, 15335, Note_on_c, 0, 52, 45
1, 15336, Control_c, 0, 64, 0
1, 15396, Control_c, 0, 64, 44
1, 15410, Control_c, 0, 64, 67
1, 15425, Control_c, 0, 64, 73
1, 15440, Control_c, 0, 64, 78
1, 15454, Control_c, 0, 64, 80
1, 15455, Note_off_c, 0, 52, 60
1, 15469, Control_c, 0, 64, 81
1, 15484, Control_c, 0, 64, 82
1, 15499, Control_c, 0, 64, 83
1, 15528, Control_c, 0, 64, 83
1, 15543, Control_c, 0, 64, 84
1, 15654, Note_off_c, 0, 60, 51
1, 15721, Note_on_c, 0, 59, 49
1, 15727, Note_on_c, 0, 62, 54
1, 15736, Control_c, 0, 64, 82
1, 15739, Note_on_c, 0, 53, 39
1, 15742, Note_off_c, 0, 55, 41
1, 15751, Control_c, 0, 64, 77
1, 15765, Control_c, 0, 64, 67
1, 15780, Control_c, 0, 64, 0
1, 15861, Control_c, 0, 64, 57
1, 15876, Control_c, 0, 64, 68
1, 15891, Control_c, 0, 64, 72
1, 15904, Note_off_c, 0, 59, 36
1, 15906, Control_c, 0, 64, 76
1, 15921, Control_c, 0, 64, 77
1, 15935, Control_c, 0, 64, 78
1, 15950, Control_c, 0, 64, 79
1, 15965, Control_c, 0, 64, 80
1, 15980, Control_c, 0, 64, 80
1, 15995, Control_c, 0, 64, 81
1, 16049, Note_off_c, 0, 53, 40
1, 16180, Note_off_c, 0, 62, 51
1, 16184, Note_on_c, 0, 64, 45
1, 16198, Note_on_c, 0, 58, 45
1, 16208, Note_on_c, 0, 55, 42
1, 16219, Control_c, 0, 64, 80
1, 16233, Control_c, 0, 64, 78
1, 16248, Control_c, 0, 64, 73
1, 16263, Control_c, 0, 64, 67
1, 16277, Control_c, 0, 64, 0
1, 16411, Control_c, 0, 64, 25
1, 16425, Control_c, 0, 64, 65
1, 16440, Control_c, 0, 64, 72
1, 16455, Control_c, 0, 64, 78
1, 16469, Control_c, 0, 64, 82
1, 16484, Control_c, 0, 64, 85
1, 16499, Control_c, 0, 64, 87
1, 16514, Control_c, 0, 64, 90
1, 16529, Control_c, 0, 64, 92
1, 16543, Control_c, 0, 64, 95
1, 16558, Control_c, 0, 64, 97
1, 16581, Control_c, 0, 64, 99
1, 16596, Control_c, 0, 64, 100
1, 16610, Control_c, 0, 64, 101
1, 16625, Control_c, 0, 64, 102
1, 16640, Control_c, 0, 64, 102
1, 16658, Note_on_c, 0, 60, 48
1, 16670, Control_c, 0, 64, 103
1, 16687, Note_off_c, 0, 58, 36
1, 16699, Control_c, 0, 64, 103
1, 16701, Note_off_c, 0, 64, 51
1, 16721, Note_off_c, 0, 55, 42
1, 16728, Note_off_c, 0, 60, 59
1, 16729, Control_c, 0, 64, 104
1, 16735, Note_off_c, 0, 36, 30
1, 16744, Control_c, 0, 64, 104
1, 16758, Control_c, 0, 64, 105
1, 16773, Control_c, 0, 64, 105
1, 16804, Control_c, 0, 64, 106
1, 16834, Control_c, 0, 64, 106
1, 16922, Control_c, 0, 64, 107
1, 16982, Control_c, 0, 64, 107
1, 17232, Note_on_c, 0, 69, 48
1, 17237, Note_on_c, 0, 60, 34
1, 17240, Note_on_c, 0, 57, 34
1, 17241, Note_on_c, 0, 65, 43
1, 17253, Note_on_c, 0, 41, 35
1, 17292, Control_c, 0, 64, 107
1, 17307, Control_c, 0, 64, 105
1, 17330, Control_c, 0, 64, 99
1, 17345, Control_c, 0, 64, 87
1, 17360, Control_c, 0, 64, 74
1, 17374, Control_c, 0, 64, 52
1, 17389, Control_c, 0, 64, 0
1, 17463, Control_c, 0, 64, 49
1, 17478, Control_c, 0, 64, 69
1, 17494, Control_c, 0, 64, 78
1, 17508, Control_c, 0, 64, 86
1, 17523, Control_c, 0, 64, 90
1, 17538, Control_c, 0, 64, 93
1, 17553, Control_c, 0, 64, 96
1, 17568, Control_c, 0, 64, 98
1, 17582, Control_c, 0, 64, 101
1, 17598, Control_c, 0, 64, 102
1, 17613, Control_c, 0, 64, 103
1, 17628, Control_c, 0, 64, 103
1, 17801, Note_off_c, 0, 41, 42
1, 17806, Note_off_c, 0, 60, 50
1, 17814, Note_on_c, 0, 40, 48
1, 18042, Control_c, 0, 64, 103
1, 18046, Note_on_c, 0, 62, 55
1, 18049, Note_off_c, 0, 65, 59
1, 18055, Note_on_c, 0, 38, 45
1, 18055, Note_off_c, 0, 40, 41
1, 18057, Control_c, 0, 64, 97
1, 18079, Control_c, 0, 64, 87
1, 18094, Control_c, 0, 64, 72
1, 18109, Control_c, 0, 64, 29
1, 18123, Control_c, 0, 64, 0
1, 18183, Control_c, 0, 64, 47
1, 18198, Control_c, 0, 64, 67
1, 18213, Control_c, 0, 64, 73
1, 18228, Control_c, 0, 64, 78
1, 18243, Control_c, 0, 64, 81
1, 18257, Control_c, 0, 64, 83
1, 18272, Control_c, 0, 64, 85
1, 18287, Control_c, 0, 64, 87
1, 18302, Control_c, 0, 64, 90
1, 18317, Control_c, 0, 64, 92
1, 18331, Control_c, 0, 64, 94
1, 18346, Control_c, 0, 64, 95
1, 18361, Control_c, 0, 64, 96
1, 18376, Control_c, 0, 64, 97
1, 18391, Control_c, 0, 64, 98
1, 18407, Control_c, 0, 64, 99
1, 18421, Control_c, 0, 64, 100
1, 18436, Control_c, 0, 64, 101
1, 18437, Note_on_c, 0, 67, 66
1, 18451, Control_c, 0, 64, 102
1, 18456, Note_on_c, 0, 36, 52
1, 18462, Note_on_c, 0, 64, 42
1, 18466, Control_c, 0, 64, 102
1, 18466, Note_off_c, 0, 69, 39
1, 18480, Control_c, 0, 64, 103
1, 18495, Control_c, 0, 64, 104
1, 18509, Note_off_c, 0, 38, 36
1, 18510, Control_c, 0, 64, 105
1, 18520, Note_off_c, 0, 57, 41
1, 18520, Note_off_c, 0, 64, 58
1, 18525, Note_off_c, 0, 62, 48
1, 18525, Control_c, 0, 64, 106
1, 18540, Control_c, 0, 64, 107
1, 18554, Control_c, 0, 64, 107
1, 18569, Control_c, 0, 64, 108
1, 18584, Control_c, 0, 64, 108
1, 18599, Control_c, 0, 64, 109
1, 18603, Note_off_c, 0, 67, 61
1, 18613, Note_on_c, 0, 35, 60
1, 18614, Control_c, 0, 64, 110
1, 18618, Note_off_c, 0, 36, 55
1, 18628, Control_c, 0, 64, 110
1, 18658, Control_c, 0, 64, 111
1, 18702, Control_c, 0, 64, 111
1, 18862, Note_on_c, 0, 72, 64
1, 18873, Note_on_c, 0, 64, 48
1, 18877, Note_on_c, 0, 69, 55
1, 18880, Note_on_c, 0, 33, 52
1, 18883, Note_off_c, 0, 35, 53
1, 18902, Control_c, 0, 64, 110
1, 18917, Control_c, 0, 64, 105
1, 18932, Control_c, 0, 64, 95
1, 18947, Control_c, 0, 64, 82
1, 18961, Control_c, 0, 64, 65
1, 18976, Control_c, 0, 64, 0
1, 18991, Control_c, 0, 67, 8
1, 19006, Control_c, 0, 67, 14
1, 19021, Control_c, 0, 67, 25
1, 19035, Control_c, 0, 67, 37
1, 19050, Control_c, 0, 67, 50
1, 19065, Control_c, 0, 64, 64
1, 19065, Control_c, 0, 67, 62
1, 19080, Control_c, 0, 64, 72
1, 19080, Control_c, 0, 67, 74
1, 19095, Control_c, 0, 64, 79
1, 19095, Control_c, 0, 67, 86
1, 19110, Control_c, 0, 64, 85
1, 19110, Control_c, 0, 67, 98
1, 19125, Control_c, 0, 64, 89
1, 19125, Control_c, 0, 67, 110
1, 19140, Control_c, 0, 64, 92
1, 19140, Control_c, 0, 67, 121
1, 19154, Control_c, 0, 64, 96
1, 19154, Control_c, 0, 67, 127
1, 19169, Control_c, 0, 64, 99
1, 19184, Control_c, 0, 64, 101
1, 19199, Control_c, 0, 64, 104
1, 19214, Control_c, 0, 64, 105
1, 19229, Control_c, 0, 64, 107
1, 19244, Control_c, 0, 64, 109
1, 19259, Control_c, 0, 64, 111
1, 19261, Note_on_c, 0, 73, 72
1, 19274, Control_c, 0, 64, 113
1, 19277, Note_off_c, 0, 33, 63
1, 19283, Note_off_c, 0, 72, 55
1, 19289, Control_c, 0, 64, 114
1, 19297, Note_off_c, 0, 69, 62
1, 19303, Control_c, 0, 64, 115
1, 19318, Control_c, 0, 64, 116
1, 19328, Note_off_c, 0, 64, 55
1, 19333, Control_c, 0, 64, 118
1, 19348, Control_c, 0, 64, 119
1, 19363, Control_c, 0, 64, 121
1, 19377, Control_c, 0, 64, 122
1, 19392, Control_c, 0, 64, 124
1, 19407, Control_c, 0, 64, 125
1, 19421, Control_c, 0, 64, 126
1, 19436, Control_c, 0, 64, 127
1, 19666, Control_c, 0, 67, 123
1, 19681, Control_c, 0, 67, 113
1, 19696, Control_c, 0, 67, 102
1, 19710, Control_c, 0, 67, 89
1, 19725, Control_c, 0, 67, 77
1, 19740, Control_c, 0, 67, 63
1, 19754, Control_c, 0, 67, 52
1, 19769, Control_c, 0, 67, 43
1, 19783, Control_c, 0, 67, 36
1, 19798, Control_c, 0, 67, 30
1, 19813, Control_c, 0, 67, 26
1, 19815, Note_on_c, 0, 76, 57
1, 19827, Control_c, 0, 67, 21
1, 19838, Note_on_c, 0, 65, 39
1, 19838, Note_on_c, 0, 71, 49
1, 19842, Control_c, 0, 67, 17
1, 19847, Note_on_c, 0, 31, 33
1, 19849, Note_off_c, 0, 73, 32
1, 19851, Note_on_c, 0, 43, 32
1, 19857, Control_c, 0, 67, 14
1, 19872, Control_c, 0, 67, 12
1, 19887, Control_c, 0, 67, 10
1, 19901, Control_c, 0, 67, 9
1, 19916, Control_c, 0, 64, 117
1, 19916, Control_c, 0, 67, 9
1, 19931, Control_c, 0, 64, 103
1, 19946, Control_c, 0, 64, 88
1, 19946, Control_c, 0, 67, 8
1, 19961, Control_c, 0, 64, 72
1, 19961, Control_c, 0, 67, 8
1, 19975, Control_c, 0, 64, 16
1, 19975, Control_c, 0, 67, 0
1, 19991, Control_c, 0, 64, 0
1, 20080, Control_c, 0, 64, 47
1, 20095, Control_c, 0, 64, 68
1, 20110, Control_c, 0, 64, 79
1, 20124, Control_c, 0, 64, 91
1, 20139, Control_c, 0, 64, 100
1, 20154, Control_c, 0, 64, 107
1, 20169, Control_c, 0, 64, 110
1, 20184, Control_c, 0, 64, 113
1, 20198, Control_c, 0, 64, 118
1, 20198, Control_c, 0, 67, 8
1, 20213, Control_c, 0, 64, 124
1, 20221, Note_off_c, 0, 31, 39
1, 20228, Control_c, 0, 64, 127
1, 20443, Control_c, 0, 67, 8
1, 20445, Note_off_c, 0, 71, 55
1, 20447, Note_on_c, 0, 74, 52
1, 20449, Note_off_c, 0, 76, 54
1, 20460, Note_off_c, 0, 43, 39
1, 20496, Note_off_c, 0, 74, 54
1, 20502, Note_off_c, 0, 65, 42
1, 20547, Control_c, 0, 67, 9
1, 20696, Control_c, 0, 67, 9
1, 20725, Control_c, 0, 67, 10
1, 20732, Note_on_c, 0, 72, 48
1, 20740, Control_c, 0, 67, 12
1, 20746, Note_on_c, 0, 64, 37
1, 20747, Note_on_c, 0, 48, 42
1, 20747, Note_on_c, 0, 67, 35
1, 20755, Control_c, 0, 64, 123
1, 20755, Control_c, 0, 67, 14
1, 20764, Note_on_c, 0, 36, 34
1, 20770, Control_c, 0, 64, 107
1, 20770, Control_c, 0, 67, 17
1, 20785, Control_c, 0, 64, 93
1, 20785, Control_c, 0, 67, 25
1, 20800, Control_c, 0, 64, 76
1, 20800, Control_c, 0, 67, 43
1, 20815, Control_c, 0, 64, 46
1, 20815, Control_c, 0, 67, 75
1, 20830, Control_c, 0, 64, 0
1, 20830, Control_c, 0, 67, 110
1, 20845, Control_c, 0, 67, 127
1, 20889, Control_c, 0, 64, 34
1, 20903, Note_off_c, 0, 36, 55
1, 20904, Control_c, 0, 64, 68
1, 20919, Control_c, 0, 64, 77
1, 20934, Control_c, 0, 64, 86
1, 20948, Control_c, 0, 64, 91
1, 20963, Control_c, 0, 64, 94
1, 20978, Control_c, 0, 64, 96
1, 20993, Control_c, 0, 64, 99
1, 21008, Control_c, 0, 64, 101
1, 21022, Control_c, 0, 64, 102
1, 21037, Control_c, 0, 64, 103
1, 21052, Control_c, 0, 64, 104
1, 21074, Control_c, 0, 64, 104
1, 21119, Control_c, 0, 64, 105
1, 21355, Note_on_c, 0, 57, 35
1, 21368, Note_on_c, 0, 54, 41
1, 21431, Note_off_c, 0, 54, 49
1, 21451, Note_off_c, 0, 57, 55
1, 21757, Control_c, 0, 64, 104
1, 21771, Control_c, 0, 64, 101
1, 21776, Note_on_c, 0, 58, 37
1, 21786, Control_c, 0, 64, 94
1, 21793, Note_on_c, 0, 55, 38
1, 21801, Control_c, 0, 64, 83
1, 21823, Control_c, 0, 64, 69
1, 21838, Control_c, 0, 64, 0
1, 21927, Control_c, 0, 64, 65
1, 21930, Note_off_c, 0, 58, 56
1, 21942, Control_c, 0, 64, 74
1, 21957, Control_c, 0, 64, 81
1, 21971, Control_c, 0, 64, 86
1, 21975, Note_off_c, 0, 55, 46
1, 21986, Control_c, 0, 64, 89
1, 22000, Control_c, 0, 64, 91
1, 22014, Control_c, 0, 64, 93
1, 22029, Control_c, 0, 64, 96
1, 22044, Control_c, 0, 64, 97
1, 22059, Control_c, 0, 64, 99
1, 22074, Control_c, 0, 64, 100
1, 22088, Control_c, 0, 64, 100
1, 22103, Control_c, 0, 64, 101
1, 22118, Control_c, 0, 64, 101
1, 22148, Control_c, 0, 64, 102
1, 22252, Control_c, 0, 64, 101
1, 22255, Note_on_c, 0, 55, 34
1, 22261, Note_on_c, 0, 52, 37
1, 22267, Control_c, 0, 64, 95
1, 22282, Control_c, 0, 64, 84
1, 22296, Control_c, 0, 64, 71
1, 22311, Control_c, 0, 64, 0
1, 22370, Control_c, 0, 64, 63
1, 22377, Note_off_c, 0, 48, 44
1, 22380, Note_off_c, 0, 64, 55
1, 22383, Note_off_c, 0, 72, 61
1, 22385, Control_c, 0, 64, 73
1, 22401, Control_c, 0, 64, 84
1, 22414, Note_off_c, 0, 67, 48
1, 22416, Control_c, 0, 64, 93
1, 22431, Note_off_c, 0, 52, 43
1, 22431, Control_c, 0, 64, 98
1, 22445, Control_c, 0, 64, 103
1, 22445, Control_c, 0, 67, 126
1, 22446, Note_off_c, 0, 55, 42
1, 22460, Control_c, 0, 64, 107
1, 22460, Control_c, 0, 67, 111
1, 22475, Control_c, 0, 64, 112
1, 22475, Control_c, 0, 67, 93
1, 22490, Control_c, 0, 64, 118
1, 22490, Control_c, 0, 67, 72
1, 22505, Control_c, 0, 64, 125
1, 22505, Control_c, 0, 67, 52
1, 22519, Control_c, 0, 64, 127
1, 22519, Control_c, 0, 67, 37
1, 22534, Control_c, 0, 67, 28
1, 22549, Control_c, 0, 67, 23
1, 22571, Control_c, 0, 67, 20
1, 22586, Control_c, 0, 67, 18
1, 22601, Control_c, 0, 67, 16
1, 22616, Control_c, 0, 67, 13
1, 22630, Control_c, 0, 67, 9
1, 22645, Control_c, 0, 67, 0
1, 22955, Note_on_c, 0, 72, 69
1, 22960, Note_on_c, 0, 60, 60
1, 22970, Note_on_c, 0, 65, 58
1, 22990, Note_on_c, 0, 53, 35
1, 22991, Note_on_c, 0, 57, 40
1, 23060, Control_c, 0, 64, 122
1, 23075, Control_c, 0, 64, 109
1, 23090, Control_c, 0, 64, 97
1, 23104, Control_c, 0, 64, 84
1, 23119, Control_c, 0, 64, 70
1, 23134, Control_c, 0, 64, 0
1, 23224, Control_c, 0, 64, 56
1, 23239, Control_c, 0, 64, 71
1, 23253, Control_c, 0, 64, 80
1, 23268, Control_c, 0, 64, 93
1, 23283, Control_c, 0, 64, 100
1, 23298, Control_c, 0, 64, 107
1, 23320, Control_c, 0, 64, 112
1, 23335, Control_c, 0, 64, 117
1, 23349, Control_c, 0, 64, 121
1, 23352, Note_off_c, 0, 57, 59
1, 23364, Control_c, 0, 64, 127
1, 23407, Note_off_c, 0, 53, 56
1, 23493, Note_off_c, 0, 60, 53
1, 23521, Note_off_c, 0, 65, 55
1, 23828, Note_on_c, 0, 69, 73
1, 23836, Note_on_c, 0, 65, 63
1, 23838, Note_on_c, 0, 60, 59
1, 23848, Note_on_c, 0, 45, 43
1, 23849, Note_on_c, 0, 53, 47
1, 23856, Note_on_c, 0, 41, 42
1, 23860, Note_on_c, 0, 48, 48
1, 23902, Note_off_c, 0, 72, 53
1, 23942, Control_c, 0, 64, 115
1, 23957, Control_c, 0, 64, 102
1, 23972, Control_c, 0, 64, 87
1, 23987, Control_c, 0, 64, 71
1, 24002, Control_c, 0, 64, 0
1, 24098, Control_c, 0, 64, 54
1, 24113, Control_c, 0, 64, 71
1, 24128, Control_c, 0, 64, 85
1, 24143, Control_c, 0, 64, 97
1, 24158, Control_c, 0, 64, 106
1, 24172, Control_c, 0, 64, 114
1, 24187, Control_c, 0, 64, 121
1, 24202, Control_c, 0, 64, 127
1, 24219, Note_off_c, 0, 60, 57
1, 24220, Note_off_c, 0, 41, 40
1, 24233, Note_off_c, 0, 53, 60
1, 24235, Note_off_c, 0, 48, 61
1, 24239, Note_off_c, 0, 65, 52
1, 24257, Note_off_c, 0, 45, 41
1, 24698, Note_on_c, 0, 74, 71
1, 24699, Note_on_c, 0, 62, 67
1, 24711, Note_on_c, 0, 65, 63
1, 24718, Note_on_c, 0, 53, 49
1, 24720, Note_on_c, 0, 46, 51
1, 24720, Note_on_c, 0, 58, 51
1, 24799, Note_off_c, 0, 69, 35
1, 24818, Control_c, 0, 64, 112
1, 24833, Control_c, 0, 64, 95
1, 24848, Control_c, 0, 64, 78
1, 24863, Control_c, 0, 64, 60
1, 24878, Control_c, 0, 64, 0
1, 24967, Control_c, 0, 64, 60
1, 24982, Control_c, 0, 64, 71
1, 24996, Control_c, 0, 64, 83
1, 25011, Control_c, 0, 64, 96
1, 25026, Control_c, 0, 64, 107
1, 25040, Control_c, 0, 64, 116
1, 25054, Note_off_c, 0, 58, 61
1, 25055, Control_c, 0, 64, 122
1, 25069, Note_off_c, 0, 74, 60
1, 25070, Control_c, 0, 64, 127
1, 25112, Note_off_c, 0, 53, 57
1, 25114, Note_off_c, 0, 62, 52
1, 25157, Note_off_c, 0, 65, 60
1, 25158, Note_off_c, 0, 46, 42
1, 25576, Note_on_c, 0, 64, 62
1, 25576, Note_on_c, 0, 67, 66
1, 25582, Note_on_c, 0, 60, 59
1, 25593, Note_on_c, 0, 55, 51
1, 25599, Note_on_c, 0, 52, 46
1, 25608, Note_on_c, 0, 48, 43
1, 25686, Control_c, 0, 64, 116
1, 25701, Control_c, 0, 64, 100
1, 25716, Control_c, 0, 64, 84
1, 25731, Control_c, 0, 64, 67
1, 25744, Control_c, 0, 64, 0
1, 25833, Control_c, 0, 64, 23
1, 25848, Control_c, 0, 64, 68
1, 25862, Control_c, 0, 64, 78
1, 25877, Control_c, 0, 64, 88
1, 25892, Control_c, 0, 64, 95
1, 25907, Control_c, 0, 64, 100
1, 25922, Control_c, 0, 64, 103
1, 25936, Control_c, 0, 64, 106
1, 25951, Control_c, 0, 64, 110
1, 25966, Control_c, 0, 64, 113
1, 25981, Control_c, 0, 64, 115
1, 25996, Control_c, 0, 64, 117
1, 26011, Control_c, 0, 64, 118
1, 26026, Control_c, 0, 64, 119
1, 26041, Control_c, 0, 64, 120
1, 26056, Control_c, 0, 64, 120
1, 26070, Control_c, 0, 64, 121
1, 26085, Control_c, 0, 64, 121
1, 26100, Control_c, 0, 64, 122
1, 26115, Control_c, 0, 64, 122
1, 26130, Control_c, 0, 64, 123
1, 26135, Note_off_c, 0, 55, 52
1, 26139, Note_on_c, 0, 69, 62
1, 26139, Note_off_c, 0, 64, 52
1, 26142, Note_off_c, 0, 48, 41
1, 26160, Note_off_c, 0, 52, 63
1, 26163, Note_off_c, 0, 67, 54
1, 26188, Control_c, 0, 64, 123
1, 26213, Note_off_c, 0, 69, 61
1, 26239, Note_off_c, 0, 60, 35
1, 26389, Control_c, 0, 64, 121
1, 26404, Control_c, 0, 64, 110
1, 26419, Control_c, 0, 64, 91
1, 26428, Note_on_c, 0, 69, 57
1, 26429, Note_on_c, 0, 60, 45
1, 26430, Note_on_c, 0, 48, 53
1, 26433, Note_on_c, 0, 54, 49
1, 26434, Control_c, 0, 64, 73
1, 26440, Note_on_c, 0, 63, 44
1, 26445, Note_on_c, 0, 51, 40
1, 26449, Control_c, 0, 64, 0
1, 26468, Note_off_c, 0, 63, 57
1, 26474, Note_off_c, 0, 60, 47
1, 26493, Control_c, 0, 64, 60
1, 26508, Control_c, 0, 64, 73
1, 26523, Control_c, 0, 64, 86
1, 26530, Note_off_c, 0, 69, 64
1, 26538, Control_c, 0, 64, 98
1, 26553, Control_c, 0, 64, 105
1, 26567, Control_c, 0, 64, 110
1, 26582, Control_c, 0, 64, 112
1, 26597, Control_c, 0, 64, 115
1, 26609, Note_on_c, 0, 70, 65
1, 26611, Control_c, 0, 64, 119
1, 26626, Control_c, 0, 64, 123
1, 26641, Control_c, 0, 64, 124
1, 26656, Control_c, 0, 64, 125
1, 26664, Note_off_c, 0, 70, 61
1, 26671, Control_c, 0, 64, 125
1, 26672, Note_on_c, 0, 69, 63
1, 26685, Control_c, 0, 64, 126
1, 26700, Control_c, 0, 64, 126
1, 26717, Note_off_c, 0, 69, 63
1, 26724, Note_on_c, 0, 70, 62
1, 26745, Control_c, 0, 64, 127
1, 26774, Note_off_c, 0, 70, 61
1, 26783, Note_on_c, 0, 69, 50
1, 26810, Note_off_c, 0, 69, 64
1, 26817, Note_on_c, 0, 70, 57
1, 26819, Control_c, 0, 64, 127
1, 26874, Note_off_c, 0, 48, 53
1, 26885, Note_off_c, 0, 70, 58
1, 26893, Note_off_c, 0, 54, 58
1, 26894, Note_on_c, 0, 69, 61
1, 26899, Note_off_c, 0, 51, 54
1, 26977, Note_off_c, 0, 69, 64
1, 26994, Note_on_c, 0, 67, 57
1, 27036, Note_off_c, 0, 67, 58
1, 27089, Note_on_c, 0, 69, 46
1, 27184, Note_off_c, 0, 69, 59
1, 27238, Note_on_c, 0, 70, 50
1, 27280, Note_on_c, 0, 46, 34
1, 27284, Note_on_c, 0, 50, 37
1, 27285, Note_on_c, 0, 55, 38
1, 27287, Control_c, 0, 64, 121
1, 27302, Control_c, 0, 64, 108
1, 27316, Control_c, 0, 64, 91
1, 27331, Control_c, 0, 64, 72
1, 27346, Control_c, 0, 64, 0
1, 27450, Control_c, 0, 64, 62
1, 27465, Control_c, 0, 64, 73
1, 27480, Control_c, 0, 64, 87
1, 27495, Control_c, 0, 64, 98
1, 27509, Control_c, 0, 64, 105
1, 27524, Control_c, 0, 64, 109
1, 27539, Control_c, 0, 64, 113
1, 27554, Control_c, 0, 64, 116
1, 27569, Control_c, 0, 64, 123
1, 27581, Note_off_c, 0, 70, 60
1, 27583, Control_c, 0, 64, 127
1, 27639, Note_off_c, 0, 55, 42
1, 27699, Note_off_c, 0, 46, 38
1, 27722, Note_off_c, 0, 50, 35
1, 28184, Control_c, 0, 64, 109
1, 28190, Note_on_c, 0, 57, 44
1, 28193, Note_on_c, 0, 45, 36
1, 28197, Note_on_c, 0, 72, 48
1, 28199, Control_c, 0, 64, 90
1, 28201, Note_on_c, 0, 53, 43
1, 28214, Control_c, 0, 64, 71
1, 28229, Control_c, 0, 64, 0
1, 28288, Control_c, 0, 64, 30
1, 28303, Control_c, 0, 64, 69
1, 28318, Control_c, 0, 64, 81
1, 28332, Control_c, 0, 64, 95
1, 28347, Control_c, 0, 64, 105
1, 28362, Control_c, 0, 64, 109
1, 28376, Control_c, 0, 64, 111
1, 28391, Control_c, 0, 64, 113
1, 28399, Note_off_c, 0, 72, 33
1, 28406, Control_c, 0, 64, 117
1, 28421, Control_c, 0, 64, 120
1, 28436, Control_c, 0, 64, 123
1, 28450, Control_c, 0, 64, 125
1, 28465, Control_c, 0, 64, 126
1, 28480, Control_c, 0, 64, 127
1, 28688, Note_off_c, 0, 57, 37
1, 28799, Note_off_c, 0, 53, 32
1, 28986, Note_on_c, 0, 65, 57
1, 28992, Control_c, 0, 64, 112
1, 29001, Note_on_c, 0, 57, 42
1, 29007, Control_c, 0, 64, 93
1, 29022, Control_c, 0, 64, 77
1, 29036, Control_c, 0, 64, 65
1, 29051, Control_c, 0, 64, 62
1, 29066, Control_c, 0, 64, 66
1, 29081, Control_c, 0, 64, 73
1, 29096, Control_c, 0, 64, 83
1, 29111, Control_c, 0, 64, 96
1, 29126, Control_c, 0, 64, 104
1, 29141, Control_c, 0, 64, 109
1, 29155, Control_c, 0, 64, 112
1, 29170, Control_c, 0, 64, 116
1, 29181, Note_off_c, 0, 57, 50
1, 29185, Control_c, 0, 64, 122
1, 29200, Control_c, 0, 64, 127
1, 29238, Note_off_c, 0, 65, 60
1, 29504, Note_on_c, 0, 46, 55
1, 29522, Note_on_c, 0, 67, 34
1, 29529, Note_on_c, 0, 58, 35
1, 29552, Note_off_c, 0, 45, 41
1, 29558, Note_off_c, 0, 67, 49
1, 29563, Note_off_c, 0, 58, 51
1, 29735, Note_off_c, 0, 46, 34
1, 29741, Control_c, 0, 64, 113
1, 29756, Control_c, 0, 64, 93
1, 29769, Note_on_c, 0, 48, 48
1, 29771, Control_c, 0, 64, 71
1, 29775, Note_on_c, 0, 69, 36
1, 29785, Control_c, 0, 64, 0
1, 29798, Note_on_c, 0, 60, 11
1, 29807, Note_off_c, 0, 69, 53
1, 29815, Control_c, 0, 64, 43
1, 29829, Control_c, 0, 64, 64
1, 29844, Control_c, 0, 64, 73
1, 29846, Note_off_c, 0, 60, 47
1, 29859, Control_c, 0, 64, 82
1, 29874, Control_c, 0, 64, 93
1, 29889, Control_c, 0, 64, 99
1, 29898, Note_off_c, 0, 48, 60
1, 29904, Control_c, 0, 64, 103
1, 29919, Control_c, 0, 64, 105
1, 29934, Control_c, 0, 64, 108
1, 29949, Control_c, 0, 64, 111
1, 29963, Control_c, 0, 64, 114
1, 29978, Control_c, 0, 64, 116
1, 29993, Control_c, 0, 64, 117
1, 30023, Control_c, 0, 64, 118
1, 30037, Control_c, 0, 64, 119
1, 30059, Control_c, 0, 64, 120
1, 30074, Control_c, 0, 64, 121
1, 30089, Control_c, 0, 64, 121
1, 30133, Control_c, 0, 64, 122
1, 30145, Note_on_c, 0, 48, 50
1, 30148, Control_c, 0, 64, 122
1, 30163, Control_c, 0, 64, 123
1, 30166, Note_on_c, 0, 58, 42
1, 30169, Note_on_c, 0, 67, 37
1, 30169, Note_on_c, 0, 36, 43
1, 30178, Control_c, 0, 64, 123
1, 30193, Control_c, 0, 64, 124
1, 30206, Note_off_c, 0, 48, 56
1, 30220, Note_off_c, 0, 67, 43
1, 30224, Note_off_c, 0, 58, 39
1, 30252, Control_c, 0, 64, 125
1, 30267, Control_c, 0, 64, 125
1, 30282, Control_c, 0, 64, 126
1, 30284, Note_off_c, 0, 36, 54
1, 30297, Control_c, 0, 64, 126
1, 30311, Control_c, 0, 64, 127
1, 30667, Note_on_c, 0, 65, 46
1, 30672, Note_on_c, 0, 57, 37
1, 30673, Note_on_c, 0, 29, 35
1, 30675, Note_on_c, 0, 41, 41
1, 30712, Control_c, 0, 64, 121
1, 30727, Control_c, 0, 64, 107
1, 30741, Control_c, 0, 64, 92
1, 30756, Control_c, 0, 64, 75
1, 30771, Control_c, 0, 64, 18
1, 30786, Control_c, 0, 64, 0
1, 30882, Control_c, 0, 64, 49
1, 30897, Control_c, 0, 64, 70
1, 30912, Control_c, 0, 64, 80
1, 30927, Control_c, 0, 64, 93
1, 30941, Control_c, 0, 64, 102
1, 30956, Control_c, 0, 64, 110
1, 30971, Control_c, 0, 64, 115
1, 30986, Control_c, 0, 64, 122
1, 31001, Control_c, 0, 64, 127
1, 31422, Note_off_c, 0, 41, 44
1, 31466, Note_on_c, 0, 60, 44
1, 31467, Note_off_c, 0, 29, 38
1, 31618, Note_off_c, 0, 65, 23
1, 31788, Note_off_c, 0, 57, 32
1, 31829, Note_off_c, 0, 60, 23
1, 31885, Note_on_c, 0, 41, 46
1, 31894, Note_on_c, 0, 29, 38
1, 32018, Note_off_c, 0, 41, 36
1, 32034, Note_off_c, 0, 29, 39
1, 32314, Note_on_c, 0, 41, 47
1, 32327, Note_on_c, 0, 29, 36
1, 32395, Note_off_c, 0, 41, 54
1, 32455, Note_off_c, 0, 29, 34
1, 32696, Note_on_c, 0, 41, 48
1, 32697, Note_on_c, 0, 29, 48
1, 32735, Note_off_c, 0, 29, 62
1, 32753, Note_off_c, 0, 41, 64
1, 33177, Note_on_c, 0, 62, 49
1, 33180, Note_on_c, 0, 58, 46
1, 33207, Note_on_c, 0, 53, 35
1, 33260, Control_c, 0, 64, 117
1, 33275, Control_c, 0, 64, 96
1, 33290, Control_c, 0, 64, 77
1, 33305, Control_c, 0, 64, 48
1, 33320, Control_c, 0, 64, 0
1, 33394, Control_c, 0, 64, 68
1, 33409, Control_c, 0, 64, 81
1, 33424, Control_c, 0, 64, 95
1, 33439, Control_c, 0, 64, 106
1, 33453, Control_c, 0, 64, 115
1, 33468, Control_c, 0, 64, 122
1, 33483, Control_c, 0, 64, 127
1, 33764, Note_on_c, 0, 57, 46
1, 33976, Note_off_c, 0, 57, 55
1, 33998, Note_on_c, 0, 55, 46
1, 34040, Control_c, 0, 64, 116
1, 34055, Control_c, 0, 64, 99
1, 34069, Control_c, 0, 64, 84
1, 34084, Control_c, 0, 64, 65
1, 34099, Control_c, 0, 64, 0
1, 34173, Control_c, 0, 64, 65
1, 34188, Control_c, 0, 64, 74
1, 34195, Note_on_c, 0, 86, 54
1, 34202, Control_c, 0, 64, 83
1, 34217, Control_c, 0, 64, 92
1, 34232, Control_c, 0, 64, 99
1, 34247, Control_c, 0, 64, 105
1, 34262, Control_c, 0, 64, 110
1, 34277, Control_c, 0, 64, 115
1, 34292, Control_c, 0, 64, 120
1, 34307, Control_c, 0, 64, 126
1, 34321, Control_c, 0, 64, 127
1, 34383, Note_on_c, 0, 84, 65
1, 34419, Note_off_c, 0, 62, 37
1, 34426, Note_off_c, 0, 86, 33
1, 34534, Note_on_c, 0, 82, 67
1, 34577, Note_off_c, 0, 84, 54
1, 34758, Note_on_c, 0, 81, 67
1, 34763, Note_on_c, 0, 64, 47
1, 34774, Control_c, 0, 64, 103
1, 34789, Control_c, 0, 64, 85
1, 34797, Note_off_c, 0, 82, 58
1, 34804, Control_c, 0, 64, 68
1, 34819, Control_c, 0, 64, 0
1, 34862, Note_off_c, 0, 58, 36
1, 34863, Control_c, 0, 64, 52
1, 34878, Control_c, 0, 64, 67
1, 34892, Control_c, 0, 64, 76
1, 34906, Note_off_c, 0, 55, 42
1, 34907, Control_c, 0, 64, 88
1, 34918, Note_off_c, 0, 81, 56
1, 34922, Control_c, 0, 64, 99
1, 34925, Note_on_c, 0, 79, 68
1, 34937, Control_c, 0, 64, 108
1, 34951, Control_c, 0, 64, 113
1, 34966, Control_c, 0, 64, 119
1, 34981, Control_c, 0, 64, 127
1, 35099, Note_off_c, 0, 64, 60
1, 35102, Note_off_c, 0, 79, 53
1, 35106, Note_on_c, 0, 77, 65
1, 35137, Note_on_c, 0, 60, 37
1, 35138, Note_on_c, 0, 58, 39
1, 35145, Note_on_c, 0, 55, 25
1, 35215, Note_off_c, 0, 58, 53
1, 35231, Note_off_c, 0, 60, 58
1, 35271, Note_on_c, 0, 76, 64
1, 35272, Note_off_c, 0, 55, 45
1, 35277, Note_off_c, 0, 77, 57
1, 35287, Note_off_c, 0, 53, 34
1, 35510, Note_on_c, 0, 60, 37
1, 35518, Note_on_c, 0, 79, 57
1, 35534, Note_off_c, 0, 76, 50
1, 35538, Note_on_c, 0, 57, 31
1, 35553, Control_c, 0, 64, 125
1, 35559, Note_on_c, 0, 53, 30
1, 35568, Control_c, 0, 64, 104
1, 35582, Control_c, 0, 64, 88
1, 35597, Control_c, 0, 64, 72
1, 35612, Control_c, 0, 64, 0
1, 35684, Note_off_c, 0, 79, 56
1, 35686, Control_c, 0, 64, 63
1, 35695, Note_on_c, 0, 77, 57
1, 35701, Control_c, 0, 64, 75
1, 35716, Control_c, 0, 64, 87
1, 35730, Control_c, 0, 64, 99
1, 35745, Control_c, 0, 64, 107
1, 35760, Control_c, 0, 64, 113
1, 35774, Control_c, 0, 64, 117
1, 35789, Control_c, 0, 64, 122
1, 35804, Control_c, 0, 64, 127
1, 35859, Note_off_c, 0, 77, 57
1, 35863, Note_on_c, 0, 72, 58
1, 35925, Note_off_c, 0, 72, 61
1, 35973, Note_on_c, 0, 69, 54
1, 36014, Note_off_c, 0, 69, 64
1, 36048, Note_off_c, 0, 60, 55
1, 36090, Note_on_c, 0, 65, 62
1, 36223, Note_off_c, 0, 65, 37
1, 36285, Note_on_c, 0, 60, 54
1, 36286, Control_c, 0, 64, 111
1, 36301, Control_c, 0, 64, 92
1, 36316, Control_c, 0, 64, 73
1, 36331, Control_c, 0, 64, 0
1, 36404, Control_c, 0, 64, 64
1, 36408, Note_off_c, 0, 57, 54
1, 36419, Control_c, 0, 64, 73
1, 36434, Control_c, 0, 64, 83
1, 36449, Control_c, 0, 64, 92
1, 36456, Note_off_c, 0, 53, 41
1, 36464, Control_c, 0, 64, 99
1, 36478, Control_c, 0, 64, 105
1, 36493, Control_c, 0, 64, 111
1, 36508, Control_c, 0, 64, 116
1, 36523, Control_c, 0, 64, 122
1, 36538, Control_c, 0, 64, 127
1, 36684, Note_on_c, 0, 57, 33
1, 36696, Note_on_c, 0, 53, 36
1, 36750, Note_off_c, 0, 53, 59
1, 36750, Note_off_c, 0, 57, 53
1, 37094, Note_on_c, 0, 53, 34
1, 37096, Note_on_c, 0, 57, 25
1, 37148, Note_off_c, 0, 57, 45
1, 37153, Note_off_c, 0, 53, 43
1, 37480, Note_on_c, 0, 72, 60
1, 37492, Note_on_c, 0, 57, 34
1, 37500, Note_on_c, 0, 53, 34
1, 37559, Note_off_c, 0, 57, 55
1, 37575, Note_off_c, 0, 53, 58
1, 37631, Note_off_c, 0, 60, 37
1, 37664, Note_off_c, 0, 72, 37
1, 38002, Note_on_c, 0, 72, 71
1, 38019, Note_on_c, 0, 63, 53
1, 38025, Note_on_c, 0, 53, 38
1, 38028, Note_on_c, 0, 45, 34
1, 38095, Control_c, 0, 64, 112
1, 38110, Control_c, 0, 64, 95
1, 38125, Control_c, 0, 64, 79
1, 38140, Control_c, 0, 64, 62
1, 38155, Control_c, 0, 64, 0
1, 38229, Control_c, 0, 64, 18
1, 38243, Control_c, 0, 64, 66
1, 38258, Control_c, 0, 64, 77
1, 38273, Control_c, 0, 64, 88
1, 38295, Control_c, 0, 64, 102
1, 38310, Control_c, 0, 64, 111
1, 38325, Control_c, 0, 64, 117
1, 38340, Control_c, 0, 64, 123
1, 38355, Control_c, 0, 64, 127
1, 38545, Note_off_c, 0, 45, 42
1, 38596, Note_off_c, 0, 63, 57
1, 38617, Note_on_c, 0, 65, 53
1, 38620, Note_off_c, 0, 53, 34
1, 38661, Note_off_c, 0, 65, 63
1, 38668, Note_off_c, 0, 72, 32
1, 38884, Note_on_c, 0, 65, 43
1, 38885, Note_on_c, 0, 46, 39
1, 38888, Note_on_c, 0, 62, 44
1, 38909, Note_on_c, 0, 53, 29
1, 38963, Control_c, 0, 64, 107
1, 38978, Control_c, 0, 64, 91
1, 38992, Control_c, 0, 64, 74
1, 39007, Control_c, 0, 64, 38
1, 39022, Control_c, 0, 64, 0
1, 39103, Control_c, 0, 64, 63
1, 39118, Control_c, 0, 64, 74
1, 39133, Control_c, 0, 64, 85
1, 39148, Control_c, 0, 64, 96
1, 39163, Control_c, 0, 64, 104
1, 39178, Control_c, 0, 64, 108
1, 39193, Control_c, 0, 64, 112
1, 39208, Control_c, 0, 64, 116
1, 39222, Control_c, 0, 64, 121
1, 39237, Control_c, 0, 64, 127
1, 39252, Control_c, 0, 64, 127
1, 39339, Note_on_c, 0, 74, 49
1, 39353, Note_off_c, 0, 65, 40
1, 39738, Note_on_c, 0, 72, 54
1, 39748, Note_off_c, 0, 74, 47
1, 39843, Note_off_c, 0, 62, 40
1, 39911, Note_on_c, 0, 70, 61
1, 39934, Note_off_c, 0, 72, 53
1, 40107, Note_on_c, 0, 58, 43
1, 40107, Note_on_c, 0, 69, 62
1, 40133, Note_off_c, 0, 70, 58
1, 40206, Note_off_c, 0, 53, 41
1, 40212, Note_off_c, 0, 58, 60
1, 40233, Note_off_c, 0, 69, 63
1, 40273, Note_on_c, 0, 67, 65
1, 40283, Note_off_c, 0, 46, 40
1, 40319, Note_off_c, 0, 67, 58
1, 40580, Note_on_c, 0, 65, 62
1, 40589, Note_on_c, 0, 46, 40
1, 40596, Note_on_c, 0, 61, 51
1, 40617, Note_on_c, 0, 55, 32
1, 40645, Control_c, 0, 64, 114
1, 40660, Control_c, 0, 64, 102
1, 40675, Control_c, 0, 64, 88
1, 40689, Control_c, 0, 64, 71
1, 40704, Control_c, 0, 64, 0
1, 40809, Control_c, 0, 64, 65
1, 40824, Control_c, 0, 64, 74
1, 40839, Control_c, 0, 64, 83
1, 40854, Control_c, 0, 64, 90
1, 40868, Control_c, 0, 64, 94
1, 40883, Control_c, 0, 64, 98
1, 40898, Control_c, 0, 64, 102
1, 40913, Control_c, 0, 64, 105
1, 40928, Control_c, 0, 64, 108
1, 40942, Control_c, 0, 64, 110
1, 40957, Control_c, 0, 64, 112
1, 40972, Control_c, 0, 64, 113
1, 40987, Control_c, 0, 64, 114
1, 41017, Control_c, 0, 64, 114
1, 41332, Note_on_c, 0, 64, 44
1, 41336, Note_off_c, 0, 65, 38
1, 41350, Control_c, 0, 64, 112
1, 41365, Control_c, 0, 64, 102
1, 41380, Control_c, 0, 64, 87
1, 41394, Control_c, 0, 64, 72
1, 41409, Control_c, 0, 64, 0
1, 41483, Control_c, 0, 64, 47
1, 41498, Control_c, 0, 64, 65
1, 41512, Control_c, 0, 64, 70
1, 41527, Control_c, 0, 64, 73
1, 41542, Control_c, 0, 64, 76
1, 41558, Control_c, 0, 64, 79
1, 41573, Control_c, 0, 64, 81
1, 41588, Control_c, 0, 64, 83
1, 41603, Control_c, 0, 64, 85
1, 41617, Control_c, 0, 64, 87
1, 41632, Control_c, 0, 64, 89
1, 41647, Control_c, 0, 64, 90
1, 41662, Control_c, 0, 64, 90
1, 41677, Control_c, 0, 64, 91
1, 41691, Control_c, 0, 64, 92
1, 41722, Note_off_c, 0, 46, 39
1, 41723, Note_on_c, 0, 43, 41
1, 41736, Control_c, 0, 64, 90
1, 41751, Control_c, 0, 64, 83
1, 41765, Control_c, 0, 64, 72
1, 41780, Control_c, 0, 64, 57
1, 41795, Control_c, 0, 64, 0
1, 41824, Control_c, 0, 64, 49
1, 41839, Control_c, 0, 64, 62
1, 41854, Control_c, 0, 64, 65
1, 41869, Control_c, 0, 64, 66
1, 41884, Control_c, 0, 64, 67
1, 41899, Control_c, 0, 64, 67
1, 41914, Control_c, 0, 64, 69
1, 41929, Control_c, 0, 64, 71
1, 41943, Control_c, 0, 64, 72
1, 41958, Control_c, 0, 64, 72
1, 41969, Note_off_c, 0, 43, 40
1, 41989, Note_on_c, 0, 45, 36
1, 42017, Control_c, 0, 64, 72
1, 42039, Control_c, 0, 64, 69
1, 42054, Control_c, 0, 64, 63
1, 42069, Control_c, 0, 64, 0
1, 42090, Note_off_c, 0, 45, 54
1, 42113, Note_off_c, 0, 61, 58
1, 42114, Note_on_c, 0, 46, 40
1, 42126, Note_off_c, 0, 64, 64
1, 42411, Control_c, 0, 67, 8
1, 42426, Control_c, 0, 67, 8
1, 42538, Note_on_c, 0, 73, 61
1, 42544, Control_c, 0, 67, 8
1, 42554, Note_on_c, 0, 64, 49
1, 42558, Control_c, 0, 64, 18
1, 42558, Control_c, 0, 67, 0
1, 42573, Control_c, 0, 64, 64
1, 42588, Control_c, 0, 64, 74
1, 42603, Control_c, 0, 64, 82
1, 42618, Control_c, 0, 64, 90
1, 42631, Note_off_c, 0, 55, 42
1, 42632, Control_c, 0, 64, 98
1, 42643, Note_off_c, 0, 46, 45
1, 42647, Control_c, 0, 64, 106
1, 42662, Control_c, 0, 64, 114
1, 42677, Control_c, 0, 64, 124
1, 42692, Control_c, 0, 64, 127
1, 42751, Note_off_c, 0, 64, 46
1, 43019, Note_off_c, 0, 73, 55
1, 43051, Note_on_c, 0, 72, 50
1, 43055, Control_c, 0, 64, 108
1, 43060, Note_on_c, 0, 56, 42
1, 43062, Note_on_c, 0, 65, 41
1, 43068, Note_on_c, 0, 44, 35
1, 43070, Control_c, 0, 64, 90
1, 43084, Control_c, 0, 64, 76
1, 43099, Control_c, 0, 64, 62
1, 43114, Control_c, 0, 64, 0
1, 43364, Note_off_c, 0, 65, 57
1, 43373, Note_off_c, 0, 44, 57
1, 43404, Note_off_c, 0, 56, 54
1, 43413, Note_off_c, 0, 72, 65
1, 43935, Note_on_c, 0, 84, 70
1, 43944, Note_on_c, 0, 72, 55
1, 43948, Note_on_c, 0, 77, 56
1, 43959, Note_on_c, 0, 56, 38
1, 43962, Note_on_c, 0, 68, 37
1, 43999, Note_off_c, 0, 72, 0
1, 43999, Note_on_c, 0, 72, 12
1, 44027, Control_c, 0, 64, 51
1, 44042, Control_c, 0, 64, 64
1, 44057, Control_c, 0, 64, 70
1, 44072, Control_c, 0, 64, 77
1, 44087, Control_c, 0, 64, 85
1, 44102, Control_c, 0, 64, 93
1, 44117, Control_c, 0, 64, 102
1, 44131, Control_c, 0, 64, 111
1, 44146, Control_c, 0, 64, 119
1, 44161, Control_c, 0, 64, 127
1, 44766, Note_off_c, 0, 68, 42
1, 44820, Note_off_c, 0, 84, 48
1, 44878, Note_off_c, 0, 72, 40
1, 44909, Note_off_c, 0, 77, 54
1, 44922, Note_off_c, 0, 56, 42
1, 45124, Control_c, 0, 64, 121
1, 45139, Control_c, 0, 64, 113
1, 45153, Control_c, 0, 64, 104
1, 45168, Control_c, 0, 64, 94
1, 45183, Control_c, 0, 64, 82
1, 45198, Control_c, 0, 64, 72
1, 45212, Control_c, 0, 64, 62
1, 45226, Control_c, 0, 64, 0
1, 45613, Note_on_c, 0, 73, 85
1, 45616, Note_on_c, 0, 68, 73
1, 45617, Note_on_c, 0, 61, 79
1, 45625, Note_on_c, 0, 56, 62
1, 45634, Note_on_c, 0, 53, 58
1, 45657, Control_c, 0, 64, 36
1, 45672, Control_c, 0, 64, 68
1, 45687, Control_c, 0, 64, 80
1, 45702, Control_c, 0, 64, 96
1, 45717, Control_c, 0, 64, 113
1, 45731, Control_c, 0, 64, 127
1, 45855, Note_off_c, 0, 61, 62
1, 45885, Note_off_c, 0, 73, 56
1, 45904, Note_off_c, 0, 56, 59
1, 45907, Note_off_c, 0, 53, 59
1, 45913, Note_off_c, 0, 68, 60
1, 46079, Control_c, 0, 64, 111
1, 46094, Control_c, 0, 64, 96
1, 46108, Control_c, 0, 64, 82
1, 46123, Control_c, 0, 64, 67
1, 46138, Control_c, 0, 64, 0
1, 46510, Note_on_c, 0, 85, 85
1, 46511, Note_on_c, 0, 79, 77
1, 46512, Note_on_c, 0, 77, 79
1, 46513, Note_on_c, 0, 73, 88
1, 46519, Note_on_c, 0, 46, 71
1, 46519, Note_on_c, 0, 55, 77
1, 46528, Note_on_c, 0, 53, 70
1, 46591, Control_c, 0, 64, 52
1, 46606, Control_c, 0, 64, 66
1, 46621, Control_c, 0, 64, 73
1, 46636, Control_c, 0, 64, 79
1, 46651, Control_c, 0, 64, 86
1, 46665, Control_c, 0, 64, 93
1, 46680, Control_c, 0, 64, 101
1, 46695, Control_c, 0, 64, 111
1, 46710, Control_c, 0, 64, 124
1, 46725, Control_c, 0, 64, 127
1, 47389, Note_off_c, 0, 85, 36
1, 47393, Note_off_c, 0, 55, 35
1, 47413, Note_off_c, 0, 73, 48
1, 47421, Note_off_c, 0, 46, 36
1, 47446, Note_off_c, 0, 77, 24
1, 47465, Note_off_c, 0, 53, 35
1, 47495, Note_off_c, 0, 79, 36
1, 47799, Control_c, 0, 64, 127
1, 47814, Control_c, 0, 64, 117
1, 47828, Control_c, 0, 64, 110
1, 47843, Control_c, 0, 64, 105
1, 47858, Control_c, 0, 64, 98
1, 47873, Control_c, 0, 64, 92
1, 47888, Control_c, 0, 64, 86
1, 47903, Control_c, 0, 64, 79
1, 47917, Control_c, 0, 64, 72
1, 47932, Control_c, 0, 64, 65
1, 47948, Control_c, 0, 64, 48
1, 47963, Control_c, 0, 64, 24
1, 47977, Control_c, 0, 64, 21
1, 47992, Control_c, 0, 64, 0
1, 48789, Note_on_c, 0, 55, 29
1, 48790, Note_on_c, 0, 65, 40
1, 48799, Note_on_c, 0, 67, 40
1, 48800, Note_on_c, 0, 48, 30
1, 48808, Control_c, 0, 64, 29
1, 48823, Control_c, 0, 64, 52
1, 48838, Control_c, 0, 64, 58
1, 48853, Control_c, 0, 64, 62
1, 48868, Control_c, 0, 64, 65
1, 48882, Control_c, 0, 64, 69
1, 48897, Control_c, 0, 64, 74
1, 48912, Control_c, 0, 64, 82
1, 48926, Control_c, 0, 64, 89
1, 48941, Control_c, 0, 64, 95
1, 48956, Control_c, 0, 64, 101
1, 48971, Control_c, 0, 64, 107
1, 48986, Control_c, 0, 64, 113
1, 49000, Control_c, 0, 64, 121
1, 49015, Control_c, 0, 64, 127
1, 49318, Note_off_c, 0, 55, 43
1, 49354, Note_on_c, 0, 57, 37
1, 49595, Note_on_c, 0, 64, 43
1, 49601, Note_off_c, 0, 57, 36
1, 49621, Note_on_c, 0, 58, 35
1, 49623, Note_off_c, 0, 65, 34
1, 49646, Control_c, 0, 64, 106
1, 49661, Control_c, 0, 64, 90
1, 49676, Control_c, 0, 64, 72
1, 49691, Control_c, 0, 64, 34
1, 49705, Control_c, 0, 64, 0
1, 49764, Control_c, 0, 64, 61
1, 49779, Control_c, 0, 64, 69
1, 49794, Control_c, 0, 64, 74
1, 49809, Control_c, 0, 64, 79
1, 49823, Control_c, 0, 64, 83
1, 49838, Control_c, 0, 64, 86
1, 49853, Control_c, 0, 64, 89
1, 49868, Control_c, 0, 64, 91
1, 49883, Control_c, 0, 64, 93
1, 49897, Control_c, 0, 64, 94
1, 49912, Control_c, 0, 64, 95
1, 49927, Control_c, 0, 64, 96
1, 49941, Control_c, 0, 64, 96
1, 49956, Control_c, 0, 64, 97
1, 49971, Control_c, 0, 64, 98
1, 49983, Note_off_c, 0, 67, 55
1, 49995, Note_on_c, 0, 69, 49
1, 49999, Note_on_c, 0, 57, 40
1, 50002, Note_off_c, 0, 64, 37
1, 50004, Note_off_c, 0, 58, 35
1, 50010, Note_on_c, 0, 65, 43
1, 50016, Control_c, 0, 64, 97
1, 50031, Control_c, 0, 64, 90
1, 50046, Control_c, 0, 64, 78
1, 50061, Control_c, 0, 64, 60
1, 50076, Control_c, 0, 64, 0
1, 50135, Control_c, 0, 64, 63
1, 50149, Control_c, 0, 64, 73
1, 50164, Control_c, 0, 64, 80
1, 50179, Control_c, 0, 64, 86
1, 50194, Control_c, 0, 64, 90
1, 50209, Control_c, 0, 64, 92
1, 50216, Note_off_c, 0, 65, 37
1, 50223, Control_c, 0, 64, 94
1, 50238, Control_c, 0, 64, 97
1, 50253, Control_c, 0, 64, 99
1, 50275, Control_c, 0, 64, 100
1, 50290, Control_c, 0, 64, 100
1, 50305, Control_c, 0, 64, 101
1, 50335, Control_c, 0, 64, 101
1, 50360, Note_off_c, 0, 69, 62
1, 50365, Control_c, 0, 64, 102
1, 50380, Control_c, 0, 64, 102
1, 50391, Note_on_c, 0, 70, 54
1, 50392, Note_off_c, 0, 57, 51
1, 50411, Note_on_c, 0, 55, 40
1, 50424, Note_on_c, 0, 64, 26
1, 50424, Control_c, 0, 64, 97
1, 50436, Note_off_c, 0, 70, 57
1, 50439, Control_c, 0, 64, 83
1, 50454, Control_c, 0, 64, 69
1, 50469, Control_c, 0, 64, 0
1, 50478, Note_on_c, 0, 72, 55
1, 50514, Control_c, 0, 64, 57
1, 50527, Note_off_c, 0, 72, 57
1, 50529, Control_c, 0, 64, 67
1, 50541, Note_on_c, 0, 70, 63
1, 50544, Control_c, 0, 64, 73
1, 50559, Control_c, 0, 64, 79
1, 50573, Control_c, 0, 64, 84
1, 50588, Control_c, 0, 64, 86
1, 50591, Note_off_c, 0, 70, 59
1, 50603, Control_c, 0, 64, 87
1, 50609, Note_on_c, 0, 69, 60
1, 50612, Note_off_c, 0, 48, 41
1, 50618, Control_c, 0, 64, 88
1, 50633, Control_c, 0, 64, 90
1, 50647, Control_c, 0, 64, 91
1, 50662, Control_c, 0, 64, 91
1, 50669, Note_on_c, 0, 70, 64
1, 50695, Note_off_c, 0, 69, 58
1, 50751, Control_c, 0, 64, 92
1, 50794, Note_off_c, 0, 70, 56
1, 50795, Note_on_c, 0, 48, 40
1, 50801, Note_on_c, 0, 74, 56
1, 50810, Control_c, 0, 64, 89
1, 50825, Control_c, 0, 64, 80
1, 50839, Control_c, 0, 64, 68
1, 50854, Control_c, 0, 64, 0
1, 50928, Control_c, 0, 64, 44
1, 50943, Control_c, 0, 64, 66
1, 50958, Control_c, 0, 64, 71
1, 50973, Control_c, 0, 64, 74
1, 50988, Control_c, 0, 64, 77
1, 51003, Control_c, 0, 64, 80
1, 51024, Note_on_c, 0, 72, 65
1, 51025, Control_c, 0, 64, 83
1, 51035, Note_off_c, 0, 55, 42
1, 51040, Control_c, 0, 64, 85
1, 51054, Control_c, 0, 64, 87
1, 51065, Note_off_c, 0, 74, 46
1, 51069, Control_c, 0, 64, 89
1, 51072, Note_off_c, 0, 64, 36
1, 51084, Control_c, 0, 64, 91
1, 51098, Control_c, 0, 64, 93
1, 51113, Control_c, 0, 64, 94
1, 51128, Control_c, 0, 64, 96
1, 51143, Control_c, 0, 64, 97
1, 51159, Control_c, 0, 64, 98
1, 51174, Control_c, 0, 64, 99
1, 51320, Note_on_c, 0, 70, 57
1, 51322, Note_on_c, 0, 49, 40
1, 51333, Note_on_c, 0, 64, 46
1, 51334, Note_on_c, 0, 55, 36
1, 51339, Note_off_c, 0, 72, 59
1, 51366, Control_c, 0, 64, 99
1, 51381, Control_c, 0, 64, 96
1, 51395, Control_c, 0, 64, 89
1, 51399, Note_off_c, 0, 48, 33
1, 51410, Control_c, 0, 64, 80
1, 51425, Control_c, 0, 64, 68
1, 51440, Control_c, 0, 64, 0
1, 51543, Control_c, 0, 64, 31
1, 51558, Control_c, 0, 64, 65
1, 51573, Control_c, 0, 64, 72
1, 51588, Control_c, 0, 64, 80
1, 51602, Control_c, 0, 64, 86
1, 51617, Control_c, 0, 64, 91
1, 51632, Control_c, 0, 64, 96
1, 51647, Control_c, 0, 64, 99
1, 51662, Control_c, 0, 64, 101
1, 51676, Control_c, 0, 64, 104
1, 51691, Control_c, 0, 64, 106
1, 51706, Control_c, 0, 64, 108
1, 51721, Control_c, 0, 64, 109
1, 51736, Control_c, 0, 64, 110
1, 51751, Control_c, 0, 64, 111
1, 51901, Note_off_c, 0, 55, 42
1, 52233, Note_off_c, 0, 49, 39
1, 52234, Note_off_c, 0, 64, 55
1, 52269, Note_on_c, 0, 69, 42
1, 52274, Note_on_c, 0, 50, 31
1, 52277, Note_on_c, 0, 53, 31
1, 52278, Control_c, 0, 64, 110
1, 52286, Note_on_c, 0, 65, 38
1, 52292, Control_c, 0, 64, 110
1, 52302, Note_off_c, 0, 70, 34
1, 52307, Control_c, 0, 64, 108
1, 52322, Control_c, 0, 64, 106
1, 52337, Control_c, 0, 64, 101
1, 52351, Control_c, 0, 64, 92
1, 52366, Control_c, 0, 64, 83
1, 52381, Control_c, 0, 64, 72
1, 52396, Control_c, 0, 64, 55
1, 52411, Control_c, 0, 64, 0
1, 52566, Control_c, 0, 64, 50
1, 52581, Control_c, 0, 64, 66
1, 52596, Control_c, 0, 64, 71
1, 52611, Control_c, 0, 64, 76
1, 52625, Control_c, 0, 64, 82
1, 52640, Control_c, 0, 64, 87
1, 52655, Control_c, 0, 64, 92
1, 52669, Control_c, 0, 64, 96
1, 52684, Control_c, 0, 64, 99
1, 52699, Control_c, 0, 64, 101
1, 52714, Control_c, 0, 64, 104
1, 52729, Control_c, 0, 64, 106
1, 52745, Control_c, 0, 64, 110
1, 52760, Control_c, 0, 64, 113
1, 52774, Control_c, 0, 64, 116
1, 52789, Control_c, 0, 64, 119
1, 52804, Control_c, 0, 64, 121
1, 52819, Control_c, 0, 64, 124
1, 52834, Control_c, 0, 64, 124
1, 52848, Control_c, 0, 64, 125
1, 52878, Control_c, 0, 64, 125
1, 52893, Control_c, 0, 64, 126
1, 52927, Note_off_c, 0, 65, 37
1, 52957, Note_off_c, 0, 69, 39
1, 53188, Note_on_c, 0, 49, 52
1, 53205, Note_off_c, 0, 50, 39
1, 53219, Control_c, 0, 64, 125
1, 53234, Control_c, 0, 64, 116
1, 53248, Control_c, 0, 64, 105
1, 53271, Control_c, 0, 64, 91
1, 53286, Control_c, 0, 64, 77
1, 53300, Control_c, 0, 64, 63
1, 53315, Control_c, 0, 64, 0
1, 53345, Control_c, 0, 64, 38
1, 53360, Control_c, 0, 64, 59
1, 53361, Note_off_c, 0, 53, 43
1, 53374, Control_c, 0, 64, 66
1, 53389, Control_c, 0, 64, 72
1, 53404, Control_c, 0, 64, 80
1, 53419, Control_c, 0, 64, 90
1, 53427, Note_off_c, 0, 49, 60
1, 53431, Note_on_c, 0, 50, 64
1, 53434, Control_c, 0, 64, 95
1, 53449, Control_c, 0, 64, 99
1, 53464, Control_c, 0, 64, 103
1, 53479, Control_c, 0, 64, 106
1, 53493, Control_c, 0, 64, 109
1, 53508, Control_c, 0, 64, 113
1, 53523, Control_c, 0, 64, 115
1, 53539, Control_c, 0, 64, 117
1, 53554, Control_c, 0, 64, 118
1, 53569, Control_c, 0, 64, 120
1, 53581, Note_off_c, 0, 50, 59
1, 53584, Control_c, 0, 64, 121
1, 53598, Control_c, 0, 64, 122
1, 53613, Note_on_c, 0, 46, 64
1, 53613, Control_c, 0, 64, 124
1, 53628, Control_c, 0, 64, 124
1, 53643, Control_c, 0, 64, 125
1, 53658, Control_c, 0, 64, 126
1, 53672, Control_c, 0, 64, 126
1, 53713, Note_on_c, 0, 72, 71
1, 53745, Note_off_c, 0, 46, 61
1, 53777, Note_off_c, 0, 72, 61
1, 53852, Note_on_c, 0, 84, 85
1, 53859, Note_on_c, 0, 81, 82
1, 53864, Control_c, 0, 64, 121
1, 53871, Note_on_c, 0, 45, 50
1, 53873, Note_on_c, 0, 57, 56
1, 53876, Note_on_c, 0, 53, 57
1, 53879, Control_c, 0, 64, 107
1, 53894, Control_c, 0, 64, 91
1, 53909, Control_c, 0, 64, 74
1, 53924, Control_c, 0, 64, 0
1, 54020, Control_c, 0, 64, 47
1, 54035, Control_c, 0, 64, 70
1, 54050, Control_c, 0, 64, 81
1, 54060, Note_off_c, 0, 45, 59
1, 54065, Control_c, 0, 64, 94
1, 54079, Control_c, 0, 64, 107
1, 54094, Control_c, 0, 64, 117
1, 54107, Note_off_c, 0, 53, 63
1, 54109, Control_c, 0, 64, 124
1, 54124, Control_c, 0, 64, 127
1, 54344, Note_off_c, 0, 81, 52
1, 54354, Note_off_c, 0, 57, 55
1, 54392, Note_on_c, 0, 58, 52
1, 54397, Note_on_c, 0, 82, 64
1, 54401, Note_on_c, 0, 79, 67
1, 54407, Note_on_c, 0, 55, 50
1, 54411, Note_off_c, 0, 84, 51
1, 54581, Note_off_c, 0, 55, 49
1, 54599, Control_c, 0, 64, 112
1, 54601, Note_off_c, 0, 58, 39
1, 54610, Note_on_c, 0, 60, 58
1, 54613, Note_on_c, 0, 81, 73
1, 54613, Control_c, 0, 64, 89
1, 54615, Note_on_c, 0, 57, 53
1, 54619, Note_off_c, 0, 79, 54
1, 54626, Note_on_c, 0, 77, 62
1, 54628, Control_c, 0, 64, 69
1, 54643, Control_c, 0, 64, 0
1, 54671, Note_off_c, 0, 82, 57
1, 54687, Control_c, 0, 64, 36
1, 54702, Control_c, 0, 64, 67
1, 54716, Note_off_c, 0, 81, 59
1, 54717, Control_c, 0, 64, 76
1, 54732, Control_c, 0, 64, 87
1, 54747, Control_c, 0, 64, 95
1, 54769, Control_c, 0, 64, 98
1, 54784, Control_c, 0, 64, 99
1, 54799, Control_c, 0, 64, 101
1, 54813, Control_c, 0, 64, 103
1, 54815, Note_off_c, 0, 77, 62
1, 54828, Control_c, 0, 64, 104
1, 54843, Control_c, 0, 64, 105
1, 54858, Control_c, 0, 64, 107
1, 54863, Note_on_c, 0, 79, 65
1, 54872, Control_c, 0, 64, 109
1, 54875, Note_on_c, 0, 76, 57
1, 54887, Control_c, 0, 64, 111
1, 54905, Note_off_c, 0, 76, 61
1, 54932, Control_c, 0, 64, 106
1, 54946, Control_c, 0, 64, 91
1, 54949, Note_off_c, 0, 79, 57
1, 54954, Note_on_c, 0, 77, 70
1, 54961, Control_c, 0, 64, 74
1, 54963, Note_on_c, 0, 74, 64
1, 54964, Note_on_c, 0, 58, 58
1, 54972, Note_on_c, 0, 62, 62
1, 54976, Control_c, 0, 64, 39
1, 54976, Note_off_c, 0, 60, 53
1, 54979, Note_off_c, 0, 57, 48
1, 54991, Control_c, 0, 64, 0
1, 55020, Control_c, 0, 64, 61
1, 55035, Control_c, 0, 64, 72
1, 55045, Note_off_c, 0, 58, 64
1, 55050, Control_c, 0, 64, 80
1, 55064, Control_c, 0, 64, 87
1, 55079, Control_c, 0, 64, 92
1, 55094, Control_c, 0, 64, 94
1, 55109, Control_c, 0, 64, 95
1, 55124, Control_c, 0, 64, 97
1, 55140, Control_c, 0, 64, 99
1, 55155, Control_c, 0, 64, 99
1, 55169, Control_c, 0, 64, 100
1, 55183, Note_off_c, 0, 77, 55
1, 55184, Control_c, 0, 64, 100
1, 55188, Note_off_c, 0, 74, 61
1, 55194, Note_on_c, 0, 76, 65
1, 55197, Note_off_c, 0, 62, 59
1, 55206, Note_on_c, 0, 64, 59
1, 55207, Note_on_c, 0, 72, 68
1, 55214, Note_on_c, 0, 60, 46
1, 55226, Note_off_c, 0, 76, 66
1, 55273, Control_c, 0, 64, 101
1, 55307, Note_off_c, 0, 72, 57
1, 55311, Note_on_c, 0, 74, 62
1, 55320, Note_off_c, 0, 64, 56
1, 55321, Note_on_c, 0, 70, 68
1, 55334, Note_on_c, 0, 65, 54
1, 55345, Note_on_c, 0, 62, 50
1, 55347, Control_c, 0, 64, 100
1, 55354, Note_off_c, 0, 60, 47
1, 55361, Control_c, 0, 64, 93
1, 55376, Control_c, 0, 64, 79
1, 55391, Control_c, 0, 64, 63
1, 55406, Control_c, 0, 64, 0
1, 55465, Control_c, 0, 64, 50
1, 55480, Control_c, 0, 64, 67
1, 55495, Control_c, 0, 64, 73
1, 55517, Control_c, 0, 64, 80
1, 55532, Control_c, 0, 64, 83
1, 55547, Control_c, 0, 64, 85
1, 55561, Control_c, 0, 64, 87
1, 55576, Control_c, 0, 64, 88
1, 55591, Control_c, 0, 64, 90
1, 55606, Control_c, 0, 64, 92
1, 55621, Control_c, 0, 64, 95
1, 55635, Control_c, 0, 64, 96
1, 55650, Control_c, 0, 64, 96
1, 55665, Control_c, 0, 64, 96
1, 55680, Control_c, 0, 64, 90
1, 55695, Note_off_c, 0, 65, 56
1, 55695, Control_c, 0, 64, 74
1, 55696, Note_on_c, 0, 67, 52
1, 55703, Note_on_c, 0, 64, 50
1, 55710, Control_c, 0, 64, 32
1, 55724, Control_c, 0, 64, 0
1, 55725, Note_off_c, 0, 62, 46
1, 55769, Control_c, 0, 64, 25
1, 55784, Control_c, 0, 64, 66
1, 55794, Note_off_c, 0, 67, 58
1, 55799, Control_c, 0, 64, 75
1, 55814, Control_c, 0, 64, 82
1, 55829, Control_c, 0, 64, 86
1, 55843, Control_c, 0, 64, 88
1, 55858, Note_off_c, 0, 74, 58
1, 55858, Control_c, 0, 64, 89
1, 55865, Note_off_c, 0, 70, 55
1, 55873, Control_c, 0, 64, 90
1, 55887, Control_c, 0, 64, 91
1, 55902, Control_c, 0, 64, 92
1, 55932, Control_c, 0, 64, 92
1, 55963, Control_c, 0, 64, 93
1, 56037, Control_c, 0, 64, 92
1, 56052, Control_c, 0, 64, 87
1, 56066, Control_c, 0, 64, 77
1, 56081, Control_c, 0, 64, 63
1, 56086, Note_off_c, 0, 64, 49
1, 56096, Control_c, 0, 64, 0
1, 56097, Note_on_c, 0, 72, 56
1, 56115, Note_on_c, 0, 69, 34
1, 56121, Note_on_c, 0, 65, 31
1, 56199, Control_c, 0, 64, 38
1, 56214, Control_c, 0, 64, 65
1, 56226, Note_off_c, 0, 69, 66
1, 56229, Control_c, 0, 64, 71
1, 56244, Control_c, 0, 64, 78
1, 56248, Note_off_c, 0, 65, 60
1, 56266, Control_c, 0, 64, 84
1, 56281, Control_c, 0, 64, 90
1, 56296, Control_c, 0, 64, 95
1, 56311, Control_c, 0, 64, 100
1, 56325, Control_c, 0, 64, 103
1, 56340, Control_c, 0, 64, 106
1, 56355, Control_c, 0, 64, 109
1, 56370, Control_c, 0, 64, 112
1, 56384, Control_c, 0, 64, 113
1, 56399, Control_c, 0, 64, 113
1, 56414, Control_c, 0, 64, 114
1, 56429, Control_c, 0, 64, 115
1, 56474, Control_c, 0, 64, 116
1, 56548, Control_c, 0, 67, 8
1, 56555, Note_on_c, 0, 70, 55
1, 56563, Control_c, 0, 64, 114
1, 56563, Control_c, 0, 67, 16
1, 56568, Note_on_c, 0, 55, 40
1, 56570, Note_on_c, 0, 46, 36
1, 56578, Control_c, 0, 64, 106
1, 56578, Control_c, 0, 67, 42
1, 56592, Control_c, 0, 64, 94
1, 56592, Control_c, 0, 67, 76
1, 56607, Control_c, 0, 64, 80
1, 56607, Control_c, 0, 67, 113
1, 56608, Note_off_c, 0, 72, 49
1, 56622, Control_c, 0, 64, 64
1, 56622, Control_c, 0, 67, 127
1, 56637, Control_c, 0, 64, 0
1, 56696, Control_c, 0, 64, 50
1, 56711, Control_c, 0, 64, 68
1, 56726, Control_c, 0, 64, 74
1, 56730, Note_on_c, 0, 62, 50
1, 56741, Control_c, 0, 64, 81
1, 56756, Control_c, 0, 64, 87
1, 56771, Control_c, 0, 64, 90
1, 56786, Control_c, 0, 64, 94
1, 56793, Note_off_c, 0, 46, 41
1, 56801, Control_c, 0, 64, 97
1, 56815, Control_c, 0, 64, 100
1, 56824, Note_on_c, 0, 58, 47
1, 56830, Control_c, 0, 64, 104
1, 56845, Control_c, 0, 64, 107
1, 56860, Control_c, 0, 64, 110
1, 56875, Control_c, 0, 64, 112
1, 56884, Note_off_c, 0, 58, 55
1, 56890, Control_c, 0, 64, 112
1, 56890, Note_off_c, 0, 55, 36
1, 56893, Note_off_c, 0, 70, 56
1, 56905, Control_c, 0, 64, 113
1, 56917, Note_on_c, 0, 67, 61
1, 56920, Control_c, 0, 64, 113
1, 56923, Note_off_c, 0, 62, 55
1, 56934, Control_c, 0, 64, 114
1, 56949, Control_c, 0, 64, 114
1, 57147, Note_off_c, 0, 67, 59
1, 57163, Note_on_c, 0, 65, 58
1, 57176, Note_on_c, 0, 60, 45
1, 57180, Note_on_c, 0, 48, 41
1, 57185, Note_on_c, 0, 57, 38
1, 57192, Control_c, 0, 64, 112
1, 57207, Control_c, 0, 64, 106
1, 57221, Control_c, 0, 64, 96
1, 57236, Control_c, 0, 64, 80
1, 57251, Control_c, 0, 64, 65
1, 57266, Control_c, 0, 64, 0
1, 57370, Control_c, 0, 64, 65
1, 57385, Control_c, 0, 64, 72
1, 57400, Control_c, 0, 64, 78
1, 57414, Control_c, 0, 64, 83
1, 57429, Control_c, 0, 64, 87
1, 57444, Control_c, 0, 64, 89
1, 57458, Control_c, 0, 64, 92
1, 57473, Control_c, 0, 64, 93
1, 57488, Control_c, 0, 64, 95
1, 57503, Control_c, 0, 64, 97
1, 57518, Control_c, 0, 64, 98
1, 57534, Control_c, 0, 64, 99
1, 57549, Control_c, 0, 64, 99
1, 57563, Control_c, 0, 64, 100
1, 57578, Control_c, 0, 64, 100
1, 58015, Note_off_c, 0, 65, 59
1, 58030, Note_on_c, 0, 58, 37
1, 58036, Note_on_c, 0, 69, 52
1, 58040, Note_off_c, 0, 57, 34
1, 58044, Note_on_c, 0, 64, 39
1, 58044, Control_c, 0, 64, 100
1, 58059, Control_c, 0, 64, 96
1, 58074, Control_c, 0, 64, 87
1, 58088, Control_c, 0, 64, 76
1, 58103, Control_c, 0, 64, 52
1, 58118, Control_c, 0, 64, 0
1, 58208, Control_c, 0, 64, 62
1, 58222, Control_c, 0, 64, 71
1, 58237, Control_c, 0, 64, 78
1, 58252, Control_c, 0, 64, 84
1, 58267, Control_c, 0, 64, 88
1, 58281, Control_c, 0, 64, 92
1, 58296, Control_c, 0, 64, 94
1, 58311, Control_c, 0, 64, 96
1, 58327, Control_c, 0, 64, 99
1, 58342, Control_c, 0, 64, 101
1, 58357, Control_c, 0, 64, 103
1, 58371, Control_c, 0, 64, 105
1, 58386, Control_c, 0, 64, 106
1, 58398, Note_off_c, 0, 58, 60
1, 58401, Control_c, 0, 64, 106
1, 58404, Note_off_c, 0, 69, 59
1, 58416, Control_c, 0, 64, 107
1, 58431, Control_c, 0, 64, 107
1, 58439, Note_on_c, 0, 67, 54
1, 58446, Control_c, 0, 64, 108
1, 58475, Control_c, 0, 64, 108
1, 58476, Note_off_c, 0, 64, 53
1, 58490, Control_c, 0, 64, 109
1, 58526, Control_c, 0, 64, 109
1, 58535, Note_off_c, 0, 60, 40
1, 58586, Control_c, 0, 64, 110
1, 58601, Control_c, 0, 64, 110
1, 58631, Control_c, 0, 64, 111
1, 58637, Note_off_c, 0, 67, 37
1, 58646, Control_c, 0, 64, 111
1, 58911, Control_c, 0, 64, 109
1, 58913, Note_on_c, 0, 67, 50
1, 58923, Note_on_c, 0, 58, 37
1, 58926, Control_c, 0, 64, 103
1, 58932, Note_on_c, 0, 64, 40
1, 58941, Control_c, 0, 64, 91
1, 58956, Control_c, 0, 64, 74
1, 58971, Control_c, 0, 64, 41
1, 58986, Control_c, 0, 64, 0
1, 59060, Control_c, 0, 64, 61
1, 59075, Control_c, 0, 64, 69
1, 59090, Control_c, 0, 64, 74
1, 59104, Control_c, 0, 64, 78
1, 59119, Control_c, 0, 64, 79
1, 59135, Control_c, 0, 64, 81
1, 59150, Control_c, 0, 64, 82
1, 59164, Control_c, 0, 64, 83
1, 59179, Control_c, 0, 64, 83
1, 59229, Note_off_c, 0, 48, 41
1, 59263, Note_on_c, 0, 50, 45
1, 59290, Control_c, 0, 64, 81
1, 59305, Control_c, 0, 64, 75
1, 59320, Control_c, 0, 64, 67
1, 59334, Control_c, 0, 64, 0
1, 59346, Note_off_c, 0, 50, 61
1, 59353, Note_on_c, 0, 48, 50
1, 59424, Control_c, 0, 64, 55
1, 59439, Control_c, 0, 64, 62
1, 59468, Control_c, 0, 64, 62
1, 59483, Control_c, 0, 64, 63
1, 59498, Control_c, 0, 64, 65
1, 59513, Control_c, 0, 64, 66
1, 59581, Note_off_c, 0, 48, 60
1, 59605, Note_on_c, 0, 46, 50
1, 59616, Control_c, 0, 64, 66
1, 59674, Note_off_c, 0, 46, 59
1, 59675, Control_c, 0, 64, 66
1, 59690, Control_c, 0, 64, 64
1, 59705, Control_c, 0, 64, 58
1, 59720, Note_on_c, 0, 45, 55
1, 59720, Control_c, 0, 64, 0
1, 59808, Control_c, 0, 64, 43
1, 59823, Control_c, 0, 64, 63
1, 59838, Control_c, 0, 64, 65
1, 59883, Control_c, 0, 64, 66
1, 59898, Control_c, 0, 64, 66
1, 59913, Control_c, 0, 64, 67
1, 59943, Control_c, 0, 64, 67
1, 59949, Note_off_c, 0, 45, 59
1, 59957, Control_c, 0, 64, 68
1, 59972, Control_c, 0, 64, 69
1, 59975, Note_on_c, 0, 43, 51
1, 59987, Control_c, 0, 64, 71
1, 60010, Control_c, 0, 64, 72
1, 60025, Control_c, 0, 64, 72
1, 60039, Control_c, 0, 64, 71
1, 60054, Control_c, 0, 64, 68
1, 60069, Control_c, 0, 64, 63
1, 60083, Control_c, 0, 64, 41
1, 60089, Note_off_c, 0, 43, 58
1, 60098, Control_c, 0, 64, 0
1, 60107, Note_on_c, 0, 41, 56
1, 60112, Note_off_c, 0, 64, 42
1, 60113, Control_c, 0, 64, 40
1, 60128, Control_c, 0, 64, 55
1, 60143, Control_c, 0, 64, 62
1, 60157, Control_c, 0, 64, 65
1, 60172, Control_c, 0, 64, 66
1, 60188, Control_c, 0, 64, 67
1, 60203, Control_c, 0, 64, 67
1, 60218, Control_c, 0, 64, 68
1, 60232, Control_c, 0, 64, 68
1, 60235, Note_off_c, 0, 67, 31
1, 60277, Note_off_c, 0, 58, 37
1, 60341, Note_off_c, 0, 41, 37
1, 60345, Note_on_c, 0, 40, 53
1, 60410, Note_off_c, 0, 40, 62
1, 60484, Control_c, 0, 64, 69
1, 60496, Note_on_c, 0, 64, 53
1, 60499, Note_on_c, 0, 38, 48
1, 60511, Note_on_c, 0, 58, 39
1, 60544, Control_c, 0, 64, 68
1, 60558, Control_c, 0, 64, 64
1, 60573, Control_c, 0, 64, 53
1, 60588, Control_c, 0, 64, 0
1, 60619, Note_off_c, 0, 38, 59
1, 60640, Note_on_c, 0, 36, 52
1, 60662, Control_c, 0, 64, 49
1, 60676, Control_c, 0, 64, 62
1, 60691, Control_c, 0, 64, 63
1, 60706, Control_c, 0, 64, 64
1, 60758, Note_off_c, 0, 36, 59
1, 60781, Note_on_c, 0, 34, 52
1, 60804, Control_c, 0, 64, 64
1, 60849, Control_c, 0, 64, 65
1, 60878, Control_c, 0, 64, 66
1, 60892, Note_off_c, 0, 34, 56
1, 60904, Note_on_c, 0, 33, 53
1, 60922, Control_c, 0, 64, 64
1, 60937, Control_c, 0, 64, 59
1, 60952, Control_c, 0, 64, 27
1, 60967, Control_c, 0, 64, 0
1, 61002, Note_off_c, 0, 33, 63
1, 61017, Note_on_c, 0, 31, 56
1, 61041, Control_c, 0, 64, 29
1, 61055, Control_c, 0, 64, 61
1, 61070, Control_c, 0, 64, 63
1, 61085, Control_c, 0, 64, 64
1, 61106, Note_off_c, 0, 58, 53
1, 61128, Note_off_c, 0, 31, 57
1, 61135, Note_off_c, 0, 64, 54
1, 61150, Note_on_c, 0, 36, 51
1, 61352, Control_c, 0, 64, 63
1, 61367, Control_c, 0, 64, 62
1, 61373, Note_off_c, 0, 36, 41
1, 61381, Control_c, 0, 64, 57
1, 61382, Note_on_c, 0, 65, 43
1, 61389, Note_on_c, 0, 57, 36
1, 61394, Note_on_c, 0, 29, 37
1, 61396, Control_c, 0, 64, 42
1, 61399, Note_on_c, 0, 60, 36
1, 61411, Control_c, 0, 64, 0
1, 61537, Control_c, 0, 64, 63
1, 61552, Control_c, 0, 64, 69
1, 61567, Control_c, 0, 64, 73
1, 61582, Control_c, 0, 64, 76
1, 61597, Control_c, 0, 64, 78
1, 61612, Control_c, 0, 64, 79
1, 61627, Control_c, 0, 64, 81
1, 61642, Control_c, 0, 64, 82
1, 61656, Control_c, 0, 64, 83
1, 61671, Control_c, 0, 64, 83
1, 61683, Note_off_c, 0, 57, 44
1, 61685, Control_c, 0, 64, 84
1, 61943, Note_off_c, 0, 60, 50
1, 61988, Note_on_c, 0, 62, 41
1, 61997, Note_on_c, 0, 58, 40
1, 62044, Note_off_c, 0, 58, 46
1, 62270, Note_off_c, 0, 62, 33
1, 62279, Note_on_c, 0, 60, 43
1, 62285, Control_c, 0, 64, 83
1, 62286, Note_on_c, 0, 57, 35
1, 62300, Control_c, 0, 64, 83
1, 62315, Control_c, 0, 64, 82
1, 62330, Control_c, 0, 64, 80
1, 62345, Control_c, 0, 64, 77
1, 62360, Control_c, 0, 64, 74
1, 62375, Control_c, 0, 64, 68
1, 62390, Control_c, 0, 64, 60
1, 62405, Control_c, 0, 64, 0
1, 62612, Control_c, 0, 64, 60
1, 62626, Control_c, 0, 64, 66
1, 62641, Control_c, 0, 64, 68
1, 62656, Control_c, 0, 64, 70
1, 62671, Control_c, 0, 64, 72
1, 62685, Control_c, 0, 64, 74
1, 62700, Control_c, 0, 64, 77
1, 62715, Control_c, 0, 64, 79
1, 62730, Control_c, 0, 64, 81
1, 62745, Control_c, 0, 64, 83
1, 62759, Control_c, 0, 64, 85
1, 62774, Control_c, 0, 64, 87
1, 62789, Control_c, 0, 64, 89
1, 62804, Control_c, 0, 64, 91
1, 62819, Control_c, 0, 64, 93
1, 62834, Control_c, 0, 64, 94
1, 62849, Control_c, 0, 64, 95
1, 62864, Control_c, 0, 64, 95
1, 62878, Control_c, 0, 64, 96
1, 62908, Control_c, 0, 64, 96
1, 62923, Control_c, 0, 64, 97
1, 62938, Control_c, 0, 64, 97
1, 63194, Note_off_c, 0, 65, 35
1, 63203, Note_off_c, 0, 29, 38
1, 63212, Note_off_c, 0, 60, 34
1, 63234, Note_off_c, 0, 57, 37
1, 63347, Control_c, 0, 64, 96
1, 63362, Control_c, 0, 64, 96
1, 63376, Control_c, 0, 64, 95
1, 63391, Control_c, 0, 64, 93
1, 63406, Control_c, 0, 64, 92
1, 63421, Control_c, 0, 64, 90
1, 63436, Control_c, 0, 64, 88
1, 63450, Control_c, 0, 64, 85
1, 63465, Control_c, 0, 64, 82
1, 63480, Control_c, 0, 64, 80
1, 63495, Control_c, 0, 64, 76
1, 63509, Control_c, 0, 64, 73
1, 63524, Control_c, 0, 64, 68
1, 63539, Control_c, 0, 64, 64
1, 63554, Control_c, 0, 64, 60
1, 63569, Control_c, 0, 64, 60
1, 63583, Control_c, 0, 64, 59
1, 63598, Control_c, 0, 64, 58
1, 63613, Control_c, 0, 64, 56
1, 63627, Control_c, 0, 64, 53
1, 63642, Control_c, 0, 64, 43
1, 63657, Control_c, 0, 64, 29
1, 63672, Control_c, 0, 64, 0
1, 64729, Note_on_c, 0, 76, 59
1, 64755, Control_c, 0, 64, 52
1, 64767, Note_on_c, 0, 48, 33
1, 64769, Note_on_c, 0, 36, 24
1, 64770, Control_c, 0, 64, 64
1, 64785, Control_c, 0, 64, 70
1, 64800, Control_c, 0, 64, 76
1, 64815, Control_c, 0, 64, 83
1, 64829, Control_c, 0, 64, 88
1, 64844, Control_c, 0, 64, 94
1, 64859, Control_c, 0, 64, 100
1, 64873, Control_c, 0, 64, 106
1, 64888, Control_c, 0, 64, 112
1, 64903, Control_c, 0, 64, 118
1, 64918, Control_c, 0, 64, 127
1, 64949, Note_off_c, 0, 36, 38
1, 64980, Note_off_c, 0, 48, 41
1, 65260, Note_on_c, 0, 52, 48
1, 65266, Note_on_c, 0, 48, 33
1, 65370, Note_off_c, 0, 52, 52
1, 65400, Note_off_c, 0, 48, 34
1, 65648, Note_on_c, 0, 55, 43
1, 65663, Note_on_c, 0, 52, 37
1, 65743, Note_off_c, 0, 55, 54
1, 65765, Note_off_c, 0, 52, 53
1, 66060, Note_on_c, 0, 55, 39
1, 66068, Note_on_c, 0, 60, 40
1, 66122, Note_off_c, 0, 55, 61
1, 66140, Note_off_c, 0, 60, 49
1, 66163, Control_c, 0, 67, 123
1, 66178, Control_c, 0, 67, 114
1, 66193, Control_c, 0, 67, 101
1, 66208, Control_c, 0, 67, 88
1, 66222, Control_c, 0, 67, 78
1, 66237, Control_c, 0, 67, 69
1, 66252, Control_c, 0, 67, 62
1, 66267, Control_c, 0, 67, 58
1, 66282, Control_c, 0, 67, 54
1, 66296, Control_c, 0, 67, 51
1, 66311, Control_c, 0, 67, 50
1, 66327, Control_c, 0, 67, 48
1, 66342, Control_c, 0, 67, 47
1, 66357, Control_c, 0, 67, 46
1, 66372, Control_c, 0, 67, 46
1, 66416, Control_c, 0, 67, 45
1, 66503, Note_on_c, 0, 74, 49
1, 66508, Note_on_c, 0, 60, 29
1, 66512, Note_on_c, 0, 64, 30
1, 66534, Control_c, 0, 67, 45
1, 66561, Note_off_c, 0, 76, 37
1, 66658, Note_on_c, 0, 72, 57
1, 66678, Note_off_c, 0, 64, 38
1, 66691, Note_off_c, 0, 74, 52
1, 66697, Note_off_c, 0, 60, 39
1, 66781, Note_off_c, 0, 72, 60
1, 66785, Note_on_c, 0, 71, 59
1, 66823, Control_c, 0, 67, 44
1, 66921, Note_on_c, 0, 64, 43
1, 66921, Note_on_c, 0, 72, 63
1, 66936, Note_on_c, 0, 60, 37
1, 66936, Note_off_c, 0, 71, 53
1, 66948, Note_off_c, 0, 64, 58
1, 66979, Note_off_c, 0, 60, 59
1, 67048, Note_off_c, 0, 72, 61
1, 67049, Note_on_c, 0, 74, 66
1, 67171, Note_on_c, 0, 76, 68
1, 67174, Note_off_c, 0, 74, 61
1, 67372, Control_c, 0, 67, 45
1, 67387, Control_c, 0, 67, 46
1, 67402, Control_c, 0, 67, 46
1, 67416, Control_c, 0, 67, 47
1, 67420, Note_on_c, 0, 43, 37
1, 67422, Note_on_c, 0, 79, 66
1, 67431, Control_c, 0, 67, 47
1, 67446, Control_c, 0, 64, 120
1, 67446, Control_c, 0, 67, 48
1, 67454, Note_off_c, 0, 76, 52
1, 67461, Control_c, 0, 64, 98
1, 67461, Control_c, 0, 67, 48
1, 67475, Control_c, 0, 64, 76
1, 67498, Control_c, 0, 64, 33
1, 67513, Control_c, 0, 64, 0
1, 67543, Control_c, 0, 67, 49
1, 67587, Control_c, 0, 64, 65
1, 67602, Control_c, 0, 64, 77
1, 67602, Control_c, 0, 67, 48
1, 67617, Control_c, 0, 64, 90
1, 67618, Note_off_c, 0, 43, 53
1, 67631, Control_c, 0, 64, 104
1, 67631, Control_c, 0, 67, 48
1, 67646, Control_c, 0, 64, 114
1, 67661, Control_c, 0, 64, 120
1, 67669, Note_on_c, 0, 77, 69
1, 67675, Control_c, 0, 64, 127
1, 67692, Note_off_c, 0, 79, 54
1, 67779, Control_c, 0, 67, 47
1, 67868, Note_on_c, 0, 74, 61
1, 67874, Note_on_c, 0, 55, 35
1, 67881, Note_on_c, 0, 65, 33
1, 67888, Note_on_c, 0, 59, 29
1, 67898, Note_on_c, 0, 62, 21
1, 67910, Note_off_c, 0, 77, 54
1, 68008, Note_off_c, 0, 65, 36
1, 68014, Note_off_c, 0, 62, 36
1, 68027, Note_off_c, 0, 55, 34
1, 68034, Note_off_c, 0, 59, 32
1, 68047, Note_on_c, 0, 71, 67
1, 68063, Note_off_c, 0, 74, 58
1, 68271, Note_off_c, 0, 71, 56
1, 68274, Note_on_c, 0, 67, 69
1, 68288, Note_on_c, 0, 55, 29
1, 68301, Note_on_c, 0, 65, 24
1, 68311, Note_on_c, 0, 62, 24
1, 68313, Note_on_c, 0, 59, 18
1, 68375, Note_off_c, 0, 65, 41
1, 68380, Note_off_c, 0, 59, 41
1, 68380, Note_off_c, 0, 62, 39
1, 68411, Note_off_c, 0, 55, 36
1, 68668, Note_on_c, 0, 55, 30
1, 68671, Note_on_c, 0, 65, 37
1, 68681, Note_on_c, 0, 62, 30
1, 68688, Note_on_c, 0, 59, 24
1, 68740, Note_off_c, 0, 59, 44
1, 68755, Note_off_c, 0, 62, 40
1, 68758, Note_off_c, 0, 65, 38
1, 68778, Note_off_c, 0, 55, 32
1, 69082, Note_on_c, 0, 55, 25
1, 69082, Note_on_c, 0, 65, 29
1, 69088, Note_on_c, 0, 59, 26
1, 69090, Note_on_c, 0, 62, 27
1, 69165, Note_off_c, 0, 59, 38
1, 69168, Note_off_c, 0, 65, 39
1, 69169, Note_off_c, 0, 62, 38
1, 69203, Note_off_c, 0, 55, 32
1, 69477, Note_on_c, 0, 79, 68
1, 69496, Note_on_c, 0, 65, 35
1, 69505, Note_on_c, 0, 55, 26
1, 69511, Note_on_c, 0, 59, 29
1, 69513, Note_on_c, 0, 62, 28
1, 69576, Note_off_c, 0, 65, 58
1, 69613, Note_off_c, 0, 62, 52
1, 69618, Note_off_c, 0, 67, 36
1, 69645, Note_off_c, 0, 59, 50
1, 69654, Note_off_c, 0, 55, 49
1, 69784, Note_on_c, 0, 77, 71
1, 69795, Note_off_c, 0, 79, 53
1, 69923, Note_on_c, 0, 76, 72
1, 69933, Note_off_c, 0, 77, 54
1, 69937, Control_c, 0, 67, 48
1, 69939, Note_on_c, 0, 48, 50
1, 69966, Control_c, 0, 64, 108
1, 69966, Control_c, 0, 67, 48
1, 69981, Control_c, 0, 64, 88
1, 69995, Control_c, 0, 64, 69
1, 69995, Control_c, 0, 67, 49
1, 70010, Control_c, 0, 64, 0
1, 70099, Control_c, 0, 64, 66
1, 70114, Control_c, 0, 64, 78
1, 70114, Control_c, 0, 67, 48
1, 70119, Note_off_c, 0, 48, 64
1, 70129, Control_c, 0, 64, 90
1, 70129, Control_c, 0, 67, 48
1, 70143, Control_c, 0, 64, 103
1, 70143, Control_c, 0, 67, 47
1, 70158, Control_c, 0, 64, 115
1, 70158, Control_c, 0, 67, 47
1, 70173, Control_c, 0, 64, 124
1, 70188, Control_c, 0, 64, 127
1, 70492, Note_on_c, 0, 84, 72
1, 70494, Note_on_c, 0, 60, 31
1, 70501, Note_on_c, 0, 55, 26
1, 70515, Note_on_c, 0, 64, 31
1, 70535, Note_off_c, 0, 76, 39
1, 70661, Note_off_c, 0, 64, 44
1, 70676, Note_off_c, 0, 55, 39
1, 70685, Note_off_c, 0, 60, 36
1, 70774, Control_c, 0, 67, 47
1, 70892, Control_c, 0, 67, 48
1, 70912, Note_on_c, 0, 55, 38
1, 70914, Note_on_c, 0, 60, 41
1, 70919, Note_on_c, 0, 64, 42
1, 71045, Note_off_c, 0, 64, 36
1, 71063, Note_off_c, 0, 60, 36
1, 71073, Note_on_c, 0, 78, 68
1, 71097, Note_off_c, 0, 55, 39
1, 71107, Note_off_c, 0, 84, 50
1, 71160, Control_c, 0, 67, 48
1, 71269, Note_on_c, 0, 79, 69
1, 71271, Note_on_c, 0, 55, 39
1, 71276, Note_off_c, 0, 78, 62
1, 71279, Note_on_c, 0, 60, 36
1, 71288, Note_on_c, 0, 64, 36
1, 71331, Note_off_c, 0, 64, 49
1, 71344, Note_off_c, 0, 60, 57
1, 71375, Note_off_c, 0, 55, 49
1, 71446, Note_on_c, 0, 80, 72
1, 71470, Note_off_c, 0, 79, 42
1, 71701, Control_c, 0, 67, 49
1, 71702, Note_on_c, 0, 83, 64
1, 71710, Note_on_c, 0, 57, 34
1, 71715, Control_c, 0, 64, 117
1, 71715, Control_c, 0, 67, 50
1, 71721, Note_on_c, 0, 53, 35
1, 71729, Note_off_c, 0, 80, 56
1, 71730, Control_c, 0, 64, 95
1, 71730, Control_c, 0, 67, 50
1, 71733, Note_on_c, 0, 62, 32
1, 71745, Control_c, 0, 64, 75
1, 71760, Control_c, 0, 64, 34
1, 71775, Control_c, 0, 64, 0
1, 71833, Control_c, 0, 64, 61
1, 71848, Control_c, 0, 64, 73
1, 71863, Control_c, 0, 64, 84
1, 71863, Control_c, 0, 67, 50
1, 71878, Control_c, 0, 64, 99
1, 71878, Control_c, 0, 67, 49
1, 71893, Control_c, 0, 64, 107
1, 71909, Control_c, 0, 64, 112
1, 71909, Control_c, 0, 67, 49
1, 71924, Control_c, 0, 64, 116
1, 71938, Control_c, 0, 64, 120
1, 71945, Note_off_c, 0, 53, 41
1, 71951, Note_off_c, 0, 62, 38
1, 71953, Control_c, 0, 64, 124
1, 71953, Control_c, 0, 67, 48
1, 71964, Note_off_c, 0, 57, 40
1, 71968, Control_c, 0, 64, 127
1, 72009, Note_off_c, 0, 83, 48
1, 72009, Note_on_c, 0, 81, 63
1, 72035, Control_c, 0, 67, 48
1, 72134, Note_on_c, 0, 79, 62
1, 72152, Note_off_c, 0, 81, 51
1, 72182, Note_on_c, 0, 53, 39
1, 72186, Note_on_c, 0, 57, 32
1, 72186, Note_on_c, 0, 62, 38
1, 72227, Note_on_c, 0, 77, 61
1, 72230, Note_off_c, 0, 79, 60
1, 72280, Note_off_c, 0, 77, 60
1, 72298, Note_on_c, 0, 76, 56
1, 72334, Note_off_c, 0, 76, 53
1, 72352, Note_on_c, 0, 79, 65
1, 72382, Note_off_c, 0, 62, 53
1, 72387, Note_off_c, 0, 57, 59
1, 72390, Note_off_c, 0, 79, 56
1, 72394, Note_off_c, 0, 53, 42
1, 72413, Note_on_c, 0, 77, 54
1, 72443, Note_off_c, 0, 77, 62
1, 72458, Note_on_c, 0, 76, 57
1, 72507, Note_off_c, 0, 76, 64
1, 72522, Note_on_c, 0, 77, 67
1, 72552, Note_off_c, 0, 77, 62
1, 72586, Note_on_c, 0, 74, 61
1, 72662, Note_off_c, 0, 74, 58
1, 72701, Control_c, 0, 67, 48
1, 72714, Note_on_c, 0, 72, 71
1, 72727, Note_on_c, 0, 64, 39
1, 72735, Note_on_c, 0, 55, 34
1, 72739, Control_c, 0, 67, 49
1, 72742, Note_on_c, 0, 60, 35
1, 72754, Control_c, 0, 64, 119
1, 72754, Control_c, 0, 67, 49
1, 72768, Control_c, 0, 64, 101
1, 72768, Control_c, 0, 67, 50
1, 72783, Control_c, 0, 64, 84
1, 72783, Control_c, 0, 67, 50
1, 72798, Control_c, 0, 64, 65
1, 72813, Control_c, 0, 64, 0
1, 72886, Control_c, 0, 64, 67
1, 72901, Control_c, 0, 64, 77
1, 72917, Control_c, 0, 64, 89
1, 72917, Control_c, 0, 67, 50
1, 72926, Note_off_c, 0, 64, 41
1, 72932, Control_c, 0, 64, 99
1, 72932, Control_c, 0, 67, 49
1, 72933, Note_off_c, 0, 60, 36
1, 72947, Control_c, 0, 64, 106
1, 72953, Note_off_c, 0, 55, 40
1, 72961, Control_c, 0, 64, 112
1, 72961, Control_c, 0, 67, 49
1, 72976, Control_c, 0, 64, 117
1, 72991, Control_c, 0, 64, 123
1, 73006, Control_c, 0, 64, 127
1, 73133, Note_on_c, 0, 55, 29
1, 73136, Note_on_c, 0, 60, 37
1, 73136, Note_on_c, 0, 64, 33
1, 73169, Note_off_c, 0, 64, 52
1, 73182, Note_off_c, 0, 60, 60
1, 73203, Note_off_c, 0, 55, 40
1, 73526, Note_on_c, 0, 71, 59
1, 73547, Control_c, 0, 67, 49
1, 73550, Note_on_c, 0, 55, 30
1, 73551, Note_on_c, 0, 59, 31
1, 73556, Note_on_c, 0, 62, 29
1, 73562, Control_c, 0, 64, 124
1, 73575, Note_off_c, 0, 72, 52
1, 73577, Control_c, 0, 64, 105
1, 73577, Control_c, 0, 67, 50
1, 73592, Control_c, 0, 64, 90
1, 73592, Control_c, 0, 67, 50
1, 73607, Control_c, 0, 64, 71
1, 73622, Control_c, 0, 64, 0
1, 73710, Control_c, 0, 64, 64
1, 73725, Control_c, 0, 64, 73
1, 73738, Note_off_c, 0, 59, 38
1, 73740, Control_c, 0, 64, 82
1, 73747, Note_off_c, 0, 62, 39
1, 73749, Note_off_c, 0, 55, 39
1, 73755, Control_c, 0, 64, 91
1, 73755, Control_c, 0, 67, 50
1, 73770, Control_c, 0, 64, 99
1, 73770, Control_c, 0, 67, 49
1, 73784, Control_c, 0, 64, 107
1, 73799, Control_c, 0, 64, 115
1, 73814, Control_c, 0, 64, 120
1, 73829, Control_c, 0, 64, 127
1, 73954, Note_on_c, 0, 59, 38
1, 73971, Note_on_c, 0, 62, 28
1, 73974, Note_on_c, 0, 55, 21
1, 74005, Note_off_c, 0, 59, 58
1, 74018, Note_off_c, 0, 62, 45
1, 74024, Note_off_c, 0, 55, 47
1, 74036, Control_c, 0, 67, 49
1, 74326, Control_c, 0, 67, 49
1, 74340, Control_c, 0, 67, 50
1, 74355, Control_c, 0, 64, 106
1, 74355, Control_c, 0, 67, 50
1, 74359, Note_on_c, 0, 62, 43
1, 74361, Note_on_c, 0, 53, 36
1, 74363, Note_on_c, 0, 59, 38
1, 74370, Control_c, 0, 64, 88
1, 74370, Control_c, 0, 67, 51
1, 74385, Control_c, 0, 64, 73
1, 74400, Control_c, 0, 64, 40
1, 74415, Control_c, 0, 64, 0
1, 74474, Control_c, 0, 64, 64
1, 74489, Control_c, 0, 64, 75
1, 74504, Control_c, 0, 64, 87
1, 74519, Control_c, 0, 64, 101
1, 74519, Control_c, 0, 67, 50
1, 74533, Control_c, 0, 64, 110
1, 74548, Control_c, 0, 64, 116
1, 74563, Control_c, 0, 64, 123
1, 74563, Control_c, 0, 67, 50
1, 74575, Note_off_c, 0, 62, 47
1, 74578, Control_c, 0, 64, 127
1, 74584, Note_off_c, 0, 71, 54
1, 74598, Note_off_c, 0, 59, 36
1, 74605, Note_off_c, 0, 53, 40
1, 74681, Control_c, 0, 67, 49
1, 74781, Note_on_c, 0, 62, 44
1, 74784, Note_on_c, 0, 53, 36
1, 74784, Note_on_c, 0, 59, 37
1, 74802, Note_on_c, 0, 67, 61
1, 74924, Note_off_c, 0, 59, 60
1, 74925, Note_off_c, 0, 67, 61
1, 74938, Note_off_c, 0, 53, 60
1, 74945, Note_off_c, 0, 62, 35
1, 75104, Control_c, 0, 67, 49
1, 75267, Control_c, 0, 67, 49
1, 75282, Control_c, 0, 67, 50
1, 75283, Note_on_c, 0, 79, 73
1, 75296, Note_on_c, 0, 60, 45
1, 75297, Control_c, 0, 64, 104
1, 75308, Note_on_c, 0, 52, 39
1, 75309, Note_on_c, 0, 55, 36
1, 75312, Control_c, 0, 64, 86
1, 75312, Control_c, 0, 67, 51
1, 75327, Control_c, 0, 64, 65
1, 75342, Control_c, 0, 64, 0
1, 75386, Control_c, 0, 64, 58
1, 75401, Control_c, 0, 64, 71
1, 75413, Note_off_c, 0, 79, 61
1, 75415, Control_c, 0, 64, 84
1, 75427, Note_on_c, 0, 81, 65
1, 75430, Control_c, 0, 64, 99
1, 75430, Control_c, 0, 67, 50
1, 75445, Control_c, 0, 64, 112
1, 75460, Control_c, 0, 64, 122
1, 75460, Control_c, 0, 67, 49
1, 75461, Note_off_c, 0, 81, 58
1, 75475, Control_c, 0, 64, 127
1, 75489, Control_c, 0, 67, 49
1, 75497, Note_on_c, 0, 79, 54
1, 75506, Note_off_c, 0, 60, 54
1, 75521, Note_off_c, 0, 52, 39
1, 75524, Note_off_c, 0, 79, 64
1, 75527, Note_off_c, 0, 55, 41
1, 75537, Note_on_c, 0, 81, 66
1, 75568, Note_off_c, 0, 81, 59
1, 75607, Note_on_c, 0, 79, 67
1, 75634, Note_off_c, 0, 79, 66
1, 75643, Note_on_c, 0, 81, 67
1, 75673, Note_off_c, 0, 81, 61
1, 75695, Note_on_c, 0, 60, 53
1, 75706, Note_on_c, 0, 55, 36
1, 75711, Note_on_c, 0, 79, 65
1, 75714, Note_on_c, 0, 52, 35
1, 75747, Note_off_c, 0, 79, 66
1, 75756, Note_on_c, 0, 81, 68
1, 75786, Note_off_c, 0, 81, 64
1, 75815, Note_on_c, 0, 79, 68
1, 75837, Note_off_c, 0, 79, 64
1, 75849, Note_on_c, 0, 81, 67
1, 75882, Note_off_c, 0, 81, 58
1, 75905, Note_on_c, 0, 79, 73
1, 75911, Note_off_c, 0, 52, 37
1, 75920, Note_off_c, 0, 60, 48
1, 75942, Note_off_c, 0, 79, 60
1, 75944, Note_on_c, 0, 81, 71
1, 75972, Note_off_c, 0, 81, 60
1, 75995, Note_off_c, 0, 55, 31
1, 76016, Control_c, 0, 67, 48
1, 76021, Note_on_c, 0, 79, 59
1, 76054, Note_off_c, 0, 79, 60
1, 76067, Note_on_c, 0, 81, 75
1, 76075, Control_c, 0, 67, 49
1, 76090, Control_c, 0, 67, 50
1, 76096, Note_off_c, 0, 81, 60
1, 76099, Note_on_c, 0, 55, 39
1, 76104, Note_on_c, 0, 60, 56
1, 76105, Control_c, 0, 64, 112
1, 76105, Control_c, 0, 67, 50
1, 76120, Control_c, 0, 64, 91
1, 76125, Note_on_c, 0, 79, 68
1, 76126, Note_on_c, 0, 52, 45
1, 76135, Control_c, 0, 64, 75
1, 76150, Control_c, 0, 64, 68
1, 76150, Control_c, 0, 67, 51
1, 76163, Note_off_c, 0, 79, 61
1, 76164, Control_c, 0, 64, 71
1, 76170, Note_on_c, 0, 81, 72
1, 76179, Control_c, 0, 64, 80
1, 76194, Control_c, 0, 64, 92
1, 76200, Note_off_c, 0, 81, 58
1, 76209, Control_c, 0, 64, 107
1, 76223, Control_c, 0, 64, 120
1, 76224, Note_on_c, 0, 79, 64
1, 76238, Control_c, 0, 64, 126
1, 76238, Control_c, 0, 67, 50
1, 76253, Control_c, 0, 64, 127
1, 76257, Note_off_c, 0, 79, 64
1, 76265, Note_on_c, 0, 81, 72
1, 76268, Control_c, 0, 67, 50
1, 76283, Control_c, 0, 67, 49
1, 76296, Note_off_c, 0, 52, 52
1, 76298, Note_off_c, 0, 81, 55
1, 76327, Note_on_c, 0, 79, 73
1, 76356, Note_off_c, 0, 60, 34
1, 76357, Note_off_c, 0, 55, 38
1, 76386, Control_c, 0, 67, 49
1, 76445, Note_on_c, 0, 81, 77
1, 76449, Note_off_c, 0, 79, 59
1, 76470, Note_off_c, 0, 81, 63
1, 76496, Note_on_c, 0, 60, 62
1, 76502, Note_on_c, 0, 55, 52
1, 76514, Note_on_c, 0, 52, 41
1, 76522, Note_on_c, 0, 83, 38
1, 76549, Note_off_c, 0, 83, 46
1, 76552, Note_on_c, 0, 81, 67
1, 76578, Note_off_c, 0, 81, 66
1, 76592, Note_on_c, 0, 83, 65
1, 76624, Note_off_c, 0, 55, 61
1, 76627, Note_off_c, 0, 60, 55
1, 76634, Note_off_c, 0, 83, 58
1, 76652, Note_on_c, 0, 81, 69
1, 76683, Note_off_c, 0, 81, 61
1, 76687, Note_off_c, 0, 52, 36
1, 76692, Note_on_c, 0, 83, 65
1, 76739, Note_off_c, 0, 83, 54
1, 76750, Note_on_c, 0, 81, 74
1, 76779, Note_on_c, 0, 83, 58
1, 76779, Note_off_c, 0, 81, 63
1, 76808, Note_off_c, 0, 83, 63
1, 76809, Control_c, 0, 67, 48
1, 76853, Control_c, 0, 67, 49
1, 76864, Note_on_c, 0, 81, 66
1, 76868, Control_c, 0, 67, 49
1, 76883, Control_c, 0, 67, 50
1, 76898, Note_on_c, 0, 83, 77
1, 76898, Control_c, 0, 64, 100
1, 76898, Control_c, 0, 67, 50
1, 76901, Note_off_c, 0, 81, 60
1, 76904, Note_on_c, 0, 60, 69
1, 76911, Note_on_c, 0, 48, 59
1, 76913, Control_c, 0, 64, 80
1, 76928, Control_c, 0, 64, 64
1, 76938, Note_off_c, 0, 83, 60
1, 76943, Control_c, 0, 64, 58
1, 76948, Note_on_c, 0, 84, 60
1, 76951, Note_on_c, 0, 52, 25
1, 76957, Control_c, 0, 64, 67
1, 76972, Control_c, 0, 64, 77
1, 76984, Note_off_c, 0, 84, 59
1, 76987, Control_c, 0, 64, 92
1, 76993, Note_on_c, 0, 83, 67
1, 77002, Control_c, 0, 64, 112
1, 77017, Control_c, 0, 64, 127
1, 77023, Note_off_c, 0, 83, 62
1, 77043, Note_on_c, 0, 84, 65
1, 77051, Note_off_c, 0, 48, 55
1, 77061, Control_c, 0, 67, 50
1, 77083, Note_off_c, 0, 84, 64
1, 77091, Note_on_c, 0, 83, 74
1, 77114, Note_off_c, 0, 60, 37
1, 77127, Note_off_c, 0, 83, 59
1, 77144, Note_on_c, 0, 84, 70
1, 77151, Note_off_c, 0, 52, 32
1, 77184, Note_off_c, 0, 84, 64
1, 77185, Note_on_c, 0, 83, 61
1, 77220, Note_off_c, 0, 83, 61
1, 77247, Control_c, 0, 67, 49
1, 77307, Note_on_c, 0, 84, 65
1, 77321, Note_on_c, 0, 60, 71
1, 77329, Note_on_c, 0, 48, 56
1, 77333, Note_on_c, 0, 52, 39
1, 77363, Note_off_c, 0, 84, 66
1, 77372, Note_on_c, 0, 86, 39
1, 77400, Note_off_c, 0, 86, 56
1, 77405, Note_on_c, 0, 84, 55
1, 77438, Note_off_c, 0, 84, 67
1, 77445, Note_on_c, 0, 86, 76
1, 77448, Note_off_c, 0, 60, 58
1, 77496, Note_off_c, 0, 86, 62
1, 77500, Note_off_c, 0, 52, 65
1, 77504, Note_on_c, 0, 84, 70
1, 77505, Note_off_c, 0, 48, 65
1, 77533, Poly_aftertouch_c, 0, 86, 0
1, 77536, Note_off_c, 0, 84, 63
1, 77539, Note_on_c, 0, 86, 69
1, 77587, Note_off_c, 0, 86, 62
1, 77607, Note_on_c, 0, 84, 75
1, 77632, Note_on_c, 0, 86, 69
1, 77639, Note_off_c, 0, 84, 61
1, 77726, Note_on_c, 0, 87, 79
1, 77736, Note_off_c, 0, 86, 60
1, 77744, Note_on_c, 0, 42, 70
1, 77750, Control_c, 0, 67, 50
1, 77765, Control_c, 0, 67, 51
1, 77780, Control_c, 0, 64, 119
1, 77780, Control_c, 0, 67, 52
1, 77795, Control_c, 0, 64, 91
1, 77795, Control_c, 0, 67, 53
1, 77810, Control_c, 0, 64, 64
1, 77825, Control_c, 0, 64, 0
1, 77840, Control_c, 0, 67, 52
1, 77899, Control_c, 0, 64, 61
1, 77899, Control_c, 0, 67, 52
1, 77914, Control_c, 0, 64, 73
1, 77914, Control_c, 0, 67, 51
1, 77929, Control_c, 0, 64, 85
1, 77935, Note_off_c, 0, 42, 63
1, 77943, Control_c, 0, 64, 99
1, 77943, Control_c, 0, 67, 51
1, 77958, Control_c, 0, 64, 113
1, 77958, Control_c, 0, 67, 50
1, 77980, Control_c, 0, 64, 127
1, 77980, Control_c, 0, 67, 50
1, 78010, Control_c, 0, 67, 49
1, 78099, Control_c, 0, 67, 49
1, 78258, Note_on_c, 0, 63, 47
1, 78266, Note_on_c, 0, 54, 40
1, 78267, Note_on_c, 0, 60, 42
1, 78270, Note_on_c, 0, 57, 37
1, 78343, Note_off_c, 0, 57, 46
1, 78347, Note_off_c, 0, 60, 44
1, 78347, Note_off_c, 0, 63, 56
1, 78365, Note_on_c, 0, 84, 68
1, 78388, Note_off_c, 0, 87, 45
1, 78397, Note_off_c, 0, 54, 34
1, 78462, Note_on_c, 0, 81, 68
1, 78463, Note_off_c, 0, 84, 63
1, 78513, Note_off_c, 0, 81, 60
1, 78529, Control_c, 0, 67, 48
1, 78543, Note_on_c, 0, 79, 67
1, 78682, Note_on_c, 0, 78, 71
1, 78690, Note_on_c, 0, 63, 37
1, 78692, Control_c, 0, 67, 49
1, 78704, Note_on_c, 0, 54, 29
1, 78704, Note_on_c, 0, 60, 38
1, 78707, Control_c, 0, 67, 49
1, 78728, Note_on_c, 0, 57, 31
1, 78729, Control_c, 0, 67, 50
1, 78737, Note_off_c, 0, 79, 35
1, 78744, Control_c, 0, 67, 51
1, 78759, Control_c, 0, 64, 109
1, 78759, Control_c, 0, 67, 51
1, 78774, Control_c, 0, 64, 85
1, 78788, Control_c, 0, 64, 65
1, 78803, Control_c, 0, 64, 0
1, 78847, Control_c, 0, 64, 59
1, 78862, Control_c, 0, 64, 72
1, 78877, Note_off_c, 0, 60, 47
1, 78877, Control_c, 0, 64, 82
1, 78892, Control_c, 0, 64, 93
1, 78899, Note_off_c, 0, 57, 42
1, 78900, Note_off_c, 0, 63, 42
1, 78907, Control_c, 0, 64, 102
1, 78910, Note_off_c, 0, 54, 38
1, 78922, Control_c, 0, 64, 111
1, 78922, Control_c, 0, 67, 51
1, 78937, Control_c, 0, 64, 117
1, 78951, Control_c, 0, 64, 124
1, 78951, Control_c, 0, 67, 50
1, 78966, Control_c, 0, 64, 127
1, 79124, Note_on_c, 0, 54, 31
1, 79125, Note_on_c, 0, 57, 37
1, 79127, Note_on_c, 0, 75, 67
1, 79128, Note_on_c, 0, 60, 41
1, 79184, Note_off_c, 0, 78, 51
1, 79204, Control_c, 0, 67, 50
1, 79289, Note_off_c, 0, 57, 33
1, 79291, Note_off_c, 0, 60, 33
1, 79294, Note_off_c, 0, 54, 37
1, 79322, Control_c, 0, 67, 49
1, 79375, Note_off_c, 0, 75, 58
1, 79392, Note_on_c, 0, 74, 66
1, 79455, Control_c, 0, 67, 49
1, 79507, Note_off_c, 0, 74, 62
1, 79523, Control_c, 0, 67, 50
1, 79537, Control_c, 0, 67, 50
1, 79546, Note_on_c, 0, 86, 72
1, 79552, Control_c, 0, 67, 51
1, 79562, Note_on_c, 0, 60, 35
1, 79566, Note_on_c, 0, 54, 32
1, 79567, Control_c, 0, 64, 113
1, 79567, Control_c, 0, 67, 51
1, 79573, Note_on_c, 0, 57, 32
1, 79581, Control_c, 0, 64, 91
1, 79596, Control_c, 0, 64, 72
1, 79611, Control_c, 0, 64, 47
1, 79626, Control_c, 0, 64, 41
1, 79641, Control_c, 0, 64, 63
1, 79656, Control_c, 0, 64, 71
1, 79671, Control_c, 0, 64, 81
1, 79671, Control_c, 0, 67, 51
1, 79686, Control_c, 0, 64, 95
1, 79701, Control_c, 0, 64, 110
1, 79716, Control_c, 0, 64, 127
1, 79730, Control_c, 0, 67, 50
1, 79758, Note_off_c, 0, 60, 58
1, 79768, Note_off_c, 0, 57, 51
1, 79802, Note_off_c, 0, 54, 38
1, 79879, Control_c, 0, 67, 50
1, 80004, Note_on_c, 0, 84, 75
1, 80010, Note_on_c, 0, 60, 43
1, 80013, Note_on_c, 0, 54, 29
1, 80017, Note_on_c, 0, 57, 36
1, 80028, Control_c, 0, 67, 49
1, 80043, Note_off_c, 0, 86, 58
1, 80102, Note_off_c, 0, 60, 61
1, 80117, Note_off_c, 0, 57, 58
1, 80155, Note_off_c, 0, 54, 54
1, 80290, Note_off_c, 0, 84, 57
1, 80517, Note_on_c, 0, 43, 34
1, 80523, Note_on_c, 0, 84, 63
1, 80552, Control_c, 0, 67, 50
1, 80597, Control_c, 0, 67, 51
1, 80612, Control_c, 0, 64, 103
1, 80627, Control_c, 0, 64, 86
1, 80627, Control_c, 0, 67, 51
1, 80642, Control_c, 0, 64, 68
1, 80657, Control_c, 0, 64, 0
1, 80716, Control_c, 0, 64, 66
1, 80731, Control_c, 0, 64, 78
1, 80746, Control_c, 0, 64, 93
1, 80758, Note_off_c, 0, 43, 50
1, 80761, Control_c, 0, 64, 109
1, 80776, Control_c, 0, 64, 127
1, 80776, Control_c, 0, 67, 51
1, 80791, Control_c, 0, 67, 50
1, 80835, Control_c, 0, 67, 50
1, 80909, Control_c, 0, 67, 49
1, 81091, Note_on_c, 0, 65, 31
1, 81092, Note_on_c, 0, 83, 55
1, 81096, Note_on_c, 0, 55, 32
1, 81097, Note_on_c, 0, 62, 33
1, 81109, Control_c, 0, 67, 50
1, 81110, Note_on_c, 0, 59, 26
1, 81137, Note_off_c, 0, 84, 55
1, 81154, Control_c, 0, 67, 50
1, 81230, Note_off_c, 0, 65, 37
1, 81235, Note_off_c, 0, 62, 34
1, 81245, Note_off_c, 0, 55, 37
1, 81252, Note_off_c, 0, 59, 32
1, 81530, Note_on_c, 0, 65, 28
1, 81534, Note_on_c, 0, 55, 26
1, 81579, Note_on_c, 0, 62, 13
1, 81584, Note_on_c, 0, 59, 10
1, 81673, Note_on_c, 0, 91, 59
1, 81741, Note_off_c, 0, 65, 39
1, 81751, Note_off_c, 0, 62, 35
1, 81753, Note_off_c, 0, 55, 38
1, 81765, Note_off_c, 0, 83, 34
1, 81771, Note_off_c, 0, 59, 34
1, 81822, Note_on_c, 0, 89, 57
1, 81844, Note_off_c, 0, 91, 46
1, 81879, Note_off_c, 0, 89, 57
1, 81992, Note_on_c, 0, 89, 61
1, 81994, Note_on_c, 0, 55, 34
1, 81998, Note_on_c, 0, 65, 32
1, 82015, Note_on_c, 0, 59, 20
1, 82015, Note_on_c, 0, 62, 28
1, 82127, Note_on_c, 0, 88, 68
1, 82133, Note_off_c, 0, 89, 55
1, 82167, Note_off_c, 0, 65, 39
1, 82192, Note_off_c, 0, 55, 38
1, 82192, Note_off_c, 0, 62, 35
1, 82207, Note_off_c, 0, 59, 31
1, 82246, Note_on_c, 0, 86, 65
1, 82247, Note_off_c, 0, 88, 61
1, 82302, Note_off_c, 0, 86, 62
1, 82387, Note_on_c, 0, 86, 62
1, 82410, Note_on_c, 0, 55, 27
1, 82410, Note_on_c, 0, 65, 36
1, 82421, Note_on_c, 0, 59, 20
1, 82427, Note_on_c, 0, 62, 30
1, 82523, Note_on_c, 0, 84, 68
1, 82535, Note_off_c, 0, 86, 54
1, 82551, Note_off_c, 0, 62, 35
1, 82566, Note_off_c, 0, 65, 31
1, 82627, Note_off_c, 0, 55, 33
1, 82630, Note_on_c, 0, 83, 69
1, 82636, Note_off_c, 0, 59, 29
1, 82638, Note_off_c, 0, 84, 63
1, 82690, Note_off_c, 0, 83, 59
1, 82773, Note_on_c, 0, 83, 65
1, 82776, Note_on_c, 0, 55, 39
1, 82777, Note_on_c, 0, 65, 38
1, 82781, Note_on_c, 0, 62, 40
1, 82790, Note_on_c, 0, 59, 32
1, 82821, Note_off_c, 0, 65, 46
1, 82846, Note_off_c, 0, 62, 55
1, 82892, Note_on_c, 0, 81, 72
1, 82901, Note_off_c, 0, 55, 53
1, 82902, Control_c, 0, 67, 50
1, 82911, Note_off_c, 0, 83, 50
1, 82914, Note_off_c, 0, 59, 37
1, 83006, Note_on_c, 0, 79, 71
1, 83013, Note_off_c, 0, 81, 60
1, 83086, Note_off_c, 0, 79, 59
1, 83155, Control_c, 0, 67, 49
1, 83207, Note_on_c, 0, 79, 68
1, 83229, Note_on_c, 0, 48, 43
1, 83236, Control_c, 0, 67, 50
1, 83251, Control_c, 0, 67, 51
1, 83266, Control_c, 0, 67, 51
1, 83281, Control_c, 0, 64, 104
1, 83281, Control_c, 0, 67, 52
1, 83295, Control_c, 0, 64, 83
1, 83295, Control_c, 0, 67, 52
1, 83310, Control_c, 0, 64, 63
1, 83310, Control_c, 0, 67, 53
1, 83325, Control_c, 0, 64, 0
1, 83325, Control_c, 0, 67, 54
1, 83340, Control_c, 0, 67, 54
1, 83355, Control_c, 0, 67, 55
1, 83369, Control_c, 0, 64, 57
1, 83369, Control_c, 0, 67, 56
1, 83384, Control_c, 0, 64, 73
1, 83384, Control_c, 0, 67, 59
1, 83399, Control_c, 0, 64, 86
1, 83399, Control_c, 0, 67, 63
1, 83414, Control_c, 0, 64, 104
1, 83414, Control_c, 0, 67, 65
1, 83429, Control_c, 0, 64, 122
1, 83429, Control_c, 0, 67, 66
1, 83438, Note_off_c, 0, 48, 53
1, 83444, Control_c, 0, 64, 127
1, 83444, Control_c, 0, 67, 65
1, 83459, Control_c, 0, 67, 64
1, 83474, Control_c, 0, 67, 62
1, 83488, Control_c, 0, 67, 62
1, 83533, Control_c, 0, 67, 61
1, 83562, Control_c, 0, 67, 61
1, 83607, Control_c, 0, 67, 60
1, 83651, Control_c, 0, 67, 60
1, 83682, Note_on_c, 0, 60, 37
1, 83683, Note_on_c, 0, 64, 37
1, 83685, Note_on_c, 0, 55, 33
1, 83695, Control_c, 0, 67, 60
1, 83739, Control_c, 0, 67, 60
1, 83745, Note_off_c, 0, 60, 56
1, 83745, Note_off_c, 0, 64, 57
1, 83809, Note_on_c, 0, 77, 60
1, 83809, Note_off_c, 0, 55, 34
1, 83834, Note_off_c, 0, 79, 50
1, 83843, Control_c, 0, 67, 59
1, 83986, Control_c, 0, 67, 59
1, 84030, Control_c, 0, 67, 60
1, 84044, Control_c, 0, 67, 60
1, 84058, Note_on_c, 0, 76, 64
1, 84059, Control_c, 0, 67, 61
1, 84074, Control_c, 0, 67, 62
1, 84079, Note_on_c, 0, 60, 34
1, 84079, Note_on_c, 0, 64, 34
1, 84082, Note_on_c, 0, 55, 32
1, 84089, Control_c, 0, 64, 102
1, 84104, Control_c, 0, 64, 84
1, 84107, Note_off_c, 0, 77, 55
1, 84118, Control_c, 0, 64, 68
1, 84133, Control_c, 0, 64, 0
1, 84163, Control_c, 0, 64, 58
1, 84177, Control_c, 0, 64, 68
1, 84192, Control_c, 0, 64, 76
1, 84192, Control_c, 0, 67, 61
1, 84207, Control_c, 0, 64, 86
1, 84222, Control_c, 0, 64, 99
1, 84222, Control_c, 0, 67, 61
1, 84237, Control_c, 0, 64, 110
1, 84237, Control_c, 0, 67, 60
1, 84252, Control_c, 0, 64, 124
1, 84252, Control_c, 0, 67, 60
1, 84267, Control_c, 0, 64, 127
1, 84267, Control_c, 0, 67, 59
1, 84273, Note_off_c, 0, 60, 55
1, 84281, Control_c, 0, 67, 59
1, 84287, Note_off_c, 0, 64, 43
1, 84301, Note_off_c, 0, 55, 42
1, 84499, Note_on_c, 0, 64, 37
1, 84501, Note_on_c, 0, 55, 33
1, 84502, Note_on_c, 0, 60, 36
1, 84592, Control_c, 0, 67, 59
1, 84599, Note_off_c, 0, 64, 53
1, 84603, Note_off_c, 0, 60, 51
1, 84654, Note_off_c, 0, 55, 40
1, 84835, Note_off_c, 0, 76, 56
1, 84930, Note_on_c, 0, 55, 39
1, 84931, Note_on_c, 0, 64, 39
1, 84933, Note_on_c, 0, 60, 36
1, 84941, Control_c, 0, 67, 60
1, 84999, Note_off_c, 0, 60, 49
1, 85002, Note_off_c, 0, 64, 53
1, 85037, Note_off_c, 0, 55, 35
1, 85365, Note_on_c, 0, 67, 81
1, 85371, Note_on_c, 0, 55, 51
1, 85382, Note_on_c, 0, 64, 49
1, 85390, Note_on_c, 0, 60, 42
1, 85445, Control_c, 0, 67, 60
1, 85453, Note_off_c, 0, 64, 58
1, 85498, Note_off_c, 0, 55, 53
1, 85498, Control_c, 0, 67, 61
1, 85513, Note_off_c, 0, 60, 57
1, 85528, Control_c, 0, 67, 61
1, 85587, Control_c, 0, 67, 62
1, 85676, Control_c, 0, 67, 61
1, 85715, Note_on_c, 0, 79, 87
1, 85720, Control_c, 0, 67, 61
1, 85774, Note_off_c, 0, 67, 26
1, 85779, Control_c, 0, 67, 60
1, 85787, Note_off_c, 0, 79, 62
1, 85809, Control_c, 0, 67, 60
1, 85853, Control_c, 0, 67, 60
1, 85868, Control_c, 0, 67, 61
1, 85870, Note_on_c, 0, 79, 92
1, 85883, Control_c, 0, 67, 62
1, 85884, Note_on_c, 0, 52, 72
1, 85887, Note_on_c, 0, 40, 67
1, 85897, Control_c, 0, 67, 62
1, 85912, Control_c, 0, 64, 118
1, 85912, Control_c, 0, 67, 63
1, 85927, Control_c, 0, 64, 92
1, 85942, Control_c, 0, 64, 68
1, 85957, Control_c, 0, 64, 0
1, 85987, Control_c, 0, 67, 62
1, 86016, Control_c, 0, 64, 67
1, 86031, Control_c, 0, 64, 81
1, 86031, Control_c, 0, 67, 62
1, 86046, Note_off_c, 0, 40, 63
1, 86046, Control_c, 0, 64, 105
1, 86061, Control_c, 0, 64, 127
1, 86061, Control_c, 0, 67, 61
1, 86090, Control_c, 0, 67, 61
1, 86091, Note_off_c, 0, 52, 60
1, 86105, Control_c, 0, 67, 60
1, 86179, Control_c, 0, 67, 60
1, 86341, Note_on_c, 0, 55, 55
1, 86347, Note_on_c, 0, 52, 52
1, 86472, Note_off_c, 0, 55, 55
1, 86484, Note_off_c, 0, 52, 55
1, 86498, Note_on_c, 0, 76, 69
1, 86532, Note_off_c, 0, 79, 51
1, 86713, Note_on_c, 0, 55, 48
1, 86716, Note_on_c, 0, 72, 75
1, 86720, Note_on_c, 0, 52, 48
1, 86801, Note_off_c, 0, 76, 37
1, 86836, Note_off_c, 0, 55, 56
1, 86846, Note_off_c, 0, 72, 61
1, 86882, Note_on_c, 0, 67, 72
1, 86883, Note_off_c, 0, 52, 45
1, 86964, Note_off_c, 0, 67, 62
1, 87075, Note_on_c, 0, 64, 70
1, 87086, Note_on_c, 0, 55, 45
1, 87087, Note_on_c, 0, 52, 50
1, 87183, Note_off_c, 0, 55, 43
1, 87188, Note_off_c, 0, 52, 44
1, 87236, Note_on_c, 0, 60, 74
1, 87262, Note_off_c, 0, 64, 60
1, 87455, Control_c, 0, 67, 61
1, 87456, Note_on_c, 0, 59, 73
1, 87460, Note_off_c, 0, 60, 57
1, 87466, Note_on_c, 0, 55, 48
1, 87469, Control_c, 0, 67, 61
1, 87471, Note_on_c, 0, 52, 49
1, 87484, Control_c, 0, 67, 62
1, 87499, Control_c, 0, 64, 101
1, 87499, Control_c, 0, 67, 62
1, 87513, Control_c, 0, 64, 80
1, 87528, Control_c, 0, 64, 57
1, 87543, Control_c, 0, 64, 0
1, 87587, Control_c, 0, 64, 64
1, 87602, Control_c, 0, 64, 74
1, 87617, Control_c, 0, 64, 85
1, 87620, Note_on_c, 0, 62, 74
1, 87632, Control_c, 0, 64, 95
1, 87632, Control_c, 0, 67, 62
1, 87641, Note_off_c, 0, 59, 59
1, 87647, Control_c, 0, 64, 101
1, 87662, Control_c, 0, 64, 106
1, 87662, Control_c, 0, 67, 61
1, 87677, Control_c, 0, 64, 110
1, 87692, Control_c, 0, 64, 114
1, 87697, Note_off_c, 0, 55, 37
1, 87713, Control_c, 0, 64, 120
1, 87724, Note_off_c, 0, 52, 33
1, 87728, Control_c, 0, 64, 127
1, 87743, Note_on_c, 0, 60, 80
1, 87774, Note_off_c, 0, 62, 58
1, 87814, Note_off_c, 0, 60, 59
1, 87832, Control_c, 0, 67, 61
1, 87876, Control_c, 0, 67, 61
1, 87891, Note_on_c, 0, 60, 75
1, 87897, Note_on_c, 0, 52, 50
1, 87898, Note_on_c, 0, 55, 51
1, 87939, Note_off_c, 0, 55, 61
1, 87963, Note_off_c, 0, 60, 60
1, 87982, Note_off_c, 0, 52, 62
1, 87994, Note_on_c, 0, 59, 70
1, 88073, Note_off_c, 0, 59, 56
1, 88115, Note_on_c, 0, 58, 72
1, 88203, Control_c, 0, 67, 61
1, 88330, Note_off_c, 0, 58, 59
1, 88336, Note_on_c, 0, 57, 68
1, 88336, Control_c, 0, 67, 61
1, 88347, Note_on_c, 0, 41, 48
1, 88351, Control_c, 0, 67, 62
1, 88366, Control_c, 0, 64, 108
1, 88366, Control_c, 0, 67, 62
1, 88381, Control_c, 0, 64, 90
1, 88396, Control_c, 0, 64, 72
1, 88410, Control_c, 0, 64, 0
1, 88440, Control_c, 0, 67, 63
1, 88522, Control_c, 0, 67, 62
1, 88536, Control_c, 0, 64, 64
1, 88536, Control_c, 0, 67, 62
1, 88551, Control_c, 0, 64, 72
1, 88551, Control_c, 0, 67, 61
1, 88566, Control_c, 0, 64, 81
1, 88566, Control_c, 0, 67, 61
1, 88581, Control_c, 0, 64, 91
1, 88581, Control_c, 0, 67, 60
1, 88596, Control_c, 0, 64, 99
1, 88610, Control_c, 0, 64, 107
1, 88610, Control_c, 0, 67, 60
1, 88625, Control_c, 0, 64, 113
1, 88640, Control_c, 0, 64, 118
1, 88655, Control_c, 0, 64, 125
1, 88670, Control_c, 0, 64, 127
1, 88715, Control_c, 0, 67, 59
1, 88753, Note_off_c, 0, 57, 57
1, 88756, Note_on_c, 0, 53, 49
1, 88789, Control_c, 0, 67, 60
1, 88804, Note_on_c, 0, 58, 47
1, 88828, Note_off_c, 0, 41, 42
1, 88846, Note_off_c, 0, 58, 59
1, 88851, Note_off_c, 0, 53, 54
1, 88864, Note_on_c, 0, 57, 54
1, 88893, Note_off_c, 0, 57, 64
1, 88920, Note_on_c, 0, 56, 53
1, 88942, Note_off_c, 0, 56, 62
1, 88985, Note_on_c, 0, 57, 25
1, 89037, Note_off_c, 0, 57, 41
1, 89086, Note_on_c, 0, 59, 34
1, 89117, Note_off_c, 0, 59, 51
1, 89140, Note_on_c, 0, 60, 60
1, 89159, Control_c, 0, 67, 61
1, 89174, Control_c, 0, 67, 62
1, 89178, Note_off_c, 0, 60, 61
1, 89189, Control_c, 0, 64, 110
1, 89189, Control_c, 0, 67, 62
1, 89197, Note_on_c, 0, 57, 31
1, 89198, Note_on_c, 0, 61, 64
1, 89212, Control_c, 0, 64, 90
1, 89223, Note_on_c, 0, 53, 47
1, 89227, Control_c, 0, 64, 71
1, 89232, Note_off_c, 0, 61, 65
1, 89241, Control_c, 0, 64, 50
1, 89256, Control_c, 0, 64, 49
1, 89271, Control_c, 0, 64, 65
1, 89275, Note_on_c, 0, 62, 51
1, 89286, Control_c, 0, 64, 76
1, 89301, Control_c, 0, 64, 88
1, 89303, Note_off_c, 0, 62, 53
1, 89315, Control_c, 0, 64, 100
1, 89317, Note_on_c, 0, 63, 68
1, 89330, Control_c, 0, 64, 110
1, 89344, Note_off_c, 0, 63, 69
1, 89345, Control_c, 0, 64, 117
1, 89359, Control_c, 0, 64, 121
1, 89359, Control_c, 0, 67, 62
1, 89374, Control_c, 0, 64, 127
1, 89374, Control_c, 0, 67, 61
1, 89384, Note_on_c, 0, 64, 66
1, 89399, Note_off_c, 0, 57, 40
1, 89403, Note_off_c, 0, 53, 42
1, 89425, Note_off_c, 0, 64, 57
1, 89435, Control_c, 0, 67, 61
1, 89451, Note_on_c, 0, 65, 56
1, 89464, Control_c, 0, 67, 60
1, 89483, Note_off_c, 0, 65, 64
1, 89496, Note_on_c, 0, 66, 65
1, 89524, Note_off_c, 0, 66, 68
1, 89557, Note_on_c, 0, 67, 60
1, 89569, Control_c, 0, 67, 61
1, 89583, Control_c, 0, 67, 61
1, 89592, Note_off_c, 0, 67, 63
1, 89598, Control_c, 0, 67, 62
1, 89609, Note_on_c, 0, 68, 68
1, 89613, Control_c, 0, 64, 117
1, 89613, Control_c, 0, 67, 62
1, 89628, Control_c, 0, 64, 99
1, 89628, Control_c, 0, 67, 63
1, 89632, Note_off_c, 0, 68, 66
1, 89643, Control_c, 0, 64, 80
1, 89650, Note_on_c, 0, 62, 50
1, 89650, Note_on_c, 0, 57, 42
1, 89657, Control_c, 0, 64, 63
1, 89672, Control_c, 0, 64, 0
1, 89677, Note_on_c, 0, 69, 62
1, 89678, Note_on_c, 0, 53, 28
1, 89687, Control_c, 0, 67, 63
1, 89704, Note_off_c, 0, 69, 63
1, 89717, Control_c, 0, 64, 64
1, 89725, Note_on_c, 0, 70, 68
1, 89731, Control_c, 0, 64, 74
1, 89731, Control_c, 0, 67, 63
1, 89746, Control_c, 0, 64, 85
1, 89746, Control_c, 0, 67, 62
1, 89750, Note_off_c, 0, 70, 67
1, 89761, Control_c, 0, 64, 97
1, 89776, Control_c, 0, 64, 107
1, 89776, Control_c, 0, 67, 62
1, 89782, Note_on_c, 0, 71, 68
1, 89783, Note_off_c, 0, 62, 56
1, 89784, Note_off_c, 0, 57, 53
1, 89790, Control_c, 0, 64, 113
1, 89790, Control_c, 0, 67, 61
1, 89805, Control_c, 0, 64, 118
1, 89820, Control_c, 0, 64, 123
1, 89826, Note_off_c, 0, 71, 58
1, 89827, Note_off_c, 0, 53, 38
1, 89835, Control_c, 0, 64, 127
1, 89849, Note_on_c, 0, 72, 59
1, 89878, Note_off_c, 0, 72, 68
1, 89880, Control_c, 0, 67, 61
1, 89893, Note_on_c, 0, 73, 65
1, 89895, Control_c, 0, 67, 60
1, 89923, Note_off_c, 0, 73, 67
1, 89960, Note_on_c, 0, 74, 60
1, 89990, Note_off_c, 0, 74, 63
1, 90021, Note_on_c, 0, 75, 61
1, 90042, Note_off_c, 0, 75, 65
1, 90064, Control_c, 0, 67, 61
1, 90079, Note_on_c, 0, 76, 68
1, 90079, Control_c, 0, 67, 62
1, 90094, Control_c, 0, 67, 62
1, 90103, Note_on_c, 0, 62, 49
1, 90104, Note_on_c, 0, 57, 45
1, 90109, Control_c, 0, 64, 107
1, 90109, Control_c, 0, 67, 63
1, 90122, Note_on_c, 0, 53, 43
1, 90124, Note_off_c, 0, 76, 60
1, 90124, Control_c, 0, 64, 88
1, 90139, Control_c, 0, 64, 70
1, 90147, Note_on_c, 0, 77, 59
1, 90154, Control_c, 0, 64, 34
1, 90169, Control_c, 0, 64, 51
1, 90181, Note_off_c, 0, 77, 63
1, 90184, Control_c, 0, 64, 65
1, 90184, Control_c, 0, 67, 63
1, 90197, Note_on_c, 0, 78, 63
1, 90199, Control_c, 0, 64, 73
1, 90199, Control_c, 0, 67, 62
1, 90213, Control_c, 0, 64, 84
1, 90222, Note_off_c, 0, 78, 62
1, 90228, Control_c, 0, 64, 95
1, 90243, Control_c, 0, 64, 104
1, 90252, Note_on_c, 0, 79, 65
1, 90258, Control_c, 0, 64, 111
1, 90266, Note_off_c, 0, 62, 56
1, 90273, Control_c, 0, 64, 113
1, 90281, Note_off_c, 0, 79, 61
1, 90287, Note_off_c, 0, 57, 53
1, 90288, Control_c, 0, 64, 117
1, 90303, Control_c, 0, 64, 120
1, 90318, Note_on_c, 0, 80, 62
1, 90318, Note_off_c, 0, 53, 39
1, 90318, Control_c, 0, 64, 123
1, 90333, Control_c, 0, 64, 124
1, 90333, Control_c, 0, 67, 62
1, 90336, Note_off_c, 0, 80, 66
1, 90363, Control_c, 0, 64, 124
1, 90375, Note_on_c, 0, 81, 62
1, 90392, Control_c, 0, 64, 125
1, 90395, Note_off_c, 0, 81, 58
1, 90432, Note_on_c, 0, 82, 58
1, 90437, Control_c, 0, 67, 61
1, 90452, Note_off_c, 0, 82, 66
1, 90482, Note_on_c, 0, 83, 63
1, 90526, Control_c, 0, 67, 62
1, 90527, Note_off_c, 0, 83, 48
1, 90565, Note_on_c, 0, 84, 57
1, 90570, Control_c, 0, 67, 62
1, 90585, Control_c, 0, 64, 117
1, 90585, Control_c, 0, 67, 63
1, 90595, Note_on_c, 0, 57, 46
1, 90595, Note_on_c, 0, 62, 48
1, 90598, Note_off_c, 0, 84, 66
1, 90600, Control_c, 0, 64, 100
1, 90600, Control_c, 0, 67, 64
1, 90606, Note_on_c, 0, 53, 39
1, 90613, Note_on_c, 0, 85, 60
1, 90614, Control_c, 0, 64, 82
1, 90614, Control_c, 0, 67, 65
1, 90629, Control_c, 0, 64, 58
1, 90629, Control_c, 0, 67, 67
1, 90640, Note_off_c, 0, 85, 66
1, 90644, Control_c, 0, 64, 0
1, 90644, Control_c, 0, 67, 74
1, 90659, Control_c, 0, 67, 89
1, 90674, Control_c, 0, 67, 104
1, 90682, Note_on_c, 0, 86, 54
1, 90688, Control_c, 0, 64, 60
1, 90688, Control_c, 0, 67, 119
1, 90711, Control_c, 0, 64, 72
1, 90711, Control_c, 0, 67, 127
1, 90712, Note_off_c, 0, 86, 58
1, 90726, Control_c, 0, 64, 83
1, 90740, Control_c, 0, 64, 98
1, 90746, Note_on_c, 0, 87, 60
1, 90752, Note_off_c, 0, 62, 52
1, 90755, Control_c, 0, 64, 108
1, 90770, Control_c, 0, 64, 113
1, 90771, Note_off_c, 0, 87, 63
1, 90785, Control_c, 0, 64, 116
1, 90793, Note_off_c, 0, 57, 56
1, 90800, Control_c, 0, 64, 120
1, 90808, Note_on_c, 0, 88, 64
1, 90814, Control_c, 0, 64, 126
1, 90829, Control_c, 0, 64, 127
1, 90849, Note_off_c, 0, 53, 41
1, 90849, Note_off_c, 0, 88, 58
1, 90873, Note_on_c, 0, 89, 63
1, 90904, Note_off_c, 0, 89, 65
1, 90927, Note_on_c, 0, 90, 59
1, 90952, Note_off_c, 0, 90, 58
1, 90994, Note_on_c, 0, 91, 63
1, 91021, Note_off_c, 0, 91, 61
1, 91057, Note_on_c, 0, 92, 63
1, 91118, Note_off_c, 0, 92, 60
1, 91131, Note_on_c, 0, 93, 64
1, 91162, Note_off_c, 0, 93, 61
1, 91398, Note_on_c, 0, 93, 50
1, 91406, Note_on_c, 0, 95, 54
1, 91415, Note_on_c, 0, 43, 39
1, 91418, Note_on_c, 0, 55, 29
1, 91422, Control_c, 0, 64, 118
1, 91430, Note_off_c, 0, 95, 54
1, 91436, Control_c, 0, 64, 101
1, 91459, Control_c, 0, 64, 83
1, 91474, Control_c, 0, 64, 64
1, 91489, Control_c, 0, 64, 0
1, 91577, Control_c, 0, 64, 56
1, 91592, Control_c, 0, 64, 74
1, 91607, Control_c, 0, 64, 87
1, 91622, Control_c, 0, 64, 103
1, 91636, Control_c, 0, 64, 117
1, 91651, Control_c, 0, 64, 126
1, 91652, Note_off_c, 0, 55, 54
1, 91654, Note_off_c, 0, 43, 38
1, 91666, Control_c, 0, 64, 127
1, 91724, Note_off_c, 0, 93, 62
1, 91992, Note_on_c, 0, 64, 36
1, 91999, Note_on_c, 0, 60, 31
1, 92008, Note_on_c, 0, 55, 29
1, 92238, Note_off_c, 0, 60, 36
1, 92243, Note_off_c, 0, 64, 40
1, 92252, Note_off_c, 0, 55, 36
1, 92298, Note_on_c, 0, 72, 56
1, 92398, Note_off_c, 0, 72, 58
1, 92533, Note_on_c, 0, 72, 60
1, 92551, Note_on_c, 0, 64, 36
1, 92553, Note_on_c, 0, 60, 36
1, 92556, Note_on_c, 0, 55, 32
1, 92564, Control_c, 0, 64, 104
1, 92578, Control_c, 0, 64, 83
1, 92593, Control_c, 0, 64, 65
1, 92607, Note_off_c, 0, 72, 62
1, 92608, Control_c, 0, 64, 0
1, 92632, Note_on_c, 0, 74, 59
1, 92638, Control_c, 0, 64, 41
1, 92652, Control_c, 0, 64, 66
1, 92664, Note_off_c, 0, 74, 63
1, 92667, Control_c, 0, 64, 76
1, 92683, Control_c, 0, 64, 87
1, 92697, Note_on_c, 0, 72, 61
1, 92698, Control_c, 0, 64, 98
1, 92713, Control_c, 0, 64, 106
1, 92727, Control_c, 0, 64, 112
1, 92732, Note_off_c, 0, 72, 65
1, 92742, Control_c, 0, 64, 117
1, 92757, Note_on_c, 0, 74, 55
1, 92757, Control_c, 0, 64, 122
1, 92760, Note_off_c, 0, 60, 54
1, 92772, Control_c, 0, 64, 127
1, 92780, Note_off_c, 0, 74, 65
1, 92781, Note_off_c, 0, 64, 42
1, 92800, Note_off_c, 0, 55, 40
1, 92808, Note_on_c, 0, 72, 56
1, 92842, Note_off_c, 0, 72, 65
1, 92849, Note_on_c, 0, 74, 72
1, 92877, Note_off_c, 0, 74, 61
1, 92917, Note_on_c, 0, 72, 64
1, 92946, Note_off_c, 0, 72, 67
1, 92974, Note_on_c, 0, 74, 58
1, 92987, Note_on_c, 0, 55, 28
1, 92989, Note_on_c, 0, 60, 39
1, 92992, Note_on_c, 0, 64, 40
1, 92993, Note_off_c, 0, 74, 66
1, 93020, Note_on_c, 0, 72, 53
1, 93043, Note_off_c, 0, 72, 64
1, 93057, Note_on_c, 0, 74, 71
1, 93093, Note_off_c, 0, 74, 52
1, 93122, Note_on_c, 0, 72, 70
1, 93173, Note_off_c, 0, 64, 38
1, 93180, Note_off_c, 0, 72, 59
1, 93196, Note_on_c, 0, 71, 64
1, 93200, Note_off_c, 0, 55, 37
1, 93203, Note_off_c, 0, 60, 37
1, 93268, Note_off_c, 0, 71, 59
1, 93277, Note_on_c, 0, 72, 68
1, 93555, Note_on_c, 0, 81, 65
1, 93558, Note_off_c, 0, 72, 36
1, 93564, Note_on_c, 0, 65, 37
1, 93573, Note_on_c, 0, 59, 32
1, 93586, Note_on_c, 0, 55, 32
1, 93595, Control_c, 0, 64, 113
1, 93610, Control_c, 0, 64, 96
1, 93624, Control_c, 0, 64, 79
1, 93639, Control_c, 0, 64, 60
1, 93654, Control_c, 0, 64, 0
1, 93736, Control_c, 0, 64, 63
1, 93750, Control_c, 0, 64, 74
1, 93765, Control_c, 0, 64, 87
1, 93780, Control_c, 0, 64, 102
1, 93795, Control_c, 0, 64, 118
1, 93810, Control_c, 0, 64, 127
1, 93846, Note_off_c, 0, 65, 40
1, 93853, Note_off_c, 0, 55, 41
1, 93856, Note_off_c, 0, 59, 39
1, 93968, Note_on_c, 0, 79, 65
1, 93972, Control_c, 0, 67, 126
1, 93987, Control_c, 0, 67, 121
1, 94002, Control_c, 0, 67, 115
1, 94017, Control_c, 0, 67, 106
1, 94032, Control_c, 0, 67, 96
1, 94043, Note_off_c, 0, 81, 35
1, 94047, Control_c, 0, 67, 88
1, 94062, Control_c, 0, 67, 81
1, 94077, Control_c, 0, 67, 76
1, 94092, Control_c, 0, 67, 73
1, 94106, Control_c, 0, 67, 70
1, 94121, Control_c, 0, 67, 68
1, 94136, Control_c, 0, 67, 64
1, 94140, Note_on_c, 0, 78, 66
1, 94150, Control_c, 0, 67, 61
1, 94163, Note_on_c, 0, 65, 30
1, 94165, Note_on_c, 0, 59, 25
1, 94165, Control_c, 0, 67, 59
1, 94166, Note_on_c, 0, 55, 28
1, 94180, Control_c, 0, 67, 58
1, 94187, Note_off_c, 0, 79, 52
1, 94195, Control_c, 0, 67, 57
1, 94210, Control_c, 0, 67, 57
1, 94269, Control_c, 0, 67, 56
1, 94299, Note_on_c, 0, 77, 69
1, 94315, Note_off_c, 0, 78, 56
1, 94321, Note_off_c, 0, 65, 49
1, 94335, Note_off_c, 0, 59, 41
1, 94392, Note_off_c, 0, 55, 41
1, 94414, Note_off_c, 0, 77, 59
1, 94434, Note_on_c, 0, 74, 62
1, 94477, Note_off_c, 0, 74, 62
1, 94718, Note_on_c, 0, 74, 53
1, 94720, Control_c, 0, 67, 57
1, 94730, Note_on_c, 0, 65, 43
1, 94750, Control_c, 0, 67, 57
1, 94754, Note_on_c, 0, 55, 29
1, 94756, Note_on_c, 0, 59, 29
1, 94756, Note_on_c, 0, 71, 43
1, 94765, Control_c, 0, 67, 58
1, 94779, Control_c, 0, 67, 59
1, 94794, Control_c, 0, 67, 60
1, 94809, Control_c, 0, 67, 61
1, 94824, Control_c, 0, 64, 107
1, 94824, Control_c, 0, 67, 62
1, 94839, Control_c, 0, 64, 86
1, 94839, Control_c, 0, 67, 62
1, 94853, Control_c, 0, 64, 68
1, 94853, Control_c, 0, 67, 63
1, 94868, Control_c, 0, 64, 0
1, 94868, Control_c, 0, 67, 63
1, 94912, Control_c, 0, 67, 64
1, 94927, Control_c, 0, 64, 54
1, 94942, Control_c, 0, 64, 74
1, 94942, Control_c, 0, 67, 63
1, 94957, Control_c, 0, 64, 86
1, 94971, Control_c, 0, 64, 101
1, 94971, Control_c, 0, 67, 62
1, 94986, Control_c, 0, 64, 111
1, 94986, Control_c, 0, 67, 62
1, 95001, Control_c, 0, 64, 117
1, 95001, Control_c, 0, 67, 61
1, 95016, Control_c, 0, 64, 124
1, 95028, Note_off_c, 0, 55, 41
1, 95031, Control_c, 0, 64, 127
1, 95037, Note_off_c, 0, 59, 38
1, 95365, Control_c, 0, 67, 62
1, 95377, Note_on_c, 0, 55, 24
1, 95377, Note_on_c, 0, 59, 22
1, 95491, Note_off_c, 0, 74, 55
1, 95517, Note_off_c, 0, 59, 39
1, 95523, Note_on_c, 0, 76, 51
1, 95538, Note_off_c, 0, 55, 41
1, 95632, Control_c, 0, 67, 62
1, 95636, Note_off_c, 0, 76, 58
1, 95680, Note_on_c, 0, 74, 44
1, 95726, Note_off_c, 0, 71, 28
1, 95824, Note_off_c, 0, 74, 51
1, 95833, Note_on_c, 0, 72, 46
1, 95858, Note_off_c, 0, 65, 39
1, 95861, Note_off_c, 0, 72, 58
1, 96114, Control_c, 0, 67, 63
1, 96130, Control_c, 0, 67, 63
1, 96146, Note_on_c, 0, 67, 36
1, 96148, Note_on_c, 0, 72, 34
1, 96152, Note_on_c, 0, 64, 28
1, 96159, Control_c, 0, 67, 64
1, 96161, Note_on_c, 0, 60, 25
1, 96166, Note_on_c, 0, 48, 31
1, 96174, Control_c, 0, 67, 64
1, 96189, Control_c, 0, 67, 65
1, 96204, Control_c, 0, 67, 67
1, 96219, Control_c, 0, 64, 117
1, 96219, Control_c, 0, 67, 70
1, 96233, Control_c, 0, 64, 103
1, 96233, Control_c, 0, 67, 78
1, 96248, Control_c, 0, 64, 91
1, 96248, Control_c, 0, 67, 90
1, 96263, Control_c, 0, 64, 79
1, 96263, Control_c, 0, 67, 106
1, 96278, Control_c, 0, 64, 66
1, 96278, Control_c, 0, 67, 120
1, 96293, Control_c, 0, 64, 23
1, 96293, Control_c, 0, 67, 127
1, 96307, Control_c, 0, 64, 0
1, 96911, Note_off_c, 0, 67, 30
1, 96986, Note_off_c, 0, 60, 31
1, 97008, Note_off_c, 0, 48, 41
1, 97024, Note_off_c, 0, 64, 28
1, 97075, Note_off_c, 0, 72, 32
1, 98360, Control_c, 0, 64, 49
1, 98375, Control_c, 0, 64, 66
1, 98390, Control_c, 0, 64, 73
1, 98392, Note_on_c, 0, 48, 37
1, 98399, Note_on_c, 0, 51, 33
1, 98399, Note_on_c, 0, 55, 33
1, 98405, Control_c, 0, 64, 79
1, 98420, Control_c, 0, 64, 86
1, 98435, Control_c, 0, 64, 92
1, 98450, Control_c, 0, 64, 96
1, 98465, Control_c, 0, 64, 100
1, 98480, Control_c, 0, 64, 103
1, 98494, Control_c, 0, 64, 105
1, 98494, Note_off_c, 0, 51, 56
1, 98509, Control_c, 0, 64, 106
1, 98524, Control_c, 0, 64, 107
1, 98534, Note_off_c, 0, 48, 35
1, 98536, Note_off_c, 0, 55, 35
1, 98553, Control_c, 0, 64, 108
1, 98568, Control_c, 0, 64, 109
1, 98583, Control_c, 0, 64, 110
1, 98598, Control_c, 0, 64, 111
1, 98670, Note_on_c, 0, 55, 39
1, 98672, Note_on_c, 0, 51, 38
1, 98682, Note_on_c, 0, 48, 34
1, 98727, Note_off_c, 0, 48, 60
1, 98727, Note_off_c, 0, 55, 63
1, 98731, Note_off_c, 0, 51, 56
1, 98775, Control_c, 0, 64, 110
1, 98790, Control_c, 0, 64, 107
1, 98805, Control_c, 0, 64, 100
1, 98819, Control_c, 0, 64, 92
1, 98834, Control_c, 0, 64, 83
1, 98849, Control_c, 0, 64, 74
1, 98864, Control_c, 0, 64, 63
1, 98879, Control_c, 0, 64, 0
1, 99063, Note_on_c, 0, 55, 41
1, 99067, Note_on_c, 0, 51, 40
1, 99072, Note_on_c, 0, 48, 39
1, 99129, Note_off_c, 0, 51, 53
1, 99132, Note_off_c, 0, 55, 57
1, 99133, Note_off_c, 0, 48, 57
1, 99199, Control_c, 0, 64, 60
1, 99214, Control_c, 0, 64, 68
1, 99229, Control_c, 0, 64, 75
1, 99243, Control_c, 0, 64, 82
1, 99258, Control_c, 0, 64, 87
1, 99273, Control_c, 0, 64, 90
1, 99280, Note_on_c, 0, 55, 41
1, 99283, Note_on_c, 0, 48, 41
1, 99284, Note_on_c, 0, 51, 48
1, 99288, Control_c, 0, 64, 92
1, 99302, Control_c, 0, 64, 94
1, 99317, Control_c, 0, 64, 95
1, 99332, Control_c, 0, 64, 96
1, 99338, Note_off_c, 0, 51, 59
1, 99340, Note_off_c, 0, 55, 60
1, 99342, Note_off_c, 0, 48, 60
1, 99347, Control_c, 0, 64, 97
1, 99481, Note_on_c, 0, 55, 42
1, 99485, Note_on_c, 0, 51, 41
1, 99487, Note_on_c, 0, 48, 33
1, 99512, Note_off_c, 0, 55, 53
1, 99517, Note_off_c, 0, 51, 59
1, 99531, Note_off_c, 0, 48, 49
1, 99629, Control_c, 0, 64, 95
1, 99643, Control_c, 0, 64, 93
1, 99658, Control_c, 0, 64, 90
1, 99673, Control_c, 0, 64, 86
1, 99693, Note_on_c, 0, 63, 56
1, 99695, Control_c, 0, 64, 82
1, 99710, Control_c, 0, 64, 78
1, 99725, Control_c, 0, 64, 72
1, 99740, Control_c, 0, 64, 66
1, 99755, Control_c, 0, 64, 59
1, 99769, Control_c, 0, 64, 48
1, 99814, Control_c, 0, 64, 44
1, 99829, Control_c, 0, 64, 32
1, 99843, Control_c, 0, 64, 0
1, 99869, Note_on_c, 0, 51, 41
1, 99869, Note_on_c, 0, 55, 39
1, 99871, Note_on_c, 0, 48, 36
1, 99915, Note_off_c, 0, 51, 59
1, 99919, Note_off_c, 0, 55, 53
1, 99932, Note_off_c, 0, 48, 43
1, 100065, Note_on_c, 0, 62, 63
1, 100068, Note_on_c, 0, 51, 41
1, 100074, Note_on_c, 0, 48, 30
1, 100077, Note_on_c, 0, 55, 20
1, 100081, Control_c, 0, 64, 37
1, 100087, Note_off_c, 0, 63, 58
1, 100096, Control_c, 0, 64, 65
1, 100111, Control_c, 0, 64, 71
1, 100121, Note_off_c, 0, 51, 57
1, 100125, Control_c, 0, 64, 75
1, 100128, Note_off_c, 0, 55, 46
1, 100137, Note_off_c, 0, 48, 42
1, 100140, Control_c, 0, 64, 78
1, 100155, Control_c, 0, 64, 81
1, 100170, Control_c, 0, 64, 83
1, 100185, Control_c, 0, 64, 85
1, 100200, Control_c, 0, 64, 86
1, 100214, Control_c, 0, 64, 86
1, 100259, Note_on_c, 0, 51, 43
1, 100259, Note_on_c, 0, 55, 35
1, 100274, Note_on_c, 0, 48, 37
1, 100307, Note_off_c, 0, 51, 58
1, 100307, Note_off_c, 0, 55, 46
1, 100313, Note_off_c, 0, 48, 49
1, 100392, Control_c, 0, 64, 86
1, 100407, Control_c, 0, 64, 84
1, 100422, Control_c, 0, 64, 82
1, 100444, Control_c, 0, 64, 79
1, 100452, Note_on_c, 0, 60, 55
1, 100459, Control_c, 0, 64, 76
1, 100471, Note_off_c, 0, 62, 36
1, 100474, Control_c, 0, 64, 72
1, 100489, Control_c, 0, 64, 66
1, 100504, Control_c, 0, 64, 57
1, 100518, Control_c, 0, 64, 26
1, 100533, Control_c, 0, 64, 0
1, 100537, Note_off_c, 0, 60, 58
1, 100611, Note_on_c, 0, 55, 43
1, 100617, Note_on_c, 0, 51, 44
1, 100623, Note_on_c, 0, 48, 37
1, 100667, Note_off_c, 0, 55, 62
1, 100683, Note_off_c, 0, 51, 56
1, 100690, Note_off_c, 0, 48, 52
1, 100771, Control_c, 0, 64, 60
1, 100786, Control_c, 0, 64, 66
1, 100801, Control_c, 0, 64, 70
1, 100815, Control_c, 0, 64, 73
1, 100830, Control_c, 0, 64, 76
1, 100835, Note_on_c, 0, 48, 46
1, 100838, Note_on_c, 0, 56, 54
1, 100845, Control_c, 0, 64, 78
1, 100847, Note_on_c, 0, 53, 46
1, 100860, Control_c, 0, 64, 81
1, 100875, Control_c, 0, 64, 83
1, 100889, Control_c, 0, 64, 83
1, 100892, Note_off_c, 0, 56, 56
1, 100902, Note_off_c, 0, 53, 56
1, 100921, Note_off_c, 0, 48, 49
1, 100934, Control_c, 0, 64, 84
1, 100948, Control_c, 0, 64, 84
1, 100963, Control_c, 0, 64, 85
1, 101060, Note_on_c, 0, 53, 46
1, 101064, Note_on_c, 0, 56, 43
1, 101065, Note_on_c, 0, 48, 46
1, 101103, Note_off_c, 0, 56, 49
1, 101107, Note_off_c, 0, 53, 63
1, 101107, Note_off_c, 0, 48, 52
1, 101171, Control_c, 0, 64, 84
1, 101193, Control_c, 0, 64, 82
1, 101208, Control_c, 0, 64, 79
1, 101222, Control_c, 0, 64, 75
1, 101237, Control_c, 0, 64, 71
1, 101252, Control_c, 0, 64, 65
1, 101267, Control_c, 0, 64, 56
1, 101282, Control_c, 0, 64, 28
1, 101296, Control_c, 0, 64, 0
1, 101431, Note_on_c, 0, 56, 46
1, 101431, Note_on_c, 0, 48, 46
1, 101442, Note_on_c, 0, 53, 44
1, 101493, Note_off_c, 0, 48, 59
1, 101493, Note_off_c, 0, 56, 59
1, 101494, Note_off_c, 0, 53, 61
1, 101519, Control_c, 0, 64, 21
1, 101534, Control_c, 0, 64, 62
1, 101549, Control_c, 0, 64, 67
1, 101563, Control_c, 0, 64, 70
1, 101578, Control_c, 0, 64, 73
1, 101593, Control_c, 0, 64, 76
1, 101608, Control_c, 0, 64, 79
1, 101623, Control_c, 0, 64, 81
1, 101626, Note_on_c, 0, 56, 52
1, 101631, Note_on_c, 0, 48, 47
1, 101634, Note_on_c, 0, 53, 47
1, 101637, Control_c, 0, 64, 83
1, 101652, Control_c, 0, 64, 83
1, 101667, Control_c, 0, 64, 84
1, 101670, Note_off_c, 0, 56, 48
1, 101676, Note_off_c, 0, 53, 63
1, 101682, Note_off_c, 0, 48, 52
1, 101803, Note_on_c, 0, 56, 40
1, 101806, Note_on_c, 0, 53, 44
1, 101815, Note_on_c, 0, 48, 39
1, 101840, Note_off_c, 0, 53, 52
1, 101842, Note_off_c, 0, 56, 48
1, 101851, Note_off_c, 0, 48, 51
1, 101956, Control_c, 0, 64, 83
1, 101970, Control_c, 0, 64, 83
1, 101985, Control_c, 0, 64, 82
1, 102000, Control_c, 0, 64, 82
1, 102014, Note_on_c, 0, 68, 67
1, 102015, Control_c, 0, 64, 81
1, 102030, Control_c, 0, 64, 79
1, 102045, Control_c, 0, 64, 77
1, 102060, Control_c, 0, 64, 75
1, 102075, Control_c, 0, 64, 72
1, 102089, Control_c, 0, 64, 70
1, 102104, Control_c, 0, 64, 67
1, 102119, Control_c, 0, 64, 61
1, 102134, Control_c, 0, 64, 39
1, 102149, Control_c, 0, 64, 0
1, 102163, Note_on_c, 0, 56, 42
1, 102164, Note_on_c, 0, 48, 43
1, 102172, Note_on_c, 0, 53, 43
1, 102212, Note_off_c, 0, 56, 50
1, 102221, Note_off_c, 0, 53, 62
1, 102222, Note_off_c, 0, 48, 58
1, 102367, Note_on_c, 0, 67, 72
1, 102370, Note_on_c, 0, 48, 48
1, 102382, Note_on_c, 0, 56, 31
1, 102386, Note_on_c, 0, 53, 36
1, 102387, Control_c, 0, 64, 43
1, 102402, Control_c, 0, 64, 65
1, 102403, Note_off_c, 0, 68, 60
1, 102417, Control_c, 0, 64, 68
1, 102429, Note_off_c, 0, 56, 46
1, 102432, Control_c, 0, 64, 70
1, 102435, Note_off_c, 0, 48, 59
1, 102442, Note_off_c, 0, 53, 45
1, 102447, Control_c, 0, 64, 72
1, 102461, Control_c, 0, 64, 74
1, 102476, Control_c, 0, 64, 76
1, 102491, Control_c, 0, 64, 77
1, 102506, Control_c, 0, 64, 78
1, 102520, Control_c, 0, 64, 78
1, 102563, Note_on_c, 0, 53, 50
1, 102563, Note_on_c, 0, 56, 40
1, 102581, Note_on_c, 0, 48, 42
1, 102602, Note_off_c, 0, 56, 48
1, 102611, Note_off_c, 0, 53, 59
1, 102625, Note_off_c, 0, 48, 47
1, 102691, Control_c, 0, 64, 78
1, 102706, Control_c, 0, 64, 77
1, 102720, Control_c, 0, 64, 76
1, 102735, Control_c, 0, 64, 75
1, 102748, Note_on_c, 0, 65, 62
1, 102750, Control_c, 0, 64, 73
1, 102757, Note_off_c, 0, 67, 29
1, 102765, Control_c, 0, 64, 70
1, 102780, Control_c, 0, 64, 68
1, 102794, Control_c, 0, 64, 65
1, 102809, Control_c, 0, 64, 63
1, 102824, Control_c, 0, 64, 60
1, 102829, Note_off_c, 0, 65, 60
1, 102839, Control_c, 0, 64, 56
1, 102854, Control_c, 0, 64, 53
1, 102868, Control_c, 0, 64, 52
1, 102883, Control_c, 0, 64, 49
1, 102897, Note_on_c, 0, 48, 48
1, 102898, Control_c, 0, 64, 42
1, 102912, Control_c, 0, 64, 0
1, 102915, Note_on_c, 0, 53, 45
1, 102916, Note_on_c, 0, 56, 38
1, 102956, Note_off_c, 0, 56, 62
1, 102960, Note_off_c, 0, 53, 62
1, 102965, Note_off_c, 0, 48, 61
1, 103108, Note_on_c, 0, 53, 32
1, 103109, Note_on_c, 0, 47, 45
1, 103114, Note_on_c, 0, 55, 44
1, 103121, Control_c, 0, 64, 63
1, 103123, Note_on_c, 0, 50, 33
1, 103136, Control_c, 0, 64, 69
1, 103151, Control_c, 0, 64, 72
1, 103153, Note_off_c, 0, 55, 56
1, 103158, Note_off_c, 0, 53, 62
1, 103166, Control_c, 0, 64, 76
1, 103166, Note_off_c, 0, 47, 59
1, 103169, Note_off_c, 0, 50, 48
1, 103180, Control_c, 0, 64, 78
1, 103195, Control_c, 0, 64, 81
1, 103210, Control_c, 0, 64, 83
1, 103225, Control_c, 0, 64, 85
1, 103240, Control_c, 0, 64, 87
1, 103255, Control_c, 0, 64, 88
1, 103270, Control_c, 0, 64, 90
1, 103284, Control_c, 0, 64, 91
1, 103285, Note_on_c, 0, 55, 37
1, 103287, Note_on_c, 0, 53, 42
1, 103294, Note_on_c, 0, 47, 44
1, 103295, Note_on_c, 0, 50, 33
1, 103314, Control_c, 0, 64, 91
1, 103316, Note_off_c, 0, 55, 55
1, 103319, Note_off_c, 0, 53, 56
1, 103329, Note_off_c, 0, 47, 54
1, 103329, Note_off_c, 0, 50, 54
1, 103484, Note_on_c, 0, 74, 71
1, 103642, Note_on_c, 0, 55, 34
1, 103644, Note_on_c, 0, 47, 42
1, 103661, Note_on_c, 0, 50, 31
1, 103665, Note_on_c, 0, 53, 16
1, 103677, Note_off_c, 0, 55, 52
1, 103699, Note_off_c, 0, 50, 50
1, 103705, Note_off_c, 0, 47, 43
1, 103712, Note_off_c, 0, 53, 41
1, 103809, Control_c, 0, 64, 90
1, 103824, Control_c, 0, 64, 84
1, 103836, Note_on_c, 0, 77, 75
1, 103839, Control_c, 0, 64, 72
1, 103846, Note_on_c, 0, 53, 42
1, 103849, Note_on_c, 0, 47, 36
1, 103855, Control_c, 0, 64, 45
1, 103857, Note_on_c, 0, 55, 42
1, 103859, Note_off_c, 0, 74, 50
1, 103868, Note_on_c, 0, 50, 28
1, 103870, Control_c, 0, 64, 0
1, 103906, Note_off_c, 0, 53, 60
1, 103913, Note_off_c, 0, 50, 48
1, 103914, Note_off_c, 0, 55, 44
1, 103914, Control_c, 0, 64, 43
1, 103921, Note_off_c, 0, 47, 51
1, 103929, Control_c, 0, 64, 66
1, 103944, Control_c, 0, 64, 71
1, 103958, Control_c, 0, 64, 76
1, 103973, Control_c, 0, 64, 80
1, 103988, Control_c, 0, 64, 83
1, 104003, Control_c, 0, 64, 86
1, 104015, Note_on_c, 0, 55, 54
1, 104018, Control_c, 0, 64, 87
1, 104026, Note_on_c, 0, 47, 39
1, 104031, Note_on_c, 0, 53, 46
1, 104033, Note_on_c, 0, 50, 41
1, 104033, Control_c, 0, 64, 88
1, 104048, Control_c, 0, 64, 89
1, 104055, Note_off_c, 0, 55, 48
1, 104066, Note_off_c, 0, 53, 55
1, 104082, Note_off_c, 0, 50, 45
1, 104087, Note_off_c, 0, 47, 52
1, 104093, Control_c, 0, 64, 89
1, 104122, Control_c, 0, 64, 90
1, 104227, Note_on_c, 0, 65, 77
1, 104231, Note_off_c, 0, 77, 38
1, 104369, Note_on_c, 0, 55, 48
1, 104370, Note_on_c, 0, 47, 49
1, 104383, Note_on_c, 0, 53, 46
1, 104394, Note_on_c, 0, 50, 38
1, 104412, Note_off_c, 0, 55, 47
1, 104418, Note_off_c, 0, 53, 57
1, 104427, Note_off_c, 0, 50, 52
1, 104432, Note_off_c, 0, 47, 56
1, 104589, Control_c, 0, 64, 89
1, 104604, Control_c, 0, 64, 84
1, 104606, Note_on_c, 0, 68, 74
1, 104619, Control_c, 0, 64, 74
1, 104628, Note_on_c, 0, 47, 37
1, 104629, Note_off_c, 0, 65, 55
1, 104631, Note_on_c, 0, 53, 39
1, 104633, Control_c, 0, 64, 55
1, 104636, Note_on_c, 0, 50, 26
1, 104648, Control_c, 0, 64, 0
1, 104674, Note_off_c, 0, 53, 47
1, 104685, Note_off_c, 0, 50, 45
1, 104701, Note_off_c, 0, 47, 41
1, 104723, Control_c, 0, 64, 60
1, 104738, Control_c, 0, 64, 69
1, 104753, Control_c, 0, 64, 73
1, 104768, Control_c, 0, 64, 76
1, 104782, Control_c, 0, 64, 78
1, 104797, Control_c, 0, 64, 79
1, 104802, Note_on_c, 0, 53, 46
1, 104808, Note_on_c, 0, 47, 45
1, 104809, Note_on_c, 0, 50, 42
1, 104812, Control_c, 0, 64, 80
1, 104827, Control_c, 0, 64, 81
1, 104843, Note_off_c, 0, 53, 48
1, 104847, Note_off_c, 0, 50, 50
1, 104871, Control_c, 0, 64, 82
1, 104878, Note_off_c, 0, 47, 39
1, 105130, Note_on_c, 0, 47, 43
1, 105136, Note_on_c, 0, 67, 69
1, 105158, Note_on_c, 0, 53, 25
1, 105161, Note_on_c, 0, 50, 24
1, 105172, Note_off_c, 0, 47, 48
1, 105172, Note_off_c, 0, 68, 58
1, 105190, Note_off_c, 0, 53, 52
1, 105197, Note_off_c, 0, 50, 44
1, 105308, Control_c, 0, 64, 81
1, 105322, Control_c, 0, 64, 78
1, 105323, Note_off_c, 0, 67, 59
1, 105329, Note_on_c, 0, 65, 72
1, 105336, Note_on_c, 0, 51, 44
1, 105337, Control_c, 0, 64, 70
1, 105345, Note_on_c, 0, 48, 40
1, 105352, Control_c, 0, 64, 38
1, 105367, Control_c, 0, 64, 0
1, 105384, Note_off_c, 0, 51, 48
1, 105392, Note_off_c, 0, 48, 45
1, 105440, Control_c, 0, 64, 60
1, 105457, Control_c, 0, 64, 68
1, 105472, Control_c, 0, 64, 70
1, 105486, Control_c, 0, 64, 72
1, 105501, Control_c, 0, 64, 72
1, 105515, Note_on_c, 0, 51, 43
1, 105516, Control_c, 0, 64, 73
1, 105520, Note_on_c, 0, 48, 38
1, 105530, Control_c, 0, 64, 74
1, 105545, Control_c, 0, 64, 75
1, 105564, Note_off_c, 0, 51, 56
1, 105565, Note_off_c, 0, 48, 45
1, 105667, Note_off_c, 0, 65, 61
1, 105674, Note_on_c, 0, 63, 58
1, 105753, Note_off_c, 0, 63, 60
1, 105849, Control_c, 0, 64, 73
1, 105863, Note_on_c, 0, 51, 39
1, 105864, Note_on_c, 0, 48, 40
1, 105864, Control_c, 0, 64, 69
1, 105869, Note_on_c, 0, 55, 38
1, 105879, Control_c, 0, 64, 61
1, 105894, Control_c, 0, 64, 0
1, 105909, Note_off_c, 0, 51, 60
1, 105913, Note_off_c, 0, 55, 48
1, 105920, Note_off_c, 0, 48, 52
1, 106012, Control_c, 0, 64, 28
1, 106027, Control_c, 0, 64, 64
1, 106042, Control_c, 0, 64, 68
1, 106057, Control_c, 0, 64, 70
1, 106058, Note_on_c, 0, 48, 40
1, 106060, Note_on_c, 0, 55, 29
1, 106062, Note_on_c, 0, 51, 43
1, 106072, Control_c, 0, 64, 72
1, 106087, Control_c, 0, 64, 74
1, 106102, Control_c, 0, 64, 76
1, 106104, Note_off_c, 0, 55, 49
1, 106105, Note_off_c, 0, 51, 61
1, 106113, Note_off_c, 0, 48, 45
1, 106117, Control_c, 0, 64, 78
1, 106131, Control_c, 0, 64, 80
1, 106146, Control_c, 0, 64, 81
1, 106161, Control_c, 0, 64, 82
1, 106206, Control_c, 0, 64, 83
1, 106220, Control_c, 0, 64, 83
1, 106224, Note_on_c, 0, 48, 51
1, 106227, Note_on_c, 0, 51, 50
1, 106227, Note_on_c, 0, 55, 45
1, 106235, Control_c, 0, 64, 84
1, 106250, Control_c, 0, 64, 84
1, 106267, Note_off_c, 0, 51, 62
1, 106268, Note_off_c, 0, 55, 50
1, 106271, Note_off_c, 0, 48, 56
1, 106280, Control_c, 0, 64, 85
1, 106310, Control_c, 0, 64, 85
1, 106439, Note_on_c, 0, 63, 73
1, 106603, Note_on_c, 0, 55, 50
1, 106606, Note_on_c, 0, 48, 48
1, 106612, Note_on_c, 0, 51, 48
1, 106643, Note_off_c, 0, 51, 54
1, 106647, Note_off_c, 0, 55, 49
1, 106659, Note_off_c, 0, 48, 53
1, 106732, Control_c, 0, 64, 85
1, 106747, Control_c, 0, 64, 81
1, 106761, Control_c, 0, 64, 73
1, 106776, Control_c, 0, 64, 60
1, 106783, Note_on_c, 0, 67, 80
1, 106790, Note_on_c, 0, 48, 44
1, 106791, Control_c, 0, 64, 0
1, 106793, Note_on_c, 0, 55, 40
1, 106794, Note_on_c, 0, 51, 41
1, 106820, Note_off_c, 0, 63, 60
1, 106832, Note_off_c, 0, 55, 50
1, 106840, Note_off_c, 0, 48, 60
1, 106841, Note_off_c, 0, 51, 59
1, 106880, Control_c, 0, 64, 65
1, 106895, Control_c, 0, 64, 75
1, 106910, Control_c, 0, 64, 83
1, 106924, Control_c, 0, 64, 89
1, 106939, Control_c, 0, 64, 93
1, 106954, Control_c, 0, 64, 97
1, 106957, Note_on_c, 0, 48, 50
1, 106958, Note_on_c, 0, 55, 47
1, 106959, Note_on_c, 0, 51, 50
1, 106969, Control_c, 0, 64, 101
1, 106984, Control_c, 0, 64, 104
1, 106999, Control_c, 0, 64, 110
1, 107003, Note_off_c, 0, 55, 51
1, 107011, Note_off_c, 0, 48, 57
1, 107011, Note_off_c, 0, 51, 58
1, 107014, Control_c, 0, 64, 116
1, 107029, Control_c, 0, 64, 122
1, 107043, Control_c, 0, 64, 127
1, 107059, Control_c, 0, 67, 120
1, 107073, Control_c, 0, 67, 107
1, 107088, Control_c, 0, 67, 93
1, 107103, Control_c, 0, 67, 77
1, 107118, Control_c, 0, 67, 62
1, 107133, Control_c, 0, 67, 47
1, 107144, Note_on_c, 0, 72, 81
1, 107148, Control_c, 0, 67, 32
1, 107163, Control_c, 0, 67, 20
1, 107166, Note_off_c, 0, 67, 58
1, 107184, Control_c, 0, 67, 10
1, 107199, Control_c, 0, 67, 0
1, 107306, Note_on_c, 0, 51, 50
1, 107307, Note_on_c, 0, 55, 47
1, 107322, Note_on_c, 0, 48, 31
1, 107333, Note_off_c, 0, 51, 61
1, 107338, Note_off_c, 0, 55, 52
1, 107363, Note_off_c, 0, 48, 42
1, 107568, Control_c, 0, 64, 118
1, 107574, Note_on_c, 0, 51, 47
1, 107574, Note_on_c, 0, 75, 77
1, 107583, Note_on_c, 0, 43, 46
1, 107583, Control_c, 0, 64, 96
1, 107592, Note_on_c, 0, 46, 50
1, 107598, Control_c, 0, 64, 77
1, 107605, Note_off_c, 0, 72, 54
1, 107613, Control_c, 0, 64, 32
1, 107627, Control_c, 0, 64, 0
1, 107664, Note_off_c, 0, 51, 59
1, 107666, Note_off_c, 0, 46, 57
1, 107685, Note_off_c, 0, 43, 55
1, 107701, Control_c, 0, 64, 66
1, 107716, Control_c, 0, 64, 77
1, 107731, Control_c, 0, 64, 89
1, 107746, Control_c, 0, 64, 99
1, 107761, Control_c, 0, 64, 107
1, 107775, Control_c, 0, 64, 112
1, 107789, Note_on_c, 0, 43, 11
1, 107789, Note_on_c, 0, 51, 40
1, 107790, Note_on_c, 0, 46, 47
1, 107790, Control_c, 0, 64, 115
1, 107805, Control_c, 0, 64, 119
1, 107819, Note_off_c, 0, 51, 49
1, 107820, Control_c, 0, 64, 124
1, 107824, Note_off_c, 0, 46, 51
1, 107834, Control_c, 0, 64, 127
1, 107854, Note_off_c, 0, 43, 40
1, 107870, Note_off_c, 0, 75, 58
1, 108111, Note_on_c, 0, 62, 65
1, 108111, Note_on_c, 0, 46, 50
1, 108114, Note_on_c, 0, 51, 44
1, 108119, Note_on_c, 0, 43, 39
1, 108147, Note_off_c, 0, 51, 51
1, 108153, Note_off_c, 0, 46, 59
1, 108169, Note_off_c, 0, 43, 44
1, 108291, Note_off_c, 0, 62, 54
1, 108302, Control_c, 0, 64, 111
1, 108308, Note_on_c, 0, 63, 71
1, 108315, Note_on_c, 0, 51, 48
1, 108317, Note_on_c, 0, 46, 48
1, 108317, Control_c, 0, 64, 91
1, 108320, Note_on_c, 0, 43, 38
1, 108331, Control_c, 0, 64, 67
1, 108346, Control_c, 0, 64, 0
1, 108350, Note_off_c, 0, 51, 55
1, 108355, Note_off_c, 0, 46, 57
1, 108368, Note_off_c, 0, 43, 45
1, 108406, Control_c, 0, 64, 64
1, 108421, Control_c, 0, 64, 76
1, 108436, Control_c, 0, 64, 86
1, 108450, Control_c, 0, 64, 94
1, 108465, Control_c, 0, 64, 98
1, 108480, Control_c, 0, 64, 100
1, 108480, Note_on_c, 0, 51, 51
1, 108486, Note_on_c, 0, 43, 50
1, 108487, Note_on_c, 0, 46, 50
1, 108495, Control_c, 0, 64, 103
1, 108510, Control_c, 0, 64, 106
1, 108512, Note_off_c, 0, 51, 63
1, 108522, Note_off_c, 0, 46, 62
1, 108524, Control_c, 0, 64, 109
1, 108534, Note_off_c, 0, 43, 57
1, 108539, Control_c, 0, 64, 111
1, 108554, Control_c, 0, 64, 112
1, 108598, Control_c, 0, 64, 112
1, 108606, Poly_aftertouch_c, 0, 62, 0
1, 108613, Control_c, 0, 64, 113
1, 108628, Control_c, 0, 64, 114
1, 108643, Control_c, 0, 64, 114
1, 108695, Note_off_c, 0, 63, 50
1, 108695, Control_c, 0, 64, 115
1, 108796, Note_on_c, 0, 46, 54
1, 108804, Note_on_c, 0, 43, 42
1, 108814, Control_c, 0, 64, 115
1, 108829, Note_off_c, 0, 46, 61
1, 108847, Note_off_c, 0, 43, 46
1, 108859, Control_c, 0, 64, 116
1, 108868, Note_on_c, 0, 51, 66
1, 108904, Control_c, 0, 64, 116
1, 108934, Control_c, 0, 64, 117
1, 108948, Control_c, 0, 64, 118
1, 108951, Note_off_c, 0, 51, 53
1, 108993, Control_c, 0, 64, 117
1, 109008, Note_on_c, 0, 49, 66
1, 109008, Control_c, 0, 64, 102
1, 109011, Note_on_c, 0, 46, 67
1, 109022, Note_on_c, 0, 43, 52
1, 109023, Control_c, 0, 64, 83
1, 109037, Control_c, 0, 64, 62
1, 109043, Note_off_c, 0, 49, 62
1, 109052, Control_c, 0, 64, 0
1, 109058, Note_on_c, 0, 51, 61
1, 109065, Note_off_c, 0, 46, 52
1, 109070, Note_off_c, 0, 43, 57
1, 109093, Note_off_c, 0, 51, 62
1, 109096, Control_c, 0, 64, 54
1, 109111, Control_c, 0, 64, 73
1, 109117, Note_on_c, 0, 49, 56
1, 109126, Control_c, 0, 64, 84
1, 109140, Note_off_c, 0, 49, 57
1, 109141, Control_c, 0, 64, 98
1, 109145, Note_on_c, 0, 51, 54
1, 109155, Control_c, 0, 64, 107
1, 109170, Control_c, 0, 64, 111
1, 109175, Note_off_c, 0, 51, 64
1, 109185, Control_c, 0, 64, 113
1, 109193, Note_on_c, 0, 49, 61
1, 109200, Control_c, 0, 64, 115
1, 109207, Note_on_c, 0, 46, 61
1, 109215, Control_c, 0, 64, 117
1, 109227, Note_off_c, 0, 49, 62
1, 109229, Control_c, 0, 64, 118
1, 109231, Note_on_c, 0, 43, 32
1, 109240, Note_on_c, 0, 51, 70
1, 109243, Note_off_c, 0, 46, 59
1, 109244, Control_c, 0, 64, 118
1, 109259, Control_c, 0, 64, 119
1, 109270, Note_off_c, 0, 51, 66
1, 109273, Note_off_c, 0, 43, 49
1, 109292, Note_on_c, 0, 49, 66
1, 109318, Control_c, 0, 64, 119
1, 109324, Note_off_c, 0, 49, 60
1, 109339, Note_on_c, 0, 51, 66
1, 109348, Control_c, 0, 64, 120
1, 109360, Note_off_c, 0, 51, 64
1, 109378, Control_c, 0, 64, 120
1, 109384, Note_on_c, 0, 49, 54
1, 109393, Control_c, 0, 64, 121
1, 109403, Note_off_c, 0, 49, 61
1, 109407, Control_c, 0, 64, 121
1, 109429, Note_on_c, 0, 51, 72
1, 109429, Control_c, 0, 64, 122
1, 109479, Note_off_c, 0, 51, 41
1, 109485, Note_on_c, 0, 49, 62
1, 109565, Note_off_c, 0, 49, 60
1, 109582, Note_on_c, 0, 48, 63
1, 109588, Note_on_c, 0, 43, 37
1, 109590, Note_on_c, 0, 46, 29
1, 109627, Note_off_c, 0, 43, 46
1, 109631, Note_off_c, 0, 46, 50
1, 109652, Note_on_c, 0, 49, 72
1, 109657, Note_off_c, 0, 48, 55
1, 109801, Control_c, 0, 64, 121
1, 109815, Note_off_c, 0, 49, 60
1, 109816, Control_c, 0, 64, 108
1, 109820, Note_on_c, 0, 32, 67
1, 109831, Control_c, 0, 64, 90
1, 109841, Note_on_c, 0, 48, 70
1, 109846, Control_c, 0, 64, 69
1, 109860, Control_c, 0, 64, 0
1, 109919, Control_c, 0, 64, 67
1, 109934, Control_c, 0, 64, 78
1, 109949, Control_c, 0, 64, 91
1, 109964, Control_c, 0, 64, 102
1, 109978, Control_c, 0, 64, 107
1, 109993, Control_c, 0, 64, 109
1, 110008, Control_c, 0, 64, 111
1, 110022, Control_c, 0, 64, 113
1, 110026, Note_on_c, 0, 44, 71
1, 110037, Control_c, 0, 64, 115
1, 110052, Control_c, 0, 64, 116
1, 110067, Control_c, 0, 64, 116
1, 110082, Control_c, 0, 64, 117
1, 110116, Note_off_c, 0, 48, 60
1, 110128, Note_off_c, 0, 32, 59
1, 110129, Note_on_c, 0, 51, 63
1, 110156, Control_c, 0, 64, 117
1, 110176, Note_off_c, 0, 51, 63
1, 110178, Control_c, 0, 64, 118
1, 110186, Note_on_c, 0, 56, 63
1, 110193, Control_c, 0, 64, 119
1, 110199, Note_off_c, 0, 44, 62
1, 110208, Control_c, 0, 64, 120
1, 110212, Note_off_c, 0, 56, 65
1, 110237, Control_c, 0, 64, 120
1, 110269, Control_c, 0, 64, 121
1, 110285, Note_on_c, 0, 60, 69
1, 110327, Control_c, 0, 64, 121
1, 110331, Note_off_c, 0, 60, 55
1, 110342, Control_c, 0, 64, 122
1, 110355, Note_on_c, 0, 63, 67
1, 110357, Control_c, 0, 64, 124
1, 110372, Control_c, 0, 64, 127
1, 110388, Note_off_c, 0, 63, 65
1, 110454, Note_on_c, 0, 48, 56
1, 110459, Note_on_c, 0, 44, 48
1, 110490, Note_on_c, 0, 72, 72
1, 110504, Note_off_c, 0, 48, 57
1, 110511, Note_off_c, 0, 44, 56
1, 110539, Note_off_c, 0, 72, 43
1, 110557, Note_on_c, 0, 75, 73
1, 110597, Poly_aftertouch_c, 0, 74, 0
1, 110615, Note_on_c, 0, 80, 77
1, 110624, Note_off_c, 0, 75, 63
1, 110711, Note_off_c, 0, 80, 62
1, 110727, Control_c, 0, 64, 109
1, 110735, Note_on_c, 0, 84, 85
1, 110742, Control_c, 0, 64, 88
1, 110757, Control_c, 0, 64, 66
1, 110763, Note_on_c, 0, 51, 37
1, 110769, Note_on_c, 0, 48, 40
1, 110772, Control_c, 0, 64, 0
1, 110790, Note_on_c, 0, 44, 21
1, 110844, Note_off_c, 0, 51, 58
1, 110857, Note_off_c, 0, 44, 58
1, 110857, Note_off_c, 0, 48, 56
1, 110860, Control_c, 0, 64, 33
1, 110875, Control_c, 0, 64, 66
1, 110890, Control_c, 0, 64, 73
1, 110905, Control_c, 0, 64, 81
1, 110927, Control_c, 0, 64, 88
1, 110942, Control_c, 0, 64, 92
1, 110957, Control_c, 0, 64, 94
1, 110972, Control_c, 0, 64, 96
1, 110987, Control_c, 0, 64, 96
1, 110989, Note_on_c, 0, 51, 41
1, 110990, Note_on_c, 0, 44, 44
1, 110996, Note_on_c, 0, 48, 52
1, 111001, Control_c, 0, 64, 97
1, 111019, Note_off_c, 0, 51, 47
1, 111023, Note_off_c, 0, 44, 60
1, 111025, Note_off_c, 0, 48, 66
1, 111106, Control_c, 0, 64, 98
1, 111121, Control_c, 0, 64, 99
1, 111136, Control_c, 0, 64, 100
1, 111150, Control_c, 0, 64, 101
1, 111165, Control_c, 0, 64, 103
1, 111180, Control_c, 0, 64, 104
1, 111195, Control_c, 0, 64, 104
1, 111210, Control_c, 0, 64, 105
1, 111224, Control_c, 0, 64, 106
1, 111239, Control_c, 0, 64, 107
1, 111254, Control_c, 0, 64, 108
1, 111269, Control_c, 0, 64, 109
1, 111283, Control_c, 0, 64, 111
1, 111298, Control_c, 0, 64, 112
1, 111313, Control_c, 0, 64, 113
1, 111328, Control_c, 0, 64, 115
1, 111343, Control_c, 0, 64, 116
1, 111357, Control_c, 0, 64, 118
1, 111372, Control_c, 0, 64, 121
1, 111375, Note_on_c, 0, 51, 44
1, 111387, Note_on_c, 0, 44, 39
1, 111387, Control_c, 0, 64, 127
1, 111398, Note_on_c, 0, 48, 32
1, 111402, Control_c, 0, 64, 127
1, 111419, Note_off_c, 0, 51, 60
1, 111434, Note_off_c, 0, 44, 59
1, 111438, Note_off_c, 0, 48, 52
1, 111607, Note_on_c, 0, 44, 37
1, 111608, Note_on_c, 0, 51, 35
1, 111612, Note_on_c, 0, 48, 36
1, 111646, Note_off_c, 0, 51, 44
1, 111651, Note_off_c, 0, 48, 48
1, 111652, Note_off_c, 0, 44, 58
1, 111829, Note_on_c, 0, 51, 31
1, 111836, Note_on_c, 0, 44, 29
1, 111843, Note_on_c, 0, 48, 29
1, 111875, Note_off_c, 0, 84, 59
1, 111880, Note_off_c, 0, 51, 45
1, 111883, Note_off_c, 0, 44, 54
1, 111893, Note_off_c, 0, 48, 46
1, 112185, Note_on_c, 0, 51, 51
1, 112195, Note_on_c, 0, 44, 47
1, 112213, Note_on_c, 0, 48, 30
1, 112225, Note_off_c, 0, 51, 58
1, 112239, Note_off_c, 0, 44, 62
1, 112250, Note_off_c, 0, 48, 52
1, 112484, Note_on_c, 0, 82, 86
1, 112512, Note_on_c, 0, 52, 53
1, 112513, Note_on_c, 0, 46, 52
1, 112513, Control_c, 0, 64, 100
1, 112523, Note_on_c, 0, 43, 41
1, 112523, Note_on_c, 0, 49, 43
1, 112528, Control_c, 0, 64, 77
1, 112543, Control_c, 0, 64, 0
1, 112570, Note_off_c, 0, 52, 56
1, 112573, Control_c, 0, 64, 30
1, 112573, Note_off_c, 0, 46, 55
1, 112573, Note_off_c, 0, 49, 43
1, 112587, Control_c, 0, 64, 68
1, 112603, Control_c, 0, 64, 79
1, 112618, Control_c, 0, 64, 93
1, 112632, Control_c, 0, 64, 108
1, 112648, Control_c, 0, 64, 127
1, 112654, Note_off_c, 0, 43, 32
1, 112716, Note_on_c, 0, 46, 53
1, 112720, Note_on_c, 0, 52, 50
1, 112721, Note_on_c, 0, 49, 48
1, 112726, Note_on_c, 0, 43, 32
1, 112755, Note_off_c, 0, 52, 51
1, 112765, Note_off_c, 0, 46, 56
1, 112768, Note_off_c, 0, 49, 56
1, 112779, Note_off_c, 0, 43, 53
1, 113064, Note_on_c, 0, 43, 43
1, 113069, Note_on_c, 0, 46, 44
1, 113074, Note_on_c, 0, 52, 39
1, 113100, Note_off_c, 0, 43, 49
1, 113100, Note_off_c, 0, 52, 56
1, 113106, Note_off_c, 0, 46, 45
1, 113205, Note_off_c, 0, 82, 29
1, 113287, Note_on_c, 0, 49, 51
1, 113290, Note_on_c, 0, 80, 82
1, 113302, Note_on_c, 0, 46, 51
1, 113307, Control_c, 0, 64, 122
1, 113309, Note_on_c, 0, 55, 47
1, 113317, Note_on_c, 0, 52, 30
1, 113322, Control_c, 0, 64, 89
1, 113337, Control_c, 0, 64, 69
1, 113352, Control_c, 0, 64, 50
1, 113357, Note_off_c, 0, 55, 60
1, 113366, Note_off_c, 0, 52, 62
1, 113367, Control_c, 0, 64, 60
1, 113381, Note_off_c, 0, 49, 57
1, 113382, Control_c, 0, 64, 69
1, 113387, Note_off_c, 0, 46, 54
1, 113396, Control_c, 0, 64, 79
1, 113411, Control_c, 0, 64, 99
1, 113426, Control_c, 0, 64, 122
1, 113441, Control_c, 0, 64, 127
1, 113488, Note_on_c, 0, 55, 53
1, 113494, Note_on_c, 0, 52, 44
1, 113506, Note_on_c, 0, 46, 51
1, 113530, Note_on_c, 0, 49, 31
1, 113531, Note_off_c, 0, 55, 49
1, 113549, Note_off_c, 0, 52, 55
1, 113560, Note_off_c, 0, 46, 53
1, 113572, Note_off_c, 0, 49, 46
1, 113660, Note_on_c, 0, 79, 85
1, 113725, Note_off_c, 0, 80, 48
1, 113821, Note_on_c, 0, 55, 46
1, 113824, Note_on_c, 0, 46, 47
1, 113850, Note_off_c, 0, 55, 55
1, 113863, Note_off_c, 0, 46, 44
1, 113898, Note_off_c, 0, 79, 53
1, 113899, Poly_aftertouch_c, 0, 49, 0
1, 113905, Note_on_c, 0, 77, 74
1, 113962, Note_off_c, 0, 77, 61
1, 114031, Note_on_c, 0, 77, 84
1, 114049, Note_on_c, 0, 52, 50
1, 114055, Note_on_c, 0, 55, 30
1, 114057, Note_on_c, 0, 61, 54
1, 114062, Note_on_c, 0, 58, 47
1, 114071, Control_c, 0, 64, 108
1, 114086, Control_c, 0, 64, 81
1, 114101, Control_c, 0, 64, 59
1, 114116, Control_c, 0, 64, 0
1, 114130, Note_off_c, 0, 61, 56
1, 114143, Note_off_c, 0, 58, 41
1, 114151, Note_off_c, 0, 52, 50
1, 114160, Control_c, 0, 64, 62
1, 114175, Control_c, 0, 64, 77
1, 114180, Note_off_c, 0, 55, 37
1, 114190, Control_c, 0, 64, 92
1, 114204, Control_c, 0, 64, 110
1, 114219, Control_c, 0, 64, 127
1, 114234, Control_c, 0, 64, 127
1, 114243, Note_on_c, 0, 61, 59
1, 114249, Note_on_c, 0, 52, 38
1, 114266, Note_on_c, 0, 55, 35
1, 114275, Note_off_c, 0, 61, 58
1, 114281, Note_on_c, 0, 58, 37
1, 114298, Note_off_c, 0, 52, 49
1, 114311, Note_off_c, 0, 55, 46
1, 114315, Note_off_c, 0, 58, 51
1, 114411, Note_on_c, 0, 76, 84
1, 114444, Note_off_c, 0, 77, 56
1, 114579, Note_on_c, 0, 61, 38
1, 114580, Note_on_c, 0, 58, 54
1, 114601, Note_on_c, 0, 55, 28
1, 114603, Note_on_c, 0, 52, 31
1, 114603, Note_off_c, 0, 58, 64
1, 114608, Note_off_c, 0, 61, 50
1, 114636, Note_off_c, 0, 52, 44
1, 114642, Note_off_c, 0, 55, 53
1, 114657, Note_on_c, 0, 73, 74
1, 114678, Note_off_c, 0, 76, 58
1, 114725, Note_off_c, 0, 73, 59
1, 114820, Control_c, 0, 64, 100
1, 114833, Note_on_c, 0, 41, 56
1, 114835, Control_c, 0, 64, 73
1, 114842, Note_on_c, 0, 73, 71
1, 114850, Control_c, 0, 64, 0
1, 114915, Note_off_c, 0, 41, 64
1, 114924, Control_c, 0, 64, 66
1, 114939, Control_c, 0, 64, 78
1, 114954, Control_c, 0, 64, 92
1, 114968, Control_c, 0, 64, 104
1, 114983, Control_c, 0, 64, 112
1, 114998, Control_c, 0, 64, 118
1, 115013, Control_c, 0, 64, 122
1, 115027, Control_c, 0, 64, 127
1, 115078, Note_off_c, 0, 73, 58
1, 115086, Note_on_c, 0, 72, 60
1, 115090, Note_on_c, 0, 56, 41
1, 115090, Note_on_c, 0, 60, 36
1, 115124, Note_on_c, 0, 53, 17
1, 115139, Note_off_c, 0, 60, 44
1, 115153, Note_off_c, 0, 56, 54
1, 115160, Note_off_c, 0, 72, 61
1, 115167, Note_off_c, 0, 53, 52
1, 115221, Control_c, 0, 64, 125
1, 115236, Control_c, 0, 64, 112
1, 115250, Control_c, 0, 64, 101
1, 115264, Note_on_c, 0, 60, 51
1, 115265, Control_c, 0, 64, 92
1, 115270, Note_on_c, 0, 53, 51
1, 115275, Note_on_c, 0, 56, 57
1, 115280, Control_c, 0, 64, 84
1, 115286, Note_off_c, 0, 60, 62
1, 115295, Control_c, 0, 64, 76
1, 115310, Control_c, 0, 64, 68
1, 115314, Note_off_c, 0, 56, 63
1, 115319, Note_off_c, 0, 53, 62
1, 115325, Control_c, 0, 64, 48
1, 115340, Control_c, 0, 64, 0
1, 115437, Note_on_c, 0, 71, 57
1, 115620, Note_on_c, 0, 41, 51
1, 115629, Control_c, 0, 64, 63
1, 115630, Note_on_c, 0, 73, 62
1, 115636, Note_off_c, 0, 71, 55
1, 115643, Control_c, 0, 64, 73
1, 115658, Control_c, 0, 64, 83
1, 115660, Note_off_c, 0, 41, 65
1, 115673, Control_c, 0, 64, 93
1, 115688, Control_c, 0, 64, 102
1, 115703, Control_c, 0, 64, 113
1, 115717, Control_c, 0, 64, 121
1, 115732, Control_c, 0, 64, 127
1, 115807, Note_on_c, 0, 72, 70
1, 115812, Note_off_c, 0, 73, 56
1, 115828, Note_on_c, 0, 60, 47
1, 115836, Note_on_c, 0, 56, 46
1, 115843, Note_off_c, 0, 72, 59
1, 115858, Note_on_c, 0, 53, 21
1, 115858, Note_off_c, 0, 60, 53
1, 115882, Note_off_c, 0, 56, 57
1, 115897, Note_off_c, 0, 53, 51
1, 115987, Note_on_c, 0, 56, 61
1, 115990, Note_on_c, 0, 60, 47
1, 115993, Note_on_c, 0, 53, 56
1, 116014, Note_off_c, 0, 60, 58
1, 116027, Note_off_c, 0, 56, 61
1, 116033, Note_off_c, 0, 53, 63
1, 116147, Control_c, 0, 64, 110
1, 116151, Note_on_c, 0, 76, 78
1, 116170, Control_c, 0, 64, 96
1, 116185, Control_c, 0, 64, 80
1, 116200, Control_c, 0, 64, 67
1, 116215, Control_c, 0, 64, 0
1, 116338, Note_on_c, 0, 41, 68
1, 116347, Note_on_c, 0, 79, 84
1, 116365, Note_off_c, 0, 76, 61
1, 116377, Control_c, 0, 64, 46
1, 116382, Note_off_c, 0, 41, 66
1, 116392, Control_c, 0, 64, 68
1, 116407, Control_c, 0, 64, 77
1, 116422, Control_c, 0, 64, 87
1, 116437, Control_c, 0, 64, 98
1, 116451, Control_c, 0, 64, 109
1, 116466, Control_c, 0, 64, 121
1, 116481, Control_c, 0, 64, 127
1, 116514, Note_on_c, 0, 77, 80
1, 116520, Note_off_c, 0, 79, 61
1, 116535, Note_on_c, 0, 60, 58
1, 116538, Note_on_c, 0, 53, 53
1, 116539, Note_on_c, 0, 56, 54
1, 116555, Note_off_c, 0, 77, 58
1, 116578, Note_off_c, 0, 60, 57
1, 116587, Note_off_c, 0, 53, 58
1, 116589, Note_off_c, 0, 56, 56
1, 116701, Note_on_c, 0, 56, 69
1, 116702, Note_on_c, 0, 60, 63
1, 116702, Note_on_c, 0, 53, 64
1, 116727, Note_off_c, 0, 60, 69
1, 116758, Note_off_c, 0, 56, 61
1, 116769, Note_off_c, 0, 53, 62
1, 116848, Note_on_c, 0, 77, 88
1, 117067, Control_c, 0, 64, 116
1, 117082, Control_c, 0, 64, 89
1, 117095, Note_on_c, 0, 80, 85
1, 117096, Control_c, 0, 64, 64
1, 117111, Control_c, 0, 64, 0
1, 117117, Note_on_c, 0, 48, 55
1, 117119, Note_on_c, 0, 36, 60
1, 117122, Note_off_c, 0, 77, 59
1, 117167, Note_off_c, 0, 36, 63
1, 117170, Control_c, 0, 64, 25
1, 117185, Control_c, 0, 64, 69
1, 117187, Note_off_c, 0, 48, 66
1, 117200, Control_c, 0, 64, 82
1, 117215, Control_c, 0, 64, 101
1, 117229, Control_c, 0, 64, 127
1, 117355, Note_on_c, 0, 56, 49
1, 117369, Note_on_c, 0, 51, 48
1, 117371, Note_on_c, 0, 48, 35
1, 117372, Note_on_c, 0, 54, 47
1, 117411, Note_off_c, 0, 48, 62
1, 117412, Note_off_c, 0, 56, 48
1, 117417, Note_off_c, 0, 54, 57
1, 117430, Note_off_c, 0, 51, 58
1, 117519, Note_on_c, 0, 48, 50
1, 117520, Note_off_c, 0, 80, 57
1, 117522, Note_on_c, 0, 56, 64
1, 117522, Note_on_c, 0, 54, 54
1, 117530, Note_on_c, 0, 51, 50
1, 117540, Note_on_c, 0, 78, 56
1, 117602, Note_on_c, 0, 75, 62
1, 117603, Note_off_c, 0, 78, 61
1, 117604, Note_off_c, 0, 56, 56
1, 117635, Note_off_c, 0, 75, 66
1, 117672, Note_off_c, 0, 54, 58
1, 117674, Note_on_c, 0, 72, 53
1, 117693, Note_off_c, 0, 72, 62
1, 117714, Note_off_c, 0, 51, 51
1, 117717, Note_off_c, 0, 48, 54
1, 117752, Note_on_c, 0, 68, 68
1, 117824, Note_on_c, 0, 66, 66
1, 117824, Note_off_c, 0, 68, 61
1, 117879, Note_off_c, 0, 66, 65
1, 117885, Note_on_c, 0, 63, 65
1, 117912, Note_off_c, 0, 63, 67
1, 117965, Note_on_c, 0, 60, 10
1, 118009, Note_off_c, 0, 60, 28
1, 118019, Note_on_c, 0, 56, 69
1, 118094, Note_off_c, 0, 56, 61
1, 118097, Note_on_c, 0, 54, 69
1, 118097, Control_c, 0, 64, 103
1, 118112, Control_c, 0, 64, 80
1, 118115, Note_on_c, 0, 48, 53
1, 118116, Note_on_c, 0, 36, 53
1, 118127, Control_c, 0, 64, 43
1, 118142, Control_c, 0, 64, 0
1, 118162, Note_off_c, 0, 36, 64
1, 118186, Note_off_c, 0, 48, 57
1, 118201, Control_c, 0, 64, 65
1, 118216, Control_c, 0, 64, 75
1, 118231, Control_c, 0, 64, 85
1, 118246, Control_c, 0, 64, 96
1, 118261, Control_c, 0, 64, 104
1, 118272, Note_off_c, 0, 54, 61
1, 118276, Control_c, 0, 64, 111
1, 118291, Control_c, 0, 64, 120
1, 118306, Control_c, 0, 64, 127
1, 118349, Note_on_c, 0, 51, 53
1, 118360, Note_on_c, 0, 48, 34
1, 118395, Note_off_c, 0, 51, 57
1, 118422, Note_off_c, 0, 48, 45
1, 118522, Note_on_c, 0, 51, 50
1, 118532, Note_on_c, 0, 48, 45
1, 118547, Note_off_c, 0, 51, 62
1, 118566, Note_off_c, 0, 48, 52
1, 118610, Control_c, 0, 64, 117
1, 118624, Control_c, 0, 64, 109
1, 118639, Control_c, 0, 64, 99
1, 118654, Control_c, 0, 64, 89
1, 118669, Control_c, 0, 64, 77
1, 118681, Note_on_c, 0, 71, 62
1, 118684, Control_c, 0, 64, 66
1, 118699, Control_c, 0, 64, 24
1, 118714, Control_c, 0, 64, 0
1, 118886, Note_on_c, 0, 73, 67
1, 118887, Note_on_c, 0, 48, 46
1, 118893, Note_on_c, 0, 36, 46
1, 118906, Control_c, 0, 64, 10
1, 118912, Note_off_c, 0, 71, 52
1, 118920, Note_off_c, 0, 48, 63
1, 118921, Control_c, 0, 64, 65
1, 118926, Note_off_c, 0, 36, 62
1, 118935, Control_c, 0, 64, 74
1, 118950, Control_c, 0, 64, 85
1, 118965, Control_c, 0, 64, 95
1, 118980, Control_c, 0, 64, 103
1, 118994, Control_c, 0, 64, 110
1, 119009, Control_c, 0, 64, 116
1, 119024, Control_c, 0, 64, 122
1, 119040, Control_c, 0, 64, 127
1, 119087, Note_on_c, 0, 72, 67
1, 119109, Note_on_c, 0, 56, 36
1, 119113, Note_on_c, 0, 51, 41
1, 119114, Note_off_c, 0, 73, 48
1, 119116, Note_on_c, 0, 54, 40
1, 119117, Note_on_c, 0, 48, 26
1, 119130, Note_off_c, 0, 72, 60
1, 119146, Note_off_c, 0, 56, 49
1, 119149, Note_off_c, 0, 48, 56
1, 119155, Note_off_c, 0, 54, 54
1, 119164, Note_off_c, 0, 51, 59
1, 119268, Note_on_c, 0, 54, 58
1, 119270, Note_on_c, 0, 56, 50
1, 119271, Note_on_c, 0, 51, 53
1, 119276, Note_on_c, 0, 48, 41
1, 119296, Note_off_c, 0, 56, 57
1, 119303, Note_off_c, 0, 54, 61
1, 119322, Note_off_c, 0, 48, 65
1, 119324, Note_off_c, 0, 51, 58
1, 119418, Note_on_c, 0, 74, 73
1, 119608, Control_c, 0, 64, 117
1, 119623, Control_c, 0, 64, 90
1, 119635, Note_on_c, 0, 77, 79
1, 119638, Note_on_c, 0, 32, 63
1, 119638, Control_c, 0, 64, 68
1, 119641, Note_on_c, 0, 44, 58
1, 119653, Control_c, 0, 64, 0
1, 119660, Note_off_c, 0, 74, 48
1, 119666, Note_off_c, 0, 32, 64
1, 119695, Note_off_c, 0, 44, 63
1, 119727, Control_c, 0, 64, 63
1, 119742, Control_c, 0, 64, 74
1, 119757, Control_c, 0, 64, 85
1, 119772, Control_c, 0, 64, 98
1, 119787, Control_c, 0, 64, 108
1, 119802, Control_c, 0, 64, 117
1, 119816, Control_c, 0, 64, 124
1, 119832, Control_c, 0, 64, 127
1, 119839, Note_on_c, 0, 56, 64
1, 119841, Note_on_c, 0, 75, 69
1, 119845, Note_off_c, 0, 77, 54
1, 119852, Note_on_c, 0, 48, 48
1, 119852, Note_on_c, 0, 54, 57
1, 119879, Note_off_c, 0, 56, 52
1, 119887, Note_off_c, 0, 48, 57
1, 119892, Note_off_c, 0, 54, 57
1, 119931, Note_off_c, 0, 75, 56
1, 120014, Note_on_c, 0, 56, 63
1, 120023, Note_on_c, 0, 48, 41
1, 120023, Note_on_c, 0, 54, 56
1, 120032, Note_on_c, 0, 51, 55
1, 120040, Note_off_c, 0, 56, 65
1, 120061, Note_off_c, 0, 54, 58
1, 120093, Note_off_c, 0, 51, 58
1, 120100, Note_on_c, 0, 78, 64
1, 120105, Note_off_c, 0, 48, 39
1, 120147, Note_on_c, 0, 77, 63
1, 120175, Note_off_c, 0, 78, 59
1, 120194, Note_off_c, 0, 77, 58
1, 120199, Note_on_c, 0, 75, 70
1, 120231, Note_off_c, 0, 75, 63
1, 120241, Note_on_c, 0, 77, 59
1, 120294, Note_off_c, 0, 77, 60
1, 120343, Note_on_c, 0, 80, 84
1, 120358, Control_c, 0, 64, 97
1, 120361, Note_on_c, 0, 32, 66
1, 120366, Note_on_c, 0, 44, 65
1, 120373, Control_c, 0, 64, 75
1, 120387, Control_c, 0, 64, 0
1, 120395, Note_off_c, 0, 32, 67
1, 120420, Note_off_c, 0, 44, 62
1, 120446, Control_c, 0, 64, 63
1, 120461, Control_c, 0, 64, 75
1, 120476, Control_c, 0, 64, 88
1, 120491, Control_c, 0, 64, 107
1, 120505, Control_c, 0, 64, 119
1, 120520, Control_c, 0, 64, 127
1, 120557, Note_on_c, 0, 78, 76
1, 120566, Note_off_c, 0, 80, 54
1, 120582, Note_on_c, 0, 56, 51
1, 120590, Note_on_c, 0, 54, 50
1, 120594, Note_on_c, 0, 48, 40
1, 120609, Note_on_c, 0, 51, 39
1, 120612, Note_off_c, 0, 56, 52
1, 120618, Note_off_c, 0, 78, 59
1, 120636, Note_off_c, 0, 48, 51
1, 120636, Note_off_c, 0, 54, 57
1, 120645, Note_off_c, 0, 51, 55
1, 120744, Note_on_c, 0, 56, 56
1, 120747, Note_on_c, 0, 54, 60
1, 120750, Note_on_c, 0, 51, 60
1, 120754, Note_on_c, 0, 48, 47
1, 120775, Note_off_c, 0, 56, 64
1, 120787, Note_off_c, 0, 54, 61
1, 120803, Note_off_c, 0, 51, 59
1, 120806, Note_on_c, 0, 81, 71
1, 120807, Note_off_c, 0, 48, 64
1, 120847, Note_off_c, 0, 81, 57
1, 120863, Note_on_c, 0, 82, 64
1, 120930, Note_on_c, 0, 81, 64
1, 120951, Note_on_c, 0, 80, 79
1, 120962, Note_off_c, 0, 81, 63
1, 120963, Note_off_c, 0, 82, 60
1, 121015, Note_off_c, 0, 80, 63
1, 121018, Note_on_c, 0, 81, 78
1, 121064, Note_off_c, 0, 81, 63
1, 121077, Control_c, 0, 64, 102
1, 121092, Control_c, 0, 64, 79
1, 121100, Note_on_c, 0, 84, 85
1, 121107, Note_on_c, 0, 32, 65
1, 121107, Control_c, 0, 64, 13
1, 121111, Note_on_c, 0, 44, 57
1, 121122, Control_c, 0, 64, 0
1, 121143, Note_off_c, 0, 32, 67
1, 121166, Control_c, 0, 64, 64
1, 121173, Note_off_c, 0, 44, 63
1, 121180, Control_c, 0, 64, 77
1, 121195, Control_c, 0, 64, 90
1, 121210, Control_c, 0, 64, 106
1, 121225, Control_c, 0, 64, 117
1, 121240, Control_c, 0, 64, 127
1, 121330, Note_on_c, 0, 82, 81
1, 121336, Note_on_c, 0, 56, 55
1, 121361, Note_on_c, 0, 48, 41
1, 121365, Note_off_c, 0, 84, 63
1, 121367, Note_on_c, 0, 54, 33
1, 121369, Note_on_c, 0, 51, 40
1, 121389, Note_off_c, 0, 56, 39
1, 121414, Note_off_c, 0, 48, 60
1, 121427, Note_off_c, 0, 51, 56
1, 121439, Note_off_c, 0, 54, 40
1, 121519, Note_on_c, 0, 80, 82
1, 121531, Note_on_c, 0, 56, 51
1, 121541, Note_on_c, 0, 48, 43
1, 121544, Note_on_c, 0, 51, 51
1, 121544, Note_on_c, 0, 54, 56
1, 121554, Note_off_c, 0, 56, 59
1, 121574, Note_off_c, 0, 54, 63
1, 121586, Note_off_c, 0, 51, 60
1, 121590, Note_off_c, 0, 48, 65
1, 121599, Note_off_c, 0, 82, 34
1, 121674, Note_off_c, 0, 80, 53
1, 121697, Note_on_c, 0, 78, 83
1, 121848, Note_off_c, 0, 78, 61
1, 121908, Note_on_c, 0, 77, 77
1, 121913, Note_on_c, 0, 32, 61
1, 121915, Control_c, 0, 64, 92
1, 121916, Note_on_c, 0, 44, 54
1, 121930, Control_c, 0, 64, 70
1, 121945, Control_c, 0, 64, 0
1, 121981, Note_off_c, 0, 32, 63
1, 121984, Note_off_c, 0, 77, 62
1, 121989, Control_c, 0, 64, 68
1, 122004, Control_c, 0, 64, 78
1, 122007, Note_off_c, 0, 44, 63
1, 122018, Control_c, 0, 64, 92
1, 122033, Control_c, 0, 64, 103
1, 122048, Control_c, 0, 64, 111
1, 122063, Control_c, 0, 64, 117
1, 122077, Control_c, 0, 64, 124
1, 122092, Control_c, 0, 64, 127
1, 122143, Note_on_c, 0, 51, 76
1, 122158, Note_on_c, 0, 72, 73
1, 122159, Note_on_c, 0, 44, 56
1, 122159, Control_c, 0, 64, 109
1, 122174, Control_c, 0, 64, 99
1, 122189, Control_c, 0, 64, 98
1, 122204, Control_c, 0, 64, 101
1, 122218, Control_c, 0, 64, 114
1, 122234, Control_c, 0, 64, 127
1, 122246, Note_off_c, 0, 51, 56
1, 122261, Note_off_c, 0, 72, 60
1, 122305, Note_off_c, 0, 44, 35
1, 122368, Control_c, 0, 64, 97
1, 122379, Note_on_c, 0, 50, 72
1, 122381, Note_on_c, 0, 74, 80
1, 122382, Control_c, 0, 64, 80
1, 122387, Note_on_c, 0, 72, 76
1, 122392, Note_on_c, 0, 44, 46
1, 122397, Control_c, 0, 64, 71
1, 122412, Control_c, 0, 64, 74
1, 122427, Control_c, 0, 64, 81
1, 122441, Control_c, 0, 64, 92
1, 122456, Control_c, 0, 64, 104
1, 122471, Control_c, 0, 64, 114
1, 122478, Note_off_c, 0, 72, 55
1, 122486, Control_c, 0, 64, 123
1, 122501, Control_c, 0, 64, 127
1, 122506, Note_off_c, 0, 50, 60
1, 122508, Note_off_c, 0, 74, 57
1, 122560, Control_c, 0, 67, 8
1, 122562, Note_off_c, 0, 44, 0
1, 122575, Control_c, 0, 64, 100
1, 122575, Control_c, 0, 67, 8
1, 122577, Note_on_c, 0, 51, 78
1, 122577, Note_on_c, 0, 75, 83
1, 122580, Note_on_c, 0, 44, 25
1, 122583, Note_on_c, 0, 72, 84
1, 122589, Control_c, 0, 64, 81
1, 122604, Control_c, 0, 64, 73
1, 122619, Control_c, 0, 64, 76
1, 122619, Control_c, 0, 67, 8
1, 122634, Control_c, 0, 64, 84
1, 122634, Control_c, 0, 67, 0
1, 122635, Note_off_c, 0, 51, 56
1, 122649, Control_c, 0, 64, 97
1, 122664, Control_c, 0, 64, 113
1, 122671, Note_off_c, 0, 72, 55
1, 122679, Control_c, 0, 64, 127
1, 122696, Note_off_c, 0, 75, 61
1, 122749, Note_off_c, 0, 44, 0
1, 122768, Control_c, 0, 64, 99
1, 122768, Control_c, 0, 67, 8
1, 122772, Note_on_c, 0, 44, 18
1, 122781, Note_on_c, 0, 77, 90
1, 122782, Control_c, 0, 64, 75
1, 122782, Control_c, 0, 67, 8
1, 122787, Note_on_c, 0, 53, 72
1, 122789, Note_on_c, 0, 72, 81
1, 122794, Note_on_c, 0, 51, 60
1, 122797, Control_c, 0, 64, 57
1, 122804, Note_on_c, 0, 48, 57
1, 122827, Control_c, 0, 64, 68
1, 122841, Control_c, 0, 64, 79
1, 122841, Control_c, 0, 67, 8
1, 122856, Note_off_c, 0, 53, 61
1, 122856, Control_c, 0, 64, 94
1, 122856, Control_c, 0, 67, 0
1, 122871, Control_c, 0, 64, 110
1, 122884, Note_off_c, 0, 77, 53
1, 122886, Control_c, 0, 64, 119
1, 122890, Note_off_c, 0, 72, 57
1, 122896, Note_off_c, 0, 51, 58
1, 122901, Control_c, 0, 64, 127
1, 122931, Note_off_c, 0, 48, 55
1, 122938, Note_off_c, 0, 44, 40
1, 122982, Control_c, 0, 64, 113
1, 122982, Control_c, 0, 67, 8
1, 122997, Control_c, 0, 64, 92
1, 122997, Control_c, 0, 67, 9
1, 123002, Note_on_c, 0, 75, 82
1, 123002, Note_on_c, 0, 78, 82
1, 123003, Note_on_c, 0, 72, 86
1, 123009, Note_on_c, 0, 54, 74
1, 123012, Note_on_c, 0, 48, 49
1, 123012, Control_c, 0, 64, 76
1, 123012, Control_c, 0, 67, 9
1, 123015, Note_on_c, 0, 51, 64
1, 123019, Note_on_c, 0, 44, 50
1, 123027, Control_c, 0, 64, 68
1, 123042, Control_c, 0, 64, 72
1, 123055, Note_off_c, 0, 54, 56
1, 123057, Control_c, 0, 64, 82
1, 123057, Control_c, 0, 67, 9
1, 123070, Note_off_c, 0, 72, 56
1, 123072, Control_c, 0, 64, 97
1, 123072, Control_c, 0, 67, 8
1, 123087, Note_off_c, 0, 51, 51
1, 123087, Control_c, 0, 64, 110
1, 123087, Note_off_c, 0, 44, 53
1, 123095, Note_off_c, 0, 48, 59
1, 123096, Note_off_c, 0, 78, 58
1, 123102, Control_c, 0, 64, 123
1, 123105, Note_off_c, 0, 75, 57
1, 123117, Control_c, 0, 64, 127
1, 123117, Control_c, 0, 67, 8
1, 123161, Control_c, 0, 67, 8
1, 123176, Control_c, 0, 64, 112
1, 123191, Control_c, 0, 64, 91
1, 123191, Control_c, 0, 67, 9
1, 123192, Note_on_c, 0, 79, 85
1, 123194, Note_on_c, 0, 44, 58
1, 123194, Note_on_c, 0, 72, 82
1, 123197, Note_on_c, 0, 55, 73
1, 123197, Note_on_c, 0, 75, 82
1, 123203, Note_on_c, 0, 48, 65
1, 123205, Control_c, 0, 64, 73
1, 123205, Control_c, 0, 67, 9
1, 123207, Note_on_c, 0, 51, 63
1, 123220, Control_c, 0, 64, 65
1, 123235, Control_c, 0, 64, 69
1, 123250, Note_off_c, 0, 55, 63
1, 123250, Control_c, 0, 64, 78
1, 123257, Note_off_c, 0, 72, 60
1, 123264, Control_c, 0, 64, 95
1, 123264, Control_c, 0, 67, 9
1, 123271, Note_off_c, 0, 79, 59
1, 123279, Control_c, 0, 64, 109
1, 123279, Control_c, 0, 67, 8
1, 123294, Control_c, 0, 64, 121
1, 123294, Control_c, 0, 67, 8
1, 123296, Note_off_c, 0, 51, 49
1, 123302, Note_off_c, 0, 75, 55
1, 123309, Control_c, 0, 64, 127
1, 123316, Note_off_c, 0, 48, 56
1, 123338, Control_c, 0, 67, 8
1, 123353, Control_c, 0, 67, 9
1, 123367, Note_off_c, 0, 44, 0
1, 123368, Control_c, 0, 64, 102
1, 123368, Control_c, 0, 67, 9
1, 123382, Control_c, 0, 64, 82
1, 123382, Control_c, 0, 67, 10
1, 123384, Note_on_c, 0, 80, 83
1, 123386, Note_on_c, 0, 44, 16
1, 123386, Note_on_c, 0, 56, 79
1, 123388, Note_on_c, 0, 75, 77
1, 123389, Note_on_c, 0, 72, 79
1, 123394, Note_on_c, 0, 51, 59
1, 123397, Control_c, 0, 64, 67
1, 123400, Note_on_c, 0, 48, 26
1, 123412, Control_c, 0, 64, 65
1, 123412, Control_c, 0, 67, 11
1, 123417, Note_off_c, 0, 56, 63
1, 123427, Control_c, 0, 64, 74
1, 123427, Control_c, 0, 67, 10
1, 123430, Note_off_c, 0, 44, 62
1, 123436, Note_off_c, 0, 48, 55
1, 123439, Note_off_c, 0, 51, 59
1, 123442, Control_c, 0, 64, 89
1, 123442, Control_c, 0, 67, 9
1, 123453, Note_off_c, 0, 80, 63
1, 123457, Control_c, 0, 64, 112
1, 123457, Control_c, 0, 67, 9
1, 123462, Note_off_c, 0, 72, 53
1, 123465, Note_off_c, 0, 75, 62
1, 123471, Control_c, 0, 64, 127
1, 123471, Control_c, 0, 67, 8
1, 123486, Control_c, 0, 67, 8
1, 123498, Note_on_c, 0, 44, 72
1, 123501, Control_c, 0, 67, 0
1, 123554, Note_on_c, 0, 51, 67
1, 123563, Note_off_c, 0, 44, 63
1, 123583, Note_on_c, 0, 54, 70
1, 123590, Control_c, 0, 64, 101
1, 123605, Control_c, 0, 64, 77
1, 123620, Control_c, 0, 64, 0
1, 123635, Note_on_c, 0, 57, 74
1, 123635, Note_on_c, 0, 78, 78
1, 123637, Note_on_c, 0, 81, 89
1, 123638, Note_on_c, 0, 72, 88
1, 123638, Note_on_c, 0, 75, 77
1, 123671, Control_c, 0, 64, 64
1, 123686, Control_c, 0, 64, 79
1, 123695, Note_off_c, 0, 57, 63
1, 123701, Control_c, 0, 64, 97
1, 123706, Note_off_c, 0, 72, 63
1, 123716, Control_c, 0, 64, 120
1, 123725, Note_off_c, 0, 81, 60
1, 123729, Note_off_c, 0, 75, 64
1, 123731, Control_c, 0, 64, 127
1, 123735, Note_off_c, 0, 78, 62
1, 123737, Note_off_c, 0, 54, 58
1, 123788, Note_on_c, 0, 44, 65
1, 123826, Note_off_c, 0, 44, 63
1, 123870, Note_on_c, 0, 54, 66
1, 123910, Control_c, 0, 64, 103
1, 123922, Note_on_c, 0, 82, 94
1, 123924, Note_on_c, 0, 72, 90
1, 123925, Control_c, 0, 64, 77
1, 123928, Note_on_c, 0, 58, 82
1, 123930, Note_on_c, 0, 78, 80
1, 123930, Note_on_c, 0, 75, 81
1, 123939, Control_c, 0, 64, 53
1, 123954, Control_c, 0, 64, 43
1, 123969, Control_c, 0, 64, 67
1, 123977, Note_off_c, 0, 58, 62
1, 123984, Control_c, 0, 64, 79
1, 123988, Note_off_c, 0, 54, 57
1, 123989, Note_off_c, 0, 72, 61
1, 123999, Control_c, 0, 64, 96
1, 124010, Note_off_c, 0, 78, 58
1, 124011, Note_off_c, 0, 75, 60
1, 124013, Control_c, 0, 64, 117
1, 124028, Control_c, 0, 64, 127
1, 124029, Note_off_c, 0, 82, 59
1, 124083, Note_off_c, 0, 51, 0
1, 124091, Note_on_c, 0, 44, 58
1, 124120, Note_on_c, 0, 51, 25
1, 124120, Note_off_c, 0, 44, 65
1, 124166, Note_on_c, 0, 54, 61
1, 124205, Control_c, 0, 64, 98
1, 124218, Note_on_c, 0, 83, 90
1, 124219, Note_on_c, 0, 72, 93
1, 124220, Note_on_c, 0, 78, 87
1, 124220, Control_c, 0, 64, 74
1, 124222, Note_on_c, 0, 75, 86
1, 124234, Note_on_c, 0, 59, 81
1, 124235, Control_c, 0, 64, 58
1, 124235, Control_c, 0, 67, 8
1, 124250, Control_c, 0, 64, 63
1, 124265, Control_c, 0, 64, 73
1, 124276, Note_off_c, 0, 59, 55
1, 124279, Control_c, 0, 64, 88
1, 124294, Note_off_c, 0, 72, 60
1, 124294, Control_c, 0, 64, 109
1, 124294, Control_c, 0, 67, 0
1, 124309, Control_c, 0, 64, 127
1, 124317, Note_off_c, 0, 83, 57
1, 124319, Note_off_c, 0, 75, 59
1, 124326, Note_off_c, 0, 78, 61
1, 124342, Note_off_c, 0, 54, 58
1, 124394, Note_on_c, 0, 44, 62
1, 124428, Note_off_c, 0, 51, 0
1, 124428, Note_on_c, 0, 51, 13
1, 124430, Note_off_c, 0, 44, 65
1, 124479, Note_on_c, 0, 54, 63
1, 124539, Control_c, 0, 64, 110
1, 124551, Note_on_c, 0, 72, 90
1, 124552, Note_on_c, 0, 84, 89
1, 124554, Control_c, 0, 64, 85
1, 124555, Note_on_c, 0, 78, 85
1, 124555, Note_on_c, 0, 75, 79
1, 124566, Note_on_c, 0, 60, 84
1, 124568, Control_c, 0, 64, 62
1, 124583, Control_c, 0, 64, 0
1, 124593, Note_on_c, 0, 81, 33
1, 124628, Control_c, 0, 64, 67
1, 124637, Note_off_c, 0, 60, 57
1, 124643, Control_c, 0, 64, 82
1, 124646, Note_off_c, 0, 81, 38
1, 124658, Control_c, 0, 64, 103
1, 124661, Note_off_c, 0, 72, 51
1, 124673, Control_c, 0, 64, 127
1, 124697, Note_off_c, 0, 54, 59
1, 124708, Note_off_c, 0, 84, 62
1, 124720, Note_off_c, 0, 75, 63
1, 124730, Note_off_c, 0, 78, 62
1, 124731, Note_off_c, 0, 51, 54
1, 124792, Control_c, 0, 67, 8
1, 124807, Control_c, 0, 67, 8
1, 124851, Control_c, 0, 67, 0
1, 125111, Note_on_c, 0, 80, 78
1, 125115, Note_on_c, 0, 85, 88
1, 125116, Note_on_c, 0, 73, 91
1, 125117, Note_on_c, 0, 49, 87
1, 125120, Note_on_c, 0, 37, 75
1, 125122, Note_on_c, 0, 77, 83
1, 125132, Control_c, 0, 64, 106
1, 125155, Control_c, 0, 64, 79
1, 125170, Control_c, 0, 64, 0
1, 125243, Control_c, 0, 64, 69
1, 125255, Note_off_c, 0, 37, 65
1, 125258, Control_c, 0, 64, 82
1, 125273, Control_c, 0, 64, 106
1, 125288, Control_c, 0, 64, 127
1, 125290, Note_off_c, 0, 85, 64
1, 125293, Note_off_c, 0, 49, 61
1, 125302, Note_off_c, 0, 73, 59
1, 125315, Note_off_c, 0, 77, 58
1, 125323, Note_off_c, 0, 80, 64
1, 125561, Note_on_c, 0, 49, 45
1, 125561, Note_on_c, 0, 65, 57
1, 125563, Note_on_c, 0, 53, 42
1, 125563, Note_on_c, 0, 61, 36
1, 125582, Note_on_c, 0, 56, 38
1, 125594, Note_off_c, 0, 65, 65
1, 125601, Note_off_c, 0, 61, 49
1, 125611, Note_off_c, 0, 49, 56
1, 125635, Note_off_c, 0, 53, 54
1, 125636, Note_off_c, 0, 56, 44
1, 125764, Note_on_c, 0, 68, 67
1, 125770, Note_on_c, 0, 65, 53
1, 125776, Note_on_c, 0, 61, 54
1, 125779, Note_on_c, 0, 56, 48
1, 125782, Note_on_c, 0, 49, 47
1, 125789, Note_off_c, 0, 65, 64
1, 125793, Note_off_c, 0, 68, 65
1, 125798, Note_off_c, 0, 61, 60
1, 125805, Note_on_c, 0, 53, 30
1, 125821, Note_off_c, 0, 56, 61
1, 125839, Note_off_c, 0, 53, 53
1, 125848, Note_off_c, 0, 49, 55
1, 125971, Note_on_c, 0, 77, 84
1, 125988, Note_on_c, 0, 65, 62
1, 125997, Note_on_c, 0, 68, 47
1, 126006, Note_off_c, 0, 65, 64
1, 126029, Note_off_c, 0, 68, 53
1, 126045, Note_off_c, 0, 77, 59
1, 126214, Control_c, 0, 64, 103
1, 126216, Note_on_c, 0, 75, 80
1, 126230, Control_c, 0, 64, 76
1, 126231, Note_on_c, 0, 65, 60
1, 126234, Note_on_c, 0, 37, 57
1, 126239, Note_on_c, 0, 49, 51
1, 126245, Control_c, 0, 64, 0
1, 126259, Note_on_c, 0, 68, 29
1, 126287, Note_off_c, 0, 37, 65
1, 126289, Control_c, 0, 64, 65
1, 126296, Note_off_c, 0, 49, 61
1, 126304, Control_c, 0, 64, 77
1, 126305, Note_off_c, 0, 68, 45
1, 126319, Control_c, 0, 64, 94
1, 126334, Control_c, 0, 64, 112
1, 126339, Note_off_c, 0, 65, 24
1, 126348, Control_c, 0, 64, 127
1, 126421, Note_off_c, 0, 75, 57
1, 126460, Note_on_c, 0, 73, 69
1, 126467, Note_on_c, 0, 65, 57
1, 126470, Note_on_c, 0, 61, 59
1, 126476, Note_on_c, 0, 68, 61
1, 126480, Note_on_c, 0, 53, 47
1, 126491, Note_off_c, 0, 65, 62
1, 126492, Note_off_c, 0, 61, 57
1, 126503, Note_on_c, 0, 56, 32
1, 126509, Note_off_c, 0, 68, 65
1, 126524, Note_off_c, 0, 73, 62
1, 126534, Note_off_c, 0, 53, 59
1, 126536, Note_off_c, 0, 56, 53
1, 126569, Poly_aftertouch_c, 0, 49, 0
1, 126619, Note_on_c, 0, 61, 63
1, 126626, Note_on_c, 0, 56, 59
1, 126642, Note_on_c, 0, 53, 53
1, 126657, Note_off_c, 0, 61, 65
1, 126658, Note_on_c, 0, 49, 29
1, 126680, Note_off_c, 0, 56, 57
1, 126688, Note_off_c, 0, 53, 62
1, 126697, Note_off_c, 0, 49, 29
1, 126799, Note_on_c, 0, 72, 74
1, 126804, Note_on_c, 0, 68, 68
1, 126805, Note_on_c, 0, 65, 69
1, 126840, Note_off_c, 0, 65, 65
1, 126842, Note_off_c, 0, 68, 56
1, 126854, Note_off_c, 0, 72, 63
1, 127007, Control_c, 0, 64, 101
1, 127023, Control_c, 0, 64, 78
1, 127031, Note_on_c, 0, 70, 76
1, 127034, Note_on_c, 0, 37, 59
1, 127038, Control_c, 0, 64, 39
1, 127043, Note_on_c, 0, 65, 66
1, 127044, Note_on_c, 0, 49, 53
1, 127053, Control_c, 0, 64, 0
1, 127083, Control_c, 0, 64, 64
1, 127087, Note_off_c, 0, 37, 65
1, 127095, Note_off_c, 0, 49, 63
1, 127097, Control_c, 0, 64, 77
1, 127112, Control_c, 0, 64, 91
1, 127127, Control_c, 0, 64, 106
1, 127131, Note_off_c, 0, 65, 58
1, 127142, Control_c, 0, 64, 120
1, 127157, Control_c, 0, 64, 127
1, 127244, Note_on_c, 0, 68, 68
1, 127248, Note_on_c, 0, 65, 65
1, 127253, Note_on_c, 0, 61, 61
1, 127257, Note_off_c, 0, 70, 35
1, 127276, Note_off_c, 0, 68, 63
1, 127283, Note_off_c, 0, 61, 56
1, 127292, Note_off_c, 0, 65, 51
1, 127299, Note_on_c, 0, 56, 21
1, 127343, Note_off_c, 0, 56, 39
1, 127406, Note_on_c, 0, 61, 60
1, 127421, Note_on_c, 0, 49, 33
1, 127425, Note_on_c, 0, 53, 53
1, 127444, Note_on_c, 0, 56, 47
1, 127454, Note_off_c, 0, 61, 52
1, 127493, Note_off_c, 0, 56, 55
1, 127502, Note_on_c, 0, 68, 61
1, 127531, Note_off_c, 0, 53, 60
1, 127548, Note_on_c, 0, 67, 63
1, 127570, Note_off_c, 0, 49, 52
1, 127592, Note_off_c, 0, 68, 61
1, 127597, Note_on_c, 0, 66, 73
1, 127597, Note_off_c, 0, 67, 60
1, 127634, Note_off_c, 0, 66, 65
1, 127645, Note_on_c, 0, 67, 63
1, 127707, Note_off_c, 0, 67, 59
1, 127759, Note_on_c, 0, 70, 79
1, 127782, Note_on_c, 0, 32, 64
1, 127786, Control_c, 0, 64, 96
1, 127790, Note_on_c, 0, 44, 61
1, 127801, Control_c, 0, 64, 73
1, 127816, Control_c, 0, 64, 0
1, 127856, Note_off_c, 0, 32, 64
1, 127861, Control_c, 0, 64, 28
1, 127873, Note_off_c, 0, 44, 63
1, 127876, Control_c, 0, 64, 70
1, 127891, Control_c, 0, 64, 83
1, 127906, Control_c, 0, 64, 99
1, 127920, Control_c, 0, 64, 114
1, 127935, Control_c, 0, 64, 124
1, 127950, Control_c, 0, 64, 127
1, 128018, Note_on_c, 0, 68, 62
1, 128026, Note_on_c, 0, 66, 58
1, 128031, Note_on_c, 0, 63, 50
1, 128038, Note_on_c, 0, 60, 52
1, 128044, Note_on_c, 0, 54, 44
1, 128047, Note_on_c, 0, 51, 41
1, 128053, Note_on_c, 0, 56, 38
1, 128062, Note_off_c, 0, 63, 53
1, 128064, Note_off_c, 0, 60, 54
1, 128070, Note_off_c, 0, 66, 60
1, 128086, Note_off_c, 0, 54, 46
1, 128088, Note_off_c, 0, 51, 47
1, 128088, Note_off_c, 0, 56, 54
1, 128110, Note_off_c, 0, 70, 22
1, 128135, Note_off_c, 0, 68, 57
1, 128181, Note_on_c, 0, 63, 67
1, 128182, Note_on_c, 0, 60, 58
1, 128193, Note_on_c, 0, 66, 61
1, 128196, Note_on_c, 0, 54, 56
1, 128196, Note_on_c, 0, 56, 56
1, 128205, Note_on_c, 0, 51, 43
1, 128210, Note_off_c, 0, 63, 66
1, 128213, Note_off_c, 0, 60, 66
1, 128220, Note_off_c, 0, 66, 69
1, 128243, Note_off_c, 0, 56, 55
1, 128265, Note_off_c, 0, 51, 53
1, 128280, Note_off_c, 0, 54, 60
1, 128296, Note_on_c, 0, 66, 65
1, 128333, Note_on_c, 0, 78, 78
1, 128337, Note_off_c, 0, 66, 63
1, 128430, Note_off_c, 0, 78, 62
1, 128551, Control_c, 0, 64, 116
1, 128560, Note_on_c, 0, 77, 78
1, 128566, Control_c, 0, 64, 90
1, 128569, Note_on_c, 0, 66, 69
1, 128572, Note_on_c, 0, 44, 67
1, 128575, Note_on_c, 0, 32, 65
1, 128580, Control_c, 0, 64, 68
1, 128581, Note_on_c, 0, 68, 55
1, 128595, Control_c, 0, 64, 0
1, 128608, Note_off_c, 0, 32, 65
1, 128625, Control_c, 0, 64, 58
1, 128640, Control_c, 0, 64, 72
1, 128644, Note_off_c, 0, 44, 63
1, 128655, Control_c, 0, 64, 85
1, 128670, Note_off_c, 0, 66, 61
1, 128670, Control_c, 0, 64, 102
1, 128671, Note_off_c, 0, 68, 56
1, 128685, Control_c, 0, 64, 120
1, 128700, Control_c, 0, 64, 127
1, 128768, Note_off_c, 0, 77, 38
1, 128788, Note_on_c, 0, 66, 64
1, 128788, Note_on_c, 0, 75, 67
1, 128794, Note_on_c, 0, 68, 62
1, 128804, Note_on_c, 0, 60, 50
1, 128816, Note_off_c, 0, 66, 67
1, 128820, Note_on_c, 0, 54, 37
1, 128822, Note_on_c, 0, 51, 32
1, 128828, Note_off_c, 0, 68, 63
1, 128828, Note_on_c, 0, 56, 33
1, 128829, Note_off_c, 0, 60, 56
1, 128854, Note_off_c, 0, 54, 51
1, 128855, Note_off_c, 0, 75, 61
1, 128861, Note_off_c, 0, 51, 49
1, 128862, Note_off_c, 0, 56, 52
1, 128952, Note_on_c, 0, 60, 54
1, 128958, Note_on_c, 0, 56, 60
1, 128961, Note_on_c, 0, 54, 56
1, 128971, Note_on_c, 0, 51, 47
1, 128973, Note_off_c, 0, 60, 64
1, 128993, Note_off_c, 0, 56, 61
1, 129007, Note_off_c, 0, 54, 59
1, 129010, Note_off_c, 0, 51, 61
1, 129108, Note_on_c, 0, 73, 77
1, 129117, Note_on_c, 0, 66, 70
1, 129129, Note_on_c, 0, 68, 58
1, 129153, Note_off_c, 0, 66, 62
1, 129165, Note_off_c, 0, 68, 64
1, 129204, Note_off_c, 0, 73, 59
1, 129299, Control_c, 0, 64, 101
1, 129314, Control_c, 0, 64, 78
1, 129320, Note_on_c, 0, 72, 79
1, 129329, Control_c, 0, 64, 29
1, 129330, Note_on_c, 0, 32, 61
1, 129338, Note_on_c, 0, 44, 53
1, 129341, Note_on_c, 0, 66, 62
1, 129344, Control_c, 0, 64, 0
1, 129362, Note_on_c, 0, 68, 47
1, 129371, Note_off_c, 0, 32, 65
1, 129374, Control_c, 0, 64, 62
1, 129389, Control_c, 0, 64, 75
1, 129395, Note_off_c, 0, 44, 64
1, 129395, Note_off_c, 0, 66, 60
1, 129403, Control_c, 0, 64, 88
1, 129418, Control_c, 0, 64, 102
1, 129427, Note_off_c, 0, 68, 52
1, 129433, Control_c, 0, 64, 115
1, 129448, Control_c, 0, 64, 127
1, 129523, Note_off_c, 0, 72, 54
1, 129538, Note_on_c, 0, 66, 60
1, 129541, Note_on_c, 0, 70, 63
1, 129544, Note_on_c, 0, 68, 63
1, 129565, Note_on_c, 0, 60, 42
1, 129567, Note_on_c, 0, 54, 41
1, 129573, Note_on_c, 0, 51, 33
1, 129579, Note_on_c, 0, 56, 38
1, 129582, Note_off_c, 0, 66, 61
1, 129587, Note_off_c, 0, 68, 58
1, 129593, Note_off_c, 0, 60, 52
1, 129609, Note_off_c, 0, 70, 59
1, 129610, Note_off_c, 0, 54, 46
1, 129612, Note_off_c, 0, 51, 48
1, 129612, Note_off_c, 0, 56, 53
1, 129695, Note_on_c, 0, 60, 59
1, 129710, Note_on_c, 0, 56, 57
1, 129715, Note_on_c, 0, 54, 56
1, 129724, Note_off_c, 0, 60, 64
1, 129727, Note_on_c, 0, 51, 44
1, 129743, Note_off_c, 0, 56, 63
1, 129754, Note_off_c, 0, 51, 55
1, 129758, Note_off_c, 0, 54, 60
1, 129849, Note_on_c, 0, 68, 74
1, 129853, Note_on_c, 0, 66, 69
1, 129885, Note_off_c, 0, 66, 63
1, 129907, Note_off_c, 0, 68, 62
1, 130048, Control_c, 0, 64, 100
1, 130063, Control_c, 0, 64, 74
1, 130075, Note_on_c, 0, 70, 71
1, 130078, Control_c, 0, 64, 0
1, 130091, Note_on_c, 0, 65, 64
1, 130092, Note_on_c, 0, 37, 55
1, 130096, Note_on_c, 0, 49, 53
1, 130127, Note_off_c, 0, 37, 65
1, 130137, Control_c, 0, 64, 67
1, 130144, Note_off_c, 0, 49, 62
1, 130152, Control_c, 0, 64, 84
1, 130164, Note_off_c, 0, 65, 57
1, 130167, Control_c, 0, 64, 103
1, 130181, Control_c, 0, 64, 127
1, 130283, Note_on_c, 0, 68, 71
1, 130295, Note_off_c, 0, 70, 58
1, 130312, Note_on_c, 0, 61, 46
1, 130313, Note_off_c, 0, 68, 65
1, 130317, Note_on_c, 0, 49, 35
1, 130320, Note_on_c, 0, 53, 39
1, 130339, Note_off_c, 0, 61, 53
1, 130342, Note_on_c, 0, 56, 23
1, 130352, Note_off_c, 0, 49, 50
1, 130358, Note_off_c, 0, 53, 51
1, 130384, Note_off_c, 0, 56, 40
1, 130447, Note_on_c, 0, 61, 61
1, 130459, Note_on_c, 0, 49, 51
1, 130464, Note_on_c, 0, 53, 56
1, 130478, Note_off_c, 0, 61, 65
1, 130479, Note_on_c, 0, 56, 55
1, 130511, Note_off_c, 0, 56, 64
1, 130512, Note_off_c, 0, 53, 60
1, 130528, Note_off_c, 0, 49, 57
1, 130597, Note_on_c, 0, 80, 86
1, 130611, Note_on_c, 0, 73, 71
1, 130612, Note_on_c, 0, 68, 69
1, 130646, Note_off_c, 0, 73, 57
1, 130662, Note_off_c, 0, 68, 55
1, 130690, Note_off_c, 0, 80, 59
1, 130840, Control_c, 0, 64, 99
1, 130850, Note_on_c, 0, 78, 83
1, 130855, Control_c, 0, 64, 74
1, 130858, Note_on_c, 0, 68, 74
1, 130861, Note_on_c, 0, 37, 64
1, 130870, Note_on_c, 0, 49, 53
1, 130870, Control_c, 0, 64, 0
1, 130871, Note_on_c, 0, 73, 57
1, 130909, Note_off_c, 0, 37, 66
1, 130915, Control_c, 0, 64, 64
1, 130922, Note_off_c, 0, 49, 62
1, 130930, Control_c, 0, 64, 77
1, 130945, Control_c, 0, 64, 95
1, 130959, Control_c, 0, 64, 125
1, 130973, Note_off_c, 0, 68, 62
1, 130974, Control_c, 0, 64, 127
1, 130989, Note_off_c, 0, 73, 58
1, 131013, Note_off_c, 0, 78, 63
1, 131064, Note_on_c, 0, 77, 73
1, 131073, Note_on_c, 0, 68, 69
1, 131074, Note_on_c, 0, 61, 62
1, 131079, Note_on_c, 0, 73, 50
1, 131085, Note_on_c, 0, 53, 49
1, 131097, Note_off_c, 0, 61, 62
1, 131106, Note_off_c, 0, 68, 66
1, 131108, Note_off_c, 0, 73, 64
1, 131112, Note_on_c, 0, 49, 18
1, 131115, Note_off_c, 0, 77, 59
1, 131122, Note_on_c, 0, 56, 13
1, 131132, Note_off_c, 0, 53, 61
1, 131161, Note_off_c, 0, 49, 38
1, 131174, Note_off_c, 0, 56, 39
1, 131231, Note_on_c, 0, 61, 52
1, 131243, Note_on_c, 0, 53, 54
1, 131255, Note_off_c, 0, 61, 59
1, 131258, Note_on_c, 0, 49, 52
1, 131266, Note_on_c, 0, 56, 36
1, 131277, Note_off_c, 0, 53, 66
1, 131295, Note_off_c, 0, 56, 48
1, 131296, Note_off_c, 0, 49, 62
1, 131382, Note_on_c, 0, 75, 73
1, 131395, Note_on_c, 0, 68, 58
1, 131401, Note_on_c, 0, 65, 56
1, 131448, Note_off_c, 0, 65, 58
1, 131459, Note_off_c, 0, 75, 60
1, 131466, Note_off_c, 0, 68, 56
1, 131560, Control_c, 0, 64, 106
1, 131575, Control_c, 0, 64, 82
1, 131589, Control_c, 0, 64, 47
1, 131591, Note_on_c, 0, 73, 77
1, 131596, Note_on_c, 0, 49, 69
1, 131599, Note_on_c, 0, 37, 63
1, 131603, Note_on_c, 0, 65, 65
1, 131604, Control_c, 0, 64, 0
1, 131619, Control_c, 0, 64, 58
1, 131621, Note_off_c, 0, 37, 68
1, 131634, Control_c, 0, 64, 72
1, 131649, Control_c, 0, 64, 84
1, 131651, Note_off_c, 0, 49, 61
1, 131663, Control_c, 0, 64, 101
1, 131675, Note_off_c, 0, 65, 61
1, 131678, Control_c, 0, 64, 126
1, 131693, Control_c, 0, 64, 127
1, 131701, Note_off_c, 0, 73, 61
1, 131767, Note_on_c, 0, 72, 79
1, 131783, Note_on_c, 0, 65, 69
1, 131796, Note_on_c, 0, 61, 60
1, 131800, Note_on_c, 0, 49, 49
1, 131802, Note_on_c, 0, 53, 52
1, 131828, Note_off_c, 0, 61, 49
1, 131838, Note_off_c, 0, 49, 51
1, 131843, Note_off_c, 0, 65, 59
1, 131864, Note_off_c, 0, 53, 54
1, 131881, Note_off_c, 0, 72, 58
1, 131942, Note_on_c, 0, 70, 81
1, 131946, Poly_aftertouch_c, 0, 56, 0
1, 131951, Note_on_c, 0, 61, 69
1, 131953, Note_on_c, 0, 49, 65
1, 131954, Note_on_c, 0, 65, 79
1, 131959, Note_on_c, 0, 56, 46
1, 131966, Note_on_c, 0, 53, 51
1, 131973, Note_off_c, 0, 61, 68
1, 131991, Note_off_c, 0, 65, 54
1, 131994, Note_off_c, 0, 70, 62
1, 132018, Note_off_c, 0, 56, 61
1, 132019, Note_off_c, 0, 53, 57
1, 132045, Note_off_c, 0, 49, 60
1, 132097, Note_on_c, 0, 70, 72
1, 132137, Note_on_c, 0, 69, 67
1, 132179, Note_on_c, 0, 68, 77
1, 132181, Note_off_c, 0, 70, 57
1, 132194, Note_off_c, 0, 69, 65
1, 132224, Note_on_c, 0, 69, 66
1, 132238, Note_off_c, 0, 68, 62
1, 132280, Note_off_c, 0, 69, 66
1, 132309, Control_c, 0, 64, 96
1, 132324, Control_c, 0, 64, 71
1, 132325, Note_on_c, 0, 30, 59
1, 132331, Note_on_c, 0, 72, 85
1, 132338, Control_c, 0, 64, 0
1, 132342, Note_on_c, 0, 42, 63
1, 132383, Control_c, 0, 64, 51
1, 132393, Note_off_c, 0, 30, 62
1, 132398, Control_c, 0, 64, 74
1, 132411, Note_off_c, 0, 42, 63
1, 132413, Control_c, 0, 64, 90
1, 132427, Control_c, 0, 64, 113
1, 132442, Control_c, 0, 64, 127
1, 132562, Note_on_c, 0, 70, 63
1, 132563, Note_off_c, 0, 72, 57
1, 132567, Note_on_c, 0, 61, 65
1, 132575, Note_on_c, 0, 58, 59
1, 132581, Note_on_c, 0, 66, 53
1, 132584, Note_on_c, 0, 49, 48
1, 132596, Note_off_c, 0, 58, 61
1, 132606, Note_on_c, 0, 54, 35
1, 132616, Note_off_c, 0, 61, 57
1, 132628, Note_off_c, 0, 49, 56
1, 132632, Note_off_c, 0, 66, 60
1, 132647, Note_off_c, 0, 54, 50
1, 132697, Note_off_c, 0, 70, 56
1, 132725, Note_on_c, 0, 66, 77
1, 132732, Note_on_c, 0, 61, 65
1, 132737, Note_on_c, 0, 58, 55
1, 132739, Note_on_c, 0, 54, 65
1, 132739, Note_on_c, 0, 49, 62
1, 132749, Note_off_c, 0, 61, 65
1, 132752, Note_off_c, 0, 66, 64
1, 132756, Note_off_c, 0, 58, 64
1, 132786, Note_off_c, 0, 54, 59
1, 132818, Note_off_c, 0, 49, 60
1, 132884, Note_on_c, 0, 82, 88
1, 132891, Note_on_c, 0, 70, 82
1, 132991, Poly_aftertouch_c, 0, 80, 0
1, 133017, Note_off_c, 0, 70, 57
1, 133036, Note_off_c, 0, 82, 61
1, 133122, Note_on_c, 0, 30, 65
1, 133124, Note_on_c, 0, 80, 86
1, 133131, Note_on_c, 0, 68, 85
1, 133131, Control_c, 0, 64, 105
1, 133139, Note_on_c, 0, 42, 66
1, 133146, Control_c, 0, 64, 80
1, 133161, Control_c, 0, 64, 39
1, 133175, Control_c, 0, 64, 0
1, 133189, Note_off_c, 0, 30, 63
1, 133205, Control_c, 0, 64, 56
1, 133214, Note_off_c, 0, 42, 63
1, 133220, Control_c, 0, 64, 75
1, 133235, Control_c, 0, 64, 90
1, 133249, Control_c, 0, 64, 112
1, 133264, Control_c, 0, 64, 127
1, 133273, Note_off_c, 0, 68, 61
1, 133283, Note_off_c, 0, 80, 61
1, 133361, Note_on_c, 0, 78, 82
1, 133365, Note_on_c, 0, 66, 77
1, 133367, Note_on_c, 0, 58, 64
1, 133387, Note_on_c, 0, 49, 48
1, 133395, Note_off_c, 0, 66, 70
1, 133398, Note_on_c, 0, 54, 43
1, 133407, Note_off_c, 0, 58, 60
1, 133428, Note_off_c, 0, 78, 62
1, 133430, Note_off_c, 0, 49, 48
1, 133447, Note_off_c, 0, 54, 56
1, 133534, Note_on_c, 0, 49, 66
1, 133535, Note_on_c, 0, 58, 61
1, 133545, Note_on_c, 0, 54, 64
1, 133557, Note_off_c, 0, 58, 63
1, 133576, Note_off_c, 0, 54, 62
1, 133611, Note_off_c, 0, 49, 60
1, 133684, Note_on_c, 0, 90, 98
1, 133690, Note_on_c, 0, 78, 87
1, 133807, Note_off_c, 0, 78, 60
1, 133838, Poly_aftertouch_c, 0, 30, 127
1, 133844, Note_off_c, 0, 90, 62
1, 133865, Control_c, 0, 64, 96
1, 133880, Control_c, 0, 64, 69
1, 133893, Note_on_c, 0, 30, 3
1, 133894, Note_on_c, 0, 89, 87
1, 133895, Control_c, 0, 64, 0
1, 133895, Control_c, 0, 67, 8
1, 133900, Note_on_c, 0, 42, 73
1, 133901, Note_on_c, 0, 77, 75
1, 133925, Control_c, 0, 64, 65
1, 133925, Control_c, 0, 67, 0
1, 133931, Note_on_c, 0, 79, 44
1, 133938, Note_off_c, 0, 30, 61
1, 133939, Control_c, 0, 64, 78
1, 133954, Control_c, 0, 64, 94
1, 133958, Note_off_c, 0, 79, 36
1, 133961, Note_off_c, 0, 42, 63
1, 133969, Control_c, 0, 64, 127
1, 134003, Note_off_c, 0, 89, 63
1, 134012, Note_off_c, 0, 77, 59
1, 134113, Note_on_c, 0, 87, 88
1, 134117, Note_on_c, 0, 54, 63
1, 134118, Note_on_c, 0, 63, 71
1, 134118, Note_on_c, 0, 75, 80
1, 134152, Note_on_c, 0, 58, 45
1, 134214, Note_off_c, 0, 75, 63
1, 134233, Note_off_c, 0, 63, 49
1, 134236, Note_off_c, 0, 87, 61
1, 134240, Note_off_c, 0, 54, 35
1, 134263, Note_off_c, 0, 58, 56
1, 134319, Note_on_c, 0, 85, 83
1, 134325, Note_on_c, 0, 73, 82
1, 134333, Note_on_c, 0, 63, 65
1, 134334, Note_on_c, 0, 58, 51
1, 134337, Note_on_c, 0, 54, 60
1, 134359, Note_off_c, 0, 63, 68
1, 134376, Note_off_c, 0, 73, 61
1, 134390, Note_off_c, 0, 85, 62
1, 134399, Note_off_c, 0, 58, 61
1, 134425, Note_off_c, 0, 54, 58
1, 134449, Note_on_c, 0, 84, 89
1, 134454, Note_on_c, 0, 72, 82
1, 134473, Note_on_c, 0, 78, 49
1, 134483, Note_off_c, 0, 72, 62
1, 134495, Note_off_c, 0, 84, 65
1, 134497, Note_off_c, 0, 78, 59
1, 134575, Note_on_c, 0, 70, 89
1, 134575, Note_on_c, 0, 82, 89
1, 134644, Note_off_c, 0, 70, 59
1, 134664, Note_off_c, 0, 82, 60
1, 134762, Control_c, 0, 64, 103
1, 134771, Note_on_c, 0, 82, 85
1, 134777, Note_on_c, 0, 70, 81
1, 134777, Control_c, 0, 64, 78
1, 134781, Note_on_c, 0, 32, 60
1, 134792, Control_c, 0, 64, 0
1, 134793, Note_on_c, 0, 44, 55
1, 134845, Note_off_c, 0, 32, 64
1, 134851, Control_c, 0, 64, 65
1, 134866, Control_c, 0, 64, 79
1, 134867, Note_off_c, 0, 44, 64
1, 134881, Control_c, 0, 64, 97
1, 134903, Control_c, 0, 64, 124
1, 134918, Control_c, 0, 64, 127
1, 134920, Note_off_c, 0, 70, 59
1, 134933, Note_off_c, 0, 82, 61
1, 135036, Note_on_c, 0, 80, 77
1, 135042, Note_on_c, 0, 68, 69
1, 135047, Note_on_c, 0, 56, 55
1, 135054, Note_on_c, 0, 65, 50
1, 135066, Note_off_c, 0, 68, 61
1, 135071, Note_off_c, 0, 80, 53
1, 135079, Note_off_c, 0, 65, 58
1, 135084, Note_off_c, 0, 56, 61
1, 135206, Note_on_c, 0, 61, 54
1, 135210, Note_on_c, 0, 65, 30
1, 135211, Note_on_c, 0, 56, 52
1, 135237, Note_off_c, 0, 61, 64
1, 135249, Note_off_c, 0, 65, 47
1, 135250, Note_off_c, 0, 56, 62
1, 135368, Note_on_c, 0, 76, 70
1, 135374, Note_on_c, 0, 64, 63
1, 135416, Note_off_c, 0, 64, 50
1, 135455, Note_off_c, 0, 76, 64
1, 135541, Control_c, 0, 64, 111
1, 135556, Control_c, 0, 64, 86
1, 135556, Control_c, 0, 67, 8
1, 135571, Note_on_c, 0, 32, 60
1, 135571, Control_c, 0, 64, 65
1, 135571, Control_c, 0, 67, 8
1, 135572, Note_on_c, 0, 78, 77
1, 135573, Note_on_c, 0, 44, 62
1, 135581, Note_on_c, 0, 66, 67
1, 135586, Control_c, 0, 64, 0
1, 135596, Note_off_c, 0, 32, 65
1, 135601, Control_c, 0, 64, 53
1, 135616, Control_c, 0, 64, 70
1, 135616, Control_c, 0, 67, 8
1, 135637, Control_c, 0, 64, 82
1, 135638, Note_off_c, 0, 44, 63
1, 135652, Control_c, 0, 64, 98
1, 135652, Control_c, 0, 67, 0
1, 135667, Control_c, 0, 64, 116
1, 135671, Note_off_c, 0, 66, 64
1, 135682, Control_c, 0, 64, 127
1, 135701, Note_off_c, 0, 78, 62
1, 135777, Note_on_c, 0, 77, 80
1, 135781, Note_on_c, 0, 65, 82
1, 135799, Note_on_c, 0, 56, 57
1, 135814, Note_on_c, 0, 61, 50
1, 135815, Note_off_c, 0, 65, 57
1, 135828, Note_off_c, 0, 77, 60
1, 135835, Note_off_c, 0, 56, 62
1, 135841, Note_off_c, 0, 61, 59
1, 135938, Note_on_c, 0, 61, 65
1, 135940, Note_on_c, 0, 65, 67
1, 135946, Note_on_c, 0, 56, 62
1, 135959, Note_off_c, 0, 65, 66
1, 135978, Note_off_c, 0, 61, 63
1, 136004, Note_off_c, 0, 56, 63
1, 136084, Note_on_c, 0, 84, 90
1, 136086, Note_on_c, 0, 72, 80
1, 136134, Note_off_c, 0, 72, 57
1, 136181, Note_off_c, 0, 84, 63
1, 136191, Poly_aftertouch_c, 0, 74, 0
1, 136275, Control_c, 0, 64, 98
1, 136285, Note_on_c, 0, 87, 91
1, 136287, Note_on_c, 0, 32, 71
1, 136287, Note_on_c, 0, 44, 74
1, 136290, Control_c, 0, 64, 75
1, 136292, Note_on_c, 0, 75, 83
1, 136304, Control_c, 0, 64, 0
1, 136316, Note_off_c, 0, 32, 65
1, 136334, Control_c, 0, 64, 45
1, 136349, Note_off_c, 0, 44, 63
1, 136349, Control_c, 0, 64, 71
1, 136364, Control_c, 0, 64, 88
1, 136386, Control_c, 0, 64, 111
1, 136401, Control_c, 0, 64, 127
1, 136403, Note_off_c, 0, 75, 63
1, 136423, Note_off_c, 0, 87, 61
1, 136494, Note_on_c, 0, 85, 89
1, 136501, Note_on_c, 0, 73, 78
1, 136502, Note_on_c, 0, 65, 73
1, 136506, Note_on_c, 0, 56, 61
1, 136522, Note_off_c, 0, 73, 68
1, 136526, Note_on_c, 0, 61, 37
1, 136533, Note_off_c, 0, 65, 57
1, 136544, Note_off_c, 0, 56, 59
1, 136550, Note_off_c, 0, 85, 64
1, 136557, Note_off_c, 0, 61, 53
1, 136667, Note_on_c, 0, 65, 79
1, 136671, Note_on_c, 0, 61, 50
1, 136673, Note_on_c, 0, 56, 71
1, 136687, Note_off_c, 0, 65, 71
1, 136708, Note_off_c, 0, 61, 45
1, 136745, Note_off_c, 0, 56, 63
1, 136779, Poly_aftertouch_c, 0, 62, 0
1, 136811, Note_on_c, 0, 89, 91
1, 136817, Note_on_c, 0, 77, 87
1, 136843, Note_off_c, 0, 77, 59
1, 136871, Note_off_c, 0, 89, 66
1, 137097, Note_on_c, 0, 96, 98
1, 137097, Control_c, 0, 64, 116
1, 137097, Control_c, 0, 67, 8
1, 137098, Note_on_c, 0, 84, 94
1, 137107, Note_on_c, 0, 32, 75
1, 137107, Note_on_c, 0, 44, 78
1, 137112, Control_c, 0, 64, 87
1, 137112, Control_c, 0, 67, 8
1, 137134, Control_c, 0, 64, 64
1, 137149, Control_c, 0, 64, 0
1, 137164, Note_off_c, 0, 32, 64
1, 137164, Control_c, 0, 67, 0
1, 137179, Control_c, 0, 64, 66
1, 137194, Control_c, 0, 64, 78
1, 137198, Note_off_c, 0, 44, 63
1, 137208, Control_c, 0, 64, 97
1, 137223, Control_c, 0, 64, 127
1, 137359, Note_off_c, 0, 96, 61
1, 137370, Note_off_c, 0, 84, 60
1, 137376, Note_on_c, 0, 54, 59
1, 137380, Note_on_c, 0, 60, 64
1, 137385, Note_on_c, 0, 51, 59
1, 137392, Note_on_c, 0, 56, 51
1, 137479, Note_on_c, 0, 94, 88
1, 137481, Note_off_c, 0, 60, 53
1, 137484, Note_on_c, 0, 82, 84
1, 137511, Note_off_c, 0, 56, 55
1, 137514, Note_off_c, 0, 51, 33
1, 137516, Note_off_c, 0, 54, 49
1, 137541, Note_off_c, 0, 82, 60
1, 137550, Note_off_c, 0, 94, 64
1, 137622, Note_on_c, 0, 60, 69
1, 137625, Note_on_c, 0, 92, 87
1, 137630, Note_on_c, 0, 80, 85
1, 137635, Note_on_c, 0, 56, 67
1, 137643, Note_on_c, 0, 54, 52
1, 137645, Note_on_c, 0, 51, 58
1, 137652, Note_off_c, 0, 60, 61
1, 137657, Note_off_c, 0, 80, 61
1, 137675, Note_off_c, 0, 92, 65
1, 137711, Note_off_c, 0, 56, 60
1, 137730, Note_off_c, 0, 54, 61
1, 137738, Note_off_c, 0, 51, 61
1, 137742, Note_on_c, 0, 90, 84
1, 137745, Note_on_c, 0, 78, 81
1, 137768, Note_off_c, 0, 78, 63
1, 137789, Note_off_c, 0, 90, 60
1, 137842, Note_on_c, 0, 89, 84
1, 137845, Note_on_c, 0, 77, 83
1, 137889, Note_off_c, 0, 77, 54
1, 137894, Note_off_c, 0, 89, 65
1, 137899, Control_c, 0, 67, 8
1, 137913, Control_c, 0, 64, 119
1, 137913, Control_c, 0, 67, 8
1, 137928, Control_c, 0, 64, 88
1, 137928, Control_c, 0, 67, 9
1, 137943, Control_c, 0, 64, 68
1, 137955, Note_on_c, 0, 44, 75
1, 137956, Note_on_c, 0, 32, 72
1, 137957, Control_c, 0, 64, 59
1, 137957, Control_c, 0, 67, 9
1, 137972, Control_c, 0, 64, 70
1, 137972, Control_c, 0, 67, 9
1, 137981, Note_on_c, 0, 87, 80
1, 137985, Note_on_c, 0, 75, 81
1, 137987, Control_c, 0, 64, 82
1, 137998, Note_off_c, 0, 32, 64
1, 138002, Control_c, 0, 64, 110
1, 138002, Control_c, 0, 67, 8
1, 138015, Note_off_c, 0, 75, 61
1, 138017, Control_c, 0, 64, 127
1, 138027, Note_off_c, 0, 44, 63
1, 138032, Control_c, 0, 67, 8
1, 138035, Note_off_c, 0, 87, 62
1, 138046, Control_c, 0, 67, 0
1, 138102, Note_on_c, 0, 85, 81
1, 138103, Note_on_c, 0, 73, 80
1, 138127, Note_off_c, 0, 73, 63
1, 138149, Note_off_c, 0, 85, 64
1, 138170, Note_on_c, 0, 60, 73
1, 138176, Note_on_c, 0, 54, 60
1, 138178, Note_on_c, 0, 56, 62
1, 138182, Note_on_c, 0, 51, 55
1, 138199, Note_off_c, 0, 60, 62
1, 138209, Note_on_c, 0, 84, 76
1, 138216, Note_on_c, 0, 72, 65
1, 138230, Note_off_c, 0, 54, 54
1, 138231, Note_off_c, 0, 51, 57
1, 138233, Note_off_c, 0, 72, 65
1, 138236, Note_off_c, 0, 56, 52
1, 138237, Note_off_c, 0, 84, 61
1, 138317, Note_on_c, 0, 60, 70
1, 138318, Note_on_c, 0, 82, 81
1, 138324, Note_on_c, 0, 70, 85
1, 138328, Note_on_c, 0, 56, 61
1, 138328, Note_on_c, 0, 51, 63
1, 138332, Note_on_c, 0, 54, 64
1, 138342, Note_off_c, 0, 60, 66
1, 138344, Note_off_c, 0, 70, 68
1, 138367, Note_off_c, 0, 56, 60
1, 138367, Note_off_c, 0, 82, 63
1, 138393, Note_off_c, 0, 54, 58
1, 138400, Note_off_c, 0, 51, 62
1, 138424, Note_on_c, 0, 68, 82
1, 138425, Note_on_c, 0, 80, 85
1, 138454, Note_off_c, 0, 68, 60
1, 138475, Note_off_c, 0, 80, 62
1, 138526, Note_on_c, 0, 67, 85
1, 138529, Note_on_c, 0, 79, 81
1, 138549, Note_off_c, 0, 67, 64
1, 138573, Note_off_c, 0, 79, 59
1, 138595, Control_c, 0, 64, 115
1, 138610, Control_c, 0, 64, 88
1, 138625, Control_c, 0, 64, 70
1, 138637, Note_on_c, 0, 44, 75
1, 138641, Note_on_c, 0, 32, 66
1, 138647, Control_c, 0, 64, 65
1, 138647, Control_c, 0, 67, 8
1, 138650, Note_on_c, 0, 78, 74
1, 138653, Note_on_c, 0, 66, 81
1, 138662, Control_c, 0, 64, 75
1, 138671, Note_off_c, 0, 32, 64
1, 138677, Control_c, 0, 64, 90
1, 138683, Note_off_c, 0, 66, 61
1, 138692, Control_c, 0, 64, 118
1, 138692, Control_c, 0, 67, 0
1, 138695, Note_off_c, 0, 44, 64
1, 138707, Note_off_c, 0, 78, 63
1, 138707, Control_c, 0, 64, 127
1, 138757, Note_on_c, 0, 77, 83
1, 138758, Note_on_c, 0, 65, 82
1, 138783, Note_off_c, 0, 65, 66
1, 138796, Note_off_c, 0, 77, 53
1, 138814, Poly_aftertouch_c, 0, 75, 0
1, 138832, Note_on_c, 0, 60, 76
1, 138838, Note_on_c, 0, 51, 62
1, 138838, Note_on_c, 0, 54, 60
1, 138847, Note_on_c, 0, 56, 55
1, 138871, Note_off_c, 0, 60, 49
1, 138877, Note_on_c, 0, 75, 81
1, 138883, Note_on_c, 0, 63, 79
1, 138886, Note_off_c, 0, 51, 51
1, 138896, Note_off_c, 0, 56, 54
1, 138906, Note_off_c, 0, 63, 70
1, 138909, Note_off_c, 0, 54, 46
1, 138928, Note_off_c, 0, 75, 64
1, 138993, Note_on_c, 0, 61, 82
1, 138994, Note_on_c, 0, 60, 60
1, 138996, Note_on_c, 0, 73, 77
1, 139002, Note_on_c, 0, 56, 63
1, 139004, Note_on_c, 0, 54, 54
1, 139014, Note_on_c, 0, 51, 58
1, 139019, Note_off_c, 0, 61, 64
1, 139020, Note_off_c, 0, 60, 57
1, 139033, Note_off_c, 0, 56, 63
1, 139044, Note_off_c, 0, 73, 62
1, 139050, Note_off_c, 0, 54, 62
1, 139056, Note_off_c, 0, 51, 62
1, 139101, Note_on_c, 0, 60, 72
1, 139101, Note_on_c, 0, 72, 80
1, 139121, Note_off_c, 0, 60, 61
1, 139129, Note_on_c, 0, 66, 34
1, 139130, Note_off_c, 0, 66, 127
1, 139148, Note_off_c, 0, 72, 63
1, 139214, Poly_aftertouch_c, 0, 74, 0
1, 139248, Note_on_c, 0, 80, 91
1, 139250, Note_on_c, 0, 68, 85
1, 139285, Note_off_c, 0, 68, 56
1, 139320, Note_off_c, 0, 80, 60
1, 139411, Control_c, 0, 64, 111
1, 139426, Control_c, 0, 64, 88
1, 139441, Control_c, 0, 64, 62
1, 139456, Control_c, 0, 64, 0
1, 139461, Note_on_c, 0, 80, 89
1, 139467, Note_on_c, 0, 68, 78
1, 139472, Note_on_c, 0, 37, 53
1, 139477, Note_on_c, 0, 49, 51
1, 139535, Note_off_c, 0, 37, 64
1, 139544, Control_c, 0, 64, 66
1, 139549, Note_off_c, 0, 49, 61
1, 139559, Control_c, 0, 64, 79
1, 139574, Control_c, 0, 64, 95
1, 139578, Note_off_c, 0, 68, 64
1, 139580, Note_off_c, 0, 80, 63
1, 139589, Control_c, 0, 64, 117
1, 139604, Control_c, 0, 64, 127
1, 139739, Note_on_c, 0, 73, 60
1, 139744, Note_on_c, 0, 61, 58
1, 139767, Note_on_c, 0, 53, 36
1, 139770, Note_on_c, 0, 49, 43
1, 139775, Note_on_c, 0, 56, 17
1, 139785, Note_off_c, 0, 61, 61
1, 139818, Note_off_c, 0, 56, 45
1, 139819, Note_off_c, 0, 49, 56
1, 139825, Note_off_c, 0, 73, 30
1, 139828, Note_off_c, 0, 53, 59
1, 139941, Note_on_c, 0, 56, 35
1, 139950, Note_on_c, 0, 53, 50
1, 139950, Note_on_c, 0, 49, 44
1, 139973, Note_off_c, 0, 53, 59
1, 139979, Note_off_c, 0, 56, 42
1, 139986, Note_off_c, 0, 49, 63
1, 140094, Control_c, 0, 64, 114
1, 140108, Control_c, 0, 64, 97
1, 140115, Note_on_c, 0, 64, 53
1, 140131, Control_c, 0, 64, 83
1, 140146, Control_c, 0, 64, 67
1, 140160, Control_c, 0, 64, 0
1, 140190, Control_c, 0, 67, 8
1, 140220, Control_c, 0, 67, 8
1, 140308, Control_c, 0, 67, 0
1, 140318, Note_on_c, 0, 44, 44
1, 140343, Note_off_c, 0, 64, 58
1, 140345, Note_on_c, 0, 66, 57
1, 140352, Control_c, 0, 64, 65
1, 140367, Control_c, 0, 64, 75
1, 140376, Note_off_c, 0, 44, 56
1, 140382, Control_c, 0, 64, 87
1, 140397, Control_c, 0, 64, 102
1, 140412, Control_c, 0, 64, 112
1, 140427, Control_c, 0, 64, 121
1, 140442, Control_c, 0, 64, 127
1, 140524, Note_on_c, 0, 65, 66
1, 140526, Note_off_c, 0, 66, 61
1, 140532, Note_on_c, 0, 53, 46
1, 140538, Note_on_c, 0, 49, 50
1, 140553, Note_off_c, 0, 65, 67
1, 140559, Note_off_c, 0, 53, 60
1, 140577, Note_off_c, 0, 49, 59
1, 140695, Control_c, 0, 64, 115
1, 140700, Note_on_c, 0, 41, 74
1, 140710, Control_c, 0, 64, 90
1, 140710, Control_c, 0, 67, 8
1, 140724, Control_c, 0, 64, 68
1, 140724, Control_c, 0, 67, 8
1, 140739, Control_c, 0, 64, 0
1, 140754, Control_c, 0, 67, 9
1, 140783, Control_c, 0, 64, 47
1, 140786, Note_off_c, 0, 41, 57
1, 140798, Control_c, 0, 64, 72
1, 140813, Control_c, 0, 64, 84
1, 140828, Control_c, 0, 64, 101
1, 140828, Control_c, 0, 67, 8
1, 140843, Control_c, 0, 64, 119
1, 140857, Control_c, 0, 64, 127
1, 140857, Control_c, 0, 67, 8
1, 140880, Control_c, 0, 67, 0
1, 140881, Note_on_c, 0, 68, 76
1, 140883, Note_on_c, 0, 49, 64
1, 140886, Note_on_c, 0, 65, 71
1, 140886, Note_on_c, 0, 53, 58
1, 140909, Note_off_c, 0, 53, 64
1, 140919, Note_off_c, 0, 65, 60
1, 140922, Note_off_c, 0, 49, 61
1, 140941, Note_off_c, 0, 68, 60
1, 141028, Control_c, 0, 67, 8
1, 141043, Control_c, 0, 67, 8
1, 141044, Note_on_c, 0, 37, 79
1, 141056, Control_c, 0, 67, 9
1, 141071, Control_c, 0, 64, 114
1, 141071, Control_c, 0, 67, 10
1, 141086, Control_c, 0, 64, 89
1, 141086, Control_c, 0, 67, 10
1, 141101, Control_c, 0, 64, 69
1, 141103, Note_on_c, 0, 36, 12
1, 141104, Note_off_c, 0, 37, 64
1, 141116, Control_c, 0, 64, 55
1, 141130, Control_c, 0, 64, 64
1, 141145, Control_c, 0, 64, 73
1, 141145, Control_c, 0, 67, 10
1, 141151, Note_off_c, 0, 36, 37
1, 141160, Control_c, 0, 64, 89
1, 141160, Control_c, 0, 67, 9
1, 141175, Control_c, 0, 64, 104
1, 141175, Control_c, 0, 67, 9
1, 141190, Control_c, 0, 64, 117
1, 141190, Control_c, 0, 67, 8
1, 141205, Control_c, 0, 64, 124
1, 141220, Control_c, 0, 64, 127
1, 141230, Note_on_c, 0, 65, 76
1, 141230, Note_on_c, 0, 73, 79
1, 141232, Note_on_c, 0, 68, 77
1, 141234, Note_on_c, 0, 53, 65
1, 141235, Control_c, 0, 67, 8
1, 141237, Note_on_c, 0, 49, 75
1, 141249, Control_c, 0, 67, 0
1, 141261, Note_off_c, 0, 65, 62
1, 141264, Note_off_c, 0, 53, 67
1, 141268, Note_off_c, 0, 49, 62
1, 141275, Note_off_c, 0, 68, 56
1, 141310, Note_off_c, 0, 73, 54
1, 141368, Control_c, 0, 67, 8
1, 141382, Control_c, 0, 67, 9
1, 141397, Control_c, 0, 67, 9
1, 141405, Note_on_c, 0, 32, 82
1, 141413, Control_c, 0, 64, 116
1, 141428, Control_c, 0, 64, 91
1, 141428, Control_c, 0, 67, 10
1, 141443, Control_c, 0, 64, 72
1, 141443, Control_c, 0, 67, 10
1, 141458, Control_c, 0, 64, 67
1, 141458, Note_off_c, 0, 32, 61
1, 141473, Control_c, 0, 64, 74
1, 141487, Control_c, 0, 64, 87
1, 141487, Control_c, 0, 67, 10
1, 141502, Control_c, 0, 64, 107
1, 141502, Control_c, 0, 67, 9
1, 141517, Control_c, 0, 64, 127
1, 141517, Control_c, 0, 67, 9
1, 141546, Control_c, 0, 67, 8
1, 141586, Note_on_c, 0, 73, 73
1, 141589, Note_on_c, 0, 68, 82
1, 141589, Note_on_c, 0, 65, 82
1, 141589, Note_on_c, 0, 77, 78
1, 141603, Note_on_c, 0, 53, 68
1, 141604, Note_on_c, 0, 49, 74
1, 141612, Note_off_c, 0, 65, 70
1, 141620, Control_c, 0, 67, 8
1, 141634, Note_off_c, 0, 49, 68
1, 141634, Note_off_c, 0, 53, 66
1, 141643, Control_c, 0, 67, 0
1, 141645, Note_off_c, 0, 68, 65
1, 141652, Note_off_c, 0, 73, 65
1, 141655, Note_off_c, 0, 77, 63
1, 141866, Control_c, 0, 67, 8
1, 141880, Control_c, 0, 67, 9
1, 141895, Control_c, 0, 67, 10
1, 141902, Note_on_c, 0, 78, 83
1, 141907, Note_on_c, 0, 75, 74
1, 141908, Note_on_c, 0, 41, 74
1, 141908, Note_on_c, 0, 69, 82
1, 141910, Control_c, 0, 64, 112
1, 141910, Control_c, 0, 67, 11
1, 141911, Note_on_c, 0, 29, 70
1, 141919, Note_on_c, 0, 72, 73
1, 141924, Control_c, 0, 64, 81
1, 141924, Control_c, 0, 67, 13
1, 141939, Control_c, 0, 64, 21
1, 141939, Control_c, 0, 67, 14
1, 141954, Control_c, 0, 64, 0
1, 141954, Control_c, 0, 67, 14
1, 141969, Control_c, 0, 67, 15
1, 141990, Note_off_c, 0, 29, 62
1, 141998, Control_c, 0, 64, 47
1, 142013, Control_c, 0, 64, 74
1, 142013, Control_c, 0, 67, 14
1, 142019, Note_off_c, 0, 41, 65
1, 142028, Control_c, 0, 64, 88
1, 142043, Control_c, 0, 64, 108
1, 142043, Control_c, 0, 67, 13
1, 142058, Control_c, 0, 64, 127
1, 142058, Control_c, 0, 67, 13
1, 142072, Control_c, 0, 67, 12
1, 142087, Control_c, 0, 67, 12
1, 142167, Note_on_c, 0, 48, 65
1, 142187, Note_on_c, 0, 45, 52
1, 142226, Note_off_c, 0, 45, 61
1, 142237, Note_off_c, 0, 48, 58
1, 142251, Control_c, 0, 67, 12
1, 142281, Control_c, 0, 67, 13
1, 142341, Control_c, 0, 67, 12
1, 142366, Note_on_c, 0, 51, 62
1, 142370, Control_c, 0, 67, 12
1, 142446, Note_off_c, 0, 51, 49
1, 142451, Poly_aftertouch_c, 0, 48, 127
1, 142478, Poly_aftertouch_c, 0, 48, 0
1, 142554, Note_on_c, 0, 54, 59
1, 142599, Note_off_c, 0, 54, 56
1, 142629, Control_c, 0, 67, 11
1, 142750, Note_on_c, 0, 57, 50
1, 142758, Note_on_c, 0, 54, 34
1, 142774, Note_off_c, 0, 78, 54
1, 142776, Note_off_c, 0, 75, 59
1, 142791, Note_off_c, 0, 54, 46
1, 142791, Note_off_c, 0, 57, 60
1, 142791, Note_off_c, 0, 72, 55
1, 142792, Control_c, 0, 67, 11
1, 142880, Control_c, 0, 67, 11
1, 142895, Control_c, 0, 67, 12
1, 142910, Control_c, 0, 67, 13
1, 142925, Control_c, 0, 64, 122
1, 142925, Control_c, 0, 67, 13
1, 142940, Control_c, 0, 64, 95
1, 142955, Control_c, 0, 64, 76
1, 142955, Control_c, 0, 67, 14
1, 142967, Note_on_c, 0, 57, 43
1, 142970, Note_on_c, 0, 78, 57
1, 142970, Control_c, 0, 64, 59
1, 142978, Note_on_c, 0, 60, 51
1, 142979, Note_on_c, 0, 75, 44
1, 143000, Control_c, 0, 64, 67
1, 143015, Control_c, 0, 64, 74
1, 143015, Control_c, 0, 67, 13
1, 143020, Note_off_c, 0, 57, 61
1, 143030, Control_c, 0, 64, 84
1, 143044, Control_c, 0, 64, 96
1, 143059, Control_c, 0, 64, 107
1, 143059, Control_c, 0, 67, 13
1, 143074, Control_c, 0, 64, 115
1, 143074, Control_c, 0, 67, 12
1, 143085, Note_off_c, 0, 75, 61
1, 143089, Control_c, 0, 64, 120
1, 143089, Control_c, 0, 67, 12
1, 143104, Control_c, 0, 64, 127
1, 143108, Note_off_c, 0, 69, 58
1, 143110, Note_off_c, 0, 60, 49
1, 143117, Note_off_c, 0, 78, 63
1, 143119, Control_c, 0, 67, 12
1, 143141, Control_c, 0, 67, 13
1, 143156, Control_c, 0, 67, 14
1, 143171, Control_c, 0, 64, 104
1, 143171, Control_c, 0, 67, 14
1, 143178, Note_on_c, 0, 77, 59
1, 143184, Note_on_c, 0, 61, 49
1, 143185, Control_c, 0, 64, 85
1, 143190, Note_on_c, 0, 58, 48
1, 143190, Note_on_c, 0, 73, 58
1, 143200, Control_c, 0, 64, 67
1, 143200, Control_c, 0, 67, 15
1, 143215, Control_c, 0, 64, 0
1, 143230, Control_c, 0, 64, 25
1, 143245, Control_c, 0, 64, 64
1, 143245, Control_c, 0, 67, 14
1, 143259, Control_c, 0, 64, 75
1, 143259, Control_c, 0, 67, 14
1, 143274, Control_c, 0, 64, 85
1, 143289, Control_c, 0, 64, 95
1, 143297, Note_off_c, 0, 58, 57
1, 143304, Control_c, 0, 64, 100
1, 143319, Control_c, 0, 64, 104
1, 143333, Control_c, 0, 64, 105
1, 143343, Note_off_c, 0, 73, 62
1, 143346, Note_off_c, 0, 77, 58
1, 143348, Control_c, 0, 67, 15
1, 143351, Note_off_c, 0, 61, 41
1, 143357, Note_on_c, 0, 72, 66
1, 143357, Note_on_c, 0, 75, 59
1, 143366, Note_on_c, 0, 60, 45
1, 143366, Note_on_c, 0, 63, 49
1, 143378, Control_c, 0, 64, 99
1, 143378, Control_c, 0, 67, 15
1, 143393, Control_c, 0, 64, 86
1, 143393, Control_c, 0, 67, 16
1, 143408, Control_c, 0, 64, 70
1, 143423, Control_c, 0, 64, 0
1, 143423, Control_c, 0, 67, 16
1, 143467, Control_c, 0, 67, 16
1, 143482, Control_c, 0, 64, 62
1, 143497, Control_c, 0, 64, 70
1, 143506, Note_off_c, 0, 60, 53
1, 143511, Control_c, 0, 64, 79
1, 143511, Control_c, 0, 67, 15
1, 143526, Control_c, 0, 64, 90
1, 143526, Control_c, 0, 67, 14
1, 143541, Control_c, 0, 64, 98
1, 143541, Control_c, 0, 67, 14
1, 143554, Note_on_c, 0, 70, 62
1, 143556, Control_c, 0, 64, 103
1, 143556, Control_c, 0, 67, 13
1, 143560, Note_off_c, 0, 72, 58
1, 143563, Note_on_c, 0, 65, 45
1, 143563, Note_on_c, 0, 73, 63
1, 143566, Note_on_c, 0, 61, 46
1, 143570, Control_c, 0, 64, 104
1, 143570, Control_c, 0, 67, 13
1, 143574, Note_off_c, 0, 63, 28
1, 143585, Control_c, 0, 64, 107
1, 143587, Note_off_c, 0, 65, 58
1, 143590, Note_off_c, 0, 61, 61
1, 143600, Control_c, 0, 64, 109
1, 143600, Control_c, 0, 67, 12
1, 143608, Note_off_c, 0, 75, 54
1, 143615, Control_c, 0, 64, 113
1, 143615, Control_c, 0, 67, 12
1, 143630, Control_c, 0, 64, 117
1, 143645, Control_c, 0, 64, 119
1, 143659, Control_c, 0, 64, 121
1, 143659, Control_c, 0, 67, 11
1, 143674, Control_c, 0, 64, 121
1, 143689, Control_c, 0, 64, 122
1, 143703, Control_c, 0, 64, 124
1, 143712, Note_off_c, 0, 70, 56
1, 143718, Control_c, 0, 64, 127
1, 143733, Control_c, 0, 64, 127
1, 143745, Note_on_c, 0, 41, 51
1, 143746, Note_on_c, 0, 53, 54
1, 143768, Note_off_c, 0, 53, 60
1, 143777, Note_off_c, 0, 41, 55
1, 143838, Control_c, 0, 67, 11
1, 143890, Control_c, 0, 67, 11
1, 143905, Control_c, 0, 67, 12
1, 143920, Control_c, 0, 67, 13
1, 143934, Control_c, 0, 64, 117
1, 143934, Control_c, 0, 67, 13
1, 143949, Control_c, 0, 64, 100
1, 143949, Control_c, 0, 67, 14
1, 143964, Control_c, 0, 64, 81
1, 143969, Note_on_c, 0, 72, 56
1, 143977, Note_on_c, 0, 42, 50
1, 143977, Note_on_c, 0, 54, 43
1, 143979, Control_c, 0, 64, 63
1, 143987, Note_on_c, 0, 69, 43
1, 143989, Note_off_c, 0, 73, 51
1, 143994, Control_c, 0, 64, 0
1, 143994, Control_c, 0, 67, 14
1, 144022, Note_off_c, 0, 54, 44
1, 144023, Control_c, 0, 64, 52
1, 144038, Control_c, 0, 64, 71
1, 144043, Note_off_c, 0, 42, 59
1, 144052, Control_c, 0, 64, 81
1, 144067, Control_c, 0, 64, 92
1, 144081, Control_c, 0, 64, 102
1, 144096, Control_c, 0, 64, 109
1, 144096, Control_c, 0, 67, 14
1, 144111, Control_c, 0, 64, 113
1, 144125, Control_c, 0, 64, 117
1, 144133, Note_off_c, 0, 72, 63
1, 144135, Note_off_c, 0, 69, 57
1, 144140, Control_c, 0, 64, 121
1, 144155, Control_c, 0, 64, 126
1, 144155, Control_c, 0, 67, 13
1, 144169, Note_on_c, 0, 39, 52
1, 144170, Control_c, 0, 64, 127
1, 144172, Note_on_c, 0, 51, 46
1, 144196, Note_off_c, 0, 39, 57
1, 144200, Note_off_c, 0, 51, 50
1, 144244, Control_c, 0, 67, 13
1, 144288, Control_c, 0, 67, 12
1, 144318, Control_c, 0, 67, 12
1, 144362, Control_c, 0, 64, 125
1, 144362, Control_c, 0, 67, 12
1, 144377, Control_c, 0, 64, 107
1, 144377, Control_c, 0, 67, 13
1, 144392, Control_c, 0, 64, 89
1, 144406, Control_c, 0, 64, 68
1, 144413, Note_on_c, 0, 72, 56
1, 144415, Note_on_c, 0, 37, 43
1, 144421, Control_c, 0, 64, 0
1, 144421, Control_c, 0, 67, 13
1, 144425, Note_on_c, 0, 49, 42
1, 144451, Control_c, 0, 64, 27
1, 144466, Control_c, 0, 64, 67
1, 144469, Note_off_c, 0, 37, 65
1, 144472, Note_off_c, 0, 49, 59
1, 144481, Control_c, 0, 64, 77
1, 144496, Control_c, 0, 64, 89
1, 144511, Control_c, 0, 64, 104
1, 144511, Control_c, 0, 67, 13
1, 144525, Control_c, 0, 64, 113
1, 144540, Control_c, 0, 64, 119
1, 144540, Control_c, 0, 67, 12
1, 144555, Control_c, 0, 64, 127
1, 144555, Control_c, 0, 67, 12
1, 144570, Control_c, 0, 64, 127
1, 144639, Note_on_c, 0, 70, 55
1, 144640, Note_on_c, 0, 61, 53
1, 144647, Note_off_c, 0, 72, 35
1, 144658, Note_on_c, 0, 49, 42
1, 144660, Note_on_c, 0, 53, 38
1, 144666, Note_on_c, 0, 65, 41
1, 144672, Note_on_c, 0, 58, 30
1, 144684, Note_off_c, 0, 61, 59
1, 144696, Control_c, 0, 67, 12
1, 144702, Note_off_c, 0, 58, 53
1, 144704, Note_off_c, 0, 49, 58
1, 144708, Note_off_c, 0, 65, 49
1, 144711, Control_c, 0, 67, 13
1, 144712, Note_off_c, 0, 53, 46
1, 144728, Note_off_c, 0, 70, 57
1, 144810, Note_on_c, 0, 58, 46
1, 144813, Note_on_c, 0, 65, 61
1, 144819, Note_on_c, 0, 61, 51
1, 144824, Note_on_c, 0, 49, 48
1, 144831, Note_off_c, 0, 58, 59
1, 144832, Note_on_c, 0, 53, 48
1, 144841, Note_off_c, 0, 61, 61
1, 144847, Note_off_c, 0, 65, 62
1, 144859, Note_off_c, 0, 53, 54
1, 144864, Note_off_c, 0, 49, 61
1, 144964, Control_c, 0, 67, 12
1, 144979, Note_on_c, 0, 70, 77
1, 144979, Control_c, 0, 67, 12
1, 145112, Control_c, 0, 67, 12
1, 145127, Control_c, 0, 67, 13
1, 145142, Control_c, 0, 64, 114
1, 145142, Control_c, 0, 67, 14
1, 145156, Control_c, 0, 64, 89
1, 145171, Control_c, 0, 64, 64
1, 145171, Control_c, 0, 67, 14
1, 145177, Note_on_c, 0, 73, 77
1, 145184, Note_off_c, 0, 70, 57
1, 145185, Note_on_c, 0, 48, 61
1, 145186, Control_c, 0, 64, 0
1, 145186, Control_c, 0, 67, 15
1, 145187, Note_on_c, 0, 36, 60
1, 145216, Control_c, 0, 64, 47
1, 145228, Note_off_c, 0, 36, 65
1, 145230, Control_c, 0, 64, 70
1, 145232, Note_off_c, 0, 48, 65
1, 145245, Control_c, 0, 64, 81
1, 145260, Control_c, 0, 64, 96
1, 145260, Control_c, 0, 67, 14
1, 145274, Control_c, 0, 64, 112
1, 145274, Control_c, 0, 67, 14
1, 145289, Control_c, 0, 64, 123
1, 145289, Control_c, 0, 67, 13
1, 145304, Control_c, 0, 64, 127
1, 145374, Note_on_c, 0, 72, 65
1, 145378, Note_on_c, 0, 65, 65
1, 145378, Note_on_c, 0, 63, 63
1, 145380, Note_off_c, 0, 73, 58
1, 145416, Note_off_c, 0, 63, 63
1, 145417, Control_c, 0, 67, 14
1, 145450, Note_off_c, 0, 65, 60
1, 145461, Control_c, 0, 67, 13
1, 145473, Poly_aftertouch_c, 0, 57, 0
1, 145483, Note_off_c, 0, 72, 57
1, 145506, Control_c, 0, 67, 14
1, 145540, Note_on_c, 0, 63, 64
1, 145540, Note_on_c, 0, 65, 67
1, 145557, Note_on_c, 0, 51, 62
1, 145560, Note_off_c, 0, 63, 66
1, 145564, Note_on_c, 0, 53, 50
1, 145565, Note_off_c, 0, 65, 70
1, 145570, Note_on_c, 0, 57, 39
1, 145587, Note_off_c, 0, 53, 60
1, 145601, Note_off_c, 0, 51, 62
1, 145602, Note_off_c, 0, 57, 47
1, 145712, Control_c, 0, 67, 13
1, 145716, Note_on_c, 0, 72, 84
1, 145831, Control_c, 0, 67, 13
1, 145876, Control_c, 0, 67, 13
1, 145890, Control_c, 0, 64, 115
1, 145890, Control_c, 0, 67, 14
1, 145905, Control_c, 0, 64, 87
1, 145905, Control_c, 0, 67, 15
1, 145908, Note_on_c, 0, 75, 85
1, 145913, Note_on_c, 0, 46, 83
1, 145915, Note_on_c, 0, 34, 72
1, 145920, Control_c, 0, 64, 62
1, 145920, Control_c, 0, 67, 15
1, 145935, Control_c, 0, 64, 0
1, 145935, Control_c, 0, 67, 16
1, 145936, Note_off_c, 0, 72, 60
1, 145937, Note_off_c, 0, 34, 68
1, 145953, Note_off_c, 0, 46, 63
1, 145979, Control_c, 0, 64, 42
1, 145994, Control_c, 0, 64, 72
1, 146009, Control_c, 0, 64, 87
1, 146009, Control_c, 0, 67, 15
1, 146024, Control_c, 0, 64, 109
1, 146024, Control_c, 0, 67, 15
1, 146038, Control_c, 0, 64, 127
1, 146053, Control_c, 0, 67, 14
1, 146068, Control_c, 0, 67, 14
1, 146096, Note_on_c, 0, 73, 68
1, 146102, Note_on_c, 0, 65, 65
1, 146104, Note_on_c, 0, 58, 66
1, 146108, Note_on_c, 0, 70, 64
1, 146111, Note_on_c, 0, 49, 57
1, 146112, Note_on_c, 0, 53, 57
1, 146143, Note_off_c, 0, 75, 57
1, 146150, Note_off_c, 0, 65, 61
1, 146157, Note_off_c, 0, 58, 52
1, 146178, Note_off_c, 0, 53, 55
1, 146182, Note_off_c, 0, 70, 60
1, 146186, Note_off_c, 0, 49, 56
1, 146219, Note_off_c, 0, 73, 58
1, 146269, Control_c, 0, 67, 14
1, 146281, Note_on_c, 0, 70, 75
1, 146282, Note_on_c, 0, 58, 70
1, 146284, Note_on_c, 0, 65, 59
1, 146284, Control_c, 0, 67, 15
1, 146294, Note_on_c, 0, 53, 67
1, 146304, Note_off_c, 0, 65, 66
1, 146305, Note_off_c, 0, 58, 70
1, 146308, Note_off_c, 0, 70, 64
1, 146310, Note_on_c, 0, 49, 58
1, 146321, Note_off_c, 0, 53, 67
1, 146351, Note_off_c, 0, 49, 59
1, 146358, Control_c, 0, 67, 14
1, 146426, Note_on_c, 0, 70, 81
1, 146427, Note_on_c, 0, 73, 77
1, 146447, Control_c, 0, 67, 15
1, 146449, Note_off_c, 0, 70, 63
1, 146466, Note_off_c, 0, 73, 59
1, 146476, Control_c, 0, 67, 14
1, 146491, Control_c, 0, 67, 14
1, 146594, Control_c, 0, 67, 13
1, 146609, Control_c, 0, 67, 13
1, 146669, Control_c, 0, 67, 13
1, 146684, Control_c, 0, 67, 15
1, 146699, Control_c, 0, 67, 15
1, 146705, Note_on_c, 0, 80, 90
1, 146711, Note_on_c, 0, 77, 78
1, 146712, Note_on_c, 0, 71, 80
1, 146713, Control_c, 0, 64, 106
1, 146713, Control_c, 0, 67, 16
1, 146715, Note_on_c, 0, 74, 74
1, 146718, Note_on_c, 0, 31, 69
1, 146722, Note_on_c, 0, 43, 63
1, 146728, Control_c, 0, 64, 81
1, 146728, Control_c, 0, 67, 16
1, 146743, Control_c, 0, 64, 45
1, 146758, Control_c, 0, 64, 0
1, 146800, Poly_aftertouch_c, 0, 33, 127
1, 146802, Control_c, 0, 64, 66
1, 146802, Control_c, 0, 67, 16
1, 146803, Note_off_c, 0, 31, 64
1, 146817, Control_c, 0, 64, 80
1, 146817, Control_c, 0, 67, 15
1, 146831, Note_off_c, 0, 43, 58
1, 146832, Control_c, 0, 64, 98
1, 146832, Control_c, 0, 67, 15
1, 146834, Poly_aftertouch_c, 0, 33, 0
1, 146847, Control_c, 0, 64, 127
1, 146847, Control_c, 0, 67, 14
1, 146869, Control_c, 0, 67, 13
1, 146883, Control_c, 0, 67, 13
1, 146983, Note_on_c, 0, 50, 60
1, 146997, Note_on_c, 0, 47, 51
1, 147038, Note_off_c, 0, 47, 60
1, 147041, Note_off_c, 0, 50, 54
1, 147176, Note_on_c, 0, 53, 65
1, 147192, Note_on_c, 0, 50, 39
1, 147221, Note_off_c, 0, 50, 54
1, 147273, Note_off_c, 0, 53, 50
1, 147354, Note_on_c, 0, 56, 61
1, 147406, Note_off_c, 0, 56, 54
1, 147548, Note_on_c, 0, 59, 59
1, 147549, Note_on_c, 0, 56, 53
1, 147551, Note_off_c, 0, 77, 57
1, 147569, Note_off_c, 0, 80, 53
1, 147573, Note_off_c, 0, 56, 64
1, 147580, Note_off_c, 0, 74, 59
1, 147584, Note_off_c, 0, 59, 60
1, 147721, Control_c, 0, 67, 13
1, 147736, Control_c, 0, 67, 14
1, 147750, Control_c, 0, 67, 15
1, 147765, Control_c, 0, 67, 15
1, 147780, Control_c, 0, 64, 96
1, 147780, Control_c, 0, 67, 16
1, 147784, Note_on_c, 0, 80, 62
1, 147785, Note_on_c, 0, 77, 56
1, 147787, Note_on_c, 0, 59, 41
1, 147796, Control_c, 0, 64, 76
1, 147809, Note_on_c, 0, 62, 45
1, 147811, Control_c, 0, 64, 60
1, 147811, Control_c, 0, 67, 16
1, 147825, Control_c, 0, 64, 59
1, 147840, Control_c, 0, 64, 67
1, 147840, Control_c, 0, 67, 16
1, 147850, Note_off_c, 0, 59, 40
1, 147855, Control_c, 0, 64, 76
1, 147870, Control_c, 0, 64, 87
1, 147885, Control_c, 0, 64, 98
1, 147900, Control_c, 0, 64, 107
1, 147915, Control_c, 0, 64, 112
1, 147915, Control_c, 0, 67, 15
1, 147915, Note_off_c, 0, 77, 55
1, 147929, Control_c, 0, 64, 114
1, 147930, Note_off_c, 0, 80, 63
1, 147939, Note_off_c, 0, 62, 59
1, 147948, Note_off_c, 0, 71, 45
1, 147959, Control_c, 0, 64, 113
1, 147959, Control_c, 0, 67, 16
1, 147973, Control_c, 0, 64, 101
1, 147973, Control_c, 0, 67, 16
1, 147980, Note_on_c, 0, 79, 65
1, 147986, Note_on_c, 0, 63, 52
1, 147988, Control_c, 0, 64, 84
1, 147988, Control_c, 0, 67, 17
1, 147994, Note_on_c, 0, 75, 60
1, 148000, Note_on_c, 0, 60, 50
1, 148003, Control_c, 0, 64, 66
1, 148018, Control_c, 0, 64, 0
1, 148047, Control_c, 0, 64, 64
1, 148062, Control_c, 0, 64, 74
1, 148062, Control_c, 0, 67, 17
1, 148077, Control_c, 0, 64, 85
1, 148077, Control_c, 0, 67, 16
1, 148091, Control_c, 0, 64, 95
1, 148106, Control_c, 0, 64, 102
1, 148121, Control_c, 0, 64, 105
1, 148132, Note_off_c, 0, 63, 53
1, 148136, Control_c, 0, 64, 106
1, 148144, Note_off_c, 0, 60, 22
1, 148147, Note_off_c, 0, 75, 58
1, 148154, Note_off_c, 0, 79, 57
1, 148157, Note_on_c, 0, 77, 66
1, 148164, Note_on_c, 0, 74, 61
1, 148165, Control_c, 0, 67, 17
1, 148177, Note_on_c, 0, 62, 48
1, 148180, Note_on_c, 0, 65, 45
1, 148180, Control_c, 0, 64, 103
1, 148180, Control_c, 0, 67, 17
1, 148195, Control_c, 0, 64, 91
1, 148195, Control_c, 0, 67, 18
1, 148210, Control_c, 0, 64, 74
1, 148225, Control_c, 0, 64, 0
1, 148284, Control_c, 0, 67, 17
1, 148314, Control_c, 0, 64, 64
1, 148314, Control_c, 0, 67, 17
1, 148318, Note_off_c, 0, 62, 47
1, 148329, Control_c, 0, 64, 75
1, 148329, Control_c, 0, 67, 16
1, 148342, Note_off_c, 0, 65, 32
1, 148344, Control_c, 0, 64, 83
1, 148344, Control_c, 0, 67, 16
1, 148347, Note_off_c, 0, 74, 60
1, 148350, Note_on_c, 0, 75, 62
1, 148364, Note_on_c, 0, 72, 55
1, 148365, Note_on_c, 0, 63, 56
1, 148365, Control_c, 0, 64, 91
1, 148365, Control_c, 0, 67, 15
1, 148380, Control_c, 0, 64, 96
1, 148391, Note_off_c, 0, 63, 66
1, 148394, Note_off_c, 0, 77, 50
1, 148395, Control_c, 0, 64, 100
1, 148410, Control_c, 0, 64, 102
1, 148410, Control_c, 0, 67, 15
1, 148425, Control_c, 0, 64, 105
1, 148439, Control_c, 0, 64, 109
1, 148443, Poly_aftertouch_c, 0, 67, 0
1, 148454, Control_c, 0, 64, 113
1, 148469, Control_c, 0, 64, 116
1, 148484, Control_c, 0, 64, 117
1, 148484, Control_c, 0, 67, 14
1, 148493, Note_off_c, 0, 72, 59
1, 148499, Control_c, 0, 67, 14
1, 148514, Control_c, 0, 67, 13
1, 148557, Note_on_c, 0, 43, 50
1, 148562, Note_on_c, 0, 55, 50
1, 148574, Control_c, 0, 64, 117
1, 148587, Note_off_c, 0, 55, 56
1, 148593, Note_off_c, 0, 43, 50
1, 148634, Control_c, 0, 67, 13
1, 148649, Control_c, 0, 64, 119
1, 148663, Control_c, 0, 64, 121
1, 148708, Control_c, 0, 64, 119
1, 148708, Control_c, 0, 67, 13
1, 148723, Control_c, 0, 64, 103
1, 148723, Control_c, 0, 67, 14
1, 148738, Control_c, 0, 64, 84
1, 148738, Control_c, 0, 67, 15
1, 148752, Control_c, 0, 64, 65
1, 148767, Note_on_c, 0, 56, 45
1, 148767, Control_c, 0, 64, 0
1, 148770, Note_on_c, 0, 74, 49
1, 148784, Note_on_c, 0, 71, 44
1, 148785, Note_on_c, 0, 44, 34
1, 148794, Note_off_c, 0, 75, 49
1, 148807, Note_off_c, 0, 56, 64
1, 148812, Control_c, 0, 64, 58
1, 148827, Control_c, 0, 64, 71
1, 148827, Control_c, 0, 67, 14
1, 148836, Note_off_c, 0, 44, 62
1, 148842, Control_c, 0, 64, 81
1, 148857, Control_c, 0, 64, 91
1, 148871, Control_c, 0, 64, 98
1, 148871, Control_c, 0, 67, 14
1, 148886, Control_c, 0, 64, 104
1, 148901, Control_c, 0, 64, 109
1, 148915, Control_c, 0, 64, 115
1, 148915, Control_c, 0, 67, 13
1, 148929, Note_off_c, 0, 74, 63
1, 148930, Control_c, 0, 64, 122
1, 148934, Note_off_c, 0, 71, 56
1, 148945, Control_c, 0, 64, 127
1, 148959, Note_on_c, 0, 53, 55
1, 148962, Note_on_c, 0, 41, 57
1, 148983, Note_off_c, 0, 53, 62
1, 149000, Note_off_c, 0, 41, 64
1, 149204, Control_c, 0, 64, 111
1, 149206, Note_on_c, 0, 74, 52
1, 149219, Control_c, 0, 64, 91
1, 149219, Control_c, 0, 67, 14
1, 149227, Note_on_c, 0, 39, 46
1, 149234, Control_c, 0, 64, 72
1, 149234, Control_c, 0, 67, 14
1, 149235, Note_on_c, 0, 51, 35
1, 149249, Control_c, 0, 64, 0
1, 149249, Control_c, 0, 67, 15
1, 149289, Note_off_c, 0, 39, 63
1, 149293, Control_c, 0, 64, 67
1, 149295, Note_off_c, 0, 51, 61
1, 149308, Control_c, 0, 64, 78
1, 149322, Control_c, 0, 64, 92
1, 149337, Control_c, 0, 64, 108
1, 149352, Control_c, 0, 64, 120
1, 149367, Control_c, 0, 64, 127
1, 149367, Control_c, 0, 67, 14
1, 149382, Control_c, 0, 67, 14
1, 149408, Note_off_c, 0, 74, 53
1, 149433, Note_on_c, 0, 63, 53
1, 149438, Note_on_c, 0, 72, 53
1, 149441, Note_on_c, 0, 51, 49
1, 149441, Note_on_c, 0, 67, 48
1, 149460, Note_on_c, 0, 55, 32
1, 149460, Note_on_c, 0, 60, 37
1, 149460, Note_off_c, 0, 63, 58
1, 149488, Note_off_c, 0, 67, 59
1, 149491, Note_off_c, 0, 60, 49
1, 149496, Note_off_c, 0, 51, 55
1, 149505, Note_off_c, 0, 55, 47
1, 149509, Note_off_c, 0, 72, 54
1, 149599, Note_on_c, 0, 67, 62
1, 149602, Note_on_c, 0, 63, 53
1, 149603, Note_on_c, 0, 60, 43
1, 149606, Note_on_c, 0, 55, 52
1, 149610, Note_on_c, 0, 51, 55
1, 149626, Note_off_c, 0, 63, 61
1, 149629, Note_off_c, 0, 60, 52
1, 149637, Note_off_c, 0, 55, 66
1, 149645, Note_off_c, 0, 67, 58
1, 149659, Note_off_c, 0, 51, 57
1, 149775, Note_on_c, 0, 72, 77
1, 149812, Control_c, 0, 67, 13
1, 149909, Control_c, 0, 67, 13
1, 149953, Control_c, 0, 67, 13
1, 149968, Control_c, 0, 64, 117
1, 149968, Control_c, 0, 67, 14
1, 149978, Note_on_c, 0, 75, 81
1, 149983, Control_c, 0, 64, 92
1, 149983, Control_c, 0, 67, 15
1, 149991, Note_on_c, 0, 38, 63
1, 149991, Note_on_c, 0, 50, 64
1, 149998, Control_c, 0, 64, 70
1, 150001, Note_off_c, 0, 72, 60
1, 150013, Control_c, 0, 64, 0
1, 150013, Control_c, 0, 67, 15
1, 150025, Note_off_c, 0, 38, 64
1, 150026, Note_off_c, 0, 50, 65
1, 150057, Control_c, 0, 64, 65
1, 150071, Control_c, 0, 64, 77
1, 150086, Control_c, 0, 64, 91
1, 150101, Control_c, 0, 64, 108
1, 150116, Control_c, 0, 64, 127
1, 150150, Note_on_c, 0, 74, 65
1, 150160, Note_on_c, 0, 65, 61
1, 150162, Note_off_c, 0, 75, 63
1, 150165, Note_on_c, 0, 71, 56
1, 150166, Note_on_c, 0, 53, 48
1, 150167, Note_on_c, 0, 59, 56
1, 150176, Note_on_c, 0, 55, 46
1, 150199, Note_off_c, 0, 65, 60
1, 150201, Note_off_c, 0, 59, 49
1, 150209, Note_off_c, 0, 55, 56
1, 150218, Note_off_c, 0, 53, 57
1, 150236, Note_off_c, 0, 71, 55
1, 150254, Note_off_c, 0, 74, 56
1, 150331, Note_on_c, 0, 55, 57
1, 150333, Note_on_c, 0, 59, 49
1, 150335, Note_on_c, 0, 53, 58
1, 150344, Note_on_c, 0, 65, 63
1, 150352, Note_on_c, 0, 71, 63
1, 150362, Note_off_c, 0, 59, 52
1, 150365, Note_off_c, 0, 55, 66
1, 150371, Note_off_c, 0, 53, 62
1, 150377, Note_off_c, 0, 65, 65
1, 150428, Note_off_c, 0, 71, 59
1, 150428, Control_c, 0, 67, 15
1, 150502, Note_on_c, 0, 74, 86
1, 150517, Control_c, 0, 67, 14
1, 150532, Control_c, 0, 67, 14
1, 150628, Control_c, 0, 67, 13
1, 150687, Control_c, 0, 67, 14
1, 150695, Note_off_c, 0, 74, 61
1, 150702, Control_c, 0, 67, 15
1, 150710, Note_on_c, 0, 77, 84
1, 150717, Control_c, 0, 64, 95
1, 150717, Control_c, 0, 67, 16
1, 150729, Note_on_c, 0, 48, 73
1, 150732, Control_c, 0, 64, 68
1, 150733, Note_on_c, 0, 36, 67
1, 150747, Control_c, 0, 64, 0
1, 150747, Control_c, 0, 67, 16
1, 150774, Note_off_c, 0, 36, 67
1, 150775, Note_off_c, 0, 48, 65
1, 150791, Control_c, 0, 64, 67
1, 150806, Control_c, 0, 64, 80
1, 150806, Control_c, 0, 67, 16
1, 150821, Control_c, 0, 64, 102
1, 150821, Control_c, 0, 67, 15
1, 150836, Control_c, 0, 64, 127
1, 150850, Control_c, 0, 67, 15
1, 150915, Note_on_c, 0, 75, 71
1, 150920, Note_on_c, 0, 48, 52
1, 150920, Note_on_c, 0, 67, 66
1, 150920, Note_on_c, 0, 55, 61
1, 150922, Note_on_c, 0, 60, 63
1, 150927, Note_on_c, 0, 72, 61
1, 150939, Note_on_c, 0, 51, 47
1, 150943, Note_off_c, 0, 77, 46
1, 150957, Note_off_c, 0, 60, 55
1, 150965, Note_off_c, 0, 67, 58
1, 150976, Note_off_c, 0, 48, 58
1, 150991, Note_off_c, 0, 55, 58
1, 150994, Note_off_c, 0, 51, 53
1, 150994, Note_off_c, 0, 72, 60
1, 151029, Note_off_c, 0, 75, 61
1, 151044, Control_c, 0, 67, 15
1, 151083, Note_on_c, 0, 60, 67
1, 151091, Note_on_c, 0, 67, 64
1, 151092, Note_on_c, 0, 72, 73
1, 151095, Note_on_c, 0, 48, 57
1, 151095, Note_on_c, 0, 51, 60
1, 151103, Note_on_c, 0, 55, 58
1, 151107, Note_off_c, 0, 60, 69
1, 151113, Note_off_c, 0, 67, 64
1, 151139, Note_off_c, 0, 55, 62
1, 151149, Note_off_c, 0, 72, 61
1, 151161, Note_off_c, 0, 48, 45
1, 151173, Note_off_c, 0, 51, 60
1, 151245, Note_on_c, 0, 75, 88
1, 151377, Control_c, 0, 67, 15
1, 151436, Control_c, 0, 67, 15
1, 151451, Control_c, 0, 67, 16
1, 151465, Control_c, 0, 64, 99
1, 151465, Control_c, 0, 67, 17
1, 151480, Control_c, 0, 64, 73
1, 151480, Control_c, 0, 67, 17
1, 151483, Note_on_c, 0, 73, 86
1, 151492, Note_on_c, 0, 29, 70
1, 151494, Note_off_c, 0, 75, 49
1, 151495, Control_c, 0, 64, 0
1, 151495, Control_c, 0, 67, 18
1, 151497, Note_on_c, 0, 41, 73
1, 151517, Note_on_c, 0, 68, 50
1, 151535, Note_off_c, 0, 29, 64
1, 151540, Control_c, 0, 64, 53
1, 151540, Control_c, 0, 67, 17
1, 151540, Note_off_c, 0, 41, 66
1, 151542, Note_off_c, 0, 68, 39
1, 151555, Control_c, 0, 64, 73
1, 151555, Control_c, 0, 67, 17
1, 151569, Control_c, 0, 64, 88
1, 151569, Control_c, 0, 67, 16
1, 151584, Control_c, 0, 64, 121
1, 151584, Control_c, 0, 67, 16
1, 151599, Control_c, 0, 64, 127
1, 151599, Control_c, 0, 67, 15
1, 151614, Control_c, 0, 67, 15
1, 151629, Control_c, 0, 67, 14
1, 151644, Control_c, 0, 67, 14
1, 151710, Note_on_c, 0, 68, 60
1, 151713, Note_on_c, 0, 53, 64
1, 151728, Note_on_c, 0, 61, 54
1, 151730, Note_on_c, 0, 49, 44
1, 151733, Note_on_c, 0, 65, 51
1, 151734, Note_on_c, 0, 41, 25
1, 151745, Note_off_c, 0, 53, 66
1, 151755, Note_on_c, 0, 44, 25
1, 151758, Note_off_c, 0, 61, 63
1, 151769, Note_off_c, 0, 49, 59
1, 151777, Control_c, 0, 67, 13
1, 151778, Note_off_c, 0, 65, 61
1, 151784, Note_off_c, 0, 41, 49
1, 151799, Note_off_c, 0, 44, 48
1, 151807, Note_off_c, 0, 68, 59
1, 151808, Control_c, 0, 67, 13
1, 151852, Control_c, 0, 67, 12
1, 151867, Control_c, 0, 67, 12
1, 151875, Note_on_c, 0, 61, 66
1, 151879, Note_on_c, 0, 49, 61
1, 151879, Note_on_c, 0, 65, 68
1, 151882, Control_c, 0, 67, 11
1, 151884, Note_on_c, 0, 68, 60
1, 151885, Note_on_c, 0, 44, 59
1, 151888, Note_on_c, 0, 41, 53
1, 151892, Note_on_c, 0, 53, 46
1, 151897, Control_c, 0, 67, 11
1, 151901, Note_off_c, 0, 61, 65
1, 151912, Control_c, 0, 67, 10
1, 151914, Note_off_c, 0, 65, 65
1, 151915, Note_off_c, 0, 49, 61
1, 151921, Note_off_c, 0, 53, 54
1, 151928, Note_off_c, 0, 73, 60
1, 151934, Note_off_c, 0, 68, 60
1, 151939, Note_off_c, 0, 41, 62
1, 151940, Note_off_c, 0, 44, 59
1, 151941, Control_c, 0, 67, 10
1, 152036, Note_on_c, 0, 73, 86
1, 152186, Control_c, 0, 67, 10
1, 152201, Control_c, 0, 67, 11
1, 152210, Note_off_c, 0, 73, 59
1, 152215, Control_c, 0, 67, 12
1, 152230, Control_c, 0, 67, 13
1, 152244, Note_on_c, 0, 76, 94
1, 152245, Control_c, 0, 64, 112
1, 152245, Control_c, 0, 67, 15
1, 152254, Note_on_c, 0, 31, 77
1, 152256, Note_on_c, 0, 43, 74
1, 152259, Control_c, 0, 64, 80
1, 152259, Control_c, 0, 67, 15
1, 152274, Control_c, 0, 64, 0
1, 152274, Control_c, 0, 67, 16
1, 152289, Note_off_c, 0, 31, 66
1, 152289, Control_c, 0, 67, 15
1, 152307, Note_off_c, 0, 43, 61
1, 152333, Control_c, 0, 64, 65
1, 152333, Control_c, 0, 67, 15
1, 152348, Control_c, 0, 64, 81
1, 152348, Control_c, 0, 67, 14
1, 152363, Control_c, 0, 64, 108
1, 152378, Control_c, 0, 64, 127
1, 152378, Control_c, 0, 67, 13
1, 152422, Control_c, 0, 67, 13
1, 152450, Note_on_c, 0, 73, 58
1, 152451, Note_on_c, 0, 43, 55
1, 152451, Note_on_c, 0, 52, 65
1, 152451, Note_on_c, 0, 70, 62
1, 152456, Note_on_c, 0, 64, 61
1, 152486, Note_on_c, 0, 46, 39
1, 152488, Note_off_c, 0, 52, 63
1, 152491, Note_off_c, 0, 64, 61
1, 152514, Note_off_c, 0, 70, 58
1, 152522, Note_off_c, 0, 46, 53
1, 152537, Note_off_c, 0, 73, 57
1, 152538, Note_off_c, 0, 43, 52
1, 152611, Note_on_c, 0, 46, 64
1, 152611, Note_on_c, 0, 52, 63
1, 152615, Note_on_c, 0, 64, 70
1, 152617, Note_on_c, 0, 73, 62
1, 152623, Note_on_c, 0, 49, 59
1, 152625, Note_on_c, 0, 70, 69
1, 152634, Note_on_c, 0, 43, 33
1, 152637, Note_off_c, 0, 52, 66
1, 152643, Note_off_c, 0, 64, 64
1, 152657, Note_off_c, 0, 49, 62
1, 152675, Note_off_c, 0, 43, 48
1, 152681, Note_off_c, 0, 76, 58
1, 152682, Note_off_c, 0, 46, 62
1, 152687, Note_off_c, 0, 73, 62
1, 152690, Note_off_c, 0, 70, 60
1, 152750, Control_c, 0, 67, 13
1, 152770, Note_on_c, 0, 76, 92
1, 152838, Control_c, 0, 67, 13
1, 152935, Control_c, 0, 67, 13
1, 152948, Note_off_c, 0, 76, 64
1, 152950, Control_c, 0, 67, 14
1, 152964, Control_c, 0, 67, 15
1, 152979, Control_c, 0, 64, 112
1, 152979, Control_c, 0, 67, 17
1, 152979, Note_on_c, 0, 77, 90
1, 152983, Note_on_c, 0, 44, 79
1, 152986, Note_on_c, 0, 32, 72
1, 152994, Control_c, 0, 64, 81
1, 152994, Control_c, 0, 67, 17
1, 153009, Control_c, 0, 64, 0
1, 153009, Control_c, 0, 67, 18
1, 153012, Note_off_c, 0, 32, 65
1, 153025, Note_off_c, 0, 44, 63
1, 153038, Control_c, 0, 67, 17
1, 153053, Control_c, 0, 64, 61
1, 153068, Control_c, 0, 64, 74
1, 153068, Control_c, 0, 67, 16
1, 153082, Control_c, 0, 64, 89
1, 153082, Control_c, 0, 67, 16
1, 153097, Control_c, 0, 64, 114
1, 153097, Control_c, 0, 67, 15
1, 153112, Control_c, 0, 64, 127
1, 153142, Control_c, 0, 67, 15
1, 153187, Note_on_c, 0, 68, 64
1, 153189, Note_on_c, 0, 65, 59
1, 153194, Note_on_c, 0, 53, 44
1, 153196, Note_on_c, 0, 44, 41
1, 153206, Note_on_c, 0, 72, 46
1, 153212, Note_on_c, 0, 48, 40
1, 153213, Note_on_c, 0, 56, 35
1, 153228, Note_off_c, 0, 65, 63
1, 153243, Note_off_c, 0, 44, 47
1, 153245, Note_off_c, 0, 56, 48
1, 153252, Note_off_c, 0, 68, 63
1, 153253, Note_off_c, 0, 53, 65
1, 153255, Note_off_c, 0, 72, 59
1, 153270, Note_off_c, 0, 48, 59
1, 153334, Control_c, 0, 67, 15
1, 153346, Note_on_c, 0, 56, 63
1, 153349, Note_on_c, 0, 44, 55
1, 153350, Note_on_c, 0, 65, 64
1, 153350, Note_on_c, 0, 68, 74
1, 153351, Note_on_c, 0, 53, 66
1, 153353, Note_on_c, 0, 72, 67
1, 153367, Note_off_c, 0, 56, 65
1, 153370, Note_on_c, 0, 48, 41
1, 153373, Note_off_c, 0, 65, 67
1, 153381, Note_off_c, 0, 72, 67
1, 153385, Note_off_c, 0, 53, 64
1, 153387, Note_off_c, 0, 68, 63
1, 153401, Note_off_c, 0, 77, 28
1, 153412, Note_off_c, 0, 48, 60
1, 153444, Note_off_c, 0, 44, 62
1, 153500, Note_on_c, 0, 77, 87
1, 153543, Control_c, 0, 67, 15
1, 153713, Control_c, 0, 67, 15
1, 153715, Note_off_c, 0, 77, 57
1, 153728, Control_c, 0, 67, 16
1, 153743, Control_c, 0, 67, 17
1, 153752, Note_on_c, 0, 80, 93
1, 153755, Note_on_c, 0, 68, 92
1, 153757, Control_c, 0, 64, 96
1, 153757, Control_c, 0, 67, 18
1, 153763, Note_on_c, 0, 47, 79
1, 153766, Note_on_c, 0, 35, 66
1, 153772, Control_c, 0, 64, 69
1, 153787, Control_c, 0, 64, 0
1, 153787, Control_c, 0, 67, 19
1, 153796, Note_off_c, 0, 35, 64
1, 153802, Control_c, 0, 67, 18
1, 153816, Note_off_c, 0, 47, 63
1, 153832, Control_c, 0, 67, 18
1, 153847, Control_c, 0, 64, 68
1, 153847, Control_c, 0, 67, 17
1, 153861, Control_c, 0, 64, 82
1, 153861, Control_c, 0, 67, 17
1, 153876, Control_c, 0, 64, 105
1, 153876, Control_c, 0, 67, 16
1, 153891, Control_c, 0, 64, 127
1, 153891, Control_c, 0, 67, 15
1, 153906, Control_c, 0, 67, 15
1, 153935, Control_c, 0, 67, 14
1, 153951, Note_off_c, 0, 68, 60
1, 153954, Note_off_c, 0, 80, 59
1, 154014, Note_on_c, 0, 56, 54
1, 154016, Note_on_c, 0, 53, 49
1, 154017, Note_on_c, 0, 47, 48
1, 154026, Note_on_c, 0, 50, 51
1, 154039, Note_off_c, 0, 56, 60
1, 154056, Note_off_c, 0, 47, 51
1, 154083, Note_off_c, 0, 50, 53
1, 154085, Note_off_c, 0, 53, 57
1, 154098, Control_c, 0, 67, 15
1, 154142, Control_c, 0, 67, 15
1, 154187, Note_on_c, 0, 56, 60
1, 154202, Note_on_c, 0, 53, 62
1, 154208, Note_on_c, 0, 47, 43
1, 154210, Note_on_c, 0, 50, 57
1, 154218, Note_off_c, 0, 56, 62
1, 154249, Note_off_c, 0, 53, 58
1, 154269, Note_off_c, 0, 50, 59
1, 154287, Note_off_c, 0, 47, 58
1, 154367, Note_on_c, 0, 71, 83
1, 154369, Note_on_c, 0, 59, 79
1, 154473, Note_off_c, 0, 59, 59
1, 154513, Note_off_c, 0, 71, 58
1, 154547, Note_on_c, 0, 47, 75
1, 154550, Note_on_c, 0, 35, 66
1, 154580, Note_off_c, 0, 35, 64
1, 154603, Note_off_c, 0, 47, 64
1, 154640, Note_on_c, 0, 74, 80
1, 154643, Note_on_c, 0, 62, 79
1, 154665, Note_off_c, 0, 62, 67
1, 154668, Note_off_c, 0, 74, 61
1, 154744, Control_c, 0, 67, 16
1, 154767, Note_on_c, 0, 77, 82
1, 154770, Note_on_c, 0, 56, 65
1, 154772, Note_on_c, 0, 65, 76
1, 154781, Note_on_c, 0, 47, 56
1, 154783, Note_on_c, 0, 53, 53
1, 154789, Control_c, 0, 67, 16
1, 154793, Note_off_c, 0, 77, 60
1, 154795, Note_off_c, 0, 65, 67
1, 154803, Control_c, 0, 67, 16
1, 154833, Note_off_c, 0, 53, 59
1, 154833, Note_off_c, 0, 56, 58
1, 154851, Note_off_c, 0, 47, 52
1, 154872, Note_on_c, 0, 80, 87
1, 154877, Note_on_c, 0, 68, 81
1, 154897, Note_off_c, 0, 68, 71
1, 154917, Note_off_c, 0, 80, 60
1, 154922, Control_c, 0, 67, 16
1, 155000, Note_on_c, 0, 56, 68
1, 155009, Note_on_c, 0, 83, 85
1, 155010, Note_on_c, 0, 47, 52
1, 155010, Note_on_c, 0, 53, 57
1, 155010, Note_on_c, 0, 71, 79
1, 155015, Note_on_c, 0, 50, 48
1, 155028, Note_off_c, 0, 83, 64
1, 155030, Note_off_c, 0, 71, 69
1, 155038, Note_off_c, 0, 56, 56
1, 155041, Control_c, 0, 67, 16
1, 155079, Note_off_c, 0, 53, 60
1, 155111, Note_off_c, 0, 50, 62
1, 155120, Note_on_c, 0, 86, 86
1, 155123, Note_on_c, 0, 74, 83
1, 155141, Note_off_c, 0, 86, 69
1, 155142, Note_off_c, 0, 74, 73
1, 155161, Note_off_c, 0, 47, 35
1, 155227, Control_c, 0, 67, 15
1, 155228, Note_on_c, 0, 89, 92
1, 155233, Note_on_c, 0, 77, 80
1, 155245, Note_off_c, 0, 89, 70
1, 155251, Note_off_c, 0, 77, 68
1, 155284, Control_c, 0, 67, 15
1, 155325, Note_on_c, 0, 91, 93
1, 155329, Control_c, 0, 67, 15
1, 155330, Note_on_c, 0, 79, 81
1, 155346, Note_off_c, 0, 79, 67
1, 155366, Note_off_c, 0, 91, 59
1, 155388, Control_c, 0, 67, 15
1, 155477, Control_c, 0, 67, 15
1, 155492, Control_c, 0, 67, 16
1, 155499, Note_on_c, 0, 92, 93
1, 155501, Note_on_c, 0, 80, 88
1, 155512, Note_on_c, 0, 47, 57
1, 155519, Note_on_c, 0, 35, 54
1, 155522, Control_c, 0, 64, 110
1, 155522, Control_c, 0, 67, 16
1, 155537, Control_c, 0, 64, 85
1, 155537, Control_c, 0, 67, 17
1, 155552, Control_c, 0, 64, 62
1, 155552, Control_c, 0, 67, 17
1, 155566, Control_c, 0, 64, 0
1, 155566, Control_c, 0, 67, 18
1, 155581, Control_c, 0, 67, 18
1, 155596, Control_c, 0, 67, 20
1, 155606, Note_off_c, 0, 35, 65
1, 155611, Control_c, 0, 67, 22
1, 155626, Control_c, 0, 64, 49
1, 155626, Control_c, 0, 67, 29
1, 155635, Note_off_c, 0, 47, 60
1, 155640, Control_c, 0, 64, 74
1, 155640, Control_c, 0, 67, 42
1, 155655, Control_c, 0, 64, 92
1, 155655, Control_c, 0, 67, 60
1, 155670, Control_c, 0, 64, 122
1, 155670, Control_c, 0, 67, 82
1, 155684, Control_c, 0, 64, 127
1, 155684, Control_c, 0, 67, 106
1, 155699, Control_c, 0, 67, 124
1, 155714, Control_c, 0, 67, 127
1, 155780, Note_off_c, 0, 80, 59
1, 155802, Note_off_c, 0, 92, 58
1, 155895, Note_on_c, 0, 56, 39
1, 155901, Note_on_c, 0, 47, 39
1, 155901, Note_on_c, 0, 50, 31
1, 155907, Note_on_c, 0, 53, 39
1, 155949, Note_off_c, 0, 56, 43
1, 155954, Note_off_c, 0, 47, 54
1, 155957, Note_off_c, 0, 53, 59
1, 155978, Note_off_c, 0, 50, 39
1, 156199, Note_on_c, 0, 56, 33
1, 156211, Note_on_c, 0, 47, 33
1, 156220, Note_on_c, 0, 53, 33
1, 156239, Note_on_c, 0, 50, 20
1, 156241, Note_off_c, 0, 56, 49
1, 156252, Note_off_c, 0, 47, 50
1, 156265, Note_off_c, 0, 53, 61
1, 156281, Note_off_c, 0, 50, 48
1, 156616, Note_on_c, 0, 86, 56
1, 156626, Note_on_c, 0, 74, 44
1, 156668, Note_off_c, 0, 74, 54
1, 156675, Note_off_c, 0, 86, 57
1, 156870, Control_c, 0, 64, 103
1, 156881, Note_on_c, 0, 86, 62
1, 156885, Note_on_c, 0, 36, 44
1, 156885, Control_c, 0, 64, 83
1, 156890, Note_on_c, 0, 48, 41
1, 156891, Note_on_c, 0, 74, 48
1, 156900, Control_c, 0, 64, 64
1, 156915, Control_c, 0, 64, 0
1, 156959, Control_c, 0, 64, 61
1, 156974, Control_c, 0, 64, 74
1, 156984, Note_off_c, 0, 36, 61
1, 156989, Control_c, 0, 64, 87
1, 156996, Note_off_c, 0, 48, 48
1, 157004, Control_c, 0, 64, 104
1, 157014, Note_off_c, 0, 74, 59
1, 157014, Note_off_c, 0, 86, 59
1, 157019, Control_c, 0, 64, 121
1, 157033, Control_c, 0, 64, 127
1, 157156, Note_on_c, 0, 84, 55
1, 157162, Note_on_c, 0, 48, 36
1, 157164, Note_on_c, 0, 72, 49
1, 157166, Note_on_c, 0, 53, 39
1, 157177, Note_on_c, 0, 57, 31
1, 157184, Note_off_c, 0, 84, 54
1, 157187, Note_off_c, 0, 72, 57
1, 157206, Note_off_c, 0, 53, 48
1, 157211, Note_off_c, 0, 57, 48
1, 157221, Note_off_c, 0, 48, 43
1, 157326, Note_on_c, 0, 57, 37
1, 157340, Note_on_c, 0, 53, 41
1, 157361, Note_on_c, 0, 48, 37
1, 157362, Note_off_c, 0, 57, 51
1, 157378, Note_off_c, 0, 53, 59
1, 157397, Note_off_c, 0, 48, 54
1, 157530, Note_on_c, 0, 82, 63
1, 157534, Note_on_c, 0, 70, 58
1, 157574, Note_off_c, 0, 70, 58
1, 157598, Note_off_c, 0, 82, 57
1, 157722, Control_c, 0, 64, 107
1, 157737, Control_c, 0, 64, 86
1, 157751, Note_on_c, 0, 82, 62
1, 157752, Control_c, 0, 64, 67
1, 157755, Note_on_c, 0, 48, 39
1, 157756, Note_on_c, 0, 36, 39
1, 157766, Note_on_c, 0, 70, 48
1, 157767, Control_c, 0, 64, 0
1, 157797, Control_c, 0, 64, 64
1, 157798, Note_off_c, 0, 36, 64
1, 157804, Note_off_c, 0, 48, 52
1, 157811, Control_c, 0, 64, 74
1, 157823, Note_off_c, 0, 70, 56
1, 157826, Control_c, 0, 64, 86
1, 157835, Note_off_c, 0, 82, 51
1, 157841, Control_c, 0, 64, 100
1, 157856, Control_c, 0, 64, 113
1, 157870, Control_c, 0, 64, 122
1, 157885, Control_c, 0, 64, 127
1, 157958, Note_on_c, 0, 81, 61
1, 157969, Note_on_c, 0, 69, 48
1, 157971, Note_on_c, 0, 48, 38
1, 157982, Note_on_c, 0, 53, 36
1, 157992, Note_off_c, 0, 81, 47
1, 157995, Note_on_c, 0, 57, 19
1, 157996, Note_off_c, 0, 69, 54
1, 158017, Note_off_c, 0, 48, 46
1, 158021, Note_off_c, 0, 53, 50
1, 158039, Note_off_c, 0, 57, 39
1, 158148, Note_on_c, 0, 53, 47
1, 158150, Note_on_c, 0, 57, 40
1, 158166, Note_on_c, 0, 48, 35
1, 158178, Note_off_c, 0, 57, 51
1, 158180, Note_off_c, 0, 53, 63
1, 158218, Note_off_c, 0, 48, 45
1, 158333, Note_on_c, 0, 79, 58
1, 158339, Note_on_c, 0, 69, 47
1, 158342, Note_on_c, 0, 72, 46
1, 158390, Note_off_c, 0, 72, 59
1, 158390, Note_off_c, 0, 69, 55
1, 158412, Note_off_c, 0, 79, 54
1, 158501, Control_c, 0, 64, 103
1, 158516, Control_c, 0, 64, 82
1, 158529, Note_on_c, 0, 77, 56
1, 158531, Control_c, 0, 64, 62
1, 158533, Note_on_c, 0, 36, 46
1, 158533, Note_on_c, 0, 48, 46
1, 158546, Control_c, 0, 64, 0
1, 158549, Note_on_c, 0, 72, 36
1, 158552, Note_on_c, 0, 69, 34
1, 158561, Control_c, 0, 64, 39
1, 158572, Note_off_c, 0, 36, 64
1, 158575, Control_c, 0, 64, 68
1, 158576, Note_off_c, 0, 48, 65
1, 158590, Control_c, 0, 64, 78
1, 158605, Control_c, 0, 64, 90
1, 158619, Note_off_c, 0, 69, 59
1, 158620, Control_c, 0, 64, 103
1, 158624, Note_off_c, 0, 72, 59
1, 158634, Note_off_c, 0, 77, 56
1, 158635, Control_c, 0, 64, 113
1, 158649, Control_c, 0, 64, 120
1, 158664, Control_c, 0, 64, 126
1, 158679, Control_c, 0, 64, 127
1, 158712, Note_on_c, 0, 76, 65
1, 158727, Note_on_c, 0, 48, 46
1, 158730, Note_on_c, 0, 69, 54
1, 158739, Note_on_c, 0, 57, 35
1, 158747, Note_on_c, 0, 53, 28
1, 158769, Note_off_c, 0, 69, 61
1, 158771, Note_off_c, 0, 48, 60
1, 158771, Note_off_c, 0, 57, 51
1, 158784, Note_off_c, 0, 53, 52
1, 158801, Note_off_c, 0, 76, 57
1, 158900, Note_on_c, 0, 74, 68
1, 158906, Note_on_c, 0, 69, 57
1, 158907, Note_on_c, 0, 53, 42
1, 158908, Note_on_c, 0, 57, 34
1, 158920, Note_on_c, 0, 48, 39
1, 158941, Note_off_c, 0, 53, 59
1, 158944, Note_off_c, 0, 57, 43
1, 158944, Note_off_c, 0, 69, 61
1, 158966, Note_off_c, 0, 48, 61
1, 158986, Note_off_c, 0, 74, 57
1, 159074, Note_on_c, 0, 72, 69
1, 159075, Note_on_c, 0, 69, 60
1, 159108, Note_off_c, 0, 72, 61
1, 159117, Note_off_c, 0, 69, 58
1, 159310, Control_c, 0, 64, 123
1, 159324, Control_c, 0, 64, 97
1, 159325, Note_on_c, 0, 80, 76
1, 159339, Control_c, 0, 64, 73
1, 159344, Note_on_c, 0, 48, 47
1, 159353, Note_on_c, 0, 36, 45
1, 159354, Note_on_c, 0, 71, 51
1, 159354, Control_c, 0, 64, 0
1, 159413, Note_off_c, 0, 48, 62
1, 159413, Control_c, 0, 64, 56
1, 159420, Note_off_c, 0, 36, 63
1, 159428, Control_c, 0, 64, 77
1, 159443, Note_off_c, 0, 71, 58
1, 159443, Control_c, 0, 64, 93
1, 159457, Control_c, 0, 64, 114
1, 159472, Control_c, 0, 64, 127
1, 159539, Note_off_c, 0, 80, 60
1, 159580, Note_on_c, 0, 71, 55
1, 159588, Note_on_c, 0, 53, 45
1, 159601, Note_on_c, 0, 56, 45
1, 159615, Note_on_c, 0, 59, 22
1, 159635, Note_off_c, 0, 53, 49
1, 159637, Note_off_c, 0, 56, 56
1, 159648, Note_off_c, 0, 71, 53
1, 159652, Note_off_c, 0, 59, 43
1, 159746, Note_on_c, 0, 56, 45
1, 159749, Note_on_c, 0, 59, 41
1, 159750, Note_on_c, 0, 53, 43
1, 159776, Note_off_c, 0, 59, 54
1, 159779, Note_off_c, 0, 56, 60
1, 159786, Note_off_c, 0, 53, 59
1, 159832, Note_on_c, 0, 75, 57
1, 159866, Note_on_c, 0, 74, 63
1, 159877, Note_off_c, 0, 75, 54
1, 159926, Note_off_c, 0, 74, 60
1, 159931, Note_on_c, 0, 73, 66
1, 159971, Note_on_c, 0, 74, 39
1, 159972, Note_off_c, 0, 73, 52
1, 160073, Control_c, 0, 64, 103
1, 160088, Control_c, 0, 64, 83
1, 160093, Note_off_c, 0, 74, 60
1, 160103, Control_c, 0, 64, 54
1, 160111, Note_on_c, 0, 36, 48
1, 160112, Note_on_c, 0, 77, 71
1, 160116, Note_on_c, 0, 48, 44
1, 160118, Control_c, 0, 64, 0
1, 160147, Control_c, 0, 64, 47
1, 160153, Note_off_c, 0, 36, 64
1, 160162, Control_c, 0, 64, 70
1, 160163, Note_off_c, 0, 48, 65
1, 160177, Control_c, 0, 64, 81
1, 160192, Control_c, 0, 64, 97
1, 160207, Control_c, 0, 64, 109
1, 160221, Control_c, 0, 64, 120
1, 160236, Control_c, 0, 64, 126
1, 160251, Control_c, 0, 64, 127
1, 160354, Note_on_c, 0, 56, 42
1, 160356, Note_on_c, 0, 68, 59
1, 160360, Note_on_c, 0, 53, 36
1, 160361, Note_off_c, 0, 77, 52
1, 160405, Poly_aftertouch_c, 0, 59, 127
1, 160408, Note_off_c, 0, 56, 42
1, 160423, Note_off_c, 0, 53, 42
1, 160427, Note_off_c, 0, 68, 61
1, 160442, Poly_aftertouch_c, 0, 59, 0
1, 160533, Note_on_c, 0, 56, 44
1, 160560, Note_off_c, 0, 56, 56
1, 160563, Note_on_c, 0, 53, 28
1, 160609, Note_off_c, 0, 53, 39
1, 160696, Note_on_c, 0, 65, 58
1, 160867, Control_c, 0, 64, 112
1, 160882, Control_c, 0, 64, 90
1, 160896, Control_c, 0, 64, 70
1, 160903, Note_off_c, 0, 65, 58
1, 160904, Note_on_c, 0, 48, 48
1, 160906, Note_on_c, 0, 36, 40
1, 160911, Control_c, 0, 64, 0
1, 160913, Note_on_c, 0, 68, 49
1, 160938, Note_off_c, 0, 36, 63
1, 160943, Note_off_c, 0, 48, 66
1, 160956, Control_c, 0, 64, 59
1, 160970, Control_c, 0, 64, 74
1, 160985, Control_c, 0, 64, 87
1, 161000, Control_c, 0, 64, 103
1, 161015, Control_c, 0, 64, 116
1, 161029, Control_c, 0, 64, 125
1, 161044, Control_c, 0, 64, 127
1, 161151, Note_on_c, 0, 56, 38
1, 161154, Note_on_c, 0, 59, 44
1, 161159, Note_on_c, 0, 50, 34
1, 161184, Note_off_c, 0, 56, 52
1, 161184, Note_off_c, 0, 59, 55
1, 161202, Poly_aftertouch_c, 0, 53, 127
1, 161213, Note_off_c, 0, 50, 43
1, 161219, Note_off_c, 0, 68, 36
1, 161238, Poly_aftertouch_c, 0, 53, 0
1, 161347, Note_on_c, 0, 50, 35
1, 161356, Note_on_c, 0, 53, 31
1, 161384, Note_off_c, 0, 50, 53
1, 161393, Note_off_c, 0, 53, 48
1, 161401, Poly_aftertouch_c, 0, 56, 0
1, 161507, Note_on_c, 0, 71, 55
1, 161734, Control_c, 0, 64, 112
1, 161738, Note_on_c, 0, 74, 57
1, 161749, Note_off_c, 0, 71, 56
1, 161749, Note_on_c, 0, 36, 45
1, 161749, Control_c, 0, 64, 91
1, 161759, Note_on_c, 0, 48, 41
1, 161764, Control_c, 0, 64, 72
1, 161779, Control_c, 0, 64, 0
1, 161824, Control_c, 0, 64, 62
1, 161828, Note_off_c, 0, 36, 63
1, 161829, Note_off_c, 0, 48, 44
1, 161845, Control_c, 0, 64, 74
1, 161860, Control_c, 0, 64, 85
1, 161875, Control_c, 0, 64, 100
1, 161890, Control_c, 0, 64, 112
1, 161905, Control_c, 0, 64, 121
1, 161920, Control_c, 0, 64, 127
1, 161964, Note_off_c, 0, 74, 57
1, 161973, Note_on_c, 0, 72, 55
1, 161977, Note_on_c, 0, 48, 45
1, 161993, Note_on_c, 0, 52, 42
1, 162015, Note_on_c, 0, 55, 11
1, 162032, Note_off_c, 0, 52, 52
1, 162037, Note_off_c, 0, 72, 55
1, 162046, Note_off_c, 0, 48, 54
1, 162062, Note_off_c, 0, 55, 52
1, 162164, Note_on_c, 0, 55, 44
1, 162172, Note_on_c, 0, 52, 41
1, 162191, Note_off_c, 0, 55, 57
1, 162192, Note_on_c, 0, 48, 35
1, 162205, Note_off_c, 0, 52, 55
1, 162225, Note_off_c, 0, 48, 51
1, 162336, Note_on_c, 0, 67, 54
1, 162527, Control_c, 0, 64, 111
1, 162542, Control_c, 0, 64, 92
1, 162548, Note_on_c, 0, 43, 48
1, 162550, Note_on_c, 0, 72, 58
1, 162557, Control_c, 0, 64, 73
1, 162558, Note_off_c, 0, 67, 54
1, 162572, Control_c, 0, 64, 0
1, 162651, Note_off_c, 0, 43, 59
1, 162653, Control_c, 0, 64, 65
1, 162667, Control_c, 0, 64, 75
1, 162682, Control_c, 0, 64, 86
1, 162697, Control_c, 0, 64, 97
1, 162712, Control_c, 0, 64, 103
1, 162727, Control_c, 0, 64, 108
1, 162742, Control_c, 0, 64, 113
1, 162748, Note_off_c, 0, 72, 56
1, 162757, Control_c, 0, 64, 119
1, 162766, Note_on_c, 0, 64, 48
1, 162772, Control_c, 0, 64, 126
1, 162781, Note_on_c, 0, 55, 27
1, 162782, Note_on_c, 0, 52, 34
1, 162785, Note_on_c, 0, 48, 27
1, 162787, Control_c, 0, 64, 127
1, 162810, Note_off_c, 0, 64, 61
1, 162820, Note_off_c, 0, 52, 51
1, 162826, Note_off_c, 0, 55, 47
1, 162835, Note_off_c, 0, 48, 47
1, 162942, Note_on_c, 0, 55, 46
1, 162950, Note_on_c, 0, 52, 42
1, 162970, Note_on_c, 0, 48, 36
1, 162970, Note_off_c, 0, 55, 59
1, 162985, Note_off_c, 0, 52, 63
1, 163007, Note_off_c, 0, 48, 50
1, 163123, Note_on_c, 0, 64, 48
1, 163300, Note_off_c, 0, 64, 51
1, 163305, Control_c, 0, 64, 125
1, 163320, Control_c, 0, 64, 107
1, 163332, Note_on_c, 0, 67, 48
1, 163342, Note_on_c, 0, 40, 50
1, 163343, Control_c, 0, 64, 91
1, 163358, Control_c, 0, 64, 72
1, 163372, Control_c, 0, 64, 0
1, 163416, Control_c, 0, 64, 57
1, 163419, Note_off_c, 0, 40, 63
1, 163431, Control_c, 0, 64, 72
1, 163446, Control_c, 0, 64, 82
1, 163461, Control_c, 0, 64, 96
1, 163476, Control_c, 0, 64, 104
1, 163490, Control_c, 0, 64, 109
1, 163505, Control_c, 0, 64, 113
1, 163520, Control_c, 0, 64, 117
1, 163522, Note_off_c, 0, 67, 55
1, 163535, Control_c, 0, 64, 122
1, 163550, Control_c, 0, 64, 127
1, 163556, Note_on_c, 0, 60, 44
1, 163571, Note_on_c, 0, 52, 36
1, 163577, Note_on_c, 0, 48, 28
1, 163595, Note_off_c, 0, 60, 61
1, 163607, Note_off_c, 0, 52, 53
1, 163614, Poly_aftertouch_c, 0, 55, 127
1, 163620, Note_off_c, 0, 48, 48
1, 163653, Poly_aftertouch_c, 0, 55, 0
1, 163737, Note_on_c, 0, 48, 43
1, 163739, Note_on_c, 0, 52, 40
1, 163773, Note_off_c, 0, 52, 58
1, 163789, Note_off_c, 0, 48, 60
1, 163915, Note_on_c, 0, 60, 48
1, 164205, Note_off_c, 0, 60, 36
1, 164232, Note_on_c, 0, 64, 47
1, 164239, Control_c, 0, 64, 121
1, 164244, Note_on_c, 0, 55, 41
1, 164254, Control_c, 0, 64, 107
1, 164259, Note_on_c, 0, 52, 33
1, 164266, Note_on_c, 0, 48, 37
1, 164269, Control_c, 0, 64, 93
1, 164281, Note_on_c, 0, 36, 30
1, 164284, Control_c, 0, 64, 78
1, 164299, Control_c, 0, 64, 60
1, 164313, Control_c, 0, 64, 0
1, 164386, Note_off_c, 0, 48, 52
1, 164390, Note_off_c, 0, 36, 50
1, 164402, Control_c, 0, 64, 64
1, 164417, Control_c, 0, 64, 75
1, 164432, Control_c, 0, 64, 87
1, 164447, Control_c, 0, 64, 98
1, 164462, Control_c, 0, 64, 105
1, 164477, Control_c, 0, 64, 111
1, 164492, Control_c, 0, 64, 114
1, 164507, Control_c, 0, 64, 119
1, 164521, Control_c, 0, 64, 124
1, 164524, Note_off_c, 0, 52, 41
1, 164531, Note_on_c, 0, 48, 41
1, 164536, Note_on_c, 0, 60, 40
1, 164536, Control_c, 0, 64, 127
1, 164546, Note_on_c, 0, 36, 34
1, 164551, Note_off_c, 0, 64, 35
1, 164556, Note_off_c, 0, 55, 43
1, 164590, Note_off_c, 0, 48, 44
1, 164593, Note_off_c, 0, 36, 48
1, 164606, Note_off_c, 0, 60, 55
1, 164928, Note_on_c, 0, 48, 34
1, 164975, Note_off_c, 0, 48, 47
1, 164977, Poly_aftertouch_c, 0, 36, 127
1, 165022, Poly_aftertouch_c, 0, 36, 0
1, 165179, Note_on_c, 0, 36, 15
1, 165185, Note_on_c, 0, 48, 20
1, 165226, Note_off_c, 0, 36, 48
1, 165226, Note_off_c, 0, 48, 52
1, 165434, Note_on_c, 0, 48, 30
1, 165482, Poly_aftertouch_c, 0, 36, 127
1, 165483, Note_off_c, 0, 48, 47
1, 165527, Poly_aftertouch_c, 0, 36, 0
1, 165822, Note_on_c, 0, 48, 35
1, 165850, Note_on_c, 0, 36, 18
1, 165878, Note_off_c, 0, 48, 45
1, 165896, Note_off_c, 0, 36, 48
1, 166095, Note_on_c, 0, 48, 28
1, 166103, Note_on_c, 0, 36, 18
1, 166137, Note_off_c, 0, 48, 49
1, 166152, Note_off_c, 0, 36, 48
1, 166519, Note_on_c, 0, 48, 27
1, 166544, Note_on_c, 0, 36, 13
1, 166704, Note_off_c, 0, 48, 38
1, 166714, Note_off_c, 0, 36, 36
1, 167753, Control_c, 0, 64, 127
1, 167769, Control_c, 0, 64, 126
1, 167784, Control_c, 0, 64, 126
1, 167814, Control_c, 0, 64, 125
1, 167851, Control_c, 0, 64, 125
1, 167895, Control_c, 0, 64, 124
1, 167925, Control_c, 0, 64, 124
1, 167940, Control_c, 0, 64, 123
1, 167955, Control_c, 0, 64, 122
1, 167969, Control_c, 0, 64, 120
1, 167984, Control_c, 0, 64, 118
1, 167999, Control_c, 0, 64, 115
1, 168014, Control_c, 0, 64, 112
1, 168029, Control_c, 0, 64, 107
1, 168044, Control_c, 0, 64, 102
1, 168059, Control_c, 0, 64, 97
1, 168074, Control_c, 0, 64, 92
1, 168088, Control_c, 0, 64, 85
1, 168103, Control_c, 0, 64, 77
1, 168118, Control_c, 0, 64, 69
1, 168133, Control_c, 0, 64, 60
1, 168148, Control_c, 0, 64, 41
1, 168162, Control_c, 0, 64, 38
1, 168177, Control_c, 0, 64, 35
1, 168192, Control_c, 0, 64, 18
1, 168206, Control_c, 0, 64, 0
1, 168674, Note_on_c, 0, 72, 43
1, 168674, Control_c, 0, 64, 65
1, 168686, Note_on_c, 0, 69, 36
1, 168689, Control_c, 0, 64, 73
1, 168704, Control_c, 0, 64, 81
1, 168719, Control_c, 0, 64, 90
1, 168733, Control_c, 0, 64, 97
1, 168748, Control_c, 0, 64, 104
1, 168762, Control_c, 0, 64, 111
1, 168777, Control_c, 0, 64, 117
1, 168791, Control_c, 0, 64, 124
1, 168806, Control_c, 0, 64, 127
1, 168847, Note_on_c, 0, 77, 57
1, 168868, Note_off_c, 0, 77, 62
1, 168897, Note_on_c, 0, 79, 49
1, 168928, Note_off_c, 0, 79, 55
1, 168945, Note_on_c, 0, 77, 63
1, 168985, Note_off_c, 0, 77, 58
1, 169002, Note_on_c, 0, 76, 59
1, 169142, Note_off_c, 0, 69, 32
1, 169155, Note_off_c, 0, 76, 64
1, 169190, Note_on_c, 0, 77, 63
1, 169405, Note_off_c, 0, 72, 51
1, 169414, Note_on_c, 0, 86, 67
1, 169420, Note_on_c, 0, 69, 43
1, 169425, Note_on_c, 0, 65, 38
1, 169466, Control_c, 0, 64, 105
1, 169475, Note_off_c, 0, 77, 31
1, 169481, Control_c, 0, 64, 86
1, 169496, Control_c, 0, 64, 70
1, 169511, Control_c, 0, 64, 0
1, 169585, Control_c, 0, 64, 53
1, 169600, Control_c, 0, 64, 69
1, 169610, Note_on_c, 0, 84, 67
1, 169614, Control_c, 0, 64, 77
1, 169629, Control_c, 0, 64, 87
1, 169637, Note_off_c, 0, 86, 37
1, 169644, Control_c, 0, 64, 94
1, 169658, Control_c, 0, 64, 102
1, 169673, Control_c, 0, 64, 111
1, 169688, Control_c, 0, 64, 121
1, 169703, Control_c, 0, 64, 127
1, 169718, Control_c, 0, 67, 121
1, 169732, Control_c, 0, 67, 108
1, 169747, Control_c, 0, 67, 90
1, 169762, Control_c, 0, 67, 67
1, 169777, Control_c, 0, 67, 49
1, 169792, Control_c, 0, 67, 38
1, 169807, Control_c, 0, 67, 31
1, 169809, Note_on_c, 0, 81, 65
1, 169822, Control_c, 0, 67, 25
1, 169824, Note_off_c, 0, 84, 57
1, 169836, Control_c, 0, 67, 19
1, 169851, Control_c, 0, 67, 10
1, 169866, Control_c, 0, 67, 0
1, 169948, Note_off_c, 0, 81, 55
1, 169977, Note_on_c, 0, 77, 61
1, 170203, Note_off_c, 0, 77, 56
1, 170205, Note_off_c, 0, 69, 59
1, 170209, Note_on_c, 0, 70, 56
1, 170209, Note_on_c, 0, 74, 50
1, 170218, Note_on_c, 0, 78, 55
1, 170245, Control_c, 0, 64, 105
1, 170260, Control_c, 0, 64, 89
1, 170275, Control_c, 0, 64, 73
1, 170287, Note_off_c, 0, 65, 36
1, 170289, Control_c, 0, 64, 38
1, 170304, Control_c, 0, 64, 0
1, 170385, Note_off_c, 0, 78, 62
1, 170403, Note_on_c, 0, 79, 55
1, 170407, Control_c, 0, 64, 64
1, 170422, Control_c, 0, 64, 74
1, 170437, Control_c, 0, 64, 88
1, 170452, Control_c, 0, 64, 101
1, 170467, Control_c, 0, 64, 113
1, 170481, Control_c, 0, 64, 121
1, 170496, Control_c, 0, 64, 127
1, 170588, Note_off_c, 0, 70, 61
1, 170588, Note_off_c, 0, 74, 56
1, 170592, Note_on_c, 0, 82, 63
1, 170622, Note_off_c, 0, 79, 39
1, 170767, Note_off_c, 0, 82, 56
1, 170776, Note_on_c, 0, 86, 46
1, 170889, Note_off_c, 0, 86, 43
1, 170999, Note_on_c, 0, 86, 50
1, 171001, Note_on_c, 0, 67, 52
1, 171012, Note_on_c, 0, 60, 46
1, 171112, Control_c, 0, 64, 111
1, 171127, Control_c, 0, 64, 92
1, 171142, Control_c, 0, 64, 73
1, 171157, Control_c, 0, 64, 0
1, 171206, Note_on_c, 0, 75, 53
1, 171217, Control_c, 0, 64, 18
1, 171231, Control_c, 0, 64, 67
1, 171246, Control_c, 0, 64, 75
1, 171261, Control_c, 0, 64, 85
1, 171276, Control_c, 0, 64, 93
1, 171276, Note_off_c, 0, 86, 40
1, 171291, Control_c, 0, 64, 100
1, 171305, Control_c, 0, 64, 105
1, 171320, Control_c, 0, 64, 111
1, 171335, Control_c, 0, 64, 115
1, 171350, Control_c, 0, 64, 119
1, 171365, Control_c, 0, 64, 123
1, 171375, Note_off_c, 0, 75, 59
1, 171379, Control_c, 0, 64, 127
1, 171387, Note_on_c, 0, 76, 61
1, 171552, Note_on_c, 0, 77, 61
1, 171563, Note_off_c, 0, 67, 57
1, 171573, Note_on_c, 0, 69, 53
1, 171586, Note_off_c, 0, 76, 35
1, 171626, Note_off_c, 0, 60, 36
1, 171647, Note_off_c, 0, 69, 54
1, 171756, Note_off_c, 0, 77, 58
1, 171776, Note_on_c, 0, 60, 46
1, 171783, Note_on_c, 0, 69, 56
1, 171783, Note_on_c, 0, 78, 61
1, 171788, Control_c, 0, 64, 106
1, 171802, Control_c, 0, 64, 87
1, 171817, Control_c, 0, 64, 68
1, 171820, Note_off_c, 0, 78, 60
1, 171832, Control_c, 0, 64, 0
1, 171857, Note_on_c, 0, 79, 36
1, 171861, Control_c, 0, 64, 56
1, 171865, Note_off_c, 0, 69, 54
1, 171876, Control_c, 0, 64, 71
1, 171884, Note_on_c, 0, 70, 56
1, 171887, Note_off_c, 0, 79, 55
1, 171891, Control_c, 0, 64, 81
1, 171896, Note_on_c, 0, 78, 63
1, 171906, Control_c, 0, 64, 94
1, 171921, Control_c, 0, 64, 104
1, 171930, Note_off_c, 0, 78, 63
1, 171935, Note_off_c, 0, 70, 57
1, 171935, Control_c, 0, 64, 112
1, 171940, Note_on_c, 0, 69, 44
1, 171950, Control_c, 0, 64, 116
1, 171965, Control_c, 0, 64, 121
1, 171973, Note_on_c, 0, 79, 24
1, 171980, Control_c, 0, 64, 127
1, 171992, Note_on_c, 0, 78, 55
1, 171996, Note_off_c, 0, 79, 0
1, 172010, Note_off_c, 0, 69, 52
1, 172019, Note_off_c, 0, 78, 62
1, 172025, Note_on_c, 0, 79, 30
1, 172088, Note_off_c, 0, 79, 55
1, 172096, Note_on_c, 0, 78, 68
1, 172113, Note_on_c, 0, 69, 40
1, 172231, Note_off_c, 0, 78, 51
1, 172237, Note_off_c, 0, 69, 57
1, 172260, Note_on_c, 0, 67, 57
1, 172268, Note_on_c, 0, 76, 52
1, 172338, Note_off_c, 0, 67, 61
1, 172354, Note_off_c, 0, 76, 57
1, 172359, Note_on_c, 0, 78, 59
1, 172361, Note_off_c, 0, 60, 34
1, 172370, Note_on_c, 0, 69, 56
1, 172543, Note_off_c, 0, 78, 49
1, 172553, Note_off_c, 0, 69, 60
1, 172558, Note_on_c, 0, 81, 56
1, 172563, Note_on_c, 0, 70, 53
1, 172570, Note_on_c, 0, 60, 50
1, 172580, Control_c, 0, 64, 115
1, 172595, Control_c, 0, 64, 98
1, 172609, Control_c, 0, 64, 82
1, 172624, Control_c, 0, 64, 65
1, 172639, Control_c, 0, 64, 0
1, 172743, Note_off_c, 0, 81, 52
1, 172743, Control_c, 0, 64, 64
1, 172758, Control_c, 0, 64, 73
1, 172761, Note_on_c, 0, 79, 53
1, 172773, Control_c, 0, 64, 82
1, 172788, Control_c, 0, 64, 92
1, 172802, Control_c, 0, 64, 99
1, 172817, Control_c, 0, 64, 106
1, 172832, Control_c, 0, 64, 113
1, 172847, Control_c, 0, 64, 120
1, 172862, Control_c, 0, 64, 127
1, 172954, Note_off_c, 0, 79, 54
1, 172954, Note_on_c, 0, 78, 59
1, 172961, Note_off_c, 0, 60, 36
1, 173128, Note_off_c, 0, 78, 50
1, 173141, Note_on_c, 0, 79, 49
1, 173207, Note_off_c, 0, 79, 49
1, 173376, Note_on_c, 0, 72, 61
1, 173386, Note_on_c, 0, 60, 40
1, 173444, Note_off_c, 0, 70, 36
1, 173492, Control_c, 0, 64, 108
1, 173506, Control_c, 0, 64, 88
1, 173521, Control_c, 0, 64, 72
1, 173536, Control_c, 0, 64, 27
1, 173551, Control_c, 0, 64, 0
1, 173571, Note_on_c, 0, 81, 53
1, 173625, Control_c, 0, 64, 62
1, 173640, Control_c, 0, 64, 71
1, 173655, Control_c, 0, 64, 79
1, 173670, Control_c, 0, 64, 88
1, 173685, Control_c, 0, 64, 97
1, 173699, Control_c, 0, 64, 103
1, 173714, Control_c, 0, 64, 108
1, 173729, Control_c, 0, 64, 112
1, 173744, Control_c, 0, 64, 117
1, 173756, Note_off_c, 0, 81, 52
1, 173759, Control_c, 0, 64, 122
1, 173769, Note_on_c, 0, 79, 52
1, 173773, Control_c, 0, 64, 127
1, 173798, Note_off_c, 0, 72, 62
1, 173950, Note_off_c, 0, 79, 50
1, 173951, Note_on_c, 0, 77, 51
1, 174147, Note_on_c, 0, 65, 48
1, 174150, Note_off_c, 0, 77, 49
1, 174160, Note_on_c, 0, 72, 54
1, 174182, Control_c, 0, 64, 112
1, 174197, Control_c, 0, 64, 97
1, 174211, Control_c, 0, 64, 83
1, 174226, Control_c, 0, 64, 70
1, 174241, Control_c, 0, 64, 48
1, 174255, Control_c, 0, 64, 0
1, 174285, Control_c, 0, 64, 43
1, 174300, Control_c, 0, 64, 56
1, 174315, Control_c, 0, 64, 63
1, 174329, Control_c, 0, 64, 68
1, 174344, Control_c, 0, 64, 74
1, 174352, Note_on_c, 0, 77, 53
1, 174359, Control_c, 0, 64, 83
1, 174373, Control_c, 0, 64, 90
1, 174388, Control_c, 0, 64, 95
1, 174403, Note_off_c, 0, 72, 27
1, 174403, Control_c, 0, 64, 99
1, 174418, Control_c, 0, 64, 102
1, 174433, Control_c, 0, 64, 105
1, 174448, Control_c, 0, 64, 110
1, 174463, Control_c, 0, 64, 114
1, 174478, Control_c, 0, 64, 119
1, 174493, Control_c, 0, 64, 125
1, 174507, Control_c, 0, 64, 127
1, 174531, Note_off_c, 0, 77, 53
1, 174534, Note_on_c, 0, 81, 63
1, 174702, Note_on_c, 0, 82, 65
1, 174709, Note_on_c, 0, 67, 47
1, 174718, Note_off_c, 0, 81, 48
1, 174727, Note_off_c, 0, 65, 36
1, 174770, Note_off_c, 0, 60, 37
1, 174824, Note_off_c, 0, 82, 53
1, 174931, Note_off_c, 0, 67, 55
1, 174936, Note_on_c, 0, 86, 66
1, 174960, Note_on_c, 0, 69, 40
1, 174961, Control_c, 0, 64, 104
1, 174963, Note_on_c, 0, 72, 38
1, 174967, Note_on_c, 0, 60, 22
1, 174968, Note_on_c, 0, 77, 43
1, 174975, Control_c, 0, 64, 87
1, 174990, Control_c, 0, 64, 71
1, 175005, Control_c, 0, 64, 29
1, 175020, Control_c, 0, 64, 0
1, 175050, Control_c, 0, 64, 53
1, 175065, Control_c, 0, 64, 66
1, 175072, Note_off_c, 0, 86, 58
1, 175079, Control_c, 0, 64, 72
1, 175094, Control_c, 0, 64, 79
1, 175109, Control_c, 0, 64, 88
1, 175116, Note_on_c, 0, 84, 59
1, 175124, Control_c, 0, 64, 94
1, 175139, Control_c, 0, 64, 98
1, 175152, Note_off_c, 0, 72, 16
1, 175153, Control_c, 0, 64, 100
1, 175167, Note_off_c, 0, 77, 33
1, 175168, Control_c, 0, 64, 102
1, 175171, Note_off_c, 0, 84, 54
1, 175183, Control_c, 0, 64, 104
1, 175197, Control_c, 0, 64, 106
1, 175212, Control_c, 0, 64, 109
1, 175227, Control_c, 0, 64, 112
1, 175242, Control_c, 0, 64, 115
1, 175257, Control_c, 0, 64, 120
1, 175271, Control_c, 0, 64, 122
1, 175309, Note_on_c, 0, 84, 60
1, 175316, Control_c, 0, 64, 114
1, 175328, Note_on_c, 0, 67, 47
1, 175330, Note_off_c, 0, 69, 50
1, 175338, Note_on_c, 0, 72, 46
1, 175339, Note_on_c, 0, 76, 46
1, 175339, Control_c, 0, 64, 99
1, 175353, Control_c, 0, 64, 84
1, 175368, Control_c, 0, 64, 69
1, 175383, Control_c, 0, 64, 55
1, 175398, Control_c, 0, 64, 58
1, 175412, Control_c, 0, 64, 65
1, 175426, Note_off_c, 0, 60, 50
1, 175427, Control_c, 0, 64, 70
1, 175442, Control_c, 0, 64, 76
1, 175457, Control_c, 0, 64, 82
1, 175471, Control_c, 0, 64, 87
1, 175486, Control_c, 0, 64, 89
1, 175501, Control_c, 0, 64, 90
1, 175513, Note_off_c, 0, 76, 40
1, 175515, Note_on_c, 0, 82, 48
1, 175516, Control_c, 0, 64, 92
1, 175524, Note_off_c, 0, 84, 34
1, 175531, Control_c, 0, 64, 94
1, 175545, Control_c, 0, 64, 96
1, 175551, Note_off_c, 0, 72, 40
1, 175560, Control_c, 0, 64, 96
1, 175565, Note_off_c, 0, 82, 50
1, 175590, Control_c, 0, 64, 97
1, 175604, Control_c, 0, 64, 98
1, 175619, Control_c, 0, 64, 99
1, 175634, Control_c, 0, 64, 99
1, 175664, Control_c, 0, 64, 100
1, 175703, Note_on_c, 0, 82, 52
1, 175706, Note_off_c, 0, 67, 37
1, 175709, Control_c, 0, 64, 99
1, 175709, Note_on_c, 0, 65, 42
1, 175716, Note_on_c, 0, 60, 32
1, 175723, Control_c, 0, 64, 95
1, 175730, Note_on_c, 0, 72, 39
1, 175738, Control_c, 0, 64, 86
1, 175738, Control_c, 0, 67, 8
1, 175754, Control_c, 0, 64, 72
1, 175754, Control_c, 0, 67, 16
1, 175769, Control_c, 0, 64, 24
1, 175769, Control_c, 0, 67, 28
1, 175783, Control_c, 0, 64, 0
1, 175783, Control_c, 0, 67, 45
1, 175798, Control_c, 0, 67, 64
1, 175813, Control_c, 0, 67, 83
1, 175828, Control_c, 0, 67, 102
1, 175843, Control_c, 0, 67, 123
1, 175858, Control_c, 0, 64, 63
1, 175858, Control_c, 0, 67, 127
1, 175865, Note_off_c, 0, 72, 42
1, 175873, Control_c, 0, 64, 72
1, 175888, Control_c, 0, 64, 80
1, 175902, Control_c, 0, 64, 85
1, 175914, Note_on_c, 0, 81, 62
1, 175917, Control_c, 0, 64, 89
1, 175932, Control_c, 0, 64, 92
1, 175936, Note_off_c, 0, 82, 37
1, 175947, Control_c, 0, 64, 94
1, 175962, Note_off_c, 0, 65, 56
1, 175962, Control_c, 0, 64, 95
1, 175976, Control_c, 0, 64, 96
1, 176001, Note_off_c, 0, 60, 57
1, 176006, Control_c, 0, 64, 97
1, 176105, Note_on_c, 0, 79, 58
1, 176112, Note_off_c, 0, 81, 51
1, 176248, Note_off_c, 0, 79, 57
1, 176277, Note_on_c, 0, 77, 55
1, 176308, Control_c, 0, 64, 96
1, 176338, Control_c, 0, 64, 95
1, 176353, Control_c, 0, 64, 93
1, 176368, Control_c, 0, 64, 89
1, 176382, Control_c, 0, 64, 85
1, 176397, Control_c, 0, 64, 81
1, 176412, Control_c, 0, 64, 76
1, 176427, Control_c, 0, 64, 71
1, 176442, Control_c, 0, 64, 65
1, 176457, Control_c, 0, 64, 54
1, 176472, Control_c, 0, 64, 0
1, 176476, Note_off_c, 0, 77, 54
1, 176491, Note_on_c, 0, 76, 54
1, 176493, Note_on_c, 0, 58, 26
1, 176509, Note_on_c, 0, 55, 29
1, 176513, Note_on_c, 0, 60, 33
1, 176665, Control_c, 0, 67, 124
1, 176669, Note_off_c, 0, 76, 57
1, 176680, Control_c, 0, 67, 115
1, 176683, Note_on_c, 0, 77, 53
1, 176695, Control_c, 0, 67, 103
1, 176710, Control_c, 0, 67, 89
1, 176724, Control_c, 0, 67, 77
1, 176739, Control_c, 0, 67, 68
1, 176754, Control_c, 0, 67, 62
1, 176768, Control_c, 0, 67, 59
1, 176783, Control_c, 0, 67, 57
1, 176798, Control_c, 0, 67, 55
1, 176813, Control_c, 0, 67, 53
1, 176836, Control_c, 0, 67, 50
1, 176845, Note_off_c, 0, 55, 42
1, 176850, Control_c, 0, 67, 48
1, 176854, Note_off_c, 0, 60, 50
1, 176857, Note_off_c, 0, 77, 55
1, 176865, Control_c, 0, 67, 46
1, 176870, Note_on_c, 0, 78, 57
1, 176880, Control_c, 0, 67, 45
1, 176895, Control_c, 0, 67, 43
1, 176907, Note_off_c, 0, 58, 41
1, 176910, Control_c, 0, 67, 40
1, 176924, Control_c, 0, 67, 39
1, 177013, Control_c, 0, 67, 40
1, 177029, Note_off_c, 0, 78, 50
1, 177043, Control_c, 0, 67, 40
1, 177046, Note_on_c, 0, 79, 55
1, 177072, Control_c, 0, 67, 41
1, 177146, Control_c, 0, 67, 41
1, 177161, Control_c, 0, 67, 42
1, 177190, Control_c, 0, 67, 42
1, 177205, Control_c, 0, 67, 43
1, 177216, Note_off_c, 0, 79, 53
1, 177220, Control_c, 0, 67, 44
1, 177235, Control_c, 0, 67, 45
1, 177244, Note_on_c, 0, 77, 57
1, 177250, Control_c, 0, 67, 45
1, 177265, Control_c, 0, 67, 46
1, 177280, Control_c, 0, 67, 46
1, 177295, Control_c, 0, 67, 47
1, 177324, Control_c, 0, 67, 47
1, 177420, Note_on_c, 0, 76, 55
1, 177429, Control_c, 0, 67, 47
1, 177444, Control_c, 0, 67, 46
1, 177450, Note_off_c, 0, 77, 38
1, 177459, Control_c, 0, 64, 57
1, 177473, Control_c, 0, 64, 64
1, 177488, Control_c, 0, 64, 65
1, 177503, Control_c, 0, 64, 67
1, 177503, Control_c, 0, 67, 46
1, 177518, Control_c, 0, 64, 69
1, 177533, Control_c, 0, 64, 72
1, 177547, Control_c, 0, 64, 75
1, 177562, Control_c, 0, 64, 77
1, 177584, Control_c, 0, 64, 80
1, 177599, Control_c, 0, 64, 83
1, 177614, Control_c, 0, 64, 86
1, 177616, Note_on_c, 0, 74, 60
1, 177628, Control_c, 0, 64, 90
1, 177628, Control_c, 0, 67, 45
1, 177640, Note_off_c, 0, 76, 54
1, 177643, Control_c, 0, 64, 93
1, 177658, Control_c, 0, 64, 96
1, 177673, Control_c, 0, 64, 99
1, 177688, Control_c, 0, 64, 101
1, 177688, Control_c, 0, 67, 44
1, 177703, Control_c, 0, 64, 102
1, 177718, Control_c, 0, 64, 103
1, 177733, Control_c, 0, 64, 103
1, 177748, Control_c, 0, 64, 104
1, 177763, Control_c, 0, 64, 104
1, 177778, Control_c, 0, 64, 105
1, 177782, Note_off_c, 0, 74, 59
1, 177792, Control_c, 0, 64, 105
1, 177797, Note_on_c, 0, 72, 65
1, 177876, Note_off_c, 0, 72, 61
1, 177941, Control_c, 0, 67, 44
1, 178019, Note_on_c, 0, 72, 71
1, 178044, Control_c, 0, 64, 105
1, 178044, Control_c, 0, 67, 44
1, 178059, Control_c, 0, 64, 98
1, 178059, Control_c, 0, 67, 45
1, 178073, Control_c, 0, 64, 86
1, 178088, Control_c, 0, 64, 69
1, 178103, Control_c, 0, 64, 0
1, 178163, Control_c, 0, 64, 36
1, 178163, Control_c, 0, 67, 45
1, 178178, Control_c, 0, 64, 65
1, 178193, Control_c, 0, 64, 73
1, 178200, Note_on_c, 0, 69, 45
1, 178208, Control_c, 0, 64, 80
1, 178213, Note_on_c, 0, 65, 36
1, 178222, Control_c, 0, 64, 85
1, 178237, Control_c, 0, 64, 88
1, 178252, Control_c, 0, 64, 91
1, 178252, Control_c, 0, 67, 45
1, 178267, Control_c, 0, 64, 94
1, 178282, Control_c, 0, 64, 97
1, 178296, Control_c, 0, 64, 99
1, 178319, Control_c, 0, 64, 101
1, 178334, Control_c, 0, 64, 102
1, 178349, Control_c, 0, 64, 103
1, 178364, Control_c, 0, 64, 103
1, 178368, Note_off_c, 0, 69, 56
1, 178378, Control_c, 0, 64, 104
1, 178380, Note_off_c, 0, 65, 39
1, 178393, Control_c, 0, 64, 105
1, 178408, Control_c, 0, 64, 105
1, 178412, Note_on_c, 0, 67, 45
1, 178419, Note_on_c, 0, 64, 43
1, 178437, Control_c, 0, 64, 106
1, 178452, Control_c, 0, 64, 106
1, 178482, Control_c, 0, 64, 107
1, 178526, Note_off_c, 0, 64, 57
1, 178549, Note_off_c, 0, 67, 56
1, 178576, Note_on_c, 0, 62, 44
1, 178584, Note_on_c, 0, 65, 49
1, 178690, Control_c, 0, 67, 44
1, 178762, Note_off_c, 0, 65, 60
1, 178764, Note_off_c, 0, 62, 37
1, 178778, Control_c, 0, 67, 45
1, 178793, Note_on_c, 0, 69, 64
1, 178793, Control_c, 0, 64, 106
1, 178793, Control_c, 0, 67, 45
1, 178794, Note_on_c, 0, 61, 49
1, 178799, Note_on_c, 0, 64, 47
1, 178808, Control_c, 0, 64, 97
1, 178808, Control_c, 0, 67, 46
1, 178822, Control_c, 0, 64, 83
1, 178822, Control_c, 0, 67, 46
1, 178826, Note_off_c, 0, 72, 51
1, 178837, Control_c, 0, 64, 68
1, 178852, Control_c, 0, 64, 0
1, 178852, Control_c, 0, 67, 47
1, 178911, Control_c, 0, 64, 61
1, 178926, Control_c, 0, 64, 69
1, 178939, Note_off_c, 0, 61, 61
1, 178939, Note_off_c, 0, 64, 51
1, 178942, Control_c, 0, 64, 75
1, 178957, Control_c, 0, 64, 83
1, 178972, Control_c, 0, 64, 88
1, 178984, Note_on_c, 0, 62, 46
1, 178986, Note_on_c, 0, 65, 56
1, 178986, Control_c, 0, 64, 92
1, 178986, Control_c, 0, 67, 46
1, 179001, Control_c, 0, 64, 95
1, 179016, Control_c, 0, 64, 98
1, 179031, Control_c, 0, 64, 101
1, 179045, Control_c, 0, 64, 103
1, 179060, Control_c, 0, 64, 105
1, 179083, Control_c, 0, 64, 107
1, 179098, Control_c, 0, 64, 108
1, 179112, Note_off_c, 0, 62, 54
1, 179113, Control_c, 0, 64, 109
1, 179127, Control_c, 0, 64, 110
1, 179142, Control_c, 0, 64, 111
1, 179142, Control_c, 0, 67, 46
1, 179157, Control_c, 0, 64, 112
1, 179164, Note_off_c, 0, 65, 44
1, 179171, Control_c, 0, 64, 112
1, 179181, Note_on_c, 0, 60, 46
1, 179181, Note_on_c, 0, 64, 54
1, 179216, Control_c, 0, 64, 113
1, 179245, Control_c, 0, 64, 113
1, 179253, Note_off_c, 0, 60, 51
1, 179260, Control_c, 0, 64, 114
1, 179275, Control_c, 0, 64, 114
1, 179276, Note_off_c, 0, 64, 61
1, 179319, Control_c, 0, 64, 115
1, 179325, Note_on_c, 0, 58, 51
1, 179336, Note_on_c, 0, 62, 48
1, 179349, Control_c, 0, 64, 115
1, 179352, Note_off_c, 0, 58, 64
1, 179393, Control_c, 0, 64, 116
1, 179453, Control_c, 0, 67, 45
1, 179571, Control_c, 0, 67, 46
1, 179579, Note_on_c, 0, 74, 59
1, 179586, Control_c, 0, 67, 46
1, 179588, Note_on_c, 0, 66, 46
1, 179601, Control_c, 0, 64, 110
1, 179602, Note_on_c, 0, 50, 30
1, 179603, Note_on_c, 0, 57, 27
1, 179616, Control_c, 0, 64, 99
1, 179631, Control_c, 0, 64, 82
1, 179631, Control_c, 0, 67, 47
1, 179635, Note_off_c, 0, 69, 41
1, 179645, Control_c, 0, 64, 66
1, 179660, Control_c, 0, 64, 0
1, 179705, Control_c, 0, 67, 47
1, 179734, Control_c, 0, 64, 64
1, 179750, Note_off_c, 0, 66, 53
1, 179750, Control_c, 0, 64, 72
1, 179753, Note_off_c, 0, 57, 51
1, 179765, Control_c, 0, 64, 81
1, 179776, Note_on_c, 0, 67, 53
1, 179779, Note_on_c, 0, 58, 43
1, 179780, Control_c, 0, 64, 88
1, 179794, Control_c, 0, 64, 93
1, 179794, Control_c, 0, 67, 47
1, 179809, Control_c, 0, 64, 96
1, 179831, Control_c, 0, 64, 99
1, 179846, Control_c, 0, 64, 101
1, 179861, Control_c, 0, 64, 103
1, 179876, Control_c, 0, 64, 105
1, 179891, Control_c, 0, 64, 107
1, 179906, Control_c, 0, 64, 108
1, 179921, Control_c, 0, 64, 108
1, 179936, Note_off_c, 0, 62, 2
1, 179936, Control_c, 0, 64, 109
1, 179945, Note_off_c, 0, 50, 37
1, 179950, Control_c, 0, 64, 109
1, 179961, Note_on_c, 0, 69, 54
1, 179962, Note_off_c, 0, 67, 51
1, 179965, Control_c, 0, 64, 110
1, 179966, Note_off_c, 0, 58, 37
1, 179975, Note_on_c, 0, 60, 44
1, 179980, Control_c, 0, 64, 111
1, 179994, Control_c, 0, 64, 111
1, 180009, Control_c, 0, 64, 112
1, 180013, Note_off_c, 0, 74, 36
1, 180024, Control_c, 0, 64, 112
1, 180073, Note_off_c, 0, 60, 51
1, 180129, Note_off_c, 0, 69, 60
1, 180144, Note_on_c, 0, 57, 41
1, 180144, Note_on_c, 0, 66, 55
1, 180320, Note_off_c, 0, 57, 42
1, 180332, Note_off_c, 0, 66, 59
1, 180364, Note_on_c, 0, 67, 59
1, 180380, Control_c, 0, 64, 109
1, 180385, Note_on_c, 0, 58, 35
1, 180394, Control_c, 0, 64, 96
1, 180394, Control_c, 0, 67, 47
1, 180396, Note_on_c, 0, 55, 31
1, 180404, Note_on_c, 0, 62, 47
1, 180409, Control_c, 0, 64, 82
1, 180424, Control_c, 0, 64, 67
1, 180439, Control_c, 0, 64, 0
1, 180483, Control_c, 0, 64, 43
1, 180498, Control_c, 0, 64, 66
1, 180512, Control_c, 0, 64, 74
1, 180527, Control_c, 0, 64, 84
1, 180544, Control_c, 0, 64, 92
1, 180558, Note_off_c, 0, 58, 43
1, 180559, Control_c, 0, 64, 98
1, 180559, Control_c, 0, 67, 47
1, 180574, Note_on_c, 0, 60, 45
1, 180577, Note_on_c, 0, 63, 50
1, 180580, Note_off_c, 0, 62, 34
1, 180580, Control_c, 0, 64, 102
1, 180595, Control_c, 0, 64, 105
1, 180595, Control_c, 0, 67, 46
1, 180610, Control_c, 0, 64, 108
1, 180624, Control_c, 0, 64, 110
1, 180639, Note_off_c, 0, 55, 43
1, 180639, Control_c, 0, 64, 112
1, 180654, Control_c, 0, 64, 113
1, 180669, Control_c, 0, 64, 114
1, 180681, Note_off_c, 0, 60, 54
1, 180684, Control_c, 0, 64, 114
1, 180703, Note_off_c, 0, 63, 60
1, 180774, Note_on_c, 0, 58, 43
1, 180777, Note_on_c, 0, 62, 49
1, 180805, Note_off_c, 0, 58, 53
1, 180887, Note_off_c, 0, 62, 54
1, 180930, Note_on_c, 0, 58, 47
1, 180943, Note_on_c, 0, 55, 41
1, 180963, Note_off_c, 0, 58, 66
1, 180974, Note_off_c, 0, 55, 53
1, 181015, Note_off_c, 0, 67, 54
1, 181113, Control_c, 0, 67, 47
1, 181128, Control_c, 0, 64, 110
1, 181143, Control_c, 0, 64, 96
1, 181149, Note_on_c, 0, 54, 42
1, 181154, Note_on_c, 0, 69, 61
1, 181157, Note_on_c, 0, 60, 39
1, 181158, Control_c, 0, 64, 76
1, 181158, Control_c, 0, 67, 47
1, 181173, Control_c, 0, 64, 47
1, 181173, Control_c, 0, 67, 48
1, 181177, Note_off_c, 0, 69, 66
1, 181188, Control_c, 0, 64, 0
1, 181195, Note_on_c, 0, 70, 58
1, 181210, Note_off_c, 0, 60, 42
1, 181217, Control_c, 0, 64, 63
1, 181218, Note_off_c, 0, 70, 60
1, 181232, Control_c, 0, 64, 74
1, 181247, Control_c, 0, 64, 89
1, 181247, Control_c, 0, 67, 47
1, 181253, Note_on_c, 0, 69, 65
1, 181262, Control_c, 0, 64, 103
1, 181277, Control_c, 0, 64, 113
1, 181282, Note_off_c, 0, 69, 68
1, 181291, Control_c, 0, 64, 119
1, 181291, Control_c, 0, 67, 47
1, 181293, Note_on_c, 0, 70, 71
1, 181306, Control_c, 0, 64, 125
1, 181328, Control_c, 0, 64, 127
1, 181342, Note_off_c, 0, 70, 57
1, 181346, Note_on_c, 0, 60, 44
1, 181359, Note_on_c, 0, 63, 7
1, 181365, Note_on_c, 0, 69, 57
1, 181400, Note_off_c, 0, 69, 67
1, 181402, Note_off_c, 0, 63, 38
1, 181407, Note_on_c, 0, 70, 66
1, 181461, Note_off_c, 0, 54, 38
1, 181467, Note_off_c, 0, 60, 57
1, 181474, Note_off_c, 0, 70, 59
1, 181480, Note_on_c, 0, 69, 54
1, 181501, Note_on_c, 0, 58, 45
1, 181518, Note_on_c, 0, 62, 38
1, 181601, Note_off_c, 0, 69, 57
1, 181642, Note_off_c, 0, 62, 26
1, 181646, Note_off_c, 0, 58, 57
1, 181653, Note_on_c, 0, 67, 53
1, 181690, Note_on_c, 0, 57, 41
1, 181698, Note_on_c, 0, 60, 32
1, 181700, Note_off_c, 0, 67, 56
1, 181728, Control_c, 0, 67, 46
1, 181730, Note_on_c, 0, 69, 59
1, 181769, Note_off_c, 0, 60, 0
1, 181769, Note_off_c, 0, 57, 52
1, 181802, Control_c, 0, 67, 47
1, 181806, Poly_aftertouch_c, 0, 60, 127
1, 181832, Control_c, 0, 64, 120
1, 181832, Control_c, 0, 67, 47
1, 181840, Note_off_c, 0, 69, 59
1, 181846, Control_c, 0, 64, 99
1, 181846, Control_c, 0, 67, 48
1, 181861, Note_on_c, 0, 70, 58
1, 181861, Control_c, 0, 64, 80
1, 181868, Note_on_c, 0, 55, 31
1, 181868, Poly_aftertouch_c, 0, 60, 0
1, 181875, Note_on_c, 0, 58, 36
1, 181876, Control_c, 0, 64, 58
1, 181876, Control_c, 0, 67, 48
1, 181891, Control_c, 0, 64, 0
1, 181951, Control_c, 0, 64, 59
1, 181965, Control_c, 0, 64, 69
1, 181980, Control_c, 0, 64, 75
1, 181995, Control_c, 0, 64, 79
1, 181995, Control_c, 0, 67, 48
1, 182010, Control_c, 0, 64, 80
1, 182010, Control_c, 0, 67, 47
1, 182023, Note_off_c, 0, 58, 37
1, 182025, Control_c, 0, 64, 82
1, 182039, Control_c, 0, 64, 83
1, 182039, Control_c, 0, 67, 47
1, 182042, Note_off_c, 0, 55, 42
1, 182052, Note_on_c, 0, 60, 39
1, 182061, Control_c, 0, 64, 85
1, 182063, Note_on_c, 0, 57, 38
1, 182076, Control_c, 0, 64, 85
1, 182091, Control_c, 0, 64, 86
1, 182106, Control_c, 0, 64, 87
1, 182121, Control_c, 0, 64, 87
1, 182136, Control_c, 0, 64, 88
1, 182151, Control_c, 0, 64, 89
1, 182166, Control_c, 0, 64, 90
1, 182195, Control_c, 0, 67, 47
1, 182210, Control_c, 0, 67, 48
1, 182225, Control_c, 0, 64, 87
1, 182225, Control_c, 0, 67, 48
1, 182240, Control_c, 0, 64, 80
1, 182240, Control_c, 0, 67, 49
1, 182255, Control_c, 0, 64, 68
1, 182266, Note_off_c, 0, 60, 38
1, 182268, Note_off_c, 0, 57, 39
1, 182270, Control_c, 0, 64, 0
1, 182270, Control_c, 0, 67, 49
1, 182276, Note_on_c, 0, 62, 44
1, 182285, Note_on_c, 0, 58, 30
1, 182314, Control_c, 0, 67, 50
1, 182344, Control_c, 0, 67, 50
1, 182359, Control_c, 0, 64, 65
1, 182374, Control_c, 0, 64, 73
1, 182388, Control_c, 0, 64, 78
1, 182388, Control_c, 0, 67, 50
1, 182395, Note_off_c, 0, 62, 59
1, 182403, Control_c, 0, 64, 83
1, 182403, Control_c, 0, 67, 49
1, 182412, Note_off_c, 0, 58, 64
1, 182418, Control_c, 0, 64, 86
1, 182433, Control_c, 0, 64, 89
1, 182433, Control_c, 0, 67, 49
1, 182448, Control_c, 0, 64, 91
1, 182462, Control_c, 0, 64, 93
1, 182477, Control_c, 0, 64, 94
1, 182489, Note_on_c, 0, 67, 45
1, 182492, Control_c, 0, 64, 96
1, 182507, Control_c, 0, 64, 96
1, 182536, Control_c, 0, 67, 48
1, 182551, Control_c, 0, 64, 97
1, 182581, Control_c, 0, 67, 48
1, 182714, Control_c, 0, 67, 47
1, 182741, Note_off_c, 0, 70, 55
1, 182744, Note_on_c, 0, 72, 57
1, 182756, Note_off_c, 0, 67, 48
1, 182759, Control_c, 0, 67, 48
1, 182766, Note_on_c, 0, 65, 45
1, 182774, Note_on_c, 0, 48, 38
1, 182774, Control_c, 0, 64, 96
1, 182784, Note_on_c, 0, 57, 30
1, 182788, Control_c, 0, 64, 90
1, 182788, Control_c, 0, 67, 48
1, 182803, Control_c, 0, 64, 79
1, 182825, Control_c, 0, 64, 65
1, 182840, Control_c, 0, 64, 0
1, 182884, Control_c, 0, 67, 49
1, 182899, Control_c, 0, 64, 63
1, 182914, Control_c, 0, 64, 71
1, 182929, Control_c, 0, 64, 78
1, 182945, Control_c, 0, 64, 83
1, 182957, Note_on_c, 0, 60, 50
1, 182958, Note_on_c, 0, 69, 46
1, 182958, Note_off_c, 0, 57, 36
1, 182960, Control_c, 0, 64, 85
1, 182960, Control_c, 0, 67, 48
1, 182975, Control_c, 0, 64, 88
1, 182989, Control_c, 0, 64, 90
1, 182989, Control_c, 0, 67, 48
1, 183004, Control_c, 0, 64, 92
1, 183018, Control_c, 0, 64, 93
1, 183033, Control_c, 0, 64, 93
1, 183048, Control_c, 0, 64, 94
1, 183084, Note_off_c, 0, 60, 38
1, 183150, Note_off_c, 0, 69, 58
1, 183159, Note_on_c, 0, 68, 55
1, 183176, Note_off_c, 0, 72, 41
1, 183179, Note_on_c, 0, 59, 32
1, 183182, Note_off_c, 0, 65, 32
1, 183306, Note_off_c, 0, 68, 56
1, 183334, Note_on_c, 0, 67, 55
1, 183337, Note_on_c, 0, 58, 42
1, 183358, Note_off_c, 0, 59, 37
1, 183453, Note_off_c, 0, 58, 49
1, 183537, Control_c, 0, 64, 93
1, 183537, Control_c, 0, 67, 48
1, 183542, Note_off_c, 0, 67, 52
1, 183548, Note_on_c, 0, 65, 55
1, 183552, Control_c, 0, 64, 88
1, 183566, Note_on_c, 0, 57, 38
1, 183573, Note_on_c, 0, 60, 45
1, 183574, Control_c, 0, 64, 79
1, 183574, Control_c, 0, 67, 49
1, 183589, Control_c, 0, 64, 67
1, 183604, Control_c, 0, 64, 0
1, 183648, Control_c, 0, 64, 62
1, 183659, Note_off_c, 0, 60, 57
1, 183663, Control_c, 0, 64, 69
1, 183678, Control_c, 0, 64, 74
1, 183686, Note_off_c, 0, 57, 30
1, 183692, Control_c, 0, 64, 79
1, 183707, Control_c, 0, 64, 82
1, 183722, Control_c, 0, 64, 84
1, 183738, Control_c, 0, 64, 86
1, 183741, Note_on_c, 0, 55, 46
1, 183753, Control_c, 0, 64, 88
1, 183767, Control_c, 0, 64, 89
1, 183780, Note_on_c, 0, 58, 18
1, 183782, Control_c, 0, 64, 90
1, 183797, Control_c, 0, 64, 91
1, 183812, Control_c, 0, 64, 91
1, 183841, Control_c, 0, 64, 92
1, 183850, Note_off_c, 0, 58, 40
1, 183900, Note_off_c, 0, 55, 45
1, 183901, Control_c, 0, 67, 48
1, 183913, Note_on_c, 0, 57, 46
1, 183926, Note_on_c, 0, 53, 44
1, 184014, Note_off_c, 0, 57, 46
1, 184020, Control_c, 0, 67, 48
1, 184058, Note_off_c, 0, 53, 52
1, 184064, Control_c, 0, 64, 92
1, 184094, Control_c, 0, 64, 93
1, 184108, Control_c, 0, 64, 93
1, 184109, Note_on_c, 0, 52, 49
1, 184115, Note_on_c, 0, 58, 49
1, 184115, Note_off_c, 0, 65, 34
1, 184117, Note_on_c, 0, 67, 50
1, 184138, Control_c, 0, 64, 94
1, 184162, Note_off_c, 0, 67, 58
1, 184165, Note_off_c, 0, 58, 55
1, 184318, Note_off_c, 0, 52, 35
1, 184323, Control_c, 0, 67, 48
1, 184330, Note_on_c, 0, 53, 45
1, 184338, Control_c, 0, 64, 89
1, 184340, Note_on_c, 0, 69, 61
1, 184347, Note_on_c, 0, 57, 44
1, 184353, Control_c, 0, 64, 79
1, 184353, Control_c, 0, 67, 49
1, 184367, Control_c, 0, 64, 67
1, 184382, Control_c, 0, 64, 27
1, 184397, Control_c, 0, 64, 0
1, 184412, Control_c, 0, 64, 52
1, 184427, Control_c, 0, 64, 63
1, 184438, Note_off_c, 0, 57, 29
1, 184441, Control_c, 0, 64, 69
1, 184456, Control_c, 0, 64, 74
1, 184468, Note_off_c, 0, 53, 36
1, 184471, Control_c, 0, 64, 78
1, 184487, Control_c, 0, 64, 81
1, 184502, Control_c, 0, 64, 82
1, 184502, Control_c, 0, 67, 48
1, 184516, Control_c, 0, 64, 84
1, 184522, Note_on_c, 0, 60, 51
1, 184529, Note_on_c, 0, 57, 49
1, 184531, Control_c, 0, 64, 85
1, 184547, Control_c, 0, 64, 87
1, 184555, Note_off_c, 0, 60, 55
1, 184562, Control_c, 0, 64, 88
1, 184577, Control_c, 0, 64, 88
1, 184601, Note_off_c, 0, 57, 50
1, 184606, Control_c, 0, 64, 89
1, 184621, Control_c, 0, 64, 89
1, 184636, Control_c, 0, 64, 91
1, 184651, Control_c, 0, 64, 92
1, 184665, Control_c, 0, 64, 94
1, 184680, Control_c, 0, 64, 95
1, 184695, Control_c, 0, 67, 49
1, 184710, Note_on_c, 0, 67, 62
1, 184718, Note_on_c, 0, 60, 47
1, 184725, Control_c, 0, 64, 92
1, 184725, Control_c, 0, 67, 49
1, 184727, Note_on_c, 0, 65, 48
1, 184739, Control_c, 0, 64, 83
1, 184754, Control_c, 0, 64, 73
1, 184754, Control_c, 0, 67, 50
1, 184769, Control_c, 0, 64, 63
1, 184783, Control_c, 0, 64, 59
1, 184783, Control_c, 0, 67, 49
1, 184798, Control_c, 0, 64, 64
1, 184805, Note_off_c, 0, 69, 38
1, 184813, Control_c, 0, 64, 67
1, 184828, Control_c, 0, 64, 70
1, 184843, Control_c, 0, 64, 75
1, 184851, Note_off_c, 0, 60, 36
1, 184857, Control_c, 0, 64, 79
1, 184872, Control_c, 0, 64, 81
1, 184886, Note_on_c, 0, 58, 47
1, 184887, Control_c, 0, 64, 82
1, 184892, Note_on_c, 0, 64, 56
1, 184902, Control_c, 0, 64, 82
1, 184902, Control_c, 0, 67, 49
1, 184910, Note_off_c, 0, 65, 40
1, 184917, Control_c, 0, 64, 83
1, 184932, Control_c, 0, 64, 83
1, 184935, Note_off_c, 0, 67, 38
1, 184962, Control_c, 0, 64, 84
1, 185001, Note_off_c, 0, 58, 59
1, 185021, Control_c, 0, 64, 84
1, 185036, Control_c, 0, 64, 85
1, 185036, Control_c, 0, 67, 48
1, 185057, Control_c, 0, 64, 85
1, 185060, Note_off_c, 0, 64, 52
1, 185100, Note_on_c, 0, 65, 62
1, 185102, Control_c, 0, 64, 84
1, 185102, Control_c, 0, 67, 49
1, 185105, Note_on_c, 0, 57, 44
1, 185117, Control_c, 0, 64, 79
1, 185117, Control_c, 0, 67, 49
1, 185121, Note_on_c, 0, 60, 45
1, 185131, Control_c, 0, 64, 70
1, 185146, Control_c, 0, 64, 45
1, 185161, Control_c, 0, 64, 0
1, 185206, Control_c, 0, 64, 27
1, 185221, Control_c, 0, 64, 63
1, 185236, Control_c, 0, 64, 68
1, 185251, Control_c, 0, 64, 72
1, 185254, Note_off_c, 0, 57, 40
1, 185265, Control_c, 0, 64, 75
1, 185280, Control_c, 0, 64, 76
1, 185280, Control_c, 0, 67, 49
1, 185283, Note_off_c, 0, 60, 56
1, 185295, Control_c, 0, 64, 78
1, 185296, Note_on_c, 0, 55, 39
1, 185304, Note_on_c, 0, 58, 43
1, 185309, Control_c, 0, 64, 79
1, 185324, Control_c, 0, 64, 79
1, 185324, Control_c, 0, 67, 48
1, 185340, Control_c, 0, 64, 80
1, 185355, Control_c, 0, 64, 80
1, 185385, Control_c, 0, 67, 49
1, 185435, Note_off_c, 0, 48, 35
1, 185444, Control_c, 0, 67, 48
1, 185453, Note_off_c, 0, 55, 41
1, 185471, Note_off_c, 0, 58, 33
1, 185483, Note_on_c, 0, 57, 50
1, 185488, Control_c, 0, 64, 81
1, 185493, Note_on_c, 0, 53, 39
1, 185522, Note_off_c, 0, 65, 31
1, 185608, Note_off_c, 0, 53, 36
1, 185632, Note_off_c, 0, 57, 36
1, 185658, Note_on_c, 0, 59, 45
1, 185659, Note_on_c, 0, 50, 42
1, 185747, Note_off_c, 0, 59, 36
1, 185759, Note_off_c, 0, 50, 30
1, 185882, Note_on_c, 0, 60, 48
1, 185889, Note_on_c, 0, 48, 44
1, 185895, Control_c, 0, 64, 79
1, 185895, Control_c, 0, 67, 49
1, 185908, Note_on_c, 0, 52, 23
1, 185910, Control_c, 0, 64, 73
1, 185924, Note_on_c, 0, 55, 31
1, 185925, Control_c, 0, 64, 63
1, 185939, Control_c, 0, 64, 0
1, 186014, Control_c, 0, 64, 56
1, 186029, Control_c, 0, 64, 66
1, 186044, Control_c, 0, 64, 69
1, 186058, Control_c, 0, 64, 70
1, 186073, Control_c, 0, 64, 70
1, 186075, Note_off_c, 0, 48, 41
1, 186083, Note_on_c, 0, 47, 50
1, 186088, Control_c, 0, 64, 71
1, 186103, Control_c, 0, 64, 72
1, 186118, Control_c, 0, 64, 73
1, 186222, Control_c, 0, 67, 48
1, 186255, Note_off_c, 0, 47, 35
1, 186282, Note_on_c, 0, 48, 45
1, 186448, Note_off_c, 0, 48, 41
1, 186458, Note_on_c, 0, 42, 44
1, 186474, Control_c, 0, 67, 48
1, 186630, Control_c, 0, 64, 72
1, 186645, Note_off_c, 0, 42, 36
1, 186659, Control_c, 0, 64, 71
1, 186659, Control_c, 0, 67, 48
1, 186663, Note_on_c, 0, 43, 42
1, 186674, Control_c, 0, 64, 69
1, 186674, Control_c, 0, 67, 49
1, 186689, Control_c, 0, 64, 64
1, 186703, Control_c, 0, 64, 0
1, 186703, Control_c, 0, 67, 49
1, 186747, Control_c, 0, 67, 50
1, 186762, Control_c, 0, 67, 50
1, 186777, Control_c, 0, 67, 51
1, 186822, Control_c, 0, 67, 51
1, 186834, Note_off_c, 0, 43, 43
1, 186848, Note_off_c, 0, 52, 42
1, 186851, Control_c, 0, 67, 52
1, 186855, Note_on_c, 0, 39, 39
1, 186863, Note_off_c, 0, 60, 52
1, 186866, Control_c, 0, 64, 57
1, 186866, Control_c, 0, 67, 54
1, 186880, Control_c, 0, 64, 68
1, 186880, Control_c, 0, 67, 55
1, 186895, Control_c, 0, 64, 73
1, 186895, Control_c, 0, 67, 56
1, 186896, Note_off_c, 0, 55, 41
1, 186910, Control_c, 0, 64, 77
1, 186910, Control_c, 0, 67, 59
1, 186925, Control_c, 0, 64, 79
1, 186925, Control_c, 0, 67, 64
1, 186941, Control_c, 0, 64, 81
1, 186941, Control_c, 0, 67, 74
1, 186956, Control_c, 0, 64, 83
1, 186956, Control_c, 0, 67, 86
1, 186971, Control_c, 0, 64, 84
1, 186971, Control_c, 0, 67, 102
1, 186985, Control_c, 0, 64, 86
1, 186985, Control_c, 0, 67, 115
1, 187000, Control_c, 0, 64, 88
1, 187000, Control_c, 0, 67, 127
1, 187015, Control_c, 0, 64, 89
1, 187030, Control_c, 0, 64, 90
1, 187033, Note_off_c, 0, 39, 39
1, 187045, Control_c, 0, 64, 92
1, 187059, Control_c, 0, 64, 94
1, 187067, Note_on_c, 0, 40, 45
1, 187074, Control_c, 0, 64, 96
1, 187089, Control_c, 0, 64, 99
1, 187104, Control_c, 0, 64, 101
1, 187119, Control_c, 0, 64, 104
1, 187129, Note_off_c, 0, 40, 56
1, 187133, Control_c, 0, 64, 106
1, 187148, Control_c, 0, 64, 109
1, 187163, Control_c, 0, 64, 111
1, 187177, Control_c, 0, 64, 112
1, 187192, Control_c, 0, 64, 113
1, 187207, Control_c, 0, 64, 113
1, 187222, Control_c, 0, 64, 114
1, 187237, Control_c, 0, 64, 115
1, 187251, Control_c, 0, 64, 115
1, 187272, Note_on_c, 0, 43, 41
1, 187296, Control_c, 0, 64, 116
1, 187316, Note_off_c, 0, 43, 50
1, 187333, Control_c, 0, 64, 116
1, 187378, Control_c, 0, 64, 117
1, 187630, Control_c, 0, 64, 115
1, 187642, Note_on_c, 0, 72, 51
1, 187645, Control_c, 0, 64, 108
1, 187651, Note_on_c, 0, 60, 41
1, 187651, Note_on_c, 0, 69, 48
1, 187659, Control_c, 0, 64, 91
1, 187666, Note_on_c, 0, 36, 34
1, 187668, Note_on_c, 0, 48, 26
1, 187674, Control_c, 0, 64, 74
1, 187689, Control_c, 0, 64, 13
1, 187704, Control_c, 0, 64, 0
1, 187779, Control_c, 0, 64, 65
1, 187784, Note_off_c, 0, 48, 42
1, 187787, Note_off_c, 0, 36, 49
1, 187794, Control_c, 0, 64, 76
1, 187808, Control_c, 0, 64, 86
1, 187823, Control_c, 0, 64, 95
1, 187838, Control_c, 0, 64, 101
1, 187853, Control_c, 0, 64, 107
1, 187868, Control_c, 0, 64, 112
1, 187883, Control_c, 0, 64, 117
1, 187895, Note_on_c, 0, 48, 50
1, 187898, Control_c, 0, 64, 126
1, 187913, Control_c, 0, 64, 127
1, 187931, Note_on_c, 0, 36, 25
1, 187935, Note_off_c, 0, 48, 50
1, 187973, Note_off_c, 0, 36, 45
1, 188022, Note_off_c, 0, 69, 38
1, 188089, Note_off_c, 0, 60, 38
1, 188249, Note_on_c, 0, 48, 42
1, 188258, Note_on_c, 0, 36, 37
1, 188295, Note_off_c, 0, 48, 47
1, 188302, Note_off_c, 0, 36, 58
1, 188487, Note_on_c, 0, 69, 66
1, 188492, Note_on_c, 0, 60, 50
1, 188492, Note_on_c, 0, 65, 50
1, 188497, Control_c, 0, 64, 124
1, 188509, Note_on_c, 0, 48, 32
1, 188512, Control_c, 0, 64, 105
1, 188515, Note_on_c, 0, 36, 32
1, 188528, Control_c, 0, 64, 86
1, 188543, Control_c, 0, 64, 69
1, 188557, Control_c, 0, 64, 0
1, 188564, Note_off_c, 0, 72, 54
1, 188582, Note_off_c, 0, 36, 54
1, 188607, Note_off_c, 0, 48, 39
1, 188617, Control_c, 0, 64, 49
1, 188631, Control_c, 0, 64, 69
1, 188646, Control_c, 0, 64, 79
1, 188661, Control_c, 0, 64, 92
1, 188669, Note_off_c, 0, 65, 52
1, 188676, Control_c, 0, 64, 103
1, 188691, Control_c, 0, 64, 114
1, 188706, Control_c, 0, 64, 127
1, 188723, Note_on_c, 0, 48, 39
1, 188732, Note_on_c, 0, 36, 31
1, 188755, Note_off_c, 0, 60, 50
1, 188762, Note_off_c, 0, 48, 49
1, 188780, Note_off_c, 0, 36, 48
1, 189068, Note_on_c, 0, 48, 48
1, 189078, Note_on_c, 0, 36, 39
1, 189110, Note_off_c, 0, 48, 49
1, 189128, Note_off_c, 0, 36, 57
1, 189272, Note_off_c, 0, 69, 62
1, 189333, Note_on_c, 0, 70, 48
1, 189333, Note_on_c, 0, 74, 56
1, 189342, Note_on_c, 0, 64, 36
1, 189350, Note_on_c, 0, 48, 34
1, 189354, Note_on_c, 0, 36, 27
1, 189356, Note_on_c, 0, 67, 38
1, 189380, Control_c, 0, 64, 103
1, 189395, Control_c, 0, 64, 87
1, 189405, Note_off_c, 0, 64, 0
1, 189405, Note_on_c, 0, 64, 3
1, 189410, Control_c, 0, 64, 70
1, 189425, Control_c, 0, 64, 0
1, 189427, Note_off_c, 0, 48, 53
1, 189439, Note_off_c, 0, 36, 52
1, 189484, Control_c, 0, 64, 63
1, 189499, Control_c, 0, 64, 75
1, 189514, Control_c, 0, 64, 87
1, 189528, Control_c, 0, 64, 100
1, 189551, Control_c, 0, 64, 109
1, 189566, Control_c, 0, 64, 114
1, 189570, Note_on_c, 0, 48, 47
1, 189580, Control_c, 0, 64, 119
1, 189585, Note_on_c, 0, 36, 36
1, 189595, Control_c, 0, 64, 125
1, 189610, Control_c, 0, 64, 127
1, 189612, Note_off_c, 0, 48, 48
1, 189632, Note_off_c, 0, 36, 56
1, 189652, Note_off_c, 0, 74, 60
1, 189674, Note_off_c, 0, 64, 52
1, 189702, Note_off_c, 0, 67, 58
1, 189710, Note_off_c, 0, 70, 57
1, 189903, Note_on_c, 0, 48, 48
1, 189920, Note_on_c, 0, 36, 36
1, 189940, Note_off_c, 0, 48, 56
1, 189967, Note_off_c, 0, 36, 48
1, 190131, Note_on_c, 0, 67, 60
1, 190135, Note_on_c, 0, 58, 51
1, 190139, Note_on_c, 0, 64, 53
1, 190152, Note_on_c, 0, 48, 41
1, 190159, Control_c, 0, 64, 106
1, 190160, Note_on_c, 0, 36, 30
1, 190174, Control_c, 0, 64, 89
1, 190189, Control_c, 0, 64, 71
1, 190203, Control_c, 0, 64, 0
1, 190214, Note_off_c, 0, 48, 45
1, 190217, Note_off_c, 0, 36, 53
1, 190248, Control_c, 0, 64, 58
1, 190263, Control_c, 0, 64, 73
1, 190277, Control_c, 0, 64, 84
1, 190292, Control_c, 0, 64, 97
1, 190315, Control_c, 0, 64, 105
1, 190329, Control_c, 0, 64, 111
1, 190344, Control_c, 0, 64, 114
1, 190351, Note_on_c, 0, 48, 46
1, 190359, Control_c, 0, 64, 117
1, 190368, Note_on_c, 0, 36, 37
1, 190374, Control_c, 0, 64, 121
1, 190389, Control_c, 0, 64, 124
1, 190391, Note_off_c, 0, 48, 48
1, 190403, Control_c, 0, 64, 125
1, 190407, Note_off_c, 0, 36, 50
1, 190418, Control_c, 0, 64, 126
1, 190433, Control_c, 0, 64, 127
1, 190630, Note_off_c, 0, 58, 36
1, 190644, Note_off_c, 0, 67, 54
1, 190658, Note_off_c, 0, 64, 58
1, 190678, Note_on_c, 0, 69, 58
1, 190688, Note_on_c, 0, 48, 39
1, 190701, Note_on_c, 0, 36, 33
1, 190715, Note_off_c, 0, 69, 63
1, 190726, Note_off_c, 0, 48, 49
1, 190747, Note_off_c, 0, 36, 47
1, 190848, Control_c, 0, 64, 123
1, 190863, Control_c, 0, 64, 108
1, 190877, Control_c, 0, 64, 91
1, 190892, Control_c, 0, 64, 73
1, 190902, Note_on_c, 0, 60, 50
1, 190905, Note_on_c, 0, 69, 47
1, 190907, Control_c, 0, 64, 0
1, 190911, Note_on_c, 0, 48, 47
1, 190920, Note_on_c, 0, 36, 34
1, 190926, Note_off_c, 0, 60, 57
1, 190938, Control_c, 0, 64, 45
1, 190943, Note_off_c, 0, 69, 67
1, 190951, Note_off_c, 0, 48, 56
1, 190952, Control_c, 0, 64, 68
1, 190965, Note_on_c, 0, 70, 59
1, 190967, Control_c, 0, 64, 78
1, 190973, Note_off_c, 0, 36, 46
1, 190982, Control_c, 0, 64, 91
1, 190993, Note_off_c, 0, 70, 63
1, 190997, Control_c, 0, 64, 103
1, 191012, Control_c, 0, 64, 111
1, 191026, Control_c, 0, 64, 113
1, 191028, Note_on_c, 0, 69, 54
1, 191041, Control_c, 0, 64, 115
1, 191063, Control_c, 0, 64, 117
1, 191072, Note_off_c, 0, 69, 65
1, 191076, Note_on_c, 0, 70, 70
1, 191078, Control_c, 0, 64, 119
1, 191083, Note_on_c, 0, 48, 49
1, 191093, Control_c, 0, 64, 120
1, 191101, Note_on_c, 0, 36, 42
1, 191108, Control_c, 0, 64, 121
1, 191114, Note_off_c, 0, 70, 55
1, 191129, Note_off_c, 0, 48, 57
1, 191145, Note_on_c, 0, 69, 43
1, 191149, Note_off_c, 0, 36, 54
1, 191152, Control_c, 0, 64, 121
1, 191174, Note_off_c, 0, 69, 63
1, 191191, Note_on_c, 0, 70, 56
1, 191236, Note_off_c, 0, 70, 47
1, 191246, Note_on_c, 0, 69, 61
1, 191300, Control_c, 0, 64, 122
1, 191436, Note_off_c, 0, 69, 60
1, 191459, Note_on_c, 0, 68, 57
1, 191476, Note_on_c, 0, 48, 38
1, 191486, Note_on_c, 0, 36, 33
1, 191514, Note_off_c, 0, 48, 49
1, 191527, Note_off_c, 0, 68, 59
1, 191542, Note_off_c, 0, 36, 46
1, 191552, Note_on_c, 0, 69, 64
1, 191671, Control_c, 0, 64, 121
1, 191685, Control_c, 0, 64, 116
1, 191695, Note_off_c, 0, 69, 35
1, 191700, Control_c, 0, 64, 105
1, 191702, Note_on_c, 0, 70, 56
1, 191714, Note_on_c, 0, 67, 51
1, 191715, Note_on_c, 0, 48, 41
1, 191715, Control_c, 0, 64, 91
1, 191717, Note_on_c, 0, 36, 33
1, 191731, Control_c, 0, 64, 76
1, 191746, Control_c, 0, 64, 49
1, 191761, Control_c, 0, 64, 0
1, 191775, Note_off_c, 0, 48, 47
1, 191819, Note_off_c, 0, 36, 38
1, 191842, Control_c, 0, 64, 21
1, 191856, Control_c, 0, 64, 68
1, 191871, Control_c, 0, 64, 81
1, 191886, Control_c, 0, 64, 93
1, 191901, Control_c, 0, 64, 101
1, 191916, Control_c, 0, 64, 107
1, 191929, Note_on_c, 0, 48, 44
1, 191931, Control_c, 0, 64, 111
1, 191946, Control_c, 0, 64, 114
1, 191946, Note_off_c, 0, 67, 52
1, 191958, Note_off_c, 0, 70, 62
1, 191961, Control_c, 0, 64, 119
1, 191964, Note_on_c, 0, 36, 27
1, 191970, Note_off_c, 0, 48, 49
1, 191975, Control_c, 0, 64, 127
1, 192006, Note_off_c, 0, 36, 50
1, 192317, Note_on_c, 0, 48, 49
1, 192330, Note_on_c, 0, 36, 37
1, 192358, Note_off_c, 0, 48, 49
1, 192377, Note_off_c, 0, 36, 47
1, 192658, Note_on_c, 0, 72, 77
1, 192662, Note_on_c, 0, 63, 68
1, 192670, Note_on_c, 0, 69, 66
1, 192673, Note_on_c, 0, 66, 62
1, 192688, Note_on_c, 0, 36, 39
1, 192694, Control_c, 0, 64, 106
1, 192698, Note_on_c, 0, 48, 41
1, 192709, Control_c, 0, 64, 88
1, 192724, Control_c, 0, 64, 69
1, 192739, Control_c, 0, 64, 0
1, 192798, Control_c, 0, 64, 43
1, 192802, Note_off_c, 0, 48, 50
1, 192810, Note_off_c, 0, 36, 59
1, 192813, Control_c, 0, 64, 70
1, 192828, Control_c, 0, 64, 83
1, 192843, Control_c, 0, 64, 96
1, 192858, Control_c, 0, 64, 109
1, 192872, Control_c, 0, 64, 125
1, 192887, Control_c, 0, 64, 127
1, 192917, Control_c, 0, 67, 121
1, 192931, Control_c, 0, 67, 106
1, 192946, Control_c, 0, 67, 84
1, 192950, Note_on_c, 0, 48, 30
1, 192953, Note_on_c, 0, 36, 29
1, 192961, Control_c, 0, 67, 64
1, 192976, Control_c, 0, 67, 44
1, 192986, Note_off_c, 0, 48, 54
1, 192991, Control_c, 0, 67, 28
1, 193005, Note_off_c, 0, 36, 45
1, 193005, Control_c, 0, 67, 16
1, 193019, Note_off_c, 0, 72, 61
1, 193020, Control_c, 0, 67, 8
1, 193029, Note_off_c, 0, 63, 60
1, 193035, Control_c, 0, 67, 0
1, 193045, Note_off_c, 0, 69, 63
1, 193052, Note_off_c, 0, 66, 62
1, 193304, Note_on_c, 0, 48, 42
1, 193319, Note_on_c, 0, 36, 33
1, 193370, Note_off_c, 0, 36, 55
1, 193374, Note_off_c, 0, 48, 42
1, 193542, Note_on_c, 0, 65, 54
1, 193547, Control_c, 0, 67, 8
1, 193549, Note_on_c, 0, 36, 35
1, 193549, Note_on_c, 0, 48, 41
1, 193561, Control_c, 0, 67, 9
1, 193562, Note_on_c, 0, 56, 44
1, 193567, Note_on_c, 0, 62, 43
1, 193576, Control_c, 0, 64, 110
1, 193576, Control_c, 0, 67, 11
1, 193591, Control_c, 0, 64, 91
1, 193591, Control_c, 0, 67, 11
1, 193606, Control_c, 0, 64, 74
1, 193606, Control_c, 0, 67, 13
1, 193610, Note_on_c, 0, 59, 29
1, 193621, Control_c, 0, 64, 36
1, 193621, Control_c, 0, 67, 15
1, 193622, Note_off_c, 0, 48, 57
1, 193636, Control_c, 0, 64, 0
1, 193636, Control_c, 0, 67, 19
1, 193651, Note_off_c, 0, 36, 45
1, 193651, Control_c, 0, 67, 27
1, 193666, Control_c, 0, 64, 47
1, 193666, Control_c, 0, 67, 40
1, 193681, Control_c, 0, 64, 71
1, 193681, Control_c, 0, 67, 62
1, 193695, Control_c, 0, 64, 85
1, 193695, Control_c, 0, 67, 91
1, 193710, Control_c, 0, 64, 99
1, 193710, Control_c, 0, 67, 118
1, 193725, Control_c, 0, 64, 109
1, 193725, Control_c, 0, 67, 127
1, 193740, Control_c, 0, 64, 115
1, 193754, Control_c, 0, 64, 118
1, 193761, Note_on_c, 0, 48, 48
1, 193767, Note_on_c, 0, 36, 35
1, 193769, Control_c, 0, 64, 122
1, 193784, Control_c, 0, 64, 127
1, 193803, Note_off_c, 0, 48, 50
1, 193824, Note_off_c, 0, 36, 54
1, 194100, Note_off_c, 0, 62, 35
1, 194108, Note_on_c, 0, 48, 37
1, 194111, Note_on_c, 0, 67, 52
1, 194115, Note_off_c, 0, 56, 38
1, 194122, Note_on_c, 0, 36, 28
1, 194134, Note_off_c, 0, 59, 38
1, 194145, Note_off_c, 0, 48, 51
1, 194149, Note_off_c, 0, 65, 39
1, 194158, Note_off_c, 0, 67, 59
1, 194164, Note_off_c, 0, 36, 49
1, 194351, Note_on_c, 0, 69, 55
1, 194354, Control_c, 0, 64, 110
1, 194360, Note_on_c, 0, 58, 45
1, 194361, Note_on_c, 0, 36, 33
1, 194362, Note_on_c, 0, 48, 33
1, 194366, Note_on_c, 0, 64, 45
1, 194369, Control_c, 0, 64, 91
1, 194384, Control_c, 0, 64, 73
1, 194399, Control_c, 0, 64, 0
1, 194399, Note_off_c, 0, 36, 55
1, 194399, Note_off_c, 0, 48, 52
1, 194443, Control_c, 0, 64, 38
1, 194458, Control_c, 0, 64, 70
1, 194473, Control_c, 0, 64, 79
1, 194488, Control_c, 0, 64, 90
1, 194502, Control_c, 0, 64, 99
1, 194517, Control_c, 0, 64, 105
1, 194532, Control_c, 0, 64, 108
1, 194535, Note_on_c, 0, 48, 43
1, 194542, Note_on_c, 0, 36, 38
1, 194547, Control_c, 0, 64, 112
1, 194562, Control_c, 0, 64, 115
1, 194576, Control_c, 0, 64, 118
1, 194581, Note_off_c, 0, 48, 47
1, 194591, Control_c, 0, 64, 121
1, 194596, Note_off_c, 0, 36, 53
1, 194606, Control_c, 0, 64, 121
1, 194636, Control_c, 0, 64, 122
1, 194727, Note_off_c, 0, 69, 57
1, 194735, Note_off_c, 0, 64, 56
1, 194739, Control_c, 0, 64, 122
1, 194742, Note_on_c, 0, 67, 58
1, 194782, Note_off_c, 0, 67, 58
1, 194805, Note_off_c, 0, 58, 40
1, 194921, Note_on_c, 0, 48, 34
1, 194929, Note_on_c, 0, 36, 29
1, 194954, Note_off_c, 0, 48, 53
1, 194974, Note_off_c, 0, 36, 48
1, 195103, Control_c, 0, 64, 121
1, 195117, Control_c, 0, 64, 109
1, 195127, Note_on_c, 0, 48, 39
1, 195131, Note_on_c, 0, 36, 33
1, 195132, Note_on_c, 0, 65, 52
1, 195132, Control_c, 0, 64, 93
1, 195140, Note_on_c, 0, 57, 39
1, 195141, Note_on_c, 0, 60, 42
1, 195147, Control_c, 0, 64, 76
1, 195162, Control_c, 0, 64, 53
1, 195177, Control_c, 0, 64, 0
1, 195182, Note_off_c, 0, 48, 53
1, 195202, Note_off_c, 0, 36, 44
1, 195222, Control_c, 0, 64, 66
1, 195237, Control_c, 0, 64, 75
1, 195252, Control_c, 0, 64, 84
1, 195266, Control_c, 0, 64, 92
1, 195281, Control_c, 0, 64, 96
1, 195296, Control_c, 0, 64, 99
1, 195311, Control_c, 0, 64, 102
1, 195325, Control_c, 0, 64, 105
1, 195340, Control_c, 0, 64, 108
1, 195343, Note_on_c, 0, 48, 44
1, 195348, Note_on_c, 0, 36, 41
1, 195355, Control_c, 0, 64, 111
1, 195370, Control_c, 0, 64, 112
1, 195371, Note_off_c, 0, 57, 56
1, 195373, Note_off_c, 0, 65, 59
1, 195382, Note_off_c, 0, 48, 49
1, 195385, Control_c, 0, 64, 112
1, 195393, Note_off_c, 0, 36, 54
1, 195393, Note_off_c, 0, 60, 60
1, 195414, Control_c, 0, 64, 113
1, 195429, Control_c, 0, 64, 113
1, 195444, Control_c, 0, 64, 114
1, 195459, Control_c, 0, 64, 114
1, 195721, Note_on_c, 0, 48, 40
1, 195737, Note_on_c, 0, 36, 27
1, 195764, Note_off_c, 0, 48, 49
1, 195787, Note_off_c, 0, 36, 47
1, 195948, Note_on_c, 0, 36, 35
1, 195951, Note_on_c, 0, 48, 40
1, 195952, Note_on_c, 0, 60, 51
1, 195955, Control_c, 0, 64, 112
1, 195962, Note_on_c, 0, 55, 42
1, 195966, Note_on_c, 0, 52, 42
1, 195970, Control_c, 0, 64, 102
1, 195985, Control_c, 0, 64, 84
1, 196000, Control_c, 0, 64, 67
1, 196015, Control_c, 0, 64, 0
1, 196022, Note_off_c, 0, 48, 57
1, 196036, Note_off_c, 0, 36, 53
1, 196074, Control_c, 0, 64, 61
1, 196089, Control_c, 0, 64, 73
1, 196104, Control_c, 0, 64, 82
1, 196119, Control_c, 0, 64, 93
1, 196133, Control_c, 0, 64, 100
1, 196148, Control_c, 0, 64, 106
1, 196158, Note_on_c, 0, 48, 44
1, 196163, Control_c, 0, 64, 111
1, 196168, Note_on_c, 0, 36, 36
1, 196178, Control_c, 0, 64, 119
1, 196190, Note_off_c, 0, 52, 59
1, 196193, Control_c, 0, 64, 127
1, 196196, Note_off_c, 0, 48, 49
1, 196210, Note_off_c, 0, 60, 56
1, 196214, Note_off_c, 0, 36, 47
1, 196237, Note_off_c, 0, 55, 60
1, 196348, Control_c, 0, 67, 127
1, 196363, Control_c, 0, 67, 121
1, 196378, Control_c, 0, 67, 114
1, 196393, Control_c, 0, 67, 104
1, 196408, Control_c, 0, 67, 95
1, 196422, Control_c, 0, 67, 84
1, 196437, Control_c, 0, 67, 73
1, 196452, Control_c, 0, 67, 61
1, 196466, Control_c, 0, 67, 51
1, 196481, Control_c, 0, 67, 39
1, 196496, Control_c, 0, 67, 30
1, 196511, Control_c, 0, 67, 22
1, 196526, Note_on_c, 0, 48, 45
1, 196527, Control_c, 0, 67, 16
1, 196542, Control_c, 0, 67, 11
1, 196545, Note_on_c, 0, 36, 33
1, 196557, Control_c, 0, 67, 0
1, 196576, Note_off_c, 0, 48, 60
1, 196598, Note_off_c, 0, 36, 47
1, 196745, Note_on_c, 0, 48, 53
1, 196752, Note_on_c, 0, 36, 42
1, 196794, Note_off_c, 0, 48, 54
1, 196805, Note_off_c, 0, 36, 55
1, 196956, Note_on_c, 0, 48, 53
1, 196960, Note_on_c, 0, 36, 44
1, 197009, Note_off_c, 0, 48, 60
1, 197022, Note_off_c, 0, 36, 56
1, 197293, Note_on_c, 0, 46, 60
1, 197296, Note_on_c, 0, 34, 53
1, 197343, Note_off_c, 0, 46, 58
1, 197361, Note_off_c, 0, 34, 63
1, 197573, Note_on_c, 0, 72, 78
1, 197575, Note_on_c, 0, 45, 64
1, 197579, Note_on_c, 0, 60, 71
1, 197580, Note_on_c, 0, 33, 59
1, 197583, Note_on_c, 0, 63, 67
1, 197584, Note_on_c, 0, 66, 70
1, 197601, Control_c, 0, 64, 99
1, 197616, Control_c, 0, 64, 73
1, 197631, Control_c, 0, 64, 0
1, 197682, Note_off_c, 0, 45, 58
1, 197690, Control_c, 0, 64, 48
1, 197699, Note_off_c, 0, 33, 58
1, 197705, Control_c, 0, 64, 73
1, 197720, Control_c, 0, 64, 85
1, 197735, Control_c, 0, 64, 100
1, 197750, Control_c, 0, 64, 112
1, 197764, Control_c, 0, 64, 123
1, 197779, Control_c, 0, 64, 127
1, 197803, Note_on_c, 0, 45, 69
1, 197815, Note_on_c, 0, 33, 63
1, 197899, Note_off_c, 0, 33, 60
1, 197908, Note_off_c, 0, 45, 56
1, 198014, Note_off_c, 0, 72, 57
1, 198053, Note_off_c, 0, 60, 48
1, 198095, Note_off_c, 0, 66, 56
1, 198101, Note_off_c, 0, 63, 53
1, 198140, Note_on_c, 0, 46, 70
1, 198141, Note_on_c, 0, 34, 68
1, 198176, Note_off_c, 0, 46, 62
1, 198188, Note_off_c, 0, 34, 65
1, 198374, Note_on_c, 0, 69, 76
1, 198375, Note_on_c, 0, 48, 70
1, 198376, Note_on_c, 0, 36, 68
1, 198377, Note_on_c, 0, 66, 67
1, 198380, Control_c, 0, 64, 113
1, 198382, Note_on_c, 0, 60, 67
1, 198390, Note_on_c, 0, 63, 59
1, 198395, Control_c, 0, 64, 89
1, 198409, Control_c, 0, 64, 68
1, 198424, Control_c, 0, 64, 0
1, 198464, Note_off_c, 0, 36, 60
1, 198465, Note_off_c, 0, 48, 60
1, 198469, Control_c, 0, 64, 69
1, 198483, Control_c, 0, 64, 79
1, 198498, Control_c, 0, 64, 90
1, 198513, Control_c, 0, 64, 98
1, 198528, Control_c, 0, 64, 103
1, 198550, Control_c, 0, 64, 107
1, 198565, Control_c, 0, 64, 110
1, 198580, Control_c, 0, 64, 115
1, 198589, Note_on_c, 0, 50, 74
1, 198593, Note_on_c, 0, 38, 65
1, 198595, Control_c, 0, 64, 120
1, 198610, Control_c, 0, 64, 124
1, 198624, Control_c, 0, 64, 125
1, 198639, Control_c, 0, 64, 126
1, 198641, Note_off_c, 0, 38, 60
1, 198653, Note_off_c, 0, 50, 61
1, 198654, Control_c, 0, 64, 127
1, 198787, Control_c, 0, 64, 119
1, 198802, Control_c, 0, 64, 95
1, 198809, Note_on_c, 0, 51, 79
1, 198816, Note_on_c, 0, 39, 66
1, 198817, Control_c, 0, 64, 75
1, 198832, Control_c, 0, 64, 36
1, 198847, Control_c, 0, 64, 0
1, 198876, Control_c, 0, 64, 66
1, 198891, Control_c, 0, 64, 78
1, 198894, Note_off_c, 0, 60, 61
1, 198906, Control_c, 0, 64, 92
1, 198920, Note_off_c, 0, 63, 64
1, 198921, Control_c, 0, 64, 107
1, 198936, Control_c, 0, 64, 118
1, 198938, Note_off_c, 0, 66, 64
1, 198943, Note_off_c, 0, 69, 63
1, 198951, Control_c, 0, 64, 124
1, 198953, Note_off_c, 0, 51, 60
1, 198966, Control_c, 0, 64, 127
1, 198972, Note_off_c, 0, 39, 61
1, 199225, Note_on_c, 0, 74, 75
1, 199229, Note_on_c, 0, 62, 72
1, 199229, Note_on_c, 0, 69, 69
1, 199232, Control_c, 0, 64, 110
1, 199235, Note_on_c, 0, 66, 64
1, 199237, Note_on_c, 0, 50, 72
1, 199247, Control_c, 0, 64, 88
1, 199248, Note_on_c, 0, 38, 59
1, 199262, Control_c, 0, 64, 68
1, 199277, Control_c, 0, 64, 0
1, 199306, Note_off_c, 0, 50, 61
1, 199313, Note_off_c, 0, 38, 63
1, 199329, Control_c, 0, 64, 48
1, 199344, Control_c, 0, 64, 73
1, 199359, Control_c, 0, 64, 84
1, 199373, Control_c, 0, 64, 98
1, 199388, Control_c, 0, 64, 107
1, 199403, Control_c, 0, 64, 113
1, 199418, Control_c, 0, 64, 116
1, 199426, Note_on_c, 0, 49, 74
1, 199433, Note_on_c, 0, 37, 66
1, 199433, Control_c, 0, 64, 120
1, 199447, Control_c, 0, 64, 125
1, 199462, Control_c, 0, 64, 127
1, 199478, Note_off_c, 0, 49, 59
1, 199487, Note_off_c, 0, 37, 63
1, 199619, Note_on_c, 0, 50, 75
1, 199627, Note_on_c, 0, 38, 63
1, 199671, Note_off_c, 0, 50, 61
1, 199703, Note_off_c, 0, 38, 62
1, 199797, Note_on_c, 0, 48, 80
1, 199800, Note_off_c, 0, 66, 57
1, 199803, Note_on_c, 0, 36, 68
1, 199822, Note_off_c, 0, 48, 67
1, 199840, Note_off_c, 0, 36, 62
1, 199854, Note_off_c, 0, 62, 47
1, 199869, Note_off_c, 0, 69, 57
1, 199890, Note_off_c, 0, 74, 36
1, 200063, Control_c, 0, 64, 111
1, 200075, Note_on_c, 0, 34, 67
1, 200075, Note_on_c, 0, 46, 69
1, 200078, Control_c, 0, 64, 90
1, 200078, Note_on_c, 0, 67, 74
1, 200081, Note_on_c, 0, 62, 71
1, 200093, Control_c, 0, 64, 69
1, 200107, Control_c, 0, 64, 0
1, 200136, Note_off_c, 0, 34, 65
1, 200152, Control_c, 0, 64, 53
1, 200158, Note_off_c, 0, 46, 63
1, 200167, Control_c, 0, 64, 72
1, 200182, Control_c, 0, 64, 85
1, 200196, Control_c, 0, 64, 105
1, 200211, Control_c, 0, 64, 121
1, 200226, Control_c, 0, 64, 127
1, 200297, Note_on_c, 0, 58, 73
1, 200298, Note_on_c, 0, 46, 69
1, 200331, Note_off_c, 0, 58, 57
1, 200345, Note_off_c, 0, 46, 60
1, 200481, Note_on_c, 0, 57, 71
1, 200489, Note_on_c, 0, 45, 64
1, 200517, Note_off_c, 0, 57, 58
1, 200535, Note_off_c, 0, 45, 62
1, 200604, Note_off_c, 0, 62, 35
1, 200659, Note_on_c, 0, 55, 74
1, 200667, Note_on_c, 0, 43, 64
1, 200687, Note_off_c, 0, 55, 65
1, 200702, Note_off_c, 0, 43, 61
1, 200770, Note_off_c, 0, 67, 37
1, 200860, Note_on_c, 0, 54, 70
1, 200862, Note_on_c, 0, 60, 59
1, 200867, Note_on_c, 0, 42, 62
1, 200871, Control_c, 0, 64, 93
1, 200874, Note_on_c, 0, 69, 58
1, 200886, Control_c, 0, 64, 72
1, 200897, Note_off_c, 0, 54, 60
1, 200900, Control_c, 0, 64, 0
1, 200911, Note_off_c, 0, 69, 65
1, 200919, Note_off_c, 0, 42, 59
1, 200926, Note_on_c, 0, 70, 62
1, 200945, Control_c, 0, 64, 65
1, 200960, Control_c, 0, 64, 78
1, 200975, Control_c, 0, 64, 92
1, 200977, Note_off_c, 0, 70, 58
1, 200981, Note_on_c, 0, 69, 54
1, 200990, Control_c, 0, 64, 105
1, 201005, Control_c, 0, 64, 116
1, 201017, Note_off_c, 0, 69, 67
1, 201020, Control_c, 0, 64, 121
1, 201026, Note_on_c, 0, 51, 58
1, 201029, Note_on_c, 0, 39, 58
1, 201030, Note_on_c, 0, 70, 56
1, 201035, Control_c, 0, 64, 126
1, 201049, Control_c, 0, 64, 127
1, 201058, Note_off_c, 0, 51, 63
1, 201061, Note_off_c, 0, 39, 63
1, 201082, Note_on_c, 0, 69, 54
1, 201097, Note_off_c, 0, 70, 52
1, 201130, Note_on_c, 0, 70, 46
1, 201130, Note_off_c, 0, 69, 64
1, 201181, Note_on_c, 0, 69, 53
1, 201186, Note_on_c, 0, 50, 59
1, 201193, Note_on_c, 0, 38, 54
1, 201214, Note_off_c, 0, 50, 64
1, 201225, Note_off_c, 0, 70, 53
1, 201230, Note_off_c, 0, 38, 61
1, 201361, Note_off_c, 0, 69, 58
1, 201366, Note_off_c, 0, 60, 12
1, 201376, Note_on_c, 0, 48, 58
1, 201378, Note_on_c, 0, 67, 62
1, 201387, Note_on_c, 0, 36, 49
1, 201399, Note_off_c, 0, 48, 61
1, 201419, Note_off_c, 0, 36, 60
1, 201440, Note_off_c, 0, 67, 58
1, 201455, Note_on_c, 0, 69, 62
1, 201574, Note_off_c, 0, 69, 60
1, 201576, Control_c, 0, 64, 115
1, 201588, Note_on_c, 0, 70, 61
1, 201591, Control_c, 0, 64, 95
1, 201602, Note_on_c, 0, 67, 45
1, 201604, Note_on_c, 0, 46, 53
1, 201606, Note_on_c, 0, 34, 48
1, 201606, Control_c, 0, 64, 75
1, 201612, Note_on_c, 0, 62, 47
1, 201621, Control_c, 0, 64, 0
1, 201645, Note_off_c, 0, 46, 49
1, 201667, Note_off_c, 0, 34, 63
1, 201679, Control_c, 0, 64, 61
1, 201694, Control_c, 0, 64, 74
1, 201708, Control_c, 0, 64, 85
1, 201723, Control_c, 0, 64, 98
1, 201738, Control_c, 0, 64, 103
1, 201753, Control_c, 0, 64, 107
1, 201768, Control_c, 0, 64, 110
1, 201783, Control_c, 0, 64, 113
1, 201790, Note_on_c, 0, 45, 54
1, 201798, Control_c, 0, 64, 116
1, 201799, Note_on_c, 0, 33, 51
1, 201813, Control_c, 0, 64, 119
1, 201822, Note_off_c, 0, 45, 65
1, 201827, Control_c, 0, 64, 121
1, 201842, Note_off_c, 0, 33, 61
1, 201842, Control_c, 0, 64, 123
1, 201857, Control_c, 0, 64, 124
1, 201872, Control_c, 0, 64, 126
1, 201886, Control_c, 0, 64, 127
1, 201979, Note_on_c, 0, 43, 55
1, 201988, Note_on_c, 0, 31, 50
1, 202012, Note_off_c, 0, 43, 58
1, 202036, Note_off_c, 0, 31, 60
1, 202120, Note_off_c, 0, 62, 34
1, 202161, Note_off_c, 0, 70, 52
1, 202167, Note_off_c, 0, 67, 27
1, 202178, Note_on_c, 0, 41, 53
1, 202183, Note_on_c, 0, 29, 50
1, 202209, Note_off_c, 0, 41, 61
1, 202235, Note_off_c, 0, 29, 56
1, 202413, Control_c, 0, 64, 117
1, 202428, Control_c, 0, 64, 101
1, 202443, Control_c, 0, 64, 83
1, 202445, Note_on_c, 0, 72, 58
1, 202451, Note_on_c, 0, 60, 45
1, 202453, Note_on_c, 0, 28, 45
1, 202453, Note_on_c, 0, 40, 37
1, 202453, Note_on_c, 0, 67, 42
1, 202457, Control_c, 0, 64, 65
1, 202472, Control_c, 0, 64, 0
1, 202488, Note_off_c, 0, 40, 53
1, 202502, Control_c, 0, 64, 59
1, 202516, Note_off_c, 0, 28, 60
1, 202516, Control_c, 0, 64, 71
1, 202531, Control_c, 0, 64, 82
1, 202546, Control_c, 0, 64, 95
1, 202561, Control_c, 0, 64, 106
1, 202576, Control_c, 0, 64, 114
1, 202591, Control_c, 0, 64, 119
1, 202605, Control_c, 0, 64, 124
1, 202620, Control_c, 0, 64, 127
1, 202650, Note_on_c, 0, 24, 44
1, 202665, Note_on_c, 0, 36, 8
1, 202695, Note_off_c, 0, 24, 42
1, 202717, Note_off_c, 0, 36, 52
1, 202829, Note_on_c, 0, 26, 49
1, 202857, Note_on_c, 0, 38, 7
1, 202867, Note_off_c, 0, 26, 59
1, 202917, Note_off_c, 0, 38, 50
1, 202952, Note_off_c, 0, 67, 34
1, 202962, Note_off_c, 0, 72, 30
1, 203020, Note_on_c, 0, 28, 56
1, 203021, Note_on_c, 0, 40, 52
1, 203023, Note_off_c, 0, 60, 33
1, 203038, Note_on_c, 0, 70, 62
1, 203059, Note_off_c, 0, 40, 54
1, 203063, Note_off_c, 0, 28, 60
1, 203071, Note_off_c, 0, 70, 62
1, 203206, Control_c, 0, 64, 97
1, 203221, Control_c, 0, 64, 76
1, 203226, Note_on_c, 0, 29, 47
1, 203228, Note_on_c, 0, 41, 41
1, 203236, Note_on_c, 0, 69, 54
1, 203236, Control_c, 0, 64, 47
1, 203241, Note_on_c, 0, 65, 45
1, 203248, Note_on_c, 0, 60, 40
1, 203251, Control_c, 0, 64, 0
1, 203265, Control_c, 0, 64, 64
1, 203267, Note_off_c, 0, 41, 54
1, 203267, Note_off_c, 0, 29, 59
1, 203280, Control_c, 0, 64, 74
1, 203295, Control_c, 0, 64, 88
1, 203310, Control_c, 0, 64, 103
1, 203325, Control_c, 0, 64, 112
1, 203339, Control_c, 0, 64, 115
1, 203354, Note_off_c, 0, 60, 39
1, 203354, Control_c, 0, 64, 117
1, 203369, Note_off_c, 0, 65, 35
1, 203369, Control_c, 0, 64, 121
1, 203384, Control_c, 0, 64, 127
1, 203416, Note_off_c, 0, 69, 63
1, 203419, Note_on_c, 0, 30, 49
1, 203425, Note_on_c, 0, 63, 60
1, 203428, Note_on_c, 0, 42, 42
1, 203457, Note_off_c, 0, 63, 64
1, 203458, Note_off_c, 0, 30, 61
1, 203459, Note_off_c, 0, 42, 55
1, 203592, Control_c, 0, 64, 106
1, 203606, Control_c, 0, 64, 86
1, 203617, Note_on_c, 0, 67, 65
1, 203621, Control_c, 0, 64, 67
1, 203622, Note_on_c, 0, 43, 60
1, 203622, Note_on_c, 0, 31, 57
1, 203631, Note_on_c, 0, 62, 50
1, 203632, Note_on_c, 0, 58, 53
1, 203636, Control_c, 0, 64, 0
1, 203650, Control_c, 0, 64, 20
1, 203665, Control_c, 0, 64, 65
1, 203676, Note_off_c, 0, 31, 59
1, 203676, Note_off_c, 0, 62, 57
1, 203678, Note_off_c, 0, 58, 61
1, 203680, Control_c, 0, 64, 76
1, 203682, Note_off_c, 0, 43, 58
1, 203695, Control_c, 0, 64, 87
1, 203711, Control_c, 0, 64, 98
1, 203726, Control_c, 0, 64, 104
1, 203738, Note_off_c, 0, 67, 58
1, 203741, Control_c, 0, 64, 109
1, 203755, Control_c, 0, 64, 111
1, 203770, Control_c, 0, 64, 116
1, 203792, Control_c, 0, 64, 122
1, 203805, Note_on_c, 0, 45, 67
1, 203806, Note_on_c, 0, 63, 65
1, 203807, Control_c, 0, 64, 127
1, 203810, Note_on_c, 0, 33, 63
1, 203810, Note_on_c, 0, 66, 58
1, 203812, Note_on_c, 0, 60, 57
1, 203832, Note_off_c, 0, 60, 60
1, 203834, Note_off_c, 0, 66, 66
1, 203837, Note_off_c, 0, 45, 63
1, 203837, Note_off_c, 0, 63, 64
1, 203840, Note_off_c, 0, 33, 65
1, 204024, Note_on_c, 0, 74, 75
1, 204031, Note_on_c, 0, 65, 68
1, 204037, Note_on_c, 0, 62, 68
1, 204045, Control_c, 0, 64, 100
1, 204048, Note_on_c, 0, 46, 63
1, 204050, Note_on_c, 0, 34, 56
1, 204060, Control_c, 0, 64, 79
1, 204075, Control_c, 0, 64, 51
1, 204089, Control_c, 0, 64, 0
1, 204093, Note_off_c, 0, 46, 60
1, 204119, Control_c, 0, 64, 68
1, 204119, Control_c, 0, 67, 8
1, 204122, Note_off_c, 0, 34, 63
1, 204131, Note_off_c, 0, 65, 63
1, 204134, Control_c, 0, 64, 80
1, 204140, Note_off_c, 0, 62, 55
1, 204149, Control_c, 0, 64, 96
1, 204149, Control_c, 0, 67, 0
1, 204163, Control_c, 0, 64, 111
1, 204178, Control_c, 0, 64, 120
1, 204193, Control_c, 0, 64, 127
1, 204208, Control_c, 0, 64, 127
1, 204215, Note_on_c, 0, 68, 71
1, 204221, Note_on_c, 0, 47, 60
1, 204224, Note_on_c, 0, 35, 55
1, 204254, Note_off_c, 0, 47, 64
1, 204255, Note_off_c, 0, 35, 57
1, 204257, Note_off_c, 0, 68, 54
1, 204263, Note_off_c, 0, 74, 63
1, 204385, Control_c, 0, 64, 117
1, 204399, Note_on_c, 0, 72, 75
1, 204400, Control_c, 0, 64, 94
1, 204401, Note_on_c, 0, 67, 73
1, 204407, Note_on_c, 0, 48, 65
1, 204408, Note_on_c, 0, 64, 71
1, 204415, Control_c, 0, 64, 82
1, 204418, Note_on_c, 0, 36, 56
1, 204430, Control_c, 0, 64, 80
1, 204436, Note_off_c, 0, 64, 66
1, 204443, Note_off_c, 0, 48, 65
1, 204445, Note_off_c, 0, 36, 58
1, 204445, Control_c, 0, 64, 85
1, 204460, Control_c, 0, 64, 95
1, 204467, Note_off_c, 0, 67, 59
1, 204472, Note_off_c, 0, 72, 63
1, 204474, Control_c, 0, 64, 114
1, 204489, Control_c, 0, 64, 127
1, 204572, Control_c, 0, 67, 8
1, 204579, Note_on_c, 0, 76, 76
1, 204584, Note_on_c, 0, 70, 75
1, 204585, Note_on_c, 0, 67, 75
1, 204586, Control_c, 0, 64, 103
1, 204586, Control_c, 0, 67, 9
1, 204593, Note_on_c, 0, 49, 68
1, 204597, Note_on_c, 0, 37, 62
1, 204601, Control_c, 0, 64, 96
1, 204601, Control_c, 0, 67, 9
1, 204612, Note_off_c, 0, 67, 66
1, 204616, Control_c, 0, 64, 97
1, 204616, Control_c, 0, 67, 10
1, 204621, Note_off_c, 0, 70, 61
1, 204627, Note_off_c, 0, 49, 62
1, 204631, Control_c, 0, 64, 106
1, 204638, Note_off_c, 0, 37, 66
1, 204644, Note_off_c, 0, 76, 62
1, 204646, Control_c, 0, 64, 127
1, 204646, Control_c, 0, 67, 10
1, 204660, Control_c, 0, 67, 9
1, 204690, Control_c, 0, 67, 8
1, 204719, Control_c, 0, 67, 8
1, 204749, Control_c, 0, 67, 8
1, 204764, Control_c, 0, 64, 108
1, 204764, Control_c, 0, 67, 9
1, 204770, Note_on_c, 0, 77, 83
1, 204779, Control_c, 0, 64, 87
1, 204779, Control_c, 0, 67, 9
1, 204779, Note_on_c, 0, 50, 75
1, 204784, Note_on_c, 0, 65, 66
1, 204785, Note_on_c, 0, 38, 65
1, 204790, Note_on_c, 0, 69, 53
1, 204793, Control_c, 0, 64, 68
1, 204793, Control_c, 0, 67, 10
1, 204802, Note_off_c, 0, 65, 63
1, 204808, Control_c, 0, 64, 63
1, 204813, Note_off_c, 0, 69, 60
1, 204823, Control_c, 0, 64, 70
1, 204837, Note_off_c, 0, 50, 57
1, 204837, Note_off_c, 0, 38, 59
1, 204838, Control_c, 0, 64, 81
1, 204838, Control_c, 0, 67, 9
1, 204853, Note_off_c, 0, 77, 61
1, 204853, Control_c, 0, 64, 97
1, 204868, Control_c, 0, 64, 117
1, 204868, Control_c, 0, 67, 9
1, 204883, Control_c, 0, 64, 127
1, 204912, Control_c, 0, 67, 8
1, 204942, Control_c, 0, 67, 9
1, 204958, Note_on_c, 0, 40, 69
1, 204959, Note_on_c, 0, 52, 74
1, 204959, Note_on_c, 0, 70, 81
1, 204959, Note_on_c, 0, 79, 82
1, 204967, Note_on_c, 0, 73, 71
1, 204996, Note_off_c, 0, 73, 61
1, 204998, Note_off_c, 0, 70, 48
1, 205000, Note_off_c, 0, 52, 56
1, 205008, Note_off_c, 0, 40, 59
1, 205021, Note_off_c, 0, 79, 60
1, 205046, Control_c, 0, 67, 8
1, 205104, Control_c, 0, 67, 9
1, 205119, Control_c, 0, 67, 9
1, 205134, Control_c, 0, 64, 114
1, 205134, Control_c, 0, 67, 10
1, 205149, Control_c, 0, 64, 88
1, 205149, Control_c, 0, 67, 10
1, 205151, Note_on_c, 0, 81, 91
1, 205157, Note_on_c, 0, 72, 77
1, 205163, Note_on_c, 0, 69, 75
1, 205164, Note_on_c, 0, 53, 68
1, 205164, Control_c, 0, 64, 60
1, 205166, Note_on_c, 0, 41, 70
1, 205178, Control_c, 0, 64, 0
1, 205208, Note_off_c, 0, 53, 56
1, 205208, Control_c, 0, 64, 62
1, 205210, Note_off_c, 0, 41, 64
1, 205223, Control_c, 0, 64, 76
1, 205238, Control_c, 0, 64, 92
1, 205253, Control_c, 0, 64, 113
1, 205262, Note_off_c, 0, 69, 59
1, 205267, Control_c, 0, 64, 127
1, 205270, Note_off_c, 0, 72, 62
1, 205337, Note_on_c, 0, 75, 77
1, 205342, Note_on_c, 0, 72, 52
1, 205342, Note_off_c, 0, 81, 60
1, 205347, Note_on_c, 0, 54, 68
1, 205353, Note_on_c, 0, 42, 61
1, 205362, Note_off_c, 0, 75, 69
1, 205363, Note_off_c, 0, 72, 61
1, 205365, Control_c, 0, 67, 10
1, 205375, Note_off_c, 0, 54, 65
1, 205380, Control_c, 0, 67, 9
1, 205384, Note_off_c, 0, 42, 66
1, 205409, Control_c, 0, 67, 9
1, 205424, Control_c, 0, 67, 8
1, 205512, Control_c, 0, 64, 118
1, 205512, Control_c, 0, 67, 9
1, 205527, Control_c, 0, 64, 87
1, 205527, Control_c, 0, 67, 9
1, 205542, Note_on_c, 0, 82, 86
1, 205542, Control_c, 0, 64, 58
1, 205547, Note_on_c, 0, 74, 76
1, 205551, Note_on_c, 0, 70, 74
1, 205553, Note_on_c, 0, 55, 74
1, 205557, Note_on_c, 0, 43, 66
1, 205557, Control_c, 0, 64, 0
1, 205557, Control_c, 0, 67, 10
1, 205571, Control_c, 0, 64, 57
1, 205574, Note_off_c, 0, 70, 69
1, 205581, Note_off_c, 0, 74, 64
1, 205586, Control_c, 0, 64, 73
1, 205601, Control_c, 0, 64, 88
1, 205601, Control_c, 0, 67, 9
1, 205606, Note_off_c, 0, 43, 56
1, 205616, Control_c, 0, 64, 108
1, 205616, Control_c, 0, 67, 9
1, 205617, Note_off_c, 0, 55, 58
1, 205621, Note_off_c, 0, 82, 65
1, 205631, Control_c, 0, 64, 127
1, 205646, Control_c, 0, 67, 8
1, 205675, Control_c, 0, 67, 0
1, 205734, Control_c, 0, 64, 107
1, 205742, Note_on_c, 0, 84, 80
1, 205744, Note_on_c, 0, 75, 85
1, 205749, Control_c, 0, 64, 84
1, 205755, Note_on_c, 0, 45, 70
1, 205756, Note_on_c, 0, 57, 64
1, 205764, Control_c, 0, 64, 74
1, 205771, Note_on_c, 0, 78, 36
1, 205779, Control_c, 0, 64, 77
1, 205794, Control_c, 0, 64, 89
1, 205795, Note_off_c, 0, 45, 62
1, 205797, Note_off_c, 0, 75, 63
1, 205801, Note_off_c, 0, 57, 54
1, 205802, Note_off_c, 0, 78, 33
1, 205808, Control_c, 0, 64, 111
1, 205819, Note_off_c, 0, 84, 62
1, 205823, Control_c, 0, 64, 127
1, 205912, Control_c, 0, 67, 8
1, 205926, Control_c, 0, 67, 8
1, 205936, Note_on_c, 0, 86, 90
1, 205941, Control_c, 0, 64, 96
1, 205941, Control_c, 0, 67, 9
1, 205944, Note_on_c, 0, 77, 82
1, 205950, Note_on_c, 0, 58, 78
1, 205951, Note_on_c, 0, 74, 71
1, 205956, Control_c, 0, 64, 78
1, 205957, Note_on_c, 0, 46, 68
1, 205967, Note_off_c, 0, 74, 66
1, 205971, Control_c, 0, 64, 69
1, 205986, Control_c, 0, 64, 74
1, 205993, Note_off_c, 0, 58, 54
1, 205998, Note_off_c, 0, 77, 62
1, 206001, Control_c, 0, 64, 86
1, 206013, Note_off_c, 0, 46, 55
1, 206016, Control_c, 0, 64, 105
1, 206020, Note_off_c, 0, 86, 65
1, 206038, Control_c, 0, 64, 127
1, 206038, Control_c, 0, 67, 8
1, 206067, Control_c, 0, 67, 0
1, 206138, Note_on_c, 0, 89, 86
1, 206143, Control_c, 0, 67, 8
1, 206148, Note_on_c, 0, 86, 74
1, 206150, Note_on_c, 0, 80, 76
1, 206157, Control_c, 0, 64, 100
1, 206157, Control_c, 0, 67, 8
1, 206160, Note_on_c, 0, 47, 66
1, 206161, Note_on_c, 0, 59, 66
1, 206172, Control_c, 0, 64, 77
1, 206187, Control_c, 0, 64, 58
1, 206202, Note_off_c, 0, 47, 59
1, 206216, Control_c, 0, 64, 70
1, 206224, Note_off_c, 0, 59, 58
1, 206230, Control_c, 0, 64, 86
1, 206234, Note_off_c, 0, 80, 57
1, 206245, Control_c, 0, 64, 104
1, 206260, Control_c, 0, 64, 125
1, 206275, Control_c, 0, 64, 127
1, 206280, Note_off_c, 0, 89, 62
1, 206290, Control_c, 0, 67, 8
1, 206308, Note_off_c, 0, 86, 53
1, 206320, Control_c, 0, 67, 0
1, 206364, Control_c, 0, 67, 8
1, 206364, Note_on_c, 0, 88, 87
1, 206379, Control_c, 0, 64, 123
1, 206379, Control_c, 0, 67, 8
1, 206380, Note_on_c, 0, 60, 64
1, 206380, Note_on_c, 0, 79, 71
1, 206381, Note_on_c, 0, 48, 64
1, 206381, Note_on_c, 0, 84, 70
1, 206394, Control_c, 0, 64, 94
1, 206409, Control_c, 0, 64, 73
1, 206423, Control_c, 0, 64, 39
1, 206438, Control_c, 0, 64, 51
1, 206442, Note_off_c, 0, 48, 62
1, 206448, Note_off_c, 0, 60, 61
1, 206453, Control_c, 0, 64, 67
1, 206468, Control_c, 0, 64, 79
1, 206482, Control_c, 0, 64, 94
1, 206497, Control_c, 0, 64, 111
1, 206512, Control_c, 0, 64, 127
1, 206574, Note_on_c, 0, 82, 74
1, 206576, Note_off_c, 0, 79, 62
1, 206579, Note_on_c, 0, 61, 61
1, 206584, Note_on_c, 0, 49, 58
1, 206592, Note_off_c, 0, 88, 59
1, 206595, Note_off_c, 0, 84, 64
1, 206611, Note_off_c, 0, 61, 64
1, 206616, Control_c, 0, 67, 8
1, 206618, Note_off_c, 0, 49, 64
1, 206632, Note_off_c, 0, 82, 57
1, 206704, Control_c, 0, 67, 0
1, 206749, Control_c, 0, 67, 8
1, 206764, Control_c, 0, 67, 8
1, 206786, Control_c, 0, 64, 106
1, 206786, Control_c, 0, 67, 9
1, 206799, Note_on_c, 0, 89, 84
1, 206801, Control_c, 0, 64, 80
1, 206803, Note_on_c, 0, 62, 71
1, 206809, Note_on_c, 0, 81, 70
1, 206815, Note_on_c, 0, 77, 65
1, 206816, Control_c, 0, 64, 62
1, 206820, Note_on_c, 0, 50, 57
1, 206830, Control_c, 0, 64, 44
1, 206832, Note_off_c, 0, 62, 64
1, 206845, Control_c, 0, 64, 64
1, 206845, Control_c, 0, 67, 9
1, 206860, Control_c, 0, 64, 74
1, 206874, Control_c, 0, 64, 88
1, 206883, Note_off_c, 0, 50, 62
1, 206889, Control_c, 0, 64, 107
1, 206889, Control_c, 0, 67, 8
1, 206905, Control_c, 0, 64, 122
1, 206920, Control_c, 0, 64, 127
1, 206934, Note_off_c, 0, 81, 59
1, 206935, Control_c, 0, 67, 8
1, 206946, Note_off_c, 0, 77, 56
1, 206951, Control_c, 0, 67, 0
1, 206980, Control_c, 0, 67, 8
1, 206995, Control_c, 0, 67, 9
1, 207010, Control_c, 0, 64, 107
1, 207010, Control_c, 0, 67, 10
1, 207025, Control_c, 0, 64, 86
1, 207040, Control_c, 0, 64, 70
1, 207044, Note_on_c, 0, 86, 78
1, 207050, Note_on_c, 0, 77, 71
1, 207054, Control_c, 0, 64, 65
1, 207057, Note_on_c, 0, 80, 69
1, 207069, Control_c, 0, 64, 72
1, 207069, Control_c, 0, 67, 10
1, 207083, Note_off_c, 0, 89, 57
1, 207084, Note_on_c, 0, 35, 30
1, 207084, Control_c, 0, 64, 86
1, 207084, Control_c, 0, 67, 9
1, 207086, Note_on_c, 0, 47, 9
1, 207098, Control_c, 0, 64, 104
1, 207098, Control_c, 0, 67, 9
1, 207113, Control_c, 0, 64, 127
1, 207116, Note_off_c, 0, 77, 56
1, 207123, Note_off_c, 0, 80, 62
1, 207131, Note_off_c, 0, 35, 47
1, 207140, Note_off_c, 0, 86, 60
1, 207143, Control_c, 0, 67, 8
1, 207151, Note_off_c, 0, 47, 56
1, 207158, Control_c, 0, 67, 8
1, 207172, Control_c, 0, 67, 0
1, 207351, Control_c, 0, 67, 8
1, 207363, Note_on_c, 0, 84, 69
1, 207366, Control_c, 0, 64, 121
1, 207366, Control_c, 0, 67, 9
1, 207369, Note_on_c, 0, 72, 58
1, 207374, Note_on_c, 0, 81, 56
1, 207380, Control_c, 0, 64, 97
1, 207380, Control_c, 0, 67, 9
1, 207384, Note_on_c, 0, 48, 57
1, 207388, Note_on_c, 0, 36, 50
1, 207395, Control_c, 0, 64, 77
1, 207395, Control_c, 0, 67, 10
1, 207410, Control_c, 0, 64, 33
1, 207410, Control_c, 0, 67, 10
1, 207425, Control_c, 0, 64, 0
1, 207454, Control_c, 0, 64, 65
1, 207469, Control_c, 0, 64, 80
1, 207473, Note_off_c, 0, 36, 63
1, 207484, Control_c, 0, 64, 97
1, 207484, Control_c, 0, 67, 10
1, 207487, Note_off_c, 0, 48, 64
1, 207498, Control_c, 0, 64, 112
1, 207513, Control_c, 0, 64, 121
1, 207513, Control_c, 0, 67, 9
1, 207536, Control_c, 0, 64, 124
1, 207551, Control_c, 0, 64, 127
1, 207551, Control_c, 0, 67, 9
1, 207566, Control_c, 0, 67, 8
1, 207650, Note_on_c, 0, 53, 53
1, 207657, Note_on_c, 0, 48, 46
1, 207702, Note_off_c, 0, 53, 59
1, 207801, Note_off_c, 0, 72, 32
1, 207831, Note_on_c, 0, 53, 54
1, 207849, Note_off_c, 0, 48, 40
1, 207861, Note_on_c, 0, 57, 33
1, 207862, Note_off_c, 0, 53, 66
1, 207901, Note_off_c, 0, 57, 50
1, 207920, Control_c, 0, 67, 8
1, 207996, Note_off_c, 0, 81, 40
1, 208042, Note_on_c, 0, 82, 61
1, 208046, Note_on_c, 0, 55, 44
1, 208048, Note_on_c, 0, 58, 49
1, 208052, Note_on_c, 0, 79, 55
1, 208054, Note_off_c, 0, 84, 54
1, 208069, Control_c, 0, 67, 0
1, 208160, Note_off_c, 0, 58, 58
1, 208187, Control_c, 0, 67, 8
1, 208194, Note_off_c, 0, 55, 34
1, 208202, Control_c, 0, 67, 9
1, 208217, Control_c, 0, 64, 111
1, 208217, Control_c, 0, 67, 9
1, 208218, Note_off_c, 0, 79, 49
1, 208232, Control_c, 0, 64, 88
1, 208239, Note_on_c, 0, 60, 48
1, 208245, Note_on_c, 0, 81, 66
1, 208246, Control_c, 0, 64, 71
1, 208257, Note_on_c, 0, 77, 52
1, 208261, Control_c, 0, 64, 62
1, 208277, Note_on_c, 0, 57, 26
1, 208284, Control_c, 0, 64, 64
1, 208289, Note_off_c, 0, 60, 49
1, 208299, Control_c, 0, 64, 70
1, 208314, Note_off_c, 0, 57, 51
1, 208314, Control_c, 0, 64, 78
1, 208328, Control_c, 0, 64, 91
1, 208338, Note_off_c, 0, 82, 42
1, 208343, Control_c, 0, 64, 100
1, 208347, Note_off_c, 0, 81, 58
1, 208358, Control_c, 0, 64, 105
1, 208358, Control_c, 0, 67, 9
1, 208373, Control_c, 0, 64, 107
1, 208388, Control_c, 0, 64, 108
1, 208388, Control_c, 0, 67, 8
1, 208402, Control_c, 0, 64, 109
1, 208417, Control_c, 0, 64, 111
1, 208424, Note_on_c, 0, 57, 47
1, 208432, Control_c, 0, 64, 113
1, 208444, Note_on_c, 0, 61, 48
1, 208446, Control_c, 0, 64, 114
1, 208449, Note_off_c, 0, 77, 61
1, 208461, Control_c, 0, 64, 115
1, 208461, Control_c, 0, 67, 8
1, 208476, Control_c, 0, 64, 115
1, 208476, Control_c, 0, 67, 0
1, 208507, Control_c, 0, 64, 117
1, 208511, Note_on_c, 0, 79, 54
1, 208520, Note_on_c, 0, 76, 55
1, 208522, Control_c, 0, 64, 121
1, 208537, Control_c, 0, 64, 123
1, 208551, Control_c, 0, 67, 8
1, 208562, Note_off_c, 0, 76, 58
1, 208566, Control_c, 0, 64, 120
1, 208566, Control_c, 0, 67, 8
1, 208581, Control_c, 0, 64, 105
1, 208581, Control_c, 0, 67, 9
1, 208596, Control_c, 0, 64, 87
1, 208601, Note_off_c, 0, 79, 54
1, 208609, Note_off_c, 0, 61, 34
1, 208611, Note_on_c, 0, 77, 58
1, 208611, Control_c, 0, 64, 66
1, 208611, Control_c, 0, 67, 10
1, 208616, Note_on_c, 0, 58, 48
1, 208621, Note_on_c, 0, 74, 55
1, 208621, Note_off_c, 0, 57, 27
1, 208625, Note_on_c, 0, 62, 49
1, 208625, Control_c, 0, 64, 0
1, 208640, Control_c, 0, 64, 41
1, 208655, Control_c, 0, 64, 64
1, 208662, Note_off_c, 0, 58, 62
1, 208669, Control_c, 0, 64, 72
1, 208684, Control_c, 0, 64, 81
1, 208684, Control_c, 0, 67, 9
1, 208699, Control_c, 0, 64, 91
1, 208714, Control_c, 0, 64, 99
1, 208727, Note_off_c, 0, 62, 59
1, 208729, Control_c, 0, 64, 101
1, 208743, Control_c, 0, 64, 101
1, 208743, Control_c, 0, 67, 9
1, 208758, Control_c, 0, 64, 103
1, 208773, Control_c, 0, 64, 105
1, 208788, Control_c, 0, 64, 107
1, 208788, Control_c, 0, 67, 8
1, 208803, Control_c, 0, 64, 108
1, 208807, Note_on_c, 0, 64, 44
1, 208815, Note_on_c, 0, 60, 39
1, 208818, Control_c, 0, 64, 109
1, 208841, Note_off_c, 0, 74, 60
1, 208853, Note_off_c, 0, 77, 35
1, 208863, Note_on_c, 0, 76, 54
1, 208877, Control_c, 0, 67, 8
1, 208880, Note_on_c, 0, 72, 57
1, 208886, Note_off_c, 0, 76, 65
1, 208907, Control_c, 0, 64, 109
1, 208922, Control_c, 0, 64, 110
1, 208937, Control_c, 0, 64, 111
1, 208951, Control_c, 0, 64, 111
1, 208966, Control_c, 0, 67, 8
1, 208981, Control_c, 0, 67, 9
1, 208991, Note_off_c, 0, 72, 52
1, 208996, Control_c, 0, 64, 105
1, 208996, Control_c, 0, 67, 9
1, 209003, Note_off_c, 0, 64, 36
1, 209017, Control_c, 0, 64, 90
1, 209017, Control_c, 0, 67, 10
1, 209019, Note_on_c, 0, 74, 49
1, 209023, Note_off_c, 0, 60, 30
1, 209026, Note_on_c, 0, 62, 48
1, 209026, Note_on_c, 0, 70, 59
1, 209028, Note_on_c, 0, 65, 45
1, 209032, Control_c, 0, 64, 72
1, 209032, Control_c, 0, 67, 10
1, 209047, Control_c, 0, 64, 0
1, 209065, Note_off_c, 0, 62, 53
1, 209093, Note_off_c, 0, 65, 38
1, 209107, Control_c, 0, 64, 64
1, 209122, Control_c, 0, 64, 75
1, 209137, Control_c, 0, 64, 87
1, 209151, Control_c, 0, 64, 98
1, 209151, Control_c, 0, 67, 10
1, 209166, Control_c, 0, 64, 105
1, 209166, Control_c, 0, 67, 9
1, 209181, Control_c, 0, 64, 111
1, 209195, Control_c, 0, 64, 115
1, 209195, Control_c, 0, 67, 9
1, 209210, Control_c, 0, 64, 118
1, 209225, Control_c, 0, 64, 122
1, 209232, Note_on_c, 0, 53, 46
1, 209240, Control_c, 0, 64, 126
1, 209255, Control_c, 0, 64, 127
1, 209259, Note_off_c, 0, 53, 57
1, 209443, Note_off_c, 0, 70, 33
1, 209457, Note_on_c, 0, 67, 44
1, 209474, Note_on_c, 0, 64, 30
1, 209491, Note_off_c, 0, 67, 50
1, 209494, Note_off_c, 0, 74, 37
1, 209503, Note_off_c, 0, 64, 48
1, 209596, Control_c, 0, 67, 8
1, 209662, Note_on_c, 0, 53, 39
1, 209855, Control_c, 0, 67, 9
1, 209870, Control_c, 0, 67, 10
1, 209885, Control_c, 0, 67, 13
1, 209900, Control_c, 0, 64, 119
1, 209900, Control_c, 0, 67, 18
1, 209915, Control_c, 0, 64, 95
1, 209915, Control_c, 0, 67, 37
1, 209925, Note_on_c, 0, 72, 58
1, 209930, Control_c, 0, 64, 75
1, 209930, Control_c, 0, 67, 66
1, 209941, Note_on_c, 0, 69, 48
1, 209944, Control_c, 0, 64, 0
1, 209944, Control_c, 0, 67, 102
1, 209946, Note_on_c, 0, 65, 45
1, 209959, Control_c, 0, 67, 127
1, 209989, Control_c, 0, 64, 63
1, 209993, Note_off_c, 0, 65, 65
1, 210004, Control_c, 0, 64, 74
1, 210018, Control_c, 0, 64, 86
1, 210033, Control_c, 0, 64, 100
1, 210037, Note_off_c, 0, 69, 64
1, 210042, Note_off_c, 0, 53, 41
1, 210048, Control_c, 0, 64, 111
1, 210063, Control_c, 0, 64, 115
1, 210078, Control_c, 0, 64, 118
1, 210094, Control_c, 0, 64, 124
1, 210108, Control_c, 0, 64, 127
1, 210184, Note_on_c, 0, 41, 58
1, 210362, Note_off_c, 0, 41, 53
1, 210377, Note_on_c, 0, 70, 64
1, 210383, Note_on_c, 0, 62, 55
1, 210395, Note_on_c, 0, 43, 44
1, 210403, Note_off_c, 0, 72, 52
1, 210526, Note_off_c, 0, 62, 54
1, 210570, Note_off_c, 0, 70, 59
1, 210575, Note_on_c, 0, 67, 60
1, 210578, Note_on_c, 0, 46, 48
1, 210587, Note_off_c, 0, 43, 42
1, 210812, Control_c, 0, 64, 124
1, 210827, Control_c, 0, 64, 108
1, 210830, Note_on_c, 0, 69, 61
1, 210833, Note_on_c, 0, 57, 44
1, 210835, Note_off_c, 0, 46, 40
1, 210842, Note_on_c, 0, 48, 52
1, 210842, Control_c, 0, 64, 91
1, 210844, Note_off_c, 0, 67, 29
1, 210850, Note_on_c, 0, 65, 48
1, 210857, Control_c, 0, 64, 73
1, 210872, Control_c, 0, 64, 0
1, 210899, Note_off_c, 0, 65, 0
1, 210899, Note_on_c, 0, 65, 10
1, 210910, Note_off_c, 0, 48, 62
1, 210946, Control_c, 0, 64, 66
1, 210961, Control_c, 0, 64, 76
1, 210976, Control_c, 0, 64, 87
1, 210991, Control_c, 0, 64, 97
1, 211006, Control_c, 0, 64, 103
1, 211021, Control_c, 0, 64, 108
1, 211035, Control_c, 0, 64, 112
1, 211037, Note_on_c, 0, 52, 46
1, 211050, Control_c, 0, 64, 116
1, 211065, Control_c, 0, 64, 120
1, 211080, Control_c, 0, 64, 126
1, 211095, Control_c, 0, 64, 127
1, 211139, Note_off_c, 0, 65, 38
1, 211192, Note_off_c, 0, 57, 35
1, 211227, Note_on_c, 0, 53, 49
1, 211279, Note_off_c, 0, 52, 31
1, 211408, Note_off_c, 0, 53, 54
1, 211416, Note_on_c, 0, 56, 49
1, 211623, Note_off_c, 0, 56, 35
1, 211631, Note_on_c, 0, 65, 62
1, 211638, Note_on_c, 0, 57, 49
1, 211650, Note_on_c, 0, 60, 48
1, 211664, Control_c, 0, 64, 113
1, 211679, Control_c, 0, 64, 93
1, 211695, Control_c, 0, 64, 78
1, 211710, Control_c, 0, 64, 62
1, 211725, Control_c, 0, 64, 0
1, 211747, Note_off_c, 0, 69, 38
1, 211765, Note_off_c, 0, 57, 49
1, 211799, Control_c, 0, 64, 16
1, 211814, Control_c, 0, 64, 63
1, 211829, Control_c, 0, 64, 72
1, 211839, Note_on_c, 0, 59, 48
1, 211843, Control_c, 0, 64, 82
1, 211846, Note_off_c, 0, 60, 55
1, 211858, Control_c, 0, 64, 92
1, 211873, Control_c, 0, 64, 101
1, 211888, Control_c, 0, 64, 106
1, 211903, Control_c, 0, 64, 109
1, 211918, Control_c, 0, 64, 113
1, 211933, Control_c, 0, 64, 118
1, 211948, Control_c, 0, 64, 124
1, 211962, Control_c, 0, 64, 127
1, 211992, Note_off_c, 0, 59, 58
1, 212050, Note_on_c, 0, 60, 49
1, 212183, Note_off_c, 0, 60, 35
1, 212193, Note_off_c, 0, 65, 58
1, 212231, Note_on_c, 0, 61, 49
1, 212271, Note_off_c, 0, 61, 55
1, 212549, Note_on_c, 0, 67, 50
1, 212553, Note_on_c, 0, 58, 43
1, 212558, Note_on_c, 0, 60, 34
1, 212568, Note_on_c, 0, 64, 42
1, 212577, Control_c, 0, 64, 107
1, 212592, Control_c, 0, 64, 89
1, 212606, Control_c, 0, 64, 71
1, 212621, Control_c, 0, 64, 0
1, 212666, Control_c, 0, 64, 59
1, 212681, Control_c, 0, 64, 72
1, 212681, Note_off_c, 0, 60, 51
1, 212696, Control_c, 0, 64, 83
1, 212710, Control_c, 0, 64, 96
1, 212725, Control_c, 0, 64, 104
1, 212740, Control_c, 0, 64, 108
1, 212755, Control_c, 0, 64, 109
1, 212777, Control_c, 0, 64, 112
1, 212791, Control_c, 0, 64, 114
1, 212806, Control_c, 0, 64, 116
1, 212817, Note_on_c, 0, 50, 42
1, 212821, Control_c, 0, 64, 117
1, 212836, Control_c, 0, 64, 118
1, 212851, Control_c, 0, 64, 118
1, 212925, Control_c, 0, 64, 119
1, 212979, Note_off_c, 0, 50, 50
1, 213021, Note_on_c, 0, 48, 48
1, 213147, Note_off_c, 0, 48, 57
1, 213212, Note_on_c, 0, 46, 54
1, 213265, Control_c, 0, 64, 120
1, 213280, Control_c, 0, 64, 121
1, 213280, Control_c, 0, 67, 120
1, 213295, Note_off_c, 0, 46, 61
1, 213296, Control_c, 0, 64, 122
1, 213296, Control_c, 0, 67, 105
1, 213311, Control_c, 0, 64, 124
1, 213311, Control_c, 0, 67, 86
1, 213326, Control_c, 0, 64, 125
1, 213326, Control_c, 0, 67, 64
1, 213340, Control_c, 0, 64, 127
1, 213340, Control_c, 0, 67, 42
1, 213355, Control_c, 0, 64, 127
1, 213355, Control_c, 0, 67, 25
1, 213370, Control_c, 0, 67, 11
1, 213385, Control_c, 0, 67, 0
1, 213420, Note_on_c, 0, 45, 42
1, 213582, Note_off_c, 0, 45, 51
1, 213608, Note_on_c, 0, 43, 50
1, 213753, Note_off_c, 0, 64, 36
1, 213793, Note_off_c, 0, 43, 36
1, 213799, Note_on_c, 0, 41, 44
1, 213848, Note_off_c, 0, 67, 38
1, 213891, Note_off_c, 0, 58, 34
1, 213971, Note_off_c, 0, 41, 42
1, 213975, Note_on_c, 0, 40, 49
1, 214013, Note_off_c, 0, 40, 62
1, 214210, Note_on_c, 0, 38, 37
1, 214213, Note_on_c, 0, 64, 48
1, 214220, Note_on_c, 0, 58, 37
1, 214238, Control_c, 0, 64, 112
1, 214253, Control_c, 0, 64, 92
1, 214276, Control_c, 0, 64, 75
1, 214290, Control_c, 0, 64, 41
1, 214290, Control_c, 0, 67, 8
1, 214305, Control_c, 0, 64, 0
1, 214305, Control_c, 0, 67, 12
1, 214312, Note_off_c, 0, 38, 59
1, 214320, Control_c, 0, 67, 15
1, 214335, Control_c, 0, 67, 18
1, 214350, Control_c, 0, 64, 62
1, 214350, Control_c, 0, 67, 20
1, 214361, Note_on_c, 0, 36, 36
1, 214364, Control_c, 0, 64, 73
1, 214364, Control_c, 0, 67, 24
1, 214379, Control_c, 0, 64, 81
1, 214379, Control_c, 0, 67, 31
1, 214394, Control_c, 0, 64, 89
1, 214394, Control_c, 0, 67, 38
1, 214409, Control_c, 0, 64, 93
1, 214409, Control_c, 0, 67, 46
1, 214423, Control_c, 0, 64, 95
1, 214423, Control_c, 0, 67, 52
1, 214438, Control_c, 0, 64, 96
1, 214438, Control_c, 0, 67, 58
1, 214453, Control_c, 0, 64, 98
1, 214453, Control_c, 0, 67, 64
1, 214468, Control_c, 0, 64, 100
1, 214468, Control_c, 0, 67, 70
1, 214474, Note_off_c, 0, 36, 37
1, 214483, Control_c, 0, 64, 101
1, 214483, Control_c, 0, 67, 78
1, 214488, Note_on_c, 0, 34, 44
1, 214497, Control_c, 0, 67, 88
1, 214512, Control_c, 0, 64, 101
1, 214512, Control_c, 0, 67, 100
1, 214527, Control_c, 0, 67, 111
1, 214542, Control_c, 0, 64, 102
1, 214542, Control_c, 0, 67, 124
1, 214557, Control_c, 0, 67, 127
1, 214586, Control_c, 0, 64, 101
1, 214601, Control_c, 0, 64, 93
1, 214613, Note_on_c, 0, 33, 47
1, 214614, Note_off_c, 0, 34, 36
1, 214616, Control_c, 0, 64, 81
1, 214630, Control_c, 0, 64, 66
1, 214645, Control_c, 0, 64, 0
1, 214690, Control_c, 0, 64, 63
1, 214705, Control_c, 0, 64, 71
1, 214707, Note_off_c, 0, 33, 58
1, 214720, Control_c, 0, 64, 77
1, 214730, Note_on_c, 0, 31, 44
1, 214735, Control_c, 0, 64, 83
1, 214750, Control_c, 0, 64, 87
1, 214764, Control_c, 0, 64, 89
1, 214779, Control_c, 0, 64, 92
1, 214794, Control_c, 0, 64, 95
1, 214808, Control_c, 0, 64, 98
1, 214823, Control_c, 0, 64, 101
1, 214838, Control_c, 0, 64, 103
1, 214860, Note_off_c, 0, 58, 35
1, 214866, Note_off_c, 0, 31, 35
1, 214869, Note_on_c, 0, 36, 40
1, 214872, Note_off_c, 0, 64, 38
1, 214884, Control_c, 0, 64, 103
1, 214913, Control_c, 0, 64, 104
1, 214919, Note_off_c, 0, 36, 58
1, 215113, Control_c, 0, 64, 102
1, 215128, Control_c, 0, 64, 96
1, 215137, Note_on_c, 0, 65, 45
1, 215143, Control_c, 0, 64, 86
1, 215146, Note_on_c, 0, 57, 35
1, 215147, Note_on_c, 0, 41, 32
1, 215149, Note_on_c, 0, 29, 33
1, 215158, Control_c, 0, 64, 73
1, 215173, Control_c, 0, 64, 48
1, 215187, Control_c, 0, 64, 0
1, 215276, Note_off_c, 0, 41, 47
1, 215276, Control_c, 0, 64, 65
1, 215278, Note_off_c, 0, 29, 49
1, 215291, Control_c, 0, 64, 74
1, 215306, Control_c, 0, 64, 81
1, 215320, Control_c, 0, 64, 89
1, 215335, Control_c, 0, 64, 93
1, 215350, Control_c, 0, 64, 98
1, 215365, Control_c, 0, 64, 101
1, 215380, Control_c, 0, 64, 105
1, 215394, Control_c, 0, 64, 109
1, 215397, Note_on_c, 0, 41, 36
1, 215408, Note_on_c, 0, 29, 40
1, 215409, Control_c, 0, 64, 115
1, 215424, Control_c, 0, 64, 121
1, 215438, Control_c, 0, 64, 125
1, 215453, Control_c, 0, 64, 127
1, 215473, Note_off_c, 0, 41, 55
1, 215476, Note_off_c, 0, 29, 53
1, 215515, Note_off_c, 0, 57, 41
1, 215516, Note_off_c, 0, 65, 48
1, 215800, Note_on_c, 0, 29, 28
1, 215807, Note_on_c, 0, 41, 23
1, 215862, Note_off_c, 0, 41, 47
1, 215866, Note_off_c, 0, 29, 50
1, 216033, Note_on_c, 0, 29, 32
1, 216039, Note_on_c, 0, 41, 29
1, 216086, Note_off_c, 0, 41, 49
1, 216096, Note_off_c, 0, 29, 44
1, 216269, Note_on_c, 0, 29, 12
1, 216284, Poly_aftertouch_c, 0, 41, 127
1, 216326, Note_off_c, 0, 29, 45
1, 216334, Poly_aftertouch_c, 0, 41, 0
1, 216633, Note_on_c, 0, 41, 37
1, 216638, Note_on_c, 0, 29, 32
1, 216693, Note_off_c, 0, 41, 54
1, 216701, Note_off_c, 0, 29, 51
1, 216860, Note_on_c, 0, 41, 33
1, 216863, Note_on_c, 0, 29, 33
1, 216917, Note_off_c, 0, 41, 58
1, 216931, Note_off_c, 0, 29, 51
1, 217081, Note_on_c, 0, 41, 29
1, 217084, Note_on_c, 0, 29, 34
1, 217146, Note_off_c, 0, 41, 45
1, 217149, Note_off_c, 0, 29, 43
1, 217465, Note_on_c, 0, 41, 36
1, 217474, Note_on_c, 0, 29, 27
1, 217522, Note_off_c, 0, 41, 47
1, 217531, Note_off_c, 0, 29, 45
1, 217815, Note_on_c, 0, 73, 70
1, 217817, Note_on_c, 0, 70, 65
1, 217824, Note_on_c, 0, 61, 58
1, 217839, Note_on_c, 0, 65, 55
1, 217853, Note_on_c, 0, 41, 36
1, 217859, Note_on_c, 0, 29, 32
1, 217893, Control_c, 0, 64, 109
1, 217907, Control_c, 0, 64, 91
1, 217922, Control_c, 0, 64, 73
1, 217937, Control_c, 0, 64, 0
1, 217994, Note_off_c, 0, 41, 51
1, 217996, Control_c, 0, 64, 58
1, 218019, Control_c, 0, 64, 73
1, 218023, Note_off_c, 0, 29, 43
1, 218033, Control_c, 0, 64, 85
1, 218048, Control_c, 0, 64, 100
1, 218063, Control_c, 0, 64, 111
1, 218078, Control_c, 0, 64, 120
1, 218094, Control_c, 0, 64, 127
1, 218142, Note_on_c, 0, 29, 34
1, 218148, Note_on_c, 0, 41, 36
1, 218189, Note_off_c, 0, 41, 52
1, 218190, Note_off_c, 0, 29, 47
1, 218498, Note_on_c, 0, 41, 39
1, 218508, Note_on_c, 0, 29, 34
1, 218562, Note_off_c, 0, 41, 58
1, 218568, Note_off_c, 0, 29, 54
1, 218630, Note_off_c, 0, 65, 36
1, 218634, Note_off_c, 0, 61, 53
1, 218673, Note_off_c, 0, 70, 38
1, 218684, Note_off_c, 0, 73, 50
1, 218726, Note_on_c, 0, 41, 38
1, 218732, Note_on_c, 0, 29, 30
1, 218797, Note_off_c, 0, 41, 48
1, 218807, Note_off_c, 0, 29, 43
1, 218955, Note_on_c, 0, 41, 33
1, 218959, Note_on_c, 0, 29, 30
1, 219027, Note_off_c, 0, 41, 43
1, 219037, Note_off_c, 0, 29, 41
1, 219284, Note_on_c, 0, 41, 33
1, 219289, Note_on_c, 0, 29, 26
1, 219338, Note_off_c, 0, 41, 49
1, 219357, Note_off_c, 0, 29, 42
1, 219543, Note_on_c, 0, 74, 54
1, 219556, Note_on_c, 0, 62, 44
1, 219557, Note_on_c, 0, 70, 46
1, 219585, Note_on_c, 0, 29, 26
1, 219587, Note_on_c, 0, 41, 26
1, 219589, Control_c, 0, 64, 115
1, 219604, Control_c, 0, 64, 95
1, 219618, Control_c, 0, 64, 73
1, 219633, Control_c, 0, 64, 0
1, 219659, Note_off_c, 0, 41, 54
1, 219692, Note_off_c, 0, 29, 38
1, 219694, Control_c, 0, 64, 57
1, 219708, Control_c, 0, 64, 72
1, 219723, Control_c, 0, 64, 85
1, 219738, Control_c, 0, 64, 96
1, 219753, Control_c, 0, 64, 102
1, 219768, Control_c, 0, 64, 107
1, 219782, Control_c, 0, 64, 110
1, 219791, Note_on_c, 0, 41, 45
1, 219797, Control_c, 0, 64, 114
1, 219812, Control_c, 0, 64, 120
1, 219818, Note_on_c, 0, 29, 39
1, 219826, Control_c, 0, 64, 127
1, 219841, Control_c, 0, 64, 127
1, 219848, Note_off_c, 0, 41, 57
1, 219870, Note_off_c, 0, 29, 45
1, 219891, Note_off_c, 0, 62, 49
1, 220133, Note_on_c, 0, 64, 41
1, 220135, Note_on_c, 0, 29, 32
1, 220145, Note_on_c, 0, 41, 29
1, 220163, Note_off_c, 0, 64, 53
1, 220182, Note_off_c, 0, 41, 52
1, 220204, Note_off_c, 0, 29, 42
1, 220348, Note_off_c, 0, 70, 61
1, 220351, Note_off_c, 0, 74, 59
1, 220403, Note_on_c, 0, 69, 43
1, 220412, Control_c, 0, 64, 119
1, 220413, Note_on_c, 0, 72, 47
1, 220428, Control_c, 0, 64, 105
1, 220434, Note_on_c, 0, 65, 38
1, 220438, Note_on_c, 0, 29, 26
1, 220441, Note_on_c, 0, 41, 26
1, 220442, Control_c, 0, 64, 90
1, 220457, Control_c, 0, 64, 74
1, 220472, Control_c, 0, 64, 28
1, 220488, Control_c, 0, 64, 0
1, 220524, Note_off_c, 0, 41, 42
1, 220531, Note_off_c, 0, 29, 39
1, 220562, Control_c, 0, 64, 66
1, 220577, Control_c, 0, 64, 78
1, 220592, Control_c, 0, 64, 88
1, 220606, Control_c, 0, 64, 97
1, 220621, Control_c, 0, 64, 103
1, 220636, Control_c, 0, 64, 108
1, 220648, Note_on_c, 0, 41, 41
1, 220650, Control_c, 0, 64, 113
1, 220665, Control_c, 0, 64, 117
1, 220667, Note_on_c, 0, 29, 41
1, 220680, Control_c, 0, 64, 121
1, 220695, Control_c, 0, 64, 124
1, 220710, Control_c, 0, 64, 127
1, 220712, Note_off_c, 0, 41, 55
1, 220718, Note_off_c, 0, 29, 52
1, 221069, Note_off_c, 0, 65, 41
1, 221079, Note_on_c, 0, 29, 27
1, 221080, Note_on_c, 0, 41, 26
1, 221101, Note_off_c, 0, 69, 39
1, 221108, Note_off_c, 0, 72, 36
1, 221135, Note_off_c, 0, 29, 46
1, 221138, Note_off_c, 0, 41, 47
1, 221335, Note_on_c, 0, 41, 9
1, 221342, Note_on_c, 0, 29, 20
1, 221388, Note_off_c, 0, 29, 49
1, 221388, Note_off_c, 0, 41, 52
1, 221541, Note_on_c, 0, 41, 22
1, 221547, Note_on_c, 0, 29, 16
1, 221602, Note_off_c, 0, 41, 46
1, 221608, Note_off_c, 0, 29, 45
1, 221929, Note_on_c, 0, 41, 32
1, 221931, Note_on_c, 0, 29, 34
1, 221994, Note_off_c, 0, 41, 44
1, 221995, Note_off_c, 0, 29, 53
1, 222148, Note_on_c, 0, 41, 34
1, 222157, Note_on_c, 0, 29, 32
1, 222202, Note_off_c, 0, 41, 51
1, 222217, Note_off_c, 0, 29, 44
1, 222381, Note_on_c, 0, 29, 22
1, 222384, Note_on_c, 0, 41, 24
1, 222431, Note_off_c, 0, 41, 49
1, 222440, Note_off_c, 0, 29, 45
1, 222749, Note_on_c, 0, 41, 37
1, 222753, Note_on_c, 0, 29, 33
1, 222810, Note_off_c, 0, 41, 45
1, 222825, Note_off_c, 0, 29, 42
1, 223067, Note_on_c, 0, 62, 57
1, 223078, Note_on_c, 0, 58, 52
1, 223080, Note_on_c, 0, 55, 48
1, 223104, Control_c, 0, 64, 117
1, 223112, Note_on_c, 0, 29, 25
1, 223118, Control_c, 0, 64, 104
1, 223124, Note_on_c, 0, 41, 24
1, 223133, Control_c, 0, 64, 90
1, 223148, Control_c, 0, 64, 75
1, 223163, Control_c, 0, 64, 0
1, 223237, Note_off_c, 0, 41, 38
1, 223251, Note_off_c, 0, 29, 37
1, 223259, Control_c, 0, 64, 68
1, 223274, Control_c, 0, 64, 80
1, 223289, Control_c, 0, 64, 94
1, 223304, Control_c, 0, 64, 105
1, 223319, Control_c, 0, 64, 113
1, 223333, Control_c, 0, 64, 118
1, 223343, Note_on_c, 0, 29, 30
1, 223344, Note_on_c, 0, 41, 32
1, 223348, Control_c, 0, 64, 122
1, 223363, Control_c, 0, 64, 127
1, 223408, Note_off_c, 0, 41, 54
1, 223425, Note_off_c, 0, 29, 41
1, 223743, Note_on_c, 0, 29, 26
1, 223743, Note_on_c, 0, 41, 29
1, 223800, Note_off_c, 0, 41, 47
1, 223808, Note_off_c, 0, 29, 43
1, 223955, Note_on_c, 0, 29, 35
1, 223958, Note_on_c, 0, 41, 32
1, 224016, Note_off_c, 0, 41, 48
1, 224020, Note_off_c, 0, 29, 43
1, 224182, Note_on_c, 0, 29, 28
1, 224189, Note_on_c, 0, 41, 18
1, 224223, Note_off_c, 0, 55, 33
1, 224238, Note_off_c, 0, 62, 55
1, 224238, Note_off_c, 0, 41, 48
1, 224241, Note_off_c, 0, 29, 45
1, 224255, Note_off_c, 0, 58, 41
1, 224520, Note_on_c, 0, 41, 38
1, 224530, Note_on_c, 0, 29, 32
1, 224580, Note_off_c, 0, 41, 58
1, 224598, Note_off_c, 0, 29, 42
1, 224774, Note_on_c, 0, 64, 54
1, 224784, Note_on_c, 0, 60, 44
1, 224787, Control_c, 0, 64, 112
1, 224792, Note_on_c, 0, 29, 32
1, 224792, Note_on_c, 0, 41, 35
1, 224802, Control_c, 0, 64, 92
1, 224817, Control_c, 0, 64, 72
1, 224831, Control_c, 0, 64, 0
1, 224840, Note_off_c, 0, 64, 62
1, 224863, Note_on_c, 0, 65, 49
1, 224876, Control_c, 0, 64, 41
1, 224891, Control_c, 0, 64, 72
1, 224906, Control_c, 0, 64, 84
1, 224906, Note_off_c, 0, 29, 37
1, 224915, Note_off_c, 0, 41, 38
1, 224915, Note_off_c, 0, 65, 60
1, 224921, Control_c, 0, 64, 99
1, 224935, Control_c, 0, 64, 112
1, 224947, Note_on_c, 0, 64, 43
1, 224950, Control_c, 0, 64, 122
1, 224965, Control_c, 0, 64, 127
1, 224974, Note_off_c, 0, 64, 61
1, 224980, Control_c, 0, 64, 127
1, 224998, Note_on_c, 0, 65, 50
1, 225008, Note_on_c, 0, 29, 37
1, 225010, Note_on_c, 0, 41, 36
1, 225030, Note_off_c, 0, 65, 62
1, 225055, Note_on_c, 0, 64, 47
1, 225080, Note_off_c, 0, 64, 57
1, 225088, Note_on_c, 0, 65, 52
1, 225102, Note_off_c, 0, 41, 37
1, 225108, Note_off_c, 0, 29, 36
1, 225135, Note_on_c, 0, 64, 49
1, 225135, Note_off_c, 0, 65, 56
1, 225347, Note_off_c, 0, 64, 61
1, 225372, Note_on_c, 0, 41, 37
1, 225372, Note_on_c, 0, 62, 53
1, 225377, Note_on_c, 0, 29, 36
1, 225395, Note_off_c, 0, 60, 37
1, 225453, Note_off_c, 0, 41, 41
1, 225457, Note_off_c, 0, 29, 40
1, 225466, Note_off_c, 0, 62, 54
1, 225481, Note_on_c, 0, 64, 53
1, 225527, Note_off_c, 0, 64, 64
1, 225794, Note_on_c, 0, 65, 45
1, 225805, Note_on_c, 0, 60, 38
1, 225809, Note_on_c, 0, 53, 34
1, 225815, Note_on_c, 0, 29, 26
1, 225819, Note_on_c, 0, 57, 38
1, 225851, Note_on_c, 0, 41, 13
1, 225862, Control_c, 0, 64, 107
1, 225877, Control_c, 0, 64, 90
1, 225892, Control_c, 0, 64, 74
1, 225907, Control_c, 0, 64, 43
1, 225921, Control_c, 0, 64, 0
1, 225946, Note_off_c, 0, 41, 39
1, 225961, Note_off_c, 0, 29, 42
1, 225980, Control_c, 0, 64, 32
1, 225995, Control_c, 0, 64, 68
1, 226010, Control_c, 0, 64, 78
1, 226025, Control_c, 0, 64, 91
1, 226039, Control_c, 0, 64, 99
1, 226054, Control_c, 0, 64, 104
1, 226070, Control_c, 0, 64, 108
1, 226085, Control_c, 0, 64, 112
1, 226100, Control_c, 0, 64, 117
1, 226101, Note_on_c, 0, 41, 35
1, 226107, Note_on_c, 0, 29, 35
1, 226115, Control_c, 0, 64, 121
1, 226130, Control_c, 0, 64, 127
1, 226144, Control_c, 0, 64, 127
1, 226150, Note_off_c, 0, 41, 48
1, 226156, Note_off_c, 0, 29, 47
1, 226506, Note_on_c, 0, 41, 35
1, 226523, Note_on_c, 0, 29, 22
1, 226557, Note_off_c, 0, 41, 53
1, 226574, Note_off_c, 0, 29, 46
1, 226750, Note_on_c, 0, 29, 24
1, 226762, Note_on_c, 0, 41, 17
1, 226811, Note_off_c, 0, 29, 44
1, 226812, Note_off_c, 0, 41, 53
1, 227000, Note_on_c, 0, 29, 25
1, 227001, Note_on_c, 0, 41, 17
1, 227016, Note_off_c, 0, 65, 41
1, 227030, Note_off_c, 0, 53, 42
1, 227044, Note_off_c, 0, 60, 48
1, 227050, Note_off_c, 0, 57, 41
1, 227052, Note_off_c, 0, 29, 46
1, 227052, Note_off_c, 0, 41, 50
1, 227344, Note_on_c, 0, 41, 35
1, 227356, Note_on_c, 0, 29, 30
1, 227401, Note_off_c, 0, 41, 55
1, 227432, Note_off_c, 0, 29, 41
1, 227606, Note_on_c, 0, 60, 46
1, 227622, Note_on_c, 0, 48, 38
1, 227639, Note_on_c, 0, 57, 39
1, 227670, Poly_aftertouch_c, 0, 29, 127
1, 227675, Poly_aftertouch_c, 0, 41, 127
1, 227717, Poly_aftertouch_c, 0, 41, 0
1, 227719, Poly_aftertouch_c, 0, 29, 0
1, 227848, Note_on_c, 0, 29, 41
1, 227849, Note_on_c, 0, 41, 38
1, 227900, Note_off_c, 0, 41, 49
1, 227901, Note_off_c, 0, 29, 54
1, 227911, Note_off_c, 0, 57, 50
1, 228235, Note_on_c, 0, 29, 27
1, 228243, Note_on_c, 0, 41, 22
1, 228290, Note_off_c, 0, 29, 44
1, 228290, Note_off_c, 0, 41, 51
1, 228541, Note_on_c, 0, 57, 38
1, 228543, Note_on_c, 0, 53, 35
1, 228546, Control_c, 0, 64, 125
1, 228561, Control_c, 0, 64, 104
1, 228575, Note_on_c, 0, 41, 25
1, 228576, Control_c, 0, 64, 87
1, 228580, Note_on_c, 0, 29, 26
1, 228590, Control_c, 0, 64, 70
1, 228605, Control_c, 0, 64, 0
1, 228665, Control_c, 0, 64, 66
1, 228679, Control_c, 0, 64, 77
1, 228688, Note_off_c, 0, 60, 27
1, 228694, Control_c, 0, 64, 88
1, 228699, Note_off_c, 0, 41, 44
1, 228709, Note_off_c, 0, 29, 40
1, 228709, Control_c, 0, 64, 100
1, 228724, Control_c, 0, 64, 107
1, 228739, Control_c, 0, 64, 112
1, 228754, Control_c, 0, 64, 116
1, 228769, Control_c, 0, 64, 121
1, 228784, Control_c, 0, 64, 127
1, 228822, Note_on_c, 0, 41, 33
1, 228857, Note_on_c, 0, 29, 19
1, 228870, Note_off_c, 0, 41, 49
1, 228905, Note_off_c, 0, 29, 50
1, 229219, Note_on_c, 0, 41, 26
1, 229243, Note_on_c, 0, 29, 11
1, 229273, Note_off_c, 0, 41, 50
1, 229296, Note_off_c, 0, 29, 47
1, 229487, Note_on_c, 0, 41, 19
1, 229511, Note_on_c, 0, 29, 3
1, 229530, Note_off_c, 0, 41, 54
1, 229550, Note_off_c, 0, 29, 48
1, 229744, Note_on_c, 0, 41, 12
1, 229777, Poly_aftertouch_c, 0, 29, 127
1, 229792, Note_off_c, 0, 41, 51
1, 229827, Poly_aftertouch_c, 0, 29, 0
1, 230188, Note_on_c, 0, 29, 22
1, 230188, Note_on_c, 0, 41, 18
1, 230247, Note_off_c, 0, 41, 47
1, 230247, Note_off_c, 0, 29, 44
1, 230492, Note_on_c, 0, 41, 28
1, 230498, Note_on_c, 0, 29, 24
1, 230545, Note_off_c, 0, 41, 47
1, 230557, Note_off_c, 0, 29, 44
1, 230971, Note_on_c, 0, 41, 23
1, 230982, Note_on_c, 0, 29, 19
1, 231496, Control_c, 0, 67, 124
1, 231510, Control_c, 0, 67, 120
1, 231518, Note_off_c, 0, 29, 23
1, 231525, Control_c, 0, 67, 113
1, 231540, Control_c, 0, 67, 105
1, 231555, Control_c, 0, 67, 97
1, 231570, Control_c, 0, 67, 88
1, 231584, Control_c, 0, 67, 80
1, 231599, Control_c, 0, 67, 72
1, 231614, Control_c, 0, 67, 64
1, 231629, Control_c, 0, 67, 59
1, 231640, Note_off_c, 0, 41, 18
1, 231644, Control_c, 0, 67, 54
1, 231660, Control_c, 0, 67, 49
1, 231675, Control_c, 0, 67, 45
1, 231689, Control_c, 0, 67, 41
1, 231704, Control_c, 0, 67, 37
1, 231719, Control_c, 0, 67, 34
1, 231734, Control_c, 0, 67, 31
1, 231749, Control_c, 0, 67, 29
1, 231763, Control_c, 0, 67, 27
1, 231778, Control_c, 0, 67, 25
1, 231793, Control_c, 0, 67, 23
1, 231807, Control_c, 0, 67, 22
1, 231822, Control_c, 0, 67, 19
1, 231837, Control_c, 0, 67, 17
1, 231852, Control_c, 0, 67, 15
1, 231867, Control_c, 0, 67, 14
1, 231878, Note_off_c, 0, 48, 0
1, 231903, Note_off_c, 0, 53, 0
1, 231915, Poly_aftertouch_c, 0, 48, 127
1, 231941, Poly_aftertouch_c, 0, 53, 127
1, 232075, Control_c, 0, 67, 14
1, 232089, Control_c, 0, 67, 15
1, 232105, Poly_aftertouch_c, 0, 41, 127
1, 232108, Poly_aftertouch_c, 0, 29, 127
1, 232119, Control_c, 0, 67, 15
1, 232178, Control_c, 0, 67, 16
1, 232207, Control_c, 0, 67, 16
1, 232245, Control_c, 0, 67, 17
1, 232274, Control_c, 0, 67, 17
1, 232304, Control_c, 0, 67, 18
1, 232333, Control_c, 0, 67, 18
1, 232378, Control_c, 0, 67, 19
1, 232393, Control_c, 0, 67, 19
1, 232407, Control_c, 0, 64, 125
1, 232407, Control_c, 0, 67, 20
1, 232422, Control_c, 0, 64, 122
1, 232437, Control_c, 0, 64, 119
1, 232437, Control_c, 0, 67, 20
1, 232452, Control_c, 0, 64, 117
1, 232468, Control_c, 0, 64, 114
1, 232483, Control_c, 0, 64, 110
1, 232498, Control_c, 0, 64, 107
1, 232498, Control_c, 0, 67, 21
1, 232512, Control_c, 0, 64, 103
1, 232512, Control_c, 0, 67, 21
1, 232527, Control_c, 0, 64, 99
1, 232542, Control_c, 0, 64, 94
1, 232557, Control_c, 0, 64, 90
1, 232571, Control_c, 0, 64, 87
1, 232586, Control_c, 0, 64, 84
1, 232601, Control_c, 0, 64, 80
1, 232601, Control_c, 0, 67, 22
1, 232616, Control_c, 0, 64, 76
1, 232630, Control_c, 0, 64, 72
1, 232645, Control_c, 0, 64, 69
1, 232660, Control_c, 0, 64, 68
1, 232660, Control_c, 0, 67, 22
1, 232675, Control_c, 0, 64, 67
1, 232690, Control_c, 0, 64, 66
1, 232704, Control_c, 0, 64, 64
1, 232719, Control_c, 0, 64, 63
1, 232734, Control_c, 0, 64, 61
1, 232734, Control_c, 0, 67, 23
1, 232749, Control_c, 0, 64, 59
1, 232763, Control_c, 0, 64, 56
1, 232763, Control_c, 0, 67, 23
1, 232778, Control_c, 0, 64, 49
1, 232793, Control_c, 0, 64, 33
1, 232808, Control_c, 0, 64, 0
1, 232823, Control_c, 0, 67, 24
1, 232971, Control_c, 0, 67, 24
1, 233067, Control_c, 0, 67, 24
1, 233142, Control_c, 0, 64, 55
1, 233142, Control_c, 0, 67, 23
1, 233156, Control_c, 0, 64, 65
1, 233156, Control_c, 0, 67, 23
1, 233171, Control_c, 0, 64, 67
1, 233186, Control_c, 0, 64, 70
1, 233201, Control_c, 0, 64, 73
1, 233216, Control_c, 0, 64, 76
1, 233230, Control_c, 0, 64, 79
1, 233245, Control_c, 0, 64, 81
1, 233261, Control_c, 0, 64, 82
1, 233276, Control_c, 0, 64, 84
1, 233276, Control_c, 0, 67, 22
1, 233291, Control_c, 0, 64, 87
1, 233306, Control_c, 0, 64, 89
1, 233321, Control_c, 0, 64, 90
1, 233646, Control_c, 0, 64, 89
1, 233661, Control_c, 0, 64, 89
1, 233690, Control_c, 0, 64, 88
1, 233705, Control_c, 0, 64, 87
1, 233720, Control_c, 0, 64, 86
1, 233742, Control_c, 0, 64, 86
1, 233757, Control_c, 0, 64, 85
1, 233772, Control_c, 0, 64, 84
1, 233786, Control_c, 0, 64, 82
1, 233801, Control_c, 0, 64, 80
1, 233816, Control_c, 0, 64, 78
1, 233831, Control_c, 0, 64, 77
1, 233846, Control_c, 0, 64, 75
1, 233860, Control_c, 0, 64, 74
1, 233875, Control_c, 0, 64, 71
1, 233890, Control_c, 0, 64, 69
1, 233905, Control_c, 0, 64, 67
1, 233920, Control_c, 0, 64, 64
1, 233935, Control_c, 0, 64, 63
1, 233965, Control_c, 0, 64, 63
1, 233978, Poly_aftertouch_c, 0, 29, 0
1, 233979, Control_c, 0, 64, 62
1, 233994, Control_c, 0, 64, 62
1, 234009, Control_c, 0, 64, 60
1, 234024, Control_c, 0, 64, 59
1, 234039, Control_c, 0, 64, 57
1, 234054, Control_c, 0, 64, 56
1, 234069, Control_c, 0, 64, 56
1, 234084, Control_c, 0, 64, 55
1, 234099, Control_c, 0, 64, 54
1, 234114, Control_c, 0, 64, 53
1, 234129, Control_c, 0, 64, 52
1, 234139, Poly_aftertouch_c, 0, 53, 0
1, 234143, Control_c, 0, 64, 49
1, 234158, Control_c, 0, 64, 43
1, 234173, Control_c, 0, 64, 36
1, 234188, Control_c, 0, 64, 33
1, 234202, Control_c, 0, 64, 32
1, 234202, Control_c, 0, 67, 23
1, 234203, Poly_aftertouch_c, 0, 41, 0
1, 234212, Poly_aftertouch_c, 0, 48, 0
1, 234217, Control_c, 0, 64, 31
1, 234232, Control_c, 0, 64, 26
1, 234247, Control_c, 0, 64, 16
1, 234262, Control_c, 0, 64, 0
1, 234322, Note_off_c, 0, 57, 33
1, 234351, Control_c, 0, 67, 23
1, 234424, Control_c, 0, 67, 24
1, 235222, Note_on_c, 0, 40, 50
1, 235244, Note_on_c, 0, 52, 46
1, 235272, Note_off_c, 0, 52, 59
1, 235307, Note_off_c, 0, 40, 55
1, 235317, Note_on_c, 0, 54, 55
1, 235318, Note_on_c, 0, 42, 51
1, 235366, Note_off_c, 0, 54, 54
1, 235404, Note_on_c, 0, 43, 57
1, 235405, Note_on_c, 0, 55, 55
1, 235405, Note_off_c, 0, 42, 58
1, 235462, Note_off_c, 0, 55, 58
1, 235479, Note_off_c, 0, 43, 61
1, 235488, Note_on_c, 0, 57, 59
1, 235490, Note_on_c, 0, 45, 56
1, 235547, Note_off_c, 0, 57, 56
1, 235552, Note_off_c, 0, 45, 58
1, 235572, Note_on_c, 0, 59, 68
1, 235583, Note_on_c, 0, 47, 62
1, 235598, Note_off_c, 0, 59, 66
1, 235610, Note_off_c, 0, 47, 64
1, 235757, Note_on_c, 0, 60, 79
1, 235765, Note_on_c, 0, 48, 75
1, 235769, Note_on_c, 0, 36, 64
1, 235780, Note_off_c, 0, 60, 66
1, 235794, Note_off_c, 0, 48, 67
1, 235798, Note_off_c, 0, 36, 65
1, 235848, Control_c, 0, 67, 24
1, 235878, Control_c, 0, 67, 25
1, 235986, Note_on_c, 0, 59, 67
1, 235995, Note_on_c, 0, 47, 71
1, 236000, Note_on_c, 0, 35, 62
1, 236004, Control_c, 0, 64, 63
1, 236004, Control_c, 0, 67, 24
1, 236018, Control_c, 0, 64, 76
1, 236018, Control_c, 0, 67, 24
1, 236030, Note_off_c, 0, 47, 64
1, 236033, Note_off_c, 0, 35, 64
1, 236033, Control_c, 0, 64, 91
1, 236048, Control_c, 0, 64, 106
1, 236052, Note_off_c, 0, 59, 61
1, 236063, Control_c, 0, 64, 114
1, 236063, Control_c, 0, 67, 23
1, 236078, Control_c, 0, 64, 117
1, 236078, Control_c, 0, 67, 22
1, 236093, Control_c, 0, 64, 118
1, 236107, Control_c, 0, 64, 119
1, 236137, Control_c, 0, 64, 119
1, 236329, Control_c, 0, 67, 23
1, 236359, Control_c, 0, 64, 117
1, 236374, Control_c, 0, 64, 110
1, 236374, Control_c, 0, 67, 23
1, 236388, Control_c, 0, 64, 100
1, 236388, Control_c, 0, 67, 24
1, 236399, Note_on_c, 0, 40, 59
1, 236400, Note_on_c, 0, 52, 67
1, 236403, Control_c, 0, 64, 88
1, 236418, Control_c, 0, 64, 76
1, 236428, Note_off_c, 0, 52, 67
1, 236433, Control_c, 0, 64, 63
1, 236433, Control_c, 0, 67, 24
1, 236449, Control_c, 0, 64, 0
1, 236474, Note_on_c, 0, 54, 65
1, 236478, Note_on_c, 0, 42, 62
1, 236483, Note_off_c, 0, 40, 53
1, 236507, Note_off_c, 0, 54, 60
1, 236558, Note_on_c, 0, 55, 67
1, 236561, Note_on_c, 0, 43, 60
1, 236567, Control_c, 0, 67, 25
1, 236578, Note_off_c, 0, 42, 53
1, 236621, Note_off_c, 0, 55, 64
1, 236629, Note_on_c, 0, 45, 67
1, 236631, Note_on_c, 0, 57, 68
1, 236636, Note_off_c, 0, 43, 61
1, 236671, Note_off_c, 0, 57, 59
1, 236694, Note_off_c, 0, 45, 56
1, 236714, Note_on_c, 0, 59, 79
1, 236716, Control_c, 0, 67, 25
1, 236734, Note_on_c, 0, 47, 71
1, 236745, Note_off_c, 0, 59, 68
1, 236752, Control_c, 0, 67, 26
1, 236761, Note_off_c, 0, 47, 66
1, 236856, Control_c, 0, 67, 26
1, 236914, Note_on_c, 0, 48, 76
1, 236915, Note_on_c, 0, 60, 87
1, 236919, Note_on_c, 0, 36, 69
1, 236939, Note_off_c, 0, 48, 68
1, 236944, Note_off_c, 0, 60, 59
1, 236945, Note_off_c, 0, 36, 65
1, 237019, Control_c, 0, 67, 27
1, 237034, Control_c, 0, 67, 27
1, 237049, Control_c, 0, 67, 28
1, 237064, Control_c, 0, 67, 29
1, 237113, Note_on_c, 0, 59, 87
1, 237118, Note_on_c, 0, 47, 79
1, 237122, Note_on_c, 0, 35, 69
1, 237123, Control_c, 0, 67, 28
1, 237137, Control_c, 0, 64, 18
1, 237137, Control_c, 0, 67, 28
1, 237148, Note_off_c, 0, 35, 65
1, 237149, Note_off_c, 0, 47, 65
1, 237152, Control_c, 0, 64, 69
1, 237152, Control_c, 0, 67, 27
1, 237161, Note_off_c, 0, 59, 64
1, 237167, Control_c, 0, 64, 83
1, 237182, Control_c, 0, 64, 102
1, 237182, Control_c, 0, 67, 27
1, 237196, Control_c, 0, 64, 123
1, 237211, Control_c, 0, 64, 127
1, 237226, Control_c, 0, 67, 26
1, 237484, Note_on_c, 0, 64, 74
1, 237488, Note_on_c, 0, 52, 65
1, 237510, Note_off_c, 0, 64, 66
1, 237516, Control_c, 0, 64, 124
1, 237522, Note_off_c, 0, 52, 63
1, 237531, Control_c, 0, 64, 111
1, 237531, Control_c, 0, 67, 27
1, 237546, Control_c, 0, 64, 96
1, 237546, Control_c, 0, 67, 27
1, 237553, Note_on_c, 0, 60, 80
1, 237560, Note_on_c, 0, 48, 74
1, 237560, Control_c, 0, 64, 81
1, 237575, Control_c, 0, 64, 65
1, 237575, Control_c, 0, 67, 28
1, 237585, Note_off_c, 0, 60, 60
1, 237590, Control_c, 0, 64, 0
1, 237605, Control_c, 0, 67, 28
1, 237616, Note_off_c, 0, 48, 58
1, 237638, Note_on_c, 0, 59, 77
1, 237640, Note_on_c, 0, 47, 69
1, 237667, Note_off_c, 0, 47, 67
1, 237672, Note_off_c, 0, 59, 65
1, 237811, Note_on_c, 0, 67, 85
1, 237815, Note_on_c, 0, 55, 59
1, 237847, Note_off_c, 0, 67, 61
1, 237853, Note_off_c, 0, 55, 63
1, 237884, Note_on_c, 0, 60, 75
1, 237893, Note_on_c, 0, 48, 62
1, 237926, Note_off_c, 0, 60, 61
1, 237935, Note_off_c, 0, 48, 62
1, 237966, Note_on_c, 0, 47, 72
1, 237968, Note_on_c, 0, 59, 86
1, 237995, Note_off_c, 0, 47, 65
1, 237997, Note_off_c, 0, 59, 66
1, 238132, Note_on_c, 0, 71, 84
1, 238143, Note_on_c, 0, 59, 64
1, 238174, Note_off_c, 0, 71, 58
1, 238177, Note_off_c, 0, 59, 62
1, 238209, Note_on_c, 0, 60, 77
1, 238242, Note_on_c, 0, 48, 64
1, 238295, Note_off_c, 0, 48, 62
1, 238298, Note_off_c, 0, 60, 67
1, 238300, Note_on_c, 0, 59, 83
1, 238304, Note_on_c, 0, 47, 75
1, 238323, Note_off_c, 0, 59, 68
1, 238332, Note_off_c, 0, 47, 65
1, 238480, Note_on_c, 0, 72, 80
1, 238489, Note_on_c, 0, 60, 69
1, 238503, Note_off_c, 0, 72, 67
1, 238513, Note_off_c, 0, 60, 66
1, 238561, Note_on_c, 0, 60, 76
1, 238582, Note_on_c, 0, 48, 61
1, 238595, Note_off_c, 0, 60, 54
1, 238634, Note_off_c, 0, 48, 65
1, 238635, Note_on_c, 0, 59, 82
1, 238640, Note_on_c, 0, 47, 70
1, 238657, Note_off_c, 0, 59, 68
1, 238665, Note_off_c, 0, 47, 66
1, 238815, Note_on_c, 0, 76, 77
1, 238820, Note_on_c, 0, 64, 76
1, 238828, Control_c, 0, 67, 28
1, 238836, Note_off_c, 0, 76, 71
1, 238841, Note_off_c, 0, 64, 68
1, 238873, Control_c, 0, 67, 27
1, 239005, Note_on_c, 0, 60, 87
1, 239013, Note_on_c, 0, 48, 71
1, 239014, Control_c, 0, 67, 28
1, 239040, Note_off_c, 0, 60, 63
1, 239043, Note_off_c, 0, 48, 65
1, 239074, Control_c, 0, 67, 27
1, 239118, Control_c, 0, 67, 28
1, 239132, Control_c, 0, 67, 29
1, 239206, Control_c, 0, 67, 28
1, 239221, Control_c, 0, 67, 28
1, 239232, Note_on_c, 0, 59, 92
1, 239236, Control_c, 0, 67, 27
1, 239241, Note_on_c, 0, 47, 76
1, 239251, Control_c, 0, 67, 27
1, 239280, Control_c, 0, 64, 33
1, 239295, Control_c, 0, 64, 72
1, 239310, Control_c, 0, 64, 90
1, 239324, Control_c, 0, 64, 127
1, 239336, Note_off_c, 0, 59, 60
1, 239345, Note_off_c, 0, 47, 62
1, 239354, Control_c, 0, 67, 26
1, 239384, Control_c, 0, 67, 26
1, 239429, Control_c, 0, 67, 26
1, 239562, Control_c, 0, 67, 27
1, 239577, Control_c, 0, 67, 27
1, 239591, Control_c, 0, 64, 126
1, 239591, Control_c, 0, 67, 28
1, 239606, Control_c, 0, 64, 106
1, 239606, Control_c, 0, 67, 28
1, 239621, Control_c, 0, 64, 88
1, 239636, Control_c, 0, 64, 72
1, 239636, Control_c, 0, 67, 29
1, 239652, Control_c, 0, 64, 0
1, 239667, Control_c, 0, 67, 29
1, 239696, Control_c, 0, 67, 30
1, 239700, Note_on_c, 0, 72, 84
1, 239711, Control_c, 0, 67, 31
1, 239739, Note_off_c, 0, 72, 66
1, 239748, Control_c, 0, 67, 30
1, 239762, Control_c, 0, 67, 29
1, 239777, Control_c, 0, 67, 28
1, 239792, Control_c, 0, 67, 28
1, 239804, Note_on_c, 0, 88, 89
1, 239805, Note_on_c, 0, 57, 81
1, 239807, Note_on_c, 0, 45, 74
1, 239807, Control_c, 0, 64, 64
1, 239807, Control_c, 0, 67, 27
1, 239822, Control_c, 0, 64, 77
1, 239822, Control_c, 0, 67, 27
1, 239835, Note_off_c, 0, 45, 66
1, 239835, Note_off_c, 0, 57, 65
1, 239837, Control_c, 0, 64, 95
1, 239852, Control_c, 0, 64, 127
1, 239852, Control_c, 0, 67, 26
1, 239882, Control_c, 0, 67, 26
1, 239897, Control_c, 0, 67, 25
1, 239911, Control_c, 0, 67, 24
1, 239926, Control_c, 0, 67, 23
1, 240001, Control_c, 0, 67, 24
1, 240063, Note_off_c, 0, 88, 53
1, 240065, Note_on_c, 0, 86, 76
1, 240078, Note_on_c, 0, 57, 58
1, 240086, Note_on_c, 0, 66, 60
1, 240088, Note_on_c, 0, 64, 58
1, 240096, Note_on_c, 0, 60, 42
1, 240109, Note_off_c, 0, 66, 61
1, 240113, Note_off_c, 0, 57, 58
1, 240127, Note_off_c, 0, 60, 56
1, 240129, Note_off_c, 0, 64, 59
1, 240142, Note_on_c, 0, 84, 79
1, 240153, Note_off_c, 0, 86, 61
1, 240229, Note_off_c, 0, 84, 64
1, 240230, Note_on_c, 0, 83, 76
1, 240235, Note_on_c, 0, 57, 50
1, 240238, Note_on_c, 0, 60, 45
1, 240242, Note_on_c, 0, 66, 41
1, 240247, Note_on_c, 0, 64, 56
1, 240268, Note_off_c, 0, 66, 56
1, 240275, Note_off_c, 0, 57, 60
1, 240285, Note_off_c, 0, 60, 57
1, 240290, Note_off_c, 0, 64, 58
1, 240290, Note_off_c, 0, 83, 55
1, 240304, Note_on_c, 0, 81, 75
1, 240375, Note_off_c, 0, 81, 55
1, 240385, Control_c, 0, 67, 25
1, 240400, Control_c, 0, 67, 26
1, 240409, Note_on_c, 0, 80, 83
1, 240415, Note_on_c, 0, 57, 51
1, 240415, Control_c, 0, 67, 26
1, 240422, Note_on_c, 0, 64, 54
1, 240428, Note_on_c, 0, 66, 44
1, 240429, Note_on_c, 0, 60, 42
1, 240430, Control_c, 0, 64, 95
1, 240445, Control_c, 0, 64, 73
1, 240445, Control_c, 0, 67, 27
1, 240452, Note_off_c, 0, 66, 59
1, 240458, Note_off_c, 0, 57, 51
1, 240460, Control_c, 0, 64, 0
1, 240481, Note_off_c, 0, 60, 57
1, 240497, Note_off_c, 0, 64, 54
1, 240513, Control_c, 0, 64, 48
1, 240527, Control_c, 0, 64, 72
1, 240542, Control_c, 0, 64, 84
1, 240557, Control_c, 0, 64, 102
1, 240571, Control_c, 0, 64, 123
1, 240586, Control_c, 0, 64, 127
1, 240591, Note_on_c, 0, 66, 50
1, 240595, Note_on_c, 0, 64, 49
1, 240602, Note_on_c, 0, 57, 46
1, 240612, Note_off_c, 0, 66, 62
1, 240627, Note_off_c, 0, 57, 58
1, 240628, Note_on_c, 0, 60, 26
1, 240630, Note_off_c, 0, 64, 63
1, 240635, Note_off_c, 0, 80, 64
1, 240660, Control_c, 0, 67, 26
1, 240663, Note_off_c, 0, 60, 41
1, 240690, Control_c, 0, 67, 26
1, 240727, Note_on_c, 0, 57, 47
1, 240734, Note_on_c, 0, 81, 86
1, 240734, Control_c, 0, 67, 25
1, 240745, Note_on_c, 0, 66, 43
1, 240758, Note_on_c, 0, 64, 42
1, 240768, Note_off_c, 0, 66, 59
1, 240777, Note_off_c, 0, 57, 55
1, 240782, Note_on_c, 0, 60, 30
1, 240797, Note_off_c, 0, 64, 47
1, 240823, Note_off_c, 0, 60, 44
1, 240839, Control_c, 0, 67, 25
1, 240897, Control_c, 0, 67, 25
1, 240907, Note_off_c, 0, 81, 59
1, 240912, Control_c, 0, 67, 26
1, 240917, Note_on_c, 0, 84, 83
1, 240927, Control_c, 0, 67, 27
1, 240937, Note_on_c, 0, 57, 49
1, 240937, Note_on_c, 0, 66, 47
1, 240940, Note_on_c, 0, 60, 48
1, 240942, Control_c, 0, 64, 98
1, 240950, Note_on_c, 0, 64, 46
1, 240957, Control_c, 0, 64, 73
1, 240957, Control_c, 0, 67, 27
1, 240960, Note_off_c, 0, 66, 59
1, 240971, Control_c, 0, 64, 0
1, 240976, Note_off_c, 0, 57, 57
1, 240984, Note_off_c, 0, 64, 53
1, 240988, Note_off_c, 0, 60, 58
1, 241016, Control_c, 0, 64, 64
1, 241031, Control_c, 0, 64, 75
1, 241045, Control_c, 0, 64, 86
1, 241060, Control_c, 0, 64, 100
1, 241075, Control_c, 0, 64, 107
1, 241075, Control_c, 0, 67, 27
1, 241090, Control_c, 0, 64, 112
1, 241090, Control_c, 0, 67, 26
1, 241104, Note_on_c, 0, 81, 75
1, 241104, Note_off_c, 0, 84, 63
1, 241104, Control_c, 0, 64, 115
1, 241119, Control_c, 0, 64, 120
1, 241119, Control_c, 0, 67, 26
1, 241120, Note_on_c, 0, 64, 51
1, 241121, Note_on_c, 0, 57, 46
1, 241122, Note_on_c, 0, 66, 52
1, 241130, Note_on_c, 0, 60, 52
1, 241134, Control_c, 0, 64, 127
1, 241143, Note_off_c, 0, 66, 62
1, 241160, Note_off_c, 0, 57, 60
1, 241165, Note_off_c, 0, 64, 59
1, 241168, Note_off_c, 0, 60, 61
1, 241179, Note_off_c, 0, 81, 58
1, 241208, Note_on_c, 0, 79, 56
1, 241223, Note_on_c, 0, 78, 15
1, 241249, Note_off_c, 0, 79, 49
1, 241270, Note_off_c, 0, 78, 41
1, 241277, Note_on_c, 0, 57, 50
1, 241282, Note_on_c, 0, 76, 70
1, 241283, Note_on_c, 0, 66, 38
1, 241286, Note_on_c, 0, 64, 53
1, 241289, Note_on_c, 0, 60, 48
1, 241310, Note_off_c, 0, 66, 56
1, 241312, Note_off_c, 0, 57, 61
1, 241322, Note_off_c, 0, 76, 58
1, 241325, Note_off_c, 0, 60, 63
1, 241331, Note_off_c, 0, 64, 58
1, 241348, Note_on_c, 0, 72, 73
1, 241401, Note_off_c, 0, 72, 65
1, 241408, Control_c, 0, 67, 27
1, 241423, Control_c, 0, 67, 27
1, 241438, Control_c, 0, 64, 99
1, 241438, Control_c, 0, 67, 28
1, 241453, Control_c, 0, 64, 79
1, 241458, Note_on_c, 0, 71, 76
1, 241465, Note_on_c, 0, 57, 50
1, 241465, Note_on_c, 0, 66, 53
1, 241468, Control_c, 0, 64, 50
1, 241468, Control_c, 0, 67, 29
1, 241471, Note_on_c, 0, 64, 49
1, 241476, Note_on_c, 0, 60, 41
1, 241482, Control_c, 0, 64, 0
1, 241497, Note_off_c, 0, 66, 50
1, 241509, Note_off_c, 0, 57, 58
1, 241520, Note_off_c, 0, 64, 54
1, 241525, Note_off_c, 0, 60, 57
1, 241527, Control_c, 0, 64, 64
1, 241542, Control_c, 0, 64, 74
1, 241557, Control_c, 0, 64, 85
1, 241572, Control_c, 0, 64, 97
1, 241587, Control_c, 0, 64, 106
1, 241587, Control_c, 0, 67, 28
1, 241601, Control_c, 0, 64, 112
1, 241616, Control_c, 0, 64, 115
1, 241631, Control_c, 0, 64, 121
1, 241646, Note_on_c, 0, 57, 47
1, 241646, Control_c, 0, 64, 127
1, 241649, Note_on_c, 0, 66, 44
1, 241654, Note_on_c, 0, 64, 53
1, 241655, Note_on_c, 0, 60, 46
1, 241675, Note_off_c, 0, 66, 55
1, 241690, Note_off_c, 0, 64, 58
1, 241693, Note_off_c, 0, 57, 47
1, 241697, Note_off_c, 0, 60, 59
1, 241734, Control_c, 0, 67, 28
1, 241740, Note_off_c, 0, 71, 53
1, 241749, Control_c, 0, 67, 27
1, 241778, Note_on_c, 0, 57, 52
1, 241781, Note_on_c, 0, 66, 49
1, 241781, Note_on_c, 0, 69, 70
1, 241788, Note_on_c, 0, 64, 52
1, 241801, Note_off_c, 0, 66, 64
1, 241804, Note_off_c, 0, 69, 71
1, 241813, Note_off_c, 0, 64, 59
1, 241814, Note_off_c, 0, 57, 60
1, 241912, Control_c, 0, 67, 28
1, 241927, Control_c, 0, 64, 119
1, 241927, Control_c, 0, 67, 28
1, 241941, Control_c, 0, 64, 94
1, 241941, Control_c, 0, 67, 29
1, 241956, Control_c, 0, 64, 73
1, 241979, Control_c, 0, 64, 0
1, 241982, Note_on_c, 0, 84, 53
1, 241983, Note_on_c, 0, 69, 61
1, 241988, Note_on_c, 0, 59, 53
1, 241991, Note_on_c, 0, 83, 49
1, 241996, Note_on_c, 0, 63, 45
1, 241997, Note_on_c, 0, 66, 50
1, 242019, Note_off_c, 0, 69, 58
1, 242023, Control_c, 0, 64, 63
1, 242025, Note_off_c, 0, 83, 51
1, 242029, Note_off_c, 0, 59, 57
1, 242035, Note_off_c, 0, 66, 57
1, 242038, Note_off_c, 0, 63, 56
1, 242038, Control_c, 0, 64, 74
1, 242038, Control_c, 0, 67, 29
1, 242041, Note_on_c, 0, 81, 71
1, 242043, Note_off_c, 0, 84, 44
1, 242054, Control_c, 0, 64, 86
1, 242069, Control_c, 0, 64, 100
1, 242084, Control_c, 0, 64, 111
1, 242098, Control_c, 0, 64, 119
1, 242113, Control_c, 0, 64, 127
1, 242137, Note_off_c, 0, 81, 53
1, 242138, Note_on_c, 0, 66, 63
1, 242139, Note_on_c, 0, 78, 62
1, 242140, Note_on_c, 0, 69, 62
1, 242140, Note_on_c, 0, 59, 53
1, 242153, Note_on_c, 0, 63, 57
1, 242162, Note_off_c, 0, 78, 54
1, 242174, Note_off_c, 0, 69, 63
1, 242181, Note_off_c, 0, 59, 54
1, 242182, Note_on_c, 0, 77, 46
1, 242187, Note_off_c, 0, 66, 54
1, 242187, Note_off_c, 0, 63, 63
1, 242202, Control_c, 0, 67, 28
1, 242205, Note_off_c, 0, 77, 50
1, 242233, Note_on_c, 0, 75, 41
1, 242246, Control_c, 0, 67, 28
1, 242263, Note_off_c, 0, 75, 53
1, 242276, Control_c, 0, 67, 27
1, 242285, Note_on_c, 0, 72, 70
1, 242308, Note_on_c, 0, 69, 62
1, 242312, Note_on_c, 0, 66, 58
1, 242320, Control_c, 0, 67, 27
1, 242323, Note_on_c, 0, 59, 42
1, 242339, Note_on_c, 0, 63, 31
1, 242341, Note_off_c, 0, 69, 65
1, 242347, Note_off_c, 0, 59, 56
1, 242352, Note_off_c, 0, 66, 60
1, 242353, Note_off_c, 0, 72, 61
1, 242368, Note_off_c, 0, 63, 52
1, 242374, Note_on_c, 0, 71, 69
1, 242395, Control_c, 0, 67, 28
1, 242409, Control_c, 0, 67, 29
1, 242424, Control_c, 0, 67, 30
1, 242429, Note_off_c, 0, 71, 59
1, 242439, Control_c, 0, 64, 101
1, 242439, Control_c, 0, 67, 31
1, 242454, Note_on_c, 0, 70, 76
1, 242454, Control_c, 0, 64, 78
1, 242454, Control_c, 0, 67, 31
1, 242469, Control_c, 0, 64, 0
1, 242478, Note_on_c, 0, 59, 46
1, 242478, Note_on_c, 0, 69, 60
1, 242480, Note_on_c, 0, 63, 47
1, 242483, Note_on_c, 0, 66, 60
1, 242493, Note_off_c, 0, 70, 65
1, 242515, Note_off_c, 0, 69, 61
1, 242520, Note_off_c, 0, 63, 63
1, 242523, Note_off_c, 0, 66, 63
1, 242528, Note_off_c, 0, 59, 54
1, 242528, Control_c, 0, 64, 69
1, 242530, Note_on_c, 0, 71, 63
1, 242542, Control_c, 0, 64, 83
1, 242542, Control_c, 0, 67, 31
1, 242557, Control_c, 0, 64, 101
1, 242572, Control_c, 0, 64, 119
1, 242572, Control_c, 0, 67, 30
1, 242587, Note_off_c, 0, 71, 53
1, 242587, Control_c, 0, 64, 127
1, 242587, Control_c, 0, 67, 30
1, 242602, Control_c, 0, 67, 29
1, 242609, Note_on_c, 0, 75, 77
1, 242616, Control_c, 0, 67, 29
1, 242633, Note_on_c, 0, 69, 58
1, 242636, Note_on_c, 0, 66, 54
1, 242640, Note_on_c, 0, 59, 53
1, 242642, Note_on_c, 0, 63, 48
1, 242657, Note_off_c, 0, 69, 63
1, 242661, Note_off_c, 0, 75, 63
1, 242661, Control_c, 0, 67, 28
1, 242668, Note_off_c, 0, 63, 60
1, 242673, Note_off_c, 0, 59, 55
1, 242673, Note_off_c, 0, 66, 64
1, 242684, Note_on_c, 0, 71, 68
1, 242752, Note_off_c, 0, 71, 59
1, 242780, Note_on_c, 0, 78, 69
1, 242790, Note_on_c, 0, 69, 60
1, 242791, Note_on_c, 0, 66, 60
1, 242792, Note_on_c, 0, 59, 51
1, 242794, Note_on_c, 0, 63, 50
1, 242813, Note_off_c, 0, 78, 59
1, 242824, Note_off_c, 0, 69, 66
1, 242828, Note_off_c, 0, 59, 59
1, 242830, Note_off_c, 0, 63, 63
1, 242830, Note_off_c, 0, 66, 61
1, 242842, Note_on_c, 0, 71, 66
1, 242890, Note_off_c, 0, 71, 61
1, 242930, Note_on_c, 0, 83, 68
1, 242949, Note_on_c, 0, 69, 70
1, 242955, Note_off_c, 0, 83, 67
1, 242958, Note_on_c, 0, 66, 63
1, 242959, Note_on_c, 0, 59, 54
1, 242965, Note_on_c, 0, 63, 52
1, 242974, Note_off_c, 0, 69, 69
1, 242987, Note_off_c, 0, 66, 65
1, 242991, Note_on_c, 0, 71, 76
1, 242994, Note_off_c, 0, 63, 63
1, 242997, Note_off_c, 0, 59, 60
1, 243013, Note_off_c, 0, 71, 68
1, 243074, Note_on_c, 0, 87, 89
1, 243085, Control_c, 0, 67, 29
1, 243096, Note_on_c, 0, 69, 70
1, 243097, Note_on_c, 0, 59, 62
1, 243097, Note_on_c, 0, 66, 67
1, 243100, Note_off_c, 0, 87, 65
1, 243100, Control_c, 0, 67, 29
1, 243101, Note_on_c, 0, 63, 60
1, 243118, Note_on_c, 0, 85, 42
1, 243127, Note_off_c, 0, 69, 66
1, 243138, Note_off_c, 0, 66, 57
1, 243146, Note_off_c, 0, 85, 48
1, 243147, Note_off_c, 0, 63, 59
1, 243150, Note_off_c, 0, 59, 56
1, 243152, Note_on_c, 0, 71, 75
1, 243159, Control_c, 0, 67, 29
1, 243173, Control_c, 0, 67, 28
1, 243179, Note_off_c, 0, 71, 67
1, 243188, Control_c, 0, 67, 28
1, 243233, Control_c, 0, 67, 28
1, 243241, Note_on_c, 0, 90, 81
1, 243247, Control_c, 0, 67, 29
1, 243253, Note_on_c, 0, 66, 66
1, 243256, Note_on_c, 0, 69, 73
1, 243257, Note_off_c, 0, 90, 67
1, 243262, Control_c, 0, 67, 29
1, 243264, Note_on_c, 0, 59, 61
1, 243267, Note_on_c, 0, 63, 56
1, 243276, Note_on_c, 0, 87, 55
1, 243283, Note_off_c, 0, 69, 62
1, 243296, Note_off_c, 0, 87, 53
1, 243298, Note_off_c, 0, 63, 65
1, 243301, Note_off_c, 0, 66, 53
1, 243307, Note_off_c, 0, 59, 57
1, 243307, Control_c, 0, 67, 29
1, 243322, Control_c, 0, 67, 28
1, 243325, Note_on_c, 0, 71, 78
1, 243337, Control_c, 0, 67, 28
1, 243345, Note_off_c, 0, 71, 67
1, 243351, Control_c, 0, 67, 27
1, 243490, Note_on_c, 0, 93, 99
1, 243495, Note_on_c, 0, 59, 55
1, 243496, Note_on_c, 0, 69, 61
1, 243499, Note_on_c, 0, 66, 60
1, 243512, Note_on_c, 0, 63, 43
1, 243515, Note_off_c, 0, 69, 67
1, 243533, Note_off_c, 0, 66, 64
1, 243539, Note_off_c, 0, 63, 57
1, 243540, Note_off_c, 0, 59, 56
1, 243555, Note_off_c, 0, 93, 61
1, 243596, Control_c, 0, 67, 27
1, 243655, Control_c, 0, 67, 27
1, 243669, Control_c, 0, 67, 28
1, 243673, Note_on_c, 0, 63, 48
1, 243676, Note_on_c, 0, 59, 43
1, 243680, Note_on_c, 0, 69, 44
1, 243685, Note_on_c, 0, 66, 50
1, 243701, Note_off_c, 0, 59, 55
1, 243709, Note_off_c, 0, 66, 59
1, 243711, Note_off_c, 0, 63, 64
1, 243711, Note_off_c, 0, 69, 48
1, 243743, Control_c, 0, 67, 27
1, 243817, Note_on_c, 0, 66, 58
1, 243818, Note_on_c, 0, 69, 71
1, 243824, Note_on_c, 0, 71, 57
1, 243826, Note_on_c, 0, 59, 43
1, 243834, Note_on_c, 0, 63, 50
1, 243842, Note_off_c, 0, 69, 69
1, 243845, Note_off_c, 0, 71, 59
1, 243858, Note_off_c, 0, 66, 64
1, 243861, Note_off_c, 0, 63, 62
1, 243864, Note_off_c, 0, 59, 54
1, 243906, Control_c, 0, 67, 28
1, 243921, Control_c, 0, 67, 29
1, 243936, Control_c, 0, 67, 29
1, 243951, Control_c, 0, 64, 119
1, 243966, Control_c, 0, 64, 91
1, 243966, Control_c, 0, 67, 30
1, 243980, Control_c, 0, 64, 69
1, 243984, Note_on_c, 0, 83, 82
1, 243995, Control_c, 0, 64, 0
1, 243999, Note_on_c, 0, 59, 49
1, 244004, Note_on_c, 0, 69, 60
1, 244011, Note_on_c, 0, 66, 51
1, 244025, Note_on_c, 0, 63, 23
1, 244031, Note_off_c, 0, 69, 62
1, 244039, Note_off_c, 0, 66, 57
1, 244040, Control_c, 0, 64, 65
1, 244044, Note_off_c, 0, 59, 54
1, 244049, Note_off_c, 0, 83, 60
1, 244055, Control_c, 0, 64, 76
1, 244055, Control_c, 0, 67, 30
1, 244055, Note_on_c, 0, 81, 75
1, 244057, Note_off_c, 0, 63, 49
1, 244069, Control_c, 0, 64, 87
1, 244069, Control_c, 0, 67, 29
1, 244084, Control_c, 0, 64, 100
1, 244099, Control_c, 0, 64, 110
1, 244099, Control_c, 0, 67, 29
1, 244113, Control_c, 0, 64, 118
1, 244128, Control_c, 0, 64, 125
1, 244143, Control_c, 0, 64, 127
1, 244146, Note_off_c, 0, 81, 59
1, 244148, Note_on_c, 0, 78, 77
1, 244156, Note_on_c, 0, 66, 51
1, 244158, Note_on_c, 0, 59, 49
1, 244159, Note_on_c, 0, 69, 44
1, 244164, Note_on_c, 0, 63, 46
1, 244180, Note_off_c, 0, 69, 63
1, 244192, Note_off_c, 0, 63, 59
1, 244192, Note_off_c, 0, 66, 64
1, 244199, Note_off_c, 0, 59, 57
1, 244225, Control_c, 0, 67, 28
1, 244225, Note_on_c, 0, 75, 77
1, 244225, Note_off_c, 0, 78, 63
1, 244269, Control_c, 0, 67, 28
1, 244274, Note_off_c, 0, 75, 66
1, 244313, Note_on_c, 0, 72, 64
1, 244317, Note_on_c, 0, 59, 52
1, 244319, Note_on_c, 0, 69, 49
1, 244328, Note_on_c, 0, 66, 54
1, 244333, Note_on_c, 0, 63, 39
1, 244343, Control_c, 0, 67, 27
1, 244350, Note_off_c, 0, 69, 66
1, 244358, Control_c, 0, 67, 27
1, 244359, Note_off_c, 0, 63, 59
1, 244359, Note_off_c, 0, 66, 64
1, 244360, Note_off_c, 0, 72, 49
1, 244368, Note_off_c, 0, 59, 55
1, 244373, Control_c, 0, 67, 26
1, 244382, Note_on_c, 0, 71, 75
1, 244387, Control_c, 0, 67, 25
1, 244402, Control_c, 0, 67, 24
1, 244417, Control_c, 0, 67, 23
1, 244432, Control_c, 0, 67, 22
1, 244448, Control_c, 0, 67, 22
1, 244463, Control_c, 0, 67, 21
1, 244464, Note_off_c, 0, 71, 57
1, 244471, Note_on_c, 0, 70, 75
1, 244478, Control_c, 0, 64, 125
1, 244478, Control_c, 0, 67, 19
1, 244490, Note_on_c, 0, 59, 53
1, 244493, Control_c, 0, 64, 88
1, 244493, Control_c, 0, 67, 15
1, 244493, Note_on_c, 0, 69, 62
1, 244494, Note_on_c, 0, 66, 60
1, 244508, Control_c, 0, 64, 62
1, 244508, Control_c, 0, 67, 11
1, 244508, Note_on_c, 0, 63, 40
1, 244517, Note_off_c, 0, 70, 62
1, 244523, Control_c, 0, 64, 0
1, 244523, Control_c, 0, 67, 0
1, 244523, Note_off_c, 0, 69, 65
1, 244532, Note_off_c, 0, 66, 64
1, 244535, Note_off_c, 0, 63, 58
1, 244538, Note_off_c, 0, 59, 57
1, 244543, Note_on_c, 0, 71, 63
1, 244567, Control_c, 0, 64, 53
1, 244582, Control_c, 0, 64, 75
1, 244597, Control_c, 0, 64, 94
1, 244603, Note_off_c, 0, 71, 56
1, 244612, Control_c, 0, 64, 127
1, 244626, Control_c, 0, 64, 127
1, 244630, Note_on_c, 0, 75, 75
1, 244642, Note_on_c, 0, 59, 52
1, 244646, Note_on_c, 0, 66, 59
1, 244647, Note_on_c, 0, 63, 48
1, 244649, Note_on_c, 0, 69, 56
1, 244674, Note_off_c, 0, 69, 62
1, 244683, Note_off_c, 0, 59, 55
1, 244684, Note_off_c, 0, 75, 63
1, 244687, Note_off_c, 0, 66, 62
1, 244687, Note_off_c, 0, 63, 62
1, 244698, Note_on_c, 0, 71, 62
1, 244756, Note_off_c, 0, 71, 58
1, 244790, Note_on_c, 0, 78, 72
1, 244798, Note_on_c, 0, 66, 65
1, 244798, Note_on_c, 0, 69, 57
1, 244806, Note_on_c, 0, 63, 52
1, 244812, Note_on_c, 0, 59, 47
1, 244827, Note_off_c, 0, 69, 66
1, 244833, Note_off_c, 0, 78, 50
1, 244839, Note_off_c, 0, 63, 64
1, 244840, Note_off_c, 0, 66, 61
1, 244841, Note_off_c, 0, 59, 52
1, 244854, Note_on_c, 0, 71, 60
1, 244905, Note_off_c, 0, 71, 59
1, 244952, Note_on_c, 0, 83, 54
1, 244967, Note_on_c, 0, 69, 60
1, 244967, Note_on_c, 0, 59, 49
1, 244968, Note_on_c, 0, 66, 63
1, 244980, Note_off_c, 0, 83, 57
1, 244985, Note_on_c, 0, 63, 43
1, 244999, Note_off_c, 0, 69, 67
1, 245000, Note_off_c, 0, 66, 62
1, 245009, Note_off_c, 0, 59, 57
1, 245012, Note_off_c, 0, 63, 58
1, 245016, Note_on_c, 0, 71, 76
1, 245041, Note_off_c, 0, 71, 64
1, 245106, Note_on_c, 0, 87, 84
1, 245122, Note_on_c, 0, 66, 66
1, 245125, Note_on_c, 0, 69, 66
1, 245125, Note_off_c, 0, 87, 72
1, 245125, Note_on_c, 0, 59, 57
1, 245128, Note_on_c, 0, 63, 52
1, 245132, Note_on_c, 0, 85, 61
1, 245149, Note_off_c, 0, 85, 66
1, 245152, Note_off_c, 0, 69, 64
1, 245162, Note_off_c, 0, 59, 53
1, 245162, Note_off_c, 0, 66, 59
1, 245164, Note_off_c, 0, 63, 63
1, 245183, Note_on_c, 0, 71, 74
1, 245210, Note_off_c, 0, 71, 65
1, 245274, Note_on_c, 0, 90, 85
1, 245286, Note_on_c, 0, 66, 63
1, 245286, Note_on_c, 0, 69, 61
1, 245293, Note_on_c, 0, 59, 60
1, 245295, Note_off_c, 0, 90, 71
1, 245300, Note_on_c, 0, 63, 47
1, 245319, Note_off_c, 0, 66, 59
1, 245320, Note_off_c, 0, 69, 67
1, 245324, Note_on_c, 0, 87, 39
1, 245334, Note_off_c, 0, 63, 63
1, 245336, Note_off_c, 0, 59, 54
1, 245353, Note_off_c, 0, 87, 34
1, 245361, Note_on_c, 0, 71, 75
1, 245385, Note_off_c, 0, 71, 64
1, 245498, Note_on_c, 0, 93, 97
1, 245508, Note_on_c, 0, 66, 57
1, 245509, Note_on_c, 0, 59, 48
1, 245511, Note_on_c, 0, 69, 51
1, 245513, Note_on_c, 0, 63, 47
1, 245532, Note_off_c, 0, 69, 61
1, 245538, Note_off_c, 0, 63, 61
1, 245543, Note_off_c, 0, 66, 64
1, 245548, Note_off_c, 0, 59, 53
1, 245551, Note_off_c, 0, 93, 62
1, 245670, Note_on_c, 0, 59, 55
1, 245674, Note_on_c, 0, 69, 51
1, 245686, Note_on_c, 0, 66, 53
1, 245686, Note_on_c, 0, 63, 43
1, 245697, Note_off_c, 0, 69, 62
1, 245721, Note_off_c, 0, 63, 57
1, 245724, Note_off_c, 0, 66, 58
1, 245732, Note_off_c, 0, 59, 50
1, 245827, Control_c, 0, 64, 115
1, 245835, Note_on_c, 0, 66, 59
1, 245837, Note_on_c, 0, 71, 78
1, 245841, Note_on_c, 0, 69, 50
1, 245841, Control_c, 0, 64, 97
1, 245844, Note_on_c, 0, 59, 56
1, 245856, Control_c, 0, 64, 85
1, 245865, Note_off_c, 0, 69, 62
1, 245866, Note_off_c, 0, 71, 61
1, 245867, Note_off_c, 0, 59, 59
1, 245870, Note_off_c, 0, 66, 62
1, 245871, Control_c, 0, 64, 74
1, 245886, Control_c, 0, 64, 65
1, 245900, Control_c, 0, 64, 54
1, 245915, Control_c, 0, 64, 50
1, 245930, Control_c, 0, 64, 54
1, 245945, Control_c, 0, 64, 54
1, 245960, Control_c, 0, 64, 54
1, 246004, Control_c, 0, 64, 54
1, 246014, Note_on_c, 0, 64, 61
1, 246016, Note_on_c, 0, 83, 76
1, 246028, Note_on_c, 0, 79, 65
1, 246035, Control_c, 0, 64, 55
1, 246050, Control_c, 0, 64, 55
1, 246052, Note_off_c, 0, 64, 62
1, 246056, Note_off_c, 0, 79, 66
1, 246074, Note_off_c, 0, 83, 60
1, 246082, Note_on_c, 0, 84, 63
1, 246088, Note_on_c, 0, 63, 56
1, 246110, Note_on_c, 0, 81, 56
1, 246154, Note_off_c, 0, 84, 48
1, 246166, Note_on_c, 0, 64, 62
1, 246169, Note_off_c, 0, 81, 63
1, 246172, Note_on_c, 0, 79, 62
1, 246181, Note_on_c, 0, 83, 45
1, 246192, Note_off_c, 0, 63, 57
1, 246192, Note_off_c, 0, 79, 64
1, 246207, Note_off_c, 0, 83, 37
1, 246213, Control_c, 0, 64, 55
1, 246246, Note_off_c, 0, 64, 61
1, 246247, Note_on_c, 0, 66, 64
1, 246262, Note_on_c, 0, 78, 76
1, 246268, Note_on_c, 0, 81, 62
1, 246300, Note_off_c, 0, 81, 58
1, 246324, Note_off_c, 0, 66, 53
1, 246326, Note_off_c, 0, 78, 57
1, 246332, Note_on_c, 0, 79, 66
1, 246335, Note_on_c, 0, 67, 67
1, 246340, Note_on_c, 0, 76, 55
1, 246358, Note_off_c, 0, 79, 66
1, 246359, Note_off_c, 0, 76, 66
1, 246361, Control_c, 0, 64, 54
1, 246362, Note_off_c, 0, 67, 66
1, 246376, Control_c, 0, 64, 54
1, 246390, Control_c, 0, 64, 53
1, 246450, Control_c, 0, 64, 54
1, 246472, Control_c, 0, 64, 54
1, 246502, Control_c, 0, 64, 55
1, 246505, Note_on_c, 0, 79, 74
1, 246508, Note_on_c, 0, 67, 66
1, 246512, Note_on_c, 0, 76, 64
1, 246533, Note_off_c, 0, 79, 60
1, 246545, Note_off_c, 0, 76, 59
1, 246546, Control_c, 0, 64, 54
1, 246559, Note_off_c, 0, 67, 59
1, 246561, Control_c, 0, 64, 54
1, 246569, Note_on_c, 0, 81, 60
1, 246576, Control_c, 0, 64, 53
1, 246580, Note_on_c, 0, 66, 63
1, 246589, Note_on_c, 0, 78, 73
1, 246606, Note_off_c, 0, 81, 57
1, 246620, Control_c, 0, 64, 54
1, 246649, Note_on_c, 0, 67, 67
1, 246652, Note_off_c, 0, 78, 62
1, 246653, Note_on_c, 0, 79, 57
1, 246657, Note_off_c, 0, 66, 62
1, 246666, Note_on_c, 0, 76, 59
1, 246672, Note_off_c, 0, 79, 63
1, 246684, Note_off_c, 0, 76, 67
1, 246710, Control_c, 0, 64, 53
1, 246724, Control_c, 0, 64, 53
1, 246726, Note_off_c, 0, 67, 56
1, 246739, Control_c, 0, 64, 52
1, 246743, Note_on_c, 0, 69, 67
1, 246751, Note_on_c, 0, 78, 68
1, 246772, Note_off_c, 0, 78, 64
1, 246775, Note_on_c, 0, 75, 40
1, 246776, Note_off_c, 0, 75, 127
1, 246778, Note_off_c, 0, 69, 63
1, 246798, Control_c, 0, 64, 52
1, 246825, Note_on_c, 0, 76, 71
1, 246836, Note_on_c, 0, 67, 73
1, 246859, Control_c, 0, 64, 51
1, 246861, Note_off_c, 0, 67, 65
1, 246866, Note_off_c, 0, 76, 67
1, 246874, Control_c, 0, 64, 50
1, 246888, Control_c, 0, 64, 49
1, 246962, Control_c, 0, 64, 50
1, 246977, Control_c, 0, 64, 50
1, 247018, Note_on_c, 0, 76, 82
1, 247022, Note_on_c, 0, 72, 76
1, 247029, Note_on_c, 0, 69, 62
1, 247051, Control_c, 0, 64, 49
1, 247054, Note_off_c, 0, 72, 60
1, 247066, Control_c, 0, 64, 49
1, 247069, Note_off_c, 0, 69, 59
1, 247074, Note_on_c, 0, 77, 65
1, 247077, Note_off_c, 0, 76, 62
1, 247081, Control_c, 0, 64, 48
1, 247092, Note_on_c, 0, 68, 70
1, 247095, Control_c, 0, 64, 48
1, 247097, Note_on_c, 0, 74, 60
1, 247110, Control_c, 0, 64, 47
1, 247131, Note_off_c, 0, 68, 62
1, 247142, Note_off_c, 0, 77, 48
1, 247158, Note_off_c, 0, 74, 63
1, 247162, Note_on_c, 0, 72, 69
1, 247169, Note_on_c, 0, 76, 68
1, 247180, Note_on_c, 0, 69, 66
1, 247185, Control_c, 0, 64, 48
1, 247195, Note_off_c, 0, 72, 59
1, 247200, Control_c, 0, 64, 47
1, 247227, Note_off_c, 0, 76, 53
1, 247229, Note_off_c, 0, 69, 54
1, 247236, Control_c, 0, 64, 47
1, 247250, Note_on_c, 0, 77, 56
1, 247251, Control_c, 0, 64, 46
1, 247253, Note_on_c, 0, 68, 68
1, 247258, Note_on_c, 0, 74, 55
1, 247295, Control_c, 0, 64, 47
1, 247300, Note_off_c, 0, 68, 59
1, 247312, Note_off_c, 0, 74, 57
1, 247321, Note_off_c, 0, 77, 53
1, 247322, Note_on_c, 0, 72, 66
1, 247334, Note_on_c, 0, 76, 67
1, 247335, Note_on_c, 0, 69, 69
1, 247354, Note_off_c, 0, 72, 60
1, 247379, Note_off_c, 0, 69, 64
1, 247387, Note_off_c, 0, 76, 55
1, 247399, Control_c, 0, 64, 46
1, 247404, Note_on_c, 0, 68, 70
1, 247414, Note_on_c, 0, 77, 56
1, 247421, Note_on_c, 0, 74, 50
1, 247428, Control_c, 0, 64, 46
1, 247443, Control_c, 0, 64, 44
1, 247446, Note_off_c, 0, 74, 60
1, 247458, Control_c, 0, 64, 37
1, 247459, Note_off_c, 0, 77, 52
1, 247469, Note_off_c, 0, 68, 60
1, 247472, Control_c, 0, 64, 0
1, 247503, Note_on_c, 0, 76, 73
1, 247505, Note_on_c, 0, 69, 70
1, 247507, Note_on_c, 0, 72, 69
1, 247575, Note_off_c, 0, 69, 65
1, 247591, Control_c, 0, 64, 65
1, 247606, Control_c, 0, 64, 73
1, 247620, Control_c, 0, 64, 79
1, 247636, Control_c, 0, 64, 83
1, 247651, Control_c, 0, 64, 84
1, 247666, Control_c, 0, 64, 85
1, 247681, Control_c, 0, 64, 86
1, 247696, Control_c, 0, 64, 87
1, 247834, Note_on_c, 0, 64, 74
1, 247894, Note_off_c, 0, 64, 64
1, 247897, Note_on_c, 0, 62, 78
1, 247935, Note_off_c, 0, 76, 36
1, 247965, Note_off_c, 0, 72, 24
1, 247981, Note_on_c, 0, 60, 72
1, 248007, Note_off_c, 0, 62, 60
1, 248043, Control_c, 0, 64, 87
1, 248057, Note_on_c, 0, 59, 71
1, 248058, Control_c, 0, 64, 83
1, 248071, Note_off_c, 0, 60, 62
1, 248073, Control_c, 0, 64, 74
1, 248088, Control_c, 0, 64, 62
1, 248103, Control_c, 0, 64, 0
1, 248106, Note_off_c, 0, 59, 62
1, 248148, Control_c, 0, 64, 61
1, 248151, Note_on_c, 0, 60, 75
1, 248156, Note_on_c, 0, 76, 88
1, 248158, Note_on_c, 0, 72, 87
1, 248162, Control_c, 0, 64, 67
1, 248177, Control_c, 0, 64, 69
1, 248192, Control_c, 0, 64, 70
1, 248222, Control_c, 0, 64, 71
1, 248226, Note_on_c, 0, 59, 78
1, 248233, Note_off_c, 0, 60, 59
1, 248236, Control_c, 0, 64, 72
1, 248266, Control_c, 0, 64, 73
1, 248306, Note_on_c, 0, 57, 67
1, 248330, Note_off_c, 0, 59, 60
1, 248370, Note_on_c, 0, 56, 74
1, 248387, Note_off_c, 0, 72, 60
1, 248396, Note_off_c, 0, 57, 62
1, 248416, Note_off_c, 0, 76, 64
1, 248429, Control_c, 0, 64, 73
1, 248432, Note_off_c, 0, 56, 64
1, 248459, Control_c, 0, 64, 72
1, 248474, Control_c, 0, 64, 66
1, 248488, Note_on_c, 0, 57, 70
1, 248489, Control_c, 0, 64, 0
1, 248500, Note_on_c, 0, 76, 97
1, 248502, Note_on_c, 0, 72, 87
1, 248563, Control_c, 0, 64, 62
1, 248566, Note_on_c, 0, 55, 75
1, 248567, Note_off_c, 0, 57, 61
1, 248577, Control_c, 0, 64, 68
1, 248592, Control_c, 0, 64, 70
1, 248650, Note_on_c, 0, 53, 72
1, 248676, Note_off_c, 0, 55, 63
1, 248696, Control_c, 0, 64, 70
1, 248720, Note_off_c, 0, 72, 60
1, 248726, Note_on_c, 0, 52, 75
1, 248743, Note_off_c, 0, 76, 61
1, 248747, Note_off_c, 0, 53, 64
1, 248784, Note_off_c, 0, 52, 65
1, 248829, Note_on_c, 0, 53, 75
1, 248835, Note_on_c, 0, 76, 91
1, 248837, Note_on_c, 0, 72, 86
1, 248881, Control_c, 0, 64, 71
1, 248896, Control_c, 0, 64, 71
1, 248904, Note_on_c, 0, 52, 81
1, 248910, Note_off_c, 0, 53, 65
1, 248970, Control_c, 0, 64, 72
1, 248979, Note_on_c, 0, 50, 71
1, 249014, Note_off_c, 0, 52, 63
1, 249030, Control_c, 0, 64, 70
1, 249045, Control_c, 0, 64, 67
1, 249056, Note_off_c, 0, 72, 61
1, 249058, Note_on_c, 0, 48, 77
1, 249059, Control_c, 0, 64, 60
1, 249074, Control_c, 0, 64, 0
1, 249079, Note_off_c, 0, 76, 59
1, 249084, Note_off_c, 0, 50, 63
1, 249116, Note_off_c, 0, 48, 66
1, 249133, Control_c, 0, 64, 55
1, 249148, Control_c, 0, 64, 66
1, 249162, Note_on_c, 0, 50, 74
1, 249163, Control_c, 0, 64, 70
1, 249170, Note_on_c, 0, 76, 94
1, 249173, Note_on_c, 0, 72, 90
1, 249177, Control_c, 0, 64, 72
1, 249192, Control_c, 0, 64, 72
1, 249239, Note_on_c, 0, 48, 79
1, 249253, Note_off_c, 0, 50, 62
1, 249309, Note_on_c, 0, 47, 65
1, 249319, Note_off_c, 0, 76, 55
1, 249349, Note_off_c, 0, 48, 60
1, 249358, Note_off_c, 0, 72, 61
1, 249377, Note_on_c, 0, 45, 72
1, 249403, Note_off_c, 0, 47, 64
1, 249429, Note_off_c, 0, 45, 63
1, 249468, Control_c, 0, 64, 72
1, 249482, Control_c, 0, 64, 71
1, 249497, Control_c, 0, 64, 68
1, 249512, Control_c, 0, 64, 62
1, 249527, Control_c, 0, 64, 0
1, 249541, Note_on_c, 0, 42, 85
1, 249543, Note_on_c, 0, 72, 94
1, 249543, Note_on_c, 0, 74, 81
1, 249547, Note_on_c, 0, 69, 97
1, 249631, Control_c, 0, 64, 58
1, 249646, Control_c, 0, 64, 73
1, 249660, Control_c, 0, 64, 84
1, 249675, Control_c, 0, 64, 99
1, 249690, Control_c, 0, 64, 108
1, 249705, Control_c, 0, 64, 113
1, 249720, Control_c, 0, 64, 117
1, 249734, Control_c, 0, 64, 121
1, 249745, Note_off_c, 0, 42, 62
1, 249749, Control_c, 0, 64, 127
1, 249868, Note_off_c, 0, 69, 49
1, 250065, Note_off_c, 0, 74, 55
1, 250094, Note_off_c, 0, 72, 60
1, 250101, Note_on_c, 0, 31, 63
1, 250103, Note_on_c, 0, 76, 61
1, 250106, Note_on_c, 0, 43, 61
1, 250112, Note_on_c, 0, 67, 64
1, 250136, Control_c, 0, 64, 116
1, 250144, Note_off_c, 0, 31, 62
1, 250151, Control_c, 0, 64, 97
1, 250156, Note_off_c, 0, 76, 65
1, 250158, Note_off_c, 0, 67, 61
1, 250163, Note_off_c, 0, 43, 57
1, 250165, Control_c, 0, 64, 83
1, 250180, Control_c, 0, 64, 70
1, 250195, Control_c, 0, 64, 58
1, 250217, Control_c, 0, 64, 0
1, 250232, Control_c, 0, 64, 10
1, 250246, Control_c, 0, 64, 20
1, 250291, Control_c, 0, 64, 18
1, 250303, Note_on_c, 0, 47, 65
1, 250306, Note_on_c, 0, 59, 63
1, 250321, Control_c, 0, 64, 20
1, 250336, Control_c, 0, 64, 21
1, 250352, Note_off_c, 0, 59, 57
1, 250377, Note_on_c, 0, 60, 57
1, 250384, Note_off_c, 0, 47, 60
1, 250388, Note_on_c, 0, 48, 62
1, 250395, Control_c, 0, 64, 23
1, 250398, Note_off_c, 0, 60, 59
1, 250410, Control_c, 0, 64, 25
1, 250425, Control_c, 0, 64, 30
1, 250439, Control_c, 0, 64, 34
1, 250449, Note_off_c, 0, 48, 63
1, 250454, Control_c, 0, 64, 37
1, 250467, Note_on_c, 0, 51, 67
1, 250469, Control_c, 0, 64, 38
1, 250470, Note_on_c, 0, 63, 74
1, 250483, Control_c, 0, 64, 39
1, 250498, Control_c, 0, 64, 40
1, 250508, Note_off_c, 0, 63, 57
1, 250513, Control_c, 0, 64, 41
1, 250524, Note_off_c, 0, 51, 58
1, 250543, Note_on_c, 0, 64, 70
1, 250543, Control_c, 0, 64, 41
1, 250547, Note_on_c, 0, 52, 65
1, 250557, Control_c, 0, 64, 42
1, 250568, Note_off_c, 0, 64, 69
1, 250576, Note_off_c, 0, 52, 67
1, 250587, Control_c, 0, 64, 41
1, 250602, Control_c, 0, 64, 41
1, 250617, Control_c, 0, 64, 40
1, 250625, Note_on_c, 0, 54, 78
1, 250644, Note_on_c, 0, 66, 71
1, 250661, Control_c, 0, 64, 41
1, 250676, Control_c, 0, 64, 42
1, 250681, Note_off_c, 0, 66, 61
1, 250687, Note_off_c, 0, 54, 60
1, 250714, Note_on_c, 0, 55, 69
1, 250714, Note_on_c, 0, 67, 65
1, 250735, Control_c, 0, 64, 41
1, 250740, Note_off_c, 0, 67, 64
1, 250744, Note_off_c, 0, 55, 66
1, 250750, Control_c, 0, 64, 39
1, 250765, Control_c, 0, 64, 36
1, 250780, Control_c, 0, 64, 36
1, 250797, Note_on_c, 0, 71, 83
1, 250805, Note_on_c, 0, 59, 73
1, 250834, Note_off_c, 0, 71, 59
1, 250869, Control_c, 0, 64, 36
1, 250871, Note_on_c, 0, 60, 67
1, 250875, Note_on_c, 0, 72, 72
1, 250896, Note_off_c, 0, 72, 67
1, 250899, Control_c, 0, 64, 36
1, 250899, Note_off_c, 0, 59, 60
1, 250914, Control_c, 0, 64, 35
1, 250929, Control_c, 0, 64, 34
1, 250941, Note_off_c, 0, 60, 58
1, 250944, Control_c, 0, 64, 33
1, 250962, Note_on_c, 0, 63, 78
1, 250975, Note_on_c, 0, 75, 75
1, 250998, Note_off_c, 0, 75, 68
1, 251019, Note_off_c, 0, 63, 63
1, 251025, Control_c, 0, 64, 34
1, 251040, Note_on_c, 0, 64, 71
1, 251040, Control_c, 0, 64, 33
1, 251046, Note_on_c, 0, 76, 72
1, 251055, Control_c, 0, 64, 29
1, 251068, Note_off_c, 0, 76, 71
1, 251069, Control_c, 0, 64, 25
1, 251075, Note_off_c, 0, 64, 65
1, 251084, Control_c, 0, 64, 24
1, 251099, Control_c, 0, 64, 23
1, 251120, Note_on_c, 0, 66, 80
1, 251127, Note_on_c, 0, 78, 86
1, 251164, Note_off_c, 0, 78, 62
1, 251173, Control_c, 0, 64, 24
1, 251197, Note_off_c, 0, 66, 64
1, 251209, Note_on_c, 0, 79, 95
1, 251217, Note_on_c, 0, 67, 94
1, 251233, Control_c, 0, 64, 21
1, 251248, Control_c, 0, 64, 0
1, 251355, Note_off_c, 0, 67, 61
1, 251382, Note_off_c, 0, 79, 63
1, 251866, Note_on_c, 0, 71, 61
1, 251870, Note_on_c, 0, 62, 55
1, 251873, Note_on_c, 0, 65, 50
1, 251877, Note_on_c, 0, 55, 47
1, 251879, Note_on_c, 0, 67, 47
1, 251889, Note_on_c, 0, 43, 41
1, 252004, Note_off_c, 0, 55, 64
1, 252011, Note_off_c, 0, 62, 62
1, 252018, Note_off_c, 0, 71, 61
1, 252026, Note_off_c, 0, 65, 65
1, 252029, Note_off_c, 0, 43, 54
1, 252038, Note_off_c, 0, 67, 62
1, 252429, Note_on_c, 0, 72, 81
1, 252433, Note_on_c, 0, 60, 86
1, 252434, Note_on_c, 0, 48, 81
1, 252436, Note_on_c, 0, 36, 75
1, 252436, Note_on_c, 0, 64, 81
1, 252436, Note_on_c, 0, 67, 78
1, 252472, Note_off_c, 0, 36, 64
1, 252473, Note_off_c, 0, 48, 69
1, 252477, Control_c, 0, 64, 65
1, 252484, Note_off_c, 0, 60, 62
1, 252492, Control_c, 0, 64, 83
1, 252506, Note_off_c, 0, 64, 64
1, 252507, Control_c, 0, 64, 114
1, 252516, Note_off_c, 0, 67, 62
1, 252522, Control_c, 0, 64, 127
1, 252534, Note_off_c, 0, 72, 65
1, 252639, Note_on_c, 0, 60, 74
1, 252648, Note_on_c, 0, 52, 54
1, 252649, Note_on_c, 0, 48, 54
1, 252652, Note_on_c, 0, 55, 50
1, 252671, Note_off_c, 0, 60, 63
1, 252676, Note_off_c, 0, 48, 54
1, 252689, Note_off_c, 0, 55, 50
1, 252691, Note_off_c, 0, 52, 64
1, 252802, Note_on_c, 0, 55, 57
1, 252802, Note_on_c, 0, 60, 67
1, 252807, Note_on_c, 0, 78, 71
1, 252811, Note_on_c, 0, 52, 56
1, 252821, Note_on_c, 0, 48, 47
1, 252824, Note_off_c, 0, 60, 67
1, 252847, Note_off_c, 0, 55, 57
1, 252848, Note_off_c, 0, 78, 46
1, 252852, Note_off_c, 0, 48, 59
1, 252852, Note_off_c, 0, 52, 62
1, 252881, Note_on_c, 0, 85, 29
1, 252916, Note_off_c, 0, 85, 45
1, 252951, Note_on_c, 0, 88, 97
1, 252962, Note_on_c, 0, 48, 63
1, 252962, Note_on_c, 0, 79, 84
1, 252968, Note_on_c, 0, 60, 72
1, 252969, Note_on_c, 0, 52, 70
1, 252973, Note_on_c, 0, 55, 60
1, 252995, Note_off_c, 0, 60, 64
1, 252998, Note_off_c, 0, 79, 57
1, 252999, Note_off_c, 0, 88, 63
1, 253010, Note_off_c, 0, 52, 56
1, 253015, Note_off_c, 0, 48, 62
1, 253016, Note_off_c, 0, 55, 62
1, 253145, Note_on_c, 0, 75, 80
1, 253149, Note_on_c, 0, 48, 58
1, 253150, Note_on_c, 0, 52, 56
1, 253151, Note_on_c, 0, 60, 57
1, 253156, Note_on_c, 0, 55, 47
1, 253167, Note_off_c, 0, 60, 65
1, 253188, Note_off_c, 0, 52, 59
1, 253188, Note_off_c, 0, 55, 59
1, 253190, Note_off_c, 0, 48, 62
1, 253192, Note_off_c, 0, 75, 62
1, 253203, Note_on_c, 0, 83, 75
1, 253252, Note_off_c, 0, 83, 61
1, 253305, Note_on_c, 0, 84, 95
1, 253307, Note_on_c, 0, 60, 59
1, 253311, Note_on_c, 0, 76, 83
1, 253314, Note_on_c, 0, 55, 58
1, 253317, Note_on_c, 0, 48, 62
1, 253322, Note_on_c, 0, 52, 62
1, 253340, Note_off_c, 0, 60, 62
1, 253342, Note_off_c, 0, 76, 65
1, 253348, Note_off_c, 0, 84, 64
1, 253355, Note_off_c, 0, 52, 65
1, 253359, Note_off_c, 0, 55, 56
1, 253361, Note_off_c, 0, 48, 62
1, 253479, Note_on_c, 0, 75, 87
1, 253490, Note_on_c, 0, 52, 61
1, 253492, Note_on_c, 0, 60, 66
1, 253494, Note_on_c, 0, 48, 58
1, 253499, Note_on_c, 0, 55, 52
1, 253518, Note_off_c, 0, 75, 61
1, 253522, Note_off_c, 0, 60, 63
1, 253533, Note_off_c, 0, 48, 60
1, 253538, Note_on_c, 0, 78, 61
1, 253540, Note_off_c, 0, 52, 55
1, 253549, Note_off_c, 0, 55, 60
1, 253594, Note_off_c, 0, 78, 0
1, 253615, Poly_aftertouch_c, 0, 78, 0
1, 253617, Note_on_c, 0, 79, 68
1, 253620, Note_on_c, 0, 76, 69
1, 253638, Note_on_c, 0, 60, 66
1, 253645, Note_off_c, 0, 79, 64
1, 253646, Note_on_c, 0, 55, 62
1, 253647, Note_on_c, 0, 48, 52
1, 253650, Note_off_c, 0, 76, 65
1, 253653, Note_on_c, 0, 52, 56
1, 253662, Note_off_c, 0, 60, 68
1, 253674, Note_off_c, 0, 48, 56
1, 253680, Note_off_c, 0, 55, 63
1, 253686, Note_off_c, 0, 52, 68
1, 253805, Note_on_c, 0, 66, 83
1, 253814, Note_on_c, 0, 52, 50
1, 253820, Note_on_c, 0, 55, 56
1, 253820, Note_on_c, 0, 60, 58
1, 253820, Note_on_c, 0, 48, 50
1, 253836, Note_off_c, 0, 60, 65
1, 253859, Note_off_c, 0, 48, 63
1, 253861, Note_off_c, 0, 52, 55
1, 253862, Note_off_c, 0, 66, 63
1, 253863, Note_on_c, 0, 75, 71
1, 253863, Note_off_c, 0, 55, 60
1, 253900, Note_off_c, 0, 75, 63
1, 253966, Note_on_c, 0, 76, 91
1, 253970, Note_on_c, 0, 67, 88
1, 253973, Note_on_c, 0, 60, 54
1, 253977, Note_on_c, 0, 55, 63
1, 253981, Note_on_c, 0, 48, 58
1, 253987, Note_on_c, 0, 52, 64
1, 254003, Note_off_c, 0, 60, 63
1, 254012, Note_off_c, 0, 76, 67
1, 254015, Note_off_c, 0, 67, 63
1, 254017, Note_off_c, 0, 52, 65
1, 254020, Note_off_c, 0, 55, 54
1, 254026, Note_off_c, 0, 48, 62
1, 254146, Note_on_c, 0, 63, 80
1, 254148, Note_on_c, 0, 52, 56
1, 254149, Note_on_c, 0, 55, 60
1, 254152, Note_on_c, 0, 60, 54
1, 254158, Note_on_c, 0, 48, 50
1, 254174, Note_off_c, 0, 60, 59
1, 254189, Note_off_c, 0, 63, 65
1, 254193, Note_off_c, 0, 55, 58
1, 254194, Note_off_c, 0, 52, 55
1, 254199, Note_on_c, 0, 71, 74
1, 254206, Note_off_c, 0, 48, 50
1, 254243, Note_off_c, 0, 71, 60
1, 254285, Note_on_c, 0, 60, 63
1, 254297, Note_on_c, 0, 72, 94
1, 254300, Note_on_c, 0, 55, 66
1, 254302, Note_on_c, 0, 64, 87
1, 254311, Note_on_c, 0, 48, 65
1, 254315, Note_off_c, 0, 60, 64
1, 254321, Note_on_c, 0, 52, 54
1, 254335, Note_off_c, 0, 55, 63
1, 254338, Note_off_c, 0, 64, 59
1, 254343, Note_off_c, 0, 72, 66
1, 254344, Note_off_c, 0, 52, 67
1, 254362, Note_off_c, 0, 48, 66
1, 254449, Control_c, 0, 64, 107
1, 254464, Control_c, 0, 64, 78
1, 254479, Control_c, 0, 64, 0
1, 254498, Note_on_c, 0, 71, 90
1, 254499, Note_on_c, 0, 62, 88
1, 254500, Note_on_c, 0, 43, 66
1, 254503, Note_on_c, 0, 53, 63
1, 254506, Note_on_c, 0, 50, 57
1, 254541, Note_off_c, 0, 53, 63
1, 254545, Note_off_c, 0, 43, 57
1, 254547, Note_off_c, 0, 50, 62
1, 254554, Control_c, 0, 64, 70
1, 254569, Note_off_c, 0, 71, 52
1, 254569, Control_c, 0, 64, 87
1, 254584, Control_c, 0, 64, 115
1, 254598, Control_c, 0, 64, 127
1, 254610, Note_off_c, 0, 62, 57
1, 254658, Note_on_c, 0, 50, 61
1, 254661, Note_on_c, 0, 43, 58
1, 254663, Note_on_c, 0, 53, 53
1, 254691, Note_off_c, 0, 53, 60
1, 254693, Note_off_c, 0, 50, 62
1, 254710, Note_off_c, 0, 43, 57
1, 254772, Note_on_c, 0, 65, 62
1, 254803, Note_on_c, 0, 62, 75
1, 254804, Note_on_c, 0, 53, 64
1, 254807, Note_on_c, 0, 43, 59
1, 254809, Note_off_c, 0, 65, 62
1, 254810, Note_on_c, 0, 50, 60
1, 254849, Note_off_c, 0, 62, 61
1, 254855, Note_on_c, 0, 59, 61
1, 254863, Note_off_c, 0, 53, 57
1, 254871, Note_off_c, 0, 43, 57
1, 254885, Note_off_c, 0, 59, 58
1, 254891, Note_off_c, 0, 50, 53
1, 254932, Note_on_c, 0, 57, 67
1, 254968, Note_on_c, 0, 55, 82
1, 254971, Note_off_c, 0, 57, 63
1, 254978, Note_on_c, 0, 53, 73
1, 254983, Note_on_c, 0, 43, 63
1, 254984, Note_on_c, 0, 50, 63
1, 255005, Note_off_c, 0, 55, 65
1, 255007, Note_off_c, 0, 53, 64
1, 255024, Note_off_c, 0, 50, 60
1, 255028, Note_off_c, 0, 43, 55
1, 255118, Note_on_c, 0, 77, 82
1, 255147, Note_on_c, 0, 43, 57
1, 255158, Note_on_c, 0, 50, 55
1, 255159, Note_on_c, 0, 53, 56
1, 255166, Note_off_c, 0, 77, 61
1, 255177, Note_on_c, 0, 74, 53
1, 255187, Note_on_c, 0, 76, 34
1, 255203, Note_off_c, 0, 74, 63
1, 255207, Note_off_c, 0, 43, 50
1, 255210, Note_off_c, 0, 53, 61
1, 255213, Note_off_c, 0, 76, 47
1, 255232, Note_on_c, 0, 72, 14
1, 255257, Note_off_c, 0, 50, 55
1, 255269, Note_on_c, 0, 68, 76
1, 255273, Note_off_c, 0, 72, 49
1, 255311, Note_off_c, 0, 68, 63
1, 255316, Note_on_c, 0, 67, 75
1, 255319, Note_on_c, 0, 50, 56
1, 255320, Note_on_c, 0, 69, 79
1, 255323, Note_on_c, 0, 43, 67
1, 255323, Note_on_c, 0, 53, 72
1, 255344, Note_off_c, 0, 67, 67
1, 255353, Note_off_c, 0, 69, 66
1, 255353, Note_off_c, 0, 53, 64
1, 255376, Note_off_c, 0, 43, 54
1, 255394, Note_off_c, 0, 50, 52
1, 255472, Note_on_c, 0, 89, 79
1, 255508, Note_on_c, 0, 50, 40
1, 255511, Note_on_c, 0, 43, 53
1, 255516, Note_on_c, 0, 86, 70
1, 255520, Note_off_c, 0, 89, 64
1, 255525, Note_on_c, 0, 53, 48
1, 255547, Note_off_c, 0, 86, 65
1, 255557, Note_off_c, 0, 43, 56
1, 255558, Note_on_c, 0, 83, 67
1, 255562, Note_off_c, 0, 53, 57
1, 255578, Note_off_c, 0, 83, 62
1, 255612, Note_on_c, 0, 80, 81
1, 255650, Note_off_c, 0, 50, 0
1, 255652, Note_on_c, 0, 79, 86
1, 255663, Note_off_c, 0, 80, 62
1, 255668, Note_on_c, 0, 50, 35
1, 255670, Note_on_c, 0, 53, 78
1, 255680, Note_on_c, 0, 43, 60
1, 255704, Note_off_c, 0, 53, 66
1, 255705, Note_on_c, 0, 81, 5
1, 255707, Note_off_c, 0, 79, 64
1, 255720, Note_off_c, 0, 43, 57
1, 255722, Note_off_c, 0, 50, 62
1, 255761, Note_off_c, 0, 81, 29
1, 255814, Note_on_c, 0, 77, 71
1, 255842, Note_off_c, 0, 77, 62
1, 255845, Note_on_c, 0, 74, 69
1, 255854, Note_on_c, 0, 43, 58
1, 255856, Note_on_c, 0, 53, 62
1, 255859, Note_on_c, 0, 50, 55
1, 255868, Note_off_c, 0, 74, 70
1, 255891, Note_off_c, 0, 53, 63
1, 255892, Note_off_c, 0, 43, 58
1, 255894, Note_on_c, 0, 71, 69
1, 255913, Note_off_c, 0, 50, 56
1, 255922, Note_off_c, 0, 71, 52
1, 255950, Note_on_c, 0, 68, 70
1, 255981, Note_off_c, 0, 68, 65
1, 255992, Note_on_c, 0, 67, 95
1, 255995, Note_on_c, 0, 53, 73
1, 255996, Note_on_c, 0, 43, 62
1, 256005, Note_on_c, 0, 50, 69
1, 256014, Note_off_c, 0, 53, 73
1, 256035, Note_off_c, 0, 50, 66
1, 256040, Note_off_c, 0, 67, 65
1, 256050, Note_off_c, 0, 43, 58
1, 256081, Control_c, 0, 64, 102
1, 256095, Control_c, 0, 64, 79
1, 256110, Control_c, 0, 64, 0
1, 256178, Note_on_c, 0, 74, 70
1, 256181, Note_on_c, 0, 67, 94
1, 256182, Note_on_c, 0, 79, 91
1, 256184, Note_on_c, 0, 71, 77
1, 256199, Note_on_c, 0, 43, 64
1, 256199, Note_on_c, 0, 50, 52
1, 256199, Note_on_c, 0, 53, 70
1, 256221, Control_c, 0, 64, 59
1, 256229, Note_off_c, 0, 53, 66
1, 256236, Control_c, 0, 64, 75
1, 256243, Note_off_c, 0, 50, 62
1, 256251, Control_c, 0, 64, 89
1, 256266, Control_c, 0, 64, 107
1, 256271, Note_off_c, 0, 43, 52
1, 256281, Control_c, 0, 64, 112
1, 256295, Control_c, 0, 64, 112
1, 256310, Control_c, 0, 64, 113
1, 256318, Note_off_c, 0, 71, 56
1, 256340, Control_c, 0, 64, 114
1, 256355, Control_c, 0, 64, 115
1, 256362, Note_on_c, 0, 43, 56
1, 256367, Note_on_c, 0, 50, 60
1, 256369, Note_on_c, 0, 53, 61
1, 256369, Control_c, 0, 64, 117
1, 256384, Control_c, 0, 64, 119
1, 256389, Note_off_c, 0, 53, 66
1, 256391, Note_off_c, 0, 43, 62
1, 256392, Note_off_c, 0, 50, 62
1, 256399, Control_c, 0, 64, 120
1, 256430, Control_c, 0, 64, 120
1, 256445, Control_c, 0, 64, 121
1, 256504, Control_c, 0, 64, 120
1, 256506, Note_off_c, 0, 74, 58
1, 256518, Control_c, 0, 64, 105
1, 256533, Control_c, 0, 64, 85
1, 256543, Note_on_c, 0, 76, 73
1, 256545, Note_on_c, 0, 72, 71
1, 256548, Control_c, 0, 64, 60
1, 256552, Note_off_c, 0, 67, 58
1, 256554, Note_on_c, 0, 60, 62
1, 256558, Note_off_c, 0, 79, 50
1, 256559, Note_on_c, 0, 55, 55
1, 256560, Note_on_c, 0, 52, 55
1, 256563, Control_c, 0, 64, 0
1, 256565, Note_on_c, 0, 48, 51
1, 256575, Note_off_c, 0, 60, 60
1, 256592, Note_off_c, 0, 72, 64
1, 256602, Note_off_c, 0, 55, 62
1, 256604, Note_off_c, 0, 52, 64
1, 256606, Note_off_c, 0, 48, 63
1, 256615, Note_off_c, 0, 76, 66
1, 256637, Control_c, 0, 64, 67
1, 256652, Control_c, 0, 64, 81
1, 256667, Control_c, 0, 64, 94
1, 256682, Control_c, 0, 64, 107
1, 256697, Control_c, 0, 64, 122
1, 256712, Control_c, 0, 64, 127
1, 256715, Note_on_c, 0, 55, 64
1, 256715, Note_on_c, 0, 60, 63
1, 256721, Note_on_c, 0, 48, 51
1, 256724, Note_on_c, 0, 52, 55
1, 256746, Note_off_c, 0, 60, 64
1, 256752, Note_off_c, 0, 55, 62
1, 256757, Note_off_c, 0, 48, 58
1, 256757, Note_off_c, 0, 52, 67
1, 256858, Note_on_c, 0, 78, 80
1, 256867, Note_on_c, 0, 52, 54
1, 256867, Note_on_c, 0, 60, 60
1, 256868, Note_on_c, 0, 48, 55
1, 256874, Note_on_c, 0, 55, 53
1, 256903, Note_off_c, 0, 60, 61
1, 256918, Note_on_c, 0, 87, 78
1, 256918, Note_off_c, 0, 78, 58
1, 256921, Note_off_c, 0, 55, 58
1, 256921, Note_off_c, 0, 52, 59
1, 256924, Note_off_c, 0, 48, 59
1, 256971, Note_off_c, 0, 87, 62
1, 257000, Control_c, 0, 64, 121
1, 257015, Control_c, 0, 64, 91
1, 257030, Control_c, 0, 64, 68
1, 257034, Note_on_c, 0, 88, 95
1, 257040, Note_on_c, 0, 79, 85
1, 257044, Control_c, 0, 64, 0
1, 257047, Note_on_c, 0, 48, 62
1, 257051, Note_on_c, 0, 60, 67
1, 257052, Note_on_c, 0, 52, 58
1, 257052, Note_on_c, 0, 55, 60
1, 257074, Control_c, 0, 64, 63
1, 257085, Note_off_c, 0, 60, 64
1, 257088, Note_off_c, 0, 79, 63
1, 257089, Control_c, 0, 64, 74
1, 257093, Note_off_c, 0, 88, 62
1, 257095, Note_off_c, 0, 52, 63
1, 257099, Note_off_c, 0, 55, 60
1, 257100, Note_off_c, 0, 48, 59
1, 257104, Control_c, 0, 64, 86
1, 257119, Control_c, 0, 64, 99
1, 257133, Control_c, 0, 64, 110
1, 257148, Control_c, 0, 64, 120
1, 257163, Control_c, 0, 64, 127
1, 257210, Note_on_c, 0, 75, 79
1, 257219, Note_on_c, 0, 60, 57
1, 257220, Note_on_c, 0, 55, 56
1, 257224, Note_on_c, 0, 52, 48
1, 257227, Note_on_c, 0, 48, 56
1, 257242, Note_off_c, 0, 60, 61
1, 257256, Note_off_c, 0, 75, 62
1, 257258, Note_off_c, 0, 55, 60
1, 257262, Note_on_c, 0, 83, 79
1, 257263, Note_off_c, 0, 52, 64
1, 257266, Note_off_c, 0, 48, 63
1, 257304, Note_off_c, 0, 83, 62
1, 257365, Note_on_c, 0, 84, 96
1, 257371, Note_on_c, 0, 76, 82
1, 257374, Note_on_c, 0, 60, 53
1, 257382, Note_on_c, 0, 55, 56
1, 257383, Note_on_c, 0, 48, 55
1, 257386, Note_on_c, 0, 52, 56
1, 257404, Note_off_c, 0, 76, 65
1, 257405, Note_off_c, 0, 60, 64
1, 257406, Note_off_c, 0, 84, 65
1, 257421, Note_off_c, 0, 52, 65
1, 257421, Note_off_c, 0, 55, 61
1, 257423, Note_off_c, 0, 48, 61
1, 257538, Note_on_c, 0, 75, 83
1, 257542, Note_on_c, 0, 52, 52
1, 257542, Note_on_c, 0, 48, 56
1, 257542, Note_on_c, 0, 60, 60
1, 257544, Note_on_c, 0, 55, 54
1, 257573, Note_off_c, 0, 60, 63
1, 257581, Note_off_c, 0, 75, 64
1, 257586, Note_off_c, 0, 48, 57
1, 257591, Note_off_c, 0, 52, 54
1, 257592, Note_on_c, 0, 78, 70
1, 257598, Note_off_c, 0, 55, 60
1, 257652, Note_off_c, 0, 78, 59
1, 257684, Note_on_c, 0, 79, 72
1, 257686, Note_on_c, 0, 76, 71
1, 257705, Note_on_c, 0, 60, 63
1, 257712, Note_on_c, 0, 55, 63
1, 257714, Note_on_c, 0, 48, 58
1, 257723, Note_on_c, 0, 52, 58
1, 257723, Note_off_c, 0, 76, 65
1, 257723, Note_off_c, 0, 79, 61
1, 257737, Note_off_c, 0, 60, 64
1, 257743, Note_off_c, 0, 55, 62
1, 257755, Note_off_c, 0, 52, 67
1, 257758, Note_off_c, 0, 48, 62
1, 257868, Note_on_c, 0, 66, 77
1, 257882, Note_on_c, 0, 60, 58
1, 257883, Note_on_c, 0, 52, 48
1, 257884, Note_on_c, 0, 48, 55
1, 257889, Note_on_c, 0, 55, 52
1, 257904, Note_off_c, 0, 60, 61
1, 257924, Note_off_c, 0, 66, 62
1, 257932, Note_on_c, 0, 75, 73
1, 257932, Note_off_c, 0, 48, 60
1, 257933, Note_off_c, 0, 55, 59
1, 257940, Note_off_c, 0, 52, 60
1, 257967, Note_off_c, 0, 75, 63
1, 258024, Note_on_c, 0, 76, 92
1, 258029, Note_on_c, 0, 67, 84
1, 258040, Note_on_c, 0, 55, 61
1, 258041, Note_on_c, 0, 60, 60
1, 258043, Note_on_c, 0, 48, 58
1, 258054, Note_on_c, 0, 52, 59
1, 258065, Note_off_c, 0, 76, 68
1, 258067, Note_off_c, 0, 60, 65
1, 258071, Note_off_c, 0, 67, 59
1, 258073, Note_off_c, 0, 55, 60
1, 258082, Note_off_c, 0, 52, 70
1, 258089, Note_off_c, 0, 48, 61
1, 258193, Note_on_c, 0, 63, 77
1, 258211, Note_on_c, 0, 60, 54
1, 258212, Note_on_c, 0, 52, 55
1, 258218, Note_on_c, 0, 55, 46
1, 258224, Note_on_c, 0, 48, 41
1, 258235, Note_off_c, 0, 60, 57
1, 258239, Note_off_c, 0, 63, 64
1, 258253, Note_on_c, 0, 71, 76
1, 258259, Note_off_c, 0, 48, 56
1, 258259, Note_off_c, 0, 55, 62
1, 258260, Note_off_c, 0, 52, 62
1, 258300, Note_off_c, 0, 71, 60
1, 258346, Note_on_c, 0, 60, 58
1, 258346, Note_on_c, 0, 72, 93
1, 258353, Note_on_c, 0, 64, 83
1, 258354, Note_on_c, 0, 55, 59
1, 258363, Note_on_c, 0, 48, 59
1, 258369, Note_off_c, 0, 60, 64
1, 258369, Note_on_c, 0, 52, 53
1, 258381, Note_off_c, 0, 55, 66
1, 258382, Note_off_c, 0, 64, 63
1, 258395, Note_off_c, 0, 72, 65
1, 258399, Note_off_c, 0, 52, 66
1, 258405, Note_off_c, 0, 48, 63
1, 258497, Control_c, 0, 64, 96
1, 258512, Control_c, 0, 64, 69
1, 258527, Control_c, 0, 64, 0
1, 258554, Note_on_c, 0, 71, 91
1, 258558, Note_on_c, 0, 62, 89
1, 258563, Note_on_c, 0, 43, 59
1, 258563, Note_on_c, 0, 53, 55
1, 258567, Note_on_c, 0, 50, 49
1, 258586, Control_c, 0, 64, 34
1, 258592, Note_off_c, 0, 53, 63
1, 258600, Note_off_c, 0, 50, 59
1, 258601, Control_c, 0, 64, 73
1, 258603, Note_off_c, 0, 43, 58
1, 258616, Control_c, 0, 64, 90
1, 258625, Note_off_c, 0, 71, 53
1, 258630, Control_c, 0, 64, 127
1, 258648, Note_off_c, 0, 62, 54
1, 258726, Note_on_c, 0, 50, 54
1, 258728, Note_on_c, 0, 53, 51
1, 258733, Note_on_c, 0, 43, 43
1, 258755, Note_off_c, 0, 53, 59
1, 258763, Note_off_c, 0, 50, 60
1, 258764, Note_off_c, 0, 43, 53
1, 258818, Note_on_c, 0, 65, 62
1, 258852, Note_off_c, 0, 65, 66
1, 258855, Note_on_c, 0, 62, 72
1, 258866, Note_on_c, 0, 43, 55
1, 258870, Note_on_c, 0, 50, 61
1, 258870, Note_on_c, 0, 53, 60
1, 258888, Note_off_c, 0, 62, 63
1, 258901, Note_on_c, 0, 59, 67
1, 258923, Note_off_c, 0, 53, 55
1, 258927, Note_off_c, 0, 59, 63
1, 258931, Note_off_c, 0, 43, 55
1, 258955, Note_off_c, 0, 50, 51
1, 258967, Note_on_c, 0, 56, 75
1, 259008, Note_on_c, 0, 55, 78
1, 259019, Note_off_c, 0, 56, 50
1, 259033, Note_on_c, 0, 50, 50
1, 259039, Note_on_c, 0, 53, 65
1, 259043, Note_on_c, 0, 43, 59
1, 259061, Note_off_c, 0, 55, 66
1, 259068, Note_off_c, 0, 53, 67
1, 259073, Note_off_c, 0, 50, 59
1, 259081, Note_off_c, 0, 43, 59
1, 259170, Note_on_c, 0, 77, 80
1, 259202, Note_on_c, 0, 43, 53
1, 259216, Note_on_c, 0, 50, 49
1, 259225, Note_off_c, 0, 77, 61
1, 259226, Note_on_c, 0, 74, 63
1, 259243, Note_on_c, 0, 53, 16
1, 259258, Note_off_c, 0, 74, 66
1, 259267, Note_on_c, 0, 71, 68
1, 259269, Note_off_c, 0, 53, 58
1, 259270, Note_off_c, 0, 43, 49
1, 259287, Note_off_c, 0, 71, 66
1, 259325, Note_on_c, 0, 68, 80
1, 259350, Note_off_c, 0, 50, 0
1, 259355, Note_on_c, 0, 67, 81
1, 259366, Note_on_c, 0, 50, 40
1, 259371, Note_on_c, 0, 53, 69
1, 259378, Note_off_c, 0, 68, 60
1, 259383, Note_on_c, 0, 43, 67
1, 259404, Note_off_c, 0, 53, 62
1, 259410, Note_off_c, 0, 67, 63
1, 259427, Note_off_c, 0, 43, 52
1, 259427, Note_off_c, 0, 50, 58
1, 259502, Note_on_c, 0, 89, 82
1, 259548, Note_on_c, 0, 43, 55
1, 259555, Note_off_c, 0, 89, 65
1, 259561, Note_on_c, 0, 86, 70
1, 259562, Note_on_c, 0, 50, 43
1, 259591, Note_off_c, 0, 86, 65
1, 259595, Note_off_c, 0, 43, 55
1, 259599, Note_on_c, 0, 83, 67
1, 259624, Note_off_c, 0, 83, 56
1, 259636, Note_off_c, 0, 50, 42
1, 259657, Note_on_c, 0, 80, 75
1, 259699, Note_on_c, 0, 79, 90
1, 259708, Note_off_c, 0, 80, 62
1, 259714, Note_on_c, 0, 50, 50
1, 259720, Note_on_c, 0, 53, 73
1, 259721, Note_on_c, 0, 43, 61
1, 259743, Note_off_c, 0, 53, 69
1, 259749, Note_off_c, 0, 79, 64
1, 259753, Note_off_c, 0, 43, 58
1, 259762, Note_off_c, 0, 50, 57
1, 259853, Note_on_c, 0, 77, 75
1, 259881, Note_off_c, 0, 77, 59
1, 259881, Note_on_c, 0, 74, 67
1, 259892, Note_on_c, 0, 50, 54
1, 259893, Note_on_c, 0, 43, 43
1, 259898, Note_on_c, 0, 53, 48
1, 259916, Note_off_c, 0, 74, 62
1, 259930, Note_off_c, 0, 53, 54
1, 259931, Note_off_c, 0, 43, 50
1, 259933, Note_on_c, 0, 71, 66
1, 259942, Note_off_c, 0, 50, 58
1, 259976, Note_off_c, 0, 71, 54
1, 259996, Note_on_c, 0, 68, 69
1, 260023, Note_off_c, 0, 68, 68
1, 260042, Note_on_c, 0, 67, 91
1, 260042, Note_on_c, 0, 43, 60
1, 260046, Note_on_c, 0, 50, 65
1, 260047, Note_on_c, 0, 53, 63
1, 260074, Note_off_c, 0, 53, 69
1, 260077, Note_off_c, 0, 50, 63
1, 260089, Note_off_c, 0, 67, 65
1, 260092, Note_off_c, 0, 43, 56
1, 260129, Control_c, 0, 64, 96
1, 260143, Control_c, 0, 64, 71
1, 260158, Control_c, 0, 64, 0
1, 260217, Note_on_c, 0, 74, 84
1, 260220, Note_on_c, 0, 67, 94
1, 260220, Note_on_c, 0, 71, 78
1, 260220, Note_on_c, 0, 79, 89
1, 260235, Note_on_c, 0, 43, 59
1, 260235, Note_on_c, 0, 50, 62
1, 260235, Note_on_c, 0, 53, 65
1, 260262, Note_off_c, 0, 53, 65
1, 260262, Control_c, 0, 64, 62
1, 260274, Note_off_c, 0, 50, 61
1, 260277, Control_c, 0, 64, 76
1, 260289, Note_off_c, 0, 43, 57
1, 260292, Control_c, 0, 64, 95
1, 260307, Control_c, 0, 64, 120
1, 260322, Control_c, 0, 64, 127
1, 260357, Note_off_c, 0, 71, 54
1, 260402, Note_on_c, 0, 43, 63
1, 260405, Note_on_c, 0, 53, 54
1, 260415, Note_on_c, 0, 50, 57
1, 260432, Note_off_c, 0, 53, 61
1, 260438, Note_off_c, 0, 50, 62
1, 260445, Note_off_c, 0, 43, 56
1, 260560, Note_off_c, 0, 74, 56
1, 260589, Control_c, 0, 64, 115
1, 260595, Note_on_c, 0, 76, 61
1, 260599, Note_on_c, 0, 48, 63
1, 260601, Note_on_c, 0, 72, 59
1, 260604, Control_c, 0, 64, 97
1, 260613, Note_on_c, 0, 52, 48
1, 260619, Control_c, 0, 64, 82
1, 260623, Note_off_c, 0, 79, 54
1, 260634, Control_c, 0, 64, 68
1, 260639, Note_off_c, 0, 52, 59
1, 260641, Note_off_c, 0, 48, 61
1, 260648, Control_c, 0, 64, 0
1, 260679, Note_off_c, 0, 67, 55
1, 260709, Note_off_c, 0, 76, 65
1, 260718, Note_off_c, 0, 72, 62
1, 260777, Note_on_c, 0, 48, 58
1, 260778, Note_on_c, 0, 52, 40
1, 260801, Note_off_c, 0, 48, 63
1, 260804, Note_off_c, 0, 52, 56
1, 260945, Note_on_c, 0, 47, 57
1, 260950, Note_on_c, 0, 59, 55
1, 260987, Note_off_c, 0, 59, 59
1, 260994, Note_off_c, 0, 47, 61
1, 261016, Note_on_c, 0, 48, 56
1, 261022, Note_on_c, 0, 60, 62
1, 261052, Note_off_c, 0, 60, 65
1, 261061, Note_off_c, 0, 48, 66
1, 261113, Note_on_c, 0, 64, 66
1, 261124, Note_on_c, 0, 52, 53
1, 261142, Note_off_c, 0, 64, 66
1, 261147, Note_off_c, 0, 52, 61
1, 261280, Note_on_c, 0, 47, 57
1, 261291, Note_on_c, 0, 59, 63
1, 261330, Note_off_c, 0, 59, 58
1, 261343, Note_off_c, 0, 47, 61
1, 261359, Note_on_c, 0, 60, 66
1, 261360, Note_on_c, 0, 48, 59
1, 261386, Note_off_c, 0, 60, 66
1, 261402, Note_off_c, 0, 48, 68
1, 261449, Note_on_c, 0, 67, 74
1, 261452, Note_on_c, 0, 55, 59
1, 261472, Note_off_c, 0, 67, 68
1, 261474, Note_off_c, 0, 55, 65
1, 261604, Note_on_c, 0, 47, 66
1, 261618, Note_on_c, 0, 59, 71
1, 261656, Note_off_c, 0, 59, 64
1, 261671, Note_on_c, 0, 48, 65
1, 261671, Note_on_c, 0, 60, 78
1, 261675, Note_off_c, 0, 47, 64
1, 261700, Note_off_c, 0, 60, 64
1, 261702, Note_off_c, 0, 48, 66
1, 261786, Note_on_c, 0, 72, 82
1, 261789, Note_on_c, 0, 60, 79
1, 261822, Note_off_c, 0, 60, 63
1, 261822, Note_off_c, 0, 72, 65
1, 261958, Note_on_c, 0, 60, 85
1, 261966, Note_on_c, 0, 48, 69
1, 261995, Note_off_c, 0, 48, 66
1, 261999, Note_off_c, 0, 60, 63
1, 262131, Note_on_c, 0, 76, 83
1, 262134, Note_on_c, 0, 64, 81
1, 262169, Note_off_c, 0, 76, 66
1, 262171, Note_off_c, 0, 64, 65
1, 262316, Note_on_c, 0, 48, 74
1, 262316, Note_on_c, 0, 60, 69
1, 262337, Note_off_c, 0, 60, 64
1, 262339, Note_off_c, 0, 48, 68
1, 262344, Note_on_c, 0, 62, 36
1, 262352, Note_on_c, 0, 69, 28
1, 262376, Note_off_c, 0, 62, 33
1, 262387, Note_off_c, 0, 69, 38
1, 262501, Note_on_c, 0, 79, 91
1, 262502, Note_on_c, 0, 72, 84
1, 262504, Note_on_c, 0, 52, 87
1, 262504, Note_on_c, 0, 67, 81
1, 262506, Note_on_c, 0, 40, 77
1, 262534, Note_off_c, 0, 67, 59
1, 262542, Note_off_c, 0, 40, 65
1, 262543, Note_off_c, 0, 52, 66
1, 262543, Note_off_c, 0, 72, 63
1, 262545, Note_on_c, 0, 69, 22
1, 262546, Note_off_c, 0, 69, 127
1, 262558, Note_off_c, 0, 79, 61
1, 262733, Note_on_c, 0, 72, 81
1, 262735, Note_on_c, 0, 81, 95
1, 262739, Note_on_c, 0, 53, 94
1, 262739, Note_on_c, 0, 69, 90
1, 262746, Note_on_c, 0, 41, 77
1, 262789, Control_c, 0, 64, 64
1, 262799, Note_off_c, 0, 69, 65
1, 262805, Control_c, 0, 64, 79
1, 262814, Note_off_c, 0, 72, 64
1, 262820, Control_c, 0, 64, 102
1, 262835, Control_c, 0, 64, 127
1, 262838, Note_off_c, 0, 53, 61
1, 262840, Note_off_c, 0, 81, 59
1, 262842, Note_off_c, 0, 41, 64
1, 263219, Note_on_c, 0, 83, 73
1, 263222, Note_on_c, 0, 79, 78
1, 263251, Note_off_c, 0, 79, 59
1, 263288, Note_on_c, 0, 81, 73
1, 263292, Note_off_c, 0, 83, 58
1, 263294, Note_on_c, 0, 77, 76
1, 263302, Control_c, 0, 64, 106
1, 263317, Control_c, 0, 64, 92
1, 263332, Control_c, 0, 64, 81
1, 263347, Control_c, 0, 64, 70
1, 263361, Control_c, 0, 64, 59
1, 263367, Note_on_c, 0, 79, 67
1, 263368, Note_off_c, 0, 81, 60
1, 263371, Note_off_c, 0, 77, 60
1, 263372, Note_on_c, 0, 76, 71
1, 263376, Control_c, 0, 64, 21
1, 263391, Control_c, 0, 64, 18
1, 263394, Note_off_c, 0, 79, 66
1, 263399, Note_off_c, 0, 76, 67
1, 263406, Control_c, 0, 64, 26
1, 263420, Control_c, 0, 64, 27
1, 263455, Note_on_c, 0, 77, 79
1, 263461, Note_on_c, 0, 74, 73
1, 263480, Control_c, 0, 64, 26
1, 263494, Control_c, 0, 64, 25
1, 263524, Control_c, 0, 64, 24
1, 263532, Note_on_c, 0, 76, 68
1, 263533, Note_off_c, 0, 74, 65
1, 263535, Note_off_c, 0, 77, 61
1, 263536, Note_on_c, 0, 72, 72
1, 263554, Control_c, 0, 64, 25
1, 263556, Note_off_c, 0, 76, 70
1, 263560, Note_off_c, 0, 72, 69
1, 263583, Control_c, 0, 64, 26
1, 263621, Note_on_c, 0, 74, 76
1, 263625, Note_on_c, 0, 71, 79
1, 263658, Control_c, 0, 64, 25
1, 263673, Control_c, 0, 64, 24
1, 263702, Note_on_c, 0, 72, 69
1, 263706, Note_off_c, 0, 71, 61
1, 263707, Note_off_c, 0, 74, 64
1, 263708, Note_on_c, 0, 69, 72
1, 263725, Control_c, 0, 64, 25
1, 263728, Note_off_c, 0, 72, 69
1, 263732, Note_off_c, 0, 69, 70
1, 263784, Control_c, 0, 64, 24
1, 263789, Note_on_c, 0, 71, 77
1, 263794, Note_on_c, 0, 67, 83
1, 263814, Control_c, 0, 64, 23
1, 263829, Control_c, 0, 64, 21
1, 263858, Control_c, 0, 64, 20
1, 263867, Note_off_c, 0, 71, 60
1, 263868, Note_on_c, 0, 69, 67
1, 263869, Note_on_c, 0, 65, 75
1, 263869, Note_off_c, 0, 67, 62
1, 263894, Note_off_c, 0, 69, 71
1, 263895, Note_off_c, 0, 65, 69
1, 263932, Control_c, 0, 64, 18
1, 263958, Note_on_c, 0, 67, 78
1, 263961, Note_on_c, 0, 64, 78
1, 264028, Note_off_c, 0, 67, 60
1, 264030, Note_on_c, 0, 65, 67
1, 264030, Note_off_c, 0, 64, 63
1, 264031, Note_on_c, 0, 62, 74
1, 264057, Note_off_c, 0, 65, 69
1, 264060, Note_off_c, 0, 62, 65
1, 264066, Control_c, 0, 64, 20
1, 264119, Note_on_c, 0, 64, 80
1, 264120, Note_on_c, 0, 60, 81
1, 264170, Control_c, 0, 64, 21
1, 264192, Note_on_c, 0, 62, 75
1, 264195, Note_off_c, 0, 64, 63
1, 264196, Note_off_c, 0, 60, 59
1, 264197, Note_on_c, 0, 59, 71
1, 264224, Note_off_c, 0, 59, 67
1, 264224, Note_off_c, 0, 62, 64
1, 264287, Note_on_c, 0, 60, 80
1, 264289, Note_on_c, 0, 57, 77
1, 264349, Note_off_c, 0, 60, 55
1, 264350, Note_off_c, 0, 57, 54
1, 264362, Control_c, 0, 64, 20
1, 264377, Control_c, 0, 64, 0
1, 264389, Note_on_c, 0, 59, 74
1, 264394, Note_on_c, 0, 55, 68
1, 264400, Note_on_c, 0, 53, 52
1, 264400, Note_on_c, 0, 43, 50
1, 264410, Note_on_c, 0, 50, 48
1, 264578, Control_c, 0, 64, 42
1, 264593, Control_c, 0, 64, 49
1, 264622, Control_c, 0, 64, 48
1, 264637, Control_c, 0, 64, 49
1, 264652, Control_c, 0, 64, 49
1, 264770, Control_c, 0, 64, 49
1, 264785, Control_c, 0, 64, 48
1, 264803, Note_off_c, 0, 53, 42
1, 264814, Control_c, 0, 64, 48
1, 264829, Control_c, 0, 64, 47
1, 264859, Control_c, 0, 64, 47
1, 264874, Control_c, 0, 64, 46
1, 264897, Note_off_c, 0, 55, 33
1, 264918, Control_c, 0, 64, 46
1, 264933, Control_c, 0, 64, 45
1, 264948, Control_c, 0, 64, 44
1, 264963, Control_c, 0, 64, 44
1, 265007, Control_c, 0, 64, 43
1, 265022, Control_c, 0, 64, 42
1, 265037, Control_c, 0, 64, 40
1, 265051, Control_c, 0, 64, 38
1, 265066, Control_c, 0, 64, 37
1, 265072, Note_off_c, 0, 50, 45
1, 265072, Note_off_c, 0, 59, 56
1, 265081, Control_c, 0, 64, 35
1, 265096, Control_c, 0, 64, 32
1, 265105, Note_on_c, 0, 60, 42
1, 265111, Control_c, 0, 64, 29
1, 265113, Note_on_c, 0, 55, 34
1, 265115, Note_on_c, 0, 48, 35
1, 265118, Note_on_c, 0, 52, 38
1, 265119, Note_off_c, 0, 43, 40
1, 265126, Control_c, 0, 64, 26
1, 265140, Control_c, 0, 64, 23
1, 265155, Control_c, 0, 64, 18
1, 265170, Control_c, 0, 64, 0
1, 265362, Note_off_c, 0, 52, 59
1, 265384, Note_off_c, 0, 48, 60
1, 265407, Note_off_c, 0, 55, 58
1, 265419, Note_off_c, 0, 60, 61
1, 265649, Note_on_c, 0, 40, 53
1, 265664, Note_on_c, 0, 52, 44
1, 265693, Note_off_c, 0, 52, 48
1, 265720, Note_off_c, 0, 40, 60
1, 265729, Note_on_c, 0, 54, 59
1, 265733, Note_on_c, 0, 42, 52
1, 265759, Note_off_c, 0, 54, 64
1, 265795, Note_off_c, 0, 42, 60
1, 265814, Note_on_c, 0, 43, 46
1, 265816, Note_on_c, 0, 55, 58
1, 265856, Note_off_c, 0, 55, 61
1, 265871, Note_off_c, 0, 43, 62
1, 265884, Note_on_c, 0, 45, 56
1, 265904, Note_on_c, 0, 57, 44
1, 265926, Note_off_c, 0, 45, 61
1, 265956, Note_off_c, 0, 57, 59
1, 265983, Note_on_c, 0, 59, 57
1, 265988, Note_on_c, 0, 47, 54
1, 266003, Note_off_c, 0, 59, 63
1, 266014, Note_off_c, 0, 47, 59
1, 266162, Note_on_c, 0, 60, 78
1, 266168, Note_on_c, 0, 48, 61
1, 266174, Note_on_c, 0, 36, 55
1, 266185, Note_off_c, 0, 60, 68
1, 266189, Note_off_c, 0, 48, 62
1, 266200, Note_off_c, 0, 36, 59
1, 266386, Control_c, 0, 64, 47
1, 266390, Note_on_c, 0, 59, 66
1, 266394, Note_on_c, 0, 47, 65
1, 266401, Note_on_c, 0, 35, 54
1, 266401, Control_c, 0, 64, 71
1, 266416, Control_c, 0, 64, 86
1, 266428, Note_off_c, 0, 47, 63
1, 266430, Control_c, 0, 64, 103
1, 266437, Note_off_c, 0, 35, 64
1, 266445, Control_c, 0, 64, 114
1, 266460, Control_c, 0, 64, 120
1, 266468, Note_off_c, 0, 59, 60
1, 266475, Control_c, 0, 64, 124
1, 266490, Control_c, 0, 64, 127
1, 266791, Note_on_c, 0, 40, 59
1, 266797, Note_on_c, 0, 52, 61
1, 266821, Note_off_c, 0, 52, 65
1, 266824, Control_c, 0, 64, 115
1, 266839, Control_c, 0, 64, 102
1, 266854, Control_c, 0, 64, 89
1, 266865, Note_on_c, 0, 54, 71
1, 266868, Control_c, 0, 64, 76
1, 266869, Note_off_c, 0, 40, 53
1, 266871, Note_on_c, 0, 42, 62
1, 266883, Control_c, 0, 64, 61
1, 266893, Note_off_c, 0, 54, 65
1, 266898, Control_c, 0, 64, 0
1, 266946, Note_on_c, 0, 43, 64
1, 266949, Note_on_c, 0, 55, 68
1, 266961, Note_off_c, 0, 42, 55
1, 267014, Note_on_c, 0, 45, 64
1, 267015, Note_off_c, 0, 55, 62
1, 267018, Note_off_c, 0, 43, 61
1, 267020, Note_on_c, 0, 57, 72
1, 267061, Note_off_c, 0, 57, 59
1, 267079, Note_off_c, 0, 45, 58
1, 267114, Note_on_c, 0, 59, 74
1, 267119, Note_on_c, 0, 47, 53
1, 267136, Note_off_c, 0, 59, 67
1, 267145, Note_off_c, 0, 47, 59
1, 267288, Note_on_c, 0, 60, 80
1, 267299, Note_on_c, 0, 48, 68
1, 267303, Note_on_c, 0, 36, 58
1, 267316, Note_off_c, 0, 60, 63
1, 267324, Note_off_c, 0, 48, 66
1, 267333, Note_off_c, 0, 36, 64
1, 267510, Note_on_c, 0, 59, 76
1, 267522, Note_on_c, 0, 47, 71
1, 267527, Note_on_c, 0, 35, 63
1, 267542, Control_c, 0, 64, 61
1, 267557, Note_off_c, 0, 35, 64
1, 267557, Note_off_c, 0, 47, 66
1, 267557, Control_c, 0, 64, 78
1, 267572, Control_c, 0, 64, 94
1, 267582, Note_off_c, 0, 59, 61
1, 267586, Control_c, 0, 64, 115
1, 267601, Control_c, 0, 64, 127
1, 267883, Note_on_c, 0, 64, 69
1, 267889, Note_on_c, 0, 52, 53
1, 267915, Note_off_c, 0, 64, 62
1, 267918, Note_off_c, 0, 52, 63
1, 267929, Control_c, 0, 64, 113
1, 267944, Control_c, 0, 64, 94
1, 267952, Note_on_c, 0, 48, 70
1, 267952, Note_on_c, 0, 60, 74
1, 267958, Control_c, 0, 64, 79
1, 267973, Control_c, 0, 64, 64
1, 267980, Note_off_c, 0, 60, 64
1, 267988, Control_c, 0, 64, 0
1, 267996, Note_off_c, 0, 48, 61
1, 268036, Note_on_c, 0, 47, 66
1, 268039, Note_on_c, 0, 59, 75
1, 268062, Note_off_c, 0, 47, 67
1, 268072, Note_off_c, 0, 59, 65
1, 268217, Note_on_c, 0, 55, 68
1, 268221, Note_on_c, 0, 67, 75
1, 268247, Note_off_c, 0, 67, 65
1, 268252, Note_off_c, 0, 55, 64
1, 268281, Note_on_c, 0, 60, 68
1, 268308, Note_on_c, 0, 48, 61
1, 268322, Note_off_c, 0, 60, 60
1, 268353, Note_off_c, 0, 48, 60
1, 268368, Note_on_c, 0, 59, 81
1, 268373, Note_on_c, 0, 47, 70
1, 268397, Note_off_c, 0, 59, 67
1, 268403, Note_off_c, 0, 47, 66
1, 268533, Note_on_c, 0, 59, 67
1, 268534, Note_on_c, 0, 71, 80
1, 268566, Note_off_c, 0, 59, 64
1, 268576, Note_off_c, 0, 71, 59
1, 268606, Note_on_c, 0, 60, 75
1, 268624, Note_on_c, 0, 48, 69
1, 268688, Note_off_c, 0, 60, 63
1, 268689, Note_off_c, 0, 48, 65
1, 268690, Note_on_c, 0, 59, 83
1, 268695, Note_on_c, 0, 47, 70
1, 268721, Note_off_c, 0, 47, 67
1, 268721, Note_off_c, 0, 59, 66
1, 268850, Note_on_c, 0, 60, 69
1, 268855, Note_on_c, 0, 72, 79
1, 268877, Note_off_c, 0, 60, 66
1, 268881, Note_off_c, 0, 72, 64
1, 268930, Note_on_c, 0, 60, 75
1, 268950, Note_on_c, 0, 48, 69
1, 269008, Note_off_c, 0, 60, 64
1, 269013, Note_on_c, 0, 59, 84
1, 269015, Note_off_c, 0, 48, 66
1, 269016, Note_on_c, 0, 47, 74
1, 269038, Note_off_c, 0, 59, 64
1, 269046, Note_off_c, 0, 47, 67
1, 269197, Note_on_c, 0, 76, 83
1, 269199, Note_on_c, 0, 64, 79
1, 269229, Note_off_c, 0, 64, 67
1, 269233, Note_off_c, 0, 76, 67
1, 269387, Note_on_c, 0, 60, 91
1, 269390, Note_on_c, 0, 48, 74
1, 269421, Note_off_c, 0, 48, 66
1, 269431, Note_off_c, 0, 60, 62
1, 269613, Note_on_c, 0, 59, 94
1, 269623, Note_on_c, 0, 47, 79
1, 269700, Control_c, 0, 64, 64
1, 269715, Control_c, 0, 64, 79
1, 269729, Control_c, 0, 64, 98
1, 269737, Note_off_c, 0, 47, 62
1, 269738, Note_off_c, 0, 59, 60
1, 269744, Control_c, 0, 64, 127
1, 269966, Control_c, 0, 64, 120
1, 269980, Control_c, 0, 64, 103
1, 269996, Control_c, 0, 64, 89
1, 270011, Control_c, 0, 64, 75
1, 270026, Control_c, 0, 64, 53
1, 270041, Control_c, 0, 64, 0
1, 270113, Note_on_c, 0, 72, 79
1, 270144, Note_off_c, 0, 72, 63
1, 270196, Note_on_c, 0, 57, 79
1, 270197, Note_on_c, 0, 88, 91
1, 270199, Note_on_c, 0, 45, 73
1, 270203, Control_c, 0, 64, 63
1, 270218, Control_c, 0, 64, 79
1, 270226, Note_off_c, 0, 45, 67
1, 270226, Note_off_c, 0, 57, 65
1, 270233, Control_c, 0, 64, 100
1, 270248, Control_c, 0, 64, 127
1, 270459, Note_on_c, 0, 86, 74
1, 270463, Note_off_c, 0, 88, 60
1, 270467, Note_on_c, 0, 57, 55
1, 270478, Note_on_c, 0, 64, 58
1, 270483, Note_on_c, 0, 66, 55
1, 270484, Note_on_c, 0, 60, 47
1, 270501, Note_off_c, 0, 57, 56
1, 270503, Note_off_c, 0, 66, 62
1, 270522, Note_off_c, 0, 64, 59
1, 270524, Note_off_c, 0, 60, 62
1, 270540, Note_on_c, 0, 84, 76
1, 270549, Note_off_c, 0, 86, 59
1, 270618, Note_off_c, 0, 84, 64
1, 270619, Note_on_c, 0, 83, 72
1, 270636, Note_on_c, 0, 57, 45
1, 270636, Note_on_c, 0, 64, 59
1, 270638, Note_on_c, 0, 66, 44
1, 270642, Note_on_c, 0, 60, 46
1, 270660, Note_off_c, 0, 66, 61
1, 270671, Note_off_c, 0, 57, 57
1, 270671, Note_off_c, 0, 64, 60
1, 270677, Note_off_c, 0, 83, 58
1, 270686, Note_off_c, 0, 60, 59
1, 270692, Note_on_c, 0, 81, 69
1, 270749, Note_off_c, 0, 81, 58
1, 270800, Note_on_c, 0, 80, 81
1, 270805, Control_c, 0, 64, 98
1, 270808, Note_on_c, 0, 66, 52
1, 270809, Note_on_c, 0, 64, 53
1, 270815, Note_on_c, 0, 57, 49
1, 270815, Note_on_c, 0, 60, 45
1, 270820, Control_c, 0, 64, 72
1, 270834, Control_c, 0, 64, 0
1, 270844, Note_off_c, 0, 66, 54
1, 270851, Note_off_c, 0, 57, 55
1, 270866, Note_off_c, 0, 64, 52
1, 270877, Note_off_c, 0, 60, 40
1, 270879, Control_c, 0, 64, 21
1, 270894, Control_c, 0, 64, 68
1, 270908, Control_c, 0, 64, 81
1, 270923, Control_c, 0, 64, 94
1, 270938, Control_c, 0, 64, 105
1, 270953, Control_c, 0, 64, 114
1, 270968, Control_c, 0, 64, 122
1, 270981, Note_on_c, 0, 57, 41
1, 270982, Control_c, 0, 64, 127
1, 270989, Note_on_c, 0, 66, 41
1, 270993, Note_on_c, 0, 64, 52
1, 271002, Note_on_c, 0, 60, 45
1, 271016, Note_off_c, 0, 57, 51
1, 271017, Note_off_c, 0, 66, 54
1, 271020, Note_off_c, 0, 64, 61
1, 271029, Note_off_c, 0, 60, 57
1, 271125, Note_on_c, 0, 81, 78
1, 271128, Note_on_c, 0, 64, 49
1, 271128, Note_on_c, 0, 57, 42
1, 271136, Note_on_c, 0, 66, 43
1, 271139, Note_on_c, 0, 60, 43
1, 271156, Note_off_c, 0, 80, 62
1, 271164, Note_off_c, 0, 66, 55
1, 271180, Note_off_c, 0, 57, 58
1, 271199, Note_off_c, 0, 60, 55
1, 271205, Note_off_c, 0, 64, 55
1, 271321, Note_on_c, 0, 84, 79
1, 271327, Note_off_c, 0, 81, 60
1, 271330, Control_c, 0, 64, 102
1, 271337, Note_on_c, 0, 57, 48
1, 271338, Note_on_c, 0, 64, 52
1, 271345, Control_c, 0, 64, 82
1, 271346, Note_on_c, 0, 60, 36
1, 271346, Note_on_c, 0, 66, 42
1, 271360, Control_c, 0, 64, 64
1, 271375, Control_c, 0, 64, 0
1, 271382, Note_off_c, 0, 66, 49
1, 271384, Note_off_c, 0, 57, 57
1, 271390, Control_c, 0, 64, 49
1, 271396, Note_off_c, 0, 64, 51
1, 271401, Note_off_c, 0, 60, 42
1, 271405, Control_c, 0, 64, 66
1, 271419, Control_c, 0, 64, 75
1, 271434, Control_c, 0, 64, 87
1, 271449, Control_c, 0, 64, 99
1, 271464, Control_c, 0, 64, 107
1, 271479, Control_c, 0, 64, 112
1, 271493, Control_c, 0, 64, 115
1, 271494, Note_off_c, 0, 84, 62
1, 271501, Note_on_c, 0, 81, 69
1, 271508, Control_c, 0, 64, 120
1, 271512, Note_on_c, 0, 57, 48
1, 271515, Note_on_c, 0, 66, 44
1, 271523, Control_c, 0, 64, 126
1, 271528, Note_on_c, 0, 60, 46
1, 271531, Note_on_c, 0, 64, 45
1, 271538, Control_c, 0, 64, 127
1, 271541, Note_off_c, 0, 66, 56
1, 271551, Note_off_c, 0, 57, 59
1, 271557, Note_off_c, 0, 64, 59
1, 271560, Note_off_c, 0, 60, 59
1, 271577, Note_on_c, 0, 78, 75
1, 271582, Note_off_c, 0, 81, 52
1, 271657, Note_off_c, 0, 78, 62
1, 271658, Note_on_c, 0, 76, 72
1, 271666, Note_on_c, 0, 57, 44
1, 271669, Note_on_c, 0, 64, 49
1, 271672, Note_on_c, 0, 60, 44
1, 271675, Note_on_c, 0, 66, 43
1, 271705, Note_off_c, 0, 66, 54
1, 271711, Note_off_c, 0, 57, 58
1, 271718, Note_off_c, 0, 60, 58
1, 271718, Note_off_c, 0, 64, 56
1, 271730, Note_off_c, 0, 76, 62
1, 271731, Note_on_c, 0, 72, 75
1, 271804, Note_off_c, 0, 72, 61
1, 271820, Control_c, 0, 64, 120
1, 271835, Control_c, 0, 64, 100
1, 271849, Note_on_c, 0, 57, 45
1, 271849, Control_c, 0, 64, 81
1, 271852, Note_on_c, 0, 71, 72
1, 271853, Note_on_c, 0, 64, 52
1, 271854, Note_on_c, 0, 60, 46
1, 271858, Note_on_c, 0, 66, 44
1, 271864, Control_c, 0, 64, 52
1, 271879, Control_c, 0, 64, 0
1, 271883, Note_off_c, 0, 66, 59
1, 271902, Note_off_c, 0, 57, 43
1, 271906, Note_off_c, 0, 64, 47
1, 271909, Control_c, 0, 64, 55
1, 271922, Note_off_c, 0, 60, 39
1, 271931, Control_c, 0, 64, 70
1, 271946, Control_c, 0, 64, 79
1, 271961, Control_c, 0, 64, 91
1, 271975, Control_c, 0, 64, 102
1, 271990, Control_c, 0, 64, 109
1, 272005, Control_c, 0, 64, 112
1, 272020, Control_c, 0, 64, 115
1, 272035, Control_c, 0, 64, 121
1, 272037, Note_on_c, 0, 66, 42
1, 272045, Note_on_c, 0, 57, 39
1, 272049, Control_c, 0, 64, 127
1, 272052, Note_on_c, 0, 64, 42
1, 272064, Note_off_c, 0, 66, 53
1, 272074, Note_on_c, 0, 60, 27
1, 272079, Note_off_c, 0, 64, 57
1, 272081, Note_off_c, 0, 57, 50
1, 272105, Note_off_c, 0, 60, 49
1, 272186, Note_on_c, 0, 57, 52
1, 272193, Note_on_c, 0, 69, 72
1, 272194, Note_on_c, 0, 64, 50
1, 272196, Note_off_c, 0, 71, 58
1, 272197, Note_on_c, 0, 66, 49
1, 272204, Note_on_c, 0, 60, 46
1, 272218, Note_off_c, 0, 69, 72
1, 272224, Note_off_c, 0, 64, 64
1, 272225, Note_off_c, 0, 66, 57
1, 272227, Note_off_c, 0, 57, 56
1, 272227, Note_off_c, 0, 60, 60
1, 272331, Control_c, 0, 64, 124
1, 272346, Control_c, 0, 64, 96
1, 272361, Control_c, 0, 64, 76
1, 272366, Note_on_c, 0, 83, 67
1, 272375, Control_c, 0, 64, 18
1, 272388, Note_on_c, 0, 59, 53
1, 272390, Control_c, 0, 64, 0
1, 272392, Note_on_c, 0, 69, 56
1, 272398, Note_on_c, 0, 66, 50
1, 272410, Note_on_c, 0, 63, 34
1, 272417, Note_off_c, 0, 69, 59
1, 272421, Control_c, 0, 64, 24
1, 272435, Note_off_c, 0, 59, 55
1, 272435, Note_off_c, 0, 66, 58
1, 272436, Control_c, 0, 64, 69
1, 272436, Note_off_c, 0, 83, 59
1, 272439, Note_off_c, 0, 63, 57
1, 272447, Note_on_c, 0, 81, 70
1, 272451, Control_c, 0, 64, 80
1, 272465, Control_c, 0, 64, 92
1, 272480, Control_c, 0, 64, 103
1, 272495, Control_c, 0, 64, 109
1, 272510, Control_c, 0, 64, 114
1, 272525, Control_c, 0, 64, 119
1, 272530, Note_off_c, 0, 81, 60
1, 272536, Note_on_c, 0, 78, 75
1, 272539, Note_on_c, 0, 63, 58
1, 272540, Control_c, 0, 64, 126
1, 272540, Note_on_c, 0, 66, 59
1, 272543, Note_on_c, 0, 59, 49
1, 272552, Note_on_c, 0, 69, 40
1, 272554, Control_c, 0, 64, 127
1, 272578, Note_off_c, 0, 66, 62
1, 272582, Note_off_c, 0, 63, 60
1, 272584, Note_off_c, 0, 69, 52
1, 272585, Note_off_c, 0, 59, 56
1, 272609, Note_off_c, 0, 78, 62
1, 272611, Note_on_c, 0, 75, 71
1, 272678, Note_off_c, 0, 75, 63
1, 272705, Note_on_c, 0, 69, 46
1, 272707, Note_on_c, 0, 72, 66
1, 272715, Note_on_c, 0, 59, 43
1, 272719, Note_on_c, 0, 66, 48
1, 272720, Note_on_c, 0, 63, 43
1, 272731, Note_off_c, 0, 69, 59
1, 272740, Note_off_c, 0, 66, 64
1, 272745, Note_off_c, 0, 63, 59
1, 272755, Note_off_c, 0, 59, 46
1, 272770, Note_off_c, 0, 72, 62
1, 272782, Note_on_c, 0, 71, 71
1, 272858, Control_c, 0, 64, 110
1, 272866, Note_off_c, 0, 71, 60
1, 272868, Note_on_c, 0, 70, 73
1, 272871, Note_on_c, 0, 59, 48
1, 272871, Note_on_c, 0, 66, 48
1, 272872, Control_c, 0, 64, 89
1, 272874, Note_on_c, 0, 69, 54
1, 272878, Note_on_c, 0, 63, 46
1, 272887, Control_c, 0, 64, 68
1, 272902, Control_c, 0, 64, 0
1, 272907, Note_off_c, 0, 69, 56
1, 272909, Note_off_c, 0, 70, 64
1, 272916, Note_off_c, 0, 63, 48
1, 272917, Note_off_c, 0, 66, 63
1, 272921, Note_off_c, 0, 59, 55
1, 272932, Control_c, 0, 64, 52
1, 272937, Note_on_c, 0, 71, 64
1, 272946, Control_c, 0, 64, 69
1, 272961, Control_c, 0, 64, 79
1, 272976, Control_c, 0, 64, 92
1, 272991, Control_c, 0, 64, 105
1, 273003, Note_off_c, 0, 71, 58
1, 273005, Control_c, 0, 64, 115
1, 273020, Control_c, 0, 64, 121
1, 273029, Note_on_c, 0, 75, 74
1, 273035, Control_c, 0, 64, 126
1, 273041, Note_on_c, 0, 59, 50
1, 273042, Note_on_c, 0, 63, 47
1, 273043, Note_on_c, 0, 69, 45
1, 273044, Note_on_c, 0, 66, 52
1, 273050, Control_c, 0, 64, 127
1, 273070, Note_off_c, 0, 69, 57
1, 273074, Note_off_c, 0, 66, 60
1, 273080, Note_off_c, 0, 63, 62
1, 273080, Note_off_c, 0, 75, 61
1, 273081, Note_off_c, 0, 59, 56
1, 273100, Note_on_c, 0, 71, 62
1, 273153, Note_off_c, 0, 71, 60
1, 273184, Note_on_c, 0, 78, 74
1, 273193, Note_on_c, 0, 69, 57
1, 273195, Note_on_c, 0, 66, 58
1, 273200, Note_on_c, 0, 59, 48
1, 273207, Note_on_c, 0, 63, 49
1, 273226, Note_off_c, 0, 69, 65
1, 273229, Note_off_c, 0, 78, 56
1, 273234, Note_off_c, 0, 66, 59
1, 273241, Note_off_c, 0, 63, 62
1, 273245, Note_off_c, 0, 59, 56
1, 273256, Note_on_c, 0, 71, 64
1, 273298, Note_off_c, 0, 71, 61
1, 273340, Note_on_c, 0, 83, 66
1, 273357, Note_on_c, 0, 69, 63
1, 273358, Note_on_c, 0, 59, 54
1, 273360, Note_on_c, 0, 66, 62
1, 273364, Note_on_c, 0, 63, 55
1, 273364, Note_off_c, 0, 83, 66
1, 273387, Note_off_c, 0, 69, 67
1, 273391, Note_off_c, 0, 59, 59
1, 273394, Note_off_c, 0, 66, 61
1, 273398, Note_on_c, 0, 71, 70
1, 273402, Note_off_c, 0, 63, 62
1, 273429, Note_off_c, 0, 71, 67
1, 273487, Note_on_c, 0, 87, 85
1, 273504, Note_off_c, 0, 87, 72
1, 273513, Note_on_c, 0, 66, 67
1, 273516, Note_on_c, 0, 69, 67
1, 273517, Note_on_c, 0, 59, 61
1, 273521, Note_on_c, 0, 63, 57
1, 273542, Note_off_c, 0, 69, 63
1, 273556, Note_on_c, 0, 71, 78
1, 273560, Note_off_c, 0, 66, 60
1, 273560, Note_off_c, 0, 59, 55
1, 273562, Note_off_c, 0, 63, 60
1, 273578, Note_off_c, 0, 71, 68
1, 273646, Note_on_c, 0, 90, 84
1, 273664, Note_off_c, 0, 90, 71
1, 273666, Note_on_c, 0, 69, 57
1, 273669, Note_on_c, 0, 59, 55
1, 273673, Note_on_c, 0, 63, 56
1, 273676, Note_on_c, 0, 66, 59
1, 273702, Note_off_c, 0, 69, 64
1, 273706, Note_off_c, 0, 59, 58
1, 273708, Note_off_c, 0, 66, 64
1, 273710, Note_off_c, 0, 63, 60
1, 273732, Note_on_c, 0, 71, 73
1, 273753, Note_off_c, 0, 71, 69
1, 273876, Note_on_c, 0, 93, 92
1, 273883, Note_on_c, 0, 69, 56
1, 273886, Note_on_c, 0, 59, 50
1, 273890, Note_on_c, 0, 66, 50
1, 273900, Note_on_c, 0, 63, 41
1, 273903, Note_off_c, 0, 69, 65
1, 273914, Note_off_c, 0, 59, 57
1, 273918, Note_off_c, 0, 66, 58
1, 273931, Note_off_c, 0, 63, 53
1, 273938, Note_off_c, 0, 93, 61
1, 274049, Note_on_c, 0, 63, 49
1, 274052, Note_on_c, 0, 69, 45
1, 274053, Note_on_c, 0, 66, 50
1, 274067, Note_on_c, 0, 59, 33
1, 274075, Note_off_c, 0, 69, 62
1, 274078, Note_off_c, 0, 66, 63
1, 274085, Note_off_c, 0, 63, 64
1, 274096, Note_off_c, 0, 59, 52
1, 274211, Note_on_c, 0, 71, 77
1, 274214, Note_on_c, 0, 59, 48
1, 274214, Note_on_c, 0, 69, 52
1, 274220, Note_on_c, 0, 66, 50
1, 274228, Note_on_c, 0, 63, 45
1, 274241, Note_off_c, 0, 69, 64
1, 274245, Note_off_c, 0, 66, 64
1, 274253, Note_off_c, 0, 63, 62
1, 274254, Note_off_c, 0, 59, 57
1, 274255, Note_off_c, 0, 71, 57
1, 274312, Control_c, 0, 64, 106
1, 274326, Control_c, 0, 64, 85
1, 274341, Control_c, 0, 64, 64
1, 274356, Control_c, 0, 64, 0
1, 274385, Note_on_c, 0, 83, 56
1, 274388, Note_on_c, 0, 59, 45
1, 274391, Note_on_c, 0, 66, 45
1, 274394, Note_on_c, 0, 69, 50
1, 274398, Note_on_c, 0, 63, 32
1, 274398, Note_on_c, 0, 84, 50
1, 274420, Note_off_c, 0, 69, 59
1, 274423, Note_off_c, 0, 84, 59
1, 274424, Note_off_c, 0, 66, 61
1, 274430, Note_off_c, 0, 63, 56
1, 274430, Control_c, 0, 64, 65
1, 274431, Note_off_c, 0, 59, 57
1, 274442, Note_off_c, 0, 83, 62
1, 274445, Control_c, 0, 64, 76
1, 274447, Note_on_c, 0, 81, 72
1, 274460, Control_c, 0, 64, 87
1, 274475, Control_c, 0, 64, 94
1, 274490, Control_c, 0, 64, 99
1, 274505, Control_c, 0, 64, 104
1, 274519, Control_c, 0, 64, 108
1, 274534, Control_c, 0, 64, 112
1, 274536, Note_on_c, 0, 78, 75
1, 274538, Note_off_c, 0, 81, 55
1, 274542, Note_on_c, 0, 66, 55
1, 274549, Note_on_c, 0, 69, 45
1, 274549, Control_c, 0, 64, 118
1, 274550, Note_on_c, 0, 63, 50
1, 274551, Note_on_c, 0, 59, 48
1, 274564, Control_c, 0, 64, 123
1, 274575, Note_off_c, 0, 69, 58
1, 274578, Control_c, 0, 64, 127
1, 274582, Note_off_c, 0, 66, 60
1, 274585, Note_off_c, 0, 59, 54
1, 274587, Note_off_c, 0, 63, 62
1, 274593, Control_c, 0, 64, 127
1, 274614, Note_off_c, 0, 78, 62
1, 274622, Note_on_c, 0, 76, 66
1, 274653, Note_off_c, 0, 76, 65
1, 274697, Note_on_c, 0, 72, 64
1, 274711, Note_on_c, 0, 69, 56
1, 274718, Note_on_c, 0, 59, 46
1, 274719, Note_on_c, 0, 66, 59
1, 274725, Note_on_c, 0, 63, 47
1, 274734, Note_off_c, 0, 72, 63
1, 274740, Note_off_c, 0, 69, 66
1, 274746, Note_off_c, 0, 66, 63
1, 274752, Note_off_c, 0, 63, 59
1, 274766, Note_off_c, 0, 59, 45
1, 274773, Note_on_c, 0, 71, 76
1, 274831, Control_c, 0, 64, 109
1, 274846, Control_c, 0, 64, 89
1, 274850, Note_off_c, 0, 71, 59
1, 274858, Note_on_c, 0, 70, 72
1, 274860, Control_c, 0, 64, 69
1, 274875, Control_c, 0, 64, 0
1, 274885, Note_on_c, 0, 59, 53
1, 274886, Note_on_c, 0, 69, 62
1, 274889, Note_on_c, 0, 66, 57
1, 274901, Note_on_c, 0, 63, 37
1, 274922, Note_off_c, 0, 70, 62
1, 274928, Control_c, 0, 64, 60
1, 274928, Note_off_c, 0, 69, 63
1, 274939, Note_off_c, 0, 63, 56
1, 274940, Note_off_c, 0, 66, 63
1, 274942, Control_c, 0, 64, 72
1, 274946, Note_on_c, 0, 71, 71
1, 274956, Note_off_c, 0, 59, 48
1, 274957, Control_c, 0, 64, 82
1, 274972, Control_c, 0, 64, 92
1, 274987, Control_c, 0, 64, 99
1, 275001, Control_c, 0, 64, 106
1, 275009, Note_off_c, 0, 71, 58
1, 275016, Control_c, 0, 64, 112
1, 275031, Control_c, 0, 64, 124
1, 275037, Note_on_c, 0, 75, 76
1, 275046, Note_on_c, 0, 69, 56
1, 275046, Control_c, 0, 64, 127
1, 275048, Note_on_c, 0, 63, 49
1, 275048, Note_on_c, 0, 66, 57
1, 275056, Note_on_c, 0, 59, 44
1, 275071, Note_off_c, 0, 69, 62
1, 275080, Note_off_c, 0, 66, 65
1, 275085, Note_off_c, 0, 63, 63
1, 275090, Note_off_c, 0, 59, 48
1, 275095, Note_off_c, 0, 75, 63
1, 275115, Note_on_c, 0, 71, 61
1, 275158, Note_off_c, 0, 71, 57
1, 275188, Note_on_c, 0, 78, 77
1, 275203, Note_on_c, 0, 69, 59
1, 275208, Note_on_c, 0, 59, 50
1, 275211, Note_on_c, 0, 66, 55
1, 275220, Note_on_c, 0, 63, 44
1, 275228, Note_off_c, 0, 78, 56
1, 275235, Note_off_c, 0, 69, 65
1, 275242, Note_off_c, 0, 66, 63
1, 275244, Note_off_c, 0, 63, 59
1, 275244, Note_off_c, 0, 59, 54
1, 275263, Note_on_c, 0, 71, 65
1, 275296, Note_off_c, 0, 71, 61
1, 275341, Note_on_c, 0, 83, 70
1, 275360, Note_on_c, 0, 69, 62
1, 275364, Note_off_c, 0, 83, 66
1, 275365, Note_on_c, 0, 66, 57
1, 275366, Note_on_c, 0, 59, 50
1, 275369, Note_on_c, 0, 63, 46
1, 275396, Note_off_c, 0, 69, 66
1, 275403, Note_off_c, 0, 66, 62
1, 275405, Note_off_c, 0, 59, 57
1, 275406, Note_on_c, 0, 71, 69
1, 275408, Note_off_c, 0, 63, 62
1, 275429, Note_off_c, 0, 71, 67
1, 275492, Note_on_c, 0, 87, 81
1, 275510, Note_off_c, 0, 87, 72
1, 275512, Note_on_c, 0, 69, 63
1, 275515, Note_on_c, 0, 59, 55
1, 275515, Note_on_c, 0, 66, 60
1, 275519, Note_on_c, 0, 63, 59
1, 275542, Note_off_c, 0, 69, 65
1, 275551, Note_on_c, 0, 85, 9
1, 275557, Note_off_c, 0, 59, 56
1, 275557, Note_off_c, 0, 63, 59
1, 275559, Note_off_c, 0, 66, 62
1, 275563, Note_on_c, 0, 71, 76
1, 275590, Note_off_c, 0, 71, 65
1, 275602, Note_off_c, 0, 85, 27
1, 275655, Note_on_c, 0, 90, 85
1, 275673, Note_on_c, 0, 69, 65
1, 275677, Note_on_c, 0, 66, 58
1, 275682, Note_on_c, 0, 59, 54
1, 275683, Note_off_c, 0, 90, 70
1, 275687, Note_on_c, 0, 63, 51
1, 275705, Note_off_c, 0, 69, 63
1, 275721, Note_off_c, 0, 66, 61
1, 275724, Note_off_c, 0, 63, 63
1, 275727, Note_off_c, 0, 59, 55
1, 275766, Note_on_c, 0, 69, 70
1, 275771, Note_on_c, 0, 71, 34
1, 275782, Note_off_c, 0, 69, 70
1, 275796, Note_off_c, 0, 71, 56
1, 275874, Note_on_c, 0, 69, 42
1, 275892, Note_on_c, 0, 66, 58
1, 275894, Note_on_c, 0, 59, 51
1, 275896, Note_on_c, 0, 93, 92
1, 275897, Note_on_c, 0, 63, 51
1, 275921, Note_off_c, 0, 69, 59
1, 275926, Note_off_c, 0, 63, 62
1, 275928, Note_off_c, 0, 66, 63
1, 275930, Note_off_c, 0, 59, 57
1, 275977, Note_off_c, 0, 93, 60
1, 276076, Note_on_c, 0, 69, 55
1, 276080, Note_on_c, 0, 59, 48
1, 276082, Note_on_c, 0, 66, 52
1, 276092, Note_on_c, 0, 63, 35
1, 276097, Note_off_c, 0, 69, 61
1, 276106, Note_off_c, 0, 66, 61
1, 276121, Note_off_c, 0, 59, 45
1, 276121, Note_off_c, 0, 63, 50
1, 276121, Control_c, 0, 64, 108
1, 276135, Control_c, 0, 64, 94
1, 276150, Control_c, 0, 64, 81
1, 276165, Control_c, 0, 64, 69
1, 276180, Control_c, 0, 64, 16
1, 276195, Control_c, 0, 64, 0
1, 276220, Note_on_c, 0, 66, 51
1, 276225, Note_on_c, 0, 69, 43
1, 276227, Note_on_c, 0, 71, 67
1, 276228, Note_on_c, 0, 59, 53
1, 276236, Note_on_c, 0, 63, 35
1, 276249, Note_off_c, 0, 69, 62
1, 276254, Note_off_c, 0, 71, 67
1, 276255, Note_off_c, 0, 66, 66
1, 276258, Note_off_c, 0, 59, 54
1, 276261, Note_off_c, 0, 63, 55
1, 276395, Note_on_c, 0, 64, 63
1, 276397, Note_on_c, 0, 83, 74
1, 276416, Note_on_c, 0, 79, 62
1, 276438, Note_off_c, 0, 79, 60
1, 276441, Note_off_c, 0, 64, 60
1, 276462, Note_off_c, 0, 83, 58
1, 276468, Note_on_c, 0, 84, 64
1, 276475, Note_on_c, 0, 63, 54
1, 276496, Note_on_c, 0, 81, 56
1, 276529, Note_off_c, 0, 84, 51
1, 276543, Note_on_c, 0, 64, 58
1, 276552, Note_off_c, 0, 81, 53
1, 276561, Note_on_c, 0, 79, 59
1, 276574, Note_on_c, 0, 83, 32
1, 276580, Note_off_c, 0, 79, 64
1, 276589, Note_off_c, 0, 63, 56
1, 276604, Note_off_c, 0, 83, 35
1, 276632, Note_off_c, 0, 64, 61
1, 276636, Note_on_c, 0, 66, 59
1, 276649, Note_on_c, 0, 78, 69
1, 276660, Note_on_c, 0, 81, 54
1, 276688, Note_off_c, 0, 81, 51
1, 276690, Note_off_c, 0, 78, 52
1, 276712, Note_off_c, 0, 66, 59
1, 276714, Note_on_c, 0, 67, 67
1, 276714, Note_on_c, 0, 79, 52
1, 276716, Note_on_c, 0, 76, 72
1, 276740, Note_off_c, 0, 76, 70
1, 276744, Note_off_c, 0, 67, 65
1, 276747, Note_off_c, 0, 79, 61
1, 276881, Note_on_c, 0, 79, 73
1, 276890, Note_on_c, 0, 67, 63
1, 276892, Note_on_c, 0, 76, 64
1, 276913, Note_off_c, 0, 76, 61
1, 276930, Note_off_c, 0, 79, 58
1, 276943, Note_off_c, 0, 67, 58
1, 276961, Note_on_c, 0, 78, 74
1, 276961, Note_on_c, 0, 66, 64
1, 276963, Note_on_c, 0, 81, 44
1, 276986, Note_off_c, 0, 81, 55
1, 277021, Note_off_c, 0, 78, 64
1, 277027, Note_on_c, 0, 67, 66
1, 277030, Note_off_c, 0, 66, 64
1, 277042, Note_on_c, 0, 76, 50
1, 277064, Note_off_c, 0, 76, 53
1, 277092, Note_off_c, 0, 67, 53
1, 277112, Note_on_c, 0, 78, 77
1, 277113, Note_on_c, 0, 69, 68
1, 277137, Note_off_c, 0, 78, 65
1, 277150, Note_off_c, 0, 69, 59
1, 277194, Note_on_c, 0, 76, 69
1, 277207, Note_on_c, 0, 67, 73
1, 277215, Note_on_c, 0, 71, 61
1, 277235, Note_off_c, 0, 67, 64
1, 277238, Note_off_c, 0, 71, 64
1, 277243, Note_off_c, 0, 76, 65
1, 277396, Note_on_c, 0, 76, 79
1, 277402, Note_on_c, 0, 72, 72
1, 277406, Note_on_c, 0, 69, 62
1, 277432, Note_off_c, 0, 72, 59
1, 277442, Note_off_c, 0, 69, 60
1, 277459, Note_on_c, 0, 77, 68
1, 277461, Note_off_c, 0, 76, 64
1, 277473, Note_on_c, 0, 68, 66
1, 277475, Note_on_c, 0, 74, 59
1, 277508, Note_off_c, 0, 68, 61
1, 277533, Note_off_c, 0, 77, 55
1, 277541, Note_off_c, 0, 74, 61
1, 277548, Note_on_c, 0, 72, 64
1, 277554, Note_on_c, 0, 69, 61
1, 277556, Note_on_c, 0, 76, 61
1, 277580, Note_off_c, 0, 72, 59
1, 277590, Note_off_c, 0, 69, 60
1, 277612, Note_off_c, 0, 76, 57
1, 277622, Note_on_c, 0, 77, 60
1, 277624, Note_on_c, 0, 68, 66
1, 277635, Note_on_c, 0, 74, 50
1, 277666, Note_off_c, 0, 74, 55
1, 277671, Note_off_c, 0, 68, 60
1, 277687, Note_off_c, 0, 77, 44
1, 277709, Note_on_c, 0, 72, 60
1, 277712, Note_on_c, 0, 69, 60
1, 277718, Note_on_c, 0, 76, 63
1, 277734, Note_off_c, 0, 72, 58
1, 277772, Note_off_c, 0, 76, 56
1, 277773, Note_off_c, 0, 69, 63
1, 277783, Note_on_c, 0, 68, 71
1, 277793, Note_on_c, 0, 77, 59
1, 277802, Note_on_c, 0, 74, 43
1, 277834, Note_off_c, 0, 74, 55
1, 277848, Note_off_c, 0, 77, 51
1, 277858, Note_off_c, 0, 68, 60
1, 277891, Note_on_c, 0, 76, 65
1, 277898, Note_on_c, 0, 72, 59
1, 277900, Note_on_c, 0, 69, 66
1, 277957, Note_off_c, 0, 69, 65
1, 277981, Control_c, 0, 64, 58
1, 277997, Control_c, 0, 64, 63
1, 278026, Control_c, 0, 64, 64
1, 278086, Control_c, 0, 64, 64
1, 278160, Control_c, 0, 64, 64
1, 278231, Note_on_c, 0, 64, 75
1, 278291, Note_off_c, 0, 64, 64
1, 278295, Note_on_c, 0, 62, 77
1, 278331, Note_off_c, 0, 76, 57
1, 278362, Note_off_c, 0, 72, 60
1, 278368, Note_on_c, 0, 60, 74
1, 278395, Note_off_c, 0, 62, 61
1, 278411, Control_c, 0, 64, 62
1, 278426, Control_c, 0, 64, 49
1, 278441, Control_c, 0, 64, 0
1, 278447, Note_on_c, 0, 59, 70
1, 278464, Note_off_c, 0, 60, 62
1, 278501, Note_off_c, 0, 59, 63
1, 278523, Note_on_c, 0, 76, 87
1, 278526, Note_on_c, 0, 72, 85
1, 278529, Control_c, 0, 64, 29
1, 278544, Note_on_c, 0, 60, 74
1, 278544, Control_c, 0, 64, 59
1, 278559, Control_c, 0, 64, 61
1, 278574, Control_c, 0, 64, 61
1, 278589, Control_c, 0, 64, 60
1, 278604, Control_c, 0, 64, 61
1, 278615, Note_on_c, 0, 59, 79
1, 278619, Control_c, 0, 64, 61
1, 278621, Note_off_c, 0, 60, 59
1, 278633, Control_c, 0, 64, 62
1, 278648, Control_c, 0, 64, 62
1, 278696, Note_on_c, 0, 57, 69
1, 278700, Control_c, 0, 64, 62
1, 278722, Note_off_c, 0, 59, 61
1, 278762, Note_on_c, 0, 56, 73
1, 278769, Note_off_c, 0, 72, 61
1, 278774, Control_c, 0, 64, 62
1, 278787, Note_off_c, 0, 57, 63
1, 278790, Control_c, 0, 64, 63
1, 278800, Note_off_c, 0, 76, 62
1, 278818, Note_off_c, 0, 56, 65
1, 278820, Control_c, 0, 64, 61
1, 278836, Control_c, 0, 64, 49
1, 278850, Control_c, 0, 64, 0
1, 278870, Note_on_c, 0, 57, 71
1, 278878, Note_on_c, 0, 76, 91
1, 278880, Note_on_c, 0, 72, 87
1, 278939, Control_c, 0, 64, 28
1, 278946, Note_on_c, 0, 55, 78
1, 278954, Control_c, 0, 64, 62
1, 278955, Note_off_c, 0, 57, 62
1, 278998, Control_c, 0, 64, 61
1, 279028, Control_c, 0, 64, 62
1, 279030, Note_on_c, 0, 53, 74
1, 279042, Control_c, 0, 64, 62
1, 279056, Note_off_c, 0, 55, 64
1, 279096, Note_on_c, 0, 52, 75
1, 279104, Note_off_c, 0, 72, 62
1, 279118, Note_off_c, 0, 53, 66
1, 279125, Note_off_c, 0, 76, 64
1, 279152, Note_off_c, 0, 52, 66
1, 279195, Note_on_c, 0, 53, 74
1, 279195, Note_on_c, 0, 76, 85
1, 279199, Note_on_c, 0, 72, 88
1, 279235, Control_c, 0, 64, 63
1, 279269, Note_on_c, 0, 52, 81
1, 279276, Note_off_c, 0, 53, 65
1, 279295, Control_c, 0, 64, 63
1, 279324, Control_c, 0, 64, 64
1, 279339, Control_c, 0, 64, 64
1, 279345, Note_on_c, 0, 50, 70
1, 279380, Note_off_c, 0, 52, 65
1, 279426, Note_on_c, 0, 48, 74
1, 279435, Control_c, 0, 64, 63
1, 279450, Control_c, 0, 64, 52
1, 279453, Note_off_c, 0, 72, 61
1, 279453, Note_off_c, 0, 50, 63
1, 279465, Control_c, 0, 64, 0
1, 279474, Note_off_c, 0, 76, 65
1, 279482, Note_off_c, 0, 48, 66
1, 279526, Note_on_c, 0, 50, 74
1, 279533, Note_on_c, 0, 76, 85
1, 279537, Note_on_c, 0, 72, 87
1, 279539, Control_c, 0, 64, 29
1, 279554, Control_c, 0, 64, 55
1, 279568, Control_c, 0, 64, 60
1, 279599, Control_c, 0, 64, 60
1, 279606, Note_on_c, 0, 48, 78
1, 279622, Note_off_c, 0, 50, 62
1, 279674, Note_on_c, 0, 47, 65
1, 279689, Note_off_c, 0, 76, 65
1, 279703, Control_c, 0, 64, 60
1, 279715, Note_off_c, 0, 48, 64
1, 279723, Note_off_c, 0, 72, 63
1, 279748, Note_on_c, 0, 45, 70
1, 279775, Note_off_c, 0, 47, 64
1, 279777, Control_c, 0, 64, 60
1, 279788, Note_off_c, 0, 45, 66
1, 279806, Control_c, 0, 64, 59
1, 279821, Control_c, 0, 64, 58
1, 279836, Control_c, 0, 64, 48
1, 279851, Control_c, 0, 64, 0
1, 279880, Control_c, 0, 67, 8
1, 279885, Note_on_c, 0, 74, 82
1, 279886, Note_on_c, 0, 72, 91
1, 279888, Note_on_c, 0, 42, 88
1, 279888, Note_on_c, 0, 69, 100
1, 279910, Control_c, 0, 67, 8
1, 279925, Control_c, 0, 67, 8
1, 279954, Control_c, 0, 67, 0
1, 279969, Control_c, 0, 64, 65
1, 279984, Control_c, 0, 64, 75
1, 279999, Control_c, 0, 64, 89
1, 280014, Control_c, 0, 64, 100
1, 280028, Control_c, 0, 64, 108
1, 280043, Control_c, 0, 64, 113
1, 280058, Control_c, 0, 64, 117
1, 280073, Control_c, 0, 64, 123
1, 280088, Control_c, 0, 64, 127
1, 280099, Note_off_c, 0, 42, 63
1, 280213, Note_off_c, 0, 69, 52
1, 280430, Note_off_c, 0, 74, 53
1, 280444, Note_off_c, 0, 72, 58
1, 280455, Note_on_c, 0, 76, 60
1, 280456, Note_on_c, 0, 43, 69
1, 280460, Note_on_c, 0, 31, 63
1, 280463, Note_on_c, 0, 67, 57
1, 280477, Note_off_c, 0, 76, 63
1, 280481, Control_c, 0, 64, 108
1, 280485, Note_off_c, 0, 67, 60
1, 280492, Note_off_c, 0, 31, 63
1, 280494, Note_off_c, 0, 43, 56
1, 280496, Control_c, 0, 64, 93
1, 280511, Control_c, 0, 64, 79
1, 280526, Control_c, 0, 64, 68
1, 280541, Control_c, 0, 64, 58
1, 280555, Control_c, 0, 64, 52
1, 280570, Control_c, 0, 64, 53
1, 280600, Control_c, 0, 64, 52
1, 280614, Control_c, 0, 64, 52
1, 280622, Note_on_c, 0, 59, 58
1, 280629, Control_c, 0, 64, 51
1, 280632, Note_on_c, 0, 47, 66
1, 280669, Note_off_c, 0, 59, 57
1, 280688, Control_c, 0, 64, 50
1, 280692, Note_on_c, 0, 60, 57
1, 280703, Control_c, 0, 64, 49
1, 280713, Note_off_c, 0, 60, 60
1, 280714, Note_on_c, 0, 48, 61
1, 280716, Note_off_c, 0, 47, 61
1, 280732, Control_c, 0, 64, 48
1, 280765, Note_off_c, 0, 48, 65
1, 280780, Note_on_c, 0, 51, 65
1, 280787, Note_on_c, 0, 63, 74
1, 280792, Control_c, 0, 64, 49
1, 280820, Note_off_c, 0, 63, 62
1, 280834, Note_off_c, 0, 51, 59
1, 280851, Control_c, 0, 64, 50
1, 280861, Note_on_c, 0, 52, 61
1, 280865, Note_on_c, 0, 64, 54
1, 280881, Control_c, 0, 64, 49
1, 280885, Note_off_c, 0, 52, 66
1, 280885, Note_off_c, 0, 64, 58
1, 280918, Control_c, 0, 64, 48
1, 280944, Note_on_c, 0, 54, 72
1, 280958, Note_on_c, 0, 66, 73
1, 280977, Control_c, 0, 64, 49
1, 280988, Note_off_c, 0, 66, 64
1, 280992, Control_c, 0, 64, 49
1, 280997, Note_off_c, 0, 54, 58
1, 281024, Note_on_c, 0, 55, 70
1, 281026, Note_on_c, 0, 67, 64
1, 281036, Control_c, 0, 64, 49
1, 281047, Note_off_c, 0, 67, 65
1, 281051, Control_c, 0, 64, 47
1, 281054, Note_off_c, 0, 55, 67
1, 281066, Control_c, 0, 64, 46
1, 281080, Control_c, 0, 64, 44
1, 281094, Control_c, 0, 64, 43
1, 281115, Note_on_c, 0, 71, 79
1, 281116, Note_on_c, 0, 59, 70
1, 281148, Note_off_c, 0, 71, 58
1, 281168, Control_c, 0, 64, 43
1, 281185, Note_on_c, 0, 60, 66
1, 281188, Note_on_c, 0, 72, 60
1, 281194, Note_off_c, 0, 59, 57
1, 281199, Control_c, 0, 64, 43
1, 281206, Note_off_c, 0, 72, 64
1, 281214, Control_c, 0, 64, 42
1, 281229, Control_c, 0, 64, 41
1, 281239, Note_off_c, 0, 60, 59
1, 281243, Control_c, 0, 64, 40
1, 281256, Note_on_c, 0, 63, 76
1, 281269, Note_on_c, 0, 75, 69
1, 281288, Control_c, 0, 64, 41
1, 281293, Note_off_c, 0, 75, 64
1, 281302, Note_off_c, 0, 63, 62
1, 281346, Note_on_c, 0, 64, 66
1, 281347, Control_c, 0, 64, 36
1, 281351, Note_on_c, 0, 77, 56
1, 281361, Control_c, 0, 64, 28
1, 281370, Note_off_c, 0, 77, 56
1, 281376, Note_off_c, 0, 64, 66
1, 281376, Control_c, 0, 64, 21
1, 281391, Control_c, 0, 64, 16
1, 281406, Control_c, 0, 64, 13
1, 281424, Note_on_c, 0, 66, 75
1, 281435, Control_c, 0, 64, 18
1, 281438, Note_on_c, 0, 78, 79
1, 281450, Control_c, 0, 64, 21
1, 281466, Note_off_c, 0, 78, 63
1, 281480, Control_c, 0, 64, 23
1, 281487, Note_off_c, 0, 66, 63
1, 281495, Control_c, 0, 64, 24
1, 281510, Control_c, 0, 64, 25
1, 281514, Note_on_c, 0, 67, 83
1, 281515, Note_on_c, 0, 79, 81
1, 281540, Control_c, 0, 64, 23
1, 281554, Control_c, 0, 64, 18
1, 281569, Control_c, 0, 64, 16
1, 281584, Control_c, 0, 64, 13
1, 281628, Control_c, 0, 64, 16
1, 281643, Control_c, 0, 64, 20
1, 281667, Note_off_c, 0, 67, 59
1, 281695, Control_c, 0, 64, 13
1, 281701, Note_off_c, 0, 79, 61
1, 281710, Control_c, 0, 64, 0
1, 282151, Note_on_c, 0, 62, 43
1, 282151, Note_on_c, 0, 71, 54
1, 282159, Note_on_c, 0, 67, 41
1, 282161, Note_on_c, 0, 65, 44
1, 282167, Note_on_c, 0, 55, 39
1, 282172, Note_on_c, 0, 43, 39
1, 282280, Note_off_c, 0, 55, 59
1, 282290, Note_off_c, 0, 62, 62
1, 282294, Note_off_c, 0, 71, 61
1, 282297, Note_off_c, 0, 65, 65
1, 282299, Note_off_c, 0, 43, 55
1, 282307, Note_off_c, 0, 67, 63
1, 282717, Note_on_c, 0, 72, 83
1, 282718, Note_on_c, 0, 48, 82
1, 282718, Note_on_c, 0, 60, 88
1, 282720, Note_on_c, 0, 36, 73
1, 282723, Note_on_c, 0, 64, 78
1, 282723, Note_on_c, 0, 67, 81
1, 282748, Note_off_c, 0, 36, 64
1, 282752, Note_off_c, 0, 48, 66
1, 282764, Note_off_c, 0, 60, 61
1, 282771, Control_c, 0, 64, 66
1, 282785, Note_off_c, 0, 64, 64
1, 282786, Control_c, 0, 64, 84
1, 282793, Note_off_c, 0, 67, 63
1, 282801, Control_c, 0, 64, 109
1, 282814, Note_off_c, 0, 72, 65
1, 282816, Control_c, 0, 64, 127
1, 282906, Note_on_c, 0, 60, 70
1, 282910, Note_on_c, 0, 48, 66
1, 282913, Note_on_c, 0, 52, 57
1, 282915, Note_on_c, 0, 55, 55
1, 282924, Note_off_c, 0, 60, 64
1, 282947, Note_off_c, 0, 48, 60
1, 282954, Note_off_c, 0, 52, 63
1, 282958, Note_off_c, 0, 55, 48
1, 283066, Note_on_c, 0, 78, 79
1, 283071, Note_on_c, 0, 60, 67
1, 283072, Note_on_c, 0, 55, 58
1, 283073, Note_on_c, 0, 52, 56
1, 283078, Note_on_c, 0, 48, 56
1, 283103, Note_off_c, 0, 60, 62
1, 283108, Note_off_c, 0, 52, 61
1, 283110, Note_off_c, 0, 48, 66
1, 283114, Note_off_c, 0, 55, 57
1, 283116, Note_off_c, 0, 78, 61
1, 283132, Note_on_c, 0, 87, 75
1, 283172, Note_off_c, 0, 87, 60
1, 283237, Note_on_c, 0, 88, 103
1, 283242, Note_on_c, 0, 79, 89
1, 283248, Note_on_c, 0, 52, 63
1, 283248, Note_on_c, 0, 60, 66
1, 283250, Note_on_c, 0, 48, 65
1, 283251, Note_on_c, 0, 55, 59
1, 283279, Note_off_c, 0, 60, 63
1, 283280, Note_off_c, 0, 88, 64
1, 283282, Note_off_c, 0, 79, 64
1, 283291, Note_off_c, 0, 48, 63
1, 283293, Note_off_c, 0, 52, 61
1, 283298, Note_off_c, 0, 55, 60
1, 283415, Note_on_c, 0, 75, 77
1, 283416, Note_on_c, 0, 52, 56
1, 283421, Note_on_c, 0, 60, 58
1, 283424, Note_on_c, 0, 55, 48
1, 283432, Note_on_c, 0, 48, 48
1, 283436, Note_off_c, 0, 60, 68
1, 283456, Note_off_c, 0, 52, 54
1, 283460, Note_off_c, 0, 75, 61
1, 283461, Note_off_c, 0, 48, 59
1, 283463, Note_on_c, 0, 83, 78
1, 283464, Note_off_c, 0, 55, 62
1, 283511, Note_off_c, 0, 83, 62
1, 283563, Note_on_c, 0, 84, 93
1, 283566, Note_on_c, 0, 60, 40
1, 283568, Note_on_c, 0, 76, 84
1, 283576, Note_on_c, 0, 48, 54
1, 283576, Note_on_c, 0, 55, 61
1, 283582, Note_on_c, 0, 52, 62
1, 283600, Note_off_c, 0, 60, 61
1, 283603, Note_off_c, 0, 76, 65
1, 283607, Note_off_c, 0, 84, 64
1, 283612, Note_off_c, 0, 52, 67
1, 283615, Note_off_c, 0, 48, 65
1, 283617, Note_off_c, 0, 55, 62
1, 283727, Control_c, 0, 64, 114
1, 283739, Note_on_c, 0, 75, 92
1, 283742, Control_c, 0, 64, 87
1, 283745, Note_on_c, 0, 60, 66
1, 283749, Note_on_c, 0, 55, 54
1, 283753, Note_on_c, 0, 48, 60
1, 283753, Note_on_c, 0, 52, 55
1, 283756, Control_c, 0, 64, 65
1, 283771, Control_c, 0, 64, 0
1, 283784, Note_off_c, 0, 60, 55
1, 283786, Note_off_c, 0, 75, 64
1, 283786, Control_c, 0, 64, 25
1, 283795, Note_on_c, 0, 78, 75
1, 283801, Note_off_c, 0, 48, 61
1, 283801, Control_c, 0, 64, 65
1, 283805, Note_off_c, 0, 55, 59
1, 283810, Note_off_c, 0, 52, 62
1, 283816, Control_c, 0, 64, 77
1, 283830, Control_c, 0, 64, 94
1, 283845, Control_c, 0, 64, 111
1, 283860, Control_c, 0, 64, 127
1, 283873, Note_on_c, 0, 80, 76
1, 283889, Note_off_c, 0, 78, 37
1, 283893, Note_on_c, 0, 76, 74
1, 283910, Note_on_c, 0, 60, 65
1, 283913, Note_on_c, 0, 55, 66
1, 283916, Note_on_c, 0, 48, 56
1, 283929, Note_off_c, 0, 76, 66
1, 283930, Note_on_c, 0, 52, 57
1, 283934, Note_off_c, 0, 80, 65
1, 283940, Note_off_c, 0, 60, 65
1, 283956, Note_off_c, 0, 55, 58
1, 283957, Note_off_c, 0, 48, 54
1, 283963, Note_off_c, 0, 52, 66
1, 284069, Note_on_c, 0, 66, 85
1, 284079, Note_on_c, 0, 48, 59
1, 284080, Note_on_c, 0, 60, 65
1, 284082, Note_on_c, 0, 55, 56
1, 284083, Note_on_c, 0, 52, 53
1, 284112, Note_off_c, 0, 48, 61
1, 284112, Note_off_c, 0, 60, 61
1, 284117, Note_off_c, 0, 55, 59
1, 284121, Note_off_c, 0, 66, 61
1, 284127, Note_off_c, 0, 52, 62
1, 284134, Note_on_c, 0, 75, 73
1, 284163, Note_off_c, 0, 75, 65
1, 284193, Control_c, 0, 64, 97
1, 284208, Control_c, 0, 64, 71
1, 284223, Control_c, 0, 64, 0
1, 284226, Note_on_c, 0, 76, 85
1, 284228, Note_on_c, 0, 67, 76
1, 284231, Note_on_c, 0, 60, 65
1, 284235, Note_on_c, 0, 48, 56
1, 284237, Note_on_c, 0, 52, 58
1, 284238, Note_on_c, 0, 55, 58
1, 284252, Control_c, 0, 64, 64
1, 284267, Note_off_c, 0, 60, 49
1, 284267, Control_c, 0, 64, 76
1, 284276, Note_off_c, 0, 67, 62
1, 284280, Note_off_c, 0, 76, 66
1, 284282, Control_c, 0, 64, 91
1, 284292, Note_off_c, 0, 52, 59
1, 284292, Note_off_c, 0, 55, 55
1, 284294, Note_off_c, 0, 48, 59
1, 284297, Control_c, 0, 64, 105
1, 284312, Control_c, 0, 64, 113
1, 284327, Control_c, 0, 64, 117
1, 284342, Control_c, 0, 64, 122
1, 284356, Control_c, 0, 64, 127
1, 284407, Note_on_c, 0, 63, 77
1, 284408, Note_on_c, 0, 60, 64
1, 284413, Note_on_c, 0, 55, 60
1, 284417, Note_on_c, 0, 48, 53
1, 284420, Note_on_c, 0, 52, 59
1, 284439, Note_off_c, 0, 60, 63
1, 284447, Note_off_c, 0, 63, 64
1, 284453, Note_off_c, 0, 48, 53
1, 284453, Note_off_c, 0, 52, 64
1, 284454, Note_off_c, 0, 55, 59
1, 284461, Note_on_c, 0, 71, 73
1, 284511, Note_off_c, 0, 71, 58
1, 284544, Note_on_c, 0, 60, 55
1, 284547, Note_on_c, 0, 72, 89
1, 284554, Note_on_c, 0, 55, 60
1, 284556, Note_on_c, 0, 64, 79
1, 284561, Note_on_c, 0, 48, 57
1, 284565, Note_on_c, 0, 52, 54
1, 284565, Note_off_c, 0, 60, 64
1, 284581, Note_off_c, 0, 64, 66
1, 284582, Note_off_c, 0, 55, 67
1, 284597, Note_off_c, 0, 52, 68
1, 284597, Note_off_c, 0, 72, 64
1, 284607, Note_off_c, 0, 48, 66
1, 284691, Control_c, 0, 64, 115
1, 284706, Control_c, 0, 64, 88
1, 284720, Control_c, 0, 64, 63
1, 284735, Control_c, 0, 64, 0
1, 284753, Note_on_c, 0, 71, 83
1, 284753, Note_on_c, 0, 62, 87
1, 284756, Note_on_c, 0, 43, 62
1, 284756, Note_on_c, 0, 53, 56
1, 284762, Note_on_c, 0, 50, 55
1, 284793, Note_off_c, 0, 53, 64
1, 284794, Control_c, 0, 64, 72
1, 284806, Note_off_c, 0, 50, 61
1, 284808, Note_off_c, 0, 43, 58
1, 284809, Control_c, 0, 64, 86
1, 284817, Note_off_c, 0, 71, 54
1, 284824, Control_c, 0, 64, 108
1, 284839, Control_c, 0, 64, 127
1, 284846, Note_off_c, 0, 62, 58
1, 284926, Note_on_c, 0, 43, 52
1, 284926, Note_on_c, 0, 50, 51
1, 284926, Note_on_c, 0, 53, 54
1, 284949, Note_off_c, 0, 53, 62
1, 284955, Note_off_c, 0, 50, 58
1, 284962, Note_off_c, 0, 43, 57
1, 285007, Note_on_c, 0, 65, 68
1, 285050, Note_off_c, 0, 65, 63
1, 285052, Note_on_c, 0, 62, 69
1, 285060, Note_on_c, 0, 53, 54
1, 285062, Note_on_c, 0, 43, 54
1, 285063, Note_on_c, 0, 50, 57
1, 285081, Note_off_c, 0, 62, 64
1, 285102, Note_off_c, 0, 53, 59
1, 285104, Note_on_c, 0, 59, 64
1, 285117, Note_off_c, 0, 43, 58
1, 285124, Note_off_c, 0, 59, 64
1, 285135, Note_off_c, 0, 50, 52
1, 285166, Note_on_c, 0, 56, 73
1, 285211, Note_on_c, 0, 55, 86
1, 285222, Note_off_c, 0, 56, 64
1, 285229, Note_on_c, 0, 43, 62
1, 285229, Note_on_c, 0, 53, 63
1, 285237, Note_on_c, 0, 50, 57
1, 285255, Note_off_c, 0, 55, 65
1, 285260, Note_off_c, 0, 53, 66
1, 285271, Note_off_c, 0, 50, 63
1, 285278, Note_off_c, 0, 43, 54
1, 285371, Note_on_c, 0, 77, 77
1, 285411, Note_on_c, 0, 43, 44
1, 285412, Note_on_c, 0, 50, 53
1, 285417, Note_on_c, 0, 53, 49
1, 285420, Note_on_c, 0, 74, 64
1, 285423, Note_off_c, 0, 77, 60
1, 285445, Note_off_c, 0, 53, 59
1, 285450, Note_off_c, 0, 74, 68
1, 285458, Note_off_c, 0, 50, 58
1, 285460, Note_on_c, 0, 71, 68
1, 285464, Note_off_c, 0, 43, 56
1, 285483, Note_off_c, 0, 71, 64
1, 285527, Note_on_c, 0, 68, 54
1, 285528, Note_off_c, 0, 68, 127
1, 285544, Note_on_c, 0, 67, 81
1, 285560, Poly_aftertouch_c, 0, 68, 0
1, 285564, Note_on_c, 0, 53, 62
1, 285567, Note_on_c, 0, 43, 59
1, 285570, Note_on_c, 0, 50, 64
1, 285594, Note_off_c, 0, 53, 67
1, 285603, Note_off_c, 0, 67, 63
1, 285606, Note_off_c, 0, 50, 60
1, 285614, Note_off_c, 0, 43, 51
1, 285704, Note_on_c, 0, 89, 86
1, 285738, Note_on_c, 0, 43, 56
1, 285749, Note_on_c, 0, 86, 68
1, 285752, Note_off_c, 0, 89, 65
1, 285754, Note_on_c, 0, 50, 51
1, 285761, Note_on_c, 0, 53, 41
1, 285788, Note_off_c, 0, 53, 57
1, 285792, Note_off_c, 0, 86, 64
1, 285794, Note_off_c, 0, 43, 55
1, 285800, Note_on_c, 0, 83, 67
1, 285824, Note_off_c, 0, 83, 64
1, 285848, Note_off_c, 0, 50, 38
1, 285853, Note_on_c, 0, 80, 76
1, 285892, Note_on_c, 0, 79, 90
1, 285904, Note_off_c, 0, 80, 63
1, 285907, Note_on_c, 0, 53, 70
1, 285909, Note_on_c, 0, 50, 51
1, 285913, Note_on_c, 0, 43, 63
1, 285936, Note_off_c, 0, 53, 66
1, 285942, Note_off_c, 0, 79, 64
1, 285952, Note_off_c, 0, 50, 60
1, 285963, Note_off_c, 0, 43, 55
1, 286059, Note_on_c, 0, 77, 55
1, 286068, Note_on_c, 0, 76, 52
1, 286082, Note_on_c, 0, 43, 55
1, 286084, Note_on_c, 0, 74, 68
1, 286084, Note_off_c, 0, 77, 61
1, 286089, Note_off_c, 0, 76, 61
1, 286095, Note_on_c, 0, 50, 51
1, 286095, Note_on_c, 0, 53, 50
1, 286109, Note_off_c, 0, 74, 66
1, 286117, Note_off_c, 0, 53, 61
1, 286123, Note_off_c, 0, 43, 57
1, 286131, Note_on_c, 0, 71, 63
1, 286141, Note_off_c, 0, 50, 58
1, 286167, Note_off_c, 0, 71, 51
1, 286196, Note_on_c, 0, 68, 66
1, 286234, Note_off_c, 0, 68, 59
1, 286235, Note_on_c, 0, 53, 64
1, 286235, Note_on_c, 0, 67, 91
1, 286244, Note_on_c, 0, 43, 60
1, 286245, Note_on_c, 0, 50, 67
1, 286261, Note_off_c, 0, 53, 68
1, 286273, Note_off_c, 0, 50, 66
1, 286279, Note_off_c, 0, 43, 60
1, 286281, Note_off_c, 0, 67, 65
1, 286322, Control_c, 0, 64, 96
1, 286337, Control_c, 0, 64, 73
1, 286351, Control_c, 0, 64, 0
1, 286425, Note_on_c, 0, 79, 86
1, 286426, Note_on_c, 0, 67, 88
1, 286426, Note_on_c, 0, 74, 73
1, 286435, Note_on_c, 0, 71, 68
1, 286437, Note_on_c, 0, 50, 51
1, 286440, Note_on_c, 0, 53, 67
1, 286443, Note_on_c, 0, 43, 60
1, 286455, Control_c, 0, 64, 57
1, 286466, Note_off_c, 0, 53, 67
1, 286470, Control_c, 0, 64, 73
1, 286482, Note_off_c, 0, 50, 61
1, 286485, Control_c, 0, 64, 87
1, 286495, Note_off_c, 0, 43, 55
1, 286500, Control_c, 0, 64, 107
1, 286515, Control_c, 0, 64, 117
1, 286530, Control_c, 0, 64, 119
1, 286545, Control_c, 0, 64, 121
1, 286548, Note_off_c, 0, 71, 55
1, 286559, Control_c, 0, 64, 124
1, 286574, Control_c, 0, 64, 127
1, 286604, Note_on_c, 0, 43, 58
1, 286607, Note_on_c, 0, 50, 65
1, 286614, Note_on_c, 0, 53, 50
1, 286633, Note_off_c, 0, 43, 63
1, 286637, Note_off_c, 0, 50, 66
1, 286646, Note_off_c, 0, 53, 50
1, 286723, Note_off_c, 0, 74, 58
1, 286751, Control_c, 0, 64, 107
1, 286766, Control_c, 0, 64, 85
1, 286782, Control_c, 0, 64, 60
1, 286792, Note_on_c, 0, 72, 62
1, 286794, Note_on_c, 0, 76, 67
1, 286797, Control_c, 0, 64, 0
1, 286798, Note_off_c, 0, 67, 57
1, 286803, Note_on_c, 0, 60, 56
1, 286804, Note_on_c, 0, 52, 52
1, 286806, Note_on_c, 0, 55, 46
1, 286814, Note_on_c, 0, 48, 44
1, 286830, Note_off_c, 0, 60, 53
1, 286839, Note_off_c, 0, 79, 35
1, 286840, Note_off_c, 0, 72, 65
1, 286846, Note_off_c, 0, 48, 57
1, 286849, Note_off_c, 0, 55, 58
1, 286852, Note_off_c, 0, 52, 62
1, 286864, Note_off_c, 0, 76, 66
1, 286871, Control_c, 0, 64, 68
1, 286886, Control_c, 0, 64, 83
1, 286908, Control_c, 0, 64, 98
1, 286923, Control_c, 0, 64, 112
1, 286938, Control_c, 0, 64, 127
1, 286973, Note_on_c, 0, 55, 62
1, 286977, Note_on_c, 0, 60, 52
1, 286980, Note_on_c, 0, 48, 45
1, 286983, Note_on_c, 0, 52, 56
1, 286998, Note_off_c, 0, 60, 60
1, 287007, Note_off_c, 0, 55, 62
1, 287016, Note_off_c, 0, 52, 67
1, 287022, Note_off_c, 0, 48, 61
1, 287111, Note_on_c, 0, 78, 76
1, 287128, Note_on_c, 0, 60, 45
1, 287133, Note_on_c, 0, 52, 51
1, 287134, Note_on_c, 0, 48, 52
1, 287140, Note_on_c, 0, 55, 47
1, 287152, Note_off_c, 0, 60, 60
1, 287163, Note_off_c, 0, 78, 58
1, 287170, Note_off_c, 0, 55, 62
1, 287171, Note_off_c, 0, 52, 65
1, 287175, Note_off_c, 0, 48, 63
1, 287178, Note_on_c, 0, 87, 71
1, 287213, Note_off_c, 0, 87, 60
1, 287248, Control_c, 0, 64, 96
1, 287263, Control_c, 0, 64, 73
1, 287278, Control_c, 0, 64, 0
1, 287284, Note_on_c, 0, 88, 100
1, 287289, Note_on_c, 0, 79, 90
1, 287297, Note_on_c, 0, 55, 50
1, 287299, Note_on_c, 0, 48, 54
1, 287299, Note_on_c, 0, 60, 58
1, 287305, Note_on_c, 0, 52, 49
1, 287307, Control_c, 0, 64, 34
1, 287322, Control_c, 0, 64, 69
1, 287329, Note_off_c, 0, 60, 60
1, 287335, Note_off_c, 0, 79, 62
1, 287336, Note_off_c, 0, 88, 61
1, 287337, Control_c, 0, 64, 80
1, 287341, Note_off_c, 0, 52, 65
1, 287341, Note_off_c, 0, 55, 60
1, 287343, Note_off_c, 0, 48, 60
1, 287352, Control_c, 0, 64, 94
1, 287367, Control_c, 0, 64, 110
1, 287381, Control_c, 0, 64, 126
1, 287396, Control_c, 0, 64, 127
1, 287466, Note_on_c, 0, 75, 75
1, 287468, Note_on_c, 0, 52, 49
1, 287468, Note_on_c, 0, 55, 51
1, 287469, Note_on_c, 0, 60, 48
1, 287469, Note_on_c, 0, 48, 49
1, 287494, Note_off_c, 0, 60, 56
1, 287507, Note_off_c, 0, 48, 60
1, 287507, Note_off_c, 0, 75, 60
1, 287509, Note_off_c, 0, 52, 63
1, 287510, Note_off_c, 0, 55, 61
1, 287521, Note_on_c, 0, 83, 76
1, 287567, Note_off_c, 0, 83, 61
1, 287613, Note_on_c, 0, 84, 87
1, 287616, Note_on_c, 0, 76, 85
1, 287627, Note_on_c, 0, 60, 54
1, 287629, Note_on_c, 0, 48, 52
1, 287629, Note_on_c, 0, 55, 53
1, 287633, Note_on_c, 0, 52, 52
1, 287660, Note_off_c, 0, 76, 65
1, 287663, Note_off_c, 0, 60, 63
1, 287663, Note_off_c, 0, 84, 64
1, 287674, Note_off_c, 0, 55, 62
1, 287675, Note_off_c, 0, 52, 65
1, 287680, Note_off_c, 0, 48, 61
1, 287797, Note_on_c, 0, 75, 87
1, 287806, Note_on_c, 0, 48, 55
1, 287806, Note_on_c, 0, 60, 57
1, 287813, Note_on_c, 0, 52, 51
1, 287814, Note_on_c, 0, 55, 54
1, 287837, Note_off_c, 0, 60, 52
1, 287845, Note_off_c, 0, 75, 63
1, 287856, Note_off_c, 0, 52, 61
1, 287857, Note_off_c, 0, 55, 59
1, 287858, Note_on_c, 0, 78, 73
1, 287861, Note_off_c, 0, 48, 59
1, 287914, Note_off_c, 0, 78, 61
1, 287952, Note_on_c, 0, 76, 79
1, 287952, Note_on_c, 0, 79, 75
1, 287962, Note_on_c, 0, 60, 62
1, 287967, Note_on_c, 0, 55, 60
1, 287968, Note_on_c, 0, 52, 56
1, 287976, Note_on_c, 0, 48, 58
1, 287990, Note_off_c, 0, 76, 64
1, 287990, Note_off_c, 0, 79, 60
1, 287994, Note_off_c, 0, 60, 64
1, 288002, Note_off_c, 0, 55, 61
1, 288006, Note_off_c, 0, 52, 62
1, 288013, Note_off_c, 0, 48, 61
1, 288124, Note_on_c, 0, 66, 80
1, 288134, Note_on_c, 0, 48, 50
1, 288134, Note_on_c, 0, 52, 46
1, 288147, Note_on_c, 0, 60, 36
1, 288151, Note_on_c, 0, 55, 42
1, 288179, Note_off_c, 0, 60, 46
1, 288181, Note_off_c, 0, 66, 58
1, 288183, Note_off_c, 0, 52, 57
1, 288188, Note_off_c, 0, 55, 56
1, 288190, Note_on_c, 0, 75, 69
1, 288190, Note_off_c, 0, 48, 55
1, 288214, Note_off_c, 0, 75, 58
1, 288290, Note_on_c, 0, 76, 88
1, 288292, Note_on_c, 0, 60, 59
1, 288296, Note_on_c, 0, 67, 88
1, 288299, Note_on_c, 0, 55, 52
1, 288309, Note_on_c, 0, 48, 53
1, 288312, Note_on_c, 0, 52, 52
1, 288318, Note_off_c, 0, 60, 65
1, 288330, Note_off_c, 0, 67, 60
1, 288333, Note_off_c, 0, 76, 66
1, 288346, Note_off_c, 0, 52, 66
1, 288349, Note_off_c, 0, 55, 58
1, 288354, Note_off_c, 0, 48, 48
1, 288467, Note_on_c, 0, 63, 75
1, 288479, Note_on_c, 0, 48, 50
1, 288482, Note_on_c, 0, 52, 46
1, 288485, Note_on_c, 0, 55, 52
1, 288497, Note_on_c, 0, 60, 34
1, 288512, Note_off_c, 0, 63, 62
1, 288518, Note_off_c, 0, 48, 58
1, 288524, Note_off_c, 0, 52, 62
1, 288524, Note_off_c, 0, 60, 52
1, 288527, Note_off_c, 0, 55, 61
1, 288528, Note_on_c, 0, 71, 74
1, 288577, Note_off_c, 0, 71, 59
1, 288613, Note_on_c, 0, 60, 57
1, 288618, Note_on_c, 0, 72, 91
1, 288624, Note_on_c, 0, 55, 56
1, 288625, Note_on_c, 0, 64, 82
1, 288632, Note_off_c, 0, 60, 65
1, 288633, Note_on_c, 0, 52, 48
1, 288637, Note_on_c, 0, 48, 52
1, 288647, Note_off_c, 0, 55, 67
1, 288650, Note_off_c, 0, 64, 65
1, 288656, Note_off_c, 0, 52, 67
1, 288667, Note_off_c, 0, 72, 64
1, 288673, Note_off_c, 0, 48, 65
1, 288745, Control_c, 0, 64, 100
1, 288760, Control_c, 0, 64, 74
1, 288775, Control_c, 0, 64, 0
1, 288821, Note_on_c, 0, 71, 90
1, 288825, Note_on_c, 0, 62, 83
1, 288827, Note_on_c, 0, 43, 63
1, 288830, Note_on_c, 0, 53, 56
1, 288835, Note_on_c, 0, 50, 47
1, 288849, Control_c, 0, 64, 65
1, 288857, Note_off_c, 0, 53, 62
1, 288863, Note_off_c, 0, 50, 59
1, 288864, Control_c, 0, 64, 80
1, 288878, Note_off_c, 0, 43, 54
1, 288879, Control_c, 0, 64, 99
1, 288894, Note_off_c, 0, 71, 57
1, 288894, Control_c, 0, 64, 127
1, 288910, Note_off_c, 0, 62, 54
1, 289000, Note_on_c, 0, 50, 46
1, 289002, Note_on_c, 0, 53, 46
1, 289010, Note_on_c, 0, 43, 40
1, 289027, Note_off_c, 0, 50, 58
1, 289028, Note_off_c, 0, 53, 55
1, 289040, Note_off_c, 0, 43, 53
1, 289093, Note_on_c, 0, 65, 55
1, 289135, Note_on_c, 0, 62, 67
1, 289149, Note_on_c, 0, 43, 53
1, 289150, Note_off_c, 0, 65, 63
1, 289155, Note_on_c, 0, 53, 54
1, 289161, Note_on_c, 0, 50, 49
1, 289181, Note_off_c, 0, 62, 58
1, 289194, Note_off_c, 0, 53, 59
1, 289197, Note_on_c, 0, 59, 59
1, 289216, Note_off_c, 0, 50, 55
1, 289216, Note_off_c, 0, 59, 61
1, 289219, Note_off_c, 0, 43, 57
1, 289264, Note_on_c, 0, 57, 68
1, 289296, Note_off_c, 0, 57, 64
1, 289303, Note_on_c, 0, 55, 81
1, 289325, Note_on_c, 0, 50, 62
1, 289326, Note_on_c, 0, 53, 61
1, 289331, Note_on_c, 0, 43, 58
1, 289339, Note_off_c, 0, 55, 64
1, 289350, Note_off_c, 0, 53, 66
1, 289359, Note_off_c, 0, 50, 62
1, 289368, Note_off_c, 0, 43, 61
1, 289455, Note_on_c, 0, 77, 74
1, 289499, Note_on_c, 0, 43, 48
1, 289499, Note_on_c, 0, 50, 47
1, 289504, Note_off_c, 0, 77, 62
1, 289514, Note_on_c, 0, 74, 59
1, 289523, Note_on_c, 0, 53, 24
1, 289540, Note_off_c, 0, 74, 69
1, 289549, Note_on_c, 0, 71, 69
1, 289549, Note_off_c, 0, 53, 58
1, 289553, Note_off_c, 0, 43, 54
1, 289570, Note_off_c, 0, 71, 64
1, 289598, Note_off_c, 0, 50, 49
1, 289608, Note_on_c, 0, 68, 76
1, 289653, Note_on_c, 0, 67, 84
1, 289654, Note_off_c, 0, 68, 61
1, 289656, Note_on_c, 0, 50, 52
1, 289663, Note_on_c, 0, 53, 63
1, 289666, Note_on_c, 0, 43, 60
1, 289693, Note_off_c, 0, 53, 66
1, 289693, Note_off_c, 0, 67, 63
1, 289702, Note_off_c, 0, 50, 61
1, 289707, Note_off_c, 0, 43, 58
1, 289792, Note_on_c, 0, 89, 82
1, 289843, Note_on_c, 0, 43, 47
1, 289848, Note_off_c, 0, 89, 65
1, 289848, Note_on_c, 0, 86, 73
1, 289855, Note_on_c, 0, 50, 37
1, 289894, Note_off_c, 0, 86, 62
1, 289895, Note_off_c, 0, 43, 54
1, 289901, Note_on_c, 0, 83, 69
1, 289926, Note_off_c, 0, 83, 63
1, 289954, Note_on_c, 0, 80, 82
1, 289996, Note_off_c, 0, 50, 0
1, 290002, Note_on_c, 0, 79, 77
1, 290007, Note_off_c, 0, 80, 62
1, 290016, Note_on_c, 0, 50, 26
1, 290021, Note_on_c, 0, 43, 61
1, 290022, Note_on_c, 0, 53, 72
1, 290031, Note_on_c, 0, 81, 40
1, 290047, Note_off_c, 0, 53, 70
1, 290049, Note_off_c, 0, 79, 63
1, 290059, Note_off_c, 0, 50, 61
1, 290059, Note_off_c, 0, 81, 37
1, 290071, Note_off_c, 0, 43, 58
1, 290155, Note_on_c, 0, 77, 74
1, 290184, Note_off_c, 0, 77, 60
1, 290190, Note_on_c, 0, 74, 67
1, 290194, Note_on_c, 0, 43, 42
1, 290196, Note_on_c, 0, 50, 49
1, 290209, Note_on_c, 0, 53, 33
1, 290232, Note_off_c, 0, 74, 58
1, 290241, Note_off_c, 0, 53, 52
1, 290242, Note_off_c, 0, 43, 52
1, 290244, Note_off_c, 0, 50, 57
1, 290250, Note_on_c, 0, 71, 59
1, 290278, Note_off_c, 0, 71, 48
1, 290302, Note_on_c, 0, 68, 76
1, 290341, Note_on_c, 0, 53, 62
1, 290344, Note_on_c, 0, 43, 60
1, 290345, Note_on_c, 0, 50, 66
1, 290350, Note_on_c, 0, 67, 80
1, 290357, Note_off_c, 0, 68, 63
1, 290369, Note_off_c, 0, 53, 68
1, 290375, Note_off_c, 0, 50, 66
1, 290381, Note_off_c, 0, 43, 56
1, 290396, Note_off_c, 0, 67, 64
1, 290408, Control_c, 0, 64, 118
1, 290423, Control_c, 0, 64, 94
1, 290438, Control_c, 0, 64, 69
1, 290453, Control_c, 0, 64, 0
1, 290525, Note_on_c, 0, 74, 65
1, 290530, Note_on_c, 0, 79, 87
1, 290531, Note_on_c, 0, 67, 92
1, 290534, Note_on_c, 0, 71, 73
1, 290542, Note_on_c, 0, 50, 52
1, 290545, Note_on_c, 0, 53, 61
1, 290548, Note_on_c, 0, 43, 52
1, 290556, Control_c, 0, 64, 36
1, 290568, Note_off_c, 0, 53, 65
1, 290571, Control_c, 0, 64, 70
1, 290583, Note_off_c, 0, 50, 61
1, 290586, Control_c, 0, 64, 85
1, 290596, Note_off_c, 0, 43, 57
1, 290600, Control_c, 0, 64, 104
1, 290615, Control_c, 0, 64, 122
1, 290630, Control_c, 0, 64, 125
1, 290652, Control_c, 0, 64, 127
1, 290662, Note_off_c, 0, 71, 53
1, 290667, Control_c, 0, 64, 127
1, 290724, Note_on_c, 0, 43, 53
1, 290728, Note_on_c, 0, 53, 47
1, 290736, Note_on_c, 0, 50, 48
1, 290753, Note_off_c, 0, 53, 60
1, 290760, Note_off_c, 0, 43, 61
1, 290774, Note_off_c, 0, 50, 46
1, 290867, Note_off_c, 0, 74, 55
1, 290890, Control_c, 0, 64, 111
1, 290903, Note_on_c, 0, 48, 61
1, 290905, Control_c, 0, 64, 93
1, 290907, Note_on_c, 0, 72, 54
1, 290910, Note_on_c, 0, 76, 58
1, 290919, Note_on_c, 0, 52, 51
1, 290920, Control_c, 0, 64, 77
1, 290935, Control_c, 0, 64, 55
1, 290942, Note_off_c, 0, 48, 65
1, 290946, Note_off_c, 0, 52, 58
1, 290948, Note_off_c, 0, 79, 51
1, 290949, Control_c, 0, 64, 0
1, 291024, Note_off_c, 0, 67, 56
1, 291035, Note_off_c, 0, 76, 65
1, 291045, Note_off_c, 0, 72, 62
1, 291067, Note_on_c, 0, 52, 44
1, 291069, Note_on_c, 0, 48, 56
1, 291092, Note_off_c, 0, 48, 63
1, 291093, Note_off_c, 0, 52, 61
1, 291239, Note_on_c, 0, 47, 56
1, 291247, Note_on_c, 0, 59, 60
1, 291282, Note_off_c, 0, 59, 59
1, 291293, Note_off_c, 0, 47, 62
1, 291314, Note_on_c, 0, 48, 52
1, 291320, Note_on_c, 0, 60, 62
1, 291350, Note_off_c, 0, 60, 66
1, 291360, Note_off_c, 0, 48, 63
1, 291416, Note_on_c, 0, 64, 68
1, 291423, Note_on_c, 0, 52, 54
1, 291442, Note_off_c, 0, 64, 67
1, 291447, Note_off_c, 0, 52, 62
1, 291587, Note_on_c, 0, 47, 52
1, 291601, Note_on_c, 0, 59, 59
1, 291636, Note_off_c, 0, 59, 63
1, 291647, Note_off_c, 0, 47, 61
1, 291663, Note_on_c, 0, 60, 67
1, 291672, Note_on_c, 0, 48, 57
1, 291690, Note_off_c, 0, 60, 66
1, 291711, Note_off_c, 0, 48, 67
1, 291752, Note_on_c, 0, 67, 63
1, 291754, Note_on_c, 0, 55, 59
1, 291771, Note_off_c, 0, 67, 65
1, 291774, Note_off_c, 0, 55, 63
1, 291913, Note_on_c, 0, 47, 59
1, 291920, Note_on_c, 0, 59, 69
1, 291958, Note_off_c, 0, 59, 64
1, 291974, Note_off_c, 0, 47, 62
1, 291976, Note_on_c, 0, 60, 77
1, 291977, Note_on_c, 0, 48, 63
1, 292002, Note_off_c, 0, 60, 67
1, 292004, Note_off_c, 0, 48, 67
1, 292090, Note_on_c, 0, 60, 80
1, 292090, Note_on_c, 0, 72, 83
1, 292123, Note_off_c, 0, 72, 60
1, 292125, Note_off_c, 0, 60, 62
1, 292268, Note_on_c, 0, 60, 83
1, 292273, Note_on_c, 0, 48, 75
1, 292304, Note_off_c, 0, 48, 67
1, 292313, Note_off_c, 0, 60, 62
1, 292447, Note_on_c, 0, 64, 80
1, 292447, Control_c, 0, 67, 8
1, 292450, Note_on_c, 0, 76, 84
1, 292480, Note_off_c, 0, 64, 67
1, 292491, Note_off_c, 0, 76, 66
1, 292492, Control_c, 0, 67, 0
1, 292566, Control_c, 0, 67, 8
1, 292581, Control_c, 0, 67, 8
1, 292620, Note_on_c, 0, 48, 73
1, 292621, Note_on_c, 0, 60, 73
1, 292644, Note_off_c, 0, 48, 67
1, 292644, Note_off_c, 0, 60, 67
1, 292655, Control_c, 0, 67, 8
1, 292684, Control_c, 0, 67, 0
1, 292803, Note_on_c, 0, 72, 78
1, 292807, Note_on_c, 0, 79, 90
1, 292808, Note_on_c, 0, 67, 88
1, 292809, Note_on_c, 0, 52, 82
1, 292814, Note_on_c, 0, 40, 71
1, 292846, Note_off_c, 0, 67, 62
1, 292850, Note_off_c, 0, 40, 63
1, 292852, Note_off_c, 0, 52, 64
1, 292852, Note_off_c, 0, 72, 60
1, 292864, Note_off_c, 0, 79, 60
1, 293034, Note_on_c, 0, 81, 94
1, 293034, Note_on_c, 0, 72, 84
1, 293035, Note_on_c, 0, 69, 93
1, 293040, Note_on_c, 0, 53, 90
1, 293046, Note_on_c, 0, 41, 79
1, 293061, Control_c, 0, 64, 48
1, 293076, Control_c, 0, 64, 75
1, 293091, Control_c, 0, 64, 96
1, 293091, Note_off_c, 0, 69, 64
1, 293092, Note_off_c, 0, 72, 63
1, 293106, Control_c, 0, 64, 127
1, 293106, Note_off_c, 0, 53, 63
1, 293114, Note_off_c, 0, 41, 65
1, 293125, Note_off_c, 0, 81, 59
1, 293443, Note_on_c, 0, 83, 82
1, 293446, Note_on_c, 0, 79, 82
1, 293477, Control_c, 0, 64, 114
1, 293478, Note_off_c, 0, 79, 53
1, 293491, Control_c, 0, 64, 96
1, 293506, Control_c, 0, 64, 84
1, 293516, Note_on_c, 0, 81, 73
1, 293521, Note_on_c, 0, 77, 79
1, 293521, Control_c, 0, 64, 72
1, 293526, Note_off_c, 0, 83, 57
1, 293535, Control_c, 0, 64, 60
1, 293535, Control_c, 0, 67, 8
1, 293550, Control_c, 0, 64, 0
1, 293598, Note_on_c, 0, 79, 65
1, 293599, Note_off_c, 0, 81, 61
1, 293600, Note_off_c, 0, 77, 62
1, 293603, Note_on_c, 0, 76, 70
1, 293616, Note_off_c, 0, 79, 65
1, 293625, Note_off_c, 0, 76, 71
1, 293692, Note_on_c, 0, 77, 80
1, 293696, Note_on_c, 0, 74, 76
1, 293706, Control_c, 0, 67, 8
1, 293765, Note_on_c, 0, 76, 74
1, 293770, Note_off_c, 0, 74, 65
1, 293772, Note_off_c, 0, 77, 61
1, 293774, Note_on_c, 0, 72, 73
1, 293796, Note_off_c, 0, 76, 63
1, 293802, Note_off_c, 0, 72, 66
1, 293809, Control_c, 0, 67, 8
1, 293824, Control_c, 0, 67, 0
1, 293861, Note_on_c, 0, 74, 73
1, 293862, Note_on_c, 0, 71, 79
1, 293932, Note_on_c, 0, 72, 70
1, 293933, Note_off_c, 0, 74, 64
1, 293935, Note_on_c, 0, 69, 75
1, 293935, Note_off_c, 0, 71, 61
1, 293960, Note_off_c, 0, 72, 67
1, 293965, Note_off_c, 0, 69, 67
1, 294026, Note_on_c, 0, 71, 75
1, 294027, Note_on_c, 0, 67, 82
1, 294098, Note_off_c, 0, 71, 59
1, 294102, Note_on_c, 0, 69, 70
1, 294105, Note_off_c, 0, 67, 60
1, 294108, Note_on_c, 0, 65, 73
1, 294132, Note_off_c, 0, 69, 63
1, 294133, Note_off_c, 0, 65, 69
1, 294196, Note_on_c, 0, 64, 77
1, 294197, Note_on_c, 0, 67, 67
1, 294272, Note_off_c, 0, 64, 64
1, 294273, Note_on_c, 0, 65, 61
1, 294279, Note_on_c, 0, 62, 69
1, 294286, Note_off_c, 0, 67, 61
1, 294301, Note_off_c, 0, 65, 67
1, 294305, Note_off_c, 0, 62, 65
1, 294364, Note_on_c, 0, 60, 77
1, 294364, Note_on_c, 0, 64, 76
1, 294448, Note_off_c, 0, 60, 59
1, 294450, Note_on_c, 0, 62, 56
1, 294450, Note_off_c, 0, 64, 63
1, 294468, Note_on_c, 0, 59, 41
1, 294474, Note_off_c, 0, 62, 61
1, 294492, Note_off_c, 0, 59, 58
1, 294554, Note_on_c, 0, 60, 76
1, 294562, Note_on_c, 0, 57, 66
1, 294644, Note_on_c, 0, 59, 64
1, 294648, Note_on_c, 0, 55, 66
1, 294648, Note_off_c, 0, 60, 56
1, 294655, Note_on_c, 0, 43, 44
1, 294655, Note_on_c, 0, 53, 48
1, 294657, Note_off_c, 0, 57, 55
1, 294662, Note_on_c, 0, 50, 42
1, 294671, Note_off_c, 0, 55, 68
1, 295022, Note_off_c, 0, 53, 57
1, 295279, Note_off_c, 0, 50, 47
1, 295285, Note_off_c, 0, 59, 57
1, 295310, Note_on_c, 0, 60, 44
1, 295321, Note_on_c, 0, 48, 35
1, 295332, Note_on_c, 0, 52, 34
1, 295333, Note_on_c, 0, 55, 27
1, 295353, Note_off_c, 0, 43, 39
1, 295526, Note_off_c, 0, 52, 60
1, 295550, Note_off_c, 0, 48, 60
1, 295566, Note_off_c, 0, 55, 58
1, 295574, Note_off_c, 0, 60, 62
1, 295800, Note_on_c, 0, 48, 62
1, 295806, Note_on_c, 0, 36, 47
1, 295827, Note_off_c, 0, 48, 66
1, 295864, Note_off_c, 0, 36, 60
1, 295875, Note_on_c, 0, 50, 70
1, 295895, Note_on_c, 0, 38, 50
1, 295920, Note_off_c, 0, 50, 57
1, 295950, Note_off_c, 0, 38, 57
1, 295955, Note_on_c, 0, 40, 55
1, 295961, Note_on_c, 0, 52, 64
1, 296017, Note_off_c, 0, 52, 62
1, 296023, Note_off_c, 0, 40, 64
1, 296029, Note_on_c, 0, 41, 65
1, 296039, Note_on_c, 0, 53, 60
1, 296084, Note_off_c, 0, 41, 59
1, 296106, Note_off_c, 0, 53, 64
1, 296113, Note_on_c, 0, 55, 71
1, 296131, Note_on_c, 0, 43, 44
1, 296140, Note_off_c, 0, 55, 66
1, 296165, Note_off_c, 0, 43, 49
1, 296293, Note_on_c, 0, 60, 80
1, 296304, Note_on_c, 0, 48, 63
1, 296307, Note_on_c, 0, 36, 58
1, 296317, Note_off_c, 0, 60, 66
1, 296326, Note_off_c, 0, 48, 65
1, 296334, Note_off_c, 0, 36, 63
1, 296514, Note_on_c, 0, 59, 69
1, 296546, Note_on_c, 0, 47, 29
1, 296546, Control_c, 0, 64, 66
1, 296556, Note_on_c, 0, 35, 12
1, 296561, Control_c, 0, 64, 79
1, 296575, Control_c, 0, 64, 93
1, 296590, Control_c, 0, 64, 104
1, 296591, Note_off_c, 0, 47, 49
1, 296605, Note_off_c, 0, 35, 48
1, 296605, Control_c, 0, 64, 112
1, 296620, Control_c, 0, 64, 117
1, 296642, Control_c, 0, 64, 122
1, 296657, Control_c, 0, 64, 127
1, 296670, Note_off_c, 0, 59, 62
1, 296790, Control_c, 0, 64, 123
1, 296805, Control_c, 0, 64, 104
1, 296820, Control_c, 0, 64, 87
1, 296835, Control_c, 0, 64, 72
1, 296850, Control_c, 0, 64, 0
1, 296943, Note_on_c, 0, 43, 67
1, 296950, Note_on_c, 0, 55, 65
1, 296981, Note_off_c, 0, 55, 60
1, 297019, Note_on_c, 0, 45, 68
1, 297020, Note_on_c, 0, 57, 73
1, 297038, Note_off_c, 0, 43, 58
1, 297080, Note_on_c, 0, 47, 71
1, 297090, Note_off_c, 0, 57, 38
1, 297095, Note_on_c, 0, 59, 74
1, 297117, Note_off_c, 0, 45, 64
1, 297148, Note_on_c, 0, 48, 74
1, 297169, Note_off_c, 0, 47, 63
1, 297172, Note_on_c, 0, 60, 72
1, 297172, Note_off_c, 0, 59, 63
1, 297233, Note_off_c, 0, 48, 65
1, 297244, Note_on_c, 0, 50, 76
1, 297248, Note_on_c, 0, 62, 86
1, 297251, Note_off_c, 0, 60, 63
1, 297272, Note_off_c, 0, 50, 70
1, 297273, Note_off_c, 0, 62, 66
1, 297431, Note_on_c, 0, 69, 93
1, 297432, Note_on_c, 0, 57, 78
1, 297434, Note_on_c, 0, 45, 73
1, 297458, Note_off_c, 0, 57, 64
1, 297464, Note_off_c, 0, 45, 64
1, 297467, Note_off_c, 0, 69, 67
1, 297659, Note_on_c, 0, 68, 91
1, 297666, Note_on_c, 0, 56, 81
1, 297667, Note_on_c, 0, 44, 74
1, 297687, Control_c, 0, 64, 43
1, 297702, Control_c, 0, 64, 73
1, 297716, Control_c, 0, 64, 89
1, 297731, Control_c, 0, 64, 116
1, 297746, Control_c, 0, 64, 127
1, 297764, Note_off_c, 0, 44, 63
1, 297765, Note_off_c, 0, 56, 63
1, 297819, Note_off_c, 0, 68, 61
1, 297908, Control_c, 0, 67, 8
1, 297923, Control_c, 0, 64, 122
1, 297938, Control_c, 0, 64, 98
1, 297954, Control_c, 0, 64, 82
1, 297969, Control_c, 0, 64, 68
1, 297984, Control_c, 0, 64, 0
1, 298028, Control_c, 0, 67, 8
1, 298161, Note_on_c, 0, 69, 73
1, 298184, Control_c, 0, 67, 0
1, 298196, Note_off_c, 0, 69, 59
1, 298239, Note_on_c, 0, 71, 75
1, 298278, Note_off_c, 0, 71, 53
1, 298313, Note_on_c, 0, 72, 73
1, 298385, Note_off_c, 0, 72, 64
1, 298388, Note_on_c, 0, 74, 70
1, 298468, Note_off_c, 0, 74, 64
1, 298471, Note_on_c, 0, 76, 67
1, 298498, Note_off_c, 0, 76, 63
1, 298665, Note_on_c, 0, 77, 72
1, 298665, Note_on_c, 0, 65, 69
1, 298678, Note_on_c, 0, 59, 53
1, 298682, Note_on_c, 0, 71, 48
1, 298688, Note_on_c, 0, 74, 40
1, 298689, Note_off_c, 0, 65, 66
1, 298711, Note_off_c, 0, 77, 51
1, 298715, Note_off_c, 0, 71, 48
1, 298717, Note_off_c, 0, 74, 55
1, 298729, Note_off_c, 0, 59, 59
1, 298745, Note_on_c, 0, 57, 65
1, 298746, Control_c, 0, 67, 8
1, 298762, Control_c, 0, 67, 8
1, 298817, Note_off_c, 0, 57, 61
1, 298825, Note_on_c, 0, 56, 66
1, 298836, Control_c, 0, 67, 8
1, 298850, Note_on_c, 0, 74, 58
1, 298852, Note_on_c, 0, 64, 68
1, 298853, Note_on_c, 0, 76, 65
1, 298856, Note_on_c, 0, 71, 60
1, 298888, Control_c, 0, 64, 62
1, 298903, Control_c, 0, 64, 71
1, 298913, Note_off_c, 0, 56, 63
1, 298918, Control_c, 0, 64, 76
1, 298929, Note_on_c, 0, 54, 62
1, 298933, Control_c, 0, 64, 79
1, 298948, Control_c, 0, 67, 0
1, 298953, Note_off_c, 0, 71, 54
1, 298965, Note_off_c, 0, 74, 61
1, 298974, Note_off_c, 0, 64, 57
1, 298975, Note_off_c, 0, 76, 61
1, 298992, Control_c, 0, 64, 80
1, 299007, Control_c, 0, 64, 80
1, 299017, Note_on_c, 0, 52, 74
1, 299022, Control_c, 0, 64, 81
1, 299025, Note_off_c, 0, 54, 62
1, 299036, Control_c, 0, 64, 82
1, 299046, Note_off_c, 0, 52, 69
1, 299186, Note_on_c, 0, 69, 76
1, 299192, Note_on_c, 0, 64, 69
1, 299225, Note_off_c, 0, 64, 59
1, 299246, Note_off_c, 0, 69, 62
1, 299249, Note_on_c, 0, 68, 67
1, 299249, Note_on_c, 0, 71, 64
1, 299276, Note_off_c, 0, 68, 68
1, 299281, Note_off_c, 0, 71, 62
1, 299288, Control_c, 0, 64, 82
1, 299303, Control_c, 0, 64, 80
1, 299318, Control_c, 0, 64, 78
1, 299333, Control_c, 0, 64, 72
1, 299344, Note_on_c, 0, 69, 78
1, 299344, Note_on_c, 0, 72, 79
1, 299348, Control_c, 0, 64, 65
1, 299363, Control_c, 0, 64, 28
1, 299378, Control_c, 0, 64, 0
1, 299381, Note_off_c, 0, 72, 57
1, 299382, Note_off_c, 0, 69, 51
1, 299413, Note_on_c, 0, 71, 65
1, 299429, Note_on_c, 0, 74, 42
1, 299485, Note_on_c, 0, 72, 66
1, 299486, Note_on_c, 0, 76, 65
1, 299486, Note_off_c, 0, 71, 60
1, 299493, Note_off_c, 0, 74, 59
1, 299509, Note_off_c, 0, 72, 65
1, 299520, Note_off_c, 0, 76, 66
1, 299586, Control_c, 0, 67, 8
1, 299687, Note_on_c, 0, 70, 82
1, 299687, Note_on_c, 0, 82, 74
1, 299694, Note_on_c, 0, 76, 68
1, 299694, Note_on_c, 0, 79, 70
1, 299695, Note_on_c, 0, 64, 61
1, 299709, Note_off_c, 0, 70, 66
1, 299711, Control_c, 0, 67, 8
1, 299721, Note_off_c, 0, 76, 65
1, 299731, Note_off_c, 0, 82, 64
1, 299757, Note_off_c, 0, 79, 54
1, 299761, Note_off_c, 0, 64, 57
1, 299773, Note_on_c, 0, 62, 68
1, 299848, Note_off_c, 0, 62, 59
1, 299856, Note_on_c, 0, 61, 63
1, 299870, Note_on_c, 0, 79, 75
1, 299872, Note_on_c, 0, 81, 83
1, 299874, Note_on_c, 0, 76, 72
1, 299876, Note_on_c, 0, 69, 69
1, 299890, Control_c, 0, 67, 0
1, 299934, Control_c, 0, 64, 66
1, 299940, Note_off_c, 0, 61, 59
1, 299943, Note_on_c, 0, 59, 64
1, 299949, Control_c, 0, 64, 78
1, 299951, Note_off_c, 0, 76, 63
1, 299958, Note_off_c, 0, 79, 56
1, 299964, Control_c, 0, 64, 90
1, 299974, Note_off_c, 0, 81, 58
1, 299978, Control_c, 0, 64, 100
1, 299993, Control_c, 0, 64, 105
1, 300003, Note_off_c, 0, 69, 46
1, 300008, Control_c, 0, 64, 107
1, 300023, Control_c, 0, 64, 108
1, 300035, Note_on_c, 0, 57, 71
1, 300038, Control_c, 0, 64, 109
1, 300047, Note_off_c, 0, 59, 60
1, 300052, Control_c, 0, 64, 110
1, 300063, Note_off_c, 0, 57, 66
1, 300082, Control_c, 0, 64, 110
1, 300221, Note_on_c, 0, 74, 77
1, 300227, Note_on_c, 0, 69, 69
1, 300282, Note_off_c, 0, 69, 63
1, 300284, Note_on_c, 0, 76, 70
1, 300286, Note_on_c, 0, 73, 73
1, 300293, Note_off_c, 0, 74, 61
1, 300309, Note_off_c, 0, 73, 69
1, 300334, Note_off_c, 0, 76, 64
1, 300349, Control_c, 0, 64, 110
1, 300364, Control_c, 0, 64, 105
1, 300387, Control_c, 0, 64, 94
1, 300394, Note_on_c, 0, 77, 88
1, 300397, Note_on_c, 0, 74, 78
1, 300402, Control_c, 0, 64, 81
1, 300416, Control_c, 0, 64, 69
1, 300431, Control_c, 0, 64, 10
1, 300437, Note_off_c, 0, 74, 55
1, 300446, Control_c, 0, 64, 0
1, 300454, Note_off_c, 0, 77, 62
1, 300474, Note_on_c, 0, 76, 66
1, 300477, Note_on_c, 0, 79, 54
1, 300534, Note_on_c, 0, 77, 67
1, 300534, Control_c, 0, 67, 8
1, 300543, Note_on_c, 0, 81, 69
1, 300544, Note_off_c, 0, 76, 66
1, 300550, Note_off_c, 0, 79, 60
1, 300559, Note_off_c, 0, 77, 67
1, 300572, Note_off_c, 0, 81, 64
1, 300713, Note_on_c, 0, 89, 83
1, 300714, Note_on_c, 0, 49, 71
1, 300717, Note_on_c, 0, 77, 80
1, 300725, Note_on_c, 0, 79, 68
1, 300734, Note_off_c, 0, 89, 67
1, 300739, Note_off_c, 0, 77, 67
1, 300741, Note_off_c, 0, 79, 66
1, 300779, Note_on_c, 0, 50, 69
1, 300779, Note_off_c, 0, 49, 61
1, 300801, Control_c, 0, 67, 8
1, 300862, Note_off_c, 0, 50, 61
1, 300888, Note_on_c, 0, 52, 70
1, 300891, Note_on_c, 0, 88, 83
1, 300892, Note_on_c, 0, 79, 68
1, 300895, Note_on_c, 0, 82, 82
1, 300895, Note_on_c, 0, 76, 88
1, 300923, Note_off_c, 0, 52, 63
1, 300949, Control_c, 0, 64, 69
1, 300951, Note_off_c, 0, 88, 63
1, 300963, Note_off_c, 0, 82, 62
1, 300964, Control_c, 0, 64, 82
1, 300964, Control_c, 0, 67, 8
1, 300966, Note_off_c, 0, 76, 61
1, 300972, Note_off_c, 0, 79, 62
1, 300979, Note_on_c, 0, 53, 75
1, 300979, Control_c, 0, 64, 97
1, 300979, Control_c, 0, 67, 0
1, 300994, Control_c, 0, 64, 109
1, 301008, Control_c, 0, 64, 112
1, 301038, Control_c, 0, 64, 112
1, 301048, Note_off_c, 0, 53, 66
1, 301053, Control_c, 0, 64, 113
1, 301053, Note_on_c, 0, 55, 72
1, 301083, Note_off_c, 0, 55, 66
1, 301226, Note_on_c, 0, 57, 76
1, 301228, Note_on_c, 0, 76, 66
1, 301232, Note_on_c, 0, 45, 70
1, 301236, Note_on_c, 0, 73, 57
1, 301250, Note_off_c, 0, 57, 66
1, 301256, Note_off_c, 0, 73, 59
1, 301269, Note_off_c, 0, 45, 63
1, 301270, Note_on_c, 0, 77, 68
1, 301270, Note_off_c, 0, 76, 60
1, 301282, Note_on_c, 0, 74, 62
1, 301309, Note_off_c, 0, 74, 70
1, 301313, Control_c, 0, 64, 112
1, 301325, Note_off_c, 0, 77, 62
1, 301328, Control_c, 0, 64, 108
1, 301343, Control_c, 0, 64, 98
1, 301357, Control_c, 0, 64, 86
1, 301372, Control_c, 0, 64, 73
1, 301382, Note_on_c, 0, 79, 81
1, 301383, Note_on_c, 0, 76, 75
1, 301387, Control_c, 0, 64, 60
1, 301391, Note_on_c, 0, 55, 74
1, 301393, Note_on_c, 0, 43, 70
1, 301402, Control_c, 0, 64, 0
1, 301408, Note_off_c, 0, 76, 67
1, 301408, Note_off_c, 0, 79, 62
1, 301461, Note_on_c, 0, 77, 62
1, 301472, Note_on_c, 0, 81, 47
1, 301476, Control_c, 0, 67, 8
1, 301479, Note_off_c, 0, 77, 62
1, 301489, Note_on_c, 0, 79, 51
1, 301491, Control_c, 0, 67, 8
1, 301496, Note_off_c, 0, 81, 47
1, 301497, Note_off_c, 0, 43, 59
1, 301506, Note_off_c, 0, 55, 61
1, 301512, Note_off_c, 0, 79, 52
1, 301521, Control_c, 0, 67, 9
1, 301535, Note_on_c, 0, 82, 69
1, 301549, Note_on_c, 0, 79, 58
1, 301566, Note_off_c, 0, 82, 58
1, 301569, Note_off_c, 0, 79, 64
1, 301683, Control_c, 0, 67, 8
1, 301713, Control_c, 0, 67, 8
1, 301716, Note_on_c, 0, 52, 65
1, 301719, Note_on_c, 0, 76, 73
1, 301721, Note_on_c, 0, 86, 69
1, 301728, Control_c, 0, 67, 0
1, 301735, Note_on_c, 0, 79, 51
1, 301738, Note_off_c, 0, 76, 69
1, 301745, Note_off_c, 0, 86, 68
1, 301757, Note_off_c, 0, 79, 55
1, 301786, Note_off_c, 0, 52, 66
1, 301787, Control_c, 0, 67, 8
1, 301793, Note_on_c, 0, 53, 70
1, 301802, Control_c, 0, 67, 8
1, 301842, Note_off_c, 0, 53, 64
1, 301846, Control_c, 0, 67, 9
1, 301888, Note_on_c, 0, 55, 66
1, 301890, Note_on_c, 0, 85, 81
1, 301896, Note_on_c, 0, 79, 71
1, 301899, Note_on_c, 0, 76, 71
1, 301924, Note_off_c, 0, 55, 65
1, 301928, Control_c, 0, 64, 32
1, 301936, Note_off_c, 0, 76, 60
1, 301943, Control_c, 0, 64, 69
1, 301943, Control_c, 0, 67, 8
1, 301948, Note_off_c, 0, 79, 59
1, 301949, Note_off_c, 0, 85, 65
1, 301959, Control_c, 0, 64, 81
1, 301959, Control_c, 0, 67, 0
1, 301973, Control_c, 0, 64, 95
1, 301988, Control_c, 0, 64, 106
1, 301989, Note_on_c, 0, 57, 64
1, 302003, Control_c, 0, 64, 110
1, 302018, Control_c, 0, 64, 113
1, 302033, Note_off_c, 0, 57, 61
1, 302033, Control_c, 0, 64, 115
1, 302042, Note_on_c, 0, 58, 63
1, 302048, Control_c, 0, 64, 120
1, 302062, Control_c, 0, 64, 125
1, 302077, Note_off_c, 0, 58, 62
1, 302077, Control_c, 0, 64, 127
1, 302222, Note_on_c, 0, 76, 63
1, 302233, Note_on_c, 0, 67, 57
1, 302236, Note_on_c, 0, 55, 57
1, 302243, Note_on_c, 0, 73, 18
1, 302253, Note_off_c, 0, 67, 60
1, 302255, Note_off_c, 0, 76, 63
1, 302256, Note_off_c, 0, 55, 63
1, 302259, Note_on_c, 0, 77, 67
1, 302275, Note_on_c, 0, 74, 55
1, 302284, Note_off_c, 0, 73, 40
1, 302296, Note_off_c, 0, 74, 66
1, 302314, Note_off_c, 0, 77, 62
1, 302344, Control_c, 0, 64, 124
1, 302358, Control_c, 0, 64, 114
1, 302365, Note_on_c, 0, 79, 80
1, 302368, Note_on_c, 0, 76, 72
1, 302373, Control_c, 0, 64, 102
1, 302383, Note_on_c, 0, 64, 75
1, 302385, Note_on_c, 0, 52, 71
1, 302388, Control_c, 0, 64, 86
1, 302390, Note_off_c, 0, 76, 62
1, 302403, Control_c, 0, 64, 72
1, 302412, Note_off_c, 0, 79, 59
1, 302418, Control_c, 0, 64, 48
1, 302433, Control_c, 0, 64, 0
1, 302440, Note_on_c, 0, 77, 72
1, 302451, Note_on_c, 0, 81, 57
1, 302477, Control_c, 0, 67, 8
1, 302478, Note_off_c, 0, 77, 62
1, 302479, Note_off_c, 0, 52, 60
1, 302480, Note_off_c, 0, 81, 63
1, 302506, Control_c, 0, 67, 9
1, 302519, Note_on_c, 0, 82, 76
1, 302521, Control_c, 0, 67, 9
1, 302530, Note_on_c, 0, 79, 8
1, 302540, Note_off_c, 0, 64, 60
1, 302562, Note_off_c, 0, 79, 57
1, 302563, Note_off_c, 0, 82, 63
1, 302677, Control_c, 0, 67, 9
1, 302705, Note_on_c, 0, 82, 77
1, 302709, Note_on_c, 0, 72, 71
1, 302713, Note_on_c, 0, 66, 63
1, 302725, Note_on_c, 0, 75, 52
1, 302732, Note_off_c, 0, 82, 60
1, 302736, Note_off_c, 0, 72, 69
1, 302747, Note_off_c, 0, 75, 62
1, 302750, Note_off_c, 0, 66, 65
1, 302789, Note_on_c, 0, 65, 62
1, 302836, Note_off_c, 0, 65, 57
1, 302880, Note_on_c, 0, 81, 80
1, 302883, Note_on_c, 0, 63, 66
1, 302890, Note_on_c, 0, 75, 61
1, 302892, Note_on_c, 0, 72, 60
1, 302900, Control_c, 0, 67, 8
1, 302919, Note_off_c, 0, 72, 57
1, 302919, Note_off_c, 0, 81, 58
1, 302929, Control_c, 0, 64, 63
1, 302937, Note_off_c, 0, 75, 63
1, 302944, Control_c, 0, 64, 76
1, 302949, Note_off_c, 0, 63, 62
1, 302959, Control_c, 0, 64, 93
1, 302960, Note_on_c, 0, 62, 70
1, 302974, Control_c, 0, 64, 110
1, 302989, Control_c, 0, 64, 118
1, 303003, Control_c, 0, 64, 119
1, 303018, Control_c, 0, 64, 121
1, 303033, Control_c, 0, 64, 122
1, 303038, Note_off_c, 0, 62, 60
1, 303044, Note_on_c, 0, 60, 72
1, 303047, Control_c, 0, 64, 125
1, 303047, Control_c, 0, 67, 8
1, 303062, Control_c, 0, 64, 125
1, 303069, Note_off_c, 0, 60, 66
1, 303077, Control_c, 0, 64, 126
1, 303077, Control_c, 0, 67, 0
1, 303199, Note_on_c, 0, 69, 69
1, 303210, Note_on_c, 0, 66, 65
1, 303213, Note_on_c, 0, 48, 77
1, 303213, Note_on_c, 0, 60, 78
1, 303234, Note_off_c, 0, 60, 68
1, 303239, Note_off_c, 0, 66, 67
1, 303242, Note_on_c, 0, 70, 64
1, 303247, Note_off_c, 0, 48, 63
1, 303256, Note_off_c, 0, 69, 64
1, 303259, Note_on_c, 0, 67, 62
1, 303282, Note_off_c, 0, 67, 65
1, 303295, Note_off_c, 0, 70, 64
1, 303344, Control_c, 0, 64, 125
1, 303359, Control_c, 0, 64, 117
1, 303361, Note_on_c, 0, 72, 79
1, 303366, Note_on_c, 0, 69, 70
1, 303381, Note_on_c, 0, 57, 78
1, 303381, Control_c, 0, 64, 103
1, 303389, Note_on_c, 0, 45, 72
1, 303395, Note_off_c, 0, 69, 67
1, 303396, Control_c, 0, 64, 87
1, 303411, Control_c, 0, 64, 71
1, 303423, Note_off_c, 0, 72, 63
1, 303426, Control_c, 0, 64, 0
1, 303434, Note_on_c, 0, 70, 73
1, 303441, Note_on_c, 0, 74, 56
1, 303467, Note_off_c, 0, 74, 70
1, 303481, Note_off_c, 0, 70, 61
1, 303485, Control_c, 0, 67, 8
1, 303491, Note_off_c, 0, 57, 56
1, 303500, Control_c, 0, 67, 9
1, 303515, Control_c, 0, 67, 9
1, 303516, Note_off_c, 0, 45, 57
1, 303518, Note_on_c, 0, 72, 72
1, 303520, Note_on_c, 0, 75, 70
1, 303545, Note_off_c, 0, 72, 67
1, 303545, Note_off_c, 0, 75, 70
1, 303590, Control_c, 0, 67, 9
1, 303691, Note_on_c, 0, 69, 81
1, 303693, Control_c, 0, 67, 8
1, 303694, Note_on_c, 0, 51, 66
1, 303695, Note_on_c, 0, 72, 72
1, 303697, Note_on_c, 0, 79, 69
1, 303711, Note_off_c, 0, 69, 72
1, 303713, Note_off_c, 0, 72, 66
1, 303717, Note_off_c, 0, 79, 64
1, 303723, Control_c, 0, 67, 8
1, 303738, Control_c, 0, 67, 0
1, 303739, Note_off_c, 0, 51, 61
1, 303771, Note_on_c, 0, 50, 66
1, 303782, Control_c, 0, 67, 8
1, 303797, Control_c, 0, 67, 8
1, 303826, Control_c, 0, 67, 9
1, 303860, Note_on_c, 0, 72, 76
1, 303861, Note_on_c, 0, 78, 88
1, 303864, Note_on_c, 0, 69, 83
1, 303867, Note_off_c, 0, 50, 63
1, 303871, Note_on_c, 0, 48, 67
1, 303886, Note_off_c, 0, 69, 69
1, 303900, Control_c, 0, 67, 8
1, 303910, Note_off_c, 0, 72, 64
1, 303915, Control_c, 0, 64, 35
1, 303930, Control_c, 0, 64, 71
1, 303941, Note_off_c, 0, 78, 64
1, 303944, Control_c, 0, 64, 86
1, 303947, Note_on_c, 0, 46, 70
1, 303949, Note_off_c, 0, 48, 62
1, 303959, Control_c, 0, 64, 107
1, 303974, Control_c, 0, 64, 127
1, 304004, Control_c, 0, 67, 8
1, 304029, Note_on_c, 0, 45, 68
1, 304034, Control_c, 0, 67, 0
1, 304038, Note_off_c, 0, 46, 61
1, 304061, Note_off_c, 0, 45, 65
1, 304185, Note_on_c, 0, 81, 77
1, 304191, Note_on_c, 0, 78, 78
1, 304201, Note_on_c, 0, 43, 71
1, 304204, Note_on_c, 0, 31, 70
1, 304225, Note_on_c, 0, 82, 63
1, 304230, Note_off_c, 0, 43, 63
1, 304231, Note_off_c, 0, 78, 62
1, 304235, Note_off_c, 0, 31, 61
1, 304235, Note_off_c, 0, 81, 61
1, 304241, Note_on_c, 0, 79, 64
1, 304269, Note_off_c, 0, 79, 66
1, 304282, Note_off_c, 0, 82, 65
1, 304338, Note_on_c, 0, 84, 84
1, 304340, Note_on_c, 0, 81, 77
1, 304350, Note_on_c, 0, 42, 79
1, 304355, Note_on_c, 0, 30, 74
1, 304368, Note_off_c, 0, 81, 60
1, 304384, Note_off_c, 0, 84, 65
1, 304406, Note_on_c, 0, 82, 73
1, 304427, Control_c, 0, 64, 124
1, 304430, Note_off_c, 0, 30, 63
1, 304438, Note_on_c, 0, 86, 53
1, 304442, Control_c, 0, 64, 104
1, 304452, Note_off_c, 0, 82, 65
1, 304457, Control_c, 0, 64, 87
1, 304460, Note_off_c, 0, 86, 57
1, 304465, Note_on_c, 0, 84, 46
1, 304466, Note_off_c, 0, 42, 62
1, 304472, Control_c, 0, 64, 73
1, 304472, Control_c, 0, 67, 8
1, 304478, Note_on_c, 0, 87, 72
1, 304487, Control_c, 0, 64, 52
1, 304501, Control_c, 0, 64, 0
1, 304501, Control_c, 0, 67, 9
1, 304513, Note_off_c, 0, 87, 63
1, 304519, Note_off_c, 0, 84, 66
1, 304531, Control_c, 0, 67, 8
1, 304575, Control_c, 0, 67, 8
1, 304590, Control_c, 0, 67, 0
1, 304664, Control_c, 0, 67, 8
1, 304693, Control_c, 0, 67, 8
1, 304696, Note_on_c, 0, 67, 83
1, 304707, Note_on_c, 0, 55, 66
1, 304707, Note_on_c, 0, 43, 62
1, 304730, Note_off_c, 0, 67, 66
1, 304733, Note_off_c, 0, 55, 65
1, 304741, Note_off_c, 0, 43, 62
1, 304827, Control_c, 0, 67, 9
1, 304879, Control_c, 0, 67, 9
1, 304923, Control_c, 0, 67, 9
1, 304938, Control_c, 0, 67, 8
1, 304943, Note_on_c, 0, 66, 82
1, 304953, Note_on_c, 0, 54, 50
1, 304955, Note_on_c, 0, 42, 50
1, 304982, Control_c, 0, 64, 54
1, 304997, Control_c, 0, 64, 73
1, 305012, Control_c, 0, 64, 88
1, 305026, Control_c, 0, 64, 112
1, 305041, Control_c, 0, 64, 127
1, 305041, Control_c, 0, 67, 9
1, 305071, Control_c, 0, 67, 9
1, 305076, Note_off_c, 0, 42, 62
1, 305077, Note_off_c, 0, 54, 61
1, 305086, Control_c, 0, 67, 10
1, 305101, Control_c, 0, 67, 13
1, 305109, Note_off_c, 0, 66, 64
1, 305116, Control_c, 0, 67, 24
1, 305131, Control_c, 0, 67, 44
1, 305146, Control_c, 0, 67, 76
1, 305161, Control_c, 0, 67, 117
1, 305176, Control_c, 0, 67, 127
1, 305205, Control_c, 0, 64, 124
1, 305220, Control_c, 0, 64, 105
1, 305235, Control_c, 0, 64, 90
1, 305250, Control_c, 0, 64, 77
1, 305265, Control_c, 0, 64, 56
1, 305280, Control_c, 0, 64, 0
1, 305563, Note_on_c, 0, 67, 48
1, 305599, Note_off_c, 0, 67, 50
1, 305642, Note_on_c, 0, 69, 48
1, 305667, Note_off_c, 0, 69, 59
1, 305718, Note_on_c, 0, 70, 63
1, 305722, Note_on_c, 0, 55, 51
1, 305724, Note_on_c, 0, 58, 44
1, 305749, Note_off_c, 0, 58, 57
1, 305763, Note_off_c, 0, 55, 63
1, 305777, Note_off_c, 0, 70, 60
1, 305806, Note_on_c, 0, 72, 53
1, 305842, Note_off_c, 0, 72, 59
1, 305883, Note_on_c, 0, 55, 54
1, 305892, Note_on_c, 0, 74, 51
1, 305897, Note_on_c, 0, 58, 25
1, 305912, Note_off_c, 0, 74, 62
1, 305927, Note_off_c, 0, 58, 50
1, 305927, Note_off_c, 0, 55, 62
1, 306063, Note_on_c, 0, 75, 67
1, 306073, Note_on_c, 0, 58, 41
1, 306074, Note_on_c, 0, 55, 49
1, 306101, Note_off_c, 0, 55, 64
1, 306101, Note_off_c, 0, 58, 59
1, 306107, Note_off_c, 0, 75, 61
1, 306250, Control_c, 0, 64, 10
1, 306254, Note_on_c, 0, 74, 68
1, 306261, Note_on_c, 0, 57, 56
1, 306264, Control_c, 0, 64, 65
1, 306266, Note_on_c, 0, 60, 49
1, 306279, Control_c, 0, 64, 70
1, 306294, Control_c, 0, 64, 72
1, 306296, Note_off_c, 0, 60, 55
1, 306299, Note_off_c, 0, 57, 61
1, 306309, Control_c, 0, 64, 73
1, 306338, Control_c, 0, 64, 73
1, 306420, Control_c, 0, 64, 73
1, 306424, Note_off_c, 0, 74, 60
1, 306433, Note_on_c, 0, 57, 52
1, 306434, Note_on_c, 0, 60, 42
1, 306450, Control_c, 0, 64, 72
1, 306465, Note_off_c, 0, 60, 54
1, 306465, Control_c, 0, 64, 72
1, 306469, Note_off_c, 0, 57, 62
1, 306494, Control_c, 0, 64, 71
1, 306524, Control_c, 0, 64, 71
1, 306539, Control_c, 0, 64, 70
1, 306553, Control_c, 0, 64, 70
1, 306568, Control_c, 0, 64, 69
1, 306582, Note_on_c, 0, 60, 48
1, 306583, Control_c, 0, 64, 68
1, 306584, Note_on_c, 0, 67, 63
1, 306586, Note_on_c, 0, 57, 50
1, 306597, Control_c, 0, 64, 67
1, 306610, Note_off_c, 0, 60, 61
1, 306612, Control_c, 0, 64, 66
1, 306621, Note_off_c, 0, 57, 63
1, 306624, Note_off_c, 0, 67, 55
1, 306627, Control_c, 0, 64, 65
1, 306642, Control_c, 0, 64, 63
1, 306651, Note_on_c, 0, 69, 64
1, 306657, Control_c, 0, 64, 56
1, 306672, Control_c, 0, 64, 34
1, 306681, Note_off_c, 0, 69, 66
1, 306687, Control_c, 0, 64, 0
1, 306738, Note_on_c, 0, 70, 68
1, 306744, Note_on_c, 0, 55, 60
1, 306746, Note_on_c, 0, 58, 53
1, 306772, Note_off_c, 0, 58, 56
1, 306802, Note_off_c, 0, 55, 58
1, 306802, Note_off_c, 0, 70, 62
1, 306816, Note_on_c, 0, 72, 64
1, 306887, Note_off_c, 0, 72, 48
1, 306904, Note_on_c, 0, 74, 67
1, 306914, Note_on_c, 0, 58, 36
1, 306918, Note_on_c, 0, 55, 53
1, 306928, Note_off_c, 0, 74, 70
1, 306944, Note_off_c, 0, 58, 54
1, 306959, Note_off_c, 0, 55, 62
1, 307078, Note_on_c, 0, 58, 42
1, 307078, Note_on_c, 0, 63, 70
1, 307083, Note_on_c, 0, 55, 44
1, 307105, Note_off_c, 0, 63, 66
1, 307119, Note_off_c, 0, 58, 61
1, 307120, Note_off_c, 0, 55, 61
1, 307269, Note_on_c, 0, 54, 55
1, 307270, Note_on_c, 0, 62, 74
1, 307274, Note_on_c, 0, 57, 52
1, 307288, Control_c, 0, 64, 65
1, 307302, Control_c, 0, 64, 73
1, 307307, Note_off_c, 0, 62, 64
1, 307308, Note_off_c, 0, 57, 58
1, 307308, Note_off_c, 0, 54, 60
1, 307317, Control_c, 0, 64, 78
1, 307332, Control_c, 0, 64, 81
1, 307332, Control_c, 0, 67, 121
1, 307347, Control_c, 0, 64, 83
1, 307347, Control_c, 0, 67, 99
1, 307362, Control_c, 0, 64, 84
1, 307362, Control_c, 0, 67, 76
1, 307376, Control_c, 0, 64, 84
1, 307376, Control_c, 0, 67, 54
1, 307391, Control_c, 0, 67, 36
1, 307406, Control_c, 0, 67, 24
1, 307420, Control_c, 0, 67, 16
1, 307425, Note_on_c, 0, 54, 57
1, 307432, Note_on_c, 0, 57, 39
1, 307435, Control_c, 0, 67, 10
1, 307450, Control_c, 0, 67, 0
1, 307467, Note_off_c, 0, 57, 50
1, 307470, Note_off_c, 0, 54, 59
1, 307577, Note_on_c, 0, 54, 60
1, 307582, Note_on_c, 0, 57, 46
1, 307585, Note_on_c, 0, 79, 78
1, 307604, Note_off_c, 0, 54, 64
1, 307613, Note_off_c, 0, 57, 50
1, 307623, Note_off_c, 0, 79, 57
1, 307644, Control_c, 0, 64, 83
1, 307656, Note_on_c, 0, 81, 81
1, 307658, Control_c, 0, 64, 81
1, 307673, Control_c, 0, 64, 78
1, 307688, Control_c, 0, 64, 73
1, 307692, Note_off_c, 0, 81, 59
1, 307703, Control_c, 0, 64, 68
1, 307718, Control_c, 0, 64, 61
1, 307733, Control_c, 0, 64, 0
1, 307739, Note_on_c, 0, 83, 74
1, 307746, Note_on_c, 0, 62, 64
1, 307754, Note_on_c, 0, 67, 54
1, 307782, Note_off_c, 0, 67, 56
1, 307784, Note_off_c, 0, 62, 59
1, 307802, Note_off_c, 0, 83, 60
1, 307813, Note_on_c, 0, 84, 64
1, 307856, Note_off_c, 0, 84, 59
1, 307906, Note_on_c, 0, 86, 73
1, 307915, Note_on_c, 0, 67, 48
1, 307915, Note_on_c, 0, 62, 52
1, 307928, Note_off_c, 0, 86, 69
1, 307947, Note_off_c, 0, 62, 54
1, 307952, Note_off_c, 0, 67, 59
1, 308068, Note_on_c, 0, 88, 82
1, 308069, Note_on_c, 0, 62, 42
1, 308071, Note_on_c, 0, 67, 46
1, 308073, Note_on_c, 0, 76, 77
1, 308088, Note_off_c, 0, 88, 69
1, 308096, Note_off_c, 0, 76, 72
1, 308113, Note_off_c, 0, 67, 62
1, 308114, Note_off_c, 0, 62, 52
1, 308169, Control_c, 0, 67, 8
1, 308184, Control_c, 0, 67, 8
1, 308251, Note_on_c, 0, 86, 79
1, 308256, Note_on_c, 0, 74, 69
1, 308258, Control_c, 0, 64, 56
1, 308258, Note_on_c, 0, 62, 42
1, 308266, Note_on_c, 0, 66, 46
1, 308271, Note_on_c, 0, 72, 41
1, 308273, Note_off_c, 0, 86, 69
1, 308273, Control_c, 0, 64, 72
1, 308284, Note_off_c, 0, 74, 66
1, 308287, Control_c, 0, 64, 83
1, 308296, Note_off_c, 0, 62, 48
1, 308296, Note_off_c, 0, 66, 56
1, 308299, Note_off_c, 0, 72, 49
1, 308302, Control_c, 0, 64, 95
1, 308302, Control_c, 0, 67, 8
1, 308317, Control_c, 0, 64, 101
1, 308332, Control_c, 0, 64, 103
1, 308332, Control_c, 0, 67, 0
1, 308347, Control_c, 0, 64, 104
1, 308362, Control_c, 0, 64, 105
1, 308377, Control_c, 0, 64, 106
1, 308392, Control_c, 0, 64, 107
1, 308402, Note_on_c, 0, 72, 62
1, 308410, Note_on_c, 0, 66, 61
1, 308419, Note_on_c, 0, 62, 47
1, 308431, Note_off_c, 0, 72, 66
1, 308441, Note_off_c, 0, 66, 67
1, 308444, Note_off_c, 0, 62, 61
1, 308583, Note_on_c, 0, 55, 70
1, 308586, Note_on_c, 0, 72, 64
1, 308592, Note_on_c, 0, 62, 62
1, 308597, Note_on_c, 0, 66, 60
1, 308621, Note_off_c, 0, 62, 64
1, 308622, Note_off_c, 0, 72, 67
1, 308634, Note_off_c, 0, 66, 67
1, 308657, Note_on_c, 0, 57, 68
1, 308663, Note_off_c, 0, 55, 56
1, 308681, Control_c, 0, 64, 104
1, 308696, Control_c, 0, 64, 99
1, 308711, Control_c, 0, 64, 87
1, 308723, Note_on_c, 0, 59, 68
1, 308726, Control_c, 0, 64, 75
1, 308733, Note_off_c, 0, 57, 55
1, 308740, Control_c, 0, 64, 62
1, 308744, Note_on_c, 0, 62, 68
1, 308746, Note_on_c, 0, 71, 66
1, 308755, Control_c, 0, 64, 0
1, 308758, Note_on_c, 0, 67, 57
1, 308774, Note_off_c, 0, 62, 64
1, 308784, Note_off_c, 0, 67, 65
1, 308788, Note_on_c, 0, 60, 65
1, 308790, Note_off_c, 0, 59, 63
1, 308791, Note_off_c, 0, 71, 59
1, 308833, Note_off_c, 0, 60, 57
1, 308854, Note_on_c, 0, 62, 62
1, 308874, Control_c, 0, 67, 8
1, 308884, Note_off_c, 0, 62, 64
1, 308904, Control_c, 0, 67, 8
1, 308905, Note_on_c, 0, 71, 69
1, 308908, Note_on_c, 0, 67, 60
1, 308931, Note_off_c, 0, 67, 65
1, 308934, Note_off_c, 0, 71, 62
1, 309037, Control_c, 0, 67, 9
1, 309045, Note_on_c, 0, 52, 68
1, 309046, Note_on_c, 0, 40, 62
1, 309060, Note_on_c, 0, 67, 64
1, 309062, Note_on_c, 0, 71, 61
1, 309065, Note_off_c, 0, 52, 67
1, 309073, Note_off_c, 0, 40, 63
1, 309089, Note_off_c, 0, 67, 66
1, 309092, Note_off_c, 0, 71, 64
1, 309235, Note_on_c, 0, 50, 61
1, 309235, Note_on_c, 0, 62, 59
1, 309238, Note_on_c, 0, 38, 53
1, 309238, Note_on_c, 0, 72, 57
1, 309247, Note_on_c, 0, 66, 48
1, 309258, Note_off_c, 0, 62, 62
1, 309260, Note_off_c, 0, 72, 61
1, 309260, Control_c, 0, 67, 8
1, 309272, Note_off_c, 0, 66, 60
1, 309275, Control_c, 0, 67, 8
1, 309411, Note_on_c, 0, 72, 54
1, 309411, Note_on_c, 0, 66, 56
1, 309423, Note_on_c, 0, 62, 38
1, 309425, Note_off_c, 0, 38, 58
1, 309441, Note_off_c, 0, 72, 64
1, 309442, Note_off_c, 0, 66, 67
1, 309458, Note_off_c, 0, 62, 33
1, 309460, Note_off_c, 0, 50, 62
1, 309578, Control_c, 0, 67, 0
1, 309588, Note_on_c, 0, 67, 50
1, 309596, Note_on_c, 0, 65, 44
1, 309616, Note_off_c, 0, 67, 56
1, 309621, Note_off_c, 0, 65, 53
1, 309644, Note_on_c, 0, 69, 81
1, 309725, Note_off_c, 0, 69, 64
1, 309726, Note_on_c, 0, 71, 75
1, 309755, Note_on_c, 0, 55, 75
1, 309799, Note_on_c, 0, 72, 74
1, 309802, Note_off_c, 0, 71, 62
1, 309879, Note_on_c, 0, 74, 69
1, 309880, Note_off_c, 0, 72, 65
1, 309903, Note_off_c, 0, 74, 71
1, 309956, Note_off_c, 0, 55, 60
1, 310037, Note_on_c, 0, 79, 85
1, 310043, Note_on_c, 0, 74, 73
1, 310070, Note_off_c, 0, 74, 62
1, 310116, Note_on_c, 0, 81, 71
1, 310117, Note_on_c, 0, 78, 77
1, 310119, Note_off_c, 0, 79, 59
1, 310140, Note_off_c, 0, 78, 67
1, 310151, Note_off_c, 0, 81, 60
1, 310210, Note_on_c, 0, 83, 86
1, 310215, Note_on_c, 0, 55, 76
1, 310216, Note_on_c, 0, 79, 79
1, 310240, Note_off_c, 0, 79, 62
1, 310258, Note_off_c, 0, 83, 55
1, 310285, Note_on_c, 0, 81, 75
1, 310288, Note_on_c, 0, 84, 62
1, 310333, Note_off_c, 0, 55, 64
1, 310337, Note_off_c, 0, 84, 47
1, 310351, Note_on_c, 0, 86, 73
1, 310353, Note_off_c, 0, 81, 54
1, 310359, Note_on_c, 0, 83, 76
1, 310381, Note_off_c, 0, 83, 64
1, 310384, Note_off_c, 0, 86, 61
1, 310490, Control_c, 0, 67, 8
1, 310507, Note_on_c, 0, 83, 74
1, 310508, Note_on_c, 0, 79, 76
1, 310514, Note_on_c, 0, 67, 73
1, 310556, Note_off_c, 0, 79, 55
1, 310567, Note_off_c, 0, 67, 55
1, 310578, Note_on_c, 0, 81, 71
1, 310578, Note_on_c, 0, 84, 73
1, 310578, Note_off_c, 0, 83, 60
1, 310580, Note_on_c, 0, 66, 70
1, 310594, Control_c, 0, 67, 0
1, 310597, Note_off_c, 0, 66, 62
1, 310599, Note_off_c, 0, 81, 69
1, 310623, Note_off_c, 0, 84, 64
1, 310682, Note_on_c, 0, 83, 80
1, 310684, Note_on_c, 0, 86, 78
1, 310690, Note_on_c, 0, 55, 64
1, 310690, Note_on_c, 0, 65, 29
1, 310691, Note_off_c, 0, 65, 127
1, 310711, Note_off_c, 0, 83, 55
1, 310720, Note_off_c, 0, 86, 49
1, 310741, Note_on_c, 0, 84, 77
1, 310745, Note_on_c, 0, 64, 64
1, 310745, Note_on_c, 0, 88, 70
1, 310785, Note_off_c, 0, 88, 57
1, 310788, Note_off_c, 0, 84, 65
1, 310830, Note_on_c, 0, 62, 79
1, 310830, Note_on_c, 0, 86, 80
1, 310830, Note_on_c, 0, 89, 78
1, 310839, Note_off_c, 0, 64, 64
1, 310870, Note_off_c, 0, 89, 64
1, 310875, Note_off_c, 0, 86, 64
1, 310899, Note_off_c, 0, 62, 61
1, 310973, Control_c, 0, 67, 8
1, 310988, Control_c, 0, 67, 8
1, 311001, Note_on_c, 0, 65, 81
1, 311009, Note_on_c, 0, 83, 73
1, 311009, Note_on_c, 0, 86, 71
1, 311054, Note_off_c, 0, 83, 53
1, 311059, Note_off_c, 0, 65, 64
1, 311067, Note_on_c, 0, 84, 68
1, 311070, Note_on_c, 0, 64, 74
1, 311075, Note_off_c, 0, 55, 0
1, 311075, Note_on_c, 0, 55, 9
1, 311077, Note_off_c, 0, 86, 63
1, 311078, Note_on_c, 0, 88, 73
1, 311103, Note_off_c, 0, 84, 65
1, 311113, Note_off_c, 0, 64, 60
1, 311122, Note_off_c, 0, 88, 63
1, 311165, Note_on_c, 0, 62, 74
1, 311178, Note_on_c, 0, 86, 83
1, 311181, Note_on_c, 0, 89, 82
1, 311213, Note_off_c, 0, 89, 55
1, 311214, Note_off_c, 0, 86, 61
1, 311246, Note_off_c, 0, 62, 60
1, 311250, Note_on_c, 0, 60, 70
1, 311250, Note_on_c, 0, 88, 70
1, 311256, Note_on_c, 0, 91, 62
1, 311310, Note_off_c, 0, 88, 44
1, 311317, Note_on_c, 0, 89, 77
1, 311319, Note_on_c, 0, 59, 74
1, 311328, Control_c, 0, 67, 9
1, 311329, Note_off_c, 0, 91, 54
1, 311331, Note_on_c, 0, 93, 71
1, 311331, Note_off_c, 0, 60, 54
1, 311352, Note_off_c, 0, 59, 62
1, 311358, Note_off_c, 0, 93, 64
1, 311359, Note_off_c, 0, 55, 42
1, 311363, Note_off_c, 0, 89, 63
1, 311470, Note_on_c, 0, 59, 77
1, 311474, Note_on_c, 0, 89, 80
1, 311475, Note_on_c, 0, 93, 80
1, 311487, Note_on_c, 0, 55, 55
1, 311498, Note_off_c, 0, 89, 66
1, 311543, Note_on_c, 0, 88, 74
1, 311543, Note_on_c, 0, 91, 70
1, 311546, Note_off_c, 0, 93, 59
1, 311550, Note_off_c, 0, 59, 53
1, 311552, Note_on_c, 0, 60, 69
1, 311552, Control_c, 0, 67, 8
1, 311562, Note_off_c, 0, 55, 62
1, 311572, Note_on_c, 0, 57, 50
1, 311575, Note_off_c, 0, 88, 61
1, 311601, Note_off_c, 0, 60, 60
1, 311605, Note_off_c, 0, 57, 62
1, 311617, Note_on_c, 0, 62, 58
1, 311623, Note_on_c, 0, 89, 67
1, 311626, Note_on_c, 0, 86, 72
1, 311629, Note_off_c, 0, 91, 56
1, 311643, Note_off_c, 0, 62, 63
1, 311648, Note_off_c, 0, 86, 69
1, 311649, Note_off_c, 0, 89, 67
1, 311701, Note_on_c, 0, 64, 75
1, 311703, Note_on_c, 0, 88, 83
1, 311706, Note_on_c, 0, 84, 83
1, 311715, Note_on_c, 0, 60, 65
1, 311745, Note_off_c, 0, 84, 64
1, 311756, Note_off_c, 0, 64, 59
1, 311760, Note_off_c, 0, 88, 54
1, 311780, Note_off_c, 0, 60, 59
1, 311784, Note_on_c, 0, 65, 70
1, 311787, Note_on_c, 0, 62, 49
1, 311789, Note_on_c, 0, 86, 78
1, 311793, Note_on_c, 0, 83, 76
1, 311811, Note_off_c, 0, 62, 57
1, 311814, Note_off_c, 0, 65, 67
1, 311829, Note_off_c, 0, 86, 64
1, 311832, Note_off_c, 0, 83, 60
1, 311885, Control_c, 0, 67, 9
1, 311948, Note_on_c, 0, 89, 81
1, 311951, Note_on_c, 0, 56, 55
1, 311954, Note_on_c, 0, 86, 76
1, 311955, Note_on_c, 0, 59, 65
1, 311973, Note_off_c, 0, 86, 70
1, 312002, Note_off_c, 0, 56, 57
1, 312004, Control_c, 0, 67, 8
1, 312018, Note_off_c, 0, 89, 63
1, 312020, Note_on_c, 0, 88, 71
1, 312022, Note_on_c, 0, 84, 80
1, 312041, Note_off_c, 0, 59, 61
1, 312048, Control_c, 0, 67, 8
1, 312054, Note_on_c, 0, 62, 65
1, 312054, Note_off_c, 0, 84, 61
1, 312063, Control_c, 0, 67, 0
1, 312071, Note_on_c, 0, 60, 26
1, 312073, Note_off_c, 0, 88, 52
1, 312087, Note_off_c, 0, 62, 62
1, 312097, Note_on_c, 0, 83, 75
1, 312106, Note_off_c, 0, 60, 31
1, 312124, Note_off_c, 0, 83, 63
1, 312151, Note_on_c, 0, 64, 56
1, 312172, Note_on_c, 0, 60, 42
1, 312182, Note_on_c, 0, 84, 74
1, 312189, Note_on_c, 0, 81, 73
1, 312226, Note_off_c, 0, 81, 54
1, 312227, Note_off_c, 0, 64, 63
1, 312240, Note_off_c, 0, 84, 61
1, 312253, Note_off_c, 0, 60, 57
1, 312273, Note_on_c, 0, 62, 61
1, 312275, Note_on_c, 0, 65, 63
1, 312279, Note_on_c, 0, 83, 61
1, 312285, Control_c, 0, 67, 8
1, 312285, Note_on_c, 0, 80, 73
1, 312300, Control_c, 0, 67, 8
1, 312308, Note_off_c, 0, 65, 66
1, 312332, Note_off_c, 0, 80, 63
1, 312336, Note_off_c, 0, 83, 61
1, 312338, Note_off_c, 0, 62, 62
1, 312345, Control_c, 0, 67, 9
1, 312515, Control_c, 0, 67, 8
1, 312543, Note_on_c, 0, 69, 78
1, 312544, Note_on_c, 0, 52, 69
1, 312606, Note_off_c, 0, 69, 48
1, 312608, Note_off_c, 0, 52, 63
1, 312610, Note_on_c, 0, 50, 75
1, 312621, Note_on_c, 0, 71, 85
1, 312687, Note_on_c, 0, 48, 74
1, 312692, Note_on_c, 0, 72, 78
1, 312693, Control_c, 0, 67, 8
1, 312699, Note_off_c, 0, 71, 59
1, 312713, Note_off_c, 0, 50, 63
1, 312756, Note_on_c, 0, 47, 72
1, 312766, Note_on_c, 0, 74, 73
1, 312774, Note_off_c, 0, 72, 65
1, 312779, Note_off_c, 0, 48, 65
1, 312851, Note_on_c, 0, 76, 74
1, 312852, Note_on_c, 0, 45, 80
1, 312858, Note_off_c, 0, 74, 65
1, 312867, Note_off_c, 0, 47, 65
1, 312870, Control_c, 0, 67, 8
1, 312875, Note_off_c, 0, 76, 66
1, 312881, Note_off_c, 0, 45, 69
1, 312929, Control_c, 0, 67, 9
1, 313000, Note_on_c, 0, 76, 77
1, 313000, Note_on_c, 0, 81, 80
1, 313018, Control_c, 0, 67, 8
1, 313019, Note_on_c, 0, 64, 80
1, 313048, Control_c, 0, 67, 8
1, 313052, Note_off_c, 0, 76, 54
1, 313063, Control_c, 0, 67, 0
1, 313069, Note_on_c, 0, 80, 75
1, 313070, Note_off_c, 0, 81, 60
1, 313073, Note_on_c, 0, 83, 65
1, 313082, Note_on_c, 0, 62, 78
1, 313086, Note_off_c, 0, 64, 61
1, 313114, Note_off_c, 0, 80, 64
1, 313120, Note_off_c, 0, 83, 61
1, 313165, Note_on_c, 0, 60, 75
1, 313184, Note_on_c, 0, 81, 78
1, 313185, Note_on_c, 0, 84, 79
1, 313200, Note_off_c, 0, 62, 62
1, 313234, Note_on_c, 0, 59, 69
1, 313241, Note_off_c, 0, 81, 60
1, 313245, Note_off_c, 0, 84, 64
1, 313248, Note_on_c, 0, 83, 68
1, 313255, Note_on_c, 0, 86, 56
1, 313267, Note_off_c, 0, 60, 62
1, 313320, Note_off_c, 0, 83, 46
1, 313322, Note_on_c, 0, 88, 75
1, 313325, Note_on_c, 0, 57, 86
1, 313326, Note_off_c, 0, 86, 41
1, 313331, Note_on_c, 0, 84, 77
1, 313345, Note_off_c, 0, 59, 63
1, 313350, Note_off_c, 0, 84, 72
1, 313350, Note_off_c, 0, 88, 61
1, 313364, Note_off_c, 0, 57, 65
1, 313427, Control_c, 0, 67, 8
1, 313441, Control_c, 0, 67, 9
1, 313456, Control_c, 0, 67, 10
1, 313471, Control_c, 0, 67, 10
1, 313483, Note_on_c, 0, 76, 83
1, 313486, Control_c, 0, 67, 11
1, 313498, Note_on_c, 0, 79, 67
1, 313501, Control_c, 0, 67, 11
1, 313539, Note_off_c, 0, 76, 50
1, 313545, Control_c, 0, 67, 11
1, 313550, Note_on_c, 0, 78, 77
1, 313554, Note_off_c, 0, 79, 60
1, 313560, Control_c, 0, 64, 38
1, 313560, Control_c, 0, 67, 9
1, 313575, Control_c, 0, 64, 71
1, 313575, Control_c, 0, 67, 8
1, 313585, Note_on_c, 0, 75, 53
1, 313590, Control_c, 0, 64, 92
1, 313590, Control_c, 0, 67, 0
1, 313604, Control_c, 0, 64, 127
1, 313606, Note_off_c, 0, 75, 58
1, 313628, Note_off_c, 0, 78, 62
1, 313632, Note_on_c, 0, 76, 76
1, 313637, Note_on_c, 0, 67, 91
1, 313641, Note_on_c, 0, 79, 71
1, 313643, Note_on_c, 0, 61, 74
1, 313644, Note_on_c, 0, 58, 72
1, 313646, Note_on_c, 0, 64, 72
1, 313682, Note_off_c, 0, 58, 56
1, 313685, Note_off_c, 0, 67, 60
1, 313687, Note_off_c, 0, 76, 64
1, 313688, Note_on_c, 0, 78, 72
1, 313689, Note_on_c, 0, 75, 72
1, 313689, Note_off_c, 0, 64, 50
1, 313715, Note_off_c, 0, 61, 53
1, 313716, Note_off_c, 0, 79, 59
1, 313724, Note_off_c, 0, 75, 61
1, 313776, Note_on_c, 0, 76, 69
1, 313786, Note_on_c, 0, 67, 87
1, 313789, Note_off_c, 0, 78, 52
1, 313791, Note_on_c, 0, 79, 45
1, 313793, Note_on_c, 0, 58, 72
1, 313797, Note_on_c, 0, 61, 58
1, 313798, Note_on_c, 0, 64, 67
1, 313798, Note_off_c, 0, 76, 71
1, 313805, Note_off_c, 0, 67, 71
1, 313815, Note_off_c, 0, 79, 59
1, 313825, Note_off_c, 0, 64, 67
1, 313830, Note_off_c, 0, 58, 61
1, 313831, Note_off_c, 0, 61, 61
1, 313966, Note_on_c, 0, 88, 84
1, 313967, Note_on_c, 0, 91, 81
1, 314001, Note_off_c, 0, 88, 0
1, 314030, Note_on_c, 0, 90, 77
1, 314030, Poly_aftertouch_c, 0, 88, 0
1, 314041, Note_off_c, 0, 91, 61
1, 314042, Note_on_c, 0, 87, 75
1, 314069, Note_off_c, 0, 87, 59
1, 314106, Note_on_c, 0, 91, 71
1, 314106, Note_on_c, 0, 67, 84
1, 314111, Note_on_c, 0, 88, 63
1, 314114, Note_on_c, 0, 58, 69
1, 314117, Note_on_c, 0, 61, 68
1, 314118, Note_on_c, 0, 64, 66
1, 314131, Note_off_c, 0, 67, 55
1, 314150, Note_off_c, 0, 64, 59
1, 314153, Note_off_c, 0, 61, 52
1, 314154, Note_off_c, 0, 88, 57
1, 314155, Note_off_c, 0, 58, 48
1, 314169, Note_off_c, 0, 91, 59
1, 314172, Note_on_c, 0, 87, 72
1, 314211, Note_off_c, 0, 87, 57
1, 314215, Note_off_c, 0, 90, 62
1, 314246, Note_on_c, 0, 91, 80
1, 314250, Note_on_c, 0, 88, 82
1, 314261, Note_on_c, 0, 61, 55
1, 314261, Note_on_c, 0, 67, 79
1, 314274, Note_on_c, 0, 58, 52
1, 314274, Note_on_c, 0, 64, 52
1, 314282, Note_off_c, 0, 88, 61
1, 314283, Note_off_c, 0, 67, 69
1, 314288, Note_off_c, 0, 61, 64
1, 314291, Note_off_c, 0, 91, 62
1, 314292, Note_off_c, 0, 64, 61
1, 314296, Note_off_c, 0, 58, 58
1, 314436, Note_on_c, 0, 71, 67
1, 314499, Note_on_c, 0, 73, 71
1, 314501, Control_c, 0, 64, 120
1, 314516, Control_c, 0, 64, 104
1, 314525, Note_off_c, 0, 71, 57
1, 314531, Control_c, 0, 64, 92
1, 314531, Control_c, 0, 67, 8
1, 314546, Control_c, 0, 64, 79
1, 314546, Control_c, 0, 67, 8
1, 314560, Control_c, 0, 64, 68
1, 314575, Note_on_c, 0, 83, 78
1, 314575, Note_off_c, 0, 73, 64
1, 314575, Control_c, 0, 64, 49
1, 314590, Control_c, 0, 64, 0
1, 314598, Note_on_c, 0, 75, 52
1, 314628, Note_off_c, 0, 75, 60
1, 314646, Note_on_c, 0, 76, 67
1, 314654, Note_on_c, 0, 85, 78
1, 314661, Note_off_c, 0, 83, 57
1, 314684, Note_off_c, 0, 76, 62
1, 314716, Control_c, 0, 67, 9
1, 314732, Note_on_c, 0, 87, 79
1, 314734, Note_on_c, 0, 78, 70
1, 314741, Note_off_c, 0, 85, 63
1, 314750, Note_off_c, 0, 78, 65
1, 314813, Note_on_c, 0, 88, 69
1, 314820, Note_off_c, 0, 87, 63
1, 314850, Control_c, 0, 67, 8
1, 314893, Note_on_c, 0, 59, 70
1, 314893, Note_off_c, 0, 88, 62
1, 314896, Note_on_c, 0, 90, 60
1, 314914, Note_off_c, 0, 90, 62
1, 314939, Control_c, 0, 67, 9
1, 314950, Note_on_c, 0, 61, 70
1, 314962, Note_off_c, 0, 59, 60
1, 315023, Note_off_c, 0, 61, 63
1, 315025, Note_on_c, 0, 63, 68
1, 315051, Note_on_c, 0, 71, 77
1, 315066, Note_off_c, 0, 63, 63
1, 315099, Note_on_c, 0, 64, 64
1, 315120, Note_on_c, 0, 73, 70
1, 315133, Note_off_c, 0, 71, 58
1, 315164, Note_off_c, 0, 64, 36
1, 315178, Note_on_c, 0, 66, 71
1, 315191, Note_on_c, 0, 75, 70
1, 315191, Note_off_c, 0, 73, 61
1, 315196, Note_off_c, 0, 66, 68
1, 315262, Note_on_c, 0, 76, 68
1, 315263, Note_off_c, 0, 75, 65
1, 315280, Control_c, 0, 67, 8
1, 315295, Control_c, 0, 67, 0
1, 315334, Note_on_c, 0, 47, 65
1, 315338, Note_on_c, 0, 78, 66
1, 315342, Note_off_c, 0, 76, 62
1, 315364, Note_off_c, 0, 78, 66
1, 315406, Control_c, 0, 67, 8
1, 315406, Note_on_c, 0, 49, 71
1, 315425, Note_off_c, 0, 47, 61
1, 315484, Note_on_c, 0, 51, 67
1, 315489, Note_off_c, 0, 49, 62
1, 315508, Note_on_c, 0, 59, 69
1, 315533, Note_off_c, 0, 51, 61
1, 315569, Note_off_c, 0, 59, 58
1, 315573, Note_on_c, 0, 61, 70
1, 315574, Note_on_c, 0, 52, 58
1, 315629, Note_off_c, 0, 52, 56
1, 315641, Note_on_c, 0, 54, 68
1, 315644, Note_off_c, 0, 61, 63
1, 315646, Note_on_c, 0, 63, 70
1, 315659, Note_off_c, 0, 54, 63
1, 315711, Note_off_c, 0, 63, 64
1, 315713, Note_on_c, 0, 64, 64
1, 315733, Control_c, 0, 67, 0
1, 315796, Note_on_c, 0, 66, 60
1, 315799, Note_off_c, 0, 64, 62
1, 315801, Note_on_c, 0, 35, 63
1, 315814, Note_off_c, 0, 66, 65
1, 315869, Note_on_c, 0, 37, 70
1, 315881, Control_c, 0, 67, 8
1, 315892, Note_off_c, 0, 35, 63
1, 315942, Note_on_c, 0, 47, 68
1, 315947, Note_on_c, 0, 39, 64
1, 315952, Note_off_c, 0, 37, 65
1, 315999, Note_off_c, 0, 47, 46
1, 316012, Note_off_c, 0, 39, 63
1, 316018, Note_on_c, 0, 40, 69
1, 316032, Note_on_c, 0, 49, 54
1, 316044, Control_c, 0, 67, 0
1, 316061, Note_off_c, 0, 40, 61
1, 316083, Note_off_c, 0, 49, 62
1, 316094, Note_on_c, 0, 51, 63
1, 316106, Note_on_c, 0, 42, 71
1, 316133, Note_off_c, 0, 42, 66
1, 316137, Note_off_c, 0, 51, 62
1, 316177, Note_on_c, 0, 52, 66
1, 316252, Note_off_c, 0, 52, 58
1, 316258, Note_on_c, 0, 54, 64
1, 316309, Note_off_c, 0, 54, 60
1, 316322, Note_on_c, 0, 55, 67
1, 316355, Note_off_c, 0, 55, 65
1, 316410, Note_on_c, 0, 57, 59
1, 316461, Note_off_c, 0, 57, 53
1, 316475, Note_on_c, 0, 59, 62
1, 316535, Note_off_c, 0, 59, 61
1, 316543, Note_on_c, 0, 61, 65
1, 316600, Note_off_c, 0, 61, 63
1, 316616, Note_on_c, 0, 63, 62
1, 316647, Note_off_c, 0, 63, 68
1, 316696, Note_on_c, 0, 64, 65
1, 316749, Note_off_c, 0, 64, 59
1, 316768, Note_on_c, 0, 66, 66
1, 316823, Note_off_c, 0, 66, 50
1, 316841, Note_on_c, 0, 67, 64
1, 316878, Note_off_c, 0, 67, 66
1, 316922, Note_on_c, 0, 69, 73
1, 316964, Note_off_c, 0, 69, 60
1, 316999, Note_on_c, 0, 70, 70
1, 317071, Note_off_c, 0, 70, 62
1, 317077, Note_on_c, 0, 71, 61
1, 317145, Note_on_c, 0, 72, 65
1, 317147, Note_off_c, 0, 71, 62
1, 317209, Note_on_c, 0, 71, 62
1, 317211, Note_off_c, 0, 72, 53
1, 317293, Note_on_c, 0, 70, 70
1, 317297, Note_off_c, 0, 71, 61
1, 317341, Note_off_c, 0, 70, 62
1, 317361, Note_on_c, 0, 69, 62
1, 317400, Note_off_c, 0, 69, 65
1, 317440, Note_on_c, 0, 68, 66
1, 317484, Note_off_c, 0, 68, 64
1, 317509, Note_on_c, 0, 67, 51
1, 317549, Note_off_c, 0, 67, 61
1, 317581, Note_on_c, 0, 66, 65
1, 317665, Note_on_c, 0, 65, 66
1, 317674, Note_off_c, 0, 66, 56
1, 317728, Note_off_c, 0, 65, 65
1, 317747, Note_on_c, 0, 64, 54
1, 317785, Note_off_c, 0, 64, 61
1, 317817, Note_on_c, 0, 63, 63
1, 317854, Note_off_c, 0, 63, 61
1, 317887, Note_on_c, 0, 62, 54
1, 317928, Note_off_c, 0, 62, 60
1, 317965, Note_on_c, 0, 61, 63
1, 318038, Note_off_c, 0, 61, 61
1, 318041, Note_on_c, 0, 60, 60
1, 318086, Note_off_c, 0, 60, 62
1, 318118, Note_on_c, 0, 59, 49
1, 318160, Note_off_c, 0, 59, 58
1, 318199, Note_on_c, 0, 58, 61
1, 318236, Note_off_c, 0, 58, 64
1, 318282, Note_on_c, 0, 57, 54
1, 318331, Note_off_c, 0, 57, 52
1, 318387, Note_on_c, 0, 55, 52
1, 318448, Note_off_c, 0, 55, 60
1, 318468, Note_on_c, 0, 54, 56
1, 318497, Note_off_c, 0, 54, 63
1, 318678, Note_on_c, 0, 52, 59
1, 318683, Note_on_c, 0, 40, 46
1, 318709, Note_off_c, 0, 52, 60
1, 318747, Note_off_c, 0, 40, 60
1, 318758, Note_on_c, 0, 42, 54
1, 318758, Note_on_c, 0, 54, 55
1, 318789, Note_off_c, 0, 54, 63
1, 318831, Note_off_c, 0, 42, 58
1, 318837, Note_on_c, 0, 43, 54
1, 318837, Note_on_c, 0, 55, 62
1, 318882, Note_off_c, 0, 55, 60
1, 318892, Note_off_c, 0, 43, 61
1, 318906, Note_on_c, 0, 45, 56
1, 318912, Note_on_c, 0, 57, 56
1, 318950, Note_off_c, 0, 45, 60
1, 318953, Note_off_c, 0, 57, 59
1, 318994, Note_on_c, 0, 59, 61
1, 319005, Note_on_c, 0, 47, 52
1, 319016, Note_off_c, 0, 59, 64
1, 319033, Note_off_c, 0, 47, 58
1, 319176, Note_on_c, 0, 60, 78
1, 319183, Note_on_c, 0, 48, 64
1, 319189, Note_on_c, 0, 36, 53
1, 319199, Note_off_c, 0, 60, 67
1, 319204, Note_off_c, 0, 48, 63
1, 319217, Note_off_c, 0, 36, 57
1, 319297, Control_c, 0, 67, 8
1, 319342, Control_c, 0, 67, 8
1, 319400, Control_c, 0, 67, 8
1, 319403, Note_on_c, 0, 59, 57
1, 319406, Note_on_c, 0, 47, 56
1, 319416, Note_on_c, 0, 35, 52
1, 319430, Control_c, 0, 64, 62
1, 319445, Control_c, 0, 64, 77
1, 319445, Control_c, 0, 67, 0
1, 319448, Note_off_c, 0, 47, 57
1, 319458, Note_off_c, 0, 35, 63
1, 319460, Control_c, 0, 64, 95
1, 319475, Control_c, 0, 64, 126
1, 319490, Control_c, 0, 64, 127
1, 319495, Note_off_c, 0, 59, 61
1, 319804, Note_on_c, 0, 40, 60
1, 319806, Note_on_c, 0, 52, 62
1, 319831, Control_c, 0, 64, 117
1, 319833, Note_off_c, 0, 52, 67
1, 319853, Control_c, 0, 64, 99
1, 319868, Control_c, 0, 64, 82
1, 319880, Note_off_c, 0, 40, 61
1, 319883, Control_c, 0, 64, 66
1, 319886, Note_on_c, 0, 42, 62
1, 319887, Note_on_c, 0, 54, 68
1, 319898, Control_c, 0, 64, 0
1, 319915, Note_off_c, 0, 54, 65
1, 319943, Control_c, 0, 67, 8
1, 319963, Note_on_c, 0, 43, 62
1, 319965, Note_on_c, 0, 55, 66
1, 319969, Note_off_c, 0, 42, 55
1, 319972, Control_c, 0, 67, 8
1, 320029, Note_off_c, 0, 55, 60
1, 320030, Note_on_c, 0, 45, 66
1, 320035, Note_off_c, 0, 43, 61
1, 320038, Note_on_c, 0, 57, 67
1, 320046, Control_c, 0, 67, 8
1, 320074, Note_off_c, 0, 57, 62
1, 320088, Note_off_c, 0, 45, 59
1, 320127, Note_on_c, 0, 59, 72
1, 320135, Control_c, 0, 67, 8
1, 320138, Note_on_c, 0, 47, 62
1, 320151, Note_off_c, 0, 59, 66
1, 320166, Note_off_c, 0, 47, 66
1, 320299, Note_on_c, 0, 60, 78
1, 320306, Note_on_c, 0, 48, 71
1, 320310, Note_on_c, 0, 36, 62
1, 320324, Note_off_c, 0, 60, 67
1, 320335, Note_off_c, 0, 48, 66
1, 320342, Note_off_c, 0, 36, 64
1, 320402, Control_c, 0, 67, 9
1, 320461, Control_c, 0, 67, 9
1, 320505, Note_on_c, 0, 59, 78
1, 320518, Note_on_c, 0, 47, 75
1, 320521, Control_c, 0, 67, 9
1, 320527, Note_on_c, 0, 35, 61
1, 320551, Control_c, 0, 64, 56
1, 320551, Note_off_c, 0, 47, 64
1, 320558, Note_off_c, 0, 35, 64
1, 320566, Control_c, 0, 64, 75
1, 320566, Control_c, 0, 67, 8
1, 320569, Note_off_c, 0, 59, 62
1, 320581, Control_c, 0, 64, 90
1, 320602, Control_c, 0, 64, 110
1, 320617, Control_c, 0, 64, 127
1, 320617, Control_c, 0, 67, 8
1, 320661, Control_c, 0, 67, 0
1, 320888, Note_on_c, 0, 64, 70
1, 320890, Note_on_c, 0, 52, 61
1, 320916, Note_off_c, 0, 64, 66
1, 320921, Note_off_c, 0, 52, 67
1, 320943, Control_c, 0, 64, 122
1, 320954, Note_on_c, 0, 60, 70
1, 320958, Control_c, 0, 64, 100
1, 320964, Note_on_c, 0, 48, 70
1, 320972, Control_c, 0, 64, 83
1, 320972, Control_c, 0, 67, 8
1, 320983, Note_off_c, 0, 60, 63
1, 320987, Control_c, 0, 64, 66
1, 320987, Control_c, 0, 67, 8
1, 321002, Control_c, 0, 64, 0
1, 321017, Control_c, 0, 67, 9
1, 321020, Note_off_c, 0, 48, 64
1, 321032, Note_on_c, 0, 47, 68
1, 321033, Note_on_c, 0, 59, 76
1, 321056, Note_off_c, 0, 47, 67
1, 321063, Note_off_c, 0, 59, 65
1, 321207, Note_on_c, 0, 67, 83
1, 321207, Note_on_c, 0, 55, 68
1, 321237, Note_off_c, 0, 67, 58
1, 321241, Note_off_c, 0, 55, 65
1, 321274, Note_on_c, 0, 60, 70
1, 321292, Note_on_c, 0, 48, 60
1, 321299, Control_c, 0, 67, 8
1, 321348, Note_off_c, 0, 48, 63
1, 321351, Note_off_c, 0, 60, 37
1, 321362, Note_on_c, 0, 59, 80
1, 321364, Note_on_c, 0, 47, 73
1, 321366, Control_c, 0, 67, 9
1, 321385, Note_off_c, 0, 59, 68
1, 321391, Note_off_c, 0, 47, 65
1, 321499, Control_c, 0, 67, 9
1, 321525, Note_on_c, 0, 71, 80
1, 321529, Note_on_c, 0, 59, 67
1, 321544, Control_c, 0, 67, 9
1, 321555, Note_off_c, 0, 59, 64
1, 321560, Note_off_c, 0, 71, 59
1, 321590, Note_on_c, 0, 60, 75
1, 321606, Note_on_c, 0, 48, 69
1, 321660, Note_off_c, 0, 48, 63
1, 321668, Note_on_c, 0, 47, 77
1, 321668, Note_off_c, 0, 60, 64
1, 321670, Note_on_c, 0, 59, 76
1, 321699, Note_off_c, 0, 59, 67
1, 321704, Note_off_c, 0, 47, 65
1, 321830, Note_on_c, 0, 72, 81
1, 321836, Note_on_c, 0, 60, 67
1, 321859, Note_off_c, 0, 72, 62
1, 321861, Note_off_c, 0, 60, 66
1, 321903, Note_on_c, 0, 60, 69
1, 321926, Note_on_c, 0, 48, 60
1, 321963, Note_off_c, 0, 60, 62
1, 321973, Note_on_c, 0, 59, 82
1, 321973, Note_off_c, 0, 48, 65
1, 321976, Note_on_c, 0, 47, 82
1, 322004, Note_off_c, 0, 59, 65
1, 322013, Note_off_c, 0, 47, 66
1, 322164, Note_on_c, 0, 76, 83
1, 322167, Note_on_c, 0, 64, 82
1, 322187, Note_off_c, 0, 76, 67
1, 322190, Control_c, 0, 67, 8
1, 322193, Note_off_c, 0, 64, 67
1, 322338, Control_c, 0, 67, 9
1, 322345, Note_on_c, 0, 59, 89
1, 322357, Note_on_c, 0, 47, 67
1, 322380, Note_off_c, 0, 59, 65
1, 322384, Note_off_c, 0, 47, 66
1, 322564, Note_on_c, 0, 58, 92
1, 322571, Note_on_c, 0, 46, 93
1, 322575, Control_c, 0, 67, 9
1, 322619, Control_c, 0, 64, 63
1, 322634, Control_c, 0, 64, 80
1, 322634, Control_c, 0, 67, 8
1, 322649, Control_c, 0, 64, 103
1, 322649, Control_c, 0, 67, 0
1, 322664, Control_c, 0, 64, 127
1, 322665, Note_off_c, 0, 58, 63
1, 322673, Note_off_c, 0, 46, 62
1, 322924, Control_c, 0, 64, 112
1, 322939, Control_c, 0, 64, 89
1, 322954, Control_c, 0, 64, 69
1, 322968, Control_c, 0, 64, 0
1, 323145, Control_c, 0, 67, 8
1, 323160, Control_c, 0, 67, 8
1, 323174, Control_c, 0, 67, 9
1, 323234, Note_on_c, 0, 79, 87
1, 323235, Note_on_c, 0, 70, 95
1, 323235, Note_on_c, 0, 82, 87
1, 323237, Note_on_c, 0, 76, 80
1, 323239, Note_on_c, 0, 48, 96
1, 323247, Note_on_c, 0, 36, 77
1, 323249, Control_c, 0, 67, 8
1, 323264, Control_c, 0, 64, 67
1, 323278, Control_c, 0, 64, 83
1, 323278, Control_c, 0, 67, 8
1, 323293, Control_c, 0, 64, 113
1, 323293, Control_c, 0, 67, 0
1, 323308, Control_c, 0, 64, 127
1, 323526, Note_off_c, 0, 70, 58
1, 323535, Note_off_c, 0, 76, 54
1, 323545, Note_off_c, 0, 48, 59
1, 323547, Note_off_c, 0, 82, 62
1, 323549, Note_off_c, 0, 79, 49
1, 323574, Note_off_c, 0, 36, 61
1, 323788, Note_on_c, 0, 83, 60
1, 323790, Control_c, 0, 64, 122
1, 323791, Note_on_c, 0, 47, 71
1, 323792, Note_on_c, 0, 35, 66
1, 323793, Note_on_c, 0, 71, 63
1, 323805, Control_c, 0, 64, 99
1, 323806, Note_off_c, 0, 83, 62
1, 323820, Control_c, 0, 64, 81
1, 323821, Note_off_c, 0, 35, 65
1, 323822, Note_on_c, 0, 79, 19
1, 323830, Note_off_c, 0, 47, 60
1, 323833, Note_off_c, 0, 71, 60
1, 323835, Control_c, 0, 64, 68
1, 323850, Control_c, 0, 64, 39
1, 323852, Note_off_c, 0, 79, 32
1, 323864, Control_c, 0, 64, 0
1, 323938, Control_c, 0, 67, 8
1, 323953, Control_c, 0, 67, 8
1, 323965, Note_on_c, 0, 51, 68
1, 323983, Note_on_c, 0, 63, 55
1, 323997, Control_c, 0, 67, 9
1, 324017, Note_off_c, 0, 63, 49
1, 324029, Note_off_c, 0, 51, 60
1, 324070, Note_on_c, 0, 64, 63
1, 324071, Control_c, 0, 67, 8
1, 324077, Note_on_c, 0, 52, 62
1, 324099, Note_off_c, 0, 64, 66
1, 324104, Note_off_c, 0, 52, 68
1, 324152, Note_on_c, 0, 54, 74
1, 324158, Note_on_c, 0, 66, 68
1, 324200, Note_off_c, 0, 54, 60
1, 324229, Note_off_c, 0, 66, 63
1, 324232, Note_on_c, 0, 67, 61
1, 324237, Note_on_c, 0, 55, 62
1, 324252, Note_off_c, 0, 67, 63
1, 324264, Note_off_c, 0, 55, 67
1, 324313, Note_on_c, 0, 58, 78
1, 324323, Note_on_c, 0, 70, 72
1, 324369, Note_off_c, 0, 70, 63
1, 324372, Note_off_c, 0, 58, 64
1, 324400, Note_on_c, 0, 71, 64
1, 324413, Note_on_c, 0, 59, 59
1, 324418, Note_off_c, 0, 71, 65
1, 324431, Note_off_c, 0, 59, 62
1, 324489, Note_on_c, 0, 63, 82
1, 324516, Note_on_c, 0, 74, 45
1, 324537, Note_off_c, 0, 74, 60
1, 324550, Note_off_c, 0, 63, 64
1, 324573, Note_on_c, 0, 64, 71
1, 324584, Control_c, 0, 67, 8
1, 324599, Control_c, 0, 67, 0
1, 324602, Note_off_c, 0, 64, 65
1, 324642, Note_on_c, 0, 66, 81
1, 324657, Note_on_c, 0, 78, 73
1, 324685, Note_off_c, 0, 78, 63
1, 324698, Note_off_c, 0, 66, 62
1, 324725, Note_on_c, 0, 67, 81
1, 324741, Note_on_c, 0, 79, 28
1, 324763, Note_off_c, 0, 79, 46
1, 324764, Note_off_c, 0, 67, 63
1, 324804, Note_on_c, 0, 70, 85
1, 324810, Note_on_c, 0, 82, 75
1, 324845, Note_off_c, 0, 82, 61
1, 324876, Note_off_c, 0, 70, 62
1, 324895, Note_on_c, 0, 83, 81
1, 324898, Note_on_c, 0, 71, 96
1, 324945, Note_off_c, 0, 83, 60
1, 325013, Note_off_c, 0, 71, 60
1, 325043, Control_c, 0, 67, 8
1, 325058, Control_c, 0, 67, 8
1, 325229, Control_c, 0, 67, 8
1, 325243, Control_c, 0, 67, 0
1, 325520, Note_on_c, 0, 66, 53
1, 325522, Note_on_c, 0, 75, 59
1, 325529, Note_on_c, 0, 69, 52
1, 325533, Note_on_c, 0, 59, 44
1, 325535, Note_on_c, 0, 71, 52
1, 325551, Note_on_c, 0, 47, 42
1, 325643, Note_off_c, 0, 59, 63
1, 325657, Note_off_c, 0, 66, 66
1, 325662, Note_off_c, 0, 47, 59
1, 325662, Note_off_c, 0, 69, 65
1, 325662, Note_off_c, 0, 75, 64
1, 325674, Note_off_c, 0, 71, 62
1, 325674, Control_c, 0, 67, 8
1, 325689, Control_c, 0, 67, 8
1, 325704, Control_c, 0, 67, 9
1, 325718, Control_c, 0, 67, 9
1, 325822, Control_c, 0, 67, 9
1, 326033, Note_on_c, 0, 76, 79
1, 326035, Note_on_c, 0, 64, 87
1, 326035, Note_on_c, 0, 67, 83
1, 326036, Note_on_c, 0, 52, 83
1, 326038, Control_c, 0, 67, 8
1, 326039, Note_on_c, 0, 40, 73
1, 326041, Note_on_c, 0, 71, 74
1, 326061, Note_off_c, 0, 40, 66
1, 326067, Control_c, 0, 64, 52
1, 326072, Note_off_c, 0, 52, 62
1, 326072, Note_off_c, 0, 64, 64
1, 326082, Control_c, 0, 64, 74
1, 326082, Control_c, 0, 67, 8
1, 326094, Note_off_c, 0, 67, 62
1, 326097, Control_c, 0, 64, 93
1, 326097, Control_c, 0, 67, 0
1, 326103, Note_off_c, 0, 71, 62
1, 326112, Control_c, 0, 64, 127
1, 326122, Note_off_c, 0, 76, 67
1, 326232, Note_on_c, 0, 59, 60
1, 326234, Note_on_c, 0, 64, 64
1, 326239, Note_on_c, 0, 52, 52
1, 326239, Note_on_c, 0, 55, 49
1, 326259, Note_off_c, 0, 52, 62
1, 326259, Note_off_c, 0, 64, 55
1, 326276, Note_off_c, 0, 59, 54
1, 326279, Note_off_c, 0, 55, 58
1, 326385, Note_on_c, 0, 82, 73
1, 326393, Note_on_c, 0, 64, 63
1, 326399, Note_on_c, 0, 55, 50
1, 326399, Note_on_c, 0, 59, 51
1, 326408, Note_on_c, 0, 52, 41
1, 326425, Note_off_c, 0, 64, 63
1, 326434, Note_off_c, 0, 82, 61
1, 326442, Note_off_c, 0, 52, 57
1, 326442, Note_off_c, 0, 59, 59
1, 326448, Note_off_c, 0, 55, 61
1, 326451, Note_on_c, 0, 90, 73
1, 326476, Note_off_c, 0, 90, 66
1, 326541, Note_on_c, 0, 91, 93
1, 326549, Note_on_c, 0, 83, 78
1, 326554, Note_on_c, 0, 52, 60
1, 326557, Note_on_c, 0, 64, 68
1, 326564, Note_on_c, 0, 55, 52
1, 326565, Note_on_c, 0, 59, 52
1, 326576, Note_off_c, 0, 83, 61
1, 326593, Note_off_c, 0, 64, 65
1, 326593, Note_off_c, 0, 91, 59
1, 326596, Note_off_c, 0, 52, 64
1, 326608, Note_off_c, 0, 55, 63
1, 326609, Note_off_c, 0, 59, 57
1, 326724, Note_on_c, 0, 78, 81
1, 326739, Note_on_c, 0, 59, 51
1, 326747, Note_on_c, 0, 64, 51
1, 326757, Note_on_c, 0, 52, 40
1, 326760, Note_on_c, 0, 55, 36
1, 326767, Note_off_c, 0, 64, 59
1, 326769, Note_off_c, 0, 59, 51
1, 326774, Note_off_c, 0, 78, 60
1, 326782, Note_on_c, 0, 87, 77
1, 326790, Note_off_c, 0, 52, 48
1, 326801, Note_off_c, 0, 55, 49
1, 326823, Note_off_c, 0, 87, 61
1, 326873, Note_on_c, 0, 88, 95
1, 326879, Note_on_c, 0, 79, 81
1, 326882, Note_on_c, 0, 52, 59
1, 326882, Note_on_c, 0, 64, 60
1, 326891, Note_on_c, 0, 55, 59
1, 326894, Note_on_c, 0, 59, 51
1, 326907, Note_off_c, 0, 79, 62
1, 326911, Note_off_c, 0, 64, 64
1, 326915, Note_off_c, 0, 88, 63
1, 326921, Note_off_c, 0, 52, 63
1, 326922, Note_off_c, 0, 59, 54
1, 326924, Note_off_c, 0, 55, 64
1, 327052, Note_on_c, 0, 78, 89
1, 327058, Note_on_c, 0, 59, 48
1, 327061, Note_on_c, 0, 64, 56
1, 327069, Note_on_c, 0, 52, 50
1, 327083, Note_off_c, 0, 64, 61
1, 327085, Note_on_c, 0, 55, 35
1, 327091, Note_off_c, 0, 52, 63
1, 327098, Note_off_c, 0, 78, 62
1, 327102, Note_off_c, 0, 59, 56
1, 327118, Note_on_c, 0, 82, 70
1, 327120, Note_off_c, 0, 55, 52
1, 327197, Note_on_c, 0, 83, 74
1, 327202, Note_on_c, 0, 79, 74
1, 327207, Note_on_c, 0, 64, 64
1, 327210, Note_on_c, 0, 52, 53
1, 327210, Note_on_c, 0, 59, 60
1, 327216, Note_off_c, 0, 82, 41
1, 327217, Note_on_c, 0, 55, 54
1, 327228, Note_off_c, 0, 83, 57
1, 327230, Note_off_c, 0, 79, 64
1, 327239, Note_off_c, 0, 59, 62
1, 327240, Note_off_c, 0, 64, 63
1, 327253, Note_off_c, 0, 55, 63
1, 327257, Note_off_c, 0, 52, 63
1, 327388, Note_on_c, 0, 70, 70
1, 327396, Note_on_c, 0, 59, 58
1, 327398, Note_on_c, 0, 64, 60
1, 327399, Note_on_c, 0, 52, 54
1, 327408, Note_on_c, 0, 55, 46
1, 327421, Note_off_c, 0, 64, 61
1, 327424, Note_off_c, 0, 70, 57
1, 327438, Note_off_c, 0, 59, 53
1, 327443, Note_off_c, 0, 52, 60
1, 327446, Note_on_c, 0, 78, 77
1, 327449, Note_off_c, 0, 55, 61
1, 327487, Note_off_c, 0, 78, 59
1, 327541, Note_on_c, 0, 79, 95
1, 327549, Note_on_c, 0, 71, 82
1, 327551, Note_on_c, 0, 59, 64
1, 327553, Note_on_c, 0, 64, 62
1, 327556, Note_on_c, 0, 52, 57
1, 327556, Note_on_c, 0, 55, 56
1, 327579, Note_off_c, 0, 71, 61
1, 327582, Note_off_c, 0, 64, 64
1, 327583, Note_off_c, 0, 79, 62
1, 327593, Note_off_c, 0, 52, 60
1, 327600, Note_off_c, 0, 59, 50
1, 327602, Note_off_c, 0, 55, 54
1, 327720, Note_on_c, 0, 66, 78
1, 327723, Note_on_c, 0, 59, 63
1, 327729, Note_on_c, 0, 64, 59
1, 327738, Note_on_c, 0, 52, 49
1, 327738, Note_on_c, 0, 55, 55
1, 327752, Note_off_c, 0, 64, 61
1, 327768, Note_off_c, 0, 52, 56
1, 327774, Note_on_c, 0, 75, 72
1, 327776, Note_off_c, 0, 66, 64
1, 327780, Note_off_c, 0, 59, 53
1, 327781, Note_off_c, 0, 55, 59
1, 327812, Note_off_c, 0, 75, 63
1, 327860, Note_on_c, 0, 64, 61
1, 327862, Note_on_c, 0, 76, 87
1, 327866, Note_on_c, 0, 67, 83
1, 327872, Note_on_c, 0, 52, 58
1, 327873, Note_on_c, 0, 59, 59
1, 327887, Note_off_c, 0, 64, 64
1, 327890, Note_on_c, 0, 55, 47
1, 327896, Note_off_c, 0, 59, 64
1, 327910, Note_off_c, 0, 67, 61
1, 327911, Note_off_c, 0, 76, 62
1, 327913, Note_off_c, 0, 55, 60
1, 327924, Note_off_c, 0, 52, 64
1, 327964, Control_c, 0, 67, 8
1, 327979, Control_c, 0, 64, 103
1, 327979, Control_c, 0, 67, 9
1, 327994, Control_c, 0, 64, 76
1, 327994, Control_c, 0, 67, 11
1, 328009, Control_c, 0, 64, 0
1, 328009, Control_c, 0, 67, 11
1, 328024, Control_c, 0, 67, 12
1, 328053, Control_c, 0, 67, 11
1, 328057, Note_on_c, 0, 75, 88
1, 328059, Note_on_c, 0, 66, 88
1, 328062, Note_on_c, 0, 54, 63
1, 328062, Note_on_c, 0, 57, 60
1, 328070, Note_on_c, 0, 47, 54
1, 328090, Control_c, 0, 64, 62
1, 328090, Control_c, 0, 67, 10
1, 328097, Note_off_c, 0, 57, 53
1, 328105, Control_c, 0, 64, 80
1, 328105, Control_c, 0, 67, 9
1, 328105, Note_off_c, 0, 54, 61
1, 328114, Note_off_c, 0, 47, 63
1, 328119, Control_c, 0, 64, 103
1, 328119, Control_c, 0, 67, 8
1, 328126, Note_off_c, 0, 66, 61
1, 328128, Note_off_c, 0, 75, 60
1, 328134, Control_c, 0, 64, 127
1, 328134, Control_c, 0, 67, 0
1, 328227, Note_on_c, 0, 54, 62
1, 328229, Note_on_c, 0, 57, 57
1, 328232, Note_on_c, 0, 47, 57
1, 328250, Note_off_c, 0, 57, 62
1, 328258, Note_off_c, 0, 54, 64
1, 328269, Note_off_c, 0, 47, 61
1, 328361, Note_on_c, 0, 69, 59
1, 328370, Note_on_c, 0, 57, 57
1, 328376, Note_on_c, 0, 54, 59
1, 328377, Note_on_c, 0, 47, 63
1, 328397, Note_on_c, 0, 66, 71
1, 328404, Note_off_c, 0, 69, 60
1, 328410, Note_off_c, 0, 57, 58
1, 328427, Note_off_c, 0, 54, 58
1, 328434, Note_on_c, 0, 63, 67
1, 328435, Note_off_c, 0, 66, 61
1, 328438, Note_off_c, 0, 47, 62
1, 328462, Note_off_c, 0, 63, 66
1, 328468, Note_on_c, 0, 60, 67
1, 328505, Note_off_c, 0, 60, 63
1, 328528, Note_on_c, 0, 59, 85
1, 328546, Note_on_c, 0, 54, 69
1, 328548, Note_on_c, 0, 47, 69
1, 328549, Note_on_c, 0, 57, 67
1, 328552, Note_off_c, 0, 59, 65
1, 328576, Note_off_c, 0, 54, 61
1, 328577, Note_off_c, 0, 57, 64
1, 328589, Note_off_c, 0, 47, 59
1, 328686, Note_on_c, 0, 81, 74
1, 328716, Note_on_c, 0, 47, 58
1, 328716, Note_on_c, 0, 54, 58
1, 328717, Note_on_c, 0, 57, 48
1, 328738, Note_on_c, 0, 78, 70
1, 328745, Note_off_c, 0, 81, 58
1, 328748, Note_off_c, 0, 57, 55
1, 328769, Note_off_c, 0, 47, 59
1, 328772, Note_off_c, 0, 54, 57
1, 328773, Note_on_c, 0, 75, 71
1, 328778, Note_off_c, 0, 78, 61
1, 328796, Note_off_c, 0, 75, 69
1, 328804, Note_on_c, 0, 72, 65
1, 328844, Note_off_c, 0, 72, 68
1, 328859, Note_on_c, 0, 71, 88
1, 328877, Note_on_c, 0, 57, 67
1, 328878, Note_on_c, 0, 47, 71
1, 328881, Note_on_c, 0, 54, 71
1, 328890, Note_off_c, 0, 71, 60
1, 328906, Note_off_c, 0, 57, 64
1, 328917, Note_off_c, 0, 54, 59
1, 328931, Note_off_c, 0, 47, 57
1, 329021, Note_on_c, 0, 93, 71
1, 329050, Note_on_c, 0, 47, 58
1, 329051, Note_on_c, 0, 54, 56
1, 329057, Note_on_c, 0, 90, 73
1, 329067, Note_on_c, 0, 57, 37
1, 329082, Note_off_c, 0, 93, 60
1, 329101, Note_off_c, 0, 47, 43
1, 329102, Note_off_c, 0, 57, 50
1, 329106, Note_on_c, 0, 87, 74
1, 329109, Note_off_c, 0, 90, 64
1, 329122, Note_off_c, 0, 54, 53
1, 329131, Note_off_c, 0, 87, 66
1, 329136, Note_on_c, 0, 84, 69
1, 329161, Note_off_c, 0, 84, 67
1, 329193, Note_on_c, 0, 83, 86
1, 329203, Note_on_c, 0, 57, 68
1, 329211, Note_on_c, 0, 54, 67
1, 329222, Note_on_c, 0, 47, 67
1, 329227, Note_off_c, 0, 83, 60
1, 329231, Note_off_c, 0, 57, 64
1, 329244, Note_off_c, 0, 54, 60
1, 329255, Note_off_c, 0, 47, 63
1, 329352, Note_on_c, 0, 81, 69
1, 329378, Note_on_c, 0, 54, 50
1, 329382, Note_on_c, 0, 47, 45
1, 329387, Note_on_c, 0, 57, 43
1, 329387, Note_on_c, 0, 78, 72
1, 329392, Note_off_c, 0, 81, 53
1, 329417, Note_off_c, 0, 57, 53
1, 329420, Note_off_c, 0, 47, 62
1, 329426, Note_off_c, 0, 54, 59
1, 329431, Note_on_c, 0, 75, 70
1, 329436, Note_off_c, 0, 78, 64
1, 329458, Note_off_c, 0, 75, 67
1, 329459, Note_on_c, 0, 72, 70
1, 329506, Note_off_c, 0, 72, 64
1, 329518, Note_on_c, 0, 71, 89
1, 329524, Note_on_c, 0, 57, 62
1, 329527, Note_on_c, 0, 54, 69
1, 329531, Note_on_c, 0, 47, 67
1, 329550, Note_off_c, 0, 57, 65
1, 329556, Note_off_c, 0, 54, 63
1, 329557, Note_off_c, 0, 71, 59
1, 329572, Note_off_c, 0, 47, 60
1, 329589, Control_c, 0, 64, 112
1, 329604, Control_c, 0, 64, 88
1, 329618, Control_c, 0, 64, 64
1, 329633, Control_c, 0, 64, 0
1, 329648, Control_c, 0, 67, 8
1, 329663, Control_c, 0, 67, 8
1, 329703, Note_on_c, 0, 83, 92
1, 329706, Note_on_c, 0, 71, 88
1, 329706, Note_on_c, 0, 75, 90
1, 329709, Note_on_c, 0, 47, 64
1, 329714, Note_on_c, 0, 57, 53
1, 329717, Note_on_c, 0, 54, 63
1, 329736, Control_c, 0, 64, 54
1, 329751, Note_off_c, 0, 57, 58
1, 329751, Control_c, 0, 64, 72
1, 329760, Note_off_c, 0, 54, 59
1, 329766, Control_c, 0, 64, 88
1, 329781, Note_off_c, 0, 47, 55
1, 329781, Control_c, 0, 64, 107
1, 329781, Control_c, 0, 67, 8
1, 329796, Control_c, 0, 64, 124
1, 329796, Control_c, 0, 67, 0
1, 329810, Control_c, 0, 64, 127
1, 329879, Note_on_c, 0, 57, 62
1, 329883, Note_on_c, 0, 47, 63
1, 329887, Note_on_c, 0, 54, 56
1, 329908, Note_off_c, 0, 57, 65
1, 329914, Note_off_c, 0, 75, 60
1, 329923, Note_off_c, 0, 54, 61
1, 329924, Note_off_c, 0, 47, 62
1, 330062, Note_on_c, 0, 79, 61
1, 330063, Control_c, 0, 64, 114
1, 330064, Note_on_c, 0, 52, 65
1, 330065, Note_off_c, 0, 83, 52
1, 330071, Note_on_c, 0, 76, 55
1, 330075, Note_on_c, 0, 55, 49
1, 330078, Control_c, 0, 64, 96
1, 330093, Control_c, 0, 64, 81
1, 330104, Note_off_c, 0, 55, 58
1, 330105, Note_off_c, 0, 52, 59
1, 330108, Control_c, 0, 64, 68
1, 330123, Control_c, 0, 64, 16
1, 330137, Control_c, 0, 64, 0
1, 330147, Note_off_c, 0, 71, 54
1, 330161, Note_off_c, 0, 79, 61
1, 330170, Note_off_c, 0, 76, 62
1, 330212, Control_c, 0, 67, 8
1, 330232, Note_on_c, 0, 52, 60
1, 330234, Note_on_c, 0, 55, 47
1, 330260, Note_off_c, 0, 55, 60
1, 330261, Note_off_c, 0, 52, 67
1, 330271, Control_c, 0, 67, 8
1, 330400, Note_on_c, 0, 63, 62
1, 330403, Note_on_c, 0, 51, 51
1, 330430, Note_off_c, 0, 63, 67
1, 330462, Note_off_c, 0, 51, 59
1, 330479, Note_on_c, 0, 52, 52
1, 330479, Note_on_c, 0, 64, 62
1, 330512, Note_off_c, 0, 64, 65
1, 330525, Note_off_c, 0, 52, 64
1, 330575, Note_on_c, 0, 67, 58
1, 330578, Note_on_c, 0, 55, 60
1, 330588, Control_c, 0, 67, 9
1, 330596, Note_off_c, 0, 67, 63
1, 330601, Note_off_c, 0, 55, 65
1, 330740, Note_on_c, 0, 51, 44
1, 330746, Note_on_c, 0, 63, 67
1, 330781, Note_off_c, 0, 63, 64
1, 330811, Note_on_c, 0, 52, 64
1, 330814, Note_off_c, 0, 51, 60
1, 330817, Note_on_c, 0, 64, 62
1, 330866, Note_off_c, 0, 52, 65
1, 330870, Control_c, 0, 67, 9
1, 330891, Note_off_c, 0, 64, 37
1, 330895, Note_on_c, 0, 71, 70
1, 330904, Note_on_c, 0, 59, 64
1, 330920, Note_off_c, 0, 71, 68
1, 330932, Note_off_c, 0, 59, 65
1, 331066, Note_on_c, 0, 63, 77
1, 331071, Note_on_c, 0, 51, 53
1, 331105, Note_off_c, 0, 63, 67
1, 331123, Note_on_c, 0, 52, 70
1, 331137, Note_on_c, 0, 64, 72
1, 331138, Note_off_c, 0, 51, 56
1, 331163, Note_off_c, 0, 52, 65
1, 331185, Note_off_c, 0, 64, 63
1, 331233, Note_on_c, 0, 76, 91
1, 331239, Note_on_c, 0, 64, 76
1, 331275, Note_off_c, 0, 76, 66
1, 331287, Note_off_c, 0, 64, 64
1, 331408, Note_on_c, 0, 64, 86
1, 331416, Note_on_c, 0, 52, 73
1, 331444, Note_off_c, 0, 52, 70
1, 331452, Note_off_c, 0, 64, 64
1, 331516, Control_c, 0, 67, 10
1, 331546, Control_c, 0, 67, 10
1, 331580, Note_on_c, 0, 67, 85
1, 331582, Note_on_c, 0, 79, 90
1, 331616, Note_off_c, 0, 67, 63
1, 331621, Note_off_c, 0, 79, 63
1, 331694, Control_c, 0, 67, 11
1, 331738, Control_c, 0, 67, 11
1, 331744, Note_on_c, 0, 64, 83
1, 331748, Note_on_c, 0, 52, 74
1, 331765, Note_off_c, 0, 64, 70
1, 331773, Note_off_c, 0, 52, 69
1, 331789, Note_on_c, 0, 72, 17
1, 331790, Note_off_c, 0, 72, 127
1, 331812, Control_c, 0, 67, 11
1, 331849, Control_c, 0, 67, 10
1, 331908, Control_c, 0, 67, 11
1, 331940, Note_on_c, 0, 76, 75
1, 331941, Note_on_c, 0, 83, 90
1, 331944, Note_on_c, 0, 55, 85
1, 331944, Note_on_c, 0, 71, 88
1, 331944, Note_on_c, 0, 43, 74
1, 331980, Note_off_c, 0, 43, 65
1, 331983, Note_off_c, 0, 71, 61
1, 331985, Note_off_c, 0, 55, 65
1, 331993, Note_off_c, 0, 76, 60
1, 331999, Note_off_c, 0, 83, 58
1, 332012, Control_c, 0, 67, 10
1, 332042, Control_c, 0, 67, 10
1, 332101, Control_c, 0, 67, 10
1, 332116, Control_c, 0, 67, 11
1, 332130, Control_c, 0, 67, 11
1, 332176, Note_on_c, 0, 84, 92
1, 332177, Note_on_c, 0, 72, 94
1, 332179, Note_on_c, 0, 57, 92
1, 332179, Note_on_c, 0, 76, 85
1, 332185, Note_on_c, 0, 45, 74
1, 332190, Control_c, 0, 67, 11
1, 332219, Control_c, 0, 64, 37
1, 332219, Control_c, 0, 67, 10
1, 332234, Control_c, 0, 64, 70
1, 332240, Note_off_c, 0, 72, 62
1, 332248, Note_off_c, 0, 76, 65
1, 332249, Control_c, 0, 64, 91
1, 332249, Control_c, 0, 67, 10
1, 332264, Control_c, 0, 64, 127
1, 332264, Control_c, 0, 67, 9
1, 332276, Note_off_c, 0, 84, 60
1, 332287, Note_off_c, 0, 57, 54
1, 332324, Control_c, 0, 67, 9
1, 332341, Note_off_c, 0, 45, 38
1, 333033, Note_on_c, 0, 86, 75
1, 333042, Note_on_c, 0, 83, 68
1, 333069, Note_off_c, 0, 83, 65
1, 333113, Note_off_c, 0, 86, 61
1, 333120, Note_on_c, 0, 81, 69
1, 333121, Note_on_c, 0, 84, 65
1, 333160, Note_off_c, 0, 84, 60
1, 333175, Note_off_c, 0, 81, 58
1, 333191, Control_c, 0, 67, 9
1, 333198, Note_on_c, 0, 79, 46
1, 333223, Note_off_c, 0, 79, 36
1, 333270, Note_on_c, 0, 81, 72
1, 333275, Note_on_c, 0, 78, 71
1, 333319, Note_off_c, 0, 78, 50
1, 333335, Note_on_c, 0, 79, 60
1, 333359, Note_on_c, 0, 76, 63
1, 333366, Note_off_c, 0, 81, 58
1, 333405, Note_on_c, 0, 78, 70
1, 333414, Note_off_c, 0, 76, 65
1, 333415, Note_off_c, 0, 79, 61
1, 333418, Note_on_c, 0, 74, 68
1, 333430, Note_off_c, 0, 78, 68
1, 333446, Note_off_c, 0, 74, 63
1, 333450, Control_c, 0, 67, 9
1, 333510, Note_on_c, 0, 76, 74
1, 333537, Note_on_c, 0, 72, 53
1, 333566, Note_on_c, 0, 74, 59
1, 333566, Note_on_c, 0, 71, 68
1, 333575, Note_off_c, 0, 72, 61
1, 333604, Note_off_c, 0, 76, 65
1, 333644, Note_off_c, 0, 71, 60
1, 333649, Note_on_c, 0, 69, 68
1, 333652, Note_off_c, 0, 74, 63
1, 333663, Note_on_c, 0, 72, 44
1, 333678, Note_off_c, 0, 69, 67
1, 333687, Note_off_c, 0, 72, 57
1, 333746, Note_on_c, 0, 71, 77
1, 333753, Note_on_c, 0, 67, 73
1, 333780, Note_off_c, 0, 67, 62
1, 333810, Note_on_c, 0, 69, 64
1, 333820, Note_off_c, 0, 71, 59
1, 333830, Note_on_c, 0, 66, 71
1, 333849, Control_c, 0, 67, 8
1, 333864, Note_on_c, 0, 67, 55
1, 333869, Note_off_c, 0, 69, 64
1, 333879, Note_on_c, 0, 64, 66
1, 333890, Note_off_c, 0, 67, 65
1, 333910, Note_off_c, 0, 66, 40
1, 333913, Note_off_c, 0, 64, 65
1, 333998, Note_on_c, 0, 66, 64
1, 334001, Note_on_c, 0, 63, 58
1, 334045, Note_off_c, 0, 63, 61
1, 334062, Note_on_c, 0, 61, 64
1, 334063, Note_on_c, 0, 64, 65
1, 334084, Note_off_c, 0, 66, 55
1, 334125, Control_c, 0, 64, 109
1, 334125, Control_c, 0, 67, 9
1, 334140, Control_c, 0, 64, 95
1, 334154, Control_c, 0, 64, 82
1, 334169, Control_c, 0, 64, 68
1, 334169, Control_c, 0, 67, 9
1, 334182, Note_on_c, 0, 59, 65
1, 334184, Control_c, 0, 64, 43
1, 334189, Note_on_c, 0, 63, 68
1, 334198, Control_c, 0, 64, 0
1, 334200, Note_on_c, 0, 47, 44
1, 334202, Note_on_c, 0, 57, 43
1, 334205, Note_on_c, 0, 54, 43
1, 334207, Note_off_c, 0, 61, 51
1, 334227, Note_off_c, 0, 64, 52
1, 334524, Control_c, 0, 67, 10
1, 334539, Control_c, 0, 67, 10
1, 334596, Note_off_c, 0, 57, 36
1, 334598, Control_c, 0, 67, 10
1, 334635, Note_off_c, 0, 59, 37
1, 334687, Control_c, 0, 67, 9
1, 334800, Note_off_c, 0, 54, 47
1, 334807, Control_c, 0, 67, 9
1, 334826, Note_off_c, 0, 63, 58
1, 334845, Note_on_c, 0, 64, 46
1, 334850, Note_off_c, 0, 47, 44
1, 334853, Note_on_c, 0, 55, 36
1, 334865, Note_on_c, 0, 59, 27
1, 334869, Note_on_c, 0, 52, 38
1, 335008, Control_c, 0, 67, 9
1, 335052, Control_c, 0, 67, 10
1, 335082, Control_c, 0, 67, 10
1, 335096, Note_off_c, 0, 55, 57
1, 335107, Note_off_c, 0, 59, 57
1, 335114, Note_off_c, 0, 64, 64
1, 335123, Note_off_c, 0, 52, 61
1, 335126, Control_c, 0, 67, 11
1, 335244, Control_c, 0, 67, 10
1, 335274, Control_c, 0, 67, 10
1, 335378, Control_c, 0, 67, 10
1, 335466, Control_c, 0, 67, 11
1, 335481, Control_c, 0, 67, 11
1, 335497, Control_c, 0, 67, 12
1, 335512, Control_c, 0, 67, 12
1, 335518, Note_on_c, 0, 59, 45
1, 335527, Control_c, 0, 67, 13
1, 335542, Note_on_c, 0, 47, 38
1, 335608, Control_c, 0, 64, 61
1, 335623, Control_c, 0, 64, 63
1, 335652, Control_c, 0, 64, 64
1, 335667, Control_c, 0, 64, 66
1, 335682, Control_c, 0, 64, 68
1, 335697, Control_c, 0, 64, 71
1, 335712, Control_c, 0, 64, 74
1, 335727, Control_c, 0, 64, 77
1, 335742, Control_c, 0, 64, 77
1, 335756, Control_c, 0, 64, 78
1, 335771, Control_c, 0, 64, 78
1, 335786, Control_c, 0, 64, 80
1, 335801, Control_c, 0, 64, 81
1, 335816, Control_c, 0, 64, 83
1, 335831, Control_c, 0, 64, 84
1, 335845, Control_c, 0, 64, 84
1, 335845, Control_c, 0, 67, 12
1, 335860, Control_c, 0, 64, 85
1, 335875, Control_c, 0, 64, 85
1, 335875, Control_c, 0, 67, 12
1, 335890, Control_c, 0, 64, 86
1, 335993, Control_c, 0, 64, 86
1, 336038, Control_c, 0, 67, 11
1, 336084, Note_off_c, 0, 59, 54
1, 336114, Note_off_c, 0, 47, 44
1, 336141, Control_c, 0, 67, 11
1, 336216, Control_c, 0, 67, 10
1, 336446, Control_c, 0, 67, 10
1, 336549, Control_c, 0, 67, 10
1, 336550, Note_on_c, 0, 52, 48
1, 336561, Note_on_c, 0, 40, 38
1, 336564, Control_c, 0, 64, 86
1, 336579, Control_c, 0, 64, 83
1, 336579, Control_c, 0, 67, 11
1, 336594, Control_c, 0, 64, 77
1, 336594, Control_c, 0, 67, 11
1, 336609, Control_c, 0, 64, 67
1, 336609, Control_c, 0, 67, 12
1, 336624, Control_c, 0, 64, 0
1, 336654, Control_c, 0, 67, 12
1, 336683, Control_c, 0, 67, 13
1, 336742, Control_c, 0, 64, 58
1, 336742, Control_c, 0, 67, 12
1, 336757, Control_c, 0, 64, 64
1, 336757, Control_c, 0, 67, 12
1, 336772, Control_c, 0, 64, 65
1, 336787, Control_c, 0, 64, 67
1, 336787, Control_c, 0, 67, 11
1, 336801, Control_c, 0, 64, 68
1, 336816, Control_c, 0, 64, 71
1, 336831, Control_c, 0, 64, 73
1, 336846, Control_c, 0, 64, 74
1, 336861, Control_c, 0, 64, 75
1, 336890, Control_c, 0, 64, 76
1, 336934, Control_c, 0, 64, 76
1, 336964, Control_c, 0, 64, 77
1, 337129, Note_off_c, 0, 40, 37
1, 337180, Control_c, 0, 67, 11
1, 337205, Note_off_c, 0, 52, 63
1, 337224, Control_c, 0, 64, 76
1, 337224, Control_c, 0, 67, 11
1, 337238, Control_c, 0, 64, 75
1, 337253, Control_c, 0, 64, 71
1, 337268, Control_c, 0, 64, 64
1, 337283, Control_c, 0, 64, 26
1, 337283, Control_c, 0, 67, 12
1, 337298, Control_c, 0, 64, 0
1, 337387, Control_c, 0, 67, 11
1, 337505, Control_c, 0, 67, 12
1, 337524, Note_on_c, 0, 36, 50
1, 337530, Note_on_c, 0, 48, 62
1, 337560, Note_off_c, 0, 48, 66
1, 337593, Note_off_c, 0, 36, 60
1, 337609, Note_on_c, 0, 50, 62
1, 337615, Note_on_c, 0, 38, 55
1, 337648, Note_off_c, 0, 50, 59
1, 337676, Note_off_c, 0, 38, 59
1, 337677, Note_on_c, 0, 40, 60
1, 337682, Control_c, 0, 67, 11
1, 337688, Note_on_c, 0, 52, 50
1, 337724, Note_off_c, 0, 52, 52
1, 337745, Note_off_c, 0, 40, 63
1, 337751, Note_on_c, 0, 41, 63
1, 337767, Note_on_c, 0, 53, 56
1, 337809, Note_off_c, 0, 41, 61
1, 337834, Note_off_c, 0, 53, 64
1, 337843, Note_on_c, 0, 55, 68
1, 337848, Note_on_c, 0, 43, 66
1, 337870, Note_off_c, 0, 55, 67
1, 337877, Note_off_c, 0, 43, 63
1, 338025, Note_on_c, 0, 60, 82
1, 338029, Note_on_c, 0, 48, 69
1, 338036, Note_on_c, 0, 36, 61
1, 338046, Note_off_c, 0, 60, 69
1, 338047, Control_c, 0, 67, 11
1, 338057, Note_off_c, 0, 48, 67
1, 338063, Note_off_c, 0, 36, 63
1, 338121, Control_c, 0, 67, 11
1, 338136, Control_c, 0, 67, 12
1, 338210, Control_c, 0, 67, 11
1, 338234, Note_on_c, 0, 59, 72
1, 338240, Note_on_c, 0, 47, 70
1, 338240, Control_c, 0, 67, 11
1, 338246, Note_on_c, 0, 35, 60
1, 338270, Control_c, 0, 64, 69
1, 338270, Control_c, 0, 67, 10
1, 338285, Control_c, 0, 64, 78
1, 338291, Note_off_c, 0, 35, 65
1, 338295, Note_off_c, 0, 47, 62
1, 338300, Control_c, 0, 64, 89
1, 338300, Control_c, 0, 67, 10
1, 338314, Control_c, 0, 64, 95
1, 338314, Control_c, 0, 67, 9
1, 338323, Note_off_c, 0, 59, 61
1, 338329, Control_c, 0, 64, 98
1, 338344, Control_c, 0, 64, 101
1, 338359, Control_c, 0, 64, 103
1, 338374, Control_c, 0, 64, 104
1, 338478, Control_c, 0, 67, 9
1, 338537, Control_c, 0, 64, 102
1, 338552, Control_c, 0, 64, 96
1, 338552, Control_c, 0, 67, 10
1, 338573, Control_c, 0, 64, 86
1, 338573, Control_c, 0, 67, 10
1, 338588, Control_c, 0, 64, 75
1, 338588, Control_c, 0, 67, 11
1, 338603, Control_c, 0, 64, 63
1, 338618, Control_c, 0, 64, 0
1, 338650, Note_on_c, 0, 43, 65
1, 338658, Note_on_c, 0, 55, 70
1, 338690, Note_off_c, 0, 55, 63
1, 338728, Note_on_c, 0, 57, 79
1, 338731, Note_on_c, 0, 45, 70
1, 338740, Note_off_c, 0, 43, 56
1, 338774, Note_off_c, 0, 57, 51
1, 338796, Note_on_c, 0, 47, 69
1, 338804, Note_on_c, 0, 59, 75
1, 338824, Note_off_c, 0, 45, 61
1, 338862, Note_on_c, 0, 48, 72
1, 338877, Note_on_c, 0, 60, 73
1, 338877, Note_off_c, 0, 59, 64
1, 338880, Note_off_c, 0, 47, 64
1, 338901, Control_c, 0, 67, 10
1, 338938, Note_off_c, 0, 48, 65
1, 338947, Note_on_c, 0, 62, 82
1, 338951, Note_off_c, 0, 60, 62
1, 338952, Note_on_c, 0, 50, 74
1, 338971, Note_off_c, 0, 62, 68
1, 338981, Note_off_c, 0, 50, 65
1, 339078, Control_c, 0, 67, 10
1, 339093, Control_c, 0, 67, 9
1, 339122, Control_c, 0, 67, 9
1, 339126, Note_on_c, 0, 69, 88
1, 339132, Note_on_c, 0, 57, 69
1, 339133, Note_on_c, 0, 45, 67
1, 339137, Control_c, 0, 67, 8
1, 339157, Note_off_c, 0, 69, 64
1, 339160, Note_off_c, 0, 57, 64
1, 339163, Note_off_c, 0, 45, 64
1, 339211, Control_c, 0, 67, 9
1, 339226, Control_c, 0, 67, 10
1, 339241, Control_c, 0, 67, 11
1, 339367, Note_on_c, 0, 68, 86
1, 339367, Control_c, 0, 64, 47
1, 339368, Note_on_c, 0, 44, 68
1, 339368, Note_on_c, 0, 56, 75
1, 339382, Control_c, 0, 64, 71
1, 339396, Control_c, 0, 64, 84
1, 339411, Control_c, 0, 64, 99
1, 339426, Control_c, 0, 64, 110
1, 339441, Control_c, 0, 64, 113
1, 339456, Note_off_c, 0, 56, 62
1, 339456, Control_c, 0, 64, 115
1, 339458, Note_off_c, 0, 44, 62
1, 339471, Control_c, 0, 64, 119
1, 339486, Control_c, 0, 64, 125
1, 339501, Control_c, 0, 64, 127
1, 339506, Note_off_c, 0, 68, 59
1, 339560, Control_c, 0, 67, 11
1, 339575, Control_c, 0, 67, 13
1, 339590, Control_c, 0, 67, 13
1, 339605, Control_c, 0, 64, 114
1, 339605, Control_c, 0, 67, 14
1, 339620, Control_c, 0, 64, 94
1, 339620, Control_c, 0, 67, 15
1, 339635, Control_c, 0, 64, 79
1, 339635, Control_c, 0, 67, 16
1, 339650, Control_c, 0, 64, 64
1, 339664, Control_c, 0, 64, 0
1, 339679, Control_c, 0, 67, 16
1, 339694, Control_c, 0, 67, 15
1, 339768, Control_c, 0, 67, 15
1, 339820, Note_on_c, 0, 69, 78
1, 339842, Control_c, 0, 67, 14
1, 339864, Note_off_c, 0, 69, 58
1, 339894, Note_on_c, 0, 71, 76
1, 339945, Note_off_c, 0, 71, 50
1, 339973, Note_on_c, 0, 72, 69
1, 339975, Control_c, 0, 67, 14
1, 340039, Note_off_c, 0, 72, 63
1, 340043, Note_on_c, 0, 74, 70
1, 340132, Note_on_c, 0, 76, 65
1, 340132, Note_off_c, 0, 74, 64
1, 340154, Note_off_c, 0, 76, 65
1, 340308, Note_on_c, 0, 65, 75
1, 340311, Note_on_c, 0, 77, 68
1, 340313, Note_on_c, 0, 59, 59
1, 340317, Note_on_c, 0, 71, 56
1, 340317, Note_on_c, 0, 74, 55
1, 340324, Control_c, 0, 67, 13
1, 340338, Note_off_c, 0, 65, 62
1, 340342, Note_off_c, 0, 71, 59
1, 340353, Note_off_c, 0, 77, 52
1, 340354, Note_off_c, 0, 74, 62
1, 340370, Note_off_c, 0, 59, 57
1, 340397, Note_on_c, 0, 57, 59
1, 340463, Note_off_c, 0, 57, 61
1, 340473, Note_on_c, 0, 56, 63
1, 340508, Note_on_c, 0, 64, 69
1, 340511, Note_on_c, 0, 74, 55
1, 340512, Note_on_c, 0, 76, 63
1, 340514, Note_on_c, 0, 71, 58
1, 340532, Control_c, 0, 67, 14
1, 340552, Note_off_c, 0, 56, 63
1, 340562, Note_on_c, 0, 54, 63
1, 340576, Control_c, 0, 64, 47
1, 340591, Control_c, 0, 64, 65
1, 340595, Note_off_c, 0, 71, 55
1, 340606, Control_c, 0, 64, 67
1, 340608, Note_off_c, 0, 74, 61
1, 340612, Note_off_c, 0, 76, 63
1, 340615, Note_off_c, 0, 64, 61
1, 340621, Control_c, 0, 64, 68
1, 340651, Note_on_c, 0, 52, 72
1, 340654, Note_off_c, 0, 54, 60
1, 340681, Note_off_c, 0, 52, 68
1, 340830, Note_on_c, 0, 69, 77
1, 340835, Note_on_c, 0, 64, 68
1, 340874, Note_off_c, 0, 64, 61
1, 340893, Note_on_c, 0, 68, 69
1, 340893, Note_off_c, 0, 69, 63
1, 340894, Note_on_c, 0, 71, 66
1, 340919, Note_off_c, 0, 68, 69
1, 340936, Note_off_c, 0, 71, 62
1, 340954, Control_c, 0, 64, 67
1, 340954, Control_c, 0, 67, 13
1, 340992, Note_on_c, 0, 72, 79
1, 340997, Note_on_c, 0, 69, 74
1, 341022, Note_off_c, 0, 69, 65
1, 341042, Control_c, 0, 64, 67
1, 341052, Note_off_c, 0, 72, 64
1, 341057, Control_c, 0, 64, 66
1, 341064, Note_on_c, 0, 71, 66
1, 341072, Control_c, 0, 64, 65
1, 341074, Note_on_c, 0, 74, 48
1, 341088, Control_c, 0, 64, 64
1, 341103, Control_c, 0, 64, 61
1, 341118, Control_c, 0, 64, 55
1, 341130, Note_on_c, 0, 72, 61
1, 341131, Note_off_c, 0, 71, 61
1, 341133, Control_c, 0, 64, 46
1, 341139, Note_on_c, 0, 76, 58
1, 341139, Note_off_c, 0, 74, 63
1, 341147, Control_c, 0, 64, 0
1, 341147, Control_c, 0, 67, 14
1, 341149, Note_off_c, 0, 72, 66
1, 341160, Note_off_c, 0, 76, 67
1, 341206, Control_c, 0, 67, 14
1, 341251, Control_c, 0, 67, 15
1, 341280, Control_c, 0, 67, 14
1, 341320, Note_on_c, 0, 70, 81
1, 341325, Note_on_c, 0, 82, 69
1, 341327, Note_on_c, 0, 79, 73
1, 341329, Note_on_c, 0, 76, 67
1, 341336, Note_on_c, 0, 64, 66
1, 341344, Note_off_c, 0, 70, 66
1, 341357, Note_off_c, 0, 82, 63
1, 341371, Note_off_c, 0, 76, 57
1, 341383, Note_off_c, 0, 79, 55
1, 341384, Control_c, 0, 67, 15
1, 341399, Control_c, 0, 67, 15
1, 341403, Note_off_c, 0, 64, 53
1, 341421, Note_on_c, 0, 62, 66
1, 341459, Control_c, 0, 67, 15
1, 341488, Control_c, 0, 67, 14
1, 341495, Note_off_c, 0, 62, 58
1, 341503, Control_c, 0, 67, 14
1, 341505, Note_on_c, 0, 79, 74
1, 341506, Note_on_c, 0, 61, 65
1, 341507, Note_on_c, 0, 69, 82
1, 341507, Note_on_c, 0, 76, 71
1, 341507, Note_on_c, 0, 81, 83
1, 341569, Control_c, 0, 64, 57
1, 341584, Control_c, 0, 64, 69
1, 341595, Note_off_c, 0, 61, 60
1, 341599, Control_c, 0, 64, 74
1, 341602, Note_off_c, 0, 76, 62
1, 341606, Note_on_c, 0, 59, 55
1, 341608, Note_off_c, 0, 79, 57
1, 341614, Control_c, 0, 64, 78
1, 341620, Note_off_c, 0, 81, 57
1, 341628, Note_off_c, 0, 69, 59
1, 341629, Control_c, 0, 64, 79
1, 341629, Control_c, 0, 67, 13
1, 341644, Control_c, 0, 64, 80
1, 341659, Control_c, 0, 64, 80
1, 341680, Note_on_c, 0, 57, 74
1, 341689, Note_off_c, 0, 59, 62
1, 341705, Note_off_c, 0, 57, 67
1, 341850, Note_on_c, 0, 74, 85
1, 341851, Control_c, 0, 67, 14
1, 341855, Note_on_c, 0, 69, 77
1, 341899, Note_off_c, 0, 69, 61
1, 341914, Note_on_c, 0, 76, 72
1, 341921, Note_on_c, 0, 73, 73
1, 341926, Note_off_c, 0, 74, 63
1, 341940, Control_c, 0, 67, 13
1, 341945, Note_off_c, 0, 73, 68
1, 341964, Note_off_c, 0, 76, 65
1, 342014, Note_on_c, 0, 77, 88
1, 342018, Note_on_c, 0, 74, 78
1, 342029, Control_c, 0, 64, 80
1, 342044, Control_c, 0, 64, 79
1, 342059, Control_c, 0, 64, 76
1, 342060, Note_off_c, 0, 74, 62
1, 342074, Control_c, 0, 64, 71
1, 342074, Control_c, 0, 67, 14
1, 342076, Note_off_c, 0, 77, 61
1, 342085, Note_on_c, 0, 76, 69
1, 342086, Note_on_c, 0, 79, 60
1, 342088, Control_c, 0, 64, 63
1, 342103, Control_c, 0, 64, 0
1, 342145, Note_on_c, 0, 77, 75
1, 342148, Control_c, 0, 67, 14
1, 342152, Note_on_c, 0, 81, 74
1, 342154, Note_off_c, 0, 76, 67
1, 342166, Note_off_c, 0, 79, 60
1, 342172, Note_off_c, 0, 77, 62
1, 342177, Control_c, 0, 67, 15
1, 342188, Note_off_c, 0, 81, 63
1, 342329, Note_on_c, 0, 77, 85
1, 342332, Note_on_c, 0, 89, 67
1, 342333, Note_on_c, 0, 49, 62
1, 342334, Note_on_c, 0, 79, 73
1, 342341, Note_on_c, 0, 88, 68
1, 342346, Note_off_c, 0, 89, 67
1, 342349, Note_off_c, 0, 79, 67
1, 342350, Note_off_c, 0, 77, 65
1, 342357, Note_off_c, 0, 88, 65
1, 342362, Control_c, 0, 67, 14
1, 342403, Note_on_c, 0, 50, 68
1, 342406, Note_off_c, 0, 49, 61
1, 342407, Control_c, 0, 67, 15
1, 342437, Control_c, 0, 67, 15
1, 342467, Control_c, 0, 67, 16
1, 342478, Note_off_c, 0, 50, 62
1, 342505, Note_on_c, 0, 52, 71
1, 342505, Note_on_c, 0, 79, 69
1, 342505, Note_on_c, 0, 82, 75
1, 342511, Note_on_c, 0, 88, 86
1, 342512, Note_on_c, 0, 76, 85
1, 342538, Note_off_c, 0, 52, 65
1, 342563, Note_off_c, 0, 88, 63
1, 342570, Control_c, 0, 64, 66
1, 342570, Control_c, 0, 67, 15
1, 342578, Note_off_c, 0, 82, 64
1, 342585, Control_c, 0, 64, 78
1, 342589, Note_off_c, 0, 76, 58
1, 342589, Note_off_c, 0, 79, 61
1, 342598, Note_on_c, 0, 53, 69
1, 342600, Control_c, 0, 64, 87
1, 342600, Control_c, 0, 67, 15
1, 342614, Control_c, 0, 64, 92
1, 342614, Control_c, 0, 67, 14
1, 342629, Control_c, 0, 64, 94
1, 342629, Control_c, 0, 67, 14
1, 342644, Control_c, 0, 64, 95
1, 342658, Control_c, 0, 64, 96
1, 342662, Note_off_c, 0, 53, 65
1, 342663, Note_on_c, 0, 55, 74
1, 342673, Control_c, 0, 64, 96
1, 342690, Control_c, 0, 67, 14
1, 342701, Note_off_c, 0, 55, 64
1, 342808, Control_c, 0, 67, 15
1, 342832, Note_on_c, 0, 73, 69
1, 342833, Note_on_c, 0, 76, 60
1, 342835, Note_on_c, 0, 57, 73
1, 342842, Note_on_c, 0, 45, 62
1, 342850, Note_off_c, 0, 73, 68
1, 342860, Note_off_c, 0, 57, 66
1, 342870, Note_off_c, 0, 45, 57
1, 342875, Note_on_c, 0, 77, 69
1, 342875, Note_off_c, 0, 76, 63
1, 342894, Note_on_c, 0, 74, 52
1, 342911, Control_c, 0, 67, 14
1, 342914, Note_off_c, 0, 74, 64
1, 342926, Control_c, 0, 67, 14
1, 342931, Note_off_c, 0, 77, 62
1, 342941, Control_c, 0, 64, 93
1, 342955, Control_c, 0, 64, 84
1, 342970, Control_c, 0, 64, 74
1, 342980, Note_on_c, 0, 79, 80
1, 342985, Control_c, 0, 64, 61
1, 342988, Note_on_c, 0, 76, 68
1, 342991, Note_on_c, 0, 55, 74
1, 342994, Note_on_c, 0, 43, 68
1, 343000, Control_c, 0, 64, 0
1, 343000, Control_c, 0, 67, 14
1, 343005, Note_off_c, 0, 76, 66
1, 343021, Note_off_c, 0, 79, 61
1, 343045, Control_c, 0, 67, 15
1, 343062, Note_on_c, 0, 77, 73
1, 343081, Note_on_c, 0, 81, 60
1, 343096, Control_c, 0, 67, 15
1, 343100, Note_on_c, 0, 79, 42
1, 343101, Note_off_c, 0, 77, 59
1, 343104, Note_off_c, 0, 81, 60
1, 343107, Note_off_c, 0, 43, 61
1, 343126, Control_c, 0, 67, 16
1, 343128, Note_off_c, 0, 55, 57
1, 343137, Note_on_c, 0, 82, 75
1, 343141, Control_c, 0, 67, 16
1, 343172, Note_off_c, 0, 79, 0
1, 343172, Note_on_c, 0, 79, 30
1, 343173, Note_off_c, 0, 82, 60
1, 343185, Control_c, 0, 67, 16
1, 343204, Note_off_c, 0, 79, 24
1, 343244, Control_c, 0, 67, 15
1, 343303, Control_c, 0, 67, 15
1, 343322, Note_on_c, 0, 52, 61
1, 343327, Note_on_c, 0, 76, 74
1, 343337, Note_on_c, 0, 79, 52
1, 343350, Note_off_c, 0, 76, 70
1, 343353, Note_on_c, 0, 86, 37
1, 343360, Note_off_c, 0, 79, 54
1, 343363, Note_on_c, 0, 88, 18
1, 343379, Note_off_c, 0, 88, 36
1, 343384, Note_off_c, 0, 86, 54
1, 343391, Note_off_c, 0, 52, 66
1, 343392, Control_c, 0, 67, 15
1, 343401, Note_on_c, 0, 53, 67
1, 343407, Control_c, 0, 67, 16
1, 343448, Note_off_c, 0, 53, 64
1, 343451, Control_c, 0, 67, 16
1, 343485, Note_on_c, 0, 55, 66
1, 343489, Note_on_c, 0, 85, 84
1, 343495, Note_on_c, 0, 79, 76
1, 343496, Note_on_c, 0, 76, 78
1, 343522, Note_off_c, 0, 55, 65
1, 343534, Note_off_c, 0, 76, 63
1, 343541, Control_c, 0, 64, 48
1, 343542, Note_off_c, 0, 85, 66
1, 343546, Note_off_c, 0, 79, 58
1, 343556, Control_c, 0, 64, 68
1, 343556, Control_c, 0, 67, 16
1, 343571, Control_c, 0, 64, 77
1, 343571, Control_c, 0, 67, 15
1, 343584, Note_on_c, 0, 57, 60
1, 343585, Control_c, 0, 64, 85
1, 343600, Control_c, 0, 64, 90
1, 343615, Control_c, 0, 64, 94
1, 343630, Control_c, 0, 64, 96
1, 343644, Note_off_c, 0, 57, 62
1, 343645, Control_c, 0, 64, 97
1, 343652, Note_on_c, 0, 58, 66
1, 343659, Control_c, 0, 64, 99
1, 343674, Control_c, 0, 64, 99
1, 343680, Note_off_c, 0, 58, 66
1, 343718, Control_c, 0, 67, 15
1, 343733, Control_c, 0, 67, 14
1, 343821, Note_on_c, 0, 76, 70
1, 343826, Note_on_c, 0, 73, 64
1, 343832, Note_on_c, 0, 67, 66
1, 343835, Note_on_c, 0, 55, 66
1, 343844, Note_off_c, 0, 73, 63
1, 343859, Note_off_c, 0, 55, 64
1, 343859, Note_off_c, 0, 67, 65
1, 343871, Note_on_c, 0, 77, 70
1, 343875, Note_off_c, 0, 76, 64
1, 343889, Control_c, 0, 67, 14
1, 343895, Note_on_c, 0, 74, 41
1, 343919, Note_off_c, 0, 74, 56
1, 343925, Note_off_c, 0, 77, 61
1, 343963, Control_c, 0, 64, 97
1, 343971, Note_on_c, 0, 79, 76
1, 343978, Control_c, 0, 64, 91
1, 343978, Note_on_c, 0, 76, 68
1, 343990, Note_on_c, 0, 64, 72
1, 343992, Control_c, 0, 64, 82
1, 343992, Control_c, 0, 67, 14
1, 343995, Note_off_c, 0, 76, 63
1, 343996, Note_on_c, 0, 52, 62
1, 344007, Control_c, 0, 64, 72
1, 344007, Control_c, 0, 67, 15
1, 344020, Note_off_c, 0, 79, 58
1, 344022, Control_c, 0, 64, 50
1, 344037, Control_c, 0, 64, 0
1, 344041, Note_on_c, 0, 77, 62
1, 344051, Note_on_c, 0, 81, 68
1, 344068, Note_off_c, 0, 52, 32
1, 344081, Control_c, 0, 67, 15
1, 344083, Note_off_c, 0, 81, 56
1, 344084, Note_off_c, 0, 77, 62
1, 344096, Control_c, 0, 67, 16
1, 344110, Control_c, 0, 67, 16
1, 344131, Note_on_c, 0, 82, 64
1, 344134, Poly_aftertouch_c, 0, 79, 127
1, 344137, Note_off_c, 0, 64, 60
1, 344154, Poly_aftertouch_c, 0, 79, 0
1, 344160, Note_off_c, 0, 82, 54
1, 344290, Note_on_c, 0, 82, 73
1, 344295, Note_on_c, 0, 72, 68
1, 344300, Note_on_c, 0, 75, 64
1, 344302, Note_on_c, 0, 66, 61
1, 344326, Note_off_c, 0, 72, 64
1, 344332, Note_off_c, 0, 66, 67
1, 344333, Note_off_c, 0, 75, 63
1, 344338, Note_off_c, 0, 82, 59
1, 344365, Note_on_c, 0, 65, 64
1, 344407, Note_off_c, 0, 65, 59
1, 344464, Note_on_c, 0, 63, 64
1, 344466, Note_on_c, 0, 81, 86
1, 344467, Control_c, 0, 67, 16
1, 344473, Note_on_c, 0, 72, 73
1, 344477, Note_on_c, 0, 75, 67
1, 344505, Note_off_c, 0, 81, 57
1, 344514, Note_off_c, 0, 72, 62
1, 344524, Note_off_c, 0, 75, 62
1, 344526, Control_c, 0, 64, 64
1, 344532, Note_off_c, 0, 63, 63
1, 344541, Control_c, 0, 64, 74
1, 344541, Control_c, 0, 67, 15
1, 344542, Note_on_c, 0, 62, 63
1, 344563, Control_c, 0, 64, 85
1, 344578, Control_c, 0, 64, 94
1, 344593, Control_c, 0, 64, 99
1, 344607, Control_c, 0, 64, 101
1, 344622, Control_c, 0, 64, 101
1, 344631, Note_off_c, 0, 62, 62
1, 344635, Note_on_c, 0, 60, 70
1, 344637, Control_c, 0, 64, 103
1, 344652, Control_c, 0, 64, 103
1, 344660, Note_off_c, 0, 60, 67
1, 344667, Control_c, 0, 64, 104
1, 344696, Control_c, 0, 67, 15
1, 344786, Note_on_c, 0, 69, 70
1, 344794, Note_on_c, 0, 66, 68
1, 344801, Note_on_c, 0, 60, 68
1, 344801, Note_on_c, 0, 48, 70
1, 344827, Note_off_c, 0, 66, 64
1, 344830, Note_off_c, 0, 60, 64
1, 344833, Note_off_c, 0, 48, 65
1, 344834, Note_on_c, 0, 70, 68
1, 344845, Note_off_c, 0, 69, 66
1, 344860, Control_c, 0, 67, 14
1, 344875, Control_c, 0, 67, 14
1, 344882, Note_off_c, 0, 70, 64
1, 344905, Control_c, 0, 67, 13
1, 344949, Control_c, 0, 64, 102
1, 344951, Note_on_c, 0, 69, 70
1, 344951, Note_on_c, 0, 72, 75
1, 344963, Note_on_c, 0, 57, 73
1, 344964, Control_c, 0, 64, 95
1, 344964, Control_c, 0, 67, 14
1, 344968, Note_on_c, 0, 45, 69
1, 344970, Note_off_c, 0, 69, 64
1, 344979, Control_c, 0, 64, 82
1, 344994, Control_c, 0, 64, 69
1, 345008, Control_c, 0, 64, 24
1, 345014, Note_on_c, 0, 70, 77
1, 345018, Note_on_c, 0, 74, 58
1, 345023, Control_c, 0, 64, 0
1, 345029, Note_off_c, 0, 72, 54
1, 345049, Note_off_c, 0, 74, 66
1, 345058, Note_off_c, 0, 70, 63
1, 345067, Control_c, 0, 67, 15
1, 345072, Note_off_c, 0, 57, 37
1, 345084, Control_c, 0, 67, 15
1, 345090, Note_off_c, 0, 45, 60
1, 345092, Note_on_c, 0, 75, 77
1, 345094, Note_on_c, 0, 72, 75
1, 345099, Control_c, 0, 67, 16
1, 345113, Control_c, 0, 67, 16
1, 345120, Note_off_c, 0, 72, 67
1, 345124, Note_off_c, 0, 75, 60
1, 345157, Control_c, 0, 67, 16
1, 345187, Control_c, 0, 67, 15
1, 345263, Note_on_c, 0, 69, 83
1, 345264, Note_on_c, 0, 72, 81
1, 345267, Note_on_c, 0, 51, 65
1, 345269, Note_on_c, 0, 79, 68
1, 345283, Note_off_c, 0, 69, 72
1, 345285, Note_off_c, 0, 72, 68
1, 345291, Note_off_c, 0, 79, 61
1, 345291, Control_c, 0, 67, 15
1, 345315, Note_off_c, 0, 51, 63
1, 345359, Note_on_c, 0, 50, 62
1, 345372, Control_c, 0, 67, 15
1, 345444, Note_on_c, 0, 78, 92
1, 345447, Note_on_c, 0, 69, 92
1, 345447, Note_on_c, 0, 72, 85
1, 345449, Note_off_c, 0, 50, 62
1, 345456, Note_on_c, 0, 48, 68
1, 345474, Note_off_c, 0, 69, 63
1, 345495, Note_off_c, 0, 72, 61
1, 345505, Control_c, 0, 64, 64
1, 345520, Control_c, 0, 64, 78
1, 345520, Control_c, 0, 67, 15
1, 345522, Note_off_c, 0, 78, 64
1, 345528, Note_off_c, 0, 48, 64
1, 345535, Control_c, 0, 64, 93
1, 345537, Note_on_c, 0, 46, 69
1, 345550, Control_c, 0, 64, 115
1, 345550, Control_c, 0, 67, 14
1, 345564, Control_c, 0, 64, 125
1, 345579, Control_c, 0, 64, 127
1, 345612, Note_on_c, 0, 45, 75
1, 345618, Note_off_c, 0, 46, 61
1, 345646, Note_off_c, 0, 45, 67
1, 345668, Control_c, 0, 67, 14
1, 345754, Note_on_c, 0, 81, 75
1, 345762, Note_on_c, 0, 78, 70
1, 345772, Note_on_c, 0, 43, 74
1, 345775, Note_on_c, 0, 31, 72
1, 345799, Note_off_c, 0, 78, 62
1, 345802, Note_off_c, 0, 43, 63
1, 345806, Note_on_c, 0, 82, 66
1, 345806, Note_off_c, 0, 31, 62
1, 345817, Note_off_c, 0, 81, 58
1, 345817, Note_on_c, 0, 79, 61
1, 345836, Note_off_c, 0, 79, 65
1, 345847, Note_off_c, 0, 82, 62
1, 345861, Control_c, 0, 67, 13
1, 345912, Note_on_c, 0, 81, 86
1, 345919, Note_on_c, 0, 84, 77
1, 345927, Note_on_c, 0, 30, 79
1, 345927, Note_on_c, 0, 42, 74
1, 345951, Note_off_c, 0, 81, 60
1, 345966, Note_on_c, 0, 82, 77
1, 345974, Note_off_c, 0, 84, 0
1, 345995, Control_c, 0, 64, 112
1, 345996, Note_off_c, 0, 30, 63
1, 345996, Note_on_c, 0, 86, 60
1, 346010, Note_on_c, 0, 84, 28
1, 346010, Control_c, 0, 64, 95
1, 346010, Control_c, 0, 67, 14
1, 346023, Note_off_c, 0, 82, 63
1, 346025, Control_c, 0, 64, 77
1, 346025, Control_c, 0, 67, 14
1, 346029, Note_off_c, 0, 42, 62
1, 346029, Note_off_c, 0, 86, 61
1, 346040, Control_c, 0, 64, 63
1, 346040, Control_c, 0, 67, 15
1, 346061, Control_c, 0, 64, 0
1, 346063, Note_on_c, 0, 87, 75
1, 346076, Control_c, 0, 67, 15
1, 346092, Note_off_c, 0, 87, 62
1, 346106, Note_off_c, 0, 84, 64
1, 346136, Control_c, 0, 67, 15
1, 346181, Control_c, 0, 67, 14
1, 346210, Control_c, 0, 67, 14
1, 346267, Note_on_c, 0, 67, 91
1, 346282, Note_on_c, 0, 43, 67
1, 346285, Note_on_c, 0, 55, 72
1, 346301, Note_off_c, 0, 67, 66
1, 346311, Note_off_c, 0, 55, 67
1, 346313, Note_off_c, 0, 43, 61
1, 346402, Control_c, 0, 67, 15
1, 346432, Control_c, 0, 67, 15
1, 346503, Note_on_c, 0, 66, 95
1, 346518, Note_on_c, 0, 42, 64
1, 346521, Note_on_c, 0, 54, 62
1, 346521, Control_c, 0, 67, 16
1, 346535, Control_c, 0, 67, 18
1, 346550, Control_c, 0, 64, 45
1, 346550, Control_c, 0, 67, 24
1, 346565, Control_c, 0, 64, 72
1, 346565, Control_c, 0, 67, 41
1, 346580, Control_c, 0, 64, 89
1, 346580, Control_c, 0, 67, 68
1, 346595, Control_c, 0, 64, 124
1, 346595, Control_c, 0, 67, 99
1, 346610, Control_c, 0, 64, 127
1, 346610, Control_c, 0, 67, 127
1, 346615, Note_off_c, 0, 42, 62
1, 346618, Note_off_c, 0, 54, 61
1, 346681, Note_off_c, 0, 66, 64
1, 346810, Control_c, 0, 64, 114
1, 346825, Control_c, 0, 64, 96
1, 346840, Control_c, 0, 64, 80
1, 346855, Control_c, 0, 64, 63
1, 346870, Control_c, 0, 64, 0
1, 347081, Note_on_c, 0, 67, 57
1, 347117, Note_off_c, 0, 67, 61
1, 347160, Note_on_c, 0, 69, 56
1, 347188, Note_off_c, 0, 69, 56
1, 347225, Note_on_c, 0, 70, 66
1, 347230, Note_on_c, 0, 58, 51
1, 347231, Note_on_c, 0, 55, 51
1, 347259, Note_off_c, 0, 58, 55
1, 347272, Note_off_c, 0, 55, 61
1, 347278, Note_off_c, 0, 70, 59
1, 347306, Note_on_c, 0, 72, 59
1, 347356, Note_off_c, 0, 72, 55
1, 347380, Note_on_c, 0, 74, 68
1, 347382, Note_on_c, 0, 55, 60
1, 347387, Note_on_c, 0, 58, 50
1, 347406, Note_off_c, 0, 74, 69
1, 347424, Note_off_c, 0, 58, 62
1, 347427, Note_off_c, 0, 55, 62
1, 347564, Note_on_c, 0, 75, 69
1, 347569, Note_on_c, 0, 58, 50
1, 347573, Note_on_c, 0, 55, 52
1, 347600, Note_off_c, 0, 58, 64
1, 347604, Note_off_c, 0, 75, 65
1, 347606, Note_off_c, 0, 55, 66
1, 347751, Note_on_c, 0, 74, 73
1, 347752, Control_c, 0, 64, 36
1, 347762, Note_on_c, 0, 60, 56
1, 347766, Note_on_c, 0, 57, 53
1, 347767, Control_c, 0, 64, 66
1, 347781, Control_c, 0, 64, 70
1, 347796, Note_off_c, 0, 57, 61
1, 347796, Note_off_c, 0, 60, 61
1, 347796, Control_c, 0, 64, 73
1, 347811, Control_c, 0, 64, 75
1, 347826, Control_c, 0, 64, 76
1, 347841, Control_c, 0, 64, 76
1, 347900, Note_on_c, 0, 57, 56
1, 347906, Note_off_c, 0, 74, 58
1, 347907, Note_on_c, 0, 60, 44
1, 347933, Note_off_c, 0, 60, 56
1, 347942, Note_off_c, 0, 57, 59
1, 347974, Control_c, 0, 64, 76
1, 348019, Control_c, 0, 64, 75
1, 348033, Control_c, 0, 64, 75
1, 348048, Control_c, 0, 64, 74
1, 348059, Note_on_c, 0, 60, 45
1, 348062, Note_on_c, 0, 57, 56
1, 348062, Note_on_c, 0, 67, 71
1, 348063, Control_c, 0, 64, 73
1, 348077, Control_c, 0, 64, 72
1, 348082, Note_off_c, 0, 60, 58
1, 348092, Control_c, 0, 64, 70
1, 348096, Note_off_c, 0, 57, 63
1, 348102, Note_off_c, 0, 67, 62
1, 348107, Control_c, 0, 64, 67
1, 348122, Note_on_c, 0, 69, 68
1, 348122, Control_c, 0, 64, 63
1, 348137, Control_c, 0, 64, 43
1, 348151, Control_c, 0, 64, 0
1, 348164, Note_off_c, 0, 69, 59
1, 348203, Note_on_c, 0, 70, 68
1, 348217, Note_on_c, 0, 58, 59
1, 348220, Note_on_c, 0, 55, 58
1, 348243, Note_off_c, 0, 58, 56
1, 348261, Note_off_c, 0, 55, 61
1, 348262, Note_off_c, 0, 70, 62
1, 348273, Note_on_c, 0, 72, 69
1, 348355, Note_off_c, 0, 72, 63
1, 348372, Note_on_c, 0, 74, 56
1, 348387, Note_on_c, 0, 55, 57
1, 348387, Note_on_c, 0, 58, 49
1, 348390, Note_off_c, 0, 74, 64
1, 348418, Note_off_c, 0, 58, 56
1, 348433, Note_off_c, 0, 55, 60
1, 348539, Note_on_c, 0, 63, 72
1, 348542, Note_on_c, 0, 58, 52
1, 348550, Note_on_c, 0, 55, 55
1, 348565, Note_off_c, 0, 63, 69
1, 348577, Note_off_c, 0, 58, 65
1, 348581, Note_off_c, 0, 55, 66
1, 348723, Note_on_c, 0, 62, 74
1, 348735, Note_on_c, 0, 57, 58
1, 348740, Note_on_c, 0, 54, 49
1, 348753, Control_c, 0, 64, 44
1, 348756, Note_off_c, 0, 62, 64
1, 348768, Control_c, 0, 64, 68
1, 348770, Note_off_c, 0, 57, 61
1, 348770, Note_off_c, 0, 54, 57
1, 348782, Control_c, 0, 64, 75
1, 348797, Control_c, 0, 64, 83
1, 348812, Control_c, 0, 64, 85
1, 348826, Control_c, 0, 64, 87
1, 348841, Control_c, 0, 64, 88
1, 348841, Control_c, 0, 67, 110
1, 348856, Control_c, 0, 64, 89
1, 348856, Control_c, 0, 67, 83
1, 348871, Control_c, 0, 67, 56
1, 348885, Note_on_c, 0, 54, 54
1, 348886, Control_c, 0, 64, 90
1, 348886, Control_c, 0, 67, 30
1, 348893, Note_on_c, 0, 57, 48
1, 348900, Control_c, 0, 67, 9
1, 348915, Control_c, 0, 67, 0
1, 348923, Note_off_c, 0, 57, 56
1, 348926, Note_off_c, 0, 54, 60
1, 349030, Note_on_c, 0, 57, 48
1, 349031, Note_on_c, 0, 54, 57
1, 349036, Note_on_c, 0, 79, 74
1, 349064, Note_off_c, 0, 57, 62
1, 349069, Note_off_c, 0, 54, 63
1, 349081, Note_off_c, 0, 79, 58
1, 349117, Note_on_c, 0, 81, 79
1, 349159, Note_off_c, 0, 81, 57
1, 349161, Control_c, 0, 64, 89
1, 349176, Control_c, 0, 64, 86
1, 349191, Control_c, 0, 64, 79
1, 349197, Note_on_c, 0, 83, 74
1, 349205, Control_c, 0, 64, 70
1, 349206, Note_on_c, 0, 62, 67
1, 349214, Note_on_c, 0, 67, 58
1, 349215, Note_on_c, 0, 71, 56
1, 349220, Control_c, 0, 64, 57
1, 349235, Control_c, 0, 64, 0
1, 349238, Note_off_c, 0, 71, 57
1, 349241, Note_off_c, 0, 67, 54
1, 349242, Note_off_c, 0, 62, 47
1, 349259, Note_off_c, 0, 83, 61
1, 349267, Note_on_c, 0, 84, 72
1, 349339, Note_off_c, 0, 84, 41
1, 349346, Note_on_c, 0, 86, 79
1, 349352, Note_on_c, 0, 62, 57
1, 349353, Note_on_c, 0, 67, 52
1, 349358, Note_on_c, 0, 71, 42
1, 349370, Note_off_c, 0, 86, 66
1, 349385, Note_off_c, 0, 62, 54
1, 349388, Note_off_c, 0, 71, 54
1, 349396, Note_off_c, 0, 67, 61
1, 349508, Note_on_c, 0, 88, 82
1, 349513, Note_on_c, 0, 76, 80
1, 349519, Note_on_c, 0, 62, 42
1, 349520, Note_on_c, 0, 71, 44
1, 349525, Note_on_c, 0, 67, 48
1, 349529, Note_off_c, 0, 88, 64
1, 349533, Note_off_c, 0, 76, 71
1, 349552, Note_off_c, 0, 71, 52
1, 349558, Note_off_c, 0, 67, 62
1, 349567, Note_off_c, 0, 62, 51
1, 349701, Note_on_c, 0, 86, 73
1, 349702, Note_on_c, 0, 62, 51
1, 349703, Note_on_c, 0, 74, 78
1, 349710, Note_on_c, 0, 72, 60
1, 349720, Note_on_c, 0, 66, 44
1, 349723, Control_c, 0, 64, 64
1, 349728, Note_on_c, 0, 84, 49
1, 349730, Note_off_c, 0, 74, 62
1, 349732, Note_off_c, 0, 72, 63
1, 349734, Note_off_c, 0, 86, 61
1, 349738, Control_c, 0, 64, 74
1, 349746, Note_off_c, 0, 66, 59
1, 349747, Note_off_c, 0, 62, 50
1, 349753, Control_c, 0, 64, 85
1, 349754, Note_off_c, 0, 84, 37
1, 349768, Control_c, 0, 64, 94
1, 349783, Control_c, 0, 64, 98
1, 349805, Control_c, 0, 64, 101
1, 349820, Control_c, 0, 64, 103
1, 349835, Control_c, 0, 64, 106
1, 349850, Control_c, 0, 64, 108
1, 349861, Note_on_c, 0, 66, 60
1, 349864, Control_c, 0, 64, 109
1, 349865, Note_on_c, 0, 72, 45
1, 349878, Note_on_c, 0, 62, 42
1, 349880, Control_c, 0, 64, 110
1, 349889, Note_off_c, 0, 66, 68
1, 349889, Note_off_c, 0, 72, 56
1, 349913, Note_off_c, 0, 62, 47
1, 350032, Note_on_c, 0, 72, 67
1, 350038, Note_on_c, 0, 55, 70
1, 350040, Note_on_c, 0, 62, 67
1, 350048, Note_on_c, 0, 66, 65
1, 350062, Note_off_c, 0, 72, 63
1, 350068, Note_off_c, 0, 62, 66
1, 350077, Note_off_c, 0, 66, 67
1, 350102, Control_c, 0, 64, 108
1, 350103, Note_on_c, 0, 57, 69
1, 350116, Note_off_c, 0, 55, 59
1, 350117, Control_c, 0, 64, 102
1, 350132, Control_c, 0, 64, 93
1, 350146, Control_c, 0, 64, 79
1, 350161, Control_c, 0, 64, 65
1, 350169, Note_on_c, 0, 59, 64
1, 350176, Control_c, 0, 64, 0
1, 350187, Note_on_c, 0, 71, 68
1, 350187, Note_off_c, 0, 57, 56
1, 350189, Note_on_c, 0, 62, 71
1, 350196, Note_on_c, 0, 67, 62
1, 350216, Note_off_c, 0, 62, 64
1, 350226, Note_off_c, 0, 67, 66
1, 350229, Note_off_c, 0, 71, 56
1, 350230, Note_on_c, 0, 60, 68
1, 350235, Note_off_c, 0, 59, 63
1, 350273, Note_off_c, 0, 60, 59
1, 350316, Note_on_c, 0, 62, 59
1, 350333, Note_on_c, 0, 67, 70
1, 350336, Note_on_c, 0, 71, 71
1, 350346, Note_off_c, 0, 62, 63
1, 350359, Note_off_c, 0, 67, 67
1, 350363, Note_off_c, 0, 71, 62
1, 350499, Note_on_c, 0, 67, 74
1, 350500, Note_on_c, 0, 52, 55
1, 350501, Note_on_c, 0, 71, 64
1, 350511, Note_on_c, 0, 40, 42
1, 350524, Note_off_c, 0, 67, 68
1, 350525, Note_off_c, 0, 52, 58
1, 350530, Note_off_c, 0, 71, 65
1, 350551, Note_off_c, 0, 40, 48
1, 350697, Note_on_c, 0, 72, 71
1, 350703, Note_on_c, 0, 62, 63
1, 350705, Note_on_c, 0, 50, 42
1, 350708, Note_on_c, 0, 38, 43
1, 350708, Note_on_c, 0, 66, 59
1, 350723, Note_off_c, 0, 62, 63
1, 350724, Note_off_c, 0, 72, 68
1, 350729, Note_off_c, 0, 66, 64
1, 350762, Control_c, 0, 64, 38
1, 350777, Control_c, 0, 64, 37
1, 350792, Control_c, 0, 64, 34
1, 350807, Control_c, 0, 64, 27
1, 350822, Control_c, 0, 64, 20
1, 350837, Control_c, 0, 64, 10
1, 350851, Control_c, 0, 64, 0
1, 350853, Note_on_c, 0, 72, 70
1, 350855, Note_on_c, 0, 66, 61
1, 350858, Note_on_c, 0, 62, 52
1, 350880, Note_off_c, 0, 38, 57
1, 350882, Note_off_c, 0, 72, 64
1, 350884, Note_off_c, 0, 62, 54
1, 350887, Note_off_c, 0, 66, 67
1, 350917, Note_off_c, 0, 50, 58
1, 351016, Note_on_c, 0, 67, 78
1, 351063, Note_off_c, 0, 67, 60
1, 351081, Note_on_c, 0, 69, 81
1, 351155, Note_on_c, 0, 71, 76
1, 351156, Note_off_c, 0, 69, 64
1, 351183, Note_on_c, 0, 55, 74
1, 351230, Note_on_c, 0, 72, 79
1, 351230, Note_off_c, 0, 71, 62
1, 351311, Note_on_c, 0, 74, 75
1, 351317, Note_off_c, 0, 72, 65
1, 351337, Note_off_c, 0, 74, 67
1, 351382, Note_off_c, 0, 55, 61
1, 351466, Note_on_c, 0, 79, 82
1, 351471, Note_on_c, 0, 74, 72
1, 351508, Note_off_c, 0, 74, 56
1, 351533, Note_on_c, 0, 81, 77
1, 351540, Note_off_c, 0, 79, 61
1, 351541, Note_on_c, 0, 78, 71
1, 351564, Note_off_c, 0, 78, 69
1, 351574, Note_off_c, 0, 81, 62
1, 351629, Note_on_c, 0, 83, 84
1, 351633, Note_on_c, 0, 55, 75
1, 351635, Note_on_c, 0, 79, 80
1, 351674, Note_off_c, 0, 79, 53
1, 351680, Note_off_c, 0, 83, 50
1, 351700, Note_on_c, 0, 81, 78
1, 351718, Note_on_c, 0, 84, 54
1, 351755, Note_off_c, 0, 55, 63
1, 351766, Note_on_c, 0, 86, 79
1, 351773, Note_on_c, 0, 83, 80
1, 351776, Note_off_c, 0, 81, 61
1, 351776, Note_off_c, 0, 84, 41
1, 351797, Note_off_c, 0, 83, 62
1, 351800, Note_off_c, 0, 86, 65
1, 351823, Control_c, 0, 64, 20
1, 351838, Control_c, 0, 64, 25
1, 351852, Control_c, 0, 64, 27
1, 351867, Control_c, 0, 64, 28
1, 351912, Control_c, 0, 64, 27
1, 351931, Note_on_c, 0, 83, 79
1, 351931, Note_on_c, 0, 67, 70
1, 351935, Note_on_c, 0, 79, 72
1, 351976, Note_off_c, 0, 67, 56
1, 351978, Note_off_c, 0, 79, 61
1, 351986, Control_c, 0, 64, 28
1, 351989, Note_off_c, 0, 83, 59
1, 351990, Note_on_c, 0, 81, 75
1, 351993, Note_on_c, 0, 84, 72
1, 351996, Note_on_c, 0, 66, 73
1, 352001, Control_c, 0, 64, 29
1, 352012, Note_off_c, 0, 81, 68
1, 352016, Control_c, 0, 64, 30
1, 352023, Note_off_c, 0, 66, 68
1, 352037, Note_off_c, 0, 84, 65
1, 352053, Control_c, 0, 64, 32
1, 352068, Control_c, 0, 64, 34
1, 352092, Note_on_c, 0, 65, 77
1, 352095, Note_on_c, 0, 55, 75
1, 352098, Control_c, 0, 64, 24
1, 352101, Note_on_c, 0, 83, 78
1, 352103, Note_on_c, 0, 86, 80
1, 352113, Control_c, 0, 64, 0
1, 352137, Note_off_c, 0, 83, 56
1, 352145, Note_off_c, 0, 86, 56
1, 352149, Note_off_c, 0, 65, 55
1, 352161, Note_on_c, 0, 84, 78
1, 352171, Note_on_c, 0, 64, 78
1, 352174, Note_on_c, 0, 88, 66
1, 352210, Note_off_c, 0, 84, 63
1, 352219, Note_off_c, 0, 88, 46
1, 352220, Note_off_c, 0, 55, 0
1, 352240, Note_on_c, 0, 89, 76
1, 352244, Note_on_c, 0, 62, 77
1, 352247, Note_on_c, 0, 86, 77
1, 352250, Note_off_c, 0, 64, 64
1, 352256, Poly_aftertouch_c, 0, 55, 127
1, 352276, Note_off_c, 0, 86, 59
1, 352278, Note_off_c, 0, 89, 64
1, 352300, Note_off_c, 0, 62, 62
1, 352403, Note_on_c, 0, 65, 75
1, 352411, Note_on_c, 0, 86, 80
1, 352412, Note_on_c, 0, 83, 74
1, 352451, Note_off_c, 0, 83, 59
1, 352456, Note_off_c, 0, 65, 62
1, 352457, Poly_aftertouch_c, 0, 55, 0
1, 352468, Note_on_c, 0, 84, 74
1, 352469, Note_off_c, 0, 86, 64
1, 352471, Note_on_c, 0, 64, 74
1, 352472, Note_on_c, 0, 88, 74
1, 352491, Note_off_c, 0, 84, 68
1, 352494, Poly_aftertouch_c, 0, 55, 127
1, 352505, Note_off_c, 0, 64, 65
1, 352517, Note_off_c, 0, 88, 63
1, 352566, Note_on_c, 0, 62, 78
1, 352570, Note_on_c, 0, 86, 80
1, 352575, Note_on_c, 0, 89, 78
1, 352605, Note_off_c, 0, 86, 63
1, 352633, Note_off_c, 0, 89, 41
1, 352636, Note_off_c, 0, 62, 61
1, 352640, Note_on_c, 0, 60, 74
1, 352643, Note_on_c, 0, 91, 68
1, 352648, Note_on_c, 0, 88, 64
1, 352691, Note_off_c, 0, 88, 50
1, 352710, Note_on_c, 0, 59, 74
1, 352713, Note_on_c, 0, 89, 75
1, 352716, Note_on_c, 0, 93, 75
1, 352717, Note_off_c, 0, 60, 61
1, 352724, Note_off_c, 0, 91, 54
1, 352740, Note_off_c, 0, 93, 65
1, 352747, Note_off_c, 0, 89, 62
1, 352748, Note_off_c, 0, 59, 62
1, 352754, Poly_aftertouch_c, 0, 55, 0
1, 352875, Note_on_c, 0, 59, 79
1, 352878, Note_on_c, 0, 89, 80
1, 352878, Note_on_c, 0, 93, 84
1, 352889, Note_on_c, 0, 55, 62
1, 352909, Note_off_c, 0, 89, 53
1, 352942, Note_on_c, 0, 88, 75
1, 352942, Note_on_c, 0, 91, 68
1, 352947, Note_off_c, 0, 93, 60
1, 352964, Note_on_c, 0, 60, 72
1, 352965, Note_off_c, 0, 55, 63
1, 352965, Note_off_c, 0, 59, 58
1, 352976, Note_on_c, 0, 57, 52
1, 352983, Note_off_c, 0, 88, 59
1, 353004, Note_off_c, 0, 60, 60
1, 353011, Note_on_c, 0, 62, 60
1, 353011, Note_off_c, 0, 57, 62
1, 353016, Note_on_c, 0, 86, 76
1, 353025, Note_off_c, 0, 91, 60
1, 353027, Note_on_c, 0, 89, 55
1, 353036, Note_off_c, 0, 86, 70
1, 353040, Note_off_c, 0, 62, 64
1, 353047, Note_off_c, 0, 89, 39
1, 353095, Note_on_c, 0, 64, 76
1, 353098, Note_on_c, 0, 88, 83
1, 353102, Note_on_c, 0, 84, 83
1, 353111, Note_on_c, 0, 60, 64
1, 353140, Note_off_c, 0, 84, 63
1, 353167, Note_off_c, 0, 64, 53
1, 353174, Note_off_c, 0, 60, 46
1, 353183, Note_on_c, 0, 86, 85
1, 353184, Note_on_c, 0, 65, 73
1, 353184, Note_on_c, 0, 83, 77
1, 353192, Note_off_c, 0, 88, 34
1, 353198, Note_on_c, 0, 62, 50
1, 353210, Note_off_c, 0, 65, 70
1, 353222, Note_off_c, 0, 62, 54
1, 353223, Note_off_c, 0, 86, 63
1, 353229, Note_off_c, 0, 83, 59
1, 353291, Control_c, 0, 67, 8
1, 353321, Control_c, 0, 67, 8
1, 353348, Note_on_c, 0, 56, 52
1, 353353, Note_on_c, 0, 89, 80
1, 353353, Note_on_c, 0, 86, 79
1, 353367, Note_on_c, 0, 59, 62
1, 353376, Note_off_c, 0, 86, 66
1, 353410, Control_c, 0, 67, 8
1, 353416, Note_off_c, 0, 89, 59
1, 353420, Note_off_c, 0, 56, 52
1, 353421, Note_on_c, 0, 88, 72
1, 353423, Note_on_c, 0, 84, 79
1, 353425, Control_c, 0, 67, 0
1, 353445, Note_off_c, 0, 59, 61
1, 353460, Note_off_c, 0, 84, 63
1, 353466, Note_on_c, 0, 60, 44
1, 353475, Note_on_c, 0, 62, 60
1, 353489, Note_off_c, 0, 88, 55
1, 353490, Note_off_c, 0, 60, 53
1, 353505, Note_on_c, 0, 86, 58
1, 353507, Note_on_c, 0, 83, 69
1, 353511, Note_off_c, 0, 62, 59
1, 353524, Note_off_c, 0, 86, 61
1, 353530, Note_off_c, 0, 83, 67
1, 353577, Note_on_c, 0, 64, 54
1, 353584, Note_on_c, 0, 60, 48
1, 353587, Note_on_c, 0, 84, 75
1, 353594, Note_on_c, 0, 81, 78
1, 353631, Note_off_c, 0, 81, 59
1, 353641, Note_off_c, 0, 84, 57
1, 353659, Note_off_c, 0, 64, 60
1, 353681, Note_off_c, 0, 60, 56
1, 353689, Note_on_c, 0, 83, 64
1, 353699, Control_c, 0, 67, 8
1, 353699, Note_on_c, 0, 65, 67
1, 353700, Note_on_c, 0, 62, 60
1, 353703, Note_on_c, 0, 80, 73
1, 353713, Control_c, 0, 67, 8
1, 353747, Note_off_c, 0, 65, 64
1, 353761, Note_off_c, 0, 80, 62
1, 353764, Note_off_c, 0, 83, 60
1, 353774, Note_off_c, 0, 62, 62
1, 353982, Note_on_c, 0, 52, 69
1, 353984, Note_on_c, 0, 69, 79
1, 354011, Control_c, 0, 67, 8
1, 354047, Note_off_c, 0, 69, 50
1, 354049, Note_off_c, 0, 52, 64
1, 354050, Note_on_c, 0, 50, 77
1, 354056, Note_on_c, 0, 71, 81
1, 354070, Control_c, 0, 67, 0
1, 354128, Note_on_c, 0, 72, 79
1, 354130, Note_on_c, 0, 48, 75
1, 354135, Note_off_c, 0, 71, 60
1, 354158, Note_off_c, 0, 50, 63
1, 354199, Note_on_c, 0, 47, 72
1, 354204, Note_on_c, 0, 74, 73
1, 354214, Note_off_c, 0, 72, 64
1, 354223, Note_off_c, 0, 48, 63
1, 354283, Note_on_c, 0, 76, 79
1, 354301, Note_on_c, 0, 45, 80
1, 354303, Note_off_c, 0, 74, 65
1, 354319, Note_off_c, 0, 47, 58
1, 354329, Note_off_c, 0, 45, 69
1, 354329, Note_off_c, 0, 76, 66
1, 354329, Control_c, 0, 67, 8
1, 354447, Note_on_c, 0, 81, 82
1, 354448, Note_on_c, 0, 76, 77
1, 354462, Note_on_c, 0, 64, 79
1, 354478, Control_c, 0, 67, 0
1, 354503, Note_off_c, 0, 76, 51
1, 354515, Note_on_c, 0, 80, 78
1, 354517, Note_off_c, 0, 81, 60
1, 354520, Note_on_c, 0, 83, 68
1, 354527, Note_on_c, 0, 62, 77
1, 354537, Note_off_c, 0, 64, 61
1, 354551, Note_off_c, 0, 80, 65
1, 354557, Note_off_c, 0, 83, 62
1, 354612, Note_on_c, 0, 60, 73
1, 354621, Note_on_c, 0, 81, 79
1, 354624, Note_on_c, 0, 84, 78
1, 354651, Note_off_c, 0, 62, 60
1, 354674, Note_off_c, 0, 81, 59
1, 354680, Note_off_c, 0, 84, 64
1, 354683, Note_on_c, 0, 83, 66
1, 354684, Note_on_c, 0, 59, 67
1, 354701, Note_on_c, 0, 86, 46
1, 354716, Note_off_c, 0, 60, 62
1, 354755, Note_on_c, 0, 88, 78
1, 354759, Note_off_c, 0, 86, 36
1, 354762, Note_on_c, 0, 84, 74
1, 354763, Note_off_c, 0, 83, 57
1, 354778, Note_on_c, 0, 57, 80
1, 354786, Note_off_c, 0, 84, 67
1, 354788, Note_off_c, 0, 88, 60
1, 354793, Note_off_c, 0, 59, 63
1, 354805, Note_off_c, 0, 57, 65
1, 354834, Control_c, 0, 67, 8
1, 354849, Control_c, 0, 67, 8
1, 354864, Control_c, 0, 67, 9
1, 354879, Control_c, 0, 67, 10
1, 354894, Control_c, 0, 67, 10
1, 354909, Control_c, 0, 67, 11
1, 354922, Note_on_c, 0, 76, 86
1, 354924, Control_c, 0, 67, 15
1, 354935, Note_on_c, 0, 79, 70
1, 354938, Control_c, 0, 67, 19
1, 354953, Control_c, 0, 67, 21
1, 354970, Note_off_c, 0, 76, 65
1, 354982, Note_off_c, 0, 79, 61
1, 354983, Control_c, 0, 67, 20
1, 354992, Note_on_c, 0, 78, 73
1, 354998, Control_c, 0, 67, 19
1, 355011, Note_on_c, 0, 75, 64
1, 355012, Control_c, 0, 67, 18
1, 355027, Control_c, 0, 64, 65
1, 355027, Control_c, 0, 67, 17
1, 355049, Control_c, 0, 64, 79
1, 355049, Control_c, 0, 67, 16
1, 355055, Note_off_c, 0, 75, 53
1, 355064, Control_c, 0, 64, 100
1, 355073, Note_on_c, 0, 67, 84
1, 355074, Note_off_c, 0, 78, 58
1, 355076, Note_on_c, 0, 79, 71
1, 355077, Note_on_c, 0, 76, 71
1, 355078, Note_on_c, 0, 58, 72
1, 355079, Control_c, 0, 64, 127
1, 355079, Control_c, 0, 67, 15
1, 355081, Note_on_c, 0, 61, 71
1, 355084, Note_on_c, 0, 64, 69
1, 355119, Note_off_c, 0, 67, 56
1, 355122, Note_off_c, 0, 64, 56
1, 355126, Note_off_c, 0, 76, 61
1, 355135, Note_on_c, 0, 75, 69
1, 355137, Note_off_c, 0, 58, 56
1, 355138, Note_off_c, 0, 79, 63
1, 355138, Control_c, 0, 67, 15
1, 355141, Note_on_c, 0, 78, 65
1, 355147, Note_off_c, 0, 61, 47
1, 355170, Note_off_c, 0, 75, 58
1, 355208, Note_on_c, 0, 76, 79
1, 355213, Note_on_c, 0, 79, 65
1, 355218, Note_on_c, 0, 67, 81
1, 355225, Note_on_c, 0, 64, 70
1, 355225, Control_c, 0, 67, 15
1, 355228, Note_off_c, 0, 76, 70
1, 355232, Note_on_c, 0, 61, 59
1, 355233, Note_on_c, 0, 58, 65
1, 355237, Note_off_c, 0, 78, 59
1, 355240, Note_off_c, 0, 67, 69
1, 355244, Note_off_c, 0, 79, 64
1, 355249, Note_off_c, 0, 64, 70
1, 355263, Note_off_c, 0, 61, 63
1, 355265, Note_off_c, 0, 58, 65
1, 355284, Control_c, 0, 67, 15
1, 355384, Note_on_c, 0, 88, 84
1, 355387, Note_on_c, 0, 91, 82
1, 355426, Note_off_c, 0, 88, 49
1, 355451, Note_off_c, 0, 91, 54
1, 355453, Note_on_c, 0, 90, 78
1, 355462, Note_on_c, 0, 87, 76
1, 355508, Note_off_c, 0, 87, 61
1, 355512, Note_off_c, 0, 90, 62
1, 355529, Note_on_c, 0, 88, 66
1, 355535, Note_on_c, 0, 67, 80
1, 355538, Note_on_c, 0, 91, 71
1, 355539, Note_on_c, 0, 58, 70
1, 355541, Note_on_c, 0, 64, 70
1, 355542, Note_on_c, 0, 61, 68
1, 355560, Note_off_c, 0, 67, 56
1, 355576, Note_off_c, 0, 61, 56
1, 355576, Note_off_c, 0, 64, 56
1, 355578, Note_off_c, 0, 88, 63
1, 355585, Note_on_c, 0, 90, 68
1, 355588, Note_off_c, 0, 91, 59
1, 355589, Note_off_c, 0, 58, 52
1, 355595, Note_on_c, 0, 87, 59
1, 355597, Control_c, 0, 67, 15
1, 355627, Control_c, 0, 67, 15
1, 355632, Note_off_c, 0, 87, 63
1, 355671, Note_on_c, 0, 88, 83
1, 355671, Control_c, 0, 67, 15
1, 355678, Note_on_c, 0, 91, 82
1, 355681, Note_on_c, 0, 67, 80
1, 355685, Control_c, 0, 67, 16
1, 355689, Note_on_c, 0, 61, 66
1, 355690, Note_on_c, 0, 64, 67
1, 355695, Note_on_c, 0, 58, 52
1, 355703, Note_off_c, 0, 67, 66
1, 355703, Note_off_c, 0, 90, 31
1, 355710, Note_off_c, 0, 88, 65
1, 355711, Note_off_c, 0, 58, 67
1, 355717, Note_off_c, 0, 64, 68
1, 355717, Note_off_c, 0, 91, 62
1, 355717, Note_off_c, 0, 61, 64
1, 355745, Control_c, 0, 67, 15
1, 355774, Control_c, 0, 67, 15
1, 355841, Control_c, 0, 67, 15
1, 355876, Note_on_c, 0, 71, 60
1, 355915, Control_c, 0, 67, 15
1, 355929, Note_on_c, 0, 73, 73
1, 355956, Note_off_c, 0, 71, 59
1, 355960, Control_c, 0, 67, 15
1, 355974, Control_c, 0, 64, 122
1, 355974, Control_c, 0, 67, 16
1, 355989, Control_c, 0, 64, 105
1, 355989, Control_c, 0, 67, 16
1, 356004, Control_c, 0, 64, 94
1, 356017, Note_on_c, 0, 83, 79
1, 356017, Note_off_c, 0, 73, 64
1, 356018, Control_c, 0, 64, 85
1, 356025, Note_on_c, 0, 75, 73
1, 356033, Control_c, 0, 64, 76
1, 356048, Control_c, 0, 64, 69
1, 356061, Note_off_c, 0, 75, 58
1, 356063, Control_c, 0, 64, 63
1, 356078, Control_c, 0, 64, 56
1, 356086, Note_on_c, 0, 76, 65
1, 356086, Note_on_c, 0, 85, 79
1, 356092, Control_c, 0, 67, 17
1, 356104, Note_off_c, 0, 83, 57
1, 356107, Control_c, 0, 64, 55
1, 356107, Control_c, 0, 67, 17
1, 356122, Control_c, 0, 64, 53
1, 356122, Control_c, 0, 67, 18
1, 356125, Note_off_c, 0, 76, 54
1, 356137, Control_c, 0, 64, 51
1, 356152, Control_c, 0, 64, 50
1, 356161, Note_on_c, 0, 87, 80
1, 356167, Control_c, 0, 64, 50
1, 356172, Note_off_c, 0, 85, 63
1, 356182, Control_c, 0, 64, 49
1, 356197, Control_c, 0, 64, 49
1, 356233, Note_on_c, 0, 88, 72
1, 356240, Note_off_c, 0, 87, 64
1, 356241, Control_c, 0, 64, 48
1, 356256, Control_c, 0, 64, 44
1, 356256, Control_c, 0, 67, 17
1, 356272, Control_c, 0, 64, 36
1, 356287, Control_c, 0, 64, 32
1, 356302, Control_c, 0, 64, 31
1, 356305, Note_on_c, 0, 59, 71
1, 356310, Note_on_c, 0, 90, 69
1, 356316, Control_c, 0, 64, 28
1, 356320, Note_off_c, 0, 88, 62
1, 356331, Control_c, 0, 64, 21
1, 356338, Note_off_c, 0, 90, 66
1, 356346, Control_c, 0, 64, 13
1, 356361, Control_c, 0, 64, 0
1, 356361, Control_c, 0, 67, 18
1, 356365, Note_on_c, 0, 61, 73
1, 356383, Note_off_c, 0, 59, 59
1, 356390, Control_c, 0, 67, 18
1, 356450, Note_off_c, 0, 61, 63
1, 356455, Note_on_c, 0, 63, 64
1, 356468, Note_on_c, 0, 71, 83
1, 356480, Control_c, 0, 67, 18
1, 356498, Note_off_c, 0, 63, 62
1, 356518, Note_on_c, 0, 64, 62
1, 356543, Note_on_c, 0, 73, 76
1, 356557, Note_off_c, 0, 71, 55
1, 356560, Note_off_c, 0, 64, 65
1, 356611, Note_on_c, 0, 66, 75
1, 356614, Note_on_c, 0, 75, 74
1, 356619, Note_off_c, 0, 73, 61
1, 356635, Control_c, 0, 67, 18
1, 356636, Note_off_c, 0, 66, 69
1, 356682, Note_on_c, 0, 76, 70
1, 356689, Note_off_c, 0, 75, 65
1, 356694, Control_c, 0, 67, 18
1, 356709, Control_c, 0, 67, 17
1, 356724, Control_c, 0, 67, 16
1, 356761, Note_on_c, 0, 78, 68
1, 356766, Note_on_c, 0, 47, 68
1, 356769, Note_off_c, 0, 76, 65
1, 356784, Note_off_c, 0, 78, 67
1, 356813, Control_c, 0, 67, 17
1, 356828, Note_on_c, 0, 49, 70
1, 356842, Control_c, 0, 67, 17
1, 356858, Note_off_c, 0, 47, 63
1, 356909, Note_off_c, 0, 49, 62
1, 356909, Note_on_c, 0, 51, 64
1, 356914, Note_on_c, 0, 59, 76
1, 356931, Control_c, 0, 67, 17
1, 356953, Note_off_c, 0, 51, 66
1, 356984, Note_on_c, 0, 61, 70
1, 356986, Note_on_c, 0, 52, 62
1, 356994, Note_off_c, 0, 59, 55
1, 357005, Control_c, 0, 67, 16
1, 357043, Note_off_c, 0, 52, 48
1, 357051, Note_on_c, 0, 63, 71
1, 357055, Note_off_c, 0, 61, 62
1, 357056, Note_on_c, 0, 54, 68
1, 357086, Note_off_c, 0, 54, 63
1, 357128, Note_on_c, 0, 64, 61
1, 357130, Note_off_c, 0, 63, 64
1, 357169, Control_c, 0, 67, 16
1, 357199, Note_on_c, 0, 66, 66
1, 357201, Note_on_c, 0, 35, 66
1, 357210, Note_off_c, 0, 64, 63
1, 357227, Note_off_c, 0, 66, 68
1, 357270, Note_on_c, 0, 37, 70
1, 357273, Control_c, 0, 67, 16
1, 357295, Control_c, 0, 67, 17
1, 357310, Note_off_c, 0, 35, 64
1, 357349, Note_on_c, 0, 39, 66
1, 357354, Control_c, 0, 67, 16
1, 357358, Note_off_c, 0, 37, 65
1, 357360, Note_on_c, 0, 47, 69
1, 357413, Note_off_c, 0, 39, 63
1, 357416, Note_off_c, 0, 47, 53
1, 357420, Note_on_c, 0, 40, 67
1, 357446, Note_on_c, 0, 49, 65
1, 357474, Note_off_c, 0, 40, 56
1, 357488, Control_c, 0, 67, 16
1, 357493, Note_on_c, 0, 42, 74
1, 357502, Note_off_c, 0, 49, 59
1, 357516, Note_on_c, 0, 51, 61
1, 357526, Note_off_c, 0, 42, 64
1, 357533, Control_c, 0, 64, 10
1, 357547, Control_c, 0, 64, 16
1, 357547, Control_c, 0, 67, 16
1, 357549, Note_off_c, 0, 51, 63
1, 357562, Control_c, 0, 64, 20
1, 357589, Note_on_c, 0, 52, 66
1, 357625, Note_off_c, 0, 52, 60
1, 357651, Control_c, 0, 64, 18
1, 357668, Note_on_c, 0, 54, 64
1, 357696, Control_c, 0, 64, 20
1, 357717, Note_off_c, 0, 54, 61
1, 357727, Note_on_c, 0, 55, 68
1, 357740, Control_c, 0, 64, 21
1, 357760, Note_off_c, 0, 55, 65
1, 357770, Control_c, 0, 67, 16
1, 357814, Note_on_c, 0, 57, 61
1, 357829, Control_c, 0, 64, 20
1, 357877, Note_off_c, 0, 57, 57
1, 357883, Note_on_c, 0, 59, 65
1, 357934, Control_c, 0, 64, 21
1, 357944, Note_off_c, 0, 59, 62
1, 357949, Note_on_c, 0, 61, 65
1, 357963, Control_c, 0, 64, 23
1, 357998, Note_off_c, 0, 61, 62
1, 358008, Control_c, 0, 64, 24
1, 358015, Note_on_c, 0, 63, 63
1, 358045, Control_c, 0, 64, 25
1, 358048, Note_off_c, 0, 63, 68
1, 358089, Control_c, 0, 64, 24
1, 358098, Note_on_c, 0, 64, 65
1, 358152, Note_off_c, 0, 64, 61
1, 358168, Note_on_c, 0, 66, 64
1, 358226, Note_off_c, 0, 66, 65
1, 358233, Note_on_c, 0, 67, 64
1, 358251, Control_c, 0, 64, 25
1, 358264, Note_off_c, 0, 67, 63
1, 358308, Note_on_c, 0, 69, 66
1, 358325, Control_c, 0, 64, 24
1, 358346, Note_off_c, 0, 69, 58
1, 358355, Control_c, 0, 64, 23
1, 358383, Note_on_c, 0, 70, 69
1, 358414, Control_c, 0, 64, 24
1, 358444, Control_c, 0, 64, 25
1, 358449, Note_off_c, 0, 70, 64
1, 358455, Note_on_c, 0, 71, 66
1, 358459, Control_c, 0, 67, 16
1, 358523, Note_off_c, 0, 71, 61
1, 358526, Note_on_c, 0, 72, 66
1, 358577, Control_c, 0, 64, 24
1, 358588, Note_on_c, 0, 71, 63
1, 358594, Note_off_c, 0, 72, 50
1, 358667, Control_c, 0, 64, 25
1, 358668, Note_on_c, 0, 70, 72
1, 358674, Note_off_c, 0, 71, 59
1, 358682, Control_c, 0, 64, 26
1, 358697, Control_c, 0, 64, 27
1, 358711, Control_c, 0, 64, 28
1, 358718, Note_off_c, 0, 70, 62
1, 358733, Note_on_c, 0, 69, 61
1, 358785, Note_off_c, 0, 69, 64
1, 358818, Note_on_c, 0, 68, 70
1, 358852, Control_c, 0, 64, 29
1, 358862, Note_off_c, 0, 68, 63
1, 358884, Note_on_c, 0, 67, 59
1, 358921, Note_off_c, 0, 67, 61
1, 358960, Note_on_c, 0, 66, 67
1, 358971, Control_c, 0, 64, 30
1, 359000, Control_c, 0, 64, 31
1, 359033, Note_on_c, 0, 65, 66
1, 359038, Note_off_c, 0, 66, 64
1, 359088, Note_off_c, 0, 65, 65
1, 359110, Note_on_c, 0, 64, 58
1, 359118, Control_c, 0, 64, 30
1, 359148, Control_c, 0, 64, 31
1, 359150, Note_off_c, 0, 64, 62
1, 359178, Control_c, 0, 64, 32
1, 359183, Note_on_c, 0, 63, 68
1, 359192, Control_c, 0, 64, 33
1, 359207, Control_c, 0, 64, 34
1, 359222, Note_off_c, 0, 63, 63
1, 359252, Note_on_c, 0, 62, 54
1, 359293, Note_off_c, 0, 62, 62
1, 359332, Note_on_c, 0, 61, 63
1, 359385, Control_c, 0, 64, 34
1, 359402, Note_on_c, 0, 60, 59
1, 359406, Note_off_c, 0, 61, 62
1, 359429, Control_c, 0, 64, 34
1, 359444, Control_c, 0, 64, 33
1, 359453, Note_off_c, 0, 60, 61
1, 359480, Note_on_c, 0, 59, 55
1, 359520, Note_off_c, 0, 59, 62
1, 359574, Note_on_c, 0, 58, 60
1, 359610, Note_off_c, 0, 58, 64
1, 359631, Control_c, 0, 64, 32
1, 359648, Note_on_c, 0, 57, 54
1, 359675, Control_c, 0, 64, 31
1, 359690, Control_c, 0, 64, 30
1, 359696, Note_off_c, 0, 57, 58
1, 359720, Control_c, 0, 64, 29
1, 359720, Control_c, 0, 67, 16
1, 359734, Control_c, 0, 64, 28
1, 359750, Note_on_c, 0, 55, 56
1, 359764, Control_c, 0, 64, 27
1, 359779, Control_c, 0, 64, 26
1, 359794, Control_c, 0, 64, 25
1, 359808, Control_c, 0, 67, 16
1, 359815, Note_off_c, 0, 55, 62
1, 359831, Note_on_c, 0, 54, 59
1, 359853, Control_c, 0, 64, 24
1, 359861, Note_off_c, 0, 54, 63
1, 359882, Control_c, 0, 64, 23
1, 359882, Control_c, 0, 67, 17
1, 359927, Control_c, 0, 67, 17
1, 359956, Control_c, 0, 64, 21
1, 359971, Control_c, 0, 64, 20
1, 359986, Control_c, 0, 64, 13
1, 359986, Control_c, 0, 67, 17
1, 360001, Control_c, 0, 64, 0
1, 360015, Control_c, 0, 67, 16
1, 360047, Note_on_c, 0, 52, 59
1, 360053, Note_on_c, 0, 40, 52
1, 360079, Note_off_c, 0, 52, 62
1, 360107, Note_off_c, 0, 40, 61
1, 360118, Note_on_c, 0, 54, 60
1, 360122, Note_on_c, 0, 42, 56
1, 360146, Note_off_c, 0, 54, 63
1, 360193, Note_on_c, 0, 55, 67
1, 360200, Note_off_c, 0, 42, 57
1, 360205, Note_on_c, 0, 43, 54
1, 360244, Note_off_c, 0, 55, 60
1, 360258, Note_off_c, 0, 43, 62
1, 360271, Note_on_c, 0, 45, 56
1, 360279, Note_on_c, 0, 57, 54
1, 360319, Note_off_c, 0, 45, 63
1, 360330, Note_off_c, 0, 57, 57
1, 360360, Note_on_c, 0, 59, 66
1, 360370, Note_on_c, 0, 47, 58
1, 360386, Note_off_c, 0, 59, 65
1, 360394, Control_c, 0, 67, 17
1, 360396, Note_off_c, 0, 47, 62
1, 360547, Note_on_c, 0, 60, 74
1, 360549, Note_on_c, 0, 48, 66
1, 360555, Note_on_c, 0, 36, 56
1, 360569, Note_off_c, 0, 48, 66
1, 360570, Note_off_c, 0, 60, 69
1, 360572, Control_c, 0, 67, 16
1, 360582, Note_off_c, 0, 36, 58
1, 360616, Control_c, 0, 67, 17
1, 360631, Control_c, 0, 67, 17
1, 360661, Control_c, 0, 67, 18
1, 360676, Control_c, 0, 67, 18
1, 360750, Control_c, 0, 67, 18
1, 360760, Note_on_c, 0, 59, 66
1, 360764, Control_c, 0, 67, 17
1, 360775, Note_on_c, 0, 47, 65
1, 360778, Note_on_c, 0, 35, 59
1, 360794, Control_c, 0, 64, 62
1, 360794, Control_c, 0, 67, 17
1, 360808, Control_c, 0, 64, 75
1, 360808, Control_c, 0, 67, 16
1, 360815, Note_off_c, 0, 47, 65
1, 360820, Note_off_c, 0, 35, 65
1, 360823, Control_c, 0, 64, 89
1, 360838, Control_c, 0, 64, 108
1, 360847, Note_off_c, 0, 59, 61
1, 360853, Control_c, 0, 64, 127
1, 360868, Control_c, 0, 67, 16
1, 361002, Control_c, 0, 67, 15
1, 361038, Control_c, 0, 67, 15
1, 361099, Control_c, 0, 67, 15
1, 361128, Control_c, 0, 67, 16
1, 361139, Note_on_c, 0, 52, 67
1, 361149, Note_on_c, 0, 40, 61
1, 361158, Control_c, 0, 64, 114
1, 361169, Note_off_c, 0, 52, 68
1, 361173, Control_c, 0, 64, 96
1, 361173, Control_c, 0, 67, 16
1, 361187, Control_c, 0, 64, 80
1, 361203, Control_c, 0, 64, 64
1, 361203, Control_c, 0, 67, 17
1, 361216, Note_on_c, 0, 54, 73
1, 361218, Control_c, 0, 64, 0
1, 361218, Control_c, 0, 67, 17
1, 361220, Note_off_c, 0, 40, 61
1, 361222, Note_on_c, 0, 42, 66
1, 361243, Note_off_c, 0, 54, 63
1, 361247, Control_c, 0, 67, 18
1, 361291, Note_on_c, 0, 55, 67
1, 361300, Note_on_c, 0, 43, 62
1, 361323, Note_off_c, 0, 42, 55
1, 361351, Control_c, 0, 67, 17
1, 361359, Note_off_c, 0, 55, 63
1, 361360, Note_on_c, 0, 45, 67
1, 361362, Note_on_c, 0, 57, 68
1, 361370, Note_off_c, 0, 43, 61
1, 361410, Control_c, 0, 67, 18
1, 361424, Note_off_c, 0, 57, 53
1, 361425, Note_off_c, 0, 45, 61
1, 361442, Note_on_c, 0, 59, 73
1, 361452, Note_on_c, 0, 47, 56
1, 361466, Note_off_c, 0, 59, 66
1, 361479, Note_off_c, 0, 47, 63
1, 361500, Control_c, 0, 67, 18
1, 361603, Control_c, 0, 67, 18
1, 361612, Note_on_c, 0, 60, 78
1, 361616, Note_on_c, 0, 48, 72
1, 361626, Note_on_c, 0, 36, 60
1, 361632, Control_c, 0, 67, 17
1, 361636, Note_off_c, 0, 60, 66
1, 361643, Note_off_c, 0, 48, 67
1, 361655, Note_off_c, 0, 36, 63
1, 361677, Control_c, 0, 67, 18
1, 361706, Control_c, 0, 67, 18
1, 361736, Control_c, 0, 67, 19
1, 361751, Control_c, 0, 67, 19
1, 361803, Control_c, 0, 67, 19
1, 361818, Control_c, 0, 67, 18
1, 361819, Note_on_c, 0, 59, 80
1, 361825, Note_on_c, 0, 47, 66
1, 361827, Note_on_c, 0, 35, 64
1, 361847, Control_c, 0, 64, 54
1, 361847, Control_c, 0, 67, 18
1, 361854, Note_off_c, 0, 47, 65
1, 361854, Note_off_c, 0, 35, 65
1, 361863, Control_c, 0, 64, 72
1, 361863, Control_c, 0, 67, 17
1, 361870, Note_off_c, 0, 59, 63
1, 361878, Control_c, 0, 64, 84
1, 361893, Control_c, 0, 64, 98
1, 361908, Control_c, 0, 64, 107
1, 361923, Control_c, 0, 64, 113
1, 361923, Control_c, 0, 67, 17
1, 361937, Control_c, 0, 64, 115
1, 361952, Control_c, 0, 64, 117
1, 361952, Control_c, 0, 67, 16
1, 361967, Control_c, 0, 64, 118
1, 361982, Control_c, 0, 64, 118
1, 362011, Control_c, 0, 64, 119
1, 362011, Control_c, 0, 67, 16
1, 362041, Control_c, 0, 67, 15
1, 362161, Note_on_c, 0, 52, 61
1, 362167, Note_on_c, 0, 64, 73
1, 362193, Note_off_c, 0, 52, 66
1, 362198, Note_off_c, 0, 64, 60
1, 362203, Control_c, 0, 64, 118
1, 362218, Control_c, 0, 64, 112
1, 362218, Control_c, 0, 67, 16
1, 362233, Control_c, 0, 64, 100
1, 362233, Control_c, 0, 67, 16
1, 362236, Note_on_c, 0, 60, 74
1, 362237, Note_on_c, 0, 48, 70
1, 362248, Control_c, 0, 64, 86
1, 362248, Control_c, 0, 67, 17
1, 362263, Control_c, 0, 64, 72
1, 362263, Control_c, 0, 67, 17
1, 362264, Note_off_c, 0, 60, 63
1, 362278, Control_c, 0, 64, 53
1, 362278, Control_c, 0, 67, 18
1, 362292, Note_off_c, 0, 48, 62
1, 362292, Control_c, 0, 64, 0
1, 362292, Control_c, 0, 67, 18
1, 362310, Note_on_c, 0, 47, 70
1, 362314, Note_on_c, 0, 59, 74
1, 362337, Note_off_c, 0, 47, 66
1, 362340, Note_off_c, 0, 59, 66
1, 362396, Control_c, 0, 67, 18
1, 362478, Note_on_c, 0, 55, 62
1, 362484, Note_on_c, 0, 67, 78
1, 362510, Note_off_c, 0, 67, 65
1, 362514, Note_off_c, 0, 55, 64
1, 362548, Note_on_c, 0, 60, 71
1, 362552, Control_c, 0, 67, 17
1, 362560, Note_on_c, 0, 48, 64
1, 362588, Note_off_c, 0, 60, 59
1, 362608, Note_off_c, 0, 48, 64
1, 362628, Note_on_c, 0, 47, 72
1, 362634, Note_on_c, 0, 59, 80
1, 362659, Note_off_c, 0, 47, 65
1, 362662, Note_off_c, 0, 59, 64
1, 362759, Control_c, 0, 67, 18
1, 362792, Note_on_c, 0, 59, 59
1, 362792, Note_on_c, 0, 71, 78
1, 362811, Note_off_c, 0, 59, 59
1, 362823, Note_off_c, 0, 71, 55
1, 362848, Control_c, 0, 67, 17
1, 362855, Note_on_c, 0, 60, 76
1, 362870, Note_on_c, 0, 48, 68
1, 362927, Note_off_c, 0, 48, 63
1, 362930, Note_off_c, 0, 60, 62
1, 362932, Note_on_c, 0, 59, 75
1, 362936, Note_on_c, 0, 47, 74
1, 362968, Note_off_c, 0, 59, 65
1, 362973, Note_off_c, 0, 47, 65
1, 363071, Control_c, 0, 67, 18
1, 363092, Note_on_c, 0, 60, 66
1, 363094, Note_on_c, 0, 72, 80
1, 363118, Note_off_c, 0, 60, 65
1, 363125, Note_off_c, 0, 72, 61
1, 363130, Control_c, 0, 67, 17
1, 363165, Note_on_c, 0, 60, 79
1, 363176, Note_on_c, 0, 48, 73
1, 363234, Note_off_c, 0, 60, 62
1, 363237, Note_off_c, 0, 48, 65
1, 363240, Note_on_c, 0, 59, 86
1, 363243, Note_on_c, 0, 47, 78
1, 363269, Note_off_c, 0, 59, 65
1, 363282, Note_off_c, 0, 47, 66
1, 363433, Note_on_c, 0, 64, 82
1, 363434, Note_on_c, 0, 76, 86
1, 363463, Note_off_c, 0, 64, 65
1, 363464, Control_c, 0, 67, 17
1, 363467, Note_off_c, 0, 76, 67
1, 363494, Control_c, 0, 67, 16
1, 363612, Control_c, 0, 67, 17
1, 363622, Note_on_c, 0, 59, 88
1, 363625, Note_on_c, 0, 47, 81
1, 363652, Note_off_c, 0, 47, 68
1, 363656, Note_off_c, 0, 59, 64
1, 363671, Control_c, 0, 67, 16
1, 363686, Control_c, 0, 67, 16
1, 363819, Control_c, 0, 67, 15
1, 363849, Note_on_c, 0, 58, 95
1, 363854, Note_on_c, 0, 46, 89
1, 363878, Control_c, 0, 67, 14
1, 363893, Control_c, 0, 67, 13
1, 363908, Control_c, 0, 64, 63
1, 363908, Control_c, 0, 67, 12
1, 363923, Control_c, 0, 64, 83
1, 363923, Control_c, 0, 67, 10
1, 363938, Control_c, 0, 64, 112
1, 363938, Control_c, 0, 67, 0
1, 363953, Control_c, 0, 64, 127
1, 363968, Note_off_c, 0, 46, 62
1, 363971, Note_off_c, 0, 58, 62
1, 364212, Control_c, 0, 64, 108
1, 364227, Control_c, 0, 64, 89
1, 364242, Control_c, 0, 64, 72
1, 364257, Control_c, 0, 64, 0
1, 364491, Note_on_c, 0, 79, 83
1, 364492, Note_on_c, 0, 70, 94
1, 364492, Note_on_c, 0, 76, 85
1, 364495, Note_on_c, 0, 82, 86
1, 364495, Note_on_c, 0, 48, 95
1, 364504, Note_on_c, 0, 36, 77
1, 364524, Control_c, 0, 64, 64
1, 364539, Control_c, 0, 64, 78
1, 364554, Control_c, 0, 64, 103
1, 364569, Control_c, 0, 64, 127
1, 364754, Note_off_c, 0, 76, 55
1, 364755, Note_off_c, 0, 48, 61
1, 364758, Note_off_c, 0, 70, 59
1, 364765, Note_off_c, 0, 82, 63
1, 364798, Note_off_c, 0, 36, 61
1, 364801, Note_off_c, 0, 79, 52
1, 365034, Note_on_c, 0, 83, 61
1, 365038, Note_on_c, 0, 47, 70
1, 365039, Note_on_c, 0, 35, 65
1, 365039, Note_on_c, 0, 71, 66
1, 365051, Control_c, 0, 64, 121
1, 365053, Note_off_c, 0, 83, 63
1, 365056, Note_on_c, 0, 79, 45
1, 365066, Control_c, 0, 64, 98
1, 365067, Note_off_c, 0, 35, 65
1, 365068, Note_on_c, 0, 76, 34
1, 365080, Note_off_c, 0, 71, 60
1, 365080, Control_c, 0, 64, 80
1, 365082, Note_off_c, 0, 79, 47
1, 365091, Note_off_c, 0, 47, 56
1, 365095, Control_c, 0, 64, 67
1, 365098, Note_off_c, 0, 76, 43
1, 365110, Control_c, 0, 64, 32
1, 365125, Control_c, 0, 64, 0
1, 365218, Note_on_c, 0, 51, 63
1, 365226, Note_on_c, 0, 63, 70
1, 365272, Note_off_c, 0, 51, 54
1, 365273, Note_off_c, 0, 63, 58
1, 365318, Note_on_c, 0, 52, 63
1, 365320, Note_on_c, 0, 64, 64
1, 365346, Note_off_c, 0, 52, 68
1, 365351, Note_off_c, 0, 64, 66
1, 365400, Note_on_c, 0, 54, 73
1, 365405, Note_on_c, 0, 66, 69
1, 365448, Note_off_c, 0, 66, 64
1, 365452, Note_off_c, 0, 54, 60
1, 365473, Note_on_c, 0, 67, 60
1, 365491, Note_on_c, 0, 55, 65
1, 365493, Note_off_c, 0, 67, 63
1, 365517, Note_off_c, 0, 55, 67
1, 365577, Note_on_c, 0, 58, 81
1, 365580, Note_on_c, 0, 70, 69
1, 365628, Note_off_c, 0, 70, 60
1, 365633, Note_off_c, 0, 58, 64
1, 365655, Note_on_c, 0, 71, 56
1, 365664, Note_on_c, 0, 59, 67
1, 365674, Note_off_c, 0, 71, 61
1, 365691, Note_off_c, 0, 59, 65
1, 365746, Note_on_c, 0, 63, 79
1, 365753, Note_on_c, 0, 75, 60
1, 365776, Note_off_c, 0, 75, 41
1, 365805, Note_off_c, 0, 63, 64
1, 365834, Note_on_c, 0, 76, 60
1, 365837, Note_on_c, 0, 64, 67
1, 365853, Note_off_c, 0, 76, 64
1, 365869, Note_off_c, 0, 64, 66
1, 365908, Note_on_c, 0, 66, 83
1, 365914, Note_on_c, 0, 78, 81
1, 365950, Note_off_c, 0, 78, 63
1, 365974, Note_off_c, 0, 66, 64
1, 365989, Note_on_c, 0, 79, 73
1, 365991, Note_on_c, 0, 67, 82
1, 366013, Note_off_c, 0, 79, 67
1, 366025, Note_off_c, 0, 67, 62
1, 366069, Note_on_c, 0, 70, 85
1, 366070, Note_on_c, 0, 82, 86
1, 366109, Note_off_c, 0, 82, 65
1, 366139, Note_off_c, 0, 70, 61
1, 366157, Note_on_c, 0, 83, 91
1, 366165, Note_on_c, 0, 71, 91
1, 366315, Note_off_c, 0, 71, 61
1, 366324, Note_off_c, 0, 83, 60
1, 366783, Note_on_c, 0, 75, 56
1, 366784, Note_on_c, 0, 66, 49
1, 366787, Note_on_c, 0, 69, 54
1, 366795, Note_on_c, 0, 71, 51
1, 366798, Note_on_c, 0, 59, 45
1, 366811, Note_on_c, 0, 47, 40
1, 366902, Note_off_c, 0, 59, 63
1, 366911, Note_off_c, 0, 66, 65
1, 366916, Note_off_c, 0, 75, 64
1, 366919, Note_off_c, 0, 69, 65
1, 366922, Note_off_c, 0, 47, 58
1, 366930, Note_off_c, 0, 71, 62
1, 367287, Note_on_c, 0, 64, 88
1, 367287, Note_on_c, 0, 67, 84
1, 367287, Note_on_c, 0, 76, 80
1, 367288, Note_on_c, 0, 52, 84
1, 367290, Note_on_c, 0, 40, 75
1, 367294, Note_on_c, 0, 71, 76
1, 367312, Control_c, 0, 64, 13
1, 367315, Note_off_c, 0, 40, 65
1, 367318, Note_off_c, 0, 52, 67
1, 367326, Control_c, 0, 64, 71
1, 367329, Note_off_c, 0, 64, 64
1, 367341, Control_c, 0, 64, 89
1, 367346, Note_off_c, 0, 67, 62
1, 367356, Control_c, 0, 64, 127
1, 367358, Note_off_c, 0, 71, 62
1, 367375, Note_off_c, 0, 76, 66
1, 367475, Note_on_c, 0, 59, 62
1, 367478, Note_on_c, 0, 55, 58
1, 367479, Note_on_c, 0, 64, 63
1, 367481, Note_on_c, 0, 52, 59
1, 367497, Note_off_c, 0, 64, 63
1, 367518, Note_off_c, 0, 59, 56
1, 367519, Note_off_c, 0, 52, 65
1, 367525, Note_off_c, 0, 55, 61
1, 367628, Note_on_c, 0, 82, 77
1, 367640, Note_on_c, 0, 64, 60
1, 367644, Note_on_c, 0, 59, 53
1, 367647, Note_on_c, 0, 52, 54
1, 367649, Note_on_c, 0, 55, 50
1, 367671, Note_off_c, 0, 64, 63
1, 367676, Note_off_c, 0, 82, 62
1, 367684, Note_off_c, 0, 59, 49
1, 367685, Note_off_c, 0, 52, 56
1, 367686, Note_off_c, 0, 55, 60
1, 367697, Note_on_c, 0, 90, 77
1, 367726, Note_off_c, 0, 90, 62
1, 367792, Note_on_c, 0, 91, 97
1, 367797, Note_on_c, 0, 83, 84
1, 367803, Note_on_c, 0, 52, 63
1, 367809, Note_on_c, 0, 64, 66
1, 367810, Note_on_c, 0, 59, 61
1, 367810, Note_on_c, 0, 55, 55
1, 367830, Note_off_c, 0, 83, 58
1, 367831, Note_off_c, 0, 64, 66
1, 367831, Note_off_c, 0, 91, 62
1, 367840, Note_off_c, 0, 52, 62
1, 367843, Note_off_c, 0, 59, 63
1, 367846, Note_off_c, 0, 55, 64
1, 367976, Note_on_c, 0, 78, 82
1, 367983, Note_on_c, 0, 64, 54
1, 367988, Note_on_c, 0, 52, 46
1, 367995, Note_on_c, 0, 59, 34
1, 368001, Note_on_c, 0, 55, 35
1, 368007, Note_off_c, 0, 64, 58
1, 368015, Note_off_c, 0, 78, 58
1, 368016, Note_off_c, 0, 52, 56
1, 368024, Note_off_c, 0, 59, 52
1, 368027, Note_off_c, 0, 55, 58
1, 368040, Note_on_c, 0, 87, 75
1, 368076, Note_off_c, 0, 87, 59
1, 368125, Note_on_c, 0, 88, 96
1, 368126, Note_on_c, 0, 59, 63
1, 368131, Note_on_c, 0, 55, 55
1, 368131, Note_on_c, 0, 64, 63
1, 368131, Note_on_c, 0, 79, 88
1, 368133, Note_on_c, 0, 52, 57
1, 368158, Note_off_c, 0, 64, 66
1, 368165, Note_off_c, 0, 52, 63
1, 368167, Note_off_c, 0, 88, 64
1, 368169, Note_off_c, 0, 79, 61
1, 368176, Note_off_c, 0, 59, 59
1, 368177, Note_off_c, 0, 55, 59
1, 368301, Note_on_c, 0, 78, 87
1, 368310, Note_on_c, 0, 59, 59
1, 368313, Note_on_c, 0, 64, 62
1, 368317, Note_on_c, 0, 52, 54
1, 368325, Note_on_c, 0, 55, 52
1, 368336, Note_off_c, 0, 64, 61
1, 368353, Note_off_c, 0, 78, 61
1, 368361, Note_off_c, 0, 52, 63
1, 368363, Note_off_c, 0, 55, 62
1, 368365, Note_on_c, 0, 82, 76
1, 368365, Note_off_c, 0, 59, 52
1, 368449, Note_on_c, 0, 83, 77
1, 368454, Note_on_c, 0, 79, 76
1, 368465, Note_on_c, 0, 64, 63
1, 368467, Note_on_c, 0, 52, 59
1, 368469, Note_off_c, 0, 82, 33
1, 368472, Note_on_c, 0, 55, 51
1, 368473, Note_on_c, 0, 59, 61
1, 368485, Note_off_c, 0, 83, 58
1, 368491, Note_off_c, 0, 64, 67
1, 368493, Note_off_c, 0, 79, 60
1, 368505, Note_off_c, 0, 59, 62
1, 368505, Note_off_c, 0, 52, 63
1, 368510, Note_off_c, 0, 55, 62
1, 368631, Note_on_c, 0, 70, 78
1, 368636, Note_on_c, 0, 59, 57
1, 368643, Note_on_c, 0, 52, 50
1, 368647, Note_on_c, 0, 64, 51
1, 368651, Note_on_c, 0, 55, 46
1, 368669, Note_off_c, 0, 64, 58
1, 368679, Note_off_c, 0, 59, 48
1, 368680, Note_off_c, 0, 70, 59
1, 368683, Note_off_c, 0, 52, 58
1, 368690, Note_on_c, 0, 78, 74
1, 368690, Note_off_c, 0, 55, 61
1, 368731, Note_off_c, 0, 78, 59
1, 368782, Note_on_c, 0, 79, 90
1, 368787, Note_on_c, 0, 71, 81
1, 368795, Note_on_c, 0, 64, 55
1, 368805, Note_on_c, 0, 55, 48
1, 368807, Note_on_c, 0, 59, 52
1, 368811, Note_on_c, 0, 52, 49
1, 368814, Note_off_c, 0, 71, 64
1, 368815, Note_off_c, 0, 64, 63
1, 368822, Note_off_c, 0, 79, 57
1, 368847, Note_off_c, 0, 59, 46
1, 368848, Note_off_c, 0, 52, 53
1, 368851, Note_off_c, 0, 55, 58
1, 368955, Note_on_c, 0, 66, 79
1, 368964, Note_on_c, 0, 59, 53
1, 368973, Note_on_c, 0, 52, 50
1, 368973, Note_on_c, 0, 55, 50
1, 368976, Note_on_c, 0, 64, 47
1, 368999, Note_off_c, 0, 64, 59
1, 369009, Note_off_c, 0, 66, 65
1, 369010, Note_on_c, 0, 75, 70
1, 369014, Note_off_c, 0, 52, 59
1, 369014, Note_off_c, 0, 59, 46
1, 369017, Note_off_c, 0, 55, 57
1, 369041, Note_off_c, 0, 75, 63
1, 369098, Note_on_c, 0, 64, 58
1, 369101, Note_on_c, 0, 76, 85
1, 369110, Note_on_c, 0, 67, 79
1, 369118, Note_off_c, 0, 64, 65
1, 369119, Note_on_c, 0, 52, 58
1, 369119, Note_on_c, 0, 59, 44
1, 369141, Note_off_c, 0, 67, 62
1, 369149, Note_off_c, 0, 59, 50
1, 369152, Note_off_c, 0, 76, 66
1, 369158, Note_off_c, 0, 52, 66
1, 369217, Poly_aftertouch_c, 0, 55, 0
1, 369238, Control_c, 0, 64, 111
1, 369253, Control_c, 0, 64, 81
1, 369275, Control_c, 0, 64, 0
1, 369305, Note_on_c, 0, 75, 82
1, 369307, Note_on_c, 0, 57, 64
1, 369307, Note_on_c, 0, 66, 88
1, 369309, Note_on_c, 0, 54, 65
1, 369310, Note_on_c, 0, 47, 66
1, 369334, Control_c, 0, 64, 27
1, 369339, Note_off_c, 0, 57, 61
1, 369348, Note_off_c, 0, 54, 60
1, 369349, Control_c, 0, 64, 72
1, 369354, Note_off_c, 0, 66, 63
1, 369356, Note_off_c, 0, 47, 60
1, 369364, Control_c, 0, 64, 87
1, 369366, Note_off_c, 0, 75, 63
1, 369379, Control_c, 0, 64, 121
1, 369394, Control_c, 0, 64, 127
1, 369466, Note_on_c, 0, 47, 60
1, 369468, Note_on_c, 0, 54, 56
1, 369469, Note_on_c, 0, 57, 53
1, 369490, Note_off_c, 0, 57, 60
1, 369503, Note_off_c, 0, 47, 61
1, 369503, Note_off_c, 0, 54, 61
1, 369587, Note_on_c, 0, 69, 69
1, 369610, Note_on_c, 0, 57, 50
1, 369614, Note_on_c, 0, 54, 62
1, 369616, Note_on_c, 0, 47, 58
1, 369620, Note_on_c, 0, 66, 71
1, 369643, Note_off_c, 0, 69, 61
1, 369644, Note_off_c, 0, 57, 61
1, 369654, Note_off_c, 0, 54, 58
1, 369662, Note_on_c, 0, 63, 67
1, 369671, Note_off_c, 0, 47, 60
1, 369672, Note_off_c, 0, 66, 65
1, 369687, Note_on_c, 0, 60, 70
1, 369690, Note_off_c, 0, 63, 66
1, 369733, Note_off_c, 0, 60, 66
1, 369751, Note_on_c, 0, 59, 84
1, 369772, Note_off_c, 0, 59, 70
1, 369772, Note_on_c, 0, 47, 67
1, 369772, Note_on_c, 0, 54, 65
1, 369774, Note_on_c, 0, 57, 60
1, 369796, Note_off_c, 0, 57, 61
1, 369804, Note_off_c, 0, 54, 62
1, 369808, Note_off_c, 0, 47, 60
1, 369906, Note_on_c, 0, 81, 75
1, 369946, Note_on_c, 0, 54, 55
1, 369948, Note_on_c, 0, 47, 51
1, 369953, Note_on_c, 0, 57, 44
1, 369956, Note_on_c, 0, 78, 70
1, 369974, Note_off_c, 0, 81, 57
1, 369985, Note_off_c, 0, 57, 54
1, 369994, Note_off_c, 0, 54, 54
1, 369995, Note_off_c, 0, 47, 58
1, 369996, Note_on_c, 0, 75, 70
1, 370001, Note_off_c, 0, 78, 61
1, 370028, Note_off_c, 0, 75, 69
1, 370031, Note_on_c, 0, 72, 68
1, 370064, Note_off_c, 0, 72, 67
1, 370079, Note_on_c, 0, 71, 83
1, 370100, Note_off_c, 0, 71, 68
1, 370103, Note_on_c, 0, 57, 57
1, 370105, Note_on_c, 0, 54, 69
1, 370108, Note_on_c, 0, 47, 62
1, 370128, Note_off_c, 0, 57, 63
1, 370143, Note_off_c, 0, 54, 60
1, 370144, Note_off_c, 0, 47, 62
1, 370231, Note_on_c, 0, 93, 77
1, 370265, Note_on_c, 0, 54, 52
1, 370272, Note_on_c, 0, 90, 72
1, 370276, Note_on_c, 0, 47, 52
1, 370293, Note_off_c, 0, 93, 55
1, 370297, Note_on_c, 0, 57, 24
1, 370318, Note_off_c, 0, 47, 59
1, 370320, Note_on_c, 0, 87, 75
1, 370329, Note_off_c, 0, 90, 63
1, 370335, Note_off_c, 0, 57, 48
1, 370345, Note_off_c, 0, 54, 57
1, 370359, Note_on_c, 0, 84, 69
1, 370361, Note_off_c, 0, 87, 63
1, 370383, Note_off_c, 0, 84, 67
1, 370415, Note_on_c, 0, 83, 88
1, 370424, Note_on_c, 0, 57, 61
1, 370428, Note_on_c, 0, 54, 66
1, 370434, Note_on_c, 0, 47, 61
1, 370448, Note_off_c, 0, 83, 60
1, 370453, Note_off_c, 0, 57, 64
1, 370454, Note_off_c, 0, 54, 61
1, 370465, Note_off_c, 0, 47, 64
1, 370579, Note_on_c, 0, 81, 80
1, 370598, Note_on_c, 0, 54, 63
1, 370603, Note_on_c, 0, 47, 57
1, 370609, Note_on_c, 0, 57, 42
1, 370626, Note_on_c, 0, 78, 67
1, 370633, Note_off_c, 0, 81, 60
1, 370639, Note_off_c, 0, 54, 57
1, 370639, Note_off_c, 0, 57, 49
1, 370643, Note_off_c, 0, 47, 60
1, 370662, Note_on_c, 0, 75, 74
1, 370669, Note_off_c, 0, 78, 63
1, 370687, Note_off_c, 0, 75, 67
1, 370698, Note_on_c, 0, 72, 64
1, 370732, Note_off_c, 0, 72, 66
1, 370746, Note_on_c, 0, 57, 58
1, 370751, Note_on_c, 0, 54, 69
1, 370754, Note_on_c, 0, 47, 64
1, 370755, Note_on_c, 0, 71, 87
1, 370782, Note_off_c, 0, 57, 63
1, 370785, Note_off_c, 0, 54, 64
1, 370796, Note_off_c, 0, 71, 56
1, 370804, Note_off_c, 0, 47, 59
1, 370832, Control_c, 0, 64, 124
1, 370847, Control_c, 0, 64, 94
1, 370862, Control_c, 0, 64, 70
1, 370877, Control_c, 0, 64, 0
1, 370928, Note_on_c, 0, 83, 94
1, 370931, Note_on_c, 0, 71, 88
1, 370932, Note_on_c, 0, 75, 89
1, 370935, Note_on_c, 0, 47, 61
1, 370943, Note_on_c, 0, 54, 58
1, 370943, Note_on_c, 0, 57, 54
1, 370967, Note_off_c, 0, 57, 56
1, 370981, Control_c, 0, 64, 61
1, 370983, Note_off_c, 0, 54, 59
1, 370996, Control_c, 0, 64, 73
1, 370998, Note_off_c, 0, 47, 56
1, 371011, Control_c, 0, 64, 87
1, 371025, Control_c, 0, 64, 102
1, 371040, Control_c, 0, 64, 112
1, 371055, Control_c, 0, 64, 120
1, 371070, Control_c, 0, 64, 126
1, 371085, Control_c, 0, 64, 127
1, 371104, Note_on_c, 0, 57, 51
1, 371112, Note_on_c, 0, 54, 54
1, 371116, Note_on_c, 0, 47, 60
1, 371117, Note_off_c, 0, 75, 60
1, 371128, Note_off_c, 0, 57, 58
1, 371136, Note_off_c, 0, 54, 61
1, 371148, Note_off_c, 0, 47, 64
1, 371283, Note_on_c, 0, 79, 64
1, 371286, Note_off_c, 0, 83, 53
1, 371286, Note_on_c, 0, 76, 58
1, 371288, Note_on_c, 0, 52, 61
1, 371303, Note_on_c, 0, 55, 39
1, 371307, Control_c, 0, 64, 114
1, 371322, Control_c, 0, 64, 97
1, 371325, Note_off_c, 0, 52, 64
1, 371333, Note_off_c, 0, 55, 54
1, 371337, Control_c, 0, 64, 83
1, 371351, Control_c, 0, 64, 70
1, 371358, Note_off_c, 0, 71, 54
1, 371366, Control_c, 0, 64, 54
1, 371367, Note_off_c, 0, 79, 60
1, 371373, Note_off_c, 0, 76, 61
1, 371381, Control_c, 0, 64, 0
1, 371447, Note_on_c, 0, 52, 62
1, 371447, Note_on_c, 0, 55, 46
1, 371472, Note_off_c, 0, 52, 66
1, 371474, Note_off_c, 0, 55, 58
1, 371618, Note_on_c, 0, 51, 52
1, 371621, Note_on_c, 0, 63, 58
1, 371653, Note_off_c, 0, 63, 65
1, 371667, Note_off_c, 0, 51, 63
1, 371691, Note_on_c, 0, 64, 64
1, 371693, Note_on_c, 0, 52, 53
1, 371731, Note_off_c, 0, 64, 64
1, 371738, Note_off_c, 0, 52, 65
1, 371787, Note_on_c, 0, 67, 66
1, 371790, Note_on_c, 0, 55, 60
1, 371816, Note_off_c, 0, 67, 66
1, 371818, Note_off_c, 0, 55, 67
1, 371952, Note_on_c, 0, 63, 70
1, 371954, Note_on_c, 0, 51, 44
1, 371980, Note_off_c, 0, 63, 68
1, 372008, Note_off_c, 0, 51, 61
1, 372017, Note_on_c, 0, 52, 61
1, 372022, Note_on_c, 0, 64, 63
1, 372061, Note_off_c, 0, 52, 67
1, 372062, Note_off_c, 0, 64, 65
1, 372109, Note_on_c, 0, 71, 73
1, 372110, Note_on_c, 0, 59, 63
1, 372131, Note_off_c, 0, 71, 68
1, 372138, Note_off_c, 0, 59, 65
1, 372276, Note_on_c, 0, 63, 75
1, 372284, Note_on_c, 0, 51, 61
1, 372316, Note_off_c, 0, 63, 59
1, 372334, Note_on_c, 0, 52, 68
1, 372341, Note_on_c, 0, 64, 67
1, 372345, Note_off_c, 0, 51, 54
1, 372367, Note_off_c, 0, 52, 68
1, 372383, Note_off_c, 0, 64, 63
1, 372435, Note_on_c, 0, 76, 86
1, 372446, Note_on_c, 0, 64, 77
1, 372471, Note_off_c, 0, 76, 66
1, 372484, Note_off_c, 0, 64, 64
1, 372599, Note_on_c, 0, 64, 86
1, 372610, Note_on_c, 0, 52, 74
1, 372640, Note_off_c, 0, 52, 68
1, 372642, Note_off_c, 0, 64, 64
1, 372774, Note_on_c, 0, 79, 85
1, 372777, Note_on_c, 0, 67, 86
1, 372810, Note_off_c, 0, 79, 63
1, 372812, Note_off_c, 0, 67, 64
1, 372934, Note_on_c, 0, 64, 81
1, 372943, Note_on_c, 0, 52, 72
1, 372955, Note_off_c, 0, 64, 71
1, 372970, Note_off_c, 0, 52, 68
1, 373123, Note_on_c, 0, 76, 71
1, 373126, Note_on_c, 0, 83, 87
1, 373128, Note_on_c, 0, 55, 83
1, 373128, Note_on_c, 0, 71, 81
1, 373129, Note_on_c, 0, 43, 73
1, 373151, Note_off_c, 0, 71, 68
1, 373163, Note_off_c, 0, 43, 61
1, 373163, Note_off_c, 0, 55, 62
1, 373171, Note_off_c, 0, 76, 63
1, 373173, Note_off_c, 0, 83, 60
1, 373346, Control_c, 0, 67, 8
1, 373360, Control_c, 0, 67, 8
1, 373362, Note_on_c, 0, 84, 95
1, 373363, Note_on_c, 0, 76, 88
1, 373364, Note_on_c, 0, 72, 91
1, 373367, Note_on_c, 0, 57, 93
1, 373373, Note_on_c, 0, 45, 75
1, 373390, Control_c, 0, 67, 8
1, 373405, Control_c, 0, 67, 8
1, 373419, Control_c, 0, 64, 69
1, 373419, Control_c, 0, 67, 8
1, 373423, Note_off_c, 0, 72, 64
1, 373434, Control_c, 0, 64, 86
1, 373434, Control_c, 0, 67, 0
1, 373441, Note_off_c, 0, 76, 65
1, 373444, Note_off_c, 0, 57, 60
1, 373449, Control_c, 0, 64, 117
1, 373453, Note_off_c, 0, 45, 64
1, 373457, Note_off_c, 0, 84, 61
1, 373464, Control_c, 0, 64, 127
1, 373890, Note_on_c, 0, 86, 87
1, 373892, Note_on_c, 0, 83, 85
1, 373932, Control_c, 0, 64, 119
1, 373936, Note_off_c, 0, 83, 54
1, 373947, Control_c, 0, 64, 105
1, 373962, Control_c, 0, 64, 94
1, 373969, Note_on_c, 0, 81, 76
1, 373976, Control_c, 0, 64, 84
1, 373978, Note_on_c, 0, 84, 70
1, 373978, Note_off_c, 0, 86, 60
1, 373991, Control_c, 0, 64, 76
1, 373991, Control_c, 0, 67, 8
1, 374006, Control_c, 0, 64, 70
1, 374021, Control_c, 0, 64, 65
1, 374036, Control_c, 0, 64, 62
1, 374036, Control_c, 0, 67, 8
1, 374040, Note_off_c, 0, 81, 59
1, 374044, Note_off_c, 0, 84, 64
1, 374045, Note_on_c, 0, 79, 68
1, 374050, Note_on_c, 0, 83, 50
1, 374050, Control_c, 0, 64, 61
1, 374065, Control_c, 0, 64, 59
1, 374073, Note_off_c, 0, 79, 65
1, 374073, Note_off_c, 0, 83, 38
1, 374080, Control_c, 0, 64, 57
1, 374095, Control_c, 0, 64, 53
1, 374110, Control_c, 0, 64, 47
1, 374124, Control_c, 0, 64, 43
1, 374142, Note_on_c, 0, 81, 82
1, 374147, Note_on_c, 0, 78, 72
1, 374183, Control_c, 0, 64, 42
1, 374183, Control_c, 0, 67, 9
1, 374195, Note_off_c, 0, 78, 55
1, 374198, Control_c, 0, 64, 41
1, 374211, Note_on_c, 0, 79, 64
1, 374213, Control_c, 0, 64, 41
1, 374221, Note_on_c, 0, 76, 68
1, 374238, Note_off_c, 0, 81, 55
1, 374258, Control_c, 0, 64, 39
1, 374273, Control_c, 0, 64, 38
1, 374278, Note_on_c, 0, 78, 62
1, 374282, Note_off_c, 0, 79, 61
1, 374288, Control_c, 0, 64, 36
1, 374288, Control_c, 0, 67, 8
1, 374288, Note_off_c, 0, 76, 66
1, 374291, Note_on_c, 0, 74, 60
1, 374300, Note_off_c, 0, 78, 65
1, 374303, Control_c, 0, 64, 35
1, 374317, Note_off_c, 0, 74, 69
1, 374361, Control_c, 0, 64, 34
1, 374383, Note_on_c, 0, 76, 75
1, 374384, Note_on_c, 0, 72, 73
1, 374391, Control_c, 0, 64, 33
1, 374406, Control_c, 0, 64, 31
1, 374421, Control_c, 0, 64, 30
1, 374435, Control_c, 0, 64, 28
1, 374448, Note_off_c, 0, 72, 61
1, 374450, Control_c, 0, 64, 24
1, 374458, Note_on_c, 0, 74, 62
1, 374463, Note_on_c, 0, 71, 70
1, 374465, Control_c, 0, 64, 21
1, 374478, Note_off_c, 0, 76, 62
1, 374495, Control_c, 0, 64, 20
1, 374517, Control_c, 0, 64, 18
1, 374529, Note_on_c, 0, 72, 60
1, 374535, Note_off_c, 0, 71, 61
1, 374535, Note_off_c, 0, 74, 64
1, 374538, Note_on_c, 0, 69, 72
1, 374560, Note_off_c, 0, 72, 66
1, 374570, Note_off_c, 0, 69, 66
1, 374636, Note_on_c, 0, 71, 80
1, 374648, Note_on_c, 0, 67, 72
1, 374666, Control_c, 0, 64, 20
1, 374696, Control_c, 0, 64, 21
1, 374705, Note_on_c, 0, 69, 66
1, 374708, Note_off_c, 0, 71, 58
1, 374721, Note_on_c, 0, 66, 77
1, 374746, Note_off_c, 0, 67, 0
1, 374751, Note_off_c, 0, 69, 61
1, 374755, Control_c, 0, 64, 20
1, 374755, Control_c, 0, 67, 8
1, 374781, Note_on_c, 0, 64, 60
1, 374785, Control_c, 0, 64, 18
1, 374795, Poly_aftertouch_c, 0, 67, 0
1, 374800, Note_off_c, 0, 66, 41
1, 374810, Note_off_c, 0, 64, 65
1, 374888, Note_on_c, 0, 66, 67
1, 374888, Control_c, 0, 64, 20
1, 374890, Note_on_c, 0, 63, 62
1, 374903, Control_c, 0, 64, 21
1, 374947, Control_c, 0, 67, 0
1, 374953, Note_on_c, 0, 64, 68
1, 374961, Note_off_c, 0, 66, 60
1, 374962, Note_off_c, 0, 63, 60
1, 374962, Control_c, 0, 64, 18
1, 374970, Note_on_c, 0, 61, 60
1, 374977, Control_c, 0, 64, 16
1, 374991, Control_c, 0, 64, 0
1, 375075, Note_on_c, 0, 63, 70
1, 375078, Note_on_c, 0, 59, 57
1, 375081, Note_off_c, 0, 64, 59
1, 375083, Note_off_c, 0, 61, 57
1, 375097, Note_on_c, 0, 57, 42
1, 375098, Note_on_c, 0, 47, 44
1, 375098, Note_on_c, 0, 54, 36
1, 375110, Control_c, 0, 67, 8
1, 375125, Control_c, 0, 67, 11
1, 375140, Control_c, 0, 67, 17
1, 375155, Control_c, 0, 67, 41
1, 375170, Control_c, 0, 67, 89
1, 375184, Control_c, 0, 67, 127
1, 375295, Control_c, 0, 64, 59
1, 375310, Control_c, 0, 64, 69
1, 375325, Control_c, 0, 64, 71
1, 375340, Control_c, 0, 64, 73
1, 375355, Control_c, 0, 64, 74
1, 375370, Control_c, 0, 64, 75
1, 375384, Control_c, 0, 64, 77
1, 375399, Control_c, 0, 64, 77
1, 375468, Note_off_c, 0, 59, 29
1, 375488, Note_off_c, 0, 57, 34
1, 375733, Note_off_c, 0, 63, 57
1, 375740, Control_c, 0, 64, 77
1, 375753, Note_off_c, 0, 47, 41
1, 375755, Control_c, 0, 64, 76
1, 375760, Note_off_c, 0, 54, 39
1, 375770, Control_c, 0, 64, 73
1, 375772, Note_on_c, 0, 64, 44
1, 375785, Control_c, 0, 64, 67
1, 375787, Note_on_c, 0, 59, 32
1, 375796, Note_on_c, 0, 52, 31
1, 375799, Note_on_c, 0, 55, 35
1, 375800, Control_c, 0, 64, 54
1, 375814, Control_c, 0, 64, 0
1, 376058, Note_off_c, 0, 55, 58
1, 376073, Note_off_c, 0, 64, 63
1, 376078, Note_off_c, 0, 59, 58
1, 376088, Note_off_c, 0, 52, 61
1, 376431, Note_on_c, 0, 59, 49
1, 376437, Note_on_c, 0, 47, 40
1, 376608, Control_c, 0, 64, 64
1, 376623, Control_c, 0, 64, 70
1, 376637, Control_c, 0, 64, 76
1, 376652, Control_c, 0, 64, 83
1, 376667, Control_c, 0, 64, 89
1, 376682, Control_c, 0, 64, 94
1, 376697, Control_c, 0, 64, 100
1, 376711, Control_c, 0, 64, 106
1, 376726, Control_c, 0, 64, 112
1, 376741, Control_c, 0, 64, 121
1, 376763, Control_c, 0, 64, 127
1, 377009, Note_off_c, 0, 47, 42
1, 377013, Note_off_c, 0, 59, 30
1, 377564, Note_on_c, 0, 52, 42
1, 377576, Note_on_c, 0, 40, 38
1, 377659, Control_c, 0, 64, 112
1, 377675, Control_c, 0, 64, 99
1, 377690, Control_c, 0, 64, 86
1, 377705, Control_c, 0, 64, 71
1, 377719, Control_c, 0, 64, 28
1, 377734, Control_c, 0, 64, 0
1, 377869, Control_c, 0, 64, 61
1, 377883, Control_c, 0, 64, 70
1, 377898, Control_c, 0, 64, 77
1, 377913, Control_c, 0, 64, 84
1, 377928, Control_c, 0, 64, 91
1, 377943, Control_c, 0, 64, 97
1, 377957, Control_c, 0, 64, 103
1, 377972, Control_c, 0, 64, 108
1, 377987, Control_c, 0, 64, 115
1, 378002, Control_c, 0, 64, 120
1, 378017, Control_c, 0, 64, 127
1, 378032, Control_c, 0, 64, 127
1, 378072, Note_off_c, 0, 40, 35
1, 378321, Note_off_c, 0, 52, 43
1, 378542, Control_c, 0, 64, 117
1, 378557, Control_c, 0, 64, 109
1, 378572, Control_c, 0, 64, 105
1, 378587, Control_c, 0, 64, 102
1, 378602, Control_c, 0, 64, 97
1, 378616, Control_c, 0, 64, 91
1, 378632, Control_c, 0, 64, 84
1, 378647, Control_c, 0, 64, 76
1, 378662, Control_c, 0, 64, 68
1, 378677, Control_c, 0, 64, 59
1, 378692, Control_c, 0, 64, 23
1, 378706, Control_c, 0, 64, 0
1, 379081, Note_on_c, 0, 68, 60
1, 379094, Note_on_c, 0, 59, 42
1, 379097, Note_on_c, 0, 40, 37
1, 379102, Note_on_c, 0, 47, 43
1, 379105, Note_on_c, 0, 52, 34
1, 379144, Control_c, 0, 64, 61
1, 379158, Control_c, 0, 64, 69
1, 379173, Control_c, 0, 64, 78
1, 379188, Control_c, 0, 64, 91
1, 379203, Control_c, 0, 64, 106
1, 379218, Control_c, 0, 64, 127
1, 379247, Control_c, 0, 67, 109
1, 379262, Control_c, 0, 67, 81
1, 379277, Control_c, 0, 67, 51
1, 379292, Control_c, 0, 67, 27
1, 379306, Control_c, 0, 67, 11
1, 379321, Control_c, 0, 67, 0
1, 379343, Note_off_c, 0, 59, 53
1, 379376, Note_on_c, 0, 61, 61
1, 379435, Note_off_c, 0, 52, 46
1, 379457, Note_on_c, 0, 59, 52
1, 379468, Note_off_c, 0, 61, 54
1, 379477, Note_off_c, 0, 59, 59
1, 379492, Note_on_c, 0, 58, 55
1, 379518, Note_off_c, 0, 47, 41
1, 379528, Note_off_c, 0, 58, 64
1, 379556, Note_on_c, 0, 59, 56
1, 379654, Note_off_c, 0, 68, 62
1, 379677, Note_off_c, 0, 59, 29
1, 379761, Note_off_c, 0, 40, 0
1, 379797, Poly_aftertouch_c, 0, 40, 127
1, 379830, Note_on_c, 0, 69, 62
1, 379839, Note_on_c, 0, 59, 43
1, 379847, Note_on_c, 0, 54, 37
1, 379858, Poly_aftertouch_c, 0, 41, 127
1, 379875, Note_on_c, 0, 63, 42
1, 379907, Control_c, 0, 64, 118
1, 379922, Control_c, 0, 64, 96
1, 379935, Control_c, 0, 64, 78
1, 379950, Control_c, 0, 64, 58
1, 379965, Control_c, 0, 64, 0
1, 380009, Control_c, 0, 64, 46
1, 380024, Control_c, 0, 64, 70
1, 380039, Control_c, 0, 64, 83
1, 380053, Control_c, 0, 64, 101
1, 380068, Control_c, 0, 64, 117
1, 380070, Note_off_c, 0, 54, 47
1, 380083, Control_c, 0, 64, 127
1, 380145, Poly_aftertouch_c, 0, 41, 0
1, 380178, Poly_aftertouch_c, 0, 40, 0
1, 380231, Note_on_c, 0, 66, 61
1, 380237, Note_on_c, 0, 51, 46
1, 380238, Note_off_c, 0, 63, 42
1, 380238, Note_off_c, 0, 69, 57
1, 380278, Note_off_c, 0, 51, 58
1, 380304, Note_off_c, 0, 66, 58
1, 380309, Note_off_c, 0, 59, 38
1, 380328, Note_on_c, 0, 40, 56
1, 380366, Control_c, 0, 64, 118
1, 380381, Control_c, 0, 64, 87
1, 380396, Control_c, 0, 64, 64
1, 380410, Control_c, 0, 64, 0
1, 380470, Control_c, 0, 64, 63
1, 380479, Note_off_c, 0, 40, 63
1, 380484, Control_c, 0, 64, 74
1, 380506, Control_c, 0, 64, 86
1, 380521, Control_c, 0, 64, 99
1, 380536, Control_c, 0, 64, 107
1, 380551, Control_c, 0, 64, 115
1, 380565, Control_c, 0, 64, 127
1, 380572, Note_on_c, 0, 71, 64
1, 380580, Control_c, 0, 64, 127
1, 380583, Note_on_c, 0, 59, 44
1, 380588, Note_on_c, 0, 64, 50
1, 380622, Note_on_c, 0, 56, 46
1, 380714, Note_off_c, 0, 56, 0
1, 380714, Note_on_c, 0, 56, 7
1, 381046, Note_off_c, 0, 59, 33
1, 381076, Note_off_c, 0, 56, 41
1, 381271, Note_off_c, 0, 64, 21
1, 381331, Note_off_c, 0, 71, 56
1, 381402, Note_on_c, 0, 52, 40
1, 381402, Note_on_c, 0, 68, 47
1, 381416, Note_on_c, 0, 59, 37
1, 381419, Control_c, 0, 67, 11
1, 381433, Control_c, 0, 67, 19
1, 381448, Control_c, 0, 67, 35
1, 381463, Control_c, 0, 67, 64
1, 381478, Control_c, 0, 67, 91
1, 381493, Control_c, 0, 67, 114
1, 381507, Control_c, 0, 67, 127
1, 381552, Control_c, 0, 64, 124
1, 381567, Control_c, 0, 64, 118
1, 381582, Control_c, 0, 64, 114
1, 381597, Control_c, 0, 64, 108
1, 381612, Control_c, 0, 64, 99
1, 381612, Note_off_c, 0, 59, 53
1, 381626, Control_c, 0, 64, 86
1, 381627, Note_off_c, 0, 52, 59
1, 381633, Note_off_c, 0, 68, 63
1, 381641, Control_c, 0, 64, 73
1, 381656, Control_c, 0, 64, 58
1, 381671, Control_c, 0, 64, 0
1, 381892, Note_on_c, 0, 83, 63
1, 381895, Note_on_c, 0, 78, 63
1, 381898, Note_on_c, 0, 63, 64
1, 381900, Note_on_c, 0, 66, 66
1, 381901, Note_on_c, 0, 59, 57
1, 381901, Note_on_c, 0, 71, 53
1, 381904, Note_on_c, 0, 75, 45
1, 381909, Note_off_c, 0, 83, 65
1, 381911, Note_off_c, 0, 78, 63
1, 381922, Note_off_c, 0, 71, 58
1, 381925, Note_off_c, 0, 63, 70
1, 381926, Note_off_c, 0, 66, 67
1, 381928, Note_off_c, 0, 75, 37
1, 381934, Note_off_c, 0, 59, 61
1, 381968, Note_on_c, 0, 78, 77
1, 381971, Note_on_c, 0, 83, 75
1, 381978, Note_on_c, 0, 59, 50
1, 381981, Note_off_c, 0, 78, 70
1, 381983, Note_on_c, 0, 66, 69
1, 381984, Note_off_c, 0, 83, 66
1, 381987, Note_on_c, 0, 71, 55
1, 381988, Note_off_c, 0, 71, 127
1, 382002, Note_on_c, 0, 75, 31
1, 382002, Note_on_c, 0, 63, 51
1, 382006, Note_off_c, 0, 66, 68
1, 382008, Note_off_c, 0, 59, 61
1, 382026, Note_off_c, 0, 63, 39
1, 382052, Note_on_c, 0, 78, 78
1, 382056, Note_on_c, 0, 83, 69
1, 382062, Note_off_c, 0, 75, 0
1, 382062, Note_on_c, 0, 75, 43
1, 382070, Note_off_c, 0, 83, 64
1, 382071, Note_off_c, 0, 78, 70
1, 382073, Note_on_c, 0, 66, 62
1, 382077, Note_on_c, 0, 71, 45
1, 382078, Note_off_c, 0, 71, 127
1, 382082, Note_off_c, 0, 75, 49
1, 382083, Note_on_c, 0, 59, 16
1, 382092, Note_off_c, 0, 66, 40
1, 382130, Note_on_c, 0, 83, 84
1, 382130, Note_off_c, 0, 59, 0
1, 382130, Note_on_c, 0, 59, 17
1, 382132, Note_on_c, 0, 78, 84
1, 382133, Note_on_c, 0, 63, 50
1, 382139, Note_on_c, 0, 71, 69
1, 382142, Note_on_c, 0, 75, 75
1, 382142, Note_on_c, 0, 66, 72
1, 382219, Note_off_c, 0, 71, 0
1, 382219, Note_on_c, 0, 71, 28
1, 382274, Note_off_c, 0, 66, 65
1, 382282, Note_off_c, 0, 63, 65
1, 382284, Note_off_c, 0, 59, 58
1, 382294, Note_off_c, 0, 71, 60
1, 382300, Note_off_c, 0, 83, 57
1, 382303, Note_off_c, 0, 78, 62
1, 382306, Note_off_c, 0, 75, 61
1, 382549, Note_on_c, 0, 63, 61
1, 382549, Note_on_c, 0, 66, 63
1, 382550, Note_on_c, 0, 71, 75
1, 382552, Note_on_c, 0, 78, 66
1, 382555, Note_on_c, 0, 75, 62
1, 382557, Note_on_c, 0, 83, 59
1, 382560, Note_on_c, 0, 59, 45
1, 382565, Note_off_c, 0, 71, 68
1, 382568, Note_off_c, 0, 78, 64
1, 382569, Note_off_c, 0, 63, 66
1, 382569, Note_off_c, 0, 66, 68
1, 382572, Note_off_c, 0, 75, 65
1, 382574, Note_off_c, 0, 83, 41
1, 382584, Note_off_c, 0, 59, 56
1, 382625, Note_on_c, 0, 78, 84
1, 382628, Note_on_c, 0, 71, 78
1, 382628, Note_on_c, 0, 59, 55
1, 382630, Note_on_c, 0, 63, 71
1, 382630, Note_on_c, 0, 66, 76
1, 382633, Note_on_c, 0, 75, 75
1, 382635, Note_on_c, 0, 83, 71
1, 382644, Note_off_c, 0, 78, 69
1, 382646, Note_off_c, 0, 71, 68
1, 382649, Note_off_c, 0, 66, 70
1, 382649, Note_off_c, 0, 75, 71
1, 382650, Note_off_c, 0, 83, 66
1, 382652, Note_off_c, 0, 59, 62
1, 382656, Note_off_c, 0, 63, 67
1, 382703, Note_on_c, 0, 71, 72
1, 382706, Note_on_c, 0, 66, 79
1, 382709, Note_on_c, 0, 75, 76
1, 382709, Note_on_c, 0, 78, 76
1, 382711, Note_on_c, 0, 83, 68
1, 382712, Note_on_c, 0, 59, 55
1, 382712, Note_on_c, 0, 63, 69
1, 382719, Note_off_c, 0, 71, 68
1, 382724, Note_off_c, 0, 66, 70
1, 382724, Note_off_c, 0, 78, 69
1, 382724, Note_off_c, 0, 75, 70
1, 382727, Note_off_c, 0, 83, 45
1, 382733, Note_off_c, 0, 63, 68
1, 382734, Note_off_c, 0, 59, 59
1, 382791, Note_on_c, 0, 66, 85
1, 382792, Note_on_c, 0, 71, 77
1, 382792, Note_on_c, 0, 78, 89
1, 382792, Note_on_c, 0, 83, 87
1, 382797, Note_on_c, 0, 75, 82
1, 382801, Note_on_c, 0, 59, 67
1, 382806, Note_on_c, 0, 63, 73
1, 382918, Note_off_c, 0, 59, 63
1, 382920, Note_off_c, 0, 71, 52
1, 382926, Note_off_c, 0, 83, 57
1, 382926, Note_off_c, 0, 66, 65
1, 382931, Note_off_c, 0, 63, 64
1, 382935, Note_off_c, 0, 78, 64
1, 382940, Note_off_c, 0, 75, 60
1, 383160, Note_on_c, 0, 82, 72
1, 383162, Note_on_c, 0, 73, 73
1, 383171, Note_on_c, 0, 67, 69
1, 383171, Note_on_c, 0, 76, 60
1, 383177, Note_on_c, 0, 64, 59
1, 383182, Note_on_c, 0, 59, 53
1, 383183, Note_off_c, 0, 82, 67
1, 383187, Note_off_c, 0, 73, 68
1, 383189, Note_off_c, 0, 76, 65
1, 383195, Note_off_c, 0, 64, 63
1, 383196, Note_off_c, 0, 67, 68
1, 383203, Note_off_c, 0, 59, 61
1, 383241, Note_on_c, 0, 82, 84
1, 383242, Note_on_c, 0, 73, 81
1, 383248, Note_on_c, 0, 76, 74
1, 383259, Note_on_c, 0, 64, 70
1, 383260, Note_off_c, 0, 73, 62
1, 383266, Note_on_c, 0, 59, 51
1, 383266, Note_on_c, 0, 67, 59
1, 383269, Note_off_c, 0, 76, 72
1, 383274, Note_off_c, 0, 64, 67
1, 383278, Note_off_c, 0, 82, 63
1, 383287, Note_off_c, 0, 67, 60
1, 383290, Note_off_c, 0, 59, 56
1, 383309, Poly_aftertouch_c, 0, 82, 0
1, 383316, Note_on_c, 0, 82, 75
1, 383320, Note_on_c, 0, 73, 72
1, 383328, Note_on_c, 0, 76, 67
1, 383335, Note_on_c, 0, 59, 45
1, 383335, Note_on_c, 0, 67, 54
1, 383335, Note_off_c, 0, 73, 68
1, 383338, Note_on_c, 0, 64, 68
1, 383346, Note_off_c, 0, 76, 68
1, 383355, Note_off_c, 0, 64, 66
1, 383356, Note_off_c, 0, 67, 60
1, 383358, Note_off_c, 0, 82, 60
1, 383359, Note_off_c, 0, 59, 56
1, 383406, Note_on_c, 0, 73, 76
1, 383409, Note_on_c, 0, 85, 87
1, 383411, Note_on_c, 0, 76, 80
1, 383418, Note_on_c, 0, 67, 78
1, 383423, Note_on_c, 0, 64, 70
1, 383432, Note_on_c, 0, 59, 64
1, 383576, Control_c, 0, 64, 55
1, 383591, Control_c, 0, 64, 68
1, 383606, Control_c, 0, 64, 76
1, 383621, Control_c, 0, 64, 84
1, 383636, Control_c, 0, 64, 91
1, 383651, Control_c, 0, 64, 98
1, 383666, Control_c, 0, 64, 104
1, 383680, Control_c, 0, 64, 110
1, 383695, Control_c, 0, 64, 116
1, 383705, Note_off_c, 0, 73, 60
1, 383707, Note_off_c, 0, 76, 59
1, 383707, Note_off_c, 0, 85, 63
1, 383710, Control_c, 0, 64, 122
1, 383721, Note_off_c, 0, 64, 58
1, 383725, Control_c, 0, 64, 127
1, 384125, Note_off_c, 0, 67, 36
1, 384140, Control_c, 0, 64, 113
1, 384142, Note_on_c, 0, 83, 51
1, 384145, Note_on_c, 0, 63, 40
1, 384145, Note_on_c, 0, 66, 41
1, 384154, Control_c, 0, 64, 99
1, 384160, Note_on_c, 0, 71, 37
1, 384166, Note_on_c, 0, 75, 39
1, 384169, Control_c, 0, 64, 83
1, 384184, Control_c, 0, 64, 66
1, 384199, Control_c, 0, 64, 0
1, 384311, Control_c, 0, 64, 63
1, 384325, Control_c, 0, 64, 73
1, 384340, Control_c, 0, 64, 83
1, 384355, Control_c, 0, 64, 92
1, 384367, Note_off_c, 0, 83, 56
1, 384370, Control_c, 0, 64, 98
1, 384381, Note_off_c, 0, 59, 54
1, 384384, Control_c, 0, 64, 101
1, 384391, Note_off_c, 0, 66, 54
1, 384399, Control_c, 0, 64, 104
1, 384413, Note_off_c, 0, 71, 51
1, 384414, Control_c, 0, 64, 106
1, 384424, Note_off_c, 0, 63, 48
1, 384429, Control_c, 0, 64, 107
1, 384438, Note_off_c, 0, 75, 57
1, 384444, Control_c, 0, 64, 108
1, 384458, Control_c, 0, 64, 108
1, 384503, Control_c, 0, 64, 108
1, 384518, Control_c, 0, 64, 105
1, 384533, Control_c, 0, 64, 100
1, 384548, Control_c, 0, 64, 91
1, 384563, Control_c, 0, 64, 81
1, 384577, Control_c, 0, 64, 70
1, 384592, Control_c, 0, 64, 41
1, 384607, Control_c, 0, 64, 0
1, 384933, Note_on_c, 0, 68, 60
1, 384946, Note_on_c, 0, 59, 47
1, 384947, Note_on_c, 0, 52, 41
1, 384950, Note_on_c, 0, 40, 37
1, 384954, Note_on_c, 0, 47, 39
1, 384962, Control_c, 0, 64, 49
1, 384977, Control_c, 0, 64, 69
1, 384999, Control_c, 0, 64, 78
1, 385014, Control_c, 0, 64, 90
1, 385030, Control_c, 0, 64, 100
1, 385045, Control_c, 0, 64, 109
1, 385060, Control_c, 0, 64, 118
1, 385074, Control_c, 0, 64, 127
1, 385180, Note_off_c, 0, 59, 58
1, 385204, Note_on_c, 0, 61, 66
1, 385254, Note_off_c, 0, 52, 61
1, 385256, Note_off_c, 0, 61, 48
1, 385274, Note_on_c, 0, 59, 63
1, 385305, Note_off_c, 0, 59, 62
1, 385322, Note_on_c, 0, 58, 57
1, 385343, Note_off_c, 0, 47, 47
1, 385362, Note_off_c, 0, 58, 64
1, 385382, Note_on_c, 0, 59, 55
1, 385461, Note_off_c, 0, 68, 53
1, 385540, Note_off_c, 0, 59, 27
1, 385634, Note_on_c, 0, 69, 66
1, 385656, Note_on_c, 0, 59, 43
1, 385657, Note_on_c, 0, 54, 42
1, 385663, Note_on_c, 0, 63, 45
1, 385666, Control_c, 0, 64, 123
1, 385681, Control_c, 0, 64, 98
1, 385696, Control_c, 0, 64, 79
1, 385710, Control_c, 0, 64, 56
1, 385725, Control_c, 0, 64, 0
1, 385792, Control_c, 0, 64, 64
1, 385807, Control_c, 0, 64, 75
1, 385823, Control_c, 0, 64, 88
1, 385838, Control_c, 0, 64, 104
1, 385853, Control_c, 0, 64, 114
1, 385860, Note_off_c, 0, 54, 39
1, 385868, Control_c, 0, 64, 122
1, 385883, Control_c, 0, 64, 127
1, 385982, Note_off_c, 0, 40, 1
1, 386045, Note_off_c, 0, 63, 59
1, 386049, Note_on_c, 0, 51, 49
1, 386049, Note_on_c, 0, 66, 61
1, 386050, Note_off_c, 0, 69, 58
1, 386097, Note_off_c, 0, 51, 57
1, 386097, Note_off_c, 0, 59, 38
1, 386127, Note_off_c, 0, 66, 58
1, 386142, Note_on_c, 0, 40, 65
1, 386164, Control_c, 0, 64, 101
1, 386178, Control_c, 0, 64, 77
1, 386193, Control_c, 0, 64, 0
1, 386238, Control_c, 0, 64, 26
1, 386253, Control_c, 0, 64, 69
1, 386256, Note_off_c, 0, 40, 63
1, 386268, Control_c, 0, 64, 80
1, 386283, Control_c, 0, 64, 94
1, 386297, Control_c, 0, 64, 106
1, 386312, Control_c, 0, 64, 117
1, 386327, Control_c, 0, 64, 124
1, 386341, Control_c, 0, 64, 127
1, 386369, Note_on_c, 0, 71, 74
1, 386383, Note_on_c, 0, 59, 55
1, 386390, Note_on_c, 0, 64, 47
1, 386400, Note_on_c, 0, 56, 53
1, 386460, Control_c, 0, 67, 113
1, 386474, Control_c, 0, 67, 89
1, 386497, Control_c, 0, 67, 60
1, 386512, Control_c, 0, 67, 23
1, 386527, Control_c, 0, 67, 0
1, 386879, Note_off_c, 0, 56, 38
1, 386897, Note_off_c, 0, 59, 31
1, 386998, Note_off_c, 0, 64, 27
1, 387113, Note_off_c, 0, 71, 38
1, 387132, Note_on_c, 0, 68, 46
1, 387141, Note_on_c, 0, 52, 41
1, 387141, Note_on_c, 0, 59, 34
1, 387291, Note_off_c, 0, 52, 63
1, 387336, Note_off_c, 0, 59, 39
1, 387336, Note_off_c, 0, 68, 63
1, 387409, Control_c, 0, 64, 101
1, 387424, Control_c, 0, 64, 84
1, 387439, Control_c, 0, 64, 69
1, 387454, Control_c, 0, 64, 0
1, 387594, Note_on_c, 0, 48, 81
1, 387597, Note_on_c, 0, 60, 83
1, 387600, Note_on_c, 0, 36, 67
1, 387617, Note_off_c, 0, 48, 68
1, 387618, Note_off_c, 0, 60, 70
1, 387630, Note_off_c, 0, 36, 65
1, 387662, Note_on_c, 0, 48, 89
1, 387672, Note_on_c, 0, 36, 72
1, 387674, Note_on_c, 0, 60, 90
1, 387694, Note_off_c, 0, 48, 68
1, 387703, Note_off_c, 0, 60, 60
1, 387704, Note_off_c, 0, 36, 63
1, 387743, Note_on_c, 0, 60, 62
1, 387756, Note_on_c, 0, 48, 74
1, 387767, Note_off_c, 0, 60, 69
1, 387769, Note_on_c, 0, 36, 59
1, 387774, Note_off_c, 0, 48, 68
1, 387808, Note_off_c, 0, 36, 0
1, 387808, Note_on_c, 0, 36, 47
1, 387814, Note_on_c, 0, 48, 95
1, 387818, Note_on_c, 0, 60, 97
1, 388005, Note_off_c, 0, 48, 63
1, 388022, Note_off_c, 0, 36, 56
1, 388027, Note_off_c, 0, 60, 60
1, 388229, Note_on_c, 0, 48, 81
1, 388231, Note_on_c, 0, 60, 78
1, 388233, Note_on_c, 0, 36, 67
1, 388253, Note_off_c, 0, 48, 68
1, 388253, Note_off_c, 0, 60, 69
1, 388262, Note_off_c, 0, 36, 65
1, 388300, Note_on_c, 0, 48, 88
1, 388305, Note_on_c, 0, 60, 86
1, 388306, Note_on_c, 0, 36, 82
1, 388333, Note_off_c, 0, 48, 65
1, 388333, Note_off_c, 0, 60, 60
1, 388338, Note_off_c, 0, 36, 66
1, 388369, Note_on_c, 0, 60, 72
1, 388386, Note_on_c, 0, 48, 75
1, 388393, Note_on_c, 0, 36, 74
1, 388401, Note_off_c, 0, 60, 65
1, 388408, Note_off_c, 0, 48, 68
1, 388419, Note_off_c, 0, 36, 66
1, 388450, Note_on_c, 0, 60, 95
1, 388451, Note_on_c, 0, 48, 94
1, 388459, Note_on_c, 0, 36, 84
1, 388596, Note_off_c, 0, 60, 61
1, 388617, Note_off_c, 0, 48, 64
1, 388632, Note_off_c, 0, 36, 63
1, 388857, Note_on_c, 0, 78, 77
1, 388858, Note_on_c, 0, 70, 78
1, 388861, Note_on_c, 0, 48, 82
1, 388862, Note_on_c, 0, 36, 73
1, 388864, Note_on_c, 0, 82, 65
1, 388867, Note_on_c, 0, 76, 66
1, 388879, Note_off_c, 0, 70, 70
1, 388882, Note_off_c, 0, 78, 64
1, 388883, Note_off_c, 0, 82, 67
1, 388887, Note_off_c, 0, 48, 70
1, 388888, Note_off_c, 0, 36, 65
1, 388891, Note_off_c, 0, 76, 70
1, 388936, Note_on_c, 0, 48, 91
1, 388936, Note_on_c, 0, 78, 81
1, 388938, Note_on_c, 0, 70, 83
1, 388939, Note_on_c, 0, 76, 61
1, 388942, Note_on_c, 0, 36, 80
1, 388942, Note_on_c, 0, 82, 78
1, 388957, Note_off_c, 0, 70, 66
1, 388959, Note_off_c, 0, 82, 69
1, 388960, Note_off_c, 0, 78, 63
1, 388963, Note_off_c, 0, 48, 66
1, 388969, Note_off_c, 0, 76, 68
1, 388969, Note_off_c, 0, 36, 64
1, 389009, Note_on_c, 0, 70, 85
1, 389014, Note_on_c, 0, 48, 86
1, 389014, Note_on_c, 0, 76, 71
1, 389014, Note_on_c, 0, 78, 90
1, 389016, Note_on_c, 0, 82, 80
1, 389021, Note_on_c, 0, 36, 82
1, 389040, Note_off_c, 0, 82, 64
1, 389042, Note_off_c, 0, 70, 63
1, 389050, Note_off_c, 0, 48, 68
1, 389051, Note_off_c, 0, 76, 65
1, 389054, Note_off_c, 0, 78, 63
1, 389056, Note_off_c, 0, 36, 66
1, 389088, Poly_aftertouch_c, 0, 78, 0
1, 389091, Note_on_c, 0, 48, 87
1, 389093, Note_on_c, 0, 78, 79
1, 389094, Note_on_c, 0, 70, 88
1, 389094, Note_on_c, 0, 82, 84
1, 389097, Note_on_c, 0, 36, 82
1, 389103, Note_on_c, 0, 76, 65
1, 389204, Control_c, 0, 64, 63
1, 389219, Control_c, 0, 64, 71
1, 389233, Control_c, 0, 64, 79
1, 389248, Control_c, 0, 64, 86
1, 389263, Control_c, 0, 64, 89
1, 389278, Control_c, 0, 64, 92
1, 389292, Control_c, 0, 64, 95
1, 389307, Control_c, 0, 64, 99
1, 389322, Control_c, 0, 64, 102
1, 389337, Control_c, 0, 64, 105
1, 389352, Control_c, 0, 64, 107
1, 389366, Control_c, 0, 64, 109
1, 389381, Control_c, 0, 64, 111
1, 389386, Note_off_c, 0, 76, 58
1, 389395, Note_off_c, 0, 48, 55
1, 389396, Control_c, 0, 64, 112
1, 389411, Control_c, 0, 64, 113
1, 389414, Note_off_c, 0, 70, 56
1, 389417, Note_off_c, 0, 78, 53
1, 389425, Note_off_c, 0, 82, 56
1, 389440, Control_c, 0, 64, 114
1, 389452, Note_off_c, 0, 36, 57
1, 389470, Control_c, 0, 64, 114
1, 389759, Control_c, 0, 64, 113
1, 389773, Control_c, 0, 64, 112
1, 389788, Control_c, 0, 64, 107
1, 389803, Control_c, 0, 64, 99
1, 389811, Note_on_c, 0, 83, 60
1, 389817, Note_on_c, 0, 47, 53
1, 389818, Note_on_c, 0, 78, 50
1, 389819, Control_c, 0, 64, 88
1, 389829, Note_on_c, 0, 75, 45
1, 389830, Note_on_c, 0, 71, 46
1, 389832, Note_on_c, 0, 35, 45
1, 389834, Control_c, 0, 64, 78
1, 389849, Control_c, 0, 64, 67
1, 389849, Control_c, 0, 67, 9
1, 389863, Control_c, 0, 64, 0
1, 389863, Control_c, 0, 67, 23
1, 389872, Note_off_c, 0, 78, 0
1, 389872, Note_on_c, 0, 78, 12
1, 389878, Control_c, 0, 67, 43
1, 389893, Control_c, 0, 67, 68
1, 389908, Control_c, 0, 67, 94
1, 389922, Control_c, 0, 67, 118
1, 389937, Control_c, 0, 67, 127
1, 390080, Note_off_c, 0, 83, 55
1, 390123, Note_off_c, 0, 71, 56
1, 390134, Note_off_c, 0, 35, 54
1, 390149, Note_off_c, 0, 47, 60
1, 390167, Note_off_c, 0, 75, 63
1, 390173, Note_off_c, 0, 78, 59
1, 390668, Note_on_c, 0, 68, 56
1, 390685, Note_on_c, 0, 59, 43
1, 390696, Note_on_c, 0, 40, 32
1, 390697, Note_on_c, 0, 47, 35
1, 390701, Note_on_c, 0, 52, 34
1, 390761, Control_c, 0, 64, 30
1, 390776, Control_c, 0, 64, 67
1, 390791, Control_c, 0, 64, 75
1, 390806, Control_c, 0, 64, 86
1, 390820, Control_c, 0, 64, 93
1, 390835, Control_c, 0, 64, 99
1, 390850, Control_c, 0, 64, 103
1, 390865, Control_c, 0, 64, 106
1, 390879, Control_c, 0, 64, 109
1, 390894, Control_c, 0, 64, 112
1, 390899, Note_off_c, 0, 59, 58
1, 390909, Control_c, 0, 64, 116
1, 390924, Control_c, 0, 64, 118
1, 390930, Note_on_c, 0, 61, 60
1, 390939, Control_c, 0, 64, 120
1, 390954, Control_c, 0, 64, 120
1, 390969, Control_c, 0, 64, 121
1, 390989, Note_off_c, 0, 52, 52
1, 390991, Control_c, 0, 64, 122
1, 391006, Control_c, 0, 64, 123
1, 391008, Note_on_c, 0, 59, 64
1, 391020, Control_c, 0, 64, 124
1, 391035, Control_c, 0, 64, 125
1, 391037, Note_off_c, 0, 59, 57
1, 391044, Note_off_c, 0, 61, 58
1, 391050, Control_c, 0, 64, 126
1, 391060, Note_on_c, 0, 58, 55
1, 391065, Control_c, 0, 64, 127
1, 391072, Note_off_c, 0, 47, 41
1, 391096, Note_off_c, 0, 58, 64
1, 391120, Note_on_c, 0, 59, 56
1, 391185, Note_off_c, 0, 68, 54
1, 391194, Note_off_c, 0, 59, 51
1, 391195, Note_off_c, 0, 40, 36
1, 391363, Note_on_c, 0, 69, 68
1, 391371, Note_on_c, 0, 59, 44
1, 391382, Note_on_c, 0, 54, 41
1, 391391, Control_c, 0, 64, 111
1, 391394, Note_on_c, 0, 63, 41
1, 391407, Control_c, 0, 64, 95
1, 391422, Control_c, 0, 64, 77
1, 391436, Control_c, 0, 64, 56
1, 391451, Control_c, 0, 64, 0
1, 391479, Poly_aftertouch_c, 0, 41, 127
1, 391497, Poly_aftertouch_c, 0, 40, 127
1, 391510, Control_c, 0, 64, 64
1, 391525, Control_c, 0, 64, 76
1, 391540, Control_c, 0, 64, 89
1, 391555, Control_c, 0, 64, 103
1, 391569, Control_c, 0, 64, 110
1, 391584, Control_c, 0, 64, 117
1, 391587, Note_off_c, 0, 54, 47
1, 391599, Control_c, 0, 64, 125
1, 391614, Control_c, 0, 64, 127
1, 391646, Poly_aftertouch_c, 0, 41, 0
1, 391654, Poly_aftertouch_c, 0, 40, 0
1, 391752, Note_off_c, 0, 69, 59
1, 391753, Note_on_c, 0, 66, 64
1, 391758, Note_off_c, 0, 63, 38
1, 391759, Note_on_c, 0, 51, 51
1, 391796, Note_off_c, 0, 51, 61
1, 391796, Note_off_c, 0, 59, 41
1, 391808, Note_off_c, 0, 66, 58
1, 391859, Note_on_c, 0, 40, 65
1, 391902, Control_c, 0, 64, 109
1, 391917, Control_c, 0, 64, 85
1, 391932, Control_c, 0, 64, 62
1, 391947, Control_c, 0, 64, 0
1, 391971, Note_off_c, 0, 40, 64
1, 392006, Control_c, 0, 64, 66
1, 392021, Control_c, 0, 64, 76
1, 392035, Control_c, 0, 64, 87
1, 392050, Control_c, 0, 64, 98
1, 392065, Control_c, 0, 64, 106
1, 392067, Note_on_c, 0, 71, 68
1, 392075, Note_on_c, 0, 59, 53
1, 392078, Note_on_c, 0, 64, 51
1, 392079, Control_c, 0, 64, 114
1, 392094, Control_c, 0, 64, 123
1, 392096, Note_on_c, 0, 56, 54
1, 392109, Control_c, 0, 64, 127
1, 392362, Control_c, 0, 67, 121
1, 392377, Control_c, 0, 67, 106
1, 392391, Control_c, 0, 67, 89
1, 392406, Control_c, 0, 67, 70
1, 392421, Control_c, 0, 67, 52
1, 392429, Note_off_c, 0, 56, 35
1, 392436, Control_c, 0, 67, 37
1, 392451, Control_c, 0, 67, 27
1, 392465, Control_c, 0, 67, 19
1, 392488, Control_c, 0, 67, 10
1, 392503, Control_c, 0, 67, 0
1, 392532, Note_off_c, 0, 59, 33
1, 392739, Note_off_c, 0, 71, 53
1, 392783, Note_on_c, 0, 68, 47
1, 392787, Note_on_c, 0, 59, 36
1, 392791, Note_off_c, 0, 64, 32
1, 392814, Note_on_c, 0, 52, 39
1, 392910, Note_off_c, 0, 59, 51
1, 392916, Note_off_c, 0, 52, 61
1, 392952, Note_off_c, 0, 68, 64
1, 393036, Control_c, 0, 64, 119
1, 393051, Control_c, 0, 64, 97
1, 393066, Control_c, 0, 64, 82
1, 393080, Control_c, 0, 64, 70
1, 393095, Control_c, 0, 64, 60
1, 393110, Control_c, 0, 64, 35
1, 393125, Control_c, 0, 64, 40
1, 393139, Control_c, 0, 64, 41
1, 393154, Control_c, 0, 64, 38
1, 393169, Control_c, 0, 64, 31
1, 393184, Control_c, 0, 64, 23
1, 393198, Control_c, 0, 64, 21
1, 393213, Control_c, 0, 64, 23
1, 393238, Note_on_c, 0, 63, 59
1, 393239, Note_on_c, 0, 66, 61
1, 393246, Note_on_c, 0, 71, 59
1, 393246, Note_on_c, 0, 78, 55
1, 393249, Note_on_c, 0, 83, 48
1, 393251, Control_c, 0, 64, 10
1, 393253, Note_on_c, 0, 59, 40
1, 393253, Note_on_c, 0, 75, 42
1, 393258, Note_off_c, 0, 66, 66
1, 393259, Note_off_c, 0, 63, 66
1, 393265, Note_off_c, 0, 71, 60
1, 393265, Control_c, 0, 64, 0
1, 393267, Note_off_c, 0, 78, 39
1, 393272, Note_off_c, 0, 83, 39
1, 393280, Note_off_c, 0, 75, 37
1, 393297, Note_off_c, 0, 59, 0
1, 393311, Note_on_c, 0, 59, 43
1, 393315, Note_on_c, 0, 66, 76
1, 393324, Note_on_c, 0, 63, 56
1, 393324, Note_on_c, 0, 78, 60
1, 393325, Note_on_c, 0, 83, 47
1, 393336, Note_off_c, 0, 66, 68
1, 393337, Note_on_c, 0, 71, 39
1, 393338, Note_off_c, 0, 71, 127
1, 393339, Note_off_c, 0, 59, 63
1, 393342, Note_off_c, 0, 78, 45
1, 393343, Note_off_c, 0, 63, 62
1, 393348, Note_off_c, 0, 83, 38
1, 393385, Note_on_c, 0, 75, 56
1, 393392, Note_on_c, 0, 66, 77
1, 393393, Note_on_c, 0, 78, 79
1, 393407, Note_off_c, 0, 78, 70
1, 393408, Note_on_c, 0, 71, 35
1, 393412, Note_off_c, 0, 75, 67
1, 393414, Note_off_c, 0, 66, 71
1, 393421, Note_on_c, 0, 59, 21
1, 393440, Note_off_c, 0, 71, 30
1, 393473, Note_off_c, 0, 59, 0
1, 393473, Note_on_c, 0, 59, 47
1, 393474, Note_on_c, 0, 83, 64
1, 393475, Note_on_c, 0, 78, 79
1, 393476, Note_on_c, 0, 63, 37
1, 393476, Note_on_c, 0, 66, 79
1, 393479, Note_on_c, 0, 75, 80
1, 393487, Note_on_c, 0, 71, 66
1, 393539, Note_off_c, 0, 71, 0
1, 393566, Note_on_c, 0, 71, 20
1, 393633, Note_off_c, 0, 59, 62
1, 393635, Note_off_c, 0, 66, 64
1, 393643, Note_off_c, 0, 63, 65
1, 393647, Note_off_c, 0, 71, 59
1, 393655, Note_off_c, 0, 78, 62
1, 393661, Note_off_c, 0, 83, 59
1, 393661, Note_off_c, 0, 75, 61
1, 393900, Note_on_c, 0, 83, 67
1, 393901, Note_on_c, 0, 71, 68
1, 393902, Note_on_c, 0, 66, 60
1, 393902, Note_on_c, 0, 78, 65
1, 393907, Note_on_c, 0, 63, 45
1, 393907, Note_on_c, 0, 75, 56
1, 393912, Note_on_c, 0, 59, 39
1, 393915, Note_off_c, 0, 83, 65
1, 393917, Note_off_c, 0, 71, 65
1, 393920, Note_off_c, 0, 66, 64
1, 393920, Note_off_c, 0, 78, 61
1, 393926, Note_off_c, 0, 75, 62
1, 393931, Note_off_c, 0, 63, 55
1, 393964, Note_off_c, 0, 59, 0
1, 393971, Note_on_c, 0, 78, 85
1, 393974, Note_on_c, 0, 71, 76
1, 393974, Note_on_c, 0, 66, 77
1, 393974, Note_on_c, 0, 83, 75
1, 393977, Note_on_c, 0, 59, 41
1, 393977, Note_on_c, 0, 63, 65
1, 393994, Note_on_c, 0, 75, 57
1, 393996, Note_off_c, 0, 71, 68
1, 393997, Note_off_c, 0, 78, 72
1, 393997, Note_off_c, 0, 83, 63
1, 394007, Note_off_c, 0, 66, 70
1, 394010, Note_off_c, 0, 59, 56
1, 394012, Note_off_c, 0, 63, 67
1, 394015, Note_off_c, 0, 75, 43
1, 394059, Note_on_c, 0, 71, 71
1, 394061, Note_on_c, 0, 83, 66
1, 394062, Note_on_c, 0, 78, 71
1, 394068, Note_on_c, 0, 66, 70
1, 394069, Note_on_c, 0, 75, 66
1, 394075, Note_off_c, 0, 71, 65
1, 394078, Note_off_c, 0, 78, 66
1, 394078, Note_on_c, 0, 63, 49
1, 394078, Note_off_c, 0, 83, 42
1, 394084, Note_off_c, 0, 66, 66
1, 394086, Note_off_c, 0, 75, 65
1, 394101, Note_off_c, 0, 63, 56
1, 394137, Note_on_c, 0, 59, 16
1, 394138, Note_on_c, 0, 78, 88
1, 394140, Note_on_c, 0, 83, 82
1, 394141, Note_on_c, 0, 71, 77
1, 394143, Note_on_c, 0, 75, 83
1, 394143, Note_on_c, 0, 66, 83
1, 394159, Note_on_c, 0, 63, 57
1, 394293, Note_off_c, 0, 71, 59
1, 394302, Note_off_c, 0, 66, 64
1, 394307, Note_off_c, 0, 83, 58
1, 394310, Note_off_c, 0, 59, 58
1, 394314, Note_off_c, 0, 63, 64
1, 394314, Note_off_c, 0, 78, 64
1, 394316, Note_off_c, 0, 75, 62
1, 394400, Control_c, 0, 67, 10
1, 394415, Control_c, 0, 67, 13
1, 394429, Control_c, 0, 67, 18
1, 394444, Control_c, 0, 67, 23
1, 394459, Control_c, 0, 67, 25
1, 394474, Control_c, 0, 67, 24
1, 394488, Control_c, 0, 67, 22
1, 394503, Control_c, 0, 67, 21
1, 394518, Control_c, 0, 67, 20
1, 394521, Note_on_c, 0, 82, 72
1, 394526, Note_on_c, 0, 73, 69
1, 394533, Control_c, 0, 67, 20
1, 394534, Note_on_c, 0, 76, 58
1, 394540, Note_on_c, 0, 67, 64
1, 394542, Note_on_c, 0, 59, 55
1, 394543, Note_on_c, 0, 64, 55
1, 394543, Note_off_c, 0, 73, 67
1, 394543, Note_off_c, 0, 82, 68
1, 394552, Note_off_c, 0, 76, 62
1, 394560, Note_off_c, 0, 67, 66
1, 394562, Note_off_c, 0, 59, 62
1, 394562, Control_c, 0, 67, 19
1, 394563, Note_off_c, 0, 64, 60
1, 394600, Note_on_c, 0, 82, 86
1, 394603, Note_on_c, 0, 73, 81
1, 394609, Note_on_c, 0, 76, 76
1, 394622, Note_on_c, 0, 67, 70
1, 394623, Control_c, 0, 67, 20
1, 394624, Note_off_c, 0, 73, 69
1, 394625, Note_on_c, 0, 59, 56
1, 394625, Note_on_c, 0, 64, 65
1, 394630, Note_off_c, 0, 76, 72
1, 394638, Control_c, 0, 67, 20
1, 394639, Note_off_c, 0, 67, 66
1, 394642, Note_off_c, 0, 64, 65
1, 394645, Note_off_c, 0, 82, 62
1, 394647, Note_off_c, 0, 59, 59
1, 394652, Control_c, 0, 67, 21
1, 394667, Control_c, 0, 67, 22
1, 394683, Note_on_c, 0, 82, 72
1, 394696, Note_on_c, 0, 73, 63
1, 394696, Control_c, 0, 67, 21
1, 394698, Note_on_c, 0, 67, 76
1, 394698, Note_on_c, 0, 76, 58
1, 394705, Note_off_c, 0, 82, 68
1, 394707, Note_on_c, 0, 64, 64
1, 394711, Control_c, 0, 67, 20
1, 394714, Note_off_c, 0, 67, 67
1, 394716, Note_off_c, 0, 73, 43
1, 394719, Note_off_c, 0, 76, 59
1, 394733, Note_off_c, 0, 64, 63
1, 394734, Control_c, 0, 67, 20
1, 394763, Control_c, 0, 67, 20
1, 394776, Note_on_c, 0, 85, 90
1, 394778, Control_c, 0, 67, 21
1, 394780, Note_on_c, 0, 73, 81
1, 394784, Note_on_c, 0, 76, 76
1, 394787, Note_on_c, 0, 67, 75
1, 394793, Control_c, 0, 67, 22
1, 394794, Note_on_c, 0, 59, 8
1, 394797, Note_on_c, 0, 64, 69
1, 394808, Control_c, 0, 67, 22
1, 394823, Control_c, 0, 67, 23
1, 394852, Control_c, 0, 67, 24
1, 394867, Control_c, 0, 67, 25
1, 394882, Control_c, 0, 67, 27
1, 394897, Control_c, 0, 67, 30
1, 394911, Control_c, 0, 67, 43
1, 394926, Control_c, 0, 67, 65
1, 394941, Control_c, 0, 67, 91
1, 394956, Control_c, 0, 64, 23
1, 394956, Control_c, 0, 67, 117
1, 394971, Control_c, 0, 64, 50
1, 394971, Control_c, 0, 67, 127
1, 394985, Control_c, 0, 64, 59
1, 395000, Control_c, 0, 64, 62
1, 395015, Control_c, 0, 64, 63
1, 395030, Control_c, 0, 64, 65
1, 395045, Control_c, 0, 64, 68
1, 395059, Control_c, 0, 64, 71
1, 395074, Control_c, 0, 64, 73
1, 395089, Control_c, 0, 64, 76
1, 395103, Control_c, 0, 64, 78
1, 395111, Note_off_c, 0, 85, 57
1, 395114, Note_off_c, 0, 73, 60
1, 395118, Note_off_c, 0, 76, 55
1, 395118, Control_c, 0, 64, 79
1, 395133, Control_c, 0, 64, 81
1, 395138, Note_off_c, 0, 64, 53
1, 395148, Control_c, 0, 64, 81
1, 395163, Control_c, 0, 64, 82
1, 395178, Control_c, 0, 64, 82
1, 395482, Control_c, 0, 64, 81
1, 395494, Note_off_c, 0, 67, 41
1, 395497, Control_c, 0, 64, 76
1, 395504, Note_on_c, 0, 83, 54
1, 395512, Control_c, 0, 64, 70
1, 395515, Note_on_c, 0, 63, 42
1, 395517, Note_on_c, 0, 66, 41
1, 395522, Note_on_c, 0, 71, 37
1, 395527, Control_c, 0, 64, 62
1, 395529, Note_on_c, 0, 75, 38
1, 395541, Control_c, 0, 64, 0
1, 395780, Note_off_c, 0, 83, 51
1, 395860, Note_off_c, 0, 66, 65
1, 395866, Note_off_c, 0, 59, 41
1, 395873, Note_off_c, 0, 71, 52
1, 395892, Note_off_c, 0, 63, 57
1, 395898, Note_off_c, 0, 75, 64
1, 396367, Note_on_c, 0, 68, 53
1, 396376, Note_on_c, 0, 52, 38
1, 396379, Note_on_c, 0, 59, 41
1, 396383, Note_on_c, 0, 40, 41
1, 396389, Note_on_c, 0, 47, 38
1, 396454, Control_c, 0, 64, 64
1, 396469, Control_c, 0, 64, 74
1, 396483, Control_c, 0, 64, 86
1, 396498, Control_c, 0, 64, 97
1, 396513, Control_c, 0, 64, 105
1, 396528, Control_c, 0, 64, 112
1, 396543, Control_c, 0, 64, 116
1, 396557, Control_c, 0, 64, 122
1, 396572, Control_c, 0, 64, 127
1, 396618, Note_off_c, 0, 59, 53
1, 396643, Note_on_c, 0, 61, 63
1, 396704, Note_off_c, 0, 52, 51
1, 396707, Note_off_c, 0, 61, 54
1, 396714, Note_on_c, 0, 59, 61
1, 396740, Note_off_c, 0, 59, 55
1, 396765, Note_on_c, 0, 58, 55
1, 396790, Note_off_c, 0, 47, 46
1, 396801, Note_off_c, 0, 58, 64
1, 396823, Note_on_c, 0, 59, 59
1, 396883, Note_off_c, 0, 59, 40
1, 396891, Note_off_c, 0, 68, 54
1, 397045, Note_off_c, 0, 40, 0
1, 397078, Note_on_c, 0, 69, 66
1, 397082, Poly_aftertouch_c, 0, 40, 127
1, 397084, Note_on_c, 0, 59, 45
1, 397093, Note_on_c, 0, 54, 40
1, 397101, Note_on_c, 0, 63, 45
1, 397113, Control_c, 0, 64, 112
1, 397128, Control_c, 0, 64, 89
1, 397143, Control_c, 0, 64, 70
1, 397159, Control_c, 0, 64, 0
1, 397218, Control_c, 0, 64, 26
1, 397233, Control_c, 0, 64, 71
1, 397248, Control_c, 0, 64, 83
1, 397262, Control_c, 0, 64, 97
1, 397277, Control_c, 0, 64, 108
1, 397292, Control_c, 0, 64, 116
1, 397300, Note_off_c, 0, 54, 38
1, 397306, Control_c, 0, 64, 123
1, 397321, Control_c, 0, 64, 127
1, 397425, Poly_aftertouch_c, 0, 40, 0
1, 397454, Note_off_c, 0, 63, 60
1, 397459, Note_on_c, 0, 66, 59
1, 397461, Note_on_c, 0, 51, 52
1, 397479, Note_off_c, 0, 69, 55
1, 397504, Note_off_c, 0, 51, 57
1, 397524, Note_off_c, 0, 59, 39
1, 397536, Note_off_c, 0, 66, 59
1, 397559, Note_on_c, 0, 40, 61
1, 397603, Control_c, 0, 64, 111
1, 397618, Control_c, 0, 64, 87
1, 397632, Control_c, 0, 64, 64
1, 397647, Control_c, 0, 64, 0
1, 397692, Control_c, 0, 64, 62
1, 397694, Note_off_c, 0, 40, 62
1, 397706, Control_c, 0, 64, 76
1, 397729, Control_c, 0, 64, 91
1, 397744, Control_c, 0, 64, 110
1, 397759, Control_c, 0, 64, 124
1, 397773, Control_c, 0, 64, 127
1, 397824, Note_on_c, 0, 71, 71
1, 397837, Note_on_c, 0, 59, 51
1, 397841, Note_on_c, 0, 64, 49
1, 397842, Note_on_c, 0, 56, 52
1, 398010, Control_c, 0, 67, 117
1, 398025, Control_c, 0, 67, 96
1, 398040, Control_c, 0, 67, 72
1, 398055, Control_c, 0, 67, 41
1, 398070, Control_c, 0, 67, 18
1, 398084, Control_c, 0, 67, 0
1, 398230, Note_off_c, 0, 56, 29
1, 398338, Note_off_c, 0, 59, 32
1, 398491, Note_off_c, 0, 71, 52
1, 398545, Note_on_c, 0, 68, 47
1, 398549, Note_off_c, 0, 64, 34
1, 398557, Note_on_c, 0, 59, 36
1, 398558, Note_on_c, 0, 52, 39
1, 398683, Note_off_c, 0, 52, 57
1, 398713, Note_off_c, 0, 59, 49
1, 398725, Note_off_c, 0, 68, 63
1, 398789, Control_c, 0, 64, 113
1, 398804, Control_c, 0, 64, 91
1, 398818, Control_c, 0, 64, 74
1, 398833, Control_c, 0, 64, 48
1, 398848, Control_c, 0, 64, 0
1, 398982, Note_on_c, 0, 48, 83
1, 398987, Note_on_c, 0, 60, 77
1, 398988, Note_on_c, 0, 36, 65
1, 399005, Note_off_c, 0, 48, 68
1, 399009, Note_off_c, 0, 60, 69
1, 399017, Note_off_c, 0, 36, 65
1, 399059, Note_on_c, 0, 48, 76
1, 399068, Note_on_c, 0, 60, 80
1, 399070, Note_on_c, 0, 36, 71
1, 399074, Note_on_c, 0, 50, 65
1, 399084, Note_off_c, 0, 48, 70
1, 399090, Note_off_c, 0, 60, 70
1, 399095, Note_off_c, 0, 36, 66
1, 399098, Note_off_c, 0, 50, 38
1, 399122, Note_on_c, 0, 60, 70
1, 399152, Note_off_c, 0, 60, 64
1, 399163, Note_on_c, 0, 48, 52
1, 399164, Note_off_c, 0, 48, 127
1, 399199, Note_on_c, 0, 36, 11
1, 399205, Note_on_c, 0, 48, 81
1, 399208, Note_on_c, 0, 60, 103
1, 399411, Note_off_c, 0, 48, 65
1, 399435, Note_off_c, 0, 36, 56
1, 399451, Note_off_c, 0, 60, 53
1, 399631, Note_on_c, 0, 48, 80
1, 399634, Note_on_c, 0, 36, 70
1, 399634, Note_on_c, 0, 60, 77
1, 399655, Note_off_c, 0, 48, 68
1, 399656, Note_off_c, 0, 60, 69
1, 399663, Note_off_c, 0, 36, 65
1, 399701, Note_on_c, 0, 48, 90
1, 399709, Note_on_c, 0, 60, 86
1, 399709, Note_on_c, 0, 36, 82
1, 399729, Note_off_c, 0, 60, 67
1, 399733, Note_off_c, 0, 48, 64
1, 399739, Note_off_c, 0, 36, 65
1, 399772, Note_on_c, 0, 60, 81
1, 399780, Note_on_c, 0, 48, 85
1, 399786, Note_on_c, 0, 36, 81
1, 399804, Note_off_c, 0, 60, 66
1, 399810, Note_off_c, 0, 48, 68
1, 399816, Note_off_c, 0, 36, 63
1, 399856, Note_on_c, 0, 60, 95
1, 399864, Note_on_c, 0, 48, 97
1, 399867, Note_on_c, 0, 36, 90
1, 399995, Note_off_c, 0, 60, 59
1, 400037, Note_off_c, 0, 48, 63
1, 400051, Note_off_c, 0, 36, 63
1, 400245, Note_on_c, 0, 70, 78
1, 400246, Note_on_c, 0, 48, 83
1, 400247, Note_on_c, 0, 78, 74
1, 400248, Note_on_c, 0, 82, 66
1, 400250, Note_on_c, 0, 36, 72
1, 400256, Note_on_c, 0, 76, 61
1, 400265, Note_off_c, 0, 70, 70
1, 400269, Note_off_c, 0, 82, 66
1, 400269, Note_off_c, 0, 78, 68
1, 400272, Note_off_c, 0, 48, 69
1, 400278, Note_off_c, 0, 36, 64
1, 400278, Note_off_c, 0, 76, 67
1, 400320, Note_on_c, 0, 70, 91
1, 400321, Note_on_c, 0, 78, 88
1, 400323, Note_on_c, 0, 82, 86
1, 400324, Note_on_c, 0, 48, 89
1, 400330, Note_on_c, 0, 36, 82
1, 400335, Note_on_c, 0, 76, 67
1, 400348, Note_off_c, 0, 82, 63
1, 400349, Note_off_c, 0, 70, 52
1, 400355, Note_off_c, 0, 48, 67
1, 400355, Note_off_c, 0, 78, 64
1, 400359, Note_off_c, 0, 36, 64
1, 400359, Note_off_c, 0, 76, 70
1, 400402, Note_on_c, 0, 48, 87
1, 400402, Note_on_c, 0, 78, 85
1, 400404, Note_on_c, 0, 36, 87
1, 400404, Note_on_c, 0, 76, 73
1, 400406, Note_on_c, 0, 70, 92
1, 400408, Note_on_c, 0, 82, 80
1, 400429, Note_off_c, 0, 70, 62
1, 400431, Note_off_c, 0, 82, 64
1, 400436, Note_off_c, 0, 48, 69
1, 400436, Note_off_c, 0, 36, 68
1, 400441, Note_off_c, 0, 78, 64
1, 400445, Note_off_c, 0, 76, 65
1, 400487, Poly_aftertouch_c, 0, 76, 0
1, 400489, Note_on_c, 0, 78, 85
1, 400490, Note_on_c, 0, 48, 94
1, 400491, Note_on_c, 0, 70, 102
1, 400491, Note_on_c, 0, 82, 92
1, 400493, Note_on_c, 0, 76, 66
1, 400494, Note_on_c, 0, 36, 84
1, 400613, Control_c, 0, 64, 47
1, 400628, Control_c, 0, 64, 68
1, 400643, Control_c, 0, 64, 77
1, 400657, Control_c, 0, 64, 89
1, 400672, Control_c, 0, 64, 96
1, 400687, Control_c, 0, 64, 101
1, 400702, Control_c, 0, 64, 105
1, 400724, Control_c, 0, 64, 109
1, 400739, Control_c, 0, 64, 114
1, 400754, Control_c, 0, 64, 121
1, 400769, Control_c, 0, 64, 127
1, 400816, Note_off_c, 0, 76, 55
1, 400834, Note_off_c, 0, 48, 54
1, 400845, Note_off_c, 0, 70, 57
1, 400856, Note_off_c, 0, 78, 53
1, 400865, Note_off_c, 0, 82, 59
1, 400887, Note_off_c, 0, 36, 50
1, 401277, Note_on_c, 0, 83, 57
1, 401286, Note_on_c, 0, 78, 50
1, 401288, Control_c, 0, 64, 112
1, 401291, Note_on_c, 0, 47, 48
1, 401295, Note_on_c, 0, 71, 40
1, 401296, Note_on_c, 0, 35, 40
1, 401303, Control_c, 0, 64, 97
1, 401303, Control_c, 0, 67, 9
1, 401306, Note_on_c, 0, 75, 40
1, 401318, Control_c, 0, 64, 80
1, 401318, Control_c, 0, 67, 18
1, 401333, Control_c, 0, 64, 30
1, 401333, Control_c, 0, 67, 38
1, 401347, Control_c, 0, 64, 0
1, 401347, Control_c, 0, 67, 70
1, 401362, Control_c, 0, 67, 106
1, 401377, Control_c, 0, 67, 127
1, 401473, Control_c, 0, 64, 52
1, 401488, Control_c, 0, 64, 70
1, 401503, Control_c, 0, 64, 78
1, 401518, Control_c, 0, 64, 86
1, 401533, Control_c, 0, 64, 91
1, 401547, Control_c, 0, 64, 93
1, 401562, Control_c, 0, 64, 94
1, 401577, Control_c, 0, 64, 96
1, 401592, Control_c, 0, 64, 98
1, 401607, Control_c, 0, 64, 99
1, 401621, Control_c, 0, 64, 100
1, 401624, Note_off_c, 0, 35, 41
1, 401643, Note_off_c, 0, 47, 40
1, 401643, Note_off_c, 0, 83, 51
1, 401650, Note_off_c, 0, 71, 45
1, 401651, Control_c, 0, 64, 100
1, 401701, Note_off_c, 0, 75, 56
1, 401712, Note_off_c, 0, 78, 57
1, 401754, Control_c, 0, 64, 99
1, 401769, Control_c, 0, 64, 95
1, 401784, Control_c, 0, 64, 89
1, 401800, Control_c, 0, 64, 79
1, 401815, Control_c, 0, 64, 68
1, 401830, Control_c, 0, 64, 33
1, 401844, Control_c, 0, 64, 0
1, 402211, Note_on_c, 0, 61, 43
1, 402220, Note_on_c, 0, 73, 52
1, 402221, Note_on_c, 0, 57, 42
1, 402252, Control_c, 0, 64, 42
1, 402266, Control_c, 0, 64, 65
1, 402281, Control_c, 0, 64, 74
1, 402296, Control_c, 0, 64, 85
1, 402311, Control_c, 0, 64, 96
1, 402326, Control_c, 0, 64, 108
1, 402341, Control_c, 0, 64, 121
1, 402356, Note_on_c, 0, 69, 56
1, 402356, Control_c, 0, 64, 127
1, 402420, Note_off_c, 0, 73, 62
1, 402421, Note_off_c, 0, 69, 55
1, 402472, Note_on_c, 0, 72, 62
1, 402476, Note_on_c, 0, 66, 53
1, 402523, Note_off_c, 0, 66, 61
1, 402552, Note_on_c, 0, 69, 52
1, 402562, Note_off_c, 0, 72, 64
1, 402563, Note_off_c, 0, 61, 15
1, 402565, Note_on_c, 0, 73, 68
1, 402588, Note_off_c, 0, 69, 48
1, 402631, Note_off_c, 0, 73, 60
1, 402653, Note_on_c, 0, 75, 69
1, 402654, Note_on_c, 0, 66, 51
1, 402687, Note_off_c, 0, 66, 55
1, 402707, Note_off_c, 0, 75, 64
1, 402731, Note_on_c, 0, 73, 71
1, 402745, Note_on_c, 0, 69, 42
1, 402772, Note_off_c, 0, 73, 62
1, 402844, Note_off_c, 0, 57, 0
1, 402859, Control_c, 0, 64, 108
1, 402860, Note_off_c, 0, 69, 37
1, 402860, Note_on_c, 0, 81, 82
1, 402874, Control_c, 0, 64, 87
1, 402879, Note_on_c, 0, 61, 50
1, 402881, Poly_aftertouch_c, 0, 57, 127
1, 402889, Control_c, 0, 64, 66
1, 402904, Control_c, 0, 64, 0
1, 402948, Control_c, 0, 64, 27
1, 402970, Control_c, 0, 64, 73
1, 402977, Note_on_c, 0, 69, 56
1, 402985, Control_c, 0, 64, 87
1, 402985, Control_c, 0, 67, 118
1, 403000, Control_c, 0, 64, 109
1, 403000, Control_c, 0, 67, 88
1, 403015, Control_c, 0, 64, 127
1, 403015, Control_c, 0, 67, 43
1, 403030, Control_c, 0, 67, 0
1, 403044, Note_off_c, 0, 69, 52
1, 403080, Poly_aftertouch_c, 0, 57, 0
1, 403097, Note_off_c, 0, 81, 52
1, 403099, Note_on_c, 0, 66, 48
1, 403116, Poly_aftertouch_c, 0, 57, 127
1, 403136, Note_off_c, 0, 66, 52
1, 403178, Note_off_c, 0, 61, 33
1, 403181, Note_on_c, 0, 69, 43
1, 403216, Note_off_c, 0, 69, 48
1, 403246, Note_on_c, 0, 80, 70
1, 403262, Note_on_c, 0, 66, 50
1, 403287, Note_off_c, 0, 80, 60
1, 403295, Note_off_c, 0, 66, 58
1, 403330, Note_on_c, 0, 78, 75
1, 403342, Note_on_c, 0, 69, 47
1, 403386, Note_off_c, 0, 69, 44
1, 403458, Note_off_c, 0, 78, 61
1, 403471, Poly_aftertouch_c, 0, 57, 0
1, 403506, Note_on_c, 0, 92, 80
1, 403509, Poly_aftertouch_c, 0, 57, 127
1, 403512, Note_on_c, 0, 61, 50
1, 403533, Control_c, 0, 64, 95
1, 403548, Control_c, 0, 64, 76
1, 403563, Control_c, 0, 64, 55
1, 403578, Control_c, 0, 64, 0
1, 403593, Control_c, 0, 64, 49
1, 403607, Note_on_c, 0, 69, 50
1, 403608, Control_c, 0, 64, 65
1, 403623, Control_c, 0, 64, 73
1, 403638, Control_c, 0, 64, 86
1, 403650, Note_off_c, 0, 69, 47
1, 403653, Control_c, 0, 64, 97
1, 403667, Control_c, 0, 64, 106
1, 403682, Control_c, 0, 64, 113
1, 403685, Note_off_c, 0, 61, 0
1, 403697, Control_c, 0, 64, 118
1, 403706, Note_off_c, 0, 92, 63
1, 403718, Note_on_c, 0, 90, 80
1, 403719, Control_c, 0, 64, 124
1, 403730, Poly_aftertouch_c, 0, 61, 127
1, 403734, Control_c, 0, 64, 127
1, 403736, Poly_aftertouch_c, 0, 57, 0
1, 403739, Note_on_c, 0, 66, 49
1, 403772, Poly_aftertouch_c, 0, 57, 127
1, 403774, Note_off_c, 0, 66, 50
1, 403812, Note_on_c, 0, 69, 37
1, 403819, Note_on_c, 0, 88, 68
1, 403829, Note_off_c, 0, 90, 49
1, 403860, Note_off_c, 0, 69, 50
1, 403883, Note_on_c, 0, 66, 53
1, 403902, Note_on_c, 0, 87, 72
1, 403903, Note_off_c, 0, 88, 63
1, 403943, Poly_aftertouch_c, 0, 57, 0
1, 403947, Poly_aftertouch_c, 0, 61, 0
1, 403954, Note_off_c, 0, 87, 62
1, 403962, Note_off_c, 0, 66, 55
1, 403975, Note_on_c, 0, 85, 70
1, 403977, Note_on_c, 0, 69, 54
1, 404013, Note_off_c, 0, 85, 62
1, 404073, Note_off_c, 0, 69, 55
1, 404113, Note_on_c, 0, 85, 65
1, 404120, Control_c, 0, 64, 102
1, 404132, Note_on_c, 0, 63, 40
1, 404135, Control_c, 0, 64, 81
1, 404138, Note_on_c, 0, 59, 44
1, 404149, Control_c, 0, 64, 61
1, 404164, Control_c, 0, 64, 0
1, 404191, Note_off_c, 0, 63, 39
1, 404207, Note_on_c, 0, 69, 57
1, 404210, Control_c, 0, 64, 64
1, 404225, Control_c, 0, 64, 75
1, 404239, Control_c, 0, 64, 88
1, 404254, Control_c, 0, 64, 101
1, 404258, Note_off_c, 0, 69, 51
1, 404269, Control_c, 0, 64, 111
1, 404283, Control_c, 0, 64, 116
1, 404298, Control_c, 0, 64, 121
1, 404313, Control_c, 0, 64, 127
1, 404341, Poly_aftertouch_c, 0, 63, 127
1, 404346, Note_on_c, 0, 66, 39
1, 404399, Note_off_c, 0, 66, 46
1, 404416, Poly_aftertouch_c, 0, 63, 0
1, 404431, Note_on_c, 0, 69, 38
1, 404487, Note_off_c, 0, 69, 47
1, 404500, Note_on_c, 0, 83, 67
1, 404508, Note_off_c, 0, 85, 60
1, 404515, Note_on_c, 0, 66, 58
1, 404577, Note_off_c, 0, 83, 58
1, 404580, Note_off_c, 0, 66, 50
1, 404592, Note_off_c, 0, 59, 39
1, 404606, Note_on_c, 0, 69, 53
1, 404662, Note_off_c, 0, 69, 60
1, 404704, Control_c, 0, 64, 108
1, 404711, Note_on_c, 0, 59, 52
1, 404716, Note_on_c, 0, 83, 79
1, 404719, Control_c, 0, 64, 86
1, 404734, Control_c, 0, 64, 68
1, 404749, Control_c, 0, 64, 0
1, 404763, Control_c, 0, 64, 32
1, 404778, Control_c, 0, 64, 64
1, 404793, Control_c, 0, 64, 73
1, 404808, Control_c, 0, 64, 83
1, 404822, Control_c, 0, 64, 97
1, 404828, Note_on_c, 0, 68, 54
1, 404837, Control_c, 0, 64, 109
1, 404852, Control_c, 0, 64, 118
1, 404867, Note_off_c, 0, 68, 48
1, 404867, Control_c, 0, 64, 126
1, 404882, Control_c, 0, 64, 127
1, 404893, Note_off_c, 0, 83, 56
1, 404896, Note_on_c, 0, 81, 76
1, 404936, Note_on_c, 0, 64, 46
1, 404976, Note_off_c, 0, 64, 60
1, 404985, Note_on_c, 0, 80, 76
1, 404988, Note_off_c, 0, 81, 59
1, 405009, Note_on_c, 0, 68, 47
1, 405050, Note_off_c, 0, 68, 47
1, 405072, Note_on_c, 0, 78, 78
1, 405086, Note_off_c, 0, 80, 61
1, 405087, Note_on_c, 0, 64, 54
1, 405128, Note_off_c, 0, 59, 40
1, 405134, Note_off_c, 0, 64, 56
1, 405135, Note_off_c, 0, 78, 63
1, 405152, Note_on_c, 0, 76, 73
1, 405160, Note_on_c, 0, 68, 51
1, 405201, Note_off_c, 0, 76, 67
1, 405220, Note_off_c, 0, 68, 55
1, 405277, Note_on_c, 0, 76, 73
1, 405286, Note_on_c, 0, 59, 45
1, 405319, Control_c, 0, 64, 97
1, 405334, Control_c, 0, 64, 77
1, 405349, Control_c, 0, 64, 54
1, 405364, Control_c, 0, 64, 0
1, 405379, Control_c, 0, 64, 20
1, 405386, Note_on_c, 0, 69, 54
1, 405393, Control_c, 0, 64, 65
1, 405408, Control_c, 0, 64, 75
1, 405422, Note_off_c, 0, 59, 0
1, 405423, Control_c, 0, 64, 88
1, 405424, Note_off_c, 0, 69, 54
1, 405438, Control_c, 0, 64, 101
1, 405453, Control_c, 0, 64, 113
1, 405459, Poly_aftertouch_c, 0, 59, 127
1, 405468, Control_c, 0, 64, 118
1, 405483, Control_c, 0, 64, 122
1, 405498, Control_c, 0, 64, 127
1, 405499, Note_on_c, 0, 66, 49
1, 405529, Note_off_c, 0, 66, 59
1, 405599, Note_on_c, 0, 69, 35
1, 405629, Note_off_c, 0, 69, 50
1, 405630, Note_off_c, 0, 76, 65
1, 405642, Note_on_c, 0, 75, 62
1, 405656, Note_on_c, 0, 66, 51
1, 405662, Note_off_c, 0, 75, 66
1, 405712, Note_off_c, 0, 66, 50
1, 405726, Note_on_c, 0, 69, 52
1, 405743, Poly_aftertouch_c, 0, 59, 0
1, 405803, Note_off_c, 0, 69, 63
1, 405843, Note_on_c, 0, 85, 69
1, 405849, Note_on_c, 0, 59, 60
1, 405854, Control_c, 0, 64, 101
1, 405868, Control_c, 0, 64, 81
1, 405883, Control_c, 0, 64, 63
1, 405898, Control_c, 0, 64, 10
1, 405913, Control_c, 0, 64, 56
1, 405928, Control_c, 0, 64, 69
1, 405942, Control_c, 0, 64, 79
1, 405965, Control_c, 0, 64, 92
1, 405966, Note_on_c, 0, 68, 57
1, 405975, Note_on_c, 0, 83, 68
1, 405976, Note_off_c, 0, 85, 60
1, 405980, Control_c, 0, 64, 106
1, 405995, Control_c, 0, 64, 118
1, 406010, Control_c, 0, 64, 125
1, 406022, Note_off_c, 0, 68, 50
1, 406024, Control_c, 0, 64, 127
1, 406058, Note_on_c, 0, 81, 78
1, 406064, Note_on_c, 0, 64, 52
1, 406066, Note_off_c, 0, 83, 56
1, 406105, Note_off_c, 0, 64, 61
1, 406136, Note_on_c, 0, 68, 55
1, 406137, Note_off_c, 0, 81, 59
1, 406138, Note_on_c, 0, 80, 75
1, 406189, Note_off_c, 0, 68, 49
1, 406192, Note_off_c, 0, 80, 64
1, 406222, Note_on_c, 0, 78, 72
1, 406225, Note_on_c, 0, 64, 47
1, 406249, Note_off_c, 0, 78, 65
1, 406278, Note_off_c, 0, 64, 56
1, 406294, Note_off_c, 0, 59, 39
1, 406305, Note_on_c, 0, 68, 56
1, 406309, Note_on_c, 0, 76, 80
1, 406353, Note_off_c, 0, 68, 63
1, 406434, Note_on_c, 0, 77, 81
1, 406437, Note_on_c, 0, 59, 47
1, 406439, Control_c, 0, 64, 113
1, 406452, Note_off_c, 0, 76, 60
1, 406454, Control_c, 0, 64, 89
1, 406468, Control_c, 0, 64, 68
1, 406483, Control_c, 0, 64, 0
1, 406537, Note_on_c, 0, 69, 50
1, 406542, Control_c, 0, 64, 48
1, 406557, Control_c, 0, 64, 70
1, 406571, Note_off_c, 0, 69, 56
1, 406572, Control_c, 0, 64, 80
1, 406575, Note_off_c, 0, 59, 0
1, 406588, Control_c, 0, 64, 91
1, 406603, Control_c, 0, 64, 100
1, 406613, Poly_aftertouch_c, 0, 59, 127
1, 406618, Control_c, 0, 64, 105
1, 406630, Note_on_c, 0, 63, 54
1, 406632, Control_c, 0, 64, 110
1, 406647, Control_c, 0, 64, 115
1, 406662, Control_c, 0, 64, 120
1, 406677, Note_off_c, 0, 63, 62
1, 406677, Control_c, 0, 64, 124
1, 406691, Control_c, 0, 64, 127
1, 406750, Note_on_c, 0, 69, 27
1, 406785, Note_off_c, 0, 69, 44
1, 406798, Note_on_c, 0, 63, 57
1, 406820, Poly_aftertouch_c, 0, 59, 0
1, 406821, Note_on_c, 0, 78, 72
1, 406825, Note_off_c, 0, 77, 59
1, 406835, Note_off_c, 0, 63, 62
1, 406873, Note_off_c, 0, 78, 61
1, 406881, Note_on_c, 0, 69, 49
1, 406892, Control_c, 0, 64, 126
1, 406901, Note_off_c, 0, 69, 60
1, 406907, Control_c, 0, 64, 113
1, 406922, Control_c, 0, 64, 97
1, 406933, Note_on_c, 0, 59, 72
1, 406937, Control_c, 0, 64, 78
1, 406952, Control_c, 0, 64, 23
1, 406966, Control_c, 0, 64, 0
1, 406981, Control_c, 0, 67, 8
1, 406998, Note_on_c, 0, 64, 61
1, 407000, Note_off_c, 0, 59, 62
1, 407025, Control_c, 0, 67, 0
1, 407043, Note_on_c, 0, 68, 74
1, 407060, Note_off_c, 0, 64, 65
1, 407070, Control_c, 0, 64, 65
1, 407084, Control_c, 0, 64, 80
1, 407086, Note_on_c, 0, 80, 89
1, 407090, Note_on_c, 0, 76, 86
1, 407095, Note_on_c, 0, 71, 79
1, 407099, Control_c, 0, 64, 100
1, 407105, Note_off_c, 0, 68, 62
1, 407114, Control_c, 0, 64, 127
1, 407138, Note_off_c, 0, 71, 58
1, 407380, Note_on_c, 0, 69, 73
1, 407406, Note_off_c, 0, 69, 69
1, 407470, Note_on_c, 0, 68, 79
1, 407519, Note_off_c, 0, 68, 58
1, 407552, Note_on_c, 0, 66, 71
1, 407576, Note_off_c, 0, 66, 69
1, 407641, Note_on_c, 0, 64, 74
1, 407673, Note_off_c, 0, 64, 59
1, 407751, Note_on_c, 0, 64, 38
1, 407772, Note_off_c, 0, 64, 56
1, 407905, Note_on_c, 0, 59, 74
1, 407951, Note_off_c, 0, 59, 52
1, 407987, Note_on_c, 0, 57, 78
1, 408028, Note_off_c, 0, 76, 61
1, 408028, Note_off_c, 0, 80, 56
1, 408036, Note_off_c, 0, 57, 47
1, 408075, Note_on_c, 0, 56, 66
1, 408142, Note_on_c, 0, 80, 90
1, 408145, Control_c, 0, 64, 95
1, 408148, Note_on_c, 0, 76, 83
1, 408148, Note_on_c, 0, 83, 88
1, 408157, Note_off_c, 0, 56, 63
1, 408160, Control_c, 0, 64, 70
1, 408163, Note_on_c, 0, 54, 69
1, 408175, Control_c, 0, 64, 0
1, 408190, Control_c, 0, 64, 18
1, 408196, Note_off_c, 0, 54, 65
1, 408212, Control_c, 0, 64, 64
1, 408227, Control_c, 0, 64, 77
1, 408242, Control_c, 0, 64, 96
1, 408257, Control_c, 0, 64, 122
1, 408267, Note_on_c, 0, 52, 78
1, 408271, Control_c, 0, 64, 127
1, 408322, Note_off_c, 0, 52, 55
1, 408327, Note_off_c, 0, 76, 58
1, 408336, Note_off_c, 0, 80, 62
1, 408340, Note_off_c, 0, 83, 56
1, 408349, Note_on_c, 0, 51, 74
1, 408419, Note_off_c, 0, 51, 61
1, 408422, Note_on_c, 0, 49, 76
1, 408451, Note_off_c, 0, 49, 66
1, 408508, Note_on_c, 0, 47, 83
1, 408554, Note_off_c, 0, 47, 62
1, 408601, Note_on_c, 0, 45, 73
1, 408655, Control_c, 0, 64, 94
1, 408660, Note_on_c, 0, 80, 87
1, 408660, Note_on_c, 0, 88, 96
1, 408664, Note_on_c, 0, 76, 86
1, 408670, Control_c, 0, 64, 70
1, 408675, Note_off_c, 0, 45, 65
1, 408677, Note_on_c, 0, 44, 74
1, 408685, Control_c, 0, 64, 0
1, 408744, Control_c, 0, 64, 68
1, 408756, Note_off_c, 0, 44, 64
1, 408759, Control_c, 0, 64, 80
1, 408763, Note_on_c, 0, 42, 64
1, 408774, Control_c, 0, 64, 97
1, 408789, Control_c, 0, 64, 118
1, 408795, Note_off_c, 0, 42, 65
1, 408804, Control_c, 0, 64, 127
1, 408844, Note_on_c, 0, 40, 77
1, 408870, Note_off_c, 0, 80, 61
1, 408911, Note_off_c, 0, 40, 60
1, 408919, Note_on_c, 0, 39, 76
1, 408990, Note_off_c, 0, 88, 32
1, 409000, Note_on_c, 0, 37, 77
1, 409009, Note_off_c, 0, 39, 61
1, 409024, Note_off_c, 0, 76, 42
1, 409033, Note_off_c, 0, 37, 68
1, 409096, Note_on_c, 0, 35, 82
1, 409161, Note_off_c, 0, 35, 47
1, 409215, Note_on_c, 0, 85, 95
1, 409219, Note_on_c, 0, 78, 90
1, 409220, Note_on_c, 0, 76, 87
1, 409225, Note_on_c, 0, 34, 72
1, 409227, Control_c, 0, 64, 103
1, 409242, Control_c, 0, 64, 80
1, 409257, Control_c, 0, 64, 45
1, 409272, Control_c, 0, 64, 0
1, 409346, Control_c, 0, 64, 64
1, 409360, Control_c, 0, 64, 77
1, 409375, Control_c, 0, 64, 95
1, 409390, Control_c, 0, 64, 112
1, 409404, Control_c, 0, 64, 127
1, 409472, Note_off_c, 0, 76, 56
1, 409532, Note_off_c, 0, 34, 55
1, 409536, Note_off_c, 0, 78, 58
1, 409549, Note_off_c, 0, 85, 52
1, 409830, Note_on_c, 0, 33, 65
1, 409830, Note_on_c, 0, 84, 82
1, 409831, Note_on_c, 0, 75, 83
1, 409835, Note_on_c, 0, 78, 81
1, 409872, Control_c, 0, 64, 123
1, 409888, Control_c, 0, 64, 95
1, 409895, Note_off_c, 0, 33, 65
1, 409900, Note_on_c, 0, 35, 68
1, 409903, Control_c, 0, 64, 72
1, 409917, Control_c, 0, 64, 0
1, 409954, Note_off_c, 0, 35, 63
1, 409962, Control_c, 0, 64, 46
1, 409968, Note_on_c, 0, 33, 60
1, 409976, Control_c, 0, 64, 70
1, 409991, Control_c, 0, 64, 81
1, 410006, Control_c, 0, 64, 96
1, 410008, Note_off_c, 0, 33, 66
1, 410019, Note_on_c, 0, 35, 58
1, 410021, Control_c, 0, 64, 109
1, 410035, Control_c, 0, 64, 119
1, 410050, Control_c, 0, 64, 127
1, 410064, Note_off_c, 0, 35, 63
1, 410083, Note_on_c, 0, 33, 58
1, 410112, Note_off_c, 0, 33, 66
1, 410133, Note_on_c, 0, 35, 60
1, 410169, Note_off_c, 0, 35, 61
1, 410187, Note_on_c, 0, 33, 65
1, 410225, Note_off_c, 0, 78, 52
1, 410229, Note_off_c, 0, 84, 54
1, 410256, Note_off_c, 0, 75, 57
1, 410286, Poly_aftertouch_c, 0, 35, 127
1, 410312, Note_off_c, 0, 33, 61
1, 410321, Poly_aftertouch_c, 0, 35, 0
1, 410333, Note_on_c, 0, 32, 58
1, 410380, Note_off_c, 0, 32, 60
1, 410396, Note_on_c, 0, 33, 54
1, 410526, Note_off_c, 0, 33, 57
1, 410544, Note_on_c, 0, 32, 45
1, 410561, Note_on_c, 0, 83, 66
1, 410567, Note_on_c, 0, 71, 59
1, 410579, Note_on_c, 0, 76, 51
1, 410622, Control_c, 0, 64, 101
1, 410622, Control_c, 0, 67, 8
1, 410637, Control_c, 0, 64, 79
1, 410637, Control_c, 0, 67, 9
1, 410652, Control_c, 0, 64, 0
1, 410652, Control_c, 0, 67, 11
1, 410666, Control_c, 0, 67, 15
1, 410681, Control_c, 0, 67, 20
1, 410696, Control_c, 0, 67, 28
1, 410711, Control_c, 0, 67, 40
1, 410725, Control_c, 0, 67, 51
1, 410740, Control_c, 0, 64, 61
1, 410740, Control_c, 0, 67, 61
1, 410755, Control_c, 0, 64, 74
1, 410755, Control_c, 0, 67, 71
1, 410770, Control_c, 0, 64, 85
1, 410770, Control_c, 0, 67, 82
1, 410785, Control_c, 0, 64, 98
1, 410785, Control_c, 0, 67, 91
1, 410799, Control_c, 0, 64, 106
1, 410799, Control_c, 0, 67, 99
1, 410814, Control_c, 0, 64, 114
1, 410814, Control_c, 0, 67, 105
1, 410829, Control_c, 0, 64, 120
1, 410829, Control_c, 0, 67, 108
1, 410831, Note_off_c, 0, 71, 49
1, 410844, Control_c, 0, 64, 127
1, 410844, Control_c, 0, 67, 111
1, 410858, Control_c, 0, 67, 113
1, 410873, Control_c, 0, 67, 113
1, 410909, Note_off_c, 0, 32, 40
1, 410918, Control_c, 0, 67, 114
1, 410932, Control_c, 0, 67, 115
1, 410947, Control_c, 0, 67, 118
1, 410962, Control_c, 0, 67, 121
1, 410977, Control_c, 0, 67, 123
1, 410992, Control_c, 0, 67, 125
1, 411006, Control_c, 0, 67, 127
1, 411108, Note_off_c, 0, 76, 41
1, 411125, Control_c, 0, 64, 113
1, 411140, Control_c, 0, 64, 99
1, 411146, Note_on_c, 0, 33, 52
1, 411155, Control_c, 0, 64, 86
1, 411159, Note_on_c, 0, 73, 61
1, 411170, Control_c, 0, 64, 72
1, 411184, Control_c, 0, 64, 51
1, 411206, Control_c, 0, 64, 0
1, 411259, Note_off_c, 0, 73, 59
1, 411263, Note_off_c, 0, 83, 51
1, 411340, Control_c, 0, 64, 10
1, 411349, Note_on_c, 0, 81, 59
1, 411378, Note_off_c, 0, 33, 58
1, 411379, Note_off_c, 0, 81, 63
1, 411415, Control_c, 0, 64, 13
1, 411426, Note_on_c, 0, 80, 69
1, 411430, Control_c, 0, 64, 16
1, 411445, Control_c, 0, 64, 18
1, 411460, Note_off_c, 0, 80, 59
1, 411489, Control_c, 0, 64, 21
1, 411504, Control_c, 0, 64, 24
1, 411519, Control_c, 0, 64, 25
1, 411524, Note_on_c, 0, 78, 69
1, 411552, Note_off_c, 0, 78, 64
1, 411600, Note_on_c, 0, 76, 63
1, 411628, Note_off_c, 0, 76, 69
1, 411687, Note_on_c, 0, 75, 66
1, 411689, Note_on_c, 0, 57, 62
1, 411692, Note_on_c, 0, 54, 58
1, 411698, Note_on_c, 0, 47, 55
1, 411711, Control_c, 0, 64, 26
1, 411727, Note_off_c, 0, 57, 57
1, 411729, Note_off_c, 0, 54, 60
1, 411741, Note_off_c, 0, 47, 61
1, 411750, Note_off_c, 0, 75, 60
1, 411755, Control_c, 0, 64, 25
1, 411761, Note_on_c, 0, 73, 66
1, 411785, Control_c, 0, 64, 24
1, 411814, Control_c, 0, 64, 23
1, 411824, Note_off_c, 0, 73, 42
1, 411829, Control_c, 0, 64, 20
1, 411844, Control_c, 0, 64, 16
1, 411845, Note_on_c, 0, 71, 63
1, 411859, Control_c, 0, 64, 13
1, 411861, Note_on_c, 0, 57, 52
1, 411862, Note_on_c, 0, 47, 49
1, 411867, Note_on_c, 0, 54, 50
1, 411869, Note_off_c, 0, 71, 63
1, 411889, Note_off_c, 0, 57, 54
1, 411895, Note_off_c, 0, 54, 55
1, 411905, Note_off_c, 0, 47, 61
1, 411919, Control_c, 0, 64, 0
1, 411919, Note_on_c, 0, 69, 64
1, 411956, Note_off_c, 0, 69, 68
1, 412024, Note_on_c, 0, 54, 47
1, 412025, Note_on_c, 0, 57, 48
1, 412029, Note_on_c, 0, 47, 49
1, 412029, Note_on_c, 0, 68, 60
1, 412053, Note_off_c, 0, 57, 55
1, 412065, Note_off_c, 0, 54, 59
1, 412072, Note_off_c, 0, 47, 61
1, 412091, Note_off_c, 0, 68, 63
1, 412094, Note_on_c, 0, 66, 67
1, 412128, Note_off_c, 0, 66, 65
1, 412180, Note_on_c, 0, 64, 59
1, 412182, Note_on_c, 0, 57, 48
1, 412187, Note_on_c, 0, 54, 50
1, 412191, Note_on_c, 0, 47, 48
1, 412210, Note_off_c, 0, 57, 57
1, 412214, Note_off_c, 0, 54, 57
1, 412215, Note_off_c, 0, 64, 66
1, 412231, Note_off_c, 0, 47, 58
1, 412263, Note_on_c, 0, 63, 64
1, 412332, Note_off_c, 0, 63, 62
1, 412343, Note_on_c, 0, 61, 66
1, 412348, Note_on_c, 0, 57, 54
1, 412355, Note_on_c, 0, 54, 45
1, 412357, Note_on_c, 0, 47, 49
1, 412375, Note_off_c, 0, 61, 64
1, 412386, Control_c, 0, 64, 45
1, 412391, Note_off_c, 0, 57, 56
1, 412396, Note_off_c, 0, 54, 53
1, 412401, Control_c, 0, 64, 72
1, 412408, Note_on_c, 0, 59, 64
1, 412408, Note_off_c, 0, 47, 59
1, 412416, Control_c, 0, 64, 84
1, 412430, Control_c, 0, 64, 98
1, 412433, Note_off_c, 0, 59, 66
1, 412445, Control_c, 0, 64, 108
1, 412460, Control_c, 0, 64, 113
1, 412475, Control_c, 0, 64, 117
1, 412490, Control_c, 0, 64, 122
1, 412504, Control_c, 0, 64, 127
1, 412519, Note_on_c, 0, 57, 45
1, 412524, Note_on_c, 0, 73, 56
1, 412528, Note_on_c, 0, 54, 41
1, 412532, Note_on_c, 0, 47, 44
1, 412555, Note_off_c, 0, 57, 51
1, 412564, Note_off_c, 0, 54, 51
1, 412569, Note_off_c, 0, 73, 59
1, 412572, Note_off_c, 0, 47, 59
1, 412595, Note_on_c, 0, 71, 65
1, 412622, Note_off_c, 0, 71, 64
1, 412768, Note_on_c, 0, 69, 66
1, 412789, Note_on_c, 0, 59, 48
1, 412789, Note_on_c, 0, 54, 42
1, 412804, Note_on_c, 0, 47, 40
1, 412808, Control_c, 0, 64, 120
1, 412815, Note_on_c, 0, 63, 46
1, 412822, Control_c, 0, 64, 102
1, 412837, Control_c, 0, 64, 87
1, 412852, Control_c, 0, 64, 69
1, 412867, Control_c, 0, 64, 0
1, 412941, Control_c, 0, 64, 63
1, 412955, Control_c, 0, 64, 74
1, 412970, Control_c, 0, 64, 85
1, 412986, Control_c, 0, 64, 95
1, 413001, Control_c, 0, 64, 101
1, 413001, Control_c, 0, 67, 126
1, 413016, Control_c, 0, 64, 106
1, 413016, Control_c, 0, 67, 110
1, 413030, Control_c, 0, 64, 110
1, 413030, Control_c, 0, 67, 90
1, 413045, Control_c, 0, 64, 114
1, 413045, Control_c, 0, 67, 64
1, 413060, Control_c, 0, 64, 118
1, 413060, Control_c, 0, 67, 45
1, 413075, Control_c, 0, 64, 122
1, 413075, Control_c, 0, 67, 30
1, 413090, Control_c, 0, 64, 125
1, 413090, Control_c, 0, 67, 20
1, 413101, Note_off_c, 0, 63, 57
1, 413105, Control_c, 0, 64, 126
1, 413105, Control_c, 0, 67, 14
1, 413120, Control_c, 0, 67, 10
1, 413134, Control_c, 0, 67, 9
1, 413149, Control_c, 0, 67, 0
1, 413215, Note_off_c, 0, 54, 35
1, 413224, Note_off_c, 0, 47, 39
1, 413400, Control_c, 0, 64, 124
1, 413406, Note_off_c, 0, 69, 58
1, 413412, Note_on_c, 0, 68, 45
1, 413415, Control_c, 0, 64, 112
1, 413416, Note_on_c, 0, 64, 38
1, 413418, Note_on_c, 0, 56, 39
1, 413426, Note_on_c, 0, 52, 39
1, 413430, Control_c, 0, 64, 96
1, 413452, Control_c, 0, 64, 79
1, 413467, Control_c, 0, 64, 57
1, 413482, Control_c, 0, 64, 0
1, 413639, Note_off_c, 0, 59, 41
1, 413659, Note_off_c, 0, 56, 57
1, 413728, Note_off_c, 0, 64, 42
1, 413732, Note_off_c, 0, 52, 48
1, 413749, Control_c, 0, 67, 8
1, 413764, Control_c, 0, 67, 9
1, 413790, Note_off_c, 0, 68, 64
1, 413913, Control_c, 0, 67, 8
1, 413943, Control_c, 0, 67, 8
1, 414078, Note_on_c, 0, 45, 54
1, 414136, Control_c, 0, 64, 55
1, 414150, Control_c, 0, 64, 71
1, 414150, Control_c, 0, 67, 0
1, 414165, Control_c, 0, 64, 80
1, 414180, Control_c, 0, 64, 90
1, 414202, Control_c, 0, 64, 97
1, 414217, Control_c, 0, 64, 103
1, 414232, Control_c, 0, 64, 108
1, 414247, Control_c, 0, 64, 114
1, 414262, Control_c, 0, 64, 123
1, 414274, Note_on_c, 0, 48, 61
1, 414276, Control_c, 0, 64, 127
1, 414287, Note_on_c, 0, 61, 61
1, 414291, Note_on_c, 0, 69, 60
1, 414308, Note_on_c, 0, 66, 43
1, 414329, Note_off_c, 0, 61, 57
1, 414341, Note_off_c, 0, 66, 54
1, 414360, Note_off_c, 0, 69, 61
1, 414365, Note_on_c, 0, 49, 64
1, 414418, Note_off_c, 0, 48, 61
1, 414431, Note_off_c, 0, 49, 62
1, 414434, Note_on_c, 0, 51, 70
1, 414450, Note_on_c, 0, 66, 54
1, 414458, Note_on_c, 0, 61, 51
1, 414473, Note_on_c, 0, 69, 48
1, 414518, Note_off_c, 0, 61, 49
1, 414518, Note_off_c, 0, 66, 55
1, 414518, Note_off_c, 0, 69, 58
1, 414530, Note_on_c, 0, 49, 63
1, 414531, Note_off_c, 0, 45, 40
1, 414586, Note_off_c, 0, 51, 52
1, 414655, Note_off_c, 0, 49, 57
1, 414662, Note_on_c, 0, 57, 77
1, 414664, Note_on_c, 0, 45, 60
1, 414721, Control_c, 0, 64, 113
1, 414721, Control_c, 0, 67, 8
1, 414736, Control_c, 0, 64, 86
1, 414736, Control_c, 0, 67, 9
1, 414751, Control_c, 0, 64, 66
1, 414766, Control_c, 0, 64, 0
1, 414810, Control_c, 0, 64, 41
1, 414823, Note_off_c, 0, 45, 59
1, 414825, Control_c, 0, 64, 71
1, 414840, Control_c, 0, 64, 83
1, 414852, Note_on_c, 0, 61, 54
1, 414855, Control_c, 0, 64, 99
1, 414863, Note_on_c, 0, 69, 50
1, 414870, Control_c, 0, 64, 115
1, 414885, Control_c, 0, 64, 127
1, 414885, Control_c, 0, 67, 8
1, 414890, Note_on_c, 0, 66, 31
1, 414902, Note_off_c, 0, 57, 59
1, 414917, Note_off_c, 0, 61, 51
1, 414920, Note_off_c, 0, 69, 55
1, 414932, Note_off_c, 0, 66, 48
1, 415036, Note_on_c, 0, 56, 64
1, 415041, Note_on_c, 0, 61, 62
1, 415042, Note_on_c, 0, 66, 55
1, 415048, Note_on_c, 0, 69, 62
1, 415069, Control_c, 0, 67, 8
1, 415099, Note_off_c, 0, 56, 62
1, 415118, Note_on_c, 0, 54, 62
1, 415134, Note_off_c, 0, 61, 54
1, 415135, Note_off_c, 0, 69, 54
1, 415141, Note_off_c, 0, 66, 37
1, 415146, Note_off_c, 0, 54, 64
1, 415173, Control_c, 0, 67, 0
1, 415299, Note_on_c, 0, 61, 71
1, 415311, Note_on_c, 0, 45, 51
1, 415321, Control_c, 0, 67, 8
1, 415336, Control_c, 0, 64, 100
1, 415336, Control_c, 0, 67, 8
1, 415350, Control_c, 0, 64, 80
1, 415367, Control_c, 0, 64, 48
1, 415367, Control_c, 0, 67, 9
1, 415382, Control_c, 0, 64, 0
1, 415426, Control_c, 0, 64, 64
1, 415440, Control_c, 0, 64, 77
1, 415443, Note_off_c, 0, 45, 59
1, 415455, Control_c, 0, 64, 89
1, 415470, Control_c, 0, 64, 103
1, 415485, Control_c, 0, 64, 109
1, 415500, Control_c, 0, 64, 113
1, 415500, Control_c, 0, 67, 8
1, 415514, Control_c, 0, 64, 117
1, 415514, Control_c, 0, 67, 8
1, 415523, Note_on_c, 0, 59, 59
1, 415526, Note_on_c, 0, 66, 54
1, 415529, Control_c, 0, 64, 122
1, 415537, Note_on_c, 0, 69, 47
1, 415544, Control_c, 0, 64, 127
1, 415559, Control_c, 0, 67, 0
1, 415570, Note_off_c, 0, 66, 60
1, 415582, Note_off_c, 0, 69, 61
1, 415594, Note_off_c, 0, 59, 59
1, 415608, Note_on_c, 0, 57, 61
1, 415671, Note_off_c, 0, 57, 61
1, 415682, Note_on_c, 0, 56, 61
1, 415701, Note_on_c, 0, 69, 53
1, 415709, Note_on_c, 0, 66, 58
1, 415746, Note_off_c, 0, 66, 60
1, 415747, Note_off_c, 0, 56, 63
1, 415755, Note_on_c, 0, 54, 58
1, 415755, Note_off_c, 0, 61, 42
1, 415768, Note_off_c, 0, 69, 45
1, 415789, Note_off_c, 0, 54, 62
1, 415895, Note_on_c, 0, 52, 66
1, 415916, Note_on_c, 0, 47, 48
1, 415952, Control_c, 0, 64, 108
1, 415952, Control_c, 0, 67, 8
1, 415967, Control_c, 0, 64, 87
1, 415967, Control_c, 0, 67, 8
1, 415981, Control_c, 0, 64, 62
1, 415996, Control_c, 0, 64, 0
1, 416055, Control_c, 0, 64, 56
1, 416070, Control_c, 0, 64, 72
1, 416085, Control_c, 0, 64, 81
1, 416100, Control_c, 0, 64, 90
1, 416115, Control_c, 0, 64, 94
1, 416115, Control_c, 0, 67, 0
1, 416117, Note_on_c, 0, 59, 48
1, 416125, Note_on_c, 0, 66, 50
1, 416129, Control_c, 0, 64, 96
1, 416131, Note_on_c, 0, 69, 42
1, 416144, Control_c, 0, 64, 97
1, 416154, Note_off_c, 0, 59, 48
1, 416159, Control_c, 0, 64, 98
1, 416165, Note_off_c, 0, 66, 50
1, 416169, Note_off_c, 0, 69, 64
1, 416249, Control_c, 0, 64, 97
1, 416259, Note_off_c, 0, 52, 63
1, 416264, Control_c, 0, 64, 95
1, 416278, Note_on_c, 0, 69, 59
1, 416278, Control_c, 0, 64, 89
1, 416286, Note_on_c, 0, 51, 57
1, 416287, Note_on_c, 0, 59, 51
1, 416288, Note_on_c, 0, 66, 58
1, 416293, Control_c, 0, 64, 82
1, 416298, Note_off_c, 0, 47, 42
1, 416308, Control_c, 0, 64, 72
1, 416309, Note_off_c, 0, 59, 58
1, 416309, Note_off_c, 0, 69, 67
1, 416318, Note_off_c, 0, 66, 60
1, 416322, Note_off_c, 0, 51, 63
1, 416323, Control_c, 0, 64, 54
1, 416337, Control_c, 0, 64, 0
1, 416337, Control_c, 0, 67, 8
1, 416352, Control_c, 0, 67, 8
1, 416367, Control_c, 0, 67, 9
1, 416382, Control_c, 0, 67, 9
1, 416411, Control_c, 0, 67, 10
1, 416449, Control_c, 0, 67, 9
1, 416464, Control_c, 0, 67, 9
1, 416478, Control_c, 0, 67, 8
1, 416503, Note_on_c, 0, 71, 75
1, 416504, Note_on_c, 0, 47, 67
1, 416506, Note_on_c, 0, 56, 70
1, 416508, Note_on_c, 0, 59, 75
1, 416508, Control_c, 0, 64, 63
1, 416512, Note_on_c, 0, 64, 63
1, 416523, Control_c, 0, 64, 76
1, 416538, Control_c, 0, 64, 93
1, 416548, Note_off_c, 0, 56, 59
1, 416551, Note_off_c, 0, 47, 63
1, 416551, Note_off_c, 0, 64, 62
1, 416552, Control_c, 0, 64, 120
1, 416559, Note_off_c, 0, 71, 59
1, 416567, Control_c, 0, 64, 127
1, 416573, Note_off_c, 0, 59, 61
1, 416596, Control_c, 0, 67, 8
1, 416611, Control_c, 0, 67, 0
1, 416764, Note_on_c, 0, 58, 72
1, 416766, Note_on_c, 0, 55, 63
1, 416789, Note_off_c, 0, 58, 67
1, 416792, Note_off_c, 0, 55, 67
1, 416819, Control_c, 0, 67, 8
1, 416834, Control_c, 0, 67, 8
1, 416841, Note_on_c, 0, 56, 71
1, 416849, Control_c, 0, 64, 111
1, 416854, Note_on_c, 0, 59, 62
1, 416864, Control_c, 0, 64, 99
1, 416871, Note_off_c, 0, 59, 66
1, 416877, Note_off_c, 0, 56, 60
1, 416878, Control_c, 0, 64, 88
1, 416878, Control_c, 0, 67, 9
1, 416893, Control_c, 0, 64, 77
1, 416908, Control_c, 0, 64, 67
1, 416908, Control_c, 0, 67, 9
1, 416923, Control_c, 0, 64, 39
1, 416923, Control_c, 0, 67, 10
1, 416924, Note_on_c, 0, 57, 69
1, 416926, Note_on_c, 0, 61, 70
1, 416938, Control_c, 0, 64, 0
1, 416938, Control_c, 0, 67, 10
1, 416952, Control_c, 0, 67, 11
1, 416953, Note_off_c, 0, 61, 64
1, 416954, Note_off_c, 0, 57, 62
1, 416968, Control_c, 0, 67, 13
1, 416983, Control_c, 0, 67, 16
1, 416996, Note_on_c, 0, 59, 64
1, 416998, Control_c, 0, 67, 20
1, 417004, Note_on_c, 0, 63, 67
1, 417013, Control_c, 0, 67, 29
1, 417027, Note_off_c, 0, 63, 66
1, 417027, Control_c, 0, 67, 44
1, 417040, Note_off_c, 0, 59, 62
1, 417042, Control_c, 0, 67, 63
1, 417057, Control_c, 0, 67, 82
1, 417072, Control_c, 0, 67, 99
1, 417087, Control_c, 0, 67, 115
1, 417093, Note_on_c, 0, 64, 63
1, 417098, Note_on_c, 0, 61, 69
1, 417101, Control_c, 0, 67, 126
1, 417116, Control_c, 0, 67, 127
1, 417117, Note_off_c, 0, 64, 65
1, 417162, Note_off_c, 0, 61, 61
1, 417171, Note_on_c, 0, 66, 73
1, 417174, Note_on_c, 0, 63, 67
1, 417212, Note_off_c, 0, 66, 61
1, 417217, Note_off_c, 0, 63, 57
1, 417246, Note_on_c, 0, 68, 68
1, 417247, Note_on_c, 0, 64, 64
1, 417277, Note_off_c, 0, 64, 64
1, 417280, Note_off_c, 0, 68, 63
1, 417323, Note_on_c, 0, 69, 63
1, 417346, Note_on_c, 0, 66, 71
1, 417352, Note_off_c, 0, 69, 67
1, 417395, Note_off_c, 0, 66, 63
1, 417410, Note_on_c, 0, 68, 62
1, 417419, Note_on_c, 0, 71, 48
1, 417441, Note_off_c, 0, 71, 57
1, 417470, Note_off_c, 0, 68, 64
1, 417475, Note_on_c, 0, 69, 69
1, 417482, Note_on_c, 0, 73, 70
1, 417505, Note_off_c, 0, 69, 66
1, 417508, Note_off_c, 0, 73, 64
1, 417556, Note_on_c, 0, 71, 58
1, 417559, Note_on_c, 0, 75, 64
1, 417584, Note_off_c, 0, 75, 67
1, 417594, Note_off_c, 0, 71, 60
1, 417639, Note_on_c, 0, 76, 65
1, 417651, Note_on_c, 0, 73, 65
1, 417665, Note_off_c, 0, 76, 70
1, 417687, Note_off_c, 0, 73, 58
1, 417714, Note_on_c, 0, 78, 75
1, 417722, Note_on_c, 0, 75, 66
1, 417750, Note_off_c, 0, 75, 66
1, 417753, Note_off_c, 0, 78, 60
1, 417788, Note_on_c, 0, 80, 65
1, 417797, Note_on_c, 0, 76, 62
1, 417826, Note_off_c, 0, 76, 66
1, 417826, Note_off_c, 0, 80, 64
1, 417854, Note_on_c, 0, 81, 63
1, 417876, Note_off_c, 0, 81, 64
1, 417880, Note_on_c, 0, 78, 69
1, 417943, Note_off_c, 0, 78, 60
1, 417958, Note_on_c, 0, 83, 58
1, 417961, Note_on_c, 0, 80, 58
1, 417983, Note_off_c, 0, 83, 56
1, 418007, Note_off_c, 0, 80, 61
1, 418029, Note_on_c, 0, 85, 67
1, 418035, Note_on_c, 0, 81, 52
1, 418056, Note_off_c, 0, 81, 57
1, 418056, Note_off_c, 0, 85, 66
1, 418098, Note_on_c, 0, 83, 59
1, 418110, Note_on_c, 0, 87, 60
1, 418127, Note_off_c, 0, 83, 65
1, 418129, Note_off_c, 0, 87, 64
1, 418187, Note_on_c, 0, 85, 61
1, 418190, Note_on_c, 0, 88, 65
1, 418210, Note_off_c, 0, 88, 66
1, 418228, Note_off_c, 0, 85, 61
1, 418265, Note_on_c, 0, 90, 72
1, 418283, Note_on_c, 0, 87, 56
1, 418293, Note_off_c, 0, 90, 63
1, 418341, Note_on_c, 0, 91, 66
1, 418369, Note_off_c, 0, 91, 61
1, 418399, Note_off_c, 0, 87, 56
1, 418480, Note_on_c, 0, 92, 72
1, 418499, Note_on_c, 0, 88, 50
1, 418542, Note_off_c, 0, 88, 59
1, 418566, Note_off_c, 0, 92, 63
1, 419034, Control_c, 0, 67, 127
1, 419049, Control_c, 0, 67, 116
1, 419064, Control_c, 0, 67, 102
1, 419079, Control_c, 0, 67, 85
1, 419094, Control_c, 0, 67, 66
1, 419109, Control_c, 0, 67, 43
1, 419123, Control_c, 0, 67, 28
1, 419138, Control_c, 0, 67, 18
1, 419153, Control_c, 0, 67, 11
1, 419168, Control_c, 0, 67, 0
1, 419243, Note_on_c, 0, 73, 84
1, 419246, Note_on_c, 0, 66, 80
1, 419249, Note_on_c, 0, 64, 78
1, 419260, Note_on_c, 0, 58, 62
1, 419263, Note_on_c, 0, 46, 59
1, 419330, Control_c, 0, 64, 65
1, 419345, Control_c, 0, 64, 76
1, 419361, Control_c, 0, 64, 90
1, 419376, Control_c, 0, 64, 108
1, 419391, Control_c, 0, 64, 127
1, 419468, Note_off_c, 0, 58, 59
1, 419471, Note_off_c, 0, 46, 53
1, 419478, Note_off_c, 0, 73, 59
1, 419478, Note_off_c, 0, 64, 60
1, 419518, Note_off_c, 0, 66, 60
1, 419945, Note_on_c, 0, 71, 64
1, 419952, Note_on_c, 0, 59, 56
1, 419956, Note_on_c, 0, 68, 56
1, 419961, Control_c, 0, 64, 97
1, 419964, Note_on_c, 0, 47, 50
1, 419970, Note_on_c, 0, 56, 46
1, 419971, Note_on_c, 0, 64, 49
1, 419976, Control_c, 0, 64, 76
1, 419991, Control_c, 0, 64, 0
1, 420050, Control_c, 0, 64, 61
1, 420057, Note_off_c, 0, 64, 62
1, 420057, Note_off_c, 0, 71, 58
1, 420065, Control_c, 0, 64, 73
1, 420076, Note_off_c, 0, 68, 62
1, 420080, Control_c, 0, 64, 84
1, 420095, Control_c, 0, 64, 98
1, 420110, Control_c, 0, 64, 106
1, 420125, Note_off_c, 0, 59, 61
1, 420125, Control_c, 0, 64, 112
1, 420139, Control_c, 0, 64, 115
1, 420155, Control_c, 0, 64, 120
1, 420170, Control_c, 0, 64, 127
1, 420185, Control_c, 0, 64, 127
1, 420199, Note_on_c, 0, 61, 58
1, 420235, Note_off_c, 0, 61, 63
1, 420262, Note_on_c, 0, 59, 66
1, 420304, Note_off_c, 0, 59, 60
1, 420313, Note_on_c, 0, 58, 63
1, 420340, Note_off_c, 0, 56, 28
1, 420346, Note_off_c, 0, 58, 66
1, 420372, Note_on_c, 0, 59, 51
1, 420437, Note_off_c, 0, 59, 57
1, 420609, Note_on_c, 0, 69, 60
1, 420616, Note_on_c, 0, 54, 41
1, 420619, Note_on_c, 0, 59, 41
1, 420629, Note_on_c, 0, 63, 46
1, 420636, Control_c, 0, 64, 104
1, 420651, Control_c, 0, 64, 85
1, 420666, Control_c, 0, 64, 62
1, 420681, Control_c, 0, 64, 0
1, 420755, Control_c, 0, 64, 39
1, 420769, Control_c, 0, 64, 68
1, 420784, Control_c, 0, 64, 79
1, 420799, Control_c, 0, 64, 92
1, 420814, Control_c, 0, 64, 104
1, 420829, Control_c, 0, 64, 114
1, 420843, Control_c, 0, 64, 122
1, 420858, Control_c, 0, 64, 127
1, 420963, Note_off_c, 0, 47, 39
1, 420981, Note_off_c, 0, 54, 36
1, 420986, Note_off_c, 0, 69, 56
1, 420995, Note_off_c, 0, 63, 57
1, 420998, Note_on_c, 0, 66, 58
1, 421013, Note_on_c, 0, 51, 39
1, 421036, Note_off_c, 0, 59, 40
1, 421046, Note_off_c, 0, 51, 56
1, 421046, Note_off_c, 0, 66, 58
1, 421299, Note_on_c, 0, 71, 55
1, 421301, Note_on_c, 0, 63, 47
1, 421313, Note_on_c, 0, 47, 41
1, 421314, Note_on_c, 0, 59, 34
1, 421329, Note_on_c, 0, 54, 33
1, 421331, Note_on_c, 0, 57, 32
1, 421341, Control_c, 0, 64, 103
1, 421356, Control_c, 0, 64, 85
1, 421371, Control_c, 0, 64, 67
1, 421385, Control_c, 0, 64, 0
1, 421459, Control_c, 0, 64, 63
1, 421474, Control_c, 0, 64, 74
1, 421489, Control_c, 0, 64, 84
1, 421504, Control_c, 0, 64, 95
1, 421519, Control_c, 0, 64, 101
1, 421533, Control_c, 0, 64, 106
1, 421548, Control_c, 0, 64, 110
1, 421556, Note_off_c, 0, 57, 41
1, 421563, Control_c, 0, 64, 114
1, 421578, Control_c, 0, 64, 118
1, 421592, Control_c, 0, 64, 124
1, 421607, Control_c, 0, 64, 127
1, 421767, Note_off_c, 0, 63, 35
1, 421821, Note_off_c, 0, 54, 36
1, 421834, Note_off_c, 0, 47, 41
1, 422033, Note_off_c, 0, 71, 54
1, 422076, Note_on_c, 0, 56, 35
1, 422079, Note_on_c, 0, 52, 39
1, 422085, Note_on_c, 0, 68, 42
1, 422086, Note_on_c, 0, 64, 31
1, 422104, Control_c, 0, 64, 123
1, 422119, Control_c, 0, 64, 104
1, 422134, Control_c, 0, 64, 85
1, 422149, Control_c, 0, 64, 65
1, 422164, Control_c, 0, 64, 0
1, 422194, Control_c, 0, 67, 8
1, 422208, Control_c, 0, 67, 8
1, 422223, Control_c, 0, 67, 9
1, 422238, Control_c, 0, 64, 52
1, 422238, Control_c, 0, 67, 9
1, 422253, Control_c, 0, 64, 68
1, 422268, Control_c, 0, 64, 75
1, 422274, Note_off_c, 0, 56, 58
1, 422282, Control_c, 0, 64, 80
1, 422291, Note_off_c, 0, 59, 40
1, 422297, Control_c, 0, 64, 81
1, 422300, Note_off_c, 0, 52, 59
1, 422320, Note_off_c, 0, 68, 60
1, 422321, Note_off_c, 0, 64, 54
1, 422371, Control_c, 0, 64, 81
1, 422371, Control_c, 0, 67, 10
1, 422386, Control_c, 0, 64, 79
1, 422386, Control_c, 0, 67, 11
1, 422401, Control_c, 0, 64, 76
1, 422401, Control_c, 0, 67, 11
1, 422415, Control_c, 0, 64, 72
1, 422415, Control_c, 0, 67, 13
1, 422438, Control_c, 0, 64, 67
1, 422438, Control_c, 0, 67, 13
1, 422453, Control_c, 0, 64, 62
1, 422453, Control_c, 0, 67, 15
1, 422468, Control_c, 0, 64, 47
1, 422468, Control_c, 0, 67, 16
1, 422483, Control_c, 0, 64, 0
1, 422483, Control_c, 0, 67, 19
1, 422497, Control_c, 0, 67, 21
1, 422498, Note_on_c, 0, 40, 68
1, 422512, Control_c, 0, 67, 22
1, 422522, Note_off_c, 0, 40, 61
1, 422527, Control_c, 0, 67, 23
1, 422556, Control_c, 0, 67, 22
1, 422578, Note_on_c, 0, 40, 66
1, 422587, Control_c, 0, 67, 22
1, 422599, Note_off_c, 0, 40, 61
1, 422602, Control_c, 0, 67, 21
1, 422617, Control_c, 0, 67, 21
1, 422646, Control_c, 0, 67, 20
1, 422647, Note_on_c, 0, 40, 66
1, 422679, Note_off_c, 0, 40, 63
1, 422727, Note_on_c, 0, 40, 88
1, 422824, Control_c, 0, 67, 20
1, 422883, Control_c, 0, 67, 19
1, 422898, Control_c, 0, 67, 20
1, 422903, Note_off_c, 0, 40, 64
1, 422927, Control_c, 0, 67, 20
1, 423016, Control_c, 0, 67, 20
1, 423091, Control_c, 0, 67, 19
1, 423144, Note_on_c, 0, 40, 75
1, 423170, Note_off_c, 0, 40, 66
1, 423201, Control_c, 0, 67, 19
1, 423231, Control_c, 0, 67, 18
1, 423232, Note_on_c, 0, 40, 80
1, 423246, Control_c, 0, 67, 18
1, 423255, Note_off_c, 0, 40, 66
1, 423299, Note_on_c, 0, 40, 78
1, 423326, Note_off_c, 0, 40, 65
1, 423378, Note_on_c, 0, 40, 97
1, 423562, Note_off_c, 0, 40, 64
1, 423587, Control_c, 0, 67, 18
1, 423739, Note_on_c, 0, 40, 72
1, 423742, Note_on_c, 0, 66, 71
1, 423746, Note_on_c, 0, 57, 62
1, 423748, Note_on_c, 0, 60, 61
1, 423765, Note_off_c, 0, 40, 66
1, 423769, Note_off_c, 0, 60, 64
1, 423771, Note_off_c, 0, 66, 68
1, 423773, Note_off_c, 0, 57, 63
1, 423821, Note_on_c, 0, 40, 76
1, 423826, Note_on_c, 0, 66, 77
1, 423831, Note_on_c, 0, 60, 70
1, 423832, Note_on_c, 0, 57, 63
1, 423839, Control_c, 0, 67, 18
1, 423847, Note_off_c, 0, 40, 66
1, 423848, Note_off_c, 0, 60, 66
1, 423851, Note_off_c, 0, 57, 62
1, 423853, Note_off_c, 0, 66, 65
1, 423898, Note_on_c, 0, 40, 86
1, 423899, Control_c, 0, 67, 17
1, 423908, Note_on_c, 0, 66, 68
1, 423915, Note_on_c, 0, 57, 59
1, 423917, Note_on_c, 0, 60, 60
1, 423924, Note_off_c, 0, 40, 66
1, 423935, Note_off_c, 0, 66, 62
1, 423935, Control_c, 0, 67, 17
1, 423944, Note_off_c, 0, 60, 60
1, 423946, Note_off_c, 0, 57, 41
1, 423980, Control_c, 0, 67, 17
1, 423981, Note_on_c, 0, 40, 87
1, 423988, Note_on_c, 0, 66, 89
1, 423994, Note_on_c, 0, 57, 78
1, 424000, Note_on_c, 0, 60, 76
1, 424069, Control_c, 0, 67, 16
1, 424084, Control_c, 0, 67, 15
1, 424099, Control_c, 0, 67, 14
1, 424113, Control_c, 0, 67, 13
1, 424128, Control_c, 0, 67, 11
1, 424143, Control_c, 0, 67, 8
1, 424158, Control_c, 0, 67, 0
1, 424402, Note_off_c, 0, 60, 58
1, 424426, Note_on_c, 0, 39, 76
1, 424435, Note_off_c, 0, 57, 59
1, 424462, Note_off_c, 0, 66, 62
1, 424477, Note_off_c, 0, 40, 55
1, 424617, Control_c, 0, 64, 20
1, 424632, Control_c, 0, 64, 26
1, 424647, Note_on_c, 0, 68, 76
1, 424647, Control_c, 0, 64, 18
1, 424650, Note_on_c, 0, 59, 71
1, 424650, Note_on_c, 0, 65, 72
1, 424662, Control_c, 0, 64, 0
1, 424861, Note_on_c, 0, 38, 75
1, 424868, Note_off_c, 0, 39, 60
1, 424952, Control_c, 0, 64, 13
1, 424967, Control_c, 0, 64, 20
1, 424981, Control_c, 0, 64, 21
1, 424996, Control_c, 0, 64, 23
1, 425041, Control_c, 0, 64, 24
1, 425050, Note_on_c, 0, 35, 77
1, 425055, Control_c, 0, 64, 25
1, 425068, Note_off_c, 0, 38, 63
1, 425069, Note_off_c, 0, 59, 51
1, 425070, Control_c, 0, 64, 29
1, 425094, Note_off_c, 0, 65, 57
1, 425100, Control_c, 0, 64, 30
1, 425130, Control_c, 0, 64, 31
1, 425151, Note_off_c, 0, 68, 56
1, 425278, Control_c, 0, 64, 32
1, 425293, Control_c, 0, 64, 33
1, 425300, Note_on_c, 0, 69, 76
1, 425307, Control_c, 0, 64, 36
1, 425311, Note_on_c, 0, 60, 62
1, 425312, Note_on_c, 0, 33, 60
1, 425319, Note_off_c, 0, 35, 57
1, 425321, Note_on_c, 0, 65, 55
1, 425322, Control_c, 0, 64, 37
1, 425337, Control_c, 0, 64, 38
1, 425366, Control_c, 0, 64, 35
1, 425381, Control_c, 0, 64, 23
1, 425396, Control_c, 0, 64, 0
1, 425448, Control_c, 0, 67, 8
1, 425463, Control_c, 0, 67, 10
1, 425478, Control_c, 0, 67, 13
1, 425493, Control_c, 0, 67, 22
1, 425507, Control_c, 0, 67, 31
1, 425522, Control_c, 0, 67, 44
1, 425537, Control_c, 0, 67, 65
1, 425552, Control_c, 0, 67, 91
1, 425566, Control_c, 0, 67, 118
1, 425581, Control_c, 0, 67, 127
1, 425596, Control_c, 0, 64, 31
1, 425611, Control_c, 0, 64, 65
1, 425626, Control_c, 0, 64, 70
1, 425640, Control_c, 0, 64, 75
1, 425655, Control_c, 0, 64, 80
1, 425670, Control_c, 0, 64, 84
1, 425685, Control_c, 0, 64, 89
1, 425700, Control_c, 0, 64, 92
1, 425714, Control_c, 0, 64, 95
1, 425729, Control_c, 0, 64, 99
1, 425742, Note_off_c, 0, 65, 32
1, 425744, Control_c, 0, 64, 102
1, 425760, Control_c, 0, 64, 104
1, 425774, Control_c, 0, 64, 104
1, 425785, Note_off_c, 0, 60, 34
1, 425789, Control_c, 0, 64, 105
1, 425968, Control_c, 0, 64, 104
1, 425982, Control_c, 0, 64, 100
1, 425997, Control_c, 0, 64, 92
1, 426004, Note_on_c, 0, 60, 47
1, 426004, Note_on_c, 0, 65, 54
1, 426012, Control_c, 0, 64, 80
1, 426027, Control_c, 0, 64, 62
1, 426042, Control_c, 0, 64, 0
1, 426097, Note_off_c, 0, 69, 44
1, 426130, Control_c, 0, 64, 30
1, 426145, Control_c, 0, 64, 64
1, 426160, Control_c, 0, 64, 69
1, 426182, Control_c, 0, 64, 71
1, 426197, Control_c, 0, 64, 73
1, 426212, Control_c, 0, 64, 74
1, 426227, Control_c, 0, 64, 74
1, 426242, Control_c, 0, 64, 75
1, 426259, Note_off_c, 0, 60, 56
1, 426263, Note_off_c, 0, 65, 61
1, 426296, Note_off_c, 0, 33, 59
1, 426376, Control_c, 0, 64, 74
1, 426390, Control_c, 0, 64, 73
1, 426405, Control_c, 0, 64, 71
1, 426420, Control_c, 0, 64, 68
1, 426435, Control_c, 0, 64, 65
1, 426450, Control_c, 0, 64, 60
1, 426464, Control_c, 0, 64, 40
1, 426479, Control_c, 0, 64, 0
1, 426694, Note_on_c, 0, 57, 40
1, 426694, Note_on_c, 0, 63, 45
1, 426705, Note_on_c, 0, 35, 39
1, 427342, Note_off_c, 0, 57, 51
1, 427348, Note_off_c, 0, 63, 35
1, 427368, Note_on_c, 0, 64, 42
1, 427377, Note_on_c, 0, 56, 40
1, 427378, Note_on_c, 0, 40, 33
1, 427471, Note_off_c, 0, 35, 39
1, 427610, Note_off_c, 0, 56, 56
1, 427641, Note_off_c, 0, 40, 57
1, 427659, Note_off_c, 0, 64, 63
1, 427824, Note_on_c, 0, 64, 60
1, 427841, Note_off_c, 0, 64, 61
1, 427891, Note_on_c, 0, 64, 65
1, 427908, Note_off_c, 0, 64, 41
1, 427964, Note_on_c, 0, 64, 70
1, 427990, Note_off_c, 0, 64, 68
1, 428051, Note_on_c, 0, 64, 72
1, 428247, Note_off_c, 0, 64, 61
1, 428452, Note_on_c, 0, 64, 73
1, 428477, Note_off_c, 0, 64, 69
1, 428527, Note_on_c, 0, 64, 79
1, 428546, Note_off_c, 0, 64, 67
1, 428597, Note_on_c, 0, 64, 80
1, 428627, Note_off_c, 0, 64, 64
1, 428677, Note_on_c, 0, 64, 71
1, 428809, Note_off_c, 0, 64, 64
1, 429099, Note_on_c, 0, 78, 66
1, 429101, Note_on_c, 0, 83, 60
1, 429103, Note_on_c, 0, 71, 58
1, 429105, Note_on_c, 0, 69, 67
1, 429106, Note_on_c, 0, 59, 56
1, 429107, Note_on_c, 0, 63, 55
1, 429107, Note_on_c, 0, 75, 49
1, 429108, Note_on_c, 0, 66, 57
1, 429116, Note_off_c, 0, 78, 64
1, 429119, Note_off_c, 0, 83, 60
1, 429124, Note_off_c, 0, 71, 39
1, 429124, Note_off_c, 0, 69, 68
1, 429127, Note_off_c, 0, 63, 64
1, 429127, Note_off_c, 0, 66, 64
1, 429130, Note_off_c, 0, 75, 53
1, 429131, Note_off_c, 0, 59, 61
1, 429178, Note_on_c, 0, 78, 82
1, 429188, Note_on_c, 0, 83, 71
1, 429191, Note_on_c, 0, 69, 70
1, 429195, Note_off_c, 0, 78, 67
1, 429196, Note_on_c, 0, 59, 49
1, 429198, Note_on_c, 0, 66, 64
1, 429201, Note_on_c, 0, 71, 45
1, 429202, Note_off_c, 0, 71, 127
1, 429202, Note_off_c, 0, 83, 65
1, 429207, Note_on_c, 0, 63, 47
1, 429207, Note_off_c, 0, 69, 69
1, 429215, Note_off_c, 0, 66, 65
1, 429217, Note_off_c, 0, 59, 58
1, 429231, Note_off_c, 0, 63, 52
1, 429249, Note_on_c, 0, 78, 82
1, 429252, Note_on_c, 0, 75, 32
1, 429270, Note_on_c, 0, 69, 70
1, 429271, Note_off_c, 0, 78, 66
1, 429277, Note_off_c, 0, 75, 62
1, 429281, Note_on_c, 0, 66, 61
1, 429281, Note_on_c, 0, 83, 48
1, 429285, Note_off_c, 0, 69, 68
1, 429302, Note_off_c, 0, 66, 39
1, 429305, Note_off_c, 0, 83, 39
1, 429350, Note_on_c, 0, 71, 74
1, 429355, Note_on_c, 0, 69, 71
1, 429357, Note_on_c, 0, 63, 37
1, 429357, Note_on_c, 0, 83, 69
1, 429361, Note_on_c, 0, 66, 76
1, 429361, Note_on_c, 0, 78, 71
1, 429364, Note_on_c, 0, 59, 49
1, 429399, Note_on_c, 0, 81, 36
1, 429431, Note_off_c, 0, 81, 35
1, 429748, Poly_aftertouch_c, 0, 75, 127
1, 429756, Control_c, 0, 64, 65
1, 429771, Control_c, 0, 64, 71
1, 429786, Control_c, 0, 64, 76
1, 429801, Control_c, 0, 64, 80
1, 429816, Control_c, 0, 64, 84
1, 429830, Control_c, 0, 64, 87
1, 429845, Control_c, 0, 64, 91
1, 429860, Control_c, 0, 64, 94
1, 429875, Control_c, 0, 64, 96
1, 429890, Control_c, 0, 64, 99
1, 429904, Control_c, 0, 64, 102
1, 429926, Control_c, 0, 64, 103
1, 429941, Control_c, 0, 64, 105
1, 429956, Control_c, 0, 64, 107
1, 429969, Note_off_c, 0, 63, 47
1, 429971, Control_c, 0, 64, 109
1, 429972, Note_off_c, 0, 66, 59
1, 429984, Note_off_c, 0, 59, 33
1, 429986, Control_c, 0, 64, 109
1, 430001, Control_c, 0, 64, 110
1, 430071, Poly_aftertouch_c, 0, 75, 0
1, 430122, Note_off_c, 0, 78, 33
1, 430147, Note_off_c, 0, 83, 26
1, 430355, Note_off_c, 0, 69, 55
1, 430369, Note_on_c, 0, 76, 48
1, 430370, Control_c, 0, 64, 108
1, 430384, Note_on_c, 0, 64, 30
1, 430385, Control_c, 0, 64, 105
1, 430394, Note_on_c, 0, 68, 34
1, 430400, Control_c, 0, 64, 99
1, 430415, Control_c, 0, 64, 91
1, 430429, Control_c, 0, 64, 81
1, 430444, Control_c, 0, 64, 70
1, 430459, Control_c, 0, 64, 53
1, 430474, Control_c, 0, 64, 0
1, 430986, Note_off_c, 0, 71, 49
1, 431023, Note_off_c, 0, 76, 58
1, 431029, Note_off_c, 0, 64, 46
1, 431041, Note_off_c, 0, 68, 48
1, 431431, Note_on_c, 0, 73, 68
1, 431449, Note_on_c, 0, 57, 41
1, 431453, Note_on_c, 0, 61, 38
1, 431497, Control_c, 0, 64, 63
1, 431497, Control_c, 0, 67, 122
1, 431512, Control_c, 0, 64, 73
1, 431512, Control_c, 0, 67, 99
1, 431527, Control_c, 0, 64, 83
1, 431527, Control_c, 0, 67, 71
1, 431542, Control_c, 0, 64, 93
1, 431542, Control_c, 0, 67, 46
1, 431557, Control_c, 0, 64, 100
1, 431557, Control_c, 0, 67, 27
1, 431567, Note_on_c, 0, 69, 52
1, 431572, Control_c, 0, 64, 108
1, 431572, Control_c, 0, 67, 15
1, 431587, Control_c, 0, 64, 115
1, 431587, Control_c, 0, 67, 0
1, 431596, Note_off_c, 0, 69, 53
1, 431601, Control_c, 0, 64, 126
1, 431606, Note_off_c, 0, 73, 61
1, 431616, Control_c, 0, 64, 127
1, 431674, Note_on_c, 0, 72, 67
1, 431689, Note_on_c, 0, 66, 46
1, 431728, Note_off_c, 0, 66, 47
1, 431746, Note_off_c, 0, 72, 61
1, 431768, Note_on_c, 0, 73, 63
1, 431774, Note_off_c, 0, 61, 30
1, 431786, Note_on_c, 0, 69, 30
1, 431825, Note_off_c, 0, 69, 51
1, 431837, Note_off_c, 0, 73, 63
1, 431846, Note_on_c, 0, 66, 50
1, 431849, Note_on_c, 0, 75, 65
1, 431878, Note_off_c, 0, 66, 56
1, 431922, Note_off_c, 0, 75, 63
1, 431932, Note_on_c, 0, 69, 48
1, 431934, Note_on_c, 0, 73, 72
1, 431992, Note_off_c, 0, 73, 63
1, 432045, Note_off_c, 0, 69, 28
1, 432052, Note_on_c, 0, 81, 83
1, 432067, Note_on_c, 0, 61, 52
1, 432075, Control_c, 0, 64, 99
1, 432090, Control_c, 0, 64, 78
1, 432105, Control_c, 0, 64, 39
1, 432119, Control_c, 0, 64, 0
1, 432172, Note_on_c, 0, 69, 51
1, 432172, Control_c, 0, 64, 52
1, 432187, Control_c, 0, 64, 72
1, 432202, Control_c, 0, 64, 84
1, 432216, Control_c, 0, 64, 98
1, 432222, Note_off_c, 0, 69, 50
1, 432231, Control_c, 0, 64, 108
1, 432238, Note_off_c, 0, 61, 0
1, 432246, Control_c, 0, 64, 116
1, 432261, Control_c, 0, 64, 122
1, 432275, Poly_aftertouch_c, 0, 61, 127
1, 432276, Control_c, 0, 64, 127
1, 432290, Note_on_c, 0, 66, 49
1, 432314, Note_off_c, 0, 81, 54
1, 432329, Note_off_c, 0, 66, 62
1, 432357, Poly_aftertouch_c, 0, 61, 0
1, 432364, Note_on_c, 0, 69, 42
1, 432397, Note_off_c, 0, 69, 49
1, 432458, Note_on_c, 0, 66, 52
1, 432460, Note_on_c, 0, 80, 74
1, 432499, Note_off_c, 0, 66, 50
1, 432502, Note_off_c, 0, 80, 59
1, 432529, Note_on_c, 0, 69, 54
1, 432541, Note_on_c, 0, 78, 77
1, 432649, Note_off_c, 0, 78, 52
1, 432672, Note_off_c, 0, 69, 35
1, 432705, Note_on_c, 0, 61, 49
1, 432708, Note_on_c, 0, 92, 82
1, 432720, Control_c, 0, 64, 113
1, 432735, Control_c, 0, 64, 91
1, 432749, Control_c, 0, 64, 71
1, 432764, Control_c, 0, 64, 0
1, 432800, Note_on_c, 0, 69, 50
1, 432809, Control_c, 0, 64, 62
1, 432824, Control_c, 0, 64, 73
1, 432839, Control_c, 0, 64, 85
1, 432844, Note_off_c, 0, 69, 55
1, 432853, Control_c, 0, 64, 99
1, 432868, Control_c, 0, 64, 109
1, 432883, Control_c, 0, 64, 117
1, 432885, Note_off_c, 0, 92, 59
1, 432898, Control_c, 0, 64, 122
1, 432901, Note_on_c, 0, 90, 79
1, 432920, Control_c, 0, 64, 127
1, 432937, Note_on_c, 0, 66, 46
1, 432976, Note_off_c, 0, 66, 48
1, 432995, Note_on_c, 0, 88, 75
1, 433008, Note_on_c, 0, 69, 51
1, 433011, Note_off_c, 0, 90, 59
1, 433056, Note_off_c, 0, 69, 45
1, 433083, Note_on_c, 0, 66, 61
1, 433089, Note_off_c, 0, 88, 63
1, 433092, Note_on_c, 0, 87, 75
1, 433146, Note_off_c, 0, 57, 38
1, 433147, Note_off_c, 0, 87, 62
1, 433152, Note_off_c, 0, 61, 38
1, 433155, Note_off_c, 0, 66, 61
1, 433163, Note_on_c, 0, 85, 70
1, 433166, Note_on_c, 0, 69, 59
1, 433189, Note_off_c, 0, 85, 66
1, 433246, Note_off_c, 0, 69, 57
1, 433289, Note_on_c, 0, 85, 70
1, 433307, Note_on_c, 0, 59, 45
1, 433307, Note_on_c, 0, 63, 40
1, 433307, Control_c, 0, 64, 120
1, 433321, Control_c, 0, 64, 95
1, 433336, Control_c, 0, 64, 75
1, 433351, Control_c, 0, 64, 31
1, 433366, Control_c, 0, 64, 0
1, 433377, Note_on_c, 0, 69, 57
1, 433396, Control_c, 0, 64, 63
1, 433411, Control_c, 0, 64, 74
1, 433426, Control_c, 0, 64, 85
1, 433440, Control_c, 0, 64, 99
1, 433450, Note_off_c, 0, 69, 56
1, 433455, Control_c, 0, 64, 109
1, 433458, Note_off_c, 0, 63, 0
1, 433470, Control_c, 0, 64, 114
1, 433485, Control_c, 0, 64, 117
1, 433494, Poly_aftertouch_c, 0, 63, 127
1, 433499, Control_c, 0, 64, 121
1, 433513, Note_on_c, 0, 66, 46
1, 433514, Control_c, 0, 64, 126
1, 433529, Control_c, 0, 64, 127
1, 433565, Note_off_c, 0, 66, 61
1, 433578, Poly_aftertouch_c, 0, 63, 0
1, 433582, Note_on_c, 0, 69, 50
1, 433641, Note_off_c, 0, 69, 55
1, 433683, Note_on_c, 0, 83, 69
1, 433693, Note_off_c, 0, 85, 61
1, 433699, Note_on_c, 0, 66, 46
1, 433761, Note_off_c, 0, 83, 58
1, 433762, Note_off_c, 0, 59, 41
1, 433771, Note_on_c, 0, 69, 48
1, 433787, Note_off_c, 0, 66, 52
1, 433827, Note_off_c, 0, 69, 61
1, 433863, Control_c, 0, 64, 111
1, 433870, Note_on_c, 0, 59, 54
1, 433877, Control_c, 0, 64, 86
1, 433878, Note_on_c, 0, 83, 76
1, 433892, Control_c, 0, 64, 66
1, 433907, Control_c, 0, 64, 0
1, 433936, Control_c, 0, 64, 16
1, 433951, Control_c, 0, 64, 66
1, 433966, Control_c, 0, 64, 77
1, 433981, Control_c, 0, 64, 89
1, 433986, Note_on_c, 0, 68, 52
1, 433995, Control_c, 0, 64, 100
1, 434010, Control_c, 0, 64, 107
1, 434025, Control_c, 0, 64, 112
1, 434035, Note_off_c, 0, 68, 52
1, 434040, Control_c, 0, 64, 117
1, 434055, Control_c, 0, 64, 125
1, 434068, Note_on_c, 0, 81, 76
1, 434070, Control_c, 0, 64, 127
1, 434076, Note_off_c, 0, 83, 51
1, 434100, Note_on_c, 0, 64, 41
1, 434132, Note_off_c, 0, 64, 58
1, 434153, Note_on_c, 0, 80, 76
1, 434155, Note_off_c, 0, 81, 59
1, 434159, Note_on_c, 0, 68, 50
1, 434197, Note_off_c, 0, 68, 47
1, 434236, Note_on_c, 0, 78, 76
1, 434246, Note_on_c, 0, 64, 48
1, 434252, Note_off_c, 0, 80, 63
1, 434294, Note_off_c, 0, 78, 62
1, 434300, Note_off_c, 0, 59, 41
1, 434311, Note_off_c, 0, 64, 50
1, 434314, Note_on_c, 0, 76, 70
1, 434315, Note_on_c, 0, 68, 47
1, 434362, Note_off_c, 0, 68, 59
1, 434365, Note_off_c, 0, 76, 66
1, 434436, Note_on_c, 0, 76, 68
1, 434438, Note_on_c, 0, 59, 47
1, 434477, Control_c, 0, 64, 99
1, 434492, Control_c, 0, 64, 79
1, 434507, Control_c, 0, 64, 53
1, 434521, Control_c, 0, 64, 0
1, 434544, Note_on_c, 0, 69, 48
1, 434567, Control_c, 0, 64, 65
1, 434574, Note_off_c, 0, 69, 52
1, 434582, Control_c, 0, 64, 76
1, 434597, Control_c, 0, 64, 88
1, 434612, Control_c, 0, 64, 101
1, 434626, Control_c, 0, 64, 108
1, 434641, Control_c, 0, 64, 112
1, 434651, Note_on_c, 0, 66, 46
1, 434656, Control_c, 0, 64, 115
1, 434671, Control_c, 0, 64, 119
1, 434683, Note_off_c, 0, 66, 55
1, 434686, Control_c, 0, 64, 124
1, 434700, Control_c, 0, 64, 127
1, 434740, Note_on_c, 0, 69, 41
1, 434753, Note_off_c, 0, 76, 64
1, 434759, Note_on_c, 0, 75, 67
1, 434771, Note_off_c, 0, 69, 53
1, 434788, Note_off_c, 0, 75, 67
1, 434796, Note_on_c, 0, 66, 55
1, 434857, Note_off_c, 0, 66, 54
1, 434865, Note_on_c, 0, 69, 55
1, 434873, Note_off_c, 0, 59, 39
1, 434935, Note_off_c, 0, 69, 60
1, 434977, Note_on_c, 0, 59, 58
1, 434985, Note_on_c, 0, 85, 68
1, 435011, Control_c, 0, 64, 109
1, 435026, Control_c, 0, 64, 88
1, 435041, Control_c, 0, 64, 69
1, 435056, Control_c, 0, 64, 10
1, 435071, Control_c, 0, 64, 38
1, 435085, Control_c, 0, 64, 63
1, 435089, Note_on_c, 0, 68, 52
1, 435097, Note_off_c, 0, 85, 64
1, 435100, Control_c, 0, 64, 72
1, 435102, Note_on_c, 0, 83, 69
1, 435115, Control_c, 0, 64, 85
1, 435130, Control_c, 0, 64, 99
1, 435136, Note_off_c, 0, 68, 48
1, 435144, Control_c, 0, 64, 110
1, 435167, Control_c, 0, 64, 117
1, 435182, Control_c, 0, 64, 121
1, 435182, Note_on_c, 0, 81, 78
1, 435190, Note_off_c, 0, 83, 57
1, 435192, Note_on_c, 0, 64, 48
1, 435196, Control_c, 0, 64, 127
1, 435232, Note_off_c, 0, 64, 61
1, 435256, Note_on_c, 0, 80, 76
1, 435258, Note_off_c, 0, 81, 60
1, 435259, Note_on_c, 0, 68, 54
1, 435316, Note_off_c, 0, 68, 56
1, 435322, Note_off_c, 0, 80, 64
1, 435346, Note_on_c, 0, 78, 74
1, 435352, Note_on_c, 0, 64, 45
1, 435372, Note_off_c, 0, 78, 65
1, 435396, Note_off_c, 0, 64, 59
1, 435405, Note_off_c, 0, 59, 39
1, 435425, Note_on_c, 0, 76, 80
1, 435432, Note_on_c, 0, 68, 44
1, 435463, Note_off_c, 0, 68, 51
1, 435554, Note_on_c, 0, 59, 45
1, 435560, Note_on_c, 0, 77, 77
1, 435566, Note_off_c, 0, 76, 60
1, 435567, Control_c, 0, 64, 114
1, 435582, Control_c, 0, 64, 91
1, 435597, Control_c, 0, 64, 66
1, 435612, Control_c, 0, 64, 0
1, 435653, Note_on_c, 0, 69, 45
1, 435671, Control_c, 0, 64, 60
1, 435686, Control_c, 0, 64, 74
1, 435692, Note_off_c, 0, 69, 55
1, 435701, Control_c, 0, 64, 84
1, 435715, Control_c, 0, 64, 94
1, 435730, Control_c, 0, 64, 100
1, 435744, Note_on_c, 0, 63, 53
1, 435745, Control_c, 0, 64, 104
1, 435760, Control_c, 0, 64, 108
1, 435775, Control_c, 0, 64, 111
1, 435781, Note_off_c, 0, 63, 64
1, 435790, Control_c, 0, 64, 113
1, 435805, Control_c, 0, 64, 114
1, 435819, Control_c, 0, 64, 114
1, 435828, Note_on_c, 0, 69, 46
1, 435858, Note_off_c, 0, 69, 55
1, 435893, Note_on_c, 0, 63, 50
1, 435924, Note_on_c, 0, 78, 66
1, 435930, Note_off_c, 0, 77, 58
1, 435940, Note_off_c, 0, 63, 60
1, 435944, Note_off_c, 0, 59, 39
1, 435960, Note_on_c, 0, 69, 60
1, 435960, Control_c, 0, 64, 113
1, 435974, Control_c, 0, 64, 104
1, 435977, Note_off_c, 0, 78, 62
1, 435989, Control_c, 0, 64, 92
1, 435993, Note_off_c, 0, 69, 66
1, 436004, Control_c, 0, 64, 79
1, 436019, Control_c, 0, 64, 61
1, 436034, Control_c, 0, 64, 0
1, 436041, Note_on_c, 0, 59, 70
1, 436100, Note_on_c, 0, 64, 61
1, 436104, Note_off_c, 0, 59, 62
1, 436147, Note_on_c, 0, 68, 77
1, 436158, Note_off_c, 0, 64, 63
1, 436169, Control_c, 0, 64, 57
1, 436179, Note_on_c, 0, 80, 87
1, 436184, Control_c, 0, 64, 74
1, 436186, Note_on_c, 0, 76, 82
1, 436193, Note_on_c, 0, 71, 76
1, 436195, Note_off_c, 0, 68, 61
1, 436198, Control_c, 0, 64, 90
1, 436213, Control_c, 0, 64, 116
1, 436219, Note_off_c, 0, 71, 65
1, 436228, Control_c, 0, 64, 127
1, 436451, Note_on_c, 0, 69, 68
1, 436478, Note_off_c, 0, 69, 70
1, 436532, Note_on_c, 0, 68, 71
1, 436577, Note_off_c, 0, 68, 58
1, 436609, Note_on_c, 0, 66, 73
1, 436636, Note_off_c, 0, 66, 69
1, 436705, Note_on_c, 0, 64, 73
1, 436734, Note_off_c, 0, 64, 63
1, 436779, Note_on_c, 0, 63, 80
1, 436839, Note_off_c, 0, 63, 56
1, 436860, Note_on_c, 0, 61, 75
1, 436884, Note_off_c, 0, 61, 67
1, 436942, Note_on_c, 0, 59, 78
1, 436982, Note_off_c, 0, 59, 63
1, 437030, Note_on_c, 0, 57, 80
1, 437096, Note_off_c, 0, 57, 60
1, 437098, Note_on_c, 0, 56, 73
1, 437140, Note_off_c, 0, 76, 62
1, 437155, Note_off_c, 0, 80, 61
1, 437169, Note_off_c, 0, 56, 62
1, 437185, Control_c, 0, 64, 126
1, 437200, Control_c, 0, 64, 92
1, 437214, Note_on_c, 0, 83, 89
1, 437214, Control_c, 0, 64, 62
1, 437215, Note_on_c, 0, 80, 81
1, 437223, Note_on_c, 0, 76, 88
1, 437229, Control_c, 0, 64, 0
1, 437235, Poly_aftertouch_c, 0, 54, 0
1, 437274, Control_c, 0, 64, 67
1, 437278, Note_on_c, 0, 52, 74
1, 437288, Control_c, 0, 64, 80
1, 437303, Control_c, 0, 64, 96
1, 437318, Control_c, 0, 64, 118
1, 437332, Control_c, 0, 64, 127
1, 437340, Note_off_c, 0, 52, 42
1, 437355, Note_on_c, 0, 51, 75
1, 437373, Note_off_c, 0, 76, 58
1, 437411, Note_off_c, 0, 83, 56
1, 437413, Note_off_c, 0, 80, 63
1, 437435, Note_off_c, 0, 51, 61
1, 437435, Note_on_c, 0, 49, 78
1, 437463, Note_off_c, 0, 49, 66
1, 437527, Note_on_c, 0, 47, 84
1, 437601, Note_off_c, 0, 47, 63
1, 437602, Note_on_c, 0, 45, 80
1, 437669, Note_off_c, 0, 45, 62
1, 437674, Note_on_c, 0, 44, 68
1, 437724, Control_c, 0, 64, 121
1, 437725, Note_on_c, 0, 80, 90
1, 437725, Note_on_c, 0, 88, 100
1, 437727, Note_on_c, 0, 76, 95
1, 437740, Control_c, 0, 64, 92
1, 437748, Note_on_c, 0, 42, 70
1, 437753, Note_off_c, 0, 44, 64
1, 437754, Control_c, 0, 64, 69
1, 437769, Control_c, 0, 64, 0
1, 437786, Note_off_c, 0, 42, 66
1, 437814, Control_c, 0, 64, 66
1, 437829, Control_c, 0, 64, 77
1, 437843, Control_c, 0, 64, 89
1, 437848, Note_on_c, 0, 40, 71
1, 437858, Control_c, 0, 64, 103
1, 437873, Control_c, 0, 64, 115
1, 437888, Control_c, 0, 64, 127
1, 437917, Note_off_c, 0, 40, 57
1, 437927, Note_on_c, 0, 39, 72
1, 437954, Note_off_c, 0, 80, 61
1, 438007, Note_on_c, 0, 37, 73
1, 438008, Note_off_c, 0, 39, 61
1, 438039, Note_off_c, 0, 37, 65
1, 438050, Note_off_c, 0, 88, 30
1, 438091, Note_off_c, 0, 76, 29
1, 438103, Note_on_c, 0, 35, 78
1, 438151, Note_off_c, 0, 35, 58
1, 438257, Note_on_c, 0, 85, 95
1, 438258, Note_on_c, 0, 76, 91
1, 438259, Note_on_c, 0, 34, 67
1, 438261, Note_on_c, 0, 78, 88
1, 438281, Control_c, 0, 64, 98
1, 438295, Control_c, 0, 64, 74
1, 438310, Control_c, 0, 64, 0
1, 438369, Control_c, 0, 64, 59
1, 438384, Control_c, 0, 64, 73
1, 438399, Control_c, 0, 64, 87
1, 438414, Control_c, 0, 64, 104
1, 438429, Control_c, 0, 64, 120
1, 438443, Control_c, 0, 64, 127
1, 438514, Note_off_c, 0, 76, 59
1, 438536, Note_off_c, 0, 34, 60
1, 438577, Note_off_c, 0, 78, 58
1, 438582, Note_off_c, 0, 85, 54
1, 438815, Note_on_c, 0, 33, 70
1, 438834, Note_on_c, 0, 84, 88
1, 438835, Note_on_c, 0, 75, 86
1, 438839, Note_on_c, 0, 78, 85
1, 438866, Note_off_c, 0, 33, 64
1, 438874, Control_c, 0, 64, 110
1, 438875, Note_on_c, 0, 35, 69
1, 438889, Control_c, 0, 64, 85
1, 438911, Control_c, 0, 64, 63
1, 438926, Control_c, 0, 64, 0
1, 438941, Note_off_c, 0, 35, 64
1, 438952, Note_on_c, 0, 33, 63
1, 438955, Control_c, 0, 64, 47
1, 438970, Control_c, 0, 64, 70
1, 438985, Control_c, 0, 64, 81
1, 438993, Note_off_c, 0, 33, 67
1, 438998, Note_on_c, 0, 35, 61
1, 439000, Control_c, 0, 64, 94
1, 439015, Control_c, 0, 64, 107
1, 439030, Control_c, 0, 64, 119
1, 439045, Control_c, 0, 64, 127
1, 439049, Note_off_c, 0, 35, 64
1, 439061, Note_on_c, 0, 33, 59
1, 439097, Note_off_c, 0, 33, 63
1, 439101, Note_on_c, 0, 35, 57
1, 439157, Note_off_c, 0, 35, 62
1, 439170, Note_on_c, 0, 33, 68
1, 439245, Note_off_c, 0, 33, 64
1, 439253, Note_on_c, 0, 32, 63
1, 439273, Note_off_c, 0, 78, 55
1, 439287, Note_off_c, 0, 84, 58
1, 439295, Note_off_c, 0, 75, 61
1, 439312, Note_off_c, 0, 32, 63
1, 439328, Note_on_c, 0, 33, 59
1, 439545, Note_on_c, 0, 83, 63
1, 439546, Note_on_c, 0, 32, 40
1, 439555, Note_on_c, 0, 71, 57
1, 439561, Note_on_c, 0, 76, 52
1, 439566, Note_off_c, 0, 33, 34
1, 439593, Control_c, 0, 64, 118
1, 439593, Control_c, 0, 67, 8
1, 439608, Control_c, 0, 64, 94
1, 439608, Control_c, 0, 67, 16
1, 439623, Control_c, 0, 64, 75
1, 439623, Control_c, 0, 67, 37
1, 439638, Control_c, 0, 64, 0
1, 439638, Control_c, 0, 67, 71
1, 439660, Control_c, 0, 67, 110
1, 439675, Control_c, 0, 67, 127
1, 439763, Control_c, 0, 64, 40
1, 439778, Control_c, 0, 64, 70
1, 439793, Control_c, 0, 64, 83
1, 439808, Control_c, 0, 64, 101
1, 439823, Control_c, 0, 64, 114
1, 439838, Control_c, 0, 64, 124
1, 439847, Note_off_c, 0, 71, 45
1, 439853, Control_c, 0, 64, 127
1, 439959, Note_off_c, 0, 32, 40
1, 440121, Note_off_c, 0, 76, 37
1, 440172, Note_on_c, 0, 33, 52
1, 440180, Control_c, 0, 64, 110
1, 440181, Note_on_c, 0, 73, 60
1, 440195, Control_c, 0, 64, 98
1, 440210, Control_c, 0, 64, 88
1, 440225, Control_c, 0, 64, 79
1, 440239, Control_c, 0, 64, 70
1, 440254, Control_c, 0, 64, 63
1, 440255, Note_off_c, 0, 73, 59
1, 440269, Control_c, 0, 64, 52
1, 440271, Note_off_c, 0, 83, 36
1, 440284, Control_c, 0, 64, 50
1, 440299, Control_c, 0, 64, 49
1, 440313, Control_c, 0, 64, 45
1, 440328, Control_c, 0, 64, 39
1, 440343, Control_c, 0, 64, 34
1, 440352, Note_on_c, 0, 81, 59
1, 440367, Note_off_c, 0, 33, 64
1, 440379, Note_off_c, 0, 81, 61
1, 440410, Control_c, 0, 64, 35
1, 440425, Control_c, 0, 64, 37
1, 440439, Note_on_c, 0, 80, 67
1, 440439, Control_c, 0, 64, 39
1, 440454, Control_c, 0, 64, 39
1, 440469, Control_c, 0, 64, 40
1, 440483, Control_c, 0, 64, 41
1, 440485, Note_off_c, 0, 80, 48
1, 440533, Note_on_c, 0, 78, 60
1, 440554, Note_off_c, 0, 78, 61
1, 440603, Note_on_c, 0, 76, 61
1, 440617, Control_c, 0, 64, 39
1, 440630, Note_off_c, 0, 76, 70
1, 440631, Control_c, 0, 64, 38
1, 440646, Control_c, 0, 64, 37
1, 440661, Control_c, 0, 64, 36
1, 440683, Note_on_c, 0, 57, 57
1, 440688, Note_on_c, 0, 54, 48
1, 440689, Note_on_c, 0, 75, 62
1, 440690, Note_on_c, 0, 47, 56
1, 440723, Note_off_c, 0, 57, 57
1, 440725, Note_off_c, 0, 54, 60
1, 440731, Note_off_c, 0, 47, 61
1, 440750, Control_c, 0, 64, 34
1, 440751, Note_off_c, 0, 75, 60
1, 440763, Note_on_c, 0, 73, 62
1, 440765, Control_c, 0, 64, 31
1, 440780, Control_c, 0, 64, 29
1, 440795, Control_c, 0, 64, 27
1, 440798, Note_off_c, 0, 73, 60
1, 440809, Control_c, 0, 64, 24
1, 440824, Control_c, 0, 64, 20
1, 440839, Control_c, 0, 64, 16
1, 440853, Note_on_c, 0, 71, 59
1, 440854, Control_c, 0, 64, 0
1, 440869, Note_on_c, 0, 54, 46
1, 440869, Note_on_c, 0, 57, 50
1, 440870, Note_on_c, 0, 47, 46
1, 440872, Note_off_c, 0, 71, 63
1, 440893, Note_off_c, 0, 57, 53
1, 440896, Note_off_c, 0, 54, 55
1, 440905, Note_off_c, 0, 47, 56
1, 440924, Note_on_c, 0, 69, 62
1, 440956, Note_off_c, 0, 69, 68
1, 441018, Note_on_c, 0, 54, 48
1, 441024, Note_on_c, 0, 47, 43
1, 441025, Note_on_c, 0, 57, 44
1, 441025, Note_on_c, 0, 68, 61
1, 441053, Note_off_c, 0, 57, 55
1, 441059, Note_off_c, 0, 54, 60
1, 441068, Note_off_c, 0, 47, 60
1, 441083, Note_off_c, 0, 68, 57
1, 441099, Note_on_c, 0, 66, 68
1, 441129, Note_off_c, 0, 66, 67
1, 441187, Note_on_c, 0, 57, 51
1, 441187, Note_on_c, 0, 64, 65
1, 441192, Note_on_c, 0, 47, 48
1, 441194, Note_on_c, 0, 54, 50
1, 441217, Note_off_c, 0, 57, 59
1, 441221, Note_off_c, 0, 64, 67
1, 441224, Note_off_c, 0, 54, 57
1, 441238, Note_off_c, 0, 47, 60
1, 441274, Note_on_c, 0, 63, 64
1, 441328, Note_off_c, 0, 63, 56
1, 441353, Note_on_c, 0, 61, 65
1, 441358, Note_on_c, 0, 57, 51
1, 441364, Note_on_c, 0, 54, 44
1, 441369, Note_on_c, 0, 47, 48
1, 441385, Note_off_c, 0, 61, 66
1, 441395, Control_c, 0, 64, 26
1, 441406, Note_off_c, 0, 57, 55
1, 441409, Note_off_c, 0, 54, 58
1, 441410, Control_c, 0, 64, 68
1, 441416, Note_on_c, 0, 59, 63
1, 441421, Note_off_c, 0, 47, 58
1, 441425, Control_c, 0, 64, 81
1, 441440, Control_c, 0, 64, 92
1, 441444, Note_off_c, 0, 59, 65
1, 441454, Control_c, 0, 64, 101
1, 441469, Control_c, 0, 64, 107
1, 441484, Control_c, 0, 64, 111
1, 441499, Control_c, 0, 64, 115
1, 441513, Control_c, 0, 64, 119
1, 441525, Note_on_c, 0, 73, 60
1, 441528, Control_c, 0, 64, 125
1, 441543, Control_c, 0, 64, 127
1, 441549, Note_on_c, 0, 47, 46
1, 441552, Note_on_c, 0, 54, 46
1, 441585, Note_off_c, 0, 73, 62
1, 441595, Note_off_c, 0, 47, 57
1, 441600, Note_off_c, 0, 54, 55
1, 441602, Note_on_c, 0, 71, 64
1, 441632, Note_off_c, 0, 71, 63
1, 441757, Note_on_c, 0, 69, 71
1, 441776, Note_on_c, 0, 54, 39
1, 441778, Note_on_c, 0, 59, 43
1, 441796, Note_on_c, 0, 47, 35
1, 441826, Control_c, 0, 64, 119
1, 441841, Control_c, 0, 64, 106
1, 441841, Note_off_c, 0, 59, 0
1, 441856, Control_c, 0, 64, 90
1, 441861, Note_on_c, 0, 59, 14
1, 441871, Control_c, 0, 64, 72
1, 441885, Control_c, 0, 64, 0
1, 441981, Control_c, 0, 64, 52
1, 441996, Control_c, 0, 64, 71
1, 442011, Control_c, 0, 64, 85
1, 442026, Control_c, 0, 64, 98
1, 442041, Control_c, 0, 64, 107
1, 442056, Control_c, 0, 64, 115
1, 442070, Control_c, 0, 64, 120
1, 442083, Control_c, 0, 64, 127
1, 442127, Note_off_c, 0, 54, 47
1, 442392, Note_off_c, 0, 47, 38
1, 442424, Note_off_c, 0, 69, 58
1, 442424, Control_c, 0, 64, 112
1, 442439, Control_c, 0, 64, 96
1, 442446, Note_on_c, 0, 68, 45
1, 442449, Note_on_c, 0, 64, 41
1, 442453, Control_c, 0, 64, 79
1, 442458, Note_on_c, 0, 52, 36
1, 442459, Note_on_c, 0, 56, 38
1, 442468, Control_c, 0, 64, 51
1, 442483, Control_c, 0, 64, 0
1, 442603, Control_c, 0, 67, 118
1, 442618, Control_c, 0, 67, 97
1, 442632, Control_c, 0, 67, 69
1, 442655, Control_c, 0, 67, 39
1, 442670, Control_c, 0, 67, 14
1, 442679, Note_off_c, 0, 59, 33
1, 442684, Control_c, 0, 67, 0
1, 442740, Note_off_c, 0, 56, 58
1, 442780, Note_off_c, 0, 52, 58
1, 442792, Note_off_c, 0, 64, 42
1, 442842, Note_off_c, 0, 68, 54
1, 443065, Note_on_c, 0, 45, 62
1, 443099, Control_c, 0, 64, 62
1, 443114, Control_c, 0, 64, 73
1, 443129, Control_c, 0, 64, 84
1, 443144, Control_c, 0, 64, 96
1, 443158, Control_c, 0, 64, 106
1, 443173, Control_c, 0, 64, 113
1, 443188, Control_c, 0, 64, 117
1, 443203, Control_c, 0, 64, 124
1, 443218, Control_c, 0, 64, 127
1, 443252, Note_on_c, 0, 48, 60
1, 443266, Note_on_c, 0, 61, 57
1, 443269, Note_on_c, 0, 69, 59
1, 443274, Note_on_c, 0, 66, 53
1, 443310, Note_off_c, 0, 61, 55
1, 443315, Note_off_c, 0, 66, 62
1, 443332, Note_off_c, 0, 69, 58
1, 443345, Note_on_c, 0, 49, 65
1, 443418, Note_off_c, 0, 48, 58
1, 443435, Note_off_c, 0, 49, 61
1, 443436, Note_on_c, 0, 51, 71
1, 443448, Note_on_c, 0, 61, 58
1, 443453, Note_on_c, 0, 69, 62
1, 443454, Note_on_c, 0, 66, 52
1, 443473, Note_off_c, 0, 45, 62
1, 443525, Note_on_c, 0, 49, 66
1, 443528, Note_off_c, 0, 66, 48
1, 443539, Note_off_c, 0, 61, 57
1, 443553, Note_off_c, 0, 69, 54
1, 443569, Note_off_c, 0, 51, 55
1, 443647, Note_off_c, 0, 49, 59
1, 443661, Note_on_c, 0, 57, 70
1, 443662, Note_on_c, 0, 45, 63
1, 443686, Control_c, 0, 64, 120
1, 443700, Control_c, 0, 64, 93
1, 443715, Control_c, 0, 64, 72
1, 443730, Control_c, 0, 64, 0
1, 443789, Control_c, 0, 64, 66
1, 443804, Control_c, 0, 64, 77
1, 443805, Note_off_c, 0, 45, 60
1, 443819, Control_c, 0, 64, 92
1, 443834, Control_c, 0, 64, 106
1, 443848, Control_c, 0, 64, 117
1, 443858, Note_on_c, 0, 61, 51
1, 443863, Control_c, 0, 64, 127
1, 443864, Note_on_c, 0, 69, 48
1, 443866, Note_on_c, 0, 66, 44
1, 443878, Control_c, 0, 64, 127
1, 443895, Note_off_c, 0, 57, 59
1, 443901, Note_off_c, 0, 61, 58
1, 443910, Note_off_c, 0, 66, 46
1, 443913, Note_off_c, 0, 69, 61
1, 444018, Note_on_c, 0, 56, 64
1, 444029, Note_on_c, 0, 69, 61
1, 444032, Note_on_c, 0, 66, 55
1, 444038, Note_on_c, 0, 61, 54
1, 444080, Note_off_c, 0, 56, 62
1, 444094, Note_on_c, 0, 54, 58
1, 444097, Note_off_c, 0, 61, 50
1, 444110, Note_off_c, 0, 69, 59
1, 444116, Note_off_c, 0, 66, 48
1, 444118, Note_off_c, 0, 54, 62
1, 444282, Note_on_c, 0, 61, 74
1, 444297, Note_on_c, 0, 45, 58
1, 444316, Control_c, 0, 64, 100
1, 444330, Control_c, 0, 64, 79
1, 444345, Control_c, 0, 64, 52
1, 444360, Control_c, 0, 64, 0
1, 444390, Control_c, 0, 64, 38
1, 444404, Control_c, 0, 64, 69
1, 444411, Note_off_c, 0, 45, 64
1, 444419, Control_c, 0, 64, 81
1, 444434, Control_c, 0, 64, 95
1, 444448, Control_c, 0, 64, 106
1, 444463, Control_c, 0, 64, 113
1, 444478, Control_c, 0, 64, 116
1, 444493, Control_c, 0, 64, 120
1, 444503, Note_on_c, 0, 59, 64
1, 444508, Control_c, 0, 64, 126
1, 444512, Note_on_c, 0, 66, 55
1, 444522, Note_on_c, 0, 69, 48
1, 444523, Control_c, 0, 64, 127
1, 444556, Note_off_c, 0, 66, 61
1, 444556, Note_off_c, 0, 69, 57
1, 444578, Note_off_c, 0, 59, 62
1, 444589, Note_on_c, 0, 57, 64
1, 444659, Note_off_c, 0, 57, 60
1, 444663, Note_on_c, 0, 56, 63
1, 444663, Note_on_c, 0, 69, 56
1, 444682, Note_on_c, 0, 66, 53
1, 444717, Note_off_c, 0, 61, 55
1, 444723, Note_on_c, 0, 54, 64
1, 444723, Note_off_c, 0, 56, 64
1, 444726, Note_off_c, 0, 66, 59
1, 444741, Note_off_c, 0, 69, 57
1, 444762, Note_off_c, 0, 54, 63
1, 444860, Note_on_c, 0, 52, 66
1, 444869, Note_on_c, 0, 47, 61
1, 444900, Control_c, 0, 64, 115
1, 444915, Control_c, 0, 64, 95
1, 444931, Control_c, 0, 64, 76
1, 444946, Control_c, 0, 64, 0
1, 445034, Control_c, 0, 64, 60
1, 445049, Control_c, 0, 64, 72
1, 445064, Control_c, 0, 64, 82
1, 445078, Control_c, 0, 64, 89
1, 445084, Note_on_c, 0, 69, 54
1, 445090, Note_on_c, 0, 59, 40
1, 445093, Control_c, 0, 64, 91
1, 445102, Note_on_c, 0, 66, 34
1, 445108, Control_c, 0, 64, 92
1, 445122, Note_off_c, 0, 59, 51
1, 445129, Note_off_c, 0, 69, 61
1, 445138, Note_off_c, 0, 66, 52
1, 445153, Control_c, 0, 64, 91
1, 445168, Control_c, 0, 64, 90
1, 445182, Control_c, 0, 64, 89
1, 445197, Control_c, 0, 64, 85
1, 445212, Note_off_c, 0, 52, 53
1, 445212, Control_c, 0, 64, 81
1, 445227, Control_c, 0, 64, 75
1, 445242, Control_c, 0, 64, 67
1, 445244, Note_on_c, 0, 69, 61
1, 445245, Note_on_c, 0, 66, 58
1, 445246, Note_on_c, 0, 51, 63
1, 445251, Note_on_c, 0, 59, 49
1, 445257, Control_c, 0, 64, 32
1, 445265, Note_off_c, 0, 47, 37
1, 445271, Control_c, 0, 64, 0
1, 445273, Note_off_c, 0, 69, 69
1, 445274, Note_off_c, 0, 59, 57
1, 445278, Note_off_c, 0, 66, 67
1, 445281, Note_off_c, 0, 51, 60
1, 445449, Control_c, 0, 64, 37
1, 445457, Note_on_c, 0, 71, 78
1, 445461, Note_on_c, 0, 47, 75
1, 445461, Note_on_c, 0, 56, 76
1, 445463, Note_on_c, 0, 59, 78
1, 445464, Control_c, 0, 64, 68
1, 445466, Note_on_c, 0, 64, 67
1, 445478, Control_c, 0, 64, 82
1, 445493, Control_c, 0, 64, 101
1, 445500, Note_off_c, 0, 47, 63
1, 445501, Note_off_c, 0, 56, 58
1, 445508, Control_c, 0, 64, 125
1, 445513, Note_off_c, 0, 64, 61
1, 445514, Note_off_c, 0, 71, 59
1, 445523, Control_c, 0, 64, 127
1, 445529, Note_off_c, 0, 59, 59
1, 445702, Note_on_c, 0, 58, 77
1, 445706, Note_on_c, 0, 55, 70
1, 445727, Note_off_c, 0, 58, 69
1, 445734, Note_off_c, 0, 55, 66
1, 445783, Note_on_c, 0, 56, 69
1, 445797, Note_on_c, 0, 59, 67
1, 445798, Control_c, 0, 64, 111
1, 445813, Control_c, 0, 64, 97
1, 445813, Control_c, 0, 67, 11
1, 445818, Note_off_c, 0, 56, 63
1, 445820, Note_off_c, 0, 59, 68
1, 445829, Control_c, 0, 64, 82
1, 445829, Control_c, 0, 67, 15
1, 445844, Control_c, 0, 64, 69
1, 445844, Control_c, 0, 67, 26
1, 445858, Control_c, 0, 64, 39
1, 445858, Control_c, 0, 67, 43
1, 445868, Note_on_c, 0, 57, 70
1, 445873, Control_c, 0, 64, 0
1, 445873, Control_c, 0, 67, 62
1, 445874, Note_on_c, 0, 61, 73
1, 445888, Control_c, 0, 67, 80
1, 445897, Note_off_c, 0, 57, 63
1, 445899, Note_off_c, 0, 61, 65
1, 445903, Control_c, 0, 67, 95
1, 445918, Control_c, 0, 67, 109
1, 445933, Control_c, 0, 67, 121
1, 445946, Note_on_c, 0, 59, 70
1, 445948, Control_c, 0, 67, 127
1, 445953, Note_on_c, 0, 63, 65
1, 445970, Note_off_c, 0, 63, 67
1, 445975, Note_off_c, 0, 59, 64
1, 446039, Note_on_c, 0, 64, 64
1, 446065, Note_off_c, 0, 64, 65
1, 446077, Note_on_c, 0, 62, 20
1, 446102, Note_off_c, 0, 62, 35
1, 446122, Note_on_c, 0, 63, 53
1, 446130, Note_on_c, 0, 66, 63
1, 446150, Note_off_c, 0, 66, 64
1, 446152, Note_off_c, 0, 63, 51
1, 446185, Note_on_c, 0, 68, 66
1, 446186, Note_on_c, 0, 64, 62
1, 446216, Note_off_c, 0, 68, 65
1, 446217, Note_off_c, 0, 64, 64
1, 446279, Note_on_c, 0, 66, 69
1, 446280, Note_on_c, 0, 69, 43
1, 446306, Note_off_c, 0, 69, 49
1, 446336, Note_off_c, 0, 66, 65
1, 446372, Note_on_c, 0, 68, 40
1, 446417, Note_off_c, 0, 68, 66
1, 446425, Note_on_c, 0, 73, 69
1, 446429, Note_on_c, 0, 69, 64
1, 446449, Note_off_c, 0, 69, 68
1, 446449, Note_off_c, 0, 73, 67
1, 446501, Note_on_c, 0, 71, 71
1, 446510, Note_on_c, 0, 75, 56
1, 446530, Note_off_c, 0, 75, 61
1, 446531, Note_off_c, 0, 71, 61
1, 446586, Note_on_c, 0, 76, 68
1, 446595, Note_on_c, 0, 73, 62
1, 446609, Note_off_c, 0, 76, 71
1, 446636, Note_off_c, 0, 73, 61
1, 446661, Note_on_c, 0, 78, 74
1, 446661, Note_on_c, 0, 75, 62
1, 446691, Note_off_c, 0, 75, 66
1, 446700, Note_off_c, 0, 78, 57
1, 446732, Note_on_c, 0, 80, 66
1, 446734, Note_on_c, 0, 76, 71
1, 446769, Note_off_c, 0, 76, 62
1, 446774, Note_off_c, 0, 80, 62
1, 446813, Note_on_c, 0, 81, 39
1, 446822, Note_on_c, 0, 78, 73
1, 446840, Note_off_c, 0, 81, 35
1, 446879, Note_on_c, 0, 83, 62
1, 446883, Note_off_c, 0, 78, 62
1, 446894, Note_on_c, 0, 80, 66
1, 446904, Note_off_c, 0, 83, 62
1, 446947, Note_off_c, 0, 80, 61
1, 446956, Note_on_c, 0, 81, 62
1, 446957, Note_on_c, 0, 85, 71
1, 446983, Note_off_c, 0, 85, 64
1, 446986, Note_off_c, 0, 81, 63
1, 447034, Note_on_c, 0, 83, 69
1, 447064, Note_off_c, 0, 83, 59
1, 447117, Note_on_c, 0, 88, 71
1, 447120, Note_on_c, 0, 85, 69
1, 447150, Note_off_c, 0, 88, 65
1, 447199, Note_on_c, 0, 90, 79
1, 447209, Note_off_c, 0, 85, 63
1, 447231, Note_on_c, 0, 87, 56
1, 447233, Note_off_c, 0, 90, 60
1, 447272, Note_on_c, 0, 91, 72
1, 447306, Note_off_c, 0, 91, 56
1, 447307, Note_off_c, 0, 87, 59
1, 447413, Note_on_c, 0, 92, 79
1, 447428, Note_on_c, 0, 88, 59
1, 447499, Note_off_c, 0, 92, 64
1, 447512, Note_off_c, 0, 88, 62
1, 448119, Control_c, 0, 67, 119
1, 448134, Control_c, 0, 67, 104
1, 448149, Control_c, 0, 67, 83
1, 448163, Note_on_c, 0, 73, 85
1, 448164, Control_c, 0, 67, 49
1, 448167, Note_on_c, 0, 66, 80
1, 448169, Note_on_c, 0, 64, 79
1, 448178, Control_c, 0, 67, 18
1, 448180, Note_on_c, 0, 58, 64
1, 448181, Note_on_c, 0, 46, 60
1, 448193, Control_c, 0, 67, 0
1, 448238, Control_c, 0, 64, 67
1, 448253, Control_c, 0, 64, 81
1, 448268, Control_c, 0, 64, 101
1, 448283, Control_c, 0, 64, 127
1, 448375, Note_off_c, 0, 64, 57
1, 448394, Note_off_c, 0, 46, 55
1, 448394, Note_off_c, 0, 58, 58
1, 448398, Note_off_c, 0, 73, 58
1, 448431, Note_off_c, 0, 66, 61
1, 448820, Note_on_c, 0, 71, 59
1, 448822, Note_on_c, 0, 68, 59
1, 448822, Note_on_c, 0, 59, 49
1, 448832, Note_on_c, 0, 47, 50
1, 448836, Note_on_c, 0, 56, 42
1, 448836, Note_on_c, 0, 64, 49
1, 448837, Control_c, 0, 64, 113
1, 448852, Control_c, 0, 64, 88
1, 448867, Control_c, 0, 64, 66
1, 448870, Note_off_c, 0, 59, 0
1, 448870, Note_on_c, 0, 59, 8
1, 448882, Control_c, 0, 64, 0
1, 448927, Control_c, 0, 64, 13
1, 448936, Note_off_c, 0, 64, 63
1, 448937, Note_off_c, 0, 71, 59
1, 448942, Control_c, 0, 64, 67
1, 448957, Note_off_c, 0, 68, 62
1, 448957, Control_c, 0, 64, 78
1, 448972, Control_c, 0, 64, 91
1, 448987, Control_c, 0, 64, 104
1, 449001, Control_c, 0, 64, 111
1, 449006, Note_off_c, 0, 59, 52
1, 449016, Control_c, 0, 64, 116
1, 449031, Control_c, 0, 64, 123
1, 449046, Control_c, 0, 64, 127
1, 449063, Note_on_c, 0, 61, 57
1, 449104, Note_off_c, 0, 61, 62
1, 449114, Note_on_c, 0, 59, 65
1, 449158, Note_off_c, 0, 59, 60
1, 449174, Note_on_c, 0, 58, 59
1, 449206, Note_off_c, 0, 56, 38
1, 449206, Note_off_c, 0, 58, 66
1, 449219, Note_on_c, 0, 59, 57
1, 449294, Note_off_c, 0, 59, 57
1, 449479, Note_on_c, 0, 69, 61
1, 449491, Note_on_c, 0, 59, 42
1, 449501, Note_on_c, 0, 54, 37
1, 449502, Note_on_c, 0, 63, 44
1, 449513, Control_c, 0, 64, 117
1, 449527, Control_c, 0, 64, 96
1, 449542, Control_c, 0, 64, 77
1, 449557, Control_c, 0, 64, 39
1, 449573, Control_c, 0, 64, 0
1, 449646, Control_c, 0, 64, 63
1, 449661, Control_c, 0, 64, 76
1, 449676, Control_c, 0, 64, 89
1, 449691, Control_c, 0, 64, 103
1, 449706, Control_c, 0, 64, 113
1, 449722, Control_c, 0, 64, 122
1, 449737, Control_c, 0, 64, 127
1, 449831, Note_off_c, 0, 47, 36
1, 449851, Note_off_c, 0, 54, 31
1, 449851, Note_off_c, 0, 69, 56
1, 449852, Note_off_c, 0, 63, 52
1, 449860, Note_on_c, 0, 66, 53
1, 449867, Note_off_c, 0, 59, 54
1, 449877, Note_on_c, 0, 51, 33
1, 449902, Note_off_c, 0, 66, 63
1, 449914, Note_off_c, 0, 51, 53
1, 450152, Note_on_c, 0, 71, 54
1, 450154, Note_on_c, 0, 63, 48
1, 450162, Note_on_c, 0, 59, 40
1, 450168, Note_on_c, 0, 47, 41
1, 450174, Note_on_c, 0, 54, 39
1, 450184, Note_on_c, 0, 57, 33
1, 450188, Control_c, 0, 64, 102
1, 450203, Control_c, 0, 64, 84
1, 450218, Control_c, 0, 64, 65
1, 450232, Control_c, 0, 64, 0
1, 450307, Control_c, 0, 64, 56
1, 450322, Control_c, 0, 64, 71
1, 450336, Control_c, 0, 64, 83
1, 450351, Control_c, 0, 64, 94
1, 450366, Control_c, 0, 64, 102
1, 450381, Control_c, 0, 64, 108
1, 450395, Control_c, 0, 64, 113
1, 450410, Control_c, 0, 64, 119
1, 450418, Note_off_c, 0, 57, 40
1, 450425, Control_c, 0, 64, 127
1, 450534, Note_off_c, 0, 54, 37
1, 450536, Note_off_c, 0, 63, 58
1, 450663, Note_off_c, 0, 47, 35
1, 450871, Note_off_c, 0, 71, 53
1, 450903, Note_on_c, 0, 64, 37
1, 450907, Control_c, 0, 64, 108
1, 450910, Note_on_c, 0, 56, 35
1, 450915, Note_on_c, 0, 68, 43
1, 450917, Note_on_c, 0, 52, 36
1, 450922, Control_c, 0, 64, 89
1, 450937, Control_c, 0, 64, 74
1, 450952, Control_c, 0, 64, 52
1, 450966, Control_c, 0, 64, 0
1, 451070, Control_c, 0, 67, 9
1, 451085, Control_c, 0, 67, 12
1, 451100, Control_c, 0, 67, 19
1, 451103, Note_off_c, 0, 59, 40
1, 451111, Note_off_c, 0, 56, 58
1, 451114, Control_c, 0, 67, 30
1, 451129, Control_c, 0, 67, 44
1, 451136, Note_off_c, 0, 52, 60
1, 451143, Note_off_c, 0, 68, 60
1, 451144, Control_c, 0, 67, 62
1, 451147, Note_off_c, 0, 64, 55
1, 451159, Control_c, 0, 67, 81
1, 451174, Control_c, 0, 67, 102
1, 451189, Control_c, 0, 67, 122
1, 451204, Control_c, 0, 67, 127
1, 451318, Note_on_c, 0, 40, 67
1, 451349, Note_off_c, 0, 40, 65
1, 451401, Note_on_c, 0, 40, 61
1, 451425, Note_off_c, 0, 40, 59
1, 451460, Note_on_c, 0, 40, 57
1, 451489, Note_off_c, 0, 40, 64
1, 451530, Control_c, 0, 67, 121
1, 451543, Note_on_c, 0, 40, 88
1, 451545, Control_c, 0, 67, 104
1, 451560, Control_c, 0, 67, 81
1, 451575, Control_c, 0, 67, 55
1, 451589, Control_c, 0, 67, 29
1, 451604, Control_c, 0, 67, 9
1, 451619, Control_c, 0, 67, 0
1, 451725, Note_off_c, 0, 40, 64
1, 451943, Note_on_c, 0, 40, 72
1, 451975, Note_off_c, 0, 40, 61
1, 452007, Note_on_c, 0, 40, 70
1, 452039, Note_off_c, 0, 40, 64
1, 452092, Poly_aftertouch_c, 0, 40, 0
1, 452158, Note_on_c, 0, 40, 85
1, 452354, Note_off_c, 0, 40, 63
1, 452522, Note_on_c, 0, 40, 76
1, 452525, Note_on_c, 0, 66, 71
1, 452527, Note_on_c, 0, 57, 68
1, 452528, Note_on_c, 0, 60, 68
1, 452546, Note_off_c, 0, 40, 66
1, 452551, Note_off_c, 0, 66, 69
1, 452555, Note_off_c, 0, 60, 67
1, 452556, Note_off_c, 0, 57, 64
1, 452600, Note_on_c, 0, 40, 90
1, 452605, Note_on_c, 0, 66, 83
1, 452610, Note_on_c, 0, 57, 71
1, 452610, Note_on_c, 0, 60, 75
1, 452626, Note_off_c, 0, 57, 65
1, 452630, Note_off_c, 0, 40, 66
1, 452630, Note_off_c, 0, 66, 64
1, 452635, Note_off_c, 0, 60, 68
1, 452671, Note_on_c, 0, 40, 82
1, 452682, Note_on_c, 0, 57, 76
1, 452685, Note_on_c, 0, 66, 77
1, 452685, Note_on_c, 0, 60, 71
1, 452700, Note_off_c, 0, 57, 66
1, 452709, Note_off_c, 0, 66, 70
1, 452712, Note_off_c, 0, 60, 67
1, 452714, Note_off_c, 0, 40, 65
1, 452761, Note_on_c, 0, 57, 86
1, 452763, Note_on_c, 0, 40, 96
1, 452764, Note_on_c, 0, 66, 92
1, 452770, Note_on_c, 0, 60, 82
1, 453143, Note_off_c, 0, 60, 56
1, 453181, Note_on_c, 0, 39, 79
1, 453196, Note_off_c, 0, 57, 60
1, 453216, Note_off_c, 0, 40, 60
1, 453237, Note_off_c, 0, 66, 63
1, 453396, Note_on_c, 0, 68, 83
1, 453401, Note_on_c, 0, 59, 79
1, 453402, Note_on_c, 0, 65, 73
1, 453592, Note_on_c, 0, 38, 83
1, 453601, Note_off_c, 0, 39, 61
1, 453762, Control_c, 0, 64, 10
1, 453770, Note_on_c, 0, 35, 84
1, 453777, Control_c, 0, 64, 16
1, 453789, Note_off_c, 0, 59, 47
1, 453796, Note_off_c, 0, 38, 63
1, 453857, Note_off_c, 0, 65, 37
1, 453866, Control_c, 0, 64, 13
1, 453891, Note_off_c, 0, 68, 56
1, 453917, Control_c, 0, 64, 10
1, 453962, Control_c, 0, 64, 0
1, 454045, Note_on_c, 0, 69, 83
1, 454054, Note_on_c, 0, 60, 72
1, 454055, Note_on_c, 0, 33, 69
1, 454057, Note_on_c, 0, 65, 68
1, 454069, Note_off_c, 0, 35, 60
1, 454303, Control_c, 0, 64, 62
1, 454317, Control_c, 0, 64, 71
1, 454332, Control_c, 0, 64, 79
1, 454347, Control_c, 0, 64, 87
1, 454362, Control_c, 0, 64, 90
1, 454377, Control_c, 0, 64, 93
1, 454391, Control_c, 0, 64, 96
1, 454397, Note_off_c, 0, 65, 36
1, 454406, Control_c, 0, 64, 98
1, 454421, Control_c, 0, 64, 100
1, 454435, Control_c, 0, 64, 102
1, 454445, Note_off_c, 0, 60, 36
1, 454450, Control_c, 0, 64, 102
1, 454740, Control_c, 0, 64, 101
1, 454755, Control_c, 0, 64, 99
1, 454766, Note_on_c, 0, 60, 45
1, 454770, Control_c, 0, 64, 93
1, 454773, Note_on_c, 0, 65, 52
1, 454785, Control_c, 0, 64, 84
1, 454800, Control_c, 0, 64, 72
1, 454813, Control_c, 0, 64, 40
1, 454828, Control_c, 0, 64, 0
1, 454842, Note_off_c, 0, 69, 52
1, 454932, Control_c, 0, 64, 61
1, 454946, Control_c, 0, 64, 69
1, 454961, Control_c, 0, 64, 73
1, 454976, Control_c, 0, 64, 76
1, 454991, Control_c, 0, 64, 77
1, 455005, Control_c, 0, 64, 78
1, 455008, Note_off_c, 0, 60, 56
1, 455016, Note_off_c, 0, 65, 64
1, 455020, Control_c, 0, 64, 78
1, 455048, Note_off_c, 0, 33, 56
1, 455154, Control_c, 0, 64, 78
1, 455169, Control_c, 0, 64, 77
1, 455183, Control_c, 0, 64, 76
1, 455198, Control_c, 0, 64, 74
1, 455213, Control_c, 0, 64, 70
1, 455228, Control_c, 0, 64, 66
1, 455243, Control_c, 0, 64, 58
1, 455257, Control_c, 0, 64, 0
1, 455463, Note_on_c, 0, 57, 41
1, 455463, Note_on_c, 0, 63, 44
1, 455471, Note_on_c, 0, 35, 39
1, 455487, Control_c, 0, 67, 8
1, 455502, Control_c, 0, 67, 11
1, 455517, Control_c, 0, 67, 16
1, 455532, Control_c, 0, 64, 47
1, 455532, Control_c, 0, 67, 25
1, 455547, Control_c, 0, 64, 62
1, 455547, Control_c, 0, 67, 37
1, 455562, Control_c, 0, 64, 63
1, 455562, Control_c, 0, 67, 59
1, 455577, Control_c, 0, 64, 62
1, 455577, Control_c, 0, 67, 78
1, 455592, Control_c, 0, 67, 96
1, 455607, Control_c, 0, 67, 113
1, 455622, Control_c, 0, 67, 127
1, 456118, Note_off_c, 0, 57, 49
1, 456137, Note_off_c, 0, 63, 36
1, 456149, Control_c, 0, 64, 61
1, 456164, Control_c, 0, 64, 56
1, 456169, Note_on_c, 0, 40, 34
1, 456173, Note_on_c, 0, 64, 39
1, 456179, Note_on_c, 0, 56, 32
1, 456179, Control_c, 0, 64, 36
1, 456193, Control_c, 0, 64, 0
1, 456230, Note_off_c, 0, 35, 41
1, 456400, Note_off_c, 0, 56, 45
1, 456462, Note_off_c, 0, 64, 62
1, 456503, Note_off_c, 0, 40, 53
1, 456640, Note_on_c, 0, 64, 64
1, 456656, Note_off_c, 0, 64, 64
1, 456719, Note_on_c, 0, 64, 43
1, 456720, Note_off_c, 0, 64, 127
1, 456778, Note_on_c, 0, 64, 54
1, 456800, Note_off_c, 0, 64, 64
1, 456872, Note_on_c, 0, 64, 71
1, 457117, Note_off_c, 0, 64, 63
1, 457266, Note_on_c, 0, 64, 75
1, 457291, Note_off_c, 0, 64, 70
1, 457345, Note_on_c, 0, 64, 76
1, 457361, Note_off_c, 0, 64, 69
1, 457419, Note_on_c, 0, 64, 75
1, 457443, Note_off_c, 0, 64, 70
1, 457493, Note_on_c, 0, 64, 80
1, 457654, Note_off_c, 0, 64, 64
1, 457941, Note_on_c, 0, 71, 64
1, 457942, Note_on_c, 0, 78, 62
1, 457942, Note_on_c, 0, 83, 62
1, 457944, Note_on_c, 0, 69, 66
1, 457946, Note_on_c, 0, 66, 60
1, 457947, Note_on_c, 0, 63, 57
1, 457950, Note_on_c, 0, 59, 55
1, 457953, Note_on_c, 0, 75, 41
1, 457958, Note_off_c, 0, 71, 64
1, 457958, Note_off_c, 0, 83, 63
1, 457958, Note_off_c, 0, 78, 63
1, 457962, Note_off_c, 0, 69, 68
1, 457965, Note_off_c, 0, 66, 66
1, 457968, Note_off_c, 0, 63, 65
1, 457977, Note_off_c, 0, 59, 54
1, 457979, Note_off_c, 0, 75, 36
1, 458017, Note_on_c, 0, 71, 76
1, 458019, Note_on_c, 0, 78, 75
1, 458019, Note_on_c, 0, 83, 77
1, 458021, Note_on_c, 0, 59, 51
1, 458025, Note_on_c, 0, 69, 70
1, 458029, Note_on_c, 0, 66, 62
1, 458033, Note_off_c, 0, 78, 68
1, 458037, Note_off_c, 0, 71, 65
1, 458040, Note_on_c, 0, 63, 45
1, 458042, Note_off_c, 0, 69, 68
1, 458042, Note_off_c, 0, 83, 65
1, 458046, Note_off_c, 0, 66, 65
1, 458051, Note_off_c, 0, 59, 62
1, 458066, Note_off_c, 0, 63, 52
1, 458093, Note_on_c, 0, 75, 38
1, 458093, Note_on_c, 0, 78, 82
1, 458094, Note_on_c, 0, 71, 73
1, 458105, Note_on_c, 0, 69, 64
1, 458106, Note_on_c, 0, 83, 55
1, 458109, Note_on_c, 0, 66, 70
1, 458113, Note_off_c, 0, 78, 71
1, 458119, Note_off_c, 0, 71, 64
1, 458119, Note_off_c, 0, 75, 67
1, 458123, Note_off_c, 0, 69, 66
1, 458126, Note_off_c, 0, 66, 67
1, 458126, Note_off_c, 0, 83, 59
1, 458188, Note_on_c, 0, 59, 13
1, 458189, Note_on_c, 0, 66, 77
1, 458189, Note_on_c, 0, 69, 75
1, 458189, Note_on_c, 0, 83, 84
1, 458193, Note_on_c, 0, 71, 71
1, 458200, Note_on_c, 0, 63, 47
1, 458203, Note_on_c, 0, 78, 72
1, 458204, Note_on_c, 0, 75, 68
1, 458424, Control_c, 0, 64, 57
1, 458439, Control_c, 0, 64, 64
1, 458453, Control_c, 0, 64, 67
1, 458468, Control_c, 0, 64, 70
1, 458483, Control_c, 0, 64, 72
1, 458498, Control_c, 0, 64, 74
1, 458513, Control_c, 0, 64, 75
1, 458528, Control_c, 0, 64, 76
1, 458543, Control_c, 0, 64, 78
1, 458558, Control_c, 0, 64, 82
1, 458573, Control_c, 0, 64, 85
1, 458587, Control_c, 0, 64, 87
1, 458602, Control_c, 0, 64, 88
1, 458617, Control_c, 0, 64, 89
1, 458631, Control_c, 0, 64, 90
1, 458646, Control_c, 0, 64, 90
1, 458668, Note_off_c, 0, 63, 50
1, 458674, Note_off_c, 0, 66, 56
1, 458691, Control_c, 0, 64, 91
1, 458700, Note_off_c, 0, 59, 37
1, 458705, Control_c, 0, 64, 91
1, 458763, Note_off_c, 0, 78, 32
1, 458766, Note_off_c, 0, 83, 45
1, 458833, Note_off_c, 0, 75, 26
1, 459246, Note_off_c, 0, 69, 52
1, 459261, Control_c, 0, 64, 91
1, 459276, Control_c, 0, 64, 89
1, 459291, Control_c, 0, 64, 86
1, 459291, Note_on_c, 0, 76, 39
1, 459294, Note_on_c, 0, 68, 39
1, 459301, Note_on_c, 0, 64, 34
1, 459307, Control_c, 0, 64, 80
1, 459322, Control_c, 0, 64, 71
1, 459336, Control_c, 0, 64, 60
1, 459351, Control_c, 0, 64, 0
1, 459410, Control_c, 0, 67, 112
1, 459425, Control_c, 0, 67, 89
1, 459440, Control_c, 0, 67, 61
1, 459455, Control_c, 0, 67, 34
1, 459470, Control_c, 0, 67, 13
1, 459485, Control_c, 0, 67, 0
1, 459943, Note_off_c, 0, 68, 52
1, 459944, Note_off_c, 0, 71, 53
1, 459948, Note_off_c, 0, 76, 57
1, 459955, Note_off_c, 0, 64, 42
1, 460417, Note_on_c, 0, 52, 54
1, 460419, Note_on_c, 0, 40, 51
1, 460443, Note_off_c, 0, 52, 61
1, 460474, Note_off_c, 0, 40, 59
1, 460482, Note_on_c, 0, 42, 54
1, 460484, Note_on_c, 0, 54, 65
1, 460514, Note_off_c, 0, 54, 61
1, 460561, Note_on_c, 0, 43, 55
1, 460565, Note_off_c, 0, 42, 59
1, 460567, Note_on_c, 0, 55, 63
1, 460619, Note_off_c, 0, 55, 57
1, 460638, Note_off_c, 0, 43, 62
1, 460644, Note_on_c, 0, 45, 61
1, 460654, Note_on_c, 0, 57, 59
1, 460685, Note_off_c, 0, 45, 63
1, 460693, Note_off_c, 0, 57, 61
1, 460731, Note_on_c, 0, 59, 71
1, 460738, Note_on_c, 0, 47, 66
1, 460755, Note_off_c, 0, 59, 66
1, 460767, Note_off_c, 0, 47, 65
1, 460912, Note_on_c, 0, 60, 80
1, 460917, Note_on_c, 0, 48, 67
1, 460923, Note_on_c, 0, 36, 58
1, 460933, Note_off_c, 0, 60, 69
1, 460937, Note_off_c, 0, 48, 65
1, 460950, Note_off_c, 0, 36, 61
1, 461122, Note_on_c, 0, 59, 76
1, 461124, Note_on_c, 0, 47, 69
1, 461136, Note_on_c, 0, 35, 57
1, 461145, Control_c, 0, 64, 23
1, 461160, Control_c, 0, 64, 69
1, 461167, Note_off_c, 0, 47, 63
1, 461174, Note_off_c, 0, 35, 65
1, 461175, Control_c, 0, 64, 81
1, 461190, Control_c, 0, 64, 95
1, 461194, Note_off_c, 0, 59, 61
1, 461205, Control_c, 0, 64, 105
1, 461219, Control_c, 0, 64, 108
1, 461234, Control_c, 0, 64, 109
1, 461249, Control_c, 0, 64, 110
1, 461264, Control_c, 0, 64, 111
1, 461494, Control_c, 0, 64, 107
1, 461508, Control_c, 0, 64, 99
1, 461509, Note_on_c, 0, 52, 66
1, 461516, Note_on_c, 0, 40, 62
1, 461523, Control_c, 0, 64, 85
1, 461534, Note_off_c, 0, 52, 67
1, 461538, Control_c, 0, 64, 72
1, 461552, Control_c, 0, 64, 53
1, 461567, Control_c, 0, 64, 0
1, 461579, Note_on_c, 0, 54, 70
1, 461584, Note_on_c, 0, 42, 64
1, 461591, Note_off_c, 0, 40, 60
1, 461606, Note_off_c, 0, 54, 64
1, 461655, Note_on_c, 0, 55, 68
1, 461660, Note_on_c, 0, 43, 61
1, 461683, Note_off_c, 0, 42, 57
1, 461710, Note_off_c, 0, 55, 56
1, 461724, Note_on_c, 0, 45, 68
1, 461730, Note_on_c, 0, 57, 69
1, 461735, Note_off_c, 0, 43, 61
1, 461780, Note_off_c, 0, 57, 56
1, 461795, Note_off_c, 0, 45, 57
1, 461814, Note_on_c, 0, 59, 72
1, 461817, Note_on_c, 0, 47, 73
1, 461840, Note_off_c, 0, 59, 66
1, 461846, Note_off_c, 0, 47, 65
1, 461982, Note_on_c, 0, 60, 83
1, 461989, Note_on_c, 0, 48, 73
1, 461993, Note_on_c, 0, 36, 62
1, 462014, Note_off_c, 0, 60, 64
1, 462016, Note_off_c, 0, 48, 67
1, 462022, Note_off_c, 0, 36, 65
1, 462195, Note_on_c, 0, 59, 84
1, 462202, Note_on_c, 0, 47, 74
1, 462209, Note_on_c, 0, 35, 64
1, 462227, Control_c, 0, 64, 68
1, 462235, Note_off_c, 0, 47, 66
1, 462239, Note_off_c, 0, 35, 65
1, 462242, Control_c, 0, 64, 83
1, 462249, Note_off_c, 0, 59, 63
1, 462257, Control_c, 0, 64, 102
1, 462272, Control_c, 0, 64, 123
1, 462287, Control_c, 0, 64, 127
1, 462534, Note_on_c, 0, 64, 70
1, 462537, Note_on_c, 0, 52, 62
1, 462561, Note_off_c, 0, 64, 67
1, 462569, Note_off_c, 0, 52, 66
1, 462570, Control_c, 0, 64, 124
1, 462585, Control_c, 0, 64, 108
1, 462600, Control_c, 0, 64, 93
1, 462600, Note_on_c, 0, 60, 74
1, 462605, Note_on_c, 0, 48, 70
1, 462615, Control_c, 0, 64, 78
1, 462628, Note_off_c, 0, 60, 63
1, 462629, Control_c, 0, 64, 63
1, 462644, Control_c, 0, 64, 0
1, 462647, Note_off_c, 0, 48, 57
1, 462680, Note_on_c, 0, 47, 76
1, 462680, Note_on_c, 0, 59, 79
1, 462710, Note_off_c, 0, 47, 67
1, 462714, Note_off_c, 0, 59, 65
1, 462855, Note_on_c, 0, 55, 67
1, 462855, Note_on_c, 0, 67, 73
1, 462886, Note_off_c, 0, 67, 67
1, 462897, Note_off_c, 0, 55, 63
1, 462919, Note_on_c, 0, 60, 70
1, 462941, Note_on_c, 0, 48, 66
1, 462956, Note_off_c, 0, 60, 61
1, 462988, Note_off_c, 0, 48, 61
1, 463005, Note_on_c, 0, 59, 83
1, 463008, Note_on_c, 0, 47, 77
1, 463032, Note_off_c, 0, 59, 65
1, 463038, Note_off_c, 0, 47, 65
1, 463164, Note_on_c, 0, 71, 81
1, 463166, Note_on_c, 0, 59, 69
1, 463193, Note_off_c, 0, 71, 58
1, 463195, Note_off_c, 0, 59, 65
1, 463232, Note_on_c, 0, 60, 70
1, 463249, Note_on_c, 0, 48, 69
1, 463298, Note_off_c, 0, 48, 62
1, 463310, Note_on_c, 0, 59, 79
1, 463310, Note_off_c, 0, 60, 62
1, 463312, Note_on_c, 0, 47, 72
1, 463333, Note_off_c, 0, 59, 69
1, 463343, Note_off_c, 0, 47, 67
1, 463476, Note_on_c, 0, 60, 75
1, 463476, Note_on_c, 0, 72, 86
1, 463500, Note_off_c, 0, 60, 68
1, 463510, Note_off_c, 0, 72, 64
1, 463542, Note_on_c, 0, 60, 70
1, 463569, Note_on_c, 0, 48, 64
1, 463621, Note_off_c, 0, 60, 62
1, 463622, Note_off_c, 0, 48, 65
1, 463625, Note_on_c, 0, 59, 87
1, 463628, Note_on_c, 0, 47, 78
1, 463652, Note_off_c, 0, 59, 65
1, 463658, Note_off_c, 0, 47, 67
1, 463808, Note_on_c, 0, 64, 80
1, 463809, Note_on_c, 0, 76, 78
1, 463828, Note_off_c, 0, 76, 73
1, 463832, Note_off_c, 0, 64, 68
1, 463993, Note_on_c, 0, 60, 96
1, 464010, Note_on_c, 0, 48, 63
1, 464020, Note_on_c, 0, 47, 48
1, 464021, Note_off_c, 0, 47, 127
1, 464035, Note_off_c, 0, 60, 66
1, 464037, Note_off_c, 0, 48, 66
1, 464228, Note_on_c, 0, 59, 98
1, 464238, Note_on_c, 0, 47, 79
1, 464318, Control_c, 0, 64, 69
1, 464333, Control_c, 0, 64, 85
1, 464348, Control_c, 0, 64, 116
1, 464371, Control_c, 0, 64, 127
1, 464382, Note_off_c, 0, 47, 61
1, 464393, Note_off_c, 0, 59, 57
1, 464622, Control_c, 0, 64, 114
1, 464637, Control_c, 0, 64, 94
1, 464651, Control_c, 0, 64, 77
1, 464666, Control_c, 0, 64, 55
1, 464681, Control_c, 0, 64, 0
1, 464734, Note_on_c, 0, 72, 82
1, 464771, Note_off_c, 0, 72, 66
1, 464823, Note_on_c, 0, 88, 95
1, 464826, Note_on_c, 0, 57, 86
1, 464829, Note_on_c, 0, 45, 74
1, 464830, Control_c, 0, 64, 60
1, 464844, Control_c, 0, 64, 76
1, 464855, Note_off_c, 0, 45, 67
1, 464859, Control_c, 0, 64, 94
1, 464859, Note_off_c, 0, 57, 62
1, 464874, Control_c, 0, 64, 127
1, 465074, Note_on_c, 0, 86, 80
1, 465075, Note_off_c, 0, 88, 61
1, 465089, Note_on_c, 0, 57, 54
1, 465098, Note_on_c, 0, 60, 49
1, 465098, Note_on_c, 0, 66, 60
1, 465106, Note_on_c, 0, 64, 54
1, 465125, Note_off_c, 0, 66, 63
1, 465128, Note_off_c, 0, 57, 61
1, 465143, Note_off_c, 0, 60, 61
1, 465149, Note_off_c, 0, 64, 64
1, 465152, Note_on_c, 0, 84, 79
1, 465161, Note_off_c, 0, 86, 61
1, 465225, Note_off_c, 0, 84, 65
1, 465232, Note_on_c, 0, 83, 70
1, 465250, Note_on_c, 0, 64, 57
1, 465252, Note_on_c, 0, 57, 50
1, 465262, Note_on_c, 0, 60, 41
1, 465263, Note_on_c, 0, 66, 35
1, 465286, Note_off_c, 0, 66, 59
1, 465287, Note_off_c, 0, 83, 59
1, 465289, Note_off_c, 0, 57, 60
1, 465298, Note_on_c, 0, 81, 70
1, 465300, Note_off_c, 0, 64, 56
1, 465303, Note_off_c, 0, 60, 57
1, 465347, Note_off_c, 0, 81, 62
1, 465399, Note_on_c, 0, 80, 87
1, 465408, Note_on_c, 0, 57, 51
1, 465415, Note_on_c, 0, 66, 55
1, 465415, Control_c, 0, 64, 110
1, 465417, Note_on_c, 0, 60, 52
1, 465417, Note_on_c, 0, 64, 60
1, 465430, Control_c, 0, 64, 85
1, 465445, Control_c, 0, 64, 53
1, 465450, Note_off_c, 0, 66, 57
1, 465460, Control_c, 0, 64, 0
1, 465462, Note_off_c, 0, 64, 53
1, 465463, Note_off_c, 0, 57, 47
1, 465473, Note_off_c, 0, 60, 54
1, 465489, Control_c, 0, 64, 23
1, 465504, Control_c, 0, 64, 67
1, 465519, Control_c, 0, 64, 77
1, 465534, Control_c, 0, 64, 90
1, 465548, Control_c, 0, 64, 104
1, 465563, Control_c, 0, 64, 115
1, 465574, Note_on_c, 0, 66, 51
1, 465578, Control_c, 0, 64, 124
1, 465588, Note_on_c, 0, 64, 50
1, 465593, Control_c, 0, 64, 127
1, 465595, Note_on_c, 0, 57, 34
1, 465595, Note_off_c, 0, 66, 62
1, 465602, Note_on_c, 0, 60, 40
1, 465618, Note_off_c, 0, 64, 61
1, 465628, Note_off_c, 0, 60, 57
1, 465629, Note_off_c, 0, 57, 48
1, 465717, Note_on_c, 0, 81, 86
1, 465721, Note_on_c, 0, 57, 56
1, 465724, Note_on_c, 0, 64, 52
1, 465727, Note_on_c, 0, 66, 39
1, 465734, Note_on_c, 0, 60, 45
1, 465746, Note_off_c, 0, 80, 63
1, 465752, Note_off_c, 0, 66, 58
1, 465760, Note_off_c, 0, 57, 57
1, 465776, Note_off_c, 0, 64, 53
1, 465778, Note_off_c, 0, 60, 58
1, 465924, Note_on_c, 0, 84, 85
1, 465927, Control_c, 0, 64, 114
1, 465929, Note_off_c, 0, 81, 61
1, 465941, Note_on_c, 0, 57, 46
1, 465941, Note_on_c, 0, 64, 44
1, 465942, Control_c, 0, 64, 88
1, 465946, Note_on_c, 0, 60, 40
1, 465946, Note_on_c, 0, 66, 43
1, 465957, Control_c, 0, 64, 67
1, 465971, Control_c, 0, 64, 0
1, 465978, Note_off_c, 0, 66, 52
1, 465986, Note_off_c, 0, 57, 52
1, 465990, Note_off_c, 0, 60, 45
1, 465993, Note_off_c, 0, 64, 49
1, 466001, Control_c, 0, 64, 59
1, 466016, Control_c, 0, 64, 72
1, 466031, Control_c, 0, 64, 86
1, 466046, Control_c, 0, 64, 99
1, 466061, Control_c, 0, 64, 109
1, 466076, Control_c, 0, 64, 116
1, 466091, Note_on_c, 0, 81, 75
1, 466091, Control_c, 0, 64, 120
1, 466094, Note_off_c, 0, 84, 60
1, 466105, Note_on_c, 0, 57, 48
1, 466105, Control_c, 0, 64, 126
1, 466113, Note_on_c, 0, 66, 44
1, 466120, Control_c, 0, 64, 127
1, 466129, Note_on_c, 0, 64, 47
1, 466140, Note_off_c, 0, 66, 56
1, 466143, Note_on_c, 0, 60, 34
1, 466146, Note_off_c, 0, 57, 59
1, 466155, Note_off_c, 0, 64, 59
1, 466168, Note_on_c, 0, 78, 77
1, 466169, Note_off_c, 0, 81, 61
1, 466171, Note_off_c, 0, 60, 53
1, 466246, Note_off_c, 0, 78, 62
1, 466249, Note_on_c, 0, 76, 75
1, 466253, Note_on_c, 0, 57, 46
1, 466261, Note_on_c, 0, 64, 50
1, 466264, Note_on_c, 0, 66, 37
1, 466275, Note_on_c, 0, 60, 44
1, 466293, Note_off_c, 0, 57, 58
1, 466299, Note_off_c, 0, 66, 50
1, 466301, Note_off_c, 0, 76, 63
1, 466305, Note_off_c, 0, 60, 54
1, 466311, Note_off_c, 0, 64, 57
1, 466314, Note_on_c, 0, 72, 78
1, 466369, Note_off_c, 0, 72, 64
1, 466416, Control_c, 0, 64, 103
1, 466421, Note_on_c, 0, 71, 78
1, 466428, Note_on_c, 0, 57, 48
1, 466429, Note_on_c, 0, 60, 46
1, 466431, Note_on_c, 0, 64, 55
1, 466431, Note_on_c, 0, 66, 50
1, 466431, Control_c, 0, 64, 83
1, 466446, Control_c, 0, 64, 62
1, 466461, Control_c, 0, 64, 0
1, 466466, Note_off_c, 0, 66, 52
1, 466479, Note_off_c, 0, 57, 57
1, 466484, Note_off_c, 0, 64, 58
1, 466486, Note_off_c, 0, 60, 55
1, 466507, Control_c, 0, 64, 69
1, 466521, Control_c, 0, 64, 79
1, 466536, Control_c, 0, 64, 91
1, 466551, Control_c, 0, 64, 102
1, 466566, Control_c, 0, 64, 110
1, 466581, Control_c, 0, 64, 115
1, 466595, Control_c, 0, 64, 119
1, 466601, Note_on_c, 0, 64, 53
1, 466602, Note_on_c, 0, 57, 46
1, 466603, Note_on_c, 0, 66, 41
1, 466618, Control_c, 0, 64, 126
1, 466633, Control_c, 0, 64, 127
1, 466639, Note_on_c, 0, 60, 37
1, 466639, Note_off_c, 0, 66, 51
1, 466647, Note_off_c, 0, 57, 48
1, 466650, Note_off_c, 0, 64, 59
1, 466669, Note_off_c, 0, 60, 52
1, 466745, Note_off_c, 0, 71, 48
1, 466752, Note_on_c, 0, 69, 77
1, 466756, Note_on_c, 0, 57, 52
1, 466759, Note_on_c, 0, 66, 48
1, 466761, Note_on_c, 0, 64, 48
1, 466770, Note_on_c, 0, 60, 44
1, 466779, Note_off_c, 0, 69, 67
1, 466780, Note_off_c, 0, 66, 61
1, 466785, Note_off_c, 0, 64, 60
1, 466789, Note_off_c, 0, 57, 61
1, 466792, Note_off_c, 0, 60, 57
1, 466883, Control_c, 0, 64, 119
1, 466898, Control_c, 0, 64, 94
1, 466912, Control_c, 0, 64, 72
1, 466924, Note_on_c, 0, 83, 72
1, 466927, Control_c, 0, 64, 0
1, 466949, Note_on_c, 0, 59, 51
1, 466949, Note_on_c, 0, 69, 53
1, 466952, Note_on_c, 0, 66, 41
1, 466959, Note_on_c, 0, 63, 42
1, 466971, Control_c, 0, 64, 50
1, 466976, Note_off_c, 0, 69, 58
1, 466986, Control_c, 0, 64, 70
1, 466988, Note_off_c, 0, 83, 60
1, 466988, Note_off_c, 0, 66, 55
1, 466991, Note_off_c, 0, 59, 57
1, 466994, Note_off_c, 0, 63, 55
1, 466996, Note_on_c, 0, 81, 74
1, 467001, Control_c, 0, 64, 81
1, 467016, Control_c, 0, 64, 94
1, 467031, Control_c, 0, 64, 105
1, 467045, Control_c, 0, 64, 112
1, 467060, Control_c, 0, 64, 118
1, 467075, Control_c, 0, 64, 127
1, 467081, Note_off_c, 0, 81, 59
1, 467083, Note_on_c, 0, 78, 75
1, 467089, Note_on_c, 0, 69, 52
1, 467092, Note_on_c, 0, 66, 57
1, 467095, Note_on_c, 0, 59, 54
1, 467098, Note_on_c, 0, 63, 58
1, 467125, Note_off_c, 0, 69, 65
1, 467127, Note_off_c, 0, 66, 63
1, 467134, Note_off_c, 0, 63, 63
1, 467144, Note_off_c, 0, 59, 55
1, 467151, Note_on_c, 0, 75, 75
1, 467151, Note_off_c, 0, 78, 63
1, 467205, Note_off_c, 0, 75, 64
1, 467230, Note_on_c, 0, 72, 69
1, 467241, Note_on_c, 0, 69, 54
1, 467244, Note_on_c, 0, 63, 54
1, 467251, Note_on_c, 0, 66, 48
1, 467255, Note_on_c, 0, 59, 47
1, 467268, Note_off_c, 0, 69, 64
1, 467278, Note_off_c, 0, 59, 57
1, 467280, Note_off_c, 0, 66, 59
1, 467282, Note_off_c, 0, 63, 63
1, 467282, Note_off_c, 0, 72, 64
1, 467310, Note_on_c, 0, 71, 73
1, 467394, Control_c, 0, 64, 100
1, 467399, Note_off_c, 0, 71, 58
1, 467399, Note_on_c, 0, 70, 72
1, 467402, Note_on_c, 0, 66, 52
1, 467403, Note_on_c, 0, 69, 54
1, 467404, Note_on_c, 0, 59, 45
1, 467409, Control_c, 0, 64, 78
1, 467414, Note_on_c, 0, 63, 49
1, 467424, Control_c, 0, 64, 0
1, 467435, Note_off_c, 0, 69, 58
1, 467441, Note_off_c, 0, 70, 65
1, 467446, Note_off_c, 0, 59, 50
1, 467447, Note_off_c, 0, 63, 50
1, 467448, Note_off_c, 0, 66, 62
1, 467466, Note_on_c, 0, 71, 63
1, 467468, Control_c, 0, 64, 50
1, 467483, Control_c, 0, 64, 70
1, 467498, Control_c, 0, 64, 82
1, 467513, Control_c, 0, 64, 96
1, 467527, Note_off_c, 0, 71, 58
1, 467528, Control_c, 0, 64, 108
1, 467542, Control_c, 0, 64, 116
1, 467554, Note_on_c, 0, 75, 76
1, 467557, Control_c, 0, 64, 120
1, 467559, Note_on_c, 0, 59, 55
1, 467560, Note_on_c, 0, 63, 53
1, 467564, Note_on_c, 0, 69, 51
1, 467565, Note_on_c, 0, 66, 60
1, 467572, Control_c, 0, 64, 126
1, 467587, Control_c, 0, 64, 127
1, 467588, Note_off_c, 0, 69, 61
1, 467602, Note_off_c, 0, 59, 54
1, 467602, Note_off_c, 0, 66, 63
1, 467602, Note_off_c, 0, 63, 60
1, 467606, Note_off_c, 0, 75, 64
1, 467618, Note_on_c, 0, 71, 67
1, 467675, Note_off_c, 0, 71, 61
1, 467703, Note_on_c, 0, 78, 72
1, 467709, Note_on_c, 0, 69, 54
1, 467713, Note_on_c, 0, 66, 57
1, 467714, Note_on_c, 0, 63, 55
1, 467720, Note_on_c, 0, 59, 46
1, 467738, Note_off_c, 0, 78, 56
1, 467747, Note_off_c, 0, 69, 64
1, 467751, Note_off_c, 0, 59, 53
1, 467753, Note_off_c, 0, 63, 61
1, 467754, Note_off_c, 0, 66, 62
1, 467771, Note_on_c, 0, 71, 64
1, 467813, Note_off_c, 0, 71, 61
1, 467854, Note_on_c, 0, 83, 70
1, 467867, Note_on_c, 0, 69, 60
1, 467868, Note_on_c, 0, 66, 59
1, 467870, Note_on_c, 0, 59, 47
1, 467876, Note_on_c, 0, 63, 51
1, 467876, Note_off_c, 0, 83, 67
1, 467895, Note_off_c, 0, 69, 64
1, 467909, Note_off_c, 0, 59, 59
1, 467910, Note_on_c, 0, 71, 76
1, 467910, Note_off_c, 0, 66, 61
1, 467913, Note_off_c, 0, 63, 63
1, 467933, Note_off_c, 0, 71, 67
1, 467993, Note_on_c, 0, 87, 88
1, 468007, Note_on_c, 0, 66, 69
1, 468007, Note_on_c, 0, 59, 59
1, 468010, Note_on_c, 0, 69, 57
1, 468014, Note_on_c, 0, 63, 57
1, 468029, Note_off_c, 0, 87, 63
1, 468048, Note_off_c, 0, 69, 65
1, 468063, Note_off_c, 0, 59, 47
1, 468065, Note_off_c, 0, 63, 55
1, 468069, Note_off_c, 0, 66, 57
1, 468071, Note_on_c, 0, 71, 75
1, 468100, Note_off_c, 0, 71, 64
1, 468168, Note_on_c, 0, 90, 84
1, 468173, Note_on_c, 0, 69, 55
1, 468182, Note_on_c, 0, 66, 51
1, 468183, Note_on_c, 0, 59, 43
1, 468186, Note_off_c, 0, 90, 72
1, 468204, Note_on_c, 0, 63, 38
1, 468208, Note_off_c, 0, 69, 56
1, 468222, Note_off_c, 0, 59, 52
1, 468222, Note_off_c, 0, 66, 58
1, 468227, Note_off_c, 0, 63, 59
1, 468231, Note_on_c, 0, 87, 20
1, 468252, Note_on_c, 0, 71, 80
1, 468271, Note_off_c, 0, 87, 33
1, 468287, Note_off_c, 0, 71, 61
1, 468400, Note_on_c, 0, 93, 103
1, 468410, Note_on_c, 0, 69, 58
1, 468417, Note_on_c, 0, 63, 45
1, 468417, Note_on_c, 0, 66, 53
1, 468419, Note_on_c, 0, 59, 46
1, 468432, Note_off_c, 0, 69, 65
1, 468442, Note_off_c, 0, 66, 64
1, 468448, Note_off_c, 0, 59, 51
1, 468448, Note_off_c, 0, 63, 61
1, 468457, Note_off_c, 0, 93, 63
1, 468592, Note_on_c, 0, 66, 51
1, 468594, Note_on_c, 0, 69, 50
1, 468594, Note_on_c, 0, 63, 43
1, 468597, Note_on_c, 0, 59, 38
1, 468613, Note_off_c, 0, 69, 63
1, 468614, Note_off_c, 0, 66, 64
1, 468621, Note_off_c, 0, 63, 59
1, 468628, Note_off_c, 0, 59, 50
1, 468726, Note_on_c, 0, 71, 75
1, 468729, Note_on_c, 0, 69, 53
1, 468732, Note_on_c, 0, 59, 49
1, 468734, Note_on_c, 0, 66, 50
1, 468738, Note_on_c, 0, 63, 49
1, 468759, Note_off_c, 0, 71, 60
1, 468763, Note_off_c, 0, 69, 67
1, 468768, Note_off_c, 0, 66, 65
1, 468771, Note_off_c, 0, 59, 59
1, 468773, Note_off_c, 0, 63, 65
1, 468854, Control_c, 0, 64, 122
1, 468877, Control_c, 0, 64, 97
1, 468893, Control_c, 0, 64, 76
1, 468899, Note_on_c, 0, 83, 83
1, 468907, Control_c, 0, 64, 0
1, 468910, Note_on_c, 0, 59, 47
1, 468915, Note_on_c, 0, 69, 54
1, 468919, Note_on_c, 0, 66, 50
1, 468925, Note_on_c, 0, 63, 38
1, 468940, Note_off_c, 0, 69, 62
1, 468947, Note_off_c, 0, 66, 58
1, 468951, Note_off_c, 0, 63, 57
1, 468959, Note_off_c, 0, 59, 56
1, 468964, Note_off_c, 0, 83, 59
1, 468966, Control_c, 0, 64, 66
1, 468968, Note_on_c, 0, 81, 76
1, 468981, Control_c, 0, 64, 76
1, 468996, Control_c, 0, 64, 89
1, 469011, Control_c, 0, 64, 99
1, 469026, Control_c, 0, 64, 105
1, 469040, Control_c, 0, 64, 110
1, 469051, Note_on_c, 0, 78, 79
1, 469055, Note_on_c, 0, 69, 49
1, 469055, Note_off_c, 0, 81, 60
1, 469055, Control_c, 0, 64, 115
1, 469056, Note_on_c, 0, 66, 51
1, 469059, Note_on_c, 0, 63, 51
1, 469070, Note_on_c, 0, 59, 52
1, 469070, Control_c, 0, 64, 120
1, 469085, Note_off_c, 0, 69, 63
1, 469085, Control_c, 0, 64, 127
1, 469099, Note_off_c, 0, 66, 63
1, 469100, Note_off_c, 0, 63, 61
1, 469103, Note_off_c, 0, 59, 57
1, 469119, Note_off_c, 0, 78, 63
1, 469120, Note_on_c, 0, 75, 77
1, 469173, Note_off_c, 0, 75, 66
1, 469198, Note_on_c, 0, 72, 65
1, 469209, Note_on_c, 0, 59, 52
1, 469213, Note_on_c, 0, 69, 49
1, 469217, Note_on_c, 0, 66, 57
1, 469226, Note_on_c, 0, 63, 43
1, 469236, Note_off_c, 0, 69, 63
1, 469250, Note_off_c, 0, 66, 66
1, 469253, Note_off_c, 0, 63, 60
1, 469253, Note_off_c, 0, 59, 55
1, 469258, Note_off_c, 0, 72, 61
1, 469274, Note_on_c, 0, 71, 72
1, 469352, Control_c, 0, 64, 124
1, 469357, Note_off_c, 0, 71, 58
1, 469357, Note_on_c, 0, 70, 74
1, 469366, Control_c, 0, 64, 98
1, 469368, Note_on_c, 0, 69, 53
1, 469369, Note_on_c, 0, 63, 49
1, 469370, Note_on_c, 0, 59, 52
1, 469372, Note_on_c, 0, 66, 57
1, 469381, Control_c, 0, 64, 77
1, 469396, Control_c, 0, 64, 36
1, 469405, Note_off_c, 0, 69, 63
1, 469407, Note_off_c, 0, 66, 63
1, 469407, Note_off_c, 0, 70, 62
1, 469411, Control_c, 0, 64, 0
1, 469411, Note_off_c, 0, 63, 62
1, 469418, Note_off_c, 0, 59, 57
1, 469426, Note_on_c, 0, 71, 63
1, 469440, Control_c, 0, 64, 56
1, 469455, Control_c, 0, 64, 71
1, 469470, Control_c, 0, 64, 84
1, 469485, Control_c, 0, 64, 98
1, 469486, Note_off_c, 0, 71, 57
1, 469500, Control_c, 0, 64, 108
1, 469514, Control_c, 0, 64, 115
1, 469515, Note_on_c, 0, 75, 75
1, 469519, Note_on_c, 0, 69, 56
1, 469522, Note_on_c, 0, 66, 58
1, 469525, Note_on_c, 0, 59, 53
1, 469527, Note_on_c, 0, 63, 51
1, 469529, Control_c, 0, 64, 118
1, 469544, Control_c, 0, 64, 126
1, 469551, Note_off_c, 0, 69, 62
1, 469558, Control_c, 0, 64, 127
1, 469561, Note_off_c, 0, 66, 62
1, 469563, Note_off_c, 0, 63, 63
1, 469563, Note_off_c, 0, 59, 58
1, 469567, Note_off_c, 0, 75, 63
1, 469578, Note_on_c, 0, 71, 67
1, 469641, Note_off_c, 0, 71, 61
1, 469666, Note_on_c, 0, 78, 80
1, 469680, Note_on_c, 0, 69, 54
1, 469682, Note_on_c, 0, 66, 58
1, 469686, Note_on_c, 0, 59, 48
1, 469686, Note_on_c, 0, 63, 53
1, 469716, Note_off_c, 0, 69, 62
1, 469718, Note_off_c, 0, 78, 59
1, 469724, Note_off_c, 0, 63, 62
1, 469726, Note_off_c, 0, 66, 61
1, 469728, Note_off_c, 0, 59, 57
1, 469739, Note_on_c, 0, 71, 67
1, 469788, Note_off_c, 0, 71, 60
1, 469822, Note_on_c, 0, 83, 70
1, 469836, Note_on_c, 0, 59, 54
1, 469838, Note_on_c, 0, 66, 62
1, 469838, Note_on_c, 0, 69, 59
1, 469845, Note_off_c, 0, 83, 67
1, 469849, Note_on_c, 0, 63, 47
1, 469868, Note_off_c, 0, 69, 64
1, 469869, Note_off_c, 0, 66, 62
1, 469876, Note_off_c, 0, 63, 61
1, 469880, Note_off_c, 0, 59, 55
1, 469888, Note_on_c, 0, 71, 70
1, 469910, Note_off_c, 0, 71, 69
1, 469970, Note_on_c, 0, 87, 84
1, 469979, Note_on_c, 0, 69, 64
1, 469981, Note_on_c, 0, 66, 66
1, 469982, Note_on_c, 0, 59, 58
1, 469982, Note_on_c, 0, 63, 55
1, 469990, Note_off_c, 0, 87, 68
1, 470016, Note_off_c, 0, 69, 64
1, 470018, Note_off_c, 0, 66, 58
1, 470019, Note_off_c, 0, 63, 61
1, 470038, Note_off_c, 0, 59, 56
1, 470044, Note_on_c, 0, 71, 75
1, 470069, Note_off_c, 0, 71, 65
1, 470133, Note_on_c, 0, 90, 83
1, 470136, Note_on_c, 0, 66, 62
1, 470140, Note_on_c, 0, 69, 56
1, 470146, Note_on_c, 0, 63, 52
1, 470151, Note_on_c, 0, 59, 52
1, 470152, Note_off_c, 0, 90, 71
1, 470170, Note_off_c, 0, 69, 58
1, 470182, Note_off_c, 0, 66, 49
1, 470188, Note_off_c, 0, 63, 60
1, 470191, Note_off_c, 0, 59, 57
1, 470213, Note_on_c, 0, 71, 80
1, 470255, Note_off_c, 0, 71, 60
1, 470370, Note_on_c, 0, 59, 52
1, 470372, Note_on_c, 0, 66, 54
1, 470374, Note_on_c, 0, 69, 51
1, 470380, Note_on_c, 0, 63, 45
1, 470380, Note_on_c, 0, 93, 87
1, 470396, Note_on_c, 0, 95, 67
1, 470397, Note_off_c, 0, 95, 127
1, 470401, Note_off_c, 0, 69, 57
1, 470407, Note_off_c, 0, 66, 62
1, 470413, Note_off_c, 0, 63, 55
1, 470419, Note_off_c, 0, 59, 55
1, 470419, Note_off_c, 0, 93, 63
1, 470547, Note_on_c, 0, 59, 50
1, 470550, Note_on_c, 0, 63, 50
1, 470553, Note_on_c, 0, 69, 51
1, 470558, Note_on_c, 0, 66, 51
1, 470577, Note_off_c, 0, 69, 58
1, 470583, Note_off_c, 0, 59, 56
1, 470588, Note_off_c, 0, 66, 58
1, 470590, Note_off_c, 0, 63, 61
1, 470672, Control_c, 0, 64, 124
1, 470686, Control_c, 0, 64, 109
1, 470689, Note_on_c, 0, 69, 57
1, 470689, Note_on_c, 0, 71, 77
1, 470690, Note_on_c, 0, 66, 63
1, 470701, Control_c, 0, 64, 97
1, 470702, Note_on_c, 0, 59, 49
1, 470708, Note_on_c, 0, 63, 42
1, 470716, Control_c, 0, 64, 86
1, 470717, Note_off_c, 0, 71, 61
1, 470720, Note_off_c, 0, 66, 65
1, 470720, Note_off_c, 0, 69, 69
1, 470728, Note_off_c, 0, 59, 57
1, 470731, Control_c, 0, 64, 77
1, 470741, Note_off_c, 0, 63, 46
1, 470746, Control_c, 0, 64, 69
1, 470760, Control_c, 0, 64, 61
1, 470775, Control_c, 0, 64, 47
1, 470805, Control_c, 0, 64, 48
1, 470834, Control_c, 0, 64, 47
1, 470866, Note_on_c, 0, 64, 59
1, 470871, Note_on_c, 0, 83, 74
1, 470878, Note_on_c, 0, 79, 73
1, 470901, Note_off_c, 0, 79, 66
1, 470906, Note_off_c, 0, 64, 62
1, 470908, Control_c, 0, 64, 47
1, 470923, Control_c, 0, 64, 46
1, 470926, Note_off_c, 0, 83, 60
1, 470937, Note_on_c, 0, 84, 68
1, 470938, Note_on_c, 0, 63, 58
1, 470938, Control_c, 0, 64, 45
1, 470958, Note_on_c, 0, 81, 63
1, 471006, Note_off_c, 0, 84, 54
1, 471016, Note_on_c, 0, 64, 61
1, 471018, Note_off_c, 0, 81, 63
1, 471021, Note_on_c, 0, 79, 65
1, 471035, Note_on_c, 0, 83, 45
1, 471038, Note_off_c, 0, 63, 51
1, 471042, Control_c, 0, 64, 44
1, 471046, Note_off_c, 0, 79, 67
1, 471057, Control_c, 0, 64, 44
1, 471061, Note_off_c, 0, 83, 36
1, 471092, Note_off_c, 0, 64, 62
1, 471095, Note_on_c, 0, 66, 65
1, 471108, Control_c, 0, 64, 44
1, 471116, Note_on_c, 0, 78, 74
1, 471119, Note_on_c, 0, 81, 70
1, 471149, Note_off_c, 0, 81, 57
1, 471155, Note_off_c, 0, 78, 58
1, 471167, Control_c, 0, 64, 45
1, 471171, Note_off_c, 0, 66, 57
1, 471186, Note_on_c, 0, 79, 68
1, 471187, Note_on_c, 0, 67, 72
1, 471193, Note_on_c, 0, 76, 64
1, 471197, Control_c, 0, 64, 45
1, 471211, Note_off_c, 0, 79, 67
1, 471212, Note_off_c, 0, 76, 68
1, 471215, Note_off_c, 0, 67, 65
1, 471227, Control_c, 0, 64, 44
1, 471242, Control_c, 0, 64, 44
1, 471271, Control_c, 0, 64, 43
1, 471287, Control_c, 0, 64, 44
1, 471302, Control_c, 0, 64, 44
1, 471316, Control_c, 0, 64, 45
1, 471331, Control_c, 0, 64, 46
1, 471343, Note_on_c, 0, 67, 71
1, 471348, Note_on_c, 0, 79, 69
1, 471353, Note_on_c, 0, 76, 62
1, 471373, Note_off_c, 0, 79, 66
1, 471376, Control_c, 0, 64, 45
1, 471391, Control_c, 0, 64, 45
1, 471394, Note_on_c, 0, 81, 60
1, 471395, Note_off_c, 0, 67, 58
1, 471395, Note_off_c, 0, 76, 59
1, 471405, Control_c, 0, 64, 43
1, 471415, Note_on_c, 0, 66, 68
1, 471418, Note_on_c, 0, 78, 73
1, 471420, Control_c, 0, 64, 43
1, 471437, Note_off_c, 0, 81, 59
1, 471480, Note_off_c, 0, 78, 63
1, 471483, Note_on_c, 0, 79, 64
1, 471488, Note_on_c, 0, 67, 65
1, 471489, Note_off_c, 0, 66, 64
1, 471500, Note_on_c, 0, 76, 58
1, 471503, Note_off_c, 0, 79, 65
1, 471517, Note_off_c, 0, 76, 67
1, 471539, Control_c, 0, 64, 42
1, 471543, Note_off_c, 0, 67, 55
1, 471554, Control_c, 0, 64, 42
1, 471570, Note_on_c, 0, 69, 66
1, 471575, Note_on_c, 0, 78, 71
1, 471596, Note_on_c, 0, 75, 46
1, 471598, Control_c, 0, 64, 42
1, 471599, Note_off_c, 0, 69, 68
1, 471599, Note_off_c, 0, 78, 67
1, 471613, Control_c, 0, 64, 43
1, 471619, Note_off_c, 0, 75, 55
1, 471648, Note_on_c, 0, 67, 72
1, 471648, Note_on_c, 0, 76, 70
1, 471654, Note_on_c, 0, 71, 71
1, 471657, Control_c, 0, 64, 41
1, 471672, Control_c, 0, 64, 38
1, 471676, Note_off_c, 0, 67, 65
1, 471677, Note_off_c, 0, 76, 64
1, 471679, Note_off_c, 0, 71, 66
1, 471687, Control_c, 0, 64, 34
1, 471702, Control_c, 0, 64, 32
1, 471760, Control_c, 0, 64, 33
1, 471790, Control_c, 0, 64, 34
1, 471805, Control_c, 0, 64, 35
1, 471845, Note_on_c, 0, 76, 84
1, 471857, Control_c, 0, 64, 34
1, 471858, Note_on_c, 0, 72, 76
1, 471860, Note_on_c, 0, 69, 68
1, 471882, Note_off_c, 0, 72, 67
1, 471887, Control_c, 0, 64, 34
1, 471902, Control_c, 0, 64, 33
1, 471904, Note_off_c, 0, 69, 59
1, 471911, Note_on_c, 0, 77, 70
1, 471913, Note_off_c, 0, 76, 63
1, 471927, Note_on_c, 0, 68, 74
1, 471928, Note_on_c, 0, 74, 67
1, 471931, Control_c, 0, 64, 32
1, 471971, Note_off_c, 0, 68, 59
1, 471987, Note_off_c, 0, 77, 55
1, 471995, Note_off_c, 0, 74, 62
1, 472000, Note_on_c, 0, 72, 61
1, 472005, Note_on_c, 0, 76, 67
1, 472008, Note_on_c, 0, 69, 68
1, 472020, Control_c, 0, 64, 33
1, 472025, Note_off_c, 0, 72, 61
1, 472053, Note_off_c, 0, 69, 62
1, 472066, Note_off_c, 0, 76, 61
1, 472072, Note_on_c, 0, 77, 60
1, 472077, Note_on_c, 0, 68, 71
1, 472085, Note_on_c, 0, 74, 58
1, 472096, Control_c, 0, 64, 32
1, 472124, Note_off_c, 0, 68, 60
1, 472133, Note_off_c, 0, 77, 45
1, 472134, Note_off_c, 0, 74, 52
1, 472140, Control_c, 0, 64, 33
1, 472150, Note_on_c, 0, 72, 66
1, 472155, Control_c, 0, 64, 34
1, 472157, Note_on_c, 0, 69, 69
1, 472161, Note_on_c, 0, 76, 64
1, 472187, Note_off_c, 0, 72, 59
1, 472209, Note_off_c, 0, 69, 62
1, 472214, Control_c, 0, 64, 33
1, 472218, Note_off_c, 0, 76, 64
1, 472229, Note_on_c, 0, 68, 71
1, 472229, Control_c, 0, 64, 32
1, 472244, Note_on_c, 0, 77, 44
1, 472244, Control_c, 0, 64, 31
1, 472245, Note_on_c, 0, 74, 51
1, 472258, Control_c, 0, 64, 30
1, 472271, Note_off_c, 0, 74, 58
1, 472273, Control_c, 0, 64, 24
1, 472278, Note_off_c, 0, 77, 49
1, 472288, Control_c, 0, 64, 0
1, 472298, Note_off_c, 0, 68, 62
1, 472331, Note_on_c, 0, 69, 71
1, 472332, Note_on_c, 0, 72, 65
1, 472332, Note_on_c, 0, 76, 73
1, 472398, Note_off_c, 0, 69, 65
1, 472422, Control_c, 0, 64, 59
1, 472437, Control_c, 0, 64, 69
1, 472452, Control_c, 0, 64, 72
1, 472467, Control_c, 0, 64, 75
1, 472482, Control_c, 0, 64, 76
1, 472496, Control_c, 0, 64, 77
1, 472511, Control_c, 0, 64, 78
1, 472526, Control_c, 0, 64, 79
1, 472541, Control_c, 0, 64, 79
1, 472652, Note_on_c, 0, 64, 79
1, 472719, Note_off_c, 0, 64, 63
1, 472720, Note_on_c, 0, 62, 81
1, 472792, Note_off_c, 0, 72, 57
1, 472795, Note_on_c, 0, 60, 76
1, 472808, Note_off_c, 0, 76, 59
1, 472820, Note_off_c, 0, 62, 62
1, 472872, Note_on_c, 0, 59, 77
1, 472874, Control_c, 0, 64, 78
1, 472883, Note_off_c, 0, 60, 61
1, 472890, Control_c, 0, 64, 71
1, 472905, Control_c, 0, 64, 55
1, 472920, Control_c, 0, 64, 0
1, 472923, Note_off_c, 0, 59, 64
1, 472955, Note_on_c, 0, 76, 80
1, 472959, Note_on_c, 0, 72, 87
1, 472970, Note_on_c, 0, 60, 76
1, 472994, Control_c, 0, 64, 63
1, 473009, Control_c, 0, 64, 68
1, 473024, Control_c, 0, 64, 68
1, 473039, Note_on_c, 0, 59, 77
1, 473048, Note_off_c, 0, 60, 60
1, 473069, Control_c, 0, 64, 69
1, 473083, Control_c, 0, 64, 69
1, 473113, Control_c, 0, 64, 70
1, 473117, Note_on_c, 0, 57, 63
1, 473141, Note_off_c, 0, 59, 62
1, 473177, Note_on_c, 0, 56, 74
1, 473179, Note_off_c, 0, 72, 61
1, 473201, Control_c, 0, 64, 70
1, 473203, Note_off_c, 0, 57, 63
1, 473207, Note_off_c, 0, 76, 63
1, 473216, Control_c, 0, 64, 71
1, 473231, Control_c, 0, 64, 71
1, 473239, Note_off_c, 0, 56, 64
1, 473246, Control_c, 0, 64, 70
1, 473261, Control_c, 0, 64, 66
1, 473275, Control_c, 0, 64, 42
1, 473286, Note_on_c, 0, 76, 92
1, 473288, Note_on_c, 0, 57, 75
1, 473289, Note_on_c, 0, 72, 87
1, 473290, Control_c, 0, 64, 0
1, 473357, Control_c, 0, 64, 60
1, 473366, Note_on_c, 0, 55, 79
1, 473372, Control_c, 0, 64, 67
1, 473373, Note_off_c, 0, 57, 61
1, 473387, Control_c, 0, 64, 68
1, 473431, Control_c, 0, 64, 68
1, 473447, Note_on_c, 0, 53, 73
1, 473477, Note_off_c, 0, 55, 63
1, 473506, Note_off_c, 0, 72, 61
1, 473520, Note_on_c, 0, 52, 73
1, 473529, Note_off_c, 0, 76, 64
1, 473534, Control_c, 0, 64, 68
1, 473538, Note_off_c, 0, 53, 64
1, 473575, Note_off_c, 0, 52, 64
1, 473609, Note_on_c, 0, 53, 74
1, 473611, Note_on_c, 0, 76, 86
1, 473612, Note_on_c, 0, 72, 91
1, 473653, Control_c, 0, 64, 68
1, 473684, Note_on_c, 0, 52, 85
1, 473692, Note_off_c, 0, 53, 64
1, 473762, Note_on_c, 0, 50, 72
1, 473787, Control_c, 0, 64, 68
1, 473802, Note_off_c, 0, 52, 58
1, 473823, Note_off_c, 0, 72, 61
1, 473831, Control_c, 0, 64, 66
1, 473834, Note_on_c, 0, 48, 78
1, 473846, Control_c, 0, 64, 58
1, 473849, Note_off_c, 0, 76, 64
1, 473856, Note_off_c, 0, 50, 62
1, 473861, Control_c, 0, 64, 0
1, 473892, Note_off_c, 0, 48, 66
1, 473930, Note_on_c, 0, 76, 87
1, 473930, Note_on_c, 0, 50, 79
1, 473933, Note_on_c, 0, 72, 88
1, 473935, Control_c, 0, 64, 27
1, 473949, Control_c, 0, 64, 64
1, 473964, Control_c, 0, 64, 67
1, 473979, Control_c, 0, 64, 66
1, 473994, Control_c, 0, 64, 66
1, 474003, Note_on_c, 0, 48, 83
1, 474009, Control_c, 0, 64, 65
1, 474021, Note_off_c, 0, 50, 62
1, 474077, Note_on_c, 0, 47, 67
1, 474109, Note_off_c, 0, 76, 63
1, 474122, Note_off_c, 0, 48, 64
1, 474135, Note_off_c, 0, 72, 62
1, 474149, Note_on_c, 0, 45, 75
1, 474164, Control_c, 0, 64, 65
1, 474177, Note_off_c, 0, 47, 64
1, 474195, Note_off_c, 0, 45, 63
1, 474224, Control_c, 0, 64, 64
1, 474238, Control_c, 0, 64, 63
1, 474253, Control_c, 0, 64, 56
1, 474268, Control_c, 0, 64, 0
1, 474283, Control_c, 0, 67, 8
1, 474293, Note_on_c, 0, 42, 88
1, 474296, Note_on_c, 0, 72, 90
1, 474297, Note_on_c, 0, 74, 82
1, 474299, Note_on_c, 0, 69, 98
1, 474312, Control_c, 0, 67, 8
1, 474386, Control_c, 0, 64, 51
1, 474386, Control_c, 0, 67, 0
1, 474401, Control_c, 0, 64, 70
1, 474416, Control_c, 0, 64, 79
1, 474431, Control_c, 0, 64, 90
1, 474446, Control_c, 0, 64, 100
1, 474461, Control_c, 0, 64, 108
1, 474476, Control_c, 0, 64, 113
1, 474491, Control_c, 0, 64, 118
1, 474506, Control_c, 0, 64, 124
1, 474521, Control_c, 0, 64, 127
1, 474554, Note_off_c, 0, 42, 62
1, 474604, Note_off_c, 0, 69, 58
1, 474828, Note_off_c, 0, 74, 56
1, 474863, Note_on_c, 0, 76, 65
1, 474867, Note_off_c, 0, 72, 58
1, 474869, Note_on_c, 0, 31, 66
1, 474870, Note_on_c, 0, 43, 73
1, 474871, Note_on_c, 0, 67, 62
1, 474893, Note_off_c, 0, 31, 65
1, 474893, Note_off_c, 0, 76, 67
1, 474899, Control_c, 0, 64, 116
1, 474902, Note_off_c, 0, 67, 64
1, 474914, Control_c, 0, 64, 99
1, 474915, Note_off_c, 0, 43, 54
1, 474928, Control_c, 0, 64, 82
1, 474943, Control_c, 0, 64, 69
1, 474958, Control_c, 0, 64, 52
1, 474973, Control_c, 0, 64, 0
1, 475028, Note_on_c, 0, 59, 63
1, 475041, Note_on_c, 0, 47, 66
1, 475069, Note_off_c, 0, 59, 58
1, 475104, Note_on_c, 0, 60, 64
1, 475117, Note_on_c, 0, 48, 63
1, 475126, Note_off_c, 0, 47, 60
1, 475131, Note_off_c, 0, 60, 63
1, 475182, Note_off_c, 0, 48, 65
1, 475188, Note_on_c, 0, 51, 70
1, 475199, Note_on_c, 0, 63, 76
1, 475239, Note_off_c, 0, 63, 59
1, 475242, Note_off_c, 0, 51, 59
1, 475271, Note_on_c, 0, 52, 63
1, 475274, Note_on_c, 0, 64, 69
1, 475293, Note_off_c, 0, 52, 66
1, 475302, Note_off_c, 0, 64, 68
1, 475349, Note_on_c, 0, 54, 71
1, 475372, Note_on_c, 0, 66, 71
1, 475401, Note_off_c, 0, 66, 65
1, 475402, Note_off_c, 0, 54, 60
1, 475424, Note_on_c, 0, 55, 71
1, 475436, Note_on_c, 0, 67, 68
1, 475455, Note_off_c, 0, 55, 67
1, 475461, Note_off_c, 0, 67, 65
1, 475520, Note_on_c, 0, 59, 74
1, 475525, Note_on_c, 0, 71, 72
1, 475557, Note_off_c, 0, 71, 62
1, 475586, Note_on_c, 0, 60, 69
1, 475591, Note_on_c, 0, 72, 71
1, 475612, Note_off_c, 0, 59, 53
1, 475622, Note_off_c, 0, 72, 70
1, 475662, Note_off_c, 0, 60, 61
1, 475667, Note_on_c, 0, 63, 76
1, 475704, Note_on_c, 0, 74, 50
1, 475723, Note_off_c, 0, 63, 64
1, 475725, Note_off_c, 0, 74, 61
1, 475746, Note_on_c, 0, 64, 70
1, 475781, Note_on_c, 0, 76, 29
1, 475782, Note_off_c, 0, 76, 127
1, 475784, Note_off_c, 0, 64, 65
1, 475825, Note_on_c, 0, 66, 82
1, 475830, Note_on_c, 0, 78, 86
1, 475874, Note_off_c, 0, 78, 62
1, 475897, Note_off_c, 0, 66, 65
1, 475911, Note_on_c, 0, 79, 81
1, 475916, Note_on_c, 0, 67, 92
1, 476077, Note_off_c, 0, 67, 61
1, 476106, Note_off_c, 0, 79, 64
1, 476537, Note_on_c, 0, 71, 60
1, 476540, Note_on_c, 0, 65, 52
1, 476541, Note_on_c, 0, 67, 48
1, 476542, Note_on_c, 0, 62, 51
1, 476550, Note_on_c, 0, 55, 44
1, 476558, Note_on_c, 0, 43, 39
1, 476673, Note_off_c, 0, 55, 64
1, 476683, Note_off_c, 0, 62, 62
1, 476688, Note_off_c, 0, 71, 60
1, 476695, Note_off_c, 0, 43, 54
1, 476700, Note_off_c, 0, 65, 64
1, 476706, Note_off_c, 0, 67, 63
1, 477062, Note_on_c, 0, 60, 90
1, 477063, Note_on_c, 0, 72, 83
1, 477064, Note_on_c, 0, 67, 75
1, 477065, Note_on_c, 0, 48, 80
1, 477065, Note_on_c, 0, 64, 79
1, 477068, Note_on_c, 0, 36, 72
1, 477089, Note_off_c, 0, 36, 67
1, 477103, Note_off_c, 0, 48, 66
1, 477113, Note_off_c, 0, 60, 62
1, 477117, Control_c, 0, 64, 66
1, 477131, Control_c, 0, 64, 86
1, 477132, Note_off_c, 0, 64, 64
1, 477139, Note_off_c, 0, 67, 62
1, 477146, Control_c, 0, 64, 118
1, 477161, Control_c, 0, 64, 127
1, 477162, Note_off_c, 0, 72, 65
1, 477260, Note_on_c, 0, 60, 74
1, 477268, Note_on_c, 0, 55, 56
1, 477269, Note_on_c, 0, 52, 55
1, 477271, Note_on_c, 0, 48, 52
1, 477284, Note_off_c, 0, 60, 64
1, 477302, Note_off_c, 0, 55, 52
1, 477308, Note_off_c, 0, 48, 51
1, 477311, Note_off_c, 0, 52, 64
1, 477424, Note_on_c, 0, 78, 79
1, 477427, Note_on_c, 0, 60, 65
1, 477430, Note_on_c, 0, 55, 52
1, 477433, Note_on_c, 0, 52, 56
1, 477439, Note_on_c, 0, 48, 48
1, 477455, Note_off_c, 0, 60, 66
1, 477468, Note_off_c, 0, 52, 63
1, 477469, Note_off_c, 0, 48, 57
1, 477479, Note_off_c, 0, 55, 62
1, 477480, Note_on_c, 0, 87, 76
1, 477490, Note_off_c, 0, 78, 59
1, 477514, Note_off_c, 0, 87, 62
1, 477579, Note_on_c, 0, 88, 98
1, 477586, Note_on_c, 0, 79, 86
1, 477591, Note_on_c, 0, 48, 60
1, 477594, Note_on_c, 0, 52, 62
1, 477596, Note_on_c, 0, 55, 61
1, 477596, Note_on_c, 0, 60, 68
1, 477617, Note_off_c, 0, 88, 65
1, 477619, Note_off_c, 0, 60, 68
1, 477622, Note_off_c, 0, 79, 60
1, 477627, Note_off_c, 0, 52, 65
1, 477632, Note_off_c, 0, 55, 63
1, 477633, Note_off_c, 0, 48, 61
1, 477755, Note_on_c, 0, 75, 79
1, 477761, Note_on_c, 0, 60, 59
1, 477763, Note_on_c, 0, 48, 54
1, 477764, Note_on_c, 0, 52, 51
1, 477771, Note_on_c, 0, 55, 45
1, 477783, Note_off_c, 0, 60, 61
1, 477798, Note_off_c, 0, 75, 62
1, 477802, Note_on_c, 0, 83, 73
1, 477802, Note_off_c, 0, 48, 63
1, 477812, Note_off_c, 0, 52, 58
1, 477813, Note_off_c, 0, 55, 59
1, 477857, Note_off_c, 0, 83, 61
1, 477905, Note_on_c, 0, 84, 87
1, 477913, Note_on_c, 0, 60, 60
1, 477917, Note_on_c, 0, 48, 56
1, 477918, Note_on_c, 0, 55, 65
1, 477919, Note_on_c, 0, 76, 71
1, 477936, Note_on_c, 0, 52, 56
1, 477936, Note_off_c, 0, 84, 63
1, 477940, Note_off_c, 0, 76, 69
1, 477946, Note_off_c, 0, 60, 61
1, 477952, Note_off_c, 0, 55, 61
1, 477960, Note_off_c, 0, 48, 57
1, 477969, Note_off_c, 0, 52, 66
1, 478080, Note_on_c, 0, 75, 85
1, 478088, Note_on_c, 0, 60, 68
1, 478094, Note_on_c, 0, 52, 52
1, 478096, Note_on_c, 0, 55, 59
1, 478097, Note_on_c, 0, 48, 54
1, 478111, Note_off_c, 0, 75, 55
1, 478120, Note_off_c, 0, 60, 62
1, 478136, Note_off_c, 0, 48, 62
1, 478137, Note_off_c, 0, 52, 58
1, 478140, Note_off_c, 0, 55, 58
1, 478142, Note_on_c, 0, 78, 74
1, 478196, Note_off_c, 0, 78, 60
1, 478223, Note_on_c, 0, 79, 82
1, 478228, Note_on_c, 0, 76, 77
1, 478239, Note_on_c, 0, 60, 70
1, 478246, Note_on_c, 0, 55, 61
1, 478249, Note_on_c, 0, 48, 51
1, 478253, Note_on_c, 0, 52, 64
1, 478257, Note_off_c, 0, 79, 61
1, 478259, Note_off_c, 0, 76, 64
1, 478267, Note_off_c, 0, 60, 63
1, 478281, Note_off_c, 0, 55, 64
1, 478282, Note_off_c, 0, 52, 67
1, 478283, Note_off_c, 0, 48, 52
1, 478398, Note_on_c, 0, 66, 77
1, 478409, Note_on_c, 0, 52, 44
1, 478414, Note_on_c, 0, 48, 47
1, 478415, Note_on_c, 0, 60, 55
1, 478417, Note_on_c, 0, 55, 51
1, 478431, Note_off_c, 0, 60, 65
1, 478456, Note_off_c, 0, 48, 62
1, 478457, Note_off_c, 0, 55, 62
1, 478457, Note_off_c, 0, 66, 64
1, 478459, Note_on_c, 0, 75, 72
1, 478461, Note_off_c, 0, 52, 56
1, 478489, Note_off_c, 0, 75, 65
1, 478546, Note_on_c, 0, 76, 95
1, 478554, Note_on_c, 0, 67, 87
1, 478557, Note_on_c, 0, 60, 55
1, 478561, Note_on_c, 0, 48, 60
1, 478565, Note_on_c, 0, 55, 63
1, 478576, Note_on_c, 0, 52, 63
1, 478585, Note_off_c, 0, 76, 68
1, 478589, Note_off_c, 0, 67, 59
1, 478600, Note_off_c, 0, 60, 60
1, 478613, Note_off_c, 0, 55, 61
1, 478615, Note_off_c, 0, 52, 65
1, 478617, Note_off_c, 0, 48, 59
1, 478729, Note_on_c, 0, 52, 50
1, 478729, Note_on_c, 0, 63, 79
1, 478733, Note_on_c, 0, 60, 57
1, 478735, Note_on_c, 0, 55, 50
1, 478736, Note_on_c, 0, 48, 53
1, 478754, Note_off_c, 0, 60, 61
1, 478768, Note_off_c, 0, 63, 61
1, 478772, Note_off_c, 0, 48, 62
1, 478781, Note_off_c, 0, 52, 57
1, 478784, Note_off_c, 0, 55, 58
1, 478787, Note_on_c, 0, 71, 77
1, 478831, Note_off_c, 0, 71, 60
1, 478873, Note_on_c, 0, 60, 63
1, 478876, Note_on_c, 0, 72, 92
1, 478882, Note_on_c, 0, 64, 87
1, 478885, Note_on_c, 0, 55, 65
1, 478889, Note_on_c, 0, 48, 63
1, 478902, Note_off_c, 0, 60, 64
1, 478902, Note_on_c, 0, 52, 56
1, 478914, Note_off_c, 0, 64, 62
1, 478916, Note_off_c, 0, 55, 66
1, 478920, Note_off_c, 0, 72, 64
1, 478932, Note_off_c, 0, 52, 68
1, 478944, Note_off_c, 0, 48, 64
1, 479028, Control_c, 0, 64, 101
1, 479028, Control_c, 0, 67, 8
1, 479043, Control_c, 0, 64, 70
1, 479043, Control_c, 0, 67, 9
1, 479058, Control_c, 0, 64, 0
1, 479058, Control_c, 0, 67, 9
1, 479073, Control_c, 0, 67, 10
1, 479078, Note_on_c, 0, 71, 90
1, 479079, Note_on_c, 0, 62, 90
1, 479085, Note_on_c, 0, 53, 61
1, 479088, Note_on_c, 0, 43, 61
1, 479092, Note_on_c, 0, 50, 54
1, 479117, Control_c, 0, 67, 9
1, 479120, Note_off_c, 0, 53, 64
1, 479123, Note_off_c, 0, 50, 59
1, 479132, Control_c, 0, 64, 67
1, 479132, Control_c, 0, 67, 8
1, 479134, Note_off_c, 0, 43, 56
1, 479147, Control_c, 0, 64, 83
1, 479147, Control_c, 0, 67, 0
1, 479162, Control_c, 0, 64, 105
1, 479164, Note_off_c, 0, 71, 57
1, 479177, Control_c, 0, 64, 127
1, 479180, Note_off_c, 0, 62, 56
1, 479237, Note_on_c, 0, 50, 54
1, 479245, Note_on_c, 0, 53, 54
1, 479251, Note_on_c, 0, 43, 46
1, 479272, Note_off_c, 0, 53, 60
1, 479273, Note_off_c, 0, 50, 62
1, 479282, Note_off_c, 0, 43, 56
1, 479349, Note_on_c, 0, 65, 72
1, 479389, Note_on_c, 0, 62, 72
1, 479390, Note_off_c, 0, 65, 62
1, 479393, Note_on_c, 0, 53, 58
1, 479394, Note_on_c, 0, 43, 52
1, 479400, Note_on_c, 0, 50, 54
1, 479433, Note_off_c, 0, 62, 59
1, 479443, Note_on_c, 0, 59, 59
1, 479448, Note_off_c, 0, 53, 57
1, 479448, Note_off_c, 0, 43, 55
1, 479462, Note_off_c, 0, 59, 63
1, 479473, Note_off_c, 0, 50, 45
1, 479504, Note_on_c, 0, 56, 78
1, 479548, Note_on_c, 0, 55, 83
1, 479556, Note_off_c, 0, 56, 64
1, 479558, Note_on_c, 0, 53, 69
1, 479561, Note_on_c, 0, 50, 58
1, 479561, Note_on_c, 0, 43, 62
1, 479591, Note_off_c, 0, 55, 66
1, 479593, Note_off_c, 0, 53, 62
1, 479602, Note_off_c, 0, 50, 59
1, 479607, Note_off_c, 0, 43, 56
1, 479707, Note_on_c, 0, 77, 79
1, 479734, Note_on_c, 0, 43, 51
1, 479738, Note_on_c, 0, 50, 49
1, 479752, Note_off_c, 0, 77, 62
1, 479757, Note_on_c, 0, 53, 30
1, 479765, Note_on_c, 0, 74, 56
1, 479779, Note_on_c, 0, 76, 39
1, 479787, Note_off_c, 0, 53, 55
1, 479788, Note_off_c, 0, 43, 52
1, 479791, Note_off_c, 0, 74, 63
1, 479803, Note_on_c, 0, 71, 60
1, 479808, Note_off_c, 0, 76, 44
1, 479822, Note_off_c, 0, 71, 63
1, 479841, Note_off_c, 0, 50, 55
1, 479853, Note_on_c, 0, 68, 82
1, 479896, Note_on_c, 0, 67, 87
1, 479905, Note_on_c, 0, 53, 70
1, 479906, Note_on_c, 0, 43, 66
1, 479906, Note_on_c, 0, 50, 59
1, 479907, Note_off_c, 0, 68, 63
1, 479943, Note_off_c, 0, 67, 63
1, 479947, Note_off_c, 0, 53, 62
1, 479957, Note_off_c, 0, 50, 55
1, 479958, Note_off_c, 0, 43, 51
1, 480047, Note_on_c, 0, 89, 82
1, 480092, Note_on_c, 0, 43, 55
1, 480110, Note_on_c, 0, 50, 53
1, 480111, Note_off_c, 0, 89, 65
1, 480112, Note_on_c, 0, 86, 75
1, 480147, Note_off_c, 0, 86, 64
1, 480152, Note_off_c, 0, 43, 53
1, 480153, Note_on_c, 0, 83, 69
1, 480178, Note_off_c, 0, 83, 66
1, 480208, Note_off_c, 0, 50, 51
1, 480216, Note_on_c, 0, 80, 73
1, 480235, Note_off_c, 0, 80, 40
1, 480240, Note_on_c, 0, 79, 71
1, 480268, Note_on_c, 0, 50, 48
1, 480270, Note_on_c, 0, 53, 74
1, 480278, Note_on_c, 0, 43, 57
1, 480301, Note_off_c, 0, 53, 64
1, 480305, Note_off_c, 0, 79, 63
1, 480309, Note_off_c, 0, 50, 61
1, 480311, Note_off_c, 0, 43, 62
1, 480411, Note_on_c, 0, 77, 75
1, 480437, Note_on_c, 0, 74, 77
1, 480441, Note_off_c, 0, 77, 58
1, 480448, Note_on_c, 0, 53, 55
1, 480450, Note_on_c, 0, 50, 55
1, 480456, Note_on_c, 0, 43, 45
1, 480478, Note_off_c, 0, 53, 56
1, 480487, Note_off_c, 0, 74, 63
1, 480494, Note_off_c, 0, 43, 50
1, 480494, Note_off_c, 0, 50, 56
1, 480497, Note_on_c, 0, 71, 69
1, 480535, Note_off_c, 0, 71, 57
1, 480557, Note_on_c, 0, 68, 53
1, 480558, Note_off_c, 0, 68, 127
1, 480598, Note_on_c, 0, 43, 58
1, 480598, Note_on_c, 0, 67, 87
1, 480599, Note_on_c, 0, 53, 66
1, 480608, Note_on_c, 0, 50, 65
1, 480622, Note_off_c, 0, 53, 70
1, 480640, Note_off_c, 0, 50, 65
1, 480646, Note_off_c, 0, 67, 63
1, 480652, Note_off_c, 0, 43, 58
1, 480659, Poly_aftertouch_c, 0, 69, 0
1, 480688, Control_c, 0, 67, 8
1, 480703, Control_c, 0, 67, 9
1, 480717, Control_c, 0, 64, 96
1, 480717, Control_c, 0, 67, 9
1, 480732, Control_c, 0, 64, 71
1, 480747, Control_c, 0, 64, 0
1, 480762, Control_c, 0, 67, 9
1, 480780, Note_on_c, 0, 74, 74
1, 480781, Note_on_c, 0, 67, 98
1, 480782, Note_on_c, 0, 79, 91
1, 480787, Note_on_c, 0, 71, 78
1, 480791, Note_on_c, 0, 53, 68
1, 480795, Note_on_c, 0, 43, 61
1, 480796, Note_on_c, 0, 50, 57
1, 480821, Control_c, 0, 64, 50
1, 480825, Note_off_c, 0, 53, 63
1, 480836, Control_c, 0, 64, 70
1, 480836, Control_c, 0, 67, 8
1, 480852, Note_off_c, 0, 50, 57
1, 480858, Control_c, 0, 64, 82
1, 480864, Note_off_c, 0, 43, 55
1, 480874, Control_c, 0, 64, 92
1, 480874, Control_c, 0, 67, 8
1, 480889, Control_c, 0, 64, 97
1, 480889, Control_c, 0, 67, 0
1, 480903, Control_c, 0, 64, 98
1, 480938, Note_off_c, 0, 71, 58
1, 480962, Control_c, 0, 64, 99
1, 480966, Note_on_c, 0, 50, 69
1, 480975, Note_on_c, 0, 53, 58
1, 480980, Note_on_c, 0, 43, 51
1, 480995, Note_off_c, 0, 50, 66
1, 480995, Note_off_c, 0, 53, 63
1, 481008, Note_off_c, 0, 43, 55
1, 481096, Control_c, 0, 64, 95
1, 481096, Control_c, 0, 67, 9
1, 481104, Note_off_c, 0, 74, 60
1, 481111, Control_c, 0, 64, 83
1, 481111, Control_c, 0, 67, 9
1, 481126, Control_c, 0, 64, 65
1, 481126, Control_c, 0, 67, 10
1, 481140, Control_c, 0, 64, 0
1, 481145, Note_on_c, 0, 72, 68
1, 481149, Note_on_c, 0, 76, 73
1, 481155, Note_on_c, 0, 60, 64
1, 481156, Note_on_c, 0, 55, 56
1, 481158, Note_on_c, 0, 52, 57
1, 481158, Note_off_c, 0, 67, 59
1, 481162, Note_off_c, 0, 79, 52
1, 481164, Note_on_c, 0, 48, 50
1, 481170, Control_c, 0, 67, 10
1, 481177, Note_off_c, 0, 60, 59
1, 481193, Note_off_c, 0, 72, 65
1, 481197, Note_off_c, 0, 55, 62
1, 481201, Note_off_c, 0, 52, 64
1, 481203, Note_off_c, 0, 48, 64
1, 481213, Note_off_c, 0, 76, 66
1, 481214, Control_c, 0, 64, 51
1, 481214, Control_c, 0, 67, 9
1, 481229, Control_c, 0, 64, 70
1, 481244, Control_c, 0, 64, 80
1, 481259, Control_c, 0, 64, 90
1, 481259, Control_c, 0, 67, 9
1, 481274, Control_c, 0, 64, 99
1, 481288, Control_c, 0, 64, 107
1, 481303, Control_c, 0, 64, 115
1, 481303, Control_c, 0, 67, 8
1, 481317, Note_on_c, 0, 55, 58
1, 481317, Note_on_c, 0, 60, 56
1, 481318, Control_c, 0, 64, 123
1, 481322, Note_on_c, 0, 52, 57
1, 481323, Note_on_c, 0, 48, 53
1, 481333, Control_c, 0, 64, 127
1, 481333, Control_c, 0, 67, 8
1, 481338, Note_off_c, 0, 60, 63
1, 481347, Control_c, 0, 67, 0
1, 481350, Note_off_c, 0, 55, 65
1, 481355, Note_off_c, 0, 52, 67
1, 481359, Note_off_c, 0, 48, 55
1, 481460, Note_on_c, 0, 78, 82
1, 481467, Note_on_c, 0, 48, 54
1, 481467, Note_on_c, 0, 60, 52
1, 481475, Note_on_c, 0, 52, 48
1, 481475, Note_on_c, 0, 55, 51
1, 481502, Note_off_c, 0, 60, 62
1, 481508, Note_off_c, 0, 48, 61
1, 481511, Note_off_c, 0, 55, 62
1, 481511, Note_off_c, 0, 78, 59
1, 481511, Note_off_c, 0, 52, 63
1, 481529, Note_on_c, 0, 87, 75
1, 481558, Note_off_c, 0, 87, 60
1, 481570, Control_c, 0, 67, 8
1, 481592, Control_c, 0, 67, 9
1, 481607, Control_c, 0, 64, 97
1, 481607, Control_c, 0, 67, 10
1, 481621, Control_c, 0, 64, 72
1, 481621, Control_c, 0, 67, 11
1, 481636, Control_c, 0, 64, 0
1, 481638, Note_on_c, 0, 88, 98
1, 481644, Note_on_c, 0, 79, 86
1, 481648, Note_on_c, 0, 52, 51
1, 481649, Note_on_c, 0, 48, 59
1, 481649, Note_on_c, 0, 60, 61
1, 481653, Note_on_c, 0, 55, 56
1, 481667, Control_c, 0, 64, 61
1, 481680, Note_off_c, 0, 60, 63
1, 481682, Control_c, 0, 64, 72
1, 481682, Control_c, 0, 67, 10
1, 481686, Note_off_c, 0, 79, 62
1, 481686, Note_off_c, 0, 88, 64
1, 481692, Note_off_c, 0, 48, 62
1, 481697, Control_c, 0, 64, 84
1, 481697, Control_c, 0, 67, 9
1, 481699, Note_off_c, 0, 55, 59
1, 481702, Note_off_c, 0, 52, 60
1, 481712, Control_c, 0, 64, 98
1, 481712, Control_c, 0, 67, 8
1, 481726, Control_c, 0, 64, 107
1, 481741, Control_c, 0, 64, 115
1, 481756, Control_c, 0, 64, 124
1, 481771, Control_c, 0, 64, 127
1, 481786, Control_c, 0, 67, 9
1, 481815, Note_on_c, 0, 75, 76
1, 481818, Note_on_c, 0, 52, 59
1, 481818, Note_on_c, 0, 60, 59
1, 481821, Note_on_c, 0, 55, 54
1, 481822, Note_on_c, 0, 48, 54
1, 481839, Note_off_c, 0, 60, 63
1, 481849, Note_off_c, 0, 75, 61
1, 481860, Note_off_c, 0, 52, 59
1, 481860, Note_off_c, 0, 55, 62
1, 481861, Note_off_c, 0, 48, 63
1, 481865, Note_on_c, 0, 83, 73
1, 481875, Control_c, 0, 67, 8
1, 481912, Note_off_c, 0, 83, 62
1, 481955, Note_on_c, 0, 84, 93
1, 481962, Note_on_c, 0, 76, 81
1, 481965, Note_on_c, 0, 60, 58
1, 481968, Note_on_c, 0, 55, 61
1, 481970, Note_on_c, 0, 48, 56
1, 481977, Note_on_c, 0, 52, 63
1, 481986, Note_off_c, 0, 76, 67
1, 481994, Note_off_c, 0, 60, 64
1, 481995, Note_off_c, 0, 84, 65
1, 482009, Control_c, 0, 67, 8
1, 482009, Note_off_c, 0, 52, 65
1, 482009, Note_off_c, 0, 55, 61
1, 482012, Note_off_c, 0, 48, 62
1, 482023, Control_c, 0, 67, 0
1, 482113, Control_c, 0, 67, 8
1, 482137, Note_on_c, 0, 75, 87
1, 482148, Note_on_c, 0, 60, 56
1, 482152, Note_on_c, 0, 48, 55
1, 482153, Note_on_c, 0, 52, 50
1, 482157, Control_c, 0, 67, 0
1, 482158, Note_on_c, 0, 55, 45
1, 482168, Note_off_c, 0, 60, 60
1, 482178, Note_off_c, 0, 75, 61
1, 482188, Note_on_c, 0, 78, 74
1, 482192, Note_off_c, 0, 48, 63
1, 482196, Note_off_c, 0, 52, 63
1, 482197, Note_off_c, 0, 55, 59
1, 482242, Note_off_c, 0, 78, 63
1, 482277, Note_on_c, 0, 79, 83
1, 482284, Note_on_c, 0, 76, 73
1, 482289, Note_on_c, 0, 55, 67
1, 482289, Note_on_c, 0, 60, 62
1, 482294, Note_on_c, 0, 48, 57
1, 482295, Note_on_c, 0, 52, 63
1, 482313, Note_off_c, 0, 76, 66
1, 482314, Note_off_c, 0, 79, 59
1, 482317, Note_off_c, 0, 60, 63
1, 482331, Note_off_c, 0, 52, 64
1, 482342, Note_off_c, 0, 55, 59
1, 482343, Note_off_c, 0, 48, 62
1, 482465, Note_on_c, 0, 66, 75
1, 482477, Note_on_c, 0, 55, 56
1, 482481, Note_on_c, 0, 48, 54
1, 482484, Note_on_c, 0, 52, 52
1, 482485, Note_on_c, 0, 60, 51
1, 482506, Note_off_c, 0, 60, 60
1, 482509, Note_off_c, 0, 55, 61
1, 482518, Note_off_c, 0, 66, 62
1, 482521, Note_off_c, 0, 48, 62
1, 482521, Note_off_c, 0, 52, 65
1, 482525, Note_on_c, 0, 75, 71
1, 482557, Note_off_c, 0, 75, 64
1, 482614, Note_on_c, 0, 76, 94
1, 482620, Note_on_c, 0, 67, 85
1, 482620, Note_on_c, 0, 60, 58
1, 482627, Note_on_c, 0, 52, 61
1, 482629, Note_on_c, 0, 48, 59
1, 482632, Note_on_c, 0, 55, 54
1, 482653, Note_off_c, 0, 76, 69
1, 482655, Note_off_c, 0, 67, 59
1, 482658, Note_off_c, 0, 60, 56
1, 482671, Note_off_c, 0, 52, 59
1, 482673, Note_off_c, 0, 48, 59
1, 482673, Note_off_c, 0, 55, 61
1, 482757, Control_c, 0, 67, 8
1, 482789, Note_on_c, 0, 63, 77
1, 482800, Note_on_c, 0, 55, 45
1, 482801, Note_on_c, 0, 48, 53
1, 482802, Note_on_c, 0, 60, 45
1, 482803, Note_on_c, 0, 52, 54
1, 482824, Note_off_c, 0, 63, 64
1, 482825, Note_off_c, 0, 60, 56
1, 482840, Note_off_c, 0, 55, 61
1, 482841, Note_on_c, 0, 71, 74
1, 482846, Note_off_c, 0, 48, 61
1, 482848, Note_off_c, 0, 52, 63
1, 482876, Control_c, 0, 67, 8
1, 482885, Note_off_c, 0, 71, 61
1, 482924, Note_on_c, 0, 60, 60
1, 482927, Note_on_c, 0, 72, 93
1, 482933, Note_on_c, 0, 64, 82
1, 482935, Control_c, 0, 67, 0
1, 482944, Note_on_c, 0, 48, 58
1, 482944, Note_on_c, 0, 55, 61
1, 482948, Note_on_c, 0, 52, 55
1, 482951, Note_off_c, 0, 60, 67
1, 482962, Note_off_c, 0, 64, 63
1, 482972, Note_off_c, 0, 55, 67
1, 482972, Note_off_c, 0, 72, 65
1, 482979, Note_off_c, 0, 52, 68
1, 482992, Note_off_c, 0, 48, 66
1, 483039, Control_c, 0, 67, 8
1, 483054, Control_c, 0, 67, 9
1, 483068, Control_c, 0, 64, 117
1, 483068, Control_c, 0, 67, 9
1, 483083, Control_c, 0, 64, 87
1, 483083, Control_c, 0, 67, 10
1, 483106, Control_c, 0, 64, 61
1, 483120, Control_c, 0, 64, 0
1, 483135, Note_on_c, 0, 71, 90
1, 483135, Control_c, 0, 67, 9
1, 483138, Note_on_c, 0, 62, 89
1, 483140, Note_on_c, 0, 43, 63
1, 483141, Note_on_c, 0, 50, 57
1, 483141, Note_on_c, 0, 53, 58
1, 483168, Note_off_c, 0, 53, 63
1, 483177, Note_off_c, 0, 50, 65
1, 483180, Control_c, 0, 64, 68
1, 483186, Note_off_c, 0, 43, 57
1, 483194, Control_c, 0, 64, 85
1, 483205, Note_off_c, 0, 71, 55
1, 483209, Control_c, 0, 64, 109
1, 483209, Control_c, 0, 67, 9
1, 483219, Note_off_c, 0, 62, 54
1, 483224, Control_c, 0, 64, 127
1, 483224, Control_c, 0, 67, 8
1, 483239, Control_c, 0, 67, 8
1, 483254, Control_c, 0, 67, 0
1, 483296, Note_on_c, 0, 53, 50
1, 483300, Note_on_c, 0, 50, 51
1, 483308, Note_on_c, 0, 43, 46
1, 483321, Note_off_c, 0, 53, 60
1, 483328, Note_off_c, 0, 50, 62
1, 483339, Note_off_c, 0, 43, 53
1, 483411, Note_on_c, 0, 65, 67
1, 483441, Note_on_c, 0, 43, 56
1, 483442, Note_on_c, 0, 53, 55
1, 483446, Note_on_c, 0, 50, 52
1, 483451, Note_on_c, 0, 62, 72
1, 483454, Note_off_c, 0, 65, 62
1, 483483, Note_off_c, 0, 53, 60
1, 483489, Note_off_c, 0, 62, 60
1, 483500, Note_on_c, 0, 59, 63
1, 483501, Note_off_c, 0, 50, 58
1, 483505, Note_off_c, 0, 43, 55
1, 483520, Note_off_c, 0, 59, 63
1, 483570, Note_on_c, 0, 57, 69
1, 483595, Control_c, 0, 67, 8
1, 483606, Note_on_c, 0, 53, 64
1, 483610, Note_on_c, 0, 50, 67
1, 483612, Note_on_c, 0, 55, 79
1, 483617, Note_off_c, 0, 57, 63
1, 483619, Note_on_c, 0, 43, 58
1, 483640, Note_off_c, 0, 53, 64
1, 483645, Note_off_c, 0, 55, 65
1, 483646, Note_off_c, 0, 50, 61
1, 483666, Note_off_c, 0, 43, 57
1, 483670, Control_c, 0, 67, 8
1, 483685, Control_c, 0, 67, 0
1, 483755, Note_on_c, 0, 77, 79
1, 483777, Note_on_c, 0, 43, 57
1, 483782, Note_on_c, 0, 50, 60
1, 483791, Note_on_c, 0, 53, 54
1, 483800, Note_off_c, 0, 77, 62
1, 483815, Note_on_c, 0, 72, 68
1, 483827, Note_off_c, 0, 53, 62
1, 483857, Note_off_c, 0, 72, 58
1, 483865, Note_on_c, 0, 71, 59
1, 483878, Note_off_c, 0, 50, 50
1, 483885, Note_off_c, 0, 71, 57
1, 483892, Note_off_c, 0, 43, 36
1, 483929, Control_c, 0, 67, 8
1, 483935, Note_on_c, 0, 68, 46
1, 483943, Control_c, 0, 67, 8
1, 483958, Control_c, 0, 67, 9
1, 483966, Note_on_c, 0, 67, 92
1, 483970, Note_on_c, 0, 53, 69
1, 483971, Note_on_c, 0, 50, 60
1, 483972, Note_off_c, 0, 68, 48
1, 483978, Note_on_c, 0, 43, 66
1, 484002, Note_off_c, 0, 53, 62
1, 484008, Note_off_c, 0, 67, 64
1, 484022, Note_off_c, 0, 43, 57
1, 484032, Control_c, 0, 67, 8
1, 484043, Note_off_c, 0, 50, 51
1, 484092, Control_c, 0, 67, 8
1, 484116, Note_on_c, 0, 89, 78
1, 484122, Control_c, 0, 67, 0
1, 484145, Note_on_c, 0, 87, 48
1, 484146, Note_off_c, 0, 87, 127
1, 484158, Note_off_c, 0, 89, 62
1, 484164, Note_on_c, 0, 86, 56
1, 484164, Note_on_c, 0, 50, 36
1, 484165, Note_on_c, 0, 43, 48
1, 484194, Note_on_c, 0, 83, 75
1, 484195, Note_off_c, 0, 86, 65
1, 484217, Note_off_c, 0, 83, 63
1, 484221, Note_off_c, 0, 43, 43
1, 484222, Poly_aftertouch_c, 0, 53, 127
1, 484247, Poly_aftertouch_c, 0, 53, 0
1, 484258, Note_on_c, 0, 80, 78
1, 484295, Note_on_c, 0, 79, 94
1, 484296, Note_off_c, 0, 80, 61
1, 484312, Note_off_c, 0, 50, 0
1, 484312, Note_on_c, 0, 50, 21
1, 484314, Control_c, 0, 67, 8
1, 484321, Note_on_c, 0, 43, 64
1, 484322, Note_on_c, 0, 53, 76
1, 484343, Note_off_c, 0, 53, 73
1, 484349, Note_off_c, 0, 79, 63
1, 484356, Note_off_c, 0, 50, 61
1, 484366, Note_off_c, 0, 43, 57
1, 484456, Note_on_c, 0, 77, 75
1, 484483, Note_off_c, 0, 77, 62
1, 484483, Note_on_c, 0, 74, 70
1, 484485, Note_on_c, 0, 50, 53
1, 484492, Note_on_c, 0, 43, 50
1, 484493, Note_on_c, 0, 53, 52
1, 484518, Note_off_c, 0, 53, 59
1, 484520, Note_off_c, 0, 74, 62
1, 484521, Control_c, 0, 67, 8
1, 484529, Note_off_c, 0, 43, 58
1, 484533, Note_on_c, 0, 71, 64
1, 484536, Control_c, 0, 67, 0
1, 484540, Note_off_c, 0, 50, 55
1, 484560, Note_off_c, 0, 71, 51
1, 484598, Note_on_c, 0, 68, 73
1, 484625, Note_off_c, 0, 68, 66
1, 484639, Note_on_c, 0, 67, 87
1, 484644, Note_on_c, 0, 53, 69
1, 484647, Note_on_c, 0, 43, 63
1, 484647, Control_c, 0, 67, 8
1, 484650, Note_on_c, 0, 50, 67
1, 484662, Control_c, 0, 67, 8
1, 484670, Note_off_c, 0, 53, 67
1, 484677, Control_c, 0, 67, 9
1, 484679, Note_off_c, 0, 50, 66
1, 484685, Note_off_c, 0, 67, 65
1, 484686, Note_off_c, 0, 43, 59
1, 484706, Control_c, 0, 64, 103
1, 484706, Control_c, 0, 67, 9
1, 484721, Control_c, 0, 64, 79
1, 484721, Control_c, 0, 67, 10
1, 484736, Control_c, 0, 64, 0
1, 484736, Control_c, 0, 67, 10
1, 484751, Control_c, 0, 67, 10
1, 484781, Control_c, 0, 67, 9
1, 484813, Note_on_c, 0, 74, 74
1, 484818, Note_on_c, 0, 67, 93
1, 484818, Note_on_c, 0, 79, 88
1, 484821, Note_on_c, 0, 71, 75
1, 484831, Note_on_c, 0, 50, 50
1, 484831, Note_on_c, 0, 53, 70
1, 484832, Note_on_c, 0, 43, 63
1, 484855, Control_c, 0, 64, 64
1, 484855, Control_c, 0, 67, 9
1, 484861, Note_off_c, 0, 53, 64
1, 484870, Control_c, 0, 64, 79
1, 484875, Note_off_c, 0, 50, 59
1, 484885, Control_c, 0, 64, 95
1, 484885, Control_c, 0, 67, 8
1, 484894, Note_off_c, 0, 43, 55
1, 484900, Control_c, 0, 64, 115
1, 484900, Control_c, 0, 67, 8
1, 484915, Control_c, 0, 64, 126
1, 484930, Control_c, 0, 64, 127
1, 484930, Control_c, 0, 67, 0
1, 484961, Note_off_c, 0, 71, 56
1, 485009, Note_on_c, 0, 43, 61
1, 485016, Note_on_c, 0, 50, 54
1, 485024, Note_on_c, 0, 53, 36
1, 485040, Note_off_c, 0, 43, 62
1, 485040, Note_off_c, 0, 50, 59
1, 485049, Note_off_c, 0, 53, 58
1, 485137, Control_c, 0, 64, 113
1, 485152, Control_c, 0, 64, 99
1, 485155, Note_off_c, 0, 74, 57
1, 485167, Control_c, 0, 64, 83
1, 485181, Control_c, 0, 64, 70
1, 485181, Control_c, 0, 67, 8
1, 485184, Note_on_c, 0, 72, 59
1, 485186, Note_on_c, 0, 48, 62
1, 485190, Note_on_c, 0, 76, 59
1, 485196, Control_c, 0, 64, 53
1, 485198, Note_on_c, 0, 52, 49
1, 485211, Control_c, 0, 64, 0
1, 485219, Note_off_c, 0, 79, 36
1, 485228, Note_off_c, 0, 48, 62
1, 485231, Note_off_c, 0, 52, 61
1, 485266, Note_off_c, 0, 67, 50
1, 485285, Note_off_c, 0, 76, 65
1, 485293, Note_off_c, 0, 72, 62
1, 485356, Note_on_c, 0, 52, 53
1, 485358, Note_on_c, 0, 48, 59
1, 485382, Control_c, 0, 67, 8
1, 485383, Note_off_c, 0, 52, 65
1, 485388, Note_off_c, 0, 48, 66
1, 485524, Note_on_c, 0, 47, 57
1, 485535, Note_on_c, 0, 59, 60
1, 485570, Note_off_c, 0, 59, 61
1, 485574, Note_off_c, 0, 47, 61
1, 485601, Note_on_c, 0, 48, 53
1, 485608, Note_on_c, 0, 60, 66
1, 485634, Control_c, 0, 67, 8
1, 485636, Note_off_c, 0, 60, 66
1, 485646, Note_off_c, 0, 48, 65
1, 485692, Note_on_c, 0, 64, 65
1, 485700, Note_on_c, 0, 52, 61
1, 485720, Note_off_c, 0, 64, 66
1, 485724, Control_c, 0, 67, 0
1, 485725, Note_off_c, 0, 52, 65
1, 485853, Note_on_c, 0, 47, 60
1, 485867, Note_on_c, 0, 59, 62
1, 485900, Note_off_c, 0, 59, 62
1, 485911, Note_off_c, 0, 47, 61
1, 485931, Note_on_c, 0, 48, 61
1, 485931, Note_on_c, 0, 60, 71
1, 485958, Note_off_c, 0, 60, 67
1, 485976, Note_off_c, 0, 48, 66
1, 486017, Note_on_c, 0, 67, 71
1, 486020, Note_on_c, 0, 55, 63
1, 486043, Note_off_c, 0, 67, 67
1, 486045, Note_off_c, 0, 55, 66
1, 486186, Note_on_c, 0, 47, 60
1, 486188, Note_on_c, 0, 59, 71
1, 486226, Note_off_c, 0, 59, 64
1, 486249, Note_on_c, 0, 60, 79
1, 486252, Note_on_c, 0, 48, 66
1, 486253, Note_off_c, 0, 47, 63
1, 486275, Note_off_c, 0, 60, 65
1, 486281, Note_off_c, 0, 48, 66
1, 486357, Note_on_c, 0, 72, 81
1, 486361, Note_on_c, 0, 60, 83
1, 486388, Note_off_c, 0, 72, 62
1, 486402, Note_off_c, 0, 60, 61
1, 486527, Note_on_c, 0, 60, 83
1, 486538, Note_on_c, 0, 48, 73
1, 486567, Note_off_c, 0, 48, 66
1, 486572, Note_off_c, 0, 60, 61
1, 486701, Note_on_c, 0, 64, 81
1, 486703, Note_on_c, 0, 76, 78
1, 486725, Note_off_c, 0, 76, 67
1, 486732, Note_off_c, 0, 64, 67
1, 486870, Note_on_c, 0, 60, 79
1, 486875, Note_on_c, 0, 48, 76
1, 486891, Note_off_c, 0, 60, 68
1, 486899, Note_off_c, 0, 48, 67
1, 487049, Note_on_c, 0, 72, 75
1, 487055, Note_on_c, 0, 67, 90
1, 487057, Note_on_c, 0, 52, 86
1, 487058, Note_on_c, 0, 79, 88
1, 487062, Note_on_c, 0, 40, 70
1, 487091, Note_off_c, 0, 67, 62
1, 487100, Note_off_c, 0, 40, 63
1, 487100, Note_off_c, 0, 52, 64
1, 487109, Note_off_c, 0, 72, 63
1, 487114, Note_off_c, 0, 79, 60
1, 487283, Note_on_c, 0, 72, 79
1, 487283, Note_on_c, 0, 81, 97
1, 487285, Note_on_c, 0, 69, 93
1, 487288, Note_on_c, 0, 53, 91
1, 487294, Note_on_c, 0, 41, 77
1, 487326, Control_c, 0, 64, 64
1, 487340, Control_c, 0, 64, 81
1, 487355, Control_c, 0, 64, 106
1, 487362, Note_off_c, 0, 69, 60
1, 487362, Note_off_c, 0, 72, 61
1, 487370, Control_c, 0, 64, 127
1, 487395, Note_off_c, 0, 53, 60
1, 487407, Note_off_c, 0, 41, 60
1, 487407, Note_off_c, 0, 81, 55
1, 487957, Note_on_c, 0, 79, 80
1, 487960, Note_on_c, 0, 83, 75
1, 487994, Note_off_c, 0, 79, 58
1, 488028, Control_c, 0, 64, 115
1, 488031, Note_on_c, 0, 77, 78
1, 488034, Note_on_c, 0, 81, 72
1, 488037, Note_off_c, 0, 83, 58
1, 488043, Control_c, 0, 64, 102
1, 488059, Control_c, 0, 64, 92
1, 488074, Control_c, 0, 64, 84
1, 488088, Control_c, 0, 64, 77
1, 488103, Note_on_c, 0, 79, 72
1, 488103, Control_c, 0, 64, 71
1, 488105, Note_off_c, 0, 81, 60
1, 488107, Note_off_c, 0, 77, 60
1, 488108, Note_on_c, 0, 76, 76
1, 488118, Control_c, 0, 64, 65
1, 488130, Note_off_c, 0, 79, 64
1, 488132, Control_c, 0, 64, 60
1, 488141, Note_off_c, 0, 76, 64
1, 488147, Control_c, 0, 64, 59
1, 488189, Note_on_c, 0, 77, 76
1, 488191, Note_on_c, 0, 74, 76
1, 488192, Control_c, 0, 64, 58
1, 488206, Control_c, 0, 64, 55
1, 488221, Control_c, 0, 64, 53
1, 488236, Control_c, 0, 64, 53
1, 488251, Control_c, 0, 64, 55
1, 488260, Note_on_c, 0, 76, 74
1, 488266, Note_off_c, 0, 77, 61
1, 488266, Control_c, 0, 64, 55
1, 488268, Note_off_c, 0, 74, 64
1, 488274, Note_on_c, 0, 72, 72
1, 488291, Note_off_c, 0, 76, 62
1, 488296, Note_off_c, 0, 72, 71
1, 488325, Control_c, 0, 64, 56
1, 488347, Control_c, 0, 64, 56
1, 488358, Note_on_c, 0, 74, 70
1, 488362, Note_on_c, 0, 71, 80
1, 488377, Control_c, 0, 64, 56
1, 488392, Control_c, 0, 64, 55
1, 488407, Control_c, 0, 64, 54
1, 488421, Control_c, 0, 64, 53
1, 488427, Note_on_c, 0, 72, 71
1, 488427, Note_off_c, 0, 74, 64
1, 488431, Note_off_c, 0, 71, 62
1, 488435, Note_on_c, 0, 69, 73
1, 488436, Control_c, 0, 64, 49
1, 488451, Control_c, 0, 64, 45
1, 488455, Note_off_c, 0, 72, 65
1, 488465, Note_off_c, 0, 69, 67
1, 488466, Control_c, 0, 64, 39
1, 488481, Control_c, 0, 64, 34
1, 488495, Control_c, 0, 64, 26
1, 488511, Control_c, 0, 64, 0
1, 488518, Note_on_c, 0, 71, 76
1, 488519, Note_on_c, 0, 67, 81
1, 488587, Note_on_c, 0, 69, 72
1, 488590, Note_on_c, 0, 65, 78
1, 488590, Note_off_c, 0, 71, 60
1, 488591, Note_off_c, 0, 67, 61
1, 488616, Note_off_c, 0, 69, 68
1, 488628, Note_off_c, 0, 65, 67
1, 488677, Note_on_c, 0, 67, 81
1, 488686, Note_on_c, 0, 64, 79
1, 488748, Note_on_c, 0, 65, 71
1, 488753, Note_off_c, 0, 64, 63
1, 488757, Note_off_c, 0, 67, 59
1, 488759, Note_on_c, 0, 62, 72
1, 488781, Note_off_c, 0, 65, 63
1, 488793, Note_off_c, 0, 62, 63
1, 488849, Note_on_c, 0, 64, 76
1, 488853, Note_on_c, 0, 60, 78
1, 488916, Note_off_c, 0, 64, 62
1, 488918, Note_on_c, 0, 62, 72
1, 488932, Note_on_c, 0, 59, 60
1, 488946, Note_off_c, 0, 62, 64
1, 488947, Note_off_c, 0, 60, 39
1, 488957, Note_off_c, 0, 59, 65
1, 489015, Note_on_c, 0, 60, 72
1, 489023, Note_on_c, 0, 57, 71
1, 489104, Note_on_c, 0, 59, 67
1, 489109, Note_off_c, 0, 57, 58
1, 489110, Note_on_c, 0, 55, 68
1, 489134, Note_on_c, 0, 53, 48
1, 489136, Note_on_c, 0, 43, 44
1, 489140, Note_off_c, 0, 60, 43
1, 489143, Note_on_c, 0, 50, 45
1, 489334, Control_c, 0, 64, 39
1, 489349, Control_c, 0, 64, 46
1, 489393, Control_c, 0, 64, 45
1, 489467, Control_c, 0, 64, 46
1, 489540, Note_off_c, 0, 53, 33
1, 489601, Control_c, 0, 64, 46
1, 489627, Note_off_c, 0, 55, 33
1, 489630, Control_c, 0, 64, 47
1, 489645, Control_c, 0, 64, 47
1, 489661, Control_c, 0, 64, 49
1, 489675, Control_c, 0, 64, 50
1, 489690, Control_c, 0, 64, 50
1, 489720, Control_c, 0, 64, 51
1, 489750, Control_c, 0, 64, 46
1, 489754, Note_off_c, 0, 59, 55
1, 489762, Note_off_c, 0, 50, 42
1, 489765, Control_c, 0, 64, 0
1, 489771, Note_on_c, 0, 55, 33
1, 489776, Note_on_c, 0, 60, 47
1, 489789, Note_on_c, 0, 52, 43
1, 489801, Note_on_c, 0, 48, 34
1, 489833, Note_off_c, 0, 43, 40
1, 489977, Note_off_c, 0, 52, 66
1, 490005, Note_off_c, 0, 48, 60
1, 490006, Note_off_c, 0, 55, 58
1, 490009, Note_off_c, 0, 60, 62
1, 490248, Note_on_c, 0, 48, 56
1, 490256, Note_on_c, 0, 36, 46
1, 490272, Note_off_c, 0, 48, 60
1, 490313, Note_off_c, 0, 36, 60
1, 490319, Note_on_c, 0, 50, 66
1, 490328, Note_on_c, 0, 38, 53
1, 490359, Note_off_c, 0, 50, 54
1, 490396, Note_off_c, 0, 38, 59
1, 490400, Note_on_c, 0, 40, 61
1, 490400, Note_on_c, 0, 52, 60
1, 490448, Note_off_c, 0, 52, 64
1, 490467, Note_off_c, 0, 40, 63
1, 490468, Note_on_c, 0, 53, 60
1, 490469, Note_on_c, 0, 41, 66
1, 490512, Note_off_c, 0, 53, 59
1, 490534, Note_off_c, 0, 41, 61
1, 490549, Note_on_c, 0, 55, 68
1, 490563, Note_on_c, 0, 43, 55
1, 490585, Note_off_c, 0, 55, 66
1, 490599, Note_off_c, 0, 43, 57
1, 490731, Note_on_c, 0, 60, 82
1, 490738, Note_on_c, 0, 48, 69
1, 490744, Note_on_c, 0, 36, 61
1, 490756, Note_off_c, 0, 60, 66
1, 490760, Note_off_c, 0, 48, 66
1, 490772, Note_off_c, 0, 36, 63
1, 490942, Note_on_c, 0, 59, 73
1, 490950, Note_on_c, 0, 47, 72
1, 490960, Note_on_c, 0, 35, 58
1, 490980, Control_c, 0, 64, 55
1, 490995, Control_c, 0, 64, 74
1, 491009, Control_c, 0, 64, 87
1, 491010, Note_off_c, 0, 35, 62
1, 491017, Note_off_c, 0, 47, 62
1, 491024, Control_c, 0, 64, 102
1, 491039, Control_c, 0, 64, 111
1, 491053, Control_c, 0, 64, 114
1, 491065, Note_off_c, 0, 59, 61
1, 491068, Control_c, 0, 64, 115
1, 491083, Control_c, 0, 64, 117
1, 491098, Control_c, 0, 64, 118
1, 491172, Control_c, 0, 64, 115
1, 491187, Control_c, 0, 64, 102
1, 491202, Control_c, 0, 64, 87
1, 491217, Control_c, 0, 64, 71
1, 491231, Control_c, 0, 64, 0
1, 491366, Note_on_c, 0, 43, 65
1, 491369, Note_on_c, 0, 55, 70
1, 491407, Note_off_c, 0, 55, 57
1, 491438, Note_on_c, 0, 45, 68
1, 491438, Note_on_c, 0, 57, 79
1, 491448, Note_off_c, 0, 43, 56
1, 491503, Note_on_c, 0, 47, 72
1, 491512, Note_on_c, 0, 59, 76
1, 491515, Note_off_c, 0, 57, 60
1, 491540, Note_off_c, 0, 45, 63
1, 491568, Note_on_c, 0, 48, 78
1, 491583, Note_on_c, 0, 60, 77
1, 491586, Note_off_c, 0, 59, 64
1, 491588, Note_off_c, 0, 47, 64
1, 491649, Note_off_c, 0, 48, 66
1, 491660, Note_on_c, 0, 62, 84
1, 491662, Note_on_c, 0, 50, 82
1, 491667, Note_off_c, 0, 60, 62
1, 491687, Note_off_c, 0, 62, 64
1, 491696, Note_off_c, 0, 50, 64
1, 491831, Note_on_c, 0, 69, 91
1, 491838, Note_on_c, 0, 57, 81
1, 491840, Note_on_c, 0, 45, 71
1, 491865, Note_off_c, 0, 57, 63
1, 491866, Note_off_c, 0, 45, 67
1, 491867, Note_off_c, 0, 69, 66
1, 492050, Note_on_c, 0, 68, 88
1, 492059, Note_on_c, 0, 56, 85
1, 492060, Note_on_c, 0, 44, 76
1, 492093, Control_c, 0, 64, 60
1, 492107, Control_c, 0, 64, 74
1, 492122, Control_c, 0, 64, 90
1, 492137, Control_c, 0, 64, 114
1, 492152, Control_c, 0, 64, 127
1, 492153, Note_off_c, 0, 44, 63
1, 492153, Note_off_c, 0, 56, 64
1, 492163, Note_off_c, 0, 68, 63
1, 492328, Control_c, 0, 64, 111
1, 492343, Control_c, 0, 64, 89
1, 492358, Control_c, 0, 64, 73
1, 492373, Control_c, 0, 64, 54
1, 492388, Control_c, 0, 64, 0
1, 492469, Note_on_c, 0, 69, 73
1, 492504, Note_off_c, 0, 69, 57
1, 492542, Note_on_c, 0, 71, 75
1, 492578, Note_off_c, 0, 71, 54
1, 492621, Note_on_c, 0, 72, 71
1, 492689, Note_off_c, 0, 72, 64
1, 492691, Note_on_c, 0, 74, 69
1, 492769, Note_on_c, 0, 76, 71
1, 492770, Note_off_c, 0, 74, 63
1, 492793, Note_off_c, 0, 76, 68
1, 492974, Note_on_c, 0, 77, 75
1, 492975, Note_on_c, 0, 65, 75
1, 492981, Note_on_c, 0, 71, 63
1, 492982, Note_on_c, 0, 74, 59
1, 492986, Note_on_c, 0, 59, 58
1, 492999, Note_off_c, 0, 65, 65
1, 493013, Note_off_c, 0, 71, 63
1, 493013, Note_off_c, 0, 74, 65
1, 493016, Note_off_c, 0, 77, 50
1, 493038, Note_off_c, 0, 59, 59
1, 493054, Note_on_c, 0, 57, 64
1, 493121, Note_off_c, 0, 57, 62
1, 493137, Note_on_c, 0, 56, 61
1, 493167, Note_on_c, 0, 64, 74
1, 493170, Note_on_c, 0, 76, 68
1, 493172, Note_on_c, 0, 74, 59
1, 493175, Note_on_c, 0, 71, 66
1, 493214, Note_off_c, 0, 56, 62
1, 493226, Control_c, 0, 64, 62
1, 493231, Note_on_c, 0, 54, 59
1, 493241, Control_c, 0, 64, 70
1, 493256, Control_c, 0, 64, 75
1, 493270, Control_c, 0, 64, 79
1, 493274, Note_off_c, 0, 71, 58
1, 493282, Note_off_c, 0, 74, 61
1, 493282, Note_off_c, 0, 76, 62
1, 493285, Control_c, 0, 64, 80
1, 493288, Note_off_c, 0, 64, 59
1, 493300, Control_c, 0, 64, 81
1, 493315, Control_c, 0, 64, 81
1, 493329, Note_off_c, 0, 54, 61
1, 493329, Control_c, 0, 64, 82
1, 493333, Note_on_c, 0, 52, 73
1, 493344, Control_c, 0, 64, 84
1, 493359, Control_c, 0, 64, 85
1, 493360, Note_off_c, 0, 52, 70
1, 493512, Note_on_c, 0, 69, 79
1, 493515, Note_on_c, 0, 64, 74
1, 493562, Note_off_c, 0, 64, 57
1, 493581, Note_on_c, 0, 71, 70
1, 493583, Note_on_c, 0, 68, 72
1, 493583, Note_off_c, 0, 69, 63
1, 493607, Note_off_c, 0, 68, 69
1, 493619, Note_off_c, 0, 71, 60
1, 493633, Control_c, 0, 64, 84
1, 493649, Control_c, 0, 64, 81
1, 493664, Control_c, 0, 64, 75
1, 493676, Note_on_c, 0, 72, 83
1, 493679, Control_c, 0, 64, 67
1, 493684, Note_on_c, 0, 69, 74
1, 493694, Control_c, 0, 64, 49
1, 493708, Control_c, 0, 64, 0
1, 493721, Note_off_c, 0, 69, 60
1, 493735, Note_off_c, 0, 72, 65
1, 493747, Note_on_c, 0, 71, 64
1, 493768, Note_on_c, 0, 74, 51
1, 493810, Note_on_c, 0, 72, 53
1, 493810, Note_off_c, 0, 71, 62
1, 493821, Note_off_c, 0, 74, 63
1, 493822, Note_on_c, 0, 76, 62
1, 493831, Note_off_c, 0, 72, 60
1, 493840, Note_off_c, 0, 76, 68
1, 494001, Note_on_c, 0, 70, 82
1, 494004, Note_on_c, 0, 82, 76
1, 494007, Note_on_c, 0, 76, 67
1, 494013, Note_on_c, 0, 79, 68
1, 494013, Note_on_c, 0, 64, 66
1, 494025, Note_off_c, 0, 70, 64
1, 494046, Note_off_c, 0, 76, 58
1, 494047, Note_off_c, 0, 82, 64
1, 494048, Note_off_c, 0, 79, 55
1, 494075, Note_off_c, 0, 64, 57
1, 494093, Note_on_c, 0, 62, 71
1, 494171, Note_off_c, 0, 62, 60
1, 494175, Note_on_c, 0, 61, 69
1, 494182, Note_on_c, 0, 79, 74
1, 494183, Note_on_c, 0, 76, 74
1, 494185, Note_on_c, 0, 69, 84
1, 494185, Note_on_c, 0, 81, 82
1, 494241, Control_c, 0, 64, 64
1, 494253, Note_off_c, 0, 76, 63
1, 494256, Note_off_c, 0, 79, 58
1, 494256, Control_c, 0, 64, 77
1, 494262, Note_off_c, 0, 61, 61
1, 494266, Note_on_c, 0, 59, 72
1, 494270, Control_c, 0, 64, 90
1, 494273, Note_off_c, 0, 81, 58
1, 494281, Note_off_c, 0, 69, 58
1, 494285, Control_c, 0, 64, 100
1, 494300, Control_c, 0, 64, 103
1, 494315, Control_c, 0, 64, 103
1, 494338, Control_c, 0, 64, 104
1, 494351, Note_on_c, 0, 57, 73
1, 494352, Control_c, 0, 64, 104
1, 494361, Note_off_c, 0, 59, 62
1, 494377, Note_off_c, 0, 57, 68
1, 494516, Note_on_c, 0, 74, 81
1, 494524, Note_on_c, 0, 69, 74
1, 494577, Note_on_c, 0, 76, 73
1, 494577, Note_off_c, 0, 69, 63
1, 494583, Note_off_c, 0, 74, 63
1, 494585, Note_on_c, 0, 73, 74
1, 494609, Note_off_c, 0, 73, 68
1, 494624, Note_off_c, 0, 76, 64
1, 494648, Control_c, 0, 64, 104
1, 494663, Control_c, 0, 64, 101
1, 494678, Control_c, 0, 64, 92
1, 494679, Note_on_c, 0, 77, 91
1, 494684, Note_on_c, 0, 74, 80
1, 494692, Control_c, 0, 64, 81
1, 494707, Note_off_c, 0, 74, 66
1, 494707, Control_c, 0, 64, 69
1, 494722, Control_c, 0, 64, 42
1, 494737, Control_c, 0, 64, 0
1, 494739, Note_off_c, 0, 77, 62
1, 494753, Note_on_c, 0, 76, 74
1, 494758, Note_on_c, 0, 79, 60
1, 494814, Note_on_c, 0, 77, 74
1, 494815, Note_off_c, 0, 79, 45
1, 494818, Note_on_c, 0, 81, 77
1, 494823, Note_off_c, 0, 76, 63
1, 494848, Note_off_c, 0, 77, 62
1, 494854, Note_off_c, 0, 81, 64
1, 494994, Note_on_c, 0, 89, 87
1, 494995, Note_on_c, 0, 49, 67
1, 494999, Note_on_c, 0, 77, 83
1, 494999, Note_on_c, 0, 79, 77
1, 495015, Note_off_c, 0, 89, 66
1, 495018, Note_off_c, 0, 77, 68
1, 495022, Note_off_c, 0, 79, 68
1, 495057, Note_on_c, 0, 50, 74
1, 495062, Note_off_c, 0, 49, 60
1, 495146, Note_off_c, 0, 50, 63
1, 495172, Note_on_c, 0, 52, 72
1, 495176, Note_on_c, 0, 88, 85
1, 495181, Note_on_c, 0, 79, 79
1, 495181, Note_on_c, 0, 82, 82
1, 495181, Note_on_c, 0, 76, 86
1, 495214, Note_off_c, 0, 52, 65
1, 495219, Control_c, 0, 64, 32
1, 495230, Note_off_c, 0, 88, 63
1, 495233, Control_c, 0, 64, 68
1, 495249, Note_off_c, 0, 76, 62
1, 495250, Control_c, 0, 64, 81
1, 495256, Note_off_c, 0, 82, 62
1, 495258, Note_off_c, 0, 79, 63
1, 495263, Note_on_c, 0, 53, 74
1, 495265, Control_c, 0, 64, 98
1, 495280, Control_c, 0, 64, 115
1, 495294, Control_c, 0, 64, 121
1, 495309, Control_c, 0, 64, 122
1, 495324, Control_c, 0, 64, 124
1, 495332, Note_off_c, 0, 53, 65
1, 495333, Note_on_c, 0, 55, 76
1, 495339, Control_c, 0, 64, 126
1, 495354, Control_c, 0, 64, 127
1, 495362, Note_off_c, 0, 55, 66
1, 495369, Control_c, 0, 64, 127
1, 495496, Note_on_c, 0, 76, 70
1, 495497, Note_on_c, 0, 57, 80
1, 495501, Note_on_c, 0, 73, 67
1, 495502, Note_on_c, 0, 45, 71
1, 495519, Note_off_c, 0, 73, 67
1, 495524, Note_off_c, 0, 57, 63
1, 495536, Note_off_c, 0, 45, 65
1, 495544, Note_on_c, 0, 77, 70
1, 495545, Note_off_c, 0, 76, 65
1, 495551, Note_on_c, 0, 74, 62
1, 495577, Note_off_c, 0, 74, 70
1, 495590, Control_c, 0, 64, 127
1, 495595, Note_off_c, 0, 77, 62
1, 495605, Control_c, 0, 64, 125
1, 495620, Control_c, 0, 64, 113
1, 495635, Control_c, 0, 64, 99
1, 495648, Note_on_c, 0, 79, 81
1, 495649, Note_on_c, 0, 76, 78
1, 495649, Control_c, 0, 64, 85
1, 495656, Note_on_c, 0, 55, 77
1, 495659, Note_on_c, 0, 43, 71
1, 495664, Control_c, 0, 64, 70
1, 495672, Note_off_c, 0, 76, 65
1, 495676, Note_off_c, 0, 79, 63
1, 495679, Control_c, 0, 64, 32
1, 495694, Control_c, 0, 64, 0
1, 495721, Note_on_c, 0, 77, 67
1, 495733, Note_on_c, 0, 81, 53
1, 495749, Note_off_c, 0, 77, 65
1, 495753, Note_on_c, 0, 79, 56
1, 495757, Note_off_c, 0, 81, 56
1, 495765, Note_off_c, 0, 43, 61
1, 495784, Note_off_c, 0, 55, 61
1, 495792, Note_on_c, 0, 82, 76
1, 495795, Note_off_c, 0, 79, 0
1, 495808, Note_on_c, 0, 79, 49
1, 495832, Note_off_c, 0, 82, 55
1, 495837, Note_off_c, 0, 79, 60
1, 495981, Note_on_c, 0, 52, 62
1, 495987, Note_on_c, 0, 76, 72
1, 495987, Note_on_c, 0, 86, 71
1, 495993, Note_on_c, 0, 79, 62
1, 496011, Note_off_c, 0, 76, 65
1, 496014, Note_off_c, 0, 86, 61
1, 496016, Note_off_c, 0, 79, 58
1, 496052, Note_off_c, 0, 52, 66
1, 496059, Note_on_c, 0, 53, 67
1, 496111, Note_off_c, 0, 53, 64
1, 496145, Note_on_c, 0, 55, 67
1, 496148, Note_on_c, 0, 85, 82
1, 496156, Note_on_c, 0, 79, 73
1, 496156, Note_on_c, 0, 76, 76
1, 496182, Note_off_c, 0, 55, 64
1, 496192, Control_c, 0, 64, 44
1, 496199, Note_off_c, 0, 76, 65
1, 496206, Note_off_c, 0, 85, 65
1, 496207, Control_c, 0, 64, 69
1, 496209, Note_off_c, 0, 79, 60
1, 496221, Control_c, 0, 64, 81
1, 496236, Control_c, 0, 64, 96
1, 496243, Note_on_c, 0, 57, 64
1, 496251, Control_c, 0, 64, 108
1, 496265, Control_c, 0, 64, 114
1, 496280, Control_c, 0, 64, 117
1, 496295, Control_c, 0, 64, 121
1, 496299, Note_off_c, 0, 57, 63
1, 496305, Note_on_c, 0, 58, 67
1, 496310, Control_c, 0, 64, 127
1, 496335, Note_off_c, 0, 58, 65
1, 496467, Note_on_c, 0, 76, 71
1, 496474, Note_on_c, 0, 73, 68
1, 496475, Note_on_c, 0, 67, 71
1, 496483, Note_on_c, 0, 55, 64
1, 496492, Note_off_c, 0, 67, 67
1, 496497, Note_off_c, 0, 73, 67
1, 496507, Note_off_c, 0, 55, 63
1, 496523, Note_off_c, 0, 76, 65
1, 496525, Note_on_c, 0, 77, 67
1, 496578, Note_off_c, 0, 77, 58
1, 496614, Control_c, 0, 64, 124
1, 496622, Note_on_c, 0, 79, 83
1, 496626, Poly_aftertouch_c, 0, 74, 0
1, 496628, Control_c, 0, 64, 110
1, 496630, Note_on_c, 0, 76, 73
1, 496639, Note_on_c, 0, 64, 73
1, 496643, Control_c, 0, 64, 93
1, 496645, Note_on_c, 0, 52, 73
1, 496647, Note_off_c, 0, 76, 70
1, 496658, Control_c, 0, 64, 80
1, 496666, Note_off_c, 0, 79, 54
1, 496672, Control_c, 0, 64, 67
1, 496687, Control_c, 0, 64, 0
1, 496698, Note_on_c, 0, 77, 77
1, 496701, Note_on_c, 0, 81, 70
1, 496730, Note_off_c, 0, 52, 60
1, 496734, Note_off_c, 0, 77, 62
1, 496735, Note_off_c, 0, 81, 56
1, 496776, Note_on_c, 0, 79, 62
1, 496788, Note_on_c, 0, 82, 74
1, 496800, Note_off_c, 0, 64, 58
1, 496809, Note_off_c, 0, 82, 68
1, 496810, Note_off_c, 0, 79, 64
1, 496957, Note_on_c, 0, 82, 77
1, 496958, Note_on_c, 0, 72, 66
1, 496959, Note_on_c, 0, 66, 66
1, 496961, Note_on_c, 0, 75, 69
1, 496975, Note_off_c, 0, 72, 66
1, 496981, Note_off_c, 0, 82, 62
1, 496988, Note_off_c, 0, 75, 69
1, 496994, Note_off_c, 0, 66, 66
1, 497025, Note_on_c, 0, 65, 66
1, 497073, Note_off_c, 0, 65, 60
1, 497127, Note_on_c, 0, 63, 67
1, 497132, Note_on_c, 0, 81, 84
1, 497143, Note_on_c, 0, 72, 65
1, 497169, Note_on_c, 0, 76, 34
1, 497177, Note_off_c, 0, 81, 58
1, 497184, Note_off_c, 0, 72, 57
1, 497192, Note_off_c, 0, 76, 51
1, 497192, Control_c, 0, 64, 63
1, 497198, Note_off_c, 0, 63, 63
1, 497206, Note_on_c, 0, 62, 67
1, 497207, Control_c, 0, 64, 75
1, 497222, Control_c, 0, 64, 91
1, 497236, Control_c, 0, 64, 108
1, 497251, Control_c, 0, 64, 117
1, 497266, Control_c, 0, 64, 119
1, 497281, Control_c, 0, 64, 121
1, 497283, Note_off_c, 0, 62, 62
1, 497284, Note_on_c, 0, 60, 75
1, 497295, Control_c, 0, 64, 124
1, 497318, Control_c, 0, 64, 127
1, 497319, Note_off_c, 0, 60, 63
1, 497452, Note_on_c, 0, 69, 69
1, 497456, Note_on_c, 0, 60, 73
1, 497458, Note_on_c, 0, 48, 74
1, 497460, Note_on_c, 0, 66, 66
1, 497479, Note_off_c, 0, 60, 69
1, 497496, Note_off_c, 0, 48, 62
1, 497497, Note_off_c, 0, 66, 65
1, 497501, Note_on_c, 0, 70, 70
1, 497521, Note_off_c, 0, 69, 66
1, 497525, Note_on_c, 0, 67, 50
1, 497550, Note_off_c, 0, 67, 57
1, 497554, Note_off_c, 0, 70, 64
1, 497584, Control_c, 0, 64, 114
1, 497599, Control_c, 0, 64, 95
1, 497611, Note_on_c, 0, 72, 80
1, 497614, Control_c, 0, 64, 78
1, 497615, Note_on_c, 0, 57, 76
1, 497615, Note_on_c, 0, 69, 74
1, 497621, Note_on_c, 0, 45, 71
1, 497628, Control_c, 0, 64, 61
1, 497634, Note_off_c, 0, 69, 61
1, 497645, Control_c, 0, 64, 0
1, 497678, Note_on_c, 0, 70, 77
1, 497685, Note_on_c, 0, 74, 58
1, 497689, Note_off_c, 0, 72, 61
1, 497713, Note_off_c, 0, 74, 70
1, 497714, Note_off_c, 0, 57, 43
1, 497725, Note_off_c, 0, 70, 59
1, 497726, Note_off_c, 0, 45, 60
1, 497756, Note_on_c, 0, 72, 70
1, 497762, Note_on_c, 0, 75, 72
1, 497785, Note_off_c, 0, 72, 66
1, 497787, Note_off_c, 0, 75, 69
1, 497927, Note_on_c, 0, 51, 60
1, 497930, Note_on_c, 0, 69, 80
1, 497932, Note_on_c, 0, 72, 73
1, 497934, Note_on_c, 0, 79, 69
1, 497953, Note_off_c, 0, 69, 66
1, 497959, Note_off_c, 0, 72, 64
1, 497971, Note_off_c, 0, 51, 63
1, 497971, Note_off_c, 0, 79, 49
1, 498001, Note_on_c, 0, 50, 68
1, 498099, Note_off_c, 0, 50, 59
1, 498107, Note_on_c, 0, 72, 80
1, 498107, Note_on_c, 0, 78, 92
1, 498108, Note_on_c, 0, 48, 67
1, 498110, Note_on_c, 0, 69, 86
1, 498139, Note_off_c, 0, 69, 64
1, 498156, Control_c, 0, 64, 64
1, 498157, Note_off_c, 0, 72, 65
1, 498171, Control_c, 0, 64, 81
1, 498182, Note_off_c, 0, 48, 62
1, 498183, Note_on_c, 0, 46, 68
1, 498184, Note_off_c, 0, 78, 65
1, 498186, Control_c, 0, 64, 100
1, 498200, Control_c, 0, 64, 127
1, 498260, Note_on_c, 0, 45, 73
1, 498267, Note_off_c, 0, 46, 62
1, 498293, Note_off_c, 0, 45, 67
1, 498403, Note_on_c, 0, 81, 78
1, 498414, Note_on_c, 0, 78, 68
1, 498416, Note_on_c, 0, 43, 75
1, 498419, Note_on_c, 0, 31, 72
1, 498446, Note_off_c, 0, 78, 64
1, 498450, Note_off_c, 0, 43, 59
1, 498457, Note_off_c, 0, 31, 61
1, 498461, Note_on_c, 0, 82, 63
1, 498463, Note_off_c, 0, 81, 62
1, 498468, Note_on_c, 0, 79, 66
1, 498486, Note_off_c, 0, 79, 65
1, 498498, Note_off_c, 0, 82, 62
1, 498561, Note_on_c, 0, 84, 85
1, 498562, Note_on_c, 0, 81, 77
1, 498572, Note_on_c, 0, 42, 82
1, 498577, Note_on_c, 0, 30, 76
1, 498584, Note_off_c, 0, 81, 67
1, 498607, Note_off_c, 0, 84, 57
1, 498615, Control_c, 0, 64, 127
1, 498627, Note_on_c, 0, 82, 83
1, 498630, Control_c, 0, 64, 105
1, 498645, Control_c, 0, 64, 88
1, 498651, Note_on_c, 0, 86, 51
1, 498651, Note_off_c, 0, 30, 63
1, 498660, Control_c, 0, 64, 70
1, 498663, Note_on_c, 0, 84, 28
1, 498675, Control_c, 0, 64, 27
1, 498678, Note_off_c, 0, 86, 53
1, 498683, Note_off_c, 0, 82, 59
1, 498690, Control_c, 0, 64, 0
1, 498695, Note_off_c, 0, 42, 62
1, 498696, Note_on_c, 0, 87, 78
1, 498701, Note_off_c, 0, 84, 0
1, 498701, Note_on_c, 0, 84, 28
1, 498721, Note_off_c, 0, 87, 65
1, 498740, Note_off_c, 0, 84, 66
1, 498919, Note_on_c, 0, 67, 91
1, 498925, Note_on_c, 0, 43, 68
1, 498928, Note_on_c, 0, 55, 69
1, 498951, Note_off_c, 0, 67, 66
1, 498953, Note_off_c, 0, 55, 67
1, 498962, Note_off_c, 0, 43, 61
1, 499067, Control_c, 0, 67, 8
1, 499082, Control_c, 0, 67, 8
1, 499161, Note_on_c, 0, 66, 85
1, 499171, Control_c, 0, 67, 9
1, 499173, Note_on_c, 0, 54, 67
1, 499175, Note_on_c, 0, 42, 61
1, 499185, Control_c, 0, 67, 14
1, 499200, Control_c, 0, 64, 43
1, 499200, Control_c, 0, 67, 26
1, 499215, Control_c, 0, 64, 71
1, 499215, Control_c, 0, 67, 44
1, 499230, Control_c, 0, 64, 91
1, 499230, Control_c, 0, 67, 68
1, 499246, Control_c, 0, 64, 116
1, 499246, Control_c, 0, 67, 91
1, 499261, Control_c, 0, 64, 127
1, 499261, Control_c, 0, 67, 113
1, 499276, Control_c, 0, 67, 127
1, 499285, Note_off_c, 0, 42, 62
1, 499289, Note_off_c, 0, 54, 59
1, 499331, Note_off_c, 0, 66, 63
1, 499498, Control_c, 0, 64, 121
1, 499512, Control_c, 0, 64, 102
1, 499527, Control_c, 0, 64, 88
1, 499542, Control_c, 0, 64, 73
1, 499557, Control_c, 0, 64, 50
1, 499579, Control_c, 0, 64, 0
1, 499814, Note_on_c, 0, 67, 60
1, 499849, Note_off_c, 0, 67, 62
1, 499903, Note_on_c, 0, 69, 57
1, 499944, Note_off_c, 0, 69, 61
1, 499962, Note_on_c, 0, 58, 55
1, 499966, Note_on_c, 0, 55, 52
1, 499969, Note_on_c, 0, 70, 64
1, 499998, Note_off_c, 0, 58, 57
1, 500004, Note_off_c, 0, 55, 64
1, 500028, Note_off_c, 0, 70, 60
1, 500052, Note_on_c, 0, 72, 57
1, 500096, Note_off_c, 0, 72, 57
1, 500128, Note_on_c, 0, 74, 60
1, 500130, Note_on_c, 0, 55, 52
1, 500130, Note_on_c, 0, 58, 50
1, 500156, Note_off_c, 0, 74, 68
1, 500172, Note_off_c, 0, 58, 56
1, 500175, Note_off_c, 0, 55, 61
1, 500305, Note_on_c, 0, 58, 49
1, 500314, Note_on_c, 0, 75, 65
1, 500323, Note_on_c, 0, 55, 51
1, 500347, Note_off_c, 0, 58, 64
1, 500348, Note_off_c, 0, 75, 62
1, 500350, Note_off_c, 0, 55, 64
1, 500494, Note_on_c, 0, 74, 66
1, 500503, Note_on_c, 0, 57, 57
1, 500506, Note_on_c, 0, 60, 52
1, 500506, Control_c, 0, 64, 63
1, 500520, Control_c, 0, 64, 67
1, 500535, Note_off_c, 0, 57, 62
1, 500535, Note_off_c, 0, 60, 60
1, 500535, Control_c, 0, 64, 68
1, 500580, Control_c, 0, 64, 67
1, 500609, Control_c, 0, 64, 67
1, 500637, Note_off_c, 0, 74, 62
1, 500639, Control_c, 0, 64, 66
1, 500651, Note_on_c, 0, 60, 47
1, 500653, Note_on_c, 0, 57, 50
1, 500669, Control_c, 0, 64, 66
1, 500684, Control_c, 0, 64, 65
1, 500689, Note_off_c, 0, 60, 60
1, 500692, Note_off_c, 0, 57, 62
1, 500699, Control_c, 0, 64, 65
1, 500713, Control_c, 0, 64, 64
1, 500743, Control_c, 0, 64, 64
1, 500773, Control_c, 0, 64, 63
1, 500787, Control_c, 0, 64, 63
1, 500797, Note_on_c, 0, 60, 56
1, 500800, Note_on_c, 0, 67, 69
1, 500805, Note_on_c, 0, 57, 50
1, 500817, Control_c, 0, 64, 62
1, 500832, Note_off_c, 0, 60, 64
1, 500833, Control_c, 0, 64, 62
1, 500842, Note_off_c, 0, 67, 61
1, 500843, Note_off_c, 0, 57, 63
1, 500848, Control_c, 0, 64, 61
1, 500862, Control_c, 0, 64, 60
1, 500866, Note_on_c, 0, 69, 64
1, 500877, Control_c, 0, 64, 59
1, 500892, Control_c, 0, 64, 59
1, 500907, Control_c, 0, 64, 58
1, 500907, Note_off_c, 0, 69, 56
1, 500922, Control_c, 0, 64, 58
1, 500936, Control_c, 0, 64, 57
1, 500943, Note_on_c, 0, 70, 68
1, 500951, Control_c, 0, 64, 55
1, 500958, Note_on_c, 0, 58, 59
1, 500966, Note_on_c, 0, 55, 57
1, 500966, Control_c, 0, 64, 54
1, 500981, Control_c, 0, 64, 53
1, 500996, Control_c, 0, 64, 51
1, 500998, Note_off_c, 0, 58, 60
1, 501003, Note_off_c, 0, 70, 62
1, 501010, Note_off_c, 0, 55, 61
1, 501010, Control_c, 0, 64, 49
1, 501021, Note_on_c, 0, 72, 66
1, 501025, Control_c, 0, 64, 47
1, 501040, Control_c, 0, 64, 41
1, 501062, Control_c, 0, 64, 34
1, 501077, Control_c, 0, 64, 29
1, 501092, Control_c, 0, 64, 27
1, 501098, Note_off_c, 0, 72, 61
1, 501107, Control_c, 0, 64, 25
1, 501116, Note_on_c, 0, 74, 59
1, 501122, Control_c, 0, 64, 23
1, 501125, Note_on_c, 0, 58, 52
1, 501128, Note_on_c, 0, 55, 57
1, 501135, Note_off_c, 0, 74, 67
1, 501159, Note_off_c, 0, 58, 59
1, 501166, Control_c, 0, 64, 21
1, 501171, Note_off_c, 0, 55, 62
1, 501280, Note_on_c, 0, 63, 74
1, 501283, Note_on_c, 0, 58, 47
1, 501289, Note_on_c, 0, 55, 49
1, 501306, Note_off_c, 0, 63, 67
1, 501314, Control_c, 0, 64, 16
1, 501322, Note_off_c, 0, 55, 66
1, 501323, Note_off_c, 0, 58, 63
1, 501329, Control_c, 0, 64, 0
1, 501461, Note_on_c, 0, 62, 77
1, 501464, Note_on_c, 0, 54, 53
1, 501473, Note_on_c, 0, 57, 45
1, 501502, Note_off_c, 0, 57, 55
1, 501503, Note_off_c, 0, 54, 61
1, 501520, Note_off_c, 0, 62, 62
1, 501611, Note_on_c, 0, 54, 53
1, 501612, Note_on_c, 0, 57, 41
1, 501652, Note_off_c, 0, 57, 57
1, 501657, Note_off_c, 0, 54, 59
1, 501771, Note_on_c, 0, 54, 63
1, 501771, Note_on_c, 0, 79, 78
1, 501776, Note_on_c, 0, 57, 49
1, 501798, Note_off_c, 0, 54, 65
1, 501801, Note_off_c, 0, 57, 62
1, 501819, Note_off_c, 0, 79, 61
1, 501850, Note_on_c, 0, 81, 72
1, 501888, Note_off_c, 0, 81, 59
1, 501927, Note_on_c, 0, 83, 73
1, 501941, Note_on_c, 0, 62, 68
1, 501949, Note_on_c, 0, 67, 54
1, 501958, Note_on_c, 0, 71, 46
1, 501975, Note_off_c, 0, 67, 58
1, 501982, Note_off_c, 0, 71, 56
1, 501983, Note_off_c, 0, 62, 55
1, 501987, Note_off_c, 0, 83, 62
1, 501998, Note_on_c, 0, 84, 69
1, 502046, Note_off_c, 0, 84, 63
1, 502085, Note_on_c, 0, 86, 76
1, 502089, Note_on_c, 0, 71, 50
1, 502093, Note_on_c, 0, 67, 49
1, 502096, Note_on_c, 0, 62, 58
1, 502113, Note_off_c, 0, 86, 63
1, 502127, Note_off_c, 0, 71, 60
1, 502129, Note_off_c, 0, 62, 56
1, 502132, Note_off_c, 0, 67, 58
1, 502240, Note_on_c, 0, 88, 82
1, 502240, Note_on_c, 0, 62, 50
1, 502243, Note_on_c, 0, 67, 54
1, 502243, Note_on_c, 0, 76, 78
1, 502259, Note_on_c, 0, 71, 36
1, 502260, Note_off_c, 0, 88, 67
1, 502266, Note_off_c, 0, 76, 70
1, 502276, Note_off_c, 0, 62, 52
1, 502279, Note_off_c, 0, 67, 64
1, 502285, Note_off_c, 0, 71, 49
1, 502421, Note_on_c, 0, 86, 77
1, 502425, Note_on_c, 0, 74, 72
1, 502426, Note_on_c, 0, 62, 44
1, 502433, Note_on_c, 0, 72, 52
1, 502435, Control_c, 0, 64, 67
1, 502436, Note_on_c, 0, 66, 51
1, 502443, Note_off_c, 0, 86, 69
1, 502450, Control_c, 0, 64, 77
1, 502451, Note_off_c, 0, 74, 68
1, 502453, Note_off_c, 0, 72, 60
1, 502463, Note_off_c, 0, 66, 58
1, 502464, Note_off_c, 0, 62, 53
1, 502464, Control_c, 0, 64, 86
1, 502479, Control_c, 0, 64, 92
1, 502494, Control_c, 0, 64, 94
1, 502508, Control_c, 0, 64, 95
1, 502523, Control_c, 0, 64, 96
1, 502538, Control_c, 0, 64, 98
1, 502561, Control_c, 0, 64, 98
1, 502570, Note_on_c, 0, 72, 55
1, 502577, Note_on_c, 0, 66, 62
1, 502588, Note_on_c, 0, 62, 48
1, 502592, Note_off_c, 0, 72, 66
1, 502607, Note_off_c, 0, 66, 67
1, 502610, Note_off_c, 0, 62, 62
1, 502738, Control_c, 0, 64, 98
1, 502745, Note_on_c, 0, 55, 73
1, 502753, Note_on_c, 0, 72, 64
1, 502753, Control_c, 0, 64, 96
1, 502758, Note_on_c, 0, 66, 68
1, 502759, Note_on_c, 0, 62, 63
1, 502768, Control_c, 0, 64, 92
1, 502779, Note_off_c, 0, 62, 63
1, 502781, Note_off_c, 0, 72, 67
1, 502782, Control_c, 0, 64, 85
1, 502789, Note_off_c, 0, 66, 66
1, 502797, Control_c, 0, 64, 77
1, 502806, Note_on_c, 0, 57, 70
1, 502812, Control_c, 0, 64, 68
1, 502821, Note_off_c, 0, 55, 60
1, 502827, Control_c, 0, 64, 44
1, 502841, Control_c, 0, 64, 0
1, 502881, Note_on_c, 0, 59, 63
1, 502887, Note_off_c, 0, 57, 57
1, 502896, Note_on_c, 0, 71, 69
1, 502900, Note_on_c, 0, 62, 59
1, 502909, Note_on_c, 0, 67, 54
1, 502920, Note_off_c, 0, 62, 58
1, 502938, Note_on_c, 0, 60, 69
1, 502939, Note_off_c, 0, 67, 65
1, 502946, Note_off_c, 0, 59, 63
1, 502951, Note_off_c, 0, 71, 57
1, 502988, Note_off_c, 0, 60, 61
1, 503031, Note_on_c, 0, 62, 56
1, 503040, Note_on_c, 0, 67, 72
1, 503045, Note_on_c, 0, 71, 66
1, 503059, Note_off_c, 0, 62, 64
1, 503068, Note_off_c, 0, 67, 65
1, 503074, Note_off_c, 0, 71, 61
1, 503210, Note_on_c, 0, 67, 73
1, 503212, Note_on_c, 0, 52, 74
1, 503215, Note_on_c, 0, 71, 59
1, 503217, Note_on_c, 0, 40, 64
1, 503236, Note_off_c, 0, 67, 68
1, 503241, Note_off_c, 0, 52, 71
1, 503242, Note_off_c, 0, 40, 60
1, 503245, Note_off_c, 0, 71, 66
1, 503406, Note_on_c, 0, 50, 69
1, 503408, Note_on_c, 0, 72, 68
1, 503410, Note_on_c, 0, 62, 69
1, 503412, Note_on_c, 0, 38, 61
1, 503425, Note_on_c, 0, 66, 42
1, 503426, Note_off_c, 0, 66, 127
1, 503436, Note_off_c, 0, 72, 62
1, 503439, Note_off_c, 0, 62, 65
1, 503565, Note_on_c, 0, 72, 69
1, 503572, Note_on_c, 0, 66, 61
1, 503572, Note_on_c, 0, 62, 57
1, 503589, Note_off_c, 0, 38, 62
1, 503594, Note_off_c, 0, 62, 59
1, 503602, Note_off_c, 0, 66, 67
1, 503602, Note_off_c, 0, 72, 57
1, 503629, Note_off_c, 0, 50, 62
1, 503664, Control_c, 0, 67, 119
1, 503679, Control_c, 0, 67, 97
1, 503694, Control_c, 0, 67, 70
1, 503709, Control_c, 0, 67, 40
1, 503722, Note_on_c, 0, 67, 77
1, 503724, Control_c, 0, 67, 11
1, 503738, Control_c, 0, 67, 0
1, 503778, Note_off_c, 0, 67, 60
1, 503789, Note_on_c, 0, 69, 84
1, 503869, Note_on_c, 0, 71, 77
1, 503872, Note_off_c, 0, 69, 64
1, 503888, Note_on_c, 0, 55, 76
1, 503935, Note_on_c, 0, 72, 78
1, 503942, Note_off_c, 0, 71, 60
1, 504014, Note_on_c, 0, 74, 74
1, 504017, Note_off_c, 0, 72, 65
1, 504037, Note_off_c, 0, 74, 71
1, 504079, Note_off_c, 0, 55, 61
1, 504163, Note_on_c, 0, 79, 84
1, 504169, Note_on_c, 0, 74, 72
1, 504207, Note_off_c, 0, 74, 58
1, 504232, Note_on_c, 0, 78, 74
1, 504233, Note_off_c, 0, 79, 62
1, 504234, Note_on_c, 0, 81, 71
1, 504255, Note_off_c, 0, 78, 68
1, 504266, Note_off_c, 0, 81, 62
1, 504323, Note_on_c, 0, 83, 84
1, 504330, Note_on_c, 0, 79, 79
1, 504332, Note_on_c, 0, 55, 78
1, 504371, Note_off_c, 0, 79, 46
1, 504384, Note_off_c, 0, 83, 60
1, 504395, Note_on_c, 0, 81, 73
1, 504404, Note_on_c, 0, 84, 57
1, 504462, Note_on_c, 0, 83, 78
1, 504463, Note_on_c, 0, 86, 75
1, 504470, Note_off_c, 0, 81, 62
1, 504476, Note_off_c, 0, 55, 64
1, 504479, Note_off_c, 0, 84, 62
1, 504496, Note_off_c, 0, 86, 61
1, 504498, Note_off_c, 0, 83, 59
1, 504618, Note_on_c, 0, 83, 81
1, 504626, Note_on_c, 0, 67, 70
1, 504626, Note_on_c, 0, 79, 74
1, 504670, Note_off_c, 0, 79, 63
1, 504674, Note_on_c, 0, 81, 80
1, 504677, Note_off_c, 0, 83, 60
1, 504681, Note_off_c, 0, 67, 61
1, 504682, Note_on_c, 0, 84, 75
1, 504687, Note_on_c, 0, 66, 77
1, 504706, Note_off_c, 0, 81, 61
1, 504715, Note_off_c, 0, 66, 65
1, 504726, Note_off_c, 0, 84, 64
1, 504771, Note_on_c, 0, 65, 80
1, 504779, Note_on_c, 0, 55, 72
1, 504781, Note_on_c, 0, 83, 80
1, 504783, Note_on_c, 0, 86, 87
1, 504797, Note_off_c, 0, 65, 70
1, 504824, Note_off_c, 0, 83, 58
1, 504847, Note_off_c, 0, 86, 62
1, 504849, Note_on_c, 0, 84, 78
1, 504852, Note_on_c, 0, 64, 74
1, 504863, Note_on_c, 0, 88, 68
1, 504921, Note_off_c, 0, 84, 43
1, 504926, Note_on_c, 0, 62, 78
1, 504928, Note_on_c, 0, 89, 78
1, 504932, Note_on_c, 0, 86, 77
1, 504943, Note_off_c, 0, 64, 63
1, 504944, Note_off_c, 0, 88, 48
1, 504962, Note_off_c, 0, 86, 59
1, 504965, Note_off_c, 0, 89, 64
1, 504986, Note_off_c, 0, 62, 61
1, 505075, Note_on_c, 0, 65, 79
1, 505081, Note_on_c, 0, 86, 83
1, 505084, Note_on_c, 0, 83, 74
1, 505122, Note_off_c, 0, 83, 59
1, 505134, Note_off_c, 0, 65, 63
1, 505138, Note_on_c, 0, 84, 74
1, 505140, Note_off_c, 0, 86, 63
1, 505143, Note_on_c, 0, 88, 73
1, 505145, Note_on_c, 0, 64, 77
1, 505164, Note_off_c, 0, 84, 66
1, 505189, Note_off_c, 0, 64, 59
1, 505191, Note_off_c, 0, 88, 63
1, 505236, Note_on_c, 0, 62, 76
1, 505236, Note_on_c, 0, 86, 77
1, 505242, Note_on_c, 0, 89, 78
1, 505269, Note_off_c, 0, 89, 62
1, 505272, Note_off_c, 0, 86, 60
1, 505307, Note_on_c, 0, 88, 76
1, 505310, Note_on_c, 0, 60, 80
1, 505311, Note_on_c, 0, 91, 73
1, 505313, Note_off_c, 0, 62, 61
1, 505349, Note_off_c, 0, 88, 62
1, 505383, Note_on_c, 0, 59, 74
1, 505387, Note_on_c, 0, 89, 78
1, 505388, Note_on_c, 0, 93, 78
1, 505388, Note_off_c, 0, 60, 61
1, 505392, Note_off_c, 0, 91, 35
1, 505417, Note_off_c, 0, 59, 64
1, 505418, Note_off_c, 0, 93, 61
1, 505421, Note_off_c, 0, 55, 41
1, 505422, Note_off_c, 0, 89, 64
1, 505532, Note_on_c, 0, 59, 77
1, 505538, Note_on_c, 0, 93, 84
1, 505539, Note_on_c, 0, 89, 81
1, 505556, Note_on_c, 0, 55, 59
1, 505573, Note_off_c, 0, 89, 62
1, 505611, Note_on_c, 0, 91, 72
1, 505611, Note_on_c, 0, 88, 78
1, 505616, Note_off_c, 0, 93, 60
1, 505621, Note_off_c, 0, 59, 58
1, 505623, Note_on_c, 0, 60, 73
1, 505629, Note_off_c, 0, 55, 64
1, 505647, Note_on_c, 0, 57, 41
1, 505650, Note_off_c, 0, 88, 63
1, 505671, Note_off_c, 0, 60, 60
1, 505674, Note_off_c, 0, 57, 54
1, 505675, Note_on_c, 0, 62, 56
1, 505687, Note_on_c, 0, 86, 76
1, 505692, Note_off_c, 0, 91, 58
1, 505694, Note_on_c, 0, 89, 54
1, 505707, Note_off_c, 0, 62, 64
1, 505711, Note_off_c, 0, 86, 68
1, 505714, Note_off_c, 0, 89, 60
1, 505762, Note_on_c, 0, 64, 70
1, 505766, Note_on_c, 0, 88, 85
1, 505769, Note_on_c, 0, 84, 87
1, 505775, Note_on_c, 0, 60, 64
1, 505808, Note_off_c, 0, 84, 63
1, 505826, Note_off_c, 0, 64, 62
1, 505828, Note_off_c, 0, 88, 50
1, 505838, Note_on_c, 0, 65, 71
1, 505840, Note_off_c, 0, 60, 57
1, 505846, Note_on_c, 0, 86, 84
1, 505849, Note_on_c, 0, 83, 78
1, 505850, Note_on_c, 0, 62, 54
1, 505863, Note_off_c, 0, 65, 70
1, 505874, Note_off_c, 0, 62, 57
1, 505888, Note_off_c, 0, 86, 64
1, 505890, Note_off_c, 0, 83, 60
1, 506017, Note_on_c, 0, 89, 78
1, 506018, Note_on_c, 0, 86, 79
1, 506019, Note_on_c, 0, 56, 42
1, 506032, Note_on_c, 0, 59, 59
1, 506039, Note_off_c, 0, 86, 70
1, 506064, Note_off_c, 0, 56, 58
1, 506085, Note_on_c, 0, 88, 75
1, 506086, Note_on_c, 0, 84, 80
1, 506086, Note_off_c, 0, 89, 63
1, 506106, Note_off_c, 0, 59, 61
1, 506118, Note_on_c, 0, 60, 48
1, 506124, Note_off_c, 0, 84, 64
1, 506136, Note_on_c, 0, 62, 62
1, 506136, Note_off_c, 0, 88, 55
1, 506141, Note_off_c, 0, 60, 59
1, 506161, Note_on_c, 0, 83, 73
1, 506168, Poly_aftertouch_c, 0, 57, 0
1, 506172, Note_off_c, 0, 62, 62
1, 506184, Note_off_c, 0, 83, 65
1, 506228, Note_on_c, 0, 64, 67
1, 506231, Note_on_c, 0, 60, 52
1, 506239, Note_on_c, 0, 84, 79
1, 506243, Note_on_c, 0, 81, 83
1, 506289, Note_off_c, 0, 81, 57
1, 506297, Note_off_c, 0, 84, 59
1, 506315, Note_off_c, 0, 64, 61
1, 506340, Note_off_c, 0, 60, 57
1, 506346, Note_on_c, 0, 83, 60
1, 506360, Note_on_c, 0, 65, 70
1, 506361, Note_on_c, 0, 62, 65
1, 506365, Note_on_c, 0, 80, 74
1, 506412, Note_off_c, 0, 65, 63
1, 506425, Note_off_c, 0, 80, 62
1, 506431, Note_off_c, 0, 83, 59
1, 506438, Note_off_c, 0, 62, 63
1, 506640, Note_on_c, 0, 69, 80
1, 506652, Note_on_c, 0, 52, 56
1, 506699, Note_off_c, 0, 69, 55
1, 506711, Note_on_c, 0, 50, 78
1, 506711, Note_off_c, 0, 52, 64
1, 506717, Note_on_c, 0, 71, 84
1, 506786, Note_on_c, 0, 72, 78
1, 506789, Note_on_c, 0, 48, 74
1, 506795, Note_off_c, 0, 71, 60
1, 506815, Note_off_c, 0, 50, 61
1, 506857, Note_on_c, 0, 47, 76
1, 506861, Note_on_c, 0, 74, 76
1, 506869, Note_off_c, 0, 72, 65
1, 506878, Note_off_c, 0, 48, 65
1, 506940, Note_on_c, 0, 76, 77
1, 506948, Note_off_c, 0, 74, 65
1, 506952, Note_on_c, 0, 45, 82
1, 506969, Note_off_c, 0, 47, 63
1, 506977, Note_off_c, 0, 76, 66
1, 506986, Note_off_c, 0, 45, 66
1, 507111, Note_on_c, 0, 81, 82
1, 507111, Note_on_c, 0, 76, 75
1, 507127, Note_on_c, 0, 64, 79
1, 507153, Note_off_c, 0, 76, 50
1, 507176, Note_off_c, 0, 81, 62
1, 507176, Note_on_c, 0, 80, 79
1, 507177, Note_on_c, 0, 83, 71
1, 507196, Note_on_c, 0, 62, 77
1, 507204, Note_off_c, 0, 64, 61
1, 507211, Note_off_c, 0, 80, 65
1, 507224, Note_off_c, 0, 83, 59
1, 507274, Note_on_c, 0, 60, 73
1, 507284, Note_on_c, 0, 84, 83
1, 507287, Note_on_c, 0, 81, 73
1, 507312, Note_off_c, 0, 62, 60
1, 507330, Note_off_c, 0, 81, 63
1, 507340, Note_on_c, 0, 83, 68
1, 507356, Note_off_c, 0, 84, 50
1, 507357, Note_on_c, 0, 59, 66
1, 507379, Note_on_c, 0, 86, 34
1, 507383, Note_off_c, 0, 60, 61
1, 507420, Note_on_c, 0, 84, 69
1, 507422, Note_off_c, 0, 83, 61
1, 507425, Note_on_c, 0, 88, 72
1, 507434, Note_on_c, 0, 57, 83
1, 507450, Note_off_c, 0, 88, 66
1, 507451, Note_off_c, 0, 59, 62
1, 507454, Note_off_c, 0, 84, 64
1, 507455, Note_off_c, 0, 86, 42
1, 507472, Note_off_c, 0, 57, 64
1, 507587, Note_on_c, 0, 76, 85
1, 507598, Note_on_c, 0, 79, 69
1, 507635, Note_off_c, 0, 76, 63
1, 507644, Note_off_c, 0, 79, 63
1, 507653, Note_on_c, 0, 78, 74
1, 507677, Note_on_c, 0, 75, 70
1, 507725, Note_off_c, 0, 75, 47
1, 507728, Note_off_c, 0, 78, 59
1, 507734, Control_c, 0, 64, 51
1, 507734, Note_on_c, 0, 67, 87
1, 507737, Note_on_c, 0, 76, 73
1, 507737, Note_on_c, 0, 79, 73
1, 507738, Note_on_c, 0, 58, 73
1, 507743, Note_on_c, 0, 64, 72
1, 507743, Note_on_c, 0, 61, 72
1, 507749, Control_c, 0, 64, 73
1, 507764, Control_c, 0, 64, 89
1, 507778, Control_c, 0, 64, 112
1, 507780, Note_off_c, 0, 76, 57
1, 507781, Note_off_c, 0, 67, 59
1, 507790, Note_off_c, 0, 58, 54
1, 507793, Control_c, 0, 64, 127
1, 507802, Note_on_c, 0, 78, 50
1, 507803, Note_off_c, 0, 64, 53
1, 507805, Note_off_c, 0, 79, 63
1, 507808, Note_on_c, 0, 75, 68
1, 507819, Note_off_c, 0, 61, 53
1, 507862, Note_off_c, 0, 75, 63
1, 507871, Note_on_c, 0, 76, 75
1, 507872, Note_off_c, 0, 78, 60
1, 507874, Note_on_c, 0, 79, 66
1, 507889, Note_on_c, 0, 67, 83
1, 507895, Note_off_c, 0, 76, 65
1, 507901, Note_on_c, 0, 58, 64
1, 507902, Note_on_c, 0, 61, 58
1, 507906, Note_on_c, 0, 64, 61
1, 507911, Note_off_c, 0, 67, 67
1, 507914, Note_off_c, 0, 79, 56
1, 507925, Note_off_c, 0, 58, 63
1, 507925, Note_off_c, 0, 64, 65
1, 507932, Note_off_c, 0, 61, 64
1, 508059, Note_on_c, 0, 91, 85
1, 508061, Note_on_c, 0, 88, 84
1, 508093, Note_off_c, 0, 88, 51
1, 508116, Note_on_c, 0, 90, 83
1, 508124, Note_off_c, 0, 91, 55
1, 508138, Note_on_c, 0, 87, 75
1, 508169, Note_off_c, 0, 90, 63
1, 508198, Note_off_c, 0, 87, 54
1, 508203, Note_on_c, 0, 88, 64
1, 508207, Note_on_c, 0, 91, 77
1, 508215, Note_on_c, 0, 67, 80
1, 508221, Note_on_c, 0, 58, 71
1, 508221, Note_on_c, 0, 64, 69
1, 508224, Note_on_c, 0, 61, 70
1, 508247, Note_on_c, 0, 90, 64
1, 508255, Note_off_c, 0, 88, 62
1, 508257, Note_off_c, 0, 67, 52
1, 508258, Note_off_c, 0, 61, 57
1, 508263, Note_off_c, 0, 64, 50
1, 508273, Note_off_c, 0, 91, 59
1, 508280, Note_on_c, 0, 87, 56
1, 508292, Note_off_c, 0, 58, 54
1, 508300, Note_off_c, 0, 87, 61
1, 508315, Note_off_c, 0, 90, 62
1, 508348, Note_on_c, 0, 91, 83
1, 508349, Note_on_c, 0, 88, 84
1, 508354, Note_on_c, 0, 67, 80
1, 508363, Note_on_c, 0, 64, 63
1, 508368, Note_on_c, 0, 61, 58
1, 508376, Note_off_c, 0, 67, 66
1, 508384, Note_off_c, 0, 64, 66
1, 508389, Note_off_c, 0, 88, 63
1, 508391, Note_off_c, 0, 61, 58
1, 508395, Note_off_c, 0, 91, 61
1, 508533, Note_on_c, 0, 71, 63
1, 508592, Note_on_c, 0, 73, 73
1, 508609, Control_c, 0, 64, 110
1, 508621, Note_off_c, 0, 71, 58
1, 508624, Control_c, 0, 64, 95
1, 508639, Control_c, 0, 64, 84
1, 508653, Control_c, 0, 64, 73
1, 508668, Control_c, 0, 64, 62
1, 508676, Note_off_c, 0, 73, 64
1, 508683, Control_c, 0, 64, 0
1, 508688, Note_on_c, 0, 83, 82
1, 508688, Note_on_c, 0, 75, 67
1, 508721, Note_off_c, 0, 75, 62
1, 508744, Note_on_c, 0, 76, 67
1, 508753, Note_on_c, 0, 85, 81
1, 508770, Note_off_c, 0, 83, 56
1, 508775, Note_off_c, 0, 76, 61
1, 508817, Note_on_c, 0, 78, 77
1, 508824, Note_on_c, 0, 87, 78
1, 508834, Note_off_c, 0, 85, 63
1, 508840, Note_off_c, 0, 78, 70
1, 508902, Note_on_c, 0, 88, 67
1, 508902, Note_off_c, 0, 87, 63
1, 508974, Note_on_c, 0, 90, 75
1, 508983, Note_off_c, 0, 88, 62
1, 508984, Note_on_c, 0, 59, 69
1, 508997, Note_off_c, 0, 90, 69
1, 509043, Note_on_c, 0, 61, 72
1, 509059, Note_off_c, 0, 59, 61
1, 509118, Note_on_c, 0, 63, 67
1, 509120, Note_off_c, 0, 61, 63
1, 509135, Note_on_c, 0, 71, 78
1, 509162, Note_off_c, 0, 63, 63
1, 509188, Note_on_c, 0, 64, 63
1, 509197, Note_on_c, 0, 73, 74
1, 509200, Note_off_c, 0, 71, 55
1, 509220, Note_off_c, 0, 64, 62
1, 509263, Note_on_c, 0, 66, 72
1, 509266, Note_off_c, 0, 73, 63
1, 509266, Note_on_c, 0, 75, 71
1, 509288, Note_off_c, 0, 66, 68
1, 509343, Note_on_c, 0, 76, 66
1, 509352, Note_off_c, 0, 75, 57
1, 509420, Note_on_c, 0, 78, 67
1, 509422, Note_on_c, 0, 47, 67
1, 509424, Note_off_c, 0, 76, 64
1, 509437, Note_off_c, 0, 78, 66
1, 509490, Note_on_c, 0, 49, 70
1, 509501, Note_off_c, 0, 47, 60
1, 509563, Note_on_c, 0, 51, 63
1, 509567, Note_off_c, 0, 49, 62
1, 509568, Note_on_c, 0, 59, 70
1, 509610, Note_off_c, 0, 51, 61
1, 509637, Note_on_c, 0, 61, 69
1, 509642, Note_on_c, 0, 52, 63
1, 509642, Note_off_c, 0, 59, 58
1, 509687, Note_off_c, 0, 52, 48
1, 509702, Note_on_c, 0, 63, 72
1, 509707, Note_off_c, 0, 61, 62
1, 509710, Note_on_c, 0, 54, 65
1, 509731, Note_off_c, 0, 54, 62
1, 509779, Note_off_c, 0, 63, 64
1, 509782, Note_on_c, 0, 64, 60
1, 509850, Note_on_c, 0, 66, 61
1, 509851, Note_on_c, 0, 35, 65
1, 509857, Note_off_c, 0, 64, 64
1, 509868, Note_off_c, 0, 66, 65
1, 509920, Note_on_c, 0, 37, 70
1, 509942, Note_off_c, 0, 35, 63
1, 509990, Note_on_c, 0, 39, 66
1, 509996, Note_on_c, 0, 47, 69
1, 509998, Note_off_c, 0, 37, 65
1, 510065, Note_off_c, 0, 39, 62
1, 510068, Note_off_c, 0, 47, 59
1, 510075, Note_on_c, 0, 40, 73
1, 510083, Note_on_c, 0, 49, 63
1, 510123, Note_off_c, 0, 40, 56
1, 510139, Note_off_c, 0, 49, 59
1, 510156, Note_on_c, 0, 51, 60
1, 510157, Note_on_c, 0, 42, 71
1, 510186, Note_off_c, 0, 51, 64
1, 510187, Note_off_c, 0, 42, 65
1, 510224, Note_on_c, 0, 52, 67
1, 510281, Note_off_c, 0, 52, 50
1, 510306, Note_on_c, 0, 54, 62
1, 510354, Note_off_c, 0, 54, 62
1, 510366, Note_on_c, 0, 55, 65
1, 510397, Note_off_c, 0, 55, 65
1, 510446, Note_on_c, 0, 57, 63
1, 510512, Note_off_c, 0, 57, 59
1, 510522, Note_on_c, 0, 59, 64
1, 510575, Note_off_c, 0, 59, 62
1, 510581, Note_on_c, 0, 61, 68
1, 510638, Note_off_c, 0, 61, 63
1, 510654, Note_on_c, 0, 63, 63
1, 510677, Note_off_c, 0, 63, 68
1, 510721, Note_on_c, 0, 64, 69
1, 510782, Note_off_c, 0, 64, 62
1, 510804, Note_on_c, 0, 66, 66
1, 510857, Note_off_c, 0, 66, 64
1, 510865, Note_on_c, 0, 67, 63
1, 510901, Note_off_c, 0, 67, 56
1, 510938, Note_on_c, 0, 69, 65
1, 510983, Note_off_c, 0, 69, 53
1, 511017, Note_on_c, 0, 70, 65
1, 511083, Note_off_c, 0, 70, 63
1, 511084, Note_on_c, 0, 71, 65
1, 511158, Note_on_c, 0, 72, 69
1, 511159, Note_off_c, 0, 71, 61
1, 511221, Note_off_c, 0, 72, 52
1, 511223, Note_on_c, 0, 71, 59
1, 511297, Note_on_c, 0, 70, 66
1, 511301, Note_off_c, 0, 71, 60
1, 511347, Note_off_c, 0, 70, 62
1, 511362, Note_on_c, 0, 69, 56
1, 511402, Note_off_c, 0, 69, 64
1, 511505, Note_on_c, 0, 67, 50
1, 511528, Note_off_c, 0, 67, 61
1, 511586, Note_on_c, 0, 66, 62
1, 511662, Note_on_c, 0, 65, 55
1, 511699, Note_off_c, 0, 66, 55
1, 511707, Note_off_c, 0, 65, 65
1, 511740, Note_on_c, 0, 64, 54
1, 511773, Note_off_c, 0, 64, 57
1, 511806, Note_on_c, 0, 63, 61
1, 511839, Note_off_c, 0, 63, 65
1, 511868, Note_on_c, 0, 62, 56
1, 511912, Note_off_c, 0, 62, 60
1, 511948, Note_on_c, 0, 61, 61
1, 512019, Note_off_c, 0, 61, 62
1, 512023, Note_on_c, 0, 60, 60
1, 512075, Note_off_c, 0, 60, 59
1, 512099, Note_on_c, 0, 59, 51
1, 512143, Note_off_c, 0, 59, 61
1, 512192, Note_on_c, 0, 58, 58
1, 512228, Note_off_c, 0, 58, 65
1, 512261, Note_on_c, 0, 57, 52
1, 512317, Note_off_c, 0, 57, 55
1, 512370, Note_on_c, 0, 55, 54
1, 512426, Note_off_c, 0, 55, 63
1, 512439, Note_on_c, 0, 54, 55
1, 512461, Note_off_c, 0, 54, 61
1, 512637, Note_on_c, 0, 40, 49
1, 512639, Note_on_c, 0, 52, 58
1, 512670, Note_off_c, 0, 52, 65
1, 512697, Note_off_c, 0, 40, 61
1, 512708, Note_on_c, 0, 42, 56
1, 512712, Note_on_c, 0, 54, 53
1, 512735, Note_off_c, 0, 54, 57
1, 512779, Note_on_c, 0, 55, 62
1, 512783, Note_off_c, 0, 42, 60
1, 512783, Note_on_c, 0, 43, 59
1, 512822, Note_off_c, 0, 55, 58
1, 512838, Note_off_c, 0, 43, 62
1, 512854, Note_on_c, 0, 45, 54
1, 512859, Note_on_c, 0, 57, 53
1, 512897, Note_off_c, 0, 45, 62
1, 512903, Note_off_c, 0, 57, 57
1, 512932, Note_on_c, 0, 59, 63
1, 512943, Note_on_c, 0, 47, 58
1, 512956, Note_off_c, 0, 59, 64
1, 512968, Note_off_c, 0, 47, 62
1, 513120, Note_on_c, 0, 60, 71
1, 513132, Note_on_c, 0, 48, 62
1, 513138, Note_on_c, 0, 36, 56
1, 513145, Note_off_c, 0, 60, 68
1, 513153, Note_off_c, 0, 48, 62
1, 513165, Note_off_c, 0, 36, 58
1, 513335, Note_on_c, 0, 59, 65
1, 513341, Note_on_c, 0, 47, 65
1, 513351, Note_on_c, 0, 35, 57
1, 513353, Control_c, 0, 64, 63
1, 513368, Control_c, 0, 64, 77
1, 513375, Note_off_c, 0, 47, 64
1, 513383, Control_c, 0, 64, 94
1, 513387, Note_off_c, 0, 35, 64
1, 513397, Control_c, 0, 64, 127
1, 513402, Note_off_c, 0, 59, 61
1, 513412, Control_c, 0, 64, 127
1, 513680, Control_c, 0, 64, 126
1, 513695, Control_c, 0, 64, 100
1, 513709, Note_on_c, 0, 52, 70
1, 513710, Control_c, 0, 64, 82
1, 513716, Note_on_c, 0, 40, 63
1, 513725, Control_c, 0, 64, 64
1, 513737, Note_off_c, 0, 52, 70
1, 513739, Control_c, 0, 64, 0
1, 513784, Note_on_c, 0, 54, 71
1, 513797, Note_on_c, 0, 42, 69
1, 513800, Note_off_c, 0, 40, 62
1, 513821, Note_off_c, 0, 54, 63
1, 513868, Note_on_c, 0, 55, 72
1, 513871, Note_on_c, 0, 43, 69
1, 513906, Note_off_c, 0, 42, 57
1, 513935, Note_on_c, 0, 45, 71
1, 513936, Note_on_c, 0, 57, 74
1, 513940, Note_off_c, 0, 55, 65
1, 513948, Note_off_c, 0, 43, 59
1, 514006, Note_off_c, 0, 45, 64
1, 514015, Note_on_c, 0, 59, 81
1, 514022, Note_off_c, 0, 57, 62
1, 514026, Note_on_c, 0, 47, 74
1, 514038, Note_off_c, 0, 59, 69
1, 514055, Note_off_c, 0, 47, 66
1, 514185, Note_on_c, 0, 60, 83
1, 514191, Note_on_c, 0, 48, 75
1, 514200, Note_on_c, 0, 36, 62
1, 514211, Note_off_c, 0, 60, 63
1, 514217, Note_off_c, 0, 48, 68
1, 514231, Note_off_c, 0, 36, 64
1, 514398, Note_on_c, 0, 59, 81
1, 514402, Note_on_c, 0, 47, 77
1, 514409, Note_on_c, 0, 35, 67
1, 514429, Control_c, 0, 64, 53
1, 514438, Note_off_c, 0, 47, 64
1, 514440, Note_off_c, 0, 35, 64
1, 514444, Control_c, 0, 64, 75
1, 514459, Control_c, 0, 64, 89
1, 514460, Note_off_c, 0, 59, 62
1, 514474, Control_c, 0, 64, 106
1, 514488, Control_c, 0, 64, 117
1, 514503, Control_c, 0, 64, 118
1, 514518, Control_c, 0, 64, 119
1, 514533, Control_c, 0, 64, 120
1, 514569, Control_c, 0, 64, 120
1, 514599, Control_c, 0, 64, 121
1, 514752, Note_on_c, 0, 64, 71
1, 514753, Note_on_c, 0, 52, 62
1, 514778, Control_c, 0, 64, 118
1, 514780, Note_off_c, 0, 64, 64
1, 514786, Note_off_c, 0, 52, 64
1, 514793, Control_c, 0, 64, 108
1, 514807, Control_c, 0, 64, 93
1, 514820, Note_on_c, 0, 60, 74
1, 514822, Control_c, 0, 64, 76
1, 514825, Note_on_c, 0, 48, 72
1, 514837, Control_c, 0, 64, 60
1, 514852, Control_c, 0, 64, 0
1, 514852, Note_off_c, 0, 60, 60
1, 514885, Note_off_c, 0, 48, 60
1, 514897, Note_on_c, 0, 47, 73
1, 514899, Note_on_c, 0, 59, 77
1, 514928, Note_off_c, 0, 47, 65
1, 514931, Note_off_c, 0, 59, 66
1, 515064, Note_on_c, 0, 55, 64
1, 515067, Note_on_c, 0, 67, 76
1, 515092, Note_off_c, 0, 67, 65
1, 515099, Note_off_c, 0, 55, 65
1, 515130, Note_on_c, 0, 60, 71
1, 515145, Note_on_c, 0, 48, 63
1, 515169, Note_off_c, 0, 60, 58
1, 515189, Note_off_c, 0, 48, 66
1, 515204, Note_on_c, 0, 47, 74
1, 515213, Note_on_c, 0, 59, 81
1, 515238, Note_off_c, 0, 47, 64
1, 515239, Note_off_c, 0, 59, 65
1, 515377, Note_on_c, 0, 59, 67
1, 515384, Note_on_c, 0, 71, 74
1, 515404, Note_off_c, 0, 59, 64
1, 515409, Note_off_c, 0, 71, 62
1, 515440, Note_on_c, 0, 60, 75
1, 515460, Note_on_c, 0, 48, 68
1, 515515, Note_off_c, 0, 60, 55
1, 515517, Note_off_c, 0, 48, 62
1, 515526, Note_on_c, 0, 59, 83
1, 515526, Note_on_c, 0, 47, 75
1, 515558, Note_off_c, 0, 59, 65
1, 515559, Note_off_c, 0, 47, 67
1, 515689, Note_on_c, 0, 72, 88
1, 515690, Note_on_c, 0, 60, 70
1, 515717, Note_off_c, 0, 60, 67
1, 515724, Note_off_c, 0, 72, 63
1, 515764, Note_on_c, 0, 60, 78
1, 515777, Note_on_c, 0, 48, 69
1, 515821, Note_off_c, 0, 60, 63
1, 515836, Note_on_c, 0, 59, 87
1, 515837, Note_off_c, 0, 48, 65
1, 515839, Note_on_c, 0, 47, 79
1, 515866, Note_off_c, 0, 59, 66
1, 515877, Note_off_c, 0, 47, 64
1, 516015, Note_on_c, 0, 76, 88
1, 516018, Note_on_c, 0, 64, 88
1, 516056, Note_off_c, 0, 64, 69
1, 516057, Note_off_c, 0, 76, 67
1, 516207, Note_on_c, 0, 59, 85
1, 516208, Note_on_c, 0, 47, 83
1, 516239, Note_off_c, 0, 47, 65
1, 516241, Note_off_c, 0, 59, 65
1, 516436, Note_on_c, 0, 58, 95
1, 516442, Note_on_c, 0, 46, 94
1, 516498, Control_c, 0, 64, 47
1, 516513, Control_c, 0, 64, 73
1, 516527, Control_c, 0, 64, 92
1, 516542, Control_c, 0, 64, 127
1, 516557, Note_off_c, 0, 46, 62
1, 516569, Note_off_c, 0, 58, 61
1, 516779, Control_c, 0, 64, 115
1, 516801, Control_c, 0, 64, 92
1, 516817, Control_c, 0, 64, 73
1, 516831, Control_c, 0, 64, 0
1, 517126, Note_on_c, 0, 76, 85
1, 517127, Note_on_c, 0, 70, 97
1, 517128, Note_on_c, 0, 48, 91
1, 517128, Note_on_c, 0, 79, 82
1, 517131, Note_on_c, 0, 82, 85
1, 517137, Note_on_c, 0, 36, 77
1, 517156, Control_c, 0, 64, 61
1, 517171, Control_c, 0, 64, 74
1, 517186, Control_c, 0, 64, 93
1, 517201, Control_c, 0, 64, 127
1, 517437, Note_off_c, 0, 70, 57
1, 517449, Note_off_c, 0, 76, 54
1, 517452, Note_off_c, 0, 48, 62
1, 517452, Note_off_c, 0, 82, 62
1, 517478, Note_off_c, 0, 36, 61
1, 517481, Note_off_c, 0, 79, 49
1, 517672, Note_on_c, 0, 83, 66
1, 517683, Note_on_c, 0, 71, 65
1, 517683, Control_c, 0, 64, 107
1, 517686, Note_on_c, 0, 47, 71
1, 517687, Note_on_c, 0, 35, 65
1, 517695, Note_on_c, 0, 79, 49
1, 517698, Control_c, 0, 64, 86
1, 517699, Note_off_c, 0, 83, 65
1, 517700, Note_on_c, 0, 76, 49
1, 517712, Control_c, 0, 64, 70
1, 517715, Note_off_c, 0, 35, 65
1, 517715, Note_off_c, 0, 79, 57
1, 517721, Note_off_c, 0, 76, 56
1, 517727, Control_c, 0, 64, 29
1, 517735, Note_off_c, 0, 71, 61
1, 517736, Note_off_c, 0, 47, 58
1, 517742, Control_c, 0, 64, 0
1, 517869, Note_on_c, 0, 51, 65
1, 517876, Note_on_c, 0, 63, 64
1, 517924, Note_off_c, 0, 63, 59
1, 517939, Note_off_c, 0, 51, 60
1, 517964, Note_on_c, 0, 52, 68
1, 517967, Note_on_c, 0, 64, 63
1, 517999, Note_off_c, 0, 64, 66
1, 518002, Note_off_c, 0, 52, 67
1, 518050, Note_on_c, 0, 54, 78
1, 518055, Note_on_c, 0, 66, 69
1, 518098, Note_off_c, 0, 66, 62
1, 518107, Note_off_c, 0, 54, 60
1, 518125, Note_on_c, 0, 67, 69
1, 518134, Note_on_c, 0, 55, 69
1, 518152, Note_off_c, 0, 67, 66
1, 518163, Note_off_c, 0, 55, 68
1, 518215, Note_on_c, 0, 58, 79
1, 518233, Note_on_c, 0, 70, 66
1, 518277, Note_off_c, 0, 70, 57
1, 518278, Note_off_c, 0, 58, 64
1, 518309, Note_on_c, 0, 59, 70
1, 518311, Note_on_c, 0, 71, 64
1, 518332, Note_off_c, 0, 71, 64
1, 518336, Note_off_c, 0, 59, 66
1, 518399, Note_on_c, 0, 63, 80
1, 518431, Note_on_c, 0, 74, 50
1, 518452, Note_off_c, 0, 74, 63
1, 518471, Note_off_c, 0, 63, 64
1, 518487, Note_on_c, 0, 64, 77
1, 518506, Note_on_c, 0, 76, 59
1, 518523, Note_off_c, 0, 64, 65
1, 518525, Note_off_c, 0, 76, 62
1, 518567, Note_on_c, 0, 66, 80
1, 518587, Note_on_c, 0, 78, 75
1, 518617, Note_off_c, 0, 78, 59
1, 518634, Note_off_c, 0, 66, 66
1, 518650, Note_on_c, 0, 67, 80
1, 518664, Note_on_c, 0, 79, 60
1, 518682, Note_off_c, 0, 79, 61
1, 518686, Note_off_c, 0, 67, 61
1, 518732, Note_on_c, 0, 70, 82
1, 518736, Note_on_c, 0, 82, 82
1, 518774, Note_off_c, 0, 82, 64
1, 518813, Note_off_c, 0, 70, 63
1, 518823, Note_on_c, 0, 83, 91
1, 518831, Note_on_c, 0, 71, 88
1, 518987, Note_off_c, 0, 71, 60
1, 518991, Note_off_c, 0, 83, 61
1, 519494, Note_on_c, 0, 75, 60
1, 519495, Note_on_c, 0, 66, 52
1, 519502, Note_on_c, 0, 69, 51
1, 519503, Note_on_c, 0, 71, 50
1, 519512, Note_on_c, 0, 59, 43
1, 519521, Note_on_c, 0, 47, 38
1, 519634, Note_off_c, 0, 59, 62
1, 519642, Note_off_c, 0, 66, 65
1, 519649, Note_off_c, 0, 69, 65
1, 519651, Note_off_c, 0, 75, 64
1, 519654, Note_off_c, 0, 47, 57
1, 519657, Note_off_c, 0, 71, 61
1, 520024, Note_on_c, 0, 67, 89
1, 520024, Note_on_c, 0, 76, 82
1, 520025, Note_on_c, 0, 64, 89
1, 520028, Note_on_c, 0, 52, 89
1, 520030, Note_on_c, 0, 40, 77
1, 520030, Note_on_c, 0, 71, 76
1, 520055, Note_off_c, 0, 40, 66
1, 520060, Note_off_c, 0, 52, 64
1, 520063, Control_c, 0, 64, 61
1, 520073, Note_off_c, 0, 64, 64
1, 520078, Control_c, 0, 64, 78
1, 520091, Note_off_c, 0, 67, 62
1, 520093, Control_c, 0, 64, 107
1, 520100, Note_off_c, 0, 71, 61
1, 520107, Control_c, 0, 64, 127
1, 520122, Note_off_c, 0, 76, 67
1, 520225, Note_on_c, 0, 59, 61
1, 520226, Note_on_c, 0, 52, 62
1, 520227, Note_on_c, 0, 64, 60
1, 520229, Note_on_c, 0, 55, 51
1, 520248, Note_off_c, 0, 64, 57
1, 520263, Note_off_c, 0, 52, 63
1, 520266, Note_off_c, 0, 59, 58
1, 520272, Note_off_c, 0, 55, 61
1, 520388, Note_on_c, 0, 82, 78
1, 520393, Note_on_c, 0, 64, 67
1, 520402, Note_on_c, 0, 52, 50
1, 520403, Note_on_c, 0, 55, 44
1, 520403, Note_on_c, 0, 59, 49
1, 520423, Note_off_c, 0, 64, 64
1, 520435, Note_off_c, 0, 52, 60
1, 520436, Note_off_c, 0, 82, 62
1, 520447, Note_off_c, 0, 55, 60
1, 520447, Note_off_c, 0, 59, 46
1, 520453, Note_on_c, 0, 90, 80
1, 520483, Note_off_c, 0, 90, 61
1, 520552, Note_on_c, 0, 91, 100
1, 520556, Note_on_c, 0, 83, 84
1, 520565, Note_on_c, 0, 52, 60
1, 520567, Note_on_c, 0, 59, 64
1, 520570, Note_on_c, 0, 64, 67
1, 520573, Note_on_c, 0, 55, 51
1, 520588, Note_off_c, 0, 83, 58
1, 520590, Note_off_c, 0, 64, 66
1, 520592, Note_off_c, 0, 91, 59
1, 520596, Note_off_c, 0, 59, 61
1, 520601, Note_off_c, 0, 52, 63
1, 520608, Note_off_c, 0, 55, 64
1, 520727, Note_on_c, 0, 78, 83
1, 520742, Note_on_c, 0, 59, 56
1, 520742, Note_on_c, 0, 64, 53
1, 520755, Note_on_c, 0, 55, 39
1, 520763, Note_on_c, 0, 52, 33
1, 520765, Note_off_c, 0, 64, 60
1, 520771, Note_off_c, 0, 78, 60
1, 520778, Note_off_c, 0, 59, 58
1, 520787, Note_on_c, 0, 87, 78
1, 520790, Note_off_c, 0, 52, 58
1, 520805, Note_off_c, 0, 55, 46
1, 520821, Note_off_c, 0, 87, 59
1, 520874, Note_on_c, 0, 88, 94
1, 520880, Note_on_c, 0, 79, 81
1, 520885, Note_on_c, 0, 52, 56
1, 520887, Note_on_c, 0, 64, 60
1, 520891, Note_on_c, 0, 59, 60
1, 520905, Note_on_c, 0, 55, 57
1, 520910, Note_off_c, 0, 79, 62
1, 520916, Note_off_c, 0, 88, 63
1, 520922, Note_off_c, 0, 64, 62
1, 520930, Note_off_c, 0, 59, 56
1, 520939, Note_off_c, 0, 52, 62
1, 520939, Note_off_c, 0, 55, 63
1, 521049, Note_on_c, 0, 78, 87
1, 521059, Note_on_c, 0, 64, 66
1, 521061, Note_on_c, 0, 59, 58
1, 521065, Note_on_c, 0, 52, 57
1, 521070, Note_on_c, 0, 55, 49
1, 521092, Note_off_c, 0, 64, 59
1, 521100, Note_off_c, 0, 52, 64
1, 521106, Note_off_c, 0, 78, 62
1, 521114, Note_on_c, 0, 82, 73
1, 521115, Note_off_c, 0, 59, 49
1, 521117, Note_off_c, 0, 55, 58
1, 521196, Note_on_c, 0, 83, 75
1, 521200, Note_on_c, 0, 79, 74
1, 521208, Note_on_c, 0, 64, 63
1, 521217, Note_on_c, 0, 59, 61
1, 521219, Note_on_c, 0, 52, 54
1, 521224, Note_off_c, 0, 83, 61
1, 521225, Note_on_c, 0, 55, 56
1, 521226, Note_off_c, 0, 82, 50
1, 521228, Note_off_c, 0, 79, 62
1, 521235, Note_off_c, 0, 64, 67
1, 521244, Note_off_c, 0, 52, 61
1, 521252, Note_off_c, 0, 59, 60
1, 521256, Note_off_c, 0, 55, 63
1, 521377, Note_on_c, 0, 70, 78
1, 521384, Note_on_c, 0, 59, 62
1, 521389, Note_on_c, 0, 52, 49
1, 521391, Note_on_c, 0, 64, 59
1, 521392, Note_on_c, 0, 55, 52
1, 521412, Note_off_c, 0, 64, 63
1, 521431, Note_off_c, 0, 70, 61
1, 521434, Note_off_c, 0, 52, 57
1, 521437, Note_on_c, 0, 78, 74
1, 521443, Note_off_c, 0, 59, 45
1, 521449, Note_off_c, 0, 55, 56
1, 521480, Note_off_c, 0, 78, 60
1, 521524, Note_on_c, 0, 79, 88
1, 521532, Note_on_c, 0, 71, 78
1, 521539, Note_on_c, 0, 64, 65
1, 521550, Note_on_c, 0, 59, 63
1, 521556, Note_on_c, 0, 52, 56
1, 521561, Note_on_c, 0, 55, 53
1, 521562, Note_off_c, 0, 71, 61
1, 521566, Note_off_c, 0, 79, 61
1, 521567, Note_off_c, 0, 64, 64
1, 521585, Note_off_c, 0, 59, 59
1, 521597, Note_off_c, 0, 52, 62
1, 521604, Note_off_c, 0, 55, 59
1, 521700, Note_on_c, 0, 66, 77
1, 521714, Note_on_c, 0, 55, 49
1, 521715, Note_on_c, 0, 59, 52
1, 521716, Note_on_c, 0, 52, 49
1, 521724, Note_on_c, 0, 64, 45
1, 521747, Note_off_c, 0, 64, 58
1, 521749, Note_off_c, 0, 66, 60
1, 521751, Note_on_c, 0, 75, 75
1, 521758, Note_off_c, 0, 52, 58
1, 521758, Note_off_c, 0, 59, 54
1, 521770, Note_off_c, 0, 55, 59
1, 521792, Note_off_c, 0, 75, 59
1, 521842, Note_on_c, 0, 64, 57
1, 521842, Note_on_c, 0, 76, 86
1, 521850, Note_on_c, 0, 67, 76
1, 521860, Note_on_c, 0, 52, 56
1, 521863, Note_off_c, 0, 64, 66
1, 521864, Note_on_c, 0, 59, 52
1, 521880, Note_off_c, 0, 67, 63
1, 521881, Note_off_c, 0, 59, 63
1, 521890, Note_off_c, 0, 76, 67
1, 521902, Note_on_c, 0, 55, 12
1, 521905, Note_off_c, 0, 52, 65
1, 521955, Note_off_c, 0, 55, 51
1, 521991, Control_c, 0, 64, 109
1, 522005, Control_c, 0, 64, 75
1, 522020, Control_c, 0, 64, 0
1, 522048, Note_on_c, 0, 75, 82
1, 522051, Note_on_c, 0, 66, 84
1, 522054, Note_on_c, 0, 54, 60
1, 522054, Note_on_c, 0, 57, 61
1, 522059, Note_on_c, 0, 47, 62
1, 522086, Note_off_c, 0, 57, 60
1, 522089, Note_off_c, 0, 54, 59
1, 522099, Note_off_c, 0, 47, 61
1, 522102, Control_c, 0, 64, 64
1, 522107, Note_off_c, 0, 75, 64
1, 522109, Note_off_c, 0, 66, 62
1, 522117, Control_c, 0, 64, 80
1, 522131, Control_c, 0, 64, 101
1, 522146, Control_c, 0, 64, 127
1, 522205, Note_on_c, 0, 54, 59
1, 522206, Note_on_c, 0, 57, 52
1, 522207, Note_on_c, 0, 47, 56
1, 522230, Note_off_c, 0, 57, 59
1, 522239, Note_off_c, 0, 54, 62
1, 522243, Note_off_c, 0, 47, 61
1, 522335, Note_on_c, 0, 69, 66
1, 522351, Note_on_c, 0, 57, 52
1, 522353, Note_on_c, 0, 54, 61
1, 522355, Note_on_c, 0, 47, 57
1, 522372, Note_on_c, 0, 66, 69
1, 522389, Note_off_c, 0, 69, 57
1, 522392, Note_off_c, 0, 57, 58
1, 522405, Note_off_c, 0, 47, 57
1, 522411, Note_off_c, 0, 54, 55
1, 522420, Note_off_c, 0, 66, 63
1, 522421, Note_on_c, 0, 63, 65
1, 522439, Note_on_c, 0, 60, 69
1, 522446, Note_off_c, 0, 63, 66
1, 522492, Note_off_c, 0, 60, 60
1, 522505, Note_on_c, 0, 59, 86
1, 522525, Note_on_c, 0, 54, 67
1, 522525, Note_on_c, 0, 57, 66
1, 522528, Note_off_c, 0, 59, 68
1, 522531, Note_on_c, 0, 47, 62
1, 522554, Note_off_c, 0, 57, 64
1, 522554, Note_off_c, 0, 54, 58
1, 522566, Note_off_c, 0, 47, 59
1, 522664, Note_on_c, 0, 81, 76
1, 522699, Note_on_c, 0, 54, 58
1, 522702, Note_on_c, 0, 47, 55
1, 522711, Note_on_c, 0, 78, 70
1, 522715, Note_on_c, 0, 57, 42
1, 522737, Note_off_c, 0, 81, 58
1, 522746, Note_off_c, 0, 57, 53
1, 522748, Note_off_c, 0, 47, 54
1, 522752, Note_on_c, 0, 75, 74
1, 522763, Note_off_c, 0, 78, 62
1, 522779, Note_off_c, 0, 54, 55
1, 522787, Note_off_c, 0, 75, 67
1, 522791, Note_on_c, 0, 72, 69
1, 522821, Note_off_c, 0, 72, 68
1, 522845, Note_on_c, 0, 71, 83
1, 522871, Note_on_c, 0, 57, 58
1, 522873, Note_off_c, 0, 71, 62
1, 522877, Note_on_c, 0, 47, 65
1, 522879, Note_on_c, 0, 54, 68
1, 522903, Note_off_c, 0, 57, 63
1, 522908, Note_off_c, 0, 54, 62
1, 522915, Note_off_c, 0, 47, 59
1, 523017, Note_on_c, 0, 93, 54
1, 523037, Note_on_c, 0, 54, 52
1, 523038, Note_on_c, 0, 90, 76
1, 523041, Note_on_c, 0, 47, 48
1, 523046, Note_on_c, 0, 91, 22
1, 523055, Note_on_c, 0, 57, 36
1, 523067, Note_off_c, 0, 93, 60
1, 523085, Note_off_c, 0, 91, 31
1, 523086, Note_off_c, 0, 57, 54
1, 523090, Note_on_c, 0, 87, 71
1, 523091, Note_off_c, 0, 90, 64
1, 523091, Note_off_c, 0, 47, 56
1, 523101, Note_off_c, 0, 54, 54
1, 523115, Note_off_c, 0, 87, 64
1, 523126, Note_on_c, 0, 84, 65
1, 523151, Note_off_c, 0, 84, 65
1, 523178, Note_on_c, 0, 83, 87
1, 523187, Note_on_c, 0, 57, 61
1, 523197, Note_on_c, 0, 54, 69
1, 523203, Note_on_c, 0, 47, 62
1, 523216, Note_off_c, 0, 83, 62
1, 523220, Note_off_c, 0, 57, 61
1, 523232, Note_off_c, 0, 54, 60
1, 523240, Note_off_c, 0, 47, 62
1, 523351, Note_on_c, 0, 81, 72
1, 523372, Note_on_c, 0, 54, 57
1, 523374, Note_on_c, 0, 47, 55
1, 523378, Note_on_c, 0, 57, 43
1, 523381, Note_off_c, 0, 81, 60
1, 523384, Note_on_c, 0, 78, 74
1, 523406, Note_off_c, 0, 54, 59
1, 523410, Note_off_c, 0, 57, 52
1, 523417, Note_off_c, 0, 47, 59
1, 523432, Note_on_c, 0, 75, 74
1, 523432, Note_off_c, 0, 78, 64
1, 523460, Note_off_c, 0, 75, 67
1, 523471, Note_on_c, 0, 72, 68
1, 523512, Note_off_c, 0, 72, 62
1, 523533, Note_on_c, 0, 71, 91
1, 523536, Note_on_c, 0, 57, 57
1, 523539, Note_on_c, 0, 54, 68
1, 523541, Note_on_c, 0, 47, 65
1, 523558, Note_off_c, 0, 57, 64
1, 523568, Note_off_c, 0, 54, 65
1, 523568, Note_off_c, 0, 71, 63
1, 523575, Note_off_c, 0, 47, 62
1, 523599, Control_c, 0, 64, 98
1, 523614, Control_c, 0, 64, 75
1, 523629, Control_c, 0, 64, 0
1, 523704, Note_on_c, 0, 83, 93
1, 523705, Note_on_c, 0, 75, 92
1, 523707, Note_on_c, 0, 71, 91
1, 523715, Note_on_c, 0, 47, 62
1, 523715, Note_on_c, 0, 57, 50
1, 523717, Note_on_c, 0, 54, 62
1, 523747, Note_off_c, 0, 57, 56
1, 523747, Control_c, 0, 64, 30
1, 523758, Note_off_c, 0, 54, 59
1, 523762, Control_c, 0, 64, 66
1, 523774, Note_off_c, 0, 47, 60
1, 523776, Control_c, 0, 64, 78
1, 523791, Control_c, 0, 64, 93
1, 523806, Control_c, 0, 64, 110
1, 523821, Control_c, 0, 64, 127
1, 523885, Note_on_c, 0, 57, 55
1, 523886, Note_on_c, 0, 54, 66
1, 523887, Note_on_c, 0, 47, 62
1, 523908, Note_off_c, 0, 57, 58
1, 523913, Note_off_c, 0, 75, 58
1, 523915, Note_off_c, 0, 54, 64
1, 523917, Note_off_c, 0, 47, 66
1, 524049, Note_on_c, 0, 79, 69
1, 524049, Note_off_c, 0, 83, 56
1, 524057, Note_on_c, 0, 52, 65
1, 524063, Note_on_c, 0, 76, 55
1, 524072, Note_on_c, 0, 55, 43
1, 524073, Control_c, 0, 64, 109
1, 524088, Control_c, 0, 64, 93
1, 524093, Note_off_c, 0, 52, 62
1, 524099, Note_off_c, 0, 55, 56
1, 524103, Control_c, 0, 64, 78
1, 524111, Note_off_c, 0, 71, 52
1, 524118, Control_c, 0, 64, 67
1, 524120, Note_off_c, 0, 79, 58
1, 524133, Control_c, 0, 64, 42
1, 524138, Note_off_c, 0, 76, 63
1, 524147, Control_c, 0, 64, 0
1, 524218, Note_on_c, 0, 55, 54
1, 524224, Note_on_c, 0, 52, 59
1, 524246, Note_off_c, 0, 52, 64
1, 524250, Note_off_c, 0, 55, 64
1, 524390, Note_on_c, 0, 63, 65
1, 524391, Note_on_c, 0, 51, 51
1, 524424, Note_off_c, 0, 63, 64
1, 524447, Note_off_c, 0, 51, 61
1, 524460, Note_on_c, 0, 64, 66
1, 524469, Note_on_c, 0, 52, 55
1, 524504, Note_off_c, 0, 64, 63
1, 524510, Note_off_c, 0, 52, 65
1, 524558, Note_on_c, 0, 67, 74
1, 524562, Note_on_c, 0, 55, 61
1, 524583, Note_off_c, 0, 67, 67
1, 524591, Note_off_c, 0, 55, 67
1, 524729, Note_on_c, 0, 63, 70
1, 524731, Note_on_c, 0, 51, 50
1, 524764, Note_off_c, 0, 63, 63
1, 524784, Note_off_c, 0, 51, 61
1, 524798, Note_on_c, 0, 52, 64
1, 524805, Note_on_c, 0, 64, 66
1, 524847, Note_off_c, 0, 52, 66
1, 524849, Note_off_c, 0, 64, 63
1, 524884, Note_on_c, 0, 71, 74
1, 524889, Note_on_c, 0, 59, 66
1, 524906, Note_off_c, 0, 71, 68
1, 524918, Note_off_c, 0, 59, 66
1, 525059, Note_on_c, 0, 63, 77
1, 525062, Note_on_c, 0, 51, 52
1, 525092, Note_off_c, 0, 63, 64
1, 525110, Note_on_c, 0, 52, 67
1, 525118, Note_off_c, 0, 51, 58
1, 525121, Note_on_c, 0, 64, 71
1, 525141, Note_off_c, 0, 52, 67
1, 525163, Note_off_c, 0, 64, 63
1, 525217, Note_on_c, 0, 64, 79
1, 525217, Note_on_c, 0, 76, 87
1, 525257, Note_off_c, 0, 76, 66
1, 525267, Note_off_c, 0, 64, 63
1, 525380, Note_on_c, 0, 64, 83
1, 525392, Note_on_c, 0, 52, 73
1, 525421, Note_off_c, 0, 52, 68
1, 525423, Note_off_c, 0, 64, 64
1, 525551, Note_on_c, 0, 79, 84
1, 525553, Note_on_c, 0, 67, 87
1, 525589, Note_off_c, 0, 79, 63
1, 525590, Note_off_c, 0, 67, 65
1, 525715, Note_on_c, 0, 64, 83
1, 525729, Note_on_c, 0, 52, 70
1, 525737, Note_off_c, 0, 64, 69
1, 525759, Note_off_c, 0, 52, 69
1, 525919, Note_on_c, 0, 83, 90
1, 525920, Note_on_c, 0, 71, 82
1, 525921, Note_on_c, 0, 76, 84
1, 525922, Note_on_c, 0, 55, 89
1, 525924, Note_on_c, 0, 43, 76
1, 525947, Note_off_c, 0, 71, 59
1, 525955, Note_off_c, 0, 43, 62
1, 525958, Note_off_c, 0, 55, 65
1, 525968, Note_off_c, 0, 76, 60
1, 525972, Note_off_c, 0, 83, 60
1, 526174, Note_on_c, 0, 76, 88
1, 526177, Note_on_c, 0, 57, 93
1, 526177, Note_on_c, 0, 84, 94
1, 526177, Note_on_c, 0, 72, 91
1, 526181, Note_on_c, 0, 45, 76
1, 526245, Control_c, 0, 64, 39
1, 526260, Control_c, 0, 64, 70
1, 526275, Control_c, 0, 64, 86
1, 526290, Control_c, 0, 64, 116
1, 526305, Control_c, 0, 64, 127
1, 526356, Note_off_c, 0, 57, 55
1, 526370, Note_off_c, 0, 72, 60
1, 526377, Note_off_c, 0, 45, 45
1, 526382, Note_off_c, 0, 76, 60
1, 526410, Note_off_c, 0, 84, 61
1, 526725, Note_on_c, 0, 86, 83
1, 526729, Note_on_c, 0, 83, 79
1, 526758, Control_c, 0, 64, 122
1, 526759, Note_off_c, 0, 83, 52
1, 526773, Control_c, 0, 64, 104
1, 526788, Control_c, 0, 64, 90
1, 526800, Note_on_c, 0, 81, 72
1, 526802, Control_c, 0, 64, 79
1, 526806, Note_off_c, 0, 86, 60
1, 526809, Note_on_c, 0, 84, 65
1, 526817, Control_c, 0, 64, 69
1, 526832, Control_c, 0, 64, 58
1, 526847, Control_c, 0, 64, 13
1, 526862, Control_c, 0, 64, 0
1, 526867, Note_on_c, 0, 83, 66
1, 526871, Note_off_c, 0, 81, 60
1, 526874, Note_off_c, 0, 84, 62
1, 526880, Note_on_c, 0, 79, 71
1, 526894, Note_off_c, 0, 83, 65
1, 526914, Note_off_c, 0, 79, 62
1, 526976, Note_on_c, 0, 81, 77
1, 526981, Note_on_c, 0, 78, 75
1, 527027, Note_off_c, 0, 78, 56
1, 527043, Note_on_c, 0, 79, 68
1, 527057, Note_on_c, 0, 76, 65
1, 527064, Note_off_c, 0, 81, 56
1, 527116, Note_off_c, 0, 79, 61
1, 527125, Note_off_c, 0, 76, 65
1, 527128, Note_on_c, 0, 78, 62
1, 527129, Note_on_c, 0, 74, 66
1, 527145, Note_off_c, 0, 78, 64
1, 527154, Note_off_c, 0, 74, 70
1, 527222, Note_on_c, 0, 72, 72
1, 527222, Note_on_c, 0, 76, 73
1, 527262, Note_off_c, 0, 72, 60
1, 527301, Note_on_c, 0, 71, 70
1, 527303, Note_on_c, 0, 74, 58
1, 527321, Note_off_c, 0, 76, 63
1, 527366, Note_off_c, 0, 71, 60
1, 527367, Note_off_c, 0, 74, 64
1, 527373, Note_on_c, 0, 69, 70
1, 527373, Note_on_c, 0, 72, 59
1, 527392, Note_off_c, 0, 72, 62
1, 527400, Note_off_c, 0, 69, 70
1, 527463, Note_on_c, 0, 71, 78
1, 527471, Note_on_c, 0, 67, 74
1, 527527, Note_on_c, 0, 69, 68
1, 527537, Note_on_c, 0, 66, 78
1, 527539, Note_off_c, 0, 71, 57
1, 527570, Note_off_c, 0, 69, 63
1, 527599, Note_on_c, 0, 64, 67
1, 527601, Note_off_c, 0, 67, 27
1, 527607, Note_off_c, 0, 66, 55
1, 527630, Note_off_c, 0, 64, 67
1, 527694, Note_on_c, 0, 63, 69
1, 527704, Note_on_c, 0, 66, 69
1, 527751, Note_off_c, 0, 63, 59
1, 527756, Note_on_c, 0, 64, 71
1, 527775, Note_off_c, 0, 66, 62
1, 527777, Note_on_c, 0, 61, 63
1, 527881, Note_on_c, 0, 59, 64
1, 527881, Note_on_c, 0, 63, 70
1, 527891, Note_off_c, 0, 64, 56
1, 527895, Note_on_c, 0, 57, 51
1, 527897, Note_off_c, 0, 61, 54
1, 527906, Note_on_c, 0, 47, 44
1, 527910, Note_on_c, 0, 54, 37
1, 527995, Control_c, 0, 67, 10
1, 528018, Control_c, 0, 67, 27
1, 528033, Control_c, 0, 67, 61
1, 528047, Control_c, 0, 67, 110
1, 528062, Control_c, 0, 67, 127
1, 528136, Control_c, 0, 64, 63
1, 528151, Control_c, 0, 64, 65
1, 528165, Control_c, 0, 64, 66
1, 528180, Control_c, 0, 64, 66
1, 528196, Control_c, 0, 64, 67
1, 528211, Control_c, 0, 64, 67
1, 528226, Control_c, 0, 64, 68
1, 528241, Control_c, 0, 64, 70
1, 528255, Control_c, 0, 64, 71
1, 528270, Control_c, 0, 64, 72
1, 528299, Note_off_c, 0, 59, 37
1, 528300, Control_c, 0, 64, 72
1, 528314, Note_off_c, 0, 57, 35
1, 528329, Control_c, 0, 64, 73
1, 528418, Control_c, 0, 64, 73
1, 528562, Note_off_c, 0, 47, 42
1, 528571, Note_off_c, 0, 54, 40
1, 528572, Note_off_c, 0, 63, 58
1, 528596, Control_c, 0, 64, 72
1, 528597, Note_on_c, 0, 64, 45
1, 528609, Note_on_c, 0, 59, 33
1, 528611, Control_c, 0, 64, 69
1, 528617, Note_on_c, 0, 55, 37
1, 528618, Note_on_c, 0, 52, 31
1, 528626, Control_c, 0, 64, 65
1, 528640, Control_c, 0, 64, 54
1, 528655, Control_c, 0, 64, 0
1, 528901, Note_off_c, 0, 55, 58
1, 528912, Note_off_c, 0, 59, 58
1, 528913, Note_off_c, 0, 64, 64
1, 528928, Note_off_c, 0, 52, 61
1, 529292, Note_on_c, 0, 59, 43
1, 529298, Note_on_c, 0, 47, 38
1, 529403, Control_c, 0, 64, 62
1, 529418, Control_c, 0, 64, 68
1, 529433, Control_c, 0, 64, 72
1, 529448, Control_c, 0, 64, 76
1, 529462, Control_c, 0, 64, 80
1, 529477, Control_c, 0, 64, 83
1, 529492, Control_c, 0, 64, 86
1, 529507, Control_c, 0, 64, 89
1, 529529, Control_c, 0, 64, 92
1, 529544, Control_c, 0, 64, 95
1, 529559, Control_c, 0, 64, 98
1, 529574, Control_c, 0, 64, 101
1, 529589, Control_c, 0, 64, 103
1, 529605, Control_c, 0, 64, 104
1, 529619, Control_c, 0, 64, 106
1, 529634, Control_c, 0, 64, 107
1, 529649, Control_c, 0, 64, 109
1, 529664, Control_c, 0, 64, 110
1, 529679, Control_c, 0, 64, 111
1, 529692, Control_c, 0, 64, 113
1, 529707, Control_c, 0, 64, 114
1, 529722, Control_c, 0, 64, 114
1, 529737, Control_c, 0, 64, 115
1, 529751, Control_c, 0, 64, 115
1, 529766, Control_c, 0, 64, 116
1, 530036, Note_off_c, 0, 47, 38
1, 530039, Note_off_c, 0, 59, 33
1, 530590, Note_on_c, 0, 40, 38
1, 530590, Note_on_c, 0, 52, 40
1, 530634, Control_c, 0, 64, 115
1, 530648, Control_c, 0, 64, 113
1, 530663, Control_c, 0, 64, 109
1, 530678, Control_c, 0, 64, 102
1, 530693, Control_c, 0, 64, 93
1, 530708, Control_c, 0, 64, 82
1, 530722, Control_c, 0, 64, 71
1, 530737, Control_c, 0, 64, 57
1, 530752, Control_c, 0, 64, 0
1, 531939, Note_off_c, 0, 40, 38
1, 531989, Note_off_c, 0, 52, 41
1, 533333, Control_c, 0, 67, 121
1, 533348, Control_c, 0, 67, 112
1, 533362, Control_c, 0, 67, 100
1, 533377, Control_c, 0, 67, 82
1, 533392, Control_c, 0, 67, 62
1, 533407, Control_c, 0, 67, 39
1, 533422, Control_c, 0, 67, 25
1, 533436, Control_c, 0, 67, 15
1, 533451, Control_c, 0, 67, 8
1, 533466, Control_c, 0, 67, 0
1, 542526, Control_c, 0, 67, 9
1, 542541, Control_c, 0, 67, 12
1, 542555, Control_c, 0, 67, 16
1, 542570, Control_c, 0, 67, 21
1, 542585, Control_c, 0, 67, 26
1, 542600, Control_c, 0, 67, 30
1, 542615, Control_c, 0, 67, 35
1, 542629, Control_c, 0, 67, 39
1, 542644, Control_c, 0, 67, 41
1, 542659, Control_c, 0, 67, 42
1, 542718, Control_c, 0, 67, 41
1, 542733, Control_c, 0, 67, 41
1, 542747, Control_c, 0, 67, 40
1, 542762, Control_c, 0, 67, 40
1, 542792, Control_c, 0, 67, 39
1, 542822, Control_c, 0, 67, 38
1, 542837, Control_c, 0, 67, 38
1, 542852, Control_c, 0, 67, 37
1, 542881, Control_c, 0, 67, 36
1, 542896, Control_c, 0, 67, 35
1, 542911, Control_c, 0, 67, 35
1, 542926, Control_c, 0, 67, 34
1, 542940, Control_c, 0, 67, 33
1, 542955, Control_c, 0, 67, 33
1, 543570, Control_c, 0, 67, 33
1, 543689, Control_c, 0, 67, 34
1, 543734, Control_c, 0, 67, 34
1, 543756, Control_c, 0, 67, 35
1, 543919, Control_c, 0, 67, 35
1, 543934, Control_c, 0, 67, 36
1, 543949, Control_c, 0, 67, 36
1, 543964, Control_c, 0, 67, 37
1, 543979, Control_c, 0, 67, 39
1, 543993, Control_c, 0, 67, 41
1, 544008, Control_c, 0, 67, 45
1, 544023, Control_c, 0, 67, 57
1, 544038, Control_c, 0, 67, 80
1, 544053, Control_c, 0, 67, 105
1, 544068, Control_c, 0, 67, 127
1, 544280, Note_on_c, 0, 84, 67
1, 544331, Note_off_c, 0, 84, 62
1, 544338, Note_on_c, 0, 83, 65
1, 544387, Note_off_c, 0, 83, 61
1, 544397, Note_on_c, 0, 81, 68
1, 544414, Note_on_c, 0, 60, 56
1, 544419, Note_on_c, 0, 64, 50
1, 544424, Note_off_c, 0, 81, 65
1, 544434, Note_off_c, 0, 60, 60
1, 544440, Note_off_c, 0, 64, 58
1, 544453, Note_on_c, 0, 79, 57
1, 544476, Note_off_c, 0, 79, 59
1, 544521, Note_on_c, 0, 78, 73
1, 544524, Note_on_c, 0, 60, 57
1, 544531, Note_on_c, 0, 63, 65
1, 544545, Note_off_c, 0, 60, 60
1, 544559, Note_off_c, 0, 63, 67
1, 544563, Note_off_c, 0, 78, 64
1, 544583, Note_on_c, 0, 81, 61
1, 544640, Note_off_c, 0, 81, 59
1, 544642, Note_on_c, 0, 79, 63
1, 544651, Note_on_c, 0, 60, 53
1, 544660, Note_on_c, 0, 64, 61
1, 544673, Note_off_c, 0, 60, 62
1, 544679, Note_off_c, 0, 64, 65
1, 544682, Note_off_c, 0, 79, 60
1, 544697, Note_on_c, 0, 76, 67
1, 544730, Note_off_c, 0, 76, 57
1, 544763, Note_on_c, 0, 60, 58
1, 544767, Note_on_c, 0, 75, 66
1, 544769, Note_on_c, 0, 66, 69
1, 544788, Note_off_c, 0, 60, 62
1, 544796, Note_off_c, 0, 66, 68
1, 544805, Note_off_c, 0, 75, 63
1, 544817, Note_on_c, 0, 77, 66
1, 544877, Note_on_c, 0, 76, 69
1, 544883, Note_on_c, 0, 60, 64
1, 544887, Note_off_c, 0, 77, 60
1, 544891, Note_on_c, 0, 67, 62
1, 544912, Note_off_c, 0, 67, 66
1, 544913, Note_off_c, 0, 60, 65
1, 544922, Note_off_c, 0, 76, 67
1, 544931, Note_on_c, 0, 72, 62
1, 544971, Note_off_c, 0, 72, 64
1, 544998, Note_on_c, 0, 71, 68
1, 545003, Note_on_c, 0, 60, 64
1, 545003, Note_on_c, 0, 63, 72
1, 545026, Note_off_c, 0, 60, 57
1, 545029, Note_off_c, 0, 63, 67
1, 545040, Note_off_c, 0, 71, 59
1, 545054, Note_on_c, 0, 74, 66
1, 545114, Note_on_c, 0, 60, 70
1, 545114, Note_on_c, 0, 72, 69
1, 545117, Note_off_c, 0, 74, 65
1, 545135, Note_on_c, 0, 64, 51
1, 545144, Note_off_c, 0, 72, 65
1, 545146, Note_off_c, 0, 60, 60
1, 545156, Note_off_c, 0, 64, 59
1, 545171, Note_on_c, 0, 67, 60
1, 545202, Note_off_c, 0, 67, 65
1, 545225, Note_on_c, 0, 64, 68
1, 545228, Note_on_c, 0, 72, 66
1, 545246, Note_on_c, 0, 60, 59
1, 545260, Note_off_c, 0, 64, 67
1, 545264, Note_off_c, 0, 60, 62
1, 545268, Note_off_c, 0, 72, 64
1, 545284, Note_on_c, 0, 71, 58
1, 545321, Note_off_c, 0, 71, 63
1, 545336, Note_on_c, 0, 69, 68
1, 545344, Note_on_c, 0, 60, 60
1, 545350, Note_on_c, 0, 62, 64
1, 545350, Note_on_c, 0, 65, 67
1, 545371, Note_off_c, 0, 69, 61
1, 545377, Note_off_c, 0, 65, 69
1, 545379, Note_off_c, 0, 60, 59
1, 545382, Note_off_c, 0, 62, 62
1, 545393, Note_on_c, 0, 68, 68
1, 545423, Note_off_c, 0, 68, 67
1, 545449, Note_on_c, 0, 65, 69
1, 545451, Note_on_c, 0, 62, 68
1, 545451, Note_on_c, 0, 69, 64
1, 545466, Note_on_c, 0, 60, 46
1, 545476, Note_off_c, 0, 65, 69
1, 545484, Note_off_c, 0, 62, 60
1, 545485, Note_off_c, 0, 69, 65
1, 545488, Note_off_c, 0, 60, 57
1, 545502, Note_on_c, 0, 70, 72
1, 545527, Note_off_c, 0, 70, 68
1, 545554, Note_on_c, 0, 65, 71
1, 545567, Note_on_c, 0, 71, 63
1, 545569, Note_on_c, 0, 62, 59
1, 545574, Note_on_c, 0, 60, 42
1, 545582, Note_off_c, 0, 65, 69
1, 545597, Note_off_c, 0, 62, 63
1, 545600, Note_off_c, 0, 60, 51
1, 545611, Note_off_c, 0, 71, 60
1, 545614, Note_on_c, 0, 72, 73
1, 545654, Note_off_c, 0, 72, 63
1, 545660, Note_on_c, 0, 73, 74
1, 545673, Note_on_c, 0, 69, 65
1, 545674, Note_on_c, 0, 65, 63
1, 545675, Note_on_c, 0, 62, 59
1, 545676, Note_on_c, 0, 60, 60
1, 545696, Note_off_c, 0, 73, 64
1, 545699, Note_off_c, 0, 69, 70
1, 545704, Note_off_c, 0, 65, 67
1, 545708, Note_off_c, 0, 60, 64
1, 545710, Note_off_c, 0, 62, 62
1, 545724, Note_on_c, 0, 74, 65
1, 545754, Note_off_c, 0, 74, 62
1, 545773, Note_on_c, 0, 75, 76
1, 545782, Note_on_c, 0, 65, 60
1, 545788, Note_on_c, 0, 69, 63
1, 545790, Note_on_c, 0, 62, 56
1, 545796, Note_off_c, 0, 75, 71
1, 545803, Note_on_c, 0, 60, 46
1, 545812, Note_off_c, 0, 65, 67
1, 545814, Note_off_c, 0, 69, 67
1, 545824, Note_off_c, 0, 62, 63
1, 545828, Note_off_c, 0, 60, 57
1, 545835, Note_on_c, 0, 76, 73
1, 545876, Note_off_c, 0, 76, 65
1, 545881, Note_on_c, 0, 69, 67
1, 545883, Note_on_c, 0, 65, 67
1, 545891, Note_on_c, 0, 77, 70
1, 545905, Note_on_c, 0, 62, 52
1, 545907, Note_on_c, 0, 60, 42
1, 545908, Note_off_c, 0, 69, 69
1, 545912, Note_off_c, 0, 65, 68
1, 545928, Note_off_c, 0, 62, 60
1, 545929, Note_on_c, 0, 78, 75
1, 545932, Note_off_c, 0, 60, 49
1, 545932, Note_off_c, 0, 77, 60
1, 545937, Control_c, 0, 67, 126
1, 545952, Control_c, 0, 67, 104
1, 545967, Control_c, 0, 67, 71
1, 545982, Control_c, 0, 67, 40
1, 545992, Note_off_c, 0, 78, 64
1, 546000, Note_on_c, 0, 79, 62
1, 546004, Control_c, 0, 67, 15
1, 546015, Note_on_c, 0, 65, 72
1, 546016, Note_on_c, 0, 62, 69
1, 546017, Note_on_c, 0, 67, 81
1, 546018, Control_c, 0, 67, 0
1, 546023, Note_on_c, 0, 59, 67
1, 546033, Control_c, 0, 64, 65
1, 546038, Note_off_c, 0, 79, 60
1, 546048, Control_c, 0, 64, 73
1, 546063, Control_c, 0, 64, 79
1, 546064, Note_on_c, 0, 78, 71
1, 546078, Control_c, 0, 64, 84
1, 546092, Control_c, 0, 64, 86
1, 546107, Control_c, 0, 64, 88
1, 546110, Note_off_c, 0, 78, 57
1, 546122, Control_c, 0, 64, 89
1, 546125, Note_on_c, 0, 81, 76
1, 546130, Note_off_c, 0, 59, 58
1, 546137, Control_c, 0, 64, 89
1, 546152, Control_c, 0, 64, 90
1, 546169, Note_off_c, 0, 67, 55
1, 546183, Note_on_c, 0, 79, 68
1, 546199, Note_off_c, 0, 81, 57
1, 546213, Note_off_c, 0, 62, 56
1, 546235, Note_off_c, 0, 65, 58
1, 546235, Note_off_c, 0, 79, 60
1, 546241, Control_c, 0, 64, 87
1, 546253, Note_on_c, 0, 76, 73
1, 546256, Control_c, 0, 64, 79
1, 546262, Note_on_c, 0, 64, 71
1, 546263, Note_on_c, 0, 60, 71
1, 546270, Note_on_c, 0, 67, 60
1, 546271, Control_c, 0, 64, 67
1, 546282, Note_off_c, 0, 64, 67
1, 546286, Note_off_c, 0, 67, 66
1, 546286, Control_c, 0, 64, 0
1, 546289, Note_off_c, 0, 60, 67
1, 546290, Note_off_c, 0, 76, 60
1, 546314, Note_on_c, 0, 79, 62
1, 546367, Note_off_c, 0, 79, 58
1, 546371, Note_on_c, 0, 77, 68
1, 546427, Note_on_c, 0, 76, 68
1, 546435, Note_off_c, 0, 77, 61
1, 546479, Note_off_c, 0, 76, 66
1, 546489, Note_on_c, 0, 59, 67
1, 546491, Note_on_c, 0, 56, 65
1, 546496, Note_on_c, 0, 74, 65
1, 546510, Note_off_c, 0, 59, 64
1, 546515, Note_off_c, 0, 56, 66
1, 546530, Note_off_c, 0, 74, 57
1, 546552, Note_on_c, 0, 77, 70
1, 546607, Note_on_c, 0, 76, 67
1, 546609, Note_off_c, 0, 77, 56
1, 546664, Note_on_c, 0, 74, 65
1, 546665, Note_off_c, 0, 76, 65
1, 546710, Note_off_c, 0, 74, 66
1, 546724, Note_on_c, 0, 72, 67
1, 546724, Note_on_c, 0, 57, 73
1, 546725, Note_on_c, 0, 60, 69
1, 546756, Note_off_c, 0, 57, 65
1, 546759, Note_off_c, 0, 60, 67
1, 546776, Note_off_c, 0, 72, 60
1, 546793, Note_on_c, 0, 76, 71
1, 546846, Note_on_c, 0, 74, 67
1, 546851, Note_off_c, 0, 76, 59
1, 546902, Note_on_c, 0, 72, 70
1, 546909, Note_off_c, 0, 74, 64
1, 546950, Note_off_c, 0, 72, 65
1, 546960, Note_on_c, 0, 55, 75
1, 546965, Note_on_c, 0, 52, 66
1, 546974, Note_on_c, 0, 71, 54
1, 546984, Note_off_c, 0, 55, 68
1, 546995, Note_off_c, 0, 52, 67
1, 547004, Note_off_c, 0, 71, 59
1, 547020, Note_on_c, 0, 74, 63
1, 547070, Note_on_c, 0, 72, 71
1, 547075, Note_off_c, 0, 74, 62
1, 547117, Note_on_c, 0, 71, 65
1, 547121, Note_off_c, 0, 72, 64
1, 547165, Note_off_c, 0, 71, 62
1, 547183, Note_on_c, 0, 69, 65
1, 547197, Note_on_c, 0, 53, 72
1, 547198, Note_on_c, 0, 57, 71
1, 547213, Note_off_c, 0, 69, 68
1, 547220, Note_on_c, 0, 71, 66
1, 547222, Note_off_c, 0, 57, 65
1, 547225, Note_off_c, 0, 53, 67
1, 547249, Note_off_c, 0, 71, 64
1, 547300, Note_on_c, 0, 72, 69
1, 547330, Note_off_c, 0, 72, 62
1, 547358, Note_on_c, 0, 73, 65
1, 547402, Note_off_c, 0, 73, 64
1, 547411, Note_on_c, 0, 74, 73
1, 547428, Note_on_c, 0, 62, 78
1, 547433, Note_on_c, 0, 50, 67
1, 547452, Note_off_c, 0, 62, 67
1, 547462, Note_off_c, 0, 50, 65
1, 547469, Note_off_c, 0, 74, 64
1, 547493, Note_on_c, 0, 76, 60
1, 547524, Note_off_c, 0, 76, 64
1, 547529, Note_on_c, 0, 77, 68
1, 547532, Note_on_c, 0, 62, 72
1, 547539, Note_on_c, 0, 50, 71
1, 547568, Note_off_c, 0, 50, 65
1, 547568, Note_off_c, 0, 62, 63
1, 547585, Note_off_c, 0, 77, 58
1, 547597, Note_on_c, 0, 74, 65
1, 547648, Note_off_c, 0, 74, 66
1, 547654, Note_on_c, 0, 59, 76
1, 547655, Note_on_c, 0, 72, 72
1, 547657, Note_on_c, 0, 55, 73
1, 547681, Note_off_c, 0, 72, 68
1, 547702, Note_on_c, 0, 71, 68
1, 547717, Note_off_c, 0, 59, 62
1, 547721, Note_off_c, 0, 55, 63
1, 547733, Note_off_c, 0, 71, 62
1, 547772, Note_on_c, 0, 81, 76
1, 547837, Note_on_c, 0, 79, 69
1, 547837, Note_off_c, 0, 81, 60
1, 547882, Note_off_c, 0, 79, 62
1, 547890, Note_on_c, 0, 78, 72
1, 547932, Note_off_c, 0, 78, 65
1, 547941, Note_on_c, 0, 79, 59
1, 547987, Note_off_c, 0, 79, 59
1, 548003, Note_on_c, 0, 84, 76
1, 548059, Note_on_c, 0, 83, 66
1, 548062, Note_off_c, 0, 84, 60
1, 548113, Note_on_c, 0, 64, 66
1, 548114, Note_off_c, 0, 83, 61
1, 548115, Note_on_c, 0, 60, 67
1, 548116, Note_on_c, 0, 81, 72
1, 548138, Note_off_c, 0, 64, 65
1, 548140, Note_off_c, 0, 60, 63
1, 548146, Note_off_c, 0, 81, 63
1, 548166, Note_on_c, 0, 79, 59
1, 548208, Note_off_c, 0, 79, 52
1, 548221, Note_on_c, 0, 60, 62
1, 548231, Note_on_c, 0, 78, 70
1, 548232, Note_on_c, 0, 63, 62
1, 548260, Note_off_c, 0, 60, 63
1, 548267, Note_off_c, 0, 63, 67
1, 548283, Note_off_c, 0, 78, 63
1, 548287, Note_on_c, 0, 81, 71
1, 548348, Note_on_c, 0, 79, 62
1, 548348, Note_off_c, 0, 81, 58
1, 548352, Note_on_c, 0, 60, 69
1, 548360, Note_on_c, 0, 64, 65
1, 548381, Note_off_c, 0, 60, 64
1, 548389, Note_off_c, 0, 64, 66
1, 548390, Note_off_c, 0, 79, 62
1, 548398, Note_on_c, 0, 76, 68
1, 548436, Note_off_c, 0, 76, 56
1, 548465, Note_on_c, 0, 75, 61
1, 548469, Note_on_c, 0, 60, 67
1, 548472, Note_on_c, 0, 66, 70
1, 548496, Note_off_c, 0, 60, 66
1, 548496, Note_off_c, 0, 75, 67
1, 548498, Note_off_c, 0, 66, 68
1, 548507, Note_on_c, 0, 77, 69
1, 548566, Note_on_c, 0, 76, 65
1, 548575, Note_off_c, 0, 77, 58
1, 548584, Note_on_c, 0, 60, 69
1, 548586, Note_on_c, 0, 67, 68
1, 548611, Note_off_c, 0, 60, 63
1, 548611, Note_off_c, 0, 67, 68
1, 548614, Note_off_c, 0, 76, 67
1, 548620, Note_on_c, 0, 72, 66
1, 548668, Note_off_c, 0, 72, 65
1, 548686, Note_on_c, 0, 71, 69
1, 548701, Note_on_c, 0, 63, 67
1, 548703, Note_on_c, 0, 60, 61
1, 548726, Note_off_c, 0, 60, 62
1, 548730, Note_off_c, 0, 63, 67
1, 548733, Note_off_c, 0, 71, 63
1, 548743, Note_on_c, 0, 74, 64
1, 548803, Note_on_c, 0, 72, 67
1, 548808, Note_on_c, 0, 60, 71
1, 548809, Note_off_c, 0, 74, 64
1, 548823, Note_on_c, 0, 64, 58
1, 548838, Note_off_c, 0, 72, 63
1, 548842, Note_off_c, 0, 60, 60
1, 548849, Note_off_c, 0, 64, 65
1, 548858, Note_on_c, 0, 67, 64
1, 548897, Note_off_c, 0, 67, 59
1, 548920, Note_on_c, 0, 64, 69
1, 548922, Note_on_c, 0, 72, 62
1, 548936, Note_on_c, 0, 60, 57
1, 548946, Note_off_c, 0, 64, 67
1, 548956, Note_off_c, 0, 60, 63
1, 548963, Note_off_c, 0, 72, 61
1, 548969, Note_on_c, 0, 71, 58
1, 549013, Note_off_c, 0, 71, 63
1, 549031, Note_on_c, 0, 69, 65
1, 549046, Note_on_c, 0, 60, 61
1, 549049, Note_on_c, 0, 65, 70
1, 549050, Note_on_c, 0, 62, 66
1, 549067, Note_off_c, 0, 69, 64
1, 549075, Note_off_c, 0, 65, 69
1, 549080, Note_off_c, 0, 60, 61
1, 549083, Note_off_c, 0, 62, 61
1, 549086, Note_on_c, 0, 68, 68
1, 549115, Note_off_c, 0, 68, 68
1, 549146, Note_on_c, 0, 69, 62
1, 549147, Note_on_c, 0, 65, 71
1, 549154, Note_on_c, 0, 62, 61
1, 549176, Note_off_c, 0, 65, 67
1, 549179, Note_on_c, 0, 60, 41
1, 549184, Note_off_c, 0, 69, 66
1, 549187, Note_off_c, 0, 62, 63
1, 549199, Note_on_c, 0, 70, 71
1, 549205, Note_off_c, 0, 60, 48
1, 549231, Note_off_c, 0, 70, 65
1, 549258, Note_on_c, 0, 62, 68
1, 549258, Note_on_c, 0, 65, 72
1, 549264, Note_on_c, 0, 71, 66
1, 549283, Note_off_c, 0, 65, 69
1, 549288, Note_off_c, 0, 62, 64
1, 549309, Note_off_c, 0, 71, 61
1, 549317, Note_on_c, 0, 72, 65
1, 549347, Note_off_c, 0, 72, 67
1, 549360, Note_on_c, 0, 73, 73
1, 549371, Note_on_c, 0, 60, 42
1, 549374, Note_on_c, 0, 65, 59
1, 549376, Note_on_c, 0, 62, 64
1, 549377, Note_on_c, 0, 69, 68
1, 549394, Note_off_c, 0, 73, 62
1, 549403, Note_off_c, 0, 69, 71
1, 549407, Note_off_c, 0, 65, 67
1, 549410, Note_off_c, 0, 62, 61
1, 549413, Note_off_c, 0, 60, 61
1, 549428, Note_on_c, 0, 74, 63
1, 549460, Note_off_c, 0, 74, 58
1, 549480, Note_on_c, 0, 75, 70
1, 549490, Note_on_c, 0, 65, 62
1, 549491, Note_on_c, 0, 69, 65
1, 549505, Note_off_c, 0, 75, 70
1, 549506, Note_on_c, 0, 60, 51
1, 549511, Note_on_c, 0, 62, 43
1, 549517, Note_off_c, 0, 69, 66
1, 549519, Note_off_c, 0, 65, 67
1, 549531, Note_off_c, 0, 60, 59
1, 549535, Note_on_c, 0, 76, 73
1, 549537, Note_off_c, 0, 62, 55
1, 549586, Note_off_c, 0, 76, 63
1, 549590, Note_on_c, 0, 69, 65
1, 549595, Note_on_c, 0, 65, 65
1, 549603, Note_on_c, 0, 77, 64
1, 549612, Note_off_c, 0, 69, 67
1, 549614, Note_on_c, 0, 62, 52
1, 549621, Note_on_c, 0, 60, 36
1, 549623, Note_off_c, 0, 65, 67
1, 549638, Note_off_c, 0, 62, 62
1, 549644, Note_on_c, 0, 78, 69
1, 549647, Note_off_c, 0, 77, 62
1, 549652, Note_off_c, 0, 60, 33
1, 549690, Note_off_c, 0, 78, 64
1, 549698, Note_on_c, 0, 79, 65
1, 549715, Note_on_c, 0, 62, 73
1, 549715, Note_on_c, 0, 65, 72
1, 549716, Note_on_c, 0, 67, 88
1, 549721, Note_on_c, 0, 59, 69
1, 549744, Note_off_c, 0, 79, 56
1, 549748, Control_c, 0, 64, 67
1, 549763, Control_c, 0, 64, 77
1, 549768, Note_on_c, 0, 78, 72
1, 549778, Control_c, 0, 64, 86
1, 549793, Control_c, 0, 64, 91
1, 549808, Control_c, 0, 64, 92
1, 549811, Note_off_c, 0, 59, 59
1, 549822, Note_off_c, 0, 78, 60
1, 549822, Control_c, 0, 64, 93
1, 549830, Note_on_c, 0, 81, 76
1, 549837, Control_c, 0, 64, 93
1, 549845, Note_off_c, 0, 67, 54
1, 549852, Control_c, 0, 64, 94
1, 549884, Note_off_c, 0, 62, 54
1, 549887, Note_on_c, 0, 79, 68
1, 549907, Note_off_c, 0, 81, 57
1, 549936, Note_off_c, 0, 65, 60
1, 549940, Control_c, 0, 64, 94
1, 549942, Note_off_c, 0, 79, 61
1, 549955, Control_c, 0, 64, 88
1, 549958, Note_on_c, 0, 76, 69
1, 549961, Note_on_c, 0, 64, 70
1, 549964, Note_on_c, 0, 60, 70
1, 549964, Note_on_c, 0, 67, 64
1, 549970, Control_c, 0, 64, 76
1, 549982, Note_off_c, 0, 64, 66
1, 549985, Note_off_c, 0, 67, 62
1, 549985, Control_c, 0, 64, 60
1, 549989, Note_off_c, 0, 60, 67
1, 550000, Control_c, 0, 64, 0
1, 550002, Note_off_c, 0, 76, 57
1, 550018, Note_on_c, 0, 79, 63
1, 550077, Note_on_c, 0, 77, 70
1, 550080, Note_off_c, 0, 79, 56
1, 550131, Note_on_c, 0, 76, 63
1, 550138, Note_off_c, 0, 77, 61
1, 550177, Note_off_c, 0, 76, 67
1, 550184, Note_on_c, 0, 59, 71
1, 550185, Note_on_c, 0, 56, 66
1, 550196, Note_on_c, 0, 74, 62
1, 550206, Note_off_c, 0, 56, 67
1, 550206, Note_off_c, 0, 59, 66
1, 550234, Note_off_c, 0, 74, 60
1, 550253, Note_on_c, 0, 77, 66
1, 550300, Note_on_c, 0, 76, 69
1, 550304, Note_off_c, 0, 77, 54
1, 550356, Note_off_c, 0, 76, 65
1, 550360, Note_on_c, 0, 74, 63
1, 550405, Note_off_c, 0, 74, 65
1, 550411, Note_on_c, 0, 57, 71
1, 550411, Note_on_c, 0, 60, 64
1, 550417, Note_on_c, 0, 72, 65
1, 550439, Note_off_c, 0, 57, 64
1, 550441, Note_off_c, 0, 60, 65
1, 550457, Note_off_c, 0, 72, 64
1, 550468, Note_on_c, 0, 76, 72
1, 550518, Note_off_c, 0, 76, 66
1, 550528, Note_on_c, 0, 74, 72
1, 550559, Note_off_c, 0, 74, 63
1, 550575, Note_on_c, 0, 72, 69
1, 550611, Note_off_c, 0, 72, 64
1, 550640, Note_on_c, 0, 83, 88
1, 550644, Note_on_c, 0, 53, 79
1, 550644, Note_on_c, 0, 57, 77
1, 550647, Note_on_c, 0, 62, 79
1, 550673, Note_off_c, 0, 62, 64
1, 550674, Note_off_c, 0, 57, 65
1, 550693, Note_off_c, 0, 53, 64
1, 550703, Note_on_c, 0, 81, 76
1, 550722, Note_off_c, 0, 83, 45
1, 550754, Note_on_c, 0, 77, 71
1, 550775, Note_off_c, 0, 81, 61
1, 550808, Note_on_c, 0, 74, 64
1, 550813, Note_off_c, 0, 77, 61
1, 550856, Note_off_c, 0, 74, 64
1, 550876, Note_on_c, 0, 81, 87
1, 550882, Note_on_c, 0, 55, 77
1, 550882, Note_on_c, 0, 64, 81
1, 550885, Note_on_c, 0, 60, 72
1, 550903, Note_off_c, 0, 64, 68
1, 550909, Note_off_c, 0, 60, 68
1, 550930, Note_off_c, 0, 55, 64
1, 550936, Note_on_c, 0, 79, 70
1, 550941, Note_off_c, 0, 81, 52
1, 550981, Note_on_c, 0, 76, 69
1, 551005, Note_off_c, 0, 79, 61
1, 551034, Note_off_c, 0, 76, 64
1, 551037, Note_on_c, 0, 72, 60
1, 551067, Note_off_c, 0, 72, 65
1, 551096, Note_on_c, 0, 79, 89
1, 551105, Note_on_c, 0, 62, 79
1, 551106, Note_on_c, 0, 65, 80
1, 551112, Note_on_c, 0, 55, 70
1, 551125, Note_off_c, 0, 65, 69
1, 551136, Note_off_c, 0, 62, 65
1, 551136, Note_off_c, 0, 79, 65
1, 551161, Note_on_c, 0, 71, 79
1, 551161, Note_off_c, 0, 55, 67
1, 551169, Note_on_c, 0, 57, 4
1, 551170, Note_off_c, 0, 57, 127
1, 551182, Note_off_c, 0, 71, 67
1, 551241, Note_on_c, 0, 76, 81
1, 551289, Note_on_c, 0, 72, 76
1, 551300, Note_off_c, 0, 76, 64
1, 551347, Note_on_c, 0, 36, 69
1, 551349, Note_on_c, 0, 48, 81
1, 551350, Note_on_c, 0, 67, 72
1, 551350, Control_c, 0, 64, 51
1, 551365, Note_off_c, 0, 72, 65
1, 551365, Control_c, 0, 64, 71
1, 551377, Note_off_c, 0, 36, 65
1, 551377, Note_off_c, 0, 48, 70
1, 551380, Control_c, 0, 64, 86
1, 551385, Note_off_c, 0, 67, 59
1, 551395, Control_c, 0, 64, 99
1, 551410, Control_c, 0, 64, 105
1, 551413, Note_on_c, 0, 64, 58
1, 551425, Control_c, 0, 64, 106
1, 551431, Note_off_c, 0, 64, 62
1, 551439, Control_c, 0, 64, 106
1, 551469, Control_c, 0, 64, 107
1, 551478, Note_on_c, 0, 63, 73
1, 551480, Note_on_c, 0, 48, 77
1, 551481, Note_on_c, 0, 52, 70
1, 551504, Note_off_c, 0, 63, 69
1, 551505, Note_off_c, 0, 48, 70
1, 551509, Note_off_c, 0, 52, 67
1, 551534, Note_on_c, 0, 64, 54
1, 551580, Note_on_c, 0, 48, 76
1, 551583, Note_on_c, 0, 52, 64
1, 551586, Note_off_c, 0, 64, 63
1, 551587, Control_c, 0, 64, 106
1, 551592, Note_on_c, 0, 67, 70
1, 551602, Control_c, 0, 64, 103
1, 551604, Note_off_c, 0, 48, 69
1, 551608, Note_off_c, 0, 52, 72
1, 551617, Control_c, 0, 64, 95
1, 551631, Control_c, 0, 64, 82
1, 551646, Note_off_c, 0, 67, 64
1, 551646, Control_c, 0, 64, 68
1, 551648, Note_on_c, 0, 72, 74
1, 551661, Control_c, 0, 64, 0
1, 551696, Note_on_c, 0, 76, 59
1, 551698, Note_off_c, 0, 72, 64
1, 551714, Note_off_c, 0, 76, 64
1, 551727, Note_on_c, 0, 64, 74
1, 551753, Note_off_c, 0, 64, 69
1, 551809, Note_on_c, 0, 55, 87
1, 551812, Note_on_c, 0, 43, 71
1, 551821, Note_on_c, 0, 79, 52
1, 551824, Control_c, 0, 64, 52
1, 551837, Note_off_c, 0, 43, 64
1, 551838, Note_off_c, 0, 55, 65
1, 551839, Control_c, 0, 64, 70
1, 551854, Control_c, 0, 64, 85
1, 551855, Note_off_c, 0, 79, 63
1, 551858, Note_on_c, 0, 77, 59
1, 551869, Control_c, 0, 64, 102
1, 551884, Control_c, 0, 64, 112
1, 551899, Control_c, 0, 64, 112
1, 551913, Note_on_c, 0, 74, 72
1, 551938, Note_off_c, 0, 77, 61
1, 551948, Note_on_c, 0, 55, 64
1, 551950, Note_on_c, 0, 59, 63
1, 551963, Note_off_c, 0, 74, 61
1, 551988, Note_on_c, 0, 71, 64
1, 551989, Note_off_c, 0, 59, 63
1, 551991, Note_off_c, 0, 55, 62
1, 552009, Note_off_c, 0, 71, 64
1, 552064, Note_on_c, 0, 68, 77
1, 552068, Note_on_c, 0, 59, 63
1, 552071, Note_on_c, 0, 55, 70
1, 552084, Control_c, 0, 64, 112
1, 552094, Note_off_c, 0, 59, 66
1, 552099, Note_off_c, 0, 55, 67
1, 552099, Control_c, 0, 64, 108
1, 552110, Note_off_c, 0, 68, 61
1, 552113, Note_on_c, 0, 67, 73
1, 552114, Control_c, 0, 64, 101
1, 552129, Control_c, 0, 64, 89
1, 552143, Control_c, 0, 64, 76
1, 552152, Note_off_c, 0, 67, 64
1, 552158, Control_c, 0, 64, 32
1, 552173, Control_c, 0, 64, 0
1, 552181, Note_on_c, 0, 76, 77
1, 552227, Note_off_c, 0, 76, 64
1, 552233, Note_on_c, 0, 72, 68
1, 552289, Note_on_c, 0, 67, 73
1, 552303, Note_on_c, 0, 48, 81
1, 552306, Note_on_c, 0, 36, 67
1, 552310, Note_off_c, 0, 72, 63
1, 552322, Control_c, 0, 64, 38
1, 552331, Note_off_c, 0, 48, 67
1, 552335, Note_off_c, 0, 36, 65
1, 552336, Control_c, 0, 64, 69
1, 552337, Note_off_c, 0, 67, 61
1, 552351, Control_c, 0, 64, 78
1, 552355, Note_on_c, 0, 64, 65
1, 552366, Control_c, 0, 64, 89
1, 552381, Control_c, 0, 64, 95
1, 552396, Control_c, 0, 64, 96
1, 552410, Control_c, 0, 64, 97
1, 552418, Note_off_c, 0, 64, 39
1, 552425, Control_c, 0, 64, 97
1, 552429, Note_on_c, 0, 48, 69
1, 552429, Note_on_c, 0, 63, 74
1, 552434, Note_on_c, 0, 52, 60
1, 552440, Control_c, 0, 64, 98
1, 552456, Note_off_c, 0, 48, 67
1, 552456, Note_off_c, 0, 63, 69
1, 552459, Note_off_c, 0, 52, 63
1, 552469, Control_c, 0, 64, 99
1, 552478, Note_on_c, 0, 64, 59
1, 552530, Note_on_c, 0, 48, 71
1, 552534, Note_off_c, 0, 64, 64
1, 552536, Note_on_c, 0, 52, 65
1, 552540, Note_on_c, 0, 67, 76
1, 552564, Note_off_c, 0, 48, 66
1, 552566, Note_off_c, 0, 52, 67
1, 552601, Note_on_c, 0, 72, 75
1, 552602, Note_off_c, 0, 67, 63
1, 552603, Control_c, 0, 64, 98
1, 552617, Control_c, 0, 64, 97
1, 552632, Control_c, 0, 64, 92
1, 552645, Note_on_c, 0, 76, 64
1, 552647, Control_c, 0, 64, 83
1, 552650, Note_off_c, 0, 72, 63
1, 552662, Note_off_c, 0, 76, 66
1, 552662, Control_c, 0, 64, 68
1, 552677, Control_c, 0, 64, 0
1, 552678, Note_on_c, 0, 64, 76
1, 552706, Note_off_c, 0, 64, 67
1, 552770, Note_on_c, 0, 55, 89
1, 552774, Note_on_c, 0, 43, 74
1, 552778, Note_on_c, 0, 79, 58
1, 552789, Control_c, 0, 64, 58
1, 552798, Note_off_c, 0, 43, 64
1, 552799, Note_off_c, 0, 55, 65
1, 552804, Control_c, 0, 64, 72
1, 552816, Note_off_c, 0, 79, 62
1, 552819, Control_c, 0, 64, 85
1, 552826, Note_on_c, 0, 77, 70
1, 552833, Control_c, 0, 64, 96
1, 552848, Control_c, 0, 64, 100
1, 552875, Note_on_c, 0, 74, 70
1, 552878, Control_c, 0, 64, 101
1, 552898, Note_off_c, 0, 77, 61
1, 552906, Note_on_c, 0, 55, 68
1, 552906, Control_c, 0, 64, 101
1, 552914, Note_on_c, 0, 59, 64
1, 552924, Note_off_c, 0, 74, 63
1, 552935, Note_off_c, 0, 55, 66
1, 552939, Note_on_c, 0, 71, 60
1, 552945, Note_off_c, 0, 59, 61
1, 552960, Note_off_c, 0, 71, 64
1, 552966, Control_c, 0, 64, 102
1, 553014, Note_on_c, 0, 55, 67
1, 553031, Note_on_c, 0, 69, 57
1, 553036, Note_off_c, 0, 55, 70
1, 553052, Note_off_c, 0, 69, 62
1, 553053, Note_on_c, 0, 67, 80
1, 553070, Poly_aftertouch_c, 0, 59, 127
1, 553076, Note_off_c, 0, 67, 70
1, 553084, Control_c, 0, 64, 101
1, 553099, Control_c, 0, 64, 97
1, 553104, Poly_aftertouch_c, 0, 59, 0
1, 553114, Control_c, 0, 64, 86
1, 553129, Control_c, 0, 64, 72
1, 553144, Control_c, 0, 64, 43
1, 553158, Control_c, 0, 64, 0
1, 553161, Note_on_c, 0, 48, 68
1, 553163, Note_on_c, 0, 84, 82
1, 553166, Note_on_c, 0, 36, 56
1, 553167, Note_on_c, 0, 76, 91
1, 553184, Note_on_c, 0, 50, 39
1, 553185, Note_off_c, 0, 50, 127
1, 553191, Note_off_c, 0, 48, 66
1, 553194, Note_off_c, 0, 36, 57
1, 553199, Note_off_c, 0, 84, 65
1, 553227, Note_off_c, 0, 76, 66
1, 553234, Note_on_c, 0, 72, 65
1, 553255, Note_off_c, 0, 72, 65
1, 553296, Note_on_c, 0, 40, 69
1, 553296, Note_on_c, 0, 52, 70
1, 553298, Note_on_c, 0, 83, 76
1, 553303, Note_on_c, 0, 74, 73
1, 553318, Note_off_c, 0, 52, 66
1, 553327, Note_off_c, 0, 40, 65
1, 553332, Note_off_c, 0, 83, 58
1, 553365, Note_off_c, 0, 74, 65
1, 553420, Note_on_c, 0, 53, 74
1, 553427, Note_on_c, 0, 41, 68
1, 553427, Note_on_c, 0, 81, 77
1, 553431, Note_on_c, 0, 72, 75
1, 553446, Note_off_c, 0, 53, 69
1, 553452, Note_off_c, 0, 81, 64
1, 553458, Note_off_c, 0, 41, 67
1, 553486, Note_off_c, 0, 72, 65
1, 553515, Note_on_c, 0, 69, 41
1, 553542, Note_off_c, 0, 69, 51
1, 553550, Note_on_c, 0, 55, 79
1, 553553, Note_on_c, 0, 43, 71
1, 553556, Note_on_c, 0, 71, 73
1, 553562, Note_on_c, 0, 79, 65
1, 553577, Note_off_c, 0, 55, 66
1, 553580, Note_off_c, 0, 43, 63
1, 553585, Note_off_c, 0, 79, 65
1, 553591, Note_off_c, 0, 71, 56
1, 553612, Note_on_c, 0, 67, 62
1, 553643, Note_off_c, 0, 67, 64
1, 553666, Note_on_c, 0, 74, 61
1, 553675, Note_on_c, 0, 56, 78
1, 553675, Note_on_c, 0, 77, 65
1, 553679, Note_on_c, 0, 44, 69
1, 553696, Note_off_c, 0, 74, 67
1, 553696, Note_off_c, 0, 77, 64
1, 553700, Note_off_c, 0, 56, 65
1, 553705, Note_off_c, 0, 44, 66
1, 553737, Note_on_c, 0, 65, 61
1, 553768, Note_off_c, 0, 65, 54
1, 553794, Note_on_c, 0, 72, 68
1, 553794, Note_on_c, 0, 76, 65
1, 553797, Note_on_c, 0, 57, 78
1, 553801, Note_on_c, 0, 45, 70
1, 553820, Note_off_c, 0, 76, 69
1, 553822, Note_off_c, 0, 72, 68
1, 553823, Note_off_c, 0, 57, 65
1, 553833, Note_off_c, 0, 45, 64
1, 553875, Note_on_c, 0, 64, 47
1, 553898, Note_off_c, 0, 64, 52
1, 553914, Note_on_c, 0, 74, 75
1, 553923, Note_on_c, 0, 47, 74
1, 553926, Note_on_c, 0, 59, 72
1, 553929, Note_on_c, 0, 65, 66
1, 553952, Note_off_c, 0, 59, 66
1, 553953, Note_off_c, 0, 47, 65
1, 553954, Note_off_c, 0, 74, 65
1, 553974, Note_off_c, 0, 65, 66
1, 553990, Note_on_c, 0, 62, 50
1, 554015, Note_off_c, 0, 62, 55
1, 554041, Note_on_c, 0, 72, 73
1, 554048, Note_on_c, 0, 48, 74
1, 554050, Note_on_c, 0, 60, 80
1, 554054, Note_on_c, 0, 64, 51
1, 554071, Note_off_c, 0, 72, 61
1, 554072, Note_off_c, 0, 48, 68
1, 554096, Note_off_c, 0, 64, 66
1, 554105, Note_on_c, 0, 62, 22
1, 554106, Note_off_c, 0, 62, 127
1, 554114, Note_off_c, 0, 60, 60
1, 554173, Note_on_c, 0, 76, 77
1, 554189, Note_on_c, 0, 62, 81
1, 554197, Note_on_c, 0, 52, 65
1, 554227, Note_off_c, 0, 52, 67
1, 554233, Note_off_c, 0, 76, 55
1, 554248, Note_on_c, 0, 68, 78
1, 554295, Note_off_c, 0, 62, 37
1, 554307, Note_on_c, 0, 69, 70
1, 554307, Note_off_c, 0, 68, 63
1, 554310, Note_on_c, 0, 60, 69
1, 554318, Note_on_c, 0, 57, 54
1, 554340, Note_off_c, 0, 60, 64
1, 554350, Note_off_c, 0, 57, 63
1, 554351, Note_off_c, 0, 69, 67
1, 554364, Note_on_c, 0, 64, 61
1, 554398, Note_off_c, 0, 64, 65
1, 554438, Note_on_c, 0, 76, 70
1, 554446, Note_on_c, 0, 62, 79
1, 554450, Note_on_c, 0, 52, 65
1, 554468, Note_off_c, 0, 76, 62
1, 554477, Note_off_c, 0, 52, 66
1, 554495, Note_on_c, 0, 68, 74
1, 554502, Note_off_c, 0, 62, 55
1, 554549, Note_off_c, 0, 68, 59
1, 554556, Note_on_c, 0, 69, 64
1, 554564, Note_on_c, 0, 60, 64
1, 554572, Note_on_c, 0, 57, 54
1, 554592, Note_off_c, 0, 60, 66
1, 554594, Note_off_c, 0, 69, 65
1, 554597, Note_off_c, 0, 57, 62
1, 554617, Note_on_c, 0, 64, 59
1, 554649, Note_off_c, 0, 64, 65
1, 554682, Note_on_c, 0, 76, 70
1, 554689, Note_on_c, 0, 62, 85
1, 554698, Note_on_c, 0, 52, 69
1, 554708, Note_off_c, 0, 76, 66
1, 554726, Note_off_c, 0, 52, 68
1, 554743, Note_on_c, 0, 68, 70
1, 554786, Note_off_c, 0, 68, 62
1, 554799, Note_on_c, 0, 69, 68
1, 554799, Note_off_c, 0, 62, 38
1, 554811, Note_on_c, 0, 60, 64
1, 554820, Note_on_c, 0, 57, 51
1, 554840, Note_off_c, 0, 60, 67
1, 554841, Note_off_c, 0, 69, 66
1, 554845, Note_off_c, 0, 57, 56
1, 554858, Note_on_c, 0, 64, 57
1, 554887, Note_off_c, 0, 64, 65
1, 554924, Note_on_c, 0, 62, 77
1, 554924, Note_on_c, 0, 76, 71
1, 554932, Note_on_c, 0, 52, 61
1, 554961, Note_off_c, 0, 52, 68
1, 554972, Note_off_c, 0, 76, 63
1, 554996, Note_off_c, 0, 62, 57
1, 555027, Note_on_c, 0, 70, 75
1, 555058, Note_on_c, 0, 60, 67
1, 555069, Note_on_c, 0, 57, 50
1, 555079, Note_off_c, 0, 70, 61
1, 555085, Note_off_c, 0, 60, 66
1, 555094, Note_off_c, 0, 57, 57
1, 555099, Note_on_c, 0, 64, 67
1, 555127, Note_off_c, 0, 64, 66
1, 555181, Note_on_c, 0, 57, 67
1, 555184, Note_on_c, 0, 67, 88
1, 555184, Note_on_c, 0, 81, 81
1, 555218, Note_off_c, 0, 57, 61
1, 555236, Note_off_c, 0, 81, 56
1, 555238, Note_on_c, 0, 73, 69
1, 555300, Note_off_c, 0, 73, 62
1, 555300, Note_off_c, 0, 67, 62
1, 555303, Note_on_c, 0, 74, 68
1, 555306, Note_on_c, 0, 65, 68
1, 555319, Note_on_c, 0, 62, 47
1, 555333, Note_off_c, 0, 65, 69
1, 555344, Note_off_c, 0, 62, 56
1, 555354, Note_off_c, 0, 74, 64
1, 555364, Note_on_c, 0, 69, 62
1, 555398, Note_off_c, 0, 69, 68
1, 555429, Note_on_c, 0, 81, 78
1, 555434, Note_on_c, 0, 67, 81
1, 555437, Note_on_c, 0, 57, 70
1, 555464, Note_off_c, 0, 57, 63
1, 555475, Note_off_c, 0, 81, 56
1, 555492, Note_on_c, 0, 73, 72
1, 555543, Note_off_c, 0, 73, 55
1, 555545, Note_off_c, 0, 67, 52
1, 555552, Note_on_c, 0, 74, 65
1, 555556, Note_on_c, 0, 65, 68
1, 555565, Note_on_c, 0, 62, 52
1, 555583, Note_off_c, 0, 65, 68
1, 555591, Note_off_c, 0, 62, 60
1, 555595, Note_off_c, 0, 74, 66
1, 555614, Note_on_c, 0, 69, 56
1, 555647, Note_off_c, 0, 69, 68
1, 555673, Note_on_c, 0, 81, 80
1, 555684, Note_on_c, 0, 67, 79
1, 555685, Note_on_c, 0, 57, 64
1, 555708, Note_off_c, 0, 81, 50
1, 555714, Note_off_c, 0, 57, 64
1, 555747, Note_on_c, 0, 73, 68
1, 555787, Note_off_c, 0, 73, 57
1, 555800, Note_off_c, 0, 67, 52
1, 555806, Note_on_c, 0, 74, 63
1, 555814, Note_on_c, 0, 65, 62
1, 555819, Note_on_c, 0, 62, 51
1, 555843, Note_off_c, 0, 65, 69
1, 555843, Note_off_c, 0, 62, 62
1, 555849, Note_off_c, 0, 74, 64
1, 555870, Note_on_c, 0, 69, 57
1, 555902, Note_off_c, 0, 69, 68
1, 555929, Note_on_c, 0, 81, 75
1, 555932, Note_on_c, 0, 67, 79
1, 555936, Note_on_c, 0, 57, 67
1, 555965, Note_off_c, 0, 57, 64
1, 555971, Note_off_c, 0, 81, 46
1, 555989, Note_on_c, 0, 73, 71
1, 556028, Note_off_c, 0, 73, 59
1, 556040, Note_off_c, 0, 67, 47
1, 556043, Note_on_c, 0, 74, 61
1, 556054, Note_on_c, 0, 65, 63
1, 556058, Note_on_c, 0, 62, 60
1, 556081, Note_off_c, 0, 65, 68
1, 556094, Note_on_c, 0, 69, 61
1, 556095, Note_off_c, 0, 62, 64
1, 556099, Note_off_c, 0, 74, 62
1, 556126, Note_off_c, 0, 69, 68
1, 556164, Note_on_c, 0, 80, 75
1, 556178, Note_on_c, 0, 60, 75
1, 556179, Note_on_c, 0, 65, 67
1, 556180, Note_on_c, 0, 62, 69
1, 556216, Note_off_c, 0, 62, 58
1, 556218, Note_off_c, 0, 65, 60
1, 556219, Note_off_c, 0, 60, 60
1, 556227, Note_on_c, 0, 68, 88
1, 556242, Note_off_c, 0, 80, 62
1, 556270, Note_off_c, 0, 68, 62
1, 556287, Note_on_c, 0, 67, 68
1, 556317, Note_on_c, 0, 59, 63
1, 556323, Note_on_c, 0, 62, 57
1, 556323, Note_on_c, 0, 65, 60
1, 556344, Note_off_c, 0, 67, 64
1, 556351, Note_off_c, 0, 59, 63
1, 556351, Note_off_c, 0, 65, 66
1, 556352, Note_off_c, 0, 62, 61
1, 556370, Note_on_c, 0, 79, 61
1, 556403, Note_off_c, 0, 79, 66
1, 556438, Note_on_c, 0, 67, 72
1, 556446, Note_on_c, 0, 59, 63
1, 556449, Note_on_c, 0, 62, 59
1, 556452, Note_on_c, 0, 65, 59
1, 556465, Note_off_c, 0, 67, 67
1, 556486, Note_off_c, 0, 65, 65
1, 556487, Note_off_c, 0, 59, 61
1, 556493, Note_off_c, 0, 62, 61
1, 556506, Note_on_c, 0, 79, 66
1, 556527, Note_off_c, 0, 79, 65
1, 556564, Note_on_c, 0, 67, 69
1, 556571, Note_on_c, 0, 59, 67
1, 556571, Note_on_c, 0, 65, 65
1, 556574, Note_on_c, 0, 62, 65
1, 556589, Note_off_c, 0, 67, 68
1, 556600, Note_off_c, 0, 65, 68
1, 556600, Note_off_c, 0, 59, 63
1, 556606, Note_off_c, 0, 62, 62
1, 556609, Note_on_c, 0, 79, 60
1, 556638, Note_off_c, 0, 79, 64
1, 556686, Note_on_c, 0, 80, 78
1, 556688, Note_on_c, 0, 60, 74
1, 556689, Note_on_c, 0, 65, 73
1, 556689, Note_on_c, 0, 62, 68
1, 556721, Note_off_c, 0, 65, 61
1, 556726, Note_off_c, 0, 62, 58
1, 556736, Note_off_c, 0, 60, 58
1, 556738, Control_c, 0, 64, 36
1, 556740, Note_on_c, 0, 68, 78
1, 556743, Note_off_c, 0, 80, 64
1, 556754, Control_c, 0, 64, 66
1, 556762, Note_off_c, 0, 68, 70
1, 556764, Note_on_c, 0, 78, 7
1, 556769, Control_c, 0, 64, 71
1, 556773, Note_on_c, 0, 67, 73
1, 556781, Note_off_c, 0, 78, 49
1, 556784, Control_c, 0, 64, 75
1, 556798, Control_c, 0, 64, 76
1, 556826, Note_on_c, 0, 59, 63
1, 556828, Note_on_c, 0, 65, 68
1, 556833, Note_on_c, 0, 62, 62
1, 556856, Note_off_c, 0, 65, 67
1, 556859, Note_off_c, 0, 62, 60
1, 556860, Note_off_c, 0, 59, 62
1, 556866, Note_off_c, 0, 67, 57
1, 556872, Control_c, 0, 64, 75
1, 556887, Control_c, 0, 64, 75
1, 556889, Note_on_c, 0, 79, 66
1, 556902, Control_c, 0, 64, 74
1, 556915, Note_off_c, 0, 79, 63
1, 556917, Control_c, 0, 64, 73
1, 556931, Control_c, 0, 64, 73
1, 556943, Note_on_c, 0, 67, 72
1, 556946, Control_c, 0, 64, 72
1, 556951, Note_on_c, 0, 62, 64
1, 556957, Note_on_c, 0, 59, 58
1, 556961, Control_c, 0, 64, 72
1, 556962, Note_on_c, 0, 65, 54
1, 556965, Note_off_c, 0, 67, 69
1, 556976, Control_c, 0, 64, 71
1, 556979, Note_off_c, 0, 65, 66
1, 556981, Note_off_c, 0, 62, 62
1, 556982, Note_off_c, 0, 59, 60
1, 556984, Note_on_c, 0, 79, 79
1, 556990, Control_c, 0, 64, 69
1, 557005, Control_c, 0, 64, 67
1, 557020, Note_off_c, 0, 79, 62
1, 557020, Control_c, 0, 64, 63
1, 557035, Control_c, 0, 64, 53
1, 557050, Control_c, 0, 64, 0
1, 557067, Note_on_c, 0, 67, 69
1, 557068, Note_on_c, 0, 59, 75
1, 557068, Note_on_c, 0, 65, 75
1, 557071, Note_on_c, 0, 62, 77
1, 557109, Control_c, 0, 67, 10
1, 557124, Control_c, 0, 67, 19
1, 557139, Control_c, 0, 67, 34
1, 557141, Note_on_c, 0, 79, 80
1, 557154, Control_c, 0, 67, 54
1, 557168, Control_c, 0, 67, 76
1, 557175, Note_off_c, 0, 79, 59
1, 557183, Control_c, 0, 67, 97
1, 557198, Control_c, 0, 67, 117
1, 557210, Note_on_c, 0, 91, 83
1, 557212, Note_off_c, 0, 67, 52
1, 557213, Control_c, 0, 67, 127
1, 557224, Note_off_c, 0, 65, 61
1, 557225, Note_on_c, 0, 86, 63
1, 557247, Note_off_c, 0, 91, 56
1, 557256, Note_off_c, 0, 62, 50
1, 557264, Note_off_c, 0, 86, 41
1, 557296, Note_on_c, 0, 83, 64
1, 557297, Note_off_c, 0, 59, 53
1, 557338, Note_off_c, 0, 83, 61
1, 557339, Note_on_c, 0, 89, 75
1, 557350, Note_on_c, 0, 84, 59
1, 557369, Note_off_c, 0, 89, 62
1, 557395, Note_off_c, 0, 84, 47
1, 557411, Note_on_c, 0, 81, 72
1, 557448, Note_off_c, 0, 81, 62
1, 557470, Note_on_c, 0, 88, 68
1, 557470, Note_on_c, 0, 83, 56
1, 557494, Note_off_c, 0, 88, 69
1, 557512, Note_off_c, 0, 83, 45
1, 557522, Note_on_c, 0, 79, 72
1, 557557, Note_off_c, 0, 79, 58
1, 557584, Note_on_c, 0, 86, 67
1, 557602, Note_on_c, 0, 81, 56
1, 557610, Note_off_c, 0, 86, 66
1, 557631, Note_off_c, 0, 81, 64
1, 557640, Note_on_c, 0, 77, 66
1, 557688, Note_off_c, 0, 77, 43
1, 557703, Note_on_c, 0, 84, 69
1, 557715, Note_on_c, 0, 79, 60
1, 557729, Note_off_c, 0, 84, 67
1, 557747, Note_off_c, 0, 79, 63
1, 557771, Note_on_c, 0, 76, 57
1, 557802, Note_off_c, 0, 76, 54
1, 557822, Note_on_c, 0, 83, 68
1, 557824, Note_on_c, 0, 77, 59
1, 557849, Note_off_c, 0, 83, 61
1, 557860, Note_off_c, 0, 77, 50
1, 557887, Note_on_c, 0, 74, 61
1, 557931, Note_off_c, 0, 74, 64
1, 557939, Note_on_c, 0, 81, 71
1, 557948, Note_on_c, 0, 76, 58
1, 557977, Note_off_c, 0, 81, 59
1, 557989, Note_off_c, 0, 76, 57
1, 558015, Note_on_c, 0, 72, 66
1, 558054, Note_off_c, 0, 72, 61
1, 558075, Note_on_c, 0, 74, 56
1, 558079, Note_on_c, 0, 79, 59
1, 558096, Note_off_c, 0, 79, 63
1, 558109, Note_off_c, 0, 74, 65
1, 558138, Note_on_c, 0, 71, 59
1, 558167, Note_off_c, 0, 71, 53
1, 558192, Note_on_c, 0, 77, 66
1, 558193, Note_on_c, 0, 72, 60
1, 558212, Note_off_c, 0, 77, 63
1, 558234, Note_off_c, 0, 72, 62
1, 558237, Control_c, 0, 67, 126
1, 558248, Note_on_c, 0, 69, 64
1, 558252, Control_c, 0, 67, 117
1, 558267, Control_c, 0, 67, 104
1, 558275, Note_off_c, 0, 69, 70
1, 558281, Control_c, 0, 67, 88
1, 558296, Control_c, 0, 67, 69
1, 558311, Control_c, 0, 67, 50
1, 558320, Note_on_c, 0, 76, 75
1, 558326, Control_c, 0, 67, 37
1, 558334, Note_on_c, 0, 71, 58
1, 558335, Note_on_c, 0, 65, 66
1, 558341, Control_c, 0, 67, 28
1, 558357, Control_c, 0, 67, 21
1, 558362, Note_off_c, 0, 65, 67
1, 558366, Note_off_c, 0, 76, 63
1, 558369, Note_off_c, 0, 71, 60
1, 558371, Control_c, 0, 67, 14
1, 558386, Control_c, 0, 67, 0
1, 558397, Note_on_c, 0, 67, 57
1, 558434, Note_off_c, 0, 67, 65
1, 558439, Note_on_c, 0, 65, 62
1, 558444, Note_on_c, 0, 74, 64
1, 558447, Note_on_c, 0, 71, 65
1, 558469, Note_off_c, 0, 65, 68
1, 558490, Note_off_c, 0, 74, 63
1, 558490, Note_off_c, 0, 71, 47
1, 558570, Note_on_c, 0, 65, 60
1, 558573, Note_on_c, 0, 73, 42
1, 558582, Note_on_c, 0, 71, 46
1, 558586, Poly_aftertouch_c, 0, 67, 0
1, 558599, Note_off_c, 0, 65, 68
1, 558601, Note_off_c, 0, 73, 35
1, 558611, Note_off_c, 0, 71, 61
1, 558627, Note_on_c, 0, 67, 47
1, 558671, Note_off_c, 0, 67, 61
1, 558686, Note_on_c, 0, 65, 57
1, 558686, Note_on_c, 0, 74, 59
1, 558700, Note_on_c, 0, 71, 54
1, 558725, Note_off_c, 0, 65, 67
1, 558725, Note_off_c, 0, 74, 63
1, 558733, Note_off_c, 0, 71, 60
1, 558764, Note_on_c, 0, 67, 57
1, 558793, Note_off_c, 0, 67, 53
1, 558812, Note_on_c, 0, 73, 68
1, 558813, Note_on_c, 0, 65, 61
1, 558825, Note_on_c, 0, 71, 53
1, 558843, Note_off_c, 0, 65, 67
1, 558856, Note_off_c, 0, 73, 59
1, 558869, Note_off_c, 0, 71, 58
1, 558870, Note_on_c, 0, 67, 67
1, 558918, Note_off_c, 0, 67, 62
1, 558923, Note_on_c, 0, 65, 71
1, 558927, Note_on_c, 0, 74, 53
1, 558942, Note_on_c, 0, 71, 59
1, 558955, Note_off_c, 0, 74, 67
1, 558963, Note_off_c, 0, 65, 66
1, 558978, Note_off_c, 0, 71, 60
1, 558984, Note_on_c, 0, 67, 59
1, 559016, Note_off_c, 0, 67, 64
1, 559052, Note_on_c, 0, 81, 72
1, 559058, Note_on_c, 0, 64, 80
1, 559059, Control_c, 0, 64, 52
1, 559074, Control_c, 0, 64, 69
1, 559077, Note_off_c, 0, 81, 63
1, 559079, Note_on_c, 0, 72, 54
1, 559089, Control_c, 0, 64, 77
1, 559104, Control_c, 0, 64, 85
1, 559119, Control_c, 0, 64, 88
1, 559125, Note_off_c, 0, 72, 64
1, 559133, Control_c, 0, 64, 88
1, 559147, Note_on_c, 0, 67, 40
1, 559172, Note_on_c, 0, 79, 73
1, 559176, Note_off_c, 0, 67, 51
1, 559181, Note_on_c, 0, 72, 45
1, 559197, Note_off_c, 0, 64, 60
1, 559205, Note_off_c, 0, 79, 58
1, 559224, Note_off_c, 0, 72, 65
1, 559250, Note_on_c, 0, 67, 44
1, 559253, Control_c, 0, 64, 86
1, 559268, Control_c, 0, 64, 82
1, 559272, Note_off_c, 0, 67, 57
1, 559283, Control_c, 0, 64, 74
1, 559297, Control_c, 0, 64, 64
1, 559306, Note_on_c, 0, 76, 76
1, 559312, Control_c, 0, 64, 0
1, 559320, Note_on_c, 0, 71, 65
1, 559329, Note_on_c, 0, 65, 57
1, 559348, Note_off_c, 0, 65, 65
1, 559363, Note_off_c, 0, 76, 62
1, 559365, Note_off_c, 0, 71, 59
1, 559369, Note_on_c, 0, 67, 55
1, 559421, Note_off_c, 0, 67, 57
1, 559426, Note_on_c, 0, 65, 64
1, 559430, Note_on_c, 0, 74, 63
1, 559435, Note_on_c, 0, 71, 55
1, 559455, Note_off_c, 0, 65, 67
1, 559481, Note_off_c, 0, 71, 63
1, 559485, Note_off_c, 0, 74, 64
1, 559509, Note_on_c, 0, 67, 51
1, 559551, Note_off_c, 0, 67, 61
1, 559569, Note_on_c, 0, 73, 63
1, 559571, Note_on_c, 0, 65, 60
1, 559584, Note_on_c, 0, 71, 53
1, 559598, Note_off_c, 0, 65, 67
1, 559600, Note_off_c, 0, 73, 64
1, 559611, Note_off_c, 0, 71, 60
1, 559635, Note_on_c, 0, 67, 60
1, 559670, Note_off_c, 0, 67, 60
1, 559685, Note_on_c, 0, 74, 59
1, 559688, Note_on_c, 0, 65, 57
1, 559703, Note_on_c, 0, 71, 58
1, 559718, Note_off_c, 0, 74, 65
1, 559722, Note_off_c, 0, 65, 65
1, 559736, Note_off_c, 0, 71, 64
1, 559749, Note_on_c, 0, 67, 65
1, 559783, Note_off_c, 0, 67, 61
1, 559808, Note_on_c, 0, 65, 63
1, 559813, Note_on_c, 0, 73, 60
1, 559825, Note_on_c, 0, 71, 51
1, 559838, Note_off_c, 0, 73, 65
1, 559840, Note_off_c, 0, 65, 67
1, 559855, Note_off_c, 0, 71, 58
1, 559872, Note_on_c, 0, 67, 63
1, 559902, Note_off_c, 0, 67, 66
1, 559910, Note_on_c, 0, 74, 58
1, 559912, Note_on_c, 0, 65, 70
1, 559926, Note_on_c, 0, 71, 54
1, 559941, Note_off_c, 0, 74, 66
1, 559953, Note_off_c, 0, 65, 63
1, 559962, Note_off_c, 0, 71, 64
1, 559982, Note_on_c, 0, 67, 57
1, 560003, Note_off_c, 0, 67, 61
1, 560043, Note_on_c, 0, 81, 77
1, 560043, Note_on_c, 0, 64, 76
1, 560051, Note_on_c, 0, 72, 69
1, 560065, Note_off_c, 0, 81, 63
1, 560075, Control_c, 0, 64, 56
1, 560090, Control_c, 0, 64, 68
1, 560105, Control_c, 0, 64, 72
1, 560114, Note_off_c, 0, 72, 64
1, 560120, Control_c, 0, 64, 73
1, 560121, Note_on_c, 0, 67, 54
1, 560150, Note_off_c, 0, 67, 56
1, 560159, Note_on_c, 0, 79, 74
1, 560162, Note_off_c, 0, 64, 60
1, 560172, Note_on_c, 0, 72, 51
1, 560222, Note_off_c, 0, 79, 57
1, 560236, Note_off_c, 0, 72, 63
1, 560246, Control_c, 0, 64, 73
1, 560248, Note_on_c, 0, 67, 50
1, 560261, Control_c, 0, 64, 72
1, 560272, Note_off_c, 0, 67, 57
1, 560275, Control_c, 0, 64, 71
1, 560290, Control_c, 0, 64, 68
1, 560295, Note_on_c, 0, 79, 68
1, 560305, Control_c, 0, 64, 64
1, 560309, Note_on_c, 0, 62, 72
1, 560311, Note_on_c, 0, 71, 62
1, 560320, Control_c, 0, 64, 57
1, 560334, Note_off_c, 0, 79, 59
1, 560335, Control_c, 0, 64, 34
1, 560347, Note_off_c, 0, 62, 63
1, 560350, Control_c, 0, 64, 0
1, 560356, Note_on_c, 0, 67, 60
1, 560371, Note_off_c, 0, 71, 60
1, 560397, Note_off_c, 0, 67, 62
1, 560417, Note_on_c, 0, 77, 72
1, 560420, Note_on_c, 0, 71, 54
1, 560427, Note_on_c, 0, 62, 68
1, 560452, Note_off_c, 0, 77, 53
1, 560459, Note_off_c, 0, 62, 64
1, 560471, Note_off_c, 0, 71, 63
1, 560543, Note_on_c, 0, 60, 73
1, 560545, Note_on_c, 0, 77, 56
1, 560550, Note_on_c, 0, 72, 69
1, 560568, Note_off_c, 0, 77, 61
1, 560575, Note_off_c, 0, 60, 60
1, 560606, Note_off_c, 0, 72, 61
1, 560616, Note_on_c, 0, 67, 47
1, 560641, Note_off_c, 0, 67, 57
1, 560645, Note_on_c, 0, 76, 65
1, 560657, Note_on_c, 0, 60, 68
1, 560660, Note_on_c, 0, 72, 30
1, 560684, Note_off_c, 0, 60, 65
1, 560687, Note_off_c, 0, 72, 56
1, 560688, Note_off_c, 0, 76, 65
1, 560775, Note_on_c, 0, 67, 57
1, 560782, Note_on_c, 0, 59, 73
1, 560794, Note_on_c, 0, 76, 40
1, 560812, Note_on_c, 0, 74, 34
1, 560818, Note_off_c, 0, 76, 50
1, 560821, Note_off_c, 0, 59, 58
1, 560821, Note_off_c, 0, 67, 61
1, 560845, Note_off_c, 0, 74, 44
1, 560870, Note_on_c, 0, 62, 36
1, 560892, Note_on_c, 0, 74, 46
1, 560898, Note_on_c, 0, 59, 69
1, 560904, Note_on_c, 0, 67, 36
1, 560933, Note_off_c, 0, 59, 62
1, 560934, Note_off_c, 0, 74, 60
1, 560935, Note_off_c, 0, 62, 0
1, 560935, Note_on_c, 0, 62, 55
1, 560935, Note_off_c, 0, 67, 47
1, 560980, Note_off_c, 0, 62, 58
1, 561019, Note_on_c, 0, 74, 74
1, 561024, Note_on_c, 0, 57, 72
1, 561024, Note_on_c, 0, 66, 65
1, 561059, Note_off_c, 0, 74, 58
1, 561062, Note_off_c, 0, 57, 60
1, 561068, Note_off_c, 0, 66, 63
1, 561090, Note_on_c, 0, 62, 55
1, 561123, Note_off_c, 0, 62, 52
1, 561136, Note_on_c, 0, 57, 64
1, 561139, Note_on_c, 0, 72, 73
1, 561146, Note_on_c, 0, 66, 62
1, 561166, Note_off_c, 0, 57, 63
1, 561179, Note_off_c, 0, 66, 67
1, 561184, Note_off_c, 0, 72, 60
1, 561217, Note_on_c, 0, 62, 37
1, 561250, Note_off_c, 0, 62, 34
1, 561260, Note_on_c, 0, 72, 67
1, 561267, Note_on_c, 0, 67, 71
1, 561271, Note_on_c, 0, 55, 66
1, 561300, Note_off_c, 0, 72, 60
1, 561309, Note_off_c, 0, 55, 64
1, 561313, Note_off_c, 0, 67, 63
1, 561325, Note_on_c, 0, 62, 65
1, 561380, Note_off_c, 0, 62, 58
1, 561382, Note_on_c, 0, 71, 62
1, 561391, Note_on_c, 0, 67, 46
1, 561395, Note_on_c, 0, 55, 58
1, 561417, Note_off_c, 0, 67, 60
1, 561423, Note_on_c, 0, 62, 51
1, 561427, Note_off_c, 0, 55, 64
1, 561427, Note_off_c, 0, 71, 61
1, 561460, Note_off_c, 0, 62, 64
1, 561500, Note_on_c, 0, 71, 60
1, 561506, Note_on_c, 0, 66, 71
1, 561513, Note_on_c, 0, 50, 66
1, 561548, Note_off_c, 0, 71, 57
1, 561556, Note_off_c, 0, 50, 62
1, 561558, Note_off_c, 0, 66, 62
1, 561578, Note_on_c, 0, 60, 55
1, 561607, Note_off_c, 0, 60, 56
1, 561623, Note_on_c, 0, 69, 62
1, 561623, Note_on_c, 0, 66, 58
1, 561628, Note_on_c, 0, 50, 60
1, 561652, Note_off_c, 0, 69, 69
1, 561661, Note_off_c, 0, 50, 64
1, 561661, Note_off_c, 0, 66, 65
1, 561672, Note_on_c, 0, 60, 54
1, 561694, Note_off_c, 0, 60, 62
1, 561754, Note_on_c, 0, 69, 68
1, 561769, Note_on_c, 0, 43, 59
1, 561771, Note_on_c, 0, 62, 63
1, 561804, Note_off_c, 0, 69, 62
1, 561809, Note_off_c, 0, 62, 62
1, 561842, Note_on_c, 0, 59, 32
1, 561874, Note_off_c, 0, 59, 45
1, 561882, Note_on_c, 0, 62, 62
1, 561884, Note_on_c, 0, 67, 64
1, 561899, Note_off_c, 0, 43, 59
1, 561917, Note_off_c, 0, 67, 64
1, 561919, Note_off_c, 0, 62, 62
1, 561941, Note_on_c, 0, 59, 43
1, 561968, Note_off_c, 0, 59, 51
1, 562007, Note_on_c, 0, 67, 67
1, 562013, Note_on_c, 0, 51, 65
1, 562022, Note_on_c, 0, 60, 58
1, 562039, Note_off_c, 0, 67, 61
1, 562069, Note_off_c, 0, 60, 60
1, 562085, Note_on_c, 0, 57, 52
1, 562105, Note_off_c, 0, 51, 56
1, 562109, Note_off_c, 0, 57, 58
1, 562114, Note_on_c, 0, 66, 65
1, 562132, Note_on_c, 0, 50, 60
1, 562150, Note_off_c, 0, 66, 63
1, 562166, Note_on_c, 0, 57, 52
1, 562190, Note_off_c, 0, 57, 60
1, 562243, Note_on_c, 0, 69, 71
1, 562251, Note_on_c, 0, 43, 62
1, 562254, Note_on_c, 0, 62, 60
1, 562275, Note_off_c, 0, 69, 62
1, 562278, Note_off_c, 0, 50, 46
1, 562299, Note_off_c, 0, 62, 62
1, 562314, Note_on_c, 0, 59, 49
1, 562344, Note_off_c, 0, 59, 52
1, 562368, Note_on_c, 0, 62, 57
1, 562370, Note_on_c, 0, 67, 63
1, 562397, Note_off_c, 0, 43, 59
1, 562402, Note_off_c, 0, 67, 63
1, 562407, Note_off_c, 0, 62, 60
1, 562429, Note_on_c, 0, 59, 44
1, 562456, Note_off_c, 0, 59, 52
1, 562500, Note_on_c, 0, 67, 68
1, 562511, Note_on_c, 0, 51, 60
1, 562512, Note_on_c, 0, 60, 63
1, 562531, Note_off_c, 0, 67, 62
1, 562556, Note_off_c, 0, 60, 62
1, 562569, Note_off_c, 0, 51, 54
1, 562573, Note_on_c, 0, 57, 54
1, 562603, Note_off_c, 0, 57, 57
1, 562607, Note_on_c, 0, 66, 67
1, 562618, Note_on_c, 0, 50, 60
1, 562633, Note_on_c, 0, 60, 20
1, 562645, Note_off_c, 0, 66, 61
1, 562657, Note_off_c, 0, 60, 47
1, 562657, Note_on_c, 0, 57, 52
1, 562682, Note_off_c, 0, 57, 58
1, 562745, Note_on_c, 0, 69, 54
1, 562746, Note_on_c, 0, 43, 62
1, 562748, Note_off_c, 0, 50, 54
1, 562751, Note_on_c, 0, 62, 64
1, 562772, Note_off_c, 0, 69, 60
1, 562790, Note_off_c, 0, 62, 62
1, 562807, Note_on_c, 0, 59, 50
1, 562839, Note_off_c, 0, 59, 52
1, 562856, Note_on_c, 0, 67, 55
1, 562874, Note_on_c, 0, 62, 26
1, 562898, Note_off_c, 0, 67, 57
1, 562907, Note_off_c, 0, 62, 47
1, 562918, Note_on_c, 0, 59, 45
1, 562943, Note_off_c, 0, 59, 55
1, 562974, Note_on_c, 0, 65, 72
1, 563026, Note_off_c, 0, 65, 57
1, 563036, Note_on_c, 0, 64, 71
1, 563092, Note_off_c, 0, 64, 63
1, 563095, Note_on_c, 0, 65, 62
1, 563152, Note_off_c, 0, 65, 65
1, 563154, Note_on_c, 0, 68, 70
1, 563188, Note_off_c, 0, 43, 37
1, 563195, Note_off_c, 0, 68, 51
1, 563207, Note_on_c, 0, 62, 67
1, 563262, Note_off_c, 0, 62, 57
1, 563275, Note_on_c, 0, 61, 71
1, 563318, Note_off_c, 0, 61, 60
1, 563331, Note_on_c, 0, 62, 59
1, 563371, Note_off_c, 0, 62, 65
1, 563384, Note_on_c, 0, 65, 64
1, 563417, Note_off_c, 0, 65, 66
1, 563433, Note_on_c, 0, 59, 55
1, 563477, Note_off_c, 0, 59, 59
1, 563486, Note_on_c, 0, 58, 67
1, 563519, Note_off_c, 0, 58, 63
1, 563550, Note_on_c, 0, 59, 34
1, 563576, Note_off_c, 0, 59, 54
1, 563585, Note_on_c, 0, 62, 63
1, 563639, Note_off_c, 0, 62, 56
1, 563658, Note_on_c, 0, 56, 69
1, 563698, Note_off_c, 0, 56, 63
1, 563718, Note_on_c, 0, 55, 63
1, 563765, Note_off_c, 0, 55, 63
1, 563773, Note_on_c, 0, 56, 62
1, 563816, Note_off_c, 0, 56, 62
1, 563824, Note_on_c, 0, 59, 61
1, 563863, Note_off_c, 0, 59, 61
1, 563879, Note_on_c, 0, 53, 62
1, 563921, Note_off_c, 0, 53, 64
1, 563936, Note_on_c, 0, 52, 67
1, 563977, Note_off_c, 0, 52, 67
1, 563982, Note_on_c, 0, 53, 55
1, 564040, Note_on_c, 0, 56, 65
1, 564043, Note_off_c, 0, 53, 66
1, 564082, Note_off_c, 0, 56, 58
1, 564105, Note_on_c, 0, 50, 52
1, 564145, Note_off_c, 0, 50, 61
1, 564156, Note_on_c, 0, 49, 68
1, 564195, Note_off_c, 0, 49, 61
1, 564215, Note_on_c, 0, 50, 56
1, 564252, Note_off_c, 0, 50, 63
1, 564263, Note_on_c, 0, 53, 58
1, 564296, Note_off_c, 0, 53, 67
1, 564312, Note_on_c, 0, 47, 60
1, 564353, Note_off_c, 0, 47, 62
1, 564372, Note_on_c, 0, 46, 66
1, 564428, Note_on_c, 0, 47, 56
1, 564433, Note_off_c, 0, 46, 44
1, 564466, Note_on_c, 0, 50, 69
1, 564476, Note_off_c, 0, 47, 64
1, 564503, Note_off_c, 0, 50, 62
1, 564525, Note_on_c, 0, 43, 73
1, 564586, Note_on_c, 0, 47, 67
1, 564589, Note_off_c, 0, 43, 62
1, 564624, Note_off_c, 0, 47, 67
1, 564644, Note_on_c, 0, 50, 59
1, 564681, Note_off_c, 0, 50, 62
1, 564714, Note_on_c, 0, 42, 64
1, 564746, Note_off_c, 0, 42, 65
1, 564779, Note_on_c, 0, 43, 55
1, 564838, Note_off_c, 0, 43, 61
1, 564850, Note_on_c, 0, 47, 58
1, 564897, Note_off_c, 0, 47, 65
1, 564899, Note_on_c, 0, 50, 65
1, 564936, Note_off_c, 0, 50, 63
1, 564968, Note_on_c, 0, 42, 62
1, 565008, Note_off_c, 0, 42, 65
1, 565025, Note_on_c, 0, 43, 64
1, 565094, Note_off_c, 0, 43, 62
1, 565095, Note_on_c, 0, 47, 66
1, 565147, Note_off_c, 0, 47, 62
1, 565155, Note_on_c, 0, 50, 57
1, 565182, Note_off_c, 0, 50, 64
1, 565211, Note_on_c, 0, 42, 64
1, 565271, Note_on_c, 0, 43, 60
1, 565274, Note_off_c, 0, 42, 61
1, 565337, Note_on_c, 0, 47, 64
1, 565337, Note_off_c, 0, 43, 62
1, 565372, Note_off_c, 0, 47, 65
1, 565394, Note_on_c, 0, 50, 51
1, 565420, Note_off_c, 0, 50, 55
1, 565447, Note_on_c, 0, 42, 77
1, 565492, Note_off_c, 0, 42, 64
1, 565557, Note_on_c, 0, 43, 43
1, 565593, Note_off_c, 0, 43, 51
1, 565650, Poly_aftertouch_c, 0, 45, 0
1, 565662, Note_on_c, 0, 48, 58
1, 565710, Note_off_c, 0, 48, 51
1, 565730, Note_on_c, 0, 46, 51
1, 565761, Note_off_c, 0, 46, 63
1, 565766, Note_on_c, 0, 48, 52
1, 565810, Note_off_c, 0, 48, 65
1, 565828, Note_on_c, 0, 47, 59
1, 565870, Note_off_c, 0, 47, 55
1, 565893, Note_on_c, 0, 50, 58
1, 565933, Note_off_c, 0, 50, 62
1, 565936, Note_on_c, 0, 49, 65
1, 565984, Note_off_c, 0, 49, 62
1, 565995, Note_on_c, 0, 52, 61
1, 566023, Note_off_c, 0, 52, 67
1, 566062, Note_on_c, 0, 50, 49
1, 566101, Note_off_c, 0, 50, 50
1, 566125, Note_on_c, 0, 55, 55
1, 566162, Note_off_c, 0, 55, 54
1, 566169, Note_on_c, 0, 54, 65
1, 566219, Note_off_c, 0, 54, 61
1, 566231, Note_on_c, 0, 57, 57
1, 566267, Note_off_c, 0, 57, 62
1, 566296, Note_on_c, 0, 55, 59
1, 566342, Note_off_c, 0, 55, 59
1, 566356, Note_on_c, 0, 59, 60
1, 566397, Note_off_c, 0, 59, 62
1, 566402, Note_on_c, 0, 58, 66
1, 566445, Note_off_c, 0, 58, 60
1, 566453, Note_on_c, 0, 60, 61
1, 566484, Note_off_c, 0, 60, 64
1, 566517, Note_on_c, 0, 59, 66
1, 566566, Note_off_c, 0, 59, 52
1, 566574, Note_on_c, 0, 62, 64
1, 566612, Note_off_c, 0, 62, 58
1, 566616, Note_on_c, 0, 61, 67
1, 566657, Note_off_c, 0, 61, 61
1, 566673, Note_on_c, 0, 64, 57
1, 566694, Note_off_c, 0, 64, 64
1, 566729, Note_on_c, 0, 62, 68
1, 566777, Note_off_c, 0, 62, 57
1, 566792, Note_on_c, 0, 67, 63
1, 566830, Note_off_c, 0, 67, 57
1, 566836, Note_on_c, 0, 66, 65
1, 566878, Note_off_c, 0, 66, 66
1, 566889, Note_on_c, 0, 69, 65
1, 566916, Note_off_c, 0, 69, 68
1, 566948, Note_on_c, 0, 67, 67
1, 567001, Note_off_c, 0, 67, 57
1, 567016, Note_on_c, 0, 71, 61
1, 567060, Note_off_c, 0, 71, 57
1, 567061, Note_on_c, 0, 70, 68
1, 567101, Note_off_c, 0, 70, 61
1, 567113, Note_on_c, 0, 72, 61
1, 567143, Note_off_c, 0, 72, 67
1, 567179, Note_on_c, 0, 71, 62
1, 567206, Note_off_c, 0, 71, 52
1, 567235, Note_on_c, 0, 74, 59
1, 567264, Note_off_c, 0, 74, 65
1, 567270, Note_on_c, 0, 73, 65
1, 567310, Note_off_c, 0, 73, 61
1, 567324, Note_on_c, 0, 76, 61
1, 567351, Note_off_c, 0, 76, 69
1, 567388, Note_on_c, 0, 74, 56
1, 567419, Note_off_c, 0, 74, 54
1, 567441, Note_on_c, 0, 79, 64
1, 567486, Note_off_c, 0, 79, 61
1, 567500, Note_on_c, 0, 78, 64
1, 567530, Note_off_c, 0, 78, 65
1, 567546, Note_on_c, 0, 81, 57
1, 567565, Note_off_c, 0, 81, 62
1, 567605, Note_on_c, 0, 79, 70
1, 567637, Note_off_c, 0, 79, 56
1, 567657, Note_on_c, 0, 84, 65
1, 567719, Note_off_c, 0, 84, 60
1, 567722, Note_on_c, 0, 83, 66
1, 567781, Note_off_c, 0, 83, 60
1, 567785, Note_on_c, 0, 81, 68
1, 567799, Note_on_c, 0, 60, 59
1, 567810, Note_on_c, 0, 64, 42
1, 567820, Note_off_c, 0, 60, 63
1, 567826, Note_off_c, 0, 81, 61
1, 567835, Note_off_c, 0, 64, 37
1, 567852, Note_on_c, 0, 79, 52
1, 567878, Note_off_c, 0, 79, 52
1, 567907, Note_on_c, 0, 78, 74
1, 567910, Note_on_c, 0, 60, 59
1, 567920, Note_on_c, 0, 63, 58
1, 567935, Note_off_c, 0, 60, 59
1, 567940, Note_off_c, 0, 63, 64
1, 567957, Note_off_c, 0, 78, 60
1, 567970, Note_on_c, 0, 81, 68
1, 568034, Note_on_c, 0, 79, 63
1, 568039, Note_off_c, 0, 81, 59
1, 568043, Note_on_c, 0, 60, 59
1, 568046, Note_on_c, 0, 64, 65
1, 568076, Note_off_c, 0, 60, 64
1, 568076, Note_off_c, 0, 64, 67
1, 568082, Note_off_c, 0, 79, 63
1, 568097, Note_on_c, 0, 76, 60
1, 568125, Note_off_c, 0, 76, 54
1, 568155, Note_on_c, 0, 75, 67
1, 568159, Note_on_c, 0, 60, 58
1, 568159, Note_on_c, 0, 66, 67
1, 568184, Note_off_c, 0, 75, 68
1, 568186, Note_off_c, 0, 66, 68
1, 568190, Note_off_c, 0, 60, 64
1, 568201, Note_on_c, 0, 77, 67
1, 568271, Note_on_c, 0, 76, 63
1, 568280, Note_on_c, 0, 60, 67
1, 568280, Note_off_c, 0, 77, 56
1, 568284, Note_on_c, 0, 67, 64
1, 568309, Note_off_c, 0, 60, 64
1, 568312, Note_off_c, 0, 67, 66
1, 568317, Note_off_c, 0, 76, 66
1, 568327, Note_on_c, 0, 72, 61
1, 568360, Note_off_c, 0, 72, 65
1, 568389, Note_on_c, 0, 71, 68
1, 568398, Note_on_c, 0, 63, 66
1, 568401, Note_on_c, 0, 60, 61
1, 568422, Note_off_c, 0, 60, 60
1, 568426, Note_off_c, 0, 63, 64
1, 568440, Note_off_c, 0, 71, 61
1, 568461, Note_on_c, 0, 74, 63
1, 568517, Note_on_c, 0, 60, 69
1, 568522, Note_on_c, 0, 72, 62
1, 568528, Note_off_c, 0, 74, 63
1, 568533, Note_on_c, 0, 64, 55
1, 568554, Note_off_c, 0, 60, 61
1, 568554, Note_off_c, 0, 72, 65
1, 568555, Note_off_c, 0, 64, 64
1, 568574, Note_on_c, 0, 67, 62
1, 568616, Note_off_c, 0, 67, 62
1, 568633, Note_on_c, 0, 64, 65
1, 568640, Note_on_c, 0, 60, 61
1, 568646, Note_on_c, 0, 72, 55
1, 568661, Note_off_c, 0, 64, 66
1, 568671, Note_off_c, 0, 60, 65
1, 568679, Note_on_c, 0, 71, 63
1, 568681, Note_off_c, 0, 72, 65
1, 568732, Note_off_c, 0, 71, 60
1, 568754, Note_on_c, 0, 60, 60
1, 568757, Note_on_c, 0, 62, 65
1, 568757, Note_on_c, 0, 69, 54
1, 568760, Note_on_c, 0, 65, 63
1, 568783, Note_off_c, 0, 69, 63
1, 568788, Note_off_c, 0, 65, 68
1, 568792, Note_off_c, 0, 60, 60
1, 568792, Note_off_c, 0, 62, 61
1, 568798, Note_on_c, 0, 68, 65
1, 568835, Note_off_c, 0, 68, 63
1, 568861, Note_on_c, 0, 65, 69
1, 568871, Note_on_c, 0, 62, 65
1, 568875, Note_on_c, 0, 69, 50
1, 568890, Note_on_c, 0, 60, 43
1, 568893, Note_off_c, 0, 65, 66
1, 568899, Note_off_c, 0, 69, 60
1, 568905, Note_off_c, 0, 62, 62
1, 568914, Note_on_c, 0, 70, 68
1, 568915, Note_off_c, 0, 60, 54
1, 568952, Note_off_c, 0, 70, 66
1, 568982, Note_on_c, 0, 65, 65
1, 568986, Note_on_c, 0, 62, 63
1, 568990, Note_on_c, 0, 71, 60
1, 569011, Note_off_c, 0, 65, 68
1, 569020, Note_off_c, 0, 62, 63
1, 569025, Note_off_c, 0, 71, 58
1, 569036, Note_on_c, 0, 72, 57
1, 569072, Note_off_c, 0, 72, 65
1, 569080, Note_on_c, 0, 73, 70
1, 569092, Note_on_c, 0, 65, 63
1, 569095, Note_on_c, 0, 62, 64
1, 569102, Poly_aftertouch_c, 0, 60, 127
1, 569111, Note_on_c, 0, 69, 55
1, 569114, Note_off_c, 0, 73, 62
1, 569128, Note_off_c, 0, 65, 62
1, 569132, Note_off_c, 0, 69, 65
1, 569137, Note_off_c, 0, 62, 57
1, 569149, Poly_aftertouch_c, 0, 60, 0
1, 569151, Note_on_c, 0, 74, 62
1, 569181, Note_off_c, 0, 74, 62
1, 569209, Note_on_c, 0, 75, 67
1, 569221, Note_on_c, 0, 69, 62
1, 569237, Note_on_c, 0, 65, 55
1, 569237, Note_off_c, 0, 75, 69
1, 569245, Note_on_c, 0, 62, 46
1, 569254, Note_off_c, 0, 69, 65
1, 569256, Note_on_c, 0, 60, 39
1, 569269, Note_off_c, 0, 65, 67
1, 569273, Note_off_c, 0, 62, 58
1, 569276, Note_on_c, 0, 76, 67
1, 569282, Note_off_c, 0, 60, 53
1, 569322, Note_off_c, 0, 76, 66
1, 569333, Note_on_c, 0, 77, 68
1, 569349, Note_on_c, 0, 65, 60
1, 569353, Note_on_c, 0, 69, 58
1, 569357, Note_on_c, 0, 62, 59
1, 569367, Note_on_c, 0, 60, 47
1, 569373, Note_off_c, 0, 69, 62
1, 569379, Note_off_c, 0, 65, 66
1, 569382, Note_off_c, 0, 77, 61
1, 569382, Note_on_c, 0, 78, 68
1, 569391, Note_off_c, 0, 62, 65
1, 569392, Note_off_c, 0, 60, 52
1, 569431, Note_on_c, 0, 79, 58
1, 569434, Note_off_c, 0, 78, 62
1, 569463, Note_on_c, 0, 67, 82
1, 569467, Note_on_c, 0, 65, 67
1, 569468, Note_on_c, 0, 62, 66
1, 569471, Note_on_c, 0, 59, 68
1, 569477, Note_off_c, 0, 79, 61
1, 569498, Control_c, 0, 64, 57
1, 569508, Note_on_c, 0, 78, 69
1, 569512, Control_c, 0, 64, 72
1, 569528, Control_c, 0, 64, 85
1, 569543, Control_c, 0, 64, 99
1, 569558, Control_c, 0, 64, 108
1, 569562, Note_off_c, 0, 78, 58
1, 569573, Control_c, 0, 64, 111
1, 569577, Note_off_c, 0, 59, 60
1, 569577, Note_on_c, 0, 81, 70
1, 569587, Control_c, 0, 64, 112
1, 569602, Control_c, 0, 64, 114
1, 569617, Control_c, 0, 64, 116
1, 569624, Note_off_c, 0, 67, 54
1, 569632, Control_c, 0, 64, 117
1, 569633, Note_on_c, 0, 79, 65
1, 569653, Note_off_c, 0, 81, 56
1, 569662, Note_off_c, 0, 62, 57
1, 569688, Note_off_c, 0, 65, 62
1, 569689, Note_off_c, 0, 79, 61
1, 569691, Control_c, 0, 64, 117
1, 569706, Control_c, 0, 64, 109
1, 569713, Note_on_c, 0, 76, 67
1, 569720, Note_on_c, 0, 64, 72
1, 569721, Control_c, 0, 64, 94
1, 569722, Note_on_c, 0, 60, 73
1, 569725, Note_on_c, 0, 67, 64
1, 569735, Control_c, 0, 64, 76
1, 569742, Note_off_c, 0, 67, 64
1, 569743, Note_off_c, 0, 64, 65
1, 569747, Note_off_c, 0, 60, 67
1, 569750, Control_c, 0, 64, 0
1, 569759, Note_off_c, 0, 76, 64
1, 569778, Note_on_c, 0, 79, 58
1, 569841, Note_on_c, 0, 77, 67
1, 569846, Note_off_c, 0, 79, 54
1, 569898, Note_on_c, 0, 76, 63
1, 569905, Note_off_c, 0, 77, 60
1, 569962, Note_off_c, 0, 76, 66
1, 569964, Note_on_c, 0, 59, 69
1, 569968, Note_on_c, 0, 56, 69
1, 569973, Note_on_c, 0, 74, 59
1, 569990, Note_off_c, 0, 56, 67
1, 569990, Note_off_c, 0, 59, 65
1, 570013, Note_off_c, 0, 74, 54
1, 570035, Note_on_c, 0, 77, 69
1, 570091, Note_off_c, 0, 77, 54
1, 570093, Note_on_c, 0, 76, 67
1, 570150, Note_on_c, 0, 74, 60
1, 570160, Note_off_c, 0, 76, 65
1, 570202, Note_off_c, 0, 74, 65
1, 570213, Note_on_c, 0, 57, 76
1, 570215, Note_on_c, 0, 60, 71
1, 570215, Note_on_c, 0, 72, 61
1, 570240, Note_off_c, 0, 60, 67
1, 570240, Note_off_c, 0, 57, 66
1, 570255, Note_off_c, 0, 72, 58
1, 570280, Note_on_c, 0, 76, 66
1, 570338, Note_on_c, 0, 74, 64
1, 570345, Note_off_c, 0, 76, 56
1, 570388, Note_on_c, 0, 72, 65
1, 570400, Note_off_c, 0, 74, 62
1, 570446, Note_off_c, 0, 72, 64
1, 570454, Note_on_c, 0, 55, 76
1, 570458, Note_on_c, 0, 52, 69
1, 570459, Note_on_c, 0, 71, 60
1, 570479, Note_off_c, 0, 55, 68
1, 570488, Note_off_c, 0, 52, 68
1, 570500, Note_off_c, 0, 71, 60
1, 570516, Note_on_c, 0, 74, 60
1, 570567, Note_off_c, 0, 74, 59
1, 570568, Note_on_c, 0, 72, 66
1, 570617, Note_on_c, 0, 71, 69
1, 570618, Note_off_c, 0, 72, 65
1, 570662, Note_off_c, 0, 71, 62
1, 570682, Note_on_c, 0, 69, 57
1, 570693, Note_on_c, 0, 57, 72
1, 570695, Note_on_c, 0, 53, 72
1, 570716, Note_off_c, 0, 69, 60
1, 570726, Note_on_c, 0, 71, 64
1, 570728, Note_off_c, 0, 57, 66
1, 570738, Note_off_c, 0, 53, 66
1, 570756, Note_off_c, 0, 71, 64
1, 570802, Note_on_c, 0, 72, 70
1, 570835, Note_off_c, 0, 72, 61
1, 570866, Note_on_c, 0, 73, 61
1, 570921, Note_on_c, 0, 74, 68
1, 570925, Note_off_c, 0, 73, 61
1, 570930, Note_on_c, 0, 62, 81
1, 570935, Note_on_c, 0, 50, 70
1, 570956, Note_off_c, 0, 62, 65
1, 570968, Note_off_c, 0, 50, 64
1, 570977, Note_off_c, 0, 74, 64
1, 570984, Note_on_c, 0, 76, 55
1, 571018, Note_off_c, 0, 76, 64
1, 571019, Note_on_c, 0, 77, 66
1, 571047, Note_on_c, 0, 62, 79
1, 571057, Note_on_c, 0, 50, 47
1, 571077, Note_off_c, 0, 62, 63
1, 571084, Note_off_c, 0, 50, 53
1, 571087, Note_off_c, 0, 77, 60
1, 571097, Note_on_c, 0, 74, 57
1, 571147, Note_on_c, 0, 72, 73
1, 571148, Note_off_c, 0, 74, 65
1, 571168, Note_on_c, 0, 55, 74
1, 571170, Note_on_c, 0, 59, 78
1, 571194, Note_off_c, 0, 72, 63
1, 571212, Note_off_c, 0, 55, 67
1, 571212, Note_on_c, 0, 71, 56
1, 571213, Note_off_c, 0, 59, 53
1, 571248, Note_off_c, 0, 71, 63
1, 571274, Note_on_c, 0, 81, 76
1, 571339, Note_on_c, 0, 79, 68
1, 571346, Note_off_c, 0, 81, 58
1, 571389, Note_off_c, 0, 79, 60
1, 571394, Note_on_c, 0, 78, 69
1, 571433, Note_off_c, 0, 78, 64
1, 571437, Note_on_c, 0, 79, 61
1, 571504, Note_off_c, 0, 79, 62
1, 571511, Note_on_c, 0, 84, 68
1, 571565, Note_on_c, 0, 83, 73
1, 571585, Note_off_c, 0, 84, 57
1, 571623, Note_off_c, 0, 83, 61
1, 571626, Note_on_c, 0, 81, 70
1, 571639, Note_on_c, 0, 48, 69
1, 571642, Note_on_c, 0, 52, 67
1, 571656, Note_off_c, 0, 81, 61
1, 571665, Note_on_c, 0, 79, 65
1, 571671, Note_off_c, 0, 48, 65
1, 571672, Note_off_c, 0, 52, 68
1, 571705, Note_off_c, 0, 79, 56
1, 571745, Note_on_c, 0, 78, 70
1, 571751, Note_on_c, 0, 48, 62
1, 571753, Note_on_c, 0, 51, 68
1, 571785, Note_off_c, 0, 48, 66
1, 571785, Note_off_c, 0, 51, 64
1, 571794, Note_off_c, 0, 78, 63
1, 571799, Note_on_c, 0, 81, 66
1, 571866, Note_on_c, 0, 79, 62
1, 571874, Note_off_c, 0, 81, 57
1, 571877, Note_on_c, 0, 48, 69
1, 571891, Note_on_c, 0, 52, 51
1, 571904, Note_off_c, 0, 48, 66
1, 571916, Note_off_c, 0, 52, 58
1, 571916, Note_off_c, 0, 79, 62
1, 571925, Note_on_c, 0, 76, 68
1, 571975, Note_off_c, 0, 76, 61
1, 571993, Note_on_c, 0, 75, 67
1, 571996, Note_on_c, 0, 54, 74
1, 572025, Note_off_c, 0, 54, 62
1, 572032, Note_off_c, 0, 75, 63
1, 572039, Note_on_c, 0, 77, 70
1, 572106, Note_on_c, 0, 76, 65
1, 572115, Note_on_c, 0, 55, 68
1, 572118, Note_on_c, 0, 48, 59
1, 572121, Note_off_c, 0, 77, 57
1, 572143, Note_off_c, 0, 55, 67
1, 572151, Note_off_c, 0, 48, 66
1, 572158, Note_off_c, 0, 76, 66
1, 572172, Note_on_c, 0, 72, 60
1, 572210, Note_off_c, 0, 72, 68
1, 572233, Note_on_c, 0, 71, 67
1, 572238, Note_on_c, 0, 48, 60
1, 572238, Note_on_c, 0, 51, 66
1, 572267, Note_off_c, 0, 51, 64
1, 572276, Note_off_c, 0, 48, 65
1, 572282, Note_off_c, 0, 71, 61
1, 572299, Note_on_c, 0, 74, 65
1, 572358, Note_on_c, 0, 48, 68
1, 572362, Note_on_c, 0, 72, 67
1, 572365, Note_on_c, 0, 52, 61
1, 572366, Note_off_c, 0, 74, 64
1, 572395, Note_off_c, 0, 52, 67
1, 572396, Note_off_c, 0, 72, 62
1, 572398, Note_off_c, 0, 48, 65
1, 572409, Note_on_c, 0, 67, 66
1, 572451, Note_off_c, 0, 67, 60
1, 572471, Note_on_c, 0, 52, 65
1, 572482, Note_on_c, 0, 72, 64
1, 572485, Note_on_c, 0, 48, 51
1, 572499, Note_off_c, 0, 52, 66
1, 572510, Note_off_c, 0, 48, 63
1, 572527, Note_on_c, 0, 71, 62
1, 572530, Note_off_c, 0, 72, 64
1, 572576, Note_off_c, 0, 71, 62
1, 572589, Note_on_c, 0, 48, 66
1, 572589, Note_on_c, 0, 69, 65
1, 572594, Note_on_c, 0, 57, 74
1, 572596, Note_on_c, 0, 50, 65
1, 572601, Note_on_c, 0, 53, 60
1, 572622, Note_off_c, 0, 69, 61
1, 572623, Note_off_c, 0, 57, 61
1, 572631, Note_off_c, 0, 53, 67
1, 572635, Note_off_c, 0, 50, 64
1, 572636, Note_off_c, 0, 48, 60
1, 572649, Note_on_c, 0, 68, 69
1, 572690, Note_off_c, 0, 68, 65
1, 572709, Note_on_c, 0, 53, 69
1, 572711, Note_on_c, 0, 57, 69
1, 572718, Note_on_c, 0, 69, 60
1, 572722, Note_on_c, 0, 48, 54
1, 572724, Note_on_c, 0, 50, 62
1, 572741, Note_off_c, 0, 57, 64
1, 572749, Note_off_c, 0, 53, 65
1, 572759, Note_off_c, 0, 50, 62
1, 572761, Note_off_c, 0, 69, 60
1, 572762, Note_off_c, 0, 48, 64
1, 572776, Note_on_c, 0, 70, 70
1, 572810, Note_off_c, 0, 70, 64
1, 572834, Note_on_c, 0, 57, 65
1, 572840, Note_on_c, 0, 50, 63
1, 572846, Note_on_c, 0, 53, 61
1, 572849, Note_on_c, 0, 71, 64
1, 572850, Note_on_c, 0, 48, 61
1, 572872, Note_off_c, 0, 57, 60
1, 572878, Note_off_c, 0, 53, 66
1, 572887, Note_off_c, 0, 50, 63
1, 572892, Note_off_c, 0, 48, 64
1, 572892, Note_off_c, 0, 71, 57
1, 572899, Note_on_c, 0, 72, 60
1, 572933, Note_off_c, 0, 72, 64
1, 572949, Note_on_c, 0, 73, 75
1, 572970, Note_on_c, 0, 53, 63
1, 572977, Note_on_c, 0, 50, 52
1, 572977, Note_on_c, 0, 57, 62
1, 572986, Note_on_c, 0, 48, 50
1, 572988, Note_off_c, 0, 73, 65
1, 573008, Note_off_c, 0, 57, 63
1, 573009, Note_off_c, 0, 53, 64
1, 573016, Note_on_c, 0, 74, 67
1, 573021, Note_off_c, 0, 50, 63
1, 573026, Note_off_c, 0, 48, 62
1, 573058, Note_off_c, 0, 74, 60
1, 573074, Note_on_c, 0, 75, 72
1, 573085, Note_on_c, 0, 57, 63
1, 573099, Note_off_c, 0, 75, 70
1, 573102, Note_on_c, 0, 53, 51
1, 573103, Note_on_c, 0, 48, 49
1, 573103, Note_on_c, 0, 50, 49
1, 573117, Note_off_c, 0, 57, 62
1, 573125, Note_off_c, 0, 53, 62
1, 573135, Note_off_c, 0, 50, 63
1, 573136, Note_on_c, 0, 76, 72
1, 573144, Note_off_c, 0, 48, 63
1, 573191, Note_off_c, 0, 76, 60
1, 573194, Note_on_c, 0, 57, 64
1, 573196, Note_on_c, 0, 53, 72
1, 573198, Note_on_c, 0, 77, 70
1, 573212, Note_on_c, 0, 50, 57
1, 573223, Note_off_c, 0, 57, 64
1, 573224, Note_on_c, 0, 48, 26
1, 573236, Note_off_c, 0, 53, 63
1, 573241, Note_on_c, 0, 78, 71
1, 573248, Note_off_c, 0, 77, 61
1, 573252, Note_off_c, 0, 50, 64
1, 573253, Note_off_c, 0, 48, 47
1, 573301, Note_off_c, 0, 78, 64
1, 573302, Note_on_c, 0, 79, 66
1, 573322, Note_on_c, 0, 55, 87
1, 573326, Note_on_c, 0, 53, 82
1, 573331, Control_c, 0, 64, 43
1, 573334, Note_on_c, 0, 47, 68
1, 573335, Note_on_c, 0, 50, 61
1, 573346, Control_c, 0, 64, 70
1, 573353, Note_off_c, 0, 79, 58
1, 573361, Control_c, 0, 64, 81
1, 573376, Control_c, 0, 64, 94
1, 573379, Note_on_c, 0, 78, 72
1, 573391, Control_c, 0, 64, 102
1, 573405, Control_c, 0, 64, 104
1, 573420, Control_c, 0, 64, 106
1, 573424, Note_off_c, 0, 78, 55
1, 573435, Control_c, 0, 64, 107
1, 573436, Note_off_c, 0, 47, 58
1, 573450, Note_on_c, 0, 81, 73
1, 573450, Control_c, 0, 64, 108
1, 573465, Control_c, 0, 64, 110
1, 573468, Note_off_c, 0, 55, 58
1, 573479, Control_c, 0, 64, 111
1, 573494, Control_c, 0, 64, 111
1, 573507, Note_on_c, 0, 79, 63
1, 573509, Note_off_c, 0, 50, 54
1, 573528, Note_off_c, 0, 81, 53
1, 573548, Note_off_c, 0, 53, 63
1, 573554, Control_c, 0, 64, 109
1, 573567, Note_off_c, 0, 79, 61
1, 573569, Control_c, 0, 64, 97
1, 573584, Note_on_c, 0, 48, 78
1, 573584, Control_c, 0, 64, 78
1, 573585, Note_on_c, 0, 55, 78
1, 573591, Note_on_c, 0, 76, 69
1, 573591, Note_on_c, 0, 52, 67
1, 573599, Control_c, 0, 64, 55
1, 573609, Note_off_c, 0, 55, 71
1, 573612, Note_off_c, 0, 52, 64
1, 573614, Control_c, 0, 64, 0
1, 573615, Note_off_c, 0, 48, 68
1, 573639, Note_off_c, 0, 76, 66
1, 573643, Note_on_c, 0, 79, 66
1, 573716, Note_on_c, 0, 77, 70
1, 573730, Note_off_c, 0, 79, 55
1, 573769, Note_on_c, 0, 76, 68
1, 573776, Note_off_c, 0, 77, 60
1, 573829, Note_off_c, 0, 76, 66
1, 573833, Note_on_c, 0, 56, 71
1, 573836, Note_on_c, 0, 59, 69
1, 573844, Note_on_c, 0, 74, 58
1, 573860, Note_off_c, 0, 59, 66
1, 573862, Note_off_c, 0, 56, 68
1, 573876, Note_off_c, 0, 74, 64
1, 573901, Note_on_c, 0, 77, 60
1, 573949, Note_off_c, 0, 77, 54
1, 573949, Note_on_c, 0, 76, 70
1, 574008, Note_off_c, 0, 76, 65
1, 574009, Note_on_c, 0, 74, 61
1, 574059, Note_off_c, 0, 74, 65
1, 574071, Note_on_c, 0, 60, 74
1, 574074, Note_on_c, 0, 72, 52
1, 574077, Note_on_c, 0, 57, 71
1, 574099, Note_off_c, 0, 60, 63
1, 574103, Note_off_c, 0, 72, 58
1, 574108, Note_off_c, 0, 57, 63
1, 574121, Note_on_c, 0, 76, 70
1, 574174, Note_off_c, 0, 76, 64
1, 574178, Note_on_c, 0, 74, 71
1, 574218, Note_off_c, 0, 74, 65
1, 574219, Note_on_c, 0, 72, 55
1, 574276, Note_off_c, 0, 72, 62
1, 574298, Note_on_c, 0, 83, 80
1, 574305, Note_on_c, 0, 57, 79
1, 574307, Note_on_c, 0, 62, 78
1, 574308, Note_on_c, 0, 53, 73
1, 574333, Note_off_c, 0, 62, 65
1, 574342, Note_off_c, 0, 57, 61
1, 574348, Note_off_c, 0, 53, 62
1, 574371, Note_off_c, 0, 83, 54
1, 574372, Note_on_c, 0, 81, 73
1, 574426, Note_on_c, 0, 77, 63
1, 574458, Note_off_c, 0, 81, 60
1, 574491, Note_on_c, 0, 74, 64
1, 574503, Note_off_c, 0, 77, 59
1, 574553, Note_off_c, 0, 74, 61
1, 574562, Note_on_c, 0, 81, 83
1, 574563, Note_on_c, 0, 64, 83
1, 574565, Note_on_c, 0, 55, 75
1, 574565, Note_on_c, 0, 60, 79
1, 574587, Note_off_c, 0, 64, 66
1, 574596, Note_off_c, 0, 60, 60
1, 574615, Note_off_c, 0, 55, 65
1, 574626, Note_off_c, 0, 81, 56
1, 574631, Note_on_c, 0, 79, 72
1, 574676, Note_on_c, 0, 76, 64
1, 574707, Note_off_c, 0, 79, 59
1, 574727, Note_on_c, 0, 72, 61
1, 574735, Note_off_c, 0, 76, 63
1, 574768, Note_off_c, 0, 72, 58
1, 574789, Note_on_c, 0, 79, 82
1, 574798, Note_on_c, 0, 65, 83
1, 574799, Note_on_c, 0, 62, 79
1, 574804, Note_on_c, 0, 55, 73
1, 574819, Note_off_c, 0, 65, 73
1, 574837, Note_off_c, 0, 62, 64
1, 574854, Note_on_c, 0, 57, 27
1, 574854, Note_on_c, 0, 77, 64
1, 574854, Note_off_c, 0, 79, 57
1, 574867, Note_off_c, 0, 55, 65
1, 574888, Note_off_c, 0, 57, 40
1, 574897, Note_on_c, 0, 74, 68
1, 574935, Note_off_c, 0, 77, 62
1, 574956, Note_on_c, 0, 71, 69
1, 574960, Note_off_c, 0, 74, 64
1, 574982, Note_off_c, 0, 71, 65
1, 575052, Note_on_c, 0, 72, 74
1, 575060, Note_on_c, 0, 36, 76
1, 575061, Note_on_c, 0, 48, 80
1, 575081, Control_c, 0, 64, 61
1, 575094, Note_off_c, 0, 36, 64
1, 575095, Control_c, 0, 64, 75
1, 575099, Note_on_c, 0, 67, 74
1, 575099, Note_off_c, 0, 48, 67
1, 575104, Note_off_c, 0, 72, 61
1, 575110, Control_c, 0, 64, 93
1, 575126, Control_c, 0, 64, 113
1, 575141, Control_c, 0, 64, 124
1, 575156, Control_c, 0, 64, 126
1, 575162, Note_on_c, 0, 64, 67
1, 575168, Note_off_c, 0, 67, 62
1, 575171, Control_c, 0, 64, 126
1, 575186, Control_c, 0, 64, 127
1, 575207, Control_c, 0, 64, 127
1, 575221, Note_off_c, 0, 64, 50
1, 575235, Note_on_c, 0, 60, 69
1, 575268, Note_off_c, 0, 60, 56
1, 575322, Note_on_c, 0, 48, 64
1, 575327, Note_on_c, 0, 59, 62
1, 575334, Note_on_c, 0, 52, 47
1, 575350, Note_off_c, 0, 48, 66
1, 575353, Note_off_c, 0, 59, 64
1, 575359, Note_off_c, 0, 52, 59
1, 575363, Note_on_c, 0, 60, 42
1, 575401, Note_off_c, 0, 60, 62
1, 575424, Note_on_c, 0, 48, 72
1, 575430, Control_c, 0, 64, 123
1, 575430, Note_on_c, 0, 72, 71
1, 575445, Control_c, 0, 64, 114
1, 575452, Note_off_c, 0, 48, 65
1, 575454, Note_off_c, 0, 72, 70
1, 575460, Control_c, 0, 64, 99
1, 575466, Note_on_c, 0, 60, 68
1, 575474, Control_c, 0, 64, 81
1, 575489, Control_c, 0, 64, 0
1, 575494, Note_off_c, 0, 60, 62
1, 575500, Poly_aftertouch_c, 0, 52, 0
1, 575555, Note_on_c, 0, 48, 86
1, 575560, Note_on_c, 0, 36, 76
1, 575561, Note_on_c, 0, 76, 63
1, 575591, Note_off_c, 0, 36, 62
1, 575593, Control_c, 0, 64, 63
1, 575607, Control_c, 0, 64, 76
1, 575610, Note_off_c, 0, 76, 65
1, 575619, Note_off_c, 0, 48, 59
1, 575621, Note_on_c, 0, 71, 69
1, 575622, Control_c, 0, 64, 90
1, 575637, Control_c, 0, 64, 106
1, 575652, Control_c, 0, 64, 113
1, 575665, Note_on_c, 0, 67, 71
1, 575667, Control_c, 0, 64, 114
1, 575681, Control_c, 0, 64, 115
1, 575683, Note_off_c, 0, 71, 61
1, 575694, Note_off_c, 0, 67, 63
1, 575696, Control_c, 0, 64, 117
1, 575711, Control_c, 0, 64, 120
1, 575725, Control_c, 0, 64, 123
1, 575735, Note_on_c, 0, 64, 53
1, 575740, Control_c, 0, 64, 125
1, 575755, Control_c, 0, 64, 126
1, 575783, Note_off_c, 0, 64, 45
1, 575805, Note_on_c, 0, 63, 74
1, 575808, Note_on_c, 0, 48, 70
1, 575827, Note_on_c, 0, 52, 44
1, 575835, Note_off_c, 0, 63, 64
1, 575849, Note_off_c, 0, 48, 54
1, 575853, Note_off_c, 0, 52, 55
1, 575854, Note_on_c, 0, 64, 69
1, 575874, Control_c, 0, 64, 125
1, 575889, Control_c, 0, 64, 124
1, 575893, Note_off_c, 0, 64, 63
1, 575904, Control_c, 0, 64, 119
1, 575919, Control_c, 0, 64, 109
1, 575923, Note_on_c, 0, 48, 61
1, 575923, Note_on_c, 0, 76, 66
1, 575933, Note_on_c, 0, 52, 62
1, 575934, Control_c, 0, 64, 94
1, 575937, Note_on_c, 0, 77, 63
1, 575956, Control_c, 0, 64, 75
1, 575959, Note_off_c, 0, 52, 66
1, 575962, Note_off_c, 0, 77, 42
1, 575967, Note_off_c, 0, 76, 65
1, 575968, Note_off_c, 0, 48, 58
1, 575971, Control_c, 0, 64, 0
1, 575987, Note_on_c, 0, 64, 73
1, 576010, Note_off_c, 0, 64, 69
1, 576063, Note_on_c, 0, 48, 88
1, 576067, Note_on_c, 0, 36, 76
1, 576069, Note_on_c, 0, 79, 72
1, 576075, Control_c, 0, 64, 60
1, 576090, Control_c, 0, 64, 75
1, 576103, Note_off_c, 0, 36, 66
1, 576104, Control_c, 0, 64, 89
1, 576106, Note_on_c, 0, 76, 76
1, 576116, Note_off_c, 0, 79, 61
1, 576119, Control_c, 0, 64, 105
1, 576134, Control_c, 0, 64, 112
1, 576143, Note_off_c, 0, 48, 61
1, 576148, Control_c, 0, 64, 112
1, 576163, Control_c, 0, 64, 113
1, 576172, Note_on_c, 0, 72, 70
1, 576178, Control_c, 0, 64, 113
1, 576187, Note_off_c, 0, 76, 63
1, 576193, Control_c, 0, 64, 114
1, 576202, Note_off_c, 0, 72, 62
1, 576208, Control_c, 0, 64, 116
1, 576223, Control_c, 0, 64, 119
1, 576236, Note_on_c, 0, 67, 52
1, 576238, Control_c, 0, 64, 121
1, 576253, Control_c, 0, 64, 123
1, 576259, Note_off_c, 0, 67, 62
1, 576268, Control_c, 0, 64, 124
1, 576314, Note_on_c, 0, 66, 69
1, 576324, Note_on_c, 0, 48, 64
1, 576329, Note_on_c, 0, 52, 53
1, 576342, Note_off_c, 0, 66, 69
1, 576351, Note_on_c, 0, 67, 67
1, 576354, Note_off_c, 0, 48, 65
1, 576354, Note_off_c, 0, 52, 64
1, 576400, Note_off_c, 0, 67, 63
1, 576428, Note_on_c, 0, 79, 65
1, 576430, Control_c, 0, 64, 119
1, 576435, Note_on_c, 0, 52, 63
1, 576438, Note_on_c, 0, 48, 70
1, 576444, Note_on_c, 0, 81, 69
1, 576445, Control_c, 0, 64, 105
1, 576455, Note_off_c, 0, 79, 52
1, 576459, Note_off_c, 0, 81, 65
1, 576460, Control_c, 0, 64, 89
1, 576464, Note_off_c, 0, 52, 68
1, 576470, Note_off_c, 0, 48, 67
1, 576475, Control_c, 0, 64, 70
1, 576490, Control_c, 0, 64, 0
1, 576492, Note_on_c, 0, 67, 71
1, 576514, Note_off_c, 0, 67, 66
1, 576565, Note_on_c, 0, 48, 85
1, 576565, Note_on_c, 0, 84, 78
1, 576568, Note_on_c, 0, 36, 71
1, 576578, Control_c, 0, 64, 53
1, 576593, Control_c, 0, 64, 72
1, 576597, Note_off_c, 0, 36, 65
1, 576608, Control_c, 0, 64, 86
1, 576619, Note_off_c, 0, 48, 61
1, 576621, Note_off_c, 0, 84, 61
1, 576622, Control_c, 0, 64, 101
1, 576623, Note_on_c, 0, 79, 74
1, 576637, Control_c, 0, 64, 110
1, 576652, Control_c, 0, 64, 111
1, 576667, Control_c, 0, 64, 111
1, 576682, Control_c, 0, 64, 112
1, 576683, Note_on_c, 0, 76, 75
1, 576701, Note_off_c, 0, 79, 62
1, 576704, Control_c, 0, 64, 113
1, 576720, Control_c, 0, 64, 114
1, 576726, Note_off_c, 0, 76, 62
1, 576735, Control_c, 0, 64, 116
1, 576748, Note_on_c, 0, 72, 58
1, 576750, Control_c, 0, 64, 117
1, 576765, Control_c, 0, 64, 118
1, 576773, Note_off_c, 0, 72, 59
1, 576817, Note_on_c, 0, 48, 58
1, 576817, Note_on_c, 0, 71, 68
1, 576822, Note_on_c, 0, 52, 54
1, 576846, Note_off_c, 0, 48, 67
1, 576846, Note_off_c, 0, 52, 63
1, 576847, Note_off_c, 0, 71, 62
1, 576873, Note_on_c, 0, 72, 60
1, 576899, Control_c, 0, 64, 115
1, 576905, Note_off_c, 0, 72, 67
1, 576914, Control_c, 0, 64, 108
1, 576923, Note_on_c, 0, 48, 67
1, 576926, Note_on_c, 0, 52, 65
1, 576928, Control_c, 0, 64, 96
1, 576935, Note_on_c, 0, 84, 76
1, 576943, Control_c, 0, 64, 86
1, 576953, Note_off_c, 0, 48, 64
1, 576956, Note_off_c, 0, 84, 72
1, 576957, Note_off_c, 0, 52, 66
1, 576958, Control_c, 0, 64, 77
1, 576972, Control_c, 0, 64, 69
1, 576987, Control_c, 0, 64, 57
1, 576993, Note_on_c, 0, 72, 67
1, 577002, Control_c, 0, 64, 0
1, 577016, Note_off_c, 0, 72, 71
1, 577050, Note_on_c, 0, 52, 68
1, 577051, Note_on_c, 0, 84, 66
1, 577060, Note_on_c, 0, 48, 67
1, 577061, Note_on_c, 0, 45, 65
1, 577081, Note_off_c, 0, 52, 63
1, 577089, Note_off_c, 0, 48, 65
1, 577096, Note_off_c, 0, 84, 64
1, 577099, Note_off_c, 0, 45, 63
1, 577106, Note_on_c, 0, 83, 71
1, 577170, Note_on_c, 0, 81, 69
1, 577177, Note_off_c, 0, 83, 49
1, 577180, Note_on_c, 0, 48, 65
1, 577183, Note_on_c, 0, 45, 62
1, 577185, Note_on_c, 0, 52, 62
1, 577213, Note_off_c, 0, 48, 65
1, 577216, Note_off_c, 0, 52, 67
1, 577219, Note_off_c, 0, 45, 62
1, 577221, Note_on_c, 0, 80, 73
1, 577222, Note_off_c, 0, 81, 61
1, 577283, Note_off_c, 0, 80, 63
1, 577298, Note_on_c, 0, 52, 67
1, 577300, Note_on_c, 0, 81, 60
1, 577302, Note_on_c, 0, 48, 66
1, 577303, Note_on_c, 0, 45, 63
1, 577329, Note_off_c, 0, 52, 66
1, 577335, Note_off_c, 0, 48, 66
1, 577339, Note_off_c, 0, 45, 62
1, 577344, Note_off_c, 0, 81, 61
1, 577349, Note_on_c, 0, 83, 75
1, 577416, Note_on_c, 0, 84, 74
1, 577418, Note_off_c, 0, 83, 58
1, 577428, Note_on_c, 0, 48, 65
1, 577429, Note_on_c, 0, 45, 62
1, 577432, Note_on_c, 0, 52, 64
1, 577469, Note_off_c, 0, 48, 65
1, 577470, Note_off_c, 0, 52, 65
1, 577472, Note_off_c, 0, 45, 62
1, 577484, Note_off_c, 0, 84, 65
1, 577485, Note_on_c, 0, 86, 62
1, 577541, Note_on_c, 0, 88, 72
1, 577542, Note_off_c, 0, 86, 63
1, 577558, Note_on_c, 0, 52, 67
1, 577559, Note_on_c, 0, 45, 64
1, 577561, Note_on_c, 0, 48, 63
1, 577570, Note_off_c, 0, 88, 60
1, 577591, Note_off_c, 0, 52, 66
1, 577591, Note_off_c, 0, 48, 65
1, 577598, Note_off_c, 0, 45, 62
1, 577606, Note_on_c, 0, 86, 69
1, 577666, Note_on_c, 0, 84, 68
1, 577678, Note_on_c, 0, 48, 62
1, 577678, Note_on_c, 0, 52, 69
1, 577678, Note_off_c, 0, 86, 58
1, 577678, Note_on_c, 0, 45, 63
1, 577710, Note_off_c, 0, 52, 65
1, 577714, Note_off_c, 0, 48, 65
1, 577715, Note_on_c, 0, 83, 67
1, 577718, Note_off_c, 0, 84, 64
1, 577722, Note_off_c, 0, 45, 63
1, 577762, Note_off_c, 0, 83, 61
1, 577785, Note_on_c, 0, 84, 62
1, 577795, Note_on_c, 0, 48, 62
1, 577797, Note_on_c, 0, 52, 62
1, 577809, Note_on_c, 0, 45, 51
1, 577825, Note_off_c, 0, 52, 66
1, 577828, Note_off_c, 0, 48, 65
1, 577831, Note_off_c, 0, 84, 62
1, 577839, Note_on_c, 0, 86, 73
1, 577842, Note_off_c, 0, 45, 65
1, 577890, Note_on_c, 0, 88, 71
1, 577906, Note_off_c, 0, 86, 59
1, 577908, Note_on_c, 0, 48, 63
1, 577908, Note_on_c, 0, 52, 59
1, 577930, Note_on_c, 0, 45, 45
1, 577943, Note_on_c, 0, 89, 67
1, 577943, Note_off_c, 0, 52, 65
1, 577944, Note_off_c, 0, 48, 64
1, 577949, Note_off_c, 0, 88, 63
1, 577957, Note_off_c, 0, 45, 58
1, 578000, Note_off_c, 0, 89, 62
1, 578011, Note_on_c, 0, 91, 79
1, 578029, Note_on_c, 0, 53, 79
1, 578034, Note_on_c, 0, 50, 70
1, 578036, Note_on_c, 0, 43, 69
1, 578047, Control_c, 0, 64, 57
1, 578061, Control_c, 0, 64, 73
1, 578072, Note_off_c, 0, 91, 58
1, 578074, Note_on_c, 0, 89, 73
1, 578076, Control_c, 0, 64, 91
1, 578091, Control_c, 0, 64, 111
1, 578106, Control_c, 0, 64, 124
1, 578120, Control_c, 0, 64, 125
1, 578131, Note_on_c, 0, 86, 77
1, 578135, Control_c, 0, 64, 126
1, 578142, Note_off_c, 0, 89, 60
1, 578150, Control_c, 0, 64, 127
1, 578183, Note_on_c, 0, 83, 68
1, 578202, Note_off_c, 0, 86, 63
1, 578237, Note_off_c, 0, 83, 61
1, 578247, Note_on_c, 0, 79, 64
1, 578274, Note_off_c, 0, 79, 66
1, 578319, Note_on_c, 0, 77, 77
1, 578375, Note_on_c, 0, 74, 66
1, 578387, Note_off_c, 0, 77, 57
1, 578429, Note_on_c, 0, 71, 67
1, 578432, Note_off_c, 0, 74, 65
1, 578473, Note_off_c, 0, 71, 60
1, 578492, Note_on_c, 0, 67, 57
1, 578517, Note_off_c, 0, 67, 61
1, 578555, Note_on_c, 0, 66, 77
1, 578613, Note_on_c, 0, 67, 58
1, 578617, Control_c, 0, 64, 125
1, 578625, Note_off_c, 0, 66, 64
1, 578632, Control_c, 0, 64, 116
1, 578647, Control_c, 0, 64, 105
1, 578658, Note_off_c, 0, 67, 63
1, 578662, Note_on_c, 0, 69, 63
1, 578662, Control_c, 0, 64, 95
1, 578677, Control_c, 0, 64, 86
1, 578691, Control_c, 0, 64, 78
1, 578700, Note_off_c, 0, 69, 57
1, 578706, Control_c, 0, 64, 71
1, 578721, Note_on_c, 0, 67, 54
1, 578721, Control_c, 0, 64, 63
1, 578736, Control_c, 0, 64, 41
1, 578751, Control_c, 0, 64, 0
1, 578771, Note_on_c, 0, 65, 65
1, 578781, Note_off_c, 0, 53, 54
1, 578800, Note_off_c, 0, 67, 59
1, 578815, Note_on_c, 0, 62, 65
1, 578825, Note_off_c, 0, 65, 64
1, 578864, Note_off_c, 0, 62, 61
1, 578876, Note_on_c, 0, 59, 58
1, 578911, Note_off_c, 0, 59, 60
1, 578960, Note_on_c, 0, 52, 74
1, 578962, Note_on_c, 0, 48, 68
1, 578962, Note_on_c, 0, 60, 55
1, 578966, Note_off_c, 0, 50, 59
1, 578991, Note_off_c, 0, 43, 36
1, 578995, Note_off_c, 0, 60, 59
1, 579012, Note_on_c, 0, 59, 54
1, 579037, Note_off_c, 0, 52, 61
1, 579040, Note_off_c, 0, 59, 63
1, 579067, Note_on_c, 0, 62, 65
1, 579072, Note_off_c, 0, 48, 56
1, 579107, Note_off_c, 0, 62, 57
1, 579127, Note_on_c, 0, 60, 63
1, 579162, Note_off_c, 0, 60, 59
1, 579190, Note_on_c, 0, 64, 64
1, 579242, Note_off_c, 0, 64, 59
1, 579246, Note_on_c, 0, 63, 58
1, 579284, Note_off_c, 0, 63, 64
1, 579288, Note_on_c, 0, 65, 60
1, 579320, Note_off_c, 0, 65, 65
1, 579360, Note_on_c, 0, 64, 62
1, 579393, Note_off_c, 0, 64, 56
1, 579417, Note_on_c, 0, 67, 62
1, 579459, Note_off_c, 0, 67, 58
1, 579463, Note_on_c, 0, 66, 66
1, 579502, Note_off_c, 0, 66, 65
1, 579510, Note_on_c, 0, 69, 60
1, 579538, Note_off_c, 0, 69, 67
1, 579570, Note_on_c, 0, 67, 68
1, 579599, Note_off_c, 0, 67, 66
1, 579625, Note_on_c, 0, 72, 69
1, 579666, Note_off_c, 0, 72, 54
1, 579714, Note_on_c, 0, 71, 55
1, 579735, Note_off_c, 0, 71, 59
1, 579768, Note_on_c, 0, 74, 49
1, 579790, Note_off_c, 0, 74, 58
1, 579807, Note_on_c, 0, 72, 67
1, 579857, Note_off_c, 0, 72, 61
1, 579887, Note_on_c, 0, 76, 57
1, 579937, Note_off_c, 0, 76, 58
1, 579940, Note_on_c, 0, 75, 57
1, 579977, Note_off_c, 0, 75, 65
1, 579985, Note_on_c, 0, 77, 58
1, 580024, Note_off_c, 0, 77, 58
1, 580053, Note_on_c, 0, 76, 57
1, 580086, Note_off_c, 0, 76, 56
1, 580109, Note_on_c, 0, 79, 59
1, 580153, Note_off_c, 0, 79, 54
1, 580157, Note_on_c, 0, 78, 66
1, 580193, Note_off_c, 0, 78, 62
1, 580204, Note_on_c, 0, 81, 62
1, 580232, Note_off_c, 0, 81, 63
1, 580268, Note_on_c, 0, 79, 60
1, 580301, Note_off_c, 0, 79, 47
1, 580320, Note_on_c, 0, 84, 64
1, 580372, Note_off_c, 0, 84, 60
1, 580380, Note_on_c, 0, 83, 65
1, 580421, Note_off_c, 0, 83, 60
1, 580451, Note_on_c, 0, 86, 48
1, 580490, Note_off_c, 0, 86, 63
1, 580498, Note_on_c, 0, 84, 53
1, 580522, Note_off_c, 0, 84, 59
1, 580538, Note_on_c, 0, 88, 72
1, 580594, Note_on_c, 0, 86, 66
1, 580599, Note_off_c, 0, 88, 60
1, 580650, Note_on_c, 0, 84, 65
1, 580676, Note_off_c, 0, 86, 59
1, 580717, Note_on_c, 0, 83, 63
1, 580718, Note_off_c, 0, 84, 64
1, 580763, Note_off_c, 0, 83, 61
1, 580773, Note_on_c, 0, 81, 61
1, 580778, Note_on_c, 0, 76, 63
1, 580785, Note_on_c, 0, 72, 58
1, 580830, Note_off_c, 0, 81, 52
1, 580833, Note_on_c, 0, 84, 71
1, 580892, Note_on_c, 0, 83, 64
1, 580905, Note_off_c, 0, 84, 56
1, 580945, Note_on_c, 0, 81, 67
1, 580959, Note_off_c, 0, 83, 60
1, 580992, Note_off_c, 0, 76, 64
1, 580995, Note_off_c, 0, 72, 62
1, 581001, Note_off_c, 0, 81, 61
1, 581015, Note_on_c, 0, 74, 62
1, 581016, Note_on_c, 0, 71, 59
1, 581017, Note_on_c, 0, 79, 56
1, 581064, Note_off_c, 0, 79, 53
1, 581078, Note_on_c, 0, 83, 63
1, 581140, Note_on_c, 0, 81, 66
1, 581143, Note_off_c, 0, 83, 56
1, 581204, Note_on_c, 0, 79, 62
1, 581208, Note_off_c, 0, 81, 60
1, 581242, Note_off_c, 0, 71, 63
1, 581256, Note_off_c, 0, 79, 62
1, 581261, Note_off_c, 0, 74, 56
1, 581270, Note_on_c, 0, 72, 69
1, 581271, Note_on_c, 0, 77, 59
1, 581280, Note_on_c, 0, 69, 58
1, 581314, Note_off_c, 0, 77, 54
1, 581331, Note_on_c, 0, 81, 66
1, 581390, Note_on_c, 0, 79, 65
1, 581401, Note_off_c, 0, 81, 51
1, 581445, Note_on_c, 0, 77, 59
1, 581457, Note_off_c, 0, 79, 62
1, 581499, Note_off_c, 0, 77, 62
1, 581507, Note_off_c, 0, 69, 63
1, 581508, Note_off_c, 0, 72, 62
1, 581513, Note_on_c, 0, 76, 60
1, 581526, Note_on_c, 0, 67, 62
1, 581526, Note_on_c, 0, 71, 62
1, 581554, Note_off_c, 0, 76, 57
1, 581581, Note_on_c, 0, 79, 61
1, 581633, Note_off_c, 0, 79, 54
1, 581636, Note_on_c, 0, 77, 61
1, 581691, Note_on_c, 0, 76, 61
1, 581704, Note_off_c, 0, 77, 60
1, 581741, Note_off_c, 0, 67, 64
1, 581746, Note_off_c, 0, 76, 65
1, 581756, Note_off_c, 0, 71, 56
1, 581759, Note_on_c, 0, 74, 60
1, 581764, Note_on_c, 0, 69, 67
1, 581771, Note_on_c, 0, 65, 55
1, 581812, Note_off_c, 0, 74, 63
1, 581824, Note_on_c, 0, 77, 64
1, 581881, Note_on_c, 0, 76, 65
1, 581890, Note_off_c, 0, 77, 51
1, 581946, Note_on_c, 0, 74, 61
1, 581957, Note_off_c, 0, 76, 66
1, 581995, Note_off_c, 0, 69, 63
1, 581997, Note_off_c, 0, 65, 63
1, 581999, Note_off_c, 0, 74, 65
1, 582012, Note_on_c, 0, 72, 61
1, 582015, Note_on_c, 0, 67, 62
1, 582019, Note_on_c, 0, 64, 58
1, 582054, Note_off_c, 0, 72, 60
1, 582074, Note_on_c, 0, 76, 64
1, 582128, Note_on_c, 0, 74, 63
1, 582143, Note_off_c, 0, 76, 54
1, 582186, Note_on_c, 0, 72, 62
1, 582198, Note_off_c, 0, 74, 65
1, 582232, Note_off_c, 0, 64, 64
1, 582232, Note_off_c, 0, 67, 59
1, 582239, Note_off_c, 0, 72, 64
1, 582250, Note_on_c, 0, 65, 58
1, 582253, Note_on_c, 0, 71, 61
1, 582257, Note_on_c, 0, 62, 57
1, 582295, Note_off_c, 0, 71, 58
1, 582315, Note_on_c, 0, 74, 59
1, 582367, Note_on_c, 0, 72, 65
1, 582381, Note_off_c, 0, 74, 54
1, 582423, Note_on_c, 0, 71, 61
1, 582430, Note_off_c, 0, 72, 64
1, 582468, Note_off_c, 0, 62, 60
1, 582471, Note_off_c, 0, 71, 61
1, 582473, Note_off_c, 0, 65, 61
1, 582480, Note_on_c, 0, 64, 62
1, 582488, Note_on_c, 0, 69, 61
1, 582492, Note_on_c, 0, 60, 56
1, 582525, Note_off_c, 0, 69, 63
1, 582548, Note_on_c, 0, 72, 61
1, 582591, Note_off_c, 0, 64, 62
1, 582595, Note_off_c, 0, 60, 58
1, 582596, Note_on_c, 0, 71, 63
1, 582599, Note_off_c, 0, 72, 63
1, 582639, Note_off_c, 0, 71, 60
1, 582651, Note_on_c, 0, 69, 68
1, 582703, Note_off_c, 0, 69, 58
1, 582727, Note_on_c, 0, 65, 61
1, 582729, Note_on_c, 0, 68, 59
1, 582733, Note_on_c, 0, 62, 52
1, 582758, Note_off_c, 0, 65, 67
1, 582764, Note_off_c, 0, 68, 66
1, 582766, Note_off_c, 0, 62, 56
1, 582784, Note_on_c, 0, 71, 54
1, 582832, Note_on_c, 0, 69, 62
1, 582835, Note_on_c, 0, 65, 62
1, 582842, Note_off_c, 0, 71, 54
1, 582858, Note_on_c, 0, 62, 47
1, 582866, Note_off_c, 0, 65, 67
1, 582880, Note_off_c, 0, 69, 64
1, 582881, Note_on_c, 0, 68, 68
1, 582884, Note_off_c, 0, 62, 55
1, 582939, Note_off_c, 0, 68, 63
1, 582954, Note_on_c, 0, 69, 54
1, 582961, Note_on_c, 0, 64, 61
1, 582963, Note_on_c, 0, 60, 59
1, 582992, Note_off_c, 0, 69, 66
1, 583006, Note_on_c, 0, 76, 63
1, 583059, Note_off_c, 0, 76, 62
1, 583064, Note_on_c, 0, 72, 63
1, 583085, Note_off_c, 0, 64, 64
1, 583097, Note_off_c, 0, 60, 61
1, 583108, Note_off_c, 0, 72, 63
1, 583125, Note_on_c, 0, 69, 61
1, 583157, Note_off_c, 0, 69, 65
1, 583198, Note_on_c, 0, 66, 59
1, 583211, Note_on_c, 0, 63, 58
1, 583222, Note_on_c, 0, 60, 54
1, 583237, Note_off_c, 0, 63, 65
1, 583240, Note_off_c, 0, 66, 64
1, 583246, Note_on_c, 0, 69, 69
1, 583255, Note_off_c, 0, 60, 64
1, 583311, Note_on_c, 0, 67, 60
1, 583321, Note_on_c, 0, 63, 61
1, 583326, Note_off_c, 0, 69, 53
1, 583344, Note_on_c, 0, 60, 48
1, 583350, Note_off_c, 0, 63, 66
1, 583353, Note_off_c, 0, 67, 57
1, 583355, Note_on_c, 0, 66, 70
1, 583370, Note_off_c, 0, 60, 54
1, 583401, Note_off_c, 0, 66, 65
1, 583419, Note_on_c, 0, 67, 54
1, 583444, Note_on_c, 0, 62, 63
1, 583446, Note_on_c, 0, 59, 54
1, 583467, Note_off_c, 0, 67, 63
1, 583487, Note_on_c, 0, 74, 51
1, 583526, Note_off_c, 0, 74, 63
1, 583540, Note_on_c, 0, 71, 52
1, 583556, Note_off_c, 0, 59, 55
1, 583568, Note_off_c, 0, 62, 61
1, 583578, Note_off_c, 0, 71, 62
1, 583587, Note_on_c, 0, 67, 60
1, 583631, Note_off_c, 0, 67, 58
1, 583678, Note_on_c, 0, 69, 61
1, 583691, Note_on_c, 0, 64, 64
1, 583693, Note_on_c, 0, 60, 60
1, 583716, Note_off_c, 0, 69, 59
1, 583726, Note_on_c, 0, 68, 59
1, 583762, Note_off_c, 0, 68, 64
1, 583769, Note_on_c, 0, 71, 60
1, 583795, Note_off_c, 0, 71, 64
1, 583814, Control_c, 0, 64, 62
1, 583826, Note_on_c, 0, 69, 66
1, 583829, Control_c, 0, 64, 66
1, 583844, Control_c, 0, 64, 68
1, 583857, Note_off_c, 0, 69, 64
1, 583858, Control_c, 0, 64, 69
1, 583873, Control_c, 0, 64, 70
1, 583875, Note_on_c, 0, 72, 71
1, 583888, Control_c, 0, 64, 72
1, 583904, Control_c, 0, 64, 73
1, 583905, Note_off_c, 0, 72, 64
1, 583919, Control_c, 0, 64, 74
1, 583958, Note_on_c, 0, 71, 54
1, 583979, Note_off_c, 0, 71, 60
1, 583993, Control_c, 0, 64, 73
1, 584009, Note_on_c, 0, 74, 58
1, 584032, Note_off_c, 0, 74, 60
1, 584060, Note_on_c, 0, 72, 55
1, 584067, Control_c, 0, 64, 73
1, 584093, Note_off_c, 0, 72, 56
1, 584096, Control_c, 0, 64, 72
1, 584111, Control_c, 0, 64, 72
1, 584118, Note_on_c, 0, 76, 67
1, 584155, Control_c, 0, 64, 71
1, 584165, Note_off_c, 0, 76, 62
1, 584180, Note_on_c, 0, 75, 60
1, 584193, Control_c, 0, 64, 71
1, 584208, Control_c, 0, 64, 70
1, 584210, Note_on_c, 0, 78, 67
1, 584212, Note_off_c, 0, 75, 66
1, 584223, Control_c, 0, 64, 70
1, 584236, Note_off_c, 0, 78, 67
1, 584237, Control_c, 0, 64, 69
1, 584252, Control_c, 0, 64, 68
1, 584267, Control_c, 0, 64, 68
1, 584279, Note_on_c, 0, 76, 67
1, 584281, Control_c, 0, 64, 66
1, 584296, Control_c, 0, 64, 64
1, 584311, Control_c, 0, 64, 61
1, 584313, Note_off_c, 0, 76, 57
1, 584326, Control_c, 0, 64, 58
1, 584336, Note_on_c, 0, 81, 71
1, 584341, Control_c, 0, 64, 59
1, 584370, Control_c, 0, 64, 58
1, 584385, Control_c, 0, 64, 58
1, 584385, Note_off_c, 0, 81, 55
1, 584391, Note_on_c, 0, 80, 65
1, 584400, Control_c, 0, 64, 56
1, 584415, Control_c, 0, 64, 56
1, 584424, Note_off_c, 0, 80, 65
1, 584432, Note_on_c, 0, 83, 59
1, 584461, Note_off_c, 0, 83, 63
1, 584488, Control_c, 0, 64, 55
1, 584492, Note_on_c, 0, 81, 73
1, 584503, Control_c, 0, 64, 54
1, 584517, Note_off_c, 0, 81, 65
1, 584537, Note_on_c, 0, 84, 71
1, 584561, Note_off_c, 0, 84, 67
1, 584592, Control_c, 0, 64, 55
1, 584605, Note_on_c, 0, 83, 73
1, 584607, Control_c, 0, 64, 55
1, 584622, Control_c, 0, 64, 56
1, 584629, Note_off_c, 0, 83, 60
1, 584656, Note_on_c, 0, 86, 62
1, 584680, Note_off_c, 0, 86, 52
1, 584713, Note_on_c, 0, 84, 74
1, 584754, Note_off_c, 0, 84, 60
1, 584775, Note_on_c, 0, 88, 71
1, 584823, Note_off_c, 0, 88, 60
1, 584824, Note_off_c, 0, 64, 61
1, 584831, Note_on_c, 0, 87, 61
1, 584845, Control_c, 0, 64, 56
1, 584852, Note_off_c, 0, 60, 60
1, 584859, Note_off_c, 0, 87, 66
1, 584862, Note_on_c, 0, 90, 65
1, 584933, Note_on_c, 0, 88, 73
1, 584948, Note_off_c, 0, 90, 60
1, 584971, Control_c, 0, 64, 56
1, 584993, Note_off_c, 0, 88, 63
1, 584996, Note_on_c, 0, 86, 73
1, 585019, Note_off_c, 0, 86, 69
1, 585032, Note_on_c, 0, 84, 59
1, 585052, Note_off_c, 0, 84, 66
1, 585094, Note_on_c, 0, 83, 72
1, 585133, Control_c, 0, 64, 55
1, 585148, Control_c, 0, 64, 56
1, 585156, Note_off_c, 0, 83, 58
1, 585160, Note_on_c, 0, 81, 62
1, 585193, Control_c, 0, 64, 56
1, 585200, Note_off_c, 0, 81, 61
1, 585207, Note_on_c, 0, 80, 61
1, 585244, Note_off_c, 0, 80, 61
1, 585260, Note_on_c, 0, 81, 55
1, 585282, Control_c, 0, 64, 56
1, 585304, Note_off_c, 0, 81, 63
1, 585312, Note_on_c, 0, 83, 60
1, 585370, Note_on_c, 0, 81, 58
1, 585383, Note_off_c, 0, 83, 57
1, 585415, Note_off_c, 0, 81, 60
1, 585419, Note_on_c, 0, 79, 56
1, 585464, Note_off_c, 0, 79, 50
1, 585465, Note_on_c, 0, 60, 74
1, 585473, Note_on_c, 0, 57, 64
1, 585474, Control_c, 0, 64, 54
1, 585481, Note_on_c, 0, 78, 67
1, 585482, Note_on_c, 0, 50, 54
1, 585489, Control_c, 0, 64, 43
1, 585505, Control_c, 0, 64, 0
1, 585526, Note_off_c, 0, 78, 54
1, 585546, Note_on_c, 0, 83, 72
1, 585592, Note_off_c, 0, 83, 57
1, 585594, Control_c, 0, 67, 8
1, 585604, Note_on_c, 0, 81, 63
1, 585608, Control_c, 0, 67, 12
1, 585623, Control_c, 0, 67, 15
1, 585638, Control_c, 0, 67, 18
1, 585653, Control_c, 0, 67, 21
1, 585660, Note_on_c, 0, 79, 67
1, 585668, Control_c, 0, 64, 42
1, 585668, Control_c, 0, 67, 26
1, 585671, Note_off_c, 0, 81, 55
1, 585690, Control_c, 0, 64, 47
1, 585690, Control_c, 0, 67, 33
1, 585705, Control_c, 0, 64, 46
1, 585705, Control_c, 0, 67, 41
1, 585714, Note_on_c, 0, 78, 65
1, 585719, Note_off_c, 0, 79, 60
1, 585720, Control_c, 0, 67, 48
1, 585734, Control_c, 0, 67, 55
1, 585749, Control_c, 0, 67, 63
1, 585753, Note_off_c, 0, 78, 63
1, 585761, Note_on_c, 0, 76, 67
1, 585764, Control_c, 0, 67, 68
1, 585779, Control_c, 0, 67, 69
1, 585785, Note_off_c, 0, 76, 71
1, 585794, Control_c, 0, 64, 45
1, 585808, Control_c, 0, 64, 44
1, 585823, Control_c, 0, 64, 43
1, 585827, Note_on_c, 0, 74, 67
1, 585838, Control_c, 0, 64, 41
1, 585838, Control_c, 0, 67, 68
1, 585853, Control_c, 0, 64, 40
1, 585853, Control_c, 0, 67, 67
1, 585868, Control_c, 0, 67, 67
1, 585881, Note_on_c, 0, 72, 62
1, 585893, Note_off_c, 0, 74, 60
1, 585897, Control_c, 0, 67, 66
1, 585912, Control_c, 0, 67, 66
1, 585927, Control_c, 0, 64, 39
1, 585929, Note_on_c, 0, 71, 65
1, 585936, Note_off_c, 0, 72, 64
1, 585941, Control_c, 0, 67, 65
1, 585956, Control_c, 0, 64, 38
1, 585956, Control_c, 0, 67, 65
1, 585969, Note_off_c, 0, 71, 61
1, 585971, Control_c, 0, 64, 38
1, 585986, Control_c, 0, 64, 37
1, 585986, Control_c, 0, 67, 64
1, 585991, Note_on_c, 0, 69, 55
1, 586015, Control_c, 0, 64, 38
1, 586021, Note_off_c, 0, 69, 63
1, 586051, Note_on_c, 0, 67, 65
1, 586060, Control_c, 0, 64, 38
1, 586075, Control_c, 0, 67, 64
1, 586099, Note_off_c, 0, 67, 57
1, 586114, Note_on_c, 0, 66, 69
1, 586152, Note_off_c, 0, 66, 65
1, 586173, Note_on_c, 0, 65, 53
1, 586199, Note_off_c, 0, 65, 53
1, 586208, Control_c, 0, 67, 63
1, 586224, Note_on_c, 0, 66, 62
1, 586238, Control_c, 0, 67, 62
1, 586251, Note_off_c, 0, 66, 68
1, 586252, Control_c, 0, 64, 36
1, 586282, Control_c, 0, 64, 36
1, 586292, Note_on_c, 0, 67, 60
1, 586298, Control_c, 0, 67, 62
1, 586313, Control_c, 0, 64, 35
1, 586326, Note_off_c, 0, 67, 61
1, 586328, Control_c, 0, 67, 61
1, 586349, Note_on_c, 0, 68, 65
1, 586357, Control_c, 0, 67, 60
1, 586372, Control_c, 0, 67, 60
1, 586376, Note_off_c, 0, 68, 67
1, 586387, Control_c, 0, 64, 34
1, 586387, Control_c, 0, 67, 59
1, 586402, Control_c, 0, 67, 59
1, 586412, Note_on_c, 0, 69, 63
1, 586417, Control_c, 0, 67, 58
1, 586439, Control_c, 0, 64, 34
1, 586439, Control_c, 0, 67, 55
1, 586447, Note_off_c, 0, 69, 67
1, 586453, Control_c, 0, 64, 33
1, 586453, Control_c, 0, 67, 51
1, 586468, Control_c, 0, 64, 32
1, 586468, Control_c, 0, 67, 44
1, 586483, Control_c, 0, 67, 37
1, 586498, Control_c, 0, 67, 28
1, 586513, Control_c, 0, 67, 21
1, 586522, Note_on_c, 0, 71, 49
1, 586528, Control_c, 0, 67, 14
1, 586543, Control_c, 0, 67, 8
1, 586557, Control_c, 0, 67, 0
1, 586582, Note_off_c, 0, 71, 48
1, 586587, Control_c, 0, 64, 31
1, 586603, Control_c, 0, 64, 29
1, 586605, Note_on_c, 0, 72, 59
1, 586617, Control_c, 0, 64, 28
1, 586626, Note_off_c, 0, 72, 65
1, 586647, Control_c, 0, 64, 27
1, 586647, Note_on_c, 0, 73, 64
1, 586675, Note_off_c, 0, 73, 66
1, 586691, Control_c, 0, 64, 29
1, 586706, Control_c, 0, 64, 30
1, 586718, Note_on_c, 0, 74, 46
1, 586741, Note_off_c, 0, 74, 55
1, 586750, Control_c, 0, 64, 29
1, 586774, Note_on_c, 0, 75, 58
1, 586794, Note_off_c, 0, 75, 65
1, 586830, Note_on_c, 0, 76, 64
1, 586854, Control_c, 0, 64, 30
1, 586865, Note_off_c, 0, 76, 55
1, 586883, Control_c, 0, 64, 29
1, 586892, Note_on_c, 0, 77, 58
1, 586898, Control_c, 0, 64, 28
1, 586913, Control_c, 0, 64, 27
1, 586928, Control_c, 0, 64, 26
1, 586929, Note_off_c, 0, 77, 62
1, 586939, Note_on_c, 0, 78, 69
1, 586957, Note_off_c, 0, 60, 57
1, 586957, Control_c, 0, 64, 27
1, 586963, Note_off_c, 0, 78, 68
1, 586972, Control_c, 0, 64, 28
1, 586987, Control_c, 0, 64, 29
1, 586996, Note_off_c, 0, 57, 60
1, 587001, Note_on_c, 0, 79, 55
1, 587024, Note_off_c, 0, 79, 56
1, 587030, Note_off_c, 0, 50, 55
1, 587032, Control_c, 0, 64, 28
1, 587062, Control_c, 0, 64, 27
1, 587070, Note_on_c, 0, 80, 64
1, 587091, Control_c, 0, 64, 28
1, 587106, Control_c, 0, 64, 29
1, 587109, Note_off_c, 0, 80, 59
1, 587118, Note_on_c, 0, 81, 68
1, 587121, Control_c, 0, 64, 31
1, 587136, Control_c, 0, 64, 32
1, 587181, Note_on_c, 0, 83, 54
1, 587181, Note_off_c, 0, 81, 60
1, 587188, Control_c, 0, 64, 28
1, 587203, Control_c, 0, 64, 0
1, 587228, Note_off_c, 0, 83, 60
1, 587235, Note_on_c, 0, 84, 64
1, 587266, Note_off_c, 0, 84, 65
1, 587304, Note_on_c, 0, 43, 62
1, 587315, Note_on_c, 0, 85, 67
1, 587333, Note_off_c, 0, 43, 63
1, 587336, Control_c, 0, 64, 34
1, 587351, Control_c, 0, 64, 58
1, 587378, Note_off_c, 0, 85, 64
1, 587381, Control_c, 0, 64, 57
1, 587383, Note_on_c, 0, 86, 67
1, 587395, Control_c, 0, 64, 57
1, 587410, Control_c, 0, 64, 56
1, 587425, Control_c, 0, 64, 55
1, 587436, Note_on_c, 0, 50, 54
1, 587439, Note_off_c, 0, 86, 62
1, 587440, Control_c, 0, 64, 54
1, 587442, Note_on_c, 0, 88, 67
1, 587447, Note_on_c, 0, 59, 40
1, 587462, Note_off_c, 0, 50, 62
1, 587470, Control_c, 0, 64, 54
1, 587473, Note_off_c, 0, 88, 57
1, 587474, Note_off_c, 0, 59, 50
1, 587485, Control_c, 0, 64, 53
1, 587499, Control_c, 0, 64, 52
1, 587508, Note_on_c, 0, 86, 66
1, 587529, Control_c, 0, 64, 52
1, 587557, Note_on_c, 0, 50, 48
1, 587559, Control_c, 0, 64, 52
1, 587562, Note_on_c, 0, 59, 43
1, 587566, Note_on_c, 0, 84, 59
1, 587586, Note_off_c, 0, 86, 57
1, 587587, Note_off_c, 0, 59, 56
1, 587588, Control_c, 0, 64, 52
1, 587592, Note_off_c, 0, 50, 62
1, 587613, Note_off_c, 0, 84, 64
1, 587616, Note_on_c, 0, 83, 61
1, 587633, Control_c, 0, 64, 52
1, 587643, Note_off_c, 0, 83, 65
1, 587648, Control_c, 0, 64, 53
1, 587650, Note_on_c, 0, 81, 63
1, 587676, Note_on_c, 0, 50, 52
1, 587679, Note_off_c, 0, 81, 65
1, 587692, Control_c, 0, 64, 51
1, 587695, Note_on_c, 0, 59, 9
1, 587701, Note_off_c, 0, 50, 59
1, 587706, Control_c, 0, 64, 39
1, 587720, Note_off_c, 0, 59, 34
1, 587721, Note_on_c, 0, 79, 63
1, 587721, Control_c, 0, 64, 0
1, 587779, Note_on_c, 0, 43, 78
1, 587783, Note_off_c, 0, 79, 60
1, 587795, Note_on_c, 0, 78, 62
1, 587804, Note_off_c, 0, 43, 64
1, 587848, Note_on_c, 0, 79, 55
1, 587848, Note_off_c, 0, 78, 62
1, 587854, Control_c, 0, 64, 46
1, 587869, Control_c, 0, 64, 46
1, 587884, Control_c, 0, 64, 45
1, 587900, Control_c, 0, 64, 44
1, 587908, Note_on_c, 0, 52, 65
1, 587915, Note_off_c, 0, 79, 62
1, 587915, Control_c, 0, 64, 43
1, 587916, Note_on_c, 0, 81, 70
1, 587917, Note_on_c, 0, 60, 61
1, 587937, Control_c, 0, 64, 42
1, 587944, Note_off_c, 0, 60, 63
1, 587946, Note_off_c, 0, 52, 67
1, 587952, Control_c, 0, 64, 41
1, 587961, Note_off_c, 0, 81, 53
1, 587967, Control_c, 0, 64, 41
1, 587986, Note_on_c, 0, 79, 59
1, 588035, Note_on_c, 0, 60, 56
1, 588036, Note_on_c, 0, 78, 71
1, 588038, Note_on_c, 0, 52, 53
1, 588041, Note_off_c, 0, 79, 58
1, 588056, Control_c, 0, 64, 39
1, 588071, Note_off_c, 0, 52, 67
1, 588071, Control_c, 0, 64, 39
1, 588072, Note_off_c, 0, 60, 62
1, 588085, Control_c, 0, 64, 38
1, 588096, Note_on_c, 0, 76, 65
1, 588101, Note_off_c, 0, 78, 64
1, 588129, Control_c, 0, 64, 39
1, 588141, Note_off_c, 0, 76, 67
1, 588144, Control_c, 0, 64, 41
1, 588153, Note_on_c, 0, 52, 59
1, 588155, Note_on_c, 0, 74, 57
1, 588173, Control_c, 0, 64, 38
1, 588174, Note_off_c, 0, 74, 66
1, 588176, Note_off_c, 0, 52, 66
1, 588188, Control_c, 0, 64, 10
1, 588203, Control_c, 0, 64, 0
1, 588213, Note_on_c, 0, 72, 73
1, 588266, Note_on_c, 0, 43, 72
1, 588280, Note_off_c, 0, 72, 64
1, 588282, Note_on_c, 0, 71, 64
1, 588295, Note_off_c, 0, 43, 62
1, 588317, Note_off_c, 0, 71, 61
1, 588328, Note_on_c, 0, 69, 62
1, 588354, Note_off_c, 0, 69, 65
1, 588386, Note_on_c, 0, 72, 72
1, 588389, Note_on_c, 0, 54, 63
1, 588393, Note_on_c, 0, 60, 66
1, 588422, Note_off_c, 0, 60, 65
1, 588428, Note_off_c, 0, 54, 59
1, 588442, Note_off_c, 0, 72, 61
1, 588445, Note_on_c, 0, 71, 67
1, 588491, Note_off_c, 0, 71, 63
1, 588506, Note_on_c, 0, 74, 55
1, 588515, Note_on_c, 0, 54, 59
1, 588521, Note_on_c, 0, 60, 53
1, 588542, Note_off_c, 0, 60, 58
1, 588545, Note_off_c, 0, 54, 63
1, 588545, Note_off_c, 0, 74, 57
1, 588551, Note_on_c, 0, 72, 49
1, 588578, Note_off_c, 0, 72, 62
1, 588588, Note_on_c, 0, 76, 66
1, 588610, Note_on_c, 0, 54, 70
1, 588624, Note_on_c, 0, 60, 39
1, 588633, Note_off_c, 0, 60, 51
1, 588635, Note_off_c, 0, 54, 66
1, 588653, Note_off_c, 0, 76, 63
1, 588668, Note_on_c, 0, 74, 58
1, 588707, Note_off_c, 0, 74, 65
1, 588711, Note_on_c, 0, 73, 64
1, 588729, Note_on_c, 0, 43, 77
1, 588753, Note_off_c, 0, 43, 64
1, 588774, Note_off_c, 0, 73, 65
1, 588774, Control_c, 0, 64, 56
1, 588789, Control_c, 0, 64, 64
1, 588793, Note_on_c, 0, 74, 57
1, 588828, Note_off_c, 0, 74, 65
1, 588839, Note_on_c, 0, 76, 62
1, 588850, Note_on_c, 0, 55, 68
1, 588850, Note_on_c, 0, 59, 69
1, 588878, Control_c, 0, 64, 64
1, 588880, Note_off_c, 0, 76, 63
1, 588880, Note_off_c, 0, 59, 63
1, 588881, Note_off_c, 0, 55, 65
1, 588895, Note_on_c, 0, 74, 54
1, 588946, Note_on_c, 0, 72, 58
1, 588966, Note_on_c, 0, 55, 67
1, 588969, Note_off_c, 0, 74, 63
1, 588971, Note_on_c, 0, 59, 61
1, 588987, Note_off_c, 0, 72, 66
1, 588999, Note_on_c, 0, 71, 51
1, 589013, Note_off_c, 0, 55, 66
1, 589013, Note_off_c, 0, 59, 55
1, 589021, Note_on_c, 0, 69, 61
1, 589021, Note_off_c, 0, 71, 52
1, 589052, Note_off_c, 0, 69, 69
1, 589077, Note_on_c, 0, 55, 68
1, 589077, Note_on_c, 0, 59, 53
1, 589077, Note_on_c, 0, 67, 74
1, 589085, Control_c, 0, 64, 64
1, 589101, Note_off_c, 0, 59, 59
1, 589103, Note_off_c, 0, 67, 68
1, 589109, Note_off_c, 0, 55, 65
1, 589115, Control_c, 0, 64, 64
1, 589130, Control_c, 0, 64, 62
1, 589144, Control_c, 0, 64, 56
1, 589159, Control_c, 0, 64, 38
1, 589174, Control_c, 0, 64, 0
1, 589198, Note_on_c, 0, 57, 74
1, 589200, Note_on_c, 0, 54, 68
1, 589200, Note_on_c, 0, 64, 63
1, 589201, Note_on_c, 0, 47, 71
1, 589224, Note_off_c, 0, 57, 63
1, 589236, Note_off_c, 0, 54, 60
1, 589247, Note_off_c, 0, 47, 65
1, 589297, Note_on_c, 0, 61, 56
1, 589309, Note_off_c, 0, 64, 63
1, 589325, Note_off_c, 0, 61, 61
1, 589342, Note_on_c, 0, 57, 64
1, 589342, Note_on_c, 0, 54, 66
1, 589353, Note_on_c, 0, 47, 58
1, 589357, Note_on_c, 0, 59, 60
1, 589372, Note_off_c, 0, 57, 64
1, 589376, Note_off_c, 0, 54, 62
1, 589389, Note_off_c, 0, 47, 65
1, 589397, Note_off_c, 0, 59, 63
1, 589410, Note_on_c, 0, 58, 69
1, 589449, Note_off_c, 0, 58, 63
1, 589461, Note_on_c, 0, 57, 64
1, 589466, Note_on_c, 0, 54, 60
1, 589478, Note_on_c, 0, 47, 59
1, 589490, Note_on_c, 0, 59, 55
1, 589499, Note_off_c, 0, 57, 57
1, 589507, Note_off_c, 0, 54, 60
1, 589529, Note_off_c, 0, 47, 54
1, 589529, Note_off_c, 0, 59, 59
1, 589542, Note_on_c, 0, 61, 69
1, 589592, Note_off_c, 0, 61, 62
1, 589593, Note_on_c, 0, 54, 56
1, 589596, Note_on_c, 0, 47, 41
1, 589598, Note_on_c, 0, 63, 69
1, 589599, Note_on_c, 0, 57, 51
1, 589623, Note_off_c, 0, 57, 57
1, 589628, Note_off_c, 0, 47, 61
1, 589628, Note_off_c, 0, 54, 62
1, 589631, Note_off_c, 0, 63, 66
1, 589690, Note_on_c, 0, 64, 64
1, 589695, Note_on_c, 0, 52, 80
1, 589696, Note_on_c, 0, 55, 73
1, 589716, Note_off_c, 0, 64, 67
1, 589721, Note_off_c, 0, 52, 69
1, 589724, Note_off_c, 0, 55, 66
1, 589742, Note_on_c, 0, 67, 64
1, 589780, Note_off_c, 0, 67, 62
1, 589793, Note_on_c, 0, 72, 62
1, 589822, Note_off_c, 0, 72, 66
1, 589863, Note_on_c, 0, 71, 68
1, 589911, Note_off_c, 0, 71, 61
1, 589919, Note_on_c, 0, 72, 72
1, 589975, Note_off_c, 0, 72, 60
1, 589982, Note_on_c, 0, 71, 66
1, 590041, Note_on_c, 0, 72, 64
1, 590070, Note_off_c, 0, 72, 69
1, 590101, Note_off_c, 0, 71, 63
1, 590156, Note_on_c, 0, 76, 61
1, 590174, Note_on_c, 0, 69, 70
1, 590177, Note_on_c, 0, 59, 62
1, 590179, Note_on_c, 0, 66, 61
1, 590199, Note_off_c, 0, 69, 72
1, 590200, Note_off_c, 0, 66, 67
1, 590212, Note_off_c, 0, 59, 62
1, 590219, Note_on_c, 0, 75, 71
1, 590223, Note_off_c, 0, 76, 63
1, 590277, Note_on_c, 0, 73, 67
1, 590284, Note_off_c, 0, 75, 65
1, 590291, Note_on_c, 0, 66, 63
1, 590298, Note_on_c, 0, 69, 65
1, 590303, Note_on_c, 0, 59, 57
1, 590321, Note_off_c, 0, 66, 68
1, 590324, Note_off_c, 0, 69, 67
1, 590328, Note_off_c, 0, 59, 56
1, 590328, Note_off_c, 0, 73, 61
1, 590341, Note_on_c, 0, 71, 57
1, 590394, Note_off_c, 0, 71, 57
1, 590400, Note_on_c, 0, 70, 71
1, 590407, Note_on_c, 0, 59, 62
1, 590407, Note_on_c, 0, 66, 66
1, 590407, Note_on_c, 0, 69, 63
1, 590436, Note_off_c, 0, 69, 68
1, 590439, Note_off_c, 0, 66, 66
1, 590439, Note_off_c, 0, 70, 62
1, 590445, Note_off_c, 0, 59, 58
1, 590472, Note_on_c, 0, 71, 55
1, 590510, Note_off_c, 0, 71, 62
1, 590519, Note_on_c, 0, 66, 67
1, 590526, Note_on_c, 0, 73, 64
1, 590533, Note_on_c, 0, 69, 54
1, 590537, Note_on_c, 0, 59, 45
1, 590549, Note_off_c, 0, 66, 67
1, 590554, Note_off_c, 0, 69, 60
1, 590562, Note_off_c, 0, 59, 56
1, 590573, Note_off_c, 0, 73, 64
1, 590579, Note_on_c, 0, 75, 68
1, 590606, Note_off_c, 0, 75, 69
1, 590644, Note_on_c, 0, 64, 78
1, 590648, Note_on_c, 0, 67, 73
1, 590659, Note_on_c, 0, 76, 64
1, 590666, Note_off_c, 0, 64, 70
1, 590671, Note_off_c, 0, 67, 68
1, 590699, Note_off_c, 0, 76, 63
1, 590714, Note_on_c, 0, 79, 59
1, 590744, Note_off_c, 0, 79, 61
1, 590755, Note_on_c, 0, 84, 69
1, 590780, Note_off_c, 0, 84, 69
1, 590814, Note_on_c, 0, 83, 74
1, 590871, Note_off_c, 0, 83, 59
1, 590875, Note_on_c, 0, 84, 75
1, 590937, Note_on_c, 0, 83, 64
1, 590944, Note_off_c, 0, 84, 63
1, 590993, Note_off_c, 0, 83, 60
1, 591011, Note_on_c, 0, 84, 55
1, 591045, Note_off_c, 0, 84, 58
1, 591051, Note_on_c, 0, 83, 57
1, 591105, Note_off_c, 0, 83, 56
1, 591112, Note_on_c, 0, 64, 65
1, 591113, Note_on_c, 0, 57, 68
1, 591116, Note_on_c, 0, 60, 60
1, 591121, Note_on_c, 0, 84, 69
1, 591134, Note_off_c, 0, 64, 65
1, 591138, Note_off_c, 0, 60, 64
1, 591141, Note_off_c, 0, 57, 64
1, 591145, Note_off_c, 0, 84, 69
1, 591160, Note_on_c, 0, 88, 67
1, 591225, Note_off_c, 0, 88, 60
1, 591228, Note_on_c, 0, 84, 64
1, 591277, Note_off_c, 0, 84, 64
1, 591285, Note_on_c, 0, 81, 64
1, 591310, Note_off_c, 0, 81, 67
1, 591358, Note_on_c, 0, 79, 74
1, 591363, Note_on_c, 0, 67, 70
1, 591367, Note_on_c, 0, 59, 67
1, 591369, Note_on_c, 0, 64, 65
1, 591387, Note_off_c, 0, 67, 67
1, 591397, Note_off_c, 0, 59, 63
1, 591397, Note_off_c, 0, 64, 66
1, 591408, Note_off_c, 0, 79, 63
1, 591413, Note_on_c, 0, 83, 70
1, 591468, Note_on_c, 0, 79, 69
1, 591470, Note_off_c, 0, 83, 57
1, 591519, Note_off_c, 0, 79, 62
1, 591539, Note_on_c, 0, 76, 52
1, 591565, Note_off_c, 0, 76, 55
1, 591606, Note_on_c, 0, 75, 68
1, 591607, Note_on_c, 0, 69, 74
1, 591607, Note_on_c, 0, 66, 76
1, 591618, Note_on_c, 0, 59, 59
1, 591629, Note_off_c, 0, 69, 72
1, 591631, Note_off_c, 0, 66, 69
1, 591646, Note_off_c, 0, 75, 65
1, 591652, Note_off_c, 0, 59, 63
1, 591656, Note_on_c, 0, 78, 66
1, 591721, Note_on_c, 0, 75, 63
1, 591739, Note_off_c, 0, 78, 60
1, 591777, Note_off_c, 0, 75, 64
1, 591783, Note_on_c, 0, 71, 67
1, 591828, Note_off_c, 0, 71, 53
1, 591854, Note_on_c, 0, 76, 66
1, 591855, Note_on_c, 0, 59, 69
1, 591856, Note_on_c, 0, 67, 69
1, 591865, Note_on_c, 0, 64, 60
1, 591882, Note_off_c, 0, 67, 67
1, 591893, Note_off_c, 0, 76, 64
1, 591895, Note_off_c, 0, 64, 66
1, 591898, Note_on_c, 0, 79, 62
1, 591899, Note_off_c, 0, 59, 57
1, 591947, Note_off_c, 0, 79, 58
1, 591955, Note_on_c, 0, 76, 55
1, 591992, Note_off_c, 0, 76, 66
1, 592002, Note_on_c, 0, 71, 55
1, 592023, Note_off_c, 0, 71, 62
1, 592079, Note_on_c, 0, 78, 88
1, 592087, Note_on_c, 0, 70, 91
1, 592095, Note_on_c, 0, 60, 71
1, 592096, Note_on_c, 0, 64, 72
1, 592125, Control_c, 0, 64, 51
1, 592130, Note_off_c, 0, 64, 63
1, 592131, Note_off_c, 0, 70, 60
1, 592136, Note_off_c, 0, 60, 59
1, 592140, Control_c, 0, 64, 70
1, 592141, Note_off_c, 0, 78, 63
1, 592155, Control_c, 0, 64, 78
1, 592169, Control_c, 0, 64, 85
1, 592184, Control_c, 0, 64, 89
1, 592199, Control_c, 0, 64, 90
1, 592204, Note_on_c, 0, 70, 74
1, 592205, Note_on_c, 0, 78, 74
1, 592214, Control_c, 0, 64, 92
1, 592217, Note_on_c, 0, 64, 58
1, 592222, Note_on_c, 0, 60, 56
1, 592227, Note_off_c, 0, 70, 67
1, 592229, Control_c, 0, 64, 93
1, 592239, Poly_aftertouch_c, 0, 76, 0
1, 592243, Control_c, 0, 64, 93
1, 592245, Note_off_c, 0, 64, 67
1, 592251, Note_off_c, 0, 60, 63
1, 592251, Poly_aftertouch_c, 0, 74, 0
1, 592260, Note_on_c, 0, 76, 34
1, 592262, Note_off_c, 0, 78, 61
1, 592317, Note_off_c, 0, 76, 64
1, 592320, Note_on_c, 0, 70, 70
1, 592322, Note_on_c, 0, 60, 67
1, 592325, Note_on_c, 0, 78, 67
1, 592339, Note_on_c, 0, 64, 53
1, 592350, Note_off_c, 0, 70, 65
1, 592353, Note_off_c, 0, 60, 57
1, 592362, Note_off_c, 0, 64, 63
1, 592377, Note_off_c, 0, 78, 59
1, 592388, Note_on_c, 0, 76, 62
1, 592433, Note_on_c, 0, 70, 66
1, 592442, Note_off_c, 0, 76, 63
1, 592456, Note_on_c, 0, 78, 65
1, 592457, Note_on_c, 0, 60, 44
1, 592459, Note_on_c, 0, 64, 52
1, 592460, Note_off_c, 0, 70, 66
1, 592481, Note_off_c, 0, 60, 56
1, 592484, Note_off_c, 0, 64, 58
1, 592490, Note_off_c, 0, 78, 59
1, 592507, Note_on_c, 0, 76, 56
1, 592517, Control_c, 0, 64, 91
1, 592532, Control_c, 0, 64, 85
1, 592546, Note_off_c, 0, 76, 59
1, 592547, Control_c, 0, 64, 77
1, 592562, Control_c, 0, 64, 68
1, 592565, Note_on_c, 0, 83, 69
1, 592573, Note_on_c, 0, 71, 67
1, 592577, Control_c, 0, 64, 50
1, 592582, Note_on_c, 0, 59, 62
1, 592583, Note_on_c, 0, 63, 60
1, 592592, Control_c, 0, 64, 0
1, 592603, Note_off_c, 0, 71, 64
1, 592618, Note_off_c, 0, 83, 55
1, 592621, Note_on_c, 0, 78, 66
1, 592666, Note_off_c, 0, 59, 56
1, 592684, Note_on_c, 0, 75, 46
1, 592684, Note_off_c, 0, 78, 63
1, 592690, Note_off_c, 0, 63, 62
1, 592711, Note_off_c, 0, 75, 39
1, 592727, Note_on_c, 0, 71, 64
1, 592795, Note_off_c, 0, 71, 42
1, 592861, Note_on_c, 0, 71, 33
1, 592896, Note_off_c, 0, 71, 62
1, 592924, Note_on_c, 0, 83, 66
1, 592952, Note_off_c, 0, 83, 60
1, 592979, Note_on_c, 0, 71, 68
1, 592996, Note_off_c, 0, 71, 65
1, 593067, Control_c, 0, 64, 64
1, 593075, Note_on_c, 0, 85, 70
1, 593077, Note_on_c, 0, 43, 54
1, 593082, Control_c, 0, 64, 70
1, 593097, Control_c, 0, 64, 73
1, 593106, Note_off_c, 0, 43, 57
1, 593111, Control_c, 0, 64, 74
1, 593135, Note_on_c, 0, 86, 73
1, 593141, Note_off_c, 0, 85, 62
1, 593204, Note_off_c, 0, 86, 63
1, 593212, Note_on_c, 0, 59, 53
1, 593217, Note_on_c, 0, 88, 56
1, 593219, Note_on_c, 0, 55, 44
1, 593226, Note_on_c, 0, 50, 42
1, 593235, Note_off_c, 0, 59, 58
1, 593248, Note_off_c, 0, 55, 52
1, 593256, Note_off_c, 0, 88, 44
1, 593257, Note_off_c, 0, 50, 49
1, 593267, Note_on_c, 0, 86, 71
1, 593312, Control_c, 0, 64, 74
1, 593325, Note_on_c, 0, 59, 52
1, 593329, Note_on_c, 0, 55, 60
1, 593337, Note_on_c, 0, 84, 67
1, 593349, Note_on_c, 0, 50, 43
1, 593353, Note_off_c, 0, 86, 59
1, 593357, Note_off_c, 0, 59, 63
1, 593363, Note_off_c, 0, 55, 65
1, 593376, Note_off_c, 0, 50, 56
1, 593387, Note_off_c, 0, 84, 64
1, 593387, Note_on_c, 0, 83, 60
1, 593401, Control_c, 0, 64, 73
1, 593416, Control_c, 0, 64, 73
1, 593419, Note_off_c, 0, 83, 61
1, 593431, Control_c, 0, 64, 72
1, 593435, Note_on_c, 0, 81, 59
1, 593445, Control_c, 0, 64, 71
1, 593450, Note_on_c, 0, 59, 42
1, 593460, Note_off_c, 0, 81, 63
1, 593460, Control_c, 0, 64, 66
1, 593465, Note_on_c, 0, 50, 48
1, 593472, Note_off_c, 0, 59, 58
1, 593475, Control_c, 0, 64, 48
1, 593490, Control_c, 0, 64, 0
1, 593498, Note_off_c, 0, 50, 45
1, 593500, Note_on_c, 0, 79, 63
1, 593551, Note_off_c, 0, 79, 61
1, 593563, Note_on_c, 0, 43, 78
1, 593568, Note_on_c, 0, 78, 66
1, 593587, Note_off_c, 0, 43, 64
1, 593610, Control_c, 0, 64, 33
1, 593614, Note_off_c, 0, 78, 62
1, 593624, Note_on_c, 0, 79, 51
1, 593624, Control_c, 0, 64, 58
1, 593654, Control_c, 0, 64, 57
1, 593668, Note_off_c, 0, 79, 63
1, 593671, Note_on_c, 0, 81, 69
1, 593691, Note_on_c, 0, 52, 61
1, 593696, Note_on_c, 0, 60, 57
1, 593698, Control_c, 0, 64, 58
1, 593710, Note_on_c, 0, 55, 32
1, 593712, Note_off_c, 0, 81, 52
1, 593715, Note_off_c, 0, 60, 62
1, 593725, Note_off_c, 0, 52, 65
1, 593742, Control_c, 0, 64, 58
1, 593743, Note_on_c, 0, 79, 63
1, 593746, Note_off_c, 0, 55, 49
1, 593772, Control_c, 0, 64, 58
1, 593796, Note_on_c, 0, 78, 67
1, 593800, Note_off_c, 0, 79, 57
1, 593809, Note_on_c, 0, 60, 52
1, 593822, Note_on_c, 0, 52, 44
1, 593843, Note_off_c, 0, 60, 62
1, 593851, Note_on_c, 0, 76, 62
1, 593857, Note_off_c, 0, 52, 66
1, 593857, Note_off_c, 0, 78, 64
1, 593891, Note_off_c, 0, 76, 61
1, 593900, Note_on_c, 0, 74, 61
1, 593928, Control_c, 0, 64, 57
1, 593935, Note_off_c, 0, 74, 69
1, 593936, Poly_aftertouch_c, 0, 55, 127
1, 593942, Control_c, 0, 64, 56
1, 593952, Poly_aftertouch_c, 0, 55, 0
1, 593957, Control_c, 0, 64, 47
1, 593959, Note_on_c, 0, 52, 24
1, 593960, Note_off_c, 0, 52, 127
1, 593972, Control_c, 0, 64, 0
1, 593978, Note_on_c, 0, 72, 69
1, 594035, Note_on_c, 0, 43, 84
1, 594035, Note_off_c, 0, 72, 64
1, 594040, Note_on_c, 0, 71, 64
1, 594061, Note_off_c, 0, 43, 64
1, 594076, Note_off_c, 0, 71, 60
1, 594087, Note_on_c, 0, 69, 51
1, 594091, Control_c, 0, 64, 58
1, 594105, Control_c, 0, 64, 63
1, 594114, Note_off_c, 0, 69, 57
1, 594120, Control_c, 0, 64, 62
1, 594147, Note_on_c, 0, 72, 70
1, 594176, Note_on_c, 0, 62, 63
1, 594180, Note_on_c, 0, 60, 54
1, 594184, Note_on_c, 0, 57, 53
1, 594186, Note_on_c, 0, 54, 51
1, 594198, Note_off_c, 0, 62, 61
1, 594200, Note_off_c, 0, 72, 56
1, 594213, Note_on_c, 0, 71, 65
1, 594216, Note_off_c, 0, 60, 63
1, 594219, Note_off_c, 0, 54, 54
1, 594221, Note_off_c, 0, 57, 62
1, 594252, Note_off_c, 0, 71, 60
1, 594272, Note_on_c, 0, 74, 48
1, 594280, Note_on_c, 0, 62, 61
1, 594311, Note_on_c, 0, 54, 42
1, 594311, Note_off_c, 0, 74, 63
1, 594312, Note_off_c, 0, 62, 63
1, 594315, Note_on_c, 0, 57, 39
1, 594315, Note_on_c, 0, 60, 26
1, 594338, Note_on_c, 0, 72, 26
1, 594341, Note_off_c, 0, 54, 53
1, 594344, Control_c, 0, 64, 61
1, 594346, Note_on_c, 0, 76, 64
1, 594358, Note_off_c, 0, 57, 31
1, 594371, Note_off_c, 0, 72, 32
1, 594379, Note_on_c, 0, 62, 67
1, 594384, Note_off_c, 0, 60, 0
1, 594384, Note_on_c, 0, 60, 38
1, 594388, Note_on_c, 0, 54, 38
1, 594398, Note_off_c, 0, 62, 62
1, 594403, Note_on_c, 0, 57, 20
1, 594409, Note_off_c, 0, 60, 52
1, 594411, Note_off_c, 0, 76, 66
1, 594421, Note_off_c, 0, 54, 63
1, 594433, Note_on_c, 0, 74, 51
1, 594433, Control_c, 0, 64, 61
1, 594441, Note_off_c, 0, 57, 37
1, 594447, Control_c, 0, 64, 43
1, 594457, Note_off_c, 0, 74, 63
1, 594458, Note_on_c, 0, 73, 57
1, 594462, Control_c, 0, 64, 0
1, 594507, Note_on_c, 0, 43, 77
1, 594516, Note_off_c, 0, 73, 62
1, 594531, Note_off_c, 0, 43, 65
1, 594535, Note_on_c, 0, 74, 68
1, 594565, Control_c, 0, 64, 62
1, 594580, Control_c, 0, 64, 65
1, 594585, Note_off_c, 0, 74, 63
1, 594595, Control_c, 0, 64, 65
1, 594600, Note_on_c, 0, 76, 62
1, 594625, Note_on_c, 0, 62, 72
1, 594627, Note_on_c, 0, 59, 68
1, 594629, Note_on_c, 0, 55, 59
1, 594635, Note_off_c, 0, 76, 61
1, 594639, Control_c, 0, 64, 64
1, 594652, Note_off_c, 0, 62, 66
1, 594654, Note_on_c, 0, 74, 60
1, 594654, Note_off_c, 0, 59, 63
1, 594669, Note_off_c, 0, 55, 65
1, 594724, Note_on_c, 0, 72, 63
1, 594746, Note_on_c, 0, 59, 54
1, 594747, Note_on_c, 0, 62, 56
1, 594747, Note_off_c, 0, 74, 61
1, 594749, Note_on_c, 0, 55, 59
1, 594773, Note_off_c, 0, 72, 65
1, 594777, Note_off_c, 0, 59, 63
1, 594781, Note_on_c, 0, 71, 56
1, 594786, Note_off_c, 0, 62, 58
1, 594791, Note_off_c, 0, 55, 60
1, 594800, Note_off_c, 0, 71, 61
1, 594810, Note_on_c, 0, 69, 58
1, 594845, Note_on_c, 0, 55, 51
1, 594846, Note_off_c, 0, 69, 68
1, 594858, Note_on_c, 0, 59, 43
1, 594867, Note_on_c, 0, 67, 69
1, 594872, Note_off_c, 0, 55, 66
1, 594883, Control_c, 0, 64, 64
1, 594886, Note_off_c, 0, 59, 54
1, 594892, Note_off_c, 0, 67, 66
1, 594898, Control_c, 0, 64, 62
1, 594913, Control_c, 0, 64, 33
1, 594928, Control_c, 0, 64, 0
1, 594973, Note_on_c, 0, 57, 75
1, 594975, Note_on_c, 0, 47, 72
1, 594978, Note_on_c, 0, 54, 67
1, 594982, Note_on_c, 0, 64, 70
1, 595027, Note_off_c, 0, 64, 58
1, 595030, Note_on_c, 0, 63, 74
1, 595031, Control_c, 0, 64, 63
1, 595046, Control_c, 0, 64, 67
1, 595061, Control_c, 0, 64, 67
1, 595070, Note_off_c, 0, 57, 57
1, 595085, Note_on_c, 0, 61, 65
1, 595092, Note_off_c, 0, 63, 64
1, 595123, Note_off_c, 0, 61, 61
1, 595129, Note_on_c, 0, 59, 64
1, 595136, Control_c, 0, 64, 68
1, 595154, Note_off_c, 0, 59, 66
1, 595166, Control_c, 0, 64, 66
1, 595171, Note_off_c, 0, 54, 58
1, 595181, Control_c, 0, 64, 56
1, 595195, Control_c, 0, 64, 0
1, 595208, Note_on_c, 0, 55, 74
1, 595212, Note_on_c, 0, 69, 73
1, 595214, Note_on_c, 0, 52, 74
1, 595225, Note_off_c, 0, 47, 63
1, 595253, Note_off_c, 0, 52, 68
1, 595257, Note_off_c, 0, 55, 65
1, 595274, Note_on_c, 0, 67, 67
1, 595280, Note_off_c, 0, 69, 62
1, 595284, Control_c, 0, 64, 41
1, 595299, Control_c, 0, 64, 57
1, 595313, Control_c, 0, 64, 55
1, 595322, Note_on_c, 0, 66, 67
1, 595328, Control_c, 0, 64, 54
1, 595337, Note_off_c, 0, 67, 55
1, 595358, Control_c, 0, 64, 55
1, 595361, Note_on_c, 0, 64, 64
1, 595373, Control_c, 0, 64, 56
1, 595375, Note_off_c, 0, 66, 62
1, 595386, Note_off_c, 0, 64, 67
1, 595387, Control_c, 0, 64, 57
1, 595402, Control_c, 0, 64, 51
1, 595425, Control_c, 0, 64, 0
1, 595466, Note_on_c, 0, 69, 82
1, 595466, Note_on_c, 0, 76, 75
1, 595468, Note_on_c, 0, 59, 70
1, 595474, Note_on_c, 0, 66, 70
1, 595528, Note_on_c, 0, 75, 68
1, 595532, Note_off_c, 0, 76, 62
1, 595560, Note_off_c, 0, 69, 60
1, 595578, Note_on_c, 0, 73, 66
1, 595587, Note_off_c, 0, 75, 65
1, 595619, Note_off_c, 0, 73, 62
1, 595629, Note_on_c, 0, 71, 55
1, 595648, Note_off_c, 0, 66, 61
1, 595660, Note_off_c, 0, 71, 59
1, 595661, Note_off_c, 0, 59, 53
1, 595693, Note_on_c, 0, 67, 70
1, 595696, Note_on_c, 0, 81, 73
1, 595700, Note_on_c, 0, 64, 73
1, 595716, Note_off_c, 0, 67, 68
1, 595724, Note_off_c, 0, 64, 67
1, 595760, Note_on_c, 0, 79, 68
1, 595782, Note_off_c, 0, 81, 56
1, 595806, Note_on_c, 0, 78, 69
1, 595825, Note_off_c, 0, 79, 60
1, 595846, Note_on_c, 0, 76, 68
1, 595863, Note_off_c, 0, 78, 61
1, 595891, Note_off_c, 0, 76, 63
1, 595927, Note_on_c, 0, 33, 75
1, 595927, Note_on_c, 0, 84, 74
1, 595928, Note_on_c, 0, 45, 77
1, 595951, Note_off_c, 0, 45, 67
1, 595955, Note_off_c, 0, 33, 66
1, 595983, Note_on_c, 0, 81, 71
1, 595990, Note_off_c, 0, 84, 61
1, 596042, Note_on_c, 0, 36, 73
1, 596042, Note_on_c, 0, 48, 80
1, 596042, Note_on_c, 0, 76, 68
1, 596065, Note_off_c, 0, 36, 66
1, 596065, Note_off_c, 0, 48, 69
1, 596069, Note_off_c, 0, 81, 60
1, 596086, Note_on_c, 0, 72, 67
1, 596103, Note_off_c, 0, 76, 62
1, 596127, Note_off_c, 0, 72, 58
1, 596170, Note_on_c, 0, 52, 97
1, 596172, Note_on_c, 0, 40, 85
1, 596174, Note_on_c, 0, 83, 70
1, 596218, Control_c, 0, 64, 49
1, 596228, Note_on_c, 0, 79, 70
1, 596228, Note_off_c, 0, 52, 63
1, 596228, Note_off_c, 0, 83, 52
1, 596233, Control_c, 0, 64, 67
1, 596237, Note_off_c, 0, 40, 64
1, 596248, Control_c, 0, 64, 73
1, 596263, Control_c, 0, 64, 78
1, 596277, Control_c, 0, 64, 79
1, 596284, Note_on_c, 0, 76, 68
1, 596301, Note_off_c, 0, 79, 59
1, 596341, Note_off_c, 0, 76, 64
1, 596348, Note_on_c, 0, 71, 51
1, 596383, Note_off_c, 0, 71, 55
1, 596401, Note_on_c, 0, 51, 75
1, 596407, Note_on_c, 0, 39, 72
1, 596418, Note_on_c, 0, 81, 68
1, 596427, Note_off_c, 0, 51, 68
1, 596437, Note_off_c, 0, 39, 65
1, 596456, Control_c, 0, 64, 78
1, 596470, Control_c, 0, 64, 78
1, 596473, Note_off_c, 0, 81, 38
1, 596484, Note_on_c, 0, 77, 60
1, 596485, Control_c, 0, 64, 77
1, 596500, Control_c, 0, 64, 76
1, 596515, Control_c, 0, 64, 75
1, 596521, Note_on_c, 0, 35, 76
1, 596524, Note_on_c, 0, 47, 70
1, 596530, Control_c, 0, 64, 72
1, 596532, Note_off_c, 0, 77, 55
1, 596536, Note_on_c, 0, 71, 39
1, 596544, Control_c, 0, 64, 65
1, 596545, Note_off_c, 0, 47, 63
1, 596547, Note_on_c, 0, 70, 26
1, 596550, Note_off_c, 0, 35, 66
1, 596559, Control_c, 0, 64, 0
1, 596573, Note_off_c, 0, 71, 50
1, 596581, Note_off_c, 0, 70, 31
1, 596583, Note_on_c, 0, 69, 68
1, 596612, Note_off_c, 0, 69, 68
1, 596646, Note_on_c, 0, 52, 94
1, 596651, Note_on_c, 0, 40, 79
1, 596652, Note_on_c, 0, 79, 73
1, 596663, Control_c, 0, 64, 48
1, 596677, Note_off_c, 0, 52, 66
1, 596678, Control_c, 0, 64, 68
1, 596691, Note_off_c, 0, 79, 50
1, 596693, Control_c, 0, 64, 76
1, 596699, Note_on_c, 0, 76, 71
1, 596708, Control_c, 0, 64, 82
1, 596710, Note_off_c, 0, 40, 62
1, 596723, Control_c, 0, 64, 84
1, 596738, Control_c, 0, 64, 85
1, 596744, Poly_aftertouch_c, 0, 41, 0
1, 596751, Note_on_c, 0, 71, 64
1, 596795, Note_off_c, 0, 71, 60
1, 596799, Note_on_c, 0, 67, 65
1, 596807, Note_off_c, 0, 76, 58
1, 596827, Note_off_c, 0, 67, 59
1, 596893, Note_on_c, 0, 45, 86
1, 596896, Note_on_c, 0, 33, 75
1, 596907, Note_on_c, 0, 78, 62
1, 596925, Note_off_c, 0, 45, 69
1, 596932, Note_off_c, 0, 33, 66
1, 596941, Note_off_c, 0, 78, 52
1, 596941, Poly_aftertouch_c, 0, 37, 127
1, 596968, Note_on_c, 0, 76, 55
1, 596982, Control_c, 0, 64, 84
1, 596984, Poly_aftertouch_c, 0, 37, 0
1, 596997, Control_c, 0, 64, 83
1, 597006, Note_on_c, 0, 72, 72
1, 597012, Control_c, 0, 64, 82
1, 597023, Note_on_c, 0, 44, 81
1, 597024, Note_off_c, 0, 76, 65
1, 597025, Note_on_c, 0, 32, 78
1, 597027, Control_c, 0, 64, 80
1, 597042, Note_on_c, 0, 69, 71
1, 597042, Control_c, 0, 64, 76
1, 597049, Note_off_c, 0, 72, 57
1, 597057, Control_c, 0, 64, 70
1, 597060, Note_off_c, 0, 44, 63
1, 597068, Note_off_c, 0, 32, 63
1, 597071, Control_c, 0, 64, 50
1, 597078, Note_off_c, 0, 69, 62
1, 597086, Control_c, 0, 64, 0
1, 597140, Note_on_c, 0, 33, 79
1, 597140, Note_on_c, 0, 45, 87
1, 597144, Note_on_c, 0, 84, 68
1, 597164, Note_off_c, 0, 33, 67
1, 597175, Control_c, 0, 64, 36
1, 597176, Note_off_c, 0, 45, 67
1, 597190, Control_c, 0, 64, 68
1, 597191, Note_on_c, 0, 78, 72
1, 597202, Note_off_c, 0, 84, 60
1, 597205, Control_c, 0, 64, 76
1, 597220, Control_c, 0, 64, 83
1, 597235, Control_c, 0, 64, 85
1, 597241, Note_on_c, 0, 76, 72
1, 597249, Control_c, 0, 64, 86
1, 597262, Note_off_c, 0, 78, 63
1, 597264, Control_c, 0, 64, 87
1, 597279, Control_c, 0, 64, 88
1, 597284, Note_on_c, 0, 72, 65
1, 597289, Note_off_c, 0, 76, 59
1, 597293, Control_c, 0, 64, 88
1, 597306, Note_off_c, 0, 72, 67
1, 597308, Control_c, 0, 64, 89
1, 597323, Control_c, 0, 64, 89
1, 597338, Control_c, 0, 64, 90
1, 597353, Control_c, 0, 64, 90
1, 597367, Control_c, 0, 64, 91
1, 597397, Control_c, 0, 64, 88
1, 597411, Control_c, 0, 64, 75
1, 597426, Control_c, 0, 64, 46
1, 597429, Note_on_c, 0, 94, 88
1, 597440, Note_on_c, 0, 46, 83
1, 597440, Note_on_c, 0, 55, 91
1, 597441, Control_c, 0, 64, 0
1, 597443, Note_on_c, 0, 49, 70
1, 597444, Note_on_c, 0, 52, 77
1, 597465, Note_on_c, 0, 95, 58
1, 597472, Note_off_c, 0, 94, 45
1, 597485, Note_off_c, 0, 95, 64
1, 597487, Control_c, 0, 64, 52
1, 597499, Note_on_c, 0, 91, 70
1, 597502, Control_c, 0, 64, 70
1, 597516, Control_c, 0, 64, 77
1, 597531, Control_c, 0, 64, 82
1, 597533, Note_off_c, 0, 91, 60
1, 597546, Control_c, 0, 64, 83
1, 597548, Note_on_c, 0, 88, 57
1, 597572, Note_off_c, 0, 88, 64
1, 597646, Note_on_c, 0, 85, 60
1, 597682, Note_on_c, 0, 82, 74
1, 597716, Note_off_c, 0, 52, 62
1, 597719, Note_off_c, 0, 85, 54
1, 597742, Note_off_c, 0, 49, 55
1, 597743, Note_off_c, 0, 82, 63
1, 597748, Note_on_c, 0, 79, 62
1, 597757, Note_off_c, 0, 46, 61
1, 597766, Note_off_c, 0, 79, 63
1, 597809, Note_on_c, 0, 76, 48
1, 597820, Control_c, 0, 64, 83
1, 597835, Control_c, 0, 64, 82
1, 597843, Note_off_c, 0, 76, 48
1, 597849, Control_c, 0, 64, 80
1, 597863, Note_on_c, 0, 73, 67
1, 597864, Control_c, 0, 64, 76
1, 597879, Note_off_c, 0, 73, 67
1, 597879, Control_c, 0, 64, 69
1, 597894, Control_c, 0, 64, 57
1, 597900, Note_off_c, 0, 55, 49
1, 597909, Control_c, 0, 64, 0
1, 597915, Note_on_c, 0, 54, 77
1, 597919, Note_on_c, 0, 83, 72
1, 597924, Note_on_c, 0, 47, 68
1, 597927, Note_on_c, 0, 51, 67
1, 597948, Note_off_c, 0, 47, 67
1, 597952, Note_off_c, 0, 51, 66
1, 597952, Note_off_c, 0, 54, 64
1, 597960, Note_off_c, 0, 83, 47
1, 597987, Note_on_c, 0, 78, 71
1, 598036, Note_on_c, 0, 75, 58
1, 598044, Note_off_c, 0, 78, 63
1, 598070, Note_off_c, 0, 75, 66
1, 598110, Note_on_c, 0, 71, 39
1, 598139, Note_off_c, 0, 71, 45
1, 598154, Note_on_c, 0, 64, 63
1, 598163, Note_on_c, 0, 67, 52
1, 598163, Note_on_c, 0, 70, 63
1, 598186, Note_off_c, 0, 67, 60
1, 598186, Note_off_c, 0, 64, 63
1, 598196, Note_off_c, 0, 70, 65
1, 598220, Note_on_c, 0, 71, 50
1, 598243, Note_off_c, 0, 71, 58
1, 598245, Note_on_c, 0, 73, 62
1, 598270, Note_on_c, 0, 67, 54
1, 598282, Note_on_c, 0, 64, 45
1, 598282, Note_off_c, 0, 73, 64
1, 598294, Note_off_c, 0, 67, 63
1, 598306, Note_off_c, 0, 64, 37
1, 598314, Note_on_c, 0, 70, 57
1, 598336, Note_off_c, 0, 70, 65
1, 598384, Control_c, 0, 64, 62
1, 598386, Note_on_c, 0, 66, 69
1, 598386, Note_on_c, 0, 83, 70
1, 598389, Note_on_c, 0, 63, 59
1, 598393, Note_on_c, 0, 59, 50
1, 598399, Control_c, 0, 64, 72
1, 598421, Control_c, 0, 64, 81
1, 598436, Control_c, 0, 64, 89
1, 598438, Note_off_c, 0, 66, 60
1, 598439, Note_off_c, 0, 63, 58
1, 598440, Note_off_c, 0, 59, 56
1, 598451, Note_on_c, 0, 78, 67
1, 598451, Control_c, 0, 64, 90
1, 598455, Note_off_c, 0, 83, 56
1, 598465, Control_c, 0, 64, 91
1, 598493, Note_on_c, 0, 75, 70
1, 598506, Note_off_c, 0, 78, 62
1, 598530, Note_off_c, 0, 75, 60
1, 598583, Note_on_c, 0, 71, 8
1, 598598, Control_c, 0, 64, 90
1, 598613, Control_c, 0, 64, 90
1, 598626, Note_off_c, 0, 71, 27
1, 598627, Control_c, 0, 64, 89
1, 598640, Note_on_c, 0, 64, 65
1, 598642, Control_c, 0, 64, 87
1, 598646, Note_on_c, 0, 70, 57
1, 598649, Note_on_c, 0, 67, 52
1, 598657, Control_c, 0, 64, 85
1, 598669, Note_off_c, 0, 70, 64
1, 598669, Note_off_c, 0, 64, 64
1, 598672, Control_c, 0, 64, 83
1, 598673, Note_off_c, 0, 67, 59
1, 598687, Control_c, 0, 64, 80
1, 598696, Note_on_c, 0, 71, 34
1, 598702, Control_c, 0, 64, 76
1, 598717, Control_c, 0, 64, 73
1, 598718, Note_on_c, 0, 73, 59
1, 598726, Note_off_c, 0, 71, 45
1, 598731, Control_c, 0, 64, 66
1, 598746, Control_c, 0, 64, 0
1, 598755, Note_on_c, 0, 64, 52
1, 598756, Note_off_c, 0, 73, 62
1, 598766, Note_on_c, 0, 67, 47
1, 598766, Note_on_c, 0, 70, 65
1, 598779, Note_off_c, 0, 64, 61
1, 598790, Note_off_c, 0, 67, 58
1, 598794, Note_off_c, 0, 70, 67
1, 598866, Note_on_c, 0, 83, 68
1, 598874, Note_on_c, 0, 63, 61
1, 598874, Note_on_c, 0, 66, 65
1, 598875, Note_on_c, 0, 59, 55
1, 598879, Control_c, 0, 64, 62
1, 598894, Control_c, 0, 64, 73
1, 598905, Note_on_c, 0, 78, 72
1, 598909, Control_c, 0, 64, 83
1, 598917, Note_off_c, 0, 83, 58
1, 598924, Control_c, 0, 64, 91
1, 598938, Control_c, 0, 64, 94
1, 598953, Control_c, 0, 64, 98
1, 598961, Note_on_c, 0, 75, 48
1, 598968, Control_c, 0, 64, 102
1, 598979, Note_off_c, 0, 78, 53
1, 598982, Note_on_c, 0, 71, 66
1, 598982, Control_c, 0, 64, 109
1, 598997, Control_c, 0, 64, 119
1, 599000, Note_off_c, 0, 75, 65
1, 599001, Note_off_c, 0, 71, 63
1, 599002, Note_off_c, 0, 59, 61
1, 599006, Note_off_c, 0, 63, 61
1, 599007, Note_off_c, 0, 66, 64
1, 599012, Control_c, 0, 64, 127
1, 599107, Note_on_c, 0, 86, 44
1, 599122, Note_on_c, 0, 83, 65
1, 599134, Note_off_c, 0, 86, 51
1, 599181, Note_on_c, 0, 78, 69
1, 599203, Note_off_c, 0, 83, 59
1, 599236, Note_off_c, 0, 78, 62
1, 599236, Note_on_c, 0, 75, 62
1, 599255, Note_off_c, 0, 75, 67
1, 599304, Note_on_c, 0, 83, 68
1, 599348, Note_off_c, 0, 83, 49
1, 599360, Note_on_c, 0, 78, 63
1, 599408, Note_on_c, 0, 75, 59
1, 599416, Note_off_c, 0, 78, 62
1, 599447, Note_off_c, 0, 75, 62
1, 599450, Note_on_c, 0, 71, 59
1, 599477, Note_off_c, 0, 71, 62
1, 599525, Note_on_c, 0, 78, 65
1, 599565, Note_off_c, 0, 78, 46
1, 599577, Note_on_c, 0, 75, 62
1, 599620, Note_on_c, 0, 71, 57
1, 599626, Note_off_c, 0, 75, 57
1, 599680, Note_off_c, 0, 71, 62
1, 599682, Note_on_c, 0, 66, 65
1, 599706, Note_off_c, 0, 66, 64
1, 599745, Note_on_c, 0, 75, 59
1, 599789, Note_off_c, 0, 75, 58
1, 599804, Note_on_c, 0, 71, 60
1, 599850, Note_on_c, 0, 66, 61
1, 599875, Note_off_c, 0, 71, 59
1, 599906, Note_off_c, 0, 66, 64
1, 599910, Note_on_c, 0, 63, 65
1, 599939, Note_off_c, 0, 63, 67
1, 599980, Note_on_c, 0, 71, 62
1, 600020, Note_off_c, 0, 71, 53
1, 600036, Note_on_c, 0, 66, 65
1, 600085, Note_on_c, 0, 63, 60
1, 600088, Note_off_c, 0, 66, 63
1, 600126, Note_off_c, 0, 63, 64
1, 600146, Note_on_c, 0, 59, 41
1, 600175, Note_off_c, 0, 59, 51
1, 600207, Note_on_c, 0, 66, 62
1, 600248, Note_off_c, 0, 66, 51
1, 600252, Note_on_c, 0, 63, 58
1, 600282, Note_on_c, 0, 59, 52
1, 600312, Note_off_c, 0, 63, 62
1, 600353, Note_off_c, 0, 59, 61
1, 600359, Note_on_c, 0, 54, 65
1, 600392, Note_off_c, 0, 54, 63
1, 600425, Note_on_c, 0, 63, 64
1, 600472, Note_off_c, 0, 63, 51
1, 600479, Note_on_c, 0, 59, 61
1, 600542, Note_off_c, 0, 59, 59
1, 600575, Note_on_c, 0, 51, 60
1, 600592, Poly_aftertouch_c, 0, 55, 127
1, 600604, Note_off_c, 0, 51, 63
1, 600623, Poly_aftertouch_c, 0, 55, 0
1, 600644, Control_c, 0, 64, 117
1, 600659, Note_on_c, 0, 35, 62
1, 600659, Note_on_c, 0, 59, 66
1, 600660, Note_on_c, 0, 42, 67
1, 600666, Control_c, 0, 64, 100
1, 600669, Note_on_c, 0, 39, 61
1, 600682, Control_c, 0, 64, 89
1, 600697, Control_c, 0, 64, 80
1, 600701, Note_off_c, 0, 59, 47
1, 600712, Control_c, 0, 64, 72
1, 600714, Note_on_c, 0, 54, 60
1, 600727, Control_c, 0, 64, 65
1, 600739, Note_off_c, 0, 54, 55
1, 600741, Control_c, 0, 64, 59
1, 600744, Note_off_c, 0, 39, 54
1, 600750, Note_off_c, 0, 35, 52
1, 600756, Control_c, 0, 64, 54
1, 600759, Note_off_c, 0, 42, 58
1, 600764, Note_on_c, 0, 51, 57
1, 600771, Control_c, 0, 64, 55
1, 600786, Control_c, 0, 64, 54
1, 600798, Note_off_c, 0, 51, 63
1, 600801, Control_c, 0, 64, 49
1, 600808, Note_on_c, 0, 47, 59
1, 600815, Control_c, 0, 64, 34
1, 600830, Control_c, 0, 64, 0
1, 600844, Note_off_c, 0, 47, 64
1, 600890, Note_on_c, 0, 40, 53
1, 600899, Note_on_c, 0, 46, 59
1, 600913, Note_on_c, 0, 43, 18
1, 600923, Note_off_c, 0, 40, 62
1, 600934, Note_off_c, 0, 46, 63
1, 600953, Note_on_c, 0, 47, 48
1, 600990, Note_off_c, 0, 43, 0
1, 600997, Note_on_c, 0, 49, 58
1, 601003, Note_off_c, 0, 47, 63
1, 601008, Note_on_c, 0, 43, 22
1, 601013, Note_on_c, 0, 40, 45
1, 601030, Note_on_c, 0, 46, 70
1, 601031, Note_off_c, 0, 49, 63
1, 601046, Note_off_c, 0, 40, 48
1, 601051, Note_off_c, 0, 43, 44
1, 601065, Note_off_c, 0, 46, 63
1, 601128, Note_on_c, 0, 35, 57
1, 601131, Note_on_c, 0, 42, 62
1, 601141, Control_c, 0, 64, 61
1, 601143, Note_on_c, 0, 39, 46
1, 601154, Note_on_c, 0, 59, 25
1, 601156, Control_c, 0, 64, 71
1, 601171, Control_c, 0, 64, 77
1, 601185, Note_on_c, 0, 54, 66
1, 601186, Control_c, 0, 64, 82
1, 601191, Note_off_c, 0, 59, 51
1, 601200, Note_off_c, 0, 35, 55
1, 601200, Control_c, 0, 64, 84
1, 601215, Control_c, 0, 64, 85
1, 601220, Note_off_c, 0, 39, 52
1, 601230, Control_c, 0, 64, 86
1, 601233, Note_off_c, 0, 54, 59
1, 601236, Note_on_c, 0, 51, 55
1, 601243, Note_off_c, 0, 42, 56
1, 601266, Note_off_c, 0, 51, 60
1, 601291, Note_on_c, 0, 47, 54
1, 601326, Note_off_c, 0, 47, 62
1, 601375, Note_on_c, 0, 46, 57
1, 601382, Note_on_c, 0, 40, 59
1, 601385, Note_on_c, 0, 43, 51
1, 601410, Note_off_c, 0, 46, 58
1, 601421, Note_off_c, 0, 40, 64
1, 601424, Note_on_c, 0, 47, 58
1, 601426, Note_off_c, 0, 43, 54
1, 601459, Control_c, 0, 64, 85
1, 601474, Control_c, 0, 64, 84
1, 601476, Note_on_c, 0, 49, 56
1, 601489, Note_off_c, 0, 47, 58
1, 601490, Control_c, 0, 64, 80
1, 601504, Note_on_c, 0, 40, 51
1, 601505, Control_c, 0, 64, 75
1, 601507, Note_on_c, 0, 46, 66
1, 601519, Note_off_c, 0, 49, 63
1, 601520, Control_c, 0, 64, 67
1, 601532, Note_off_c, 0, 40, 54
1, 601535, Control_c, 0, 64, 0
1, 601543, Note_off_c, 0, 46, 64
1, 601616, Note_on_c, 0, 42, 61
1, 601621, Note_on_c, 0, 35, 55
1, 601624, Note_on_c, 0, 59, 55
1, 601629, Note_on_c, 0, 39, 50
1, 601661, Note_off_c, 0, 59, 60
1, 601669, Note_on_c, 0, 54, 61
1, 601722, Note_off_c, 0, 54, 62
1, 601769, Note_on_c, 0, 47, 56
1, 601803, Note_off_c, 0, 47, 63
1, 601851, Note_on_c, 0, 46, 66
1, 601883, Note_off_c, 0, 46, 63
1, 601898, Note_on_c, 0, 47, 58
1, 601955, Note_off_c, 0, 47, 60
1, 601969, Note_on_c, 0, 48, 61
1, 602008, Note_off_c, 0, 48, 68
1, 602021, Note_on_c, 0, 49, 63
1, 602053, Note_off_c, 0, 35, 56
1, 602054, Note_off_c, 0, 49, 64
1, 602070, Note_off_c, 0, 39, 60
1, 602086, Note_on_c, 0, 50, 54
1, 602090, Note_off_c, 0, 42, 62
1, 602112, Note_off_c, 0, 50, 57
1, 602139, Note_on_c, 0, 51, 64
1, 602172, Note_off_c, 0, 51, 65
1, 602212, Note_on_c, 0, 52, 58
1, 602251, Note_off_c, 0, 52, 65
1, 602267, Note_on_c, 0, 53, 65
1, 602314, Note_off_c, 0, 53, 65
1, 602317, Note_on_c, 0, 47, 62
1, 602317, Note_on_c, 0, 51, 62
1, 602330, Note_on_c, 0, 54, 57
1, 602366, Note_off_c, 0, 54, 63
1, 602392, Note_on_c, 0, 55, 55
1, 602393, Note_off_c, 0, 51, 62
1, 602405, Note_off_c, 0, 47, 56
1, 602426, Note_off_c, 0, 55, 65
1, 602447, Note_on_c, 0, 56, 68
1, 602470, Note_on_c, 0, 51, 63
1, 602477, Note_on_c, 0, 47, 41
1, 602480, Note_off_c, 0, 56, 65
1, 602499, Note_off_c, 0, 51, 63
1, 602511, Note_off_c, 0, 47, 63
1, 602517, Note_on_c, 0, 57, 61
1, 602546, Note_off_c, 0, 57, 62
1, 602550, Control_c, 0, 64, 28
1, 602562, Note_on_c, 0, 51, 72
1, 602562, Note_on_c, 0, 54, 72
1, 602565, Control_c, 0, 64, 66
1, 602573, Note_on_c, 0, 47, 50
1, 602580, Control_c, 0, 64, 72
1, 602595, Control_c, 0, 64, 77
1, 602608, Note_on_c, 0, 59, 41
1, 602610, Control_c, 0, 64, 81
1, 602624, Control_c, 0, 64, 83
1, 602639, Control_c, 0, 64, 86
1, 602649, Poly_aftertouch_c, 0, 58, 0
1, 602654, Control_c, 0, 64, 87
1, 602669, Control_c, 0, 64, 89
1, 602684, Note_off_c, 0, 59, 62
1, 602699, Control_c, 0, 64, 89
1, 602705, Note_off_c, 0, 47, 60
1, 602705, Note_on_c, 0, 60, 64
1, 602714, Note_off_c, 0, 51, 57
1, 602720, Note_off_c, 0, 54, 59
1, 602729, Control_c, 0, 64, 90
1, 602744, Control_c, 0, 64, 90
1, 602746, Note_off_c, 0, 60, 61
1, 602756, Note_on_c, 0, 61, 69
1, 602774, Control_c, 0, 64, 90
1, 602788, Control_c, 0, 64, 84
1, 602796, Note_off_c, 0, 61, 61
1, 602803, Control_c, 0, 64, 73
1, 602816, Note_on_c, 0, 54, 69
1, 602817, Note_on_c, 0, 47, 63
1, 602818, Control_c, 0, 64, 48
1, 602821, Note_on_c, 0, 51, 67
1, 602821, Note_on_c, 0, 62, 55
1, 602832, Control_c, 0, 64, 0
1, 602860, Note_off_c, 0, 62, 60
1, 602862, Control_c, 0, 64, 62
1, 602873, Note_on_c, 0, 63, 71
1, 602877, Control_c, 0, 64, 70
1, 602892, Control_c, 0, 64, 77
1, 602914, Note_off_c, 0, 63, 66
1, 602914, Control_c, 0, 64, 83
1, 602929, Control_c, 0, 64, 86
1, 602944, Control_c, 0, 64, 88
1, 602953, Note_on_c, 0, 64, 65
1, 602959, Control_c, 0, 64, 89
1, 602966, Note_off_c, 0, 54, 57
1, 602971, Note_off_c, 0, 51, 54
1, 602986, Note_off_c, 0, 47, 37
1, 602988, Control_c, 0, 64, 90
1, 602990, Note_off_c, 0, 64, 62
1, 603003, Control_c, 0, 64, 90
1, 603012, Note_on_c, 0, 65, 58
1, 603018, Control_c, 0, 64, 91
1, 603053, Note_off_c, 0, 65, 65
1, 603062, Control_c, 0, 64, 88
1, 603064, Note_on_c, 0, 66, 70
1, 603078, Control_c, 0, 64, 78
1, 603087, Note_on_c, 0, 59, 76
1, 603093, Control_c, 0, 64, 64
1, 603093, Note_on_c, 0, 54, 66
1, 603100, Note_on_c, 0, 51, 64
1, 603101, Note_on_c, 0, 47, 61
1, 603108, Note_off_c, 0, 66, 66
1, 603108, Control_c, 0, 64, 0
1, 603132, Note_on_c, 0, 67, 57
1, 603156, Note_off_c, 0, 67, 62
1, 603167, Control_c, 0, 64, 62
1, 603182, Control_c, 0, 64, 71
1, 603196, Note_on_c, 0, 68, 68
1, 603197, Control_c, 0, 64, 77
1, 603211, Control_c, 0, 64, 79
1, 603226, Control_c, 0, 64, 80
1, 603229, Note_off_c, 0, 68, 64
1, 603241, Control_c, 0, 64, 80
1, 603242, Note_off_c, 0, 59, 58
1, 603255, Control_c, 0, 64, 81
1, 603258, Note_on_c, 0, 69, 58
1, 603259, Note_off_c, 0, 54, 54
1, 603262, Note_off_c, 0, 47, 49
1, 603270, Control_c, 0, 64, 83
1, 603277, Note_off_c, 0, 51, 48
1, 603284, Note_off_c, 0, 69, 59
1, 603285, Control_c, 0, 64, 84
1, 603300, Control_c, 0, 64, 85
1, 603326, Note_on_c, 0, 70, 68
1, 603329, Control_c, 0, 64, 83
1, 603344, Control_c, 0, 64, 74
1, 603346, Note_on_c, 0, 51, 50
1, 603349, Note_on_c, 0, 59, 72
1, 603352, Note_off_c, 0, 70, 63
1, 603354, Note_on_c, 0, 47, 52
1, 603359, Control_c, 0, 64, 58
1, 603360, Note_on_c, 0, 54, 59
1, 603374, Control_c, 0, 64, 0
1, 603386, Note_on_c, 0, 71, 52
1, 603418, Control_c, 0, 64, 61
1, 603428, Note_off_c, 0, 71, 56
1, 603433, Control_c, 0, 64, 70
1, 603448, Control_c, 0, 64, 74
1, 603449, Note_on_c, 0, 72, 65
1, 603462, Control_c, 0, 64, 76
1, 603477, Control_c, 0, 64, 76
1, 603483, Note_off_c, 0, 59, 58
1, 603495, Note_off_c, 0, 72, 64
1, 603496, Note_off_c, 0, 51, 55
1, 603501, Note_on_c, 0, 73, 73
1, 603502, Note_off_c, 0, 47, 54
1, 603509, Note_off_c, 0, 54, 54
1, 603544, Note_off_c, 0, 73, 62
1, 603552, Control_c, 0, 64, 76
1, 603567, Control_c, 0, 64, 71
1, 603582, Control_c, 0, 64, 60
1, 603586, Note_on_c, 0, 74, 53
1, 603597, Control_c, 0, 64, 0
1, 603599, Note_on_c, 0, 59, 69
1, 603605, Note_on_c, 0, 54, 66
1, 603607, Note_on_c, 0, 47, 59
1, 603615, Note_off_c, 0, 74, 59
1, 603620, Note_on_c, 0, 50, 55
1, 603636, Note_on_c, 0, 75, 68
1, 603674, Note_off_c, 0, 75, 65
1, 603707, Control_c, 0, 64, 61
1, 603711, Note_on_c, 0, 76, 62
1, 603722, Control_c, 0, 64, 71
1, 603737, Control_c, 0, 64, 81
1, 603752, Control_c, 0, 64, 87
1, 603759, Note_off_c, 0, 76, 65
1, 603767, Control_c, 0, 64, 90
1, 603773, Note_on_c, 0, 77, 62
1, 603781, Control_c, 0, 64, 92
1, 603796, Control_c, 0, 64, 94
1, 603811, Control_c, 0, 64, 97
1, 603811, Note_off_c, 0, 77, 59
1, 603820, Note_on_c, 0, 78, 75
1, 603825, Control_c, 0, 64, 101
1, 603840, Control_c, 0, 64, 104
1, 603854, Control_c, 0, 64, 107
1, 603855, Note_off_c, 0, 78, 62
1, 603869, Control_c, 0, 64, 109
1, 603885, Control_c, 0, 64, 110
1, 603886, Note_on_c, 0, 79, 66
1, 603915, Control_c, 0, 64, 111
1, 603921, Note_off_c, 0, 79, 58
1, 603943, Note_on_c, 0, 80, 76
1, 603959, Control_c, 0, 64, 111
1, 603970, Note_off_c, 0, 80, 61
1, 603974, Control_c, 0, 64, 112
1, 603989, Control_c, 0, 64, 112
1, 604013, Note_on_c, 0, 81, 68
1, 604019, Control_c, 0, 64, 113
1, 604042, Note_off_c, 0, 81, 59
1, 604063, Control_c, 0, 64, 113
1, 604068, Note_on_c, 0, 82, 69
1, 604086, Note_off_c, 0, 59, 32
1, 604099, Note_off_c, 0, 82, 64
1, 604110, Note_off_c, 0, 47, 27
1, 604130, Note_on_c, 0, 83, 68
1, 604130, Note_off_c, 0, 54, 25
1, 604182, Note_off_c, 0, 83, 55
1, 604192, Note_on_c, 0, 84, 66
1, 604236, Note_off_c, 0, 50, 23
1, 604246, Note_off_c, 0, 84, 64
1, 604249, Note_on_c, 0, 85, 73
1, 604270, Control_c, 0, 64, 112
1, 604285, Control_c, 0, 64, 102
1, 604291, Note_on_c, 0, 50, 54
1, 604291, Note_on_c, 0, 59, 79
1, 604293, Note_on_c, 0, 54, 71
1, 604297, Note_off_c, 0, 85, 61
1, 604300, Control_c, 0, 64, 84
1, 604301, Note_on_c, 0, 47, 70
1, 604315, Control_c, 0, 64, 72
1, 604323, Note_on_c, 0, 86, 68
1, 604330, Control_c, 0, 64, 68
1, 604344, Control_c, 0, 64, 70
1, 604359, Control_c, 0, 64, 75
1, 604368, Note_off_c, 0, 86, 62
1, 604374, Control_c, 0, 64, 83
1, 604381, Note_on_c, 0, 87, 74
1, 604389, Control_c, 0, 64, 92
1, 604410, Control_c, 0, 64, 97
1, 604416, Note_off_c, 0, 59, 59
1, 604425, Note_off_c, 0, 47, 58
1, 604425, Control_c, 0, 64, 101
1, 604431, Note_off_c, 0, 54, 61
1, 604432, Note_off_c, 0, 87, 58
1, 604434, Note_off_c, 0, 50, 61
1, 604440, Control_c, 0, 64, 103
1, 604455, Control_c, 0, 64, 106
1, 604458, Note_on_c, 0, 88, 70
1, 604470, Control_c, 0, 64, 109
1, 604489, Note_on_c, 0, 54, 65
1, 604489, Note_on_c, 0, 59, 70
1, 604493, Note_on_c, 0, 47, 54
1, 604498, Note_on_c, 0, 50, 50
1, 604500, Control_c, 0, 64, 106
1, 604512, Note_off_c, 0, 59, 66
1, 604512, Note_off_c, 0, 88, 61
1, 604515, Control_c, 0, 64, 94
1, 604518, Note_on_c, 0, 89, 73
1, 604518, Note_off_c, 0, 54, 64
1, 604524, Note_off_c, 0, 50, 60
1, 604528, Note_off_c, 0, 47, 59
1, 604530, Control_c, 0, 64, 78
1, 604545, Control_c, 0, 64, 64
1, 604559, Control_c, 0, 64, 49
1, 604565, Note_on_c, 0, 59, 77
1, 604571, Note_off_c, 0, 89, 65
1, 604574, Control_c, 0, 64, 63
1, 604575, Poly_aftertouch_c, 0, 47, 0
1, 604577, Note_on_c, 0, 54, 82
1, 604577, Note_on_c, 0, 90, 75
1, 604586, Note_on_c, 0, 50, 67
1, 604589, Control_c, 0, 64, 72
1, 604603, Control_c, 0, 64, 81
1, 604611, Note_off_c, 0, 90, 64
1, 604612, Poly_aftertouch_c, 0, 47, 127
1, 604618, Control_c, 0, 64, 92
1, 604633, Control_c, 0, 64, 100
1, 604642, Note_on_c, 0, 91, 66
1, 604648, Control_c, 0, 64, 104
1, 604663, Control_c, 0, 64, 106
1, 604679, Control_c, 0, 64, 107
1, 604694, Control_c, 0, 64, 108
1, 604708, Control_c, 0, 64, 109
1, 604723, Control_c, 0, 64, 109
1, 604726, Note_off_c, 0, 91, 0
1, 604730, Poly_aftertouch_c, 0, 47, 0
1, 604735, Note_off_c, 0, 59, 58
1, 604759, Poly_aftertouch_c, 0, 91, 0
1, 604774, Note_off_c, 0, 54, 59
1, 604780, Note_off_c, 0, 50, 51
1, 604812, Control_c, 0, 64, 103
1, 604818, Poly_aftertouch_c, 0, 91, 0
1, 604826, Control_c, 0, 64, 89
1, 604832, Note_on_c, 0, 59, 83
1, 604833, Note_on_c, 0, 54, 69
1, 604834, Note_on_c, 0, 50, 50
1, 604839, Note_on_c, 0, 47, 75
1, 604841, Control_c, 0, 64, 73
1, 604856, Control_c, 0, 64, 61
1, 604871, Control_c, 0, 64, 64
1, 604886, Note_on_c, 0, 95, 75
1, 604886, Control_c, 0, 64, 73
1, 604900, Control_c, 0, 64, 85
1, 604915, Control_c, 0, 64, 100
1, 604930, Control_c, 0, 64, 109
1, 604945, Control_c, 0, 64, 110
1, 604957, Note_on_c, 0, 96, 77
1, 604959, Note_off_c, 0, 47, 52
1, 604960, Control_c, 0, 64, 111
1, 604974, Control_c, 0, 64, 111
1, 604977, Note_off_c, 0, 95, 37
1, 604979, Note_off_c, 0, 59, 54
1, 604999, Note_off_c, 0, 54, 52
1, 605006, Note_off_c, 0, 96, 64
1, 605008, Note_on_c, 0, 97, 75
1, 605033, Control_c, 0, 64, 112
1, 605048, Control_c, 0, 64, 112
1, 605063, Control_c, 0, 64, 109
1, 605072, Note_off_c, 0, 50, 0
1, 605078, Control_c, 0, 64, 95
1, 605084, Note_on_c, 0, 59, 81
1, 605086, Note_on_c, 0, 50, 49
1, 605087, Note_on_c, 0, 47, 69
1, 605087, Note_on_c, 0, 54, 74
1, 605090, Note_on_c, 0, 98, 83
1, 605093, Control_c, 0, 64, 77
1, 605096, Note_off_c, 0, 97, 62
1, 605108, Control_c, 0, 64, 49
1, 605123, Control_c, 0, 64, 0
1, 605155, Note_off_c, 0, 98, 59
1, 605158, Note_on_c, 0, 97, 68
1, 605160, Control_c, 0, 64, 63
1, 605174, Control_c, 0, 64, 73
1, 605189, Control_c, 0, 64, 84
1, 605204, Control_c, 0, 64, 94
1, 605219, Control_c, 0, 64, 101
1, 605231, Note_off_c, 0, 59, 55
1, 605232, Note_off_c, 0, 97, 65
1, 605233, Control_c, 0, 64, 104
1, 605241, Note_on_c, 0, 98, 67
1, 605245, Note_off_c, 0, 47, 58
1, 605248, Control_c, 0, 64, 107
1, 605263, Control_c, 0, 64, 110
1, 605269, Note_off_c, 0, 54, 53
1, 605273, Note_off_c, 0, 98, 48
1, 605278, Control_c, 0, 64, 113
1, 605288, Note_on_c, 0, 97, 70
1, 605293, Control_c, 0, 64, 114
1, 605308, Control_c, 0, 64, 116
1, 605322, Control_c, 0, 64, 117
1, 605329, Note_off_c, 0, 50, 0
1, 605337, Control_c, 0, 64, 119
1, 605342, Note_off_c, 0, 97, 64
1, 605346, Note_on_c, 0, 50, 33
1, 605346, Note_on_c, 0, 59, 76
1, 605352, Note_on_c, 0, 54, 64
1, 605352, Control_c, 0, 64, 122
1, 605353, Note_on_c, 0, 98, 75
1, 605356, Note_on_c, 0, 47, 68
1, 605367, Control_c, 0, 64, 123
1, 605381, Control_c, 0, 64, 124
1, 605384, Note_off_c, 0, 59, 52
1, 605396, Control_c, 0, 64, 125
1, 605397, Note_off_c, 0, 54, 53
1, 605398, Note_off_c, 0, 47, 63
1, 605401, Note_off_c, 0, 50, 63
1, 605411, Control_c, 0, 64, 126
1, 605412, Note_on_c, 0, 97, 73
1, 605413, Note_off_c, 0, 98, 65
1, 605465, Note_off_c, 0, 97, 65
1, 605475, Note_on_c, 0, 98, 56
1, 605498, Note_on_c, 0, 43, 74
1, 605516, Control_c, 0, 64, 126
1, 605535, Note_on_c, 0, 96, 80
1, 605541, Note_off_c, 0, 98, 62
1, 605550, Note_off_c, 0, 43, 62
1, 605557, Note_on_c, 0, 50, 77
1, 605578, Note_off_c, 0, 96, 63
1, 605587, Note_on_c, 0, 53, 69
1, 605604, Note_on_c, 0, 95, 74
1, 605604, Control_c, 0, 64, 123
1, 605619, Control_c, 0, 64, 110
1, 605634, Control_c, 0, 64, 92
1, 605636, Note_on_c, 0, 59, 90
1, 605648, Control_c, 0, 64, 76
1, 605662, Note_on_c, 0, 96, 75
1, 605663, Control_c, 0, 64, 61
1, 605667, Note_off_c, 0, 95, 60
1, 605678, Control_c, 0, 64, 0
1, 605693, Control_c, 0, 67, 10
1, 605708, Control_c, 0, 67, 14
1, 605722, Control_c, 0, 67, 16
1, 605727, Note_on_c, 0, 98, 76
1, 605737, Control_c, 0, 67, 17
1, 605743, Note_off_c, 0, 96, 63
1, 605767, Control_c, 0, 67, 16
1, 605769, Note_on_c, 0, 100, 70
1, 605782, Note_off_c, 0, 98, 66
1, 605782, Control_c, 0, 67, 16
1, 605818, Note_on_c, 0, 101, 75
1, 605829, Note_off_c, 0, 100, 65
1, 605868, Note_off_c, 0, 101, 64
1, 605877, Note_on_c, 0, 100, 67
1, 605886, Control_c, 0, 67, 16
1, 605937, Control_c, 0, 67, 16
1, 605949, Note_on_c, 0, 98, 65
1, 605979, Note_off_c, 0, 100, 59
1, 605987, Note_on_c, 0, 96, 70
1, 605996, Control_c, 0, 67, 16
1, 606011, Note_off_c, 0, 98, 66
1, 606038, Note_off_c, 0, 96, 63
1, 606045, Note_on_c, 0, 95, 64
1, 606065, Note_off_c, 0, 95, 66
1, 606103, Note_on_c, 0, 93, 82
1, 606130, Control_c, 0, 67, 17
1, 606145, Control_c, 0, 67, 17
1, 606167, Note_on_c, 0, 91, 72
1, 606174, Control_c, 0, 67, 18
1, 606199, Note_off_c, 0, 93, 60
1, 606204, Control_c, 0, 67, 17
1, 606214, Note_on_c, 0, 89, 64
1, 606228, Note_off_c, 0, 91, 60
1, 606255, Note_off_c, 0, 89, 66
1, 606264, Note_on_c, 0, 88, 62
1, 606291, Note_off_c, 0, 88, 67
1, 606324, Control_c, 0, 67, 17
1, 606327, Note_on_c, 0, 86, 75
1, 606339, Control_c, 0, 67, 16
1, 606388, Note_on_c, 0, 84, 66
1, 606418, Note_off_c, 0, 86, 59
1, 606427, Control_c, 0, 67, 16
1, 606435, Note_on_c, 0, 83, 65
1, 606450, Note_off_c, 0, 84, 64
1, 606480, Note_off_c, 0, 83, 61
1, 606489, Note_on_c, 0, 81, 62
1, 606521, Note_off_c, 0, 81, 63
1, 606531, Control_c, 0, 67, 15
1, 606554, Note_on_c, 0, 79, 71
1, 606610, Note_on_c, 0, 77, 66
1, 606649, Note_off_c, 0, 79, 54
1, 606667, Note_on_c, 0, 76, 63
1, 606680, Note_off_c, 0, 77, 61
1, 606701, Note_off_c, 0, 76, 63
1, 606718, Note_on_c, 0, 74, 60
1, 606746, Control_c, 0, 67, 15
1, 606753, Note_off_c, 0, 74, 58
1, 606786, Note_on_c, 0, 73, 71
1, 606816, Note_off_c, 0, 73, 65
1, 606853, Note_on_c, 0, 74, 52
1, 606885, Note_off_c, 0, 74, 63
1, 606894, Control_c, 0, 67, 14
1, 606900, Note_on_c, 0, 76, 67
1, 606924, Control_c, 0, 67, 14
1, 606927, Note_off_c, 0, 59, 51
1, 606930, Note_off_c, 0, 50, 50
1, 606950, Note_off_c, 0, 53, 54
1, 606953, Control_c, 0, 67, 13
1, 606954, Note_on_c, 0, 77, 64
1, 606956, Note_off_c, 0, 76, 65
1, 606983, Control_c, 0, 67, 13
1, 606999, Note_off_c, 0, 77, 63
1, 607002, Note_on_c, 0, 78, 68
1, 607028, Note_off_c, 0, 78, 68
1, 607072, Note_on_c, 0, 79, 67
1, 607125, Note_off_c, 0, 79, 61
1, 607133, Note_on_c, 0, 80, 71
1, 607204, Note_off_c, 0, 80, 62
1, 607213, Note_on_c, 0, 81, 68
1, 607221, Control_c, 0, 67, 13
1, 607285, Note_on_c, 0, 83, 57
1, 607292, Note_off_c, 0, 81, 60
1, 607314, Note_off_c, 0, 83, 64
1, 607411, Note_on_c, 0, 84, 67
1, 607442, Note_off_c, 0, 84, 64
1, 607467, Note_on_c, 0, 83, 61
1, 607527, Note_on_c, 0, 81, 65
1, 607552, Note_on_c, 0, 60, 57
1, 607554, Note_off_c, 0, 83, 40
1, 607558, Note_on_c, 0, 64, 50
1, 607570, Note_off_c, 0, 81, 61
1, 607573, Note_off_c, 0, 60, 61
1, 607578, Note_off_c, 0, 64, 59
1, 607579, Note_on_c, 0, 79, 55
1, 607599, Control_c, 0, 67, 13
1, 607606, Note_off_c, 0, 79, 58
1, 607656, Note_on_c, 0, 78, 59
1, 607659, Note_on_c, 0, 60, 51
1, 607666, Note_on_c, 0, 63, 53
1, 607682, Note_off_c, 0, 60, 56
1, 607683, Note_off_c, 0, 78, 60
1, 607685, Note_off_c, 0, 63, 62
1, 607702, Note_on_c, 0, 81, 64
1, 607767, Note_on_c, 0, 60, 62
1, 607775, Note_on_c, 0, 79, 61
1, 607776, Note_off_c, 0, 81, 59
1, 607776, Control_c, 0, 67, 12
1, 607786, Note_on_c, 0, 64, 51
1, 607797, Note_off_c, 0, 60, 65
1, 607808, Note_off_c, 0, 64, 59
1, 607815, Note_off_c, 0, 79, 60
1, 607830, Note_on_c, 0, 76, 59
1, 607850, Control_c, 0, 67, 12
1, 607865, Note_off_c, 0, 76, 54
1, 607887, Note_on_c, 0, 60, 57
1, 607891, Note_on_c, 0, 66, 63
1, 607892, Note_on_c, 0, 75, 64
1, 607911, Note_off_c, 0, 60, 61
1, 607911, Note_off_c, 0, 66, 67
1, 607922, Note_off_c, 0, 75, 68
1, 607944, Note_on_c, 0, 77, 65
1, 608006, Note_on_c, 0, 60, 61
1, 608008, Note_on_c, 0, 76, 68
1, 608012, Note_on_c, 0, 67, 62
1, 608019, Note_off_c, 0, 77, 59
1, 608036, Note_off_c, 0, 67, 65
1, 608036, Note_off_c, 0, 60, 64
1, 608053, Note_off_c, 0, 76, 66
1, 608059, Control_c, 0, 67, 11
1, 608061, Note_on_c, 0, 72, 54
1, 608097, Note_off_c, 0, 72, 58
1, 608119, Note_on_c, 0, 71, 67
1, 608123, Note_on_c, 0, 60, 60
1, 608128, Note_on_c, 0, 63, 57
1, 608160, Note_off_c, 0, 60, 58
1, 608163, Note_off_c, 0, 63, 66
1, 608170, Note_off_c, 0, 71, 60
1, 608190, Note_on_c, 0, 74, 63
1, 608244, Control_c, 0, 67, 12
1, 608246, Note_on_c, 0, 60, 68
1, 608253, Note_on_c, 0, 72, 57
1, 608256, Note_off_c, 0, 74, 64
1, 608262, Note_on_c, 0, 64, 52
1, 608280, Note_off_c, 0, 60, 60
1, 608283, Note_off_c, 0, 64, 63
1, 608289, Note_off_c, 0, 72, 66
1, 608300, Note_on_c, 0, 67, 60
1, 608336, Note_off_c, 0, 67, 59
1, 608359, Note_on_c, 0, 64, 67
1, 608367, Note_on_c, 0, 72, 52
1, 608373, Note_on_c, 0, 60, 59
1, 608387, Note_off_c, 0, 64, 66
1, 608402, Note_off_c, 0, 60, 63
1, 608408, Note_on_c, 0, 71, 58
1, 608408, Note_off_c, 0, 72, 65
1, 608455, Note_off_c, 0, 71, 61
1, 608470, Note_on_c, 0, 69, 56
1, 608479, Note_on_c, 0, 62, 67
1, 608482, Note_on_c, 0, 60, 54
1, 608486, Note_on_c, 0, 65, 58
1, 608503, Note_off_c, 0, 69, 62
1, 608508, Note_off_c, 0, 65, 66
1, 608516, Note_off_c, 0, 60, 62
1, 608518, Note_off_c, 0, 62, 60
1, 608525, Note_on_c, 0, 68, 64
1, 608558, Note_off_c, 0, 68, 67
1, 608583, Note_on_c, 0, 69, 64
1, 608586, Note_on_c, 0, 65, 67
1, 608593, Note_on_c, 0, 62, 55
1, 608611, Note_on_c, 0, 60, 43
1, 608615, Note_off_c, 0, 65, 68
1, 608623, Note_off_c, 0, 69, 64
1, 608631, Note_off_c, 0, 62, 63
1, 608635, Note_on_c, 0, 70, 69
1, 608635, Note_off_c, 0, 60, 56
1, 608677, Note_off_c, 0, 70, 65
1, 608700, Note_on_c, 0, 65, 58
1, 608710, Note_on_c, 0, 62, 58
1, 608714, Note_on_c, 0, 71, 65
1, 608733, Note_off_c, 0, 65, 67
1, 608743, Note_off_c, 0, 62, 63
1, 608748, Note_off_c, 0, 71, 57
1, 608763, Note_on_c, 0, 72, 55
1, 608792, Note_off_c, 0, 72, 62
1, 608802, Note_on_c, 0, 73, 70
1, 608823, Note_on_c, 0, 60, 26
1, 608824, Note_on_c, 0, 65, 60
1, 608825, Note_on_c, 0, 62, 58
1, 608829, Note_on_c, 0, 69, 63
1, 608835, Note_off_c, 0, 73, 65
1, 608860, Note_off_c, 0, 65, 65
1, 608860, Note_off_c, 0, 69, 68
1, 608866, Note_off_c, 0, 60, 61
1, 608866, Note_off_c, 0, 62, 62
1, 608872, Note_on_c, 0, 74, 56
1, 608908, Note_off_c, 0, 74, 54
1, 608935, Note_on_c, 0, 75, 67
1, 608951, Note_on_c, 0, 69, 59
1, 608957, Note_on_c, 0, 65, 57
1, 608961, Note_off_c, 0, 75, 69
1, 608965, Note_on_c, 0, 62, 53
1, 608973, Note_on_c, 0, 60, 46
1, 608980, Note_off_c, 0, 69, 67
1, 608985, Note_off_c, 0, 65, 66
1, 608994, Note_off_c, 0, 62, 62
1, 608998, Note_off_c, 0, 60, 58
1, 608999, Note_on_c, 0, 76, 65
1, 609045, Note_off_c, 0, 76, 65
1, 609056, Note_on_c, 0, 69, 63
1, 609061, Note_on_c, 0, 77, 62
1, 609067, Control_c, 0, 67, 12
1, 609067, Note_on_c, 0, 65, 60
1, 609076, Note_on_c, 0, 62, 56
1, 609076, Note_off_c, 0, 69, 67
1, 609079, Note_on_c, 0, 60, 43
1, 609081, Control_c, 0, 67, 13
1, 609096, Note_off_c, 0, 65, 68
1, 609104, Note_off_c, 0, 60, 52
1, 609108, Note_off_c, 0, 77, 61
1, 609111, Control_c, 0, 67, 13
1, 609111, Note_off_c, 0, 62, 63
1, 609114, Note_on_c, 0, 78, 67
1, 609155, Control_c, 0, 67, 13
1, 609163, Note_off_c, 0, 78, 62
1, 609169, Note_on_c, 0, 79, 62
1, 609170, Control_c, 0, 67, 12
1, 609185, Note_on_c, 0, 67, 82
1, 609185, Control_c, 0, 67, 11
1, 609186, Note_on_c, 0, 65, 70
1, 609188, Note_on_c, 0, 62, 68
1, 609192, Note_on_c, 0, 59, 65
1, 609199, Control_c, 0, 67, 10
1, 609209, Note_off_c, 0, 79, 56
1, 609214, Control_c, 0, 64, 65
1, 609214, Control_c, 0, 67, 9
1, 609229, Control_c, 0, 64, 77
1, 609229, Control_c, 0, 67, 0
1, 609244, Control_c, 0, 64, 91
1, 609245, Note_on_c, 0, 78, 64
1, 609259, Control_c, 0, 64, 102
1, 609273, Control_c, 0, 64, 107
1, 609281, Note_off_c, 0, 59, 58
1, 609283, Note_off_c, 0, 78, 56
1, 609288, Control_c, 0, 64, 108
1, 609303, Control_c, 0, 64, 110
1, 609315, Note_on_c, 0, 81, 67
1, 609318, Control_c, 0, 64, 112
1, 609323, Note_off_c, 0, 67, 54
1, 609333, Control_c, 0, 64, 113
1, 609347, Control_c, 0, 64, 113
1, 609362, Control_c, 0, 64, 114
1, 609369, Note_off_c, 0, 62, 55
1, 609374, Note_on_c, 0, 79, 57
1, 609377, Control_c, 0, 64, 114
1, 609393, Note_off_c, 0, 81, 56
1, 609402, Note_off_c, 0, 65, 61
1, 609419, Note_off_c, 0, 79, 56
1, 609421, Control_c, 0, 64, 112
1, 609436, Control_c, 0, 64, 101
1, 609437, Note_on_c, 0, 76, 66
1, 609440, Note_on_c, 0, 64, 68
1, 609443, Note_on_c, 0, 67, 62
1, 609445, Note_on_c, 0, 60, 64
1, 609451, Control_c, 0, 64, 86
1, 609463, Note_off_c, 0, 64, 66
1, 609463, Note_off_c, 0, 67, 63
1, 609467, Control_c, 0, 64, 68
1, 609475, Note_off_c, 0, 60, 65
1, 609480, Note_off_c, 0, 76, 62
1, 609482, Control_c, 0, 64, 0
1, 609519, Note_on_c, 0, 79, 59
1, 609565, Note_on_c, 0, 77, 64
1, 609570, Note_off_c, 0, 79, 51
1, 609618, Note_on_c, 0, 76, 59
1, 609631, Note_off_c, 0, 77, 60
1, 609678, Note_off_c, 0, 76, 66
1, 609687, Note_on_c, 0, 59, 71
1, 609688, Note_on_c, 0, 74, 60
1, 609690, Note_on_c, 0, 56, 69
1, 609710, Note_off_c, 0, 59, 66
1, 609714, Note_off_c, 0, 56, 66
1, 609722, Note_off_c, 0, 74, 58
1, 609752, Note_on_c, 0, 77, 63
1, 609808, Note_on_c, 0, 76, 64
1, 609813, Note_off_c, 0, 77, 50
1, 609862, Note_on_c, 0, 74, 56
1, 609877, Note_off_c, 0, 76, 65
1, 609913, Note_off_c, 0, 74, 66
1, 609922, Note_on_c, 0, 72, 65
1, 609928, Note_on_c, 0, 57, 71
1, 609930, Note_on_c, 0, 60, 65
1, 609953, Note_off_c, 0, 57, 65
1, 609958, Note_off_c, 0, 60, 66
1, 609964, Note_off_c, 0, 72, 55
1, 609992, Note_on_c, 0, 76, 61
1, 610045, Note_on_c, 0, 74, 62
1, 610066, Note_off_c, 0, 76, 51
1, 610097, Note_on_c, 0, 72, 63
1, 610110, Note_off_c, 0, 74, 63
1, 610147, Note_off_c, 0, 72, 65
1, 610164, Note_on_c, 0, 71, 57
1, 610165, Note_on_c, 0, 55, 68
1, 610170, Note_on_c, 0, 52, 62
1, 610190, Note_off_c, 0, 55, 68
1, 610200, Note_off_c, 0, 52, 67
1, 610206, Note_off_c, 0, 71, 58
1, 610223, Note_on_c, 0, 74, 59
1, 610264, Note_off_c, 0, 74, 54
1, 610266, Note_on_c, 0, 72, 64
1, 610319, Note_on_c, 0, 71, 64
1, 610321, Note_off_c, 0, 72, 63
1, 610362, Note_off_c, 0, 71, 63
1, 610378, Note_on_c, 0, 69, 57
1, 610408, Note_off_c, 0, 69, 62
1, 610416, Note_on_c, 0, 57, 67
1, 610418, Note_on_c, 0, 53, 66
1, 610420, Note_on_c, 0, 71, 60
1, 610443, Note_off_c, 0, 57, 64
1, 610450, Note_off_c, 0, 53, 67
1, 610451, Note_off_c, 0, 71, 61
1, 610505, Note_on_c, 0, 72, 60
1, 610533, Note_off_c, 0, 72, 52
1, 610571, Note_on_c, 0, 73, 60
1, 610610, Note_off_c, 0, 73, 58
1, 610624, Note_on_c, 0, 74, 61
1, 610638, Note_on_c, 0, 62, 77
1, 610644, Note_on_c, 0, 50, 64
1, 610661, Note_off_c, 0, 62, 67
1, 610675, Note_off_c, 0, 50, 65
1, 610678, Note_on_c, 0, 76, 53
1, 610680, Note_off_c, 0, 74, 63
1, 610729, Note_off_c, 0, 76, 61
1, 610736, Note_on_c, 0, 77, 53
1, 610747, Note_on_c, 0, 62, 66
1, 610749, Note_on_c, 0, 50, 68
1, 610778, Note_off_c, 0, 62, 64
1, 610779, Note_off_c, 0, 50, 64
1, 610781, Note_off_c, 0, 77, 54
1, 610801, Note_on_c, 0, 74, 61
1, 610845, Note_off_c, 0, 74, 62
1, 610847, Note_on_c, 0, 72, 60
1, 610873, Note_on_c, 0, 55, 69
1, 610873, Note_on_c, 0, 59, 72
1, 610892, Note_off_c, 0, 72, 65
1, 610909, Note_on_c, 0, 71, 56
1, 610931, Note_off_c, 0, 55, 57
1, 610940, Note_off_c, 0, 71, 56
1, 610948, Note_off_c, 0, 59, 61
1, 610974, Note_on_c, 0, 81, 72
1, 611039, Note_on_c, 0, 79, 63
1, 611046, Note_off_c, 0, 81, 56
1, 611085, Note_off_c, 0, 79, 58
1, 611091, Note_on_c, 0, 78, 69
1, 611135, Note_off_c, 0, 78, 63
1, 611154, Note_on_c, 0, 79, 57
1, 611199, Note_off_c, 0, 79, 63
1, 611213, Note_on_c, 0, 84, 66
1, 611267, Note_on_c, 0, 83, 65
1, 611282, Note_off_c, 0, 84, 52
1, 611331, Note_off_c, 0, 83, 60
1, 611333, Note_on_c, 0, 81, 63
1, 611337, Note_on_c, 0, 60, 62
1, 611339, Note_on_c, 0, 64, 58
1, 611357, Note_off_c, 0, 64, 64
1, 611359, Note_off_c, 0, 81, 66
1, 611362, Note_off_c, 0, 60, 63
1, 611368, Note_on_c, 0, 79, 65
1, 611401, Note_off_c, 0, 79, 58
1, 611438, Note_on_c, 0, 78, 74
1, 611442, Note_on_c, 0, 60, 65
1, 611450, Note_on_c, 0, 63, 62
1, 611473, Note_off_c, 0, 60, 64
1, 611478, Note_off_c, 0, 63, 67
1, 611481, Note_off_c, 0, 78, 64
1, 611497, Note_on_c, 0, 81, 68
1, 611559, Note_on_c, 0, 79, 67
1, 611568, Note_on_c, 0, 60, 70
1, 611573, Note_off_c, 0, 81, 58
1, 611575, Note_on_c, 0, 64, 64
1, 611594, Note_off_c, 0, 60, 64
1, 611603, Note_off_c, 0, 64, 66
1, 611609, Note_off_c, 0, 79, 62
1, 611613, Note_on_c, 0, 76, 66
1, 611660, Note_off_c, 0, 76, 53
1, 611684, Note_on_c, 0, 75, 66
1, 611687, Note_on_c, 0, 66, 68
1, 611688, Note_on_c, 0, 60, 59
1, 611714, Note_off_c, 0, 66, 68
1, 611717, Note_off_c, 0, 60, 62
1, 611722, Note_off_c, 0, 75, 63
1, 611735, Note_on_c, 0, 77, 60
1, 611792, Note_on_c, 0, 76, 64
1, 611803, Note_on_c, 0, 60, 68
1, 611806, Note_on_c, 0, 67, 67
1, 611812, Note_off_c, 0, 77, 57
1, 611834, Note_off_c, 0, 67, 67
1, 611835, Note_off_c, 0, 60, 61
1, 611842, Note_off_c, 0, 76, 66
1, 611854, Note_on_c, 0, 72, 58
1, 611901, Note_off_c, 0, 72, 65
1, 611922, Note_on_c, 0, 71, 65
1, 611934, Note_on_c, 0, 63, 64
1, 611945, Note_on_c, 0, 60, 53
1, 611966, Note_off_c, 0, 63, 65
1, 611967, Note_off_c, 0, 60, 60
1, 611970, Note_off_c, 0, 71, 60
1, 611981, Note_on_c, 0, 74, 61
1, 612039, Note_on_c, 0, 72, 67
1, 612048, Note_on_c, 0, 60, 67
1, 612050, Note_off_c, 0, 74, 62
1, 612064, Note_on_c, 0, 64, 54
1, 612081, Note_off_c, 0, 60, 59
1, 612085, Note_off_c, 0, 64, 64
1, 612086, Note_off_c, 0, 72, 64
1, 612101, Note_on_c, 0, 67, 57
1, 612142, Note_off_c, 0, 67, 59
1, 612162, Note_on_c, 0, 64, 65
1, 612167, Note_on_c, 0, 72, 53
1, 612179, Note_on_c, 0, 60, 53
1, 612191, Note_off_c, 0, 64, 66
1, 612200, Note_off_c, 0, 60, 61
1, 612207, Note_on_c, 0, 71, 60
1, 612208, Note_off_c, 0, 72, 65
1, 612260, Note_off_c, 0, 71, 61
1, 612271, Note_on_c, 0, 69, 62
1, 612283, Note_on_c, 0, 60, 59
1, 612287, Note_on_c, 0, 62, 67
1, 612288, Note_on_c, 0, 65, 67
1, 612307, Note_off_c, 0, 69, 65
1, 612314, Note_off_c, 0, 65, 68
1, 612319, Note_off_c, 0, 60, 62
1, 612319, Note_off_c, 0, 62, 62
1, 612328, Note_on_c, 0, 68, 65
1, 612360, Note_off_c, 0, 68, 66
1, 612388, Note_on_c, 0, 69, 58
1, 612393, Note_on_c, 0, 65, 64
1, 612399, Note_on_c, 0, 62, 68
1, 612415, Note_on_c, 0, 60, 47
1, 612422, Note_off_c, 0, 69, 59
1, 612423, Note_off_c, 0, 65, 68
1, 612430, Note_off_c, 0, 62, 62
1, 612440, Note_off_c, 0, 60, 57
1, 612447, Note_on_c, 0, 70, 65
1, 612477, Note_off_c, 0, 70, 68
1, 612506, Note_on_c, 0, 65, 65
1, 612515, Note_on_c, 0, 71, 61
1, 612516, Note_on_c, 0, 62, 61
1, 612533, Note_on_c, 0, 60, 42
1, 612536, Note_off_c, 0, 65, 67
1, 612548, Note_off_c, 0, 62, 63
1, 612557, Note_off_c, 0, 60, 54
1, 612558, Note_off_c, 0, 71, 56
1, 612568, Note_on_c, 0, 72, 58
1, 612597, Note_off_c, 0, 72, 61
1, 612611, Note_on_c, 0, 73, 66
1, 612628, Note_on_c, 0, 62, 56
1, 612628, Note_on_c, 0, 65, 51
1, 612647, Note_off_c, 0, 73, 68
1, 612662, Note_off_c, 0, 65, 66
1, 612664, Note_on_c, 0, 60, 27
1, 612671, Note_off_c, 0, 62, 63
1, 612688, Note_on_c, 0, 74, 61
1, 612697, Note_off_c, 0, 60, 32
1, 612715, Note_off_c, 0, 74, 60
1, 612749, Note_on_c, 0, 75, 67
1, 612754, Note_on_c, 0, 65, 56
1, 612763, Note_on_c, 0, 62, 45
1, 612763, Note_on_c, 0, 69, 50
1, 612776, Note_off_c, 0, 75, 68
1, 612785, Note_off_c, 0, 69, 61
1, 612786, Note_off_c, 0, 65, 67
1, 612792, Note_off_c, 0, 62, 58
1, 612811, Note_on_c, 0, 76, 67
1, 612857, Note_off_c, 0, 76, 64
1, 612865, Note_on_c, 0, 69, 52
1, 612866, Note_on_c, 0, 77, 69
1, 612874, Note_on_c, 0, 65, 49
1, 612881, Note_on_c, 0, 62, 54
1, 612886, Note_off_c, 0, 69, 61
1, 612897, Note_off_c, 0, 65, 60
1, 612904, Note_off_c, 0, 62, 57
1, 612910, Note_off_c, 0, 77, 62
1, 612911, Note_on_c, 0, 78, 68
1, 612975, Note_on_c, 0, 79, 61
1, 612978, Note_off_c, 0, 78, 63
1, 612992, Note_on_c, 0, 65, 66
1, 612994, Note_on_c, 0, 62, 62
1, 612994, Note_on_c, 0, 67, 82
1, 612999, Note_on_c, 0, 59, 70
1, 613016, Note_off_c, 0, 79, 57
1, 613041, Note_on_c, 0, 78, 66
1, 613049, Control_c, 0, 64, 65
1, 613064, Control_c, 0, 64, 77
1, 613079, Control_c, 0, 64, 89
1, 613092, Note_off_c, 0, 78, 59
1, 613094, Control_c, 0, 64, 99
1, 613109, Note_off_c, 0, 59, 58
1, 613109, Control_c, 0, 64, 102
1, 613113, Note_on_c, 0, 81, 67
1, 613123, Control_c, 0, 64, 103
1, 613138, Control_c, 0, 64, 104
1, 613152, Note_off_c, 0, 67, 54
1, 613153, Control_c, 0, 64, 105
1, 613168, Note_on_c, 0, 79, 67
1, 613184, Note_off_c, 0, 62, 58
1, 613195, Note_off_c, 0, 81, 57
1, 613207, Note_off_c, 0, 65, 62
1, 613227, Control_c, 0, 64, 101
1, 613231, Note_off_c, 0, 79, 60
1, 613241, Control_c, 0, 64, 90
1, 613244, Note_on_c, 0, 76, 69
1, 613245, Note_on_c, 0, 60, 66
1, 613247, Note_on_c, 0, 64, 63
1, 613253, Note_on_c, 0, 67, 52
1, 613256, Control_c, 0, 64, 75
1, 613264, Note_off_c, 0, 64, 63
1, 613270, Note_off_c, 0, 67, 61
1, 613271, Note_off_c, 0, 60, 67
1, 613271, Control_c, 0, 64, 50
1, 613285, Note_off_c, 0, 76, 60
1, 613286, Control_c, 0, 64, 0
1, 613310, Note_on_c, 0, 79, 57
1, 613371, Note_on_c, 0, 77, 63
1, 613403, Note_off_c, 0, 79, 54
1, 613420, Note_on_c, 0, 76, 65
1, 613435, Note_off_c, 0, 77, 59
1, 613478, Note_off_c, 0, 76, 66
1, 613483, Note_on_c, 0, 59, 72
1, 613484, Note_on_c, 0, 56, 71
1, 613490, Note_on_c, 0, 74, 62
1, 613508, Note_off_c, 0, 59, 66
1, 613508, Note_off_c, 0, 56, 66
1, 613521, Note_off_c, 0, 74, 62
1, 613556, Note_on_c, 0, 77, 62
1, 613606, Note_on_c, 0, 76, 65
1, 613621, Note_off_c, 0, 77, 54
1, 613659, Note_on_c, 0, 74, 53
1, 613663, Note_off_c, 0, 76, 64
1, 613708, Note_off_c, 0, 74, 65
1, 613712, Note_on_c, 0, 60, 73
1, 613716, Note_on_c, 0, 57, 70
1, 613717, Note_on_c, 0, 72, 60
1, 613740, Note_off_c, 0, 60, 64
1, 613747, Note_off_c, 0, 57, 62
1, 613759, Note_off_c, 0, 72, 62
1, 613775, Note_on_c, 0, 76, 67
1, 613832, Note_off_c, 0, 76, 62
1, 613836, Note_on_c, 0, 74, 65
1, 613869, Note_off_c, 0, 74, 63
1, 613878, Note_on_c, 0, 72, 64
1, 613914, Note_off_c, 0, 72, 60
1, 613948, Note_on_c, 0, 83, 87
1, 613955, Note_on_c, 0, 53, 78
1, 613956, Note_on_c, 0, 62, 85
1, 613958, Note_on_c, 0, 57, 78
1, 613980, Note_off_c, 0, 62, 66
1, 613987, Note_off_c, 0, 57, 64
1, 613997, Note_off_c, 0, 53, 66
1, 614021, Note_on_c, 0, 81, 75
1, 614036, Note_off_c, 0, 83, 44
1, 614070, Note_on_c, 0, 77, 66
1, 614097, Note_off_c, 0, 81, 60
1, 614125, Note_on_c, 0, 74, 63
1, 614134, Note_off_c, 0, 77, 61
1, 614174, Note_off_c, 0, 74, 57
1, 614199, Note_on_c, 0, 81, 80
1, 614203, Note_on_c, 0, 60, 77
1, 614205, Note_on_c, 0, 64, 76
1, 614207, Note_on_c, 0, 55, 72
1, 614228, Note_off_c, 0, 64, 68
1, 614237, Note_off_c, 0, 60, 60
1, 614259, Note_off_c, 0, 55, 62
1, 614268, Note_on_c, 0, 79, 67
1, 614269, Note_off_c, 0, 81, 53
1, 614316, Note_on_c, 0, 76, 60
1, 614350, Note_off_c, 0, 79, 62
1, 614357, Note_on_c, 0, 72, 63
1, 614367, Note_off_c, 0, 76, 59
1, 614388, Note_off_c, 0, 72, 67
1, 614433, Note_on_c, 0, 79, 88
1, 614439, Note_on_c, 0, 62, 80
1, 614440, Note_on_c, 0, 65, 75
1, 614444, Note_on_c, 0, 55, 76
1, 614462, Note_off_c, 0, 65, 72
1, 614467, Note_off_c, 0, 62, 64
1, 614487, Note_on_c, 0, 57, 36
1, 614489, Note_off_c, 0, 79, 60
1, 614492, Note_off_c, 0, 55, 65
1, 614501, Note_on_c, 0, 72, 63
1, 614519, Note_on_c, 0, 71, 46
1, 614519, Note_off_c, 0, 57, 32
1, 614530, Note_off_c, 0, 72, 67
1, 614545, Note_off_c, 0, 71, 36
1, 614584, Note_on_c, 0, 76, 87
1, 614632, Note_off_c, 0, 76, 64
1, 614633, Note_on_c, 0, 72, 73
1, 614680, Control_c, 0, 64, 68
1, 614686, Note_on_c, 0, 36, 69
1, 614689, Note_on_c, 0, 48, 82
1, 614692, Note_on_c, 0, 67, 65
1, 614694, Control_c, 0, 64, 81
1, 614709, Note_off_c, 0, 72, 65
1, 614709, Control_c, 0, 64, 98
1, 614713, Note_off_c, 0, 36, 65
1, 614720, Note_off_c, 0, 48, 67
1, 614724, Control_c, 0, 64, 111
1, 614730, Note_off_c, 0, 67, 56
1, 614738, Control_c, 0, 64, 112
1, 614753, Note_on_c, 0, 64, 65
1, 614753, Control_c, 0, 64, 113
1, 614768, Control_c, 0, 64, 113
1, 614785, Note_off_c, 0, 64, 61
1, 614833, Note_on_c, 0, 48, 76
1, 614834, Note_on_c, 0, 63, 66
1, 614842, Note_on_c, 0, 52, 65
1, 614858, Note_off_c, 0, 63, 68
1, 614862, Note_off_c, 0, 48, 66
1, 614873, Note_off_c, 0, 52, 66
1, 614912, Poly_aftertouch_c, 0, 64, 0
1, 614924, Control_c, 0, 64, 110
1, 614938, Control_c, 0, 64, 104
1, 614941, Note_on_c, 0, 67, 75
1, 614951, Note_on_c, 0, 48, 71
1, 614953, Control_c, 0, 64, 95
1, 614957, Note_on_c, 0, 52, 59
1, 614968, Control_c, 0, 64, 83
1, 614983, Control_c, 0, 64, 71
1, 614984, Note_off_c, 0, 48, 66
1, 614987, Note_off_c, 0, 52, 62
1, 614998, Control_c, 0, 64, 43
1, 615000, Note_off_c, 0, 67, 63
1, 615002, Note_on_c, 0, 72, 66
1, 615012, Control_c, 0, 64, 0
1, 615048, Note_on_c, 0, 76, 73
1, 615055, Note_off_c, 0, 72, 61
1, 615076, Note_off_c, 0, 76, 66
1, 615104, Note_on_c, 0, 64, 71
1, 615128, Note_off_c, 0, 64, 67
1, 615181, Note_on_c, 0, 55, 92
1, 615181, Note_on_c, 0, 79, 65
1, 615185, Note_on_c, 0, 43, 73
1, 615191, Control_c, 0, 64, 58
1, 615206, Control_c, 0, 64, 75
1, 615210, Note_off_c, 0, 43, 64
1, 615213, Note_off_c, 0, 55, 63
1, 615221, Control_c, 0, 64, 89
1, 615229, Note_off_c, 0, 79, 58
1, 615231, Note_on_c, 0, 77, 77
1, 615235, Control_c, 0, 64, 108
1, 615250, Control_c, 0, 64, 119
1, 615280, Control_c, 0, 64, 119
1, 615286, Note_on_c, 0, 74, 67
1, 615308, Note_off_c, 0, 77, 59
1, 615329, Note_off_c, 0, 74, 58
1, 615331, Note_on_c, 0, 55, 60
1, 615333, Note_on_c, 0, 59, 55
1, 615345, Note_on_c, 0, 71, 58
1, 615353, Note_off_c, 0, 59, 59
1, 615355, Note_off_c, 0, 55, 69
1, 615375, Note_off_c, 0, 71, 64
1, 615427, Note_on_c, 0, 68, 72
1, 615428, Note_on_c, 0, 59, 66
1, 615438, Note_on_c, 0, 55, 73
1, 615455, Note_off_c, 0, 59, 64
1, 615458, Control_c, 0, 64, 117
1, 615463, Note_off_c, 0, 55, 69
1, 615473, Control_c, 0, 64, 111
1, 615474, Note_off_c, 0, 68, 61
1, 615479, Note_on_c, 0, 67, 70
1, 615487, Control_c, 0, 64, 99
1, 615502, Control_c, 0, 64, 87
1, 615515, Note_off_c, 0, 67, 63
1, 615517, Control_c, 0, 64, 73
1, 615532, Control_c, 0, 64, 32
1, 615540, Note_on_c, 0, 76, 74
1, 615547, Control_c, 0, 64, 0
1, 615583, Note_off_c, 0, 76, 65
1, 615597, Note_on_c, 0, 72, 69
1, 615662, Note_on_c, 0, 67, 71
1, 615668, Note_on_c, 0, 48, 82
1, 615671, Note_on_c, 0, 36, 69
1, 615681, Note_off_c, 0, 72, 65
1, 615695, Note_off_c, 0, 67, 61
1, 615696, Note_off_c, 0, 48, 67
1, 615699, Note_off_c, 0, 36, 65
1, 615702, Control_c, 0, 64, 61
1, 615717, Control_c, 0, 64, 72
1, 615719, Note_on_c, 0, 64, 56
1, 615732, Control_c, 0, 64, 81
1, 615747, Control_c, 0, 64, 91
1, 615761, Control_c, 0, 64, 95
1, 615762, Note_off_c, 0, 64, 51
1, 615776, Control_c, 0, 64, 97
1, 615791, Control_c, 0, 64, 99
1, 615797, Note_on_c, 0, 48, 74
1, 615800, Note_on_c, 0, 63, 70
1, 615803, Note_on_c, 0, 52, 60
1, 615804, Control_c, 0, 64, 100
1, 615819, Control_c, 0, 64, 100
1, 615824, Note_off_c, 0, 48, 66
1, 615827, Note_off_c, 0, 63, 69
1, 615833, Note_off_c, 0, 52, 67
1, 615865, Note_on_c, 0, 64, 51
1, 615899, Note_off_c, 0, 64, 65
1, 615911, Note_on_c, 0, 48, 70
1, 615911, Note_on_c, 0, 67, 74
1, 615914, Note_on_c, 0, 52, 64
1, 615941, Note_off_c, 0, 52, 67
1, 615947, Note_off_c, 0, 48, 65
1, 615970, Note_off_c, 0, 67, 63
1, 615973, Note_on_c, 0, 72, 67
1, 615982, Control_c, 0, 64, 99
1, 615997, Control_c, 0, 64, 96
1, 616012, Control_c, 0, 64, 88
1, 616015, Note_on_c, 0, 76, 72
1, 616027, Note_off_c, 0, 72, 64
1, 616027, Control_c, 0, 64, 76
1, 616038, Note_off_c, 0, 76, 70
1, 616042, Control_c, 0, 64, 48
1, 616057, Control_c, 0, 64, 0
1, 616060, Note_on_c, 0, 64, 71
1, 616085, Note_off_c, 0, 64, 68
1, 616136, Note_on_c, 0, 55, 86
1, 616139, Note_on_c, 0, 43, 72
1, 616140, Note_on_c, 0, 79, 63
1, 616161, Control_c, 0, 64, 57
1, 616165, Note_off_c, 0, 43, 64
1, 616170, Note_off_c, 0, 55, 63
1, 616175, Note_off_c, 0, 79, 62
1, 616175, Control_c, 0, 64, 71
1, 616190, Control_c, 0, 64, 81
1, 616191, Note_on_c, 0, 77, 75
1, 616205, Control_c, 0, 64, 93
1, 616220, Control_c, 0, 64, 99
1, 616235, Control_c, 0, 64, 100
1, 616243, Note_on_c, 0, 74, 66
1, 616249, Control_c, 0, 64, 101
1, 616264, Control_c, 0, 64, 102
1, 616268, Note_off_c, 0, 77, 60
1, 616277, Note_on_c, 0, 55, 68
1, 616279, Control_c, 0, 64, 103
1, 616281, Note_on_c, 0, 59, 55
1, 616283, Note_off_c, 0, 74, 58
1, 616294, Control_c, 0, 64, 104
1, 616303, Note_on_c, 0, 71, 62
1, 616304, Note_off_c, 0, 59, 58
1, 616308, Note_off_c, 0, 55, 65
1, 616309, Control_c, 0, 64, 105
1, 616332, Note_off_c, 0, 71, 63
1, 616386, Note_on_c, 0, 55, 72
1, 616391, Note_on_c, 0, 59, 60
1, 616391, Note_on_c, 0, 68, 72
1, 616409, Note_off_c, 0, 59, 63
1, 616412, Note_off_c, 0, 55, 66
1, 616435, Control_c, 0, 64, 104
1, 616437, Note_on_c, 0, 67, 70
1, 616442, Note_off_c, 0, 68, 62
1, 616450, Control_c, 0, 64, 97
1, 616462, Note_off_c, 0, 67, 67
1, 616464, Control_c, 0, 64, 87
1, 616479, Control_c, 0, 64, 75
1, 616494, Control_c, 0, 64, 64
1, 616509, Control_c, 0, 64, 0
1, 616534, Note_on_c, 0, 48, 79
1, 616537, Note_on_c, 0, 36, 70
1, 616542, Note_on_c, 0, 84, 78
1, 616547, Note_on_c, 0, 76, 86
1, 616564, Note_off_c, 0, 48, 66
1, 616568, Note_off_c, 0, 36, 65
1, 616578, Note_off_c, 0, 84, 65
1, 616607, Note_off_c, 0, 76, 65
1, 616609, Note_on_c, 0, 72, 63
1, 616632, Note_off_c, 0, 72, 66
1, 616675, Note_on_c, 0, 83, 74
1, 616677, Note_on_c, 0, 40, 74
1, 616680, Note_on_c, 0, 52, 75
1, 616682, Note_on_c, 0, 74, 74
1, 616704, Note_off_c, 0, 83, 59
1, 616708, Note_off_c, 0, 52, 70
1, 616714, Note_off_c, 0, 40, 65
1, 616739, Note_off_c, 0, 74, 64
1, 616747, Note_on_c, 0, 71, 54
1, 616769, Note_off_c, 0, 71, 55
1, 616800, Note_on_c, 0, 81, 78
1, 616810, Note_on_c, 0, 53, 81
1, 616814, Note_on_c, 0, 41, 70
1, 616815, Note_on_c, 0, 72, 64
1, 616836, Note_off_c, 0, 53, 68
1, 616836, Note_off_c, 0, 81, 57
1, 616846, Note_off_c, 0, 41, 67
1, 616860, Note_off_c, 0, 72, 65
1, 616875, Note_on_c, 0, 69, 52
1, 616897, Note_off_c, 0, 69, 57
1, 616933, Note_on_c, 0, 79, 72
1, 616935, Note_on_c, 0, 43, 67
1, 616939, Note_on_c, 0, 55, 69
1, 616941, Note_on_c, 0, 71, 56
1, 616959, Note_off_c, 0, 79, 66
1, 616963, Note_off_c, 0, 43, 64
1, 616965, Note_off_c, 0, 55, 66
1, 616983, Note_off_c, 0, 71, 61
1, 616993, Note_on_c, 0, 67, 59
1, 617025, Note_off_c, 0, 67, 64
1, 617048, Note_on_c, 0, 74, 66
1, 617052, Note_on_c, 0, 77, 70
1, 617058, Note_on_c, 0, 56, 75
1, 617061, Note_on_c, 0, 44, 68
1, 617078, Note_off_c, 0, 77, 65
1, 617085, Note_off_c, 0, 56, 65
1, 617086, Note_off_c, 0, 74, 58
1, 617091, Note_off_c, 0, 44, 64
1, 617138, Note_on_c, 0, 65, 50
1, 617161, Note_off_c, 0, 65, 59
1, 617184, Note_on_c, 0, 76, 70
1, 617186, Note_on_c, 0, 57, 73
1, 617191, Note_on_c, 0, 45, 67
1, 617205, Note_on_c, 0, 72, 55
1, 617212, Note_off_c, 0, 57, 64
1, 617220, Note_off_c, 0, 76, 57
1, 617225, Note_off_c, 0, 45, 63
1, 617226, Note_off_c, 0, 72, 65
1, 617243, Note_on_c, 0, 64, 62
1, 617261, Note_off_c, 0, 64, 64
1, 617312, Note_on_c, 0, 74, 76
1, 617314, Note_on_c, 0, 47, 74
1, 617316, Note_on_c, 0, 59, 73
1, 617321, Note_on_c, 0, 65, 67
1, 617344, Note_off_c, 0, 59, 65
1, 617345, Note_off_c, 0, 47, 64
1, 617352, Note_off_c, 0, 74, 65
1, 617375, Note_off_c, 0, 65, 64
1, 617389, Note_on_c, 0, 62, 47
1, 617415, Note_off_c, 0, 62, 52
1, 617442, Note_on_c, 0, 72, 76
1, 617443, Note_on_c, 0, 48, 74
1, 617446, Note_on_c, 0, 60, 76
1, 617455, Note_on_c, 0, 64, 59
1, 617467, Note_off_c, 0, 48, 68
1, 617472, Note_off_c, 0, 72, 60
1, 617494, Note_off_c, 0, 64, 65
1, 617506, Note_off_c, 0, 60, 54
1, 617574, Note_on_c, 0, 76, 75
1, 617584, Note_on_c, 0, 62, 83
1, 617595, Note_on_c, 0, 52, 66
1, 617624, Note_off_c, 0, 52, 68
1, 617628, Note_off_c, 0, 76, 55
1, 617643, Note_on_c, 0, 68, 73
1, 617651, Note_off_c, 0, 62, 50
1, 617684, Note_off_c, 0, 68, 63
1, 617702, Note_on_c, 0, 69, 59
1, 617704, Note_on_c, 0, 60, 63
1, 617708, Note_on_c, 0, 57, 53
1, 617734, Note_off_c, 0, 60, 66
1, 617743, Note_off_c, 0, 57, 63
1, 617749, Note_off_c, 0, 69, 67
1, 617750, Note_on_c, 0, 64, 58
1, 617786, Note_off_c, 0, 64, 65
1, 617826, Note_on_c, 0, 76, 71
1, 617839, Note_on_c, 0, 62, 81
1, 617847, Note_on_c, 0, 52, 64
1, 617858, Note_off_c, 0, 76, 58
1, 617884, Note_off_c, 0, 52, 67
1, 617902, Note_on_c, 0, 68, 70
1, 617920, Note_off_c, 0, 62, 52
1, 617947, Note_off_c, 0, 68, 61
1, 617962, Note_on_c, 0, 69, 68
1, 617973, Note_on_c, 0, 60, 60
1, 617976, Note_on_c, 0, 57, 54
1, 618004, Note_off_c, 0, 60, 65
1, 618007, Note_off_c, 0, 57, 63
1, 618007, Note_off_c, 0, 69, 66
1, 618037, Note_on_c, 0, 64, 39
1, 618062, Note_off_c, 0, 64, 54
1, 618092, Note_on_c, 0, 76, 72
1, 618102, Note_on_c, 0, 62, 79
1, 618106, Note_on_c, 0, 52, 69
1, 618123, Note_off_c, 0, 76, 61
1, 618136, Note_off_c, 0, 52, 67
1, 618161, Note_on_c, 0, 68, 66
1, 618165, Note_off_c, 0, 62, 56
1, 618204, Note_off_c, 0, 68, 62
1, 618215, Note_on_c, 0, 69, 65
1, 618218, Note_on_c, 0, 60, 68
1, 618233, Note_on_c, 0, 57, 42
1, 618245, Note_off_c, 0, 60, 66
1, 618248, Note_off_c, 0, 69, 67
1, 618262, Note_off_c, 0, 57, 50
1, 618278, Note_on_c, 0, 64, 43
1, 618301, Note_off_c, 0, 64, 60
1, 618332, Note_on_c, 0, 76, 75
1, 618342, Note_on_c, 0, 62, 81
1, 618343, Note_on_c, 0, 52, 70
1, 618363, Note_off_c, 0, 76, 57
1, 618373, Note_off_c, 0, 52, 68
1, 618405, Note_on_c, 0, 68, 69
1, 618422, Note_off_c, 0, 62, 53
1, 618448, Note_off_c, 0, 68, 63
1, 618456, Note_on_c, 0, 69, 63
1, 618459, Note_on_c, 0, 60, 67
1, 618468, Note_on_c, 0, 57, 52
1, 618487, Note_off_c, 0, 60, 66
1, 618491, Note_off_c, 0, 57, 61
1, 618501, Note_off_c, 0, 69, 67
1, 618506, Note_on_c, 0, 64, 54
1, 618528, Note_off_c, 0, 64, 65
1, 618591, Note_on_c, 0, 57, 62
1, 618592, Note_on_c, 0, 67, 87
1, 618594, Note_on_c, 0, 81, 81
1, 618632, Note_off_c, 0, 57, 63
1, 618653, Note_off_c, 0, 81, 51
1, 618666, Note_on_c, 0, 73, 70
1, 618724, Note_off_c, 0, 67, 60
1, 618730, Note_on_c, 0, 65, 66
1, 618734, Note_on_c, 0, 74, 53
1, 618741, Note_on_c, 0, 62, 50
1, 618758, Note_off_c, 0, 65, 68
1, 618763, Note_off_c, 0, 73, 30
1, 618766, Note_off_c, 0, 62, 60
1, 618769, Note_off_c, 0, 74, 64
1, 618790, Note_on_c, 0, 69, 35
1, 618817, Note_off_c, 0, 69, 59
1, 618847, Note_on_c, 0, 81, 77
1, 618860, Note_on_c, 0, 67, 84
1, 618867, Note_on_c, 0, 57, 69
1, 618874, Note_off_c, 0, 81, 58
1, 618893, Note_off_c, 0, 57, 65
1, 618927, Note_on_c, 0, 73, 66
1, 618943, Note_off_c, 0, 67, 45
1, 618974, Note_off_c, 0, 73, 62
1, 618980, Note_on_c, 0, 74, 59
1, 618989, Note_on_c, 0, 65, 66
1, 619002, Note_on_c, 0, 62, 47
1, 619016, Note_off_c, 0, 74, 64
1, 619018, Note_off_c, 0, 65, 68
1, 619028, Note_off_c, 0, 62, 58
1, 619041, Note_on_c, 0, 69, 53
1, 619077, Note_off_c, 0, 69, 68
1, 619106, Note_on_c, 0, 81, 80
1, 619115, Note_on_c, 0, 67, 84
1, 619122, Note_on_c, 0, 57, 68
1, 619137, Note_off_c, 0, 81, 52
1, 619150, Note_off_c, 0, 57, 64
1, 619178, Note_on_c, 0, 73, 70
1, 619225, Note_off_c, 0, 73, 58
1, 619227, Note_off_c, 0, 67, 35
1, 619240, Note_on_c, 0, 65, 65
1, 619243, Note_on_c, 0, 74, 61
1, 619249, Note_on_c, 0, 62, 53
1, 619269, Note_off_c, 0, 65, 67
1, 619276, Note_off_c, 0, 62, 62
1, 619276, Note_off_c, 0, 74, 65
1, 619297, Note_on_c, 0, 69, 56
1, 619330, Note_off_c, 0, 69, 68
1, 619355, Note_on_c, 0, 81, 77
1, 619365, Note_on_c, 0, 57, 66
1, 619365, Note_on_c, 0, 67, 79
1, 619386, Note_off_c, 0, 81, 60
1, 619401, Note_off_c, 0, 57, 62
1, 619431, Note_on_c, 0, 73, 70
1, 619470, Note_off_c, 0, 73, 55
1, 619476, Note_on_c, 0, 74, 62
1, 619492, Note_off_c, 0, 67, 54
1, 619494, Note_on_c, 0, 65, 67
1, 619499, Note_on_c, 0, 62, 61
1, 619525, Note_off_c, 0, 65, 66
1, 619527, Note_on_c, 0, 69, 64
1, 619529, Note_off_c, 0, 74, 65
1, 619533, Note_off_c, 0, 62, 63
1, 619553, Note_off_c, 0, 69, 69
1, 619617, Note_on_c, 0, 86, 74
1, 619621, Note_on_c, 0, 62, 72
1, 619625, Note_on_c, 0, 72, 86
1, 619658, Note_off_c, 0, 62, 60
1, 619674, Note_off_c, 0, 86, 64
1, 619688, Note_on_c, 0, 78, 73
1, 619745, Note_off_c, 0, 72, 61
1, 619747, Note_on_c, 0, 70, 71
1, 619748, Note_off_c, 0, 78, 46
1, 619754, Note_on_c, 0, 79, 66
1, 619767, Note_on_c, 0, 67, 50
1, 619790, Note_off_c, 0, 67, 61
1, 619792, Note_off_c, 0, 70, 62
1, 619795, Note_off_c, 0, 79, 62
1, 619804, Note_on_c, 0, 74, 49
1, 619838, Note_off_c, 0, 74, 68
1, 619870, Note_on_c, 0, 86, 74
1, 619879, Note_on_c, 0, 72, 82
1, 619889, Note_on_c, 0, 62, 66
1, 619901, Note_off_c, 0, 86, 58
1, 619919, Note_off_c, 0, 62, 64
1, 619944, Note_on_c, 0, 78, 69
1, 619983, Note_off_c, 0, 78, 55
1, 619994, Note_off_c, 0, 72, 61
1, 620003, Note_on_c, 0, 70, 65
1, 620004, Note_on_c, 0, 79, 63
1, 620013, Note_on_c, 0, 67, 52
1, 620037, Note_off_c, 0, 70, 61
1, 620038, Note_off_c, 0, 67, 63
1, 620042, Note_off_c, 0, 79, 60
1, 620057, Note_on_c, 0, 74, 53
1, 620090, Note_off_c, 0, 74, 67
1, 620126, Note_on_c, 0, 86, 70
1, 620142, Note_on_c, 0, 72, 78
1, 620147, Note_on_c, 0, 62, 66
1, 620151, Note_off_c, 0, 86, 65
1, 620177, Note_off_c, 0, 62, 65
1, 620194, Note_on_c, 0, 78, 69
1, 620237, Note_off_c, 0, 78, 48
1, 620253, Note_on_c, 0, 79, 67
1, 620253, Note_off_c, 0, 72, 63
1, 620259, Note_on_c, 0, 70, 63
1, 620273, Note_on_c, 0, 67, 49
1, 620296, Note_off_c, 0, 70, 60
1, 620296, Note_off_c, 0, 79, 62
1, 620298, Note_off_c, 0, 67, 62
1, 620310, Note_on_c, 0, 74, 53
1, 620340, Note_off_c, 0, 74, 69
1, 620367, Note_on_c, 0, 86, 74
1, 620384, Note_on_c, 0, 72, 78
1, 620400, Note_on_c, 0, 62, 47
1, 620404, Note_off_c, 0, 86, 57
1, 620425, Note_off_c, 0, 62, 53
1, 620435, Note_on_c, 0, 78, 70
1, 620463, Note_off_c, 0, 78, 63
1, 620474, Note_off_c, 0, 72, 57
1, 620480, Note_on_c, 0, 79, 62
1, 620492, Note_on_c, 0, 70, 64
1, 620499, Note_on_c, 0, 67, 54
1, 620511, Note_off_c, 0, 70, 66
1, 620524, Note_off_c, 0, 67, 65
1, 620526, Note_on_c, 0, 74, 65
1, 620529, Note_off_c, 0, 79, 62
1, 620553, Note_off_c, 0, 74, 69
1, 620621, Note_on_c, 0, 77, 86
1, 620625, Note_on_c, 0, 70, 67
1, 620627, Note_on_c, 0, 61, 83
1, 620633, Note_on_c, 0, 49, 74
1, 620648, Note_off_c, 0, 61, 70
1, 620665, Note_off_c, 0, 49, 64
1, 620675, Note_off_c, 0, 77, 60
1, 620701, Note_off_c, 0, 70, 62
1, 620705, Note_on_c, 0, 67, 66
1, 620743, Note_off_c, 0, 67, 54
1, 620755, Note_on_c, 0, 76, 77
1, 620758, Note_on_c, 0, 60, 86
1, 620769, Note_on_c, 0, 70, 63
1, 620770, Note_on_c, 0, 48, 74
1, 620797, Note_off_c, 0, 48, 66
1, 620802, Control_c, 0, 64, 49
1, 620803, Note_off_c, 0, 76, 62
1, 620805, Note_off_c, 0, 60, 59
1, 620817, Control_c, 0, 64, 68
1, 620829, Note_off_c, 0, 70, 63
1, 620830, Note_on_c, 0, 67, 68
1, 620832, Control_c, 0, 64, 74
1, 620847, Control_c, 0, 64, 80
1, 620862, Control_c, 0, 64, 81
1, 620863, Note_off_c, 0, 67, 62
1, 620895, Note_on_c, 0, 77, 81
1, 620905, Note_on_c, 0, 61, 83
1, 620910, Note_on_c, 0, 70, 65
1, 620912, Note_on_c, 0, 49, 73
1, 620927, Note_off_c, 0, 61, 68
1, 620943, Note_off_c, 0, 49, 65
1, 620948, Note_off_c, 0, 77, 60
1, 620963, Note_off_c, 0, 70, 63
1, 620972, Note_on_c, 0, 67, 62
1, 620972, Control_c, 0, 64, 80
1, 620990, Note_off_c, 0, 67, 60
1, 621002, Control_c, 0, 64, 79
1, 621017, Control_c, 0, 64, 79
1, 621025, Note_on_c, 0, 60, 85
1, 621029, Note_on_c, 0, 76, 74
1, 621030, Note_on_c, 0, 48, 72
1, 621032, Control_c, 0, 64, 78
1, 621040, Note_on_c, 0, 70, 65
1, 621047, Control_c, 0, 64, 76
1, 621052, Note_off_c, 0, 48, 66
1, 621052, Note_off_c, 0, 60, 58
1, 621062, Control_c, 0, 64, 75
1, 621062, Note_off_c, 0, 76, 55
1, 621077, Control_c, 0, 64, 74
1, 621092, Control_c, 0, 64, 73
1, 621092, Note_on_c, 0, 67, 56
1, 621095, Note_off_c, 0, 70, 61
1, 621106, Control_c, 0, 64, 72
1, 621120, Note_off_c, 0, 67, 57
1, 621121, Control_c, 0, 64, 71
1, 621136, Control_c, 0, 64, 70
1, 621151, Control_c, 0, 64, 68
1, 621154, Note_on_c, 0, 77, 78
1, 621157, Note_on_c, 0, 61, 78
1, 621160, Note_on_c, 0, 49, 74
1, 621166, Control_c, 0, 64, 66
1, 621177, Note_on_c, 0, 70, 59
1, 621180, Control_c, 0, 64, 64
1, 621182, Note_off_c, 0, 61, 61
1, 621195, Control_c, 0, 64, 62
1, 621196, Note_off_c, 0, 77, 55
1, 621197, Note_off_c, 0, 49, 64
1, 621210, Control_c, 0, 64, 59
1, 621213, Note_on_c, 0, 67, 60
1, 621214, Note_off_c, 0, 70, 61
1, 621225, Control_c, 0, 64, 57
1, 621240, Control_c, 0, 64, 55
1, 621253, Note_off_c, 0, 67, 60
1, 621254, Control_c, 0, 64, 51
1, 621269, Control_c, 0, 64, 47
1, 621279, Note_on_c, 0, 60, 80
1, 621280, Note_on_c, 0, 76, 67
1, 621282, Note_on_c, 0, 48, 69
1, 621284, Control_c, 0, 64, 46
1, 621295, Note_on_c, 0, 70, 55
1, 621298, Control_c, 0, 64, 45
1, 621308, Note_off_c, 0, 76, 67
1, 621309, Note_off_c, 0, 48, 67
1, 621309, Note_off_c, 0, 60, 61
1, 621328, Control_c, 0, 64, 44
1, 621343, Control_c, 0, 64, 44
1, 621345, Note_off_c, 0, 70, 62
1, 621356, Note_on_c, 0, 67, 53
1, 621358, Control_c, 0, 64, 43
1, 621372, Control_c, 0, 64, 43
1, 621378, Note_off_c, 0, 67, 60
1, 621387, Control_c, 0, 64, 44
1, 621402, Control_c, 0, 64, 44
1, 621405, Note_on_c, 0, 77, 75
1, 621408, Note_on_c, 0, 61, 74
1, 621413, Note_on_c, 0, 49, 69
1, 621432, Control_c, 0, 64, 44
1, 621435, Note_off_c, 0, 61, 64
1, 621438, Note_on_c, 0, 70, 42
1, 621443, Note_off_c, 0, 77, 59
1, 621449, Note_off_c, 0, 49, 65
1, 621464, Note_on_c, 0, 67, 63
1, 621466, Note_off_c, 0, 70, 58
1, 621492, Control_c, 0, 64, 43
1, 621507, Control_c, 0, 64, 38
1, 621508, Note_off_c, 0, 67, 60
1, 621522, Control_c, 0, 64, 0
1, 621542, Note_on_c, 0, 76, 56
1, 621545, Note_on_c, 0, 60, 72
1, 621551, Note_on_c, 0, 48, 65
1, 621569, Note_on_c, 0, 70, 41
1, 621581, Control_c, 0, 67, 16
1, 621593, Note_off_c, 0, 48, 61
1, 621593, Note_off_c, 0, 70, 56
1, 621595, Note_off_c, 0, 76, 63
1, 621595, Control_c, 0, 67, 34
1, 621600, Note_on_c, 0, 67, 42
1, 621610, Control_c, 0, 67, 57
1, 621633, Control_c, 0, 67, 77
1, 621636, Note_off_c, 0, 67, 34
1, 621646, Note_off_c, 0, 60, 51
1, 621648, Control_c, 0, 67, 91
1, 621663, Control_c, 0, 67, 102
1, 621677, Control_c, 0, 67, 110
1, 621692, Control_c, 0, 67, 117
1, 621707, Control_c, 0, 67, 123
1, 621722, Control_c, 0, 67, 127
1, 621735, Note_on_c, 0, 84, 58
1, 621777, Note_off_c, 0, 84, 65
1, 621780, Note_on_c, 0, 82, 75
1, 621849, Note_off_c, 0, 82, 63
1, 621858, Note_on_c, 0, 80, 65
1, 621876, Note_on_c, 0, 53, 58
1, 621897, Note_off_c, 0, 80, 60
1, 621922, Note_on_c, 0, 82, 54
1, 621978, Note_off_c, 0, 82, 55
1, 621979, Note_on_c, 0, 80, 66
1, 621992, Note_on_c, 0, 56, 49
1, 621999, Note_on_c, 0, 60, 39
1, 622025, Note_off_c, 0, 60, 52
1, 622027, Note_off_c, 0, 56, 64
1, 622034, Note_off_c, 0, 80, 64
1, 622039, Note_on_c, 0, 79, 65
1, 622079, Note_off_c, 0, 79, 61
1, 622095, Note_on_c, 0, 77, 52
1, 622105, Note_on_c, 0, 60, 62
1, 622114, Note_on_c, 0, 56, 60
1, 622120, Note_off_c, 0, 77, 56
1, 622134, Note_off_c, 0, 60, 66
1, 622145, Note_off_c, 0, 56, 64
1, 622147, Note_on_c, 0, 79, 50
1, 622180, Note_off_c, 0, 79, 54
1, 622206, Note_on_c, 0, 77, 57
1, 622222, Note_on_c, 0, 56, 64
1, 622230, Note_on_c, 0, 60, 59
1, 622248, Note_off_c, 0, 77, 61
1, 622260, Note_off_c, 0, 56, 61
1, 622263, Note_off_c, 0, 60, 64
1, 622284, Note_on_c, 0, 75, 65
1, 622327, Note_off_c, 0, 75, 63
1, 622341, Note_on_c, 0, 56, 62
1, 622347, Note_on_c, 0, 73, 61
1, 622350, Note_on_c, 0, 60, 57
1, 622382, Control_c, 0, 67, 127
1, 622385, Note_off_c, 0, 56, 62
1, 622386, Note_off_c, 0, 60, 62
1, 622389, Note_off_c, 0, 73, 62
1, 622397, Control_c, 0, 67, 126
1, 622403, Note_on_c, 0, 75, 59
1, 622412, Control_c, 0, 67, 126
1, 622427, Control_c, 0, 67, 125
1, 622441, Control_c, 0, 67, 124
1, 622456, Control_c, 0, 67, 124
1, 622467, Note_on_c, 0, 56, 63
1, 622470, Note_off_c, 0, 75, 65
1, 622471, Control_c, 0, 67, 122
1, 622474, Note_on_c, 0, 60, 56
1, 622478, Note_on_c, 0, 73, 66
1, 622486, Control_c, 0, 67, 119
1, 622500, Control_c, 0, 67, 113
1, 622504, Note_off_c, 0, 56, 63
1, 622504, Note_off_c, 0, 60, 63
1, 622506, Note_off_c, 0, 73, 64
1, 622515, Note_on_c, 0, 72, 63
1, 622515, Control_c, 0, 67, 105
1, 622530, Control_c, 0, 67, 94
1, 622546, Note_off_c, 0, 72, 66
1, 622546, Control_c, 0, 67, 81
1, 622560, Control_c, 0, 67, 68
1, 622575, Control_c, 0, 67, 55
1, 622590, Control_c, 0, 67, 45
1, 622591, Note_on_c, 0, 70, 66
1, 622594, Note_on_c, 0, 60, 58
1, 622594, Note_on_c, 0, 56, 60
1, 622605, Control_c, 0, 67, 37
1, 622620, Control_c, 0, 67, 34
1, 622627, Note_off_c, 0, 56, 62
1, 622629, Note_off_c, 0, 60, 64
1, 622634, Control_c, 0, 67, 31
1, 622640, Note_off_c, 0, 70, 61
1, 622648, Note_on_c, 0, 72, 65
1, 622649, Control_c, 0, 67, 29
1, 622664, Control_c, 0, 67, 27
1, 622679, Control_c, 0, 67, 26
1, 622694, Control_c, 0, 67, 24
1, 622708, Control_c, 0, 67, 23
1, 622711, Note_on_c, 0, 56, 58
1, 622711, Note_on_c, 0, 70, 66
1, 622723, Note_off_c, 0, 72, 60
1, 622723, Control_c, 0, 67, 21
1, 622733, Note_on_c, 0, 60, 40
1, 622738, Control_c, 0, 67, 18
1, 622746, Note_off_c, 0, 53, 62
1, 622752, Note_off_c, 0, 56, 61
1, 622752, Control_c, 0, 67, 15
1, 622759, Note_off_c, 0, 60, 50
1, 622767, Control_c, 0, 67, 12
1, 622772, Note_on_c, 0, 68, 60
1, 622772, Note_off_c, 0, 70, 63
1, 622782, Control_c, 0, 67, 10
1, 622797, Control_c, 0, 67, 8
1, 622812, Note_off_c, 0, 68, 64
1, 622812, Control_c, 0, 67, 0
1, 622823, Note_on_c, 0, 67, 63
1, 622840, Note_on_c, 0, 60, 62
1, 622859, Note_on_c, 0, 53, 54
1, 622859, Note_off_c, 0, 67, 60
1, 622860, Note_on_c, 0, 56, 49
1, 622877, Note_off_c, 0, 60, 58
1, 622888, Note_on_c, 0, 68, 55
1, 622895, Note_off_c, 0, 56, 64
1, 622896, Note_off_c, 0, 53, 64
1, 622948, Note_on_c, 0, 67, 61
1, 622955, Note_off_c, 0, 68, 50
1, 622977, Note_on_c, 0, 53, 41
1, 622984, Note_on_c, 0, 60, 37
1, 622986, Note_on_c, 0, 56, 50
1, 622999, Note_on_c, 0, 65, 61
1, 623007, Note_off_c, 0, 67, 61
1, 623009, Note_off_c, 0, 53, 55
1, 623013, Note_off_c, 0, 60, 34
1, 623021, Note_off_c, 0, 56, 63
1, 623047, Note_off_c, 0, 65, 64
1, 623065, Note_on_c, 0, 64, 54
1, 623095, Note_on_c, 0, 53, 61
1, 623099, Note_on_c, 0, 61, 71
1, 623101, Note_on_c, 0, 58, 65
1, 623114, Note_off_c, 0, 64, 62
1, 623144, Note_on_c, 0, 65, 47
1, 623191, Note_off_c, 0, 65, 63
1, 623198, Note_on_c, 0, 67, 66
1, 623246, Note_off_c, 0, 67, 59
1, 623247, Note_off_c, 0, 61, 59
1, 623259, Note_on_c, 0, 64, 56
1, 623263, Note_off_c, 0, 53, 62
1, 623263, Note_off_c, 0, 58, 62
1, 623320, Note_off_c, 0, 64, 57
1, 623339, Note_on_c, 0, 65, 64
1, 623361, Note_on_c, 0, 53, 48
1, 623368, Note_on_c, 0, 56, 40
1, 623368, Note_on_c, 0, 60, 42
1, 623393, Note_off_c, 0, 60, 50
1, 623394, Note_off_c, 0, 56, 57
1, 623402, Note_off_c, 0, 65, 63
1, 623402, Note_off_c, 0, 53, 62
1, 623411, Note_on_c, 0, 67, 57
1, 623448, Note_on_c, 0, 68, 61
1, 623449, Note_off_c, 0, 67, 59
1, 623470, Note_on_c, 0, 53, 37
1, 623479, Note_on_c, 0, 56, 55
1, 623482, Note_on_c, 0, 60, 44
1, 623501, Note_off_c, 0, 53, 56
1, 623509, Note_off_c, 0, 60, 36
1, 623511, Note_off_c, 0, 56, 64
1, 623526, Note_on_c, 0, 65, 62
1, 623531, Note_off_c, 0, 68, 62
1, 623566, Note_off_c, 0, 65, 65
1, 623578, Note_on_c, 0, 64, 59
1, 623583, Note_on_c, 0, 53, 63
1, 623590, Note_on_c, 0, 61, 70
1, 623594, Note_on_c, 0, 58, 58
1, 623613, Note_off_c, 0, 64, 63
1, 623646, Note_on_c, 0, 65, 41
1, 623673, Note_off_c, 0, 65, 59
1, 623676, Note_on_c, 0, 67, 62
1, 623707, Note_off_c, 0, 61, 60
1, 623712, Note_off_c, 0, 67, 61
1, 623730, Note_off_c, 0, 53, 63
1, 623735, Note_off_c, 0, 58, 61
1, 623738, Note_on_c, 0, 64, 55
1, 623773, Note_off_c, 0, 64, 62
1, 623814, Note_on_c, 0, 65, 58
1, 623821, Note_on_c, 0, 53, 66
1, 623863, Note_off_c, 0, 65, 65
1, 623881, Note_on_c, 0, 67, 62
1, 623948, Note_on_c, 0, 56, 55
1, 623950, Note_off_c, 0, 67, 61
1, 623951, Note_on_c, 0, 65, 61
1, 623960, Note_on_c, 0, 60, 46
1, 623981, Note_off_c, 0, 56, 63
1, 623984, Note_off_c, 0, 60, 54
1, 623992, Note_off_c, 0, 65, 66
1, 624002, Note_on_c, 0, 64, 65
1, 624067, Note_off_c, 0, 64, 60
1, 624069, Note_on_c, 0, 56, 65
1, 624077, Note_on_c, 0, 65, 68
1, 624105, Note_off_c, 0, 56, 64
1, 624113, Note_off_c, 0, 65, 65
1, 624141, Note_on_c, 0, 60, 3
1, 624195, Note_on_c, 0, 56, 67
1, 624199, Note_on_c, 0, 62, 57
1, 624229, Note_off_c, 0, 56, 65
1, 624237, Note_off_c, 0, 62, 64
1, 624244, Note_off_c, 0, 60, 59
1, 624248, Note_on_c, 0, 64, 56
1, 624266, Note_off_c, 0, 64, 61
1, 624312, Note_on_c, 0, 65, 69
1, 624319, Note_on_c, 0, 56, 67
1, 624351, Note_off_c, 0, 56, 63
1, 624353, Note_on_c, 0, 60, 33
1, 624363, Note_off_c, 0, 65, 62
1, 624380, Note_on_c, 0, 67, 64
1, 624386, Note_off_c, 0, 60, 32
1, 624416, Note_off_c, 0, 67, 63
1, 624427, Note_on_c, 0, 68, 64
1, 624432, Note_on_c, 0, 56, 61
1, 624465, Note_off_c, 0, 68, 64
1, 624467, Note_on_c, 0, 60, 30
1, 624467, Note_off_c, 0, 56, 63
1, 624480, Note_on_c, 0, 70, 61
1, 624502, Note_off_c, 0, 60, 32
1, 624508, Note_off_c, 0, 70, 66
1, 624544, Note_on_c, 0, 72, 69
1, 624548, Note_on_c, 0, 56, 66
1, 624574, Note_on_c, 0, 60, 39
1, 624583, Note_off_c, 0, 56, 64
1, 624593, Note_off_c, 0, 72, 61
1, 624600, Note_on_c, 0, 74, 65
1, 624603, Note_off_c, 0, 60, 34
1, 624650, Note_off_c, 0, 74, 62
1, 624665, Note_on_c, 0, 76, 57
1, 624684, Note_off_c, 0, 76, 63
1, 624685, Note_on_c, 0, 56, 64
1, 624693, Note_on_c, 0, 60, 57
1, 624712, Note_off_c, 0, 60, 61
1, 624714, Note_off_c, 0, 56, 64
1, 624725, Note_on_c, 0, 77, 66
1, 624788, Note_off_c, 0, 77, 58
1, 624791, Note_on_c, 0, 56, 65
1, 624791, Note_on_c, 0, 79, 72
1, 624793, Note_on_c, 0, 60, 57
1, 624824, Note_off_c, 0, 60, 64
1, 624832, Note_off_c, 0, 56, 60
1, 624833, Note_off_c, 0, 79, 62
1, 624845, Note_on_c, 0, 80, 64
1, 624892, Note_on_c, 0, 82, 70
1, 624892, Note_off_c, 0, 80, 64
1, 624908, Note_on_c, 0, 60, 55
1, 624911, Note_on_c, 0, 56, 58
1, 624920, Note_off_c, 0, 82, 68
1, 624937, Note_off_c, 0, 60, 63
1, 624946, Note_off_c, 0, 56, 62
1, 624970, Note_on_c, 0, 84, 72
1, 625018, Note_off_c, 0, 84, 61
1, 625023, Note_on_c, 0, 86, 65
1, 625029, Note_on_c, 0, 56, 62
1, 625031, Note_on_c, 0, 60, 50
1, 625054, Note_off_c, 0, 60, 59
1, 625062, Note_off_c, 0, 56, 63
1, 625065, Note_off_c, 0, 86, 64
1, 625073, Note_on_c, 0, 88, 68
1, 625118, Note_off_c, 0, 88, 58
1, 625141, Note_on_c, 0, 60, 54
1, 625144, Note_on_c, 0, 56, 60
1, 625146, Note_on_c, 0, 89, 66
1, 625175, Note_off_c, 0, 60, 64
1, 625180, Note_off_c, 0, 56, 63
1, 625195, Note_off_c, 0, 89, 61
1, 625207, Note_on_c, 0, 91, 74
1, 625258, Note_on_c, 0, 92, 69
1, 625262, Note_off_c, 0, 91, 58
1, 625271, Note_on_c, 0, 56, 63
1, 625278, Note_on_c, 0, 60, 50
1, 625307, Note_off_c, 0, 60, 62
1, 625308, Note_off_c, 0, 56, 63
1, 625316, Note_off_c, 0, 92, 64
1, 625318, Note_on_c, 0, 94, 68
1, 625376, Control_c, 0, 67, 8
1, 625385, Note_on_c, 0, 96, 62
1, 625391, Note_off_c, 0, 94, 58
1, 625391, Control_c, 0, 67, 9
1, 625405, Note_on_c, 0, 60, 57
1, 625406, Control_c, 0, 67, 9
1, 625407, Note_on_c, 0, 56, 60
1, 625420, Control_c, 0, 67, 10
1, 625435, Note_off_c, 0, 60, 64
1, 625435, Control_c, 0, 67, 10
1, 625437, Note_on_c, 0, 92, 76
1, 625440, Note_off_c, 0, 56, 63
1, 625457, Note_off_c, 0, 96, 55
1, 625466, Control_c, 0, 67, 11
1, 625506, Note_off_c, 0, 92, 64
1, 625511, Note_on_c, 0, 91, 62
1, 625511, Control_c, 0, 64, 61
1, 625523, Note_on_c, 0, 56, 63
1, 625525, Control_c, 0, 64, 70
1, 625531, Note_on_c, 0, 60, 55
1, 625538, Note_off_c, 0, 91, 64
1, 625540, Control_c, 0, 64, 79
1, 625547, Note_on_c, 0, 89, 61
1, 625555, Control_c, 0, 64, 86
1, 625566, Note_off_c, 0, 56, 60
1, 625569, Control_c, 0, 64, 90
1, 625569, Control_c, 0, 67, 10
1, 625574, Note_off_c, 0, 89, 57
1, 625584, Control_c, 0, 64, 94
1, 625584, Control_c, 0, 67, 10
1, 625598, Note_off_c, 0, 53, 53
1, 625599, Control_c, 0, 64, 97
1, 625599, Control_c, 0, 67, 9
1, 625611, Note_on_c, 0, 88, 63
1, 625614, Control_c, 0, 64, 101
1, 625623, Note_off_c, 0, 60, 59
1, 625629, Control_c, 0, 64, 104
1, 625631, Note_off_c, 0, 88, 65
1, 625643, Control_c, 0, 64, 107
1, 625643, Control_c, 0, 67, 9
1, 625658, Control_c, 0, 64, 109
1, 625673, Control_c, 0, 64, 111
1, 625688, Control_c, 0, 64, 112
1, 625688, Control_c, 0, 67, 8
1, 625703, Control_c, 0, 64, 112
1, 625703, Control_c, 0, 67, 8
1, 625718, Control_c, 0, 64, 113
1, 625718, Control_c, 0, 67, 0
1, 625733, Control_c, 0, 64, 113
1, 625748, Control_c, 0, 64, 114
1, 625769, Note_on_c, 0, 60, 57
1, 625772, Note_on_c, 0, 84, 77
1, 625793, Note_on_c, 0, 55, 45
1, 625800, Note_on_c, 0, 58, 49
1, 625807, Control_c, 0, 64, 112
1, 625822, Control_c, 0, 64, 100
1, 625822, Control_c, 0, 67, 8
1, 625836, Control_c, 0, 64, 84
1, 625851, Control_c, 0, 64, 65
1, 625852, Note_on_c, 0, 82, 64
1, 625866, Control_c, 0, 64, 0
1, 625866, Control_c, 0, 67, 9
1, 625907, Note_on_c, 0, 79, 56
1, 625910, Note_off_c, 0, 82, 62
1, 625925, Control_c, 0, 64, 67
1, 625940, Control_c, 0, 64, 77
1, 625953, Note_off_c, 0, 79, 62
1, 625955, Control_c, 0, 64, 85
1, 625956, Note_on_c, 0, 76, 61
1, 625969, Control_c, 0, 64, 90
1, 625984, Control_c, 0, 64, 93
1, 625984, Control_c, 0, 67, 8
1, 625999, Control_c, 0, 64, 96
1, 626012, Note_off_c, 0, 60, 53
1, 626014, Control_c, 0, 64, 98
1, 626021, Note_off_c, 0, 76, 58
1, 626025, Note_off_c, 0, 84, 63
1, 626027, Note_on_c, 0, 61, 56
1, 626028, Note_on_c, 0, 85, 76
1, 626043, Control_c, 0, 64, 97
1, 626043, Control_c, 0, 67, 9
1, 626058, Control_c, 0, 64, 88
1, 626058, Control_c, 0, 67, 9
1, 626073, Control_c, 0, 64, 76
1, 626073, Control_c, 0, 67, 10
1, 626088, Control_c, 0, 64, 63
1, 626102, Control_c, 0, 64, 44
1, 626109, Note_on_c, 0, 82, 70
1, 626125, Control_c, 0, 64, 63
1, 626140, Control_c, 0, 64, 70
1, 626155, Control_c, 0, 64, 77
1, 626165, Note_on_c, 0, 79, 63
1, 626169, Control_c, 0, 64, 83
1, 626169, Control_c, 0, 67, 9
1, 626184, Control_c, 0, 64, 86
1, 626192, Note_off_c, 0, 85, 60
1, 626199, Control_c, 0, 64, 88
1, 626213, Note_off_c, 0, 82, 58
1, 626214, Control_c, 0, 64, 90
1, 626229, Control_c, 0, 64, 92
1, 626231, Note_on_c, 0, 76, 60
1, 626245, Note_off_c, 0, 79, 58
1, 626245, Control_c, 0, 64, 95
1, 626260, Control_c, 0, 64, 98
1, 626274, Control_c, 0, 64, 99
1, 626290, Note_off_c, 0, 76, 59
1, 626297, Note_on_c, 0, 60, 59
1, 626302, Note_on_c, 0, 84, 72
1, 626305, Control_c, 0, 64, 95
1, 626320, Note_off_c, 0, 61, 54
1, 626320, Control_c, 0, 64, 84
1, 626320, Control_c, 0, 67, 10
1, 626335, Control_c, 0, 64, 69
1, 626349, Control_c, 0, 64, 0
1, 626349, Control_c, 0, 67, 10
1, 626362, Note_on_c, 0, 82, 67
1, 626393, Control_c, 0, 64, 62
1, 626408, Control_c, 0, 64, 72
1, 626412, Note_off_c, 0, 84, 57
1, 626421, Note_on_c, 0, 79, 68
1, 626423, Control_c, 0, 64, 79
1, 626438, Control_c, 0, 64, 83
1, 626439, Note_off_c, 0, 82, 62
1, 626453, Control_c, 0, 64, 84
1, 626466, Note_on_c, 0, 76, 66
1, 626467, Control_c, 0, 64, 86
1, 626476, Note_off_c, 0, 79, 57
1, 626482, Control_c, 0, 64, 87
1, 626497, Control_c, 0, 64, 91
1, 626499, Note_off_c, 0, 76, 62
1, 626511, Control_c, 0, 64, 95
1, 626526, Control_c, 0, 64, 96
1, 626541, Control_c, 0, 67, 11
1, 626544, Note_on_c, 0, 89, 83
1, 626553, Note_off_c, 0, 60, 59
1, 626556, Control_c, 0, 64, 91
1, 626556, Control_c, 0, 67, 12
1, 626562, Note_on_c, 0, 65, 72
1, 626571, Control_c, 0, 64, 79
1, 626571, Control_c, 0, 67, 13
1, 626585, Control_c, 0, 64, 65
1, 626600, Control_c, 0, 64, 0
1, 626600, Control_c, 0, 67, 13
1, 626615, Control_c, 0, 64, 44
1, 626623, Note_on_c, 0, 85, 71
1, 626630, Control_c, 0, 64, 62
1, 626645, Control_c, 0, 64, 68
1, 626660, Control_c, 0, 64, 73
1, 626660, Control_c, 0, 67, 13
1, 626675, Control_c, 0, 64, 78
1, 626690, Control_c, 0, 64, 81
1, 626690, Control_c, 0, 67, 12
1, 626691, Note_on_c, 0, 82, 69
1, 626698, Note_off_c, 0, 85, 63
1, 626705, Control_c, 0, 64, 83
1, 626719, Control_c, 0, 64, 84
1, 626719, Control_c, 0, 67, 12
1, 626734, Control_c, 0, 64, 86
1, 626734, Note_on_c, 0, 79, 63
1, 626736, Note_off_c, 0, 82, 59
1, 626749, Control_c, 0, 64, 88
1, 626764, Control_c, 0, 64, 89
1, 626793, Note_off_c, 0, 79, 49
1, 626806, Note_on_c, 0, 88, 75
1, 626808, Control_c, 0, 64, 85
1, 626808, Control_c, 0, 67, 12
1, 626815, Note_on_c, 0, 64, 62
1, 626819, Note_off_c, 0, 89, 39
1, 626821, Note_off_c, 0, 65, 56
1, 626823, Control_c, 0, 64, 76
1, 626823, Control_c, 0, 67, 13
1, 626838, Control_c, 0, 64, 63
1, 626853, Control_c, 0, 64, 0
1, 626880, Note_on_c, 0, 85, 66
1, 626889, Control_c, 0, 64, 21
1, 626904, Control_c, 0, 64, 56
1, 626910, Note_off_c, 0, 88, 59
1, 626919, Control_c, 0, 64, 65
1, 626934, Control_c, 0, 64, 68
1, 626934, Control_c, 0, 67, 12
1, 626934, Note_on_c, 0, 82, 61
1, 626946, Note_off_c, 0, 85, 63
1, 626949, Control_c, 0, 64, 71
1, 626964, Control_c, 0, 64, 73
1, 626964, Control_c, 0, 67, 12
1, 626978, Note_off_c, 0, 82, 64
1, 626979, Control_c, 0, 64, 74
1, 626986, Note_on_c, 0, 79, 50
1, 626993, Control_c, 0, 64, 74
1, 626993, Control_c, 0, 67, 11
1, 627008, Control_c, 0, 64, 75
1, 627015, Note_off_c, 0, 79, 58
1, 627023, Control_c, 0, 64, 76
1, 627038, Control_c, 0, 64, 77
1, 627053, Control_c, 0, 64, 78
1, 627061, Note_on_c, 0, 85, 69
1, 627068, Control_c, 0, 64, 77
1, 627070, Note_on_c, 0, 61, 65
1, 627083, Note_off_c, 0, 64, 59
1, 627083, Control_c, 0, 64, 72
1, 627083, Control_c, 0, 67, 12
1, 627098, Control_c, 0, 64, 64
1, 627113, Control_c, 0, 64, 0
1, 627117, Note_on_c, 0, 82, 64
1, 627157, Control_c, 0, 64, 43
1, 627172, Control_c, 0, 64, 62
1, 627176, Note_on_c, 0, 79, 62
1, 627179, Note_off_c, 0, 85, 36
1, 627187, Control_c, 0, 64, 66
1, 627193, Note_off_c, 0, 82, 61
1, 627202, Control_c, 0, 64, 69
1, 627216, Control_c, 0, 64, 71
1, 627231, Control_c, 0, 64, 72
1, 627231, Control_c, 0, 67, 11
1, 627233, Note_on_c, 0, 76, 60
1, 627246, Control_c, 0, 64, 72
1, 627246, Control_c, 0, 67, 11
1, 627247, Note_off_c, 0, 79, 59
1, 627261, Control_c, 0, 64, 73
1, 627276, Control_c, 0, 64, 74
1, 627290, Control_c, 0, 64, 76
1, 627292, Note_off_c, 0, 76, 65
1, 627292, Note_off_c, 0, 61, 60
1, 627305, Control_c, 0, 64, 76
1, 627307, Note_on_c, 0, 60, 62
1, 627307, Note_on_c, 0, 84, 66
1, 627320, Control_c, 0, 64, 75
1, 627330, Note_off_c, 0, 58, 39
1, 627335, Note_off_c, 0, 55, 41
1, 627335, Control_c, 0, 64, 69
1, 627335, Control_c, 0, 67, 11
1, 627349, Control_c, 0, 64, 48
1, 627355, Note_on_c, 0, 82, 63
1, 627364, Control_c, 0, 64, 0
1, 627414, Note_off_c, 0, 84, 59
1, 627417, Note_off_c, 0, 82, 61
1, 627421, Note_on_c, 0, 79, 59
1, 627423, Control_c, 0, 67, 11
1, 627438, Control_c, 0, 64, 59
1, 627453, Note_off_c, 0, 79, 65
1, 627453, Control_c, 0, 64, 66
1, 627460, Note_on_c, 0, 76, 61
1, 627468, Control_c, 0, 64, 66
1, 627504, Note_off_c, 0, 76, 66
1, 627527, Control_c, 0, 64, 66
1, 627540, Note_on_c, 0, 82, 62
1, 627542, Control_c, 0, 64, 65
1, 627551, Note_on_c, 0, 58, 58
1, 627552, Note_on_c, 0, 52, 54
1, 627557, Control_c, 0, 64, 64
1, 627560, Note_off_c, 0, 60, 57
1, 627566, Note_on_c, 0, 55, 50
1, 627572, Control_c, 0, 64, 63
1, 627587, Control_c, 0, 64, 62
1, 627602, Control_c, 0, 64, 61
1, 627602, Note_on_c, 0, 79, 63
1, 627623, Control_c, 0, 64, 59
1, 627626, Note_off_c, 0, 82, 49
1, 627638, Control_c, 0, 64, 57
1, 627653, Control_c, 0, 64, 53
1, 627658, Note_on_c, 0, 76, 60
1, 627659, Note_off_c, 0, 52, 60
1, 627661, Note_off_c, 0, 79, 61
1, 627668, Control_c, 0, 64, 48
1, 627668, Control_c, 0, 67, 10
1, 627682, Note_off_c, 0, 55, 60
1, 627683, Control_c, 0, 64, 42
1, 627697, Control_c, 0, 64, 36
1, 627699, Note_off_c, 0, 76, 62
1, 627703, Note_on_c, 0, 72, 63
1, 627703, Note_off_c, 0, 58, 61
1, 627712, Control_c, 0, 64, 33
1, 627727, Control_c, 0, 64, 32
1, 627741, Note_off_c, 0, 72, 61
1, 627742, Control_c, 0, 64, 31
1, 627757, Control_c, 0, 64, 30
1, 627772, Control_c, 0, 64, 28
1, 627786, Control_c, 0, 64, 24
1, 627796, Note_on_c, 0, 80, 69
1, 627801, Control_c, 0, 64, 18
1, 627802, Note_on_c, 0, 56, 59
1, 627806, Note_on_c, 0, 53, 56
1, 627815, Control_c, 0, 64, 16
1, 627830, Control_c, 0, 64, 13
1, 627838, Note_off_c, 0, 80, 63
1, 627846, Control_c, 0, 67, 11
1, 627858, Note_on_c, 0, 84, 60
1, 627876, Control_c, 0, 64, 16
1, 627920, Control_c, 0, 64, 10
1, 627921, Note_off_c, 0, 84, 64
1, 627927, Note_on_c, 0, 82, 65
1, 627935, Control_c, 0, 64, 0
1, 627977, Note_on_c, 0, 80, 62
1, 627990, Note_off_c, 0, 82, 60
1, 628006, Note_off_c, 0, 56, 53
1, 628034, Note_on_c, 0, 58, 66
1, 628036, Note_off_c, 0, 80, 62
1, 628037, Note_on_c, 0, 79, 61
1, 628041, Note_on_c, 0, 55, 60
1, 628082, Note_off_c, 0, 79, 59
1, 628103, Note_on_c, 0, 82, 64
1, 628107, Note_off_c, 0, 53, 34
1, 628153, Note_on_c, 0, 80, 69
1, 628185, Note_off_c, 0, 82, 54
1, 628221, Note_off_c, 0, 80, 63
1, 628222, Note_on_c, 0, 79, 60
1, 628252, Note_off_c, 0, 58, 59
1, 628264, Note_off_c, 0, 79, 61
1, 628277, Note_on_c, 0, 77, 51
1, 628278, Note_on_c, 0, 56, 60
1, 628280, Note_on_c, 0, 60, 61
1, 628305, Note_off_c, 0, 77, 57
1, 628332, Note_on_c, 0, 80, 67
1, 628385, Note_off_c, 0, 60, 55
1, 628404, Note_on_c, 0, 79, 58
1, 628404, Note_off_c, 0, 80, 63
1, 628436, Note_off_c, 0, 79, 64
1, 628445, Note_on_c, 0, 77, 66
1, 628475, Control_c, 0, 67, 11
1, 628489, Note_off_c, 0, 77, 61
1, 628502, Note_off_c, 0, 55, 14
1, 628520, Control_c, 0, 64, 10
1, 628530, Note_on_c, 0, 57, 58
1, 628534, Note_on_c, 0, 60, 57
1, 628534, Control_c, 0, 64, 18
1, 628534, Control_c, 0, 67, 12
1, 628538, Note_on_c, 0, 75, 61
1, 628549, Control_c, 0, 64, 23
1, 628559, Note_off_c, 0, 56, 60
1, 628563, Control_c, 0, 64, 25
1, 628568, Note_off_c, 0, 75, 68
1, 628571, Note_off_c, 0, 57, 62
1, 628583, Note_on_c, 0, 78, 60
1, 628616, Note_off_c, 0, 78, 63
1, 628630, Note_off_c, 0, 60, 57
1, 628645, Note_on_c, 0, 77, 66
1, 628668, Control_c, 0, 64, 24
1, 628698, Control_c, 0, 64, 23
1, 628718, Note_off_c, 0, 77, 57
1, 628720, Note_on_c, 0, 75, 58
1, 628769, Note_off_c, 0, 75, 62
1, 628772, Note_on_c, 0, 73, 62
1, 628772, Control_c, 0, 64, 24
1, 628788, Note_on_c, 0, 61, 55
1, 628791, Note_on_c, 0, 58, 58
1, 628815, Note_off_c, 0, 73, 62
1, 628836, Note_on_c, 0, 77, 61
1, 628896, Note_on_c, 0, 75, 64
1, 628905, Note_off_c, 0, 77, 51
1, 628953, Note_on_c, 0, 73, 57
1, 628963, Note_off_c, 0, 75, 64
1, 628979, Control_c, 0, 64, 25
1, 628987, Note_off_c, 0, 61, 53
1, 629004, Note_off_c, 0, 73, 64
1, 629014, Note_on_c, 0, 63, 65
1, 629021, Note_on_c, 0, 72, 50
1, 629025, Note_on_c, 0, 60, 59
1, 629032, Note_off_c, 0, 58, 60
1, 629045, Note_off_c, 0, 72, 60
1, 629069, Note_on_c, 0, 75, 61
1, 629141, Note_on_c, 0, 73, 60
1, 629143, Note_off_c, 0, 75, 65
1, 629182, Note_off_c, 0, 73, 60
1, 629189, Note_on_c, 0, 72, 54
1, 629230, Note_off_c, 0, 72, 60
1, 629263, Note_on_c, 0, 65, 63
1, 629268, Note_on_c, 0, 70, 59
1, 629269, Note_on_c, 0, 61, 58
1, 629274, Note_off_c, 0, 63, 55
1, 629310, Note_off_c, 0, 70, 61
1, 629313, Note_on_c, 0, 73, 62
1, 629313, Control_c, 0, 64, 26
1, 629337, Note_off_c, 0, 60, 47
1, 629370, Note_off_c, 0, 65, 61
1, 629379, Note_on_c, 0, 72, 61
1, 629387, Control_c, 0, 64, 25
1, 629403, Note_off_c, 0, 73, 51
1, 629420, Note_off_c, 0, 61, 62
1, 629444, Note_on_c, 0, 70, 59
1, 629453, Note_off_c, 0, 72, 64
1, 629477, Control_c, 0, 64, 26
1, 629495, Note_off_c, 0, 70, 62
1, 629506, Note_on_c, 0, 69, 54
1, 629507, Control_c, 0, 64, 27
1, 629518, Note_on_c, 0, 66, 63
1, 629519, Note_on_c, 0, 63, 62
1, 629548, Note_off_c, 0, 69, 64
1, 629566, Control_c, 0, 64, 26
1, 629572, Note_on_c, 0, 72, 65
1, 629632, Note_on_c, 0, 70, 65
1, 629642, Note_off_c, 0, 72, 61
1, 629646, Note_off_c, 0, 66, 60
1, 629659, Note_off_c, 0, 63, 62
1, 629685, Note_off_c, 0, 70, 62
1, 629697, Note_on_c, 0, 69, 57
1, 629729, Control_c, 0, 67, 11
1, 629742, Note_off_c, 0, 69, 62
1, 629763, Note_on_c, 0, 65, 68
1, 629766, Note_on_c, 0, 70, 52
1, 629771, Note_on_c, 0, 61, 59
1, 629806, Note_off_c, 0, 70, 64
1, 629809, Note_on_c, 0, 73, 60
1, 629880, Note_on_c, 0, 72, 60
1, 629897, Note_off_c, 0, 65, 63
1, 629925, Note_off_c, 0, 73, 36
1, 629934, Note_off_c, 0, 61, 61
1, 629945, Note_on_c, 0, 70, 59
1, 629953, Note_off_c, 0, 72, 62
1, 629958, Control_c, 0, 64, 27
1, 629994, Note_off_c, 0, 70, 63
1, 630005, Note_on_c, 0, 63, 68
1, 630007, Note_on_c, 0, 69, 58
1, 630010, Note_on_c, 0, 66, 62
1, 630031, Control_c, 0, 64, 28
1, 630034, Note_off_c, 0, 63, 66
1, 630039, Note_off_c, 0, 66, 66
1, 630043, Note_off_c, 0, 69, 66
1, 630068, Note_on_c, 0, 72, 63
1, 630113, Note_on_c, 0, 63, 63
1, 630119, Note_on_c, 0, 70, 64
1, 630120, Note_on_c, 0, 66, 57
1, 630128, Note_off_c, 0, 72, 62
1, 630139, Note_off_c, 0, 66, 63
1, 630141, Note_off_c, 0, 63, 66
1, 630167, Note_off_c, 0, 70, 63
1, 630178, Note_on_c, 0, 69, 59
1, 630219, Note_off_c, 0, 69, 60
1, 630235, Note_on_c, 0, 61, 52
1, 630237, Note_on_c, 0, 65, 63
1, 630251, Note_on_c, 0, 70, 53
1, 630290, Note_off_c, 0, 70, 64
1, 630297, Note_on_c, 0, 73, 62
1, 630356, Note_off_c, 0, 65, 63
1, 630357, Note_on_c, 0, 72, 59
1, 630373, Control_c, 0, 64, 27
1, 630380, Note_off_c, 0, 73, 53
1, 630388, Control_c, 0, 64, 26
1, 630392, Note_off_c, 0, 61, 62
1, 630413, Note_on_c, 0, 70, 62
1, 630419, Note_off_c, 0, 72, 64
1, 630460, Note_off_c, 0, 70, 63
1, 630464, Note_on_c, 0, 63, 62
1, 630471, Note_on_c, 0, 66, 53
1, 630477, Control_c, 0, 64, 27
1, 630478, Note_on_c, 0, 69, 50
1, 630495, Note_off_c, 0, 63, 66
1, 630498, Note_off_c, 0, 66, 58
1, 630502, Note_off_c, 0, 69, 60
1, 630526, Note_on_c, 0, 72, 66
1, 630571, Note_on_c, 0, 63, 61
1, 630581, Note_off_c, 0, 72, 62
1, 630583, Note_on_c, 0, 70, 64
1, 630592, Note_on_c, 0, 66, 44
1, 630592, Note_off_c, 0, 63, 64
1, 630626, Note_off_c, 0, 70, 62
1, 630627, Note_off_c, 0, 66, 55
1, 630633, Note_on_c, 0, 69, 55
1, 630647, Control_c, 0, 64, 28
1, 630674, Note_off_c, 0, 69, 64
1, 630698, Note_on_c, 0, 61, 60
1, 630699, Note_on_c, 0, 65, 73
1, 630703, Note_on_c, 0, 70, 64
1, 630721, Control_c, 0, 64, 27
1, 630741, Note_off_c, 0, 70, 63
1, 630751, Control_c, 0, 64, 26
1, 630761, Note_on_c, 0, 72, 61
1, 630810, Control_c, 0, 64, 25
1, 630819, Note_off_c, 0, 72, 64
1, 630824, Note_on_c, 0, 70, 67
1, 630858, Note_off_c, 0, 70, 63
1, 630872, Note_on_c, 0, 69, 60
1, 630899, Control_c, 0, 64, 26
1, 630902, Note_off_c, 0, 69, 58
1, 630918, Note_on_c, 0, 70, 66
1, 630929, Control_c, 0, 64, 27
1, 630943, Control_c, 0, 64, 28
1, 630949, Note_off_c, 0, 70, 65
1, 630958, Control_c, 0, 64, 30
1, 630973, Control_c, 0, 64, 31
1, 630988, Control_c, 0, 64, 32
1, 630997, Note_on_c, 0, 72, 67
1, 631024, Note_off_c, 0, 72, 68
1, 631033, Control_c, 0, 64, 29
1, 631048, Control_c, 0, 64, 24
1, 631054, Note_on_c, 0, 73, 58
1, 631063, Control_c, 0, 64, 0
1, 631100, Note_off_c, 0, 73, 62
1, 631107, Note_on_c, 0, 75, 66
1, 631155, Note_off_c, 0, 75, 60
1, 631157, Note_on_c, 0, 77, 62
1, 631196, Control_c, 0, 64, 58
1, 631199, Note_off_c, 0, 77, 51
1, 631211, Control_c, 0, 64, 65
1, 631218, Note_on_c, 0, 76, 66
1, 631226, Control_c, 0, 64, 68
1, 631241, Control_c, 0, 64, 70
1, 631255, Control_c, 0, 64, 70
1, 631256, Note_off_c, 0, 76, 65
1, 631264, Note_on_c, 0, 79, 67
1, 631270, Control_c, 0, 64, 71
1, 631298, Note_off_c, 0, 79, 58
1, 631322, Note_on_c, 0, 77, 63
1, 631387, Note_on_c, 0, 75, 68
1, 631394, Note_off_c, 0, 77, 59
1, 631424, Note_off_c, 0, 65, 54
1, 631435, Note_on_c, 0, 73, 60
1, 631437, Note_off_c, 0, 75, 63
1, 631441, Control_c, 0, 64, 70
1, 631468, Note_off_c, 0, 73, 64
1, 631470, Control_c, 0, 64, 70
1, 631481, Note_off_c, 0, 61, 32
1, 631483, Note_on_c, 0, 72, 59
1, 631485, Control_c, 0, 64, 69
1, 631500, Control_c, 0, 64, 69
1, 631504, Note_off_c, 0, 72, 64
1, 631514, Control_c, 0, 64, 68
1, 631529, Control_c, 0, 64, 68
1, 631544, Note_on_c, 0, 70, 67
1, 631544, Control_c, 0, 64, 67
1, 631559, Control_c, 0, 64, 66
1, 631574, Control_c, 0, 64, 66
1, 631587, Note_off_c, 0, 70, 61
1, 631603, Control_c, 0, 64, 65
1, 631611, Note_on_c, 0, 69, 52
1, 631618, Control_c, 0, 64, 65
1, 631633, Control_c, 0, 64, 64
1, 631641, Note_off_c, 0, 69, 65
1, 631668, Note_on_c, 0, 70, 38
1, 631677, Control_c, 0, 64, 64
1, 631677, Control_c, 0, 67, 11
1, 631692, Control_c, 0, 64, 63
1, 631695, Note_off_c, 0, 70, 52
1, 631695, Note_on_c, 0, 72, 68
1, 631707, Control_c, 0, 64, 63
1, 631721, Control_c, 0, 67, 10
1, 631736, Control_c, 0, 64, 62
1, 631751, Note_on_c, 0, 70, 65
1, 631751, Control_c, 0, 64, 61
1, 631755, Note_off_c, 0, 72, 61
1, 631766, Control_c, 0, 64, 60
1, 631787, Note_off_c, 0, 70, 59
1, 631796, Control_c, 0, 64, 59
1, 631809, Note_on_c, 0, 64, 60
1, 631826, Control_c, 0, 64, 59
1, 631838, Note_off_c, 0, 64, 67
1, 631841, Control_c, 0, 64, 58
1, 631854, Note_on_c, 0, 65, 75
1, 631856, Control_c, 0, 64, 57
1, 631871, Control_c, 0, 64, 56
1, 631885, Control_c, 0, 64, 52
1, 631900, Control_c, 0, 64, 47
1, 631909, Note_off_c, 0, 65, 66
1, 631915, Control_c, 0, 64, 44
1, 631923, Note_on_c, 0, 67, 67
1, 631930, Control_c, 0, 64, 43
1, 631960, Control_c, 0, 67, 10
1, 631977, Note_off_c, 0, 67, 62
1, 631981, Note_on_c, 0, 65, 52
1, 632002, Note_off_c, 0, 65, 63
1, 632004, Control_c, 0, 67, 9
1, 632024, Note_on_c, 0, 60, 62
1, 632034, Control_c, 0, 64, 43
1, 632055, Note_off_c, 0, 60, 64
1, 632064, Control_c, 0, 64, 44
1, 632078, Control_c, 0, 64, 44
1, 632097, Note_on_c, 0, 61, 67
1, 632115, Control_c, 0, 64, 45
1, 632130, Control_c, 0, 64, 46
1, 632134, Note_off_c, 0, 61, 63
1, 632155, Note_on_c, 0, 63, 63
1, 632175, Control_c, 0, 64, 45
1, 632203, Note_on_c, 0, 61, 65
1, 632204, Control_c, 0, 64, 45
1, 632207, Note_off_c, 0, 63, 65
1, 632219, Control_c, 0, 64, 44
1, 632238, Note_off_c, 0, 61, 64
1, 632249, Control_c, 0, 64, 43
1, 632263, Note_on_c, 0, 57, 62
1, 632296, Note_off_c, 0, 57, 63
1, 632319, Note_on_c, 0, 58, 68
1, 632352, Control_c, 0, 64, 42
1, 632356, Note_off_c, 0, 58, 64
1, 632377, Note_on_c, 0, 60, 58
1, 632382, Control_c, 0, 64, 42
1, 632397, Control_c, 0, 64, 41
1, 632411, Control_c, 0, 64, 36
1, 632426, Control_c, 0, 64, 0
1, 632431, Note_on_c, 0, 58, 58
1, 632435, Note_off_c, 0, 60, 60
1, 632474, Note_off_c, 0, 58, 61
1, 632489, Note_on_c, 0, 55, 55
1, 632504, Note_on_c, 0, 51, 81
1, 632515, Note_on_c, 0, 39, 63
1, 632525, Note_off_c, 0, 55, 64
1, 632551, Note_on_c, 0, 58, 56
1, 632604, Note_on_c, 0, 56, 59
1, 632606, Note_off_c, 0, 58, 63
1, 632642, Note_off_c, 0, 56, 63
1, 632653, Note_on_c, 0, 55, 54
1, 632688, Note_off_c, 0, 55, 65
1, 632711, Note_on_c, 0, 56, 54
1, 632742, Note_off_c, 0, 56, 65
1, 632749, Note_on_c, 0, 58, 61
1, 632778, Note_off_c, 0, 58, 66
1, 632812, Note_on_c, 0, 60, 61
1, 632857, Note_off_c, 0, 60, 56
1, 632880, Note_off_c, 0, 39, 59
1, 632887, Note_on_c, 0, 61, 62
1, 632920, Note_off_c, 0, 61, 64
1, 632935, Note_on_c, 0, 63, 59
1, 632956, Note_off_c, 0, 63, 65
1, 632975, Note_off_c, 0, 51, 61
1, 632994, Note_on_c, 0, 65, 69
1, 633038, Note_off_c, 0, 65, 62
1, 633060, Note_on_c, 0, 67, 73
1, 633093, Note_off_c, 0, 67, 62
1, 633108, Note_on_c, 0, 68, 63
1, 633137, Note_off_c, 0, 68, 67
1, 633150, Note_on_c, 0, 70, 64
1, 633176, Note_off_c, 0, 70, 65
1, 633212, Note_on_c, 0, 72, 68
1, 633254, Note_off_c, 0, 72, 61
1, 633267, Note_on_c, 0, 73, 68
1, 633315, Note_off_c, 0, 73, 64
1, 633319, Note_on_c, 0, 75, 69
1, 633346, Note_off_c, 0, 75, 69
1, 633353, Note_on_c, 0, 51, 61
1, 633382, Note_on_c, 0, 77, 71
1, 633440, Note_off_c, 0, 77, 57
1, 633453, Note_on_c, 0, 79, 71
1, 633473, Control_c, 0, 64, 25
1, 633480, Note_on_c, 0, 61, 66
1, 633488, Note_on_c, 0, 58, 59
1, 633488, Control_c, 0, 64, 27
1, 633490, Note_off_c, 0, 79, 59
1, 633491, Note_on_c, 0, 55, 54
1, 633501, Note_on_c, 0, 80, 66
1, 633502, Control_c, 0, 64, 31
1, 633507, Note_off_c, 0, 61, 65
1, 633517, Control_c, 0, 64, 37
1, 633522, Note_off_c, 0, 58, 64
1, 633531, Note_off_c, 0, 80, 67
1, 633532, Control_c, 0, 64, 46
1, 633535, Note_off_c, 0, 55, 65
1, 633540, Note_on_c, 0, 82, 66
1, 633547, Control_c, 0, 64, 47
1, 633547, Control_c, 0, 67, 9
1, 633562, Control_c, 0, 64, 46
1, 633563, Note_off_c, 0, 82, 67
1, 633606, Note_on_c, 0, 61, 66
1, 633611, Note_on_c, 0, 58, 70
1, 633617, Note_on_c, 0, 84, 73
1, 633623, Note_on_c, 0, 55, 58
1, 633629, Control_c, 0, 64, 44
1, 633638, Note_off_c, 0, 61, 64
1, 633644, Control_c, 0, 64, 43
1, 633644, Note_off_c, 0, 58, 65
1, 633656, Note_off_c, 0, 84, 65
1, 633658, Control_c, 0, 64, 41
1, 633665, Note_off_c, 0, 55, 64
1, 633673, Control_c, 0, 64, 38
1, 633677, Note_on_c, 0, 85, 49
1, 633688, Control_c, 0, 64, 37
1, 633704, Note_off_c, 0, 85, 57
1, 633710, Note_on_c, 0, 87, 70
1, 633717, Control_c, 0, 64, 38
1, 633719, Note_on_c, 0, 61, 71
1, 633729, Note_on_c, 0, 55, 60
1, 633731, Note_on_c, 0, 58, 65
1, 633732, Control_c, 0, 64, 39
1, 633744, Note_off_c, 0, 87, 63
1, 633745, Note_off_c, 0, 61, 64
1, 633760, Note_off_c, 0, 58, 66
1, 633772, Note_off_c, 0, 55, 65
1, 633775, Note_on_c, 0, 89, 61
1, 633791, Control_c, 0, 64, 38
1, 633806, Control_c, 0, 64, 37
1, 633814, Note_off_c, 0, 89, 54
1, 633821, Control_c, 0, 64, 36
1, 633832, Note_on_c, 0, 61, 62
1, 633835, Note_on_c, 0, 58, 72
1, 633836, Control_c, 0, 64, 36
1, 633842, Note_on_c, 0, 55, 51
1, 633846, Note_on_c, 0, 91, 70
1, 633862, Note_off_c, 0, 61, 64
1, 633871, Note_off_c, 0, 58, 64
1, 633877, Note_off_c, 0, 91, 56
1, 633880, Control_c, 0, 64, 36
1, 633882, Note_on_c, 0, 92, 68
1, 633891, Note_off_c, 0, 55, 63
1, 633895, Control_c, 0, 64, 37
1, 633895, Control_c, 0, 67, 9
1, 633931, Note_on_c, 0, 94, 66
1, 633933, Note_off_c, 0, 92, 63
1, 633944, Note_on_c, 0, 61, 68
1, 633954, Note_on_c, 0, 55, 50
1, 633956, Note_on_c, 0, 58, 62
1, 633974, Note_off_c, 0, 61, 62
1, 633981, Note_on_c, 0, 96, 66
1, 633982, Note_off_c, 0, 94, 64
1, 633986, Note_off_c, 0, 58, 66
1, 633997, Note_off_c, 0, 55, 65
1, 634014, Control_c, 0, 67, 10
1, 634027, Note_off_c, 0, 96, 55
1, 634038, Note_on_c, 0, 94, 59
1, 634044, Control_c, 0, 67, 10
1, 634059, Note_on_c, 0, 61, 60
1, 634062, Note_on_c, 0, 58, 65
1, 634075, Note_on_c, 0, 55, 50
1, 634088, Note_off_c, 0, 61, 62
1, 634091, Note_on_c, 0, 92, 65
1, 634094, Note_off_c, 0, 58, 66
1, 634105, Note_off_c, 0, 94, 62
1, 634111, Note_off_c, 0, 55, 63
1, 634132, Control_c, 0, 64, 38
1, 634145, Note_off_c, 0, 92, 65
1, 634147, Control_c, 0, 64, 38
1, 634154, Note_on_c, 0, 91, 55
1, 634169, Note_on_c, 0, 61, 61
1, 634176, Note_off_c, 0, 91, 60
1, 634180, Note_on_c, 0, 58, 65
1, 634189, Note_on_c, 0, 89, 58
1, 634191, Note_on_c, 0, 55, 49
1, 634208, Note_off_c, 0, 61, 61
1, 634219, Note_off_c, 0, 58, 60
1, 634221, Control_c, 0, 64, 39
1, 634222, Note_off_c, 0, 89, 67
1, 634223, Note_off_c, 0, 51, 61
1, 634234, Note_off_c, 0, 55, 61
1, 634237, Control_c, 0, 64, 40
1, 634252, Control_c, 0, 64, 42
1, 634267, Control_c, 0, 64, 44
1, 634276, Note_on_c, 0, 87, 64
1, 634281, Control_c, 0, 64, 45
1, 634296, Control_c, 0, 64, 43
1, 634306, Note_on_c, 0, 61, 77
1, 634311, Control_c, 0, 64, 39
1, 634319, Note_on_c, 0, 51, 61
1, 634322, Note_on_c, 0, 58, 69
1, 634324, Note_on_c, 0, 55, 67
1, 634324, Note_off_c, 0, 87, 62
1, 634325, Control_c, 0, 64, 18
1, 634336, Note_on_c, 0, 85, 57
1, 634340, Control_c, 0, 64, 0
1, 634363, Control_c, 0, 67, 11
1, 634369, Note_off_c, 0, 85, 67
1, 634380, Note_on_c, 0, 84, 63
1, 634408, Note_off_c, 0, 84, 68
1, 634460, Note_on_c, 0, 82, 63
1, 634512, Note_off_c, 0, 82, 57
1, 634513, Note_on_c, 0, 80, 56
1, 634553, Note_on_c, 0, 79, 61
1, 634559, Note_off_c, 0, 80, 63
1, 634586, Note_off_c, 0, 79, 64
1, 634601, Note_on_c, 0, 77, 59
1, 634631, Note_off_c, 0, 77, 56
1, 634675, Note_on_c, 0, 76, 64
1, 634726, Note_off_c, 0, 58, 50
1, 634732, Note_on_c, 0, 75, 66
1, 634742, Note_off_c, 0, 76, 64
1, 634751, Note_off_c, 0, 55, 48
1, 634751, Note_off_c, 0, 61, 57
1, 634772, Note_off_c, 0, 75, 65
1, 634784, Note_on_c, 0, 74, 59
1, 634790, Note_off_c, 0, 51, 54
1, 634821, Note_off_c, 0, 74, 64
1, 634847, Note_on_c, 0, 73, 65
1, 634850, Control_c, 0, 67, 10
1, 634905, Note_on_c, 0, 72, 68
1, 634920, Note_off_c, 0, 73, 51
1, 634931, Note_off_c, 0, 72, 69
1, 634972, Note_on_c, 0, 71, 34
1, 634984, Control_c, 0, 67, 10
1, 634998, Control_c, 0, 67, 9
1, 635004, Note_off_c, 0, 71, 32
1, 635014, Note_on_c, 0, 70, 70
1, 635054, Note_off_c, 0, 70, 56
1, 635073, Note_on_c, 0, 69, 62
1, 635123, Note_off_c, 0, 69, 64
1, 635138, Note_on_c, 0, 68, 72
1, 635170, Control_c, 0, 67, 9
1, 635180, Note_off_c, 0, 68, 64
1, 635194, Note_on_c, 0, 67, 59
1, 635226, Note_off_c, 0, 67, 62
1, 635254, Note_on_c, 0, 66, 73
1, 635309, Note_on_c, 0, 65, 65
1, 635322, Note_off_c, 0, 66, 64
1, 635348, Note_off_c, 0, 65, 67
1, 635361, Note_on_c, 0, 64, 60
1, 635403, Note_off_c, 0, 64, 55
1, 635407, Control_c, 0, 67, 8
1, 635423, Note_on_c, 0, 63, 74
1, 635459, Note_off_c, 0, 63, 63
1, 635483, Note_on_c, 0, 62, 63
1, 635529, Note_off_c, 0, 62, 57
1, 635544, Note_on_c, 0, 61, 70
1, 635606, Note_on_c, 0, 60, 67
1, 635615, Note_off_c, 0, 61, 62
1, 635634, Note_off_c, 0, 60, 66
1, 635656, Note_on_c, 0, 59, 55
1, 635684, Note_off_c, 0, 59, 55
1, 635688, Control_c, 0, 67, 8
1, 635721, Note_on_c, 0, 58, 66
1, 635733, Control_c, 0, 64, 13
1, 635747, Control_c, 0, 64, 16
1, 635754, Note_off_c, 0, 58, 64
1, 635762, Control_c, 0, 64, 18
1, 635783, Note_on_c, 0, 57, 48
1, 635792, Control_c, 0, 64, 20
1, 635807, Control_c, 0, 64, 23
1, 635815, Note_off_c, 0, 57, 53
1, 635823, Control_c, 0, 64, 28
1, 635838, Control_c, 0, 64, 34
1, 635841, Note_on_c, 0, 56, 61
1, 635859, Control_c, 0, 64, 39
1, 635874, Control_c, 0, 64, 43
1, 635879, Note_off_c, 0, 56, 64
1, 635889, Control_c, 0, 64, 46
1, 635897, Note_on_c, 0, 55, 60
1, 635904, Control_c, 0, 64, 47
1, 635919, Control_c, 0, 64, 47
1, 635938, Note_off_c, 0, 55, 62
1, 635948, Control_c, 0, 67, 0
1, 635955, Note_on_c, 0, 54, 60
1, 636008, Control_c, 0, 64, 46
1, 636017, Note_on_c, 0, 53, 51
1, 636023, Control_c, 0, 64, 46
1, 636034, Note_off_c, 0, 54, 62
1, 636044, Note_on_c, 0, 52, 66
1, 636050, Note_off_c, 0, 53, 67
1, 636068, Control_c, 0, 64, 45
1, 636075, Note_off_c, 0, 52, 67
1, 636083, Control_c, 0, 64, 43
1, 636097, Control_c, 0, 64, 42
1, 636112, Control_c, 0, 64, 38
1, 636127, Note_on_c, 0, 51, 67
1, 636127, Control_c, 0, 64, 34
1, 636133, Note_on_c, 0, 44, 63
1, 636142, Control_c, 0, 64, 26
1, 636157, Control_c, 0, 64, 16
1, 636172, Control_c, 0, 64, 0
1, 636186, Note_off_c, 0, 51, 57
1, 636202, Note_on_c, 0, 56, 57
1, 636237, Note_off_c, 0, 56, 63
1, 636246, Note_on_c, 0, 60, 53
1, 636287, Note_off_c, 0, 60, 62
1, 636314, Note_on_c, 0, 56, 60
1, 636347, Note_off_c, 0, 56, 63
1, 636354, Note_on_c, 0, 63, 63
1, 636391, Note_off_c, 0, 63, 64
1, 636428, Note_on_c, 0, 56, 58
1, 636458, Note_off_c, 0, 56, 64
1, 636460, Note_off_c, 0, 44, 59
1, 636473, Note_on_c, 0, 60, 56
1, 636518, Note_off_c, 0, 60, 59
1, 636536, Note_on_c, 0, 56, 63
1, 636570, Note_off_c, 0, 56, 63
1, 636587, Note_on_c, 0, 51, 59
1, 636637, Note_off_c, 0, 51, 63
1, 636661, Note_on_c, 0, 56, 60
1, 636693, Note_off_c, 0, 56, 63
1, 636706, Note_on_c, 0, 60, 50
1, 636717, Note_on_c, 0, 44, 65
1, 636747, Note_off_c, 0, 60, 63
1, 636748, Note_off_c, 0, 44, 65
1, 636765, Note_on_c, 0, 56, 56
1, 636796, Note_off_c, 0, 56, 65
1, 636815, Note_on_c, 0, 63, 61
1, 636831, Note_on_c, 0, 43, 66
1, 636854, Note_off_c, 0, 63, 62
1, 636861, Note_off_c, 0, 43, 62
1, 636878, Note_on_c, 0, 56, 60
1, 636922, Note_off_c, 0, 56, 59
1, 636935, Note_on_c, 0, 44, 71
1, 636950, Note_on_c, 0, 60, 46
1, 636964, Note_off_c, 0, 44, 65
1, 637001, Note_off_c, 0, 60, 61
1, 637013, Note_on_c, 0, 56, 36
1, 637053, Note_off_c, 0, 56, 53
1, 637060, Note_on_c, 0, 51, 61
1, 637064, Note_on_c, 0, 46, 82
1, 637087, Note_off_c, 0, 46, 66
1, 637099, Note_off_c, 0, 51, 64
1, 637120, Note_on_c, 0, 55, 49
1, 637164, Note_off_c, 0, 55, 65
1, 637165, Note_on_c, 0, 61, 66
1, 637172, Control_c, 0, 67, 8
1, 637205, Note_off_c, 0, 61, 57
1, 637216, Control_c, 0, 67, 8
1, 637235, Note_on_c, 0, 55, 61
1, 637260, Control_c, 0, 67, 9
1, 637274, Note_off_c, 0, 55, 65
1, 637291, Note_on_c, 0, 63, 66
1, 637309, Note_on_c, 0, 39, 80
1, 637324, Note_off_c, 0, 63, 64
1, 637357, Control_c, 0, 64, 43
1, 637364, Note_on_c, 0, 55, 65
1, 637372, Control_c, 0, 64, 66
1, 637387, Control_c, 0, 64, 71
1, 637401, Control_c, 0, 64, 75
1, 637412, Note_off_c, 0, 55, 64
1, 637416, Control_c, 0, 64, 76
1, 637417, Note_on_c, 0, 61, 68
1, 637432, Control_c, 0, 64, 77
1, 637432, Control_c, 0, 67, 8
1, 637470, Note_off_c, 0, 61, 53
1, 637499, Note_off_c, 0, 39, 57
1, 637510, Note_on_c, 0, 55, 42
1, 637522, Note_on_c, 0, 51, 62
1, 637535, Note_off_c, 0, 55, 57
1, 637570, Note_off_c, 0, 51, 60
1, 637637, Note_on_c, 0, 61, 48
1, 637639, Control_c, 0, 64, 76
1, 637650, Note_on_c, 0, 55, 31
1, 637662, Note_on_c, 0, 46, 75
1, 637665, Note_off_c, 0, 61, 53
1, 637668, Control_c, 0, 64, 75
1, 637683, Control_c, 0, 64, 74
1, 637690, Note_off_c, 0, 46, 64
1, 637698, Control_c, 0, 64, 71
1, 637707, Note_off_c, 0, 55, 62
1, 637713, Control_c, 0, 64, 69
1, 637728, Note_on_c, 0, 63, 60
1, 637728, Control_c, 0, 64, 67
1, 637743, Control_c, 0, 64, 65
1, 637758, Control_c, 0, 64, 62
1, 637764, Note_off_c, 0, 63, 63
1, 637768, Note_on_c, 0, 44, 69
1, 637773, Control_c, 0, 64, 50
1, 637788, Control_c, 0, 64, 13
1, 637803, Control_c, 0, 64, 0
1, 637805, Note_off_c, 0, 44, 63
1, 637808, Note_on_c, 0, 55, 49
1, 637832, Note_off_c, 0, 55, 59
1, 637846, Note_on_c, 0, 61, 57
1, 637871, Note_on_c, 0, 46, 76
1, 637897, Note_off_c, 0, 61, 57
1, 637904, Note_off_c, 0, 46, 64
1, 637921, Note_on_c, 0, 55, 45
1, 637949, Note_off_c, 0, 55, 54
1, 637975, Note_on_c, 0, 51, 63
1, 637996, Note_on_c, 0, 48, 81
1, 638019, Note_off_c, 0, 51, 61
1, 638023, Note_off_c, 0, 48, 70
1, 638050, Note_on_c, 0, 56, 56
1, 638080, Note_off_c, 0, 56, 65
1, 638083, Control_c, 0, 67, 9
1, 638087, Note_on_c, 0, 60, 62
1, 638139, Note_off_c, 0, 60, 60
1, 638172, Note_on_c, 0, 56, 58
1, 638205, Note_off_c, 0, 56, 63
1, 638216, Note_on_c, 0, 63, 62
1, 638241, Control_c, 0, 67, 9
1, 638245, Note_on_c, 0, 44, 81
1, 638250, Note_off_c, 0, 63, 64
1, 638282, Note_on_c, 0, 56, 63
1, 638313, Control_c, 0, 64, 25
1, 638318, Note_off_c, 0, 56, 63
1, 638328, Control_c, 0, 64, 64
1, 638333, Note_on_c, 0, 60, 64
1, 638343, Control_c, 0, 64, 68
1, 638358, Control_c, 0, 64, 70
1, 638372, Control_c, 0, 64, 72
1, 638387, Note_off_c, 0, 60, 57
1, 638402, Control_c, 0, 67, 9
1, 638405, Note_on_c, 0, 56, 55
1, 638426, Note_off_c, 0, 44, 59
1, 638441, Note_off_c, 0, 56, 65
1, 638452, Note_on_c, 0, 51, 60
1, 638494, Note_off_c, 0, 51, 64
1, 638589, Note_on_c, 0, 48, 70
1, 638589, Note_on_c, 0, 60, 38
1, 638615, Note_off_c, 0, 48, 67
1, 638620, Note_off_c, 0, 60, 54
1, 638625, Control_c, 0, 64, 71
1, 638626, Note_on_c, 0, 56, 57
1, 638639, Control_c, 0, 64, 71
1, 638662, Note_off_c, 0, 56, 62
1, 638671, Note_on_c, 0, 63, 58
1, 638695, Note_on_c, 0, 46, 69
1, 638707, Note_off_c, 0, 63, 64
1, 638713, Control_c, 0, 64, 70
1, 638724, Note_off_c, 0, 46, 64
1, 638743, Control_c, 0, 64, 69
1, 638758, Control_c, 0, 64, 68
1, 638765, Note_on_c, 0, 56, 39
1, 638772, Control_c, 0, 64, 68
1, 638787, Control_c, 0, 64, 66
1, 638795, Note_on_c, 0, 60, 44
1, 638796, Note_on_c, 0, 48, 81
1, 638802, Control_c, 0, 64, 65
1, 638817, Control_c, 0, 64, 61
1, 638825, Note_off_c, 0, 48, 68
1, 638831, Note_off_c, 0, 56, 0
1, 638832, Control_c, 0, 64, 51
1, 638854, Control_c, 0, 64, 28
1, 638859, Note_on_c, 0, 56, 18
1, 638864, Note_off_c, 0, 60, 62
1, 638869, Control_c, 0, 64, 0
1, 638891, Note_off_c, 0, 56, 55
1, 638918, Note_on_c, 0, 53, 59
1, 638926, Note_on_c, 0, 49, 87
1, 638948, Note_off_c, 0, 49, 68
1, 638955, Note_off_c, 0, 53, 64
1, 639004, Note_on_c, 0, 56, 36
1, 639031, Note_on_c, 0, 58, 63
1, 639031, Note_off_c, 0, 56, 52
1, 639063, Note_off_c, 0, 58, 66
1, 639120, Note_on_c, 0, 56, 41
1, 639150, Note_off_c, 0, 56, 46
1, 639159, Note_on_c, 0, 65, 61
1, 639171, Note_on_c, 0, 46, 85
1, 639196, Note_off_c, 0, 65, 62
1, 639199, Note_off_c, 0, 46, 67
1, 639221, Note_on_c, 0, 56, 53
1, 639248, Note_off_c, 0, 56, 64
1, 639264, Note_on_c, 0, 58, 61
1, 639317, Note_off_c, 0, 58, 62
1, 639326, Note_on_c, 0, 56, 61
1, 639366, Note_off_c, 0, 56, 64
1, 639392, Note_on_c, 0, 55, 58
1, 639406, Note_on_c, 0, 51, 73
1, 639418, Note_off_c, 0, 55, 64
1, 639436, Note_off_c, 0, 51, 64
1, 639450, Note_on_c, 0, 58, 63
1, 639498, Note_off_c, 0, 58, 63
1, 639511, Note_on_c, 0, 61, 60
1, 639550, Note_off_c, 0, 61, 61
1, 639569, Note_on_c, 0, 58, 49
1, 639618, Note_off_c, 0, 58, 65
1, 639630, Note_on_c, 0, 63, 61
1, 639646, Note_on_c, 0, 39, 69
1, 639683, Note_off_c, 0, 63, 58
1, 639687, Note_off_c, 0, 39, 64
1, 639693, Note_on_c, 0, 58, 59
1, 639707, Control_c, 0, 67, 9
1, 639731, Note_off_c, 0, 58, 62
1, 639745, Note_on_c, 0, 61, 58
1, 639781, Note_off_c, 0, 61, 65
1, 639833, Note_on_c, 0, 58, 3
1, 639853, Note_off_c, 0, 58, 29
1, 639856, Note_on_c, 0, 51, 57
1, 639863, Note_on_c, 0, 44, 74
1, 639885, Note_off_c, 0, 51, 64
1, 639886, Control_c, 0, 67, 9
1, 639898, Note_off_c, 0, 44, 68
1, 639920, Note_on_c, 0, 56, 61
1, 639952, Note_off_c, 0, 56, 63
1, 639967, Note_on_c, 0, 60, 60
1, 639976, Note_on_c, 0, 46, 69
1, 640000, Note_off_c, 0, 46, 38
1, 640011, Note_off_c, 0, 60, 60
1, 640032, Note_on_c, 0, 56, 62
1, 640049, Control_c, 0, 67, 9
1, 640070, Note_off_c, 0, 56, 63
1, 640090, Note_on_c, 0, 63, 58
1, 640106, Note_on_c, 0, 48, 89
1, 640125, Note_off_c, 0, 63, 63
1, 640139, Note_off_c, 0, 48, 68
1, 640152, Control_c, 0, 67, 9
1, 640153, Note_on_c, 0, 56, 61
1, 640167, Control_c, 0, 64, 65
1, 640167, Control_c, 0, 67, 8
1, 640182, Control_c, 0, 64, 78
1, 640188, Note_off_c, 0, 56, 58
1, 640197, Note_on_c, 0, 60, 63
1, 640197, Control_c, 0, 64, 91
1, 640212, Control_c, 0, 64, 102
1, 640212, Control_c, 0, 67, 0
1, 640226, Control_c, 0, 64, 110
1, 640241, Control_c, 0, 64, 117
1, 640256, Control_c, 0, 64, 123
1, 640261, Note_off_c, 0, 60, 61
1, 640271, Control_c, 0, 64, 127
1, 640282, Note_on_c, 0, 56, 32
1, 640308, Note_off_c, 0, 56, 55
1, 640310, Note_on_c, 0, 51, 57
1, 640352, Note_off_c, 0, 51, 63
1, 640393, Note_on_c, 0, 56, 61
1, 640423, Note_off_c, 0, 56, 64
1, 640429, Note_on_c, 0, 68, 77
1, 640434, Note_on_c, 0, 60, 57
1, 640459, Note_off_c, 0, 68, 63
1, 640475, Note_off_c, 0, 60, 60
1, 640533, Note_on_c, 0, 63, 57
1, 640554, Note_on_c, 0, 67, 79
1, 640578, Note_off_c, 0, 67, 68
1, 640599, Note_off_c, 0, 63, 53
1, 640601, Note_on_c, 0, 56, 46
1, 640634, Note_off_c, 0, 56, 64
1, 640650, Note_on_c, 0, 60, 59
1, 640672, Note_on_c, 0, 68, 46
1, 640674, Note_on_c, 0, 67, 51
1, 640691, Note_off_c, 0, 68, 61
1, 640695, Note_off_c, 0, 67, 59
1, 640698, Note_off_c, 0, 60, 51
1, 640716, Note_on_c, 0, 56, 56
1, 640762, Note_off_c, 0, 56, 58
1, 640768, Control_c, 0, 64, 118
1, 640774, Note_on_c, 0, 70, 94
1, 640780, Note_on_c, 0, 51, 63
1, 640783, Control_c, 0, 64, 101
1, 640795, Note_off_c, 0, 70, 65
1, 640798, Control_c, 0, 64, 87
1, 640813, Control_c, 0, 64, 73
1, 640821, Note_off_c, 0, 51, 64
1, 640828, Control_c, 0, 64, 54
1, 640837, Note_on_c, 0, 55, 56
1, 640842, Control_c, 0, 64, 0
1, 640881, Note_on_c, 0, 61, 67
1, 640882, Note_off_c, 0, 55, 66
1, 640921, Note_off_c, 0, 61, 60
1, 640956, Note_on_c, 0, 55, 54
1, 640995, Note_off_c, 0, 55, 65
1, 641022, Note_on_c, 0, 63, 56
1, 641034, Note_on_c, 0, 39, 82
1, 641045, Note_off_c, 0, 63, 64
1, 641064, Control_c, 0, 64, 50
1, 641067, Note_off_c, 0, 39, 71
1, 641076, Note_on_c, 0, 55, 67
1, 641079, Control_c, 0, 64, 71
1, 641101, Control_c, 0, 64, 81
1, 641116, Control_c, 0, 64, 93
1, 641117, Note_off_c, 0, 55, 66
1, 641131, Note_on_c, 0, 61, 74
1, 641131, Control_c, 0, 64, 99
1, 641146, Control_c, 0, 64, 103
1, 641161, Control_c, 0, 64, 105
1, 641175, Control_c, 0, 64, 106
1, 641190, Control_c, 0, 64, 107
1, 641198, Note_off_c, 0, 61, 61
1, 641202, Note_on_c, 0, 55, 60
1, 641205, Control_c, 0, 64, 107
1, 641219, Control_c, 0, 64, 108
1, 641234, Control_c, 0, 64, 109
1, 641238, Note_off_c, 0, 55, 62
1, 641249, Control_c, 0, 64, 110
1, 641254, Note_on_c, 0, 51, 66
1, 641263, Control_c, 0, 64, 110
1, 641278, Control_c, 0, 64, 111
1, 641292, Note_off_c, 0, 51, 61
1, 641307, Control_c, 0, 64, 112
1, 641326, Note_on_c, 0, 55, 45
1, 641337, Control_c, 0, 64, 112
1, 641346, Note_on_c, 0, 70, 76
1, 641357, Note_on_c, 0, 61, 61
1, 641360, Note_off_c, 0, 55, 61
1, 641368, Note_off_c, 0, 70, 70
1, 641390, Note_off_c, 0, 61, 60
1, 641429, Note_on_c, 0, 55, 42
1, 641452, Note_off_c, 0, 55, 62
1, 641463, Note_on_c, 0, 68, 78
1, 641469, Note_on_c, 0, 63, 62
1, 641490, Note_off_c, 0, 68, 65
1, 641506, Note_off_c, 0, 63, 62
1, 641528, Note_on_c, 0, 55, 67
1, 641561, Note_on_c, 0, 70, 82
1, 641577, Note_off_c, 0, 55, 63
1, 641589, Control_c, 0, 64, 111
1, 641596, Note_on_c, 0, 61, 54
1, 641597, Note_off_c, 0, 70, 60
1, 641604, Control_c, 0, 64, 109
1, 641619, Control_c, 0, 64, 103
1, 641634, Control_c, 0, 64, 97
1, 641649, Control_c, 0, 64, 90
1, 641650, Note_off_c, 0, 61, 51
1, 641657, Note_on_c, 0, 55, 41
1, 641663, Control_c, 0, 64, 84
1, 641678, Note_off_c, 0, 55, 62
1, 641678, Control_c, 0, 64, 78
1, 641684, Note_on_c, 0, 72, 88
1, 641693, Control_c, 0, 64, 71
1, 641708, Control_c, 0, 64, 60
1, 641710, Note_off_c, 0, 72, 65
1, 641710, Note_on_c, 0, 51, 65
1, 641722, Control_c, 0, 64, 0
1, 641747, Note_off_c, 0, 51, 63
1, 641785, Note_on_c, 0, 56, 54
1, 641812, Note_off_c, 0, 56, 62
1, 641824, Note_on_c, 0, 60, 64
1, 641883, Note_off_c, 0, 60, 55
1, 641904, Note_on_c, 0, 56, 50
1, 641929, Note_off_c, 0, 56, 58
1, 641943, Note_on_c, 0, 44, 81
1, 641943, Note_on_c, 0, 63, 60
1, 641967, Control_c, 0, 64, 50
1, 641982, Control_c, 0, 64, 71
1, 641984, Note_off_c, 0, 63, 62
1, 641988, Note_off_c, 0, 44, 63
1, 641997, Control_c, 0, 64, 85
1, 642006, Note_on_c, 0, 56, 68
1, 642012, Control_c, 0, 64, 99
1, 642026, Control_c, 0, 64, 106
1, 642041, Note_off_c, 0, 56, 59
1, 642041, Control_c, 0, 64, 110
1, 642055, Note_on_c, 0, 60, 61
1, 642056, Control_c, 0, 64, 113
1, 642071, Control_c, 0, 64, 115
1, 642086, Control_c, 0, 64, 117
1, 642101, Control_c, 0, 64, 118
1, 642115, Control_c, 0, 64, 119
1, 642118, Note_off_c, 0, 60, 61
1, 642119, Note_on_c, 0, 56, 60
1, 642130, Control_c, 0, 64, 121
1, 642145, Control_c, 0, 64, 122
1, 642157, Note_off_c, 0, 56, 63
1, 642160, Control_c, 0, 64, 124
1, 642170, Note_on_c, 0, 51, 58
1, 642175, Control_c, 0, 64, 127
1, 642189, Control_c, 0, 64, 127
1, 642199, Note_off_c, 0, 51, 64
1, 642235, Note_on_c, 0, 56, 58
1, 642265, Note_off_c, 0, 56, 64
1, 642277, Note_on_c, 0, 60, 60
1, 642289, Note_on_c, 0, 72, 66
1, 642306, Note_off_c, 0, 72, 67
1, 642336, Note_off_c, 0, 60, 61
1, 642375, Note_on_c, 0, 56, 24
1, 642381, Note_on_c, 0, 63, 57
1, 642400, Note_on_c, 0, 70, 69
1, 642432, Note_off_c, 0, 70, 63
1, 642436, Note_off_c, 0, 63, 57
1, 642443, Note_off_c, 0, 56, 0
1, 642460, Note_on_c, 0, 56, 22
1, 642485, Note_on_c, 0, 60, 62
1, 642488, Note_on_c, 0, 72, 85
1, 642525, Note_off_c, 0, 72, 61
1, 642536, Note_off_c, 0, 56, 0
1, 642549, Note_on_c, 0, 56, 41
1, 642549, Note_off_c, 0, 60, 57
1, 642606, Note_off_c, 0, 56, 61
1, 642617, Note_on_c, 0, 73, 89
1, 642627, Control_c, 0, 64, 116
1, 642628, Note_on_c, 0, 53, 57
1, 642632, Note_off_c, 0, 73, 73
1, 642642, Control_c, 0, 64, 104
1, 642652, Note_off_c, 0, 53, 61
1, 642657, Control_c, 0, 64, 92
1, 642671, Control_c, 0, 64, 77
1, 642686, Control_c, 0, 64, 65
1, 642691, Note_on_c, 0, 56, 43
1, 642701, Control_c, 0, 64, 0
1, 642716, Note_off_c, 0, 56, 55
1, 642723, Note_on_c, 0, 58, 62
1, 642769, Note_off_c, 0, 58, 58
1, 642790, Note_on_c, 0, 56, 63
1, 642825, Note_off_c, 0, 56, 63
1, 642852, Note_on_c, 0, 65, 62
1, 642886, Note_off_c, 0, 65, 63
1, 642894, Note_on_c, 0, 47, 41
1, 642914, Note_on_c, 0, 56, 55
1, 642928, Note_off_c, 0, 47, 53
1, 642944, Note_off_c, 0, 56, 65
1, 642959, Note_on_c, 0, 58, 63
1, 642998, Note_off_c, 0, 58, 64
1, 643022, Note_on_c, 0, 56, 60
1, 643052, Note_off_c, 0, 56, 65
1, 643076, Note_on_c, 0, 55, 54
1, 643085, Note_on_c, 0, 51, 78
1, 643099, Note_off_c, 0, 55, 61
1, 643120, Note_off_c, 0, 51, 59
1, 643136, Note_on_c, 0, 58, 56
1, 643178, Note_off_c, 0, 58, 64
1, 643189, Note_on_c, 0, 61, 65
1, 643231, Note_off_c, 0, 61, 59
1, 643256, Note_on_c, 0, 58, 52
1, 643293, Note_off_c, 0, 58, 64
1, 643302, Note_on_c, 0, 63, 67
1, 643319, Note_on_c, 0, 39, 67
1, 643350, Note_off_c, 0, 63, 59
1, 643369, Note_off_c, 0, 39, 65
1, 643386, Note_on_c, 0, 58, 58
1, 643417, Note_off_c, 0, 58, 65
1, 643422, Note_on_c, 0, 61, 64
1, 643459, Note_off_c, 0, 61, 59
1, 643486, Note_on_c, 0, 58, 53
1, 643507, Note_off_c, 0, 58, 60
1, 643560, Note_on_c, 0, 44, 75
1, 643563, Note_on_c, 0, 68, 67
1, 643596, Note_off_c, 0, 44, 68
1, 643599, Control_c, 0, 64, 56
1, 643613, Control_c, 0, 64, 72
1, 643626, Note_on_c, 0, 63, 70
1, 643628, Control_c, 0, 64, 86
1, 643643, Control_c, 0, 64, 100
1, 643644, Note_off_c, 0, 68, 63
1, 643658, Control_c, 0, 64, 107
1, 643673, Control_c, 0, 64, 113
1, 643682, Note_on_c, 0, 60, 65
1, 643684, Note_off_c, 0, 63, 65
1, 643687, Control_c, 0, 64, 117
1, 643702, Control_c, 0, 64, 122
1, 643710, Note_off_c, 0, 60, 66
1, 643717, Control_c, 0, 64, 127
1, 643750, Note_on_c, 0, 59, 74
1, 643788, Note_off_c, 0, 59, 57
1, 643805, Note_on_c, 0, 60, 79
1, 643841, Note_off_c, 0, 60, 59
1, 643856, Note_on_c, 0, 63, 66
1, 643902, Note_off_c, 0, 63, 61
1, 643914, Note_on_c, 0, 68, 68
1, 643963, Note_on_c, 0, 72, 69
1, 643973, Note_off_c, 0, 68, 62
1, 643985, Control_c, 0, 64, 119
1, 644000, Control_c, 0, 64, 96
1, 644012, Note_off_c, 0, 72, 60
1, 644015, Control_c, 0, 64, 78
1, 644017, Note_on_c, 0, 77, 80
1, 644022, Note_on_c, 0, 39, 72
1, 644022, Note_on_c, 0, 51, 85
1, 644030, Control_c, 0, 64, 56
1, 644044, Control_c, 0, 64, 0
1, 644045, Note_off_c, 0, 51, 68
1, 644051, Note_off_c, 0, 39, 65
1, 644071, Note_off_c, 0, 77, 58
1, 644101, Note_on_c, 0, 67, 65
1, 644134, Note_off_c, 0, 67, 61
1, 644155, Note_on_c, 0, 75, 67
1, 644161, Note_on_c, 0, 51, 62
1, 644165, Note_on_c, 0, 61, 73
1, 644187, Note_on_c, 0, 55, 42
1, 644187, Note_off_c, 0, 75, 61
1, 644190, Note_off_c, 0, 61, 66
1, 644198, Note_off_c, 0, 51, 61
1, 644217, Note_on_c, 0, 67, 62
1, 644217, Note_off_c, 0, 55, 52
1, 644250, Note_off_c, 0, 67, 62
1, 644272, Note_on_c, 0, 61, 65
1, 644276, Note_on_c, 0, 73, 67
1, 644283, Note_on_c, 0, 51, 59
1, 644297, Note_on_c, 0, 55, 56
1, 644307, Note_off_c, 0, 61, 61
1, 644310, Note_off_c, 0, 73, 59
1, 644321, Note_off_c, 0, 55, 65
1, 644328, Note_off_c, 0, 51, 57
1, 644340, Note_on_c, 0, 67, 60
1, 644377, Note_on_c, 0, 61, 74
1, 644379, Note_off_c, 0, 67, 60
1, 644381, Note_on_c, 0, 51, 50
1, 644390, Note_on_c, 0, 70, 72
1, 644399, Note_on_c, 0, 55, 61
1, 644403, Note_off_c, 0, 61, 65
1, 644418, Note_off_c, 0, 51, 63
1, 644421, Note_off_c, 0, 55, 64
1, 644421, Note_off_c, 0, 70, 62
1, 644436, Note_on_c, 0, 67, 62
1, 644465, Note_off_c, 0, 67, 65
1, 644507, Note_on_c, 0, 56, 72
1, 644513, Note_on_c, 0, 60, 66
1, 644520, Note_on_c, 0, 68, 71
1, 644541, Note_off_c, 0, 60, 66
1, 644541, Control_c, 0, 64, 33
1, 644544, Note_off_c, 0, 56, 61
1, 644556, Control_c, 0, 64, 69
1, 644571, Control_c, 0, 64, 81
1, 644582, Note_on_c, 0, 63, 75
1, 644585, Control_c, 0, 64, 100
1, 644600, Control_c, 0, 64, 110
1, 644605, Note_off_c, 0, 68, 64
1, 644616, Control_c, 0, 64, 114
1, 644630, Note_on_c, 0, 60, 74
1, 644631, Control_c, 0, 64, 116
1, 644646, Control_c, 0, 64, 119
1, 644647, Note_off_c, 0, 63, 63
1, 644660, Control_c, 0, 64, 123
1, 644673, Note_off_c, 0, 60, 61
1, 644675, Control_c, 0, 64, 127
1, 644705, Note_on_c, 0, 59, 78
1, 644746, Note_off_c, 0, 59, 61
1, 644772, Note_on_c, 0, 60, 81
1, 644800, Note_off_c, 0, 60, 66
1, 644806, Note_on_c, 0, 63, 70
1, 644870, Note_off_c, 0, 63, 64
1, 644879, Note_on_c, 0, 68, 73
1, 644927, Note_on_c, 0, 72, 67
1, 644936, Note_off_c, 0, 68, 63
1, 644949, Control_c, 0, 64, 109
1, 644964, Control_c, 0, 64, 86
1, 644972, Note_off_c, 0, 72, 66
1, 644975, Note_on_c, 0, 51, 85
1, 644977, Note_on_c, 0, 77, 82
1, 644978, Note_on_c, 0, 39, 72
1, 644979, Control_c, 0, 64, 67
1, 644994, Control_c, 0, 64, 0
1, 644997, Note_off_c, 0, 51, 68
1, 644999, Note_off_c, 0, 39, 57
1, 645010, Note_off_c, 0, 77, 52
1, 645055, Note_on_c, 0, 67, 71
1, 645088, Note_off_c, 0, 67, 63
1, 645118, Note_on_c, 0, 61, 75
1, 645127, Note_on_c, 0, 51, 48
1, 645141, Note_off_c, 0, 61, 66
1, 645156, Note_off_c, 0, 51, 54
1, 645158, Note_on_c, 0, 55, 9
1, 645165, Note_on_c, 0, 67, 64
1, 645201, Note_off_c, 0, 67, 62
1, 645218, Note_off_c, 0, 55, 0
1, 645223, Note_on_c, 0, 73, 68
1, 645228, Note_on_c, 0, 61, 57
1, 645229, Note_on_c, 0, 51, 65
1, 645240, Note_on_c, 0, 55, 32
1, 645261, Note_off_c, 0, 73, 55
1, 645267, Note_off_c, 0, 61, 61
1, 645279, Note_off_c, 0, 51, 57
1, 645280, Note_off_c, 0, 55, 63
1, 645282, Note_on_c, 0, 67, 68
1, 645326, Note_off_c, 0, 67, 63
1, 645334, Note_on_c, 0, 70, 72
1, 645344, Note_on_c, 0, 61, 71
1, 645350, Note_on_c, 0, 51, 45
1, 645362, Note_on_c, 0, 55, 52
1, 645371, Note_off_c, 0, 61, 65
1, 645375, Note_off_c, 0, 70, 57
1, 645379, Note_on_c, 0, 67, 57
1, 645384, Note_off_c, 0, 51, 63
1, 645389, Note_off_c, 0, 55, 65
1, 645412, Note_off_c, 0, 67, 65
1, 645468, Note_on_c, 0, 56, 69
1, 645469, Note_on_c, 0, 68, 74
1, 645475, Note_on_c, 0, 60, 64
1, 645502, Note_off_c, 0, 56, 63
1, 645505, Note_off_c, 0, 60, 64
1, 645527, Control_c, 0, 64, 67
1, 645531, Note_on_c, 0, 63, 70
1, 645542, Control_c, 0, 64, 81
1, 645550, Note_off_c, 0, 68, 63
1, 645556, Control_c, 0, 64, 94
1, 645571, Control_c, 0, 64, 105
1, 645574, Note_on_c, 0, 60, 76
1, 645594, Control_c, 0, 64, 111
1, 645605, Note_off_c, 0, 63, 64
1, 645609, Control_c, 0, 64, 114
1, 645621, Note_off_c, 0, 60, 59
1, 645624, Control_c, 0, 64, 117
1, 645638, Control_c, 0, 64, 122
1, 645651, Note_on_c, 0, 59, 77
1, 645653, Control_c, 0, 64, 127
1, 645690, Note_off_c, 0, 59, 61
1, 645717, Note_on_c, 0, 60, 85
1, 645749, Note_off_c, 0, 60, 62
1, 645750, Note_on_c, 0, 63, 55
1, 645806, Note_off_c, 0, 63, 35
1, 645824, Note_on_c, 0, 68, 74
1, 645884, Note_on_c, 0, 72, 61
1, 645885, Note_off_c, 0, 68, 63
1, 645905, Control_c, 0, 64, 126
1, 645913, Note_on_c, 0, 41, 77
1, 645913, Note_off_c, 0, 72, 67
1, 645915, Note_on_c, 0, 53, 91
1, 645919, Note_on_c, 0, 78, 84
1, 645920, Control_c, 0, 64, 101
1, 645935, Control_c, 0, 64, 83
1, 645941, Note_off_c, 0, 41, 67
1, 645943, Note_off_c, 0, 53, 68
1, 645950, Control_c, 0, 64, 67
1, 645964, Control_c, 0, 64, 0
1, 645970, Note_off_c, 0, 78, 63
1, 645997, Note_on_c, 0, 69, 73
1, 646038, Note_off_c, 0, 69, 66
1, 646054, Note_on_c, 0, 53, 66
1, 646054, Note_on_c, 0, 77, 70
1, 646061, Note_on_c, 0, 60, 58
1, 646061, Note_on_c, 0, 63, 65
1, 646063, Note_on_c, 0, 57, 53
1, 646092, Note_off_c, 0, 53, 63
1, 646092, Note_off_c, 0, 63, 66
1, 646094, Note_off_c, 0, 60, 64
1, 646099, Note_off_c, 0, 57, 62
1, 646114, Note_off_c, 0, 77, 57
1, 646119, Note_on_c, 0, 69, 68
1, 646146, Note_off_c, 0, 69, 67
1, 646182, Note_on_c, 0, 75, 75
1, 646187, Note_on_c, 0, 63, 64
1, 646189, Note_on_c, 0, 53, 55
1, 646191, Note_on_c, 0, 57, 48
1, 646212, Note_on_c, 0, 60, 34
1, 646212, Note_off_c, 0, 63, 62
1, 646227, Note_off_c, 0, 53, 52
1, 646228, Note_off_c, 0, 57, 62
1, 646237, Note_off_c, 0, 75, 61
1, 646238, Note_off_c, 0, 60, 48
1, 646249, Note_on_c, 0, 69, 52
1, 646283, Note_on_c, 0, 63, 77
1, 646300, Note_on_c, 0, 53, 42
1, 646302, Note_on_c, 0, 72, 60
1, 646306, Note_off_c, 0, 63, 68
1, 646313, Note_on_c, 0, 60, 52
1, 646320, Note_on_c, 0, 57, 39
1, 646328, Note_off_c, 0, 53, 52
1, 646340, Note_off_c, 0, 72, 68
1, 646343, Note_off_c, 0, 60, 58
1, 646359, Note_off_c, 0, 57, 45
1, 646365, Note_off_c, 0, 69, 67
1, 646411, Note_on_c, 0, 61, 85
1, 646413, Note_on_c, 0, 73, 61
1, 646438, Note_off_c, 0, 61, 59
1, 646447, Control_c, 0, 64, 67
1, 646462, Control_c, 0, 64, 79
1, 646468, Note_on_c, 0, 70, 72
1, 646477, Control_c, 0, 64, 94
1, 646483, Note_off_c, 0, 73, 59
1, 646492, Control_c, 0, 64, 108
1, 646507, Control_c, 0, 64, 117
1, 646509, Poly_aftertouch_c, 0, 56, 0
1, 646513, Note_on_c, 0, 65, 79
1, 646516, Note_off_c, 0, 70, 63
1, 646521, Control_c, 0, 64, 119
1, 646536, Control_c, 0, 64, 123
1, 646549, Note_off_c, 0, 65, 63
1, 646551, Control_c, 0, 64, 127
1, 646596, Note_on_c, 0, 64, 85
1, 646641, Note_off_c, 0, 64, 64
1, 646660, Note_on_c, 0, 65, 78
1, 646683, Note_off_c, 0, 65, 71
1, 646697, Note_on_c, 0, 70, 66
1, 646767, Note_on_c, 0, 73, 74
1, 646796, Note_off_c, 0, 70, 58
1, 646825, Note_off_c, 0, 73, 64
1, 646836, Note_on_c, 0, 77, 69
1, 646847, Control_c, 0, 64, 116
1, 646861, Control_c, 0, 64, 95
1, 646864, Note_on_c, 0, 43, 69
1, 646864, Note_on_c, 0, 55, 81
1, 646869, Note_on_c, 0, 80, 84
1, 646876, Control_c, 0, 64, 74
1, 646891, Note_off_c, 0, 43, 63
1, 646891, Control_c, 0, 64, 38
1, 646893, Note_off_c, 0, 77, 61
1, 646894, Note_off_c, 0, 55, 66
1, 646906, Control_c, 0, 64, 0
1, 646924, Note_off_c, 0, 80, 65
1, 646942, Note_on_c, 0, 71, 68
1, 646992, Note_off_c, 0, 71, 58
1, 647004, Note_on_c, 0, 79, 72
1, 647008, Note_on_c, 0, 62, 69
1, 647008, Note_on_c, 0, 65, 67
1, 647013, Note_on_c, 0, 55, 54
1, 647021, Note_on_c, 0, 59, 46
1, 647028, Note_off_c, 0, 65, 68
1, 647037, Note_off_c, 0, 62, 65
1, 647046, Note_off_c, 0, 59, 60
1, 647050, Note_off_c, 0, 55, 63
1, 647053, Note_on_c, 0, 71, 61
1, 647053, Note_off_c, 0, 79, 58
1, 647105, Note_off_c, 0, 71, 59
1, 647125, Note_on_c, 0, 77, 62
1, 647144, Note_on_c, 0, 65, 64
1, 647148, Note_on_c, 0, 59, 49
1, 647148, Note_on_c, 0, 62, 55
1, 647163, Note_on_c, 0, 55, 43
1, 647176, Note_off_c, 0, 59, 57
1, 647179, Note_off_c, 0, 65, 64
1, 647183, Note_on_c, 0, 71, 62
1, 647183, Note_off_c, 0, 62, 63
1, 647186, Note_off_c, 0, 77, 59
1, 647228, Note_off_c, 0, 71, 62
1, 647244, Note_on_c, 0, 74, 67
1, 647284, Note_off_c, 0, 55, 24
1, 647291, Note_off_c, 0, 74, 66
1, 647294, Note_on_c, 0, 71, 61
1, 647362, Note_off_c, 0, 71, 54
1, 647389, Note_on_c, 0, 75, 72
1, 647393, Note_on_c, 0, 51, 62
1, 647394, Note_on_c, 0, 48, 63
1, 647425, Note_off_c, 0, 75, 62
1, 647433, Note_on_c, 0, 79, 63
1, 647470, Note_off_c, 0, 79, 57
1, 647493, Note_on_c, 0, 77, 68
1, 647553, Note_on_c, 0, 75, 66
1, 647565, Note_off_c, 0, 77, 57
1, 647581, Note_off_c, 0, 51, 52
1, 647599, Note_off_c, 0, 75, 61
1, 647606, Note_off_c, 0, 48, 59
1, 647613, Note_on_c, 0, 74, 64
1, 647619, Note_on_c, 0, 53, 66
1, 647628, Note_on_c, 0, 50, 57
1, 647648, Note_off_c, 0, 74, 60
1, 647678, Note_on_c, 0, 77, 63
1, 647734, Note_on_c, 0, 75, 63
1, 647749, Note_off_c, 0, 77, 52
1, 647794, Note_off_c, 0, 75, 64
1, 647795, Note_on_c, 0, 74, 57
1, 647822, Note_off_c, 0, 53, 59
1, 647842, Note_off_c, 0, 74, 63
1, 647859, Note_on_c, 0, 72, 51
1, 647863, Note_on_c, 0, 55, 65
1, 647865, Note_on_c, 0, 51, 60
1, 647885, Note_off_c, 0, 72, 59
1, 647955, Note_off_c, 0, 55, 59
1, 647973, Note_on_c, 0, 74, 61
1, 648013, Note_off_c, 0, 74, 64
1, 648021, Note_on_c, 0, 72, 64
1, 648066, Note_off_c, 0, 72, 65
1, 648077, Note_off_c, 0, 50, 13
1, 648102, Note_on_c, 0, 52, 60
1, 648112, Note_on_c, 0, 70, 65
1, 648113, Note_on_c, 0, 55, 60
1, 648132, Note_off_c, 0, 51, 59
1, 648149, Note_off_c, 0, 70, 60
1, 648154, Note_off_c, 0, 52, 64
1, 648160, Note_on_c, 0, 73, 59
1, 648194, Note_off_c, 0, 73, 66
1, 648218, Note_on_c, 0, 72, 65
1, 648221, Note_off_c, 0, 55, 59
1, 648281, Note_on_c, 0, 70, 60
1, 648291, Note_off_c, 0, 72, 61
1, 648334, Note_off_c, 0, 70, 62
1, 648343, Note_on_c, 0, 53, 58
1, 648343, Note_on_c, 0, 56, 61
1, 648346, Note_on_c, 0, 68, 58
1, 648385, Note_off_c, 0, 68, 64
1, 648400, Note_on_c, 0, 72, 58
1, 648453, Note_on_c, 0, 70, 65
1, 648460, Note_off_c, 0, 72, 56
1, 648510, Note_on_c, 0, 68, 63
1, 648516, Note_off_c, 0, 70, 62
1, 648554, Note_off_c, 0, 56, 50
1, 648557, Note_off_c, 0, 68, 64
1, 648558, Note_off_c, 0, 53, 59
1, 648567, Note_on_c, 0, 58, 66
1, 648579, Note_on_c, 0, 67, 50
1, 648584, Note_on_c, 0, 55, 57
1, 648605, Note_off_c, 0, 67, 57
1, 648635, Note_on_c, 0, 70, 64
1, 648692, Note_on_c, 0, 68, 62
1, 648698, Note_off_c, 0, 70, 62
1, 648733, Note_off_c, 0, 68, 66
1, 648741, Note_on_c, 0, 67, 56
1, 648803, Note_off_c, 0, 67, 43
1, 648814, Note_off_c, 0, 58, 56
1, 648820, Note_on_c, 0, 60, 61
1, 648826, Note_on_c, 0, 56, 62
1, 648830, Note_on_c, 0, 65, 54
1, 648862, Note_on_c, 0, 68, 62
1, 648864, Note_off_c, 0, 65, 64
1, 648890, Note_off_c, 0, 55, 33
1, 648895, Note_off_c, 0, 60, 60
1, 648927, Note_on_c, 0, 67, 66
1, 648943, Note_off_c, 0, 56, 61
1, 648959, Note_off_c, 0, 68, 48
1, 648989, Note_off_c, 0, 67, 60
1, 648991, Note_on_c, 0, 65, 54
1, 649032, Note_off_c, 0, 65, 67
1, 649044, Note_on_c, 0, 64, 62
1, 649055, Note_on_c, 0, 61, 61
1, 649057, Note_on_c, 0, 58, 58
1, 649096, Note_off_c, 0, 64, 62
1, 649108, Note_on_c, 0, 67, 68
1, 649168, Note_on_c, 0, 65, 64
1, 649169, Note_off_c, 0, 61, 53
1, 649169, Note_off_c, 0, 67, 61
1, 649192, Note_off_c, 0, 58, 62
1, 649207, Note_off_c, 0, 65, 66
1, 649220, Note_on_c, 0, 64, 59
1, 649263, Note_off_c, 0, 64, 61
1, 649281, Note_on_c, 0, 60, 68
1, 649292, Note_on_c, 0, 65, 39
1, 649294, Note_on_c, 0, 56, 56
1, 649321, Note_off_c, 0, 65, 59
1, 649324, Note_on_c, 0, 68, 64
1, 649396, Note_on_c, 0, 67, 62
1, 649407, Note_off_c, 0, 60, 60
1, 649420, Note_off_c, 0, 68, 53
1, 649441, Note_off_c, 0, 56, 61
1, 649456, Note_off_c, 0, 67, 61
1, 649459, Note_on_c, 0, 65, 52
1, 649504, Note_off_c, 0, 65, 66
1, 649520, Note_on_c, 0, 58, 64
1, 649523, Note_on_c, 0, 64, 50
1, 649524, Note_on_c, 0, 61, 57
1, 649545, Note_off_c, 0, 61, 60
1, 649549, Note_off_c, 0, 58, 66
1, 649554, Note_off_c, 0, 64, 57
1, 649577, Note_on_c, 0, 67, 67
1, 649617, Note_on_c, 0, 58, 64
1, 649633, Note_off_c, 0, 67, 60
1, 649637, Note_on_c, 0, 61, 29
1, 649639, Note_on_c, 0, 65, 61
1, 649646, Note_off_c, 0, 58, 66
1, 649672, Note_off_c, 0, 61, 32
1, 649673, Note_off_c, 0, 65, 67
1, 649682, Note_on_c, 0, 64, 56
1, 649726, Note_off_c, 0, 64, 59
1, 649749, Note_on_c, 0, 60, 71
1, 649752, Note_on_c, 0, 56, 60
1, 649777, Note_on_c, 0, 65, 23
1, 649797, Note_on_c, 0, 68, 63
1, 649813, Note_off_c, 0, 65, 41
1, 649850, Note_on_c, 0, 67, 64
1, 649850, Note_off_c, 0, 68, 50
1, 649863, Note_off_c, 0, 60, 60
1, 649899, Note_off_c, 0, 56, 62
1, 649912, Note_on_c, 0, 65, 61
1, 649917, Note_off_c, 0, 67, 61
1, 649955, Note_off_c, 0, 65, 66
1, 649971, Note_on_c, 0, 64, 54
1, 649988, Note_on_c, 0, 58, 62
1, 649997, Note_on_c, 0, 61, 52
1, 649999, Note_off_c, 0, 64, 57
1, 650018, Note_off_c, 0, 58, 66
1, 650018, Note_off_c, 0, 61, 58
1, 650032, Note_on_c, 0, 67, 67
1, 650091, Note_off_c, 0, 67, 61
1, 650093, Note_on_c, 0, 58, 64
1, 650096, Note_on_c, 0, 65, 62
1, 650108, Note_on_c, 0, 61, 46
1, 650123, Note_off_c, 0, 58, 66
1, 650131, Note_off_c, 0, 65, 66
1, 650132, Note_off_c, 0, 61, 53
1, 650139, Note_on_c, 0, 64, 51
1, 650170, Note_off_c, 0, 64, 61
1, 650212, Note_on_c, 0, 60, 81
1, 650212, Note_on_c, 0, 65, 57
1, 650218, Note_on_c, 0, 56, 61
1, 650236, Note_off_c, 0, 65, 66
1, 650255, Note_on_c, 0, 64, 61
1, 650290, Note_off_c, 0, 64, 64
1, 650304, Note_on_c, 0, 67, 67
1, 650325, Control_c, 0, 64, 55
1, 650333, Note_off_c, 0, 67, 64
1, 650340, Control_c, 0, 64, 67
1, 650354, Control_c, 0, 64, 71
1, 650369, Control_c, 0, 64, 75
1, 650380, Note_on_c, 0, 65, 55
1, 650384, Control_c, 0, 64, 79
1, 650399, Control_c, 0, 64, 82
1, 650401, Note_off_c, 0, 65, 61
1, 650414, Control_c, 0, 64, 83
1, 650428, Control_c, 0, 64, 83
1, 650430, Note_on_c, 0, 68, 57
1, 650450, Note_off_c, 0, 68, 61
1, 650480, Note_on_c, 0, 67, 68
1, 650503, Note_off_c, 0, 67, 64
1, 650539, Note_on_c, 0, 70, 58
1, 650564, Note_off_c, 0, 70, 60
1, 650570, Note_on_c, 0, 68, 56
1, 650610, Note_on_c, 0, 72, 72
1, 650611, Note_off_c, 0, 68, 66
1, 650638, Note_off_c, 0, 72, 65
1, 650688, Note_on_c, 0, 71, 66
1, 650710, Control_c, 0, 64, 83
1, 650718, Note_off_c, 0, 71, 64
1, 650728, Note_on_c, 0, 74, 73
1, 650740, Control_c, 0, 64, 82
1, 650752, Note_off_c, 0, 74, 65
1, 650754, Control_c, 0, 64, 82
1, 650769, Control_c, 0, 64, 81
1, 650784, Control_c, 0, 64, 79
1, 650798, Control_c, 0, 64, 76
1, 650801, Note_on_c, 0, 72, 69
1, 650813, Control_c, 0, 64, 75
1, 650818, Note_off_c, 0, 72, 67
1, 650835, Control_c, 0, 64, 74
1, 650850, Control_c, 0, 64, 72
1, 650862, Note_on_c, 0, 77, 64
1, 650865, Control_c, 0, 64, 69
1, 650880, Control_c, 0, 64, 65
1, 650895, Control_c, 0, 64, 59
1, 650896, Note_off_c, 0, 77, 57
1, 650910, Control_c, 0, 64, 53
1, 650924, Control_c, 0, 64, 53
1, 650929, Note_on_c, 0, 76, 61
1, 650939, Control_c, 0, 64, 52
1, 650947, Note_off_c, 0, 76, 67
1, 650954, Control_c, 0, 64, 48
1, 650969, Control_c, 0, 64, 44
1, 650984, Control_c, 0, 64, 43
1, 650993, Note_on_c, 0, 79, 42
1, 650999, Control_c, 0, 64, 43
1, 651020, Note_off_c, 0, 79, 50
1, 651029, Note_on_c, 0, 77, 64
1, 651029, Control_c, 0, 64, 42
1, 651044, Control_c, 0, 64, 41
1, 651059, Control_c, 0, 64, 40
1, 651062, Note_off_c, 0, 77, 63
1, 651073, Control_c, 0, 64, 39
1, 651088, Control_c, 0, 64, 36
1, 651102, Note_on_c, 0, 80, 64
1, 651128, Note_off_c, 0, 80, 65
1, 651155, Note_on_c, 0, 79, 64
1, 651192, Control_c, 0, 64, 37
1, 651207, Control_c, 0, 64, 38
1, 651220, Note_off_c, 0, 79, 59
1, 651232, Note_on_c, 0, 80, 55
1, 651266, Control_c, 0, 64, 38
1, 651276, Note_off_c, 0, 80, 52
1, 651281, Control_c, 0, 64, 39
1, 651296, Control_c, 0, 64, 40
1, 651302, Note_on_c, 0, 84, 64
1, 651325, Control_c, 0, 64, 35
1, 651340, Control_c, 0, 64, 0
1, 651365, Note_on_c, 0, 82, 76
1, 651367, Note_off_c, 0, 84, 61
1, 651414, Control_c, 0, 64, 32
1, 651416, Note_on_c, 0, 80, 69
1, 651428, Control_c, 0, 64, 62
1, 651437, Note_off_c, 0, 82, 60
1, 651443, Control_c, 0, 64, 68
1, 651458, Control_c, 0, 64, 71
1, 651470, Note_off_c, 0, 60, 46
1, 651473, Note_on_c, 0, 79, 57
1, 651473, Control_c, 0, 64, 73
1, 651474, Note_off_c, 0, 80, 63
1, 651488, Control_c, 0, 64, 73
1, 651503, Note_off_c, 0, 79, 63
1, 651513, Note_on_c, 0, 77, 61
1, 651514, Note_off_c, 0, 56, 40
1, 651544, Note_off_c, 0, 77, 64
1, 651599, Note_on_c, 0, 75, 66
1, 651653, Note_on_c, 0, 73, 65
1, 651653, Note_off_c, 0, 75, 64
1, 651658, Control_c, 0, 64, 73
1, 651673, Control_c, 0, 64, 72
1, 651681, Note_off_c, 0, 73, 67
1, 651699, Note_on_c, 0, 72, 57
1, 651717, Note_off_c, 0, 72, 61
1, 651717, Control_c, 0, 64, 72
1, 651765, Note_on_c, 0, 70, 68
1, 651777, Control_c, 0, 64, 71
1, 651792, Control_c, 0, 64, 70
1, 651798, Note_on_c, 0, 68, 71
1, 651807, Control_c, 0, 64, 69
1, 651822, Control_c, 0, 64, 68
1, 651834, Note_off_c, 0, 70, 55
1, 651837, Control_c, 0, 64, 66
1, 651852, Control_c, 0, 64, 63
1, 651854, Note_on_c, 0, 67, 70
1, 651860, Note_off_c, 0, 68, 64
1, 651866, Control_c, 0, 64, 47
1, 651881, Control_c, 0, 64, 0
1, 651883, Note_off_c, 0, 67, 65
1, 651885, Note_on_c, 0, 65, 67
1, 651917, Note_off_c, 0, 65, 66
1, 651982, Note_on_c, 0, 75, 65
1, 651995, Note_on_c, 0, 65, 69
1, 651996, Note_on_c, 0, 62, 56
1, 652001, Note_on_c, 0, 56, 52
1, 652009, Note_off_c, 0, 75, 69
1, 652012, Note_off_c, 0, 65, 69
1, 652018, Note_off_c, 0, 62, 60
1, 652026, Note_off_c, 0, 56, 57
1, 652045, Note_on_c, 0, 71, 62
1, 652081, Note_off_c, 0, 71, 62
1, 652091, Note_on_c, 0, 74, 68
1, 652101, Note_on_c, 0, 62, 66
1, 652102, Note_on_c, 0, 65, 64
1, 652109, Note_on_c, 0, 56, 52
1, 652130, Note_off_c, 0, 65, 68
1, 652133, Note_off_c, 0, 74, 60
1, 652134, Note_off_c, 0, 62, 62
1, 652144, Note_off_c, 0, 56, 62
1, 652164, Note_on_c, 0, 71, 48
1, 652198, Note_off_c, 0, 71, 55
1, 652221, Note_on_c, 0, 73, 67
1, 652231, Note_on_c, 0, 62, 57
1, 652232, Note_on_c, 0, 65, 61
1, 652236, Note_on_c, 0, 56, 55
1, 652257, Note_off_c, 0, 73, 61
1, 652262, Note_off_c, 0, 65, 67
1, 652266, Note_off_c, 0, 62, 62
1, 652268, Note_off_c, 0, 56, 63
1, 652284, Note_on_c, 0, 71, 60
1, 652330, Note_off_c, 0, 71, 60
1, 652349, Note_on_c, 0, 74, 62
1, 652352, Note_on_c, 0, 65, 61
1, 652356, Note_on_c, 0, 62, 61
1, 652360, Note_on_c, 0, 56, 59
1, 652382, Note_off_c, 0, 65, 67
1, 652385, Note_off_c, 0, 74, 60
1, 652389, Note_off_c, 0, 62, 62
1, 652399, Note_off_c, 0, 56, 60
1, 652405, Note_on_c, 0, 71, 60
1, 652446, Note_off_c, 0, 71, 59
1, 652467, Note_on_c, 0, 73, 68
1, 652474, Note_on_c, 0, 65, 54
1, 652475, Note_on_c, 0, 62, 56
1, 652487, Note_on_c, 0, 56, 53
1, 652499, Note_off_c, 0, 65, 64
1, 652510, Note_off_c, 0, 62, 63
1, 652516, Note_off_c, 0, 73, 64
1, 652524, Note_off_c, 0, 56, 61
1, 652540, Note_on_c, 0, 71, 53
1, 652576, Note_off_c, 0, 71, 62
1, 652577, Note_on_c, 0, 74, 61
1, 652585, Note_on_c, 0, 65, 54
1, 652598, Note_on_c, 0, 62, 54
1, 652604, Note_on_c, 0, 56, 38
1, 652606, Note_off_c, 0, 74, 69
1, 652609, Note_off_c, 0, 65, 63
1, 652630, Note_on_c, 0, 71, 66
1, 652630, Note_off_c, 0, 56, 50
1, 652634, Note_off_c, 0, 62, 63
1, 652660, Note_off_c, 0, 71, 64
1, 652699, Note_on_c, 0, 80, 82
1, 652705, Note_on_c, 0, 63, 89
1, 652709, Note_on_c, 0, 55, 74
1, 652720, Control_c, 0, 64, 68
1, 652735, Control_c, 0, 64, 81
1, 652749, Control_c, 0, 64, 94
1, 652755, Note_on_c, 0, 72, 72
1, 652762, Note_off_c, 0, 80, 62
1, 652764, Control_c, 0, 64, 101
1, 652779, Control_c, 0, 64, 103
1, 652790, Note_off_c, 0, 55, 61
1, 652806, Note_off_c, 0, 72, 65
1, 652807, Note_off_c, 0, 63, 62
1, 652823, Note_on_c, 0, 79, 71
1, 652823, Control_c, 0, 64, 103
1, 652850, Note_off_c, 0, 79, 62
1, 652886, Note_on_c, 0, 72, 58
1, 652914, Note_off_c, 0, 72, 66
1, 652928, Control_c, 0, 64, 102
1, 652943, Control_c, 0, 64, 96
1, 652957, Note_on_c, 0, 75, 63
1, 652957, Control_c, 0, 64, 85
1, 652966, Note_on_c, 0, 65, 69
1, 652970, Note_on_c, 0, 62, 61
1, 652972, Control_c, 0, 64, 73
1, 652972, Note_on_c, 0, 56, 61
1, 652987, Control_c, 0, 64, 52
1, 652987, Note_off_c, 0, 75, 55
1, 652989, Note_off_c, 0, 65, 67
1, 652991, Note_off_c, 0, 62, 63
1, 652999, Note_off_c, 0, 56, 59
1, 653001, Control_c, 0, 64, 0
1, 653019, Note_on_c, 0, 71, 60
1, 653054, Note_off_c, 0, 71, 63
1, 653082, Note_on_c, 0, 74, 63
1, 653086, Note_on_c, 0, 62, 63
1, 653086, Note_on_c, 0, 56, 66
1, 653087, Note_on_c, 0, 65, 59
1, 653115, Note_off_c, 0, 65, 67
1, 653116, Note_off_c, 0, 62, 63
1, 653124, Note_off_c, 0, 56, 61
1, 653127, Note_off_c, 0, 74, 59
1, 653148, Note_on_c, 0, 71, 64
1, 653185, Note_off_c, 0, 71, 60
1, 653208, Note_on_c, 0, 62, 53
1, 653208, Note_on_c, 0, 65, 59
1, 653210, Note_on_c, 0, 56, 57
1, 653211, Note_on_c, 0, 73, 68
1, 653238, Note_off_c, 0, 65, 67
1, 653242, Note_off_c, 0, 62, 63
1, 653247, Note_off_c, 0, 56, 60
1, 653253, Note_off_c, 0, 73, 63
1, 653270, Note_on_c, 0, 71, 56
1, 653309, Note_off_c, 0, 71, 61
1, 653328, Note_on_c, 0, 65, 56
1, 653328, Note_on_c, 0, 74, 63
1, 653330, Note_on_c, 0, 62, 57
1, 653336, Note_on_c, 0, 56, 56
1, 653352, Note_off_c, 0, 65, 65
1, 653361, Note_off_c, 0, 74, 60
1, 653364, Note_off_c, 0, 62, 63
1, 653372, Note_off_c, 0, 56, 62
1, 653385, Note_on_c, 0, 71, 59
1, 653428, Note_off_c, 0, 71, 57
1, 653451, Note_on_c, 0, 73, 68
1, 653452, Note_on_c, 0, 62, 49
1, 653452, Note_on_c, 0, 65, 42
1, 653467, Note_on_c, 0, 56, 42
1, 653478, Note_off_c, 0, 62, 57
1, 653479, Note_off_c, 0, 65, 53
1, 653495, Note_off_c, 0, 73, 63
1, 653509, Note_on_c, 0, 71, 55
1, 653536, Note_off_c, 0, 56, 0
1, 653550, Note_on_c, 0, 56, 37
1, 653550, Note_off_c, 0, 71, 59
1, 653559, Note_on_c, 0, 74, 64
1, 653571, Note_on_c, 0, 62, 49
1, 653577, Note_on_c, 0, 65, 24
1, 653586, Note_off_c, 0, 56, 61
1, 653586, Note_off_c, 0, 65, 40
1, 653592, Note_off_c, 0, 74, 64
1, 653603, Note_off_c, 0, 62, 61
1, 653610, Note_on_c, 0, 71, 59
1, 653648, Note_off_c, 0, 71, 62
1, 653683, Note_on_c, 0, 80, 74
1, 653684, Note_on_c, 0, 63, 81
1, 653689, Note_on_c, 0, 55, 67
1, 653704, Control_c, 0, 64, 50
1, 653719, Control_c, 0, 64, 69
1, 653726, Note_off_c, 0, 80, 57
1, 653733, Note_on_c, 0, 72, 67
1, 653734, Control_c, 0, 64, 77
1, 653749, Control_c, 0, 64, 83
1, 653764, Control_c, 0, 64, 84
1, 653799, Note_on_c, 0, 79, 70
1, 653799, Note_off_c, 0, 72, 50
1, 653801, Note_off_c, 0, 63, 58
1, 653839, Note_off_c, 0, 79, 60
1, 653842, Note_off_c, 0, 55, 55
1, 653843, Note_on_c, 0, 72, 41
1, 653876, Note_off_c, 0, 72, 65
1, 653919, Control_c, 0, 64, 82
1, 653934, Control_c, 0, 64, 78
1, 653937, Note_on_c, 0, 79, 69
1, 653949, Control_c, 0, 64, 71
1, 653950, Note_on_c, 0, 71, 64
1, 653953, Note_on_c, 0, 62, 72
1, 653964, Control_c, 0, 64, 63
1, 653965, Note_off_c, 0, 79, 62
1, 653978, Control_c, 0, 64, 45
1, 653980, Note_off_c, 0, 62, 65
1, 653993, Control_c, 0, 64, 0
1, 653998, Note_off_c, 0, 71, 61
1, 654013, Note_on_c, 0, 67, 54
1, 654039, Note_off_c, 0, 67, 57
1, 654052, Note_on_c, 0, 77, 67
1, 654057, Note_on_c, 0, 62, 69
1, 654057, Note_on_c, 0, 71, 56
1, 654091, Note_off_c, 0, 77, 52
1, 654096, Note_off_c, 0, 62, 61
1, 654096, Note_off_c, 0, 71, 64
1, 654111, Note_on_c, 0, 67, 59
1, 654132, Note_off_c, 0, 67, 61
1, 654167, Note_on_c, 0, 77, 62
1, 654170, Note_on_c, 0, 72, 72
1, 654177, Note_on_c, 0, 60, 74
1, 654200, Note_off_c, 0, 77, 59
1, 654213, Note_off_c, 0, 60, 62
1, 654216, Note_on_c, 0, 67, 64
1, 654221, Note_off_c, 0, 72, 63
1, 654273, Note_off_c, 0, 67, 61
1, 654274, Note_on_c, 0, 75, 70
1, 654278, Note_on_c, 0, 72, 52
1, 654287, Note_on_c, 0, 60, 71
1, 654309, Note_off_c, 0, 75, 62
1, 654310, Note_off_c, 0, 72, 66
1, 654314, Note_off_c, 0, 60, 65
1, 654403, Note_on_c, 0, 67, 37
1, 654406, Note_on_c, 0, 58, 72
1, 654442, Note_off_c, 0, 58, 60
1, 654454, Note_off_c, 0, 67, 64
1, 654480, Note_on_c, 0, 63, 49
1, 654503, Note_off_c, 0, 63, 57
1, 654523, Note_on_c, 0, 58, 69
1, 654524, Note_on_c, 0, 73, 67
1, 654548, Note_on_c, 0, 67, 33
1, 654555, Note_off_c, 0, 58, 64
1, 654571, Note_off_c, 0, 73, 55
1, 654574, Note_on_c, 0, 63, 70
1, 654588, Note_off_c, 0, 67, 45
1, 654606, Note_off_c, 0, 63, 62
1, 654631, Note_on_c, 0, 73, 58
1, 654645, Note_on_c, 0, 56, 73
1, 654648, Note_on_c, 0, 68, 63
1, 654674, Note_off_c, 0, 73, 62
1, 654680, Note_off_c, 0, 56, 62
1, 654689, Note_off_c, 0, 68, 56
1, 654700, Note_on_c, 0, 63, 44
1, 654743, Note_on_c, 0, 68, 46
1, 654745, Note_off_c, 0, 63, 53
1, 654749, Note_on_c, 0, 56, 70
1, 654750, Note_on_c, 0, 72, 63
1, 654782, Note_off_c, 0, 56, 66
1, 654786, Note_off_c, 0, 68, 64
1, 654789, Note_off_c, 0, 72, 62
1, 654805, Note_on_c, 0, 63, 38
1, 654830, Note_off_c, 0, 63, 49
1, 654859, Note_on_c, 0, 72, 65
1, 654875, Note_on_c, 0, 52, 78
1, 654878, Note_on_c, 0, 67, 63
1, 654913, Note_off_c, 0, 72, 63
1, 654917, Note_off_c, 0, 52, 65
1, 654922, Note_off_c, 0, 67, 61
1, 654934, Note_on_c, 0, 60, 58
1, 654954, Note_off_c, 0, 60, 60
1, 654988, Note_on_c, 0, 70, 69
1, 655001, Note_on_c, 0, 52, 71
1, 655023, Note_on_c, 0, 60, 70
1, 655032, Note_off_c, 0, 70, 61
1, 655041, Note_off_c, 0, 52, 63
1, 655065, Note_off_c, 0, 60, 58
1, 655119, Note_on_c, 0, 53, 72
1, 655129, Note_on_c, 0, 65, 67
1, 655154, Note_off_c, 0, 53, 65
1, 655163, Note_off_c, 0, 65, 65
1, 655190, Note_on_c, 0, 60, 33
1, 655221, Note_off_c, 0, 60, 42
1, 655227, Note_on_c, 0, 53, 73
1, 655233, Note_on_c, 0, 68, 72
1, 655256, Note_off_c, 0, 53, 68
1, 655257, Note_on_c, 0, 65, 45
1, 655282, Note_off_c, 0, 65, 55
1, 655282, Note_off_c, 0, 68, 61
1, 655306, Note_on_c, 0, 60, 44
1, 655355, Note_off_c, 0, 60, 46
1, 655366, Note_on_c, 0, 68, 66
1, 655370, Note_on_c, 0, 63, 62
1, 655374, Note_on_c, 0, 55, 80
1, 655392, Note_on_c, 0, 43, 48
1, 655399, Note_off_c, 0, 55, 69
1, 655408, Note_off_c, 0, 63, 63
1, 655408, Note_off_c, 0, 68, 62
1, 655423, Note_off_c, 0, 43, 53
1, 655438, Note_on_c, 0, 60, 43
1, 655476, Note_off_c, 0, 60, 48
1, 655486, Note_on_c, 0, 67, 69
1, 655493, Note_on_c, 0, 55, 71
1, 655494, Note_on_c, 0, 43, 63
1, 655497, Note_on_c, 0, 63, 60
1, 655524, Note_off_c, 0, 55, 67
1, 655529, Note_off_c, 0, 63, 65
1, 655530, Note_off_c, 0, 43, 62
1, 655540, Note_off_c, 0, 67, 59
1, 655555, Note_on_c, 0, 60, 44
1, 655593, Note_off_c, 0, 60, 57
1, 655606, Note_on_c, 0, 55, 71
1, 655607, Note_on_c, 0, 63, 69
1, 655609, Note_on_c, 0, 43, 67
1, 655610, Note_on_c, 0, 66, 70
1, 655639, Note_off_c, 0, 55, 64
1, 655646, Note_off_c, 0, 66, 62
1, 655652, Note_off_c, 0, 43, 60
1, 655654, Note_off_c, 0, 63, 62
1, 655683, Note_on_c, 0, 60, 53
1, 655720, Note_on_c, 0, 67, 69
1, 655721, Note_off_c, 0, 60, 51
1, 655729, Note_on_c, 0, 55, 74
1, 655738, Note_on_c, 0, 63, 61
1, 655738, Note_on_c, 0, 43, 62
1, 655757, Note_off_c, 0, 55, 66
1, 655772, Note_off_c, 0, 67, 59
1, 655774, Note_off_c, 0, 43, 62
1, 655774, Note_off_c, 0, 63, 65
1, 655798, Note_on_c, 0, 60, 42
1, 655829, Note_off_c, 0, 60, 51
1, 655846, Note_on_c, 0, 66, 73
1, 655849, Note_on_c, 0, 55, 68
1, 655854, Note_on_c, 0, 43, 65
1, 655858, Note_on_c, 0, 63, 64
1, 655879, Note_off_c, 0, 55, 65
1, 655894, Note_off_c, 0, 63, 64
1, 655899, Note_off_c, 0, 43, 56
1, 655900, Note_off_c, 0, 66, 60
1, 655907, Note_on_c, 0, 60, 72
1, 655947, Note_on_c, 0, 55, 73
1, 655947, Note_on_c, 0, 67, 67
1, 655951, Note_off_c, 0, 60, 61
1, 655957, Note_on_c, 0, 43, 64
1, 655968, Note_on_c, 0, 63, 55
1, 655987, Note_off_c, 0, 43, 62
1, 655990, Note_off_c, 0, 55, 66
1, 655992, Note_off_c, 0, 67, 60
1, 656009, Note_off_c, 0, 63, 66
1, 656017, Note_on_c, 0, 60, 45
1, 656042, Note_off_c, 0, 60, 58
1, 656091, Note_on_c, 0, 56, 97
1, 656091, Note_on_c, 0, 74, 78
1, 656098, Note_on_c, 0, 44, 78
1, 656099, Note_on_c, 0, 66, 73
1, 656106, Control_c, 0, 64, 57
1, 656121, Control_c, 0, 64, 75
1, 656132, Note_off_c, 0, 74, 63
1, 656136, Control_c, 0, 64, 90
1, 656151, Control_c, 0, 64, 109
1, 656162, Note_off_c, 0, 66, 65
1, 656166, Control_c, 0, 64, 116
1, 656180, Control_c, 0, 64, 116
1, 656186, Note_on_c, 0, 60, 9
1, 656186, Note_off_c, 0, 56, 60
1, 656195, Note_on_c, 0, 72, 23
1, 656206, Note_off_c, 0, 44, 60
1, 656210, Control_c, 0, 64, 117
1, 656214, Note_on_c, 0, 66, 62
1, 656249, Note_off_c, 0, 72, 64
1, 656254, Note_off_c, 0, 60, 0
1, 656255, Note_off_c, 0, 66, 66
1, 656263, Note_on_c, 0, 60, 46
1, 656302, Note_off_c, 0, 60, 63
1, 656344, Control_c, 0, 64, 109
1, 656344, Note_on_c, 0, 68, 71
1, 656353, Note_on_c, 0, 55, 78
1, 656357, Note_on_c, 0, 63, 64
1, 656358, Note_on_c, 0, 43, 66
1, 656359, Control_c, 0, 64, 94
1, 656373, Control_c, 0, 64, 79
1, 656380, Note_off_c, 0, 55, 67
1, 656387, Note_off_c, 0, 63, 65
1, 656388, Note_off_c, 0, 68, 59
1, 656388, Control_c, 0, 64, 63
1, 656394, Note_off_c, 0, 43, 61
1, 656400, Note_on_c, 0, 60, 52
1, 656403, Control_c, 0, 64, 0
1, 656445, Note_off_c, 0, 60, 55
1, 656464, Note_on_c, 0, 67, 67
1, 656469, Note_on_c, 0, 63, 58
1, 656475, Note_on_c, 0, 43, 68
1, 656477, Note_on_c, 0, 55, 74
1, 656503, Note_off_c, 0, 55, 68
1, 656505, Note_off_c, 0, 63, 65
1, 656507, Note_off_c, 0, 67, 57
1, 656511, Note_off_c, 0, 43, 59
1, 656537, Note_on_c, 0, 60, 53
1, 656567, Note_off_c, 0, 60, 55
1, 656586, Note_on_c, 0, 55, 71
1, 656590, Note_on_c, 0, 66, 67
1, 656593, Note_on_c, 0, 63, 64
1, 656594, Note_on_c, 0, 43, 65
1, 656626, Note_off_c, 0, 55, 62
1, 656631, Note_off_c, 0, 66, 64
1, 656634, Note_off_c, 0, 63, 64
1, 656638, Note_off_c, 0, 43, 59
1, 656651, Note_on_c, 0, 60, 61
1, 656699, Note_off_c, 0, 60, 55
1, 656710, Note_on_c, 0, 67, 67
1, 656714, Note_on_c, 0, 55, 75
1, 656717, Note_on_c, 0, 43, 67
1, 656726, Note_on_c, 0, 63, 57
1, 656743, Note_off_c, 0, 55, 65
1, 656758, Note_off_c, 0, 43, 60
1, 656764, Note_off_c, 0, 63, 65
1, 656765, Note_off_c, 0, 67, 59
1, 656773, Note_on_c, 0, 60, 53
1, 656821, Note_off_c, 0, 60, 60
1, 656839, Note_on_c, 0, 55, 71
1, 656839, Note_on_c, 0, 66, 68
1, 656845, Note_on_c, 0, 43, 70
1, 656856, Note_on_c, 0, 63, 54
1, 656886, Note_off_c, 0, 55, 65
1, 656886, Note_off_c, 0, 63, 54
1, 656887, Note_off_c, 0, 66, 59
1, 656899, Note_off_c, 0, 43, 54
1, 656901, Note_on_c, 0, 60, 70
1, 656937, Note_off_c, 0, 60, 59
1, 656941, Note_on_c, 0, 67, 62
1, 656954, Note_on_c, 0, 55, 72
1, 656956, Note_on_c, 0, 43, 51
1, 656976, Note_on_c, 0, 63, 56
1, 656982, Note_off_c, 0, 67, 62
1, 656983, Note_off_c, 0, 43, 57
1, 656984, Note_off_c, 0, 55, 67
1, 657010, Note_off_c, 0, 63, 66
1, 657037, Note_on_c, 0, 60, 16
1, 657080, Note_off_c, 0, 60, 28
1, 657080, Note_on_c, 0, 56, 89
1, 657083, Note_on_c, 0, 74, 75
1, 657086, Note_on_c, 0, 44, 72
1, 657092, Control_c, 0, 64, 60
1, 657098, Note_on_c, 0, 66, 71
1, 657107, Control_c, 0, 64, 74
1, 657122, Control_c, 0, 64, 89
1, 657124, Note_off_c, 0, 74, 63
1, 657137, Control_c, 0, 64, 99
1, 657152, Control_c, 0, 64, 102
1, 657160, Note_off_c, 0, 66, 65
1, 657166, Control_c, 0, 64, 103
1, 657167, Note_on_c, 0, 60, 58
1, 657176, Note_off_c, 0, 56, 61
1, 657194, Note_off_c, 0, 44, 60
1, 657200, Note_on_c, 0, 72, 48
1, 657201, Note_off_c, 0, 60, 51
1, 657202, Note_on_c, 0, 66, 55
1, 657247, Note_off_c, 0, 66, 62
1, 657253, Note_off_c, 0, 72, 61
1, 657272, Note_on_c, 0, 60, 38
1, 657301, Note_off_c, 0, 60, 48
1, 657314, Control_c, 0, 64, 101
1, 657321, Note_on_c, 0, 72, 63
1, 657329, Control_c, 0, 64, 95
1, 657330, Note_on_c, 0, 55, 85
1, 657333, Note_on_c, 0, 67, 69
1, 657339, Note_on_c, 0, 43, 70
1, 657344, Control_c, 0, 64, 85
1, 657359, Control_c, 0, 64, 74
1, 657367, Note_off_c, 0, 72, 57
1, 657373, Control_c, 0, 64, 63
1, 657384, Note_off_c, 0, 67, 61
1, 657390, Control_c, 0, 64, 0
1, 657395, Note_on_c, 0, 62, 65
1, 657424, Note_off_c, 0, 62, 64
1, 657431, Note_on_c, 0, 71, 60
1, 657466, Note_off_c, 0, 71, 62
1, 657506, Note_on_c, 0, 62, 34
1, 657539, Note_off_c, 0, 62, 34
1, 657571, Note_on_c, 0, 70, 74
1, 657590, Note_on_c, 0, 63, 65
1, 657611, Note_off_c, 0, 70, 51
1, 657631, Note_off_c, 0, 63, 64
1, 657657, Note_on_c, 0, 60, 57
1, 657679, Note_off_c, 0, 60, 60
1, 657696, Note_on_c, 0, 68, 67
1, 657697, Note_on_c, 0, 63, 49
1, 657732, Note_off_c, 0, 68, 60
1, 657739, Note_off_c, 0, 63, 66
1, 657759, Note_on_c, 0, 60, 48
1, 657783, Note_off_c, 0, 60, 57
1, 657786, Note_on_c, 0, 59, 21
1, 657787, Note_off_c, 0, 59, 127
1, 657817, Note_on_c, 0, 67, 68
1, 657831, Note_on_c, 0, 62, 59
1, 657849, Note_off_c, 0, 67, 62
1, 657866, Note_off_c, 0, 55, 58
1, 657876, Note_off_c, 0, 43, 49
1, 657877, Note_off_c, 0, 62, 59
1, 657946, Note_on_c, 0, 67, 63
1, 657982, Note_off_c, 0, 67, 57
1, 658007, Note_on_c, 0, 59, 67
1, 658032, Note_off_c, 0, 59, 61
1, 658068, Note_on_c, 0, 51, 53
1, 658068, Note_on_c, 0, 67, 67
1, 658106, Note_off_c, 0, 67, 59
1, 658129, Note_on_c, 0, 57, 65
1, 658138, Note_off_c, 0, 51, 56
1, 658163, Note_off_c, 0, 57, 62
1, 658167, Note_on_c, 0, 50, 68
1, 658184, Note_on_c, 0, 66, 57
1, 658208, Note_off_c, 0, 66, 65
1, 658244, Poly_aftertouch_c, 0, 60, 0
1, 658249, Note_on_c, 0, 57, 40
1, 658280, Note_off_c, 0, 57, 33
1, 658290, Note_on_c, 0, 43, 62
1, 658302, Note_on_c, 0, 69, 76
1, 658328, Note_off_c, 0, 50, 36
1, 658339, Note_on_c, 0, 62, 56
1, 658362, Note_off_c, 0, 69, 61
1, 658370, Note_off_c, 0, 62, 64
1, 658441, Note_on_c, 0, 67, 66
1, 658442, Note_on_c, 0, 62, 67
1, 658457, Note_off_c, 0, 43, 54
1, 658473, Note_off_c, 0, 67, 63
1, 658475, Note_off_c, 0, 62, 62
1, 658492, Note_on_c, 0, 59, 32
1, 658522, Note_off_c, 0, 59, 48
1, 658561, Note_on_c, 0, 51, 69
1, 658564, Note_on_c, 0, 67, 62
1, 658579, Note_on_c, 0, 60, 51
1, 658589, Note_off_c, 0, 67, 62
1, 658611, Note_off_c, 0, 51, 56
1, 658627, Note_off_c, 0, 60, 58
1, 658630, Note_on_c, 0, 57, 62
1, 658657, Note_on_c, 0, 50, 62
1, 658661, Note_off_c, 0, 57, 63
1, 658667, Note_on_c, 0, 66, 61
1, 658706, Note_off_c, 0, 66, 62
1, 658742, Note_on_c, 0, 57, 43
1, 658770, Note_off_c, 0, 57, 48
1, 658785, Note_on_c, 0, 43, 63
1, 658786, Note_off_c, 0, 50, 49
1, 658795, Note_on_c, 0, 69, 70
1, 658814, Note_on_c, 0, 62, 55
1, 658825, Note_off_c, 0, 69, 63
1, 658850, Note_off_c, 0, 62, 63
1, 658867, Note_on_c, 0, 59, 41
1, 658895, Note_off_c, 0, 59, 53
1, 658919, Note_on_c, 0, 67, 59
1, 658930, Note_on_c, 0, 62, 54
1, 658941, Note_off_c, 0, 43, 57
1, 658951, Note_off_c, 0, 67, 65
1, 658954, Note_off_c, 0, 62, 56
1, 658966, Note_on_c, 0, 59, 56
1, 658988, Note_off_c, 0, 59, 58
1, 659038, Note_on_c, 0, 67, 66
1, 659040, Note_on_c, 0, 51, 62
1, 659071, Note_on_c, 0, 60, 56
1, 659077, Note_off_c, 0, 67, 63
1, 659108, Note_off_c, 0, 60, 61
1, 659112, Note_on_c, 0, 57, 60
1, 659137, Note_off_c, 0, 51, 59
1, 659141, Note_off_c, 0, 57, 63
1, 659150, Note_on_c, 0, 50, 65
1, 659159, Note_on_c, 0, 66, 61
1, 659195, Note_off_c, 0, 66, 65
1, 659208, Note_on_c, 0, 57, 55
1, 659231, Note_off_c, 0, 57, 59
1, 659277, Note_on_c, 0, 69, 71
1, 659282, Note_on_c, 0, 43, 58
1, 659296, Note_on_c, 0, 62, 61
1, 659324, Note_off_c, 0, 69, 65
1, 659331, Note_off_c, 0, 62, 64
1, 659343, Note_on_c, 0, 59, 50
1, 659381, Note_off_c, 0, 59, 52
1, 659388, Note_on_c, 0, 67, 72
1, 659414, Note_on_c, 0, 62, 49
1, 659438, Note_off_c, 0, 62, 58
1, 659444, Note_on_c, 0, 59, 42
1, 659447, Note_off_c, 0, 67, 61
1, 659472, Note_off_c, 0, 59, 48
1, 659539, Note_on_c, 0, 74, 74
1, 659579, Note_off_c, 0, 74, 62
1, 659581, Note_on_c, 0, 72, 75
1, 659649, Note_off_c, 0, 72, 64
1, 659650, Note_on_c, 0, 71, 64
1, 659696, Note_on_c, 0, 68, 72
1, 659699, Note_off_c, 0, 71, 61
1, 659741, Note_off_c, 0, 68, 64
1, 659757, Note_on_c, 0, 67, 51
1, 659781, Note_off_c, 0, 67, 61
1, 659826, Note_on_c, 0, 66, 73
1, 659828, Note_off_c, 0, 50, 40
1, 659847, Note_off_c, 0, 43, 47
1, 659893, Note_on_c, 0, 65, 63
1, 659895, Note_off_c, 0, 66, 65
1, 659926, Note_off_c, 0, 65, 65
1, 659936, Note_on_c, 0, 64, 59
1, 659968, Note_off_c, 0, 64, 63
1, 659998, Note_on_c, 0, 63, 70
1, 660049, Note_off_c, 0, 63, 62
1, 660058, Note_on_c, 0, 62, 61
1, 660093, Note_off_c, 0, 62, 62
1, 660121, Note_on_c, 0, 61, 74
1, 660180, Note_on_c, 0, 60, 62
1, 660186, Note_off_c, 0, 61, 63
1, 660214, Note_off_c, 0, 60, 64
1, 660237, Note_on_c, 0, 59, 51
1, 660259, Note_off_c, 0, 59, 57
1, 660290, Note_on_c, 0, 58, 70
1, 660334, Note_off_c, 0, 58, 62
1, 660353, Note_on_c, 0, 57, 55
1, 660384, Note_off_c, 0, 57, 59
1, 660414, Note_on_c, 0, 56, 69
1, 660456, Note_off_c, 0, 56, 62
1, 660471, Note_on_c, 0, 55, 57
1, 660505, Note_off_c, 0, 55, 62
1, 660540, Note_on_c, 0, 54, 65
1, 660597, Note_on_c, 0, 53, 63
1, 660614, Note_off_c, 0, 54, 62
1, 660644, Note_off_c, 0, 53, 67
1, 660653, Note_on_c, 0, 52, 61
1, 660687, Note_off_c, 0, 52, 65
1, 660726, Note_on_c, 0, 51, 64
1, 660768, Note_off_c, 0, 51, 63
1, 660783, Note_on_c, 0, 50, 61
1, 660812, Note_off_c, 0, 50, 65
1, 660849, Note_on_c, 0, 49, 68
1, 660902, Note_on_c, 0, 48, 61
1, 660907, Note_off_c, 0, 49, 61
1, 660939, Note_off_c, 0, 48, 65
1, 660946, Note_on_c, 0, 47, 62
1, 660973, Note_off_c, 0, 47, 66
1, 661028, Note_on_c, 0, 46, 41
1, 661029, Note_off_c, 0, 46, 127
1, 661058, Note_on_c, 0, 45, 53
1, 661100, Note_off_c, 0, 45, 66
1, 661142, Note_on_c, 0, 44, 62
1, 661177, Note_off_c, 0, 44, 64
1, 661221, Note_on_c, 0, 43, 54
1, 661354, Note_off_c, 0, 43, 57
1, 661365, Poly_aftertouch_c, 0, 45, 0
1, 661399, Note_on_c, 0, 47, 54
1, 661429, Note_off_c, 0, 47, 64
1, 661433, Note_on_c, 0, 45, 63
1, 661470, Note_off_c, 0, 45, 64
1, 661490, Note_on_c, 0, 48, 61
1, 661522, Note_off_c, 0, 48, 65
1, 661540, Note_on_c, 0, 47, 59
1, 661612, Note_off_c, 0, 47, 55
1, 661613, Note_on_c, 0, 50, 60
1, 661652, Note_off_c, 0, 50, 62
1, 661662, Note_on_c, 0, 48, 58
1, 661700, Note_off_c, 0, 48, 66
1, 661712, Note_on_c, 0, 52, 63
1, 661738, Note_off_c, 0, 52, 68
1, 661765, Note_on_c, 0, 50, 61
1, 661827, Note_off_c, 0, 50, 57
1, 661831, Note_on_c, 0, 53, 60
1, 661867, Note_off_c, 0, 53, 65
1, 661875, Note_on_c, 0, 52, 59
1, 661918, Note_off_c, 0, 52, 67
1, 661924, Note_on_c, 0, 55, 67
1, 661953, Note_off_c, 0, 55, 66
1, 661990, Note_on_c, 0, 53, 57
1, 662043, Note_off_c, 0, 53, 54
1, 662047, Note_on_c, 0, 57, 63
1, 662094, Note_off_c, 0, 57, 62
1, 662109, Note_on_c, 0, 55, 56
1, 662144, Note_off_c, 0, 55, 64
1, 662149, Note_on_c, 0, 59, 65
1, 662175, Note_off_c, 0, 59, 64
1, 662206, Note_on_c, 0, 57, 69
1, 662269, Note_off_c, 0, 57, 57
1, 662274, Note_on_c, 0, 60, 57
1, 662309, Note_off_c, 0, 60, 63
1, 662319, Note_on_c, 0, 59, 54
1, 662356, Note_off_c, 0, 59, 63
1, 662365, Note_on_c, 0, 62, 61
1, 662395, Note_off_c, 0, 62, 64
1, 662417, Note_on_c, 0, 60, 67
1, 662478, Note_on_c, 0, 64, 62
1, 662482, Note_off_c, 0, 60, 57
1, 662519, Note_off_c, 0, 64, 61
1, 662528, Note_on_c, 0, 62, 55
1, 662568, Note_off_c, 0, 62, 64
1, 662575, Note_on_c, 0, 65, 62
1, 662603, Note_off_c, 0, 65, 68
1, 662631, Note_on_c, 0, 64, 68
1, 662687, Note_off_c, 0, 64, 54
1, 662689, Note_on_c, 0, 67, 59
1, 662727, Note_off_c, 0, 67, 60
1, 662738, Note_on_c, 0, 65, 52
1, 662772, Note_off_c, 0, 65, 66
1, 662775, Note_on_c, 0, 69, 67
1, 662809, Note_off_c, 0, 69, 70
1, 662843, Note_on_c, 0, 67, 72
1, 662893, Note_off_c, 0, 67, 52
1, 662901, Note_on_c, 0, 71, 62
1, 662945, Note_off_c, 0, 71, 60
1, 662949, Note_on_c, 0, 69, 59
1, 662983, Note_off_c, 0, 69, 68
1, 662999, Note_on_c, 0, 72, 61
1, 663015, Note_off_c, 0, 72, 65
1, 663057, Note_on_c, 0, 71, 67
1, 663105, Note_on_c, 0, 74, 59
1, 663107, Note_off_c, 0, 71, 55
1, 663146, Note_off_c, 0, 74, 61
1, 663153, Note_on_c, 0, 72, 52
1, 663192, Note_off_c, 0, 72, 66
1, 663202, Note_on_c, 0, 76, 63
1, 663221, Note_off_c, 0, 76, 67
1, 663261, Note_on_c, 0, 74, 65
1, 663310, Note_on_c, 0, 77, 69
1, 663316, Note_off_c, 0, 74, 60
1, 663358, Note_off_c, 0, 77, 59
1, 663370, Note_on_c, 0, 76, 49
1, 663394, Note_off_c, 0, 76, 64
1, 663408, Note_on_c, 0, 79, 66
1, 663432, Note_off_c, 0, 79, 67
1, 663470, Note_on_c, 0, 77, 68
1, 663517, Note_on_c, 0, 81, 70
1, 663525, Note_off_c, 0, 77, 56
1, 663577, Note_off_c, 0, 81, 56
1, 663586, Note_on_c, 0, 79, 50
1, 663608, Note_off_c, 0, 79, 61
1, 663614, Note_on_c, 0, 83, 65
1, 663642, Note_off_c, 0, 83, 65
1, 663683, Note_on_c, 0, 81, 68
1, 663729, Note_on_c, 0, 84, 69
1, 663733, Note_off_c, 0, 81, 52
1, 663772, Note_off_c, 0, 84, 62
1, 663779, Note_on_c, 0, 83, 53
1, 663816, Note_off_c, 0, 83, 62
1, 663822, Note_on_c, 0, 86, 69
1, 663851, Note_off_c, 0, 86, 64
1, 663887, Note_on_c, 0, 84, 69
1, 663936, Note_on_c, 0, 88, 65
1, 663946, Note_off_c, 0, 84, 52
1, 663983, Note_on_c, 0, 86, 56
1, 663984, Note_off_c, 0, 88, 58
1, 664020, Note_off_c, 0, 86, 64
1, 664028, Note_on_c, 0, 89, 66
1, 664057, Note_off_c, 0, 89, 67
1, 664094, Note_on_c, 0, 88, 62
1, 664141, Note_on_c, 0, 91, 72
1, 664147, Note_off_c, 0, 88, 56
1, 664190, Note_off_c, 0, 91, 57
1, 664203, Note_on_c, 0, 89, 48
1, 664230, Note_off_c, 0, 89, 63
1, 664240, Note_on_c, 0, 93, 74
1, 664272, Note_off_c, 0, 93, 62
1, 664315, Note_on_c, 0, 91, 62
1, 664352, Note_off_c, 0, 91, 48
1, 664354, Note_on_c, 0, 95, 73
1, 664407, Note_off_c, 0, 95, 65
1, 664410, Note_on_c, 0, 93, 67
1, 664437, Note_off_c, 0, 93, 64
1, 664470, Note_on_c, 0, 96, 78
1, 664527, Note_off_c, 0, 96, 58
1, 664532, Note_on_c, 0, 95, 66
1, 664586, Note_off_c, 0, 95, 66
1, 664591, Note_on_c, 0, 93, 64
1, 664604, Note_on_c, 0, 64, 59
1, 664605, Note_on_c, 0, 60, 60
1, 664616, Note_off_c, 0, 93, 62
1, 664631, Note_on_c, 0, 91, 54
1, 664635, Note_off_c, 0, 64, 66
1, 664637, Note_off_c, 0, 60, 65
1, 664662, Note_off_c, 0, 91, 49
1, 664705, Note_on_c, 0, 90, 65
1, 664712, Note_on_c, 0, 60, 64
1, 664717, Note_on_c, 0, 63, 61
1, 664739, Note_off_c, 0, 63, 66
1, 664744, Note_off_c, 0, 60, 63
1, 664745, Note_off_c, 0, 90, 60
1, 664753, Note_on_c, 0, 93, 70
1, 664817, Note_on_c, 0, 91, 66
1, 664821, Note_off_c, 0, 93, 57
1, 664838, Note_on_c, 0, 64, 63
1, 664841, Note_on_c, 0, 60, 61
1, 664861, Note_off_c, 0, 60, 63
1, 664864, Note_off_c, 0, 91, 59
1, 664868, Note_off_c, 0, 64, 66
1, 664881, Note_on_c, 0, 88, 52
1, 664922, Note_off_c, 0, 88, 49
1, 664948, Note_on_c, 0, 66, 67
1, 664948, Note_on_c, 0, 87, 61
1, 664950, Note_on_c, 0, 60, 54
1, 664974, Note_off_c, 0, 66, 68
1, 664976, Note_off_c, 0, 60, 58
1, 664977, Note_off_c, 0, 87, 66
1, 664989, Note_on_c, 0, 89, 66
1, 665063, Note_on_c, 0, 88, 64
1, 665069, Note_off_c, 0, 89, 61
1, 665074, Note_on_c, 0, 60, 64
1, 665079, Note_on_c, 0, 67, 64
1, 665106, Note_off_c, 0, 60, 62
1, 665109, Note_off_c, 0, 67, 65
1, 665111, Note_off_c, 0, 88, 62
1, 665134, Note_on_c, 0, 84, 47
1, 665158, Note_off_c, 0, 84, 60
1, 665182, Note_on_c, 0, 83, 62
1, 665200, Note_on_c, 0, 63, 57
1, 665207, Note_on_c, 0, 60, 47
1, 665225, Note_off_c, 0, 63, 64
1, 665231, Note_off_c, 0, 83, 59
1, 665232, Note_off_c, 0, 60, 57
1, 665245, Note_on_c, 0, 86, 58
1, 665304, Note_on_c, 0, 84, 63
1, 665309, Note_on_c, 0, 60, 69
1, 665315, Note_off_c, 0, 86, 61
1, 665321, Note_on_c, 0, 64, 60
1, 665347, Note_off_c, 0, 60, 57
1, 665349, Note_off_c, 0, 64, 65
1, 665349, Note_off_c, 0, 84, 63
1, 665379, Note_on_c, 0, 79, 48
1, 665406, Note_off_c, 0, 79, 54
1, 665420, Note_on_c, 0, 64, 69
1, 665429, Note_on_c, 0, 84, 58
1, 665439, Note_on_c, 0, 60, 49
1, 665447, Note_off_c, 0, 64, 67
1, 665462, Note_off_c, 0, 60, 58
1, 665477, Note_off_c, 0, 84, 63
1, 665484, Note_on_c, 0, 83, 54
1, 665529, Note_off_c, 0, 83, 61
1, 665540, Note_on_c, 0, 60, 57
1, 665543, Note_on_c, 0, 62, 62
1, 665546, Note_on_c, 0, 65, 59
1, 665551, Note_on_c, 0, 81, 50
1, 665567, Note_off_c, 0, 65, 66
1, 665575, Note_off_c, 0, 60, 63
1, 665576, Note_off_c, 0, 81, 56
1, 665577, Note_off_c, 0, 62, 62
1, 665595, Note_on_c, 0, 80, 66
1, 665628, Note_off_c, 0, 80, 63
1, 665656, Note_on_c, 0, 65, 59
1, 665656, Note_on_c, 0, 62, 63
1, 665662, Note_on_c, 0, 81, 59
1, 665663, Note_on_c, 0, 60, 48
1, 665669, Note_on_c, 0, 69, 52
1, 665687, Note_off_c, 0, 65, 67
1, 665690, Note_off_c, 0, 60, 58
1, 665690, Note_off_c, 0, 81, 49
1, 665691, Note_off_c, 0, 69, 60
1, 665694, Note_off_c, 0, 62, 61
1, 665717, Note_on_c, 0, 82, 66
1, 665750, Note_off_c, 0, 82, 65
1, 665766, Note_on_c, 0, 69, 67
1, 665775, Note_on_c, 0, 60, 60
1, 665775, Note_on_c, 0, 65, 57
1, 665787, Note_on_c, 0, 62, 56
1, 665787, Note_on_c, 0, 83, 60
1, 665795, Note_off_c, 0, 69, 68
1, 665813, Note_off_c, 0, 65, 68
1, 665820, Note_off_c, 0, 60, 59
1, 665826, Note_off_c, 0, 62, 64
1, 665837, Note_off_c, 0, 83, 56
1, 665850, Note_on_c, 0, 84, 57
1, 665871, Note_off_c, 0, 84, 64
1, 665884, Note_on_c, 0, 85, 70
1, 665896, Note_on_c, 0, 62, 65
1, 665897, Note_on_c, 0, 65, 59
1, 665898, Note_on_c, 0, 69, 63
1, 665915, Note_on_c, 0, 60, 47
1, 665916, Note_off_c, 0, 85, 65
1, 665926, Note_off_c, 0, 69, 70
1, 665929, Note_off_c, 0, 65, 65
1, 665933, Note_off_c, 0, 62, 57
1, 665944, Note_off_c, 0, 60, 57
1, 665960, Note_on_c, 0, 86, 58
1, 665983, Note_off_c, 0, 86, 56
1, 666005, Note_on_c, 0, 87, 69
1, 666012, Note_on_c, 0, 65, 58
1, 666013, Note_on_c, 0, 69, 63
1, 666028, Note_on_c, 0, 62, 47
1, 666030, Note_off_c, 0, 87, 68
1, 666033, Note_on_c, 0, 60, 48
1, 666042, Note_off_c, 0, 69, 67
1, 666044, Note_off_c, 0, 65, 67
1, 666055, Note_off_c, 0, 62, 57
1, 666061, Note_off_c, 0, 60, 57
1, 666069, Note_on_c, 0, 88, 66
1, 666115, Note_off_c, 0, 88, 62
1, 666119, Note_on_c, 0, 69, 58
1, 666122, Note_on_c, 0, 65, 61
1, 666126, Note_on_c, 0, 89, 66
1, 666139, Note_off_c, 0, 69, 64
1, 666143, Note_on_c, 0, 60, 33
1, 666143, Note_on_c, 0, 62, 52
1, 666151, Note_off_c, 0, 65, 68
1, 666169, Note_off_c, 0, 89, 65
1, 666169, Note_off_c, 0, 62, 59
1, 666171, Note_off_c, 0, 60, 46
1, 666181, Note_on_c, 0, 90, 63
1, 666228, Note_off_c, 0, 90, 60
1, 666231, Note_on_c, 0, 91, 62
1, 666239, Note_on_c, 0, 65, 68
1, 666241, Note_on_c, 0, 67, 81
1, 666241, Control_c, 0, 64, 27
1, 666245, Note_on_c, 0, 59, 67
1, 666247, Note_on_c, 0, 62, 65
1, 666256, Control_c, 0, 64, 68
1, 666268, Note_off_c, 0, 91, 54
1, 666271, Control_c, 0, 64, 79
1, 666286, Control_c, 0, 64, 90
1, 666300, Control_c, 0, 64, 98
1, 666302, Note_on_c, 0, 90, 64
1, 666315, Control_c, 0, 64, 99
1, 666330, Control_c, 0, 64, 100
1, 666333, Note_off_c, 0, 59, 59
1, 666339, Note_off_c, 0, 90, 60
1, 666371, Note_on_c, 0, 93, 67
1, 666384, Note_off_c, 0, 67, 51
1, 666426, Note_on_c, 0, 91, 68
1, 666429, Note_off_c, 0, 62, 54
1, 666437, Note_off_c, 0, 93, 58
1, 666452, Note_off_c, 0, 65, 62
1, 666464, Control_c, 0, 64, 97
1, 666474, Note_off_c, 0, 91, 54
1, 666479, Control_c, 0, 64, 88
1, 666488, Note_on_c, 0, 64, 70
1, 666491, Note_on_c, 0, 60, 70
1, 666494, Note_on_c, 0, 88, 63
1, 666494, Control_c, 0, 64, 74
1, 666502, Note_on_c, 0, 67, 53
1, 666508, Note_off_c, 0, 64, 66
1, 666508, Control_c, 0, 64, 51
1, 666518, Note_off_c, 0, 60, 67
1, 666519, Note_off_c, 0, 67, 63
1, 666523, Control_c, 0, 64, 0
1, 666532, Note_off_c, 0, 88, 55
1, 666566, Note_on_c, 0, 91, 59
1, 666612, Note_on_c, 0, 89, 65
1, 666625, Note_off_c, 0, 91, 50
1, 666668, Note_on_c, 0, 88, 61
1, 666676, Note_off_c, 0, 89, 64
1, 666721, Note_off_c, 0, 88, 63
1, 666730, Note_on_c, 0, 59, 73
1, 666730, Note_on_c, 0, 86, 61
1, 666735, Note_on_c, 0, 56, 68
1, 666753, Note_off_c, 0, 59, 67
1, 666765, Note_off_c, 0, 56, 64
1, 666766, Note_off_c, 0, 86, 59
1, 666789, Note_on_c, 0, 89, 63
1, 666846, Note_on_c, 0, 88, 64
1, 666848, Note_off_c, 0, 89, 56
1, 666903, Note_on_c, 0, 86, 60
1, 666910, Note_off_c, 0, 88, 61
1, 666952, Note_off_c, 0, 86, 65
1, 666965, Note_on_c, 0, 84, 60
1, 666970, Note_on_c, 0, 60, 71
1, 666974, Note_on_c, 0, 57, 72
1, 666996, Note_off_c, 0, 60, 67
1, 667000, Note_off_c, 0, 57, 66
1, 667008, Note_off_c, 0, 84, 57
1, 667029, Note_on_c, 0, 88, 63
1, 667077, Note_on_c, 0, 86, 65
1, 667113, Note_off_c, 0, 88, 42
1, 667137, Note_on_c, 0, 84, 61
1, 667143, Note_off_c, 0, 86, 62
1, 667182, Note_off_c, 0, 84, 66
1, 667201, Note_on_c, 0, 83, 48
1, 667206, Note_on_c, 0, 55, 77
1, 667213, Note_on_c, 0, 52, 64
1, 667233, Note_off_c, 0, 83, 51
1, 667236, Note_off_c, 0, 55, 65
1, 667244, Note_off_c, 0, 52, 66
1, 667248, Note_on_c, 0, 86, 61
1, 667304, Note_off_c, 0, 86, 57
1, 667310, Note_on_c, 0, 84, 63
1, 667358, Note_on_c, 0, 83, 59
1, 667364, Note_off_c, 0, 84, 64
1, 667406, Note_off_c, 0, 83, 61
1, 667423, Note_on_c, 0, 81, 56
1, 667445, Note_on_c, 0, 57, 64
1, 667445, Note_off_c, 0, 81, 57
1, 667447, Note_on_c, 0, 53, 66
1, 667453, Note_on_c, 0, 83, 60
1, 667471, Note_off_c, 0, 57, 65
1, 667477, Note_off_c, 0, 53, 68
1, 667485, Note_off_c, 0, 83, 59
1, 667546, Note_on_c, 0, 84, 54
1, 667568, Note_off_c, 0, 84, 56
1, 667599, Note_on_c, 0, 85, 66
1, 667648, Note_off_c, 0, 85, 58
1, 667658, Note_on_c, 0, 86, 63
1, 667665, Note_on_c, 0, 62, 77
1, 667666, Note_on_c, 0, 50, 71
1, 667691, Note_off_c, 0, 62, 65
1, 667701, Note_off_c, 0, 50, 60
1, 667705, Note_on_c, 0, 88, 49
1, 667710, Note_off_c, 0, 86, 61
1, 667761, Note_off_c, 0, 88, 58
1, 667765, Note_on_c, 0, 89, 63
1, 667773, Note_on_c, 0, 62, 78
1, 667783, Note_on_c, 0, 50, 51
1, 667802, Note_off_c, 0, 62, 61
1, 667808, Note_off_c, 0, 89, 60
1, 667809, Note_off_c, 0, 50, 52
1, 667833, Note_on_c, 0, 86, 62
1, 667880, Note_off_c, 0, 86, 62
1, 667894, Note_on_c, 0, 84, 62
1, 667895, Note_on_c, 0, 59, 78
1, 667896, Note_on_c, 0, 55, 75
1, 667928, Note_off_c, 0, 55, 68
1, 667933, Note_off_c, 0, 84, 62
1, 667952, Note_on_c, 0, 83, 51
1, 667954, Note_off_c, 0, 59, 56
1, 667981, Note_off_c, 0, 83, 55
1, 668019, Note_on_c, 0, 93, 62
1, 668041, Note_on_c, 0, 91, 33
1, 668071, Note_off_c, 0, 93, 42
1, 668125, Note_off_c, 0, 91, 61
1, 668136, Note_on_c, 0, 90, 56
1, 668162, Poly_aftertouch_c, 0, 91, 0
1, 668166, Note_on_c, 0, 91, 67
1, 668184, Note_off_c, 0, 90, 55
1, 668201, Note_off_c, 0, 91, 61
1, 668279, Note_on_c, 0, 84, 86
1, 668345, Note_on_c, 0, 83, 71
1, 668357, Note_off_c, 0, 84, 56
1, 668396, Note_on_c, 0, 81, 74
1, 668413, Control_c, 0, 64, 54
1, 668414, Note_on_c, 0, 36, 79
1, 668414, Note_off_c, 0, 83, 59
1, 668417, Note_on_c, 0, 48, 89
1, 668428, Control_c, 0, 64, 72
1, 668443, Control_c, 0, 64, 83
1, 668446, Note_off_c, 0, 36, 65
1, 668446, Note_off_c, 0, 48, 67
1, 668449, Note_off_c, 0, 81, 61
1, 668456, Note_on_c, 0, 79, 63
1, 668458, Control_c, 0, 64, 95
1, 668472, Control_c, 0, 64, 99
1, 668487, Control_c, 0, 64, 101
1, 668491, Note_off_c, 0, 79, 59
1, 668496, Poly_aftertouch_c, 0, 38, 127
1, 668502, Control_c, 0, 64, 101
1, 668524, Note_on_c, 0, 78, 78
1, 668527, Poly_aftertouch_c, 0, 38, 0
1, 668542, Note_on_c, 0, 51, 86
1, 668548, Note_on_c, 0, 39, 74
1, 668568, Note_off_c, 0, 51, 66
1, 668577, Note_off_c, 0, 78, 61
1, 668581, Note_off_c, 0, 39, 63
1, 668583, Note_on_c, 0, 81, 72
1, 668607, Control_c, 0, 64, 101
1, 668621, Control_c, 0, 64, 97
1, 668636, Control_c, 0, 64, 90
1, 668649, Note_on_c, 0, 79, 68
1, 668651, Control_c, 0, 64, 80
1, 668664, Note_on_c, 0, 52, 75
1, 668665, Note_on_c, 0, 40, 69
1, 668666, Control_c, 0, 64, 69
1, 668667, Note_off_c, 0, 81, 57
1, 668681, Control_c, 0, 64, 45
1, 668683, Note_off_c, 0, 52, 67
1, 668695, Control_c, 0, 64, 0
1, 668696, Note_off_c, 0, 40, 65
1, 668704, Note_off_c, 0, 79, 64
1, 668712, Note_on_c, 0, 76, 64
1, 668765, Note_off_c, 0, 76, 61
1, 668780, Note_on_c, 0, 75, 67
1, 668792, Note_on_c, 0, 42, 66
1, 668792, Note_on_c, 0, 54, 70
1, 668824, Note_off_c, 0, 54, 63
1, 668825, Note_off_c, 0, 75, 63
1, 668826, Note_off_c, 0, 42, 66
1, 668834, Note_on_c, 0, 77, 66
1, 668896, Note_on_c, 0, 76, 73
1, 668900, Note_on_c, 0, 55, 75
1, 668911, Note_on_c, 0, 43, 65
1, 668915, Note_off_c, 0, 77, 57
1, 668925, Note_off_c, 0, 55, 67
1, 668941, Note_off_c, 0, 43, 62
1, 668952, Note_off_c, 0, 76, 66
1, 668960, Note_on_c, 0, 72, 59
1, 668979, Note_off_c, 0, 72, 63
1, 669027, Note_on_c, 0, 71, 34
1, 669029, Note_on_c, 0, 51, 78
1, 669030, Note_on_c, 0, 39, 72
1, 669053, Note_off_c, 0, 51, 66
1, 669056, Note_off_c, 0, 71, 56
1, 669062, Note_off_c, 0, 39, 63
1, 669074, Note_on_c, 0, 74, 55
1, 669112, Note_on_c, 0, 72, 55
1, 669138, Note_on_c, 0, 52, 88
1, 669138, Note_off_c, 0, 74, 63
1, 669147, Note_on_c, 0, 40, 73
1, 669158, Note_off_c, 0, 52, 72
1, 669163, Note_off_c, 0, 72, 65
1, 669167, Note_on_c, 0, 67, 70
1, 669185, Note_off_c, 0, 40, 66
1, 669192, Note_off_c, 0, 67, 68
1, 669262, Note_on_c, 0, 81, 74
1, 669313, Note_on_c, 0, 80, 75
1, 669329, Note_off_c, 0, 81, 54
1, 669384, Note_off_c, 0, 80, 64
1, 669388, Note_on_c, 0, 78, 65
1, 669400, Note_on_c, 0, 45, 84
1, 669406, Note_on_c, 0, 33, 71
1, 669415, Control_c, 0, 64, 62
1, 669424, Note_off_c, 0, 78, 62
1, 669424, Note_on_c, 0, 76, 70
1, 669430, Note_off_c, 0, 45, 67
1, 669430, Control_c, 0, 64, 74
1, 669436, Note_off_c, 0, 33, 66
1, 669445, Control_c, 0, 64, 85
1, 669460, Control_c, 0, 64, 95
1, 669466, Note_off_c, 0, 76, 66
1, 669475, Control_c, 0, 64, 97
1, 669490, Control_c, 0, 64, 98
1, 669504, Control_c, 0, 64, 99
1, 669517, Note_on_c, 0, 75, 56
1, 669519, Control_c, 0, 64, 100
1, 669520, Note_on_c, 0, 36, 78
1, 669522, Note_on_c, 0, 48, 76
1, 669555, Note_off_c, 0, 36, 65
1, 669556, Note_off_c, 0, 75, 65
1, 669557, Note_off_c, 0, 48, 67
1, 669634, Note_on_c, 0, 76, 45
1, 669638, Note_on_c, 0, 77, 26
1, 669645, Control_c, 0, 64, 99
1, 669647, Note_on_c, 0, 49, 82
1, 669651, Note_on_c, 0, 37, 67
1, 669659, Control_c, 0, 64, 96
1, 669671, Note_off_c, 0, 49, 65
1, 669671, Note_off_c, 0, 77, 38
1, 669674, Control_c, 0, 64, 90
1, 669675, Note_off_c, 0, 76, 59
1, 669678, Note_off_c, 0, 37, 65
1, 669689, Control_c, 0, 64, 81
1, 669698, Note_on_c, 0, 74, 51
1, 669704, Control_c, 0, 64, 73
1, 669719, Control_c, 0, 64, 65
1, 669719, Note_off_c, 0, 74, 58
1, 669729, Note_on_c, 0, 72, 51
1, 669733, Control_c, 0, 64, 49
1, 669748, Control_c, 0, 64, 0
1, 669756, Note_off_c, 0, 72, 54
1, 669785, Note_on_c, 0, 74, 69
1, 669792, Note_on_c, 0, 40, 59
1, 669797, Note_on_c, 0, 52, 55
1, 669820, Note_off_c, 0, 40, 62
1, 669822, Note_off_c, 0, 52, 37
1, 669890, Note_off_c, 0, 74, 65
1, 669892, Note_on_c, 0, 50, 72
1, 669919, Note_on_c, 0, 69, 40
1, 669921, Note_off_c, 0, 50, 66
1, 669945, Note_off_c, 0, 69, 48
1, 669999, Note_on_c, 0, 67, 49
1, 670016, Note_on_c, 0, 49, 70
1, 670018, Note_on_c, 0, 42, 61
1, 670019, Note_off_c, 0, 42, 127
1, 670023, Note_on_c, 0, 36, 58
1, 670024, Note_off_c, 0, 67, 54
1, 670026, Note_on_c, 0, 71, 49
1, 670054, Note_on_c, 0, 69, 59
1, 670060, Note_on_c, 0, 48, 23
1, 670061, Note_off_c, 0, 48, 127
1, 670071, Note_off_c, 0, 36, 64
1, 670077, Note_off_c, 0, 71, 56
1, 670086, Note_off_c, 0, 49, 42
1, 670089, Note_on_c, 0, 64, 65
1, 670102, Note_off_c, 0, 69, 65
1, 670116, Note_off_c, 0, 64, 66
1, 670206, Note_on_c, 0, 86, 84
1, 670265, Note_on_c, 0, 84, 65
1, 670269, Note_off_c, 0, 86, 61
1, 670325, Note_on_c, 0, 82, 70
1, 670335, Note_off_c, 0, 84, 64
1, 670339, Note_on_c, 0, 50, 85
1, 670343, Note_on_c, 0, 38, 71
1, 670369, Note_off_c, 0, 38, 65
1, 670370, Note_off_c, 0, 82, 64
1, 670374, Note_off_c, 0, 50, 60
1, 670379, Note_on_c, 0, 81, 68
1, 670393, Control_c, 0, 64, 47
1, 670408, Control_c, 0, 64, 66
1, 670408, Note_off_c, 0, 81, 61
1, 670423, Control_c, 0, 64, 72
1, 670437, Control_c, 0, 64, 75
1, 670451, Note_on_c, 0, 80, 69
1, 670452, Control_c, 0, 64, 77
1, 670458, Note_on_c, 0, 52, 71
1, 670472, Note_on_c, 0, 40, 51
1, 670472, Note_off_c, 0, 80, 62
1, 670478, Note_off_c, 0, 52, 66
1, 670485, Note_on_c, 0, 42, 31
1, 670486, Note_on_c, 0, 82, 63
1, 670503, Note_off_c, 0, 40, 53
1, 670512, Control_c, 0, 64, 77
1, 670524, Note_off_c, 0, 42, 43
1, 670526, Control_c, 0, 64, 78
1, 670551, Note_off_c, 0, 82, 63
1, 670559, Note_on_c, 0, 81, 62
1, 670579, Note_on_c, 0, 53, 57
1, 670592, Note_on_c, 0, 41, 39
1, 670600, Note_off_c, 0, 53, 61
1, 670602, Note_off_c, 0, 81, 58
1, 670604, Note_on_c, 0, 77, 64
1, 670630, Note_off_c, 0, 41, 53
1, 670647, Note_off_c, 0, 77, 60
1, 670660, Control_c, 0, 64, 77
1, 670669, Note_on_c, 0, 76, 71
1, 670685, Note_on_c, 0, 56, 83
1, 670688, Note_on_c, 0, 44, 47
1, 670689, Control_c, 0, 64, 76
1, 670704, Control_c, 0, 64, 75
1, 670709, Note_off_c, 0, 56, 69
1, 670716, Note_off_c, 0, 76, 66
1, 670718, Control_c, 0, 64, 73
1, 670721, Note_off_c, 0, 44, 64
1, 670732, Note_on_c, 0, 79, 65
1, 670733, Control_c, 0, 64, 70
1, 670748, Control_c, 0, 64, 67
1, 670763, Control_c, 0, 64, 63
1, 670778, Control_c, 0, 64, 54
1, 670785, Note_on_c, 0, 77, 68
1, 670792, Control_c, 0, 64, 30
1, 670801, Note_on_c, 0, 57, 76
1, 670802, Note_off_c, 0, 79, 60
1, 670807, Control_c, 0, 64, 0
1, 670810, Note_on_c, 0, 45, 68
1, 670824, Note_off_c, 0, 57, 66
1, 670842, Note_off_c, 0, 77, 62
1, 670843, Note_off_c, 0, 45, 64
1, 670854, Note_on_c, 0, 74, 53
1, 670885, Note_off_c, 0, 74, 57
1, 670917, Note_on_c, 0, 73, 58
1, 670931, Note_on_c, 0, 40, 73
1, 670935, Note_on_c, 0, 52, 63
1, 670941, Note_off_c, 0, 73, 66
1, 670955, Note_on_c, 0, 76, 65
1, 670956, Note_off_c, 0, 52, 63
1, 670959, Note_on_c, 0, 50, 25
1, 670960, Note_off_c, 0, 50, 127
1, 670960, Note_off_c, 0, 40, 66
1, 671004, Note_on_c, 0, 74, 61
1, 671031, Note_off_c, 0, 76, 62
1, 671049, Note_on_c, 0, 53, 84
1, 671055, Note_on_c, 0, 41, 72
1, 671062, Note_on_c, 0, 69, 69
1, 671070, Note_off_c, 0, 53, 72
1, 671072, Note_off_c, 0, 74, 64
1, 671083, Note_on_c, 0, 42, 30
1, 671084, Note_off_c, 0, 42, 127
1, 671084, Note_off_c, 0, 41, 67
1, 671086, Note_off_c, 0, 69, 71
1, 671176, Note_on_c, 0, 91, 81
1, 671231, Note_on_c, 0, 89, 76
1, 671256, Note_off_c, 0, 91, 58
1, 671296, Note_on_c, 0, 88, 68
1, 671310, Note_off_c, 0, 89, 64
1, 671312, Note_on_c, 0, 55, 89
1, 671314, Note_on_c, 0, 43, 79
1, 671332, Note_off_c, 0, 88, 63
1, 671335, Control_c, 0, 64, 42
1, 671338, Note_off_c, 0, 43, 65
1, 671338, Note_on_c, 0, 86, 63
1, 671338, Note_off_c, 0, 55, 66
1, 671349, Control_c, 0, 64, 69
1, 671364, Control_c, 0, 64, 79
1, 671366, Note_off_c, 0, 86, 64
1, 671379, Control_c, 0, 64, 91
1, 671394, Control_c, 0, 64, 95
1, 671409, Control_c, 0, 64, 96
1, 671418, Note_on_c, 0, 85, 72
1, 671432, Note_on_c, 0, 58, 82
1, 671438, Control_c, 0, 64, 97
1, 671439, Note_on_c, 0, 46, 76
1, 671454, Note_off_c, 0, 58, 70
1, 671466, Note_off_c, 0, 46, 64
1, 671467, Note_off_c, 0, 85, 60
1, 671475, Note_on_c, 0, 88, 75
1, 671534, Note_on_c, 0, 86, 72
1, 671549, Note_on_c, 0, 59, 79
1, 671552, Note_on_c, 0, 47, 66
1, 671556, Note_off_c, 0, 88, 59
1, 671556, Control_c, 0, 64, 96
1, 671571, Note_off_c, 0, 59, 70
1, 671571, Control_c, 0, 64, 95
1, 671580, Note_off_c, 0, 47, 66
1, 671586, Control_c, 0, 64, 91
1, 671591, Note_off_c, 0, 86, 65
1, 671597, Note_on_c, 0, 83, 64
1, 671601, Control_c, 0, 64, 84
1, 671615, Control_c, 0, 64, 76
1, 671630, Control_c, 0, 64, 66
1, 671636, Note_off_c, 0, 83, 50
1, 671645, Control_c, 0, 64, 45
1, 671660, Control_c, 0, 64, 0
1, 671667, Note_on_c, 0, 82, 66
1, 671674, Note_on_c, 0, 61, 80
1, 671678, Note_on_c, 0, 49, 66
1, 671695, Note_off_c, 0, 61, 69
1, 671703, Note_off_c, 0, 49, 65
1, 671704, Note_off_c, 0, 82, 63
1, 671716, Note_on_c, 0, 84, 68
1, 671777, Note_on_c, 0, 83, 61
1, 671794, Note_on_c, 0, 62, 77
1, 671800, Note_on_c, 0, 50, 69
1, 671806, Note_off_c, 0, 84, 55
1, 671819, Note_off_c, 0, 62, 67
1, 671827, Note_off_c, 0, 50, 65
1, 671834, Note_off_c, 0, 83, 61
1, 671842, Note_on_c, 0, 79, 63
1, 671888, Note_off_c, 0, 79, 53
1, 671909, Note_on_c, 0, 78, 68
1, 671915, Note_on_c, 0, 58, 75
1, 671922, Note_on_c, 0, 46, 67
1, 671930, Note_off_c, 0, 58, 69
1, 671939, Note_on_c, 0, 51, 34
1, 671949, Note_off_c, 0, 78, 59
1, 671951, Note_off_c, 0, 46, 64
1, 671963, Note_on_c, 0, 81, 65
1, 671973, Note_off_c, 0, 51, 55
1, 672016, Note_on_c, 0, 79, 66
1, 672032, Note_off_c, 0, 81, 60
1, 672040, Note_on_c, 0, 59, 74
1, 672047, Note_on_c, 0, 47, 66
1, 672055, Note_off_c, 0, 79, 60
1, 672065, Note_off_c, 0, 59, 67
1, 672076, Note_on_c, 0, 74, 59
1, 672080, Note_off_c, 0, 47, 64
1, 672105, Note_off_c, 0, 74, 68
1, 672157, Note_on_c, 0, 55, 78
1, 672160, Note_on_c, 0, 73, 72
1, 672165, Note_on_c, 0, 43, 75
1, 672181, Note_off_c, 0, 55, 70
1, 672201, Note_off_c, 0, 43, 64
1, 672220, Note_on_c, 0, 74, 69
1, 672245, Note_off_c, 0, 73, 59
1, 672304, Note_on_c, 0, 43, 87
1, 672309, Note_on_c, 0, 31, 78
1, 672314, Note_on_c, 0, 76, 77
1, 672314, Note_off_c, 0, 74, 57
1, 672333, Note_off_c, 0, 31, 61
1, 672336, Control_c, 0, 64, 35
1, 672339, Note_off_c, 0, 43, 63
1, 672344, Note_on_c, 0, 35, 14
1, 672345, Note_off_c, 0, 35, 127
1, 672351, Control_c, 0, 64, 69
1, 672364, Note_off_c, 0, 76, 62
1, 672366, Control_c, 0, 64, 79
1, 672380, Control_c, 0, 64, 91
1, 672390, Note_on_c, 0, 67, 70
1, 672395, Poly_aftertouch_c, 0, 35, 0
1, 672395, Control_c, 0, 64, 98
1, 672410, Control_c, 0, 64, 103
1, 672425, Control_c, 0, 64, 107
1, 672440, Control_c, 0, 64, 111
1, 672444, Note_off_c, 0, 67, 60
1, 672451, Note_on_c, 0, 74, 63
1, 672454, Control_c, 0, 64, 112
1, 672469, Control_c, 0, 64, 113
1, 672481, Note_on_c, 0, 55, 69
1, 672486, Note_on_c, 0, 65, 69
1, 672505, Note_on_c, 0, 59, 27
1, 672508, Note_off_c, 0, 55, 67
1, 672508, Note_off_c, 0, 65, 67
1, 672511, Note_off_c, 0, 74, 61
1, 672524, Note_on_c, 0, 67, 64
1, 672549, Note_off_c, 0, 59, 43
1, 672577, Note_off_c, 0, 67, 63
1, 672587, Note_on_c, 0, 73, 71
1, 672596, Note_on_c, 0, 55, 68
1, 672605, Note_on_c, 0, 65, 67
1, 672622, Note_off_c, 0, 73, 57
1, 672624, Note_off_c, 0, 65, 69
1, 672625, Note_off_c, 0, 55, 67
1, 672625, Control_c, 0, 64, 113
1, 672635, Note_on_c, 0, 58, 17
1, 672640, Control_c, 0, 64, 109
1, 672655, Control_c, 0, 64, 102
1, 672662, Note_on_c, 0, 67, 58
1, 672670, Control_c, 0, 64, 92
1, 672671, Note_off_c, 0, 58, 42
1, 672685, Control_c, 0, 64, 82
1, 672689, Note_off_c, 0, 67, 59
1, 672700, Control_c, 0, 64, 72
1, 672709, Note_on_c, 0, 74, 70
1, 672715, Control_c, 0, 64, 62
1, 672718, Note_on_c, 0, 65, 59
1, 672730, Control_c, 0, 64, 0
1, 672730, Note_on_c, 0, 55, 57
1, 672744, Note_off_c, 0, 65, 67
1, 672745, Note_on_c, 0, 59, 27
1, 672753, Note_off_c, 0, 55, 61
1, 672753, Note_off_c, 0, 74, 61
1, 672769, Note_on_c, 0, 67, 65
1, 672779, Note_off_c, 0, 59, 33
1, 672835, Note_on_c, 0, 55, 62
1, 672836, Note_off_c, 0, 67, 60
1, 672839, Note_on_c, 0, 73, 72
1, 672840, Note_on_c, 0, 65, 66
1, 672849, Note_on_c, 0, 58, 55
1, 672867, Note_off_c, 0, 65, 69
1, 672868, Note_off_c, 0, 55, 65
1, 672870, Note_off_c, 0, 58, 61
1, 672882, Note_off_c, 0, 73, 57
1, 672899, Note_on_c, 0, 67, 52
1, 672936, Note_on_c, 0, 74, 66
1, 672941, Note_off_c, 0, 67, 65
1, 672946, Note_on_c, 0, 65, 59
1, 672949, Note_on_c, 0, 55, 56
1, 672967, Note_off_c, 0, 65, 67
1, 672971, Note_on_c, 0, 59, 40
1, 672981, Note_off_c, 0, 74, 66
1, 672983, Note_off_c, 0, 55, 64
1, 673000, Note_off_c, 0, 59, 48
1, 673003, Note_on_c, 0, 67, 62
1, 673038, Note_off_c, 0, 67, 63
1, 673069, Note_on_c, 0, 60, 76
1, 673070, Note_on_c, 0, 55, 68
1, 673070, Note_on_c, 0, 64, 72
1, 673071, Note_on_c, 0, 81, 83
1, 673084, Control_c, 0, 64, 41
1, 673095, Note_off_c, 0, 64, 70
1, 673097, Note_off_c, 0, 60, 65
1, 673099, Control_c, 0, 64, 71
1, 673103, Note_off_c, 0, 81, 61
1, 673114, Control_c, 0, 64, 79
1, 673124, Note_off_c, 0, 55, 63
1, 673129, Control_c, 0, 64, 85
1, 673139, Note_on_c, 0, 67, 75
1, 673144, Control_c, 0, 64, 86
1, 673165, Note_off_c, 0, 67, 68
1, 673196, Note_on_c, 0, 79, 78
1, 673230, Note_off_c, 0, 79, 57
1, 673245, Note_on_c, 0, 67, 71
1, 673277, Control_c, 0, 64, 85
1, 673294, Note_off_c, 0, 67, 61
1, 673299, Control_c, 0, 64, 77
1, 673314, Control_c, 0, 64, 67
1, 673329, Note_on_c, 0, 76, 71
1, 673329, Control_c, 0, 64, 0
1, 673333, Note_on_c, 0, 31, 69
1, 673334, Note_on_c, 0, 43, 83
1, 673360, Note_on_c, 0, 33, 49
1, 673360, Note_off_c, 0, 31, 61
1, 673372, Note_off_c, 0, 43, 66
1, 673380, Note_off_c, 0, 76, 63
1, 673385, Note_on_c, 0, 67, 59
1, 673394, Note_off_c, 0, 33, 52
1, 673424, Note_off_c, 0, 67, 60
1, 673447, Note_on_c, 0, 74, 68
1, 673499, Note_off_c, 0, 74, 55
1, 673517, Note_on_c, 0, 67, 60
1, 673544, Note_on_c, 0, 55, 52
1, 673544, Note_on_c, 0, 65, 60
1, 673550, Note_off_c, 0, 67, 62
1, 673564, Note_off_c, 0, 65, 66
1, 673569, Note_on_c, 0, 58, 27
1, 673569, Note_off_c, 0, 55, 57
1, 673570, Note_on_c, 0, 73, 69
1, 673603, Note_off_c, 0, 58, 40
1, 673614, Note_off_c, 0, 73, 61
1, 673621, Note_on_c, 0, 67, 64
1, 673658, Note_on_c, 0, 55, 52
1, 673659, Note_on_c, 0, 65, 57
1, 673661, Note_off_c, 0, 67, 58
1, 673667, Note_on_c, 0, 59, 55
1, 673674, Note_on_c, 0, 74, 73
1, 673687, Note_off_c, 0, 55, 56
1, 673688, Note_off_c, 0, 59, 60
1, 673689, Note_off_c, 0, 65, 67
1, 673731, Note_off_c, 0, 74, 63
1, 673742, Note_on_c, 0, 67, 63
1, 673776, Note_off_c, 0, 67, 62
1, 673778, Note_on_c, 0, 55, 53
1, 673779, Note_on_c, 0, 65, 63
1, 673802, Note_on_c, 0, 73, 72
1, 673806, Note_off_c, 0, 55, 58
1, 673807, Note_off_c, 0, 65, 68
1, 673851, Note_off_c, 0, 73, 63
1, 673854, Note_on_c, 0, 67, 69
1, 673880, Note_on_c, 0, 65, 64
1, 673889, Note_on_c, 0, 55, 58
1, 673897, Note_on_c, 0, 74, 66
1, 673897, Note_off_c, 0, 67, 63
1, 673903, Note_on_c, 0, 59, 50
1, 673908, Note_off_c, 0, 65, 68
1, 673920, Note_off_c, 0, 55, 54
1, 673926, Note_off_c, 0, 59, 57
1, 673939, Note_off_c, 0, 74, 62
1, 673958, Note_on_c, 0, 67, 60
1, 673991, Note_off_c, 0, 67, 65
1, 674016, Note_on_c, 0, 55, 64
1, 674020, Note_on_c, 0, 64, 74
1, 674023, Note_on_c, 0, 81, 79
1, 674029, Note_on_c, 0, 60, 60
1, 674048, Control_c, 0, 64, 62
1, 674052, Note_off_c, 0, 81, 69
1, 674063, Control_c, 0, 64, 71
1, 674078, Control_c, 0, 64, 75
1, 674088, Note_on_c, 0, 67, 69
1, 674092, Control_c, 0, 64, 76
1, 674103, Note_off_c, 0, 55, 62
1, 674111, Note_off_c, 0, 60, 61
1, 674114, Note_off_c, 0, 64, 60
1, 674119, Note_off_c, 0, 67, 63
1, 674146, Note_on_c, 0, 79, 63
1, 674175, Note_on_c, 0, 67, 52
1, 674178, Note_off_c, 0, 79, 62
1, 674208, Note_off_c, 0, 67, 63
1, 674211, Control_c, 0, 64, 75
1, 674226, Control_c, 0, 64, 68
1, 674241, Control_c, 0, 64, 0
1, 674261, Note_on_c, 0, 79, 63
1, 674262, Note_on_c, 0, 56, 69
1, 674296, Note_on_c, 0, 74, 57
1, 674298, Note_off_c, 0, 56, 62
1, 674300, Note_off_c, 0, 79, 62
1, 674324, Note_on_c, 0, 65, 69
1, 674324, Note_off_c, 0, 74, 69
1, 674330, Control_c, 0, 64, 64
1, 674333, Note_on_c, 0, 71, 60
1, 674345, Control_c, 0, 64, 70
1, 674360, Control_c, 0, 64, 71
1, 674364, Note_off_c, 0, 65, 65
1, 674366, Note_off_c, 0, 71, 62
1, 674374, Control_c, 0, 64, 72
1, 674384, Note_on_c, 0, 77, 59
1, 674390, Note_on_c, 0, 74, 45
1, 674392, Note_on_c, 0, 62, 61
1, 674426, Note_off_c, 0, 77, 56
1, 674430, Note_off_c, 0, 62, 60
1, 674435, Note_off_c, 0, 74, 61
1, 674438, Note_on_c, 0, 71, 57
1, 674444, Note_on_c, 0, 65, 65
1, 674462, Note_off_c, 0, 71, 60
1, 674463, Control_c, 0, 64, 71
1, 674468, Note_off_c, 0, 65, 70
1, 674478, Control_c, 0, 64, 64
1, 674493, Control_c, 0, 64, 0
1, 674512, Note_on_c, 0, 57, 64
1, 674516, Note_on_c, 0, 77, 76
1, 674536, Note_on_c, 0, 72, 60
1, 674543, Note_off_c, 0, 57, 62
1, 674554, Note_off_c, 0, 77, 57
1, 674566, Control_c, 0, 64, 62
1, 674569, Note_on_c, 0, 64, 65
1, 674581, Note_on_c, 0, 69, 63
1, 674581, Control_c, 0, 64, 71
1, 674582, Note_off_c, 0, 72, 62
1, 674596, Control_c, 0, 64, 77
1, 674602, Note_off_c, 0, 64, 63
1, 674611, Control_c, 0, 64, 79
1, 674623, Note_off_c, 0, 69, 62
1, 674625, Note_on_c, 0, 60, 70
1, 674632, Note_on_c, 0, 72, 43
1, 674634, Note_on_c, 0, 76, 64
1, 674653, Note_off_c, 0, 60, 66
1, 674681, Note_on_c, 0, 64, 62
1, 674685, Note_on_c, 0, 69, 57
1, 674688, Note_off_c, 0, 72, 65
1, 674690, Note_off_c, 0, 76, 64
1, 674700, Note_off_c, 0, 64, 60
1, 674715, Control_c, 0, 64, 75
1, 674721, Note_off_c, 0, 69, 67
1, 674730, Control_c, 0, 64, 62
1, 674745, Control_c, 0, 64, 0
1, 674764, Note_on_c, 0, 77, 80
1, 674797, Note_on_c, 0, 72, 53
1, 674803, Note_on_c, 0, 47, 46
1, 674811, Control_c, 0, 64, 62
1, 674826, Control_c, 0, 64, 75
1, 674829, Note_off_c, 0, 72, 60
1, 674831, Note_off_c, 0, 77, 58
1, 674837, Note_on_c, 0, 60, 73
1, 674837, Note_off_c, 0, 47, 32
1, 674840, Control_c, 0, 64, 82
1, 674841, Note_on_c, 0, 67, 70
1, 674855, Control_c, 0, 64, 85
1, 674873, Note_off_c, 0, 60, 56
1, 674882, Note_off_c, 0, 67, 55
1, 674900, Control_c, 0, 64, 86
1, 674903, Note_on_c, 0, 58, 70
1, 674915, Note_on_c, 0, 72, 61
1, 674918, Note_on_c, 0, 76, 52
1, 674942, Note_off_c, 0, 58, 64
1, 674945, Note_off_c, 0, 76, 56
1, 674952, Note_on_c, 0, 60, 79
1, 674954, Note_off_c, 0, 72, 59
1, 674957, Note_on_c, 0, 67, 66
1, 674960, Control_c, 0, 64, 86
1, 674983, Note_off_c, 0, 67, 68
1, 674985, Note_off_c, 0, 60, 66
1, 674990, Control_c, 0, 64, 83
1, 675005, Control_c, 0, 64, 72
1, 675020, Control_c, 0, 64, 0
1, 675037, Note_on_c, 0, 79, 80
1, 675038, Note_on_c, 0, 45, 76
1, 675055, Note_on_c, 0, 72, 69
1, 675061, Note_off_c, 0, 45, 68
1, 675079, Control_c, 0, 64, 62
1, 675081, Note_off_c, 0, 79, 59
1, 675094, Control_c, 0, 64, 74
1, 675104, Note_off_c, 0, 72, 64
1, 675106, Note_on_c, 0, 60, 71
1, 675109, Control_c, 0, 64, 83
1, 675110, Note_on_c, 0, 69, 66
1, 675124, Control_c, 0, 64, 86
1, 675152, Note_off_c, 0, 60, 53
1, 675160, Note_off_c, 0, 69, 55
1, 675165, Note_on_c, 0, 57, 74
1, 675167, Note_on_c, 0, 77, 71
1, 675178, Note_on_c, 0, 72, 55
1, 675192, Note_off_c, 0, 57, 67
1, 675205, Note_on_c, 0, 60, 66
1, 675213, Note_off_c, 0, 77, 57
1, 675219, Note_off_c, 0, 72, 65
1, 675230, Note_on_c, 0, 69, 45
1, 675233, Note_off_c, 0, 60, 64
1, 675243, Control_c, 0, 64, 84
1, 675250, Note_off_c, 0, 69, 60
1, 675258, Control_c, 0, 64, 76
1, 675272, Control_c, 0, 64, 60
1, 675287, Control_c, 0, 64, 0
1, 675300, Note_on_c, 0, 79, 78
1, 675306, Note_on_c, 0, 46, 54
1, 675320, Note_on_c, 0, 75, 64
1, 675331, Control_c, 0, 64, 46
1, 675335, Note_off_c, 0, 46, 35
1, 675338, Note_off_c, 0, 79, 54
1, 675346, Control_c, 0, 64, 70
1, 675361, Control_c, 0, 64, 77
1, 675362, Note_off_c, 0, 75, 64
1, 675367, Note_on_c, 0, 72, 61
1, 675369, Note_on_c, 0, 60, 71
1, 675376, Control_c, 0, 64, 81
1, 675390, Control_c, 0, 64, 82
1, 675400, Note_off_c, 0, 60, 61
1, 675410, Note_off_c, 0, 72, 62
1, 675419, Note_on_c, 0, 75, 57
1, 675419, Note_on_c, 0, 56, 79
1, 675419, Note_on_c, 0, 78, 74
1, 675472, Note_off_c, 0, 56, 62
1, 675477, Note_on_c, 0, 60, 79
1, 675480, Note_on_c, 0, 72, 72
1, 675480, Note_off_c, 0, 78, 53
1, 675490, Note_off_c, 0, 75, 65
1, 675494, Control_c, 0, 64, 81
1, 675500, Note_off_c, 0, 60, 69
1, 675508, Control_c, 0, 64, 75
1, 675512, Note_off_c, 0, 72, 61
1, 675523, Control_c, 0, 64, 61
1, 675546, Control_c, 0, 64, 0
1, 675563, Note_on_c, 0, 81, 83
1, 675572, Note_on_c, 0, 43, 74
1, 675577, Note_on_c, 0, 75, 69
1, 675590, Control_c, 0, 64, 48
1, 675594, Note_off_c, 0, 43, 58
1, 675605, Control_c, 0, 64, 71
1, 675614, Note_off_c, 0, 81, 59
1, 675620, Control_c, 0, 64, 80
1, 675625, Note_off_c, 0, 75, 64
1, 675629, Note_on_c, 0, 72, 69
1, 675635, Control_c, 0, 64, 87
1, 675650, Control_c, 0, 64, 89
1, 675654, Note_on_c, 0, 60, 50
1, 675664, Note_on_c, 0, 62, 53
1, 675687, Note_on_c, 0, 79, 74
1, 675688, Note_off_c, 0, 62, 58
1, 675690, Note_off_c, 0, 60, 62
1, 675690, Note_off_c, 0, 72, 63
1, 675693, Note_on_c, 0, 75, 59
1, 675694, Control_c, 0, 64, 89
1, 675695, Note_on_c, 0, 55, 74
1, 675727, Note_off_c, 0, 55, 65
1, 675744, Note_on_c, 0, 72, 63
1, 675747, Note_off_c, 0, 75, 63
1, 675753, Control_c, 0, 64, 89
1, 675756, Note_off_c, 0, 79, 50
1, 675762, Note_on_c, 0, 60, 46
1, 675769, Control_c, 0, 64, 84
1, 675782, Note_off_c, 0, 72, 62
1, 675784, Control_c, 0, 64, 69
1, 675785, Note_off_c, 0, 60, 58
1, 675799, Control_c, 0, 64, 0
1, 675827, Note_on_c, 0, 83, 80
1, 675836, Note_on_c, 0, 42, 75
1, 675858, Control_c, 0, 64, 65
1, 675859, Note_on_c, 0, 75, 64
1, 675865, Note_off_c, 0, 42, 66
1, 675873, Control_c, 0, 64, 76
1, 675883, Note_off_c, 0, 83, 50
1, 675887, Control_c, 0, 64, 83
1, 675891, Note_off_c, 0, 75, 66
1, 675902, Note_on_c, 0, 57, 75
1, 675902, Control_c, 0, 64, 85
1, 675903, Note_on_c, 0, 72, 61
1, 675936, Note_off_c, 0, 57, 60
1, 675947, Note_off_c, 0, 72, 54
1, 675955, Note_on_c, 0, 54, 77
1, 675961, Note_on_c, 0, 81, 69
1, 675973, Note_on_c, 0, 75, 54
1, 675995, Poly_aftertouch_c, 0, 74, 0
1, 676002, Note_on_c, 0, 72, 65
1, 676004, Note_off_c, 0, 75, 67
1, 676007, Note_off_c, 0, 54, 57
1, 676010, Note_on_c, 0, 57, 78
1, 676021, Control_c, 0, 64, 83
1, 676022, Note_off_c, 0, 81, 55
1, 676036, Control_c, 0, 64, 75
1, 676041, Note_off_c, 0, 57, 63
1, 676041, Note_off_c, 0, 72, 64
1, 676050, Control_c, 0, 64, 58
1, 676065, Control_c, 0, 64, 0
1, 676092, Note_on_c, 0, 84, 87
1, 676098, Note_on_c, 0, 41, 68
1, 676110, Control_c, 0, 64, 52
1, 676111, Note_on_c, 0, 79, 73
1, 676123, Note_off_c, 0, 41, 61
1, 676125, Control_c, 0, 64, 69
1, 676139, Control_c, 0, 64, 74
1, 676143, Note_off_c, 0, 84, 62
1, 676154, Control_c, 0, 64, 77
1, 676160, Note_off_c, 0, 79, 59
1, 676163, Note_on_c, 0, 57, 68
1, 676164, Note_on_c, 0, 55, 49
1, 676168, Note_on_c, 0, 74, 66
1, 676193, Note_off_c, 0, 57, 59
1, 676196, Note_off_c, 0, 55, 56
1, 676211, Note_off_c, 0, 74, 61
1, 676215, Note_on_c, 0, 53, 80
1, 676221, Note_on_c, 0, 79, 58
1, 676226, Note_on_c, 0, 83, 59
1, 676260, Note_off_c, 0, 53, 63
1, 676269, Note_off_c, 0, 83, 57
1, 676272, Note_on_c, 0, 55, 76
1, 676275, Note_on_c, 0, 74, 58
1, 676295, Control_c, 0, 64, 74
1, 676295, Note_off_c, 0, 79, 60
1, 676304, Note_off_c, 0, 55, 69
1, 676310, Control_c, 0, 64, 65
1, 676317, Note_off_c, 0, 74, 64
1, 676325, Control_c, 0, 64, 0
1, 676352, Note_on_c, 0, 40, 78
1, 676352, Note_on_c, 0, 86, 75
1, 676365, Note_on_c, 0, 79, 63
1, 676375, Note_off_c, 0, 40, 67
1, 676384, Note_off_c, 0, 86, 61
1, 676384, Control_c, 0, 64, 37
1, 676399, Control_c, 0, 64, 66
1, 676413, Control_c, 0, 64, 69
1, 676419, Note_on_c, 0, 55, 77
1, 676431, Note_on_c, 0, 72, 67
1, 676460, Note_off_c, 0, 72, 67
1, 676462, Note_off_c, 0, 55, 66
1, 676474, Note_on_c, 0, 52, 79
1, 676486, Note_on_c, 0, 84, 73
1, 676520, Note_off_c, 0, 84, 57
1, 676527, Note_off_c, 0, 52, 65
1, 676534, Note_on_c, 0, 55, 70
1, 676545, Note_off_c, 0, 79, 58
1, 676546, Note_on_c, 0, 72, 61
1, 676562, Control_c, 0, 64, 68
1, 676566, Note_off_c, 0, 55, 64
1, 676571, Note_off_c, 0, 72, 66
1, 676577, Control_c, 0, 64, 62
1, 676592, Control_c, 0, 64, 0
1, 676613, Note_on_c, 0, 83, 78
1, 676616, Note_on_c, 0, 41, 79
1, 676634, Note_on_c, 0, 77, 70
1, 676639, Note_off_c, 0, 41, 66
1, 676644, Note_on_c, 0, 43, 30
1, 676666, Control_c, 0, 64, 59
1, 676668, Note_off_c, 0, 77, 59
1, 676668, Note_off_c, 0, 83, 56
1, 676677, Note_on_c, 0, 72, 63
1, 676678, Note_on_c, 0, 57, 76
1, 676681, Control_c, 0, 64, 67
1, 676685, Note_off_c, 0, 43, 44
1, 676696, Control_c, 0, 64, 68
1, 676720, Note_off_c, 0, 57, 59
1, 676720, Note_off_c, 0, 72, 64
1, 676731, Note_on_c, 0, 81, 64
1, 676735, Note_on_c, 0, 77, 50
1, 676737, Note_on_c, 0, 53, 78
1, 676767, Note_off_c, 0, 81, 56
1, 676784, Note_off_c, 0, 53, 66
1, 676787, Note_on_c, 0, 72, 59
1, 676793, Note_on_c, 0, 57, 69
1, 676793, Note_off_c, 0, 77, 57
1, 676799, Control_c, 0, 64, 69
1, 676819, Note_off_c, 0, 57, 66
1, 676823, Note_off_c, 0, 72, 63
1, 676828, Control_c, 0, 64, 67
1, 676843, Control_c, 0, 64, 58
1, 676858, Control_c, 0, 64, 0
1, 676859, Note_on_c, 0, 81, 77
1, 676860, Note_on_c, 0, 43, 79
1, 676881, Note_on_c, 0, 76, 57
1, 676894, Note_off_c, 0, 43, 65
1, 676900, Note_off_c, 0, 81, 58
1, 676916, Note_off_c, 0, 76, 62
1, 676918, Note_on_c, 0, 55, 78
1, 676927, Note_on_c, 0, 72, 62
1, 676933, Control_c, 0, 64, 55
1, 676948, Control_c, 0, 64, 65
1, 676959, Note_off_c, 0, 55, 66
1, 676962, Control_c, 0, 64, 66
1, 676966, Note_off_c, 0, 72, 62
1, 676977, Control_c, 0, 64, 66
1, 676978, Note_on_c, 0, 79, 65
1, 676979, Note_on_c, 0, 52, 81
1, 676989, Note_on_c, 0, 76, 47
1, 676992, Control_c, 0, 64, 64
1, 677007, Control_c, 0, 64, 54
1, 677022, Control_c, 0, 64, 0
1, 677023, Note_off_c, 0, 52, 65
1, 677024, Note_off_c, 0, 79, 61
1, 677040, Note_on_c, 0, 72, 54
1, 677041, Note_off_c, 0, 76, 62
1, 677043, Note_on_c, 0, 55, 66
1, 677058, Control_c, 0, 64, 41
1, 677061, Note_off_c, 0, 72, 64
1, 677071, Note_off_c, 0, 55, 66
1, 677073, Control_c, 0, 64, 56
1, 677088, Control_c, 0, 64, 60
1, 677103, Control_c, 0, 64, 63
1, 677114, Note_on_c, 0, 43, 71
1, 677114, Note_on_c, 0, 79, 69
1, 677118, Control_c, 0, 64, 64
1, 677127, Note_on_c, 0, 74, 71
1, 677133, Control_c, 0, 64, 64
1, 677138, Note_off_c, 0, 79, 55
1, 677142, Note_off_c, 0, 43, 61
1, 677145, Note_on_c, 0, 55, 83
1, 677147, Control_c, 0, 64, 63
1, 677162, Control_c, 0, 64, 59
1, 677167, Note_on_c, 0, 71, 74
1, 677172, Note_off_c, 0, 55, 69
1, 677177, Control_c, 0, 64, 46
1, 677185, Note_off_c, 0, 74, 65
1, 677192, Control_c, 0, 64, 0
1, 677197, Note_off_c, 0, 71, 62
1, 677262, Note_on_c, 0, 84, 82
1, 677270, Note_on_c, 0, 48, 86
1, 677273, Note_on_c, 0, 36, 75
1, 677281, Note_on_c, 0, 76, 75
1, 677294, Note_on_c, 0, 50, 53
1, 677295, Note_off_c, 0, 50, 127
1, 677299, Note_off_c, 0, 48, 65
1, 677302, Note_off_c, 0, 36, 65
1, 677311, Note_off_c, 0, 84, 61
1, 677313, Note_on_c, 0, 41, 11
1, 677314, Note_off_c, 0, 41, 127
1, 677333, Note_off_c, 0, 76, 65
1, 677335, Note_on_c, 0, 72, 56
1, 677356, Note_off_c, 0, 72, 65
1, 677362, Poly_aftertouch_c, 0, 41, 0
1, 677407, Note_on_c, 0, 83, 71
1, 677412, Note_on_c, 0, 52, 91
1, 677417, Note_on_c, 0, 40, 77
1, 677418, Note_on_c, 0, 74, 72
1, 677436, Note_off_c, 0, 83, 58
1, 677451, Note_off_c, 0, 40, 64
1, 677453, Note_off_c, 0, 52, 63
1, 677468, Note_off_c, 0, 74, 63
1, 677534, Note_on_c, 0, 81, 75
1, 677545, Note_on_c, 0, 53, 87
1, 677545, Note_on_c, 0, 72, 65
1, 677552, Note_on_c, 0, 41, 78
1, 677572, Note_off_c, 0, 81, 62
1, 677580, Note_off_c, 0, 53, 67
1, 677586, Note_off_c, 0, 41, 68
1, 677593, Note_off_c, 0, 72, 65
1, 677610, Note_on_c, 0, 69, 45
1, 677635, Note_off_c, 0, 69, 55
1, 677664, Note_on_c, 0, 79, 69
1, 677677, Note_on_c, 0, 55, 83
1, 677683, Note_on_c, 0, 43, 75
1, 677684, Note_on_c, 0, 71, 51
1, 677694, Note_off_c, 0, 79, 61
1, 677705, Note_off_c, 0, 55, 66
1, 677707, Note_off_c, 0, 43, 64
1, 677717, Note_off_c, 0, 71, 63
1, 677733, Note_on_c, 0, 67, 40
1, 677761, Note_off_c, 0, 67, 50
1, 677785, Note_on_c, 0, 74, 72
1, 677797, Note_on_c, 0, 77, 63
1, 677805, Note_on_c, 0, 56, 82
1, 677807, Note_on_c, 0, 44, 72
1, 677827, Note_off_c, 0, 77, 66
1, 677831, Note_off_c, 0, 74, 61
1, 677836, Note_off_c, 0, 56, 65
1, 677847, Note_off_c, 0, 44, 67
1, 677877, Note_on_c, 0, 65, 50
1, 677900, Note_off_c, 0, 65, 58
1, 677921, Note_on_c, 0, 76, 65
1, 677928, Note_on_c, 0, 57, 78
1, 677934, Note_on_c, 0, 45, 72
1, 677950, Note_on_c, 0, 72, 38
1, 677961, Note_off_c, 0, 57, 59
1, 677964, Note_off_c, 0, 45, 64
1, 677966, Note_off_c, 0, 76, 65
1, 677977, Note_off_c, 0, 72, 47
1, 678058, Note_on_c, 0, 65, 62
1, 678061, Note_on_c, 0, 59, 83
1, 678062, Note_on_c, 0, 47, 77
1, 678067, Note_on_c, 0, 74, 52
1, 678081, Note_on_c, 0, 72, 25
1, 678089, Note_off_c, 0, 74, 64
1, 678092, Note_off_c, 0, 59, 64
1, 678094, Note_off_c, 0, 47, 64
1, 678100, Note_off_c, 0, 65, 64
1, 678118, Note_off_c, 0, 72, 42
1, 678137, Note_on_c, 0, 62, 30
1, 678170, Note_on_c, 0, 72, 65
1, 678174, Note_off_c, 0, 62, 32
1, 678186, Note_on_c, 0, 64, 53
1, 678188, Note_on_c, 0, 48, 74
1, 678194, Note_on_c, 0, 60, 79
1, 678209, Note_off_c, 0, 48, 68
1, 678210, Note_off_c, 0, 72, 56
1, 678224, Note_off_c, 0, 64, 64
1, 678238, Note_off_c, 0, 60, 61
1, 678307, Note_on_c, 0, 76, 74
1, 678327, Note_on_c, 0, 62, 87
1, 678357, Note_off_c, 0, 76, 61
1, 678370, Note_on_c, 0, 68, 74
1, 678391, Note_on_c, 0, 53, 3
1, 678392, Note_off_c, 0, 53, 127
1, 678431, Note_off_c, 0, 68, 59
1, 678435, Note_on_c, 0, 69, 67
1, 678445, Note_off_c, 0, 62, 56
1, 678450, Note_on_c, 0, 60, 65
1, 678458, Note_on_c, 0, 57, 51
1, 678477, Note_off_c, 0, 69, 67
1, 678478, Note_off_c, 0, 60, 67
1, 678489, Note_on_c, 0, 64, 53
1, 678489, Note_off_c, 0, 57, 64
1, 678533, Note_off_c, 0, 64, 65
1, 678576, Note_on_c, 0, 76, 69
1, 678589, Note_on_c, 0, 62, 82
1, 678605, Note_on_c, 0, 52, 59
1, 678622, Note_off_c, 0, 76, 61
1, 678626, Note_off_c, 0, 52, 61
1, 678644, Note_on_c, 0, 68, 67
1, 678662, Note_off_c, 0, 62, 50
1, 678689, Note_off_c, 0, 68, 59
1, 678704, Note_on_c, 0, 69, 67
1, 678715, Note_on_c, 0, 60, 67
1, 678734, Note_on_c, 0, 57, 36
1, 678742, Note_off_c, 0, 60, 66
1, 678753, Note_off_c, 0, 69, 65
1, 678761, Note_off_c, 0, 57, 50
1, 678773, Note_on_c, 0, 64, 49
1, 678806, Note_off_c, 0, 64, 65
1, 678844, Note_on_c, 0, 76, 70
1, 678853, Note_on_c, 0, 62, 82
1, 678861, Note_on_c, 0, 52, 61
1, 678882, Note_off_c, 0, 76, 51
1, 678884, Note_off_c, 0, 52, 66
1, 678914, Note_on_c, 0, 68, 65
1, 678927, Note_off_c, 0, 62, 52
1, 678951, Note_off_c, 0, 68, 60
1, 678968, Note_on_c, 0, 69, 67
1, 678975, Note_on_c, 0, 60, 67
1, 678983, Note_on_c, 0, 57, 47
1, 679002, Note_off_c, 0, 60, 66
1, 679006, Note_off_c, 0, 57, 60
1, 679015, Note_off_c, 0, 69, 66
1, 679043, Note_on_c, 0, 64, 46
1, 679066, Note_off_c, 0, 64, 60
1, 679098, Note_on_c, 0, 62, 84
1, 679099, Note_on_c, 0, 76, 75
1, 679102, Note_on_c, 0, 52, 70
1, 679133, Note_off_c, 0, 52, 68
1, 679148, Note_off_c, 0, 76, 57
1, 679167, Note_on_c, 0, 68, 65
1, 679210, Note_off_c, 0, 68, 58
1, 679211, Note_off_c, 0, 62, 50
1, 679216, Note_on_c, 0, 69, 67
1, 679220, Note_on_c, 0, 60, 67
1, 679226, Note_on_c, 0, 57, 53
1, 679247, Note_off_c, 0, 60, 65
1, 679249, Note_off_c, 0, 57, 62
1, 679258, Note_off_c, 0, 69, 67
1, 679267, Note_on_c, 0, 64, 48
1, 679296, Note_off_c, 0, 64, 57
1, 679356, Note_on_c, 0, 81, 88
1, 679365, Note_on_c, 0, 67, 87
1, 679365, Note_on_c, 0, 57, 66
1, 679398, Note_off_c, 0, 57, 65
1, 679416, Note_off_c, 0, 81, 61
1, 679439, Note_on_c, 0, 73, 65
1, 679457, Note_off_c, 0, 73, 62
1, 679490, Note_on_c, 0, 74, 62
1, 679492, Note_off_c, 0, 67, 60
1, 679502, Note_on_c, 0, 65, 59
1, 679511, Note_on_c, 0, 62, 51
1, 679532, Note_off_c, 0, 65, 67
1, 679538, Note_off_c, 0, 62, 61
1, 679540, Note_off_c, 0, 74, 64
1, 679561, Note_on_c, 0, 69, 48
1, 679588, Note_off_c, 0, 69, 65
1, 679620, Note_on_c, 0, 81, 80
1, 679630, Note_on_c, 0, 67, 85
1, 679645, Note_on_c, 0, 57, 57
1, 679656, Note_off_c, 0, 81, 50
1, 679670, Note_off_c, 0, 57, 63
1, 679687, Note_on_c, 0, 73, 73
1, 679746, Note_off_c, 0, 73, 62
1, 679751, Note_on_c, 0, 74, 68
1, 679757, Note_off_c, 0, 67, 60
1, 679762, Note_on_c, 0, 65, 66
1, 679776, Note_on_c, 0, 62, 48
1, 679792, Note_off_c, 0, 65, 67
1, 679800, Note_off_c, 0, 62, 59
1, 679811, Note_off_c, 0, 74, 63
1, 679827, Note_on_c, 0, 69, 56
1, 679858, Note_off_c, 0, 69, 67
1, 679880, Note_on_c, 0, 81, 78
1, 679891, Note_on_c, 0, 67, 81
1, 679898, Note_on_c, 0, 57, 70
1, 679914, Note_off_c, 0, 81, 54
1, 679926, Note_off_c, 0, 57, 65
1, 679955, Note_on_c, 0, 73, 58
1, 679981, Note_off_c, 0, 73, 37
1, 680004, Note_off_c, 0, 67, 48
1, 680019, Note_on_c, 0, 65, 64
1, 680021, Note_on_c, 0, 62, 56
1, 680021, Note_on_c, 0, 74, 53
1, 680057, Note_off_c, 0, 65, 68
1, 680062, Note_off_c, 0, 62, 63
1, 680062, Note_off_c, 0, 74, 66
1, 680088, Note_on_c, 0, 69, 42
1, 680110, Note_off_c, 0, 69, 59
1, 680134, Note_on_c, 0, 81, 79
1, 680143, Note_on_c, 0, 67, 80
1, 680149, Note_on_c, 0, 57, 65
1, 680175, Note_off_c, 0, 57, 64
1, 680178, Note_off_c, 0, 81, 58
1, 680212, Note_on_c, 0, 73, 66
1, 680247, Note_off_c, 0, 73, 58
1, 680256, Note_off_c, 0, 67, 61
1, 680257, Note_on_c, 0, 74, 63
1, 680263, Note_on_c, 0, 62, 66
1, 680265, Note_on_c, 0, 65, 65
1, 680293, Note_off_c, 0, 65, 67
1, 680296, Note_off_c, 0, 62, 64
1, 680314, Note_on_c, 0, 69, 65
1, 680319, Note_off_c, 0, 74, 63
1, 680343, Note_off_c, 0, 69, 70
1, 680420, Note_on_c, 0, 71, 80
1, 680423, Note_on_c, 0, 74, 72
1, 680427, Note_on_c, 0, 43, 66
1, 680438, Note_on_c, 0, 45, 50
1, 680438, Control_c, 0, 64, 56
1, 680446, Note_on_c, 0, 31, 41
1, 680447, Note_off_c, 0, 31, 127
1, 680447, Note_off_c, 0, 74, 70
1, 680447, Note_on_c, 0, 34, 36
1, 680448, Note_off_c, 0, 34, 127
1, 680452, Note_off_c, 0, 43, 59
1, 680452, Control_c, 0, 64, 73
1, 680456, Note_off_c, 0, 71, 58
1, 680467, Control_c, 0, 64, 88
1, 680469, Note_off_c, 0, 45, 36
1, 680480, Note_on_c, 0, 83, 79
1, 680482, Control_c, 0, 64, 102
1, 680486, Poly_aftertouch_c, 0, 31, 0
1, 680497, Control_c, 0, 64, 108
1, 680511, Control_c, 0, 64, 109
1, 680519, Note_off_c, 0, 83, 58
1, 680526, Control_c, 0, 64, 110
1, 680541, Control_c, 0, 64, 113
1, 680557, Control_c, 0, 64, 119
1, 680567, Note_on_c, 0, 76, 62
1, 680568, Note_on_c, 0, 48, 95
1, 680569, Note_on_c, 0, 72, 71
1, 680572, Control_c, 0, 64, 125
1, 680578, Note_on_c, 0, 36, 78
1, 680585, Note_off_c, 0, 76, 66
1, 680587, Control_c, 0, 64, 127
1, 680590, Note_off_c, 0, 48, 70
1, 680597, Note_off_c, 0, 72, 67
1, 680618, Note_off_c, 0, 36, 64
1, 680626, Note_on_c, 0, 84, 75
1, 680644, Note_off_c, 0, 84, 68
1, 680660, Poly_aftertouch_c, 0, 74, 0
1, 680702, Note_on_c, 0, 74, 57
1, 680710, Note_on_c, 0, 31, 73
1, 680710, Note_on_c, 0, 43, 77
1, 680727, Note_off_c, 0, 74, 69
1, 680733, Note_off_c, 0, 31, 62
1, 680736, Note_off_c, 0, 43, 64
1, 680749, Note_on_c, 0, 71, 3
1, 680750, Note_off_c, 0, 71, 127
1, 680757, Note_on_c, 0, 83, 72
1, 680807, Note_off_c, 0, 83, 56
1, 680848, Note_on_c, 0, 72, 69
1, 680851, Note_on_c, 0, 76, 61
1, 680853, Note_on_c, 0, 48, 86
1, 680859, Note_on_c, 0, 36, 76
1, 680868, Note_off_c, 0, 76, 66
1, 680873, Note_off_c, 0, 72, 71
1, 680877, Note_off_c, 0, 48, 65
1, 680900, Note_off_c, 0, 36, 64
1, 680906, Note_on_c, 0, 84, 69
1, 680920, Note_off_c, 0, 84, 69
1, 680984, Note_on_c, 0, 74, 53
1, 680987, Note_on_c, 0, 31, 78
1, 680987, Note_on_c, 0, 43, 79
1, 680988, Note_on_c, 0, 71, 61
1, 681003, Note_off_c, 0, 74, 64
1, 681008, Note_off_c, 0, 71, 65
1, 681010, Note_off_c, 0, 31, 69
1, 681011, Note_off_c, 0, 43, 68
1, 681042, Note_on_c, 0, 83, 70
1, 681066, Note_off_c, 0, 83, 65
1, 681119, Note_on_c, 0, 48, 81
1, 681119, Note_on_c, 0, 76, 63
1, 681124, Note_on_c, 0, 72, 65
1, 681125, Note_on_c, 0, 36, 74
1, 681138, Note_off_c, 0, 76, 67
1, 681142, Note_off_c, 0, 48, 70
1, 681142, Note_off_c, 0, 72, 67
1, 681160, Note_off_c, 0, 36, 63
1, 681172, Note_on_c, 0, 84, 74
1, 681195, Note_off_c, 0, 84, 67
1, 681249, Note_on_c, 0, 43, 82
1, 681252, Note_on_c, 0, 74, 63
1, 681253, Note_on_c, 0, 31, 68
1, 681255, Note_on_c, 0, 71, 62
1, 681270, Note_off_c, 0, 74, 68
1, 681272, Note_off_c, 0, 71, 65
1, 681273, Note_off_c, 0, 43, 67
1, 681279, Note_off_c, 0, 31, 58
1, 681306, Note_on_c, 0, 83, 72
1, 681332, Note_off_c, 0, 83, 60
1, 681382, Note_on_c, 0, 48, 84
1, 681386, Note_on_c, 0, 36, 77
1, 681386, Note_on_c, 0, 72, 68
1, 681390, Note_on_c, 0, 76, 59
1, 681405, Note_off_c, 0, 48, 71
1, 681410, Note_off_c, 0, 72, 66
1, 681411, Note_off_c, 0, 76, 67
1, 681424, Note_off_c, 0, 36, 64
1, 681424, Control_c, 0, 64, 115
1, 681431, Note_on_c, 0, 84, 73
1, 681439, Control_c, 0, 64, 90
1, 681454, Control_c, 0, 64, 67
1, 681469, Control_c, 0, 64, 0
1, 681470, Note_off_c, 0, 84, 53
1, 681503, Note_on_c, 0, 76, 73
1, 681511, Note_on_c, 0, 73, 71
1, 681513, Note_on_c, 0, 45, 85
1, 681518, Note_on_c, 0, 33, 76
1, 681535, Control_c, 0, 64, 66
1, 681544, Note_off_c, 0, 73, 67
1, 681549, Note_off_c, 0, 33, 67
1, 681550, Control_c, 0, 64, 81
1, 681551, Note_off_c, 0, 45, 65
1, 681556, Note_off_c, 0, 76, 64
1, 681565, Control_c, 0, 64, 99
1, 681578, Note_on_c, 0, 85, 80
1, 681580, Control_c, 0, 64, 119
1, 681595, Control_c, 0, 64, 127
1, 681605, Note_off_c, 0, 85, 65
1, 681651, Note_on_c, 0, 77, 65
1, 681658, Note_on_c, 0, 50, 85
1, 681660, Note_on_c, 0, 74, 58
1, 681668, Note_on_c, 0, 38, 69
1, 681672, Note_off_c, 0, 77, 65
1, 681680, Note_off_c, 0, 50, 70
1, 681684, Note_off_c, 0, 74, 67
1, 681711, Note_on_c, 0, 86, 74
1, 681711, Note_off_c, 0, 38, 63
1, 681744, Control_c, 0, 64, 110
1, 681756, Note_off_c, 0, 86, 58
1, 681758, Control_c, 0, 64, 87
1, 681773, Control_c, 0, 64, 63
1, 681785, Note_on_c, 0, 78, 76
1, 681788, Note_on_c, 0, 47, 89
1, 681788, Control_c, 0, 64, 0
1, 681789, Note_on_c, 0, 75, 67
1, 681792, Note_on_c, 0, 35, 75
1, 681810, Note_off_c, 0, 78, 66
1, 681815, Note_off_c, 0, 47, 63
1, 681816, Note_off_c, 0, 35, 67
1, 681816, Note_off_c, 0, 75, 69
1, 681818, Control_c, 0, 64, 40
1, 681832, Control_c, 0, 64, 69
1, 681847, Control_c, 0, 64, 83
1, 681862, Control_c, 0, 64, 100
1, 681876, Note_on_c, 0, 88, 52
1, 681876, Control_c, 0, 64, 117
1, 681891, Control_c, 0, 64, 122
1, 681899, Note_off_c, 0, 88, 53
1, 681906, Control_c, 0, 64, 127
1, 681920, Note_on_c, 0, 79, 71
1, 681920, Note_on_c, 0, 52, 88
1, 681921, Control_c, 0, 64, 127
1, 681926, Note_on_c, 0, 40, 78
1, 681930, Note_on_c, 0, 76, 61
1, 681941, Note_off_c, 0, 52, 73
1, 681944, Note_off_c, 0, 79, 67
1, 681948, Note_off_c, 0, 76, 66
1, 681964, Note_off_c, 0, 40, 65
1, 681974, Note_on_c, 0, 88, 71
1, 682024, Control_c, 0, 64, 117
1, 682035, Note_off_c, 0, 88, 61
1, 682039, Control_c, 0, 64, 96
1, 682042, Note_on_c, 0, 48, 88
1, 682046, Note_on_c, 0, 36, 76
1, 682054, Control_c, 0, 64, 81
1, 682059, Note_on_c, 0, 76, 42
1, 682069, Control_c, 0, 64, 76
1, 682071, Note_on_c, 0, 79, 26
1, 682071, Note_off_c, 0, 36, 66
1, 682079, Note_off_c, 0, 48, 61
1, 682084, Control_c, 0, 64, 81
1, 682085, Note_off_c, 0, 76, 45
1, 682099, Control_c, 0, 64, 95
1, 682104, Note_off_c, 0, 79, 32
1, 682114, Control_c, 0, 64, 114
1, 682127, Note_on_c, 0, 88, 39
1, 682129, Control_c, 0, 64, 127
1, 682152, Note_off_c, 0, 88, 50
1, 682180, Note_on_c, 0, 77, 68
1, 682194, Note_on_c, 0, 53, 87
1, 682194, Note_on_c, 0, 80, 26
1, 682195, Note_off_c, 0, 80, 127
1, 682199, Note_off_c, 0, 77, 63
1, 682218, Note_on_c, 0, 41, 38
1, 682242, Note_on_c, 0, 89, 77
1, 682242, Note_off_c, 0, 53, 52
1, 682255, Note_off_c, 0, 41, 54
1, 682267, Note_off_c, 0, 89, 62
1, 682299, Note_on_c, 0, 81, 69
1, 682313, Poly_aftertouch_c, 0, 43, 0
1, 682341, Note_off_c, 0, 81, 61
1, 682364, Note_on_c, 0, 45, 61
1, 682379, Note_on_c, 0, 51, 69
1, 682385, Note_on_c, 0, 93, 52
1, 682393, Note_on_c, 0, 48, 43
1, 682403, Control_c, 0, 64, 123
1, 682408, Note_on_c, 0, 54, 72
1, 682418, Control_c, 0, 64, 94
1, 682433, Control_c, 0, 64, 70
1, 682448, Control_c, 0, 64, 0
1, 682449, Note_off_c, 0, 93, 0
1, 682449, Note_on_c, 0, 93, 44
1, 682456, Note_off_c, 0, 48, 0
1, 682456, Note_on_c, 0, 48, 13
1, 682456, Note_on_c, 0, 57, 89
1, 682480, Note_on_c, 0, 90, 74
1, 682493, Control_c, 0, 64, 66
1, 682507, Control_c, 0, 64, 81
1, 682512, Note_off_c, 0, 93, 61
1, 682519, Note_on_c, 0, 87, 72
1, 682522, Control_c, 0, 64, 99
1, 682537, Control_c, 0, 64, 116
1, 682549, Note_off_c, 0, 90, 60
1, 682552, Control_c, 0, 64, 122
1, 682567, Control_c, 0, 64, 126
1, 682578, Note_on_c, 0, 84, 72
1, 682582, Control_c, 0, 64, 127
1, 682589, Note_off_c, 0, 87, 63
1, 682617, Note_off_c, 0, 84, 63
1, 682631, Note_on_c, 0, 81, 54
1, 682650, Note_off_c, 0, 81, 62
1, 682715, Note_on_c, 0, 78, 72
1, 682763, Note_on_c, 0, 75, 71
1, 682800, Note_off_c, 0, 78, 61
1, 682824, Note_on_c, 0, 72, 68
1, 682833, Note_off_c, 0, 75, 64
1, 682854, Note_off_c, 0, 72, 66
1, 682891, Note_on_c, 0, 69, 53
1, 682911, Note_off_c, 0, 69, 64
1, 682917, Note_off_c, 0, 57, 54
1, 682962, Note_on_c, 0, 66, 68
1, 682979, Note_off_c, 0, 54, 59
1, 682984, Note_off_c, 0, 45, 41
1, 682989, Note_off_c, 0, 51, 59
1, 683006, Note_on_c, 0, 63, 76
1, 683024, Note_off_c, 0, 48, 43
1, 683050, Note_off_c, 0, 66, 65
1, 683074, Note_on_c, 0, 60, 77
1, 683084, Note_off_c, 0, 63, 64
1, 683109, Control_c, 0, 64, 112
1, 683115, Note_off_c, 0, 60, 59
1, 683124, Control_c, 0, 64, 89
1, 683138, Control_c, 0, 64, 66
1, 683150, Note_on_c, 0, 54, 64
1, 683150, Note_on_c, 0, 66, 72
1, 683153, Control_c, 0, 64, 0
1, 683194, Note_off_c, 0, 54, 64
1, 683199, Note_on_c, 0, 51, 70
1, 683204, Note_on_c, 0, 63, 68
1, 683239, Note_off_c, 0, 66, 62
1, 683242, Control_c, 0, 64, 45
1, 683257, Control_c, 0, 64, 70
1, 683258, Note_on_c, 0, 60, 57
1, 683272, Control_c, 0, 64, 81
1, 683275, Note_off_c, 0, 63, 63
1, 683276, Note_on_c, 0, 48, 69
1, 683286, Control_c, 0, 64, 93
1, 683289, Note_off_c, 0, 51, 62
1, 683301, Control_c, 0, 64, 105
1, 683315, Note_on_c, 0, 57, 59
1, 683316, Control_c, 0, 64, 116
1, 683320, Note_on_c, 0, 45, 63
1, 683321, Note_off_c, 0, 60, 61
1, 683330, Control_c, 0, 64, 126
1, 683345, Control_c, 0, 64, 127
1, 683349, Note_off_c, 0, 48, 62
1, 683353, Note_off_c, 0, 57, 61
1, 683366, Note_off_c, 0, 45, 64
1, 683384, Note_on_c, 0, 54, 76
1, 683384, Note_on_c, 0, 66, 81
1, 683449, Note_off_c, 0, 54, 60
1, 683452, Note_on_c, 0, 63, 69
1, 683455, Note_on_c, 0, 51, 76
1, 683491, Note_off_c, 0, 66, 64
1, 683517, Note_on_c, 0, 60, 67
1, 683523, Note_off_c, 0, 63, 65
1, 683531, Note_on_c, 0, 48, 71
1, 683536, Note_off_c, 0, 51, 62
1, 683565, Note_on_c, 0, 57, 60
1, 683567, Note_on_c, 0, 45, 65
1, 683578, Note_off_c, 0, 60, 60
1, 683595, Note_off_c, 0, 48, 62
1, 683599, Note_off_c, 0, 57, 58
1, 683605, Note_off_c, 0, 45, 62
1, 683640, Note_on_c, 0, 54, 78
1, 683649, Note_on_c, 0, 66, 73
1, 683700, Note_off_c, 0, 54, 62
1, 683701, Note_on_c, 0, 63, 71
1, 683705, Note_on_c, 0, 51, 73
1, 683744, Note_off_c, 0, 66, 59
1, 683780, Note_on_c, 0, 60, 62
1, 683782, Note_on_c, 0, 48, 67
1, 683795, Note_off_c, 0, 63, 64
1, 683796, Note_off_c, 0, 51, 59
1, 683825, Note_on_c, 0, 45, 64
1, 683825, Note_on_c, 0, 57, 62
1, 683832, Note_off_c, 0, 60, 55
1, 683857, Note_off_c, 0, 48, 64
1, 683859, Note_off_c, 0, 57, 61
1, 683881, Note_off_c, 0, 45, 63
1, 683907, Note_on_c, 0, 54, 72
1, 683908, Note_on_c, 0, 66, 78
1, 683963, Note_off_c, 0, 54, 61
1, 683967, Note_on_c, 0, 63, 73
1, 683969, Note_on_c, 0, 51, 72
1, 684018, Note_off_c, 0, 66, 60
1, 684026, Note_on_c, 0, 48, 68
1, 684029, Note_on_c, 0, 60, 64
1, 684036, Note_off_c, 0, 51, 60
1, 684052, Note_off_c, 0, 63, 63
1, 684063, Note_on_c, 0, 45, 59
1, 684076, Note_on_c, 0, 57, 61
1, 684090, Note_off_c, 0, 60, 60
1, 684105, Note_off_c, 0, 57, 63
1, 684106, Note_off_c, 0, 45, 61
1, 684111, Note_off_c, 0, 48, 64
1, 684153, Control_c, 0, 64, 121
1, 684162, Note_on_c, 0, 66, 77
1, 684167, Note_on_c, 0, 54, 84
1, 684168, Control_c, 0, 64, 88
1, 684173, Note_on_c, 0, 51, 70
1, 684176, Note_on_c, 0, 48, 55
1, 684183, Control_c, 0, 64, 62
1, 684184, Note_on_c, 0, 45, 56
1, 684198, Control_c, 0, 64, 0
1, 684215, Note_on_c, 0, 63, 61
1, 684257, Control_c, 0, 64, 65
1, 684262, Note_off_c, 0, 66, 64
1, 684272, Control_c, 0, 64, 78
1, 684278, Note_on_c, 0, 60, 68
1, 684287, Control_c, 0, 64, 98
1, 684295, Note_off_c, 0, 63, 63
1, 684302, Control_c, 0, 64, 116
1, 684312, Note_on_c, 0, 57, 68
1, 684317, Control_c, 0, 64, 127
1, 684338, Note_off_c, 0, 60, 61
1, 684342, Note_off_c, 0, 57, 65
1, 684371, Note_off_c, 0, 51, 38
1, 684402, Note_on_c, 0, 69, 73
1, 684464, Note_on_c, 0, 66, 77
1, 684477, Note_off_c, 0, 69, 57
1, 684527, Note_on_c, 0, 63, 66
1, 684540, Note_off_c, 0, 66, 66
1, 684555, Poly_aftertouch_c, 0, 68, 0
1, 684569, Note_on_c, 0, 60, 70
1, 684587, Note_off_c, 0, 63, 62
1, 684597, Note_off_c, 0, 60, 63
1, 684638, Note_on_c, 0, 72, 74
1, 684699, Note_on_c, 0, 69, 74
1, 684706, Note_off_c, 0, 72, 61
1, 684758, Note_on_c, 0, 66, 65
1, 684766, Note_off_c, 0, 69, 66
1, 684797, Note_on_c, 0, 63, 72
1, 684805, Note_off_c, 0, 66, 60
1, 684831, Note_off_c, 0, 63, 63
1, 684866, Note_on_c, 0, 75, 67
1, 684931, Note_on_c, 0, 72, 65
1, 684940, Note_off_c, 0, 75, 61
1, 684975, Note_on_c, 0, 68, 70
1, 684993, Note_off_c, 0, 72, 65
1, 685008, Note_off_c, 0, 68, 60
1, 685022, Note_on_c, 0, 66, 74
1, 685054, Note_off_c, 0, 66, 67
1, 685098, Note_on_c, 0, 78, 63
1, 685157, Note_on_c, 0, 75, 66
1, 685160, Note_off_c, 0, 78, 53
1, 685185, Note_off_c, 0, 75, 49
1, 685212, Note_on_c, 0, 72, 55
1, 685249, Note_on_c, 0, 69, 65
1, 685258, Note_off_c, 0, 72, 63
1, 685288, Note_off_c, 0, 69, 65
1, 685318, Note_on_c, 0, 81, 76
1, 685327, Note_off_c, 0, 48, 54
1, 685328, Note_off_c, 0, 54, 37
1, 685329, Note_off_c, 0, 45, 42
1, 685381, Note_on_c, 0, 78, 77
1, 685405, Note_off_c, 0, 81, 50
1, 685423, Note_on_c, 0, 75, 67
1, 685443, Note_off_c, 0, 78, 62
1, 685464, Note_on_c, 0, 72, 72
1, 685485, Note_on_c, 0, 48, 69
1, 685488, Note_on_c, 0, 45, 57
1, 685491, Note_off_c, 0, 75, 63
1, 685496, Note_off_c, 0, 72, 61
1, 685533, Note_on_c, 0, 51, 64
1, 685533, Control_c, 0, 64, 125
1, 685548, Control_c, 0, 64, 85
1, 685553, Note_on_c, 0, 72, 65
1, 685563, Control_c, 0, 64, 56
1, 685577, Control_c, 0, 64, 0
1, 685579, Note_off_c, 0, 72, 67
1, 685583, Note_on_c, 0, 54, 91
1, 685607, Note_on_c, 0, 84, 74
1, 685607, Control_c, 0, 64, 42
1, 685622, Control_c, 0, 64, 71
1, 685637, Control_c, 0, 64, 89
1, 685652, Note_on_c, 0, 81, 67
1, 685652, Control_c, 0, 64, 112
1, 685667, Note_off_c, 0, 84, 57
1, 685667, Control_c, 0, 64, 127
1, 685706, Note_on_c, 0, 78, 73
1, 685748, Note_off_c, 0, 81, 60
1, 685751, Note_on_c, 0, 75, 71
1, 685768, Note_off_c, 0, 78, 63
1, 685798, Note_off_c, 0, 75, 63
1, 685802, Note_on_c, 0, 72, 56
1, 685806, Note_off_c, 0, 48, 57
1, 685822, Note_off_c, 0, 72, 65
1, 685841, Note_off_c, 0, 45, 35
1, 685841, Note_off_c, 0, 51, 59
1, 685858, Note_off_c, 0, 54, 58
1, 685879, Note_on_c, 0, 69, 75
1, 685941, Note_on_c, 0, 66, 63
1, 685963, Note_off_c, 0, 69, 63
1, 685983, Note_off_c, 0, 66, 59
1, 685990, Note_on_c, 0, 63, 76
1, 686004, Note_on_c, 0, 50, 72
1, 686010, Note_on_c, 0, 47, 57
1, 686011, Note_off_c, 0, 63, 69
1, 686059, Note_on_c, 0, 53, 62
1, 686073, Control_c, 0, 64, 126
1, 686088, Control_c, 0, 64, 89
1, 686103, Control_c, 0, 64, 61
1, 686118, Control_c, 0, 64, 0
1, 686125, Note_on_c, 0, 56, 91
1, 686131, Note_on_c, 0, 86, 80
1, 686163, Control_c, 0, 64, 66
1, 686178, Control_c, 0, 64, 83
1, 686193, Control_c, 0, 64, 104
1, 686197, Note_on_c, 0, 83, 69
1, 686208, Control_c, 0, 64, 127
1, 686210, Note_off_c, 0, 86, 61
1, 686248, Note_on_c, 0, 80, 78
1, 686277, Note_off_c, 0, 83, 59
1, 686313, Note_on_c, 0, 77, 63
1, 686318, Note_off_c, 0, 80, 63
1, 686328, Note_off_c, 0, 50, 60
1, 686341, Note_off_c, 0, 47, 43
1, 686344, Note_off_c, 0, 77, 62
1, 686347, Note_off_c, 0, 53, 65
1, 686365, Note_on_c, 0, 74, 58
1, 686381, Note_off_c, 0, 56, 60
1, 686386, Note_off_c, 0, 74, 67
1, 686451, Note_on_c, 0, 71, 62
1, 686495, Note_on_c, 0, 68, 74
1, 686499, Note_off_c, 0, 71, 59
1, 686540, Note_on_c, 0, 65, 75
1, 686562, Note_off_c, 0, 68, 62
1, 686570, Note_off_c, 0, 65, 67
1, 686579, Note_on_c, 0, 49, 53
1, 686587, Note_on_c, 0, 52, 60
1, 686600, Note_on_c, 0, 55, 61
1, 686608, Control_c, 0, 64, 121
1, 686622, Control_c, 0, 64, 90
1, 686637, Control_c, 0, 64, 66
1, 686652, Control_c, 0, 64, 0
1, 686660, Note_on_c, 0, 58, 91
1, 686671, Note_on_c, 0, 88, 75
1, 686681, Control_c, 0, 64, 62
1, 686696, Control_c, 0, 64, 76
1, 686711, Control_c, 0, 64, 94
1, 686726, Control_c, 0, 64, 127
1, 686730, Note_on_c, 0, 85, 65
1, 686743, Note_off_c, 0, 88, 60
1, 686812, Note_off_c, 0, 85, 62
1, 686815, Note_on_c, 0, 83, 44
1, 686844, Note_off_c, 0, 83, 60
1, 686853, Note_on_c, 0, 79, 60
1, 686883, Note_off_c, 0, 79, 64
1, 686892, Note_on_c, 0, 76, 60
1, 686911, Note_off_c, 0, 76, 66
1, 686929, Note_off_c, 0, 52, 61
1, 686937, Note_off_c, 0, 55, 62
1, 686946, Note_off_c, 0, 49, 57
1, 686956, Note_off_c, 0, 58, 61
1, 686993, Note_on_c, 0, 72, 61
1, 687040, Note_off_c, 0, 72, 61
1, 687080, Note_on_c, 0, 67, 73
1, 687084, Note_on_c, 0, 69, 28
1, 687089, Note_on_c, 0, 50, 64
1, 687090, Note_on_c, 0, 53, 77
1, 687115, Note_off_c, 0, 67, 63
1, 687118, Note_off_c, 0, 69, 43
1, 687122, Note_on_c, 0, 56, 74
1, 687149, Control_c, 0, 64, 94
1, 687164, Control_c, 0, 64, 66
1, 687178, Control_c, 0, 64, 0
1, 687183, Note_on_c, 0, 59, 90
1, 687194, Note_on_c, 0, 89, 83
1, 687208, Control_c, 0, 64, 63
1, 687223, Control_c, 0, 64, 76
1, 687238, Control_c, 0, 64, 94
1, 687252, Note_off_c, 0, 89, 63
1, 687253, Control_c, 0, 64, 124
1, 687253, Note_on_c, 0, 88, 56
1, 687268, Control_c, 0, 64, 127
1, 687327, Note_on_c, 0, 84, 52
1, 687330, Note_on_c, 0, 83, 67
1, 687350, Note_off_c, 0, 88, 27
1, 687367, Note_off_c, 0, 84, 64
1, 687369, Note_on_c, 0, 80, 70
1, 687383, Note_off_c, 0, 56, 38
1, 687386, Note_off_c, 0, 53, 63
1, 687390, Note_off_c, 0, 83, 59
1, 687392, Note_off_c, 0, 50, 53
1, 687408, Note_off_c, 0, 80, 63
1, 687420, Note_on_c, 0, 77, 65
1, 687441, Note_off_c, 0, 77, 65
1, 687482, Note_off_c, 0, 59, 49
1, 687498, Note_on_c, 0, 74, 75
1, 687561, Note_off_c, 0, 74, 64
1, 687569, Note_on_c, 0, 70, 24
1, 687570, Note_off_c, 0, 70, 127
1, 687586, Note_on_c, 0, 71, 54
1, 687604, Poly_aftertouch_c, 0, 70, 0
1, 687615, Note_on_c, 0, 68, 77
1, 687623, Note_on_c, 0, 55, 63
1, 687624, Note_on_c, 0, 52, 64
1, 687625, Note_off_c, 0, 71, 59
1, 687640, Note_off_c, 0, 68, 69
1, 687657, Note_on_c, 0, 58, 79
1, 687675, Control_c, 0, 64, 121
1, 687690, Control_c, 0, 64, 90
1, 687704, Control_c, 0, 64, 66
1, 687706, Note_off_c, 0, 55, 56
1, 687719, Control_c, 0, 64, 0
1, 687737, Note_on_c, 0, 61, 98
1, 687742, Note_on_c, 0, 91, 83
1, 687747, Note_on_c, 0, 55, 36
1, 687750, Control_c, 0, 64, 66
1, 687765, Control_c, 0, 64, 82
1, 687780, Control_c, 0, 64, 106
1, 687794, Control_c, 0, 64, 127
1, 687800, Note_on_c, 0, 88, 65
1, 687824, Note_off_c, 0, 91, 58
1, 687852, Note_on_c, 0, 85, 78
1, 687903, Note_off_c, 0, 88, 57
1, 687913, Note_on_c, 0, 82, 62
1, 687924, Note_off_c, 0, 52, 58
1, 687930, Note_off_c, 0, 85, 63
1, 687944, Note_off_c, 0, 82, 66
1, 687955, Note_on_c, 0, 79, 68
1, 687958, Note_off_c, 0, 55, 40
1, 687970, Note_off_c, 0, 58, 63
1, 687977, Note_off_c, 0, 79, 64
1, 687989, Note_off_c, 0, 61, 55
1, 688046, Note_on_c, 0, 76, 67
1, 688077, Note_off_c, 0, 76, 59
1, 688111, Note_on_c, 0, 73, 62
1, 688147, Note_on_c, 0, 70, 72
1, 688147, Note_off_c, 0, 73, 59
1, 688173, Note_off_c, 0, 70, 69
1, 688182, Note_on_c, 0, 54, 61
1, 688186, Note_on_c, 0, 57, 66
1, 688191, Note_on_c, 0, 60, 73
1, 688253, Control_c, 0, 64, 117
1, 688275, Control_c, 0, 64, 85
1, 688290, Control_c, 0, 64, 59
1, 688304, Note_on_c, 0, 63, 97
1, 688305, Control_c, 0, 64, 0
1, 688320, Note_on_c, 0, 93, 80
1, 688335, Control_c, 0, 64, 65
1, 688350, Control_c, 0, 64, 81
1, 688365, Control_c, 0, 64, 105
1, 688379, Control_c, 0, 64, 127
1, 688382, Note_on_c, 0, 90, 57
1, 688387, Note_off_c, 0, 93, 61
1, 688421, Note_on_c, 0, 87, 75
1, 688448, Note_off_c, 0, 90, 60
1, 688488, Note_on_c, 0, 84, 64
1, 688493, Note_off_c, 0, 87, 63
1, 688522, Note_off_c, 0, 84, 65
1, 688534, Note_on_c, 0, 81, 64
1, 688564, Note_off_c, 0, 81, 64
1, 688625, Note_on_c, 0, 78, 74
1, 688673, Note_on_c, 0, 75, 72
1, 688690, Note_off_c, 0, 63, 60
1, 688708, Note_off_c, 0, 78, 57
1, 688734, Note_on_c, 0, 72, 65
1, 688746, Note_off_c, 0, 75, 65
1, 688766, Note_off_c, 0, 72, 64
1, 688797, Note_on_c, 0, 69, 58
1, 688806, Note_off_c, 0, 60, 55
1, 688818, Note_off_c, 0, 69, 67
1, 688836, Note_off_c, 0, 54, 62
1, 688865, Note_off_c, 0, 57, 57
1, 688870, Note_on_c, 0, 66, 68
1, 688909, Note_on_c, 0, 63, 79
1, 688951, Note_off_c, 0, 66, 62
1, 688974, Note_on_c, 0, 60, 63
1, 688987, Note_off_c, 0, 63, 63
1, 689006, Note_off_c, 0, 60, 62
1, 689042, Note_on_c, 0, 57, 60
1, 689071, Note_off_c, 0, 57, 64
1, 689137, Note_on_c, 0, 54, 55
1, 689158, Note_off_c, 0, 54, 59
1, 689173, Note_on_c, 0, 51, 54
1, 689208, Note_on_c, 0, 50, 57
1, 689209, Note_off_c, 0, 51, 47
1, 689232, Note_on_c, 0, 48, 60
1, 689232, Note_off_c, 0, 50, 57
1, 689254, Note_off_c, 0, 48, 63
1, 689262, Control_c, 0, 64, 112
1, 689275, Note_on_c, 0, 43, 91
1, 689276, Control_c, 0, 64, 94
1, 689280, Note_on_c, 0, 31, 77
1, 689291, Control_c, 0, 64, 81
1, 689306, Control_c, 0, 64, 68
1, 689313, Note_off_c, 0, 31, 66
1, 689321, Control_c, 0, 64, 29
1, 689327, Note_off_c, 0, 43, 60
1, 689336, Control_c, 0, 64, 0
1, 689338, Note_on_c, 0, 47, 67
1, 689375, Note_off_c, 0, 47, 63
1, 689392, Note_on_c, 0, 48, 53
1, 689448, Note_off_c, 0, 48, 63
1, 689462, Note_on_c, 0, 47, 60
1, 689494, Note_off_c, 0, 47, 63
1, 689530, Note_on_c, 0, 43, 70
1, 689562, Note_off_c, 0, 43, 61
1, 689598, Note_on_c, 0, 48, 54
1, 689626, Note_off_c, 0, 48, 61
1, 689670, Note_on_c, 0, 52, 45
1, 689697, Note_off_c, 0, 52, 57
1, 689706, Note_on_c, 0, 51, 45
1, 689742, Note_off_c, 0, 51, 60
1, 689751, Note_on_c, 0, 53, 65
1, 689769, Note_on_c, 0, 48, 65
1, 689772, Note_on_c, 0, 43, 67
1, 689794, Note_off_c, 0, 48, 68
1, 689799, Note_off_c, 0, 43, 63
1, 689805, Note_off_c, 0, 53, 65
1, 689834, Note_on_c, 0, 52, 48
1, 689870, Note_off_c, 0, 52, 65
1, 689896, Note_on_c, 0, 55, 54
1, 689938, Note_off_c, 0, 55, 63
1, 689947, Note_on_c, 0, 54, 57
1, 689988, Note_off_c, 0, 54, 60
1, 690001, Note_on_c, 0, 57, 56
1, 690013, Note_on_c, 0, 52, 75
1, 690016, Note_on_c, 0, 48, 71
1, 690031, Note_off_c, 0, 57, 61
1, 690041, Note_off_c, 0, 48, 68
1, 690042, Note_off_c, 0, 52, 67
1, 690063, Note_on_c, 0, 55, 44
1, 690090, Note_off_c, 0, 55, 55
1, 690143, Note_on_c, 0, 60, 42
1, 690170, Note_off_c, 0, 60, 54
1, 690185, Note_on_c, 0, 59, 27
1, 690218, Note_off_c, 0, 59, 61
1, 690246, Note_on_c, 0, 62, 61
1, 690267, Note_on_c, 0, 55, 74
1, 690272, Note_on_c, 0, 52, 61
1, 690284, Note_off_c, 0, 62, 60
1, 690293, Note_off_c, 0, 55, 67
1, 690295, Note_off_c, 0, 52, 67
1, 690308, Note_on_c, 0, 60, 53
1, 690345, Note_off_c, 0, 60, 58
1, 690375, Note_on_c, 0, 64, 58
1, 690417, Note_off_c, 0, 64, 59
1, 690418, Note_on_c, 0, 63, 60
1, 690463, Note_off_c, 0, 63, 62
1, 690486, Note_on_c, 0, 65, 61
1, 690502, Note_on_c, 0, 55, 63
1, 690503, Note_on_c, 0, 60, 66
1, 690527, Note_off_c, 0, 65, 67
1, 690528, Note_off_c, 0, 60, 65
1, 690538, Note_off_c, 0, 55, 67
1, 690563, Note_on_c, 0, 64, 58
1, 690595, Note_off_c, 0, 64, 62
1, 690622, Note_on_c, 0, 67, 60
1, 690666, Note_off_c, 0, 67, 58
1, 690675, Note_on_c, 0, 66, 61
1, 690713, Note_off_c, 0, 66, 65
1, 690725, Note_on_c, 0, 69, 61
1, 690743, Note_on_c, 0, 64, 69
1, 690750, Note_on_c, 0, 60, 62
1, 690754, Note_off_c, 0, 69, 68
1, 690772, Note_off_c, 0, 64, 67
1, 690781, Note_off_c, 0, 60, 64
1, 690785, Note_on_c, 0, 67, 64
1, 690816, Note_off_c, 0, 67, 64
1, 690842, Note_on_c, 0, 72, 68
1, 690902, Note_off_c, 0, 72, 62
1, 690925, Note_on_c, 0, 71, 48
1, 690949, Note_off_c, 0, 71, 53
1, 690987, Note_on_c, 0, 64, 58
1, 690987, Note_on_c, 0, 67, 64
1, 690989, Note_on_c, 0, 74, 43
1, 691010, Note_off_c, 0, 67, 66
1, 691010, Note_off_c, 0, 64, 65
1, 691014, Note_off_c, 0, 74, 56
1, 691029, Note_on_c, 0, 72, 65
1, 691064, Note_off_c, 0, 72, 64
1, 691146, Note_on_c, 0, 75, 61
1, 691180, Note_off_c, 0, 75, 63
1, 691197, Note_on_c, 0, 77, 60
1, 691222, Note_on_c, 0, 67, 53
1, 691222, Note_on_c, 0, 72, 61
1, 691232, Note_off_c, 0, 77, 59
1, 691241, Note_off_c, 0, 72, 65
1, 691244, Note_off_c, 0, 67, 62
1, 691292, Note_on_c, 0, 76, 45
1, 691316, Note_off_c, 0, 76, 51
1, 691323, Note_on_c, 0, 79, 63
1, 691375, Note_off_c, 0, 79, 58
1, 691385, Note_on_c, 0, 78, 57
1, 691420, Note_off_c, 0, 78, 65
1, 691432, Note_on_c, 0, 81, 65
1, 691447, Note_on_c, 0, 76, 63
1, 691453, Note_on_c, 0, 72, 65
1, 691458, Note_off_c, 0, 81, 67
1, 691471, Note_off_c, 0, 76, 71
1, 691480, Note_off_c, 0, 72, 68
1, 691506, Note_on_c, 0, 79, 54
1, 691529, Note_off_c, 0, 79, 57
1, 691552, Note_on_c, 0, 84, 68
1, 691588, Note_off_c, 0, 84, 54
1, 691626, Note_on_c, 0, 83, 63
1, 691653, Note_off_c, 0, 83, 63
1, 691682, Note_on_c, 0, 86, 59
1, 691691, Note_on_c, 0, 76, 72
1, 691691, Note_on_c, 0, 79, 66
1, 691711, Note_off_c, 0, 86, 50
1, 691712, Note_off_c, 0, 79, 64
1, 691723, Note_off_c, 0, 76, 63
1, 691743, Note_on_c, 0, 84, 64
1, 691772, Note_off_c, 0, 84, 63
1, 691805, Note_on_c, 0, 88, 60
1, 691840, Note_off_c, 0, 88, 60
1, 691846, Note_on_c, 0, 87, 62
1, 691887, Note_off_c, 0, 87, 59
1, 691900, Note_on_c, 0, 89, 64
1, 691917, Note_on_c, 0, 72, 73
1, 691921, Note_on_c, 0, 76, 62
1, 691933, Note_off_c, 0, 89, 66
1, 691938, Note_off_c, 0, 76, 65
1, 691945, Note_off_c, 0, 72, 66
1, 691963, Note_on_c, 0, 88, 60
1, 692023, Note_off_c, 0, 88, 49
1, 692026, Note_on_c, 0, 91, 65
1, 692066, Note_off_c, 0, 91, 58
1, 692071, Note_on_c, 0, 90, 65
1, 692101, Note_off_c, 0, 90, 65
1, 692141, Note_on_c, 0, 93, 67
1, 692161, Note_on_c, 0, 76, 74
1, 692163, Note_on_c, 0, 67, 64
1, 692165, Note_on_c, 0, 72, 68
1, 692183, Note_off_c, 0, 76, 72
1, 692193, Note_on_c, 0, 91, 66
1, 692195, Note_off_c, 0, 72, 64
1, 692200, Note_off_c, 0, 67, 59
1, 692205, Note_off_c, 0, 93, 60
1, 692237, Note_off_c, 0, 91, 59
1, 692247, Note_on_c, 0, 88, 57
1, 692288, Note_off_c, 0, 88, 58
1, 692308, Note_on_c, 0, 87, 61
1, 692344, Note_off_c, 0, 87, 61
1, 692359, Note_on_c, 0, 89, 65
1, 692411, Note_on_c, 0, 88, 69
1, 692425, Note_off_c, 0, 89, 61
1, 692463, Note_off_c, 0, 88, 63
1, 692467, Note_on_c, 0, 84, 63
1, 692495, Note_off_c, 0, 84, 68
1, 692518, Note_on_c, 0, 83, 68
1, 692571, Note_off_c, 0, 83, 59
1, 692577, Note_on_c, 0, 86, 67
1, 692622, Note_on_c, 0, 84, 61
1, 692632, Note_off_c, 0, 86, 63
1, 692661, Note_off_c, 0, 84, 65
1, 692672, Note_on_c, 0, 79, 60
1, 692702, Note_off_c, 0, 79, 48
1, 692735, Note_on_c, 0, 78, 66
1, 692777, Note_off_c, 0, 78, 60
1, 692789, Note_on_c, 0, 81, 64
1, 692840, Note_on_c, 0, 79, 61
1, 692849, Note_off_c, 0, 81, 58
1, 692887, Note_off_c, 0, 79, 63
1, 692895, Note_on_c, 0, 76, 60
1, 692928, Note_off_c, 0, 76, 61
1, 692949, Note_on_c, 0, 75, 62
1, 692985, Note_off_c, 0, 75, 64
1, 692996, Note_on_c, 0, 77, 69
1, 693044, Note_on_c, 0, 76, 61
1, 693058, Note_off_c, 0, 77, 58
1, 693095, Note_off_c, 0, 76, 67
1, 693100, Note_on_c, 0, 72, 59
1, 693131, Note_off_c, 0, 72, 68
1, 693149, Note_on_c, 0, 71, 70
1, 693200, Note_off_c, 0, 71, 61
1, 693211, Note_on_c, 0, 74, 66
1, 693250, Note_on_c, 0, 72, 64
1, 693273, Note_off_c, 0, 74, 64
1, 693294, Note_off_c, 0, 72, 64
1, 693311, Note_on_c, 0, 67, 56
1, 693347, Note_off_c, 0, 67, 61
1, 693370, Note_on_c, 0, 66, 65
1, 693405, Note_off_c, 0, 66, 65
1, 693420, Note_on_c, 0, 69, 66
1, 693479, Note_on_c, 0, 67, 52
1, 693489, Note_off_c, 0, 69, 63
1, 693525, Note_off_c, 0, 67, 65
1, 693538, Note_on_c, 0, 64, 61
1, 693565, Note_off_c, 0, 64, 62
1, 693659, Note_on_c, 0, 65, 46
1, 693698, Note_on_c, 0, 64, 67
1, 693705, Note_off_c, 0, 65, 59
1, 693745, Note_off_c, 0, 64, 64
1, 693762, Note_on_c, 0, 59, 63
1, 693784, Control_c, 0, 64, 60
1, 693799, Control_c, 0, 64, 74
1, 693806, Note_off_c, 0, 59, 64
1, 693814, Control_c, 0, 64, 87
1, 693829, Control_c, 0, 64, 100
1, 693833, Note_on_c, 0, 60, 38
1, 693843, Control_c, 0, 64, 106
1, 693858, Control_c, 0, 64, 108
1, 693861, Note_off_c, 0, 60, 48
1, 693873, Control_c, 0, 64, 110
1, 693888, Control_c, 0, 64, 111
1, 693903, Control_c, 0, 64, 112
1, 693917, Note_on_c, 0, 43, 67
1, 693918, Control_c, 0, 64, 112
1, 693927, Note_on_c, 0, 55, 64
1, 693933, Control_c, 0, 64, 113
1, 693947, Control_c, 0, 64, 113
1, 693960, Note_off_c, 0, 55, 59
1, 693968, Note_off_c, 0, 43, 52
1, 693986, Note_on_c, 0, 42, 68
1, 693986, Note_on_c, 0, 54, 63
1, 694007, Control_c, 0, 64, 111
1, 694013, Note_off_c, 0, 54, 65
1, 694021, Control_c, 0, 64, 105
1, 694022, Note_off_c, 0, 42, 62
1, 694036, Control_c, 0, 64, 96
1, 694043, Note_on_c, 0, 55, 60
1, 694051, Control_c, 0, 64, 84
1, 694055, Note_on_c, 0, 43, 62
1, 694065, Control_c, 0, 64, 74
1, 694080, Control_c, 0, 64, 62
1, 694085, Note_off_c, 0, 55, 65
1, 694088, Note_off_c, 0, 43, 49
1, 694095, Control_c, 0, 64, 0
1, 694104, Note_on_c, 0, 56, 74
1, 694112, Note_on_c, 0, 44, 72
1, 694139, Note_off_c, 0, 56, 65
1, 694151, Note_off_c, 0, 44, 63
1, 694179, Note_on_c, 0, 45, 62
1, 694183, Note_on_c, 0, 57, 60
1, 694212, Note_off_c, 0, 57, 64
1, 694215, Note_off_c, 0, 45, 65
1, 694225, Note_on_c, 0, 46, 80
1, 694234, Note_on_c, 0, 58, 65
1, 694276, Note_off_c, 0, 58, 67
1, 694292, Note_on_c, 0, 47, 72
1, 694302, Note_off_c, 0, 46, 62
1, 694314, Note_on_c, 0, 59, 59
1, 694335, Note_off_c, 0, 47, 66
1, 694352, Note_off_c, 0, 59, 62
1, 694356, Note_on_c, 0, 48, 70
1, 694362, Note_on_c, 0, 60, 66
1, 694396, Note_off_c, 0, 48, 57
1, 694404, Note_off_c, 0, 60, 61
1, 694419, Note_on_c, 0, 61, 73
1, 694422, Note_on_c, 0, 49, 73
1, 694446, Note_off_c, 0, 61, 67
1, 694459, Note_off_c, 0, 49, 59
1, 694475, Note_on_c, 0, 50, 71
1, 694484, Note_on_c, 0, 62, 67
1, 694520, Note_off_c, 0, 62, 60
1, 694521, Note_off_c, 0, 50, 63
1, 694533, Note_on_c, 0, 51, 78
1, 694542, Note_on_c, 0, 63, 69
1, 694569, Note_off_c, 0, 63, 67
1, 694589, Note_on_c, 0, 52, 73
1, 694602, Note_off_c, 0, 51, 62
1, 694609, Note_on_c, 0, 64, 66
1, 694635, Note_off_c, 0, 52, 64
1, 694654, Note_on_c, 0, 53, 71
1, 694654, Note_off_c, 0, 64, 62
1, 694668, Note_on_c, 0, 65, 64
1, 694698, Note_off_c, 0, 53, 56
1, 694716, Note_off_c, 0, 65, 65
1, 694717, Note_on_c, 0, 66, 73
1, 694720, Note_on_c, 0, 54, 76
1, 694749, Note_off_c, 0, 66, 67
1, 694760, Note_off_c, 0, 54, 60
1, 694778, Note_on_c, 0, 55, 70
1, 694783, Note_on_c, 0, 67, 65
1, 694824, Note_off_c, 0, 67, 61
1, 694830, Note_off_c, 0, 55, 64
1, 694832, Note_on_c, 0, 56, 82
1, 694845, Note_on_c, 0, 68, 71
1, 694870, Note_off_c, 0, 68, 68
1, 694884, Note_off_c, 0, 56, 63
1, 694902, Note_on_c, 0, 57, 70
1, 694909, Note_on_c, 0, 69, 69
1, 694940, Note_off_c, 0, 69, 66
1, 694955, Note_off_c, 0, 57, 64
1, 694956, Note_on_c, 0, 58, 76
1, 694970, Note_on_c, 0, 70, 71
1, 695017, Note_off_c, 0, 70, 64
1, 695021, Note_on_c, 0, 59, 74
1, 695036, Note_off_c, 0, 58, 65
1, 695052, Note_on_c, 0, 71, 62
1, 695075, Note_off_c, 0, 59, 64
1, 695098, Note_off_c, 0, 71, 59
1, 695099, Note_on_c, 0, 60, 67
1, 695106, Note_on_c, 0, 72, 67
1, 695150, Note_off_c, 0, 72, 65
1, 695156, Note_on_c, 0, 61, 82
1, 695156, Note_on_c, 0, 73, 75
1, 695161, Note_off_c, 0, 60, 61
1, 695182, Note_off_c, 0, 73, 67
1, 695200, Note_off_c, 0, 61, 55
1, 695219, Note_on_c, 0, 62, 77
1, 695223, Note_on_c, 0, 74, 66
1, 695258, Note_off_c, 0, 74, 62
1, 695274, Note_off_c, 0, 62, 62
1, 695275, Note_on_c, 0, 63, 80
1, 695280, Note_on_c, 0, 75, 68
1, 695314, Note_off_c, 0, 75, 65
1, 695331, Note_on_c, 0, 64, 75
1, 695346, Note_on_c, 0, 76, 69
1, 695352, Note_off_c, 0, 63, 65
1, 695385, Note_off_c, 0, 64, 65
1, 695403, Note_off_c, 0, 76, 59
1, 695403, Note_on_c, 0, 77, 68
1, 695408, Note_on_c, 0, 65, 72
1, 695447, Note_off_c, 0, 65, 50
1, 695456, Note_off_c, 0, 77, 61
1, 695457, Note_on_c, 0, 78, 76
1, 695464, Note_on_c, 0, 66, 85
1, 695498, Note_off_c, 0, 78, 63
1, 695517, Note_off_c, 0, 66, 62
1, 695525, Note_on_c, 0, 79, 76
1, 695526, Note_on_c, 0, 67, 80
1, 695579, Note_off_c, 0, 79, 60
1, 695587, Note_on_c, 0, 68, 88
1, 695587, Note_on_c, 0, 80, 83
1, 695616, Note_off_c, 0, 67, 38
1, 695631, Note_off_c, 0, 80, 63
1, 695674, Note_off_c, 0, 68, 62
1, 695676, Note_on_c, 0, 81, 100
1, 695678, Note_on_c, 0, 69, 93
1, 695764, Control_c, 0, 64, 63
1, 695765, Note_off_c, 0, 81, 62
1, 695779, Control_c, 0, 64, 73
1, 695787, Note_off_c, 0, 69, 62
1, 695794, Control_c, 0, 64, 76
1, 695805, Note_on_c, 0, 83, 94
1, 695808, Control_c, 0, 64, 77
1, 695810, Note_on_c, 0, 71, 92
1, 695823, Control_c, 0, 64, 76
1, 695838, Control_c, 0, 64, 74
1, 695849, Note_off_c, 0, 71, 63
1, 695849, Note_off_c, 0, 83, 64
1, 695853, Control_c, 0, 64, 71
1, 695868, Control_c, 0, 64, 67
1, 695882, Control_c, 0, 64, 61
1, 695897, Control_c, 0, 64, 48
1, 695912, Control_c, 0, 64, 34
1, 695927, Control_c, 0, 64, 16
1, 695942, Control_c, 0, 64, 0
1, 695943, Note_on_c, 0, 84, 88
1, 696014, Note_on_c, 0, 83, 72
1, 696036, Note_off_c, 0, 84, 60
1, 696078, Note_on_c, 0, 81, 66
1, 696082, Note_on_c, 0, 48, 91
1, 696085, Note_on_c, 0, 36, 77
1, 696089, Note_off_c, 0, 83, 60
1, 696115, Note_off_c, 0, 36, 64
1, 696118, Note_off_c, 0, 48, 66
1, 696119, Note_on_c, 0, 79, 68
1, 696119, Note_off_c, 0, 81, 63
1, 696157, Note_off_c, 0, 79, 63
1, 696202, Note_on_c, 0, 78, 71
1, 696213, Note_on_c, 0, 51, 78
1, 696218, Note_on_c, 0, 39, 71
1, 696239, Note_off_c, 0, 51, 66
1, 696249, Note_off_c, 0, 39, 63
1, 696249, Note_off_c, 0, 78, 62
1, 696255, Note_on_c, 0, 81, 67
1, 696322, Note_on_c, 0, 79, 69
1, 696344, Note_on_c, 0, 52, 81
1, 696348, Note_on_c, 0, 40, 69
1, 696350, Note_off_c, 0, 81, 57
1, 696367, Note_off_c, 0, 52, 70
1, 696374, Note_off_c, 0, 40, 63
1, 696385, Note_off_c, 0, 79, 62
1, 696386, Note_on_c, 0, 76, 66
1, 696422, Note_off_c, 0, 76, 56
1, 696457, Note_on_c, 0, 75, 66
1, 696472, Note_on_c, 0, 54, 70
1, 696479, Note_on_c, 0, 42, 60
1, 696489, Note_off_c, 0, 75, 67
1, 696507, Note_off_c, 0, 54, 65
1, 696513, Note_on_c, 0, 77, 72
1, 696517, Note_off_c, 0, 42, 65
1, 696582, Note_on_c, 0, 76, 67
1, 696600, Note_on_c, 0, 55, 63
1, 696610, Note_off_c, 0, 77, 56
1, 696612, Note_on_c, 0, 43, 57
1, 696621, Note_off_c, 0, 55, 62
1, 696639, Note_off_c, 0, 43, 57
1, 696646, Note_on_c, 0, 72, 64
1, 696647, Note_off_c, 0, 76, 65
1, 696719, Note_on_c, 0, 51, 75
1, 696726, Note_on_c, 0, 39, 64
1, 696744, Note_off_c, 0, 51, 66
1, 696753, Note_off_c, 0, 39, 65
1, 696771, Note_off_c, 0, 72, 64
1, 696787, Note_on_c, 0, 74, 58
1, 696841, Note_on_c, 0, 52, 83
1, 696845, Note_on_c, 0, 72, 57
1, 696847, Note_on_c, 0, 40, 74
1, 696863, Note_off_c, 0, 52, 73
1, 696863, Note_off_c, 0, 74, 64
1, 696884, Note_off_c, 0, 40, 65
1, 696894, Note_off_c, 0, 72, 64
1, 696898, Note_on_c, 0, 67, 66
1, 696953, Note_off_c, 0, 67, 57
1, 696967, Note_on_c, 0, 48, 82
1, 696970, Note_on_c, 0, 36, 72
1, 696987, Note_on_c, 0, 69, 48
1, 696991, Note_off_c, 0, 48, 69
1, 697000, Note_off_c, 0, 36, 65
1, 697021, Note_off_c, 0, 69, 62
1, 697031, Note_on_c, 0, 72, 58
1, 697074, Note_on_c, 0, 71, 39
1, 697097, Note_off_c, 0, 72, 56
1, 697103, Note_on_c, 0, 53, 89
1, 697111, Note_on_c, 0, 41, 75
1, 697123, Note_on_c, 0, 69, 65
1, 697128, Note_off_c, 0, 53, 68
1, 697128, Note_off_c, 0, 71, 62
1, 697152, Note_off_c, 0, 41, 65
1, 697190, Note_off_c, 0, 69, 66
1, 697193, Note_on_c, 0, 71, 55
1, 697221, Note_on_c, 0, 72, 59
1, 697226, Note_on_c, 0, 52, 89
1, 697232, Note_on_c, 0, 40, 77
1, 697237, Note_off_c, 0, 71, 54
1, 697244, Note_off_c, 0, 72, 65
1, 697258, Note_on_c, 0, 73, 63
1, 697269, Note_off_c, 0, 52, 56
1, 697285, Note_off_c, 0, 73, 65
1, 697304, Note_off_c, 0, 40, 62
1, 697333, Note_on_c, 0, 74, 73
1, 697377, Note_on_c, 0, 50, 78
1, 697380, Note_off_c, 0, 74, 63
1, 697382, Note_on_c, 0, 38, 66
1, 697383, Note_on_c, 0, 76, 64
1, 697404, Note_off_c, 0, 50, 67
1, 697417, Note_on_c, 0, 39, 9
1, 697418, Note_off_c, 0, 39, 127
1, 697425, Note_off_c, 0, 38, 64
1, 697430, Note_on_c, 0, 77, 63
1, 697471, Note_off_c, 0, 77, 62
1, 697473, Note_off_c, 0, 76, 61
1, 697504, Note_on_c, 0, 36, 75
1, 697504, Note_on_c, 0, 48, 69
1, 697531, Note_off_c, 0, 48, 67
1, 697542, Note_off_c, 0, 36, 67
1, 697555, Note_on_c, 0, 79, 71
1, 697607, Note_on_c, 0, 81, 76
1, 697617, Note_on_c, 0, 47, 79
1, 697623, Note_on_c, 0, 35, 78
1, 697633, Note_off_c, 0, 79, 54
1, 697647, Note_off_c, 0, 47, 66
1, 697648, Note_on_c, 0, 83, 71
1, 697655, Note_off_c, 0, 81, 60
1, 697666, Note_off_c, 0, 35, 63
1, 697683, Note_off_c, 0, 83, 54
1, 697746, Note_on_c, 0, 84, 67
1, 697760, Note_on_c, 0, 43, 58
1, 697762, Note_on_c, 0, 45, 55
1, 697769, Note_on_c, 0, 31, 52
1, 697776, Note_on_c, 0, 33, 37
1, 697786, Note_off_c, 0, 43, 57
1, 697787, Note_off_c, 0, 45, 59
1, 697801, Note_on_c, 0, 86, 72
1, 697801, Note_off_c, 0, 31, 50
1, 697805, Note_off_c, 0, 84, 57
1, 697814, Note_off_c, 0, 33, 46
1, 697853, Note_on_c, 0, 88, 59
1, 697864, Note_on_c, 0, 41, 86
1, 697868, Note_on_c, 0, 29, 78
1, 697889, Note_on_c, 0, 31, 44
1, 697889, Note_off_c, 0, 86, 61
1, 697895, Note_on_c, 0, 89, 73
1, 697895, Note_off_c, 0, 41, 69
1, 697912, Note_off_c, 0, 29, 63
1, 697922, Note_off_c, 0, 31, 46
1, 697925, Note_off_c, 0, 88, 63
1, 697970, Note_off_c, 0, 89, 62
1, 697978, Note_on_c, 0, 83, 64
1, 697985, Note_on_c, 0, 40, 68
1, 697988, Note_on_c, 0, 84, 39
1, 697996, Note_on_c, 0, 38, 56
1, 698014, Note_off_c, 0, 83, 65
1, 698017, Note_off_c, 0, 40, 60
1, 698020, Note_on_c, 0, 28, 30
1, 698021, Note_off_c, 0, 28, 127
1, 698021, Note_off_c, 0, 84, 49
1, 698032, Note_off_c, 0, 38, 56
1, 698078, Poly_aftertouch_c, 0, 31, 0
1, 698088, Note_on_c, 0, 86, 78
1, 698102, Note_on_c, 0, 84, 62
1, 698106, Note_on_c, 0, 38, 92
1, 698114, Note_on_c, 0, 26, 87
1, 698139, Note_on_c, 0, 27, 32
1, 698140, Note_off_c, 0, 27, 127
1, 698150, Note_off_c, 0, 84, 0
1, 698150, Note_on_c, 0, 84, 39
1, 698159, Control_c, 0, 64, 49
1, 698166, Note_off_c, 0, 86, 53
1, 698175, Control_c, 0, 64, 75
1, 698190, Control_c, 0, 64, 92
1, 698203, Note_on_c, 0, 79, 63
1, 698204, Control_c, 0, 64, 114
1, 698219, Control_c, 0, 64, 127
1, 698223, Note_off_c, 0, 26, 61
1, 698228, Note_off_c, 0, 84, 64
1, 698245, Note_on_c, 0, 76, 61
1, 698250, Note_off_c, 0, 38, 61
1, 698260, Note_off_c, 0, 79, 61
1, 698290, Note_off_c, 0, 76, 66
1, 698340, Note_on_c, 0, 83, 77
1, 698366, Note_on_c, 0, 29, 83
1, 698367, Note_on_c, 0, 41, 87
1, 698367, Control_c, 0, 64, 117
1, 698382, Control_c, 0, 64, 90
1, 698397, Control_c, 0, 64, 66
1, 698403, Note_on_c, 0, 81, 60
1, 698404, Note_off_c, 0, 83, 56
1, 698412, Control_c, 0, 64, 0
1, 698448, Note_on_c, 0, 77, 62
1, 698456, Control_c, 0, 64, 62
1, 698467, Note_off_c, 0, 29, 55
1, 698471, Control_c, 0, 64, 74
1, 698486, Note_off_c, 0, 81, 61
1, 698486, Control_c, 0, 64, 84
1, 698492, Note_on_c, 0, 74, 71
1, 698499, Note_off_c, 0, 41, 64
1, 698501, Control_c, 0, 64, 92
1, 698516, Control_c, 0, 64, 94
1, 698521, Note_off_c, 0, 77, 60
1, 698530, Control_c, 0, 64, 95
1, 698545, Control_c, 0, 64, 96
1, 698553, Note_off_c, 0, 74, 64
1, 698560, Control_c, 0, 64, 97
1, 698590, Control_c, 0, 64, 93
1, 698595, Note_on_c, 0, 81, 91
1, 698604, Control_c, 0, 64, 80
1, 698615, Note_on_c, 0, 43, 88
1, 698618, Note_on_c, 0, 31, 78
1, 698619, Control_c, 0, 64, 59
1, 698634, Control_c, 0, 64, 0
1, 698665, Note_on_c, 0, 79, 47
1, 698679, Control_c, 0, 64, 56
1, 698690, Note_off_c, 0, 81, 56
1, 698693, Control_c, 0, 64, 74
1, 698695, Poly_aftertouch_c, 0, 33, 127
1, 698700, Note_on_c, 0, 76, 62
1, 698703, Note_off_c, 0, 31, 63
1, 698708, Control_c, 0, 64, 88
1, 698711, Note_on_c, 0, 72, 73
1, 698720, Note_off_c, 0, 79, 58
1, 698723, Note_off_c, 0, 43, 50
1, 698723, Control_c, 0, 64, 104
1, 698726, Poly_aftertouch_c, 0, 33, 0
1, 698728, Note_off_c, 0, 76, 54
1, 698738, Control_c, 0, 64, 115
1, 698760, Control_c, 0, 64, 117
1, 698771, Note_off_c, 0, 72, 64
1, 698775, Control_c, 0, 64, 120
1, 698790, Control_c, 0, 64, 125
1, 698804, Control_c, 0, 64, 127
1, 698825, Note_on_c, 0, 79, 78
1, 698837, Note_on_c, 0, 43, 94
1, 698844, Note_on_c, 0, 31, 81
1, 698865, Note_on_c, 0, 33, 51
1, 698877, Note_on_c, 0, 71, 66
1, 698894, Note_off_c, 0, 71, 64
1, 698896, Note_off_c, 0, 79, 62
1, 698898, Note_off_c, 0, 33, 60
1, 698899, Note_off_c, 0, 31, 64
1, 698906, Note_off_c, 0, 43, 63
1, 699012, Control_c, 0, 64, 121
1, 699014, Note_on_c, 0, 98, 84
1, 699017, Note_on_c, 0, 96, 80
1, 699027, Control_c, 0, 64, 107
1, 699033, Note_off_c, 0, 98, 72
1, 699042, Control_c, 0, 64, 92
1, 699057, Control_c, 0, 64, 79
1, 699072, Control_c, 0, 64, 67
1, 699086, Control_c, 0, 64, 18
1, 699101, Control_c, 0, 64, 0
1, 699150, Note_on_c, 0, 48, 88
1, 699152, Note_on_c, 0, 36, 77
1, 699155, Note_off_c, 0, 96, 63
1, 699156, Note_on_c, 0, 95, 50
1, 699161, Note_on_c, 0, 93, 41
1, 699173, Note_off_c, 0, 48, 69
1, 699179, Note_off_c, 0, 95, 63
1, 699182, Note_off_c, 0, 36, 64
1, 699191, Note_off_c, 0, 93, 63
1, 699191, Note_on_c, 0, 91, 58
1, 699209, Note_off_c, 0, 91, 59
1, 699263, Note_on_c, 0, 90, 83
1, 699268, Note_on_c, 0, 51, 80
1, 699272, Note_on_c, 0, 39, 72
1, 699286, Note_off_c, 0, 90, 67
1, 699293, Note_off_c, 0, 51, 65
1, 699309, Note_off_c, 0, 39, 65
1, 699325, Note_on_c, 0, 93, 72
1, 699386, Note_on_c, 0, 91, 68
1, 699394, Note_on_c, 0, 52, 83
1, 699399, Note_on_c, 0, 40, 71
1, 699412, Note_off_c, 0, 93, 56
1, 699419, Note_off_c, 0, 52, 70
1, 699430, Note_off_c, 0, 40, 65
1, 699442, Note_on_c, 0, 88, 65
1, 699445, Note_off_c, 0, 91, 61
1, 699479, Note_off_c, 0, 88, 58
1, 699525, Note_on_c, 0, 87, 73
1, 699534, Note_on_c, 0, 54, 75
1, 699540, Note_on_c, 0, 42, 64
1, 699559, Note_off_c, 0, 54, 65
1, 699573, Note_on_c, 0, 46, 18
1, 699574, Note_off_c, 0, 42, 64
1, 699574, Note_off_c, 0, 87, 62
1, 699577, Note_on_c, 0, 89, 67
1, 699617, Note_off_c, 0, 46, 37
1, 699645, Note_on_c, 0, 88, 74
1, 699653, Note_on_c, 0, 55, 75
1, 699662, Note_on_c, 0, 43, 69
1, 699671, Note_off_c, 0, 89, 62
1, 699677, Note_off_c, 0, 55, 68
1, 699689, Note_off_c, 0, 43, 63
1, 699703, Note_off_c, 0, 88, 63
1, 699710, Note_on_c, 0, 84, 59
1, 699758, Note_off_c, 0, 84, 59
1, 699770, Note_on_c, 0, 83, 74
1, 699785, Note_on_c, 0, 51, 73
1, 699787, Note_on_c, 0, 39, 71
1, 699811, Note_off_c, 0, 51, 65
1, 699812, Note_off_c, 0, 39, 66
1, 699825, Note_off_c, 0, 83, 61
1, 699827, Note_on_c, 0, 86, 71
1, 699881, Note_on_c, 0, 84, 66
1, 699892, Note_on_c, 0, 52, 81
1, 699894, Note_on_c, 0, 40, 70
1, 699907, Note_off_c, 0, 86, 61
1, 699916, Note_off_c, 0, 40, 63
1, 699917, Note_off_c, 0, 52, 70
1, 699942, Note_off_c, 0, 84, 65
1, 699947, Note_on_c, 0, 79, 64
1, 699983, Note_off_c, 0, 79, 57
1, 700020, Note_on_c, 0, 78, 72
1, 700029, Note_on_c, 0, 66, 85
1, 700038, Note_on_c, 0, 54, 62
1, 700052, Note_off_c, 0, 66, 68
1, 700065, Note_off_c, 0, 78, 63
1, 700067, Note_off_c, 0, 54, 64
1, 700075, Note_on_c, 0, 81, 62
1, 700136, Note_on_c, 0, 79, 68
1, 700159, Note_on_c, 0, 67, 81
1, 700159, Note_off_c, 0, 81, 58
1, 700163, Note_on_c, 0, 55, 70
1, 700178, Note_off_c, 0, 67, 71
1, 700187, Note_off_c, 0, 55, 67
1, 700196, Note_off_c, 0, 79, 62
1, 700204, Note_on_c, 0, 76, 67
1, 700264, Note_off_c, 0, 76, 55
1, 700281, Note_on_c, 0, 75, 72
1, 700288, Note_on_c, 0, 63, 79
1, 700299, Note_on_c, 0, 51, 66
1, 700310, Note_off_c, 0, 63, 70
1, 700324, Note_off_c, 0, 75, 63
1, 700328, Note_off_c, 0, 51, 65
1, 700333, Note_on_c, 0, 77, 69
1, 700403, Note_on_c, 0, 76, 65
1, 700413, Note_on_c, 0, 64, 80
1, 700420, Note_on_c, 0, 52, 72
1, 700430, Note_off_c, 0, 77, 59
1, 700433, Note_off_c, 0, 64, 71
1, 700451, Note_off_c, 0, 52, 68
1, 700455, Note_on_c, 0, 72, 65
1, 700460, Note_off_c, 0, 76, 66
1, 700485, Note_off_c, 0, 72, 65
1, 700530, Note_on_c, 0, 71, 69
1, 700541, Note_on_c, 0, 59, 82
1, 700546, Note_on_c, 0, 47, 73
1, 700562, Note_off_c, 0, 59, 67
1, 700574, Note_off_c, 0, 47, 66
1, 700576, Note_off_c, 0, 71, 63
1, 700580, Note_on_c, 0, 74, 68
1, 700644, Note_on_c, 0, 72, 63
1, 700664, Note_on_c, 0, 60, 79
1, 700664, Note_off_c, 0, 74, 53
1, 700674, Note_on_c, 0, 48, 66
1, 700688, Note_off_c, 0, 60, 69
1, 700692, Note_off_c, 0, 72, 65
1, 700693, Note_on_c, 0, 67, 66
1, 700697, Note_off_c, 0, 48, 66
1, 700734, Note_off_c, 0, 67, 54
1, 700771, Note_on_c, 0, 66, 70
1, 700794, Note_on_c, 0, 54, 71
1, 700810, Note_off_c, 0, 66, 63
1, 700812, Note_off_c, 0, 54, 64
1, 700821, Note_on_c, 0, 42, 29
1, 700822, Note_off_c, 0, 42, 127
1, 700825, Note_on_c, 0, 69, 67
1, 700888, Note_on_c, 0, 67, 65
1, 700894, Note_on_c, 0, 55, 68
1, 700904, Note_off_c, 0, 69, 63
1, 700907, Note_on_c, 0, 43, 53
1, 700922, Note_off_c, 0, 55, 66
1, 700935, Note_off_c, 0, 43, 56
1, 700939, Note_off_c, 0, 67, 62
1, 700945, Note_on_c, 0, 64, 63
1, 700980, Note_off_c, 0, 64, 59
1, 701024, Note_on_c, 0, 63, 72
1, 701028, Note_on_c, 0, 51, 72
1, 701033, Note_on_c, 0, 39, 63
1, 701057, Note_off_c, 0, 51, 65
1, 701060, Note_off_c, 0, 63, 65
1, 701065, Note_off_c, 0, 39, 63
1, 701072, Note_on_c, 0, 65, 68
1, 701136, Note_on_c, 0, 52, 76
1, 701141, Note_on_c, 0, 64, 68
1, 701144, Note_on_c, 0, 40, 68
1, 701162, Note_off_c, 0, 52, 70
1, 701163, Note_off_c, 0, 65, 60
1, 701176, Note_off_c, 0, 40, 64
1, 701196, Note_on_c, 0, 60, 58
1, 701197, Note_off_c, 0, 64, 64
1, 701229, Note_off_c, 0, 60, 64
1, 701262, Note_on_c, 0, 59, 72
1, 701266, Note_on_c, 0, 47, 71
1, 701268, Note_on_c, 0, 35, 67
1, 701289, Note_off_c, 0, 47, 63
1, 701296, Note_off_c, 0, 35, 66
1, 701310, Note_off_c, 0, 59, 62
1, 701317, Note_on_c, 0, 62, 75
1, 701382, Note_on_c, 0, 48, 68
1, 701385, Note_on_c, 0, 60, 59
1, 701388, Note_off_c, 0, 62, 61
1, 701402, Note_off_c, 0, 48, 66
1, 701405, Note_on_c, 0, 36, 39
1, 701418, Note_off_c, 0, 60, 64
1, 701431, Note_on_c, 0, 55, 65
1, 701442, Note_off_c, 0, 36, 46
1, 701467, Note_off_c, 0, 55, 62
1, 701506, Note_on_c, 0, 42, 73
1, 701511, Note_on_c, 0, 30, 62
1, 701513, Note_on_c, 0, 54, 60
1, 701534, Note_off_c, 0, 42, 66
1, 701543, Note_off_c, 0, 54, 64
1, 701545, Note_off_c, 0, 30, 62
1, 701559, Note_on_c, 0, 57, 61
1, 701617, Note_on_c, 0, 43, 73
1, 701620, Note_on_c, 0, 55, 60
1, 701623, Note_on_c, 0, 31, 66
1, 701629, Note_off_c, 0, 57, 60
1, 701642, Note_off_c, 0, 43, 62
1, 701652, Note_off_c, 0, 31, 64
1, 701662, Note_off_c, 0, 55, 65
1, 701672, Note_on_c, 0, 52, 58
1, 701708, Note_off_c, 0, 52, 61
1, 701756, Note_on_c, 0, 39, 68
1, 701757, Note_on_c, 0, 27, 67
1, 701787, Note_off_c, 0, 39, 64
1, 701788, Note_off_c, 0, 27, 65
1, 701802, Note_on_c, 0, 53, 56
1, 701861, Note_on_c, 0, 52, 50
1, 701862, Note_off_c, 0, 53, 58
1, 701869, Note_on_c, 0, 40, 79
1, 701877, Note_on_c, 0, 28, 46
1, 701903, Note_off_c, 0, 40, 66
1, 701910, Note_on_c, 0, 48, 58
1, 701910, Note_off_c, 0, 52, 66
1, 701911, Note_off_c, 0, 28, 47
1, 701934, Note_off_c, 0, 48, 60
1, 702008, Note_on_c, 0, 31, 66
1, 702026, Note_on_c, 0, 43, 62
1, 702071, Note_off_c, 0, 31, 57
1, 702071, Note_off_c, 0, 43, 62
1, 702074, Note_on_c, 0, 35, 59
1, 702083, Note_on_c, 0, 47, 69
1, 702122, Note_on_c, 0, 36, 71
1, 702130, Note_off_c, 0, 35, 63
1, 702133, Note_off_c, 0, 47, 58
1, 702136, Note_on_c, 0, 48, 65
1, 702182, Note_off_c, 0, 48, 63
1, 702187, Note_on_c, 0, 52, 66
1, 702189, Note_off_c, 0, 36, 62
1, 702207, Note_on_c, 0, 40, 53
1, 702223, Note_off_c, 0, 52, 64
1, 702235, Note_off_c, 0, 40, 55
1, 702254, Note_on_c, 0, 43, 53
1, 702262, Note_on_c, 0, 31, 54
1, 702285, Note_off_c, 0, 43, 59
1, 702291, Note_on_c, 0, 33, 40
1, 702311, Note_on_c, 0, 47, 71
1, 702318, Note_on_c, 0, 35, 70
1, 702328, Note_off_c, 0, 33, 48
1, 702340, Note_off_c, 0, 31, 60
1, 702368, Note_off_c, 0, 47, 58
1, 702372, Note_on_c, 0, 36, 66
1, 702375, Note_on_c, 0, 48, 61
1, 702383, Note_off_c, 0, 35, 63
1, 702420, Note_off_c, 0, 48, 66
1, 702422, Note_on_c, 0, 52, 72
1, 702434, Note_off_c, 0, 36, 61
1, 702442, Note_on_c, 0, 40, 62
1, 702463, Note_off_c, 0, 52, 61
1, 702469, Note_off_c, 0, 40, 57
1, 702502, Note_on_c, 0, 31, 69
1, 702507, Note_on_c, 0, 43, 56
1, 702540, Note_off_c, 0, 43, 62
1, 702560, Note_on_c, 0, 47, 72
1, 702562, Note_on_c, 0, 35, 71
1, 702589, Note_off_c, 0, 31, 57
1, 702613, Note_on_c, 0, 36, 72
1, 702616, Note_on_c, 0, 48, 65
1, 702616, Note_off_c, 0, 47, 60
1, 702628, Note_off_c, 0, 35, 63
1, 702675, Note_off_c, 0, 48, 65
1, 702677, Note_off_c, 0, 36, 64
1, 702679, Note_on_c, 0, 52, 65
1, 702682, Note_on_c, 0, 40, 66
1, 702720, Note_off_c, 0, 52, 63
1, 702729, Note_off_c, 0, 40, 58
1, 702734, Note_on_c, 0, 31, 68
1, 702737, Note_on_c, 0, 43, 58
1, 702777, Note_off_c, 0, 43, 63
1, 702798, Note_on_c, 0, 35, 73
1, 702802, Note_on_c, 0, 47, 72
1, 702837, Note_off_c, 0, 31, 57
1, 702844, Note_on_c, 0, 36, 68
1, 702844, Note_on_c, 0, 48, 64
1, 702846, Note_off_c, 0, 47, 63
1, 702873, Note_off_c, 0, 35, 64
1, 702899, Note_on_c, 0, 52, 68
1, 702899, Note_off_c, 0, 48, 64
1, 702906, Note_on_c, 0, 40, 71
1, 702909, Note_off_c, 0, 36, 63
1, 702938, Note_off_c, 0, 52, 61
1, 702954, Note_on_c, 0, 31, 69
1, 702958, Note_on_c, 0, 43, 60
1, 702968, Note_off_c, 0, 40, 60
1, 703002, Note_off_c, 0, 43, 64
1, 703013, Note_on_c, 0, 35, 66
1, 703021, Note_on_c, 0, 47, 75
1, 703054, Note_on_c, 0, 48, 82
1, 703059, Note_on_c, 0, 36, 82
1, 703060, Note_off_c, 0, 31, 63
1, 703071, Note_off_c, 0, 48, 70
1, 703080, Note_off_c, 0, 47, 67
1, 703083, Note_off_c, 0, 35, 65
1, 703093, Note_off_c, 0, 36, 69
1, 703354, Note_on_c, 0, 79, 89
1, 703354, Note_on_c, 0, 84, 98
1, 703357, Note_on_c, 0, 72, 95
1, 703358, Note_on_c, 0, 43, 86
1, 703359, Note_on_c, 0, 48, 98
1, 703360, Note_on_c, 0, 76, 87
1, 703363, Note_on_c, 0, 36, 76
1, 703365, Note_on_c, 0, 40, 84
1, 703379, Note_on_c, 0, 81, 65
1, 703421, Note_off_c, 0, 81, 47
1, 703430, Control_c, 0, 64, 68
1, 703445, Control_c, 0, 64, 84
1, 703460, Control_c, 0, 64, 111
1, 703475, Control_c, 0, 64, 127
1, 703543, Note_off_c, 0, 36, 58
1, 703549, Note_off_c, 0, 48, 58
1, 703555, Note_off_c, 0, 84, 49
1, 703567, Note_off_c, 0, 72, 59
1, 703581, Note_off_c, 0, 76, 52
1, 703585, Note_off_c, 0, 40, 58
1, 703599, Note_off_c, 0, 43, 59
1, 703609, Note_off_c, 0, 79, 58
1, 703742, Control_c, 0, 64, 124
1, 703757, Control_c, 0, 64, 109
1, 703772, Control_c, 0, 64, 98
1, 703787, Control_c, 0, 64, 86
1, 703802, Control_c, 0, 64, 75
1, 703816, Control_c, 0, 64, 60
1, 703831, Control_c, 0, 64, 0
1, 703831, End_track
0, 0, End_of_file
