0, 0, Header, 0, 1, 384
1, 0, Start_track
1, 0, Title_t, "March--Anna Denisova            "
1, 0, Text_t, "2008 e-Piano Junior Competition recital round"
1, 0, Text_t, "recorded July 2008"
1, 0, Text_t, "http://www.piano-e-competition.com/"
1, 0, Text_t, "File processed for distribution by software from Zenph Studios, Inc., http://www.zenph.com"
1, 0, Instrument_name_t, "Yamaha Disklavier Pro Mark IV concert grand piano, model DCFIIISM4PRO"
1, 0, Sequencer_specific, 39, 67, 113, 0, 1, 0, 1, 0, 77, 97, 114, 99, 104, 32, 32, 32, 32, 32, 32, 32, 32, 32, 32, 32, 65, 110, 110, 97, 32, 68, 101, 110, 105, 115, 111, 118, 97, 32, 32, 32
1, 0, Sequencer_specific, 6, 67, 113, 0, 0, 0, 69
1, 0, System_exclusive, 21, 67, 113, 126, 21, 0, 2, 2, 0, 3, 14, 1, 4, 1, 13, 13, 10, 11, 9, 2, 7, 247
1, 0, Sequencer_specific, 5, 67, 123, 12, 2, 1
1, 0, Tempo, 512820
1, 0, Time_signature, 4, 2, 24, 8
1, 0, System_exclusive, 5, 126, 127, 9, 1, 247
1, 1, System_exclusive, 8, 67, 16, 76, 0, 0, 126, 0, 247
1, 2, System_exclusive, 8, 67, 16, 76, 8, 9, 7, 1, 247
1, 3, Control_c, 0, 0, 0
1, 3, Control_c, 1, 0, 0
1, 3, Control_c, 2, 0, 0
1, 3, Control_c, 3, 0, 0
1, 3, Control_c, 4, 0, 0
1, 3, Control_c, 5, 0, 0
1, 3, Control_c, 6, 0, 0
1, 3, Control_c, 7, 0, 0
1, 3, Control_c, 8, 0, 0
1, 3, Control_c, 9, 0, 127
1, 3, Control_c, 10, 0, 0
1, 3, Control_c, 11, 0, 0
1, 3, Control_c, 12, 0, 0
1, 3, Control_c, 13, 0, 0
1, 3, Control_c, 14, 0, 0
1, 3, Control_c, 15, 0, 0
1, 4, Control_c, 0, 32, 0
1, 4, Control_c, 1, 32, 0
1, 4, Control_c, 2, 32, 0
1, 4, Control_c, 3, 32, 0
1, 4, Control_c, 4, 32, 0
1, 4, Control_c, 5, 32, 0
1, 4, Control_c, 6, 32, 0
1, 4, Control_c, 7, 32, 0
1, 4, Control_c, 8, 32, 0
1, 4, Control_c, 9, 32, 0
1, 4, Control_c, 10, 32, 0
1, 4, Control_c, 11, 32, 0
1, 4, Control_c, 12, 32, 0
1, 4, Control_c, 13, 32, 0
1, 4, Control_c, 14, 32, 0
1, 4, Control_c, 15, 32, 0
1, 5, Program_c, 0, 0
1, 5, Program_c, 1, 0
1, 5, Program_c, 2, 0
1, 5, Program_c, 3, 0
1, 5, Program_c, 4, 0
1, 5, Program_c, 5, 0
1, 5, Program_c, 6, 0
1, 5, Program_c, 7, 0
1, 5, Program_c, 8, 0
1, 5, Program_c, 9, 0
1, 5, Program_c, 10, 0
1, 5, Program_c, 11, 0
1, 5, Program_c, 12, 0
1, 5, Program_c, 13, 0
1, 5, Program_c, 14, 0
1, 5, Program_c, 15, 0
1, 6, Control_c, 0, 7, 100
1, 6, Control_c, 1, 7, 100
1, 6, Control_c, 2, 7, 100
1, 6, Control_c, 3, 7, 100
1, 6, Control_c, 4, 7, 100
1, 6, Control_c, 5, 7, 100
1, 6, Control_c, 6, 7, 100
1, 6, Control_c, 7, 7, 100
1, 6, Control_c, 8, 7, 100
1, 6, Control_c, 9, 7, 100
1, 6, Control_c, 10, 7, 100
1, 6, Control_c, 11, 7, 100
1, 6, Control_c, 12, 7, 100
1, 6, Control_c, 13, 7, 100
1, 6, Control_c, 14, 7, 100
1, 6, Control_c, 15, 7, 100
1, 117, Control_c, 0, 67, 15
1, 229, Control_c, 0, 67, 31
1, 341, Control_c, 0, 67, 46
1, 452, Control_c, 0, 67, 63
1, 564, Control_c, 0, 67, 77
1, 676, Control_c, 0, 67, 94
1, 787, Control_c, 0, 67, 108
1, 899, Control_c, 0, 67, 127
1, 1128, Note_on_c, 0, 74, 77
1, 1137, Note_on_c, 0, 71, 62
1, 1137, Note_on_c, 0, 67, 68
1, 1146, Note_off_c, 0, 74, 74
1, 1155, Note_off_c, 0, 71, 63
1, 1156, Note_off_c, 0, 67, 64
1, 1472, Note_on_c, 0, 74, 75
1, 1474, Note_on_c, 0, 71, 62
1, 1486, Note_on_c, 0, 67, 55
1, 1493, Note_off_c, 0, 74, 72
1, 1495, Note_off_c, 0, 71, 64
1, 1507, Note_off_c, 0, 67, 59
1, 1572, Note_on_c, 0, 71, 69
1, 1573, Note_on_c, 0, 74, 73
1, 1579, Note_on_c, 0, 67, 58
1, 1596, Note_off_c, 0, 74, 71
1, 1599, Note_off_c, 0, 67, 61
1, 1607, Note_off_c, 0, 71, 57
1, 1655, Note_on_c, 0, 71, 51
1, 1658, Note_on_c, 0, 74, 72
1, 1666, Note_on_c, 0, 67, 64
1, 1680, Note_off_c, 0, 74, 70
1, 1683, Note_off_c, 0, 71, 61
1, 1685, Note_off_c, 0, 67, 65
1, 1755, Note_on_c, 0, 76, 91
1, 1760, Note_on_c, 0, 64, 74
1, 1760, Note_on_c, 0, 67, 76
1, 1761, Note_on_c, 0, 71, 71
1, 1779, Note_off_c, 0, 71, 67
1, 1784, Note_off_c, 0, 64, 70
1, 1784, Note_off_c, 0, 67, 70
1, 1796, Note_off_c, 0, 76, 65
1, 2094, Note_on_c, 0, 71, 64
1, 2094, Note_on_c, 0, 76, 83
1, 2098, Note_on_c, 0, 67, 73
1, 2100, Note_on_c, 0, 64, 59
1, 2114, Note_off_c, 0, 71, 65
1, 2120, Note_off_c, 0, 64, 64
1, 2124, Note_off_c, 0, 67, 69
1, 2127, Note_off_c, 0, 76, 68
1, 2417, Note_on_c, 0, 71, 68
1, 2419, Note_on_c, 0, 78, 90
1, 2423, Note_on_c, 0, 59, 65
1, 2424, Note_on_c, 0, 66, 78
1, 2426, Note_on_c, 0, 62, 68
1, 2442, Note_off_c, 0, 71, 66
1, 2446, Note_off_c, 0, 66, 71
1, 2451, Note_off_c, 0, 78, 64
1, 2452, Note_off_c, 0, 59, 65
1, 2453, Note_off_c, 0, 62, 64
1, 2748, Note_on_c, 0, 74, 81
1, 2751, Note_on_c, 0, 71, 69
1, 2752, Note_on_c, 0, 67, 76
1, 2768, Note_off_c, 0, 74, 71
1, 2774, Note_off_c, 0, 67, 69
1, 2777, Note_off_c, 0, 71, 67
1, 3114, Note_on_c, 0, 76, 77
1, 3126, Note_on_c, 0, 67, 62
1, 3129, Note_on_c, 0, 64, 47
1, 3134, Note_on_c, 0, 71, 45
1, 3165, Control_c, 0, 64, 63
1, 3180, Control_c, 0, 64, 73
1, 3195, Control_c, 0, 64, 84
1, 3209, Control_c, 0, 64, 98
1, 3224, Control_c, 0, 64, 105
1, 3247, Control_c, 0, 64, 108
1, 3262, Control_c, 0, 64, 111
1, 3277, Control_c, 0, 64, 116
1, 3284, Note_off_c, 0, 64, 62
1, 3291, Control_c, 0, 64, 122
1, 3293, Note_off_c, 0, 71, 59
1, 3306, Control_c, 0, 64, 127
1, 3334, Note_off_c, 0, 67, 61
1, 3353, Note_off_c, 0, 76, 65
1, 3737, Control_c, 0, 64, 112
1, 3752, Control_c, 0, 64, 95
1, 3766, Control_c, 0, 64, 79
1, 3781, Control_c, 0, 64, 30
1, 3786, Note_on_c, 0, 74, 81
1, 3790, Note_on_c, 0, 71, 73
1, 3793, Note_on_c, 0, 67, 72
1, 3796, Control_c, 0, 64, 0
1, 3804, Note_off_c, 0, 74, 74
1, 3812, Note_off_c, 0, 71, 68
1, 3819, Note_off_c, 0, 67, 68
1, 4115, Note_on_c, 0, 74, 73
1, 4115, Note_on_c, 0, 71, 67
1, 4121, Note_on_c, 0, 67, 64
1, 4135, Note_off_c, 0, 74, 73
1, 4136, Note_off_c, 0, 71, 65
1, 4140, Note_off_c, 0, 67, 65
1, 4212, Note_on_c, 0, 71, 70
1, 4215, Note_on_c, 0, 67, 67
1, 4217, Note_on_c, 0, 74, 74
1, 4236, Note_off_c, 0, 74, 69
1, 4243, Note_off_c, 0, 67, 67
1, 4243, Note_off_c, 0, 71, 58
1, 4291, Note_on_c, 0, 74, 81
1, 4295, Note_on_c, 0, 71, 59
1, 4308, Note_on_c, 0, 67, 68
1, 4314, Note_off_c, 0, 74, 68
1, 4325, Note_off_c, 0, 67, 66
1, 4329, Note_off_c, 0, 71, 64
1, 4386, Note_on_c, 0, 76, 87
1, 4388, Note_on_c, 0, 64, 74
1, 4389, Note_on_c, 0, 67, 78
1, 4401, Note_on_c, 0, 71, 60
1, 4411, Note_off_c, 0, 67, 67
1, 4413, Note_off_c, 0, 64, 69
1, 4417, Note_off_c, 0, 76, 61
1, 4418, Note_off_c, 0, 71, 62
1, 4711, Note_on_c, 0, 76, 83
1, 4713, Note_on_c, 0, 67, 74
1, 4714, Note_on_c, 0, 71, 59
1, 4717, Note_on_c, 0, 64, 63
1, 4732, Note_off_c, 0, 71, 63
1, 4744, Note_off_c, 0, 64, 65
1, 4746, Note_off_c, 0, 67, 68
1, 4750, Note_off_c, 0, 76, 68
1, 5036, Note_on_c, 0, 71, 68
1, 5038, Note_on_c, 0, 78, 87
1, 5041, Note_on_c, 0, 66, 80
1, 5044, Note_on_c, 0, 59, 59
1, 5048, Note_on_c, 0, 62, 68
1, 5060, Note_off_c, 0, 71, 67
1, 5063, Note_off_c, 0, 66, 72
1, 5075, Note_off_c, 0, 78, 63
1, 5076, Note_off_c, 0, 59, 63
1, 5078, Note_off_c, 0, 62, 64
1, 5371, Note_on_c, 0, 71, 69
1, 5374, Note_on_c, 0, 74, 80
1, 5380, Note_on_c, 0, 67, 70
1, 5394, Note_off_c, 0, 74, 71
1, 5397, Note_off_c, 0, 71, 67
1, 5406, Note_off_c, 0, 67, 69
1, 5724, Note_on_c, 0, 76, 72
1, 5726, Note_on_c, 0, 71, 57
1, 5734, Note_on_c, 0, 67, 55
1, 5740, Note_on_c, 0, 64, 49
1, 5776, Control_c, 0, 64, 64
1, 5790, Control_c, 0, 64, 76
1, 5805, Control_c, 0, 64, 93
1, 5817, Note_off_c, 0, 71, 59
1, 5820, Control_c, 0, 64, 107
1, 5832, Note_off_c, 0, 64, 62
1, 5835, Control_c, 0, 64, 115
1, 5850, Control_c, 0, 64, 120
1, 5856, Note_off_c, 0, 67, 62
1, 5865, Note_off_c, 0, 76, 65
1, 5865, Control_c, 0, 64, 124
1, 5880, Control_c, 0, 64, 127
1, 6250, Note_on_c, 0, 64, 58
1, 6257, Control_c, 0, 64, 115
1, 6272, Control_c, 0, 64, 99
1, 6287, Control_c, 0, 64, 79
1, 6302, Control_c, 0, 64, 58
1, 6313, Note_on_c, 0, 45, 69
1, 6315, Note_on_c, 0, 72, 71
1, 6316, Control_c, 0, 64, 0
1, 6318, Note_on_c, 0, 33, 58
1, 6342, Note_off_c, 0, 45, 66
1, 6342, Note_off_c, 0, 72, 67
1, 6345, Note_off_c, 0, 33, 63
1, 6480, Note_on_c, 0, 32, 59
1, 6482, Note_on_c, 0, 44, 57
1, 6509, Note_off_c, 0, 44, 58
1, 6513, Note_off_c, 0, 32, 63
1, 6556, Note_on_c, 0, 74, 62
1, 6623, Note_off_c, 0, 74, 55
1, 6626, Note_on_c, 0, 45, 69
1, 6631, Note_on_c, 0, 72, 69
1, 6632, Note_on_c, 0, 33, 57
1, 6655, Note_off_c, 0, 45, 66
1, 6658, Note_off_c, 0, 72, 65
1, 6661, Note_off_c, 0, 33, 63
1, 6787, Note_on_c, 0, 47, 67
1, 6795, Note_on_c, 0, 35, 54
1, 6810, Note_off_c, 0, 47, 63
1, 6823, Note_off_c, 0, 35, 59
1, 6870, Note_on_c, 0, 71, 64
1, 6890, Note_off_c, 0, 64, 58
1, 6908, Note_off_c, 0, 71, 52
1, 6939, Note_on_c, 0, 48, 75
1, 6943, Note_on_c, 0, 36, 67
1, 6943, Note_on_c, 0, 69, 77
1, 6963, Note_off_c, 0, 48, 68
1, 6970, Note_off_c, 0, 36, 65
1, 6972, Note_off_c, 0, 69, 65
1, 7102, Note_on_c, 0, 49, 65
1, 7123, Note_off_c, 0, 49, 63
1, 7127, Note_on_c, 0, 39, 17
1, 7128, Note_off_c, 0, 39, 127
1, 7164, Note_on_c, 0, 67, 68
1, 7191, Note_off_c, 0, 67, 67
1, 7233, Note_on_c, 0, 50, 78
1, 7235, Note_on_c, 0, 66, 82
1, 7239, Note_on_c, 0, 38, 71
1, 7244, Note_on_c, 0, 57, 69
1, 7255, Note_off_c, 0, 50, 67
1, 7266, Note_off_c, 0, 57, 64
1, 7267, Note_off_c, 0, 66, 64
1, 7275, Note_off_c, 0, 38, 63
1, 7408, Note_on_c, 0, 42, 62
1, 7409, Note_on_c, 0, 30, 61
1, 7435, Note_off_c, 0, 42, 63
1, 7441, Note_off_c, 0, 30, 62
1, 7463, Note_on_c, 0, 62, 74
1, 7536, Note_on_c, 0, 71, 81
1, 7542, Note_on_c, 0, 43, 68
1, 7543, Note_on_c, 0, 31, 66
1, 7571, Note_off_c, 0, 43, 62
1, 7574, Note_off_c, 0, 31, 64
1, 7577, Note_off_c, 0, 71, 55
1, 7695, Note_on_c, 0, 30, 64
1, 7695, Note_on_c, 0, 42, 63
1, 7725, Note_off_c, 0, 30, 62
1, 7729, Note_off_c, 0, 42, 64
1, 7772, Note_on_c, 0, 72, 67
1, 7838, Note_off_c, 0, 72, 55
1, 7847, Note_on_c, 0, 71, 75
1, 7847, Note_on_c, 0, 31, 62
1, 7847, Note_on_c, 0, 43, 64
1, 7872, Note_off_c, 0, 43, 59
1, 7880, Note_off_c, 0, 31, 64
1, 7886, Note_off_c, 0, 71, 54
1, 8004, Note_on_c, 0, 45, 66
1, 8008, Note_on_c, 0, 33, 61
1, 8028, Note_off_c, 0, 45, 67
1, 8037, Note_off_c, 0, 33, 65
1, 8077, Note_on_c, 0, 69, 68
1, 8093, Note_off_c, 0, 62, 50
1, 8110, Note_off_c, 0, 69, 59
1, 8144, Note_on_c, 0, 46, 75
1, 8148, Note_on_c, 0, 67, 71
1, 8149, Note_on_c, 0, 34, 62
1, 8174, Note_off_c, 0, 67, 67
1, 8175, Note_off_c, 0, 46, 62
1, 8183, Note_off_c, 0, 34, 64
1, 8302, Note_on_c, 0, 47, 69
1, 8305, Note_on_c, 0, 35, 61
1, 8330, Note_off_c, 0, 47, 66
1, 8336, Note_off_c, 0, 35, 65
1, 8363, Note_on_c, 0, 66, 63
1, 8406, Note_off_c, 0, 66, 54
1, 8437, Note_on_c, 0, 55, 70
1, 8439, Note_on_c, 0, 36, 69
1, 8439, Note_on_c, 0, 48, 66
1, 8440, Note_on_c, 0, 64, 63
1, 8455, Note_off_c, 0, 55, 66
1, 8460, Note_off_c, 0, 48, 65
1, 8469, Note_off_c, 0, 36, 64
1, 8485, Note_off_c, 0, 64, 64
1, 8597, Note_on_c, 0, 28, 64
1, 8598, Note_on_c, 0, 40, 58
1, 8625, Note_off_c, 0, 40, 57
1, 8627, Note_off_c, 0, 28, 61
1, 8648, Note_on_c, 0, 67, 69
1, 8711, Control_c, 0, 67, 111
1, 8726, Control_c, 0, 64, 67
1, 8726, Control_c, 0, 67, 75
1, 8734, Note_on_c, 0, 66, 70
1, 8739, Note_off_c, 0, 67, 31
1, 8741, Control_c, 0, 64, 79
1, 8741, Control_c, 0, 67, 41
1, 8745, Note_on_c, 0, 60, 66
1, 8750, Note_on_c, 0, 33, 64
1, 8751, Note_on_c, 0, 45, 56
1, 8754, Control_c, 0, 64, 92
1, 8754, Control_c, 0, 67, 10
1, 8769, Control_c, 0, 64, 103
1, 8769, Control_c, 0, 67, 0
1, 8777, Note_off_c, 0, 33, 64
1, 8778, Note_off_c, 0, 45, 63
1, 8784, Control_c, 0, 64, 106
1, 8799, Control_c, 0, 64, 108
1, 8807, Note_off_c, 0, 60, 57
1, 8814, Control_c, 0, 64, 109
1, 8828, Control_c, 0, 64, 111
1, 8831, Note_off_c, 0, 66, 62
1, 8843, Control_c, 0, 64, 112
1, 8858, Control_c, 0, 64, 112
1, 8892, Note_on_c, 0, 46, 68
1, 8893, Note_on_c, 0, 34, 62
1, 8923, Note_off_c, 0, 46, 63
1, 8926, Note_off_c, 0, 34, 64
1, 8938, Note_on_c, 0, 64, 66
1, 8963, Control_c, 0, 64, 111
1, 8968, Note_off_c, 0, 64, 66
1, 8977, Control_c, 0, 64, 104
1, 8992, Control_c, 0, 64, 91
1, 9007, Control_c, 0, 64, 76
1, 9022, Control_c, 0, 64, 42
1, 9030, Note_on_c, 0, 54, 76
1, 9031, Note_on_c, 0, 47, 76
1, 9031, Note_on_c, 0, 63, 72
1, 9035, Note_on_c, 0, 35, 61
1, 9037, Control_c, 0, 64, 0
1, 9056, Note_off_c, 0, 54, 65
1, 9057, Note_off_c, 0, 47, 66
1, 9059, Note_off_c, 0, 63, 65
1, 9066, Note_off_c, 0, 35, 64
1, 9179, Note_on_c, 0, 48, 77
1, 9183, Note_on_c, 0, 36, 70
1, 9204, Note_off_c, 0, 48, 67
1, 9210, Note_off_c, 0, 36, 65
1, 9244, Note_on_c, 0, 69, 57
1, 9271, Note_off_c, 0, 69, 66
1, 9322, Note_on_c, 0, 67, 97
1, 9326, Note_on_c, 0, 49, 74
1, 9327, Note_on_c, 0, 37, 69
1, 9331, Note_on_c, 0, 57, 81
1, 9334, Note_on_c, 0, 59, 76
1, 9354, Note_off_c, 0, 49, 64
1, 9356, Control_c, 0, 64, 66
1, 9360, Note_off_c, 0, 37, 65
1, 9369, Note_off_c, 0, 59, 52
1, 9371, Control_c, 0, 64, 79
1, 9383, Note_off_c, 0, 57, 53
1, 9385, Control_c, 0, 64, 93
1, 9400, Control_c, 0, 64, 105
1, 9412, Note_off_c, 0, 67, 58
1, 9415, Control_c, 0, 64, 110
1, 9430, Control_c, 0, 64, 111
1, 9445, Control_c, 0, 64, 112
1, 9459, Control_c, 0, 64, 113
1, 9473, Note_on_c, 0, 51, 74
1, 9474, Control_c, 0, 64, 113
1, 9477, Note_on_c, 0, 39, 64
1, 9499, Note_off_c, 0, 51, 65
1, 9506, Note_off_c, 0, 39, 63
1, 9526, Note_on_c, 0, 66, 78
1, 9560, Note_off_c, 0, 66, 65
1, 9592, Control_c, 0, 64, 112
1, 9607, Control_c, 0, 64, 104
1, 9612, Note_on_c, 0, 52, 85
1, 9612, Note_on_c, 0, 64, 82
1, 9614, Note_on_c, 0, 40, 75
1, 9615, Note_on_c, 0, 55, 79
1, 9622, Control_c, 0, 64, 87
1, 9637, Control_c, 0, 64, 70
1, 9640, Note_off_c, 0, 55, 70
1, 9642, Note_off_c, 0, 52, 65
1, 9645, Note_off_c, 0, 40, 65
1, 9651, Control_c, 0, 64, 0
1, 9660, Note_off_c, 0, 64, 64
1, 9760, Note_on_c, 0, 55, 68
1, 9761, Note_on_c, 0, 43, 73
1, 9780, Note_off_c, 0, 55, 66
1, 9792, Note_off_c, 0, 43, 62
1, 9821, Note_on_c, 0, 71, 82
1, 9853, Note_off_c, 0, 71, 59
1, 9896, Note_on_c, 0, 72, 95
1, 9899, Note_on_c, 0, 64, 88
1, 9903, Note_on_c, 0, 57, 81
1, 9909, Note_on_c, 0, 45, 69
1, 9925, Note_off_c, 0, 57, 68
1, 9936, Note_off_c, 0, 45, 66
1, 9952, Note_off_c, 0, 72, 58
1, 10072, Note_on_c, 0, 59, 70
1, 10077, Note_on_c, 0, 47, 68
1, 10099, Note_off_c, 0, 59, 65
1, 10104, Note_off_c, 0, 47, 66
1, 10120, Note_on_c, 0, 71, 71
1, 10141, Note_off_c, 0, 64, 62
1, 10147, Note_off_c, 0, 71, 63
1, 10194, Note_on_c, 0, 69, 88
1, 10204, Note_on_c, 0, 48, 76
1, 10205, Note_on_c, 0, 60, 82
1, 10226, Note_off_c, 0, 60, 69
1, 10233, Note_off_c, 0, 48, 69
1, 10233, Note_off_c, 0, 69, 67
1, 10342, Note_on_c, 0, 61, 71
1, 10347, Note_on_c, 0, 49, 63
1, 10368, Note_off_c, 0, 61, 66
1, 10376, Note_off_c, 0, 49, 65
1, 10399, Note_on_c, 0, 67, 80
1, 10428, Note_off_c, 0, 67, 62
1, 10479, Note_on_c, 0, 66, 91
1, 10482, Note_on_c, 0, 74, 78
1, 10485, Note_on_c, 0, 62, 88
1, 10486, Note_on_c, 0, 50, 71
1, 10491, Note_on_c, 0, 54, 70
1, 10496, Note_on_c, 0, 57, 67
1, 10498, Note_off_c, 0, 66, 72
1, 10505, Control_c, 0, 64, 72
1, 10515, Note_off_c, 0, 74, 67
1, 10520, Control_c, 0, 64, 93
1, 10523, Note_off_c, 0, 62, 49
1, 10524, Note_off_c, 0, 57, 65
1, 10525, Note_off_c, 0, 54, 65
1, 10527, Note_off_c, 0, 50, 64
1, 10535, Control_c, 0, 64, 127
1, 10743, Note_on_c, 0, 93, 69
1, 10777, Note_on_c, 0, 95, 61
1, 10792, Note_on_c, 0, 97, 78
1, 10798, Note_off_c, 0, 93, 61
1, 10804, Note_off_c, 0, 95, 64
1, 10830, Note_on_c, 0, 90, 93
1, 10831, Note_on_c, 0, 98, 93
1, 10834, Note_on_c, 0, 74, 92
1, 10837, Note_on_c, 0, 62, 78
1, 10843, Note_on_c, 0, 69, 78
1, 10847, Note_on_c, 0, 66, 80
1, 10853, Control_c, 0, 64, 115
1, 10856, Note_off_c, 0, 74, 68
1, 10862, Note_off_c, 0, 90, 63
1, 10865, Note_off_c, 0, 98, 68
1, 10866, Note_off_c, 0, 69, 71
1, 10867, Note_off_c, 0, 97, 65
1, 10868, Control_c, 0, 64, 86
1, 10874, Note_off_c, 0, 62, 61
1, 10877, Note_off_c, 0, 66, 67
1, 10883, Control_c, 0, 64, 66
1, 10898, Control_c, 0, 64, 0
1, 10912, Control_c, 0, 67, 11
1, 10927, Control_c, 0, 67, 22
1, 10942, Control_c, 0, 67, 39
1, 10956, Control_c, 0, 67, 65
1, 10971, Control_c, 0, 67, 87
1, 10986, Control_c, 0, 67, 107
1, 11001, Control_c, 0, 67, 123
1, 11016, Control_c, 0, 67, 127
1, 11180, Note_on_c, 0, 74, 77
1, 11183, Note_on_c, 0, 71, 71
1, 11185, Note_on_c, 0, 67, 71
1, 11201, Note_off_c, 0, 74, 73
1, 11206, Note_off_c, 0, 71, 68
1, 11211, Note_off_c, 0, 67, 69
1, 11520, Note_on_c, 0, 74, 71
1, 11524, Note_on_c, 0, 67, 63
1, 11540, Note_off_c, 0, 74, 73
1, 11541, Note_on_c, 0, 71, 37
1, 11549, Note_off_c, 0, 67, 65
1, 11570, Note_off_c, 0, 71, 33
1, 11621, Note_on_c, 0, 67, 68
1, 11621, Note_on_c, 0, 74, 71
1, 11639, Note_on_c, 0, 71, 57
1, 11640, Note_off_c, 0, 74, 70
1, 11648, Note_off_c, 0, 67, 67
1, 11658, Note_off_c, 0, 71, 61
1, 11693, Note_on_c, 0, 74, 79
1, 11713, Note_off_c, 0, 74, 72
1, 11719, Note_on_c, 0, 67, 48
1, 11746, Note_off_c, 0, 67, 37
1, 11790, Note_on_c, 0, 76, 89
1, 11799, Note_on_c, 0, 64, 70
1, 11806, Note_on_c, 0, 71, 53
1, 11809, Note_on_c, 0, 67, 65
1, 11815, Note_off_c, 0, 76, 62
1, 11819, Note_off_c, 0, 64, 67
1, 11827, Note_off_c, 0, 67, 63
1, 11828, Note_off_c, 0, 71, 55
1, 12111, Note_on_c, 0, 76, 84
1, 12118, Note_on_c, 0, 71, 64
1, 12119, Note_on_c, 0, 64, 63
1, 12122, Note_on_c, 0, 67, 67
1, 12136, Note_off_c, 0, 71, 65
1, 12139, Note_off_c, 0, 64, 66
1, 12140, Note_off_c, 0, 67, 65
1, 12145, Note_off_c, 0, 76, 68
1, 12437, Note_on_c, 0, 78, 89
1, 12440, Note_on_c, 0, 71, 70
1, 12444, Note_on_c, 0, 66, 80
1, 12447, Note_on_c, 0, 59, 64
1, 12452, Note_on_c, 0, 62, 66
1, 12464, Note_off_c, 0, 71, 68
1, 12466, Note_off_c, 0, 66, 70
1, 12473, Note_off_c, 0, 78, 64
1, 12477, Note_off_c, 0, 59, 65
1, 12482, Note_off_c, 0, 62, 63
1, 12772, Note_on_c, 0, 74, 82
1, 12778, Note_on_c, 0, 67, 74
1, 12783, Note_on_c, 0, 71, 60
1, 12793, Note_off_c, 0, 74, 70
1, 12802, Note_off_c, 0, 67, 70
1, 12802, Note_off_c, 0, 71, 64
1, 13141, Note_on_c, 0, 76, 77
1, 13153, Note_on_c, 0, 67, 64
1, 13156, Note_on_c, 0, 71, 46
1, 13157, Note_on_c, 0, 64, 48
1, 13204, Control_c, 0, 64, 66
1, 13219, Control_c, 0, 64, 77
1, 13233, Control_c, 0, 64, 91
1, 13249, Control_c, 0, 64, 102
1, 13264, Control_c, 0, 64, 107
1, 13278, Control_c, 0, 64, 109
1, 13293, Control_c, 0, 64, 111
1, 13308, Control_c, 0, 64, 115
1, 13323, Control_c, 0, 64, 121
1, 13338, Control_c, 0, 64, 127
1, 13367, Note_off_c, 0, 64, 61
1, 13377, Note_off_c, 0, 71, 60
1, 13389, Note_off_c, 0, 67, 61
1, 13413, Note_off_c, 0, 76, 66
1, 13776, Control_c, 0, 64, 110
1, 13790, Control_c, 0, 64, 93
1, 13805, Control_c, 0, 64, 75
1, 13812, Note_on_c, 0, 74, 81
1, 13816, Note_on_c, 0, 67, 73
1, 13816, Note_on_c, 0, 71, 67
1, 13820, Control_c, 0, 64, 18
1, 13830, Note_off_c, 0, 74, 74
1, 13834, Note_off_c, 0, 67, 67
1, 13835, Control_c, 0, 64, 0
1, 13840, Note_off_c, 0, 71, 68
1, 14135, Note_on_c, 0, 71, 60
1, 14135, Note_on_c, 0, 74, 71
1, 14140, Note_on_c, 0, 67, 65
1, 14156, Note_off_c, 0, 71, 65
1, 14156, Note_off_c, 0, 74, 73
1, 14166, Note_off_c, 0, 67, 65
1, 14233, Note_on_c, 0, 71, 71
1, 14241, Note_on_c, 0, 67, 65
1, 14244, Note_on_c, 0, 74, 66
1, 14259, Note_off_c, 0, 67, 66
1, 14259, Note_off_c, 0, 74, 69
1, 14264, Note_off_c, 0, 71, 61
1, 14316, Note_on_c, 0, 74, 80
1, 14321, Note_on_c, 0, 71, 63
1, 14327, Note_on_c, 0, 67, 68
1, 14335, Note_off_c, 0, 74, 72
1, 14346, Note_off_c, 0, 67, 67
1, 14351, Note_off_c, 0, 71, 66
1, 14414, Note_on_c, 0, 76, 89
1, 14416, Note_on_c, 0, 64, 75
1, 14417, Note_on_c, 0, 67, 77
1, 14423, Note_on_c, 0, 71, 68
1, 14440, Note_off_c, 0, 64, 69
1, 14440, Note_off_c, 0, 67, 68
1, 14441, Note_off_c, 0, 71, 64
1, 14445, Note_off_c, 0, 76, 59
1, 14728, Note_on_c, 0, 76, 82
1, 14729, Note_on_c, 0, 71, 63
1, 14735, Note_on_c, 0, 67, 70
1, 14737, Note_on_c, 0, 64, 58
1, 14756, Note_off_c, 0, 71, 67
1, 14757, Note_off_c, 0, 64, 64
1, 14759, Note_off_c, 0, 76, 66
1, 14760, Note_off_c, 0, 67, 69
1, 15049, Note_on_c, 0, 71, 67
1, 15050, Note_on_c, 0, 78, 87
1, 15055, Note_on_c, 0, 66, 80
1, 15056, Note_on_c, 0, 59, 63
1, 15061, Note_on_c, 0, 62, 66
1, 15073, Note_off_c, 0, 71, 66
1, 15076, Note_off_c, 0, 66, 70
1, 15082, Note_off_c, 0, 78, 64
1, 15088, Note_off_c, 0, 59, 64
1, 15089, Note_off_c, 0, 62, 64
1, 15386, Note_on_c, 0, 74, 81
1, 15392, Note_on_c, 0, 67, 72
1, 15392, Note_on_c, 0, 71, 63
1, 15407, Note_off_c, 0, 74, 71
1, 15414, Note_off_c, 0, 71, 65
1, 15417, Note_off_c, 0, 67, 69
1, 15734, Note_on_c, 0, 76, 67
1, 15738, Note_on_c, 0, 67, 59
1, 15740, Note_on_c, 0, 71, 54
1, 15750, Note_on_c, 0, 64, 45
1, 15776, Control_c, 0, 64, 65
1, 15791, Control_c, 0, 64, 75
1, 15806, Control_c, 0, 64, 88
1, 15820, Control_c, 0, 64, 100
1, 15822, Note_off_c, 0, 71, 58
1, 15835, Control_c, 0, 64, 109
1, 15839, Note_off_c, 0, 64, 62
1, 15850, Control_c, 0, 64, 114
1, 15853, Note_off_c, 0, 67, 61
1, 15864, Note_off_c, 0, 76, 64
1, 15865, Control_c, 0, 64, 120
1, 15865, Control_c, 0, 67, 124
1, 15880, Control_c, 0, 64, 127
1, 15880, Control_c, 0, 67, 101
1, 15894, Control_c, 0, 67, 72
1, 15909, Control_c, 0, 67, 38
1, 15924, Control_c, 0, 67, 16
1, 15939, Control_c, 0, 67, 0
1, 16247, Note_on_c, 0, 64, 58
1, 16258, Control_c, 0, 64, 120
1, 16273, Control_c, 0, 64, 102
1, 16288, Control_c, 0, 64, 85
1, 16303, Control_c, 0, 64, 67
1, 16317, Control_c, 0, 64, 0
1, 16322, Note_on_c, 0, 72, 71
1, 16329, Note_on_c, 0, 45, 73
1, 16334, Note_on_c, 0, 33, 64
1, 16348, Note_off_c, 0, 72, 67
1, 16355, Note_off_c, 0, 45, 66
1, 16364, Note_off_c, 0, 33, 65
1, 16450, Control_c, 0, 67, 8
1, 16480, Control_c, 0, 67, 8
1, 16489, Note_on_c, 0, 44, 63
1, 16489, Note_on_c, 0, 32, 62
1, 16517, Note_off_c, 0, 32, 64
1, 16519, Note_off_c, 0, 44, 65
1, 16540, Control_c, 0, 67, 8
1, 16540, Note_on_c, 0, 74, 62
1, 16608, Note_off_c, 0, 74, 54
1, 16623, Note_on_c, 0, 72, 68
1, 16629, Note_on_c, 0, 45, 70
1, 16635, Note_on_c, 0, 33, 58
1, 16657, Note_off_c, 0, 45, 66
1, 16657, Note_off_c, 0, 72, 58
1, 16662, Note_off_c, 0, 33, 59
1, 16739, Control_c, 0, 67, 8
1, 16754, Control_c, 0, 67, 9
1, 16769, Control_c, 0, 67, 9
1, 16784, Control_c, 0, 67, 10
1, 16790, Note_on_c, 0, 47, 69
1, 16799, Control_c, 0, 67, 13
1, 16805, Note_on_c, 0, 35, 50
1, 16814, Control_c, 0, 67, 19
1, 16818, Note_off_c, 0, 47, 66
1, 16829, Control_c, 0, 67, 30
1, 16837, Note_off_c, 0, 35, 53
1, 16844, Control_c, 0, 67, 51
1, 16858, Control_c, 0, 67, 81
1, 16870, Note_on_c, 0, 71, 55
1, 16873, Control_c, 0, 67, 111
1, 16885, Note_off_c, 0, 64, 58
1, 16888, Control_c, 0, 67, 127
1, 16898, Note_off_c, 0, 71, 52
1, 16942, Note_on_c, 0, 48, 77
1, 16945, Note_on_c, 0, 69, 75
1, 16948, Note_on_c, 0, 36, 66
1, 16963, Note_off_c, 0, 48, 69
1, 16972, Note_off_c, 0, 69, 68
1, 16977, Note_off_c, 0, 36, 65
1, 17089, Note_on_c, 0, 49, 67
1, 17097, Note_on_c, 0, 37, 56
1, 17118, Note_off_c, 0, 49, 64
1, 17128, Note_off_c, 0, 37, 65
1, 17156, Note_on_c, 0, 67, 63
1, 17188, Note_off_c, 0, 67, 63
1, 17221, Note_on_c, 0, 66, 75
1, 17225, Note_on_c, 0, 57, 71
1, 17227, Note_on_c, 0, 50, 75
1, 17228, Note_on_c, 0, 38, 70
1, 17250, Note_off_c, 0, 66, 66
1, 17251, Note_off_c, 0, 57, 66
1, 17252, Note_off_c, 0, 50, 67
1, 17261, Note_off_c, 0, 38, 61
1, 17381, Note_on_c, 0, 48, 74
1, 17388, Note_on_c, 0, 36, 63
1, 17402, Note_off_c, 0, 48, 67
1, 17422, Note_off_c, 0, 36, 64
1, 17435, Note_on_c, 0, 69, 75
1, 17468, Note_off_c, 0, 69, 68
1, 17521, Note_on_c, 0, 66, 86
1, 17523, Note_on_c, 0, 74, 75
1, 17536, Note_on_c, 0, 47, 72
1, 17546, Note_on_c, 0, 35, 60
1, 17558, Note_off_c, 0, 47, 65
1, 17568, Note_off_c, 0, 74, 62
1, 17572, Note_off_c, 0, 35, 59
1, 17685, Note_on_c, 0, 46, 75
1, 17690, Note_on_c, 0, 34, 62
1, 17712, Note_off_c, 0, 46, 65
1, 17720, Note_off_c, 0, 34, 65
1, 17748, Note_on_c, 0, 76, 62
1, 17820, Note_on_c, 0, 74, 71
1, 17822, Note_on_c, 0, 47, 75
1, 17830, Note_on_c, 0, 35, 60
1, 17832, Note_off_c, 0, 76, 54
1, 17848, Note_off_c, 0, 47, 67
1, 17857, Note_off_c, 0, 35, 61
1, 17866, Note_off_c, 0, 74, 61
1, 17978, Note_on_c, 0, 48, 69
1, 17985, Note_on_c, 0, 36, 59
1, 17997, Note_off_c, 0, 66, 57
1, 18007, Note_off_c, 0, 48, 67
1, 18012, Note_off_c, 0, 36, 60
1, 18042, Note_on_c, 0, 72, 70
1, 18070, Note_off_c, 0, 72, 63
1, 18116, Note_on_c, 0, 50, 77
1, 18120, Note_on_c, 0, 38, 67
1, 18121, Note_on_c, 0, 71, 77
1, 18140, Note_off_c, 0, 50, 66
1, 18147, Note_off_c, 0, 38, 64
1, 18153, Note_off_c, 0, 71, 60
1, 18276, Note_on_c, 0, 51, 67
1, 18280, Note_on_c, 0, 39, 59
1, 18303, Note_off_c, 0, 51, 65
1, 18312, Note_off_c, 0, 39, 64
1, 18337, Note_on_c, 0, 69, 73
1, 18372, Note_off_c, 0, 69, 61
1, 18401, Control_c, 0, 67, 126
1, 18411, Note_on_c, 0, 67, 77
1, 18414, Note_on_c, 0, 40, 72
1, 18414, Note_on_c, 0, 52, 74
1, 18415, Note_on_c, 0, 59, 70
1, 18416, Control_c, 0, 67, 125
1, 18430, Control_c, 0, 67, 123
1, 18438, Note_off_c, 0, 52, 71
1, 18438, Note_off_c, 0, 67, 63
1, 18439, Note_off_c, 0, 59, 66
1, 18445, Control_c, 0, 67, 121
1, 18449, Note_off_c, 0, 40, 65
1, 18460, Control_c, 0, 67, 120
1, 18474, Control_c, 0, 67, 120
1, 18489, Control_c, 0, 67, 120
1, 18505, Control_c, 0, 67, 121
1, 18565, Note_on_c, 0, 50, 68
1, 18567, Note_on_c, 0, 38, 64
1, 18587, Note_off_c, 0, 50, 66
1, 18593, Control_c, 0, 67, 121
1, 18605, Note_off_c, 0, 38, 63
1, 18628, Note_on_c, 0, 71, 82
1, 18638, Control_c, 0, 67, 121
1, 18653, Note_off_c, 0, 71, 62
1, 18683, Control_c, 0, 67, 122
1, 18704, Note_on_c, 0, 76, 96
1, 18710, Note_on_c, 0, 67, 83
1, 18711, Note_on_c, 0, 48, 74
1, 18713, Note_on_c, 0, 36, 71
1, 18731, Note_off_c, 0, 67, 69
1, 18737, Note_off_c, 0, 48, 67
1, 18742, Note_off_c, 0, 36, 64
1, 18748, Note_off_c, 0, 76, 65
1, 18801, Control_c, 0, 67, 122
1, 18816, Control_c, 0, 67, 123
1, 18845, Control_c, 0, 67, 123
1, 18864, Note_on_c, 0, 47, 73
1, 18870, Note_on_c, 0, 35, 64
1, 18892, Note_off_c, 0, 47, 67
1, 18906, Note_off_c, 0, 35, 65
1, 18916, Note_on_c, 0, 74, 74
1, 18919, Control_c, 0, 67, 123
1, 18934, Control_c, 0, 67, 122
1, 18942, Note_off_c, 0, 74, 65
1, 18971, Control_c, 0, 67, 121
1, 18986, Control_c, 0, 67, 120
1, 19001, Control_c, 0, 67, 118
1, 19002, Note_on_c, 0, 72, 90
1, 19005, Note_on_c, 0, 69, 83
1, 19011, Note_on_c, 0, 33, 71
1, 19011, Note_on_c, 0, 45, 73
1, 19016, Control_c, 0, 67, 115
1, 19031, Control_c, 0, 67, 107
1, 19035, Note_off_c, 0, 33, 67
1, 19038, Note_off_c, 0, 45, 65
1, 19045, Control_c, 0, 67, 92
1, 19060, Control_c, 0, 67, 75
1, 19075, Control_c, 0, 67, 56
1, 19089, Control_c, 0, 67, 39
1, 19104, Control_c, 0, 67, 27
1, 19119, Control_c, 0, 67, 20
1, 19134, Control_c, 0, 67, 17
1, 19149, Control_c, 0, 67, 16
1, 19157, Note_on_c, 0, 48, 78
1, 19162, Note_on_c, 0, 36, 70
1, 19164, Control_c, 0, 67, 15
1, 19181, Note_off_c, 0, 48, 68
1, 19190, Note_off_c, 0, 36, 64
1, 19190, Note_off_c, 0, 72, 55
1, 19205, Note_on_c, 0, 76, 72
1, 19228, Note_off_c, 0, 69, 60
1, 19237, Control_c, 0, 67, 15
1, 19273, Note_on_c, 0, 78, 89
1, 19282, Note_off_c, 0, 76, 60
1, 19297, Note_on_c, 0, 50, 81
1, 19299, Note_on_c, 0, 38, 74
1, 19318, Note_off_c, 0, 78, 63
1, 19320, Note_off_c, 0, 50, 67
1, 19333, Note_off_c, 0, 38, 62
1, 19357, Control_c, 0, 67, 15
1, 19372, Control_c, 0, 67, 16
1, 19387, Control_c, 0, 67, 16
1, 19431, Control_c, 0, 67, 17
1, 19435, Note_on_c, 0, 48, 75
1, 19442, Note_on_c, 0, 36, 65
1, 19461, Control_c, 0, 67, 17
1, 19464, Note_off_c, 0, 48, 67
1, 19479, Note_off_c, 0, 36, 64
1, 19494, Note_on_c, 0, 76, 81
1, 19520, Note_off_c, 0, 76, 63
1, 19565, Control_c, 0, 67, 18
1, 19571, Note_on_c, 0, 47, 86
1, 19571, Note_on_c, 0, 71, 80
1, 19571, Note_on_c, 0, 74, 85
1, 19573, Note_on_c, 0, 35, 75
1, 19595, Note_off_c, 0, 47, 68
1, 19598, Note_off_c, 0, 35, 65
1, 19698, Control_c, 0, 67, 18
1, 19734, Note_on_c, 0, 50, 65
1, 19743, Note_on_c, 0, 38, 51
1, 19756, Note_off_c, 0, 50, 61
1, 19773, Note_off_c, 0, 38, 55
1, 19776, Note_on_c, 0, 78, 78
1, 19780, Note_off_c, 0, 74, 61
1, 19807, Note_off_c, 0, 71, 53
1, 19829, Note_off_c, 0, 78, 63
1, 19839, Control_c, 0, 67, 19
1, 19854, Control_c, 0, 67, 20
1, 19858, Note_on_c, 0, 79, 93
1, 19863, Note_on_c, 0, 52, 86
1, 19868, Note_on_c, 0, 40, 81
1, 19868, Control_c, 0, 67, 20
1, 19884, Note_off_c, 0, 52, 72
1, 19896, Note_off_c, 0, 40, 65
1, 19910, Note_off_c, 0, 79, 63
1, 19912, Control_c, 0, 67, 21
1, 19942, Control_c, 0, 64, 41
1, 19957, Control_c, 0, 64, 38
1, 19972, Control_c, 0, 64, 37
1, 19987, Control_c, 0, 64, 34
1, 19987, Control_c, 0, 67, 20
1, 20002, Control_c, 0, 64, 14
1, 20015, Note_on_c, 0, 55, 80
1, 20017, Control_c, 0, 64, 0
1, 20017, Control_c, 0, 67, 20
1, 20018, Note_on_c, 0, 43, 73
1, 20039, Note_off_c, 0, 55, 68
1, 20048, Note_off_c, 0, 43, 62
1, 20062, Note_on_c, 0, 78, 77
1, 20102, Note_off_c, 0, 78, 61
1, 20122, Control_c, 0, 67, 19
1, 20139, Note_on_c, 0, 57, 86
1, 20142, Note_on_c, 0, 45, 76
1, 20143, Note_on_c, 0, 76, 83
1, 20149, Note_on_c, 0, 72, 78
1, 20165, Note_off_c, 0, 57, 66
1, 20166, Note_off_c, 0, 45, 68
1, 20174, Note_off_c, 0, 72, 67
1, 20186, Note_off_c, 0, 76, 66
1, 20225, Control_c, 0, 67, 20
1, 20270, Control_c, 0, 67, 20
1, 20285, Control_c, 0, 67, 21
1, 20289, Note_on_c, 0, 46, 71
1, 20289, Note_on_c, 0, 58, 75
1, 20312, Note_off_c, 0, 58, 68
1, 20319, Note_off_c, 0, 46, 63
1, 20323, Note_on_c, 0, 78, 78
1, 20373, Control_c, 0, 67, 20
1, 20378, Note_off_c, 0, 78, 62
1, 20388, Control_c, 0, 67, 20
1, 20415, Note_on_c, 0, 75, 91
1, 20418, Control_c, 0, 67, 19
1, 20418, Note_on_c, 0, 71, 84
1, 20423, Note_on_c, 0, 54, 80
1, 20424, Note_on_c, 0, 47, 76
1, 20424, Note_on_c, 0, 59, 80
1, 20427, Note_on_c, 0, 51, 65
1, 20433, Control_c, 0, 67, 18
1, 20437, Note_off_c, 0, 71, 72
1, 20448, Control_c, 0, 64, 56
1, 20448, Control_c, 0, 67, 17
1, 20451, Note_off_c, 0, 47, 66
1, 20454, Note_off_c, 0, 75, 66
1, 20456, Note_off_c, 0, 59, 53
1, 20468, Note_off_c, 0, 51, 63
1, 20470, Control_c, 0, 64, 78
1, 20470, Control_c, 0, 67, 16
1, 20471, Note_off_c, 0, 54, 62
1, 20485, Control_c, 0, 64, 102
1, 20485, Control_c, 0, 67, 15
1, 20499, Control_c, 0, 64, 127
1, 20499, Control_c, 0, 67, 15
1, 20529, Control_c, 0, 67, 14
1, 20543, Control_c, 0, 67, 14
1, 20558, Control_c, 0, 67, 13
1, 20573, Control_c, 0, 67, 13
1, 20588, Control_c, 0, 67, 12
1, 20603, Control_c, 0, 67, 12
1, 20617, Control_c, 0, 67, 11
1, 20632, Control_c, 0, 67, 11
1, 20647, Control_c, 0, 67, 10
1, 20662, Control_c, 0, 67, 8
1, 20677, Control_c, 0, 67, 0
1, 20688, Note_on_c, 0, 90, 62
1, 20728, Note_on_c, 0, 92, 49
1, 20740, Note_off_c, 0, 90, 57
1, 20741, Note_on_c, 0, 94, 78
1, 20763, Note_on_c, 0, 95, 93
1, 20765, Note_on_c, 0, 71, 95
1, 20765, Note_off_c, 0, 92, 58
1, 20766, Note_on_c, 0, 66, 90
1, 20766, Note_on_c, 0, 87, 86
1, 20767, Note_on_c, 0, 59, 73
1, 20771, Note_on_c, 0, 63, 78
1, 20785, Note_off_c, 0, 71, 68
1, 20793, Note_off_c, 0, 87, 61
1, 20797, Note_off_c, 0, 95, 64
1, 20799, Note_off_c, 0, 63, 63
1, 20805, Note_off_c, 0, 66, 65
1, 20810, Note_off_c, 0, 94, 63
1, 20815, Note_off_c, 0, 59, 64
1, 20825, Control_c, 0, 64, 93
1, 20840, Control_c, 0, 64, 72
1, 20855, Control_c, 0, 64, 0
1, 20915, Control_c, 0, 67, 8
1, 20930, Control_c, 0, 67, 8
1, 21033, Control_c, 0, 67, 8
1, 21078, Control_c, 0, 67, 0
1, 21106, Note_on_c, 0, 71, 85
1, 21108, Note_on_c, 0, 59, 87
1, 21109, Note_on_c, 0, 63, 94
1, 21112, Note_on_c, 0, 54, 80
1, 21127, Note_off_c, 0, 63, 73
1, 21131, Note_off_c, 0, 59, 66
1, 21145, Note_off_c, 0, 71, 64
1, 21148, Note_off_c, 0, 54, 64
1, 21446, Note_on_c, 0, 54, 69
1, 21446, Note_on_c, 0, 59, 81
1, 21446, Note_on_c, 0, 71, 79
1, 21448, Note_on_c, 0, 63, 76
1, 21468, Note_off_c, 0, 59, 68
1, 21469, Note_off_c, 0, 71, 67
1, 21472, Note_off_c, 0, 63, 69
1, 21478, Note_off_c, 0, 54, 63
1, 21536, Note_on_c, 0, 59, 80
1, 21537, Note_on_c, 0, 71, 83
1, 21540, Note_on_c, 0, 54, 70
1, 21547, Note_on_c, 0, 63, 61
1, 21562, Note_off_c, 0, 59, 66
1, 21564, Note_off_c, 0, 71, 62
1, 21568, Note_off_c, 0, 63, 65
1, 21574, Note_off_c, 0, 54, 63
1, 21632, Note_on_c, 0, 71, 83
1, 21634, Note_on_c, 0, 59, 78
1, 21637, Note_on_c, 0, 54, 67
1, 21638, Note_on_c, 0, 63, 74
1, 21652, Note_off_c, 0, 59, 65
1, 21652, Note_off_c, 0, 71, 69
1, 21664, Note_off_c, 0, 63, 68
1, 21667, Note_off_c, 0, 54, 64
1, 21727, Note_on_c, 0, 59, 84
1, 21729, Note_on_c, 0, 64, 90
1, 21733, Note_on_c, 0, 67, 86
1, 21742, Note_on_c, 0, 52, 76
1, 21748, Note_off_c, 0, 64, 71
1, 21752, Note_off_c, 0, 59, 65
1, 21769, Note_off_c, 0, 52, 71
1, 21770, Note_off_c, 0, 67, 60
1, 22065, Note_on_c, 0, 55, 82
1, 22065, Note_on_c, 0, 64, 89
1, 22066, Note_on_c, 0, 48, 86
1, 22068, Note_on_c, 0, 57, 83
1, 22087, Note_off_c, 0, 55, 71
1, 22095, Note_off_c, 0, 57, 66
1, 22104, Note_off_c, 0, 48, 68
1, 22106, Note_off_c, 0, 64, 65
1, 22383, Note_on_c, 0, 52, 86
1, 22384, Note_on_c, 0, 60, 92
1, 22385, Note_on_c, 0, 45, 80
1, 22389, Note_on_c, 0, 55, 84
1, 22408, Note_off_c, 0, 52, 73
1, 22413, Note_off_c, 0, 55, 71
1, 22420, Note_off_c, 0, 60, 62
1, 22424, Note_off_c, 0, 45, 67
1, 22698, Note_on_c, 0, 57, 88
1, 22701, Note_on_c, 0, 48, 82
1, 22704, Note_on_c, 0, 42, 77
1, 22705, Note_on_c, 0, 52, 83
1, 22734, Note_off_c, 0, 52, 72
1, 22736, Note_off_c, 0, 48, 70
1, 22746, Note_off_c, 0, 57, 63
1, 22747, Note_off_c, 0, 42, 66
1, 23017, Note_on_c, 0, 54, 86
1, 23032, Note_on_c, 0, 39, 69
1, 23032, Note_on_c, 0, 47, 75
1, 23041, Note_off_c, 0, 54, 68
1, 23071, Control_c, 0, 64, 63
1, 23073, Note_off_c, 0, 39, 65
1, 23086, Control_c, 0, 64, 77
1, 23101, Control_c, 0, 64, 93
1, 23115, Control_c, 0, 64, 114
1, 23130, Control_c, 0, 64, 118
1, 23145, Control_c, 0, 64, 118
1, 23199, Note_on_c, 0, 35, 64
1, 23236, Note_off_c, 0, 35, 58
1, 23324, Control_c, 0, 64, 118
1, 23339, Note_on_c, 0, 82, 71
1, 23339, Control_c, 0, 64, 108
1, 23342, Note_on_c, 0, 83, 73
1, 23346, Note_on_c, 0, 71, 70
1, 23353, Note_on_c, 0, 76, 63
1, 23353, Control_c, 0, 64, 92
1, 23360, Note_on_c, 0, 37, 63
1, 23365, Note_off_c, 0, 71, 58
1, 23368, Control_c, 0, 64, 74
1, 23369, Note_off_c, 0, 83, 58
1, 23372, Note_off_c, 0, 76, 68
1, 23375, Note_off_c, 0, 82, 64
1, 23383, Control_c, 0, 64, 0
1, 23396, Note_off_c, 0, 37, 65
1, 23527, Note_on_c, 0, 39, 60
1, 23566, Note_off_c, 0, 39, 61
1, 23653, Note_on_c, 0, 78, 70
1, 23667, Note_on_c, 0, 79, 71
1, 23673, Note_on_c, 0, 40, 65
1, 23674, Note_on_c, 0, 76, 50
1, 23675, Note_on_c, 0, 71, 56
1, 23691, Note_off_c, 0, 78, 63
1, 23695, Note_off_c, 0, 71, 58
1, 23695, Note_off_c, 0, 76, 58
1, 23702, Note_off_c, 0, 79, 56
1, 23705, Note_off_c, 0, 40, 64
1, 23836, Note_on_c, 0, 42, 56
1, 23882, Note_off_c, 0, 42, 64
1, 23960, Note_on_c, 0, 75, 66
1, 23973, Note_on_c, 0, 76, 78
1, 23976, Note_on_c, 0, 43, 63
1, 23977, Note_on_c, 0, 67, 73
1, 23983, Note_on_c, 0, 71, 45
1, 23998, Note_off_c, 0, 76, 65
1, 24004, Note_off_c, 0, 67, 67
1, 24006, Note_off_c, 0, 75, 64
1, 24007, Note_off_c, 0, 71, 59
1, 24010, Note_off_c, 0, 43, 61
1, 24129, Note_on_c, 0, 44, 55
1, 24163, Note_off_c, 0, 44, 64
1, 24275, Note_on_c, 0, 71, 67
1, 24277, Note_off_c, 0, 47, 64
1, 24280, Note_on_c, 0, 45, 69
1, 24284, Note_on_c, 0, 64, 63
1, 24288, Note_on_c, 0, 69, 62
1, 24288, Note_on_c, 0, 72, 69
1, 24305, Note_off_c, 0, 64, 64
1, 24306, Note_off_c, 0, 71, 63
1, 24313, Note_off_c, 0, 45, 64
1, 24317, Note_off_c, 0, 69, 69
1, 24323, Note_off_c, 0, 72, 62
1, 24438, Note_on_c, 0, 47, 65
1, 24466, Note_off_c, 0, 47, 65
1, 24575, Note_on_c, 0, 68, 59
1, 24585, Note_on_c, 0, 69, 79
1, 24585, Note_on_c, 0, 48, 70
1, 24587, Note_on_c, 0, 64, 73
1, 24610, Note_off_c, 0, 68, 66
1, 24613, Note_off_c, 0, 64, 69
1, 24626, Note_off_c, 0, 69, 64
1, 24627, Note_off_c, 0, 48, 63
1, 24740, Note_on_c, 0, 47, 69
1, 24782, Note_off_c, 0, 47, 64
1, 24886, Note_on_c, 0, 66, 77
1, 24886, Note_on_c, 0, 72, 80
1, 24888, Note_on_c, 0, 45, 75
1, 24901, Note_on_c, 0, 71, 50
1, 24910, Note_off_c, 0, 66, 71
1, 24923, Note_off_c, 0, 71, 58
1, 24925, Note_off_c, 0, 45, 65
1, 24938, Note_off_c, 0, 72, 63
1, 25033, Note_on_c, 0, 55, 80
1, 25035, Note_on_c, 0, 43, 74
1, 25057, Note_off_c, 0, 55, 69
1, 25068, Note_off_c, 0, 43, 62
1, 25154, Control_c, 0, 67, 8
1, 25191, Note_on_c, 0, 76, 78
1, 25196, Note_on_c, 0, 54, 79
1, 25198, Note_on_c, 0, 72, 74
1, 25199, Note_on_c, 0, 69, 72
1, 25202, Note_on_c, 0, 42, 68
1, 25202, Note_on_c, 0, 75, 64
1, 25222, Note_off_c, 0, 54, 67
1, 25223, Note_off_c, 0, 69, 70
1, 25228, Note_off_c, 0, 72, 62
1, 25232, Note_off_c, 0, 75, 68
1, 25232, Note_off_c, 0, 42, 64
1, 25246, Note_off_c, 0, 76, 65
1, 25259, Control_c, 0, 67, 0
1, 25345, Note_on_c, 0, 52, 75
1, 25351, Note_on_c, 0, 40, 64
1, 25372, Note_off_c, 0, 52, 71
1, 25383, Note_off_c, 0, 40, 60
1, 25480, Control_c, 0, 67, 8
1, 25488, Note_on_c, 0, 78, 86
1, 25491, Note_on_c, 0, 69, 77
1, 25492, Note_on_c, 0, 77, 76
1, 25499, Note_on_c, 0, 51, 88
1, 25506, Note_off_c, 0, 69, 69
1, 25507, Note_on_c, 0, 39, 72
1, 25518, Note_off_c, 0, 77, 63
1, 25524, Note_off_c, 0, 51, 66
1, 25529, Note_on_c, 0, 75, 28
1, 25540, Note_off_c, 0, 78, 63
1, 25545, Note_off_c, 0, 39, 64
1, 25565, Note_off_c, 0, 75, 32
1, 25569, Control_c, 0, 67, 0
1, 25599, Control_c, 0, 67, 8
1, 25613, Control_c, 0, 67, 8
1, 25635, Note_on_c, 0, 49, 78
1, 25639, Note_on_c, 0, 37, 68
1, 25658, Note_off_c, 0, 49, 66
1, 25670, Note_off_c, 0, 37, 64
1, 25689, Control_c, 0, 67, 8
1, 25800, Control_c, 0, 67, 0
1, 25805, Note_on_c, 0, 82, 57
1, 25813, Note_on_c, 0, 71, 88
1, 25817, Note_on_c, 0, 35, 82
1, 25817, Note_on_c, 0, 47, 90
1, 25819, Note_on_c, 0, 83, 76
1, 25822, Note_on_c, 0, 75, 84
1, 25822, Note_on_c, 0, 42, 71
1, 25830, Control_c, 0, 64, 52
1, 25842, Note_off_c, 0, 83, 65
1, 25843, Note_off_c, 0, 35, 67
1, 25843, Note_off_c, 0, 75, 71
1, 25844, Note_off_c, 0, 82, 66
1, 25844, Control_c, 0, 64, 80
1, 25846, Note_off_c, 0, 71, 59
1, 25849, Note_off_c, 0, 47, 68
1, 25859, Control_c, 0, 64, 120
1, 25860, Note_off_c, 0, 42, 64
1, 25874, Control_c, 0, 64, 127
1, 25918, Poly_aftertouch_c, 0, 72, 0
1, 26141, Control_c, 0, 64, 114
1, 26153, Note_on_c, 0, 71, 94
1, 26155, Note_on_c, 0, 59, 93
1, 26155, Control_c, 0, 64, 85
1, 26160, Note_on_c, 0, 63, 99
1, 26161, Note_on_c, 0, 54, 90
1, 26170, Control_c, 0, 64, 60
1, 26178, Note_off_c, 0, 63, 71
1, 26180, Note_off_c, 0, 59, 63
1, 26185, Control_c, 0, 64, 0
1, 26196, Note_off_c, 0, 71, 62
1, 26198, Note_off_c, 0, 54, 63
1, 26499, Note_on_c, 0, 54, 67
1, 26501, Note_on_c, 0, 63, 75
1, 26501, Note_on_c, 0, 71, 78
1, 26503, Note_on_c, 0, 59, 76
1, 26521, Note_off_c, 0, 71, 68
1, 26525, Note_off_c, 0, 63, 67
1, 26526, Note_off_c, 0, 59, 66
1, 26533, Note_off_c, 0, 54, 63
1, 26597, Note_on_c, 0, 59, 72
1, 26597, Note_on_c, 0, 71, 79
1, 26608, Note_on_c, 0, 54, 65
1, 26609, Note_on_c, 0, 63, 58
1, 26623, Note_off_c, 0, 71, 62
1, 26627, Note_off_c, 0, 59, 65
1, 26633, Note_off_c, 0, 54, 56
1, 26635, Note_off_c, 0, 63, 63
1, 26689, Note_on_c, 0, 59, 79
1, 26691, Note_on_c, 0, 71, 83
1, 26701, Note_on_c, 0, 54, 68
1, 26701, Note_on_c, 0, 63, 70
1, 26716, Note_off_c, 0, 71, 63
1, 26719, Note_off_c, 0, 59, 62
1, 26728, Note_off_c, 0, 63, 67
1, 26731, Note_off_c, 0, 54, 64
1, 26794, Note_on_c, 0, 59, 92
1, 26794, Note_on_c, 0, 64, 90
1, 26797, Note_on_c, 0, 67, 88
1, 26806, Note_on_c, 0, 52, 74
1, 26817, Note_off_c, 0, 64, 66
1, 26821, Note_off_c, 0, 59, 60
1, 26843, Note_off_c, 0, 52, 66
1, 26843, Note_off_c, 0, 67, 59
1, 27121, Note_on_c, 0, 64, 91
1, 27124, Note_on_c, 0, 55, 84
1, 27125, Note_on_c, 0, 48, 89
1, 27125, Note_on_c, 0, 57, 82
1, 27146, Note_off_c, 0, 55, 71
1, 27150, Note_off_c, 0, 57, 67
1, 27160, Note_off_c, 0, 64, 65
1, 27162, Note_off_c, 0, 48, 68
1, 27449, Note_on_c, 0, 60, 90
1, 27450, Note_on_c, 0, 52, 80
1, 27452, Note_on_c, 0, 45, 81
1, 27452, Note_on_c, 0, 55, 84
1, 27474, Note_off_c, 0, 52, 72
1, 27475, Note_off_c, 0, 55, 71
1, 27480, Note_off_c, 0, 60, 62
1, 27487, Note_off_c, 0, 45, 67
1, 27757, Note_on_c, 0, 48, 76
1, 27758, Note_on_c, 0, 42, 76
1, 27759, Note_on_c, 0, 57, 84
1, 27766, Note_on_c, 0, 52, 77
1, 27784, Note_off_c, 0, 48, 66
1, 27791, Note_off_c, 0, 52, 71
1, 27795, Note_off_c, 0, 42, 66
1, 27807, Note_off_c, 0, 57, 59
1, 28047, Note_on_c, 0, 54, 69
1, 28061, Note_on_c, 0, 47, 72
1, 28064, Note_on_c, 0, 39, 66
1, 28067, Note_off_c, 0, 54, 39
1, 28092, Control_c, 0, 64, 56
1, 28106, Control_c, 0, 64, 75
1, 28121, Control_c, 0, 64, 91
1, 28136, Control_c, 0, 64, 114
1, 28145, Note_off_c, 0, 39, 57
1, 28147, Note_off_c, 0, 47, 60
1, 28150, Control_c, 0, 64, 127
1, 28223, Note_on_c, 0, 95, 92
1, 28228, Note_on_c, 0, 83, 79
1, 28250, Note_off_c, 0, 83, 67
1, 28265, Note_off_c, 0, 95, 65
1, 28271, Note_on_c, 0, 91, 4
1, 28272, Note_off_c, 0, 91, 127
1, 28299, Control_c, 0, 64, 104
1, 28307, Note_on_c, 0, 46, 76
1, 28314, Control_c, 0, 64, 78
1, 28329, Control_c, 0, 64, 0
1, 28333, Poly_aftertouch_c, 0, 91, 0
1, 28352, Note_off_c, 0, 46, 0
1, 28376, Note_on_c, 0, 35, 74
1, 28379, Note_on_c, 0, 42, 72
1, 28380, Note_on_c, 0, 94, 91
1, 28382, Poly_aftertouch_c, 0, 46, 0
1, 28385, Note_on_c, 0, 87, 80
1, 28390, Note_on_c, 0, 82, 79
1, 28403, Control_c, 0, 64, 55
1, 28403, Control_c, 0, 67, 8
1, 28406, Note_off_c, 0, 35, 63
1, 28412, Note_off_c, 0, 42, 63
1, 28418, Control_c, 0, 64, 73
1, 28418, Control_c, 0, 67, 0
1, 28424, Note_off_c, 0, 82, 57
1, 28432, Control_c, 0, 64, 85
1, 28436, Note_off_c, 0, 94, 65
1, 28442, Note_off_c, 0, 87, 63
1, 28447, Control_c, 0, 64, 96
1, 28462, Control_c, 0, 64, 98
1, 28506, Control_c, 0, 64, 97
1, 28521, Control_c, 0, 64, 96
1, 28529, Note_on_c, 0, 93, 86
1, 28532, Note_on_c, 0, 81, 80
1, 28536, Control_c, 0, 64, 93
1, 28550, Control_c, 0, 64, 88
1, 28552, Note_off_c, 0, 81, 67
1, 28565, Control_c, 0, 64, 80
1, 28570, Note_off_c, 0, 93, 57
1, 28580, Control_c, 0, 64, 68
1, 28595, Control_c, 0, 64, 0
1, 28600, Note_on_c, 0, 51, 72
1, 28629, Note_off_c, 0, 51, 66
1, 28669, Note_on_c, 0, 47, 74
1, 28675, Note_on_c, 0, 40, 77
1, 28681, Note_on_c, 0, 83, 72
1, 28684, Note_on_c, 0, 91, 91
1, 28686, Note_on_c, 0, 79, 88
1, 28706, Control_c, 0, 64, 30
1, 28709, Note_off_c, 0, 47, 67
1, 28712, Note_off_c, 0, 40, 65
1, 28720, Note_off_c, 0, 79, 62
1, 28721, Control_c, 0, 64, 67
1, 28728, Note_on_c, 0, 89, 37
1, 28731, Note_on_c, 0, 87, 31
1, 28736, Control_c, 0, 64, 74
1, 28739, Note_off_c, 0, 91, 58
1, 28751, Note_off_c, 0, 83, 58
1, 28751, Control_c, 0, 64, 80
1, 28758, Note_off_c, 0, 89, 57
1, 28765, Control_c, 0, 64, 83
1, 28768, Note_off_c, 0, 87, 31
1, 28843, Note_on_c, 0, 78, 88
1, 28843, Note_on_c, 0, 90, 83
1, 28854, Control_c, 0, 64, 83
1, 28857, Note_off_c, 0, 90, 67
1, 28864, Note_off_c, 0, 78, 65
1, 28869, Control_c, 0, 64, 82
1, 28872, Note_on_c, 0, 89, 50
1, 28885, Control_c, 0, 64, 79
1, 28885, Control_c, 0, 67, 8
1, 28895, Note_off_c, 0, 89, 58
1, 28900, Control_c, 0, 64, 72
1, 28909, Note_on_c, 0, 54, 63
1, 28914, Control_c, 0, 64, 54
1, 28929, Control_c, 0, 64, 0
1, 28930, Note_off_c, 0, 54, 61
1, 28973, Control_c, 0, 67, 0
1, 28983, Note_on_c, 0, 52, 71
1, 28986, Note_on_c, 0, 88, 90
1, 28988, Note_on_c, 0, 43, 73
1, 28990, Note_on_c, 0, 76, 92
1, 29009, Note_off_c, 0, 52, 69
1, 29015, Note_off_c, 0, 43, 64
1, 29033, Control_c, 0, 64, 60
1, 29033, Note_on_c, 0, 49, 10
1, 29036, Note_off_c, 0, 88, 63
1, 29041, Note_off_c, 0, 76, 64
1, 29047, Control_c, 0, 64, 65
1, 29062, Control_c, 0, 64, 67
1, 29077, Control_c, 0, 64, 67
1, 29082, Note_off_c, 0, 49, 27
1, 29092, Control_c, 0, 64, 69
1, 29106, Control_c, 0, 64, 69
1, 29121, Control_c, 0, 64, 69
1, 29135, Note_on_c, 0, 86, 77
1, 29136, Control_c, 0, 64, 68
1, 29140, Note_on_c, 0, 74, 63
1, 29147, Note_on_c, 0, 72, 70
1, 29151, Control_c, 0, 64, 68
1, 29156, Note_on_c, 0, 84, 60
1, 29163, Note_off_c, 0, 72, 68
1, 29166, Control_c, 0, 64, 67
1, 29168, Note_off_c, 0, 74, 67
1, 29176, Note_off_c, 0, 84, 39
1, 29179, Note_off_c, 0, 86, 64
1, 29216, Note_on_c, 0, 56, 69
1, 29225, Control_c, 0, 64, 66
1, 29225, Control_c, 0, 67, 8
1, 29240, Note_off_c, 0, 56, 66
1, 29240, Control_c, 0, 64, 53
1, 29254, Control_c, 0, 64, 0
1, 29254, Control_c, 0, 67, 8
1, 29284, Note_on_c, 0, 52, 75
1, 29284, Control_c, 0, 67, 9
1, 29287, Note_on_c, 0, 45, 74
1, 29290, Note_on_c, 0, 72, 83
1, 29292, Note_on_c, 0, 84, 75
1, 29297, Note_on_c, 0, 76, 79
1, 29310, Note_off_c, 0, 52, 69
1, 29316, Note_on_c, 0, 83, 50
1, 29317, Note_off_c, 0, 83, 127
1, 29318, Note_off_c, 0, 45, 65
1, 29328, Control_c, 0, 67, 8
1, 29333, Note_off_c, 0, 76, 51
1, 29333, Note_off_c, 0, 84, 66
1, 29346, Note_off_c, 0, 72, 64
1, 29358, Control_c, 0, 67, 8
1, 29372, Control_c, 0, 64, 48
1, 29372, Control_c, 0, 67, 0
1, 29387, Control_c, 0, 64, 58
1, 29402, Control_c, 0, 64, 59
1, 29417, Control_c, 0, 64, 58
1, 29424, Note_on_c, 0, 83, 68
1, 29432, Control_c, 0, 64, 57
1, 29435, Note_on_c, 0, 71, 69
1, 29454, Control_c, 0, 64, 55
1, 29462, Note_on_c, 0, 81, 44
1, 29463, Note_off_c, 0, 81, 127
1, 29468, Note_off_c, 0, 71, 60
1, 29482, Note_off_c, 0, 83, 61
1, 29498, Control_c, 0, 64, 56
1, 29513, Control_c, 0, 64, 54
1, 29528, Control_c, 0, 64, 0
1, 29528, Control_c, 0, 67, 8
1, 29542, Note_on_c, 0, 59, 59
1, 29543, Control_c, 0, 67, 9
1, 29558, Control_c, 0, 67, 9
1, 29573, Control_c, 0, 67, 10
1, 29574, Note_on_c, 0, 57, 76
1, 29582, Note_off_c, 0, 59, 62
1, 29583, Note_on_c, 0, 48, 79
1, 29583, Note_on_c, 0, 81, 82
1, 29594, Note_on_c, 0, 69, 90
1, 29602, Note_off_c, 0, 57, 66
1, 29616, Note_off_c, 0, 69, 69
1, 29616, Note_off_c, 0, 48, 67
1, 29628, Note_off_c, 0, 81, 60
1, 29632, Control_c, 0, 67, 9
1, 29647, Control_c, 0, 67, 9
1, 29662, Control_c, 0, 64, 41
1, 29662, Control_c, 0, 67, 8
1, 29677, Control_c, 0, 64, 45
1, 29692, Control_c, 0, 64, 42
1, 29707, Control_c, 0, 64, 40
1, 29707, Control_c, 0, 67, 8
1, 29723, Control_c, 0, 64, 37
1, 29725, Note_on_c, 0, 79, 78
1, 29728, Note_on_c, 0, 67, 83
1, 29737, Control_c, 0, 64, 33
1, 29751, Note_off_c, 0, 67, 67
1, 29752, Control_c, 0, 64, 25
1, 29763, Note_off_c, 0, 79, 50
1, 29767, Control_c, 0, 64, 22
1, 29782, Control_c, 0, 64, 18
1, 29797, Control_c, 0, 64, 0
1, 29797, Control_c, 0, 67, 8
1, 29826, Control_c, 0, 67, 9
1, 29841, Control_c, 0, 67, 9
1, 29871, Control_c, 0, 67, 10
1, 29882, Note_on_c, 0, 78, 87
1, 29883, Note_on_c, 0, 66, 89
1, 29885, Note_on_c, 0, 62, 83
1, 29891, Note_on_c, 0, 50, 65
1, 29892, Note_on_c, 0, 74, 65
1, 29893, Note_on_c, 0, 57, 64
1, 29900, Control_c, 0, 67, 10
1, 29903, Note_off_c, 0, 66, 73
1, 29909, Note_off_c, 0, 62, 64
1, 29917, Note_off_c, 0, 74, 70
1, 29919, Note_off_c, 0, 50, 66
1, 29919, Note_off_c, 0, 57, 64
1, 29930, Control_c, 0, 67, 9
1, 29936, Note_off_c, 0, 78, 65
1, 29945, Control_c, 0, 67, 8
1, 29960, Control_c, 0, 67, 8
1, 30045, Note_on_c, 0, 64, 78
1, 30049, Note_on_c, 0, 52, 73
1, 30067, Note_off_c, 0, 64, 71
1, 30079, Note_off_c, 0, 52, 67
1, 30093, Control_c, 0, 67, 0
1, 30182, Control_c, 0, 67, 8
1, 30187, Note_on_c, 0, 78, 83
1, 30187, Note_on_c, 0, 90, 86
1, 30189, Note_on_c, 0, 89, 71
1, 30204, Note_on_c, 0, 62, 83
1, 30205, Note_on_c, 0, 86, 66
1, 30207, Note_on_c, 0, 50, 77
1, 30212, Note_off_c, 0, 78, 72
1, 30225, Note_off_c, 0, 62, 73
1, 30227, Note_off_c, 0, 89, 64
1, 30232, Note_off_c, 0, 86, 64
1, 30237, Note_off_c, 0, 50, 65
1, 30247, Note_off_c, 0, 90, 65
1, 30322, Control_c, 0, 67, 8
1, 30347, Note_on_c, 0, 60, 74
1, 30356, Note_on_c, 0, 48, 65
1, 30371, Note_off_c, 0, 60, 69
1, 30392, Note_off_c, 0, 48, 63
1, 30455, Control_c, 0, 67, 8
1, 30490, Note_on_c, 0, 97, 59
1, 30494, Note_on_c, 0, 98, 84
1, 30498, Note_on_c, 0, 90, 75
1, 30499, Note_on_c, 0, 86, 75
1, 30502, Note_on_c, 0, 59, 82
1, 30508, Note_on_c, 0, 47, 74
1, 30512, Note_off_c, 0, 98, 73
1, 30527, Note_off_c, 0, 59, 65
1, 30534, Note_off_c, 0, 97, 66
1, 30538, Note_off_c, 0, 86, 62
1, 30546, Note_off_c, 0, 90, 64
1, 30549, Note_off_c, 0, 47, 66
1, 30590, Control_c, 0, 67, 0
1, 30649, Control_c, 0, 67, 8
1, 30651, Note_on_c, 0, 57, 67
1, 30658, Note_on_c, 0, 45, 69
1, 30670, Note_off_c, 0, 57, 63
1, 30678, Control_c, 0, 67, 8
1, 30694, Note_off_c, 0, 45, 65
1, 30806, Note_on_c, 0, 62, 77
1, 30809, Note_on_c, 0, 43, 84
1, 30809, Note_on_c, 0, 60, 71
1, 30814, Note_on_c, 0, 57, 54
1, 30815, Note_on_c, 0, 31, 74
1, 30827, Control_c, 0, 64, 56
1, 30827, Control_c, 0, 67, 0
1, 30833, Note_off_c, 0, 60, 67
1, 30835, Note_off_c, 0, 43, 62
1, 30838, Note_off_c, 0, 57, 62
1, 30840, Note_off_c, 0, 62, 57
1, 30842, Control_c, 0, 64, 72
1, 30845, Note_off_c, 0, 31, 63
1, 30857, Control_c, 0, 64, 84
1, 30871, Control_c, 0, 64, 96
1, 30886, Control_c, 0, 64, 98
1, 30896, Note_on_c, 0, 60, 82
1, 30899, Note_on_c, 0, 62, 72
1, 30901, Control_c, 0, 64, 98
1, 30903, Note_on_c, 0, 57, 74
1, 30928, Note_off_c, 0, 57, 67
1, 30928, Note_off_c, 0, 60, 58
1, 30931, Control_c, 0, 64, 99
1, 30937, Note_off_c, 0, 62, 62
1, 30952, Control_c, 0, 64, 99
1, 30964, Note_on_c, 0, 42, 82
1, 30967, Control_c, 0, 64, 100
1, 30968, Note_on_c, 0, 30, 77
1, 30982, Control_c, 0, 64, 101
1, 30997, Control_c, 0, 64, 102
1, 31008, Note_off_c, 0, 30, 64
1, 31009, Note_on_c, 0, 62, 78
1, 31010, Note_on_c, 0, 57, 74
1, 31012, Control_c, 0, 64, 104
1, 31013, Note_on_c, 0, 60, 82
1, 31022, Note_off_c, 0, 42, 62
1, 31027, Control_c, 0, 64, 105
1, 31033, Note_off_c, 0, 60, 64
1, 31037, Note_off_c, 0, 57, 65
1, 31042, Control_c, 0, 64, 105
1, 31054, Note_off_c, 0, 62, 58
1, 31086, Control_c, 0, 64, 104
1, 31101, Control_c, 0, 64, 93
1, 31116, Control_c, 0, 64, 75
1, 31123, Note_on_c, 0, 62, 93
1, 31125, Note_on_c, 0, 43, 93
1, 31126, Note_on_c, 0, 59, 95
1, 31128, Note_on_c, 0, 31, 81
1, 31128, Note_on_c, 0, 55, 89
1, 31131, Control_c, 0, 64, 0
1, 31131, Control_c, 0, 67, 11
1, 31145, Control_c, 0, 67, 17
1, 31151, Note_off_c, 0, 55, 70
1, 31154, Note_off_c, 0, 31, 64
1, 31155, Note_off_c, 0, 59, 59
1, 31159, Note_off_c, 0, 43, 61
1, 31160, Control_c, 0, 67, 28
1, 31172, Note_off_c, 0, 62, 63
1, 31175, Control_c, 0, 67, 45
1, 31190, Control_c, 0, 67, 74
1, 31205, Control_c, 0, 67, 104
1, 31219, Control_c, 0, 67, 127
1, 31498, Note_on_c, 0, 74, 77
1, 31507, Note_on_c, 0, 71, 54
1, 31510, Note_on_c, 0, 67, 59
1, 31516, Note_off_c, 0, 74, 74
1, 31527, Note_off_c, 0, 71, 60
1, 31530, Note_off_c, 0, 67, 62
1, 31601, Note_on_c, 0, 71, 69
1, 31602, Note_on_c, 0, 74, 71
1, 31606, Note_on_c, 0, 67, 62
1, 31620, Note_off_c, 0, 74, 70
1, 31626, Note_off_c, 0, 67, 65
1, 31637, Note_off_c, 0, 71, 55
1, 31677, Note_on_c, 0, 74, 80
1, 31703, Note_on_c, 0, 67, 61
1, 31710, Note_off_c, 0, 74, 64
1, 31724, Note_off_c, 0, 67, 62
1, 31791, Note_on_c, 0, 76, 89
1, 31792, Note_on_c, 0, 64, 74
1, 31796, Note_on_c, 0, 67, 72
1, 31809, Note_on_c, 0, 71, 48
1, 31809, Note_off_c, 0, 64, 68
1, 31812, Note_off_c, 0, 76, 67
1, 31821, Note_off_c, 0, 67, 69
1, 31832, Note_off_c, 0, 71, 37
1, 32123, Note_on_c, 0, 76, 88
1, 32130, Note_on_c, 0, 67, 72
1, 32131, Note_on_c, 0, 71, 60
1, 32137, Note_on_c, 0, 64, 52
1, 32148, Note_off_c, 0, 67, 68
1, 32150, Note_off_c, 0, 71, 62
1, 32155, Note_off_c, 0, 76, 68
1, 32160, Note_off_c, 0, 64, 56
1, 32454, Note_on_c, 0, 78, 90
1, 32459, Note_on_c, 0, 71, 65
1, 32460, Note_on_c, 0, 66, 80
1, 32467, Note_on_c, 0, 62, 65
1, 32468, Note_on_c, 0, 59, 53
1, 32481, Note_off_c, 0, 66, 71
1, 32486, Note_off_c, 0, 71, 67
1, 32492, Note_off_c, 0, 59, 59
1, 32493, Note_off_c, 0, 78, 62
1, 32493, Note_off_c, 0, 62, 65
1, 32801, Note_on_c, 0, 74, 85
1, 32806, Note_on_c, 0, 71, 64
1, 32807, Note_on_c, 0, 67, 75
1, 32821, Note_off_c, 0, 74, 69
1, 32828, Note_off_c, 0, 71, 65
1, 32833, Note_off_c, 0, 67, 69
1, 33166, Note_on_c, 0, 76, 71
1, 33172, Note_on_c, 0, 67, 65
1, 33181, Note_on_c, 0, 71, 49
1, 33185, Note_on_c, 0, 64, 45
1, 33229, Control_c, 0, 64, 67
1, 33244, Control_c, 0, 64, 80
1, 33259, Control_c, 0, 64, 100
1, 33273, Control_c, 0, 64, 115
1, 33288, Control_c, 0, 64, 124
1, 33303, Control_c, 0, 64, 127
1, 33386, Note_off_c, 0, 64, 59
1, 33396, Note_off_c, 0, 71, 60
1, 33405, Note_off_c, 0, 67, 59
1, 33439, Note_off_c, 0, 76, 65
1, 33822, Control_c, 0, 64, 114
1, 33836, Control_c, 0, 64, 91
1, 33851, Control_c, 0, 64, 72
1, 33864, Note_on_c, 0, 74, 78
1, 33866, Control_c, 0, 64, 0
1, 33870, Note_on_c, 0, 71, 67
1, 33871, Note_on_c, 0, 67, 70
1, 33882, Note_off_c, 0, 74, 73
1, 33891, Note_off_c, 0, 67, 66
1, 33896, Note_off_c, 0, 71, 67
1, 34204, Note_on_c, 0, 74, 75
1, 34211, Note_on_c, 0, 71, 61
1, 34212, Note_on_c, 0, 67, 63
1, 34224, Note_off_c, 0, 74, 74
1, 34230, Note_off_c, 0, 71, 65
1, 34231, Note_off_c, 0, 67, 65
1, 34306, Note_on_c, 0, 74, 75
1, 34306, Note_on_c, 0, 71, 71
1, 34307, Note_on_c, 0, 67, 68
1, 34327, Note_off_c, 0, 74, 72
1, 34334, Note_off_c, 0, 71, 62
1, 34335, Note_off_c, 0, 67, 66
1, 34392, Note_on_c, 0, 74, 75
1, 34393, Note_on_c, 0, 71, 65
1, 34395, Note_on_c, 0, 67, 71
1, 34411, Note_off_c, 0, 74, 73
1, 34419, Note_off_c, 0, 67, 65
1, 34419, Note_off_c, 0, 71, 67
1, 34482, Note_on_c, 0, 76, 89
1, 34488, Note_on_c, 0, 67, 69
1, 34489, Note_on_c, 0, 64, 71
1, 34493, Note_on_c, 0, 71, 69
1, 34507, Note_off_c, 0, 64, 68
1, 34512, Note_off_c, 0, 76, 57
1, 34514, Note_off_c, 0, 67, 68
1, 34517, Note_off_c, 0, 71, 64
1, 34811, Note_on_c, 0, 76, 86
1, 34817, Note_on_c, 0, 67, 72
1, 34817, Note_on_c, 0, 71, 64
1, 34823, Note_on_c, 0, 64, 62
1, 34839, Note_off_c, 0, 71, 65
1, 34842, Note_off_c, 0, 64, 65
1, 34843, Note_off_c, 0, 67, 67
1, 34846, Note_off_c, 0, 76, 68
1, 35132, Note_on_c, 0, 78, 89
1, 35134, Note_on_c, 0, 71, 65
1, 35140, Note_on_c, 0, 66, 81
1, 35142, Note_on_c, 0, 59, 58
1, 35149, Note_on_c, 0, 62, 60
1, 35161, Note_off_c, 0, 71, 66
1, 35161, Note_off_c, 0, 66, 71
1, 35165, Note_off_c, 0, 78, 65
1, 35174, Note_off_c, 0, 59, 64
1, 35179, Note_off_c, 0, 62, 64
1, 35483, Note_on_c, 0, 71, 62
1, 35483, Note_on_c, 0, 74, 75
1, 35487, Note_on_c, 0, 67, 68
1, 35503, Note_off_c, 0, 74, 73
1, 35504, Note_off_c, 0, 71, 65
1, 35507, Note_off_c, 0, 67, 67
1, 35832, Note_on_c, 0, 76, 69
1, 35834, Note_on_c, 0, 71, 54
1, 35840, Note_on_c, 0, 67, 54
1, 35847, Note_on_c, 0, 64, 46
1, 35859, Control_c, 0, 64, 38
1, 35874, Control_c, 0, 64, 68
1, 35889, Control_c, 0, 64, 78
1, 35904, Control_c, 0, 64, 92
1, 35918, Control_c, 0, 64, 103
1, 35918, Control_c, 0, 67, 116
1, 35924, Note_off_c, 0, 71, 57
1, 35933, Control_c, 0, 64, 115
1, 35933, Control_c, 0, 67, 88
1, 35945, Note_off_c, 0, 64, 60
1, 35948, Control_c, 0, 64, 123
1, 35948, Control_c, 0, 67, 49
1, 35955, Note_off_c, 0, 67, 61
1, 35963, Control_c, 0, 64, 127
1, 35963, Control_c, 0, 67, 17
1, 35967, Note_off_c, 0, 76, 65
1, 35978, Control_c, 0, 67, 0
1, 36356, Note_on_c, 0, 64, 57
1, 36371, Control_c, 0, 64, 119
1, 36386, Control_c, 0, 64, 102
1, 36401, Control_c, 0, 64, 86
1, 36416, Control_c, 0, 64, 65
1, 36431, Control_c, 0, 64, 0
1, 36434, Note_on_c, 0, 72, 67
1, 36435, Note_on_c, 0, 45, 72
1, 36441, Note_on_c, 0, 33, 64
1, 36461, Note_off_c, 0, 72, 69
1, 36462, Note_off_c, 0, 45, 66
1, 36471, Note_off_c, 0, 33, 64
1, 36595, Note_on_c, 0, 44, 62
1, 36599, Note_on_c, 0, 32, 63
1, 36626, Note_off_c, 0, 44, 65
1, 36630, Note_off_c, 0, 32, 63
1, 36663, Note_on_c, 0, 74, 57
1, 36738, Note_off_c, 0, 74, 56
1, 36741, Note_on_c, 0, 72, 70
1, 36746, Note_on_c, 0, 45, 69
1, 36751, Note_on_c, 0, 33, 63
1, 36773, Note_off_c, 0, 45, 66
1, 36774, Note_off_c, 0, 72, 58
1, 36778, Note_off_c, 0, 33, 64
1, 36903, Note_on_c, 0, 47, 68
1, 36911, Note_on_c, 0, 35, 57
1, 36938, Note_off_c, 0, 47, 66
1, 36945, Note_off_c, 0, 35, 59
1, 36980, Note_on_c, 0, 71, 63
1, 37008, Note_off_c, 0, 64, 53
1, 37062, Note_on_c, 0, 69, 76
1, 37063, Note_on_c, 0, 48, 75
1, 37067, Note_on_c, 0, 36, 68
1, 37084, Note_off_c, 0, 71, 29
1, 37087, Note_off_c, 0, 48, 68
1, 37095, Note_off_c, 0, 36, 65
1, 37096, Note_off_c, 0, 69, 63
1, 37209, Note_on_c, 0, 49, 69
1, 37223, Note_on_c, 0, 37, 50
1, 37236, Note_off_c, 0, 49, 64
1, 37252, Note_off_c, 0, 37, 63
1, 37278, Note_on_c, 0, 67, 64
1, 37311, Note_off_c, 0, 67, 63
1, 37343, Note_on_c, 0, 50, 70
1, 37349, Note_on_c, 0, 38, 68
1, 37350, Note_on_c, 0, 66, 74
1, 37358, Note_on_c, 0, 57, 68
1, 37369, Note_off_c, 0, 50, 66
1, 37382, Note_off_c, 0, 66, 65
1, 37384, Note_off_c, 0, 38, 63
1, 37385, Note_off_c, 0, 57, 65
1, 37514, Note_on_c, 0, 42, 62
1, 37515, Note_on_c, 0, 30, 63
1, 37541, Note_off_c, 0, 42, 63
1, 37544, Note_off_c, 0, 30, 63
1, 37588, Note_on_c, 0, 62, 70
1, 37647, Note_on_c, 0, 31, 67
1, 37649, Note_on_c, 0, 43, 67
1, 37656, Note_on_c, 0, 71, 78
1, 37680, Note_off_c, 0, 31, 63
1, 37680, Note_off_c, 0, 43, 63
1, 37682, Note_off_c, 0, 71, 62
1, 37823, Note_on_c, 0, 30, 60
1, 37823, Note_on_c, 0, 42, 58
1, 37849, Note_off_c, 0, 42, 60
1, 37855, Note_off_c, 0, 30, 62
1, 37882, Note_on_c, 0, 72, 60
1, 37954, Note_off_c, 0, 72, 61
1, 37958, Note_on_c, 0, 71, 71
1, 37965, Note_on_c, 0, 31, 57
1, 37966, Note_on_c, 0, 43, 57
1, 37990, Note_off_c, 0, 71, 59
1, 37995, Note_off_c, 0, 31, 55
1, 37995, Note_off_c, 0, 43, 54
1, 38121, Note_on_c, 0, 45, 64
1, 38124, Note_on_c, 0, 33, 60
1, 38149, Note_off_c, 0, 45, 66
1, 38152, Note_off_c, 0, 33, 64
1, 38169, Note_on_c, 0, 69, 67
1, 38200, Note_off_c, 0, 62, 55
1, 38207, Note_off_c, 0, 69, 57
1, 38258, Note_on_c, 0, 67, 70
1, 38261, Note_on_c, 0, 46, 70
1, 38264, Note_on_c, 0, 34, 61
1, 38288, Note_off_c, 0, 67, 64
1, 38290, Note_off_c, 0, 46, 64
1, 38295, Note_off_c, 0, 34, 65
1, 38411, Note_on_c, 0, 47, 65
1, 38419, Note_on_c, 0, 35, 57
1, 38443, Note_off_c, 0, 47, 63
1, 38455, Note_off_c, 0, 35, 59
1, 38470, Note_on_c, 0, 66, 63
1, 38509, Note_off_c, 0, 66, 62
1, 38558, Note_on_c, 0, 64, 65
1, 38559, Note_on_c, 0, 48, 72
1, 38559, Note_on_c, 0, 55, 68
1, 38563, Note_on_c, 0, 36, 66
1, 38578, Note_off_c, 0, 55, 65
1, 38588, Note_off_c, 0, 48, 67
1, 38594, Note_off_c, 0, 36, 64
1, 38601, Note_off_c, 0, 64, 65
1, 38711, Note_on_c, 0, 40, 68
1, 38712, Note_on_c, 0, 28, 66
1, 38735, Note_off_c, 0, 40, 62
1, 38741, Note_off_c, 0, 28, 59
1, 38781, Note_on_c, 0, 67, 53
1, 38839, Note_off_c, 0, 67, 49
1, 38851, Note_on_c, 0, 66, 71
1, 38855, Control_c, 0, 64, 64
1, 38860, Note_on_c, 0, 60, 62
1, 38862, Note_on_c, 0, 33, 64
1, 38863, Note_on_c, 0, 45, 65
1, 38870, Control_c, 0, 64, 77
1, 38884, Control_c, 0, 64, 91
1, 38890, Note_off_c, 0, 33, 65
1, 38890, Note_off_c, 0, 45, 66
1, 38899, Control_c, 0, 64, 105
1, 38902, Note_off_c, 0, 60, 59
1, 38914, Control_c, 0, 64, 109
1, 38929, Control_c, 0, 64, 110
1, 38933, Note_off_c, 0, 66, 62
1, 38944, Control_c, 0, 64, 111
1, 38959, Control_c, 0, 64, 112
1, 39006, Note_on_c, 0, 46, 70
1, 39007, Note_on_c, 0, 34, 63
1, 39033, Note_off_c, 0, 46, 65
1, 39039, Note_off_c, 0, 34, 65
1, 39059, Note_on_c, 0, 64, 70
1, 39078, Control_c, 0, 64, 109
1, 39092, Note_off_c, 0, 64, 66
1, 39092, Control_c, 0, 64, 97
1, 39107, Control_c, 0, 64, 82
1, 39122, Control_c, 0, 64, 64
1, 39137, Control_c, 0, 64, 0
1, 39144, Note_on_c, 0, 47, 76
1, 39147, Note_on_c, 0, 63, 80
1, 39147, Note_on_c, 0, 54, 79
1, 39148, Note_on_c, 0, 35, 67
1, 39170, Note_off_c, 0, 47, 67
1, 39171, Note_off_c, 0, 63, 69
1, 39172, Note_off_c, 0, 54, 65
1, 39177, Note_off_c, 0, 35, 65
1, 39302, Note_on_c, 0, 48, 80
1, 39305, Note_on_c, 0, 36, 69
1, 39329, Note_off_c, 0, 48, 68
1, 39332, Note_off_c, 0, 36, 65
1, 39352, Note_on_c, 0, 69, 79
1, 39373, Note_off_c, 0, 69, 73
1, 39435, Note_on_c, 0, 67, 93
1, 39442, Note_on_c, 0, 37, 70
1, 39442, Note_on_c, 0, 49, 76
1, 39445, Note_on_c, 0, 59, 79
1, 39448, Note_on_c, 0, 57, 81
1, 39456, Control_c, 0, 64, 62
1, 39469, Note_off_c, 0, 49, 65
1, 39471, Control_c, 0, 64, 75
1, 39474, Note_off_c, 0, 37, 65
1, 39486, Control_c, 0, 64, 93
1, 39498, Note_off_c, 0, 59, 44
1, 39501, Control_c, 0, 64, 108
1, 39507, Note_off_c, 0, 57, 51
1, 39515, Control_c, 0, 64, 114
1, 39527, Note_off_c, 0, 67, 58
1, 39530, Control_c, 0, 64, 116
1, 39545, Control_c, 0, 64, 118
1, 39560, Control_c, 0, 64, 121
1, 39575, Control_c, 0, 64, 123
1, 39593, Note_on_c, 0, 51, 76
1, 39594, Note_on_c, 0, 39, 67
1, 39604, Control_c, 0, 64, 124
1, 39619, Note_off_c, 0, 39, 66
1, 39619, Note_off_c, 0, 51, 66
1, 39644, Note_on_c, 0, 66, 80
1, 39676, Note_off_c, 0, 66, 66
1, 39678, Control_c, 0, 64, 123
1, 39693, Control_c, 0, 64, 121
1, 39707, Control_c, 0, 64, 108
1, 39722, Control_c, 0, 64, 90
1, 39726, Note_on_c, 0, 52, 85
1, 39728, Note_on_c, 0, 64, 89
1, 39733, Note_on_c, 0, 40, 64
1, 39734, Note_on_c, 0, 55, 82
1, 39737, Control_c, 0, 64, 70
1, 39752, Note_off_c, 0, 52, 69
1, 39752, Control_c, 0, 64, 0
1, 39753, Note_off_c, 0, 55, 69
1, 39760, Note_off_c, 0, 40, 56
1, 39774, Note_off_c, 0, 64, 65
1, 39872, Note_on_c, 0, 55, 68
1, 39883, Note_on_c, 0, 43, 68
1, 39904, Note_off_c, 0, 55, 67
1, 39910, Note_off_c, 0, 43, 61
1, 39924, Note_on_c, 0, 71, 86
1, 39967, Note_off_c, 0, 71, 58
1, 40011, Note_on_c, 0, 72, 94
1, 40015, Note_on_c, 0, 64, 89
1, 40020, Note_on_c, 0, 57, 79
1, 40023, Note_on_c, 0, 45, 73
1, 40042, Note_off_c, 0, 57, 67
1, 40049, Note_off_c, 0, 45, 66
1, 40066, Note_off_c, 0, 72, 60
1, 40178, Note_on_c, 0, 59, 75
1, 40181, Note_on_c, 0, 47, 69
1, 40202, Note_off_c, 0, 59, 66
1, 40211, Note_off_c, 0, 47, 64
1, 40236, Note_on_c, 0, 71, 74
1, 40249, Note_off_c, 0, 64, 55
1, 40262, Note_off_c, 0, 71, 66
1, 40313, Note_on_c, 0, 48, 78
1, 40313, Note_on_c, 0, 60, 81
1, 40318, Note_on_c, 0, 69, 90
1, 40334, Note_off_c, 0, 60, 69
1, 40339, Note_off_c, 0, 48, 66
1, 40355, Note_off_c, 0, 69, 66
1, 40470, Note_on_c, 0, 61, 67
1, 40474, Note_on_c, 0, 49, 57
1, 40496, Note_off_c, 0, 61, 64
1, 40500, Note_off_c, 0, 49, 63
1, 40522, Note_on_c, 0, 67, 75
1, 40550, Note_off_c, 0, 67, 64
1, 40590, Note_on_c, 0, 66, 93
1, 40590, Note_on_c, 0, 74, 69
1, 40596, Note_on_c, 0, 62, 92
1, 40602, Note_on_c, 0, 50, 70
1, 40605, Note_on_c, 0, 54, 71
1, 40607, Note_on_c, 0, 57, 71
1, 40614, Note_off_c, 0, 66, 67
1, 40619, Control_c, 0, 64, 69
1, 40634, Note_off_c, 0, 57, 65
1, 40634, Note_off_c, 0, 74, 65
1, 40634, Control_c, 0, 64, 87
1, 40640, Note_off_c, 0, 50, 62
1, 40642, Note_off_c, 0, 54, 64
1, 40645, Note_off_c, 0, 62, 57
1, 40649, Control_c, 0, 64, 117
1, 40664, Control_c, 0, 64, 127
1, 40859, Note_on_c, 0, 93, 64
1, 40904, Note_on_c, 0, 95, 55
1, 40905, Note_off_c, 0, 93, 61
1, 40909, Note_on_c, 0, 97, 78
1, 40929, Note_off_c, 0, 95, 63
1, 40945, Note_on_c, 0, 98, 96
1, 40950, Note_on_c, 0, 90, 86
1, 40953, Note_on_c, 0, 74, 87
1, 40955, Note_on_c, 0, 62, 69
1, 40956, Note_on_c, 0, 69, 78
1, 40958, Note_on_c, 0, 66, 78
1, 40968, Control_c, 0, 64, 111
1, 40975, Note_off_c, 0, 66, 64
1, 40980, Note_off_c, 0, 97, 65
1, 40983, Note_off_c, 0, 98, 67
1, 40983, Control_c, 0, 64, 88
1, 40986, Note_off_c, 0, 74, 63
1, 40989, Note_off_c, 0, 90, 63
1, 40995, Note_off_c, 0, 69, 63
1, 40998, Note_off_c, 0, 62, 62
1, 40998, Control_c, 0, 64, 67
1, 41013, Control_c, 0, 64, 0
1, 41058, Control_c, 0, 67, 8
1, 41072, Control_c, 0, 67, 8
1, 41087, Control_c, 0, 67, 10
1, 41102, Control_c, 0, 67, 10
1, 41132, Control_c, 0, 67, 11
1, 41235, Control_c, 0, 67, 11
1, 41250, Control_c, 0, 67, 10
1, 41265, Control_c, 0, 67, 10
1, 41296, Note_on_c, 0, 74, 87
1, 41302, Note_on_c, 0, 67, 80
1, 41303, Note_on_c, 0, 71, 70
1, 41316, Note_off_c, 0, 74, 70
1, 41323, Note_off_c, 0, 67, 69
1, 41328, Note_off_c, 0, 71, 68
1, 41368, Control_c, 0, 67, 10
1, 41465, Control_c, 0, 67, 10
1, 41509, Control_c, 0, 67, 9
1, 41641, Note_on_c, 0, 74, 74
1, 41645, Note_on_c, 0, 67, 69
1, 41648, Note_on_c, 0, 71, 60
1, 41658, Control_c, 0, 67, 9
1, 41662, Note_off_c, 0, 74, 73
1, 41669, Note_off_c, 0, 71, 65
1, 41674, Note_off_c, 0, 67, 68
1, 41744, Note_on_c, 0, 71, 74
1, 41744, Note_on_c, 0, 74, 74
1, 41746, Note_on_c, 0, 67, 71
1, 41766, Note_off_c, 0, 74, 71
1, 41773, Note_off_c, 0, 67, 69
1, 41773, Note_off_c, 0, 71, 62
1, 41821, Control_c, 0, 67, 8
1, 41829, Note_on_c, 0, 74, 81
1, 41833, Note_on_c, 0, 71, 62
1, 41839, Note_on_c, 0, 67, 66
1, 41847, Note_off_c, 0, 74, 74
1, 41856, Note_off_c, 0, 67, 65
1, 41860, Note_off_c, 0, 71, 66
1, 41922, Note_on_c, 0, 76, 89
1, 41927, Note_on_c, 0, 67, 74
1, 41930, Note_on_c, 0, 64, 81
1, 41931, Note_on_c, 0, 71, 74
1, 41940, Control_c, 0, 67, 9
1, 41949, Note_off_c, 0, 67, 69
1, 41952, Note_off_c, 0, 64, 71
1, 41955, Note_off_c, 0, 76, 64
1, 41957, Note_off_c, 0, 71, 68
1, 42184, Control_c, 0, 67, 8
1, 42244, Note_on_c, 0, 76, 89
1, 42251, Note_on_c, 0, 71, 66
1, 42253, Note_on_c, 0, 64, 67
1, 42253, Note_on_c, 0, 67, 72
1, 42258, Control_c, 0, 67, 9
1, 42271, Note_off_c, 0, 67, 67
1, 42278, Note_off_c, 0, 76, 69
1, 42279, Note_off_c, 0, 71, 67
1, 42282, Note_off_c, 0, 64, 66
1, 42406, Control_c, 0, 67, 8
1, 42525, Control_c, 0, 67, 9
1, 42579, Note_on_c, 0, 71, 74
1, 42579, Note_on_c, 0, 78, 91
1, 42584, Note_on_c, 0, 59, 63
1, 42584, Note_on_c, 0, 66, 80
1, 42585, Control_c, 0, 67, 9
1, 42588, Note_on_c, 0, 62, 70
1, 42601, Note_off_c, 0, 71, 68
1, 42606, Note_off_c, 0, 66, 70
1, 42614, Control_c, 0, 67, 9
1, 42615, Note_off_c, 0, 59, 65
1, 42617, Note_off_c, 0, 78, 64
1, 42617, Note_off_c, 0, 62, 64
1, 42644, Control_c, 0, 67, 8
1, 42703, Control_c, 0, 67, 9
1, 42915, Note_on_c, 0, 74, 80
1, 42920, Note_on_c, 0, 71, 62
1, 42930, Note_on_c, 0, 67, 69
1, 42941, Note_off_c, 0, 74, 70
1, 42946, Note_off_c, 0, 71, 65
1, 42948, Note_off_c, 0, 67, 67
1, 43066, Control_c, 0, 67, 8
1, 43272, Note_on_c, 0, 76, 78
1, 43282, Note_on_c, 0, 67, 63
1, 43289, Note_on_c, 0, 64, 47
1, 43289, Control_c, 0, 67, 8
1, 43290, Note_on_c, 0, 71, 49
1, 43319, Control_c, 0, 67, 0
1, 43334, Control_c, 0, 64, 62
1, 43348, Control_c, 0, 64, 75
1, 43363, Control_c, 0, 64, 89
1, 43378, Control_c, 0, 64, 105
1, 43393, Control_c, 0, 64, 115
1, 43408, Control_c, 0, 64, 121
1, 43422, Control_c, 0, 64, 127
1, 43437, Control_c, 0, 64, 127
1, 43490, Note_off_c, 0, 64, 62
1, 43493, Note_off_c, 0, 71, 58
1, 43530, Note_off_c, 0, 67, 61
1, 43555, Note_off_c, 0, 76, 65
1, 43919, Control_c, 0, 64, 126
1, 43934, Control_c, 0, 64, 104
1, 43934, Control_c, 0, 67, 8
1, 43949, Control_c, 0, 64, 86
1, 43949, Control_c, 0, 67, 8
1, 43963, Note_on_c, 0, 74, 83
1, 43963, Control_c, 0, 64, 68
1, 43964, Note_on_c, 0, 71, 79
1, 43968, Note_on_c, 0, 67, 75
1, 43978, Control_c, 0, 64, 0
1, 43978, Control_c, 0, 67, 9
1, 43981, Note_off_c, 0, 74, 74
1, 43988, Note_off_c, 0, 71, 68
1, 43994, Note_off_c, 0, 67, 69
1, 44022, Control_c, 0, 67, 9
1, 44171, Control_c, 0, 67, 9
1, 44201, Control_c, 0, 67, 8
1, 44291, Note_on_c, 0, 74, 73
1, 44292, Note_on_c, 0, 71, 71
1, 44295, Note_on_c, 0, 67, 64
1, 44310, Note_off_c, 0, 74, 73
1, 44314, Note_off_c, 0, 67, 66
1, 44316, Note_off_c, 0, 71, 68
1, 44319, Control_c, 0, 67, 8
1, 44392, Note_on_c, 0, 74, 75
1, 44395, Note_on_c, 0, 67, 66
1, 44397, Note_on_c, 0, 71, 71
1, 44413, Note_off_c, 0, 74, 72
1, 44417, Note_off_c, 0, 67, 66
1, 44428, Note_off_c, 0, 71, 69
1, 44460, Control_c, 0, 67, 0
1, 44479, Note_on_c, 0, 74, 78
1, 44485, Note_on_c, 0, 67, 73
1, 44491, Note_on_c, 0, 71, 62
1, 44498, Note_off_c, 0, 74, 72
1, 44508, Note_off_c, 0, 67, 70
1, 44512, Note_off_c, 0, 71, 65
1, 44577, Note_on_c, 0, 76, 90
1, 44579, Note_on_c, 0, 64, 75
1, 44581, Note_on_c, 0, 71, 71
1, 44590, Note_on_c, 0, 67, 69
1, 44602, Note_off_c, 0, 64, 69
1, 44604, Note_off_c, 0, 71, 68
1, 44608, Note_off_c, 0, 67, 67
1, 44611, Note_off_c, 0, 76, 65
1, 44897, Note_on_c, 0, 76, 84
1, 44898, Note_on_c, 0, 71, 68
1, 44900, Note_on_c, 0, 64, 69
1, 44903, Note_on_c, 0, 67, 70
1, 44906, Control_c, 0, 67, 8
1, 44923, Note_off_c, 0, 67, 67
1, 44924, Note_off_c, 0, 71, 67
1, 44927, Note_off_c, 0, 64, 67
1, 44928, Note_off_c, 0, 76, 67
1, 45053, Control_c, 0, 67, 0
1, 45180, Control_c, 0, 67, 8
1, 45228, Note_on_c, 0, 78, 86
1, 45229, Note_on_c, 0, 71, 66
1, 45234, Note_on_c, 0, 59, 59
1, 45235, Note_on_c, 0, 66, 77
1, 45243, Note_on_c, 0, 62, 61
1, 45254, Note_off_c, 0, 71, 66
1, 45258, Note_off_c, 0, 78, 66
1, 45258, Note_off_c, 0, 66, 69
1, 45267, Note_off_c, 0, 59, 63
1, 45271, Note_off_c, 0, 62, 64
1, 45563, Note_on_c, 0, 74, 82
1, 45566, Note_on_c, 0, 71, 65
1, 45567, Note_on_c, 0, 67, 74
1, 45582, Note_off_c, 0, 74, 72
1, 45590, Note_off_c, 0, 67, 69
1, 45594, Note_off_c, 0, 71, 65
1, 45862, Control_c, 0, 67, 8
1, 45904, Note_on_c, 0, 76, 70
1, 45910, Note_on_c, 0, 71, 59
1, 45913, Note_on_c, 0, 67, 59
1, 45918, Note_on_c, 0, 64, 51
1, 45943, Control_c, 0, 67, 8
1, 45973, Control_c, 0, 64, 65
1, 45988, Control_c, 0, 64, 78
1, 46003, Control_c, 0, 64, 92
1, 46003, Control_c, 0, 67, 0
1, 46006, Note_off_c, 0, 71, 59
1, 46018, Control_c, 0, 64, 105
1, 46030, Note_off_c, 0, 64, 61
1, 46032, Control_c, 0, 64, 111
1, 46047, Control_c, 0, 64, 114
1, 46050, Note_off_c, 0, 67, 61
1, 46057, Note_off_c, 0, 76, 62
1, 46062, Control_c, 0, 64, 116
1, 46076, Control_c, 0, 64, 119
1, 46091, Control_c, 0, 64, 123
1, 46106, Control_c, 0, 64, 126
1, 46121, Control_c, 0, 64, 127
1, 46136, Control_c, 0, 67, 8
1, 46194, Control_c, 0, 67, 0
1, 46357, Control_c, 0, 64, 127
1, 46387, Control_c, 0, 64, 126
1, 46401, Control_c, 0, 64, 126
1, 46416, Control_c, 0, 64, 122
1, 46431, Control_c, 0, 64, 113
1, 46432, Note_on_c, 0, 64, 52
1, 46447, Control_c, 0, 64, 100
1, 46462, Control_c, 0, 64, 81
1, 46477, Control_c, 0, 64, 63
1, 46492, Control_c, 0, 64, 0
1, 46499, Note_on_c, 0, 45, 71
1, 46501, Note_on_c, 0, 72, 71
1, 46501, Note_on_c, 0, 33, 67
1, 46527, Note_off_c, 0, 45, 67
1, 46527, Note_off_c, 0, 72, 66
1, 46530, Note_off_c, 0, 33, 65
1, 46536, Control_c, 0, 67, 8
1, 46566, Control_c, 0, 67, 8
1, 46610, Control_c, 0, 67, 9
1, 46624, Control_c, 0, 67, 9
1, 46675, Note_on_c, 0, 44, 59
1, 46676, Note_on_c, 0, 32, 58
1, 46677, Control_c, 0, 67, 9
1, 46703, Note_off_c, 0, 44, 63
1, 46706, Control_c, 0, 67, 8
1, 46707, Note_off_c, 0, 32, 63
1, 46742, Note_on_c, 0, 74, 53
1, 46817, Note_off_c, 0, 74, 62
1, 46817, Note_on_c, 0, 45, 66
1, 46818, Note_on_c, 0, 72, 67
1, 46822, Note_on_c, 0, 33, 60
1, 46846, Note_off_c, 0, 45, 66
1, 46852, Note_off_c, 0, 33, 65
1, 46854, Note_off_c, 0, 72, 57
1, 46884, Control_c, 0, 67, 9
1, 46977, Note_on_c, 0, 47, 65
1, 46985, Note_on_c, 0, 35, 54
1, 46999, Note_off_c, 0, 47, 63
1, 47013, Note_off_c, 0, 35, 59
1, 47049, Note_on_c, 0, 71, 64
1, 47061, Control_c, 0, 67, 8
1, 47072, Note_off_c, 0, 64, 58
1, 47121, Note_off_c, 0, 71, 52
1, 47123, Note_on_c, 0, 69, 77
1, 47127, Note_on_c, 0, 48, 75
1, 47130, Note_on_c, 0, 36, 68
1, 47150, Note_off_c, 0, 48, 67
1, 47155, Note_off_c, 0, 69, 62
1, 47156, Note_off_c, 0, 36, 65
1, 47195, Control_c, 0, 67, 9
1, 47224, Control_c, 0, 67, 9
1, 47286, Note_on_c, 0, 49, 67
1, 47292, Note_on_c, 0, 37, 58
1, 47314, Note_off_c, 0, 49, 65
1, 47314, Control_c, 0, 67, 9
1, 47320, Note_off_c, 0, 37, 66
1, 47329, Control_c, 0, 67, 8
1, 47349, Note_on_c, 0, 67, 56
1, 47374, Note_off_c, 0, 67, 62
1, 47426, Note_on_c, 0, 66, 79
1, 47428, Note_on_c, 0, 57, 69
1, 47432, Note_on_c, 0, 38, 67
1, 47432, Note_on_c, 0, 50, 70
1, 47453, Note_off_c, 0, 66, 68
1, 47455, Note_off_c, 0, 57, 64
1, 47460, Note_off_c, 0, 50, 66
1, 47463, Note_off_c, 0, 38, 64
1, 47595, Note_on_c, 0, 48, 72
1, 47598, Note_on_c, 0, 36, 66
1, 47624, Note_off_c, 0, 48, 67
1, 47633, Note_off_c, 0, 36, 60
1, 47646, Note_on_c, 0, 69, 73
1, 47647, Control_c, 0, 67, 8
1, 47672, Note_off_c, 0, 69, 70
1, 47721, Control_c, 0, 67, 8
1, 47729, Note_on_c, 0, 66, 84
1, 47729, Note_on_c, 0, 74, 71
1, 47737, Note_on_c, 0, 47, 81
1, 47743, Note_on_c, 0, 35, 72
1, 47751, Control_c, 0, 67, 9
1, 47762, Note_off_c, 0, 47, 67
1, 47762, Note_off_c, 0, 74, 61
1, 47769, Note_off_c, 0, 35, 66
1, 47781, Control_c, 0, 67, 9
1, 47854, Control_c, 0, 67, 10
1, 47884, Control_c, 0, 67, 9
1, 47895, Note_on_c, 0, 46, 76
1, 47899, Note_on_c, 0, 34, 63
1, 47914, Control_c, 0, 67, 9
1, 47921, Note_off_c, 0, 46, 64
1, 47926, Note_off_c, 0, 34, 66
1, 47928, Control_c, 0, 67, 8
1, 47960, Note_on_c, 0, 76, 59
1, 48029, Note_on_c, 0, 74, 70
1, 48033, Note_off_c, 0, 76, 51
1, 48040, Note_on_c, 0, 47, 72
1, 48047, Note_on_c, 0, 35, 59
1, 48068, Note_off_c, 0, 47, 67
1, 48075, Note_off_c, 0, 74, 60
1, 48076, Note_off_c, 0, 35, 63
1, 48137, Control_c, 0, 67, 9
1, 48206, Note_on_c, 0, 48, 71
1, 48214, Note_on_c, 0, 36, 61
1, 48224, Note_off_c, 0, 66, 50
1, 48236, Note_off_c, 0, 48, 67
1, 48240, Note_off_c, 0, 36, 63
1, 48259, Note_on_c, 0, 72, 70
1, 48289, Note_off_c, 0, 72, 63
1, 48343, Note_on_c, 0, 38, 71
1, 48343, Note_on_c, 0, 50, 76
1, 48344, Note_on_c, 0, 71, 75
1, 48352, Control_c, 0, 67, 8
1, 48367, Note_off_c, 0, 50, 67
1, 48370, Note_off_c, 0, 38, 65
1, 48380, Note_off_c, 0, 71, 58
1, 48426, Control_c, 0, 67, 9
1, 48441, Control_c, 0, 67, 9
1, 48498, Note_on_c, 0, 51, 67
1, 48499, Note_on_c, 0, 39, 64
1, 48527, Note_off_c, 0, 51, 65
1, 48530, Note_off_c, 0, 39, 63
1, 48530, Control_c, 0, 67, 9
1, 48543, Note_on_c, 0, 69, 76
1, 48574, Control_c, 0, 67, 8
1, 48581, Note_off_c, 0, 69, 63
1, 48629, Note_on_c, 0, 67, 72
1, 48630, Note_on_c, 0, 40, 72
1, 48630, Note_on_c, 0, 52, 77
1, 48631, Note_on_c, 0, 59, 68
1, 48649, Note_off_c, 0, 59, 64
1, 48656, Note_off_c, 0, 52, 72
1, 48656, Note_off_c, 0, 67, 66
1, 48664, Note_off_c, 0, 40, 63
1, 48737, Control_c, 0, 67, 9
1, 48780, Note_on_c, 0, 50, 75
1, 48784, Note_on_c, 0, 38, 69
1, 48807, Note_off_c, 0, 50, 66
1, 48811, Control_c, 0, 67, 8
1, 48823, Note_off_c, 0, 38, 60
1, 48845, Note_on_c, 0, 71, 78
1, 48871, Note_off_c, 0, 71, 63
1, 48925, Note_on_c, 0, 76, 92
1, 48930, Note_on_c, 0, 48, 80
1, 48932, Note_on_c, 0, 67, 81
1, 48935, Note_on_c, 0, 36, 73
1, 48955, Note_off_c, 0, 67, 70
1, 48957, Note_off_c, 0, 48, 68
1, 48965, Note_off_c, 0, 76, 67
1, 48969, Note_off_c, 0, 36, 61
1, 49041, Control_c, 0, 67, 9
1, 49087, Note_on_c, 0, 47, 78
1, 49093, Note_on_c, 0, 35, 62
1, 49112, Note_off_c, 0, 47, 67
1, 49133, Note_off_c, 0, 35, 64
1, 49140, Note_on_c, 0, 74, 69
1, 49160, Control_c, 0, 67, 8
1, 49175, Note_off_c, 0, 74, 62
1, 49219, Control_c, 0, 67, 9
1, 49221, Note_on_c, 0, 72, 87
1, 49224, Note_on_c, 0, 45, 80
1, 49227, Note_on_c, 0, 33, 71
1, 49227, Note_on_c, 0, 69, 78
1, 49248, Note_off_c, 0, 45, 67
1, 49252, Note_off_c, 0, 33, 67
1, 49279, Control_c, 0, 67, 8
1, 49372, Note_on_c, 0, 48, 81
1, 49377, Note_on_c, 0, 36, 71
1, 49394, Note_off_c, 0, 72, 57
1, 49398, Control_c, 0, 67, 8
1, 49399, Note_off_c, 0, 48, 68
1, 49406, Note_off_c, 0, 36, 65
1, 49425, Note_on_c, 0, 76, 74
1, 49450, Note_off_c, 0, 69, 62
1, 49469, Note_off_c, 0, 76, 66
1, 49504, Note_on_c, 0, 78, 88
1, 49513, Note_on_c, 0, 50, 80
1, 49514, Note_on_c, 0, 38, 75
1, 49538, Note_off_c, 0, 50, 68
1, 49546, Note_off_c, 0, 38, 63
1, 49546, Control_c, 0, 67, 8
1, 49548, Note_off_c, 0, 78, 63
1, 49663, Note_on_c, 0, 52, 80
1, 49674, Note_on_c, 0, 40, 74
1, 49697, Note_off_c, 0, 52, 68
1, 49702, Control_c, 0, 67, 8
1, 49703, Note_off_c, 0, 40, 63
1, 49736, Note_on_c, 0, 76, 74
1, 49759, Note_off_c, 0, 76, 70
1, 49791, Control_c, 0, 67, 8
1, 49806, Control_c, 0, 67, 9
1, 49809, Note_on_c, 0, 74, 88
1, 49812, Note_on_c, 0, 54, 76
1, 49812, Note_on_c, 0, 42, 73
1, 49815, Note_on_c, 0, 69, 77
1, 49839, Note_off_c, 0, 54, 66
1, 49841, Note_off_c, 0, 69, 67
1, 49848, Note_off_c, 0, 42, 64
1, 49850, Control_c, 0, 67, 8
1, 49853, Note_off_c, 0, 74, 64
1, 49880, Control_c, 0, 67, 8
1, 49961, Note_on_c, 0, 50, 81
1, 49964, Note_on_c, 0, 38, 75
1, 49986, Note_off_c, 0, 50, 67
1, 50003, Note_on_c, 0, 78, 76
1, 50006, Note_off_c, 0, 38, 68
1, 50012, Control_c, 0, 67, 8
1, 50034, Note_off_c, 0, 78, 60
1, 50087, Control_c, 0, 67, 8
1, 50091, Note_on_c, 0, 79, 88
1, 50098, Note_on_c, 0, 47, 90
1, 50100, Note_on_c, 0, 67, 85
1, 50101, Note_on_c, 0, 35, 76
1, 50102, Control_c, 0, 67, 0
1, 50104, Note_on_c, 0, 74, 70
1, 50116, Control_c, 0, 64, 36
1, 50121, Note_off_c, 0, 47, 71
1, 50123, Note_off_c, 0, 67, 64
1, 50128, Note_off_c, 0, 35, 66
1, 50131, Control_c, 0, 64, 73
1, 50137, Note_off_c, 0, 74, 59
1, 50142, Note_off_c, 0, 79, 64
1, 50146, Control_c, 0, 64, 91
1, 50161, Control_c, 0, 64, 117
1, 50176, Control_c, 0, 64, 127
1, 50254, Note_on_c, 0, 59, 78
1, 50255, Note_on_c, 0, 47, 71
1, 50283, Note_off_c, 0, 59, 61
1, 50292, Note_on_c, 0, 78, 82
1, 50295, Note_on_c, 0, 50, 18
1, 50298, Note_on_c, 0, 66, 78
1, 50313, Note_off_c, 0, 78, 67
1, 50314, Note_off_c, 0, 47, 62
1, 50320, Note_off_c, 0, 66, 69
1, 50337, Note_off_c, 0, 50, 42
1, 50373, Note_on_c, 0, 57, 80
1, 50379, Note_on_c, 0, 45, 76
1, 50379, Note_on_c, 0, 50, 63
1, 50382, Note_on_c, 0, 76, 90
1, 50382, Control_c, 0, 64, 106
1, 50386, Note_on_c, 0, 64, 88
1, 50395, Note_off_c, 0, 57, 67
1, 50397, Control_c, 0, 64, 89
1, 50402, Note_off_c, 0, 50, 63
1, 50406, Note_off_c, 0, 64, 72
1, 50419, Note_off_c, 0, 45, 68
1, 50420, Control_c, 0, 64, 71
1, 50435, Control_c, 0, 64, 0
1, 50437, Note_off_c, 0, 76, 67
1, 50495, Control_c, 0, 67, 8
1, 50510, Control_c, 0, 67, 8
1, 50523, Note_on_c, 0, 50, 73
1, 50525, Control_c, 0, 67, 9
1, 50526, Note_on_c, 0, 38, 70
1, 50552, Note_off_c, 0, 50, 65
1, 50558, Note_off_c, 0, 38, 64
1, 50599, Control_c, 0, 67, 9
1, 50602, Note_on_c, 0, 78, 75
1, 50608, Note_on_c, 0, 66, 67
1, 50613, Control_c, 0, 67, 8
1, 50626, Note_off_c, 0, 66, 69
1, 50628, Control_c, 0, 67, 8
1, 50643, Control_c, 0, 67, 0
1, 50647, Note_off_c, 0, 78, 62
1, 50678, Note_on_c, 0, 79, 94
1, 50679, Note_on_c, 0, 67, 91
1, 50679, Note_on_c, 0, 71, 88
1, 50680, Note_on_c, 0, 55, 88
1, 50682, Note_on_c, 0, 50, 85
1, 50687, Note_on_c, 0, 43, 80
1, 50701, Note_off_c, 0, 55, 73
1, 50702, Control_c, 0, 64, 77
1, 50704, Note_off_c, 0, 50, 69
1, 50717, Control_c, 0, 64, 117
1, 50719, Note_off_c, 0, 67, 56
1, 50720, Note_off_c, 0, 79, 65
1, 50722, Note_on_c, 0, 76, 19
1, 50723, Note_off_c, 0, 76, 127
1, 50731, Note_off_c, 0, 71, 60
1, 50732, Control_c, 0, 64, 127
1, 50736, Note_off_c, 0, 43, 62
1, 50759, Poly_aftertouch_c, 0, 76, 0
1, 50984, Control_c, 0, 64, 97
1, 50998, Control_c, 0, 64, 74
1, 50998, Control_c, 0, 67, 10
1, 51004, Note_on_c, 0, 31, 79
1, 51004, Note_on_c, 0, 43, 90
1, 51005, Note_on_c, 0, 59, 95
1, 51008, Note_on_c, 0, 55, 89
1, 51010, Note_on_c, 0, 38, 76
1, 51013, Control_c, 0, 64, 0
1, 51013, Control_c, 0, 67, 20
1, 51014, Note_on_c, 0, 35, 70
1, 51026, Note_off_c, 0, 55, 74
1, 51028, Control_c, 0, 67, 50
1, 51029, Note_off_c, 0, 31, 63
1, 51035, Note_off_c, 0, 38, 66
1, 51038, Note_off_c, 0, 59, 63
1, 51039, Note_off_c, 0, 35, 65
1, 51042, Note_off_c, 0, 43, 65
1, 51043, Control_c, 0, 67, 98
1, 51058, Control_c, 0, 67, 127
1, 51339, Note_on_c, 0, 59, 61
1, 51339, Note_on_c, 0, 55, 60
1, 51351, Note_on_c, 0, 52, 56
1, 51358, Note_on_c, 0, 79, 40
1, 51359, Note_off_c, 0, 59, 61
1, 51367, Note_off_c, 0, 55, 67
1, 51375, Note_on_c, 0, 81, 19
1, 51383, Note_off_c, 0, 52, 67
1, 51383, Note_off_c, 0, 79, 46
1, 51416, Note_off_c, 0, 81, 30
1, 51431, Note_on_c, 0, 79, 59
1, 51449, Note_off_c, 0, 79, 62
1, 51507, Note_on_c, 0, 79, 72
1, 51520, Note_on_c, 0, 40, 56
1, 51523, Note_off_c, 0, 79, 67
1, 51547, Note_off_c, 0, 40, 57
1, 51586, Note_on_c, 0, 79, 69
1, 51609, Note_off_c, 0, 79, 66
1, 51655, Note_on_c, 0, 78, 70
1, 51664, Note_on_c, 0, 55, 58
1, 51670, Note_on_c, 0, 59, 45
1, 51673, Note_on_c, 0, 52, 54
1, 51685, Note_off_c, 0, 55, 64
1, 51696, Note_off_c, 0, 59, 55
1, 51703, Note_off_c, 0, 52, 66
1, 51736, Note_on_c, 0, 76, 72
1, 51743, Note_off_c, 0, 78, 60
1, 51809, Note_off_c, 0, 76, 65
1, 51810, Note_on_c, 0, 74, 70
1, 51810, Note_on_c, 0, 40, 75
1, 51836, Note_off_c, 0, 40, 66
1, 51852, Note_off_c, 0, 74, 64
1, 51880, Note_on_c, 0, 72, 68
1, 51924, Note_off_c, 0, 72, 64
1, 51968, Note_on_c, 0, 71, 85
1, 51971, Note_on_c, 0, 55, 63
1, 51974, Note_on_c, 0, 52, 61
1, 51976, Note_on_c, 0, 59, 53
1, 51988, Note_off_c, 0, 71, 71
1, 51996, Note_off_c, 0, 55, 65
1, 51998, Note_off_c, 0, 59, 57
1, 52005, Note_off_c, 0, 52, 66
1, 52050, Note_on_c, 0, 71, 75
1, 52079, Note_off_c, 0, 71, 61
1, 52127, Note_on_c, 0, 40, 73
1, 52132, Note_on_c, 0, 71, 67
1, 52153, Note_off_c, 0, 40, 66
1, 52163, Note_off_c, 0, 71, 62
1, 52201, Note_on_c, 0, 71, 62
1, 52240, Note_off_c, 0, 71, 61
1, 52283, Note_on_c, 0, 56, 71
1, 52283, Note_on_c, 0, 62, 67
1, 52287, Note_on_c, 0, 71, 67
1, 52293, Note_on_c, 0, 52, 63
1, 52301, Note_off_c, 0, 62, 64
1, 52307, Note_off_c, 0, 56, 66
1, 52319, Note_off_c, 0, 52, 68
1, 52352, Note_off_c, 0, 71, 60
1, 52358, Note_on_c, 0, 72, 75
1, 52411, Note_off_c, 0, 72, 54
1, 52432, Note_on_c, 0, 40, 80
1, 52442, Note_on_c, 0, 71, 64
1, 52462, Note_off_c, 0, 40, 64
1, 52487, Note_off_c, 0, 71, 63
1, 52504, Note_on_c, 0, 72, 61
1, 52520, Note_off_c, 0, 72, 67
1, 52586, Note_on_c, 0, 61, 74
1, 52587, Note_on_c, 0, 69, 86
1, 52588, Note_on_c, 0, 57, 69
1, 52594, Note_on_c, 0, 52, 69
1, 52611, Note_off_c, 0, 61, 67
1, 52614, Note_off_c, 0, 57, 65
1, 52620, Note_off_c, 0, 69, 69
1, 52625, Note_off_c, 0, 52, 69
1, 52674, Note_on_c, 0, 69, 65
1, 52699, Note_off_c, 0, 69, 70
1, 52753, Note_on_c, 0, 69, 71
1, 52755, Note_on_c, 0, 40, 80
1, 52778, Note_off_c, 0, 40, 67
1, 52790, Note_off_c, 0, 69, 64
1, 52821, Note_on_c, 0, 69, 63
1, 52863, Note_off_c, 0, 69, 69
1, 52907, Note_on_c, 0, 57, 69
1, 52909, Note_on_c, 0, 69, 72
1, 52911, Note_on_c, 0, 60, 62
1, 52916, Note_on_c, 0, 52, 62
1, 52930, Note_off_c, 0, 60, 62
1, 52936, Note_off_c, 0, 57, 64
1, 52945, Note_off_c, 0, 52, 67
1, 52970, Note_off_c, 0, 69, 65
1, 52978, Note_on_c, 0, 71, 72
1, 53024, Note_off_c, 0, 71, 54
1, 53062, Note_on_c, 0, 40, 69
1, 53062, Note_on_c, 0, 69, 70
1, 53085, Note_off_c, 0, 40, 60
1, 53107, Note_off_c, 0, 69, 66
1, 53130, Note_on_c, 0, 71, 65
1, 53159, Note_off_c, 0, 71, 64
1, 53205, Note_on_c, 0, 55, 69
1, 53207, Note_on_c, 0, 67, 65
1, 53213, Note_on_c, 0, 59, 53
1, 53214, Note_on_c, 0, 52, 60
1, 53232, Note_off_c, 0, 55, 66
1, 53236, Note_off_c, 0, 59, 57
1, 53243, Note_off_c, 0, 52, 68
1, 53253, Note_off_c, 0, 67, 63
1, 53262, Note_on_c, 0, 69, 68
1, 53331, Note_off_c, 0, 69, 59
1, 53348, Note_on_c, 0, 66, 68
1, 53352, Note_on_c, 0, 40, 74
1, 53381, Note_off_c, 0, 40, 66
1, 53392, Note_off_c, 0, 66, 62
1, 53419, Note_on_c, 0, 67, 70
1, 53464, Note_off_c, 0, 67, 63
1, 53502, Note_on_c, 0, 64, 64
1, 53503, Note_on_c, 0, 48, 70
1, 53503, Note_on_c, 0, 57, 64
1, 53529, Note_off_c, 0, 57, 64
1, 53534, Note_off_c, 0, 48, 65
1, 53562, Note_off_c, 0, 64, 63
1, 53571, Note_on_c, 0, 66, 67
1, 53618, Note_off_c, 0, 66, 60
1, 53634, Note_on_c, 0, 40, 80
1, 53651, Note_on_c, 0, 63, 64
1, 53673, Note_off_c, 0, 40, 65
1, 53682, Note_off_c, 0, 63, 66
1, 53688, Note_on_c, 0, 66, 48
1, 53711, Note_off_c, 0, 66, 64
1, 53757, Control_c, 0, 67, 127
1, 53771, Control_c, 0, 67, 107
1, 53779, Note_on_c, 0, 67, 90
1, 53786, Control_c, 0, 67, 81
1, 53801, Control_c, 0, 67, 50
1, 53810, Note_off_c, 0, 67, 64
1, 53816, Control_c, 0, 67, 19
1, 53831, Control_c, 0, 67, 0
1, 53861, Note_on_c, 0, 67, 73
1, 53875, Control_c, 0, 64, 44
1, 53890, Control_c, 0, 64, 73
1, 53895, Note_off_c, 0, 67, 63
1, 53905, Control_c, 0, 64, 88
1, 53913, Note_on_c, 0, 28, 88
1, 53920, Note_on_c, 0, 79, 87
1, 53920, Control_c, 0, 64, 113
1, 53935, Control_c, 0, 64, 127
1, 53944, Note_off_c, 0, 79, 63
1, 53946, Note_off_c, 0, 28, 65
1, 53990, Note_on_c, 0, 67, 77
1, 54022, Note_off_c, 0, 67, 66
1, 54077, Note_on_c, 0, 47, 76
1, 54097, Note_on_c, 0, 65, 59
1, 54118, Note_off_c, 0, 47, 61
1, 54136, Note_off_c, 0, 65, 47
1, 54147, Note_on_c, 0, 64, 76
1, 54164, Control_c, 0, 64, 122
1, 54179, Control_c, 0, 64, 109
1, 54183, Note_off_c, 0, 64, 64
1, 54194, Control_c, 0, 64, 96
1, 54209, Control_c, 0, 64, 82
1, 54223, Control_c, 0, 64, 65
1, 54225, Note_on_c, 0, 62, 71
1, 54236, Note_on_c, 0, 52, 73
1, 54237, Note_on_c, 0, 55, 64
1, 54238, Control_c, 0, 64, 0
1, 54258, Note_off_c, 0, 55, 65
1, 54262, Note_off_c, 0, 62, 64
1, 54263, Note_off_c, 0, 52, 69
1, 54305, Note_on_c, 0, 60, 74
1, 54340, Note_off_c, 0, 60, 56
1, 54373, Note_on_c, 0, 59, 75
1, 54407, Note_off_c, 0, 59, 64
1, 54444, Note_on_c, 0, 59, 58
1, 54497, Note_off_c, 0, 59, 59
1, 54509, Note_on_c, 0, 71, 74
1, 54519, Note_on_c, 0, 40, 73
1, 54527, Note_on_c, 0, 67, 53
1, 54531, Note_on_c, 0, 64, 50
1, 54549, Note_off_c, 0, 40, 65
1, 54549, Note_off_c, 0, 67, 58
1, 54552, Note_off_c, 0, 71, 61
1, 54558, Note_off_c, 0, 64, 55
1, 54562, Note_on_c, 0, 41, 22
1, 54585, Note_on_c, 0, 59, 72
1, 54606, Note_off_c, 0, 41, 54
1, 54627, Note_off_c, 0, 59, 61
1, 54668, Control_c, 0, 64, 53
1, 54672, Note_on_c, 0, 59, 76
1, 54674, Note_on_c, 0, 50, 79
1, 54677, Note_on_c, 0, 56, 70
1, 54683, Control_c, 0, 64, 73
1, 54698, Control_c, 0, 64, 90
1, 54713, Control_c, 0, 64, 104
1, 54728, Control_c, 0, 64, 107
1, 54734, Note_off_c, 0, 59, 62
1, 54743, Note_on_c, 0, 60, 75
1, 54743, Control_c, 0, 64, 107
1, 54743, Note_off_c, 0, 50, 64
1, 54771, Note_off_c, 0, 56, 31
1, 54782, Note_off_c, 0, 60, 54
1, 54792, Poly_aftertouch_c, 0, 57, 0
1, 54818, Note_on_c, 0, 59, 75
1, 54865, Note_off_c, 0, 59, 59
1, 54887, Note_on_c, 0, 60, 70
1, 54931, Note_off_c, 0, 60, 60
1, 54968, Note_on_c, 0, 57, 77
1, 54969, Note_on_c, 0, 52, 74
1, 54972, Control_c, 0, 64, 105
1, 54972, Note_on_c, 0, 49, 74
1, 54987, Control_c, 0, 64, 94
1, 54993, Note_off_c, 0, 52, 70
1, 54997, Note_off_c, 0, 49, 66
1, 54999, Note_off_c, 0, 57, 64
1, 55002, Control_c, 0, 64, 80
1, 55017, Control_c, 0, 64, 64
1, 55032, Control_c, 0, 64, 0
1, 55050, Note_on_c, 0, 57, 61
1, 55088, Note_off_c, 0, 57, 64
1, 55104, Note_on_c, 0, 40, 82
1, 55113, Note_on_c, 0, 69, 79
1, 55135, Note_off_c, 0, 40, 64
1, 55153, Note_off_c, 0, 69, 65
1, 55183, Note_on_c, 0, 57, 75
1, 55220, Note_off_c, 0, 57, 62
1, 55254, Control_c, 0, 64, 61
1, 55264, Note_on_c, 0, 52, 78
1, 55265, Note_on_c, 0, 48, 78
1, 55269, Control_c, 0, 64, 75
1, 55275, Note_on_c, 0, 57, 68
1, 55284, Control_c, 0, 64, 87
1, 55299, Note_off_c, 0, 52, 65
1, 55299, Control_c, 0, 64, 96
1, 55314, Control_c, 0, 64, 98
1, 55319, Note_off_c, 0, 48, 60
1, 55328, Control_c, 0, 64, 98
1, 55333, Note_off_c, 0, 57, 60
1, 55335, Note_on_c, 0, 59, 76
1, 55376, Note_off_c, 0, 59, 58
1, 55414, Note_on_c, 0, 57, 74
1, 55464, Note_off_c, 0, 57, 61
1, 55481, Note_on_c, 0, 59, 69
1, 55507, Note_off_c, 0, 59, 64
1, 55536, Control_c, 0, 64, 97
1, 55539, Note_on_c, 0, 40, 64
1, 55542, Note_on_c, 0, 47, 73
1, 55551, Control_c, 0, 64, 93
1, 55554, Note_on_c, 0, 55, 78
1, 55566, Control_c, 0, 64, 88
1, 55571, Note_off_c, 0, 40, 64
1, 55576, Note_off_c, 0, 47, 65
1, 55580, Control_c, 0, 64, 81
1, 55595, Control_c, 0, 64, 72
1, 55601, Note_off_c, 0, 55, 65
1, 55610, Control_c, 0, 64, 61
1, 55619, Note_on_c, 0, 57, 71
1, 55625, Control_c, 0, 64, 0
1, 55691, Note_off_c, 0, 57, 62
1, 55694, Note_on_c, 0, 60, 64
1, 55695, Note_on_c, 0, 54, 55
1, 55696, Note_on_c, 0, 48, 57
1, 55700, Note_on_c, 0, 64, 64
1, 55724, Note_off_c, 0, 60, 64
1, 55725, Note_off_c, 0, 54, 63
1, 55730, Note_off_c, 0, 48, 64
1, 55735, Control_c, 0, 67, 9
1, 55743, Note_off_c, 0, 64, 60
1, 55749, Note_on_c, 0, 55, 72
1, 55750, Control_c, 0, 67, 15
1, 55765, Control_c, 0, 67, 26
1, 55778, Note_off_c, 0, 55, 69
1, 55780, Control_c, 0, 67, 46
1, 55795, Control_c, 0, 67, 68
1, 55810, Control_c, 0, 67, 91
1, 55825, Control_c, 0, 67, 110
1, 55840, Control_c, 0, 67, 126
1, 55854, Note_on_c, 0, 47, 66
1, 55855, Control_c, 0, 67, 127
1, 55859, Note_on_c, 0, 40, 66
1, 55859, Note_on_c, 0, 52, 72
1, 55907, Note_off_c, 0, 40, 64
1, 55923, Note_off_c, 0, 47, 65
1, 55932, Note_off_c, 0, 52, 65
1, 55968, Note_on_c, 0, 79, 74
1, 56009, Note_off_c, 0, 79, 62
1, 56059, Note_on_c, 0, 83, 51
1, 56062, Note_on_c, 0, 84, 50
1, 56082, Note_off_c, 0, 83, 59
1, 56082, Note_off_c, 0, 84, 62
1, 56121, Note_on_c, 0, 88, 66
1, 56150, Note_off_c, 0, 88, 63
1, 56171, Note_on_c, 0, 64, 66
1, 56180, Note_on_c, 0, 91, 71
1, 56181, Note_on_c, 0, 59, 61
1, 56183, Note_on_c, 0, 55, 57
1, 56200, Note_off_c, 0, 64, 66
1, 56202, Note_off_c, 0, 91, 65
1, 56211, Note_off_c, 0, 59, 63
1, 56220, Note_off_c, 0, 55, 65
1, 56269, Note_on_c, 0, 91, 70
1, 56287, Note_off_c, 0, 91, 63
1, 56344, Note_on_c, 0, 52, 60
1, 56354, Note_on_c, 0, 91, 54
1, 56370, Note_off_c, 0, 52, 68
1, 56378, Note_off_c, 0, 91, 40
1, 56419, Note_on_c, 0, 91, 59
1, 56443, Note_off_c, 0, 91, 61
1, 56489, Note_on_c, 0, 90, 73
1, 56499, Note_on_c, 0, 67, 60
1, 56499, Note_on_c, 0, 64, 59
1, 56505, Note_on_c, 0, 59, 58
1, 56518, Note_off_c, 0, 67, 64
1, 56521, Note_off_c, 0, 64, 65
1, 56535, Note_off_c, 0, 59, 63
1, 56564, Note_on_c, 0, 88, 73
1, 56567, Note_off_c, 0, 90, 58
1, 56635, Note_off_c, 0, 88, 62
1, 56642, Note_on_c, 0, 86, 66
1, 56651, Note_on_c, 0, 52, 73
1, 56674, Note_off_c, 0, 52, 69
1, 56678, Note_off_c, 0, 86, 59
1, 56710, Note_on_c, 0, 84, 65
1, 56743, Note_off_c, 0, 84, 64
1, 56789, Note_on_c, 0, 83, 83
1, 56794, Note_on_c, 0, 67, 70
1, 56798, Note_on_c, 0, 64, 64
1, 56803, Note_on_c, 0, 71, 54
1, 56810, Note_off_c, 0, 83, 66
1, 56818, Note_off_c, 0, 67, 69
1, 56824, Note_off_c, 0, 71, 54
1, 56827, Note_off_c, 0, 64, 66
1, 56862, Note_on_c, 0, 83, 71
1, 56895, Note_off_c, 0, 83, 61
1, 56943, Note_on_c, 0, 83, 59
1, 56953, Note_on_c, 0, 52, 73
1, 56975, Note_off_c, 0, 83, 62
1, 56980, Note_off_c, 0, 52, 69
1, 57014, Note_on_c, 0, 83, 61
1, 57056, Note_off_c, 0, 83, 61
1, 57099, Note_on_c, 0, 68, 70
1, 57099, Note_on_c, 0, 83, 61
1, 57101, Note_on_c, 0, 74, 60
1, 57110, Note_on_c, 0, 64, 58
1, 57119, Note_off_c, 0, 74, 66
1, 57123, Note_off_c, 0, 68, 68
1, 57137, Note_off_c, 0, 64, 65
1, 57166, Note_off_c, 0, 83, 61
1, 57177, Note_on_c, 0, 84, 74
1, 57209, Note_off_c, 0, 84, 58
1, 57254, Note_on_c, 0, 83, 67
1, 57257, Note_on_c, 0, 52, 77
1, 57280, Note_off_c, 0, 52, 70
1, 57300, Note_off_c, 0, 83, 61
1, 57314, Note_on_c, 0, 84, 64
1, 57330, Note_off_c, 0, 84, 67
1, 57394, Note_on_c, 0, 81, 84
1, 57402, Note_on_c, 0, 63, 57
1, 57408, Note_on_c, 0, 69, 58
1, 57408, Note_on_c, 0, 73, 60
1, 57411, Note_off_c, 0, 81, 72
1, 57425, Note_off_c, 0, 63, 41
1, 57426, Note_off_c, 0, 69, 66
1, 57427, Note_off_c, 0, 73, 61
1, 57442, Note_on_c, 0, 64, 27
1, 57463, Note_on_c, 0, 81, 84
1, 57463, Note_off_c, 0, 64, 35
1, 57486, Note_off_c, 0, 81, 65
1, 57548, Note_on_c, 0, 81, 76
1, 57560, Note_on_c, 0, 52, 80
1, 57581, Note_off_c, 0, 81, 60
1, 57584, Note_off_c, 0, 52, 70
1, 57617, Note_on_c, 0, 81, 69
1, 57661, Note_off_c, 0, 81, 64
1, 57703, Note_on_c, 0, 81, 66
1, 57711, Note_on_c, 0, 69, 73
1, 57712, Note_on_c, 0, 72, 68
1, 57715, Note_on_c, 0, 64, 69
1, 57729, Note_off_c, 0, 72, 68
1, 57735, Note_off_c, 0, 69, 72
1, 57745, Note_off_c, 0, 64, 66
1, 57762, Note_off_c, 0, 81, 62
1, 57771, Note_on_c, 0, 83, 69
1, 57825, Note_off_c, 0, 83, 56
1, 57858, Note_on_c, 0, 81, 68
1, 57861, Note_on_c, 0, 52, 79
1, 57885, Note_off_c, 0, 52, 72
1, 57915, Note_off_c, 0, 81, 60
1, 57929, Note_on_c, 0, 83, 67
1, 57967, Note_off_c, 0, 83, 59
1, 58012, Note_on_c, 0, 67, 71
1, 58014, Note_on_c, 0, 79, 61
1, 58016, Note_on_c, 0, 71, 61
1, 58017, Note_on_c, 0, 64, 63
1, 58034, Note_off_c, 0, 71, 64
1, 58037, Note_off_c, 0, 67, 69
1, 58046, Note_off_c, 0, 79, 50
1, 58048, Note_off_c, 0, 64, 66
1, 58071, Note_on_c, 0, 81, 63
1, 58132, Note_off_c, 0, 81, 58
1, 58147, Note_on_c, 0, 78, 67
1, 58163, Note_on_c, 0, 52, 73
1, 58186, Note_off_c, 0, 52, 68
1, 58193, Note_off_c, 0, 78, 61
1, 58216, Note_on_c, 0, 79, 70
1, 58259, Note_off_c, 0, 79, 63
1, 58300, Note_on_c, 0, 60, 74
1, 58300, Note_on_c, 0, 69, 70
1, 58303, Note_on_c, 0, 76, 54
1, 58326, Note_off_c, 0, 60, 65
1, 58326, Note_off_c, 0, 69, 70
1, 58328, Note_off_c, 0, 76, 56
1, 58359, Note_on_c, 0, 78, 69
1, 58405, Note_off_c, 0, 78, 60
1, 58442, Note_on_c, 0, 75, 66
1, 58442, Note_on_c, 0, 53, 57
1, 58451, Note_on_c, 0, 52, 60
1, 58472, Note_off_c, 0, 53, 68
1, 58474, Note_off_c, 0, 52, 60
1, 58485, Note_off_c, 0, 75, 65
1, 58505, Note_on_c, 0, 78, 53
1, 58526, Note_off_c, 0, 78, 57
1, 58560, Control_c, 0, 67, 120
1, 58575, Control_c, 0, 67, 97
1, 58580, Note_on_c, 0, 67, 87
1, 58590, Control_c, 0, 67, 70
1, 58604, Control_c, 0, 67, 35
1, 58615, Note_off_c, 0, 67, 61
1, 58619, Control_c, 0, 67, 9
1, 58634, Control_c, 0, 67, 0
1, 58666, Note_on_c, 0, 67, 68
1, 58708, Note_off_c, 0, 67, 65
1, 58716, Control_c, 0, 64, 68
1, 58724, Note_on_c, 0, 40, 76
1, 58731, Control_c, 0, 64, 82
1, 58736, Note_on_c, 0, 77, 60
1, 58737, Note_on_c, 0, 79, 72
1, 58746, Control_c, 0, 64, 103
1, 58752, Note_off_c, 0, 79, 67
1, 58756, Note_off_c, 0, 40, 64
1, 58760, Control_c, 0, 64, 127
1, 58764, Note_off_c, 0, 77, 66
1, 58794, Note_on_c, 0, 67, 77
1, 58837, Note_off_c, 0, 67, 62
1, 58875, Note_on_c, 0, 54, 79
1, 58879, Note_on_c, 0, 66, 76
1, 58921, Note_off_c, 0, 54, 59
1, 58943, Note_on_c, 0, 64, 72
1, 58951, Note_off_c, 0, 66, 64
1, 58952, Note_on_c, 0, 52, 82
1, 59006, Note_off_c, 0, 64, 62
1, 59014, Note_on_c, 0, 62, 65
1, 59023, Note_off_c, 0, 52, 65
1, 59025, Note_on_c, 0, 50, 78
1, 59027, Control_c, 0, 64, 121
1, 59042, Control_c, 0, 64, 110
1, 59046, Note_off_c, 0, 62, 63
1, 59057, Control_c, 0, 64, 100
1, 59072, Control_c, 0, 64, 89
1, 59084, Note_on_c, 0, 48, 78
1, 59086, Control_c, 0, 64, 77
1, 59087, Note_off_c, 0, 50, 63
1, 59090, Note_on_c, 0, 60, 75
1, 59101, Control_c, 0, 64, 65
1, 59116, Control_c, 0, 64, 0
1, 59124, Note_off_c, 0, 48, 67
1, 59144, Note_off_c, 0, 60, 45
1, 59163, Note_on_c, 0, 59, 72
1, 59178, Note_on_c, 0, 47, 83
1, 59208, Note_off_c, 0, 59, 0
1, 59209, Note_off_c, 0, 47, 67
1, 59225, Note_on_c, 0, 59, 56
1, 59276, Note_off_c, 0, 59, 62
1, 59298, Note_on_c, 0, 71, 74
1, 59306, Note_on_c, 0, 28, 88
1, 59316, Note_on_c, 0, 64, 50
1, 59322, Note_on_c, 0, 67, 41
1, 59337, Note_off_c, 0, 28, 68
1, 59346, Note_off_c, 0, 71, 59
1, 59351, Note_off_c, 0, 67, 50
1, 59361, Note_off_c, 0, 64, 45
1, 59372, Note_on_c, 0, 59, 76
1, 59431, Note_off_c, 0, 59, 60
1, 59465, Control_c, 0, 64, 67
1, 59480, Control_c, 0, 64, 81
1, 59482, Note_on_c, 0, 59, 79
1, 59484, Note_on_c, 0, 56, 85
1, 59486, Note_on_c, 0, 50, 76
1, 59495, Control_c, 0, 64, 96
1, 59509, Control_c, 0, 64, 109
1, 59524, Control_c, 0, 64, 115
1, 59530, Note_off_c, 0, 56, 63
1, 59537, Note_off_c, 0, 50, 60
1, 59539, Control_c, 0, 64, 118
1, 59540, Note_off_c, 0, 59, 64
1, 59543, Note_on_c, 0, 60, 79
1, 59554, Control_c, 0, 64, 120
1, 59569, Control_c, 0, 64, 122
1, 59584, Control_c, 0, 64, 123
1, 59597, Note_off_c, 0, 60, 58
1, 59599, Control_c, 0, 64, 124
1, 59614, Control_c, 0, 64, 125
1, 59625, Note_on_c, 0, 59, 74
1, 59676, Note_off_c, 0, 59, 61
1, 59691, Note_on_c, 0, 60, 69
1, 59722, Note_off_c, 0, 60, 64
1, 59761, Control_c, 0, 64, 121
1, 59776, Control_c, 0, 64, 112
1, 59779, Note_on_c, 0, 57, 73
1, 59784, Note_on_c, 0, 52, 74
1, 59790, Note_on_c, 0, 49, 75
1, 59791, Control_c, 0, 64, 101
1, 59806, Note_off_c, 0, 52, 70
1, 59806, Control_c, 0, 64, 88
1, 59809, Note_off_c, 0, 57, 64
1, 59816, Note_off_c, 0, 49, 65
1, 59821, Control_c, 0, 64, 74
1, 59835, Control_c, 0, 64, 40
1, 59850, Control_c, 0, 64, 0
1, 59855, Note_on_c, 0, 57, 62
1, 59900, Note_off_c, 0, 57, 63
1, 59916, Note_on_c, 0, 69, 86
1, 59923, Note_on_c, 0, 40, 83
1, 59956, Note_off_c, 0, 40, 67
1, 59970, Note_off_c, 0, 69, 65
1, 59989, Note_on_c, 0, 57, 78
1, 60040, Note_off_c, 0, 57, 62
1, 60073, Control_c, 0, 64, 57
1, 60081, Note_on_c, 0, 52, 89
1, 60083, Note_on_c, 0, 57, 74
1, 60086, Note_on_c, 0, 48, 83
1, 60088, Control_c, 0, 64, 72
1, 60103, Control_c, 0, 64, 84
1, 60117, Control_c, 0, 64, 95
1, 60123, Note_off_c, 0, 52, 65
1, 60132, Control_c, 0, 64, 99
1, 60150, Note_off_c, 0, 48, 63
1, 60154, Note_off_c, 0, 57, 61
1, 60155, Control_c, 0, 64, 100
1, 60156, Note_on_c, 0, 59, 76
1, 60170, Control_c, 0, 64, 101
1, 60184, Control_c, 0, 64, 102
1, 60199, Control_c, 0, 64, 103
1, 60214, Control_c, 0, 64, 104
1, 60221, Note_off_c, 0, 59, 59
1, 60229, Control_c, 0, 64, 104
1, 60231, Note_on_c, 0, 57, 77
1, 60282, Note_off_c, 0, 57, 57
1, 60302, Note_on_c, 0, 59, 66
1, 60334, Note_off_c, 0, 59, 60
1, 60368, Note_on_c, 0, 47, 74
1, 60370, Note_on_c, 0, 40, 62
1, 60373, Note_on_c, 0, 55, 77
1, 60399, Note_off_c, 0, 40, 66
1, 60407, Control_c, 0, 64, 103
1, 60413, Note_off_c, 0, 47, 62
1, 60421, Control_c, 0, 64, 99
1, 60425, Note_off_c, 0, 55, 63
1, 60436, Control_c, 0, 64, 90
1, 60437, Note_on_c, 0, 57, 72
1, 60450, Control_c, 0, 64, 80
1, 60465, Control_c, 0, 64, 68
1, 60480, Control_c, 0, 64, 26
1, 60495, Control_c, 0, 64, 0
1, 60496, Note_off_c, 0, 57, 60
1, 60503, Note_on_c, 0, 60, 65
1, 60512, Note_on_c, 0, 54, 65
1, 60514, Note_on_c, 0, 48, 63
1, 60514, Note_on_c, 0, 64, 63
1, 60535, Note_off_c, 0, 60, 63
1, 60537, Note_off_c, 0, 54, 65
1, 60553, Note_off_c, 0, 48, 65
1, 60557, Note_off_c, 0, 64, 59
1, 60571, Note_on_c, 0, 55, 67
1, 60602, Note_off_c, 0, 55, 66
1, 60659, Note_on_c, 0, 47, 73
1, 60665, Note_on_c, 0, 52, 82
1, 60669, Note_on_c, 0, 40, 74
1, 60726, Note_off_c, 0, 52, 65
1, 60737, Note_on_c, 0, 66, 78
1, 60748, Note_off_c, 0, 47, 64
1, 60777, Note_off_c, 0, 40, 64
1, 60777, Note_off_c, 0, 66, 64
1, 60813, Note_on_c, 0, 67, 79
1, 60881, Note_off_c, 0, 67, 51
1, 60890, Note_on_c, 0, 71, 83
1, 60923, Note_off_c, 0, 71, 64
1, 60982, Note_on_c, 0, 31, 70
1, 60996, Note_on_c, 0, 35, 72
1, 61001, Note_on_c, 0, 74, 95
1, 61003, Note_on_c, 0, 67, 96
1, 61003, Note_on_c, 0, 71, 97
1, 61021, Control_c, 0, 64, 67
1, 61036, Control_c, 0, 64, 86
1, 61046, Note_on_c, 0, 36, 68
1, 61051, Control_c, 0, 64, 119
1, 61053, Note_off_c, 0, 31, 62
1, 61066, Note_off_c, 0, 35, 62
1, 61066, Control_c, 0, 64, 127
1, 61069, Note_off_c, 0, 67, 60
1, 61081, Note_off_c, 0, 71, 56
1, 61094, Note_off_c, 0, 74, 62
1, 61111, Note_on_c, 0, 38, 64
1, 61111, Note_off_c, 0, 36, 63
1, 61144, Note_off_c, 0, 38, 63
1, 61199, Note_on_c, 0, 40, 68
1, 61238, Note_on_c, 0, 42, 69
1, 61286, Note_off_c, 0, 40, 62
1, 61300, Note_on_c, 0, 43, 70
1, 61320, Note_off_c, 0, 42, 63
1, 61359, Note_on_c, 0, 45, 73
1, 61366, Note_off_c, 0, 43, 61
1, 61372, Note_on_c, 0, 67, 80
1, 61373, Note_on_c, 0, 74, 75
1, 61378, Note_on_c, 0, 71, 72
1, 61396, Note_off_c, 0, 45, 64
1, 61396, Note_off_c, 0, 74, 69
1, 61396, Note_off_c, 0, 67, 68
1, 61401, Note_off_c, 0, 71, 68
1, 61440, Note_on_c, 0, 47, 78
1, 61480, Note_on_c, 0, 67, 70
1, 61480, Note_on_c, 0, 71, 73
1, 61482, Note_on_c, 0, 74, 70
1, 61500, Note_on_c, 0, 48, 74
1, 61502, Note_off_c, 0, 71, 67
1, 61504, Note_off_c, 0, 74, 72
1, 61509, Note_off_c, 0, 67, 66
1, 61545, Note_on_c, 0, 50, 72
1, 61545, Note_off_c, 0, 47, 61
1, 61562, Note_off_c, 0, 48, 66
1, 61577, Note_on_c, 0, 67, 84
1, 61578, Note_on_c, 0, 74, 81
1, 61579, Note_on_c, 0, 71, 76
1, 61597, Note_off_c, 0, 50, 64
1, 61600, Note_off_c, 0, 67, 64
1, 61601, Note_on_c, 0, 52, 69
1, 61605, Note_off_c, 0, 71, 66
1, 61616, Note_off_c, 0, 74, 56
1, 61650, Note_off_c, 0, 52, 0
1, 61682, Control_c, 0, 64, 97
1, 61687, Poly_aftertouch_c, 0, 52, 127
1, 61692, Note_on_c, 0, 54, 72
1, 61696, Control_c, 0, 64, 70
1, 61711, Control_c, 0, 64, 0
1, 61720, Note_on_c, 0, 67, 88
1, 61721, Note_on_c, 0, 76, 81
1, 61728, Note_on_c, 0, 71, 73
1, 61734, Note_on_c, 0, 55, 64
1, 61749, Note_on_c, 0, 64, 22
1, 61750, Note_off_c, 0, 64, 127
1, 61763, Poly_aftertouch_c, 0, 52, 0
1, 61773, Note_on_c, 0, 57, 70
1, 61785, Control_c, 0, 64, 62
1, 61788, Note_off_c, 0, 71, 54
1, 61799, Note_off_c, 0, 67, 59
1, 61800, Control_c, 0, 64, 76
1, 61802, Note_off_c, 0, 54, 59
1, 61806, Note_off_c, 0, 55, 65
1, 61812, Note_off_c, 0, 76, 62
1, 61815, Control_c, 0, 64, 92
1, 61829, Control_c, 0, 64, 113
1, 61840, Note_off_c, 0, 57, 61
1, 61844, Control_c, 0, 64, 127
1, 61862, Note_on_c, 0, 60, 58
1, 61894, Note_off_c, 0, 60, 63
1, 61924, Poly_aftertouch_c, 0, 59, 127
1, 61944, Note_on_c, 0, 62, 61
1, 61954, Poly_aftertouch_c, 0, 59, 0
1, 61965, Note_off_c, 0, 62, 62
1, 61969, Note_on_c, 0, 63, 67
1, 61996, Note_off_c, 0, 63, 67
1, 62042, Note_on_c, 0, 76, 78
1, 62055, Note_on_c, 0, 71, 62
1, 62059, Note_on_c, 0, 67, 91
1, 62061, Note_on_c, 0, 64, 76
1, 62064, Note_off_c, 0, 76, 70
1, 62082, Note_off_c, 0, 71, 52
1, 62093, Note_on_c, 0, 69, 75
1, 62098, Note_off_c, 0, 67, 64
1, 62111, Control_c, 0, 64, 122
1, 62113, Note_off_c, 0, 64, 65
1, 62126, Note_off_c, 0, 69, 62
1, 62126, Control_c, 0, 64, 112
1, 62131, Note_on_c, 0, 71, 55
1, 62141, Control_c, 0, 64, 103
1, 62155, Control_c, 0, 64, 94
1, 62170, Control_c, 0, 64, 88
1, 62173, Note_off_c, 0, 71, 64
1, 62185, Note_on_c, 0, 73, 66
1, 62185, Control_c, 0, 64, 82
1, 62200, Control_c, 0, 64, 77
1, 62202, Note_off_c, 0, 73, 63
1, 62215, Control_c, 0, 64, 73
1, 62229, Control_c, 0, 64, 68
1, 62244, Control_c, 0, 64, 63
1, 62258, Note_on_c, 0, 74, 44
1, 62259, Control_c, 0, 64, 58
1, 62274, Control_c, 0, 64, 54
1, 62286, Note_off_c, 0, 74, 57
1, 62289, Control_c, 0, 64, 52
1, 62303, Control_c, 0, 64, 48
1, 62305, Note_on_c, 0, 76, 61
1, 62318, Control_c, 0, 64, 33
1, 62333, Control_c, 0, 64, 0
1, 62335, Note_off_c, 0, 76, 65
1, 62339, Note_on_c, 0, 78, 72
1, 62343, Note_on_c, 0, 59, 76
1, 62345, Note_on_c, 0, 71, 91
1, 62366, Note_off_c, 0, 78, 65
1, 62381, Note_on_c, 0, 76, 50
1, 62382, Note_on_c, 0, 65, 48
1, 62402, Note_off_c, 0, 59, 64
1, 62406, Note_off_c, 0, 71, 60
1, 62413, Note_off_c, 0, 65, 60
1, 62422, Note_off_c, 0, 76, 67
1, 62431, Note_on_c, 0, 78, 61
1, 62451, Note_off_c, 0, 78, 65
1, 62489, Note_on_c, 0, 79, 75
1, 62550, Note_off_c, 0, 79, 56
1, 62552, Note_on_c, 0, 81, 77
1, 62603, Note_off_c, 0, 81, 61
1, 62612, Note_on_c, 0, 83, 62
1, 62636, Note_on_c, 0, 85, 70
1, 62640, Note_off_c, 0, 83, 65
1, 62660, Note_off_c, 0, 85, 68
1, 62663, Note_on_c, 0, 74, 78
1, 62669, Note_on_c, 0, 67, 70
1, 62673, Note_on_c, 0, 71, 66
1, 62686, Note_off_c, 0, 74, 64
1, 62700, Note_off_c, 0, 71, 66
1, 62706, Note_off_c, 0, 67, 61
1, 62711, Note_on_c, 0, 86, 72
1, 62758, Note_off_c, 0, 86, 64
1, 62761, Note_on_c, 0, 88, 72
1, 62806, Note_on_c, 0, 90, 70
1, 62831, Note_off_c, 0, 88, 62
1, 62842, Note_on_c, 0, 91, 76
1, 62863, Note_off_c, 0, 90, 62
1, 62888, Note_on_c, 0, 93, 70
1, 62895, Note_off_c, 0, 91, 62
1, 62912, Note_off_c, 0, 93, 68
1, 62984, Note_on_c, 0, 76, 79
1, 62990, Note_on_c, 0, 95, 78
1, 62991, Note_on_c, 0, 64, 61
1, 62994, Control_c, 0, 64, 52
1, 62997, Note_on_c, 0, 88, 80
1, 62997, Note_on_c, 0, 71, 66
1, 62999, Note_on_c, 0, 67, 64
1, 63009, Control_c, 0, 64, 76
1, 63021, Note_off_c, 0, 88, 63
1, 63024, Control_c, 0, 64, 96
1, 63036, Note_off_c, 0, 95, 54
1, 63039, Control_c, 0, 64, 127
1, 63051, Note_off_c, 0, 76, 64
1, 63075, Note_on_c, 0, 83, 71
1, 63098, Note_off_c, 0, 83, 66
1, 63101, Note_off_c, 0, 64, 52
1, 63111, Note_off_c, 0, 71, 54
1, 63120, Note_off_c, 0, 67, 50
1, 63174, Note_on_c, 0, 88, 75
1, 63178, Note_on_c, 0, 79, 79
1, 63229, Note_off_c, 0, 88, 61
1, 63246, Note_off_c, 0, 79, 60
1, 63250, Note_on_c, 0, 83, 73
1, 63256, Note_on_c, 0, 76, 72
1, 63292, Note_off_c, 0, 76, 64
1, 63347, Note_off_c, 0, 83, 58
1, 63348, Note_on_c, 0, 79, 67
1, 63395, Note_on_c, 0, 76, 78
1, 63402, Note_off_c, 0, 79, 61
1, 63444, Note_off_c, 0, 76, 64
1, 63505, Note_on_c, 0, 79, 72
1, 63509, Note_on_c, 0, 71, 81
1, 63534, Note_off_c, 0, 79, 60
1, 63536, Note_on_c, 0, 76, 60
1, 63566, Control_c, 0, 64, 107
1, 63567, Note_on_c, 0, 67, 79
1, 63571, Note_off_c, 0, 71, 58
1, 63581, Control_c, 0, 64, 85
1, 63591, Note_off_c, 0, 67, 68
1, 63595, Control_c, 0, 64, 0
1, 63599, Note_off_c, 0, 76, 66
1, 63639, Note_on_c, 0, 31, 53
1, 63650, Note_on_c, 0, 35, 70
1, 63662, Note_on_c, 0, 74, 93
1, 63668, Note_on_c, 0, 67, 94
1, 63668, Note_on_c, 0, 71, 90
1, 63684, Control_c, 0, 64, 64
1, 63692, Note_on_c, 0, 36, 68
1, 63699, Control_c, 0, 64, 82
1, 63702, Note_off_c, 0, 31, 63
1, 63714, Control_c, 0, 64, 109
1, 63719, Note_off_c, 0, 35, 63
1, 63727, Note_off_c, 0, 67, 59
1, 63728, Control_c, 0, 64, 127
1, 63750, Note_off_c, 0, 74, 62
1, 63752, Note_on_c, 0, 38, 68
1, 63754, Note_off_c, 0, 71, 54
1, 63760, Note_off_c, 0, 36, 63
1, 63788, Note_off_c, 0, 38, 61
1, 63849, Note_on_c, 0, 40, 72
1, 63884, Note_on_c, 0, 42, 69
1, 63942, Note_off_c, 0, 40, 62
1, 63949, Note_on_c, 0, 43, 70
1, 63975, Note_off_c, 0, 42, 63
1, 64014, Note_on_c, 0, 45, 67
1, 64014, Note_off_c, 0, 43, 61
1, 64025, Note_on_c, 0, 67, 78
1, 64027, Note_on_c, 0, 71, 77
1, 64027, Note_on_c, 0, 74, 74
1, 64046, Note_off_c, 0, 67, 68
1, 64047, Note_off_c, 0, 45, 63
1, 64049, Note_off_c, 0, 71, 69
1, 64050, Note_off_c, 0, 74, 66
1, 64091, Note_on_c, 0, 47, 76
1, 64144, Note_on_c, 0, 71, 70
1, 64144, Note_on_c, 0, 74, 76
1, 64145, Note_on_c, 0, 48, 73
1, 64148, Note_on_c, 0, 67, 70
1, 64162, Note_off_c, 0, 71, 70
1, 64168, Note_off_c, 0, 67, 67
1, 64168, Note_off_c, 0, 74, 62
1, 64184, Note_off_c, 0, 47, 64
1, 64191, Note_on_c, 0, 50, 69
1, 64206, Note_off_c, 0, 48, 66
1, 64237, Note_on_c, 0, 67, 68
1, 64242, Note_off_c, 0, 50, 63
1, 64244, Note_on_c, 0, 52, 68
1, 64248, Note_on_c, 0, 71, 79
1, 64251, Note_on_c, 0, 74, 75
1, 64273, Note_off_c, 0, 71, 64
1, 64273, Note_off_c, 0, 74, 72
1, 64278, Note_off_c, 0, 67, 62
1, 64329, Control_c, 0, 64, 100
1, 64343, Control_c, 0, 64, 73
1, 64345, Note_on_c, 0, 54, 33
1, 64355, Note_on_c, 0, 53, 62
1, 64358, Control_c, 0, 64, 0
1, 64371, Note_on_c, 0, 76, 82
1, 64372, Note_on_c, 0, 64, 88
1, 64373, Note_on_c, 0, 55, 70
1, 64377, Note_on_c, 0, 67, 81
1, 64379, Note_on_c, 0, 71, 71
1, 64403, Note_off_c, 0, 52, 59
1, 64410, Note_off_c, 0, 54, 38
1, 64418, Note_off_c, 0, 53, 57
1, 64420, Note_off_c, 0, 64, 62
1, 64426, Note_on_c, 0, 57, 64
1, 64432, Control_c, 0, 64, 60
1, 64441, Note_off_c, 0, 71, 50
1, 64447, Note_off_c, 0, 55, 64
1, 64447, Note_off_c, 0, 67, 60
1, 64447, Control_c, 0, 64, 73
1, 64462, Control_c, 0, 64, 79
1, 64468, Note_off_c, 0, 76, 63
1, 64477, Control_c, 0, 64, 81
1, 64481, Note_off_c, 0, 57, 58
1, 64494, Note_on_c, 0, 59, 64
1, 64528, Note_off_c, 0, 59, 64
1, 64572, Note_on_c, 0, 61, 73
1, 64598, Note_on_c, 0, 63, 74
1, 64607, Note_off_c, 0, 61, 61
1, 64625, Control_c, 0, 64, 81
1, 64636, Note_off_c, 0, 63, 62
1, 64647, Control_c, 0, 64, 80
1, 64655, Note_on_c, 0, 64, 65
1, 64662, Control_c, 0, 64, 78
1, 64677, Control_c, 0, 64, 76
1, 64682, Note_off_c, 0, 64, 67
1, 64691, Control_c, 0, 64, 73
1, 64700, Note_on_c, 0, 76, 84
1, 64704, Note_on_c, 0, 71, 82
1, 64706, Control_c, 0, 64, 68
1, 64710, Note_on_c, 0, 67, 74
1, 64721, Control_c, 0, 64, 63
1, 64725, Note_on_c, 0, 64, 69
1, 64727, Note_on_c, 0, 65, 59
1, 64732, Note_off_c, 0, 67, 70
1, 64733, Note_off_c, 0, 76, 65
1, 64736, Control_c, 0, 64, 53
1, 64748, Note_on_c, 0, 69, 73
1, 64748, Note_off_c, 0, 65, 61
1, 64750, Control_c, 0, 64, 40
1, 64751, Note_off_c, 0, 64, 67
1, 64765, Control_c, 0, 64, 18
1, 64775, Note_off_c, 0, 71, 0
1, 64780, Control_c, 0, 64, 0
1, 64787, Note_on_c, 0, 71, 45
1, 64788, Note_off_c, 0, 69, 67
1, 64828, Note_off_c, 0, 71, 63
1, 64833, Note_on_c, 0, 73, 70
1, 64848, Note_off_c, 0, 73, 67
1, 64896, Note_on_c, 0, 74, 69
1, 64935, Note_off_c, 0, 74, 66
1, 64956, Note_on_c, 0, 76, 62
1, 64986, Note_on_c, 0, 78, 64
1, 64994, Note_off_c, 0, 76, 52
1, 65000, Note_on_c, 0, 66, 82
1, 65000, Note_on_c, 0, 71, 86
1, 65005, Note_on_c, 0, 59, 76
1, 65007, Note_off_c, 0, 78, 59
1, 65027, Note_on_c, 0, 76, 48
1, 65048, Note_on_c, 0, 62, 31
1, 65059, Note_off_c, 0, 76, 61
1, 65061, Note_off_c, 0, 59, 62
1, 65077, Note_on_c, 0, 78, 71
1, 65081, Note_off_c, 0, 66, 65
1, 65087, Note_off_c, 0, 62, 31
1, 65100, Note_off_c, 0, 78, 69
1, 65110, Note_off_c, 0, 71, 52
1, 65137, Note_on_c, 0, 79, 74
1, 65176, Note_off_c, 0, 79, 62
1, 65196, Note_on_c, 0, 81, 74
1, 65242, Note_off_c, 0, 81, 60
1, 65243, Note_on_c, 0, 83, 63
1, 65268, Note_on_c, 0, 85, 76
1, 65269, Note_off_c, 0, 83, 66
1, 65295, Note_off_c, 0, 85, 61
1, 65334, Note_on_c, 0, 74, 74
1, 65340, Note_on_c, 0, 71, 69
1, 65345, Note_on_c, 0, 67, 62
1, 65345, Note_on_c, 0, 86, 74
1, 65394, Note_off_c, 0, 86, 63
1, 65394, Note_on_c, 0, 88, 75
1, 65426, Note_on_c, 0, 90, 75
1, 65432, Note_off_c, 0, 88, 60
1, 65432, Note_off_c, 0, 74, 57
1, 65450, Note_off_c, 0, 90, 67
1, 65452, Note_off_c, 0, 67, 56
1, 65455, Note_on_c, 0, 91, 69
1, 65461, Note_off_c, 0, 71, 51
1, 65476, Note_off_c, 0, 91, 61
1, 65522, Note_on_c, 0, 93, 79
1, 65564, Note_on_c, 0, 95, 80
1, 65570, Note_off_c, 0, 93, 58
1, 65615, Note_on_c, 0, 96, 66
1, 65628, Note_on_c, 0, 98, 76
1, 65641, Note_off_c, 0, 95, 58
1, 65643, Note_off_c, 0, 96, 65
1, 65663, Note_off_c, 0, 98, 62
1, 65723, Note_on_c, 0, 76, 78
1, 65724, Control_c, 0, 64, 69
1, 65725, Note_on_c, 0, 100, 83
1, 65728, Note_on_c, 0, 71, 68
1, 65733, Note_on_c, 0, 64, 66
1, 65736, Note_on_c, 0, 67, 57
1, 65739, Control_c, 0, 64, 86
1, 65751, Note_on_c, 0, 91, 68
1, 65753, Control_c, 0, 64, 112
1, 65768, Control_c, 0, 64, 127
1, 65786, Note_off_c, 0, 100, 64
1, 65790, Note_on_c, 0, 95, 51
1, 65797, Note_off_c, 0, 91, 45
1, 65817, Note_on_c, 0, 88, 72
1, 65832, Note_off_c, 0, 95, 67
1, 65835, Note_off_c, 0, 76, 60
1, 65851, Note_off_c, 0, 88, 61
1, 65886, Note_off_c, 0, 64, 48
1, 65894, Note_off_c, 0, 71, 51
1, 65919, Note_on_c, 0, 91, 76
1, 65930, Note_on_c, 0, 83, 70
1, 65941, Note_off_c, 0, 67, 29
1, 65965, Note_off_c, 0, 83, 55
1, 65977, Note_off_c, 0, 91, 58
1, 65990, Note_on_c, 0, 88, 67
1, 66003, Note_on_c, 0, 79, 60
1, 66029, Note_off_c, 0, 79, 56
1, 66087, Note_on_c, 0, 83, 64
1, 66110, Note_off_c, 0, 88, 48
1, 66152, Note_on_c, 0, 79, 63
1, 66152, Note_off_c, 0, 83, 60
1, 66184, Note_off_c, 0, 79, 65
1, 66252, Note_on_c, 0, 76, 72
1, 66255, Note_on_c, 0, 83, 60
1, 66288, Note_off_c, 0, 83, 63
1, 66297, Note_off_c, 0, 76, 58
1, 66315, Note_on_c, 0, 79, 64
1, 66342, Note_on_c, 0, 71, 45
1, 66342, Note_off_c, 0, 79, 66
1, 66368, Note_off_c, 0, 71, 52
1, 66383, Control_c, 0, 64, 122
1, 66397, Control_c, 0, 64, 103
1, 66413, Control_c, 0, 64, 89
1, 66428, Control_c, 0, 64, 74
1, 66443, Control_c, 0, 64, 50
1, 66458, Control_c, 0, 64, 0
1, 66489, Note_on_c, 0, 72, 73
1, 66492, Note_on_c, 0, 64, 70
1, 66494, Note_on_c, 0, 45, 56
1, 66495, Note_on_c, 0, 33, 55
1, 66514, Note_off_c, 0, 72, 69
1, 66516, Note_off_c, 0, 64, 61
1, 66520, Note_off_c, 0, 45, 58
1, 66523, Note_off_c, 0, 33, 59
1, 66621, Note_on_c, 0, 64, 39
1, 66666, Note_on_c, 0, 32, 59
1, 66671, Note_on_c, 0, 44, 53
1, 66696, Note_off_c, 0, 44, 57
1, 66698, Note_off_c, 0, 32, 63
1, 66741, Note_on_c, 0, 74, 61
1, 66812, Note_off_c, 0, 74, 63
1, 66816, Note_on_c, 0, 72, 70
1, 66817, Note_on_c, 0, 45, 69
1, 66824, Note_on_c, 0, 33, 65
1, 66845, Note_off_c, 0, 72, 64
1, 66846, Note_off_c, 0, 45, 66
1, 66852, Note_off_c, 0, 33, 63
1, 66991, Note_on_c, 0, 47, 71
1, 67001, Note_on_c, 0, 35, 57
1, 67017, Note_off_c, 0, 47, 66
1, 67027, Note_off_c, 0, 35, 59
1, 67064, Note_on_c, 0, 71, 62
1, 67090, Note_off_c, 0, 64, 54
1, 67140, Note_off_c, 0, 71, 52
1, 67143, Note_on_c, 0, 69, 74
1, 67154, Note_on_c, 0, 48, 74
1, 67158, Note_on_c, 0, 36, 69
1, 67173, Note_off_c, 0, 69, 66
1, 67178, Note_off_c, 0, 48, 68
1, 67185, Note_off_c, 0, 36, 65
1, 67312, Note_on_c, 0, 49, 67
1, 67321, Note_on_c, 0, 37, 54
1, 67340, Note_off_c, 0, 49, 65
1, 67353, Note_off_c, 0, 37, 65
1, 67364, Note_on_c, 0, 67, 65
1, 67397, Note_off_c, 0, 67, 64
1, 67447, Note_on_c, 0, 66, 74
1, 67453, Note_on_c, 0, 38, 70
1, 67453, Note_on_c, 0, 50, 66
1, 67454, Note_on_c, 0, 57, 64
1, 67474, Note_off_c, 0, 57, 63
1, 67474, Note_off_c, 0, 50, 60
1, 67477, Note_off_c, 0, 66, 65
1, 67479, Note_off_c, 0, 38, 66
1, 67620, Note_on_c, 0, 42, 60
1, 67621, Note_on_c, 0, 30, 59
1, 67654, Note_off_c, 0, 42, 62
1, 67662, Note_off_c, 0, 30, 62
1, 67686, Note_on_c, 0, 62, 73
1, 67758, Note_on_c, 0, 31, 68
1, 67760, Note_on_c, 0, 43, 65
1, 67761, Note_on_c, 0, 71, 80
1, 67787, Note_off_c, 0, 31, 63
1, 67789, Note_off_c, 0, 43, 62
1, 67789, Note_off_c, 0, 71, 59
1, 67922, Note_on_c, 0, 30, 57
1, 67924, Note_on_c, 0, 42, 55
1, 67952, Note_off_c, 0, 42, 57
1, 67957, Note_off_c, 0, 30, 62
1, 67991, Note_on_c, 0, 72, 62
1, 68055, Note_off_c, 0, 72, 54
1, 68068, Note_on_c, 0, 71, 68
1, 68070, Note_on_c, 0, 43, 58
1, 68075, Note_on_c, 0, 31, 46
1, 68100, Note_off_c, 0, 43, 54
1, 68103, Note_off_c, 0, 71, 57
1, 68112, Note_off_c, 0, 31, 47
1, 68219, Note_on_c, 0, 45, 64
1, 68224, Note_on_c, 0, 33, 60
1, 68246, Note_off_c, 0, 45, 66
1, 68252, Note_off_c, 0, 33, 61
1, 68286, Note_on_c, 0, 69, 62
1, 68300, Note_off_c, 0, 62, 56
1, 68349, Note_off_c, 0, 69, 41
1, 68361, Note_on_c, 0, 67, 71
1, 68363, Note_on_c, 0, 46, 69
1, 68366, Note_on_c, 0, 34, 59
1, 68397, Note_off_c, 0, 67, 64
1, 68400, Note_off_c, 0, 46, 64
1, 68404, Note_off_c, 0, 34, 65
1, 68522, Note_on_c, 0, 47, 60
1, 68531, Note_on_c, 0, 35, 51
1, 68547, Note_off_c, 0, 47, 59
1, 68559, Note_off_c, 0, 35, 56
1, 68573, Note_on_c, 0, 66, 64
1, 68616, Note_off_c, 0, 66, 61
1, 68657, Note_on_c, 0, 55, 70
1, 68657, Note_on_c, 0, 64, 65
1, 68660, Note_on_c, 0, 48, 69
1, 68663, Note_on_c, 0, 36, 65
1, 68676, Note_off_c, 0, 55, 66
1, 68680, Note_off_c, 0, 48, 67
1, 68692, Note_off_c, 0, 36, 64
1, 68700, Note_off_c, 0, 64, 65
1, 68813, Note_on_c, 0, 40, 68
1, 68821, Note_on_c, 0, 28, 55
1, 68845, Note_off_c, 0, 40, 65
1, 68854, Note_off_c, 0, 28, 52
1, 68872, Note_on_c, 0, 67, 70
1, 68927, Note_off_c, 0, 67, 41
1, 68953, Note_on_c, 0, 66, 72
1, 68956, Control_c, 0, 64, 56
1, 68966, Note_on_c, 0, 60, 58
1, 68971, Control_c, 0, 64, 74
1, 68972, Note_on_c, 0, 45, 68
1, 68973, Note_on_c, 0, 33, 64
1, 68986, Control_c, 0, 64, 87
1, 68998, Note_off_c, 0, 45, 67
1, 69001, Control_c, 0, 64, 102
1, 69002, Note_off_c, 0, 33, 65
1, 69003, Note_off_c, 0, 60, 61
1, 69015, Control_c, 0, 64, 110
1, 69025, Note_off_c, 0, 66, 63
1, 69030, Control_c, 0, 64, 114
1, 69045, Control_c, 0, 64, 117
1, 69060, Control_c, 0, 64, 118
1, 69075, Control_c, 0, 64, 119
1, 69119, Note_on_c, 0, 46, 71
1, 69122, Note_on_c, 0, 34, 64
1, 69152, Note_off_c, 0, 46, 65
1, 69159, Note_off_c, 0, 34, 66
1, 69161, Note_on_c, 0, 64, 70
1, 69185, Control_c, 0, 64, 115
1, 69197, Note_off_c, 0, 64, 64
1, 69200, Control_c, 0, 64, 107
1, 69215, Control_c, 0, 64, 95
1, 69230, Control_c, 0, 64, 82
1, 69245, Control_c, 0, 64, 65
1, 69259, Note_on_c, 0, 47, 72
1, 69260, Note_on_c, 0, 63, 73
1, 69260, Control_c, 0, 64, 0
1, 69263, Note_on_c, 0, 35, 64
1, 69265, Note_on_c, 0, 54, 65
1, 69284, Note_off_c, 0, 54, 64
1, 69285, Note_off_c, 0, 47, 67
1, 69287, Note_off_c, 0, 63, 67
1, 69292, Note_off_c, 0, 35, 64
1, 69412, Note_on_c, 0, 48, 74
1, 69413, Note_on_c, 0, 36, 70
1, 69436, Note_off_c, 0, 48, 68
1, 69440, Note_off_c, 0, 36, 65
1, 69459, Note_on_c, 0, 69, 78
1, 69481, Note_off_c, 0, 69, 73
1, 69526, Control_c, 0, 64, 50
1, 69540, Control_c, 0, 64, 71
1, 69546, Note_on_c, 0, 67, 90
1, 69550, Note_on_c, 0, 49, 82
1, 69554, Note_on_c, 0, 37, 68
1, 69555, Control_c, 0, 64, 84
1, 69556, Note_on_c, 0, 59, 77
1, 69557, Note_on_c, 0, 57, 81
1, 69570, Control_c, 0, 64, 103
1, 69576, Note_off_c, 0, 49, 66
1, 69580, Note_off_c, 0, 37, 68
1, 69585, Note_off_c, 0, 59, 59
1, 69585, Control_c, 0, 64, 118
1, 69596, Note_off_c, 0, 57, 58
1, 69600, Control_c, 0, 64, 123
1, 69616, Control_c, 0, 64, 127
1, 69621, Note_off_c, 0, 67, 59
1, 69631, Control_c, 0, 64, 127
1, 69698, Note_on_c, 0, 51, 78
1, 69703, Note_on_c, 0, 39, 68
1, 69723, Note_off_c, 0, 51, 66
1, 69729, Note_off_c, 0, 39, 64
1, 69753, Note_on_c, 0, 66, 78
1, 69782, Note_off_c, 0, 66, 67
1, 69808, Control_c, 0, 64, 115
1, 69823, Control_c, 0, 64, 99
1, 69833, Note_on_c, 0, 52, 89
1, 69834, Note_on_c, 0, 40, 78
1, 69837, Note_on_c, 0, 64, 83
1, 69838, Control_c, 0, 64, 82
1, 69841, Note_on_c, 0, 55, 82
1, 69853, Control_c, 0, 64, 64
1, 69862, Note_off_c, 0, 52, 65
1, 69865, Note_off_c, 0, 55, 71
1, 69865, Note_off_c, 0, 40, 65
1, 69868, Control_c, 0, 64, 0
1, 69895, Note_off_c, 0, 64, 63
1, 69989, Note_on_c, 0, 55, 79
1, 69992, Note_on_c, 0, 43, 73
1, 70015, Note_off_c, 0, 55, 66
1, 70027, Note_off_c, 0, 43, 61
1, 70042, Note_on_c, 0, 71, 80
1, 70074, Note_off_c, 0, 71, 59
1, 70124, Note_on_c, 0, 72, 93
1, 70127, Note_on_c, 0, 64, 88
1, 70130, Note_on_c, 0, 57, 82
1, 70132, Note_on_c, 0, 45, 76
1, 70154, Note_off_c, 0, 57, 66
1, 70160, Note_off_c, 0, 45, 66
1, 70182, Note_off_c, 0, 72, 62
1, 70287, Note_on_c, 0, 59, 72
1, 70288, Note_on_c, 0, 47, 65
1, 70313, Note_off_c, 0, 59, 65
1, 70314, Note_off_c, 0, 47, 66
1, 70352, Note_on_c, 0, 71, 62
1, 70357, Note_off_c, 0, 64, 61
1, 70381, Note_off_c, 0, 71, 66
1, 70422, Note_on_c, 0, 69, 87
1, 70425, Note_on_c, 0, 60, 84
1, 70427, Note_on_c, 0, 48, 78
1, 70449, Note_off_c, 0, 60, 65
1, 70454, Note_off_c, 0, 48, 66
1, 70461, Note_off_c, 0, 69, 68
1, 70582, Note_on_c, 0, 61, 68
1, 70588, Note_on_c, 0, 49, 58
1, 70606, Note_off_c, 0, 61, 64
1, 70611, Note_off_c, 0, 49, 59
1, 70638, Note_on_c, 0, 67, 81
1, 70664, Note_off_c, 0, 67, 65
1, 70713, Note_on_c, 0, 66, 101
1, 70715, Note_on_c, 0, 74, 81
1, 70718, Note_on_c, 0, 62, 91
1, 70722, Note_on_c, 0, 54, 63
1, 70723, Note_on_c, 0, 50, 73
1, 70726, Note_on_c, 0, 57, 75
1, 70740, Note_off_c, 0, 66, 67
1, 70742, Control_c, 0, 64, 51
1, 70757, Control_c, 0, 64, 76
1, 70759, Note_off_c, 0, 57, 59
1, 70762, Note_off_c, 0, 74, 66
1, 70762, Note_off_c, 0, 54, 64
1, 70765, Note_off_c, 0, 50, 67
1, 70771, Note_off_c, 0, 62, 58
1, 70772, Control_c, 0, 64, 101
1, 70786, Control_c, 0, 64, 127
1, 70983, Note_on_c, 0, 93, 63
1, 71026, Note_on_c, 0, 95, 60
1, 71042, Note_on_c, 0, 97, 79
1, 71042, Note_off_c, 0, 93, 61
1, 71069, Note_on_c, 0, 90, 92
1, 71073, Note_on_c, 0, 98, 89
1, 71075, Note_on_c, 0, 74, 91
1, 71075, Note_off_c, 0, 95, 63
1, 71078, Note_on_c, 0, 62, 73
1, 71080, Note_on_c, 0, 69, 84
1, 71084, Note_on_c, 0, 66, 78
1, 71093, Note_on_c, 0, 100, 62
1, 71094, Note_off_c, 0, 100, 127
1, 71094, Note_off_c, 0, 74, 67
1, 71105, Note_off_c, 0, 90, 65
1, 71108, Note_off_c, 0, 97, 66
1, 71110, Note_off_c, 0, 98, 65
1, 71111, Note_off_c, 0, 69, 65
1, 71126, Control_c, 0, 64, 116
1, 71134, Note_off_c, 0, 66, 66
1, 71137, Note_off_c, 0, 62, 63
1, 71141, Control_c, 0, 64, 89
1, 71156, Control_c, 0, 64, 64
1, 71171, Control_c, 0, 64, 0
1, 71453, Note_on_c, 0, 67, 95
1, 71456, Note_on_c, 0, 31, 72
1, 71456, Note_on_c, 0, 74, 91
1, 71459, Note_on_c, 0, 71, 84
1, 71463, Note_on_c, 0, 35, 73
1, 71475, Control_c, 0, 64, 63
1, 71490, Control_c, 0, 64, 81
1, 71495, Note_off_c, 0, 67, 63
1, 71504, Control_c, 0, 64, 107
1, 71507, Note_off_c, 0, 71, 61
1, 71518, Note_on_c, 0, 36, 70
1, 71519, Control_c, 0, 64, 127
1, 71522, Note_off_c, 0, 74, 65
1, 71535, Note_off_c, 0, 31, 57
1, 71536, Note_off_c, 0, 35, 63
1, 71591, Note_on_c, 0, 38, 70
1, 71595, Note_off_c, 0, 36, 63
1, 71630, Note_off_c, 0, 38, 61
1, 71687, Note_on_c, 0, 40, 73
1, 71722, Note_on_c, 0, 42, 74
1, 71768, Note_off_c, 0, 40, 62
1, 71785, Note_on_c, 0, 43, 73
1, 71807, Note_off_c, 0, 42, 63
1, 71841, Note_on_c, 0, 67, 85
1, 71841, Note_on_c, 0, 74, 79
1, 71847, Note_on_c, 0, 71, 73
1, 71848, Note_on_c, 0, 45, 70
1, 71853, Note_off_c, 0, 43, 60
1, 71863, Note_off_c, 0, 67, 64
1, 71869, Note_off_c, 0, 74, 60
1, 71872, Note_off_c, 0, 71, 68
1, 71885, Note_off_c, 0, 45, 63
1, 71927, Note_on_c, 0, 47, 78
1, 71957, Note_on_c, 0, 71, 79
1, 71958, Note_on_c, 0, 67, 81
1, 71958, Note_on_c, 0, 74, 78
1, 71976, Note_off_c, 0, 67, 69
1, 71982, Note_on_c, 0, 48, 75
1, 71984, Note_off_c, 0, 74, 63
1, 71985, Note_off_c, 0, 71, 59
1, 72036, Note_on_c, 0, 50, 71
1, 72061, Note_off_c, 0, 47, 53
1, 72061, Note_off_c, 0, 48, 66
1, 72077, Note_on_c, 0, 74, 85
1, 72082, Note_on_c, 0, 67, 80
1, 72083, Note_on_c, 0, 71, 79
1, 72092, Note_off_c, 0, 50, 62
1, 72095, Note_on_c, 0, 52, 71
1, 72102, Note_off_c, 0, 71, 67
1, 72104, Note_off_c, 0, 67, 69
1, 72113, Note_off_c, 0, 74, 55
1, 72136, Note_off_c, 0, 52, 63
1, 72184, Note_on_c, 0, 52, 61
1, 72199, Note_on_c, 0, 54, 73
1, 72209, Control_c, 0, 64, 110
1, 72224, Control_c, 0, 64, 91
1, 72234, Note_on_c, 0, 55, 75
1, 72235, Note_on_c, 0, 76, 83
1, 72237, Note_on_c, 0, 67, 80
1, 72238, Control_c, 0, 64, 73
1, 72240, Note_on_c, 0, 64, 78
1, 72253, Control_c, 0, 64, 26
1, 72256, Note_off_c, 0, 64, 67
1, 72262, Note_on_c, 0, 71, 43
1, 72268, Control_c, 0, 64, 0
1, 72274, Note_off_c, 0, 52, 63
1, 72279, Note_on_c, 0, 57, 69
1, 72283, Note_off_c, 0, 67, 41
1, 72286, Note_off_c, 0, 71, 55
1, 72296, Note_off_c, 0, 54, 62
1, 72305, Note_off_c, 0, 76, 63
1, 72307, Note_off_c, 0, 55, 65
1, 72348, Note_off_c, 0, 57, 62
1, 72372, Note_on_c, 0, 60, 45
1, 72384, Note_on_c, 0, 59, 6
1, 72396, Note_off_c, 0, 60, 57
1, 72432, Note_off_c, 0, 59, 37
1, 72451, Note_on_c, 0, 62, 64
1, 72481, Note_off_c, 0, 62, 64
1, 72521, Note_on_c, 0, 64, 37
1, 72547, Note_off_c, 0, 64, 0
1, 72560, Note_on_c, 0, 76, 80
1, 72566, Note_on_c, 0, 64, 59
1, 72566, Note_on_c, 0, 71, 80
1, 72568, Note_on_c, 0, 67, 80
1, 72579, Note_off_c, 0, 76, 73
1, 72592, Note_off_c, 0, 67, 67
1, 72598, Note_on_c, 0, 69, 65
1, 72602, Note_off_c, 0, 71, 56
1, 72606, Note_off_c, 0, 64, 67
1, 72647, Note_off_c, 0, 69, 65
1, 72652, Note_on_c, 0, 71, 52
1, 72691, Note_off_c, 0, 71, 64
1, 72694, Note_on_c, 0, 73, 71
1, 72714, Note_off_c, 0, 73, 67
1, 72756, Note_on_c, 0, 74, 69
1, 72801, Note_off_c, 0, 74, 66
1, 72816, Note_on_c, 0, 76, 67
1, 72848, Note_off_c, 0, 76, 63
1, 72851, Note_on_c, 0, 78, 72
1, 72864, Note_on_c, 0, 71, 90
1, 72864, Note_on_c, 0, 66, 80
1, 72870, Note_on_c, 0, 59, 73
1, 72888, Note_off_c, 0, 78, 60
1, 72917, Note_on_c, 0, 76, 48
1, 72931, Note_off_c, 0, 59, 62
1, 72938, Note_off_c, 0, 76, 60
1, 72945, Note_off_c, 0, 66, 65
1, 72959, Note_on_c, 0, 78, 51
1, 72964, Note_off_c, 0, 71, 54
1, 72980, Note_off_c, 0, 78, 50
1, 73008, Note_on_c, 0, 79, 71
1, 73053, Note_off_c, 0, 79, 60
1, 73068, Note_on_c, 0, 81, 74
1, 73116, Note_off_c, 0, 81, 61
1, 73121, Note_on_c, 0, 83, 64
1, 73153, Note_on_c, 0, 85, 72
1, 73153, Note_off_c, 0, 83, 61
1, 73177, Note_off_c, 0, 85, 69
1, 73200, Note_on_c, 0, 74, 76
1, 73204, Note_on_c, 0, 71, 70
1, 73207, Note_on_c, 0, 67, 70
1, 73229, Note_on_c, 0, 86, 75
1, 73269, Note_off_c, 0, 86, 65
1, 73275, Note_on_c, 0, 88, 73
1, 73277, Note_off_c, 0, 74, 56
1, 73308, Note_off_c, 0, 67, 56
1, 73315, Note_on_c, 0, 90, 65
1, 73324, Note_off_c, 0, 71, 56
1, 73332, Note_off_c, 0, 88, 59
1, 73340, Note_on_c, 0, 91, 71
1, 73356, Note_off_c, 0, 90, 63
1, 73373, Note_off_c, 0, 91, 62
1, 73424, Note_on_c, 0, 93, 80
1, 73463, Note_off_c, 0, 93, 58
1, 73492, Note_on_c, 0, 95, 40
1, 73521, Note_off_c, 0, 95, 37
1, 73555, Note_on_c, 0, 76, 90
1, 73561, Note_on_c, 0, 64, 69
1, 73565, Note_on_c, 0, 71, 72
1, 73566, Note_on_c, 0, 67, 65
1, 73580, Control_c, 0, 64, 61
1, 73585, Note_on_c, 0, 88, 68
1, 73595, Control_c, 0, 64, 78
1, 73599, Note_on_c, 0, 95, 61
1, 73611, Control_c, 0, 64, 101
1, 73630, Note_off_c, 0, 88, 45
1, 73633, Control_c, 0, 64, 127
1, 73645, Note_off_c, 0, 95, 58
1, 73719, Note_on_c, 0, 83, 47
1, 73741, Note_off_c, 0, 83, 54
1, 73837, Note_off_c, 0, 76, 64
1, 73877, Note_on_c, 0, 83, 28
1, 73892, Note_on_c, 0, 76, 61
1, 73908, Note_off_c, 0, 71, 60
1, 73910, Note_off_c, 0, 83, 46
1, 73932, Note_off_c, 0, 67, 63
1, 73934, Note_off_c, 0, 64, 64
1, 73937, Note_off_c, 0, 76, 66
1, 74137, Control_c, 0, 64, 113
1, 74152, Control_c, 0, 64, 90
1, 74166, Control_c, 0, 64, 66
1, 74181, Control_c, 0, 64, 0
1, 74258, Note_on_c, 0, 67, 90
1, 74262, Note_on_c, 0, 74, 84
1, 74262, Note_on_c, 0, 71, 80
1, 74277, Note_on_c, 0, 31, 78
1, 74285, Control_c, 0, 64, 65
1, 74300, Control_c, 0, 64, 86
1, 74301, Note_off_c, 0, 67, 59
1, 74315, Control_c, 0, 64, 119
1, 74317, Note_on_c, 0, 35, 58
1, 74329, Note_off_c, 0, 71, 51
1, 74329, Control_c, 0, 64, 127
1, 74333, Note_off_c, 0, 74, 60
1, 74346, Note_on_c, 0, 36, 58
1, 74352, Note_off_c, 0, 31, 62
1, 74360, Note_off_c, 0, 35, 59
1, 74399, Note_on_c, 0, 38, 68
1, 74418, Note_off_c, 0, 36, 62
1, 74456, Note_off_c, 0, 38, 61
1, 74507, Note_on_c, 0, 40, 63
1, 74539, Note_on_c, 0, 42, 64
1, 74588, Note_off_c, 0, 40, 62
1, 74592, Note_on_c, 0, 43, 73
1, 74608, Note_off_c, 0, 42, 63
1, 74632, Note_on_c, 0, 71, 78
1, 74634, Note_on_c, 0, 67, 82
1, 74636, Note_on_c, 0, 74, 75
1, 74646, Note_on_c, 0, 45, 64
1, 74648, Note_off_c, 0, 43, 62
1, 74652, Note_off_c, 0, 67, 70
1, 74655, Note_off_c, 0, 71, 65
1, 74656, Note_off_c, 0, 74, 71
1, 74686, Note_off_c, 0, 45, 64
1, 74718, Note_on_c, 0, 47, 80
1, 74746, Note_on_c, 0, 67, 75
1, 74748, Note_on_c, 0, 71, 76
1, 74751, Note_on_c, 0, 74, 68
1, 74769, Note_off_c, 0, 67, 68
1, 74770, Note_off_c, 0, 74, 68
1, 74772, Note_on_c, 0, 48, 69
1, 74772, Note_off_c, 0, 71, 69
1, 74808, Note_off_c, 0, 47, 64
1, 74815, Note_on_c, 0, 50, 69
1, 74828, Note_off_c, 0, 48, 66
1, 74845, Note_on_c, 0, 74, 76
1, 74848, Note_on_c, 0, 67, 69
1, 74854, Note_on_c, 0, 52, 69
1, 74854, Note_off_c, 0, 50, 65
1, 74855, Note_on_c, 0, 71, 72
1, 74867, Note_off_c, 0, 67, 69
1, 74879, Note_off_c, 0, 71, 69
1, 74880, Note_off_c, 0, 74, 56
1, 74889, Note_off_c, 0, 52, 65
1, 74941, Note_on_c, 0, 52, 49
1, 74944, Control_c, 0, 64, 109
1, 74947, Note_on_c, 0, 54, 74
1, 74959, Control_c, 0, 64, 93
1, 74973, Note_on_c, 0, 67, 87
1, 74974, Control_c, 0, 64, 72
1, 74974, Note_on_c, 0, 64, 90
1, 74974, Note_on_c, 0, 76, 84
1, 74980, Note_on_c, 0, 71, 74
1, 74981, Note_on_c, 0, 55, 75
1, 74989, Control_c, 0, 64, 0
1, 75001, Note_off_c, 0, 64, 62
1, 75019, Note_off_c, 0, 52, 61
1, 75021, Note_on_c, 0, 57, 66
1, 75036, Note_off_c, 0, 67, 59
1, 75039, Note_off_c, 0, 54, 63
1, 75039, Note_off_c, 0, 71, 46
1, 75051, Note_off_c, 0, 55, 65
1, 75061, Note_off_c, 0, 76, 63
1, 75080, Note_off_c, 0, 57, 63
1, 75085, Note_on_c, 0, 59, 66
1, 75141, Note_off_c, 0, 59, 60
1, 75185, Note_on_c, 0, 61, 71
1, 75211, Note_on_c, 0, 63, 64
1, 75214, Note_off_c, 0, 61, 67
1, 75245, Note_off_c, 0, 63, 67
1, 75256, Note_on_c, 0, 64, 64
1, 75280, Note_off_c, 0, 64, 68
1, 75297, Note_on_c, 0, 76, 78
1, 75302, Note_on_c, 0, 71, 76
1, 75320, Note_on_c, 0, 67, 72
1, 75320, Note_off_c, 0, 76, 66
1, 75326, Note_on_c, 0, 64, 77
1, 75326, Note_on_c, 0, 69, 71
1, 75347, Note_off_c, 0, 67, 67
1, 75351, Note_off_c, 0, 64, 68
1, 75380, Note_off_c, 0, 69, 64
1, 75414, Note_off_c, 0, 71, 62
1, 75419, Note_on_c, 0, 73, 70
1, 75438, Note_off_c, 0, 73, 67
1, 75481, Note_on_c, 0, 74, 72
1, 75520, Note_off_c, 0, 74, 66
1, 75541, Note_on_c, 0, 76, 60
1, 75600, Note_on_c, 0, 66, 79
1, 75600, Note_on_c, 0, 71, 90
1, 75604, Note_on_c, 0, 59, 74
1, 75644, Note_off_c, 0, 76, 60
1, 75653, Note_on_c, 0, 62, 25
1, 75663, Note_on_c, 0, 78, 59
1, 75664, Note_off_c, 0, 59, 62
1, 75684, Note_off_c, 0, 78, 65
1, 75685, Note_off_c, 0, 66, 65
1, 75695, Note_off_c, 0, 62, 30
1, 75722, Note_off_c, 0, 71, 55
1, 75732, Note_on_c, 0, 79, 73
1, 75754, Note_off_c, 0, 79, 69
1, 75778, Note_on_c, 0, 81, 73
1, 75835, Note_off_c, 0, 81, 63
1, 75842, Note_on_c, 0, 83, 57
1, 75860, Note_off_c, 0, 83, 59
1, 75863, Note_on_c, 0, 85, 62
1, 75895, Note_off_c, 0, 85, 68
1, 75927, Note_on_c, 0, 74, 76
1, 75931, Note_on_c, 0, 67, 66
1, 75931, Note_on_c, 0, 71, 72
1, 75945, Note_on_c, 0, 86, 68
1, 75968, Note_on_c, 0, 88, 61
1, 75985, Note_off_c, 0, 86, 63
1, 76003, Note_on_c, 0, 90, 75
1, 76015, Note_off_c, 0, 88, 63
1, 76031, Note_off_c, 0, 90, 65
1, 76042, Note_on_c, 0, 91, 51
1, 76042, Note_off_c, 0, 74, 60
1, 76050, Note_off_c, 0, 67, 59
1, 76064, Note_off_c, 0, 91, 39
1, 76073, Note_off_c, 0, 71, 51
1, 76095, Note_on_c, 0, 93, 84
1, 76131, Note_on_c, 0, 95, 81
1, 76150, Note_off_c, 0, 93, 58
1, 76182, Note_on_c, 0, 96, 65
1, 76193, Note_on_c, 0, 98, 69
1, 76202, Note_off_c, 0, 95, 66
1, 76207, Note_off_c, 0, 96, 68
1, 76217, Note_off_c, 0, 98, 68
1, 76265, Control_c, 0, 64, 61
1, 76280, Control_c, 0, 64, 76
1, 76281, Note_on_c, 0, 100, 86
1, 76283, Note_on_c, 0, 76, 76
1, 76287, Note_on_c, 0, 71, 67
1, 76290, Note_on_c, 0, 64, 66
1, 76291, Note_on_c, 0, 67, 61
1, 76292, Note_on_c, 0, 91, 82
1, 76295, Control_c, 0, 64, 95
1, 76310, Control_c, 0, 64, 127
1, 76339, Note_off_c, 0, 100, 64
1, 76361, Note_off_c, 0, 91, 59
1, 76363, Note_on_c, 0, 95, 60
1, 76372, Note_on_c, 0, 88, 63
1, 76382, Note_off_c, 0, 95, 63
1, 76387, Note_off_c, 0, 76, 64
1, 76394, Note_off_c, 0, 88, 66
1, 76459, Note_off_c, 0, 64, 50
1, 76470, Note_on_c, 0, 83, 77
1, 76470, Note_off_c, 0, 71, 52
1, 76474, Note_on_c, 0, 91, 74
1, 76500, Note_off_c, 0, 91, 60
1, 76512, Note_off_c, 0, 83, 46
1, 76516, Note_off_c, 0, 67, 37
1, 76539, Note_on_c, 0, 88, 70
1, 76543, Note_on_c, 0, 79, 69
1, 76572, Note_off_c, 0, 79, 63
1, 76642, Note_on_c, 0, 83, 62
1, 76650, Note_off_c, 0, 88, 61
1, 76688, Note_off_c, 0, 83, 57
1, 76690, Note_on_c, 0, 79, 64
1, 76719, Note_off_c, 0, 79, 65
1, 76790, Note_on_c, 0, 76, 68
1, 76794, Note_on_c, 0, 83, 52
1, 76815, Note_off_c, 0, 83, 59
1, 76828, Note_off_c, 0, 76, 60
1, 76847, Note_on_c, 0, 79, 58
1, 76867, Note_off_c, 0, 79, 64
1, 76940, Control_c, 0, 64, 107
1, 76954, Control_c, 0, 64, 91
1, 76969, Control_c, 0, 64, 74
1, 76984, Control_c, 0, 64, 0
1, 77001, Note_on_c, 0, 72, 74
1, 77002, Note_on_c, 0, 64, 74
1, 77013, Note_on_c, 0, 45, 53
1, 77016, Note_on_c, 0, 33, 51
1, 77033, Note_off_c, 0, 72, 59
1, 77040, Note_off_c, 0, 45, 58
1, 77046, Note_off_c, 0, 33, 55
1, 77177, Note_on_c, 0, 32, 58
1, 77183, Note_on_c, 0, 44, 50
1, 77210, Note_off_c, 0, 44, 56
1, 77210, Note_off_c, 0, 32, 63
1, 77259, Note_on_c, 0, 74, 60
1, 77324, Note_off_c, 0, 74, 63
1, 77328, Note_on_c, 0, 72, 66
1, 77330, Note_on_c, 0, 45, 70
1, 77335, Note_on_c, 0, 33, 63
1, 77356, Note_off_c, 0, 72, 66
1, 77359, Note_off_c, 0, 45, 66
1, 77362, Note_off_c, 0, 33, 62
1, 77501, Note_on_c, 0, 47, 70
1, 77512, Note_on_c, 0, 35, 57
1, 77528, Note_off_c, 0, 47, 66
1, 77540, Note_off_c, 0, 35, 58
1, 77576, Note_on_c, 0, 71, 60
1, 77638, Note_off_c, 0, 71, 37
1, 77652, Note_on_c, 0, 69, 74
1, 77658, Note_off_c, 0, 64, 39
1, 77660, Note_on_c, 0, 48, 74
1, 77663, Note_on_c, 0, 36, 66
1, 77680, Note_off_c, 0, 69, 66
1, 77685, Note_off_c, 0, 48, 68
1, 77692, Note_off_c, 0, 36, 65
1, 77815, Note_on_c, 0, 49, 63
1, 77819, Note_on_c, 0, 37, 58
1, 77845, Note_off_c, 0, 49, 64
1, 77850, Note_off_c, 0, 37, 65
1, 77882, Note_on_c, 0, 67, 70
1, 77929, Note_off_c, 0, 67, 55
1, 77954, Note_on_c, 0, 66, 81
1, 77957, Note_on_c, 0, 57, 68
1, 77959, Note_on_c, 0, 50, 74
1, 77960, Note_on_c, 0, 38, 71
1, 77978, Note_off_c, 0, 57, 64
1, 77983, Note_off_c, 0, 66, 65
1, 77986, Note_off_c, 0, 50, 67
1, 77998, Note_off_c, 0, 38, 62
1, 78131, Note_on_c, 0, 48, 75
1, 78140, Note_on_c, 0, 36, 65
1, 78159, Note_off_c, 0, 48, 67
1, 78172, Note_off_c, 0, 36, 63
1, 78183, Note_on_c, 0, 69, 77
1, 78217, Note_off_c, 0, 69, 63
1, 78268, Note_on_c, 0, 66, 90
1, 78273, Note_on_c, 0, 74, 73
1, 78277, Note_on_c, 0, 47, 84
1, 78283, Note_on_c, 0, 35, 73
1, 78301, Note_off_c, 0, 47, 69
1, 78302, Note_off_c, 0, 74, 63
1, 78307, Note_off_c, 0, 35, 67
1, 78432, Note_on_c, 0, 46, 74
1, 78438, Note_on_c, 0, 34, 62
1, 78457, Note_off_c, 0, 46, 65
1, 78465, Note_off_c, 0, 34, 66
1, 78504, Note_on_c, 0, 76, 64
1, 78575, Note_on_c, 0, 74, 70
1, 78578, Note_on_c, 0, 47, 76
1, 78581, Note_off_c, 0, 76, 62
1, 78584, Note_on_c, 0, 35, 66
1, 78603, Note_off_c, 0, 47, 66
1, 78614, Note_off_c, 0, 35, 65
1, 78614, Note_off_c, 0, 74, 61
1, 78733, Note_on_c, 0, 48, 75
1, 78739, Note_on_c, 0, 36, 66
1, 78760, Note_off_c, 0, 48, 67
1, 78764, Note_off_c, 0, 66, 53
1, 78768, Note_off_c, 0, 36, 65
1, 78796, Note_on_c, 0, 72, 72
1, 78839, Note_off_c, 0, 72, 53
1, 78882, Note_on_c, 0, 50, 77
1, 78883, Note_on_c, 0, 71, 80
1, 78884, Note_on_c, 0, 38, 72
1, 78909, Note_off_c, 0, 50, 65
1, 78913, Note_off_c, 0, 38, 64
1, 78921, Note_off_c, 0, 71, 62
1, 79040, Note_on_c, 0, 51, 73
1, 79042, Note_on_c, 0, 39, 65
1, 79065, Note_off_c, 0, 51, 66
1, 79069, Note_off_c, 0, 39, 64
1, 79096, Note_on_c, 0, 69, 80
1, 79172, Note_off_c, 0, 69, 57
1, 79174, Note_on_c, 0, 67, 77
1, 79178, Note_on_c, 0, 52, 79
1, 79180, Note_on_c, 0, 40, 75
1, 79180, Note_on_c, 0, 59, 71
1, 79198, Note_off_c, 0, 59, 65
1, 79204, Note_off_c, 0, 52, 72
1, 79204, Note_off_c, 0, 67, 64
1, 79215, Note_off_c, 0, 40, 64
1, 79331, Note_on_c, 0, 50, 74
1, 79337, Note_on_c, 0, 38, 65
1, 79359, Note_off_c, 0, 50, 66
1, 79374, Note_off_c, 0, 38, 64
1, 79392, Note_on_c, 0, 71, 88
1, 79419, Note_off_c, 0, 71, 60
1, 79469, Note_on_c, 0, 76, 101
1, 79472, Note_on_c, 0, 67, 90
1, 79475, Note_on_c, 0, 48, 85
1, 79479, Note_on_c, 0, 36, 72
1, 79494, Note_off_c, 0, 67, 67
1, 79499, Note_off_c, 0, 48, 70
1, 79508, Note_off_c, 0, 76, 68
1, 79517, Note_off_c, 0, 36, 62
1, 79642, Note_on_c, 0, 47, 79
1, 79648, Note_on_c, 0, 35, 70
1, 79669, Note_off_c, 0, 47, 66
1, 79687, Note_off_c, 0, 35, 64
1, 79696, Note_on_c, 0, 74, 76
1, 79724, Note_off_c, 0, 74, 63
1, 79773, Note_on_c, 0, 72, 91
1, 79775, Note_on_c, 0, 69, 83
1, 79784, Note_on_c, 0, 45, 84
1, 79786, Note_on_c, 0, 33, 73
1, 79810, Note_off_c, 0, 45, 66
1, 79811, Note_off_c, 0, 33, 66
1, 79931, Note_on_c, 0, 48, 82
1, 79936, Note_on_c, 0, 36, 70
1, 79954, Note_off_c, 0, 72, 60
1, 79957, Note_off_c, 0, 48, 68
1, 79964, Note_off_c, 0, 36, 65
1, 79995, Note_on_c, 0, 76, 70
1, 80012, Note_off_c, 0, 69, 63
1, 80036, Note_off_c, 0, 76, 61
1, 80064, Note_on_c, 0, 78, 92
1, 80075, Note_on_c, 0, 50, 87
1, 80078, Note_on_c, 0, 38, 78
1, 80099, Note_off_c, 0, 50, 66
1, 80107, Note_off_c, 0, 78, 64
1, 80109, Note_off_c, 0, 38, 63
1, 80236, Note_on_c, 0, 52, 83
1, 80238, Note_on_c, 0, 40, 76
1, 80263, Note_off_c, 0, 52, 65
1, 80267, Note_off_c, 0, 40, 64
1, 80289, Note_on_c, 0, 76, 84
1, 80316, Note_off_c, 0, 76, 64
1, 80375, Note_on_c, 0, 74, 89
1, 80378, Note_on_c, 0, 69, 82
1, 80382, Note_on_c, 0, 54, 81
1, 80385, Note_on_c, 0, 42, 75
1, 80405, Note_off_c, 0, 54, 66
1, 80416, Note_off_c, 0, 69, 66
1, 80422, Note_off_c, 0, 42, 67
1, 80428, Note_off_c, 0, 74, 58
1, 80528, Note_on_c, 0, 50, 85
1, 80531, Note_on_c, 0, 38, 75
1, 80552, Note_off_c, 0, 50, 68
1, 80576, Note_off_c, 0, 38, 65
1, 80579, Note_on_c, 0, 78, 78
1, 80606, Note_off_c, 0, 78, 64
1, 80654, Note_on_c, 0, 79, 91
1, 80656, Note_on_c, 0, 47, 95
1, 80658, Note_on_c, 0, 67, 92
1, 80662, Note_on_c, 0, 35, 78
1, 80665, Note_on_c, 0, 74, 70
1, 80669, Control_c, 0, 64, 70
1, 80681, Note_off_c, 0, 47, 69
1, 80684, Control_c, 0, 64, 91
1, 80686, Note_off_c, 0, 35, 67
1, 80698, Note_on_c, 0, 40, 24
1, 80699, Note_off_c, 0, 40, 127
1, 80699, Control_c, 0, 64, 127
1, 80703, Note_off_c, 0, 67, 56
1, 80703, Note_off_c, 0, 79, 65
1, 80706, Note_off_c, 0, 74, 61
1, 80742, Poly_aftertouch_c, 0, 40, 0
1, 80767, Poly_aftertouch_c, 0, 41, 0
1, 80819, Note_on_c, 0, 47, 77
1, 80822, Note_on_c, 0, 59, 83
1, 80846, Note_on_c, 0, 50, 43
1, 80853, Note_off_c, 0, 59, 55
1, 80862, Note_on_c, 0, 78, 80
1, 80866, Note_on_c, 0, 66, 77
1, 80872, Note_off_c, 0, 47, 63
1, 80879, Note_off_c, 0, 50, 52
1, 80880, Note_off_c, 0, 78, 72
1, 80892, Note_off_c, 0, 66, 68
1, 80943, Note_on_c, 0, 57, 79
1, 80949, Note_on_c, 0, 76, 94
1, 80952, Note_on_c, 0, 45, 73
1, 80952, Note_on_c, 0, 64, 93
1, 80952, Note_on_c, 0, 50, 73
1, 80964, Note_off_c, 0, 57, 69
1, 80967, Control_c, 0, 64, 112
1, 80969, Note_on_c, 0, 75, 65
1, 80975, Note_off_c, 0, 64, 68
1, 80982, Note_off_c, 0, 50, 66
1, 80982, Control_c, 0, 64, 92
1, 80985, Note_off_c, 0, 45, 68
1, 80986, Note_off_c, 0, 75, 67
1, 80995, Note_off_c, 0, 76, 67
1, 80997, Control_c, 0, 64, 70
1, 81012, Control_c, 0, 64, 0
1, 81083, Note_on_c, 0, 50, 82
1, 81087, Note_on_c, 0, 38, 73
1, 81107, Note_off_c, 0, 50, 67
1, 81124, Note_off_c, 0, 38, 64
1, 81149, Note_on_c, 0, 78, 86
1, 81164, Note_on_c, 0, 66, 59
1, 81184, Note_off_c, 0, 66, 64
1, 81204, Note_off_c, 0, 78, 63
1, 81238, Note_on_c, 0, 71, 88
1, 81240, Note_on_c, 0, 55, 92
1, 81240, Note_on_c, 0, 67, 98
1, 81240, Note_on_c, 0, 79, 95
1, 81241, Note_on_c, 0, 50, 83
1, 81247, Note_on_c, 0, 43, 85
1, 81256, Control_c, 0, 64, 76
1, 81260, Note_off_c, 0, 55, 74
1, 81261, Note_off_c, 0, 67, 64
1, 81265, Note_off_c, 0, 50, 68
1, 81271, Control_c, 0, 64, 127
1, 81277, Note_off_c, 0, 71, 63
1, 81284, Note_off_c, 0, 79, 65
1, 81301, Note_off_c, 0, 43, 62
1, 81390, Control_c, 0, 64, 94
1, 81404, Control_c, 0, 64, 63
1, 81419, Control_c, 0, 64, 0
1, 81650, Note_on_c, 0, 91, 105
1, 81652, Note_on_c, 0, 83, 94
1, 81654, Note_on_c, 0, 79, 100
1, 81655, Note_on_c, 0, 43, 96
1, 81657, Note_on_c, 0, 38, 82
1, 81658, Note_on_c, 0, 31, 85
1, 81661, Note_on_c, 0, 35, 85
1, 81672, Control_c, 0, 64, 78
1, 81687, Control_c, 0, 64, 127
1, 81710, Note_off_c, 0, 79, 63
1, 81714, Note_off_c, 0, 91, 62
1, 81714, Note_on_c, 0, 87, 10
1, 81714, Note_on_c, 0, 88, 31
1, 81720, Note_off_c, 0, 43, 63
1, 81721, Note_off_c, 0, 31, 64
1, 81727, Note_off_c, 0, 83, 64
1, 81738, Note_off_c, 0, 35, 63
1, 81740, Note_off_c, 0, 38, 63
1, 81748, Note_off_c, 0, 87, 32
1, 81754, Note_off_c, 0, 88, 34
1, 82094, Control_c, 0, 64, 117
1, 82109, Control_c, 0, 64, 102
1, 82123, Control_c, 0, 64, 91
1, 82139, Control_c, 0, 64, 79
1, 82153, Control_c, 0, 64, 65
1, 82168, Control_c, 0, 64, 0
1, 92414, Control_c, 0, 67, 11
1, 92428, Control_c, 0, 67, 15
1, 92443, Control_c, 0, 67, 18
1, 92458, Control_c, 0, 67, 19
1, 92473, Control_c, 0, 67, 19
1, 92503, Control_c, 0, 67, 19
1, 92636, Control_c, 0, 67, 18
1, 92680, Control_c, 0, 67, 18
1, 92695, Control_c, 0, 67, 17
1, 92740, Control_c, 0, 67, 17
1, 92754, Control_c, 0, 67, 16
1, 92769, Control_c, 0, 67, 16
1, 92785, Control_c, 0, 67, 15
1, 92815, Control_c, 0, 67, 15
1, 92859, Control_c, 0, 67, 14
1, 92889, Control_c, 0, 67, 14
1, 93007, Control_c, 0, 67, 14
1, 93037, Control_c, 0, 67, 15
1, 93148, Control_c, 0, 67, 15
1, 93414, Control_c, 0, 67, 15
1, 93547, Control_c, 0, 67, 14
1, 93637, Control_c, 0, 67, 14
1, 93896, Control_c, 0, 67, 14
1, 93926, Control_c, 0, 67, 15
1, 93985, Control_c, 0, 67, 15
1, 94044, Control_c, 0, 67, 16
1, 94074, Control_c, 0, 67, 16
1, 94119, Control_c, 0, 67, 17
1, 94311, Control_c, 0, 67, 17
1, 94340, Control_c, 0, 67, 16
1, 94416, Control_c, 0, 67, 16
1, 94460, Control_c, 0, 67, 15
1, 94578, Control_c, 0, 67, 15
1, 95075, Control_c, 0, 67, 15
1, 95164, Control_c, 0, 67, 16
1, 95225, Control_c, 0, 67, 16
1, 95394, Control_c, 0, 67, 16
1, 95409, Control_c, 0, 67, 15
1, 95439, Control_c, 0, 67, 15
1, 95469, Control_c, 0, 67, 14
1, 95484, Control_c, 0, 67, 14
1, 95513, Control_c, 0, 67, 13
1, 95528, Control_c, 0, 67, 13
1, 95645, Control_c, 0, 67, 12
1, 95660, Control_c, 0, 67, 12
1, 95690, Control_c, 0, 67, 11
1, 95719, Control_c, 0, 67, 10
1, 95749, Control_c, 0, 67, 9
1, 95764, Control_c, 0, 67, 9
1, 95778, Control_c, 0, 67, 8
1, 95808, Control_c, 0, 67, 8
1, 95822, Control_c, 0, 67, 0
1, 95822, End_track
0, 0, End_of_file
