0, 0, Header, 0, 1, 384
1, 0, Start_track
1, 0, Title_t, "Intermezzo--Anna Denisova       "
1, 0, Text_t, "2008 e-Piano Junior Competition recital round"
1, 0, Text_t, "recorded July 2008"
1, 0, Text_t, "http://www.piano-e-competition.com/"
1, 0, Text_t, "File processed for distribution by software from Zenph Studios, Inc., http://www.zenph.com"
1, 0, Instrument_name_t, "Yamaha Disklavier Pro Mark IV concert grand piano, model DCFIIISM4PRO"
1, 0, Sequencer_specific, 39, 67, 113, 0, 1, 0, 1, 0, 73, 110, 116, 101, 114, 109, 101, 122, 122, 111, 32, 32, 32, 32, 32, 32, 65, 110, 110, 97, 32, 68, 101, 110, 105, 115, 111, 118, 97, 32, 32, 32
1, 0, Sequencer_specific, 6, 67, 113, 0, 0, 0, 69
1, 0, System_exclusive, 21, 67, 113, 126, 21, 0, 2, 2, 0, 3, 14, 1, 4, 1, 13, 13, 10, 11, 9, 2, 7, 247
1, 0, Sequencer_specific, 5, 67, 123, 12, 2, 1
1, 0, Tempo, 512820
1, 0, Time_signature, 4, 2, 24, 8
1, 0, System_exclusive, 5, 126, 127, 9, 1, 247
1, 1, System_exclusive, 8, 67, 16, 76, 0, 0, 126, 0, 247
1, 2, System_exclusive, 8, 67, 16, 76, 8, 9, 7, 1, 247
1, 3, Control_c, 0, 0, 0
1, 3, Control_c, 1, 0, 0
1, 3, Control_c, 2, 0, 0
1, 3, Control_c, 3, 0, 0
1, 3, Control_c, 4, 0, 0
1, 3, Control_c, 5, 0, 0
1, 3, Control_c, 6, 0, 0
1, 3, Control_c, 7, 0, 0
1, 3, Control_c, 8, 0, 0
1, 3, Control_c, 9, 0, 127
1, 3, Control_c, 10, 0, 0
1, 3, Control_c, 11, 0, 0
1, 3, Control_c, 12, 0, 0
1, 3, Control_c, 13, 0, 0
1, 3, Control_c, 14, 0, 0
1, 3, Control_c, 15, 0, 0
1, 4, Control_c, 0, 32, 0
1, 4, Control_c, 1, 32, 0
1, 4, Control_c, 2, 32, 0
1, 4, Control_c, 3, 32, 0
1, 4, Control_c, 4, 32, 0
1, 4, Control_c, 5, 32, 0
1, 4, Control_c, 6, 32, 0
1, 4, Control_c, 7, 32, 0
1, 4, Control_c, 8, 32, 0
1, 4, Control_c, 9, 32, 0
1, 4, Control_c, 10, 32, 0
1, 4, Control_c, 11, 32, 0
1, 4, Control_c, 12, 32, 0
1, 4, Control_c, 13, 32, 0
1, 4, Control_c, 14, 32, 0
1, 4, Control_c, 15, 32, 0
1, 5, Program_c, 0, 0
1, 5, Program_c, 1, 0
1, 5, Program_c, 2, 0
1, 5, Program_c, 3, 0
1, 5, Program_c, 4, 0
1, 5, Program_c, 5, 0
1, 5, Program_c, 6, 0
1, 5, Program_c, 7, 0
1, 5, Program_c, 8, 0
1, 5, Program_c, 9, 0
1, 5, Program_c, 10, 0
1, 5, Program_c, 11, 0
1, 5, Program_c, 12, 0
1, 5, Program_c, 13, 0
1, 5, Program_c, 14, 0
1, 5, Program_c, 15, 0
1, 6, Control_c, 0, 7, 100
1, 6, Control_c, 1, 7, 100
1, 6, Control_c, 2, 7, 100
1, 6, Control_c, 3, 7, 100
1, 6, Control_c, 4, 7, 100
1, 6, Control_c, 5, 7, 100
1, 6, Control_c, 6, 7, 100
1, 6, Control_c, 7, 7, 100
1, 6, Control_c, 8, 7, 100
1, 6, Control_c, 9, 7, 100
1, 6, Control_c, 10, 7, 100
1, 6, Control_c, 11, 7, 100
1, 6, Control_c, 12, 7, 100
1, 6, Control_c, 13, 7, 100
1, 6, Control_c, 14, 7, 100
1, 6, Control_c, 15, 7, 100
1, 117, Control_c, 0, 64, 15
1, 117, Control_c, 0, 67, 15
1, 229, Control_c, 0, 64, 31
1, 229, Control_c, 0, 67, 31
1, 341, Control_c, 0, 64, 46
1, 341, Control_c, 0, 67, 46
1, 452, Control_c, 0, 64, 63
1, 452, Control_c, 0, 67, 63
1, 564, Control_c, 0, 64, 77
1, 564, Control_c, 0, 67, 77
1, 676, Control_c, 0, 64, 94
1, 676, Control_c, 0, 67, 94
1, 787, Control_c, 0, 64, 108
1, 787, Control_c, 0, 67, 108
1, 899, Control_c, 0, 64, 127
1, 899, Control_c, 0, 67, 127
1, 1138, Note_on_c, 0, 36, 35
1, 1313, Note_off_c, 0, 36, 40
1, 1325, Note_on_c, 0, 48, 50
1, 1390, Note_off_c, 0, 48, 62
1, 1541, Note_on_c, 0, 52, 39
1, 1652, Note_off_c, 0, 52, 56
1, 1662, Note_on_c, 0, 55, 43
1, 1720, Note_off_c, 0, 55, 59
1, 1775, Note_on_c, 0, 60, 48
1, 1802, Note_off_c, 0, 60, 58
1, 1884, Note_on_c, 0, 64, 46
1, 1926, Note_off_c, 0, 64, 54
1, 1979, Note_on_c, 0, 67, 46
1, 2056, Note_off_c, 0, 67, 48
1, 2099, Note_on_c, 0, 72, 47
1, 2152, Note_off_c, 0, 72, 55
1, 2185, Note_on_c, 0, 76, 41
1, 2217, Note_off_c, 0, 76, 53
1, 2282, Note_on_c, 0, 48, 47
1, 2334, Note_off_c, 0, 48, 60
1, 2370, Note_on_c, 0, 52, 45
1, 2442, Note_off_c, 0, 52, 58
1, 2478, Note_on_c, 0, 55, 43
1, 2517, Note_off_c, 0, 55, 56
1, 2576, Note_on_c, 0, 60, 38
1, 2606, Note_off_c, 0, 60, 48
1, 2647, Note_on_c, 0, 64, 51
1, 2699, Note_off_c, 0, 64, 56
1, 2741, Note_on_c, 0, 67, 47
1, 2796, Note_off_c, 0, 67, 59
1, 2837, Note_on_c, 0, 72, 44
1, 2891, Note_off_c, 0, 72, 59
1, 2918, Note_on_c, 0, 76, 43
1, 2975, Note_off_c, 0, 76, 43
1, 3014, Note_on_c, 0, 48, 50
1, 3073, Note_off_c, 0, 48, 62
1, 3101, Note_on_c, 0, 52, 50
1, 3172, Note_off_c, 0, 52, 56
1, 3198, Note_on_c, 0, 55, 43
1, 3230, Note_off_c, 0, 55, 57
1, 3288, Note_on_c, 0, 60, 46
1, 3314, Note_off_c, 0, 60, 56
1, 3369, Note_on_c, 0, 64, 44
1, 3419, Note_off_c, 0, 64, 53
1, 3457, Note_on_c, 0, 67, 46
1, 3519, Note_off_c, 0, 67, 56
1, 3549, Note_on_c, 0, 72, 45
1, 3606, Note_off_c, 0, 72, 54
1, 3634, Note_on_c, 0, 76, 47
1, 3729, Note_on_c, 0, 48, 52
1, 3762, Note_off_c, 0, 76, 29
1, 3796, Note_off_c, 0, 48, 64
1, 3822, Note_on_c, 0, 52, 50
1, 3890, Note_off_c, 0, 52, 53
1, 3927, Note_on_c, 0, 55, 41
1, 3966, Note_off_c, 0, 55, 49
1, 4004, Note_on_c, 0, 60, 44
1, 4030, Note_off_c, 0, 60, 55
1, 4090, Note_on_c, 0, 64, 45
1, 4147, Note_off_c, 0, 64, 59
1, 4183, Note_on_c, 0, 67, 42
1, 4232, Note_off_c, 0, 67, 47
1, 4275, Note_on_c, 0, 72, 42
1, 4342, Note_off_c, 0, 72, 51
1, 4355, Note_on_c, 0, 76, 43
1, 4403, Note_off_c, 0, 76, 47
1, 4442, Note_on_c, 0, 48, 47
1, 4493, Note_off_c, 0, 48, 60
1, 4527, Note_on_c, 0, 52, 41
1, 4589, Note_off_c, 0, 52, 59
1, 4629, Note_on_c, 0, 55, 39
1, 4663, Note_off_c, 0, 55, 54
1, 4720, Note_on_c, 0, 60, 35
1, 4753, Note_off_c, 0, 60, 47
1, 4790, Note_on_c, 0, 64, 43
1, 4841, Note_off_c, 0, 64, 60
1, 4879, Note_on_c, 0, 67, 42
1, 4924, Note_off_c, 0, 67, 47
1, 4949, Note_on_c, 0, 72, 48
1, 5035, Note_off_c, 0, 72, 49
1, 5045, Note_on_c, 0, 76, 39
1, 5084, Note_off_c, 0, 76, 50
1, 5127, Note_on_c, 0, 48, 46
1, 5196, Note_off_c, 0, 48, 60
1, 5222, Note_on_c, 0, 52, 47
1, 5297, Note_off_c, 0, 52, 56
1, 5322, Note_on_c, 0, 55, 40
1, 5358, Note_off_c, 0, 55, 53
1, 5407, Note_on_c, 0, 60, 42
1, 5431, Note_off_c, 0, 60, 57
1, 5490, Note_on_c, 0, 64, 45
1, 5548, Note_off_c, 0, 64, 59
1, 5579, Note_on_c, 0, 67, 49
1, 5636, Note_off_c, 0, 67, 57
1, 5675, Note_on_c, 0, 72, 46
1, 5730, Note_off_c, 0, 72, 55
1, 5783, Note_on_c, 0, 76, 42
1, 5819, Note_off_c, 0, 76, 53
1, 6156, Note_on_c, 0, 60, 76
1, 6197, Note_on_c, 0, 48, 45
1, 6268, Control_c, 0, 64, 110
1, 6284, Control_c, 0, 64, 91
1, 6299, Control_c, 0, 64, 73
1, 6314, Control_c, 0, 64, 0
1, 6358, Control_c, 0, 64, 54
1, 6363, Note_on_c, 0, 52, 48
1, 6373, Control_c, 0, 64, 69
1, 6388, Control_c, 0, 64, 78
1, 6403, Control_c, 0, 64, 90
1, 6417, Control_c, 0, 64, 101
1, 6432, Control_c, 0, 64, 110
1, 6447, Control_c, 0, 64, 117
1, 6461, Control_c, 0, 64, 123
1, 6476, Control_c, 0, 64, 127
1, 6490, Note_on_c, 0, 55, 50
1, 6558, Note_off_c, 0, 55, 54
1, 6562, Note_off_c, 0, 52, 54
1, 6564, Note_off_c, 0, 48, 44
1, 6639, Note_on_c, 0, 64, 49
1, 6729, Note_off_c, 0, 64, 63
1, 6747, Note_on_c, 0, 67, 55
1, 6817, Note_off_c, 0, 67, 60
1, 6865, Note_on_c, 0, 72, 53
1, 6872, Note_off_c, 0, 60, 48
1, 7021, Note_on_c, 0, 62, 81
1, 7032, Note_on_c, 0, 48, 46
1, 7135, Note_off_c, 0, 72, 51
1, 7136, Control_c, 0, 64, 118
1, 7151, Control_c, 0, 64, 100
1, 7166, Control_c, 0, 64, 84
1, 7181, Control_c, 0, 64, 66
1, 7184, Note_on_c, 0, 53, 47
1, 7196, Control_c, 0, 64, 0
1, 7240, Control_c, 0, 64, 64
1, 7262, Control_c, 0, 64, 73
1, 7277, Control_c, 0, 64, 83
1, 7291, Control_c, 0, 64, 95
1, 7306, Control_c, 0, 64, 105
1, 7316, Note_on_c, 0, 57, 55
1, 7321, Control_c, 0, 64, 111
1, 7336, Control_c, 0, 64, 115
1, 7351, Control_c, 0, 64, 120
1, 7356, Note_off_c, 0, 48, 0
1, 7366, Control_c, 0, 64, 127
1, 7381, Control_c, 0, 64, 127
1, 7381, Poly_aftertouch_c, 0, 48, 0
1, 7391, Note_off_c, 0, 53, 50
1, 7404, Note_off_c, 0, 57, 58
1, 7450, Note_on_c, 0, 65, 56
1, 7536, Note_off_c, 0, 65, 64
1, 7557, Note_on_c, 0, 69, 56
1, 7617, Note_off_c, 0, 69, 59
1, 7654, Note_off_c, 0, 62, 36
1, 7655, Note_on_c, 0, 74, 56
1, 7813, Note_on_c, 0, 64, 82
1, 7817, Note_on_c, 0, 48, 45
1, 7914, Control_c, 0, 64, 113
1, 7929, Control_c, 0, 64, 94
1, 7936, Note_off_c, 0, 74, 38
1, 7944, Control_c, 0, 64, 75
1, 7957, Note_on_c, 0, 52, 55
1, 7959, Control_c, 0, 64, 0
1, 8026, Control_c, 0, 64, 36
1, 8040, Control_c, 0, 64, 69
1, 8055, Control_c, 0, 64, 79
1, 8070, Control_c, 0, 64, 91
1, 8079, Note_on_c, 0, 55, 52
1, 8085, Control_c, 0, 64, 100
1, 8100, Control_c, 0, 64, 104
1, 8114, Control_c, 0, 64, 107
1, 8129, Control_c, 0, 64, 111
1, 8144, Control_c, 0, 64, 115
1, 8148, Note_off_c, 0, 48, 38
1, 8159, Control_c, 0, 64, 120
1, 8174, Control_c, 0, 64, 125
1, 8183, Note_off_c, 0, 52, 37
1, 8189, Control_c, 0, 64, 127
1, 8192, Note_on_c, 0, 60, 58
1, 8213, Note_off_c, 0, 55, 59
1, 8225, Note_off_c, 0, 60, 64
1, 8279, Note_off_c, 0, 64, 60
1, 8287, Note_on_c, 0, 67, 56
1, 8362, Note_off_c, 0, 67, 60
1, 8391, Note_on_c, 0, 72, 51
1, 8458, Note_off_c, 0, 72, 61
1, 8481, Note_on_c, 0, 76, 54
1, 8484, Note_on_c, 0, 36, 45
1, 8620, Note_off_c, 0, 76, 39
1, 8730, Note_on_c, 0, 62, 81
1, 8743, Note_on_c, 0, 48, 47
1, 8833, Control_c, 0, 64, 110
1, 8848, Control_c, 0, 64, 89
1, 8862, Control_c, 0, 64, 69
1, 8877, Control_c, 0, 64, 0
1, 8922, Control_c, 0, 64, 22
1, 8937, Control_c, 0, 64, 73
1, 8938, Note_off_c, 0, 36, 56
1, 8952, Control_c, 0, 64, 88
1, 8967, Control_c, 0, 64, 109
1, 8982, Control_c, 0, 64, 127
1, 9015, Note_off_c, 0, 48, 64
1, 9044, Note_off_c, 0, 62, 59
1, 9138, Note_on_c, 0, 53, 49
1, 9218, Note_off_c, 0, 53, 63
1, 9233, Note_on_c, 0, 57, 52
1, 9270, Note_off_c, 0, 57, 61
1, 9337, Note_on_c, 0, 62, 38
1, 9369, Note_off_c, 0, 62, 49
1, 9408, Note_on_c, 0, 65, 55
1, 9461, Note_off_c, 0, 65, 54
1, 9512, Note_on_c, 0, 69, 54
1, 9569, Note_off_c, 0, 69, 57
1, 9608, Note_on_c, 0, 74, 43
1, 9661, Note_off_c, 0, 74, 52
1, 9675, Note_on_c, 0, 77, 49
1, 9729, Note_off_c, 0, 77, 52
1, 9754, Note_on_c, 0, 48, 51
1, 9821, Note_off_c, 0, 48, 64
1, 9855, Note_on_c, 0, 53, 46
1, 9916, Note_off_c, 0, 53, 62
1, 9944, Note_on_c, 0, 57, 47
1, 9980, Note_off_c, 0, 57, 63
1, 10033, Note_on_c, 0, 62, 51
1, 10057, Note_off_c, 0, 62, 60
1, 10125, Note_on_c, 0, 65, 53
1, 10177, Note_off_c, 0, 65, 57
1, 10219, Note_on_c, 0, 69, 46
1, 10271, Note_off_c, 0, 69, 64
1, 10311, Note_on_c, 0, 74, 39
1, 10365, Note_off_c, 0, 74, 55
1, 10387, Note_on_c, 0, 77, 46
1, 10428, Note_off_c, 0, 77, 53
1, 10460, Note_on_c, 0, 48, 48
1, 10512, Note_off_c, 0, 48, 61
1, 10555, Note_on_c, 0, 53, 42
1, 10605, Note_off_c, 0, 53, 64
1, 10632, Note_on_c, 0, 57, 52
1, 10667, Note_off_c, 0, 57, 63
1, 10733, Note_on_c, 0, 62, 39
1, 10762, Note_off_c, 0, 62, 51
1, 10807, Note_on_c, 0, 65, 53
1, 10857, Note_off_c, 0, 65, 58
1, 10899, Note_on_c, 0, 69, 46
1, 10946, Note_off_c, 0, 69, 60
1, 10993, Note_on_c, 0, 74, 39
1, 11044, Note_off_c, 0, 74, 61
1, 11082, Note_on_c, 0, 77, 49
1, 11135, Note_off_c, 0, 77, 54
1, 11345, Note_on_c, 0, 62, 70
1, 11369, Note_on_c, 0, 48, 43
1, 11435, Control_c, 0, 64, 126
1, 11450, Control_c, 0, 64, 102
1, 11464, Control_c, 0, 64, 82
1, 11479, Control_c, 0, 64, 61
1, 11494, Control_c, 0, 64, 0
1, 11523, Note_on_c, 0, 53, 47
1, 11538, Control_c, 0, 64, 63
1, 11553, Control_c, 0, 64, 75
1, 11568, Control_c, 0, 64, 88
1, 11582, Control_c, 0, 64, 102
1, 11590, Note_off_c, 0, 62, 60
1, 11597, Control_c, 0, 64, 109
1, 11612, Control_c, 0, 64, 113
1, 11624, Note_on_c, 0, 57, 54
1, 11627, Control_c, 0, 64, 115
1, 11634, Note_off_c, 0, 48, 51
1, 11642, Control_c, 0, 64, 120
1, 11656, Control_c, 0, 64, 125
1, 11670, Note_off_c, 0, 53, 54
1, 11671, Note_off_c, 0, 57, 54
1, 11671, Control_c, 0, 64, 127
1, 11748, Note_on_c, 0, 65, 51
1, 11796, Note_off_c, 0, 65, 65
1, 11833, Note_on_c, 0, 69, 55
1, 11881, Note_off_c, 0, 69, 60
1, 11921, Note_on_c, 0, 74, 50
1, 11962, Note_off_c, 0, 74, 58
1, 12001, Note_on_c, 0, 77, 59
1, 12047, Note_off_c, 0, 77, 50
1, 12163, Note_on_c, 0, 64, 79
1, 12177, Note_on_c, 0, 48, 47
1, 12243, Control_c, 0, 64, 118
1, 12258, Control_c, 0, 64, 100
1, 12272, Control_c, 0, 64, 79
1, 12287, Control_c, 0, 64, 48
1, 12302, Control_c, 0, 64, 0
1, 12316, Note_on_c, 0, 55, 50
1, 12362, Control_c, 0, 64, 67
1, 12377, Control_c, 0, 64, 80
1, 12392, Control_c, 0, 64, 93
1, 12406, Control_c, 0, 64, 102
1, 12421, Control_c, 0, 64, 106
1, 12436, Control_c, 0, 64, 108
1, 12450, Note_on_c, 0, 60, 55
1, 12451, Control_c, 0, 64, 112
1, 12455, Note_off_c, 0, 48, 44
1, 12466, Control_c, 0, 64, 116
1, 12480, Control_c, 0, 64, 120
1, 12490, Note_off_c, 0, 60, 59
1, 12495, Control_c, 0, 64, 124
1, 12517, Control_c, 0, 64, 127
1, 12532, Control_c, 0, 64, 127
1, 12534, Note_off_c, 0, 55, 48
1, 12565, Note_off_c, 0, 64, 60
1, 12580, Note_on_c, 0, 67, 56
1, 12651, Note_off_c, 0, 67, 57
1, 12666, Note_on_c, 0, 72, 55
1, 12741, Note_off_c, 0, 72, 62
1, 12758, Note_on_c, 0, 76, 60
1, 12885, Note_on_c, 0, 48, 52
1, 12891, Note_on_c, 0, 65, 80
1, 12948, Control_c, 0, 64, 120
1, 12963, Control_c, 0, 64, 103
1, 12977, Control_c, 0, 64, 85
1, 12988, Note_off_c, 0, 76, 36
1, 12992, Control_c, 0, 64, 64
1, 13007, Control_c, 0, 64, 0
1, 13025, Note_on_c, 0, 53, 48
1, 13066, Control_c, 0, 64, 67
1, 13081, Control_c, 0, 64, 78
1, 13095, Note_off_c, 0, 48, 60
1, 13096, Control_c, 0, 64, 92
1, 13110, Control_c, 0, 64, 103
1, 13125, Control_c, 0, 64, 108
1, 13133, Note_on_c, 0, 57, 56
1, 13140, Control_c, 0, 64, 111
1, 13150, Note_off_c, 0, 53, 64
1, 13155, Control_c, 0, 64, 115
1, 13170, Control_c, 0, 64, 120
1, 13185, Control_c, 0, 64, 127
1, 13187, Note_off_c, 0, 57, 59
1, 13227, Note_on_c, 0, 62, 61
1, 13262, Note_off_c, 0, 62, 63
1, 13319, Note_off_c, 0, 65, 63
1, 13332, Note_on_c, 0, 69, 57
1, 13410, Note_off_c, 0, 69, 62
1, 13426, Note_on_c, 0, 74, 53
1, 13481, Note_off_c, 0, 74, 58
1, 13516, Note_on_c, 0, 36, 50
1, 13516, Note_on_c, 0, 77, 57
1, 13658, Note_off_c, 0, 77, 35
1, 13778, Note_on_c, 0, 64, 76
1, 13782, Note_on_c, 0, 48, 40
1, 13859, Control_c, 0, 64, 118
1, 13874, Control_c, 0, 64, 99
1, 13889, Control_c, 0, 64, 79
1, 13904, Control_c, 0, 64, 0
1, 13978, Control_c, 0, 64, 69
1, 13986, Note_off_c, 0, 36, 56
1, 14000, Control_c, 0, 64, 83
1, 14015, Control_c, 0, 64, 106
1, 14030, Control_c, 0, 64, 123
1, 14045, Control_c, 0, 64, 127
1, 14074, Note_off_c, 0, 48, 51
1, 14200, Note_on_c, 0, 55, 49
1, 14233, Note_off_c, 0, 64, 41
1, 14236, Note_off_c, 0, 55, 61
1, 14290, Note_on_c, 0, 60, 50
1, 14327, Note_off_c, 0, 60, 61
1, 14405, Note_on_c, 0, 67, 45
1, 14459, Note_off_c, 0, 67, 55
1, 14499, Note_on_c, 0, 72, 46
1, 14562, Note_off_c, 0, 72, 53
1, 14591, Note_on_c, 0, 76, 48
1, 14687, Note_on_c, 0, 48, 48
1, 14735, Note_off_c, 0, 76, 38
1, 14778, Note_on_c, 0, 52, 48
1, 14785, Note_off_c, 0, 48, 48
1, 14866, Note_off_c, 0, 52, 59
1, 14878, Note_on_c, 0, 55, 42
1, 14928, Note_off_c, 0, 55, 57
1, 14964, Note_on_c, 0, 60, 45
1, 14989, Note_off_c, 0, 60, 58
1, 15070, Note_on_c, 0, 64, 73
1, 15173, Note_off_c, 0, 64, 61
1, 15179, Note_on_c, 0, 67, 59
1, 15259, Note_off_c, 0, 67, 60
1, 15274, Note_on_c, 0, 72, 54
1, 15337, Note_off_c, 0, 72, 63
1, 15349, Note_on_c, 0, 76, 63
1, 15517, Note_on_c, 0, 65, 81
1, 15537, Note_on_c, 0, 50, 52
1, 15555, Note_on_c, 0, 48, 41
1, 15571, Note_off_c, 0, 76, 58
1, 15586, Control_c, 0, 64, 127
1, 15601, Control_c, 0, 64, 102
1, 15616, Control_c, 0, 64, 81
1, 15630, Control_c, 0, 64, 0
1, 15671, Note_on_c, 0, 53, 56
1, 15704, Control_c, 0, 64, 38
1, 15719, Control_c, 0, 64, 69
1, 15734, Control_c, 0, 64, 83
1, 15748, Control_c, 0, 64, 96
1, 15764, Control_c, 0, 64, 104
1, 15769, Note_on_c, 0, 56, 56
1, 15779, Control_c, 0, 64, 108
1, 15794, Control_c, 0, 64, 112
1, 15801, Note_off_c, 0, 65, 64
1, 15809, Control_c, 0, 64, 115
1, 15823, Control_c, 0, 64, 119
1, 15838, Control_c, 0, 64, 123
1, 15845, Note_on_c, 0, 60, 61
1, 15853, Control_c, 0, 64, 127
1, 15900, Note_off_c, 0, 60, 54
1, 15931, Note_off_c, 0, 56, 58
1, 15938, Note_on_c, 0, 62, 80
1, 15954, Note_off_c, 0, 53, 48
1, 15981, Note_off_c, 0, 50, 50
1, 15990, Note_off_c, 0, 48, 42
1, 16043, Note_on_c, 0, 68, 65
1, 16054, Note_off_c, 0, 62, 57
1, 16135, Note_on_c, 0, 72, 59
1, 16136, Note_off_c, 0, 68, 60
1, 16198, Note_on_c, 0, 36, 47
1, 16218, Note_on_c, 0, 74, 60
1, 16277, Note_off_c, 0, 72, 52
1, 16438, Note_on_c, 0, 48, 49
1, 16438, Note_on_c, 0, 64, 75
1, 16469, Control_c, 0, 64, 125
1, 16484, Control_c, 0, 64, 110
1, 16499, Control_c, 0, 64, 90
1, 16499, Note_off_c, 0, 74, 54
1, 16514, Control_c, 0, 64, 71
1, 16528, Control_c, 0, 64, 0
1, 16602, Control_c, 0, 64, 40
1, 16616, Note_off_c, 0, 36, 42
1, 16617, Control_c, 0, 64, 71
1, 16632, Control_c, 0, 64, 84
1, 16646, Control_c, 0, 64, 99
1, 16661, Control_c, 0, 64, 108
1, 16677, Control_c, 0, 64, 113
1, 16692, Control_c, 0, 64, 116
1, 16696, Note_off_c, 0, 48, 53
1, 16707, Control_c, 0, 64, 119
1, 16722, Control_c, 0, 64, 122
1, 16737, Control_c, 0, 64, 125
1, 16751, Control_c, 0, 64, 127
1, 16777, Note_off_c, 0, 64, 55
1, 16818, Note_on_c, 0, 55, 48
1, 16860, Note_off_c, 0, 55, 61
1, 16905, Note_on_c, 0, 60, 49
1, 16935, Note_off_c, 0, 60, 56
1, 17011, Note_on_c, 0, 67, 45
1, 17075, Note_off_c, 0, 67, 56
1, 17100, Note_on_c, 0, 72, 49
1, 17156, Note_off_c, 0, 72, 53
1, 17191, Note_on_c, 0, 76, 44
1, 17251, Note_off_c, 0, 76, 52
1, 17277, Note_on_c, 0, 48, 49
1, 17357, Note_off_c, 0, 48, 51
1, 17366, Note_on_c, 0, 52, 45
1, 17427, Note_off_c, 0, 52, 59
1, 17452, Note_on_c, 0, 55, 38
1, 17506, Note_off_c, 0, 55, 43
1, 17526, Note_on_c, 0, 60, 42
1, 17553, Note_off_c, 0, 60, 57
1, 17635, Note_on_c, 0, 64, 59
1, 17713, Note_off_c, 0, 64, 61
1, 17733, Note_on_c, 0, 67, 50
1, 17797, Note_off_c, 0, 67, 57
1, 17831, Note_on_c, 0, 72, 47
1, 17881, Note_off_c, 0, 72, 58
1, 17919, Note_on_c, 0, 76, 51
1, 18052, Note_on_c, 0, 65, 65
1, 18061, Note_on_c, 0, 50, 43
1, 18085, Control_c, 0, 64, 115
1, 18092, Note_on_c, 0, 48, 32
1, 18100, Control_c, 0, 64, 99
1, 18115, Control_c, 0, 64, 78
1, 18130, Control_c, 0, 64, 47
1, 18136, Note_off_c, 0, 76, 37
1, 18144, Control_c, 0, 64, 0
1, 18201, Note_on_c, 0, 53, 49
1, 18218, Control_c, 0, 64, 65
1, 18233, Control_c, 0, 64, 75
1, 18248, Control_c, 0, 64, 85
1, 18264, Control_c, 0, 64, 94
1, 18279, Control_c, 0, 64, 99
1, 18294, Control_c, 0, 64, 103
1, 18299, Note_off_c, 0, 65, 63
1, 18306, Note_on_c, 0, 56, 47
1, 18309, Control_c, 0, 64, 107
1, 18323, Control_c, 0, 64, 110
1, 18338, Control_c, 0, 64, 113
1, 18353, Control_c, 0, 64, 116
1, 18368, Control_c, 0, 64, 119
1, 18383, Control_c, 0, 64, 122
1, 18384, Note_on_c, 0, 60, 51
1, 18397, Control_c, 0, 64, 123
1, 18412, Control_c, 0, 64, 125
1, 18427, Control_c, 0, 64, 126
1, 18428, Note_off_c, 0, 60, 59
1, 18441, Control_c, 0, 64, 127
1, 18456, Control_c, 0, 64, 127
1, 18467, Note_on_c, 0, 62, 64
1, 18469, Note_off_c, 0, 56, 59
1, 18509, Note_off_c, 0, 53, 41
1, 18535, Note_off_c, 0, 48, 42
1, 18538, Note_off_c, 0, 50, 40
1, 18547, Note_off_c, 0, 62, 60
1, 18569, Note_on_c, 0, 68, 54
1, 18639, Note_off_c, 0, 68, 60
1, 18647, Note_on_c, 0, 72, 55
1, 18729, Note_off_c, 0, 72, 59
1, 18742, Note_on_c, 0, 74, 55
1, 18749, Note_on_c, 0, 36, 36
1, 18923, Control_c, 0, 64, 120
1, 18927, Note_on_c, 0, 64, 57
1, 18929, Note_on_c, 0, 48, 45
1, 18938, Control_c, 0, 64, 108
1, 18953, Control_c, 0, 64, 94
1, 18967, Control_c, 0, 64, 77
1, 18982, Control_c, 0, 64, 0
1, 19024, Note_off_c, 0, 74, 36
1, 19055, Note_off_c, 0, 36, 55
1, 19056, Control_c, 0, 64, 69
1, 19072, Control_c, 0, 64, 83
1, 19087, Control_c, 0, 64, 98
1, 19102, Control_c, 0, 64, 107
1, 19117, Control_c, 0, 64, 111
1, 19132, Control_c, 0, 64, 113
1, 19136, Note_off_c, 0, 48, 52
1, 19146, Control_c, 0, 64, 116
1, 19161, Control_c, 0, 64, 120
1, 19176, Control_c, 0, 64, 125
1, 19190, Control_c, 0, 64, 127
1, 19251, Note_off_c, 0, 64, 48
1, 19262, Note_on_c, 0, 55, 44
1, 19295, Note_off_c, 0, 55, 57
1, 19346, Note_on_c, 0, 60, 50
1, 19371, Note_off_c, 0, 60, 59
1, 19465, Note_on_c, 0, 67, 48
1, 19517, Note_off_c, 0, 67, 59
1, 19564, Note_on_c, 0, 72, 40
1, 19608, Note_off_c, 0, 72, 51
1, 19631, Note_on_c, 0, 76, 45
1, 19720, Note_on_c, 0, 48, 50
1, 19752, Note_off_c, 0, 76, 36
1, 19784, Note_on_c, 0, 52, 53
1, 19806, Note_off_c, 0, 48, 45
1, 19872, Note_on_c, 0, 55, 45
1, 19872, Note_off_c, 0, 52, 62
1, 19951, Note_on_c, 0, 60, 49
1, 19977, Note_off_c, 0, 55, 54
1, 19981, Note_off_c, 0, 60, 53
1, 20055, Note_on_c, 0, 64, 73
1, 20139, Note_off_c, 0, 64, 62
1, 20145, Note_on_c, 0, 67, 60
1, 20224, Note_off_c, 0, 67, 60
1, 20241, Note_on_c, 0, 72, 53
1, 20303, Note_off_c, 0, 72, 56
1, 20321, Note_on_c, 0, 76, 62
1, 20455, Note_on_c, 0, 50, 51
1, 20457, Note_on_c, 0, 65, 83
1, 20465, Control_c, 0, 64, 126
1, 20473, Note_on_c, 0, 48, 44
1, 20480, Control_c, 0, 64, 107
1, 20494, Control_c, 0, 64, 88
1, 20508, Note_off_c, 0, 76, 33
1, 20509, Control_c, 0, 64, 65
1, 20524, Control_c, 0, 64, 0
1, 20583, Control_c, 0, 64, 64
1, 20584, Note_on_c, 0, 53, 57
1, 20598, Control_c, 0, 64, 75
1, 20613, Control_c, 0, 64, 90
1, 20628, Control_c, 0, 64, 100
1, 20643, Control_c, 0, 64, 104
1, 20658, Control_c, 0, 64, 106
1, 20673, Control_c, 0, 64, 109
1, 20688, Control_c, 0, 64, 113
1, 20690, Note_on_c, 0, 56, 48
1, 20703, Control_c, 0, 64, 117
1, 20711, Note_off_c, 0, 65, 62
1, 20717, Control_c, 0, 64, 119
1, 20732, Control_c, 0, 64, 120
1, 20755, Control_c, 0, 64, 121
1, 20766, Note_on_c, 0, 60, 53
1, 20770, Control_c, 0, 64, 123
1, 20779, Note_off_c, 0, 48, 41
1, 20785, Control_c, 0, 64, 124
1, 20799, Control_c, 0, 64, 125
1, 20807, Note_off_c, 0, 60, 59
1, 20814, Control_c, 0, 64, 126
1, 20837, Note_off_c, 0, 50, 38
1, 20843, Control_c, 0, 64, 126
1, 20854, Note_off_c, 0, 56, 57
1, 20858, Control_c, 0, 64, 127
1, 20861, Note_off_c, 0, 53, 43
1, 20872, Note_on_c, 0, 62, 82
1, 20965, Note_on_c, 0, 68, 67
1, 20966, Note_off_c, 0, 62, 58
1, 21045, Note_off_c, 0, 68, 62
1, 21048, Note_on_c, 0, 72, 64
1, 21131, Note_on_c, 0, 74, 61
1, 21133, Note_off_c, 0, 72, 55
1, 21272, Note_on_c, 0, 48, 54
1, 21284, Note_on_c, 0, 64, 83
1, 21303, Control_c, 0, 64, 122
1, 21317, Control_c, 0, 64, 103
1, 21332, Control_c, 0, 64, 85
1, 21347, Control_c, 0, 64, 64
1, 21361, Control_c, 0, 64, 0
1, 21372, Note_off_c, 0, 74, 54
1, 21391, Note_on_c, 0, 52, 54
1, 21436, Control_c, 0, 64, 67
1, 21451, Control_c, 0, 64, 79
1, 21452, Note_off_c, 0, 48, 61
1, 21466, Control_c, 0, 64, 95
1, 21481, Control_c, 0, 64, 106
1, 21496, Note_on_c, 0, 55, 56
1, 21504, Control_c, 0, 64, 113
1, 21519, Control_c, 0, 64, 118
1, 21523, Note_off_c, 0, 52, 65
1, 21528, Note_off_c, 0, 64, 62
1, 21534, Control_c, 0, 64, 123
1, 21548, Control_c, 0, 64, 127
1, 21563, Note_off_c, 0, 55, 58
1, 21580, Note_on_c, 0, 60, 59
1, 21661, Note_off_c, 0, 60, 52
1, 21701, Note_on_c, 0, 67, 85
1, 21712, Note_on_c, 0, 52, 61
1, 21810, Note_off_c, 0, 52, 63
1, 21811, Note_on_c, 0, 72, 69
1, 21820, Note_off_c, 0, 67, 59
1, 21895, Note_off_c, 0, 72, 63
1, 21911, Note_on_c, 0, 76, 62
1, 21977, Note_off_c, 0, 76, 63
1, 21989, Note_on_c, 0, 79, 64
1, 22017, Note_off_c, 0, 79, 66
1, 22187, Note_on_c, 0, 57, 80
1, 22197, Note_on_c, 0, 41, 54
1, 22268, Control_c, 0, 64, 111
1, 22283, Control_c, 0, 64, 88
1, 22297, Control_c, 0, 64, 64
1, 22312, Control_c, 0, 64, 0
1, 22342, Control_c, 0, 64, 60
1, 22344, Note_on_c, 0, 53, 60
1, 22345, Note_off_c, 0, 41, 64
1, 22357, Control_c, 0, 64, 73
1, 22372, Control_c, 0, 64, 87
1, 22387, Control_c, 0, 64, 104
1, 22388, Note_off_c, 0, 57, 63
1, 22402, Control_c, 0, 64, 117
1, 22409, Note_off_c, 0, 53, 65
1, 22416, Control_c, 0, 64, 123
1, 22431, Control_c, 0, 64, 126
1, 22446, Control_c, 0, 64, 127
1, 22474, Note_on_c, 0, 57, 67
1, 22500, Note_off_c, 0, 57, 64
1, 22551, Note_on_c, 0, 60, 61
1, 22582, Note_off_c, 0, 60, 65
1, 22608, Note_on_c, 0, 62, 83
1, 22701, Note_on_c, 0, 65, 68
1, 22708, Note_off_c, 0, 62, 59
1, 22783, Note_off_c, 0, 65, 64
1, 22791, Note_on_c, 0, 69, 63
1, 22854, Note_off_c, 0, 69, 62
1, 22874, Note_on_c, 0, 74, 57
1, 23019, Note_on_c, 0, 64, 84
1, 23027, Note_on_c, 0, 38, 56
1, 23029, Control_c, 0, 64, 125
1, 23044, Control_c, 0, 64, 105
1, 23060, Control_c, 0, 64, 86
1, 23075, Control_c, 0, 64, 64
1, 23090, Control_c, 0, 64, 0
1, 23130, Note_off_c, 0, 38, 63
1, 23134, Control_c, 0, 64, 67
1, 23148, Note_off_c, 0, 74, 55
1, 23149, Control_c, 0, 64, 79
1, 23152, Note_on_c, 0, 50, 56
1, 23164, Control_c, 0, 64, 94
1, 23179, Control_c, 0, 64, 109
1, 23193, Control_c, 0, 64, 118
1, 23200, Note_off_c, 0, 50, 63
1, 23208, Control_c, 0, 64, 119
1, 23223, Control_c, 0, 64, 121
1, 23237, Control_c, 0, 64, 125
1, 23252, Control_c, 0, 64, 127
1, 23284, Note_on_c, 0, 57, 62
1, 23305, Note_off_c, 0, 64, 57
1, 23339, Note_off_c, 0, 57, 60
1, 23347, Note_on_c, 0, 60, 65
1, 23390, Note_off_c, 0, 60, 52
1, 23447, Note_on_c, 0, 65, 88
1, 23553, Note_on_c, 0, 69, 63
1, 23569, Note_off_c, 0, 65, 62
1, 23644, Note_off_c, 0, 69, 63
1, 23659, Note_on_c, 0, 74, 57
1, 23720, Note_off_c, 0, 74, 60
1, 23755, Note_on_c, 0, 77, 63
1, 23813, Note_off_c, 0, 77, 56
1, 23933, Note_on_c, 0, 43, 45
1, 23941, Note_on_c, 0, 64, 73
1, 23986, Control_c, 0, 64, 126
1, 24001, Control_c, 0, 64, 107
1, 24016, Control_c, 0, 64, 90
1, 24031, Control_c, 0, 64, 70
1, 24046, Control_c, 0, 64, 0
1, 24090, Control_c, 0, 64, 64
1, 24105, Control_c, 0, 64, 76
1, 24120, Control_c, 0, 64, 89
1, 24133, Note_off_c, 0, 43, 39
1, 24134, Control_c, 0, 64, 102
1, 24139, Note_on_c, 0, 52, 46
1, 24149, Control_c, 0, 64, 108
1, 24164, Control_c, 0, 64, 110
1, 24178, Control_c, 0, 64, 111
1, 24193, Control_c, 0, 64, 113
1, 24208, Control_c, 0, 64, 116
1, 24220, Note_off_c, 0, 52, 63
1, 24223, Control_c, 0, 64, 119
1, 24238, Note_on_c, 0, 55, 45
1, 24238, Control_c, 0, 64, 122
1, 24253, Control_c, 0, 64, 125
1, 24268, Control_c, 0, 64, 127
1, 24278, Note_off_c, 0, 55, 64
1, 24336, Note_on_c, 0, 60, 47
1, 24360, Note_off_c, 0, 60, 60
1, 24385, Note_off_c, 0, 64, 52
1, 24419, Note_on_c, 0, 67, 55
1, 24488, Note_off_c, 0, 67, 54
1, 24519, Note_on_c, 0, 72, 51
1, 24586, Note_off_c, 0, 72, 53
1, 24606, Note_on_c, 0, 76, 59
1, 24638, Note_off_c, 0, 76, 62
1, 24783, Note_on_c, 0, 62, 68
1, 24882, Control_c, 0, 64, 113
1, 24897, Control_c, 0, 64, 96
1, 24912, Control_c, 0, 64, 76
1, 24926, Note_on_c, 0, 50, 50
1, 24926, Control_c, 0, 64, 40
1, 24941, Control_c, 0, 64, 0
1, 24971, Control_c, 0, 64, 28
1, 24986, Control_c, 0, 64, 67
1, 25001, Control_c, 0, 64, 79
1, 25016, Control_c, 0, 64, 90
1, 25031, Control_c, 0, 64, 99
1, 25032, Note_on_c, 0, 55, 51
1, 25046, Control_c, 0, 64, 105
1, 25061, Control_c, 0, 64, 108
1, 25075, Control_c, 0, 64, 111
1, 25084, Note_off_c, 0, 50, 53
1, 25090, Control_c, 0, 64, 115
1, 25105, Control_c, 0, 64, 121
1, 25120, Control_c, 0, 64, 126
1, 25121, Note_on_c, 0, 60, 50
1, 25134, Control_c, 0, 64, 127
1, 25147, Note_off_c, 0, 60, 55
1, 25164, Note_off_c, 0, 55, 57
1, 25196, Note_off_c, 0, 62, 59
1, 25211, Note_on_c, 0, 67, 54
1, 25293, Note_off_c, 0, 67, 59
1, 25310, Note_on_c, 0, 72, 52
1, 25395, Note_off_c, 0, 72, 56
1, 25406, Note_on_c, 0, 74, 49
1, 25469, Control_c, 0, 64, 127
1, 25484, Control_c, 0, 64, 108
1, 25495, Note_on_c, 0, 43, 53
1, 25499, Control_c, 0, 64, 92
1, 25514, Control_c, 0, 64, 73
1, 25529, Control_c, 0, 64, 0
1, 25573, Control_c, 0, 64, 68
1, 25581, Note_off_c, 0, 43, 60
1, 25588, Control_c, 0, 64, 80
1, 25603, Control_c, 0, 64, 92
1, 25603, Note_on_c, 0, 50, 49
1, 25618, Control_c, 0, 64, 99
1, 25632, Control_c, 0, 64, 103
1, 25647, Control_c, 0, 64, 104
1, 25662, Control_c, 0, 64, 106
1, 25677, Control_c, 0, 64, 109
1, 25692, Control_c, 0, 64, 114
1, 25703, Note_off_c, 0, 74, 39
1, 25705, Note_off_c, 0, 50, 60
1, 25706, Control_c, 0, 64, 118
1, 25708, Note_on_c, 0, 55, 52
1, 25721, Control_c, 0, 64, 120
1, 25736, Control_c, 0, 64, 121
1, 25752, Note_off_c, 0, 55, 63
1, 25780, Control_c, 0, 64, 121
1, 25802, Note_on_c, 0, 59, 46
1, 25830, Note_off_c, 0, 59, 56
1, 25882, Note_on_c, 0, 62, 52
1, 25939, Note_off_c, 0, 62, 50
1, 25983, Note_on_c, 0, 67, 52
1, 26025, Control_c, 0, 64, 122
1, 26044, Note_off_c, 0, 67, 57
1, 26076, Note_on_c, 0, 71, 48
1, 26124, Note_off_c, 0, 71, 55
1, 26155, Note_on_c, 0, 74, 46
1, 26175, Note_on_c, 0, 36, 52
1, 26240, Note_off_c, 0, 74, 60
1, 26262, Note_off_c, 0, 36, 62
1, 26296, Note_on_c, 0, 43, 35
1, 26426, Control_c, 0, 64, 121
1, 26440, Note_on_c, 0, 60, 62
1, 26441, Control_c, 0, 64, 120
1, 26455, Control_c, 0, 64, 110
1, 26468, Note_on_c, 0, 52, 41
1, 26470, Control_c, 0, 64, 94
1, 26485, Control_c, 0, 64, 77
1, 26500, Control_c, 0, 64, 37
1, 26515, Control_c, 0, 64, 0
1, 26544, Control_c, 0, 64, 62
1, 26559, Control_c, 0, 64, 74
1, 26572, Note_off_c, 0, 43, 41
1, 26574, Control_c, 0, 64, 86
1, 26588, Control_c, 0, 64, 100
1, 26603, Control_c, 0, 64, 108
1, 26618, Control_c, 0, 64, 112
1, 26630, Note_off_c, 0, 52, 66
1, 26633, Control_c, 0, 64, 115
1, 26648, Control_c, 0, 64, 118
1, 26652, Note_off_c, 0, 60, 61
1, 26662, Control_c, 0, 64, 122
1, 26677, Control_c, 0, 64, 127
1, 26692, Control_c, 0, 64, 127
1, 26749, Note_on_c, 0, 55, 42
1, 26852, Note_on_c, 0, 60, 36
1, 26878, Note_off_c, 0, 55, 48
1, 26891, Note_off_c, 0, 60, 51
1, 26954, Note_on_c, 0, 64, 54
1, 27009, Note_off_c, 0, 64, 53
1, 27049, Note_on_c, 0, 67, 50
1, 27108, Note_off_c, 0, 67, 56
1, 27139, Note_on_c, 0, 72, 54
1, 27185, Note_off_c, 0, 72, 57
1, 27225, Note_on_c, 0, 76, 52
1, 27277, Note_off_c, 0, 76, 61
1, 27418, Note_on_c, 0, 62, 68
1, 27420, Note_on_c, 0, 48, 43
1, 27508, Control_c, 0, 64, 119
1, 27523, Control_c, 0, 64, 104
1, 27537, Control_c, 0, 64, 87
1, 27552, Control_c, 0, 64, 69
1, 27567, Control_c, 0, 64, 0
1, 27593, Note_on_c, 0, 53, 39
1, 27611, Control_c, 0, 64, 62
1, 27626, Control_c, 0, 64, 72
1, 27641, Control_c, 0, 64, 82
1, 27656, Control_c, 0, 64, 93
1, 27671, Control_c, 0, 64, 100
1, 27685, Control_c, 0, 64, 104
1, 27700, Control_c, 0, 64, 107
1, 27709, Note_on_c, 0, 57, 45
1, 27715, Control_c, 0, 64, 110
1, 27725, Note_off_c, 0, 48, 42
1, 27729, Control_c, 0, 64, 115
1, 27744, Control_c, 0, 64, 118
1, 27749, Note_off_c, 0, 53, 50
1, 27755, Note_off_c, 0, 57, 59
1, 27759, Control_c, 0, 64, 121
1, 27774, Control_c, 0, 64, 122
1, 27789, Control_c, 0, 64, 123
1, 27803, Control_c, 0, 64, 125
1, 27818, Control_c, 0, 64, 126
1, 27833, Control_c, 0, 64, 127
1, 27836, Note_on_c, 0, 65, 51
1, 27852, Note_off_c, 0, 62, 56
1, 27919, Note_off_c, 0, 65, 64
1, 27929, Note_on_c, 0, 69, 57
1, 28004, Note_off_c, 0, 69, 63
1, 28026, Note_on_c, 0, 74, 56
1, 28180, Note_on_c, 0, 64, 76
1, 28181, Note_on_c, 0, 48, 51
1, 28271, Control_c, 0, 64, 113
1, 28286, Control_c, 0, 64, 98
1, 28287, Note_off_c, 0, 74, 38
1, 28301, Control_c, 0, 64, 81
1, 28316, Control_c, 0, 64, 60
1, 28323, Note_on_c, 0, 52, 49
1, 28331, Control_c, 0, 64, 0
1, 28375, Control_c, 0, 64, 34
1, 28390, Control_c, 0, 64, 68
1, 28405, Control_c, 0, 64, 79
1, 28420, Control_c, 0, 64, 91
1, 28422, Note_off_c, 0, 48, 53
1, 28430, Note_on_c, 0, 55, 53
1, 28434, Control_c, 0, 64, 100
1, 28449, Control_c, 0, 64, 105
1, 28464, Control_c, 0, 64, 107
1, 28476, Note_off_c, 0, 52, 63
1, 28479, Control_c, 0, 64, 111
1, 28495, Control_c, 0, 64, 114
1, 28509, Control_c, 0, 64, 117
1, 28524, Control_c, 0, 64, 120
1, 28536, Note_on_c, 0, 60, 51
1, 28539, Control_c, 0, 64, 121
1, 28545, Note_off_c, 0, 55, 49
1, 28553, Control_c, 0, 64, 122
1, 28557, Note_off_c, 0, 60, 58
1, 28568, Control_c, 0, 64, 122
1, 28583, Control_c, 0, 64, 123
1, 28598, Control_c, 0, 64, 123
1, 28613, Control_c, 0, 64, 124
1, 28615, Note_off_c, 0, 64, 61
1, 28627, Control_c, 0, 64, 124
1, 28632, Note_on_c, 0, 67, 52
1, 28658, Control_c, 0, 64, 125
1, 28692, Note_off_c, 0, 67, 55
1, 28720, Note_on_c, 0, 72, 59
1, 28805, Note_off_c, 0, 72, 60
1, 28808, Note_on_c, 0, 36, 47
1, 28811, Note_on_c, 0, 76, 62
1, 28954, Note_off_c, 0, 76, 40
1, 29032, Note_on_c, 0, 48, 45
1, 29033, Note_on_c, 0, 62, 78
1, 29095, Control_c, 0, 64, 115
1, 29110, Control_c, 0, 64, 98
1, 29125, Control_c, 0, 64, 75
1, 29139, Control_c, 0, 64, 0
1, 29189, Note_off_c, 0, 36, 52
1, 29198, Control_c, 0, 64, 67
1, 29213, Control_c, 0, 64, 81
1, 29228, Control_c, 0, 64, 101
1, 29243, Control_c, 0, 64, 115
1, 29257, Control_c, 0, 64, 120
1, 29272, Control_c, 0, 64, 121
1, 29279, Note_off_c, 0, 48, 54
1, 29287, Control_c, 0, 64, 123
1, 29301, Control_c, 0, 64, 127
1, 29313, Note_off_c, 0, 62, 59
1, 29316, Control_c, 0, 64, 127
1, 29383, Note_on_c, 0, 53, 50
1, 29454, Note_off_c, 0, 53, 64
1, 29479, Note_on_c, 0, 57, 44
1, 29506, Note_off_c, 0, 57, 56
1, 29562, Note_on_c, 0, 62, 43
1, 29588, Note_off_c, 0, 62, 57
1, 29645, Note_on_c, 0, 65, 57
1, 29680, Note_off_c, 0, 65, 67
1, 29732, Note_on_c, 0, 69, 59
1, 29785, Note_off_c, 0, 69, 56
1, 29827, Note_on_c, 0, 74, 45
1, 29899, Note_on_c, 0, 77, 51
1, 29902, Note_off_c, 0, 74, 53
1, 29946, Note_off_c, 0, 77, 55
1, 29988, Note_on_c, 0, 48, 50
1, 30037, Note_off_c, 0, 48, 62
1, 30076, Note_on_c, 0, 53, 43
1, 30130, Note_off_c, 0, 53, 62
1, 30164, Note_on_c, 0, 57, 38
1, 30194, Note_off_c, 0, 57, 56
1, 30330, Poly_aftertouch_c, 0, 62, 0
1, 30343, Note_on_c, 0, 65, 52
1, 30394, Note_off_c, 0, 65, 57
1, 30432, Note_on_c, 0, 69, 48
1, 30488, Note_off_c, 0, 69, 62
1, 30509, Note_on_c, 0, 74, 50
1, 30572, Note_off_c, 0, 74, 51
1, 30591, Note_on_c, 0, 77, 49
1, 30637, Note_off_c, 0, 77, 52
1, 30681, Note_on_c, 0, 48, 48
1, 30740, Note_off_c, 0, 48, 60
1, 30779, Note_on_c, 0, 53, 43
1, 30832, Note_off_c, 0, 53, 62
1, 30870, Note_on_c, 0, 57, 36
1, 30900, Note_off_c, 0, 57, 51
1, 30948, Note_on_c, 0, 62, 49
1, 30975, Note_off_c, 0, 62, 58
1, 31037, Note_on_c, 0, 65, 52
1, 31092, Note_off_c, 0, 65, 57
1, 31133, Note_on_c, 0, 69, 46
1, 31178, Note_off_c, 0, 69, 62
1, 31225, Note_on_c, 0, 74, 47
1, 31267, Note_off_c, 0, 74, 58
1, 31303, Note_on_c, 0, 77, 56
1, 31340, Note_off_c, 0, 77, 59
1, 31515, Note_on_c, 0, 62, 75
1, 31527, Note_on_c, 0, 48, 43
1, 31563, Control_c, 0, 64, 115
1, 31577, Control_c, 0, 64, 98
1, 31592, Control_c, 0, 64, 80
1, 31607, Control_c, 0, 64, 40
1, 31622, Control_c, 0, 64, 0
1, 31666, Control_c, 0, 64, 63
1, 31681, Control_c, 0, 64, 75
1, 31687, Note_on_c, 0, 53, 44
1, 31696, Control_c, 0, 64, 87
1, 31711, Control_c, 0, 64, 102
1, 31726, Control_c, 0, 64, 108
1, 31741, Control_c, 0, 64, 112
1, 31747, Note_off_c, 0, 62, 60
1, 31756, Control_c, 0, 64, 115
1, 31770, Control_c, 0, 64, 120
1, 31780, Note_on_c, 0, 57, 52
1, 31785, Control_c, 0, 64, 125
1, 31797, Note_off_c, 0, 48, 41
1, 31800, Control_c, 0, 64, 127
1, 31819, Note_off_c, 0, 53, 54
1, 31824, Note_off_c, 0, 57, 58
1, 31906, Note_on_c, 0, 65, 55
1, 31950, Note_off_c, 0, 65, 62
1, 31998, Note_on_c, 0, 69, 53
1, 32046, Note_off_c, 0, 69, 60
1, 32076, Note_on_c, 0, 74, 53
1, 32120, Note_off_c, 0, 74, 55
1, 32161, Note_on_c, 0, 77, 60
1, 32224, Note_off_c, 0, 77, 60
1, 32320, Note_on_c, 0, 64, 83
1, 32334, Note_on_c, 0, 48, 49
1, 32372, Control_c, 0, 64, 122
1, 32387, Control_c, 0, 64, 103
1, 32401, Control_c, 0, 64, 86
1, 32416, Control_c, 0, 64, 66
1, 32431, Control_c, 0, 64, 0
1, 32485, Note_on_c, 0, 55, 47
1, 32505, Control_c, 0, 64, 67
1, 32519, Control_c, 0, 64, 79
1, 32534, Control_c, 0, 64, 93
1, 32549, Control_c, 0, 64, 104
1, 32564, Control_c, 0, 64, 111
1, 32579, Control_c, 0, 64, 114
1, 32593, Control_c, 0, 64, 118
1, 32597, Note_off_c, 0, 48, 39
1, 32602, Note_on_c, 0, 60, 58
1, 32608, Control_c, 0, 64, 123
1, 32623, Control_c, 0, 64, 127
1, 32638, Note_off_c, 0, 60, 62
1, 32656, Note_off_c, 0, 55, 56
1, 32727, Note_off_c, 0, 64, 61
1, 32732, Note_on_c, 0, 67, 61
1, 32808, Note_off_c, 0, 67, 60
1, 32818, Note_on_c, 0, 72, 61
1, 32889, Note_off_c, 0, 72, 61
1, 32909, Note_on_c, 0, 76, 61
1, 33043, Note_on_c, 0, 65, 83
1, 33052, Note_on_c, 0, 48, 52
1, 33105, Control_c, 0, 64, 125
1, 33108, Note_off_c, 0, 76, 53
1, 33120, Control_c, 0, 64, 107
1, 33135, Control_c, 0, 64, 86
1, 33149, Control_c, 0, 64, 66
1, 33164, Control_c, 0, 64, 0
1, 33197, Note_on_c, 0, 53, 52
1, 33223, Control_c, 0, 64, 62
1, 33238, Control_c, 0, 64, 76
1, 33243, Note_off_c, 0, 48, 59
1, 33253, Control_c, 0, 64, 87
1, 33267, Control_c, 0, 64, 97
1, 33282, Control_c, 0, 64, 102
1, 33294, Note_on_c, 0, 57, 55
1, 33297, Control_c, 0, 64, 105
1, 33300, Note_off_c, 0, 53, 64
1, 33312, Control_c, 0, 64, 108
1, 33327, Control_c, 0, 64, 111
1, 33339, Note_off_c, 0, 57, 59
1, 33342, Control_c, 0, 64, 114
1, 33356, Control_c, 0, 64, 117
1, 33371, Control_c, 0, 64, 119
1, 33386, Control_c, 0, 64, 120
1, 33401, Control_c, 0, 64, 121
1, 33405, Note_on_c, 0, 62, 53
1, 33416, Control_c, 0, 64, 122
1, 33431, Control_c, 0, 64, 123
1, 33442, Note_off_c, 0, 62, 62
1, 33446, Control_c, 0, 64, 124
1, 33469, Control_c, 0, 64, 125
1, 33486, Note_off_c, 0, 65, 61
1, 33499, Note_on_c, 0, 69, 54
1, 33528, Control_c, 0, 64, 125
1, 33555, Note_off_c, 0, 69, 56
1, 33587, Note_on_c, 0, 74, 55
1, 33629, Note_off_c, 0, 74, 56
1, 33674, Note_on_c, 0, 77, 55
1, 33715, Note_off_c, 0, 77, 54
1, 33869, Note_on_c, 0, 64, 71
1, 33897, Note_on_c, 0, 48, 42
1, 33943, Control_c, 0, 64, 121
1, 33958, Control_c, 0, 64, 111
1, 33972, Control_c, 0, 64, 97
1, 33987, Control_c, 0, 64, 80
1, 34002, Control_c, 0, 64, 0
1, 34059, Note_on_c, 0, 52, 46
1, 34076, Control_c, 0, 64, 60
1, 34090, Control_c, 0, 64, 75
1, 34105, Control_c, 0, 64, 86
1, 34120, Control_c, 0, 64, 97
1, 34135, Control_c, 0, 64, 102
1, 34150, Control_c, 0, 64, 106
1, 34164, Control_c, 0, 64, 109
1, 34179, Note_on_c, 0, 55, 49
1, 34179, Control_c, 0, 64, 112
1, 34194, Control_c, 0, 64, 115
1, 34203, Note_off_c, 0, 48, 34
1, 34209, Control_c, 0, 64, 118
1, 34212, Note_off_c, 0, 52, 61
1, 34232, Control_c, 0, 64, 121
1, 34248, Control_c, 0, 64, 123
1, 34263, Control_c, 0, 64, 125
1, 34272, Note_off_c, 0, 55, 41
1, 34277, Control_c, 0, 64, 126
1, 34283, Note_on_c, 0, 60, 48
1, 34292, Control_c, 0, 64, 126
1, 34308, Note_off_c, 0, 60, 60
1, 34375, Note_off_c, 0, 64, 60
1, 34398, Note_on_c, 0, 67, 49
1, 34459, Note_off_c, 0, 67, 51
1, 34500, Note_on_c, 0, 72, 44
1, 34553, Note_off_c, 0, 72, 57
1, 34589, Note_on_c, 0, 76, 49
1, 34771, Note_on_c, 0, 47, 45
1, 34781, Control_c, 0, 64, 124
1, 34795, Control_c, 0, 64, 114
1, 34810, Control_c, 0, 64, 100
1, 34825, Control_c, 0, 64, 83
1, 34840, Control_c, 0, 64, 63
1, 34855, Control_c, 0, 64, 0
1, 34907, Note_on_c, 0, 52, 43
1, 34913, Control_c, 0, 64, 27
1, 34928, Control_c, 0, 64, 67
1, 34943, Control_c, 0, 64, 75
1, 34956, Note_off_c, 0, 76, 37
1, 34958, Control_c, 0, 64, 86
1, 34981, Control_c, 0, 64, 93
1, 34995, Control_c, 0, 64, 97
1, 35010, Control_c, 0, 64, 100
1, 35025, Control_c, 0, 64, 103
1, 35036, Note_on_c, 0, 55, 50
1, 35041, Control_c, 0, 64, 106
1, 35056, Control_c, 0, 64, 108
1, 35070, Control_c, 0, 64, 109
1, 35085, Control_c, 0, 64, 110
1, 35100, Control_c, 0, 64, 111
1, 35115, Control_c, 0, 64, 112
1, 35122, Note_on_c, 0, 59, 43
1, 35130, Control_c, 0, 64, 112
1, 35144, Control_c, 0, 64, 113
1, 35174, Control_c, 0, 64, 113
1, 35204, Control_c, 0, 64, 114
1, 35205, Note_on_c, 0, 64, 58
1, 35247, Control_c, 0, 64, 114
1, 35258, Note_off_c, 0, 59, 34
1, 35272, Note_off_c, 0, 47, 39
1, 35273, Note_off_c, 0, 64, 61
1, 35280, Note_off_c, 0, 52, 30
1, 35282, Note_off_c, 0, 55, 43
1, 35291, Note_on_c, 0, 67, 53
1, 35354, Note_off_c, 0, 67, 60
1, 35384, Note_on_c, 0, 71, 50
1, 35435, Note_off_c, 0, 71, 58
1, 35470, Note_on_c, 0, 76, 56
1, 35629, Note_on_c, 0, 66, 67
1, 35634, Note_on_c, 0, 47, 46
1, 35691, Control_c, 0, 64, 112
1, 35706, Control_c, 0, 64, 103
1, 35729, Control_c, 0, 64, 86
1, 35732, Note_off_c, 0, 76, 33
1, 35743, Control_c, 0, 64, 68
1, 35758, Control_c, 0, 64, 0
1, 35789, Note_on_c, 0, 54, 46
1, 35817, Control_c, 0, 64, 58
1, 35832, Control_c, 0, 64, 72
1, 35848, Control_c, 0, 64, 83
1, 35863, Control_c, 0, 64, 94
1, 35878, Control_c, 0, 64, 100
1, 35893, Control_c, 0, 64, 103
1, 35902, Note_on_c, 0, 57, 52
1, 35908, Control_c, 0, 64, 106
1, 35922, Control_c, 0, 64, 109
1, 35927, Note_off_c, 0, 66, 55
1, 35937, Control_c, 0, 64, 112
1, 35945, Note_off_c, 0, 47, 41
1, 35950, Note_off_c, 0, 57, 57
1, 35952, Control_c, 0, 64, 114
1, 35966, Control_c, 0, 64, 116
1, 35981, Control_c, 0, 64, 118
1, 35991, Note_off_c, 0, 54, 55
1, 35996, Control_c, 0, 64, 119
1, 36011, Control_c, 0, 64, 120
1, 36026, Control_c, 0, 64, 121
1, 36033, Note_on_c, 0, 63, 70
1, 36040, Control_c, 0, 64, 122
1, 36055, Control_c, 0, 64, 123
1, 36070, Control_c, 0, 64, 124
1, 36085, Control_c, 0, 64, 125
1, 36100, Control_c, 0, 64, 126
1, 36114, Control_c, 0, 64, 127
1, 36119, Note_on_c, 0, 66, 62
1, 36129, Control_c, 0, 64, 127
1, 36131, Note_off_c, 0, 63, 57
1, 36196, Note_off_c, 0, 66, 62
1, 36221, Note_on_c, 0, 71, 45
1, 36300, Note_on_c, 0, 75, 61
1, 36307, Note_off_c, 0, 71, 54
1, 36484, Note_on_c, 0, 64, 73
1, 36491, Note_on_c, 0, 48, 48
1, 36528, Note_off_c, 0, 75, 57
1, 36552, Control_c, 0, 64, 117
1, 36566, Control_c, 0, 64, 101
1, 36581, Control_c, 0, 64, 84
1, 36596, Control_c, 0, 64, 59
1, 36611, Control_c, 0, 64, 0
1, 36615, Note_on_c, 0, 52, 48
1, 36671, Control_c, 0, 64, 55
1, 36686, Control_c, 0, 64, 73
1, 36701, Control_c, 0, 64, 85
1, 36715, Control_c, 0, 64, 97
1, 36730, Control_c, 0, 64, 104
1, 36737, Note_on_c, 0, 55, 50
1, 36745, Control_c, 0, 64, 109
1, 36760, Control_c, 0, 64, 114
1, 36775, Control_c, 0, 64, 119
1, 36781, Note_off_c, 0, 48, 39
1, 36789, Control_c, 0, 64, 125
1, 36794, Note_off_c, 0, 52, 58
1, 36804, Control_c, 0, 64, 127
1, 36830, Note_on_c, 0, 60, 51
1, 36854, Note_off_c, 0, 60, 58
1, 36892, Note_off_c, 0, 64, 61
1, 36922, Note_on_c, 0, 67, 54
1, 36922, Note_off_c, 0, 55, 35
1, 36976, Note_off_c, 0, 67, 56
1, 37011, Note_on_c, 0, 72, 53
1, 37072, Note_off_c, 0, 72, 54
1, 37094, Note_on_c, 0, 76, 58
1, 37196, Note_on_c, 0, 47, 61
1, 37226, Control_c, 0, 64, 117
1, 37241, Control_c, 0, 64, 97
1, 37256, Control_c, 0, 64, 74
1, 37270, Control_c, 0, 64, 0
1, 37303, Note_on_c, 0, 52, 54
1, 37330, Control_c, 0, 64, 52
1, 37345, Control_c, 0, 64, 70
1, 37357, Note_off_c, 0, 76, 32
1, 37360, Control_c, 0, 64, 82
1, 37375, Control_c, 0, 64, 93
1, 37389, Control_c, 0, 64, 99
1, 37396, Note_on_c, 0, 55, 58
1, 37404, Control_c, 0, 64, 103
1, 37419, Control_c, 0, 64, 107
1, 37434, Control_c, 0, 64, 111
1, 37449, Control_c, 0, 64, 115
1, 37464, Control_c, 0, 64, 119
1, 37469, Note_on_c, 0, 59, 54
1, 37479, Control_c, 0, 64, 122
1, 37494, Control_c, 0, 64, 126
1, 37509, Control_c, 0, 64, 127
1, 37542, Note_on_c, 0, 64, 77
1, 37568, Note_off_c, 0, 59, 58
1, 37572, Note_off_c, 0, 47, 40
1, 37586, Note_off_c, 0, 55, 63
1, 37596, Note_off_c, 0, 52, 48
1, 37637, Note_on_c, 0, 67, 60
1, 37640, Note_off_c, 0, 64, 59
1, 37720, Note_off_c, 0, 67, 61
1, 37738, Note_on_c, 0, 71, 54
1, 37792, Note_off_c, 0, 71, 58
1, 37806, Note_on_c, 0, 76, 64
1, 37992, Note_on_c, 0, 47, 55
1, 37995, Note_on_c, 0, 67, 82
1, 38049, Control_c, 0, 64, 109
1, 38064, Control_c, 0, 64, 92
1, 38079, Control_c, 0, 64, 74
1, 38093, Control_c, 0, 64, 0
1, 38108, Note_off_c, 0, 76, 56
1, 38126, Note_on_c, 0, 51, 58
1, 38165, Note_off_c, 0, 47, 53
1, 38168, Control_c, 0, 64, 64
1, 38182, Control_c, 0, 64, 75
1, 38197, Control_c, 0, 64, 86
1, 38212, Control_c, 0, 64, 97
1, 38227, Control_c, 0, 64, 102
1, 38243, Control_c, 0, 64, 105
1, 38246, Note_on_c, 0, 57, 60
1, 38258, Control_c, 0, 64, 109
1, 38273, Control_c, 0, 64, 112
1, 38279, Note_off_c, 0, 51, 59
1, 38288, Control_c, 0, 64, 116
1, 38292, Note_off_c, 0, 67, 54
1, 38303, Control_c, 0, 64, 120
1, 38317, Control_c, 0, 64, 125
1, 38332, Control_c, 0, 64, 127
1, 38335, Note_on_c, 0, 59, 54
1, 38335, Note_off_c, 0, 57, 58
1, 38375, Note_off_c, 0, 59, 59
1, 38409, Note_on_c, 0, 63, 79
1, 38488, Note_on_c, 0, 66, 67
1, 38503, Note_off_c, 0, 63, 59
1, 38567, Note_off_c, 0, 66, 62
1, 38582, Note_on_c, 0, 71, 52
1, 38671, Note_on_c, 0, 75, 64
1, 38688, Note_off_c, 0, 71, 52
1, 38838, Note_on_c, 0, 46, 56
1, 38838, Note_on_c, 0, 64, 75
1, 38858, Control_c, 0, 64, 119
1, 38873, Control_c, 0, 64, 105
1, 38887, Control_c, 0, 64, 86
1, 38902, Control_c, 0, 64, 67
1, 38917, Note_off_c, 0, 75, 49
1, 38917, Control_c, 0, 64, 0
1, 38976, Control_c, 0, 64, 57
1, 38991, Control_c, 0, 64, 73
1, 38996, Note_on_c, 0, 52, 53
1, 39006, Control_c, 0, 64, 85
1, 39021, Control_c, 0, 64, 98
1, 39037, Control_c, 0, 64, 106
1, 39052, Control_c, 0, 64, 109
1, 39055, Note_off_c, 0, 46, 56
1, 39066, Control_c, 0, 64, 111
1, 39081, Control_c, 0, 64, 116
1, 39096, Control_c, 0, 64, 120
1, 39108, Note_on_c, 0, 55, 52
1, 39110, Control_c, 0, 64, 125
1, 39125, Control_c, 0, 64, 127
1, 39135, Note_off_c, 0, 52, 61
1, 39187, Note_on_c, 0, 60, 57
1, 39187, Note_off_c, 0, 55, 59
1, 39211, Note_off_c, 0, 60, 62
1, 39224, Note_off_c, 0, 64, 53
1, 39265, Note_on_c, 0, 67, 52
1, 39331, Note_off_c, 0, 67, 56
1, 39346, Note_on_c, 0, 72, 57
1, 39420, Note_off_c, 0, 72, 55
1, 39426, Note_on_c, 0, 76, 55
1, 39548, Note_on_c, 0, 47, 58
1, 39592, Control_c, 0, 64, 113
1, 39607, Control_c, 0, 64, 97
1, 39622, Control_c, 0, 64, 79
1, 39633, Note_on_c, 0, 52, 56
1, 39635, Note_off_c, 0, 76, 33
1, 39637, Control_c, 0, 64, 49
1, 39652, Control_c, 0, 64, 0
1, 39696, Control_c, 0, 64, 60
1, 39710, Control_c, 0, 64, 70
1, 39722, Note_on_c, 0, 55, 48
1, 39724, Control_c, 0, 64, 79
1, 39739, Control_c, 0, 64, 90
1, 39754, Control_c, 0, 64, 96
1, 39769, Control_c, 0, 64, 99
1, 39784, Control_c, 0, 64, 102
1, 39798, Note_on_c, 0, 59, 56
1, 39798, Control_c, 0, 64, 105
1, 39813, Control_c, 0, 64, 109
1, 39829, Control_c, 0, 64, 112
1, 39844, Control_c, 0, 64, 115
1, 39859, Control_c, 0, 64, 117
1, 39873, Note_off_c, 0, 47, 36
1, 39874, Control_c, 0, 64, 119
1, 39880, Note_on_c, 0, 64, 78
1, 39888, Control_c, 0, 64, 121
1, 39900, Note_off_c, 0, 59, 54
1, 39903, Control_c, 0, 64, 123
1, 39918, Control_c, 0, 64, 125
1, 39920, Note_off_c, 0, 55, 61
1, 39926, Note_off_c, 0, 52, 42
1, 39932, Control_c, 0, 64, 127
1, 39968, Note_on_c, 0, 67, 63
1, 39971, Note_off_c, 0, 64, 62
1, 40046, Note_off_c, 0, 67, 62
1, 40062, Note_on_c, 0, 71, 54
1, 40115, Note_off_c, 0, 71, 59
1, 40129, Note_on_c, 0, 76, 63
1, 40290, Note_on_c, 0, 71, 77
1, 40302, Note_on_c, 0, 47, 59
1, 40311, Control_c, 0, 64, 119
1, 40326, Control_c, 0, 64, 99
1, 40340, Control_c, 0, 64, 81
1, 40355, Control_c, 0, 64, 60
1, 40360, Note_off_c, 0, 76, 58
1, 40370, Control_c, 0, 64, 0
1, 40414, Control_c, 0, 64, 51
1, 40429, Control_c, 0, 64, 71
1, 40430, Note_on_c, 0, 54, 56
1, 40444, Control_c, 0, 64, 83
1, 40458, Control_c, 0, 64, 97
1, 40473, Control_c, 0, 64, 108
1, 40475, Note_off_c, 0, 47, 37
1, 40488, Control_c, 0, 64, 114
1, 40496, Note_off_c, 0, 71, 58
1, 40503, Control_c, 0, 64, 119
1, 40518, Control_c, 0, 64, 125
1, 40531, Note_on_c, 0, 57, 52
1, 40532, Control_c, 0, 64, 127
1, 40557, Note_off_c, 0, 54, 61
1, 40600, Note_on_c, 0, 59, 60
1, 40626, Note_off_c, 0, 57, 60
1, 40634, Note_off_c, 0, 59, 60
1, 40681, Note_on_c, 0, 63, 77
1, 40753, Note_on_c, 0, 66, 69
1, 40771, Note_off_c, 0, 63, 58
1, 40846, Note_off_c, 0, 66, 63
1, 40848, Note_on_c, 0, 71, 56
1, 40926, Note_on_c, 0, 75, 63
1, 40958, Note_off_c, 0, 71, 52
1, 41060, Note_on_c, 0, 47, 59
1, 41069, Note_on_c, 0, 64, 82
1, 41089, Control_c, 0, 64, 104
1, 41104, Control_c, 0, 64, 84
1, 41119, Control_c, 0, 64, 62
1, 41134, Control_c, 0, 64, 0
1, 41146, Note_off_c, 0, 75, 52
1, 41171, Note_on_c, 0, 52, 58
1, 41178, Control_c, 0, 64, 68
1, 41193, Control_c, 0, 64, 79
1, 41208, Control_c, 0, 64, 94
1, 41223, Control_c, 0, 64, 108
1, 41237, Control_c, 0, 64, 120
1, 41239, Note_off_c, 0, 64, 59
1, 41252, Control_c, 0, 64, 127
1, 41256, Note_on_c, 0, 55, 64
1, 41256, Note_off_c, 0, 47, 40
1, 41290, Note_off_c, 0, 52, 65
1, 41333, Note_on_c, 0, 59, 63
1, 41357, Note_off_c, 0, 55, 49
1, 41366, Note_off_c, 0, 59, 62
1, 41421, Note_on_c, 0, 67, 88
1, 41515, Note_on_c, 0, 71, 67
1, 41519, Note_off_c, 0, 67, 61
1, 41599, Note_off_c, 0, 71, 57
1, 41605, Note_on_c, 0, 76, 60
1, 41672, Note_off_c, 0, 76, 61
1, 41676, Note_on_c, 0, 79, 63
1, 41813, Note_on_c, 0, 47, 63
1, 41819, Note_on_c, 0, 69, 88
1, 41823, Control_c, 0, 64, 108
1, 41838, Control_c, 0, 64, 83
1, 41852, Control_c, 0, 64, 33
1, 41867, Control_c, 0, 64, 0
1, 41897, Control_c, 0, 64, 61
1, 41901, Note_off_c, 0, 79, 59
1, 41912, Control_c, 0, 64, 73
1, 41917, Note_off_c, 0, 47, 62
1, 41927, Control_c, 0, 64, 84
1, 41935, Note_on_c, 0, 55, 62
1, 41941, Control_c, 0, 64, 102
1, 41956, Control_c, 0, 64, 115
1, 41972, Control_c, 0, 64, 127
1, 42018, Note_off_c, 0, 55, 62
1, 42019, Note_on_c, 0, 59, 60
1, 42053, Note_off_c, 0, 59, 61
1, 42053, Note_off_c, 0, 69, 61
1, 42099, Note_on_c, 0, 64, 61
1, 42132, Note_off_c, 0, 64, 64
1, 42183, Note_on_c, 0, 71, 83
1, 42273, Note_on_c, 0, 76, 62
1, 42289, Note_off_c, 0, 71, 56
1, 42356, Note_on_c, 0, 79, 59
1, 42359, Note_off_c, 0, 76, 54
1, 42421, Note_off_c, 0, 79, 59
1, 42426, Note_on_c, 0, 83, 65
1, 42592, Note_on_c, 0, 72, 83
1, 42610, Note_on_c, 0, 47, 52
1, 42617, Control_c, 0, 64, 114
1, 42632, Control_c, 0, 64, 90
1, 42647, Control_c, 0, 64, 69
1, 42662, Control_c, 0, 64, 0
1, 42706, Control_c, 0, 64, 58
1, 42716, Note_off_c, 0, 83, 38
1, 42721, Control_c, 0, 64, 71
1, 42735, Control_c, 0, 64, 83
1, 42750, Control_c, 0, 64, 99
1, 42753, Note_on_c, 0, 54, 57
1, 42765, Control_c, 0, 64, 115
1, 42780, Control_c, 0, 64, 127
1, 42787, Note_off_c, 0, 72, 64
1, 42871, Note_on_c, 0, 57, 53
1, 42931, Note_off_c, 0, 47, 33
1, 42955, Note_off_c, 0, 57, 57
1, 43001, Note_off_c, 0, 54, 56
1, 43038, Note_on_c, 0, 63, 61
1, 43143, Note_on_c, 0, 66, 57
1, 43143, Note_off_c, 0, 63, 58
1, 43232, Note_off_c, 0, 66, 62
1, 43254, Note_on_c, 0, 71, 41
1, 43348, Note_on_c, 0, 75, 52
1, 43354, Note_on_c, 0, 40, 58
1, 43357, Note_off_c, 0, 71, 54
1, 43438, Note_off_c, 0, 40, 62
1, 43459, Note_on_c, 0, 47, 55
1, 43537, Note_off_c, 0, 75, 48
1, 43645, Note_on_c, 0, 64, 61
1, 43652, Note_on_c, 0, 55, 36
1, 43676, Control_c, 0, 64, 101
1, 43691, Control_c, 0, 64, 80
1, 43706, Control_c, 0, 64, 34
1, 43721, Control_c, 0, 64, 0
1, 43780, Control_c, 0, 64, 67
1, 43795, Control_c, 0, 64, 80
1, 43801, Note_off_c, 0, 47, 37
1, 43810, Control_c, 0, 64, 96
1, 43825, Control_c, 0, 64, 111
1, 43840, Control_c, 0, 64, 120
1, 43855, Control_c, 0, 64, 127
1, 43862, Note_off_c, 0, 55, 53
1, 43868, Note_off_c, 0, 64, 64
1, 43870, Control_c, 0, 64, 127
1, 43971, Note_on_c, 0, 59, 46
1, 44065, Note_on_c, 0, 64, 46
1, 44091, Note_off_c, 0, 59, 38
1, 44097, Note_off_c, 0, 64, 59
1, 44200, Note_on_c, 0, 67, 48
1, 44244, Note_off_c, 0, 67, 49
1, 44298, Note_on_c, 0, 71, 40
1, 44340, Note_off_c, 0, 71, 46
1, 44395, Note_on_c, 0, 76, 44
1, 44433, Note_off_c, 0, 76, 54
1, 44484, Note_on_c, 0, 55, 43
1, 44569, Note_off_c, 0, 55, 55
1, 44593, Note_on_c, 0, 59, 39
1, 44702, Note_on_c, 0, 64, 42
1, 44710, Note_off_c, 0, 59, 36
1, 44732, Note_off_c, 0, 64, 54
1, 44818, Note_on_c, 0, 67, 39
1, 44867, Note_off_c, 0, 67, 44
1, 44910, Note_on_c, 0, 71, 40
1, 44954, Note_off_c, 0, 71, 45
1, 45004, Note_on_c, 0, 76, 43
1, 45046, Note_off_c, 0, 76, 49
1, 45086, Note_on_c, 0, 55, 48
1, 45176, Note_off_c, 0, 55, 60
1, 45197, Note_on_c, 0, 59, 44
1, 45253, Note_off_c, 0, 59, 50
1, 45292, Note_on_c, 0, 64, 40
1, 45321, Note_off_c, 0, 64, 57
1, 45398, Note_on_c, 0, 67, 45
1, 45465, Note_off_c, 0, 67, 52
1, 45501, Note_on_c, 0, 71, 46
1, 45551, Note_off_c, 0, 71, 48
1, 45594, Note_on_c, 0, 76, 47
1, 45617, Note_off_c, 0, 76, 62
1, 45933, Note_on_c, 0, 77, 63
1, 45946, Note_on_c, 0, 74, 49
1, 45968, Control_c, 0, 64, 127
1, 45983, Control_c, 0, 64, 109
1, 45998, Control_c, 0, 64, 94
1, 46013, Control_c, 0, 64, 77
1, 46027, Control_c, 0, 64, 43
1, 46042, Control_c, 0, 64, 0
1, 46108, Note_on_c, 0, 48, 40
1, 46116, Control_c, 0, 64, 64
1, 46131, Control_c, 0, 64, 75
1, 46145, Control_c, 0, 64, 87
1, 46160, Control_c, 0, 64, 100
1, 46175, Control_c, 0, 64, 107
1, 46190, Control_c, 0, 64, 113
1, 46213, Control_c, 0, 64, 119
1, 46228, Control_c, 0, 64, 124
1, 46243, Control_c, 0, 64, 127
1, 46257, Note_off_c, 0, 48, 48
1, 46263, Note_on_c, 0, 57, 47
1, 46340, Note_off_c, 0, 57, 60
1, 46377, Note_on_c, 0, 62, 48
1, 46409, Note_off_c, 0, 62, 61
1, 46496, Note_on_c, 0, 65, 45
1, 46542, Note_off_c, 0, 65, 62
1, 46567, Note_on_c, 0, 69, 53
1, 46594, Note_off_c, 0, 69, 66
1, 46706, Note_on_c, 0, 79, 74
1, 46711, Note_on_c, 0, 76, 63
1, 46712, Note_off_c, 0, 74, 47
1, 46728, Note_off_c, 0, 77, 53
1, 46847, Note_on_c, 0, 57, 49
1, 46887, Note_off_c, 0, 76, 44
1, 46934, Note_off_c, 0, 57, 54
1, 46951, Note_on_c, 0, 62, 52
1, 47039, Note_off_c, 0, 62, 57
1, 47054, Note_on_c, 0, 65, 46
1, 47078, Note_off_c, 0, 65, 61
1, 47158, Note_on_c, 0, 69, 52
1, 47214, Note_off_c, 0, 69, 56
1, 47269, Note_on_c, 0, 74, 35
1, 47304, Note_off_c, 0, 74, 51
1, 47355, Note_on_c, 0, 81, 75
1, 47376, Note_on_c, 0, 77, 61
1, 47419, Note_off_c, 0, 79, 35
1, 47495, Note_on_c, 0, 57, 52
1, 47582, Note_off_c, 0, 57, 57
1, 47599, Note_on_c, 0, 62, 50
1, 47682, Note_off_c, 0, 62, 59
1, 47683, Note_on_c, 0, 65, 59
1, 47718, Note_off_c, 0, 65, 67
1, 47745, Note_off_c, 0, 77, 56
1, 47798, Note_on_c, 0, 69, 61
1, 47883, Note_off_c, 0, 69, 59
1, 47895, Note_off_c, 0, 81, 27
1, 47909, Note_on_c, 0, 74, 51
1, 48148, Note_on_c, 0, 81, 66
1, 48164, Note_on_c, 0, 47, 43
1, 48177, Note_on_c, 0, 77, 55
1, 48199, Control_c, 0, 64, 115
1, 48200, Note_off_c, 0, 74, 38
1, 48214, Control_c, 0, 64, 95
1, 48228, Control_c, 0, 64, 76
1, 48243, Control_c, 0, 64, 0
1, 48288, Control_c, 0, 64, 63
1, 48303, Control_c, 0, 64, 76
1, 48318, Control_c, 0, 64, 90
1, 48332, Note_on_c, 0, 53, 51
1, 48332, Control_c, 0, 64, 105
1, 48338, Note_off_c, 0, 47, 46
1, 48347, Control_c, 0, 64, 116
1, 48362, Control_c, 0, 64, 120
1, 48377, Control_c, 0, 64, 123
1, 48392, Control_c, 0, 64, 127
1, 48458, Note_off_c, 0, 53, 61
1, 48473, Note_on_c, 0, 57, 49
1, 48523, Note_off_c, 0, 57, 58
1, 48580, Note_on_c, 0, 62, 49
1, 48615, Note_off_c, 0, 62, 58
1, 48702, Note_off_c, 0, 81, 56
1, 48719, Note_on_c, 0, 74, 58
1, 48732, Note_off_c, 0, 77, 58
1, 48732, Note_on_c, 0, 65, 17
1, 48776, Note_off_c, 0, 65, 51
1, 48782, Note_off_c, 0, 74, 63
1, 48926, Note_on_c, 0, 74, 49
1, 48943, Note_on_c, 0, 71, 47
1, 49053, Note_on_c, 0, 65, 55
1, 49093, Note_off_c, 0, 65, 62
1, 49136, Note_on_c, 0, 62, 51
1, 49155, Control_c, 0, 64, 112
1, 49170, Control_c, 0, 64, 97
1, 49185, Control_c, 0, 64, 80
1, 49207, Control_c, 0, 64, 62
1, 49212, Note_off_c, 0, 62, 54
1, 49222, Control_c, 0, 64, 0
1, 49251, Note_on_c, 0, 43, 43
1, 49265, Note_on_c, 0, 65, 51
1, 49281, Control_c, 0, 64, 50
1, 49295, Control_c, 0, 64, 68
1, 49305, Note_off_c, 0, 65, 63
1, 49310, Control_c, 0, 64, 75
1, 49325, Control_c, 0, 64, 83
1, 49340, Control_c, 0, 64, 88
1, 49345, Note_on_c, 0, 62, 59
1, 49355, Control_c, 0, 64, 91
1, 49370, Control_c, 0, 64, 95
1, 49373, Note_off_c, 0, 43, 36
1, 49385, Control_c, 0, 64, 98
1, 49388, Note_off_c, 0, 62, 55
1, 49400, Control_c, 0, 64, 102
1, 49415, Control_c, 0, 64, 105
1, 49430, Control_c, 0, 64, 108
1, 49445, Control_c, 0, 64, 110
1, 49460, Control_c, 0, 64, 112
1, 49462, Note_on_c, 0, 65, 52
1, 49474, Control_c, 0, 64, 114
1, 49489, Control_c, 0, 64, 115
1, 49501, Note_off_c, 0, 65, 63
1, 49504, Control_c, 0, 64, 115
1, 49519, Control_c, 0, 64, 116
1, 49534, Control_c, 0, 64, 117
1, 49564, Control_c, 0, 64, 117
1, 49565, Note_on_c, 0, 55, 48
1, 49578, Control_c, 0, 64, 118
1, 49580, Note_on_c, 0, 62, 47
1, 49600, Note_off_c, 0, 55, 50
1, 49608, Control_c, 0, 64, 118
1, 49626, Note_off_c, 0, 62, 48
1, 49679, Note_on_c, 0, 65, 55
1, 49711, Note_off_c, 0, 65, 67
1, 49770, Note_on_c, 0, 62, 50
1, 49801, Note_off_c, 0, 62, 50
1, 49864, Note_on_c, 0, 43, 40
1, 49899, Note_on_c, 0, 65, 51
1, 49900, Note_off_c, 0, 43, 51
1, 49936, Note_off_c, 0, 65, 64
1, 50002, Note_on_c, 0, 62, 39
1, 50040, Note_off_c, 0, 62, 47
1, 50077, Note_on_c, 0, 65, 54
1, 50095, Note_off_c, 0, 65, 66
1, 50103, Note_off_c, 0, 71, 38
1, 50120, Note_off_c, 0, 74, 41
1, 50282, Control_c, 0, 64, 115
1, 50297, Control_c, 0, 64, 101
1, 50297, Note_on_c, 0, 77, 62
1, 50302, Note_on_c, 0, 65, 62
1, 50305, Note_on_c, 0, 48, 45
1, 50312, Note_on_c, 0, 74, 51
1, 50312, Control_c, 0, 64, 84
1, 50327, Control_c, 0, 64, 65
1, 50341, Control_c, 0, 64, 0
1, 50371, Control_c, 0, 64, 34
1, 50386, Control_c, 0, 64, 67
1, 50401, Control_c, 0, 64, 77
1, 50415, Control_c, 0, 64, 90
1, 50430, Control_c, 0, 64, 101
1, 50445, Control_c, 0, 64, 107
1, 50460, Control_c, 0, 64, 112
1, 50468, Note_off_c, 0, 65, 60
1, 50474, Note_off_c, 0, 48, 53
1, 50474, Control_c, 0, 64, 116
1, 50486, Note_on_c, 0, 57, 53
1, 50489, Control_c, 0, 64, 121
1, 50504, Control_c, 0, 64, 126
1, 50506, Note_off_c, 0, 74, 60
1, 50519, Control_c, 0, 64, 127
1, 50520, Note_off_c, 0, 77, 59
1, 50569, Note_off_c, 0, 57, 55
1, 50645, Note_on_c, 0, 79, 71
1, 50650, Note_on_c, 0, 67, 73
1, 50653, Note_on_c, 0, 62, 52
1, 50659, Note_on_c, 0, 76, 62
1, 50708, Note_off_c, 0, 62, 58
1, 50797, Note_off_c, 0, 67, 53
1, 50798, Note_on_c, 0, 65, 61
1, 50824, Note_off_c, 0, 79, 58
1, 50825, Note_off_c, 0, 76, 59
1, 50827, Note_off_c, 0, 65, 68
1, 50949, Note_on_c, 0, 79, 75
1, 50956, Note_on_c, 0, 67, 75
1, 50974, Note_on_c, 0, 76, 45
1, 50997, Note_off_c, 0, 76, 57
1, 51021, Note_off_c, 0, 67, 57
1, 51084, Note_on_c, 0, 57, 52
1, 51119, Note_off_c, 0, 79, 58
1, 51246, Note_off_c, 0, 57, 55
1, 51257, Note_on_c, 0, 80, 76
1, 51260, Note_on_c, 0, 68, 73
1, 51263, Note_on_c, 0, 77, 65
1, 51265, Note_on_c, 0, 62, 51
1, 51343, Note_off_c, 0, 62, 53
1, 51410, Note_on_c, 0, 65, 58
1, 51414, Note_off_c, 0, 68, 60
1, 51440, Note_off_c, 0, 80, 58
1, 51445, Note_off_c, 0, 77, 55
1, 51465, Note_off_c, 0, 65, 55
1, 51556, Note_on_c, 0, 80, 75
1, 51565, Note_on_c, 0, 68, 71
1, 51569, Note_on_c, 0, 77, 68
1, 51611, Note_off_c, 0, 77, 53
1, 51630, Note_off_c, 0, 68, 59
1, 51633, Note_off_c, 0, 80, 61
1, 51693, Note_on_c, 0, 57, 51
1, 51846, Note_off_c, 0, 57, 53
1, 51864, Note_on_c, 0, 81, 78
1, 51866, Note_on_c, 0, 77, 69
1, 51869, Note_on_c, 0, 69, 69
1, 51877, Note_on_c, 0, 62, 50
1, 51936, Note_off_c, 0, 62, 55
1, 51997, Note_on_c, 0, 65, 59
1, 52025, Note_off_c, 0, 77, 53
1, 52026, Note_off_c, 0, 65, 66
1, 52047, Note_off_c, 0, 69, 54
1, 52061, Note_off_c, 0, 81, 49
1, 52306, Note_on_c, 0, 81, 64
1, 52309, Note_on_c, 0, 69, 55
1, 52312, Note_on_c, 0, 77, 57
1, 52315, Note_on_c, 0, 47, 46
1, 52351, Control_c, 0, 64, 124
1, 52366, Control_c, 0, 64, 103
1, 52381, Control_c, 0, 64, 80
1, 52395, Control_c, 0, 64, 56
1, 52410, Control_c, 0, 64, 0
1, 52455, Control_c, 0, 64, 52
1, 52470, Control_c, 0, 64, 74
1, 52485, Control_c, 0, 64, 86
1, 52500, Control_c, 0, 64, 100
1, 52514, Control_c, 0, 64, 108
1, 52529, Control_c, 0, 64, 112
1, 52544, Control_c, 0, 64, 115
1, 52559, Control_c, 0, 64, 120
1, 52574, Note_off_c, 0, 47, 42
1, 52574, Control_c, 0, 64, 125
1, 52585, Note_off_c, 0, 81, 55
1, 52588, Control_c, 0, 64, 127
1, 52597, Note_on_c, 0, 55, 46
1, 52600, Note_off_c, 0, 77, 56
1, 52646, Note_off_c, 0, 69, 59
1, 52655, Note_off_c, 0, 55, 61
1, 52725, Note_on_c, 0, 62, 50
1, 52762, Note_off_c, 0, 62, 55
1, 52854, Note_on_c, 0, 65, 49
1, 52902, Note_off_c, 0, 65, 64
1, 52926, Note_on_c, 0, 67, 62
1, 52965, Note_off_c, 0, 67, 65
1, 53090, Note_on_c, 0, 71, 56
1, 53095, Note_on_c, 0, 74, 54
1, 53212, Note_on_c, 0, 65, 60
1, 53244, Note_off_c, 0, 65, 67
1, 53291, Note_on_c, 0, 62, 56
1, 53322, Control_c, 0, 64, 120
1, 53337, Control_c, 0, 64, 101
1, 53341, Note_off_c, 0, 62, 46
1, 53352, Control_c, 0, 64, 85
1, 53367, Control_c, 0, 64, 66
1, 53382, Control_c, 0, 64, 0
1, 53402, Note_on_c, 0, 43, 43
1, 53412, Note_on_c, 0, 65, 46
1, 53440, Note_off_c, 0, 65, 60
1, 53457, Control_c, 0, 64, 61
1, 53472, Control_c, 0, 64, 70
1, 53486, Note_on_c, 0, 62, 54
1, 53486, Control_c, 0, 64, 77
1, 53501, Control_c, 0, 64, 84
1, 53516, Control_c, 0, 64, 89
1, 53531, Control_c, 0, 64, 94
1, 53546, Control_c, 0, 64, 97
1, 53554, Note_off_c, 0, 62, 44
1, 53560, Control_c, 0, 64, 100
1, 53567, Note_off_c, 0, 43, 42
1, 53575, Control_c, 0, 64, 103
1, 53590, Control_c, 0, 64, 106
1, 53598, Note_on_c, 0, 65, 56
1, 53605, Control_c, 0, 64, 109
1, 53620, Control_c, 0, 64, 113
1, 53634, Control_c, 0, 64, 116
1, 53635, Note_off_c, 0, 65, 65
1, 53649, Control_c, 0, 64, 118
1, 53664, Control_c, 0, 64, 120
1, 53679, Control_c, 0, 64, 122
1, 53701, Control_c, 0, 64, 125
1, 53705, Note_on_c, 0, 62, 56
1, 53711, Note_on_c, 0, 55, 45
1, 53716, Control_c, 0, 64, 127
1, 53755, Note_off_c, 0, 55, 47
1, 53770, Note_off_c, 0, 62, 51
1, 53820, Note_on_c, 0, 65, 53
1, 53859, Note_off_c, 0, 65, 64
1, 53909, Note_on_c, 0, 62, 49
1, 53978, Note_on_c, 0, 43, 36
1, 54011, Note_off_c, 0, 62, 49
1, 54019, Note_off_c, 0, 43, 48
1, 54041, Note_on_c, 0, 65, 58
1, 54067, Note_off_c, 0, 65, 67
1, 54136, Note_on_c, 0, 62, 53
1, 54180, Note_off_c, 0, 62, 60
1, 54207, Note_on_c, 0, 65, 40
1, 54224, Note_off_c, 0, 71, 47
1, 54232, Note_off_c, 0, 65, 58
1, 54260, Note_off_c, 0, 74, 40
1, 54448, Note_on_c, 0, 65, 60
1, 54449, Note_on_c, 0, 77, 64
1, 54452, Note_on_c, 0, 48, 48
1, 54464, Control_c, 0, 64, 111
1, 54465, Note_on_c, 0, 74, 49
1, 54479, Control_c, 0, 64, 90
1, 54494, Control_c, 0, 64, 71
1, 54509, Control_c, 0, 64, 0
1, 54538, Control_c, 0, 64, 37
1, 54553, Control_c, 0, 64, 68
1, 54568, Control_c, 0, 64, 79
1, 54583, Control_c, 0, 64, 94
1, 54597, Control_c, 0, 64, 105
1, 54612, Control_c, 0, 64, 112
1, 54627, Control_c, 0, 64, 116
1, 54634, Note_off_c, 0, 48, 40
1, 54635, Note_on_c, 0, 57, 50
1, 54641, Control_c, 0, 64, 121
1, 54656, Control_c, 0, 64, 127
1, 54717, Note_off_c, 0, 57, 59
1, 54783, Note_on_c, 0, 62, 59
1, 54802, Note_off_c, 0, 74, 39
1, 54836, Note_off_c, 0, 65, 38
1, 54840, Note_off_c, 0, 62, 51
1, 54911, Note_off_c, 0, 77, 51
1, 54919, Note_on_c, 0, 65, 56
1, 54968, Note_off_c, 0, 65, 55
1, 55102, Note_on_c, 0, 79, 78
1, 55110, Note_on_c, 0, 67, 69
1, 55117, Note_on_c, 0, 76, 63
1, 55272, Control_c, 0, 67, 123
1, 55285, Note_on_c, 0, 57, 53
1, 55287, Control_c, 0, 67, 114
1, 55302, Control_c, 0, 67, 104
1, 55317, Control_c, 0, 67, 93
1, 55332, Control_c, 0, 67, 78
1, 55347, Control_c, 0, 67, 65
1, 55361, Control_c, 0, 67, 56
1, 55376, Control_c, 0, 67, 48
1, 55391, Control_c, 0, 67, 44
1, 55403, Note_off_c, 0, 57, 55
1, 55406, Control_c, 0, 67, 40
1, 55412, Note_off_c, 0, 76, 60
1, 55421, Control_c, 0, 67, 37
1, 55430, Note_on_c, 0, 62, 54
1, 55435, Note_off_c, 0, 67, 57
1, 55436, Control_c, 0, 67, 33
1, 55451, Control_c, 0, 67, 29
1, 55465, Control_c, 0, 67, 25
1, 55480, Control_c, 0, 67, 22
1, 55486, Note_off_c, 0, 62, 52
1, 55495, Control_c, 0, 67, 21
1, 55497, Note_off_c, 0, 79, 57
1, 55510, Control_c, 0, 67, 19
1, 55525, Control_c, 0, 67, 19
1, 55539, Control_c, 0, 67, 18
1, 55555, Note_on_c, 0, 65, 52
1, 55620, Note_off_c, 0, 65, 52
1, 55728, Note_on_c, 0, 81, 79
1, 55734, Note_on_c, 0, 69, 67
1, 55737, Note_on_c, 0, 77, 67
1, 55746, Control_c, 0, 67, 20
1, 55761, Control_c, 0, 67, 22
1, 55776, Control_c, 0, 67, 23
1, 55791, Control_c, 0, 67, 26
1, 55807, Control_c, 0, 67, 28
1, 55822, Control_c, 0, 67, 31
1, 55836, Control_c, 0, 67, 37
1, 55851, Control_c, 0, 67, 47
1, 55866, Control_c, 0, 67, 62
1, 55880, Control_c, 0, 67, 86
1, 55881, Note_on_c, 0, 57, 52
1, 55895, Control_c, 0, 67, 112
1, 55910, Control_c, 0, 67, 127
1, 55994, Note_off_c, 0, 57, 50
1, 56062, Note_on_c, 0, 62, 48
1, 56115, Note_off_c, 0, 62, 57
1, 56189, Note_on_c, 0, 65, 51
1, 56200, Note_off_c, 0, 69, 55
1, 56209, Note_off_c, 0, 65, 63
1, 56228, Note_off_c, 0, 81, 56
1, 56235, Note_off_c, 0, 77, 50
1, 56482, Note_on_c, 0, 81, 68
1, 56489, Note_on_c, 0, 69, 56
1, 56490, Note_on_c, 0, 47, 50
1, 56490, Note_on_c, 0, 77, 58
1, 56540, Control_c, 0, 64, 100
1, 56554, Control_c, 0, 64, 79
1, 56569, Control_c, 0, 64, 51
1, 56584, Control_c, 0, 64, 0
1, 56615, Control_c, 0, 64, 64
1, 56630, Control_c, 0, 64, 76
1, 56645, Control_c, 0, 64, 89
1, 56659, Control_c, 0, 64, 103
1, 56682, Control_c, 0, 64, 115
1, 56697, Control_c, 0, 64, 122
1, 56711, Control_c, 0, 64, 127
1, 56727, Note_off_c, 0, 47, 39
1, 56728, Note_on_c, 0, 57, 46
1, 56752, Note_off_c, 0, 81, 60
1, 56765, Note_off_c, 0, 77, 60
1, 56767, Note_off_c, 0, 69, 61
1, 56771, Note_off_c, 0, 57, 61
1, 56897, Note_on_c, 0, 65, 55
1, 56917, Note_off_c, 0, 65, 63
1, 57050, Note_on_c, 0, 74, 58
1, 57064, Note_on_c, 0, 62, 51
1, 57095, Note_off_c, 0, 62, 53
1, 57129, Note_off_c, 0, 74, 56
1, 57263, Note_on_c, 0, 74, 58
1, 57269, Note_on_c, 0, 62, 50
1, 57276, Note_on_c, 0, 71, 48
1, 57303, Control_c, 0, 64, 120
1, 57318, Control_c, 0, 64, 98
1, 57333, Control_c, 0, 64, 79
1, 57348, Control_c, 0, 64, 40
1, 57363, Control_c, 0, 64, 0
1, 57365, Note_off_c, 0, 62, 56
1, 57392, Control_c, 0, 64, 57
1, 57403, Note_on_c, 0, 65, 53
1, 57408, Control_c, 0, 64, 70
1, 57423, Control_c, 0, 64, 79
1, 57445, Control_c, 0, 64, 90
1, 57457, Note_off_c, 0, 65, 62
1, 57460, Control_c, 0, 64, 99
1, 57475, Control_c, 0, 64, 104
1, 57490, Control_c, 0, 64, 108
1, 57490, Note_on_c, 0, 62, 56
1, 57505, Control_c, 0, 64, 111
1, 57520, Control_c, 0, 64, 117
1, 57534, Control_c, 0, 64, 122
1, 57549, Control_c, 0, 64, 127
1, 57566, Note_off_c, 0, 62, 56
1, 57600, Note_on_c, 0, 43, 43
1, 57612, Note_on_c, 0, 65, 48
1, 57649, Note_off_c, 0, 65, 64
1, 57653, Note_off_c, 0, 43, 54
1, 57686, Note_on_c, 0, 62, 58
1, 57726, Note_off_c, 0, 62, 54
1, 57793, Note_on_c, 0, 65, 51
1, 57839, Note_off_c, 0, 65, 59
1, 57900, Note_on_c, 0, 62, 53
1, 57902, Note_on_c, 0, 55, 51
1, 57952, Note_off_c, 0, 55, 57
1, 57963, Note_off_c, 0, 62, 51
1, 58005, Note_on_c, 0, 65, 53
1, 58046, Note_off_c, 0, 65, 62
1, 58098, Note_on_c, 0, 62, 49
1, 58164, Note_off_c, 0, 62, 49
1, 58183, Note_on_c, 0, 43, 46
1, 58231, Note_on_c, 0, 65, 47
1, 58242, Note_off_c, 0, 43, 54
1, 58257, Note_off_c, 0, 65, 61
1, 58309, Note_on_c, 0, 62, 48
1, 58366, Note_off_c, 0, 62, 54
1, 58373, Note_on_c, 0, 65, 59
1, 58386, Note_off_c, 0, 71, 60
1, 58403, Note_off_c, 0, 65, 67
1, 58420, Note_off_c, 0, 74, 37
1, 58564, Control_c, 0, 64, 100
1, 58572, Note_on_c, 0, 48, 64
1, 58578, Note_on_c, 0, 65, 70
1, 58578, Note_on_c, 0, 77, 69
1, 58579, Control_c, 0, 64, 81
1, 58581, Note_on_c, 0, 36, 60
1, 58581, Note_on_c, 0, 74, 60
1, 58594, Control_c, 0, 64, 60
1, 58608, Control_c, 0, 64, 44
1, 58623, Control_c, 0, 64, 66
1, 58631, Note_off_c, 0, 36, 64
1, 58638, Control_c, 0, 64, 77
1, 58653, Control_c, 0, 64, 93
1, 58658, Note_off_c, 0, 48, 63
1, 58668, Control_c, 0, 64, 110
1, 58682, Control_c, 0, 64, 125
1, 58697, Control_c, 0, 64, 127
1, 58748, Note_off_c, 0, 65, 63
1, 58772, Note_off_c, 0, 74, 61
1, 58786, Note_on_c, 0, 57, 71
1, 58795, Note_off_c, 0, 77, 60
1, 58950, Note_on_c, 0, 67, 79
1, 58953, Note_on_c, 0, 79, 77
1, 58959, Note_on_c, 0, 76, 68
1, 58965, Note_on_c, 0, 62, 66
1, 59001, Control_c, 0, 67, 120
1, 59017, Control_c, 0, 67, 107
1, 59032, Control_c, 0, 67, 91
1, 59047, Control_c, 0, 67, 72
1, 59052, Note_off_c, 0, 67, 58
1, 59061, Control_c, 0, 67, 53
1, 59062, Note_off_c, 0, 57, 38
1, 59067, Note_off_c, 0, 76, 63
1, 59076, Control_c, 0, 67, 34
1, 59080, Note_off_c, 0, 62, 56
1, 59091, Control_c, 0, 67, 25
1, 59105, Control_c, 0, 67, 22
1, 59112, Note_off_c, 0, 79, 59
1, 59113, Note_on_c, 0, 65, 67
1, 59120, Control_c, 0, 67, 20
1, 59135, Control_c, 0, 67, 18
1, 59150, Control_c, 0, 67, 16
1, 59160, Note_off_c, 0, 65, 59
1, 59165, Control_c, 0, 67, 14
1, 59180, Control_c, 0, 67, 11
1, 59195, Control_c, 0, 67, 9
1, 59210, Control_c, 0, 67, 8
1, 59225, Control_c, 0, 67, 0
1, 59335, Note_on_c, 0, 80, 73
1, 59336, Note_on_c, 0, 65, 62
1, 59336, Note_on_c, 0, 77, 65
1, 59339, Note_on_c, 0, 68, 67
1, 59358, Control_c, 0, 64, 116
1, 59373, Control_c, 0, 64, 94
1, 59387, Control_c, 0, 64, 78
1, 59387, Control_c, 0, 67, 8
1, 59402, Control_c, 0, 64, 68
1, 59402, Control_c, 0, 67, 8
1, 59417, Control_c, 0, 64, 69
1, 59431, Control_c, 0, 64, 76
1, 59431, Control_c, 0, 67, 9
1, 59446, Control_c, 0, 64, 88
1, 59461, Control_c, 0, 64, 104
1, 59463, Note_off_c, 0, 77, 58
1, 59476, Control_c, 0, 64, 115
1, 59490, Note_off_c, 0, 80, 62
1, 59491, Control_c, 0, 64, 119
1, 59492, Note_on_c, 0, 57, 53
1, 59493, Note_off_c, 0, 68, 63
1, 59505, Control_c, 0, 64, 121
1, 59505, Control_c, 0, 67, 8
1, 59520, Note_off_c, 0, 65, 34
1, 59520, Control_c, 0, 64, 126
1, 59535, Control_c, 0, 64, 127
1, 59535, Control_c, 0, 67, 8
1, 59669, Control_c, 0, 67, 9
1, 59688, Note_on_c, 0, 77, 68
1, 59688, Note_on_c, 0, 81, 77
1, 59690, Note_on_c, 0, 69, 74
1, 59691, Control_c, 0, 64, 114
1, 59691, Control_c, 0, 67, 10
1, 59693, Note_on_c, 0, 62, 57
1, 59705, Control_c, 0, 64, 94
1, 59705, Control_c, 0, 67, 11
1, 59720, Control_c, 0, 64, 75
1, 59720, Control_c, 0, 67, 11
1, 59735, Control_c, 0, 64, 39
1, 59735, Control_c, 0, 67, 12
1, 59743, Note_off_c, 0, 57, 37
1, 59750, Control_c, 0, 64, 0
1, 59765, Control_c, 0, 64, 63
1, 59779, Control_c, 0, 64, 74
1, 59794, Control_c, 0, 64, 86
1, 59810, Control_c, 0, 64, 97
1, 59825, Control_c, 0, 64, 103
1, 59837, Note_off_c, 0, 62, 53
1, 59840, Control_c, 0, 64, 107
1, 59849, Note_off_c, 0, 69, 62
1, 59854, Control_c, 0, 64, 109
1, 59857, Note_on_c, 0, 65, 56
1, 59869, Control_c, 0, 64, 112
1, 59878, Note_off_c, 0, 65, 64
1, 59884, Control_c, 0, 64, 117
1, 59888, Note_off_c, 0, 77, 62
1, 59897, Note_off_c, 0, 81, 60
1, 59899, Control_c, 0, 64, 120
1, 59914, Control_c, 0, 64, 122
1, 59928, Control_c, 0, 64, 123
1, 59943, Control_c, 0, 64, 125
1, 59958, Control_c, 0, 64, 126
1, 59973, Control_c, 0, 64, 127
1, 60135, Control_c, 0, 67, 11
1, 60165, Control_c, 0, 67, 11
1, 60248, Note_on_c, 0, 83, 51
1, 60250, Note_on_c, 0, 86, 57
1, 60253, Control_c, 0, 67, 11
1, 60256, Note_on_c, 0, 41, 36
1, 60258, Note_on_c, 0, 50, 37
1, 60264, Note_on_c, 0, 38, 37
1, 60265, Note_on_c, 0, 74, 44
1, 60268, Control_c, 0, 64, 112
1, 60283, Control_c, 0, 64, 94
1, 60283, Control_c, 0, 67, 12
1, 60298, Control_c, 0, 64, 75
1, 60313, Control_c, 0, 64, 0
1, 60313, Control_c, 0, 67, 12
1, 60328, Control_c, 0, 67, 13
1, 60343, Control_c, 0, 64, 52
1, 60357, Control_c, 0, 64, 71
1, 60372, Control_c, 0, 64, 83
1, 60387, Control_c, 0, 64, 97
1, 60387, Control_c, 0, 67, 12
1, 60402, Control_c, 0, 64, 107
1, 60402, Control_c, 0, 67, 12
1, 60417, Control_c, 0, 64, 113
1, 60439, Control_c, 0, 64, 115
1, 60439, Control_c, 0, 67, 11
1, 60452, Note_off_c, 0, 41, 48
1, 60453, Control_c, 0, 64, 118
1, 60464, Note_off_c, 0, 50, 51
1, 60468, Note_off_c, 0, 38, 39
1, 60468, Control_c, 0, 64, 123
1, 60468, Control_c, 0, 67, 11
1, 60483, Note_off_c, 0, 74, 63
1, 60483, Control_c, 0, 64, 127
1, 60493, Note_off_c, 0, 86, 60
1, 60498, Control_c, 0, 64, 127
1, 60505, Note_off_c, 0, 83, 55
1, 60527, Control_c, 0, 67, 10
1, 60542, Control_c, 0, 67, 10
1, 60618, Control_c, 0, 67, 10
1, 60647, Control_c, 0, 64, 121
1, 60647, Control_c, 0, 67, 11
1, 60649, Note_on_c, 0, 84, 70
1, 60653, Note_on_c, 0, 72, 65
1, 60661, Note_on_c, 0, 40, 57
1, 60662, Control_c, 0, 64, 100
1, 60663, Note_on_c, 0, 81, 62
1, 60664, Note_on_c, 0, 52, 56
1, 60670, Note_on_c, 0, 43, 49
1, 60676, Control_c, 0, 64, 81
1, 60691, Control_c, 0, 64, 64
1, 60691, Control_c, 0, 67, 12
1, 60706, Control_c, 0, 64, 0
1, 60721, Control_c, 0, 64, 61
1, 60736, Control_c, 0, 64, 71
1, 60750, Control_c, 0, 64, 82
1, 60765, Control_c, 0, 64, 94
1, 60765, Control_c, 0, 67, 11
1, 60780, Control_c, 0, 64, 102
1, 60790, Note_off_c, 0, 40, 60
1, 60795, Control_c, 0, 64, 105
1, 60795, Control_c, 0, 67, 10
1, 60796, Note_off_c, 0, 43, 50
1, 60806, Note_off_c, 0, 52, 63
1, 60809, Control_c, 0, 64, 106
1, 60824, Control_c, 0, 64, 109
1, 60837, Note_off_c, 0, 72, 63
1, 60839, Control_c, 0, 64, 113
1, 60854, Control_c, 0, 64, 117
1, 60854, Control_c, 0, 67, 10
1, 60856, Note_off_c, 0, 84, 61
1, 60869, Control_c, 0, 64, 121
1, 60879, Note_off_c, 0, 81, 54
1, 60883, Control_c, 0, 64, 123
1, 60898, Control_c, 0, 64, 127
1, 60943, Control_c, 0, 67, 10
1, 60972, Control_c, 0, 64, 121
1, 60972, Control_c, 0, 67, 11
1, 60987, Control_c, 0, 64, 99
1, 60987, Control_c, 0, 67, 12
1, 60989, Note_on_c, 0, 53, 68
1, 60989, Note_on_c, 0, 83, 74
1, 60994, Note_on_c, 0, 41, 64
1, 60995, Note_on_c, 0, 71, 70
1, 61000, Note_on_c, 0, 79, 66
1, 61001, Control_c, 0, 64, 80
1, 61003, Note_on_c, 0, 45, 59
1, 61016, Control_c, 0, 64, 63
1, 61031, Control_c, 0, 64, 37
1, 61046, Control_c, 0, 64, 64
1, 61061, Control_c, 0, 64, 73
1, 61076, Control_c, 0, 64, 87
1, 61091, Control_c, 0, 64, 99
1, 61091, Control_c, 0, 67, 11
1, 61101, Note_off_c, 0, 45, 62
1, 61106, Control_c, 0, 64, 104
1, 61106, Control_c, 0, 67, 11
1, 61121, Note_off_c, 0, 41, 63
1, 61121, Control_c, 0, 64, 106
1, 61135, Control_c, 0, 64, 108
1, 61138, Note_off_c, 0, 53, 62
1, 61150, Control_c, 0, 64, 110
1, 61165, Control_c, 0, 64, 114
1, 61168, Note_off_c, 0, 71, 59
1, 61187, Control_c, 0, 64, 117
1, 61198, Note_off_c, 0, 83, 56
1, 61200, Note_off_c, 0, 79, 51
1, 61201, Control_c, 0, 64, 118
1, 61216, Control_c, 0, 64, 119
1, 61216, Control_c, 0, 67, 10
1, 61231, Control_c, 0, 64, 120
1, 61246, Control_c, 0, 64, 122
1, 61261, Control_c, 0, 64, 127
1, 61276, Control_c, 0, 67, 11
1, 61290, Control_c, 0, 67, 11
1, 61305, Control_c, 0, 64, 118
1, 61305, Control_c, 0, 67, 12
1, 61320, Control_c, 0, 64, 100
1, 61326, Note_on_c, 0, 81, 79
1, 61331, Note_on_c, 0, 55, 67
1, 61331, Note_on_c, 0, 69, 78
1, 61332, Note_on_c, 0, 77, 70
1, 61335, Control_c, 0, 64, 83
1, 61342, Note_on_c, 0, 47, 60
1, 61344, Note_on_c, 0, 43, 59
1, 61350, Control_c, 0, 64, 68
1, 61365, Control_c, 0, 64, 63
1, 61380, Control_c, 0, 64, 69
1, 61380, Control_c, 0, 67, 12
1, 61395, Control_c, 0, 64, 78
1, 61410, Control_c, 0, 64, 91
1, 61422, Note_off_c, 0, 69, 63
1, 61425, Control_c, 0, 64, 102
1, 61440, Control_c, 0, 64, 109
1, 61450, Note_off_c, 0, 43, 57
1, 61455, Control_c, 0, 64, 113
1, 61455, Control_c, 0, 67, 12
1, 61470, Control_c, 0, 64, 119
1, 61475, Note_off_c, 0, 55, 61
1, 61475, Note_off_c, 0, 77, 62
1, 61483, Note_off_c, 0, 47, 62
1, 61485, Control_c, 0, 64, 127
1, 61486, Note_off_c, 0, 81, 61
1, 61574, Control_c, 0, 67, 11
1, 61603, Control_c, 0, 67, 11
1, 61618, Control_c, 0, 67, 10
1, 61663, Control_c, 0, 67, 10
1, 61678, Control_c, 0, 67, 9
1, 61737, Control_c, 0, 67, 10
1, 61745, Note_on_c, 0, 56, 72
1, 61747, Note_on_c, 0, 86, 76
1, 61749, Note_on_c, 0, 89, 82
1, 61752, Note_on_c, 0, 47, 60
1, 61752, Note_on_c, 0, 44, 65
1, 61752, Note_on_c, 0, 77, 81
1, 61767, Control_c, 0, 64, 119
1, 61767, Control_c, 0, 67, 11
1, 61781, Control_c, 0, 64, 95
1, 61796, Control_c, 0, 64, 75
1, 61811, Control_c, 0, 64, 32
1, 61825, Control_c, 0, 64, 0
1, 61825, Control_c, 0, 67, 11
1, 61840, Control_c, 0, 64, 62
1, 61855, Control_c, 0, 64, 73
1, 61870, Control_c, 0, 64, 86
1, 61885, Control_c, 0, 64, 100
1, 61899, Control_c, 0, 64, 111
1, 61914, Control_c, 0, 64, 118
1, 61937, Control_c, 0, 64, 123
1, 61952, Note_off_c, 0, 47, 57
1, 61952, Note_off_c, 0, 56, 62
1, 61952, Control_c, 0, 64, 127
1, 61970, Note_off_c, 0, 44, 63
1, 61981, Control_c, 0, 67, 11
1, 61994, Note_off_c, 0, 77, 59
1, 61996, Control_c, 0, 67, 10
1, 61999, Note_off_c, 0, 89, 63
1, 62015, Note_off_c, 0, 86, 56
1, 62025, Control_c, 0, 67, 10
1, 62040, Control_c, 0, 67, 9
1, 62055, Control_c, 0, 67, 9
1, 62121, Note_on_c, 0, 88, 80
1, 62125, Note_on_c, 0, 57, 72
1, 62125, Note_on_c, 0, 76, 78
1, 62126, Note_on_c, 0, 84, 73
1, 62129, Control_c, 0, 64, 116
1, 62129, Control_c, 0, 67, 9
1, 62132, Note_on_c, 0, 45, 66
1, 62134, Note_on_c, 0, 48, 65
1, 62144, Control_c, 0, 64, 94
1, 62159, Control_c, 0, 64, 74
1, 62173, Control_c, 0, 64, 43
1, 62173, Control_c, 0, 67, 10
1, 62188, Control_c, 0, 64, 37
1, 62204, Control_c, 0, 64, 66
1, 62204, Control_c, 0, 67, 9
1, 62219, Control_c, 0, 64, 77
1, 62234, Control_c, 0, 64, 94
1, 62234, Control_c, 0, 67, 9
1, 62248, Control_c, 0, 64, 105
1, 62248, Control_c, 0, 67, 8
1, 62261, Note_off_c, 0, 48, 64
1, 62263, Note_off_c, 0, 45, 62
1, 62263, Control_c, 0, 64, 109
1, 62278, Control_c, 0, 64, 111
1, 62286, Note_off_c, 0, 57, 57
1, 62293, Control_c, 0, 64, 113
1, 62308, Control_c, 0, 64, 117
1, 62314, Note_off_c, 0, 76, 63
1, 62322, Control_c, 0, 64, 124
1, 62330, Note_off_c, 0, 88, 59
1, 62337, Control_c, 0, 64, 127
1, 62349, Note_off_c, 0, 84, 61
1, 62382, Control_c, 0, 67, 9
1, 62396, Control_c, 0, 67, 9
1, 62411, Control_c, 0, 67, 10
1, 62426, Control_c, 0, 64, 107
1, 62426, Control_c, 0, 67, 10
1, 62438, Note_on_c, 0, 59, 75
1, 62439, Note_on_c, 0, 86, 77
1, 62440, Note_on_c, 0, 47, 70
1, 62441, Control_c, 0, 64, 90
1, 62443, Note_on_c, 0, 74, 82
1, 62445, Note_on_c, 0, 50, 64
1, 62447, Note_on_c, 0, 83, 73
1, 62456, Control_c, 0, 64, 73
1, 62471, Control_c, 0, 64, 60
1, 62486, Control_c, 0, 64, 61
1, 62486, Control_c, 0, 67, 11
1, 62501, Control_c, 0, 64, 70
1, 62516, Control_c, 0, 64, 83
1, 62530, Control_c, 0, 64, 96
1, 62545, Control_c, 0, 64, 104
1, 62554, Note_off_c, 0, 50, 61
1, 62560, Control_c, 0, 64, 106
1, 62560, Control_c, 0, 67, 10
1, 62564, Note_off_c, 0, 47, 61
1, 62575, Control_c, 0, 64, 107
1, 62575, Control_c, 0, 67, 10
1, 62587, Note_off_c, 0, 59, 59
1, 62590, Control_c, 0, 64, 108
1, 62590, Control_c, 0, 67, 9
1, 62596, Note_off_c, 0, 74, 63
1, 62604, Control_c, 0, 64, 110
1, 62609, Note_off_c, 0, 86, 59
1, 62619, Control_c, 0, 64, 113
1, 62634, Control_c, 0, 64, 116
1, 62644, Note_off_c, 0, 83, 48
1, 62648, Control_c, 0, 64, 120
1, 62663, Control_c, 0, 64, 125
1, 62686, Control_c, 0, 64, 127
1, 62686, Control_c, 0, 67, 10
1, 62700, Control_c, 0, 67, 10
1, 62730, Control_c, 0, 64, 126
1, 62745, Control_c, 0, 64, 107
1, 62745, Control_c, 0, 67, 11
1, 62759, Note_on_c, 0, 84, 83
1, 62760, Note_on_c, 0, 72, 83
1, 62760, Control_c, 0, 64, 89
1, 62760, Note_on_c, 0, 81, 79
1, 62763, Note_on_c, 0, 60, 78
1, 62764, Note_on_c, 0, 48, 70
1, 62767, Note_on_c, 0, 52, 69
1, 62774, Control_c, 0, 64, 71
1, 62789, Control_c, 0, 64, 47
1, 62789, Control_c, 0, 67, 12
1, 62804, Control_c, 0, 64, 62
1, 62819, Control_c, 0, 64, 71
1, 62834, Control_c, 0, 64, 81
1, 62839, Note_off_c, 0, 72, 63
1, 62848, Control_c, 0, 64, 95
1, 62848, Control_c, 0, 67, 11
1, 62863, Control_c, 0, 64, 108
1, 62863, Control_c, 0, 67, 11
1, 62870, Note_off_c, 0, 48, 63
1, 62878, Control_c, 0, 64, 116
1, 62878, Control_c, 0, 67, 10
1, 62888, Note_off_c, 0, 81, 61
1, 62893, Control_c, 0, 64, 119
1, 62894, Note_off_c, 0, 60, 59
1, 62895, Note_off_c, 0, 84, 63
1, 62908, Control_c, 0, 64, 125
1, 62909, Note_off_c, 0, 52, 63
1, 62922, Control_c, 0, 64, 127
1, 63027, Control_c, 0, 67, 10
1, 63042, Control_c, 0, 67, 9
1, 63057, Control_c, 0, 67, 9
1, 63071, Control_c, 0, 67, 8
1, 63101, Control_c, 0, 67, 8
1, 63131, Control_c, 0, 67, 0
1, 63160, Control_c, 0, 67, 8
1, 63166, Note_on_c, 0, 61, 78
1, 63171, Note_on_c, 0, 91, 87
1, 63173, Note_on_c, 0, 88, 80
1, 63174, Note_on_c, 0, 79, 84
1, 63175, Note_on_c, 0, 52, 63
1, 63175, Control_c, 0, 67, 8
1, 63177, Note_on_c, 0, 49, 68
1, 63205, Control_c, 0, 64, 106
1, 63205, Control_c, 0, 67, 9
1, 63219, Control_c, 0, 64, 86
1, 63234, Control_c, 0, 64, 66
1, 63249, Control_c, 0, 64, 0
1, 63279, Control_c, 0, 64, 66
1, 63294, Control_c, 0, 64, 79
1, 63309, Control_c, 0, 64, 94
1, 63309, Control_c, 0, 67, 9
1, 63323, Control_c, 0, 64, 109
1, 63338, Control_c, 0, 64, 118
1, 63353, Control_c, 0, 64, 125
1, 63368, Control_c, 0, 64, 127
1, 63376, Note_off_c, 0, 52, 62
1, 63381, Note_off_c, 0, 61, 62
1, 63387, Note_off_c, 0, 49, 62
1, 63397, Control_c, 0, 67, 9
1, 63435, Note_off_c, 0, 79, 59
1, 63448, Note_off_c, 0, 91, 57
1, 63449, Control_c, 0, 67, 8
1, 63476, Note_off_c, 0, 88, 52
1, 63478, Control_c, 0, 67, 8
1, 63553, Control_c, 0, 67, 8
1, 63568, Control_c, 0, 67, 9
1, 63572, Note_on_c, 0, 89, 80
1, 63577, Note_on_c, 0, 77, 79
1, 63577, Note_on_c, 0, 86, 74
1, 63578, Note_on_c, 0, 62, 75
1, 63583, Note_on_c, 0, 50, 66
1, 63583, Control_c, 0, 64, 124
1, 63583, Control_c, 0, 67, 9
1, 63587, Note_on_c, 0, 53, 61
1, 63597, Control_c, 0, 64, 99
1, 63612, Control_c, 0, 64, 79
1, 63627, Control_c, 0, 64, 60
1, 63642, Control_c, 0, 64, 0
1, 63657, Control_c, 0, 64, 62
1, 63671, Control_c, 0, 64, 74
1, 63686, Control_c, 0, 64, 86
1, 63701, Control_c, 0, 64, 98
1, 63716, Note_off_c, 0, 50, 58
1, 63716, Control_c, 0, 64, 103
1, 63719, Note_off_c, 0, 53, 63
1, 63731, Control_c, 0, 64, 106
1, 63734, Note_off_c, 0, 62, 58
1, 63745, Control_c, 0, 64, 108
1, 63745, Control_c, 0, 67, 9
1, 63757, Note_off_c, 0, 77, 59
1, 63760, Control_c, 0, 64, 112
1, 63760, Control_c, 0, 67, 8
1, 63774, Note_off_c, 0, 89, 61
1, 63775, Control_c, 0, 64, 116
1, 63790, Control_c, 0, 64, 121
1, 63792, Note_off_c, 0, 86, 59
1, 63806, Control_c, 0, 64, 124
1, 63820, Control_c, 0, 64, 125
1, 63835, Control_c, 0, 64, 127
1, 63835, Control_c, 0, 67, 9
1, 63880, Control_c, 0, 67, 9
1, 63894, Control_c, 0, 67, 10
1, 63900, Note_on_c, 0, 88, 79
1, 63902, Note_on_c, 0, 76, 76
1, 63906, Note_on_c, 0, 84, 72
1, 63907, Note_on_c, 0, 64, 71
1, 63908, Note_on_c, 0, 52, 67
1, 63909, Control_c, 0, 64, 117
1, 63909, Control_c, 0, 67, 10
1, 63915, Note_on_c, 0, 55, 62
1, 63924, Control_c, 0, 64, 100
1, 63939, Control_c, 0, 64, 82
1, 63939, Control_c, 0, 67, 11
1, 63954, Control_c, 0, 64, 64
1, 63954, Control_c, 0, 67, 11
1, 63968, Control_c, 0, 64, 49
1, 63983, Control_c, 0, 64, 64
1, 63998, Control_c, 0, 64, 72
1, 64013, Control_c, 0, 64, 81
1, 64027, Control_c, 0, 64, 90
1, 64027, Control_c, 0, 67, 11
1, 64042, Control_c, 0, 64, 96
1, 64044, Note_off_c, 0, 52, 59
1, 64047, Note_off_c, 0, 55, 60
1, 64057, Control_c, 0, 64, 99
1, 64057, Control_c, 0, 67, 10
1, 64072, Control_c, 0, 64, 102
1, 64073, Note_off_c, 0, 64, 60
1, 64078, Note_off_c, 0, 76, 63
1, 64087, Control_c, 0, 64, 104
1, 64090, Note_off_c, 0, 88, 57
1, 64101, Control_c, 0, 64, 108
1, 64116, Control_c, 0, 64, 114
1, 64120, Note_off_c, 0, 84, 59
1, 64131, Control_c, 0, 64, 117
1, 64146, Control_c, 0, 64, 120
1, 64146, Control_c, 0, 67, 10
1, 64168, Control_c, 0, 64, 122
1, 64183, Control_c, 0, 64, 124
1, 64198, Control_c, 0, 64, 125
1, 64213, Control_c, 0, 67, 10
1, 64227, Control_c, 0, 64, 123
1, 64227, Control_c, 0, 67, 11
1, 64236, Note_on_c, 0, 86, 77
1, 64239, Note_on_c, 0, 74, 72
1, 64242, Note_on_c, 0, 53, 61
1, 64242, Note_on_c, 0, 65, 68
1, 64242, Control_c, 0, 64, 107
1, 64248, Note_on_c, 0, 83, 63
1, 64251, Note_on_c, 0, 57, 60
1, 64257, Control_c, 0, 64, 90
1, 64257, Control_c, 0, 67, 12
1, 64272, Control_c, 0, 64, 72
1, 64287, Control_c, 0, 64, 0
1, 64287, Control_c, 0, 67, 12
1, 64301, Control_c, 0, 67, 13
1, 64316, Control_c, 0, 64, 58
1, 64331, Control_c, 0, 64, 73
1, 64331, Control_c, 0, 67, 13
1, 64346, Control_c, 0, 64, 84
1, 64346, Control_c, 0, 67, 14
1, 64352, Note_off_c, 0, 65, 55
1, 64361, Control_c, 0, 64, 96
1, 64376, Control_c, 0, 64, 103
1, 64376, Control_c, 0, 67, 13
1, 64378, Note_off_c, 0, 53, 57
1, 64388, Note_off_c, 0, 74, 61
1, 64391, Note_off_c, 0, 86, 61
1, 64391, Control_c, 0, 64, 108
1, 64391, Control_c, 0, 67, 13
1, 64402, Note_off_c, 0, 57, 61
1, 64405, Control_c, 0, 64, 111
1, 64405, Control_c, 0, 67, 12
1, 64413, Note_off_c, 0, 83, 55
1, 64420, Control_c, 0, 64, 115
1, 64435, Control_c, 0, 64, 121
1, 64450, Control_c, 0, 64, 126
1, 64465, Control_c, 0, 64, 127
1, 64539, Control_c, 0, 67, 12
1, 64614, Control_c, 0, 67, 12
1, 64643, Control_c, 0, 67, 13
1, 64658, Control_c, 0, 67, 14
1, 64673, Control_c, 0, 67, 15
1, 64685, Note_on_c, 0, 84, 69
1, 64688, Control_c, 0, 64, 122
1, 64688, Control_c, 0, 67, 17
1, 64689, Note_on_c, 0, 60, 45
1, 64689, Note_on_c, 0, 81, 62
1, 64693, Note_on_c, 0, 54, 40
1, 64693, Note_on_c, 0, 72, 58
1, 64696, Note_on_c, 0, 62, 44
1, 64703, Control_c, 0, 64, 107
1, 64703, Control_c, 0, 67, 21
1, 64717, Control_c, 0, 64, 88
1, 64717, Control_c, 0, 67, 31
1, 64732, Control_c, 0, 64, 70
1, 64732, Control_c, 0, 67, 53
1, 64747, Control_c, 0, 64, 0
1, 64747, Control_c, 0, 67, 82
1, 64762, Control_c, 0, 67, 112
1, 64777, Control_c, 0, 67, 127
1, 64791, Control_c, 0, 64, 64
1, 64806, Control_c, 0, 64, 74
1, 64821, Control_c, 0, 64, 86
1, 64836, Control_c, 0, 64, 96
1, 64850, Control_c, 0, 64, 102
1, 64865, Control_c, 0, 64, 105
1, 64880, Control_c, 0, 64, 107
1, 64895, Control_c, 0, 64, 109
1, 64896, Note_off_c, 0, 72, 62
1, 64897, Note_off_c, 0, 62, 46
1, 64901, Note_off_c, 0, 84, 57
1, 64907, Note_off_c, 0, 60, 54
1, 64909, Note_off_c, 0, 81, 55
1, 64910, Control_c, 0, 64, 113
1, 64912, Note_off_c, 0, 54, 49
1, 64932, Control_c, 0, 64, 115
1, 64947, Control_c, 0, 64, 116
1, 64992, Control_c, 0, 64, 116
1, 65139, Control_c, 0, 64, 115
1, 65141, Note_on_c, 0, 83, 57
1, 65152, Note_on_c, 0, 79, 50
1, 65154, Note_on_c, 0, 71, 36
1, 65154, Control_c, 0, 64, 111
1, 65155, Note_on_c, 0, 59, 42
1, 65155, Note_on_c, 0, 62, 38
1, 65163, Note_on_c, 0, 55, 41
1, 65169, Control_c, 0, 64, 102
1, 65184, Control_c, 0, 64, 88
1, 65198, Control_c, 0, 64, 69
1, 65213, Control_c, 0, 64, 0
1, 65273, Control_c, 0, 64, 14
1, 65288, Control_c, 0, 64, 69
1, 65303, Control_c, 0, 64, 78
1, 65303, Note_off_c, 0, 71, 59
1, 65318, Control_c, 0, 64, 89
1, 65318, Note_off_c, 0, 62, 48
1, 65329, Note_off_c, 0, 83, 53
1, 65332, Note_off_c, 0, 79, 61
1, 65332, Control_c, 0, 64, 95
1, 65336, Note_off_c, 0, 55, 44
1, 65347, Control_c, 0, 64, 98
1, 65356, Note_off_c, 0, 59, 40
1, 65362, Control_c, 0, 64, 100
1, 65376, Control_c, 0, 64, 103
1, 65392, Control_c, 0, 64, 106
1, 65407, Control_c, 0, 64, 108
1, 65422, Control_c, 0, 64, 109
1, 65452, Control_c, 0, 64, 110
1, 65604, Note_on_c, 0, 81, 58
1, 65613, Note_on_c, 0, 59, 42
1, 65614, Control_c, 0, 64, 108
1, 65618, Note_on_c, 0, 77, 52
1, 65620, Note_on_c, 0, 55, 44
1, 65629, Control_c, 0, 64, 101
1, 65644, Control_c, 0, 64, 87
1, 65659, Control_c, 0, 64, 71
1, 65681, Control_c, 0, 64, 0
1, 65711, Control_c, 0, 64, 34
1, 65726, Control_c, 0, 64, 65
1, 65741, Control_c, 0, 64, 71
1, 65755, Control_c, 0, 64, 76
1, 65770, Control_c, 0, 64, 83
1, 65785, Control_c, 0, 64, 87
1, 65786, Note_off_c, 0, 55, 58
1, 65787, Note_off_c, 0, 77, 58
1, 65797, Note_on_c, 0, 79, 58
1, 65798, Note_off_c, 0, 81, 54
1, 65799, Control_c, 0, 64, 88
1, 65800, Note_on_c, 0, 60, 55
1, 65800, Note_on_c, 0, 76, 61
1, 65807, Note_on_c, 0, 57, 48
1, 65814, Control_c, 0, 64, 89
1, 65822, Note_off_c, 0, 59, 40
1, 65829, Control_c, 0, 64, 89
1, 65844, Control_c, 0, 64, 91
1, 65848, Note_off_c, 0, 60, 55
1, 65848, Note_off_c, 0, 76, 56
1, 65854, Note_off_c, 0, 79, 54
1, 65859, Control_c, 0, 64, 93
1, 65864, Note_off_c, 0, 57, 50
1, 65873, Control_c, 0, 64, 94
1, 65888, Control_c, 0, 64, 96
1, 65903, Control_c, 0, 64, 97
1, 65918, Control_c, 0, 64, 97
1, 65933, Control_c, 0, 64, 98
1, 65947, Control_c, 0, 64, 97
1, 65962, Control_c, 0, 64, 92
1, 65968, Note_on_c, 0, 60, 58
1, 65972, Note_on_c, 0, 79, 65
1, 65973, Note_on_c, 0, 76, 58
1, 65976, Note_on_c, 0, 57, 49
1, 65977, Control_c, 0, 64, 81
1, 65991, Control_c, 0, 64, 67
1, 66006, Control_c, 0, 64, 0
1, 66036, Control_c, 0, 64, 22
1, 66051, Control_c, 0, 64, 66
1, 66066, Control_c, 0, 64, 72
1, 66081, Control_c, 0, 64, 77
1, 66096, Control_c, 0, 64, 82
1, 66101, Note_off_c, 0, 76, 54
1, 66103, Note_off_c, 0, 60, 53
1, 66111, Control_c, 0, 64, 85
1, 66116, Note_on_c, 0, 59, 54
1, 66122, Note_on_c, 0, 77, 56
1, 66125, Control_c, 0, 64, 87
1, 66126, Note_on_c, 0, 74, 54
1, 66127, Note_on_c, 0, 62, 51
1, 66139, Note_off_c, 0, 79, 49
1, 66140, Note_off_c, 0, 57, 44
1, 66140, Control_c, 0, 64, 88
1, 66155, Note_off_c, 0, 59, 61
1, 66155, Note_off_c, 0, 77, 54
1, 66155, Control_c, 0, 64, 89
1, 66165, Note_off_c, 0, 74, 61
1, 66169, Note_off_c, 0, 62, 54
1, 66170, Control_c, 0, 64, 90
1, 66185, Control_c, 0, 64, 91
1, 66200, Control_c, 0, 64, 91
1, 66215, Control_c, 0, 64, 92
1, 66230, Control_c, 0, 64, 92
1, 66245, Control_c, 0, 64, 93
1, 66289, Control_c, 0, 64, 89
1, 66298, Note_on_c, 0, 77, 61
1, 66304, Control_c, 0, 64, 81
1, 66312, Note_on_c, 0, 74, 48
1, 66316, Note_on_c, 0, 62, 29
1, 66319, Control_c, 0, 64, 70
1, 66328, Note_on_c, 0, 59, 20
1, 66334, Control_c, 0, 64, 51
1, 66349, Control_c, 0, 64, 42
1, 66363, Control_c, 0, 64, 62
1, 66378, Control_c, 0, 64, 68
1, 66393, Control_c, 0, 64, 72
1, 66408, Control_c, 0, 64, 78
1, 66430, Control_c, 0, 64, 83
1, 66431, Note_off_c, 0, 59, 55
1, 66440, Note_off_c, 0, 74, 55
1, 66444, Control_c, 0, 64, 86
1, 66450, Note_off_c, 0, 77, 56
1, 66459, Note_off_c, 0, 62, 40
1, 66459, Control_c, 0, 64, 87
1, 66472, Note_on_c, 0, 72, 53
1, 66472, Note_on_c, 0, 76, 50
1, 66489, Control_c, 0, 64, 87
1, 66504, Control_c, 0, 64, 88
1, 66512, Note_off_c, 0, 72, 51
1, 66519, Control_c, 0, 64, 89
1, 66523, Note_off_c, 0, 76, 50
1, 66534, Control_c, 0, 64, 90
1, 66549, Control_c, 0, 64, 92
1, 66554, Poly_aftertouch_c, 0, 64, 127
1, 66562, Poly_aftertouch_c, 0, 60, 0
1, 66564, Control_c, 0, 64, 93
1, 66575, Poly_aftertouch_c, 0, 64, 0
1, 66608, Control_c, 0, 64, 90
1, 66622, Control_c, 0, 64, 82
1, 66629, Note_on_c, 0, 64, 47
1, 66637, Control_c, 0, 64, 69
1, 66641, Note_on_c, 0, 76, 57
1, 66642, Note_on_c, 0, 72, 53
1, 66652, Control_c, 0, 64, 61
1, 66667, Control_c, 0, 64, 65
1, 66681, Note_on_c, 0, 62, 35
1, 66682, Control_c, 0, 64, 71
1, 66696, Control_c, 0, 64, 78
1, 66711, Control_c, 0, 64, 86
1, 66719, Note_off_c, 0, 64, 60
1, 66726, Control_c, 0, 64, 90
1, 66741, Control_c, 0, 64, 91
1, 66759, Note_off_c, 0, 62, 0
1, 66759, Note_on_c, 0, 62, 13
1, 66769, Note_off_c, 0, 72, 36
1, 66770, Control_c, 0, 64, 92
1, 66776, Note_off_c, 0, 76, 33
1, 66788, Note_on_c, 0, 74, 51
1, 66800, Control_c, 0, 64, 92
1, 66801, Note_on_c, 0, 71, 49
1, 66805, Note_on_c, 0, 65, 37
1, 66808, Note_off_c, 0, 62, 60
1, 66814, Note_off_c, 0, 74, 63
1, 66814, Control_c, 0, 64, 93
1, 66829, Note_off_c, 0, 71, 56
1, 66829, Control_c, 0, 64, 94
1, 66835, Note_off_c, 0, 65, 52
1, 66844, Control_c, 0, 64, 94
1, 66859, Control_c, 0, 64, 95
1, 66874, Control_c, 0, 64, 95
1, 66918, Control_c, 0, 64, 93
1, 66933, Control_c, 0, 64, 86
1, 66948, Control_c, 0, 64, 76
1, 66963, Control_c, 0, 64, 66
1, 66969, Note_on_c, 0, 65, 42
1, 66975, Note_on_c, 0, 74, 43
1, 66977, Note_on_c, 0, 62, 30
1, 66978, Control_c, 0, 64, 64
1, 66981, Note_on_c, 0, 71, 44
1, 66993, Control_c, 0, 64, 66
1, 67008, Control_c, 0, 64, 70
1, 67023, Control_c, 0, 64, 75
1, 67038, Control_c, 0, 64, 80
1, 67053, Control_c, 0, 64, 85
1, 67067, Control_c, 0, 64, 87
1, 67082, Control_c, 0, 64, 88
1, 67097, Control_c, 0, 64, 89
1, 67098, Note_off_c, 0, 62, 35
1, 67098, Note_off_c, 0, 71, 47
1, 67112, Control_c, 0, 64, 89
1, 67115, Note_off_c, 0, 65, 36
1, 67119, Note_off_c, 0, 74, 58
1, 67127, Control_c, 0, 64, 90
1, 67145, Note_on_c, 0, 72, 50
1, 67147, Note_on_c, 0, 69, 52
1, 67154, Note_on_c, 0, 67, 34
1, 67180, Note_on_c, 0, 64, 19
1, 67202, Note_off_c, 0, 67, 48
1, 67238, Control_c, 0, 64, 89
1, 67252, Control_c, 0, 64, 88
1, 67267, Control_c, 0, 64, 84
1, 67270, Note_off_c, 0, 64, 34
1, 67282, Control_c, 0, 64, 78
1, 67297, Control_c, 0, 64, 71
1, 67312, Control_c, 0, 64, 64
1, 67320, Note_off_c, 0, 72, 43
1, 67322, Note_off_c, 0, 69, 51
1, 67327, Control_c, 0, 64, 64
1, 67336, Note_on_c, 0, 65, 45
1, 67342, Control_c, 0, 64, 67
1, 67343, Note_on_c, 0, 71, 45
1, 67346, Note_on_c, 0, 67, 47
1, 67357, Control_c, 0, 64, 68
1, 67371, Note_off_c, 0, 65, 58
1, 67371, Control_c, 0, 64, 69
1, 67389, Note_off_c, 0, 71, 61
1, 67416, Control_c, 0, 64, 70
1, 67431, Control_c, 0, 64, 72
1, 67445, Control_c, 0, 64, 75
1, 67460, Control_c, 0, 64, 79
1, 67475, Control_c, 0, 64, 81
1, 67487, Note_off_c, 0, 67, 54
1, 67490, Control_c, 0, 64, 83
1, 67505, Control_c, 0, 64, 85
1, 67519, Control_c, 0, 64, 88
1, 67533, Note_on_c, 0, 69, 54
1, 67534, Control_c, 0, 64, 90
1, 67541, Note_on_c, 0, 65, 45
1, 67549, Control_c, 0, 64, 93
1, 67563, Control_c, 0, 64, 95
1, 67578, Control_c, 0, 64, 98
1, 67580, Note_off_c, 0, 65, 54
1, 67581, Note_off_c, 0, 69, 60
1, 67593, Control_c, 0, 64, 100
1, 67608, Control_c, 0, 64, 101
1, 67623, Control_c, 0, 64, 102
1, 67637, Control_c, 0, 64, 103
1, 67652, Control_c, 0, 64, 105
1, 67667, Control_c, 0, 64, 106
1, 67682, Control_c, 0, 64, 108
1, 67697, Control_c, 0, 64, 109
1, 67711, Control_c, 0, 64, 109
1, 67957, Control_c, 0, 64, 108
1, 67965, Note_on_c, 0, 77, 56
1, 67972, Control_c, 0, 64, 100
1, 67974, Note_on_c, 0, 65, 45
1, 67975, Note_on_c, 0, 69, 46
1, 67976, Note_on_c, 0, 48, 43
1, 67978, Note_on_c, 0, 74, 46
1, 67987, Control_c, 0, 64, 88
1, 68001, Control_c, 0, 64, 72
1, 68016, Control_c, 0, 64, 0
1, 68075, Control_c, 0, 64, 64
1, 68090, Control_c, 0, 64, 74
1, 68105, Control_c, 0, 64, 85
1, 68120, Control_c, 0, 64, 98
1, 68135, Control_c, 0, 64, 108
1, 68136, Note_off_c, 0, 48, 55
1, 68150, Control_c, 0, 64, 113
1, 68164, Control_c, 0, 64, 117
1, 68180, Control_c, 0, 64, 122
1, 68194, Control_c, 0, 64, 127
1, 68245, Note_off_c, 0, 65, 59
1, 68299, Note_off_c, 0, 69, 62
1, 68300, Note_on_c, 0, 65, 34
1, 68315, Note_on_c, 0, 62, 46
1, 68322, Note_on_c, 0, 57, 39
1, 68349, Note_off_c, 0, 74, 38
1, 68363, Note_off_c, 0, 57, 52
1, 68363, Note_off_c, 0, 62, 55
1, 68364, Note_off_c, 0, 65, 59
1, 68507, Note_on_c, 0, 65, 48
1, 68508, Note_on_c, 0, 62, 48
1, 68510, Note_on_c, 0, 57, 37
1, 68527, Note_off_c, 0, 77, 52
1, 68536, Note_off_c, 0, 65, 58
1, 68551, Note_off_c, 0, 62, 59
1, 68557, Note_off_c, 0, 57, 58
1, 68692, Note_on_c, 0, 57, 38
1, 68695, Note_on_c, 0, 62, 45
1, 68700, Note_on_c, 0, 65, 40
1, 68734, Note_off_c, 0, 65, 53
1, 68740, Note_off_c, 0, 62, 58
1, 68744, Note_off_c, 0, 57, 55
1, 68886, Note_on_c, 0, 79, 74
1, 68889, Note_on_c, 0, 67, 63
1, 68892, Note_on_c, 0, 76, 61
1, 68901, Note_on_c, 0, 57, 39
1, 68908, Note_on_c, 0, 65, 32
1, 68913, Note_on_c, 0, 74, 51
1, 68925, Note_on_c, 0, 62, 23
1, 68941, Note_off_c, 0, 65, 54
1, 68954, Note_off_c, 0, 57, 56
1, 68965, Note_off_c, 0, 62, 45
1, 69022, Note_off_c, 0, 67, 60
1, 69074, Note_on_c, 0, 67, 52
1, 69076, Note_on_c, 0, 62, 47
1, 69085, Note_on_c, 0, 57, 41
1, 69118, Note_off_c, 0, 67, 59
1, 69130, Note_off_c, 0, 62, 56
1, 69133, Note_off_c, 0, 57, 56
1, 69252, Note_on_c, 0, 57, 46
1, 69252, Note_on_c, 0, 67, 53
1, 69267, Note_on_c, 0, 62, 40
1, 69275, Note_off_c, 0, 67, 61
1, 69302, Note_off_c, 0, 57, 53
1, 69303, Note_off_c, 0, 62, 51
1, 69401, Note_on_c, 0, 62, 57
1, 69424, Note_on_c, 0, 65, 39
1, 69441, Note_off_c, 0, 62, 63
1, 69453, Note_off_c, 0, 65, 51
1, 69457, Note_off_c, 0, 76, 59
1, 69467, Note_off_c, 0, 79, 55
1, 69506, Note_off_c, 0, 74, 36
1, 69515, Poly_aftertouch_c, 0, 57, 0
1, 69649, Note_on_c, 0, 81, 70
1, 69652, Note_on_c, 0, 65, 42
1, 69652, Note_on_c, 0, 77, 57
1, 69653, Note_on_c, 0, 57, 31
1, 69657, Note_on_c, 0, 53, 49
1, 69657, Note_on_c, 0, 69, 57
1, 69658, Note_on_c, 0, 74, 48
1, 69677, Control_c, 0, 64, 107
1, 69692, Control_c, 0, 64, 89
1, 69707, Control_c, 0, 64, 67
1, 69721, Control_c, 0, 64, 22
1, 69736, Control_c, 0, 64, 50
1, 69751, Control_c, 0, 64, 66
1, 69752, Note_off_c, 0, 65, 63
1, 69765, Control_c, 0, 64, 76
1, 69772, Note_off_c, 0, 57, 60
1, 69780, Note_off_c, 0, 53, 60
1, 69780, Control_c, 0, 64, 88
1, 69795, Control_c, 0, 64, 102
1, 69810, Control_c, 0, 64, 109
1, 69825, Control_c, 0, 64, 112
1, 69840, Control_c, 0, 64, 115
1, 69855, Control_c, 0, 64, 118
1, 69869, Control_c, 0, 64, 122
1, 69884, Control_c, 0, 64, 125
1, 69885, Note_on_c, 0, 64, 53
1, 69899, Note_on_c, 0, 53, 37
1, 69899, Control_c, 0, 64, 126
1, 69914, Note_on_c, 0, 57, 39
1, 69914, Control_c, 0, 64, 126
1, 69929, Control_c, 0, 64, 127
1, 69932, Note_off_c, 0, 64, 59
1, 69944, Note_off_c, 0, 57, 56
1, 69950, Note_off_c, 0, 53, 60
1, 70054, Note_on_c, 0, 64, 54
1, 70057, Note_on_c, 0, 57, 42
1, 70082, Note_on_c, 0, 53, 41
1, 70091, Note_off_c, 0, 64, 62
1, 70106, Note_off_c, 0, 57, 56
1, 70120, Note_off_c, 0, 53, 52
1, 70235, Note_on_c, 0, 62, 42
1, 70240, Note_on_c, 0, 57, 42
1, 70246, Note_on_c, 0, 53, 48
1, 70265, Note_off_c, 0, 62, 48
1, 70269, Note_off_c, 0, 53, 65
1, 70270, Note_off_c, 0, 57, 56
1, 70319, Note_off_c, 0, 69, 60
1, 70331, Note_off_c, 0, 77, 52
1, 70331, Note_off_c, 0, 81, 52
1, 70334, Note_off_c, 0, 74, 38
1, 70470, Control_c, 0, 64, 126
1, 70485, Control_c, 0, 64, 109
1, 70499, Note_on_c, 0, 47, 57
1, 70500, Control_c, 0, 64, 92
1, 70506, Note_on_c, 0, 81, 63
1, 70510, Note_on_c, 0, 77, 53
1, 70515, Control_c, 0, 64, 75
1, 70516, Note_on_c, 0, 69, 53
1, 70530, Control_c, 0, 64, 63
1, 70559, Control_c, 0, 64, 70
1, 70574, Control_c, 0, 64, 80
1, 70580, Note_off_c, 0, 47, 62
1, 70588, Control_c, 0, 64, 92
1, 70603, Control_c, 0, 64, 102
1, 70618, Control_c, 0, 64, 107
1, 70633, Control_c, 0, 64, 108
1, 70648, Control_c, 0, 64, 109
1, 70662, Control_c, 0, 64, 111
1, 70677, Control_c, 0, 64, 113
1, 70692, Control_c, 0, 64, 113
1, 70707, Note_off_c, 0, 77, 56
1, 70721, Note_off_c, 0, 81, 57
1, 70737, Note_on_c, 0, 65, 44
1, 70737, Control_c, 0, 64, 114
1, 70738, Note_on_c, 0, 62, 41
1, 70740, Note_on_c, 0, 55, 38
1, 70756, Note_off_c, 0, 69, 57
1, 70766, Note_off_c, 0, 65, 57
1, 70769, Note_off_c, 0, 62, 54
1, 70776, Note_off_c, 0, 55, 52
1, 70855, Control_c, 0, 64, 114
1, 70884, Note_on_c, 0, 62, 47
1, 70886, Note_on_c, 0, 55, 44
1, 70889, Note_on_c, 0, 65, 44
1, 70924, Note_off_c, 0, 65, 58
1, 70931, Note_off_c, 0, 55, 53
1, 70931, Note_off_c, 0, 62, 61
1, 71056, Note_on_c, 0, 65, 46
1, 71058, Note_on_c, 0, 55, 42
1, 71062, Note_on_c, 0, 74, 47
1, 71065, Note_on_c, 0, 71, 44
1, 71067, Note_on_c, 0, 62, 44
1, 71087, Note_off_c, 0, 71, 58
1, 71087, Note_off_c, 0, 74, 61
1, 71091, Note_off_c, 0, 65, 51
1, 71101, Control_c, 0, 64, 115
1, 71124, Note_off_c, 0, 62, 51
1, 71160, Control_c, 0, 64, 115
1, 71207, Note_off_c, 0, 55, 29
1, 71220, Control_c, 0, 64, 116
1, 71226, Note_on_c, 0, 74, 43
1, 71235, Control_c, 0, 64, 116
1, 71250, Control_c, 0, 64, 117
1, 71270, Note_on_c, 0, 71, 8
1, 71285, Note_off_c, 0, 74, 56
1, 71313, Note_off_c, 0, 71, 44
1, 71324, Control_c, 0, 64, 117
1, 71383, Control_c, 0, 64, 118
1, 71417, Note_on_c, 0, 71, 50
1, 71421, Note_on_c, 0, 65, 46
1, 71424, Note_on_c, 0, 62, 49
1, 71449, Note_off_c, 0, 65, 59
1, 71458, Note_off_c, 0, 71, 60
1, 71458, Note_off_c, 0, 62, 54
1, 71472, Control_c, 0, 64, 118
1, 71585, Note_on_c, 0, 62, 53
1, 71595, Note_on_c, 0, 65, 47
1, 71599, Note_on_c, 0, 71, 44
1, 71607, Note_on_c, 0, 43, 34
1, 71633, Note_off_c, 0, 62, 54
1, 71636, Note_off_c, 0, 65, 59
1, 71647, Note_off_c, 0, 71, 50
1, 71691, Note_off_c, 0, 43, 41
1, 71762, Note_on_c, 0, 62, 51
1, 71762, Note_on_c, 0, 65, 50
1, 71780, Note_on_c, 0, 71, 41
1, 71794, Note_off_c, 0, 62, 52
1, 71804, Note_off_c, 0, 65, 60
1, 71814, Note_off_c, 0, 71, 51
1, 71836, Control_c, 0, 64, 119
1, 71895, Control_c, 0, 64, 119
1, 71909, Control_c, 0, 64, 120
1, 71923, Control_c, 0, 64, 121
1, 71935, Note_on_c, 0, 55, 45
1, 71938, Control_c, 0, 64, 123
1, 71943, Note_on_c, 0, 62, 49
1, 71950, Note_on_c, 0, 71, 32
1, 71953, Control_c, 0, 64, 124
1, 71953, Note_on_c, 0, 65, 33
1, 71968, Control_c, 0, 64, 125
1, 71977, Note_off_c, 0, 62, 57
1, 71982, Note_off_c, 0, 71, 43
1, 71982, Control_c, 0, 64, 127
1, 71982, Control_c, 0, 67, 123
1, 71983, Note_off_c, 0, 65, 54
1, 71986, Note_off_c, 0, 55, 45
1, 71997, Control_c, 0, 64, 127
1, 71997, Control_c, 0, 67, 113
1, 72012, Control_c, 0, 67, 101
1, 72027, Control_c, 0, 67, 86
1, 72041, Control_c, 0, 67, 73
1, 72056, Control_c, 0, 67, 60
1, 72071, Control_c, 0, 67, 49
1, 72086, Control_c, 0, 67, 40
1, 72099, Note_on_c, 0, 65, 53
1, 72101, Control_c, 0, 67, 34
1, 72109, Note_on_c, 0, 62, 46
1, 72115, Control_c, 0, 67, 30
1, 72130, Control_c, 0, 67, 29
1, 72131, Note_on_c, 0, 60, 32
1, 72145, Control_c, 0, 67, 29
1, 72155, Note_off_c, 0, 62, 56
1, 72157, Note_off_c, 0, 65, 55
1, 72165, Note_off_c, 0, 60, 45
1, 72174, Control_c, 0, 67, 28
1, 72282, Note_on_c, 0, 60, 43
1, 72284, Note_on_c, 0, 62, 51
1, 72289, Note_on_c, 0, 65, 47
1, 72290, Note_on_c, 0, 43, 34
1, 72322, Note_off_c, 0, 65, 53
1, 72326, Note_off_c, 0, 60, 61
1, 72326, Note_off_c, 0, 62, 59
1, 72333, Note_off_c, 0, 43, 47
1, 72447, Note_on_c, 0, 62, 56
1, 72451, Note_on_c, 0, 59, 58
1, 72472, Note_off_c, 0, 59, 62
1, 72482, Note_off_c, 0, 62, 63
1, 72657, Control_c, 0, 67, 29
1, 72672, Control_c, 0, 67, 30
1, 72686, Control_c, 0, 67, 30
1, 72701, Control_c, 0, 67, 31
1, 72716, Control_c, 0, 64, 117
1, 72716, Control_c, 0, 67, 32
1, 72731, Control_c, 0, 64, 96
1, 72731, Control_c, 0, 67, 33
1, 72732, Note_on_c, 0, 48, 52
1, 72739, Note_on_c, 0, 69, 56
1, 72739, Note_on_c, 0, 77, 64
1, 72746, Control_c, 0, 64, 73
1, 72750, Note_on_c, 0, 65, 54
1, 72757, Note_on_c, 0, 74, 46
1, 72761, Control_c, 0, 64, 0
1, 72761, Control_c, 0, 67, 33
1, 72790, Control_c, 0, 64, 37
1, 72805, Control_c, 0, 64, 68
1, 72820, Control_c, 0, 64, 79
1, 72828, Note_off_c, 0, 48, 65
1, 72835, Control_c, 0, 64, 93
1, 72850, Control_c, 0, 64, 108
1, 72862, Note_off_c, 0, 65, 62
1, 72864, Control_c, 0, 64, 117
1, 72864, Control_c, 0, 67, 33
1, 72869, Note_off_c, 0, 69, 63
1, 72879, Control_c, 0, 64, 123
1, 72879, Control_c, 0, 67, 32
1, 72891, Note_off_c, 0, 74, 63
1, 72894, Control_c, 0, 64, 127
1, 72910, Note_off_c, 0, 77, 60
1, 72965, Note_on_c, 0, 62, 49
1, 72966, Note_on_c, 0, 57, 48
1, 72972, Note_on_c, 0, 65, 48
1, 72997, Note_off_c, 0, 65, 60
1, 73001, Note_off_c, 0, 62, 56
1, 73005, Note_off_c, 0, 57, 60
1, 73116, Note_on_c, 0, 79, 73
1, 73125, Note_on_c, 0, 67, 71
1, 73137, Note_on_c, 0, 62, 46
1, 73139, Note_on_c, 0, 57, 43
1, 73144, Note_on_c, 0, 65, 39
1, 73176, Note_off_c, 0, 62, 55
1, 73180, Note_off_c, 0, 65, 57
1, 73187, Note_off_c, 0, 57, 60
1, 73239, Note_off_c, 0, 67, 57
1, 73263, Note_off_c, 0, 79, 57
1, 73271, Control_c, 0, 67, 32
1, 73294, Note_on_c, 0, 62, 51
1, 73299, Note_on_c, 0, 57, 45
1, 73299, Note_on_c, 0, 65, 47
1, 73301, Control_c, 0, 67, 31
1, 73333, Note_off_c, 0, 65, 54
1, 73345, Note_off_c, 0, 62, 54
1, 73345, Control_c, 0, 67, 32
1, 73348, Note_off_c, 0, 57, 56
1, 73360, Control_c, 0, 67, 32
1, 73375, Control_c, 0, 67, 33
1, 73391, Control_c, 0, 67, 34
1, 73405, Control_c, 0, 67, 35
1, 73420, Control_c, 0, 64, 108
1, 73420, Control_c, 0, 67, 35
1, 73435, Control_c, 0, 64, 90
1, 73435, Control_c, 0, 67, 36
1, 73450, Control_c, 0, 64, 78
1, 73455, Note_on_c, 0, 67, 72
1, 73456, Note_on_c, 0, 79, 76
1, 73461, Note_on_c, 0, 76, 60
1, 73465, Control_c, 0, 64, 73
1, 73467, Note_on_c, 0, 74, 56
1, 73473, Note_on_c, 0, 57, 44
1, 73475, Note_on_c, 0, 65, 47
1, 73476, Note_on_c, 0, 62, 45
1, 73479, Control_c, 0, 64, 75
1, 73494, Control_c, 0, 64, 82
1, 73509, Control_c, 0, 64, 93
1, 73509, Control_c, 0, 67, 35
1, 73524, Control_c, 0, 64, 107
1, 73524, Control_c, 0, 67, 35
1, 73528, Note_off_c, 0, 65, 64
1, 73536, Note_off_c, 0, 62, 56
1, 73539, Control_c, 0, 64, 115
1, 73539, Control_c, 0, 67, 34
1, 73554, Control_c, 0, 64, 119
1, 73554, Control_c, 0, 67, 33
1, 73559, Note_off_c, 0, 57, 52
1, 73569, Control_c, 0, 64, 124
1, 73572, Note_off_c, 0, 67, 54
1, 73584, Control_c, 0, 64, 127
1, 73602, Note_off_c, 0, 79, 60
1, 73640, Note_on_c, 0, 67, 62
1, 73644, Note_off_c, 0, 76, 60
1, 73648, Note_on_c, 0, 62, 58
1, 73653, Note_on_c, 0, 57, 42
1, 73680, Note_off_c, 0, 67, 58
1, 73689, Note_off_c, 0, 62, 57
1, 73703, Note_off_c, 0, 57, 55
1, 73747, Control_c, 0, 67, 34
1, 73756, Note_off_c, 0, 74, 21
1, 73776, Control_c, 0, 67, 34
1, 73791, Control_c, 0, 67, 35
1, 73819, Note_on_c, 0, 80, 87
1, 73819, Note_on_c, 0, 68, 80
1, 73828, Note_on_c, 0, 67, 57
1, 73832, Note_on_c, 0, 57, 47
1, 73842, Note_on_c, 0, 62, 44
1, 73863, Note_off_c, 0, 67, 64
1, 73889, Note_off_c, 0, 62, 57
1, 73908, Note_off_c, 0, 57, 53
1, 73976, Control_c, 0, 67, 34
1, 73998, Note_on_c, 0, 65, 45
1, 73998, Note_on_c, 0, 62, 50
1, 74001, Note_on_c, 0, 57, 40
1, 74026, Note_off_c, 0, 65, 54
1, 74028, Note_off_c, 0, 62, 51
1, 74031, Note_off_c, 0, 57, 58
1, 74035, Control_c, 0, 67, 34
1, 74037, Note_off_c, 0, 68, 60
1, 74048, Note_off_c, 0, 80, 58
1, 74094, Control_c, 0, 67, 33
1, 74153, Control_c, 0, 67, 34
1, 74169, Control_c, 0, 67, 35
1, 74185, Control_c, 0, 67, 36
1, 74200, Control_c, 0, 67, 37
1, 74201, Note_on_c, 0, 80, 73
1, 74209, Note_on_c, 0, 68, 64
1, 74209, Note_on_c, 0, 77, 63
1, 74215, Control_c, 0, 67, 39
1, 74224, Note_on_c, 0, 74, 53
1, 74225, Note_on_c, 0, 53, 53
1, 74228, Note_on_c, 0, 57, 34
1, 74228, Note_on_c, 0, 65, 52
1, 74229, Control_c, 0, 64, 121
1, 74229, Control_c, 0, 67, 42
1, 74244, Control_c, 0, 64, 94
1, 74244, Control_c, 0, 67, 48
1, 74259, Control_c, 0, 64, 73
1, 74259, Control_c, 0, 67, 55
1, 74274, Control_c, 0, 64, 39
1, 74274, Control_c, 0, 67, 64
1, 74289, Control_c, 0, 64, 46
1, 74289, Control_c, 0, 67, 73
1, 74293, Note_off_c, 0, 65, 62
1, 74303, Control_c, 0, 64, 67
1, 74303, Control_c, 0, 67, 80
1, 74316, Note_off_c, 0, 57, 55
1, 74318, Control_c, 0, 64, 77
1, 74318, Control_c, 0, 67, 85
1, 74326, Note_off_c, 0, 53, 58
1, 74333, Control_c, 0, 64, 91
1, 74333, Control_c, 0, 67, 90
1, 74348, Control_c, 0, 64, 104
1, 74348, Control_c, 0, 67, 98
1, 74363, Control_c, 0, 64, 114
1, 74363, Control_c, 0, 67, 107
1, 74377, Control_c, 0, 64, 122
1, 74377, Control_c, 0, 67, 117
1, 74386, Note_off_c, 0, 68, 63
1, 74392, Control_c, 0, 64, 127
1, 74392, Control_c, 0, 67, 127
1, 74403, Note_on_c, 0, 53, 31
1, 74405, Note_on_c, 0, 64, 56
1, 74421, Note_on_c, 0, 57, 37
1, 74424, Note_off_c, 0, 77, 50
1, 74424, Note_off_c, 0, 80, 63
1, 74445, Note_off_c, 0, 64, 59
1, 74463, Note_off_c, 0, 57, 58
1, 74469, Note_off_c, 0, 53, 58
1, 74590, Note_on_c, 0, 81, 73
1, 74599, Note_on_c, 0, 69, 63
1, 74603, Note_on_c, 0, 64, 48
1, 74605, Note_off_c, 0, 74, 0
1, 74617, Note_on_c, 0, 53, 43
1, 74617, Note_on_c, 0, 57, 33
1, 74630, Note_off_c, 0, 64, 58
1, 74642, Poly_aftertouch_c, 0, 74, 127
1, 74671, Note_off_c, 0, 53, 61
1, 74673, Note_off_c, 0, 57, 56
1, 74781, Note_on_c, 0, 62, 55
1, 74782, Poly_aftertouch_c, 0, 74, 0
1, 74787, Note_on_c, 0, 57, 51
1, 74804, Note_off_c, 0, 62, 62
1, 74805, Note_off_c, 0, 69, 54
1, 74806, Note_on_c, 0, 53, 36
1, 74821, Note_off_c, 0, 57, 63
1, 74821, Note_off_c, 0, 81, 50
1, 74832, Note_off_c, 0, 53, 59
1, 75096, Control_c, 0, 64, 122
1, 75101, Note_on_c, 0, 81, 64
1, 75106, Note_on_c, 0, 47, 50
1, 75107, Note_on_c, 0, 77, 54
1, 75111, Note_on_c, 0, 69, 48
1, 75111, Control_c, 0, 64, 100
1, 75122, Note_on_c, 0, 74, 42
1, 75126, Control_c, 0, 64, 81
1, 75140, Control_c, 0, 64, 50
1, 75155, Control_c, 0, 64, 0
1, 75170, Control_c, 0, 64, 42
1, 75184, Control_c, 0, 64, 69
1, 75199, Control_c, 0, 64, 81
1, 75211, Note_off_c, 0, 47, 64
1, 75214, Control_c, 0, 64, 96
1, 75229, Control_c, 0, 64, 109
1, 75244, Control_c, 0, 64, 118
1, 75259, Control_c, 0, 64, 121
1, 75274, Control_c, 0, 64, 124
1, 75289, Control_c, 0, 64, 127
1, 75293, Note_off_c, 0, 69, 63
1, 75293, Note_off_c, 0, 81, 59
1, 75313, Note_off_c, 0, 77, 58
1, 75313, Note_off_c, 0, 74, 63
1, 75363, Note_on_c, 0, 62, 44
1, 75367, Note_on_c, 0, 55, 43
1, 75369, Note_on_c, 0, 65, 39
1, 75409, Note_off_c, 0, 62, 56
1, 75411, Note_off_c, 0, 65, 52
1, 75420, Note_off_c, 0, 55, 45
1, 75535, Note_on_c, 0, 65, 47
1, 75540, Note_on_c, 0, 55, 45
1, 75542, Note_on_c, 0, 62, 44
1, 75572, Note_off_c, 0, 65, 51
1, 75578, Note_off_c, 0, 55, 55
1, 75579, Note_off_c, 0, 62, 52
1, 75694, Note_on_c, 0, 65, 49
1, 75694, Note_on_c, 0, 62, 55
1, 75699, Note_on_c, 0, 55, 44
1, 75714, Note_off_c, 0, 65, 64
1, 75733, Note_off_c, 0, 62, 60
1, 75752, Note_off_c, 0, 55, 58
1, 75899, Note_on_c, 0, 74, 56
1, 75906, Note_on_c, 0, 65, 55
1, 75916, Note_on_c, 0, 62, 56
1, 75927, Note_on_c, 0, 71, 44
1, 75936, Note_off_c, 0, 74, 60
1, 75951, Note_off_c, 0, 62, 61
1, 75952, Note_off_c, 0, 71, 60
1, 75962, Note_off_c, 0, 65, 63
1, 76100, Note_on_c, 0, 59, 50
1, 76103, Note_on_c, 0, 62, 44
1, 76105, Note_on_c, 0, 65, 38
1, 76135, Note_off_c, 0, 59, 48
1, 76141, Note_off_c, 0, 62, 49
1, 76145, Note_off_c, 0, 65, 51
1, 76276, Note_on_c, 0, 65, 56
1, 76281, Note_on_c, 0, 43, 46
1, 76285, Note_on_c, 0, 62, 45
1, 76288, Note_on_c, 0, 59, 44
1, 76316, Note_off_c, 0, 59, 54
1, 76324, Note_off_c, 0, 62, 52
1, 76324, Note_off_c, 0, 65, 59
1, 76395, Note_off_c, 0, 43, 37
1, 76436, Note_on_c, 0, 62, 52
1, 76437, Note_on_c, 0, 59, 41
1, 76451, Note_on_c, 0, 65, 52
1, 76474, Note_off_c, 0, 59, 48
1, 76476, Note_off_c, 0, 62, 57
1, 76485, Note_off_c, 0, 65, 62
1, 76600, Note_on_c, 0, 55, 54
1, 76605, Note_on_c, 0, 59, 51
1, 76605, Note_on_c, 0, 65, 48
1, 76612, Note_on_c, 0, 62, 45
1, 76625, Note_off_c, 0, 55, 63
1, 76628, Note_off_c, 0, 65, 64
1, 76631, Note_off_c, 0, 59, 60
1, 76639, Note_off_c, 0, 62, 57
1, 76758, Note_on_c, 0, 62, 54
1, 76776, Note_on_c, 0, 59, 34
1, 76779, Note_on_c, 0, 53, 51
1, 76807, Note_off_c, 0, 53, 56
1, 76816, Note_off_c, 0, 59, 47
1, 76821, Note_off_c, 0, 62, 49
1, 76925, Note_on_c, 0, 53, 57
1, 76928, Note_on_c, 0, 43, 60
1, 76939, Note_on_c, 0, 59, 42
1, 76945, Note_on_c, 0, 62, 51
1, 76956, Note_off_c, 0, 53, 65
1, 76958, Note_off_c, 0, 43, 62
1, 76967, Note_off_c, 0, 59, 55
1, 76976, Note_off_c, 0, 62, 58
1, 77001, Control_c, 0, 67, 126
1, 77016, Control_c, 0, 67, 115
1, 77030, Control_c, 0, 67, 102
1, 77045, Control_c, 0, 67, 88
1, 77060, Control_c, 0, 67, 72
1, 77075, Control_c, 0, 67, 56
1, 77090, Control_c, 0, 67, 43
1, 77100, Note_on_c, 0, 36, 60
1, 77103, Note_on_c, 0, 59, 44
1, 77103, Note_on_c, 0, 65, 57
1, 77104, Control_c, 0, 67, 35
1, 77119, Control_c, 0, 67, 30
1, 77134, Control_c, 0, 67, 25
1, 77144, Note_off_c, 0, 59, 60
1, 77149, Control_c, 0, 67, 20
1, 77164, Control_c, 0, 67, 14
1, 77178, Note_off_c, 0, 65, 64
1, 77179, Control_c, 0, 67, 0
1, 77190, Poly_aftertouch_c, 0, 62, 0
1, 77197, Note_off_c, 0, 36, 63
1, 77200, Note_on_c, 0, 48, 69
1, 77277, Note_off_c, 0, 48, 64
1, 77393, Note_on_c, 0, 53, 75
1, 77476, Control_c, 0, 64, 107
1, 77491, Control_c, 0, 64, 86
1, 77506, Control_c, 0, 64, 65
1, 77520, Control_c, 0, 64, 0
1, 77565, Control_c, 0, 64, 60
1, 77579, Control_c, 0, 64, 74
1, 77587, Note_on_c, 0, 65, 41
1, 77594, Control_c, 0, 64, 87
1, 77595, Note_on_c, 0, 74, 44
1, 77608, Note_on_c, 0, 69, 37
1, 77609, Control_c, 0, 64, 104
1, 77624, Control_c, 0, 64, 116
1, 77628, Note_off_c, 0, 65, 50
1, 77639, Control_c, 0, 64, 125
1, 77652, Note_off_c, 0, 69, 54
1, 77658, Note_off_c, 0, 74, 54
1, 77661, Control_c, 0, 64, 127
1, 77778, Note_on_c, 0, 65, 51
1, 77781, Note_on_c, 0, 69, 50
1, 77787, Note_on_c, 0, 48, 43
1, 77792, Note_on_c, 0, 50, 45
1, 77795, Note_on_c, 0, 74, 43
1, 77810, Note_off_c, 0, 65, 66
1, 77832, Note_off_c, 0, 69, 60
1, 77834, Note_off_c, 0, 74, 59
1, 77925, Note_on_c, 0, 77, 56
1, 77939, Note_on_c, 0, 69, 44
1, 77961, Note_off_c, 0, 69, 58
1, 77966, Note_on_c, 0, 74, 8
1, 77977, Note_off_c, 0, 77, 49
1, 78009, Note_off_c, 0, 74, 39
1, 78130, Note_on_c, 0, 55, 76
1, 78195, Control_c, 0, 64, 123
1, 78210, Control_c, 0, 64, 91
1, 78225, Control_c, 0, 64, 70
1, 78240, Control_c, 0, 64, 0
1, 78270, Control_c, 0, 64, 42
1, 78285, Control_c, 0, 64, 67
1, 78294, Note_off_c, 0, 50, 38
1, 78294, Note_off_c, 0, 53, 30
1, 78299, Control_c, 0, 64, 80
1, 78302, Note_on_c, 0, 69, 62
1, 78314, Note_on_c, 0, 77, 55
1, 78314, Control_c, 0, 64, 94
1, 78317, Note_on_c, 0, 74, 49
1, 78325, Note_off_c, 0, 48, 41
1, 78329, Control_c, 0, 64, 107
1, 78344, Control_c, 0, 64, 117
1, 78345, Note_off_c, 0, 69, 55
1, 78359, Control_c, 0, 64, 123
1, 78360, Note_off_c, 0, 74, 58
1, 78370, Note_off_c, 0, 77, 50
1, 78374, Control_c, 0, 64, 127
1, 78470, Note_on_c, 0, 48, 52
1, 78476, Note_on_c, 0, 50, 50
1, 78479, Note_on_c, 0, 69, 60
1, 78499, Note_on_c, 0, 74, 45
1, 78511, Note_on_c, 0, 77, 46
1, 78511, Note_off_c, 0, 69, 68
1, 78536, Note_off_c, 0, 74, 63
1, 78543, Note_off_c, 0, 77, 54
1, 78587, Note_off_c, 0, 55, 53
1, 78641, Note_on_c, 0, 81, 62
1, 78644, Note_on_c, 0, 74, 51
1, 78654, Note_on_c, 0, 77, 47
1, 78695, Note_off_c, 0, 77, 46
1, 78762, Note_off_c, 0, 81, 35
1, 78790, Note_off_c, 0, 74, 22
1, 78824, Note_on_c, 0, 57, 85
1, 78855, Control_c, 0, 64, 102
1, 78869, Control_c, 0, 64, 83
1, 78884, Control_c, 0, 64, 63
1, 78899, Control_c, 0, 64, 39
1, 78914, Control_c, 0, 64, 63
1, 78928, Control_c, 0, 64, 71
1, 78943, Control_c, 0, 64, 81
1, 78958, Control_c, 0, 64, 96
1, 78974, Control_c, 0, 64, 110
1, 78982, Note_on_c, 0, 69, 62
1, 78989, Note_on_c, 0, 77, 59
1, 78989, Control_c, 0, 64, 120
1, 78996, Note_on_c, 0, 74, 45
1, 79004, Control_c, 0, 64, 127
1, 79018, Note_off_c, 0, 50, 50
1, 79021, Note_off_c, 0, 69, 55
1, 79036, Note_off_c, 0, 74, 62
1, 79056, Note_off_c, 0, 48, 42
1, 79057, Note_off_c, 0, 77, 53
1, 79149, Note_on_c, 0, 48, 60
1, 79152, Note_on_c, 0, 50, 56
1, 79155, Note_off_c, 0, 57, 62
1, 79161, Note_on_c, 0, 69, 59
1, 79173, Note_on_c, 0, 74, 48
1, 79180, Note_on_c, 0, 77, 50
1, 79191, Note_off_c, 0, 69, 67
1, 79192, Note_off_c, 0, 50, 63
1, 79195, Note_off_c, 0, 48, 63
1, 79211, Note_off_c, 0, 74, 64
1, 79219, Note_off_c, 0, 77, 59
1, 79298, Note_on_c, 0, 81, 56
1, 79323, Note_on_c, 0, 74, 34
1, 79328, Note_off_c, 0, 81, 55
1, 79354, Note_off_c, 0, 74, 52
1, 79401, Note_on_c, 0, 47, 79
1, 79408, Note_on_c, 0, 35, 68
1, 79466, Note_off_c, 0, 35, 63
1, 79507, Note_off_c, 0, 47, 62
1, 79655, Note_on_c, 0, 57, 76
1, 79736, Control_c, 0, 64, 104
1, 79751, Control_c, 0, 64, 83
1, 79766, Control_c, 0, 64, 61
1, 79781, Control_c, 0, 64, 0
1, 79811, Control_c, 0, 64, 44
1, 79826, Control_c, 0, 64, 70
1, 79838, Note_on_c, 0, 69, 54
1, 79841, Control_c, 0, 64, 82
1, 79841, Note_on_c, 0, 77, 51
1, 79853, Note_on_c, 0, 74, 40
1, 79856, Control_c, 0, 64, 96
1, 79868, Note_off_c, 0, 69, 61
1, 79870, Control_c, 0, 64, 108
1, 79885, Control_c, 0, 64, 117
1, 79889, Note_off_c, 0, 74, 61
1, 79902, Note_off_c, 0, 77, 52
1, 79908, Control_c, 0, 64, 121
1, 79922, Control_c, 0, 64, 127
1, 80005, Note_on_c, 0, 69, 48
1, 80011, Note_on_c, 0, 74, 49
1, 80022, Note_on_c, 0, 77, 51
1, 80039, Note_off_c, 0, 69, 63
1, 80051, Note_off_c, 0, 74, 59
1, 80063, Note_off_c, 0, 77, 59
1, 80127, Note_on_c, 0, 62, 65
1, 80133, Note_on_c, 0, 50, 56
1, 80148, Note_off_c, 0, 57, 52
1, 80208, Note_off_c, 0, 62, 54
1, 80209, Note_off_c, 0, 50, 54
1, 80219, Note_on_c, 0, 81, 56
1, 80234, Note_on_c, 0, 74, 38
1, 80237, Note_on_c, 0, 77, 34
1, 80264, Note_off_c, 0, 81, 51
1, 80267, Note_off_c, 0, 74, 53
1, 80278, Note_off_c, 0, 77, 47
1, 80388, Note_on_c, 0, 62, 69
1, 80407, Note_on_c, 0, 50, 52
1, 80426, Control_c, 0, 64, 105
1, 80440, Control_c, 0, 64, 84
1, 80455, Control_c, 0, 64, 61
1, 80470, Control_c, 0, 64, 0
1, 80499, Control_c, 0, 64, 56
1, 80506, Note_off_c, 0, 62, 63
1, 80514, Control_c, 0, 64, 73
1, 80529, Control_c, 0, 64, 87
1, 80544, Control_c, 0, 64, 105
1, 80557, Note_on_c, 0, 67, 64
1, 80558, Note_off_c, 0, 50, 63
1, 80559, Control_c, 0, 64, 119
1, 80568, Note_on_c, 0, 77, 58
1, 80575, Control_c, 0, 64, 124
1, 80586, Note_on_c, 0, 74, 43
1, 80589, Control_c, 0, 64, 126
1, 80604, Control_c, 0, 64, 127
1, 80607, Note_off_c, 0, 67, 49
1, 80625, Note_off_c, 0, 74, 57
1, 80648, Note_off_c, 0, 77, 53
1, 80750, Note_on_c, 0, 67, 69
1, 80752, Note_on_c, 0, 43, 66
1, 80758, Note_on_c, 0, 31, 57
1, 80761, Note_on_c, 0, 74, 49
1, 80763, Note_on_c, 0, 77, 65
1, 80780, Note_off_c, 0, 67, 60
1, 80792, Note_off_c, 0, 31, 62
1, 80797, Note_off_c, 0, 74, 63
1, 80806, Note_off_c, 0, 43, 61
1, 80831, Note_off_c, 0, 77, 53
1, 80908, Note_on_c, 0, 79, 65
1, 80914, Note_on_c, 0, 74, 56
1, 80920, Note_on_c, 0, 77, 43
1, 80944, Note_off_c, 0, 74, 67
1, 80956, Note_off_c, 0, 77, 50
1, 80959, Note_off_c, 0, 79, 54
1, 81063, Note_on_c, 0, 55, 76
1, 81072, Note_on_c, 0, 43, 69
1, 81090, Note_off_c, 0, 55, 68
1, 81138, Note_off_c, 0, 43, 59
1, 81232, Note_on_c, 0, 74, 58
1, 81233, Note_on_c, 0, 71, 56
1, 81237, Note_on_c, 0, 79, 54
1, 81253, Note_on_c, 0, 77, 44
1, 81259, Note_off_c, 0, 71, 57
1, 81267, Note_off_c, 0, 74, 60
1, 81281, Note_off_c, 0, 79, 53
1, 81286, Note_off_c, 0, 77, 54
1, 81388, Note_on_c, 0, 43, 76
1, 81388, Note_on_c, 0, 74, 72
1, 81398, Note_on_c, 0, 31, 71
1, 81403, Note_on_c, 0, 79, 63
1, 81408, Note_on_c, 0, 71, 51
1, 81414, Note_on_c, 0, 77, 51
1, 81430, Note_off_c, 0, 71, 59
1, 81438, Note_off_c, 0, 74, 55
1, 81441, Note_off_c, 0, 31, 63
1, 81441, Note_off_c, 0, 77, 61
1, 81449, Note_off_c, 0, 43, 60
1, 81453, Note_off_c, 0, 79, 58
1, 81550, Note_on_c, 0, 77, 61
1, 81551, Note_on_c, 0, 74, 65
1, 81555, Note_on_c, 0, 83, 54
1, 81569, Note_off_c, 0, 77, 62
1, 81573, Note_off_c, 0, 74, 64
1, 81576, Note_off_c, 0, 83, 60
1, 81814, Note_on_c, 0, 48, 81
1, 81820, Note_on_c, 0, 36, 66
1, 81820, Note_on_c, 0, 53, 81
1, 81820, Note_on_c, 0, 65, 79
1, 81836, Control_c, 0, 64, 102
1, 81851, Control_c, 0, 64, 81
1, 81866, Control_c, 0, 64, 44
1, 81881, Control_c, 0, 64, 0
1, 81920, Note_off_c, 0, 36, 64
1, 81925, Control_c, 0, 64, 64
1, 81939, Control_c, 0, 64, 81
1, 81954, Control_c, 0, 64, 99
1, 81960, Note_off_c, 0, 48, 64
1, 81969, Control_c, 0, 64, 122
1, 81984, Note_off_c, 0, 53, 64
1, 81984, Control_c, 0, 64, 127
1, 82002, Note_on_c, 0, 57, 72
1, 82005, Note_on_c, 0, 62, 73
1, 82030, Note_off_c, 0, 57, 67
1, 82048, Note_off_c, 0, 65, 60
1, 82060, Note_off_c, 0, 62, 62
1, 82192, Note_on_c, 0, 67, 84
1, 82196, Note_on_c, 0, 55, 76
1, 82244, Note_on_c, 0, 65, 11
1, 82245, Note_off_c, 0, 65, 127
1, 82282, Note_off_c, 0, 55, 61
1, 82285, Note_off_c, 0, 67, 59
1, 82364, Note_on_c, 0, 74, 61
1, 82364, Note_on_c, 0, 77, 70
1, 82366, Note_on_c, 0, 67, 66
1, 82396, Note_off_c, 0, 67, 58
1, 82414, Note_off_c, 0, 74, 55
1, 82430, Note_off_c, 0, 77, 60
1, 82605, Note_on_c, 0, 65, 78
1, 82625, Note_on_c, 0, 62, 60
1, 82628, Note_on_c, 0, 56, 57
1, 82689, Control_c, 0, 64, 102
1, 82704, Control_c, 0, 64, 76
1, 82718, Control_c, 0, 64, 0
1, 82762, Control_c, 0, 64, 53
1, 82777, Control_c, 0, 64, 70
1, 82792, Control_c, 0, 64, 81
1, 82807, Control_c, 0, 64, 97
1, 82814, Note_on_c, 0, 80, 65
1, 82822, Control_c, 0, 64, 107
1, 82828, Note_on_c, 0, 74, 56
1, 82836, Control_c, 0, 64, 113
1, 82845, Note_off_c, 0, 62, 53
1, 82846, Note_on_c, 0, 77, 40
1, 82851, Control_c, 0, 64, 116
1, 82853, Note_off_c, 0, 56, 50
1, 82857, Note_off_c, 0, 65, 61
1, 82866, Control_c, 0, 64, 119
1, 82881, Control_c, 0, 64, 122
1, 82903, Control_c, 0, 64, 125
1, 82918, Control_c, 0, 64, 125
1, 82933, Control_c, 0, 64, 126
1, 82948, Control_c, 0, 64, 127
1, 83029, Note_on_c, 0, 69, 65
1, 83031, Note_on_c, 0, 65, 57
1, 83034, Note_on_c, 0, 62, 46
1, 83037, Note_off_c, 0, 74, 36
1, 83038, Control_c, 0, 64, 122
1, 83042, Note_on_c, 0, 57, 48
1, 83053, Control_c, 0, 64, 106
1, 83067, Control_c, 0, 64, 88
1, 83082, Control_c, 0, 64, 70
1, 83087, Note_off_c, 0, 80, 39
1, 83097, Control_c, 0, 64, 0
1, 83111, Note_off_c, 0, 77, 25
1, 83141, Control_c, 0, 64, 61
1, 83155, Control_c, 0, 64, 71
1, 83161, Note_off_c, 0, 65, 64
1, 83170, Control_c, 0, 64, 80
1, 83185, Control_c, 0, 64, 92
1, 83189, Note_off_c, 0, 62, 59
1, 83200, Control_c, 0, 64, 100
1, 83212, Note_off_c, 0, 57, 58
1, 83213, Note_off_c, 0, 69, 63
1, 83215, Control_c, 0, 64, 105
1, 83226, Note_on_c, 0, 81, 58
1, 83230, Control_c, 0, 64, 108
1, 83231, Note_on_c, 0, 74, 48
1, 83236, Note_on_c, 0, 77, 44
1, 83245, Control_c, 0, 64, 111
1, 83257, Note_off_c, 0, 74, 65
1, 83260, Control_c, 0, 64, 116
1, 83262, Note_off_c, 0, 77, 59
1, 83274, Control_c, 0, 64, 120
1, 83277, Note_off_c, 0, 81, 53
1, 83289, Control_c, 0, 64, 122
1, 83304, Control_c, 0, 64, 123
1, 83318, Control_c, 0, 64, 125
1, 83333, Control_c, 0, 64, 127
1, 83348, Control_c, 0, 64, 127
1, 83546, Note_on_c, 0, 74, 63
1, 83555, Note_on_c, 0, 43, 41
1, 83562, Note_on_c, 0, 52, 47
1, 83570, Note_on_c, 0, 40, 46
1, 83585, Control_c, 0, 64, 121
1, 83600, Control_c, 0, 64, 106
1, 83614, Control_c, 0, 64, 88
1, 83629, Control_c, 0, 64, 70
1, 83652, Control_c, 0, 64, 0
1, 83681, Control_c, 0, 64, 64
1, 83696, Control_c, 0, 64, 74
1, 83711, Control_c, 0, 64, 86
1, 83725, Control_c, 0, 64, 97
1, 83740, Control_c, 0, 64, 104
1, 83743, Note_off_c, 0, 52, 64
1, 83752, Note_off_c, 0, 40, 42
1, 83755, Control_c, 0, 64, 108
1, 83769, Note_off_c, 0, 43, 39
1, 83771, Control_c, 0, 64, 109
1, 83783, Note_on_c, 0, 86, 62
1, 83786, Control_c, 0, 64, 111
1, 83801, Control_c, 0, 64, 114
1, 83802, Note_on_c, 0, 83, 46
1, 83815, Control_c, 0, 64, 116
1, 83817, Note_off_c, 0, 74, 59
1, 83830, Control_c, 0, 64, 119
1, 83845, Control_c, 0, 64, 121
1, 83860, Control_c, 0, 64, 125
1, 83875, Control_c, 0, 64, 127
1, 83911, Note_off_c, 0, 86, 37
1, 83935, Control_c, 0, 64, 112
1, 83949, Control_c, 0, 64, 93
1, 83954, Note_on_c, 0, 53, 56
1, 83954, Note_on_c, 0, 72, 78
1, 83957, Note_off_c, 0, 83, 36
1, 83959, Note_on_c, 0, 41, 53
1, 83960, Note_on_c, 0, 45, 50
1, 83964, Control_c, 0, 64, 77
1, 83979, Control_c, 0, 64, 64
1, 83994, Control_c, 0, 64, 63
1, 84009, Control_c, 0, 64, 70
1, 84023, Control_c, 0, 64, 79
1, 84038, Control_c, 0, 64, 90
1, 84053, Control_c, 0, 64, 99
1, 84056, Note_off_c, 0, 45, 63
1, 84064, Note_off_c, 0, 41, 62
1, 84068, Control_c, 0, 64, 102
1, 84079, Note_off_c, 0, 53, 60
1, 84083, Control_c, 0, 64, 103
1, 84097, Control_c, 0, 64, 104
1, 84112, Control_c, 0, 64, 105
1, 84118, Note_on_c, 0, 84, 58
1, 84124, Note_on_c, 0, 81, 57
1, 84127, Control_c, 0, 64, 107
1, 84139, Note_off_c, 0, 72, 60
1, 84142, Control_c, 0, 64, 110
1, 84157, Control_c, 0, 64, 112
1, 84172, Control_c, 0, 64, 114
1, 84187, Control_c, 0, 64, 116
1, 84202, Control_c, 0, 64, 117
1, 84223, Note_off_c, 0, 84, 57
1, 84246, Control_c, 0, 64, 109
1, 84261, Control_c, 0, 64, 94
1, 84268, Note_on_c, 0, 55, 63
1, 84271, Note_on_c, 0, 43, 60
1, 84272, Note_on_c, 0, 47, 57
1, 84276, Control_c, 0, 64, 78
1, 84278, Note_on_c, 0, 71, 75
1, 84290, Control_c, 0, 64, 65
1, 84301, Note_off_c, 0, 81, 43
1, 84305, Control_c, 0, 64, 61
1, 84320, Control_c, 0, 64, 67
1, 84334, Control_c, 0, 64, 77
1, 84349, Control_c, 0, 64, 87
1, 84364, Control_c, 0, 64, 96
1, 84370, Note_off_c, 0, 47, 62
1, 84379, Control_c, 0, 64, 100
1, 84381, Note_off_c, 0, 43, 58
1, 84399, Note_off_c, 0, 55, 62
1, 84401, Control_c, 0, 64, 103
1, 84416, Control_c, 0, 64, 104
1, 84431, Control_c, 0, 64, 106
1, 84439, Note_on_c, 0, 83, 59
1, 84446, Note_on_c, 0, 79, 60
1, 84446, Control_c, 0, 64, 108
1, 84461, Control_c, 0, 64, 109
1, 84461, Note_off_c, 0, 71, 54
1, 84476, Control_c, 0, 64, 110
1, 84490, Control_c, 0, 64, 112
1, 84505, Control_c, 0, 64, 113
1, 84520, Control_c, 0, 64, 117
1, 84535, Control_c, 0, 64, 120
1, 84538, Note_off_c, 0, 83, 50
1, 84549, Control_c, 0, 64, 121
1, 84566, Note_off_c, 0, 79, 56
1, 84580, Control_c, 0, 64, 120
1, 84589, Note_on_c, 0, 57, 69
1, 84595, Note_on_c, 0, 69, 81
1, 84595, Control_c, 0, 64, 108
1, 84597, Note_on_c, 0, 45, 61
1, 84598, Note_on_c, 0, 48, 59
1, 84610, Control_c, 0, 64, 94
1, 84625, Control_c, 0, 64, 78
1, 84639, Control_c, 0, 64, 70
1, 84668, Control_c, 0, 64, 76
1, 84683, Control_c, 0, 64, 86
1, 84698, Control_c, 0, 64, 97
1, 84705, Note_off_c, 0, 48, 63
1, 84712, Control_c, 0, 64, 105
1, 84714, Note_off_c, 0, 45, 59
1, 84727, Note_off_c, 0, 69, 62
1, 84727, Control_c, 0, 64, 109
1, 84729, Note_on_c, 0, 81, 69
1, 84735, Note_on_c, 0, 77, 67
1, 84738, Note_off_c, 0, 57, 58
1, 84742, Control_c, 0, 64, 111
1, 84757, Control_c, 0, 64, 115
1, 84771, Control_c, 0, 64, 121
1, 84785, Note_off_c, 0, 77, 54
1, 84786, Control_c, 0, 64, 127
1, 84810, Note_off_c, 0, 81, 57
1, 84971, Note_on_c, 0, 77, 87
1, 84983, Note_on_c, 0, 47, 56
1, 84984, Note_on_c, 0, 59, 57
1, 84996, Note_on_c, 0, 50, 47
1, 85009, Control_c, 0, 64, 118
1, 85024, Control_c, 0, 64, 97
1, 85038, Control_c, 0, 64, 77
1, 85053, Control_c, 0, 64, 41
1, 85068, Control_c, 0, 64, 0
1, 85098, Control_c, 0, 64, 68
1, 85112, Control_c, 0, 64, 78
1, 85127, Control_c, 0, 64, 91
1, 85128, Note_off_c, 0, 50, 62
1, 85144, Note_off_c, 0, 47, 59
1, 85150, Control_c, 0, 64, 102
1, 85164, Control_c, 0, 64, 109
1, 85165, Note_off_c, 0, 59, 57
1, 85166, Note_on_c, 0, 89, 67
1, 85174, Note_on_c, 0, 86, 61
1, 85179, Control_c, 0, 64, 112
1, 85194, Control_c, 0, 64, 115
1, 85209, Control_c, 0, 64, 120
1, 85211, Note_off_c, 0, 77, 58
1, 85224, Control_c, 0, 64, 125
1, 85238, Control_c, 0, 64, 127
1, 85253, Control_c, 0, 64, 127
1, 85284, Note_off_c, 0, 89, 59
1, 85290, Note_off_c, 0, 86, 58
1, 85328, Note_on_c, 0, 60, 65
1, 85328, Note_on_c, 0, 76, 84
1, 85334, Note_on_c, 0, 48, 62
1, 85334, Note_on_c, 0, 52, 59
1, 85342, Control_c, 0, 64, 108
1, 85357, Control_c, 0, 64, 91
1, 85373, Control_c, 0, 64, 75
1, 85387, Control_c, 0, 64, 65
1, 85401, Control_c, 0, 64, 68
1, 85416, Control_c, 0, 64, 75
1, 85431, Control_c, 0, 64, 84
1, 85442, Note_off_c, 0, 52, 63
1, 85446, Control_c, 0, 64, 93
1, 85448, Note_off_c, 0, 48, 60
1, 85460, Control_c, 0, 64, 98
1, 85474, Note_off_c, 0, 60, 56
1, 85475, Control_c, 0, 64, 99
1, 85483, Note_on_c, 0, 88, 66
1, 85487, Note_on_c, 0, 84, 64
1, 85490, Control_c, 0, 64, 100
1, 85504, Note_off_c, 0, 76, 62
1, 85505, Control_c, 0, 64, 101
1, 85520, Control_c, 0, 64, 103
1, 85534, Control_c, 0, 64, 107
1, 85549, Control_c, 0, 64, 110
1, 85564, Control_c, 0, 64, 113
1, 85579, Control_c, 0, 64, 115
1, 85594, Control_c, 0, 64, 116
1, 85611, Note_off_c, 0, 88, 59
1, 85624, Control_c, 0, 64, 115
1, 85638, Control_c, 0, 64, 105
1, 85642, Note_on_c, 0, 74, 83
1, 85643, Note_on_c, 0, 62, 69
1, 85650, Note_on_c, 0, 50, 59
1, 85653, Note_on_c, 0, 53, 57
1, 85653, Control_c, 0, 64, 90
1, 85657, Note_off_c, 0, 84, 38
1, 85668, Control_c, 0, 64, 72
1, 85683, Control_c, 0, 64, 61
1, 85698, Control_c, 0, 64, 64
1, 85712, Control_c, 0, 64, 70
1, 85727, Control_c, 0, 64, 79
1, 85742, Control_c, 0, 64, 89
1, 85757, Control_c, 0, 64, 96
1, 85759, Note_off_c, 0, 53, 64
1, 85768, Note_off_c, 0, 50, 60
1, 85772, Control_c, 0, 64, 99
1, 85781, Note_on_c, 0, 86, 70
1, 85785, Note_on_c, 0, 83, 63
1, 85786, Control_c, 0, 64, 100
1, 85791, Note_off_c, 0, 62, 55
1, 85793, Note_off_c, 0, 74, 59
1, 85801, Control_c, 0, 64, 102
1, 85816, Control_c, 0, 64, 103
1, 85831, Control_c, 0, 64, 105
1, 85846, Control_c, 0, 64, 106
1, 85860, Control_c, 0, 64, 107
1, 85875, Control_c, 0, 64, 108
1, 85898, Control_c, 0, 64, 109
1, 85910, Note_off_c, 0, 86, 59
1, 85912, Control_c, 0, 64, 111
1, 85937, Note_off_c, 0, 83, 54
1, 85942, Control_c, 0, 64, 111
1, 85957, Control_c, 0, 64, 100
1, 85957, Note_on_c, 0, 72, 82
1, 85959, Note_on_c, 0, 64, 68
1, 85963, Note_on_c, 0, 52, 62
1, 85966, Note_on_c, 0, 55, 55
1, 85972, Control_c, 0, 64, 85
1, 85986, Control_c, 0, 64, 70
1, 86001, Control_c, 0, 64, 61
1, 86016, Control_c, 0, 64, 65
1, 86031, Control_c, 0, 64, 72
1, 86046, Control_c, 0, 64, 82
1, 86052, Note_off_c, 0, 72, 60
1, 86060, Control_c, 0, 64, 95
1, 86075, Control_c, 0, 64, 102
1, 86077, Note_on_c, 0, 84, 72
1, 86080, Note_on_c, 0, 81, 72
1, 86090, Control_c, 0, 64, 105
1, 86091, Note_off_c, 0, 55, 63
1, 86093, Note_off_c, 0, 52, 63
1, 86104, Note_off_c, 0, 81, 65
1, 86105, Control_c, 0, 64, 107
1, 86107, Note_off_c, 0, 64, 59
1, 86119, Control_c, 0, 64, 109
1, 86130, Note_off_c, 0, 84, 62
1, 86134, Control_c, 0, 64, 112
1, 86149, Control_c, 0, 64, 114
1, 86165, Control_c, 0, 64, 115
1, 86180, Control_c, 0, 64, 116
1, 86195, Control_c, 0, 64, 117
1, 86239, Control_c, 0, 64, 117
1, 86283, Control_c, 0, 64, 118
1, 86328, Control_c, 0, 64, 117
1, 86331, Note_on_c, 0, 91, 89
1, 86334, Note_on_c, 0, 79, 85
1, 86336, Note_on_c, 0, 88, 80
1, 86342, Control_c, 0, 64, 102
1, 86345, Note_on_c, 0, 53, 63
1, 86345, Note_on_c, 0, 65, 63
1, 86347, Note_on_c, 0, 57, 56
1, 86357, Control_c, 0, 64, 84
1, 86372, Control_c, 0, 64, 65
1, 86387, Control_c, 0, 64, 0
1, 86416, Control_c, 0, 64, 63
1, 86431, Control_c, 0, 64, 74
1, 86446, Control_c, 0, 64, 88
1, 86461, Control_c, 0, 64, 99
1, 86476, Control_c, 0, 64, 104
1, 86489, Note_off_c, 0, 79, 61
1, 86491, Control_c, 0, 64, 106
1, 86491, Note_off_c, 0, 91, 60
1, 86497, Note_off_c, 0, 88, 61
1, 86506, Control_c, 0, 64, 107
1, 86521, Control_c, 0, 64, 109
1, 86530, Note_off_c, 0, 57, 60
1, 86530, Note_off_c, 0, 53, 58
1, 86535, Control_c, 0, 64, 112
1, 86545, Note_off_c, 0, 65, 59
1, 86550, Control_c, 0, 64, 113
1, 86565, Control_c, 0, 64, 113
1, 86580, Note_on_c, 0, 89, 81
1, 86587, Note_on_c, 0, 77, 78
1, 86587, Note_on_c, 0, 86, 74
1, 86595, Control_c, 0, 64, 114
1, 86609, Control_c, 0, 64, 114
1, 86676, Control_c, 0, 64, 115
1, 86681, Note_off_c, 0, 77, 60
1, 86691, Note_off_c, 0, 89, 62
1, 86698, Note_off_c, 0, 86, 60
1, 86735, Control_c, 0, 64, 115
1, 86750, Control_c, 0, 64, 116
1, 86795, Note_on_c, 0, 88, 86
1, 86795, Control_c, 0, 64, 112
1, 86796, Note_on_c, 0, 59, 54
1, 86798, Note_on_c, 0, 76, 88
1, 86798, Note_on_c, 0, 67, 77
1, 86801, Note_on_c, 0, 84, 79
1, 86807, Note_on_c, 0, 55, 69
1, 86810, Control_c, 0, 64, 97
1, 86824, Control_c, 0, 64, 76
1, 86839, Control_c, 0, 64, 42
1, 86854, Control_c, 0, 64, 0
1, 86869, Control_c, 0, 64, 57
1, 86883, Control_c, 0, 64, 70
1, 86887, Note_off_c, 0, 76, 61
1, 86898, Control_c, 0, 64, 79
1, 86902, Note_off_c, 0, 88, 61
1, 86913, Control_c, 0, 64, 91
1, 86914, Note_off_c, 0, 84, 61
1, 86928, Control_c, 0, 64, 98
1, 86942, Control_c, 0, 64, 103
1, 86958, Control_c, 0, 64, 105
1, 86967, Note_off_c, 0, 67, 60
1, 86973, Control_c, 0, 64, 107
1, 86988, Control_c, 0, 64, 110
1, 86989, Note_on_c, 0, 74, 83
1, 86989, Note_on_c, 0, 86, 81
1, 86992, Note_on_c, 0, 83, 74
1, 87001, Note_off_c, 0, 59, 62
1, 87003, Control_c, 0, 64, 113
1, 87014, Note_off_c, 0, 74, 64
1, 87018, Control_c, 0, 64, 114
1, 87025, Note_off_c, 0, 55, 62
1, 87032, Control_c, 0, 64, 115
1, 87039, Note_off_c, 0, 83, 60
1, 87047, Control_c, 0, 64, 116
1, 87062, Control_c, 0, 64, 116
1, 87063, Note_off_c, 0, 86, 62
1, 87092, Control_c, 0, 64, 117
1, 87151, Control_c, 0, 64, 117
1, 87225, Control_c, 0, 64, 117
1, 87239, Control_c, 0, 64, 111
1, 87254, Control_c, 0, 64, 95
1, 87257, Note_on_c, 0, 93, 88
1, 87258, Note_on_c, 0, 59, 67
1, 87260, Note_on_c, 0, 89, 87
1, 87263, Note_on_c, 0, 55, 63
1, 87269, Control_c, 0, 64, 75
1, 87284, Control_c, 0, 64, 0
1, 87344, Control_c, 0, 64, 55
1, 87358, Control_c, 0, 64, 70
1, 87368, Note_off_c, 0, 89, 62
1, 87373, Control_c, 0, 64, 79
1, 87395, Control_c, 0, 64, 91
1, 87408, Note_off_c, 0, 55, 57
1, 87410, Control_c, 0, 64, 97
1, 87416, Note_off_c, 0, 59, 57
1, 87417, Note_on_c, 0, 91, 77
1, 87418, Note_on_c, 0, 60, 71
1, 87419, Note_on_c, 0, 57, 64
1, 87422, Note_on_c, 0, 88, 82
1, 87425, Control_c, 0, 64, 101
1, 87439, Control_c, 0, 64, 105
1, 87448, Note_off_c, 0, 93, 60
1, 87454, Control_c, 0, 64, 109
1, 87469, Control_c, 0, 64, 113
1, 87484, Control_c, 0, 64, 115
1, 87499, Control_c, 0, 64, 117
1, 87513, Control_c, 0, 64, 118
1, 87525, Note_off_c, 0, 88, 52
1, 87528, Control_c, 0, 64, 119
1, 87543, Control_c, 0, 64, 121
1, 87546, Note_on_c, 0, 59, 68
1, 87552, Note_on_c, 0, 86, 78
1, 87552, Note_on_c, 0, 89, 78
1, 87555, Note_on_c, 0, 62, 71
1, 87558, Note_off_c, 0, 60, 59
1, 87558, Control_c, 0, 64, 123
1, 87565, Note_off_c, 0, 57, 56
1, 87573, Control_c, 0, 64, 124
1, 87576, Note_off_c, 0, 91, 58
1, 87580, Note_off_c, 0, 89, 65
1, 87587, Note_off_c, 0, 59, 62
1, 87588, Control_c, 0, 64, 125
1, 87603, Control_c, 0, 64, 126
1, 87606, Note_off_c, 0, 86, 63
1, 87615, Note_off_c, 0, 62, 62
1, 87665, Note_on_c, 0, 88, 78
1, 87681, Note_on_c, 0, 60, 68
1, 87682, Note_on_c, 0, 84, 75
1, 87686, Note_on_c, 0, 64, 72
1, 87776, Note_off_c, 0, 84, 61
1, 87815, Note_off_c, 0, 88, 58
1, 87816, Note_off_c, 0, 64, 62
1, 87818, Note_on_c, 0, 86, 77
1, 87820, Note_on_c, 0, 65, 77
1, 87825, Note_on_c, 0, 62, 70
1, 87825, Note_on_c, 0, 83, 81
1, 87826, Control_c, 0, 64, 119
1, 87841, Note_off_c, 0, 60, 52
1, 87841, Control_c, 0, 64, 102
1, 87856, Control_c, 0, 64, 84
1, 87871, Control_c, 0, 64, 55
1, 87886, Control_c, 0, 64, 0
1, 87930, Control_c, 0, 64, 64
1, 87945, Control_c, 0, 64, 74
1, 87956, Note_on_c, 0, 81, 82
1, 87957, Note_on_c, 0, 84, 80
1, 87958, Note_on_c, 0, 64, 69
1, 87960, Control_c, 0, 64, 85
1, 87961, Note_off_c, 0, 83, 34
1, 87961, Note_off_c, 0, 65, 63
1, 87962, Note_on_c, 0, 67, 73
1, 87972, Note_off_c, 0, 62, 58
1, 87975, Control_c, 0, 64, 99
1, 87987, Note_off_c, 0, 86, 63
1, 87989, Control_c, 0, 64, 104
1, 88001, Note_off_c, 0, 64, 61
1, 88004, Control_c, 0, 64, 106
1, 88007, Note_off_c, 0, 84, 65
1, 88019, Control_c, 0, 64, 108
1, 88025, Note_off_c, 0, 67, 62
1, 88034, Control_c, 0, 64, 110
1, 88035, Note_off_c, 0, 81, 61
1, 88049, Control_c, 0, 64, 113
1, 88063, Control_c, 0, 64, 114
1, 88078, Control_c, 0, 64, 115
1, 88093, Note_on_c, 0, 83, 78
1, 88093, Control_c, 0, 64, 115
1, 88101, Note_on_c, 0, 65, 68
1, 88102, Note_on_c, 0, 79, 78
1, 88104, Note_on_c, 0, 69, 77
1, 88107, Control_c, 0, 64, 116
1, 88122, Control_c, 0, 64, 116
1, 88145, Control_c, 0, 64, 117
1, 88160, Control_c, 0, 64, 117
1, 88175, Control_c, 0, 64, 118
1, 88189, Control_c, 0, 64, 118
1, 88204, Control_c, 0, 64, 119
1, 88217, Note_off_c, 0, 65, 59
1, 88224, Note_on_c, 0, 71, 73
1, 88224, Note_off_c, 0, 69, 63
1, 88224, Note_off_c, 0, 83, 55
1, 88226, Note_on_c, 0, 81, 77
1, 88228, Note_on_c, 0, 77, 82
1, 88229, Note_on_c, 0, 67, 67
1, 88237, Note_off_c, 0, 79, 47
1, 88322, Control_c, 0, 64, 119
1, 88355, Note_off_c, 0, 77, 55
1, 88367, Control_c, 0, 64, 117
1, 88381, Control_c, 0, 64, 103
1, 88396, Note_on_c, 0, 79, 76
1, 88396, Control_c, 0, 64, 86
1, 88397, Note_on_c, 0, 76, 79
1, 88404, Note_on_c, 0, 69, 75
1, 88404, Note_off_c, 0, 71, 54
1, 88405, Note_on_c, 0, 72, 75
1, 88411, Control_c, 0, 64, 67
1, 88417, Note_off_c, 0, 81, 54
1, 88426, Control_c, 0, 64, 26
1, 88441, Control_c, 0, 64, 57
1, 88453, Note_off_c, 0, 79, 62
1, 88454, Note_off_c, 0, 67, 47
1, 88456, Control_c, 0, 64, 70
1, 88469, Note_off_c, 0, 76, 61
1, 88470, Control_c, 0, 64, 79
1, 88480, Note_off_c, 0, 72, 56
1, 88485, Control_c, 0, 64, 91
1, 88500, Control_c, 0, 64, 99
1, 88512, Note_on_c, 0, 71, 78
1, 88515, Note_on_c, 0, 77, 72
1, 88515, Control_c, 0, 64, 104
1, 88518, Note_on_c, 0, 74, 75
1, 88530, Control_c, 0, 64, 107
1, 88542, Note_off_c, 0, 69, 57
1, 88545, Control_c, 0, 64, 109
1, 88561, Control_c, 0, 64, 111
1, 88575, Note_off_c, 0, 74, 63
1, 88576, Control_c, 0, 64, 113
1, 88591, Control_c, 0, 64, 113
1, 88605, Control_c, 0, 64, 114
1, 88614, Note_on_c, 0, 76, 80
1, 88619, Note_on_c, 0, 72, 75
1, 88620, Control_c, 0, 64, 114
1, 88621, Note_off_c, 0, 77, 51
1, 88628, Note_off_c, 0, 71, 49
1, 88635, Control_c, 0, 64, 115
1, 88650, Control_c, 0, 64, 115
1, 88673, Note_off_c, 0, 72, 59
1, 88680, Control_c, 0, 64, 116
1, 88682, Note_off_c, 0, 76, 56
1, 88694, Control_c, 0, 64, 116
1, 88706, Note_on_c, 0, 71, 76
1, 88709, Control_c, 0, 64, 117
1, 88711, Note_on_c, 0, 74, 71
1, 88714, Note_on_c, 0, 77, 75
1, 88724, Control_c, 0, 64, 117
1, 88734, Note_off_c, 0, 74, 70
1, 88739, Control_c, 0, 64, 118
1, 88754, Control_c, 0, 64, 119
1, 88765, Note_off_c, 0, 77, 62
1, 88768, Control_c, 0, 64, 119
1, 88798, Note_on_c, 0, 69, 81
1, 88798, Control_c, 0, 64, 120
1, 88804, Note_on_c, 0, 72, 72
1, 88809, Note_off_c, 0, 71, 56
1, 88810, Note_on_c, 0, 79, 87
1, 88813, Control_c, 0, 64, 121
1, 88813, Note_on_c, 0, 76, 80
1, 88828, Control_c, 0, 64, 121
1, 88843, Control_c, 0, 64, 122
1, 88857, Note_off_c, 0, 76, 62
1, 88883, Note_off_c, 0, 69, 63
1, 88884, Note_off_c, 0, 72, 54
1, 88906, Note_off_c, 0, 79, 60
1, 88908, Note_on_c, 0, 71, 68
1, 88908, Note_on_c, 0, 77, 72
1, 88909, Note_on_c, 0, 67, 65
1, 88914, Note_on_c, 0, 81, 73
1, 88938, Control_c, 0, 64, 123
1, 88940, Note_off_c, 0, 77, 59
1, 88971, Note_off_c, 0, 71, 53
1, 88972, Note_off_c, 0, 81, 61
1, 88997, Note_on_c, 0, 65, 73
1, 88998, Control_c, 0, 64, 123
1, 89000, Note_on_c, 0, 69, 70
1, 89019, Note_on_c, 0, 79, 79
1, 89019, Note_off_c, 0, 67, 61
1, 89019, Note_on_c, 0, 83, 83
1, 89023, Note_off_c, 0, 69, 72
1, 89025, Note_off_c, 0, 65, 68
1, 89043, Control_c, 0, 64, 124
1, 89058, Note_off_c, 0, 79, 59
1, 89087, Control_c, 0, 64, 125
1, 89091, Note_on_c, 0, 67, 76
1, 89099, Note_on_c, 0, 64, 70
1, 89105, Note_on_c, 0, 81, 74
1, 89109, Note_on_c, 0, 84, 74
1, 89109, Note_off_c, 0, 83, 57
1, 89133, Note_off_c, 0, 81, 60
1, 89161, Note_off_c, 0, 84, 65
1, 89170, Note_off_c, 0, 67, 61
1, 89172, Note_off_c, 0, 64, 61
1, 89175, Note_on_c, 0, 65, 75
1, 89198, Note_on_c, 0, 62, 60
1, 89208, Note_on_c, 0, 86, 91
1, 89210, Note_on_c, 0, 83, 82
1, 89243, Note_off_c, 0, 83, 56
1, 89260, Note_off_c, 0, 65, 54
1, 89264, Control_c, 0, 64, 125
1, 89285, Note_on_c, 0, 64, 77
1, 89286, Note_on_c, 0, 60, 78
1, 89291, Note_on_c, 0, 88, 82
1, 89299, Note_on_c, 0, 84, 75
1, 89304, Note_off_c, 0, 86, 32
1, 89309, Note_off_c, 0, 64, 69
1, 89320, Note_off_c, 0, 62, 60
1, 89320, Note_off_c, 0, 84, 70
1, 89332, Note_off_c, 0, 60, 63
1, 89344, Note_off_c, 0, 88, 64
1, 89391, Note_on_c, 0, 62, 75
1, 89395, Note_on_c, 0, 89, 88
1, 89399, Control_c, 0, 64, 126
1, 89401, Note_on_c, 0, 86, 82
1, 89410, Note_on_c, 0, 59, 68
1, 89426, Note_off_c, 0, 86, 62
1, 89465, Note_off_c, 0, 62, 57
1, 89476, Note_on_c, 0, 91, 84
1, 89481, Note_on_c, 0, 88, 82
1, 89492, Note_off_c, 0, 89, 61
1, 89493, Note_on_c, 0, 60, 76
1, 89504, Note_on_c, 0, 57, 66
1, 89509, Note_off_c, 0, 59, 61
1, 89526, Note_off_c, 0, 88, 63
1, 89532, Note_off_c, 0, 91, 61
1, 89547, Control_c, 0, 64, 123
1, 89548, Note_off_c, 0, 60, 61
1, 89561, Note_off_c, 0, 57, 61
1, 89561, Control_c, 0, 64, 107
1, 89576, Control_c, 0, 64, 86
1, 89591, Control_c, 0, 64, 34
1, 89594, Note_on_c, 0, 93, 97
1, 89599, Note_on_c, 0, 55, 83
1, 89600, Note_on_c, 0, 89, 97
1, 89605, Note_on_c, 0, 59, 83
1, 89606, Control_c, 0, 64, 0
1, 89688, Control_c, 0, 64, 65
1, 89703, Control_c, 0, 64, 79
1, 89717, Control_c, 0, 64, 92
1, 89732, Control_c, 0, 64, 103
1, 89747, Control_c, 0, 64, 107
1, 89757, Note_off_c, 0, 55, 62
1, 89761, Control_c, 0, 64, 109
1, 89763, Note_off_c, 0, 93, 59
1, 89776, Control_c, 0, 64, 110
1, 89781, Note_off_c, 0, 59, 55
1, 89791, Control_c, 0, 64, 113
1, 89806, Control_c, 0, 64, 114
1, 89809, Note_off_c, 0, 89, 62
1, 89821, Control_c, 0, 64, 115
1, 89836, Control_c, 0, 64, 116
1, 89850, Control_c, 0, 64, 116
1, 89865, Control_c, 0, 64, 117
1, 89968, Control_c, 0, 64, 116
1, 89983, Control_c, 0, 64, 110
1, 89998, Control_c, 0, 64, 101
1, 90013, Control_c, 0, 64, 89
1, 90027, Control_c, 0, 64, 76
1, 90042, Control_c, 0, 64, 62
1, 90057, Control_c, 0, 64, 0
1, 90310, Control_c, 0, 64, 48
1, 90324, Note_on_c, 0, 91, 90
1, 90325, Control_c, 0, 64, 72
1, 90325, Note_on_c, 0, 79, 88
1, 90329, Note_on_c, 0, 67, 93
1, 90339, Control_c, 0, 64, 87
1, 90354, Control_c, 0, 64, 114
1, 90369, Control_c, 0, 64, 127
1, 90388, Note_off_c, 0, 79, 58
1, 90449, Note_on_c, 0, 93, 84
1, 90449, Note_off_c, 0, 91, 59
1, 90453, Note_off_c, 0, 67, 60
1, 90459, Note_on_c, 0, 69, 81
1, 90493, Note_off_c, 0, 93, 62
1, 90524, Note_off_c, 0, 69, 63
1, 90533, Note_on_c, 0, 67, 86
1, 90536, Note_on_c, 0, 91, 84
1, 90577, Note_off_c, 0, 67, 61
1, 90579, Note_off_c, 0, 91, 62
1, 90584, Note_on_c, 0, 93, 84
1, 90585, Note_on_c, 0, 69, 72
1, 90609, Note_off_c, 0, 93, 61
1, 90626, Note_off_c, 0, 69, 67
1, 90637, Note_on_c, 0, 67, 73
1, 90643, Note_on_c, 0, 91, 79
1, 90679, Note_off_c, 0, 67, 62
1, 90689, Note_on_c, 0, 69, 73
1, 90693, Note_off_c, 0, 91, 62
1, 90701, Note_on_c, 0, 93, 76
1, 90717, Note_off_c, 0, 93, 65
1, 90736, Note_on_c, 0, 67, 74
1, 90736, Note_off_c, 0, 69, 66
1, 90747, Note_on_c, 0, 91, 74
1, 90776, Note_off_c, 0, 67, 62
1, 90790, Note_on_c, 0, 69, 67
1, 90799, Note_on_c, 0, 93, 74
1, 90799, Note_off_c, 0, 91, 59
1, 90827, Note_off_c, 0, 93, 59
1, 90836, Note_off_c, 0, 69, 66
1, 90837, Note_on_c, 0, 67, 75
1, 90844, Note_on_c, 0, 91, 55
1, 90879, Note_off_c, 0, 67, 59
1, 90894, Note_on_c, 0, 69, 76
1, 90901, Note_off_c, 0, 91, 55
1, 90902, Note_on_c, 0, 93, 83
1, 90925, Note_off_c, 0, 93, 60
1, 90940, Note_on_c, 0, 67, 75
1, 90942, Note_off_c, 0, 69, 65
1, 90957, Note_on_c, 0, 91, 14
1, 90968, Note_off_c, 0, 67, 59
1, 90986, Note_on_c, 0, 69, 66
1, 90999, Note_on_c, 0, 93, 77
1, 91046, Note_on_c, 0, 67, 78
1, 91050, Note_off_c, 0, 93, 52
1, 91064, Note_off_c, 0, 69, 58
1, 91162, Note_on_c, 0, 66, 82
1, 91169, Note_on_c, 0, 90, 86
1, 91178, Note_off_c, 0, 67, 58
1, 91187, Note_off_c, 0, 91, 49
1, 91198, Note_off_c, 0, 66, 66
1, 91206, Note_on_c, 0, 67, 57
1, 91255, Note_off_c, 0, 67, 57
1, 91278, Note_on_c, 0, 67, 67
1, 91285, Note_on_c, 0, 91, 96
1, 91314, Note_off_c, 0, 90, 33
1, 91320, Note_off_c, 0, 67, 65
1, 91332, Note_off_c, 0, 91, 62
1, 91606, Note_on_c, 0, 84, 91
1, 91608, Note_on_c, 0, 79, 86
1, 91609, Note_on_c, 0, 72, 94
1, 91609, Note_on_c, 0, 76, 85
1, 91610, Note_on_c, 0, 64, 92
1, 91612, Note_on_c, 0, 60, 86
1, 91617, Note_on_c, 0, 52, 73
1, 91622, Note_on_c, 0, 55, 69
1, 91645, Control_c, 0, 64, 112
1, 91659, Control_c, 0, 64, 86
1, 91674, Control_c, 0, 64, 61
1, 91689, Control_c, 0, 64, 0
1, 91733, Control_c, 0, 64, 66
1, 91749, Control_c, 0, 64, 81
1, 91764, Control_c, 0, 64, 101
1, 91779, Control_c, 0, 64, 127
1, 91794, Note_off_c, 0, 64, 62
1, 91812, Note_off_c, 0, 60, 61
1, 91845, Note_off_c, 0, 55, 64
1, 91860, Note_off_c, 0, 52, 65
1, 92095, Note_on_c, 0, 48, 93
1, 92100, Note_on_c, 0, 36, 79
1, 92137, Note_off_c, 0, 36, 65
1, 92167, Note_off_c, 0, 48, 63
1, 92229, Note_off_c, 0, 72, 64
1, 92256, Note_off_c, 0, 79, 60
1, 92262, Note_off_c, 0, 76, 60
1, 92301, Note_off_c, 0, 84, 63
1, 92581, Note_on_c, 0, 77, 84
1, 92581, Note_on_c, 0, 84, 87
1, 92582, Note_on_c, 0, 74, 93
1, 92584, Note_on_c, 0, 86, 85
1, 92586, Note_on_c, 0, 62, 95
1, 92586, Note_on_c, 0, 81, 85
1, 92589, Note_on_c, 0, 60, 84
1, 92592, Note_on_c, 0, 53, 75
1, 92593, Note_on_c, 0, 57, 71
1, 92617, Control_c, 0, 64, 107
1, 92639, Control_c, 0, 64, 79
1, 92653, Control_c, 0, 64, 0
1, 92698, Control_c, 0, 64, 63
1, 92712, Control_c, 0, 64, 77
1, 92727, Control_c, 0, 64, 95
1, 92742, Control_c, 0, 64, 123
1, 92748, Note_off_c, 0, 62, 57
1, 92757, Control_c, 0, 64, 127
1, 92760, Note_off_c, 0, 60, 60
1, 92789, Note_off_c, 0, 57, 62
1, 92799, Note_off_c, 0, 53, 64
1, 93043, Note_on_c, 0, 48, 90
1, 93046, Note_on_c, 0, 36, 76
1, 93099, Note_off_c, 0, 36, 62
1, 93118, Note_off_c, 0, 77, 56
1, 93130, Note_off_c, 0, 74, 63
1, 93134, Note_off_c, 0, 48, 63
1, 93153, Note_off_c, 0, 81, 59
1, 93171, Note_off_c, 0, 86, 62
1, 93190, Note_off_c, 0, 84, 62
1, 93484, Note_on_c, 0, 88, 92
1, 93485, Note_on_c, 0, 79, 88
1, 93487, Note_on_c, 0, 76, 97
1, 93487, Note_on_c, 0, 84, 84
1, 93496, Note_on_c, 0, 60, 94
1, 93502, Note_on_c, 0, 52, 79
1, 93503, Note_on_c, 0, 55, 78
1, 93521, Control_c, 0, 64, 93
1, 93535, Control_c, 0, 64, 67
1, 93550, Control_c, 0, 64, 0
1, 93595, Control_c, 0, 64, 67
1, 93609, Control_c, 0, 64, 81
1, 93624, Note_off_c, 0, 60, 57
1, 93624, Control_c, 0, 64, 104
1, 93639, Control_c, 0, 64, 127
1, 93656, Note_off_c, 0, 55, 64
1, 93673, Note_off_c, 0, 52, 65
1, 93925, Note_on_c, 0, 48, 91
1, 93932, Note_on_c, 0, 36, 73
1, 93978, Note_off_c, 0, 36, 62
1, 94017, Note_off_c, 0, 48, 62
1, 94024, Note_off_c, 0, 88, 60
1, 94036, Note_off_c, 0, 76, 61
1, 94040, Note_off_c, 0, 79, 60
1, 94074, Note_off_c, 0, 84, 57
1, 94399, Note_on_c, 0, 86, 91
1, 94401, Note_on_c, 0, 81, 88
1, 94402, Note_on_c, 0, 74, 93
1, 94402, Note_on_c, 0, 77, 82
1, 94403, Control_c, 0, 64, 100
1, 94408, Note_on_c, 0, 62, 93
1, 94410, Note_on_c, 0, 53, 81
1, 94414, Note_on_c, 0, 57, 80
1, 94418, Control_c, 0, 64, 72
1, 94432, Control_c, 0, 64, 0
1, 94477, Control_c, 0, 64, 64
1, 94492, Control_c, 0, 64, 82
1, 94507, Control_c, 0, 64, 109
1, 94522, Control_c, 0, 64, 127
1, 94539, Note_off_c, 0, 86, 63
1, 94548, Note_off_c, 0, 62, 58
1, 94575, Note_off_c, 0, 57, 61
1, 94575, Note_off_c, 0, 81, 61
1, 94575, Note_off_c, 0, 74, 58
1, 94582, Note_off_c, 0, 77, 59
1, 94582, Poly_aftertouch_c, 0, 83, 0
1, 94590, Note_off_c, 0, 53, 65
1, 94857, Note_on_c, 0, 48, 76
1, 94857, Note_on_c, 0, 53, 70
1, 94857, Note_on_c, 0, 57, 66
1, 94878, Note_on_c, 0, 36, 58
1, 94908, Note_off_c, 0, 53, 59
1, 94939, Note_off_c, 0, 57, 58
1, 95246, Note_off_c, 0, 48, 60
1, 95273, Note_on_c, 0, 53, 70
1, 95275, Note_on_c, 0, 62, 70
1, 95279, Note_on_c, 0, 57, 62
1, 95313, Note_off_c, 0, 53, 52
1, 95314, Note_off_c, 0, 36, 38
1, 95317, Note_off_c, 0, 57, 55
1, 95361, Note_off_c, 0, 62, 52
1, 95365, Note_on_c, 0, 48, 69
1, 95455, Note_on_c, 0, 36, 79
1, 95648, Note_on_c, 0, 65, 78
1, 95651, Note_on_c, 0, 57, 78
1, 95656, Note_on_c, 0, 62, 72
1, 95684, Note_off_c, 0, 57, 62
1, 95701, Note_off_c, 0, 62, 57
1, 95723, Note_off_c, 0, 65, 64
1, 95804, Note_off_c, 0, 48, 58
1, 95905, Note_off_c, 0, 36, 63
1, 96009, Note_on_c, 0, 69, 82
1, 96010, Note_on_c, 0, 62, 76
1, 96011, Note_on_c, 0, 65, 75
1, 96109, Note_on_c, 0, 36, 88
1, 96206, Note_on_c, 0, 24, 90
1, 96229, Note_off_c, 0, 62, 58
1, 96281, Note_off_c, 0, 65, 58
1, 96322, Note_off_c, 0, 69, 64
1, 96324, Note_off_c, 0, 24, 62
1, 96377, Note_off_c, 0, 36, 62
1, 96784, Note_on_c, 0, 77, 88
1, 96786, Note_on_c, 0, 86, 88
1, 96787, Note_on_c, 0, 74, 91
1, 96787, Note_on_c, 0, 81, 88
1, 96793, Note_on_c, 0, 65, 91
1, 96796, Control_c, 0, 64, 97
1, 96797, Note_on_c, 0, 62, 84
1, 96798, Note_on_c, 0, 53, 74
1, 96804, Note_on_c, 0, 57, 70
1, 96811, Control_c, 0, 64, 72
1, 96826, Control_c, 0, 64, 0
1, 96870, Control_c, 0, 64, 65
1, 96877, Note_off_c, 0, 65, 63
1, 96885, Control_c, 0, 64, 79
1, 96900, Control_c, 0, 64, 99
1, 96910, Note_off_c, 0, 62, 58
1, 96915, Control_c, 0, 64, 127
1, 96940, Note_off_c, 0, 57, 61
1, 96953, Note_off_c, 0, 53, 66
1, 97204, Note_on_c, 0, 48, 86
1, 97207, Note_on_c, 0, 36, 73
1, 97264, Note_off_c, 0, 36, 62
1, 97291, Note_off_c, 0, 48, 62
1, 97313, Note_off_c, 0, 74, 61
1, 97330, Note_off_c, 0, 77, 58
1, 97349, Note_off_c, 0, 81, 57
1, 97389, Note_off_c, 0, 86, 60
1, 97610, Note_on_c, 0, 79, 82
1, 97610, Note_on_c, 0, 88, 90
1, 97610, Note_on_c, 0, 76, 95
1, 97612, Note_on_c, 0, 84, 80
1, 97616, Note_on_c, 0, 64, 93
1, 97622, Note_on_c, 0, 60, 81
1, 97625, Note_on_c, 0, 55, 80
1, 97649, Control_c, 0, 64, 102
1, 97664, Control_c, 0, 64, 78
1, 97679, Control_c, 0, 64, 48
1, 97693, Control_c, 0, 64, 0
1, 97708, Control_c, 0, 64, 61
1, 97723, Control_c, 0, 64, 73
1, 97727, Note_off_c, 0, 64, 58
1, 97738, Control_c, 0, 64, 89
1, 97747, Note_off_c, 0, 60, 62
1, 97753, Control_c, 0, 64, 106
1, 97768, Control_c, 0, 64, 126
1, 97775, Note_off_c, 0, 55, 63
1, 97783, Control_c, 0, 64, 127
1, 98009, Note_on_c, 0, 48, 85
1, 98015, Note_on_c, 0, 36, 74
1, 98054, Note_off_c, 0, 36, 65
1, 98088, Note_off_c, 0, 48, 64
1, 98104, Note_off_c, 0, 76, 63
1, 98114, Note_off_c, 0, 79, 59
1, 98144, Note_off_c, 0, 84, 63
1, 98164, Note_off_c, 0, 88, 61
1, 98407, Note_on_c, 0, 81, 89
1, 98408, Note_on_c, 0, 77, 97
1, 98408, Note_on_c, 0, 89, 93
1, 98409, Note_on_c, 0, 86, 83
1, 98413, Note_on_c, 0, 62, 97
1, 98418, Note_on_c, 0, 53, 80
1, 98418, Note_on_c, 0, 57, 79
1, 98428, Control_c, 0, 64, 119
1, 98443, Control_c, 0, 64, 89
1, 98443, Control_c, 0, 67, 8
1, 98458, Control_c, 0, 64, 66
1, 98472, Control_c, 0, 64, 0
1, 98472, Control_c, 0, 67, 0
1, 98502, Control_c, 0, 64, 62
1, 98509, Note_off_c, 0, 62, 60
1, 98516, Control_c, 0, 64, 74
1, 98531, Control_c, 0, 64, 89
1, 98537, Note_off_c, 0, 57, 61
1, 98546, Control_c, 0, 64, 107
1, 98555, Note_off_c, 0, 53, 64
1, 98561, Control_c, 0, 64, 127
1, 98806, Note_on_c, 0, 48, 82
1, 98811, Note_on_c, 0, 36, 72
1, 98862, Note_off_c, 0, 36, 63
1, 98906, Note_off_c, 0, 48, 63
1, 98906, Note_off_c, 0, 89, 62
1, 98927, Note_off_c, 0, 77, 49
1, 98936, Note_off_c, 0, 81, 59
1, 98939, Note_off_c, 0, 86, 62
1, 99236, Control_c, 0, 67, 8
1, 99249, Note_on_c, 0, 88, 93
1, 99250, Note_on_c, 0, 76, 89
1, 99251, Control_c, 0, 64, 86
1, 99251, Control_c, 0, 67, 9
1, 99252, Note_on_c, 0, 79, 82
1, 99252, Note_on_c, 0, 84, 80
1, 99254, Note_on_c, 0, 64, 94
1, 99255, Note_on_c, 0, 55, 79
1, 99258, Note_on_c, 0, 60, 80
1, 99265, Control_c, 0, 64, 47
1, 99280, Control_c, 0, 64, 0
1, 99280, Control_c, 0, 67, 9
1, 99295, Control_c, 0, 67, 8
1, 99310, Control_c, 0, 67, 8
1, 99325, Control_c, 0, 64, 64
1, 99325, Control_c, 0, 67, 0
1, 99339, Note_off_c, 0, 88, 62
1, 99339, Control_c, 0, 64, 82
1, 99354, Control_c, 0, 64, 118
1, 99377, Control_c, 0, 64, 127
1, 99392, Note_off_c, 0, 84, 63
1, 99398, Note_off_c, 0, 64, 61
1, 99402, Note_off_c, 0, 76, 63
1, 99407, Note_off_c, 0, 79, 57
1, 99428, Note_off_c, 0, 60, 59
1, 99448, Note_off_c, 0, 55, 57
1, 99656, Note_on_c, 0, 60, 84
1, 99725, Note_off_c, 0, 60, 59
1, 99765, Note_on_c, 0, 48, 83
1, 99866, Note_on_c, 0, 36, 77
1, 100002, Note_on_c, 0, 64, 83
1, 100006, Note_on_c, 0, 55, 84
1, 100006, Note_on_c, 0, 60, 82
1, 100034, Note_off_c, 0, 55, 66
1, 100057, Note_off_c, 0, 36, 63
1, 100060, Note_off_c, 0, 60, 58
1, 100078, Note_off_c, 0, 64, 64
1, 100106, Note_off_c, 0, 48, 62
1, 100402, Note_on_c, 0, 88, 97
1, 100405, Note_on_c, 0, 76, 94
1, 100410, Note_on_c, 0, 67, 96
1, 100451, Note_off_c, 0, 76, 62
1, 100475, Note_off_c, 0, 67, 58
1, 100503, Note_off_c, 0, 88, 55
1, 100778, Control_c, 0, 64, 104
1, 100793, Control_c, 0, 64, 71
1, 100793, Note_on_c, 0, 89, 90
1, 100796, Note_on_c, 0, 77, 94
1, 100799, Note_on_c, 0, 84, 89
1, 100801, Note_on_c, 0, 68, 91
1, 100802, Note_on_c, 0, 72, 96
1, 100806, Note_on_c, 0, 60, 79
1, 100807, Note_on_c, 0, 65, 81
1, 100808, Control_c, 0, 64, 0
1, 100823, Note_on_c, 0, 62, 69
1, 100838, Control_c, 0, 64, 34
1, 100844, Note_off_c, 0, 72, 66
1, 100853, Control_c, 0, 64, 71
1, 100856, Note_off_c, 0, 89, 67
1, 100874, Control_c, 0, 64, 91
1, 100877, Note_off_c, 0, 68, 66
1, 100881, Note_off_c, 0, 77, 62
1, 100884, Note_off_c, 0, 84, 65
1, 100886, Note_off_c, 0, 65, 67
1, 100889, Control_c, 0, 64, 127
1, 100904, Note_off_c, 0, 62, 61
1, 100904, Note_off_c, 0, 60, 61
1, 101187, Note_on_c, 0, 56, 75
1, 101187, Note_on_c, 0, 48, 91
1, 101187, Note_on_c, 0, 53, 77
1, 101189, Note_on_c, 0, 36, 76
1, 101191, Note_on_c, 0, 60, 78
1, 101210, Note_off_c, 0, 53, 70
1, 101222, Note_off_c, 0, 56, 63
1, 101225, Note_off_c, 0, 36, 66
1, 101244, Note_off_c, 0, 48, 65
1, 101246, Note_off_c, 0, 60, 63
1, 101381, Note_on_c, 0, 86, 94
1, 101384, Note_on_c, 0, 74, 91
1, 101396, Note_on_c, 0, 62, 74
1, 101400, Note_on_c, 0, 64, 73
1, 101419, Note_off_c, 0, 74, 60
1, 101437, Note_off_c, 0, 86, 58
1, 101475, Note_off_c, 0, 64, 53
1, 101612, Note_off_c, 0, 62, 61
1, 101647, Note_on_c, 0, 79, 76
1, 101648, Note_on_c, 0, 76, 94
1, 101648, Note_on_c, 0, 84, 78
1, 101650, Note_on_c, 0, 88, 94
1, 101652, Note_on_c, 0, 64, 91
1, 101653, Note_on_c, 0, 60, 87
1, 101653, Control_c, 0, 64, 109
1, 101656, Note_on_c, 0, 55, 73
1, 101667, Control_c, 0, 64, 79
1, 101682, Control_c, 0, 64, 0
1, 101748, Note_off_c, 0, 88, 62
1, 101756, Control_c, 0, 64, 68
1, 101771, Control_c, 0, 64, 86
1, 101786, Control_c, 0, 64, 115
1, 101789, Note_off_c, 0, 64, 60
1, 101801, Note_off_c, 0, 84, 63
1, 101801, Control_c, 0, 64, 127
1, 101807, Note_off_c, 0, 76, 63
1, 101813, Note_off_c, 0, 79, 59
1, 101830, Note_off_c, 0, 60, 62
1, 101847, Note_off_c, 0, 55, 56
1, 102043, Note_on_c, 0, 60, 86
1, 102088, Note_off_c, 0, 60, 62
1, 102149, Note_on_c, 0, 48, 78
1, 102168, Note_on_c, 0, 60, 84
1, 102190, Note_off_c, 0, 60, 61
1, 102268, Note_on_c, 0, 60, 91
1, 102329, Note_off_c, 0, 60, 61
1, 102383, Note_on_c, 0, 64, 98
1, 102386, Note_on_c, 0, 36, 78
1, 102432, Note_off_c, 0, 64, 66
1, 102460, Note_off_c, 0, 36, 64
1, 102507, Note_off_c, 0, 48, 63
1, 102791, Note_on_c, 0, 88, 93
1, 102795, Note_on_c, 0, 76, 94
1, 102799, Note_on_c, 0, 67, 99
1, 102879, Note_off_c, 0, 76, 60
1, 102883, Note_off_c, 0, 67, 56
1, 103003, Note_off_c, 0, 88, 55
1, 103195, Control_c, 0, 64, 87
1, 103203, Note_on_c, 0, 89, 90
1, 103204, Note_on_c, 0, 77, 97
1, 103206, Note_on_c, 0, 84, 87
1, 103210, Note_on_c, 0, 68, 87
1, 103210, Control_c, 0, 64, 0
1, 103211, Note_on_c, 0, 72, 94
1, 103216, Note_on_c, 0, 60, 78
1, 103217, Note_on_c, 0, 65, 76
1, 103228, Note_on_c, 0, 62, 66
1, 103229, Note_off_c, 0, 72, 71
1, 103269, Control_c, 0, 64, 67
1, 103284, Control_c, 0, 64, 91
1, 103291, Note_off_c, 0, 89, 65
1, 103299, Control_c, 0, 64, 127
1, 103308, Note_off_c, 0, 68, 63
1, 103318, Note_off_c, 0, 77, 60
1, 103321, Note_off_c, 0, 65, 64
1, 103322, Note_off_c, 0, 84, 65
1, 103337, Note_off_c, 0, 62, 60
1, 103338, Note_off_c, 0, 60, 62
1, 103605, Note_on_c, 0, 48, 86
1, 103606, Note_on_c, 0, 36, 75
1, 103607, Note_on_c, 0, 60, 79
1, 103609, Note_on_c, 0, 56, 77
1, 103616, Note_on_c, 0, 53, 55
1, 103617, Note_off_c, 0, 53, 127
1, 103636, Note_off_c, 0, 36, 65
1, 103640, Poly_aftertouch_c, 0, 53, 0
1, 103642, Note_off_c, 0, 56, 65
1, 103664, Note_off_c, 0, 48, 63
1, 103668, Note_off_c, 0, 60, 63
1, 103795, Note_on_c, 0, 74, 92
1, 103795, Note_on_c, 0, 86, 92
1, 103801, Note_on_c, 0, 62, 83
1, 103834, Note_off_c, 0, 74, 64
1, 103867, Note_off_c, 0, 86, 63
1, 104020, Note_off_c, 0, 62, 58
1, 104073, Note_on_c, 0, 88, 88
1, 104075, Note_on_c, 0, 84, 84
1, 104076, Note_on_c, 0, 76, 86
1, 104078, Note_on_c, 0, 55, 75
1, 104078, Note_on_c, 0, 79, 73
1, 104079, Note_on_c, 0, 60, 83
1, 104079, Note_on_c, 0, 64, 92
1, 104092, Control_c, 0, 64, 93
1, 104107, Control_c, 0, 64, 64
1, 104122, Control_c, 0, 64, 0
1, 104181, Control_c, 0, 64, 64
1, 104196, Control_c, 0, 64, 79
1, 104198, Note_off_c, 0, 88, 62
1, 104210, Control_c, 0, 64, 102
1, 104215, Note_off_c, 0, 64, 59
1, 104225, Control_c, 0, 64, 127
1, 104239, Note_off_c, 0, 76, 63
1, 104239, Note_off_c, 0, 84, 61
1, 104253, Note_off_c, 0, 79, 60
1, 104258, Note_off_c, 0, 60, 62
1, 104278, Note_off_c, 0, 55, 59
1, 104466, Note_on_c, 0, 60, 85
1, 104515, Note_off_c, 0, 60, 60
1, 104581, Note_on_c, 0, 48, 72
1, 104588, Note_on_c, 0, 60, 84
1, 104632, Note_off_c, 0, 60, 62
1, 104698, Note_on_c, 0, 60, 89
1, 104761, Note_off_c, 0, 60, 61
1, 104808, Note_on_c, 0, 64, 99
1, 104809, Note_on_c, 0, 36, 81
1, 104851, Note_off_c, 0, 64, 65
1, 104872, Note_off_c, 0, 36, 65
1, 104919, Note_off_c, 0, 48, 63
1, 105166, Note_on_c, 0, 88, 93
1, 105171, Note_on_c, 0, 76, 95
1, 105175, Note_on_c, 0, 67, 101
1, 105281, Note_off_c, 0, 67, 55
1, 105293, Note_off_c, 0, 76, 60
1, 105485, Note_off_c, 0, 88, 37
1, 105560, Control_c, 0, 64, 126
1, 105575, Control_c, 0, 64, 79
1, 105578, Note_on_c, 0, 89, 87
1, 105579, Note_on_c, 0, 77, 97
1, 105582, Note_on_c, 0, 84, 93
1, 105585, Note_on_c, 0, 68, 90
1, 105585, Note_on_c, 0, 72, 92
1, 105590, Control_c, 0, 64, 0
1, 105590, Note_on_c, 0, 60, 79
1, 105592, Note_on_c, 0, 65, 79
1, 105606, Note_on_c, 0, 62, 67
1, 105634, Control_c, 0, 64, 60
1, 105637, Note_off_c, 0, 72, 66
1, 105649, Control_c, 0, 64, 80
1, 105652, Note_off_c, 0, 89, 67
1, 105664, Control_c, 0, 64, 108
1, 105671, Note_off_c, 0, 77, 59
1, 105672, Note_off_c, 0, 68, 64
1, 105673, Note_off_c, 0, 84, 64
1, 105679, Control_c, 0, 64, 127
1, 105679, Note_off_c, 0, 65, 65
1, 105698, Note_off_c, 0, 62, 61
1, 105701, Note_off_c, 0, 60, 63
1, 105975, Note_on_c, 0, 53, 77
1, 105976, Note_on_c, 0, 48, 86
1, 105978, Note_on_c, 0, 36, 77
1, 105980, Note_on_c, 0, 60, 78
1, 105980, Note_on_c, 0, 56, 74
1, 105996, Note_off_c, 0, 53, 70
1, 106010, Note_off_c, 0, 56, 67
1, 106012, Note_off_c, 0, 36, 65
1, 106027, Note_off_c, 0, 60, 61
1, 106031, Note_off_c, 0, 48, 65
1, 106177, Note_on_c, 0, 86, 91
1, 106180, Note_on_c, 0, 74, 86
1, 106184, Note_on_c, 0, 62, 86
1, 106207, Note_off_c, 0, 74, 60
1, 106240, Note_off_c, 0, 86, 62
1, 106390, Note_off_c, 0, 62, 59
1, 106435, Note_on_c, 0, 79, 77
1, 106437, Note_on_c, 0, 88, 94
1, 106439, Note_on_c, 0, 76, 93
1, 106439, Note_on_c, 0, 84, 78
1, 106442, Note_on_c, 0, 64, 102
1, 106442, Control_c, 0, 64, 104
1, 106444, Note_on_c, 0, 60, 86
1, 106446, Note_on_c, 0, 55, 77
1, 106457, Control_c, 0, 64, 77
1, 106472, Control_c, 0, 64, 0
1, 106517, Note_off_c, 0, 64, 61
1, 106531, Control_c, 0, 64, 72
1, 106540, Note_off_c, 0, 60, 60
1, 106546, Control_c, 0, 64, 91
1, 106561, Control_c, 0, 64, 123
1, 106573, Note_off_c, 0, 76, 62
1, 106574, Note_off_c, 0, 55, 63
1, 106576, Control_c, 0, 64, 127
1, 106593, Note_off_c, 0, 79, 62
1, 106614, Note_off_c, 0, 84, 64
1, 106627, Note_off_c, 0, 88, 62
1, 106844, Note_on_c, 0, 91, 87
1, 106848, Note_on_c, 0, 48, 91
1, 106856, Note_on_c, 0, 79, 90
1, 106857, Note_on_c, 0, 36, 76
1, 106900, Note_off_c, 0, 36, 64
1, 106943, Note_off_c, 0, 91, 62
1, 106943, Note_off_c, 0, 48, 66
1, 106973, Note_off_c, 0, 79, 54
1, 107294, Note_on_c, 0, 74, 88
1, 107295, Note_on_c, 0, 69, 98
1, 107295, Note_on_c, 0, 81, 93
1, 107295, Control_c, 0, 64, 93
1, 107298, Note_on_c, 0, 65, 95
1, 107301, Note_on_c, 0, 62, 90
1, 107305, Note_on_c, 0, 53, 77
1, 107310, Note_on_c, 0, 57, 71
1, 107310, Control_c, 0, 64, 64
1, 107325, Control_c, 0, 64, 0
1, 107363, Note_off_c, 0, 65, 65
1, 107369, Control_c, 0, 64, 65
1, 107384, Control_c, 0, 64, 86
1, 107389, Note_off_c, 0, 62, 62
1, 107399, Control_c, 0, 64, 127
1, 107412, Note_off_c, 0, 69, 63
1, 107420, Note_off_c, 0, 57, 62
1, 107432, Note_off_c, 0, 74, 62
1, 107433, Note_off_c, 0, 53, 65
1, 107456, Note_off_c, 0, 81, 61
1, 107698, Note_on_c, 0, 41, 88
1, 107702, Note_on_c, 0, 86, 88
1, 107706, Note_on_c, 0, 74, 90
1, 107763, Note_off_c, 0, 41, 67
1, 107905, Note_off_c, 0, 74, 56
1, 107940, Note_off_c, 0, 86, 57
1, 108106, Note_on_c, 0, 81, 87
1, 108106, Note_on_c, 0, 88, 95
1, 108109, Note_on_c, 0, 76, 93
1, 108114, Note_on_c, 0, 62, 89
1, 108114, Note_on_c, 0, 57, 78
1, 108114, Note_on_c, 0, 65, 97
1, 108133, Control_c, 0, 64, 88
1, 108148, Control_c, 0, 64, 57
1, 108163, Control_c, 0, 64, 0
1, 108192, Control_c, 0, 64, 54
1, 108207, Control_c, 0, 64, 73
1, 108222, Control_c, 0, 64, 91
1, 108235, Note_off_c, 0, 65, 60
1, 108237, Control_c, 0, 64, 123
1, 108252, Control_c, 0, 64, 127
1, 108256, Note_off_c, 0, 62, 60
1, 108284, Note_off_c, 0, 57, 63
1, 108286, Note_off_c, 0, 81, 61
1, 108288, Note_off_c, 0, 76, 38
1, 108301, Note_off_c, 0, 88, 61
1, 108514, Note_on_c, 0, 89, 91
1, 108521, Note_on_c, 0, 77, 94
1, 108525, Note_on_c, 0, 50, 90
1, 108532, Note_on_c, 0, 38, 77
1, 108588, Note_off_c, 0, 38, 62
1, 108622, Note_off_c, 0, 50, 60
1, 108653, Note_off_c, 0, 89, 62
1, 108672, Note_off_c, 0, 77, 58
1, 108962, Note_on_c, 0, 88, 84
1, 108964, Note_on_c, 0, 79, 84
1, 108968, Note_on_c, 0, 76, 87
1, 108970, Control_c, 0, 64, 100
1, 108973, Note_on_c, 0, 64, 90
1, 108978, Note_on_c, 0, 55, 74
1, 108978, Note_on_c, 0, 60, 80
1, 108985, Control_c, 0, 64, 74
1, 109000, Control_c, 0, 64, 0
1, 109030, Control_c, 0, 64, 61
1, 109045, Control_c, 0, 64, 77
1, 109059, Control_c, 0, 64, 96
1, 109059, Note_off_c, 0, 76, 64
1, 109074, Control_c, 0, 64, 127
1, 109089, Note_off_c, 0, 79, 60
1, 109113, Note_off_c, 0, 88, 63
1, 109131, Note_off_c, 0, 64, 60
1, 109154, Note_off_c, 0, 60, 61
1, 109179, Note_off_c, 0, 55, 62
1, 109214, Note_on_c, 0, 91, 94
1, 109214, Note_on_c, 0, 79, 97
1, 109302, Note_off_c, 0, 79, 58
1, 109336, Note_off_c, 0, 91, 56
1, 109434, Note_on_c, 0, 93, 99
1, 109435, Note_on_c, 0, 81, 99
1, 109437, Note_on_c, 0, 43, 71
1, 109437, Note_on_c, 0, 55, 76
1, 109529, Note_off_c, 0, 81, 60
1, 109529, Note_off_c, 0, 43, 60
1, 109539, Note_off_c, 0, 93, 60
1, 109555, Note_off_c, 0, 55, 59
1, 109631, Note_on_c, 0, 91, 93
1, 109633, Note_on_c, 0, 79, 96
1, 109675, Note_off_c, 0, 79, 62
1, 109676, Note_off_c, 0, 91, 61
1, 109888, Note_on_c, 0, 86, 85
1, 109890, Note_on_c, 0, 74, 82
1, 109891, Note_on_c, 0, 79, 78
1, 109894, Note_on_c, 0, 67, 66
1, 109894, Note_on_c, 0, 65, 75
1, 109895, Note_on_c, 0, 55, 69
1, 109903, Control_c, 0, 64, 98
1, 109906, Note_on_c, 0, 59, 60
1, 109918, Control_c, 0, 64, 74
1, 109933, Control_c, 0, 64, 0
1, 109963, Control_c, 0, 64, 11
1, 109978, Control_c, 0, 64, 72
1, 109992, Control_c, 0, 64, 88
1, 109999, Note_off_c, 0, 74, 66
1, 110007, Control_c, 0, 64, 114
1, 110017, Note_off_c, 0, 67, 61
1, 110021, Note_off_c, 0, 65, 63
1, 110022, Control_c, 0, 64, 127
1, 110029, Note_off_c, 0, 79, 61
1, 110029, Note_off_c, 0, 86, 64
1, 110034, Note_off_c, 0, 55, 59
1, 110061, Note_off_c, 0, 59, 60
1, 110100, Note_on_c, 0, 88, 93
1, 110103, Note_on_c, 0, 76, 92
1, 110111, Note_on_c, 0, 64, 86
1, 110195, Note_off_c, 0, 76, 65
1, 110204, Note_off_c, 0, 88, 62
1, 110218, Note_off_c, 0, 64, 62
1, 110269, Note_on_c, 0, 62, 87
1, 110271, Note_on_c, 0, 86, 92
1, 110274, Note_on_c, 0, 74, 90
1, 110332, Note_off_c, 0, 74, 62
1, 110344, Note_off_c, 0, 86, 63
1, 110372, Note_off_c, 0, 62, 59
1, 110421, Note_on_c, 0, 84, 96
1, 110422, Note_on_c, 0, 60, 83
1, 110424, Note_on_c, 0, 72, 89
1, 110471, Note_off_c, 0, 72, 64
1, 110482, Note_off_c, 0, 60, 62
1, 110484, Note_off_c, 0, 84, 64
1, 110553, Note_on_c, 0, 59, 82
1, 110553, Note_on_c, 0, 83, 92
1, 110556, Note_on_c, 0, 71, 88
1, 110608, Note_off_c, 0, 71, 61
1, 110620, Note_off_c, 0, 83, 59
1, 110627, Note_off_c, 0, 59, 57
1, 110686, Note_on_c, 0, 81, 94
1, 110688, Note_on_c, 0, 69, 94
1, 110690, Note_on_c, 0, 57, 85
1, 110764, Note_off_c, 0, 69, 59
1, 110772, Note_off_c, 0, 81, 58
1, 110804, Note_off_c, 0, 57, 57
1, 110867, Note_on_c, 0, 79, 88
1, 110868, Note_on_c, 0, 67, 91
1, 110872, Note_on_c, 0, 55, 80
1, 110875, Control_c, 0, 64, 123
1, 110890, Control_c, 0, 64, 91
1, 110905, Control_c, 0, 64, 66
1, 110920, Control_c, 0, 64, 0
1, 110950, Control_c, 0, 64, 60
1, 110965, Control_c, 0, 64, 74
1, 110970, Note_off_c, 0, 67, 61
1, 110980, Control_c, 0, 64, 89
1, 110995, Control_c, 0, 64, 113
1, 110997, Note_off_c, 0, 79, 62
1, 111009, Control_c, 0, 64, 127
1, 111025, Note_off_c, 0, 55, 62
1, 111060, Note_on_c, 0, 81, 96
1, 111062, Note_on_c, 0, 69, 94
1, 111072, Note_on_c, 0, 57, 78
1, 111122, Note_off_c, 0, 69, 62
1, 111130, Note_off_c, 0, 81, 60
1, 111138, Note_off_c, 0, 57, 60
1, 111207, Note_on_c, 0, 55, 81
1, 111209, Note_on_c, 0, 79, 92
1, 111210, Note_on_c, 0, 67, 91
1, 111256, Note_off_c, 0, 67, 59
1, 111273, Note_off_c, 0, 79, 61
1, 111295, Note_off_c, 0, 55, 58
1, 111355, Note_on_c, 0, 77, 92
1, 111356, Note_on_c, 0, 53, 76
1, 111358, Note_on_c, 0, 65, 93
1, 111402, Note_off_c, 0, 65, 63
1, 111411, Note_off_c, 0, 77, 62
1, 111420, Note_off_c, 0, 53, 64
1, 111464, Poly_aftertouch_c, 0, 74, 0
1, 111483, Note_on_c, 0, 76, 88
1, 111485, Note_on_c, 0, 52, 74
1, 111486, Note_on_c, 0, 64, 88
1, 111530, Note_off_c, 0, 64, 64
1, 111538, Note_off_c, 0, 76, 65
1, 111551, Note_off_c, 0, 52, 63
1, 111609, Note_on_c, 0, 50, 74
1, 111609, Note_on_c, 0, 74, 87
1, 111613, Note_on_c, 0, 62, 92
1, 111647, Note_off_c, 0, 50, 63
1, 111673, Note_off_c, 0, 74, 60
1, 111684, Note_off_c, 0, 62, 57
1, 111840, Note_on_c, 0, 60, 97
1, 111844, Note_on_c, 0, 55, 73
1, 111847, Control_c, 0, 64, 92
1, 111854, Note_on_c, 0, 48, 61
1, 111855, Note_on_c, 0, 52, 65
1, 111862, Control_c, 0, 64, 65
1, 111876, Control_c, 0, 64, 0
1, 111884, Note_on_c, 0, 67, 27
1, 111921, Control_c, 0, 64, 63
1, 111924, Note_off_c, 0, 67, 49
1, 111936, Control_c, 0, 64, 81
1, 111951, Control_c, 0, 64, 102
1, 111957, Note_off_c, 0, 55, 62
1, 111963, Note_off_c, 0, 60, 66
1, 111966, Control_c, 0, 64, 127
1, 111980, Note_off_c, 0, 52, 64
1, 111981, Note_on_c, 0, 64, 69
1, 111981, Note_on_c, 0, 72, 65
1, 111992, Note_on_c, 0, 67, 54
1, 111999, Note_off_c, 0, 48, 65
1, 112007, Note_off_c, 0, 64, 67
1, 112016, Note_off_c, 0, 67, 64
1, 112035, Note_off_c, 0, 72, 65
1, 112129, Note_on_c, 0, 72, 80
1, 112192, Note_off_c, 0, 72, 57
1, 112252, Note_on_c, 0, 48, 80
1, 112261, Note_on_c, 0, 36, 65
1, 112261, Note_on_c, 0, 84, 70
1, 112267, Note_on_c, 0, 76, 68
1, 112273, Note_on_c, 0, 79, 59
1, 112316, Note_off_c, 0, 36, 62
1, 112325, Note_off_c, 0, 76, 66
1, 112326, Note_off_c, 0, 79, 56
1, 112344, Note_off_c, 0, 48, 61
1, 112344, Note_off_c, 0, 84, 62
1, 112376, Note_on_c, 0, 72, 71
1, 112408, Note_off_c, 0, 72, 64
1, 112496, Note_on_c, 0, 64, 72
1, 112498, Note_on_c, 0, 72, 69
1, 112500, Note_on_c, 0, 67, 71
1, 112627, Note_off_c, 0, 67, 60
1, 112628, Note_off_c, 0, 64, 62
1, 112649, Note_off_c, 0, 72, 62
1, 112669, Note_on_c, 0, 62, 97
1, 112679, Note_on_c, 0, 57, 84
1, 112682, Note_on_c, 0, 53, 73
1, 112685, Control_c, 0, 64, 108
1, 112694, Note_on_c, 0, 48, 64
1, 112699, Control_c, 0, 64, 83
1, 112714, Control_c, 0, 64, 58
1, 112729, Control_c, 0, 64, 0
1, 112744, Control_c, 0, 64, 25
1, 112759, Control_c, 0, 64, 70
1, 112772, Note_off_c, 0, 62, 65
1, 112774, Control_c, 0, 64, 84
1, 112783, Note_off_c, 0, 57, 59
1, 112785, Note_on_c, 0, 74, 64
1, 112789, Control_c, 0, 64, 106
1, 112790, Note_on_c, 0, 65, 68
1, 112803, Note_off_c, 0, 53, 64
1, 112803, Control_c, 0, 64, 127
1, 112809, Note_on_c, 0, 69, 60
1, 112821, Note_off_c, 0, 65, 66
1, 112824, Note_off_c, 0, 48, 65
1, 112848, Note_off_c, 0, 69, 68
1, 112869, Note_off_c, 0, 74, 64
1, 112943, Note_on_c, 0, 74, 76
1, 112999, Note_off_c, 0, 74, 63
1, 113050, Note_on_c, 0, 48, 74
1, 113056, Note_on_c, 0, 36, 65
1, 113056, Note_on_c, 0, 86, 68
1, 113067, Note_on_c, 0, 77, 63
1, 113071, Note_on_c, 0, 81, 61
1, 113100, Note_off_c, 0, 36, 65
1, 113129, Note_off_c, 0, 48, 64
1, 113129, Note_off_c, 0, 77, 60
1, 113134, Note_off_c, 0, 81, 60
1, 113140, Note_off_c, 0, 86, 62
1, 113174, Note_on_c, 0, 74, 73
1, 113203, Note_off_c, 0, 74, 63
1, 113293, Note_on_c, 0, 65, 76
1, 113297, Note_on_c, 0, 69, 71
1, 113300, Note_on_c, 0, 74, 68
1, 113386, Note_off_c, 0, 65, 61
1, 113396, Note_off_c, 0, 69, 61
1, 113419, Note_off_c, 0, 74, 59
1, 113434, Control_c, 0, 64, 101
1, 113444, Note_on_c, 0, 60, 83
1, 113447, Note_on_c, 0, 64, 87
1, 113448, Control_c, 0, 64, 78
1, 113454, Note_on_c, 0, 48, 75
1, 113458, Note_on_c, 0, 55, 68
1, 113463, Control_c, 0, 64, 61
1, 113478, Control_c, 0, 64, 60
1, 113493, Control_c, 0, 64, 70
1, 113508, Control_c, 0, 64, 80
1, 113516, Note_off_c, 0, 64, 64
1, 113522, Control_c, 0, 64, 97
1, 113524, Note_off_c, 0, 60, 61
1, 113537, Control_c, 0, 64, 113
1, 113546, Note_on_c, 0, 67, 69
1, 113552, Note_on_c, 0, 76, 63
1, 113552, Note_off_c, 0, 55, 64
1, 113552, Control_c, 0, 64, 127
1, 113562, Note_on_c, 0, 72, 53
1, 113564, Note_off_c, 0, 67, 65
1, 113575, Note_off_c, 0, 48, 63
1, 113583, Note_off_c, 0, 72, 63
1, 113608, Note_off_c, 0, 76, 62
1, 113678, Note_on_c, 0, 76, 82
1, 113747, Note_off_c, 0, 76, 60
1, 113808, Note_on_c, 0, 88, 73
1, 113813, Note_on_c, 0, 48, 79
1, 113820, Note_on_c, 0, 36, 63
1, 113821, Note_on_c, 0, 79, 65
1, 113828, Note_on_c, 0, 84, 62
1, 113860, Note_off_c, 0, 79, 58
1, 113862, Note_off_c, 0, 36, 62
1, 113882, Note_off_c, 0, 88, 59
1, 113894, Note_off_c, 0, 48, 62
1, 113897, Note_off_c, 0, 84, 52
1, 113916, Note_on_c, 0, 76, 76
1, 113954, Note_off_c, 0, 76, 63
1, 114032, Note_on_c, 0, 77, 74
1, 114049, Note_on_c, 0, 74, 51
1, 114052, Note_on_c, 0, 69, 43
1, 114060, Note_off_c, 0, 77, 59
1, 114070, Note_off_c, 0, 74, 61
1, 114079, Note_off_c, 0, 69, 54
1, 114119, Poly_aftertouch_c, 0, 67, 0
1, 114140, Poly_aftertouch_c, 0, 67, 0
1, 114284, Note_on_c, 0, 62, 78
1, 114284, Note_on_c, 0, 69, 71
1, 114285, Note_on_c, 0, 74, 76
1, 114285, Note_on_c, 0, 65, 70
1, 114297, Note_on_c, 0, 57, 70
1, 114299, Note_on_c, 0, 53, 64
1, 114302, Control_c, 0, 64, 105
1, 114305, Note_on_c, 0, 48, 61
1, 114317, Control_c, 0, 64, 80
1, 114332, Control_c, 0, 64, 0
1, 114383, Control_c, 0, 64, 61
1, 114395, Note_off_c, 0, 62, 58
1, 114398, Control_c, 0, 64, 75
1, 114413, Control_c, 0, 64, 93
1, 114422, Note_off_c, 0, 65, 63
1, 114428, Control_c, 0, 64, 120
1, 114436, Note_off_c, 0, 48, 62
1, 114443, Control_c, 0, 64, 127
1, 114450, Note_off_c, 0, 57, 59
1, 114451, Note_off_c, 0, 69, 64
1, 114454, Note_off_c, 0, 53, 65
1, 114472, Note_off_c, 0, 74, 62
1, 114569, Note_on_c, 0, 71, 70
1, 114608, Note_off_c, 0, 71, 60
1, 114643, Note_on_c, 0, 83, 67
1, 114696, Note_off_c, 0, 83, 59
1, 114730, Note_on_c, 0, 62, 75
1, 114739, Note_on_c, 0, 57, 65
1, 114739, Note_on_c, 0, 72, 72
1, 114748, Note_on_c, 0, 53, 62
1, 114758, Note_off_c, 0, 62, 64
1, 114773, Note_off_c, 0, 57, 59
1, 114783, Note_off_c, 0, 72, 66
1, 114812, Note_off_c, 0, 53, 64
1, 114822, Note_on_c, 0, 84, 64
1, 114863, Note_off_c, 0, 84, 62
1, 114902, Note_on_c, 0, 73, 76
1, 114958, Note_off_c, 0, 73, 56
1, 114972, Note_on_c, 0, 85, 76
1, 115042, Note_off_c, 0, 85, 62
1, 115050, Control_c, 0, 64, 100
1, 115065, Control_c, 0, 64, 76
1, 115079, Note_on_c, 0, 47, 80
1, 115080, Control_c, 0, 64, 30
1, 115084, Note_on_c, 0, 35, 71
1, 115084, Note_on_c, 0, 74, 82
1, 115102, Control_c, 0, 64, 0
1, 115117, Control_c, 0, 64, 62
1, 115132, Control_c, 0, 64, 74
1, 115132, Note_off_c, 0, 35, 66
1, 115146, Control_c, 0, 64, 91
1, 115151, Note_off_c, 0, 74, 65
1, 115161, Control_c, 0, 64, 110
1, 115167, Note_off_c, 0, 47, 64
1, 115169, Note_on_c, 0, 86, 79
1, 115176, Control_c, 0, 64, 127
1, 115227, Note_off_c, 0, 86, 63
1, 115270, Note_on_c, 0, 76, 78
1, 115321, Note_off_c, 0, 76, 65
1, 115339, Note_on_c, 0, 88, 78
1, 115403, Note_off_c, 0, 88, 62
1, 115419, Note_on_c, 0, 65, 78
1, 115424, Note_on_c, 0, 62, 79
1, 115429, Note_on_c, 0, 53, 72
1, 115429, Note_on_c, 0, 77, 88
1, 115439, Note_on_c, 0, 57, 64
1, 115441, Note_off_c, 0, 65, 72
1, 115456, Note_off_c, 0, 62, 61
1, 115483, Note_off_c, 0, 57, 62
1, 115485, Note_off_c, 0, 77, 62
1, 115497, Note_off_c, 0, 53, 67
1, 115504, Note_on_c, 0, 89, 84
1, 115569, Note_off_c, 0, 89, 64
1, 115594, Note_on_c, 0, 79, 82
1, 115646, Note_off_c, 0, 79, 63
1, 115667, Note_on_c, 0, 91, 80
1, 115725, Control_c, 0, 64, 109
1, 115729, Note_off_c, 0, 91, 60
1, 115740, Control_c, 0, 64, 85
1, 115755, Control_c, 0, 64, 64
1, 115757, Note_on_c, 0, 45, 86
1, 115761, Note_on_c, 0, 33, 78
1, 115763, Note_on_c, 0, 81, 88
1, 115769, Control_c, 0, 64, 0
1, 115784, Control_c, 0, 64, 63
1, 115790, Note_off_c, 0, 33, 68
1, 115799, Control_c, 0, 64, 75
1, 115814, Control_c, 0, 64, 94
1, 115819, Note_off_c, 0, 45, 65
1, 115824, Note_off_c, 0, 81, 62
1, 115829, Control_c, 0, 64, 117
1, 115850, Control_c, 0, 64, 127
1, 115853, Note_on_c, 0, 93, 85
1, 115904, Note_off_c, 0, 93, 63
1, 115939, Note_on_c, 0, 83, 81
1, 115985, Note_off_c, 0, 83, 62
1, 116005, Note_on_c, 0, 95, 83
1, 116069, Note_off_c, 0, 95, 62
1, 116098, Note_on_c, 0, 65, 90
1, 116103, Note_on_c, 0, 85, 93
1, 116106, Note_on_c, 0, 62, 82
1, 116108, Note_on_c, 0, 53, 65
1, 116118, Note_on_c, 0, 57, 65
1, 116140, Note_off_c, 0, 65, 65
1, 116157, Note_off_c, 0, 62, 63
1, 116164, Note_off_c, 0, 85, 63
1, 116173, Note_off_c, 0, 53, 65
1, 116179, Note_off_c, 0, 57, 60
1, 116180, Note_on_c, 0, 97, 88
1, 116237, Note_off_c, 0, 97, 64
1, 116265, Note_on_c, 0, 86, 82
1, 116315, Note_off_c, 0, 86, 64
1, 116327, Note_on_c, 0, 98, 84
1, 116348, Note_off_c, 0, 98, 69
1, 116518, Note_on_c, 0, 62, 92
1, 116529, Note_on_c, 0, 55, 67
1, 116533, Control_c, 0, 64, 114
1, 116537, Note_on_c, 0, 50, 64
1, 116547, Control_c, 0, 64, 87
1, 116562, Control_c, 0, 64, 64
1, 116577, Control_c, 0, 64, 0
1, 116615, Control_c, 0, 64, 57
1, 116629, Control_c, 0, 64, 73
1, 116644, Control_c, 0, 64, 89
1, 116645, Note_off_c, 0, 62, 61
1, 116652, Note_on_c, 0, 67, 75
1, 116658, Note_on_c, 0, 74, 67
1, 116659, Control_c, 0, 64, 110
1, 116673, Control_c, 0, 64, 127
1, 116676, Note_off_c, 0, 67, 68
1, 116676, Note_off_c, 0, 55, 65
1, 116694, Note_off_c, 0, 50, 63
1, 116709, Note_off_c, 0, 74, 63
1, 116793, Note_on_c, 0, 74, 75
1, 116836, Note_off_c, 0, 74, 57
1, 116919, Note_on_c, 0, 47, 79
1, 116927, Note_on_c, 0, 79, 72
1, 116929, Note_on_c, 0, 35, 64
1, 116950, Note_on_c, 0, 86, 58
1, 116956, Note_on_c, 0, 88, 41
1, 116958, Note_off_c, 0, 35, 65
1, 116980, Note_off_c, 0, 79, 62
1, 116982, Note_off_c, 0, 88, 52
1, 116988, Note_off_c, 0, 47, 63
1, 117009, Note_off_c, 0, 86, 63
1, 117042, Note_on_c, 0, 74, 65
1, 117072, Note_off_c, 0, 74, 66
1, 117148, Note_on_c, 0, 67, 77
1, 117156, Note_on_c, 0, 74, 70
1, 117173, Note_off_c, 0, 67, 64
1, 117197, Note_off_c, 0, 74, 55
1, 117305, Note_on_c, 0, 64, 99
1, 117317, Note_on_c, 0, 52, 75
1, 117317, Note_on_c, 0, 55, 72
1, 117327, Control_c, 0, 64, 98
1, 117349, Control_c, 0, 64, 72
1, 117364, Control_c, 0, 64, 0
1, 117394, Control_c, 0, 64, 67
1, 117409, Control_c, 0, 64, 80
1, 117420, Note_on_c, 0, 67, 77
1, 117422, Note_off_c, 0, 64, 66
1, 117423, Control_c, 0, 64, 99
1, 117427, Note_on_c, 0, 76, 74
1, 117438, Control_c, 0, 64, 127
1, 117444, Note_off_c, 0, 67, 68
1, 117463, Note_off_c, 0, 55, 65
1, 117470, Note_off_c, 0, 52, 67
1, 117472, Note_off_c, 0, 76, 66
1, 117556, Note_on_c, 0, 76, 73
1, 117606, Note_off_c, 0, 76, 62
1, 117670, Note_on_c, 0, 88, 78
1, 117672, Note_on_c, 0, 47, 90
1, 117675, Note_on_c, 0, 35, 74
1, 117677, Note_on_c, 0, 79, 71
1, 117707, Note_off_c, 0, 35, 63
1, 117728, Note_off_c, 0, 79, 62
1, 117731, Note_off_c, 0, 47, 65
1, 117748, Note_off_c, 0, 88, 61
1, 117786, Note_on_c, 0, 76, 72
1, 117824, Note_off_c, 0, 76, 63
1, 117901, Note_on_c, 0, 67, 80
1, 117901, Note_on_c, 0, 76, 72
1, 117942, Note_off_c, 0, 67, 52
1, 117965, Note_off_c, 0, 76, 60
1, 118030, Control_c, 0, 64, 104
1, 118036, Note_on_c, 0, 62, 89
1, 118038, Note_on_c, 0, 65, 102
1, 118045, Note_on_c, 0, 53, 73
1, 118045, Control_c, 0, 64, 79
1, 118054, Note_on_c, 0, 55, 57
1, 118060, Control_c, 0, 64, 0
1, 118097, Control_c, 0, 64, 32
1, 118112, Control_c, 0, 64, 71
1, 118127, Control_c, 0, 64, 85
1, 118142, Control_c, 0, 64, 106
1, 118145, Note_off_c, 0, 65, 62
1, 118157, Control_c, 0, 64, 127
1, 118175, Note_off_c, 0, 62, 60
1, 118177, Note_on_c, 0, 74, 77
1, 118177, Note_on_c, 0, 77, 80
1, 118197, Note_off_c, 0, 74, 70
1, 118211, Note_off_c, 0, 53, 65
1, 118211, Note_off_c, 0, 55, 65
1, 118224, Note_off_c, 0, 77, 62
1, 118234, Poly_aftertouch_c, 0, 58, 0
1, 118294, Note_on_c, 0, 77, 87
1, 118354, Note_off_c, 0, 77, 61
1, 118405, Note_on_c, 0, 47, 79
1, 118411, Note_on_c, 0, 35, 65
1, 118414, Note_on_c, 0, 86, 75
1, 118416, Note_on_c, 0, 89, 76
1, 118477, Note_off_c, 0, 86, 62
1, 118483, Note_off_c, 0, 35, 63
1, 118491, Note_off_c, 0, 47, 61
1, 118500, Note_off_c, 0, 89, 63
1, 118515, Poly_aftertouch_c, 0, 36, 127
1, 118527, Note_on_c, 0, 77, 84
1, 118554, Poly_aftertouch_c, 0, 36, 0
1, 118571, Note_off_c, 0, 77, 62
1, 118624, Note_on_c, 0, 77, 72
1, 118629, Note_on_c, 0, 74, 78
1, 118652, Note_off_c, 0, 74, 70
1, 118664, Note_off_c, 0, 77, 55
1, 118691, Control_c, 0, 64, 113
1, 118706, Control_c, 0, 64, 82
1, 118718, Note_on_c, 0, 46, 100
1, 118720, Control_c, 0, 64, 0
1, 118727, Note_on_c, 0, 34, 80
1, 118779, Control_c, 0, 64, 71
1, 118788, Note_off_c, 0, 34, 66
1, 118794, Control_c, 0, 64, 90
1, 118809, Control_c, 0, 64, 127
1, 118826, Note_off_c, 0, 46, 64
1, 119018, Note_on_c, 0, 67, 85
1, 119019, Note_on_c, 0, 64, 91
1, 119019, Note_on_c, 0, 74, 75
1, 119019, Note_on_c, 0, 76, 89
1, 119023, Note_on_c, 0, 62, 84
1, 119031, Note_on_c, 0, 52, 70
1, 119033, Note_on_c, 0, 55, 67
1, 119165, Note_off_c, 0, 62, 58
1, 119170, Note_off_c, 0, 64, 61
1, 119178, Note_off_c, 0, 52, 62
1, 119180, Note_off_c, 0, 76, 62
1, 119203, Note_off_c, 0, 74, 61
1, 119209, Note_off_c, 0, 67, 59
1, 119218, Note_off_c, 0, 55, 62
1, 119296, Note_on_c, 0, 62, 78
1, 119346, Note_off_c, 0, 62, 62
1, 119381, Note_on_c, 0, 74, 68
1, 119436, Note_off_c, 0, 74, 62
1, 119466, Note_on_c, 0, 62, 62
1, 119468, Note_on_c, 0, 64, 78
1, 119476, Note_on_c, 0, 52, 63
1, 119476, Note_on_c, 0, 55, 62
1, 119484, Note_off_c, 0, 62, 65
1, 119505, Note_off_c, 0, 55, 66
1, 119514, Note_off_c, 0, 52, 66
1, 119517, Note_off_c, 0, 64, 65
1, 119546, Note_on_c, 0, 76, 73
1, 119612, Note_off_c, 0, 76, 62
1, 119642, Note_on_c, 0, 65, 80
1, 119689, Note_off_c, 0, 65, 65
1, 119719, Note_on_c, 0, 77, 72
1, 119782, Note_off_c, 0, 77, 59
1, 119788, Control_c, 0, 64, 114
1, 119798, Note_on_c, 0, 45, 80
1, 119803, Control_c, 0, 64, 84
1, 119804, Note_on_c, 0, 33, 71
1, 119812, Note_on_c, 0, 67, 82
1, 119817, Control_c, 0, 64, 51
1, 119832, Control_c, 0, 64, 0
1, 119862, Control_c, 0, 64, 63
1, 119866, Note_off_c, 0, 67, 62
1, 119877, Control_c, 0, 64, 75
1, 119878, Note_off_c, 0, 33, 65
1, 119892, Control_c, 0, 64, 89
1, 119895, Note_on_c, 0, 79, 76
1, 119907, Control_c, 0, 64, 109
1, 119912, Note_off_c, 0, 45, 65
1, 119922, Control_c, 0, 64, 127
1, 119939, Note_off_c, 0, 79, 64
1, 119973, Note_on_c, 0, 69, 79
1, 120020, Note_off_c, 0, 69, 66
1, 120053, Note_on_c, 0, 81, 77
1, 120109, Note_off_c, 0, 81, 58
1, 120133, Note_on_c, 0, 62, 78
1, 120139, Note_on_c, 0, 64, 79
1, 120139, Note_on_c, 0, 70, 90
1, 120145, Note_on_c, 0, 52, 66
1, 120146, Note_on_c, 0, 57, 66
1, 120166, Note_off_c, 0, 64, 66
1, 120187, Note_off_c, 0, 62, 62
1, 120197, Note_off_c, 0, 70, 58
1, 120202, Note_off_c, 0, 57, 62
1, 120211, Note_on_c, 0, 82, 78
1, 120226, Note_off_c, 0, 52, 67
1, 120275, Note_off_c, 0, 82, 63
1, 120305, Note_on_c, 0, 71, 83
1, 120365, Note_off_c, 0, 71, 63
1, 120394, Note_on_c, 0, 83, 77
1, 120456, Note_off_c, 0, 83, 59
1, 120462, Control_c, 0, 64, 99
1, 120475, Note_on_c, 0, 43, 89
1, 120477, Control_c, 0, 64, 75
1, 120480, Note_on_c, 0, 31, 79
1, 120480, Note_on_c, 0, 73, 87
1, 120491, Control_c, 0, 64, 0
1, 120522, Control_c, 0, 64, 52
1, 120537, Control_c, 0, 64, 72
1, 120542, Note_off_c, 0, 73, 61
1, 120552, Control_c, 0, 64, 87
1, 120554, Note_off_c, 0, 31, 64
1, 120559, Note_on_c, 0, 85, 78
1, 120566, Poly_aftertouch_c, 0, 33, 127
1, 120567, Control_c, 0, 64, 107
1, 120581, Control_c, 0, 64, 127
1, 120589, Note_off_c, 0, 43, 62
1, 120602, Poly_aftertouch_c, 0, 33, 0
1, 120622, Note_off_c, 0, 85, 63
1, 120651, Note_on_c, 0, 74, 87
1, 120704, Note_off_c, 0, 74, 67
1, 120730, Note_on_c, 0, 86, 80
1, 120801, Note_off_c, 0, 86, 60
1, 120828, Note_on_c, 0, 62, 75
1, 120831, Note_on_c, 0, 76, 90
1, 120835, Note_on_c, 0, 52, 68
1, 120837, Note_on_c, 0, 64, 78
1, 120840, Note_on_c, 0, 58, 68
1, 120857, Note_on_c, 0, 55, 59
1, 120890, Note_off_c, 0, 76, 67
1, 120896, Note_off_c, 0, 64, 47
1, 120903, Note_off_c, 0, 52, 65
1, 120911, Note_off_c, 0, 62, 61
1, 120920, Note_on_c, 0, 88, 86
1, 120932, Note_off_c, 0, 55, 59
1, 120934, Note_off_c, 0, 58, 63
1, 120969, Note_off_c, 0, 88, 65
1, 120998, Note_on_c, 0, 77, 83
1, 121050, Note_off_c, 0, 77, 62
1, 121062, Note_on_c, 0, 89, 82
1, 121103, Note_off_c, 0, 89, 62
1, 121287, Note_on_c, 0, 61, 78
1, 121289, Note_on_c, 0, 64, 88
1, 121299, Note_on_c, 0, 52, 70
1, 121300, Control_c, 0, 64, 107
1, 121311, Note_on_c, 0, 55, 60
1, 121316, Control_c, 0, 64, 83
1, 121331, Control_c, 0, 64, 57
1, 121344, Control_c, 0, 64, 0
1, 121374, Control_c, 0, 64, 63
1, 121388, Control_c, 0, 64, 77
1, 121396, Note_off_c, 0, 64, 62
1, 121403, Control_c, 0, 64, 96
1, 121418, Control_c, 0, 64, 127
1, 121418, Note_on_c, 0, 67, 79
1, 121425, Note_off_c, 0, 61, 63
1, 121430, Note_on_c, 0, 73, 71
1, 121430, Note_on_c, 0, 76, 71
1, 121442, Note_off_c, 0, 67, 68
1, 121446, Note_off_c, 0, 55, 65
1, 121454, Note_off_c, 0, 52, 67
1, 121460, Note_off_c, 0, 73, 63
1, 121474, Note_off_c, 0, 76, 64
1, 121558, Note_on_c, 0, 76, 77
1, 121618, Note_off_c, 0, 76, 60
1, 121693, Note_on_c, 0, 45, 83
1, 121695, Note_on_c, 0, 33, 74
1, 121695, Note_on_c, 0, 88, 70
1, 121700, Note_on_c, 0, 79, 69
1, 121706, Note_on_c, 0, 85, 61
1, 121735, Note_off_c, 0, 33, 66
1, 121764, Note_off_c, 0, 79, 62
1, 121775, Note_off_c, 0, 45, 61
1, 121779, Note_off_c, 0, 88, 60
1, 121786, Note_off_c, 0, 85, 58
1, 121812, Note_on_c, 0, 76, 70
1, 121845, Note_off_c, 0, 76, 69
1, 121939, Note_on_c, 0, 76, 69
1, 121946, Note_on_c, 0, 73, 60
1, 121958, Note_on_c, 0, 67, 46
1, 121978, Note_off_c, 0, 67, 61
1, 121979, Note_off_c, 0, 73, 62
1, 121982, Note_off_c, 0, 76, 59
1, 122074, Note_on_c, 0, 65, 97
1, 122077, Control_c, 0, 64, 122
1, 122080, Note_on_c, 0, 61, 87
1, 122086, Note_on_c, 0, 53, 80
1, 122087, Note_on_c, 0, 57, 75
1, 122092, Control_c, 0, 64, 92
1, 122107, Control_c, 0, 64, 70
1, 122122, Control_c, 0, 64, 0
1, 122124, Note_off_c, 0, 65, 65
1, 122137, Control_c, 0, 64, 61
1, 122152, Control_c, 0, 64, 73
1, 122154, Note_off_c, 0, 61, 63
1, 122166, Note_off_c, 0, 57, 63
1, 122166, Control_c, 0, 64, 87
1, 122180, Note_off_c, 0, 53, 66
1, 122181, Control_c, 0, 64, 106
1, 122187, Note_on_c, 0, 69, 76
1, 122191, Note_on_c, 0, 77, 72
1, 122196, Control_c, 0, 64, 127
1, 122198, Note_on_c, 0, 73, 70
1, 122208, Note_off_c, 0, 69, 73
1, 122223, Note_off_c, 0, 73, 68
1, 122234, Note_off_c, 0, 77, 58
1, 122321, Note_on_c, 0, 77, 83
1, 122369, Note_off_c, 0, 77, 60
1, 122435, Note_on_c, 0, 45, 86
1, 122435, Note_on_c, 0, 89, 74
1, 122438, Note_on_c, 0, 33, 77
1, 122438, Note_on_c, 0, 85, 62
1, 122443, Note_on_c, 0, 81, 67
1, 122473, Note_off_c, 0, 33, 66
1, 122498, Note_off_c, 0, 45, 64
1, 122500, Note_off_c, 0, 81, 59
1, 122512, Note_off_c, 0, 85, 61
1, 122519, Note_off_c, 0, 89, 63
1, 122545, Note_on_c, 0, 77, 77
1, 122586, Note_off_c, 0, 77, 58
1, 122663, Note_on_c, 0, 73, 74
1, 122667, Note_on_c, 0, 77, 65
1, 122688, Note_off_c, 0, 73, 65
1, 122688, Note_off_c, 0, 77, 64
1, 122814, Note_on_c, 0, 67, 97
1, 122819, Note_on_c, 0, 61, 86
1, 122820, Note_on_c, 0, 57, 76
1, 122825, Note_on_c, 0, 55, 78
1, 122825, Control_c, 0, 64, 107
1, 122840, Control_c, 0, 64, 80
1, 122855, Control_c, 0, 64, 35
1, 122870, Control_c, 0, 64, 0
1, 122885, Control_c, 0, 64, 16
1, 122900, Control_c, 0, 64, 72
1, 122914, Note_off_c, 0, 67, 60
1, 122915, Control_c, 0, 64, 88
1, 122920, Note_on_c, 0, 76, 73
1, 122921, Note_on_c, 0, 73, 69
1, 122925, Note_on_c, 0, 79, 66
1, 122930, Control_c, 0, 64, 116
1, 122945, Control_c, 0, 64, 127
1, 122946, Note_off_c, 0, 73, 68
1, 122952, Note_off_c, 0, 61, 63
1, 122953, Note_off_c, 0, 76, 64
1, 122965, Note_off_c, 0, 57, 63
1, 122966, Note_off_c, 0, 55, 64
1, 122976, Note_off_c, 0, 79, 62
1, 123049, Note_on_c, 0, 79, 82
1, 123102, Note_off_c, 0, 79, 61
1, 123176, Note_on_c, 0, 45, 73
1, 123180, Note_on_c, 0, 33, 64
1, 123180, Note_on_c, 0, 91, 68
1, 123181, Note_on_c, 0, 88, 60
1, 123184, Note_on_c, 0, 85, 57
1, 123211, Note_off_c, 0, 33, 64
1, 123229, Note_off_c, 0, 45, 60
1, 123235, Note_off_c, 0, 85, 62
1, 123243, Note_off_c, 0, 91, 59
1, 123246, Note_off_c, 0, 88, 60
1, 123275, Note_on_c, 0, 79, 72
1, 123302, Note_off_c, 0, 79, 63
1, 123418, Note_on_c, 0, 73, 59
1, 123422, Note_on_c, 0, 79, 46
1, 123446, Note_off_c, 0, 73, 58
1, 123451, Note_off_c, 0, 79, 50
1, 123585, Note_on_c, 0, 65, 64
1, 123589, Note_on_c, 0, 56, 56
1, 123598, Note_on_c, 0, 53, 48
1, 123606, Note_on_c, 0, 60, 52
1, 123620, Control_c, 0, 64, 94
1, 123634, Control_c, 0, 64, 69
1, 123649, Control_c, 0, 64, 0
1, 123679, Control_c, 0, 64, 39
1, 123690, Note_off_c, 0, 65, 65
1, 123694, Control_c, 0, 64, 70
1, 123700, Note_on_c, 0, 72, 66
1, 123705, Note_on_c, 0, 77, 62
1, 123710, Control_c, 0, 64, 84
1, 123711, Note_off_c, 0, 60, 63
1, 123724, Control_c, 0, 64, 104
1, 123727, Note_off_c, 0, 53, 66
1, 123727, Note_off_c, 0, 72, 69
1, 123735, Note_off_c, 0, 56, 62
1, 123739, Note_off_c, 0, 77, 60
1, 123739, Control_c, 0, 64, 127
1, 123830, Note_on_c, 0, 77, 75
1, 123882, Note_off_c, 0, 77, 56
1, 123934, Note_on_c, 0, 44, 63
1, 123934, Note_on_c, 0, 56, 67
1, 123937, Note_on_c, 0, 89, 65
1, 123945, Note_on_c, 0, 84, 64
1, 123969, Note_off_c, 0, 44, 64
1, 123988, Note_off_c, 0, 84, 60
1, 123994, Note_off_c, 0, 56, 56
1, 124013, Note_off_c, 0, 89, 64
1, 124050, Note_on_c, 0, 77, 74
1, 124091, Note_off_c, 0, 77, 56
1, 124163, Note_on_c, 0, 77, 67
1, 124169, Note_on_c, 0, 72, 66
1, 124188, Note_off_c, 0, 72, 65
1, 124205, Note_off_c, 0, 77, 52
1, 124292, Note_on_c, 0, 64, 79
1, 124293, Note_on_c, 0, 67, 89
1, 124295, Control_c, 0, 64, 122
1, 124300, Note_on_c, 0, 55, 63
1, 124302, Note_on_c, 0, 60, 70
1, 124310, Control_c, 0, 64, 91
1, 124325, Control_c, 0, 64, 67
1, 124339, Control_c, 0, 64, 0
1, 124366, Note_off_c, 0, 67, 61
1, 124369, Control_c, 0, 64, 62
1, 124383, Control_c, 0, 64, 76
1, 124390, Note_on_c, 0, 72, 75
1, 124393, Note_off_c, 0, 64, 63
1, 124396, Note_on_c, 0, 76, 74
1, 124397, Note_on_c, 0, 79, 70
1, 124398, Control_c, 0, 64, 94
1, 124413, Note_off_c, 0, 72, 70
1, 124413, Control_c, 0, 64, 122
1, 124414, Note_off_c, 0, 60, 63
1, 124426, Note_off_c, 0, 76, 65
1, 124428, Control_c, 0, 64, 127
1, 124430, Note_off_c, 0, 55, 65
1, 124447, Note_off_c, 0, 79, 62
1, 124513, Note_on_c, 0, 79, 79
1, 124568, Note_off_c, 0, 79, 63
1, 124635, Note_on_c, 0, 91, 79
1, 124636, Note_on_c, 0, 43, 75
1, 124638, Note_on_c, 0, 55, 89
1, 124641, Note_on_c, 0, 84, 68
1, 124641, Note_on_c, 0, 88, 74
1, 124671, Note_off_c, 0, 43, 65
1, 124687, Note_off_c, 0, 55, 64
1, 124694, Note_off_c, 0, 84, 63
1, 124715, Note_off_c, 0, 88, 60
1, 124715, Note_off_c, 0, 91, 61
1, 124743, Note_on_c, 0, 79, 76
1, 124784, Note_off_c, 0, 79, 61
1, 124846, Note_on_c, 0, 79, 63
1, 124855, Note_on_c, 0, 72, 75
1, 124858, Note_on_c, 0, 76, 67
1, 124879, Note_off_c, 0, 72, 67
1, 124880, Note_off_c, 0, 76, 72
1, 124903, Note_off_c, 0, 79, 63
1, 124986, Note_on_c, 0, 69, 97
1, 124987, Note_on_c, 0, 63, 89
1, 124993, Note_on_c, 0, 60, 83
1, 124995, Note_on_c, 0, 57, 79
1, 124999, Control_c, 0, 64, 86
1, 125013, Control_c, 0, 64, 59
1, 125022, Note_on_c, 0, 80, 15
1, 125028, Control_c, 0, 64, 0
1, 125050, Note_off_c, 0, 80, 46
1, 125058, Control_c, 0, 64, 65
1, 125060, Note_off_c, 0, 69, 64
1, 125073, Control_c, 0, 64, 79
1, 125087, Note_on_c, 0, 72, 78
1, 125087, Control_c, 0, 64, 100
1, 125088, Note_on_c, 0, 81, 79
1, 125090, Note_on_c, 0, 75, 77
1, 125094, Note_off_c, 0, 63, 63
1, 125102, Control_c, 0, 64, 127
1, 125104, Note_off_c, 0, 60, 63
1, 125109, Note_off_c, 0, 72, 71
1, 125109, Note_off_c, 0, 57, 64
1, 125132, Note_off_c, 0, 75, 64
1, 125145, Note_off_c, 0, 81, 61
1, 125213, Note_on_c, 0, 81, 91
1, 125266, Note_off_c, 0, 81, 62
1, 125284, Poly_aftertouch_c, 0, 46, 127
1, 125329, Note_on_c, 0, 93, 82
1, 125339, Note_on_c, 0, 54, 96
1, 125341, Note_on_c, 0, 84, 70
1, 125343, Note_on_c, 0, 42, 80
1, 125347, Note_on_c, 0, 87, 70
1, 125377, Note_off_c, 0, 42, 66
1, 125383, Poly_aftertouch_c, 0, 46, 0
1, 125402, Note_off_c, 0, 54, 62
1, 125412, Note_off_c, 0, 84, 62
1, 125412, Note_off_c, 0, 87, 62
1, 125416, Note_off_c, 0, 93, 60
1, 125440, Note_on_c, 0, 81, 87
1, 125485, Note_off_c, 0, 81, 62
1, 125565, Note_on_c, 0, 72, 82
1, 125565, Note_on_c, 0, 81, 81
1, 125595, Note_off_c, 0, 72, 66
1, 125602, Note_on_c, 0, 76, 46
1, 125626, Note_off_c, 0, 76, 52
1, 125627, Note_off_c, 0, 81, 55
1, 125702, Control_c, 0, 64, 103
1, 125708, Note_on_c, 0, 71, 98
1, 125709, Note_on_c, 0, 67, 89
1, 125714, Note_on_c, 0, 59, 75
1, 125717, Control_c, 0, 64, 77
1, 125718, Note_on_c, 0, 62, 75
1, 125732, Control_c, 0, 64, 30
1, 125747, Control_c, 0, 64, 0
1, 125761, Control_c, 0, 64, 62
1, 125774, Note_off_c, 0, 71, 62
1, 125776, Control_c, 0, 64, 77
1, 125791, Control_c, 0, 64, 94
1, 125797, Note_off_c, 0, 67, 62
1, 125806, Control_c, 0, 64, 118
1, 125810, Note_on_c, 0, 74, 83
1, 125812, Note_on_c, 0, 83, 75
1, 125814, Note_on_c, 0, 79, 84
1, 125821, Control_c, 0, 64, 127
1, 125824, Note_off_c, 0, 62, 60
1, 125833, Note_off_c, 0, 74, 65
1, 125838, Note_off_c, 0, 59, 62
1, 125860, Note_off_c, 0, 79, 61
1, 125866, Note_off_c, 0, 83, 60
1, 125936, Note_on_c, 0, 83, 83
1, 125989, Note_off_c, 0, 83, 59
1, 126055, Note_on_c, 0, 41, 77
1, 126055, Note_on_c, 0, 53, 95
1, 126055, Note_on_c, 0, 95, 86
1, 126059, Note_on_c, 0, 86, 77
1, 126060, Note_on_c, 0, 91, 72
1, 126089, Note_off_c, 0, 41, 70
1, 126116, Note_off_c, 0, 86, 62
1, 126118, Note_off_c, 0, 53, 66
1, 126133, Note_off_c, 0, 95, 63
1, 126140, Note_off_c, 0, 91, 57
1, 126165, Note_on_c, 0, 83, 76
1, 126211, Note_off_c, 0, 83, 59
1, 126271, Note_on_c, 0, 74, 85
1, 126272, Note_on_c, 0, 83, 67
1, 126283, Note_on_c, 0, 79, 64
1, 126307, Note_off_c, 0, 74, 57
1, 126310, Note_off_c, 0, 79, 66
1, 126339, Note_off_c, 0, 83, 59
1, 126407, Control_c, 0, 64, 93
1, 126422, Control_c, 0, 64, 65
1, 126426, Note_on_c, 0, 72, 97
1, 126429, Note_on_c, 0, 67, 84
1, 126432, Note_on_c, 0, 64, 81
1, 126434, Note_on_c, 0, 60, 81
1, 126437, Control_c, 0, 64, 0
1, 126481, Control_c, 0, 64, 68
1, 126482, Note_off_c, 0, 72, 66
1, 126496, Control_c, 0, 64, 89
1, 126511, Control_c, 0, 64, 127
1, 126513, Note_off_c, 0, 67, 64
1, 126526, Note_off_c, 0, 64, 64
1, 126530, Note_on_c, 0, 76, 86
1, 126531, Note_on_c, 0, 84, 85
1, 126532, Note_on_c, 0, 79, 82
1, 126540, Note_off_c, 0, 60, 62
1, 126557, Note_off_c, 0, 76, 65
1, 126571, Note_off_c, 0, 79, 59
1, 126593, Note_off_c, 0, 84, 64
1, 126659, Note_on_c, 0, 84, 85
1, 126720, Note_off_c, 0, 84, 59
1, 126776, Note_on_c, 0, 96, 87
1, 126779, Note_on_c, 0, 52, 97
1, 126779, Note_on_c, 0, 91, 68
1, 126782, Note_on_c, 0, 40, 81
1, 126785, Note_on_c, 0, 88, 81
1, 126802, Note_on_c, 0, 47, 55
1, 126815, Note_off_c, 0, 40, 67
1, 126831, Note_off_c, 0, 47, 58
1, 126842, Note_off_c, 0, 52, 68
1, 126846, Note_off_c, 0, 88, 61
1, 126854, Note_off_c, 0, 91, 58
1, 126864, Note_off_c, 0, 96, 62
1, 126888, Note_on_c, 0, 84, 85
1, 126938, Note_off_c, 0, 84, 65
1, 126998, Note_on_c, 0, 76, 87
1, 127001, Note_on_c, 0, 84, 73
1, 127005, Note_on_c, 0, 79, 77
1, 127032, Note_off_c, 0, 79, 62
1, 127044, Note_off_c, 0, 76, 63
1, 127079, Note_off_c, 0, 84, 62
1, 127142, Control_c, 0, 64, 105
1, 127151, Note_on_c, 0, 71, 89
1, 127152, Note_on_c, 0, 74, 97
1, 127157, Control_c, 0, 64, 76
1, 127161, Note_on_c, 0, 62, 77
1, 127161, Note_on_c, 0, 67, 77
1, 127166, Note_on_c, 0, 65, 76
1, 127172, Control_c, 0, 64, 0
1, 127201, Control_c, 0, 64, 29
1, 127216, Control_c, 0, 64, 69
1, 127231, Control_c, 0, 64, 86
1, 127245, Note_off_c, 0, 74, 63
1, 127246, Control_c, 0, 64, 115
1, 127261, Control_c, 0, 64, 127
1, 127269, Note_off_c, 0, 71, 60
1, 127275, Note_on_c, 0, 86, 84
1, 127276, Note_on_c, 0, 83, 84
1, 127277, Note_on_c, 0, 77, 75
1, 127297, Note_off_c, 0, 77, 67
1, 127297, Note_off_c, 0, 67, 63
1, 127303, Note_off_c, 0, 65, 64
1, 127312, Note_off_c, 0, 62, 61
1, 127316, Note_off_c, 0, 83, 61
1, 127323, Note_off_c, 0, 86, 66
1, 127400, Note_on_c, 0, 86, 96
1, 127486, Note_off_c, 0, 86, 58
1, 127556, Note_on_c, 0, 89, 86
1, 127559, Note_on_c, 0, 98, 93
1, 127560, Note_on_c, 0, 95, 89
1, 127563, Note_on_c, 0, 50, 96
1, 127568, Note_on_c, 0, 38, 82
1, 127649, Note_off_c, 0, 38, 63
1, 127657, Note_off_c, 0, 98, 62
1, 127660, Note_off_c, 0, 89, 63
1, 127677, Note_off_c, 0, 50, 60
1, 127687, Note_off_c, 0, 95, 64
1, 127695, Note_on_c, 0, 86, 89
1, 127717, Poly_aftertouch_c, 0, 45, 0
1, 127744, Note_off_c, 0, 86, 65
1, 127826, Note_on_c, 0, 77, 99
1, 127830, Note_on_c, 0, 83, 82
1, 127830, Note_on_c, 0, 86, 85
1, 127872, Note_off_c, 0, 77, 61
1, 127886, Note_off_c, 0, 83, 58
1, 127896, Note_off_c, 0, 86, 59
1, 128087, Note_on_c, 0, 84, 84
1, 128088, Note_on_c, 0, 76, 101
1, 128089, Note_on_c, 0, 88, 95
1, 128092, Note_on_c, 0, 60, 81
1, 128092, Note_on_c, 0, 79, 90
1, 128093, Note_on_c, 0, 72, 97
1, 128095, Poly_aftertouch_c, 0, 78, 0
1, 128095, Note_on_c, 0, 67, 86
1, 128097, Note_on_c, 0, 64, 83
1, 128113, Control_c, 0, 64, 98
1, 128128, Control_c, 0, 64, 70
1, 128143, Control_c, 0, 64, 0
1, 128217, Control_c, 0, 64, 60
1, 128220, Note_off_c, 0, 72, 62
1, 128232, Control_c, 0, 64, 79
1, 128247, Control_c, 0, 64, 104
1, 128256, Note_off_c, 0, 67, 60
1, 128256, Note_off_c, 0, 88, 61
1, 128262, Control_c, 0, 64, 127
1, 128268, Note_off_c, 0, 64, 63
1, 128276, Note_off_c, 0, 76, 62
1, 128284, Note_off_c, 0, 60, 62
1, 128298, Note_off_c, 0, 84, 63
1, 128301, Note_off_c, 0, 79, 57
1, 128612, Note_on_c, 0, 72, 70
1, 128617, Note_on_c, 0, 64, 62
1, 128622, Note_on_c, 0, 36, 60
1, 128622, Note_on_c, 0, 67, 67
1, 128716, Note_off_c, 0, 36, 62
1, 128739, Note_off_c, 0, 64, 61
1, 128742, Note_on_c, 0, 48, 67
1, 128768, Note_off_c, 0, 67, 54
1, 128773, Note_off_c, 0, 48, 65
1, 128785, Note_off_c, 0, 72, 59
1, 128862, Note_on_c, 0, 48, 70
1, 129000, Note_off_c, 0, 48, 61
1, 129010, Note_on_c, 0, 64, 78
1, 129010, Note_on_c, 0, 67, 79
1, 129011, Note_on_c, 0, 76, 76
1, 129015, Note_on_c, 0, 72, 70
1, 129020, Note_on_c, 0, 52, 65
1, 129021, Note_on_c, 0, 60, 70
1, 129022, Note_on_c, 0, 55, 67
1, 129063, Note_off_c, 0, 64, 62
1, 129079, Note_off_c, 0, 60, 57
1, 129097, Note_off_c, 0, 67, 60
1, 129118, Note_off_c, 0, 55, 62
1, 129120, Note_off_c, 0, 72, 62
1, 129125, Note_off_c, 0, 76, 63
1, 129135, Note_on_c, 0, 48, 77
1, 129156, Note_off_c, 0, 52, 64
1, 129169, Note_off_c, 0, 48, 67
1, 129255, Note_on_c, 0, 48, 79
1, 129354, Note_off_c, 0, 48, 58
1, 129399, Note_on_c, 0, 67, 93
1, 129400, Note_on_c, 0, 72, 84
1, 129401, Note_on_c, 0, 76, 78
1, 129402, Note_on_c, 0, 79, 84
1, 129404, Note_on_c, 0, 36, 76
1, 129443, Note_off_c, 0, 67, 63
1, 129479, Note_off_c, 0, 72, 63
1, 129492, Note_off_c, 0, 76, 64
1, 129501, Note_off_c, 0, 36, 62
1, 129502, Note_off_c, 0, 79, 59
1, 129526, Note_on_c, 0, 48, 72
1, 129548, Note_off_c, 0, 48, 72
1, 129658, Note_on_c, 0, 52, 82
1, 129789, Note_off_c, 0, 52, 61
1, 129797, Note_on_c, 0, 84, 89
1, 129800, Note_on_c, 0, 72, 89
1, 129804, Note_on_c, 0, 60, 78
1, 129804, Note_on_c, 0, 76, 82
1, 129806, Note_on_c, 0, 79, 81
1, 129807, Note_on_c, 0, 64, 78
1, 129808, Note_on_c, 0, 55, 67
1, 129868, Note_off_c, 0, 84, 63
1, 129869, Note_off_c, 0, 64, 61
1, 129889, Note_off_c, 0, 72, 60
1, 129897, Note_off_c, 0, 79, 60
1, 129905, Note_off_c, 0, 60, 58
1, 129908, Note_off_c, 0, 76, 61
1, 129932, Note_on_c, 0, 52, 82
1, 129953, Note_off_c, 0, 55, 65
1, 129963, Note_off_c, 0, 52, 69
1, 130072, Note_on_c, 0, 48, 84
1, 130212, Note_off_c, 0, 48, 63
1, 130236, Note_on_c, 0, 67, 90
1, 130237, Note_on_c, 0, 60, 90
1, 130241, Note_on_c, 0, 64, 79
1, 130245, Note_on_c, 0, 36, 83
1, 130314, Note_off_c, 0, 60, 59
1, 130377, Note_off_c, 0, 64, 57
1, 130407, Note_off_c, 0, 36, 58
1, 130411, Note_off_c, 0, 67, 53
1, 130448, Note_on_c, 0, 48, 94
1, 130483, Note_off_c, 0, 48, 66
1, 130745, Control_c, 0, 64, 88
1, 130752, Note_on_c, 0, 42, 96
1, 130758, Note_on_c, 0, 30, 87
1, 130760, Control_c, 0, 64, 0
1, 130826, Control_c, 0, 64, 44
1, 130841, Control_c, 0, 64, 78
1, 130856, Control_c, 0, 64, 108
1, 130861, Note_off_c, 0, 30, 63
1, 130871, Control_c, 0, 64, 127
1, 130906, Note_off_c, 0, 42, 62
1, 131303, Note_on_c, 0, 92, 98
1, 131303, Note_on_c, 0, 80, 101
1, 131304, Note_on_c, 0, 87, 90
1, 131306, Note_on_c, 0, 68, 86
1, 131306, Note_on_c, 0, 84, 91
1, 131307, Note_on_c, 0, 72, 89
1, 131310, Note_on_c, 0, 60, 77
1, 131311, Note_on_c, 0, 63, 77
1, 131358, Note_off_c, 0, 72, 63
1, 131397, Note_off_c, 0, 68, 62
1, 131410, Note_off_c, 0, 60, 60
1, 131417, Note_off_c, 0, 63, 63
1, 131630, Note_off_c, 0, 92, 56
1, 131679, Note_off_c, 0, 80, 53
1, 131713, Note_off_c, 0, 84, 58
1, 131721, Note_off_c, 0, 87, 59
1, 131729, Note_on_c, 0, 42, 91
1, 131731, Note_on_c, 0, 30, 82
1, 131771, Note_off_c, 0, 30, 64
1, 131807, Note_off_c, 0, 42, 63
1, 131821, Poly_aftertouch_c, 0, 32, 127
1, 131857, Poly_aftertouch_c, 0, 32, 0
1, 132111, Note_on_c, 0, 80, 88
1, 132112, Note_on_c, 0, 75, 88
1, 132112, Note_on_c, 0, 84, 89
1, 132113, Note_on_c, 0, 72, 90
1, 132117, Note_on_c, 0, 63, 80
1, 132117, Note_on_c, 0, 68, 89
1, 132118, Note_on_c, 0, 60, 77
1, 132120, Note_on_c, 0, 56, 76
1, 132161, Note_off_c, 0, 68, 63
1, 132185, Note_off_c, 0, 63, 63
1, 132191, Note_off_c, 0, 60, 62
1, 132214, Note_off_c, 0, 56, 65
1, 132539, Note_on_c, 0, 30, 84
1, 132540, Note_on_c, 0, 42, 89
1, 132591, Note_off_c, 0, 30, 65
1, 132614, Note_off_c, 0, 72, 62
1, 132633, Note_off_c, 0, 42, 63
1, 132639, Note_off_c, 0, 75, 63
1, 132659, Note_off_c, 0, 80, 63
1, 132669, Note_off_c, 0, 84, 62
1, 132957, Note_on_c, 0, 60, 87
1, 132958, Note_on_c, 0, 62, 95
1, 132958, Note_on_c, 0, 80, 91
1, 132958, Note_on_c, 0, 84, 86
1, 132959, Note_on_c, 0, 74, 95
1, 132960, Note_on_c, 0, 86, 86
1, 132965, Note_on_c, 0, 56, 76
1, 132968, Note_on_c, 0, 50, 62
1, 133007, Note_off_c, 0, 62, 61
1, 133024, Note_off_c, 0, 60, 62
1, 133068, Note_off_c, 0, 56, 64
1, 133081, Note_off_c, 0, 50, 63
1, 133423, Note_on_c, 0, 42, 94
1, 133429, Note_on_c, 0, 30, 77
1, 133472, Note_off_c, 0, 30, 62
1, 133515, Note_off_c, 0, 42, 63
1, 133536, Note_off_c, 0, 74, 59
1, 133547, Note_off_c, 0, 86, 58
1, 133585, Note_off_c, 0, 80, 60
1, 133592, Note_off_c, 0, 84, 59
1, 134001, Control_c, 0, 64, 115
1, 134001, Note_on_c, 0, 88, 92
1, 134002, Note_on_c, 0, 79, 86
1, 134004, Note_on_c, 0, 84, 84
1, 134005, Note_on_c, 0, 76, 90
1, 134009, Note_on_c, 0, 60, 88
1, 134009, Note_on_c, 0, 64, 96
1, 134012, Note_on_c, 0, 52, 80
1, 134014, Note_on_c, 0, 55, 70
1, 134016, Control_c, 0, 64, 84
1, 134030, Control_c, 0, 64, 33
1, 134045, Control_c, 0, 64, 0
1, 134090, Control_c, 0, 64, 56
1, 134104, Note_off_c, 0, 64, 62
1, 134105, Control_c, 0, 64, 77
1, 134120, Control_c, 0, 64, 100
1, 134127, Note_off_c, 0, 76, 63
1, 134133, Note_off_c, 0, 60, 60
1, 134135, Control_c, 0, 64, 127
1, 134148, Note_off_c, 0, 79, 63
1, 134162, Note_off_c, 0, 55, 64
1, 134167, Note_off_c, 0, 84, 62
1, 134172, Note_off_c, 0, 52, 66
1, 134177, Note_off_c, 0, 88, 63
1, 134394, Note_on_c, 0, 91, 95
1, 134396, Note_on_c, 0, 43, 93
1, 134397, Note_on_c, 0, 79, 91
1, 134398, Note_on_c, 0, 31, 78
1, 134425, Note_on_c, 0, 81, 55
1, 134441, Note_on_c, 0, 88, 31
1, 134442, Note_off_c, 0, 88, 127
1, 134448, Note_off_c, 0, 81, 43
1, 134450, Note_off_c, 0, 31, 62
1, 134484, Note_off_c, 0, 43, 60
1, 134489, Note_off_c, 0, 79, 59
1, 134501, Note_off_c, 0, 91, 59
1, 134673, Note_on_c, 0, 90, 93
1, 134676, Note_on_c, 0, 57, 87
1, 134677, Note_on_c, 0, 78, 97
1, 134681, Note_on_c, 0, 45, 77
1, 134727, Note_off_c, 0, 45, 63
1, 134744, Note_off_c, 0, 78, 61
1, 134749, Note_off_c, 0, 57, 55
1, 134758, Note_off_c, 0, 90, 63
1, 134911, Note_on_c, 0, 59, 87
1, 134912, Note_on_c, 0, 55, 78
1, 134913, Note_on_c, 0, 77, 92
1, 134913, Control_c, 0, 64, 105
1, 134913, Note_on_c, 0, 89, 91
1, 134915, Note_on_c, 0, 47, 72
1, 134916, Note_on_c, 0, 86, 83
1, 134928, Control_c, 0, 64, 78
1, 134943, Control_c, 0, 64, 45
1, 134958, Control_c, 0, 64, 0
1, 134972, Control_c, 0, 64, 65
1, 134987, Control_c, 0, 64, 79
1, 135002, Control_c, 0, 64, 98
1, 135005, Note_off_c, 0, 47, 62
1, 135011, Note_off_c, 0, 77, 60
1, 135016, Control_c, 0, 64, 127
1, 135020, Note_off_c, 0, 59, 59
1, 135020, Note_off_c, 0, 89, 63
1, 135038, Note_off_c, 0, 86, 62
1, 135111, Note_on_c, 0, 88, 91
1, 135113, Note_on_c, 0, 60, 87
1, 135113, Note_on_c, 0, 76, 94
1, 135122, Note_on_c, 0, 48, 70
1, 135180, Note_off_c, 0, 76, 60
1, 135190, Note_off_c, 0, 48, 63
1, 135190, Note_off_c, 0, 88, 62
1, 135190, Note_off_c, 0, 60, 57
1, 135276, Note_on_c, 0, 86, 93
1, 135279, Note_on_c, 0, 74, 93
1, 135279, Note_on_c, 0, 62, 85
1, 135284, Note_on_c, 0, 50, 70
1, 135298, Note_off_c, 0, 55, 61
1, 135327, Note_off_c, 0, 50, 64
1, 135337, Note_off_c, 0, 62, 60
1, 135348, Note_off_c, 0, 74, 55
1, 135372, Note_off_c, 0, 86, 60
1, 135497, Control_c, 0, 64, 122
1, 135500, Note_on_c, 0, 72, 85
1, 135500, Note_on_c, 0, 84, 88
1, 135503, Note_on_c, 0, 79, 76
1, 135505, Note_on_c, 0, 64, 84
1, 135509, Note_on_c, 0, 60, 66
1, 135512, Control_c, 0, 64, 92
1, 135515, Note_on_c, 0, 52, 63
1, 135520, Note_on_c, 0, 55, 56
1, 135527, Control_c, 0, 64, 66
1, 135542, Control_c, 0, 64, 20
1, 135557, Control_c, 0, 64, 63
1, 135571, Control_c, 0, 64, 74
1, 135586, Note_off_c, 0, 64, 62
1, 135586, Control_c, 0, 64, 88
1, 135601, Control_c, 0, 64, 107
1, 135607, Note_off_c, 0, 60, 59
1, 135615, Note_off_c, 0, 72, 63
1, 135615, Control_c, 0, 64, 127
1, 135620, Note_off_c, 0, 55, 63
1, 135623, Note_off_c, 0, 84, 62
1, 135625, Note_off_c, 0, 52, 65
1, 135636, Note_off_c, 0, 79, 61
1, 135706, Note_on_c, 0, 62, 83
1, 135707, Note_on_c, 0, 83, 93
1, 135710, Note_on_c, 0, 71, 86
1, 135717, Note_on_c, 0, 50, 66
1, 135755, Note_off_c, 0, 50, 58
1, 135764, Note_off_c, 0, 71, 56
1, 135769, Note_off_c, 0, 62, 60
1, 135781, Note_off_c, 0, 83, 59
1, 135873, Note_on_c, 0, 81, 90
1, 135874, Note_on_c, 0, 69, 93
1, 135882, Note_on_c, 0, 64, 78
1, 135888, Note_on_c, 0, 52, 60
1, 135908, Note_off_c, 0, 52, 61
1, 135919, Note_off_c, 0, 64, 57
1, 135928, Note_off_c, 0, 69, 60
1, 135966, Note_off_c, 0, 81, 57
1, 136112, Control_c, 0, 64, 97
1, 136123, Note_on_c, 0, 83, 80
1, 136123, Note_on_c, 0, 71, 79
1, 136127, Control_c, 0, 64, 74
1, 136130, Note_on_c, 0, 65, 74
1, 136132, Note_on_c, 0, 77, 65
1, 136138, Note_on_c, 0, 53, 56
1, 136139, Note_on_c, 0, 59, 58
1, 136142, Note_on_c, 0, 55, 56
1, 136142, Control_c, 0, 64, 0
1, 136186, Control_c, 0, 64, 68
1, 136201, Control_c, 0, 64, 84
1, 136216, Control_c, 0, 64, 103
1, 136227, Note_off_c, 0, 65, 64
1, 136231, Control_c, 0, 64, 123
1, 136245, Note_off_c, 0, 71, 58
1, 136245, Note_off_c, 0, 83, 59
1, 136245, Control_c, 0, 64, 127
1, 136263, Note_off_c, 0, 59, 62
1, 136277, Note_off_c, 0, 77, 60
1, 136287, Note_off_c, 0, 55, 64
1, 136290, Note_off_c, 0, 53, 65
1, 136351, Note_on_c, 0, 81, 90
1, 136354, Note_on_c, 0, 69, 85
1, 136437, Note_off_c, 0, 69, 61
1, 136452, Note_off_c, 0, 81, 57
1, 136552, Note_on_c, 0, 43, 89
1, 136554, Note_on_c, 0, 79, 88
1, 136557, Note_on_c, 0, 31, 74
1, 136558, Note_on_c, 0, 67, 91
1, 136611, Note_off_c, 0, 67, 58
1, 136617, Note_off_c, 0, 31, 63
1, 136645, Poly_aftertouch_c, 0, 33, 127
1, 136651, Note_off_c, 0, 43, 60
1, 136651, Note_off_c, 0, 79, 61
1, 136683, Poly_aftertouch_c, 0, 33, 0
1, 136729, Note_on_c, 0, 81, 90
1, 136731, Note_on_c, 0, 69, 88
1, 136783, Note_off_c, 0, 69, 60
1, 136847, Note_off_c, 0, 81, 54
1, 136951, Control_c, 0, 64, 125
1, 136955, Note_on_c, 0, 57, 95
1, 136958, Note_on_c, 0, 71, 93
1, 136958, Note_on_c, 0, 77, 85
1, 136958, Note_on_c, 0, 83, 90
1, 136966, Control_c, 0, 64, 90
1, 136968, Note_on_c, 0, 45, 80
1, 136981, Control_c, 0, 64, 69
1, 136995, Control_c, 0, 64, 53
1, 137010, Control_c, 0, 64, 66
1, 137025, Control_c, 0, 64, 78
1, 137040, Control_c, 0, 64, 96
1, 137055, Note_off_c, 0, 71, 57
1, 137055, Control_c, 0, 64, 127
1, 137080, Note_off_c, 0, 57, 61
1, 137081, Note_off_c, 0, 83, 57
1, 137087, Note_off_c, 0, 77, 59
1, 137125, Note_off_c, 0, 45, 64
1, 137167, Note_on_c, 0, 84, 94
1, 137170, Note_on_c, 0, 72, 98
1, 137239, Note_off_c, 0, 72, 60
1, 137270, Note_off_c, 0, 84, 62
1, 137352, Note_on_c, 0, 43, 95
1, 137354, Note_on_c, 0, 86, 97
1, 137357, Note_on_c, 0, 74, 90
1, 137360, Note_on_c, 0, 31, 80
1, 137426, Note_off_c, 0, 31, 63
1, 137430, Note_off_c, 0, 74, 60
1, 137439, Poly_aftertouch_c, 0, 38, 127
1, 137457, Note_off_c, 0, 86, 62
1, 137467, Note_off_c, 0, 43, 59
1, 137468, Poly_aftertouch_c, 0, 38, 0
1, 137538, Note_on_c, 0, 88, 94
1, 137542, Note_on_c, 0, 76, 92
1, 137596, Note_off_c, 0, 76, 64
1, 137631, Note_off_c, 0, 88, 62
1, 137773, Note_on_c, 0, 86, 89
1, 137774, Note_on_c, 0, 59, 96
1, 137774, Note_on_c, 0, 89, 96
1, 137775, Note_on_c, 0, 77, 98
1, 137782, Note_on_c, 0, 47, 84
1, 137789, Control_c, 0, 64, 102
1, 137804, Control_c, 0, 64, 76
1, 137818, Control_c, 0, 64, 34
1, 137833, Control_c, 0, 64, 39
1, 137848, Control_c, 0, 64, 69
1, 137852, Note_off_c, 0, 77, 59
1, 137863, Control_c, 0, 64, 83
1, 137878, Control_c, 0, 64, 105
1, 137880, Note_off_c, 0, 86, 54
1, 137892, Control_c, 0, 64, 127
1, 137897, Note_off_c, 0, 89, 64
1, 137930, Note_off_c, 0, 59, 53
1, 137984, Note_on_c, 0, 91, 98
1, 137986, Note_on_c, 0, 79, 98
1, 138000, Note_off_c, 0, 47, 64
1, 138044, Note_off_c, 0, 79, 46
1, 138095, Note_off_c, 0, 91, 57
1, 138228, Note_on_c, 0, 89, 84
1, 138229, Note_on_c, 0, 93, 98
1, 138231, Note_on_c, 0, 43, 97
1, 138231, Note_on_c, 0, 81, 98
1, 138236, Note_on_c, 0, 31, 91
1, 138310, Note_off_c, 0, 89, 63
1, 138324, Note_off_c, 0, 81, 56
1, 138347, Note_off_c, 0, 93, 60
1, 138458, Note_off_c, 0, 43, 50
1, 138505, Note_off_c, 0, 31, 58
1, 138517, Note_on_c, 0, 95, 101
1, 138517, Note_on_c, 0, 83, 101
1, 138544, Note_on_c, 0, 92, 53
1, 138579, Note_off_c, 0, 92, 46
1, 138600, Note_off_c, 0, 83, 55
1, 138660, Note_off_c, 0, 95, 57
1, 138916, Note_on_c, 0, 96, 98
1, 138917, Note_on_c, 0, 84, 102
1, 138917, Note_on_c, 0, 88, 87
1, 138918, Note_on_c, 0, 36, 94
1, 138924, Note_on_c, 0, 24, 89
1, 138982, Control_c, 0, 64, 90
1, 138997, Control_c, 0, 64, 63
1, 139012, Control_c, 0, 64, 0
1, 139124, Control_c, 0, 64, 66
1, 139129, Note_off_c, 0, 24, 63
1, 139138, Control_c, 0, 64, 84
1, 139153, Control_c, 0, 64, 120
1, 139168, Control_c, 0, 64, 127
1, 139178, Note_off_c, 0, 36, 63
1, 139197, Note_off_c, 0, 96, 62
1, 139217, Note_off_c, 0, 84, 58
1, 139258, Note_off_c, 0, 88, 56
1, 139444, Note_on_c, 0, 52, 52
1, 139450, Control_c, 0, 67, 8
1, 139464, Control_c, 0, 67, 16
1, 139479, Control_c, 0, 67, 33
1, 139494, Control_c, 0, 67, 61
1, 139508, Control_c, 0, 67, 95
1, 139523, Control_c, 0, 67, 127
1, 139575, Note_on_c, 0, 55, 51
1, 139579, Note_off_c, 0, 52, 58
1, 139649, Note_off_c, 0, 55, 62
1, 139685, Note_on_c, 0, 60, 59
1, 139721, Note_off_c, 0, 60, 62
1, 139797, Note_on_c, 0, 64, 61
1, 139870, Note_off_c, 0, 64, 59
1, 139888, Note_on_c, 0, 67, 58
1, 139964, Note_off_c, 0, 67, 58
1, 139980, Note_on_c, 0, 72, 55
1, 140049, Note_off_c, 0, 72, 49
1, 140070, Note_on_c, 0, 76, 46
1, 140158, Note_on_c, 0, 48, 50
1, 140160, Note_off_c, 0, 76, 49
1, 140219, Note_off_c, 0, 48, 63
1, 140241, Note_on_c, 0, 52, 54
1, 140298, Note_off_c, 0, 52, 58
1, 140321, Note_on_c, 0, 55, 48
1, 140364, Note_off_c, 0, 55, 59
1, 140397, Note_on_c, 0, 60, 52
1, 140418, Note_off_c, 0, 60, 60
1, 140500, Note_on_c, 0, 64, 55
1, 140560, Note_off_c, 0, 64, 57
1, 140590, Note_on_c, 0, 67, 52
1, 140639, Note_off_c, 0, 67, 57
1, 140666, Note_on_c, 0, 72, 52
1, 140747, Note_on_c, 0, 76, 49
1, 140776, Note_off_c, 0, 72, 49
1, 140797, Note_off_c, 0, 76, 57
1, 140830, Note_on_c, 0, 48, 53
1, 140890, Note_off_c, 0, 48, 63
1, 140905, Note_on_c, 0, 52, 54
1, 140994, Note_on_c, 0, 55, 45
1, 140996, Note_off_c, 0, 52, 59
1, 141050, Note_off_c, 0, 55, 55
1, 141056, Note_on_c, 0, 60, 51
1, 141082, Note_off_c, 0, 60, 58
1, 141138, Note_on_c, 0, 64, 54
1, 141193, Note_off_c, 0, 64, 54
1, 141222, Note_on_c, 0, 67, 52
1, 141293, Note_off_c, 0, 67, 58
1, 141317, Note_on_c, 0, 72, 52
1, 141366, Note_off_c, 0, 72, 55
1, 141404, Note_on_c, 0, 76, 49
1, 141447, Note_off_c, 0, 76, 47
1, 141716, Note_on_c, 0, 64, 78
1, 141730, Note_on_c, 0, 45, 43
1, 141814, Control_c, 0, 64, 96
1, 141829, Control_c, 0, 64, 72
1, 141844, Control_c, 0, 64, 0
1, 141888, Control_c, 0, 64, 23
1, 141892, Note_on_c, 0, 52, 52
1, 141900, Note_off_c, 0, 45, 53
1, 141903, Control_c, 0, 64, 71
1, 141918, Control_c, 0, 64, 87
1, 141933, Control_c, 0, 64, 115
1, 141948, Control_c, 0, 64, 127
1, 142001, Note_off_c, 0, 52, 65
1, 142005, Note_on_c, 0, 57, 59
1, 142052, Note_off_c, 0, 57, 59
1, 142116, Note_on_c, 0, 60, 51
1, 142137, Note_off_c, 0, 60, 61
1, 142163, Note_off_c, 0, 64, 56
1, 142181, Note_on_c, 0, 69, 64
1, 142262, Note_off_c, 0, 69, 61
1, 142276, Note_on_c, 0, 72, 57
1, 142340, Note_off_c, 0, 72, 61
1, 142366, Note_on_c, 0, 76, 52
1, 142505, Note_on_c, 0, 67, 80
1, 142518, Note_on_c, 0, 52, 46
1, 142565, Note_off_c, 0, 76, 56
1, 142578, Control_c, 0, 64, 113
1, 142593, Control_c, 0, 64, 89
1, 142607, Control_c, 0, 64, 63
1, 142622, Control_c, 0, 64, 0
1, 142645, Note_on_c, 0, 55, 45
1, 142667, Control_c, 0, 64, 53
1, 142681, Control_c, 0, 64, 72
1, 142695, Note_off_c, 0, 52, 60
1, 142696, Control_c, 0, 64, 89
1, 142711, Control_c, 0, 64, 108
1, 142726, Control_c, 0, 64, 127
1, 142735, Note_on_c, 0, 60, 57
1, 142744, Note_off_c, 0, 55, 64
1, 142785, Note_off_c, 0, 60, 59
1, 142845, Note_on_c, 0, 64, 47
1, 142867, Note_off_c, 0, 64, 58
1, 142895, Note_off_c, 0, 67, 58
1, 142907, Note_on_c, 0, 72, 56
1, 142979, Note_off_c, 0, 72, 62
1, 142995, Note_on_c, 0, 76, 56
1, 143052, Note_off_c, 0, 76, 52
1, 143083, Note_on_c, 0, 79, 56
1, 143104, Note_off_c, 0, 79, 62
1, 143256, Note_on_c, 0, 62, 71
1, 143273, Note_on_c, 0, 43, 40
1, 143342, Control_c, 0, 64, 101
1, 143357, Control_c, 0, 64, 79
1, 143372, Control_c, 0, 64, 0
1, 143405, Note_off_c, 0, 43, 53
1, 143413, Note_on_c, 0, 50, 49
1, 143417, Control_c, 0, 64, 70
1, 143431, Control_c, 0, 64, 84
1, 143446, Control_c, 0, 64, 105
1, 143461, Control_c, 0, 64, 127
1, 143504, Note_off_c, 0, 50, 62
1, 143517, Note_on_c, 0, 55, 55
1, 143563, Note_off_c, 0, 55, 63
1, 143611, Note_on_c, 0, 59, 57
1, 143644, Note_off_c, 0, 59, 63
1, 143651, Note_off_c, 0, 62, 55
1, 143694, Note_on_c, 0, 67, 54
1, 143757, Note_off_c, 0, 67, 61
1, 143784, Note_on_c, 0, 71, 56
1, 143841, Note_off_c, 0, 71, 46
1, 143858, Note_on_c, 0, 74, 59
1, 143885, Note_off_c, 0, 74, 69
1, 144104, Note_on_c, 0, 64, 54
1, 144119, Note_on_c, 0, 55, 52
1, 144123, Note_on_c, 0, 60, 49
1, 144124, Note_on_c, 0, 36, 38
1, 144150, Control_c, 0, 64, 105
1, 144164, Control_c, 0, 64, 84
1, 144179, Control_c, 0, 64, 61
1, 144194, Control_c, 0, 64, 0
1, 144231, Note_off_c, 0, 55, 62
1, 144239, Control_c, 0, 64, 68
1, 144253, Control_c, 0, 64, 81
1, 144264, Note_off_c, 0, 60, 60
1, 144268, Control_c, 0, 64, 100
1, 144283, Control_c, 0, 64, 123
1, 144305, Control_c, 0, 64, 127
1, 144309, Note_off_c, 0, 64, 64
1, 144352, Note_off_c, 0, 36, 40
1, 144452, Note_on_c, 0, 64, 51
1, 144487, Note_off_c, 0, 64, 65
1, 144505, Note_on_c, 0, 67, 60
1, 144547, Note_off_c, 0, 67, 59
1, 144548, Note_on_c, 0, 72, 61
1, 144567, Note_on_c, 0, 60, 55
1, 144585, Note_off_c, 0, 72, 63
1, 144607, Note_off_c, 0, 60, 54
1, 144661, Note_on_c, 0, 55, 51
1, 144703, Note_off_c, 0, 55, 58
1, 144770, Note_on_c, 0, 64, 60
1, 144775, Note_on_c, 0, 52, 43
1, 144806, Note_off_c, 0, 64, 65
1, 144824, Note_on_c, 0, 67, 56
1, 144854, Note_on_c, 0, 72, 59
1, 144864, Note_off_c, 0, 67, 61
1, 144893, Note_off_c, 0, 72, 60
1, 144894, Note_on_c, 0, 76, 57
1, 144914, Note_off_c, 0, 76, 67
1, 144982, Note_on_c, 0, 55, 44
1, 145036, Note_off_c, 0, 52, 35
1, 145058, Note_off_c, 0, 55, 41
1, 145079, Note_on_c, 0, 60, 50
1, 145126, Note_on_c, 0, 67, 60
1, 145164, Note_off_c, 0, 67, 64
1, 145179, Note_on_c, 0, 72, 56
1, 145200, Note_on_c, 0, 76, 61
1, 145215, Note_off_c, 0, 72, 63
1, 145233, Note_off_c, 0, 76, 65
1, 145240, Note_on_c, 0, 79, 60
1, 145263, Note_off_c, 0, 79, 63
1, 145304, Note_off_c, 0, 60, 34
1, 145320, Note_on_c, 0, 55, 40
1, 145367, Note_off_c, 0, 55, 60
1, 145411, Note_on_c, 0, 52, 48
1, 145453, Note_on_c, 0, 72, 60
1, 145489, Note_off_c, 0, 72, 61
1, 145503, Note_on_c, 0, 76, 46
1, 145529, Note_off_c, 0, 76, 57
1, 145539, Note_on_c, 0, 79, 62
1, 145573, Note_off_c, 0, 79, 62
1, 145580, Note_on_c, 0, 84, 58
1, 145602, Note_off_c, 0, 84, 64
1, 145671, Note_on_c, 0, 55, 41
1, 145732, Note_off_c, 0, 55, 51
1, 145734, Note_off_c, 0, 52, 30
1, 145763, Note_on_c, 0, 60, 52
1, 145828, Note_on_c, 0, 76, 58
1, 145864, Note_off_c, 0, 76, 65
1, 145878, Note_on_c, 0, 79, 60
1, 145903, Note_on_c, 0, 84, 61
1, 145914, Note_off_c, 0, 79, 57
1, 145944, Note_on_c, 0, 88, 60
1, 145958, Note_off_c, 0, 60, 33
1, 145972, Note_off_c, 0, 84, 62
1, 145975, Note_off_c, 0, 88, 65
1, 146032, Note_on_c, 0, 55, 41
1, 146083, Note_off_c, 0, 55, 45
1, 146157, Note_on_c, 0, 52, 44
1, 146193, Note_off_c, 0, 52, 66
1, 146457, Note_on_c, 0, 64, 66
1, 146464, Note_on_c, 0, 60, 57
1, 146467, Note_on_c, 0, 45, 43
1, 146467, Note_on_c, 0, 57, 58
1, 146514, Control_c, 0, 64, 109
1, 146529, Control_c, 0, 64, 83
1, 146551, Control_c, 0, 64, 61
1, 146566, Control_c, 0, 64, 0
1, 146595, Control_c, 0, 64, 16
1, 146610, Control_c, 0, 64, 69
1, 146625, Control_c, 0, 64, 85
1, 146640, Control_c, 0, 64, 104
1, 146644, Note_on_c, 0, 52, 54
1, 146649, Note_off_c, 0, 45, 47
1, 146655, Control_c, 0, 64, 127
1, 146687, Note_off_c, 0, 57, 61
1, 146697, Note_off_c, 0, 60, 56
1, 146748, Note_off_c, 0, 52, 63
1, 146766, Note_on_c, 0, 57, 56
1, 146771, Note_off_c, 0, 64, 62
1, 146811, Note_off_c, 0, 57, 55
1, 146875, Note_on_c, 0, 60, 57
1, 146909, Note_off_c, 0, 60, 65
1, 146959, Note_on_c, 0, 64, 60
1, 147021, Note_off_c, 0, 64, 55
1, 147057, Note_on_c, 0, 69, 57
1, 147104, Note_off_c, 0, 69, 59
1, 147156, Note_on_c, 0, 72, 13
1, 147197, Note_off_c, 0, 72, 40
1, 147331, Note_on_c, 0, 67, 73
1, 147340, Note_on_c, 0, 55, 55
1, 147348, Note_on_c, 0, 60, 49
1, 147355, Note_on_c, 0, 40, 45
1, 147364, Note_on_c, 0, 48, 46
1, 147374, Control_c, 0, 64, 123
1, 147389, Control_c, 0, 64, 99
1, 147403, Control_c, 0, 64, 76
1, 147418, Control_c, 0, 64, 0
1, 147463, Control_c, 0, 64, 65
1, 147477, Control_c, 0, 64, 78
1, 147492, Control_c, 0, 64, 98
1, 147500, Note_off_c, 0, 40, 49
1, 147507, Control_c, 0, 64, 119
1, 147513, Note_off_c, 0, 55, 63
1, 147522, Control_c, 0, 64, 127
1, 147531, Note_off_c, 0, 48, 61
1, 147540, Note_on_c, 0, 52, 59
1, 147541, Note_off_c, 0, 60, 62
1, 147576, Note_off_c, 0, 52, 66
1, 147582, Note_off_c, 0, 67, 60
1, 147666, Note_on_c, 0, 55, 58
1, 147747, Note_on_c, 0, 60, 53
1, 147753, Note_off_c, 0, 55, 56
1, 147772, Note_off_c, 0, 60, 62
1, 147812, Note_on_c, 0, 67, 58
1, 147874, Note_off_c, 0, 67, 58
1, 147901, Note_on_c, 0, 72, 57
1, 147961, Note_off_c, 0, 72, 57
1, 147974, Note_on_c, 0, 76, 62
1, 147992, Note_off_c, 0, 76, 66
1, 148160, Note_on_c, 0, 62, 68
1, 148175, Note_on_c, 0, 55, 54
1, 148178, Note_on_c, 0, 59, 51
1, 148195, Note_on_c, 0, 43, 47
1, 148226, Control_c, 0, 64, 100
1, 148241, Control_c, 0, 64, 80
1, 148256, Control_c, 0, 64, 38
1, 148270, Control_c, 0, 64, 0
1, 148300, Control_c, 0, 64, 67
1, 148315, Control_c, 0, 64, 79
1, 148316, Note_off_c, 0, 43, 60
1, 148328, Note_on_c, 0, 50, 53
1, 148330, Control_c, 0, 64, 94
1, 148334, Note_off_c, 0, 55, 53
1, 148343, Note_off_c, 0, 59, 59
1, 148345, Control_c, 0, 64, 110
1, 148360, Control_c, 0, 64, 120
1, 148375, Control_c, 0, 64, 125
1, 148385, Note_off_c, 0, 62, 61
1, 148389, Control_c, 0, 64, 127
1, 148424, Note_off_c, 0, 50, 59
1, 148436, Note_on_c, 0, 55, 62
1, 148484, Note_off_c, 0, 55, 61
1, 148544, Note_on_c, 0, 59, 48
1, 148565, Note_off_c, 0, 59, 62
1, 148595, Note_on_c, 0, 67, 57
1, 148661, Note_off_c, 0, 67, 61
1, 148677, Note_on_c, 0, 71, 57
1, 148732, Note_off_c, 0, 71, 52
1, 148756, Note_on_c, 0, 74, 60
1, 148779, Note_off_c, 0, 74, 66
1, 148986, Note_on_c, 0, 64, 60
1, 148990, Control_c, 0, 64, 114
1, 149000, Note_on_c, 0, 55, 50
1, 149005, Note_on_c, 0, 60, 46
1, 149005, Control_c, 0, 64, 94
1, 149008, Note_on_c, 0, 36, 43
1, 149020, Control_c, 0, 64, 70
1, 149035, Control_c, 0, 64, 0
1, 149107, Note_off_c, 0, 55, 56
1, 149108, Control_c, 0, 64, 50
1, 149123, Control_c, 0, 64, 73
1, 149138, Control_c, 0, 64, 86
1, 149144, Note_off_c, 0, 60, 58
1, 149153, Control_c, 0, 64, 101
1, 149167, Control_c, 0, 64, 113
1, 149179, Note_off_c, 0, 64, 63
1, 149182, Control_c, 0, 64, 123
1, 149197, Control_c, 0, 64, 127
1, 149210, Note_off_c, 0, 36, 38
1, 149308, Note_on_c, 0, 64, 63
1, 149346, Note_off_c, 0, 64, 66
1, 149360, Note_on_c, 0, 67, 61
1, 149394, Note_on_c, 0, 72, 64
1, 149399, Note_off_c, 0, 67, 59
1, 149429, Note_off_c, 0, 72, 61
1, 149434, Note_on_c, 0, 60, 46
1, 149434, Note_on_c, 0, 76, 58
1, 149455, Note_off_c, 0, 76, 65
1, 149480, Note_off_c, 0, 60, 57
1, 149515, Note_on_c, 0, 55, 56
1, 149567, Note_off_c, 0, 55, 60
1, 149646, Note_on_c, 0, 52, 41
1, 149663, Note_on_c, 0, 67, 61
1, 149701, Note_off_c, 0, 67, 58
1, 149710, Note_on_c, 0, 72, 52
1, 149732, Note_on_c, 0, 76, 62
1, 149751, Note_off_c, 0, 72, 51
1, 149761, Note_on_c, 0, 79, 62
1, 149764, Note_off_c, 0, 76, 63
1, 149788, Note_off_c, 0, 79, 66
1, 149862, Note_on_c, 0, 55, 48
1, 149884, Note_off_c, 0, 52, 37
1, 149904, Note_off_c, 0, 55, 60
1, 149954, Note_on_c, 0, 60, 53
1, 150006, Note_on_c, 0, 72, 58
1, 150036, Note_off_c, 0, 72, 66
1, 150050, Note_on_c, 0, 76, 52
1, 150080, Note_off_c, 0, 76, 54
1, 150092, Note_on_c, 0, 79, 55
1, 150121, Note_on_c, 0, 84, 58
1, 150128, Note_off_c, 0, 79, 63
1, 150155, Note_off_c, 0, 84, 65
1, 150200, Note_off_c, 0, 60, 34
1, 150206, Note_on_c, 0, 55, 44
1, 150256, Note_off_c, 0, 55, 57
1, 150317, Note_on_c, 0, 52, 45
1, 150366, Note_on_c, 0, 76, 58
1, 150394, Note_off_c, 0, 76, 68
1, 150405, Note_on_c, 0, 79, 62
1, 150443, Note_on_c, 0, 84, 60
1, 150452, Note_off_c, 0, 79, 59
1, 150471, Note_on_c, 0, 88, 63
1, 150485, Note_off_c, 0, 84, 61
1, 150497, Note_off_c, 0, 88, 68
1, 150580, Note_on_c, 0, 55, 44
1, 150620, Note_off_c, 0, 52, 35
1, 150637, Note_off_c, 0, 55, 55
1, 150666, Note_on_c, 0, 60, 49
1, 150715, Note_on_c, 0, 79, 55
1, 150750, Note_off_c, 0, 79, 61
1, 150758, Note_on_c, 0, 84, 59
1, 150775, Note_on_c, 0, 88, 63
1, 150810, Note_off_c, 0, 84, 59
1, 150821, Note_on_c, 0, 91, 59
1, 150842, Note_off_c, 0, 88, 61
1, 150851, Note_off_c, 0, 91, 63
1, 150870, Note_off_c, 0, 60, 39
1, 150934, Note_on_c, 0, 55, 51
1, 150983, Note_off_c, 0, 55, 58
1, 151056, Note_on_c, 0, 52, 50
1, 151096, Note_off_c, 0, 52, 62
1, 151373, Note_on_c, 0, 64, 60
1, 151374, Note_on_c, 0, 76, 70
1, 151378, Note_on_c, 0, 45, 43
1, 151380, Note_on_c, 0, 72, 58
1, 151388, Note_on_c, 0, 69, 53
1, 151415, Control_c, 0, 64, 110
1, 151430, Control_c, 0, 64, 88
1, 151444, Control_c, 0, 64, 66
1, 151459, Control_c, 0, 64, 0
1, 151503, Control_c, 0, 64, 56
1, 151518, Control_c, 0, 64, 75
1, 151533, Control_c, 0, 64, 90
1, 151546, Note_off_c, 0, 45, 52
1, 151548, Control_c, 0, 64, 112
1, 151552, Note_on_c, 0, 52, 49
1, 151562, Control_c, 0, 64, 127
1, 151655, Note_off_c, 0, 52, 57
1, 151671, Note_on_c, 0, 57, 57
1, 151703, Note_off_c, 0, 64, 58
1, 151714, Note_off_c, 0, 57, 58
1, 151749, Note_off_c, 0, 69, 57
1, 151771, Note_on_c, 0, 60, 63
1, 151808, Note_off_c, 0, 60, 66
1, 151809, Note_off_c, 0, 72, 59
1, 151850, Note_on_c, 0, 64, 58
1, 151887, Note_off_c, 0, 76, 61
1, 151898, Note_off_c, 0, 64, 55
1, 151943, Note_on_c, 0, 69, 55
1, 151995, Note_off_c, 0, 69, 63
1, 152017, Note_on_c, 0, 72, 52
1, 152119, Note_off_c, 0, 72, 59
1, 152175, Note_on_c, 0, 77, 73
1, 152176, Note_on_c, 0, 73, 61
1, 152192, Note_on_c, 0, 68, 57
1, 152201, Note_on_c, 0, 53, 46
1, 152237, Control_c, 0, 64, 106
1, 152252, Control_c, 0, 64, 86
1, 152267, Control_c, 0, 64, 60
1, 152282, Control_c, 0, 64, 0
1, 152324, Note_on_c, 0, 56, 55
1, 152326, Control_c, 0, 64, 63
1, 152341, Control_c, 0, 64, 74
1, 152356, Control_c, 0, 64, 87
1, 152371, Control_c, 0, 64, 105
1, 152378, Note_off_c, 0, 68, 63
1, 152385, Control_c, 0, 64, 117
1, 152400, Control_c, 0, 64, 126
1, 152406, Note_off_c, 0, 73, 63
1, 152412, Note_off_c, 0, 53, 35
1, 152415, Control_c, 0, 64, 127
1, 152431, Note_on_c, 0, 61, 57
1, 152438, Note_off_c, 0, 56, 58
1, 152506, Note_off_c, 0, 61, 57
1, 152555, Note_on_c, 0, 65, 43
1, 152581, Note_off_c, 0, 77, 39
1, 152581, Note_off_c, 0, 65, 58
1, 152621, Note_on_c, 0, 68, 47
1, 152683, Note_off_c, 0, 68, 49
1, 152699, Note_on_c, 0, 73, 63
1, 152767, Note_off_c, 0, 73, 56
1, 152768, Note_on_c, 0, 77, 71
1, 152904, Note_on_c, 0, 78, 74
1, 152916, Note_off_c, 0, 77, 55
1, 152920, Note_on_c, 0, 69, 53
1, 152923, Note_on_c, 0, 50, 50
1, 152928, Control_c, 0, 64, 123
1, 152929, Note_on_c, 0, 74, 50
1, 152942, Control_c, 0, 64, 95
1, 152957, Control_c, 0, 64, 74
1, 152972, Control_c, 0, 64, 0
1, 153016, Control_c, 0, 64, 60
1, 153023, Note_off_c, 0, 50, 60
1, 153031, Control_c, 0, 64, 75
1, 153043, Note_on_c, 0, 57, 48
1, 153046, Control_c, 0, 64, 88
1, 153061, Control_c, 0, 64, 104
1, 153075, Control_c, 0, 64, 116
1, 153090, Control_c, 0, 64, 126
1, 153105, Control_c, 0, 64, 127
1, 153114, Note_off_c, 0, 57, 60
1, 153131, Note_on_c, 0, 62, 53
1, 153157, Note_off_c, 0, 62, 55
1, 153161, Note_off_c, 0, 69, 60
1, 153195, Note_off_c, 0, 74, 35
1, 153248, Note_on_c, 0, 66, 61
1, 153269, Note_off_c, 0, 66, 67
1, 153287, Note_off_c, 0, 78, 61
1, 153335, Note_on_c, 0, 69, 51
1, 153397, Note_off_c, 0, 69, 58
1, 153428, Note_on_c, 0, 74, 51
1, 153482, Note_off_c, 0, 74, 62
1, 153493, Note_on_c, 0, 78, 65
1, 153532, Note_off_c, 0, 78, 60
1, 153657, Note_on_c, 0, 47, 58
1, 153659, Note_on_c, 0, 75, 63
1, 153660, Note_on_c, 0, 67, 58
1, 153660, Note_on_c, 0, 79, 63
1, 153677, Control_c, 0, 64, 108
1, 153681, Note_on_c, 0, 71, 44
1, 153691, Control_c, 0, 64, 88
1, 153706, Control_c, 0, 64, 65
1, 153721, Control_c, 0, 64, 0
1, 153736, Control_c, 0, 64, 26
1, 153749, Note_off_c, 0, 47, 62
1, 153751, Control_c, 0, 64, 68
1, 153765, Control_c, 0, 64, 81
1, 153775, Note_on_c, 0, 55, 58
1, 153780, Control_c, 0, 64, 97
1, 153795, Control_c, 0, 64, 114
1, 153810, Control_c, 0, 64, 126
1, 153825, Control_c, 0, 64, 127
1, 153830, Note_off_c, 0, 55, 62
1, 153881, Note_on_c, 0, 59, 33
1, 153902, Note_off_c, 0, 67, 54
1, 153922, Note_off_c, 0, 59, 47
1, 153942, Note_off_c, 0, 71, 36
1, 153953, Note_on_c, 0, 63, 70
1, 153975, Note_off_c, 0, 75, 60
1, 153979, Note_off_c, 0, 63, 67
1, 154000, Note_off_c, 0, 79, 39
1, 154044, Note_on_c, 0, 67, 63
1, 154106, Note_off_c, 0, 67, 59
1, 154126, Note_on_c, 0, 71, 61
1, 154190, Note_off_c, 0, 71, 60
1, 154201, Note_on_c, 0, 75, 59
1, 154271, Note_off_c, 0, 75, 61
1, 154279, Note_on_c, 0, 79, 57
1, 154306, Note_off_c, 0, 79, 51
1, 154443, Note_on_c, 0, 71, 56
1, 154448, Note_on_c, 0, 80, 74
1, 154449, Note_on_c, 0, 68, 58
1, 154449, Note_on_c, 0, 76, 56
1, 154454, Control_c, 0, 64, 109
1, 154455, Note_on_c, 0, 44, 52
1, 154469, Control_c, 0, 64, 83
1, 154484, Control_c, 0, 64, 63
1, 154499, Control_c, 0, 64, 0
1, 154528, Control_c, 0, 64, 65
1, 154543, Control_c, 0, 64, 76
1, 154551, Note_off_c, 0, 44, 63
1, 154558, Control_c, 0, 64, 91
1, 154573, Control_c, 0, 64, 109
1, 154578, Note_on_c, 0, 52, 61
1, 154587, Control_c, 0, 64, 127
1, 154602, Control_c, 0, 64, 127
1, 154626, Note_off_c, 0, 52, 59
1, 154661, Note_off_c, 0, 68, 60
1, 154700, Note_on_c, 0, 59, 62
1, 154719, Note_off_c, 0, 71, 54
1, 154756, Note_off_c, 0, 59, 59
1, 154795, Note_off_c, 0, 76, 36
1, 154816, Note_on_c, 0, 64, 58
1, 154844, Note_off_c, 0, 64, 64
1, 154849, Note_off_c, 0, 80, 39
1, 154890, Note_on_c, 0, 71, 61
1, 154974, Note_off_c, 0, 71, 56
1, 154987, Note_on_c, 0, 76, 62
1, 155061, Note_on_c, 0, 80, 64
1, 155074, Note_off_c, 0, 76, 61
1, 155118, Note_off_c, 0, 80, 47
1, 155254, Note_on_c, 0, 81, 75
1, 155260, Note_on_c, 0, 72, 46
1, 155264, Note_on_c, 0, 77, 58
1, 155272, Note_on_c, 0, 69, 48
1, 155282, Note_on_c, 0, 41, 50
1, 155307, Control_c, 0, 64, 100
1, 155312, Note_off_c, 0, 72, 0
1, 155312, Note_on_c, 0, 72, 20
1, 155321, Control_c, 0, 64, 78
1, 155336, Control_c, 0, 64, 0
1, 155366, Control_c, 0, 64, 28
1, 155377, Note_off_c, 0, 41, 63
1, 155381, Control_c, 0, 64, 71
1, 155395, Note_on_c, 0, 48, 55
1, 155396, Control_c, 0, 64, 84
1, 155410, Control_c, 0, 64, 104
1, 155425, Control_c, 0, 64, 127
1, 155438, Note_off_c, 0, 48, 63
1, 155520, Note_on_c, 0, 57, 60
1, 155544, Note_off_c, 0, 69, 52
1, 155562, Note_off_c, 0, 57, 62
1, 155575, Note_off_c, 0, 72, 35
1, 155619, Note_on_c, 0, 60, 55
1, 155633, Note_off_c, 0, 77, 36
1, 155637, Note_off_c, 0, 81, 30
1, 155643, Note_off_c, 0, 60, 62
1, 155697, Note_on_c, 0, 69, 57
1, 155762, Note_off_c, 0, 69, 62
1, 155782, Note_on_c, 0, 72, 64
1, 155857, Note_off_c, 0, 72, 62
1, 155875, Note_on_c, 0, 77, 68
1, 155939, Note_off_c, 0, 77, 59
1, 155949, Note_on_c, 0, 81, 63
1, 155979, Note_off_c, 0, 81, 61
1, 156172, Note_on_c, 0, 82, 74
1, 156182, Note_on_c, 0, 70, 59
1, 156190, Control_c, 0, 64, 101
1, 156195, Note_on_c, 0, 78, 57
1, 156202, Note_on_c, 0, 74, 53
1, 156205, Control_c, 0, 64, 78
1, 156205, Note_on_c, 0, 38, 47
1, 156219, Control_c, 0, 64, 0
1, 156264, Control_c, 0, 64, 55
1, 156286, Control_c, 0, 64, 72
1, 156301, Control_c, 0, 64, 90
1, 156305, Note_off_c, 0, 38, 59
1, 156316, Control_c, 0, 64, 112
1, 156331, Control_c, 0, 64, 127
1, 156385, Note_off_c, 0, 82, 63
1, 156398, Note_off_c, 0, 70, 58
1, 156404, Note_off_c, 0, 74, 62
1, 156413, Note_off_c, 0, 78, 62
1, 156502, Note_on_c, 0, 55, 39
1, 156566, Note_off_c, 0, 55, 53
1, 156596, Note_on_c, 0, 58, 43
1, 156660, Note_off_c, 0, 58, 57
1, 156684, Note_on_c, 0, 62, 55
1, 156725, Note_off_c, 0, 62, 60
1, 156781, Note_on_c, 0, 66, 57
1, 156846, Note_off_c, 0, 66, 58
1, 156869, Note_on_c, 0, 70, 58
1, 156956, Note_off_c, 0, 70, 61
1, 156966, Note_on_c, 0, 74, 53
1, 157055, Note_on_c, 0, 78, 61
1, 157070, Note_off_c, 0, 74, 36
1, 157144, Note_on_c, 0, 34, 55
1, 157186, Note_off_c, 0, 34, 63
1, 157216, Note_on_c, 0, 46, 54
1, 157244, Note_off_c, 0, 46, 61
1, 157307, Note_off_c, 0, 78, 22
1, 157390, Note_on_c, 0, 54, 46
1, 157473, Note_on_c, 0, 58, 44
1, 157580, Note_on_c, 0, 62, 44
1, 157582, Note_on_c, 0, 66, 52
1, 157603, Note_off_c, 0, 54, 25
1, 157610, Note_off_c, 0, 62, 54
1, 157633, Note_off_c, 0, 58, 22
1, 157648, Note_off_c, 0, 66, 57
1, 157667, Note_on_c, 0, 70, 56
1, 157758, Note_off_c, 0, 70, 61
1, 157781, Note_on_c, 0, 74, 47
1, 157856, Note_off_c, 0, 74, 60
1, 157870, Note_on_c, 0, 78, 65
1, 157902, Note_off_c, 0, 78, 62
1, 158128, Note_on_c, 0, 83, 64
1, 158131, Note_on_c, 0, 74, 47
1, 158133, Note_on_c, 0, 71, 54
1, 158139, Note_on_c, 0, 31, 48
1, 158142, Note_on_c, 0, 79, 53
1, 158170, Control_c, 0, 64, 109
1, 158185, Control_c, 0, 64, 86
1, 158200, Control_c, 0, 64, 64
1, 158215, Control_c, 0, 64, 0
1, 158244, Control_c, 0, 64, 60
1, 158259, Control_c, 0, 64, 74
1, 158273, Control_c, 0, 64, 89
1, 158279, Note_off_c, 0, 31, 54
1, 158288, Control_c, 0, 64, 109
1, 158293, Note_on_c, 0, 43, 53
1, 158303, Control_c, 0, 64, 127
1, 158322, Note_off_c, 0, 43, 58
1, 158478, Note_on_c, 0, 55, 47
1, 158579, Note_off_c, 0, 71, 30
1, 158597, Note_on_c, 0, 62, 53
1, 158629, Note_off_c, 0, 74, 41
1, 158654, Note_off_c, 0, 83, 32
1, 158659, Note_off_c, 0, 79, 31
1, 158668, Note_off_c, 0, 62, 45
1, 158713, Note_on_c, 0, 71, 52
1, 158727, Note_on_c, 0, 65, 42
1, 158754, Note_off_c, 0, 65, 61
1, 158804, Note_off_c, 0, 71, 58
1, 158829, Note_on_c, 0, 74, 52
1, 158832, Note_off_c, 0, 55, 40
1, 158918, Note_off_c, 0, 74, 55
1, 158945, Note_on_c, 0, 79, 49
1, 159006, Note_off_c, 0, 79, 51
1, 159031, Note_on_c, 0, 83, 49
1, 159197, Note_on_c, 0, 24, 61
1, 159243, Control_c, 0, 64, 115
1, 159258, Control_c, 0, 64, 87
1, 159280, Control_c, 0, 64, 64
1, 159286, Note_off_c, 0, 83, 35
1, 159295, Control_c, 0, 64, 0
1, 159354, Control_c, 0, 64, 67
1, 159369, Control_c, 0, 64, 80
1, 159374, Note_on_c, 0, 36, 53
1, 159376, Note_off_c, 0, 24, 61
1, 159383, Control_c, 0, 64, 97
1, 159398, Control_c, 0, 64, 115
1, 159413, Control_c, 0, 64, 127
1, 159431, Note_off_c, 0, 36, 64
1, 159628, Note_on_c, 0, 52, 55
1, 159719, Note_on_c, 0, 55, 42
1, 159751, Note_on_c, 0, 60, 51
1, 159836, Note_on_c, 0, 84, 65
1, 159850, Note_on_c, 0, 72, 51
1, 159853, Note_on_c, 0, 79, 49
1, 159856, Note_on_c, 0, 64, 44
1, 159857, Note_on_c, 0, 76, 43
1, 160066, Note_off_c, 0, 52, 41
1, 160090, Note_off_c, 0, 64, 61
1, 160107, Note_off_c, 0, 60, 57
1, 160112, Note_off_c, 0, 55, 43
1, 160131, Note_off_c, 0, 72, 58
1, 160176, Note_off_c, 0, 84, 60
1, 160179, Note_off_c, 0, 76, 61
1, 160196, Note_off_c, 0, 79, 58
1, 160537, Note_on_c, 0, 64, 44
1, 160641, Note_off_c, 0, 64, 60
1, 160645, Note_on_c, 0, 67, 49
1, 160686, Note_off_c, 0, 67, 63
1, 160750, Note_on_c, 0, 72, 47
1, 160778, Note_off_c, 0, 72, 62
1, 160832, Note_on_c, 0, 79, 51
1, 160886, Note_off_c, 0, 79, 55
1, 160912, Note_on_c, 0, 84, 60
1, 160970, Note_off_c, 0, 84, 60
1, 160989, Note_on_c, 0, 88, 59
1, 161056, Note_off_c, 0, 88, 59
1, 161062, Note_on_c, 0, 91, 55
1, 161094, Note_off_c, 0, 91, 62
1, 161163, Note_on_c, 0, 60, 51
1, 161216, Note_off_c, 0, 60, 58
1, 161249, Note_on_c, 0, 64, 46
1, 161308, Note_off_c, 0, 64, 60
1, 161327, Note_on_c, 0, 67, 48
1, 161354, Note_off_c, 0, 67, 61
1, 161408, Note_on_c, 0, 72, 47
1, 161430, Note_off_c, 0, 72, 59
1, 161476, Note_on_c, 0, 76, 52
1, 161526, Note_off_c, 0, 76, 61
1, 161557, Note_on_c, 0, 79, 48
1, 161598, Note_off_c, 0, 79, 50
1, 161628, Note_on_c, 0, 84, 55
1, 161678, Note_off_c, 0, 84, 53
1, 161684, Note_on_c, 0, 88, 59
1, 161727, Note_off_c, 0, 88, 54
1, 161777, Note_on_c, 0, 55, 50
1, 161825, Note_off_c, 0, 55, 62
1, 161858, Note_on_c, 0, 60, 47
1, 161899, Note_off_c, 0, 60, 61
1, 161935, Note_on_c, 0, 64, 36
1, 161963, Note_off_c, 0, 64, 50
1, 161994, Note_on_c, 0, 67, 57
1, 162021, Note_off_c, 0, 67, 61
1, 162057, Note_on_c, 0, 72, 47
1, 162099, Note_off_c, 0, 72, 59
1, 162120, Note_on_c, 0, 76, 53
1, 162178, Note_off_c, 0, 76, 62
1, 162208, Note_on_c, 0, 79, 44
1, 162253, Note_off_c, 0, 79, 47
1, 162459, Note_on_c, 0, 79, 63
1, 162472, Note_on_c, 0, 76, 48
1, 162473, Note_on_c, 0, 72, 46
1, 162477, Note_on_c, 0, 52, 50
1, 162608, Note_on_c, 0, 55, 51
1, 162622, Note_off_c, 0, 52, 61
1, 162643, Note_off_c, 0, 72, 62
1, 162652, Note_off_c, 0, 76, 61
1, 162665, Note_off_c, 0, 79, 60
1, 162710, Note_on_c, 0, 60, 43
1, 162715, Note_off_c, 0, 55, 62
1, 162760, Note_off_c, 0, 60, 55
1, 162791, Note_on_c, 0, 64, 42
1, 162819, Note_off_c, 0, 64, 57
1, 162853, Note_on_c, 0, 67, 52
1, 162901, Note_off_c, 0, 67, 60
1, 162925, Note_on_c, 0, 72, 55
1, 162974, Note_off_c, 0, 72, 60
1, 162990, Note_on_c, 0, 76, 51
1, 163053, Note_on_c, 0, 79, 60
1, 163053, Note_off_c, 0, 76, 54
1, 163081, Note_off_c, 0, 79, 65
1, 163150, Note_on_c, 0, 48, 54
1, 163214, Note_off_c, 0, 48, 57
1, 163220, Note_on_c, 0, 52, 56
1, 163307, Note_off_c, 0, 52, 63
1, 163311, Note_on_c, 0, 55, 41
1, 163363, Note_on_c, 0, 60, 54
1, 163402, Note_off_c, 0, 60, 61
1, 163412, Note_on_c, 0, 64, 51
1, 163456, Note_off_c, 0, 55, 35
1, 163464, Note_off_c, 0, 64, 58
1, 163493, Note_on_c, 0, 67, 52
1, 163535, Note_off_c, 0, 67, 58
1, 163556, Note_on_c, 0, 72, 51
1, 163578, Note_off_c, 0, 72, 63
1, 163699, Note_on_c, 0, 76, 75
1, 163722, Note_on_c, 0, 43, 43
1, 163723, Note_on_c, 0, 67, 54
1, 163728, Note_on_c, 0, 72, 47
1, 163836, Note_on_c, 0, 48, 49
1, 163849, Note_off_c, 0, 43, 48
1, 163913, Note_off_c, 0, 48, 60
1, 163920, Note_on_c, 0, 52, 45
1, 163959, Note_off_c, 0, 52, 63
1, 163971, Note_off_c, 0, 67, 58
1, 163993, Note_off_c, 0, 76, 54
1, 163995, Note_on_c, 0, 55, 53
1, 164001, Note_off_c, 0, 72, 57
1, 164017, Note_off_c, 0, 55, 62
1, 164081, Note_on_c, 0, 64, 58
1, 164123, Note_off_c, 0, 64, 62
1, 164159, Note_on_c, 0, 67, 53
1, 164201, Note_off_c, 0, 67, 58
1, 164209, Note_on_c, 0, 36, 49
1, 164227, Note_on_c, 0, 72, 52
1, 164271, Note_off_c, 0, 72, 59
1, 164273, Note_off_c, 0, 36, 60
1, 164276, Note_on_c, 0, 43, 48
1, 164290, Note_on_c, 0, 76, 54
1, 164316, Note_off_c, 0, 43, 61
1, 164335, Note_on_c, 0, 48, 50
1, 164361, Note_off_c, 0, 48, 58
1, 164390, Note_off_c, 0, 76, 56
1, 164444, Note_on_c, 0, 52, 52
1, 164448, Note_on_c, 0, 64, 52
1, 164513, Note_on_c, 0, 67, 53
1, 164525, Note_on_c, 0, 55, 45
1, 164555, Note_on_c, 0, 72, 73
1, 164568, Note_on_c, 0, 60, 53
1, 164579, Note_off_c, 0, 64, 0
1, 164579, Note_on_c, 0, 64, 14
1, 164666, Note_off_c, 0, 60, 54
1, 164721, Note_off_c, 0, 52, 42
1, 164722, Note_off_c, 0, 55, 41
1, 164773, Note_off_c, 0, 64, 40
1, 164787, Note_off_c, 0, 67, 51
1, 164844, Note_off_c, 0, 72, 54
1, 164916, Note_on_c, 0, 52, 44
1, 164988, Note_off_c, 0, 52, 60
1, 164999, Note_on_c, 0, 55, 42
1, 165050, Note_off_c, 0, 55, 54
1, 165057, Note_on_c, 0, 60, 42
1, 165089, Note_off_c, 0, 60, 51
1, 165135, Note_on_c, 0, 64, 41
1, 165171, Note_off_c, 0, 64, 60
1, 165193, Note_on_c, 0, 67, 51
1, 165241, Note_off_c, 0, 67, 59
1, 165270, Note_on_c, 0, 72, 48
1, 165333, Note_on_c, 0, 76, 50
1, 165339, Note_off_c, 0, 72, 46
1, 165404, Note_on_c, 0, 48, 48
1, 165410, Note_off_c, 0, 76, 46
1, 165443, Note_off_c, 0, 48, 62
1, 165468, Note_on_c, 0, 52, 53
1, 165529, Note_off_c, 0, 52, 59
1, 165550, Note_on_c, 0, 55, 43
1, 165598, Note_off_c, 0, 55, 47
1, 165614, Note_on_c, 0, 60, 44
1, 165640, Note_off_c, 0, 60, 56
1, 165701, Note_on_c, 0, 64, 47
1, 165747, Note_off_c, 0, 64, 63
1, 165774, Note_on_c, 0, 67, 48
1, 165820, Note_off_c, 0, 67, 60
1, 165834, Note_on_c, 0, 72, 49
1, 165902, Note_off_c, 0, 72, 44
1, 165906, Note_on_c, 0, 76, 45
1, 165944, Note_on_c, 0, 48, 47
1, 165963, Note_off_c, 0, 76, 51
1, 165989, Note_off_c, 0, 48, 60
1, 166004, Note_on_c, 0, 52, 50
1, 166071, Note_off_c, 0, 52, 58
1, 166087, Note_on_c, 0, 55, 39
1, 166137, Note_off_c, 0, 55, 45
1, 166152, Note_on_c, 0, 60, 46
1, 166175, Note_off_c, 0, 60, 59
1, 166200, Note_on_c, 0, 64, 50
1, 166248, Note_off_c, 0, 64, 60
1, 166275, Note_on_c, 0, 67, 49
1, 166316, Note_off_c, 0, 67, 62
1, 166337, Note_on_c, 0, 72, 49
1, 166399, Note_off_c, 0, 72, 47
1, 166412, Note_on_c, 0, 76, 45
1, 166566, Note_on_c, 0, 55, 71
1, 166581, Note_off_c, 0, 76, 39
1, 166586, Note_on_c, 0, 48, 53
1, 166588, Note_on_c, 0, 52, 59
1, 166803, Note_off_c, 0, 48, 35
1, 166853, Note_off_c, 0, 52, 37
1, 166863, Note_on_c, 0, 60, 53
1, 166863, Note_off_c, 0, 55, 54
1, 166897, Note_off_c, 0, 60, 63
1, 166961, Note_on_c, 0, 64, 46
1, 167007, Note_off_c, 0, 64, 63
1, 167031, Note_on_c, 0, 67, 47
1, 167076, Note_off_c, 0, 67, 60
1, 167095, Note_on_c, 0, 72, 46
1, 167151, Note_off_c, 0, 72, 52
1, 167166, Note_on_c, 0, 76, 41
1, 167205, Note_off_c, 0, 76, 47
1, 167223, Note_on_c, 0, 48, 47
1, 167256, Note_off_c, 0, 48, 63
1, 167279, Note_on_c, 0, 52, 51
1, 167356, Note_off_c, 0, 52, 57
1, 167361, Note_on_c, 0, 55, 44
1, 167407, Note_off_c, 0, 55, 57
1, 167432, Note_on_c, 0, 60, 47
1, 167459, Note_off_c, 0, 60, 54
1, 167520, Note_on_c, 0, 64, 47
1, 167562, Note_off_c, 0, 64, 64
1, 167586, Note_on_c, 0, 67, 49
1, 167640, Note_off_c, 0, 67, 59
1, 167654, Note_on_c, 0, 72, 47
1, 167715, Note_off_c, 0, 72, 49
1, 167735, Note_on_c, 0, 76, 43
1, 167860, Note_on_c, 0, 52, 63
1, 167873, Note_on_c, 0, 43, 50
1, 167881, Note_on_c, 0, 48, 51
1, 167908, Note_off_c, 0, 76, 36
1, 167956, Note_off_c, 0, 43, 55
1, 167989, Note_off_c, 0, 48, 62
1, 168013, Note_off_c, 0, 52, 64
1, 168052, Note_on_c, 0, 55, 55
1, 168082, Note_off_c, 0, 55, 66
1, 168150, Note_on_c, 0, 60, 57
1, 168180, Note_off_c, 0, 60, 64
1, 168246, Note_on_c, 0, 64, 43
1, 168299, Note_off_c, 0, 64, 63
1, 168318, Note_on_c, 0, 67, 52
1, 168364, Note_off_c, 0, 67, 57
1, 168370, Note_on_c, 0, 72, 49
1, 168445, Note_on_c, 0, 76, 43
1, 168463, Note_on_c, 0, 36, 55
1, 168481, Note_off_c, 0, 72, 30
1, 168531, Note_off_c, 0, 36, 62
1, 168534, Note_on_c, 0, 43, 53
1, 168573, Note_off_c, 0, 43, 61
1, 168585, Note_on_c, 0, 48, 60
1, 168611, Note_off_c, 0, 76, 39
1, 168615, Note_off_c, 0, 48, 67
1, 168724, Note_on_c, 0, 52, 42
1, 168795, Note_off_c, 0, 52, 64
1, 168803, Note_on_c, 0, 55, 41
1, 168842, Note_off_c, 0, 55, 50
1, 168868, Note_on_c, 0, 60, 49
1, 168892, Note_off_c, 0, 60, 59
1, 168952, Note_on_c, 0, 64, 51
1, 169011, Note_off_c, 0, 64, 61
1, 169035, Note_on_c, 0, 67, 55
1, 169084, Note_off_c, 0, 67, 57
1, 169099, Note_on_c, 0, 72, 49
1, 169164, Note_off_c, 0, 72, 50
1, 169181, Note_on_c, 0, 52, 58
1, 169183, Note_on_c, 0, 76, 48
1, 169211, Note_off_c, 0, 52, 68
1, 169216, Note_off_c, 0, 76, 59
1, 169271, Note_on_c, 0, 64, 51
1, 169299, Note_off_c, 0, 64, 59
1, 169361, Note_on_c, 0, 55, 40
1, 169393, Note_off_c, 0, 55, 53
1, 169427, Note_on_c, 0, 64, 45
1, 169459, Note_off_c, 0, 64, 56
1, 169499, Note_on_c, 0, 60, 54
1, 169532, Note_off_c, 0, 60, 65
1, 169579, Note_on_c, 0, 64, 50
1, 169589, Note_on_c, 0, 67, 52
1, 169631, Note_off_c, 0, 67, 63
1, 169660, Note_on_c, 0, 72, 55
1, 169716, Note_off_c, 0, 72, 61
1, 169735, Note_on_c, 0, 76, 51
1, 169764, Note_off_c, 0, 64, 38
1, 169791, Note_off_c, 0, 76, 55
1, 169805, Note_on_c, 0, 79, 50
1, 169808, Note_on_c, 0, 55, 56
1, 169834, Note_off_c, 0, 79, 59
1, 169840, Note_off_c, 0, 55, 65
1, 169906, Note_on_c, 0, 67, 43
1, 169929, Note_off_c, 0, 67, 59
1, 169974, Note_on_c, 0, 60, 56
1, 170009, Note_off_c, 0, 60, 64
1, 170038, Note_on_c, 0, 67, 50
1, 170080, Note_off_c, 0, 67, 61
1, 170131, Note_on_c, 0, 64, 52
1, 170161, Note_off_c, 0, 64, 61
1, 170194, Note_on_c, 0, 72, 50
1, 170197, Note_on_c, 0, 67, 51
1, 170229, Note_off_c, 0, 72, 58
1, 170265, Note_on_c, 0, 76, 48
1, 170303, Note_off_c, 0, 76, 55
1, 170337, Note_on_c, 0, 79, 50
1, 170385, Note_off_c, 0, 67, 36
1, 170392, Note_off_c, 0, 79, 56
1, 170403, Note_on_c, 0, 84, 52
1, 170410, Note_on_c, 0, 60, 56
1, 170437, Note_off_c, 0, 84, 55
1, 170440, Note_off_c, 0, 60, 66
1, 170521, Note_on_c, 0, 72, 48
1, 170543, Note_off_c, 0, 72, 60
1, 170588, Note_on_c, 0, 64, 59
1, 170618, Note_off_c, 0, 64, 65
1, 170653, Note_on_c, 0, 72, 49
1, 170699, Note_off_c, 0, 72, 57
1, 170736, Note_on_c, 0, 67, 55
1, 170767, Note_off_c, 0, 67, 65
1, 170788, Note_on_c, 0, 76, 49
1, 170807, Note_on_c, 0, 72, 59
1, 170830, Note_off_c, 0, 76, 51
1, 170860, Note_on_c, 0, 79, 54
1, 170912, Note_off_c, 0, 79, 54
1, 170925, Note_on_c, 0, 84, 56
1, 170935, Note_off_c, 0, 72, 34
1, 170985, Note_on_c, 0, 64, 56
1, 170991, Note_on_c, 0, 88, 53
1, 170995, Note_off_c, 0, 84, 61
1, 171019, Note_off_c, 0, 64, 64
1, 171026, Note_off_c, 0, 88, 62
1, 171082, Note_on_c, 0, 76, 52
1, 171102, Note_off_c, 0, 76, 63
1, 171148, Note_on_c, 0, 67, 66
1, 171176, Note_off_c, 0, 67, 66
1, 171220, Note_on_c, 0, 76, 48
1, 171256, Note_off_c, 0, 76, 61
1, 171307, Note_on_c, 0, 72, 56
1, 171330, Note_off_c, 0, 72, 65
1, 171360, Note_on_c, 0, 79, 53
1, 171375, Note_on_c, 0, 76, 50
1, 171411, Note_off_c, 0, 79, 56
1, 171426, Note_on_c, 0, 84, 60
1, 171483, Note_off_c, 0, 84, 62
1, 171488, Note_on_c, 0, 88, 58
1, 171519, Note_off_c, 0, 76, 32
1, 171551, Note_on_c, 0, 91, 55
1, 171554, Note_off_c, 0, 88, 57
1, 171558, Note_on_c, 0, 67, 60
1, 171587, Note_off_c, 0, 67, 65
1, 171591, Note_off_c, 0, 91, 57
1, 171654, Note_on_c, 0, 79, 52
1, 171679, Note_off_c, 0, 79, 57
1, 171727, Note_on_c, 0, 72, 63
1, 171755, Note_off_c, 0, 72, 68
1, 171789, Note_on_c, 0, 79, 56
1, 171826, Note_off_c, 0, 79, 59
1, 171871, Note_on_c, 0, 76, 56
1, 171896, Note_off_c, 0, 76, 63
1, 171911, Note_on_c, 0, 84, 48
1, 171944, Note_on_c, 0, 79, 56
1, 171947, Note_off_c, 0, 84, 58
1, 171962, Note_on_c, 0, 88, 57
1, 172032, Note_off_c, 0, 88, 59
1, 172040, Note_on_c, 0, 91, 63
1, 172061, Note_off_c, 0, 79, 35
1, 172107, Note_off_c, 0, 91, 57
1, 172114, Note_on_c, 0, 96, 56
1, 172117, Note_on_c, 0, 72, 52
1, 172139, Note_off_c, 0, 72, 64
1, 172158, Note_off_c, 0, 96, 55
1, 172206, Note_on_c, 0, 84, 59
1, 172228, Note_off_c, 0, 84, 64
1, 172275, Note_on_c, 0, 76, 59
1, 172299, Note_off_c, 0, 76, 63
1, 172335, Note_on_c, 0, 84, 51
1, 172372, Note_off_c, 0, 84, 53
1, 172419, Note_on_c, 0, 79, 57
1, 172452, Note_off_c, 0, 79, 62
1, 172483, Note_on_c, 0, 88, 53
1, 172487, Note_on_c, 0, 84, 48
1, 172536, Note_off_c, 0, 88, 55
1, 172556, Note_on_c, 0, 91, 53
1, 172610, Note_off_c, 0, 91, 47
1, 172626, Note_on_c, 0, 96, 58
1, 172634, Note_off_c, 0, 84, 44
1, 172690, Note_on_c, 0, 72, 48
1, 172697, Note_on_c, 0, 100, 54
1, 172698, Note_off_c, 0, 96, 55
1, 172712, Note_off_c, 0, 72, 61
1, 172734, Note_off_c, 0, 100, 61
1, 172773, Note_on_c, 0, 84, 54
1, 172800, Note_off_c, 0, 84, 63
1, 172859, Note_on_c, 0, 76, 51
1, 172879, Note_off_c, 0, 76, 62
1, 172914, Note_on_c, 0, 84, 56
1, 172958, Note_off_c, 0, 84, 57
1, 173004, Note_on_c, 0, 79, 53
1, 173036, Note_off_c, 0, 79, 59
1, 173068, Note_on_c, 0, 84, 52
1, 173070, Note_on_c, 0, 88, 54
1, 173125, Note_off_c, 0, 88, 58
1, 173142, Note_on_c, 0, 91, 49
1, 173205, Note_off_c, 0, 91, 54
1, 173208, Note_on_c, 0, 96, 56
1, 173210, Note_off_c, 0, 84, 33
1, 173271, Note_on_c, 0, 72, 54
1, 173277, Note_on_c, 0, 100, 56
1, 173295, Note_off_c, 0, 96, 54
1, 173298, Note_off_c, 0, 72, 62
1, 173334, Note_off_c, 0, 100, 56
1, 173363, Note_on_c, 0, 84, 45
1, 173387, Note_off_c, 0, 84, 58
1, 173430, Note_on_c, 0, 76, 62
1, 173464, Note_off_c, 0, 76, 61
1, 173504, Note_on_c, 0, 84, 48
1, 173548, Note_off_c, 0, 84, 48
1, 173589, Note_on_c, 0, 79, 58
1, 173620, Note_off_c, 0, 79, 64
1, 173659, Note_on_c, 0, 88, 45
1, 173665, Note_on_c, 0, 84, 48
1, 173701, Note_off_c, 0, 88, 48
1, 173729, Note_on_c, 0, 91, 50
1, 173784, Note_off_c, 0, 91, 46
1, 173793, Note_on_c, 0, 96, 56
1, 173805, Note_off_c, 0, 84, 43
1, 173865, Note_on_c, 0, 72, 41
1, 173872, Note_off_c, 0, 96, 54
1, 173880, Note_on_c, 0, 100, 41
1, 173890, Note_off_c, 0, 72, 53
1, 173919, Note_off_c, 0, 100, 50
1, 173942, Note_on_c, 0, 84, 48
1, 173966, Note_off_c, 0, 84, 57
1, 174025, Note_on_c, 0, 76, 53
1, 174048, Note_off_c, 0, 76, 59
1, 174079, Note_on_c, 0, 84, 49
1, 174137, Note_off_c, 0, 84, 55
1, 174180, Note_on_c, 0, 79, 49
1, 174206, Note_off_c, 0, 79, 60
1, 174232, Note_on_c, 0, 88, 46
1, 174264, Note_on_c, 0, 84, 47
1, 174285, Note_off_c, 0, 88, 55
1, 174317, Note_on_c, 0, 91, 43
1, 174390, Note_off_c, 0, 91, 34
1, 174392, Note_on_c, 0, 96, 55
1, 174404, Note_off_c, 0, 84, 38
1, 174463, Note_on_c, 0, 72, 50
1, 174470, Note_off_c, 0, 96, 49
1, 174478, Note_on_c, 0, 100, 45
1, 174487, Note_off_c, 0, 72, 63
1, 174530, Note_off_c, 0, 100, 44
1, 174544, Note_on_c, 0, 84, 50
1, 174570, Note_off_c, 0, 84, 55
1, 174630, Note_on_c, 0, 76, 55
1, 174657, Note_off_c, 0, 76, 61
1, 174688, Note_on_c, 0, 84, 48
1, 174739, Note_off_c, 0, 84, 48
1, 174781, Note_on_c, 0, 79, 54
1, 174818, Note_off_c, 0, 79, 62
1, 174849, Note_on_c, 0, 88, 49
1, 174862, Note_on_c, 0, 84, 47
1, 174899, Note_off_c, 0, 88, 57
1, 174930, Note_on_c, 0, 91, 45
1, 174979, Note_off_c, 0, 91, 40
1, 175003, Note_on_c, 0, 96, 56
1, 175030, Note_off_c, 0, 84, 43
1, 175094, Note_on_c, 0, 100, 49
1, 175098, Note_on_c, 0, 72, 50
1, 175122, Note_off_c, 0, 96, 34
1, 175124, Note_off_c, 0, 72, 59
1, 175144, Note_off_c, 0, 100, 56
1, 175198, Note_on_c, 0, 84, 41
1, 175231, Note_off_c, 0, 84, 50
1, 175278, Note_on_c, 0, 76, 57
1, 175310, Note_off_c, 0, 76, 59
1, 175360, Note_on_c, 0, 84, 44
1, 175429, Note_off_c, 0, 84, 46
1, 175461, Note_on_c, 0, 79, 41
1, 175513, Note_off_c, 0, 79, 41
1, 175571, Note_on_c, 0, 84, 41
1, 175583, Note_on_c, 0, 88, 46
1, 175663, Note_off_c, 0, 88, 50
1, 175695, Note_on_c, 0, 91, 45
1, 175796, Note_off_c, 0, 91, 53
1, 175823, Note_on_c, 0, 96, 49
1, 175993, Note_off_c, 0, 96, 35
1, 176010, Note_on_c, 0, 100, 53
1, 176208, Note_off_c, 0, 100, 30
1, 176374, Note_off_c, 0, 84, 34
1, 179957, Note_on_c, 0, 24, 38
1, 181421, Note_off_c, 0, 24, 16
1, 182494, Control_c, 0, 67, 126
1, 182509, Control_c, 0, 67, 124
1, 182524, Control_c, 0, 67, 123
1, 182539, Control_c, 0, 67, 121
1, 182554, Control_c, 0, 67, 120
1, 182568, Control_c, 0, 67, 118
1, 182583, Control_c, 0, 64, 123
1, 182583, Control_c, 0, 67, 116
1, 182598, Control_c, 0, 64, 118
1, 182598, Control_c, 0, 67, 112
1, 182613, Control_c, 0, 64, 113
1, 182613, Control_c, 0, 67, 109
1, 182628, Control_c, 0, 64, 110
1, 182628, Control_c, 0, 67, 104
1, 182642, Control_c, 0, 64, 107
1, 182642, Control_c, 0, 67, 100
1, 182657, Control_c, 0, 64, 105
1, 182657, Control_c, 0, 67, 97
1, 182672, Control_c, 0, 64, 102
1, 182672, Control_c, 0, 67, 95
1, 182687, Control_c, 0, 64, 100
1, 182687, Control_c, 0, 67, 93
1, 182702, Control_c, 0, 64, 97
1, 182702, Control_c, 0, 67, 91
1, 182716, Control_c, 0, 64, 95
1, 182716, Control_c, 0, 67, 88
1, 182731, Control_c, 0, 64, 94
1, 182731, Control_c, 0, 67, 86
1, 182746, Control_c, 0, 64, 93
1, 182746, Control_c, 0, 67, 83
1, 182760, Control_c, 0, 64, 91
1, 182760, Control_c, 0, 67, 80
1, 182775, Control_c, 0, 64, 90
1, 182775, Control_c, 0, 67, 77
1, 182790, Control_c, 0, 64, 88
1, 182790, Control_c, 0, 67, 72
1, 182805, Control_c, 0, 64, 86
1, 182805, Control_c, 0, 67, 67
1, 182821, Control_c, 0, 64, 84
1, 182821, Control_c, 0, 67, 58
1, 182836, Control_c, 0, 64, 82
1, 182836, Control_c, 0, 67, 51
1, 182851, Control_c, 0, 64, 80
1, 182851, Control_c, 0, 67, 44
1, 182865, Control_c, 0, 64, 77
1, 182865, Control_c, 0, 67, 38
1, 182880, Control_c, 0, 64, 75
1, 182880, Control_c, 0, 67, 32
1, 182895, Control_c, 0, 64, 72
1, 182895, Control_c, 0, 67, 27
1, 182910, Control_c, 0, 64, 70
1, 182910, Control_c, 0, 67, 23
1, 182925, Control_c, 0, 64, 68
1, 182925, Control_c, 0, 67, 19
1, 182939, Control_c, 0, 64, 66
1, 182939, Control_c, 0, 67, 15
1, 182954, Control_c, 0, 64, 64
1, 182954, Control_c, 0, 67, 12
1, 182969, Control_c, 0, 64, 62
1, 182969, Control_c, 0, 67, 8
1, 182983, Control_c, 0, 64, 60
1, 182983, Control_c, 0, 67, 0
1, 182998, Control_c, 0, 64, 57
1, 183013, Control_c, 0, 64, 52
1, 183028, Control_c, 0, 64, 45
1, 183043, Control_c, 0, 64, 31
1, 183057, Control_c, 0, 64, 0
1, 183057, End_track
0, 0, End_of_file
