0, 0, Header, 0, 1, 384
1, 0, Start_track
1, 0, Title_t, "Impromptu Op. 90/2-Anna Denisova"
1, 0, Text_t, "2008 e-Piano Junior Competition recital round"
1, 0, Text_t, "recorded July 2008"
1, 0, Text_t, "http://www.piano-e-competition.com/"
1, 0, Text_t, "File processed for distribution by software from Zenph Studios, Inc., http://www.zenph.com"
1, 0, Instrument_name_t, "Yamaha Disklavier Pro Mark IV concert grand piano, model DCFIIISM4PRO"
1, 0, Sequencer_specific, 39, 67, 113, 0, 1, 0, 1, 0, 73, 109, 112, 114, 111, 109, 112, 116, 117, 32, 79, 112, 57, 48, 47, 50, 65, 110, 110, 97, 32, 68, 101, 110, 105, 115, 111, 118, 97, 32, 32, 32
1, 0, Sequencer_specific, 6, 67, 113, 0, 0, 0, 69
1, 0, System_exclusive, 21, 67, 113, 126, 21, 0, 2, 2, 0, 3, 14, 1, 4, 1, 13, 13, 10, 11, 9, 2, 7, 247
1, 0, Sequencer_specific, 5, 67, 123, 12, 2, 1
1, 0, Tempo, 512820
1, 0, Time_signature, 4, 2, 24, 8
1, 0, System_exclusive, 5, 126, 127, 9, 1, 247
1, 1, System_exclusive, 8, 67, 16, 76, 0, 0, 126, 0, 247
1, 2, System_exclusive, 8, 67, 16, 76, 8, 9, 7, 1, 247
1, 3, Control_c, 0, 0, 0
1, 3, Control_c, 1, 0, 0
1, 3, Control_c, 2, 0, 0
1, 3, Control_c, 3, 0, 0
1, 3, Control_c, 4, 0, 0
1, 3, Control_c, 5, 0, 0
1, 3, Control_c, 6, 0, 0
1, 3, Control_c, 7, 0, 0
1, 3, Control_c, 8, 0, 0
1, 3, Control_c, 9, 0, 127
1, 3, Control_c, 10, 0, 0
1, 3, Control_c, 11, 0, 0
1, 3, Control_c, 12, 0, 0
1, 3, Control_c, 13, 0, 0
1, 3, Control_c, 14, 0, 0
1, 3, Control_c, 15, 0, 0
1, 4, Control_c, 0, 32, 0
1, 4, Control_c, 1, 32, 0
1, 4, Control_c, 2, 32, 0
1, 4, Control_c, 3, 32, 0
1, 4, Control_c, 4, 32, 0
1, 4, Control_c, 5, 32, 0
1, 4, Control_c, 6, 32, 0
1, 4, Control_c, 7, 32, 0
1, 4, Control_c, 8, 32, 0
1, 4, Control_c, 9, 32, 0
1, 4, Control_c, 10, 32, 0
1, 4, Control_c, 11, 32, 0
1, 4, Control_c, 12, 32, 0
1, 4, Control_c, 13, 32, 0
1, 4, Control_c, 14, 32, 0
1, 4, Control_c, 15, 32, 0
1, 5, Program_c, 0, 0
1, 5, Program_c, 1, 0
1, 5, Program_c, 2, 0
1, 5, Program_c, 3, 0
1, 5, Program_c, 4, 0
1, 5, Program_c, 5, 0
1, 5, Program_c, 6, 0
1, 5, Program_c, 7, 0
1, 5, Program_c, 8, 0
1, 5, Program_c, 9, 0
1, 5, Program_c, 10, 0
1, 5, Program_c, 11, 0
1, 5, Program_c, 12, 0
1, 5, Program_c, 13, 0
1, 5, Program_c, 14, 0
1, 5, Program_c, 15, 0
1, 6, Control_c, 0, 7, 100
1, 6, Control_c, 1, 7, 100
1, 6, Control_c, 2, 7, 100
1, 6, Control_c, 3, 7, 100
1, 6, Control_c, 4, 7, 100
1, 6, Control_c, 5, 7, 100
1, 6, Control_c, 6, 7, 100
1, 6, Control_c, 7, 7, 100
1, 6, Control_c, 8, 7, 100
1, 6, Control_c, 9, 7, 100
1, 6, Control_c, 10, 7, 100
1, 6, Control_c, 11, 7, 100
1, 6, Control_c, 12, 7, 100
1, 6, Control_c, 13, 7, 100
1, 6, Control_c, 14, 7, 100
1, 6, Control_c, 15, 7, 100
1, 117, Control_c, 0, 67, 15
1, 229, Control_c, 0, 67, 31
1, 341, Control_c, 0, 67, 46
1, 452, Control_c, 0, 67, 63
1, 564, Control_c, 0, 67, 77
1, 676, Control_c, 0, 67, 94
1, 787, Control_c, 0, 67, 108
1, 899, Control_c, 0, 67, 127
1, 1134, Note_on_c, 0, 82, 52
1, 1396, Note_off_c, 0, 82, 52
1, 1422, Note_on_c, 0, 51, 41
1, 1435, Note_on_c, 0, 79, 53
1, 1471, Note_off_c, 0, 79, 55
1, 1473, Control_c, 0, 64, 52
1, 1488, Control_c, 0, 64, 64
1, 1503, Control_c, 0, 64, 66
1, 1507, Note_on_c, 0, 82, 57
1, 1517, Control_c, 0, 64, 67
1, 1532, Control_c, 0, 64, 68
1, 1538, Note_off_c, 0, 82, 54
1, 1547, Control_c, 0, 64, 70
1, 1556, Note_on_c, 0, 80, 64
1, 1562, Control_c, 0, 64, 72
1, 1577, Control_c, 0, 64, 74
1, 1591, Control_c, 0, 64, 75
1, 1606, Note_off_c, 0, 80, 63
1, 1606, Control_c, 0, 64, 76
1, 1615, Note_on_c, 0, 79, 60
1, 1623, Note_on_c, 0, 58, 47
1, 1645, Note_off_c, 0, 79, 64
1, 1664, Note_on_c, 0, 77, 67
1, 1709, Note_off_c, 0, 77, 62
1, 1751, Note_on_c, 0, 75, 65
1, 1806, Note_off_c, 0, 75, 65
1, 1812, Note_on_c, 0, 74, 57
1, 1821, Control_c, 0, 64, 75
1, 1835, Note_off_c, 0, 74, 67
1, 1859, Note_on_c, 0, 72, 63
1, 1881, Control_c, 0, 64, 75
1, 1891, Note_off_c, 0, 72, 66
1, 1925, Control_c, 0, 64, 74
1, 1929, Note_on_c, 0, 70, 67
1, 1955, Note_off_c, 0, 58, 58
1, 1981, Note_on_c, 0, 53, 55
1, 1985, Control_c, 0, 64, 73
1, 1993, Note_on_c, 0, 68, 64
1, 1999, Control_c, 0, 64, 69
1, 2000, Note_off_c, 0, 70, 56
1, 2014, Control_c, 0, 64, 53
1, 2029, Control_c, 0, 64, 0
1, 2031, Note_off_c, 0, 51, 55
1, 2051, Note_off_c, 0, 68, 65
1, 2054, Note_on_c, 0, 67, 63
1, 2088, Note_off_c, 0, 67, 65
1, 2104, Note_on_c, 0, 65, 67
1, 2147, Control_c, 0, 64, 54
1, 2149, Note_off_c, 0, 65, 64
1, 2161, Control_c, 0, 64, 63
1, 2176, Note_on_c, 0, 63, 71
1, 2176, Note_on_c, 0, 58, 51
1, 2176, Control_c, 0, 64, 64
1, 2191, Control_c, 0, 64, 65
1, 2206, Control_c, 0, 64, 66
1, 2221, Control_c, 0, 64, 67
1, 2230, Note_off_c, 0, 58, 59
1, 2236, Note_off_c, 0, 63, 64
1, 2237, Control_c, 0, 64, 68
1, 2240, Note_on_c, 0, 62, 67
1, 2266, Control_c, 0, 64, 68
1, 2271, Note_off_c, 0, 62, 62
1, 2289, Note_on_c, 0, 60, 65
1, 2311, Control_c, 0, 64, 68
1, 2325, Note_off_c, 0, 60, 57
1, 2354, Note_on_c, 0, 58, 69
1, 2392, Note_off_c, 0, 58, 64
1, 2423, Note_on_c, 0, 60, 63
1, 2456, Note_off_c, 0, 60, 61
1, 2485, Note_on_c, 0, 62, 69
1, 2496, Control_c, 0, 64, 67
1, 2511, Control_c, 0, 64, 67
1, 2526, Control_c, 0, 64, 64
1, 2535, Note_off_c, 0, 62, 60
1, 2539, Note_off_c, 0, 53, 63
1, 2540, Control_c, 0, 64, 47
1, 2545, Note_on_c, 0, 63, 66
1, 2548, Note_on_c, 0, 55, 61
1, 2555, Control_c, 0, 64, 0
1, 2578, Note_off_c, 0, 63, 66
1, 2598, Note_on_c, 0, 62, 60
1, 2639, Note_off_c, 0, 62, 57
1, 2670, Note_on_c, 0, 63, 66
1, 2703, Control_c, 0, 64, 61
1, 2712, Note_off_c, 0, 63, 65
1, 2718, Control_c, 0, 64, 64
1, 2731, Note_on_c, 0, 64, 66
1, 2733, Note_on_c, 0, 58, 51
1, 2733, Control_c, 0, 64, 65
1, 2763, Control_c, 0, 64, 66
1, 2778, Control_c, 0, 64, 67
1, 2784, Note_off_c, 0, 64, 63
1, 2790, Note_on_c, 0, 63, 69
1, 2792, Control_c, 0, 64, 67
1, 2807, Control_c, 0, 64, 68
1, 2829, Note_off_c, 0, 63, 65
1, 2841, Note_on_c, 0, 64, 61
1, 2852, Control_c, 0, 64, 68
1, 2897, Note_off_c, 0, 64, 59
1, 2909, Note_on_c, 0, 65, 70
1, 2926, Control_c, 0, 64, 68
1, 2940, Note_off_c, 0, 65, 64
1, 2964, Note_on_c, 0, 64, 62
1, 3006, Note_off_c, 0, 64, 62
1, 3017, Note_on_c, 0, 65, 68
1, 3029, Control_c, 0, 64, 67
1, 3046, Note_off_c, 0, 58, 54
1, 3067, Note_off_c, 0, 65, 65
1, 3076, Note_on_c, 0, 66, 69
1, 3094, Note_on_c, 0, 50, 52
1, 3104, Control_c, 0, 64, 67
1, 3108, Note_off_c, 0, 66, 67
1, 3119, Control_c, 0, 64, 65
1, 3130, Note_on_c, 0, 65, 63
1, 3134, Control_c, 0, 64, 57
1, 3149, Control_c, 0, 64, 0
1, 3174, Note_off_c, 0, 65, 63
1, 3201, Note_on_c, 0, 66, 68
1, 3249, Note_off_c, 0, 66, 63
1, 3255, Note_off_c, 0, 55, 30
1, 3267, Note_on_c, 0, 67, 67
1, 3270, Note_on_c, 0, 58, 60
1, 3289, Control_c, 0, 64, 45
1, 3304, Control_c, 0, 64, 64
1, 3316, Note_off_c, 0, 67, 62
1, 3319, Control_c, 0, 64, 65
1, 3331, Note_on_c, 0, 66, 69
1, 3363, Control_c, 0, 64, 66
1, 3371, Note_off_c, 0, 66, 67
1, 3387, Note_on_c, 0, 67, 63
1, 3433, Note_off_c, 0, 67, 57
1, 3452, Note_on_c, 0, 68, 71
1, 3488, Note_off_c, 0, 68, 65
1, 3511, Note_on_c, 0, 67, 60
1, 3551, Note_off_c, 0, 67, 62
1, 3565, Note_on_c, 0, 68, 63
1, 3586, Control_c, 0, 64, 65
1, 3602, Note_off_c, 0, 68, 60
1, 3610, Note_off_c, 0, 58, 44
1, 3622, Note_on_c, 0, 67, 59
1, 3644, Note_on_c, 0, 51, 58
1, 3645, Control_c, 0, 64, 64
1, 3658, Note_off_c, 0, 50, 48
1, 3660, Control_c, 0, 64, 56
1, 3665, Note_off_c, 0, 67, 62
1, 3675, Control_c, 0, 64, 0
1, 3684, Note_on_c, 0, 70, 66
1, 3751, Note_on_c, 0, 68, 67
1, 3752, Note_off_c, 0, 70, 63
1, 3792, Note_off_c, 0, 68, 65
1, 3793, Control_c, 0, 64, 60
1, 3806, Note_on_c, 0, 67, 65
1, 3808, Control_c, 0, 64, 65
1, 3833, Note_on_c, 0, 58, 62
1, 3838, Control_c, 0, 64, 66
1, 3851, Note_off_c, 0, 67, 61
1, 3868, Control_c, 0, 64, 67
1, 3869, Note_on_c, 0, 68, 62
1, 3883, Control_c, 0, 64, 68
1, 3898, Control_c, 0, 64, 68
1, 3906, Note_off_c, 0, 58, 63
1, 3912, Control_c, 0, 64, 69
1, 3913, Note_off_c, 0, 68, 64
1, 3923, Note_on_c, 0, 70, 68
1, 3927, Control_c, 0, 64, 70
1, 3932, Note_off_c, 0, 51, 62
1, 3942, Control_c, 0, 64, 70
1, 3949, Note_off_c, 0, 70, 69
1, 3990, Note_on_c, 0, 72, 71
1, 4030, Note_off_c, 0, 72, 54
1, 4058, Note_on_c, 0, 74, 70
1, 4104, Note_off_c, 0, 74, 63
1, 4112, Control_c, 0, 64, 70
1, 4114, Note_on_c, 0, 75, 71
1, 4127, Control_c, 0, 64, 69
1, 4142, Control_c, 0, 64, 65
1, 4157, Note_off_c, 0, 75, 66
1, 4157, Control_c, 0, 64, 36
1, 4172, Control_c, 0, 64, 0
1, 4177, Note_on_c, 0, 77, 73
1, 4185, Note_on_c, 0, 44, 63
1, 4216, Note_off_c, 0, 77, 59
1, 4256, Note_on_c, 0, 84, 60
1, 4260, Control_c, 0, 64, 60
1, 4271, Note_off_c, 0, 44, 65
1, 4275, Control_c, 0, 64, 66
1, 4290, Control_c, 0, 64, 67
1, 4303, Note_off_c, 0, 84, 64
1, 4310, Note_on_c, 0, 82, 71
1, 4319, Control_c, 0, 64, 68
1, 4334, Control_c, 0, 64, 69
1, 4349, Control_c, 0, 64, 70
1, 4364, Control_c, 0, 64, 71
1, 4379, Control_c, 0, 64, 72
1, 4382, Note_on_c, 0, 80, 63
1, 4388, Note_off_c, 0, 82, 59
1, 4399, Note_on_c, 0, 60, 63
1, 4405, Note_on_c, 0, 56, 53
1, 4432, Note_off_c, 0, 80, 64
1, 4437, Note_on_c, 0, 79, 66
1, 4466, Note_off_c, 0, 79, 61
1, 4495, Note_off_c, 0, 60, 57
1, 4498, Note_on_c, 0, 77, 64
1, 4537, Note_off_c, 0, 77, 62
1, 4538, Note_off_c, 0, 56, 64
1, 4565, Note_on_c, 0, 75, 66
1, 4623, Note_off_c, 0, 75, 65
1, 4627, Note_on_c, 0, 74, 64
1, 4631, Control_c, 0, 64, 71
1, 4656, Note_off_c, 0, 74, 65
1, 4676, Control_c, 0, 64, 70
1, 4683, Note_on_c, 0, 72, 66
1, 4691, Control_c, 0, 64, 67
1, 4713, Control_c, 0, 64, 49
1, 4728, Control_c, 0, 64, 0
1, 4742, Note_off_c, 0, 72, 53
1, 4757, Note_on_c, 0, 46, 68
1, 4763, Note_on_c, 0, 70, 71
1, 4793, Note_off_c, 0, 70, 62
1, 4822, Note_on_c, 0, 77, 72
1, 4830, Note_off_c, 0, 46, 63
1, 4832, Control_c, 0, 64, 11
1, 4847, Control_c, 0, 64, 64
1, 4861, Control_c, 0, 64, 68
1, 4875, Note_off_c, 0, 77, 59
1, 4876, Control_c, 0, 64, 70
1, 4888, Note_on_c, 0, 75, 58
1, 4891, Control_c, 0, 64, 71
1, 4906, Control_c, 0, 64, 73
1, 4921, Control_c, 0, 64, 74
1, 4935, Control_c, 0, 64, 75
1, 4947, Note_on_c, 0, 74, 65
1, 4950, Control_c, 0, 64, 76
1, 4958, Note_off_c, 0, 75, 62
1, 4963, Note_on_c, 0, 62, 58
1, 4965, Control_c, 0, 64, 76
1, 4967, Note_on_c, 0, 56, 55
1, 4975, Note_on_c, 0, 58, 52
1, 4989, Note_off_c, 0, 74, 65
1, 5000, Note_on_c, 0, 72, 69
1, 5031, Note_off_c, 0, 72, 64
1, 5082, Note_on_c, 0, 70, 69
1, 5097, Note_off_c, 0, 62, 57
1, 5130, Note_off_c, 0, 58, 61
1, 5133, Note_off_c, 0, 56, 61
1, 5142, Note_on_c, 0, 68, 62
1, 5143, Note_off_c, 0, 70, 58
1, 5196, Note_off_c, 0, 68, 65
1, 5201, Note_on_c, 0, 67, 71
1, 5230, Note_off_c, 0, 67, 64
1, 5231, Control_c, 0, 64, 76
1, 5246, Control_c, 0, 64, 74
1, 5249, Note_on_c, 0, 65, 67
1, 5261, Control_c, 0, 64, 70
1, 5276, Control_c, 0, 64, 57
1, 5287, Note_off_c, 0, 65, 64
1, 5291, Control_c, 0, 64, 0
1, 5329, Note_on_c, 0, 63, 71
1, 5331, Note_on_c, 0, 51, 59
1, 5361, Note_off_c, 0, 63, 68
1, 5386, Note_on_c, 0, 65, 69
1, 5395, Control_c, 0, 64, 37
1, 5410, Control_c, 0, 64, 65
1, 5420, Note_off_c, 0, 51, 60
1, 5425, Control_c, 0, 64, 69
1, 5440, Control_c, 0, 64, 71
1, 5447, Note_off_c, 0, 65, 60
1, 5454, Note_on_c, 0, 67, 71
1, 5455, Control_c, 0, 64, 73
1, 5478, Control_c, 0, 64, 74
1, 5492, Control_c, 0, 64, 75
1, 5507, Control_c, 0, 64, 77
1, 5512, Note_off_c, 0, 67, 61
1, 5521, Note_on_c, 0, 68, 69
1, 5522, Control_c, 0, 64, 78
1, 5537, Control_c, 0, 64, 80
1, 5542, Note_on_c, 0, 63, 59
1, 5547, Note_on_c, 0, 58, 51
1, 5552, Control_c, 0, 64, 81
1, 5553, Note_on_c, 0, 55, 48
1, 5565, Note_off_c, 0, 68, 65
1, 5566, Control_c, 0, 64, 81
1, 5575, Note_on_c, 0, 70, 72
1, 5596, Control_c, 0, 64, 82
1, 5604, Note_off_c, 0, 70, 67
1, 5625, Control_c, 0, 64, 82
1, 5626, Note_off_c, 0, 63, 62
1, 5649, Note_on_c, 0, 72, 73
1, 5650, Note_off_c, 0, 55, 64
1, 5654, Note_off_c, 0, 58, 63
1, 5708, Note_off_c, 0, 72, 63
1, 5716, Note_on_c, 0, 74, 69
1, 5762, Note_off_c, 0, 74, 63
1, 5777, Note_on_c, 0, 75, 70
1, 5809, Note_off_c, 0, 75, 66
1, 5833, Note_on_c, 0, 77, 70
1, 5878, Control_c, 0, 64, 82
1, 5893, Control_c, 0, 64, 80
1, 5902, Note_on_c, 0, 51, 48
1, 5908, Control_c, 0, 64, 76
1, 5911, Note_off_c, 0, 77, 38
1, 5919, Note_on_c, 0, 79, 64
1, 5923, Control_c, 0, 64, 67
1, 5938, Control_c, 0, 64, 0
1, 5966, Note_off_c, 0, 79, 63
1, 5974, Note_on_c, 0, 82, 65
1, 6040, Note_on_c, 0, 80, 63
1, 6043, Note_off_c, 0, 82, 59
1, 6056, Control_c, 0, 64, 61
1, 6071, Control_c, 0, 64, 67
1, 6085, Control_c, 0, 64, 69
1, 6093, Note_off_c, 0, 80, 65
1, 6100, Control_c, 0, 64, 71
1, 6101, Note_on_c, 0, 58, 55
1, 6103, Note_on_c, 0, 79, 66
1, 6115, Control_c, 0, 64, 72
1, 6130, Control_c, 0, 64, 73
1, 6131, Note_off_c, 0, 79, 64
1, 6145, Control_c, 0, 64, 73
1, 6154, Note_on_c, 0, 77, 62
1, 6159, Control_c, 0, 64, 74
1, 6192, Note_off_c, 0, 77, 58
1, 6248, Note_on_c, 0, 76, 55
1, 6270, Note_off_c, 0, 76, 66
1, 6286, Note_on_c, 0, 74, 57
1, 6316, Note_off_c, 0, 74, 65
1, 6340, Note_on_c, 0, 72, 63
1, 6346, Control_c, 0, 64, 73
1, 6374, Note_off_c, 0, 72, 65
1, 6409, Note_on_c, 0, 70, 71
1, 6477, Note_on_c, 0, 68, 63
1, 6493, Note_off_c, 0, 70, 59
1, 6493, Control_c, 0, 64, 73
1, 6495, Note_on_c, 0, 53, 54
1, 6496, Note_off_c, 0, 58, 51
1, 6508, Control_c, 0, 64, 69
1, 6521, Note_off_c, 0, 68, 64
1, 6522, Control_c, 0, 64, 60
1, 6526, Note_on_c, 0, 67, 68
1, 6537, Control_c, 0, 64, 0
1, 6549, Note_off_c, 0, 51, 48
1, 6558, Note_off_c, 0, 67, 64
1, 6577, Note_on_c, 0, 65, 63
1, 6614, Note_off_c, 0, 65, 65
1, 6650, Note_on_c, 0, 63, 69
1, 6656, Control_c, 0, 64, 56
1, 6671, Control_c, 0, 64, 64
1, 6674, Note_on_c, 0, 58, 48
1, 6709, Note_off_c, 0, 58, 56
1, 6709, Note_off_c, 0, 63, 65
1, 6713, Note_on_c, 0, 62, 65
1, 6730, Control_c, 0, 64, 64
1, 6746, Note_off_c, 0, 62, 64
1, 6763, Note_on_c, 0, 60, 60
1, 6800, Note_off_c, 0, 60, 57
1, 6819, Control_c, 0, 64, 65
1, 6828, Note_on_c, 0, 58, 68
1, 6867, Note_off_c, 0, 58, 64
1, 6892, Note_on_c, 0, 60, 65
1, 6934, Note_off_c, 0, 60, 60
1, 6937, Control_c, 0, 64, 64
1, 6959, Control_c, 0, 64, 63
1, 6960, Note_on_c, 0, 62, 63
1, 6974, Control_c, 0, 64, 47
1, 6989, Control_c, 0, 64, 0
1, 7003, Note_off_c, 0, 62, 62
1, 7008, Note_off_c, 0, 53, 63
1, 7011, Note_on_c, 0, 55, 59
1, 7014, Note_on_c, 0, 63, 64
1, 7053, Note_off_c, 0, 63, 65
1, 7067, Note_on_c, 0, 62, 57
1, 7111, Note_off_c, 0, 62, 60
1, 7124, Control_c, 0, 64, 53
1, 7135, Note_on_c, 0, 63, 67
1, 7138, Control_c, 0, 64, 64
1, 7153, Control_c, 0, 64, 66
1, 7182, Note_off_c, 0, 63, 59
1, 7182, Control_c, 0, 64, 66
1, 7191, Note_on_c, 0, 58, 54
1, 7197, Control_c, 0, 64, 67
1, 7198, Note_on_c, 0, 64, 68
1, 7212, Control_c, 0, 64, 68
1, 7227, Control_c, 0, 64, 68
1, 7242, Control_c, 0, 64, 69
1, 7255, Note_off_c, 0, 64, 64
1, 7256, Note_on_c, 0, 63, 62
1, 7271, Control_c, 0, 64, 69
1, 7292, Note_off_c, 0, 63, 65
1, 7301, Control_c, 0, 64, 70
1, 7304, Note_on_c, 0, 64, 62
1, 7316, Control_c, 0, 64, 70
1, 7366, Note_off_c, 0, 64, 61
1, 7372, Note_on_c, 0, 65, 74
1, 7401, Note_off_c, 0, 65, 65
1, 7425, Note_on_c, 0, 64, 62
1, 7470, Note_off_c, 0, 64, 63
1, 7488, Note_on_c, 0, 65, 63
1, 7494, Control_c, 0, 64, 70
1, 7503, Note_off_c, 0, 58, 55
1, 7523, Control_c, 0, 64, 68
1, 7532, Note_off_c, 0, 65, 67
1, 7538, Control_c, 0, 64, 65
1, 7542, Note_on_c, 0, 66, 70
1, 7552, Note_on_c, 0, 50, 53
1, 7553, Control_c, 0, 64, 37
1, 7568, Control_c, 0, 64, 0
1, 7571, Note_off_c, 0, 66, 69
1, 7589, Note_on_c, 0, 65, 61
1, 7633, Note_off_c, 0, 65, 62
1, 7656, Note_on_c, 0, 66, 71
1, 7686, Control_c, 0, 64, 43
1, 7708, Control_c, 0, 64, 64
1, 7711, Note_off_c, 0, 66, 64
1, 7723, Note_off_c, 0, 55, 32
1, 7723, Control_c, 0, 64, 66
1, 7728, Note_on_c, 0, 67, 64
1, 7744, Note_on_c, 0, 58, 55
1, 7753, Control_c, 0, 64, 66
1, 7768, Control_c, 0, 64, 67
1, 7769, Note_off_c, 0, 67, 64
1, 7782, Note_on_c, 0, 66, 63
1, 7782, Control_c, 0, 64, 67
1, 7797, Control_c, 0, 64, 68
1, 7820, Note_off_c, 0, 66, 68
1, 7831, Note_on_c, 0, 67, 67
1, 7894, Note_off_c, 0, 67, 58
1, 7903, Note_on_c, 0, 68, 74
1, 7940, Note_off_c, 0, 68, 66
1, 7959, Note_on_c, 0, 67, 60
1, 7975, Control_c, 0, 64, 67
1, 8005, Note_off_c, 0, 67, 62
1, 8021, Note_on_c, 0, 68, 60
1, 8044, Note_off_c, 0, 58, 51
1, 8049, Control_c, 0, 64, 67
1, 8056, Note_off_c, 0, 68, 65
1, 8064, Control_c, 0, 64, 65
1, 8075, Note_on_c, 0, 67, 60
1, 8079, Note_on_c, 0, 51, 58
1, 8079, Control_c, 0, 64, 60
1, 8085, Note_off_c, 0, 50, 53
1, 8093, Control_c, 0, 64, 0
1, 8123, Note_off_c, 0, 67, 61
1, 8136, Note_on_c, 0, 70, 68
1, 8196, Note_off_c, 0, 70, 63
1, 8197, Note_on_c, 0, 68, 67
1, 8212, Control_c, 0, 64, 51
1, 8227, Control_c, 0, 64, 64
1, 8236, Note_off_c, 0, 68, 66
1, 8242, Control_c, 0, 64, 66
1, 8246, Note_on_c, 0, 67, 64
1, 8276, Note_on_c, 0, 58, 59
1, 8286, Control_c, 0, 64, 67
1, 8289, Note_off_c, 0, 67, 62
1, 8301, Control_c, 0, 64, 68
1, 8302, Note_on_c, 0, 68, 62
1, 8316, Control_c, 0, 64, 69
1, 8330, Control_c, 0, 64, 70
1, 8332, Note_off_c, 0, 58, 61
1, 8346, Note_off_c, 0, 68, 65
1, 8357, Note_on_c, 0, 70, 70
1, 8358, Note_off_c, 0, 51, 62
1, 8375, Control_c, 0, 64, 70
1, 8384, Note_off_c, 0, 70, 69
1, 8415, Note_on_c, 0, 72, 73
1, 8475, Note_off_c, 0, 72, 50
1, 8495, Note_on_c, 0, 74, 68
1, 8528, Note_off_c, 0, 74, 63
1, 8542, Note_on_c, 0, 75, 70
1, 8560, Control_c, 0, 64, 69
1, 8575, Control_c, 0, 64, 66
1, 8579, Note_off_c, 0, 75, 66
1, 8590, Control_c, 0, 64, 54
1, 8604, Note_on_c, 0, 77, 71
1, 8604, Control_c, 0, 64, 0
1, 8626, Note_on_c, 0, 44, 65
1, 8648, Note_off_c, 0, 77, 61
1, 8677, Note_on_c, 0, 84, 69
1, 8695, Control_c, 0, 64, 54
1, 8709, Control_c, 0, 64, 66
1, 8714, Note_off_c, 0, 44, 65
1, 8718, Note_off_c, 0, 84, 60
1, 8724, Control_c, 0, 64, 69
1, 8730, Note_on_c, 0, 82, 71
1, 8739, Control_c, 0, 64, 70
1, 8754, Control_c, 0, 64, 71
1, 8769, Control_c, 0, 64, 71
1, 8783, Control_c, 0, 64, 72
1, 8798, Control_c, 0, 64, 73
1, 8809, Note_on_c, 0, 80, 66
1, 8813, Control_c, 0, 64, 74
1, 8814, Note_off_c, 0, 82, 59
1, 8827, Control_c, 0, 64, 74
1, 8849, Note_on_c, 0, 60, 62
1, 8856, Note_on_c, 0, 56, 55
1, 8865, Note_on_c, 0, 79, 66
1, 8866, Note_off_c, 0, 80, 63
1, 8904, Note_off_c, 0, 79, 56
1, 8922, Note_on_c, 0, 77, 65
1, 8951, Note_off_c, 0, 60, 60
1, 8972, Note_off_c, 0, 77, 60
1, 8988, Note_off_c, 0, 56, 63
1, 8991, Note_on_c, 0, 75, 69
1, 9050, Note_off_c, 0, 75, 66
1, 9053, Note_on_c, 0, 74, 65
1, 9091, Note_off_c, 0, 74, 66
1, 9103, Note_on_c, 0, 72, 70
1, 9124, Control_c, 0, 64, 74
1, 9139, Control_c, 0, 64, 72
1, 9153, Control_c, 0, 64, 67
1, 9168, Control_c, 0, 64, 0
1, 9169, Note_off_c, 0, 72, 64
1, 9181, Note_on_c, 0, 74, 63
1, 9189, Note_on_c, 0, 46, 71
1, 9253, Note_on_c, 0, 77, 68
1, 9256, Note_off_c, 0, 74, 64
1, 9272, Note_off_c, 0, 46, 63
1, 9294, Control_c, 0, 64, 64
1, 9307, Note_on_c, 0, 75, 67
1, 9309, Control_c, 0, 64, 68
1, 9315, Note_off_c, 0, 77, 60
1, 9324, Control_c, 0, 64, 69
1, 9339, Control_c, 0, 64, 70
1, 9354, Control_c, 0, 64, 71
1, 9368, Control_c, 0, 64, 73
1, 9369, Note_off_c, 0, 75, 65
1, 9379, Note_on_c, 0, 74, 66
1, 9383, Control_c, 0, 64, 74
1, 9398, Control_c, 0, 64, 75
1, 9408, Note_on_c, 0, 62, 49
1, 9410, Note_on_c, 0, 56, 56
1, 9413, Control_c, 0, 64, 76
1, 9415, Note_on_c, 0, 58, 54
1, 9416, Note_off_c, 0, 74, 61
1, 9422, Note_on_c, 0, 75, 57
1, 9428, Control_c, 0, 64, 77
1, 9453, Note_off_c, 0, 62, 0
1, 9453, Note_on_c, 0, 62, 11
1, 9458, Control_c, 0, 64, 77
1, 9467, Note_off_c, 0, 75, 66
1, 9473, Control_c, 0, 64, 78
1, 9485, Note_on_c, 0, 77, 76
1, 9488, Control_c, 0, 64, 78
1, 9503, Control_c, 0, 64, 79
1, 9543, Note_off_c, 0, 77, 50
1, 9553, Note_off_c, 0, 62, 58
1, 9565, Note_on_c, 0, 79, 67
1, 9574, Note_off_c, 0, 58, 62
1, 9574, Note_off_c, 0, 56, 62
1, 9607, Note_off_c, 0, 79, 61
1, 9616, Note_on_c, 0, 80, 73
1, 9652, Note_off_c, 0, 80, 65
1, 9669, Note_on_c, 0, 82, 61
1, 9724, Control_c, 0, 64, 77
1, 9739, Control_c, 0, 64, 72
1, 9749, Note_on_c, 0, 75, 58
1, 9749, Note_off_c, 0, 82, 64
1, 9751, Note_on_c, 0, 51, 63
1, 9754, Control_c, 0, 64, 51
1, 9769, Control_c, 0, 64, 0
1, 9786, Note_off_c, 0, 75, 67
1, 9804, Note_on_c, 0, 77, 72
1, 9843, Control_c, 0, 64, 42
1, 9858, Control_c, 0, 64, 66
1, 9872, Note_on_c, 0, 79, 71
1, 9872, Note_off_c, 0, 51, 54
1, 9872, Note_off_c, 0, 77, 54
1, 9872, Control_c, 0, 64, 70
1, 9887, Control_c, 0, 64, 72
1, 9902, Control_c, 0, 64, 74
1, 9917, Control_c, 0, 64, 76
1, 9926, Note_off_c, 0, 79, 62
1, 9930, Note_on_c, 0, 80, 76
1, 9932, Control_c, 0, 64, 78
1, 9954, Control_c, 0, 64, 79
1, 9958, Note_on_c, 0, 63, 65
1, 9963, Note_on_c, 0, 55, 44
1, 9969, Note_on_c, 0, 58, 55
1, 9969, Control_c, 0, 64, 80
1, 9983, Control_c, 0, 64, 81
1, 9985, Note_off_c, 0, 80, 63
1, 9994, Note_on_c, 0, 82, 69
1, 9998, Control_c, 0, 64, 82
1, 10013, Control_c, 0, 64, 82
1, 10018, Note_off_c, 0, 82, 66
1, 10028, Control_c, 0, 64, 83
1, 10056, Note_on_c, 0, 84, 74
1, 10057, Control_c, 0, 64, 83
1, 10066, Note_off_c, 0, 63, 60
1, 10081, Note_off_c, 0, 55, 59
1, 10102, Note_off_c, 0, 58, 58
1, 10114, Note_off_c, 0, 84, 62
1, 10124, Note_on_c, 0, 86, 75
1, 10168, Note_off_c, 0, 86, 61
1, 10174, Note_on_c, 0, 87, 73
1, 10217, Note_off_c, 0, 87, 63
1, 10239, Note_on_c, 0, 89, 75
1, 10296, Control_c, 0, 64, 83
1, 10299, Note_on_c, 0, 51, 54
1, 10299, Note_off_c, 0, 89, 61
1, 10311, Control_c, 0, 64, 79
1, 10312, Note_on_c, 0, 91, 74
1, 10326, Control_c, 0, 64, 68
1, 10340, Control_c, 0, 64, 0
1, 10367, Note_on_c, 0, 94, 70
1, 10369, Note_off_c, 0, 91, 61
1, 10428, Note_on_c, 0, 92, 71
1, 10429, Control_c, 0, 64, 57
1, 10434, Note_off_c, 0, 94, 60
1, 10444, Control_c, 0, 64, 67
1, 10459, Control_c, 0, 64, 70
1, 10473, Control_c, 0, 64, 72
1, 10484, Note_on_c, 0, 58, 59
1, 10486, Note_off_c, 0, 92, 65
1, 10488, Control_c, 0, 64, 74
1, 10491, Note_on_c, 0, 91, 73
1, 10503, Control_c, 0, 64, 75
1, 10518, Control_c, 0, 64, 76
1, 10525, Note_off_c, 0, 91, 57
1, 10533, Control_c, 0, 64, 77
1, 10543, Note_on_c, 0, 89, 61
1, 10547, Control_c, 0, 64, 77
1, 10576, Note_off_c, 0, 89, 66
1, 10606, Control_c, 0, 64, 78
1, 10611, Note_on_c, 0, 87, 71
1, 10671, Note_off_c, 0, 87, 64
1, 10675, Note_on_c, 0, 86, 61
1, 10712, Note_off_c, 0, 86, 65
1, 10733, Note_on_c, 0, 84, 65
1, 10766, Note_off_c, 0, 84, 64
1, 10803, Note_on_c, 0, 82, 69
1, 10859, Note_on_c, 0, 53, 59
1, 10861, Note_on_c, 0, 80, 68
1, 10863, Note_off_c, 0, 58, 57
1, 10866, Control_c, 0, 64, 77
1, 10880, Control_c, 0, 64, 73
1, 10883, Note_off_c, 0, 82, 58
1, 10895, Control_c, 0, 64, 62
1, 10910, Control_c, 0, 64, 0
1, 10917, Note_off_c, 0, 80, 65
1, 10921, Note_on_c, 0, 79, 65
1, 10928, Note_off_c, 0, 51, 55
1, 10949, Note_off_c, 0, 79, 65
1, 10962, Note_on_c, 0, 77, 63
1, 10999, Control_c, 0, 64, 32
1, 11007, Note_off_c, 0, 77, 62
1, 11014, Control_c, 0, 64, 64
1, 11029, Control_c, 0, 64, 67
1, 11040, Note_on_c, 0, 75, 70
1, 11044, Control_c, 0, 64, 68
1, 11060, Note_on_c, 0, 58, 56
1, 11074, Control_c, 0, 64, 69
1, 11089, Control_c, 0, 64, 70
1, 11095, Note_off_c, 0, 75, 65
1, 11098, Note_on_c, 0, 74, 63
1, 11104, Control_c, 0, 64, 71
1, 11118, Control_c, 0, 64, 71
1, 11125, Note_off_c, 0, 74, 69
1, 11133, Control_c, 0, 64, 72
1, 11145, Note_on_c, 0, 72, 64
1, 11148, Control_c, 0, 64, 72
1, 11178, Control_c, 0, 64, 73
1, 11183, Note_off_c, 0, 72, 56
1, 11193, Control_c, 0, 64, 73
1, 11214, Note_on_c, 0, 70, 71
1, 11223, Control_c, 0, 64, 74
1, 11248, Note_off_c, 0, 70, 64
1, 11271, Note_on_c, 0, 72, 59
1, 11314, Note_off_c, 0, 72, 65
1, 11333, Note_on_c, 0, 74, 64
1, 11371, Control_c, 0, 64, 73
1, 11378, Note_off_c, 0, 58, 58
1, 11381, Note_off_c, 0, 74, 64
1, 11385, Control_c, 0, 64, 70
1, 11389, Note_on_c, 0, 75, 66
1, 11394, Note_on_c, 0, 55, 61
1, 11400, Control_c, 0, 64, 62
1, 11404, Note_off_c, 0, 53, 60
1, 11415, Control_c, 0, 64, 0
1, 11420, Note_off_c, 0, 75, 64
1, 11437, Note_on_c, 0, 74, 56
1, 11491, Note_off_c, 0, 74, 60
1, 11515, Note_on_c, 0, 75, 64
1, 11526, Control_c, 0, 64, 59
1, 11541, Control_c, 0, 64, 66
1, 11555, Control_c, 0, 64, 69
1, 11564, Note_off_c, 0, 75, 62
1, 11570, Control_c, 0, 64, 71
1, 11578, Note_on_c, 0, 76, 70
1, 11582, Note_on_c, 0, 58, 56
1, 11585, Control_c, 0, 64, 73
1, 11600, Control_c, 0, 64, 75
1, 11615, Control_c, 0, 64, 78
1, 11629, Control_c, 0, 64, 79
1, 11631, Note_off_c, 0, 76, 63
1, 11632, Note_on_c, 0, 75, 58
1, 11644, Control_c, 0, 64, 80
1, 11659, Control_c, 0, 64, 80
1, 11674, Control_c, 0, 64, 81
1, 11681, Note_off_c, 0, 75, 64
1, 11688, Note_on_c, 0, 76, 65
1, 11703, Control_c, 0, 64, 81
1, 11747, Note_off_c, 0, 76, 63
1, 11753, Note_on_c, 0, 77, 71
1, 11791, Note_off_c, 0, 77, 58
1, 11808, Note_on_c, 0, 76, 58
1, 11858, Note_off_c, 0, 76, 66
1, 11871, Note_on_c, 0, 77, 66
1, 11918, Note_off_c, 0, 77, 61
1, 11920, Note_on_c, 0, 78, 72
1, 11923, Note_off_c, 0, 58, 52
1, 11927, Control_c, 0, 64, 81
1, 11936, Note_on_c, 0, 50, 61
1, 11942, Control_c, 0, 64, 78
1, 11953, Note_off_c, 0, 78, 61
1, 11957, Control_c, 0, 64, 70
1, 11972, Control_c, 0, 64, 34
1, 11977, Note_on_c, 0, 77, 54
1, 11986, Control_c, 0, 64, 0
1, 12025, Note_off_c, 0, 77, 60
1, 12046, Note_on_c, 0, 78, 71
1, 12075, Control_c, 0, 64, 62
1, 12084, Note_off_c, 0, 55, 36
1, 12087, Note_off_c, 0, 78, 63
1, 12090, Control_c, 0, 64, 68
1, 12105, Note_on_c, 0, 79, 62
1, 12105, Control_c, 0, 64, 71
1, 12120, Control_c, 0, 64, 73
1, 12123, Note_on_c, 0, 58, 60
1, 12135, Control_c, 0, 64, 75
1, 12150, Control_c, 0, 64, 76
1, 12153, Note_off_c, 0, 79, 61
1, 12165, Control_c, 0, 64, 78
1, 12165, Note_on_c, 0, 78, 70
1, 12179, Control_c, 0, 64, 79
1, 12194, Control_c, 0, 64, 79
1, 12215, Note_off_c, 0, 78, 63
1, 12216, Control_c, 0, 64, 80
1, 12224, Note_on_c, 0, 79, 66
1, 12260, Control_c, 0, 64, 80
1, 12286, Note_off_c, 0, 79, 59
1, 12295, Note_on_c, 0, 80, 75
1, 12338, Note_off_c, 0, 80, 63
1, 12347, Note_on_c, 0, 79, 60
1, 12400, Note_off_c, 0, 79, 60
1, 12419, Note_on_c, 0, 80, 57
1, 12439, Control_c, 0, 64, 80
1, 12445, Note_off_c, 0, 80, 57
1, 12453, Control_c, 0, 64, 78
1, 12454, Note_off_c, 0, 58, 57
1, 12460, Note_on_c, 0, 51, 63
1, 12463, Note_on_c, 0, 79, 63
1, 12467, Control_c, 0, 64, 72
1, 12482, Control_c, 0, 64, 59
1, 12484, Note_off_c, 0, 50, 49
1, 12497, Control_c, 0, 64, 0
1, 12515, Note_off_c, 0, 79, 61
1, 12523, Note_on_c, 0, 82, 69
1, 12584, Note_on_c, 0, 80, 64
1, 12585, Control_c, 0, 64, 64
1, 12588, Note_off_c, 0, 82, 63
1, 12600, Control_c, 0, 64, 69
1, 12615, Control_c, 0, 64, 72
1, 12628, Note_off_c, 0, 80, 64
1, 12631, Control_c, 0, 64, 75
1, 12634, Note_on_c, 0, 79, 70
1, 12646, Control_c, 0, 64, 76
1, 12657, Note_on_c, 0, 58, 66
1, 12661, Control_c, 0, 64, 78
1, 12675, Control_c, 0, 64, 79
1, 12690, Control_c, 0, 64, 79
1, 12691, Note_off_c, 0, 79, 62
1, 12695, Note_on_c, 0, 80, 66
1, 12705, Control_c, 0, 64, 80
1, 12720, Control_c, 0, 64, 80
1, 12731, Note_off_c, 0, 58, 63
1, 12735, Control_c, 0, 64, 81
1, 12737, Note_off_c, 0, 80, 64
1, 12740, Note_on_c, 0, 82, 75
1, 12749, Control_c, 0, 64, 82
1, 12758, Note_off_c, 0, 51, 62
1, 12779, Note_off_c, 0, 82, 64
1, 12779, Control_c, 0, 64, 82
1, 12810, Note_on_c, 0, 84, 72
1, 12872, Note_off_c, 0, 84, 57
1, 12880, Note_on_c, 0, 86, 73
1, 12918, Note_off_c, 0, 86, 62
1, 12928, Control_c, 0, 64, 82
1, 12931, Note_on_c, 0, 87, 72
1, 12943, Control_c, 0, 64, 78
1, 12964, Control_c, 0, 64, 70
1, 12978, Note_off_c, 0, 87, 65
1, 12979, Control_c, 0, 64, 16
1, 12994, Control_c, 0, 64, 0
1, 12995, Note_on_c, 0, 44, 65
1, 12999, Note_on_c, 0, 89, 75
1, 13048, Note_off_c, 0, 89, 64
1, 13053, Control_c, 0, 64, 58
1, 13068, Control_c, 0, 64, 68
1, 13079, Note_on_c, 0, 96, 58
1, 13081, Note_off_c, 0, 44, 65
1, 13083, Control_c, 0, 64, 71
1, 13098, Control_c, 0, 64, 74
1, 13113, Note_off_c, 0, 96, 62
1, 13113, Control_c, 0, 64, 76
1, 13124, Note_on_c, 0, 94, 74
1, 13127, Control_c, 0, 64, 77
1, 13142, Control_c, 0, 64, 79
1, 13157, Control_c, 0, 64, 80
1, 13172, Control_c, 0, 64, 80
1, 13198, Note_on_c, 0, 92, 75
1, 13202, Note_off_c, 0, 94, 63
1, 13205, Note_on_c, 0, 60, 62
1, 13211, Note_on_c, 0, 56, 60
1, 13216, Control_c, 0, 64, 81
1, 13231, Control_c, 0, 64, 81
1, 13256, Note_off_c, 0, 92, 65
1, 13261, Note_on_c, 0, 91, 65
1, 13291, Note_off_c, 0, 91, 57
1, 13310, Note_on_c, 0, 89, 67
1, 13310, Note_off_c, 0, 60, 60
1, 13342, Note_off_c, 0, 56, 63
1, 13342, Note_off_c, 0, 89, 63
1, 13384, Note_on_c, 0, 87, 69
1, 13446, Note_off_c, 0, 87, 63
1, 13450, Note_on_c, 0, 86, 63
1, 13479, Note_off_c, 0, 86, 66
1, 13498, Note_on_c, 0, 84, 69
1, 13498, Control_c, 0, 64, 80
1, 13513, Control_c, 0, 64, 73
1, 13528, Control_c, 0, 64, 61
1, 13542, Control_c, 0, 64, 0
1, 13546, Note_on_c, 0, 46, 66
1, 13563, Note_off_c, 0, 84, 62
1, 13572, Note_on_c, 0, 82, 71
1, 13602, Control_c, 0, 64, 20
1, 13603, Note_off_c, 0, 82, 61
1, 13616, Control_c, 0, 64, 65
1, 13625, Note_on_c, 0, 89, 73
1, 13626, Note_off_c, 0, 46, 63
1, 13631, Control_c, 0, 64, 70
1, 13646, Control_c, 0, 64, 74
1, 13661, Control_c, 0, 64, 76
1, 13676, Control_c, 0, 64, 77
1, 13679, Note_off_c, 0, 89, 64
1, 13689, Note_on_c, 0, 87, 66
1, 13691, Control_c, 0, 64, 78
1, 13713, Control_c, 0, 64, 79
1, 13728, Control_c, 0, 64, 79
1, 13757, Control_c, 0, 64, 80
1, 13760, Note_on_c, 0, 86, 69
1, 13766, Note_on_c, 0, 62, 61
1, 13769, Note_off_c, 0, 87, 63
1, 13777, Note_on_c, 0, 58, 53
1, 13780, Note_on_c, 0, 56, 52
1, 13787, Control_c, 0, 64, 80
1, 13789, Note_off_c, 0, 86, 64
1, 13809, Note_on_c, 0, 84, 69
1, 13842, Note_off_c, 0, 84, 64
1, 13891, Note_on_c, 0, 82, 73
1, 13891, Control_c, 0, 64, 81
1, 13927, Note_off_c, 0, 62, 57
1, 13946, Note_off_c, 0, 58, 57
1, 13955, Note_off_c, 0, 56, 54
1, 13957, Note_on_c, 0, 80, 70
1, 13965, Note_off_c, 0, 82, 54
1, 14013, Note_off_c, 0, 80, 65
1, 14018, Note_on_c, 0, 79, 65
1, 14058, Note_off_c, 0, 79, 60
1, 14067, Note_on_c, 0, 77, 64
1, 14069, Control_c, 0, 64, 80
1, 14084, Control_c, 0, 64, 78
1, 14098, Control_c, 0, 64, 71
1, 14113, Control_c, 0, 64, 55
1, 14128, Control_c, 0, 64, 0
1, 14129, Note_off_c, 0, 77, 58
1, 14129, Note_on_c, 0, 51, 55
1, 14147, Note_on_c, 0, 75, 71
1, 14192, Note_off_c, 0, 75, 64
1, 14210, Note_on_c, 0, 79, 64
1, 14233, Control_c, 0, 64, 65
1, 14245, Note_off_c, 0, 51, 57
1, 14247, Control_c, 0, 64, 71
1, 14259, Note_off_c, 0, 79, 58
1, 14262, Control_c, 0, 64, 75
1, 14277, Control_c, 0, 64, 77
1, 14283, Note_on_c, 0, 77, 60
1, 14292, Control_c, 0, 64, 79
1, 14301, Note_on_c, 0, 55, 39
1, 14307, Control_c, 0, 64, 80
1, 14321, Control_c, 0, 64, 81
1, 14331, Note_on_c, 0, 58, 52
1, 14332, Note_on_c, 0, 63, 54
1, 14336, Control_c, 0, 64, 83
1, 14338, Note_on_c, 0, 75, 69
1, 14344, Note_off_c, 0, 77, 60
1, 14351, Control_c, 0, 64, 85
1, 14365, Control_c, 0, 64, 86
1, 14380, Control_c, 0, 64, 87
1, 14392, Note_off_c, 0, 75, 65
1, 14402, Note_on_c, 0, 74, 60
1, 14412, Note_off_c, 0, 63, 62
1, 14425, Control_c, 0, 64, 87
1, 14428, Note_off_c, 0, 74, 65
1, 14459, Note_off_c, 0, 58, 58
1, 14467, Note_on_c, 0, 72, 57
1, 14502, Note_off_c, 0, 72, 67
1, 14506, Note_off_c, 0, 55, 40
1, 14540, Note_on_c, 0, 70, 69
1, 14611, Note_on_c, 0, 68, 65
1, 14615, Note_off_c, 0, 70, 60
1, 14670, Note_off_c, 0, 68, 59
1, 14683, Note_on_c, 0, 65, 65
1, 14765, Note_off_c, 0, 65, 61
1, 14785, Note_on_c, 0, 66, 60
1, 14788, Control_c, 0, 64, 87
1, 14800, Note_on_c, 0, 39, 52
1, 14803, Control_c, 0, 64, 86
1, 14818, Control_c, 0, 64, 82
1, 14833, Control_c, 0, 64, 73
1, 14841, Note_off_c, 0, 66, 60
1, 14847, Control_c, 0, 64, 53
1, 14848, Note_on_c, 0, 70, 56
1, 14862, Control_c, 0, 64, 0
1, 14921, Note_on_c, 0, 68, 65
1, 14921, Note_off_c, 0, 70, 60
1, 14951, Control_c, 0, 64, 63
1, 14966, Control_c, 0, 64, 70
1, 14980, Control_c, 0, 64, 75
1, 14987, Note_on_c, 0, 51, 57
1, 14988, Note_off_c, 0, 68, 63
1, 14993, Note_on_c, 0, 66, 66
1, 14995, Control_c, 0, 64, 78
1, 15010, Control_c, 0, 64, 80
1, 15026, Control_c, 0, 64, 81
1, 15029, Note_off_c, 0, 66, 64
1, 15041, Control_c, 0, 64, 82
1, 15044, Note_on_c, 0, 65, 65
1, 15056, Control_c, 0, 64, 82
1, 15070, Control_c, 0, 64, 83
1, 15076, Note_off_c, 0, 65, 67
1, 15085, Control_c, 0, 64, 83
1, 15100, Note_off_c, 0, 39, 56
1, 15115, Note_on_c, 0, 63, 69
1, 15178, Note_on_c, 0, 61, 65
1, 15184, Note_off_c, 0, 63, 64
1, 15222, Note_off_c, 0, 61, 63
1, 15236, Note_off_c, 0, 51, 57
1, 15249, Note_on_c, 0, 59, 60
1, 15298, Note_off_c, 0, 59, 56
1, 15312, Note_on_c, 0, 58, 67
1, 15348, Note_off_c, 0, 58, 64
1, 15383, Note_on_c, 0, 59, 62
1, 15395, Note_on_c, 0, 44, 50
1, 15403, Control_c, 0, 64, 81
1, 15418, Control_c, 0, 64, 74
1, 15426, Note_off_c, 0, 59, 52
1, 15433, Control_c, 0, 64, 62
1, 15448, Control_c, 0, 64, 0
1, 15468, Note_on_c, 0, 63, 65
1, 15533, Note_on_c, 0, 68, 67
1, 15537, Control_c, 0, 64, 37
1, 15542, Note_off_c, 0, 63, 64
1, 15552, Control_c, 0, 64, 65
1, 15567, Control_c, 0, 64, 70
1, 15582, Control_c, 0, 64, 76
1, 15596, Control_c, 0, 64, 80
1, 15611, Control_c, 0, 64, 82
1, 15614, Note_off_c, 0, 68, 64
1, 15626, Control_c, 0, 64, 84
1, 15627, Note_on_c, 0, 71, 73
1, 15641, Note_on_c, 0, 56, 52
1, 15641, Control_c, 0, 64, 86
1, 15656, Control_c, 0, 64, 88
1, 15670, Control_c, 0, 64, 90
1, 15685, Control_c, 0, 64, 92
1, 15700, Control_c, 0, 64, 93
1, 15710, Note_on_c, 0, 63, 58
1, 15715, Control_c, 0, 64, 94
1, 15730, Control_c, 0, 64, 95
1, 15745, Control_c, 0, 64, 96
1, 15761, Note_off_c, 0, 56, 62
1, 15770, Note_on_c, 0, 68, 66
1, 15770, Note_off_c, 0, 63, 62
1, 15775, Control_c, 0, 64, 96
1, 15782, Note_off_c, 0, 71, 43
1, 15804, Control_c, 0, 64, 97
1, 15836, Note_on_c, 0, 66, 67
1, 15839, Note_off_c, 0, 44, 60
1, 15851, Note_off_c, 0, 68, 63
1, 15895, Note_off_c, 0, 66, 65
1, 15906, Note_on_c, 0, 63, 64
1, 15959, Note_off_c, 0, 63, 64
1, 15963, Note_on_c, 0, 66, 61
1, 16027, Note_off_c, 0, 66, 65
1, 16048, Note_on_c, 0, 65, 68
1, 16064, Control_c, 0, 64, 96
1, 16068, Note_on_c, 0, 37, 60
1, 16079, Control_c, 0, 64, 91
1, 16094, Control_c, 0, 64, 81
1, 16107, Note_off_c, 0, 65, 64
1, 16108, Control_c, 0, 64, 67
1, 16117, Note_on_c, 0, 71, 60
1, 16123, Control_c, 0, 64, 0
1, 16165, Note_off_c, 0, 71, 59
1, 16171, Note_on_c, 0, 70, 65
1, 16183, Control_c, 0, 64, 60
1, 16198, Control_c, 0, 64, 68
1, 16213, Control_c, 0, 64, 73
1, 16227, Control_c, 0, 64, 79
1, 16242, Control_c, 0, 64, 81
1, 16243, Note_on_c, 0, 68, 68
1, 16248, Note_on_c, 0, 49, 70
1, 16257, Control_c, 0, 64, 83
1, 16261, Note_off_c, 0, 70, 56
1, 16272, Control_c, 0, 64, 83
1, 16287, Control_c, 0, 64, 84
1, 16296, Note_on_c, 0, 66, 65
1, 16296, Note_off_c, 0, 68, 64
1, 16301, Control_c, 0, 64, 84
1, 16332, Note_off_c, 0, 66, 64
1, 16346, Note_on_c, 0, 65, 67
1, 16363, Note_off_c, 0, 37, 62
1, 16380, Note_off_c, 0, 65, 65
1, 16428, Note_on_c, 0, 63, 68
1, 16463, Note_off_c, 0, 49, 60
1, 16488, Note_on_c, 0, 61, 69
1, 16499, Note_off_c, 0, 63, 60
1, 16539, Note_on_c, 0, 58, 70
1, 16550, Note_off_c, 0, 61, 63
1, 16564, Note_off_c, 0, 58, 65
1, 16585, Note_on_c, 0, 59, 52
1, 16609, Note_off_c, 0, 59, 57
1, 16624, Note_on_c, 0, 58, 71
1, 16653, Note_on_c, 0, 42, 64
1, 16672, Control_c, 0, 64, 83
1, 16684, Note_off_c, 0, 58, 64
1, 16687, Control_c, 0, 64, 77
1, 16701, Note_on_c, 0, 61, 66
1, 16710, Control_c, 0, 64, 65
1, 16724, Control_c, 0, 64, 0
1, 16763, Note_off_c, 0, 61, 62
1, 16767, Note_on_c, 0, 66, 69
1, 16798, Control_c, 0, 64, 64
1, 16813, Control_c, 0, 64, 71
1, 16828, Control_c, 0, 64, 78
1, 16839, Note_on_c, 0, 70, 69
1, 16843, Control_c, 0, 64, 81
1, 16848, Note_off_c, 0, 66, 64
1, 16850, Note_on_c, 0, 54, 65
1, 16857, Control_c, 0, 64, 82
1, 16872, Control_c, 0, 64, 83
1, 16887, Control_c, 0, 64, 84
1, 16902, Control_c, 0, 64, 85
1, 16903, Note_on_c, 0, 61, 73
1, 16916, Control_c, 0, 64, 87
1, 16926, Note_off_c, 0, 70, 59
1, 16931, Control_c, 0, 64, 88
1, 16946, Control_c, 0, 64, 89
1, 16967, Note_off_c, 0, 61, 59
1, 16970, Note_on_c, 0, 66, 68
1, 16973, Note_off_c, 0, 54, 63
1, 16975, Control_c, 0, 64, 89
1, 17021, Note_off_c, 0, 66, 65
1, 17029, Note_on_c, 0, 65, 69
1, 17042, Note_off_c, 0, 42, 62
1, 17049, Control_c, 0, 64, 90
1, 17085, Note_off_c, 0, 65, 64
1, 17092, Note_on_c, 0, 61, 65
1, 17128, Note_off_c, 0, 61, 64
1, 17137, Note_on_c, 0, 65, 60
1, 17196, Note_off_c, 0, 65, 61
1, 17210, Note_on_c, 0, 63, 72
1, 17242, Note_on_c, 0, 35, 68
1, 17256, Control_c, 0, 64, 89
1, 17271, Control_c, 0, 64, 86
1, 17280, Note_off_c, 0, 63, 61
1, 17282, Note_on_c, 0, 70, 67
1, 17286, Control_c, 0, 64, 78
1, 17301, Control_c, 0, 64, 62
1, 17316, Control_c, 0, 64, 0
1, 17340, Note_on_c, 0, 68, 61
1, 17344, Note_off_c, 0, 70, 59
1, 17375, Control_c, 0, 64, 60
1, 17390, Control_c, 0, 64, 70
1, 17396, Note_on_c, 0, 66, 72
1, 17405, Control_c, 0, 64, 75
1, 17406, Note_on_c, 0, 47, 68
1, 17417, Note_off_c, 0, 68, 63
1, 17420, Control_c, 0, 64, 79
1, 17443, Control_c, 0, 64, 81
1, 17450, Note_off_c, 0, 66, 63
1, 17458, Control_c, 0, 64, 82
1, 17472, Control_c, 0, 64, 83
1, 17474, Note_on_c, 0, 65, 67
1, 17487, Control_c, 0, 64, 84
1, 17502, Control_c, 0, 64, 85
1, 17507, Note_off_c, 0, 65, 67
1, 17517, Control_c, 0, 64, 85
1, 17542, Note_off_c, 0, 35, 58
1, 17544, Note_on_c, 0, 63, 66
1, 17605, Note_on_c, 0, 61, 70
1, 17613, Note_off_c, 0, 63, 64
1, 17656, Note_off_c, 0, 61, 59
1, 17663, Note_off_c, 0, 47, 56
1, 17670, Note_on_c, 0, 59, 57
1, 17714, Note_off_c, 0, 59, 46
1, 17733, Note_on_c, 0, 58, 71
1, 17783, Note_off_c, 0, 58, 59
1, 17826, Note_on_c, 0, 56, 69
1, 17829, Note_on_c, 0, 41, 63
1, 17877, Note_off_c, 0, 56, 62
1, 17885, Note_on_c, 0, 59, 59
1, 17887, Control_c, 0, 64, 84
1, 17902, Control_c, 0, 64, 80
1, 17916, Control_c, 0, 64, 71
1, 17931, Control_c, 0, 64, 42
1, 17946, Control_c, 0, 64, 0
1, 17962, Note_on_c, 0, 65, 65
1, 17965, Note_off_c, 0, 59, 62
1, 18005, Control_c, 0, 64, 57
1, 18016, Note_on_c, 0, 53, 62
1, 18020, Control_c, 0, 64, 69
1, 18023, Note_on_c, 0, 68, 74
1, 18035, Control_c, 0, 64, 74
1, 18037, Note_off_c, 0, 65, 64
1, 18050, Control_c, 0, 64, 79
1, 18064, Control_c, 0, 64, 81
1, 18079, Control_c, 0, 64, 83
1, 18094, Control_c, 0, 64, 84
1, 18096, Note_on_c, 0, 59, 63
1, 18100, Note_off_c, 0, 68, 63
1, 18109, Control_c, 0, 64, 85
1, 18124, Control_c, 0, 64, 86
1, 18138, Control_c, 0, 64, 87
1, 18143, Note_off_c, 0, 59, 50
1, 18149, Note_off_c, 0, 53, 64
1, 18153, Control_c, 0, 64, 87
1, 18156, Note_on_c, 0, 65, 68
1, 18205, Control_c, 0, 64, 88
1, 18217, Note_off_c, 0, 41, 45
1, 18227, Note_on_c, 0, 63, 63
1, 18231, Note_off_c, 0, 65, 64
1, 18266, Control_c, 0, 64, 88
1, 18269, Note_off_c, 0, 63, 62
1, 18282, Note_on_c, 0, 59, 59
1, 18311, Note_off_c, 0, 59, 61
1, 18332, Note_on_c, 0, 63, 64
1, 18398, Note_off_c, 0, 63, 61
1, 18420, Note_on_c, 0, 62, 68
1, 18428, Note_on_c, 0, 34, 65
1, 18459, Control_c, 0, 64, 87
1, 18470, Note_off_c, 0, 62, 57
1, 18474, Control_c, 0, 64, 81
1, 18475, Note_on_c, 0, 68, 68
1, 18489, Control_c, 0, 64, 70
1, 18503, Control_c, 0, 64, 0
1, 18542, Note_on_c, 0, 66, 62
1, 18553, Note_off_c, 0, 68, 60
1, 18577, Control_c, 0, 64, 61
1, 18592, Control_c, 0, 64, 69
1, 18601, Note_on_c, 0, 46, 65
1, 18602, Note_on_c, 0, 65, 64
1, 18607, Control_c, 0, 64, 73
1, 18621, Control_c, 0, 64, 77
1, 18633, Note_off_c, 0, 66, 61
1, 18636, Control_c, 0, 64, 79
1, 18651, Control_c, 0, 64, 80
1, 18662, Note_on_c, 0, 63, 68
1, 18666, Control_c, 0, 64, 81
1, 18669, Note_off_c, 0, 65, 65
1, 18681, Control_c, 0, 64, 82
1, 18696, Control_c, 0, 64, 83
1, 18702, Note_off_c, 0, 63, 61
1, 18711, Control_c, 0, 64, 83
1, 18713, Note_off_c, 0, 34, 61
1, 18714, Note_on_c, 0, 62, 68
1, 18726, Control_c, 0, 64, 84
1, 18740, Control_c, 0, 64, 84
1, 18744, Note_off_c, 0, 62, 64
1, 18792, Note_off_c, 0, 46, 63
1, 18801, Note_on_c, 0, 59, 66
1, 18859, Note_off_c, 0, 59, 62
1, 18860, Note_on_c, 0, 58, 68
1, 18917, Note_off_c, 0, 58, 64
1, 18922, Note_on_c, 0, 56, 68
1, 18962, Note_off_c, 0, 56, 65
1, 18997, Note_on_c, 0, 39, 59
1, 19015, Control_c, 0, 64, 83
1, 19030, Control_c, 0, 64, 77
1, 19045, Control_c, 0, 64, 67
1, 19046, Note_on_c, 0, 56, 14
1, 19060, Control_c, 0, 64, 0
1, 19064, Note_on_c, 0, 58, 59
1, 19078, Note_off_c, 0, 56, 40
1, 19122, Note_on_c, 0, 63, 64
1, 19122, Note_off_c, 0, 58, 61
1, 19134, Control_c, 0, 64, 62
1, 19149, Control_c, 0, 64, 70
1, 19163, Control_c, 0, 64, 77
1, 19178, Control_c, 0, 64, 82
1, 19187, Note_on_c, 0, 51, 70
1, 19189, Note_on_c, 0, 66, 70
1, 19193, Control_c, 0, 64, 83
1, 19195, Note_off_c, 0, 63, 62
1, 19208, Control_c, 0, 64, 84
1, 19223, Control_c, 0, 64, 85
1, 19237, Control_c, 0, 64, 86
1, 19247, Note_on_c, 0, 58, 70
1, 19252, Control_c, 0, 64, 87
1, 19265, Note_off_c, 0, 66, 64
1, 19267, Control_c, 0, 64, 88
1, 19297, Control_c, 0, 64, 88
1, 19301, Note_off_c, 0, 39, 57
1, 19316, Note_on_c, 0, 63, 67
1, 19318, Note_off_c, 0, 58, 59
1, 19341, Control_c, 0, 64, 89
1, 19370, Control_c, 0, 64, 89
1, 19372, Note_on_c, 0, 61, 63
1, 19381, Note_off_c, 0, 63, 64
1, 19390, Note_off_c, 0, 51, 62
1, 19413, Note_off_c, 0, 61, 60
1, 19431, Note_on_c, 0, 58, 63
1, 19444, Control_c, 0, 64, 90
1, 19471, Note_off_c, 0, 58, 63
1, 19477, Note_on_c, 0, 61, 62
1, 19523, Note_off_c, 0, 61, 56
1, 19571, Note_on_c, 0, 59, 63
1, 19590, Note_on_c, 0, 44, 59
1, 19608, Control_c, 0, 64, 87
1, 19609, Note_off_c, 0, 59, 55
1, 19623, Control_c, 0, 64, 80
1, 19632, Note_on_c, 0, 63, 68
1, 19637, Control_c, 0, 64, 67
1, 19652, Control_c, 0, 64, 0
1, 19712, Note_on_c, 0, 68, 68
1, 19718, Note_off_c, 0, 63, 64
1, 19733, Control_c, 0, 64, 57
1, 19748, Control_c, 0, 64, 68
1, 19763, Control_c, 0, 64, 74
1, 19775, Note_off_c, 0, 68, 64
1, 19778, Note_on_c, 0, 56, 60
1, 19778, Control_c, 0, 64, 79
1, 19780, Note_on_c, 0, 71, 74
1, 19793, Control_c, 0, 64, 82
1, 19808, Control_c, 0, 64, 84
1, 19823, Control_c, 0, 64, 86
1, 19838, Control_c, 0, 64, 87
1, 19853, Control_c, 0, 64, 89
1, 19858, Note_on_c, 0, 63, 61
1, 19867, Control_c, 0, 64, 90
1, 19882, Control_c, 0, 64, 92
1, 19895, Note_off_c, 0, 71, 60
1, 19897, Control_c, 0, 64, 93
1, 19900, Note_off_c, 0, 44, 57
1, 19910, Note_on_c, 0, 68, 69
1, 19919, Note_off_c, 0, 63, 64
1, 19927, Control_c, 0, 64, 94
1, 19970, Control_c, 0, 64, 94
1, 19984, Note_off_c, 0, 68, 60
1, 19989, Note_on_c, 0, 66, 57
1, 20029, Note_off_c, 0, 66, 62
1, 20036, Note_on_c, 0, 63, 63
1, 20087, Note_off_c, 0, 63, 56
1, 20091, Note_on_c, 0, 66, 66
1, 20135, Note_off_c, 0, 66, 59
1, 20148, Note_off_c, 0, 56, 53
1, 20163, Control_c, 0, 64, 94
1, 20177, Control_c, 0, 64, 90
1, 20178, Note_on_c, 0, 71, 78
1, 20192, Note_on_c, 0, 46, 62
1, 20192, Control_c, 0, 64, 80
1, 20207, Control_c, 0, 64, 66
1, 20222, Control_c, 0, 64, 0
1, 20257, Note_on_c, 0, 65, 65
1, 20281, Control_c, 0, 64, 62
1, 20296, Control_c, 0, 64, 70
1, 20307, Note_off_c, 0, 65, 65
1, 20310, Control_c, 0, 64, 77
1, 20318, Note_on_c, 0, 62, 61
1, 20325, Control_c, 0, 64, 84
1, 20340, Control_c, 0, 64, 87
1, 20355, Control_c, 0, 64, 88
1, 20359, Note_off_c, 0, 62, 56
1, 20370, Control_c, 0, 64, 90
1, 20380, Note_on_c, 0, 58, 70
1, 20380, Note_on_c, 0, 70, 75
1, 20384, Control_c, 0, 64, 91
1, 20395, Note_off_c, 0, 71, 58
1, 20399, Control_c, 0, 64, 93
1, 20414, Control_c, 0, 64, 94
1, 20429, Control_c, 0, 64, 96
1, 20430, Note_on_c, 0, 65, 68
1, 20452, Control_c, 0, 64, 96
1, 20466, Control_c, 0, 64, 97
1, 20481, Control_c, 0, 64, 97
1, 20492, Note_on_c, 0, 62, 69
1, 20492, Note_off_c, 0, 70, 57
1, 20496, Control_c, 0, 64, 98
1, 20501, Note_off_c, 0, 65, 65
1, 20525, Control_c, 0, 64, 98
1, 20528, Note_off_c, 0, 62, 62
1, 20540, Control_c, 0, 64, 99
1, 20555, Control_c, 0, 64, 99
1, 20565, Note_on_c, 0, 74, 70
1, 20625, Note_on_c, 0, 68, 71
1, 20645, Note_off_c, 0, 74, 62
1, 20675, Note_off_c, 0, 68, 64
1, 20684, Note_on_c, 0, 65, 67
1, 20689, Control_c, 0, 64, 100
1, 20711, Note_off_c, 0, 65, 66
1, 20783, Note_on_c, 0, 75, 68
1, 20792, Note_on_c, 0, 51, 61
1, 20807, Control_c, 0, 64, 98
1, 20822, Control_c, 0, 64, 95
1, 20836, Note_off_c, 0, 75, 61
1, 20837, Control_c, 0, 64, 88
1, 20846, Note_on_c, 0, 78, 73
1, 20852, Control_c, 0, 64, 78
1, 20867, Control_c, 0, 64, 69
1, 20875, Note_off_c, 0, 46, 53
1, 20881, Control_c, 0, 64, 57
1, 20894, Note_off_c, 0, 78, 58
1, 20896, Control_c, 0, 64, 0
1, 20911, Note_on_c, 0, 77, 67
1, 20926, Note_off_c, 0, 58, 47
1, 20977, Note_on_c, 0, 75, 69
1, 20992, Note_off_c, 0, 77, 57
1, 21027, Note_off_c, 0, 51, 59
1, 21035, Note_on_c, 0, 73, 65
1, 21035, Note_off_c, 0, 75, 66
1, 21076, Note_off_c, 0, 73, 63
1, 21095, Note_on_c, 0, 71, 56
1, 21120, Note_off_c, 0, 71, 63
1, 21163, Note_on_c, 0, 70, 68
1, 21235, Note_off_c, 0, 70, 63
1, 21236, Note_on_c, 0, 68, 62
1, 21273, Note_off_c, 0, 68, 61
1, 21295, Note_on_c, 0, 65, 58
1, 21332, Note_off_c, 0, 65, 65
1, 21351, Note_on_c, 0, 66, 70
1, 21361, Note_on_c, 0, 42, 49
1, 21414, Note_off_c, 0, 66, 65
1, 21422, Note_on_c, 0, 70, 59
1, 21468, Control_c, 0, 64, 52
1, 21483, Note_on_c, 0, 68, 66
1, 21483, Control_c, 0, 64, 66
1, 21487, Note_off_c, 0, 70, 59
1, 21498, Control_c, 0, 64, 70
1, 21513, Control_c, 0, 64, 73
1, 21528, Control_c, 0, 64, 75
1, 21540, Note_on_c, 0, 49, 52
1, 21543, Control_c, 0, 64, 77
1, 21544, Note_on_c, 0, 66, 69
1, 21549, Note_off_c, 0, 68, 64
1, 21557, Control_c, 0, 64, 80
1, 21572, Control_c, 0, 64, 81
1, 21583, Note_off_c, 0, 66, 66
1, 21587, Control_c, 0, 64, 81
1, 21602, Control_c, 0, 64, 82
1, 21623, Note_on_c, 0, 64, 41
1, 21646, Control_c, 0, 64, 82
1, 21652, Note_off_c, 0, 64, 49
1, 21669, Note_on_c, 0, 63, 68
1, 21728, Note_on_c, 0, 61, 70
1, 21736, Note_off_c, 0, 63, 65
1, 21742, Note_off_c, 0, 42, 59
1, 21758, Note_off_c, 0, 49, 35
1, 21767, Note_off_c, 0, 61, 61
1, 21801, Note_on_c, 0, 59, 53
1, 21840, Note_off_c, 0, 59, 51
1, 21850, Note_on_c, 0, 58, 71
1, 21888, Note_off_c, 0, 58, 62
1, 21898, Control_c, 0, 64, 82
1, 21912, Control_c, 0, 64, 81
1, 21921, Note_on_c, 0, 59, 66
1, 21935, Control_c, 0, 64, 76
1, 21936, Note_on_c, 0, 44, 63
1, 21950, Control_c, 0, 64, 65
1, 21964, Control_c, 0, 64, 0
1, 21985, Note_off_c, 0, 59, 62
1, 21987, Note_on_c, 0, 62, 71
1, 22053, Note_off_c, 0, 62, 62
1, 22053, Control_c, 0, 64, 55
1, 22060, Note_on_c, 0, 65, 67
1, 22068, Control_c, 0, 64, 67
1, 22082, Control_c, 0, 64, 71
1, 22097, Control_c, 0, 64, 75
1, 22109, Note_off_c, 0, 65, 65
1, 22112, Control_c, 0, 64, 78
1, 22115, Note_on_c, 0, 50, 59
1, 22115, Note_on_c, 0, 71, 72
1, 22127, Control_c, 0, 64, 80
1, 22142, Control_c, 0, 64, 82
1, 22157, Control_c, 0, 64, 82
1, 22172, Control_c, 0, 64, 83
1, 22175, Note_on_c, 0, 65, 72
1, 22186, Note_off_c, 0, 71, 57
1, 22187, Control_c, 0, 64, 84
1, 22201, Control_c, 0, 64, 84
1, 22217, Control_c, 0, 64, 85
1, 22232, Note_off_c, 0, 65, 65
1, 22238, Note_on_c, 0, 62, 67
1, 22247, Control_c, 0, 64, 85
1, 22291, Note_off_c, 0, 62, 58
1, 22293, Note_on_c, 0, 65, 61
1, 22300, Note_on_c, 0, 49, 66
1, 22322, Note_off_c, 0, 50, 55
1, 22353, Note_on_c, 0, 61, 74
1, 22360, Note_off_c, 0, 65, 62
1, 22386, Note_off_c, 0, 44, 59
1, 22408, Note_off_c, 0, 61, 62
1, 22416, Note_off_c, 0, 49, 59
1, 22423, Note_on_c, 0, 59, 66
1, 22443, Note_off_c, 0, 59, 65
1, 22499, Control_c, 0, 64, 85
1, 22514, Control_c, 0, 64, 80
1, 22520, Note_on_c, 0, 58, 68
1, 22528, Control_c, 0, 64, 70
1, 22529, Note_on_c, 0, 42, 62
1, 22543, Control_c, 0, 64, 0
1, 22551, Note_off_c, 0, 58, 63
1, 22580, Note_on_c, 0, 70, 69
1, 22617, Control_c, 0, 64, 64
1, 22632, Control_c, 0, 64, 69
1, 22640, Note_off_c, 0, 70, 53
1, 22643, Note_on_c, 0, 68, 70
1, 22647, Control_c, 0, 64, 72
1, 22661, Control_c, 0, 64, 75
1, 22684, Control_c, 0, 64, 77
1, 22699, Control_c, 0, 64, 78
1, 22711, Note_on_c, 0, 66, 70
1, 22713, Control_c, 0, 64, 79
1, 22719, Note_on_c, 0, 49, 63
1, 22733, Note_off_c, 0, 68, 61
1, 22759, Note_off_c, 0, 66, 61
1, 22778, Note_on_c, 0, 65, 64
1, 22807, Note_off_c, 0, 65, 68
1, 22843, Note_on_c, 0, 63, 70
1, 22866, Note_off_c, 0, 42, 60
1, 22905, Note_off_c, 0, 49, 56
1, 22905, Note_on_c, 0, 61, 69
1, 22914, Note_off_c, 0, 63, 64
1, 22956, Note_off_c, 0, 61, 59
1, 22969, Note_on_c, 0, 59, 56
1, 23015, Note_off_c, 0, 59, 61
1, 23021, Note_on_c, 0, 58, 72
1, 23039, Control_c, 0, 64, 78
1, 23054, Control_c, 0, 64, 78
1, 23057, Note_off_c, 0, 58, 64
1, 23069, Control_c, 0, 64, 76
1, 23084, Control_c, 0, 64, 71
1, 23090, Note_on_c, 0, 59, 57
1, 23099, Control_c, 0, 64, 57
1, 23103, Note_on_c, 0, 44, 60
1, 23114, Control_c, 0, 64, 0
1, 23134, Note_off_c, 0, 59, 63
1, 23152, Note_on_c, 0, 62, 69
1, 23217, Note_off_c, 0, 62, 62
1, 23217, Control_c, 0, 64, 63
1, 23221, Note_on_c, 0, 65, 67
1, 23232, Control_c, 0, 64, 68
1, 23247, Control_c, 0, 64, 71
1, 23262, Control_c, 0, 64, 73
1, 23264, Note_off_c, 0, 65, 65
1, 23276, Note_on_c, 0, 71, 69
1, 23277, Control_c, 0, 64, 75
1, 23287, Note_on_c, 0, 50, 56
1, 23291, Control_c, 0, 64, 78
1, 23306, Control_c, 0, 64, 80
1, 23321, Control_c, 0, 64, 81
1, 23335, Control_c, 0, 64, 82
1, 23337, Note_on_c, 0, 65, 68
1, 23343, Note_off_c, 0, 71, 59
1, 23350, Control_c, 0, 64, 82
1, 23365, Control_c, 0, 64, 83
1, 23388, Note_off_c, 0, 65, 64
1, 23395, Control_c, 0, 64, 83
1, 23398, Note_on_c, 0, 62, 67
1, 23424, Control_c, 0, 64, 84
1, 23444, Note_off_c, 0, 62, 57
1, 23461, Note_on_c, 0, 49, 63
1, 23463, Note_on_c, 0, 65, 54
1, 23477, Note_off_c, 0, 50, 52
1, 23512, Note_off_c, 0, 44, 56
1, 23516, Note_on_c, 0, 61, 66
1, 23531, Note_off_c, 0, 65, 65
1, 23572, Note_off_c, 0, 61, 63
1, 23578, Note_off_c, 0, 49, 59
1, 23585, Note_on_c, 0, 59, 61
1, 23624, Note_off_c, 0, 59, 58
1, 23646, Note_on_c, 0, 61, 65
1, 23669, Control_c, 0, 64, 83
1, 23683, Note_on_c, 0, 46, 67
1, 23683, Control_c, 0, 64, 80
1, 23698, Control_c, 0, 64, 71
1, 23707, Note_off_c, 0, 61, 62
1, 23710, Note_on_c, 0, 66, 66
1, 23713, Control_c, 0, 64, 14
1, 23728, Control_c, 0, 64, 0
1, 23770, Note_off_c, 0, 66, 66
1, 23779, Note_on_c, 0, 70, 65
1, 23803, Control_c, 0, 64, 65
1, 23818, Control_c, 0, 64, 70
1, 23832, Note_on_c, 0, 73, 70
1, 23832, Control_c, 0, 64, 74
1, 23836, Note_off_c, 0, 70, 62
1, 23847, Control_c, 0, 64, 76
1, 23859, Note_on_c, 0, 54, 63
1, 23862, Control_c, 0, 64, 78
1, 23877, Control_c, 0, 64, 80
1, 23892, Note_on_c, 0, 70, 54
1, 23892, Control_c, 0, 64, 82
1, 23902, Note_off_c, 0, 73, 58
1, 23907, Control_c, 0, 64, 83
1, 23921, Control_c, 0, 64, 84
1, 23936, Control_c, 0, 64, 84
1, 23946, Note_on_c, 0, 66, 78
1, 23966, Control_c, 0, 64, 85
1, 23972, Note_off_c, 0, 70, 63
1, 24003, Note_off_c, 0, 66, 65
1, 24025, Note_on_c, 0, 65, 64
1, 24055, Note_off_c, 0, 65, 69
1, 24068, Note_on_c, 0, 66, 66
1, 24100, Note_off_c, 0, 46, 30
1, 24105, Note_off_c, 0, 66, 54
1, 24139, Note_on_c, 0, 64, 70
1, 24211, Note_off_c, 0, 64, 60
1, 24211, Control_c, 0, 64, 84
1, 24215, Note_on_c, 0, 63, 70
1, 24222, Note_on_c, 0, 47, 65
1, 24225, Control_c, 0, 64, 78
1, 24235, Note_off_c, 0, 54, 51
1, 24240, Control_c, 0, 64, 69
1, 24255, Control_c, 0, 64, 0
1, 24271, Note_off_c, 0, 63, 64
1, 24272, Note_on_c, 0, 68, 68
1, 24329, Control_c, 0, 64, 62
1, 24339, Note_off_c, 0, 68, 63
1, 24342, Note_on_c, 0, 71, 58
1, 24344, Control_c, 0, 64, 69
1, 24358, Control_c, 0, 64, 73
1, 24373, Control_c, 0, 64, 76
1, 24381, Note_off_c, 0, 71, 62
1, 24384, Note_on_c, 0, 75, 64
1, 24387, Note_on_c, 0, 56, 66
1, 24388, Control_c, 0, 64, 79
1, 24403, Control_c, 0, 64, 81
1, 24418, Control_c, 0, 64, 82
1, 24432, Control_c, 0, 64, 83
1, 24438, Note_on_c, 0, 71, 55
1, 24443, Note_off_c, 0, 75, 50
1, 24447, Control_c, 0, 64, 84
1, 24462, Control_c, 0, 64, 85
1, 24491, Control_c, 0, 64, 86
1, 24499, Note_on_c, 0, 68, 75
1, 24544, Note_off_c, 0, 71, 54
1, 24550, Note_off_c, 0, 47, 43
1, 24568, Note_off_c, 0, 68, 62
1, 24577, Note_on_c, 0, 67, 71
1, 24617, Note_off_c, 0, 67, 63
1, 24638, Note_on_c, 0, 68, 61
1, 24693, Note_on_c, 0, 66, 69
1, 24699, Note_off_c, 0, 68, 64
1, 24744, Control_c, 0, 64, 85
1, 24747, Note_off_c, 0, 66, 64
1, 24758, Note_on_c, 0, 49, 69
1, 24758, Note_off_c, 0, 56, 54
1, 24759, Control_c, 0, 64, 80
1, 24762, Note_on_c, 0, 65, 65
1, 24774, Control_c, 0, 64, 68
1, 24786, Note_off_c, 0, 65, 59
1, 24789, Control_c, 0, 64, 0
1, 24798, Note_on_c, 0, 66, 59
1, 24838, Note_off_c, 0, 66, 68
1, 24863, Control_c, 0, 64, 65
1, 24878, Control_c, 0, 64, 70
1, 24879, Note_on_c, 0, 67, 73
1, 24893, Control_c, 0, 64, 73
1, 24907, Control_c, 0, 64, 75
1, 24922, Control_c, 0, 64, 77
1, 24935, Note_off_c, 0, 67, 57
1, 24944, Control_c, 0, 64, 78
1, 24949, Note_on_c, 0, 68, 67
1, 24958, Note_on_c, 0, 59, 63
1, 24959, Control_c, 0, 64, 79
1, 24974, Control_c, 0, 64, 80
1, 24989, Control_c, 0, 64, 81
1, 24993, Note_off_c, 0, 68, 63
1, 25001, Note_on_c, 0, 70, 71
1, 25004, Control_c, 0, 64, 81
1, 25018, Control_c, 0, 64, 82
1, 25024, Note_off_c, 0, 70, 70
1, 25058, Note_off_c, 0, 49, 55
1, 25065, Note_on_c, 0, 71, 62
1, 25097, Note_off_c, 0, 71, 56
1, 25125, Note_on_c, 0, 73, 74
1, 25173, Note_off_c, 0, 73, 61
1, 25184, Note_on_c, 0, 75, 71
1, 25212, Note_off_c, 0, 75, 69
1, 25227, Control_c, 0, 64, 81
1, 25242, Control_c, 0, 64, 80
1, 25256, Control_c, 0, 64, 76
1, 25258, Note_on_c, 0, 77, 72
1, 25271, Control_c, 0, 64, 71
1, 25286, Control_c, 0, 64, 64
1, 25291, Note_off_c, 0, 59, 36
1, 25301, Control_c, 0, 64, 42
1, 25307, Note_on_c, 0, 54, 48
1, 25308, Note_on_c, 0, 58, 55
1, 25310, Note_off_c, 0, 77, 58
1, 25315, Control_c, 0, 64, 0
1, 25322, Note_on_c, 0, 78, 66
1, 25370, Note_off_c, 0, 78, 62
1, 25377, Note_on_c, 0, 82, 61
1, 25434, Note_on_c, 0, 80, 68
1, 25440, Note_off_c, 0, 82, 61
1, 25492, Note_off_c, 0, 80, 63
1, 25497, Note_on_c, 0, 78, 65
1, 25526, Note_off_c, 0, 78, 65
1, 25528, Note_off_c, 0, 58, 61
1, 25546, Note_on_c, 0, 77, 59
1, 25553, Note_off_c, 0, 54, 60
1, 25573, Note_off_c, 0, 77, 63
1, 25621, Note_on_c, 0, 75, 68
1, 25688, Note_off_c, 0, 75, 64
1, 25692, Note_on_c, 0, 73, 59
1, 25725, Note_off_c, 0, 73, 66
1, 25751, Note_on_c, 0, 71, 51
1, 25786, Note_off_c, 0, 71, 54
1, 25817, Note_on_c, 0, 70, 64
1, 25865, Note_on_c, 0, 46, 41
1, 25869, Note_off_c, 0, 70, 59
1, 25880, Note_on_c, 0, 68, 56
1, 25901, Control_c, 0, 64, 57
1, 25916, Control_c, 0, 64, 70
1, 25924, Note_off_c, 0, 68, 62
1, 25931, Control_c, 0, 64, 77
1, 25945, Control_c, 0, 64, 84
1, 25951, Note_on_c, 0, 71, 62
1, 25960, Control_c, 0, 64, 87
1, 25975, Control_c, 0, 64, 88
1, 25990, Control_c, 0, 64, 90
1, 26005, Control_c, 0, 64, 91
1, 26008, Note_on_c, 0, 70, 59
1, 26020, Control_c, 0, 64, 92
1, 26027, Note_off_c, 0, 71, 53
1, 26035, Control_c, 0, 64, 93
1, 26038, Note_off_c, 0, 46, 39
1, 26050, Control_c, 0, 64, 94
1, 26066, Note_on_c, 0, 53, 45
1, 26066, Note_on_c, 0, 68, 65
1, 26068, Note_on_c, 0, 56, 44
1, 26074, Note_on_c, 0, 59, 43
1, 26085, Note_off_c, 0, 70, 59
1, 26094, Control_c, 0, 64, 95
1, 26109, Control_c, 0, 64, 95
1, 26123, Note_on_c, 0, 66, 66
1, 26126, Note_off_c, 0, 68, 64
1, 26139, Control_c, 0, 64, 96
1, 26160, Note_off_c, 0, 66, 67
1, 26176, Note_on_c, 0, 65, 59
1, 26199, Note_off_c, 0, 65, 67
1, 26212, Note_off_c, 0, 53, 56
1, 26241, Note_on_c, 0, 63, 72
1, 26245, Note_off_c, 0, 59, 34
1, 26269, Note_off_c, 0, 63, 68
1, 26270, Note_off_c, 0, 56, 30
1, 26307, Note_on_c, 0, 62, 60
1, 26348, Note_off_c, 0, 62, 58
1, 26370, Note_on_c, 0, 65, 67
1, 26392, Control_c, 0, 64, 95
1, 26407, Control_c, 0, 64, 93
1, 26427, Note_off_c, 0, 65, 63
1, 26428, Control_c, 0, 64, 85
1, 26434, Note_on_c, 0, 68, 68
1, 26443, Note_on_c, 0, 46, 55
1, 26443, Control_c, 0, 64, 71
1, 26458, Control_c, 0, 64, 0
1, 26478, Note_off_c, 0, 68, 63
1, 26494, Note_on_c, 0, 71, 56
1, 26524, Note_off_c, 0, 71, 55
1, 26533, Control_c, 0, 64, 58
1, 26547, Note_on_c, 0, 70, 63
1, 26548, Control_c, 0, 64, 69
1, 26562, Control_c, 0, 64, 75
1, 26577, Control_c, 0, 64, 80
1, 26592, Control_c, 0, 64, 84
1, 26607, Control_c, 0, 64, 85
1, 26610, Note_on_c, 0, 68, 66
1, 26619, Note_on_c, 0, 59, 49
1, 26620, Note_on_c, 0, 56, 48
1, 26622, Control_c, 0, 64, 87
1, 26625, Note_on_c, 0, 53, 42
1, 26634, Note_off_c, 0, 70, 56
1, 26636, Control_c, 0, 64, 88
1, 26651, Control_c, 0, 64, 89
1, 26666, Control_c, 0, 64, 90
1, 26670, Note_off_c, 0, 68, 63
1, 26671, Note_on_c, 0, 66, 64
1, 26695, Control_c, 0, 64, 90
1, 26705, Note_off_c, 0, 66, 67
1, 26721, Note_on_c, 0, 65, 59
1, 26744, Note_off_c, 0, 65, 66
1, 26775, Note_off_c, 0, 53, 58
1, 26775, Note_off_c, 0, 46, 39
1, 26783, Note_off_c, 0, 56, 56
1, 26784, Note_on_c, 0, 63, 75
1, 26789, Note_off_c, 0, 59, 41
1, 26825, Note_off_c, 0, 63, 61
1, 26858, Note_on_c, 0, 62, 59
1, 26904, Note_off_c, 0, 62, 54
1, 26908, Note_on_c, 0, 65, 73
1, 26947, Control_c, 0, 64, 90
1, 26962, Control_c, 0, 64, 89
1, 26965, Note_on_c, 0, 46, 51
1, 26968, Note_off_c, 0, 65, 63
1, 26973, Note_on_c, 0, 68, 68
1, 26977, Control_c, 0, 64, 84
1, 26992, Control_c, 0, 64, 75
1, 27007, Control_c, 0, 64, 61
1, 27011, Note_off_c, 0, 68, 65
1, 27022, Control_c, 0, 64, 0
1, 27033, Note_on_c, 0, 71, 55
1, 27071, Note_off_c, 0, 71, 58
1, 27085, Note_on_c, 0, 70, 63
1, 27122, Note_on_c, 0, 59, 42
1, 27126, Control_c, 0, 64, 54
1, 27127, Note_on_c, 0, 53, 42
1, 27139, Note_on_c, 0, 56, 38
1, 27141, Note_on_c, 0, 68, 62
1, 27141, Control_c, 0, 64, 66
1, 27156, Control_c, 0, 64, 68
1, 27167, Note_off_c, 0, 59, 0
1, 27167, Note_on_c, 0, 59, 6
1, 27177, Control_c, 0, 64, 70
1, 27180, Note_off_c, 0, 70, 63
1, 27192, Control_c, 0, 64, 71
1, 27203, Note_on_c, 0, 66, 61
1, 27207, Control_c, 0, 64, 73
1, 27209, Note_off_c, 0, 68, 64
1, 27222, Control_c, 0, 64, 77
1, 27237, Control_c, 0, 64, 79
1, 27239, Note_off_c, 0, 66, 68
1, 27251, Control_c, 0, 64, 81
1, 27256, Note_on_c, 0, 65, 58
1, 27266, Control_c, 0, 64, 82
1, 27276, Note_off_c, 0, 65, 63
1, 27281, Control_c, 0, 64, 84
1, 27296, Control_c, 0, 64, 85
1, 27311, Control_c, 0, 64, 87
1, 27318, Note_on_c, 0, 63, 71
1, 27326, Control_c, 0, 64, 88
1, 27341, Control_c, 0, 64, 89
1, 27346, Note_off_c, 0, 63, 68
1, 27355, Control_c, 0, 64, 90
1, 27370, Control_c, 0, 64, 91
1, 27375, Note_on_c, 0, 62, 65
1, 27385, Control_c, 0, 64, 91
1, 27400, Control_c, 0, 64, 92
1, 27415, Control_c, 0, 64, 93
1, 27425, Note_off_c, 0, 62, 53
1, 27430, Control_c, 0, 64, 93
1, 27431, Note_on_c, 0, 65, 65
1, 27492, Note_on_c, 0, 68, 74
1, 27500, Note_off_c, 0, 65, 63
1, 27502, Control_c, 0, 64, 94
1, 27547, Control_c, 0, 64, 94
1, 27548, Note_on_c, 0, 71, 67
1, 27558, Note_off_c, 0, 46, 38
1, 27560, Note_off_c, 0, 68, 62
1, 27564, Note_off_c, 0, 59, 39
1, 27576, Control_c, 0, 64, 95
1, 27585, Note_off_c, 0, 71, 58
1, 27588, Note_on_c, 0, 74, 63
1, 27606, Control_c, 0, 64, 95
1, 27612, Note_off_c, 0, 53, 46
1, 27612, Note_off_c, 0, 74, 70
1, 27625, Note_off_c, 0, 56, 41
1, 27651, Control_c, 0, 64, 96
1, 27652, Note_on_c, 0, 71, 70
1, 27707, Note_off_c, 0, 71, 59
1, 27711, Note_on_c, 0, 74, 70
1, 27767, Note_on_c, 0, 77, 75
1, 27767, Note_off_c, 0, 74, 64
1, 27770, Control_c, 0, 64, 96
1, 27794, Note_off_c, 0, 77, 63
1, 27862, Note_on_c, 0, 74, 36
1, 27891, Note_off_c, 0, 74, 56
1, 27898, Note_on_c, 0, 77, 80
1, 27970, Note_off_c, 0, 77, 62
1, 27972, Note_on_c, 0, 78, 78
1, 28047, Note_on_c, 0, 80, 74
1, 28047, Note_off_c, 0, 78, 63
1, 28053, Note_on_c, 0, 58, 51
1, 28074, Control_c, 0, 64, 95
1, 28089, Control_c, 0, 64, 91
1, 28104, Control_c, 0, 64, 82
1, 28110, Note_off_c, 0, 80, 64
1, 28117, Note_on_c, 0, 83, 67
1, 28119, Control_c, 0, 64, 68
1, 28133, Control_c, 0, 64, 0
1, 28191, Note_on_c, 0, 82, 72
1, 28194, Note_off_c, 0, 83, 57
1, 28208, Control_c, 0, 64, 64
1, 28223, Control_c, 0, 64, 72
1, 28238, Control_c, 0, 64, 78
1, 28241, Note_on_c, 0, 65, 49
1, 28251, Note_on_c, 0, 71, 42
1, 28252, Note_on_c, 0, 80, 68
1, 28253, Control_c, 0, 64, 82
1, 28262, Note_on_c, 0, 68, 49
1, 28268, Control_c, 0, 64, 84
1, 28281, Note_off_c, 0, 82, 62
1, 28282, Control_c, 0, 64, 86
1, 28297, Control_c, 0, 64, 88
1, 28309, Note_on_c, 0, 78, 69
1, 28312, Control_c, 0, 64, 90
1, 28313, Note_off_c, 0, 80, 65
1, 28326, Control_c, 0, 64, 91
1, 28341, Control_c, 0, 64, 91
1, 28349, Note_off_c, 0, 78, 60
1, 28356, Control_c, 0, 64, 92
1, 28363, Note_on_c, 0, 77, 62
1, 28384, Note_off_c, 0, 77, 64
1, 28415, Note_off_c, 0, 58, 41
1, 28429, Note_on_c, 0, 75, 74
1, 28452, Note_off_c, 0, 65, 47
1, 28458, Note_off_c, 0, 71, 38
1, 28473, Note_off_c, 0, 75, 62
1, 28494, Note_on_c, 0, 74, 58
1, 28503, Note_off_c, 0, 68, 34
1, 28536, Note_off_c, 0, 74, 60
1, 28548, Note_on_c, 0, 77, 71
1, 28607, Note_on_c, 0, 80, 72
1, 28609, Note_off_c, 0, 77, 61
1, 28622, Note_on_c, 0, 58, 56
1, 28623, Control_c, 0, 64, 91
1, 28638, Control_c, 0, 64, 88
1, 28653, Control_c, 0, 64, 82
1, 28661, Note_off_c, 0, 80, 63
1, 28668, Control_c, 0, 64, 70
1, 28679, Note_on_c, 0, 83, 65
1, 28691, Control_c, 0, 64, 0
1, 28728, Note_off_c, 0, 83, 50
1, 28735, Note_on_c, 0, 82, 67
1, 28794, Control_c, 0, 64, 65
1, 28795, Note_on_c, 0, 80, 66
1, 28809, Control_c, 0, 64, 71
1, 28822, Note_off_c, 0, 82, 63
1, 28824, Control_c, 0, 64, 75
1, 28828, Note_on_c, 0, 65, 44
1, 28830, Note_on_c, 0, 71, 51
1, 28833, Note_on_c, 0, 68, 51
1, 28838, Control_c, 0, 64, 79
1, 28853, Control_c, 0, 64, 82
1, 28858, Note_off_c, 0, 80, 64
1, 28861, Note_on_c, 0, 78, 65
1, 28868, Control_c, 0, 64, 84
1, 28883, Control_c, 0, 64, 85
1, 28893, Note_off_c, 0, 78, 65
1, 28898, Control_c, 0, 64, 86
1, 28912, Control_c, 0, 64, 87
1, 28914, Note_on_c, 0, 77, 59
1, 28927, Control_c, 0, 64, 88
1, 28935, Note_off_c, 0, 77, 63
1, 28942, Control_c, 0, 64, 89
1, 28956, Control_c, 0, 64, 89
1, 28971, Control_c, 0, 64, 90
1, 28981, Note_on_c, 0, 75, 71
1, 29016, Control_c, 0, 64, 90
1, 29018, Note_off_c, 0, 75, 63
1, 29046, Note_on_c, 0, 74, 52
1, 29093, Note_off_c, 0, 74, 56
1, 29104, Note_on_c, 0, 77, 73
1, 29194, Control_c, 0, 64, 89
1, 29195, Note_off_c, 0, 77, 60
1, 29200, Note_on_c, 0, 80, 68
1, 29209, Control_c, 0, 64, 86
1, 29223, Control_c, 0, 64, 77
1, 29238, Control_c, 0, 64, 64
1, 29253, Control_c, 0, 64, 0
1, 29258, Note_off_c, 0, 80, 64
1, 29272, Note_on_c, 0, 83, 64
1, 29312, Control_c, 0, 64, 40
1, 29324, Note_off_c, 0, 83, 55
1, 29327, Control_c, 0, 64, 68
1, 29341, Control_c, 0, 64, 75
1, 29344, Note_on_c, 0, 80, 64
1, 29356, Control_c, 0, 64, 83
1, 29371, Control_c, 0, 64, 86
1, 29386, Control_c, 0, 64, 88
1, 29399, Note_off_c, 0, 80, 60
1, 29402, Control_c, 0, 64, 89
1, 29415, Note_on_c, 0, 83, 69
1, 29424, Control_c, 0, 64, 90
1, 29439, Control_c, 0, 64, 92
1, 29454, Control_c, 0, 64, 93
1, 29459, Note_off_c, 0, 83, 55
1, 29469, Control_c, 0, 64, 93
1, 29496, Note_on_c, 0, 80, 64
1, 29533, Note_off_c, 0, 80, 62
1, 29561, Note_on_c, 0, 83, 63
1, 29582, Note_off_c, 0, 83, 56
1, 29626, Note_off_c, 0, 71, 29
1, 29630, Note_on_c, 0, 80, 64
1, 29661, Note_off_c, 0, 80, 63
1, 29672, Note_on_c, 0, 83, 57
1, 29725, Note_off_c, 0, 83, 54
1, 29747, Note_on_c, 0, 80, 67
1, 29794, Note_off_c, 0, 80, 55
1, 29824, Control_c, 0, 64, 92
1, 29831, Note_on_c, 0, 82, 64
1, 29839, Control_c, 0, 64, 86
1, 29850, Note_on_c, 0, 70, 48
1, 29853, Control_c, 0, 64, 76
1, 29868, Control_c, 0, 64, 62
1, 29878, Note_off_c, 0, 82, 57
1, 29883, Control_c, 0, 64, 0
1, 29908, Note_on_c, 0, 80, 55
1, 29940, Note_off_c, 0, 80, 51
1, 29943, Control_c, 0, 64, 60
1, 29958, Control_c, 0, 64, 69
1, 29972, Control_c, 0, 64, 75
1, 29973, Note_on_c, 0, 82, 60
1, 29976, Note_off_c, 0, 70, 63
1, 29987, Control_c, 0, 64, 80
1, 30002, Control_c, 0, 64, 83
1, 30011, Note_off_c, 0, 82, 57
1, 30017, Control_c, 0, 64, 84
1, 30032, Control_c, 0, 64, 85
1, 30035, Note_on_c, 0, 80, 61
1, 30042, Note_off_c, 0, 68, 47
1, 30044, Note_off_c, 0, 58, 39
1, 30046, Control_c, 0, 64, 86
1, 30053, Note_off_c, 0, 65, 41
1, 30061, Control_c, 0, 64, 88
1, 30076, Control_c, 0, 64, 88
1, 30089, Note_off_c, 0, 80, 59
1, 30091, Control_c, 0, 64, 89
1, 30116, Note_on_c, 0, 82, 58
1, 30135, Control_c, 0, 64, 89
1, 30150, Control_c, 0, 64, 90
1, 30160, Note_off_c, 0, 82, 59
1, 30205, Note_on_c, 0, 80, 57
1, 30232, Note_off_c, 0, 80, 56
1, 30247, Control_c, 0, 64, 90
1, 30269, Note_on_c, 0, 82, 64
1, 30319, Note_off_c, 0, 82, 56
1, 30326, Note_on_c, 0, 80, 63
1, 30385, Note_off_c, 0, 80, 59
1, 30411, Note_on_c, 0, 82, 61
1, 30462, Note_off_c, 0, 82, 51
1, 30508, Note_on_c, 0, 79, 65
1, 30514, Control_c, 0, 64, 90
1, 30522, Note_on_c, 0, 51, 41
1, 30528, Control_c, 0, 64, 89
1, 30543, Control_c, 0, 64, 83
1, 30553, Note_off_c, 0, 79, 57
1, 30558, Control_c, 0, 64, 73
1, 30573, Control_c, 0, 64, 52
1, 30579, Note_on_c, 0, 82, 58
1, 30588, Control_c, 0, 64, 0
1, 30627, Note_off_c, 0, 82, 57
1, 30630, Note_on_c, 0, 80, 65
1, 30647, Control_c, 0, 64, 62
1, 30662, Control_c, 0, 64, 69
1, 30676, Control_c, 0, 64, 73
1, 30682, Note_off_c, 0, 80, 64
1, 30689, Note_on_c, 0, 79, 65
1, 30691, Control_c, 0, 64, 75
1, 30697, Note_on_c, 0, 58, 50
1, 30706, Control_c, 0, 64, 77
1, 30721, Note_off_c, 0, 79, 58
1, 30721, Control_c, 0, 64, 79
1, 30736, Control_c, 0, 64, 79
1, 30747, Note_on_c, 0, 77, 57
1, 30751, Control_c, 0, 64, 80
1, 30770, Note_off_c, 0, 77, 61
1, 30814, Note_on_c, 0, 75, 68
1, 30868, Note_off_c, 0, 75, 64
1, 30873, Note_on_c, 0, 74, 60
1, 30903, Note_off_c, 0, 74, 68
1, 30933, Note_on_c, 0, 72, 61
1, 30968, Note_off_c, 0, 72, 61
1, 30998, Note_on_c, 0, 70, 70
1, 31046, Note_off_c, 0, 58, 58
1, 31059, Note_on_c, 0, 53, 55
1, 31062, Note_on_c, 0, 68, 63
1, 31064, Note_off_c, 0, 70, 58
1, 31070, Control_c, 0, 64, 79
1, 31085, Control_c, 0, 64, 73
1, 31099, Control_c, 0, 64, 61
1, 31114, Note_on_c, 0, 67, 64
1, 31114, Control_c, 0, 64, 0
1, 31120, Note_off_c, 0, 68, 63
1, 31130, Note_off_c, 0, 51, 53
1, 31150, Note_off_c, 0, 67, 63
1, 31167, Note_on_c, 0, 65, 58
1, 31204, Control_c, 0, 64, 58
1, 31207, Note_off_c, 0, 65, 65
1, 31218, Control_c, 0, 64, 67
1, 31233, Control_c, 0, 64, 69
1, 31237, Note_on_c, 0, 63, 70
1, 31243, Note_on_c, 0, 58, 56
1, 31248, Control_c, 0, 64, 72
1, 31263, Control_c, 0, 64, 74
1, 31277, Control_c, 0, 64, 76
1, 31284, Note_off_c, 0, 58, 60
1, 31292, Control_c, 0, 64, 76
1, 31296, Note_on_c, 0, 62, 67
1, 31298, Note_off_c, 0, 63, 65
1, 31328, Note_off_c, 0, 62, 63
1, 31344, Note_on_c, 0, 60, 64
1, 31396, Note_off_c, 0, 60, 47
1, 31410, Note_on_c, 0, 58, 69
1, 31441, Note_off_c, 0, 58, 67
1, 31466, Note_on_c, 0, 60, 58
1, 31506, Note_off_c, 0, 60, 63
1, 31524, Note_on_c, 0, 62, 63
1, 31544, Control_c, 0, 64, 74
1, 31559, Control_c, 0, 64, 68
1, 31573, Control_c, 0, 64, 48
1, 31579, Note_off_c, 0, 62, 61
1, 31586, Note_on_c, 0, 63, 67
1, 31588, Control_c, 0, 64, 0
1, 31591, Note_on_c, 0, 55, 59
1, 31591, Note_off_c, 0, 53, 62
1, 31621, Note_off_c, 0, 63, 61
1, 31634, Note_on_c, 0, 62, 58
1, 31689, Note_off_c, 0, 62, 59
1, 31699, Control_c, 0, 64, 62
1, 31709, Note_on_c, 0, 63, 62
1, 31714, Control_c, 0, 64, 68
1, 31729, Control_c, 0, 64, 71
1, 31744, Control_c, 0, 64, 74
1, 31757, Note_off_c, 0, 63, 61
1, 31758, Control_c, 0, 64, 78
1, 31772, Note_on_c, 0, 64, 67
1, 31773, Control_c, 0, 64, 80
1, 31787, Note_on_c, 0, 58, 57
1, 31788, Control_c, 0, 64, 81
1, 31804, Control_c, 0, 64, 82
1, 31819, Control_c, 0, 64, 82
1, 31833, Note_on_c, 0, 63, 64
1, 31833, Note_off_c, 0, 64, 64
1, 31834, Control_c, 0, 64, 83
1, 31863, Control_c, 0, 64, 83
1, 31878, Control_c, 0, 64, 84
1, 31880, Note_off_c, 0, 63, 64
1, 31890, Note_on_c, 0, 64, 66
1, 31943, Note_off_c, 0, 64, 62
1, 31958, Note_on_c, 0, 65, 68
1, 31993, Note_off_c, 0, 65, 60
1, 32037, Note_on_c, 0, 64, 30
1, 32068, Note_on_c, 0, 65, 60
1, 32090, Note_off_c, 0, 64, 37
1, 32100, Note_off_c, 0, 65, 58
1, 32116, Note_on_c, 0, 66, 68
1, 32118, Note_off_c, 0, 58, 38
1, 32130, Control_c, 0, 64, 82
1, 32141, Note_on_c, 0, 50, 60
1, 32145, Control_c, 0, 64, 76
1, 32151, Note_off_c, 0, 66, 65
1, 32160, Control_c, 0, 64, 66
1, 32174, Control_c, 0, 64, 0
1, 32179, Note_on_c, 0, 65, 60
1, 32217, Note_off_c, 0, 65, 60
1, 32237, Note_on_c, 0, 66, 69
1, 32263, Control_c, 0, 64, 62
1, 32278, Control_c, 0, 64, 69
1, 32282, Note_off_c, 0, 66, 64
1, 32292, Control_c, 0, 64, 73
1, 32300, Note_on_c, 0, 67, 68
1, 32307, Control_c, 0, 64, 76
1, 32319, Note_on_c, 0, 58, 63
1, 32322, Control_c, 0, 64, 77
1, 32337, Control_c, 0, 64, 78
1, 32346, Note_off_c, 0, 67, 62
1, 32352, Control_c, 0, 64, 79
1, 32360, Note_on_c, 0, 66, 60
1, 32366, Control_c, 0, 64, 80
1, 32381, Control_c, 0, 64, 80
1, 32396, Control_c, 0, 64, 81
1, 32399, Note_off_c, 0, 66, 65
1, 32406, Note_off_c, 0, 55, 41
1, 32411, Note_on_c, 0, 67, 61
1, 32411, Control_c, 0, 64, 81
1, 32471, Note_off_c, 0, 67, 59
1, 32482, Note_on_c, 0, 68, 68
1, 32523, Note_off_c, 0, 68, 64
1, 32536, Note_on_c, 0, 67, 62
1, 32584, Note_off_c, 0, 67, 62
1, 32596, Note_on_c, 0, 68, 63
1, 32624, Note_off_c, 0, 58, 52
1, 32627, Control_c, 0, 64, 81
1, 32641, Note_off_c, 0, 68, 64
1, 32642, Control_c, 0, 64, 78
1, 32649, Note_on_c, 0, 51, 61
1, 32653, Note_on_c, 0, 67, 58
1, 32657, Note_off_c, 0, 50, 52
1, 32657, Control_c, 0, 64, 70
1, 32671, Control_c, 0, 64, 50
1, 32685, Control_c, 0, 64, 0
1, 32695, Note_off_c, 0, 67, 61
1, 32706, Note_on_c, 0, 70, 69
1, 32745, Control_c, 0, 64, 49
1, 32760, Control_c, 0, 64, 67
1, 32768, Note_on_c, 0, 68, 68
1, 32770, Note_off_c, 0, 70, 63
1, 32775, Control_c, 0, 64, 72
1, 32789, Control_c, 0, 64, 76
1, 32804, Control_c, 0, 64, 77
1, 32811, Note_off_c, 0, 68, 63
1, 32817, Note_on_c, 0, 67, 71
1, 32819, Control_c, 0, 64, 79
1, 32834, Control_c, 0, 64, 80
1, 32838, Note_on_c, 0, 58, 67
1, 32849, Control_c, 0, 64, 81
1, 32864, Control_c, 0, 64, 81
1, 32865, Note_off_c, 0, 67, 58
1, 32878, Control_c, 0, 64, 82
1, 32879, Note_on_c, 0, 68, 59
1, 32912, Note_off_c, 0, 68, 63
1, 32913, Note_off_c, 0, 58, 61
1, 32921, Note_on_c, 0, 70, 72
1, 32922, Control_c, 0, 64, 82
1, 32945, Note_off_c, 0, 51, 62
1, 32948, Note_off_c, 0, 70, 67
1, 32992, Note_on_c, 0, 72, 64
1, 33043, Note_off_c, 0, 72, 60
1, 33055, Note_on_c, 0, 74, 69
1, 33085, Control_c, 0, 64, 81
1, 33092, Note_off_c, 0, 74, 64
1, 33100, Control_c, 0, 64, 76
1, 33112, Note_on_c, 0, 75, 62
1, 33115, Control_c, 0, 64, 67
1, 33129, Control_c, 0, 64, 0
1, 33133, Note_off_c, 0, 75, 68
1, 33171, Note_on_c, 0, 77, 70
1, 33186, Note_on_c, 0, 44, 63
1, 33225, Note_off_c, 0, 77, 61
1, 33241, Control_c, 0, 64, 64
1, 33243, Note_on_c, 0, 84, 59
1, 33255, Control_c, 0, 64, 71
1, 33264, Note_off_c, 0, 44, 65
1, 33270, Control_c, 0, 64, 76
1, 33282, Note_off_c, 0, 84, 64
1, 33285, Control_c, 0, 64, 81
1, 33293, Note_on_c, 0, 82, 77
1, 33300, Control_c, 0, 64, 82
1, 33314, Control_c, 0, 64, 83
1, 33329, Control_c, 0, 64, 85
1, 33344, Control_c, 0, 64, 86
1, 33359, Control_c, 0, 64, 88
1, 33367, Note_on_c, 0, 80, 68
1, 33374, Control_c, 0, 64, 89
1, 33380, Note_off_c, 0, 82, 56
1, 33398, Note_on_c, 0, 60, 60
1, 33400, Note_on_c, 0, 56, 54
1, 33427, Note_off_c, 0, 80, 65
1, 33428, Note_on_c, 0, 79, 63
1, 33433, Control_c, 0, 64, 89
1, 33472, Note_off_c, 0, 79, 61
1, 33481, Note_on_c, 0, 77, 66
1, 33490, Note_off_c, 0, 60, 59
1, 33529, Note_off_c, 0, 56, 63
1, 33532, Note_off_c, 0, 77, 58
1, 33558, Note_on_c, 0, 75, 72
1, 33614, Note_off_c, 0, 75, 65
1, 33615, Note_on_c, 0, 74, 64
1, 33656, Control_c, 0, 64, 89
1, 33659, Note_off_c, 0, 74, 63
1, 33669, Note_on_c, 0, 72, 66
1, 33671, Control_c, 0, 64, 86
1, 33686, Control_c, 0, 64, 79
1, 33700, Control_c, 0, 64, 66
1, 33715, Control_c, 0, 64, 0
1, 33729, Note_off_c, 0, 72, 63
1, 33738, Note_on_c, 0, 46, 71
1, 33742, Note_on_c, 0, 74, 62
1, 33802, Note_on_c, 0, 77, 66
1, 33804, Note_off_c, 0, 46, 64
1, 33804, Note_off_c, 0, 74, 63
1, 33818, Control_c, 0, 64, 66
1, 33833, Control_c, 0, 64, 72
1, 33848, Control_c, 0, 64, 78
1, 33862, Note_on_c, 0, 75, 69
1, 33863, Control_c, 0, 64, 80
1, 33873, Note_off_c, 0, 77, 59
1, 33878, Control_c, 0, 64, 81
1, 33915, Control_c, 0, 64, 82
1, 33929, Note_off_c, 0, 75, 65
1, 33930, Control_c, 0, 64, 83
1, 33941, Note_on_c, 0, 74, 62
1, 33945, Control_c, 0, 64, 84
1, 33949, Note_on_c, 0, 65, 68
1, 33954, Note_on_c, 0, 56, 55
1, 33964, Note_on_c, 0, 58, 54
1, 33981, Note_off_c, 0, 74, 61
1, 33982, Note_on_c, 0, 75, 58
1, 33990, Control_c, 0, 64, 84
1, 34019, Control_c, 0, 64, 85
1, 34023, Note_off_c, 0, 75, 65
1, 34048, Note_on_c, 0, 77, 72
1, 34049, Control_c, 0, 64, 85
1, 34070, Note_off_c, 0, 65, 49
1, 34107, Note_off_c, 0, 77, 48
1, 34121, Note_on_c, 0, 79, 72
1, 34133, Note_off_c, 0, 58, 60
1, 34141, Note_off_c, 0, 56, 58
1, 34165, Note_off_c, 0, 79, 62
1, 34176, Note_on_c, 0, 80, 68
1, 34220, Note_off_c, 0, 80, 65
1, 34224, Note_on_c, 0, 82, 72
1, 34257, Control_c, 0, 64, 84
1, 34272, Control_c, 0, 64, 79
1, 34287, Control_c, 0, 64, 69
1, 34298, Note_off_c, 0, 82, 62
1, 34301, Control_c, 0, 64, 0
1, 34304, Note_on_c, 0, 75, 68
1, 34316, Note_on_c, 0, 51, 63
1, 34357, Note_off_c, 0, 75, 66
1, 34365, Note_on_c, 0, 77, 71
1, 34375, Control_c, 0, 64, 60
1, 34390, Control_c, 0, 64, 70
1, 34405, Control_c, 0, 64, 77
1, 34420, Control_c, 0, 64, 83
1, 34429, Note_on_c, 0, 79, 76
1, 34432, Note_off_c, 0, 51, 59
1, 34435, Control_c, 0, 64, 84
1, 34442, Note_off_c, 0, 77, 50
1, 34450, Control_c, 0, 64, 85
1, 34465, Control_c, 0, 64, 86
1, 34480, Control_c, 0, 64, 88
1, 34483, Note_off_c, 0, 79, 63
1, 34486, Note_on_c, 0, 80, 73
1, 34494, Control_c, 0, 64, 89
1, 34509, Control_c, 0, 64, 90
1, 34513, Note_on_c, 0, 63, 66
1, 34517, Note_on_c, 0, 55, 44
1, 34520, Note_on_c, 0, 58, 58
1, 34524, Control_c, 0, 64, 91
1, 34528, Note_off_c, 0, 80, 64
1, 34539, Control_c, 0, 64, 91
1, 34540, Note_on_c, 0, 82, 60
1, 34554, Control_c, 0, 64, 92
1, 34559, Note_off_c, 0, 82, 63
1, 34568, Control_c, 0, 64, 92
1, 34583, Control_c, 0, 64, 93
1, 34605, Note_on_c, 0, 84, 75
1, 34613, Control_c, 0, 64, 93
1, 34617, Note_off_c, 0, 63, 60
1, 34632, Note_off_c, 0, 55, 60
1, 34649, Note_off_c, 0, 58, 57
1, 34653, Note_off_c, 0, 84, 58
1, 34675, Note_on_c, 0, 86, 72
1, 34719, Note_off_c, 0, 86, 62
1, 34724, Note_on_c, 0, 87, 72
1, 34764, Note_off_c, 0, 87, 64
1, 34787, Note_on_c, 0, 89, 72
1, 34858, Note_off_c, 0, 89, 60
1, 34864, Note_on_c, 0, 91, 71
1, 34866, Note_on_c, 0, 51, 59
1, 34872, Control_c, 0, 64, 92
1, 34886, Control_c, 0, 64, 86
1, 34901, Control_c, 0, 64, 76
1, 34916, Note_on_c, 0, 94, 73
1, 34916, Control_c, 0, 64, 49
1, 34921, Note_off_c, 0, 91, 60
1, 34932, Control_c, 0, 64, 0
1, 34978, Note_on_c, 0, 92, 68
1, 34984, Note_off_c, 0, 94, 61
1, 34992, Control_c, 0, 64, 56
1, 35007, Control_c, 0, 64, 69
1, 35022, Control_c, 0, 64, 74
1, 35031, Note_off_c, 0, 92, 66
1, 35037, Control_c, 0, 64, 78
1, 35044, Note_on_c, 0, 91, 67
1, 35052, Control_c, 0, 64, 80
1, 35063, Note_on_c, 0, 58, 60
1, 35066, Control_c, 0, 64, 82
1, 35073, Note_off_c, 0, 91, 62
1, 35081, Control_c, 0, 64, 83
1, 35088, Note_on_c, 0, 89, 63
1, 35096, Control_c, 0, 64, 84
1, 35110, Control_c, 0, 64, 84
1, 35121, Note_off_c, 0, 89, 67
1, 35125, Control_c, 0, 64, 85
1, 35155, Control_c, 0, 64, 86
1, 35164, Note_on_c, 0, 87, 68
1, 35184, Control_c, 0, 64, 86
1, 35222, Note_off_c, 0, 87, 64
1, 35230, Note_on_c, 0, 86, 61
1, 35260, Note_off_c, 0, 86, 66
1, 35273, Note_on_c, 0, 84, 65
1, 35312, Note_off_c, 0, 84, 63
1, 35353, Note_on_c, 0, 82, 70
1, 35408, Note_on_c, 0, 80, 66
1, 35422, Note_on_c, 0, 53, 60
1, 35422, Note_off_c, 0, 58, 56
1, 35432, Note_off_c, 0, 82, 55
1, 35459, Control_c, 0, 64, 85
1, 35473, Control_c, 0, 64, 79
1, 35478, Note_on_c, 0, 79, 61
1, 35478, Note_off_c, 0, 80, 65
1, 35479, Note_off_c, 0, 51, 57
1, 35488, Control_c, 0, 64, 66
1, 35503, Control_c, 0, 64, 0
1, 35516, Note_off_c, 0, 79, 59
1, 35525, Note_on_c, 0, 77, 64
1, 35574, Note_off_c, 0, 77, 62
1, 35592, Control_c, 0, 64, 63
1, 35607, Control_c, 0, 64, 69
1, 35607, Note_on_c, 0, 75, 69
1, 35619, Note_on_c, 0, 58, 58
1, 35621, Control_c, 0, 64, 72
1, 35636, Control_c, 0, 64, 75
1, 35651, Control_c, 0, 64, 77
1, 35666, Note_off_c, 0, 75, 65
1, 35666, Control_c, 0, 64, 79
1, 35666, Note_on_c, 0, 74, 61
1, 35681, Control_c, 0, 64, 80
1, 35696, Control_c, 0, 64, 80
1, 35699, Note_off_c, 0, 74, 65
1, 35711, Note_on_c, 0, 72, 62
1, 35755, Control_c, 0, 64, 81
1, 35766, Note_off_c, 0, 72, 53
1, 35785, Note_on_c, 0, 70, 72
1, 35800, Control_c, 0, 64, 81
1, 35828, Note_off_c, 0, 70, 63
1, 35843, Note_on_c, 0, 72, 60
1, 35891, Note_off_c, 0, 72, 63
1, 35906, Note_on_c, 0, 74, 64
1, 35949, Note_off_c, 0, 58, 33
1, 35963, Control_c, 0, 64, 81
1, 35968, Note_off_c, 0, 74, 64
1, 35970, Note_on_c, 0, 75, 70
1, 35976, Note_on_c, 0, 55, 62
1, 35978, Control_c, 0, 64, 77
1, 35981, Note_off_c, 0, 53, 59
1, 35993, Control_c, 0, 64, 69
1, 36007, Control_c, 0, 64, 11
1, 36009, Note_off_c, 0, 75, 62
1, 36022, Control_c, 0, 64, 0
1, 36025, Note_on_c, 0, 74, 55
1, 36077, Note_off_c, 0, 74, 64
1, 36089, Note_on_c, 0, 75, 58
1, 36096, Control_c, 0, 64, 64
1, 36111, Control_c, 0, 64, 71
1, 36126, Control_c, 0, 64, 76
1, 36140, Control_c, 0, 64, 79
1, 36146, Note_off_c, 0, 75, 63
1, 36154, Note_on_c, 0, 76, 66
1, 36155, Control_c, 0, 64, 82
1, 36157, Note_on_c, 0, 58, 63
1, 36178, Control_c, 0, 64, 83
1, 36193, Control_c, 0, 64, 83
1, 36208, Control_c, 0, 64, 84
1, 36221, Note_on_c, 0, 75, 62
1, 36222, Note_off_c, 0, 76, 67
1, 36222, Control_c, 0, 64, 84
1, 36252, Control_c, 0, 64, 85
1, 36271, Note_off_c, 0, 75, 65
1, 36274, Note_on_c, 0, 76, 65
1, 36326, Control_c, 0, 64, 85
1, 36335, Note_off_c, 0, 76, 64
1, 36339, Note_on_c, 0, 77, 71
1, 36388, Note_off_c, 0, 77, 58
1, 36401, Note_on_c, 0, 76, 58
1, 36446, Note_off_c, 0, 76, 64
1, 36455, Note_on_c, 0, 77, 60
1, 36489, Control_c, 0, 64, 84
1, 36498, Note_off_c, 0, 58, 34
1, 36502, Note_on_c, 0, 50, 63
1, 36504, Control_c, 0, 64, 81
1, 36505, Note_off_c, 0, 77, 61
1, 36512, Note_on_c, 0, 78, 71
1, 36519, Control_c, 0, 64, 72
1, 36534, Control_c, 0, 64, 34
1, 36548, Control_c, 0, 64, 0
1, 36551, Note_off_c, 0, 78, 60
1, 36564, Note_on_c, 0, 77, 58
1, 36608, Control_c, 0, 64, 43
1, 36619, Note_off_c, 0, 77, 59
1, 36623, Control_c, 0, 64, 67
1, 36626, Note_on_c, 0, 78, 70
1, 36638, Control_c, 0, 64, 73
1, 36653, Control_c, 0, 64, 78
1, 36663, Note_off_c, 0, 55, 23
1, 36668, Control_c, 0, 64, 81
1, 36680, Note_off_c, 0, 78, 60
1, 36682, Control_c, 0, 64, 83
1, 36689, Note_on_c, 0, 58, 65
1, 36694, Note_on_c, 0, 79, 68
1, 36697, Control_c, 0, 64, 85
1, 36712, Control_c, 0, 64, 86
1, 36727, Control_c, 0, 64, 87
1, 36742, Control_c, 0, 64, 88
1, 36745, Note_off_c, 0, 79, 60
1, 36748, Note_on_c, 0, 78, 65
1, 36771, Control_c, 0, 64, 89
1, 36798, Note_off_c, 0, 78, 64
1, 36804, Note_on_c, 0, 79, 62
1, 36845, Control_c, 0, 64, 89
1, 36865, Note_off_c, 0, 79, 57
1, 36873, Note_on_c, 0, 80, 77
1, 36923, Note_off_c, 0, 80, 63
1, 36937, Note_on_c, 0, 79, 57
1, 36980, Note_off_c, 0, 79, 61
1, 36988, Note_on_c, 0, 80, 70
1, 37040, Note_off_c, 0, 80, 62
1, 37046, Note_on_c, 0, 79, 61
1, 37051, Note_on_c, 0, 49, 69
1, 37059, Note_off_c, 0, 58, 50
1, 37060, Control_c, 0, 64, 89
1, 37075, Control_c, 0, 64, 84
1, 37089, Note_off_c, 0, 50, 53
1, 37089, Control_c, 0, 64, 73
1, 37100, Note_off_c, 0, 79, 45
1, 37104, Control_c, 0, 64, 47
1, 37112, Note_on_c, 0, 78, 73
1, 37119, Control_c, 0, 64, 0
1, 37154, Note_off_c, 0, 78, 65
1, 37163, Control_c, 0, 64, 64
1, 37166, Note_on_c, 0, 79, 62
1, 37178, Control_c, 0, 64, 71
1, 37193, Control_c, 0, 64, 77
1, 37208, Control_c, 0, 64, 83
1, 37223, Control_c, 0, 64, 85
1, 37225, Note_off_c, 0, 79, 59
1, 37234, Note_on_c, 0, 58, 62
1, 37234, Note_on_c, 0, 80, 75
1, 37237, Control_c, 0, 64, 86
1, 37242, Note_on_c, 0, 51, 61
1, 37252, Control_c, 0, 64, 88
1, 37267, Control_c, 0, 64, 90
1, 37279, Note_on_c, 0, 79, 55
1, 37280, Note_off_c, 0, 80, 62
1, 37282, Control_c, 0, 64, 91
1, 37297, Control_c, 0, 64, 92
1, 37312, Control_c, 0, 64, 93
1, 37333, Note_off_c, 0, 79, 60
1, 37341, Control_c, 0, 64, 94
1, 37344, Note_on_c, 0, 80, 64
1, 37371, Control_c, 0, 64, 94
1, 37386, Control_c, 0, 64, 95
1, 37397, Note_on_c, 0, 82, 77
1, 37401, Note_off_c, 0, 80, 64
1, 37428, Note_off_c, 0, 58, 54
1, 37431, Control_c, 0, 64, 95
1, 37442, Note_off_c, 0, 49, 36
1, 37448, Note_off_c, 0, 82, 61
1, 37452, Note_off_c, 0, 51, 50
1, 37458, Note_on_c, 0, 80, 68
1, 37500, Note_on_c, 0, 82, 69
1, 37507, Note_off_c, 0, 80, 63
1, 37580, Note_on_c, 0, 80, 77
1, 37585, Note_off_c, 0, 82, 63
1, 37594, Control_c, 0, 64, 95
1, 37597, Note_on_c, 0, 48, 73
1, 37609, Control_c, 0, 64, 91
1, 37624, Control_c, 0, 64, 82
1, 37630, Note_off_c, 0, 80, 65
1, 37633, Note_on_c, 0, 79, 73
1, 37639, Control_c, 0, 64, 67
1, 37660, Control_c, 0, 64, 0
1, 37690, Note_off_c, 0, 79, 61
1, 37701, Note_on_c, 0, 80, 64
1, 37750, Control_c, 0, 64, 25
1, 37750, Note_off_c, 0, 80, 64
1, 37753, Note_on_c, 0, 82, 71
1, 37765, Control_c, 0, 64, 67
1, 37771, Note_on_c, 0, 56, 67
1, 37774, Note_on_c, 0, 51, 60
1, 37780, Control_c, 0, 64, 76
1, 37794, Control_c, 0, 64, 87
1, 37803, Note_off_c, 0, 82, 62
1, 37809, Control_c, 0, 64, 93
1, 37822, Note_on_c, 0, 80, 66
1, 37824, Control_c, 0, 64, 96
1, 37838, Control_c, 0, 64, 99
1, 37853, Control_c, 0, 64, 103
1, 37868, Control_c, 0, 64, 108
1, 37872, Note_on_c, 0, 82, 68
1, 37883, Control_c, 0, 64, 114
1, 37892, Note_off_c, 0, 80, 62
1, 37898, Control_c, 0, 64, 118
1, 37898, Control_c, 0, 67, 123
1, 37912, Control_c, 0, 64, 121
1, 37912, Control_c, 0, 67, 108
1, 37927, Control_c, 0, 64, 124
1, 37927, Control_c, 0, 67, 94
1, 37930, Note_off_c, 0, 48, 58
1, 37930, Note_off_c, 0, 56, 58
1, 37942, Control_c, 0, 64, 126
1, 37942, Control_c, 0, 67, 82
1, 37943, Note_on_c, 0, 84, 71
1, 37944, Note_off_c, 0, 82, 63
1, 37949, Note_off_c, 0, 51, 61
1, 37957, Control_c, 0, 64, 127
1, 37957, Control_c, 0, 67, 74
1, 37972, Note_off_c, 0, 84, 64
1, 37972, Control_c, 0, 67, 69
1, 37986, Control_c, 0, 67, 64
1, 38001, Control_c, 0, 67, 56
1, 38006, Note_on_c, 0, 83, 72
1, 38016, Control_c, 0, 67, 46
1, 38031, Control_c, 0, 67, 35
1, 38045, Control_c, 0, 67, 25
1, 38060, Control_c, 0, 67, 18
1, 38061, Note_off_c, 0, 83, 53
1, 38065, Note_on_c, 0, 84, 71
1, 38075, Control_c, 0, 67, 13
1, 38090, Control_c, 0, 67, 0
1, 38108, Note_off_c, 0, 84, 60
1, 38122, Note_on_c, 0, 86, 73
1, 38139, Note_on_c, 0, 48, 73
1, 38164, Control_c, 0, 64, 120
1, 38179, Control_c, 0, 64, 103
1, 38195, Control_c, 0, 64, 85
1, 38196, Note_off_c, 0, 86, 61
1, 38200, Note_on_c, 0, 85, 77
1, 38209, Control_c, 0, 64, 66
1, 38224, Control_c, 0, 64, 0
1, 38251, Note_off_c, 0, 85, 65
1, 38257, Note_on_c, 0, 86, 63
1, 38298, Control_c, 0, 64, 54
1, 38313, Control_c, 0, 64, 69
1, 38317, Note_off_c, 0, 86, 64
1, 38319, Note_on_c, 0, 88, 77
1, 38328, Control_c, 0, 64, 77
1, 38334, Note_on_c, 0, 50, 55
1, 38335, Note_on_c, 0, 57, 64
1, 38343, Control_c, 0, 64, 86
1, 38358, Control_c, 0, 64, 95
1, 38373, Control_c, 0, 64, 100
1, 38378, Note_off_c, 0, 88, 62
1, 38381, Note_on_c, 0, 86, 68
1, 38388, Control_c, 0, 64, 103
1, 38403, Control_c, 0, 64, 106
1, 38424, Control_c, 0, 64, 110
1, 38439, Control_c, 0, 64, 113
1, 38443, Note_off_c, 0, 86, 63
1, 38448, Note_on_c, 0, 88, 59
1, 38454, Control_c, 0, 64, 116
1, 38468, Control_c, 0, 64, 118
1, 38483, Control_c, 0, 64, 119
1, 38493, Note_on_c, 0, 90, 77
1, 38498, Note_off_c, 0, 88, 64
1, 38498, Control_c, 0, 64, 120
1, 38513, Control_c, 0, 64, 121
1, 38528, Control_c, 0, 64, 122
1, 38540, Note_off_c, 0, 90, 61
1, 38543, Control_c, 0, 64, 123
1, 38554, Note_on_c, 0, 88, 67
1, 38599, Note_off_c, 0, 57, 33
1, 38612, Note_off_c, 0, 48, 55
1, 38613, Note_off_c, 0, 88, 60
1, 38617, Note_on_c, 0, 90, 73
1, 38668, Note_off_c, 0, 90, 63
1, 38672, Note_on_c, 0, 47, 72
1, 38672, Note_on_c, 0, 91, 75
1, 38691, Control_c, 0, 64, 121
1, 38701, Note_off_c, 0, 50, 36
1, 38706, Control_c, 0, 64, 109
1, 38721, Control_c, 0, 64, 92
1, 38728, Note_on_c, 0, 90, 63
1, 38734, Note_off_c, 0, 91, 58
1, 38735, Control_c, 0, 64, 74
1, 38750, Control_c, 0, 64, 0
1, 38780, Control_c, 0, 64, 39
1, 38783, Note_on_c, 0, 91, 63
1, 38784, Note_off_c, 0, 90, 63
1, 38795, Control_c, 0, 64, 69
1, 38809, Control_c, 0, 64, 79
1, 38824, Control_c, 0, 64, 90
1, 38839, Control_c, 0, 64, 97
1, 38841, Note_off_c, 0, 91, 56
1, 38851, Note_on_c, 0, 55, 63
1, 38853, Note_on_c, 0, 50, 60
1, 38853, Note_on_c, 0, 93, 72
1, 38854, Control_c, 0, 64, 98
1, 38868, Control_c, 0, 64, 100
1, 38883, Control_c, 0, 64, 102
1, 38895, Note_on_c, 0, 91, 70
1, 38897, Note_off_c, 0, 93, 59
1, 38898, Control_c, 0, 64, 105
1, 38913, Control_c, 0, 64, 106
1, 38927, Control_c, 0, 64, 107
1, 38939, Note_off_c, 0, 47, 62
1, 38942, Control_c, 0, 64, 107
1, 38957, Control_c, 0, 64, 108
1, 38960, Note_off_c, 0, 91, 59
1, 38960, Note_on_c, 0, 93, 72
1, 38972, Control_c, 0, 64, 108
1, 38988, Control_c, 0, 64, 109
1, 39015, Note_off_c, 0, 93, 61
1, 39016, Note_on_c, 0, 95, 74
1, 39062, Control_c, 0, 64, 110
1, 39064, Note_off_c, 0, 95, 64
1, 39071, Note_off_c, 0, 55, 31
1, 39075, Note_on_c, 0, 93, 75
1, 39130, Note_on_c, 0, 95, 73
1, 39133, Note_off_c, 0, 93, 57
1, 39195, Note_on_c, 0, 96, 76
1, 39197, Note_off_c, 0, 95, 66
1, 39203, Control_c, 0, 64, 104
1, 39205, Note_on_c, 0, 46, 79
1, 39218, Control_c, 0, 64, 88
1, 39233, Control_c, 0, 64, 72
1, 39241, Note_off_c, 0, 96, 60
1, 39247, Control_c, 0, 64, 53
1, 39248, Note_off_c, 0, 50, 50
1, 39262, Control_c, 0, 64, 49
1, 39264, Note_on_c, 0, 95, 73
1, 39277, Control_c, 0, 64, 65
1, 39291, Control_c, 0, 64, 72
1, 39306, Control_c, 0, 64, 81
1, 39321, Note_on_c, 0, 96, 72
1, 39321, Note_off_c, 0, 95, 62
1, 39321, Control_c, 0, 64, 91
1, 39336, Control_c, 0, 64, 94
1, 39351, Control_c, 0, 64, 96
1, 39365, Control_c, 0, 64, 98
1, 39368, Note_off_c, 0, 96, 64
1, 39375, Note_on_c, 0, 98, 67
1, 39380, Control_c, 0, 64, 102
1, 39381, Note_on_c, 0, 48, 63
1, 39381, Note_on_c, 0, 55, 63
1, 39395, Control_c, 0, 64, 105
1, 39410, Control_c, 0, 64, 107
1, 39421, Note_off_c, 0, 98, 54
1, 39425, Control_c, 0, 64, 108
1, 39434, Note_on_c, 0, 96, 72
1, 39440, Control_c, 0, 64, 109
1, 39455, Control_c, 0, 64, 111
1, 39470, Control_c, 0, 64, 112
1, 39484, Note_off_c, 0, 96, 63
1, 39484, Control_c, 0, 64, 113
1, 39485, Note_off_c, 0, 46, 58
1, 39488, Note_on_c, 0, 98, 72
1, 39544, Control_c, 0, 64, 113
1, 39550, Note_off_c, 0, 98, 66
1, 39553, Note_on_c, 0, 100, 74
1, 39593, Note_off_c, 0, 100, 52
1, 39604, Note_on_c, 0, 98, 63
1, 39637, Note_off_c, 0, 55, 31
1, 39667, Note_on_c, 0, 100, 71
1, 39672, Note_off_c, 0, 98, 64
1, 39721, Note_off_c, 0, 100, 65
1, 39734, Note_on_c, 0, 101, 72
1, 39735, Note_on_c, 0, 44, 68
1, 39738, Note_off_c, 0, 48, 58
1, 39750, Control_c, 0, 64, 113
1, 39765, Control_c, 0, 64, 108
1, 39781, Control_c, 0, 64, 96
1, 39796, Control_c, 0, 64, 78
1, 39811, Note_off_c, 0, 101, 62
1, 39811, Control_c, 0, 64, 62
1, 39812, Note_on_c, 0, 99, 72
1, 39826, Control_c, 0, 64, 0
1, 39841, Control_c, 0, 64, 34
1, 39855, Control_c, 0, 64, 63
1, 39870, Control_c, 0, 64, 70
1, 39872, Note_off_c, 0, 99, 68
1, 39874, Note_on_c, 0, 97, 66
1, 39885, Control_c, 0, 64, 78
1, 39900, Control_c, 0, 64, 87
1, 39922, Note_off_c, 0, 97, 63
1, 39922, Control_c, 0, 64, 92
1, 39935, Note_on_c, 0, 96, 59
1, 39936, Note_on_c, 0, 48, 56
1, 39937, Control_c, 0, 64, 94
1, 39952, Control_c, 0, 64, 95
1, 39953, Note_on_c, 0, 53, 59
1, 39961, Note_off_c, 0, 96, 65
1, 39967, Control_c, 0, 64, 97
1, 39982, Control_c, 0, 64, 98
1, 39996, Control_c, 0, 64, 100
1, 40002, Note_on_c, 0, 94, 72
1, 40011, Control_c, 0, 64, 100
1, 40026, Control_c, 0, 64, 101
1, 40051, Note_off_c, 0, 44, 58
1, 40056, Control_c, 0, 64, 101
1, 40057, Note_on_c, 0, 92, 71
1, 40065, Note_off_c, 0, 94, 61
1, 40070, Control_c, 0, 64, 102
1, 40085, Control_c, 0, 64, 103
1, 40086, Note_off_c, 0, 53, 64
1, 40100, Control_c, 0, 64, 103
1, 40116, Note_on_c, 0, 91, 61
1, 40119, Note_off_c, 0, 92, 65
1, 40151, Note_off_c, 0, 48, 36
1, 40157, Note_off_c, 0, 91, 58
1, 40172, Note_on_c, 0, 89, 64
1, 40209, Note_off_c, 0, 89, 63
1, 40242, Note_on_c, 0, 87, 72
1, 40310, Note_off_c, 0, 87, 64
1, 40311, Note_on_c, 0, 46, 52
1, 40313, Note_on_c, 0, 86, 59
1, 40343, Note_off_c, 0, 86, 66
1, 40352, Control_c, 0, 64, 102
1, 40353, Note_on_c, 0, 84, 67
1, 40367, Control_c, 0, 64, 94
1, 40381, Control_c, 0, 64, 80
1, 40393, Note_off_c, 0, 84, 65
1, 40396, Control_c, 0, 64, 63
1, 40411, Control_c, 0, 64, 0
1, 40432, Note_on_c, 0, 82, 72
1, 40455, Control_c, 0, 64, 55
1, 40470, Control_c, 0, 64, 69
1, 40478, Note_off_c, 0, 82, 63
1, 40485, Control_c, 0, 64, 75
1, 40494, Note_on_c, 0, 81, 64
1, 40495, Note_on_c, 0, 56, 55
1, 40495, Note_on_c, 0, 53, 52
1, 40499, Control_c, 0, 64, 81
1, 40514, Control_c, 0, 64, 86
1, 40529, Control_c, 0, 64, 89
1, 40532, Note_off_c, 0, 81, 59
1, 40540, Note_on_c, 0, 82, 64
1, 40544, Control_c, 0, 64, 92
1, 40559, Control_c, 0, 64, 95
1, 40575, Control_c, 0, 64, 97
1, 40576, Note_off_c, 0, 82, 65
1, 40590, Control_c, 0, 64, 99
1, 40595, Note_off_c, 0, 46, 59
1, 40604, Control_c, 0, 64, 100
1, 40610, Note_on_c, 0, 84, 68
1, 40619, Control_c, 0, 64, 101
1, 40631, Note_off_c, 0, 56, 62
1, 40634, Control_c, 0, 64, 102
1, 40636, Note_off_c, 0, 53, 64
1, 40656, Control_c, 0, 64, 102
1, 40671, Control_c, 0, 64, 103
1, 40673, Note_off_c, 0, 84, 60
1, 40684, Note_on_c, 0, 86, 71
1, 40716, Control_c, 0, 64, 103
1, 40734, Note_off_c, 0, 86, 61
1, 40745, Note_on_c, 0, 87, 65
1, 40775, Control_c, 0, 64, 104
1, 40776, Note_off_c, 0, 87, 66
1, 40808, Note_on_c, 0, 89, 66
1, 40869, Note_off_c, 0, 89, 61
1, 40887, Note_on_c, 0, 51, 60
1, 40888, Note_on_c, 0, 90, 69
1, 40923, Control_c, 0, 64, 103
1, 40937, Control_c, 0, 64, 95
1, 40948, Note_off_c, 0, 90, 60
1, 40949, Note_on_c, 0, 94, 62
1, 40952, Control_c, 0, 64, 77
1, 40967, Control_c, 0, 64, 51
1, 40982, Control_c, 0, 64, 0
1, 41018, Note_on_c, 0, 92, 70
1, 41020, Note_off_c, 0, 94, 60
1, 41041, Control_c, 0, 64, 48
1, 41056, Control_c, 0, 64, 67
1, 41071, Control_c, 0, 64, 75
1, 41079, Note_off_c, 0, 92, 64
1, 41085, Control_c, 0, 64, 83
1, 41089, Note_on_c, 0, 90, 59
1, 41100, Control_c, 0, 64, 90
1, 41109, Note_on_c, 0, 63, 66
1, 41115, Control_c, 0, 64, 94
1, 41126, Note_off_c, 0, 90, 64
1, 41130, Control_c, 0, 64, 96
1, 41136, Note_on_c, 0, 89, 59
1, 41145, Control_c, 0, 64, 98
1, 41160, Control_c, 0, 64, 100
1, 41170, Note_off_c, 0, 89, 65
1, 41175, Control_c, 0, 64, 102
1, 41190, Control_c, 0, 64, 104
1, 41204, Control_c, 0, 64, 105
1, 41211, Note_off_c, 0, 63, 63
1, 41212, Note_on_c, 0, 87, 72
1, 41219, Control_c, 0, 64, 106
1, 41234, Control_c, 0, 64, 106
1, 41249, Control_c, 0, 64, 107
1, 41278, Control_c, 0, 64, 107
1, 41285, Note_off_c, 0, 87, 62
1, 41288, Note_on_c, 0, 85, 62
1, 41333, Note_off_c, 0, 85, 62
1, 41345, Note_on_c, 0, 83, 60
1, 41384, Note_off_c, 0, 83, 53
1, 41416, Note_on_c, 0, 82, 70
1, 41464, Note_off_c, 0, 82, 63
1, 41475, Note_on_c, 0, 44, 73
1, 41477, Note_on_c, 0, 83, 58
1, 41518, Note_off_c, 0, 51, 62
1, 41536, Note_off_c, 0, 83, 57
1, 41537, Note_on_c, 0, 87, 66
1, 41539, Control_c, 0, 64, 105
1, 41553, Control_c, 0, 64, 96
1, 41568, Control_c, 0, 64, 81
1, 41583, Control_c, 0, 64, 62
1, 41598, Control_c, 0, 64, 0
1, 41601, Note_on_c, 0, 85, 62
1, 41613, Note_off_c, 0, 87, 59
1, 41644, Note_off_c, 0, 85, 61
1, 41657, Control_c, 0, 64, 49
1, 41667, Note_on_c, 0, 83, 62
1, 41672, Control_c, 0, 64, 68
1, 41686, Control_c, 0, 64, 76
1, 41695, Note_on_c, 0, 56, 72
1, 41701, Control_c, 0, 64, 84
1, 41712, Note_off_c, 0, 83, 59
1, 41716, Control_c, 0, 64, 90
1, 41731, Control_c, 0, 64, 93
1, 41746, Control_c, 0, 64, 96
1, 41750, Note_on_c, 0, 82, 67
1, 41760, Control_c, 0, 64, 98
1, 41775, Control_c, 0, 64, 101
1, 41790, Control_c, 0, 64, 103
1, 41805, Note_on_c, 0, 80, 71
1, 41805, Control_c, 0, 64, 104
1, 41820, Control_c, 0, 64, 105
1, 41827, Note_off_c, 0, 82, 56
1, 41849, Control_c, 0, 64, 106
1, 41863, Note_on_c, 0, 78, 71
1, 41863, Note_off_c, 0, 80, 64
1, 41864, Control_c, 0, 64, 106
1, 41878, Control_c, 0, 64, 107
1, 41893, Control_c, 0, 64, 107
1, 41911, Note_off_c, 0, 78, 63
1, 41913, Note_on_c, 0, 77, 64
1, 41923, Control_c, 0, 64, 108
1, 41945, Note_off_c, 0, 77, 63
1, 41953, Control_c, 0, 64, 108
1, 41981, Note_on_c, 0, 75, 73
1, 42035, Note_off_c, 0, 75, 64
1, 42042, Note_on_c, 0, 74, 61
1, 42054, Note_on_c, 0, 46, 75
1, 42072, Note_off_c, 0, 56, 62
1, 42086, Control_c, 0, 64, 103
1, 42088, Note_off_c, 0, 74, 61
1, 42094, Note_on_c, 0, 77, 69
1, 42101, Control_c, 0, 64, 89
1, 42116, Control_c, 0, 64, 72
1, 42120, Note_off_c, 0, 44, 59
1, 42131, Control_c, 0, 64, 0
1, 42171, Note_on_c, 0, 75, 72
1, 42182, Note_off_c, 0, 77, 58
1, 42198, Control_c, 0, 64, 66
1, 42213, Control_c, 0, 64, 76
1, 42226, Note_on_c, 0, 74, 62
1, 42228, Control_c, 0, 64, 87
1, 42232, Note_off_c, 0, 75, 64
1, 42242, Note_on_c, 0, 58, 85
1, 42243, Control_c, 0, 64, 93
1, 42257, Control_c, 0, 64, 95
1, 42266, Note_off_c, 0, 74, 58
1, 42272, Control_c, 0, 64, 97
1, 42278, Note_on_c, 0, 71, 68
1, 42287, Control_c, 0, 64, 98
1, 42302, Control_c, 0, 64, 99
1, 42317, Control_c, 0, 64, 100
1, 42324, Note_off_c, 0, 71, 60
1, 42331, Control_c, 0, 64, 100
1, 42337, Note_off_c, 0, 58, 65
1, 42370, Note_on_c, 0, 70, 73
1, 42414, Note_off_c, 0, 46, 62
1, 42426, Note_on_c, 0, 68, 68
1, 42444, Note_off_c, 0, 70, 62
1, 42465, Note_on_c, 0, 66, 78
1, 42478, Note_off_c, 0, 68, 65
1, 42495, Control_c, 0, 64, 101
1, 42516, Note_on_c, 0, 65, 71
1, 42522, Note_off_c, 0, 66, 65
1, 42543, Note_off_c, 0, 65, 68
1, 42569, Control_c, 0, 64, 101
1, 42598, Control_c, 0, 64, 102
1, 42627, Control_c, 0, 64, 102
1, 42650, Note_on_c, 0, 78, 74
1, 42654, Note_on_c, 0, 39, 77
1, 42672, Control_c, 0, 64, 102
1, 42687, Control_c, 0, 64, 96
1, 42701, Control_c, 0, 64, 83
1, 42708, Note_off_c, 0, 78, 62
1, 42709, Note_on_c, 0, 82, 70
1, 42716, Control_c, 0, 64, 65
1, 42731, Control_c, 0, 64, 0
1, 42782, Note_on_c, 0, 80, 69
1, 42788, Note_off_c, 0, 82, 58
1, 42791, Control_c, 0, 64, 63
1, 42805, Control_c, 0, 64, 75
1, 42820, Control_c, 0, 64, 86
1, 42835, Control_c, 0, 64, 96
1, 42850, Note_off_c, 0, 80, 64
1, 42850, Control_c, 0, 64, 100
1, 42851, Note_on_c, 0, 78, 67
1, 42865, Control_c, 0, 64, 101
1, 42872, Note_on_c, 0, 51, 80
1, 42880, Control_c, 0, 64, 103
1, 42895, Control_c, 0, 64, 106
1, 42895, Note_off_c, 0, 78, 62
1, 42910, Note_on_c, 0, 77, 65
1, 42916, Control_c, 0, 64, 108
1, 42931, Control_c, 0, 64, 109
1, 42945, Note_off_c, 0, 77, 62
1, 42946, Control_c, 0, 64, 109
1, 42976, Control_c, 0, 64, 110
1, 42981, Note_off_c, 0, 51, 61
1, 42986, Note_on_c, 0, 75, 71
1, 43045, Note_on_c, 0, 73, 68
1, 43051, Note_off_c, 0, 75, 64
1, 43093, Note_off_c, 0, 73, 62
1, 43102, Note_on_c, 0, 71, 63
1, 43157, Note_off_c, 0, 71, 56
1, 43168, Note_on_c, 0, 70, 74
1, 43222, Note_off_c, 0, 70, 63
1, 43236, Note_on_c, 0, 32, 78
1, 43245, Note_on_c, 0, 71, 62
1, 43273, Note_off_c, 0, 39, 62
1, 43273, Control_c, 0, 64, 107
1, 43288, Control_c, 0, 64, 96
1, 43294, Note_off_c, 0, 71, 57
1, 43298, Note_on_c, 0, 75, 62
1, 43303, Control_c, 0, 64, 80
1, 43318, Control_c, 0, 64, 60
1, 43332, Control_c, 0, 64, 0
1, 43363, Note_on_c, 0, 73, 68
1, 43378, Note_off_c, 0, 75, 63
1, 43392, Control_c, 0, 64, 65
1, 43406, Control_c, 0, 64, 75
1, 43414, Note_off_c, 0, 73, 57
1, 43421, Control_c, 0, 64, 86
1, 43430, Note_on_c, 0, 71, 65
1, 43436, Control_c, 0, 64, 94
1, 43437, Note_on_c, 0, 44, 81
1, 43450, Control_c, 0, 64, 97
1, 43465, Control_c, 0, 64, 99
1, 43475, Note_off_c, 0, 71, 60
1, 43480, Control_c, 0, 64, 101
1, 43495, Control_c, 0, 64, 103
1, 43504, Note_on_c, 0, 70, 71
1, 43510, Control_c, 0, 64, 106
1, 43524, Control_c, 0, 64, 108
1, 43539, Control_c, 0, 64, 109
1, 43554, Control_c, 0, 64, 109
1, 43562, Note_on_c, 0, 68, 71
1, 43569, Control_c, 0, 64, 110
1, 43589, Note_off_c, 0, 70, 58
1, 43613, Control_c, 0, 64, 110
1, 43619, Note_on_c, 0, 66, 70
1, 43627, Note_off_c, 0, 68, 65
1, 43670, Note_off_c, 0, 66, 63
1, 43671, Note_on_c, 0, 65, 70
1, 43707, Note_off_c, 0, 65, 65
1, 43750, Note_on_c, 0, 63, 76
1, 43804, Note_off_c, 0, 63, 65
1, 43811, Note_on_c, 0, 62, 67
1, 43819, Note_on_c, 0, 34, 73
1, 43829, Control_c, 0, 64, 109
1, 43844, Control_c, 0, 64, 100
1, 43856, Note_off_c, 0, 44, 60
1, 43859, Control_c, 0, 64, 84
1, 43867, Note_off_c, 0, 62, 61
1, 43871, Note_on_c, 0, 65, 69
1, 43874, Control_c, 0, 64, 64
1, 43877, Note_off_c, 0, 32, 60
1, 43888, Control_c, 0, 64, 0
1, 43931, Note_on_c, 0, 63, 69
1, 43942, Note_off_c, 0, 65, 60
1, 43948, Control_c, 0, 64, 68
1, 43962, Control_c, 0, 64, 78
1, 43977, Control_c, 0, 64, 90
1, 43982, Note_off_c, 0, 63, 62
1, 43988, Note_on_c, 0, 62, 53
1, 43992, Control_c, 0, 64, 97
1, 44007, Control_c, 0, 64, 100
1, 44008, Note_on_c, 0, 46, 87
1, 44013, Note_off_c, 0, 62, 56
1, 44022, Control_c, 0, 64, 101
1, 44024, Note_on_c, 0, 59, 70
1, 44037, Control_c, 0, 64, 102
1, 44051, Control_c, 0, 64, 102
1, 44067, Note_off_c, 0, 59, 60
1, 44096, Control_c, 0, 64, 103
1, 44120, Note_on_c, 0, 58, 75
1, 44149, Note_off_c, 0, 34, 63
1, 44176, Note_on_c, 0, 56, 65
1, 44204, Note_off_c, 0, 58, 62
1, 44220, Note_on_c, 0, 54, 72
1, 44238, Note_off_c, 0, 56, 64
1, 44281, Note_off_c, 0, 54, 61
1, 44282, Note_on_c, 0, 53, 68
1, 44320, Note_off_c, 0, 46, 56
1, 44333, Note_off_c, 0, 53, 43
1, 44351, Note_on_c, 0, 51, 74
1, 44362, Control_c, 0, 64, 101
1, 44368, Note_on_c, 0, 39, 75
1, 44377, Control_c, 0, 64, 96
1, 44382, Note_off_c, 0, 51, 67
1, 44400, Control_c, 0, 64, 88
1, 44414, Note_on_c, 0, 53, 63
1, 44415, Control_c, 0, 64, 76
1, 44426, Note_off_c, 0, 39, 57
1, 44429, Control_c, 0, 64, 57
1, 44444, Control_c, 0, 64, 0
1, 44489, Note_off_c, 0, 53, 59
1, 44493, Note_on_c, 0, 54, 66
1, 44553, Note_on_c, 0, 56, 61
1, 44564, Note_off_c, 0, 54, 61
1, 44584, Note_on_c, 0, 50, 91
1, 44585, Note_on_c, 0, 46, 79
1, 44602, Note_on_c, 0, 59, 72
1, 44603, Note_off_c, 0, 56, 63
1, 44608, Control_c, 0, 64, 11
1, 44623, Control_c, 0, 64, 67
1, 44638, Control_c, 0, 64, 77
1, 44652, Control_c, 0, 64, 88
1, 44668, Control_c, 0, 64, 95
1, 44677, Note_on_c, 0, 58, 69
1, 44683, Control_c, 0, 64, 97
1, 44698, Note_off_c, 0, 59, 57
1, 44698, Control_c, 0, 64, 97
1, 44712, Control_c, 0, 64, 98
1, 44727, Control_c, 0, 64, 99
1, 44736, Note_on_c, 0, 56, 65
1, 44742, Control_c, 0, 64, 99
1, 44757, Control_c, 0, 64, 100
1, 44788, Note_off_c, 0, 58, 63
1, 44796, Note_on_c, 0, 54, 68
1, 44812, Note_off_c, 0, 56, 63
1, 44854, Note_off_c, 0, 54, 62
1, 44861, Note_on_c, 0, 53, 69
1, 44892, Note_off_c, 0, 50, 53
1, 44917, Note_off_c, 0, 53, 50
1, 44919, Control_c, 0, 64, 99
1, 44931, Note_on_c, 0, 51, 76
1, 44934, Control_c, 0, 64, 98
1, 44937, Note_off_c, 0, 46, 61
1, 44938, Note_on_c, 0, 39, 71
1, 44949, Control_c, 0, 64, 95
1, 44964, Control_c, 0, 64, 87
1, 44978, Note_off_c, 0, 51, 63
1, 44979, Control_c, 0, 64, 78
1, 44988, Note_on_c, 0, 53, 64
1, 44993, Control_c, 0, 64, 64
1, 44994, Note_off_c, 0, 39, 53
1, 45008, Control_c, 0, 64, 0
1, 45059, Note_on_c, 0, 54, 70
1, 45065, Note_off_c, 0, 53, 62
1, 45121, Note_on_c, 0, 56, 66
1, 45134, Note_off_c, 0, 54, 61
1, 45152, Note_on_c, 0, 46, 84
1, 45157, Note_on_c, 0, 50, 91
1, 45183, Note_on_c, 0, 59, 75
1, 45187, Note_off_c, 0, 56, 64
1, 45193, Control_c, 0, 64, 56
1, 45208, Control_c, 0, 64, 70
1, 45223, Control_c, 0, 64, 79
1, 45238, Control_c, 0, 64, 86
1, 45253, Control_c, 0, 64, 88
1, 45255, Note_on_c, 0, 58, 70
1, 45268, Control_c, 0, 64, 88
1, 45271, Note_off_c, 0, 59, 57
1, 45283, Control_c, 0, 64, 89
1, 45297, Control_c, 0, 64, 90
1, 45309, Note_on_c, 0, 56, 73
1, 45312, Control_c, 0, 64, 91
1, 45342, Control_c, 0, 64, 92
1, 45351, Note_off_c, 0, 58, 62
1, 45372, Control_c, 0, 64, 92
1, 45375, Note_on_c, 0, 54, 66
1, 45387, Note_off_c, 0, 56, 63
1, 45432, Note_off_c, 0, 54, 61
1, 45435, Note_on_c, 0, 53, 67
1, 45472, Note_off_c, 0, 53, 58
1, 45474, Control_c, 0, 64, 92
1, 45475, Note_off_c, 0, 50, 36
1, 45489, Control_c, 0, 64, 91
1, 45497, Note_off_c, 0, 46, 59
1, 45497, Note_on_c, 0, 51, 74
1, 45504, Control_c, 0, 64, 88
1, 45510, Note_on_c, 0, 39, 69
1, 45519, Control_c, 0, 64, 83
1, 45533, Control_c, 0, 64, 73
1, 45535, Note_off_c, 0, 51, 64
1, 45548, Control_c, 0, 64, 53
1, 45554, Note_off_c, 0, 39, 59
1, 45560, Note_on_c, 0, 53, 71
1, 45563, Control_c, 0, 64, 0
1, 45627, Note_off_c, 0, 53, 62
1, 45628, Note_on_c, 0, 54, 70
1, 45692, Note_on_c, 0, 56, 67
1, 45700, Note_off_c, 0, 54, 61
1, 45709, Note_on_c, 0, 46, 80
1, 45714, Note_on_c, 0, 50, 95
1, 45726, Control_c, 0, 64, 40
1, 45741, Control_c, 0, 64, 68
1, 45742, Note_on_c, 0, 59, 70
1, 45750, Note_off_c, 0, 56, 64
1, 45756, Control_c, 0, 64, 77
1, 45771, Control_c, 0, 64, 86
1, 45780, Note_off_c, 0, 50, 63
1, 45786, Control_c, 0, 64, 90
1, 45805, Note_off_c, 0, 46, 62
1, 45815, Control_c, 0, 64, 90
1, 45819, Note_on_c, 0, 58, 68
1, 45825, Note_off_c, 0, 59, 60
1, 45830, Control_c, 0, 64, 91
1, 45844, Control_c, 0, 64, 91
1, 45859, Control_c, 0, 64, 92
1, 45878, Note_on_c, 0, 56, 68
1, 45889, Control_c, 0, 64, 92
1, 45926, Note_off_c, 0, 58, 61
1, 45947, Note_on_c, 0, 54, 68
1, 45957, Note_off_c, 0, 56, 63
1, 46005, Note_off_c, 0, 54, 60
1, 46011, Note_on_c, 0, 53, 69
1, 46049, Note_off_c, 0, 53, 59
1, 46059, Control_c, 0, 64, 92
1, 46074, Control_c, 0, 64, 91
1, 46084, Note_on_c, 0, 51, 71
1, 46087, Note_on_c, 0, 39, 72
1, 46089, Control_c, 0, 64, 91
1, 46104, Control_c, 0, 64, 89
1, 46118, Control_c, 0, 64, 86
1, 46133, Note_off_c, 0, 51, 61
1, 46133, Control_c, 0, 64, 81
1, 46147, Note_off_c, 0, 39, 62
1, 46148, Control_c, 0, 64, 75
1, 46150, Note_on_c, 0, 53, 71
1, 46160, Note_on_c, 0, 41, 67
1, 46163, Control_c, 0, 64, 69
1, 46179, Control_c, 0, 64, 61
1, 46194, Control_c, 0, 64, 37
1, 46209, Control_c, 0, 64, 0
1, 46231, Note_off_c, 0, 53, 41
1, 46244, Note_on_c, 0, 54, 20
1, 46248, Note_off_c, 0, 41, 62
1, 46250, Note_on_c, 0, 42, 66
1, 46254, Note_on_c, 0, 55, 50
1, 46278, Note_off_c, 0, 55, 59
1, 46284, Note_off_c, 0, 54, 53
1, 46285, Note_on_c, 0, 56, 64
1, 46299, Note_on_c, 0, 44, 69
1, 46335, Note_off_c, 0, 56, 64
1, 46339, Note_off_c, 0, 42, 61
1, 46341, Note_on_c, 0, 58, 66
1, 46355, Note_on_c, 0, 46, 73
1, 46363, Note_off_c, 0, 58, 68
1, 46380, Note_off_c, 0, 44, 64
1, 46406, Note_on_c, 0, 60, 70
1, 46412, Note_off_c, 0, 46, 61
1, 46415, Note_on_c, 0, 48, 77
1, 46451, Note_off_c, 0, 48, 67
1, 46469, Note_on_c, 0, 62, 70
1, 46472, Note_off_c, 0, 60, 59
1, 46505, Note_on_c, 0, 50, 68
1, 46523, Note_on_c, 0, 63, 62
1, 46539, Note_off_c, 0, 62, 41
1, 46546, Note_on_c, 0, 51, 64
1, 46549, Note_off_c, 0, 63, 39
1, 46554, Note_off_c, 0, 50, 62
1, 46601, Note_on_c, 0, 53, 76
1, 46610, Note_off_c, 0, 51, 63
1, 46613, Note_on_c, 0, 64, 43
1, 46624, Note_on_c, 0, 65, 28
1, 46648, Note_off_c, 0, 64, 52
1, 46652, Note_off_c, 0, 53, 68
1, 46668, Note_off_c, 0, 65, 41
1, 46681, Note_on_c, 0, 66, 83
1, 46693, Note_on_c, 0, 54, 82
1, 46767, Poly_aftertouch_c, 0, 53, 0
1, 47007, Note_off_c, 0, 66, 65
1, 47027, Note_off_c, 0, 54, 60
1, 47432, Note_on_c, 0, 66, 79
1, 47434, Note_on_c, 0, 54, 94
1, 47434, Note_on_c, 0, 58, 88
1, 47434, Note_on_c, 0, 70, 88
1, 47436, Note_on_c, 0, 42, 76
1, 47437, Note_on_c, 0, 61, 76
1, 47512, Control_c, 0, 64, 67
1, 47527, Control_c, 0, 64, 81
1, 47542, Control_c, 0, 64, 102
1, 47557, Control_c, 0, 64, 119
1, 47572, Control_c, 0, 64, 127
1, 47691, Note_off_c, 0, 54, 62
1, 47752, Note_off_c, 0, 42, 60
1, 47757, Note_off_c, 0, 58, 58
1, 47758, Note_off_c, 0, 70, 60
1, 47793, Note_off_c, 0, 61, 58
1, 47803, Note_off_c, 0, 66, 61
1, 47944, Control_c, 0, 64, 109
1, 47959, Control_c, 0, 64, 94
1, 47974, Control_c, 0, 64, 80
1, 47988, Control_c, 0, 64, 64
1, 48003, Control_c, 0, 64, 0
1, 48306, Note_on_c, 0, 71, 90
1, 48309, Note_on_c, 0, 35, 83
1, 48321, Control_c, 0, 64, 62
1, 48336, Control_c, 0, 64, 76
1, 48351, Control_c, 0, 64, 92
1, 48365, Note_off_c, 0, 35, 64
1, 48366, Control_c, 0, 64, 112
1, 48381, Control_c, 0, 64, 124
1, 48395, Control_c, 0, 64, 127
1, 48585, Note_on_c, 0, 54, 76
1, 48591, Note_on_c, 0, 47, 73
1, 48594, Note_on_c, 0, 59, 81
1, 48597, Note_on_c, 0, 50, 67
1, 48642, Note_off_c, 0, 59, 64
1, 48654, Note_on_c, 0, 62, 77
1, 48681, Note_off_c, 0, 54, 60
1, 48705, Note_off_c, 0, 50, 63
1, 48708, Note_on_c, 0, 66, 76
1, 48708, Note_off_c, 0, 62, 62
1, 48720, Note_off_c, 0, 47, 62
1, 48792, Note_on_c, 0, 59, 91
1, 48806, Note_off_c, 0, 66, 58
1, 48878, Note_off_c, 0, 59, 58
1, 48918, Note_off_c, 0, 71, 54
1, 49011, Control_c, 0, 64, 112
1, 49025, Control_c, 0, 64, 87
1, 49040, Control_c, 0, 64, 62
1, 49049, Note_on_c, 0, 35, 84
1, 49049, Note_on_c, 0, 71, 90
1, 49055, Control_c, 0, 64, 0
1, 49114, Note_off_c, 0, 35, 63
1, 49114, Control_c, 0, 64, 67
1, 49129, Control_c, 0, 64, 79
1, 49143, Control_c, 0, 64, 93
1, 49158, Control_c, 0, 64, 106
1, 49173, Control_c, 0, 64, 113
1, 49188, Control_c, 0, 64, 117
1, 49202, Control_c, 0, 64, 120
1, 49217, Control_c, 0, 64, 125
1, 49232, Control_c, 0, 64, 127
1, 49294, Note_on_c, 0, 49, 58
1, 49294, Note_on_c, 0, 52, 59
1, 49295, Note_on_c, 0, 55, 68
1, 49296, Note_on_c, 0, 47, 59
1, 49298, Note_on_c, 0, 59, 73
1, 49343, Note_on_c, 0, 61, 71
1, 49354, Note_off_c, 0, 59, 59
1, 49393, Note_on_c, 0, 67, 71
1, 49407, Note_off_c, 0, 55, 62
1, 49409, Note_off_c, 0, 47, 59
1, 49411, Note_off_c, 0, 61, 62
1, 49432, Note_off_c, 0, 52, 65
1, 49434, Note_off_c, 0, 71, 53
1, 49437, Note_off_c, 0, 49, 56
1, 49475, Note_on_c, 0, 59, 77
1, 49509, Note_off_c, 0, 67, 59
1, 49524, Note_off_c, 0, 59, 62
1, 49685, Control_c, 0, 64, 112
1, 49700, Control_c, 0, 64, 93
1, 49703, Note_on_c, 0, 71, 74
1, 49709, Note_on_c, 0, 50, 62
1, 49715, Control_c, 0, 64, 74
1, 49730, Control_c, 0, 64, 0
1, 49774, Note_on_c, 0, 54, 54
1, 49774, Control_c, 0, 64, 64
1, 49789, Control_c, 0, 64, 72
1, 49790, Note_on_c, 0, 59, 43
1, 49801, Note_off_c, 0, 50, 63
1, 49804, Note_on_c, 0, 62, 63
1, 49804, Control_c, 0, 64, 81
1, 49808, Note_off_c, 0, 71, 61
1, 49808, Note_on_c, 0, 66, 66
1, 49818, Control_c, 0, 64, 90
1, 49833, Control_c, 0, 64, 97
1, 49838, Note_off_c, 0, 59, 58
1, 49842, Note_off_c, 0, 62, 62
1, 49848, Control_c, 0, 64, 102
1, 49854, Note_off_c, 0, 66, 62
1, 49863, Control_c, 0, 64, 106
1, 49865, Note_off_c, 0, 54, 56
1, 49878, Control_c, 0, 64, 109
1, 49892, Control_c, 0, 64, 113
1, 49895, Note_on_c, 0, 73, 79
1, 49897, Note_on_c, 0, 49, 64
1, 49907, Control_c, 0, 64, 115
1, 49922, Control_c, 0, 64, 116
1, 49937, Control_c, 0, 64, 117
1, 49952, Control_c, 0, 64, 117
1, 49960, Note_off_c, 0, 49, 60
1, 49966, Control_c, 0, 64, 118
1, 49968, Note_on_c, 0, 58, 63
1, 49972, Note_on_c, 0, 54, 52
1, 49982, Note_on_c, 0, 66, 65
1, 49983, Note_on_c, 0, 64, 63
1, 49983, Note_off_c, 0, 73, 63
1, 50000, Note_off_c, 0, 58, 65
1, 50016, Note_off_c, 0, 64, 65
1, 50026, Note_off_c, 0, 66, 65
1, 50033, Note_off_c, 0, 54, 53
1, 50065, Note_on_c, 0, 74, 73
1, 50076, Note_on_c, 0, 47, 63
1, 50111, Note_off_c, 0, 47, 57
1, 50128, Note_off_c, 0, 74, 62
1, 50141, Note_on_c, 0, 59, 50
1, 50144, Note_on_c, 0, 54, 59
1, 50153, Note_on_c, 0, 66, 61
1, 50155, Note_on_c, 0, 62, 61
1, 50171, Note_off_c, 0, 59, 54
1, 50175, Note_off_c, 0, 54, 64
1, 50195, Note_off_c, 0, 62, 58
1, 50213, Note_off_c, 0, 66, 53
1, 50264, Control_c, 0, 64, 115
1, 50279, Control_c, 0, 64, 101
1, 50291, Note_on_c, 0, 73, 81
1, 50293, Control_c, 0, 64, 83
1, 50295, Note_on_c, 0, 42, 74
1, 50308, Control_c, 0, 64, 60
1, 50323, Control_c, 0, 64, 0
1, 50372, Note_off_c, 0, 42, 64
1, 50383, Control_c, 0, 64, 65
1, 50404, Control_c, 0, 64, 76
1, 50419, Control_c, 0, 64, 92
1, 50434, Control_c, 0, 64, 104
1, 50448, Control_c, 0, 64, 109
1, 50463, Control_c, 0, 64, 111
1, 50478, Control_c, 0, 64, 113
1, 50493, Control_c, 0, 64, 116
1, 50508, Control_c, 0, 64, 120
1, 50523, Control_c, 0, 64, 123
1, 50538, Control_c, 0, 64, 125
1, 50544, Note_on_c, 0, 58, 68
1, 50549, Note_on_c, 0, 61, 73
1, 50553, Control_c, 0, 64, 127
1, 50556, Note_on_c, 0, 54, 54
1, 50568, Control_c, 0, 64, 127
1, 50568, Note_off_c, 0, 73, 62
1, 50571, Note_off_c, 0, 58, 67
1, 50589, Note_on_c, 0, 66, 66
1, 50601, Note_off_c, 0, 54, 60
1, 50610, Note_off_c, 0, 61, 61
1, 50638, Note_on_c, 0, 70, 72
1, 50649, Note_off_c, 0, 66, 64
1, 50713, Note_on_c, 0, 61, 78
1, 50720, Note_off_c, 0, 70, 57
1, 50735, Note_off_c, 0, 61, 69
1, 50922, Control_c, 0, 64, 114
1, 50937, Note_on_c, 0, 78, 94
1, 50937, Control_c, 0, 64, 95
1, 50942, Note_on_c, 0, 42, 81
1, 50952, Control_c, 0, 64, 73
1, 50968, Control_c, 0, 64, 0
1, 51006, Note_off_c, 0, 42, 65
1, 51012, Control_c, 0, 64, 48
1, 51027, Control_c, 0, 64, 70
1, 51042, Control_c, 0, 64, 82
1, 51057, Control_c, 0, 64, 97
1, 51072, Control_c, 0, 64, 107
1, 51086, Control_c, 0, 64, 112
1, 51101, Control_c, 0, 64, 115
1, 51116, Control_c, 0, 64, 119
1, 51131, Control_c, 0, 64, 126
1, 51153, Control_c, 0, 64, 127
1, 51194, Note_on_c, 0, 61, 63
1, 51203, Note_on_c, 0, 54, 57
1, 51213, Note_on_c, 0, 58, 49
1, 51215, Note_on_c, 0, 66, 71
1, 51227, Note_off_c, 0, 61, 62
1, 51230, Note_off_c, 0, 78, 62
1, 51242, Note_on_c, 0, 70, 63
1, 51261, Note_off_c, 0, 58, 59
1, 51279, Note_off_c, 0, 66, 64
1, 51280, Note_off_c, 0, 54, 56
1, 51297, Note_on_c, 0, 73, 67
1, 51304, Note_off_c, 0, 70, 64
1, 51375, Note_off_c, 0, 73, 56
1, 51383, Note_on_c, 0, 66, 73
1, 51407, Note_off_c, 0, 66, 69
1, 51613, Control_c, 0, 64, 115
1, 51617, Note_on_c, 0, 74, 77
1, 51628, Control_c, 0, 64, 97
1, 51633, Note_on_c, 0, 47, 58
1, 51643, Control_c, 0, 64, 78
1, 51658, Control_c, 0, 64, 0
1, 51731, Control_c, 0, 64, 63
1, 51746, Control_c, 0, 64, 73
1, 51762, Control_c, 0, 64, 86
1, 51777, Control_c, 0, 64, 96
1, 51792, Control_c, 0, 64, 100
1, 51807, Control_c, 0, 64, 102
1, 51822, Control_c, 0, 64, 104
1, 51836, Control_c, 0, 64, 106
1, 51851, Control_c, 0, 64, 109
1, 51855, Note_off_c, 0, 74, 55
1, 51860, Note_on_c, 0, 54, 48
1, 51860, Note_on_c, 0, 59, 53
1, 51864, Note_on_c, 0, 62, 67
1, 51866, Control_c, 0, 64, 110
1, 51873, Note_off_c, 0, 47, 35
1, 51881, Control_c, 0, 64, 111
1, 51903, Control_c, 0, 64, 113
1, 51903, Note_off_c, 0, 59, 58
1, 51918, Control_c, 0, 64, 113
1, 51921, Note_on_c, 0, 66, 66
1, 51927, Note_off_c, 0, 62, 59
1, 51933, Control_c, 0, 64, 114
1, 51941, Note_off_c, 0, 54, 54
1, 51960, Note_off_c, 0, 66, 63
1, 51970, Note_on_c, 0, 71, 60
1, 52026, Note_off_c, 0, 71, 52
1, 52036, Note_on_c, 0, 62, 76
1, 52071, Note_off_c, 0, 62, 57
1, 52198, Control_c, 0, 64, 112
1, 52213, Control_c, 0, 64, 100
1, 52228, Control_c, 0, 64, 80
1, 52240, Note_on_c, 0, 73, 73
1, 52243, Control_c, 0, 64, 55
1, 52252, Note_on_c, 0, 71, 62
1, 52258, Control_c, 0, 64, 0
1, 52260, Note_on_c, 0, 43, 55
1, 52287, Control_c, 0, 64, 38
1, 52302, Control_c, 0, 64, 66
1, 52317, Control_c, 0, 64, 74
1, 52318, Note_off_c, 0, 43, 60
1, 52332, Control_c, 0, 64, 84
1, 52335, Note_on_c, 0, 64, 76
1, 52336, Note_off_c, 0, 71, 54
1, 52337, Note_on_c, 0, 55, 53
1, 52347, Control_c, 0, 64, 91
1, 52354, Note_off_c, 0, 73, 57
1, 52359, Note_off_c, 0, 55, 64
1, 52361, Control_c, 0, 64, 94
1, 52376, Control_c, 0, 64, 95
1, 52391, Control_c, 0, 64, 96
1, 52392, Note_off_c, 0, 64, 63
1, 52406, Control_c, 0, 64, 98
1, 52420, Control_c, 0, 64, 101
1, 52428, Note_on_c, 0, 76, 77
1, 52435, Control_c, 0, 64, 103
1, 52436, Note_on_c, 0, 40, 69
1, 52444, Note_on_c, 0, 71, 67
1, 52450, Control_c, 0, 64, 105
1, 52465, Control_c, 0, 64, 106
1, 52472, Note_off_c, 0, 40, 61
1, 52480, Control_c, 0, 64, 107
1, 52493, Note_off_c, 0, 76, 65
1, 52494, Control_c, 0, 64, 108
1, 52509, Control_c, 0, 64, 109
1, 52516, Note_on_c, 0, 52, 64
1, 52517, Note_on_c, 0, 64, 71
1, 52524, Control_c, 0, 64, 110
1, 52538, Note_off_c, 0, 71, 52
1, 52539, Control_c, 0, 64, 110
1, 52549, Note_off_c, 0, 52, 65
1, 52579, Note_off_c, 0, 64, 60
1, 52599, Control_c, 0, 64, 111
1, 52613, Note_on_c, 0, 73, 75
1, 52617, Note_on_c, 0, 43, 73
1, 52625, Note_on_c, 0, 71, 54
1, 52669, Note_off_c, 0, 43, 62
1, 52679, Note_off_c, 0, 71, 58
1, 52688, Note_off_c, 0, 73, 57
1, 52700, Note_on_c, 0, 64, 74
1, 52715, Note_on_c, 0, 55, 57
1, 52740, Note_off_c, 0, 55, 63
1, 52766, Note_off_c, 0, 64, 58
1, 52799, Control_c, 0, 67, 10
1, 52814, Control_c, 0, 64, 106
1, 52814, Control_c, 0, 67, 35
1, 52829, Control_c, 0, 64, 93
1, 52829, Control_c, 0, 67, 91
1, 52838, Note_on_c, 0, 74, 81
1, 52843, Control_c, 0, 64, 73
1, 52843, Control_c, 0, 67, 127
1, 52855, Note_on_c, 0, 47, 66
1, 52858, Control_c, 0, 64, 0
1, 52962, Control_c, 0, 64, 62
1, 52977, Control_c, 0, 64, 72
1, 52991, Control_c, 0, 64, 84
1, 53006, Control_c, 0, 64, 93
1, 53021, Control_c, 0, 64, 96
1, 53036, Control_c, 0, 64, 98
1, 53051, Control_c, 0, 64, 98
1, 53066, Control_c, 0, 64, 99
1, 53078, Note_off_c, 0, 74, 53
1, 53081, Note_off_c, 0, 47, 35
1, 53081, Control_c, 0, 64, 100
1, 53084, Note_on_c, 0, 62, 66
1, 53091, Note_on_c, 0, 59, 52
1, 53096, Control_c, 0, 64, 101
1, 53097, Note_on_c, 0, 54, 43
1, 53122, Note_off_c, 0, 59, 54
1, 53144, Note_off_c, 0, 62, 59
1, 53147, Note_on_c, 0, 66, 58
1, 53158, Note_off_c, 0, 54, 57
1, 53191, Note_on_c, 0, 71, 60
1, 53191, Note_off_c, 0, 66, 62
1, 53239, Note_off_c, 0, 71, 52
1, 53243, Control_c, 0, 64, 101
1, 53258, Control_c, 0, 64, 99
1, 53261, Note_on_c, 0, 62, 67
1, 53273, Control_c, 0, 64, 94
1, 53288, Control_c, 0, 64, 89
1, 53291, Note_off_c, 0, 62, 61
1, 53303, Control_c, 0, 64, 81
1, 53317, Control_c, 0, 64, 70
1, 53332, Control_c, 0, 64, 0
1, 53513, Note_on_c, 0, 71, 59
1, 53514, Note_on_c, 0, 35, 51
1, 53519, Control_c, 0, 64, 37
1, 53533, Control_c, 0, 64, 69
1, 53548, Note_off_c, 0, 35, 63
1, 53548, Control_c, 0, 64, 80
1, 53563, Control_c, 0, 64, 91
1, 53578, Control_c, 0, 64, 99
1, 53593, Control_c, 0, 64, 102
1, 53607, Control_c, 0, 64, 104
1, 53622, Control_c, 0, 64, 106
1, 53637, Control_c, 0, 64, 108
1, 53652, Control_c, 0, 64, 111
1, 53666, Control_c, 0, 64, 113
1, 53681, Control_c, 0, 64, 114
1, 53696, Control_c, 0, 64, 115
1, 53711, Control_c, 0, 64, 115
1, 53726, Control_c, 0, 64, 116
1, 53740, Control_c, 0, 64, 117
1, 53742, Note_on_c, 0, 59, 61
1, 53746, Note_on_c, 0, 47, 57
1, 53748, Note_on_c, 0, 54, 54
1, 53755, Control_c, 0, 64, 117
1, 53761, Note_on_c, 0, 50, 48
1, 53789, Note_off_c, 0, 54, 60
1, 53796, Note_off_c, 0, 59, 60
1, 53798, Note_on_c, 0, 62, 67
1, 53812, Note_off_c, 0, 50, 61
1, 53824, Note_off_c, 0, 47, 63
1, 53832, Note_off_c, 0, 62, 61
1, 53849, Note_on_c, 0, 66, 59
1, 53902, Note_off_c, 0, 66, 50
1, 53917, Note_on_c, 0, 59, 73
1, 53975, Note_off_c, 0, 59, 60
1, 54042, Note_off_c, 0, 71, 36
1, 54081, Control_c, 0, 64, 115
1, 54096, Control_c, 0, 64, 104
1, 54111, Control_c, 0, 64, 86
1, 54126, Control_c, 0, 64, 64
1, 54146, Note_on_c, 0, 35, 66
1, 54147, Note_on_c, 0, 71, 75
1, 54148, Control_c, 0, 64, 0
1, 54190, Note_off_c, 0, 35, 66
1, 54208, Control_c, 0, 64, 66
1, 54222, Control_c, 0, 64, 77
1, 54237, Control_c, 0, 64, 88
1, 54252, Control_c, 0, 64, 96
1, 54267, Control_c, 0, 64, 98
1, 54282, Control_c, 0, 64, 99
1, 54297, Control_c, 0, 64, 101
1, 54312, Control_c, 0, 64, 103
1, 54327, Control_c, 0, 64, 105
1, 54342, Control_c, 0, 64, 108
1, 54356, Control_c, 0, 64, 109
1, 54371, Control_c, 0, 64, 111
1, 54377, Note_on_c, 0, 55, 55
1, 54386, Note_on_c, 0, 59, 64
1, 54386, Control_c, 0, 64, 112
1, 54388, Note_on_c, 0, 52, 50
1, 54389, Note_on_c, 0, 47, 50
1, 54401, Control_c, 0, 64, 114
1, 54407, Note_on_c, 0, 49, 41
1, 54416, Control_c, 0, 64, 116
1, 54428, Note_on_c, 0, 61, 69
1, 54430, Note_off_c, 0, 59, 58
1, 54431, Control_c, 0, 64, 118
1, 54446, Control_c, 0, 64, 118
1, 54456, Note_off_c, 0, 71, 39
1, 54461, Control_c, 0, 64, 119
1, 54464, Note_off_c, 0, 55, 60
1, 54468, Note_off_c, 0, 47, 59
1, 54476, Control_c, 0, 64, 120
1, 54481, Note_on_c, 0, 67, 64
1, 54483, Note_off_c, 0, 49, 52
1, 54488, Note_off_c, 0, 52, 62
1, 54488, Note_off_c, 0, 61, 62
1, 54490, Control_c, 0, 64, 120
1, 54505, Control_c, 0, 64, 121
1, 54520, Control_c, 0, 64, 122
1, 54535, Control_c, 0, 64, 123
1, 54548, Note_on_c, 0, 59, 67
1, 54550, Control_c, 0, 64, 124
1, 54556, Note_off_c, 0, 67, 59
1, 54564, Control_c, 0, 64, 125
1, 54579, Control_c, 0, 64, 125
1, 54579, Control_c, 0, 67, 118
1, 54586, Note_off_c, 0, 59, 58
1, 54594, Control_c, 0, 67, 108
1, 54608, Control_c, 0, 64, 126
1, 54608, Control_c, 0, 67, 96
1, 54623, Control_c, 0, 67, 81
1, 54638, Control_c, 0, 67, 65
1, 54653, Control_c, 0, 67, 49
1, 54668, Control_c, 0, 67, 36
1, 54682, Control_c, 0, 67, 23
1, 54697, Control_c, 0, 67, 16
1, 54712, Control_c, 0, 67, 10
1, 54727, Control_c, 0, 64, 124
1, 54727, Control_c, 0, 67, 0
1, 54742, Control_c, 0, 64, 111
1, 54749, Note_on_c, 0, 71, 70
1, 54756, Control_c, 0, 64, 94
1, 54759, Note_on_c, 0, 50, 62
1, 54771, Control_c, 0, 64, 75
1, 54786, Control_c, 0, 64, 28
1, 54801, Control_c, 0, 64, 0
1, 54830, Control_c, 0, 64, 66
1, 54838, Note_on_c, 0, 62, 58
1, 54838, Note_off_c, 0, 71, 60
1, 54844, Note_off_c, 0, 50, 61
1, 54845, Note_on_c, 0, 59, 48
1, 54845, Note_on_c, 0, 66, 65
1, 54845, Control_c, 0, 64, 75
1, 54846, Note_on_c, 0, 54, 54
1, 54860, Control_c, 0, 64, 85
1, 54873, Note_off_c, 0, 59, 54
1, 54875, Control_c, 0, 64, 93
1, 54876, Note_off_c, 0, 62, 64
1, 54887, Note_off_c, 0, 66, 65
1, 54896, Note_off_c, 0, 54, 59
1, 54897, Control_c, 0, 64, 96
1, 54912, Control_c, 0, 64, 100
1, 54927, Control_c, 0, 64, 103
1, 54942, Control_c, 0, 64, 107
1, 54947, Note_on_c, 0, 73, 71
1, 54957, Note_on_c, 0, 49, 58
1, 54957, Control_c, 0, 64, 110
1, 54973, Control_c, 0, 64, 112
1, 54987, Control_c, 0, 64, 114
1, 54999, Note_off_c, 0, 49, 59
1, 55002, Control_c, 0, 64, 115
1, 55017, Note_on_c, 0, 58, 59
1, 55017, Control_c, 0, 64, 116
1, 55019, Note_on_c, 0, 54, 46
1, 55021, Note_off_c, 0, 73, 63
1, 55023, Note_on_c, 0, 66, 63
1, 55027, Note_on_c, 0, 64, 56
1, 55046, Control_c, 0, 64, 117
1, 55048, Note_off_c, 0, 58, 64
1, 55053, Note_off_c, 0, 66, 66
1, 55057, Note_off_c, 0, 64, 62
1, 55080, Note_off_c, 0, 54, 54
1, 55120, Note_on_c, 0, 74, 74
1, 55132, Note_on_c, 0, 47, 52
1, 55168, Note_off_c, 0, 47, 49
1, 55185, Note_off_c, 0, 74, 61
1, 55188, Note_on_c, 0, 59, 54
1, 55191, Note_on_c, 0, 54, 52
1, 55205, Note_on_c, 0, 62, 58
1, 55210, Note_on_c, 0, 66, 55
1, 55211, Note_off_c, 0, 59, 58
1, 55218, Note_off_c, 0, 54, 62
1, 55242, Note_off_c, 0, 62, 57
1, 55255, Note_off_c, 0, 66, 62
1, 55298, Control_c, 0, 64, 116
1, 55313, Control_c, 0, 64, 108
1, 55328, Note_on_c, 0, 73, 75
1, 55328, Control_c, 0, 64, 91
1, 55339, Note_on_c, 0, 42, 66
1, 55343, Control_c, 0, 64, 71
1, 55358, Control_c, 0, 64, 0
1, 55417, Note_off_c, 0, 42, 63
1, 55417, Control_c, 0, 64, 29
1, 55431, Control_c, 0, 64, 69
1, 55446, Control_c, 0, 64, 80
1, 55461, Control_c, 0, 64, 94
1, 55476, Control_c, 0, 64, 104
1, 55491, Control_c, 0, 64, 108
1, 55505, Control_c, 0, 64, 110
1, 55520, Control_c, 0, 64, 113
1, 55535, Control_c, 0, 64, 117
1, 55549, Control_c, 0, 64, 121
1, 55564, Control_c, 0, 64, 126
1, 55579, Control_c, 0, 64, 127
1, 55582, Note_on_c, 0, 54, 55
1, 55587, Note_on_c, 0, 61, 66
1, 55591, Note_on_c, 0, 58, 39
1, 55605, Note_off_c, 0, 73, 62
1, 55617, Note_off_c, 0, 58, 55
1, 55637, Note_on_c, 0, 66, 67
1, 55638, Note_off_c, 0, 54, 59
1, 55645, Note_off_c, 0, 61, 59
1, 55683, Note_on_c, 0, 70, 66
1, 55683, Note_off_c, 0, 66, 63
1, 55731, Note_off_c, 0, 70, 58
1, 55752, Note_on_c, 0, 61, 77
1, 55785, Note_off_c, 0, 61, 64
1, 55929, Control_c, 0, 64, 113
1, 55943, Control_c, 0, 64, 94
1, 55943, Control_c, 0, 67, 8
1, 55958, Control_c, 0, 64, 73
1, 55967, Note_on_c, 0, 42, 69
1, 55970, Note_on_c, 0, 78, 88
1, 55973, Control_c, 0, 64, 0
1, 55973, Control_c, 0, 67, 9
1, 55988, Control_c, 0, 67, 9
1, 56003, Control_c, 0, 67, 10
1, 56017, Control_c, 0, 64, 60
1, 56026, Note_off_c, 0, 42, 64
1, 56032, Control_c, 0, 64, 73
1, 56047, Control_c, 0, 64, 85
1, 56062, Control_c, 0, 64, 101
1, 56076, Control_c, 0, 64, 107
1, 56091, Control_c, 0, 64, 109
1, 56091, Control_c, 0, 67, 9
1, 56106, Control_c, 0, 64, 110
1, 56121, Control_c, 0, 64, 112
1, 56136, Control_c, 0, 64, 115
1, 56151, Control_c, 0, 64, 117
1, 56166, Control_c, 0, 64, 118
1, 56180, Control_c, 0, 64, 120
1, 56195, Control_c, 0, 64, 121
1, 56210, Control_c, 0, 64, 122
1, 56225, Control_c, 0, 64, 122
1, 56226, Note_on_c, 0, 61, 51
1, 56235, Note_on_c, 0, 54, 47
1, 56235, Note_on_c, 0, 66, 70
1, 56239, Note_on_c, 0, 58, 48
1, 56240, Control_c, 0, 64, 123
1, 56254, Control_c, 0, 64, 123
1, 56255, Note_off_c, 0, 78, 62
1, 56262, Note_off_c, 0, 61, 62
1, 56270, Note_on_c, 0, 70, 63
1, 56282, Note_off_c, 0, 58, 62
1, 56284, Control_c, 0, 64, 124
1, 56285, Note_off_c, 0, 54, 57
1, 56286, Note_off_c, 0, 66, 55
1, 56325, Note_on_c, 0, 73, 71
1, 56328, Control_c, 0, 64, 124
1, 56329, Note_off_c, 0, 70, 63
1, 56343, Control_c, 0, 67, 9
1, 56380, Control_c, 0, 64, 125
1, 56380, Control_c, 0, 67, 8
1, 56398, Note_off_c, 0, 73, 56
1, 56402, Note_on_c, 0, 66, 74
1, 56451, Note_off_c, 0, 66, 66
1, 56455, Control_c, 0, 67, 8
1, 56499, Control_c, 0, 67, 0
1, 56589, Control_c, 0, 64, 121
1, 56604, Control_c, 0, 64, 108
1, 56604, Control_c, 0, 67, 8
1, 56618, Control_c, 0, 64, 90
1, 56623, Note_on_c, 0, 74, 80
1, 56633, Control_c, 0, 64, 67
1, 56633, Control_c, 0, 67, 8
1, 56637, Note_on_c, 0, 47, 59
1, 56647, Control_c, 0, 64, 0
1, 56706, Control_c, 0, 67, 9
1, 56721, Control_c, 0, 64, 66
1, 56736, Control_c, 0, 64, 78
1, 56751, Control_c, 0, 64, 89
1, 56765, Control_c, 0, 64, 96
1, 56780, Control_c, 0, 64, 98
1, 56795, Control_c, 0, 64, 100
1, 56810, Control_c, 0, 64, 101
1, 56825, Control_c, 0, 64, 103
1, 56840, Control_c, 0, 64, 105
1, 56854, Control_c, 0, 64, 107
1, 56864, Note_off_c, 0, 74, 50
1, 56869, Note_off_c, 0, 47, 34
1, 56869, Note_on_c, 0, 62, 68
1, 56869, Control_c, 0, 64, 108
1, 56870, Note_on_c, 0, 54, 53
1, 56871, Note_on_c, 0, 59, 52
1, 56884, Control_c, 0, 64, 109
1, 56897, Note_off_c, 0, 59, 58
1, 56899, Control_c, 0, 67, 8
1, 56909, Note_off_c, 0, 62, 58
1, 56910, Note_on_c, 0, 66, 62
1, 56929, Note_off_c, 0, 54, 57
1, 56944, Control_c, 0, 64, 110
1, 56949, Note_off_c, 0, 66, 62
1, 56961, Note_on_c, 0, 71, 59
1, 57002, Control_c, 0, 67, 8
1, 57028, Note_on_c, 0, 62, 71
1, 57032, Control_c, 0, 67, 0
1, 57036, Note_off_c, 0, 71, 36
1, 57060, Note_off_c, 0, 62, 61
1, 57121, Control_c, 0, 67, 8
1, 57144, Control_c, 0, 67, 8
1, 57158, Control_c, 0, 64, 109
1, 57158, Control_c, 0, 67, 9
1, 57173, Control_c, 0, 64, 102
1, 57173, Control_c, 0, 67, 9
1, 57188, Control_c, 0, 64, 88
1, 57203, Control_c, 0, 64, 70
1, 57217, Control_c, 0, 64, 0
1, 57237, Note_on_c, 0, 71, 78
1, 57247, Control_c, 0, 67, 10
1, 57251, Note_on_c, 0, 38, 59
1, 57277, Control_c, 0, 64, 64
1, 57291, Control_c, 0, 64, 74
1, 57306, Control_c, 0, 64, 87
1, 57314, Note_off_c, 0, 38, 61
1, 57321, Control_c, 0, 64, 95
1, 57323, Note_on_c, 0, 50, 65
1, 57327, Note_on_c, 0, 66, 76
1, 57335, Control_c, 0, 64, 99
1, 57335, Control_c, 0, 67, 9
1, 57346, Note_on_c, 0, 68, 61
1, 57350, Control_c, 0, 64, 100
1, 57361, Note_off_c, 0, 50, 65
1, 57367, Control_c, 0, 64, 102
1, 57367, Note_off_c, 0, 66, 57
1, 57381, Control_c, 0, 64, 105
1, 57391, Note_off_c, 0, 71, 58
1, 57396, Control_c, 0, 64, 108
1, 57396, Control_c, 0, 67, 10
1, 57402, Note_off_c, 0, 68, 56
1, 57411, Control_c, 0, 64, 110
1, 57411, Control_c, 0, 67, 10
1, 57425, Control_c, 0, 64, 111
1, 57430, Note_on_c, 0, 74, 82
1, 57439, Note_on_c, 0, 35, 75
1, 57440, Control_c, 0, 64, 112
1, 57440, Control_c, 0, 67, 11
1, 57455, Control_c, 0, 64, 112
1, 57455, Control_c, 0, 67, 11
1, 57470, Control_c, 0, 67, 13
1, 57478, Note_off_c, 0, 35, 66
1, 57485, Control_c, 0, 67, 15
1, 57500, Control_c, 0, 67, 19
1, 57514, Control_c, 0, 67, 25
1, 57515, Note_on_c, 0, 68, 73
1, 57518, Note_on_c, 0, 47, 70
1, 57518, Note_on_c, 0, 66, 70
1, 57527, Note_off_c, 0, 74, 60
1, 57529, Control_c, 0, 67, 32
1, 57544, Control_c, 0, 67, 41
1, 57556, Note_off_c, 0, 66, 64
1, 57559, Control_c, 0, 67, 53
1, 57560, Note_off_c, 0, 47, 63
1, 57574, Note_off_c, 0, 68, 63
1, 57574, Control_c, 0, 67, 73
1, 57588, Control_c, 0, 67, 100
1, 57603, Control_c, 0, 67, 127
1, 57612, Note_on_c, 0, 71, 79
1, 57615, Note_on_c, 0, 38, 72
1, 57661, Note_off_c, 0, 38, 63
1, 57687, Note_on_c, 0, 68, 77
1, 57696, Note_on_c, 0, 50, 69
1, 57698, Note_on_c, 0, 66, 52
1, 57714, Note_off_c, 0, 66, 65
1, 57725, Note_off_c, 0, 50, 66
1, 57753, Note_off_c, 0, 71, 58
1, 57767, Note_off_c, 0, 68, 61
1, 57811, Control_c, 0, 64, 109
1, 57823, Note_on_c, 0, 73, 84
1, 57825, Control_c, 0, 64, 96
1, 57827, Note_on_c, 0, 37, 73
1, 57840, Control_c, 0, 64, 76
1, 57855, Control_c, 0, 64, 0
1, 57906, Note_off_c, 0, 37, 65
1, 57951, Control_c, 0, 64, 59
1, 57966, Control_c, 0, 64, 72
1, 57981, Control_c, 0, 64, 83
1, 57996, Control_c, 0, 64, 93
1, 58011, Control_c, 0, 64, 97
1, 58026, Control_c, 0, 64, 98
1, 58040, Control_c, 0, 64, 99
1, 58055, Control_c, 0, 64, 100
1, 58070, Control_c, 0, 64, 101
1, 58085, Control_c, 0, 64, 102
1, 58088, Note_off_c, 0, 73, 61
1, 58091, Note_on_c, 0, 61, 64
1, 58100, Control_c, 0, 64, 103
1, 58107, Note_on_c, 0, 53, 51
1, 58107, Note_on_c, 0, 56, 53
1, 58114, Control_c, 0, 64, 103
1, 58115, Note_on_c, 0, 49, 45
1, 58128, Note_on_c, 0, 65, 64
1, 58132, Note_off_c, 0, 61, 58
1, 58148, Note_off_c, 0, 56, 59
1, 58187, Note_on_c, 0, 68, 66
1, 58187, Note_off_c, 0, 65, 64
1, 58189, Note_off_c, 0, 53, 62
1, 58211, Note_off_c, 0, 49, 55
1, 58239, Note_off_c, 0, 68, 58
1, 58258, Note_on_c, 0, 61, 64
1, 58291, Note_off_c, 0, 61, 60
1, 58293, Control_c, 0, 64, 102
1, 58308, Control_c, 0, 64, 100
1, 58322, Control_c, 0, 64, 95
1, 58337, Control_c, 0, 64, 86
1, 58352, Control_c, 0, 64, 71
1, 58367, Control_c, 0, 64, 0
1, 58494, Note_on_c, 0, 69, 68
1, 58522, Note_on_c, 0, 42, 38
1, 58530, Control_c, 0, 64, 65
1, 58545, Control_c, 0, 64, 77
1, 58560, Control_c, 0, 64, 88
1, 58574, Control_c, 0, 64, 96
1, 58589, Control_c, 0, 64, 99
1, 58604, Control_c, 0, 64, 100
1, 58619, Control_c, 0, 64, 101
1, 58641, Control_c, 0, 64, 103
1, 58655, Control_c, 0, 64, 105
1, 58670, Control_c, 0, 64, 105
1, 58701, Note_off_c, 0, 42, 39
1, 58737, Note_on_c, 0, 54, 56
1, 58753, Note_on_c, 0, 57, 56
1, 58768, Note_off_c, 0, 54, 64
1, 58801, Note_off_c, 0, 57, 55
1, 58804, Note_on_c, 0, 61, 63
1, 58846, Note_off_c, 0, 69, 58
1, 58852, Note_on_c, 0, 66, 66
1, 58860, Note_off_c, 0, 61, 60
1, 58918, Note_on_c, 0, 57, 59
1, 58940, Note_off_c, 0, 66, 61
1, 58992, Note_off_c, 0, 57, 56
1, 59085, Control_c, 0, 64, 102
1, 59100, Control_c, 0, 64, 93
1, 59115, Control_c, 0, 64, 74
1, 59130, Control_c, 0, 64, 0
1, 59132, Note_on_c, 0, 35, 62
1, 59137, Note_on_c, 0, 67, 72
1, 59203, Control_c, 0, 64, 66
1, 59205, Note_off_c, 0, 35, 64
1, 59218, Control_c, 0, 64, 75
1, 59233, Control_c, 0, 64, 83
1, 59248, Control_c, 0, 64, 88
1, 59263, Control_c, 0, 64, 90
1, 59278, Control_c, 0, 64, 91
1, 59293, Control_c, 0, 64, 92
1, 59308, Control_c, 0, 64, 94
1, 59323, Control_c, 0, 64, 95
1, 59338, Control_c, 0, 64, 95
1, 59352, Control_c, 0, 64, 96
1, 59362, Note_on_c, 0, 55, 56
1, 59367, Control_c, 0, 64, 96
1, 59376, Note_on_c, 0, 47, 54
1, 59377, Note_on_c, 0, 50, 47
1, 59405, Note_off_c, 0, 50, 58
1, 59406, Note_off_c, 0, 67, 38
1, 59412, Note_on_c, 0, 59, 63
1, 59413, Note_off_c, 0, 55, 64
1, 59424, Note_off_c, 0, 47, 59
1, 59463, Note_on_c, 0, 62, 64
1, 59471, Note_off_c, 0, 59, 60
1, 59508, Note_off_c, 0, 62, 60
1, 59528, Note_on_c, 0, 55, 64
1, 59569, Note_off_c, 0, 55, 65
1, 59611, Control_c, 0, 64, 94
1, 59626, Control_c, 0, 64, 88
1, 59641, Control_c, 0, 64, 75
1, 59656, Control_c, 0, 64, 22
1, 59671, Control_c, 0, 64, 0
1, 59718, Note_on_c, 0, 37, 66
1, 59722, Note_on_c, 0, 65, 74
1, 59723, Note_on_c, 0, 61, 74
1, 59744, Control_c, 0, 64, 62
1, 59757, Note_off_c, 0, 37, 68
1, 59761, Control_c, 0, 64, 73
1, 59764, Note_off_c, 0, 61, 59
1, 59775, Control_c, 0, 64, 83
1, 59790, Control_c, 0, 64, 94
1, 59805, Control_c, 0, 64, 97
1, 59806, Note_on_c, 0, 56, 71
1, 59812, Note_off_c, 0, 65, 56
1, 59820, Control_c, 0, 64, 100
1, 59820, Control_c, 0, 67, 122
1, 59834, Control_c, 0, 64, 102
1, 59834, Control_c, 0, 67, 105
1, 59849, Control_c, 0, 64, 105
1, 59849, Control_c, 0, 67, 84
1, 59862, Note_off_c, 0, 56, 62
1, 59864, Control_c, 0, 64, 109
1, 59864, Control_c, 0, 67, 66
1, 59879, Control_c, 0, 64, 113
1, 59879, Control_c, 0, 67, 51
1, 59894, Control_c, 0, 64, 116
1, 59894, Control_c, 0, 67, 40
1, 59903, Note_on_c, 0, 68, 78
1, 59908, Control_c, 0, 64, 117
1, 59908, Control_c, 0, 67, 34
1, 59916, Note_on_c, 0, 53, 61
1, 59917, Note_on_c, 0, 61, 67
1, 59918, Note_on_c, 0, 49, 70
1, 59923, Control_c, 0, 64, 117
1, 59923, Control_c, 0, 67, 30
1, 59938, Note_off_c, 0, 53, 64
1, 59938, Control_c, 0, 64, 118
1, 59938, Control_c, 0, 67, 26
1, 59953, Control_c, 0, 67, 23
1, 59956, Note_off_c, 0, 49, 61
1, 59967, Control_c, 0, 64, 118
1, 59967, Control_c, 0, 67, 21
1, 59982, Control_c, 0, 67, 17
1, 59989, Note_off_c, 0, 61, 37
1, 59991, Note_on_c, 0, 56, 70
1, 59997, Control_c, 0, 64, 119
1, 59997, Control_c, 0, 67, 13
1, 60000, Note_off_c, 0, 68, 61
1, 60012, Control_c, 0, 67, 10
1, 60026, Control_c, 0, 67, 8
1, 60041, Control_c, 0, 67, 0
1, 60053, Note_off_c, 0, 56, 58
1, 60091, Note_on_c, 0, 65, 66
1, 60094, Note_on_c, 0, 37, 60
1, 60104, Note_on_c, 0, 61, 60
1, 60130, Note_off_c, 0, 37, 66
1, 60156, Note_off_c, 0, 61, 54
1, 60173, Note_on_c, 0, 56, 68
1, 60174, Note_off_c, 0, 65, 58
1, 60237, Note_off_c, 0, 56, 59
1, 60256, Control_c, 0, 64, 114
1, 60271, Control_c, 0, 64, 100
1, 60286, Control_c, 0, 64, 82
1, 60291, Note_on_c, 0, 66, 74
1, 60300, Control_c, 0, 64, 54
1, 60306, Note_on_c, 0, 42, 48
1, 60315, Control_c, 0, 64, 0
1, 60390, Control_c, 0, 64, 49
1, 60405, Control_c, 0, 64, 68
1, 60414, Note_off_c, 0, 42, 57
1, 60420, Control_c, 0, 64, 76
1, 60434, Control_c, 0, 64, 85
1, 60449, Control_c, 0, 64, 92
1, 60464, Control_c, 0, 64, 96
1, 60479, Control_c, 0, 64, 97
1, 60494, Control_c, 0, 64, 99
1, 60508, Control_c, 0, 64, 101
1, 60519, Note_on_c, 0, 54, 67
1, 60523, Control_c, 0, 64, 103
1, 60524, Note_off_c, 0, 66, 63
1, 60531, Note_on_c, 0, 45, 58
1, 60533, Note_on_c, 0, 49, 50
1, 60538, Control_c, 0, 64, 104
1, 60554, Control_c, 0, 64, 105
1, 60560, Note_on_c, 0, 57, 56
1, 60560, Note_off_c, 0, 49, 55
1, 60563, Note_off_c, 0, 45, 65
1, 60563, Note_off_c, 0, 54, 57
1, 60598, Control_c, 0, 64, 106
1, 60618, Note_on_c, 0, 61, 66
1, 60621, Note_off_c, 0, 57, 62
1, 60658, Note_off_c, 0, 61, 54
1, 60693, Note_on_c, 0, 54, 72
1, 60743, Note_off_c, 0, 54, 59
1, 60790, Control_c, 0, 64, 105
1, 60805, Control_c, 0, 64, 102
1, 60820, Control_c, 0, 64, 94
1, 60835, Control_c, 0, 64, 79
1, 60849, Control_c, 0, 64, 0
1, 60914, Note_on_c, 0, 66, 88
1, 60920, Note_on_c, 0, 35, 94
1, 60974, Note_off_c, 0, 35, 65
1, 60975, Control_c, 0, 64, 65
1, 60990, Control_c, 0, 64, 74
1, 61005, Control_c, 0, 64, 85
1, 61020, Control_c, 0, 64, 96
1, 61035, Control_c, 0, 64, 102
1, 61049, Control_c, 0, 64, 104
1, 61064, Control_c, 0, 64, 106
1, 61079, Control_c, 0, 64, 108
1, 61094, Control_c, 0, 64, 111
1, 61109, Control_c, 0, 64, 115
1, 61123, Control_c, 0, 64, 118
1, 61139, Control_c, 0, 64, 121
1, 61141, Note_on_c, 0, 54, 81
1, 61146, Note_on_c, 0, 53, 91
1, 61150, Note_on_c, 0, 50, 78
1, 61153, Note_on_c, 0, 47, 78
1, 61154, Control_c, 0, 64, 123
1, 61168, Control_c, 0, 64, 124
1, 61183, Control_c, 0, 64, 125
1, 61185, Note_off_c, 0, 66, 64
1, 61197, Note_on_c, 0, 59, 65
1, 61210, Note_off_c, 0, 54, 60
1, 61238, Note_off_c, 0, 53, 62
1, 61243, Note_on_c, 0, 62, 72
1, 61257, Note_off_c, 0, 59, 63
1, 61267, Note_off_c, 0, 50, 62
1, 61283, Note_off_c, 0, 47, 63
1, 61323, Note_off_c, 0, 62, 57
1, 61335, Note_on_c, 0, 54, 76
1, 61362, Control_c, 0, 64, 124
1, 61381, Note_off_c, 0, 54, 53
1, 61392, Control_c, 0, 64, 122
1, 61392, Control_c, 0, 67, 8
1, 61406, Control_c, 0, 64, 118
1, 61406, Control_c, 0, 67, 18
1, 61421, Control_c, 0, 64, 109
1, 61421, Control_c, 0, 67, 41
1, 61436, Control_c, 0, 64, 98
1, 61436, Control_c, 0, 67, 78
1, 61451, Control_c, 0, 64, 82
1, 61451, Control_c, 0, 67, 123
1, 61466, Control_c, 0, 64, 64
1, 61466, Control_c, 0, 67, 127
1, 61481, Control_c, 0, 64, 0
1, 61566, Note_on_c, 0, 30, 63
1, 61572, Note_on_c, 0, 66, 71
1, 61636, Note_off_c, 0, 30, 63
1, 61636, Control_c, 0, 64, 36
1, 61651, Control_c, 0, 64, 66
1, 61666, Control_c, 0, 64, 71
1, 61681, Control_c, 0, 64, 76
1, 61695, Control_c, 0, 64, 81
1, 61710, Control_c, 0, 64, 86
1, 61725, Control_c, 0, 64, 88
1, 61740, Control_c, 0, 64, 91
1, 61755, Control_c, 0, 64, 93
1, 61770, Control_c, 0, 64, 95
1, 61785, Control_c, 0, 64, 97
1, 61799, Control_c, 0, 64, 98
1, 61800, Note_off_c, 0, 66, 63
1, 61803, Note_on_c, 0, 54, 64
1, 61812, Note_on_c, 0, 49, 60
1, 61814, Control_c, 0, 64, 98
1, 61820, Note_on_c, 0, 45, 53
1, 61855, Note_off_c, 0, 49, 58
1, 61856, Note_off_c, 0, 54, 60
1, 61858, Note_on_c, 0, 57, 59
1, 61859, Control_c, 0, 64, 99
1, 61898, Note_off_c, 0, 45, 63
1, 61904, Note_on_c, 0, 61, 65
1, 61910, Note_off_c, 0, 57, 60
1, 61973, Note_on_c, 0, 54, 63
1, 61975, Note_off_c, 0, 61, 57
1, 62004, Note_off_c, 0, 54, 63
1, 62051, Control_c, 0, 64, 98
1, 62080, Control_c, 0, 64, 95
1, 62095, Control_c, 0, 64, 86
1, 62110, Control_c, 0, 64, 71
1, 62125, Control_c, 0, 64, 0
1, 62159, Note_on_c, 0, 65, 60
1, 62164, Note_on_c, 0, 56, 66
1, 62174, Note_on_c, 0, 37, 60
1, 62199, Note_off_c, 0, 65, 64
1, 62211, Note_off_c, 0, 56, 62
1, 62228, Note_on_c, 0, 57, 66
1, 62229, Control_c, 0, 64, 63
1, 62244, Control_c, 0, 64, 70
1, 62252, Note_off_c, 0, 37, 60
1, 62259, Control_c, 0, 64, 75
1, 62274, Control_c, 0, 64, 79
1, 62289, Control_c, 0, 64, 80
1, 62289, Note_off_c, 0, 57, 60
1, 62296, Note_on_c, 0, 59, 64
1, 62318, Control_c, 0, 64, 80
1, 62333, Control_c, 0, 64, 81
1, 62348, Control_c, 0, 64, 81
1, 62350, Note_off_c, 0, 59, 59
1, 62353, Note_on_c, 0, 61, 64
1, 62363, Control_c, 0, 64, 82
1, 62377, Note_on_c, 0, 49, 63
1, 62385, Control_c, 0, 64, 82
1, 62393, Note_off_c, 0, 61, 64
1, 62400, Control_c, 0, 64, 83
1, 62406, Note_on_c, 0, 62, 65
1, 62420, Note_off_c, 0, 49, 53
1, 62480, Note_on_c, 0, 61, 68
1, 62480, Note_off_c, 0, 62, 60
1, 62529, Note_on_c, 0, 59, 66
1, 62530, Note_off_c, 0, 61, 63
1, 62557, Note_off_c, 0, 59, 64
1, 62582, Note_on_c, 0, 57, 61
1, 62619, Note_off_c, 0, 57, 58
1, 62636, Control_c, 0, 64, 82
1, 62651, Control_c, 0, 64, 81
1, 62652, Note_on_c, 0, 56, 66
1, 62666, Control_c, 0, 64, 77
1, 62681, Control_c, 0, 64, 66
1, 62682, Note_off_c, 0, 56, 65
1, 62695, Control_c, 0, 64, 0
1, 62721, Note_on_c, 0, 30, 67
1, 62737, Note_on_c, 0, 66, 69
1, 62757, Note_off_c, 0, 30, 65
1, 62784, Control_c, 0, 64, 61
1, 62799, Control_c, 0, 64, 73
1, 62814, Control_c, 0, 64, 84
1, 62828, Control_c, 0, 64, 93
1, 62843, Control_c, 0, 64, 96
1, 62858, Control_c, 0, 64, 97
1, 62858, Control_c, 0, 67, 127
1, 62873, Control_c, 0, 64, 98
1, 62873, Control_c, 0, 67, 108
1, 62888, Control_c, 0, 64, 99
1, 62888, Control_c, 0, 67, 91
1, 62903, Control_c, 0, 64, 101
1, 62903, Control_c, 0, 67, 74
1, 62918, Control_c, 0, 64, 104
1, 62918, Control_c, 0, 67, 58
1, 62933, Control_c, 0, 64, 106
1, 62933, Control_c, 0, 67, 43
1, 62948, Control_c, 0, 64, 107
1, 62948, Control_c, 0, 67, 31
1, 62963, Control_c, 0, 64, 107
1, 62963, Control_c, 0, 67, 23
1, 62967, Note_on_c, 0, 49, 54
1, 62977, Note_on_c, 0, 42, 50
1, 62978, Control_c, 0, 67, 18
1, 62980, Note_on_c, 0, 45, 50
1, 62981, Note_on_c, 0, 54, 68
1, 62987, Note_off_c, 0, 66, 64
1, 62992, Control_c, 0, 64, 108
1, 62992, Control_c, 0, 67, 16
1, 63004, Note_off_c, 0, 49, 62
1, 63007, Control_c, 0, 64, 109
1, 63007, Control_c, 0, 67, 14
1, 63022, Control_c, 0, 64, 109
1, 63022, Control_c, 0, 67, 10
1, 63024, Note_off_c, 0, 45, 61
1, 63024, Note_off_c, 0, 54, 61
1, 63029, Note_on_c, 0, 57, 57
1, 63036, Note_off_c, 0, 42, 58
1, 63037, Control_c, 0, 67, 0
1, 63074, Note_off_c, 0, 57, 61
1, 63085, Note_on_c, 0, 61, 60
1, 63129, Note_off_c, 0, 61, 60
1, 63158, Note_on_c, 0, 54, 73
1, 63210, Note_off_c, 0, 54, 59
1, 63266, Control_c, 0, 64, 107
1, 63281, Control_c, 0, 64, 99
1, 63296, Control_c, 0, 64, 84
1, 63311, Control_c, 0, 64, 62
1, 63326, Control_c, 0, 64, 0
1, 63363, Note_on_c, 0, 66, 89
1, 63364, Note_on_c, 0, 35, 91
1, 63415, Control_c, 0, 64, 66
1, 63418, Note_off_c, 0, 35, 64
1, 63430, Control_c, 0, 64, 79
1, 63444, Control_c, 0, 64, 92
1, 63459, Control_c, 0, 64, 100
1, 63474, Control_c, 0, 64, 102
1, 63489, Control_c, 0, 64, 103
1, 63504, Control_c, 0, 64, 104
1, 63518, Control_c, 0, 64, 105
1, 63533, Control_c, 0, 64, 107
1, 63548, Control_c, 0, 64, 109
1, 63563, Control_c, 0, 64, 111
1, 63577, Control_c, 0, 64, 112
1, 63592, Control_c, 0, 64, 113
1, 63593, Note_on_c, 0, 53, 86
1, 63594, Note_on_c, 0, 54, 73
1, 63597, Note_on_c, 0, 50, 77
1, 63606, Note_on_c, 0, 47, 76
1, 63607, Control_c, 0, 64, 114
1, 63637, Note_off_c, 0, 66, 64
1, 63645, Note_on_c, 0, 59, 66
1, 63665, Note_off_c, 0, 53, 64
1, 63666, Note_off_c, 0, 54, 61
1, 63690, Note_off_c, 0, 50, 63
1, 63702, Note_on_c, 0, 62, 67
1, 63708, Note_off_c, 0, 59, 62
1, 63709, Note_off_c, 0, 47, 61
1, 63774, Note_off_c, 0, 62, 57
1, 63791, Note_on_c, 0, 54, 73
1, 63834, Note_off_c, 0, 54, 55
1, 63845, Control_c, 0, 67, 10
1, 63867, Control_c, 0, 64, 112
1, 63867, Control_c, 0, 67, 20
1, 63882, Control_c, 0, 64, 106
1, 63882, Control_c, 0, 67, 44
1, 63897, Control_c, 0, 64, 95
1, 63897, Control_c, 0, 67, 92
1, 63912, Control_c, 0, 64, 76
1, 63912, Control_c, 0, 67, 127
1, 63927, Control_c, 0, 64, 0
1, 63991, Note_on_c, 0, 30, 66
1, 64004, Note_on_c, 0, 66, 73
1, 64035, Note_off_c, 0, 30, 63
1, 64045, Control_c, 0, 64, 40
1, 64060, Control_c, 0, 64, 66
1, 64074, Control_c, 0, 64, 71
1, 64089, Control_c, 0, 64, 77
1, 64104, Control_c, 0, 64, 82
1, 64119, Control_c, 0, 64, 84
1, 64135, Control_c, 0, 64, 86
1, 64149, Control_c, 0, 64, 87
1, 64164, Control_c, 0, 64, 88
1, 64179, Control_c, 0, 64, 89
1, 64193, Control_c, 0, 64, 89
1, 64208, Control_c, 0, 64, 90
1, 64223, Note_off_c, 0, 66, 52
1, 64225, Note_on_c, 0, 54, 64
1, 64228, Note_on_c, 0, 49, 61
1, 64235, Note_on_c, 0, 45, 54
1, 64253, Control_c, 0, 64, 90
1, 64267, Note_off_c, 0, 49, 61
1, 64275, Note_off_c, 0, 54, 60
1, 64278, Note_on_c, 0, 57, 59
1, 64297, Note_off_c, 0, 45, 60
1, 64326, Note_off_c, 0, 57, 58
1, 64328, Note_on_c, 0, 61, 61
1, 64393, Note_off_c, 0, 61, 42
1, 64397, Note_on_c, 0, 54, 65
1, 64438, Note_off_c, 0, 54, 59
1, 64519, Control_c, 0, 64, 88
1, 64534, Control_c, 0, 64, 81
1, 64551, Control_c, 0, 64, 68
1, 64565, Control_c, 0, 64, 0
1, 64566, Note_on_c, 0, 65, 62
1, 64578, Note_on_c, 0, 56, 61
1, 64581, Note_on_c, 0, 37, 52
1, 64605, Note_off_c, 0, 65, 61
1, 64629, Note_off_c, 0, 56, 62
1, 64657, Note_on_c, 0, 57, 56
1, 64661, Control_c, 0, 64, 57
1, 64676, Control_c, 0, 64, 70
1, 64691, Control_c, 0, 64, 75
1, 64700, Note_off_c, 0, 37, 56
1, 64706, Control_c, 0, 64, 80
1, 64714, Note_off_c, 0, 57, 53
1, 64721, Note_on_c, 0, 59, 62
1, 64721, Control_c, 0, 64, 82
1, 64736, Control_c, 0, 64, 83
1, 64751, Control_c, 0, 64, 84
1, 64765, Control_c, 0, 64, 85
1, 64768, Note_off_c, 0, 59, 59
1, 64776, Note_on_c, 0, 61, 65
1, 64780, Control_c, 0, 64, 86
1, 64784, Note_on_c, 0, 49, 58
1, 64795, Control_c, 0, 64, 87
1, 64810, Control_c, 0, 64, 88
1, 64816, Note_off_c, 0, 61, 61
1, 64819, Note_off_c, 0, 49, 62
1, 64824, Control_c, 0, 64, 88
1, 64829, Note_on_c, 0, 62, 64
1, 64898, Note_on_c, 0, 61, 66
1, 64899, Note_off_c, 0, 62, 60
1, 64949, Note_off_c, 0, 61, 61
1, 64951, Note_on_c, 0, 59, 62
1, 64979, Note_off_c, 0, 59, 62
1, 65001, Note_on_c, 0, 57, 64
1, 65036, Note_off_c, 0, 57, 59
1, 65080, Note_on_c, 0, 56, 67
1, 65109, Note_off_c, 0, 56, 65
1, 65121, Control_c, 0, 64, 85
1, 65135, Control_c, 0, 64, 76
1, 65150, Control_c, 0, 64, 37
1, 65165, Control_c, 0, 64, 0
1, 65165, Note_on_c, 0, 30, 54
1, 65177, Note_on_c, 0, 66, 66
1, 65217, Note_off_c, 0, 30, 62
1, 65254, Control_c, 0, 64, 58
1, 65269, Control_c, 0, 64, 70
1, 65284, Control_c, 0, 64, 78
1, 65298, Control_c, 0, 64, 86
1, 65313, Control_c, 0, 64, 92
1, 65328, Control_c, 0, 64, 95
1, 65344, Control_c, 0, 64, 97
1, 65359, Control_c, 0, 64, 99
1, 65380, Control_c, 0, 64, 102
1, 65395, Control_c, 0, 64, 106
1, 65410, Control_c, 0, 64, 109
1, 65422, Note_on_c, 0, 49, 48
1, 65425, Control_c, 0, 64, 112
1, 65438, Note_off_c, 0, 66, 62
1, 65439, Note_on_c, 0, 45, 43
1, 65440, Control_c, 0, 64, 115
1, 65445, Note_on_c, 0, 54, 52
1, 65451, Note_on_c, 0, 42, 35
1, 65454, Control_c, 0, 64, 116
1, 65469, Control_c, 0, 64, 117
1, 65482, Note_off_c, 0, 49, 57
1, 65494, Note_off_c, 0, 54, 62
1, 65496, Note_on_c, 0, 57, 59
1, 65499, Control_c, 0, 64, 117
1, 65511, Note_off_c, 0, 45, 56
1, 65523, Note_off_c, 0, 42, 54
1, 65529, Control_c, 0, 64, 118
1, 65529, Control_c, 0, 67, 126
1, 65537, Note_off_c, 0, 57, 61
1, 65544, Control_c, 0, 67, 108
1, 65544, Note_on_c, 0, 61, 61
1, 65559, Control_c, 0, 67, 88
1, 65573, Control_c, 0, 67, 69
1, 65580, Note_off_c, 0, 61, 62
1, 65588, Control_c, 0, 67, 51
1, 65603, Control_c, 0, 67, 36
1, 65611, Note_on_c, 0, 54, 69
1, 65618, Control_c, 0, 67, 21
1, 65633, Control_c, 0, 67, 8
1, 65639, Note_off_c, 0, 54, 65
1, 65647, Control_c, 0, 67, 0
1, 65677, Control_c, 0, 64, 118
1, 65751, Control_c, 0, 64, 118
1, 65765, Control_c, 0, 64, 117
1, 65780, Control_c, 0, 64, 110
1, 65795, Control_c, 0, 64, 96
1, 65810, Control_c, 0, 64, 77
1, 65825, Control_c, 0, 64, 0
1, 65878, Note_on_c, 0, 73, 83
1, 65893, Note_on_c, 0, 41, 73
1, 65943, Control_c, 0, 64, 60
1, 65958, Control_c, 0, 64, 72
1, 65973, Control_c, 0, 64, 84
1, 65980, Note_off_c, 0, 41, 64
1, 65988, Control_c, 0, 64, 100
1, 66003, Control_c, 0, 64, 111
1, 66018, Control_c, 0, 64, 114
1, 66033, Control_c, 0, 64, 116
1, 66047, Control_c, 0, 64, 119
1, 66062, Control_c, 0, 64, 124
1, 66077, Control_c, 0, 64, 127
1, 66148, Note_on_c, 0, 56, 71
1, 66154, Note_on_c, 0, 61, 68
1, 66155, Note_on_c, 0, 53, 65
1, 66167, Note_off_c, 0, 73, 59
1, 66187, Note_off_c, 0, 56, 59
1, 66204, Note_on_c, 0, 65, 65
1, 66216, Note_off_c, 0, 61, 62
1, 66218, Note_off_c, 0, 53, 64
1, 66252, Note_on_c, 0, 68, 67
1, 66253, Note_off_c, 0, 65, 64
1, 66310, Note_off_c, 0, 68, 60
1, 66338, Note_on_c, 0, 61, 70
1, 66392, Note_off_c, 0, 61, 59
1, 66530, Control_c, 0, 64, 112
1, 66538, Note_on_c, 0, 70, 83
1, 66544, Control_c, 0, 64, 90
1, 66545, Note_on_c, 0, 40, 83
1, 66559, Control_c, 0, 64, 66
1, 66574, Control_c, 0, 64, 0
1, 66633, Control_c, 0, 64, 65
1, 66648, Control_c, 0, 64, 76
1, 66653, Note_off_c, 0, 40, 63
1, 66662, Control_c, 0, 64, 90
1, 66677, Control_c, 0, 64, 105
1, 66692, Control_c, 0, 64, 111
1, 66706, Control_c, 0, 64, 114
1, 66721, Control_c, 0, 64, 116
1, 66736, Control_c, 0, 64, 119
1, 66751, Control_c, 0, 64, 122
1, 66766, Control_c, 0, 64, 123
1, 66781, Control_c, 0, 64, 125
1, 66791, Note_on_c, 0, 58, 63
1, 66793, Note_off_c, 0, 70, 58
1, 66796, Control_c, 0, 64, 126
1, 66798, Note_on_c, 0, 52, 56
1, 66802, Note_on_c, 0, 55, 52
1, 66811, Control_c, 0, 64, 127
1, 66827, Note_off_c, 0, 58, 62
1, 66829, Note_on_c, 0, 61, 65
1, 66836, Note_off_c, 0, 55, 63
1, 66854, Note_off_c, 0, 52, 57
1, 66892, Note_on_c, 0, 67, 67
1, 66895, Note_off_c, 0, 61, 61
1, 66954, Note_on_c, 0, 58, 67
1, 66978, Note_off_c, 0, 67, 60
1, 66981, Note_off_c, 0, 58, 65
1, 67086, Control_c, 0, 64, 122
1, 67100, Control_c, 0, 64, 106
1, 67115, Control_c, 0, 64, 88
1, 67130, Control_c, 0, 64, 68
1, 67145, Control_c, 0, 64, 0
1, 67162, Note_on_c, 0, 50, 64
1, 67167, Note_on_c, 0, 71, 67
1, 67189, Control_c, 0, 64, 63
1, 67204, Control_c, 0, 64, 71
1, 67219, Control_c, 0, 64, 79
1, 67234, Control_c, 0, 64, 87
1, 67243, Note_off_c, 0, 50, 62
1, 67249, Control_c, 0, 64, 93
1, 67251, Note_on_c, 0, 54, 51
1, 67252, Note_off_c, 0, 71, 60
1, 67256, Note_on_c, 0, 62, 57
1, 67259, Note_on_c, 0, 66, 64
1, 67262, Note_on_c, 0, 59, 37
1, 67264, Control_c, 0, 64, 96
1, 67279, Control_c, 0, 64, 98
1, 67285, Note_off_c, 0, 62, 55
1, 67291, Note_off_c, 0, 54, 59
1, 67293, Control_c, 0, 64, 101
1, 67294, Note_off_c, 0, 59, 50
1, 67294, Note_off_c, 0, 66, 64
1, 67308, Control_c, 0, 64, 104
1, 67323, Control_c, 0, 64, 107
1, 67336, Note_on_c, 0, 49, 66
1, 67337, Control_c, 0, 64, 108
1, 67342, Note_on_c, 0, 73, 78
1, 67352, Control_c, 0, 64, 109
1, 67367, Control_c, 0, 64, 110
1, 67382, Control_c, 0, 64, 111
1, 67397, Control_c, 0, 64, 112
1, 67400, Note_off_c, 0, 49, 60
1, 67417, Note_on_c, 0, 54, 46
1, 67420, Note_on_c, 0, 58, 57
1, 67422, Note_off_c, 0, 73, 62
1, 67424, Note_on_c, 0, 64, 58
1, 67426, Control_c, 0, 64, 113
1, 67428, Note_on_c, 0, 66, 62
1, 67440, Note_off_c, 0, 58, 64
1, 67441, Control_c, 0, 64, 113
1, 67452, Note_off_c, 0, 64, 65
1, 67465, Note_off_c, 0, 66, 64
1, 67472, Note_off_c, 0, 54, 54
1, 67485, Control_c, 0, 64, 114
1, 67511, Note_on_c, 0, 74, 73
1, 67531, Note_on_c, 0, 47, 44
1, 67566, Note_off_c, 0, 47, 52
1, 67575, Note_off_c, 0, 74, 62
1, 67582, Note_on_c, 0, 54, 59
1, 67596, Note_on_c, 0, 59, 33
1, 67600, Note_on_c, 0, 66, 61
1, 67601, Note_on_c, 0, 62, 64
1, 67620, Note_off_c, 0, 54, 64
1, 67634, Note_off_c, 0, 59, 52
1, 67647, Note_off_c, 0, 62, 57
1, 67648, Note_off_c, 0, 66, 52
1, 67700, Control_c, 0, 64, 109
1, 67715, Control_c, 0, 64, 94
1, 67728, Note_on_c, 0, 73, 75
1, 67730, Control_c, 0, 64, 69
1, 67743, Note_on_c, 0, 42, 59
1, 67746, Control_c, 0, 64, 0
1, 67814, Note_off_c, 0, 42, 64
1, 67820, Control_c, 0, 64, 65
1, 67835, Control_c, 0, 64, 83
1, 67849, Control_c, 0, 64, 102
1, 67864, Control_c, 0, 64, 118
1, 67879, Control_c, 0, 64, 122
1, 67894, Control_c, 0, 64, 126
1, 67909, Control_c, 0, 64, 127
1, 67970, Note_on_c, 0, 58, 57
1, 67977, Note_on_c, 0, 61, 67
1, 67979, Note_on_c, 0, 54, 48
1, 67988, Note_off_c, 0, 73, 61
1, 67993, Note_off_c, 0, 58, 60
1, 68022, Note_on_c, 0, 66, 68
1, 68022, Note_off_c, 0, 54, 56
1, 68029, Note_off_c, 0, 61, 61
1, 68072, Note_on_c, 0, 70, 67
1, 68072, Note_off_c, 0, 66, 65
1, 68113, Note_off_c, 0, 70, 59
1, 68140, Note_on_c, 0, 61, 78
1, 68166, Note_off_c, 0, 61, 65
1, 68338, Control_c, 0, 64, 104
1, 68353, Control_c, 0, 64, 79
1, 68370, Note_on_c, 0, 78, 92
1, 68373, Note_on_c, 0, 46, 81
1, 68375, Control_c, 0, 64, 0
1, 68449, Control_c, 0, 64, 59
1, 68464, Control_c, 0, 64, 76
1, 68471, Note_off_c, 0, 46, 63
1, 68479, Control_c, 0, 64, 96
1, 68494, Control_c, 0, 64, 127
1, 68619, Note_on_c, 0, 66, 77
1, 68622, Note_on_c, 0, 61, 65
1, 68632, Note_on_c, 0, 58, 62
1, 68636, Note_off_c, 0, 78, 63
1, 68650, Note_off_c, 0, 61, 65
1, 68668, Note_on_c, 0, 70, 64
1, 68677, Note_off_c, 0, 66, 65
1, 68680, Note_off_c, 0, 58, 59
1, 68720, Note_off_c, 0, 70, 62
1, 68721, Note_on_c, 0, 73, 63
1, 68757, Note_off_c, 0, 73, 58
1, 68790, Note_on_c, 0, 66, 75
1, 68853, Note_off_c, 0, 66, 60
1, 69014, Note_on_c, 0, 75, 90
1, 69021, Note_on_c, 0, 45, 80
1, 69028, Control_c, 0, 64, 120
1, 69043, Control_c, 0, 64, 91
1, 69058, Control_c, 0, 64, 67
1, 69072, Control_c, 0, 64, 0
1, 69139, Control_c, 0, 64, 69
1, 69154, Control_c, 0, 64, 82
1, 69157, Note_off_c, 0, 45, 64
1, 69169, Control_c, 0, 64, 104
1, 69183, Control_c, 0, 64, 123
1, 69198, Control_c, 0, 64, 127
1, 69285, Note_on_c, 0, 63, 71
1, 69298, Note_off_c, 0, 75, 62
1, 69303, Note_on_c, 0, 60, 58
1, 69303, Note_on_c, 0, 57, 56
1, 69335, Note_on_c, 0, 66, 60
1, 69338, Note_off_c, 0, 63, 60
1, 69340, Note_off_c, 0, 60, 63
1, 69347, Note_off_c, 0, 57, 55
1, 69383, Note_off_c, 0, 66, 62
1, 69384, Note_on_c, 0, 72, 68
1, 69454, Note_on_c, 0, 63, 70
1, 69463, Note_off_c, 0, 72, 62
1, 69486, Note_off_c, 0, 63, 66
1, 69613, Control_c, 0, 64, 106
1, 69628, Control_c, 0, 64, 84
1, 69639, Note_on_c, 0, 76, 73
1, 69642, Note_on_c, 0, 55, 67
1, 69643, Control_c, 0, 64, 52
1, 69658, Control_c, 0, 64, 0
1, 69687, Control_c, 0, 64, 66
1, 69702, Control_c, 0, 64, 77
1, 69717, Control_c, 0, 64, 89
1, 69732, Control_c, 0, 64, 99
1, 69735, Note_off_c, 0, 55, 63
1, 69736, Note_off_c, 0, 76, 64
1, 69739, Note_on_c, 0, 59, 56
1, 69741, Note_on_c, 0, 71, 58
1, 69742, Note_on_c, 0, 67, 61
1, 69747, Control_c, 0, 64, 104
1, 69751, Note_on_c, 0, 64, 33
1, 69762, Control_c, 0, 64, 108
1, 69775, Note_off_c, 0, 67, 65
1, 69777, Control_c, 0, 64, 111
1, 69781, Note_off_c, 0, 71, 60
1, 69783, Note_off_c, 0, 64, 46
1, 69787, Note_off_c, 0, 59, 57
1, 69792, Control_c, 0, 64, 115
1, 69806, Control_c, 0, 64, 119
1, 69821, Control_c, 0, 64, 122
1, 69832, Note_on_c, 0, 78, 81
1, 69834, Note_on_c, 0, 54, 61
1, 69836, Control_c, 0, 64, 123
1, 69851, Control_c, 0, 64, 123
1, 69873, Control_c, 0, 64, 124
1, 69887, Control_c, 0, 64, 126
1, 69902, Note_off_c, 0, 54, 54
1, 69902, Control_c, 0, 64, 127
1, 69917, Control_c, 0, 64, 127
1, 69919, Note_on_c, 0, 63, 56
1, 69924, Note_on_c, 0, 69, 64
1, 69932, Note_off_c, 0, 78, 61
1, 69934, Note_on_c, 0, 71, 56
1, 69935, Note_on_c, 0, 59, 39
1, 69938, Note_off_c, 0, 63, 63
1, 69965, Note_off_c, 0, 69, 60
1, 69974, Note_off_c, 0, 71, 58
1, 69979, Note_off_c, 0, 59, 56
1, 70021, Note_on_c, 0, 79, 78
1, 70023, Note_on_c, 0, 52, 58
1, 70054, Note_off_c, 0, 52, 63
1, 70091, Note_on_c, 0, 59, 46
1, 70091, Note_on_c, 0, 64, 59
1, 70099, Note_off_c, 0, 79, 59
1, 70107, Note_on_c, 0, 71, 60
1, 70111, Note_off_c, 0, 64, 64
1, 70114, Note_off_c, 0, 59, 59
1, 70114, Note_on_c, 0, 67, 60
1, 70196, Note_off_c, 0, 67, 56
1, 70223, Note_off_c, 0, 71, 35
1, 70228, Control_c, 0, 64, 111
1, 70242, Control_c, 0, 64, 91
1, 70249, Note_on_c, 0, 78, 73
1, 70255, Note_on_c, 0, 47, 60
1, 70257, Control_c, 0, 64, 68
1, 70272, Control_c, 0, 64, 0
1, 70272, Control_c, 0, 67, 25
1, 70287, Control_c, 0, 67, 60
1, 70301, Control_c, 0, 67, 112
1, 70316, Control_c, 0, 67, 127
1, 70331, Control_c, 0, 64, 63
1, 70346, Control_c, 0, 64, 74
1, 70354, Note_off_c, 0, 47, 65
1, 70361, Control_c, 0, 64, 86
1, 70376, Control_c, 0, 64, 96
1, 70391, Control_c, 0, 64, 101
1, 70406, Control_c, 0, 64, 103
1, 70421, Control_c, 0, 64, 105
1, 70435, Control_c, 0, 64, 107
1, 70450, Control_c, 0, 64, 109
1, 70465, Control_c, 0, 64, 110
1, 70480, Control_c, 0, 64, 111
1, 70495, Control_c, 0, 64, 111
1, 70503, Note_on_c, 0, 66, 67
1, 70509, Note_on_c, 0, 62, 54
1, 70509, Control_c, 0, 64, 112
1, 70515, Note_on_c, 0, 59, 45
1, 70518, Note_off_c, 0, 78, 62
1, 70541, Note_off_c, 0, 62, 60
1, 70555, Note_on_c, 0, 71, 56
1, 70561, Note_off_c, 0, 66, 63
1, 70571, Note_off_c, 0, 59, 59
1, 70616, Note_on_c, 0, 74, 63
1, 70617, Note_off_c, 0, 71, 60
1, 70655, Note_off_c, 0, 74, 57
1, 70688, Note_on_c, 0, 66, 70
1, 70742, Note_off_c, 0, 66, 46
1, 70857, Control_c, 0, 64, 110
1, 70873, Control_c, 0, 64, 100
1, 70887, Note_on_c, 0, 74, 69
1, 70887, Control_c, 0, 64, 80
1, 70901, Note_on_c, 0, 35, 62
1, 70902, Control_c, 0, 64, 52
1, 70917, Control_c, 0, 64, 0
1, 70942, Note_off_c, 0, 35, 64
1, 70963, Control_c, 0, 64, 60
1, 70969, Note_on_c, 0, 66, 64
1, 70971, Note_on_c, 0, 68, 70
1, 70975, Note_off_c, 0, 74, 61
1, 70978, Control_c, 0, 64, 71
1, 70981, Note_on_c, 0, 47, 57
1, 70992, Control_c, 0, 64, 82
1, 71007, Control_c, 0, 64, 92
1, 71017, Note_off_c, 0, 47, 65
1, 71022, Control_c, 0, 64, 97
1, 71026, Note_off_c, 0, 66, 61
1, 71037, Control_c, 0, 64, 99
1, 71052, Control_c, 0, 64, 101
1, 71066, Note_off_c, 0, 68, 61
1, 71066, Control_c, 0, 64, 104
1, 71067, Note_on_c, 0, 73, 75
1, 71072, Note_on_c, 0, 37, 72
1, 71081, Control_c, 0, 64, 106
1, 71096, Control_c, 0, 64, 108
1, 71111, Control_c, 0, 64, 108
1, 71126, Control_c, 0, 64, 109
1, 71127, Note_off_c, 0, 37, 62
1, 71140, Control_c, 0, 64, 110
1, 71144, Note_on_c, 0, 66, 71
1, 71155, Control_c, 0, 64, 111
1, 71156, Note_on_c, 0, 68, 69
1, 71157, Note_on_c, 0, 49, 68
1, 71162, Note_off_c, 0, 73, 61
1, 71170, Control_c, 0, 64, 112
1, 71184, Control_c, 0, 64, 113
1, 71193, Note_off_c, 0, 49, 61
1, 71205, Note_off_c, 0, 66, 64
1, 71223, Note_off_c, 0, 68, 61
1, 71229, Control_c, 0, 64, 113
1, 71252, Note_on_c, 0, 71, 75
1, 71256, Note_on_c, 0, 38, 67
1, 71258, Control_c, 0, 64, 114
1, 71309, Note_off_c, 0, 38, 62
1, 71325, Note_on_c, 0, 66, 74
1, 71333, Note_on_c, 0, 68, 73
1, 71338, Note_on_c, 0, 50, 67
1, 71365, Note_off_c, 0, 71, 51
1, 71381, Note_off_c, 0, 50, 64
1, 71403, Note_off_c, 0, 66, 56
1, 71416, Note_off_c, 0, 68, 57
1, 71429, Control_c, 0, 64, 111
1, 71444, Control_c, 0, 64, 98
1, 71459, Control_c, 0, 64, 74
1, 71461, Note_on_c, 0, 73, 81
1, 71470, Note_on_c, 0, 37, 68
1, 71473, Control_c, 0, 64, 0
1, 71532, Note_off_c, 0, 37, 65
1, 71562, Control_c, 0, 64, 50
1, 71577, Control_c, 0, 64, 70
1, 71592, Control_c, 0, 64, 81
1, 71607, Control_c, 0, 64, 94
1, 71622, Control_c, 0, 64, 101
1, 71637, Control_c, 0, 64, 103
1, 71652, Control_c, 0, 64, 104
1, 71666, Control_c, 0, 64, 105
1, 71681, Control_c, 0, 64, 107
1, 71696, Control_c, 0, 64, 109
1, 71710, Control_c, 0, 64, 112
1, 71725, Control_c, 0, 64, 112
1, 71733, Note_off_c, 0, 73, 61
1, 71735, Note_on_c, 0, 61, 62
1, 71736, Note_on_c, 0, 56, 52
1, 71737, Note_on_c, 0, 53, 52
1, 71741, Note_on_c, 0, 49, 45
1, 71774, Note_off_c, 0, 61, 57
1, 71777, Note_off_c, 0, 56, 59
1, 71780, Note_on_c, 0, 65, 51
1, 71805, Note_off_c, 0, 53, 64
1, 71827, Note_off_c, 0, 65, 65
1, 71829, Note_on_c, 0, 68, 67
1, 71835, Note_off_c, 0, 49, 61
1, 71861, Note_off_c, 0, 68, 63
1, 71908, Note_on_c, 0, 61, 55
1, 71941, Note_off_c, 0, 61, 62
1, 72022, Control_c, 0, 64, 109
1, 72037, Control_c, 0, 64, 96
1, 72052, Control_c, 0, 64, 78
1, 72067, Control_c, 0, 64, 25
1, 72081, Note_on_c, 0, 69, 69
1, 72081, Control_c, 0, 64, 0
1, 72087, Note_on_c, 0, 30, 52
1, 72144, Note_off_c, 0, 30, 61
1, 72148, Control_c, 0, 64, 47
1, 72163, Control_c, 0, 64, 69
1, 72175, Note_on_c, 0, 63, 57
1, 72178, Control_c, 0, 64, 78
1, 72183, Note_on_c, 0, 61, 50
1, 72185, Note_off_c, 0, 69, 58
1, 72185, Note_on_c, 0, 42, 58
1, 72193, Control_c, 0, 64, 87
1, 72207, Control_c, 0, 64, 92
1, 72222, Control_c, 0, 64, 93
1, 72227, Note_off_c, 0, 61, 59
1, 72230, Note_off_c, 0, 42, 64
1, 72237, Control_c, 0, 64, 94
1, 72243, Note_off_c, 0, 63, 56
1, 72252, Control_c, 0, 64, 95
1, 72267, Control_c, 0, 64, 96
1, 72269, Note_on_c, 0, 32, 63
1, 72272, Note_on_c, 0, 68, 68
1, 72281, Control_c, 0, 64, 96
1, 72296, Control_c, 0, 64, 97
1, 72314, Note_off_c, 0, 32, 62
1, 72326, Control_c, 0, 64, 97
1, 72353, Note_on_c, 0, 61, 59
1, 72359, Note_on_c, 0, 44, 56
1, 72359, Note_off_c, 0, 68, 61
1, 72361, Note_on_c, 0, 63, 65
1, 72391, Note_off_c, 0, 44, 63
1, 72391, Note_off_c, 0, 61, 56
1, 72409, Note_off_c, 0, 63, 56
1, 72451, Note_on_c, 0, 66, 66
1, 72468, Note_on_c, 0, 33, 57
1, 72513, Note_off_c, 0, 33, 62
1, 72535, Note_on_c, 0, 63, 61
1, 72542, Note_on_c, 0, 61, 53
1, 72544, Note_off_c, 0, 66, 59
1, 72545, Note_on_c, 0, 45, 54
1, 72573, Note_off_c, 0, 45, 64
1, 72605, Note_off_c, 0, 61, 54
1, 72646, Note_off_c, 0, 63, 46
1, 72653, Control_c, 0, 64, 94
1, 72668, Control_c, 0, 64, 84
1, 72683, Note_on_c, 0, 68, 71
1, 72683, Control_c, 0, 64, 66
1, 72689, Note_on_c, 0, 32, 57
1, 72698, Control_c, 0, 64, 0
1, 72752, Note_off_c, 0, 32, 63
1, 72786, Control_c, 0, 64, 62
1, 72801, Control_c, 0, 64, 73
1, 72816, Control_c, 0, 64, 81
1, 72830, Control_c, 0, 64, 88
1, 72845, Control_c, 0, 64, 90
1, 72868, Control_c, 0, 64, 91
1, 72883, Control_c, 0, 64, 92
1, 72898, Control_c, 0, 64, 94
1, 72912, Control_c, 0, 64, 96
1, 72927, Control_c, 0, 64, 98
1, 72942, Control_c, 0, 64, 98
1, 72948, Note_on_c, 0, 48, 50
1, 72954, Note_on_c, 0, 51, 51
1, 72954, Note_on_c, 0, 56, 65
1, 72957, Note_off_c, 0, 68, 62
1, 72978, Note_on_c, 0, 44, 37
1, 72996, Note_off_c, 0, 56, 58
1, 72996, Note_on_c, 0, 60, 59
1, 73001, Control_c, 0, 64, 99
1, 73015, Note_off_c, 0, 51, 55
1, 73047, Note_off_c, 0, 48, 63
1, 73052, Note_on_c, 0, 63, 65
1, 73056, Note_off_c, 0, 60, 60
1, 73068, Note_off_c, 0, 44, 54
1, 73091, Note_off_c, 0, 63, 62
1, 73122, Note_on_c, 0, 56, 60
1, 73155, Note_off_c, 0, 56, 65
1, 73222, Control_c, 0, 64, 98
1, 73237, Control_c, 0, 64, 97
1, 73252, Control_c, 0, 64, 90
1, 73252, Control_c, 0, 67, 127
1, 73267, Control_c, 0, 64, 78
1, 73267, Control_c, 0, 67, 100
1, 73281, Control_c, 0, 64, 41
1, 73281, Control_c, 0, 67, 65
1, 73296, Control_c, 0, 64, 0
1, 73296, Control_c, 0, 67, 26
1, 73311, Control_c, 0, 67, 0
1, 73351, Note_on_c, 0, 37, 47
1, 73351, Note_on_c, 0, 65, 70
1, 73386, Control_c, 0, 64, 35
1, 73401, Control_c, 0, 64, 66
1, 73416, Control_c, 0, 64, 74
1, 73431, Control_c, 0, 64, 82
1, 73446, Control_c, 0, 64, 87
1, 73460, Control_c, 0, 64, 89
1, 73475, Control_c, 0, 64, 90
1, 73490, Control_c, 0, 64, 91
1, 73505, Control_c, 0, 64, 91
1, 73520, Control_c, 0, 64, 92
1, 73534, Control_c, 0, 64, 92
1, 73559, Note_off_c, 0, 37, 40
1, 73578, Control_c, 0, 64, 93
1, 73593, Note_on_c, 0, 53, 56
1, 73608, Note_on_c, 0, 49, 47
1, 73636, Note_off_c, 0, 49, 55
1, 73648, Note_off_c, 0, 53, 64
1, 73654, Note_on_c, 0, 56, 64
1, 73689, Note_on_c, 0, 61, 59
1, 73698, Note_off_c, 0, 56, 58
1, 73701, Note_off_c, 0, 65, 36
1, 73764, Note_on_c, 0, 53, 63
1, 73774, Note_off_c, 0, 61, 59
1, 73801, Note_off_c, 0, 53, 63
1, 73957, Control_c, 0, 64, 89
1, 73972, Control_c, 0, 64, 79
1, 73986, Control_c, 0, 64, 64
1, 73998, Note_on_c, 0, 66, 64
1, 74001, Control_c, 0, 64, 0
1, 74003, Note_on_c, 0, 33, 40
1, 74090, Control_c, 0, 64, 65
1, 74105, Control_c, 0, 64, 71
1, 74121, Control_c, 0, 64, 77
1, 74136, Control_c, 0, 64, 81
1, 74150, Control_c, 0, 64, 82
1, 74165, Control_c, 0, 64, 83
1, 74180, Control_c, 0, 64, 83
1, 74196, Note_off_c, 0, 33, 45
1, 74217, Note_on_c, 0, 54, 57
1, 74218, Note_on_c, 0, 45, 51
1, 74221, Note_off_c, 0, 66, 64
1, 74239, Control_c, 0, 64, 84
1, 74256, Note_off_c, 0, 45, 62
1, 74263, Note_off_c, 0, 54, 60
1, 74270, Note_on_c, 0, 57, 57
1, 74324, Note_off_c, 0, 57, 60
1, 74328, Note_on_c, 0, 61, 64
1, 74375, Note_off_c, 0, 61, 62
1, 74403, Note_on_c, 0, 54, 63
1, 74439, Control_c, 0, 64, 82
1, 74443, Note_off_c, 0, 54, 57
1, 74454, Control_c, 0, 64, 77
1, 74469, Control_c, 0, 64, 67
1, 74484, Control_c, 0, 64, 0
1, 74580, Note_on_c, 0, 59, 84
1, 74582, Note_on_c, 0, 35, 75
1, 74590, Note_on_c, 0, 55, 76
1, 74632, Control_c, 0, 64, 45
1, 74647, Control_c, 0, 64, 59
1, 74651, Note_off_c, 0, 35, 63
1, 74653, Note_on_c, 0, 47, 77
1, 74661, Note_off_c, 0, 55, 60
1, 74662, Control_c, 0, 64, 61
1, 74668, Note_on_c, 0, 62, 75
1, 74676, Control_c, 0, 64, 60
1, 74677, Note_off_c, 0, 59, 56
1, 74698, Poly_aftertouch_c, 0, 36, 0
1, 74715, Note_off_c, 0, 47, 64
1, 74721, Control_c, 0, 64, 61
1, 74722, Note_off_c, 0, 62, 60
1, 74735, Control_c, 0, 64, 62
1, 74763, Note_on_c, 0, 57, 64
1, 74764, Note_on_c, 0, 37, 76
1, 74764, Note_on_c, 0, 54, 76
1, 74765, Control_c, 0, 64, 61
1, 74795, Control_c, 0, 64, 61
1, 74829, Note_off_c, 0, 54, 54
1, 74831, Note_on_c, 0, 61, 79
1, 74836, Note_off_c, 0, 57, 63
1, 74843, Note_off_c, 0, 37, 58
1, 74852, Note_on_c, 0, 49, 79
1, 74904, Note_off_c, 0, 49, 60
1, 74904, Note_off_c, 0, 61, 56
1, 74913, Control_c, 0, 64, 61
1, 74940, Note_on_c, 0, 56, 77
1, 74943, Note_on_c, 0, 37, 74
1, 74955, Note_on_c, 0, 53, 54
1, 74978, Note_off_c, 0, 53, 62
1, 74988, Control_c, 0, 64, 62
1, 75003, Control_c, 0, 64, 61
1, 75005, Note_off_c, 0, 56, 61
1, 75011, Note_on_c, 0, 49, 76
1, 75019, Note_on_c, 0, 61, 80
1, 75019, Note_off_c, 0, 37, 65
1, 75077, Control_c, 0, 64, 59
1, 75088, Note_off_c, 0, 49, 60
1, 75092, Control_c, 0, 64, 11
1, 75114, Control_c, 0, 64, 0
1, 75125, Note_off_c, 0, 61, 50
1, 75126, Note_on_c, 0, 54, 75
1, 75130, Note_on_c, 0, 42, 82
1, 75172, Note_off_c, 0, 54, 60
1, 75188, Control_c, 0, 64, 67
1, 75199, Note_on_c, 0, 50, 61
1, 75203, Control_c, 0, 64, 76
1, 75218, Control_c, 0, 64, 82
1, 75229, Note_off_c, 0, 50, 65
1, 75232, Control_c, 0, 64, 83
1, 75259, Note_off_c, 0, 42, 63
1, 75315, Note_on_c, 0, 50, 43
1, 75343, Note_on_c, 0, 47, 77
1, 75344, Note_off_c, 0, 50, 59
1, 75375, Note_off_c, 0, 47, 66
1, 75396, Note_on_c, 0, 45, 72
1, 75438, Note_off_c, 0, 45, 63
1, 75440, Control_c, 0, 64, 82
1, 75455, Control_c, 0, 64, 82
1, 75470, Control_c, 0, 64, 80
1, 75470, Note_on_c, 0, 44, 82
1, 75485, Control_c, 0, 64, 76
1, 75499, Control_c, 0, 64, 70
1, 75514, Control_c, 0, 64, 54
1, 75529, Control_c, 0, 64, 0
1, 75544, Note_on_c, 0, 42, 84
1, 75549, Note_off_c, 0, 44, 65
1, 75566, Note_on_c, 0, 43, 78
1, 75626, Note_off_c, 0, 43, 60
1, 75628, Note_off_c, 0, 42, 60
1, 76025, Note_on_c, 0, 71, 59
1, 76034, Note_on_c, 0, 35, 54
1, 76055, Control_c, 0, 64, 42
1, 76070, Control_c, 0, 64, 69
1, 76076, Note_off_c, 0, 35, 64
1, 76085, Control_c, 0, 64, 80
1, 76099, Control_c, 0, 64, 91
1, 76114, Control_c, 0, 64, 100
1, 76129, Control_c, 0, 64, 107
1, 76144, Control_c, 0, 64, 115
1, 76159, Control_c, 0, 64, 121
1, 76174, Control_c, 0, 64, 127
1, 76284, Note_on_c, 0, 54, 53
1, 76285, Note_on_c, 0, 59, 57
1, 76296, Note_on_c, 0, 47, 46
1, 76318, Note_on_c, 0, 50, 38
1, 76319, Note_off_c, 0, 54, 63
1, 76325, Note_off_c, 0, 59, 55
1, 76347, Note_on_c, 0, 62, 56
1, 76351, Note_off_c, 0, 50, 52
1, 76353, Note_off_c, 0, 47, 61
1, 76382, Note_off_c, 0, 62, 62
1, 76385, Note_on_c, 0, 66, 63
1, 76426, Note_off_c, 0, 66, 61
1, 76457, Note_on_c, 0, 59, 62
1, 76502, Note_off_c, 0, 59, 53
1, 76561, Note_off_c, 0, 71, 42
1, 76657, Control_c, 0, 64, 106
1, 76672, Control_c, 0, 64, 84
1, 76686, Control_c, 0, 64, 61
1, 76697, Note_on_c, 0, 35, 65
1, 76701, Control_c, 0, 64, 0
1, 76705, Note_on_c, 0, 71, 68
1, 76745, Control_c, 0, 64, 66
1, 76750, Note_off_c, 0, 35, 63
1, 76760, Control_c, 0, 64, 78
1, 76775, Control_c, 0, 64, 90
1, 76790, Control_c, 0, 64, 100
1, 76804, Control_c, 0, 64, 104
1, 76819, Control_c, 0, 64, 107
1, 76834, Control_c, 0, 64, 110
1, 76849, Control_c, 0, 64, 114
1, 76864, Control_c, 0, 64, 119
1, 76878, Control_c, 0, 64, 122
1, 76893, Control_c, 0, 64, 123
1, 76908, Control_c, 0, 64, 124
1, 76922, Control_c, 0, 64, 125
1, 76937, Control_c, 0, 64, 125
1, 76952, Note_on_c, 0, 59, 55
1, 76953, Note_on_c, 0, 55, 39
1, 76955, Note_on_c, 0, 47, 48
1, 76957, Note_on_c, 0, 52, 40
1, 76967, Control_c, 0, 64, 126
1, 76988, Note_on_c, 0, 49, 33
1, 76991, Note_off_c, 0, 59, 59
1, 76992, Note_on_c, 0, 61, 69
1, 76999, Note_off_c, 0, 71, 34
1, 77016, Note_off_c, 0, 47, 58
1, 77045, Note_on_c, 0, 67, 62
1, 77045, Note_off_c, 0, 49, 54
1, 77045, Note_off_c, 0, 61, 61
1, 77050, Note_off_c, 0, 52, 58
1, 77052, Note_off_c, 0, 55, 43
1, 77119, Note_off_c, 0, 67, 52
1, 77121, Note_on_c, 0, 59, 56
1, 77148, Note_off_c, 0, 59, 59
1, 77249, Control_c, 0, 64, 125
1, 77264, Control_c, 0, 64, 118
1, 77278, Control_c, 0, 64, 102
1, 77293, Control_c, 0, 64, 81
1, 77305, Note_on_c, 0, 71, 65
1, 77308, Control_c, 0, 64, 63
1, 77321, Note_on_c, 0, 50, 52
1, 77324, Control_c, 0, 64, 0
1, 77339, Control_c, 0, 64, 40
1, 77360, Control_c, 0, 64, 67
1, 77375, Control_c, 0, 64, 75
1, 77390, Control_c, 0, 64, 85
1, 77396, Note_on_c, 0, 59, 44
1, 77399, Note_off_c, 0, 50, 59
1, 77402, Note_off_c, 0, 71, 60
1, 77405, Note_on_c, 0, 62, 60
1, 77405, Control_c, 0, 64, 93
1, 77406, Note_on_c, 0, 66, 63
1, 77410, Note_on_c, 0, 54, 47
1, 77420, Control_c, 0, 64, 97
1, 77427, Note_off_c, 0, 59, 52
1, 77435, Control_c, 0, 64, 100
1, 77441, Note_off_c, 0, 62, 63
1, 77449, Note_off_c, 0, 54, 60
1, 77450, Control_c, 0, 64, 103
1, 77456, Note_off_c, 0, 66, 60
1, 77464, Control_c, 0, 64, 106
1, 77479, Control_c, 0, 64, 109
1, 77494, Control_c, 0, 64, 111
1, 77500, Note_on_c, 0, 73, 72
1, 77501, Note_on_c, 0, 49, 64
1, 77509, Control_c, 0, 64, 112
1, 77524, Control_c, 0, 64, 113
1, 77539, Control_c, 0, 64, 114
1, 77545, Note_off_c, 0, 49, 60
1, 77553, Control_c, 0, 64, 115
1, 77568, Control_c, 0, 64, 115
1, 77573, Note_on_c, 0, 54, 46
1, 77578, Note_on_c, 0, 58, 60
1, 77581, Note_on_c, 0, 66, 63
1, 77582, Note_off_c, 0, 73, 61
1, 77583, Control_c, 0, 64, 116
1, 77584, Note_on_c, 0, 64, 55
1, 77606, Note_off_c, 0, 64, 63
1, 77607, Note_off_c, 0, 58, 65
1, 77613, Note_off_c, 0, 66, 63
1, 77634, Note_off_c, 0, 54, 57
1, 77672, Note_on_c, 0, 74, 71
1, 77681, Note_on_c, 0, 47, 56
1, 77712, Note_off_c, 0, 47, 59
1, 77736, Note_off_c, 0, 74, 60
1, 77747, Note_on_c, 0, 54, 61
1, 77748, Note_on_c, 0, 59, 55
1, 77753, Note_on_c, 0, 62, 62
1, 77755, Note_on_c, 0, 66, 62
1, 77774, Note_off_c, 0, 59, 54
1, 77777, Note_off_c, 0, 54, 64
1, 77796, Note_off_c, 0, 62, 57
1, 77806, Note_off_c, 0, 66, 54
1, 77819, Control_c, 0, 64, 115
1, 77834, Control_c, 0, 64, 109
1, 77849, Control_c, 0, 64, 95
1, 77864, Control_c, 0, 64, 77
1, 77879, Control_c, 0, 64, 0
1, 77885, Note_on_c, 0, 73, 75
1, 77891, Note_on_c, 0, 42, 66
1, 77975, Note_off_c, 0, 42, 63
1, 77983, Control_c, 0, 64, 65
1, 77998, Control_c, 0, 64, 76
1, 78013, Control_c, 0, 64, 88
1, 78027, Control_c, 0, 64, 102
1, 78042, Control_c, 0, 64, 110
1, 78057, Control_c, 0, 64, 115
1, 78071, Control_c, 0, 64, 120
1, 78086, Control_c, 0, 64, 125
1, 78108, Control_c, 0, 64, 127
1, 78144, Note_on_c, 0, 58, 51
1, 78150, Note_on_c, 0, 54, 52
1, 78153, Note_on_c, 0, 61, 62
1, 78165, Note_off_c, 0, 73, 62
1, 78167, Note_off_c, 0, 58, 60
1, 78194, Note_off_c, 0, 54, 59
1, 78195, Note_on_c, 0, 66, 65
1, 78204, Note_off_c, 0, 61, 58
1, 78242, Note_on_c, 0, 70, 70
1, 78245, Note_off_c, 0, 66, 64
1, 78287, Note_off_c, 0, 70, 58
1, 78317, Note_on_c, 0, 61, 72
1, 78338, Note_off_c, 0, 61, 67
1, 78509, Control_c, 0, 64, 103
1, 78524, Control_c, 0, 64, 81
1, 78530, Note_on_c, 0, 78, 90
1, 78532, Note_on_c, 0, 42, 72
1, 78539, Control_c, 0, 64, 0
1, 78598, Control_c, 0, 64, 61
1, 78602, Note_off_c, 0, 42, 64
1, 78613, Control_c, 0, 64, 76
1, 78628, Control_c, 0, 64, 91
1, 78642, Control_c, 0, 64, 113
1, 78657, Control_c, 0, 64, 121
1, 78672, Control_c, 0, 64, 123
1, 78687, Control_c, 0, 64, 127
1, 78783, Note_on_c, 0, 61, 57
1, 78786, Note_on_c, 0, 66, 68
1, 78791, Note_on_c, 0, 54, 46
1, 78792, Note_on_c, 0, 58, 52
1, 78801, Note_off_c, 0, 78, 63
1, 78810, Note_off_c, 0, 61, 60
1, 78816, Note_on_c, 0, 70, 58
1, 78843, Note_off_c, 0, 58, 60
1, 78858, Note_off_c, 0, 66, 62
1, 78865, Note_off_c, 0, 54, 53
1, 78880, Note_on_c, 0, 73, 66
1, 78884, Note_off_c, 0, 70, 63
1, 78930, Note_off_c, 0, 73, 58
1, 78965, Note_on_c, 0, 66, 63
1, 79009, Note_off_c, 0, 66, 65
1, 79197, Note_on_c, 0, 74, 74
1, 79199, Control_c, 0, 64, 121
1, 79214, Control_c, 0, 64, 96
1, 79214, Note_on_c, 0, 47, 58
1, 79229, Control_c, 0, 64, 77
1, 79244, Control_c, 0, 64, 22
1, 79259, Control_c, 0, 64, 0
1, 79317, Control_c, 0, 64, 41
1, 79332, Control_c, 0, 64, 69
1, 79347, Control_c, 0, 64, 79
1, 79362, Control_c, 0, 64, 89
1, 79377, Control_c, 0, 64, 95
1, 79391, Control_c, 0, 64, 98
1, 79406, Control_c, 0, 64, 102
1, 79421, Control_c, 0, 64, 106
1, 79425, Note_off_c, 0, 74, 59
1, 79426, Note_off_c, 0, 47, 35
1, 79430, Note_on_c, 0, 62, 59
1, 79435, Note_on_c, 0, 54, 48
1, 79436, Control_c, 0, 64, 109
1, 79440, Note_on_c, 0, 59, 45
1, 79451, Control_c, 0, 64, 112
1, 79465, Control_c, 0, 64, 115
1, 79468, Note_off_c, 0, 59, 54
1, 79471, Note_off_c, 0, 62, 60
1, 79474, Note_on_c, 0, 66, 62
1, 79480, Control_c, 0, 64, 116
1, 79491, Note_off_c, 0, 54, 54
1, 79495, Control_c, 0, 64, 116
1, 79510, Control_c, 0, 64, 117
1, 79519, Note_off_c, 0, 66, 63
1, 79521, Note_on_c, 0, 71, 60
1, 79554, Control_c, 0, 64, 117
1, 79560, Note_off_c, 0, 71, 59
1, 79585, Note_on_c, 0, 62, 69
1, 79623, Note_off_c, 0, 62, 63
1, 79740, Control_c, 0, 64, 117
1, 79755, Control_c, 0, 64, 107
1, 79770, Control_c, 0, 64, 91
1, 79785, Control_c, 0, 64, 71
1, 79797, Note_on_c, 0, 73, 75
1, 79800, Control_c, 0, 64, 0
1, 79813, Note_on_c, 0, 43, 55
1, 79813, Note_on_c, 0, 71, 63
1, 79844, Control_c, 0, 64, 50
1, 79859, Control_c, 0, 64, 69
1, 79874, Control_c, 0, 64, 79
1, 79878, Note_off_c, 0, 43, 59
1, 79888, Note_on_c, 0, 64, 78
1, 79889, Control_c, 0, 64, 94
1, 79897, Note_on_c, 0, 55, 50
1, 79903, Control_c, 0, 64, 101
1, 79908, Note_off_c, 0, 73, 62
1, 79909, Note_off_c, 0, 71, 48
1, 79918, Control_c, 0, 64, 104
1, 79921, Note_off_c, 0, 55, 61
1, 79933, Control_c, 0, 64, 106
1, 79935, Note_off_c, 0, 64, 61
1, 79948, Control_c, 0, 64, 110
1, 79962, Control_c, 0, 64, 115
1, 79977, Control_c, 0, 64, 122
1, 79980, Note_on_c, 0, 76, 78
1, 79991, Note_on_c, 0, 71, 67
1, 79992, Note_on_c, 0, 40, 71
1, 79992, Control_c, 0, 64, 127
1, 80021, Note_off_c, 0, 40, 63
1, 80058, Note_off_c, 0, 76, 54
1, 80063, Note_on_c, 0, 52, 68
1, 80065, Note_on_c, 0, 64, 71
1, 80067, Note_off_c, 0, 71, 59
1, 80094, Note_off_c, 0, 52, 66
1, 80114, Note_off_c, 0, 64, 60
1, 80163, Note_on_c, 0, 73, 72
1, 80168, Note_on_c, 0, 43, 73
1, 80174, Note_on_c, 0, 71, 68
1, 80211, Note_off_c, 0, 43, 63
1, 80225, Note_off_c, 0, 71, 59
1, 80228, Note_off_c, 0, 73, 58
1, 80240, Note_on_c, 0, 64, 72
1, 80254, Note_on_c, 0, 55, 56
1, 80278, Note_off_c, 0, 55, 63
1, 80306, Note_off_c, 0, 64, 61
1, 80318, Control_c, 0, 67, 10
1, 80333, Control_c, 0, 67, 23
1, 80355, Control_c, 0, 64, 119
1, 80355, Control_c, 0, 67, 52
1, 80370, Control_c, 0, 64, 98
1, 80370, Control_c, 0, 67, 99
1, 80382, Note_on_c, 0, 74, 75
1, 80385, Control_c, 0, 64, 80
1, 80385, Control_c, 0, 67, 127
1, 80400, Control_c, 0, 64, 34
1, 80403, Note_on_c, 0, 47, 59
1, 80415, Control_c, 0, 64, 0
1, 80488, Control_c, 0, 64, 33
1, 80503, Control_c, 0, 64, 69
1, 80519, Control_c, 0, 64, 78
1, 80534, Control_c, 0, 64, 88
1, 80549, Control_c, 0, 64, 94
1, 80563, Control_c, 0, 64, 97
1, 80578, Control_c, 0, 64, 99
1, 80593, Control_c, 0, 64, 101
1, 80609, Control_c, 0, 64, 103
1, 80624, Control_c, 0, 64, 106
1, 80636, Note_off_c, 0, 47, 34
1, 80636, Note_off_c, 0, 74, 41
1, 80639, Note_on_c, 0, 62, 64
1, 80639, Control_c, 0, 64, 108
1, 80647, Note_on_c, 0, 59, 54
1, 80648, Note_on_c, 0, 54, 52
1, 80653, Control_c, 0, 64, 110
1, 80668, Control_c, 0, 64, 110
1, 80675, Note_off_c, 0, 59, 53
1, 80683, Control_c, 0, 64, 111
1, 80699, Note_on_c, 0, 66, 68
1, 80700, Note_off_c, 0, 62, 60
1, 80710, Note_off_c, 0, 54, 55
1, 80743, Note_on_c, 0, 71, 60
1, 80744, Note_off_c, 0, 66, 63
1, 80786, Note_off_c, 0, 71, 60
1, 80801, Control_c, 0, 64, 109
1, 80816, Note_on_c, 0, 62, 76
1, 80816, Control_c, 0, 64, 104
1, 80831, Control_c, 0, 64, 94
1, 80845, Control_c, 0, 64, 79
1, 80853, Note_off_c, 0, 62, 62
1, 80860, Control_c, 0, 64, 64
1, 80860, Control_c, 0, 67, 110
1, 80875, Control_c, 0, 64, 0
1, 80875, Control_c, 0, 67, 90
1, 80889, Control_c, 0, 67, 70
1, 80904, Control_c, 0, 67, 54
1, 80919, Control_c, 0, 67, 39
1, 80934, Control_c, 0, 67, 25
1, 80949, Control_c, 0, 67, 10
1, 80964, Control_c, 0, 67, 0
1, 81038, Control_c, 0, 64, 11
1, 81040, Note_on_c, 0, 76, 94
1, 81045, Note_on_c, 0, 40, 91
1, 81053, Control_c, 0, 64, 70
1, 81068, Control_c, 0, 64, 86
1, 81083, Control_c, 0, 64, 109
1, 81104, Control_c, 0, 64, 127
1, 81109, Note_off_c, 0, 40, 64
1, 81295, Note_on_c, 0, 59, 83
1, 81295, Note_on_c, 0, 64, 74
1, 81301, Note_on_c, 0, 55, 71
1, 81307, Note_on_c, 0, 52, 71
1, 81364, Note_on_c, 0, 67, 75
1, 81371, Note_off_c, 0, 64, 62
1, 81375, Note_off_c, 0, 59, 59
1, 81384, Note_off_c, 0, 76, 48
1, 81405, Note_off_c, 0, 55, 64
1, 81410, Note_on_c, 0, 71, 67
1, 81417, Note_off_c, 0, 67, 62
1, 81417, Note_off_c, 0, 52, 63
1, 81471, Note_off_c, 0, 71, 59
1, 81495, Note_on_c, 0, 64, 82
1, 81557, Note_off_c, 0, 64, 61
1, 81682, Control_c, 0, 64, 102
1, 81697, Control_c, 0, 64, 76
1, 81712, Control_c, 0, 64, 0
1, 81715, Note_on_c, 0, 76, 89
1, 81717, Note_on_c, 0, 40, 87
1, 81772, Control_c, 0, 64, 32
1, 81786, Control_c, 0, 64, 70
1, 81788, Note_off_c, 0, 40, 64
1, 81801, Control_c, 0, 64, 84
1, 81816, Control_c, 0, 64, 99
1, 81831, Control_c, 0, 64, 108
1, 81853, Control_c, 0, 64, 112
1, 81867, Control_c, 0, 64, 115
1, 81882, Control_c, 0, 64, 120
1, 81897, Control_c, 0, 64, 127
1, 81967, Note_on_c, 0, 64, 68
1, 81973, Note_on_c, 0, 52, 60
1, 81975, Note_on_c, 0, 57, 56
1, 81978, Note_on_c, 0, 60, 50
1, 81989, Note_on_c, 0, 54, 53
1, 82013, Note_on_c, 0, 66, 76
1, 82014, Note_on_c, 0, 59, 20
1, 82025, Note_off_c, 0, 76, 48
1, 82027, Note_off_c, 0, 64, 61
1, 82055, Note_off_c, 0, 59, 50
1, 82058, Note_on_c, 0, 72, 67
1, 82069, Note_off_c, 0, 66, 65
1, 82070, Note_off_c, 0, 52, 60
1, 82076, Note_off_c, 0, 60, 49
1, 82084, Note_off_c, 0, 57, 60
1, 82085, Note_off_c, 0, 54, 59
1, 82130, Note_off_c, 0, 72, 55
1, 82138, Note_on_c, 0, 64, 72
1, 82186, Note_off_c, 0, 64, 63
1, 82312, Control_c, 0, 64, 107
1, 82327, Control_c, 0, 64, 87
1, 82337, Note_on_c, 0, 76, 80
1, 82341, Control_c, 0, 64, 65
1, 82349, Note_on_c, 0, 55, 64
1, 82356, Control_c, 0, 64, 0
1, 82386, Control_c, 0, 64, 57
1, 82401, Control_c, 0, 64, 70
1, 82416, Control_c, 0, 64, 79
1, 82419, Note_off_c, 0, 76, 63
1, 82431, Control_c, 0, 64, 89
1, 82438, Note_on_c, 0, 67, 62
1, 82438, Note_on_c, 0, 71, 55
1, 82440, Note_off_c, 0, 55, 63
1, 82445, Note_on_c, 0, 59, 57
1, 82446, Control_c, 0, 64, 97
1, 82460, Note_on_c, 0, 64, 39
1, 82460, Control_c, 0, 64, 104
1, 82473, Note_off_c, 0, 67, 61
1, 82475, Control_c, 0, 64, 110
1, 82478, Note_off_c, 0, 71, 60
1, 82487, Note_off_c, 0, 59, 58
1, 82488, Note_off_c, 0, 64, 49
1, 82490, Control_c, 0, 64, 115
1, 82505, Control_c, 0, 64, 122
1, 82520, Control_c, 0, 64, 127
1, 82526, Note_on_c, 0, 78, 83
1, 82528, Note_on_c, 0, 54, 68
1, 82606, Note_off_c, 0, 54, 60
1, 82612, Note_on_c, 0, 63, 61
1, 82612, Note_on_c, 0, 69, 67
1, 82618, Note_off_c, 0, 78, 63
1, 82623, Note_on_c, 0, 71, 61
1, 82628, Note_on_c, 0, 59, 43
1, 82638, Note_off_c, 0, 63, 64
1, 82656, Note_off_c, 0, 69, 61
1, 82660, Note_off_c, 0, 71, 60
1, 82673, Note_off_c, 0, 59, 56
1, 82717, Note_on_c, 0, 79, 79
1, 82723, Note_on_c, 0, 52, 64
1, 82754, Note_off_c, 0, 52, 62
1, 82782, Note_on_c, 0, 64, 64
1, 82786, Note_on_c, 0, 59, 52
1, 82795, Note_off_c, 0, 79, 60
1, 82797, Note_on_c, 0, 71, 58
1, 82799, Note_on_c, 0, 67, 67
1, 82812, Note_off_c, 0, 64, 66
1, 82813, Note_off_c, 0, 59, 62
1, 82886, Note_off_c, 0, 67, 46
1, 82891, Note_off_c, 0, 71, 58
1, 82928, Control_c, 0, 64, 118
1, 82934, Note_on_c, 0, 78, 83
1, 82943, Control_c, 0, 64, 92
1, 82946, Note_on_c, 0, 47, 69
1, 82958, Control_c, 0, 64, 69
1, 82973, Control_c, 0, 64, 0
1, 83018, Note_off_c, 0, 47, 65
1, 83018, Control_c, 0, 64, 29
1, 83033, Control_c, 0, 64, 69
1, 83047, Control_c, 0, 64, 84
1, 83062, Control_c, 0, 64, 102
1, 83077, Control_c, 0, 64, 118
1, 83091, Control_c, 0, 64, 123
1, 83106, Control_c, 0, 64, 126
1, 83121, Control_c, 0, 64, 127
1, 83200, Note_on_c, 0, 66, 71
1, 83201, Note_on_c, 0, 59, 61
1, 83201, Note_on_c, 0, 63, 62
1, 83218, Note_off_c, 0, 78, 61
1, 83232, Note_off_c, 0, 63, 65
1, 83247, Note_off_c, 0, 59, 59
1, 83256, Note_off_c, 0, 66, 65
1, 83260, Note_on_c, 0, 71, 59
1, 83296, Note_on_c, 0, 75, 74
1, 83307, Note_off_c, 0, 71, 60
1, 83373, Note_on_c, 0, 66, 81
1, 83379, Note_off_c, 0, 75, 58
1, 83412, Note_off_c, 0, 66, 63
1, 83543, Control_c, 0, 64, 103
1, 83558, Control_c, 0, 64, 82
1, 83572, Control_c, 0, 64, 57
1, 83587, Control_c, 0, 64, 0
1, 83595, Note_on_c, 0, 83, 87
1, 83596, Note_on_c, 0, 47, 75
1, 83617, Control_c, 0, 64, 65
1, 83632, Control_c, 0, 64, 78
1, 83647, Control_c, 0, 64, 92
1, 83659, Note_off_c, 0, 47, 63
1, 83662, Control_c, 0, 64, 106
1, 83677, Control_c, 0, 64, 114
1, 83691, Control_c, 0, 64, 118
1, 83706, Control_c, 0, 64, 125
1, 83721, Control_c, 0, 64, 127
1, 83847, Note_on_c, 0, 59, 50
1, 83848, Note_on_c, 0, 66, 50
1, 83849, Note_on_c, 0, 63, 53
1, 83858, Note_on_c, 0, 71, 64
1, 83880, Note_off_c, 0, 66, 55
1, 83899, Note_off_c, 0, 63, 59
1, 83905, Note_off_c, 0, 59, 55
1, 83906, Note_on_c, 0, 75, 70
1, 83918, Note_off_c, 0, 71, 61
1, 83948, Note_off_c, 0, 83, 38
1, 83960, Note_on_c, 0, 78, 70
1, 83963, Note_off_c, 0, 75, 64
1, 84030, Note_on_c, 0, 71, 64
1, 84032, Note_off_c, 0, 78, 62
1, 84091, Note_off_c, 0, 71, 58
1, 84233, Control_c, 0, 64, 104
1, 84243, Note_on_c, 0, 79, 79
1, 84248, Control_c, 0, 64, 85
1, 84255, Note_on_c, 0, 52, 57
1, 84262, Control_c, 0, 64, 64
1, 84277, Control_c, 0, 64, 0
1, 84321, Control_c, 0, 64, 65
1, 84336, Control_c, 0, 64, 74
1, 84351, Control_c, 0, 64, 84
1, 84366, Control_c, 0, 64, 94
1, 84381, Control_c, 0, 64, 101
1, 84395, Control_c, 0, 64, 104
1, 84410, Note_off_c, 0, 52, 49
1, 84410, Control_c, 0, 64, 107
1, 84425, Control_c, 0, 64, 111
1, 84440, Control_c, 0, 64, 114
1, 84455, Control_c, 0, 64, 116
1, 84470, Control_c, 0, 64, 117
1, 84482, Note_on_c, 0, 67, 52
1, 84483, Note_on_c, 0, 64, 47
1, 84484, Control_c, 0, 64, 118
1, 84487, Note_on_c, 0, 59, 43
1, 84494, Note_off_c, 0, 79, 56
1, 84499, Control_c, 0, 64, 119
1, 84511, Note_off_c, 0, 64, 60
1, 84515, Control_c, 0, 64, 119
1, 84526, Note_off_c, 0, 67, 60
1, 84531, Note_on_c, 0, 71, 59
1, 84538, Note_off_c, 0, 59, 43
1, 84574, Note_off_c, 0, 71, 60
1, 84589, Note_on_c, 0, 76, 56
1, 84638, Note_off_c, 0, 76, 49
1, 84647, Note_on_c, 0, 67, 63
1, 84679, Note_off_c, 0, 67, 61
1, 84797, Control_c, 0, 64, 115
1, 84811, Control_c, 0, 64, 101
1, 84826, Control_c, 0, 64, 83
1, 84848, Control_c, 0, 64, 63
1, 84851, Note_on_c, 0, 76, 74
1, 84863, Control_c, 0, 64, 0
1, 84870, Note_on_c, 0, 43, 52
1, 84893, Control_c, 0, 64, 61
1, 84908, Control_c, 0, 64, 72
1, 84923, Control_c, 0, 64, 81
1, 84928, Note_off_c, 0, 43, 59
1, 84937, Control_c, 0, 64, 90
1, 84952, Note_on_c, 0, 73, 57
1, 84952, Control_c, 0, 64, 97
1, 84958, Note_on_c, 0, 55, 52
1, 84958, Note_on_c, 0, 71, 48
1, 84967, Control_c, 0, 64, 100
1, 84982, Control_c, 0, 64, 102
1, 84983, Note_off_c, 0, 55, 60
1, 84984, Note_off_c, 0, 71, 58
1, 84985, Note_off_c, 0, 76, 62
1, 84994, Note_off_c, 0, 73, 61
1, 84997, Control_c, 0, 64, 104
1, 85011, Control_c, 0, 64, 107
1, 85026, Control_c, 0, 64, 109
1, 85040, Note_on_c, 0, 79, 80
1, 85041, Control_c, 0, 64, 110
1, 85056, Control_c, 0, 64, 111
1, 85060, Note_on_c, 0, 40, 65
1, 85085, Control_c, 0, 64, 111
1, 85100, Control_c, 0, 64, 112
1, 85102, Note_off_c, 0, 40, 63
1, 85123, Note_on_c, 0, 73, 71
1, 85130, Control_c, 0, 64, 112
1, 85134, Note_on_c, 0, 71, 59
1, 85137, Note_on_c, 0, 52, 64
1, 85141, Note_off_c, 0, 79, 56
1, 85167, Note_off_c, 0, 71, 63
1, 85168, Note_off_c, 0, 73, 60
1, 85169, Note_off_c, 0, 52, 67
1, 85224, Note_on_c, 0, 76, 73
1, 85241, Note_on_c, 0, 43, 66
1, 85278, Note_off_c, 0, 43, 60
1, 85303, Note_on_c, 0, 73, 62
1, 85310, Note_on_c, 0, 71, 61
1, 85310, Note_on_c, 0, 55, 62
1, 85313, Note_off_c, 0, 76, 62
1, 85341, Note_off_c, 0, 55, 66
1, 85342, Note_off_c, 0, 71, 64
1, 85357, Note_off_c, 0, 73, 62
1, 85412, Control_c, 0, 64, 112
1, 85412, Control_c, 0, 67, 22
1, 85427, Control_c, 0, 64, 99
1, 85427, Control_c, 0, 67, 64
1, 85441, Control_c, 0, 64, 82
1, 85441, Control_c, 0, 67, 127
1, 85446, Note_on_c, 0, 78, 76
1, 85455, Note_on_c, 0, 42, 60
1, 85456, Control_c, 0, 64, 54
1, 85471, Control_c, 0, 64, 0
1, 85541, Note_off_c, 0, 42, 64
1, 85546, Control_c, 0, 64, 65
1, 85560, Control_c, 0, 64, 74
1, 85575, Control_c, 0, 64, 85
1, 85597, Control_c, 0, 64, 94
1, 85612, Control_c, 0, 64, 99
1, 85627, Control_c, 0, 64, 102
1, 85641, Control_c, 0, 64, 104
1, 85656, Control_c, 0, 64, 107
1, 85671, Control_c, 0, 64, 109
1, 85686, Control_c, 0, 64, 111
1, 85701, Control_c, 0, 64, 112
1, 85716, Control_c, 0, 64, 113
1, 85725, Note_on_c, 0, 66, 61
1, 85730, Note_off_c, 0, 78, 63
1, 85743, Note_on_c, 0, 54, 43
1, 85744, Note_on_c, 0, 61, 43
1, 85745, Control_c, 0, 64, 113
1, 85748, Note_on_c, 0, 58, 42
1, 85770, Note_off_c, 0, 66, 60
1, 85776, Note_on_c, 0, 70, 62
1, 85778, Note_off_c, 0, 61, 53
1, 85806, Note_off_c, 0, 54, 52
1, 85811, Note_off_c, 0, 58, 56
1, 85826, Note_off_c, 0, 70, 61
1, 85838, Note_on_c, 0, 73, 63
1, 85875, Note_off_c, 0, 73, 57
1, 85900, Note_on_c, 0, 66, 58
1, 85943, Note_off_c, 0, 66, 60
1, 85953, Control_c, 0, 64, 113
1, 85967, Control_c, 0, 64, 111
1, 85982, Control_c, 0, 64, 106
1, 85997, Control_c, 0, 64, 97
1, 86012, Control_c, 0, 64, 82
1, 86027, Control_c, 0, 64, 64
1, 86041, Control_c, 0, 64, 0
1, 86143, Note_on_c, 0, 74, 55
1, 86160, Note_on_c, 0, 47, 44
1, 86175, Control_c, 0, 64, 54
1, 86190, Control_c, 0, 64, 70
1, 86205, Control_c, 0, 64, 80
1, 86220, Control_c, 0, 64, 90
1, 86235, Control_c, 0, 64, 95
1, 86249, Control_c, 0, 64, 99
1, 86264, Control_c, 0, 64, 102
1, 86279, Control_c, 0, 64, 105
1, 86294, Control_c, 0, 64, 109
1, 86309, Control_c, 0, 64, 112
1, 86324, Control_c, 0, 64, 114
1, 86346, Control_c, 0, 64, 115
1, 86361, Control_c, 0, 64, 115
1, 86379, Note_off_c, 0, 47, 45
1, 86392, Note_on_c, 0, 62, 54
1, 86401, Note_on_c, 0, 54, 36
1, 86402, Note_on_c, 0, 59, 37
1, 86405, Control_c, 0, 64, 116
1, 86434, Note_off_c, 0, 62, 60
1, 86434, Note_off_c, 0, 59, 49
1, 86440, Note_off_c, 0, 74, 60
1, 86442, Note_on_c, 0, 66, 64
1, 86458, Note_off_c, 0, 54, 43
1, 86488, Note_off_c, 0, 66, 63
1, 86498, Note_on_c, 0, 71, 52
1, 86541, Note_off_c, 0, 71, 55
1, 86565, Note_on_c, 0, 62, 53
1, 86612, Note_off_c, 0, 62, 54
1, 86702, Control_c, 0, 64, 115
1, 86716, Control_c, 0, 64, 109
1, 86731, Control_c, 0, 64, 98
1, 86746, Control_c, 0, 64, 82
1, 86761, Control_c, 0, 64, 61
1, 86776, Control_c, 0, 64, 0
1, 86778, Note_on_c, 0, 72, 71
1, 86780, Note_on_c, 0, 40, 52
1, 86834, Control_c, 0, 64, 63
1, 86849, Control_c, 0, 64, 73
1, 86861, Note_off_c, 0, 40, 64
1, 86864, Control_c, 0, 64, 85
1, 86879, Control_c, 0, 64, 93
1, 86894, Control_c, 0, 64, 97
1, 86910, Control_c, 0, 64, 99
1, 86925, Control_c, 0, 64, 101
1, 86939, Control_c, 0, 64, 103
1, 86954, Control_c, 0, 64, 106
1, 86966, Note_off_c, 0, 72, 58
1, 86969, Control_c, 0, 64, 108
1, 86984, Control_c, 0, 64, 109
1, 87000, Note_on_c, 0, 60, 66
1, 87013, Control_c, 0, 64, 110
1, 87015, Note_on_c, 0, 55, 48
1, 87015, Note_on_c, 0, 52, 53
1, 87028, Control_c, 0, 64, 110
1, 87042, Note_off_c, 0, 55, 58
1, 87051, Note_off_c, 0, 60, 57
1, 87058, Note_off_c, 0, 52, 63
1, 87064, Note_on_c, 0, 64, 59
1, 87110, Note_off_c, 0, 64, 60
1, 87111, Note_on_c, 0, 67, 68
1, 87153, Note_off_c, 0, 67, 59
1, 87178, Note_on_c, 0, 60, 62
1, 87224, Note_off_c, 0, 60, 57
1, 87272, Control_c, 0, 64, 109
1, 87287, Control_c, 0, 64, 103
1, 87302, Control_c, 0, 64, 90
1, 87317, Control_c, 0, 64, 72
1, 87331, Control_c, 0, 64, 0
1, 87370, Note_on_c, 0, 70, 70
1, 87375, Note_on_c, 0, 42, 64
1, 87375, Note_on_c, 0, 66, 66
1, 87392, Control_c, 0, 64, 61
1, 87406, Control_c, 0, 64, 72
1, 87421, Note_off_c, 0, 66, 60
1, 87421, Control_c, 0, 64, 83
1, 87430, Note_off_c, 0, 42, 62
1, 87436, Control_c, 0, 64, 96
1, 87451, Control_c, 0, 64, 104
1, 87452, Note_off_c, 0, 70, 48
1, 87455, Note_on_c, 0, 61, 71
1, 87465, Control_c, 0, 64, 107
1, 87465, Control_c, 0, 67, 117
1, 87480, Control_c, 0, 64, 111
1, 87480, Control_c, 0, 67, 95
1, 87495, Control_c, 0, 64, 115
1, 87495, Control_c, 0, 67, 73
1, 87510, Control_c, 0, 64, 123
1, 87510, Control_c, 0, 67, 55
1, 87512, Note_off_c, 0, 61, 61
1, 87525, Control_c, 0, 64, 127
1, 87525, Control_c, 0, 67, 42
1, 87540, Control_c, 0, 67, 36
1, 87552, Note_on_c, 0, 73, 67
1, 87555, Control_c, 0, 67, 32
1, 87562, Note_on_c, 0, 66, 65
1, 87570, Control_c, 0, 67, 30
1, 87574, Note_on_c, 0, 58, 50
1, 87576, Note_on_c, 0, 54, 58
1, 87585, Control_c, 0, 67, 27
1, 87596, Note_off_c, 0, 58, 59
1, 87599, Control_c, 0, 67, 26
1, 87600, Note_off_c, 0, 54, 61
1, 87610, Note_off_c, 0, 73, 63
1, 87614, Control_c, 0, 67, 25
1, 87628, Note_off_c, 0, 66, 59
1, 87629, Control_c, 0, 67, 23
1, 87644, Note_on_c, 0, 61, 64
1, 87644, Control_c, 0, 67, 22
1, 87658, Control_c, 0, 67, 21
1, 87673, Control_c, 0, 67, 17
1, 87683, Note_off_c, 0, 61, 52
1, 87688, Control_c, 0, 67, 14
1, 87704, Control_c, 0, 67, 10
1, 87719, Control_c, 0, 67, 9
1, 87734, Control_c, 0, 67, 8
1, 87739, Note_on_c, 0, 70, 65
1, 87749, Control_c, 0, 67, 0
1, 87752, Note_on_c, 0, 66, 57
1, 87753, Note_on_c, 0, 42, 54
1, 87786, Note_off_c, 0, 66, 65
1, 87787, Note_off_c, 0, 42, 65
1, 87813, Note_off_c, 0, 70, 55
1, 87818, Note_on_c, 0, 61, 62
1, 87865, Note_off_c, 0, 61, 58
1, 87933, Control_c, 0, 64, 118
1, 87948, Control_c, 0, 64, 97
1, 87963, Control_c, 0, 64, 77
1, 87978, Control_c, 0, 64, 0
1, 87980, Note_on_c, 0, 35, 58
1, 87982, Note_on_c, 0, 71, 68
1, 88029, Note_off_c, 0, 35, 63
1, 88037, Control_c, 0, 64, 62
1, 88052, Control_c, 0, 64, 73
1, 88067, Control_c, 0, 64, 83
1, 88081, Control_c, 0, 64, 95
1, 88095, Control_c, 0, 64, 101
1, 88110, Control_c, 0, 64, 106
1, 88125, Control_c, 0, 64, 110
1, 88140, Control_c, 0, 64, 115
1, 88154, Control_c, 0, 64, 121
1, 88169, Control_c, 0, 64, 127
1, 88209, Note_on_c, 0, 54, 55
1, 88212, Note_on_c, 0, 59, 61
1, 88230, Note_on_c, 0, 47, 44
1, 88231, Note_on_c, 0, 50, 43
1, 88242, Note_off_c, 0, 54, 60
1, 88264, Note_off_c, 0, 59, 60
1, 88265, Note_off_c, 0, 50, 59
1, 88271, Note_on_c, 0, 62, 63
1, 88277, Note_off_c, 0, 47, 56
1, 88303, Note_off_c, 0, 62, 63
1, 88315, Note_on_c, 0, 66, 65
1, 88361, Note_off_c, 0, 66, 57
1, 88392, Note_on_c, 0, 59, 76
1, 88392, Note_off_c, 0, 71, 36
1, 88448, Note_off_c, 0, 59, 61
1, 88541, Control_c, 0, 64, 116
1, 88556, Control_c, 0, 64, 95
1, 88571, Control_c, 0, 64, 73
1, 88592, Control_c, 0, 64, 0
1, 88616, Note_on_c, 0, 71, 86
1, 88617, Note_on_c, 0, 40, 90
1, 88652, Control_c, 0, 64, 25
1, 88667, Control_c, 0, 64, 69
1, 88676, Note_off_c, 0, 40, 64
1, 88682, Control_c, 0, 64, 82
1, 88696, Control_c, 0, 64, 103
1, 88711, Control_c, 0, 64, 118
1, 88726, Control_c, 0, 64, 125
1, 88741, Control_c, 0, 64, 127
1, 88853, Note_on_c, 0, 58, 90
1, 88861, Note_on_c, 0, 55, 72
1, 88863, Note_on_c, 0, 59, 76
1, 88866, Note_on_c, 0, 52, 74
1, 88920, Note_on_c, 0, 64, 68
1, 88932, Note_off_c, 0, 59, 55
1, 88933, Note_off_c, 0, 58, 60
1, 88959, Note_off_c, 0, 55, 63
1, 88973, Note_off_c, 0, 52, 64
1, 88977, Note_on_c, 0, 67, 67
1, 88986, Note_off_c, 0, 64, 64
1, 89064, Note_on_c, 0, 59, 69
1, 89066, Note_off_c, 0, 67, 51
1, 89069, Note_off_c, 0, 71, 34
1, 89123, Note_off_c, 0, 59, 60
1, 89170, Control_c, 0, 67, 8
1, 89185, Control_c, 0, 64, 108
1, 89185, Control_c, 0, 67, 15
1, 89200, Control_c, 0, 64, 89
1, 89200, Control_c, 0, 67, 30
1, 89215, Control_c, 0, 64, 68
1, 89215, Control_c, 0, 67, 58
1, 89229, Control_c, 0, 64, 0
1, 89229, Control_c, 0, 67, 97
1, 89244, Control_c, 0, 67, 127
1, 89271, Note_on_c, 0, 35, 65
1, 89278, Note_on_c, 0, 71, 63
1, 89319, Note_off_c, 0, 35, 64
1, 89341, Control_c, 0, 64, 63
1, 89356, Control_c, 0, 64, 75
1, 89371, Control_c, 0, 64, 85
1, 89386, Control_c, 0, 64, 93
1, 89401, Control_c, 0, 64, 96
1, 89415, Control_c, 0, 64, 98
1, 89430, Control_c, 0, 64, 100
1, 89445, Control_c, 0, 64, 101
1, 89460, Control_c, 0, 64, 104
1, 89475, Control_c, 0, 64, 106
1, 89489, Control_c, 0, 64, 107
1, 89501, Note_off_c, 0, 71, 35
1, 89502, Note_on_c, 0, 59, 66
1, 89504, Control_c, 0, 64, 108
1, 89513, Note_on_c, 0, 50, 55
1, 89515, Note_on_c, 0, 54, 51
1, 89519, Control_c, 0, 64, 108
1, 89560, Note_off_c, 0, 54, 58
1, 89565, Note_on_c, 0, 62, 66
1, 89566, Note_off_c, 0, 59, 58
1, 89596, Note_off_c, 0, 50, 61
1, 89613, Note_off_c, 0, 62, 59
1, 89618, Note_on_c, 0, 66, 64
1, 89655, Note_off_c, 0, 66, 62
1, 89685, Note_on_c, 0, 59, 57
1, 89714, Note_off_c, 0, 59, 61
1, 89786, Control_c, 0, 64, 107
1, 89800, Control_c, 0, 64, 102
1, 89815, Control_c, 0, 64, 90
1, 89830, Control_c, 0, 64, 69
1, 89845, Control_c, 0, 64, 0
1, 89847, Note_on_c, 0, 70, 55
1, 89859, Note_on_c, 0, 61, 59
1, 89861, Note_on_c, 0, 42, 61
1, 89891, Note_off_c, 0, 70, 63
1, 89904, Note_off_c, 0, 61, 60
1, 89924, Note_on_c, 0, 62, 68
1, 89934, Control_c, 0, 64, 66
1, 89948, Control_c, 0, 64, 74
1, 89955, Note_off_c, 0, 42, 59
1, 89963, Control_c, 0, 64, 81
1, 89967, Note_off_c, 0, 62, 49
1, 89978, Control_c, 0, 64, 86
1, 89993, Note_on_c, 0, 64, 71
1, 89993, Control_c, 0, 64, 89
1, 90008, Control_c, 0, 64, 91
1, 90023, Control_c, 0, 64, 92
1, 90038, Control_c, 0, 64, 95
1, 90045, Note_off_c, 0, 64, 61
1, 90052, Note_on_c, 0, 66, 69
1, 90052, Control_c, 0, 64, 97
1, 90053, Note_on_c, 0, 54, 58
1, 90067, Control_c, 0, 64, 99
1, 90089, Control_c, 0, 64, 100
1, 90095, Note_off_c, 0, 54, 63
1, 90102, Note_off_c, 0, 66, 65
1, 90105, Control_c, 0, 64, 101
1, 90112, Note_on_c, 0, 67, 69
1, 90183, Note_on_c, 0, 66, 68
1, 90184, Note_off_c, 0, 67, 61
1, 90235, Note_on_c, 0, 64, 66
1, 90235, Note_off_c, 0, 66, 65
1, 90267, Note_off_c, 0, 64, 64
1, 90280, Note_on_c, 0, 62, 67
1, 90327, Control_c, 0, 64, 100
1, 90335, Note_off_c, 0, 62, 48
1, 90343, Control_c, 0, 64, 97
1, 90357, Note_on_c, 0, 61, 66
1, 90357, Control_c, 0, 64, 88
1, 90372, Control_c, 0, 64, 72
1, 90387, Note_off_c, 0, 61, 66
1, 90387, Control_c, 0, 64, 0
1, 90433, Note_on_c, 0, 35, 66
1, 90450, Note_on_c, 0, 71, 70
1, 90473, Note_off_c, 0, 35, 67
1, 90476, Control_c, 0, 64, 64
1, 90491, Control_c, 0, 64, 77
1, 90506, Control_c, 0, 64, 93
1, 90521, Control_c, 0, 64, 103
1, 90536, Control_c, 0, 64, 107
1, 90536, Control_c, 0, 67, 126
1, 90550, Control_c, 0, 64, 108
1, 90550, Control_c, 0, 67, 101
1, 90565, Control_c, 0, 64, 110
1, 90565, Control_c, 0, 67, 71
1, 90580, Control_c, 0, 64, 112
1, 90580, Control_c, 0, 67, 38
1, 90595, Control_c, 0, 64, 117
1, 90595, Control_c, 0, 67, 9
1, 90610, Control_c, 0, 64, 121
1, 90610, Control_c, 0, 67, 0
1, 90624, Control_c, 0, 64, 124
1, 90639, Control_c, 0, 64, 125
1, 90654, Control_c, 0, 64, 127
1, 90669, Control_c, 0, 64, 127
1, 90677, Note_on_c, 0, 54, 55
1, 90684, Note_on_c, 0, 47, 54
1, 90686, Note_on_c, 0, 59, 61
1, 90703, Note_on_c, 0, 50, 45
1, 90710, Note_off_c, 0, 54, 63
1, 90731, Note_off_c, 0, 50, 59
1, 90731, Note_off_c, 0, 59, 59
1, 90732, Note_off_c, 0, 47, 61
1, 90741, Note_on_c, 0, 62, 59
1, 90753, Note_off_c, 0, 71, 33
1, 90778, Note_off_c, 0, 62, 62
1, 90784, Note_on_c, 0, 66, 67
1, 90831, Note_off_c, 0, 66, 61
1, 90868, Note_on_c, 0, 59, 72
1, 90923, Note_off_c, 0, 59, 60
1, 91003, Control_c, 0, 64, 127
1, 91018, Control_c, 0, 64, 113
1, 91033, Control_c, 0, 64, 95
1, 91048, Control_c, 0, 64, 73
1, 91062, Control_c, 0, 64, 0
1, 91080, Note_on_c, 0, 40, 89
1, 91082, Note_on_c, 0, 71, 89
1, 91121, Control_c, 0, 64, 65
1, 91130, Note_on_c, 0, 67, 32
1, 91135, Note_off_c, 0, 40, 64
1, 91136, Control_c, 0, 64, 78
1, 91151, Control_c, 0, 64, 93
1, 91164, Note_off_c, 0, 67, 56
1, 91166, Control_c, 0, 64, 109
1, 91180, Control_c, 0, 64, 116
1, 91195, Control_c, 0, 64, 119
1, 91210, Control_c, 0, 64, 123
1, 91225, Control_c, 0, 64, 127
1, 91325, Note_on_c, 0, 59, 73
1, 91328, Note_on_c, 0, 58, 91
1, 91334, Note_on_c, 0, 55, 74
1, 91335, Note_on_c, 0, 52, 77
1, 91375, Note_on_c, 0, 64, 69
1, 91392, Note_off_c, 0, 59, 60
1, 91409, Note_off_c, 0, 58, 62
1, 91432, Note_off_c, 0, 55, 63
1, 91434, Note_on_c, 0, 67, 66
1, 91442, Note_off_c, 0, 71, 0
1, 91444, Note_off_c, 0, 64, 64
1, 91448, Note_off_c, 0, 52, 63
1, 91502, Note_off_c, 0, 67, 58
1, 91521, Poly_aftertouch_c, 0, 71, 0
1, 91527, Note_on_c, 0, 59, 69
1, 91591, Note_off_c, 0, 59, 59
1, 91618, Control_c, 0, 67, 11
1, 91632, Control_c, 0, 67, 20
1, 91647, Control_c, 0, 64, 123
1, 91647, Control_c, 0, 67, 39
1, 91662, Control_c, 0, 64, 103
1, 91662, Control_c, 0, 67, 71
1, 91677, Control_c, 0, 64, 86
1, 91677, Control_c, 0, 67, 110
1, 91692, Control_c, 0, 64, 65
1, 91692, Control_c, 0, 67, 127
1, 91707, Control_c, 0, 64, 0
1, 91752, Note_on_c, 0, 35, 64
1, 91763, Note_on_c, 0, 71, 63
1, 91796, Control_c, 0, 64, 55
1, 91799, Note_off_c, 0, 35, 64
1, 91811, Control_c, 0, 64, 70
1, 91826, Control_c, 0, 64, 79
1, 91840, Control_c, 0, 64, 87
1, 91855, Control_c, 0, 64, 91
1, 91870, Control_c, 0, 64, 92
1, 91884, Control_c, 0, 64, 93
1, 91899, Control_c, 0, 64, 93
1, 91914, Control_c, 0, 64, 95
1, 91928, Control_c, 0, 64, 96
1, 91943, Control_c, 0, 64, 97
1, 91958, Control_c, 0, 64, 98
1, 91980, Note_on_c, 0, 59, 65
1, 91983, Note_on_c, 0, 54, 56
1, 91990, Note_on_c, 0, 50, 51
1, 92008, Note_off_c, 0, 71, 33
1, 92030, Note_off_c, 0, 54, 57
1, 92039, Note_on_c, 0, 62, 63
1, 92044, Note_off_c, 0, 59, 59
1, 92061, Note_off_c, 0, 50, 58
1, 92080, Note_off_c, 0, 62, 60
1, 92086, Note_on_c, 0, 66, 68
1, 92133, Note_off_c, 0, 66, 58
1, 92159, Note_on_c, 0, 59, 58
1, 92187, Note_off_c, 0, 59, 65
1, 92284, Control_c, 0, 64, 95
1, 92299, Control_c, 0, 64, 86
1, 92314, Control_c, 0, 64, 66
1, 92315, Note_on_c, 0, 70, 62
1, 92336, Control_c, 0, 64, 0
1, 92339, Note_on_c, 0, 61, 59
1, 92348, Note_on_c, 0, 42, 57
1, 92377, Note_off_c, 0, 70, 60
1, 92383, Note_off_c, 0, 61, 63
1, 92405, Note_on_c, 0, 62, 64
1, 92410, Control_c, 0, 64, 64
1, 92425, Control_c, 0, 64, 75
1, 92439, Note_off_c, 0, 42, 59
1, 92440, Control_c, 0, 64, 84
1, 92452, Note_off_c, 0, 62, 47
1, 92454, Control_c, 0, 64, 89
1, 92469, Control_c, 0, 64, 91
1, 92472, Note_on_c, 0, 64, 66
1, 92484, Control_c, 0, 64, 91
1, 92500, Control_c, 0, 64, 92
1, 92515, Control_c, 0, 64, 93
1, 92530, Control_c, 0, 64, 94
1, 92531, Note_off_c, 0, 64, 62
1, 92542, Note_on_c, 0, 54, 61
1, 92543, Note_on_c, 0, 66, 59
1, 92545, Control_c, 0, 64, 94
1, 92573, Note_off_c, 0, 66, 67
1, 92574, Control_c, 0, 64, 95
1, 92584, Note_on_c, 0, 67, 68
1, 92584, Note_off_c, 0, 54, 61
1, 92648, Note_on_c, 0, 66, 69
1, 92652, Note_off_c, 0, 67, 60
1, 92708, Note_off_c, 0, 66, 65
1, 92709, Note_on_c, 0, 64, 66
1, 92738, Note_off_c, 0, 64, 67
1, 92761, Note_on_c, 0, 62, 57
1, 92812, Note_off_c, 0, 62, 52
1, 92824, Note_on_c, 0, 61, 74
1, 92840, Control_c, 0, 64, 91
1, 92855, Control_c, 0, 64, 80
1, 92856, Note_off_c, 0, 61, 62
1, 92870, Control_c, 0, 64, 62
1, 92885, Control_c, 0, 64, 0
1, 92928, Note_on_c, 0, 35, 65
1, 92930, Note_on_c, 0, 71, 68
1, 92959, Control_c, 0, 64, 68
1, 92968, Note_off_c, 0, 35, 66
1, 92974, Control_c, 0, 64, 80
1, 92989, Control_c, 0, 64, 98
1, 93004, Control_c, 0, 64, 109
1, 93018, Control_c, 0, 64, 112
1, 93033, Control_c, 0, 64, 115
1, 93033, Control_c, 0, 67, 106
1, 93048, Control_c, 0, 64, 117
1, 93048, Control_c, 0, 67, 83
1, 93063, Control_c, 0, 64, 122
1, 93063, Control_c, 0, 67, 60
1, 93084, Control_c, 0, 64, 127
1, 93084, Control_c, 0, 67, 42
1, 93099, Control_c, 0, 67, 28
1, 93114, Control_c, 0, 67, 18
1, 93129, Control_c, 0, 67, 12
1, 93144, Control_c, 0, 67, 9
1, 93158, Note_on_c, 0, 54, 54
1, 93159, Control_c, 0, 67, 8
1, 93165, Note_on_c, 0, 47, 54
1, 93168, Note_on_c, 0, 59, 60
1, 93174, Control_c, 0, 67, 0
1, 93181, Note_on_c, 0, 50, 44
1, 93191, Note_off_c, 0, 54, 58
1, 93213, Note_on_c, 0, 62, 64
1, 93214, Note_off_c, 0, 59, 58
1, 93217, Note_off_c, 0, 50, 64
1, 93219, Note_off_c, 0, 47, 58
1, 93264, Note_off_c, 0, 62, 59
1, 93269, Note_off_c, 0, 71, 28
1, 93275, Note_on_c, 0, 66, 56
1, 93316, Note_off_c, 0, 66, 61
1, 93341, Note_on_c, 0, 59, 67
1, 93410, Note_off_c, 0, 59, 57
1, 93542, Note_on_c, 0, 71, 84
1, 93547, Note_on_c, 0, 35, 73
1, 93576, Note_off_c, 0, 35, 65
1, 93767, Note_on_c, 0, 54, 60
1, 93767, Control_c, 0, 67, 8
1, 93771, Note_on_c, 0, 59, 66
1, 93785, Note_on_c, 0, 47, 50
1, 93785, Note_on_c, 0, 50, 52
1, 93797, Note_off_c, 0, 54, 63
1, 93826, Note_off_c, 0, 50, 65
1, 93829, Note_on_c, 0, 62, 63
1, 93839, Note_off_c, 0, 59, 60
1, 93839, Note_off_c, 0, 47, 61
1, 93889, Note_off_c, 0, 62, 60
1, 93895, Note_on_c, 0, 66, 59
1, 93934, Note_off_c, 0, 66, 61
1, 93938, Note_off_c, 0, 71, 23
1, 93963, Note_on_c, 0, 59, 69
1, 93994, Note_off_c, 0, 59, 59
1, 94155, Note_on_c, 0, 71, 87
1, 94158, Note_on_c, 0, 35, 77
1, 94193, Note_off_c, 0, 35, 66
1, 94220, Control_c, 0, 67, 8
1, 94295, Control_c, 0, 67, 9
1, 94354, Control_c, 0, 67, 9
1, 94369, Control_c, 0, 67, 10
1, 94381, Note_on_c, 0, 54, 67
1, 94381, Note_on_c, 0, 59, 66
1, 94392, Note_on_c, 0, 47, 63
1, 94396, Note_on_c, 0, 50, 59
1, 94398, Control_c, 0, 67, 10
1, 94412, Note_off_c, 0, 54, 63
1, 94423, Note_off_c, 0, 71, 40
1, 94433, Note_on_c, 0, 62, 67
1, 94436, Note_off_c, 0, 50, 62
1, 94442, Note_off_c, 0, 59, 59
1, 94454, Note_off_c, 0, 47, 62
1, 94491, Note_on_c, 0, 66, 63
1, 94492, Note_off_c, 0, 62, 61
1, 94532, Note_off_c, 0, 66, 63
1, 94561, Control_c, 0, 67, 10
1, 94563, Note_on_c, 0, 59, 75
1, 94601, Note_off_c, 0, 59, 62
1, 94657, Control_c, 0, 67, 9
1, 94759, Note_on_c, 0, 62, 80
1, 94768, Note_on_c, 0, 35, 74
1, 94804, Note_off_c, 0, 35, 65
1, 94805, Control_c, 0, 67, 9
1, 94813, Note_off_c, 0, 62, 62
1, 94821, Note_on_c, 0, 66, 72
1, 94884, Note_off_c, 0, 66, 64
1, 94890, Note_on_c, 0, 71, 70
1, 94938, Control_c, 0, 67, 9
1, 94962, Note_on_c, 0, 59, 77
1, 94968, Note_on_c, 0, 47, 63
1, 94969, Note_on_c, 0, 54, 52
1, 94972, Note_on_c, 0, 50, 52
1, 94990, Note_off_c, 0, 59, 62
1, 94994, Note_off_c, 0, 54, 58
1, 94998, Control_c, 0, 67, 10
1, 94999, Note_off_c, 0, 47, 67
1, 95003, Note_off_c, 0, 50, 65
1, 95007, Note_off_c, 0, 71, 53
1, 95086, Control_c, 0, 67, 9
1, 95142, Note_on_c, 0, 62, 76
1, 95147, Note_on_c, 0, 35, 67
1, 95175, Note_off_c, 0, 35, 66
1, 95195, Note_off_c, 0, 62, 59
1, 95207, Note_on_c, 0, 66, 64
1, 95267, Note_off_c, 0, 66, 65
1, 95271, Note_on_c, 0, 71, 64
1, 95308, Control_c, 0, 67, 10
1, 95331, Control_c, 0, 67, 10
1, 95345, Control_c, 0, 67, 11
1, 95355, Note_on_c, 0, 59, 71
1, 95360, Control_c, 0, 67, 12
1, 95365, Note_on_c, 0, 47, 59
1, 95367, Note_on_c, 0, 50, 54
1, 95368, Note_off_c, 0, 71, 37
1, 95369, Note_on_c, 0, 54, 44
1, 95375, Control_c, 0, 67, 14
1, 95379, Note_off_c, 0, 59, 66
1, 95390, Control_c, 0, 67, 15
1, 95393, Note_off_c, 0, 50, 60
1, 95394, Note_off_c, 0, 47, 66
1, 95397, Note_off_c, 0, 54, 54
1, 95405, Control_c, 0, 67, 17
1, 95419, Control_c, 0, 67, 21
1, 95434, Control_c, 0, 67, 27
1, 95449, Control_c, 0, 67, 39
1, 95464, Control_c, 0, 67, 63
1, 95478, Control_c, 0, 67, 90
1, 95493, Control_c, 0, 67, 120
1, 95508, Control_c, 0, 67, 127
1, 95548, Note_on_c, 0, 62, 70
1, 95554, Note_on_c, 0, 35, 58
1, 95582, Note_off_c, 0, 35, 65
1, 95590, Note_off_c, 0, 62, 56
1, 95617, Note_on_c, 0, 66, 58
1, 95656, Note_off_c, 0, 66, 62
1, 95676, Note_on_c, 0, 71, 64
1, 95717, Note_off_c, 0, 71, 54
1, 95762, Note_on_c, 0, 59, 60
1, 95763, Note_on_c, 0, 47, 45
1, 95769, Note_on_c, 0, 50, 40
1, 95773, Note_on_c, 0, 54, 24
1, 95792, Note_off_c, 0, 59, 64
1, 95800, Note_off_c, 0, 50, 51
1, 95807, Note_off_c, 0, 47, 57
1, 95807, Note_off_c, 0, 54, 45
1, 96109, Control_c, 0, 64, 125
1, 96124, Control_c, 0, 64, 111
1, 96139, Control_c, 0, 64, 95
1, 96151, Note_on_c, 0, 70, 63
1, 96154, Control_c, 0, 64, 75
1, 96164, Note_on_c, 0, 34, 37
1, 96168, Control_c, 0, 64, 0
1, 96301, Control_c, 0, 64, 65
1, 96304, Note_off_c, 0, 34, 60
1, 96316, Control_c, 0, 64, 78
1, 96331, Control_c, 0, 64, 92
1, 96346, Control_c, 0, 64, 108
1, 96361, Control_c, 0, 64, 114
1, 96375, Control_c, 0, 64, 117
1, 96390, Control_c, 0, 64, 119
1, 96405, Control_c, 0, 64, 122
1, 96420, Control_c, 0, 64, 127
1, 96464, Note_on_c, 0, 58, 50
1, 96471, Note_off_c, 0, 70, 61
1, 96476, Note_on_c, 0, 51, 46
1, 96476, Note_on_c, 0, 54, 42
1, 96486, Note_on_c, 0, 46, 45
1, 96505, Note_off_c, 0, 54, 55
1, 96512, Note_off_c, 0, 58, 62
1, 96515, Note_on_c, 0, 63, 65
1, 96519, Note_off_c, 0, 51, 59
1, 96542, Note_off_c, 0, 46, 55
1, 96555, Note_off_c, 0, 63, 61
1, 96571, Note_on_c, 0, 66, 58
1, 96617, Note_off_c, 0, 66, 58
1, 96642, Note_on_c, 0, 58, 55
1, 96681, Note_off_c, 0, 58, 61
1, 96870, Note_on_c, 0, 70, 69
1, 96874, Note_on_c, 0, 34, 56
1, 96918, Note_off_c, 0, 34, 63
1, 97095, Note_on_c, 0, 58, 60
1, 97102, Note_on_c, 0, 51, 49
1, 97106, Note_on_c, 0, 54, 36
1, 97112, Note_on_c, 0, 46, 45
1, 97119, Note_off_c, 0, 70, 58
1, 97135, Note_off_c, 0, 58, 58
1, 97136, Note_off_c, 0, 54, 49
1, 97140, Note_off_c, 0, 51, 61
1, 97148, Note_on_c, 0, 63, 63
1, 97168, Note_off_c, 0, 46, 58
1, 97186, Note_off_c, 0, 63, 63
1, 97198, Note_on_c, 0, 66, 61
1, 97235, Note_off_c, 0, 66, 63
1, 97273, Note_on_c, 0, 58, 56
1, 97305, Note_off_c, 0, 58, 65
1, 97466, Note_on_c, 0, 63, 69
1, 97469, Note_on_c, 0, 34, 65
1, 97514, Note_off_c, 0, 34, 65
1, 97517, Note_off_c, 0, 63, 61
1, 97525, Note_on_c, 0, 66, 61
1, 97577, Note_off_c, 0, 66, 62
1, 97588, Note_on_c, 0, 70, 68
1, 97663, Note_on_c, 0, 58, 71
1, 97663, Note_on_c, 0, 51, 65
1, 97663, Note_on_c, 0, 46, 68
1, 97678, Note_on_c, 0, 54, 41
1, 97682, Note_off_c, 0, 70, 55
1, 97688, Note_off_c, 0, 58, 65
1, 97690, Note_off_c, 0, 51, 65
1, 97695, Note_off_c, 0, 46, 63
1, 97705, Note_off_c, 0, 54, 54
1, 97855, Note_on_c, 0, 34, 70
1, 97860, Note_on_c, 0, 63, 76
1, 97894, Note_off_c, 0, 34, 65
1, 97916, Note_off_c, 0, 63, 63
1, 97919, Note_on_c, 0, 66, 66
1, 97973, Note_on_c, 0, 70, 73
1, 97973, Note_off_c, 0, 66, 64
1, 98051, Note_on_c, 0, 46, 68
1, 98052, Note_on_c, 0, 58, 75
1, 98057, Note_on_c, 0, 51, 58
1, 98057, Note_on_c, 0, 54, 53
1, 98058, Note_off_c, 0, 70, 38
1, 98073, Note_off_c, 0, 46, 60
1, 98076, Note_off_c, 0, 51, 63
1, 98079, Note_off_c, 0, 54, 59
1, 98083, Note_off_c, 0, 58, 63
1, 98229, Note_on_c, 0, 63, 74
1, 98230, Note_on_c, 0, 34, 73
1, 98265, Note_off_c, 0, 34, 68
1, 98280, Note_on_c, 0, 66, 61
1, 98287, Note_off_c, 0, 63, 60
1, 98334, Note_on_c, 0, 70, 71
1, 98339, Note_off_c, 0, 66, 59
1, 98402, Control_c, 0, 67, 111
1, 98402, Note_off_c, 0, 70, 0
1, 98414, Note_on_c, 0, 58, 80
1, 98417, Control_c, 0, 67, 86
1, 98418, Note_on_c, 0, 46, 73
1, 98419, Note_on_c, 0, 54, 62
1, 98424, Note_on_c, 0, 51, 56
1, 98431, Control_c, 0, 67, 55
1, 98432, Poly_aftertouch_c, 0, 70, 0
1, 98438, Note_off_c, 0, 58, 69
1, 98441, Note_off_c, 0, 54, 60
1, 98446, Control_c, 0, 67, 22
1, 98447, Note_off_c, 0, 51, 63
1, 98453, Note_off_c, 0, 46, 65
1, 98461, Control_c, 0, 67, 0
1, 98712, Control_c, 0, 64, 106
1, 98715, Note_on_c, 0, 63, 87
1, 98716, Note_on_c, 0, 75, 87
1, 98721, Note_on_c, 0, 32, 74
1, 98721, Note_on_c, 0, 44, 79
1, 98727, Control_c, 0, 64, 84
1, 98742, Control_c, 0, 64, 0
1, 98790, Note_off_c, 0, 32, 64
1, 98801, Control_c, 0, 64, 33
1, 98815, Note_off_c, 0, 44, 65
1, 98815, Control_c, 0, 64, 71
1, 98830, Control_c, 0, 64, 88
1, 98845, Control_c, 0, 64, 111
1, 98860, Control_c, 0, 64, 127
1, 98911, Note_off_c, 0, 63, 64
1, 98962, Note_off_c, 0, 75, 61
1, 99035, Note_on_c, 0, 53, 78
1, 99044, Note_on_c, 0, 51, 71
1, 99046, Note_on_c, 0, 44, 66
1, 99048, Note_on_c, 0, 47, 69
1, 99302, Note_on_c, 0, 87, 90
1, 99308, Note_on_c, 0, 75, 87
1, 99357, Note_off_c, 0, 53, 58
1, 99377, Note_off_c, 0, 47, 51
1, 99377, Note_off_c, 0, 44, 51
1, 99380, Note_off_c, 0, 51, 55
1, 99517, Note_off_c, 0, 87, 62
1, 99522, Note_off_c, 0, 75, 61
1, 99552, Note_on_c, 0, 53, 70
1, 99559, Note_on_c, 0, 51, 61
1, 99571, Note_on_c, 0, 44, 50
1, 99572, Note_on_c, 0, 47, 54
1, 99797, Note_on_c, 0, 83, 83
1, 99801, Note_on_c, 0, 71, 78
1, 99865, Note_off_c, 0, 53, 54
1, 99870, Note_off_c, 0, 51, 53
1, 99905, Note_off_c, 0, 47, 43
1, 99926, Note_off_c, 0, 44, 36
1, 100021, Note_off_c, 0, 71, 54
1, 100060, Note_on_c, 0, 53, 61
1, 100063, Note_on_c, 0, 44, 53
1, 100068, Note_on_c, 0, 51, 52
1, 100086, Note_off_c, 0, 83, 58
1, 100092, Note_off_c, 0, 53, 68
1, 100101, Note_off_c, 0, 51, 64
1, 100101, Note_off_c, 0, 44, 65
1, 100117, Poly_aftertouch_c, 0, 47, 127
1, 100151, Control_c, 0, 67, 8
1, 100155, Poly_aftertouch_c, 0, 47, 0
1, 100166, Control_c, 0, 67, 9
1, 100181, Control_c, 0, 67, 10
1, 100196, Control_c, 0, 67, 10
1, 100314, Control_c, 0, 67, 11
1, 100329, Control_c, 0, 67, 11
1, 100343, Control_c, 0, 67, 12
1, 100358, Control_c, 0, 67, 13
1, 100373, Control_c, 0, 67, 17
1, 100388, Control_c, 0, 67, 24
1, 100402, Control_c, 0, 67, 37
1, 100417, Control_c, 0, 67, 60
1, 100420, Note_on_c, 0, 80, 67
1, 100427, Note_on_c, 0, 59, 53
1, 100430, Note_on_c, 0, 46, 47
1, 100432, Control_c, 0, 67, 90
1, 100435, Note_on_c, 0, 56, 51
1, 100438, Note_on_c, 0, 53, 46
1, 100447, Control_c, 0, 67, 127
1, 100462, Control_c, 0, 64, 117
1, 100462, Control_c, 0, 67, 127
1, 100477, Control_c, 0, 64, 93
1, 100492, Control_c, 0, 64, 70
1, 100507, Control_c, 0, 64, 0
1, 100520, Note_off_c, 0, 80, 63
1, 100538, Note_on_c, 0, 83, 62
1, 100574, Control_c, 0, 64, 62
1, 100589, Control_c, 0, 64, 74
1, 100600, Note_off_c, 0, 83, 54
1, 100604, Control_c, 0, 64, 87
1, 100619, Control_c, 0, 64, 100
1, 100634, Control_c, 0, 64, 106
1, 100636, Note_on_c, 0, 80, 74
1, 100648, Control_c, 0, 64, 110
1, 100663, Control_c, 0, 64, 114
1, 100678, Control_c, 0, 64, 118
1, 100688, Note_off_c, 0, 80, 61
1, 100692, Control_c, 0, 64, 123
1, 100707, Control_c, 0, 64, 127
1, 100708, Note_on_c, 0, 83, 66
1, 100741, Note_off_c, 0, 83, 56
1, 100787, Note_on_c, 0, 80, 67
1, 100820, Note_off_c, 0, 80, 60
1, 100850, Note_on_c, 0, 83, 64
1, 100887, Note_off_c, 0, 83, 54
1, 100924, Note_on_c, 0, 80, 70
1, 100964, Note_off_c, 0, 80, 60
1, 100993, Note_on_c, 0, 83, 66
1, 101024, Note_off_c, 0, 83, 59
1, 101069, Note_on_c, 0, 80, 68
1, 101100, Note_off_c, 0, 80, 61
1, 101132, Note_on_c, 0, 83, 62
1, 101172, Note_off_c, 0, 83, 53
1, 101206, Note_on_c, 0, 80, 69
1, 101248, Note_off_c, 0, 80, 58
1, 101283, Note_on_c, 0, 83, 61
1, 101324, Note_off_c, 0, 83, 59
1, 101368, Note_on_c, 0, 80, 64
1, 101399, Note_off_c, 0, 80, 63
1, 101433, Note_on_c, 0, 83, 62
1, 101475, Note_off_c, 0, 83, 51
1, 101511, Note_on_c, 0, 80, 65
1, 101547, Note_off_c, 0, 80, 60
1, 101590, Note_on_c, 0, 83, 59
1, 101598, Note_off_c, 0, 59, 42
1, 101613, Note_off_c, 0, 46, 40
1, 101613, Note_off_c, 0, 53, 56
1, 101622, Note_off_c, 0, 83, 60
1, 101623, Note_off_c, 0, 56, 57
1, 101660, Note_on_c, 0, 80, 60
1, 101687, Note_off_c, 0, 80, 62
1, 101715, Note_on_c, 0, 83, 58
1, 101780, Note_off_c, 0, 83, 52
1, 101810, Note_on_c, 0, 46, 47
1, 101814, Note_on_c, 0, 80, 58
1, 101821, Note_on_c, 0, 56, 34
1, 101825, Note_on_c, 0, 58, 46
1, 101841, Control_c, 0, 64, 109
1, 101844, Note_on_c, 0, 53, 35
1, 101856, Control_c, 0, 64, 91
1, 101871, Control_c, 0, 64, 72
1, 101873, Note_off_c, 0, 80, 62
1, 101886, Control_c, 0, 64, 0
1, 101898, Note_on_c, 0, 82, 64
1, 101938, Note_off_c, 0, 82, 57
1, 101945, Control_c, 0, 64, 64
1, 101960, Control_c, 0, 64, 73
1, 101975, Control_c, 0, 64, 84
1, 101981, Note_on_c, 0, 80, 71
1, 101989, Control_c, 0, 64, 97
1, 102004, Control_c, 0, 64, 103
1, 102015, Note_off_c, 0, 80, 58
1, 102019, Control_c, 0, 64, 107
1, 102033, Control_c, 0, 64, 110
1, 102045, Note_on_c, 0, 82, 69
1, 102048, Control_c, 0, 64, 114
1, 102071, Control_c, 0, 64, 118
1, 102086, Note_off_c, 0, 82, 59
1, 102087, Control_c, 0, 64, 122
1, 102102, Control_c, 0, 64, 123
1, 102116, Control_c, 0, 64, 124
1, 102126, Note_on_c, 0, 80, 65
1, 102131, Control_c, 0, 64, 125
1, 102146, Control_c, 0, 64, 126
1, 102158, Note_off_c, 0, 80, 62
1, 102161, Control_c, 0, 64, 127
1, 102189, Note_on_c, 0, 82, 68
1, 102232, Note_off_c, 0, 82, 52
1, 102263, Note_on_c, 0, 80, 65
1, 102301, Note_off_c, 0, 80, 57
1, 102336, Note_on_c, 0, 82, 66
1, 102369, Note_off_c, 0, 82, 59
1, 102406, Note_on_c, 0, 80, 64
1, 102438, Note_off_c, 0, 80, 65
1, 102472, Note_on_c, 0, 82, 62
1, 102507, Note_off_c, 0, 82, 59
1, 102546, Note_on_c, 0, 80, 60
1, 102579, Note_off_c, 0, 80, 65
1, 102611, Note_on_c, 0, 82, 58
1, 102653, Note_off_c, 0, 82, 59
1, 102683, Note_on_c, 0, 80, 57
1, 102683, Note_off_c, 0, 46, 56
1, 102708, Note_off_c, 0, 58, 62
1, 102721, Note_off_c, 0, 80, 62
1, 102757, Note_on_c, 0, 82, 54
1, 102764, Note_off_c, 0, 53, 43
1, 102777, Note_off_c, 0, 56, 41
1, 102814, Note_off_c, 0, 82, 54
1, 102846, Note_on_c, 0, 80, 55
1, 102890, Note_off_c, 0, 80, 58
1, 102933, Note_on_c, 0, 82, 55
1, 102981, Note_off_c, 0, 82, 57
1, 103011, Note_on_c, 0, 80, 53
1, 103039, Note_off_c, 0, 80, 58
1, 103099, Note_on_c, 0, 82, 46
1, 103174, Note_off_c, 0, 82, 60
1, 103210, Note_on_c, 0, 51, 45
1, 103216, Note_on_c, 0, 79, 60
1, 103234, Control_c, 0, 64, 118
1, 103249, Control_c, 0, 64, 100
1, 103254, Note_off_c, 0, 79, 58
1, 103264, Control_c, 0, 64, 81
1, 103279, Control_c, 0, 64, 56
1, 103294, Control_c, 0, 64, 0
1, 103296, Note_on_c, 0, 82, 50
1, 103334, Note_off_c, 0, 82, 53
1, 103353, Note_on_c, 0, 80, 60
1, 103354, Control_c, 0, 64, 58
1, 103368, Control_c, 0, 64, 71
1, 103383, Control_c, 0, 64, 79
1, 103392, Note_off_c, 0, 80, 63
1, 103398, Control_c, 0, 64, 86
1, 103412, Control_c, 0, 64, 89
1, 103414, Note_on_c, 0, 79, 54
1, 103415, Note_on_c, 0, 58, 45
1, 103427, Control_c, 0, 64, 91
1, 103434, Note_off_c, 0, 79, 60
1, 103442, Control_c, 0, 64, 92
1, 103457, Control_c, 0, 64, 93
1, 103460, Note_on_c, 0, 77, 58
1, 103472, Control_c, 0, 64, 95
1, 103486, Control_c, 0, 64, 96
1, 103491, Note_off_c, 0, 77, 62
1, 103501, Control_c, 0, 64, 97
1, 103559, Note_on_c, 0, 75, 35
1, 103568, Control_c, 0, 64, 97
1, 103590, Note_off_c, 0, 75, 35
1, 103598, Note_on_c, 0, 74, 48
1, 103612, Control_c, 0, 64, 98
1, 103630, Note_off_c, 0, 74, 67
1, 103652, Note_on_c, 0, 72, 51
1, 103689, Note_off_c, 0, 72, 65
1, 103722, Note_on_c, 0, 70, 69
1, 103789, Note_off_c, 0, 58, 56
1, 103797, Note_on_c, 0, 68, 69
1, 103804, Note_off_c, 0, 70, 54
1, 103806, Control_c, 0, 64, 97
1, 103812, Note_on_c, 0, 53, 52
1, 103822, Control_c, 0, 64, 91
1, 103836, Control_c, 0, 64, 78
1, 103851, Control_c, 0, 64, 59
1, 103851, Note_off_c, 0, 68, 63
1, 103853, Note_on_c, 0, 67, 58
1, 103856, Note_off_c, 0, 51, 50
1, 103866, Control_c, 0, 64, 0
1, 103887, Note_off_c, 0, 67, 64
1, 103903, Note_on_c, 0, 65, 62
1, 103925, Control_c, 0, 64, 52
1, 103940, Control_c, 0, 64, 64
1, 103945, Note_off_c, 0, 65, 66
1, 103955, Control_c, 0, 64, 66
1, 103970, Control_c, 0, 64, 67
1, 103978, Note_on_c, 0, 63, 68
1, 103984, Control_c, 0, 64, 68
1, 103994, Note_on_c, 0, 58, 51
1, 103999, Control_c, 0, 64, 70
1, 104014, Control_c, 0, 64, 73
1, 104026, Note_off_c, 0, 58, 54
1, 104029, Control_c, 0, 64, 75
1, 104037, Note_off_c, 0, 63, 64
1, 104040, Note_on_c, 0, 62, 61
1, 104043, Control_c, 0, 64, 77
1, 104072, Note_off_c, 0, 62, 64
1, 104090, Note_on_c, 0, 60, 60
1, 104126, Note_off_c, 0, 60, 56
1, 104147, Control_c, 0, 64, 77
1, 104154, Note_on_c, 0, 58, 63
1, 104191, Note_off_c, 0, 58, 66
1, 104218, Note_on_c, 0, 60, 62
1, 104251, Control_c, 0, 64, 76
1, 104252, Note_off_c, 0, 60, 59
1, 104266, Control_c, 0, 64, 73
1, 104273, Note_on_c, 0, 62, 64
1, 104281, Control_c, 0, 64, 64
1, 104296, Control_c, 0, 64, 0
1, 104316, Note_off_c, 0, 53, 63
1, 104324, Note_off_c, 0, 62, 62
1, 104336, Note_on_c, 0, 63, 60
1, 104337, Note_on_c, 0, 55, 54
1, 104370, Note_off_c, 0, 63, 66
1, 104381, Note_on_c, 0, 62, 60
1, 104432, Note_off_c, 0, 62, 61
1, 104436, Control_c, 0, 64, 54
1, 104451, Control_c, 0, 64, 66
1, 104454, Note_on_c, 0, 63, 63
1, 104465, Control_c, 0, 64, 70
1, 104481, Control_c, 0, 64, 75
1, 104496, Control_c, 0, 64, 78
1, 104498, Note_off_c, 0, 63, 59
1, 104511, Control_c, 0, 64, 81
1, 104519, Note_on_c, 0, 58, 50
1, 104519, Note_on_c, 0, 64, 62
1, 104526, Control_c, 0, 64, 83
1, 104540, Control_c, 0, 64, 84
1, 104555, Control_c, 0, 64, 85
1, 104570, Control_c, 0, 64, 86
1, 104572, Note_off_c, 0, 64, 62
1, 104581, Note_on_c, 0, 63, 61
1, 104585, Control_c, 0, 64, 87
1, 104612, Note_off_c, 0, 63, 66
1, 104626, Note_on_c, 0, 64, 61
1, 104674, Control_c, 0, 64, 88
1, 104683, Note_off_c, 0, 64, 63
1, 104690, Note_on_c, 0, 65, 70
1, 104722, Note_off_c, 0, 65, 65
1, 104746, Note_on_c, 0, 64, 61
1, 104792, Note_off_c, 0, 64, 64
1, 104805, Note_on_c, 0, 65, 63
1, 104835, Note_off_c, 0, 65, 67
1, 104837, Control_c, 0, 64, 87
1, 104839, Note_off_c, 0, 58, 40
1, 104852, Control_c, 0, 64, 86
1, 104854, Note_on_c, 0, 66, 62
1, 104864, Note_on_c, 0, 50, 54
1, 104867, Control_c, 0, 64, 81
1, 104882, Control_c, 0, 64, 71
1, 104883, Note_off_c, 0, 66, 64
1, 104897, Control_c, 0, 64, 0
1, 104907, Note_on_c, 0, 65, 60
1, 104941, Note_off_c, 0, 55, 38
1, 104945, Note_off_c, 0, 65, 66
1, 104967, Note_on_c, 0, 66, 63
1, 105011, Note_off_c, 0, 66, 65
1, 105015, Control_c, 0, 64, 50
1, 105030, Control_c, 0, 64, 65
1, 105034, Note_on_c, 0, 67, 62
1, 105044, Note_on_c, 0, 58, 52
1, 105045, Control_c, 0, 64, 70
1, 105067, Control_c, 0, 64, 72
1, 105078, Note_off_c, 0, 67, 62
1, 105082, Control_c, 0, 64, 74
1, 105091, Note_on_c, 0, 66, 64
1, 105097, Control_c, 0, 64, 75
1, 105112, Control_c, 0, 64, 75
1, 105127, Control_c, 0, 64, 76
1, 105131, Note_off_c, 0, 66, 67
1, 105141, Control_c, 0, 64, 76
1, 105147, Note_on_c, 0, 67, 64
1, 105156, Control_c, 0, 64, 77
1, 105200, Note_off_c, 0, 67, 57
1, 105210, Note_on_c, 0, 68, 73
1, 105248, Note_off_c, 0, 68, 62
1, 105268, Note_on_c, 0, 67, 66
1, 105313, Note_off_c, 0, 67, 62
1, 105331, Note_on_c, 0, 68, 62
1, 105357, Note_off_c, 0, 68, 65
1, 105364, Control_c, 0, 64, 76
1, 105378, Note_off_c, 0, 58, 37
1, 105379, Control_c, 0, 64, 73
1, 105382, Note_on_c, 0, 67, 62
1, 105394, Control_c, 0, 64, 66
1, 105398, Note_on_c, 0, 51, 60
1, 105403, Note_off_c, 0, 50, 58
1, 105408, Control_c, 0, 64, 0
1, 105430, Note_off_c, 0, 67, 59
1, 105443, Note_on_c, 0, 70, 65
1, 105496, Note_off_c, 0, 70, 62
1, 105501, Note_on_c, 0, 68, 63
1, 105512, Control_c, 0, 64, 60
1, 105527, Control_c, 0, 64, 69
1, 105537, Note_off_c, 0, 68, 64
1, 105542, Control_c, 0, 64, 73
1, 105545, Note_on_c, 0, 67, 70
1, 105556, Control_c, 0, 64, 76
1, 105571, Control_c, 0, 64, 79
1, 105584, Note_on_c, 0, 58, 65
1, 105586, Control_c, 0, 64, 80
1, 105601, Control_c, 0, 64, 80
1, 105601, Note_off_c, 0, 67, 60
1, 105606, Note_on_c, 0, 68, 65
1, 105616, Control_c, 0, 64, 81
1, 105629, Note_off_c, 0, 58, 55
1, 105631, Control_c, 0, 64, 81
1, 105652, Note_off_c, 0, 68, 62
1, 105661, Control_c, 0, 64, 82
1, 105665, Note_on_c, 0, 70, 66
1, 105669, Note_off_c, 0, 51, 62
1, 105685, Note_off_c, 0, 70, 67
1, 105690, Control_c, 0, 64, 82
1, 105727, Note_on_c, 0, 72, 72
1, 105774, Note_off_c, 0, 72, 58
1, 105793, Note_on_c, 0, 74, 70
1, 105843, Note_off_c, 0, 74, 64
1, 105858, Note_on_c, 0, 75, 70
1, 105861, Control_c, 0, 64, 82
1, 105875, Control_c, 0, 64, 77
1, 105890, Note_off_c, 0, 75, 66
1, 105890, Control_c, 0, 64, 68
1, 105905, Control_c, 0, 64, 0
1, 105917, Note_on_c, 0, 77, 71
1, 105920, Note_on_c, 0, 44, 69
1, 105956, Note_off_c, 0, 77, 61
1, 105979, Control_c, 0, 64, 11
1, 105990, Note_on_c, 0, 84, 62
1, 105994, Control_c, 0, 64, 65
1, 106004, Note_off_c, 0, 44, 65
1, 106008, Control_c, 0, 64, 71
1, 106022, Note_off_c, 0, 84, 56
1, 106023, Control_c, 0, 64, 75
1, 106036, Note_on_c, 0, 82, 73
1, 106038, Control_c, 0, 64, 78
1, 106053, Control_c, 0, 64, 79
1, 106068, Control_c, 0, 64, 80
1, 106084, Control_c, 0, 64, 81
1, 106099, Control_c, 0, 64, 82
1, 106113, Control_c, 0, 64, 82
1, 106115, Note_on_c, 0, 80, 64
1, 106117, Note_off_c, 0, 82, 59
1, 106135, Note_on_c, 0, 60, 56
1, 106141, Note_on_c, 0, 56, 52
1, 106143, Control_c, 0, 64, 83
1, 106169, Note_off_c, 0, 80, 64
1, 106173, Control_c, 0, 64, 83
1, 106176, Note_on_c, 0, 79, 61
1, 106202, Note_off_c, 0, 79, 64
1, 106221, Note_on_c, 0, 77, 60
1, 106227, Note_off_c, 0, 60, 60
1, 106265, Note_off_c, 0, 56, 64
1, 106266, Note_off_c, 0, 77, 60
1, 106294, Note_on_c, 0, 75, 68
1, 106351, Note_off_c, 0, 75, 65
1, 106355, Note_on_c, 0, 74, 59
1, 106384, Note_off_c, 0, 74, 67
1, 106394, Control_c, 0, 64, 82
1, 106403, Note_on_c, 0, 72, 64
1, 106409, Control_c, 0, 64, 77
1, 106424, Control_c, 0, 64, 67
1, 106439, Control_c, 0, 64, 0
1, 106464, Note_off_c, 0, 72, 63
1, 106470, Note_on_c, 0, 46, 64
1, 106476, Note_on_c, 0, 70, 68
1, 106507, Note_off_c, 0, 70, 62
1, 106528, Control_c, 0, 64, 47
1, 106534, Note_on_c, 0, 77, 69
1, 106541, Note_off_c, 0, 46, 63
1, 106543, Control_c, 0, 64, 66
1, 106565, Control_c, 0, 64, 70
1, 106579, Control_c, 0, 64, 74
1, 106583, Note_off_c, 0, 77, 57
1, 106593, Note_on_c, 0, 75, 60
1, 106594, Control_c, 0, 64, 76
1, 106609, Control_c, 0, 64, 78
1, 106624, Control_c, 0, 64, 78
1, 106639, Control_c, 0, 64, 79
1, 106653, Control_c, 0, 64, 80
1, 106658, Note_on_c, 0, 74, 64
1, 106668, Note_off_c, 0, 75, 64
1, 106677, Note_on_c, 0, 62, 61
1, 106683, Control_c, 0, 64, 81
1, 106686, Note_off_c, 0, 74, 68
1, 106692, Note_on_c, 0, 58, 50
1, 106695, Note_on_c, 0, 56, 49
1, 106709, Note_on_c, 0, 72, 62
1, 106740, Note_off_c, 0, 72, 67
1, 106758, Control_c, 0, 64, 81
1, 106788, Note_on_c, 0, 70, 67
1, 106832, Note_off_c, 0, 62, 51
1, 106847, Note_on_c, 0, 68, 63
1, 106860, Note_off_c, 0, 58, 61
1, 106862, Note_off_c, 0, 70, 53
1, 106868, Note_off_c, 0, 56, 62
1, 106896, Note_off_c, 0, 68, 63
1, 106901, Note_on_c, 0, 67, 64
1, 106921, Control_c, 0, 64, 81
1, 106931, Note_off_c, 0, 67, 64
1, 106935, Control_c, 0, 64, 80
1, 106946, Note_on_c, 0, 65, 64
1, 106950, Control_c, 0, 64, 77
1, 106965, Control_c, 0, 64, 69
1, 106980, Control_c, 0, 64, 26
1, 106983, Note_off_c, 0, 65, 62
1, 106995, Control_c, 0, 64, 0
1, 107030, Note_on_c, 0, 63, 70
1, 107043, Note_on_c, 0, 51, 56
1, 107056, Note_off_c, 0, 63, 69
1, 107089, Note_on_c, 0, 65, 61
1, 107098, Control_c, 0, 64, 64
1, 107113, Control_c, 0, 64, 71
1, 107127, Control_c, 0, 64, 76
1, 107140, Note_off_c, 0, 65, 59
1, 107142, Control_c, 0, 64, 80
1, 107143, Note_off_c, 0, 51, 60
1, 107144, Note_on_c, 0, 67, 73
1, 107157, Control_c, 0, 64, 81
1, 107172, Control_c, 0, 64, 82
1, 107187, Control_c, 0, 64, 82
1, 107198, Note_off_c, 0, 67, 62
1, 107202, Control_c, 0, 64, 83
1, 107203, Note_on_c, 0, 68, 71
1, 107217, Control_c, 0, 64, 84
1, 107232, Control_c, 0, 64, 86
1, 107234, Note_on_c, 0, 55, 48
1, 107243, Note_on_c, 0, 58, 51
1, 107243, Note_off_c, 0, 68, 64
1, 107244, Note_on_c, 0, 63, 51
1, 107261, Note_on_c, 0, 70, 69
1, 107261, Control_c, 0, 64, 86
1, 107285, Note_off_c, 0, 70, 68
1, 107305, Note_off_c, 0, 63, 54
1, 107313, Control_c, 0, 64, 87
1, 107329, Note_on_c, 0, 72, 77
1, 107330, Note_off_c, 0, 55, 62
1, 107337, Note_off_c, 0, 58, 59
1, 107388, Note_off_c, 0, 72, 61
1, 107394, Note_on_c, 0, 74, 73
1, 107439, Note_off_c, 0, 74, 63
1, 107451, Note_on_c, 0, 75, 68
1, 107486, Note_off_c, 0, 75, 65
1, 107509, Note_on_c, 0, 77, 74
1, 107565, Control_c, 0, 64, 86
1, 107572, Note_off_c, 0, 77, 45
1, 107579, Control_c, 0, 64, 85
1, 107592, Note_on_c, 0, 79, 65
1, 107594, Control_c, 0, 64, 81
1, 107598, Note_on_c, 0, 51, 44
1, 107609, Control_c, 0, 64, 74
1, 107624, Control_c, 0, 64, 62
1, 107639, Control_c, 0, 64, 0
1, 107642, Note_off_c, 0, 79, 61
1, 107646, Note_on_c, 0, 82, 65
1, 107712, Note_on_c, 0, 80, 65
1, 107717, Note_off_c, 0, 82, 59
1, 107760, Note_off_c, 0, 80, 65
1, 107773, Control_c, 0, 64, 63
1, 107774, Note_on_c, 0, 79, 64
1, 107788, Control_c, 0, 64, 69
1, 107791, Note_on_c, 0, 58, 46
1, 107798, Note_off_c, 0, 79, 61
1, 107802, Control_c, 0, 64, 72
1, 107817, Control_c, 0, 64, 75
1, 107823, Note_on_c, 0, 77, 58
1, 107832, Control_c, 0, 64, 77
1, 107847, Control_c, 0, 64, 79
1, 107862, Control_c, 0, 64, 81
1, 107863, Note_off_c, 0, 77, 61
1, 107876, Control_c, 0, 64, 82
1, 107891, Control_c, 0, 64, 82
1, 107893, Note_on_c, 0, 75, 68
1, 107945, Note_off_c, 0, 75, 63
1, 107952, Note_on_c, 0, 74, 65
1, 107976, Note_off_c, 0, 74, 70
1, 107998, Note_on_c, 0, 72, 60
1, 108028, Note_off_c, 0, 72, 62
1, 108069, Note_on_c, 0, 70, 71
1, 108129, Note_off_c, 0, 58, 51
1, 108132, Note_on_c, 0, 68, 64
1, 108151, Note_on_c, 0, 53, 58
1, 108153, Note_off_c, 0, 70, 53
1, 108165, Control_c, 0, 64, 81
1, 108180, Control_c, 0, 64, 75
1, 108186, Note_on_c, 0, 67, 66
1, 108189, Note_off_c, 0, 68, 64
1, 108194, Note_off_c, 0, 51, 55
1, 108195, Control_c, 0, 64, 63
1, 108209, Control_c, 0, 64, 0
1, 108220, Note_off_c, 0, 67, 63
1, 108232, Note_on_c, 0, 65, 62
1, 108285, Note_off_c, 0, 65, 62
1, 108307, Note_on_c, 0, 63, 69
1, 108315, Note_on_c, 0, 58, 49
1, 108329, Control_c, 0, 64, 60
1, 108344, Control_c, 0, 64, 66
1, 108358, Control_c, 0, 64, 67
1, 108361, Note_on_c, 0, 62, 65
1, 108364, Note_off_c, 0, 63, 64
1, 108366, Note_off_c, 0, 58, 56
1, 108394, Note_off_c, 0, 62, 62
1, 108406, Note_on_c, 0, 60, 65
1, 108417, Control_c, 0, 64, 67
1, 108449, Note_off_c, 0, 60, 55
1, 108477, Note_on_c, 0, 58, 70
1, 108506, Note_off_c, 0, 58, 69
1, 108532, Note_on_c, 0, 60, 62
1, 108573, Note_off_c, 0, 60, 64
1, 108592, Note_on_c, 0, 62, 58
1, 108625, Control_c, 0, 64, 66
1, 108640, Control_c, 0, 64, 65
1, 108645, Note_off_c, 0, 62, 60
1, 108650, Note_on_c, 0, 63, 65
1, 108655, Control_c, 0, 64, 57
1, 108663, Note_off_c, 0, 53, 61
1, 108663, Note_on_c, 0, 55, 57
1, 108670, Control_c, 0, 64, 0
1, 108681, Note_off_c, 0, 63, 68
1, 108695, Note_on_c, 0, 62, 58
1, 108742, Note_off_c, 0, 62, 59
1, 108767, Note_on_c, 0, 63, 69
1, 108773, Control_c, 0, 64, 53
1, 108788, Control_c, 0, 64, 65
1, 108811, Control_c, 0, 64, 66
1, 108824, Note_off_c, 0, 63, 60
1, 108835, Note_on_c, 0, 58, 56
1, 108838, Note_on_c, 0, 64, 67
1, 108893, Note_off_c, 0, 64, 64
1, 108900, Control_c, 0, 64, 67
1, 108901, Note_on_c, 0, 63, 63
1, 108934, Note_off_c, 0, 63, 67
1, 108946, Note_on_c, 0, 64, 61
1, 108993, Note_off_c, 0, 64, 60
1, 109008, Note_on_c, 0, 65, 72
1, 109046, Note_off_c, 0, 65, 63
1, 109066, Note_on_c, 0, 64, 63
1, 109117, Note_off_c, 0, 64, 63
1, 109128, Note_on_c, 0, 65, 65
1, 109146, Note_off_c, 0, 58, 54
1, 109165, Control_c, 0, 64, 64
1, 109166, Note_off_c, 0, 65, 66
1, 109177, Note_on_c, 0, 66, 64
1, 109180, Control_c, 0, 64, 53
1, 109195, Control_c, 0, 64, 0
1, 109196, Note_on_c, 0, 50, 55
1, 109208, Note_off_c, 0, 66, 68
1, 109229, Note_on_c, 0, 65, 63
1, 109270, Note_off_c, 0, 65, 59
1, 109292, Note_off_c, 0, 55, 36
1, 109297, Note_on_c, 0, 66, 66
1, 109300, Control_c, 0, 64, 47
1, 109315, Control_c, 0, 64, 64
1, 109329, Control_c, 0, 64, 66
1, 109341, Note_off_c, 0, 66, 65
1, 109357, Note_on_c, 0, 67, 66
1, 109372, Note_on_c, 0, 58, 60
1, 109374, Control_c, 0, 64, 66
1, 109389, Control_c, 0, 64, 67
1, 109399, Note_off_c, 0, 67, 64
1, 109421, Note_on_c, 0, 66, 58
1, 109452, Note_off_c, 0, 66, 67
1, 109458, Note_on_c, 0, 67, 58
1, 109521, Note_off_c, 0, 67, 60
1, 109527, Note_on_c, 0, 68, 72
1, 109572, Note_off_c, 0, 68, 64
1, 109596, Note_on_c, 0, 67, 63
1, 109642, Note_off_c, 0, 67, 63
1, 109659, Note_on_c, 0, 68, 60
1, 109662, Control_c, 0, 64, 65
1, 109677, Control_c, 0, 64, 62
1, 109692, Note_off_c, 0, 68, 65
1, 109692, Control_c, 0, 64, 23
1, 109695, Note_off_c, 0, 58, 37
1, 109707, Control_c, 0, 64, 0
1, 109715, Note_on_c, 0, 67, 57
1, 109723, Note_on_c, 0, 51, 58
1, 109738, Note_off_c, 0, 50, 52
1, 109759, Note_off_c, 0, 67, 62
1, 109767, Note_on_c, 0, 70, 66
1, 109811, Control_c, 0, 64, 62
1, 109825, Note_off_c, 0, 70, 63
1, 109826, Note_on_c, 0, 68, 64
1, 109826, Control_c, 0, 64, 67
1, 109841, Control_c, 0, 64, 69
1, 109855, Control_c, 0, 64, 71
1, 109865, Note_off_c, 0, 68, 65
1, 109870, Control_c, 0, 64, 72
1, 109875, Note_on_c, 0, 67, 69
1, 109885, Control_c, 0, 64, 73
1, 109900, Control_c, 0, 64, 74
1, 109906, Note_on_c, 0, 58, 61
1, 109915, Control_c, 0, 64, 75
1, 109935, Note_off_c, 0, 67, 56
1, 109944, Control_c, 0, 64, 75
1, 109952, Note_off_c, 0, 58, 57
1, 109989, Note_off_c, 0, 51, 62
1, 110004, Control_c, 0, 64, 76
1, 110019, Control_c, 0, 64, 76
1, 110040, Poly_aftertouch_c, 0, 69, 0
1, 110056, Note_on_c, 0, 72, 57
1, 110084, Note_off_c, 0, 72, 60
1, 110121, Note_on_c, 0, 74, 49
1, 110144, Note_off_c, 0, 74, 65
1, 110157, Note_on_c, 0, 75, 69
1, 110168, Control_c, 0, 64, 77
1, 110183, Note_off_c, 0, 75, 70
1, 110183, Control_c, 0, 64, 77
1, 110212, Control_c, 0, 64, 72
1, 110227, Control_c, 0, 64, 61
1, 110228, Note_on_c, 0, 77, 67
1, 110242, Control_c, 0, 64, 0
1, 110259, Note_on_c, 0, 44, 68
1, 110259, Note_off_c, 0, 77, 59
1, 110317, Note_on_c, 0, 84, 56
1, 110323, Control_c, 0, 64, 64
1, 110338, Control_c, 0, 64, 71
1, 110346, Note_off_c, 0, 44, 65
1, 110353, Control_c, 0, 64, 76
1, 110353, Note_off_c, 0, 84, 54
1, 110368, Control_c, 0, 64, 78
1, 110383, Control_c, 0, 64, 79
1, 110388, Note_on_c, 0, 81, 55
1, 110397, Control_c, 0, 64, 79
1, 110410, Note_off_c, 0, 81, 55
1, 110427, Control_c, 0, 64, 80
1, 110433, Note_on_c, 0, 80, 64
1, 110463, Note_on_c, 0, 60, 69
1, 110472, Note_off_c, 0, 80, 63
1, 110475, Note_on_c, 0, 56, 58
1, 110490, Note_on_c, 0, 79, 58
1, 110501, Control_c, 0, 64, 80
1, 110508, Note_off_c, 0, 79, 63
1, 110528, Note_on_c, 0, 77, 61
1, 110555, Note_off_c, 0, 77, 60
1, 110558, Note_off_c, 0, 60, 58
1, 110594, Note_on_c, 0, 75, 73
1, 110600, Note_off_c, 0, 56, 63
1, 110657, Note_off_c, 0, 75, 66
1, 110658, Note_on_c, 0, 74, 63
1, 110701, Note_off_c, 0, 74, 64
1, 110712, Note_on_c, 0, 72, 69
1, 110723, Control_c, 0, 64, 78
1, 110738, Control_c, 0, 64, 72
1, 110752, Control_c, 0, 64, 60
1, 110767, Control_c, 0, 64, 0
1, 110776, Note_off_c, 0, 72, 62
1, 110783, Note_on_c, 0, 46, 66
1, 110790, Note_on_c, 0, 74, 63
1, 110839, Note_off_c, 0, 74, 63
1, 110847, Note_on_c, 0, 77, 64
1, 110848, Note_off_c, 0, 46, 63
1, 110857, Control_c, 0, 64, 51
1, 110872, Control_c, 0, 64, 68
1, 110887, Control_c, 0, 64, 75
1, 110901, Control_c, 0, 64, 80
1, 110906, Note_on_c, 0, 75, 67
1, 110911, Note_off_c, 0, 77, 59
1, 110916, Control_c, 0, 64, 82
1, 110931, Control_c, 0, 64, 83
1, 110946, Control_c, 0, 64, 84
1, 110961, Control_c, 0, 64, 84
1, 110964, Note_off_c, 0, 75, 66
1, 110976, Control_c, 0, 64, 85
1, 110978, Note_on_c, 0, 74, 60
1, 110981, Note_on_c, 0, 62, 56
1, 110988, Note_on_c, 0, 58, 48
1, 110991, Control_c, 0, 64, 86
1, 110994, Note_on_c, 0, 56, 44
1, 111006, Control_c, 0, 64, 86
1, 111018, Note_off_c, 0, 74, 61
1, 111025, Note_on_c, 0, 75, 55
1, 111035, Control_c, 0, 64, 87
1, 111059, Note_off_c, 0, 75, 65
1, 111072, Control_c, 0, 64, 87
1, 111082, Note_on_c, 0, 77, 68
1, 111110, Note_off_c, 0, 62, 53
1, 111140, Note_off_c, 0, 58, 60
1, 111148, Note_off_c, 0, 56, 60
1, 111152, Note_off_c, 0, 77, 39
1, 111161, Note_on_c, 0, 79, 72
1, 111199, Note_off_c, 0, 79, 59
1, 111212, Note_on_c, 0, 80, 70
1, 111251, Note_off_c, 0, 80, 63
1, 111262, Note_on_c, 0, 82, 68
1, 111294, Control_c, 0, 64, 86
1, 111309, Control_c, 0, 64, 81
1, 111324, Control_c, 0, 64, 70
1, 111339, Control_c, 0, 64, 0
1, 111341, Note_off_c, 0, 82, 62
1, 111342, Note_on_c, 0, 75, 60
1, 111355, Note_on_c, 0, 51, 58
1, 111371, Note_off_c, 0, 75, 69
1, 111400, Note_on_c, 0, 77, 68
1, 111427, Control_c, 0, 64, 65
1, 111442, Control_c, 0, 64, 71
1, 111456, Note_off_c, 0, 77, 52
1, 111457, Control_c, 0, 64, 77
1, 111467, Note_on_c, 0, 79, 69
1, 111469, Note_off_c, 0, 51, 52
1, 111472, Control_c, 0, 64, 80
1, 111487, Control_c, 0, 64, 82
1, 111501, Control_c, 0, 64, 83
1, 111509, Note_off_c, 0, 79, 64
1, 111512, Note_on_c, 0, 80, 73
1, 111516, Control_c, 0, 64, 85
1, 111531, Control_c, 0, 64, 87
1, 111544, Note_on_c, 0, 55, 45
1, 111545, Note_on_c, 0, 63, 56
1, 111545, Control_c, 0, 64, 89
1, 111549, Note_on_c, 0, 58, 48
1, 111560, Control_c, 0, 64, 91
1, 111561, Note_off_c, 0, 80, 64
1, 111569, Note_on_c, 0, 82, 69
1, 111575, Control_c, 0, 64, 92
1, 111587, Note_off_c, 0, 82, 67
1, 111590, Control_c, 0, 64, 93
1, 111605, Control_c, 0, 64, 93
1, 111620, Control_c, 0, 64, 94
1, 111626, Note_off_c, 0, 63, 60
1, 111635, Note_on_c, 0, 84, 74
1, 111641, Note_off_c, 0, 55, 60
1, 111649, Control_c, 0, 64, 94
1, 111666, Note_off_c, 0, 58, 53
1, 111688, Note_off_c, 0, 84, 62
1, 111700, Note_on_c, 0, 86, 72
1, 111748, Note_off_c, 0, 86, 61
1, 111751, Note_on_c, 0, 87, 72
1, 111796, Note_off_c, 0, 87, 62
1, 111822, Note_on_c, 0, 89, 74
1, 111882, Note_off_c, 0, 89, 50
1, 111900, Note_on_c, 0, 91, 72
1, 111909, Note_on_c, 0, 51, 53
1, 111910, Control_c, 0, 64, 94
1, 111924, Control_c, 0, 64, 90
1, 111939, Control_c, 0, 64, 77
1, 111950, Note_on_c, 0, 94, 70
1, 111953, Note_off_c, 0, 91, 60
1, 111954, Control_c, 0, 64, 60
1, 111968, Control_c, 0, 64, 0
1, 112010, Note_on_c, 0, 92, 71
1, 112010, Note_off_c, 0, 94, 62
1, 112043, Control_c, 0, 64, 64
1, 112058, Control_c, 0, 64, 71
1, 112067, Note_off_c, 0, 92, 66
1, 112073, Control_c, 0, 64, 76
1, 112079, Note_on_c, 0, 91, 63
1, 112088, Control_c, 0, 64, 80
1, 112093, Note_on_c, 0, 58, 58
1, 112103, Control_c, 0, 64, 82
1, 112109, Note_off_c, 0, 91, 60
1, 112117, Control_c, 0, 64, 84
1, 112126, Note_on_c, 0, 89, 59
1, 112132, Control_c, 0, 64, 85
1, 112147, Control_c, 0, 64, 86
1, 112159, Note_off_c, 0, 89, 65
1, 112162, Control_c, 0, 64, 86
1, 112176, Control_c, 0, 64, 87
1, 112197, Note_on_c, 0, 87, 69
1, 112206, Control_c, 0, 64, 88
1, 112250, Control_c, 0, 64, 88
1, 112255, Note_off_c, 0, 87, 64
1, 112266, Note_on_c, 0, 86, 61
1, 112292, Note_off_c, 0, 86, 61
1, 112319, Note_on_c, 0, 84, 60
1, 112350, Note_off_c, 0, 84, 68
1, 112383, Note_on_c, 0, 82, 70
1, 112431, Note_off_c, 0, 58, 60
1, 112444, Note_on_c, 0, 80, 69
1, 112447, Note_on_c, 0, 53, 60
1, 112460, Note_off_c, 0, 82, 55
1, 112493, Note_off_c, 0, 51, 54
1, 112502, Note_off_c, 0, 80, 64
1, 112503, Control_c, 0, 64, 85
1, 112505, Note_on_c, 0, 79, 62
1, 112518, Control_c, 0, 64, 75
1, 112531, Note_off_c, 0, 79, 64
1, 112533, Control_c, 0, 64, 58
1, 112555, Control_c, 0, 64, 0
1, 112559, Note_on_c, 0, 77, 60
1, 112606, Note_off_c, 0, 77, 60
1, 112629, Control_c, 0, 64, 57
1, 112631, Note_on_c, 0, 75, 65
1, 112643, Note_on_c, 0, 58, 56
1, 112644, Control_c, 0, 64, 67
1, 112659, Control_c, 0, 64, 71
1, 112673, Control_c, 0, 64, 74
1, 112688, Note_off_c, 0, 75, 65
1, 112688, Control_c, 0, 64, 76
1, 112691, Note_on_c, 0, 74, 61
1, 112703, Control_c, 0, 64, 78
1, 112717, Note_off_c, 0, 74, 70
1, 112718, Control_c, 0, 64, 79
1, 112732, Note_on_c, 0, 72, 60
1, 112733, Control_c, 0, 64, 79
1, 112747, Control_c, 0, 64, 80
1, 112792, Note_off_c, 0, 72, 60
1, 112803, Note_on_c, 0, 70, 70
1, 112840, Note_off_c, 0, 70, 62
1, 112851, Control_c, 0, 64, 80
1, 112860, Note_on_c, 0, 72, 58
1, 112904, Note_off_c, 0, 72, 65
1, 112924, Note_on_c, 0, 74, 59
1, 112936, Note_off_c, 0, 58, 29
1, 112969, Control_c, 0, 64, 80
1, 112974, Note_off_c, 0, 74, 66
1, 112981, Note_on_c, 0, 75, 68
1, 112984, Control_c, 0, 64, 77
1, 112989, Note_on_c, 0, 55, 60
1, 112996, Note_off_c, 0, 53, 61
1, 112998, Control_c, 0, 64, 70
1, 113012, Note_off_c, 0, 75, 65
1, 113013, Control_c, 0, 64, 54
1, 113028, Control_c, 0, 64, 0
1, 113030, Note_on_c, 0, 74, 51
1, 113081, Note_off_c, 0, 74, 65
1, 113092, Note_on_c, 0, 75, 67
1, 113117, Control_c, 0, 64, 48
1, 113132, Control_c, 0, 64, 67
1, 113146, Control_c, 0, 64, 72
1, 113148, Note_off_c, 0, 75, 62
1, 113161, Note_on_c, 0, 76, 68
1, 113161, Control_c, 0, 64, 76
1, 113165, Note_on_c, 0, 58, 59
1, 113176, Control_c, 0, 64, 80
1, 113191, Control_c, 0, 64, 81
1, 113205, Control_c, 0, 64, 82
1, 113214, Note_off_c, 0, 76, 64
1, 113220, Control_c, 0, 64, 83
1, 113221, Note_on_c, 0, 75, 60
1, 113235, Control_c, 0, 64, 84
1, 113250, Control_c, 0, 64, 85
1, 113262, Note_off_c, 0, 75, 67
1, 113266, Control_c, 0, 64, 85
1, 113275, Note_on_c, 0, 76, 64
1, 113281, Control_c, 0, 64, 86
1, 113303, Control_c, 0, 64, 86
1, 113333, Control_c, 0, 64, 87
1, 113340, Note_off_c, 0, 76, 61
1, 113346, Note_on_c, 0, 77, 77
1, 113393, Note_off_c, 0, 77, 58
1, 113407, Note_on_c, 0, 76, 58
1, 113455, Note_off_c, 0, 76, 65
1, 113462, Note_on_c, 0, 77, 61
1, 113514, Note_off_c, 0, 77, 61
1, 113516, Note_off_c, 0, 58, 39
1, 113517, Note_on_c, 0, 78, 72
1, 113525, Note_on_c, 0, 50, 61
1, 113525, Control_c, 0, 64, 86
1, 113540, Control_c, 0, 64, 84
1, 113556, Control_c, 0, 64, 77
1, 113558, Note_off_c, 0, 78, 61
1, 113570, Note_on_c, 0, 77, 56
1, 113570, Control_c, 0, 64, 61
1, 113585, Control_c, 0, 64, 0
1, 113619, Note_off_c, 0, 77, 60
1, 113626, Note_off_c, 0, 55, 36
1, 113633, Note_on_c, 0, 78, 66
1, 113674, Control_c, 0, 64, 42
1, 113683, Note_off_c, 0, 78, 63
1, 113688, Control_c, 0, 64, 66
1, 113696, Note_on_c, 0, 79, 65
1, 113703, Control_c, 0, 64, 70
1, 113707, Note_on_c, 0, 58, 63
1, 113718, Control_c, 0, 64, 73
1, 113733, Control_c, 0, 64, 75
1, 113737, Note_off_c, 0, 79, 59
1, 113748, Control_c, 0, 64, 77
1, 113756, Note_on_c, 0, 78, 67
1, 113763, Control_c, 0, 64, 78
1, 113778, Control_c, 0, 64, 79
1, 113793, Control_c, 0, 64, 80
1, 113796, Note_off_c, 0, 78, 64
1, 113808, Note_on_c, 0, 79, 63
1, 113808, Control_c, 0, 64, 80
1, 113861, Note_off_c, 0, 79, 0
1, 113897, Poly_aftertouch_c, 0, 79, 127
1, 113898, Note_on_c, 0, 79, 7
1, 113982, Note_off_c, 0, 79, 58
1, 113995, Note_on_c, 0, 80, 66
1, 114029, Control_c, 0, 64, 80
1, 114031, Note_off_c, 0, 58, 35
1, 114044, Note_off_c, 0, 80, 64
1, 114052, Control_c, 0, 64, 76
1, 114057, Note_on_c, 0, 51, 62
1, 114059, Note_on_c, 0, 79, 60
1, 114067, Control_c, 0, 64, 67
1, 114079, Note_off_c, 0, 50, 38
1, 114082, Control_c, 0, 64, 0
1, 114117, Note_off_c, 0, 79, 61
1, 114122, Note_on_c, 0, 82, 73
1, 114156, Control_c, 0, 64, 14
1, 114171, Control_c, 0, 64, 67
1, 114186, Control_c, 0, 64, 76
1, 114193, Note_on_c, 0, 80, 73
1, 114198, Note_off_c, 0, 82, 63
1, 114201, Control_c, 0, 64, 84
1, 114216, Control_c, 0, 64, 89
1, 114231, Control_c, 0, 64, 90
1, 114236, Note_off_c, 0, 80, 64
1, 114242, Note_on_c, 0, 79, 71
1, 114245, Control_c, 0, 64, 92
1, 114246, Note_on_c, 0, 58, 66
1, 114260, Control_c, 0, 64, 93
1, 114275, Control_c, 0, 64, 94
1, 114284, Note_off_c, 0, 58, 58
1, 114290, Control_c, 0, 64, 96
1, 114291, Note_off_c, 0, 79, 60
1, 114305, Control_c, 0, 64, 96
1, 114305, Note_on_c, 0, 80, 64
1, 114317, Note_off_c, 0, 51, 63
1, 114334, Control_c, 0, 64, 97
1, 114335, Note_off_c, 0, 80, 63
1, 114349, Control_c, 0, 64, 98
1, 114352, Note_on_c, 0, 82, 60
1, 114364, Control_c, 0, 64, 99
1, 114369, Note_off_c, 0, 82, 67
1, 114378, Control_c, 0, 64, 100
1, 114413, Note_on_c, 0, 84, 77
1, 114463, Note_off_c, 0, 84, 58
1, 114481, Note_on_c, 0, 86, 67
1, 114512, Note_off_c, 0, 86, 65
1, 114525, Note_on_c, 0, 87, 69
1, 114551, Note_off_c, 0, 87, 68
1, 114556, Control_c, 0, 64, 98
1, 114571, Control_c, 0, 64, 88
1, 114586, Control_c, 0, 64, 72
1, 114589, Note_on_c, 0, 89, 76
1, 114590, Note_on_c, 0, 44, 63
1, 114601, Control_c, 0, 64, 0
1, 114630, Note_off_c, 0, 89, 64
1, 114658, Note_on_c, 0, 96, 67
1, 114661, Note_off_c, 0, 44, 64
1, 114675, Control_c, 0, 64, 63
1, 114690, Control_c, 0, 64, 70
1, 114699, Note_off_c, 0, 96, 62
1, 114705, Control_c, 0, 64, 76
1, 114707, Note_on_c, 0, 94, 68
1, 114719, Control_c, 0, 64, 82
1, 114734, Control_c, 0, 64, 84
1, 114749, Control_c, 0, 64, 86
1, 114763, Control_c, 0, 64, 88
1, 114767, Note_on_c, 0, 92, 68
1, 114774, Note_off_c, 0, 94, 62
1, 114778, Control_c, 0, 64, 89
1, 114797, Note_on_c, 0, 60, 62
1, 114798, Note_on_c, 0, 56, 60
1, 114800, Control_c, 0, 64, 91
1, 114815, Control_c, 0, 64, 92
1, 114830, Note_off_c, 0, 92, 65
1, 114830, Control_c, 0, 64, 93
1, 114833, Note_on_c, 0, 91, 62
1, 114845, Control_c, 0, 64, 93
1, 114860, Control_c, 0, 64, 94
1, 114865, Note_off_c, 0, 91, 61
1, 114875, Control_c, 0, 64, 94
1, 114882, Note_off_c, 0, 60, 60
1, 114887, Note_on_c, 0, 89, 62
1, 114905, Control_c, 0, 64, 95
1, 114909, Note_off_c, 0, 56, 62
1, 114917, Note_off_c, 0, 89, 67
1, 114960, Note_on_c, 0, 87, 69
1, 114964, Control_c, 0, 64, 95
1, 114994, Control_c, 0, 64, 96
1, 115021, Note_off_c, 0, 87, 62
1, 115024, Note_on_c, 0, 86, 60
1, 115054, Note_off_c, 0, 86, 66
1, 115077, Note_on_c, 0, 84, 59
1, 115098, Control_c, 0, 64, 95
1, 115113, Control_c, 0, 64, 88
1, 115128, Control_c, 0, 64, 76
1, 115136, Note_off_c, 0, 84, 64
1, 115142, Control_c, 0, 64, 49
1, 115145, Note_on_c, 0, 46, 63
1, 115146, Note_on_c, 0, 82, 66
1, 115157, Control_c, 0, 64, 0
1, 115182, Note_off_c, 0, 82, 61
1, 115197, Note_on_c, 0, 89, 67
1, 115216, Control_c, 0, 64, 65
1, 115221, Note_off_c, 0, 46, 64
1, 115231, Control_c, 0, 64, 72
1, 115246, Control_c, 0, 64, 78
1, 115247, Note_off_c, 0, 89, 59
1, 115250, Note_on_c, 0, 87, 66
1, 115261, Control_c, 0, 64, 83
1, 115275, Control_c, 0, 64, 86
1, 115290, Control_c, 0, 64, 87
1, 115305, Control_c, 0, 64, 89
1, 115319, Note_on_c, 0, 86, 67
1, 115320, Control_c, 0, 64, 91
1, 115330, Note_off_c, 0, 87, 62
1, 115335, Control_c, 0, 64, 92
1, 115346, Note_off_c, 0, 86, 66
1, 115349, Control_c, 0, 64, 93
1, 115356, Note_on_c, 0, 62, 55
1, 115364, Control_c, 0, 64, 94
1, 115365, Note_on_c, 0, 58, 47
1, 115371, Note_on_c, 0, 56, 44
1, 115376, Note_on_c, 0, 84, 60
1, 115379, Control_c, 0, 64, 94
1, 115393, Control_c, 0, 64, 95
1, 115406, Note_off_c, 0, 84, 67
1, 115423, Control_c, 0, 64, 95
1, 115452, Note_on_c, 0, 82, 70
1, 115468, Control_c, 0, 64, 96
1, 115493, Note_off_c, 0, 62, 57
1, 115509, Note_off_c, 0, 58, 55
1, 115513, Note_on_c, 0, 80, 59
1, 115524, Note_off_c, 0, 82, 54
1, 115540, Note_off_c, 0, 56, 43
1, 115574, Note_off_c, 0, 80, 64
1, 115582, Note_on_c, 0, 79, 56
1, 115604, Note_off_c, 0, 79, 63
1, 115623, Note_on_c, 0, 77, 56
1, 115638, Control_c, 0, 64, 95
1, 115653, Control_c, 0, 64, 93
1, 115669, Control_c, 0, 64, 85
1, 115671, Note_off_c, 0, 77, 58
1, 115684, Control_c, 0, 64, 73
1, 115698, Control_c, 0, 64, 0
1, 115707, Note_on_c, 0, 75, 62
1, 115718, Note_on_c, 0, 51, 53
1, 115748, Note_off_c, 0, 75, 63
1, 115773, Note_on_c, 0, 79, 61
1, 115805, Note_off_c, 0, 79, 62
1, 115817, Control_c, 0, 64, 51
1, 115831, Note_on_c, 0, 77, 57
1, 115832, Control_c, 0, 64, 67
1, 115847, Control_c, 0, 64, 73
1, 115861, Control_c, 0, 64, 80
1, 115876, Control_c, 0, 64, 83
1, 115891, Control_c, 0, 64, 86
1, 115895, Note_on_c, 0, 75, 68
1, 115902, Note_off_c, 0, 77, 53
1, 115906, Control_c, 0, 64, 88
1, 115907, Note_on_c, 0, 55, 47
1, 115913, Note_on_c, 0, 58, 50
1, 115918, Note_on_c, 0, 63, 48
1, 115919, Note_off_c, 0, 51, 31
1, 115921, Control_c, 0, 64, 91
1, 115936, Control_c, 0, 64, 93
1, 115948, Note_off_c, 0, 75, 63
1, 115951, Control_c, 0, 64, 95
1, 115956, Note_on_c, 0, 74, 52
1, 115965, Control_c, 0, 64, 96
1, 115970, Note_off_c, 0, 63, 58
1, 115980, Control_c, 0, 64, 97
1, 115981, Note_off_c, 0, 74, 65
1, 116000, Note_on_c, 0, 72, 60
1, 116013, Note_off_c, 0, 58, 57
1, 116035, Note_off_c, 0, 55, 61
1, 116037, Note_off_c, 0, 72, 65
1, 116087, Note_on_c, 0, 70, 66
1, 116160, Note_on_c, 0, 68, 58
1, 116163, Note_off_c, 0, 70, 61
1, 116205, Note_off_c, 0, 68, 60
1, 116223, Note_on_c, 0, 65, 61
1, 116303, Note_off_c, 0, 65, 61
1, 116326, Note_on_c, 0, 66, 58
1, 116342, Note_on_c, 0, 39, 51
1, 116342, Control_c, 0, 64, 96
1, 116357, Control_c, 0, 64, 92
1, 116372, Control_c, 0, 64, 82
1, 116381, Note_on_c, 0, 70, 57
1, 116382, Note_off_c, 0, 66, 60
1, 116387, Control_c, 0, 64, 67
1, 116402, Control_c, 0, 64, 0
1, 116458, Note_on_c, 0, 68, 60
1, 116460, Note_off_c, 0, 70, 59
1, 116492, Control_c, 0, 64, 44
1, 116507, Control_c, 0, 64, 67
1, 116521, Control_c, 0, 64, 74
1, 116523, Note_on_c, 0, 66, 61
1, 116523, Note_off_c, 0, 68, 63
1, 116529, Note_on_c, 0, 51, 56
1, 116536, Control_c, 0, 64, 82
1, 116552, Control_c, 0, 64, 86
1, 116560, Note_off_c, 0, 66, 65
1, 116566, Control_c, 0, 64, 89
1, 116575, Note_on_c, 0, 65, 58
1, 116581, Control_c, 0, 64, 90
1, 116596, Control_c, 0, 64, 90
1, 116610, Note_off_c, 0, 65, 67
1, 116611, Control_c, 0, 64, 92
1, 116626, Control_c, 0, 64, 93
1, 116640, Control_c, 0, 64, 94
1, 116648, Note_off_c, 0, 39, 56
1, 116648, Note_on_c, 0, 63, 66
1, 116655, Control_c, 0, 64, 94
1, 116711, Note_on_c, 0, 61, 64
1, 116719, Note_off_c, 0, 63, 64
1, 116750, Note_off_c, 0, 61, 60
1, 116772, Note_on_c, 0, 59, 62
1, 116830, Note_off_c, 0, 59, 58
1, 116840, Note_on_c, 0, 58, 64
1, 116874, Note_off_c, 0, 51, 32
1, 116879, Note_off_c, 0, 58, 62
1, 116906, Note_on_c, 0, 59, 60
1, 116921, Note_on_c, 0, 44, 52
1, 116922, Control_c, 0, 64, 92
1, 116937, Control_c, 0, 64, 85
1, 116949, Note_off_c, 0, 59, 56
1, 116952, Control_c, 0, 64, 73
1, 116966, Control_c, 0, 64, 0
1, 116990, Note_on_c, 0, 63, 67
1, 117057, Note_on_c, 0, 68, 70
1, 117072, Note_off_c, 0, 63, 64
1, 117093, Control_c, 0, 64, 63
1, 117107, Control_c, 0, 64, 73
1, 117122, Control_c, 0, 64, 81
1, 117137, Control_c, 0, 64, 89
1, 117139, Note_off_c, 0, 68, 62
1, 117152, Note_on_c, 0, 71, 78
1, 117152, Control_c, 0, 64, 95
1, 117167, Control_c, 0, 64, 100
1, 117170, Note_on_c, 0, 56, 54
1, 117181, Control_c, 0, 64, 106
1, 117196, Control_c, 0, 64, 113
1, 117211, Control_c, 0, 64, 125
1, 117215, Note_on_c, 0, 63, 57
1, 117226, Control_c, 0, 64, 127
1, 117274, Note_off_c, 0, 71, 60
1, 117276, Note_off_c, 0, 56, 62
1, 117280, Note_on_c, 0, 68, 66
1, 117287, Note_off_c, 0, 63, 64
1, 117352, Note_on_c, 0, 66, 64
1, 117355, Note_off_c, 0, 44, 59
1, 117357, Note_off_c, 0, 68, 62
1, 117359, Control_c, 0, 67, 120
1, 117374, Control_c, 0, 67, 109
1, 117388, Control_c, 0, 67, 99
1, 117395, Note_off_c, 0, 66, 64
1, 117403, Control_c, 0, 67, 88
1, 117408, Note_on_c, 0, 63, 62
1, 117418, Control_c, 0, 67, 78
1, 117433, Control_c, 0, 67, 71
1, 117447, Note_off_c, 0, 63, 56
1, 117448, Control_c, 0, 67, 68
1, 117459, Note_on_c, 0, 66, 62
1, 117477, Control_c, 0, 67, 67
1, 117492, Control_c, 0, 67, 66
1, 117507, Control_c, 0, 67, 65
1, 117522, Note_off_c, 0, 66, 64
1, 117522, Control_c, 0, 67, 62
1, 117537, Control_c, 0, 67, 59
1, 117539, Note_on_c, 0, 65, 65
1, 117552, Control_c, 0, 67, 58
1, 117566, Note_on_c, 0, 37, 51
1, 117581, Control_c, 0, 64, 111
1, 117581, Control_c, 0, 67, 59
1, 117596, Control_c, 0, 64, 93
1, 117596, Control_c, 0, 67, 60
1, 117601, Note_off_c, 0, 65, 64
1, 117608, Note_on_c, 0, 71, 64
1, 117611, Control_c, 0, 64, 75
1, 117611, Control_c, 0, 67, 61
1, 117626, Control_c, 0, 64, 0
1, 117626, Control_c, 0, 67, 64
1, 117641, Control_c, 0, 67, 65
1, 117651, Note_off_c, 0, 71, 57
1, 117655, Control_c, 0, 67, 66
1, 117658, Note_on_c, 0, 70, 65
1, 117670, Control_c, 0, 67, 66
1, 117685, Control_c, 0, 64, 11
1, 117700, Control_c, 0, 64, 67
1, 117715, Control_c, 0, 64, 75
1, 117725, Note_on_c, 0, 68, 63
1, 117729, Control_c, 0, 64, 85
1, 117729, Control_c, 0, 67, 65
1, 117741, Note_off_c, 0, 70, 59
1, 117744, Note_on_c, 0, 49, 64
1, 117744, Control_c, 0, 64, 92
1, 117744, Control_c, 0, 67, 65
1, 117759, Control_c, 0, 64, 96
1, 117774, Control_c, 0, 64, 99
1, 117774, Control_c, 0, 67, 64
1, 117781, Note_off_c, 0, 68, 63
1, 117790, Note_on_c, 0, 66, 66
1, 117796, Control_c, 0, 64, 102
1, 117811, Control_c, 0, 64, 104
1, 117818, Note_off_c, 0, 66, 66
1, 117826, Control_c, 0, 64, 107
1, 117834, Note_on_c, 0, 65, 61
1, 117841, Control_c, 0, 64, 108
1, 117856, Control_c, 0, 64, 109
1, 117856, Control_c, 0, 67, 64
1, 117865, Note_off_c, 0, 65, 67
1, 117870, Control_c, 0, 64, 110
1, 117874, Note_off_c, 0, 37, 51
1, 117885, Control_c, 0, 67, 64
1, 117900, Control_c, 0, 64, 110
1, 117900, Control_c, 0, 67, 65
1, 117911, Note_on_c, 0, 63, 67
1, 117914, Control_c, 0, 67, 65
1, 117944, Control_c, 0, 67, 66
1, 117959, Note_off_c, 0, 49, 62
1, 117969, Note_on_c, 0, 61, 66
1, 117982, Note_off_c, 0, 63, 60
1, 118028, Note_off_c, 0, 61, 62
1, 118033, Control_c, 0, 67, 65
1, 118035, Note_on_c, 0, 59, 51
1, 118069, Note_off_c, 0, 59, 64
1, 118093, Control_c, 0, 67, 66
1, 118097, Note_on_c, 0, 58, 66
1, 118108, Control_c, 0, 64, 109
1, 118108, Control_c, 0, 67, 66
1, 118123, Note_on_c, 0, 42, 61
1, 118123, Control_c, 0, 64, 103
1, 118123, Control_c, 0, 67, 67
1, 118138, Control_c, 0, 64, 92
1, 118138, Control_c, 0, 67, 67
1, 118153, Control_c, 0, 64, 71
1, 118153, Control_c, 0, 67, 67
1, 118160, Note_off_c, 0, 58, 62
1, 118167, Control_c, 0, 64, 0
1, 118167, Control_c, 0, 67, 66
1, 118169, Note_on_c, 0, 61, 64
1, 118182, Control_c, 0, 67, 66
1, 118211, Control_c, 0, 67, 65
1, 118226, Note_off_c, 0, 61, 61
1, 118228, Note_on_c, 0, 66, 66
1, 118241, Control_c, 0, 64, 67
1, 118241, Control_c, 0, 67, 64
1, 118256, Control_c, 0, 64, 80
1, 118256, Control_c, 0, 67, 64
1, 118271, Control_c, 0, 64, 92
1, 118271, Control_c, 0, 67, 63
1, 118285, Control_c, 0, 64, 100
1, 118285, Control_c, 0, 67, 62
1, 118299, Note_off_c, 0, 66, 64
1, 118300, Control_c, 0, 64, 104
1, 118300, Control_c, 0, 67, 62
1, 118309, Note_on_c, 0, 70, 72
1, 118315, Control_c, 0, 64, 107
1, 118326, Note_on_c, 0, 54, 65
1, 118330, Control_c, 0, 64, 110
1, 118345, Control_c, 0, 64, 113
1, 118345, Control_c, 0, 67, 63
1, 118359, Control_c, 0, 64, 117
1, 118367, Note_on_c, 0, 61, 73
1, 118374, Control_c, 0, 64, 122
1, 118374, Control_c, 0, 67, 63
1, 118389, Control_c, 0, 64, 127
1, 118389, Control_c, 0, 67, 64
1, 118399, Note_off_c, 0, 70, 57
1, 118404, Control_c, 0, 64, 127
1, 118425, Note_off_c, 0, 54, 62
1, 118434, Control_c, 0, 67, 64
1, 118434, Note_on_c, 0, 66, 66
1, 118437, Note_off_c, 0, 61, 59
1, 118464, Control_c, 0, 67, 65
1, 118491, Note_off_c, 0, 66, 66
1, 118493, Note_on_c, 0, 65, 67
1, 118493, Control_c, 0, 67, 65
1, 118507, Note_off_c, 0, 42, 62
1, 118546, Note_off_c, 0, 65, 62
1, 118559, Control_c, 0, 67, 65
1, 118565, Note_on_c, 0, 61, 61
1, 118591, Note_off_c, 0, 61, 64
1, 118601, Note_on_c, 0, 65, 62
1, 118661, Note_off_c, 0, 65, 60
1, 118678, Note_on_c, 0, 63, 72
1, 118678, Control_c, 0, 67, 65
1, 118708, Control_c, 0, 64, 117
1, 118708, Control_c, 0, 67, 66
1, 118714, Note_on_c, 0, 35, 66
1, 118723, Control_c, 0, 64, 102
1, 118737, Control_c, 0, 64, 83
1, 118740, Note_off_c, 0, 63, 62
1, 118746, Note_on_c, 0, 70, 66
1, 118752, Control_c, 0, 64, 64
1, 118767, Control_c, 0, 64, 0
1, 118792, Note_off_c, 0, 70, 58
1, 118796, Note_on_c, 0, 68, 60
1, 118810, Control_c, 0, 64, 64
1, 118810, Control_c, 0, 67, 66
1, 118825, Control_c, 0, 64, 73
1, 118840, Control_c, 0, 64, 82
1, 118840, Control_c, 0, 67, 65
1, 118854, Note_on_c, 0, 66, 72
1, 118855, Control_c, 0, 64, 90
1, 118855, Control_c, 0, 67, 65
1, 118871, Control_c, 0, 64, 94
1, 118874, Note_off_c, 0, 68, 64
1, 118875, Note_on_c, 0, 47, 69
1, 118886, Control_c, 0, 64, 97
1, 118901, Control_c, 0, 64, 99
1, 118904, Note_off_c, 0, 66, 63
1, 118915, Control_c, 0, 64, 101
1, 118915, Control_c, 0, 67, 64
1, 118924, Note_on_c, 0, 65, 57
1, 118930, Control_c, 0, 64, 103
1, 118945, Note_off_c, 0, 35, 60
1, 118945, Control_c, 0, 64, 105
1, 118953, Note_off_c, 0, 65, 67
1, 118959, Control_c, 0, 64, 105
1, 118974, Control_c, 0, 64, 106
1, 118989, Control_c, 0, 64, 106
1, 118991, Note_on_c, 0, 63, 67
1, 119019, Control_c, 0, 64, 107
1, 119019, Control_c, 0, 67, 65
1, 119053, Note_on_c, 0, 61, 65
1, 119054, Note_off_c, 0, 47, 62
1, 119059, Note_off_c, 0, 63, 64
1, 119096, Note_off_c, 0, 61, 62
1, 119110, Note_on_c, 0, 59, 56
1, 119137, Control_c, 0, 67, 64
1, 119142, Note_off_c, 0, 59, 55
1, 119152, Control_c, 0, 67, 64
1, 119171, Note_on_c, 0, 58, 67
1, 119197, Control_c, 0, 67, 64
1, 119218, Note_off_c, 0, 58, 55
1, 119227, Control_c, 0, 67, 65
1, 119250, Note_on_c, 0, 41, 64
1, 119254, Note_on_c, 0, 56, 71
1, 119271, Control_c, 0, 67, 65
1, 119293, Control_c, 0, 64, 104
1, 119293, Control_c, 0, 67, 66
1, 119307, Control_c, 0, 64, 93
1, 119307, Control_c, 0, 67, 66
1, 119316, Note_on_c, 0, 59, 66
1, 119319, Note_off_c, 0, 56, 63
1, 119322, Control_c, 0, 64, 78
1, 119337, Control_c, 0, 64, 52
1, 119352, Control_c, 0, 64, 0
1, 119392, Note_on_c, 0, 65, 67
1, 119400, Note_off_c, 0, 59, 61
1, 119412, Control_c, 0, 64, 39
1, 119412, Control_c, 0, 67, 66
1, 119427, Control_c, 0, 64, 68
1, 119427, Control_c, 0, 67, 65
1, 119441, Control_c, 0, 64, 78
1, 119449, Note_on_c, 0, 53, 66
1, 119450, Note_on_c, 0, 68, 77
1, 119456, Control_c, 0, 64, 87
1, 119463, Note_off_c, 0, 65, 64
1, 119471, Control_c, 0, 64, 93
1, 119471, Control_c, 0, 67, 65
1, 119486, Control_c, 0, 64, 95
1, 119501, Control_c, 0, 64, 98
1, 119515, Control_c, 0, 64, 100
1, 119522, Note_on_c, 0, 59, 66
1, 119525, Note_off_c, 0, 68, 63
1, 119530, Control_c, 0, 64, 102
1, 119545, Control_c, 0, 64, 103
1, 119545, Control_c, 0, 67, 65
1, 119557, Note_off_c, 0, 53, 63
1, 119559, Control_c, 0, 64, 104
1, 119573, Note_off_c, 0, 59, 53
1, 119574, Control_c, 0, 64, 105
1, 119574, Control_c, 0, 67, 65
1, 119589, Control_c, 0, 64, 106
1, 119591, Note_on_c, 0, 65, 64
1, 119614, Note_off_c, 0, 41, 45
1, 119619, Control_c, 0, 64, 106
1, 119647, Note_on_c, 0, 63, 57
1, 119648, Control_c, 0, 64, 107
1, 119656, Note_off_c, 0, 65, 62
1, 119686, Note_off_c, 0, 63, 65
1, 119695, Note_on_c, 0, 59, 60
1, 119726, Note_off_c, 0, 59, 63
1, 119753, Note_on_c, 0, 63, 69
1, 119820, Note_off_c, 0, 63, 61
1, 119827, Control_c, 0, 67, 65
1, 119832, Note_on_c, 0, 62, 67
1, 119841, Note_on_c, 0, 34, 63
1, 119856, Control_c, 0, 64, 106
1, 119871, Control_c, 0, 64, 99
1, 119886, Control_c, 0, 64, 87
1, 119886, Control_c, 0, 67, 66
1, 119889, Note_off_c, 0, 62, 60
1, 119890, Note_on_c, 0, 68, 68
1, 119901, Control_c, 0, 64, 70
1, 119916, Control_c, 0, 64, 0
1, 119916, Control_c, 0, 67, 67
1, 119955, Note_on_c, 0, 66, 55
1, 119966, Note_off_c, 0, 68, 58
1, 119975, Control_c, 0, 64, 60
1, 119975, Control_c, 0, 67, 67
1, 119990, Control_c, 0, 64, 71
1, 119990, Control_c, 0, 67, 66
1, 120002, Note_on_c, 0, 46, 70
1, 120005, Control_c, 0, 64, 80
1, 120007, Note_on_c, 0, 65, 65
1, 120020, Control_c, 0, 64, 88
1, 120020, Control_c, 0, 67, 65
1, 120042, Control_c, 0, 64, 91
1, 120057, Control_c, 0, 64, 93
1, 120057, Control_c, 0, 67, 65
1, 120062, Note_off_c, 0, 66, 56
1, 120070, Note_on_c, 0, 63, 64
1, 120071, Control_c, 0, 64, 94
1, 120078, Note_off_c, 0, 65, 64
1, 120086, Control_c, 0, 64, 96
1, 120101, Control_c, 0, 64, 97
1, 120101, Control_c, 0, 67, 65
1, 120106, Note_off_c, 0, 34, 60
1, 120109, Note_off_c, 0, 63, 62
1, 120116, Control_c, 0, 64, 98
1, 120122, Note_on_c, 0, 62, 65
1, 120130, Control_c, 0, 64, 99
1, 120130, Control_c, 0, 67, 65
1, 120150, Note_off_c, 0, 62, 64
1, 120186, Note_off_c, 0, 46, 62
1, 120205, Control_c, 0, 67, 64
1, 120205, Note_on_c, 0, 59, 67
1, 120267, Note_off_c, 0, 59, 61
1, 120270, Note_on_c, 0, 58, 62
1, 120324, Note_off_c, 0, 58, 62
1, 120327, Note_on_c, 0, 56, 66
1, 120353, Control_c, 0, 67, 65
1, 120357, Note_off_c, 0, 56, 65
1, 120392, Note_on_c, 0, 54, 59
1, 120397, Note_on_c, 0, 39, 58
1, 120397, Control_c, 0, 67, 65
1, 120412, Control_c, 0, 64, 99
1, 120427, Control_c, 0, 64, 93
1, 120427, Control_c, 0, 67, 66
1, 120437, Note_off_c, 0, 54, 60
1, 120442, Control_c, 0, 64, 81
1, 120446, Note_on_c, 0, 58, 69
1, 120458, Control_c, 0, 64, 62
1, 120458, Control_c, 0, 67, 66
1, 120473, Control_c, 0, 64, 0
1, 120502, Control_c, 0, 67, 67
1, 120505, Note_on_c, 0, 63, 65
1, 120509, Note_off_c, 0, 58, 64
1, 120532, Control_c, 0, 64, 35
1, 120532, Control_c, 0, 67, 66
1, 120547, Control_c, 0, 64, 68
1, 120561, Control_c, 0, 64, 76
1, 120561, Control_c, 0, 67, 66
1, 120571, Note_on_c, 0, 66, 71
1, 120576, Note_on_c, 0, 51, 65
1, 120576, Control_c, 0, 64, 84
1, 120576, Control_c, 0, 67, 65
1, 120586, Note_off_c, 0, 63, 60
1, 120591, Control_c, 0, 64, 90
1, 120605, Control_c, 0, 64, 93
1, 120620, Control_c, 0, 64, 95
1, 120620, Control_c, 0, 67, 65
1, 120635, Control_c, 0, 64, 97
1, 120637, Note_on_c, 0, 58, 71
1, 120650, Control_c, 0, 64, 100
1, 120665, Note_off_c, 0, 66, 63
1, 120665, Control_c, 0, 64, 102
1, 120665, Control_c, 0, 67, 65
1, 120679, Control_c, 0, 64, 104
1, 120684, Note_off_c, 0, 39, 59
1, 120694, Control_c, 0, 64, 105
1, 120708, Note_off_c, 0, 58, 58
1, 120709, Control_c, 0, 64, 106
1, 120738, Control_c, 0, 64, 107
1, 120741, Note_on_c, 0, 61, 64
1, 120753, Control_c, 0, 64, 107
1, 120765, Note_off_c, 0, 51, 62
1, 120768, Control_c, 0, 64, 108
1, 120800, Note_off_c, 0, 61, 59
1, 120805, Control_c, 0, 64, 108
1, 120830, Note_on_c, 0, 58, 63
1, 120835, Control_c, 0, 67, 65
1, 120863, Note_off_c, 0, 58, 60
1, 120872, Note_on_c, 0, 61, 51
1, 120880, Control_c, 0, 64, 109
1, 120913, Note_off_c, 0, 61, 62
1, 120944, Note_on_c, 0, 59, 52
1, 120968, Control_c, 0, 64, 108
1, 120974, Note_on_c, 0, 44, 57
1, 120980, Note_off_c, 0, 59, 49
1, 120983, Control_c, 0, 67, 65
1, 120998, Control_c, 0, 64, 103
1, 120998, Control_c, 0, 67, 66
1, 121008, Note_on_c, 0, 63, 64
1, 121012, Control_c, 0, 64, 91
1, 121012, Control_c, 0, 67, 66
1, 121027, Control_c, 0, 64, 72
1, 121042, Control_c, 0, 64, 0
1, 121042, Control_c, 0, 67, 67
1, 121057, Control_c, 0, 67, 67
1, 121079, Note_on_c, 0, 68, 68
1, 121089, Note_off_c, 0, 63, 64
1, 121117, Control_c, 0, 64, 64
1, 121117, Control_c, 0, 67, 67
1, 121131, Control_c, 0, 64, 73
1, 121131, Control_c, 0, 67, 66
1, 121146, Control_c, 0, 64, 82
1, 121149, Note_off_c, 0, 68, 64
1, 121153, Note_on_c, 0, 71, 81
1, 121155, Note_on_c, 0, 56, 62
1, 121161, Control_c, 0, 64, 90
1, 121161, Control_c, 0, 67, 65
1, 121176, Control_c, 0, 64, 95
1, 121176, Control_c, 0, 67, 65
1, 121191, Control_c, 0, 64, 100
1, 121205, Control_c, 0, 64, 103
1, 121220, Control_c, 0, 64, 107
1, 121230, Note_on_c, 0, 63, 61
1, 121235, Control_c, 0, 64, 111
1, 121235, Control_c, 0, 67, 65
1, 121251, Control_c, 0, 64, 115
1, 121266, Control_c, 0, 64, 118
1, 121272, Note_off_c, 0, 71, 60
1, 121278, Note_off_c, 0, 44, 60
1, 121280, Note_on_c, 0, 68, 66
1, 121281, Control_c, 0, 64, 122
1, 121296, Control_c, 0, 64, 125
1, 121297, Note_off_c, 0, 63, 58
1, 121310, Control_c, 0, 64, 127
1, 121354, Note_on_c, 0, 66, 61
1, 121361, Note_off_c, 0, 68, 63
1, 121397, Note_off_c, 0, 66, 62
1, 121415, Note_on_c, 0, 63, 65
1, 121458, Control_c, 0, 67, 65
1, 121464, Note_off_c, 0, 63, 55
1, 121467, Note_on_c, 0, 66, 54
1, 121502, Control_c, 0, 67, 65
1, 121504, Note_off_c, 0, 66, 63
1, 121507, Note_off_c, 0, 56, 58
1, 121555, Control_c, 0, 67, 66
1, 121558, Note_on_c, 0, 71, 76
1, 121569, Note_on_c, 0, 46, 61
1, 121585, Control_c, 0, 64, 111
1, 121585, Control_c, 0, 67, 66
1, 121600, Control_c, 0, 64, 94
1, 121615, Control_c, 0, 64, 72
1, 121615, Control_c, 0, 67, 67
1, 121629, Control_c, 0, 64, 0
1, 121629, Control_c, 0, 67, 67
1, 121634, Note_on_c, 0, 65, 61
1, 121674, Control_c, 0, 67, 68
1, 121685, Note_off_c, 0, 65, 65
1, 121689, Note_on_c, 0, 62, 59
1, 121689, Control_c, 0, 67, 67
1, 121704, Control_c, 0, 64, 57
1, 121718, Control_c, 0, 64, 69
1, 121720, Note_off_c, 0, 62, 59
1, 121733, Control_c, 0, 64, 76
1, 121733, Control_c, 0, 67, 66
1, 121748, Control_c, 0, 64, 83
1, 121761, Note_on_c, 0, 70, 74
1, 121762, Control_c, 0, 64, 88
1, 121764, Note_on_c, 0, 58, 73
1, 121771, Note_off_c, 0, 71, 60
1, 121777, Control_c, 0, 64, 92
1, 121792, Control_c, 0, 64, 96
1, 121807, Control_c, 0, 64, 98
1, 121819, Note_on_c, 0, 65, 69
1, 121822, Control_c, 0, 64, 101
1, 121836, Control_c, 0, 64, 103
1, 121851, Control_c, 0, 64, 105
1, 121862, Note_off_c, 0, 70, 60
1, 121865, Note_on_c, 0, 62, 64
1, 121866, Control_c, 0, 64, 107
1, 121866, Control_c, 0, 67, 66
1, 121880, Note_off_c, 0, 65, 65
1, 121881, Control_c, 0, 64, 109
1, 121881, Control_c, 0, 67, 65
1, 121896, Control_c, 0, 64, 111
1, 121905, Note_off_c, 0, 62, 61
1, 121910, Control_c, 0, 64, 114
1, 121925, Control_c, 0, 64, 115
1, 121925, Control_c, 0, 67, 66
1, 121940, Control_c, 0, 64, 115
1, 121940, Control_c, 0, 67, 66
1, 121945, Note_on_c, 0, 74, 69
1, 121969, Control_c, 0, 64, 116
1, 121984, Control_c, 0, 64, 117
1, 122002, Note_on_c, 0, 68, 73
1, 122014, Control_c, 0, 64, 117
1, 122022, Note_off_c, 0, 74, 63
1, 122029, Control_c, 0, 64, 118
1, 122044, Control_c, 0, 64, 118
1, 122055, Note_off_c, 0, 68, 64
1, 122059, Control_c, 0, 64, 119
1, 122072, Note_on_c, 0, 65, 47
1, 122074, Control_c, 0, 64, 120
1, 122089, Control_c, 0, 64, 121
1, 122093, Note_off_c, 0, 65, 62
1, 122148, Control_c, 0, 67, 67
1, 122163, Control_c, 0, 67, 67
1, 122166, Note_on_c, 0, 75, 66
1, 122174, Note_on_c, 0, 51, 63
1, 122178, Control_c, 0, 64, 120
1, 122178, Control_c, 0, 67, 68
1, 122193, Control_c, 0, 64, 112
1, 122193, Control_c, 0, 67, 69
1, 122208, Control_c, 0, 64, 101
1, 122208, Control_c, 0, 67, 70
1, 122220, Note_off_c, 0, 75, 62
1, 122223, Control_c, 0, 64, 88
1, 122223, Control_c, 0, 67, 71
1, 122226, Note_off_c, 0, 46, 56
1, 122238, Control_c, 0, 64, 76
1, 122238, Control_c, 0, 67, 72
1, 122244, Note_on_c, 0, 77, 51
1, 122247, Note_off_c, 0, 58, 55
1, 122252, Control_c, 0, 64, 64
1, 122252, Control_c, 0, 67, 75
1, 122267, Control_c, 0, 64, 0
1, 122267, Control_c, 0, 67, 77
1, 122289, Control_c, 0, 67, 83
1, 122297, Note_off_c, 0, 77, 0
1, 122297, Note_on_c, 0, 77, 26
1, 122304, Control_c, 0, 67, 92
1, 122319, Control_c, 0, 67, 105
1, 122333, Control_c, 0, 67, 121
1, 122348, Control_c, 0, 67, 127
1, 122367, Note_off_c, 0, 77, 61
1, 122369, Note_on_c, 0, 75, 63
1, 122370, Note_off_c, 0, 51, 58
1, 122412, Note_off_c, 0, 75, 65
1, 122417, Note_on_c, 0, 73, 61
1, 122449, Note_off_c, 0, 73, 64
1, 122472, Note_on_c, 0, 71, 48
1, 122493, Note_off_c, 0, 71, 60
1, 122540, Note_on_c, 0, 70, 65
1, 122602, Note_off_c, 0, 70, 63
1, 122607, Note_on_c, 0, 68, 64
1, 122640, Note_off_c, 0, 68, 64
1, 122667, Note_on_c, 0, 65, 56
1, 122712, Note_off_c, 0, 65, 63
1, 122729, Note_on_c, 0, 66, 64
1, 122734, Note_on_c, 0, 42, 56
1, 122784, Note_off_c, 0, 66, 61
1, 122786, Note_on_c, 0, 70, 60
1, 122822, Control_c, 0, 64, 34
1, 122837, Control_c, 0, 64, 67
1, 122850, Note_off_c, 0, 70, 61
1, 122853, Control_c, 0, 64, 73
1, 122855, Note_on_c, 0, 68, 61
1, 122868, Control_c, 0, 64, 79
1, 122882, Control_c, 0, 64, 83
1, 122897, Control_c, 0, 64, 86
1, 122912, Control_c, 0, 64, 88
1, 122914, Note_off_c, 0, 68, 64
1, 122915, Note_on_c, 0, 66, 63
1, 122927, Note_on_c, 0, 49, 53
1, 122927, Control_c, 0, 64, 89
1, 122942, Control_c, 0, 64, 89
1, 122948, Note_off_c, 0, 66, 67
1, 122966, Note_on_c, 0, 65, 61
1, 122971, Control_c, 0, 64, 90
1, 123000, Note_off_c, 0, 65, 67
1, 123044, Note_on_c, 0, 63, 65
1, 123065, Note_off_c, 0, 49, 50
1, 123066, Note_off_c, 0, 42, 55
1, 123098, Note_on_c, 0, 61, 64
1, 123106, Note_off_c, 0, 63, 65
1, 123135, Note_off_c, 0, 61, 62
1, 123160, Note_on_c, 0, 59, 56
1, 123203, Note_off_c, 0, 59, 54
1, 123213, Note_on_c, 0, 58, 70
1, 123230, Control_c, 0, 64, 89
1, 123245, Control_c, 0, 64, 86
1, 123255, Note_off_c, 0, 58, 61
1, 123260, Control_c, 0, 64, 79
1, 123275, Control_c, 0, 64, 65
1, 123290, Control_c, 0, 64, 0
1, 123292, Note_on_c, 0, 59, 62
1, 123296, Note_on_c, 0, 44, 60
1, 123332, Note_off_c, 0, 59, 65
1, 123346, Note_on_c, 0, 62, 69
1, 123379, Control_c, 0, 64, 54
1, 123394, Control_c, 0, 64, 71
1, 123407, Note_off_c, 0, 62, 61
1, 123408, Control_c, 0, 64, 81
1, 123409, Note_on_c, 0, 65, 68
1, 123423, Control_c, 0, 64, 93
1, 123423, Control_c, 0, 67, 115
1, 123438, Control_c, 0, 64, 99
1, 123438, Control_c, 0, 67, 98
1, 123453, Control_c, 0, 64, 102
1, 123453, Control_c, 0, 67, 80
1, 123458, Note_off_c, 0, 65, 63
1, 123466, Note_on_c, 0, 50, 58
1, 123468, Note_on_c, 0, 71, 72
1, 123468, Control_c, 0, 64, 104
1, 123468, Control_c, 0, 67, 58
1, 123482, Control_c, 0, 64, 107
1, 123482, Control_c, 0, 67, 37
1, 123497, Control_c, 0, 64, 113
1, 123497, Control_c, 0, 67, 17
1, 123512, Control_c, 0, 64, 121
1, 123512, Control_c, 0, 67, 10
1, 123526, Control_c, 0, 64, 127
1, 123526, Control_c, 0, 67, 8
1, 123528, Note_on_c, 0, 65, 68
1, 123540, Note_off_c, 0, 71, 58
1, 123584, Note_off_c, 0, 65, 64
1, 123594, Note_on_c, 0, 62, 65
1, 123630, Control_c, 0, 67, 9
1, 123632, Note_off_c, 0, 62, 60
1, 123640, Note_on_c, 0, 49, 66
1, 123645, Control_c, 0, 67, 9
1, 123651, Note_off_c, 0, 50, 60
1, 123651, Note_on_c, 0, 65, 53
1, 123676, Control_c, 0, 67, 10
1, 123691, Note_off_c, 0, 44, 56
1, 123703, Note_on_c, 0, 61, 72
1, 123716, Note_off_c, 0, 65, 63
1, 123720, Control_c, 0, 67, 10
1, 123731, Note_off_c, 0, 49, 60
1, 123735, Control_c, 0, 67, 11
1, 123749, Control_c, 0, 67, 11
1, 123761, Note_off_c, 0, 61, 59
1, 123786, Note_on_c, 0, 59, 59
1, 123787, Control_c, 0, 67, 12
1, 123802, Control_c, 0, 67, 14
1, 123806, Note_off_c, 0, 59, 60
1, 123817, Control_c, 0, 67, 15
1, 123831, Control_c, 0, 64, 121
1, 123831, Control_c, 0, 67, 16
1, 123846, Control_c, 0, 64, 103
1, 123846, Control_c, 0, 67, 18
1, 123861, Control_c, 0, 64, 85
1, 123861, Control_c, 0, 67, 19
1, 123872, Note_on_c, 0, 42, 60
1, 123874, Note_on_c, 0, 58, 62
1, 123876, Control_c, 0, 64, 64
1, 123876, Control_c, 0, 67, 20
1, 123891, Control_c, 0, 64, 0
1, 123891, Control_c, 0, 67, 21
1, 123905, Control_c, 0, 67, 22
1, 123907, Note_off_c, 0, 58, 65
1, 123938, Note_on_c, 0, 70, 60
1, 123949, Control_c, 0, 64, 51
1, 123949, Control_c, 0, 67, 21
1, 123964, Control_c, 0, 64, 70
1, 123964, Control_c, 0, 67, 21
1, 123979, Control_c, 0, 64, 79
1, 123979, Control_c, 0, 67, 20
1, 123981, Note_off_c, 0, 70, 58
1, 123992, Note_on_c, 0, 68, 67
1, 123994, Control_c, 0, 64, 90
1, 123994, Control_c, 0, 67, 20
1, 124009, Control_c, 0, 64, 95
1, 124023, Control_c, 0, 64, 97
1, 124038, Control_c, 0, 64, 99
1, 124052, Note_on_c, 0, 66, 66
1, 124053, Note_on_c, 0, 49, 61
1, 124053, Control_c, 0, 64, 100
1, 124068, Control_c, 0, 64, 102
1, 124070, Note_off_c, 0, 68, 63
1, 124083, Control_c, 0, 64, 103
1, 124098, Control_c, 0, 64, 104
1, 124098, Control_c, 0, 67, 19
1, 124099, Note_off_c, 0, 66, 63
1, 124113, Control_c, 0, 64, 105
1, 124119, Note_on_c, 0, 65, 61
1, 124127, Control_c, 0, 64, 106
1, 124147, Note_off_c, 0, 65, 67
1, 124180, Note_on_c, 0, 63, 70
1, 124187, Control_c, 0, 67, 19
1, 124187, Note_off_c, 0, 42, 57
1, 124196, Note_off_c, 0, 49, 60
1, 124242, Note_on_c, 0, 61, 68
1, 124256, Note_off_c, 0, 63, 63
1, 124291, Control_c, 0, 67, 18
1, 124292, Note_off_c, 0, 61, 58
1, 124300, Note_on_c, 0, 59, 60
1, 124348, Note_off_c, 0, 59, 54
1, 124360, Note_on_c, 0, 58, 70
1, 124364, Control_c, 0, 67, 19
1, 124379, Control_c, 0, 64, 104
1, 124379, Control_c, 0, 67, 19
1, 124394, Control_c, 0, 64, 97
1, 124394, Control_c, 0, 67, 20
1, 124398, Note_off_c, 0, 58, 64
1, 124409, Control_c, 0, 64, 83
1, 124409, Control_c, 0, 67, 21
1, 124421, Note_on_c, 0, 59, 63
1, 124423, Note_on_c, 0, 44, 61
1, 124423, Control_c, 0, 64, 64
1, 124438, Control_c, 0, 64, 0
1, 124438, Control_c, 0, 67, 21
1, 124464, Note_off_c, 0, 59, 64
1, 124484, Control_c, 0, 67, 21
1, 124488, Note_on_c, 0, 62, 69
1, 124514, Control_c, 0, 67, 20
1, 124536, Control_c, 0, 64, 57
1, 124536, Control_c, 0, 67, 20
1, 124551, Control_c, 0, 64, 68
1, 124558, Note_off_c, 0, 62, 62
1, 124563, Note_on_c, 0, 65, 66
1, 124566, Control_c, 0, 64, 74
1, 124566, Control_c, 0, 67, 19
1, 124580, Control_c, 0, 64, 80
1, 124580, Control_c, 0, 67, 19
1, 124595, Control_c, 0, 64, 86
1, 124604, Note_off_c, 0, 65, 66
1, 124610, Control_c, 0, 64, 91
1, 124616, Note_on_c, 0, 71, 73
1, 124616, Note_on_c, 0, 50, 59
1, 124625, Control_c, 0, 64, 94
1, 124640, Control_c, 0, 64, 96
1, 124654, Control_c, 0, 64, 99
1, 124669, Control_c, 0, 64, 102
1, 124680, Note_on_c, 0, 65, 68
1, 124684, Control_c, 0, 64, 104
1, 124688, Note_off_c, 0, 71, 59
1, 124699, Control_c, 0, 64, 106
1, 124714, Control_c, 0, 64, 108
1, 124726, Note_off_c, 0, 65, 63
1, 124728, Control_c, 0, 64, 109
1, 124730, Note_on_c, 0, 62, 69
1, 124743, Control_c, 0, 64, 110
1, 124758, Control_c, 0, 64, 112
1, 124765, Note_off_c, 0, 62, 57
1, 124772, Control_c, 0, 64, 113
1, 124787, Control_c, 0, 64, 113
1, 124799, Note_on_c, 0, 65, 60
1, 124802, Note_on_c, 0, 49, 63
1, 124802, Control_c, 0, 64, 114
1, 124807, Note_off_c, 0, 50, 58
1, 124817, Control_c, 0, 64, 115
1, 124840, Note_off_c, 0, 44, 56
1, 124855, Note_on_c, 0, 61, 67
1, 124861, Note_off_c, 0, 65, 66
1, 124889, Note_off_c, 0, 49, 58
1, 124911, Note_off_c, 0, 61, 62
1, 124921, Note_on_c, 0, 59, 61
1, 124964, Note_off_c, 0, 59, 55
1, 124980, Control_c, 0, 67, 19
1, 124995, Note_on_c, 0, 61, 61
1, 124995, Control_c, 0, 67, 20
1, 125010, Control_c, 0, 64, 110
1, 125010, Control_c, 0, 67, 21
1, 125016, Note_on_c, 0, 46, 69
1, 125025, Control_c, 0, 64, 97
1, 125025, Control_c, 0, 67, 21
1, 125040, Control_c, 0, 64, 81
1, 125040, Control_c, 0, 67, 22
1, 125048, Note_off_c, 0, 61, 60
1, 125052, Note_on_c, 0, 66, 65
1, 125054, Control_c, 0, 64, 48
1, 125069, Control_c, 0, 64, 0
1, 125110, Note_off_c, 0, 66, 65
1, 125113, Control_c, 0, 64, 52
1, 125123, Note_on_c, 0, 70, 65
1, 125128, Control_c, 0, 64, 68
1, 125128, Control_c, 0, 67, 21
1, 125143, Control_c, 0, 64, 77
1, 125143, Control_c, 0, 67, 21
1, 125158, Control_c, 0, 64, 86
1, 125172, Control_c, 0, 64, 92
1, 125172, Control_c, 0, 67, 20
1, 125180, Note_on_c, 0, 73, 70
1, 125184, Note_off_c, 0, 70, 62
1, 125187, Control_c, 0, 64, 96
1, 125187, Control_c, 0, 67, 20
1, 125197, Note_on_c, 0, 54, 62
1, 125202, Control_c, 0, 64, 98
1, 125217, Control_c, 0, 64, 100
1, 125217, Control_c, 0, 67, 19
1, 125232, Control_c, 0, 64, 103
1, 125233, Note_on_c, 0, 70, 56
1, 125244, Note_off_c, 0, 73, 61
1, 125248, Control_c, 0, 64, 105
1, 125263, Control_c, 0, 64, 106
1, 125284, Control_c, 0, 64, 106
1, 125299, Control_c, 0, 64, 107
1, 125300, Note_on_c, 0, 66, 71
1, 125324, Note_off_c, 0, 70, 63
1, 125329, Control_c, 0, 64, 107
1, 125344, Control_c, 0, 67, 19
1, 125357, Note_off_c, 0, 66, 65
1, 125360, Note_off_c, 0, 46, 48
1, 125369, Note_on_c, 0, 65, 64
1, 125400, Note_off_c, 0, 65, 65
1, 125403, Control_c, 0, 64, 108
1, 125415, Note_on_c, 0, 66, 58
1, 125448, Control_c, 0, 67, 18
1, 125455, Note_off_c, 0, 66, 62
1, 125485, Note_on_c, 0, 64, 66
1, 125542, Note_on_c, 0, 47, 63
1, 125544, Note_off_c, 0, 64, 63
1, 125553, Note_on_c, 0, 63, 70
1, 125556, Note_off_c, 0, 54, 51
1, 125566, Control_c, 0, 64, 104
1, 125566, Control_c, 0, 67, 19
1, 125581, Control_c, 0, 64, 94
1, 125581, Control_c, 0, 67, 19
1, 125596, Control_c, 0, 64, 78
1, 125596, Control_c, 0, 67, 20
1, 125610, Control_c, 0, 64, 51
1, 125614, Note_off_c, 0, 63, 64
1, 125616, Note_on_c, 0, 68, 63
1, 125625, Control_c, 0, 64, 0
1, 125625, Control_c, 0, 67, 20
1, 125655, Control_c, 0, 67, 21
1, 125674, Note_on_c, 0, 71, 66
1, 125679, Note_off_c, 0, 68, 63
1, 125684, Control_c, 0, 64, 66
1, 125699, Control_c, 0, 64, 75
1, 125714, Control_c, 0, 64, 87
1, 125714, Control_c, 0, 67, 20
1, 125725, Note_on_c, 0, 75, 66
1, 125726, Note_off_c, 0, 71, 60
1, 125729, Control_c, 0, 64, 94
1, 125729, Control_c, 0, 67, 20
1, 125730, Note_on_c, 0, 56, 65
1, 125744, Control_c, 0, 64, 96
1, 125759, Control_c, 0, 64, 99
1, 125774, Control_c, 0, 64, 102
1, 125779, Note_on_c, 0, 71, 61
1, 125789, Note_off_c, 0, 75, 62
1, 125789, Control_c, 0, 64, 106
1, 125803, Control_c, 0, 64, 109
1, 125818, Control_c, 0, 64, 111
1, 125833, Control_c, 0, 64, 112
1, 125847, Note_on_c, 0, 68, 73
1, 125848, Control_c, 0, 64, 113
1, 125854, Note_off_c, 0, 47, 37
1, 125863, Control_c, 0, 64, 114
1, 125877, Control_c, 0, 64, 115
1, 125886, Note_off_c, 0, 71, 56
1, 125892, Control_c, 0, 64, 115
1, 125907, Control_c, 0, 64, 116
1, 125912, Note_off_c, 0, 68, 64
1, 125918, Note_on_c, 0, 67, 68
1, 125952, Control_c, 0, 64, 116
1, 125963, Note_off_c, 0, 67, 61
1, 125979, Note_on_c, 0, 68, 61
1, 125996, Control_c, 0, 67, 19
1, 126041, Note_on_c, 0, 66, 72
1, 126051, Note_off_c, 0, 68, 63
1, 126064, Control_c, 0, 67, 20
1, 126094, Control_c, 0, 64, 114
1, 126094, Control_c, 0, 67, 20
1, 126101, Note_off_c, 0, 56, 37
1, 126101, Note_off_c, 0, 66, 65
1, 126107, Note_on_c, 0, 49, 63
1, 126108, Control_c, 0, 64, 102
1, 126108, Control_c, 0, 67, 21
1, 126115, Note_on_c, 0, 65, 61
1, 126123, Control_c, 0, 64, 85
1, 126123, Control_c, 0, 67, 21
1, 126138, Control_c, 0, 64, 66
1, 126138, Control_c, 0, 67, 22
1, 126145, Note_off_c, 0, 65, 64
1, 126151, Note_on_c, 0, 66, 57
1, 126152, Control_c, 0, 64, 0
1, 126152, Control_c, 0, 67, 22
1, 126182, Control_c, 0, 67, 23
1, 126197, Note_off_c, 0, 66, 65
1, 126197, Control_c, 0, 67, 24
1, 126212, Control_c, 0, 64, 57
1, 126212, Control_c, 0, 67, 26
1, 126226, Note_on_c, 0, 67, 78
1, 126226, Control_c, 0, 64, 70
1, 126226, Control_c, 0, 67, 26
1, 126241, Control_c, 0, 64, 78
1, 126256, Control_c, 0, 64, 86
1, 126270, Note_off_c, 0, 67, 55
1, 126271, Control_c, 0, 64, 90
1, 126271, Control_c, 0, 67, 26
1, 126287, Control_c, 0, 64, 93
1, 126298, Note_on_c, 0, 68, 70
1, 126301, Control_c, 0, 64, 96
1, 126304, Note_on_c, 0, 59, 55
1, 126316, Control_c, 0, 64, 99
1, 126331, Control_c, 0, 64, 102
1, 126331, Control_c, 0, 67, 26
1, 126346, Control_c, 0, 64, 104
1, 126346, Control_c, 0, 67, 27
1, 126347, Note_off_c, 0, 68, 62
1, 126350, Note_on_c, 0, 70, 68
1, 126360, Control_c, 0, 64, 105
1, 126360, Control_c, 0, 67, 27
1, 126375, Control_c, 0, 64, 106
1, 126375, Control_c, 0, 67, 29
1, 126376, Note_off_c, 0, 70, 67
1, 126390, Control_c, 0, 67, 32
1, 126405, Control_c, 0, 67, 40
1, 126407, Note_off_c, 0, 49, 56
1, 126418, Note_on_c, 0, 71, 54
1, 126420, Control_c, 0, 67, 52
1, 126435, Control_c, 0, 67, 71
1, 126448, Note_off_c, 0, 71, 49
1, 126450, Control_c, 0, 67, 89
1, 126465, Control_c, 0, 67, 108
1, 126475, Note_on_c, 0, 73, 69
1, 126479, Control_c, 0, 67, 127
1, 126509, Control_c, 0, 64, 104
1, 126515, Note_off_c, 0, 73, 60
1, 126524, Control_c, 0, 64, 102
1, 126530, Note_on_c, 0, 75, 67
1, 126539, Control_c, 0, 64, 99
1, 126553, Control_c, 0, 64, 94
1, 126555, Note_off_c, 0, 75, 70
1, 126568, Control_c, 0, 64, 87
1, 126583, Control_c, 0, 64, 78
1, 126598, Control_c, 0, 64, 67
1, 126600, Note_on_c, 0, 77, 67
1, 126613, Control_c, 0, 64, 18
1, 126627, Control_c, 0, 64, 0
1, 126644, Note_off_c, 0, 77, 62
1, 126659, Note_on_c, 0, 78, 64
1, 126670, Note_on_c, 0, 58, 52
1, 126675, Note_on_c, 0, 54, 41
1, 126701, Note_off_c, 0, 78, 60
1, 126709, Note_on_c, 0, 82, 63
1, 126744, Note_off_c, 0, 59, 35
1, 126778, Note_on_c, 0, 80, 69
1, 126778, Note_off_c, 0, 82, 61
1, 126834, Note_off_c, 0, 80, 63
1, 126840, Note_on_c, 0, 78, 60
1, 126873, Note_off_c, 0, 78, 65
1, 126891, Note_on_c, 0, 77, 61
1, 126921, Note_off_c, 0, 77, 65
1, 126933, Note_off_c, 0, 58, 62
1, 126963, Note_off_c, 0, 54, 55
1, 126965, Note_on_c, 0, 75, 67
1, 127022, Note_off_c, 0, 75, 65
1, 127027, Note_on_c, 0, 73, 56
1, 127058, Note_off_c, 0, 73, 65
1, 127085, Note_on_c, 0, 71, 46
1, 127108, Note_off_c, 0, 71, 57
1, 127141, Note_on_c, 0, 70, 64
1, 127204, Note_off_c, 0, 70, 58
1, 127207, Note_on_c, 0, 68, 65
1, 127210, Note_on_c, 0, 46, 53
1, 127243, Control_c, 0, 64, 49
1, 127248, Note_off_c, 0, 68, 62
1, 127257, Control_c, 0, 64, 69
1, 127272, Control_c, 0, 64, 78
1, 127279, Note_on_c, 0, 71, 52
1, 127287, Control_c, 0, 64, 89
1, 127302, Control_c, 0, 64, 96
1, 127317, Control_c, 0, 64, 100
1, 127326, Note_on_c, 0, 70, 63
1, 127332, Control_c, 0, 64, 102
1, 127332, Note_off_c, 0, 71, 50
1, 127334, Note_off_c, 0, 46, 56
1, 127347, Control_c, 0, 64, 105
1, 127362, Control_c, 0, 64, 108
1, 127376, Control_c, 0, 64, 112
1, 127390, Note_on_c, 0, 68, 63
1, 127391, Control_c, 0, 64, 116
1, 127395, Note_on_c, 0, 53, 50
1, 127406, Note_on_c, 0, 56, 43
1, 127406, Control_c, 0, 64, 119
1, 127412, Note_off_c, 0, 70, 56
1, 127421, Control_c, 0, 64, 121
1, 127424, Note_on_c, 0, 59, 45
1, 127436, Control_c, 0, 64, 121
1, 127446, Note_on_c, 0, 66, 63
1, 127448, Note_off_c, 0, 68, 64
1, 127451, Control_c, 0, 64, 122
1, 127466, Control_c, 0, 64, 123
1, 127478, Note_off_c, 0, 66, 68
1, 127496, Note_on_c, 0, 65, 61
1, 127525, Note_off_c, 0, 65, 67
1, 127531, Note_off_c, 0, 59, 55
1, 127559, Note_off_c, 0, 53, 60
1, 127570, Note_on_c, 0, 63, 71
1, 127571, Note_off_c, 0, 56, 47
1, 127604, Note_off_c, 0, 63, 64
1, 127638, Note_on_c, 0, 62, 54
1, 127684, Note_off_c, 0, 62, 57
1, 127690, Note_on_c, 0, 65, 68
1, 127726, Control_c, 0, 64, 122
1, 127741, Control_c, 0, 64, 119
1, 127746, Note_off_c, 0, 65, 63
1, 127752, Note_on_c, 0, 68, 67
1, 127755, Control_c, 0, 64, 112
1, 127770, Control_c, 0, 64, 103
1, 127785, Control_c, 0, 64, 90
1, 127788, Note_on_c, 0, 46, 58
1, 127796, Note_off_c, 0, 68, 64
1, 127799, Control_c, 0, 64, 74
1, 127810, Note_on_c, 0, 71, 62
1, 127814, Control_c, 0, 64, 0
1, 127857, Note_off_c, 0, 71, 52
1, 127865, Note_on_c, 0, 70, 62
1, 127917, Control_c, 0, 64, 64
1, 127928, Note_on_c, 0, 68, 63
1, 127932, Control_c, 0, 64, 71
1, 127947, Control_c, 0, 64, 79
1, 127952, Note_on_c, 0, 59, 53
1, 127954, Note_on_c, 0, 53, 47
1, 127962, Control_c, 0, 64, 86
1, 127964, Note_on_c, 0, 56, 53
1, 127965, Note_off_c, 0, 70, 58
1, 127977, Control_c, 0, 64, 91
1, 127991, Control_c, 0, 64, 94
1, 127994, Note_on_c, 0, 66, 64
1, 127997, Note_off_c, 0, 68, 64
1, 128006, Control_c, 0, 64, 96
1, 128021, Control_c, 0, 64, 97
1, 128032, Note_off_c, 0, 66, 65
1, 128036, Control_c, 0, 64, 99
1, 128043, Note_on_c, 0, 65, 66
1, 128051, Control_c, 0, 64, 102
1, 128065, Control_c, 0, 64, 103
1, 128071, Note_off_c, 0, 65, 68
1, 128080, Control_c, 0, 64, 104
1, 128092, Note_off_c, 0, 59, 50
1, 128095, Note_off_c, 0, 46, 34
1, 128095, Control_c, 0, 64, 105
1, 128110, Control_c, 0, 64, 106
1, 128116, Note_on_c, 0, 63, 69
1, 128118, Note_off_c, 0, 53, 59
1, 128123, Note_off_c, 0, 56, 59
1, 128125, Control_c, 0, 64, 106
1, 128155, Control_c, 0, 64, 107
1, 128156, Note_off_c, 0, 63, 63
1, 128179, Note_on_c, 0, 62, 61
1, 128235, Note_off_c, 0, 62, 56
1, 128238, Note_on_c, 0, 65, 70
1, 128313, Note_off_c, 0, 65, 63
1, 128318, Note_on_c, 0, 68, 64
1, 128327, Note_on_c, 0, 46, 53
1, 128340, Control_c, 0, 64, 105
1, 128354, Control_c, 0, 64, 101
1, 128369, Note_off_c, 0, 68, 63
1, 128369, Control_c, 0, 64, 92
1, 128383, Note_on_c, 0, 71, 62
1, 128384, Control_c, 0, 64, 79
1, 128399, Control_c, 0, 64, 51
1, 128414, Control_c, 0, 64, 0
1, 128438, Note_off_c, 0, 71, 51
1, 128441, Note_on_c, 0, 70, 61
1, 128495, Note_on_c, 0, 59, 50
1, 128503, Note_on_c, 0, 68, 64
1, 128513, Note_on_c, 0, 53, 47
1, 128515, Note_on_c, 0, 56, 49
1, 128533, Control_c, 0, 64, 52
1, 128536, Note_off_c, 0, 70, 61
1, 128548, Control_c, 0, 64, 67
1, 128562, Note_on_c, 0, 66, 61
1, 128563, Control_c, 0, 64, 74
1, 128564, Note_off_c, 0, 68, 64
1, 128578, Control_c, 0, 64, 81
1, 128593, Control_c, 0, 64, 87
1, 128596, Note_off_c, 0, 66, 67
1, 128608, Note_on_c, 0, 65, 67
1, 128608, Control_c, 0, 64, 90
1, 128622, Control_c, 0, 64, 93
1, 128636, Note_off_c, 0, 65, 68
1, 128637, Control_c, 0, 64, 95
1, 128652, Control_c, 0, 64, 97
1, 128667, Control_c, 0, 64, 100
1, 128679, Note_on_c, 0, 63, 71
1, 128682, Control_c, 0, 64, 102
1, 128696, Control_c, 0, 64, 104
1, 128711, Control_c, 0, 64, 105
1, 128718, Note_off_c, 0, 63, 63
1, 128726, Control_c, 0, 64, 105
1, 128739, Note_on_c, 0, 62, 63
1, 128740, Control_c, 0, 64, 106
1, 128755, Control_c, 0, 64, 106
1, 128770, Control_c, 0, 64, 107
1, 128785, Control_c, 0, 64, 107
1, 128791, Note_off_c, 0, 62, 58
1, 128798, Note_on_c, 0, 65, 69
1, 128814, Control_c, 0, 64, 108
1, 128829, Control_c, 0, 64, 109
1, 128844, Control_c, 0, 64, 111
1, 128856, Note_on_c, 0, 68, 72
1, 128859, Control_c, 0, 64, 112
1, 128864, Note_off_c, 0, 65, 65
1, 128874, Control_c, 0, 64, 113
1, 128877, Note_off_c, 0, 46, 51
1, 128888, Control_c, 0, 64, 115
1, 128888, Control_c, 0, 67, 123
1, 128900, Note_off_c, 0, 59, 36
1, 128903, Control_c, 0, 64, 118
1, 128903, Control_c, 0, 67, 118
1, 128909, Note_on_c, 0, 71, 61
1, 128917, Note_off_c, 0, 68, 62
1, 128918, Control_c, 0, 64, 123
1, 128918, Control_c, 0, 67, 113
1, 128933, Note_off_c, 0, 53, 61
1, 128933, Control_c, 0, 64, 127
1, 128933, Control_c, 0, 67, 106
1, 128940, Note_off_c, 0, 56, 57
1, 128945, Note_off_c, 0, 71, 62
1, 128948, Note_on_c, 0, 74, 64
1, 128948, Control_c, 0, 67, 98
1, 128963, Control_c, 0, 67, 87
1, 128972, Note_off_c, 0, 74, 70
1, 128977, Control_c, 0, 67, 80
1, 128992, Control_c, 0, 67, 76
1, 129007, Control_c, 0, 67, 74
1, 129010, Note_on_c, 0, 71, 68
1, 129029, Control_c, 0, 67, 74
1, 129044, Control_c, 0, 67, 73
1, 129059, Control_c, 0, 67, 72
1, 129073, Control_c, 0, 67, 72
1, 129076, Note_off_c, 0, 71, 59
1, 129079, Note_on_c, 0, 74, 68
1, 129103, Control_c, 0, 67, 71
1, 129118, Control_c, 0, 67, 70
1, 129132, Note_on_c, 0, 77, 76
1, 129133, Note_off_c, 0, 74, 65
1, 129133, Control_c, 0, 67, 68
1, 129147, Control_c, 0, 67, 66
1, 129158, Note_off_c, 0, 77, 63
1, 129162, Control_c, 0, 67, 65
1, 129202, Note_on_c, 0, 74, 61
1, 129261, Note_on_c, 0, 77, 81
1, 129263, Note_off_c, 0, 74, 60
1, 129282, Control_c, 0, 67, 65
1, 129324, Note_off_c, 0, 77, 62
1, 129327, Note_on_c, 0, 78, 77
1, 129341, Control_c, 0, 67, 66
1, 129356, Control_c, 0, 67, 66
1, 129371, Control_c, 0, 67, 67
1, 129386, Control_c, 0, 67, 68
1, 129397, Note_on_c, 0, 80, 70
1, 129400, Note_off_c, 0, 78, 64
1, 129401, Control_c, 0, 67, 68
1, 129409, Note_on_c, 0, 58, 53
1, 129416, Control_c, 0, 64, 117
1, 129416, Control_c, 0, 67, 69
1, 129431, Control_c, 0, 64, 100
1, 129431, Control_c, 0, 67, 70
1, 129445, Control_c, 0, 64, 79
1, 129445, Control_c, 0, 67, 71
1, 129453, Note_off_c, 0, 80, 65
1, 129457, Note_on_c, 0, 83, 70
1, 129460, Control_c, 0, 64, 44
1, 129460, Control_c, 0, 67, 72
1, 129475, Control_c, 0, 64, 0
1, 129519, Control_c, 0, 67, 71
1, 129532, Note_off_c, 0, 83, 49
1, 129534, Control_c, 0, 64, 54
1, 129534, Control_c, 0, 67, 71
1, 129537, Note_on_c, 0, 82, 69
1, 129549, Control_c, 0, 64, 70
1, 129563, Control_c, 0, 64, 78
1, 129563, Control_c, 0, 67, 70
1, 129578, Control_c, 0, 64, 85
1, 129578, Control_c, 0, 67, 70
1, 129586, Note_on_c, 0, 80, 67
1, 129593, Control_c, 0, 64, 91
1, 129607, Note_on_c, 0, 65, 41
1, 129608, Control_c, 0, 64, 95
1, 129618, Note_on_c, 0, 71, 53
1, 129620, Note_on_c, 0, 68, 51
1, 129623, Control_c, 0, 64, 98
1, 129624, Note_off_c, 0, 82, 59
1, 129637, Control_c, 0, 64, 102
1, 129652, Control_c, 0, 64, 104
1, 129652, Control_c, 0, 67, 70
1, 129654, Note_on_c, 0, 78, 66
1, 129656, Note_off_c, 0, 80, 64
1, 129667, Control_c, 0, 64, 107
1, 129667, Control_c, 0, 67, 70
1, 129682, Control_c, 0, 64, 109
1, 129686, Note_off_c, 0, 78, 64
1, 129696, Control_c, 0, 64, 110
1, 129705, Note_on_c, 0, 77, 60
1, 129711, Control_c, 0, 64, 112
1, 129726, Note_off_c, 0, 77, 64
1, 129726, Control_c, 0, 64, 113
1, 129741, Control_c, 0, 64, 115
1, 129756, Control_c, 0, 64, 116
1, 129756, Control_c, 0, 67, 70
1, 129778, Control_c, 0, 64, 117
1, 129779, Note_on_c, 0, 75, 74
1, 129793, Control_c, 0, 64, 118
1, 129793, Control_c, 0, 67, 71
1, 129800, Note_off_c, 0, 58, 38
1, 129808, Control_c, 0, 64, 118
1, 129821, Note_off_c, 0, 75, 64
1, 129823, Control_c, 0, 64, 119
1, 129844, Note_on_c, 0, 74, 53
1, 129864, Note_off_c, 0, 65, 37
1, 129882, Control_c, 0, 67, 70
1, 129888, Note_off_c, 0, 74, 55
1, 129893, Note_off_c, 0, 71, 29
1, 129899, Note_on_c, 0, 77, 68
1, 129917, Note_off_c, 0, 68, 38
1, 129958, Note_off_c, 0, 77, 60
1, 129964, Note_on_c, 0, 80, 65
1, 129970, Control_c, 0, 67, 71
1, 130000, Control_c, 0, 67, 71
1, 130003, Note_on_c, 0, 58, 59
1, 130010, Note_off_c, 0, 80, 61
1, 130015, Control_c, 0, 67, 72
1, 130027, Note_on_c, 0, 83, 65
1, 130031, Control_c, 0, 64, 114
1, 130047, Control_c, 0, 64, 104
1, 130047, Control_c, 0, 67, 73
1, 130062, Control_c, 0, 64, 89
1, 130062, Control_c, 0, 67, 73
1, 130076, Control_c, 0, 64, 71
1, 130076, Control_c, 0, 67, 74
1, 130080, Note_off_c, 0, 83, 50
1, 130086, Note_on_c, 0, 82, 61
1, 130091, Control_c, 0, 64, 0
1, 130120, Control_c, 0, 67, 75
1, 130152, Note_on_c, 0, 80, 65
1, 130165, Control_c, 0, 64, 50
1, 130180, Control_c, 0, 64, 67
1, 130183, Note_off_c, 0, 82, 60
1, 130194, Control_c, 0, 64, 73
1, 130194, Control_c, 0, 67, 74
1, 130198, Note_on_c, 0, 71, 49
1, 130201, Note_on_c, 0, 65, 41
1, 130203, Note_on_c, 0, 68, 50
1, 130209, Control_c, 0, 64, 81
1, 130220, Note_off_c, 0, 80, 64
1, 130220, Note_on_c, 0, 78, 61
1, 130224, Control_c, 0, 64, 85
1, 130239, Control_c, 0, 64, 89
1, 130252, Note_off_c, 0, 78, 65
1, 130254, Control_c, 0, 64, 92
1, 130268, Note_on_c, 0, 77, 62
1, 130268, Control_c, 0, 64, 94
1, 130283, Control_c, 0, 64, 96
1, 130295, Note_off_c, 0, 77, 66
1, 130298, Control_c, 0, 64, 97
1, 130313, Control_c, 0, 64, 99
1, 130328, Control_c, 0, 64, 101
1, 130328, Control_c, 0, 67, 74
1, 130340, Note_on_c, 0, 75, 70
1, 130343, Control_c, 0, 64, 102
1, 130358, Control_c, 0, 64, 103
1, 130372, Control_c, 0, 64, 104
1, 130387, Control_c, 0, 64, 104
1, 130389, Note_off_c, 0, 75, 64
1, 130405, Note_on_c, 0, 74, 61
1, 130432, Control_c, 0, 64, 105
1, 130447, Control_c, 0, 67, 73
1, 130463, Note_off_c, 0, 74, 63
1, 130465, Note_on_c, 0, 77, 72
1, 130476, Control_c, 0, 67, 73
1, 130542, Control_c, 0, 67, 73
1, 130564, Note_off_c, 0, 77, 59
1, 130566, Note_on_c, 0, 80, 67
1, 130572, Control_c, 0, 67, 74
1, 130587, Control_c, 0, 67, 75
1, 130602, Control_c, 0, 64, 103
1, 130602, Control_c, 0, 67, 77
1, 130617, Control_c, 0, 64, 96
1, 130617, Control_c, 0, 67, 83
1, 130629, Note_off_c, 0, 80, 63
1, 130632, Control_c, 0, 64, 83
1, 130632, Control_c, 0, 67, 101
1, 130638, Note_on_c, 0, 83, 67
1, 130647, Control_c, 0, 64, 65
1, 130647, Control_c, 0, 67, 127
1, 130662, Control_c, 0, 64, 0
1, 130694, Note_off_c, 0, 83, 53
1, 130717, Note_on_c, 0, 80, 66
1, 130720, Control_c, 0, 64, 41
1, 130735, Control_c, 0, 64, 68
1, 130750, Control_c, 0, 64, 76
1, 130765, Control_c, 0, 64, 86
1, 130768, Note_off_c, 0, 80, 61
1, 130780, Control_c, 0, 64, 91
1, 130789, Note_on_c, 0, 83, 64
1, 130794, Control_c, 0, 64, 93
1, 130809, Control_c, 0, 64, 95
1, 130821, Note_off_c, 0, 83, 58
1, 130824, Control_c, 0, 64, 97
1, 130840, Control_c, 0, 64, 99
1, 130855, Control_c, 0, 64, 102
1, 130864, Note_on_c, 0, 80, 66
1, 130870, Control_c, 0, 64, 103
1, 130885, Control_c, 0, 64, 103
1, 130905, Note_off_c, 0, 80, 59
1, 130926, Note_on_c, 0, 83, 63
1, 130958, Note_off_c, 0, 83, 58
1, 131006, Note_on_c, 0, 80, 66
1, 131040, Note_off_c, 0, 80, 62
1, 131064, Note_on_c, 0, 83, 64
1, 131079, Note_off_c, 0, 71, 37
1, 131101, Note_off_c, 0, 83, 54
1, 131139, Note_on_c, 0, 80, 69
1, 131195, Note_off_c, 0, 80, 57
1, 131225, Control_c, 0, 64, 99
1, 131234, Note_on_c, 0, 82, 62
1, 131240, Control_c, 0, 64, 91
1, 131252, Note_on_c, 0, 70, 41
1, 131255, Control_c, 0, 64, 77
1, 131277, Control_c, 0, 64, 0
1, 131282, Note_off_c, 0, 82, 57
1, 131317, Note_on_c, 0, 80, 58
1, 131358, Note_off_c, 0, 80, 63
1, 131380, Control_c, 0, 64, 64
1, 131386, Note_on_c, 0, 82, 61
1, 131395, Control_c, 0, 64, 71
1, 131410, Control_c, 0, 64, 78
1, 131423, Note_off_c, 0, 70, 40
1, 131425, Control_c, 0, 64, 84
1, 131426, Note_off_c, 0, 82, 56
1, 131440, Control_c, 0, 64, 87
1, 131455, Control_c, 0, 64, 89
1, 131458, Note_on_c, 0, 80, 64
1, 131466, Note_off_c, 0, 68, 58
1, 131469, Control_c, 0, 64, 91
1, 131481, Note_off_c, 0, 65, 42
1, 131484, Control_c, 0, 64, 92
1, 131498, Note_off_c, 0, 80, 58
1, 131499, Control_c, 0, 64, 94
1, 131505, Note_off_c, 0, 58, 42
1, 131514, Control_c, 0, 64, 95
1, 131529, Control_c, 0, 64, 97
1, 131532, Note_on_c, 0, 82, 60
1, 131541, Control_c, 0, 64, 98
1, 131556, Control_c, 0, 64, 98
1, 131568, Note_off_c, 0, 82, 58
1, 131586, Control_c, 0, 64, 99
1, 131601, Control_c, 0, 64, 99
1, 131605, Note_on_c, 0, 80, 61
1, 131641, Note_off_c, 0, 80, 64
1, 131669, Note_on_c, 0, 82, 59
1, 131718, Note_off_c, 0, 82, 56
1, 131752, Note_on_c, 0, 80, 56
1, 131777, Note_off_c, 0, 80, 58
1, 131824, Note_on_c, 0, 82, 61
1, 131862, Note_off_c, 0, 82, 58
1, 131911, Note_on_c, 0, 79, 65
1, 131913, Control_c, 0, 64, 96
1, 131915, Note_on_c, 0, 51, 45
1, 131928, Control_c, 0, 64, 85
1, 131943, Control_c, 0, 64, 70
1, 131946, Note_off_c, 0, 79, 59
1, 131957, Control_c, 0, 64, 0
1, 131967, Note_on_c, 0, 82, 56
1, 132041, Note_on_c, 0, 80, 67
1, 132045, Note_off_c, 0, 82, 57
1, 132054, Control_c, 0, 64, 54
1, 132069, Control_c, 0, 64, 66
1, 132084, Control_c, 0, 64, 69
1, 132098, Note_off_c, 0, 80, 63
1, 132098, Control_c, 0, 64, 71
1, 132107, Note_on_c, 0, 79, 57
1, 132113, Control_c, 0, 64, 72
1, 132127, Note_on_c, 0, 58, 44
1, 132128, Control_c, 0, 64, 75
1, 132133, Note_off_c, 0, 79, 59
1, 132143, Control_c, 0, 64, 77
1, 132158, Note_on_c, 0, 77, 59
1, 132158, Control_c, 0, 64, 79
1, 132172, Control_c, 0, 64, 80
1, 132187, Control_c, 0, 64, 81
1, 132200, Note_off_c, 0, 77, 62
1, 132202, Control_c, 0, 64, 81
1, 132236, Note_on_c, 0, 75, 62
1, 132261, Control_c, 0, 64, 82
1, 132282, Note_off_c, 0, 75, 64
1, 132289, Note_on_c, 0, 74, 61
1, 132317, Note_off_c, 0, 74, 67
1, 132342, Note_on_c, 0, 72, 60
1, 132367, Note_off_c, 0, 72, 61
1, 132408, Note_on_c, 0, 70, 70
1, 132439, Note_off_c, 0, 58, 55
1, 132460, Note_on_c, 0, 53, 58
1, 132469, Note_on_c, 0, 68, 63
1, 132469, Control_c, 0, 64, 81
1, 132480, Note_off_c, 0, 70, 55
1, 132484, Control_c, 0, 64, 78
1, 132499, Control_c, 0, 64, 70
1, 132513, Note_off_c, 0, 51, 55
1, 132513, Control_c, 0, 64, 0
1, 132522, Note_on_c, 0, 67, 67
1, 132528, Note_off_c, 0, 68, 64
1, 132557, Note_off_c, 0, 67, 63
1, 132573, Note_on_c, 0, 65, 58
1, 132614, Note_off_c, 0, 65, 65
1, 132617, Control_c, 0, 64, 49
1, 132632, Control_c, 0, 64, 60
1, 132647, Note_on_c, 0, 63, 68
1, 132647, Control_c, 0, 64, 61
1, 132656, Note_on_c, 0, 58, 53
1, 132662, Control_c, 0, 64, 62
1, 132677, Control_c, 0, 64, 64
1, 132692, Control_c, 0, 64, 65
1, 132695, Note_off_c, 0, 58, 58
1, 132705, Note_on_c, 0, 62, 62
1, 132706, Control_c, 0, 64, 66
1, 132707, Note_off_c, 0, 63, 65
1, 132736, Control_c, 0, 64, 65
1, 132739, Note_off_c, 0, 62, 62
1, 132754, Note_on_c, 0, 60, 61
1, 132793, Note_off_c, 0, 60, 60
1, 132829, Note_on_c, 0, 58, 61
1, 132861, Note_off_c, 0, 58, 68
1, 132877, Note_on_c, 0, 60, 64
1, 132906, Control_c, 0, 64, 64
1, 132921, Control_c, 0, 64, 62
1, 132922, Note_off_c, 0, 60, 60
1, 132936, Control_c, 0, 64, 46
1, 132939, Note_on_c, 0, 62, 62
1, 132951, Control_c, 0, 64, 0
1, 132990, Note_off_c, 0, 62, 61
1, 132994, Note_on_c, 0, 63, 67
1, 133002, Note_off_c, 0, 53, 62
1, 133005, Note_on_c, 0, 55, 61
1, 133028, Note_off_c, 0, 63, 65
1, 133048, Note_on_c, 0, 62, 61
1, 133070, Control_c, 0, 64, 63
1, 133085, Control_c, 0, 64, 73
1, 133098, Note_off_c, 0, 62, 59
1, 133100, Control_c, 0, 64, 80
1, 133114, Control_c, 0, 64, 88
1, 133115, Note_on_c, 0, 63, 68
1, 133129, Control_c, 0, 64, 92
1, 133144, Control_c, 0, 64, 95
1, 133144, Control_c, 0, 67, 122
1, 133159, Control_c, 0, 64, 98
1, 133159, Control_c, 0, 67, 108
1, 133168, Note_off_c, 0, 63, 61
1, 133174, Control_c, 0, 64, 101
1, 133174, Control_c, 0, 67, 94
1, 133179, Note_on_c, 0, 64, 67
1, 133188, Control_c, 0, 64, 105
1, 133188, Control_c, 0, 67, 77
1, 133190, Note_on_c, 0, 58, 46
1, 133203, Control_c, 0, 64, 109
1, 133203, Control_c, 0, 67, 56
1, 133218, Control_c, 0, 64, 111
1, 133218, Control_c, 0, 67, 40
1, 133234, Control_c, 0, 64, 111
1, 133234, Control_c, 0, 67, 31
1, 133234, Note_on_c, 0, 63, 61
1, 133237, Note_off_c, 0, 64, 65
1, 133249, Control_c, 0, 64, 112
1, 133249, Control_c, 0, 67, 29
1, 133274, Note_off_c, 0, 63, 63
1, 133283, Note_on_c, 0, 64, 59
1, 133341, Note_off_c, 0, 64, 62
1, 133346, Note_on_c, 0, 65, 72
1, 133352, Control_c, 0, 67, 29
1, 133367, Control_c, 0, 67, 30
1, 133382, Control_c, 0, 67, 30
1, 133385, Note_off_c, 0, 65, 58
1, 133397, Control_c, 0, 67, 31
1, 133411, Control_c, 0, 67, 33
1, 133414, Note_on_c, 0, 64, 53
1, 133426, Control_c, 0, 67, 35
1, 133441, Control_c, 0, 67, 36
1, 133449, Note_off_c, 0, 64, 54
1, 133456, Control_c, 0, 67, 38
1, 133471, Control_c, 0, 67, 41
1, 133473, Note_on_c, 0, 65, 63
1, 133485, Control_c, 0, 64, 110
1, 133485, Control_c, 0, 67, 45
1, 133499, Note_off_c, 0, 58, 37
1, 133500, Control_c, 0, 64, 105
1, 133500, Control_c, 0, 67, 52
1, 133523, Control_c, 0, 64, 96
1, 133523, Control_c, 0, 67, 67
1, 133524, Note_off_c, 0, 65, 65
1, 133529, Note_on_c, 0, 66, 68
1, 133536, Note_on_c, 0, 50, 52
1, 133537, Control_c, 0, 64, 82
1, 133537, Control_c, 0, 67, 87
1, 133552, Control_c, 0, 64, 65
1, 133552, Control_c, 0, 67, 114
1, 133559, Note_off_c, 0, 66, 68
1, 133567, Control_c, 0, 64, 0
1, 133567, Control_c, 0, 67, 127
1, 133591, Note_on_c, 0, 65, 35
1, 133610, Note_off_c, 0, 55, 38
1, 133617, Note_off_c, 0, 65, 54
1, 133642, Note_on_c, 0, 66, 71
1, 133671, Control_c, 0, 64, 66
1, 133685, Control_c, 0, 64, 72
1, 133687, Note_off_c, 0, 66, 61
1, 133700, Control_c, 0, 64, 78
1, 133714, Note_on_c, 0, 67, 63
1, 133715, Control_c, 0, 64, 83
1, 133720, Note_on_c, 0, 58, 56
1, 133730, Control_c, 0, 64, 86
1, 133744, Control_c, 0, 64, 88
1, 133749, Note_off_c, 0, 67, 62
1, 133756, Note_on_c, 0, 66, 70
1, 133759, Control_c, 0, 64, 90
1, 133774, Control_c, 0, 64, 91
1, 133789, Control_c, 0, 64, 92
1, 133804, Control_c, 0, 64, 93
1, 133805, Note_off_c, 0, 66, 65
1, 133818, Control_c, 0, 64, 94
1, 133829, Note_on_c, 0, 67, 61
1, 133877, Note_off_c, 0, 67, 59
1, 133881, Note_on_c, 0, 68, 74
1, 133920, Note_off_c, 0, 68, 61
1, 133943, Note_on_c, 0, 67, 55
1, 133988, Note_off_c, 0, 67, 64
1, 133998, Note_on_c, 0, 68, 67
1, 134040, Note_off_c, 0, 68, 57
1, 134041, Control_c, 0, 64, 90
1, 134048, Note_off_c, 0, 58, 41
1, 134056, Control_c, 0, 64, 82
1, 134063, Note_on_c, 0, 67, 62
1, 134066, Note_on_c, 0, 51, 61
1, 134069, Note_off_c, 0, 50, 51
1, 134071, Control_c, 0, 64, 67
1, 134086, Control_c, 0, 64, 0
1, 134107, Note_off_c, 0, 67, 63
1, 134116, Note_on_c, 0, 70, 65
1, 134174, Control_c, 0, 64, 65
1, 134176, Note_on_c, 0, 68, 64
1, 134177, Note_off_c, 0, 70, 62
1, 134189, Control_c, 0, 64, 74
1, 134204, Control_c, 0, 64, 82
1, 134217, Note_off_c, 0, 68, 63
1, 134219, Control_c, 0, 64, 88
1, 134227, Note_on_c, 0, 67, 69
1, 134233, Control_c, 0, 64, 91
1, 134248, Control_c, 0, 64, 92
1, 134250, Note_on_c, 0, 58, 62
1, 134271, Control_c, 0, 64, 93
1, 134285, Control_c, 0, 64, 95
1, 134286, Note_off_c, 0, 67, 59
1, 134292, Note_on_c, 0, 68, 63
1, 134299, Note_off_c, 0, 58, 57
1, 134300, Control_c, 0, 64, 96
1, 134315, Control_c, 0, 64, 98
1, 134330, Control_c, 0, 64, 98
1, 134337, Note_off_c, 0, 68, 62
1, 134343, Note_on_c, 0, 70, 70
1, 134345, Control_c, 0, 64, 99
1, 134346, Note_off_c, 0, 51, 61
1, 134359, Control_c, 0, 64, 99
1, 134370, Note_off_c, 0, 70, 67
1, 134374, Control_c, 0, 64, 100
1, 134389, Control_c, 0, 64, 101
1, 134409, Note_on_c, 0, 72, 67
1, 134459, Note_off_c, 0, 72, 44
1, 134475, Note_on_c, 0, 74, 68
1, 134517, Note_off_c, 0, 74, 62
1, 134529, Note_on_c, 0, 75, 66
1, 134552, Control_c, 0, 64, 98
1, 134557, Note_off_c, 0, 75, 70
1, 134567, Control_c, 0, 64, 88
1, 134582, Control_c, 0, 64, 72
1, 134587, Note_on_c, 0, 77, 68
1, 134596, Control_c, 0, 64, 0
1, 134598, Note_on_c, 0, 44, 64
1, 134641, Note_off_c, 0, 77, 61
1, 134669, Note_on_c, 0, 84, 56
1, 134671, Control_c, 0, 64, 66
1, 134685, Note_off_c, 0, 44, 65
1, 134685, Control_c, 0, 64, 76
1, 134695, Note_off_c, 0, 84, 60
1, 134700, Control_c, 0, 64, 86
1, 134713, Note_on_c, 0, 82, 73
1, 134715, Control_c, 0, 64, 94
1, 134730, Control_c, 0, 64, 96
1, 134745, Control_c, 0, 64, 98
1, 134759, Control_c, 0, 64, 100
1, 134774, Control_c, 0, 64, 102
1, 134789, Control_c, 0, 64, 105
1, 134791, Note_on_c, 0, 80, 64
1, 134804, Control_c, 0, 64, 107
1, 134810, Note_on_c, 0, 60, 63
1, 134811, Note_off_c, 0, 82, 56
1, 134817, Note_on_c, 0, 56, 55
1, 134819, Control_c, 0, 64, 107
1, 134835, Control_c, 0, 64, 108
1, 134849, Note_on_c, 0, 79, 61
1, 134850, Control_c, 0, 64, 109
1, 134850, Note_off_c, 0, 80, 64
1, 134864, Control_c, 0, 64, 109
1, 134879, Control_c, 0, 64, 110
1, 134883, Note_off_c, 0, 79, 62
1, 134894, Control_c, 0, 64, 110
1, 134895, Note_on_c, 0, 77, 63
1, 134895, Note_off_c, 0, 60, 60
1, 134934, Note_off_c, 0, 56, 63
1, 134945, Note_off_c, 0, 77, 59
1, 134975, Note_on_c, 0, 75, 71
1, 135036, Note_on_c, 0, 74, 62
1, 135037, Note_off_c, 0, 75, 68
1, 135082, Note_off_c, 0, 74, 63
1, 135088, Note_on_c, 0, 72, 70
1, 135094, Control_c, 0, 64, 105
1, 135109, Control_c, 0, 64, 93
1, 135123, Control_c, 0, 64, 76
1, 135138, Control_c, 0, 64, 0
1, 135149, Note_off_c, 0, 72, 60
1, 135160, Note_on_c, 0, 74, 65
1, 135163, Note_on_c, 0, 46, 73
1, 135212, Control_c, 0, 64, 64
1, 135225, Note_off_c, 0, 74, 65
1, 135226, Note_on_c, 0, 77, 70
1, 135227, Control_c, 0, 64, 74
1, 135228, Note_off_c, 0, 46, 63
1, 135242, Control_c, 0, 64, 85
1, 135256, Control_c, 0, 64, 97
1, 135256, Control_c, 0, 67, 127
1, 135271, Control_c, 0, 64, 104
1, 135271, Control_c, 0, 67, 103
1, 135285, Note_on_c, 0, 75, 68
1, 135286, Control_c, 0, 64, 108
1, 135286, Control_c, 0, 67, 74
1, 135288, Note_off_c, 0, 77, 60
1, 135301, Control_c, 0, 64, 111
1, 135301, Control_c, 0, 67, 44
1, 135315, Control_c, 0, 64, 114
1, 135315, Control_c, 0, 67, 20
1, 135330, Control_c, 0, 64, 117
1, 135330, Control_c, 0, 67, 0
1, 135343, Note_off_c, 0, 75, 65
1, 135345, Control_c, 0, 64, 119
1, 135348, Note_on_c, 0, 74, 67
1, 135360, Control_c, 0, 64, 121
1, 135363, Note_on_c, 0, 65, 59
1, 135368, Note_on_c, 0, 58, 54
1, 135375, Control_c, 0, 64, 124
1, 135377, Note_on_c, 0, 56, 52
1, 135389, Control_c, 0, 64, 127
1, 135394, Note_off_c, 0, 74, 61
1, 135395, Note_on_c, 0, 75, 63
1, 135446, Note_off_c, 0, 75, 66
1, 135461, Note_off_c, 0, 65, 56
1, 135466, Note_on_c, 0, 77, 69
1, 135521, Note_off_c, 0, 56, 60
1, 135521, Note_off_c, 0, 58, 60
1, 135526, Note_off_c, 0, 77, 56
1, 135539, Note_on_c, 0, 79, 68
1, 135571, Note_off_c, 0, 79, 61
1, 135586, Note_on_c, 0, 80, 68
1, 135624, Note_off_c, 0, 80, 64
1, 135635, Note_on_c, 0, 82, 67
1, 135687, Control_c, 0, 64, 111
1, 135702, Control_c, 0, 64, 94
1, 135712, Note_on_c, 0, 75, 69
1, 135717, Control_c, 0, 64, 75
1, 135720, Note_off_c, 0, 82, 63
1, 135725, Note_on_c, 0, 51, 58
1, 135731, Control_c, 0, 64, 0
1, 135760, Note_off_c, 0, 75, 66
1, 135778, Note_on_c, 0, 77, 67
1, 135783, Control_c, 0, 64, 28
1, 135798, Control_c, 0, 64, 65
1, 135813, Control_c, 0, 64, 72
1, 135828, Control_c, 0, 64, 79
1, 135842, Control_c, 0, 64, 87
1, 135847, Note_on_c, 0, 79, 69
1, 135851, Note_off_c, 0, 77, 52
1, 135857, Control_c, 0, 64, 92
1, 135872, Control_c, 0, 64, 96
1, 135887, Control_c, 0, 64, 99
1, 135895, Note_on_c, 0, 80, 75
1, 135895, Note_off_c, 0, 79, 61
1, 135902, Control_c, 0, 64, 103
1, 135917, Control_c, 0, 64, 108
1, 135920, Note_on_c, 0, 55, 48
1, 135927, Note_on_c, 0, 63, 52
1, 135929, Note_on_c, 0, 58, 50
1, 135932, Control_c, 0, 64, 111
1, 135941, Note_off_c, 0, 80, 63
1, 135944, Note_on_c, 0, 82, 69
1, 135946, Control_c, 0, 64, 114
1, 135961, Control_c, 0, 64, 116
1, 135968, Note_off_c, 0, 82, 69
1, 135976, Control_c, 0, 64, 118
1, 135991, Control_c, 0, 64, 119
1, 136000, Note_off_c, 0, 63, 63
1, 136005, Control_c, 0, 64, 120
1, 136011, Note_off_c, 0, 55, 63
1, 136012, Note_on_c, 0, 84, 74
1, 136020, Control_c, 0, 64, 121
1, 136031, Note_off_c, 0, 58, 61
1, 136051, Control_c, 0, 64, 122
1, 136066, Note_off_c, 0, 51, 39
1, 136069, Note_off_c, 0, 84, 62
1, 136077, Note_on_c, 0, 86, 71
1, 136080, Control_c, 0, 64, 122
1, 136117, Note_off_c, 0, 86, 61
1, 136124, Note_on_c, 0, 87, 70
1, 136162, Note_off_c, 0, 87, 62
1, 136194, Note_on_c, 0, 89, 66
1, 136259, Note_on_c, 0, 51, 51
1, 136260, Note_off_c, 0, 89, 61
1, 136272, Control_c, 0, 64, 122
1, 136274, Note_on_c, 0, 91, 65
1, 136287, Control_c, 0, 64, 121
1, 136302, Control_c, 0, 64, 112
1, 136317, Control_c, 0, 64, 97
1, 136325, Note_off_c, 0, 91, 59
1, 136325, Note_on_c, 0, 94, 66
1, 136331, Control_c, 0, 64, 77
1, 136346, Control_c, 0, 64, 47
1, 136361, Control_c, 0, 64, 0
1, 136386, Note_on_c, 0, 92, 70
1, 136392, Note_off_c, 0, 94, 59
1, 136406, Control_c, 0, 64, 51
1, 136421, Control_c, 0, 64, 67
1, 136436, Control_c, 0, 64, 77
1, 136442, Note_off_c, 0, 92, 65
1, 136451, Control_c, 0, 64, 86
1, 136453, Note_on_c, 0, 91, 64
1, 136457, Note_on_c, 0, 58, 55
1, 136466, Control_c, 0, 64, 94
1, 136480, Note_off_c, 0, 91, 63
1, 136481, Control_c, 0, 64, 99
1, 136496, Control_c, 0, 64, 102
1, 136500, Note_on_c, 0, 89, 60
1, 136518, Control_c, 0, 64, 104
1, 136533, Control_c, 0, 64, 105
1, 136538, Note_off_c, 0, 89, 67
1, 136548, Control_c, 0, 64, 107
1, 136562, Control_c, 0, 64, 108
1, 136577, Control_c, 0, 64, 110
1, 136584, Note_on_c, 0, 87, 70
1, 136592, Control_c, 0, 64, 111
1, 136607, Control_c, 0, 64, 112
1, 136622, Control_c, 0, 64, 112
1, 136636, Note_off_c, 0, 87, 63
1, 136636, Control_c, 0, 64, 113
1, 136651, Control_c, 0, 64, 113
1, 136652, Note_on_c, 0, 86, 48
1, 136674, Note_off_c, 0, 86, 60
1, 136689, Note_on_c, 0, 84, 60
1, 136721, Note_off_c, 0, 84, 67
1, 136761, Note_on_c, 0, 82, 68
1, 136821, Note_on_c, 0, 80, 70
1, 136838, Note_off_c, 0, 82, 58
1, 136847, Note_on_c, 0, 53, 59
1, 136851, Note_off_c, 0, 58, 57
1, 136877, Note_on_c, 0, 79, 65
1, 136880, Note_off_c, 0, 80, 64
1, 136888, Control_c, 0, 64, 111
1, 136903, Control_c, 0, 64, 101
1, 136909, Note_off_c, 0, 79, 64
1, 136918, Control_c, 0, 64, 82
1, 136921, Note_on_c, 0, 77, 63
1, 136932, Note_off_c, 0, 51, 53
1, 136933, Control_c, 0, 64, 64
1, 136948, Control_c, 0, 64, 0
1, 136956, Note_off_c, 0, 77, 55
1, 137007, Note_on_c, 0, 75, 66
1, 137007, Control_c, 0, 64, 62
1, 137022, Control_c, 0, 64, 70
1, 137036, Control_c, 0, 64, 77
1, 137038, Note_on_c, 0, 58, 53
1, 137051, Control_c, 0, 64, 84
1, 137065, Note_off_c, 0, 75, 64
1, 137066, Control_c, 0, 64, 87
1, 137068, Note_on_c, 0, 74, 58
1, 137080, Control_c, 0, 64, 89
1, 137094, Note_off_c, 0, 74, 69
1, 137095, Control_c, 0, 64, 91
1, 137106, Note_on_c, 0, 72, 65
1, 137110, Control_c, 0, 64, 93
1, 137125, Control_c, 0, 64, 94
1, 137140, Control_c, 0, 64, 95
1, 137154, Control_c, 0, 64, 95
1, 137168, Note_off_c, 0, 72, 42
1, 137169, Control_c, 0, 64, 96
1, 137184, Note_on_c, 0, 70, 69
1, 137184, Control_c, 0, 64, 97
1, 137199, Control_c, 0, 64, 98
1, 137214, Control_c, 0, 64, 99
1, 137226, Note_off_c, 0, 70, 62
1, 137230, Control_c, 0, 64, 100
1, 137238, Note_on_c, 0, 72, 49
1, 137245, Control_c, 0, 64, 101
1, 137267, Control_c, 0, 64, 101
1, 137305, Note_off_c, 0, 72, 63
1, 137315, Note_on_c, 0, 74, 63
1, 137371, Note_off_c, 0, 58, 51
1, 137374, Note_off_c, 0, 74, 63
1, 137376, Note_on_c, 0, 75, 69
1, 137393, Note_on_c, 0, 55, 65
1, 137400, Control_c, 0, 64, 100
1, 137410, Note_off_c, 0, 53, 59
1, 137415, Control_c, 0, 64, 92
1, 137419, Note_off_c, 0, 75, 57
1, 137430, Control_c, 0, 64, 78
1, 137430, Control_c, 0, 67, 8
1, 137434, Note_on_c, 0, 74, 53
1, 137445, Control_c, 0, 64, 51
1, 137459, Control_c, 0, 64, 0
1, 137459, Control_c, 0, 67, 8
1, 137480, Note_off_c, 0, 74, 64
1, 137498, Note_on_c, 0, 75, 56
1, 137518, Control_c, 0, 64, 60
1, 137518, Control_c, 0, 67, 9
1, 137533, Control_c, 0, 64, 70
1, 137548, Control_c, 0, 64, 79
1, 137552, Note_off_c, 0, 75, 62
1, 137563, Control_c, 0, 64, 87
1, 137563, Control_c, 0, 67, 8
1, 137570, Note_on_c, 0, 76, 64
1, 137578, Control_c, 0, 64, 93
1, 137588, Note_on_c, 0, 58, 67
1, 137592, Control_c, 0, 64, 96
1, 137607, Control_c, 0, 64, 98
1, 137607, Control_c, 0, 67, 8
1, 137622, Control_c, 0, 64, 99
1, 137625, Note_off_c, 0, 76, 64
1, 137628, Note_on_c, 0, 75, 56
1, 137637, Control_c, 0, 64, 101
1, 137652, Control_c, 0, 64, 103
1, 137667, Control_c, 0, 64, 104
1, 137674, Note_off_c, 0, 75, 64
1, 137679, Note_on_c, 0, 76, 61
1, 137682, Control_c, 0, 64, 106
1, 137697, Control_c, 0, 64, 108
1, 137711, Control_c, 0, 64, 109
1, 137711, Control_c, 0, 67, 0
1, 137726, Control_c, 0, 64, 109
1, 137738, Note_off_c, 0, 76, 65
1, 137741, Control_c, 0, 64, 110
1, 137744, Note_on_c, 0, 77, 71
1, 137756, Control_c, 0, 64, 110
1, 137771, Control_c, 0, 64, 111
1, 137785, Control_c, 0, 64, 112
1, 137795, Note_off_c, 0, 77, 56
1, 137804, Note_on_c, 0, 76, 66
1, 137856, Note_off_c, 0, 76, 63
1, 137863, Note_on_c, 0, 77, 64
1, 137905, Note_off_c, 0, 58, 53
1, 137917, Note_off_c, 0, 77, 61
1, 137917, Note_on_c, 0, 78, 74
1, 137938, Note_on_c, 0, 50, 63
1, 137963, Control_c, 0, 64, 110
1, 137966, Note_off_c, 0, 78, 59
1, 137974, Note_on_c, 0, 77, 63
1, 137977, Control_c, 0, 64, 100
1, 137992, Control_c, 0, 64, 84
1, 138015, Control_c, 0, 64, 64
1, 138030, Control_c, 0, 64, 0
1, 138033, Note_off_c, 0, 77, 57
1, 138047, Note_on_c, 0, 78, 65
1, 138090, Control_c, 0, 64, 64
1, 138100, Note_off_c, 0, 78, 63
1, 138105, Control_c, 0, 64, 74
1, 138110, Note_off_c, 0, 55, 36
1, 138111, Note_on_c, 0, 79, 70
1, 138120, Control_c, 0, 64, 84
1, 138124, Note_on_c, 0, 58, 65
1, 138134, Control_c, 0, 64, 94
1, 138149, Control_c, 0, 64, 99
1, 138164, Control_c, 0, 64, 104
1, 138166, Note_off_c, 0, 79, 61
1, 138171, Note_on_c, 0, 78, 65
1, 138179, Control_c, 0, 64, 107
1, 138194, Control_c, 0, 64, 112
1, 138208, Control_c, 0, 64, 116
1, 138222, Note_off_c, 0, 78, 64
1, 138223, Control_c, 0, 64, 120
1, 138224, Note_on_c, 0, 79, 61
1, 138238, Control_c, 0, 64, 122
1, 138253, Control_c, 0, 64, 124
1, 138268, Control_c, 0, 64, 125
1, 138281, Note_off_c, 0, 79, 55
1, 138281, Control_c, 0, 64, 127
1, 138296, Note_on_c, 0, 80, 75
1, 138347, Note_off_c, 0, 80, 63
1, 138358, Note_on_c, 0, 79, 66
1, 138400, Note_off_c, 0, 79, 63
1, 138409, Note_on_c, 0, 80, 62
1, 138465, Note_off_c, 0, 80, 63
1, 138470, Note_on_c, 0, 79, 66
1, 138481, Note_on_c, 0, 49, 71
1, 138484, Note_off_c, 0, 58, 58
1, 138519, Control_c, 0, 64, 111
1, 138519, Note_off_c, 0, 50, 54
1, 138529, Note_off_c, 0, 79, 59
1, 138533, Control_c, 0, 64, 90
1, 138536, Note_on_c, 0, 78, 77
1, 138548, Control_c, 0, 64, 70
1, 138563, Control_c, 0, 64, 0
1, 138591, Note_off_c, 0, 78, 62
1, 138595, Note_on_c, 0, 79, 64
1, 138607, Control_c, 0, 64, 64
1, 138622, Control_c, 0, 64, 76
1, 138637, Control_c, 0, 64, 87
1, 138651, Note_off_c, 0, 79, 49
1, 138651, Control_c, 0, 64, 97
1, 138663, Note_on_c, 0, 51, 58
1, 138664, Note_on_c, 0, 80, 76
1, 138665, Note_on_c, 0, 58, 62
1, 138666, Control_c, 0, 64, 102
1, 138681, Control_c, 0, 64, 106
1, 138696, Control_c, 0, 64, 110
1, 138711, Control_c, 0, 64, 115
1, 138716, Note_off_c, 0, 80, 62
1, 138718, Note_on_c, 0, 79, 67
1, 138725, Control_c, 0, 64, 121
1, 138740, Control_c, 0, 64, 125
1, 138763, Control_c, 0, 64, 127
1, 138785, Note_off_c, 0, 79, 61
1, 138789, Note_on_c, 0, 80, 63
1, 138836, Note_on_c, 0, 82, 79
1, 138844, Note_off_c, 0, 80, 63
1, 138859, Note_off_c, 0, 58, 52
1, 138880, Note_off_c, 0, 49, 36
1, 138895, Note_off_c, 0, 51, 55
1, 138896, Note_off_c, 0, 82, 60
1, 138913, Note_on_c, 0, 80, 67
1, 138946, Note_off_c, 0, 80, 62
1, 138948, Note_on_c, 0, 82, 65
1, 139026, Note_on_c, 0, 80, 79
1, 139029, Note_off_c, 0, 82, 62
1, 139035, Note_on_c, 0, 48, 75
1, 139074, Control_c, 0, 64, 119
1, 139081, Note_off_c, 0, 80, 64
1, 139089, Control_c, 0, 64, 97
1, 139092, Note_on_c, 0, 79, 68
1, 139104, Control_c, 0, 64, 76
1, 139119, Control_c, 0, 64, 0
1, 139138, Note_off_c, 0, 79, 61
1, 139152, Note_on_c, 0, 80, 61
1, 139163, Control_c, 0, 64, 59
1, 139178, Control_c, 0, 64, 71
1, 139193, Control_c, 0, 64, 82
1, 139205, Note_on_c, 0, 51, 61
1, 139206, Note_on_c, 0, 56, 65
1, 139206, Note_on_c, 0, 82, 69
1, 139208, Control_c, 0, 64, 94
1, 139212, Note_off_c, 0, 80, 58
1, 139223, Control_c, 0, 64, 99
1, 139234, Note_off_c, 0, 82, 63
1, 139238, Control_c, 0, 64, 102
1, 139253, Control_c, 0, 64, 104
1, 139256, Note_on_c, 0, 80, 50
1, 139268, Control_c, 0, 64, 108
1, 139282, Control_c, 0, 64, 111
1, 139297, Control_c, 0, 64, 113
1, 139312, Control_c, 0, 64, 114
1, 139315, Note_on_c, 0, 82, 64
1, 139327, Control_c, 0, 64, 116
1, 139333, Note_off_c, 0, 80, 63
1, 139337, Note_off_c, 0, 48, 60
1, 139342, Control_c, 0, 64, 118
1, 139356, Control_c, 0, 64, 120
1, 139357, Note_off_c, 0, 56, 59
1, 139363, Note_off_c, 0, 51, 60
1, 139371, Control_c, 0, 64, 121
1, 139373, Note_on_c, 0, 84, 74
1, 139384, Note_off_c, 0, 82, 63
1, 139386, Control_c, 0, 64, 122
1, 139401, Control_c, 0, 64, 125
1, 139414, Note_off_c, 0, 84, 65
1, 139416, Control_c, 0, 64, 126
1, 139430, Control_c, 0, 64, 127
1, 139437, Note_on_c, 0, 83, 73
1, 139509, Note_off_c, 0, 83, 52
1, 139510, Note_on_c, 0, 84, 68
1, 139563, Note_off_c, 0, 84, 63
1, 139569, Note_on_c, 0, 86, 71
1, 139575, Note_on_c, 0, 48, 79
1, 139601, Control_c, 0, 64, 116
1, 139616, Control_c, 0, 64, 99
1, 139631, Control_c, 0, 64, 79
1, 139637, Note_off_c, 0, 86, 63
1, 139641, Note_on_c, 0, 85, 74
1, 139646, Control_c, 0, 64, 49
1, 139661, Control_c, 0, 64, 0
1, 139686, Note_off_c, 0, 85, 65
1, 139691, Control_c, 0, 64, 43
1, 139695, Note_on_c, 0, 86, 64
1, 139705, Control_c, 0, 64, 68
1, 139720, Control_c, 0, 64, 78
1, 139735, Control_c, 0, 64, 89
1, 139746, Note_on_c, 0, 57, 67
1, 139750, Control_c, 0, 64, 98
1, 139753, Note_off_c, 0, 86, 66
1, 139755, Note_on_c, 0, 50, 56
1, 139758, Note_on_c, 0, 88, 78
1, 139765, Control_c, 0, 64, 103
1, 139780, Control_c, 0, 64, 105
1, 139795, Control_c, 0, 64, 108
1, 139810, Control_c, 0, 64, 112
1, 139815, Note_off_c, 0, 88, 62
1, 139819, Note_on_c, 0, 86, 71
1, 139825, Control_c, 0, 64, 115
1, 139840, Control_c, 0, 64, 118
1, 139854, Control_c, 0, 64, 120
1, 139869, Control_c, 0, 64, 122
1, 139870, Note_on_c, 0, 88, 66
1, 139875, Note_off_c, 0, 86, 63
1, 139884, Control_c, 0, 64, 125
1, 139898, Control_c, 0, 64, 127
1, 139932, Note_on_c, 0, 90, 77
1, 139932, Note_off_c, 0, 88, 63
1, 139964, Note_off_c, 0, 90, 63
1, 139983, Note_on_c, 0, 88, 67
1, 140024, Note_off_c, 0, 57, 34
1, 140037, Note_off_c, 0, 88, 61
1, 140043, Note_off_c, 0, 48, 37
1, 140053, Note_on_c, 0, 90, 79
1, 140096, Note_on_c, 0, 47, 74
1, 140104, Note_off_c, 0, 90, 63
1, 140113, Note_on_c, 0, 91, 74
1, 140128, Note_off_c, 0, 50, 35
1, 140135, Control_c, 0, 64, 114
1, 140150, Control_c, 0, 64, 95
1, 140165, Control_c, 0, 64, 73
1, 140171, Note_on_c, 0, 90, 66
1, 140171, Note_off_c, 0, 91, 60
1, 140180, Control_c, 0, 64, 0
1, 140209, Control_c, 0, 64, 47
1, 140224, Control_c, 0, 64, 69
1, 140231, Note_off_c, 0, 90, 64
1, 140233, Note_on_c, 0, 91, 66
1, 140239, Control_c, 0, 64, 80
1, 140261, Control_c, 0, 64, 95
1, 140276, Control_c, 0, 64, 103
1, 140291, Control_c, 0, 64, 108
1, 140294, Note_off_c, 0, 91, 61
1, 140300, Note_on_c, 0, 50, 56
1, 140300, Note_on_c, 0, 93, 79
1, 140302, Note_on_c, 0, 55, 58
1, 140306, Control_c, 0, 64, 110
1, 140321, Control_c, 0, 64, 114
1, 140336, Control_c, 0, 64, 118
1, 140351, Control_c, 0, 64, 120
1, 140355, Note_on_c, 0, 91, 63
1, 140357, Note_off_c, 0, 93, 62
1, 140366, Control_c, 0, 64, 121
1, 140380, Control_c, 0, 64, 123
1, 140395, Control_c, 0, 64, 125
1, 140403, Note_off_c, 0, 47, 62
1, 140410, Control_c, 0, 64, 127
1, 140412, Note_off_c, 0, 91, 59
1, 140418, Note_on_c, 0, 93, 65
1, 140425, Control_c, 0, 64, 127
1, 140469, Note_on_c, 0, 95, 73
1, 140472, Note_off_c, 0, 93, 62
1, 140511, Note_off_c, 0, 95, 58
1, 140525, Note_on_c, 0, 93, 74
1, 140555, Note_off_c, 0, 55, 30
1, 140580, Note_off_c, 0, 93, 63
1, 140586, Note_on_c, 0, 95, 75
1, 140640, Note_on_c, 0, 46, 74
1, 140640, Note_on_c, 0, 96, 75
1, 140641, Note_off_c, 0, 95, 66
1, 140663, Control_c, 0, 64, 109
1, 140677, Control_c, 0, 64, 90
1, 140692, Control_c, 0, 64, 71
1, 140699, Note_off_c, 0, 96, 60
1, 140703, Note_on_c, 0, 95, 77
1, 140706, Note_off_c, 0, 50, 48
1, 140707, Control_c, 0, 64, 0
1, 140737, Control_c, 0, 64, 63
1, 140752, Control_c, 0, 64, 74
1, 140756, Note_off_c, 0, 95, 65
1, 140763, Note_on_c, 0, 96, 68
1, 140767, Control_c, 0, 64, 86
1, 140782, Control_c, 0, 64, 98
1, 140796, Control_c, 0, 64, 104
1, 140811, Control_c, 0, 64, 108
1, 140816, Note_off_c, 0, 96, 64
1, 140818, Note_on_c, 0, 98, 69
1, 140821, Note_on_c, 0, 55, 65
1, 140824, Note_on_c, 0, 48, 64
1, 140826, Control_c, 0, 64, 111
1, 140841, Control_c, 0, 64, 116
1, 140855, Control_c, 0, 64, 121
1, 140856, Note_off_c, 0, 98, 50
1, 140870, Control_c, 0, 64, 123
1, 140873, Note_on_c, 0, 96, 70
1, 140885, Control_c, 0, 64, 125
1, 140900, Control_c, 0, 64, 125
1, 140915, Control_c, 0, 64, 127
1, 140929, Note_off_c, 0, 46, 59
1, 140930, Note_off_c, 0, 96, 63
1, 140937, Note_on_c, 0, 98, 80
1, 140992, Note_on_c, 0, 100, 76
1, 140993, Note_off_c, 0, 98, 66
1, 141032, Note_off_c, 0, 55, 35
1, 141039, Note_off_c, 0, 100, 51
1, 141052, Note_on_c, 0, 98, 71
1, 141119, Note_on_c, 0, 100, 79
1, 141127, Note_off_c, 0, 98, 65
1, 141171, Note_off_c, 0, 48, 59
1, 141179, Note_on_c, 0, 44, 71
1, 141179, Note_off_c, 0, 100, 62
1, 141184, Note_on_c, 0, 101, 72
1, 141218, Control_c, 0, 64, 117
1, 141234, Control_c, 0, 64, 99
1, 141249, Control_c, 0, 64, 80
1, 141261, Note_off_c, 0, 101, 64
1, 141264, Note_on_c, 0, 99, 73
1, 141264, Control_c, 0, 64, 59
1, 141278, Control_c, 0, 64, 0
1, 141321, Note_off_c, 0, 99, 69
1, 141323, Control_c, 0, 64, 62
1, 141326, Note_on_c, 0, 97, 60
1, 141338, Control_c, 0, 64, 71
1, 141352, Control_c, 0, 64, 79
1, 141359, Note_off_c, 0, 97, 66
1, 141367, Control_c, 0, 64, 89
1, 141369, Note_on_c, 0, 96, 60
1, 141381, Note_on_c, 0, 48, 57
1, 141382, Control_c, 0, 64, 96
1, 141389, Note_on_c, 0, 53, 57
1, 141396, Note_off_c, 0, 96, 65
1, 141397, Control_c, 0, 64, 100
1, 141412, Control_c, 0, 64, 103
1, 141426, Control_c, 0, 64, 106
1, 141438, Note_on_c, 0, 94, 71
1, 141441, Control_c, 0, 64, 109
1, 141456, Control_c, 0, 64, 112
1, 141471, Control_c, 0, 64, 113
1, 141485, Control_c, 0, 64, 114
1, 141494, Note_on_c, 0, 92, 68
1, 141500, Control_c, 0, 64, 114
1, 141503, Note_off_c, 0, 44, 60
1, 141503, Note_off_c, 0, 94, 60
1, 141515, Control_c, 0, 64, 115
1, 141527, Note_off_c, 0, 53, 62
1, 141530, Control_c, 0, 64, 115
1, 141545, Control_c, 0, 64, 116
1, 141549, Note_off_c, 0, 92, 65
1, 141550, Note_on_c, 0, 91, 62
1, 141587, Note_off_c, 0, 91, 61
1, 141602, Note_on_c, 0, 89, 56
1, 141626, Note_off_c, 0, 48, 36
1, 141634, Note_off_c, 0, 89, 66
1, 141674, Note_on_c, 0, 87, 68
1, 141735, Note_off_c, 0, 87, 63
1, 141737, Note_on_c, 0, 46, 57
1, 141749, Note_on_c, 0, 86, 57
1, 141778, Note_off_c, 0, 86, 66
1, 141789, Note_on_c, 0, 84, 63
1, 141789, Control_c, 0, 64, 114
1, 141804, Control_c, 0, 64, 103
1, 141819, Control_c, 0, 64, 86
1, 141834, Control_c, 0, 64, 67
1, 141834, Note_off_c, 0, 84, 59
1, 141849, Control_c, 0, 64, 0
1, 141870, Note_on_c, 0, 82, 66
1, 141893, Control_c, 0, 64, 60
1, 141908, Control_c, 0, 64, 69
1, 141911, Note_off_c, 0, 82, 63
1, 141923, Control_c, 0, 64, 76
1, 141923, Note_on_c, 0, 53, 51
1, 141925, Note_on_c, 0, 56, 50
1, 141929, Note_on_c, 0, 81, 59
1, 141938, Control_c, 0, 64, 84
1, 141952, Control_c, 0, 64, 91
1, 141967, Control_c, 0, 64, 95
1, 141969, Note_off_c, 0, 81, 61
1, 141982, Control_c, 0, 64, 98
1, 141983, Note_on_c, 0, 82, 62
1, 141997, Control_c, 0, 64, 100
1, 142011, Note_off_c, 0, 46, 58
1, 142012, Control_c, 0, 64, 103
1, 142015, Note_off_c, 0, 82, 66
1, 142027, Control_c, 0, 64, 105
1, 142042, Control_c, 0, 64, 106
1, 142047, Note_on_c, 0, 84, 66
1, 142049, Note_off_c, 0, 56, 61
1, 142052, Note_off_c, 0, 53, 64
1, 142057, Control_c, 0, 64, 108
1, 142072, Control_c, 0, 64, 109
1, 142087, Control_c, 0, 64, 111
1, 142099, Note_off_c, 0, 84, 50
1, 142101, Control_c, 0, 64, 112
1, 142116, Control_c, 0, 64, 112
1, 142117, Note_on_c, 0, 86, 67
1, 142152, Note_off_c, 0, 86, 62
1, 142171, Note_on_c, 0, 87, 62
1, 142201, Note_off_c, 0, 87, 67
1, 142235, Control_c, 0, 64, 113
1, 142239, Note_on_c, 0, 89, 63
1, 142290, Note_off_c, 0, 89, 59
1, 142301, Note_on_c, 0, 51, 63
1, 142311, Note_on_c, 0, 90, 67
1, 142368, Note_off_c, 0, 90, 61
1, 142368, Control_c, 0, 64, 112
1, 142373, Note_on_c, 0, 94, 62
1, 142383, Control_c, 0, 64, 104
1, 142397, Control_c, 0, 64, 88
1, 142412, Control_c, 0, 64, 69
1, 142427, Control_c, 0, 64, 0
1, 142436, Note_on_c, 0, 92, 72
1, 142448, Note_off_c, 0, 94, 59
1, 142472, Control_c, 0, 64, 49
1, 142487, Control_c, 0, 64, 69
1, 142508, Note_off_c, 0, 92, 64
1, 142508, Control_c, 0, 64, 79
1, 142516, Note_on_c, 0, 90, 60
1, 142523, Control_c, 0, 64, 90
1, 142524, Note_on_c, 0, 63, 73
1, 142538, Control_c, 0, 64, 99
1, 142548, Note_off_c, 0, 90, 64
1, 142553, Control_c, 0, 64, 103
1, 142555, Note_on_c, 0, 89, 62
1, 142568, Control_c, 0, 64, 105
1, 142582, Control_c, 0, 64, 107
1, 142590, Note_off_c, 0, 89, 64
1, 142597, Control_c, 0, 64, 110
1, 142612, Control_c, 0, 64, 112
1, 142622, Note_off_c, 0, 63, 62
1, 142627, Control_c, 0, 64, 112
1, 142629, Note_on_c, 0, 87, 74
1, 142642, Control_c, 0, 64, 113
1, 142657, Control_c, 0, 64, 113
1, 142672, Control_c, 0, 64, 114
1, 142687, Control_c, 0, 64, 115
1, 142701, Control_c, 0, 64, 115
1, 142702, Note_on_c, 0, 85, 65
1, 142704, Note_off_c, 0, 87, 63
1, 142731, Control_c, 0, 64, 116
1, 142743, Note_off_c, 0, 85, 61
1, 142758, Note_on_c, 0, 83, 59
1, 142805, Note_off_c, 0, 83, 57
1, 142823, Note_on_c, 0, 82, 68
1, 142870, Note_off_c, 0, 82, 62
1, 142871, Note_on_c, 0, 44, 74
1, 142881, Note_on_c, 0, 83, 54
1, 142919, Note_off_c, 0, 51, 62
1, 142925, Control_c, 0, 64, 115
1, 142933, Note_off_c, 0, 83, 56
1, 142940, Note_on_c, 0, 87, 68
1, 142940, Control_c, 0, 64, 103
1, 142955, Control_c, 0, 64, 87
1, 142970, Control_c, 0, 64, 69
1, 142985, Control_c, 0, 64, 0
1, 143007, Note_on_c, 0, 85, 63
1, 143017, Note_off_c, 0, 87, 60
1, 143029, Control_c, 0, 64, 18
1, 143044, Control_c, 0, 64, 66
1, 143050, Note_off_c, 0, 85, 62
1, 143059, Control_c, 0, 64, 73
1, 143066, Note_on_c, 0, 83, 63
1, 143073, Control_c, 0, 64, 80
1, 143080, Note_on_c, 0, 56, 73
1, 143088, Control_c, 0, 64, 89
1, 143103, Control_c, 0, 64, 96
1, 143118, Control_c, 0, 64, 101
1, 143119, Note_off_c, 0, 83, 61
1, 143132, Control_c, 0, 64, 104
1, 143144, Note_on_c, 0, 82, 69
1, 143147, Control_c, 0, 64, 107
1, 143162, Control_c, 0, 64, 110
1, 143177, Control_c, 0, 64, 113
1, 143192, Control_c, 0, 64, 115
1, 143194, Note_on_c, 0, 80, 71
1, 143206, Control_c, 0, 64, 117
1, 143221, Control_c, 0, 64, 118
1, 143224, Note_off_c, 0, 82, 62
1, 143236, Control_c, 0, 64, 119
1, 143253, Note_off_c, 0, 80, 66
1, 143258, Control_c, 0, 64, 120
1, 143259, Note_on_c, 0, 78, 69
1, 143273, Control_c, 0, 64, 120
1, 143288, Control_c, 0, 64, 121
1, 143295, Note_off_c, 0, 78, 63
1, 143304, Note_on_c, 0, 77, 67
1, 143318, Control_c, 0, 64, 121
1, 143342, Note_off_c, 0, 77, 60
1, 143375, Note_on_c, 0, 75, 72
1, 143429, Note_off_c, 0, 75, 63
1, 143437, Note_on_c, 0, 74, 60
1, 143439, Note_on_c, 0, 46, 72
1, 143447, Note_off_c, 0, 56, 61
1, 143465, Control_c, 0, 64, 120
1, 143480, Control_c, 0, 64, 105
1, 143482, Note_off_c, 0, 74, 62
1, 143486, Note_on_c, 0, 77, 65
1, 143495, Control_c, 0, 64, 87
1, 143504, Note_off_c, 0, 44, 59
1, 143510, Control_c, 0, 64, 68
1, 143524, Control_c, 0, 64, 0
1, 143551, Note_on_c, 0, 75, 73
1, 143554, Control_c, 0, 64, 61
1, 143566, Note_off_c, 0, 77, 55
1, 143569, Control_c, 0, 64, 72
1, 143584, Control_c, 0, 64, 82
1, 143599, Control_c, 0, 64, 92
1, 143605, Note_on_c, 0, 74, 58
1, 143607, Note_off_c, 0, 75, 64
1, 143611, Note_on_c, 0, 58, 87
1, 143614, Control_c, 0, 64, 99
1, 143629, Control_c, 0, 64, 102
1, 143638, Note_off_c, 0, 74, 64
1, 143644, Control_c, 0, 64, 103
1, 143647, Note_on_c, 0, 71, 68
1, 143659, Control_c, 0, 64, 105
1, 143673, Control_c, 0, 64, 106
1, 143688, Control_c, 0, 64, 107
1, 143693, Note_off_c, 0, 71, 60
1, 143716, Note_off_c, 0, 58, 65
1, 143744, Note_on_c, 0, 70, 71
1, 143785, Note_off_c, 0, 46, 62
1, 143792, Note_on_c, 0, 68, 69
1, 143819, Note_off_c, 0, 70, 61
1, 143831, Note_on_c, 0, 66, 76
1, 143849, Note_off_c, 0, 68, 65
1, 143883, Note_on_c, 0, 65, 74
1, 143886, Note_off_c, 0, 66, 65
1, 143915, Note_off_c, 0, 65, 67
1, 143940, Control_c, 0, 64, 107
1, 143955, Control_c, 0, 64, 108
1, 143970, Control_c, 0, 64, 110
1, 143985, Control_c, 0, 64, 110
1, 144017, Note_on_c, 0, 39, 71
1, 144022, Control_c, 0, 64, 110
1, 144027, Note_on_c, 0, 78, 80
1, 144037, Control_c, 0, 64, 100
1, 144052, Control_c, 0, 64, 84
1, 144067, Control_c, 0, 64, 65
1, 144081, Control_c, 0, 64, 0
1, 144082, Note_off_c, 0, 78, 63
1, 144083, Note_on_c, 0, 82, 67
1, 144126, Control_c, 0, 64, 48
1, 144141, Control_c, 0, 64, 69
1, 144155, Control_c, 0, 64, 79
1, 144156, Note_on_c, 0, 80, 71
1, 144170, Control_c, 0, 64, 91
1, 144180, Note_off_c, 0, 82, 62
1, 144185, Control_c, 0, 64, 101
1, 144200, Control_c, 0, 64, 105
1, 144215, Control_c, 0, 64, 108
1, 144222, Note_on_c, 0, 78, 70
1, 144226, Note_off_c, 0, 80, 64
1, 144229, Control_c, 0, 64, 111
1, 144233, Note_on_c, 0, 51, 79
1, 144244, Control_c, 0, 64, 114
1, 144259, Control_c, 0, 64, 117
1, 144264, Note_off_c, 0, 78, 61
1, 144272, Control_c, 0, 64, 118
1, 144272, Note_on_c, 0, 77, 60
1, 144287, Control_c, 0, 64, 119
1, 144302, Control_c, 0, 64, 119
1, 144302, Note_off_c, 0, 77, 65
1, 144320, Note_off_c, 0, 51, 62
1, 144341, Note_on_c, 0, 75, 75
1, 144411, Note_on_c, 0, 73, 63
1, 144419, Note_off_c, 0, 75, 64
1, 144457, Note_off_c, 0, 73, 60
1, 144463, Note_on_c, 0, 71, 60
1, 144503, Note_off_c, 0, 71, 55
1, 144520, Note_on_c, 0, 70, 72
1, 144570, Note_on_c, 0, 32, 79
1, 144573, Note_off_c, 0, 70, 63
1, 144599, Control_c, 0, 64, 116
1, 144601, Note_on_c, 0, 71, 58
1, 144609, Note_off_c, 0, 39, 61
1, 144614, Control_c, 0, 64, 102
1, 144629, Control_c, 0, 64, 84
1, 144633, Note_off_c, 0, 71, 62
1, 144640, Note_on_c, 0, 75, 66
1, 144643, Control_c, 0, 64, 65
1, 144658, Control_c, 0, 64, 0
1, 144687, Control_c, 0, 64, 54
1, 144702, Note_on_c, 0, 73, 69
1, 144702, Control_c, 0, 64, 70
1, 144712, Note_off_c, 0, 75, 62
1, 144717, Control_c, 0, 64, 80
1, 144732, Control_c, 0, 64, 90
1, 144755, Control_c, 0, 64, 96
1, 144756, Note_off_c, 0, 73, 55
1, 144770, Control_c, 0, 64, 99
1, 144772, Note_on_c, 0, 71, 67
1, 144773, Note_on_c, 0, 44, 83
1, 144784, Control_c, 0, 64, 101
1, 144799, Control_c, 0, 64, 104
1, 144814, Control_c, 0, 64, 106
1, 144815, Note_off_c, 0, 71, 60
1, 144829, Control_c, 0, 64, 108
1, 144848, Note_on_c, 0, 70, 67
1, 144858, Control_c, 0, 64, 108
1, 144873, Control_c, 0, 64, 109
1, 144888, Control_c, 0, 64, 109
1, 144898, Note_on_c, 0, 68, 68
1, 144902, Control_c, 0, 64, 110
1, 144915, Note_off_c, 0, 70, 56
1, 144945, Note_on_c, 0, 66, 71
1, 144955, Note_off_c, 0, 68, 64
1, 144994, Note_on_c, 0, 65, 70
1, 144997, Note_off_c, 0, 66, 64
1, 145028, Note_off_c, 0, 65, 65
1, 145065, Note_on_c, 0, 63, 77
1, 145119, Note_on_c, 0, 62, 70
1, 145124, Note_off_c, 0, 63, 63
1, 145141, Note_on_c, 0, 34, 76
1, 145145, Note_off_c, 0, 44, 54
1, 145155, Control_c, 0, 64, 108
1, 145169, Control_c, 0, 64, 97
1, 145176, Note_off_c, 0, 62, 61
1, 145179, Note_on_c, 0, 65, 75
1, 145184, Control_c, 0, 64, 80
1, 145195, Note_off_c, 0, 32, 63
1, 145199, Control_c, 0, 64, 52
1, 145214, Control_c, 0, 64, 0
1, 145247, Note_on_c, 0, 63, 70
1, 145258, Note_off_c, 0, 65, 61
1, 145274, Control_c, 0, 64, 63
1, 145289, Control_c, 0, 64, 75
1, 145295, Note_on_c, 0, 62, 61
1, 145304, Note_off_c, 0, 63, 64
1, 145304, Control_c, 0, 64, 87
1, 145318, Control_c, 0, 64, 98
1, 145327, Note_off_c, 0, 62, 49
1, 145333, Control_c, 0, 64, 102
1, 145339, Note_on_c, 0, 46, 89
1, 145344, Note_on_c, 0, 59, 68
1, 145348, Control_c, 0, 64, 103
1, 145363, Control_c, 0, 64, 104
1, 145378, Control_c, 0, 64, 104
1, 145393, Note_off_c, 0, 59, 60
1, 145407, Control_c, 0, 64, 105
1, 145422, Control_c, 0, 64, 105
1, 145436, Control_c, 0, 64, 106
1, 145437, Note_on_c, 0, 58, 67
1, 145486, Note_off_c, 0, 34, 63
1, 145486, Note_on_c, 0, 56, 66
1, 145524, Note_off_c, 0, 58, 61
1, 145533, Control_c, 0, 64, 106
1, 145540, Note_on_c, 0, 54, 69
1, 145559, Note_off_c, 0, 56, 63
1, 145596, Note_on_c, 0, 53, 71
1, 145599, Note_off_c, 0, 54, 62
1, 145638, Note_off_c, 0, 53, 56
1, 145654, Note_off_c, 0, 46, 60
1, 145673, Note_on_c, 0, 51, 75
1, 145681, Control_c, 0, 64, 106
1, 145694, Note_on_c, 0, 39, 77
1, 145711, Control_c, 0, 64, 103
1, 145720, Note_off_c, 0, 51, 63
1, 145725, Control_c, 0, 64, 95
1, 145726, Note_on_c, 0, 53, 69
1, 145740, Control_c, 0, 64, 83
1, 145755, Note_off_c, 0, 39, 61
1, 145755, Control_c, 0, 64, 67
1, 145771, Control_c, 0, 64, 0
1, 145799, Note_off_c, 0, 53, 56
1, 145802, Note_on_c, 0, 54, 70
1, 145857, Note_on_c, 0, 56, 66
1, 145870, Note_off_c, 0, 54, 61
1, 145904, Note_on_c, 0, 50, 90
1, 145905, Note_on_c, 0, 46, 79
1, 145915, Note_on_c, 0, 59, 78
1, 145921, Note_off_c, 0, 56, 63
1, 145948, Control_c, 0, 64, 64
1, 145963, Control_c, 0, 64, 75
1, 145978, Control_c, 0, 64, 86
1, 145990, Note_on_c, 0, 58, 73
1, 145992, Control_c, 0, 64, 96
1, 146007, Control_c, 0, 64, 100
1, 146009, Note_off_c, 0, 59, 58
1, 146023, Control_c, 0, 64, 101
1, 146038, Control_c, 0, 64, 102
1, 146052, Note_on_c, 0, 56, 66
1, 146053, Control_c, 0, 64, 102
1, 146067, Control_c, 0, 64, 103
1, 146101, Note_off_c, 0, 58, 60
1, 146107, Note_on_c, 0, 54, 72
1, 146133, Note_off_c, 0, 56, 62
1, 146168, Note_off_c, 0, 54, 62
1, 146175, Note_on_c, 0, 53, 64
1, 146203, Note_off_c, 0, 50, 51
1, 146212, Note_off_c, 0, 53, 58
1, 146253, Note_on_c, 0, 39, 72
1, 146253, Note_off_c, 0, 46, 62
1, 146253, Control_c, 0, 64, 101
1, 146255, Note_on_c, 0, 51, 70
1, 146267, Control_c, 0, 64, 98
1, 146282, Control_c, 0, 64, 93
1, 146287, Note_off_c, 0, 51, 65
1, 146297, Control_c, 0, 64, 82
1, 146311, Note_on_c, 0, 53, 69
1, 146312, Control_c, 0, 64, 69
1, 146314, Note_off_c, 0, 39, 56
1, 146327, Control_c, 0, 64, 0
1, 146380, Note_on_c, 0, 54, 66
1, 146381, Note_off_c, 0, 53, 61
1, 146435, Note_on_c, 0, 56, 69
1, 146447, Note_off_c, 0, 54, 61
1, 146462, Note_on_c, 0, 46, 83
1, 146466, Note_on_c, 0, 50, 91
1, 146489, Note_on_c, 0, 59, 73
1, 146490, Control_c, 0, 64, 61
1, 146496, Note_off_c, 0, 56, 63
1, 146505, Control_c, 0, 64, 71
1, 146520, Control_c, 0, 64, 80
1, 146535, Control_c, 0, 64, 89
1, 146549, Control_c, 0, 64, 93
1, 146560, Note_on_c, 0, 58, 76
1, 146564, Control_c, 0, 64, 94
1, 146579, Control_c, 0, 64, 95
1, 146582, Note_off_c, 0, 59, 61
1, 146593, Control_c, 0, 64, 96
1, 146608, Control_c, 0, 64, 96
1, 146617, Note_on_c, 0, 56, 69
1, 146638, Control_c, 0, 64, 97
1, 146653, Control_c, 0, 64, 97
1, 146664, Note_off_c, 0, 58, 61
1, 146667, Control_c, 0, 64, 98
1, 146673, Note_on_c, 0, 54, 70
1, 146696, Note_off_c, 0, 56, 63
1, 146731, Note_on_c, 0, 53, 70
1, 146735, Note_off_c, 0, 54, 62
1, 146737, Note_off_c, 0, 50, 26
1, 146770, Note_off_c, 0, 53, 60
1, 146790, Note_off_c, 0, 46, 60
1, 146800, Control_c, 0, 64, 97
1, 146806, Note_on_c, 0, 51, 75
1, 146809, Note_on_c, 0, 39, 67
1, 146817, Control_c, 0, 64, 94
1, 146832, Control_c, 0, 64, 88
1, 146846, Control_c, 0, 64, 79
1, 146851, Note_off_c, 0, 51, 62
1, 146851, Note_off_c, 0, 39, 62
1, 146859, Note_on_c, 0, 53, 68
1, 146861, Control_c, 0, 64, 62
1, 146876, Control_c, 0, 64, 0
1, 146931, Note_off_c, 0, 53, 58
1, 146937, Note_on_c, 0, 54, 71
1, 146999, Note_on_c, 0, 56, 68
1, 147011, Note_off_c, 0, 54, 62
1, 147025, Note_on_c, 0, 46, 83
1, 147027, Note_on_c, 0, 50, 91
1, 147055, Note_on_c, 0, 59, 75
1, 147056, Note_off_c, 0, 56, 65
1, 147061, Control_c, 0, 64, 69
1, 147076, Control_c, 0, 64, 79
1, 147091, Control_c, 0, 64, 89
1, 147096, Note_off_c, 0, 50, 61
1, 147105, Control_c, 0, 64, 93
1, 147120, Control_c, 0, 64, 93
1, 147122, Note_off_c, 0, 46, 62
1, 147131, Note_on_c, 0, 58, 68
1, 147135, Control_c, 0, 64, 94
1, 147143, Note_off_c, 0, 59, 60
1, 147150, Control_c, 0, 64, 95
1, 147165, Control_c, 0, 64, 96
1, 147179, Control_c, 0, 64, 96
1, 147186, Note_on_c, 0, 56, 69
1, 147209, Control_c, 0, 64, 97
1, 147232, Note_off_c, 0, 58, 61
1, 147251, Note_on_c, 0, 54, 66
1, 147261, Note_off_c, 0, 56, 62
1, 147300, Note_off_c, 0, 54, 60
1, 147304, Note_on_c, 0, 53, 65
1, 147338, Note_off_c, 0, 53, 65
1, 147381, Note_on_c, 0, 39, 70
1, 147385, Note_on_c, 0, 51, 68
1, 147422, Note_off_c, 0, 51, 64
1, 147436, Note_on_c, 0, 53, 66
1, 147438, Note_off_c, 0, 39, 61
1, 147446, Control_c, 0, 64, 96
1, 147452, Note_on_c, 0, 41, 67
1, 147461, Control_c, 0, 64, 94
1, 147476, Control_c, 0, 64, 92
1, 147490, Control_c, 0, 64, 89
1, 147505, Control_c, 0, 64, 85
1, 147517, Note_on_c, 0, 54, 69
1, 147520, Control_c, 0, 64, 81
1, 147522, Note_off_c, 0, 53, 61
1, 147535, Note_off_c, 0, 41, 63
1, 147535, Control_c, 0, 64, 75
1, 147537, Note_on_c, 0, 42, 71
1, 147550, Control_c, 0, 64, 68
1, 147564, Control_c, 0, 64, 61
1, 147575, Note_on_c, 0, 56, 67
1, 147575, Note_off_c, 0, 54, 62
1, 147579, Control_c, 0, 64, 49
1, 147585, Note_on_c, 0, 44, 63
1, 147594, Control_c, 0, 64, 47
1, 147610, Control_c, 0, 64, 47
1, 147625, Control_c, 0, 64, 42
1, 147628, Note_off_c, 0, 42, 61
1, 147629, Note_off_c, 0, 56, 63
1, 147632, Note_on_c, 0, 58, 67
1, 147638, Note_on_c, 0, 46, 72
1, 147640, Control_c, 0, 64, 31
1, 147655, Control_c, 0, 64, 0
1, 147660, Note_off_c, 0, 58, 67
1, 147663, Note_off_c, 0, 44, 64
1, 147697, Note_on_c, 0, 60, 77
1, 147703, Note_on_c, 0, 48, 75
1, 147703, Note_off_c, 0, 46, 63
1, 147749, Note_off_c, 0, 48, 66
1, 147768, Note_off_c, 0, 60, 59
1, 147772, Note_on_c, 0, 62, 73
1, 147802, Note_on_c, 0, 50, 68
1, 147815, Note_off_c, 0, 62, 62
1, 147817, Note_on_c, 0, 63, 75
1, 147838, Note_on_c, 0, 51, 65
1, 147854, Note_off_c, 0, 50, 62
1, 147868, Note_off_c, 0, 63, 64
1, 147890, Note_on_c, 0, 65, 76
1, 147901, Note_on_c, 0, 53, 75
1, 147907, Note_off_c, 0, 51, 63
1, 147921, Note_off_c, 0, 65, 67
1, 147946, Note_off_c, 0, 53, 64
1, 147977, Note_on_c, 0, 54, 83
1, 147977, Note_on_c, 0, 66, 96
1, 148136, Control_c, 0, 64, 55
1, 148151, Control_c, 0, 64, 71
1, 148165, Control_c, 0, 64, 80
1, 148180, Control_c, 0, 64, 90
1, 148195, Control_c, 0, 64, 95
1, 148210, Control_c, 0, 64, 98
1, 148225, Control_c, 0, 64, 100
1, 148239, Control_c, 0, 64, 103
1, 148254, Control_c, 0, 64, 105
1, 148269, Control_c, 0, 64, 106
1, 148284, Control_c, 0, 64, 107
1, 148291, Note_off_c, 0, 66, 62
1, 148294, Note_off_c, 0, 54, 59
1, 148373, Control_c, 0, 64, 105
1, 148387, Control_c, 0, 64, 97
1, 148402, Control_c, 0, 64, 88
1, 148418, Control_c, 0, 64, 75
1, 148433, Control_c, 0, 64, 56
1, 148448, Control_c, 0, 64, 0
1, 148765, Note_on_c, 0, 66, 83
1, 148767, Note_on_c, 0, 58, 88
1, 148767, Note_on_c, 0, 70, 86
1, 148769, Note_on_c, 0, 54, 90
1, 148771, Note_on_c, 0, 61, 78
1, 148772, Note_on_c, 0, 42, 77
1, 148824, Control_c, 0, 64, 68
1, 148839, Control_c, 0, 64, 80
1, 148854, Control_c, 0, 64, 94
1, 148869, Control_c, 0, 64, 106
1, 148884, Control_c, 0, 64, 114
1, 148899, Control_c, 0, 64, 123
1, 148914, Control_c, 0, 64, 127
1, 149046, Note_off_c, 0, 54, 61
1, 149099, Note_off_c, 0, 42, 58
1, 149110, Note_off_c, 0, 70, 59
1, 149114, Note_off_c, 0, 58, 61
1, 149145, Note_off_c, 0, 61, 57
1, 149159, Note_off_c, 0, 66, 61
1, 149277, Control_c, 0, 64, 110
1, 149292, Control_c, 0, 64, 95
1, 149307, Control_c, 0, 64, 80
1, 149322, Control_c, 0, 64, 64
1, 149337, Control_c, 0, 64, 0
1, 149604, Note_on_c, 0, 71, 93
1, 149610, Note_on_c, 0, 35, 79
1, 149618, Control_c, 0, 64, 65
1, 149633, Control_c, 0, 64, 79
1, 149648, Control_c, 0, 64, 101
1, 149663, Control_c, 0, 64, 125
1, 149665, Note_off_c, 0, 35, 63
1, 149678, Control_c, 0, 64, 127
1, 149876, Note_on_c, 0, 54, 76
1, 149886, Note_on_c, 0, 47, 69
1, 149886, Note_on_c, 0, 59, 75
1, 149888, Note_on_c, 0, 50, 67
1, 149937, Note_off_c, 0, 59, 62
1, 149941, Note_on_c, 0, 62, 68
1, 149963, Note_off_c, 0, 54, 59
1, 149995, Note_on_c, 0, 66, 75
1, 149996, Note_off_c, 0, 50, 61
1, 150008, Note_off_c, 0, 62, 61
1, 150011, Note_off_c, 0, 47, 63
1, 150083, Note_off_c, 0, 66, 48
1, 150085, Note_on_c, 0, 59, 85
1, 150139, Note_off_c, 0, 59, 61
1, 150156, Note_off_c, 0, 71, 50
1, 150279, Control_c, 0, 64, 100
1, 150294, Control_c, 0, 64, 75
1, 150308, Control_c, 0, 64, 0
1, 150316, Note_on_c, 0, 35, 85
1, 150318, Note_on_c, 0, 71, 92
1, 150368, Control_c, 0, 64, 47
1, 150378, Note_off_c, 0, 35, 64
1, 150383, Control_c, 0, 64, 70
1, 150397, Control_c, 0, 64, 82
1, 150412, Control_c, 0, 64, 99
1, 150427, Control_c, 0, 64, 108
1, 150441, Control_c, 0, 64, 112
1, 150456, Control_c, 0, 64, 115
1, 150471, Control_c, 0, 64, 118
1, 150486, Control_c, 0, 64, 125
1, 150501, Control_c, 0, 64, 127
1, 150560, Note_on_c, 0, 55, 63
1, 150563, Note_on_c, 0, 52, 57
1, 150564, Note_on_c, 0, 59, 68
1, 150572, Note_on_c, 0, 47, 55
1, 150577, Note_on_c, 0, 49, 54
1, 150616, Note_on_c, 0, 61, 68
1, 150626, Note_off_c, 0, 59, 60
1, 150632, Note_off_c, 0, 71, 35
1, 150654, Note_on_c, 0, 67, 69
1, 150661, Note_off_c, 0, 55, 60
1, 150666, Note_off_c, 0, 47, 56
1, 150672, Note_off_c, 0, 61, 62
1, 150683, Note_off_c, 0, 52, 63
1, 150693, Note_off_c, 0, 49, 57
1, 150742, Note_on_c, 0, 59, 73
1, 150759, Note_off_c, 0, 67, 57
1, 150787, Note_off_c, 0, 59, 61
1, 150924, Control_c, 0, 64, 100
1, 150938, Control_c, 0, 64, 79
1, 150941, Note_on_c, 0, 71, 76
1, 150950, Note_on_c, 0, 50, 64
1, 150953, Control_c, 0, 64, 34
1, 150968, Control_c, 0, 64, 0
1, 151012, Control_c, 0, 64, 62
1, 151025, Note_on_c, 0, 54, 57
1, 151027, Note_off_c, 0, 71, 59
1, 151027, Control_c, 0, 64, 71
1, 151030, Note_off_c, 0, 50, 62
1, 151032, Note_on_c, 0, 66, 69
1, 151033, Note_on_c, 0, 59, 53
1, 151035, Note_on_c, 0, 62, 60
1, 151042, Control_c, 0, 64, 79
1, 151057, Control_c, 0, 64, 88
1, 151066, Note_off_c, 0, 59, 62
1, 151066, Note_off_c, 0, 62, 62
1, 151072, Control_c, 0, 64, 95
1, 151076, Note_off_c, 0, 54, 59
1, 151079, Note_off_c, 0, 66, 60
1, 151087, Control_c, 0, 64, 99
1, 151102, Control_c, 0, 64, 103
1, 151117, Control_c, 0, 64, 107
1, 151125, Note_on_c, 0, 73, 81
1, 151131, Control_c, 0, 64, 109
1, 151134, Note_on_c, 0, 49, 57
1, 151146, Control_c, 0, 64, 111
1, 151161, Control_c, 0, 64, 113
1, 151176, Control_c, 0, 64, 115
1, 151184, Note_off_c, 0, 49, 50
1, 151191, Control_c, 0, 64, 117
1, 151200, Note_on_c, 0, 54, 60
1, 151204, Note_on_c, 0, 58, 60
1, 151205, Note_on_c, 0, 66, 68
1, 151205, Control_c, 0, 64, 119
1, 151206, Note_on_c, 0, 64, 63
1, 151209, Note_off_c, 0, 73, 63
1, 151220, Control_c, 0, 64, 120
1, 151233, Note_off_c, 0, 58, 65
1, 151238, Note_off_c, 0, 64, 66
1, 151251, Note_off_c, 0, 66, 59
1, 151264, Control_c, 0, 64, 120
1, 151272, Note_off_c, 0, 54, 59
1, 151279, Control_c, 0, 64, 121
1, 151309, Note_on_c, 0, 74, 78
1, 151319, Note_on_c, 0, 47, 62
1, 151371, Note_on_c, 0, 59, 53
1, 151371, Note_off_c, 0, 47, 51
1, 151379, Note_on_c, 0, 62, 66
1, 151379, Note_off_c, 0, 74, 64
1, 151388, Note_on_c, 0, 54, 44
1, 151389, Note_on_c, 0, 66, 54
1, 151392, Note_off_c, 0, 59, 59
1, 151411, Note_off_c, 0, 62, 62
1, 151418, Note_off_c, 0, 54, 50
1, 151436, Note_off_c, 0, 66, 58
1, 151494, Control_c, 0, 64, 115
1, 151509, Control_c, 0, 64, 97
1, 151519, Note_on_c, 0, 73, 80
1, 151524, Control_c, 0, 64, 75
1, 151529, Note_on_c, 0, 42, 72
1, 151538, Control_c, 0, 64, 0
1, 151603, Note_off_c, 0, 42, 63
1, 151614, Control_c, 0, 64, 63
1, 151629, Control_c, 0, 64, 77
1, 151643, Control_c, 0, 64, 94
1, 151658, Control_c, 0, 64, 114
1, 151673, Control_c, 0, 64, 119
1, 151687, Control_c, 0, 64, 122
1, 151702, Control_c, 0, 64, 127
1, 151717, Control_c, 0, 64, 127
1, 151775, Note_on_c, 0, 58, 64
1, 151780, Note_on_c, 0, 61, 69
1, 151781, Note_on_c, 0, 54, 54
1, 151790, Note_off_c, 0, 73, 62
1, 151808, Note_off_c, 0, 58, 65
1, 151820, Note_on_c, 0, 66, 68
1, 151830, Note_off_c, 0, 61, 60
1, 151847, Note_off_c, 0, 54, 57
1, 151863, Note_on_c, 0, 70, 71
1, 151871, Note_off_c, 0, 66, 65
1, 151940, Note_on_c, 0, 61, 81
1, 151956, Note_off_c, 0, 70, 47
1, 151982, Note_off_c, 0, 61, 62
1, 152117, Control_c, 0, 64, 112
1, 152132, Control_c, 0, 64, 83
1, 152147, Control_c, 0, 64, 47
1, 152159, Note_on_c, 0, 46, 84
1, 152159, Note_on_c, 0, 74, 88
1, 152161, Control_c, 0, 64, 0
1, 152220, Control_c, 0, 64, 69
1, 152235, Note_off_c, 0, 46, 63
1, 152243, Control_c, 0, 64, 82
1, 152258, Control_c, 0, 64, 98
1, 152273, Control_c, 0, 64, 111
1, 152287, Control_c, 0, 64, 116
1, 152302, Control_c, 0, 64, 119
1, 152317, Control_c, 0, 64, 122
1, 152332, Control_c, 0, 64, 127
1, 152394, Note_on_c, 0, 62, 62
1, 152401, Note_on_c, 0, 58, 71
1, 152411, Note_on_c, 0, 53, 56
1, 152413, Note_on_c, 0, 56, 62
1, 152437, Note_on_c, 0, 65, 68
1, 152440, Note_off_c, 0, 62, 58
1, 152443, Note_off_c, 0, 74, 47
1, 152467, Note_off_c, 0, 58, 60
1, 152474, Note_on_c, 0, 70, 67
1, 152495, Note_off_c, 0, 65, 64
1, 152497, Note_off_c, 0, 56, 62
1, 152503, Note_off_c, 0, 53, 64
1, 152536, Note_off_c, 0, 70, 61
1, 152555, Note_on_c, 0, 62, 75
1, 152602, Note_off_c, 0, 62, 62
1, 152762, Control_c, 0, 64, 125
1, 152774, Note_on_c, 0, 75, 86
1, 152777, Control_c, 0, 64, 98
1, 152781, Note_on_c, 0, 39, 75
1, 152792, Control_c, 0, 64, 71
1, 152807, Control_c, 0, 64, 0
1, 152866, Note_off_c, 0, 39, 62
1, 152866, Control_c, 0, 64, 49
1, 152881, Control_c, 0, 64, 70
1, 152896, Control_c, 0, 64, 84
1, 152910, Control_c, 0, 64, 99
1, 152925, Control_c, 0, 64, 108
1, 152940, Control_c, 0, 64, 112
1, 152955, Control_c, 0, 64, 115
1, 152970, Control_c, 0, 64, 117
1, 152992, Control_c, 0, 64, 121
1, 153006, Control_c, 0, 64, 124
1, 153021, Control_c, 0, 64, 127
1, 153026, Note_on_c, 0, 63, 74
1, 153027, Note_on_c, 0, 58, 68
1, 153039, Note_on_c, 0, 54, 52
1, 153041, Note_off_c, 0, 75, 63
1, 153042, Note_on_c, 0, 51, 53
1, 153057, Note_off_c, 0, 58, 64
1, 153065, Note_on_c, 0, 66, 61
1, 153082, Note_off_c, 0, 63, 61
1, 153105, Note_off_c, 0, 54, 57
1, 153113, Note_off_c, 0, 51, 55
1, 153114, Note_on_c, 0, 70, 70
1, 153120, Note_off_c, 0, 66, 65
1, 153179, Note_off_c, 0, 70, 53
1, 153186, Note_on_c, 0, 63, 79
1, 153223, Note_off_c, 0, 63, 57
1, 153333, Control_c, 0, 64, 110
1, 153348, Control_c, 0, 64, 89
1, 153363, Control_c, 0, 64, 68
1, 153378, Control_c, 0, 64, 0
1, 153383, Note_on_c, 0, 46, 66
1, 153388, Note_on_c, 0, 65, 77
1, 153407, Control_c, 0, 64, 32
1, 153422, Control_c, 0, 64, 66
1, 153437, Control_c, 0, 64, 75
1, 153439, Note_off_c, 0, 65, 67
1, 153452, Control_c, 0, 64, 86
1, 153461, Note_off_c, 0, 46, 63
1, 153466, Control_c, 0, 64, 97
1, 153474, Note_on_c, 0, 77, 73
1, 153481, Control_c, 0, 64, 103
1, 153496, Control_c, 0, 64, 106
1, 153511, Control_c, 0, 64, 109
1, 153526, Control_c, 0, 64, 112
1, 153540, Control_c, 0, 64, 116
1, 153549, Note_off_c, 0, 77, 61
1, 153555, Control_c, 0, 64, 120
1, 153570, Control_c, 0, 64, 122
1, 153573, Note_on_c, 0, 66, 80
1, 153585, Control_c, 0, 64, 123
1, 153586, Note_on_c, 0, 62, 61
1, 153591, Note_on_c, 0, 56, 60
1, 153591, Note_on_c, 0, 58, 59
1, 153600, Control_c, 0, 64, 124
1, 153606, Note_off_c, 0, 62, 60
1, 153615, Control_c, 0, 64, 125
1, 153623, Note_off_c, 0, 58, 64
1, 153628, Note_off_c, 0, 66, 60
1, 153629, Control_c, 0, 64, 125
1, 153632, Note_off_c, 0, 56, 63
1, 153646, Note_on_c, 0, 78, 81
1, 153698, Note_off_c, 0, 78, 63
1, 153737, Note_on_c, 0, 65, 80
1, 153749, Note_on_c, 0, 46, 70
1, 153778, Note_off_c, 0, 46, 63
1, 153792, Note_off_c, 0, 65, 65
1, 153804, Note_on_c, 0, 77, 78
1, 153832, Note_off_c, 0, 77, 58
1, 153919, Control_c, 0, 64, 118
1, 153926, Note_on_c, 0, 75, 87
1, 153933, Control_c, 0, 64, 99
1, 153938, Note_on_c, 0, 51, 68
1, 153948, Control_c, 0, 64, 72
1, 153963, Control_c, 0, 64, 0
1, 154038, Control_c, 0, 64, 66
1, 154053, Control_c, 0, 64, 76
1, 154068, Control_c, 0, 64, 88
1, 154082, Control_c, 0, 64, 98
1, 154083, Note_off_c, 0, 51, 37
1, 154097, Control_c, 0, 64, 104
1, 154112, Control_c, 0, 64, 107
1, 154127, Control_c, 0, 64, 108
1, 154142, Control_c, 0, 64, 111
1, 154156, Control_c, 0, 64, 113
1, 154160, Note_on_c, 0, 63, 69
1, 154161, Note_on_c, 0, 54, 65
1, 154163, Note_on_c, 0, 58, 58
1, 154169, Note_off_c, 0, 75, 63
1, 154171, Control_c, 0, 64, 115
1, 154184, Note_off_c, 0, 58, 63
1, 154186, Control_c, 0, 64, 116
1, 154195, Note_off_c, 0, 54, 62
1, 154201, Control_c, 0, 64, 116
1, 154205, Note_on_c, 0, 66, 72
1, 154217, Note_off_c, 0, 63, 63
1, 154230, Control_c, 0, 64, 117
1, 154241, Note_on_c, 0, 70, 70
1, 154243, Note_off_c, 0, 66, 63
1, 154316, Note_on_c, 0, 63, 74
1, 154321, Note_off_c, 0, 70, 60
1, 154336, Note_off_c, 0, 63, 72
1, 154349, Control_c, 0, 64, 116
1, 154363, Control_c, 0, 64, 113
1, 154378, Control_c, 0, 64, 101
1, 154393, Control_c, 0, 64, 84
1, 154408, Control_c, 0, 64, 60
1, 154422, Control_c, 0, 64, 0
1, 154539, Note_on_c, 0, 35, 82
1, 154542, Note_on_c, 0, 83, 97
1, 154549, Control_c, 0, 64, 64
1, 154563, Control_c, 0, 64, 77
1, 154575, Note_off_c, 0, 35, 65
1, 154578, Control_c, 0, 64, 94
1, 154593, Control_c, 0, 64, 119
1, 154607, Control_c, 0, 64, 127
1, 154771, Note_on_c, 0, 54, 85
1, 154774, Note_on_c, 0, 47, 72
1, 154778, Note_on_c, 0, 50, 70
1, 154784, Note_on_c, 0, 71, 83
1, 154834, Note_off_c, 0, 54, 61
1, 154836, Note_off_c, 0, 71, 59
1, 154840, Note_on_c, 0, 74, 69
1, 154857, Note_off_c, 0, 50, 63
1, 154867, Note_off_c, 0, 47, 62
1, 154884, Note_on_c, 0, 78, 72
1, 154889, Note_off_c, 0, 74, 64
1, 154930, Note_off_c, 0, 83, 55
1, 154962, Note_on_c, 0, 71, 82
1, 154977, Note_off_c, 0, 78, 63
1, 155019, Note_off_c, 0, 71, 58
1, 155127, Control_c, 0, 64, 94
1, 155142, Control_c, 0, 64, 68
1, 155157, Control_c, 0, 64, 0
1, 155167, Note_on_c, 0, 83, 91
1, 155168, Note_on_c, 0, 35, 89
1, 155218, Note_off_c, 0, 35, 64
1, 155238, Control_c, 0, 64, 62
1, 155253, Control_c, 0, 64, 77
1, 155268, Control_c, 0, 64, 95
1, 155283, Control_c, 0, 64, 122
1, 155298, Control_c, 0, 64, 127
1, 155394, Note_on_c, 0, 55, 68
1, 155405, Note_on_c, 0, 52, 52
1, 155410, Note_on_c, 0, 71, 76
1, 155418, Note_on_c, 0, 49, 53
1, 155424, Note_on_c, 0, 47, 54
1, 155456, Note_on_c, 0, 73, 74
1, 155461, Note_off_c, 0, 83, 35
1, 155466, Note_off_c, 0, 71, 59
1, 155481, Note_off_c, 0, 55, 61
1, 155484, Note_off_c, 0, 47, 58
1, 155500, Note_on_c, 0, 79, 68
1, 155504, Note_off_c, 0, 73, 63
1, 155505, Note_off_c, 0, 52, 65
1, 155517, Note_off_c, 0, 49, 58
1, 155579, Note_on_c, 0, 71, 75
1, 155610, Note_off_c, 0, 79, 57
1, 155625, Note_off_c, 0, 71, 60
1, 155743, Control_c, 0, 64, 110
1, 155758, Note_on_c, 0, 83, 79
1, 155758, Control_c, 0, 64, 81
1, 155764, Note_on_c, 0, 50, 68
1, 155773, Control_c, 0, 64, 32
1, 155788, Control_c, 0, 64, 0
1, 155832, Control_c, 0, 64, 66
1, 155846, Note_off_c, 0, 50, 62
1, 155846, Control_c, 0, 64, 76
1, 155851, Note_on_c, 0, 54, 58
1, 155851, Note_on_c, 0, 74, 68
1, 155854, Note_on_c, 0, 59, 61
1, 155854, Note_on_c, 0, 78, 72
1, 155855, Note_off_c, 0, 83, 59
1, 155861, Control_c, 0, 64, 90
1, 155876, Control_c, 0, 64, 102
1, 155891, Control_c, 0, 64, 109
1, 155894, Note_off_c, 0, 59, 62
1, 155895, Note_off_c, 0, 74, 62
1, 155900, Note_off_c, 0, 54, 57
1, 155906, Control_c, 0, 64, 114
1, 155910, Note_off_c, 0, 78, 63
1, 155920, Control_c, 0, 64, 117
1, 155935, Control_c, 0, 64, 122
1, 155945, Note_on_c, 0, 85, 83
1, 155950, Control_c, 0, 64, 127
1, 155955, Note_on_c, 0, 49, 60
1, 156027, Note_off_c, 0, 49, 60
1, 156032, Note_on_c, 0, 54, 53
1, 156033, Note_on_c, 0, 58, 70
1, 156035, Note_on_c, 0, 78, 70
1, 156036, Note_on_c, 0, 76, 66
1, 156042, Note_off_c, 0, 85, 64
1, 156062, Note_off_c, 0, 58, 65
1, 156077, Note_off_c, 0, 76, 64
1, 156085, Note_off_c, 0, 78, 62
1, 156112, Note_off_c, 0, 54, 60
1, 156124, Note_on_c, 0, 86, 83
1, 156130, Note_on_c, 0, 47, 67
1, 156175, Note_off_c, 0, 47, 56
1, 156196, Note_on_c, 0, 59, 63
1, 156197, Note_off_c, 0, 86, 61
1, 156200, Note_on_c, 0, 54, 45
1, 156204, Note_on_c, 0, 74, 69
1, 156208, Note_on_c, 0, 78, 69
1, 156215, Note_off_c, 0, 59, 63
1, 156218, Poly_aftertouch_c, 0, 50, 127
1, 156235, Note_off_c, 0, 54, 61
1, 156239, Note_off_c, 0, 74, 60
1, 156247, Note_off_c, 0, 78, 53
1, 156248, Poly_aftertouch_c, 0, 50, 0
1, 156297, Control_c, 0, 64, 103
1, 156312, Control_c, 0, 64, 79
1, 156318, Note_on_c, 0, 85, 84
1, 156326, Note_on_c, 0, 42, 74
1, 156327, Control_c, 0, 64, 0
1, 156394, Note_off_c, 0, 42, 64
1, 156402, Control_c, 0, 64, 66
1, 156417, Control_c, 0, 64, 82
1, 156432, Control_c, 0, 64, 109
1, 156446, Control_c, 0, 64, 127
1, 156551, Note_on_c, 0, 58, 65
1, 156551, Note_on_c, 0, 73, 74
1, 156558, Note_on_c, 0, 54, 61
1, 156566, Note_off_c, 0, 85, 65
1, 156581, Note_off_c, 0, 58, 67
1, 156600, Note_on_c, 0, 78, 73
1, 156606, Note_off_c, 0, 73, 62
1, 156612, Note_off_c, 0, 54, 55
1, 156640, Note_on_c, 0, 82, 76
1, 156651, Note_off_c, 0, 78, 62
1, 156715, Note_on_c, 0, 73, 83
1, 156739, Note_off_c, 0, 82, 38
1, 156767, Note_off_c, 0, 73, 63
1, 156809, Control_c, 0, 64, 112
1, 156824, Control_c, 0, 64, 90
1, 156839, Control_c, 0, 64, 69
1, 156854, Control_c, 0, 64, 0
1, 156917, Note_on_c, 0, 86, 92
1, 156919, Note_on_c, 0, 46, 80
1, 156957, Control_c, 0, 64, 68
1, 156972, Control_c, 0, 64, 84
1, 156974, Note_off_c, 0, 46, 63
1, 156987, Control_c, 0, 64, 107
1, 157001, Control_c, 0, 64, 127
1, 157132, Note_on_c, 0, 58, 71
1, 157144, Note_on_c, 0, 56, 61
1, 157147, Note_on_c, 0, 53, 58
1, 157148, Note_on_c, 0, 74, 68
1, 157173, Note_on_c, 0, 77, 69
1, 157188, Note_off_c, 0, 74, 56
1, 157195, Note_off_c, 0, 58, 60
1, 157195, Note_off_c, 0, 86, 52
1, 157210, Note_on_c, 0, 82, 68
1, 157224, Note_off_c, 0, 77, 62
1, 157225, Note_off_c, 0, 56, 62
1, 157233, Note_off_c, 0, 53, 64
1, 157262, Note_off_c, 0, 82, 63
1, 157294, Note_on_c, 0, 74, 75
1, 157338, Note_off_c, 0, 74, 63
1, 157462, Control_c, 0, 64, 115
1, 157484, Control_c, 0, 64, 83
1, 157499, Control_c, 0, 64, 0
1, 157500, Note_on_c, 0, 87, 91
1, 157503, Note_on_c, 0, 39, 78
1, 157572, Note_off_c, 0, 39, 63
1, 157573, Control_c, 0, 64, 57
1, 157588, Control_c, 0, 64, 76
1, 157603, Control_c, 0, 64, 91
1, 157618, Control_c, 0, 64, 109
1, 157632, Control_c, 0, 64, 120
1, 157647, Control_c, 0, 64, 122
1, 157662, Control_c, 0, 64, 125
1, 157677, Control_c, 0, 64, 127
1, 157720, Note_on_c, 0, 75, 70
1, 157724, Note_on_c, 0, 58, 65
1, 157740, Note_off_c, 0, 87, 61
1, 157745, Note_on_c, 0, 51, 45
1, 157745, Note_on_c, 0, 54, 50
1, 157757, Note_on_c, 0, 78, 72
1, 157759, Note_off_c, 0, 58, 61
1, 157773, Note_off_c, 0, 75, 58
1, 157803, Note_off_c, 0, 54, 57
1, 157806, Note_on_c, 0, 82, 69
1, 157812, Note_off_c, 0, 51, 52
1, 157813, Note_off_c, 0, 78, 63
1, 157865, Note_on_c, 0, 75, 77
1, 157869, Note_off_c, 0, 82, 62
1, 157914, Note_off_c, 0, 75, 63
1, 158018, Control_c, 0, 64, 121
1, 158033, Control_c, 0, 64, 96
1, 158047, Control_c, 0, 64, 74
1, 158062, Control_c, 0, 64, 0
1, 158068, Note_on_c, 0, 46, 70
1, 158077, Note_on_c, 0, 77, 73
1, 158081, Note_on_c, 0, 86, 67
1, 158083, Note_on_c, 0, 82, 66
1, 158107, Control_c, 0, 64, 56
1, 158122, Control_c, 0, 64, 71
1, 158130, Note_off_c, 0, 77, 60
1, 158130, Note_off_c, 0, 82, 59
1, 158135, Note_off_c, 0, 46, 63
1, 158137, Control_c, 0, 64, 84
1, 158152, Control_c, 0, 64, 100
1, 158163, Note_on_c, 0, 89, 76
1, 158166, Control_c, 0, 64, 109
1, 158181, Control_c, 0, 64, 112
1, 158187, Note_off_c, 0, 86, 59
1, 158196, Control_c, 0, 64, 113
1, 158211, Control_c, 0, 64, 116
1, 158229, Note_off_c, 0, 89, 63
1, 158233, Control_c, 0, 64, 119
1, 158248, Control_c, 0, 64, 121
1, 158259, Note_on_c, 0, 62, 65
1, 158260, Note_on_c, 0, 78, 80
1, 158262, Note_on_c, 0, 86, 59
1, 158262, Control_c, 0, 64, 122
1, 158266, Note_on_c, 0, 56, 60
1, 158268, Note_on_c, 0, 58, 59
1, 158277, Control_c, 0, 64, 125
1, 158280, Note_on_c, 0, 82, 56
1, 158280, Note_off_c, 0, 62, 63
1, 158292, Control_c, 0, 64, 127
1, 158295, Note_off_c, 0, 78, 55
1, 158299, Note_off_c, 0, 58, 65
1, 158305, Note_off_c, 0, 56, 62
1, 158318, Note_off_c, 0, 82, 61
1, 158332, Note_on_c, 0, 90, 83
1, 158363, Note_off_c, 0, 86, 62
1, 158389, Note_off_c, 0, 90, 64
1, 158414, Note_on_c, 0, 46, 70
1, 158422, Note_on_c, 0, 77, 76
1, 158423, Note_on_c, 0, 86, 59
1, 158426, Note_on_c, 0, 82, 68
1, 158447, Note_off_c, 0, 77, 64
1, 158449, Note_off_c, 0, 46, 65
1, 158488, Note_on_c, 0, 89, 80
1, 158491, Note_off_c, 0, 82, 62
1, 158509, Note_off_c, 0, 86, 63
1, 158530, Note_off_c, 0, 89, 64
1, 158573, Control_c, 0, 64, 119
1, 158588, Control_c, 0, 64, 96
1, 158603, Control_c, 0, 64, 73
1, 158614, Note_on_c, 0, 87, 74
1, 158618, Control_c, 0, 64, 0
1, 158619, Note_on_c, 0, 51, 65
1, 158637, Note_on_c, 0, 88, 63
1, 158662, Note_off_c, 0, 88, 52
1, 158662, Control_c, 0, 64, 30
1, 158677, Control_c, 0, 64, 69
1, 158692, Control_c, 0, 64, 81
1, 158695, Note_off_c, 0, 51, 58
1, 158707, Control_c, 0, 64, 96
1, 158721, Control_c, 0, 64, 107
1, 158736, Control_c, 0, 64, 111
1, 158751, Control_c, 0, 64, 114
1, 158766, Control_c, 0, 64, 117
1, 158780, Control_c, 0, 64, 121
1, 158797, Control_c, 0, 64, 125
1, 158812, Control_c, 0, 64, 127
1, 158819, Note_on_c, 0, 75, 70
1, 158824, Note_on_c, 0, 63, 63
1, 158825, Note_on_c, 0, 58, 65
1, 158828, Note_on_c, 0, 54, 60
1, 158847, Note_off_c, 0, 63, 66
1, 158858, Note_off_c, 0, 58, 64
1, 158861, Note_off_c, 0, 87, 59
1, 158864, Note_on_c, 0, 78, 77
1, 158876, Note_off_c, 0, 75, 63
1, 158880, Note_off_c, 0, 54, 61
1, 158898, Note_on_c, 0, 82, 72
1, 158914, Note_off_c, 0, 78, 62
1, 158960, Note_on_c, 0, 75, 83
1, 158986, Note_off_c, 0, 82, 63
1, 159008, Note_off_c, 0, 75, 63
1, 159115, Control_c, 0, 64, 117
1, 159130, Control_c, 0, 64, 98
1, 159145, Control_c, 0, 64, 74
1, 159159, Control_c, 0, 64, 0
1, 159177, Note_on_c, 0, 94, 100
1, 159178, Note_on_c, 0, 46, 86
1, 159210, Note_off_c, 0, 46, 67
1, 159234, Control_c, 0, 64, 67
1, 159248, Control_c, 0, 64, 84
1, 159263, Control_c, 0, 64, 109
1, 159278, Control_c, 0, 64, 127
1, 159373, Note_off_c, 0, 94, 64
1, 159394, Note_on_c, 0, 58, 60
1, 159394, Note_on_c, 0, 65, 67
1, 159394, Note_on_c, 0, 82, 74
1, 159398, Note_on_c, 0, 68, 65
1, 159413, Note_on_c, 0, 62, 57
1, 159423, Note_off_c, 0, 68, 66
1, 159430, Note_on_c, 0, 89, 68
1, 159442, Note_off_c, 0, 65, 63
1, 159442, Note_off_c, 0, 82, 63
1, 159450, Note_off_c, 0, 62, 61
1, 159457, Note_off_c, 0, 58, 64
1, 159473, Note_on_c, 0, 92, 70
1, 159481, Note_off_c, 0, 89, 65
1, 159544, Note_on_c, 0, 82, 77
1, 159603, Note_off_c, 0, 82, 60
1, 159611, Note_off_c, 0, 92, 31
1, 159693, Control_c, 0, 64, 103
1, 159708, Control_c, 0, 64, 75
1, 159728, Note_on_c, 0, 51, 80
1, 159728, Note_on_c, 0, 94, 94
1, 159731, Control_c, 0, 64, 0
1, 159779, Note_off_c, 0, 51, 64
1, 159790, Control_c, 0, 64, 57
1, 159805, Control_c, 0, 64, 73
1, 159819, Control_c, 0, 64, 88
1, 159834, Control_c, 0, 64, 107
1, 159849, Control_c, 0, 64, 121
1, 159864, Control_c, 0, 64, 125
1, 159879, Control_c, 0, 64, 127
1, 159930, Note_on_c, 0, 66, 60
1, 159939, Note_on_c, 0, 82, 73
1, 159942, Note_on_c, 0, 58, 57
1, 159946, Note_on_c, 0, 63, 54
1, 159958, Note_off_c, 0, 94, 64
1, 159968, Note_off_c, 0, 66, 64
1, 159974, Note_on_c, 0, 87, 67
1, 159988, Note_off_c, 0, 82, 60
1, 160000, Note_off_c, 0, 63, 58
1, 160001, Note_off_c, 0, 58, 59
1, 160016, Note_on_c, 0, 90, 78
1, 160027, Note_off_c, 0, 87, 63
1, 160065, Note_off_c, 0, 90, 56
1, 160085, Note_on_c, 0, 82, 69
1, 160126, Note_off_c, 0, 82, 60
1, 160205, Control_c, 0, 64, 99
1, 160219, Control_c, 0, 64, 75
1, 160234, Control_c, 0, 64, 0
1, 160245, Note_on_c, 0, 56, 59
1, 160253, Note_on_c, 0, 65, 61
1, 160253, Note_on_c, 0, 80, 70
1, 160253, Note_on_c, 0, 89, 68
1, 160261, Note_on_c, 0, 59, 49
1, 160279, Control_c, 0, 64, 57
1, 160284, Note_off_c, 0, 80, 62
1, 160293, Note_off_c, 0, 65, 66
1, 160293, Control_c, 0, 64, 72
1, 160295, Note_off_c, 0, 56, 60
1, 160308, Control_c, 0, 64, 86
1, 160323, Control_c, 0, 64, 102
1, 160327, Note_off_c, 0, 59, 53
1, 160328, Note_on_c, 0, 92, 78
1, 160338, Control_c, 0, 64, 114
1, 160352, Control_c, 0, 64, 118
1, 160366, Note_off_c, 0, 89, 50
1, 160367, Control_c, 0, 64, 121
1, 160371, Note_off_c, 0, 92, 64
1, 160382, Control_c, 0, 64, 127
1, 160413, Note_on_c, 0, 87, 68
1, 160414, Note_on_c, 0, 78, 74
1, 160420, Note_on_c, 0, 66, 68
1, 160423, Note_on_c, 0, 58, 59
1, 160440, Note_off_c, 0, 78, 63
1, 160444, Note_off_c, 0, 66, 62
1, 160475, Note_off_c, 0, 58, 57
1, 160486, Note_on_c, 0, 90, 81
1, 160491, Note_off_c, 0, 87, 61
1, 160533, Note_off_c, 0, 90, 64
1, 160564, Note_on_c, 0, 86, 74
1, 160566, Note_on_c, 0, 77, 71
1, 160570, Note_on_c, 0, 65, 70
1, 160573, Note_on_c, 0, 68, 58
1, 160581, Note_on_c, 0, 58, 61
1, 160591, Note_off_c, 0, 77, 64
1, 160592, Note_off_c, 0, 68, 63
1, 160594, Note_off_c, 0, 65, 69
1, 160615, Note_off_c, 0, 58, 65
1, 160634, Note_off_c, 0, 86, 63
1, 160642, Note_on_c, 0, 89, 76
1, 160687, Control_c, 0, 64, 99
1, 160691, Note_off_c, 0, 89, 64
1, 160702, Control_c, 0, 64, 76
1, 160717, Control_c, 0, 64, 0
1, 160734, Note_on_c, 0, 51, 72
1, 160739, Note_on_c, 0, 87, 78
1, 160761, Control_c, 0, 64, 64
1, 160772, Note_off_c, 0, 51, 64
1, 160776, Control_c, 0, 64, 77
1, 160791, Control_c, 0, 64, 94
1, 160805, Control_c, 0, 64, 116
1, 160820, Control_c, 0, 64, 127
1, 160937, Note_on_c, 0, 66, 71
1, 160948, Note_on_c, 0, 63, 59
1, 160958, Note_on_c, 0, 58, 60
1, 160966, Note_off_c, 0, 66, 66
1, 160973, Note_on_c, 0, 78, 67
1, 160976, Note_off_c, 0, 87, 62
1, 160986, Note_off_c, 0, 63, 65
1, 160998, Note_off_c, 0, 58, 64
1, 161002, Note_on_c, 0, 82, 70
1, 161004, Note_off_c, 0, 78, 64
1, 161060, Note_on_c, 0, 75, 74
1, 161089, Note_off_c, 0, 82, 63
1, 161101, Note_off_c, 0, 75, 68
1, 161191, Control_c, 0, 64, 99
1, 161206, Control_c, 0, 64, 75
1, 161228, Control_c, 0, 64, 0
1, 161252, Note_on_c, 0, 46, 85
1, 161258, Note_on_c, 0, 94, 95
1, 161273, Control_c, 0, 64, 58
1, 161284, Note_off_c, 0, 46, 66
1, 161287, Control_c, 0, 64, 77
1, 161302, Control_c, 0, 64, 97
1, 161317, Control_c, 0, 64, 127
1, 161428, Note_off_c, 0, 94, 65
1, 161449, Note_on_c, 0, 82, 76
1, 161455, Note_on_c, 0, 68, 71
1, 161461, Note_on_c, 0, 65, 67
1, 161463, Note_on_c, 0, 58, 63
1, 161472, Note_on_c, 0, 62, 59
1, 161481, Note_off_c, 0, 68, 69
1, 161492, Note_on_c, 0, 89, 67
1, 161496, Note_off_c, 0, 82, 64
1, 161502, Note_off_c, 0, 65, 63
1, 161511, Note_off_c, 0, 62, 60
1, 161525, Note_off_c, 0, 58, 63
1, 161537, Note_on_c, 0, 92, 74
1, 161549, Note_off_c, 0, 89, 65
1, 161597, Note_on_c, 0, 82, 83
1, 161626, Note_off_c, 0, 92, 61
1, 161652, Note_off_c, 0, 82, 60
1, 161732, Control_c, 0, 64, 99
1, 161746, Control_c, 0, 64, 74
1, 161760, Note_on_c, 0, 94, 93
1, 161761, Control_c, 0, 64, 0
1, 161762, Note_on_c, 0, 51, 82
1, 161806, Control_c, 0, 64, 65
1, 161809, Note_off_c, 0, 51, 63
1, 161821, Control_c, 0, 64, 77
1, 161836, Control_c, 0, 64, 92
1, 161851, Control_c, 0, 64, 110
1, 161865, Control_c, 0, 64, 122
1, 161880, Control_c, 0, 64, 127
1, 161955, Note_on_c, 0, 82, 73
1, 161966, Note_on_c, 0, 66, 68
1, 161982, Note_on_c, 0, 58, 58
1, 161987, Note_on_c, 0, 63, 52
1, 162000, Note_off_c, 0, 66, 64
1, 162002, Note_off_c, 0, 94, 64
1, 162007, Note_on_c, 0, 87, 68
1, 162012, Note_off_c, 0, 82, 63
1, 162039, Note_off_c, 0, 63, 58
1, 162043, Note_off_c, 0, 58, 60
1, 162047, Note_on_c, 0, 90, 74
1, 162057, Note_off_c, 0, 87, 58
1, 162097, Note_on_c, 0, 82, 74
1, 162106, Note_off_c, 0, 90, 61
1, 162143, Note_off_c, 0, 82, 62
1, 162214, Control_c, 0, 64, 121
1, 162229, Control_c, 0, 64, 96
1, 162244, Control_c, 0, 64, 73
1, 162259, Note_on_c, 0, 56, 57
1, 162259, Control_c, 0, 64, 0
1, 162260, Note_on_c, 0, 80, 67
1, 162263, Note_on_c, 0, 89, 64
1, 162265, Note_on_c, 0, 65, 60
1, 162271, Note_on_c, 0, 59, 54
1, 162298, Note_off_c, 0, 80, 58
1, 162303, Note_off_c, 0, 65, 67
1, 162304, Control_c, 0, 64, 63
1, 162307, Note_off_c, 0, 56, 59
1, 162319, Control_c, 0, 64, 73
1, 162325, Note_off_c, 0, 59, 55
1, 162334, Control_c, 0, 64, 83
1, 162339, Note_on_c, 0, 92, 77
1, 162349, Control_c, 0, 64, 96
1, 162363, Control_c, 0, 64, 105
1, 162365, Note_off_c, 0, 89, 57
1, 162378, Control_c, 0, 64, 110
1, 162379, Note_off_c, 0, 92, 63
1, 162393, Control_c, 0, 64, 113
1, 162408, Control_c, 0, 64, 119
1, 162417, Note_on_c, 0, 87, 76
1, 162419, Note_on_c, 0, 78, 81
1, 162422, Control_c, 0, 64, 126
1, 162429, Note_on_c, 0, 66, 68
1, 162432, Note_on_c, 0, 58, 59
1, 162437, Control_c, 0, 64, 127
1, 162444, Note_on_c, 0, 63, 38
1, 162449, Note_off_c, 0, 78, 61
1, 162466, Note_off_c, 0, 66, 61
1, 162473, Note_off_c, 0, 58, 58
1, 162475, Note_off_c, 0, 63, 53
1, 162487, Note_on_c, 0, 90, 83
1, 162489, Note_off_c, 0, 87, 62
1, 162528, Note_off_c, 0, 90, 66
1, 162563, Note_on_c, 0, 77, 79
1, 162567, Note_on_c, 0, 86, 73
1, 162571, Note_on_c, 0, 68, 70
1, 162575, Note_on_c, 0, 65, 68
1, 162579, Note_on_c, 0, 58, 66
1, 162590, Note_off_c, 0, 77, 61
1, 162591, Note_off_c, 0, 68, 67
1, 162599, Note_off_c, 0, 65, 69
1, 162626, Note_off_c, 0, 86, 62
1, 162627, Note_off_c, 0, 58, 61
1, 162637, Note_on_c, 0, 89, 80
1, 162682, Note_off_c, 0, 89, 64
1, 162703, Control_c, 0, 64, 111
1, 162726, Control_c, 0, 64, 88
1, 162740, Note_on_c, 0, 87, 83
1, 162741, Control_c, 0, 64, 64
1, 162742, Note_on_c, 0, 51, 81
1, 162755, Control_c, 0, 64, 0
1, 162781, Note_off_c, 0, 51, 65
1, 162785, Control_c, 0, 64, 69
1, 162801, Control_c, 0, 64, 83
1, 162816, Control_c, 0, 64, 103
1, 162831, Control_c, 0, 64, 125
1, 162845, Control_c, 0, 64, 127
1, 162915, Note_on_c, 0, 75, 71
1, 162917, Note_off_c, 0, 87, 57
1, 162926, Note_on_c, 0, 66, 73
1, 162937, Note_on_c, 0, 58, 64
1, 162946, Note_on_c, 0, 63, 60
1, 162958, Note_off_c, 0, 66, 62
1, 162963, Note_on_c, 0, 78, 74
1, 162967, Note_off_c, 0, 75, 64
1, 162988, Note_off_c, 0, 78, 64
1, 162990, Note_on_c, 0, 82, 69
1, 163006, Note_off_c, 0, 63, 60
1, 163007, Note_off_c, 0, 58, 63
1, 163044, Note_on_c, 0, 75, 81
1, 163070, Note_off_c, 0, 75, 68
1, 163070, Note_off_c, 0, 82, 62
1, 163156, Control_c, 0, 64, 114
1, 163170, Control_c, 0, 64, 90
1, 163185, Control_c, 0, 64, 67
1, 163199, Note_on_c, 0, 83, 81
1, 163200, Control_c, 0, 64, 0
1, 163201, Note_on_c, 0, 56, 67
1, 163201, Note_on_c, 0, 92, 80
1, 163201, Note_on_c, 0, 65, 78
1, 163207, Note_on_c, 0, 59, 69
1, 163230, Control_c, 0, 64, 60
1, 163236, Note_off_c, 0, 83, 60
1, 163240, Note_off_c, 0, 65, 67
1, 163244, Control_c, 0, 64, 74
1, 163252, Note_off_c, 0, 56, 59
1, 163259, Control_c, 0, 64, 88
1, 163264, Note_on_c, 0, 95, 79
1, 163273, Note_off_c, 0, 59, 49
1, 163274, Control_c, 0, 64, 105
1, 163289, Control_c, 0, 64, 115
1, 163300, Note_off_c, 0, 92, 60
1, 163304, Control_c, 0, 64, 117
1, 163318, Control_c, 0, 64, 121
1, 163320, Note_off_c, 0, 95, 59
1, 163333, Control_c, 0, 64, 126
1, 163348, Control_c, 0, 64, 127
1, 163360, Note_on_c, 0, 82, 77
1, 163362, Note_on_c, 0, 66, 92
1, 163364, Note_on_c, 0, 90, 66
1, 163366, Note_on_c, 0, 58, 72
1, 163368, Note_on_c, 0, 63, 64
1, 163375, Note_off_c, 0, 82, 68
1, 163403, Note_off_c, 0, 63, 66
1, 163408, Note_off_c, 0, 66, 62
1, 163423, Note_on_c, 0, 94, 80
1, 163425, Note_off_c, 0, 90, 39
1, 163437, Note_off_c, 0, 58, 61
1, 163440, Note_on_c, 0, 92, 55
1, 163469, Note_off_c, 0, 92, 60
1, 163478, Note_off_c, 0, 94, 66
1, 163509, Note_on_c, 0, 89, 83
1, 163519, Note_on_c, 0, 68, 80
1, 163521, Note_on_c, 0, 65, 76
1, 163523, Note_on_c, 0, 58, 72
1, 163526, Note_on_c, 0, 86, 73
1, 163541, Note_off_c, 0, 68, 71
1, 163544, Note_off_c, 0, 65, 69
1, 163550, Note_off_c, 0, 86, 68
1, 163558, Note_off_c, 0, 89, 65
1, 163568, Note_off_c, 0, 58, 64
1, 163577, Note_on_c, 0, 98, 80
1, 163621, Note_off_c, 0, 98, 64
1, 163698, Control_c, 0, 64, 101
1, 163713, Control_c, 0, 64, 73
1, 163722, Note_on_c, 0, 99, 87
1, 163728, Control_c, 0, 64, 0
1, 163730, Note_on_c, 0, 58, 71
1, 163731, Note_on_c, 0, 63, 97
1, 163735, Note_on_c, 0, 51, 80
1, 163737, Note_on_c, 0, 54, 75
1, 163757, Control_c, 0, 64, 53
1, 163769, Note_off_c, 0, 99, 68
1, 163772, Control_c, 0, 64, 72
1, 163779, Note_on_c, 0, 95, 75
1, 163787, Control_c, 0, 64, 85
1, 163801, Control_c, 0, 64, 102
1, 163816, Control_c, 0, 64, 110
1, 163819, Note_off_c, 0, 95, 64
1, 163831, Control_c, 0, 64, 113
1, 163846, Control_c, 0, 64, 114
1, 163860, Note_on_c, 0, 94, 75
1, 163861, Control_c, 0, 64, 115
1, 163875, Control_c, 0, 64, 117
1, 163890, Control_c, 0, 64, 119
1, 163897, Note_off_c, 0, 58, 60
1, 163905, Control_c, 0, 64, 120
1, 163906, Note_on_c, 0, 93, 63
1, 163914, Note_off_c, 0, 94, 65
1, 163920, Control_c, 0, 64, 121
1, 163934, Note_off_c, 0, 93, 65
1, 163935, Control_c, 0, 64, 121
1, 163939, Note_on_c, 0, 91, 60
1, 163952, Note_on_c, 0, 89, 74
1, 163957, Note_off_c, 0, 54, 54
1, 163957, Note_off_c, 0, 91, 40
1, 163958, Note_off_c, 0, 51, 57
1, 163962, Note_off_c, 0, 63, 61
1, 163985, Note_off_c, 0, 89, 64
1, 164024, Note_on_c, 0, 87, 93
1, 164030, Note_on_c, 0, 63, 89
1, 164033, Note_on_c, 0, 59, 80
1, 164042, Note_on_c, 0, 51, 67
1, 164045, Note_on_c, 0, 56, 60
1, 164053, Note_off_c, 0, 63, 69
1, 164054, Control_c, 0, 64, 116
1, 164058, Note_on_c, 0, 54, 57
1, 164063, Note_off_c, 0, 59, 58
1, 164064, Note_off_c, 0, 87, 63
1, 164068, Control_c, 0, 64, 103
1, 164070, Note_off_c, 0, 56, 65
1, 164083, Control_c, 0, 64, 82
1, 164095, Note_off_c, 0, 51, 46
1, 164095, Note_off_c, 0, 54, 58
1, 164098, Control_c, 0, 64, 61
1, 164113, Control_c, 0, 64, 0
1, 164196, Note_on_c, 0, 87, 66
1, 164230, Note_on_c, 0, 63, 95
1, 164234, Note_on_c, 0, 58, 80
1, 164236, Note_on_c, 0, 54, 75
1, 164239, Control_c, 0, 64, 64
1, 164242, Note_off_c, 0, 87, 59
1, 164243, Note_on_c, 0, 51, 74
1, 164253, Control_c, 0, 64, 76
1, 164259, Note_on_c, 0, 83, 69
1, 164268, Control_c, 0, 64, 92
1, 164283, Control_c, 0, 64, 114
1, 164289, Note_off_c, 0, 83, 62
1, 164298, Control_c, 0, 64, 122
1, 164313, Control_c, 0, 64, 124
1, 164328, Control_c, 0, 64, 127
1, 164334, Note_on_c, 0, 82, 73
1, 164367, Note_on_c, 0, 80, 74
1, 164367, Note_off_c, 0, 58, 62
1, 164397, Note_off_c, 0, 82, 63
1, 164408, Note_on_c, 0, 78, 76
1, 164420, Note_off_c, 0, 80, 65
1, 164423, Note_off_c, 0, 51, 58
1, 164425, Note_off_c, 0, 54, 52
1, 164430, Note_off_c, 0, 63, 61
1, 164444, Note_on_c, 0, 77, 79
1, 164447, Note_off_c, 0, 78, 59
1, 164471, Note_off_c, 0, 77, 63
1, 164506, Note_on_c, 0, 75, 89
1, 164513, Note_on_c, 0, 63, 73
1, 164519, Note_on_c, 0, 51, 71
1, 164522, Note_on_c, 0, 59, 55
1, 164523, Note_on_c, 0, 56, 63
1, 164526, Note_off_c, 0, 63, 71
1, 164528, Note_on_c, 0, 54, 62
1, 164531, Note_off_c, 0, 75, 64
1, 164543, Note_off_c, 0, 59, 59
1, 164544, Note_off_c, 0, 56, 64
1, 164549, Note_off_c, 0, 51, 67
1, 164551, Control_c, 0, 64, 101
1, 164555, Note_off_c, 0, 54, 64
1, 164565, Control_c, 0, 64, 75
1, 164580, Control_c, 0, 64, 0
1, 164695, Note_on_c, 0, 75, 76
1, 164708, Note_on_c, 0, 51, 85
1, 164712, Note_on_c, 0, 39, 71
1, 164716, Note_on_c, 0, 42, 67
1, 164728, Control_c, 0, 64, 63
1, 164730, Note_on_c, 0, 45, 63
1, 164739, Note_off_c, 0, 75, 64
1, 164743, Control_c, 0, 64, 78
1, 164748, Note_on_c, 0, 46, 37
1, 164753, Note_on_c, 0, 71, 69
1, 164758, Control_c, 0, 64, 102
1, 164772, Control_c, 0, 64, 127
1, 164778, Note_off_c, 0, 71, 66
1, 164803, Note_off_c, 0, 46, 41
1, 164807, Note_off_c, 0, 45, 59
1, 164842, Note_on_c, 0, 69, 67
1, 164855, Note_off_c, 0, 42, 62
1, 164873, Note_off_c, 0, 69, 65
1, 164891, Note_on_c, 0, 67, 52
1, 164894, Note_off_c, 0, 51, 47
1, 164909, Note_on_c, 0, 66, 74
1, 164914, Note_off_c, 0, 67, 59
1, 164933, Note_off_c, 0, 66, 69
1, 164933, Note_on_c, 0, 65, 79
1, 164941, Note_off_c, 0, 39, 42
1, 164971, Note_off_c, 0, 65, 66
1, 165011, Note_on_c, 0, 63, 92
1, 165026, Note_on_c, 0, 47, 85
1, 165026, Note_on_c, 0, 51, 88
1, 165028, Note_on_c, 0, 44, 68
1, 165031, Control_c, 0, 64, 117
1, 165035, Note_on_c, 0, 39, 62
1, 165046, Control_c, 0, 64, 88
1, 165054, Note_off_c, 0, 63, 64
1, 165058, Note_on_c, 0, 42, 52
1, 165061, Control_c, 0, 64, 64
1, 165065, Note_off_c, 0, 51, 58
1, 165068, Note_off_c, 0, 47, 60
1, 165073, Note_off_c, 0, 44, 61
1, 165076, Control_c, 0, 64, 0
1, 165083, Note_off_c, 0, 42, 56
1, 165089, Note_off_c, 0, 39, 56
1, 165180, Note_on_c, 0, 63, 66
1, 165207, Note_on_c, 0, 51, 91
1, 165210, Note_on_c, 0, 46, 82
1, 165210, Control_c, 0, 64, 60
1, 165211, Note_on_c, 0, 42, 63
1, 165213, Note_on_c, 0, 39, 73
1, 165225, Control_c, 0, 64, 76
1, 165226, Note_off_c, 0, 63, 63
1, 165237, Note_on_c, 0, 59, 67
1, 165240, Control_c, 0, 64, 99
1, 165255, Control_c, 0, 64, 127
1, 165269, Note_off_c, 0, 59, 64
1, 165316, Note_on_c, 0, 58, 68
1, 165339, Note_off_c, 0, 51, 58
1, 165350, Note_on_c, 0, 56, 75
1, 165382, Note_off_c, 0, 58, 64
1, 165391, Note_on_c, 0, 54, 66
1, 165404, Note_off_c, 0, 56, 65
1, 165413, Note_off_c, 0, 46, 60
1, 165427, Note_on_c, 0, 53, 77
1, 165430, Note_off_c, 0, 54, 61
1, 165455, Note_off_c, 0, 42, 61
1, 165461, Note_off_c, 0, 53, 67
1, 165483, Note_off_c, 0, 39, 0
1, 165493, Note_on_c, 0, 51, 94
1, 165496, Note_on_c, 0, 44, 78
1, 165498, Note_on_c, 0, 47, 87
1, 165499, Note_on_c, 0, 39, 48
1, 165521, Control_c, 0, 64, 99
1, 165523, Note_off_c, 0, 47, 68
1, 165524, Note_off_c, 0, 51, 60
1, 165529, Note_off_c, 0, 44, 66
1, 165536, Control_c, 0, 64, 77
1, 165551, Control_c, 0, 64, 0
1, 165552, Note_off_c, 0, 39, 63
1, 165734, Note_on_c, 0, 51, 75
1, 165737, Note_on_c, 0, 63, 66
1, 165739, Note_on_c, 0, 46, 85
1, 165741, Note_on_c, 0, 54, 70
1, 165747, Note_on_c, 0, 42, 66
1, 165748, Note_on_c, 0, 39, 62
1, 165762, Note_off_c, 0, 51, 65
1, 165762, Note_on_c, 0, 57, 41
1, 165762, Note_off_c, 0, 46, 65
1, 165773, Note_off_c, 0, 54, 63
1, 165780, Note_off_c, 0, 42, 63
1, 165788, Note_off_c, 0, 39, 61
1, 165792, Note_off_c, 0, 57, 46
1, 165795, Note_off_c, 0, 63, 61
1, 165898, Note_on_c, 0, 47, 80
1, 165900, Note_on_c, 0, 44, 59
1, 165901, Note_on_c, 0, 59, 69
1, 165903, Note_on_c, 0, 51, 82
1, 165905, Note_on_c, 0, 63, 75
1, 165908, Note_on_c, 0, 39, 60
1, 165912, Note_on_c, 0, 56, 66
1, 165927, Note_off_c, 0, 47, 65
1, 165927, Note_off_c, 0, 51, 67
1, 165936, Note_off_c, 0, 63, 60
1, 165939, Note_off_c, 0, 56, 65
1, 165945, Note_off_c, 0, 59, 60
1, 165948, Note_off_c, 0, 39, 57
1, 165948, Note_off_c, 0, 44, 63
1, 166048, Note_on_c, 0, 51, 71
1, 166051, Note_on_c, 0, 46, 80
1, 166052, Note_on_c, 0, 54, 74
1, 166052, Note_on_c, 0, 58, 74
1, 166053, Note_on_c, 0, 39, 64
1, 166053, Note_on_c, 0, 63, 62
1, 166060, Note_on_c, 0, 42, 63
1, 166077, Note_off_c, 0, 46, 62
1, 166085, Note_off_c, 0, 51, 59
1, 166090, Note_off_c, 0, 54, 61
1, 166092, Note_off_c, 0, 63, 63
1, 166099, Note_off_c, 0, 42, 61
1, 166099, Note_off_c, 0, 39, 63
1, 166104, Note_off_c, 0, 58, 61
1, 166198, Note_on_c, 0, 47, 90
1, 166202, Note_on_c, 0, 44, 69
1, 166202, Note_on_c, 0, 51, 84
1, 166205, Note_on_c, 0, 39, 73
1, 166205, Note_on_c, 0, 59, 68
1, 166206, Note_on_c, 0, 63, 68
1, 166214, Note_on_c, 0, 56, 69
1, 166228, Note_off_c, 0, 51, 67
1, 166236, Note_off_c, 0, 47, 66
1, 166237, Note_off_c, 0, 63, 64
1, 166242, Note_off_c, 0, 56, 64
1, 166252, Note_off_c, 0, 44, 61
1, 166254, Note_off_c, 0, 39, 59
1, 166255, Note_off_c, 0, 59, 56
1, 166350, Note_on_c, 0, 51, 75
1, 166351, Note_on_c, 0, 46, 88
1, 166355, Note_on_c, 0, 54, 71
1, 166357, Note_on_c, 0, 63, 59
1, 166360, Note_on_c, 0, 42, 66
1, 166360, Note_on_c, 0, 58, 69
1, 166361, Note_on_c, 0, 39, 71
1, 166384, Note_off_c, 0, 46, 65
1, 166386, Note_off_c, 0, 54, 63
1, 166391, Note_off_c, 0, 51, 58
1, 166400, Note_off_c, 0, 63, 60
1, 166402, Note_off_c, 0, 58, 60
1, 166406, Note_off_c, 0, 42, 61
1, 166410, Note_off_c, 0, 39, 57
1, 166495, Note_on_c, 0, 51, 82
1, 166498, Note_on_c, 0, 39, 75
1, 166498, Note_on_c, 0, 47, 90
1, 166499, Note_on_c, 0, 59, 65
1, 166500, Note_on_c, 0, 63, 73
1, 166504, Note_on_c, 0, 44, 72
1, 166504, Note_on_c, 0, 56, 70
1, 166516, Note_off_c, 0, 51, 67
1, 166528, Note_off_c, 0, 56, 66
1, 166529, Note_off_c, 0, 59, 65
1, 166531, Note_off_c, 0, 47, 65
1, 166535, Note_off_c, 0, 44, 65
1, 166540, Note_off_c, 0, 39, 63
1, 166544, Note_off_c, 0, 63, 64
1, 166730, Note_on_c, 0, 70, 83
1, 166731, Note_on_c, 0, 46, 101
1, 166733, Note_on_c, 0, 74, 87
1, 166734, Note_on_c, 0, 62, 94
1, 166738, Note_on_c, 0, 34, 81
1, 166739, Note_on_c, 0, 65, 71
1, 166753, Control_c, 0, 64, 44
1, 166768, Control_c, 0, 64, 88
1, 166778, Note_on_c, 0, 66, 22
1, 166783, Control_c, 0, 64, 127
1, 166817, Note_off_c, 0, 66, 54
1, 166850, Note_off_c, 0, 62, 60
1, 166853, Note_off_c, 0, 34, 63
1, 166853, Note_off_c, 0, 74, 60
1, 166858, Note_off_c, 0, 65, 64
1, 166871, Note_off_c, 0, 46, 62
1, 166889, Note_off_c, 0, 70, 62
1, 166902, Control_c, 0, 64, 117
1, 166917, Control_c, 0, 64, 92
1, 166932, Control_c, 0, 64, 70
1, 166947, Control_c, 0, 64, 0
1, 167328, Note_on_c, 0, 70, 86
1, 167329, Note_on_c, 0, 51, 91
1, 167330, Note_on_c, 0, 63, 95
1, 167330, Note_on_c, 0, 75, 90
1, 167330, Note_on_c, 0, 46, 86
1, 167331, Note_on_c, 0, 39, 80
1, 167331, Note_on_c, 0, 66, 89
1, 167354, Control_c, 0, 64, 18
1, 167368, Control_c, 0, 64, 73
1, 167383, Control_c, 0, 64, 93
1, 167398, Control_c, 0, 64, 127
1, 167503, Note_off_c, 0, 51, 60
1, 167509, Note_off_c, 0, 39, 62
1, 167512, Note_off_c, 0, 46, 62
1, 167515, Note_off_c, 0, 63, 64
1, 167523, Note_off_c, 0, 75, 61
1, 167525, Note_off_c, 0, 66, 62
1, 167527, Note_off_c, 0, 70, 60
1, 167545, Control_c, 0, 64, 114
1, 167560, Control_c, 0, 64, 93
1, 167575, Control_c, 0, 64, 73
1, 167591, Control_c, 0, 64, 0
1, 167591, End_track
0, 0, End_of_file
