0, 0, Header, 0, 1, 384
1, 0, Start_track
1, 0, Title_t, "Sonata Op. 26--Gregory De Turck "
1, 0, Text_t, "2006 International Piano-e-Competition Recital Round"
1, 0, Text_t, "St. Paul, Minnesota, July 2006"
1, 0, Text_t, "http://www.piano-e-competition.com/"
1, 0, Instrument_name_t, "Yamaha Disklavier Pro Mark IV concert grand piano"
1, 0, Sequencer_specific, 39, 67, 113, 0, 1, 0, 1, 0, 83, 111, 110, 97, 116, 97, 32, 79, 112, 46, 32, 50, 54, 32, 32, 32, 71, 114, 101, 103, 111, 114, 121, 32, 68, 101, 32, 84, 117, 114, 99, 107
1, 0, Sequencer_specific, 6, 67, 113, 0, 0, 0, 69
1, 0, System_exclusive, 21, 67, 113, 126, 21, 0, 2, 2, 0, 14, 5, 1, 4, 4, 10, 9, 10, 14, 6, 2, 6, 247
1, 0, Sequencer_specific, 5, 67, 123, 12, 2, 1
1, 0, Tempo, 512820
1, 0, Time_signature, 4, 2, 24, 8
1, 0, System_exclusive, 5, 126, 127, 9, 1, 247
1, 1, System_exclusive, 8, 67, 16, 76, 0, 0, 126, 0, 247
1, 2, System_exclusive, 8, 67, 16, 76, 8, 9, 7, 1, 247
1, 3, Control_c, 0, 0, 0
1, 4, Control_c, 0, 32, 0
1, 5, Program_c, 0, 0
1, 6, Control_c, 0, 7, 100
1, 905, Note_on_c, 0, 59, 89
1, 907, Note_on_c, 0, 27, 78
1, 909, Note_on_c, 0, 39, 70
1, 937, Note_off_c, 0, 39, 64
1, 939, Note_off_c, 0, 27, 61
1, 952, Note_off_c, 0, 59, 63
1, 975, Note_on_c, 0, 58, 92
1, 978, Note_on_c, 0, 30, 74
1, 982, Note_on_c, 0, 42, 82
1, 1037, Control_c, 0, 64, 35
1, 1052, Control_c, 0, 64, 59
1, 1059, Note_off_c, 0, 42, 63
1, 1067, Control_c, 0, 64, 64
1, 1073, Note_off_c, 0, 30, 63
1, 1082, Control_c, 0, 64, 65
1, 1097, Control_c, 0, 64, 66
1, 1112, Control_c, 0, 64, 66
1, 1127, Control_c, 0, 64, 67
1, 1142, Control_c, 0, 64, 67
1, 1171, Control_c, 0, 64, 68
1, 1201, Control_c, 0, 64, 68
1, 1216, Control_c, 0, 64, 69
1, 1231, Control_c, 0, 64, 69
1, 1246, Control_c, 0, 64, 70
1, 1258, Note_on_c, 0, 45, 88
1, 1262, Note_on_c, 0, 33, 84
1, 1287, Note_off_c, 0, 33, 64
1, 1287, Note_off_c, 0, 45, 64
1, 1290, Control_c, 0, 64, 69
1, 1305, Control_c, 0, 64, 64
1, 1320, Control_c, 0, 64, 45
1, 1328, Note_on_c, 0, 47, 96
1, 1333, Note_on_c, 0, 35, 94
1, 1335, Control_c, 0, 64, 0
1, 1416, Control_c, 0, 64, 45
1, 1431, Control_c, 0, 64, 57
1, 1445, Control_c, 0, 64, 61
1, 1460, Control_c, 0, 64, 62
1, 1475, Control_c, 0, 64, 63
1, 1490, Control_c, 0, 64, 64
1, 1505, Control_c, 0, 64, 65
1, 1520, Control_c, 0, 64, 66
1, 1535, Control_c, 0, 64, 68
1, 1549, Control_c, 0, 64, 68
1, 1559, Note_off_c, 0, 58, 61
1, 1565, Control_c, 0, 64, 69
1, 1600, Note_on_c, 0, 57, 87
1, 1609, Control_c, 0, 64, 68
1, 1624, Control_c, 0, 64, 60
1, 1639, Control_c, 0, 64, 0
1, 1650, Note_off_c, 0, 57, 65
1, 1678, Note_on_c, 0, 58, 97
1, 1713, Control_c, 0, 64, 52
1, 1715, Note_off_c, 0, 47, 63
1, 1728, Control_c, 0, 64, 64
1, 1743, Control_c, 0, 64, 66
1, 1747, Note_off_c, 0, 35, 62
1, 1757, Control_c, 0, 64, 67
1, 1772, Control_c, 0, 64, 67
1, 1787, Control_c, 0, 64, 68
1, 1802, Control_c, 0, 64, 70
1, 1817, Control_c, 0, 64, 71
1, 1831, Control_c, 0, 64, 73
1, 1846, Control_c, 0, 64, 74
1, 1861, Control_c, 0, 64, 74
1, 1875, Control_c, 0, 64, 75
1, 1890, Control_c, 0, 64, 75
1, 1907, Control_c, 0, 64, 76
1, 1921, Control_c, 0, 64, 76
1, 1938, Note_off_c, 0, 58, 62
1, 1942, Note_on_c, 0, 57, 91
1, 1948, Note_on_c, 0, 39, 84
1, 1949, Note_on_c, 0, 27, 84
1, 1966, Control_c, 0, 64, 75
1, 1977, Note_off_c, 0, 39, 64
1, 1978, Note_off_c, 0, 27, 63
1, 1980, Control_c, 0, 64, 64
1, 1995, Control_c, 0, 64, 0
1, 2000, Note_off_c, 0, 57, 59
1, 2022, Note_on_c, 0, 56, 107
1, 2036, Note_on_c, 0, 30, 77
1, 2037, Note_on_c, 0, 42, 89
1, 2069, Control_c, 0, 64, 58
1, 2073, Note_off_c, 0, 42, 64
1, 2084, Control_c, 0, 64, 67
1, 2088, Note_off_c, 0, 30, 61
1, 2098, Control_c, 0, 64, 71
1, 2113, Control_c, 0, 64, 72
1, 2136, Control_c, 0, 64, 73
1, 2151, Control_c, 0, 64, 75
1, 2166, Control_c, 0, 64, 77
1, 2180, Control_c, 0, 64, 79
1, 2195, Control_c, 0, 64, 80
1, 2210, Control_c, 0, 64, 81
1, 2225, Control_c, 0, 64, 82
1, 2254, Control_c, 0, 64, 83
1, 2256, Note_off_c, 0, 56, 60
1, 2269, Control_c, 0, 64, 83
1, 2298, Control_c, 0, 64, 84
1, 2328, Control_c, 0, 64, 84
1, 2358, Control_c, 0, 64, 85
1, 2367, Note_on_c, 0, 45, 80
1, 2371, Note_on_c, 0, 59, 102
1, 2372, Note_on_c, 0, 33, 74
1, 2373, Control_c, 0, 64, 85
1, 2393, Note_off_c, 0, 45, 66
1, 2396, Note_off_c, 0, 33, 59
1, 2402, Control_c, 0, 64, 84
1, 2415, Note_on_c, 0, 43, 5
1, 2415, Note_off_c, 0, 59, 67
1, 2417, Control_c, 0, 64, 75
1, 2432, Control_c, 0, 64, 57
1, 2447, Control_c, 0, 64, 0
1, 2447, Note_on_c, 0, 35, 88
1, 2447, Note_on_c, 0, 47, 92
1, 2448, Note_on_c, 0, 58, 100
1, 2452, Note_off_c, 0, 43, 40
1, 2654, Control_c, 0, 64, 29
1, 2669, Control_c, 0, 64, 50
1, 2684, Control_c, 0, 64, 60
1, 2700, Control_c, 0, 64, 64
1, 2715, Control_c, 0, 64, 65
1, 2729, Control_c, 0, 64, 66
1, 2744, Control_c, 0, 64, 68
1, 2747, Note_off_c, 0, 47, 56
1, 2759, Control_c, 0, 64, 70
1, 2771, Note_off_c, 0, 35, 52
1, 2774, Control_c, 0, 64, 71
1, 2789, Control_c, 0, 64, 73
1, 2803, Control_c, 0, 64, 74
1, 2818, Control_c, 0, 64, 75
1, 2833, Control_c, 0, 64, 75
1, 2848, Control_c, 0, 64, 76
1, 2863, Control_c, 0, 64, 76
1, 2885, Control_c, 0, 64, 77
1, 2915, Control_c, 0, 64, 77
1, 2929, Control_c, 0, 64, 78
1, 2989, Control_c, 0, 64, 78
1, 3035, Note_off_c, 0, 58, 47
1, 3143, Note_on_c, 0, 39, 74
1, 3145, Note_on_c, 0, 57, 76
1, 3146, Note_on_c, 0, 27, 69
1, 3165, Control_c, 0, 64, 78
1, 3167, Note_off_c, 0, 39, 62
1, 3174, Note_off_c, 0, 27, 57
1, 3180, Control_c, 0, 64, 73
1, 3190, Note_off_c, 0, 57, 60
1, 3195, Control_c, 0, 64, 62
1, 3210, Control_c, 0, 64, 40
1, 3219, Note_on_c, 0, 59, 82
1, 3225, Control_c, 0, 64, 0
1, 3234, Note_on_c, 0, 42, 75
1, 3244, Note_on_c, 0, 30, 62
1, 3254, Control_c, 0, 64, 31
1, 3269, Control_c, 0, 64, 46
1, 3284, Control_c, 0, 64, 56
1, 3299, Control_c, 0, 64, 61
1, 3314, Control_c, 0, 64, 64
1, 3328, Control_c, 0, 64, 64
1, 3343, Control_c, 0, 64, 65
1, 3354, Note_off_c, 0, 30, 62
1, 3356, Note_off_c, 0, 42, 58
1, 3358, Control_c, 0, 64, 65
1, 3373, Control_c, 0, 64, 67
1, 3388, Control_c, 0, 64, 68
1, 3402, Control_c, 0, 64, 69
1, 3417, Control_c, 0, 64, 71
1, 3432, Control_c, 0, 64, 72
1, 3446, Control_c, 0, 64, 73
1, 3461, Control_c, 0, 64, 73
1, 3470, Note_off_c, 0, 59, 62
1, 3475, Note_on_c, 0, 45, 76
1, 3478, Note_on_c, 0, 58, 92
1, 3482, Note_on_c, 0, 33, 64
1, 3505, Note_off_c, 0, 45, 67
1, 3507, Control_c, 0, 64, 71
1, 3515, Note_off_c, 0, 33, 64
1, 3522, Control_c, 0, 64, 58
1, 3537, Control_c, 0, 64, 0
1, 3549, Note_off_c, 0, 58, 50
1, 3555, Note_on_c, 0, 57, 96
1, 3562, Note_on_c, 0, 47, 93
1, 3563, Note_on_c, 0, 35, 90
1, 3596, Control_c, 0, 64, 43
1, 3611, Control_c, 0, 64, 59
1, 3627, Note_off_c, 0, 47, 60
1, 3633, Control_c, 0, 64, 65
1, 3640, Note_off_c, 0, 35, 61
1, 3648, Control_c, 0, 64, 68
1, 3663, Control_c, 0, 64, 69
1, 3678, Control_c, 0, 64, 69
1, 3693, Control_c, 0, 64, 70
1, 3707, Control_c, 0, 64, 71
1, 3722, Control_c, 0, 64, 72
1, 3737, Control_c, 0, 64, 73
1, 3744, Note_off_c, 0, 57, 60
1, 3751, Control_c, 0, 64, 74
1, 3766, Control_c, 0, 64, 75
1, 3781, Control_c, 0, 64, 76
1, 3825, Note_on_c, 0, 44, 86
1, 3826, Note_on_c, 0, 64, 99
1, 3830, Note_on_c, 0, 32, 87
1, 3840, Control_c, 0, 64, 75
1, 3853, Note_off_c, 0, 32, 65
1, 3854, Note_off_c, 0, 44, 68
1, 3855, Control_c, 0, 64, 68
1, 3869, Control_c, 0, 64, 46
1, 3884, Control_c, 0, 64, 0
1, 3902, Note_on_c, 0, 63, 101
1, 3908, Note_on_c, 0, 35, 90
1, 3910, Note_on_c, 0, 47, 93
1, 3911, Note_off_c, 0, 64, 62
1, 3943, Control_c, 0, 64, 32
1, 3952, Note_off_c, 0, 47, 63
1, 3958, Control_c, 0, 64, 56
1, 3962, Note_off_c, 0, 35, 64
1, 3973, Control_c, 0, 64, 63
1, 3988, Control_c, 0, 64, 64
1, 4003, Control_c, 0, 64, 65
1, 4018, Control_c, 0, 64, 66
1, 4033, Control_c, 0, 64, 67
1, 4048, Control_c, 0, 64, 68
1, 4063, Control_c, 0, 64, 70
1, 4077, Control_c, 0, 64, 72
1, 4092, Control_c, 0, 64, 73
1, 4107, Control_c, 0, 64, 74
1, 4122, Control_c, 0, 64, 75
1, 4137, Control_c, 0, 64, 76
1, 4151, Control_c, 0, 64, 77
1, 4168, Note_on_c, 0, 50, 89
1, 4169, Note_on_c, 0, 59, 87
1, 4170, Note_on_c, 0, 38, 88
1, 4196, Note_off_c, 0, 50, 66
1, 4196, Note_off_c, 0, 38, 64
1, 4211, Control_c, 0, 64, 73
1, 4225, Control_c, 0, 64, 58
1, 4240, Control_c, 0, 64, 0
1, 4243, Note_on_c, 0, 58, 93
1, 4245, Note_on_c, 0, 52, 100
1, 4247, Note_on_c, 0, 40, 87
1, 4269, Note_off_c, 0, 59, 59
1, 4330, Control_c, 0, 64, 45
1, 4345, Control_c, 0, 64, 61
1, 4360, Control_c, 0, 64, 63
1, 4382, Control_c, 0, 64, 64
1, 4397, Control_c, 0, 64, 65
1, 4411, Control_c, 0, 64, 67
1, 4419, Note_off_c, 0, 63, 56
1, 4426, Control_c, 0, 64, 69
1, 4441, Control_c, 0, 64, 71
1, 4456, Control_c, 0, 64, 73
1, 4471, Control_c, 0, 64, 74
1, 4474, Note_off_c, 0, 58, 63
1, 4486, Control_c, 0, 64, 75
1, 4500, Control_c, 0, 64, 76
1, 4515, Control_c, 0, 64, 76
1, 4528, Note_on_c, 0, 62, 96
1, 4545, Control_c, 0, 64, 75
1, 4560, Control_c, 0, 64, 68
1, 4575, Control_c, 0, 64, 49
1, 4590, Control_c, 0, 64, 0
1, 4600, Note_on_c, 0, 61, 97
1, 4612, Note_off_c, 0, 62, 59
1, 4649, Control_c, 0, 64, 37
1, 4664, Control_c, 0, 64, 54
1, 4679, Control_c, 0, 64, 59
1, 4693, Control_c, 0, 64, 61
1, 4708, Control_c, 0, 64, 63
1, 4723, Control_c, 0, 64, 64
1, 4738, Control_c, 0, 64, 66
1, 4753, Control_c, 0, 64, 68
1, 4767, Control_c, 0, 64, 70
1, 4782, Control_c, 0, 64, 71
1, 4797, Control_c, 0, 64, 72
1, 4827, Control_c, 0, 64, 72
1, 4841, Control_c, 0, 64, 65
1, 4853, Note_on_c, 0, 57, 83
1, 4856, Control_c, 0, 64, 41
1, 4871, Control_c, 0, 64, 0
1, 4915, Control_c, 0, 64, 39
1, 4922, Note_off_c, 0, 57, 58
1, 4923, Note_on_c, 0, 56, 96
1, 4930, Note_off_c, 0, 52, 64
1, 4930, Control_c, 0, 64, 59
1, 4945, Control_c, 0, 64, 66
1, 4954, Note_off_c, 0, 61, 62
1, 4956, Note_off_c, 0, 40, 63
1, 4960, Control_c, 0, 64, 69
1, 4990, Control_c, 0, 64, 69
1, 5005, Control_c, 0, 64, 70
1, 5019, Control_c, 0, 64, 70
1, 5034, Control_c, 0, 64, 71
1, 5049, Control_c, 0, 64, 72
1, 5064, Control_c, 0, 64, 72
1, 5079, Control_c, 0, 64, 73
1, 5094, Control_c, 0, 64, 74
1, 5103, Note_off_c, 0, 56, 62
1, 5109, Control_c, 0, 64, 75
1, 5131, Control_c, 0, 64, 76
1, 5146, Control_c, 0, 64, 76
1, 5157, Note_on_c, 0, 60, 92
1, 5160, Note_on_c, 0, 32, 91
1, 5161, Control_c, 0, 64, 77
1, 5163, Note_on_c, 0, 44, 80
1, 5176, Control_c, 0, 64, 76
1, 5186, Note_off_c, 0, 32, 65
1, 5191, Control_c, 0, 64, 73
1, 5193, Note_off_c, 0, 44, 67
1, 5205, Control_c, 0, 64, 60
1, 5220, Control_c, 0, 64, 0
1, 5247, Note_on_c, 0, 47, 100
1, 5249, Note_on_c, 0, 35, 90
1, 5249, Note_on_c, 0, 59, 95
1, 5259, Note_off_c, 0, 60, 63
1, 5279, Control_c, 0, 64, 28
1, 5285, Note_off_c, 0, 35, 64
1, 5285, Note_off_c, 0, 47, 64
1, 5294, Control_c, 0, 64, 54
1, 5309, Control_c, 0, 64, 62
1, 5321, Note_off_c, 0, 59, 61
1, 5324, Control_c, 0, 64, 62
1, 5357, Note_on_c, 0, 58, 86
1, 5361, Note_on_c, 0, 56, 90
1, 5368, Control_c, 0, 64, 63
1, 5383, Control_c, 0, 64, 64
1, 5398, Control_c, 0, 64, 66
1, 5413, Control_c, 0, 64, 67
1, 5428, Control_c, 0, 64, 69
1, 5440, Note_off_c, 0, 58, 61
1, 5441, Note_off_c, 0, 56, 59
1, 5443, Control_c, 0, 64, 71
1, 5451, Note_on_c, 0, 55, 88
1, 5458, Control_c, 0, 64, 72
1, 5493, Note_on_c, 0, 50, 90
1, 5497, Note_on_c, 0, 38, 81
1, 5502, Control_c, 0, 64, 69
1, 5516, Control_c, 0, 64, 58
1, 5519, Note_off_c, 0, 50, 65
1, 5526, Note_off_c, 0, 38, 65
1, 5531, Control_c, 0, 64, 0
1, 5550, Note_off_c, 0, 55, 61
1, 5583, Note_on_c, 0, 57, 88
1, 5586, Note_on_c, 0, 52, 100
1, 5588, Note_on_c, 0, 40, 88
1, 5590, Control_c, 0, 66, 127
1, 5591, Note_on_c, 0, 54, 88
1, 5635, Control_c, 0, 64, 42
1, 5649, Control_c, 0, 64, 56
1, 5664, Control_c, 0, 64, 60
1, 5665, Note_off_c, 0, 54, 61
1, 5679, Control_c, 0, 64, 62
1, 5681, Note_off_c, 0, 40, 63
1, 5694, Control_c, 0, 64, 63
1, 5697, Note_off_c, 0, 57, 65
1, 5709, Control_c, 0, 64, 65
1, 5715, Note_off_c, 0, 52, 60
1, 5723, Control_c, 0, 64, 67
1, 5728, Note_on_c, 0, 56, 102
1, 5738, Control_c, 0, 64, 69
1, 5753, Control_c, 0, 64, 71
1, 5768, Control_c, 0, 64, 73
1, 5806, Note_off_c, 0, 56, 61
1, 5812, Control_c, 0, 64, 71
1, 5827, Control_c, 0, 64, 67
1, 5842, Control_c, 0, 64, 64
1, 5845, Note_on_c, 0, 55, 97
1, 5847, Note_on_c, 0, 54, 90
1, 5857, Control_c, 0, 64, 63
1, 5879, Control_c, 0, 64, 65
1, 5895, Control_c, 0, 64, 69
1, 5910, Control_c, 0, 64, 74
1, 5910, Control_c, 0, 66, 0
1, 5925, Control_c, 0, 64, 81
1, 5940, Control_c, 0, 64, 87
1, 5944, Note_off_c, 0, 55, 60
1, 5950, Note_off_c, 0, 54, 61
1, 5954, Control_c, 0, 64, 95
1, 5965, Note_on_c, 0, 53, 93
1, 5969, Control_c, 0, 64, 107
1, 5984, Control_c, 0, 64, 120
1, 5999, Control_c, 0, 64, 127
1, 6043, Control_c, 0, 64, 114
1, 6047, Note_off_c, 0, 53, 58
1, 6058, Control_c, 0, 64, 83
1, 6072, Control_c, 0, 64, 55
1, 6085, Note_on_c, 0, 52, 93
1, 6087, Control_c, 0, 64, 0
1, 6099, Note_on_c, 0, 54, 104
1, 6132, Control_c, 0, 64, 47
1, 6146, Control_c, 0, 64, 65
1, 6154, Note_off_c, 0, 52, 65
1, 6161, Control_c, 0, 64, 70
1, 6176, Control_c, 0, 64, 73
1, 6188, Note_off_c, 0, 54, 60
1, 6191, Control_c, 0, 64, 74
1, 6206, Control_c, 0, 64, 74
1, 6217, Note_on_c, 0, 53, 99
1, 6221, Control_c, 0, 64, 75
1, 6236, Control_c, 0, 64, 76
1, 6251, Control_c, 0, 64, 77
1, 6258, Note_off_c, 0, 53, 66
1, 6266, Control_c, 0, 64, 78
1, 6280, Control_c, 0, 64, 80
1, 6295, Control_c, 0, 64, 82
1, 6310, Control_c, 0, 64, 83
1, 6325, Control_c, 0, 64, 84
1, 6340, Control_c, 0, 64, 84
1, 6369, Control_c, 0, 64, 79
1, 6384, Control_c, 0, 64, 58
1, 6399, Control_c, 0, 64, 0
1, 6467, Note_on_c, 0, 71, 107
1, 6576, Control_c, 0, 64, 53
1, 6591, Control_c, 0, 64, 71
1, 6606, Control_c, 0, 64, 72
1, 6628, Control_c, 0, 64, 73
1, 6643, Control_c, 0, 64, 73
1, 6658, Control_c, 0, 64, 75
1, 6672, Control_c, 0, 64, 77
1, 6687, Control_c, 0, 64, 78
1, 6703, Control_c, 0, 64, 79
1, 6718, Control_c, 0, 64, 79
1, 6733, Control_c, 0, 64, 80
1, 6748, Control_c, 0, 64, 82
1, 6763, Control_c, 0, 64, 84
1, 6777, Control_c, 0, 64, 86
1, 6792, Control_c, 0, 64, 90
1, 6806, Control_c, 0, 64, 94
1, 6821, Control_c, 0, 64, 99
1, 6835, Note_on_c, 0, 59, 95
1, 6836, Control_c, 0, 64, 105
1, 6841, Note_on_c, 0, 39, 88
1, 6845, Note_on_c, 0, 27, 83
1, 6850, Control_c, 0, 64, 108
1, 6868, Note_off_c, 0, 39, 65
1, 6868, Note_off_c, 0, 59, 64
1, 6873, Note_off_c, 0, 27, 63
1, 6880, Control_c, 0, 64, 106
1, 6895, Control_c, 0, 64, 84
1, 6909, Control_c, 0, 64, 62
1, 6915, Note_on_c, 0, 58, 106
1, 6922, Note_on_c, 0, 42, 89
1, 6924, Control_c, 0, 64, 0
1, 6930, Note_on_c, 0, 30, 71
1, 6969, Control_c, 0, 64, 47
1, 6984, Control_c, 0, 64, 64
1, 6999, Control_c, 0, 64, 71
1, 7014, Control_c, 0, 64, 73
1, 7029, Note_off_c, 0, 30, 62
1, 7037, Note_off_c, 0, 42, 61
1, 7058, Control_c, 0, 64, 74
1, 7073, Control_c, 0, 64, 74
1, 7087, Control_c, 0, 64, 76
1, 7102, Control_c, 0, 64, 78
1, 7117, Control_c, 0, 64, 79
1, 7132, Control_c, 0, 64, 81
1, 7147, Control_c, 0, 64, 82
1, 7161, Control_c, 0, 64, 84
1, 7176, Control_c, 0, 64, 84
1, 7187, Note_on_c, 0, 45, 88
1, 7192, Note_on_c, 0, 33, 87
1, 7206, Control_c, 0, 64, 83
1, 7216, Note_off_c, 0, 45, 64
1, 7220, Note_off_c, 0, 33, 66
1, 7221, Control_c, 0, 64, 71
1, 7236, Control_c, 0, 64, 47
1, 7250, Control_c, 0, 64, 0
1, 7268, Note_on_c, 0, 47, 94
1, 7275, Note_on_c, 0, 35, 82
1, 7309, Control_c, 0, 64, 53
1, 7324, Control_c, 0, 64, 64
1, 7339, Control_c, 0, 64, 66
1, 7354, Control_c, 0, 64, 66
1, 7391, Control_c, 0, 64, 67
1, 7401, Note_off_c, 0, 58, 55
1, 7406, Control_c, 0, 64, 68
1, 7420, Control_c, 0, 64, 70
1, 7435, Control_c, 0, 64, 72
1, 7450, Control_c, 0, 64, 73
1, 7465, Control_c, 0, 64, 75
1, 7480, Control_c, 0, 64, 76
1, 7488, Note_off_c, 0, 71, 56
1, 7496, Control_c, 0, 64, 79
1, 7511, Control_c, 0, 64, 81
1, 7525, Control_c, 0, 64, 82
1, 7533, Note_on_c, 0, 57, 87
1, 7555, Control_c, 0, 64, 80
1, 7570, Control_c, 0, 64, 67
1, 7574, Note_off_c, 0, 57, 67
1, 7585, Control_c, 0, 64, 38
1, 7599, Control_c, 0, 64, 0
1, 7613, Note_on_c, 0, 70, 86
1, 7613, Note_on_c, 0, 58, 97
1, 7644, Control_c, 0, 64, 54
1, 7659, Control_c, 0, 64, 66
1, 7673, Control_c, 0, 64, 70
1, 7688, Control_c, 0, 64, 72
1, 7703, Note_off_c, 0, 47, 61
1, 7703, Control_c, 0, 64, 72
1, 7717, Control_c, 0, 64, 73
1, 7732, Control_c, 0, 64, 73
1, 7747, Control_c, 0, 64, 74
1, 7759, Note_off_c, 0, 35, 61
1, 7762, Control_c, 0, 64, 75
1, 7777, Control_c, 0, 64, 77
1, 7783, Note_off_c, 0, 70, 60
1, 7786, Note_off_c, 0, 58, 60
1, 7792, Control_c, 0, 64, 78
1, 7807, Control_c, 0, 64, 80
1, 7822, Control_c, 0, 64, 82
1, 7836, Control_c, 0, 64, 84
1, 7851, Control_c, 0, 64, 85
1, 7866, Control_c, 0, 64, 86
1, 7869, Note_on_c, 0, 57, 92
1, 7896, Control_c, 0, 64, 85
1, 7910, Control_c, 0, 64, 75
1, 7920, Note_off_c, 0, 57, 64
1, 7925, Control_c, 0, 64, 57
1, 7940, Control_c, 0, 64, 0
1, 7950, Note_on_c, 0, 56, 98
1, 7984, Control_c, 0, 64, 34
1, 7999, Control_c, 0, 64, 58
1, 8014, Control_c, 0, 64, 67
1, 8028, Note_off_c, 0, 56, 63
1, 8029, Control_c, 0, 64, 70
1, 8043, Control_c, 0, 64, 71
1, 8058, Control_c, 0, 64, 71
1, 8073, Control_c, 0, 64, 72
1, 8088, Control_c, 0, 64, 72
1, 8103, Control_c, 0, 64, 73
1, 8125, Control_c, 0, 64, 74
1, 8140, Control_c, 0, 64, 75
1, 8155, Control_c, 0, 64, 76
1, 8170, Control_c, 0, 64, 78
1, 8185, Control_c, 0, 64, 79
1, 8199, Control_c, 0, 64, 80
1, 8212, Note_on_c, 0, 59, 101
1, 8214, Control_c, 0, 64, 81
1, 8220, Note_on_c, 0, 39, 80
1, 8228, Note_on_c, 0, 27, 69
1, 8229, Control_c, 0, 64, 82
1, 8243, Control_c, 0, 64, 82
1, 8249, Note_off_c, 0, 39, 68
1, 8252, Note_off_c, 0, 59, 68
1, 8257, Note_off_c, 0, 27, 60
1, 8273, Control_c, 0, 64, 82
1, 8289, Control_c, 0, 64, 73
1, 8305, Control_c, 0, 64, 55
1, 8309, Note_on_c, 0, 71, 94
1, 8312, Note_on_c, 0, 58, 96
1, 8317, Note_on_c, 0, 42, 96
1, 8319, Control_c, 0, 64, 0
1, 8325, Note_on_c, 0, 30, 75
1, 8364, Control_c, 0, 64, 35
1, 8379, Control_c, 0, 64, 55
1, 8385, Note_off_c, 0, 30, 63
1, 8391, Note_off_c, 0, 42, 62
1, 8394, Control_c, 0, 64, 63
1, 8409, Control_c, 0, 64, 66
1, 8423, Control_c, 0, 64, 67
1, 8438, Control_c, 0, 64, 68
1, 8453, Control_c, 0, 64, 69
1, 8467, Control_c, 0, 64, 69
1, 8482, Control_c, 0, 64, 71
1, 8497, Control_c, 0, 64, 72
1, 8512, Control_c, 0, 64, 74
1, 8527, Control_c, 0, 64, 75
1, 8541, Control_c, 0, 64, 76
1, 8556, Control_c, 0, 64, 77
1, 8571, Control_c, 0, 64, 78
1, 8573, Note_on_c, 0, 45, 88
1, 8576, Note_on_c, 0, 33, 84
1, 8586, Control_c, 0, 64, 78
1, 8601, Note_off_c, 0, 45, 64
1, 8603, Note_off_c, 0, 33, 63
1, 8615, Control_c, 0, 64, 76
1, 8630, Control_c, 0, 64, 62
1, 8645, Control_c, 0, 64, 0
1, 8652, Note_on_c, 0, 47, 101
1, 8655, Note_on_c, 0, 35, 92
1, 8719, Control_c, 0, 64, 33
1, 8734, Control_c, 0, 64, 58
1, 8749, Control_c, 0, 64, 63
1, 8756, Note_off_c, 0, 58, 58
1, 8764, Control_c, 0, 64, 63
1, 8778, Control_c, 0, 64, 64
1, 8793, Control_c, 0, 64, 65
1, 8808, Control_c, 0, 64, 66
1, 8823, Control_c, 0, 64, 68
1, 8838, Control_c, 0, 64, 71
1, 8843, Note_off_c, 0, 71, 59
1, 8853, Control_c, 0, 64, 73
1, 8874, Control_c, 0, 64, 75
1, 8889, Control_c, 0, 64, 77
1, 8904, Control_c, 0, 64, 78
1, 8910, Note_on_c, 0, 57, 84
1, 8919, Control_c, 0, 64, 79
1, 8948, Control_c, 0, 64, 74
1, 8960, Note_off_c, 0, 57, 64
1, 8963, Control_c, 0, 64, 58
1, 8978, Control_c, 0, 64, 0
1, 9002, Note_on_c, 0, 70, 95
1, 9005, Note_on_c, 0, 59, 96
1, 9038, Control_c, 0, 64, 45
1, 9053, Control_c, 0, 64, 64
1, 9067, Control_c, 0, 64, 66
1, 9069, Note_off_c, 0, 70, 63
1, 9082, Control_c, 0, 64, 68
1, 9097, Control_c, 0, 64, 69
1, 9112, Control_c, 0, 64, 70
1, 9127, Control_c, 0, 64, 72
1, 9142, Control_c, 0, 64, 73
1, 9157, Control_c, 0, 64, 75
1, 9172, Control_c, 0, 64, 77
1, 9187, Control_c, 0, 64, 80
1, 9202, Control_c, 0, 64, 82
1, 9217, Control_c, 0, 64, 84
1, 9224, Note_off_c, 0, 59, 59
1, 9232, Control_c, 0, 64, 85
1, 9246, Control_c, 0, 64, 86
1, 9261, Control_c, 0, 64, 85
1, 9270, Note_on_c, 0, 58, 93
1, 9276, Control_c, 0, 64, 81
1, 9290, Control_c, 0, 64, 65
1, 9305, Control_c, 0, 64, 0
1, 9335, Note_off_c, 0, 58, 60
1, 9351, Note_on_c, 0, 57, 94
1, 9353, Note_off_c, 0, 35, 64
1, 9374, Note_off_c, 0, 47, 66
1, 9379, Control_c, 0, 64, 58
1, 9394, Control_c, 0, 64, 75
1, 9397, Note_off_c, 0, 57, 68
1, 9409, Control_c, 0, 64, 81
1, 9424, Control_c, 0, 64, 83
1, 9438, Control_c, 0, 64, 84
1, 9453, Control_c, 0, 64, 84
1, 9468, Control_c, 0, 64, 85
1, 9482, Control_c, 0, 64, 85
1, 9512, Control_c, 0, 64, 86
1, 9556, Control_c, 0, 64, 86
1, 9650, Note_on_c, 0, 75, 94
1, 9653, Note_on_c, 0, 64, 92
1, 9653, Control_c, 0, 64, 82
1, 9668, Control_c, 0, 64, 66
1, 9683, Control_c, 0, 64, 33
1, 9697, Note_off_c, 0, 64, 66
1, 9697, Control_c, 0, 64, 0
1, 9711, Note_off_c, 0, 75, 64
1, 9724, Note_on_c, 0, 78, 92
1, 9730, Note_on_c, 0, 66, 87
1, 9732, Note_on_c, 0, 63, 95
1, 9771, Control_c, 0, 64, 29
1, 9786, Control_c, 0, 64, 59
1, 9801, Control_c, 0, 64, 66
1, 9805, Note_off_c, 0, 63, 66
1, 9816, Control_c, 0, 64, 67
1, 9846, Control_c, 0, 64, 68
1, 9861, Control_c, 0, 64, 68
1, 9875, Control_c, 0, 64, 69
1, 9891, Control_c, 0, 64, 70
1, 9906, Control_c, 0, 64, 71
1, 9920, Control_c, 0, 64, 72
1, 9935, Control_c, 0, 64, 73
1, 9950, Control_c, 0, 64, 74
1, 10010, Control_c, 0, 64, 70
1, 10020, Note_on_c, 0, 52, 74
1, 10023, Note_on_c, 0, 53, 68
1, 10024, Control_c, 0, 64, 58
1, 10025, Note_on_c, 0, 41, 62
1, 10039, Control_c, 0, 64, 0
1, 10042, Note_off_c, 0, 53, 62
1, 10045, Note_off_c, 0, 52, 67
1, 10053, Note_off_c, 0, 41, 55
1, 10067, Note_on_c, 0, 40, 8
1, 10084, Control_c, 0, 66, 127
1, 10103, Note_on_c, 0, 39, 87
1, 10108, Note_on_c, 0, 51, 74
1, 10113, Control_c, 0, 64, 31
1, 10120, Note_off_c, 0, 40, 28
1, 10128, Control_c, 0, 64, 53
1, 10143, Control_c, 0, 64, 58
1, 10158, Control_c, 0, 64, 59
1, 10173, Control_c, 0, 64, 62
1, 10178, Note_off_c, 0, 39, 61
1, 10187, Control_c, 0, 64, 65
1, 10191, Note_off_c, 0, 51, 62
1, 10198, Note_off_c, 0, 78, 60
1, 10202, Control_c, 0, 64, 67
1, 10217, Control_c, 0, 64, 69
1, 10231, Control_c, 0, 64, 71
1, 10246, Control_c, 0, 64, 72
1, 10251, Note_off_c, 0, 66, 61
1, 10261, Control_c, 0, 64, 73
1, 10276, Control_c, 0, 64, 74
1, 10291, Control_c, 0, 64, 74
1, 10305, Control_c, 0, 64, 75
1, 10320, Control_c, 0, 64, 76
1, 10335, Control_c, 0, 64, 78
1, 10350, Control_c, 0, 64, 78
1, 10373, Control_c, 0, 64, 79
1, 10379, Note_on_c, 0, 61, 73
1, 10387, Control_c, 0, 64, 78
1, 10391, Note_on_c, 0, 70, 87
1, 10402, Control_c, 0, 64, 77
1, 10417, Control_c, 0, 64, 68
1, 10432, Control_c, 0, 64, 55
1, 10445, Note_off_c, 0, 61, 56
1, 10446, Control_c, 0, 64, 37
1, 10459, Note_off_c, 0, 70, 62
1, 10461, Control_c, 0, 64, 39
1, 10476, Control_c, 0, 64, 50
1, 10479, Note_on_c, 0, 74, 86
1, 10487, Note_on_c, 0, 60, 78
1, 10488, Note_on_c, 0, 62, 69
1, 10491, Control_c, 0, 64, 62
1, 10506, Control_c, 0, 64, 68
1, 10520, Control_c, 0, 64, 73
1, 10535, Control_c, 0, 64, 74
1, 10547, Note_off_c, 0, 60, 66
1, 10550, Control_c, 0, 64, 75
1, 10580, Control_c, 0, 64, 76
1, 10594, Control_c, 0, 64, 76
1, 10609, Control_c, 0, 66, 0
1, 10624, Control_c, 0, 64, 77
1, 10639, Control_c, 0, 64, 77
1, 10653, Control_c, 0, 64, 78
1, 10684, Control_c, 0, 64, 78
1, 10714, Control_c, 0, 64, 79
1, 10729, Control_c, 0, 64, 80
1, 10743, Control_c, 0, 64, 80
1, 10764, Note_on_c, 0, 37, 80
1, 10770, Note_on_c, 0, 49, 66
1, 10788, Control_c, 0, 64, 78
1, 10800, Note_off_c, 0, 37, 65
1, 10803, Note_off_c, 0, 49, 64
1, 10803, Control_c, 0, 64, 67
1, 10817, Control_c, 0, 64, 44
1, 10832, Control_c, 0, 64, 0
1, 10847, Control_c, 0, 66, 127
1, 10868, Note_on_c, 0, 35, 83
1, 10868, Note_on_c, 0, 47, 78
1, 10907, Control_c, 0, 64, 47
1, 10922, Note_off_c, 0, 62, 62
1, 10922, Control_c, 0, 64, 63
1, 10922, Note_off_c, 0, 35, 63
1, 10936, Control_c, 0, 64, 67
1, 10947, Note_off_c, 0, 47, 65
1, 10951, Control_c, 0, 64, 70
1, 10952, Note_off_c, 0, 74, 67
1, 10966, Control_c, 0, 64, 73
1, 10981, Control_c, 0, 64, 75
1, 10996, Control_c, 0, 64, 77
1, 11010, Control_c, 0, 64, 77
1, 11025, Control_c, 0, 64, 78
1, 11055, Control_c, 0, 64, 78
1, 11168, Note_on_c, 0, 63, 49
1, 11175, Note_on_c, 0, 87, 79
1, 11177, Note_on_c, 0, 75, 76
1, 11204, Note_on_c, 0, 65, 55
1, 11225, Control_c, 0, 64, 78
1, 11235, Note_off_c, 0, 75, 63
1, 11240, Control_c, 0, 64, 73
1, 11255, Control_c, 0, 64, 62
1, 11269, Control_c, 0, 64, 34
1, 11270, Note_off_c, 0, 87, 59
1, 11275, Note_on_c, 0, 86, 81
1, 11281, Note_on_c, 0, 68, 54
1, 11282, Note_on_c, 0, 74, 69
1, 11283, Note_on_c, 0, 70, 50
1, 11284, Control_c, 0, 64, 0
1, 11342, Control_c, 0, 64, 42
1, 11357, Control_c, 0, 64, 57
1, 11372, Control_c, 0, 64, 62
1, 11387, Control_c, 0, 64, 65
1, 11402, Control_c, 0, 64, 67
1, 11417, Control_c, 0, 64, 67
1, 11431, Note_off_c, 0, 74, 57
1, 11431, Control_c, 0, 64, 68
1, 11446, Note_off_c, 0, 70, 58
1, 11446, Control_c, 0, 64, 69
1, 11452, Note_off_c, 0, 65, 56
1, 11461, Control_c, 0, 64, 70
1, 11476, Note_off_c, 0, 63, 41
1, 11476, Control_c, 0, 64, 70
1, 11479, Note_off_c, 0, 68, 57
1, 11588, Note_off_c, 0, 86, 63
1, 11604, Note_on_c, 0, 85, 75
1, 11619, Note_on_c, 0, 61, 49
1, 11621, Note_on_c, 0, 73, 64
1, 11625, Note_on_c, 0, 63, 41
1, 11655, Control_c, 0, 64, 70
1, 11666, Note_off_c, 0, 73, 58
1, 11670, Control_c, 0, 64, 66
1, 11684, Control_c, 0, 64, 55
1, 11699, Control_c, 0, 64, 28
1, 11707, Note_off_c, 0, 85, 62
1, 11714, Control_c, 0, 64, 0
1, 11715, Note_on_c, 0, 65, 46
1, 11722, Note_on_c, 0, 84, 71
1, 11727, Note_on_c, 0, 68, 50
1, 11733, Note_on_c, 0, 72, 54
1, 11803, Control_c, 0, 64, 42
1, 11818, Control_c, 0, 64, 55
1, 11832, Control_c, 0, 64, 62
1, 11840, Note_off_c, 0, 68, 61
1, 11847, Control_c, 0, 64, 65
1, 11870, Control_c, 0, 64, 67
1, 11876, Note_off_c, 0, 65, 61
1, 11885, Control_c, 0, 64, 69
1, 11898, Note_off_c, 0, 61, 37
1, 11899, Control_c, 0, 64, 70
1, 11913, Note_off_c, 0, 63, 39
1, 11914, Control_c, 0, 64, 72
1, 11929, Control_c, 0, 64, 73
1, 11944, Control_c, 0, 64, 74
1, 11959, Control_c, 0, 64, 75
1, 11962, Note_off_c, 0, 84, 58
1, 11973, Control_c, 0, 64, 75
1, 11986, Note_off_c, 0, 72, 61
1, 11988, Control_c, 0, 64, 76
1, 12017, Control_c, 0, 64, 76
1, 12082, Note_on_c, 0, 59, 78
1, 12121, Control_c, 0, 66, 0
1, 12204, Note_off_c, 0, 59, 65
1, 12300, Control_c, 0, 64, 76
1, 12314, Control_c, 0, 64, 73
1, 12320, Note_on_c, 0, 58, 72
1, 12326, Note_on_c, 0, 63, 59
1, 12329, Note_on_c, 0, 47, 51
1, 12329, Control_c, 0, 64, 65
1, 12344, Control_c, 0, 64, 50
1, 12359, Note_on_c, 0, 53, 23
1, 12359, Control_c, 0, 64, 0
1, 12469, Note_off_c, 0, 63, 56
1, 12486, Note_on_c, 0, 73, 58
1, 12507, Control_c, 0, 66, 127
1, 12522, Control_c, 0, 64, 31
1, 12537, Control_c, 0, 64, 35
1, 12552, Control_c, 0, 64, 42
1, 12567, Control_c, 0, 64, 52
1, 12581, Control_c, 0, 64, 59
1, 12603, Control_c, 0, 64, 62
1, 12604, Note_on_c, 0, 68, 61
1, 12618, Control_c, 0, 64, 65
1, 12633, Control_c, 0, 64, 67
1, 12637, Note_off_c, 0, 73, 39
1, 12648, Control_c, 0, 64, 70
1, 12663, Control_c, 0, 64, 72
1, 12677, Control_c, 0, 64, 73
1, 12692, Control_c, 0, 64, 75
1, 12698, Note_off_c, 0, 68, 62
1, 12707, Control_c, 0, 64, 76
1, 12719, Note_on_c, 0, 66, 63
1, 12722, Control_c, 0, 64, 78
1, 12737, Control_c, 0, 64, 79
1, 12752, Control_c, 0, 64, 79
1, 12785, Note_off_c, 0, 66, 62
1, 12824, Note_off_c, 0, 58, 60
1, 12825, Note_on_c, 0, 76, 69
1, 12911, Note_off_c, 0, 47, 57
1, 12916, Note_off_c, 0, 76, 57
1, 12918, Note_on_c, 0, 71, 68
1, 12942, Note_off_c, 0, 53, 47
1, 12952, Note_on_c, 0, 59, 75
1, 13005, Note_off_c, 0, 59, 63
1, 13008, Note_off_c, 0, 71, 61
1, 13035, Note_on_c, 0, 69, 67
1, 13039, Note_on_c, 0, 61, 79
1, 13047, Control_c, 0, 64, 74
1, 13062, Control_c, 0, 64, 64
1, 13078, Control_c, 0, 64, 42
1, 13093, Control_c, 0, 64, 0
1, 13096, Note_off_c, 0, 69, 60
1, 13146, Note_on_c, 0, 79, 63
1, 13152, Control_c, 0, 64, 41
1, 13167, Control_c, 0, 64, 51
1, 13182, Control_c, 0, 64, 58
1, 13197, Control_c, 0, 64, 62
1, 13211, Control_c, 0, 64, 63
1, 13226, Control_c, 0, 64, 64
1, 13233, Note_off_c, 0, 79, 58
1, 13241, Control_c, 0, 64, 64
1, 13249, Note_on_c, 0, 74, 75
1, 13256, Control_c, 0, 64, 65
1, 13271, Control_c, 0, 64, 66
1, 13280, Note_on_c, 0, 60, 77
1, 13286, Control_c, 0, 64, 67
1, 13289, Note_off_c, 0, 61, 63
1, 13301, Control_c, 0, 64, 67
1, 13316, Note_off_c, 0, 74, 63
1, 13345, Control_c, 0, 64, 66
1, 13349, Note_on_c, 0, 72, 66
1, 13366, Note_on_c, 0, 62, 89
1, 13367, Control_c, 0, 64, 58
1, 13382, Control_c, 0, 64, 37
1, 13391, Note_off_c, 0, 60, 64
1, 13397, Control_c, 0, 64, 0
1, 13425, Note_off_c, 0, 72, 62
1, 13456, Control_c, 0, 64, 39
1, 13470, Control_c, 0, 64, 48
1, 13485, Note_on_c, 0, 82, 69
1, 13485, Control_c, 0, 64, 54
1, 13500, Control_c, 0, 64, 58
1, 13515, Control_c, 0, 64, 60
1, 13530, Control_c, 0, 64, 60
1, 13544, Control_c, 0, 64, 61
1, 13559, Control_c, 0, 64, 61
1, 13574, Control_c, 0, 64, 62
1, 13581, Note_on_c, 0, 77, 73
1, 13589, Control_c, 0, 64, 63
1, 13596, Note_off_c, 0, 82, 55
1, 13603, Control_c, 0, 64, 64
1, 13611, Note_on_c, 0, 64, 84
1, 13618, Note_off_c, 0, 62, 64
1, 13618, Control_c, 0, 64, 64
1, 13680, Note_off_c, 0, 77, 63
1, 13685, Note_on_c, 0, 75, 75
1, 13688, Note_off_c, 0, 64, 65
1, 13690, Note_on_c, 0, 63, 94
1, 13692, Control_c, 0, 64, 63
1, 13707, Control_c, 0, 64, 56
1, 13722, Control_c, 0, 64, 0
1, 13788, Note_off_c, 0, 75, 63
1, 13816, Note_on_c, 0, 85, 82
1, 13921, Note_on_c, 0, 80, 81
1, 13930, Control_c, 0, 64, 38
1, 13938, Note_off_c, 0, 85, 56
1, 13945, Control_c, 0, 64, 50
1, 13959, Control_c, 0, 64, 58
1, 13974, Control_c, 0, 64, 61
1, 13989, Control_c, 0, 64, 62
1, 14004, Control_c, 0, 64, 63
1, 14019, Control_c, 0, 64, 65
1, 14028, Note_off_c, 0, 80, 63
1, 14029, Note_on_c, 0, 78, 83
1, 14034, Control_c, 0, 64, 66
1, 14049, Control_c, 0, 64, 67
1, 14064, Control_c, 0, 64, 68
1, 14078, Control_c, 0, 64, 68
1, 14127, Note_off_c, 0, 78, 59
1, 14150, Note_on_c, 0, 88, 86
1, 14249, Note_on_c, 0, 83, 88
1, 14259, Note_off_c, 0, 88, 62
1, 14277, Note_on_c, 0, 65, 81
1, 14326, Note_off_c, 0, 63, 58
1, 14338, Control_c, 0, 64, 68
1, 14353, Control_c, 0, 64, 64
1, 14355, Note_off_c, 0, 83, 65
1, 14358, Note_on_c, 0, 81, 90
1, 14361, Note_on_c, 0, 67, 97
1, 14368, Control_c, 0, 64, 49
1, 14380, Note_off_c, 0, 65, 63
1, 14383, Control_c, 0, 64, 0
1, 14457, Control_c, 0, 64, 36
1, 14472, Control_c, 0, 64, 46
1, 14484, Note_off_c, 0, 81, 62
1, 14486, Control_c, 0, 64, 54
1, 14490, Note_on_c, 0, 91, 94
1, 14501, Control_c, 0, 64, 59
1, 14516, Control_c, 0, 64, 61
1, 14531, Control_c, 0, 64, 61
1, 14560, Control_c, 0, 64, 62
1, 14575, Control_c, 0, 64, 63
1, 14590, Control_c, 0, 64, 63
1, 14596, Note_off_c, 0, 91, 63
1, 14600, Note_on_c, 0, 86, 94
1, 14604, Control_c, 0, 64, 64
1, 14619, Control_c, 0, 64, 65
1, 14634, Control_c, 0, 64, 66
1, 14649, Control_c, 0, 64, 68
1, 14657, Note_on_c, 0, 66, 89
1, 14657, Note_off_c, 0, 67, 67
1, 14664, Control_c, 0, 64, 69
1, 14680, Control_c, 0, 64, 70
1, 14696, Note_off_c, 0, 86, 66
1, 14722, Note_on_c, 0, 84, 78
1, 14723, Note_on_c, 0, 68, 100
1, 14724, Control_c, 0, 64, 69
1, 14730, Note_on_c, 0, 83, 76
1, 14739, Control_c, 0, 64, 61
1, 14754, Note_off_c, 0, 66, 65
1, 14754, Control_c, 0, 64, 0
1, 14765, Note_off_c, 0, 83, 45
1, 14827, Control_c, 0, 64, 46
1, 14842, Control_c, 0, 64, 61
1, 14865, Control_c, 0, 64, 65
1, 14865, Control_c, 0, 66, 0
1, 14880, Control_c, 0, 64, 67
1, 14895, Control_c, 0, 64, 70
1, 14905, Note_on_c, 0, 94, 100
1, 14909, Control_c, 0, 64, 72
1, 14924, Control_c, 0, 64, 74
1, 14939, Control_c, 0, 64, 75
1, 14954, Control_c, 0, 64, 77
1, 14955, Note_off_c, 0, 84, 63
1, 14958, Note_off_c, 0, 94, 66
1, 14969, Control_c, 0, 64, 77
1, 14983, Control_c, 0, 64, 78
1, 14998, Control_c, 0, 64, 79
1, 15013, Control_c, 0, 64, 79
1, 15027, Control_c, 0, 64, 80
1, 15042, Control_c, 0, 64, 81
1, 15057, Control_c, 0, 64, 81
1, 15087, Control_c, 0, 64, 82
1, 15101, Control_c, 0, 64, 82
1, 15116, Control_c, 0, 64, 83
1, 15161, Control_c, 0, 64, 83
1, 15197, Note_off_c, 0, 68, 61
1, 15199, Note_on_c, 0, 70, 95
1, 15205, Note_on_c, 0, 69, 83
1, 15205, Control_c, 0, 64, 83
1, 15220, Control_c, 0, 64, 76
1, 15235, Control_c, 0, 64, 64
1, 15250, Control_c, 0, 64, 39
1, 15265, Note_on_c, 0, 72, 83
1, 15265, Control_c, 0, 64, 0
1, 15266, Note_off_c, 0, 70, 58
1, 15267, Note_on_c, 0, 68, 76
1, 15269, Note_off_c, 0, 69, 62
1, 15339, Control_c, 0, 67, 53
1, 15354, Control_c, 0, 67, 71
1, 15369, Control_c, 0, 67, 86
1, 15383, Control_c, 0, 67, 99
1, 15398, Control_c, 0, 67, 111
1, 15413, Control_c, 0, 67, 123
1, 15427, Control_c, 0, 67, 127
1, 15570, Note_on_c, 0, 75, 74
1, 15573, Note_off_c, 0, 72, 62
1, 15629, Control_c, 0, 64, 31
1, 15643, Note_off_c, 0, 75, 65
1, 15643, Control_c, 0, 64, 51
1, 15649, Note_on_c, 0, 76, 73
1, 15658, Control_c, 0, 64, 59
1, 15673, Control_c, 0, 64, 61
1, 15688, Control_c, 0, 64, 62
1, 15703, Control_c, 0, 64, 63
1, 15718, Control_c, 0, 64, 63
1, 15732, Control_c, 0, 64, 64
1, 15762, Control_c, 0, 64, 64
1, 15806, Control_c, 0, 64, 65
1, 15850, Control_c, 0, 64, 65
1, 15873, Note_off_c, 0, 76, 53
1, 15896, Note_off_c, 0, 68, 63
1, 15916, Note_on_c, 0, 67, 77
1, 15918, Note_on_c, 0, 69, 82
1, 15924, Control_c, 0, 64, 64
1, 15939, Control_c, 0, 64, 56
1, 15954, Control_c, 0, 64, 41
1, 15965, Note_off_c, 0, 67, 56
1, 15969, Control_c, 0, 64, 0
1, 15975, Note_on_c, 0, 66, 72
1, 15983, Note_on_c, 0, 70, 72
1, 15983, Note_off_c, 0, 69, 61
1, 16284, Note_on_c, 0, 73, 63
1, 16291, Note_off_c, 0, 70, 61
1, 16341, Control_c, 0, 64, 39
1, 16341, Note_off_c, 0, 73, 62
1, 16362, Control_c, 0, 64, 49
1, 16366, Note_on_c, 0, 74, 58
1, 16377, Control_c, 0, 64, 57
1, 16392, Control_c, 0, 64, 60
1, 16407, Control_c, 0, 64, 61
1, 16422, Control_c, 0, 64, 62
1, 16436, Control_c, 0, 64, 62
1, 16451, Control_c, 0, 64, 63
1, 16466, Control_c, 0, 64, 63
1, 16481, Control_c, 0, 64, 64
1, 16526, Control_c, 0, 64, 64
1, 16585, Control_c, 0, 64, 65
1, 16614, Note_off_c, 0, 74, 60
1, 16615, Note_off_c, 0, 66, 64
1, 16629, Note_on_c, 0, 65, 73
1, 16629, Control_c, 0, 64, 64
1, 16633, Note_on_c, 0, 67, 80
1, 16644, Control_c, 0, 64, 64
1, 16659, Control_c, 0, 64, 58
1, 16673, Control_c, 0, 64, 45
1, 16683, Note_off_c, 0, 65, 63
1, 16688, Control_c, 0, 64, 0
1, 16696, Note_off_c, 0, 67, 59
1, 16713, Note_on_c, 0, 68, 65
1, 16716, Note_on_c, 0, 64, 55
1, 16997, Note_on_c, 0, 71, 61
1, 16998, Note_off_c, 0, 68, 60
1, 17043, Note_off_c, 0, 71, 60
1, 17044, Control_c, 0, 64, 38
1, 17059, Control_c, 0, 64, 52
1, 17074, Control_c, 0, 64, 59
1, 17078, Note_on_c, 0, 72, 55
1, 17089, Control_c, 0, 64, 62
1, 17111, Control_c, 0, 64, 63
1, 17126, Control_c, 0, 64, 64
1, 17141, Control_c, 0, 64, 64
1, 17156, Control_c, 0, 64, 65
1, 17171, Control_c, 0, 64, 66
1, 17185, Control_c, 0, 64, 66
1, 17200, Control_c, 0, 64, 67
1, 17215, Note_off_c, 0, 72, 59
1, 17215, Control_c, 0, 64, 67
1, 17229, Control_c, 0, 64, 68
1, 17244, Control_c, 0, 64, 69
1, 17259, Control_c, 0, 64, 70
1, 17274, Control_c, 0, 64, 70
1, 17289, Control_c, 0, 64, 71
1, 17333, Control_c, 0, 64, 69
1, 17337, Note_on_c, 0, 77, 95
1, 17339, Note_on_c, 0, 76, 82
1, 17348, Control_c, 0, 64, 61
1, 17363, Control_c, 0, 64, 40
1, 17363, Control_c, 0, 67, 122
1, 17364, Note_off_c, 0, 76, 63
1, 17366, Note_off_c, 0, 64, 64
1, 17377, Control_c, 0, 64, 0
1, 17377, Control_c, 0, 67, 103
1, 17392, Control_c, 0, 67, 60
1, 17407, Control_c, 0, 67, 0
1, 17413, Note_on_c, 0, 79, 77
1, 17417, Note_off_c, 0, 77, 63
1, 17422, Control_c, 0, 64, 37
1, 17423, Note_on_c, 0, 75, 71
1, 17436, Control_c, 0, 64, 51
1, 17451, Control_c, 0, 64, 58
1, 17466, Control_c, 0, 64, 61
1, 17481, Control_c, 0, 64, 62
1, 17496, Control_c, 0, 64, 63
1, 17510, Control_c, 0, 64, 63
1, 17525, Control_c, 0, 64, 64
1, 17540, Control_c, 0, 64, 64
1, 17555, Control_c, 0, 64, 65
1, 17567, Note_off_c, 0, 79, 61
1, 17570, Control_c, 0, 64, 66
1, 17584, Control_c, 0, 64, 67
1, 17599, Control_c, 0, 64, 68
1, 17614, Control_c, 0, 64, 68
1, 17629, Control_c, 0, 64, 69
1, 17644, Control_c, 0, 64, 69
1, 17679, Note_on_c, 0, 70, 95
1, 17684, Note_on_c, 0, 82, 87
1, 17688, Control_c, 0, 64, 69
1, 17703, Control_c, 0, 64, 60
1, 17718, Control_c, 0, 64, 28
1, 17733, Control_c, 0, 64, 0
1, 17746, Note_off_c, 0, 70, 62
1, 17760, Note_on_c, 0, 69, 82
1, 17760, Note_on_c, 0, 83, 68
1, 17779, Note_off_c, 0, 82, 61
1, 17792, Control_c, 0, 64, 34
1, 17807, Control_c, 0, 64, 47
1, 17821, Control_c, 0, 64, 53
1, 17836, Control_c, 0, 64, 57
1, 17858, Control_c, 0, 64, 59
1, 17874, Control_c, 0, 64, 60
1, 17889, Control_c, 0, 64, 60
1, 17904, Control_c, 0, 64, 61
1, 17913, Note_off_c, 0, 83, 59
1, 17919, Control_c, 0, 64, 63
1, 17927, Note_off_c, 0, 75, 61
1, 17933, Control_c, 0, 64, 64
1, 17948, Control_c, 0, 64, 65
1, 17963, Control_c, 0, 64, 66
1, 17978, Control_c, 0, 64, 66
1, 17993, Control_c, 0, 64, 67
1, 18022, Control_c, 0, 64, 65
1, 18033, Note_on_c, 0, 76, 91
1, 18038, Note_on_c, 0, 74, 84
1, 18038, Control_c, 0, 64, 55
1, 18052, Control_c, 0, 64, 0
1, 18057, Note_off_c, 0, 74, 71
1, 18111, Note_on_c, 0, 77, 80
1, 18112, Control_c, 0, 64, 36
1, 18115, Note_off_c, 0, 76, 62
1, 18121, Note_on_c, 0, 73, 73
1, 18127, Control_c, 0, 64, 51
1, 18141, Control_c, 0, 64, 59
1, 18156, Control_c, 0, 64, 62
1, 18171, Control_c, 0, 64, 63
1, 18186, Control_c, 0, 64, 63
1, 18216, Control_c, 0, 64, 64
1, 18231, Control_c, 0, 64, 65
1, 18245, Control_c, 0, 64, 66
1, 18260, Note_off_c, 0, 77, 60
1, 18260, Control_c, 0, 64, 67
1, 18275, Control_c, 0, 64, 68
1, 18290, Control_c, 0, 64, 69
1, 18305, Control_c, 0, 64, 70
1, 18319, Control_c, 0, 64, 71
1, 18334, Control_c, 0, 64, 72
1, 18366, Note_off_c, 0, 69, 61
1, 18378, Control_c, 0, 64, 69
1, 18380, Note_on_c, 0, 68, 81
1, 18385, Note_on_c, 0, 80, 86
1, 18393, Control_c, 0, 64, 59
1, 18408, Control_c, 0, 64, 0
1, 18450, Note_on_c, 0, 81, 79
1, 18452, Note_on_c, 0, 67, 83
1, 18457, Note_off_c, 0, 68, 64
1, 18469, Note_off_c, 0, 80, 62
1, 18482, Control_c, 0, 64, 30
1, 18497, Control_c, 0, 64, 50
1, 18512, Control_c, 0, 64, 57
1, 18526, Control_c, 0, 64, 60
1, 18541, Control_c, 0, 64, 60
1, 18556, Control_c, 0, 64, 61
1, 18562, Note_off_c, 0, 81, 61
1, 18571, Control_c, 0, 64, 62
1, 18586, Control_c, 0, 64, 63
1, 18608, Control_c, 0, 64, 64
1, 18623, Control_c, 0, 64, 66
1, 18638, Control_c, 0, 64, 67
1, 18652, Control_c, 0, 64, 69
1, 18667, Control_c, 0, 64, 70
1, 18673, Note_off_c, 0, 73, 63
1, 18683, Control_c, 0, 64, 71
1, 18698, Control_c, 0, 64, 71
1, 18713, Control_c, 0, 64, 72
1, 18738, Note_on_c, 0, 74, 90
1, 18741, Note_on_c, 0, 72, 76
1, 18743, Control_c, 0, 64, 70
1, 18757, Control_c, 0, 64, 62
1, 18765, Note_off_c, 0, 72, 66
1, 18772, Control_c, 0, 64, 35
1, 18783, Note_off_c, 0, 74, 60
1, 18787, Control_c, 0, 64, 0
1, 18808, Note_on_c, 0, 75, 85
1, 18820, Note_on_c, 0, 71, 84
1, 18831, Control_c, 0, 64, 32
1, 18846, Control_c, 0, 64, 52
1, 18861, Control_c, 0, 64, 60
1, 18875, Control_c, 0, 64, 63
1, 18890, Control_c, 0, 64, 63
1, 18905, Control_c, 0, 64, 64
1, 18918, Note_off_c, 0, 75, 60
1, 18920, Control_c, 0, 64, 65
1, 18935, Control_c, 0, 64, 66
1, 18949, Control_c, 0, 64, 67
1, 18964, Control_c, 0, 64, 68
1, 18979, Control_c, 0, 64, 69
1, 18994, Control_c, 0, 64, 70
1, 19009, Control_c, 0, 64, 71
1, 19024, Control_c, 0, 64, 71
1, 19066, Note_off_c, 0, 67, 57
1, 19075, Note_on_c, 0, 66, 89
1, 19076, Note_on_c, 0, 78, 90
1, 19083, Control_c, 0, 64, 71
1, 19098, Control_c, 0, 64, 64
1, 19101, Note_off_c, 0, 71, 61
1, 19113, Control_c, 0, 64, 39
1, 19128, Control_c, 0, 64, 0
1, 19135, Note_off_c, 0, 66, 61
1, 19155, Note_on_c, 0, 65, 95
1, 19156, Note_on_c, 0, 79, 89
1, 19158, Note_off_c, 0, 78, 60
1, 19187, Control_c, 0, 64, 35
1, 19201, Control_c, 0, 64, 60
1, 19208, Note_off_c, 0, 79, 65
1, 19209, Note_off_c, 0, 65, 67
1, 19216, Control_c, 0, 64, 65
1, 19231, Control_c, 0, 64, 66
1, 19246, Control_c, 0, 64, 67
1, 19261, Control_c, 0, 64, 68
1, 19275, Control_c, 0, 64, 69
1, 19290, Control_c, 0, 64, 70
1, 19305, Control_c, 0, 64, 71
1, 19320, Control_c, 0, 64, 72
1, 19335, Control_c, 0, 64, 73
1, 19372, Control_c, 0, 64, 73
1, 19401, Control_c, 0, 64, 74
1, 19431, Control_c, 0, 64, 74
1, 19446, Control_c, 0, 64, 75
1, 19457, Note_on_c, 0, 77, 87
1, 19461, Control_c, 0, 64, 76
1, 19465, Note_on_c, 0, 73, 106
1, 19477, Control_c, 0, 64, 77
1, 19492, Control_c, 0, 64, 77
1, 19506, Control_c, 0, 64, 77
1, 19515, Note_off_c, 0, 73, 61
1, 19521, Control_c, 0, 64, 74
1, 19536, Control_c, 0, 64, 63
1, 19537, Note_on_c, 0, 72, 106
1, 19537, Note_on_c, 0, 80, 92
1, 19540, Note_off_c, 0, 77, 56
1, 19551, Control_c, 0, 64, 0
1, 19809, Note_on_c, 0, 83, 83
1, 19815, Note_off_c, 0, 80, 64
1, 19832, Control_c, 0, 64, 56
1, 19847, Control_c, 0, 64, 65
1, 19861, Control_c, 0, 64, 66
1, 19865, Note_on_c, 0, 85, 100
1, 19875, Note_off_c, 0, 83, 64
1, 19876, Control_c, 0, 64, 67
1, 19891, Control_c, 0, 64, 69
1, 19900, Note_off_c, 0, 85, 69
1, 19906, Control_c, 0, 64, 70
1, 19921, Control_c, 0, 64, 72
1, 19936, Control_c, 0, 64, 73
1, 19950, Control_c, 0, 64, 74
1, 19965, Control_c, 0, 64, 75
1, 19980, Control_c, 0, 64, 75
1, 19995, Control_c, 0, 64, 76
1, 20010, Control_c, 0, 64, 78
1, 20024, Control_c, 0, 64, 79
1, 20039, Control_c, 0, 64, 81
1, 20054, Control_c, 0, 64, 82
1, 20069, Control_c, 0, 64, 82
1, 20117, Note_on_c, 0, 89, 97
1, 20188, Note_on_c, 0, 92, 106
1, 20196, Note_off_c, 0, 89, 65
1, 20224, Control_c, 0, 64, 83
1, 20285, Control_c, 0, 64, 84
1, 20300, Control_c, 0, 64, 85
1, 20315, Control_c, 0, 64, 87
1, 20329, Control_c, 0, 64, 90
1, 20344, Control_c, 0, 64, 93
1, 20359, Control_c, 0, 64, 95
1, 20374, Control_c, 0, 64, 96
1, 20380, Note_off_c, 0, 92, 66
1, 20418, Control_c, 0, 64, 92
1, 20425, Note_on_c, 0, 95, 97
1, 20426, Note_on_c, 0, 71, 93
1, 20430, Note_off_c, 0, 72, 57
1, 20433, Control_c, 0, 64, 80
1, 20447, Control_c, 0, 64, 67
1, 20462, Control_c, 0, 64, 57
1, 20477, Control_c, 0, 64, 58
1, 20487, Note_on_c, 0, 97, 106
1, 20492, Control_c, 0, 64, 60
1, 20494, Note_off_c, 0, 71, 59
1, 20497, Note_on_c, 0, 72, 93
1, 20497, Note_off_c, 0, 95, 66
1, 20507, Control_c, 0, 64, 64
1, 20515, Note_off_c, 0, 97, 69
1, 20521, Control_c, 0, 64, 67
1, 20536, Control_c, 0, 64, 68
1, 20551, Control_c, 0, 64, 69
1, 20565, Control_c, 0, 64, 70
1, 20580, Control_c, 0, 64, 71
1, 20595, Control_c, 0, 64, 72
1, 20610, Control_c, 0, 64, 74
1, 20625, Control_c, 0, 64, 76
1, 20639, Control_c, 0, 64, 77
1, 20654, Control_c, 0, 64, 78
1, 20669, Control_c, 0, 64, 80
1, 20684, Control_c, 0, 64, 81
1, 20699, Control_c, 0, 64, 82
1, 20714, Control_c, 0, 64, 83
1, 20729, Control_c, 0, 64, 84
1, 20732, Note_on_c, 0, 71, 97
1, 20732, Note_on_c, 0, 77, 94
1, 20746, Note_off_c, 0, 72, 61
1, 20759, Control_c, 0, 64, 82
1, 20773, Control_c, 0, 64, 68
1, 20788, Control_c, 0, 64, 46
1, 20803, Control_c, 0, 64, 0
1, 20804, Note_on_c, 0, 70, 94
1, 20804, Note_on_c, 0, 80, 100
1, 20810, Note_off_c, 0, 77, 61
1, 20814, Note_off_c, 0, 71, 56
1, 20869, Control_c, 0, 64, 43
1, 20884, Control_c, 0, 64, 57
1, 20899, Control_c, 0, 64, 64
1, 20914, Control_c, 0, 64, 67
1, 20929, Control_c, 0, 64, 71
1, 20944, Control_c, 0, 64, 74
1, 20958, Control_c, 0, 64, 78
1, 20973, Control_c, 0, 64, 83
1, 20987, Note_off_c, 0, 80, 61
1, 20988, Control_c, 0, 64, 85
1, 21033, Control_c, 0, 64, 81
1, 21041, Note_on_c, 0, 83, 98
1, 21042, Note_on_c, 0, 73, 97
1, 21048, Control_c, 0, 64, 69
1, 21063, Control_c, 0, 64, 55
1, 21063, Note_off_c, 0, 70, 61
1, 21078, Control_c, 0, 64, 49
1, 21093, Control_c, 0, 64, 54
1, 21108, Control_c, 0, 64, 62
1, 21113, Note_off_c, 0, 83, 61
1, 21116, Note_on_c, 0, 85, 103
1, 21123, Note_on_c, 0, 72, 99
1, 21123, Note_off_c, 0, 73, 57
1, 21123, Control_c, 0, 64, 69
1, 21138, Control_c, 0, 64, 74
1, 21144, Note_off_c, 0, 85, 70
1, 21152, Control_c, 0, 64, 77
1, 21167, Control_c, 0, 64, 78
1, 21182, Control_c, 0, 64, 79
1, 21197, Control_c, 0, 64, 80
1, 21212, Control_c, 0, 64, 81
1, 21227, Control_c, 0, 64, 83
1, 21242, Control_c, 0, 64, 85
1, 21257, Control_c, 0, 64, 87
1, 21271, Control_c, 0, 64, 91
1, 21286, Control_c, 0, 64, 96
1, 21301, Control_c, 0, 64, 104
1, 21316, Control_c, 0, 64, 122
1, 21331, Control_c, 0, 64, 127
1, 21369, Note_off_c, 0, 72, 49
1, 21371, Note_on_c, 0, 89, 97
1, 21372, Note_on_c, 0, 71, 101
1, 21390, Control_c, 0, 64, 99
1, 21404, Control_c, 0, 64, 67
1, 21419, Control_c, 0, 64, 0
1, 21436, Note_off_c, 0, 71, 56
1, 21448, Note_on_c, 0, 92, 106
1, 21453, Note_on_c, 0, 74, 108
1, 21456, Note_off_c, 0, 89, 54
1, 21478, Control_c, 0, 64, 61
1, 21493, Control_c, 0, 64, 75
1, 21508, Control_c, 0, 64, 89
1, 21523, Control_c, 0, 64, 97
1, 21537, Control_c, 0, 64, 102
1, 21552, Control_c, 0, 64, 109
1, 21567, Control_c, 0, 64, 115
1, 21582, Control_c, 0, 64, 127
1, 21659, Note_off_c, 0, 92, 62
1, 21715, Note_off_c, 0, 74, 57
1, 21743, Note_on_c, 0, 95, 101
1, 21753, Note_on_c, 0, 72, 99
1, 21800, Note_off_c, 0, 95, 67
1, 21802, Note_off_c, 0, 72, 65
1, 21828, Note_on_c, 0, 97, 109
1, 21829, Note_on_c, 0, 71, 110
1, 21859, Note_off_c, 0, 71, 71
1, 21860, Note_off_c, 0, 97, 70
1, 22160, Note_on_c, 0, 78, 100
1, 22160, Note_on_c, 0, 80, 100
1, 22199, Note_on_c, 0, 81, 43
1, 22224, Note_off_c, 0, 81, 56
1, 22306, Note_off_c, 0, 78, 56
1, 22308, Note_off_c, 0, 80, 61
1, 22348, Note_on_c, 0, 38, 106
1, 22348, Note_on_c, 0, 81, 101
1, 22350, Note_on_c, 0, 26, 103
1, 22352, Control_c, 0, 64, 76
1, 22354, Note_on_c, 0, 77, 101
1, 22367, Control_c, 0, 64, 42
1, 22382, Control_c, 0, 64, 0
1, 22441, Control_c, 0, 64, 28
1, 22449, Note_off_c, 0, 77, 66
1, 22456, Control_c, 0, 64, 58
1, 22457, Note_off_c, 0, 81, 66
1, 22471, Control_c, 0, 64, 74
1, 22486, Control_c, 0, 64, 85
1, 22495, Note_off_c, 0, 26, 64
1, 22500, Control_c, 0, 64, 97
1, 22515, Control_c, 0, 64, 100
1, 22524, Note_off_c, 0, 38, 64
1, 22530, Control_c, 0, 64, 103
1, 22544, Control_c, 0, 64, 107
1, 22559, Control_c, 0, 64, 112
1, 22574, Control_c, 0, 64, 118
1, 22589, Control_c, 0, 64, 124
1, 22604, Control_c, 0, 64, 127
1, 22645, Note_on_c, 0, 89, 97
1, 22646, Note_on_c, 0, 87, 102
1, 22736, Note_on_c, 0, 48, 85
1, 22740, Note_on_c, 0, 47, 80
1, 22765, Note_off_c, 0, 47, 67
1, 22775, Note_off_c, 0, 89, 61
1, 22808, Note_off_c, 0, 87, 51
1, 22819, Note_on_c, 0, 90, 96
1, 22822, Note_on_c, 0, 86, 107
1, 22872, Note_off_c, 0, 86, 63
1, 22882, Note_off_c, 0, 90, 62
1, 23017, Note_on_c, 0, 78, 98
1, 23022, Note_on_c, 0, 76, 87
1, 23037, Note_on_c, 0, 75, 56
1, 23037, Note_off_c, 0, 75, 127
1, 23062, Note_on_c, 0, 56, 93
1, 23066, Note_off_c, 0, 48, 62
1, 23102, Note_off_c, 0, 76, 61
1, 23132, Note_off_c, 0, 78, 62
1, 23169, Note_off_c, 0, 56, 65
1, 23176, Note_on_c, 0, 75, 80
1, 23178, Note_on_c, 0, 79, 87
1, 23195, Note_on_c, 0, 56, 64
1, 23197, Note_off_c, 0, 75, 69
1, 23201, Note_on_c, 0, 76, 73
1, 23221, Note_off_c, 0, 76, 70
1, 23227, Note_on_c, 0, 55, 45
1, 23232, Note_off_c, 0, 79, 67
1, 23255, Note_off_c, 0, 55, 55
1, 23363, Note_on_c, 0, 87, 105
1, 23370, Note_on_c, 0, 85, 96
1, 23459, Note_on_c, 0, 64, 89
1, 23464, Note_off_c, 0, 56, 63
1, 23486, Note_off_c, 0, 85, 61
1, 23486, Note_off_c, 0, 87, 62
1, 23548, Note_on_c, 0, 88, 97
1, 23549, Note_on_c, 0, 84, 95
1, 23590, Note_off_c, 0, 84, 67
1, 23607, Note_off_c, 0, 88, 63
1, 23716, Note_on_c, 0, 70, 98
1, 23791, Note_off_c, 0, 70, 60
1, 23798, Control_c, 0, 64, 124
1, 23800, Note_off_c, 0, 64, 62
1, 23805, Note_on_c, 0, 82, 93
1, 23807, Note_on_c, 0, 75, 87
1, 23874, Note_off_c, 0, 75, 63
1, 23893, Note_off_c, 0, 82, 60
1, 23939, Control_c, 0, 64, 122
1, 23942, Note_on_c, 0, 83, 86
1, 23945, Note_on_c, 0, 74, 91
1, 23954, Control_c, 0, 64, 114
1, 23969, Control_c, 0, 64, 96
1, 23978, Note_off_c, 0, 74, 65
1, 23984, Control_c, 0, 64, 79
1, 23990, Note_off_c, 0, 83, 65
1, 23996, Note_on_c, 0, 84, 8
1, 23998, Control_c, 0, 64, 66
1, 24013, Control_c, 0, 64, 53
1, 24027, Control_c, 0, 64, 33
1, 24040, Note_on_c, 0, 73, 90
1, 24042, Control_c, 0, 64, 0
1, 24070, Note_off_c, 0, 73, 65
1, 24079, Note_off_c, 0, 84, 61
1, 24109, Note_on_c, 0, 85, 90
1, 24113, Note_on_c, 0, 72, 88
1, 24151, Note_off_c, 0, 72, 64
1, 24168, Note_off_c, 0, 85, 64
1, 24211, Note_on_c, 0, 65, 82
1, 24247, Note_off_c, 0, 65, 68
1, 24267, Note_on_c, 0, 64, 91
1, 24556, Note_on_c, 0, 63, 79
1, 24580, Note_off_c, 0, 64, 58
1, 24631, Note_on_c, 0, 65, 84
1, 24632, Note_off_c, 0, 63, 65
1, 24880, Control_c, 0, 64, 40
1, 24888, Note_on_c, 0, 64, 84
1, 24895, Note_off_c, 0, 65, 65
1, 24895, Control_c, 0, 64, 55
1, 24896, Note_on_c, 0, 70, 86
1, 24910, Control_c, 0, 64, 59
1, 24923, Note_off_c, 0, 64, 68
1, 24925, Control_c, 0, 64, 61
1, 24939, Control_c, 0, 64, 63
1, 24954, Control_c, 0, 64, 64
1, 24969, Control_c, 0, 64, 65
1, 24984, Control_c, 0, 64, 66
1, 25009, Note_on_c, 0, 63, 84
1, 25011, Note_on_c, 0, 50, 76
1, 25018, Note_off_c, 0, 70, 63
1, 25022, Note_on_c, 0, 71, 90
1, 25028, Control_c, 0, 64, 64
1, 25043, Control_c, 0, 64, 57
1, 25059, Control_c, 0, 64, 0
1, 25104, Control_c, 0, 66, 127
1, 25274, Note_on_c, 0, 81, 93
1, 25311, Control_c, 0, 64, 36
1, 25325, Control_c, 0, 64, 50
1, 25348, Control_c, 0, 64, 59
1, 25362, Control_c, 0, 64, 62
1, 25377, Control_c, 0, 64, 63
1, 25392, Control_c, 0, 64, 64
1, 25407, Control_c, 0, 64, 65
1, 25422, Control_c, 0, 64, 66
1, 25436, Control_c, 0, 64, 67
1, 25451, Control_c, 0, 64, 68
1, 25463, Note_off_c, 0, 50, 58
1, 25466, Control_c, 0, 64, 69
1, 25481, Control_c, 0, 64, 70
1, 25496, Control_c, 0, 64, 70
1, 25510, Control_c, 0, 64, 72
1, 25525, Control_c, 0, 64, 73
1, 25540, Control_c, 0, 64, 73
1, 25544, Note_on_c, 0, 80, 90
1, 25548, Note_off_c, 0, 81, 64
1, 25555, Control_c, 0, 64, 74
1, 25570, Control_c, 0, 64, 74
1, 25610, Note_off_c, 0, 71, 56
1, 25644, Control_c, 0, 64, 75
1, 25822, Control_c, 0, 66, 0
1, 25823, Note_on_c, 0, 62, 75
1, 25824, Note_on_c, 0, 70, 87
1, 25835, Note_off_c, 0, 63, 51
1, 25907, Note_off_c, 0, 70, 64
1, 25912, Control_c, 0, 64, 75
1, 25937, Note_off_c, 0, 80, 60
1, 25941, Control_c, 0, 64, 75
1, 25956, Control_c, 0, 64, 71
1, 25971, Control_c, 0, 64, 55
1, 25979, Note_off_c, 0, 62, 55
1, 25983, Note_on_c, 0, 77, 70
1, 25984, Note_on_c, 0, 69, 75
1, 25985, Control_c, 0, 64, 0
1, 25991, Note_on_c, 0, 61, 79
1, 26005, Note_off_c, 0, 69, 71
1, 26013, Note_on_c, 0, 76, 42
1, 26015, Note_off_c, 0, 77, 66
1, 26042, Note_off_c, 0, 76, 38
1, 26062, Note_on_c, 0, 78, 85
1, 26071, Note_on_c, 0, 68, 83
1, 26101, Note_off_c, 0, 68, 66
1, 26118, Note_off_c, 0, 78, 61
1, 26151, Note_on_c, 0, 79, 78
1, 26154, Note_on_c, 0, 67, 73
1, 26177, Note_off_c, 0, 67, 70
1, 26201, Note_off_c, 0, 79, 63
1, 26283, Note_off_c, 0, 61, 63
1, 26297, Note_on_c, 0, 60, 73
1, 26363, Note_on_c, 0, 61, 82
1, 26372, Note_off_c, 0, 60, 61
1, 26437, Control_c, 0, 67, 45
1, 26452, Control_c, 0, 67, 59
1, 26467, Control_c, 0, 67, 70
1, 26482, Control_c, 0, 67, 78
1, 26497, Control_c, 0, 67, 86
1, 26511, Control_c, 0, 67, 94
1, 26526, Control_c, 0, 67, 100
1, 26541, Control_c, 0, 67, 105
1, 26556, Control_c, 0, 67, 107
1, 26571, Control_c, 0, 67, 109
1, 26585, Control_c, 0, 67, 111
1, 26600, Control_c, 0, 67, 114
1, 26615, Control_c, 0, 67, 119
1, 26630, Control_c, 0, 67, 122
1, 26645, Control_c, 0, 67, 125
1, 26661, Control_c, 0, 67, 127
1, 26666, Note_on_c, 0, 60, 72
1, 26667, Note_off_c, 0, 61, 64
1, 26734, Note_off_c, 0, 60, 60
1, 26740, Note_on_c, 0, 59, 79
1, 27035, Note_on_c, 0, 85, 80
1, 27039, Note_on_c, 0, 66, 65
1, 27041, Note_on_c, 0, 73, 68
1, 27078, Note_off_c, 0, 73, 61
1, 27093, Note_off_c, 0, 66, 63
1, 27099, Note_off_c, 0, 85, 62
1, 27114, Note_on_c, 0, 84, 83
1, 27120, Note_on_c, 0, 72, 72
1, 27126, Note_on_c, 0, 68, 65
1, 27156, Control_c, 0, 64, 37
1, 27171, Control_c, 0, 64, 53
1, 27186, Control_c, 0, 64, 60
1, 27201, Control_c, 0, 64, 62
1, 27215, Control_c, 0, 64, 63
1, 27230, Control_c, 0, 64, 64
1, 27245, Control_c, 0, 64, 65
1, 27251, Note_off_c, 0, 72, 38
1, 27260, Control_c, 0, 64, 65
1, 27265, Note_off_c, 0, 84, 56
1, 27275, Control_c, 0, 64, 66
1, 27290, Control_c, 0, 64, 66
1, 27320, Control_c, 0, 64, 67
1, 27349, Control_c, 0, 64, 67
1, 27364, Control_c, 0, 64, 68
1, 27373, Note_off_c, 0, 68, 57
1, 27379, Control_c, 0, 64, 68
1, 27394, Control_c, 0, 64, 69
1, 27401, Note_on_c, 0, 86, 87
1, 27410, Note_on_c, 0, 65, 63
1, 27410, Note_on_c, 0, 74, 71
1, 27437, Note_off_c, 0, 74, 59
1, 27454, Control_c, 0, 64, 65
1, 27456, Note_off_c, 0, 86, 62
1, 27469, Control_c, 0, 64, 56
1, 27484, Control_c, 0, 64, 39
1, 27486, Note_off_c, 0, 65, 61
1, 27489, Note_on_c, 0, 83, 79
1, 27499, Control_c, 0, 64, 0
1, 27505, Note_on_c, 0, 67, 57
1, 27528, Control_c, 0, 64, 29
1, 27543, Control_c, 0, 64, 43
1, 27557, Control_c, 0, 64, 54
1, 27572, Control_c, 0, 64, 61
1, 27594, Control_c, 0, 64, 64
1, 27609, Control_c, 0, 64, 65
1, 27624, Control_c, 0, 64, 66
1, 27639, Control_c, 0, 64, 66
1, 27654, Control_c, 0, 64, 67
1, 27663, Note_off_c, 0, 83, 60
1, 27668, Control_c, 0, 64, 68
1, 27683, Control_c, 0, 64, 68
1, 27698, Control_c, 0, 64, 69
1, 27723, Note_off_c, 0, 67, 53
1, 27743, Control_c, 0, 64, 69
1, 27772, Control_c, 0, 64, 70
1, 27787, Control_c, 0, 64, 70
1, 27799, Note_on_c, 0, 85, 80
1, 27802, Control_c, 0, 64, 71
1, 27812, Note_on_c, 0, 66, 56
1, 27817, Control_c, 0, 64, 71
1, 27829, Note_on_c, 0, 73, 50
1, 27853, Note_off_c, 0, 73, 63
1, 27876, Control_c, 0, 64, 69
1, 27877, Note_off_c, 0, 85, 61
1, 27880, Note_off_c, 0, 66, 61
1, 27891, Control_c, 0, 64, 60
1, 27892, Note_on_c, 0, 84, 84
1, 27905, Control_c, 0, 64, 41
1, 27910, Note_on_c, 0, 72, 64
1, 27919, Note_on_c, 0, 68, 53
1, 27920, Control_c, 0, 64, 0
1, 27964, Control_c, 0, 64, 46
1, 27979, Control_c, 0, 64, 58
1, 27994, Control_c, 0, 64, 64
1, 28009, Control_c, 0, 64, 66
1, 28024, Control_c, 0, 64, 67
1, 28038, Control_c, 0, 64, 68
1, 28053, Control_c, 0, 64, 69
1, 28055, Note_off_c, 0, 72, 34
1, 28068, Control_c, 0, 64, 69
1, 28074, Note_off_c, 0, 84, 53
1, 28083, Control_c, 0, 64, 70
1, 28098, Control_c, 0, 64, 71
1, 28142, Control_c, 0, 64, 71
1, 28223, Note_on_c, 0, 86, 77
1, 28236, Note_off_c, 0, 68, 38
1, 28239, Note_on_c, 0, 65, 51
1, 28249, Note_on_c, 0, 74, 40
1, 28277, Note_off_c, 0, 74, 50
1, 28284, Note_off_c, 0, 86, 62
1, 28373, Control_c, 0, 64, 68
1, 28387, Control_c, 0, 64, 61
1, 28391, Note_off_c, 0, 65, 60
1, 28397, Note_on_c, 0, 71, 73
1, 28402, Control_c, 0, 64, 48
1, 28417, Control_c, 0, 64, 37
1, 28420, Note_on_c, 0, 67, 47
1, 28432, Control_c, 0, 64, 35
1, 28447, Control_c, 0, 64, 41
1, 28461, Control_c, 0, 64, 51
1, 28476, Control_c, 0, 64, 59
1, 28491, Control_c, 0, 64, 63
1, 28506, Control_c, 0, 64, 65
1, 28521, Control_c, 0, 64, 66
1, 28536, Control_c, 0, 64, 67
1, 28551, Control_c, 0, 64, 69
1, 28562, Note_on_c, 0, 82, 67
1, 28566, Control_c, 0, 64, 70
1, 28576, Note_off_c, 0, 71, 38
1, 28581, Control_c, 0, 64, 72
1, 28595, Control_c, 0, 64, 73
1, 28610, Control_c, 0, 64, 74
1, 28625, Control_c, 0, 64, 74
1, 28640, Control_c, 0, 64, 75
1, 28655, Control_c, 0, 64, 75
1, 28673, Note_on_c, 0, 84, 72
1, 28684, Control_c, 0, 64, 76
1, 28699, Control_c, 0, 64, 76
1, 28713, Control_c, 0, 64, 77
1, 28728, Control_c, 0, 64, 77
1, 28742, Note_off_c, 0, 82, 28
1, 28775, Note_off_c, 0, 84, 62
1, 28797, Note_on_c, 0, 81, 71
1, 28805, Note_off_c, 0, 67, 35
1, 28817, Control_c, 0, 64, 78
1, 28887, Note_off_c, 0, 81, 59
1, 28911, Note_on_c, 0, 73, 71
1, 28950, Control_c, 0, 64, 78
1, 29003, Note_off_c, 0, 73, 54
1, 29009, Note_on_c, 0, 80, 72
1, 29126, Note_off_c, 0, 80, 57
1, 29147, Note_on_c, 0, 86, 76
1, 29210, Control_c, 0, 67, 111
1, 29225, Control_c, 0, 67, 98
1, 29235, Note_off_c, 0, 86, 63
1, 29240, Control_c, 0, 67, 87
1, 29255, Control_c, 0, 67, 79
1, 29270, Control_c, 0, 67, 73
1, 29276, Note_on_c, 0, 79, 70
1, 29284, Control_c, 0, 67, 67
1, 29299, Control_c, 0, 67, 62
1, 29314, Control_c, 0, 67, 56
1, 29318, Note_off_c, 0, 59, 59
1, 29329, Control_c, 0, 67, 54
1, 29344, Control_c, 0, 67, 53
1, 29359, Note_off_c, 0, 79, 60
1, 29384, Note_on_c, 0, 75, 71
1, 29418, Control_c, 0, 67, 54
1, 29433, Control_c, 0, 67, 56
1, 29448, Control_c, 0, 64, 78
1, 29448, Control_c, 0, 67, 57
1, 29451, Note_on_c, 0, 60, 71
1, 29463, Control_c, 0, 67, 58
1, 29478, Control_c, 0, 64, 77
1, 29478, Control_c, 0, 67, 60
1, 29492, Control_c, 0, 64, 75
1, 29492, Control_c, 0, 67, 60
1, 29507, Control_c, 0, 64, 70
1, 29507, Control_c, 0, 67, 61
1, 29522, Control_c, 0, 64, 63
1, 29536, Control_c, 0, 64, 53
1, 29536, Control_c, 0, 67, 62
1, 29545, Note_on_c, 0, 59, 73
1, 29551, Control_c, 0, 64, 41
1, 29563, Note_off_c, 0, 60, 60
1, 29566, Control_c, 0, 64, 0
1, 29568, Note_on_c, 0, 78, 62
1, 29570, Note_off_c, 0, 75, 51
1, 29610, Control_c, 0, 67, 62
1, 29702, Note_off_c, 0, 78, 59
1, 29714, Control_c, 0, 67, 63
1, 29725, Note_on_c, 0, 88, 68
1, 29728, Control_c, 0, 64, 34
1, 29743, Control_c, 0, 64, 49
1, 29743, Control_c, 0, 67, 64
1, 29758, Control_c, 0, 64, 59
1, 29758, Control_c, 0, 67, 64
1, 29773, Control_c, 0, 64, 62
1, 29773, Control_c, 0, 67, 65
1, 29788, Control_c, 0, 64, 64
1, 29788, Control_c, 0, 67, 66
1, 29803, Control_c, 0, 64, 65
1, 29803, Control_c, 0, 67, 68
1, 29818, Control_c, 0, 64, 66
1, 29818, Control_c, 0, 67, 69
1, 29840, Control_c, 0, 64, 68
1, 29840, Control_c, 0, 67, 71
1, 29856, Control_c, 0, 64, 70
1, 29856, Control_c, 0, 67, 73
1, 29856, Note_on_c, 0, 77, 60
1, 29871, Control_c, 0, 64, 71
1, 29871, Control_c, 0, 67, 75
1, 29886, Control_c, 0, 64, 72
1, 29886, Control_c, 0, 67, 78
1, 29890, Note_off_c, 0, 88, 39
1, 29901, Control_c, 0, 64, 72
1, 29901, Control_c, 0, 67, 81
1, 29915, Control_c, 0, 64, 73
1, 29915, Control_c, 0, 67, 83
1, 29930, Control_c, 0, 64, 73
1, 29930, Control_c, 0, 67, 85
1, 29945, Control_c, 0, 67, 87
1, 29959, Control_c, 0, 67, 91
1, 29965, Note_off_c, 0, 77, 49
1, 29974, Control_c, 0, 67, 100
1, 29989, Control_c, 0, 67, 114
1, 29997, Note_on_c, 0, 83, 64
1, 30004, Control_c, 0, 67, 127
1, 30019, Control_c, 0, 64, 74
1, 30039, Note_off_c, 0, 83, 62
1, 30140, Note_on_c, 0, 67, 55
1, 30235, Note_off_c, 0, 59, 61
1, 30279, Note_on_c, 0, 75, 58
1, 30289, Note_off_c, 0, 67, 62
1, 30395, Note_off_c, 0, 75, 58
1, 30402, Note_on_c, 0, 78, 54
1, 30521, Note_off_c, 0, 78, 38
1, 30522, Note_on_c, 0, 70, 52
1, 30633, Control_c, 0, 64, 73
1, 30647, Note_on_c, 0, 62, 57
1, 30664, Control_c, 0, 64, 73
1, 30679, Control_c, 0, 64, 72
1, 30691, Note_off_c, 0, 70, 56
1, 30798, Note_on_c, 0, 65, 57
1, 30933, Note_on_c, 0, 73, 61
1, 31002, Note_off_c, 0, 65, 57
1, 31013, Note_off_c, 0, 62, 34
1, 31052, Note_on_c, 0, 81, 65
1, 31061, Note_off_c, 0, 73, 59
1, 31164, Note_off_c, 0, 81, 58
1, 31171, Note_on_c, 0, 84, 66
1, 31299, Note_on_c, 0, 76, 58
1, 31391, Note_off_c, 0, 76, 57
1, 31433, Note_on_c, 0, 68, 54
1, 31456, Note_off_c, 0, 84, 17
1, 31576, Control_c, 0, 64, 72
1, 31591, Note_on_c, 0, 71, 63
1, 31591, Control_c, 0, 64, 70
1, 31606, Control_c, 0, 64, 66
1, 31621, Control_c, 0, 64, 59
1, 31626, Note_off_c, 0, 68, 36
1, 31636, Control_c, 0, 64, 50
1, 31651, Control_c, 0, 64, 43
1, 31666, Control_c, 0, 64, 41
1, 31680, Control_c, 0, 64, 42
1, 31695, Control_c, 0, 64, 48
1, 31710, Control_c, 0, 64, 54
1, 31724, Control_c, 0, 64, 58
1, 31737, Note_on_c, 0, 75, 55
1, 31739, Control_c, 0, 64, 61
1, 31754, Control_c, 0, 64, 62
1, 31769, Control_c, 0, 64, 64
1, 31784, Control_c, 0, 64, 65
1, 31798, Control_c, 0, 64, 67
1, 31813, Control_c, 0, 64, 69
1, 31828, Control_c, 0, 64, 70
1, 31840, Note_off_c, 0, 75, 58
1, 31843, Control_c, 0, 64, 71
1, 31858, Control_c, 0, 64, 71
1, 31867, Note_on_c, 0, 79, 51
1, 31872, Control_c, 0, 64, 72
1, 31887, Control_c, 0, 64, 73
1, 31902, Control_c, 0, 64, 73
1, 31917, Control_c, 0, 64, 74
1, 31931, Control_c, 0, 64, 74
1, 31945, Note_off_c, 0, 79, 39
1, 31946, Control_c, 0, 64, 75
1, 31976, Control_c, 0, 64, 75
1, 32003, Note_on_c, 0, 82, 50
1, 32140, Note_off_c, 0, 82, 36
1, 32161, Note_on_c, 0, 86, 50
1, 32286, Note_off_c, 0, 86, 37
1, 32304, Note_on_c, 0, 78, 47
1, 32403, Note_off_c, 0, 78, 54
1, 32465, Note_on_c, 0, 77, 43
1, 32609, Note_off_c, 0, 77, 38
1, 32641, Note_on_c, 0, 81, 46
1, 32799, Note_off_c, 0, 81, 47
1, 32807, Note_on_c, 0, 85, 46
1, 32995, Note_off_c, 0, 85, 36
1, 33004, Note_on_c, 0, 88, 38
1, 33085, Note_off_c, 0, 71, 36
1, 33245, Note_on_c, 0, 91, 26
1, 33490, Note_on_c, 0, 84, 35
1, 33817, Note_off_c, 0, 84, 30
1, 33827, Note_off_c, 0, 88, 27
1, 33853, Control_c, 0, 64, 75
1, 33881, Note_off_c, 0, 91, 30
1, 33882, Control_c, 0, 64, 74
1, 33897, Control_c, 0, 64, 72
1, 33900, Note_on_c, 0, 59, 27
1, 33912, Control_c, 0, 64, 69
1, 33926, Control_c, 0, 64, 65
1, 33941, Control_c, 0, 64, 59
1, 33956, Control_c, 0, 64, 54
1, 33971, Control_c, 0, 64, 50
1, 33986, Control_c, 0, 64, 47
1, 34000, Control_c, 0, 64, 46
1, 34015, Control_c, 0, 64, 45
1, 34060, Control_c, 0, 64, 46
1, 34074, Control_c, 0, 64, 49
1, 34089, Control_c, 0, 64, 55
1, 34104, Control_c, 0, 64, 59
1, 34119, Control_c, 0, 64, 62
1, 34134, Control_c, 0, 64, 64
1, 34149, Control_c, 0, 64, 65
1, 34164, Control_c, 0, 64, 67
1, 34179, Control_c, 0, 64, 69
1, 34194, Control_c, 0, 64, 71
1, 34204, Note_on_c, 0, 63, 32
1, 34208, Control_c, 0, 64, 72
1, 34223, Control_c, 0, 64, 74
1, 34238, Control_c, 0, 64, 75
1, 34253, Control_c, 0, 64, 77
1, 34268, Control_c, 0, 64, 78
1, 34282, Control_c, 0, 64, 79
1, 34292, Note_off_c, 0, 59, 41
1, 34297, Control_c, 0, 64, 80
1, 34312, Control_c, 0, 64, 81
1, 34334, Control_c, 0, 64, 82
1, 34349, Control_c, 0, 64, 82
1, 34364, Control_c, 0, 64, 83
1, 34399, Note_on_c, 0, 67, 31
1, 34402, Note_off_c, 0, 63, 36
1, 34423, Control_c, 0, 64, 83
1, 34518, Note_off_c, 0, 67, 37
1, 34542, Note_on_c, 0, 70, 27
1, 34566, Note_on_c, 0, 79, 62
1, 34694, Note_off_c, 0, 70, 43
1, 34747, Note_on_c, 0, 74, 29
1, 34807, Note_off_c, 0, 74, 39
1, 34879, Note_on_c, 0, 66, 37
1, 34942, Control_c, 0, 64, 83
1, 34987, Control_c, 0, 64, 81
1, 35001, Control_c, 0, 64, 78
1, 35016, Control_c, 0, 64, 72
1, 35019, Note_on_c, 0, 80, 66
1, 35024, Note_off_c, 0, 66, 36
1, 35031, Control_c, 0, 64, 65
1, 35040, Note_on_c, 0, 65, 41
1, 35046, Control_c, 0, 64, 56
1, 35061, Control_c, 0, 64, 51
1, 35082, Control_c, 0, 64, 48
1, 35088, Note_off_c, 0, 79, 55
1, 35112, Control_c, 0, 64, 49
1, 35127, Control_c, 0, 64, 53
1, 35142, Control_c, 0, 64, 57
1, 35156, Control_c, 0, 64, 60
1, 35171, Control_c, 0, 64, 63
1, 35186, Control_c, 0, 64, 65
1, 35201, Note_on_c, 0, 69, 43
1, 35201, Control_c, 0, 64, 68
1, 35216, Control_c, 0, 64, 70
1, 35231, Control_c, 0, 64, 72
1, 35243, Note_off_c, 0, 65, 47
1, 35246, Control_c, 0, 64, 73
1, 35261, Control_c, 0, 64, 75
1, 35275, Control_c, 0, 64, 76
1, 35290, Control_c, 0, 64, 77
1, 35305, Control_c, 0, 64, 78
1, 35320, Control_c, 0, 64, 78
1, 35329, Note_off_c, 0, 69, 36
1, 35335, Control_c, 0, 64, 79
1, 35347, Note_on_c, 0, 73, 34
1, 35349, Control_c, 0, 64, 79
1, 35379, Note_off_c, 0, 80, 65
1, 35394, Control_c, 0, 64, 80
1, 35395, Note_on_c, 0, 85, 71
1, 35436, Note_off_c, 0, 73, 59
1, 35461, Note_on_c, 0, 80, 78
1, 35484, Control_c, 0, 64, 80
1, 35490, Note_on_c, 0, 76, 47
1, 35493, Note_off_c, 0, 85, 58
1, 35559, Note_off_c, 0, 76, 47
1, 35639, Note_on_c, 0, 79, 47
1, 35689, Note_off_c, 0, 79, 52
1, 35755, Note_on_c, 0, 72, 51
1, 35777, Note_off_c, 0, 72, 60
1, 35905, Control_c, 0, 64, 80
1, 35920, Control_c, 0, 64, 79
1, 35935, Control_c, 0, 64, 77
1, 35942, Note_on_c, 0, 79, 69
1, 35949, Note_on_c, 0, 59, 54
1, 35950, Control_c, 0, 64, 73
1, 35965, Control_c, 0, 64, 66
1, 35979, Control_c, 0, 64, 57
1, 35994, Control_c, 0, 64, 49
1, 36009, Control_c, 0, 64, 44
1, 36011, Note_off_c, 0, 80, 56
1, 36024, Control_c, 0, 64, 41
1, 36053, Control_c, 0, 64, 43
1, 36068, Control_c, 0, 64, 47
1, 36083, Control_c, 0, 64, 53
1, 36097, Control_c, 0, 64, 58
1, 36112, Control_c, 0, 64, 61
1, 36127, Control_c, 0, 64, 63
1, 36137, Note_on_c, 0, 63, 46
1, 36142, Control_c, 0, 64, 65
1, 36157, Control_c, 0, 64, 67
1, 36171, Control_c, 0, 64, 68
1, 36182, Note_off_c, 0, 59, 33
1, 36186, Control_c, 0, 64, 70
1, 36201, Control_c, 0, 64, 72
1, 36216, Control_c, 0, 64, 73
1, 36230, Control_c, 0, 64, 74
1, 36247, Control_c, 0, 64, 75
1, 36262, Control_c, 0, 64, 75
1, 36276, Control_c, 0, 64, 76
1, 36291, Control_c, 0, 64, 76
1, 36295, Note_on_c, 0, 67, 45
1, 36304, Note_off_c, 0, 63, 35
1, 36306, Control_c, 0, 64, 77
1, 36350, Control_c, 0, 64, 77
1, 36384, Note_off_c, 0, 67, 58
1, 36409, Control_c, 0, 64, 78
1, 36438, Note_on_c, 0, 70, 41
1, 36514, Note_off_c, 0, 70, 47
1, 36593, Note_on_c, 0, 74, 30
1, 36665, Note_off_c, 0, 79, 61
1, 36676, Note_off_c, 0, 74, 32
1, 36689, Note_on_c, 0, 76, 60
1, 36704, Note_on_c, 0, 66, 42
1, 36713, Control_c, 0, 64, 77
1, 36736, Note_off_c, 0, 76, 53
1, 36757, Control_c, 0, 64, 77
1, 36770, Note_on_c, 0, 79, 63
1, 36772, Control_c, 0, 64, 76
1, 36787, Control_c, 0, 64, 74
1, 36801, Control_c, 0, 64, 69
1, 36816, Control_c, 0, 64, 62
1, 36828, Note_off_c, 0, 66, 59
1, 36831, Control_c, 0, 64, 54
1, 36838, Note_off_c, 0, 79, 61
1, 36845, Control_c, 0, 64, 46
1, 36852, Note_on_c, 0, 80, 57
1, 36860, Control_c, 0, 64, 37
1, 36871, Note_on_c, 0, 65, 41
1, 36875, Control_c, 0, 64, 31
1, 36919, Control_c, 0, 64, 35
1, 36934, Control_c, 0, 64, 43
1, 36949, Control_c, 0, 64, 51
1, 36964, Control_c, 0, 64, 59
1, 36979, Control_c, 0, 64, 62
1, 36993, Control_c, 0, 64, 65
1, 37008, Control_c, 0, 64, 66
1, 37023, Control_c, 0, 64, 68
1, 37027, Note_on_c, 0, 69, 39
1, 37038, Control_c, 0, 64, 70
1, 37054, Control_c, 0, 64, 72
1, 37066, Note_off_c, 0, 65, 36
1, 37069, Control_c, 0, 64, 74
1, 37084, Control_c, 0, 64, 75
1, 37098, Control_c, 0, 64, 77
1, 37113, Control_c, 0, 64, 78
1, 37114, Note_off_c, 0, 69, 60
1, 37128, Control_c, 0, 64, 80
1, 37142, Control_c, 0, 64, 81
1, 37155, Note_on_c, 0, 73, 44
1, 37157, Control_c, 0, 64, 82
1, 37172, Control_c, 0, 64, 83
1, 37187, Control_c, 0, 64, 84
1, 37202, Control_c, 0, 64, 85
1, 37216, Control_c, 0, 64, 85
1, 37231, Control_c, 0, 64, 86
1, 37246, Control_c, 0, 64, 86
1, 37250, Note_off_c, 0, 73, 60
1, 37276, Control_c, 0, 64, 87
1, 37306, Control_c, 0, 64, 87
1, 37307, Note_on_c, 0, 76, 40
1, 37333, Note_off_c, 0, 80, 59
1, 37377, Note_off_c, 0, 76, 56
1, 37453, Note_on_c, 0, 79, 43
1, 37521, Note_off_c, 0, 79, 48
1, 37572, Note_on_c, 0, 72, 47
1, 37596, Note_off_c, 0, 72, 58
1, 37609, Note_on_c, 0, 82, 72
1, 37714, Control_c, 0, 64, 87
1, 37729, Control_c, 0, 64, 86
1, 37743, Control_c, 0, 64, 85
1, 37758, Control_c, 0, 64, 82
1, 37773, Control_c, 0, 64, 77
1, 37774, Note_on_c, 0, 59, 43
1, 37774, Note_on_c, 0, 83, 71
1, 37788, Control_c, 0, 64, 70
1, 37803, Control_c, 0, 64, 63
1, 37813, Note_off_c, 0, 82, 62
1, 37817, Control_c, 0, 64, 53
1, 37832, Control_c, 0, 64, 48
1, 37848, Control_c, 0, 64, 45
1, 37878, Control_c, 0, 64, 47
1, 37892, Control_c, 0, 64, 51
1, 37907, Control_c, 0, 64, 57
1, 37922, Control_c, 0, 64, 61
1, 37937, Control_c, 0, 64, 64
1, 37944, Note_on_c, 0, 63, 50
1, 37952, Control_c, 0, 64, 67
1, 37966, Control_c, 0, 64, 69
1, 37979, Note_off_c, 0, 59, 37
1, 37981, Control_c, 0, 64, 71
1, 37996, Control_c, 0, 64, 72
1, 38011, Control_c, 0, 64, 74
1, 38026, Control_c, 0, 64, 75
1, 38040, Control_c, 0, 64, 76
1, 38047, Note_on_c, 0, 84, 81
1, 38055, Control_c, 0, 64, 77
1, 38078, Control_c, 0, 64, 78
1, 38081, Note_off_c, 0, 63, 55
1, 38093, Control_c, 0, 64, 79
1, 38095, Note_on_c, 0, 67, 49
1, 38099, Note_off_c, 0, 83, 53
1, 38107, Control_c, 0, 64, 80
1, 38122, Control_c, 0, 64, 80
1, 38137, Control_c, 0, 64, 81
1, 38152, Control_c, 0, 64, 81
1, 38181, Control_c, 0, 64, 82
1, 38187, Note_off_c, 0, 67, 61
1, 38225, Note_on_c, 0, 70, 47
1, 38241, Control_c, 0, 67, 113
1, 38254, Control_c, 0, 67, 101
1, 38269, Control_c, 0, 67, 90
1, 38284, Control_c, 0, 67, 83
1, 38298, Control_c, 0, 67, 80
1, 38307, Note_off_c, 0, 70, 40
1, 38331, Note_on_c, 0, 91, 87
1, 38358, Note_on_c, 0, 74, 48
1, 38358, Control_c, 0, 67, 81
1, 38371, Note_off_c, 0, 84, 62
1, 38373, Control_c, 0, 67, 82
1, 38388, Control_c, 0, 67, 83
1, 38403, Control_c, 0, 67, 84
1, 38418, Control_c, 0, 67, 85
1, 38419, Note_off_c, 0, 74, 42
1, 38433, Control_c, 0, 67, 86
1, 38447, Control_c, 0, 67, 86
1, 38459, Note_on_c, 0, 66, 57
1, 38462, Control_c, 0, 67, 87
1, 38477, Control_c, 0, 67, 88
1, 38491, Control_c, 0, 67, 88
1, 38506, Control_c, 0, 67, 89
1, 38536, Control_c, 0, 67, 90
1, 38551, Control_c, 0, 67, 91
1, 38565, Note_off_c, 0, 66, 60
1, 38580, Control_c, 0, 67, 92
1, 38590, Note_on_c, 0, 88, 82
1, 38595, Control_c, 0, 64, 80
1, 38599, Note_on_c, 0, 65, 49
1, 38609, Control_c, 0, 64, 74
1, 38609, Control_c, 0, 67, 92
1, 38624, Control_c, 0, 64, 63
1, 38641, Control_c, 0, 64, 54
1, 38641, Control_c, 0, 67, 93
1, 38656, Control_c, 0, 64, 50
1, 38670, Control_c, 0, 67, 94
1, 38685, Control_c, 0, 64, 53
1, 38689, Note_off_c, 0, 91, 50
1, 38700, Control_c, 0, 64, 57
1, 38700, Control_c, 0, 67, 94
1, 38714, Control_c, 0, 64, 61
1, 38714, Control_c, 0, 67, 95
1, 38729, Control_c, 0, 64, 64
1, 38729, Control_c, 0, 67, 96
1, 38737, Note_on_c, 0, 69, 46
1, 38744, Control_c, 0, 64, 66
1, 38750, Note_off_c, 0, 65, 38
1, 38759, Control_c, 0, 64, 68
1, 38774, Control_c, 0, 64, 70
1, 38788, Control_c, 0, 64, 71
1, 38788, Control_c, 0, 67, 98
1, 38803, Control_c, 0, 64, 72
1, 38820, Note_off_c, 0, 69, 54
1, 38826, Control_c, 0, 64, 73
1, 38841, Control_c, 0, 64, 74
1, 38841, Control_c, 0, 67, 100
1, 38856, Control_c, 0, 64, 75
1, 38868, Note_on_c, 0, 85, 80
1, 38870, Control_c, 0, 64, 76
1, 38870, Control_c, 0, 67, 102
1, 38880, Note_on_c, 0, 73, 41
1, 38885, Control_c, 0, 64, 77
1, 38900, Control_c, 0, 64, 77
1, 38900, Control_c, 0, 67, 105
1, 38915, Control_c, 0, 64, 78
1, 38915, Control_c, 0, 67, 107
1, 38929, Control_c, 0, 64, 79
1, 38929, Control_c, 0, 67, 109
1, 38944, Control_c, 0, 64, 79
1, 38944, Control_c, 0, 67, 112
1, 38956, Note_off_c, 0, 73, 61
1, 38959, Control_c, 0, 67, 115
1, 38974, Control_c, 0, 64, 80
1, 38974, Control_c, 0, 67, 119
1, 38987, Note_off_c, 0, 88, 28
1, 38989, Control_c, 0, 67, 126
1, 39004, Note_on_c, 0, 76, 52
1, 39018, Control_c, 0, 64, 80
1, 39094, Note_off_c, 0, 76, 57
1, 39121, Note_on_c, 0, 81, 80
1, 39151, Note_on_c, 0, 79, 53
1, 39160, Note_off_c, 0, 85, 63
1, 39207, Note_off_c, 0, 79, 52
1, 39270, Note_on_c, 0, 72, 55
1, 39290, Note_off_c, 0, 72, 60
1, 39374, Control_c, 0, 64, 80
1, 39403, Control_c, 0, 64, 78
1, 39418, Control_c, 0, 64, 74
1, 39421, Note_on_c, 0, 77, 74
1, 39434, Control_c, 0, 64, 67
1, 39449, Control_c, 0, 64, 57
1, 39452, Note_on_c, 0, 59, 38
1, 39463, Control_c, 0, 64, 50
1, 39477, Note_off_c, 0, 81, 57
1, 39478, Control_c, 0, 64, 47
1, 39508, Control_c, 0, 64, 48
1, 39523, Control_c, 0, 64, 52
1, 39537, Control_c, 0, 64, 57
1, 39552, Control_c, 0, 64, 60
1, 39574, Control_c, 0, 64, 63
1, 39589, Control_c, 0, 64, 65
1, 39593, Note_off_c, 0, 59, 44
1, 39604, Control_c, 0, 64, 66
1, 39613, Note_on_c, 0, 63, 41
1, 39619, Control_c, 0, 64, 68
1, 39634, Control_c, 0, 64, 69
1, 39649, Control_c, 0, 64, 70
1, 39663, Control_c, 0, 64, 71
1, 39678, Control_c, 0, 64, 71
1, 39693, Control_c, 0, 64, 72
1, 39723, Control_c, 0, 64, 72
1, 39745, Note_off_c, 0, 63, 60
1, 39767, Control_c, 0, 64, 73
1, 39769, Note_on_c, 0, 78, 71
1, 39777, Note_on_c, 0, 67, 47
1, 39835, Note_off_c, 0, 77, 51
1, 39864, Note_off_c, 0, 67, 61
1, 39905, Note_on_c, 0, 70, 46
1, 39971, Note_off_c, 0, 70, 51
1, 40018, Note_on_c, 0, 86, 76
1, 40039, Note_on_c, 0, 74, 41
1, 40057, Note_off_c, 0, 78, 59
1, 40089, Note_off_c, 0, 74, 42
1, 40142, Note_on_c, 0, 66, 47
1, 40237, Note_off_c, 0, 66, 60
1, 40257, Control_c, 0, 64, 72
1, 40267, Note_on_c, 0, 82, 69
1, 40272, Control_c, 0, 64, 68
1, 40286, Control_c, 0, 64, 62
1, 40290, Note_on_c, 0, 65, 45
1, 40301, Control_c, 0, 64, 53
1, 40323, Control_c, 0, 64, 46
1, 40338, Control_c, 0, 64, 41
1, 40364, Note_off_c, 0, 86, 57
1, 40367, Control_c, 0, 64, 44
1, 40382, Control_c, 0, 64, 50
1, 40397, Control_c, 0, 64, 56
1, 40398, Note_off_c, 0, 65, 57
1, 40412, Control_c, 0, 64, 60
1, 40427, Note_on_c, 0, 69, 45
1, 40427, Control_c, 0, 64, 63
1, 40442, Control_c, 0, 64, 64
1, 40457, Control_c, 0, 64, 66
1, 40471, Control_c, 0, 64, 67
1, 40486, Control_c, 0, 64, 69
1, 40501, Control_c, 0, 64, 70
1, 40516, Control_c, 0, 64, 71
1, 40520, Note_off_c, 0, 69, 38
1, 40531, Control_c, 0, 64, 72
1, 40546, Control_c, 0, 64, 73
1, 40551, Note_on_c, 0, 79, 61
1, 40561, Control_c, 0, 64, 74
1, 40569, Note_on_c, 0, 73, 44
1, 40576, Control_c, 0, 64, 75
1, 40577, Note_off_c, 0, 82, 54
1, 40591, Control_c, 0, 64, 76
1, 40606, Control_c, 0, 64, 77
1, 40620, Control_c, 0, 64, 78
1, 40635, Control_c, 0, 64, 78
1, 40645, Note_off_c, 0, 73, 59
1, 40650, Control_c, 0, 64, 79
1, 40665, Control_c, 0, 64, 80
1, 40680, Control_c, 0, 64, 80
1, 40698, Note_on_c, 0, 76, 45
1, 40709, Control_c, 0, 64, 81
1, 40738, Note_off_c, 0, 76, 53
1, 40754, Control_c, 0, 64, 81
1, 40829, Note_on_c, 0, 75, 66
1, 40910, Note_off_c, 0, 79, 58
1, 40975, Note_on_c, 0, 72, 53
1, 41044, Note_off_c, 0, 72, 48
1, 41086, Note_off_c, 0, 75, 57
1, 41132, Control_c, 0, 64, 81
1, 41144, Note_on_c, 0, 71, 49
1, 41206, Control_c, 0, 67, 120
1, 41221, Control_c, 0, 67, 111
1, 41236, Control_c, 0, 67, 98
1, 41249, Note_off_c, 0, 71, 50
1, 41251, Control_c, 0, 64, 80
1, 41251, Control_c, 0, 67, 86
1, 41265, Control_c, 0, 67, 75
1, 41280, Control_c, 0, 67, 66
1, 41295, Note_on_c, 0, 72, 55
1, 41295, Control_c, 0, 64, 80
1, 41295, Control_c, 0, 67, 56
1, 41309, Control_c, 0, 67, 49
1, 41324, Control_c, 0, 64, 79
1, 41324, Control_c, 0, 67, 41
1, 41339, Control_c, 0, 64, 79
1, 41339, Control_c, 0, 67, 0
1, 41369, Control_c, 0, 64, 78
1, 41384, Note_off_c, 0, 72, 54
1, 41384, Control_c, 0, 64, 78
1, 41399, Control_c, 0, 64, 77
1, 41413, Control_c, 0, 64, 77
1, 41422, Note_on_c, 0, 79, 52
1, 41428, Control_c, 0, 64, 76
1, 41458, Control_c, 0, 64, 76
1, 41473, Control_c, 0, 64, 75
1, 41503, Control_c, 0, 64, 75
1, 41517, Control_c, 0, 64, 74
1, 41527, Note_off_c, 0, 79, 56
1, 41532, Control_c, 0, 64, 74
1, 41547, Note_on_c, 0, 55, 66
1, 41547, Control_c, 0, 64, 72
1, 41560, Note_on_c, 0, 76, 56
1, 41562, Control_c, 0, 64, 68
1, 41577, Control_c, 0, 64, 63
1, 41591, Control_c, 0, 64, 56
1, 41606, Control_c, 0, 64, 54
1, 41635, Control_c, 0, 64, 55
1, 41650, Control_c, 0, 64, 57
1, 41665, Control_c, 0, 64, 58
1, 41680, Control_c, 0, 64, 60
1, 41688, Note_off_c, 0, 76, 55
1, 41695, Control_c, 0, 64, 61
1, 41705, Note_on_c, 0, 73, 50
1, 41709, Control_c, 0, 64, 62
1, 41724, Control_c, 0, 64, 63
1, 41739, Control_c, 0, 64, 64
1, 41754, Control_c, 0, 64, 64
1, 41769, Control_c, 0, 64, 65
1, 41798, Control_c, 0, 64, 65
1, 41821, Control_c, 0, 64, 66
1, 41837, Note_off_c, 0, 73, 52
1, 41837, Control_c, 0, 64, 66
1, 41852, Note_on_c, 0, 69, 58
1, 41896, Control_c, 0, 64, 67
1, 41970, Control_c, 0, 64, 66
1, 41979, Note_off_c, 0, 69, 62
1, 41985, Control_c, 0, 64, 65
1, 42000, Note_on_c, 0, 56, 75
1, 42000, Control_c, 0, 64, 62
1, 42010, Note_on_c, 0, 65, 49
1, 42014, Control_c, 0, 64, 56
1, 42029, Note_off_c, 0, 55, 61
1, 42029, Control_c, 0, 64, 49
1, 42044, Control_c, 0, 64, 35
1, 42058, Control_c, 0, 64, 0
1, 42162, Control_c, 0, 64, 43
1, 42174, Note_off_c, 0, 65, 53
1, 42177, Control_c, 0, 64, 57
1, 42179, Note_on_c, 0, 66, 56
1, 42192, Control_c, 0, 64, 62
1, 42206, Control_c, 0, 64, 64
1, 42221, Control_c, 0, 64, 64
1, 42236, Control_c, 0, 64, 65
1, 42251, Control_c, 0, 64, 66
1, 42266, Control_c, 0, 64, 66
1, 42281, Control_c, 0, 64, 67
1, 42320, Note_off_c, 0, 66, 56
1, 42326, Control_c, 0, 64, 67
1, 42333, Note_on_c, 0, 74, 52
1, 42391, Note_on_c, 0, 61, 60
1, 42394, Note_off_c, 0, 56, 62
1, 42491, Note_on_c, 0, 56, 68
1, 42518, Control_c, 0, 64, 65
1, 42526, Note_on_c, 0, 70, 51
1, 42532, Control_c, 0, 64, 60
1, 42539, Note_off_c, 0, 61, 48
1, 42547, Control_c, 0, 64, 47
1, 42570, Control_c, 0, 64, 0
1, 42593, Note_off_c, 0, 74, 43
1, 42674, Control_c, 0, 64, 30
1, 42689, Control_c, 0, 64, 42
1, 42704, Control_c, 0, 64, 50
1, 42719, Control_c, 0, 64, 58
1, 42725, Note_on_c, 0, 67, 49
1, 42734, Control_c, 0, 64, 61
1, 42748, Control_c, 0, 64, 62
1, 42762, Control_c, 0, 64, 63
1, 42777, Control_c, 0, 64, 64
1, 42792, Control_c, 0, 64, 66
1, 42794, Note_off_c, 0, 70, 36
1, 42807, Control_c, 0, 64, 67
1, 42822, Control_c, 0, 64, 68
1, 42836, Control_c, 0, 64, 69
1, 42851, Control_c, 0, 64, 71
1, 42866, Control_c, 0, 64, 72
1, 42881, Control_c, 0, 64, 73
1, 42895, Control_c, 0, 64, 74
1, 42910, Control_c, 0, 64, 75
1, 42925, Control_c, 0, 64, 75
1, 42940, Note_off_c, 0, 67, 48
1, 42940, Control_c, 0, 64, 76
1, 42941, Note_on_c, 0, 63, 51
1, 42955, Control_c, 0, 64, 76
1, 42969, Control_c, 0, 64, 77
1, 42999, Control_c, 0, 64, 77
1, 43070, Note_off_c, 0, 63, 56
1, 43236, Control_c, 0, 64, 77
1, 43251, Note_on_c, 0, 55, 53
1, 43251, Control_c, 0, 64, 75
1, 43266, Control_c, 0, 64, 70
1, 43280, Control_c, 0, 64, 61
1, 43295, Control_c, 0, 64, 46
1, 43318, Control_c, 0, 64, 0
1, 43345, Note_off_c, 0, 56, 57
1, 43362, Control_c, 0, 66, 127
1, 43497, Control_c, 0, 64, 32
1, 43512, Control_c, 0, 64, 44
1, 43527, Control_c, 0, 64, 56
1, 43542, Control_c, 0, 64, 60
1, 43557, Control_c, 0, 64, 63
1, 43572, Control_c, 0, 64, 64
1, 43575, Note_on_c, 0, 63, 52
1, 43586, Control_c, 0, 64, 66
1, 43598, Note_on_c, 0, 60, 20
1, 43601, Control_c, 0, 64, 68
1, 43616, Control_c, 0, 64, 70
1, 43631, Control_c, 0, 64, 72
1, 43633, Note_off_c, 0, 55, 54
1, 43645, Control_c, 0, 64, 73
1, 43660, Control_c, 0, 64, 75
1, 43675, Control_c, 0, 64, 76
1, 43690, Control_c, 0, 64, 78
1, 43705, Control_c, 0, 64, 79
1, 43719, Control_c, 0, 64, 80
1, 43734, Control_c, 0, 64, 81
1, 43749, Control_c, 0, 64, 82
1, 43764, Control_c, 0, 64, 83
1, 43778, Control_c, 0, 64, 83
1, 43793, Control_c, 0, 64, 84
1, 43808, Control_c, 0, 64, 84
1, 43941, Note_on_c, 0, 36, 39
1, 43941, Note_on_c, 0, 68, 56
1, 43941, Control_c, 0, 64, 84
1, 43950, Note_on_c, 0, 43, 35
1, 43956, Control_c, 0, 64, 82
1, 43971, Control_c, 0, 64, 75
1, 43972, Note_on_c, 0, 65, 28
1, 43984, Note_off_c, 0, 60, 42
1, 43986, Control_c, 0, 64, 66
1, 44001, Control_c, 0, 64, 53
1, 44016, Control_c, 0, 64, 35
1, 44022, Note_off_c, 0, 63, 48
1, 44030, Control_c, 0, 64, 0
1, 44097, Control_c, 0, 64, 40
1, 44111, Control_c, 0, 64, 53
1, 44126, Control_c, 0, 64, 62
1, 44141, Control_c, 0, 64, 67
1, 44156, Control_c, 0, 64, 70
1, 44165, Note_off_c, 0, 65, 57
1, 44171, Control_c, 0, 64, 73
1, 44186, Control_c, 0, 64, 76
1, 44186, Note_off_c, 0, 68, 62
1, 44201, Control_c, 0, 64, 80
1, 44215, Control_c, 0, 64, 83
1, 44231, Control_c, 0, 64, 86
1, 44239, Note_off_c, 0, 36, 41
1, 44246, Control_c, 0, 64, 89
1, 44260, Control_c, 0, 64, 92
1, 44275, Control_c, 0, 64, 94
1, 44284, Note_off_c, 0, 43, 49
1, 44290, Control_c, 0, 64, 95
1, 44335, Control_c, 0, 64, 97
1, 44379, Control_c, 0, 64, 99
1, 44391, Note_on_c, 0, 74, 61
1, 44418, Note_on_c, 0, 70, 38
1, 44466, Note_off_c, 0, 70, 46
1, 44497, Note_on_c, 0, 67, 60
1, 44726, Note_on_c, 0, 53, 70
1, 44992, Note_on_c, 0, 58, 74
1, 45028, Note_off_c, 0, 53, 61
1, 45149, Note_off_c, 0, 58, 62
1, 45205, Note_off_c, 0, 67, 55
1, 45262, Control_c, 0, 66, 0
1, 45330, Note_off_c, 0, 74, 60
1, 45371, Note_on_c, 0, 63, 72
1, 45395, Control_c, 0, 64, 97
1, 45409, Control_c, 0, 64, 85
1, 45424, Control_c, 0, 64, 70
1, 45439, Control_c, 0, 64, 55
1, 45454, Control_c, 0, 64, 42
1, 45465, Note_off_c, 0, 63, 60
1, 45469, Control_c, 0, 64, 42
1, 45471, Note_on_c, 0, 56, 64
1, 45483, Control_c, 0, 64, 50
1, 45493, Note_on_c, 0, 48, 57
1, 45498, Control_c, 0, 64, 60
1, 45513, Control_c, 0, 64, 66
1, 45528, Control_c, 0, 64, 72
1, 45543, Control_c, 0, 64, 76
1, 45565, Control_c, 0, 64, 79
1, 45580, Control_c, 0, 64, 83
1, 45595, Control_c, 0, 64, 85
1, 45609, Control_c, 0, 64, 88
1, 45624, Control_c, 0, 64, 91
1, 45628, Note_off_c, 0, 56, 62
1, 45639, Control_c, 0, 64, 93
1, 45654, Control_c, 0, 64, 94
1, 45664, Note_off_c, 0, 48, 62
1, 45669, Control_c, 0, 64, 95
1, 45683, Control_c, 0, 64, 96
1, 45717, Note_on_c, 0, 72, 70
1, 45724, Note_on_c, 0, 63, 60
1, 45743, Control_c, 0, 64, 98
1, 45757, Note_off_c, 0, 63, 55
1, 45892, Control_c, 0, 64, 100
1, 46047, Note_on_c, 0, 77, 67
1, 46052, Note_on_c, 0, 24, 51
1, 46055, Control_c, 0, 64, 94
1, 46055, Note_on_c, 0, 36, 35
1, 46070, Control_c, 0, 64, 81
1, 46070, Note_on_c, 0, 68, 36
1, 46084, Control_c, 0, 64, 64
1, 46099, Control_c, 0, 64, 46
1, 46114, Control_c, 0, 64, 34
1, 46128, Note_off_c, 0, 72, 55
1, 46144, Control_c, 0, 64, 40
1, 46159, Control_c, 0, 64, 52
1, 46173, Control_c, 0, 64, 62
1, 46188, Control_c, 0, 64, 67
1, 46195, Note_off_c, 0, 24, 52
1, 46203, Control_c, 0, 64, 71
1, 46218, Control_c, 0, 64, 75
1, 46232, Control_c, 0, 64, 78
1, 46247, Control_c, 0, 64, 81
1, 46262, Control_c, 0, 64, 85
1, 46275, Note_off_c, 0, 77, 63
1, 46277, Control_c, 0, 64, 90
1, 46292, Note_off_c, 0, 36, 39
1, 46292, Control_c, 0, 64, 95
1, 46314, Control_c, 0, 64, 100
1, 46329, Control_c, 0, 64, 105
1, 46344, Control_c, 0, 64, 110
1, 46359, Control_c, 0, 64, 115
1, 46374, Control_c, 0, 64, 122
1, 46388, Control_c, 0, 64, 127
1, 46556, Note_on_c, 0, 82, 59
1, 46582, Note_on_c, 0, 74, 48
1, 46585, Note_off_c, 0, 68, 39
1, 46614, Note_off_c, 0, 82, 61
1, 46636, Note_off_c, 0, 74, 57
1, 46685, Note_on_c, 0, 67, 61
1, 46895, Note_on_c, 0, 60, 68
1, 46910, Note_off_c, 0, 67, 45
1, 47152, Note_on_c, 0, 65, 72
1, 47251, Note_off_c, 0, 60, 61
1, 47559, Note_on_c, 0, 70, 75
1, 47585, Note_off_c, 0, 65, 58
1, 47760, Control_c, 0, 64, 91
1, 47769, Note_on_c, 0, 63, 77
1, 47773, Note_off_c, 0, 70, 61
1, 47775, Control_c, 0, 64, 68
1, 47790, Control_c, 0, 64, 48
1, 47811, Control_c, 0, 64, 0
1, 47871, Control_c, 0, 64, 31
1, 47885, Control_c, 0, 64, 46
1, 47900, Control_c, 0, 64, 58
1, 47915, Control_c, 0, 64, 64
1, 47930, Control_c, 0, 64, 66
1, 47945, Control_c, 0, 64, 68
1, 47959, Note_on_c, 0, 59, 48
1, 47959, Control_c, 0, 64, 70
1, 47974, Control_c, 0, 64, 73
1, 47989, Control_c, 0, 64, 76
1, 48004, Control_c, 0, 64, 79
1, 48019, Control_c, 0, 64, 82
1, 48034, Control_c, 0, 64, 84
1, 48049, Control_c, 0, 64, 86
1, 48058, Note_off_c, 0, 63, 58
1, 48064, Control_c, 0, 64, 87
1, 48078, Control_c, 0, 64, 88
1, 48080, Note_off_c, 0, 59, 52
1, 48093, Control_c, 0, 64, 89
1, 48108, Control_c, 0, 64, 89
1, 48117, Note_on_c, 0, 67, 36
1, 48123, Control_c, 0, 64, 90
1, 48138, Control_c, 0, 64, 91
1, 48159, Note_off_c, 0, 67, 49
1, 48167, Control_c, 0, 64, 91
1, 48182, Control_c, 0, 64, 92
1, 48222, Note_on_c, 0, 79, 70
1, 48242, Control_c, 0, 64, 92
1, 48258, Note_on_c, 0, 70, 41
1, 48346, Note_off_c, 0, 70, 56
1, 48379, Note_on_c, 0, 74, 63
1, 48449, Control_c, 0, 67, 43
1, 48453, Note_off_c, 0, 74, 53
1, 48464, Control_c, 0, 67, 67
1, 48479, Control_c, 0, 67, 88
1, 48494, Control_c, 0, 67, 107
1, 48499, Note_on_c, 0, 66, 65
1, 48508, Control_c, 0, 67, 119
1, 48523, Control_c, 0, 67, 126
1, 48605, Control_c, 0, 64, 92
1, 48620, Control_c, 0, 64, 91
1, 48625, Note_off_c, 0, 66, 63
1, 48634, Control_c, 0, 64, 82
1, 48648, Note_on_c, 0, 80, 77
1, 48649, Control_c, 0, 64, 69
1, 48664, Control_c, 0, 64, 55
1, 48664, Control_c, 0, 67, 124
1, 48666, Note_on_c, 0, 65, 50
1, 48679, Control_c, 0, 64, 35
1, 48694, Control_c, 0, 64, 0
1, 48694, Control_c, 0, 67, 122
1, 48698, Note_off_c, 0, 79, 59
1, 48723, Control_c, 0, 64, 36
1, 48738, Control_c, 0, 64, 50
1, 48752, Control_c, 0, 64, 60
1, 48767, Control_c, 0, 64, 65
1, 48782, Control_c, 0, 64, 68
1, 48797, Control_c, 0, 64, 70
1, 48798, Note_on_c, 0, 69, 58
1, 48812, Control_c, 0, 64, 72
1, 48827, Control_c, 0, 64, 73
1, 48832, Note_off_c, 0, 65, 37
1, 48842, Control_c, 0, 64, 75
1, 48857, Control_c, 0, 64, 76
1, 48872, Control_c, 0, 64, 78
1, 48884, Note_off_c, 0, 69, 58
1, 48887, Control_c, 0, 64, 79
1, 48901, Control_c, 0, 64, 80
1, 48916, Control_c, 0, 64, 80
1, 48931, Control_c, 0, 64, 81
1, 48937, Note_on_c, 0, 73, 45
1, 48960, Control_c, 0, 64, 81
1, 48990, Control_c, 0, 64, 82
1, 49002, Note_off_c, 0, 80, 63
1, 49008, Note_on_c, 0, 85, 74
1, 49036, Note_off_c, 0, 73, 56
1, 49071, Note_on_c, 0, 80, 77
1, 49080, Note_on_c, 0, 76, 49
1, 49093, Note_off_c, 0, 85, 60
1, 49110, Control_c, 0, 67, 120
1, 49169, Control_c, 0, 64, 82
1, 49170, Note_off_c, 0, 76, 57
1, 49229, Note_on_c, 0, 79, 40
1, 49302, Note_off_c, 0, 79, 55
1, 49352, Note_on_c, 0, 72, 56
1, 49372, Note_off_c, 0, 72, 60
1, 49531, Control_c, 0, 64, 81
1, 49545, Note_on_c, 0, 51, 49
1, 49546, Control_c, 0, 64, 76
1, 49555, Note_on_c, 0, 79, 66
1, 49561, Control_c, 0, 64, 68
1, 49575, Control_c, 0, 64, 57
1, 49583, Note_off_c, 0, 80, 59
1, 49590, Control_c, 0, 64, 43
1, 49590, Control_c, 0, 67, 118
1, 49605, Control_c, 0, 64, 34
1, 49620, Control_c, 0, 64, 33
1, 49635, Control_c, 0, 64, 35
1, 49650, Control_c, 0, 64, 43
1, 49665, Control_c, 0, 64, 52
1, 49679, Control_c, 0, 64, 60
1, 49679, Control_c, 0, 67, 116
1, 49694, Control_c, 0, 64, 64
1, 49709, Control_c, 0, 64, 66
1, 49715, Note_on_c, 0, 55, 38
1, 49724, Control_c, 0, 64, 68
1, 49739, Control_c, 0, 64, 69
1, 49754, Control_c, 0, 64, 71
1, 49768, Control_c, 0, 64, 73
1, 49769, Note_off_c, 0, 51, 56
1, 49783, Control_c, 0, 64, 74
1, 49798, Control_c, 0, 64, 75
1, 49813, Control_c, 0, 64, 76
1, 49828, Control_c, 0, 64, 78
1, 49843, Control_c, 0, 64, 79
1, 49858, Control_c, 0, 64, 80
1, 49873, Control_c, 0, 64, 81
1, 49873, Note_on_c, 0, 59, 57
1, 49888, Control_c, 0, 64, 82
1, 49903, Control_c, 0, 64, 83
1, 49918, Control_c, 0, 64, 84
1, 49924, Note_off_c, 0, 55, 32
1, 49933, Control_c, 0, 64, 85
1, 49947, Control_c, 0, 64, 86
1, 49962, Control_c, 0, 64, 87
1, 49977, Control_c, 0, 64, 89
1, 49992, Control_c, 0, 64, 90
1, 50002, Note_on_c, 0, 62, 66
1, 50006, Control_c, 0, 64, 92
1, 50021, Control_c, 0, 64, 94
1, 50036, Control_c, 0, 64, 96
1, 50037, Note_off_c, 0, 59, 52
1, 50073, Control_c, 0, 64, 98
1, 50088, Control_c, 0, 67, 114
1, 50118, Control_c, 0, 67, 112
1, 50139, Note_on_c, 0, 66, 73
1, 50142, Note_off_c, 0, 62, 61
1, 50162, Control_c, 0, 67, 109
1, 50192, Control_c, 0, 67, 106
1, 50241, Note_on_c, 0, 76, 75
1, 50243, Note_off_c, 0, 66, 61
1, 50262, Note_off_c, 0, 79, 60
1, 50264, Note_on_c, 0, 58, 68
1, 50308, Note_off_c, 0, 76, 58
1, 50310, Note_on_c, 0, 85, 81
1, 50339, Control_c, 0, 67, 108
1, 50368, Control_c, 0, 64, 92
1, 50368, Control_c, 0, 67, 110
1, 50383, Note_off_c, 0, 85, 66
1, 50383, Control_c, 0, 64, 78
1, 50398, Control_c, 0, 64, 60
1, 50413, Control_c, 0, 64, 0
1, 50413, Control_c, 0, 67, 113
1, 50416, Note_on_c, 0, 84, 73
1, 50446, Note_on_c, 0, 57, 52
1, 50450, Note_off_c, 0, 58, 56
1, 50472, Control_c, 0, 67, 115
1, 50502, Control_c, 0, 67, 117
1, 50517, Control_c, 0, 64, 32
1, 50532, Control_c, 0, 64, 48
1, 50546, Control_c, 0, 64, 58
1, 50561, Control_c, 0, 64, 61
1, 50576, Control_c, 0, 64, 62
1, 50581, Note_off_c, 0, 57, 63
1, 50590, Control_c, 0, 64, 64
1, 50590, Control_c, 0, 67, 119
1, 50595, Note_on_c, 0, 61, 62
1, 50605, Control_c, 0, 64, 66
1, 50621, Control_c, 0, 64, 66
1, 50710, Control_c, 0, 64, 68
1, 50722, Note_off_c, 0, 84, 64
1, 50723, Note_off_c, 0, 61, 63
1, 50725, Control_c, 0, 64, 69
1, 50727, Note_on_c, 0, 65, 59
1, 50740, Control_c, 0, 64, 70
1, 50784, Control_c, 0, 64, 70
1, 50784, Control_c, 0, 67, 117
1, 50821, Control_c, 0, 64, 71
1, 50834, Note_off_c, 0, 65, 61
1, 50836, Control_c, 0, 64, 71
1, 50848, Note_on_c, 0, 68, 74
1, 50881, Control_c, 0, 64, 71
1, 50881, Control_c, 0, 67, 119
1, 50896, Control_c, 0, 64, 68
1, 50910, Control_c, 0, 64, 62
1, 50925, Control_c, 0, 64, 56
1, 50940, Control_c, 0, 64, 56
1, 50955, Control_c, 0, 64, 57
1, 50965, Note_off_c, 0, 68, 60
1, 50970, Control_c, 0, 64, 59
1, 50982, Note_on_c, 0, 83, 70
1, 50984, Control_c, 0, 64, 62
1, 50985, Note_on_c, 0, 72, 61
1, 50999, Control_c, 0, 64, 64
1, 50999, Control_c, 0, 67, 121
1, 51014, Control_c, 0, 64, 65
1, 51028, Control_c, 0, 64, 66
1, 51034, Note_off_c, 0, 83, 61
1, 51044, Note_on_c, 0, 84, 60
1, 51074, Note_off_c, 0, 84, 61
1, 51083, Note_off_c, 0, 72, 51
1, 51088, Control_c, 0, 64, 64
1, 51101, Note_on_c, 0, 87, 72
1, 51101, Note_on_c, 0, 64, 56
1, 51102, Control_c, 0, 64, 59
1, 51117, Control_c, 0, 64, 50
1, 51132, Control_c, 0, 64, 41
1, 51146, Control_c, 0, 64, 39
1, 51152, Note_off_c, 0, 87, 64
1, 51161, Control_c, 0, 64, 42
1, 51176, Note_on_c, 0, 92, 74
1, 51176, Control_c, 0, 64, 49
1, 51191, Control_c, 0, 64, 56
1, 51206, Control_c, 0, 64, 61
1, 51221, Control_c, 0, 64, 62
1, 51225, Note_off_c, 0, 64, 61
1, 51235, Note_off_c, 0, 92, 63
1, 51235, Control_c, 0, 64, 63
1, 51241, Note_on_c, 0, 91, 72
1, 51246, Note_on_c, 0, 63, 58
1, 51250, Control_c, 0, 64, 64
1, 51295, Control_c, 0, 64, 64
1, 51307, Note_on_c, 0, 89, 63
1, 51309, Note_off_c, 0, 91, 67
1, 51353, Note_on_c, 0, 90, 71
1, 51354, Control_c, 0, 64, 65
1, 51373, Note_off_c, 0, 89, 57
1, 51384, Control_c, 0, 64, 64
1, 51389, Note_on_c, 0, 67, 59
1, 51390, Note_off_c, 0, 63, 59
1, 51399, Control_c, 0, 64, 64
1, 51414, Control_c, 0, 64, 62
1, 51426, Note_on_c, 0, 86, 75
1, 51429, Control_c, 0, 64, 60
1, 51429, Control_c, 0, 67, 119
1, 51431, Note_off_c, 0, 90, 63
1, 51444, Control_c, 0, 64, 56
1, 51459, Control_c, 0, 64, 54
1, 51474, Control_c, 0, 64, 53
1, 51485, Note_on_c, 0, 87, 75
1, 51489, Control_c, 0, 64, 51
1, 51489, Control_c, 0, 67, 117
1, 51496, Note_off_c, 0, 86, 62
1, 51502, Note_off_c, 0, 67, 62
1, 51504, Control_c, 0, 64, 51
1, 51512, Note_on_c, 0, 71, 60
1, 51518, Control_c, 0, 64, 50
1, 51533, Control_c, 0, 64, 49
1, 51555, Control_c, 0, 64, 48
1, 51558, Note_on_c, 0, 88, 69
1, 51568, Note_off_c, 0, 87, 63
1, 51569, Control_c, 0, 64, 47
1, 51584, Control_c, 0, 64, 47
1, 51599, Control_c, 0, 64, 46
1, 51606, Note_on_c, 0, 89, 63
1, 51614, Control_c, 0, 64, 45
1, 51624, Note_off_c, 0, 71, 61
1, 51629, Note_off_c, 0, 88, 56
1, 51629, Control_c, 0, 64, 44
1, 51644, Control_c, 0, 64, 44
1, 51652, Note_on_c, 0, 74, 47
1, 51659, Control_c, 0, 64, 43
1, 51674, Control_c, 0, 64, 43
1, 51689, Control_c, 0, 64, 42
1, 51690, Note_off_c, 0, 89, 60
1, 51692, Note_on_c, 0, 87, 61
1, 51733, Control_c, 0, 64, 43
1, 51748, Note_off_c, 0, 74, 59
1, 51748, Control_c, 0, 64, 44
1, 51749, Note_on_c, 0, 88, 63
1, 51751, Note_off_c, 0, 87, 62
1, 51763, Control_c, 0, 64, 47
1, 51772, Note_on_c, 0, 78, 49
1, 51777, Control_c, 0, 64, 51
1, 51792, Control_c, 0, 64, 56
1, 51795, Note_off_c, 0, 88, 60
1, 51807, Control_c, 0, 64, 58
1, 51817, Note_on_c, 0, 84, 61
1, 51822, Control_c, 0, 64, 59
1, 51835, Note_off_c, 0, 78, 48
1, 51837, Control_c, 0, 64, 60
1, 51851, Control_c, 0, 64, 61
1, 51858, Note_off_c, 0, 84, 61
1, 51866, Control_c, 0, 64, 62
1, 51874, Note_on_c, 0, 70, 59
1, 51879, Note_on_c, 0, 85, 73
1, 51881, Control_c, 0, 64, 63
1, 51896, Control_c, 0, 67, 115
1, 51909, Note_off_c, 0, 85, 64
1, 51911, Control_c, 0, 64, 63
1, 51945, Note_on_c, 0, 86, 76
1, 51955, Control_c, 0, 64, 63
1, 51969, Control_c, 0, 64, 62
1, 51979, Note_off_c, 0, 70, 60
1, 51984, Control_c, 0, 64, 61
1, 51994, Note_off_c, 0, 86, 64
1, 51999, Control_c, 0, 64, 59
1, 52009, Note_on_c, 0, 94, 84
1, 52011, Note_on_c, 0, 69, 63
1, 52014, Control_c, 0, 64, 58
1, 52029, Control_c, 0, 64, 58
1, 52029, Control_c, 0, 67, 117
1, 52043, Control_c, 0, 64, 57
1, 52066, Note_off_c, 0, 94, 66
1, 52069, Note_on_c, 0, 92, 84
1, 52073, Control_c, 0, 64, 57
1, 52103, Control_c, 0, 67, 119
1, 52132, Note_on_c, 0, 93, 85
1, 52133, Control_c, 0, 67, 121
1, 52140, Note_off_c, 0, 92, 67
1, 52148, Note_on_c, 0, 73, 62
1, 52148, Control_c, 0, 64, 57
1, 52185, Note_on_c, 0, 89, 78
1, 52186, Note_off_c, 0, 69, 36
1, 52196, Note_off_c, 0, 93, 63
1, 52207, Control_c, 0, 67, 123
1, 52251, Note_on_c, 0, 90, 79
1, 52252, Control_c, 0, 67, 126
1, 52258, Note_off_c, 0, 89, 62
1, 52267, Note_on_c, 0, 77, 59
1, 52269, Note_off_c, 0, 73, 52
1, 52319, Control_c, 0, 64, 57
1, 52326, Note_on_c, 0, 91, 75
1, 52342, Note_off_c, 0, 90, 61
1, 52363, Control_c, 0, 64, 56
1, 52374, Note_on_c, 0, 92, 73
1, 52376, Note_off_c, 0, 77, 63
1, 52378, Control_c, 0, 64, 55
1, 52383, Note_off_c, 0, 91, 62
1, 52392, Control_c, 0, 64, 55
1, 52401, Note_on_c, 0, 80, 55
1, 52407, Control_c, 0, 64, 54
1, 52437, Control_c, 0, 64, 55
1, 52443, Note_off_c, 0, 92, 65
1, 52452, Note_on_c, 0, 90, 65
1, 52452, Control_c, 0, 64, 57
1, 52467, Control_c, 0, 64, 59
1, 52482, Control_c, 0, 64, 62
1, 52486, Note_off_c, 0, 80, 63
1, 52496, Control_c, 0, 64, 64
1, 52508, Note_on_c, 0, 91, 56
1, 52511, Control_c, 0, 64, 65
1, 52521, Note_on_c, 0, 84, 59
1, 52526, Control_c, 0, 64, 66
1, 52535, Note_off_c, 0, 91, 53
1, 52541, Control_c, 0, 64, 67
1, 52556, Control_c, 0, 64, 67
1, 52558, Note_off_c, 0, 84, 58
1, 52558, Note_off_c, 0, 90, 37
1, 52570, Note_on_c, 0, 87, 69
1, 52571, Control_c, 0, 64, 68
1, 52586, Control_c, 0, 64, 68
1, 52600, Control_c, 0, 64, 69
1, 52625, Note_off_c, 0, 87, 63
1, 52630, Control_c, 0, 64, 69
1, 52634, Note_on_c, 0, 88, 67
1, 52642, Note_on_c, 0, 76, 66
1, 52667, Note_on_c, 0, 90, 63
1, 52667, Note_off_c, 0, 76, 69
1, 52684, Note_off_c, 0, 90, 64
1, 52696, Note_on_c, 0, 89, 60
1, 52696, Note_off_c, 0, 88, 66
1, 52704, Control_c, 0, 64, 69
1, 52717, Note_off_c, 0, 89, 64
1, 52719, Control_c, 0, 64, 68
1, 52734, Control_c, 0, 64, 68
1, 52748, Control_c, 0, 64, 67
1, 52749, Note_on_c, 0, 78, 80
1, 52765, Note_on_c, 0, 75, 66
1, 52778, Control_c, 0, 64, 66
1, 52792, Control_c, 0, 64, 66
1, 52803, Note_off_c, 0, 75, 62
1, 52807, Control_c, 0, 64, 65
1, 52815, Note_on_c, 0, 73, 68
1, 52837, Control_c, 0, 64, 65
1, 52859, Note_off_c, 0, 73, 60
1, 52881, Control_c, 0, 64, 64
1, 52887, Note_off_c, 0, 78, 57
1, 52892, Note_on_c, 0, 81, 72
1, 52902, Note_on_c, 0, 74, 79
1, 52911, Control_c, 0, 64, 64
1, 52941, Control_c, 0, 64, 63
1, 52955, Control_c, 0, 64, 63
1, 52964, Note_off_c, 0, 74, 61
1, 52976, Note_on_c, 0, 70, 55
1, 52985, Control_c, 0, 64, 62
1, 53000, Control_c, 0, 64, 61
1, 53000, Note_off_c, 0, 70, 59
1, 53015, Control_c, 0, 64, 58
1, 53019, Note_off_c, 0, 81, 58
1, 53024, Note_on_c, 0, 71, 78
1, 53030, Control_c, 0, 64, 55
1, 53043, Note_on_c, 0, 85, 80
1, 53053, Control_c, 0, 64, 52
1, 53068, Control_c, 0, 64, 51
1, 53083, Control_c, 0, 64, 52
1, 53084, Note_off_c, 0, 71, 62
1, 53097, Control_c, 0, 64, 55
1, 53102, Note_on_c, 0, 72, 61
1, 53112, Control_c, 0, 64, 59
1, 53127, Control_c, 0, 64, 62
1, 53142, Control_c, 0, 64, 64
1, 53157, Control_c, 0, 64, 65
1, 53159, Note_on_c, 0, 73, 61
1, 53161, Note_off_c, 0, 85, 59
1, 53161, Note_off_c, 0, 72, 63
1, 53167, Note_on_c, 0, 88, 86
1, 53171, Control_c, 0, 64, 66
1, 53186, Control_c, 0, 64, 68
1, 53187, Note_off_c, 0, 73, 66
1, 53201, Control_c, 0, 64, 70
1, 53206, Note_on_c, 0, 71, 64
1, 53215, Control_c, 0, 64, 71
1, 53242, Note_off_c, 0, 71, 61
1, 53245, Control_c, 0, 64, 72
1, 53268, Note_on_c, 0, 72, 62
1, 53299, Note_on_c, 0, 92, 86
1, 53311, Note_off_c, 0, 72, 60
1, 53328, Note_on_c, 0, 69, 64
1, 53334, Control_c, 0, 64, 72
1, 53349, Control_c, 0, 64, 73
1, 53359, Note_off_c, 0, 69, 64
1, 53361, Note_off_c, 0, 88, 28
1, 53364, Control_c, 0, 64, 74
1, 53379, Control_c, 0, 64, 75
1, 53390, Note_on_c, 0, 70, 66
1, 53394, Control_c, 0, 64, 76
1, 53409, Control_c, 0, 64, 78
1, 53420, Note_on_c, 0, 84, 84
1, 53420, Note_off_c, 0, 92, 59
1, 53423, Control_c, 0, 64, 79
1, 53438, Control_c, 0, 64, 80
1, 53439, Note_off_c, 0, 70, 63
1, 53448, Note_on_c, 0, 71, 50
1, 53474, Note_off_c, 0, 71, 56
1, 53504, Note_off_c, 0, 84, 64
1, 53541, Control_c, 0, 64, 79
1, 53542, Note_on_c, 0, 83, 85
1, 53550, Note_on_c, 0, 80, 72
1, 53556, Control_c, 0, 64, 78
1, 53571, Control_c, 0, 64, 77
1, 53586, Control_c, 0, 64, 75
1, 53601, Control_c, 0, 64, 74
1, 53607, Note_on_c, 0, 78, 76
1, 53614, Note_off_c, 0, 80, 64
1, 53615, Control_c, 0, 64, 72
1, 53630, Control_c, 0, 64, 70
1, 53645, Control_c, 0, 64, 67
1, 53660, Control_c, 0, 64, 65
1, 53675, Control_c, 0, 64, 64
1, 53676, Note_off_c, 0, 78, 60
1, 53683, Note_on_c, 0, 87, 82
1, 53689, Control_c, 0, 64, 63
1, 53696, Note_off_c, 0, 83, 54
1, 53704, Control_c, 0, 64, 62
1, 53716, Note_on_c, 0, 79, 69
1, 53719, Control_c, 0, 64, 61
1, 53734, Control_c, 0, 64, 60
1, 53748, Control_c, 0, 64, 58
1, 53763, Control_c, 0, 64, 57
1, 53768, Note_off_c, 0, 79, 60
1, 53778, Control_c, 0, 64, 57
1, 53801, Control_c, 0, 64, 56
1, 53823, Note_on_c, 0, 77, 78
1, 53830, Note_on_c, 0, 91, 86
1, 53847, Note_off_c, 0, 87, 58
1, 53878, Note_off_c, 0, 77, 65
1, 53891, Control_c, 0, 64, 57
1, 53902, Note_on_c, 0, 78, 60
1, 53906, Control_c, 0, 64, 59
1, 53920, Control_c, 0, 64, 61
1, 53935, Control_c, 0, 64, 62
1, 53954, Note_on_c, 0, 94, 97
1, 53965, Control_c, 0, 64, 63
1, 53967, Note_off_c, 0, 78, 57
1, 53968, Note_on_c, 0, 79, 44
1, 53972, Note_off_c, 0, 91, 54
1, 53979, Control_c, 0, 64, 64
1, 53994, Control_c, 0, 64, 68
1, 53997, Note_off_c, 0, 79, 55
1, 54005, Note_on_c, 0, 77, 67
1, 54009, Control_c, 0, 64, 72
1, 54024, Control_c, 0, 64, 76
1, 54036, Note_off_c, 0, 77, 63
1, 54039, Control_c, 0, 64, 78
1, 54053, Control_c, 0, 64, 80
1, 54060, Note_off_c, 0, 94, 66
1, 54068, Control_c, 0, 64, 81
1, 54083, Control_c, 0, 64, 82
1, 54097, Note_on_c, 0, 97, 90
1, 54120, Note_on_c, 0, 74, 70
1, 54142, Control_c, 0, 64, 82
1, 54164, Note_off_c, 0, 74, 61
1, 54172, Control_c, 0, 64, 83
1, 54172, Poly_aftertouch_c, 0, 78, 0
1, 54178, Note_on_c, 0, 75, 62
1, 54187, Control_c, 0, 64, 83
1, 54201, Control_c, 0, 64, 85
1, 54204, Note_off_c, 0, 97, 62
1, 54216, Control_c, 0, 64, 86
1, 54231, Control_c, 0, 64, 88
1, 54232, Note_on_c, 0, 88, 79
1, 54246, Note_on_c, 0, 76, 70
1, 54246, Note_off_c, 0, 75, 64
1, 54246, Control_c, 0, 64, 89
1, 54270, Note_off_c, 0, 76, 69
1, 54275, Note_off_c, 0, 88, 65
1, 54370, Note_on_c, 0, 77, 82
1, 54371, Note_on_c, 0, 87, 69
1, 54371, Note_on_c, 0, 71, 71
1, 54374, Note_on_c, 0, 59, 69
1, 54379, Control_c, 0, 64, 88
1, 54390, Note_on_c, 0, 60, 47
1, 54394, Control_c, 0, 64, 86
1, 54397, Note_off_c, 0, 71, 69
1, 54404, Note_off_c, 0, 59, 65
1, 54405, Note_off_c, 0, 87, 62
1, 54409, Control_c, 0, 64, 83
1, 54410, Note_off_c, 0, 77, 49
1, 54416, Note_off_c, 0, 60, 55
1, 54424, Control_c, 0, 64, 79
1, 54438, Control_c, 0, 64, 75
1, 54442, Note_on_c, 0, 78, 77
1, 54453, Control_c, 0, 64, 72
1, 54468, Control_c, 0, 64, 68
1, 54483, Control_c, 0, 64, 65
1, 54498, Control_c, 0, 64, 61
1, 54500, Note_on_c, 0, 86, 74
1, 54505, Note_off_c, 0, 78, 61
1, 54506, Note_on_c, 0, 59, 57
1, 54512, Control_c, 0, 64, 59
1, 54514, Note_on_c, 0, 79, 72
1, 54519, Note_on_c, 0, 71, 59
1, 54527, Control_c, 0, 64, 59
1, 54545, Note_off_c, 0, 71, 63
1, 54550, Control_c, 0, 64, 58
1, 54552, Note_off_c, 0, 59, 65
1, 54564, Control_c, 0, 64, 58
1, 54574, Note_off_c, 0, 86, 64
1, 54574, Note_off_c, 0, 79, 60
1, 54579, Control_c, 0, 64, 57
1, 54595, Note_on_c, 0, 80, 81
1, 54625, Control_c, 0, 64, 58
1, 54640, Control_c, 0, 64, 59
1, 54640, Note_on_c, 0, 85, 76
1, 54650, Note_on_c, 0, 71, 62
1, 54650, Note_off_c, 0, 80, 66
1, 54655, Control_c, 0, 64, 60
1, 54664, Note_on_c, 0, 59, 53
1, 54664, Note_on_c, 0, 81, 78
1, 54668, Note_on_c, 0, 62, 54
1, 54669, Control_c, 0, 64, 61
1, 54678, Note_off_c, 0, 71, 66
1, 54687, Note_off_c, 0, 59, 59
1, 54691, Note_off_c, 0, 62, 61
1, 54710, Note_off_c, 0, 85, 64
1, 54714, Control_c, 0, 64, 60
1, 54724, Note_on_c, 0, 82, 76
1, 54724, Note_off_c, 0, 81, 63
1, 54729, Control_c, 0, 64, 60
1, 54743, Control_c, 0, 64, 59
1, 54773, Control_c, 0, 64, 60
1, 54780, Note_on_c, 0, 84, 86
1, 54788, Note_on_c, 0, 63, 74
1, 54788, Control_c, 0, 64, 61
1, 54790, Note_on_c, 0, 71, 70
1, 54790, Note_off_c, 0, 82, 62
1, 54792, Note_on_c, 0, 59, 54
1, 54801, Note_on_c, 0, 83, 79
1, 54802, Control_c, 0, 64, 62
1, 54816, Note_off_c, 0, 71, 67
1, 54817, Control_c, 0, 64, 62
1, 54822, Note_off_c, 0, 63, 59
1, 54827, Note_off_c, 0, 59, 64
1, 54851, Note_off_c, 0, 84, 64
1, 54852, Note_on_c, 0, 82, 72
1, 54854, Note_off_c, 0, 83, 65
1, 54862, Control_c, 0, 64, 62
1, 54910, Note_on_c, 0, 85, 79
1, 54914, Note_on_c, 0, 71, 78
1, 54914, Note_off_c, 0, 82, 64
1, 54921, Note_on_c, 0, 59, 65
1, 54935, Note_on_c, 0, 81, 82
1, 54936, Control_c, 0, 64, 62
1, 54937, Note_on_c, 0, 64, 53
1, 54948, Note_off_c, 0, 71, 56
1, 54953, Note_off_c, 0, 59, 63
1, 54962, Note_off_c, 0, 64, 64
1, 54965, Control_c, 0, 64, 64
1, 54980, Control_c, 0, 64, 67
1, 54988, Note_off_c, 0, 85, 56
1, 54994, Control_c, 0, 64, 72
1, 54994, Control_c, 0, 67, 122
1, 54997, Note_on_c, 0, 86, 68
1, 55003, Note_off_c, 0, 81, 63
1, 55009, Control_c, 0, 64, 76
1, 55009, Control_c, 0, 67, 111
1, 55010, Note_on_c, 0, 80, 75
1, 55024, Control_c, 0, 64, 79
1, 55024, Control_c, 0, 67, 107
1, 55039, Control_c, 0, 64, 81
1, 55051, Note_on_c, 0, 59, 63
1, 55052, Note_on_c, 0, 65, 68
1, 55054, Control_c, 0, 64, 82
1, 55069, Note_off_c, 0, 86, 64
1, 55075, Note_off_c, 0, 80, 66
1, 55076, Note_off_c, 0, 65, 69
1, 55082, Note_on_c, 0, 79, 79
1, 55089, Note_off_c, 0, 59, 64
1, 55099, Control_c, 0, 64, 81
1, 55114, Control_c, 0, 64, 76
1, 55114, Control_c, 0, 67, 103
1, 55125, Note_off_c, 0, 79, 62
1, 55129, Control_c, 0, 64, 68
1, 55129, Control_c, 0, 67, 99
1, 55143, Control_c, 0, 64, 59
1, 55143, Control_c, 0, 67, 76
1, 55155, Note_on_c, 0, 78, 78
1, 55158, Control_c, 0, 67, 0
1, 55173, Control_c, 0, 64, 63
1, 55184, Note_on_c, 0, 87, 85
1, 55185, Note_on_c, 0, 66, 82
1, 55187, Control_c, 0, 64, 69
1, 55188, Note_on_c, 0, 59, 69
1, 55198, Note_on_c, 0, 77, 92
1, 55201, Note_off_c, 0, 78, 64
1, 55202, Control_c, 0, 64, 73
1, 55215, Note_off_c, 0, 59, 67
1, 55218, Note_off_c, 0, 66, 61
1, 55244, Note_off_c, 0, 87, 67
1, 55246, Note_off_c, 0, 77, 66
1, 55261, Control_c, 0, 64, 72
1, 55281, Note_on_c, 0, 78, 88
1, 55313, Control_c, 0, 64, 72
1, 55325, Note_on_c, 0, 67, 87
1, 55325, Note_on_c, 0, 86, 69
1, 55328, Control_c, 0, 64, 74
1, 55329, Note_on_c, 0, 59, 69
1, 55343, Control_c, 0, 64, 75
1, 55343, Note_on_c, 0, 79, 85
1, 55344, Note_off_c, 0, 78, 66
1, 55354, Note_off_c, 0, 67, 62
1, 55357, Note_off_c, 0, 59, 68
1, 55358, Control_c, 0, 64, 77
1, 55373, Control_c, 0, 64, 78
1, 55387, Note_off_c, 0, 86, 65
1, 55388, Control_c, 0, 64, 78
1, 55402, Control_c, 0, 64, 79
1, 55406, Note_off_c, 0, 79, 55
1, 55418, Control_c, 0, 64, 80
1, 55430, Note_on_c, 0, 80, 79
1, 55433, Control_c, 0, 64, 81
1, 55435, Note_on_c, 0, 85, 74
1, 55448, Control_c, 0, 64, 84
1, 55453, Note_on_c, 0, 68, 87
1, 55459, Note_on_c, 0, 59, 75
1, 55462, Control_c, 0, 64, 88
1, 55477, Control_c, 0, 64, 93
1, 55485, Note_off_c, 0, 59, 67
1, 55491, Note_on_c, 0, 81, 85
1, 55492, Control_c, 0, 64, 94
1, 55492, Note_off_c, 0, 80, 67
1, 55501, Note_off_c, 0, 68, 62
1, 55525, Note_off_c, 0, 85, 64
1, 55546, Note_off_c, 0, 81, 64
1, 55551, Control_c, 0, 64, 94
1, 55569, Note_on_c, 0, 84, 87
1, 55584, Note_on_c, 0, 69, 99
1, 55594, Note_on_c, 0, 59, 80
1, 55617, Note_off_c, 0, 59, 66
1, 55617, Note_off_c, 0, 69, 64
1, 55625, Control_c, 0, 64, 94
1, 55630, Note_on_c, 0, 83, 59
1, 55657, Note_off_c, 0, 84, 65
1, 55685, Control_c, 0, 64, 95
1, 55698, Note_on_c, 0, 85, 82
1, 55699, Control_c, 0, 64, 95
1, 55708, Note_on_c, 0, 59, 82
1, 55712, Note_off_c, 0, 83, 39
1, 55713, Note_on_c, 0, 82, 51
1, 55716, Note_on_c, 0, 70, 87
1, 55729, Control_c, 0, 64, 97
1, 55735, Note_off_c, 0, 82, 55
1, 55744, Note_off_c, 0, 70, 60
1, 55750, Note_off_c, 0, 59, 59
1, 55802, Note_off_c, 0, 85, 56
1, 55824, Note_on_c, 0, 86, 86
1, 55827, Note_on_c, 0, 79, 72
1, 55832, Note_on_c, 0, 81, 78
1, 55835, Note_on_c, 0, 71, 95
1, 55839, Note_on_c, 0, 82, 23
1, 55847, Note_on_c, 0, 59, 79
1, 55864, Note_off_c, 0, 79, 63
1, 55865, Note_off_c, 0, 81, 60
1, 55866, Note_off_c, 0, 59, 71
1, 55877, Note_off_c, 0, 71, 62
1, 55878, Note_off_c, 0, 82, 41
1, 55892, Control_c, 0, 64, 101
1, 55907, Control_c, 0, 64, 109
1, 55915, Note_on_c, 0, 78, 93
1, 55916, Note_off_c, 0, 86, 64
1, 55921, Control_c, 0, 64, 127
1, 55978, Note_off_c, 0, 78, 59
1, 55996, Control_c, 0, 64, 84
1, 56010, Control_c, 0, 64, 58
1, 56011, Note_on_c, 0, 77, 104
1, 56011, Note_on_c, 0, 87, 101
1, 56014, Note_on_c, 0, 72, 95
1, 56018, Note_on_c, 0, 65, 65
1, 56021, Note_on_c, 0, 59, 71
1, 56025, Control_c, 0, 64, 0
1, 56061, Note_on_c, 0, 60, 51
1, 56077, Control_c, 0, 64, 44
1, 56088, Note_off_c, 0, 60, 39
1, 56091, Control_c, 0, 64, 62
1, 56106, Note_off_c, 0, 72, 64
1, 56106, Control_c, 0, 64, 70
1, 56117, Note_off_c, 0, 59, 62
1, 56121, Control_c, 0, 64, 78
1, 56136, Control_c, 0, 64, 85
1, 56136, Note_off_c, 0, 77, 63
1, 56151, Control_c, 0, 64, 90
1, 56157, Note_off_c, 0, 65, 41
1, 56166, Control_c, 0, 64, 92
1, 56173, Note_off_c, 0, 87, 65
1, 56181, Control_c, 0, 64, 93
1, 56217, Note_on_c, 0, 72, 96
1, 56225, Note_on_c, 0, 59, 79
1, 56226, Note_on_c, 0, 65, 62
1, 56258, Note_off_c, 0, 72, 62
1, 56273, Note_off_c, 0, 59, 54
1, 56273, Note_off_c, 0, 65, 58
1, 56300, Control_c, 0, 64, 94
1, 56312, Note_on_c, 0, 65, 70
1, 56312, Note_on_c, 0, 72, 93
1, 56315, Control_c, 0, 64, 97
1, 56318, Note_on_c, 0, 59, 70
1, 56330, Control_c, 0, 64, 108
1, 56345, Control_c, 0, 64, 127
1, 56350, Note_off_c, 0, 72, 62
1, 56355, Note_off_c, 0, 59, 60
1, 56362, Note_off_c, 0, 65, 64
1, 56392, Note_on_c, 0, 72, 92
1, 56396, Note_on_c, 0, 59, 91
1, 56397, Note_on_c, 0, 65, 77
1, 56417, Note_on_c, 0, 96, 99
1, 56419, Control_c, 0, 64, 74
1, 56422, Note_on_c, 0, 84, 98
1, 56434, Control_c, 0, 64, 35
1, 56448, Note_off_c, 0, 84, 70
1, 56448, Control_c, 0, 64, 0
1, 56454, Note_off_c, 0, 96, 69
1, 56478, Control_c, 0, 64, 34
1, 56489, Note_on_c, 0, 95, 109
1, 56491, Note_on_c, 0, 83, 110
1, 56493, Control_c, 0, 64, 62
1, 56508, Control_c, 0, 64, 75
1, 56522, Control_c, 0, 64, 94
1, 56530, Note_off_c, 0, 72, 63
1, 56534, Note_off_c, 0, 83, 66
1, 56537, Control_c, 0, 64, 112
1, 56539, Note_off_c, 0, 95, 69
1, 56550, Note_off_c, 0, 65, 63
1, 56552, Control_c, 0, 64, 120
1, 56566, Control_c, 0, 64, 127
1, 56822, Note_on_c, 0, 65, 84
1, 56866, Note_off_c, 0, 65, 61
1, 56886, Note_on_c, 0, 76, 76
1, 56917, Poly_aftertouch_c, 0, 67, 127
1, 56938, Note_off_c, 0, 59, 61
1, 56944, Note_on_c, 0, 78, 79
1, 56952, Poly_aftertouch_c, 0, 67, 0
1, 56963, Note_off_c, 0, 76, 59
1, 56994, Note_on_c, 0, 75, 93
1, 57034, Note_off_c, 0, 78, 60
1, 57054, Note_off_c, 0, 75, 69
1, 57078, Note_on_c, 0, 67, 83
1, 57100, Note_on_c, 0, 60, 91
1, 57123, Control_c, 0, 64, 103
1, 57131, Note_off_c, 0, 67, 63
1, 57135, Note_on_c, 0, 74, 80
1, 57138, Control_c, 0, 64, 75
1, 57153, Control_c, 0, 64, 51
1, 57167, Control_c, 0, 64, 0
1, 57175, Note_off_c, 0, 60, 63
1, 57180, Note_on_c, 0, 59, 101
1, 57186, Note_off_c, 0, 74, 63
1, 57187, Note_on_c, 0, 80, 87
1, 57212, Control_c, 0, 64, 29
1, 57227, Control_c, 0, 64, 50
1, 57242, Control_c, 0, 64, 62
1, 57249, Note_on_c, 0, 73, 85
1, 57256, Control_c, 0, 64, 67
1, 57271, Control_c, 0, 64, 71
1, 57275, Note_off_c, 0, 59, 64
1, 57286, Control_c, 0, 64, 74
1, 57287, Note_off_c, 0, 80, 61
1, 57301, Control_c, 0, 64, 76
1, 57314, Note_on_c, 0, 69, 85
1, 57314, Note_off_c, 0, 73, 64
1, 57316, Control_c, 0, 64, 78
1, 57331, Control_c, 0, 64, 79
1, 57345, Control_c, 0, 64, 80
1, 57360, Control_c, 0, 64, 80
1, 57379, Note_on_c, 0, 72, 89
1, 57379, Note_off_c, 0, 69, 64
1, 57389, Control_c, 0, 64, 81
1, 57404, Control_c, 0, 64, 81
1, 57419, Control_c, 0, 64, 82
1, 57435, Note_off_c, 0, 72, 57
1, 57442, Note_on_c, 0, 82, 86
1, 57463, Control_c, 0, 64, 82
1, 57478, Control_c, 0, 64, 83
1, 57507, Note_off_c, 0, 82, 65
1, 57507, Control_c, 0, 64, 84
1, 57509, Note_on_c, 0, 74, 93
1, 57522, Note_on_c, 0, 76, 57
1, 57522, Control_c, 0, 64, 84
1, 57549, Note_off_c, 0, 76, 62
1, 57560, Control_c, 0, 64, 85
1, 57575, Control_c, 0, 64, 85
1, 57604, Control_c, 0, 64, 85
1, 57611, Note_on_c, 0, 77, 98
1, 57618, Note_on_c, 0, 71, 94
1, 57619, Control_c, 0, 64, 78
1, 57634, Control_c, 0, 64, 63
1, 57643, Note_off_c, 0, 74, 54
1, 57649, Control_c, 0, 64, 0
1, 57656, Note_off_c, 0, 77, 65
1, 57715, Note_on_c, 0, 77, 97
1, 57765, Note_off_c, 0, 77, 66
1, 57810, Note_on_c, 0, 77, 91
1, 57852, Note_off_c, 0, 77, 67
1, 57857, Control_c, 0, 64, 29
1, 57872, Control_c, 0, 64, 53
1, 57886, Control_c, 0, 64, 64
1, 57901, Control_c, 0, 64, 68
1, 57903, Note_off_c, 0, 71, 61
1, 57909, Note_on_c, 0, 77, 101
1, 57916, Control_c, 0, 64, 73
1, 57931, Control_c, 0, 64, 78
1, 57934, Note_off_c, 0, 77, 70
1, 57945, Control_c, 0, 64, 83
1, 57960, Control_c, 0, 64, 86
1, 57975, Control_c, 0, 64, 88
1, 57990, Control_c, 0, 64, 89
1, 58005, Control_c, 0, 64, 90
1, 58020, Control_c, 0, 64, 91
1, 58035, Control_c, 0, 64, 92
1, 58179, Note_on_c, 0, 75, 90
1, 58293, Note_off_c, 0, 75, 64
1, 58300, Note_on_c, 0, 77, 91
1, 58368, Control_c, 0, 64, 91
1, 58402, Note_on_c, 0, 60, 58
1, 58405, Note_on_c, 0, 48, 69
1, 58405, Note_on_c, 0, 80, 86
1, 58423, Note_off_c, 0, 60, 62
1, 58438, Note_off_c, 0, 77, 61
1, 58442, Control_c, 0, 64, 90
1, 58457, Control_c, 0, 64, 88
1, 58472, Control_c, 0, 64, 82
1, 58486, Control_c, 0, 64, 73
1, 58501, Control_c, 0, 64, 64
1, 58508, Note_off_c, 0, 48, 55
1, 58516, Control_c, 0, 64, 49
1, 58531, Control_c, 0, 64, 0
1, 58536, Note_on_c, 0, 59, 57
1, 58541, Note_on_c, 0, 85, 81
1, 58545, Note_off_c, 0, 80, 62
1, 58556, Note_on_c, 0, 47, 46
1, 58635, Control_c, 0, 64, 36
1, 58650, Control_c, 0, 64, 52
1, 58665, Control_c, 0, 64, 60
1, 58680, Control_c, 0, 64, 63
1, 58688, Note_on_c, 0, 80, 79
1, 58695, Control_c, 0, 64, 64
1, 58698, Note_off_c, 0, 47, 61
1, 58709, Control_c, 0, 64, 65
1, 58724, Control_c, 0, 64, 67
1, 58726, Note_off_c, 0, 85, 51
1, 58739, Control_c, 0, 64, 69
1, 58748, Note_off_c, 0, 59, 63
1, 58754, Control_c, 0, 64, 70
1, 58768, Control_c, 0, 64, 71
1, 58783, Control_c, 0, 64, 72
1, 58798, Control_c, 0, 64, 73
1, 58810, Note_off_c, 0, 80, 55
1, 58813, Control_c, 0, 64, 73
1, 58813, Control_c, 0, 67, 39
1, 58828, Control_c, 0, 64, 74
1, 58828, Control_c, 0, 67, 47
1, 58843, Control_c, 0, 67, 62
1, 58845, Note_on_c, 0, 77, 66
1, 58858, Control_c, 0, 64, 75
1, 58858, Control_c, 0, 67, 79
1, 58873, Control_c, 0, 67, 94
1, 58887, Control_c, 0, 67, 106
1, 58902, Control_c, 0, 67, 114
1, 58917, Control_c, 0, 67, 121
1, 58932, Control_c, 0, 67, 127
1, 58935, Note_off_c, 0, 77, 62
1, 59042, Note_on_c, 0, 77, 59
1, 59071, Note_on_c, 0, 63, 37
1, 59111, Note_off_c, 0, 77, 57
1, 59203, Note_on_c, 0, 77, 55
1, 59260, Note_off_c, 0, 77, 54
1, 59275, Note_off_c, 0, 63, 37
1, 59306, Note_on_c, 0, 67, 38
1, 59375, Note_on_c, 0, 77, 57
1, 59466, Note_off_c, 0, 67, 44
1, 59512, Note_off_c, 0, 77, 39
1, 59532, Control_c, 0, 64, 74
1, 59538, Note_on_c, 0, 87, 68
1, 59543, Note_on_c, 0, 70, 35
1, 59547, Control_c, 0, 64, 71
1, 59562, Control_c, 0, 64, 66
1, 59577, Control_c, 0, 64, 62
1, 59591, Control_c, 0, 64, 61
1, 59636, Control_c, 0, 64, 61
1, 59651, Control_c, 0, 64, 62
1, 59665, Control_c, 0, 64, 63
1, 59680, Control_c, 0, 64, 65
1, 59686, Note_off_c, 0, 70, 56
1, 59695, Control_c, 0, 64, 66
1, 59710, Control_c, 0, 64, 67
1, 59722, Note_on_c, 0, 74, 41
1, 59725, Control_c, 0, 64, 67
1, 59740, Control_c, 0, 64, 68
1, 59755, Control_c, 0, 64, 68
1, 59770, Control_c, 0, 64, 69
1, 59806, Control_c, 0, 64, 69
1, 59868, Note_off_c, 0, 74, 35
1, 59877, Note_on_c, 0, 66, 35
1, 59925, Control_c, 0, 64, 70
1, 59959, Note_off_c, 0, 66, 56
1, 59999, Control_c, 0, 64, 69
1, 60014, Control_c, 0, 64, 68
1, 60020, Note_on_c, 0, 88, 61
1, 60029, Control_c, 0, 64, 64
1, 60032, Note_on_c, 0, 65, 37
1, 60044, Control_c, 0, 64, 56
1, 60059, Control_c, 0, 64, 49
1, 60071, Note_off_c, 0, 87, 58
1, 60074, Control_c, 0, 64, 47
1, 60089, Control_c, 0, 64, 48
1, 60103, Control_c, 0, 64, 50
1, 60118, Control_c, 0, 64, 54
1, 60133, Control_c, 0, 64, 59
1, 60148, Control_c, 0, 64, 62
1, 60163, Control_c, 0, 64, 65
1, 60178, Control_c, 0, 64, 67
1, 60190, Note_on_c, 0, 69, 32
1, 60192, Control_c, 0, 64, 69
1, 60208, Control_c, 0, 64, 70
1, 60223, Control_c, 0, 64, 71
1, 60238, Control_c, 0, 64, 72
1, 60253, Control_c, 0, 64, 73
1, 60268, Control_c, 0, 64, 75
1, 60282, Control_c, 0, 64, 76
1, 60297, Control_c, 0, 64, 78
1, 60312, Control_c, 0, 64, 79
1, 60327, Control_c, 0, 64, 80
1, 60328, Note_on_c, 0, 74, 47
1, 60341, Control_c, 0, 64, 81
1, 60356, Control_c, 0, 64, 82
1, 60371, Control_c, 0, 64, 83
1, 60380, Note_off_c, 0, 69, 34
1, 60386, Control_c, 0, 64, 84
1, 60389, Note_off_c, 0, 65, 31
1, 60401, Control_c, 0, 64, 85
1, 60411, Note_off_c, 0, 88, 62
1, 60415, Control_c, 0, 64, 86
1, 60424, Note_on_c, 0, 93, 68
1, 60430, Control_c, 0, 64, 86
1, 60433, Note_off_c, 0, 74, 58
1, 60445, Control_c, 0, 64, 87
1, 60475, Control_c, 0, 64, 87
1, 60489, Control_c, 0, 64, 88
1, 60494, Note_on_c, 0, 88, 68
1, 60504, Control_c, 0, 64, 88
1, 60508, Note_on_c, 0, 77, 42
1, 60519, Control_c, 0, 64, 89
1, 60533, Note_off_c, 0, 93, 57
1, 60556, Control_c, 0, 64, 89
1, 60571, Control_c, 0, 64, 90
1, 60601, Control_c, 0, 64, 90
1, 60615, Control_c, 0, 64, 91
1, 60619, Note_off_c, 0, 77, 57
1, 60645, Control_c, 0, 64, 91
1, 60676, Note_on_c, 0, 80, 44
1, 60689, Control_c, 0, 64, 92
1, 60813, Note_on_c, 0, 73, 66
1, 60815, Note_off_c, 0, 80, 54
1, 60822, Control_c, 0, 64, 92
1, 60838, Note_off_c, 0, 73, 69
1, 60882, Control_c, 0, 64, 93
1, 60911, Control_c, 0, 64, 94
1, 60926, Control_c, 0, 64, 95
1, 60941, Control_c, 0, 64, 95
1, 60971, Control_c, 0, 64, 94
1, 60986, Control_c, 0, 64, 81
1, 60995, Note_on_c, 0, 87, 100
1, 60998, Note_on_c, 0, 72, 105
1, 61000, Note_on_c, 0, 59, 93
1, 61000, Note_on_c, 0, 65, 96
1, 61001, Control_c, 0, 64, 65
1, 61001, Control_c, 0, 67, 95
1, 61004, Note_off_c, 0, 88, 63
1, 61016, Control_c, 0, 64, 51
1, 61016, Control_c, 0, 67, 60
1, 61031, Control_c, 0, 64, 52
1, 61031, Control_c, 0, 67, 0
1, 61046, Control_c, 0, 64, 59
1, 61061, Control_c, 0, 64, 66
1, 61075, Control_c, 0, 64, 76
1, 61084, Note_off_c, 0, 72, 61
1, 61087, Note_off_c, 0, 59, 61
1, 61090, Control_c, 0, 64, 87
1, 61097, Note_off_c, 0, 65, 62
1, 61105, Control_c, 0, 64, 94
1, 61120, Control_c, 0, 64, 98
1, 61149, Note_off_c, 0, 87, 63
1, 61171, Note_on_c, 0, 72, 91
1, 61176, Note_on_c, 0, 59, 75
1, 61182, Note_on_c, 0, 65, 74
1, 61206, Note_off_c, 0, 65, 63
1, 61207, Note_off_c, 0, 59, 55
1, 61213, Note_off_c, 0, 72, 62
1, 61270, Note_on_c, 0, 72, 89
1, 61271, Note_on_c, 0, 65, 87
1, 61283, Note_on_c, 0, 59, 81
1, 61311, Note_off_c, 0, 72, 66
1, 61320, Note_off_c, 0, 65, 61
1, 61330, Note_off_c, 0, 59, 61
1, 61356, Note_on_c, 0, 72, 90
1, 61356, Note_on_c, 0, 59, 77
1, 61357, Note_on_c, 0, 65, 77
1, 61391, Note_off_c, 0, 72, 0
1, 61394, Control_c, 0, 64, 100
1, 61403, Note_on_c, 0, 84, 97
1, 61428, Poly_aftertouch_c, 0, 72, 127
1, 61437, Note_off_c, 0, 84, 67
1, 61445, Poly_aftertouch_c, 0, 72, 0
1, 61480, Note_on_c, 0, 83, 97
1, 61481, Control_c, 0, 64, 90
1, 61487, Note_on_c, 0, 71, 98
1, 61496, Control_c, 0, 64, 67
1, 61511, Control_c, 0, 64, 35
1, 61526, Control_c, 0, 64, 0
1, 61585, Control_c, 0, 64, 34
1, 61600, Control_c, 0, 64, 58
1, 61615, Control_c, 0, 64, 68
1, 61630, Control_c, 0, 64, 75
1, 61645, Control_c, 0, 64, 82
1, 61660, Control_c, 0, 64, 85
1, 61675, Control_c, 0, 64, 86
1, 61689, Control_c, 0, 64, 88
1, 61698, Note_off_c, 0, 65, 58
1, 61704, Control_c, 0, 64, 89
1, 61719, Control_c, 0, 64, 90
1, 61734, Control_c, 0, 64, 91
1, 61746, Note_off_c, 0, 59, 61
1, 61748, Control_c, 0, 64, 92
1, 61763, Control_c, 0, 64, 93
1, 61778, Control_c, 0, 64, 94
1, 61792, Note_off_c, 0, 71, 57
1, 61793, Control_c, 0, 64, 96
1, 61821, Note_off_c, 0, 83, 61
1, 61897, Note_on_c, 0, 82, 84
1, 61913, Control_c, 0, 64, 98
1, 61973, Note_on_c, 0, 84, 80
1, 61996, Note_off_c, 0, 82, 57
1, 62053, Note_on_c, 0, 81, 79
1, 62056, Note_off_c, 0, 84, 65
1, 62100, Note_on_c, 0, 73, 83
1, 62107, Note_off_c, 0, 81, 66
1, 62137, Note_on_c, 0, 48, 98
1, 62172, Control_c, 0, 64, 88
1, 62173, Note_off_c, 0, 73, 60
1, 62174, Note_on_c, 0, 80, 91
1, 62186, Control_c, 0, 64, 66
1, 62201, Control_c, 0, 64, 0
1, 62209, Note_on_c, 0, 47, 102
1, 62217, Note_off_c, 0, 48, 58
1, 62238, Note_off_c, 0, 80, 68
1, 62245, Note_on_c, 0, 86, 87
1, 62260, Control_c, 0, 64, 41
1, 62275, Control_c, 0, 64, 62
1, 62290, Control_c, 0, 64, 68
1, 62304, Note_on_c, 0, 79, 81
1, 62304, Control_c, 0, 64, 74
1, 62319, Control_c, 0, 64, 78
1, 62321, Note_off_c, 0, 86, 66
1, 62332, Note_off_c, 0, 47, 64
1, 62334, Control_c, 0, 64, 80
1, 62349, Control_c, 0, 64, 82
1, 62363, Note_off_c, 0, 79, 63
1, 62364, Control_c, 0, 64, 84
1, 62377, Note_on_c, 0, 75, 84
1, 62378, Control_c, 0, 64, 86
1, 62393, Control_c, 0, 64, 87
1, 62408, Control_c, 0, 64, 89
1, 62423, Control_c, 0, 64, 91
1, 62438, Note_off_c, 0, 75, 64
1, 62438, Control_c, 0, 64, 92
1, 62443, Note_on_c, 0, 78, 89
1, 62453, Control_c, 0, 64, 93
1, 62468, Control_c, 0, 64, 94
1, 62497, Control_c, 0, 64, 94
1, 62510, Note_on_c, 0, 88, 97
1, 62519, Note_off_c, 0, 78, 59
1, 62542, Control_c, 0, 64, 95
1, 62575, Note_on_c, 0, 77, 94
1, 62586, Control_c, 0, 64, 95
1, 62602, Control_c, 0, 64, 96
1, 62604, Note_off_c, 0, 88, 62
1, 62646, Note_off_c, 0, 77, 66
1, 62661, Control_c, 0, 64, 98
1, 62688, Note_on_c, 0, 83, 98
1, 62698, Note_on_c, 0, 79, 95
1, 62706, Control_c, 0, 64, 86
1, 62720, Control_c, 0, 64, 64
1, 62735, Control_c, 0, 64, 0
1, 62745, Note_off_c, 0, 79, 69
1, 62810, Note_on_c, 0, 79, 97
1, 62823, Note_off_c, 0, 79, 79
1, 62885, Note_on_c, 0, 79, 74
1, 62935, Note_off_c, 0, 79, 67
1, 62980, Control_c, 0, 64, 41
1, 62995, Control_c, 0, 64, 60
1, 62996, Note_off_c, 0, 83, 61
1, 62997, Note_on_c, 0, 79, 96
1, 63009, Control_c, 0, 64, 66
1, 63024, Control_c, 0, 64, 70
1, 63028, Note_off_c, 0, 79, 69
1, 63039, Control_c, 0, 64, 73
1, 63054, Control_c, 0, 64, 75
1, 63069, Control_c, 0, 64, 78
1, 63083, Control_c, 0, 64, 80
1, 63098, Control_c, 0, 64, 81
1, 63113, Control_c, 0, 64, 82
1, 63127, Control_c, 0, 64, 83
1, 63157, Control_c, 0, 64, 84
1, 63187, Control_c, 0, 64, 84
1, 63207, Note_on_c, 0, 76, 86
1, 63261, Control_c, 0, 64, 85
1, 63266, Note_off_c, 0, 76, 65
1, 63290, Note_on_c, 0, 77, 91
1, 63350, Control_c, 0, 64, 83
1, 63365, Control_c, 0, 64, 72
1, 63377, Note_on_c, 0, 80, 83
1, 63379, Note_on_c, 0, 88, 89
1, 63380, Control_c, 0, 64, 53
1, 63383, Note_off_c, 0, 77, 64
1, 63395, Control_c, 0, 64, 0
1, 63446, Note_off_c, 0, 80, 63
1, 63451, Note_off_c, 0, 88, 61
1, 63470, Note_on_c, 0, 87, 77
1, 63482, Note_on_c, 0, 91, 87
1, 63550, Note_off_c, 0, 91, 64
1, 63565, Note_on_c, 0, 82, 85
1, 63577, Note_on_c, 0, 88, 68
1, 63585, Note_off_c, 0, 87, 55
1, 63620, Note_off_c, 0, 88, 67
1, 63623, Note_off_c, 0, 82, 63
1, 63639, Control_c, 0, 64, 53
1, 63654, Control_c, 0, 64, 62
1, 63663, Note_on_c, 0, 91, 100
1, 63669, Control_c, 0, 64, 65
1, 63670, Note_on_c, 0, 79, 87
1, 63684, Control_c, 0, 64, 68
1, 63689, Note_off_c, 0, 91, 71
1, 63690, Note_on_c, 0, 89, 42
1, 63690, Note_off_c, 0, 89, 127
1, 63699, Control_c, 0, 64, 69
1, 63712, Note_off_c, 0, 79, 67
1, 63713, Control_c, 0, 64, 71
1, 63728, Control_c, 0, 64, 71
1, 63743, Control_c, 0, 64, 72
1, 63757, Control_c, 0, 64, 73
1, 63770, Note_on_c, 0, 79, 82
1, 63809, Note_off_c, 0, 79, 64
1, 63866, Note_on_c, 0, 79, 70
1, 63890, Control_c, 0, 64, 73
1, 63904, Note_off_c, 0, 79, 63
1, 63954, Note_on_c, 0, 79, 63
1, 63983, Note_off_c, 0, 79, 65
1, 64009, Control_c, 0, 64, 73
1, 64024, Control_c, 0, 64, 66
1, 64036, Note_on_c, 0, 73, 95
1, 64038, Control_c, 0, 64, 40
1, 64053, Control_c, 0, 64, 0
1, 64077, Note_off_c, 0, 73, 63
1, 64131, Note_on_c, 0, 73, 85
1, 64140, Note_on_c, 0, 76, 56
1, 64161, Note_off_c, 0, 76, 61
1, 64175, Note_off_c, 0, 73, 63
1, 64230, Note_on_c, 0, 77, 70
1, 64233, Note_on_c, 0, 73, 85
1, 64274, Note_off_c, 0, 73, 66
1, 64276, Note_off_c, 0, 77, 62
1, 64327, Note_on_c, 0, 73, 101
1, 64328, Control_c, 0, 64, 35
1, 64330, Note_on_c, 0, 80, 86
1, 64343, Control_c, 0, 64, 59
1, 64358, Control_c, 0, 64, 64
1, 64367, Note_off_c, 0, 73, 67
1, 64373, Control_c, 0, 64, 65
1, 64387, Control_c, 0, 64, 65
1, 64397, Note_off_c, 0, 80, 61
1, 64402, Control_c, 0, 64, 66
1, 64417, Control_c, 0, 64, 67
1, 64423, Note_on_c, 0, 87, 86
1, 64432, Control_c, 0, 64, 68
1, 64447, Control_c, 0, 64, 70
1, 64462, Control_c, 0, 64, 73
1, 64477, Control_c, 0, 64, 74
1, 64492, Control_c, 0, 64, 75
1, 64513, Note_on_c, 0, 82, 92
1, 64518, Note_off_c, 0, 87, 63
1, 64527, Note_on_c, 0, 68, 81
1, 64563, Note_off_c, 0, 82, 64
1, 64566, Control_c, 0, 64, 73
1, 64580, Control_c, 0, 64, 69
1, 64595, Control_c, 0, 64, 62
1, 64596, Note_on_c, 0, 73, 78
1, 64598, Note_off_c, 0, 68, 62
1, 64605, Note_on_c, 0, 79, 84
1, 64610, Control_c, 0, 64, 52
1, 64625, Control_c, 0, 64, 44
1, 64640, Control_c, 0, 64, 42
1, 64647, Note_off_c, 0, 79, 66
1, 64654, Control_c, 0, 64, 44
1, 64669, Control_c, 0, 64, 50
1, 64676, Note_off_c, 0, 73, 60
1, 64684, Control_c, 0, 64, 56
1, 64685, Note_on_c, 0, 79, 81
1, 64688, Note_on_c, 0, 77, 88
1, 64698, Control_c, 0, 64, 59
1, 64713, Control_c, 0, 64, 61
1, 64721, Note_off_c, 0, 79, 67
1, 64728, Control_c, 0, 64, 63
1, 64739, Note_off_c, 0, 77, 66
1, 64743, Control_c, 0, 64, 66
1, 64758, Control_c, 0, 64, 68
1, 64772, Control_c, 0, 64, 71
1, 64777, Note_on_c, 0, 81, 91
1, 64785, Note_on_c, 0, 79, 89
1, 64787, Control_c, 0, 64, 72
1, 64802, Control_c, 0, 64, 74
1, 64817, Control_c, 0, 64, 74
1, 64819, Note_off_c, 0, 81, 64
1, 64825, Note_off_c, 0, 79, 66
1, 64846, Control_c, 0, 64, 75
1, 64858, Note_on_c, 0, 76, 94
1, 64866, Note_on_c, 0, 79, 64
1, 64892, Note_off_c, 0, 76, 63
1, 64905, Note_off_c, 0, 79, 67
1, 64957, Note_on_c, 0, 73, 92
1, 64995, Note_off_c, 0, 73, 65
1, 65050, Note_on_c, 0, 64, 80
1, 65060, Note_on_c, 0, 73, 103
1, 65096, Note_off_c, 0, 64, 64
1, 65096, Note_off_c, 0, 73, 64
1, 65141, Note_on_c, 0, 65, 81
1, 65144, Note_on_c, 0, 73, 98
1, 65166, Control_c, 0, 64, 75
1, 65184, Note_off_c, 0, 73, 64
1, 65210, Control_c, 0, 64, 75
1, 65222, Note_on_c, 0, 73, 101
1, 65225, Control_c, 0, 64, 72
1, 65232, Note_on_c, 0, 68, 82
1, 65233, Note_off_c, 0, 65, 61
1, 65240, Control_c, 0, 64, 70
1, 65254, Note_off_c, 0, 73, 68
1, 65255, Control_c, 0, 64, 70
1, 65284, Control_c, 0, 64, 70
1, 65311, Note_off_c, 0, 68, 62
1, 65314, Control_c, 0, 64, 71
1, 65316, Note_on_c, 0, 75, 90
1, 65329, Control_c, 0, 64, 72
1, 65395, Note_on_c, 0, 70, 94
1, 65405, Note_off_c, 0, 75, 64
1, 65418, Control_c, 0, 64, 71
1, 65427, Note_on_c, 0, 56, 84
1, 65433, Control_c, 0, 64, 71
1, 65448, Control_c, 0, 64, 69
1, 65461, Note_off_c, 0, 70, 63
1, 65463, Control_c, 0, 64, 65
1, 65477, Control_c, 0, 64, 60
1, 65481, Note_on_c, 0, 67, 89
1, 65492, Control_c, 0, 64, 56
1, 65502, Note_off_c, 0, 56, 62
1, 65507, Note_on_c, 0, 61, 78
1, 65507, Control_c, 0, 64, 54
1, 65521, Control_c, 0, 64, 50
1, 65522, Note_off_c, 0, 67, 66
1, 65536, Control_c, 0, 64, 46
1, 65551, Control_c, 0, 64, 45
1, 65570, Note_on_c, 0, 67, 87
1, 65581, Control_c, 0, 64, 47
1, 65582, Note_off_c, 0, 61, 62
1, 65586, Note_on_c, 0, 65, 84
1, 65595, Control_c, 0, 64, 54
1, 65603, Note_off_c, 0, 67, 68
1, 65610, Control_c, 0, 64, 61
1, 65621, Note_off_c, 0, 65, 61
1, 65625, Control_c, 0, 64, 65
1, 65639, Control_c, 0, 64, 69
1, 65654, Control_c, 0, 64, 73
1, 65655, Note_on_c, 0, 69, 71
1, 65664, Note_on_c, 0, 67, 93
1, 65669, Control_c, 0, 64, 78
1, 65684, Control_c, 0, 64, 81
1, 65698, Note_off_c, 0, 69, 65
1, 65699, Control_c, 0, 64, 82
1, 65704, Note_off_c, 0, 67, 59
1, 65714, Control_c, 0, 64, 83
1, 65729, Control_c, 0, 64, 83
1, 65730, Note_on_c, 0, 64, 85
1, 65730, Note_on_c, 0, 67, 68
1, 65750, Note_off_c, 0, 64, 73
1, 65798, Note_off_c, 0, 67, 63
1, 65840, Note_on_c, 0, 61, 109
1, 65875, Note_off_c, 0, 61, 68
1, 65932, Note_on_c, 0, 61, 111
1, 65945, Note_on_c, 0, 52, 79
1, 65946, Note_on_c, 0, 50, 85
1, 65966, Note_off_c, 0, 61, 67
1, 65970, Note_off_c, 0, 50, 68
1, 65989, Note_off_c, 0, 52, 63
1, 66004, Control_c, 0, 64, 82
1, 66019, Control_c, 0, 64, 78
1, 66024, Note_on_c, 0, 61, 115
1, 66031, Note_on_c, 0, 53, 92
1, 66033, Control_c, 0, 64, 71
1, 66048, Control_c, 0, 64, 64
1, 66055, Note_off_c, 0, 61, 73
1, 66063, Control_c, 0, 64, 59
1, 66077, Control_c, 0, 64, 55
1, 66092, Control_c, 0, 64, 54
1, 66107, Control_c, 0, 64, 56
1, 66122, Control_c, 0, 64, 60
1, 66124, Note_on_c, 0, 56, 79
1, 66135, Note_on_c, 0, 55, 85
1, 66137, Control_c, 0, 64, 63
1, 66140, Note_off_c, 0, 53, 63
1, 66152, Control_c, 0, 64, 68
1, 66167, Control_c, 0, 64, 72
1, 66175, Note_on_c, 0, 54, 15
1, 66175, Note_off_c, 0, 54, 127
1, 66182, Control_c, 0, 64, 74
1, 66183, Note_off_c, 0, 55, 62
1, 66197, Control_c, 0, 64, 75
1, 66203, Note_off_c, 0, 56, 60
1, 66212, Control_c, 0, 64, 75
1, 66223, Note_on_c, 0, 63, 101
1, 66256, Control_c, 0, 64, 76
1, 66270, Control_c, 0, 64, 76
1, 66285, Control_c, 0, 64, 78
1, 66286, Note_on_c, 0, 32, 45
1, 66300, Control_c, 0, 64, 79
1, 66304, Note_off_c, 0, 63, 0
1, 66315, Control_c, 0, 64, 82
1, 66321, Note_on_c, 0, 58, 104
1, 66325, Note_off_c, 0, 32, 49
1, 66330, Control_c, 0, 64, 85
1, 66331, Poly_aftertouch_c, 0, 63, 0
1, 66344, Control_c, 0, 64, 90
1, 66359, Control_c, 0, 64, 93
1, 66374, Control_c, 0, 64, 94
1, 66377, Note_off_c, 0, 58, 65
1, 66404, Control_c, 0, 64, 92
1, 66418, Control_c, 0, 64, 77
1, 66433, Control_c, 0, 64, 59
1, 66448, Control_c, 0, 64, 0
1, 66459, Note_on_c, 0, 55, 99
1, 66461, Note_on_c, 0, 44, 105
1, 66462, Note_on_c, 0, 49, 96
1, 66462, Note_on_c, 0, 32, 105
1, 66470, Note_on_c, 0, 52, 88
1, 66487, Note_off_c, 0, 32, 69
1, 66492, Control_c, 0, 64, 49
1, 66494, Note_off_c, 0, 44, 66
1, 66507, Control_c, 0, 64, 66
1, 66530, Control_c, 0, 64, 75
1, 66544, Control_c, 0, 64, 84
1, 66547, Note_off_c, 0, 49, 65
1, 66557, Note_off_c, 0, 52, 64
1, 66559, Control_c, 0, 64, 89
1, 66565, Poly_aftertouch_c, 0, 42, 0
1, 66574, Control_c, 0, 64, 91
1, 66584, Note_off_c, 0, 55, 61
1, 66585, Poly_aftertouch_c, 0, 42, 0
1, 66664, Control_c, 0, 64, 92
1, 66689, Note_on_c, 0, 55, 102
1, 66695, Note_on_c, 0, 44, 92
1, 66697, Note_on_c, 0, 52, 82
1, 66697, Note_on_c, 0, 49, 86
1, 66719, Note_off_c, 0, 52, 64
1, 66721, Note_off_c, 0, 49, 64
1, 66738, Note_off_c, 0, 55, 57
1, 66750, Note_off_c, 0, 44, 45
1, 66834, Note_on_c, 0, 55, 94
1, 66840, Note_on_c, 0, 52, 82
1, 66841, Note_on_c, 0, 44, 82
1, 66845, Note_on_c, 0, 66, 14
1, 66847, Note_on_c, 0, 49, 71
1, 66879, Note_off_c, 0, 49, 65
1, 66888, Note_off_c, 0, 52, 63
1, 66888, Note_off_c, 0, 55, 62
1, 66890, Note_off_c, 0, 44, 60
1, 66894, Note_off_c, 0, 66, 61
1, 66943, Note_on_c, 0, 55, 99
1, 66946, Control_c, 0, 64, 91
1, 66947, Note_on_c, 0, 44, 87
1, 66948, Note_on_c, 0, 52, 83
1, 66951, Note_on_c, 0, 49, 81
1, 66961, Control_c, 0, 64, 81
1, 66975, Control_c, 0, 64, 64
1, 66990, Control_c, 0, 64, 0
1, 67016, Note_on_c, 0, 60, 94
1, 67020, Note_on_c, 0, 72, 90
1, 67043, Note_on_c, 0, 62, 51
1, 67043, Note_off_c, 0, 62, 127
1, 67051, Note_off_c, 0, 72, 68
1, 67055, Note_off_c, 0, 60, 67
1, 67097, Note_on_c, 0, 71, 101
1, 67099, Note_on_c, 0, 59, 97
1, 67294, Control_c, 0, 64, 45
1, 67309, Control_c, 0, 64, 64
1, 67323, Control_c, 0, 64, 67
1, 67338, Control_c, 0, 64, 70
1, 67353, Control_c, 0, 64, 74
1, 67359, Note_off_c, 0, 44, 63
1, 67368, Control_c, 0, 64, 78
1, 67368, Note_off_c, 0, 55, 58
1, 67377, Note_off_c, 0, 52, 61
1, 67380, Note_off_c, 0, 59, 60
1, 67383, Control_c, 0, 64, 82
1, 67383, Note_off_c, 0, 49, 64
1, 67398, Control_c, 0, 64, 84
1, 67413, Control_c, 0, 64, 85
1, 67428, Control_c, 0, 64, 86
1, 67443, Control_c, 0, 64, 87
1, 67458, Control_c, 0, 64, 87
1, 67516, Control_c, 0, 64, 88
1, 67608, Note_on_c, 0, 66, 87
1, 67613, Note_on_c, 0, 63, 84
1, 67633, Note_off_c, 0, 66, 65
1, 67635, Control_c, 0, 64, 87
1, 67636, Note_off_c, 0, 63, 65
1, 67636, Note_off_c, 0, 71, 56
1, 67686, Note_on_c, 0, 64, 76
1, 67690, Note_on_c, 0, 67, 86
1, 67717, Note_off_c, 0, 64, 62
1, 67763, Note_on_c, 0, 65, 89
1, 67766, Note_off_c, 0, 67, 40
1, 67767, Note_on_c, 0, 71, 88
1, 67803, Note_off_c, 0, 65, 65
1, 67812, Control_c, 0, 64, 85
1, 67827, Control_c, 0, 64, 73
1, 67832, Note_off_c, 0, 71, 60
1, 67842, Control_c, 0, 64, 59
1, 67855, Note_on_c, 0, 70, 104
1, 67856, Note_on_c, 0, 75, 99
1, 67857, Control_c, 0, 64, 44
1, 67872, Control_c, 0, 64, 35
1, 67879, Note_off_c, 0, 75, 66
1, 67887, Note_off_c, 0, 70, 65
1, 67887, Control_c, 0, 64, 0
1, 67931, Control_c, 0, 64, 43
1, 67941, Note_on_c, 0, 71, 75
1, 67942, Note_on_c, 0, 65, 72
1, 67946, Control_c, 0, 64, 60
1, 67961, Control_c, 0, 64, 68
1, 67976, Control_c, 0, 64, 75
1, 67990, Control_c, 0, 64, 79
1, 68001, Note_off_c, 0, 71, 62
1, 68005, Control_c, 0, 64, 80
1, 68021, Note_on_c, 0, 67, 87
1, 68026, Note_off_c, 0, 65, 63
1, 68032, Note_on_c, 0, 64, 77
1, 68042, Control_c, 0, 64, 81
1, 68067, Note_off_c, 0, 67, 60
1, 68080, Note_off_c, 0, 64, 61
1, 68087, Control_c, 0, 64, 81
1, 68101, Control_c, 0, 64, 82
1, 68116, Note_on_c, 0, 63, 89
1, 68116, Control_c, 0, 64, 84
1, 68117, Note_on_c, 0, 66, 97
1, 68131, Control_c, 0, 64, 86
1, 68146, Control_c, 0, 64, 89
1, 68149, Note_off_c, 0, 66, 59
1, 68149, Note_off_c, 0, 63, 56
1, 68161, Control_c, 0, 64, 91
1, 68176, Control_c, 0, 64, 91
1, 68191, Control_c, 0, 64, 91
1, 68206, Control_c, 0, 64, 84
1, 68211, Poly_aftertouch_c, 0, 32, 127
1, 68221, Control_c, 0, 64, 67
1, 68236, Control_c, 0, 64, 51
1, 68237, Poly_aftertouch_c, 0, 32, 0
1, 68242, Note_on_c, 0, 55, 102
1, 68247, Note_on_c, 0, 44, 104
1, 68247, Note_on_c, 0, 48, 102
1, 68248, Note_on_c, 0, 32, 90
1, 68250, Note_on_c, 0, 52, 90
1, 68250, Control_c, 0, 64, 44
1, 68265, Control_c, 0, 64, 48
1, 68271, Note_off_c, 0, 44, 67
1, 68272, Note_off_c, 0, 32, 64
1, 68273, Note_off_c, 0, 48, 65
1, 68280, Control_c, 0, 64, 57
1, 68295, Control_c, 0, 64, 66
1, 68304, Note_off_c, 0, 52, 63
1, 68310, Control_c, 0, 64, 74
1, 68325, Control_c, 0, 64, 83
1, 68329, Note_off_c, 0, 55, 63
1, 68339, Control_c, 0, 64, 85
1, 68452, Note_on_c, 0, 55, 100
1, 68456, Note_on_c, 0, 44, 89
1, 68468, Note_on_c, 0, 52, 70
1, 68483, Note_on_c, 0, 48, 49
1, 68487, Note_off_c, 0, 52, 62
1, 68495, Note_off_c, 0, 55, 54
1, 68512, Note_off_c, 0, 44, 58
1, 68516, Note_off_c, 0, 48, 55
1, 68575, Note_on_c, 0, 55, 90
1, 68581, Note_on_c, 0, 44, 74
1, 68582, Note_on_c, 0, 52, 74
1, 68587, Note_on_c, 0, 48, 78
1, 68616, Note_off_c, 0, 44, 64
1, 68619, Note_off_c, 0, 52, 61
1, 68620, Note_off_c, 0, 55, 61
1, 68626, Note_off_c, 0, 48, 61
1, 68644, Poly_aftertouch_c, 0, 66, 0
1, 68666, Note_on_c, 0, 55, 84
1, 68675, Note_on_c, 0, 52, 71
1, 68676, Note_on_c, 0, 44, 73
1, 68680, Note_on_c, 0, 48, 76
1, 68721, Note_on_c, 0, 60, 96
1, 68727, Note_on_c, 0, 72, 96
1, 68739, Control_c, 0, 64, 84
1, 68751, Note_off_c, 0, 72, 64
1, 68754, Control_c, 0, 64, 76
1, 68765, Note_off_c, 0, 60, 67
1, 68776, Control_c, 0, 64, 61
1, 68791, Control_c, 0, 64, 0
1, 68802, Note_on_c, 0, 71, 93
1, 68811, Note_on_c, 0, 59, 95
1, 68954, Control_c, 0, 64, 48
1, 68969, Control_c, 0, 64, 67
1, 68984, Control_c, 0, 64, 70
1, 68999, Control_c, 0, 64, 73
1, 69011, Note_off_c, 0, 44, 63
1, 69014, Control_c, 0, 64, 74
1, 69028, Note_off_c, 0, 55, 62
1, 69029, Control_c, 0, 64, 77
1, 69030, Note_off_c, 0, 48, 60
1, 69043, Control_c, 0, 64, 80
1, 69044, Note_off_c, 0, 52, 63
1, 69058, Control_c, 0, 64, 81
1, 69073, Control_c, 0, 64, 82
1, 69079, Note_off_c, 0, 59, 57
1, 69088, Control_c, 0, 64, 82
1, 69118, Control_c, 0, 64, 83
1, 69245, Note_on_c, 0, 66, 87
1, 69247, Note_on_c, 0, 63, 86
1, 69267, Note_off_c, 0, 66, 69
1, 69270, Note_off_c, 0, 63, 67
1, 69281, Control_c, 0, 64, 82
1, 69286, Note_off_c, 0, 71, 59
1, 69315, Note_on_c, 0, 64, 84
1, 69321, Note_on_c, 0, 67, 86
1, 69347, Note_off_c, 0, 64, 62
1, 69374, Note_off_c, 0, 67, 58
1, 69400, Note_on_c, 0, 65, 90
1, 69404, Note_on_c, 0, 71, 87
1, 69437, Note_off_c, 0, 65, 64
1, 69461, Note_off_c, 0, 71, 62
1, 69485, Note_on_c, 0, 70, 95
1, 69486, Note_on_c, 0, 75, 94
1, 69502, Note_off_c, 0, 75, 75
1, 69507, Note_off_c, 0, 70, 65
1, 69577, Note_on_c, 0, 71, 88
1, 69578, Note_on_c, 0, 65, 84
1, 69654, Note_off_c, 0, 71, 61
1, 69659, Note_on_c, 0, 67, 87
1, 69663, Note_off_c, 0, 65, 62
1, 69674, Note_on_c, 0, 64, 80
1, 69693, Note_off_c, 0, 67, 62
1, 69751, Note_on_c, 0, 63, 92
1, 69753, Note_on_c, 0, 66, 95
1, 69754, Note_off_c, 0, 64, 37
1, 69779, Note_off_c, 0, 63, 62
1, 69804, Note_off_c, 0, 66, 58
1, 69823, Control_c, 0, 64, 76
1, 69838, Control_c, 0, 64, 59
1, 69853, Control_c, 0, 64, 0
1, 69872, Note_on_c, 0, 55, 103
1, 69874, Note_on_c, 0, 52, 92
1, 69875, Note_on_c, 0, 49, 90
1, 69875, Note_on_c, 0, 44, 86
1, 69928, Note_off_c, 0, 52, 61
1, 69928, Note_off_c, 0, 55, 57
1, 69929, Note_off_c, 0, 44, 62
1, 69931, Note_off_c, 0, 49, 62
1, 69941, Control_c, 0, 64, 41
1, 69956, Control_c, 0, 64, 55
1, 69986, Control_c, 0, 64, 53
1, 70000, Control_c, 0, 64, 51
1, 70005, Note_on_c, 0, 55, 70
1, 70006, Note_on_c, 0, 44, 67
1, 70015, Note_on_c, 0, 52, 47
1, 70024, Note_on_c, 0, 49, 41
1, 70030, Control_c, 0, 64, 52
1, 70033, Note_off_c, 0, 55, 64
1, 70040, Note_off_c, 0, 52, 57
1, 70042, Note_off_c, 0, 44, 64
1, 70045, Control_c, 0, 64, 55
1, 70057, Note_off_c, 0, 49, 48
1, 70060, Control_c, 0, 64, 58
1, 70075, Control_c, 0, 64, 60
1, 70090, Control_c, 0, 64, 61
1, 70105, Note_on_c, 0, 44, 72
1, 70105, Control_c, 0, 64, 62
1, 70108, Note_on_c, 0, 55, 76
1, 70111, Note_on_c, 0, 52, 62
1, 70119, Control_c, 0, 64, 63
1, 70132, Note_on_c, 0, 49, 53
1, 70138, Note_off_c, 0, 55, 61
1, 70141, Note_off_c, 0, 52, 64
1, 70144, Note_off_c, 0, 44, 61
1, 70149, Control_c, 0, 64, 64
1, 70159, Note_off_c, 0, 49, 56
1, 70198, Note_on_c, 0, 55, 73
1, 70203, Note_on_c, 0, 44, 72
1, 70216, Note_on_c, 0, 52, 58
1, 70222, Note_on_c, 0, 49, 58
1, 70233, Note_on_c, 0, 87, 85
1, 70236, Note_on_c, 0, 80, 79
1, 70237, Control_c, 0, 64, 63
1, 70252, Control_c, 0, 64, 63
1, 70272, Note_off_c, 0, 80, 66
1, 70275, Control_c, 0, 64, 62
1, 70289, Note_off_c, 0, 87, 58
1, 70304, Control_c, 0, 64, 62
1, 70318, Note_on_c, 0, 88, 87
1, 70322, Note_on_c, 0, 79, 70
1, 70322, Note_on_c, 0, 87, 44
1, 70344, Note_off_c, 0, 79, 69
1, 70361, Note_off_c, 0, 87, 44
1, 70380, Note_on_c, 0, 89, 77
1, 70397, Note_on_c, 0, 78, 78
1, 70408, Control_c, 0, 64, 60
1, 70412, Note_off_c, 0, 88, 67
1, 70419, Note_off_c, 0, 78, 67
1, 70421, Note_on_c, 0, 87, 9
1, 70423, Control_c, 0, 64, 48
1, 70428, Note_off_c, 0, 89, 66
1, 70433, Note_off_c, 0, 87, 33
1, 70438, Control_c, 0, 64, 0
1, 70457, Note_on_c, 0, 77, 101
1, 70459, Note_on_c, 0, 90, 104
1, 70492, Note_off_c, 0, 77, 67
1, 70497, Control_c, 0, 64, 36
1, 70507, Note_off_c, 0, 90, 65
1, 70512, Control_c, 0, 64, 59
1, 70526, Control_c, 0, 64, 67
1, 70541, Control_c, 0, 64, 71
1, 70556, Control_c, 0, 64, 73
1, 70571, Control_c, 0, 64, 75
1, 70586, Control_c, 0, 64, 75
1, 70593, Note_off_c, 0, 55, 61
1, 70602, Note_off_c, 0, 44, 63
1, 70602, Control_c, 0, 64, 76
1, 70604, Note_off_c, 0, 52, 63
1, 70611, Note_off_c, 0, 49, 63
1, 70616, Control_c, 0, 64, 78
1, 70631, Control_c, 0, 64, 80
1, 70646, Control_c, 0, 64, 82
1, 70661, Control_c, 0, 64, 85
1, 70675, Control_c, 0, 64, 88
1, 70690, Control_c, 0, 64, 92
1, 70705, Control_c, 0, 64, 96
1, 70720, Control_c, 0, 64, 100
1, 70757, Note_on_c, 0, 52, 96
1, 70757, Note_on_c, 0, 55, 101
1, 70763, Note_on_c, 0, 44, 89
1, 70764, Control_c, 0, 64, 98
1, 70766, Note_on_c, 0, 48, 86
1, 70779, Control_c, 0, 64, 75
1, 70794, Control_c, 0, 64, 53
1, 70809, Control_c, 0, 64, 0
1, 70817, Note_off_c, 0, 55, 53
1, 70818, Note_off_c, 0, 48, 43
1, 70821, Note_off_c, 0, 52, 52
1, 70829, Note_off_c, 0, 44, 59
1, 70869, Note_on_c, 0, 55, 71
1, 70871, Note_on_c, 0, 52, 64
1, 70874, Note_on_c, 0, 44, 60
1, 70882, Note_on_c, 0, 48, 65
1, 70912, Note_off_c, 0, 55, 66
1, 70918, Note_off_c, 0, 44, 59
1, 70918, Note_off_c, 0, 52, 62
1, 70924, Note_off_c, 0, 48, 66
1, 70978, Note_on_c, 0, 52, 71
1, 70978, Note_on_c, 0, 55, 80
1, 70983, Note_on_c, 0, 44, 70
1, 70992, Note_on_c, 0, 48, 71
1, 71020, Note_off_c, 0, 55, 57
1, 71023, Control_c, 0, 64, 33
1, 71025, Note_off_c, 0, 52, 63
1, 71026, Note_off_c, 0, 48, 66
1, 71029, Note_off_c, 0, 44, 64
1, 71038, Control_c, 0, 64, 40
1, 71053, Control_c, 0, 64, 47
1, 71067, Note_on_c, 0, 55, 72
1, 71067, Control_c, 0, 64, 54
1, 71070, Note_on_c, 0, 52, 59
1, 71081, Note_on_c, 0, 44, 74
1, 71082, Control_c, 0, 64, 58
1, 71089, Note_on_c, 0, 80, 80
1, 71091, Note_on_c, 0, 48, 69
1, 71092, Note_on_c, 0, 73, 74
1, 71097, Control_c, 0, 64, 58
1, 71112, Control_c, 0, 64, 58
1, 71119, Note_off_c, 0, 73, 64
1, 71127, Control_c, 0, 64, 57
1, 71136, Note_off_c, 0, 80, 62
1, 71142, Control_c, 0, 64, 57
1, 71157, Control_c, 0, 64, 56
1, 71161, Note_on_c, 0, 82, 84
1, 71183, Note_on_c, 0, 72, 68
1, 71206, Note_off_c, 0, 72, 69
1, 71210, Note_off_c, 0, 82, 63
1, 71246, Control_c, 0, 64, 56
1, 71247, Note_on_c, 0, 82, 79
1, 71255, Note_on_c, 0, 72, 70
1, 71260, Control_c, 0, 64, 55
1, 71271, Note_off_c, 0, 72, 67
1, 71275, Note_on_c, 0, 80, 36
1, 71275, Note_off_c, 0, 80, 127
1, 71275, Control_c, 0, 64, 51
1, 71290, Control_c, 0, 64, 43
1, 71305, Control_c, 0, 64, 0
1, 71324, Note_on_c, 0, 83, 92
1, 71325, Note_on_c, 0, 70, 102
1, 71355, Note_off_c, 0, 82, 65
1, 71367, Note_off_c, 0, 70, 66
1, 71370, Note_off_c, 0, 83, 66
1, 71395, Control_c, 0, 64, 37
1, 71410, Control_c, 0, 64, 58
1, 71425, Control_c, 0, 64, 63
1, 71439, Control_c, 0, 64, 64
1, 71454, Control_c, 0, 64, 65
1, 71469, Control_c, 0, 64, 65
1, 71484, Control_c, 0, 64, 67
1, 71498, Control_c, 0, 64, 69
1, 71507, Note_off_c, 0, 55, 61
1, 71509, Note_off_c, 0, 48, 61
1, 71513, Control_c, 0, 64, 70
1, 71519, Note_off_c, 0, 44, 63
1, 71520, Note_off_c, 0, 52, 63
1, 71528, Control_c, 0, 64, 71
1, 71543, Control_c, 0, 64, 72
1, 71558, Control_c, 0, 64, 73
1, 71572, Control_c, 0, 64, 74
1, 71587, Control_c, 0, 64, 75
1, 71602, Control_c, 0, 64, 77
1, 71617, Control_c, 0, 64, 79
1, 71632, Control_c, 0, 64, 82
1, 71646, Control_c, 0, 64, 83
1, 71673, Note_on_c, 0, 52, 91
1, 71673, Note_on_c, 0, 55, 96
1, 71676, Control_c, 0, 64, 82
1, 71678, Note_on_c, 0, 49, 84
1, 71684, Note_on_c, 0, 44, 70
1, 71690, Control_c, 0, 64, 70
1, 71705, Control_c, 0, 64, 51
1, 71708, Note_off_c, 0, 44, 42
1, 71720, Control_c, 0, 64, 0
1, 71730, Note_off_c, 0, 49, 58
1, 71730, Note_off_c, 0, 55, 56
1, 71732, Note_off_c, 0, 52, 58
1, 71787, Control_c, 0, 64, 39
1, 71797, Note_on_c, 0, 52, 60
1, 71800, Note_on_c, 0, 55, 69
1, 71802, Control_c, 0, 64, 51
1, 71808, Note_on_c, 0, 44, 69
1, 71809, Note_on_c, 0, 49, 56
1, 71817, Control_c, 0, 64, 55
1, 71832, Control_c, 0, 64, 55
1, 71847, Note_off_c, 0, 49, 63
1, 71850, Note_off_c, 0, 44, 63
1, 71857, Note_off_c, 0, 52, 63
1, 71860, Note_off_c, 0, 55, 58
1, 71904, Note_on_c, 0, 55, 63
1, 71911, Note_on_c, 0, 52, 53
1, 71916, Note_on_c, 0, 44, 64
1, 71920, Control_c, 0, 64, 55
1, 71923, Note_on_c, 0, 49, 61
1, 71946, Note_off_c, 0, 52, 64
1, 71946, Note_off_c, 0, 55, 59
1, 71952, Note_off_c, 0, 49, 63
1, 71953, Note_off_c, 0, 44, 66
1, 71964, Control_c, 0, 64, 54
1, 71979, Control_c, 0, 64, 54
1, 71994, Control_c, 0, 64, 53
1, 71996, Note_on_c, 0, 55, 62
1, 72007, Note_on_c, 0, 52, 57
1, 72008, Control_c, 0, 64, 49
1, 72012, Note_on_c, 0, 44, 61
1, 72017, Note_on_c, 0, 49, 66
1, 72023, Control_c, 0, 64, 43
1, 72038, Control_c, 0, 64, 31
1, 72053, Control_c, 0, 64, 0
1, 72058, Note_on_c, 0, 75, 87
1, 72068, Note_on_c, 0, 68, 68
1, 72093, Note_off_c, 0, 68, 69
1, 72109, Note_off_c, 0, 75, 62
1, 72141, Note_on_c, 0, 76, 82
1, 72156, Note_on_c, 0, 67, 61
1, 72176, Note_off_c, 0, 67, 62
1, 72201, Note_off_c, 0, 76, 0
1, 72216, Note_on_c, 0, 77, 78
1, 72222, Poly_aftertouch_c, 0, 76, 0
1, 72239, Note_on_c, 0, 66, 66
1, 72267, Note_off_c, 0, 66, 65
1, 72294, Note_on_c, 0, 78, 89
1, 72299, Note_off_c, 0, 77, 62
1, 72302, Note_on_c, 0, 65, 75
1, 72340, Note_off_c, 0, 65, 59
1, 72349, Note_off_c, 0, 78, 62
1, 72365, Control_c, 0, 64, 48
1, 72380, Control_c, 0, 64, 60
1, 72394, Control_c, 0, 64, 63
1, 72409, Control_c, 0, 64, 64
1, 72424, Control_c, 0, 64, 65
1, 72439, Control_c, 0, 64, 65
1, 72454, Control_c, 0, 64, 66
1, 72498, Control_c, 0, 64, 66
1, 72550, Control_c, 0, 64, 67
1, 72588, Note_off_c, 0, 44, 59
1, 72593, Note_off_c, 0, 55, 57
1, 72603, Note_off_c, 0, 49, 62
1, 72608, Note_off_c, 0, 52, 62
1, 72609, Control_c, 0, 64, 67
1, 72624, Control_c, 0, 64, 68
1, 72668, Control_c, 0, 64, 67
1, 72676, Note_on_c, 0, 52, 80
1, 72676, Note_on_c, 0, 55, 84
1, 72681, Note_on_c, 0, 48, 81
1, 72683, Control_c, 0, 64, 63
1, 72688, Note_on_c, 0, 44, 75
1, 72699, Control_c, 0, 64, 53
1, 72713, Control_c, 0, 64, 33
1, 72728, Control_c, 0, 64, 0
1, 72752, Note_off_c, 0, 55, 60
1, 72755, Note_off_c, 0, 44, 63
1, 72755, Note_off_c, 0, 48, 62
1, 72756, Note_off_c, 0, 52, 63
1, 72773, Control_c, 0, 64, 35
1, 72787, Control_c, 0, 64, 41
1, 72787, Control_c, 0, 67, 45
1, 72802, Control_c, 0, 64, 42
1, 72802, Control_c, 0, 67, 60
1, 72813, Note_on_c, 0, 55, 75
1, 72817, Note_on_c, 0, 52, 67
1, 72817, Control_c, 0, 67, 70
1, 72819, Note_on_c, 0, 44, 66
1, 72829, Note_on_c, 0, 48, 67
1, 72832, Control_c, 0, 67, 76
1, 72847, Control_c, 0, 67, 79
1, 72862, Control_c, 0, 64, 41
1, 72867, Note_off_c, 0, 44, 60
1, 72873, Note_off_c, 0, 48, 62
1, 72873, Note_off_c, 0, 52, 61
1, 72873, Note_off_c, 0, 55, 59
1, 72877, Control_c, 0, 67, 78
1, 72892, Control_c, 0, 67, 77
1, 72907, Control_c, 0, 67, 75
1, 72921, Control_c, 0, 64, 41
1, 72921, Control_c, 0, 67, 75
1, 72925, Note_on_c, 0, 55, 63
1, 72928, Note_on_c, 0, 52, 58
1, 72936, Control_c, 0, 67, 74
1, 72938, Note_on_c, 0, 44, 60
1, 72945, Note_on_c, 0, 48, 68
1, 72951, Control_c, 0, 64, 40
1, 72951, Control_c, 0, 67, 73
1, 72966, Control_c, 0, 64, 40
1, 72978, Note_off_c, 0, 44, 65
1, 72978, Note_off_c, 0, 55, 61
1, 72980, Note_off_c, 0, 52, 62
1, 72981, Note_off_c, 0, 48, 60
1, 72981, Control_c, 0, 64, 39
1, 73011, Control_c, 0, 64, 39
1, 73034, Note_on_c, 0, 55, 60
1, 73037, Note_on_c, 0, 52, 55
1, 73041, Control_c, 0, 64, 38
1, 73048, Note_on_c, 0, 44, 66
1, 73056, Note_on_c, 0, 48, 70
1, 73085, Control_c, 0, 64, 38
1, 73097, Note_on_c, 0, 68, 79
1, 73100, Control_c, 0, 64, 37
1, 73100, Control_c, 0, 67, 73
1, 73109, Note_on_c, 0, 61, 67
1, 73115, Control_c, 0, 64, 36
1, 73129, Control_c, 0, 64, 33
1, 73129, Control_c, 0, 67, 72
1, 73136, Note_off_c, 0, 61, 66
1, 73144, Control_c, 0, 64, 0
1, 73144, Control_c, 0, 67, 71
1, 73148, Note_off_c, 0, 68, 60
1, 73159, Control_c, 0, 67, 70
1, 73174, Control_c, 0, 67, 69
1, 73189, Control_c, 0, 67, 68
1, 73190, Note_on_c, 0, 69, 75
1, 73204, Control_c, 0, 67, 66
1, 73208, Note_on_c, 0, 60, 61
1, 73218, Control_c, 0, 67, 66
1, 73225, Note_off_c, 0, 69, 62
1, 73232, Note_off_c, 0, 60, 64
1, 73233, Control_c, 0, 67, 64
1, 73248, Control_c, 0, 67, 64
1, 73270, Control_c, 0, 67, 63
1, 73279, Note_on_c, 0, 70, 82
1, 73359, Control_c, 0, 67, 64
1, 73371, Note_on_c, 0, 71, 84
1, 73385, Note_on_c, 0, 58, 71
1, 73389, Control_c, 0, 67, 64
1, 73404, Note_off_c, 0, 70, 61
1, 73418, Note_off_c, 0, 58, 57
1, 73418, Control_c, 0, 67, 64
1, 73448, Note_off_c, 0, 71, 61
1, 73507, Control_c, 0, 67, 63
1, 73536, Control_c, 0, 64, 37
1, 73536, Control_c, 0, 67, 62
1, 73551, Control_c, 0, 64, 50
1, 73551, Control_c, 0, 67, 62
1, 73566, Control_c, 0, 64, 59
1, 73581, Control_c, 0, 64, 61
1, 73596, Control_c, 0, 64, 62
1, 73610, Control_c, 0, 64, 63
1, 73625, Control_c, 0, 64, 65
1, 73640, Control_c, 0, 64, 66
1, 73655, Control_c, 0, 64, 67
1, 73670, Control_c, 0, 64, 69
1, 73685, Control_c, 0, 64, 69
1, 73700, Control_c, 0, 64, 70
1, 73714, Control_c, 0, 64, 71
1, 73759, Control_c, 0, 64, 71
1, 73774, Control_c, 0, 67, 62
1, 73789, Control_c, 0, 67, 63
1, 73804, Control_c, 0, 67, 64
1, 73834, Control_c, 0, 67, 64
1, 73893, Control_c, 0, 67, 64
1, 73908, Control_c, 0, 67, 62
1, 73923, Control_c, 0, 67, 60
1, 73938, Control_c, 0, 67, 59
1, 73952, Control_c, 0, 67, 58
1, 73967, Control_c, 0, 64, 72
1, 73967, Control_c, 0, 67, 57
1, 74019, Control_c, 0, 64, 72
1, 74019, Control_c, 0, 67, 58
1, 74033, Control_c, 0, 67, 60
1, 74048, Control_c, 0, 64, 73
1, 74048, Control_c, 0, 67, 62
1, 74063, Control_c, 0, 67, 64
1, 74078, Control_c, 0, 67, 66
1, 74093, Control_c, 0, 67, 71
1, 74108, Control_c, 0, 67, 77
1, 74115, Note_off_c, 0, 55, 31
1, 74123, Control_c, 0, 67, 80
1, 74138, Control_c, 0, 67, 83
1, 74153, Control_c, 0, 67, 86
1, 74167, Control_c, 0, 67, 105
1, 74182, Control_c, 0, 67, 127
1, 74194, Note_off_c, 0, 44, 38
1, 74288, Note_off_c, 0, 48, 24
1, 74557, Note_on_c, 0, 55, 42
1, 74565, Note_on_c, 0, 48, 41
1, 74567, Control_c, 0, 64, 72
1, 74571, Note_off_c, 0, 52, 50
1, 74582, Control_c, 0, 64, 67
1, 74597, Control_c, 0, 64, 60
1, 74612, Control_c, 0, 64, 49
1, 74627, Control_c, 0, 64, 39
1, 74642, Control_c, 0, 64, 31
1, 74656, Control_c, 0, 64, 32
1, 74671, Control_c, 0, 64, 36
1, 74686, Control_c, 0, 64, 44
1, 74701, Control_c, 0, 64, 51
1, 74716, Control_c, 0, 64, 58
1, 74731, Control_c, 0, 64, 62
1, 74746, Control_c, 0, 64, 64
1, 74768, Control_c, 0, 64, 66
1, 74782, Control_c, 0, 64, 67
1, 74797, Control_c, 0, 64, 69
1, 74812, Control_c, 0, 64, 71
1, 74827, Control_c, 0, 64, 73
1, 74841, Control_c, 0, 64, 75
1, 74847, Note_off_c, 0, 55, 36
1, 74856, Control_c, 0, 64, 76
1, 74866, Note_off_c, 0, 48, 40
1, 74871, Control_c, 0, 64, 77
1, 74886, Control_c, 0, 64, 78
1, 74901, Control_c, 0, 64, 79
1, 74916, Control_c, 0, 64, 80
1, 74931, Control_c, 0, 64, 80
1, 74960, Control_c, 0, 64, 81
1, 74975, Control_c, 0, 64, 81
1, 75002, Note_on_c, 0, 55, 34
1, 75008, Note_on_c, 0, 48, 38
1, 75049, Control_c, 0, 64, 82
1, 75236, Note_off_c, 0, 48, 0
1, 75236, Note_off_c, 0, 55, 0
1, 75260, Note_on_c, 0, 55, 10
1, 75262, Note_on_c, 0, 48, 7
1, 75268, Note_on_c, 0, 63, 49
1, 75297, Note_on_c, 0, 60, 11
1, 75338, Note_off_c, 0, 55, 40
1, 75349, Note_off_c, 0, 48, 41
1, 75453, Note_on_c, 0, 55, 25
1, 75464, Note_on_c, 0, 48, 36
1, 75494, Note_off_c, 0, 55, 50
1, 75509, Note_off_c, 0, 48, 49
1, 75650, Control_c, 0, 64, 81
1, 75664, Control_c, 0, 64, 81
1, 75676, Note_on_c, 0, 68, 53
1, 75679, Control_c, 0, 64, 78
1, 75693, Control_c, 0, 64, 72
1, 75706, Note_on_c, 0, 43, 28
1, 75706, Note_on_c, 0, 36, 21
1, 75708, Control_c, 0, 64, 66
1, 75715, Note_on_c, 0, 65, 27
1, 75723, Control_c, 0, 64, 58
1, 75737, Control_c, 0, 64, 50
1, 75742, Note_off_c, 0, 60, 42
1, 75752, Control_c, 0, 64, 44
1, 75767, Control_c, 0, 64, 40
1, 75781, Control_c, 0, 64, 39
1, 75796, Control_c, 0, 64, 39
1, 75811, Control_c, 0, 64, 43
1, 75826, Control_c, 0, 64, 51
1, 75838, Note_off_c, 0, 63, 36
1, 75841, Control_c, 0, 64, 59
1, 75855, Control_c, 0, 64, 64
1, 75870, Control_c, 0, 64, 67
1, 75885, Control_c, 0, 64, 70
1, 75900, Control_c, 0, 64, 73
1, 75915, Control_c, 0, 64, 75
1, 75926, Note_off_c, 0, 65, 50
1, 75929, Control_c, 0, 64, 77
1, 75944, Control_c, 0, 64, 79
1, 75959, Control_c, 0, 64, 81
1, 75973, Note_off_c, 0, 68, 62
1, 75974, Control_c, 0, 64, 83
1, 75989, Control_c, 0, 64, 85
1, 76004, Control_c, 0, 64, 86
1, 76019, Control_c, 0, 64, 86
1, 76034, Control_c, 0, 64, 87
1, 76063, Control_c, 0, 64, 87
1, 76090, Note_off_c, 0, 36, 42
1, 76115, Note_off_c, 0, 43, 49
1, 76171, Note_on_c, 0, 74, 59
1, 76193, Note_on_c, 0, 70, 45
1, 76287, Note_off_c, 0, 70, 35
1, 76304, Note_on_c, 0, 67, 59
1, 76570, Note_on_c, 0, 53, 53
1, 76827, Control_c, 0, 64, 87
1, 76853, Note_on_c, 0, 58, 60
1, 76857, Control_c, 0, 64, 86
1, 76872, Control_c, 0, 64, 84
1, 76886, Control_c, 0, 64, 80
1, 76901, Control_c, 0, 64, 76
1, 76916, Control_c, 0, 64, 74
1, 76923, Note_off_c, 0, 53, 50
1, 76931, Control_c, 0, 64, 73
1, 76946, Control_c, 0, 64, 73
1, 77058, Control_c, 0, 64, 73
1, 77073, Control_c, 0, 64, 74
1, 77088, Control_c, 0, 64, 74
1, 77103, Control_c, 0, 64, 75
1, 77221, Control_c, 0, 64, 75
1, 77233, Note_off_c, 0, 58, 62
1, 77268, Note_on_c, 0, 63, 63
1, 77295, Control_c, 0, 64, 75
1, 77298, Note_off_c, 0, 67, 36
1, 77309, Control_c, 0, 64, 71
1, 77324, Control_c, 0, 64, 64
1, 77330, Note_off_c, 0, 63, 59
1, 77330, Note_off_c, 0, 74, 63
1, 77339, Control_c, 0, 64, 54
1, 77354, Control_c, 0, 64, 48
1, 77361, Note_on_c, 0, 56, 52
1, 77369, Control_c, 0, 64, 46
1, 77384, Control_c, 0, 64, 49
1, 77399, Control_c, 0, 64, 56
1, 77401, Note_on_c, 0, 48, 37
1, 77414, Control_c, 0, 64, 62
1, 77428, Control_c, 0, 64, 64
1, 77443, Control_c, 0, 64, 66
1, 77458, Control_c, 0, 64, 68
1, 77473, Control_c, 0, 64, 70
1, 77488, Control_c, 0, 64, 72
1, 77502, Control_c, 0, 64, 75
1, 77517, Control_c, 0, 64, 78
1, 77532, Control_c, 0, 64, 80
1, 77547, Control_c, 0, 64, 82
1, 77557, Note_off_c, 0, 56, 60
1, 77562, Control_c, 0, 64, 84
1, 77576, Control_c, 0, 64, 85
1, 77590, Note_off_c, 0, 48, 56
1, 77591, Control_c, 0, 64, 86
1, 77595, Note_on_c, 0, 72, 66
1, 77605, Note_on_c, 0, 63, 56
1, 77606, Control_c, 0, 64, 86
1, 77620, Control_c, 0, 64, 87
1, 77635, Control_c, 0, 64, 87
1, 77638, Note_off_c, 0, 63, 55
1, 77694, Control_c, 0, 64, 88
1, 77852, Control_c, 0, 64, 87
1, 77881, Control_c, 0, 64, 85
1, 77893, Note_on_c, 0, 77, 56
1, 77896, Note_on_c, 0, 24, 49
1, 77896, Control_c, 0, 64, 78
1, 77897, Note_on_c, 0, 68, 39
1, 77911, Control_c, 0, 64, 69
1, 77926, Control_c, 0, 64, 56
1, 77930, Note_on_c, 0, 36, 8
1, 77939, Control_c, 0, 64, 41
1, 77941, Note_off_c, 0, 72, 58
1, 77954, Control_c, 0, 64, 0
1, 77999, Control_c, 0, 64, 34
1, 78013, Control_c, 0, 64, 48
1, 78028, Control_c, 0, 64, 59
1, 78043, Control_c, 0, 64, 65
1, 78058, Control_c, 0, 64, 69
1, 78073, Control_c, 0, 64, 72
1, 78087, Control_c, 0, 64, 74
1, 78102, Control_c, 0, 64, 76
1, 78117, Control_c, 0, 64, 78
1, 78120, Note_off_c, 0, 24, 41
1, 78132, Note_off_c, 0, 77, 63
1, 78132, Control_c, 0, 64, 80
1, 78147, Control_c, 0, 64, 83
1, 78147, Note_off_c, 0, 36, 36
1, 78162, Control_c, 0, 64, 84
1, 78176, Control_c, 0, 64, 86
1, 78191, Control_c, 0, 64, 88
1, 78206, Control_c, 0, 64, 89
1, 78221, Control_c, 0, 64, 90
1, 78236, Control_c, 0, 64, 91
1, 78250, Control_c, 0, 64, 92
1, 78265, Control_c, 0, 64, 93
1, 78280, Control_c, 0, 64, 93
1, 78295, Control_c, 0, 64, 94
1, 78324, Control_c, 0, 64, 94
1, 78354, Control_c, 0, 64, 95
1, 78383, Control_c, 0, 64, 95
1, 78400, Note_on_c, 0, 82, 57
1, 78413, Control_c, 0, 64, 96
1, 78416, Note_on_c, 0, 74, 41
1, 78423, Note_off_c, 0, 68, 30
1, 78467, Note_off_c, 0, 82, 60
1, 78489, Note_off_c, 0, 74, 49
1, 78549, Note_on_c, 0, 67, 58
1, 78629, Control_c, 0, 64, 98
1, 78762, Control_c, 0, 67, 119
1, 78777, Control_c, 0, 67, 97
1, 78792, Control_c, 0, 67, 62
1, 78806, Control_c, 0, 67, 0
1, 78818, Note_on_c, 0, 70, 106
1, 78820, Note_off_c, 0, 67, 34
1, 78821, Control_c, 0, 64, 100
1, 78836, Control_c, 0, 64, 104
1, 78851, Control_c, 0, 64, 110
1, 78854, Note_off_c, 0, 70, 70
1, 78866, Control_c, 0, 64, 127
1, 79166, Note_on_c, 0, 65, 105
1, 79198, Note_off_c, 0, 65, 74
1, 79789, Note_on_c, 0, 60, 102
1, 79836, Note_off_c, 0, 60, 67
1, 79876, Note_on_c, 0, 59, 110
1, 79880, Note_on_c, 0, 55, 91
1, 79881, Note_on_c, 0, 52, 85
1, 79882, Control_c, 0, 64, 84
1, 79883, Note_on_c, 0, 44, 88
1, 79886, Note_on_c, 0, 49, 76
1, 79897, Control_c, 0, 64, 55
1, 79912, Control_c, 0, 64, 0
1, 80004, Note_off_c, 0, 44, 63
1, 80009, Note_off_c, 0, 52, 63
1, 80009, Note_off_c, 0, 55, 62
1, 80012, Note_off_c, 0, 49, 63
1, 80023, Control_c, 0, 64, 48
1, 80037, Control_c, 0, 64, 58
1, 80052, Control_c, 0, 64, 59
1, 80076, Note_on_c, 0, 55, 86
1, 80077, Note_on_c, 0, 52, 76
1, 80080, Note_on_c, 0, 44, 80
1, 80082, Note_on_c, 0, 49, 70
1, 80082, Control_c, 0, 64, 60
1, 80097, Control_c, 0, 64, 62
1, 80111, Control_c, 0, 64, 64
1, 80126, Control_c, 0, 64, 66
1, 80127, Note_off_c, 0, 55, 63
1, 80135, Note_off_c, 0, 52, 61
1, 80136, Note_off_c, 0, 49, 60
1, 80137, Note_off_c, 0, 44, 62
1, 80141, Control_c, 0, 64, 66
1, 80156, Control_c, 0, 64, 67
1, 80171, Control_c, 0, 64, 67
1, 80189, Note_on_c, 0, 55, 86
1, 80190, Note_on_c, 0, 52, 73
1, 80192, Note_on_c, 0, 44, 73
1, 80197, Note_on_c, 0, 49, 65
1, 80216, Control_c, 0, 64, 68
1, 80231, Control_c, 0, 64, 68
1, 80236, Note_off_c, 0, 55, 61
1, 80240, Note_off_c, 0, 49, 61
1, 80243, Note_off_c, 0, 52, 62
1, 80246, Control_c, 0, 64, 69
1, 80252, Note_off_c, 0, 44, 64
1, 80261, Control_c, 0, 64, 71
1, 80275, Control_c, 0, 64, 73
1, 80290, Control_c, 0, 64, 75
1, 80305, Control_c, 0, 64, 78
1, 80308, Note_on_c, 0, 44, 68
1, 80308, Note_on_c, 0, 52, 68
1, 80309, Note_on_c, 0, 55, 81
1, 80311, Note_on_c, 0, 49, 68
1, 80320, Control_c, 0, 64, 81
1, 80335, Control_c, 0, 64, 83
1, 80350, Note_off_c, 0, 59, 66
1, 80350, Control_c, 0, 64, 85
1, 80365, Control_c, 0, 64, 86
1, 80380, Control_c, 0, 64, 86
1, 80394, Control_c, 0, 64, 87
1, 80453, Control_c, 0, 64, 87
1, 80660, Control_c, 0, 64, 87
1, 80662, Note_on_c, 0, 33, 90
1, 80675, Control_c, 0, 64, 86
1, 80690, Control_c, 0, 64, 79
1, 80693, Note_off_c, 0, 33, 64
1, 80696, Note_on_c, 0, 31, 30
1, 80696, Note_off_c, 0, 31, 127
1, 80705, Control_c, 0, 64, 66
1, 80720, Control_c, 0, 64, 49
1, 80735, Control_c, 0, 64, 0
1, 80740, Poly_aftertouch_c, 0, 31, 0
1, 80742, Note_on_c, 0, 32, 93
1, 80860, Control_c, 0, 64, 35
1, 80875, Control_c, 0, 64, 47
1, 80890, Control_c, 0, 64, 55
1, 80905, Control_c, 0, 64, 59
1, 80920, Control_c, 0, 64, 60
1, 80930, Note_off_c, 0, 49, 59
1, 80934, Control_c, 0, 64, 62
1, 80949, Control_c, 0, 64, 63
1, 80951, Note_off_c, 0, 55, 57
1, 80958, Note_off_c, 0, 44, 57
1, 80964, Control_c, 0, 64, 64
1, 80976, Note_off_c, 0, 52, 59
1, 80980, Control_c, 0, 64, 65
1, 80995, Control_c, 0, 64, 66
1, 81050, Note_on_c, 0, 52, 89
1, 81050, Note_on_c, 0, 55, 93
1, 81055, Note_on_c, 0, 44, 83
1, 81060, Note_on_c, 0, 48, 84
1, 81069, Control_c, 0, 64, 65
1, 81083, Control_c, 0, 64, 62
1, 81098, Control_c, 0, 64, 58
1, 81113, Control_c, 0, 64, 53
1, 81123, Note_off_c, 0, 44, 62
1, 81124, Note_off_c, 0, 55, 59
1, 81125, Note_off_c, 0, 52, 58
1, 81126, Note_off_c, 0, 48, 61
1, 81128, Control_c, 0, 64, 50
1, 81143, Control_c, 0, 64, 49
1, 81158, Control_c, 0, 64, 48
1, 81173, Control_c, 0, 64, 47
1, 81177, Note_on_c, 0, 52, 66
1, 81182, Note_on_c, 0, 44, 64
1, 81183, Note_on_c, 0, 55, 74
1, 81188, Control_c, 0, 64, 47
1, 81193, Note_on_c, 0, 48, 65
1, 81202, Control_c, 0, 64, 45
1, 81217, Control_c, 0, 64, 44
1, 81232, Control_c, 0, 64, 43
1, 81235, Note_off_c, 0, 52, 63
1, 81235, Note_off_c, 0, 48, 62
1, 81244, Note_off_c, 0, 44, 62
1, 81245, Note_off_c, 0, 55, 60
1, 81247, Control_c, 0, 64, 42
1, 81262, Control_c, 0, 64, 41
1, 81276, Control_c, 0, 64, 40
1, 81291, Control_c, 0, 64, 39
1, 81298, Note_on_c, 0, 55, 63
1, 81300, Note_on_c, 0, 44, 56
1, 81301, Note_on_c, 0, 52, 60
1, 81306, Control_c, 0, 64, 37
1, 81311, Note_on_c, 0, 48, 64
1, 81321, Control_c, 0, 64, 35
1, 81336, Control_c, 0, 64, 34
1, 81350, Control_c, 0, 64, 33
1, 81355, Note_off_c, 0, 48, 63
1, 81356, Note_off_c, 0, 52, 60
1, 81360, Note_off_c, 0, 55, 62
1, 81362, Note_off_c, 0, 44, 63
1, 81365, Control_c, 0, 64, 33
1, 81394, Control_c, 0, 64, 33
1, 81409, Control_c, 0, 64, 37
1, 81424, Note_on_c, 0, 55, 61
1, 81424, Control_c, 0, 64, 48
1, 81427, Note_on_c, 0, 44, 54
1, 81427, Note_on_c, 0, 52, 59
1, 81439, Control_c, 0, 64, 58
1, 81441, Note_on_c, 0, 48, 64
1, 81454, Control_c, 0, 64, 63
1, 81468, Control_c, 0, 64, 65
1, 81471, Note_off_c, 0, 32, 62
1, 81483, Control_c, 0, 64, 66
1, 81506, Control_c, 0, 64, 67
1, 81521, Control_c, 0, 64, 68
1, 81536, Control_c, 0, 64, 69
1, 81550, Control_c, 0, 64, 69
1, 81565, Control_c, 0, 64, 70
1, 81789, Note_on_c, 0, 60, 95
1, 81818, Control_c, 0, 64, 69
1, 81832, Control_c, 0, 64, 66
1, 81837, Note_off_c, 0, 60, 66
1, 81847, Control_c, 0, 64, 57
1, 81862, Control_c, 0, 64, 39
1, 81876, Note_on_c, 0, 59, 88
1, 81877, Control_c, 0, 64, 0
1, 81921, Control_c, 0, 64, 33
1, 81936, Control_c, 0, 64, 44
1, 81951, Control_c, 0, 64, 53
1, 81966, Control_c, 0, 64, 59
1, 81981, Control_c, 0, 64, 62
1, 81995, Control_c, 0, 64, 63
1, 82010, Control_c, 0, 64, 64
1, 82025, Control_c, 0, 64, 64
1, 82040, Control_c, 0, 64, 65
1, 82055, Control_c, 0, 64, 66
1, 82070, Control_c, 0, 64, 67
1, 82085, Control_c, 0, 64, 68
1, 82099, Control_c, 0, 64, 69
1, 82102, Note_off_c, 0, 48, 59
1, 82108, Note_off_c, 0, 55, 60
1, 82114, Control_c, 0, 64, 70
1, 82121, Note_off_c, 0, 44, 63
1, 82123, Note_off_c, 0, 52, 63
1, 82129, Control_c, 0, 64, 70
1, 82175, Note_on_c, 0, 44, 78
1, 82177, Note_on_c, 0, 52, 73
1, 82178, Note_on_c, 0, 55, 89
1, 82180, Note_on_c, 0, 49, 83
1, 82188, Control_c, 0, 64, 68
1, 82203, Control_c, 0, 64, 61
1, 82217, Control_c, 0, 64, 51
1, 82232, Control_c, 0, 64, 44
1, 82255, Control_c, 0, 64, 39
1, 82263, Note_off_c, 0, 55, 62
1, 82268, Note_off_c, 0, 44, 64
1, 82268, Note_off_c, 0, 49, 63
1, 82270, Control_c, 0, 64, 38
1, 82274, Note_off_c, 0, 52, 63
1, 82335, Note_on_c, 0, 52, 64
1, 82339, Note_on_c, 0, 44, 68
1, 82339, Note_on_c, 0, 55, 76
1, 82346, Note_on_c, 0, 49, 58
1, 82373, Control_c, 0, 64, 38
1, 82382, Note_off_c, 0, 55, 62
1, 82386, Note_off_c, 0, 49, 63
1, 82388, Control_c, 0, 64, 39
1, 82389, Note_off_c, 0, 52, 61
1, 82391, Note_off_c, 0, 44, 61
1, 82432, Control_c, 0, 64, 39
1, 82447, Control_c, 0, 64, 40
1, 82454, Note_on_c, 0, 55, 70
1, 82460, Note_on_c, 0, 52, 59
1, 82462, Control_c, 0, 64, 42
1, 82463, Note_on_c, 0, 44, 56
1, 82468, Note_on_c, 0, 49, 63
1, 82477, Control_c, 0, 64, 46
1, 82492, Control_c, 0, 64, 52
1, 82505, Note_off_c, 0, 49, 62
1, 82506, Control_c, 0, 64, 58
1, 82509, Note_off_c, 0, 44, 62
1, 82511, Note_off_c, 0, 55, 59
1, 82512, Note_off_c, 0, 52, 58
1, 82521, Control_c, 0, 64, 62
1, 82536, Control_c, 0, 64, 64
1, 82550, Control_c, 0, 64, 65
1, 82565, Control_c, 0, 64, 66
1, 82582, Control_c, 0, 64, 68
1, 82589, Note_on_c, 0, 49, 53
1, 82592, Note_on_c, 0, 55, 60
1, 82593, Note_on_c, 0, 52, 50
1, 82596, Control_c, 0, 64, 69
1, 82601, Note_on_c, 0, 44, 58
1, 82611, Control_c, 0, 64, 71
1, 82626, Control_c, 0, 64, 72
1, 82641, Control_c, 0, 64, 72
1, 82648, Note_off_c, 0, 59, 65
1, 82655, Control_c, 0, 64, 73
1, 82670, Control_c, 0, 64, 73
1, 82700, Control_c, 0, 64, 74
1, 82715, Control_c, 0, 64, 74
1, 82789, Control_c, 0, 64, 75
1, 82922, Control_c, 0, 64, 74
1, 82949, Note_on_c, 0, 33, 86
1, 82966, Control_c, 0, 64, 72
1, 82981, Control_c, 0, 64, 68
1, 82982, Note_off_c, 0, 33, 62
1, 83003, Control_c, 0, 64, 60
1, 83018, Control_c, 0, 64, 46
1, 83033, Control_c, 0, 64, 32
1, 83039, Note_on_c, 0, 32, 76
1, 83048, Control_c, 0, 64, 0
1, 83152, Control_c, 0, 64, 31
1, 83167, Control_c, 0, 64, 39
1, 83181, Control_c, 0, 64, 46
1, 83196, Control_c, 0, 64, 53
1, 83211, Control_c, 0, 64, 58
1, 83226, Control_c, 0, 64, 61
1, 83240, Control_c, 0, 64, 62
1, 83255, Control_c, 0, 64, 63
1, 83268, Note_off_c, 0, 55, 55
1, 83270, Control_c, 0, 64, 63
1, 83271, Note_off_c, 0, 49, 60
1, 83283, Note_off_c, 0, 44, 61
1, 83285, Control_c, 0, 64, 64
1, 83300, Note_off_c, 0, 52, 61
1, 83300, Control_c, 0, 64, 65
1, 83329, Control_c, 0, 64, 65
1, 83357, Note_on_c, 0, 52, 76
1, 83362, Note_on_c, 0, 55, 91
1, 83364, Note_on_c, 0, 44, 73
1, 83366, Note_on_c, 0, 48, 85
1, 83375, Control_c, 0, 64, 65
1, 83389, Control_c, 0, 64, 63
1, 83404, Control_c, 0, 64, 60
1, 83419, Control_c, 0, 64, 55
1, 83434, Control_c, 0, 64, 51
1, 83449, Control_c, 0, 64, 48
1, 83450, Note_off_c, 0, 55, 58
1, 83453, Note_off_c, 0, 48, 60
1, 83459, Note_off_c, 0, 44, 59
1, 83464, Control_c, 0, 64, 47
1, 83469, Note_off_c, 0, 52, 59
1, 83478, Control_c, 0, 64, 47
1, 83536, Note_on_c, 0, 52, 61
1, 83537, Note_on_c, 0, 55, 72
1, 83538, Control_c, 0, 64, 46
1, 83545, Note_on_c, 0, 44, 58
1, 83560, Note_on_c, 0, 48, 61
1, 83597, Note_off_c, 0, 48, 60
1, 83599, Note_off_c, 0, 55, 61
1, 83605, Note_off_c, 0, 52, 60
1, 83613, Note_off_c, 0, 44, 62
1, 83671, Note_on_c, 0, 52, 58
1, 83672, Note_on_c, 0, 44, 47
1, 83672, Note_on_c, 0, 55, 58
1, 83682, Note_on_c, 0, 48, 65
1, 83730, Control_c, 0, 64, 47
1, 83733, Note_off_c, 0, 48, 58
1, 83734, Note_off_c, 0, 55, 59
1, 83747, Note_off_c, 0, 52, 59
1, 83749, Note_off_c, 0, 44, 59
1, 83752, Control_c, 0, 64, 50
1, 83767, Control_c, 0, 64, 54
1, 83782, Control_c, 0, 64, 59
1, 83796, Control_c, 0, 64, 62
1, 83811, Control_c, 0, 64, 63
1, 83826, Control_c, 0, 64, 64
1, 83829, Note_on_c, 0, 52, 50
1, 83829, Note_on_c, 0, 55, 58
1, 83830, Note_on_c, 0, 44, 36
1, 83837, Note_on_c, 0, 48, 62
1, 83841, Control_c, 0, 64, 65
1, 83852, Note_off_c, 0, 32, 61
1, 83856, Control_c, 0, 64, 66
1, 83870, Control_c, 0, 64, 67
1, 83885, Control_c, 0, 64, 67
1, 83900, Control_c, 0, 64, 68
1, 84182, Note_on_c, 0, 60, 81
1, 84198, Control_c, 0, 64, 67
1, 84212, Control_c, 0, 64, 65
1, 84227, Control_c, 0, 64, 59
1, 84234, Note_off_c, 0, 60, 64
1, 84242, Control_c, 0, 64, 49
1, 84257, Control_c, 0, 64, 39
1, 84268, Note_on_c, 0, 59, 79
1, 84272, Control_c, 0, 64, 0
1, 84346, Control_c, 0, 64, 37
1, 84361, Control_c, 0, 64, 46
1, 84375, Control_c, 0, 64, 53
1, 84390, Control_c, 0, 64, 58
1, 84405, Control_c, 0, 64, 61
1, 84419, Control_c, 0, 64, 62
1, 84434, Control_c, 0, 64, 63
1, 84449, Control_c, 0, 64, 64
1, 84464, Control_c, 0, 64, 65
1, 84479, Control_c, 0, 64, 66
1, 84501, Control_c, 0, 64, 66
1, 84516, Control_c, 0, 64, 67
1, 84530, Note_off_c, 0, 48, 58
1, 84531, Control_c, 0, 64, 68
1, 84547, Note_off_c, 0, 55, 56
1, 84553, Note_off_c, 0, 44, 62
1, 84560, Control_c, 0, 64, 68
1, 84561, Note_off_c, 0, 52, 62
1, 84616, Note_on_c, 0, 52, 68
1, 84618, Note_on_c, 0, 55, 76
1, 84619, Note_on_c, 0, 44, 69
1, 84619, Control_c, 0, 64, 67
1, 84623, Note_on_c, 0, 49, 76
1, 84634, Control_c, 0, 64, 63
1, 84649, Control_c, 0, 64, 57
1, 84664, Control_c, 0, 64, 50
1, 84679, Control_c, 0, 64, 46
1, 84693, Control_c, 0, 64, 44
1, 84717, Note_off_c, 0, 49, 63
1, 84719, Note_off_c, 0, 44, 63
1, 84720, Note_off_c, 0, 55, 61
1, 84723, Control_c, 0, 64, 45
1, 84725, Note_off_c, 0, 52, 62
1, 84768, Control_c, 0, 64, 45
1, 84792, Note_on_c, 0, 55, 66
1, 84798, Note_on_c, 0, 52, 54
1, 84799, Note_on_c, 0, 44, 52
1, 84803, Note_on_c, 0, 49, 54
1, 84857, Control_c, 0, 64, 46
1, 84859, Note_off_c, 0, 55, 60
1, 84869, Note_off_c, 0, 49, 58
1, 84872, Note_off_c, 0, 44, 59
1, 84872, Note_off_c, 0, 52, 57
1, 84916, Control_c, 0, 64, 46
1, 84931, Control_c, 0, 64, 47
1, 84932, Note_on_c, 0, 52, 50
1, 84934, Note_on_c, 0, 55, 57
1, 84935, Note_on_c, 0, 44, 44
1, 84939, Note_on_c, 0, 49, 45
1, 84945, Control_c, 0, 64, 47
1, 84961, Control_c, 0, 64, 48
1, 84976, Control_c, 0, 64, 49
1, 84991, Control_c, 0, 64, 50
1, 85001, Note_off_c, 0, 55, 57
1, 85006, Control_c, 0, 64, 51
1, 85007, Note_off_c, 0, 49, 57
1, 85015, Note_off_c, 0, 52, 56
1, 85021, Control_c, 0, 64, 52
1, 85024, Note_off_c, 0, 44, 56
1, 85065, Control_c, 0, 64, 51
1, 85083, Note_on_c, 0, 44, 34
1, 85092, Note_on_c, 0, 52, 41
1, 85093, Note_on_c, 0, 55, 44
1, 85096, Note_on_c, 0, 49, 47
1, 85139, Control_c, 0, 64, 52
1, 85154, Control_c, 0, 64, 52
1, 85168, Control_c, 0, 64, 54
1, 85183, Control_c, 0, 64, 56
1, 85198, Control_c, 0, 64, 58
1, 85213, Control_c, 0, 64, 60
1, 85228, Control_c, 0, 64, 62
1, 85250, Control_c, 0, 64, 63
1, 85265, Control_c, 0, 64, 64
1, 85280, Control_c, 0, 64, 65
1, 85295, Control_c, 0, 64, 65
1, 85310, Control_c, 0, 64, 66
1, 85324, Control_c, 0, 64, 67
1, 85339, Control_c, 0, 64, 68
1, 85354, Control_c, 0, 64, 69
1, 85368, Control_c, 0, 64, 69
1, 85383, Control_c, 0, 64, 70
1, 85398, Control_c, 0, 64, 71
1, 85428, Control_c, 0, 64, 71
1, 85457, Control_c, 0, 64, 72
1, 85472, Control_c, 0, 64, 72
1, 85531, Control_c, 0, 64, 73
1, 85688, Note_off_c, 0, 55, 32
1, 85695, Note_off_c, 0, 49, 60
1, 85777, Note_off_c, 0, 52, 37
1, 85781, Note_off_c, 0, 44, 41
1, 85857, Note_on_c, 0, 52, 74
1, 85857, Note_on_c, 0, 55, 69
1, 85858, Control_c, 0, 64, 72
1, 85860, Note_on_c, 0, 44, 62
1, 85860, Note_on_c, 0, 48, 73
1, 85873, Control_c, 0, 64, 67
1, 85873, Control_c, 0, 67, 54
1, 85888, Control_c, 0, 64, 62
1, 85888, Control_c, 0, 67, 73
1, 85903, Control_c, 0, 64, 55
1, 85903, Control_c, 0, 67, 81
1, 85918, Control_c, 0, 64, 51
1, 85918, Control_c, 0, 67, 83
1, 85932, Control_c, 0, 64, 48
1, 85932, Control_c, 0, 67, 84
1, 85947, Control_c, 0, 64, 47
1, 85947, Control_c, 0, 67, 85
1, 85954, Note_off_c, 0, 55, 59
1, 85957, Note_off_c, 0, 52, 59
1, 85962, Control_c, 0, 64, 46
1, 85962, Control_c, 0, 67, 85
1, 85963, Note_off_c, 0, 48, 56
1, 85963, Note_off_c, 0, 44, 59
1, 85999, Control_c, 0, 64, 47
1, 86029, Control_c, 0, 64, 47
1, 86043, Control_c, 0, 64, 48
1, 86043, Control_c, 0, 67, 85
1, 86052, Note_on_c, 0, 52, 51
1, 86054, Note_on_c, 0, 55, 49
1, 86056, Note_on_c, 0, 44, 41
1, 86058, Note_on_c, 0, 48, 47
1, 86058, Control_c, 0, 64, 48
1, 86073, Control_c, 0, 64, 49
1, 86088, Control_c, 0, 67, 84
1, 86103, Control_c, 0, 64, 50
1, 86117, Control_c, 0, 67, 83
1, 86129, Note_off_c, 0, 52, 55
1, 86130, Note_off_c, 0, 55, 52
1, 86132, Control_c, 0, 64, 51
1, 86136, Note_off_c, 0, 48, 55
1, 86142, Note_off_c, 0, 44, 53
1, 86147, Control_c, 0, 64, 51
1, 86147, Control_c, 0, 67, 83
1, 86162, Control_c, 0, 64, 52
1, 86177, Control_c, 0, 64, 53
1, 86191, Control_c, 0, 64, 55
1, 86202, Note_on_c, 0, 44, 31
1, 86206, Control_c, 0, 64, 56
1, 86210, Note_on_c, 0, 55, 34
1, 86213, Note_on_c, 0, 52, 41
1, 86216, Note_on_c, 0, 48, 40
1, 86221, Control_c, 0, 64, 57
1, 86221, Control_c, 0, 67, 83
1, 86236, Control_c, 0, 64, 57
1, 86251, Control_c, 0, 64, 58
1, 86251, Control_c, 0, 67, 84
1, 86265, Control_c, 0, 64, 58
1, 86280, Control_c, 0, 64, 59
1, 86305, Note_off_c, 0, 48, 53
1, 86305, Note_off_c, 0, 52, 48
1, 86310, Control_c, 0, 64, 59
1, 86317, Note_off_c, 0, 44, 52
1, 86322, Note_off_c, 0, 55, 38
1, 86384, Control_c, 0, 64, 59
1, 86394, Note_on_c, 0, 44, 23
1, 86398, Control_c, 0, 64, 58
1, 86401, Note_on_c, 0, 52, 38
1, 86401, Note_on_c, 0, 55, 34
1, 86404, Note_on_c, 0, 48, 38
1, 86443, Control_c, 0, 64, 58
1, 86488, Control_c, 0, 64, 58
1, 86517, Control_c, 0, 64, 59
1, 86532, Control_c, 0, 64, 60
1, 86547, Control_c, 0, 64, 61
1, 86562, Control_c, 0, 64, 62
1, 86577, Control_c, 0, 64, 64
1, 86592, Control_c, 0, 64, 65
1, 86607, Control_c, 0, 64, 66
1, 86607, Control_c, 0, 67, 83
1, 86622, Control_c, 0, 64, 67
1, 86637, Control_c, 0, 64, 68
1, 86652, Control_c, 0, 64, 69
1, 86667, Control_c, 0, 64, 70
1, 86681, Control_c, 0, 64, 71
1, 86696, Control_c, 0, 64, 72
1, 86711, Control_c, 0, 64, 73
1, 86726, Control_c, 0, 64, 74
1, 86748, Control_c, 0, 64, 74
1, 86763, Control_c, 0, 64, 75
1, 86777, Control_c, 0, 64, 75
1, 86792, Control_c, 0, 64, 76
1, 86807, Control_c, 0, 64, 76
1, 86822, Control_c, 0, 64, 77
1, 86822, Control_c, 0, 67, 84
1, 86836, Control_c, 0, 64, 77
1, 86836, Control_c, 0, 67, 85
1, 86851, Control_c, 0, 64, 78
1, 86866, Control_c, 0, 67, 85
1, 86881, Control_c, 0, 67, 86
1, 86893, Note_off_c, 0, 52, 36
1, 86896, Control_c, 0, 67, 86
1, 86911, Control_c, 0, 67, 87
1, 86926, Control_c, 0, 67, 88
1, 86932, Note_off_c, 0, 48, 40
1, 86940, Control_c, 0, 67, 88
1, 86954, Note_off_c, 0, 44, 23
1, 86955, Control_c, 0, 67, 89
1, 86970, Control_c, 0, 67, 90
1, 86985, Control_c, 0, 67, 91
1, 87000, Control_c, 0, 67, 94
1, 87006, Note_off_c, 0, 55, 28
1, 87014, Control_c, 0, 67, 124
1, 87029, Control_c, 0, 67, 127
1, 87459, Control_c, 0, 64, 76
1, 87470, Note_on_c, 0, 52, 50
1, 87474, Note_on_c, 0, 55, 50
1, 87474, Control_c, 0, 64, 72
1, 87475, Note_on_c, 0, 47, 47
1, 87477, Note_on_c, 0, 44, 48
1, 87497, Control_c, 0, 64, 66
1, 87512, Control_c, 0, 64, 59
1, 87526, Control_c, 0, 64, 54
1, 87541, Control_c, 0, 64, 52
1, 87556, Control_c, 0, 64, 52
1, 87570, Control_c, 0, 64, 52
1, 87585, Control_c, 0, 64, 53
1, 87600, Control_c, 0, 64, 55
1, 87615, Control_c, 0, 64, 57
1, 87630, Control_c, 0, 64, 59
1, 87644, Control_c, 0, 64, 59
1, 87656, Note_off_c, 0, 55, 48
1, 87658, Note_off_c, 0, 44, 52
1, 87659, Control_c, 0, 64, 60
1, 87663, Note_off_c, 0, 52, 54
1, 87670, Note_off_c, 0, 47, 53
1, 87719, Control_c, 0, 64, 59
1, 87734, Control_c, 0, 64, 58
1, 87749, Control_c, 0, 64, 57
1, 87763, Control_c, 0, 64, 56
1, 87778, Control_c, 0, 64, 56
1, 87808, Control_c, 0, 64, 56
1, 87809, Note_on_c, 0, 52, 50
1, 87809, Note_on_c, 0, 55, 47
1, 87811, Note_on_c, 0, 44, 42
1, 87821, Note_on_c, 0, 47, 42
1, 87823, Control_c, 0, 64, 57
1, 87837, Control_c, 0, 64, 58
1, 87852, Control_c, 0, 64, 59
1, 87867, Control_c, 0, 64, 60
1, 87882, Control_c, 0, 64, 61
1, 87897, Control_c, 0, 64, 62
1, 87926, Control_c, 0, 64, 63
1, 87941, Control_c, 0, 64, 64
1, 87945, Note_off_c, 0, 55, 48
1, 87951, Note_off_c, 0, 44, 47
1, 87953, Note_off_c, 0, 52, 50
1, 87979, Note_off_c, 0, 47, 36
1, 87985, Control_c, 0, 64, 64
1, 88074, Control_c, 0, 64, 64
1, 88091, Note_on_c, 0, 52, 46
1, 88095, Note_on_c, 0, 44, 44
1, 88103, Note_on_c, 0, 55, 40
1, 88103, Control_c, 0, 64, 63
1, 88112, Note_on_c, 0, 47, 25
1, 88118, Control_c, 0, 64, 61
1, 88133, Control_c, 0, 64, 59
1, 88148, Control_c, 0, 64, 58
1, 88164, Control_c, 0, 64, 56
1, 88179, Control_c, 0, 64, 55
1, 88193, Control_c, 0, 64, 54
1, 88208, Control_c, 0, 64, 53
1, 88223, Control_c, 0, 64, 53
1, 88335, Control_c, 0, 64, 52
1, 88393, Control_c, 0, 64, 53
1, 88422, Control_c, 0, 64, 53
1, 88437, Control_c, 0, 64, 54
1, 88452, Control_c, 0, 64, 56
1, 88466, Control_c, 0, 64, 58
1, 88481, Control_c, 0, 64, 59
1, 88496, Control_c, 0, 64, 61
1, 88511, Control_c, 0, 64, 62
1, 88526, Control_c, 0, 64, 64
1, 88540, Control_c, 0, 64, 66
1, 88555, Control_c, 0, 64, 67
1, 88570, Control_c, 0, 64, 69
1, 88584, Control_c, 0, 64, 70
1, 88599, Control_c, 0, 64, 71
1, 88614, Control_c, 0, 64, 72
1, 88629, Control_c, 0, 64, 73
1, 88644, Control_c, 0, 64, 74
1, 88658, Control_c, 0, 64, 75
1, 88673, Control_c, 0, 64, 75
1, 88688, Control_c, 0, 64, 76
1, 88717, Control_c, 0, 64, 76
1, 88762, Control_c, 0, 64, 77
1, 89093, Note_off_c, 0, 55, 26
1, 89096, Note_off_c, 0, 44, 26
1, 89116, Note_off_c, 0, 52, 31
1, 89117, Note_off_c, 0, 47, 22
1, 89260, Control_c, 0, 64, 76
1, 89275, Control_c, 0, 64, 75
1, 89282, Note_on_c, 0, 52, 48
1, 89287, Note_on_c, 0, 55, 44
1, 89290, Control_c, 0, 64, 72
1, 89293, Note_on_c, 0, 44, 36
1, 89297, Note_on_c, 0, 47, 30
1, 89305, Control_c, 0, 64, 68
1, 89320, Control_c, 0, 64, 62
1, 89334, Control_c, 0, 64, 57
1, 89349, Control_c, 0, 64, 53
1, 89351, Note_off_c, 0, 55, 49
1, 89359, Note_off_c, 0, 44, 42
1, 89364, Control_c, 0, 64, 51
1, 89383, Note_off_c, 0, 52, 37
1, 89388, Note_off_c, 0, 47, 31
1, 89408, Control_c, 0, 64, 52
1, 89423, Control_c, 0, 64, 52
1, 89438, Control_c, 0, 64, 54
1, 89453, Control_c, 0, 64, 56
1, 89468, Control_c, 0, 64, 58
1, 89482, Control_c, 0, 64, 60
1, 89497, Control_c, 0, 64, 61
1, 89512, Control_c, 0, 64, 62
1, 89527, Control_c, 0, 64, 62
1, 89541, Control_c, 0, 64, 63
1, 89642, Note_on_c, 0, 44, 27
1, 89645, Note_on_c, 0, 55, 38
1, 89647, Note_on_c, 0, 52, 40
1, 89660, Control_c, 0, 64, 62
1, 89669, Note_on_c, 0, 47, 14
1, 89675, Control_c, 0, 64, 61
1, 89689, Control_c, 0, 64, 60
1, 89704, Control_c, 0, 64, 59
1, 89719, Control_c, 0, 64, 58
1, 89757, Control_c, 0, 64, 58
1, 89861, Control_c, 0, 64, 57
1, 89994, Control_c, 0, 64, 58
1, 90009, Control_c, 0, 64, 58
1, 90024, Control_c, 0, 64, 59
1, 90038, Control_c, 0, 64, 60
1, 90053, Control_c, 0, 64, 62
1, 90068, Control_c, 0, 64, 63
1, 90083, Control_c, 0, 64, 64
1, 90098, Control_c, 0, 64, 66
1, 90112, Control_c, 0, 64, 67
1, 90127, Control_c, 0, 64, 69
1, 90142, Control_c, 0, 64, 70
1, 90157, Control_c, 0, 64, 71
1, 90172, Control_c, 0, 64, 72
1, 90187, Control_c, 0, 64, 72
1, 90202, Control_c, 0, 64, 73
1, 90217, Control_c, 0, 64, 74
1, 90231, Control_c, 0, 64, 74
1, 90246, Control_c, 0, 64, 75
1, 90290, Control_c, 0, 64, 75
1, 90699, Control_c, 0, 64, 75
1, 90708, Note_off_c, 0, 52, 59
1, 90714, Control_c, 0, 64, 74
1, 90724, Note_off_c, 0, 44, 45
1, 90729, Control_c, 0, 64, 73
1, 90732, Note_off_c, 0, 55, 41
1, 90740, Note_off_c, 0, 47, 40
1, 90743, Control_c, 0, 64, 70
1, 90758, Control_c, 0, 64, 66
1, 90773, Control_c, 0, 64, 63
1, 90787, Control_c, 0, 64, 61
1, 90802, Control_c, 0, 64, 60
1, 90817, Control_c, 0, 64, 60
1, 90905, Control_c, 0, 64, 60
1, 90935, Control_c, 0, 64, 61
1, 90965, Control_c, 0, 64, 61
1, 91025, Control_c, 0, 64, 62
1, 91135, Note_on_c, 0, 55, 36
1, 91136, Note_on_c, 0, 52, 34
1, 91140, Note_on_c, 0, 44, 39
1, 91152, Note_on_c, 0, 47, 20
1, 91217, Control_c, 0, 64, 62
1, 91596, Control_c, 0, 64, 63
1, 91655, Control_c, 0, 64, 63
1, 91684, Control_c, 0, 64, 64
1, 91728, Control_c, 0, 64, 64
1, 91743, Control_c, 0, 64, 65
1, 91773, Control_c, 0, 64, 65
1, 91788, Control_c, 0, 64, 66
1, 91803, Control_c, 0, 64, 67
1, 91818, Control_c, 0, 64, 67
1, 91832, Control_c, 0, 64, 68
1, 91847, Control_c, 0, 64, 69
1, 91862, Control_c, 0, 64, 69
1, 91877, Control_c, 0, 64, 70
1, 91892, Control_c, 0, 64, 71
1, 91907, Control_c, 0, 64, 72
1, 91922, Control_c, 0, 64, 73
1, 91936, Control_c, 0, 64, 74
1, 91951, Control_c, 0, 64, 74
1, 91966, Control_c, 0, 64, 75
1, 91988, Control_c, 0, 64, 76
1, 92003, Control_c, 0, 64, 77
1, 92017, Control_c, 0, 64, 77
1, 92032, Control_c, 0, 64, 78
1, 92062, Control_c, 0, 64, 79
1, 92077, Control_c, 0, 64, 80
1, 92092, Control_c, 0, 64, 80
1, 92107, Control_c, 0, 64, 81
1, 92122, Control_c, 0, 64, 82
1, 92136, Control_c, 0, 64, 82
1, 92166, Control_c, 0, 64, 83
1, 92181, Control_c, 0, 64, 83
1, 92211, Control_c, 0, 64, 84
1, 92241, Control_c, 0, 64, 84
1, 92855, Control_c, 0, 64, 84
1, 93004, Control_c, 0, 64, 83
1, 93034, Control_c, 0, 64, 83
1, 93048, Note_off_c, 0, 55, 41
1, 93049, Control_c, 0, 64, 80
1, 93052, Note_off_c, 0, 52, 61
1, 93064, Control_c, 0, 64, 75
1, 93078, Note_off_c, 0, 44, 57
1, 93078, Control_c, 0, 64, 69
1, 93093, Control_c, 0, 64, 62
1, 93096, Note_off_c, 0, 47, 39
1, 93108, Control_c, 0, 64, 56
1, 93123, Control_c, 0, 64, 52
1, 93138, Control_c, 0, 64, 49
1, 93153, Control_c, 0, 64, 47
1, 93227, Control_c, 0, 64, 48
1, 93242, Control_c, 0, 64, 49
1, 93256, Control_c, 0, 64, 52
1, 93271, Control_c, 0, 64, 56
1, 93286, Control_c, 0, 64, 59
1, 93300, Control_c, 0, 64, 60
1, 93315, Control_c, 0, 64, 61
1, 93330, Control_c, 0, 64, 62
1, 93345, Control_c, 0, 64, 63
1, 93360, Control_c, 0, 64, 63
1, 93374, Control_c, 0, 64, 64
1, 93382, Note_off_c, 0, 59, 61
1, 93419, Control_c, 0, 64, 64
1, 93463, Note_on_c, 0, 27, 46
1, 93463, Control_c, 0, 64, 64
1, 93466, Note_on_c, 0, 59, 55
1, 93486, Control_c, 0, 64, 63
1, 93500, Control_c, 0, 64, 59
1, 93507, Note_off_c, 0, 27, 53
1, 93515, Control_c, 0, 64, 54
1, 93526, Note_off_c, 0, 59, 55
1, 93530, Control_c, 0, 64, 47
1, 93545, Control_c, 0, 64, 42
1, 93558, Note_on_c, 0, 30, 36
1, 93558, Note_on_c, 0, 58, 46
1, 93560, Control_c, 0, 64, 41
1, 93574, Control_c, 0, 64, 41
1, 93589, Control_c, 0, 64, 45
1, 93604, Control_c, 0, 64, 52
1, 93619, Control_c, 0, 64, 58
1, 93634, Control_c, 0, 64, 62
1, 93645, Poly_aftertouch_c, 0, 42, 127
1, 93649, Control_c, 0, 64, 64
1, 93663, Control_c, 0, 64, 64
1, 93675, Note_off_c, 0, 30, 55
1, 93678, Control_c, 0, 64, 65
1, 93681, Poly_aftertouch_c, 0, 42, 0
1, 93693, Control_c, 0, 64, 66
1, 93707, Control_c, 0, 64, 67
1, 93722, Control_c, 0, 64, 67
1, 93737, Control_c, 0, 64, 68
1, 93753, Control_c, 0, 64, 68
1, 93848, Note_on_c, 0, 33, 54
1, 93872, Control_c, 0, 64, 67
1, 93886, Control_c, 0, 64, 63
1, 93895, Note_off_c, 0, 33, 61
1, 93901, Control_c, 0, 64, 55
1, 93910, Note_on_c, 0, 35, 46
1, 93916, Control_c, 0, 64, 45
1, 93931, Control_c, 0, 64, 33
1, 93946, Control_c, 0, 64, 0
1, 93948, Note_on_c, 0, 47, 46
1, 94005, Control_c, 0, 64, 32
1, 94020, Control_c, 0, 64, 37
1, 94035, Control_c, 0, 64, 42
1, 94050, Control_c, 0, 64, 47
1, 94065, Control_c, 0, 64, 51
1, 94079, Control_c, 0, 64, 54
1, 94094, Control_c, 0, 64, 56
1, 94109, Control_c, 0, 64, 58
1, 94123, Control_c, 0, 64, 58
1, 94138, Control_c, 0, 64, 59
1, 94168, Control_c, 0, 64, 58
1, 94180, Note_off_c, 0, 58, 62
1, 94183, Control_c, 0, 64, 55
1, 94193, Note_on_c, 0, 57, 62
1, 94197, Control_c, 0, 64, 47
1, 94212, Control_c, 0, 64, 33
1, 94235, Control_c, 0, 64, 0
1, 94261, Note_off_c, 0, 57, 62
1, 94270, Note_on_c, 0, 58, 52
1, 94270, Note_off_c, 0, 35, 62
1, 94279, Control_c, 0, 64, 38
1, 94294, Control_c, 0, 64, 51
1, 94299, Note_off_c, 0, 47, 64
1, 94309, Control_c, 0, 64, 60
1, 94324, Control_c, 0, 64, 63
1, 94338, Control_c, 0, 64, 65
1, 94353, Control_c, 0, 64, 66
1, 94368, Control_c, 0, 64, 66
1, 94383, Control_c, 0, 64, 67
1, 94398, Control_c, 0, 64, 68
1, 94412, Control_c, 0, 64, 68
1, 94442, Control_c, 0, 64, 69
1, 94486, Control_c, 0, 64, 69
1, 94571, Note_on_c, 0, 63, 52
1, 94584, Note_on_c, 0, 57, 55
1, 94597, Note_off_c, 0, 58, 55
1, 94606, Control_c, 0, 64, 69
1, 94621, Control_c, 0, 64, 67
1, 94626, Note_off_c, 0, 63, 58
1, 94635, Note_off_c, 0, 57, 59
1, 94635, Control_c, 0, 64, 62
1, 94650, Control_c, 0, 64, 51
1, 94665, Control_c, 0, 64, 41
1, 94666, Note_on_c, 0, 56, 53
1, 94669, Note_on_c, 0, 66, 39
1, 94680, Control_c, 0, 64, 33
1, 94695, Control_c, 0, 64, 32
1, 94709, Control_c, 0, 64, 34
1, 94724, Control_c, 0, 64, 40
1, 94739, Control_c, 0, 64, 47
1, 94754, Control_c, 0, 64, 55
1, 94769, Control_c, 0, 64, 59
1, 94784, Control_c, 0, 64, 60
1, 94798, Control_c, 0, 64, 61
1, 94828, Control_c, 0, 64, 62
1, 94843, Control_c, 0, 64, 62
1, 94872, Control_c, 0, 64, 63
1, 94980, Note_off_c, 0, 56, 62
1, 94987, Note_off_c, 0, 66, 61
1, 94998, Note_on_c, 0, 59, 57
1, 95006, Note_on_c, 0, 69, 46
1, 95013, Control_c, 0, 64, 62
1, 95028, Control_c, 0, 64, 62
1, 95043, Control_c, 0, 64, 59
1, 95058, Control_c, 0, 64, 56
1, 95067, Note_off_c, 0, 59, 61
1, 95067, Note_off_c, 0, 69, 57
1, 95073, Control_c, 0, 64, 49
1, 95082, Note_on_c, 0, 58, 62
1, 95087, Control_c, 0, 64, 39
1, 95090, Note_on_c, 0, 71, 45
1, 95102, Control_c, 0, 64, 0
1, 95294, Control_c, 0, 64, 39
1, 95309, Control_c, 0, 64, 52
1, 95324, Control_c, 0, 64, 60
1, 95339, Control_c, 0, 64, 63
1, 95355, Control_c, 0, 64, 65
1, 95365, Note_off_c, 0, 71, 41
1, 95370, Control_c, 0, 64, 66
1, 95384, Control_c, 0, 64, 68
1, 95399, Control_c, 0, 64, 69
1, 95414, Control_c, 0, 64, 71
1, 95429, Control_c, 0, 64, 72
1, 95443, Control_c, 0, 64, 72
1, 95458, Control_c, 0, 64, 73
1, 95675, Note_on_c, 0, 57, 71
1, 95692, Note_off_c, 0, 58, 62
1, 95696, Note_on_c, 0, 75, 57
1, 95710, Control_c, 0, 64, 72
1, 95732, Control_c, 0, 64, 70
1, 95747, Control_c, 0, 64, 65
1, 95752, Note_off_c, 0, 75, 57
1, 95752, Note_off_c, 0, 57, 63
1, 95762, Control_c, 0, 64, 57
1, 95768, Note_on_c, 0, 59, 72
1, 95776, Control_c, 0, 64, 42
1, 95785, Note_on_c, 0, 78, 49
1, 95791, Control_c, 0, 64, 0
1, 96131, Note_off_c, 0, 78, 60
1, 96143, Note_on_c, 0, 58, 68
1, 96145, Note_off_c, 0, 59, 64
1, 96146, Note_on_c, 0, 81, 55
1, 96204, Note_off_c, 0, 81, 61
1, 96207, Note_off_c, 0, 58, 63
1, 96238, Note_on_c, 0, 57, 58
1, 96250, Note_on_c, 0, 83, 52
1, 96519, Note_off_c, 0, 83, 63
1, 96534, Note_on_c, 0, 67, 58
1, 96586, Control_c, 0, 64, 29
1, 96587, Note_off_c, 0, 67, 60
1, 96600, Control_c, 0, 64, 50
1, 96613, Note_on_c, 0, 66, 63
1, 96615, Control_c, 0, 64, 57
1, 96630, Control_c, 0, 64, 60
1, 96645, Control_c, 0, 64, 61
1, 96659, Control_c, 0, 64, 62
1, 96673, Control_c, 0, 64, 63
1, 96688, Control_c, 0, 64, 64
1, 96703, Control_c, 0, 64, 65
1, 96718, Control_c, 0, 64, 66
1, 96733, Control_c, 0, 64, 66
1, 96763, Control_c, 0, 64, 67
1, 96793, Control_c, 0, 64, 67
1, 96806, Note_off_c, 0, 57, 62
1, 96822, Control_c, 0, 64, 68
1, 96837, Control_c, 0, 67, 120
1, 96851, Control_c, 0, 64, 68
1, 96851, Control_c, 0, 67, 86
1, 96866, Control_c, 0, 67, 0
1, 96921, Note_on_c, 0, 56, 50
1, 96940, Control_c, 0, 64, 67
1, 96956, Control_c, 0, 64, 60
1, 96971, Control_c, 0, 64, 38
1, 96977, Note_off_c, 0, 56, 57
1, 96982, Note_on_c, 0, 35, 52
1, 96986, Control_c, 0, 64, 0
1, 97009, Note_on_c, 0, 55, 40
1, 97060, Control_c, 0, 66, 127
1, 97185, Note_off_c, 0, 66, 62
1, 97311, Note_on_c, 0, 65, 54
1, 97365, Note_off_c, 0, 65, 56
1, 97392, Note_on_c, 0, 64, 54
1, 97645, Note_off_c, 0, 55, 40
1, 97686, Note_on_c, 0, 54, 51
1, 97751, Note_off_c, 0, 54, 61
1, 97782, Note_on_c, 0, 53, 49
1, 97825, Note_off_c, 0, 35, 61
1, 97853, Control_c, 0, 64, 32
1, 97868, Control_c, 0, 64, 45
1, 97883, Control_c, 0, 64, 53
1, 97897, Control_c, 0, 64, 57
1, 97912, Control_c, 0, 64, 59
1, 97927, Control_c, 0, 64, 60
1, 97942, Control_c, 0, 64, 60
1, 97979, Control_c, 0, 64, 61
1, 98024, Control_c, 0, 64, 61
1, 98042, Note_off_c, 0, 64, 63
1, 98053, Control_c, 0, 64, 62
1, 98087, Note_on_c, 0, 63, 50
1, 98112, Control_c, 0, 64, 61
1, 98127, Control_c, 0, 64, 55
1, 98134, Note_off_c, 0, 63, 60
1, 98142, Control_c, 0, 64, 44
1, 98157, Control_c, 0, 64, 0
1, 98193, Note_on_c, 0, 62, 46
1, 98216, Control_c, 0, 64, 39
1, 98231, Control_c, 0, 64, 52
1, 98245, Control_c, 0, 64, 59
1, 98260, Control_c, 0, 64, 61
1, 98275, Control_c, 0, 64, 62
1, 98277, Note_off_c, 0, 53, 59
1, 98290, Control_c, 0, 64, 62
1, 98349, Control_c, 0, 64, 63
1, 98468, Note_on_c, 0, 70, 62
1, 98474, Note_on_c, 0, 52, 55
1, 98497, Control_c, 0, 64, 60
1, 98507, Note_off_c, 0, 52, 63
1, 98512, Control_c, 0, 64, 52
1, 98522, Note_off_c, 0, 70, 63
1, 98527, Control_c, 0, 64, 29
1, 98542, Control_c, 0, 64, 0
1, 98556, Note_on_c, 0, 69, 61
1, 98566, Note_on_c, 0, 53, 48
1, 98617, Control_c, 0, 64, 36
1, 98632, Control_c, 0, 64, 49
1, 98647, Control_c, 0, 64, 57
1, 98662, Control_c, 0, 64, 60
1, 98676, Control_c, 0, 64, 61
1, 98706, Control_c, 0, 64, 61
1, 98727, Control_c, 0, 64, 62
1, 98742, Control_c, 0, 64, 63
1, 98749, Note_off_c, 0, 62, 61
1, 98757, Control_c, 0, 64, 63
1, 98787, Control_c, 0, 64, 64
1, 98861, Control_c, 0, 64, 63
1, 98864, Note_on_c, 0, 63, 54
1, 98876, Control_c, 0, 64, 56
1, 98891, Control_c, 0, 64, 41
1, 98906, Control_c, 0, 64, 0
1, 98912, Note_off_c, 0, 63, 58
1, 98948, Note_on_c, 0, 64, 54
1, 98966, Control_c, 0, 64, 36
1, 98981, Control_c, 0, 64, 49
1, 98995, Control_c, 0, 64, 57
1, 99010, Control_c, 0, 64, 61
1, 99025, Control_c, 0, 64, 62
1, 99040, Control_c, 0, 64, 62
1, 99069, Control_c, 0, 64, 63
1, 99084, Control_c, 0, 64, 63
1, 99114, Control_c, 0, 64, 64
1, 99126, Note_off_c, 0, 53, 44
1, 99158, Control_c, 0, 64, 64
1, 99194, Note_off_c, 0, 69, 38
1, 99208, Note_on_c, 0, 68, 59
1, 99213, Note_on_c, 0, 54, 55
1, 99246, Control_c, 0, 64, 59
1, 99258, Note_off_c, 0, 54, 58
1, 99261, Control_c, 0, 64, 42
1, 99273, Note_off_c, 0, 68, 62
1, 99276, Control_c, 0, 64, 0
1, 99278, Note_off_c, 0, 64, 63
1, 99291, Note_on_c, 0, 67, 59
1, 99300, Note_on_c, 0, 55, 55
1, 99335, Control_c, 0, 64, 32
1, 99351, Control_c, 0, 64, 48
1, 99366, Control_c, 0, 64, 57
1, 99381, Control_c, 0, 64, 61
1, 99396, Control_c, 0, 64, 62
1, 99411, Control_c, 0, 64, 62
1, 99455, Control_c, 0, 64, 63
1, 99477, Control_c, 0, 64, 63
1, 99507, Control_c, 0, 64, 64
1, 99537, Control_c, 0, 64, 64
1, 99588, Note_on_c, 0, 65, 51
1, 99596, Control_c, 0, 64, 64
1, 99611, Control_c, 0, 64, 60
1, 99625, Control_c, 0, 64, 49
1, 99640, Control_c, 0, 64, 30
1, 99655, Control_c, 0, 64, 0
1, 99657, Note_off_c, 0, 65, 56
1, 99670, Note_on_c, 0, 66, 64
1, 99684, Control_c, 0, 64, 35
1, 99699, Control_c, 0, 64, 50
1, 99714, Control_c, 0, 64, 59
1, 99729, Control_c, 0, 64, 63
1, 99744, Control_c, 0, 64, 63
1, 99759, Control_c, 0, 64, 64
1, 99774, Control_c, 0, 64, 64
1, 99775, Note_off_c, 0, 66, 59
1, 99803, Control_c, 0, 64, 65
1, 99833, Control_c, 0, 64, 65
1, 99863, Note_off_c, 0, 55, 40
1, 99877, Control_c, 0, 64, 66
1, 99919, Note_on_c, 0, 66, 62
1, 99924, Note_on_c, 0, 56, 60
1, 99925, Note_off_c, 0, 67, 46
1, 99966, Control_c, 0, 64, 64
1, 99977, Note_off_c, 0, 56, 58
1, 99981, Control_c, 0, 64, 59
1, 99996, Control_c, 0, 64, 46
1, 100009, Note_on_c, 0, 65, 54
1, 100011, Control_c, 0, 64, 0
1, 100017, Note_on_c, 0, 57, 54
1, 100119, Note_off_c, 0, 66, 29
1, 100204, Control_c, 0, 64, 32
1, 100227, Control_c, 0, 64, 35
1, 100242, Control_c, 0, 64, 37
1, 100256, Control_c, 0, 64, 37
1, 100286, Control_c, 0, 64, 34
1, 100300, Control_c, 0, 64, 0
1, 100313, Note_on_c, 0, 67, 56
1, 100374, Note_off_c, 0, 67, 58
1, 100405, Note_on_c, 0, 68, 50
1, 100419, Control_c, 0, 64, 30
1, 100434, Control_c, 0, 64, 50
1, 100448, Control_c, 0, 64, 58
1, 100463, Control_c, 0, 64, 61
1, 100468, Note_off_c, 0, 65, 55
1, 100478, Control_c, 0, 64, 62
1, 100492, Control_c, 0, 64, 63
1, 100507, Control_c, 0, 64, 64
1, 100522, Control_c, 0, 64, 64
1, 100549, Note_off_c, 0, 57, 11
1, 100552, Control_c, 0, 64, 65
1, 100566, Control_c, 0, 64, 65
1, 100596, Control_c, 0, 64, 66
1, 100626, Control_c, 0, 64, 66
1, 100684, Note_on_c, 0, 58, 54
1, 100703, Note_on_c, 0, 64, 45
1, 100730, Control_c, 0, 64, 66
1, 100745, Note_off_c, 0, 58, 51
1, 100745, Control_c, 0, 64, 64
1, 100753, Note_off_c, 0, 64, 58
1, 100760, Control_c, 0, 64, 57
1, 100774, Control_c, 0, 64, 38
1, 100786, Note_on_c, 0, 63, 55
1, 100789, Control_c, 0, 64, 0
1, 100793, Note_on_c, 0, 59, 45
1, 100863, Control_c, 0, 64, 29
1, 100878, Control_c, 0, 64, 43
1, 100892, Control_c, 0, 64, 54
1, 100907, Control_c, 0, 64, 60
1, 100922, Control_c, 0, 64, 61
1, 100938, Control_c, 0, 64, 62
1, 100953, Control_c, 0, 64, 62
1, 100975, Control_c, 0, 64, 63
1, 100978, Note_off_c, 0, 68, 55
1, 100990, Control_c, 0, 64, 63
1, 101005, Control_c, 0, 64, 64
1, 101020, Control_c, 0, 64, 64
1, 101034, Control_c, 0, 64, 65
1, 101049, Control_c, 0, 64, 65
1, 101064, Control_c, 0, 64, 66
1, 101108, Note_on_c, 0, 69, 52
1, 101123, Control_c, 0, 64, 65
1, 101138, Control_c, 0, 64, 60
1, 101149, Note_off_c, 0, 69, 59
1, 101151, Control_c, 0, 64, 46
1, 101166, Control_c, 0, 64, 0
1, 101206, Note_on_c, 0, 70, 45
1, 101225, Control_c, 0, 64, 45
1, 101240, Control_c, 0, 64, 58
1, 101255, Control_c, 0, 64, 63
1, 101255, Note_off_c, 0, 70, 62
1, 101270, Control_c, 0, 64, 65
1, 101285, Control_c, 0, 64, 67
1, 101288, Note_off_c, 0, 63, 58
1, 101300, Control_c, 0, 64, 69
1, 101314, Control_c, 0, 64, 70
1, 101329, Control_c, 0, 64, 72
1, 101344, Control_c, 0, 64, 73
1, 101359, Note_off_c, 0, 59, 9
1, 101359, Control_c, 0, 64, 74
1, 101547, Note_on_c, 0, 60, 37
1, 101547, Note_on_c, 0, 62, 46
1, 101592, Note_off_c, 0, 60, 46
1, 101716, Note_on_c, 0, 35, 50
1, 101721, Control_c, 0, 64, 73
1, 101732, Note_off_c, 0, 62, 37
1, 101736, Control_c, 0, 64, 69
1, 101752, Control_c, 0, 64, 59
1, 101767, Control_c, 0, 64, 38
1, 101775, Note_on_c, 0, 61, 52
1, 101782, Control_c, 0, 64, 0
1, 101826, Control_c, 0, 64, 44
1, 101841, Control_c, 0, 64, 57
1, 101856, Control_c, 0, 64, 63
1, 101870, Control_c, 0, 64, 66
1, 101878, Note_off_c, 0, 61, 63
1, 101885, Control_c, 0, 64, 67
1, 101900, Control_c, 0, 64, 69
1, 101912, Note_off_c, 0, 35, 62
1, 101915, Control_c, 0, 64, 69
1, 101930, Control_c, 0, 64, 70
1, 102087, Note_on_c, 0, 72, 55
1, 102144, Note_off_c, 0, 72, 59
1, 102186, Note_on_c, 0, 71, 57
1, 102197, Control_c, 0, 64, 69
1, 102226, Control_c, 0, 64, 69
1, 102241, Control_c, 0, 64, 68
1, 102256, Control_c, 0, 64, 68
1, 102270, Control_c, 0, 64, 67
1, 102285, Control_c, 0, 64, 66
1, 102287, Note_on_c, 0, 77, 63
1, 102300, Control_c, 0, 64, 66
1, 102315, Control_c, 0, 64, 65
1, 102319, Note_off_c, 0, 77, 61
1, 102344, Control_c, 0, 64, 64
1, 102359, Control_c, 0, 64, 64
1, 102373, Note_on_c, 0, 76, 66
1, 102374, Control_c, 0, 64, 63
1, 102403, Control_c, 0, 64, 63
1, 102418, Control_c, 0, 64, 62
1, 102433, Control_c, 0, 64, 61
1, 102448, Control_c, 0, 64, 60
1, 102470, Control_c, 0, 64, 60
1, 102476, Note_on_c, 0, 62, 52
1, 102485, Control_c, 0, 64, 58
1, 102500, Note_off_c, 0, 62, 58
1, 102500, Control_c, 0, 64, 56
1, 102515, Control_c, 0, 64, 51
1, 102530, Control_c, 0, 64, 41
1, 102546, Control_c, 0, 64, 0
1, 102583, Note_on_c, 0, 61, 57
1, 102680, Control_c, 0, 64, 30
1, 102694, Control_c, 0, 64, 35
1, 102709, Control_c, 0, 64, 39
1, 102724, Control_c, 0, 64, 42
1, 102739, Control_c, 0, 64, 44
1, 102754, Control_c, 0, 64, 44
1, 102768, Control_c, 0, 64, 45
1, 102777, Note_off_c, 0, 71, 60
1, 102847, Note_on_c, 0, 70, 58
1, 102898, Note_off_c, 0, 70, 63
1, 102934, Note_on_c, 0, 69, 61
1, 102975, Control_c, 0, 64, 45
1, 103009, Note_off_c, 0, 61, 53
1, 103017, Note_off_c, 0, 76, 44
1, 103029, Note_on_c, 0, 75, 56
1, 103081, Note_off_c, 0, 75, 60
1, 103094, Control_c, 0, 64, 45
1, 103112, Note_on_c, 0, 74, 58
1, 103168, Control_c, 0, 64, 44
1, 103183, Control_c, 0, 64, 43
1, 103184, Note_on_c, 0, 60, 62
1, 103198, Control_c, 0, 64, 41
1, 103219, Control_c, 0, 64, 40
1, 103223, Note_off_c, 0, 60, 65
1, 103234, Control_c, 0, 64, 40
1, 103264, Control_c, 0, 64, 41
1, 103279, Control_c, 0, 64, 43
1, 103294, Control_c, 0, 64, 47
1, 103309, Control_c, 0, 64, 50
1, 103314, Note_on_c, 0, 59, 59
1, 103324, Control_c, 0, 64, 52
1, 103339, Control_c, 0, 64, 53
1, 103354, Control_c, 0, 64, 54
1, 103369, Control_c, 0, 64, 55
1, 103413, Control_c, 0, 64, 55
1, 103517, Note_off_c, 0, 69, 60
1, 103561, Control_c, 0, 64, 55
1, 103583, Note_on_c, 0, 68, 53
1, 103637, Note_off_c, 0, 68, 59
1, 103649, Control_c, 0, 64, 54
1, 103673, Note_on_c, 0, 67, 62
1, 103717, Note_off_c, 0, 74, 50
1, 103745, Note_on_c, 0, 73, 51
1, 103796, Note_off_c, 0, 59, 59
1, 103813, Note_off_c, 0, 73, 59
1, 103827, Control_c, 0, 64, 55
1, 103837, Note_on_c, 0, 72, 59
1, 103902, Control_c, 0, 64, 54
1, 103916, Control_c, 0, 64, 53
1, 103928, Note_on_c, 0, 58, 64
1, 103931, Control_c, 0, 64, 49
1, 103946, Control_c, 0, 64, 39
1, 103968, Control_c, 0, 64, 0
1, 104005, Note_off_c, 0, 58, 59
1, 104046, Note_on_c, 0, 57, 59
1, 104087, Control_c, 0, 64, 35
1, 104102, Control_c, 0, 64, 47
1, 104116, Control_c, 0, 64, 55
1, 104131, Control_c, 0, 64, 59
1, 104147, Control_c, 0, 64, 60
1, 104161, Control_c, 0, 64, 60
1, 104176, Control_c, 0, 64, 61
1, 104191, Control_c, 0, 64, 62
1, 104206, Control_c, 0, 64, 63
1, 104221, Control_c, 0, 64, 64
1, 104236, Control_c, 0, 64, 64
1, 104251, Control_c, 0, 64, 65
1, 104280, Control_c, 0, 64, 65
1, 104285, Note_off_c, 0, 67, 61
1, 104295, Control_c, 0, 64, 66
1, 104310, Control_c, 0, 64, 66
1, 104325, Control_c, 0, 64, 67
1, 104334, Note_on_c, 0, 66, 65
1, 104339, Control_c, 0, 64, 67
1, 104354, Control_c, 0, 64, 68
1, 104369, Control_c, 0, 64, 69
1, 104384, Control_c, 0, 64, 69
1, 104399, Control_c, 0, 64, 70
1, 104413, Control_c, 0, 64, 71
1, 104416, Note_off_c, 0, 66, 63
1, 104421, Note_off_c, 0, 57, 48
1, 104428, Control_c, 0, 64, 73
1, 104443, Control_c, 0, 64, 74
1, 104457, Control_c, 0, 64, 76
1, 104460, Note_on_c, 0, 65, 71
1, 104472, Control_c, 0, 64, 78
1, 104487, Control_c, 0, 64, 79
1, 104502, Control_c, 0, 64, 80
1, 104515, Note_off_c, 0, 65, 64
1, 104517, Control_c, 0, 64, 81
1, 104531, Control_c, 0, 64, 82
1, 104542, Note_off_c, 0, 72, 40
1, 104546, Control_c, 0, 64, 82
1, 104552, Note_on_c, 0, 71, 61
1, 104576, Control_c, 0, 64, 83
1, 104591, Control_c, 0, 64, 83
1, 104606, Control_c, 0, 64, 84
1, 104635, Control_c, 0, 64, 84
1, 104665, Control_c, 0, 64, 85
1, 104672, Note_off_c, 0, 71, 52
1, 104675, Note_on_c, 0, 70, 75
1, 104717, Control_c, 0, 64, 85
1, 104724, Note_off_c, 0, 70, 62
1, 104809, Note_on_c, 0, 80, 83
1, 104969, Control_c, 0, 64, 82
1, 104977, Note_on_c, 0, 35, 62
1, 104984, Control_c, 0, 64, 72
1, 104999, Control_c, 0, 64, 58
1, 105014, Control_c, 0, 64, 36
1, 105019, Note_off_c, 0, 80, 60
1, 105029, Control_c, 0, 64, 0
1, 105061, Note_on_c, 0, 79, 77
1, 105072, Note_off_c, 0, 35, 62
1, 105074, Control_c, 0, 64, 42
1, 105088, Control_c, 0, 64, 55
1, 105103, Control_c, 0, 64, 61
1, 105118, Control_c, 0, 64, 63
1, 105133, Control_c, 0, 64, 64
1, 105221, Control_c, 0, 64, 63
1, 105229, Note_on_c, 0, 62, 62
1, 105236, Control_c, 0, 64, 62
1, 105251, Control_c, 0, 64, 59
1, 105266, Control_c, 0, 64, 56
1, 105280, Control_c, 0, 64, 54
1, 105282, Note_off_c, 0, 62, 57
1, 105295, Control_c, 0, 64, 52
1, 105310, Control_c, 0, 64, 50
1, 105324, Note_on_c, 0, 61, 54
1, 105325, Control_c, 0, 64, 45
1, 105340, Control_c, 0, 64, 41
1, 105354, Control_c, 0, 64, 36
1, 105369, Control_c, 0, 64, 32
1, 105382, Note_on_c, 0, 69, 69
1, 105406, Note_off_c, 0, 69, 69
1, 105420, Note_off_c, 0, 61, 0
1, 105437, Note_on_c, 0, 61, 36
1, 105482, Note_on_c, 0, 68, 74
1, 105510, Control_c, 0, 64, 32
1, 105540, Control_c, 0, 64, 32
1, 105555, Control_c, 0, 64, 33
1, 105569, Control_c, 0, 64, 34
1, 105578, Note_on_c, 0, 52, 63
1, 105584, Control_c, 0, 64, 35
1, 105599, Control_c, 0, 64, 36
1, 105612, Note_off_c, 0, 61, 48
1, 105613, Control_c, 0, 64, 36
1, 105628, Control_c, 0, 64, 37
1, 105659, Control_c, 0, 64, 37
1, 105668, Note_off_c, 0, 52, 57
1, 105675, Note_on_c, 0, 51, 59
1, 105687, Note_off_c, 0, 79, 62
1, 105688, Control_c, 0, 64, 38
1, 105745, Note_on_c, 0, 78, 75
1, 105836, Note_off_c, 0, 78, 60
1, 105842, Note_on_c, 0, 77, 76
1, 105887, Note_off_c, 0, 68, 55
1, 105923, Note_on_c, 0, 60, 64
1, 105968, Note_off_c, 0, 60, 58
1, 106017, Note_on_c, 0, 59, 64
1, 106085, Note_off_c, 0, 59, 0
1, 106089, Note_on_c, 0, 67, 73
1, 106095, Note_off_c, 0, 51, 59
1, 106111, Note_off_c, 0, 67, 70
1, 106122, Poly_aftertouch_c, 0, 59, 127
1, 106178, Note_on_c, 0, 66, 83
1, 106264, Note_on_c, 0, 50, 60
1, 106332, Note_off_c, 0, 77, 62
1, 106343, Note_on_c, 0, 49, 76
1, 106352, Note_off_c, 0, 50, 62
1, 106379, Control_c, 0, 64, 37
1, 106439, Note_on_c, 0, 76, 83
1, 106458, Note_off_c, 0, 66, 61
1, 106481, Poly_aftertouch_c, 0, 59, 0
1, 106511, Control_c, 0, 64, 37
1, 106529, Note_on_c, 0, 75, 88
1, 106536, Note_off_c, 0, 76, 64
1, 106611, Note_on_c, 0, 58, 83
1, 106690, Note_off_c, 0, 58, 62
1, 106697, Note_on_c, 0, 57, 83
1, 106710, Note_off_c, 0, 49, 64
1, 106757, Note_on_c, 0, 65, 77
1, 106803, Note_off_c, 0, 65, 64
1, 106829, Note_off_c, 0, 75, 61
1, 106850, Note_on_c, 0, 64, 89
1, 106853, Control_c, 0, 64, 37
1, 106946, Note_on_c, 0, 48, 83
1, 107046, Note_off_c, 0, 48, 63
1, 107047, Note_on_c, 0, 47, 82
1, 107113, Control_c, 0, 64, 37
1, 107120, Note_on_c, 0, 74, 88
1, 107171, Control_c, 0, 64, 36
1, 107194, Note_off_c, 0, 74, 60
1, 107200, Control_c, 0, 64, 36
1, 107215, Control_c, 0, 64, 35
1, 107221, Note_on_c, 0, 73, 90
1, 107230, Control_c, 0, 64, 34
1, 107245, Control_c, 0, 64, 32
1, 107254, Note_off_c, 0, 57, 61
1, 107259, Control_c, 0, 64, 0
1, 107327, Note_on_c, 0, 56, 87
1, 107372, Note_off_c, 0, 64, 64
1, 107423, Note_off_c, 0, 56, 63
1, 107426, Note_on_c, 0, 55, 89
1, 107443, Note_off_c, 0, 47, 64
1, 107487, Note_on_c, 0, 63, 94
1, 107570, Note_off_c, 0, 63, 61
1, 107603, Note_on_c, 0, 62, 90
1, 107727, Note_on_c, 0, 46, 83
1, 107773, Note_off_c, 0, 62, 60
1, 107801, Control_c, 0, 64, 40
1, 107816, Control_c, 0, 64, 56
1, 107824, Note_off_c, 0, 73, 65
1, 107831, Control_c, 0, 64, 61
1, 107831, Control_c, 0, 66, 0
1, 107846, Control_c, 0, 64, 64
1, 107857, Note_on_c, 0, 45, 88
1, 107861, Control_c, 0, 64, 67
1, 107865, Note_off_c, 0, 55, 55
1, 107876, Note_off_c, 0, 46, 50
1, 107876, Control_c, 0, 64, 71
1, 107890, Control_c, 0, 64, 74
1, 107905, Control_c, 0, 64, 76
1, 107935, Control_c, 0, 64, 74
1, 107950, Control_c, 0, 64, 67
1, 107964, Control_c, 0, 64, 57
1, 107979, Control_c, 0, 64, 50
1, 107994, Control_c, 0, 64, 54
1, 108008, Control_c, 0, 64, 61
1, 108021, Note_on_c, 0, 85, 102
1, 108023, Control_c, 0, 64, 70
1, 108029, Note_on_c, 0, 75, 84
1, 108038, Control_c, 0, 64, 79
1, 108053, Control_c, 0, 64, 88
1, 108063, Note_off_c, 0, 45, 60
1, 108068, Control_c, 0, 64, 94
1, 108082, Control_c, 0, 64, 100
1, 108097, Control_c, 0, 64, 107
1, 108112, Control_c, 0, 64, 115
1, 108128, Control_c, 0, 64, 127
1, 108272, Note_off_c, 0, 75, 53
1, 108334, Note_on_c, 0, 32, 86
1, 108337, Note_on_c, 0, 44, 75
1, 108338, Note_off_c, 0, 85, 60
1, 108350, Control_c, 0, 64, 97
1, 108365, Control_c, 0, 64, 70
1, 108379, Note_on_c, 0, 84, 101
1, 108379, Control_c, 0, 64, 46
1, 108388, Note_on_c, 0, 76, 83
1, 108394, Control_c, 0, 64, 0
1, 108424, Control_c, 0, 66, 127
1, 108505, Control_c, 0, 64, 39
1, 108520, Control_c, 0, 64, 55
1, 108535, Control_c, 0, 64, 62
1, 108549, Note_off_c, 0, 32, 60
1, 108550, Control_c, 0, 64, 64
1, 108565, Control_c, 0, 64, 67
1, 108579, Control_c, 0, 64, 69
1, 108592, Note_off_c, 0, 44, 63
1, 108594, Control_c, 0, 64, 72
1, 108609, Control_c, 0, 64, 74
1, 108624, Control_c, 0, 64, 76
1, 108639, Control_c, 0, 64, 78
1, 108654, Control_c, 0, 64, 80
1, 108669, Control_c, 0, 64, 81
1, 108684, Control_c, 0, 64, 82
1, 108699, Control_c, 0, 64, 82
1, 108713, Control_c, 0, 64, 83
1, 108728, Control_c, 0, 64, 83
1, 108743, Control_c, 0, 64, 84
1, 108758, Control_c, 0, 64, 84
1, 108788, Control_c, 0, 64, 85
1, 108796, Note_on_c, 0, 68, 91
1, 108805, Note_on_c, 0, 58, 78
1, 108818, Control_c, 0, 64, 86
1, 108842, Note_off_c, 0, 68, 63
1, 108847, Control_c, 0, 64, 85
1, 108856, Note_off_c, 0, 58, 59
1, 108862, Control_c, 0, 64, 83
1, 108877, Control_c, 0, 64, 72
1, 108891, Note_on_c, 0, 59, 85
1, 108892, Control_c, 0, 64, 56
1, 108892, Note_on_c, 0, 67, 93
1, 108906, Control_c, 0, 64, 0
1, 108967, Control_c, 0, 64, 42
1, 108982, Control_c, 0, 64, 54
1, 108996, Control_c, 0, 64, 61
1, 109011, Control_c, 0, 64, 64
1, 109026, Control_c, 0, 64, 65
1, 109041, Control_c, 0, 64, 66
1, 109055, Control_c, 0, 64, 68
1, 109070, Control_c, 0, 64, 69
1, 109085, Control_c, 0, 64, 71
1, 109100, Control_c, 0, 64, 73
1, 109115, Control_c, 0, 64, 76
1, 109120, Note_off_c, 0, 76, 42
1, 109128, Note_off_c, 0, 84, 62
1, 109129, Control_c, 0, 64, 78
1, 109144, Control_c, 0, 64, 80
1, 109159, Control_c, 0, 64, 82
1, 109169, Note_on_c, 0, 83, 80
1, 109172, Note_on_c, 0, 77, 80
1, 109173, Control_c, 0, 64, 82
1, 109211, Control_c, 0, 64, 81
1, 109226, Control_c, 0, 64, 72
1, 109231, Note_on_c, 0, 80, 36
1, 109241, Control_c, 0, 64, 57
1, 109255, Control_c, 0, 64, 0
1, 109260, Note_on_c, 0, 85, 88
1, 109260, Note_off_c, 0, 80, 48
1, 109271, Note_on_c, 0, 75, 82
1, 109286, Note_off_c, 0, 83, 61
1, 109294, Note_off_c, 0, 77, 53
1, 109300, Control_c, 0, 64, 37
1, 109315, Control_c, 0, 64, 57
1, 109329, Control_c, 0, 64, 66
1, 109344, Control_c, 0, 64, 70
1, 109359, Control_c, 0, 64, 74
1, 109374, Control_c, 0, 64, 75
1, 109388, Control_c, 0, 64, 76
1, 109397, Note_off_c, 0, 75, 54
1, 109403, Control_c, 0, 64, 76
1, 109418, Control_c, 0, 64, 77
1, 109433, Control_c, 0, 64, 78
1, 109442, Note_off_c, 0, 85, 61
1, 109448, Control_c, 0, 64, 80
1, 109462, Control_c, 0, 64, 82
1, 109467, Note_off_c, 0, 59, 61
1, 109476, Note_off_c, 0, 67, 55
1, 109477, Control_c, 0, 64, 84
1, 109492, Control_c, 0, 64, 85
1, 109507, Control_c, 0, 64, 86
1, 109522, Control_c, 0, 64, 87
1, 109536, Control_c, 0, 64, 88
1, 109538, Note_on_c, 0, 84, 91
1, 109539, Note_on_c, 0, 76, 90
1, 109542, Note_on_c, 0, 66, 79
1, 109545, Note_on_c, 0, 60, 52
1, 109573, Note_off_c, 0, 60, 62
1, 109578, Note_off_c, 0, 76, 67
1, 109581, Control_c, 0, 64, 87
1, 109596, Control_c, 0, 64, 79
1, 109601, Note_off_c, 0, 66, 53
1, 109611, Control_c, 0, 64, 62
1, 109612, Note_on_c, 0, 68, 84
1, 109615, Note_on_c, 0, 83, 95
1, 109617, Note_on_c, 0, 77, 93
1, 109619, Note_on_c, 0, 58, 81
1, 109625, Control_c, 0, 64, 0
1, 109631, Note_off_c, 0, 84, 65
1, 109700, Control_c, 0, 64, 46
1, 109715, Control_c, 0, 64, 58
1, 109730, Control_c, 0, 64, 62
1, 109745, Control_c, 0, 64, 63
1, 109760, Control_c, 0, 64, 64
1, 109774, Control_c, 0, 64, 66
1, 109789, Control_c, 0, 64, 68
1, 109804, Control_c, 0, 64, 70
1, 109811, Note_off_c, 0, 58, 58
1, 109819, Control_c, 0, 64, 73
1, 109823, Note_off_c, 0, 68, 62
1, 109834, Control_c, 0, 64, 75
1, 109849, Control_c, 0, 64, 78
1, 109864, Control_c, 0, 64, 82
1, 109878, Control_c, 0, 64, 84
1, 109893, Control_c, 0, 64, 86
1, 109895, Note_on_c, 0, 67, 86
1, 109898, Note_on_c, 0, 59, 81
1, 109923, Control_c, 0, 64, 83
1, 109924, Note_off_c, 0, 77, 62
1, 109930, Note_off_c, 0, 83, 64
1, 109938, Note_off_c, 0, 67, 64
1, 109938, Control_c, 0, 64, 69
1, 109959, Control_c, 0, 64, 44
1, 109974, Note_off_c, 0, 59, 60
1, 109974, Control_c, 0, 64, 0
1, 109977, Note_on_c, 0, 66, 93
1, 109978, Note_on_c, 0, 60, 81
1, 110019, Control_c, 0, 64, 50
1, 110034, Control_c, 0, 64, 64
1, 110049, Control_c, 0, 64, 68
1, 110064, Control_c, 0, 64, 71
1, 110078, Control_c, 0, 64, 72
1, 110093, Control_c, 0, 64, 73
1, 110108, Control_c, 0, 64, 74
1, 110123, Control_c, 0, 64, 77
1, 110128, Poly_aftertouch_c, 0, 78, 127
1, 110138, Control_c, 0, 64, 82
1, 110152, Control_c, 0, 64, 87
1, 110167, Control_c, 0, 64, 93
1, 110169, Poly_aftertouch_c, 0, 78, 0
1, 110182, Control_c, 0, 64, 98
1, 110211, Control_c, 0, 64, 100
1, 110241, Control_c, 0, 64, 93
1, 110242, Note_on_c, 0, 85, 94
1, 110245, Note_on_c, 0, 75, 94
1, 110256, Control_c, 0, 64, 72
1, 110271, Control_c, 0, 64, 40
1, 110275, Note_off_c, 0, 85, 69
1, 110285, Control_c, 0, 64, 0
1, 110287, Note_off_c, 0, 75, 66
1, 110314, Note_on_c, 0, 84, 93
1, 110315, Control_c, 0, 64, 33
1, 110317, Note_on_c, 0, 76, 97
1, 110330, Control_c, 0, 64, 57
1, 110345, Control_c, 0, 64, 67
1, 110359, Control_c, 0, 64, 73
1, 110374, Control_c, 0, 64, 78
1, 110389, Control_c, 0, 64, 79
1, 110403, Control_c, 0, 64, 81
1, 110418, Control_c, 0, 64, 82
1, 110431, Note_off_c, 0, 60, 62
1, 110433, Control_c, 0, 64, 84
1, 110445, Note_off_c, 0, 66, 59
1, 110448, Control_c, 0, 64, 86
1, 110463, Control_c, 0, 64, 90
1, 110478, Control_c, 0, 64, 96
1, 110493, Control_c, 0, 64, 104
1, 110508, Control_c, 0, 64, 116
1, 110523, Control_c, 0, 64, 127
1, 110578, Note_on_c, 0, 68, 91
1, 110579, Note_on_c, 0, 58, 88
1, 110582, Control_c, 0, 64, 120
1, 110597, Control_c, 0, 64, 82
1, 110611, Note_off_c, 0, 58, 61
1, 110612, Control_c, 0, 64, 58
1, 110619, Note_off_c, 0, 68, 64
1, 110627, Control_c, 0, 64, 0
1, 110654, Note_on_c, 0, 59, 90
1, 110657, Note_on_c, 0, 67, 98
1, 110672, Control_c, 0, 64, 36
1, 110687, Control_c, 0, 64, 57
1, 110708, Control_c, 0, 64, 64
1, 110723, Control_c, 0, 64, 67
1, 110738, Control_c, 0, 64, 68
1, 110753, Control_c, 0, 64, 69
1, 110768, Control_c, 0, 64, 70
1, 110782, Control_c, 0, 64, 71
1, 110797, Control_c, 0, 64, 73
1, 110812, Control_c, 0, 64, 75
1, 110820, Note_off_c, 0, 67, 57
1, 110827, Control_c, 0, 64, 78
1, 110842, Note_off_c, 0, 76, 58
1, 110842, Control_c, 0, 64, 82
1, 110843, Note_off_c, 0, 59, 58
1, 110857, Control_c, 0, 64, 86
1, 110871, Control_c, 0, 64, 89
1, 110883, Note_off_c, 0, 84, 61
1, 110886, Control_c, 0, 64, 92
1, 110901, Control_c, 0, 64, 93
1, 110916, Control_c, 0, 64, 93
1, 110931, Control_c, 0, 64, 93
1, 110940, Note_on_c, 0, 83, 95
1, 110943, Note_on_c, 0, 66, 91
1, 110944, Note_on_c, 0, 77, 87
1, 110946, Control_c, 0, 64, 90
1, 110947, Note_on_c, 0, 60, 73
1, 110961, Control_c, 0, 64, 72
1, 110975, Control_c, 0, 64, 42
1, 110976, Note_on_c, 0, 80, 56
1, 110990, Control_c, 0, 64, 0
1, 110991, Note_off_c, 0, 60, 61
1, 110999, Note_off_c, 0, 80, 62
1, 111004, Note_off_c, 0, 66, 62
1, 111026, Note_on_c, 0, 68, 100
1, 111026, Note_on_c, 0, 85, 103
1, 111027, Note_on_c, 0, 75, 102
1, 111032, Note_on_c, 0, 58, 92
1, 111049, Control_c, 0, 64, 50
1, 111060, Note_off_c, 0, 77, 62
1, 111063, Note_off_c, 0, 83, 61
1, 111064, Control_c, 0, 64, 69
1, 111079, Control_c, 0, 64, 77
1, 111094, Control_c, 0, 64, 82
1, 111095, Note_off_c, 0, 68, 63
1, 111102, Note_off_c, 0, 75, 65
1, 111104, Note_off_c, 0, 58, 63
1, 111108, Control_c, 0, 64, 83
1, 111123, Control_c, 0, 64, 84
1, 111126, Note_off_c, 0, 85, 62
1, 111138, Control_c, 0, 64, 85
1, 111152, Control_c, 0, 64, 86
1, 111167, Control_c, 0, 64, 88
1, 111182, Control_c, 0, 64, 92
1, 111197, Control_c, 0, 64, 97
1, 111212, Control_c, 0, 64, 102
1, 111226, Control_c, 0, 64, 107
1, 111241, Control_c, 0, 64, 111
1, 111256, Control_c, 0, 64, 116
1, 111271, Control_c, 0, 64, 119
1, 111301, Control_c, 0, 64, 114
1, 111301, Note_on_c, 0, 84, 102
1, 111304, Note_on_c, 0, 76, 103
1, 111312, Note_on_c, 0, 59, 90
1, 111312, Note_on_c, 0, 67, 93
1, 111316, Control_c, 0, 64, 87
1, 111331, Control_c, 0, 64, 62
1, 111337, Note_off_c, 0, 76, 68
1, 111339, Note_off_c, 0, 59, 67
1, 111346, Control_c, 0, 64, 0
1, 111349, Note_off_c, 0, 67, 63
1, 111351, Note_off_c, 0, 84, 61
1, 111377, Note_on_c, 0, 60, 80
1, 111383, Note_on_c, 0, 77, 105
1, 111384, Note_on_c, 0, 83, 100
1, 111390, Note_on_c, 0, 66, 97
1, 111391, Control_c, 0, 64, 38
1, 111405, Control_c, 0, 64, 60
1, 111413, Note_on_c, 0, 84, 9
1, 111420, Control_c, 0, 64, 68
1, 111423, Note_off_c, 0, 77, 68
1, 111435, Control_c, 0, 64, 75
1, 111440, Note_off_c, 0, 60, 64
1, 111452, Note_off_c, 0, 83, 67
1, 111457, Control_c, 0, 64, 78
1, 111463, Note_off_c, 0, 84, 53
1, 111465, Note_off_c, 0, 66, 56
1, 111472, Control_c, 0, 64, 79
1, 111487, Control_c, 0, 64, 80
1, 111502, Control_c, 0, 64, 84
1, 111517, Control_c, 0, 64, 90
1, 111531, Control_c, 0, 64, 97
1, 111538, Note_on_c, 0, 66, 35
1, 111546, Control_c, 0, 64, 104
1, 111560, Note_off_c, 0, 66, 58
1, 111561, Control_c, 0, 64, 119
1, 111575, Control_c, 0, 64, 127
1, 111575, Control_c, 0, 66, 0
1, 111649, Control_c, 0, 64, 82
1, 111664, Control_c, 0, 64, 44
1, 111670, Note_on_c, 0, 90, 111
1, 111679, Control_c, 0, 64, 0
1, 111684, Note_on_c, 0, 62, 76
1, 111686, Note_on_c, 0, 61, 67
1, 111689, Note_on_c, 0, 91, 81
1, 111707, Note_on_c, 0, 67, 71
1, 111724, Note_off_c, 0, 91, 0
1, 111735, Note_on_c, 0, 91, 51
1, 111739, Control_c, 0, 64, 39
1, 111739, Control_c, 0, 66, 127
1, 111754, Control_c, 0, 64, 67
1, 111769, Control_c, 0, 64, 76
1, 111773, Note_off_c, 0, 61, 62
1, 111775, Note_off_c, 0, 62, 62
1, 111779, Note_off_c, 0, 91, 47
1, 111783, Control_c, 0, 64, 81
1, 111792, Note_on_c, 0, 71, 93
1, 111798, Control_c, 0, 64, 82
1, 111801, Note_off_c, 0, 67, 64
1, 111813, Control_c, 0, 64, 84
1, 111828, Note_off_c, 0, 90, 61
1, 111828, Control_c, 0, 64, 87
1, 111843, Control_c, 0, 64, 91
1, 111857, Control_c, 0, 64, 95
1, 111860, Note_off_c, 0, 71, 63
1, 111872, Control_c, 0, 64, 97
1, 111897, Note_on_c, 0, 89, 106
1, 111903, Note_on_c, 0, 74, 103
1, 111930, Note_on_c, 0, 88, 39
1, 111930, Note_off_c, 0, 88, 127
1, 112232, Note_on_c, 0, 84, 97
1, 112256, Note_off_c, 0, 89, 60
1, 112300, Note_on_c, 0, 83, 101
1, 112306, Note_off_c, 0, 84, 66
1, 112573, Note_on_c, 0, 88, 97
1, 112645, Note_on_c, 0, 87, 93
1, 112672, Note_off_c, 0, 88, 66
1, 112784, Control_c, 0, 64, 99
1, 112798, Control_c, 0, 66, 0
1, 112828, Control_c, 0, 64, 101
1, 112869, Note_off_c, 0, 83, 61
1, 112887, Control_c, 0, 64, 103
1, 112906, Note_on_c, 0, 82, 94
1, 112918, Control_c, 0, 64, 106
1, 112933, Control_c, 0, 64, 108
1, 112958, Note_off_c, 0, 74, 44
1, 112970, Control_c, 0, 64, 111
1, 112983, Note_on_c, 0, 73, 70
1, 112999, Note_off_c, 0, 87, 55
1, 113015, Control_c, 0, 64, 114
1, 113056, Note_on_c, 0, 81, 93
1, 113085, Note_off_c, 0, 82, 61
1, 113133, Control_c, 0, 64, 116
1, 113170, Note_off_c, 0, 73, 63
1, 113196, Note_on_c, 0, 72, 78
1, 113232, Note_off_c, 0, 72, 65
1, 113283, Note_off_c, 0, 81, 59
1, 113289, Note_on_c, 0, 86, 93
1, 113325, Control_c, 0, 64, 118
1, 113340, Control_c, 0, 64, 120
1, 113373, Note_on_c, 0, 56, 53
1, 113384, Control_c, 0, 64, 116
1, 113399, Control_c, 0, 64, 97
1, 113414, Control_c, 0, 64, 78
1, 113420, Note_on_c, 0, 62, 53
1, 113429, Control_c, 0, 64, 64
1, 113432, Note_on_c, 0, 67, 59
1, 113444, Control_c, 0, 64, 62
1, 113459, Control_c, 0, 64, 64
1, 113459, Note_off_c, 0, 86, 63
1, 113463, Note_on_c, 0, 85, 81
1, 113465, Note_on_c, 0, 71, 62
1, 113474, Control_c, 0, 64, 68
1, 113489, Control_c, 0, 64, 75
1, 113489, Control_c, 0, 67, 44
1, 113503, Control_c, 0, 64, 82
1, 113503, Control_c, 0, 67, 66
1, 113518, Control_c, 0, 64, 85
1, 113518, Control_c, 0, 67, 84
1, 113533, Control_c, 0, 64, 88
1, 113533, Control_c, 0, 67, 95
1, 113539, Note_off_c, 0, 85, 63
1, 113547, Control_c, 0, 64, 90
1, 113547, Control_c, 0, 67, 101
1, 113562, Control_c, 0, 64, 92
1, 113562, Control_c, 0, 67, 105
1, 113577, Control_c, 0, 64, 94
1, 113577, Control_c, 0, 67, 110
1, 113592, Control_c, 0, 64, 95
1, 113592, Control_c, 0, 67, 117
1, 113605, Note_on_c, 0, 84, 80
1, 113607, Control_c, 0, 64, 96
1, 113607, Control_c, 0, 67, 125
1, 113613, Note_on_c, 0, 81, 74
1, 113621, Control_c, 0, 67, 127
1, 113636, Control_c, 0, 64, 98
1, 113666, Control_c, 0, 64, 100
1, 113680, Note_off_c, 0, 81, 58
1, 113703, Control_c, 0, 64, 102
1, 113718, Note_on_c, 0, 80, 79
1, 113748, Control_c, 0, 64, 104
1, 113779, Note_off_c, 0, 84, 59
1, 113793, Control_c, 0, 64, 106
1, 113821, Note_on_c, 0, 83, 75
1, 113830, Note_off_c, 0, 80, 60
1, 113837, Control_c, 0, 64, 108
1, 113839, Note_on_c, 0, 79, 73
1, 113867, Control_c, 0, 64, 110
1, 113880, Control_c, 0, 64, 112
1, 113884, Note_off_c, 0, 83, 62
1, 113895, Control_c, 0, 64, 114
1, 113901, Note_on_c, 0, 82, 69
1, 113924, Control_c, 0, 64, 119
1, 113932, Note_off_c, 0, 79, 60
1, 113939, Control_c, 0, 64, 124
1, 113954, Control_c, 0, 64, 127
1, 113986, Note_off_c, 0, 82, 62
1, 114026, Note_on_c, 0, 81, 79
1, 114073, Note_on_c, 0, 79, 44
1, 114130, Note_off_c, 0, 79, 57
1, 114160, Note_on_c, 0, 78, 65
1, 114212, Note_off_c, 0, 81, 60
1, 114269, Note_on_c, 0, 80, 72
1, 114280, Note_off_c, 0, 78, 57
1, 114370, Note_off_c, 0, 80, 63
1, 114375, Note_on_c, 0, 79, 67
1, 114467, Note_off_c, 0, 71, 37
1, 114484, Note_off_c, 0, 79, 64
1, 114503, Note_on_c, 0, 78, 75
1, 114511, Note_on_c, 0, 76, 61
1, 114529, Note_off_c, 0, 67, 35
1, 114549, Note_off_c, 0, 62, 43
1, 114569, Note_off_c, 0, 76, 50
1, 114622, Note_off_c, 0, 78, 60
1, 114630, Note_off_c, 0, 56, 40
1, 114649, Note_on_c, 0, 77, 76
1, 114758, Note_off_c, 0, 77, 62
1, 114772, Note_on_c, 0, 76, 75
1, 114836, Note_on_c, 0, 75, 48
1, 114875, Note_on_c, 0, 53, 46
1, 114879, Note_off_c, 0, 76, 62
1, 114948, Note_on_c, 0, 59, 40
1, 115017, Note_on_c, 0, 64, 42
1, 115042, Note_off_c, 0, 75, 65
1, 115042, Note_on_c, 0, 74, 74
1, 115044, Control_c, 0, 64, 94
1, 115059, Control_c, 0, 64, 75
1, 115073, Control_c, 0, 64, 63
1, 115088, Control_c, 0, 64, 52
1, 115103, Control_c, 0, 64, 46
1, 115117, Control_c, 0, 64, 44
1, 115132, Control_c, 0, 64, 45
1, 115146, Poly_aftertouch_c, 0, 69, 127
1, 115147, Control_c, 0, 64, 50
1, 115162, Control_c, 0, 64, 56
1, 115177, Control_c, 0, 64, 60
1, 115199, Control_c, 0, 64, 64
1, 115214, Control_c, 0, 64, 66
1, 115229, Control_c, 0, 64, 69
1, 115244, Control_c, 0, 64, 71
1, 115259, Control_c, 0, 64, 73
1, 115273, Control_c, 0, 64, 74
1, 115288, Control_c, 0, 64, 75
1, 115303, Control_c, 0, 64, 75
1, 115319, Control_c, 0, 64, 76
1, 115327, Poly_aftertouch_c, 0, 69, 0
1, 115334, Control_c, 0, 64, 77
1, 115349, Control_c, 0, 64, 77
1, 115364, Control_c, 0, 64, 78
1, 115378, Note_on_c, 0, 69, 59
1, 115393, Control_c, 0, 64, 77
1, 115408, Control_c, 0, 64, 75
1, 115423, Control_c, 0, 64, 68
1, 115437, Note_off_c, 0, 69, 63
1, 115438, Control_c, 0, 64, 59
1, 115445, Note_on_c, 0, 68, 66
1, 115453, Control_c, 0, 64, 55
1, 115468, Control_c, 0, 64, 56
1, 115483, Control_c, 0, 64, 59
1, 115497, Control_c, 0, 64, 63
1, 115512, Control_c, 0, 64, 66
1, 115527, Control_c, 0, 64, 69
1, 115542, Control_c, 0, 64, 71
1, 115557, Control_c, 0, 64, 71
1, 115571, Control_c, 0, 64, 72
1, 115601, Control_c, 0, 64, 72
1, 115615, Control_c, 0, 64, 73
1, 115630, Control_c, 0, 64, 73
1, 115645, Control_c, 0, 64, 74
1, 115660, Control_c, 0, 64, 75
1, 115675, Note_off_c, 0, 74, 62
1, 115675, Control_c, 0, 64, 76
1, 115689, Control_c, 0, 64, 77
1, 115725, Note_on_c, 0, 73, 65
1, 115748, Control_c, 0, 64, 73
1, 115763, Control_c, 0, 64, 65
1, 115778, Control_c, 0, 64, 53
1, 115793, Control_c, 0, 64, 49
1, 115804, Note_on_c, 0, 72, 70
1, 115808, Note_off_c, 0, 73, 55
1, 115808, Control_c, 0, 64, 49
1, 115823, Control_c, 0, 64, 54
1, 115838, Control_c, 0, 64, 59
1, 115853, Control_c, 0, 64, 63
1, 115867, Control_c, 0, 64, 65
1, 115882, Control_c, 0, 64, 68
1, 115897, Control_c, 0, 64, 69
1, 115912, Control_c, 0, 64, 70
1, 115915, Note_off_c, 0, 68, 35
1, 115927, Control_c, 0, 64, 71
1, 115948, Control_c, 0, 64, 71
1, 115963, Control_c, 0, 64, 72
1, 115978, Control_c, 0, 64, 74
1, 115993, Control_c, 0, 64, 75
1, 116008, Control_c, 0, 64, 77
1, 116022, Control_c, 0, 64, 78
1, 116037, Control_c, 0, 64, 79
1, 116052, Control_c, 0, 64, 79
1, 116067, Control_c, 0, 64, 80
1, 116077, Note_on_c, 0, 67, 66
1, 116082, Control_c, 0, 64, 79
1, 116097, Control_c, 0, 64, 77
1, 116112, Control_c, 0, 64, 69
1, 116127, Control_c, 0, 64, 59
1, 116142, Control_c, 0, 64, 51
1, 116149, Note_off_c, 0, 67, 49
1, 116171, Control_c, 0, 64, 54
1, 116180, Note_off_c, 0, 64, 61
1, 116184, Note_on_c, 0, 66, 65
1, 116186, Control_c, 0, 64, 61
1, 116192, Note_on_c, 0, 63, 49
1, 116201, Control_c, 0, 64, 65
1, 116216, Control_c, 0, 64, 68
1, 116231, Control_c, 0, 64, 70
1, 116237, Note_off_c, 0, 72, 55
1, 116246, Control_c, 0, 64, 71
1, 116291, Control_c, 0, 64, 71
1, 116306, Control_c, 0, 64, 72
1, 116317, Note_off_c, 0, 63, 60
1, 116320, Control_c, 0, 64, 73
1, 116327, Note_on_c, 0, 62, 61
1, 116335, Control_c, 0, 64, 74
1, 116348, Note_off_c, 0, 59, 40
1, 116350, Control_c, 0, 64, 74
1, 116351, Note_off_c, 0, 53, 56
1, 116365, Note_off_c, 0, 66, 60
1, 116374, Note_off_c, 0, 62, 57
1, 116414, Note_on_c, 0, 71, 72
1, 116500, Note_on_c, 0, 47, 62
1, 116512, Control_c, 0, 64, 73
1, 116527, Control_c, 0, 64, 73
1, 116532, Note_on_c, 0, 70, 75
1, 116536, Note_off_c, 0, 71, 31
1, 116541, Note_on_c, 0, 52, 50
1, 116542, Control_c, 0, 64, 72
1, 116583, Note_off_c, 0, 70, 62
1, 116586, Control_c, 0, 64, 72
1, 116601, Control_c, 0, 64, 68
1, 116616, Control_c, 0, 64, 64
1, 116626, Note_on_c, 0, 60, 30
1, 116631, Control_c, 0, 64, 60
1, 116645, Control_c, 0, 64, 58
1, 116651, Note_on_c, 0, 66, 76
1, 116661, Note_on_c, 0, 69, 69
1, 116675, Control_c, 0, 64, 60
1, 116698, Control_c, 0, 64, 62
1, 116713, Control_c, 0, 64, 63
1, 116717, Note_off_c, 0, 66, 58
1, 116742, Control_c, 0, 64, 63
1, 116757, Control_c, 0, 64, 61
1, 116760, Note_on_c, 0, 65, 63
1, 116771, Control_c, 0, 64, 57
1, 116786, Control_c, 0, 64, 52
1, 116800, Note_off_c, 0, 65, 59
1, 116801, Control_c, 0, 64, 47
1, 116819, Note_off_c, 0, 69, 61
1, 116831, Control_c, 0, 64, 49
1, 116845, Control_c, 0, 64, 54
1, 116860, Control_c, 0, 64, 58
1, 116872, Note_on_c, 0, 68, 75
1, 116875, Control_c, 0, 64, 61
1, 116886, Note_on_c, 0, 64, 58
1, 116890, Control_c, 0, 64, 62
1, 116905, Control_c, 0, 64, 63
1, 116921, Control_c, 0, 64, 63
1, 116936, Control_c, 0, 64, 64
1, 116950, Control_c, 0, 64, 65
1, 116965, Control_c, 0, 64, 67
1, 116970, Note_off_c, 0, 68, 61
1, 116980, Control_c, 0, 64, 69
1, 116981, Note_on_c, 0, 67, 74
1, 116986, Note_off_c, 0, 64, 63
1, 116994, Control_c, 0, 64, 71
1, 117039, Control_c, 0, 64, 69
1, 117054, Control_c, 0, 64, 65
1, 117069, Control_c, 0, 64, 56
1, 117084, Control_c, 0, 64, 48
1, 117094, Note_off_c, 0, 67, 59
1, 117099, Control_c, 0, 64, 45
1, 117108, Note_on_c, 0, 66, 77
1, 117113, Control_c, 0, 64, 46
1, 117128, Control_c, 0, 64, 51
1, 117129, Note_on_c, 0, 64, 51
1, 117143, Control_c, 0, 64, 57
1, 117158, Control_c, 0, 64, 60
1, 117173, Control_c, 0, 64, 61
1, 117187, Control_c, 0, 64, 62
1, 117217, Control_c, 0, 64, 62
1, 117232, Control_c, 0, 64, 64
1, 117247, Control_c, 0, 64, 65
1, 117248, Note_off_c, 0, 64, 63
1, 117261, Control_c, 0, 64, 66
1, 117264, Note_on_c, 0, 63, 68
1, 117276, Control_c, 0, 64, 67
1, 117291, Control_c, 0, 64, 68
1, 117306, Control_c, 0, 64, 69
1, 117321, Control_c, 0, 64, 69
1, 117335, Control_c, 0, 64, 70
1, 117350, Control_c, 0, 64, 70
1, 117366, Note_off_c, 0, 66, 58
1, 117394, Control_c, 0, 64, 70
1, 117409, Control_c, 0, 64, 69
1, 117417, Note_off_c, 0, 63, 61
1, 117424, Control_c, 0, 64, 69
1, 117432, Note_on_c, 0, 65, 70
1, 117447, Control_c, 0, 64, 68
1, 117450, Note_on_c, 0, 62, 49
1, 117462, Control_c, 0, 64, 68
1, 117476, Control_c, 0, 64, 67
1, 117491, Control_c, 0, 64, 66
1, 117506, Control_c, 0, 64, 66
1, 117513, Note_off_c, 0, 62, 45
1, 117550, Control_c, 0, 64, 65
1, 117565, Control_c, 0, 64, 65
1, 117608, Note_on_c, 0, 64, 81
1, 117609, Control_c, 0, 64, 65
1, 117612, Note_off_c, 0, 65, 56
1, 117623, Control_c, 0, 64, 66
1, 117638, Control_c, 0, 64, 67
1, 117653, Control_c, 0, 64, 67
1, 117668, Control_c, 0, 64, 68
1, 117683, Control_c, 0, 64, 68
1, 117713, Control_c, 0, 64, 69
1, 117728, Control_c, 0, 67, 122
1, 117743, Control_c, 0, 64, 69
1, 117743, Control_c, 0, 67, 113
1, 117751, Note_on_c, 0, 63, 78
1, 117758, Control_c, 0, 64, 70
1, 117758, Control_c, 0, 67, 102
1, 117761, Note_off_c, 0, 52, 61
1, 117772, Control_c, 0, 67, 90
1, 117784, Note_off_c, 0, 47, 60
1, 117787, Control_c, 0, 67, 77
1, 117790, Note_off_c, 0, 64, 59
1, 117802, Control_c, 0, 67, 68
1, 117817, Control_c, 0, 67, 58
1, 117832, Control_c, 0, 67, 49
1, 117847, Control_c, 0, 67, 40
1, 117859, Note_off_c, 0, 63, 63
1, 117862, Control_c, 0, 67, 0
1, 117865, Note_on_c, 0, 62, 78
1, 117939, Note_off_c, 0, 60, 41
1, 117957, Note_on_c, 0, 61, 81
1, 117963, Note_off_c, 0, 62, 59
1, 118038, Note_on_c, 0, 60, 83
1, 118052, Note_off_c, 0, 61, 62
1, 118083, Control_c, 0, 64, 69
1, 118098, Control_c, 0, 64, 69
1, 118113, Control_c, 0, 64, 67
1, 118120, Note_off_c, 0, 60, 63
1, 118128, Control_c, 0, 64, 64
1, 118142, Control_c, 0, 64, 62
1, 118143, Note_on_c, 0, 59, 79
1, 118157, Control_c, 0, 64, 60
1, 118172, Control_c, 0, 64, 59
1, 118181, Note_on_c, 0, 48, 44
1, 118183, Note_on_c, 0, 52, 36
1, 118195, Control_c, 0, 64, 59
1, 118210, Control_c, 0, 64, 58
1, 118224, Control_c, 0, 64, 58
1, 118239, Control_c, 0, 64, 57
1, 118254, Control_c, 0, 64, 57
1, 118298, Control_c, 0, 64, 56
1, 118388, Control_c, 0, 64, 56
1, 118432, Control_c, 0, 64, 55
1, 118462, Control_c, 0, 64, 55
1, 118483, Note_on_c, 0, 64, 65
1, 118491, Control_c, 0, 64, 54
1, 118506, Control_c, 0, 64, 54
1, 118532, Note_off_c, 0, 64, 57
1, 118537, Control_c, 0, 64, 53
1, 118552, Control_c, 0, 64, 52
1, 118553, Note_on_c, 0, 67, 63
1, 118566, Control_c, 0, 64, 52
1, 118581, Control_c, 0, 64, 51
1, 118596, Control_c, 0, 64, 51
1, 118789, Control_c, 0, 64, 51
1, 118819, Control_c, 0, 64, 52
1, 118828, Note_on_c, 0, 64, 65
1, 118829, Note_on_c, 0, 58, 72
1, 118833, Note_off_c, 0, 59, 64
1, 118833, Control_c, 0, 64, 53
1, 118848, Control_c, 0, 64, 53
1, 118881, Note_off_c, 0, 64, 60
1, 118893, Control_c, 0, 64, 51
1, 118905, Note_off_c, 0, 58, 59
1, 118907, Control_c, 0, 64, 44
1, 118910, Note_off_c, 0, 67, 57
1, 118916, Note_on_c, 0, 76, 69
1, 118919, Note_on_c, 0, 60, 73
1, 118922, Control_c, 0, 64, 0
1, 118988, Control_c, 0, 64, 31
1, 119003, Control_c, 0, 64, 46
1, 119018, Control_c, 0, 64, 57
1, 119031, Note_off_c, 0, 76, 64
1, 119033, Control_c, 0, 64, 63
1, 119048, Control_c, 0, 64, 66
1, 119060, Note_off_c, 0, 52, 60
1, 119063, Control_c, 0, 64, 68
1, 119078, Control_c, 0, 64, 69
1, 119093, Control_c, 0, 64, 71
1, 119108, Control_c, 0, 64, 73
1, 119122, Control_c, 0, 64, 74
1, 119137, Control_c, 0, 64, 75
1, 119152, Control_c, 0, 64, 75
1, 119166, Control_c, 0, 64, 76
1, 119181, Control_c, 0, 64, 77
1, 119196, Control_c, 0, 64, 78
1, 119211, Control_c, 0, 64, 78
1, 119226, Control_c, 0, 64, 79
1, 119232, Note_off_c, 0, 60, 62
1, 119233, Note_on_c, 0, 59, 73
1, 119240, Control_c, 0, 64, 80
1, 119255, Control_c, 0, 64, 81
1, 119257, Note_off_c, 0, 48, 48
1, 119259, Note_off_c, 0, 59, 68
1, 119270, Control_c, 0, 64, 81
1, 119331, Control_c, 0, 64, 80
1, 119334, Note_on_c, 0, 58, 79
1, 119345, Control_c, 0, 64, 70
1, 119355, Note_on_c, 0, 43, 58
1, 119360, Control_c, 0, 64, 57
1, 119375, Control_c, 0, 64, 36
1, 119389, Control_c, 0, 64, 0
1, 119419, Control_c, 0, 64, 42
1, 119434, Control_c, 0, 64, 58
1, 119449, Control_c, 0, 64, 65
1, 119463, Control_c, 0, 64, 69
1, 119478, Control_c, 0, 64, 72
1, 119489, Note_off_c, 0, 43, 62
1, 119493, Control_c, 0, 64, 74
1, 119508, Control_c, 0, 64, 76
1, 119523, Control_c, 0, 64, 77
1, 119537, Control_c, 0, 64, 78
1, 119552, Control_c, 0, 64, 79
1, 119567, Control_c, 0, 64, 80
1, 119582, Control_c, 0, 64, 81
1, 119592, Note_off_c, 0, 58, 59
1, 119597, Control_c, 0, 64, 82
1, 119805, Note_on_c, 0, 60, 71
1, 119895, Note_on_c, 0, 59, 67
1, 119896, Note_off_c, 0, 60, 57
1, 119901, Control_c, 0, 64, 78
1, 119915, Control_c, 0, 64, 68
1, 119916, Note_on_c, 0, 45, 45
1, 119921, Note_on_c, 0, 52, 50
1, 119930, Control_c, 0, 64, 54
1, 119945, Control_c, 0, 64, 0
1, 120049, Control_c, 0, 66, 127
1, 120261, Note_on_c, 0, 64, 53
1, 120313, Note_off_c, 0, 64, 56
1, 120347, Note_on_c, 0, 67, 55
1, 120404, Control_c, 0, 64, 35
1, 120419, Control_c, 0, 64, 49
1, 120442, Control_c, 0, 64, 58
1, 120449, Note_off_c, 0, 52, 59
1, 120451, Note_off_c, 0, 45, 55
1, 120457, Control_c, 0, 64, 61
1, 120472, Control_c, 0, 64, 63
1, 120486, Control_c, 0, 64, 64
1, 120501, Control_c, 0, 64, 64
1, 120516, Control_c, 0, 64, 65
1, 120531, Control_c, 0, 64, 65
1, 120560, Control_c, 0, 64, 66
1, 120668, Note_on_c, 0, 64, 50
1, 120675, Note_off_c, 0, 59, 62
1, 120685, Note_on_c, 0, 58, 58
1, 120697, Note_off_c, 0, 64, 59
1, 120708, Control_c, 0, 64, 65
1, 120723, Control_c, 0, 64, 63
1, 120730, Note_off_c, 0, 67, 53
1, 120738, Control_c, 0, 64, 58
1, 120738, Note_on_c, 0, 73, 56
1, 120753, Control_c, 0, 64, 48
1, 120763, Note_on_c, 0, 59, 55
1, 120764, Note_off_c, 0, 58, 55
1, 120768, Control_c, 0, 64, 29
1, 120783, Control_c, 0, 64, 0
1, 121097, Note_on_c, 0, 58, 57
1, 121099, Note_off_c, 0, 59, 58
1, 121164, Note_off_c, 0, 58, 58
1, 121165, Note_off_c, 0, 73, 59
1, 121202, Note_on_c, 0, 57, 59
1, 121250, Control_c, 0, 64, 31
1, 121265, Control_c, 0, 64, 49
1, 121280, Control_c, 0, 64, 60
1, 121295, Control_c, 0, 64, 64
1, 121309, Control_c, 0, 64, 66
1, 121324, Control_c, 0, 64, 68
1, 121330, Note_off_c, 0, 57, 64
1, 121339, Control_c, 0, 64, 69
1, 121354, Control_c, 0, 64, 71
1, 121368, Control_c, 0, 64, 72
1, 121383, Control_c, 0, 64, 72
1, 121398, Control_c, 0, 64, 73
1, 121428, Control_c, 0, 64, 73
1, 121472, Control_c, 0, 64, 74
1, 121532, Note_on_c, 0, 76, 58
1, 121535, Note_on_c, 0, 88, 70
1, 121543, Note_on_c, 0, 75, 57
1, 121546, Control_c, 0, 64, 73
1, 121552, Note_off_c, 0, 76, 62
1, 121561, Control_c, 0, 64, 67
1, 121576, Control_c, 0, 64, 58
1, 121582, Note_off_c, 0, 75, 59
1, 121591, Control_c, 0, 64, 39
1, 121606, Control_c, 0, 64, 0
1, 121620, Note_on_c, 0, 91, 69
1, 121624, Note_on_c, 0, 73, 47
1, 121632, Note_off_c, 0, 88, 56
1, 121649, Note_on_c, 0, 79, 28
1, 121718, Note_off_c, 0, 79, 0
1, 121718, Note_on_c, 0, 79, 3
1, 121917, Control_c, 0, 66, 0
1, 121960, Note_on_c, 0, 65, 34
1, 122021, Note_off_c, 0, 73, 42
1, 122026, Note_off_c, 0, 65, 43
1, 122044, Control_c, 0, 64, 42
1, 122058, Control_c, 0, 64, 57
1, 122067, Note_on_c, 0, 64, 49
1, 122073, Control_c, 0, 64, 63
1, 122088, Control_c, 0, 64, 65
1, 122103, Control_c, 0, 64, 66
1, 122117, Control_c, 0, 64, 68
1, 122132, Control_c, 0, 64, 69
1, 122139, Note_off_c, 0, 79, 58
1, 122139, Note_off_c, 0, 91, 65
1, 122147, Control_c, 0, 64, 69
1, 122162, Control_c, 0, 64, 70
1, 122191, Control_c, 0, 64, 70
1, 122236, Control_c, 0, 64, 71
1, 122351, Note_on_c, 0, 85, 69
1, 122354, Control_c, 0, 67, 48
1, 122358, Note_on_c, 0, 73, 55
1, 122369, Control_c, 0, 67, 68
1, 122378, Note_off_c, 0, 73, 62
1, 122381, Note_on_c, 0, 72, 44
1, 122384, Control_c, 0, 64, 69
1, 122384, Control_c, 0, 67, 91
1, 122399, Control_c, 0, 64, 63
1, 122399, Control_c, 0, 67, 115
1, 122414, Control_c, 0, 64, 49
1, 122414, Control_c, 0, 67, 127
1, 122428, Control_c, 0, 64, 34
1, 122441, Note_on_c, 0, 88, 71
1, 122441, Note_off_c, 0, 85, 52
1, 122443, Control_c, 0, 64, 0
1, 122458, Note_on_c, 0, 70, 44
1, 122459, Note_on_c, 0, 76, 47
1, 122473, Control_c, 0, 64, 38
1, 122488, Control_c, 0, 64, 50
1, 122503, Control_c, 0, 64, 59
1, 122518, Control_c, 0, 64, 64
1, 122533, Control_c, 0, 64, 65
1, 122548, Control_c, 0, 64, 67
1, 122563, Control_c, 0, 64, 68
1, 122577, Control_c, 0, 64, 69
1, 122592, Control_c, 0, 64, 70
1, 122607, Control_c, 0, 64, 71
1, 122622, Control_c, 0, 64, 72
1, 122628, Note_off_c, 0, 70, 45
1, 122630, Note_off_c, 0, 64, 37
1, 122652, Control_c, 0, 64, 73
1, 122667, Control_c, 0, 64, 73
1, 122703, Control_c, 0, 64, 74
1, 122718, Control_c, 0, 64, 74
1, 122747, Control_c, 0, 64, 75
1, 122777, Control_c, 0, 64, 75
1, 122815, Note_on_c, 0, 62, 42
1, 122822, Control_c, 0, 64, 75
1, 122837, Control_c, 0, 64, 72
1, 122852, Control_c, 0, 64, 65
1, 122867, Control_c, 0, 64, 54
1, 122881, Control_c, 0, 64, 41
1, 122893, Note_off_c, 0, 62, 38
1, 122896, Control_c, 0, 64, 35
1, 122911, Control_c, 0, 64, 36
1, 122926, Control_c, 0, 64, 44
1, 122930, Note_on_c, 0, 61, 39
1, 122940, Control_c, 0, 64, 54
1, 122955, Control_c, 0, 64, 61
1, 122970, Control_c, 0, 64, 65
1, 122972, Note_off_c, 0, 76, 52
1, 122985, Control_c, 0, 64, 67
1, 123000, Control_c, 0, 64, 69
1, 123014, Control_c, 0, 64, 71
1, 123028, Note_off_c, 0, 88, 65
1, 123029, Control_c, 0, 64, 74
1, 123044, Control_c, 0, 64, 76
1, 123059, Control_c, 0, 64, 78
1, 123074, Control_c, 0, 64, 79
1, 123088, Control_c, 0, 64, 81
1, 123103, Control_c, 0, 64, 82
1, 123118, Control_c, 0, 64, 82
1, 123138, Note_off_c, 0, 61, 38
1, 123147, Control_c, 0, 64, 83
1, 123260, Note_off_c, 0, 72, 4
1, 123288, Note_on_c, 0, 98, 69
1, 123318, Note_on_c, 0, 64, 41
1, 123323, Note_on_c, 0, 62, 37
1, 123326, Control_c, 0, 64, 82
1, 123341, Control_c, 0, 64, 79
1, 123355, Control_c, 0, 64, 71
1, 123370, Control_c, 0, 64, 60
1, 123385, Control_c, 0, 64, 47
1, 123394, Note_off_c, 0, 98, 62
1, 123397, Note_on_c, 0, 97, 67
1, 123400, Control_c, 0, 64, 41
1, 123415, Note_on_c, 0, 85, 45
1, 123430, Note_on_c, 0, 67, 32
1, 123437, Control_c, 0, 64, 46
1, 123452, Control_c, 0, 64, 54
1, 123467, Control_c, 0, 64, 60
1, 123482, Control_c, 0, 64, 63
1, 123497, Control_c, 0, 64, 66
1, 123507, Poly_aftertouch_c, 0, 69, 127
1, 123511, Control_c, 0, 64, 68
1, 123526, Control_c, 0, 64, 70
1, 123541, Control_c, 0, 64, 72
1, 123555, Control_c, 0, 64, 74
1, 123570, Control_c, 0, 64, 75
1, 123585, Control_c, 0, 64, 75
1, 123600, Control_c, 0, 64, 76
1, 123615, Control_c, 0, 64, 77
1, 123627, Note_off_c, 0, 64, 34
1, 123631, Note_off_c, 0, 62, 41
1, 123638, Note_off_c, 0, 85, 40
1, 123642, Note_off_c, 0, 97, 62
1, 123645, Control_c, 0, 64, 77
1, 123819, Poly_aftertouch_c, 0, 69, 0
1, 123845, Note_off_c, 0, 67, 41
1, 123858, Note_on_c, 0, 96, 60
1, 123871, Note_on_c, 0, 62, 37
1, 123871, Note_on_c, 0, 84, 20
1, 123879, Note_on_c, 0, 60, 36
1, 123881, Control_c, 0, 64, 77
1, 123896, Control_c, 0, 64, 74
1, 123911, Control_c, 0, 64, 68
1, 123913, Note_off_c, 0, 84, 44
1, 123926, Control_c, 0, 64, 59
1, 123941, Control_c, 0, 64, 48
1, 123955, Control_c, 0, 64, 41
1, 123969, Note_off_c, 0, 96, 63
1, 123970, Control_c, 0, 64, 38
1, 123998, Note_on_c, 0, 95, 52
1, 124000, Control_c, 0, 64, 38
1, 124007, Note_on_c, 0, 67, 6
1, 124013, Note_on_c, 0, 65, 26
1, 124015, Control_c, 0, 64, 40
1, 124017, Note_on_c, 0, 83, 21
1, 124029, Control_c, 0, 64, 43
1, 124044, Control_c, 0, 64, 49
1, 124059, Control_c, 0, 64, 54
1, 124074, Control_c, 0, 64, 59
1, 124089, Control_c, 0, 64, 61
1, 124105, Control_c, 0, 64, 62
1, 124120, Control_c, 0, 64, 64
1, 124134, Control_c, 0, 64, 65
1, 124149, Control_c, 0, 64, 67
1, 124164, Control_c, 0, 64, 69
1, 124186, Control_c, 0, 64, 71
1, 124201, Control_c, 0, 64, 73
1, 124216, Control_c, 0, 64, 74
1, 124217, Note_off_c, 0, 95, 36
1, 124231, Control_c, 0, 64, 76
1, 124246, Control_c, 0, 64, 77
1, 124260, Control_c, 0, 64, 78
1, 124275, Control_c, 0, 64, 79
1, 124286, Note_off_c, 0, 83, 40
1, 124290, Control_c, 0, 64, 80
1, 124304, Control_c, 0, 64, 80
1, 124319, Control_c, 0, 64, 81
1, 124583, Note_on_c, 0, 74, 58
1, 124601, Control_c, 0, 64, 80
1, 124616, Control_c, 0, 64, 78
1, 124631, Control_c, 0, 64, 75
1, 124638, Note_off_c, 0, 74, 55
1, 124640, Note_off_c, 0, 62, 61
1, 124646, Control_c, 0, 64, 69
1, 124651, Note_off_c, 0, 60, 55
1, 124654, Note_off_c, 0, 65, 55
1, 124657, Note_off_c, 0, 67, 42
1, 124660, Control_c, 0, 64, 60
1, 124667, Note_on_c, 0, 75, 50
1, 124675, Control_c, 0, 64, 53
1, 124690, Control_c, 0, 64, 50
1, 124704, Control_c, 0, 64, 47
1, 124719, Control_c, 0, 64, 47
1, 124734, Control_c, 0, 64, 46
1, 124749, Control_c, 0, 64, 45
1, 124759, Note_off_c, 0, 75, 58
1, 124764, Control_c, 0, 64, 44
1, 124775, Note_on_c, 0, 78, 49
1, 124778, Control_c, 0, 64, 43
1, 124808, Control_c, 0, 64, 43
1, 124882, Control_c, 0, 64, 42
1, 125020, Note_on_c, 0, 65, 55
1, 125024, Control_c, 0, 64, 42
1, 125039, Note_on_c, 0, 63, 49
1, 125039, Control_c, 0, 64, 41
1, 125049, Note_on_c, 0, 58, 37
1, 125054, Control_c, 0, 64, 40
1, 125069, Control_c, 0, 64, 38
1, 125083, Control_c, 0, 64, 36
1, 125098, Control_c, 0, 64, 34
1, 125113, Note_on_c, 0, 66, 62
1, 125114, Control_c, 0, 64, 33
1, 125116, Note_off_c, 0, 65, 56
1, 125128, Control_c, 0, 64, 32
1, 125173, Control_c, 0, 64, 30
1, 125185, Note_off_c, 0, 66, 62
1, 125219, Note_on_c, 0, 69, 49
1, 125465, Note_on_c, 0, 71, 59
1, 125527, Note_off_c, 0, 78, 56
1, 125533, Note_off_c, 0, 71, 56
1, 125543, Control_c, 0, 64, 0
1, 125552, Note_on_c, 0, 72, 63
1, 125612, Note_off_c, 0, 72, 55
1, 125617, Control_c, 0, 64, 33
1, 125632, Control_c, 0, 64, 44
1, 125640, Note_off_c, 0, 63, 58
1, 125646, Control_c, 0, 64, 56
1, 125654, Note_on_c, 0, 75, 47
1, 125658, Note_off_c, 0, 58, 62
1, 125661, Control_c, 0, 64, 62
1, 125684, Control_c, 0, 64, 65
1, 125698, Control_c, 0, 64, 66
1, 125714, Control_c, 0, 64, 66
1, 125729, Control_c, 0, 64, 67
1, 125744, Control_c, 0, 64, 68
1, 125758, Control_c, 0, 64, 69
1, 125764, Note_off_c, 0, 69, 42
1, 125773, Control_c, 0, 64, 69
1, 125818, Control_c, 0, 64, 70
1, 125916, Note_on_c, 0, 62, 57
1, 125931, Note_on_c, 0, 60, 46
1, 125946, Note_on_c, 0, 55, 29
1, 125965, Control_c, 0, 64, 69
1, 125980, Control_c, 0, 64, 65
1, 125995, Control_c, 0, 64, 58
1, 126000, Note_off_c, 0, 62, 63
1, 126010, Control_c, 0, 64, 43
1, 126012, Note_on_c, 0, 63, 66
1, 126024, Control_c, 0, 64, 0
1, 126103, Note_off_c, 0, 63, 60
1, 126126, Note_on_c, 0, 66, 47
1, 126143, Control_c, 0, 64, 33
1, 126158, Control_c, 0, 64, 46
1, 126172, Control_c, 0, 64, 56
1, 126187, Control_c, 0, 64, 62
1, 126202, Control_c, 0, 64, 64
1, 126210, Note_off_c, 0, 75, 64
1, 126217, Control_c, 0, 64, 64
1, 126232, Control_c, 0, 64, 65
1, 126262, Control_c, 0, 64, 66
1, 126291, Control_c, 0, 64, 66
1, 126336, Control_c, 0, 67, 117
1, 126350, Control_c, 0, 67, 106
1, 126365, Control_c, 0, 67, 97
1, 126380, Control_c, 0, 67, 86
1, 126395, Control_c, 0, 67, 78
1, 126401, Note_on_c, 0, 83, 69
1, 126410, Control_c, 0, 67, 71
1, 126432, Control_c, 0, 67, 66
1, 126447, Control_c, 0, 67, 62
1, 126462, Control_c, 0, 67, 54
1, 126476, Control_c, 0, 67, 46
1, 126491, Control_c, 0, 64, 66
1, 126491, Control_c, 0, 67, 0
1, 126521, Control_c, 0, 64, 65
1, 126551, Control_c, 0, 64, 65
1, 126566, Control_c, 0, 64, 64
1, 126572, Note_on_c, 0, 82, 75
1, 126581, Control_c, 0, 64, 64
1, 126596, Control_c, 0, 64, 63
1, 126611, Note_off_c, 0, 83, 60
1, 126626, Control_c, 0, 64, 63
1, 126685, Control_c, 0, 64, 62
1, 126768, Note_on_c, 0, 81, 81
1, 126820, Note_off_c, 0, 82, 61
1, 126915, Note_on_c, 0, 83, 85
1, 126945, Note_off_c, 0, 81, 62
1, 127064, Note_on_c, 0, 80, 80
1, 127075, Note_off_c, 0, 83, 59
1, 127225, Note_on_c, 0, 85, 70
1, 127225, Control_c, 0, 64, 62
1, 127231, Note_off_c, 0, 80, 61
1, 127240, Control_c, 0, 64, 61
1, 127254, Control_c, 0, 64, 59
1, 127269, Control_c, 0, 64, 55
1, 127272, Note_off_c, 0, 85, 57
1, 127273, Note_on_c, 0, 84, 66
1, 127284, Control_c, 0, 64, 49
1, 127300, Control_c, 0, 64, 43
1, 127315, Control_c, 0, 64, 37
1, 127344, Control_c, 0, 64, 38
1, 127359, Control_c, 0, 64, 44
1, 127374, Control_c, 0, 64, 53
1, 127389, Control_c, 0, 64, 61
1, 127403, Control_c, 0, 64, 64
1, 127418, Control_c, 0, 64, 67
1, 127433, Control_c, 0, 64, 69
1, 127448, Control_c, 0, 64, 71
1, 127463, Control_c, 0, 64, 74
1, 127477, Control_c, 0, 64, 76
1, 127482, Note_off_c, 0, 60, 57
1, 127492, Control_c, 0, 64, 78
1, 127507, Control_c, 0, 64, 79
1, 127511, Note_off_c, 0, 55, 40
1, 127521, Control_c, 0, 64, 80
1, 127536, Control_c, 0, 64, 80
1, 127551, Control_c, 0, 64, 81
1, 127581, Control_c, 0, 64, 82
1, 127583, Note_on_c, 0, 79, 54
1, 127586, Note_off_c, 0, 66, 60
1, 127595, Control_c, 0, 64, 82
1, 127630, Note_off_c, 0, 84, 49
1, 127640, Control_c, 0, 64, 83
1, 127676, Note_on_c, 0, 68, 69
1, 127739, Note_off_c, 0, 79, 60
1, 127845, Note_off_c, 0, 68, 62
1, 127892, Control_c, 0, 64, 82
1, 127907, Note_on_c, 0, 67, 70
1, 127907, Control_c, 0, 64, 80
1, 127928, Control_c, 0, 64, 73
1, 127931, Note_on_c, 0, 56, 41
1, 127940, Note_on_c, 0, 60, 49
1, 127943, Control_c, 0, 64, 63
1, 127958, Control_c, 0, 64, 45
1, 127973, Control_c, 0, 64, 0
1, 128137, Control_c, 0, 64, 29
1, 128152, Control_c, 0, 64, 40
1, 128167, Control_c, 0, 64, 51
1, 128182, Control_c, 0, 64, 58
1, 128196, Control_c, 0, 64, 61
1, 128211, Control_c, 0, 64, 62
1, 128226, Control_c, 0, 64, 64
1, 128241, Control_c, 0, 64, 65
1, 128256, Control_c, 0, 64, 66
1, 128271, Control_c, 0, 64, 68
1, 128286, Control_c, 0, 64, 69
1, 128300, Control_c, 0, 64, 71
1, 128315, Control_c, 0, 64, 72
1, 128330, Control_c, 0, 64, 73
1, 128344, Control_c, 0, 64, 74
1, 128359, Control_c, 0, 64, 75
1, 128374, Control_c, 0, 64, 76
1, 128382, Note_on_c, 0, 72, 50
1, 128389, Control_c, 0, 64, 76
1, 128404, Control_c, 0, 64, 77
1, 128418, Control_c, 0, 64, 77
1, 128426, Note_off_c, 0, 72, 57
1, 128433, Control_c, 0, 64, 78
1, 128519, Note_on_c, 0, 72, 67
1, 128547, Note_off_c, 0, 72, 60
1, 128611, Note_on_c, 0, 72, 70
1, 128625, Note_off_c, 0, 67, 54
1, 128636, Note_off_c, 0, 72, 66
1, 128692, Control_c, 0, 64, 77
1, 128693, Note_on_c, 0, 66, 66
1, 128707, Control_c, 0, 64, 75
1, 128708, Note_on_c, 0, 72, 63
1, 128722, Control_c, 0, 64, 68
1, 128737, Control_c, 0, 64, 56
1, 128751, Control_c, 0, 64, 34
1, 128766, Control_c, 0, 64, 0
1, 128802, Note_off_c, 0, 66, 63
1, 128805, Note_on_c, 0, 68, 75
1, 128855, Control_c, 0, 64, 40
1, 128870, Control_c, 0, 64, 52
1, 128885, Control_c, 0, 64, 59
1, 128888, Note_off_c, 0, 72, 57
1, 128900, Control_c, 0, 64, 61
1, 128911, Note_on_c, 0, 71, 59
1, 128915, Control_c, 0, 64, 62
1, 128930, Control_c, 0, 64, 63
1, 128945, Control_c, 0, 64, 64
1, 128960, Control_c, 0, 64, 64
1, 128966, Note_off_c, 0, 71, 54
1, 128974, Control_c, 0, 64, 65
1, 128989, Control_c, 0, 64, 65
1, 129004, Control_c, 0, 64, 66
1, 129019, Control_c, 0, 64, 67
1, 129022, Note_on_c, 0, 72, 56
1, 129034, Control_c, 0, 64, 68
1, 129049, Control_c, 0, 64, 69
1, 129064, Control_c, 0, 64, 69
1, 129079, Control_c, 0, 64, 70
1, 129092, Note_off_c, 0, 68, 62
1, 129094, Control_c, 0, 64, 70
1, 129126, Note_on_c, 0, 75, 63
1, 129132, Note_off_c, 0, 72, 58
1, 129135, Note_on_c, 0, 67, 72
1, 129168, Control_c, 0, 64, 70
1, 129182, Control_c, 0, 64, 67
1, 129197, Control_c, 0, 64, 59
1, 129212, Control_c, 0, 64, 41
1, 129227, Control_c, 0, 64, 0
1, 129232, Note_off_c, 0, 75, 60
1, 129236, Note_on_c, 0, 66, 73
1, 129247, Note_on_c, 0, 79, 53
1, 129252, Note_off_c, 0, 67, 56
1, 129300, Control_c, 0, 64, 35
1, 129315, Control_c, 0, 64, 49
1, 129330, Control_c, 0, 64, 60
1, 129345, Control_c, 0, 64, 64
1, 129360, Control_c, 0, 64, 66
1, 129374, Control_c, 0, 64, 67
1, 129377, Note_off_c, 0, 79, 58
1, 129389, Control_c, 0, 64, 69
1, 129398, Note_on_c, 0, 75, 48
1, 129404, Control_c, 0, 64, 70
1, 129426, Control_c, 0, 64, 72
1, 129441, Control_c, 0, 64, 74
1, 129456, Control_c, 0, 64, 75
1, 129458, Note_off_c, 0, 66, 59
1, 129471, Control_c, 0, 64, 75
1, 129486, Note_off_c, 0, 56, 61
1, 129486, Control_c, 0, 64, 76
1, 129487, Note_off_c, 0, 60, 33
1, 129500, Control_c, 0, 64, 76
1, 129513, Note_off_c, 0, 75, 58
1, 129515, Control_c, 0, 64, 77
1, 129547, Note_on_c, 0, 72, 53
1, 129560, Control_c, 0, 64, 77
1, 129670, Note_off_c, 0, 72, 53
1, 129688, Note_on_c, 0, 68, 63
1, 129797, Control_c, 0, 64, 77
1, 129800, Note_off_c, 0, 68, 55
1, 129812, Control_c, 0, 64, 75
1, 129821, Note_on_c, 0, 67, 59
1, 129827, Note_on_c, 0, 53, 48
1, 129827, Control_c, 0, 64, 71
1, 129830, Note_on_c, 0, 60, 43
1, 129842, Control_c, 0, 64, 63
1, 129857, Control_c, 0, 64, 46
1, 129872, Control_c, 0, 64, 0
1, 129887, Control_c, 0, 66, 127
1, 130064, Control_c, 0, 64, 41
1, 130079, Control_c, 0, 64, 53
1, 130094, Control_c, 0, 64, 60
1, 130109, Control_c, 0, 64, 62
1, 130123, Control_c, 0, 64, 63
1, 130138, Control_c, 0, 64, 64
1, 130153, Control_c, 0, 64, 64
1, 130176, Control_c, 0, 64, 65
1, 130191, Control_c, 0, 64, 66
1, 130220, Control_c, 0, 64, 66
1, 130305, Note_off_c, 0, 53, 34
1, 130307, Note_on_c, 0, 72, 47
1, 130316, Note_off_c, 0, 60, 62
1, 130350, Note_off_c, 0, 72, 57
1, 130477, Note_on_c, 0, 72, 40
1, 130506, Note_off_c, 0, 72, 54
1, 130576, Control_c, 0, 64, 66
1, 130591, Control_c, 0, 64, 65
1, 130599, Note_on_c, 0, 72, 36
1, 130606, Control_c, 0, 64, 64
1, 130620, Control_c, 0, 64, 63
1, 130626, Note_off_c, 0, 72, 0
1, 130635, Control_c, 0, 64, 61
1, 130645, Poly_aftertouch_c, 0, 72, 0
1, 130650, Control_c, 0, 64, 59
1, 130653, Note_on_c, 0, 66, 65
1, 130664, Note_on_c, 0, 72, 33
1, 130665, Note_off_c, 0, 67, 58
1, 130665, Control_c, 0, 64, 56
1, 130680, Control_c, 0, 64, 54
1, 130694, Control_c, 0, 64, 52
1, 130709, Control_c, 0, 64, 49
1, 130724, Control_c, 0, 64, 47
1, 130739, Control_c, 0, 64, 45
1, 130754, Control_c, 0, 64, 43
1, 130755, Note_on_c, 0, 67, 56
1, 130769, Control_c, 0, 64, 40
1, 130774, Note_off_c, 0, 66, 51
1, 130784, Control_c, 0, 64, 38
1, 130799, Control_c, 0, 64, 36
1, 130813, Control_c, 0, 64, 34
1, 130828, Control_c, 0, 64, 33
1, 130843, Control_c, 0, 64, 32
1, 130854, Note_off_c, 0, 72, 60
1, 130879, Note_on_c, 0, 71, 51
1, 130951, Note_off_c, 0, 71, 51
1, 130999, Note_on_c, 0, 72, 48
1, 131098, Note_off_c, 0, 72, 53
1, 131099, Note_on_c, 0, 66, 59
1, 131111, Note_on_c, 0, 75, 43
1, 131132, Note_off_c, 0, 67, 49
1, 131197, Note_off_c, 0, 75, 60
1, 131198, Note_off_c, 0, 66, 59
1, 131213, Note_on_c, 0, 65, 48
1, 131214, Note_on_c, 0, 81, 50
1, 131325, Control_c, 0, 64, 38
1, 131337, Note_off_c, 0, 81, 57
1, 131340, Control_c, 0, 64, 48
1, 131355, Control_c, 0, 64, 58
1, 131369, Control_c, 0, 64, 63
1, 131384, Note_off_c, 0, 65, 60
1, 131384, Control_c, 0, 64, 66
1, 131387, Note_on_c, 0, 75, 38
1, 131399, Control_c, 0, 64, 67
1, 131414, Control_c, 0, 64, 69
1, 131429, Control_c, 0, 64, 72
1, 131443, Control_c, 0, 64, 75
1, 131458, Control_c, 0, 64, 77
1, 131473, Control_c, 0, 64, 80
1, 131487, Note_off_c, 0, 75, 61
1, 131487, Control_c, 0, 64, 84
1, 131502, Control_c, 0, 64, 86
1, 131517, Control_c, 0, 64, 89
1, 131521, Note_on_c, 0, 72, 51
1, 131532, Control_c, 0, 64, 91
1, 131547, Control_c, 0, 64, 93
1, 131562, Control_c, 0, 64, 94
1, 131577, Control_c, 0, 64, 96
1, 131622, Control_c, 0, 64, 98
1, 131639, Note_off_c, 0, 72, 57
1, 131676, Note_on_c, 0, 66, 64
1, 131744, Note_off_c, 0, 66, 62
1, 131777, Control_c, 0, 66, 0
1, 131899, Note_on_c, 0, 48, 39
1, 131902, Note_on_c, 0, 44, 37
1, 131913, Note_on_c, 0, 36, 34
1, 131955, Control_c, 0, 64, 90
1, 131970, Control_c, 0, 64, 79
1, 131979, Note_on_c, 0, 65, 62
1, 131985, Control_c, 0, 64, 67
1, 132000, Control_c, 0, 64, 49
1, 132000, Control_c, 0, 66, 127
1, 132013, Note_on_c, 0, 56, 33
1, 132015, Control_c, 0, 64, 0
1, 132149, Control_c, 0, 64, 30
1, 132164, Control_c, 0, 64, 41
1, 132179, Control_c, 0, 64, 51
1, 132188, Note_off_c, 0, 65, 62
1, 132193, Control_c, 0, 64, 59
1, 132203, Note_on_c, 0, 64, 59
1, 132208, Control_c, 0, 64, 62
1, 132223, Control_c, 0, 64, 63
1, 132236, Note_off_c, 0, 36, 39
1, 132238, Control_c, 0, 64, 64
1, 132242, Note_off_c, 0, 48, 62
1, 132253, Control_c, 0, 64, 65
1, 132259, Note_off_c, 0, 44, 53
1, 132267, Control_c, 0, 64, 66
1, 132280, Note_off_c, 0, 56, 41
1, 132282, Control_c, 0, 64, 66
1, 132297, Control_c, 0, 64, 67
1, 132326, Control_c, 0, 64, 67
1, 132345, Note_off_c, 0, 64, 61
1, 132346, Note_on_c, 0, 66, 76
1, 132468, Note_off_c, 0, 66, 56
1, 132477, Note_on_c, 0, 63, 75
1, 132540, Note_off_c, 0, 63, 65
1, 132541, Control_c, 0, 64, 67
1, 132569, Note_on_c, 0, 68, 39
1, 132599, Control_c, 0, 64, 66
1, 132614, Control_c, 0, 64, 65
1, 132620, Note_on_c, 0, 67, 75
1, 132629, Control_c, 0, 64, 65
1, 132638, Note_off_c, 0, 68, 46
1, 132644, Control_c, 0, 64, 64
1, 132659, Control_c, 0, 64, 63
1, 132674, Control_c, 0, 64, 62
1, 132689, Control_c, 0, 64, 61
1, 132704, Control_c, 0, 64, 60
1, 132718, Control_c, 0, 64, 60
1, 132733, Control_c, 0, 64, 59
1, 132763, Control_c, 0, 64, 59
1, 132770, Note_on_c, 0, 62, 64
1, 132778, Control_c, 0, 64, 58
1, 132782, Note_on_c, 0, 75, 79
1, 132792, Note_off_c, 0, 67, 52
1, 132792, Control_c, 0, 64, 58
1, 132807, Control_c, 0, 64, 57
1, 132822, Control_c, 0, 64, 56
1, 132837, Control_c, 0, 64, 56
1, 132866, Control_c, 0, 64, 55
1, 132936, Note_on_c, 0, 74, 80
1, 132956, Control_c, 0, 64, 55
1, 132987, Note_off_c, 0, 75, 54
1, 133088, Note_on_c, 0, 73, 73
1, 133107, Note_off_c, 0, 74, 57
1, 133230, Control_c, 0, 64, 54
1, 133235, Note_off_c, 0, 73, 57
1, 133238, Note_on_c, 0, 75, 65
1, 133274, Control_c, 0, 64, 55
1, 133304, Control_c, 0, 64, 56
1, 133319, Control_c, 0, 64, 58
1, 133334, Control_c, 0, 64, 60
1, 133335, Note_off_c, 0, 62, 60
1, 133341, Note_off_c, 0, 75, 56
1, 133348, Control_c, 0, 64, 62
1, 133363, Control_c, 0, 64, 64
1, 133378, Note_on_c, 0, 72, 59
1, 133378, Control_c, 0, 64, 65
1, 133393, Control_c, 0, 64, 66
1, 133408, Control_c, 0, 64, 66
1, 133422, Control_c, 0, 64, 67
1, 133437, Control_c, 0, 64, 67
1, 133477, Note_off_c, 0, 72, 46
1, 133494, Note_on_c, 0, 77, 58
1, 133519, Note_on_c, 0, 76, 64
1, 133554, Note_off_c, 0, 77, 60
1, 133615, Control_c, 0, 64, 67
1, 133630, Control_c, 0, 64, 66
1, 133643, Note_off_c, 0, 76, 60
1, 133645, Control_c, 0, 64, 65
1, 133647, Note_on_c, 0, 71, 68
1, 133651, Note_on_c, 0, 78, 71
1, 133660, Control_c, 0, 64, 64
1, 133674, Control_c, 0, 64, 63
1, 133690, Control_c, 0, 64, 62
1, 133705, Control_c, 0, 64, 61
1, 133720, Control_c, 0, 64, 60
1, 133735, Control_c, 0, 64, 59
1, 133764, Control_c, 0, 64, 58
1, 133844, Note_on_c, 0, 77, 70
1, 133878, Note_off_c, 0, 78, 56
1, 133883, Control_c, 0, 64, 58
1, 133994, Control_c, 0, 64, 58
1, 134009, Control_c, 0, 64, 59
1, 134024, Control_c, 0, 64, 60
1, 134025, Note_on_c, 0, 76, 66
1, 134038, Control_c, 0, 64, 61
1, 134053, Control_c, 0, 64, 63
1, 134068, Control_c, 0, 64, 64
1, 134083, Control_c, 0, 64, 65
1, 134093, Note_off_c, 0, 77, 46
1, 134097, Control_c, 0, 64, 66
1, 134112, Control_c, 0, 64, 66
1, 134127, Control_c, 0, 64, 67
1, 134142, Control_c, 0, 64, 67
1, 134152, Note_off_c, 0, 76, 63
1, 134157, Control_c, 0, 64, 68
1, 134167, Note_on_c, 0, 78, 62
1, 134169, Note_off_c, 0, 71, 36
1, 134294, Note_off_c, 0, 78, 58
1, 134306, Note_on_c, 0, 75, 63
1, 134435, Note_off_c, 0, 75, 58
1, 134448, Note_on_c, 0, 80, 59
1, 134508, Note_off_c, 0, 80, 61
1, 134519, Note_on_c, 0, 79, 52
1, 134686, Note_on_c, 0, 74, 50
1, 134687, Note_on_c, 0, 87, 63
1, 134748, Note_off_c, 0, 79, 30
1, 134802, Control_c, 0, 64, 67
1, 134832, Control_c, 0, 64, 67
1, 134877, Control_c, 0, 64, 66
1, 134889, Note_on_c, 0, 86, 58
1, 134942, Note_off_c, 0, 87, 39
1, 135045, Note_off_c, 0, 86, 56
1, 135082, Note_on_c, 0, 85, 42
1, 135202, Control_c, 0, 64, 67
1, 135217, Control_c, 0, 64, 67
1, 135231, Control_c, 0, 64, 68
1, 135243, Note_off_c, 0, 85, 49
1, 135246, Control_c, 0, 64, 69
1, 135261, Control_c, 0, 64, 71
1, 135276, Note_on_c, 0, 87, 43
1, 135276, Control_c, 0, 64, 72
1, 135292, Control_c, 0, 64, 74
1, 135307, Control_c, 0, 64, 75
1, 135322, Control_c, 0, 64, 77
1, 135336, Control_c, 0, 64, 78
1, 135351, Control_c, 0, 64, 80
1, 135366, Control_c, 0, 64, 81
1, 135381, Control_c, 0, 64, 83
1, 135396, Control_c, 0, 64, 84
1, 135418, Control_c, 0, 64, 85
1, 135433, Control_c, 0, 64, 87
1, 135448, Control_c, 0, 64, 88
1, 135449, Note_off_c, 0, 74, 37
1, 135462, Control_c, 0, 64, 89
1, 135477, Control_c, 0, 64, 90
1, 135492, Note_off_c, 0, 87, 31
1, 135492, Control_c, 0, 64, 92
1, 135501, Note_on_c, 0, 84, 38
1, 135507, Control_c, 0, 64, 93
1, 135522, Control_c, 0, 64, 94
1, 135536, Control_c, 0, 64, 96
1, 135566, Control_c, 0, 64, 99
1, 135596, Control_c, 0, 64, 102
1, 135625, Control_c, 0, 64, 104
1, 135655, Control_c, 0, 64, 106
1, 135684, Control_c, 0, 64, 108
1, 135714, Control_c, 0, 64, 110
1, 135729, Control_c, 0, 64, 112
1, 135737, Note_on_c, 0, 89, 28
1, 135759, Control_c, 0, 64, 114
1, 135774, Control_c, 0, 64, 117
1, 135777, Note_on_c, 0, 88, 44
1, 135789, Control_c, 0, 64, 119
1, 135793, Note_off_c, 0, 89, 43
1, 135804, Control_c, 0, 64, 124
1, 135818, Control_c, 0, 64, 127
1, 135860, Note_off_c, 0, 84, 35
1, 136199, Note_on_c, 0, 83, 37
1, 136330, Control_c, 0, 66, 0
1, 136847, Control_c, 0, 67, 51
1, 136862, Control_c, 0, 67, 78
1, 136878, Control_c, 0, 67, 110
1, 136893, Control_c, 0, 67, 127
1, 136915, Control_c, 0, 64, 108
1, 136930, Control_c, 0, 64, 86
1, 136945, Control_c, 0, 64, 72
1, 136960, Control_c, 0, 64, 61
1, 136969, Note_on_c, 0, 48, 50
1, 136975, Control_c, 0, 64, 55
1, 136981, Note_on_c, 0, 36, 34
1, 137004, Control_c, 0, 64, 57
1, 137011, Note_off_c, 0, 88, 37
1, 137014, Note_off_c, 0, 83, 37
1, 137019, Control_c, 0, 64, 60
1, 137029, Note_off_c, 0, 48, 57
1, 137033, Control_c, 0, 64, 62
1, 137038, Note_off_c, 0, 36, 56
1, 137048, Control_c, 0, 64, 64
1, 137063, Control_c, 0, 64, 65
1, 137078, Control_c, 0, 64, 66
1, 137093, Control_c, 0, 64, 66
1, 137149, Note_on_c, 0, 48, 46
1, 137162, Note_on_c, 0, 36, 31
1, 137188, Note_off_c, 0, 48, 50
1, 137209, Note_off_c, 0, 36, 47
1, 137303, Note_on_c, 0, 48, 30
1, 137312, Note_on_c, 0, 36, 33
1, 137342, Note_off_c, 0, 48, 51
1, 137358, Note_off_c, 0, 36, 50
1, 137448, Control_c, 0, 64, 66
1, 137463, Control_c, 0, 64, 64
1, 137472, Note_on_c, 0, 48, 47
1, 137478, Control_c, 0, 64, 62
1, 137487, Note_on_c, 0, 36, 40
1, 137493, Control_c, 0, 64, 60
1, 137507, Control_c, 0, 64, 58
1, 137522, Control_c, 0, 64, 57
1, 137611, Control_c, 0, 64, 56
1, 137753, Control_c, 0, 64, 56
1, 137798, Control_c, 0, 64, 55
1, 137812, Control_c, 0, 64, 55
1, 137822, Note_on_c, 0, 51, 41
1, 137843, Control_c, 0, 64, 54
1, 137857, Control_c, 0, 64, 54
1, 137887, Control_c, 0, 64, 53
1, 137902, Control_c, 0, 64, 53
1, 137917, Control_c, 0, 64, 52
1, 137931, Control_c, 0, 64, 52
1, 137941, Note_off_c, 0, 51, 42
1, 137946, Control_c, 0, 64, 51
1, 137982, Note_on_c, 0, 56, 36
1, 138005, Control_c, 0, 64, 53
1, 138020, Control_c, 0, 64, 57
1, 138035, Control_c, 0, 64, 62
1, 138050, Control_c, 0, 64, 64
1, 138064, Control_c, 0, 64, 67
1, 138079, Control_c, 0, 64, 69
1, 138094, Control_c, 0, 64, 70
1, 138109, Control_c, 0, 64, 72
1, 138122, Note_off_c, 0, 56, 25
1, 138124, Control_c, 0, 64, 72
1, 138126, Note_off_c, 0, 48, 53
1, 138129, Note_on_c, 0, 51, 41
1, 138130, Note_off_c, 0, 36, 41
1, 138138, Control_c, 0, 64, 73
1, 138153, Control_c, 0, 64, 73
1, 138182, Control_c, 0, 64, 74
1, 138257, Control_c, 0, 64, 73
1, 138272, Control_c, 0, 64, 71
1, 138275, Note_on_c, 0, 48, 59
1, 138280, Note_off_c, 0, 51, 38
1, 138287, Control_c, 0, 64, 65
1, 138289, Note_on_c, 0, 36, 37
1, 138302, Control_c, 0, 64, 59
1, 138305, Note_off_c, 0, 48, 58
1, 138317, Control_c, 0, 64, 55
1, 138331, Control_c, 0, 64, 53
1, 138441, Note_on_c, 0, 48, 44
1, 138457, Control_c, 0, 64, 53
1, 138472, Control_c, 0, 64, 54
1, 138475, Note_off_c, 0, 48, 53
1, 138487, Control_c, 0, 64, 55
1, 138502, Control_c, 0, 64, 57
1, 138517, Control_c, 0, 64, 58
1, 138532, Control_c, 0, 64, 58
1, 138547, Control_c, 0, 64, 60
1, 138561, Control_c, 0, 64, 61
1, 138576, Control_c, 0, 64, 61
1, 138588, Note_on_c, 0, 48, 38
1, 138591, Control_c, 0, 64, 62
1, 138606, Control_c, 0, 64, 62
1, 138621, Control_c, 0, 64, 63
1, 138624, Note_off_c, 0, 48, 46
1, 138636, Control_c, 0, 64, 63
1, 138650, Control_c, 0, 64, 64
1, 138680, Control_c, 0, 64, 64
1, 138754, Control_c, 0, 64, 64
1, 138769, Control_c, 0, 64, 63
1, 138772, Note_on_c, 0, 48, 50
1, 138784, Control_c, 0, 64, 62
1, 138799, Control_c, 0, 64, 61
1, 138813, Control_c, 0, 64, 60
1, 138828, Control_c, 0, 64, 60
1, 138858, Control_c, 0, 64, 59
1, 138976, Control_c, 0, 64, 59
1, 139100, Note_on_c, 0, 53, 37
1, 139205, Control_c, 0, 64, 59
1, 139226, Note_off_c, 0, 53, 45
1, 139235, Control_c, 0, 64, 60
1, 139250, Control_c, 0, 64, 61
1, 139265, Control_c, 0, 64, 62
1, 139280, Control_c, 0, 64, 64
1, 139282, Note_on_c, 0, 58, 29
1, 139296, Control_c, 0, 64, 65
1, 139310, Control_c, 0, 64, 67
1, 139325, Control_c, 0, 64, 69
1, 139340, Control_c, 0, 64, 71
1, 139355, Control_c, 0, 64, 73
1, 139370, Control_c, 0, 64, 75
1, 139384, Control_c, 0, 64, 76
1, 139399, Control_c, 0, 64, 76
1, 139414, Control_c, 0, 64, 77
1, 139428, Control_c, 0, 64, 77
1, 139433, Note_on_c, 0, 53, 32
1, 139443, Control_c, 0, 64, 78
1, 139447, Note_off_c, 0, 36, 41
1, 139458, Control_c, 0, 64, 78
1, 139479, Note_off_c, 0, 48, 40
1, 139480, Note_off_c, 0, 58, 31
1, 139563, Note_off_c, 0, 53, 55
1, 139616, Note_on_c, 0, 48, 41
1, 139620, Note_on_c, 0, 36, 30
1, 139636, Control_c, 0, 64, 78
1, 139651, Control_c, 0, 64, 77
1, 139666, Control_c, 0, 64, 75
1, 139681, Control_c, 0, 64, 73
1, 139696, Control_c, 0, 64, 70
1, 139710, Control_c, 0, 64, 67
1, 139725, Control_c, 0, 64, 65
1, 139740, Control_c, 0, 64, 63
1, 139755, Control_c, 0, 64, 62
1, 139795, Note_off_c, 0, 48, 51
1, 139799, Control_c, 0, 64, 62
1, 139800, Note_on_c, 0, 46, 37
1, 139828, Control_c, 0, 64, 61
1, 139858, Control_c, 0, 64, 61
1, 139888, Control_c, 0, 64, 60
1, 139925, Control_c, 0, 64, 60
1, 139957, Note_on_c, 0, 63, 55
1, 139961, Note_off_c, 0, 46, 36
1, 139966, Note_on_c, 0, 48, 28
1, 139969, Control_c, 0, 64, 59
1, 139974, Note_on_c, 0, 60, 29
1, 140007, Note_off_c, 0, 48, 50
1, 140123, Note_on_c, 0, 48, 40
1, 140162, Control_c, 0, 64, 60
1, 140169, Note_off_c, 0, 36, 43
1, 140177, Control_c, 0, 64, 60
1, 140192, Control_c, 0, 64, 61
1, 140206, Control_c, 0, 64, 62
1, 140221, Control_c, 0, 64, 63
1, 140236, Control_c, 0, 64, 64
1, 140251, Control_c, 0, 64, 65
1, 140265, Control_c, 0, 64, 67
1, 140280, Control_c, 0, 64, 69
1, 140290, Note_on_c, 0, 68, 64
1, 140295, Control_c, 0, 64, 71
1, 140310, Control_c, 0, 64, 73
1, 140325, Control_c, 0, 64, 74
1, 140339, Control_c, 0, 64, 76
1, 140354, Control_c, 0, 64, 77
1, 140369, Control_c, 0, 64, 78
1, 140374, Poly_aftertouch_c, 0, 65, 127
1, 140384, Control_c, 0, 64, 79
1, 140394, Note_off_c, 0, 60, 40
1, 140398, Control_c, 0, 64, 80
1, 140413, Control_c, 0, 64, 81
1, 140425, Note_off_c, 0, 48, 37
1, 140428, Control_c, 0, 64, 83
1, 140443, Control_c, 0, 64, 84
1, 140457, Control_c, 0, 64, 84
1, 140466, Note_on_c, 0, 51, 39
1, 140472, Control_c, 0, 64, 85
1, 140475, Note_off_c, 0, 63, 31
1, 140487, Control_c, 0, 64, 86
1, 140517, Poly_aftertouch_c, 0, 65, 0
1, 140517, Control_c, 0, 64, 86
1, 140558, Note_off_c, 0, 68, 61
1, 140571, Note_off_c, 0, 51, 52
1, 140633, Note_on_c, 0, 56, 48
1, 140799, Note_off_c, 0, 56, 40
1, 140818, Note_on_c, 0, 74, 62
1, 140842, Note_on_c, 0, 51, 45
1, 140848, Note_on_c, 0, 70, 39
1, 140871, Note_off_c, 0, 51, 58
1, 140895, Control_c, 0, 64, 86
1, 140955, Control_c, 0, 64, 85
1, 140970, Control_c, 0, 64, 84
1, 140985, Control_c, 0, 64, 81
1, 140999, Control_c, 0, 64, 78
1, 141011, Note_on_c, 0, 67, 56
1, 141014, Control_c, 0, 64, 72
1, 141021, Note_on_c, 0, 48, 55
1, 141029, Control_c, 0, 64, 66
1, 141031, Note_off_c, 0, 70, 42
1, 141032, Note_on_c, 0, 36, 42
1, 141044, Control_c, 0, 64, 60
1, 141059, Control_c, 0, 64, 55
1, 141073, Control_c, 0, 64, 52
1, 141088, Control_c, 0, 64, 50
1, 141103, Control_c, 0, 64, 50
1, 141118, Control_c, 0, 64, 49
1, 141134, Note_off_c, 0, 48, 49
1, 141147, Control_c, 0, 64, 49
1, 141181, Note_on_c, 0, 46, 42
1, 141251, Control_c, 0, 64, 48
1, 141275, Note_off_c, 0, 46, 51
1, 141327, Note_on_c, 0, 48, 41
1, 141361, Note_off_c, 0, 48, 55
1, 141451, Control_c, 0, 64, 49
1, 141466, Control_c, 0, 64, 53
1, 141480, Control_c, 0, 64, 58
1, 141495, Control_c, 0, 64, 63
1, 141510, Control_c, 0, 64, 66
1, 141521, Note_on_c, 0, 48, 42
1, 141525, Control_c, 0, 64, 70
1, 141527, Note_off_c, 0, 36, 42
1, 141540, Control_c, 0, 64, 73
1, 141554, Control_c, 0, 64, 76
1, 141569, Control_c, 0, 64, 78
1, 141585, Control_c, 0, 64, 80
1, 141599, Control_c, 0, 64, 82
1, 141614, Control_c, 0, 64, 84
1, 141629, Control_c, 0, 64, 86
1, 141644, Control_c, 0, 64, 87
1, 141659, Control_c, 0, 64, 88
1, 141675, Control_c, 0, 64, 89
1, 141690, Control_c, 0, 64, 90
1, 141704, Control_c, 0, 64, 91
1, 141719, Control_c, 0, 64, 91
1, 141726, Note_off_c, 0, 48, 36
1, 141749, Control_c, 0, 64, 92
1, 141808, Control_c, 0, 64, 92
1, 141833, Note_on_c, 0, 53, 41
1, 141946, Note_off_c, 0, 53, 49
1, 141988, Note_on_c, 0, 58, 51
1, 142078, Note_off_c, 0, 58, 56
1, 142133, Note_on_c, 0, 53, 50
1, 142162, Note_off_c, 0, 53, 60
1, 142230, Control_c, 0, 64, 92
1, 142260, Control_c, 0, 64, 88
1, 142275, Control_c, 0, 64, 79
1, 142290, Control_c, 0, 64, 70
1, 142304, Control_c, 0, 64, 62
1, 142314, Note_off_c, 0, 67, 62
1, 142317, Note_on_c, 0, 48, 47
1, 142319, Control_c, 0, 64, 59
1, 142326, Note_on_c, 0, 36, 30
1, 142334, Control_c, 0, 64, 60
1, 142348, Note_off_c, 0, 74, 64
1, 142348, Control_c, 0, 64, 62
1, 142363, Control_c, 0, 64, 64
1, 142378, Control_c, 0, 64, 67
1, 142393, Control_c, 0, 64, 69
1, 142408, Control_c, 0, 64, 71
1, 142413, Note_off_c, 0, 48, 52
1, 142422, Control_c, 0, 64, 72
1, 142437, Control_c, 0, 64, 73
1, 142452, Control_c, 0, 64, 73
1, 142466, Note_on_c, 0, 46, 37
1, 142467, Control_c, 0, 64, 74
1, 142483, Control_c, 0, 64, 75
1, 142498, Control_c, 0, 64, 76
1, 142498, Control_c, 0, 67, 122
1, 142513, Control_c, 0, 64, 76
1, 142513, Control_c, 0, 67, 120
1, 142527, Control_c, 0, 64, 77
1, 142557, Control_c, 0, 64, 77
1, 142580, Note_off_c, 0, 46, 53
1, 142601, Control_c, 0, 64, 77
1, 142615, Note_on_c, 0, 72, 68
1, 142616, Control_c, 0, 64, 74
1, 142631, Control_c, 0, 64, 68
1, 142643, Note_on_c, 0, 48, 27
1, 142643, Note_on_c, 0, 63, 41
1, 142645, Control_c, 0, 64, 61
1, 142645, Control_c, 0, 67, 118
1, 142660, Control_c, 0, 64, 58
1, 142675, Control_c, 0, 64, 58
1, 142675, Control_c, 0, 67, 115
1, 142682, Note_off_c, 0, 48, 43
1, 142684, Note_off_c, 0, 63, 48
1, 142690, Control_c, 0, 64, 61
1, 142705, Control_c, 0, 64, 65
1, 142719, Control_c, 0, 64, 70
1, 142719, Control_c, 0, 67, 113
1, 142734, Control_c, 0, 64, 75
1, 142749, Control_c, 0, 64, 79
1, 142764, Control_c, 0, 64, 81
1, 142779, Control_c, 0, 64, 84
1, 142779, Control_c, 0, 67, 110
1, 142785, Note_off_c, 0, 36, 41
1, 142789, Note_on_c, 0, 48, 53
1, 142794, Control_c, 0, 64, 87
1, 142794, Control_c, 0, 67, 94
1, 142809, Control_c, 0, 64, 90
1, 142809, Control_c, 0, 67, 80
1, 142824, Control_c, 0, 64, 94
1, 142824, Control_c, 0, 67, 73
1, 142839, Control_c, 0, 64, 97
1, 142839, Control_c, 0, 67, 70
1, 142853, Control_c, 0, 64, 99
1, 142853, Control_c, 0, 67, 69
1, 142883, Control_c, 0, 64, 101
1, 142920, Control_c, 0, 67, 68
1, 142940, Note_on_c, 0, 77, 78
1, 142949, Control_c, 0, 64, 103
1, 142954, Note_on_c, 0, 68, 50
1, 142964, Control_c, 0, 67, 68
1, 142979, Note_off_c, 0, 48, 60
1, 143009, Control_c, 0, 64, 105
1, 143038, Control_c, 0, 64, 107
1, 143041, Note_off_c, 0, 72, 52
1, 143095, Note_on_c, 0, 51, 51
1, 143112, Control_c, 0, 64, 109
1, 143141, Control_c, 0, 67, 68
1, 143156, Control_c, 0, 67, 69
1, 143171, Control_c, 0, 67, 70
1, 143184, Note_off_c, 0, 77, 61
1, 143185, Control_c, 0, 67, 70
1, 143200, Control_c, 0, 67, 71
1, 143205, Note_off_c, 0, 51, 53
1, 143215, Control_c, 0, 67, 71
1, 143230, Control_c, 0, 67, 72
1, 143257, Note_on_c, 0, 56, 51
1, 143259, Control_c, 0, 67, 73
1, 143275, Control_c, 0, 67, 73
1, 143290, Control_c, 0, 67, 74
1, 143305, Control_c, 0, 67, 75
1, 143320, Control_c, 0, 67, 76
1, 143335, Control_c, 0, 67, 77
1, 143349, Control_c, 0, 67, 78
1, 143364, Control_c, 0, 67, 79
1, 143371, Note_off_c, 0, 56, 52
1, 143379, Control_c, 0, 67, 79
1, 143393, Control_c, 0, 67, 80
1, 143408, Control_c, 0, 67, 81
1, 143423, Control_c, 0, 67, 81
1, 143438, Control_c, 0, 67, 83
1, 143444, Note_on_c, 0, 82, 80
1, 143444, Note_off_c, 0, 68, 56
1, 143453, Control_c, 0, 67, 83
1, 143456, Note_on_c, 0, 51, 49
1, 143466, Note_on_c, 0, 74, 48
1, 143468, Control_c, 0, 67, 85
1, 143483, Control_c, 0, 67, 86
1, 143486, Note_off_c, 0, 51, 63
1, 143497, Control_c, 0, 67, 86
1, 143542, Control_c, 0, 67, 87
1, 143587, Control_c, 0, 67, 88
1, 143601, Control_c, 0, 64, 104
1, 143616, Control_c, 0, 64, 95
1, 143616, Control_c, 0, 67, 88
1, 143628, Note_on_c, 0, 67, 64
1, 143631, Control_c, 0, 64, 83
1, 143631, Control_c, 0, 67, 89
1, 143632, Note_on_c, 0, 48, 52
1, 143649, Note_on_c, 0, 36, 46
1, 143653, Control_c, 0, 64, 72
1, 143661, Note_off_c, 0, 74, 39
1, 143668, Control_c, 0, 64, 62
1, 143668, Control_c, 0, 67, 90
1, 143682, Control_c, 0, 64, 52
1, 143697, Control_c, 0, 64, 44
1, 143697, Control_c, 0, 67, 90
1, 143712, Control_c, 0, 64, 37
1, 143712, Control_c, 0, 67, 91
1, 143727, Control_c, 0, 64, 33
1, 143727, Control_c, 0, 67, 92
1, 143742, Control_c, 0, 64, 31
1, 143742, Control_c, 0, 67, 92
1, 143757, Control_c, 0, 67, 94
1, 143759, Note_off_c, 0, 48, 52
1, 143772, Control_c, 0, 67, 95
1, 143787, Control_c, 0, 67, 97
1, 143793, Note_on_c, 0, 46, 45
1, 143801, Control_c, 0, 67, 99
1, 143816, Control_c, 0, 67, 101
1, 143831, Control_c, 0, 67, 103
1, 143846, Control_c, 0, 67, 110
1, 143861, Control_c, 0, 64, 33
1, 143861, Control_c, 0, 67, 124
1, 143875, Control_c, 0, 64, 34
1, 143875, Control_c, 0, 67, 127
1, 143890, Control_c, 0, 64, 36
1, 143891, Note_off_c, 0, 46, 58
1, 143905, Control_c, 0, 64, 41
1, 143920, Control_c, 0, 64, 48
1, 143925, Note_on_c, 0, 48, 54
1, 143935, Control_c, 0, 64, 54
1, 143949, Control_c, 0, 64, 57
1, 143964, Control_c, 0, 64, 57
1, 143970, Note_off_c, 0, 48, 61
1, 143979, Control_c, 0, 64, 57
1, 143994, Control_c, 0, 64, 55
1, 144008, Control_c, 0, 64, 54
1, 144023, Control_c, 0, 64, 53
1, 144053, Control_c, 0, 64, 55
1, 144069, Control_c, 0, 64, 58
1, 144080, Note_off_c, 0, 36, 43
1, 144084, Control_c, 0, 64, 62
1, 144098, Control_c, 0, 64, 66
1, 144101, Note_on_c, 0, 48, 50
1, 144113, Control_c, 0, 64, 69
1, 144128, Control_c, 0, 64, 71
1, 144143, Control_c, 0, 64, 74
1, 144158, Control_c, 0, 64, 76
1, 144172, Control_c, 0, 64, 78
1, 144187, Control_c, 0, 64, 79
1, 144202, Control_c, 0, 64, 81
1, 144204, Note_off_c, 0, 48, 53
1, 144216, Control_c, 0, 64, 82
1, 144231, Control_c, 0, 64, 84
1, 144246, Control_c, 0, 64, 84
1, 144261, Control_c, 0, 64, 85
1, 144290, Control_c, 0, 64, 85
1, 144335, Control_c, 0, 64, 86
1, 144406, Note_on_c, 0, 53, 50
1, 144408, Note_off_c, 0, 82, 61
1, 144446, Control_c, 0, 64, 86
1, 144457, Note_off_c, 0, 67, 38
1, 144508, Note_off_c, 0, 53, 53
1, 144554, Note_on_c, 0, 58, 50
1, 144636, Note_off_c, 0, 58, 57
1, 144702, Note_on_c, 0, 53, 46
1, 144724, Note_off_c, 0, 53, 57
1, 144773, Control_c, 0, 64, 86
1, 144832, Control_c, 0, 64, 84
1, 144847, Control_c, 0, 64, 79
1, 144862, Control_c, 0, 64, 69
1, 144876, Note_on_c, 0, 70, 67
1, 144878, Control_c, 0, 64, 59
1, 144892, Control_c, 0, 64, 49
1, 144893, Note_on_c, 0, 48, 39
1, 144901, Note_on_c, 0, 60, 37
1, 144902, Note_on_c, 0, 36, 31
1, 144907, Control_c, 0, 64, 44
1, 144937, Control_c, 0, 64, 47
1, 144952, Control_c, 0, 64, 53
1, 144967, Control_c, 0, 64, 59
1, 144981, Control_c, 0, 64, 63
1, 144996, Control_c, 0, 64, 66
1, 145011, Control_c, 0, 64, 70
1, 145026, Control_c, 0, 64, 73
1, 145032, Note_off_c, 0, 48, 35
1, 145040, Control_c, 0, 64, 76
1, 145043, Note_on_c, 0, 46, 51
1, 145055, Control_c, 0, 64, 78
1, 145070, Control_c, 0, 64, 81
1, 145070, Control_c, 0, 67, 118
1, 145076, Note_off_c, 0, 60, 38
1, 145085, Control_c, 0, 64, 83
1, 145085, Control_c, 0, 67, 109
1, 145100, Control_c, 0, 64, 84
1, 145100, Control_c, 0, 67, 102
1, 145114, Control_c, 0, 64, 86
1, 145114, Control_c, 0, 67, 96
1, 145129, Control_c, 0, 64, 88
1, 145129, Control_c, 0, 67, 91
1, 145152, Control_c, 0, 64, 89
1, 145152, Control_c, 0, 67, 88
1, 145167, Control_c, 0, 64, 91
1, 145167, Control_c, 0, 67, 86
1, 145180, Note_on_c, 0, 75, 77
1, 145181, Control_c, 0, 64, 93
1, 145181, Control_c, 0, 67, 85
1, 145187, Note_off_c, 0, 46, 48
1, 145196, Control_c, 0, 64, 94
1, 145196, Control_c, 0, 67, 84
1, 145199, Note_on_c, 0, 48, 60
1, 145202, Note_on_c, 0, 67, 38
1, 145211, Control_c, 0, 64, 95
1, 145211, Control_c, 0, 67, 82
1, 145226, Control_c, 0, 64, 96
1, 145226, Control_c, 0, 67, 77
1, 145238, Note_off_c, 0, 36, 37
1, 145238, Note_off_c, 0, 67, 53
1, 145241, Note_off_c, 0, 70, 61
1, 145241, Control_c, 0, 67, 69
1, 145249, Note_off_c, 0, 48, 58
1, 145255, Control_c, 0, 67, 60
1, 145269, Note_off_c, 0, 75, 65
1, 145270, Control_c, 0, 67, 49
1, 145285, Control_c, 0, 67, 37
1, 145300, Control_c, 0, 67, 0
1, 145368, Note_on_c, 0, 48, 55
1, 145477, Control_c, 0, 64, 94
1, 145492, Control_c, 0, 64, 89
1, 145507, Control_c, 0, 64, 83
1, 145509, Note_on_c, 0, 80, 81
1, 145510, Note_off_c, 0, 48, 54
1, 145521, Control_c, 0, 64, 79
1, 145536, Note_on_c, 0, 65, 48
1, 145536, Control_c, 0, 64, 77
1, 145551, Control_c, 0, 64, 77
1, 145604, Note_off_c, 0, 65, 0
1, 145604, Note_on_c, 0, 65, 3
1, 145640, Control_c, 0, 64, 77
1, 145655, Control_c, 0, 64, 78
1, 145665, Note_on_c, 0, 51, 43
1, 145671, Control_c, 0, 64, 80
1, 145685, Control_c, 0, 64, 82
1, 145700, Control_c, 0, 64, 83
1, 145715, Control_c, 0, 64, 84
1, 145730, Control_c, 0, 64, 86
1, 145745, Control_c, 0, 64, 87
1, 145760, Control_c, 0, 64, 87
1, 145775, Control_c, 0, 64, 88
1, 145778, Note_off_c, 0, 51, 52
1, 145789, Control_c, 0, 64, 89
1, 145804, Control_c, 0, 64, 89
1, 145831, Note_on_c, 0, 56, 38
1, 145832, Note_on_c, 0, 74, 77
1, 145834, Control_c, 0, 64, 90
1, 145856, Note_off_c, 0, 80, 62
1, 145864, Note_off_c, 0, 65, 39
1, 145864, Control_c, 0, 64, 90
1, 145878, Control_c, 0, 67, 37
1, 145884, Note_off_c, 0, 74, 64
1, 145900, Control_c, 0, 67, 38
1, 145915, Control_c, 0, 67, 39
1, 145927, Note_off_c, 0, 56, 59
1, 145930, Control_c, 0, 64, 91
1, 145981, Note_on_c, 0, 51, 45
1, 146010, Note_off_c, 0, 51, 55
1, 146064, Control_c, 0, 67, 39
1, 146078, Control_c, 0, 64, 90
1, 146078, Control_c, 0, 67, 40
1, 146093, Control_c, 0, 64, 89
1, 146093, Control_c, 0, 67, 41
1, 146108, Control_c, 0, 64, 85
1, 146123, Control_c, 0, 64, 77
1, 146123, Control_c, 0, 67, 41
1, 146132, Note_on_c, 0, 67, 73
1, 146138, Control_c, 0, 64, 66
1, 146138, Control_c, 0, 67, 42
1, 146151, Note_on_c, 0, 56, 51
1, 146152, Control_c, 0, 64, 55
1, 146152, Control_c, 0, 67, 43
1, 146153, Note_on_c, 0, 36, 41
1, 146157, Note_on_c, 0, 48, 38
1, 146167, Control_c, 0, 64, 42
1, 146167, Control_c, 0, 67, 43
1, 146182, Control_c, 0, 64, 30
1, 146182, Control_c, 0, 67, 44
1, 146196, Control_c, 0, 64, 0
1, 146211, Control_c, 0, 64, 31
1, 146226, Control_c, 0, 64, 40
1, 146241, Control_c, 0, 64, 50
1, 146249, Note_off_c, 0, 56, 60
1, 146256, Control_c, 0, 64, 60
1, 146270, Control_c, 0, 64, 64
1, 146285, Control_c, 0, 64, 68
1, 146287, Note_off_c, 0, 48, 36
1, 146300, Control_c, 0, 64, 70
1, 146301, Note_on_c, 0, 46, 50
1, 146314, Control_c, 0, 64, 72
1, 146329, Control_c, 0, 64, 73
1, 146344, Control_c, 0, 64, 75
1, 146359, Control_c, 0, 64, 76
1, 146374, Control_c, 0, 64, 77
1, 146389, Control_c, 0, 64, 77
1, 146389, Control_c, 0, 67, 45
1, 146404, Control_c, 0, 67, 47
1, 146419, Control_c, 0, 64, 78
1, 146419, Control_c, 0, 67, 48
1, 146423, Note_off_c, 0, 46, 54
1, 146434, Control_c, 0, 64, 78
1, 146434, Control_c, 0, 67, 49
1, 146434, Note_on_c, 0, 72, 72
1, 146446, Note_on_c, 0, 63, 52
1, 146453, Note_on_c, 0, 48, 55
1, 146464, Control_c, 0, 64, 79
1, 146474, Note_off_c, 0, 36, 40
1, 146485, Note_off_c, 0, 63, 62
1, 146493, Control_c, 0, 64, 79
1, 146496, Note_off_c, 0, 67, 37
1, 146503, Note_off_c, 0, 48, 55
1, 146537, Note_off_c, 0, 72, 63
1, 146538, Control_c, 0, 67, 48
1, 146568, Control_c, 0, 67, 47
1, 146583, Control_c, 0, 67, 47
1, 146627, Note_on_c, 0, 48, 50
1, 146649, Control_c, 0, 67, 46
1, 146794, Note_on_c, 0, 77, 69
1, 146811, Note_off_c, 0, 48, 35
1, 146812, Control_c, 0, 64, 78
1, 146824, Note_on_c, 0, 62, 49
1, 146826, Control_c, 0, 64, 74
1, 146841, Control_c, 0, 64, 67
1, 146856, Control_c, 0, 64, 60
1, 146871, Control_c, 0, 64, 55
1, 146886, Control_c, 0, 64, 54
1, 146900, Control_c, 0, 64, 55
1, 146915, Control_c, 0, 64, 57
1, 146930, Control_c, 0, 64, 60
1, 146944, Control_c, 0, 64, 64
1, 146959, Control_c, 0, 64, 67
1, 146974, Control_c, 0, 64, 71
1, 146989, Control_c, 0, 64, 75
1, 147004, Control_c, 0, 64, 77
1, 147013, Note_on_c, 0, 53, 34
1, 147018, Control_c, 0, 64, 78
1, 147033, Control_c, 0, 64, 80
1, 147048, Control_c, 0, 64, 82
1, 147063, Control_c, 0, 64, 83
1, 147078, Control_c, 0, 64, 85
1, 147092, Control_c, 0, 64, 86
1, 147092, Control_c, 0, 67, 47
1, 147107, Control_c, 0, 64, 87
1, 147107, Control_c, 0, 67, 47
1, 147122, Control_c, 0, 64, 87
1, 147122, Control_c, 0, 67, 48
1, 147137, Control_c, 0, 64, 88
1, 147137, Control_c, 0, 67, 49
1, 147152, Note_off_c, 0, 53, 40
1, 147152, Control_c, 0, 64, 89
1, 147152, Control_c, 0, 67, 51
1, 147158, Note_on_c, 0, 70, 57
1, 147167, Control_c, 0, 64, 90
1, 147167, Control_c, 0, 67, 53
1, 147169, Note_on_c, 0, 58, 47
1, 147182, Control_c, 0, 64, 90
1, 147182, Control_c, 0, 67, 54
1, 147190, Note_off_c, 0, 62, 41
1, 147197, Control_c, 0, 64, 91
1, 147197, Control_c, 0, 67, 56
1, 147211, Control_c, 0, 64, 91
1, 147211, Control_c, 0, 67, 60
1, 147219, Note_off_c, 0, 77, 58
1, 147226, Control_c, 0, 64, 92
1, 147226, Control_c, 0, 67, 64
1, 147241, Control_c, 0, 67, 75
1, 147241, Note_off_c, 0, 58, 52
1, 147256, Control_c, 0, 67, 100
1, 147271, Control_c, 0, 67, 122
1, 147286, Control_c, 0, 64, 92
1, 147286, Control_c, 0, 67, 127
1, 147294, Note_off_c, 0, 70, 63
1, 147311, Note_on_c, 0, 53, 49
1, 147337, Note_off_c, 0, 53, 58
1, 147456, Control_c, 0, 64, 92
1, 147486, Control_c, 0, 64, 89
1, 147501, Control_c, 0, 64, 82
1, 147504, Note_on_c, 0, 53, 61
1, 147507, Note_on_c, 0, 48, 50
1, 147516, Control_c, 0, 64, 70
1, 147519, Note_on_c, 0, 36, 42
1, 147531, Control_c, 0, 64, 61
1, 147545, Control_c, 0, 64, 51
1, 147560, Control_c, 0, 64, 45
1, 147575, Control_c, 0, 64, 39
1, 147590, Control_c, 0, 64, 36
1, 147605, Control_c, 0, 64, 35
1, 147620, Control_c, 0, 64, 33
1, 147635, Control_c, 0, 64, 33
1, 147650, Note_off_c, 0, 48, 35
1, 147665, Note_on_c, 0, 46, 53
1, 147695, Control_c, 0, 64, 34
1, 147709, Control_c, 0, 64, 36
1, 147724, Control_c, 0, 64, 40
1, 147739, Control_c, 0, 64, 45
1, 147754, Control_c, 0, 64, 52
1, 147768, Control_c, 0, 64, 58
1, 147769, Note_off_c, 0, 46, 59
1, 147783, Control_c, 0, 64, 61
1, 147798, Control_c, 0, 64, 63
1, 147811, Note_on_c, 0, 48, 61
1, 147813, Control_c, 0, 64, 63
1, 147818, Note_off_c, 0, 53, 63
1, 147828, Control_c, 0, 64, 64
1, 147841, Note_off_c, 0, 48, 64
1, 147842, Control_c, 0, 64, 64
1, 147857, Control_c, 0, 64, 65
1, 147872, Control_c, 0, 64, 66
1, 147887, Control_c, 0, 64, 67
1, 147902, Control_c, 0, 64, 68
1, 147916, Control_c, 0, 64, 69
1, 147931, Control_c, 0, 64, 69
1, 147946, Control_c, 0, 64, 70
1, 147960, Control_c, 0, 64, 70
1, 147975, Control_c, 0, 64, 71
1, 147990, Control_c, 0, 64, 71
1, 147996, Note_on_c, 0, 48, 57
1, 148005, Control_c, 0, 64, 72
1, 148020, Control_c, 0, 64, 72
1, 148035, Control_c, 0, 64, 73
1, 148040, Note_on_c, 0, 75, 75
1, 148049, Control_c, 0, 64, 73
1, 148053, Note_off_c, 0, 36, 42
1, 148062, Note_on_c, 0, 63, 59
1, 148080, Control_c, 0, 64, 74
1, 148082, Note_off_c, 0, 63, 62
1, 148108, Note_off_c, 0, 75, 62
1, 148110, Control_c, 0, 64, 73
1, 148125, Control_c, 0, 64, 73
1, 148126, Note_on_c, 0, 72, 68
1, 148139, Note_on_c, 0, 67, 56
1, 148142, Note_on_c, 0, 62, 49
1, 148147, Control_c, 0, 64, 68
1, 148162, Control_c, 0, 64, 62
1, 148163, Poly_aftertouch_c, 0, 68, 0
1, 148177, Control_c, 0, 64, 55
1, 148191, Control_c, 0, 64, 55
1, 148206, Control_c, 0, 64, 55
1, 148221, Control_c, 0, 64, 58
1, 148236, Control_c, 0, 64, 61
1, 148251, Control_c, 0, 64, 64
1, 148265, Control_c, 0, 64, 65
1, 148280, Control_c, 0, 64, 67
1, 148292, Note_off_c, 0, 48, 37
1, 148295, Control_c, 0, 64, 68
1, 148305, Note_on_c, 0, 51, 48
1, 148310, Control_c, 0, 64, 69
1, 148325, Control_c, 0, 64, 71
1, 148339, Control_c, 0, 64, 73
1, 148354, Control_c, 0, 64, 74
1, 148369, Control_c, 0, 64, 75
1, 148384, Control_c, 0, 64, 76
1, 148396, Note_off_c, 0, 72, 50
1, 148398, Control_c, 0, 64, 77
1, 148413, Control_c, 0, 64, 78
1, 148427, Note_off_c, 0, 67, 58
1, 148428, Control_c, 0, 64, 79
1, 148443, Control_c, 0, 64, 79
1, 148458, Note_off_c, 0, 51, 55
1, 148458, Control_c, 0, 64, 80
1, 148471, Note_on_c, 0, 56, 48
1, 148487, Control_c, 0, 64, 80
1, 148502, Control_c, 0, 64, 81
1, 148517, Control_c, 0, 64, 81
1, 148537, Note_off_c, 0, 62, 54
1, 148577, Control_c, 0, 64, 82
1, 148603, Note_off_c, 0, 56, 49
1, 148613, Note_on_c, 0, 51, 44
1, 148665, Control_c, 0, 64, 82
1, 148695, Control_c, 0, 64, 83
1, 148710, Control_c, 0, 64, 83
1, 148724, Control_c, 0, 64, 84
1, 148739, Control_c, 0, 64, 85
1, 148754, Control_c, 0, 64, 86
1, 148769, Control_c, 0, 64, 87
1, 148771, Note_on_c, 0, 56, 43
1, 148784, Control_c, 0, 64, 88
1, 148798, Control_c, 0, 64, 89
1, 148813, Control_c, 0, 64, 89
1, 148826, Note_off_c, 0, 51, 42
1, 148828, Control_c, 0, 64, 90
1, 148838, Note_on_c, 0, 62, 54
1, 148843, Control_c, 0, 64, 92
1, 148854, Note_off_c, 0, 56, 60
1, 148859, Control_c, 0, 64, 93
1, 148874, Control_c, 0, 64, 94
1, 148881, Note_off_c, 0, 62, 60
1, 148896, Control_c, 0, 64, 95
1, 148896, Control_c, 0, 67, 125
1, 148899, Note_on_c, 0, 67, 61
1, 148911, Control_c, 0, 64, 96
1, 148941, Control_c, 0, 67, 122
1, 148950, Note_off_c, 0, 67, 59
1, 148955, Control_c, 0, 64, 98
1, 148966, Note_on_c, 0, 62, 66
1, 148970, Control_c, 0, 67, 120
1, 148983, Note_on_c, 0, 56, 50
1, 148985, Control_c, 0, 64, 100
1, 148992, Note_off_c, 0, 62, 67
1, 149000, Control_c, 0, 67, 115
1, 149006, Note_off_c, 0, 56, 60
1, 149014, Control_c, 0, 67, 110
1, 149025, Note_on_c, 0, 51, 63
1, 149029, Control_c, 0, 64, 103
1, 149029, Control_c, 0, 67, 98
1, 149044, Control_c, 0, 67, 83
1, 149048, Note_off_c, 0, 51, 63
1, 149059, Control_c, 0, 67, 67
1, 149074, Control_c, 0, 67, 54
1, 149088, Control_c, 0, 67, 42
1, 149103, Control_c, 0, 67, 0
1, 149117, Note_on_c, 0, 55, 44
1, 149149, Note_off_c, 0, 55, 61
1, 149155, Note_on_c, 0, 50, 54
1, 149162, Control_c, 0, 64, 105
1, 149176, Note_on_c, 0, 44, 61
1, 149191, Note_off_c, 0, 50, 64
1, 149220, Note_off_c, 0, 44, 59
1, 149245, Note_on_c, 0, 39, 71
1, 149274, Note_off_c, 0, 39, 64
1, 149355, Control_c, 0, 64, 91
1, 149370, Control_c, 0, 64, 73
1, 149385, Control_c, 0, 64, 54
1, 149394, Note_on_c, 0, 60, 58
1, 149400, Control_c, 0, 64, 0
1, 149405, Note_on_c, 0, 24, 69
1, 149405, Note_on_c, 0, 36, 57
1, 149416, Note_on_c, 0, 48, 45
1, 149444, Control_c, 0, 66, 127
1, 149503, Control_c, 0, 64, 37
1, 149509, Note_off_c, 0, 48, 58
1, 149510, Note_off_c, 0, 24, 62
1, 149518, Control_c, 0, 64, 47
1, 149533, Control_c, 0, 64, 55
1, 149547, Control_c, 0, 64, 59
1, 149552, Note_off_c, 0, 36, 60
1, 149562, Control_c, 0, 64, 61
1, 149570, Note_off_c, 0, 60, 61
1, 149574, Note_on_c, 0, 58, 68
1, 149592, Control_c, 0, 64, 62
1, 149621, Control_c, 0, 64, 62
1, 149704, Control_c, 0, 64, 60
1, 149719, Control_c, 0, 64, 53
1, 149733, Control_c, 0, 64, 39
1, 149735, Note_on_c, 0, 60, 66
1, 149742, Note_off_c, 0, 58, 59
1, 149745, Note_on_c, 0, 48, 65
1, 149746, Note_on_c, 0, 51, 58
1, 149748, Control_c, 0, 64, 0
1, 149762, Note_off_c, 0, 60, 68
1, 149898, Note_on_c, 0, 60, 57
1, 150059, Note_on_c, 0, 56, 84
1, 150099, Note_on_c, 0, 53, 40
1, 150101, Note_off_c, 0, 48, 62
1, 150104, Note_off_c, 0, 51, 52
1, 150190, Note_off_c, 0, 60, 54
1, 150200, Note_on_c, 0, 63, 61
1, 150252, Control_c, 0, 64, 40
1, 150267, Control_c, 0, 64, 54
1, 150282, Control_c, 0, 64, 60
1, 150284, Note_off_c, 0, 63, 61
1, 150297, Control_c, 0, 64, 62
1, 150311, Control_c, 0, 64, 63
1, 150317, Note_on_c, 0, 68, 53
1, 150326, Control_c, 0, 64, 64
1, 150341, Control_c, 0, 64, 65
1, 150355, Control_c, 0, 64, 65
1, 150356, Note_off_c, 0, 53, 59
1, 150370, Control_c, 0, 64, 66
1, 150390, Note_off_c, 0, 68, 57
1, 150392, Control_c, 0, 64, 66
1, 150407, Control_c, 0, 64, 67
1, 150422, Note_on_c, 0, 74, 60
1, 150437, Note_off_c, 0, 56, 63
1, 150489, Note_off_c, 0, 74, 61
1, 150517, Note_on_c, 0, 68, 55
1, 150581, Note_on_c, 0, 58, 83
1, 150601, Note_off_c, 0, 68, 49
1, 150635, Note_on_c, 0, 63, 57
1, 150661, Control_c, 0, 64, 66
1, 150690, Control_c, 0, 64, 66
1, 150705, Control_c, 0, 64, 65
1, 150720, Control_c, 0, 64, 64
1, 150731, Note_off_c, 0, 63, 52
1, 150734, Control_c, 0, 64, 61
1, 150739, Note_off_c, 0, 58, 63
1, 150744, Note_on_c, 0, 55, 75
1, 150749, Control_c, 0, 64, 58
1, 150764, Control_c, 0, 64, 54
1, 150769, Note_on_c, 0, 62, 48
1, 150779, Control_c, 0, 64, 48
1, 150789, Note_on_c, 0, 60, 40
1, 150793, Control_c, 0, 64, 42
1, 150808, Control_c, 0, 64, 33
1, 150823, Control_c, 0, 64, 0
1, 150861, Note_off_c, 0, 60, 56
1, 150908, Note_on_c, 0, 58, 57
1, 151012, Note_off_c, 0, 58, 47
1, 151059, Note_off_c, 0, 62, 33
1, 151066, Note_on_c, 0, 60, 48
1, 151113, Note_off_c, 0, 60, 60
1, 151119, Control_c, 0, 64, 31
1, 151141, Control_c, 0, 64, 40
1, 151156, Control_c, 0, 64, 51
1, 151171, Control_c, 0, 64, 58
1, 151185, Control_c, 0, 64, 61
1, 151200, Control_c, 0, 64, 63
1, 151215, Control_c, 0, 64, 64
1, 151230, Control_c, 0, 64, 66
1, 151245, Control_c, 0, 64, 69
1, 151248, Note_on_c, 0, 60, 46
1, 151261, Control_c, 0, 64, 71
1, 151276, Control_c, 0, 64, 74
1, 151290, Control_c, 0, 64, 77
1, 151305, Control_c, 0, 64, 80
1, 151320, Control_c, 0, 64, 83
1, 151334, Control_c, 0, 64, 85
1, 151349, Control_c, 0, 64, 87
1, 151364, Control_c, 0, 64, 89
1, 151375, Note_off_c, 0, 60, 61
1, 151379, Control_c, 0, 64, 90
1, 151394, Control_c, 0, 64, 92
1, 151409, Control_c, 0, 64, 92
1, 151424, Control_c, 0, 64, 93
1, 151439, Control_c, 0, 64, 93
1, 151468, Control_c, 0, 64, 94
1, 151551, Note_on_c, 0, 65, 44
1, 151623, Note_off_c, 0, 65, 44
1, 151637, Note_off_c, 0, 55, 54
1, 151656, Note_on_c, 0, 70, 57
1, 151721, Note_off_c, 0, 70, 59
1, 151767, Note_on_c, 0, 75, 57
1, 151851, Note_off_c, 0, 75, 58
1, 151853, Control_c, 0, 64, 93
1, 151856, Note_on_c, 0, 70, 63
1, 151930, Note_off_c, 0, 70, 59
1, 151963, Note_on_c, 0, 65, 60
1, 151994, Note_off_c, 0, 65, 63
1, 152008, Control_c, 0, 64, 93
1, 152023, Control_c, 0, 64, 90
1, 152038, Control_c, 0, 64, 79
1, 152053, Control_c, 0, 64, 66
1, 152069, Control_c, 0, 64, 50
1, 152080, Note_on_c, 0, 48, 78
1, 152084, Note_on_c, 0, 36, 64
1, 152084, Control_c, 0, 64, 35
1, 152095, Note_on_c, 0, 72, 66
1, 152099, Control_c, 0, 64, 32
1, 152113, Control_c, 0, 64, 38
1, 152128, Control_c, 0, 64, 50
1, 152143, Control_c, 0, 64, 59
1, 152157, Control_c, 0, 64, 63
1, 152162, Note_off_c, 0, 36, 60
1, 152172, Control_c, 0, 64, 65
1, 152177, Poly_aftertouch_c, 0, 60, 127
1, 152187, Control_c, 0, 64, 67
1, 152202, Note_off_c, 0, 48, 62
1, 152202, Control_c, 0, 64, 69
1, 152208, Poly_aftertouch_c, 0, 60, 0
1, 152217, Control_c, 0, 64, 70
1, 152229, Note_off_c, 0, 72, 60
1, 152232, Control_c, 0, 64, 72
1, 152240, Note_on_c, 0, 70, 71
1, 152246, Control_c, 0, 64, 73
1, 152261, Control_c, 0, 64, 74
1, 152276, Control_c, 0, 64, 75
1, 152291, Control_c, 0, 64, 75
1, 152306, Control_c, 0, 64, 76
1, 152380, Control_c, 0, 64, 75
1, 152391, Note_on_c, 0, 60, 85
1, 152395, Control_c, 0, 64, 72
1, 152402, Note_on_c, 0, 72, 76
1, 152410, Control_c, 0, 64, 68
1, 152410, Note_on_c, 0, 51, 67
1, 152414, Note_off_c, 0, 70, 58
1, 152425, Control_c, 0, 64, 67
1, 152456, Note_off_c, 0, 72, 62
1, 152469, Control_c, 0, 64, 67
1, 152499, Control_c, 0, 64, 68
1, 152513, Control_c, 0, 64, 68
1, 152530, Note_off_c, 0, 51, 57
1, 152587, Control_c, 0, 64, 69
1, 152589, Note_on_c, 0, 72, 66
1, 152639, Control_c, 0, 64, 69
1, 152669, Control_c, 0, 64, 70
1, 152684, Control_c, 0, 64, 70
1, 152698, Control_c, 0, 64, 71
1, 152765, Note_off_c, 0, 60, 65
1, 152765, Note_on_c, 0, 65, 88
1, 152772, Control_c, 0, 64, 69
1, 152783, Note_on_c, 0, 56, 69
1, 152787, Control_c, 0, 64, 63
1, 152802, Control_c, 0, 64, 53
1, 152816, Control_c, 0, 64, 41
1, 152831, Control_c, 0, 64, 34
1, 152846, Control_c, 0, 64, 37
1, 152861, Control_c, 0, 64, 46
1, 152876, Control_c, 0, 64, 56
1, 152891, Control_c, 0, 64, 62
1, 152906, Control_c, 0, 64, 65
1, 152907, Note_on_c, 0, 75, 69
1, 152921, Control_c, 0, 64, 68
1, 152924, Note_off_c, 0, 72, 49
1, 152935, Control_c, 0, 64, 70
1, 152950, Control_c, 0, 64, 71
1, 152965, Control_c, 0, 64, 73
1, 152980, Control_c, 0, 64, 74
1, 152995, Control_c, 0, 64, 75
1, 153001, Note_off_c, 0, 75, 63
1, 153009, Control_c, 0, 64, 75
1, 153012, Note_on_c, 0, 80, 67
1, 153039, Control_c, 0, 64, 76
1, 153069, Control_c, 0, 64, 76
1, 153090, Note_off_c, 0, 80, 61
1, 153124, Note_on_c, 0, 86, 71
1, 153127, Note_off_c, 0, 56, 54
1, 153130, Note_off_c, 0, 65, 63
1, 153230, Note_off_c, 0, 86, 60
1, 153233, Note_on_c, 0, 80, 67
1, 153310, Note_on_c, 0, 70, 91
1, 153332, Note_on_c, 0, 62, 58
1, 153371, Note_off_c, 0, 80, 62
1, 153373, Note_on_c, 0, 75, 62
1, 153412, Note_off_c, 0, 70, 63
1, 153467, Note_off_c, 0, 62, 59
1, 153468, Note_off_c, 0, 75, 62
1, 153491, Control_c, 0, 64, 75
1, 153495, Note_on_c, 0, 67, 86
1, 153505, Note_on_c, 0, 72, 64
1, 153506, Control_c, 0, 64, 70
1, 153511, Note_on_c, 0, 55, 59
1, 153513, Note_on_c, 0, 58, 41
1, 153520, Control_c, 0, 64, 60
1, 153535, Control_c, 0, 64, 38
1, 153549, Note_on_c, 0, 60, 41
1, 153550, Control_c, 0, 64, 0
1, 153642, Note_off_c, 0, 72, 39
1, 153660, Note_on_c, 0, 70, 61
1, 153728, Control_c, 0, 64, 30
1, 153743, Control_c, 0, 64, 41
1, 153755, Note_off_c, 0, 70, 57
1, 153758, Control_c, 0, 64, 53
1, 153773, Control_c, 0, 64, 60
1, 153788, Control_c, 0, 64, 63
1, 153802, Control_c, 0, 64, 65
1, 153817, Control_c, 0, 64, 66
1, 153818, Note_on_c, 0, 72, 52
1, 153832, Control_c, 0, 64, 68
1, 153847, Control_c, 0, 64, 69
1, 153862, Control_c, 0, 64, 71
1, 153865, Note_off_c, 0, 72, 54
1, 153876, Control_c, 0, 64, 72
1, 153891, Control_c, 0, 64, 74
1, 153906, Control_c, 0, 64, 76
1, 153921, Control_c, 0, 64, 78
1, 153935, Control_c, 0, 64, 79
1, 153950, Control_c, 0, 64, 81
1, 153965, Control_c, 0, 64, 83
1, 153969, Note_on_c, 0, 72, 46
1, 153980, Control_c, 0, 64, 84
1, 153995, Note_off_c, 0, 72, 58
1, 153995, Control_c, 0, 64, 85
1, 154009, Control_c, 0, 64, 86
1, 154039, Control_c, 0, 64, 87
1, 154069, Control_c, 0, 64, 87
1, 154100, Note_on_c, 0, 77, 64
1, 154113, Control_c, 0, 64, 88
1, 154152, Note_off_c, 0, 77, 55
1, 154170, Note_on_c, 0, 82, 65
1, 154198, Note_off_c, 0, 82, 65
1, 154210, Note_on_c, 0, 87, 70
1, 154224, Control_c, 0, 64, 88
1, 154276, Note_off_c, 0, 87, 64
1, 154283, Note_on_c, 0, 82, 70
1, 154283, Control_c, 0, 64, 89
1, 154307, Note_off_c, 0, 82, 69
1, 154334, Note_on_c, 0, 77, 65
1, 154352, Note_off_c, 0, 77, 65
1, 154358, Control_c, 0, 64, 89
1, 154367, Note_off_c, 0, 67, 54
1, 154395, Note_on_c, 0, 75, 76
1, 154403, Note_off_c, 0, 60, 60
1, 154426, Note_off_c, 0, 58, 62
1, 154434, Note_off_c, 0, 55, 62
1, 154462, Note_off_c, 0, 75, 65
1, 154469, Note_on_c, 0, 70, 71
1, 154496, Note_off_c, 0, 70, 65
1, 154541, Note_on_c, 0, 65, 67
1, 154551, Control_c, 0, 64, 90
1, 154559, Note_off_c, 0, 65, 64
1, 154601, Note_on_c, 0, 63, 74
1, 154640, Control_c, 0, 64, 89
1, 154655, Control_c, 0, 64, 82
1, 154667, Note_off_c, 0, 63, 57
1, 154670, Control_c, 0, 64, 69
1, 154681, Note_on_c, 0, 48, 66
1, 154682, Note_on_c, 0, 58, 83
1, 154682, Note_on_c, 0, 36, 59
1, 154685, Control_c, 0, 64, 55
1, 154700, Control_c, 0, 64, 41
1, 154709, Note_off_c, 0, 48, 62
1, 154715, Control_c, 0, 64, 37
1, 154718, Note_off_c, 0, 36, 61
1, 154729, Control_c, 0, 64, 39
1, 154744, Control_c, 0, 64, 45
1, 154759, Control_c, 0, 64, 55
1, 154774, Control_c, 0, 64, 60
1, 154789, Control_c, 0, 64, 63
1, 154804, Control_c, 0, 64, 65
1, 154819, Control_c, 0, 64, 67
1, 154828, Note_on_c, 0, 34, 56
1, 154833, Control_c, 0, 64, 68
1, 154834, Note_on_c, 0, 46, 47
1, 154848, Control_c, 0, 64, 70
1, 154863, Control_c, 0, 64, 72
1, 154882, Note_off_c, 0, 34, 58
1, 154884, Control_c, 0, 64, 73
1, 154898, Note_off_c, 0, 46, 61
1, 154899, Control_c, 0, 66, 0
1, 154929, Control_c, 0, 64, 68
1, 154944, Control_c, 0, 64, 57
1, 154959, Control_c, 0, 64, 0
1, 154986, Note_on_c, 0, 63, 84
1, 155005, Note_on_c, 0, 36, 54
1, 155010, Note_on_c, 0, 48, 56
1, 155019, Control_c, 0, 64, 38
1, 155031, Note_off_c, 0, 58, 63
1, 155033, Control_c, 0, 64, 56
1, 155048, Control_c, 0, 64, 65
1, 155051, Note_off_c, 0, 48, 58
1, 155055, Note_off_c, 0, 36, 59
1, 155063, Control_c, 0, 64, 69
1, 155078, Control_c, 0, 64, 73
1, 155081, Note_off_c, 0, 63, 62
1, 155092, Control_c, 0, 64, 75
1, 155107, Control_c, 0, 64, 77
1, 155122, Control_c, 0, 64, 79
1, 155137, Control_c, 0, 64, 81
1, 155138, Note_on_c, 0, 48, 70
1, 155152, Control_c, 0, 64, 84
1, 155166, Control_c, 0, 64, 86
1, 155176, Poly_aftertouch_c, 0, 36, 127
1, 155181, Control_c, 0, 64, 87
1, 155196, Control_c, 0, 64, 87
1, 155202, Note_off_c, 0, 48, 57
1, 155220, Poly_aftertouch_c, 0, 36, 0
1, 155271, Control_c, 0, 64, 88
1, 155283, Note_on_c, 0, 68, 80
1, 155294, Note_on_c, 0, 53, 64
1, 155316, Control_c, 0, 64, 88
1, 155328, Note_off_c, 0, 53, 63
1, 155330, Control_c, 0, 64, 89
1, 155347, Note_off_c, 0, 68, 62
1, 155360, Control_c, 0, 64, 90
1, 155367, Note_on_c, 0, 65, 68
1, 155374, Control_c, 0, 64, 91
1, 155389, Control_c, 0, 64, 91
1, 155404, Control_c, 0, 64, 92
1, 155417, Note_off_c, 0, 65, 49
1, 155419, Control_c, 0, 64, 93
1, 155439, Note_on_c, 0, 70, 65
1, 155448, Control_c, 0, 64, 93
1, 155461, Note_on_c, 0, 75, 59
1, 155463, Control_c, 0, 64, 94
1, 155478, Control_c, 0, 64, 94
1, 155492, Note_off_c, 0, 70, 61
1, 155507, Control_c, 0, 64, 95
1, 155513, Note_on_c, 0, 77, 67
1, 155514, Note_off_c, 0, 75, 58
1, 155537, Control_c, 0, 64, 95
1, 155567, Control_c, 0, 64, 96
1, 155578, Note_off_c, 0, 77, 60
1, 155582, Note_on_c, 0, 62, 69
1, 155604, Note_on_c, 0, 70, 65
1, 155610, Note_off_c, 0, 62, 67
1, 155637, Note_off_c, 0, 70, 69
1, 155677, Note_on_c, 0, 65, 64
1, 155697, Note_off_c, 0, 65, 62
1, 155746, Note_on_c, 0, 63, 74
1, 155791, Note_on_c, 0, 58, 75
1, 155822, Note_off_c, 0, 63, 61
1, 155856, Control_c, 0, 64, 91
1, 155865, Note_on_c, 0, 55, 87
1, 155871, Control_c, 0, 64, 75
1, 155872, Note_off_c, 0, 58, 63
1, 155885, Note_on_c, 0, 48, 71
1, 155886, Control_c, 0, 64, 54
1, 155889, Note_on_c, 0, 36, 60
1, 155900, Control_c, 0, 64, 32
1, 155915, Control_c, 0, 64, 0
1, 155916, Note_off_c, 0, 48, 64
1, 155929, Note_off_c, 0, 36, 63
1, 155930, Control_c, 0, 64, 30
1, 155945, Control_c, 0, 64, 42
1, 155960, Control_c, 0, 64, 54
1, 155974, Control_c, 0, 64, 61
1, 155989, Control_c, 0, 64, 64
1, 156004, Control_c, 0, 64, 67
1, 156019, Control_c, 0, 64, 70
1, 156023, Note_on_c, 0, 46, 64
1, 156034, Control_c, 0, 64, 73
1, 156035, Note_on_c, 0, 34, 54
1, 156049, Control_c, 0, 64, 76
1, 156065, Control_c, 0, 64, 79
1, 156074, Note_off_c, 0, 34, 61
1, 156079, Note_off_c, 0, 46, 53
1, 156079, Control_c, 0, 64, 81
1, 156094, Control_c, 0, 64, 82
1, 156124, Control_c, 0, 64, 81
1, 156138, Control_c, 0, 64, 73
1, 156153, Control_c, 0, 64, 60
1, 156168, Note_on_c, 0, 60, 82
1, 156168, Control_c, 0, 64, 39
1, 156183, Note_on_c, 0, 36, 57
1, 156183, Control_c, 0, 64, 33
1, 156187, Note_on_c, 0, 48, 62
1, 156198, Control_c, 0, 64, 40
1, 156199, Note_off_c, 0, 55, 55
1, 156212, Control_c, 0, 64, 56
1, 156227, Control_c, 0, 64, 66
1, 156229, Note_off_c, 0, 48, 60
1, 156242, Control_c, 0, 64, 73
1, 156243, Note_off_c, 0, 36, 57
1, 156257, Control_c, 0, 64, 79
1, 156271, Control_c, 0, 64, 82
1, 156277, Note_off_c, 0, 60, 66
1, 156286, Control_c, 0, 64, 84
1, 156301, Control_c, 0, 64, 87
1, 156316, Control_c, 0, 64, 90
1, 156318, Note_on_c, 0, 48, 77
1, 156330, Control_c, 0, 64, 92
1, 156345, Control_c, 0, 64, 95
1, 156360, Control_c, 0, 64, 97
1, 156398, Note_off_c, 0, 48, 59
1, 156427, Control_c, 0, 64, 96
1, 156442, Control_c, 0, 64, 92
1, 156457, Control_c, 0, 64, 89
1, 156472, Note_on_c, 0, 65, 86
1, 156472, Control_c, 0, 64, 89
1, 156477, Note_on_c, 0, 50, 74
1, 156516, Control_c, 0, 64, 89
1, 156517, Note_off_c, 0, 50, 63
1, 156530, Control_c, 0, 64, 90
1, 156543, Note_off_c, 0, 65, 62
1, 156545, Control_c, 0, 64, 91
1, 156560, Control_c, 0, 64, 93
1, 156573, Note_on_c, 0, 62, 70
1, 156575, Control_c, 0, 64, 95
1, 156604, Control_c, 0, 64, 98
1, 156631, Note_off_c, 0, 62, 47
1, 156634, Control_c, 0, 64, 100
1, 156664, Note_on_c, 0, 67, 58
1, 156679, Control_c, 0, 64, 103
1, 156692, Note_on_c, 0, 72, 56
1, 156712, Note_off_c, 0, 67, 55
1, 156723, Control_c, 0, 64, 105
1, 156748, Note_off_c, 0, 72, 59
1, 156752, Note_on_c, 0, 74, 69
1, 156783, Control_c, 0, 64, 107
1, 156786, Note_on_c, 0, 58, 96
1, 156825, Note_off_c, 0, 74, 61
1, 156827, Note_off_c, 0, 58, 63
1, 156827, Control_c, 0, 64, 109
1, 156830, Note_on_c, 0, 67, 69
1, 156873, Control_c, 0, 64, 111
1, 156883, Note_off_c, 0, 67, 59
1, 156906, Note_on_c, 0, 62, 71
1, 156944, Note_off_c, 0, 62, 63
1, 156961, Control_c, 0, 64, 114
1, 157004, Note_on_c, 0, 60, 64
1, 157058, Note_on_c, 0, 55, 72
1, 157070, Note_off_c, 0, 60, 60
1, 157150, Note_off_c, 0, 55, 62
1, 157166, Note_on_c, 0, 53, 92
1, 157176, Control_c, 0, 64, 98
1, 157186, Note_on_c, 0, 48, 86
1, 157190, Note_on_c, 0, 36, 70
1, 157191, Control_c, 0, 64, 72
1, 157206, Control_c, 0, 64, 44
1, 157221, Control_c, 0, 64, 0
1, 157246, Note_off_c, 0, 48, 64
1, 157260, Note_off_c, 0, 36, 60
1, 157279, Control_c, 0, 64, 44
1, 157294, Control_c, 0, 64, 56
1, 157309, Control_c, 0, 64, 62
1, 157324, Control_c, 0, 64, 65
1, 157339, Control_c, 0, 64, 67
1, 157353, Control_c, 0, 64, 69
1, 157357, Note_on_c, 0, 46, 74
1, 157365, Note_on_c, 0, 34, 73
1, 157368, Control_c, 0, 64, 71
1, 157383, Control_c, 0, 64, 74
1, 157398, Control_c, 0, 64, 76
1, 157412, Note_off_c, 0, 34, 61
1, 157413, Control_c, 0, 64, 78
1, 157424, Note_off_c, 0, 46, 60
1, 157427, Control_c, 0, 64, 79
1, 157442, Control_c, 0, 64, 79
1, 157446, Note_off_c, 0, 53, 64
1, 157457, Control_c, 0, 64, 80
1, 157472, Control_c, 0, 64, 80
1, 157517, Control_c, 0, 64, 81
1, 157517, Note_on_c, 0, 48, 87
1, 157519, Note_on_c, 0, 36, 78
1, 157532, Control_c, 0, 64, 82
1, 157546, Control_c, 0, 64, 84
1, 157552, Note_off_c, 0, 48, 62
1, 157555, Note_off_c, 0, 36, 61
1, 157561, Control_c, 0, 64, 86
1, 157576, Control_c, 0, 64, 88
1, 157591, Control_c, 0, 64, 90
1, 157606, Control_c, 0, 64, 91
1, 157620, Control_c, 0, 64, 93
1, 157635, Control_c, 0, 64, 93
1, 157666, Control_c, 0, 64, 93
1, 157668, Note_on_c, 0, 48, 90
1, 157672, Note_on_c, 0, 36, 81
1, 157681, Control_c, 0, 64, 81
1, 157695, Control_c, 0, 64, 60
1, 157710, Control_c, 0, 64, 0
1, 157726, Note_on_c, 0, 75, 89
1, 157727, Note_on_c, 0, 63, 92
1, 157730, Note_on_c, 0, 68, 84
1, 157748, Note_off_c, 0, 75, 69
1, 157750, Note_off_c, 0, 36, 61
1, 157755, Control_c, 0, 64, 39
1, 157765, Note_off_c, 0, 63, 64
1, 157770, Control_c, 0, 64, 63
1, 157777, Note_off_c, 0, 68, 65
1, 157784, Control_c, 0, 64, 74
1, 157787, Note_off_c, 0, 48, 63
1, 157793, Note_on_c, 0, 62, 88
1, 157794, Note_on_c, 0, 72, 93
1, 157795, Note_on_c, 0, 67, 77
1, 157799, Control_c, 0, 64, 84
1, 157814, Control_c, 0, 64, 89
1, 157829, Control_c, 0, 64, 92
1, 157844, Control_c, 0, 64, 94
1, 157858, Control_c, 0, 64, 95
1, 157880, Note_off_c, 0, 62, 59
1, 157893, Note_on_c, 0, 51, 71
1, 157895, Control_c, 0, 64, 98
1, 157910, Control_c, 0, 64, 101
1, 157910, Note_off_c, 0, 67, 61
1, 157925, Control_c, 0, 64, 106
1, 157937, Note_off_c, 0, 72, 58
1, 157940, Control_c, 0, 64, 109
1, 157955, Control_c, 0, 64, 113
1, 157961, Note_on_c, 0, 56, 77
1, 157961, Note_off_c, 0, 51, 61
1, 157970, Control_c, 0, 64, 119
1, 157984, Control_c, 0, 64, 127
1, 157988, Note_off_c, 0, 56, 68
1, 158000, Note_on_c, 0, 62, 64
1, 158027, Note_off_c, 0, 62, 65
1, 158044, Note_on_c, 0, 67, 73
1, 158071, Note_on_c, 0, 72, 77
1, 158077, Note_off_c, 0, 67, 66
1, 158098, Note_off_c, 0, 72, 64
1, 158099, Note_on_c, 0, 63, 77
1, 158155, Note_off_c, 0, 63, 63
1, 158160, Note_on_c, 0, 68, 78
1, 158175, Note_on_c, 0, 74, 88
1, 158179, Note_off_c, 0, 68, 71
1, 158223, Note_on_c, 0, 79, 86
1, 158223, Note_off_c, 0, 74, 67
1, 158246, Note_on_c, 0, 84, 86
1, 158251, Note_off_c, 0, 79, 65
1, 158268, Note_off_c, 0, 84, 65
1, 158280, Note_on_c, 0, 75, 85
1, 158323, Note_on_c, 0, 86, 97
1, 158325, Note_on_c, 0, 80, 85
1, 158336, Note_off_c, 0, 75, 64
1, 158348, Note_on_c, 0, 91, 85
1, 158366, Note_off_c, 0, 86, 69
1, 158370, Note_off_c, 0, 80, 66
1, 158384, Note_on_c, 0, 96, 99
1, 158394, Note_off_c, 0, 91, 68
1, 158435, Note_on_c, 0, 80, 96
1, 158438, Note_on_c, 0, 91, 90
1, 158476, Note_off_c, 0, 96, 68
1, 158488, Note_off_c, 0, 91, 71
1, 158493, Note_off_c, 0, 80, 63
1, 158495, Note_on_c, 0, 86, 80
1, 158527, Note_off_c, 0, 86, 68
1, 158547, Note_on_c, 0, 75, 35
1, 158578, Note_on_c, 0, 84, 83
1, 158580, Note_off_c, 0, 75, 43
1, 158634, Note_on_c, 0, 79, 76
1, 158648, Note_off_c, 0, 84, 64
1, 158661, Note_on_c, 0, 68, 75
1, 158683, Note_off_c, 0, 79, 66
1, 158709, Note_on_c, 0, 63, 79
1, 158712, Note_off_c, 0, 68, 62
1, 158723, Note_on_c, 0, 74, 54
1, 158730, Note_off_c, 0, 63, 70
1, 158742, Note_off_c, 0, 74, 0
1, 158763, Note_on_c, 0, 74, 66
1, 158802, Note_on_c, 0, 69, 78
1, 158831, Note_off_c, 0, 74, 64
1, 158857, Note_off_c, 0, 69, 63
1, 158861, Note_on_c, 0, 64, 85
1, 158896, Note_off_c, 0, 64, 66
1, 158931, Note_on_c, 0, 60, 96
1, 158939, Note_on_c, 0, 36, 80
1, 158940, Control_c, 0, 64, 84
1, 158942, Note_on_c, 0, 48, 81
1, 158944, Note_on_c, 0, 50, 72
1, 158955, Control_c, 0, 64, 54
1, 158959, Poly_aftertouch_c, 0, 65, 0
1, 158962, Note_on_c, 0, 62, 39
1, 158962, Note_off_c, 0, 62, 127
1, 158970, Control_c, 0, 64, 0
1, 158978, Note_off_c, 0, 50, 55
1, 158980, Note_on_c, 0, 38, 30
1, 159001, Note_off_c, 0, 48, 63
1, 159014, Control_c, 0, 64, 30
1, 159026, Note_off_c, 0, 36, 65
1, 159028, Note_off_c, 0, 38, 34
1, 159029, Control_c, 0, 64, 55
1, 159044, Control_c, 0, 64, 71
1, 159058, Control_c, 0, 64, 79
1, 159073, Control_c, 0, 64, 87
1, 159077, Note_off_c, 0, 60, 61
1, 159088, Control_c, 0, 64, 89
1, 159096, Note_on_c, 0, 58, 96
1, 159100, Note_on_c, 0, 46, 92
1, 159103, Control_c, 0, 64, 93
1, 159104, Note_on_c, 0, 34, 85
1, 159118, Control_c, 0, 64, 99
1, 159124, Note_off_c, 0, 46, 66
1, 159126, Note_off_c, 0, 34, 67
1, 159132, Control_c, 0, 64, 110
1, 159135, Note_off_c, 0, 58, 67
1, 159147, Control_c, 0, 64, 127
1, 159246, Note_on_c, 0, 75, 99
1, 159252, Note_on_c, 0, 63, 100
1, 159252, Control_c, 0, 64, 71
1, 159260, Note_on_c, 0, 60, 87
1, 159267, Note_on_c, 0, 48, 83
1, 159267, Control_c, 0, 64, 38
1, 159269, Note_on_c, 0, 51, 73
1, 159282, Control_c, 0, 64, 0
1, 159311, Control_c, 0, 64, 30
1, 159321, Note_off_c, 0, 60, 56
1, 159326, Control_c, 0, 64, 58
1, 159329, Note_off_c, 0, 48, 60
1, 159340, Note_off_c, 0, 51, 60
1, 159341, Control_c, 0, 64, 68
1, 159356, Control_c, 0, 64, 77
1, 159378, Control_c, 0, 64, 80
1, 159393, Control_c, 0, 64, 82
1, 159408, Control_c, 0, 64, 85
1, 159413, Note_on_c, 0, 48, 76
1, 159414, Note_on_c, 0, 60, 88
1, 159419, Note_on_c, 0, 51, 65
1, 159422, Control_c, 0, 64, 90
1, 159434, Note_off_c, 0, 63, 62
1, 159437, Control_c, 0, 64, 98
1, 159450, Note_off_c, 0, 48, 61
1, 159452, Control_c, 0, 64, 114
1, 159467, Control_c, 0, 64, 127
1, 159472, Note_off_c, 0, 60, 63
1, 159473, Note_off_c, 0, 51, 60
1, 159497, Note_off_c, 0, 75, 61
1, 159568, Note_on_c, 0, 80, 103
1, 159570, Control_c, 0, 64, 94
1, 159574, Note_on_c, 0, 68, 92
1, 159576, Note_on_c, 0, 65, 92
1, 159580, Note_on_c, 0, 53, 85
1, 159585, Control_c, 0, 64, 67
1, 159600, Control_c, 0, 64, 48
1, 159615, Control_c, 0, 64, 45
1, 159630, Control_c, 0, 64, 51
1, 159645, Control_c, 0, 64, 63
1, 159660, Control_c, 0, 64, 77
1, 159674, Control_c, 0, 64, 100
1, 159689, Control_c, 0, 64, 127
1, 159732, Note_off_c, 0, 53, 59
1, 159743, Note_off_c, 0, 68, 61
1, 159773, Note_off_c, 0, 65, 62
1, 159840, Note_off_c, 0, 80, 58
1, 160025, Note_on_c, 0, 86, 101
1, 160030, Note_on_c, 0, 74, 102
1, 160030, Note_on_c, 0, 70, 82
1, 160033, Note_on_c, 0, 58, 87
1, 160073, Note_off_c, 0, 86, 68
1, 160080, Note_off_c, 0, 74, 63
1, 160086, Note_off_c, 0, 70, 64
1, 160182, Note_on_c, 0, 79, 94
1, 160188, Note_on_c, 0, 62, 78
1, 160188, Note_on_c, 0, 67, 92
1, 160188, Note_off_c, 0, 58, 59
1, 160197, Note_on_c, 0, 60, 78
1, 160216, Control_c, 0, 64, 79
1, 160231, Control_c, 0, 64, 57
1, 160245, Control_c, 0, 64, 29
1, 160260, Control_c, 0, 64, 0
1, 160275, Control_c, 0, 64, 40
1, 160290, Control_c, 0, 64, 61
1, 160304, Control_c, 0, 64, 73
1, 160319, Control_c, 0, 64, 85
1, 160328, Note_off_c, 0, 62, 58
1, 160329, Note_on_c, 0, 58, 72
1, 160334, Control_c, 0, 64, 91
1, 160347, Note_off_c, 0, 60, 59
1, 160349, Control_c, 0, 64, 93
1, 160364, Control_c, 0, 64, 95
1, 160378, Control_c, 0, 64, 99
1, 160393, Control_c, 0, 64, 102
1, 160408, Control_c, 0, 64, 107
1, 160423, Control_c, 0, 64, 114
1, 160438, Control_c, 0, 64, 127
1, 160471, Note_on_c, 0, 62, 68
1, 160484, Note_on_c, 0, 60, 62
1, 160501, Note_off_c, 0, 58, 45
1, 160533, Note_off_c, 0, 62, 60
1, 160535, Note_off_c, 0, 60, 53
1, 160636, Note_on_c, 0, 60, 60
1, 160639, Note_on_c, 0, 62, 62
1, 160644, Note_off_c, 0, 79, 57
1, 160660, Note_off_c, 0, 60, 69
1, 160661, Note_off_c, 0, 62, 65
1, 160674, Note_off_c, 0, 67, 39
1, 160816, Note_on_c, 0, 68, 79
1, 160822, Note_on_c, 0, 63, 77
1, 160847, Note_off_c, 0, 63, 69
1, 160852, Note_off_c, 0, 68, 60
1, 160860, Note_on_c, 0, 67, 73
1, 160882, Note_on_c, 0, 72, 66
1, 160888, Note_on_c, 0, 74, 75
1, 160922, Note_off_c, 0, 67, 59
1, 160927, Note_off_c, 0, 72, 0
1, 160959, Note_on_c, 0, 77, 81
1, 160966, Poly_aftertouch_c, 0, 72, 0
1, 160995, Note_off_c, 0, 74, 61
1, 161006, Note_off_c, 0, 77, 63
1, 161010, Note_on_c, 0, 80, 88
1, 161013, Note_on_c, 0, 75, 82
1, 161027, Note_off_c, 0, 80, 76
1, 161039, Note_off_c, 0, 75, 62
1, 161080, Note_on_c, 0, 77, 78
1, 161082, Note_on_c, 0, 72, 78
1, 161126, Note_off_c, 0, 72, 64
1, 161128, Note_off_c, 0, 77, 62
1, 161145, Note_on_c, 0, 67, 87
1, 161181, Note_off_c, 0, 67, 62
1, 161225, Note_on_c, 0, 63, 87
1, 161225, Note_on_c, 0, 68, 78
1, 161245, Note_off_c, 0, 63, 66
1, 161246, Note_off_c, 0, 68, 70
1, 161291, Control_c, 0, 64, 73
1, 161306, Control_c, 0, 64, 42
1, 161309, Note_on_c, 0, 36, 81
1, 161311, Note_on_c, 0, 48, 100
1, 161311, Note_on_c, 0, 60, 97
1, 161320, Control_c, 0, 64, 0
1, 161357, Note_off_c, 0, 36, 61
1, 161365, Control_c, 0, 64, 35
1, 161369, Note_off_c, 0, 48, 63
1, 161380, Control_c, 0, 64, 59
1, 161395, Control_c, 0, 64, 69
1, 161410, Control_c, 0, 64, 74
1, 161413, Note_off_c, 0, 60, 59
1, 161425, Control_c, 0, 64, 78
1, 161439, Control_c, 0, 64, 82
1, 161449, Note_on_c, 0, 58, 98
1, 161454, Control_c, 0, 64, 86
1, 161466, Note_off_c, 0, 58, 74
1, 161469, Control_c, 0, 64, 92
1, 161484, Control_c, 0, 64, 100
1, 161499, Control_c, 0, 64, 124
1, 161514, Control_c, 0, 64, 127
1, 161600, Note_on_c, 0, 51, 83
1, 161602, Control_c, 0, 64, 88
1, 161604, Note_on_c, 0, 84, 99
1, 161605, Note_on_c, 0, 83, 91
1, 161606, Note_on_c, 0, 63, 96
1, 161611, Poly_aftertouch_c, 0, 60, 127
1, 161619, Note_on_c, 0, 71, 89
1, 161623, Note_on_c, 0, 72, 80
1, 161624, Control_c, 0, 64, 72
1, 161639, Control_c, 0, 64, 66
1, 161655, Control_c, 0, 64, 67
1, 161656, Poly_aftertouch_c, 0, 60, 0
1, 161670, Control_c, 0, 64, 71
1, 161685, Control_c, 0, 64, 80
1, 161694, Note_off_c, 0, 71, 62
1, 161699, Control_c, 0, 64, 89
1, 161714, Control_c, 0, 64, 95
1, 161728, Note_off_c, 0, 72, 61
1, 161729, Control_c, 0, 64, 98
1, 161744, Control_c, 0, 64, 100
1, 161754, Note_on_c, 0, 60, 76
1, 161761, Note_off_c, 0, 83, 58
1, 161764, Note_off_c, 0, 51, 61
1, 161773, Control_c, 0, 64, 103
1, 161781, Note_off_c, 0, 84, 63
1, 161788, Control_c, 0, 64, 105
1, 161791, Note_off_c, 0, 63, 60
1, 161803, Control_c, 0, 64, 111
1, 161809, Note_off_c, 0, 60, 66
1, 161818, Control_c, 0, 64, 127
1, 161908, Note_on_c, 0, 89, 99
1, 161914, Note_on_c, 0, 68, 91
1, 161917, Note_on_c, 0, 77, 91
1, 161920, Note_on_c, 0, 56, 85
1, 161920, Note_on_c, 0, 76, 95
1, 161931, Note_on_c, 0, 88, 64
1, 161931, Note_off_c, 0, 88, 127
1, 161936, Control_c, 0, 64, 83
1, 161941, Note_off_c, 0, 76, 62
1, 161950, Control_c, 0, 64, 63
1, 161965, Control_c, 0, 64, 55
1, 161980, Control_c, 0, 64, 60
1, 161995, Control_c, 0, 64, 68
1, 162010, Control_c, 0, 64, 88
1, 162024, Control_c, 0, 64, 127
1, 162054, Note_off_c, 0, 56, 60
1, 162074, Note_off_c, 0, 68, 60
1, 162110, Note_off_c, 0, 77, 61
1, 162150, Note_off_c, 0, 89, 62
1, 162363, Note_on_c, 0, 94, 107
1, 162373, Note_on_c, 0, 82, 99
1, 162374, Note_on_c, 0, 74, 85
1, 162377, Note_on_c, 0, 62, 80
1, 162413, Note_off_c, 0, 74, 61
1, 162449, Note_off_c, 0, 62, 64
1, 162453, Note_off_c, 0, 82, 55
1, 162454, Note_off_c, 0, 94, 63
1, 162526, Note_on_c, 0, 91, 100
1, 162531, Note_on_c, 0, 79, 88
1, 162540, Note_on_c, 0, 62, 82
1, 162547, Note_on_c, 0, 60, 77
1, 162566, Control_c, 0, 64, 79
1, 162581, Control_c, 0, 64, 54
1, 162596, Control_c, 0, 64, 0
1, 162626, Control_c, 0, 64, 39
1, 162641, Control_c, 0, 64, 62
1, 162655, Control_c, 0, 64, 75
1, 162663, Note_on_c, 0, 58, 86
1, 162665, Note_off_c, 0, 62, 60
1, 162670, Control_c, 0, 64, 91
1, 162675, Note_off_c, 0, 60, 58
1, 162685, Control_c, 0, 64, 103
1, 162699, Control_c, 0, 64, 110
1, 162714, Control_c, 0, 64, 122
1, 162729, Control_c, 0, 64, 127
1, 162794, Note_off_c, 0, 91, 63
1, 162795, Note_on_c, 0, 62, 69
1, 162796, Note_on_c, 0, 60, 68
1, 162821, Note_off_c, 0, 58, 50
1, 162826, Note_off_c, 0, 79, 66
1, 162836, Note_off_c, 0, 62, 57
1, 162846, Note_off_c, 0, 60, 59
1, 162938, Note_on_c, 0, 62, 76
1, 162941, Note_on_c, 0, 60, 80
1, 162963, Note_off_c, 0, 62, 65
1, 162964, Note_off_c, 0, 60, 69
1, 163124, Note_on_c, 0, 67, 87
1, 163126, Note_on_c, 0, 65, 86
1, 163147, Note_off_c, 0, 67, 68
1, 163151, Note_off_c, 0, 65, 65
1, 163165, Note_on_c, 0, 70, 76
1, 163188, Note_on_c, 0, 75, 60
1, 163188, Note_on_c, 0, 77, 63
1, 163225, Note_off_c, 0, 70, 62
1, 163253, Note_on_c, 0, 82, 81
1, 163269, Note_off_c, 0, 75, 64
1, 163285, Note_off_c, 0, 77, 61
1, 163314, Note_off_c, 0, 82, 61
1, 163323, Note_on_c, 0, 84, 96
1, 163323, Note_on_c, 0, 89, 91
1, 163341, Note_off_c, 0, 89, 73
1, 163361, Note_off_c, 0, 84, 63
1, 163374, Note_on_c, 0, 75, 67
1, 163383, Note_on_c, 0, 82, 47
1, 163407, Note_off_c, 0, 75, 63
1, 163410, Note_off_c, 0, 82, 55
1, 163425, Note_on_c, 0, 70, 88
1, 163459, Note_off_c, 0, 70, 65
1, 163513, Note_on_c, 0, 67, 68
1, 163515, Note_on_c, 0, 65, 74
1, 163529, Note_on_c, 0, 69, 44
1, 163551, Note_off_c, 0, 65, 59
1, 163551, Note_off_c, 0, 67, 61
1, 163559, Note_off_c, 0, 69, 55
1, 163567, Control_c, 0, 64, 102
1, 163582, Control_c, 0, 64, 71
1, 163596, Control_c, 0, 64, 45
1, 163611, Control_c, 0, 64, 0
1, 163639, Note_on_c, 0, 36, 47
1, 163643, Note_on_c, 0, 63, 37
1, 163647, Note_on_c, 0, 48, 54
1, 163694, Note_off_c, 0, 63, 29
1, 163736, Note_on_c, 0, 63, 43
1, 163759, Control_c, 0, 67, 40
1, 163765, Note_off_c, 0, 36, 47
1, 163768, Note_off_c, 0, 48, 52
1, 163771, Note_on_c, 0, 46, 60
1, 163774, Control_c, 0, 67, 46
1, 163788, Control_c, 0, 67, 47
1, 163818, Control_c, 0, 64, 35
1, 163833, Control_c, 0, 64, 44
1, 163833, Control_c, 0, 67, 47
1, 163848, Control_c, 0, 64, 47
1, 163848, Control_c, 0, 67, 46
1, 163870, Control_c, 0, 64, 50
1, 163870, Control_c, 0, 67, 45
1, 163872, Note_off_c, 0, 46, 60
1, 163884, Note_on_c, 0, 68, 79
1, 163885, Control_c, 0, 64, 51
1, 163885, Control_c, 0, 67, 45
1, 163900, Control_c, 0, 64, 53
1, 163900, Control_c, 0, 67, 43
1, 163907, Note_on_c, 0, 48, 64
1, 163915, Control_c, 0, 64, 54
1, 163915, Control_c, 0, 67, 42
1, 163929, Control_c, 0, 67, 41
1, 163937, Note_off_c, 0, 48, 64
1, 163959, Control_c, 0, 67, 41
1, 163988, Control_c, 0, 67, 40
1, 164033, Control_c, 0, 64, 53
1, 164036, Note_on_c, 0, 48, 67
1, 164050, Control_c, 0, 67, 39
1, 164057, Note_off_c, 0, 63, 39
1, 164065, Note_on_c, 0, 36, 38
1, 164117, Note_off_c, 0, 36, 46
1, 164124, Control_c, 0, 64, 54
1, 164131, Note_off_c, 0, 48, 53
1, 164138, Control_c, 0, 64, 54
1, 164145, Note_on_c, 0, 73, 75
1, 164149, Note_off_c, 0, 68, 61
1, 164153, Control_c, 0, 64, 56
1, 164164, Note_on_c, 0, 46, 59
1, 164168, Control_c, 0, 64, 58
1, 164183, Control_c, 0, 64, 59
1, 164198, Control_c, 0, 64, 61
1, 164198, Control_c, 0, 67, 39
1, 164212, Control_c, 0, 64, 62
1, 164216, Note_off_c, 0, 46, 60
1, 164227, Control_c, 0, 64, 62
1, 164242, Control_c, 0, 64, 63
1, 164264, Note_on_c, 0, 48, 73
1, 164271, Control_c, 0, 67, 38
1, 164298, Note_off_c, 0, 48, 65
1, 164316, Control_c, 0, 67, 37
1, 164346, Control_c, 0, 67, 0
1, 164361, Control_c, 0, 64, 62
1, 164369, Note_off_c, 0, 73, 61
1, 164390, Note_on_c, 0, 66, 78
1, 164391, Control_c, 0, 64, 62
1, 164394, Note_on_c, 0, 48, 77
1, 164401, Note_on_c, 0, 36, 62
1, 164432, Note_on_c, 0, 68, 79
1, 164438, Note_off_c, 0, 66, 64
1, 164490, Note_on_c, 0, 66, 78
1, 164492, Note_off_c, 0, 36, 56
1, 164493, Note_on_c, 0, 46, 63
1, 164504, Note_off_c, 0, 68, 63
1, 164518, Note_off_c, 0, 48, 38
1, 164579, Note_off_c, 0, 46, 61
1, 164589, Note_off_c, 0, 66, 63
1, 164634, Note_on_c, 0, 60, 80
1, 164645, Note_on_c, 0, 48, 78
1, 164704, Note_off_c, 0, 48, 61
1, 164760, Note_on_c, 0, 48, 79
1, 164777, Note_on_c, 0, 36, 70
1, 164843, Control_c, 0, 64, 62
1, 164882, Note_on_c, 0, 46, 74
1, 164882, Note_off_c, 0, 36, 62
1, 164889, Note_on_c, 0, 65, 81
1, 164892, Note_off_c, 0, 60, 60
1, 164900, Note_off_c, 0, 48, 54
1, 164952, Note_off_c, 0, 46, 63
1, 164997, Note_on_c, 0, 48, 89
1, 165049, Note_off_c, 0, 48, 61
1, 165104, Note_on_c, 0, 70, 89
1, 165106, Note_on_c, 0, 36, 74
1, 165110, Note_off_c, 0, 65, 60
1, 165115, Note_on_c, 0, 48, 77
1, 165184, Control_c, 0, 64, 63
1, 165200, Note_off_c, 0, 36, 60
1, 165213, Control_c, 0, 64, 64
1, 165218, Note_off_c, 0, 48, 49
1, 165219, Note_on_c, 0, 46, 81
1, 165228, Control_c, 0, 64, 64
1, 165243, Control_c, 0, 64, 66
1, 165258, Control_c, 0, 64, 67
1, 165273, Control_c, 0, 64, 67
1, 165299, Note_off_c, 0, 46, 52
1, 165302, Control_c, 0, 64, 66
1, 165311, Note_off_c, 0, 70, 60
1, 165317, Control_c, 0, 64, 62
1, 165319, Note_on_c, 0, 48, 87
1, 165323, Note_on_c, 0, 63, 83
1, 165332, Control_c, 0, 64, 55
1, 165347, Control_c, 0, 64, 52
1, 165366, Note_off_c, 0, 48, 62
1, 165368, Control_c, 0, 64, 53
1, 165373, Note_off_c, 0, 63, 61
1, 165381, Note_on_c, 0, 65, 68
1, 165383, Control_c, 0, 64, 58
1, 165398, Control_c, 0, 64, 64
1, 165413, Control_c, 0, 64, 68
1, 165422, Note_on_c, 0, 48, 85
1, 165425, Note_on_c, 0, 63, 88
1, 165428, Control_c, 0, 64, 72
1, 165433, Note_off_c, 0, 65, 63
1, 165443, Control_c, 0, 64, 76
1, 165448, Note_off_c, 0, 48, 66
1, 165458, Control_c, 0, 64, 80
1, 165466, Note_off_c, 0, 63, 61
1, 165473, Control_c, 0, 64, 82
1, 165488, Control_c, 0, 64, 83
1, 165532, Control_c, 0, 64, 80
1, 165545, Control_c, 0, 64, 72
1, 165556, Note_on_c, 0, 82, 95
1, 165559, Note_on_c, 0, 70, 80
1, 165560, Control_c, 0, 64, 62
1, 165571, Note_on_c, 0, 56, 49
1, 165574, Control_c, 0, 64, 50
1, 165586, Note_on_c, 0, 57, 58
1, 165589, Control_c, 0, 64, 48
1, 165598, Note_off_c, 0, 70, 63
1, 165604, Control_c, 0, 64, 50
1, 165609, Note_off_c, 0, 56, 0
1, 165609, Note_on_c, 0, 56, 16
1, 165619, Control_c, 0, 64, 56
1, 165635, Control_c, 0, 64, 60
1, 165650, Control_c, 0, 64, 63
1, 165662, Note_off_c, 0, 82, 60
1, 165664, Control_c, 0, 64, 65
1, 165672, Note_on_c, 0, 80, 86
1, 165679, Control_c, 0, 64, 68
1, 165694, Control_c, 0, 64, 70
1, 165708, Control_c, 0, 64, 71
1, 165738, Control_c, 0, 64, 68
1, 165740, Note_off_c, 0, 80, 63
1, 165753, Control_c, 0, 64, 62
1, 165768, Control_c, 0, 64, 54
1, 165776, Note_on_c, 0, 61, 87
1, 165776, Note_off_c, 0, 57, 37
1, 165778, Note_on_c, 0, 82, 91
1, 165783, Control_c, 0, 64, 53
1, 165798, Control_c, 0, 64, 56
1, 165807, Note_off_c, 0, 56, 40
1, 165812, Control_c, 0, 64, 62
1, 165827, Control_c, 0, 64, 66
1, 165830, Note_off_c, 0, 82, 64
1, 165842, Control_c, 0, 64, 72
1, 165857, Control_c, 0, 64, 77
1, 165867, Note_on_c, 0, 82, 83
1, 165872, Control_c, 0, 64, 83
1, 165876, Note_on_c, 0, 70, 89
1, 165887, Control_c, 0, 64, 88
1, 165902, Control_c, 0, 64, 89
1, 165926, Note_off_c, 0, 70, 65
1, 165936, Note_off_c, 0, 82, 63
1, 165946, Control_c, 0, 64, 89
1, 165961, Control_c, 0, 64, 87
1, 165962, Note_off_c, 0, 61, 59
1, 165976, Control_c, 0, 64, 86
1, 165981, Note_on_c, 0, 66, 89
1, 165987, Note_on_c, 0, 80, 88
1, 166034, Control_c, 0, 64, 87
1, 166045, Note_off_c, 0, 80, 61
1, 166049, Control_c, 0, 64, 92
1, 166064, Control_c, 0, 64, 101
1, 166072, Note_on_c, 0, 82, 91
1, 166079, Control_c, 0, 64, 111
1, 166124, Note_off_c, 0, 82, 62
1, 166131, Control_c, 0, 64, 100
1, 166146, Note_off_c, 0, 66, 59
1, 166146, Control_c, 0, 64, 81
1, 166161, Control_c, 0, 64, 65
1, 166164, Note_on_c, 0, 59, 76
1, 166176, Control_c, 0, 64, 56
1, 166179, Note_on_c, 0, 82, 97
1, 166183, Note_on_c, 0, 70, 90
1, 166190, Control_c, 0, 64, 58
1, 166205, Control_c, 0, 64, 64
1, 166217, Note_on_c, 0, 61, 74
1, 166220, Control_c, 0, 64, 71
1, 166234, Note_off_c, 0, 59, 64
1, 166235, Control_c, 0, 64, 82
1, 166239, Note_off_c, 0, 70, 62
1, 166249, Control_c, 0, 64, 90
1, 166264, Control_c, 0, 64, 99
1, 166269, Note_off_c, 0, 82, 60
1, 166278, Note_on_c, 0, 80, 86
1, 166279, Control_c, 0, 64, 122
1, 166288, Note_on_c, 0, 59, 73
1, 166294, Control_c, 0, 64, 127
1, 166305, Note_off_c, 0, 61, 63
1, 166344, Note_off_c, 0, 80, 64
1, 166353, Note_off_c, 0, 59, 62
1, 166368, Control_c, 0, 64, 101
1, 166383, Control_c, 0, 64, 73
1, 166386, Note_on_c, 0, 82, 94
1, 166388, Note_on_c, 0, 53, 88
1, 166397, Control_c, 0, 64, 53
1, 166412, Control_c, 0, 64, 49
1, 166427, Control_c, 0, 64, 53
1, 166437, Note_off_c, 0, 82, 63
1, 166443, Control_c, 0, 64, 61
1, 166458, Control_c, 0, 64, 69
1, 166472, Control_c, 0, 64, 78
1, 166481, Note_on_c, 0, 70, 99
1, 166481, Note_on_c, 0, 82, 87
1, 166487, Control_c, 0, 64, 85
1, 166502, Control_c, 0, 64, 87
1, 166517, Control_c, 0, 64, 87
1, 166540, Note_off_c, 0, 70, 63
1, 166543, Note_off_c, 0, 82, 63
1, 166546, Control_c, 0, 64, 88
1, 166561, Control_c, 0, 64, 89
1, 166576, Poly_aftertouch_c, 0, 80, 0
1, 166576, Control_c, 0, 64, 91
1, 166584, Note_off_c, 0, 53, 61
1, 166587, Note_on_c, 0, 80, 61
1, 166591, Note_on_c, 0, 58, 99
1, 166591, Control_c, 0, 64, 95
1, 166606, Control_c, 0, 64, 99
1, 166620, Control_c, 0, 64, 103
1, 166635, Control_c, 0, 64, 105
1, 166650, Control_c, 0, 64, 109
1, 166659, Note_off_c, 0, 80, 64
1, 166665, Control_c, 0, 64, 114
1, 166680, Control_c, 0, 64, 127
1, 166690, Note_on_c, 0, 82, 94
1, 166695, Note_on_c, 0, 70, 96
1, 166734, Note_off_c, 0, 70, 63
1, 166734, Note_off_c, 0, 82, 63
1, 166795, Note_off_c, 0, 58, 62
1, 166798, Note_on_c, 0, 70, 105
1, 166799, Note_on_c, 0, 82, 104
1, 166806, Note_on_c, 0, 63, 94
1, 166855, Note_off_c, 0, 82, 61
1, 166865, Note_off_c, 0, 70, 60
1, 166906, Note_on_c, 0, 80, 92
1, 166963, Note_off_c, 0, 80, 64
1, 166978, Note_off_c, 0, 63, 57
1, 166981, Note_on_c, 0, 56, 80
1, 167017, Note_on_c, 0, 82, 102
1, 167017, Note_on_c, 0, 70, 100
1, 167057, Note_off_c, 0, 56, 62
1, 167063, Note_off_c, 0, 70, 65
1, 167064, Note_off_c, 0, 82, 62
1, 167073, Note_on_c, 0, 58, 70
1, 167111, Note_on_c, 0, 56, 78
1, 167112, Note_off_c, 0, 58, 65
1, 167127, Note_on_c, 0, 70, 104
1, 167129, Note_on_c, 0, 82, 93
1, 167139, Note_off_c, 0, 56, 62
1, 167181, Note_off_c, 0, 82, 64
1, 167204, Note_off_c, 0, 70, 60
1, 167221, Control_c, 0, 64, 82
1, 167237, Control_c, 0, 64, 59
1, 167252, Control_c, 0, 64, 41
1, 167256, Note_on_c, 0, 47, 105
1, 167257, Note_on_c, 0, 35, 99
1, 167267, Control_c, 0, 64, 42
1, 167271, Note_on_c, 0, 36, 72
1, 167282, Control_c, 0, 64, 49
1, 167296, Control_c, 0, 64, 61
1, 167297, Note_off_c, 0, 36, 56
1, 167301, Note_off_c, 0, 47, 66
1, 167311, Control_c, 0, 64, 69
1, 167323, Note_off_c, 0, 35, 57
1, 167326, Control_c, 0, 64, 74
1, 167341, Control_c, 0, 64, 75
1, 167407, Note_on_c, 0, 46, 97
1, 167410, Note_on_c, 0, 34, 96
1, 167461, Note_off_c, 0, 34, 64
1, 167461, Note_off_c, 0, 46, 63
1, 167474, Control_c, 0, 64, 74
1, 167488, Control_c, 0, 64, 73
1, 167503, Control_c, 0, 64, 68
1, 167518, Control_c, 0, 64, 62
1, 167522, Note_on_c, 0, 47, 100
1, 167526, Note_on_c, 0, 35, 102
1, 167533, Control_c, 0, 64, 55
1, 167548, Control_c, 0, 64, 48
1, 167562, Control_c, 0, 64, 37
1, 167577, Control_c, 0, 64, 0
1, 167588, Note_off_c, 0, 47, 53
1, 167591, Note_off_c, 0, 35, 59
1, 167639, Note_on_c, 0, 35, 76
1, 167640, Note_on_c, 0, 66, 99
1, 167644, Note_on_c, 0, 78, 87
1, 167645, Note_on_c, 0, 73, 87
1, 167646, Note_on_c, 0, 47, 83
1, 167684, Note_off_c, 0, 47, 65
1, 167693, Note_off_c, 0, 66, 60
1, 167693, Note_off_c, 0, 35, 64
1, 167703, Note_off_c, 0, 73, 62
1, 167710, Note_off_c, 0, 78, 55
1, 167735, Note_on_c, 0, 47, 82
1, 167739, Note_on_c, 0, 35, 86
1, 167762, Control_c, 0, 64, 37
1, 167777, Control_c, 0, 64, 59
1, 167780, Note_on_c, 0, 75, 90
1, 167783, Note_on_c, 0, 70, 86
1, 167788, Note_on_c, 0, 65, 79
1, 167791, Note_on_c, 0, 64, 79
1, 167792, Control_c, 0, 64, 65
1, 167806, Control_c, 0, 64, 67
1, 167813, Note_on_c, 0, 73, 44
1, 167813, Note_off_c, 0, 64, 72
1, 167821, Control_c, 0, 64, 68
1, 167823, Note_off_c, 0, 47, 64
1, 167826, Note_off_c, 0, 35, 63
1, 167836, Control_c, 0, 64, 68
1, 167837, Note_off_c, 0, 65, 59
1, 167838, Note_off_c, 0, 70, 61
1, 167838, Note_off_c, 0, 73, 57
1, 167840, Note_off_c, 0, 75, 64
1, 167851, Control_c, 0, 64, 69
1, 167866, Control_c, 0, 64, 69
1, 167880, Control_c, 0, 64, 70
1, 167895, Control_c, 0, 64, 71
1, 167910, Control_c, 0, 64, 72
1, 167911, Note_on_c, 0, 46, 93
1, 167917, Note_on_c, 0, 34, 87
1, 167925, Control_c, 0, 64, 72
1, 167940, Control_c, 0, 64, 73
1, 167956, Note_off_c, 0, 34, 58
1, 167958, Note_off_c, 0, 46, 64
1, 168008, Note_on_c, 0, 35, 81
1, 168015, Note_on_c, 0, 47, 94
1, 168058, Note_off_c, 0, 35, 62
1, 168072, Note_off_c, 0, 47, 62
1, 168074, Control_c, 0, 64, 72
1, 168089, Control_c, 0, 64, 71
1, 168104, Control_c, 0, 64, 68
1, 168105, Note_on_c, 0, 51, 95
1, 168108, Note_on_c, 0, 39, 89
1, 168118, Control_c, 0, 64, 65
1, 168133, Control_c, 0, 64, 60
1, 168148, Control_c, 0, 64, 56
1, 168163, Control_c, 0, 64, 51
1, 168176, Note_off_c, 0, 51, 61
1, 168178, Control_c, 0, 64, 46
1, 168192, Control_c, 0, 64, 41
1, 168206, Note_on_c, 0, 58, 92
1, 168207, Control_c, 0, 64, 39
1, 168209, Note_on_c, 0, 46, 81
1, 168236, Control_c, 0, 64, 44
1, 168240, Note_off_c, 0, 39, 64
1, 168251, Control_c, 0, 64, 53
1, 168266, Control_c, 0, 64, 60
1, 168281, Control_c, 0, 64, 64
1, 168287, Note_on_c, 0, 41, 71
1, 168293, Note_on_c, 0, 53, 95
1, 168294, Note_on_c, 0, 40, 68
1, 168296, Note_off_c, 0, 46, 60
1, 168296, Control_c, 0, 64, 66
1, 168308, Note_off_c, 0, 58, 62
1, 168309, Note_off_c, 0, 41, 67
1, 168310, Control_c, 0, 64, 67
1, 168318, Note_off_c, 0, 40, 60
1, 168322, Note_off_c, 0, 53, 66
1, 168325, Control_c, 0, 64, 68
1, 168404, Note_on_c, 0, 59, 101
1, 168408, Note_on_c, 0, 47, 95
1, 168422, Control_c, 0, 64, 68
1, 168428, Note_off_c, 0, 59, 67
1, 168434, Note_off_c, 0, 47, 69
1, 168451, Control_c, 0, 64, 67
1, 168509, Note_on_c, 0, 58, 102
1, 168514, Note_on_c, 0, 46, 91
1, 168552, Note_off_c, 0, 46, 62
1, 168553, Note_off_c, 0, 58, 65
1, 168605, Note_on_c, 0, 59, 100
1, 168609, Note_on_c, 0, 47, 92
1, 168615, Control_c, 0, 64, 65
1, 168629, Control_c, 0, 64, 58
1, 168632, Note_off_c, 0, 47, 66
1, 168639, Note_off_c, 0, 59, 61
1, 168644, Control_c, 0, 64, 31
1, 168659, Control_c, 0, 64, 0
1, 168689, Note_on_c, 0, 77, 99
1, 168691, Note_on_c, 0, 82, 91
1, 168693, Note_on_c, 0, 71, 99
1, 168696, Note_on_c, 0, 59, 100
1, 168698, Note_on_c, 0, 47, 99
1, 168731, Note_off_c, 0, 71, 65
1, 168732, Note_off_c, 0, 77, 67
1, 168734, Note_off_c, 0, 82, 64
1, 168748, Control_c, 0, 64, 53
1, 168762, Control_c, 0, 64, 62
1, 168777, Control_c, 0, 64, 65
1, 168781, Note_off_c, 0, 59, 66
1, 168789, Note_off_c, 0, 47, 65
1, 168792, Control_c, 0, 64, 65
1, 168793, Note_on_c, 0, 75, 96
1, 168796, Note_on_c, 0, 65, 97
1, 168807, Note_on_c, 0, 70, 80
1, 168807, Control_c, 0, 64, 66
1, 168822, Control_c, 0, 64, 66
1, 168835, Note_off_c, 0, 65, 65
1, 168838, Note_off_c, 0, 70, 58
1, 168838, Control_c, 0, 64, 67
1, 168850, Note_off_c, 0, 75, 65
1, 168853, Control_c, 0, 64, 68
1, 168867, Control_c, 0, 64, 69
1, 168882, Control_c, 0, 64, 71
1, 168883, Note_on_c, 0, 58, 93
1, 168893, Note_on_c, 0, 46, 85
1, 168897, Control_c, 0, 64, 72
1, 168912, Control_c, 0, 64, 74
1, 168926, Control_c, 0, 64, 76
1, 168930, Note_off_c, 0, 58, 65
1, 168941, Control_c, 0, 64, 78
1, 168948, Note_off_c, 0, 46, 61
1, 168956, Control_c, 0, 64, 79
1, 168991, Note_on_c, 0, 47, 72
1, 169007, Note_on_c, 0, 59, 95
1, 169059, Note_off_c, 0, 47, 50
1, 169062, Note_on_c, 0, 63, 96
1, 169080, Note_off_c, 0, 59, 64
1, 169095, Note_on_c, 0, 51, 83
1, 169151, Note_off_c, 0, 63, 59
1, 169167, Note_on_c, 0, 70, 89
1, 169202, Note_on_c, 0, 58, 83
1, 169245, Control_c, 0, 64, 78
1, 169246, Note_on_c, 0, 65, 92
1, 169256, Note_off_c, 0, 70, 62
1, 169259, Control_c, 0, 64, 66
1, 169260, Note_off_c, 0, 51, 58
1, 169274, Control_c, 0, 64, 42
1, 169277, Note_off_c, 0, 58, 63
1, 169279, Note_off_c, 0, 65, 66
1, 169285, Note_on_c, 0, 53, 63
1, 169289, Control_c, 0, 64, 0
1, 169344, Note_on_c, 0, 59, 103
1, 169347, Note_on_c, 0, 71, 95
1, 169348, Note_off_c, 0, 53, 64
1, 169363, Control_c, 0, 64, 43
1, 169378, Note_off_c, 0, 59, 69
1, 169378, Control_c, 0, 64, 62
1, 169393, Control_c, 0, 64, 67
1, 169407, Control_c, 0, 64, 68
1, 169419, Note_off_c, 0, 71, 51
1, 169422, Control_c, 0, 64, 70
1, 169430, Note_on_c, 0, 70, 88
1, 169437, Control_c, 0, 64, 72
1, 169452, Control_c, 0, 64, 72
1, 169467, Control_c, 0, 64, 73
1, 169497, Control_c, 0, 64, 73
1, 169497, Note_off_c, 0, 70, 63
1, 169512, Control_c, 0, 64, 74
1, 169524, Note_on_c, 0, 71, 90
1, 169527, Control_c, 0, 64, 76
1, 169541, Control_c, 0, 64, 77
1, 169556, Control_c, 0, 64, 78
1, 169585, Control_c, 0, 64, 77
1, 169600, Control_c, 0, 64, 75
1, 169609, Note_on_c, 0, 87, 77
1, 169615, Control_c, 0, 64, 70
1, 169618, Note_on_c, 0, 75, 85
1, 169619, Note_off_c, 0, 71, 50
1, 169621, Note_on_c, 0, 88, 85
1, 169631, Control_c, 0, 64, 63
1, 169646, Control_c, 0, 64, 54
1, 169653, Note_off_c, 0, 87, 0
1, 169653, Note_on_c, 0, 87, 20
1, 169661, Control_c, 0, 64, 45
1, 169673, Note_off_c, 0, 88, 56
1, 169675, Control_c, 0, 64, 42
1, 169690, Control_c, 0, 64, 41
1, 169691, Note_off_c, 0, 87, 54
1, 169703, Note_on_c, 0, 91, 86
1, 169703, Note_off_c, 0, 75, 61
1, 169705, Control_c, 0, 64, 40
1, 169709, Note_on_c, 0, 82, 72
1, 169720, Control_c, 0, 64, 39
1, 169735, Control_c, 0, 64, 34
1, 169749, Control_c, 0, 64, 0
1, 169763, Note_on_c, 0, 77, 74
1, 169772, Note_on_c, 0, 87, 82
1, 169777, Note_off_c, 0, 91, 68
1, 169779, Note_off_c, 0, 82, 61
1, 169843, Note_off_c, 0, 77, 63
1, 169843, Note_off_c, 0, 87, 64
1, 169861, Control_c, 0, 64, 47
1, 169869, Note_on_c, 0, 91, 101
1, 169875, Note_on_c, 0, 72, 80
1, 169875, Control_c, 0, 64, 63
1, 169890, Control_c, 0, 64, 65
1, 169902, Note_off_c, 0, 91, 67
1, 169905, Control_c, 0, 64, 66
1, 169933, Note_off_c, 0, 72, 63
1, 169962, Note_on_c, 0, 70, 80
1, 169994, Control_c, 0, 64, 66
1, 170024, Note_off_c, 0, 70, 64
1, 170053, Control_c, 0, 64, 66
1, 170060, Note_on_c, 0, 71, 82
1, 170068, Control_c, 0, 64, 64
1, 170082, Control_c, 0, 64, 55
1, 170097, Control_c, 0, 64, 43
1, 170112, Control_c, 0, 64, 0
1, 170141, Note_on_c, 0, 90, 90
1, 170145, Note_off_c, 0, 71, 55
1, 170154, Note_on_c, 0, 75, 75
1, 170209, Note_off_c, 0, 90, 63
1, 170216, Note_on_c, 0, 94, 95
1, 170231, Note_off_c, 0, 75, 61
1, 170236, Note_on_c, 0, 82, 69
1, 170292, Note_off_c, 0, 94, 64
1, 170296, Note_on_c, 0, 90, 92
1, 170297, Note_off_c, 0, 82, 62
1, 170305, Note_on_c, 0, 77, 70
1, 170367, Note_off_c, 0, 77, 62
1, 170372, Note_off_c, 0, 90, 63
1, 170373, Note_on_c, 0, 94, 102
1, 170379, Control_c, 0, 64, 37
1, 170394, Control_c, 0, 64, 57
1, 170395, Note_on_c, 0, 72, 79
1, 170402, Note_off_c, 0, 94, 69
1, 170408, Control_c, 0, 64, 64
1, 170424, Control_c, 0, 64, 65
1, 170439, Control_c, 0, 64, 66
1, 170454, Control_c, 0, 64, 67
1, 170461, Note_off_c, 0, 72, 61
1, 170469, Control_c, 0, 64, 68
1, 170478, Note_on_c, 0, 70, 78
1, 170484, Control_c, 0, 64, 69
1, 170498, Control_c, 0, 64, 70
1, 170531, Note_off_c, 0, 70, 64
1, 170562, Note_on_c, 0, 71, 84
1, 170572, Control_c, 0, 64, 69
1, 170587, Control_c, 0, 64, 65
1, 170609, Control_c, 0, 64, 57
1, 170624, Control_c, 0, 64, 45
1, 170639, Control_c, 0, 64, 34
1, 170653, Note_on_c, 0, 87, 85
1, 170653, Control_c, 0, 64, 0
1, 170665, Note_on_c, 0, 75, 78
1, 170677, Note_off_c, 0, 71, 38
1, 170723, Note_off_c, 0, 87, 63
1, 170734, Note_on_c, 0, 91, 93
1, 170754, Note_off_c, 0, 75, 62
1, 170755, Note_on_c, 0, 82, 75
1, 170807, Note_off_c, 0, 91, 64
1, 170816, Note_on_c, 0, 87, 89
1, 170819, Note_on_c, 0, 77, 73
1, 170820, Note_off_c, 0, 82, 63
1, 170871, Note_off_c, 0, 87, 65
1, 170883, Note_off_c, 0, 77, 63
1, 170892, Control_c, 0, 64, 42
1, 170897, Note_on_c, 0, 91, 95
1, 170906, Control_c, 0, 64, 56
1, 170912, Note_on_c, 0, 72, 82
1, 170921, Note_off_c, 0, 91, 68
1, 170921, Control_c, 0, 64, 63
1, 170936, Control_c, 0, 64, 65
1, 170951, Control_c, 0, 64, 66
1, 170965, Control_c, 0, 64, 67
1, 170973, Note_off_c, 0, 72, 60
1, 170980, Control_c, 0, 64, 69
1, 170995, Note_on_c, 0, 70, 79
1, 170995, Control_c, 0, 64, 70
1, 171010, Control_c, 0, 64, 70
1, 171047, Note_off_c, 0, 70, 65
1, 171064, Note_on_c, 0, 75, 104
1, 171069, Control_c, 0, 64, 67
1, 171084, Note_on_c, 0, 71, 84
1, 171084, Control_c, 0, 64, 60
1, 171094, Note_off_c, 0, 75, 59
1, 171099, Control_c, 0, 64, 49
1, 171113, Control_c, 0, 64, 41
1, 171128, Control_c, 0, 64, 34
1, 171143, Control_c, 0, 64, 0
1, 171177, Note_off_c, 0, 71, 51
1, 171193, Note_on_c, 0, 75, 72
1, 171271, Note_on_c, 0, 80, 105
1, 171277, Control_c, 0, 64, 39
1, 171282, Note_off_c, 0, 75, 59
1, 171283, Note_on_c, 0, 82, 74
1, 171292, Control_c, 0, 64, 59
1, 171295, Note_off_c, 0, 80, 71
1, 171307, Control_c, 0, 64, 64
1, 171321, Control_c, 0, 64, 66
1, 171336, Control_c, 0, 64, 68
1, 171346, Note_off_c, 0, 82, 61
1, 171359, Control_c, 0, 64, 70
1, 171360, Note_on_c, 0, 77, 64
1, 171374, Control_c, 0, 64, 72
1, 171389, Control_c, 0, 64, 74
1, 171403, Control_c, 0, 64, 75
1, 171415, Note_off_c, 0, 77, 61
1, 171418, Control_c, 0, 64, 76
1, 171433, Control_c, 0, 64, 76
1, 171452, Note_on_c, 0, 72, 68
1, 171520, Note_off_c, 0, 72, 58
1, 171535, Note_on_c, 0, 85, 102
1, 171544, Note_on_c, 0, 70, 74
1, 171574, Note_off_c, 0, 85, 67
1, 171591, Note_off_c, 0, 70, 62
1, 171619, Note_on_c, 0, 82, 109
1, 171629, Note_on_c, 0, 71, 80
1, 171640, Note_off_c, 0, 82, 70
1, 171715, Note_off_c, 0, 71, 57
1, 171728, Note_on_c, 0, 75, 68
1, 171809, Note_on_c, 0, 82, 64
1, 171825, Note_off_c, 0, 75, 56
1, 171885, Note_off_c, 0, 82, 62
1, 171890, Note_on_c, 0, 77, 68
1, 171944, Note_off_c, 0, 77, 57
1, 171976, Note_on_c, 0, 72, 78
1, 172030, Note_off_c, 0, 72, 60
1, 172067, Note_on_c, 0, 70, 72
1, 172071, Control_c, 0, 64, 76
1, 172120, Note_off_c, 0, 70, 62
1, 172157, Note_on_c, 0, 71, 75
1, 172167, Control_c, 0, 64, 75
1, 172182, Control_c, 0, 64, 75
1, 172197, Control_c, 0, 64, 71
1, 172211, Control_c, 0, 64, 61
1, 172217, Note_off_c, 0, 71, 58
1, 172226, Control_c, 0, 64, 50
1, 172241, Note_on_c, 0, 75, 73
1, 172241, Control_c, 0, 64, 41
1, 172250, Note_on_c, 0, 63, 75
1, 172256, Control_c, 0, 64, 29
1, 172271, Control_c, 0, 64, 0
1, 172308, Note_off_c, 0, 63, 60
1, 172317, Note_off_c, 0, 75, 60
1, 172332, Note_on_c, 0, 67, 76
1, 172335, Note_on_c, 0, 82, 57
1, 172376, Note_off_c, 0, 67, 56
1, 172387, Note_off_c, 0, 82, 60
1, 172397, Note_on_c, 0, 77, 62
1, 172405, Note_on_c, 0, 63, 73
1, 172448, Note_off_c, 0, 77, 55
1, 172463, Note_off_c, 0, 63, 60
1, 172477, Control_c, 0, 64, 44
1, 172479, Note_on_c, 0, 67, 87
1, 172492, Control_c, 0, 64, 60
1, 172502, Note_on_c, 0, 72, 60
1, 172507, Control_c, 0, 64, 65
1, 172519, Note_off_c, 0, 67, 62
1, 172522, Control_c, 0, 64, 67
1, 172537, Control_c, 0, 64, 68
1, 172551, Control_c, 0, 64, 69
1, 172555, Note_off_c, 0, 72, 54
1, 172566, Control_c, 0, 64, 69
1, 172585, Note_on_c, 0, 70, 71
1, 172610, Control_c, 0, 64, 70
1, 172625, Control_c, 0, 64, 71
1, 172640, Control_c, 0, 64, 72
1, 172642, Note_off_c, 0, 70, 64
1, 172655, Control_c, 0, 64, 72
1, 172670, Note_on_c, 0, 71, 76
1, 172699, Control_c, 0, 64, 69
1, 172714, Control_c, 0, 64, 53
1, 172729, Control_c, 0, 64, 0
1, 172731, Note_off_c, 0, 71, 55
1, 172752, Note_on_c, 0, 66, 81
1, 172756, Note_on_c, 0, 75, 76
1, 172824, Note_off_c, 0, 66, 64
1, 172830, Note_on_c, 0, 70, 88
1, 172840, Note_off_c, 0, 75, 60
1, 172843, Note_on_c, 0, 82, 77
1, 172911, Note_off_c, 0, 70, 61
1, 172919, Note_on_c, 0, 66, 92
1, 172925, Note_off_c, 0, 82, 61
1, 172931, Note_on_c, 0, 77, 75
1, 172982, Note_off_c, 0, 66, 61
1, 172998, Note_on_c, 0, 70, 101
1, 173004, Control_c, 0, 64, 55
1, 173013, Note_off_c, 0, 77, 62
1, 173019, Control_c, 0, 64, 64
1, 173027, Note_off_c, 0, 70, 68
1, 173031, Note_on_c, 0, 72, 78
1, 173033, Control_c, 0, 64, 67
1, 173048, Control_c, 0, 64, 69
1, 173063, Control_c, 0, 64, 70
1, 173078, Control_c, 0, 64, 71
1, 173093, Control_c, 0, 64, 72
1, 173107, Note_off_c, 0, 72, 60
1, 173107, Control_c, 0, 64, 72
1, 173118, Note_on_c, 0, 70, 82
1, 173122, Control_c, 0, 64, 73
1, 173137, Control_c, 0, 64, 74
1, 173152, Control_c, 0, 64, 75
1, 173167, Control_c, 0, 64, 76
1, 173177, Note_off_c, 0, 70, 65
1, 173196, Control_c, 0, 64, 75
1, 173204, Note_on_c, 0, 71, 84
1, 173211, Control_c, 0, 64, 64
1, 173226, Control_c, 0, 64, 0
1, 173294, Note_on_c, 0, 75, 79
1, 173297, Note_off_c, 0, 71, 40
1, 173301, Note_on_c, 0, 63, 81
1, 173356, Note_off_c, 0, 63, 64
1, 173377, Note_on_c, 0, 67, 91
1, 173377, Note_off_c, 0, 75, 59
1, 173384, Note_on_c, 0, 82, 76
1, 173429, Note_off_c, 0, 67, 64
1, 173450, Note_off_c, 0, 82, 61
1, 173451, Note_on_c, 0, 77, 70
1, 173457, Note_on_c, 0, 63, 88
1, 173522, Note_off_c, 0, 77, 61
1, 173522, Control_c, 0, 64, 36
1, 173527, Note_off_c, 0, 63, 62
1, 173530, Note_on_c, 0, 67, 85
1, 173535, Note_on_c, 0, 72, 81
1, 173537, Control_c, 0, 64, 59
1, 173548, Note_off_c, 0, 67, 73
1, 173551, Control_c, 0, 64, 63
1, 173566, Control_c, 0, 64, 64
1, 173581, Control_c, 0, 64, 65
1, 173604, Control_c, 0, 64, 67
1, 173619, Control_c, 0, 64, 69
1, 173625, Note_off_c, 0, 72, 61
1, 173632, Note_on_c, 0, 70, 82
1, 173634, Control_c, 0, 64, 70
1, 173649, Control_c, 0, 64, 72
1, 173664, Control_c, 0, 64, 73
1, 173679, Control_c, 0, 64, 74
1, 173689, Note_off_c, 0, 70, 66
1, 173694, Control_c, 0, 64, 76
1, 173707, Note_on_c, 0, 87, 105
1, 173709, Control_c, 0, 64, 76
1, 173721, Note_on_c, 0, 71, 88
1, 173724, Control_c, 0, 64, 78
1, 173738, Control_c, 0, 64, 79
1, 173741, Note_off_c, 0, 87, 64
1, 173753, Control_c, 0, 64, 80
1, 173768, Control_c, 0, 64, 82
1, 173783, Control_c, 0, 64, 83
1, 173798, Control_c, 0, 64, 84
1, 173813, Control_c, 0, 64, 84
1, 173823, Note_on_c, 0, 75, 73
1, 173828, Control_c, 0, 64, 85
1, 173839, Note_off_c, 0, 71, 56
1, 173843, Control_c, 0, 64, 86
1, 173857, Control_c, 0, 64, 86
1, 173872, Control_c, 0, 64, 87
1, 173887, Control_c, 0, 64, 88
1, 173898, Note_on_c, 0, 92, 114
1, 173902, Control_c, 0, 64, 89
1, 173912, Note_on_c, 0, 93, 88
1, 173912, Note_off_c, 0, 75, 57
1, 173915, Note_on_c, 0, 82, 81
1, 173917, Control_c, 0, 64, 90
1, 173924, Note_off_c, 0, 93, 69
1, 173926, Note_on_c, 0, 94, 57
1, 173931, Control_c, 0, 64, 91
1, 173934, Note_off_c, 0, 92, 68
1, 173946, Control_c, 0, 64, 93
1, 173948, Note_off_c, 0, 94, 43
1, 173961, Control_c, 0, 64, 94
1, 173975, Control_c, 0, 64, 96
1, 173992, Note_off_c, 0, 82, 59
1, 173993, Note_on_c, 0, 77, 63
1, 174005, Control_c, 0, 64, 99
1, 174020, Control_c, 0, 64, 102
1, 174035, Control_c, 0, 64, 104
1, 174049, Control_c, 0, 64, 107
1, 174060, Note_off_c, 0, 77, 61
1, 174064, Control_c, 0, 64, 110
1, 174079, Control_c, 0, 64, 112
1, 174082, Note_on_c, 0, 72, 73
1, 174094, Control_c, 0, 64, 115
1, 174109, Control_c, 0, 64, 118
1, 174123, Control_c, 0, 64, 122
1, 174138, Control_c, 0, 64, 127
1, 174149, Note_off_c, 0, 72, 58
1, 174171, Note_on_c, 0, 97, 104
1, 174180, Note_on_c, 0, 70, 76
1, 174215, Note_off_c, 0, 97, 66
1, 174230, Note_off_c, 0, 70, 63
1, 174242, Note_on_c, 0, 94, 114
1, 174258, Note_on_c, 0, 71, 88
1, 174276, Note_off_c, 0, 94, 70
1, 174368, Note_off_c, 0, 71, 58
1, 174378, Note_on_c, 0, 75, 67
1, 174448, Note_on_c, 0, 82, 71
1, 174493, Note_off_c, 0, 75, 58
1, 174536, Note_off_c, 0, 82, 58
1, 174538, Note_on_c, 0, 77, 62
1, 174600, Note_off_c, 0, 77, 58
1, 174627, Note_on_c, 0, 72, 67
1, 174684, Note_off_c, 0, 72, 54
1, 174720, Note_on_c, 0, 70, 66
1, 174773, Note_off_c, 0, 70, 62
1, 174809, Note_on_c, 0, 71, 67
1, 174886, Note_off_c, 0, 71, 59
1, 174887, Note_on_c, 0, 75, 73
1, 174946, Control_c, 0, 67, 45
1, 174961, Control_c, 0, 67, 56
1, 174974, Note_off_c, 0, 75, 59
1, 174976, Control_c, 0, 67, 63
1, 174989, Note_on_c, 0, 82, 67
1, 174991, Control_c, 0, 67, 66
1, 175006, Control_c, 0, 67, 68
1, 175057, Note_off_c, 0, 82, 62
1, 175067, Note_on_c, 0, 77, 66
1, 175103, Note_off_c, 0, 77, 65
1, 175146, Control_c, 0, 67, 67
1, 175161, Control_c, 0, 67, 66
1, 175167, Note_on_c, 0, 60, 63
1, 175176, Control_c, 0, 67, 66
1, 175191, Control_c, 0, 67, 64
1, 175205, Control_c, 0, 67, 64
1, 175221, Control_c, 0, 67, 63
1, 175223, Note_off_c, 0, 60, 59
1, 175236, Control_c, 0, 67, 62
1, 175251, Note_on_c, 0, 58, 72
1, 175251, Control_c, 0, 67, 61
1, 175266, Control_c, 0, 67, 60
1, 175281, Control_c, 0, 64, 124
1, 175281, Control_c, 0, 67, 60
1, 175295, Control_c, 0, 64, 122
1, 175295, Control_c, 0, 67, 59
1, 175310, Control_c, 0, 67, 58
1, 175322, Note_off_c, 0, 58, 54
1, 175325, Control_c, 0, 64, 119
1, 175325, Control_c, 0, 67, 58
1, 175339, Note_on_c, 0, 59, 63
1, 175340, Control_c, 0, 67, 57
1, 175355, Control_c, 0, 64, 116
1, 175369, Control_c, 0, 67, 56
1, 175384, Control_c, 0, 64, 112
1, 175387, Note_off_c, 0, 59, 56
1, 175399, Control_c, 0, 64, 110
1, 175414, Control_c, 0, 64, 108
1, 175414, Control_c, 0, 67, 56
1, 175429, Control_c, 0, 64, 105
1, 175439, Note_on_c, 0, 63, 64
1, 175444, Control_c, 0, 64, 103
1, 175459, Control_c, 0, 64, 101
1, 175474, Control_c, 0, 64, 98
1, 175488, Control_c, 0, 64, 95
1, 175503, Control_c, 0, 64, 92
1, 175503, Control_c, 0, 67, 56
1, 175518, Control_c, 0, 64, 89
1, 175518, Note_off_c, 0, 63, 56
1, 175527, Note_on_c, 0, 70, 62
1, 175533, Control_c, 0, 64, 86
1, 175533, Control_c, 0, 67, 57
1, 175547, Control_c, 0, 64, 83
1, 175547, Control_c, 0, 67, 58
1, 175562, Control_c, 0, 64, 80
1, 175562, Control_c, 0, 67, 58
1, 175577, Control_c, 0, 64, 77
1, 175577, Control_c, 0, 67, 60
1, 175592, Control_c, 0, 64, 74
1, 175592, Control_c, 0, 67, 62
1, 175597, Note_off_c, 0, 70, 61
1, 175607, Control_c, 0, 64, 71
1, 175607, Control_c, 0, 67, 62
1, 175616, Note_on_c, 0, 65, 58
1, 175621, Control_c, 0, 64, 68
1, 175621, Control_c, 0, 67, 63
1, 175636, Control_c, 0, 64, 65
1, 175636, Control_c, 0, 67, 64
1, 175651, Control_c, 0, 64, 63
1, 175651, Control_c, 0, 67, 64
1, 175661, Note_off_c, 0, 65, 46
1, 175666, Control_c, 0, 64, 63
1, 175681, Control_c, 0, 64, 62
1, 175681, Control_c, 0, 67, 66
1, 175695, Control_c, 0, 67, 66
1, 175710, Control_c, 0, 67, 67
1, 175720, Note_on_c, 0, 60, 55
1, 175740, Control_c, 0, 67, 68
1, 175754, Control_c, 0, 67, 68
1, 175769, Control_c, 0, 67, 69
1, 175784, Note_off_c, 0, 60, 56
1, 175784, Control_c, 0, 67, 70
1, 175799, Control_c, 0, 67, 70
1, 175814, Control_c, 0, 67, 71
1, 175822, Note_on_c, 0, 58, 61
1, 175828, Control_c, 0, 67, 72
1, 175851, Control_c, 0, 67, 73
1, 175866, Control_c, 0, 67, 73
1, 175881, Control_c, 0, 67, 74
1, 175893, Note_off_c, 0, 58, 61
1, 175896, Control_c, 0, 67, 86
1, 175910, Control_c, 0, 67, 110
1, 175925, Control_c, 0, 67, 125
1, 175940, Control_c, 0, 67, 127
1, 175945, Note_on_c, 0, 59, 47
1, 175985, Control_c, 0, 64, 62
1, 176034, Note_on_c, 0, 39, 66
1, 176036, Note_on_c, 0, 51, 63
1, 176047, Note_on_c, 0, 63, 59
1, 176064, Note_off_c, 0, 39, 63
1, 176067, Note_off_c, 0, 51, 63
1, 176070, Note_off_c, 0, 59, 38
1, 176150, Note_off_c, 0, 63, 59
1, 176156, Note_on_c, 0, 42, 71
1, 176156, Note_on_c, 0, 54, 68
1, 176176, Note_off_c, 0, 54, 63
1, 176177, Control_c, 0, 64, 61
1, 176187, Note_on_c, 0, 70, 60
1, 176195, Note_off_c, 0, 42, 66
1, 176273, Note_on_c, 0, 51, 68
1, 176278, Note_on_c, 0, 39, 63
1, 176284, Note_off_c, 0, 70, 60
1, 176299, Note_on_c, 0, 65, 54
1, 176304, Note_off_c, 0, 51, 64
1, 176305, Note_off_c, 0, 39, 58
1, 176370, Control_c, 0, 64, 61
1, 176377, Note_off_c, 0, 65, 57
1, 176387, Note_on_c, 0, 54, 67
1, 176404, Note_on_c, 0, 42, 54
1, 176416, Note_on_c, 0, 60, 56
1, 176430, Control_c, 0, 64, 60
1, 176459, Control_c, 0, 64, 60
1, 176470, Note_off_c, 0, 60, 50
1, 176474, Control_c, 0, 64, 59
1, 176504, Control_c, 0, 64, 59
1, 176518, Control_c, 0, 67, 125
1, 176526, Note_on_c, 0, 58, 60
1, 176548, Control_c, 0, 67, 122
1, 176577, Control_c, 0, 67, 120
1, 176585, Note_off_c, 0, 58, 63
1, 176630, Control_c, 0, 67, 118
1, 176640, Note_on_c, 0, 59, 55
1, 176659, Control_c, 0, 67, 115
1, 176689, Control_c, 0, 67, 113
1, 176717, Note_off_c, 0, 59, 53
1, 176719, Control_c, 0, 64, 58
1, 176719, Control_c, 0, 67, 111
1, 176726, Note_on_c, 0, 63, 58
1, 176733, Control_c, 0, 64, 58
1, 176748, Control_c, 0, 64, 55
1, 176748, Control_c, 0, 67, 109
1, 176763, Control_c, 0, 64, 52
1, 176778, Control_c, 0, 64, 46
1, 176778, Control_c, 0, 67, 106
1, 176793, Control_c, 0, 64, 43
1, 176793, Control_c, 0, 67, 103
1, 176808, Control_c, 0, 64, 44
1, 176808, Control_c, 0, 67, 101
1, 176812, Note_on_c, 0, 69, 81
1, 176824, Note_off_c, 0, 63, 60
1, 176824, Control_c, 0, 64, 49
1, 176824, Control_c, 0, 67, 97
1, 176839, Control_c, 0, 64, 56
1, 176839, Control_c, 0, 67, 86
1, 176854, Control_c, 0, 64, 61
1, 176854, Control_c, 0, 67, 73
1, 176869, Control_c, 0, 64, 64
1, 176869, Control_c, 0, 67, 59
1, 176883, Control_c, 0, 64, 67
1, 176883, Control_c, 0, 67, 47
1, 176898, Control_c, 0, 64, 70
1, 176898, Control_c, 0, 67, 39
1, 176911, Note_off_c, 0, 69, 59
1, 176913, Control_c, 0, 64, 72
1, 176913, Control_c, 0, 67, 0
1, 176928, Control_c, 0, 64, 74
1, 176934, Note_on_c, 0, 65, 56
1, 176942, Control_c, 0, 64, 75
1, 176957, Control_c, 0, 64, 75
1, 176972, Control_c, 0, 64, 76
1, 177001, Control_c, 0, 64, 76
1, 177006, Note_off_c, 0, 65, 57
1, 177031, Note_on_c, 0, 60, 62
1, 177090, Note_off_c, 0, 60, 50
1, 177131, Note_off_c, 0, 54, 57
1, 177133, Note_on_c, 0, 58, 62
1, 177145, Note_off_c, 0, 42, 58
1, 177192, Note_off_c, 0, 58, 61
1, 177208, Control_c, 0, 64, 76
1, 177232, Note_on_c, 0, 59, 64
1, 177313, Control_c, 0, 64, 75
1, 177322, Note_on_c, 0, 39, 75
1, 177322, Note_off_c, 0, 59, 51
1, 177324, Note_on_c, 0, 51, 66
1, 177328, Control_c, 0, 64, 72
1, 177334, Note_on_c, 0, 63, 67
1, 177349, Control_c, 0, 64, 68
1, 177353, Note_off_c, 0, 51, 63
1, 177354, Note_off_c, 0, 39, 63
1, 177364, Control_c, 0, 64, 64
1, 177379, Control_c, 0, 64, 60
1, 177394, Control_c, 0, 64, 59
1, 177408, Control_c, 0, 64, 58
1, 177423, Control_c, 0, 64, 57
1, 177426, Note_off_c, 0, 63, 58
1, 177430, Note_on_c, 0, 42, 75
1, 177438, Note_on_c, 0, 54, 56
1, 177438, Control_c, 0, 64, 57
1, 177447, Note_on_c, 0, 70, 69
1, 177453, Control_c, 0, 64, 56
1, 177458, Note_off_c, 0, 42, 65
1, 177462, Note_off_c, 0, 54, 57
1, 177468, Control_c, 0, 64, 56
1, 177483, Control_c, 0, 64, 55
1, 177498, Control_c, 0, 64, 55
1, 177513, Control_c, 0, 64, 54
1, 177523, Note_off_c, 0, 70, 58
1, 177527, Note_on_c, 0, 39, 68
1, 177527, Note_on_c, 0, 51, 75
1, 177533, Note_on_c, 0, 65, 59
1, 177542, Control_c, 0, 64, 53
1, 177554, Note_off_c, 0, 51, 65
1, 177557, Control_c, 0, 64, 53
1, 177557, Note_off_c, 0, 39, 60
1, 177572, Control_c, 0, 64, 52
1, 177587, Control_c, 0, 64, 51
1, 177601, Control_c, 0, 64, 51
1, 177616, Control_c, 0, 64, 50
1, 177618, Note_off_c, 0, 65, 53
1, 177627, Note_on_c, 0, 54, 73
1, 177632, Control_c, 0, 64, 50
1, 177632, Note_on_c, 0, 42, 63
1, 177640, Note_on_c, 0, 60, 58
1, 177647, Control_c, 0, 64, 49
1, 177662, Control_c, 0, 64, 47
1, 177676, Control_c, 0, 64, 46
1, 177691, Control_c, 0, 64, 45
1, 177704, Note_off_c, 0, 60, 55
1, 177706, Control_c, 0, 64, 44
1, 177721, Control_c, 0, 64, 44
1, 177739, Note_on_c, 0, 58, 64
1, 177797, Note_off_c, 0, 58, 62
1, 177837, Note_on_c, 0, 59, 65
1, 177909, Note_off_c, 0, 59, 52
1, 177931, Note_on_c, 0, 63, 64
1, 177972, Control_c, 0, 64, 43
1, 178002, Control_c, 0, 64, 44
1, 178015, Note_on_c, 0, 69, 87
1, 178016, Control_c, 0, 64, 47
1, 178017, Note_off_c, 0, 63, 55
1, 178031, Control_c, 0, 64, 54
1, 178046, Control_c, 0, 64, 60
1, 178061, Control_c, 0, 64, 63
1, 178076, Control_c, 0, 64, 65
1, 178098, Control_c, 0, 64, 66
1, 178113, Control_c, 0, 64, 68
1, 178128, Note_off_c, 0, 69, 55
1, 178128, Control_c, 0, 64, 69
1, 178135, Note_on_c, 0, 65, 65
1, 178142, Control_c, 0, 64, 71
1, 178157, Control_c, 0, 64, 73
1, 178172, Control_c, 0, 64, 73
1, 178187, Control_c, 0, 67, 38
1, 178202, Control_c, 0, 67, 41
1, 178207, Note_off_c, 0, 65, 60
1, 178216, Control_c, 0, 67, 44
1, 178226, Note_on_c, 0, 60, 63
1, 178231, Control_c, 0, 64, 74
1, 178231, Control_c, 0, 67, 47
1, 178246, Control_c, 0, 67, 51
1, 178261, Control_c, 0, 67, 53
1, 178275, Control_c, 0, 67, 56
1, 178288, Note_off_c, 0, 60, 53
1, 178290, Control_c, 0, 67, 58
1, 178304, Control_c, 0, 67, 60
1, 178319, Control_c, 0, 67, 61
1, 178327, Note_on_c, 0, 58, 65
1, 178334, Control_c, 0, 67, 62
1, 178384, Note_off_c, 0, 58, 61
1, 178397, Note_off_c, 0, 54, 58
1, 178408, Control_c, 0, 64, 73
1, 178410, Note_off_c, 0, 42, 60
1, 178427, Note_on_c, 0, 59, 65
1, 178468, Control_c, 0, 64, 72
1, 178483, Control_c, 0, 64, 71
1, 178483, Control_c, 0, 67, 61
1, 178498, Control_c, 0, 64, 69
1, 178513, Control_c, 0, 64, 67
1, 178526, Note_off_c, 0, 59, 55
1, 178527, Control_c, 0, 64, 65
1, 178530, Note_on_c, 0, 63, 63
1, 178537, Note_on_c, 0, 39, 58
1, 178538, Note_on_c, 0, 51, 58
1, 178542, Control_c, 0, 64, 64
1, 178557, Control_c, 0, 64, 63
1, 178557, Control_c, 0, 67, 60
1, 178563, Note_off_c, 0, 51, 58
1, 178566, Note_off_c, 0, 39, 56
1, 178571, Control_c, 0, 64, 62
1, 178586, Control_c, 0, 64, 62
1, 178631, Control_c, 0, 64, 61
1, 178631, Control_c, 0, 67, 60
1, 178638, Note_off_c, 0, 63, 56
1, 178645, Control_c, 0, 67, 59
1, 178654, Note_on_c, 0, 42, 61
1, 178654, Note_on_c, 0, 54, 55
1, 178660, Note_on_c, 0, 70, 68
1, 178660, Control_c, 0, 64, 61
1, 178660, Control_c, 0, 67, 58
1, 178675, Control_c, 0, 64, 60
1, 178675, Control_c, 0, 67, 58
1, 178680, Note_off_c, 0, 54, 57
1, 178689, Note_off_c, 0, 42, 65
1, 178690, Control_c, 0, 64, 60
1, 178690, Control_c, 0, 67, 57
1, 178705, Control_c, 0, 67, 56
1, 178720, Control_c, 0, 64, 59
1, 178720, Control_c, 0, 67, 55
1, 178735, Control_c, 0, 67, 54
1, 178745, Note_off_c, 0, 70, 55
1, 178750, Control_c, 0, 64, 59
1, 178750, Control_c, 0, 67, 54
1, 178762, Note_on_c, 0, 65, 54
1, 178764, Control_c, 0, 67, 53
1, 178767, Note_on_c, 0, 51, 65
1, 178770, Note_on_c, 0, 39, 68
1, 178779, Control_c, 0, 67, 52
1, 178794, Control_c, 0, 67, 51
1, 178798, Note_off_c, 0, 51, 64
1, 178799, Note_off_c, 0, 39, 64
1, 178809, Control_c, 0, 67, 51
1, 178845, Control_c, 0, 67, 50
1, 178854, Note_off_c, 0, 65, 53
1, 178875, Control_c, 0, 67, 49
1, 178882, Note_on_c, 0, 42, 70
1, 178884, Note_on_c, 0, 60, 61
1, 178886, Note_on_c, 0, 54, 65
1, 178906, Note_off_c, 0, 54, 61
1, 178914, Note_off_c, 0, 42, 64
1, 178920, Control_c, 0, 67, 49
1, 178934, Control_c, 0, 64, 59
1, 178949, Control_c, 0, 64, 60
1, 178949, Control_c, 0, 67, 48
1, 178952, Note_off_c, 0, 60, 56
1, 178964, Control_c, 0, 64, 60
1, 178964, Control_c, 0, 67, 47
1, 178991, Note_on_c, 0, 39, 74
1, 178991, Note_on_c, 0, 51, 72
1, 178993, Note_on_c, 0, 58, 68
1, 178994, Control_c, 0, 67, 47
1, 179009, Control_c, 0, 67, 46
1, 179021, Note_off_c, 0, 39, 65
1, 179021, Note_off_c, 0, 51, 63
1, 179024, Control_c, 0, 67, 45
1, 179038, Control_c, 0, 67, 45
1, 179045, Note_off_c, 0, 58, 61
1, 179053, Control_c, 0, 67, 44
1, 179068, Control_c, 0, 67, 43
1, 179083, Control_c, 0, 67, 43
1, 179083, Note_on_c, 0, 54, 74
1, 179084, Note_on_c, 0, 42, 75
1, 179090, Note_on_c, 0, 59, 64
1, 179098, Control_c, 0, 67, 42
1, 179101, Note_off_c, 0, 54, 65
1, 179112, Control_c, 0, 67, 41
1, 179113, Note_off_c, 0, 42, 66
1, 179127, Control_c, 0, 67, 39
1, 179142, Control_c, 0, 67, 39
1, 179152, Note_off_c, 0, 59, 52
1, 179157, Control_c, 0, 67, 38
1, 179170, Note_on_c, 0, 39, 80
1, 179171, Control_c, 0, 67, 37
1, 179175, Note_on_c, 0, 63, 67
1, 179179, Note_on_c, 0, 51, 74
1, 179201, Control_c, 0, 67, 0
1, 179202, Note_off_c, 0, 39, 68
1, 179206, Note_off_c, 0, 51, 65
1, 179244, Note_off_c, 0, 63, 59
1, 179268, Note_on_c, 0, 42, 76
1, 179271, Note_on_c, 0, 54, 76
1, 179271, Note_on_c, 0, 70, 79
1, 179288, Note_off_c, 0, 54, 67
1, 179298, Note_off_c, 0, 42, 66
1, 179340, Note_off_c, 0, 70, 63
1, 179345, Note_on_c, 0, 65, 63
1, 179349, Note_on_c, 0, 51, 86
1, 179352, Note_on_c, 0, 39, 90
1, 179365, Control_c, 0, 64, 61
1, 179383, Note_off_c, 0, 51, 63
1, 179385, Note_off_c, 0, 39, 66
1, 179410, Note_off_c, 0, 65, 60
1, 179426, Note_on_c, 0, 60, 73
1, 179444, Note_on_c, 0, 42, 79
1, 179444, Note_on_c, 0, 54, 89
1, 179472, Note_off_c, 0, 54, 64
1, 179480, Note_off_c, 0, 42, 66
1, 179502, Note_off_c, 0, 60, 57
1, 179520, Note_on_c, 0, 58, 74
1, 179532, Note_on_c, 0, 39, 94
1, 179535, Note_on_c, 0, 51, 84
1, 179561, Note_off_c, 0, 51, 67
1, 179569, Note_off_c, 0, 39, 65
1, 179578, Note_off_c, 0, 58, 62
1, 179614, Note_on_c, 0, 59, 74
1, 179623, Note_on_c, 0, 54, 98
1, 179626, Note_on_c, 0, 42, 87
1, 179654, Control_c, 0, 64, 61
1, 179664, Note_off_c, 0, 54, 57
1, 179668, Note_off_c, 0, 42, 63
1, 179694, Note_off_c, 0, 59, 51
1, 179702, Note_on_c, 0, 63, 80
1, 179720, Note_on_c, 0, 39, 88
1, 179720, Note_on_c, 0, 51, 88
1, 179742, Control_c, 0, 64, 62
1, 179743, Note_off_c, 0, 51, 68
1, 179751, Note_off_c, 0, 39, 68
1, 179757, Control_c, 0, 64, 63
1, 179772, Control_c, 0, 64, 66
1, 179786, Note_off_c, 0, 63, 60
1, 179787, Control_c, 0, 64, 68
1, 179802, Note_on_c, 0, 70, 77
1, 179802, Control_c, 0, 64, 71
1, 179810, Note_on_c, 0, 42, 99
1, 179812, Note_on_c, 0, 54, 98
1, 179817, Control_c, 0, 64, 73
1, 179832, Control_c, 0, 64, 75
1, 179834, Note_off_c, 0, 54, 67
1, 179847, Control_c, 0, 64, 76
1, 179853, Note_on_c, 0, 65, 62
1, 179855, Note_off_c, 0, 42, 63
1, 179861, Control_c, 0, 64, 78
1, 179864, Note_on_c, 0, 41, 18
1, 179867, Note_off_c, 0, 70, 60
1, 179891, Control_c, 0, 64, 78
1, 179903, Note_on_c, 0, 39, 102
1, 179905, Note_on_c, 0, 49, 93
1, 179909, Note_off_c, 0, 41, 40
1, 179919, Note_on_c, 0, 37, 73
1, 179920, Control_c, 0, 64, 79
1, 179923, Note_off_c, 0, 49, 72
1, 179930, Note_off_c, 0, 39, 65
1, 179935, Note_off_c, 0, 65, 60
1, 179935, Control_c, 0, 64, 79
1, 179940, Note_on_c, 0, 60, 65
1, 179952, Note_off_c, 0, 37, 63
1, 180004, Note_off_c, 0, 60, 60
1, 180011, Note_on_c, 0, 30, 97
1, 180013, Note_on_c, 0, 42, 99
1, 180032, Note_off_c, 0, 42, 73
1, 180034, Note_off_c, 0, 30, 69
1, 180040, Control_c, 0, 64, 79
1, 180041, Note_on_c, 0, 29, 50
1, 180055, Control_c, 0, 64, 77
1, 180061, Note_on_c, 0, 58, 73
1, 180070, Control_c, 0, 64, 75
1, 180078, Note_off_c, 0, 29, 52
1, 180084, Control_c, 0, 64, 73
1, 180099, Control_c, 0, 64, 71
1, 180104, Poly_aftertouch_c, 0, 28, 0
1, 180108, Note_on_c, 0, 27, 95
1, 180112, Note_on_c, 0, 39, 95
1, 180114, Control_c, 0, 64, 69
1, 180129, Control_c, 0, 64, 68
1, 180130, Note_off_c, 0, 58, 59
1, 180133, Note_off_c, 0, 39, 72
1, 180135, Poly_aftertouch_c, 0, 28, 0
1, 180139, Note_off_c, 0, 27, 61
1, 180143, Control_c, 0, 64, 66
1, 180157, Note_on_c, 0, 59, 70
1, 180158, Control_c, 0, 64, 65
1, 180173, Control_c, 0, 64, 64
1, 180188, Control_c, 0, 64, 63
1, 180204, Note_on_c, 0, 42, 110
1, 180207, Note_on_c, 0, 30, 85
1, 180216, Poly_aftertouch_c, 0, 37, 0
1, 180232, Control_c, 0, 64, 63
1, 180240, Note_on_c, 0, 32, 43
1, 180246, Note_off_c, 0, 42, 66
1, 180266, Note_off_c, 0, 30, 63
1, 180270, Note_off_c, 0, 59, 52
1, 180271, Note_on_c, 0, 58, 57
1, 180279, Note_off_c, 0, 32, 52
1, 180292, Note_off_c, 0, 58, 61
1, 180306, Control_c, 0, 64, 64
1, 180320, Note_on_c, 0, 59, 26
1, 180321, Control_c, 0, 64, 66
1, 180327, Note_on_c, 0, 39, 107
1, 180329, Note_on_c, 0, 27, 102
1, 180343, Control_c, 0, 64, 69
1, 180358, Control_c, 0, 64, 73
1, 180373, Control_c, 0, 64, 75
1, 180381, Note_off_c, 0, 27, 62
1, 180388, Note_off_c, 0, 39, 62
1, 180388, Control_c, 0, 64, 76
1, 180422, Note_off_c, 0, 59, 61
1, 180455, Note_on_c, 0, 42, 107
1, 180455, Note_on_c, 0, 70, 103
1, 180466, Note_on_c, 0, 30, 86
1, 180477, Control_c, 0, 64, 76
1, 180491, Control_c, 0, 64, 78
1, 180493, Note_on_c, 0, 32, 55
1, 180497, Note_on_c, 0, 66, 44
1, 180506, Control_c, 0, 64, 82
1, 180514, Note_off_c, 0, 42, 62
1, 180522, Control_c, 0, 64, 86
1, 180527, Note_off_c, 0, 66, 52
1, 180528, Note_off_c, 0, 32, 51
1, 180535, Note_off_c, 0, 30, 61
1, 180537, Control_c, 0, 64, 87
1, 180541, Note_off_c, 0, 70, 64
1, 180567, Control_c, 0, 64, 87
1, 180577, Note_on_c, 0, 65, 101
1, 180586, Note_on_c, 0, 39, 105
1, 180599, Note_on_c, 0, 27, 89
1, 180612, Control_c, 0, 64, 88
1, 180621, Note_off_c, 0, 27, 69
1, 180626, Control_c, 0, 64, 92
1, 180641, Control_c, 0, 64, 97
1, 180651, Note_off_c, 0, 39, 62
1, 180656, Control_c, 0, 64, 102
1, 180658, Note_off_c, 0, 65, 68
1, 180671, Control_c, 0, 64, 105
1, 180690, Note_on_c, 0, 27, 89
1, 180702, Poly_aftertouch_c, 0, 32, 0
1, 180715, Control_c, 0, 64, 99
1, 180730, Control_c, 0, 64, 80
1, 180744, Control_c, 0, 64, 60
1, 180753, Note_on_c, 0, 35, 73
1, 180759, Control_c, 0, 64, 0
1, 180771, Note_on_c, 0, 42, 102
1, 180792, Note_on_c, 0, 66, 102
1, 180792, Note_on_c, 0, 57, 106
1, 180792, Note_on_c, 0, 70, 104
1, 180794, Note_on_c, 0, 59, 104
1, 180794, Note_off_c, 0, 27, 61
1, 180794, Note_on_c, 0, 63, 100
1, 180823, Note_on_c, 0, 32, 41
1, 180848, Note_off_c, 0, 57, 67
1, 180850, Note_off_c, 0, 59, 65
1, 180852, Note_off_c, 0, 35, 64
1, 180859, Note_off_c, 0, 32, 45
1, 180864, Control_c, 0, 64, 57
1, 180869, Note_off_c, 0, 42, 66
1, 180870, Note_off_c, 0, 63, 69
1, 180873, Note_off_c, 0, 70, 66
1, 180879, Control_c, 0, 64, 76
1, 180882, Note_off_c, 0, 66, 69
1, 180894, Control_c, 0, 64, 91
1, 180908, Control_c, 0, 64, 127
1, 180939, Poly_aftertouch_c, 0, 43, 0
1, 181123, Control_c, 0, 64, 90
1, 181138, Control_c, 0, 64, 60
1, 181153, Control_c, 0, 64, 0
1, 181289, Note_on_c, 0, 71, 99
1, 181289, Note_on_c, 0, 83, 105
1, 181292, Note_on_c, 0, 75, 101
1, 181293, Note_on_c, 0, 66, 105
1, 181298, Note_on_c, 0, 63, 88
1, 181299, Note_on_c, 0, 78, 87
1, 181302, Note_on_c, 0, 59, 73
1, 181314, Note_off_c, 0, 71, 69
1, 181329, Note_off_c, 0, 83, 62
1, 181367, Note_off_c, 0, 78, 60
1, 181373, Note_on_c, 0, 58, 100
1, 181373, Note_on_c, 0, 70, 101
1, 181379, Note_off_c, 0, 75, 65
1, 181394, Note_off_c, 0, 66, 60
1, 181402, Note_off_c, 0, 63, 64
1, 181405, Control_c, 0, 64, 45
1, 181415, Note_off_c, 0, 59, 65
1, 181420, Control_c, 0, 64, 72
1, 181435, Control_c, 0, 64, 80
1, 181438, Note_off_c, 0, 58, 68
1, 181449, Control_c, 0, 64, 84
1, 181479, Control_c, 0, 64, 86
1, 181493, Control_c, 0, 64, 88
1, 181508, Control_c, 0, 64, 89
1, 181523, Control_c, 0, 64, 91
1, 181538, Control_c, 0, 64, 95
1, 181553, Control_c, 0, 64, 100
1, 181567, Control_c, 0, 64, 107
1, 181582, Control_c, 0, 64, 119
1, 181597, Control_c, 0, 64, 127
1, 181622, Note_on_c, 0, 39, 99
1, 181624, Note_on_c, 0, 27, 100
1, 181649, Note_off_c, 0, 27, 70
1, 181650, Note_off_c, 0, 39, 66
1, 181657, Control_c, 0, 64, 85
1, 181672, Control_c, 0, 64, 58
1, 181687, Control_c, 0, 64, 0
1, 181692, Note_on_c, 0, 30, 99
1, 181692, Note_on_c, 0, 42, 104
1, 181698, Note_on_c, 0, 58, 73
1, 181717, Control_c, 0, 64, 35
1, 181731, Control_c, 0, 64, 61
1, 181733, Note_on_c, 0, 29, 45
1, 181746, Control_c, 0, 64, 76
1, 181751, Note_off_c, 0, 42, 64
1, 181758, Note_off_c, 0, 30, 61
1, 181761, Control_c, 0, 64, 89
1, 181776, Control_c, 0, 64, 95
1, 181777, Note_off_c, 0, 29, 53
1, 181790, Control_c, 0, 64, 96
1, 181843, Control_c, 0, 64, 99
1, 181858, Control_c, 0, 64, 103
1, 181872, Control_c, 0, 64, 110
1, 181886, Note_off_c, 0, 58, 57
1, 181887, Control_c, 0, 64, 127
1, 181957, Note_on_c, 0, 45, 93
1, 181958, Note_on_c, 0, 33, 95
1, 181986, Note_off_c, 0, 45, 64
1, 181989, Note_off_c, 0, 33, 64
1, 181990, Control_c, 0, 64, 104
1, 182005, Control_c, 0, 64, 67
1, 182020, Control_c, 0, 64, 0
1, 182029, Note_on_c, 0, 47, 104
1, 182029, Note_on_c, 0, 35, 98
1, 182079, Control_c, 0, 64, 54
1, 182094, Control_c, 0, 64, 73
1, 182098, Note_off_c, 0, 35, 65
1, 182109, Control_c, 0, 64, 84
1, 182118, Note_off_c, 0, 47, 66
1, 182124, Control_c, 0, 64, 88
1, 182139, Control_c, 0, 64, 88
1, 182154, Control_c, 0, 64, 90
1, 182169, Control_c, 0, 64, 94
1, 182184, Control_c, 0, 64, 99
1, 182198, Control_c, 0, 64, 109
1, 182213, Control_c, 0, 64, 127
1, 182241, Note_off_c, 0, 70, 61
1, 182294, Note_on_c, 0, 69, 102
1, 182297, Note_on_c, 0, 57, 98
1, 182331, Control_c, 0, 64, 77
1, 182346, Control_c, 0, 64, 44
1, 182361, Control_c, 0, 64, 0
1, 182362, Note_on_c, 0, 58, 102
1, 182362, Note_on_c, 0, 70, 99
1, 182370, Note_off_c, 0, 57, 63
1, 182373, Note_off_c, 0, 69, 38
1, 182390, Control_c, 0, 64, 45
1, 182406, Control_c, 0, 64, 64
1, 182421, Control_c, 0, 64, 74
1, 182436, Control_c, 0, 64, 82
1, 182451, Control_c, 0, 64, 83
1, 182466, Control_c, 0, 64, 85
1, 182481, Control_c, 0, 64, 89
1, 182495, Control_c, 0, 64, 97
1, 182510, Control_c, 0, 64, 117
1, 182525, Control_c, 0, 64, 127
1, 182575, Note_off_c, 0, 70, 62
1, 182622, Note_on_c, 0, 57, 89
1, 182622, Note_on_c, 0, 69, 102
1, 182636, Control_c, 0, 64, 104
1, 182644, Note_off_c, 0, 58, 57
1, 182651, Control_c, 0, 64, 66
1, 182666, Control_c, 0, 64, 0
1, 182700, Note_on_c, 0, 56, 103
1, 182701, Note_on_c, 0, 68, 102
1, 182707, Note_off_c, 0, 57, 67
1, 182710, Note_off_c, 0, 69, 61
1, 182710, Control_c, 0, 64, 55
1, 182725, Control_c, 0, 64, 77
1, 182734, Note_off_c, 0, 56, 66
1, 182737, Note_off_c, 0, 68, 69
1, 182739, Control_c, 0, 64, 101
1, 182754, Control_c, 0, 64, 127
1, 182943, Poly_aftertouch_c, 0, 78, 0
1, 182962, Note_on_c, 0, 71, 96
1, 182963, Note_on_c, 0, 27, 102
1, 182965, Note_on_c, 0, 83, 87
1, 182965, Note_on_c, 0, 75, 101
1, 182966, Note_on_c, 0, 39, 98
1, 182967, Note_on_c, 0, 81, 83
1, 182969, Note_on_c, 0, 69, 86
1, 182980, Note_off_c, 0, 83, 75
1, 182980, Note_off_c, 0, 71, 69
1, 182984, Note_off_c, 0, 75, 69
1, 182984, Note_off_c, 0, 81, 74
1, 182988, Note_off_c, 0, 69, 71
1, 182990, Note_off_c, 0, 39, 70
1, 182991, Note_off_c, 0, 27, 68
1, 183094, Control_c, 0, 64, 88
1, 183106, Note_on_c, 0, 70, 100
1, 183108, Note_on_c, 0, 58, 99
1, 183109, Control_c, 0, 64, 58
1, 183114, Note_on_c, 0, 30, 98
1, 183114, Note_on_c, 0, 42, 103
1, 183124, Control_c, 0, 64, 0
1, 183150, Note_on_c, 0, 71, 42
1, 183168, Control_c, 0, 64, 40
1, 183183, Control_c, 0, 64, 61
1, 183186, Note_off_c, 0, 71, 48
1, 183198, Control_c, 0, 64, 66
1, 183214, Control_c, 0, 64, 69
1, 183221, Note_off_c, 0, 30, 62
1, 183229, Control_c, 0, 64, 70
1, 183239, Note_off_c, 0, 42, 62
1, 183243, Control_c, 0, 64, 71
1, 183258, Control_c, 0, 64, 73
1, 183273, Control_c, 0, 64, 77
1, 183288, Control_c, 0, 64, 81
1, 183303, Control_c, 0, 64, 84
1, 183317, Control_c, 0, 64, 89
1, 183340, Control_c, 0, 64, 96
1, 183355, Control_c, 0, 64, 98
1, 183358, Note_on_c, 0, 45, 93
1, 183364, Note_on_c, 0, 33, 82
1, 183384, Note_off_c, 0, 45, 65
1, 183384, Control_c, 0, 64, 86
1, 183386, Note_off_c, 0, 58, 59
1, 183394, Note_off_c, 0, 33, 63
1, 183399, Control_c, 0, 64, 66
1, 183414, Control_c, 0, 64, 42
1, 183429, Control_c, 0, 64, 34
1, 183436, Note_on_c, 0, 47, 104
1, 183438, Note_on_c, 0, 35, 97
1, 183443, Control_c, 0, 64, 49
1, 183458, Control_c, 0, 64, 65
1, 183473, Control_c, 0, 64, 78
1, 183484, Note_off_c, 0, 35, 65
1, 183488, Control_c, 0, 64, 94
1, 183495, Note_off_c, 0, 47, 61
1, 183503, Control_c, 0, 64, 99
1, 183592, Control_c, 0, 64, 101
1, 183607, Control_c, 0, 64, 103
1, 183623, Note_off_c, 0, 70, 61
1, 183636, Control_c, 0, 64, 107
1, 183651, Control_c, 0, 64, 111
1, 183666, Control_c, 0, 64, 119
1, 183681, Control_c, 0, 64, 127
1, 183698, Note_on_c, 0, 69, 101
1, 183698, Note_on_c, 0, 57, 94
1, 183725, Control_c, 0, 64, 110
1, 183735, Note_off_c, 0, 69, 66
1, 183740, Control_c, 0, 64, 73
1, 183755, Control_c, 0, 64, 42
1, 183763, Note_on_c, 0, 59, 100
1, 183764, Note_on_c, 0, 71, 99
1, 183769, Note_off_c, 0, 57, 59
1, 183769, Control_c, 0, 64, 0
1, 183814, Control_c, 0, 64, 52
1, 183829, Control_c, 0, 64, 65
1, 183844, Control_c, 0, 64, 69
1, 183859, Control_c, 0, 64, 71
1, 183874, Control_c, 0, 64, 73
1, 183888, Control_c, 0, 64, 75
1, 183903, Control_c, 0, 64, 78
1, 183918, Control_c, 0, 64, 83
1, 183933, Control_c, 0, 64, 90
1, 183948, Control_c, 0, 64, 100
1, 183962, Control_c, 0, 64, 114
1, 183977, Control_c, 0, 64, 127
1, 184006, Note_off_c, 0, 71, 61
1, 184020, Note_off_c, 0, 59, 59
1, 184035, Note_on_c, 0, 58, 89
1, 184035, Note_on_c, 0, 70, 99
1, 184038, Control_c, 0, 64, 114
1, 184053, Control_c, 0, 64, 74
1, 184067, Control_c, 0, 64, 52
1, 184089, Control_c, 0, 64, 39
1, 184104, Control_c, 0, 64, 48
1, 184112, Note_on_c, 0, 57, 91
1, 184119, Note_on_c, 0, 69, 99
1, 184119, Control_c, 0, 64, 62
1, 184130, Note_off_c, 0, 58, 61
1, 184132, Note_off_c, 0, 70, 66
1, 184134, Control_c, 0, 64, 74
1, 184148, Note_off_c, 0, 57, 65
1, 184148, Control_c, 0, 64, 90
1, 184163, Control_c, 0, 64, 102
1, 184182, Note_off_c, 0, 69, 58
1, 184297, Control_c, 0, 64, 105
1, 184326, Control_c, 0, 64, 107
1, 184341, Control_c, 0, 64, 110
1, 184356, Control_c, 0, 64, 118
1, 184371, Control_c, 0, 64, 127
1, 184421, Note_on_c, 0, 64, 108
1, 184426, Note_on_c, 0, 76, 98
1, 184428, Note_on_c, 0, 44, 99
1, 184430, Note_on_c, 0, 32, 98
1, 184441, Note_off_c, 0, 76, 77
1, 184455, Note_off_c, 0, 32, 68
1, 184461, Note_off_c, 0, 44, 63
1, 184470, Note_off_c, 0, 64, 63
1, 184489, Control_c, 0, 64, 77
1, 184503, Control_c, 0, 64, 47
1, 184512, Note_on_c, 0, 63, 109
1, 184518, Control_c, 0, 64, 0
1, 184521, Note_on_c, 0, 35, 98
1, 184521, Note_on_c, 0, 47, 100
1, 184563, Control_c, 0, 64, 42
1, 184577, Control_c, 0, 64, 62
1, 184592, Control_c, 0, 64, 66
1, 184597, Note_off_c, 0, 35, 64
1, 184601, Note_off_c, 0, 47, 63
1, 184607, Control_c, 0, 64, 68
1, 184622, Control_c, 0, 64, 68
1, 184637, Control_c, 0, 64, 69
1, 184652, Control_c, 0, 64, 70
1, 184667, Control_c, 0, 64, 72
1, 184682, Control_c, 0, 64, 74
1, 184697, Control_c, 0, 64, 76
1, 184711, Control_c, 0, 64, 78
1, 184726, Control_c, 0, 64, 79
1, 184741, Control_c, 0, 64, 81
1, 184756, Control_c, 0, 64, 82
1, 184771, Control_c, 0, 64, 83
1, 184795, Note_on_c, 0, 50, 91
1, 184798, Note_on_c, 0, 59, 90
1, 184800, Control_c, 0, 64, 82
1, 184803, Note_on_c, 0, 38, 84
1, 184816, Control_c, 0, 64, 73
1, 184822, Note_off_c, 0, 50, 67
1, 184838, Control_c, 0, 64, 54
1, 184840, Note_off_c, 0, 38, 65
1, 184853, Control_c, 0, 64, 0
1, 184876, Note_on_c, 0, 52, 102
1, 184878, Note_on_c, 0, 40, 89
1, 184878, Note_on_c, 0, 58, 99
1, 184893, Note_off_c, 0, 59, 61
1, 184912, Control_c, 0, 64, 37
1, 184927, Control_c, 0, 64, 61
1, 184932, Note_off_c, 0, 58, 66
1, 184938, Note_off_c, 0, 63, 64
1, 184941, Control_c, 0, 64, 64
1, 184971, Control_c, 0, 64, 65
1, 184986, Control_c, 0, 64, 67
1, 185001, Control_c, 0, 64, 70
1, 185015, Control_c, 0, 64, 75
1, 185030, Control_c, 0, 64, 81
1, 185045, Control_c, 0, 64, 88
1, 185060, Control_c, 0, 64, 93
1, 185090, Control_c, 0, 64, 88
1, 185105, Control_c, 0, 64, 71
1, 185109, Note_on_c, 0, 62, 108
1, 185120, Note_on_c, 0, 74, 71
1, 185120, Control_c, 0, 64, 54
1, 185123, Note_on_c, 0, 72, 74
1, 185134, Control_c, 0, 64, 45
1, 185136, Note_off_c, 0, 74, 67
1, 185145, Note_off_c, 0, 72, 69
1, 185149, Control_c, 0, 64, 51
1, 185156, Note_off_c, 0, 62, 66
1, 185164, Control_c, 0, 64, 60
1, 185179, Control_c, 0, 64, 70
1, 185190, Note_on_c, 0, 61, 99
1, 185194, Control_c, 0, 64, 78
1, 185200, Note_off_c, 0, 52, 61
1, 185208, Control_c, 0, 64, 82
1, 185223, Control_c, 0, 64, 83
1, 185225, Note_off_c, 0, 40, 64
1, 185297, Control_c, 0, 64, 83
1, 185327, Control_c, 0, 64, 84
1, 185341, Control_c, 0, 64, 85
1, 185356, Control_c, 0, 64, 87
1, 185371, Control_c, 0, 64, 89
1, 185386, Control_c, 0, 64, 91
1, 185401, Control_c, 0, 64, 92
1, 185415, Note_on_c, 0, 44, 88
1, 185415, Control_c, 0, 64, 91
1, 185417, Note_on_c, 0, 32, 89
1, 185418, Note_on_c, 0, 57, 85
1, 185430, Control_c, 0, 64, 80
1, 185441, Note_off_c, 0, 44, 71
1, 185442, Note_off_c, 0, 32, 65
1, 185445, Control_c, 0, 64, 61
1, 185460, Control_c, 0, 64, 0
1, 185491, Note_on_c, 0, 56, 99
1, 185495, Note_on_c, 0, 35, 90
1, 185495, Note_on_c, 0, 47, 95
1, 185504, Control_c, 0, 64, 30
1, 185518, Note_off_c, 0, 57, 60
1, 185519, Control_c, 0, 64, 57
1, 185525, Note_off_c, 0, 35, 68
1, 185526, Note_off_c, 0, 47, 67
1, 185534, Control_c, 0, 64, 67
1, 185549, Control_c, 0, 64, 71
1, 185564, Control_c, 0, 64, 73
1, 185586, Control_c, 0, 64, 74
1, 185604, Note_off_c, 0, 61, 58
1, 185617, Control_c, 0, 64, 74
1, 185631, Control_c, 0, 64, 76
1, 185635, Note_off_c, 0, 56, 58
1, 185646, Control_c, 0, 64, 79
1, 185661, Control_c, 0, 64, 82
1, 185676, Control_c, 0, 64, 86
1, 185691, Control_c, 0, 64, 90
1, 185706, Control_c, 0, 64, 94
1, 185720, Control_c, 0, 64, 96
1, 185744, Note_on_c, 0, 50, 94
1, 185746, Note_on_c, 0, 60, 101
1, 185750, Note_on_c, 0, 38, 88
1, 185750, Control_c, 0, 64, 94
1, 185764, Control_c, 0, 64, 77
1, 185770, Note_off_c, 0, 50, 65
1, 185778, Note_off_c, 0, 38, 65
1, 185779, Control_c, 0, 64, 53
1, 185794, Control_c, 0, 64, 0
1, 185814, Note_off_c, 0, 60, 0
1, 185831, Note_on_c, 0, 52, 102
1, 185834, Note_on_c, 0, 40, 90
1, 185836, Note_on_c, 0, 59, 98
1, 185842, Poly_aftertouch_c, 0, 60, 0
1, 185868, Control_c, 0, 66, 127
1, 185915, Note_off_c, 0, 59, 61
1, 185954, Note_on_c, 0, 58, 86
1, 185957, Control_c, 0, 64, 46
1, 185961, Note_on_c, 0, 56, 89
1, 185966, Note_off_c, 0, 40, 61
1, 185970, Note_off_c, 0, 52, 60
1, 185972, Control_c, 0, 64, 54
1, 185987, Control_c, 0, 64, 56
1, 186002, Control_c, 0, 64, 59
1, 186014, Note_off_c, 0, 58, 62
1, 186017, Control_c, 0, 64, 62
1, 186023, Note_off_c, 0, 56, 58
1, 186031, Control_c, 0, 64, 64
1, 186046, Note_on_c, 0, 55, 90
1, 186046, Control_c, 0, 64, 64
1, 186061, Control_c, 0, 64, 65
1, 186090, Control_c, 0, 64, 64
1, 186101, Note_off_c, 0, 55, 65
1, 186105, Control_c, 0, 64, 64
1, 186120, Control_c, 0, 64, 62
1, 186135, Control_c, 0, 64, 58
1, 186150, Control_c, 0, 64, 52
1, 186157, Note_on_c, 0, 57, 92
1, 186157, Note_on_c, 0, 59, 90
1, 186164, Control_c, 0, 64, 48
1, 186179, Control_c, 0, 64, 47
1, 186206, Note_on_c, 0, 58, 89
1, 186211, Note_off_c, 0, 59, 66
1, 186212, Note_off_c, 0, 57, 66
1, 186238, Note_off_c, 0, 58, 61
1, 186253, Control_c, 0, 64, 48
1, 186268, Control_c, 0, 64, 49
1, 186282, Control_c, 0, 64, 52
1, 186283, Note_on_c, 0, 57, 87
1, 186290, Note_on_c, 0, 55, 84
1, 186297, Control_c, 0, 64, 54
1, 186312, Control_c, 0, 64, 54
1, 186322, Note_off_c, 0, 55, 66
1, 186324, Note_off_c, 0, 57, 63
1, 186335, Control_c, 0, 64, 55
1, 186341, Note_on_c, 0, 56, 85
1, 186364, Control_c, 0, 64, 55
1, 186379, Control_c, 0, 64, 56
1, 186382, Note_off_c, 0, 56, 62
1, 186394, Control_c, 0, 64, 57
1, 186408, Note_on_c, 0, 55, 100
1, 186409, Note_on_c, 0, 53, 88
1, 186410, Control_c, 0, 64, 59
1, 186425, Control_c, 0, 64, 60
1, 186439, Note_off_c, 0, 53, 66
1, 186449, Note_off_c, 0, 55, 63
1, 186463, Note_on_c, 0, 54, 88
1, 186505, Note_off_c, 0, 54, 65
1, 186524, Note_on_c, 0, 57, 94
1, 186530, Note_on_c, 0, 55, 94
1, 186558, Control_c, 0, 64, 60
1, 186561, Note_off_c, 0, 55, 64
1, 186577, Note_off_c, 0, 57, 65
1, 186589, Note_on_c, 0, 56, 90
1, 186628, Note_off_c, 0, 56, 59
1, 186639, Note_on_c, 0, 54, 13
1, 186654, Note_on_c, 0, 55, 102
1, 186655, Note_on_c, 0, 53, 90
1, 186685, Note_off_c, 0, 54, 28
1, 186689, Note_off_c, 0, 53, 63
1, 186691, Control_c, 0, 64, 60
1, 186696, Note_off_c, 0, 55, 65
1, 186734, Note_on_c, 0, 54, 88
1, 186750, Control_c, 0, 64, 61
1, 186765, Control_c, 0, 64, 62
1, 186771, Note_on_c, 0, 53, 92
1, 186776, Note_on_c, 0, 51, 90
1, 186780, Control_c, 0, 64, 63
1, 186791, Note_off_c, 0, 54, 65
1, 186795, Control_c, 0, 64, 64
1, 186798, Note_off_c, 0, 51, 70
1, 186810, Control_c, 0, 64, 65
1, 186812, Note_off_c, 0, 53, 66
1, 186825, Control_c, 0, 64, 67
1, 186840, Control_c, 0, 64, 68
1, 186854, Control_c, 0, 64, 70
1, 186866, Note_on_c, 0, 52, 96
1, 186869, Control_c, 0, 64, 72
1, 186869, Control_c, 0, 66, 0
1, 186884, Control_c, 0, 64, 76
1, 186899, Control_c, 0, 64, 79
1, 186904, Note_off_c, 0, 52, 66
1, 186913, Control_c, 0, 64, 81
1, 186928, Control_c, 0, 64, 81
1, 186943, Control_c, 0, 64, 82
1, 186958, Control_c, 0, 64, 82
1, 186987, Control_c, 0, 64, 81
1, 187002, Control_c, 0, 64, 71
1, 187017, Control_c, 0, 64, 46
1, 187032, Control_c, 0, 64, 0
1, 187045, Note_on_c, 0, 71, 112
1, 187045, Note_on_c, 0, 83, 104
1, 187047, Note_on_c, 0, 75, 111
1, 187048, Note_on_c, 0, 78, 99
1, 187051, Note_on_c, 0, 66, 89
1, 187055, Note_on_c, 0, 59, 58
1, 187059, Note_on_c, 0, 63, 94
1, 187113, Control_c, 0, 66, 127
1, 187143, Control_c, 0, 64, 66
1, 187146, Note_off_c, 0, 83, 61
1, 187149, Note_off_c, 0, 66, 65
1, 187158, Control_c, 0, 64, 86
1, 187171, Note_off_c, 0, 63, 65
1, 187173, Control_c, 0, 64, 96
1, 187177, Note_off_c, 0, 59, 65
1, 187186, Note_off_c, 0, 78, 57
1, 187186, Note_off_c, 0, 71, 60
1, 187191, Note_off_c, 0, 75, 58
1, 187203, Control_c, 0, 64, 105
1, 187218, Control_c, 0, 64, 115
1, 187233, Control_c, 0, 64, 127
1, 187441, Note_on_c, 0, 59, 101
1, 187443, Note_on_c, 0, 27, 95
1, 187446, Note_on_c, 0, 39, 85
1, 187469, Note_off_c, 0, 27, 67
1, 187475, Note_off_c, 0, 39, 64
1, 187484, Note_off_c, 0, 59, 68
1, 187484, Control_c, 0, 64, 89
1, 187499, Control_c, 0, 64, 63
1, 187513, Note_on_c, 0, 30, 86
1, 187513, Note_on_c, 0, 58, 106
1, 187513, Note_on_c, 0, 42, 99
1, 187514, Control_c, 0, 64, 0
1, 187548, Note_on_c, 0, 29, 53
1, 187573, Note_off_c, 0, 42, 63
1, 187573, Control_c, 0, 64, 36
1, 187587, Note_off_c, 0, 29, 55
1, 187588, Control_c, 0, 64, 60
1, 187592, Note_off_c, 0, 30, 61
1, 187603, Control_c, 0, 64, 65
1, 187618, Control_c, 0, 64, 67
1, 187633, Control_c, 0, 64, 69
1, 187648, Control_c, 0, 64, 71
1, 187663, Control_c, 0, 64, 74
1, 187677, Control_c, 0, 64, 78
1, 187692, Control_c, 0, 64, 82
1, 187707, Control_c, 0, 64, 86
1, 187722, Control_c, 0, 64, 92
1, 187736, Control_c, 0, 64, 96
1, 187751, Control_c, 0, 64, 100
1, 187778, Note_on_c, 0, 33, 91
1, 187778, Note_on_c, 0, 45, 90
1, 187796, Control_c, 0, 64, 86
1, 187804, Note_off_c, 0, 45, 66
1, 187807, Note_off_c, 0, 33, 65
1, 187810, Control_c, 0, 64, 63
1, 187832, Control_c, 0, 64, 0
1, 187859, Note_off_c, 0, 58, 65
1, 187866, Note_on_c, 0, 47, 104
1, 187870, Note_on_c, 0, 35, 97
1, 187892, Control_c, 0, 64, 55
1, 187903, Note_off_c, 0, 35, 64
1, 187907, Control_c, 0, 64, 70
1, 187922, Control_c, 0, 64, 77
1, 187925, Note_off_c, 0, 47, 66
1, 187936, Control_c, 0, 64, 82
1, 187966, Control_c, 0, 64, 82
1, 187981, Control_c, 0, 64, 83
1, 187996, Control_c, 0, 64, 84
1, 188011, Control_c, 0, 64, 87
1, 188026, Control_c, 0, 64, 90
1, 188041, Control_c, 0, 64, 93
1, 188056, Control_c, 0, 64, 95
1, 188071, Control_c, 0, 64, 98
1, 188086, Control_c, 0, 64, 101
1, 188101, Control_c, 0, 64, 103
1, 188120, Note_on_c, 0, 69, 91
1, 188124, Note_on_c, 0, 57, 92
1, 188145, Control_c, 0, 64, 100
1, 188159, Control_c, 0, 64, 81
1, 188160, Note_off_c, 0, 69, 66
1, 188174, Control_c, 0, 64, 58
1, 188188, Note_off_c, 0, 57, 64
1, 188189, Control_c, 0, 64, 0
1, 188203, Note_on_c, 0, 78, 66
1, 188205, Note_on_c, 0, 70, 102
1, 188205, Note_on_c, 0, 82, 98
1, 188205, Note_on_c, 0, 75, 99
1, 188211, Note_on_c, 0, 58, 70
1, 188214, Note_on_c, 0, 63, 86
1, 188216, Note_on_c, 0, 66, 96
1, 188248, Control_c, 0, 64, 41
1, 188263, Control_c, 0, 64, 61
1, 188277, Control_c, 0, 64, 67
1, 188292, Control_c, 0, 64, 71
1, 188307, Control_c, 0, 64, 73
1, 188322, Control_c, 0, 64, 77
1, 188337, Control_c, 0, 64, 83
1, 188351, Control_c, 0, 64, 93
1, 188366, Control_c, 0, 64, 107
1, 188374, Note_off_c, 0, 82, 56
1, 188381, Note_off_c, 0, 70, 57
1, 188381, Control_c, 0, 64, 127
1, 188396, Note_off_c, 0, 78, 59
1, 188397, Note_off_c, 0, 58, 61
1, 188398, Note_off_c, 0, 66, 60
1, 188406, Note_off_c, 0, 75, 60
1, 188462, Note_off_c, 0, 63, 63
1, 188467, Note_on_c, 0, 57, 81
1, 188470, Note_on_c, 0, 69, 92
1, 188525, Note_off_c, 0, 57, 65
1, 188528, Note_off_c, 0, 69, 61
1, 188541, Note_on_c, 0, 56, 100
1, 188546, Note_on_c, 0, 68, 100
1, 188581, Note_off_c, 0, 56, 67
1, 188593, Note_off_c, 0, 68, 66
1, 188626, Control_c, 0, 66, 0
1, 188814, Note_on_c, 0, 59, 87
1, 188818, Note_on_c, 0, 27, 94
1, 188818, Note_on_c, 0, 39, 92
1, 188843, Note_off_c, 0, 39, 69
1, 188846, Note_off_c, 0, 27, 64
1, 188858, Note_off_c, 0, 59, 66
1, 188894, Control_c, 0, 64, 80
1, 188894, Note_on_c, 0, 71, 49
1, 188907, Note_on_c, 0, 63, 89
1, 188908, Note_on_c, 0, 42, 100
1, 188908, Control_c, 0, 64, 47
1, 188909, Note_on_c, 0, 30, 96
1, 188917, Note_on_c, 0, 66, 77
1, 188921, Note_on_c, 0, 59, 74
1, 188923, Control_c, 0, 64, 0
1, 188930, Note_on_c, 0, 60, 50
1, 188968, Control_c, 0, 64, 46
1, 188974, Note_off_c, 0, 30, 61
1, 188977, Note_off_c, 0, 42, 61
1, 188982, Control_c, 0, 64, 63
1, 188983, Note_off_c, 0, 60, 41
1, 188997, Control_c, 0, 64, 68
1, 189012, Control_c, 0, 64, 73
1, 189027, Control_c, 0, 64, 75
1, 189042, Control_c, 0, 64, 77
1, 189046, Note_off_c, 0, 59, 57
1, 189056, Control_c, 0, 64, 80
1, 189071, Control_c, 0, 64, 83
1, 189086, Control_c, 0, 64, 86
1, 189100, Control_c, 0, 64, 90
1, 189115, Control_c, 0, 64, 94
1, 189130, Control_c, 0, 64, 100
1, 189145, Control_c, 0, 64, 108
1, 189160, Control_c, 0, 64, 117
1, 189167, Note_on_c, 0, 45, 95
1, 189171, Note_on_c, 0, 33, 89
1, 189174, Control_c, 0, 64, 127
1, 189196, Note_off_c, 0, 45, 62
1, 189197, Note_off_c, 0, 33, 67
1, 189204, Control_c, 0, 64, 112
1, 189219, Control_c, 0, 64, 79
1, 189234, Control_c, 0, 64, 48
1, 189248, Note_on_c, 0, 47, 101
1, 189248, Control_c, 0, 64, 0
1, 189251, Note_on_c, 0, 35, 94
1, 189260, Note_off_c, 0, 63, 44
1, 189308, Control_c, 0, 64, 57
1, 189330, Control_c, 0, 64, 68
1, 189345, Control_c, 0, 64, 70
1, 189360, Control_c, 0, 64, 71
1, 189375, Note_off_c, 0, 66, 50
1, 189375, Control_c, 0, 64, 72
1, 189389, Note_off_c, 0, 71, 60
1, 189389, Control_c, 0, 64, 74
1, 189404, Control_c, 0, 64, 77
1, 189419, Control_c, 0, 64, 80
1, 189434, Control_c, 0, 64, 84
1, 189448, Control_c, 0, 64, 89
1, 189463, Control_c, 0, 64, 96
1, 189478, Control_c, 0, 64, 102
1, 189493, Control_c, 0, 64, 108
1, 189507, Note_on_c, 0, 57, 90
1, 189508, Control_c, 0, 64, 116
1, 189523, Control_c, 0, 64, 127
1, 189552, Control_c, 0, 64, 124
1, 189554, Note_off_c, 0, 57, 63
1, 189567, Control_c, 0, 64, 86
1, 189582, Control_c, 0, 64, 58
1, 189595, Note_on_c, 0, 70, 97
1, 189597, Control_c, 0, 64, 0
1, 189597, Note_on_c, 0, 59, 97
1, 189604, Note_on_c, 0, 63, 82
1, 189610, Note_on_c, 0, 66, 82
1, 189657, Control_c, 0, 64, 39
1, 189672, Control_c, 0, 64, 67
1, 189687, Control_c, 0, 64, 75
1, 189701, Control_c, 0, 64, 86
1, 189704, Note_off_c, 0, 66, 64
1, 189716, Note_off_c, 0, 70, 61
1, 189716, Control_c, 0, 64, 91
1, 189719, Note_off_c, 0, 63, 61
1, 189731, Control_c, 0, 64, 97
1, 189746, Control_c, 0, 64, 105
1, 189761, Control_c, 0, 64, 127
1, 189830, Note_off_c, 0, 59, 62
1, 189889, Note_on_c, 0, 58, 98
1, 189894, Control_c, 0, 64, 95
1, 189909, Control_c, 0, 64, 56
1, 189923, Control_c, 0, 64, 0
1, 189933, Note_off_c, 0, 58, 65
1, 189965, Note_on_c, 0, 57, 105
1, 189965, Note_off_c, 0, 35, 63
1, 189968, Control_c, 0, 64, 37
1, 189983, Control_c, 0, 64, 62
1, 189995, Note_off_c, 0, 47, 67
1, 189997, Control_c, 0, 64, 73
1, 190001, Note_off_c, 0, 57, 67
1, 190012, Control_c, 0, 64, 83
1, 190027, Control_c, 0, 64, 95
1, 190042, Control_c, 0, 64, 116
1, 190057, Control_c, 0, 64, 127
1, 190257, Control_c, 0, 64, 82
1, 190270, Note_on_c, 0, 76, 90
1, 190271, Note_on_c, 0, 87, 98
1, 190272, Control_c, 0, 64, 43
1, 190273, Note_on_c, 0, 75, 99
1, 190284, Note_on_c, 0, 64, 66
1, 190286, Note_on_c, 0, 70, 84
1, 190287, Control_c, 0, 64, 0
1, 190301, Note_off_c, 0, 75, 66
1, 190302, Note_on_c, 0, 88, 64
1, 190303, Note_on_c, 0, 66, 64
1, 190304, Note_off_c, 0, 64, 65
1, 190312, Note_off_c, 0, 76, 66
1, 190322, Note_off_c, 0, 88, 63
1, 190326, Note_off_c, 0, 66, 65
1, 190326, Note_off_c, 0, 70, 63
1, 190331, Control_c, 0, 64, 55
1, 190336, Note_off_c, 0, 87, 61
1, 190346, Control_c, 0, 64, 76
1, 190354, Note_on_c, 0, 70, 71
1, 190355, Note_on_c, 0, 78, 107
1, 190356, Note_on_c, 0, 90, 97
1, 190360, Note_on_c, 0, 63, 83
1, 190361, Note_on_c, 0, 66, 75
1, 190361, Control_c, 0, 64, 108
1, 190365, Note_on_c, 0, 75, 79
1, 190376, Control_c, 0, 64, 127
1, 190379, Note_off_c, 0, 75, 68
1, 190381, Note_off_c, 0, 63, 71
1, 190385, Note_off_c, 0, 66, 67
1, 190387, Note_off_c, 0, 70, 66
1, 190391, Note_off_c, 0, 78, 68
1, 190394, Note_off_c, 0, 90, 67
1, 190786, Note_on_c, 0, 51, 102
1, 190795, Note_on_c, 0, 27, 105
1, 190796, Note_on_c, 0, 39, 108
1, 190816, Note_off_c, 0, 51, 68
1, 190826, Note_off_c, 0, 27, 66
1, 190828, Note_off_c, 0, 39, 68
1, 190913, Note_on_c, 0, 27, 10
1, 190932, Note_off_c, 0, 27, 64
1, 191083, Note_on_c, 0, 70, 98
1, 191084, Note_on_c, 0, 66, 81
1, 191084, Note_on_c, 0, 82, 97
1, 191089, Note_on_c, 0, 61, 65
1, 191104, Note_on_c, 0, 73, 74
1, 191114, Note_off_c, 0, 70, 64
1, 191123, Note_on_c, 0, 63, 30
1, 191126, Note_off_c, 0, 73, 69
1, 191128, Note_off_c, 0, 82, 60
1, 191139, Note_off_c, 0, 66, 63
1, 191157, Note_off_c, 0, 63, 45
1, 191163, Note_on_c, 0, 86, 98
1, 191164, Note_on_c, 0, 74, 104
1, 191168, Note_on_c, 0, 66, 75
1, 191168, Note_on_c, 0, 72, 98
1, 191171, Note_on_c, 0, 60, 90
1, 191183, Note_off_c, 0, 61, 64
1, 191188, Note_off_c, 0, 72, 65
1, 191196, Note_off_c, 0, 86, 69
1, 191197, Note_off_c, 0, 74, 71
1, 191198, Note_off_c, 0, 60, 63
1, 191202, Note_off_c, 0, 66, 67
1, 191533, Note_on_c, 0, 39, 110
1, 191533, Note_on_c, 0, 51, 102
1, 191538, Note_on_c, 0, 27, 93
1, 191557, Note_off_c, 0, 51, 62
1, 191559, Note_off_c, 0, 27, 65
1, 191562, Note_off_c, 0, 39, 64
1, 191681, Note_on_c, 0, 27, 9
1, 191720, Note_off_c, 0, 27, 42
1, 191737, Note_on_c, 0, 63, 45
1, 191744, Note_on_c, 0, 66, 44
1, 191761, Note_off_c, 0, 63, 54
1, 191837, Note_off_c, 0, 66, 58
1, 191854, Note_on_c, 0, 63, 72
1, 191861, Note_on_c, 0, 99, 103
1, 191864, Note_on_c, 0, 87, 103
1, 191895, Note_on_c, 0, 70, 68
1, 191902, Note_on_c, 0, 68, 56
1, 191904, Note_off_c, 0, 87, 63
1, 191908, Note_on_c, 0, 65, 43
1, 191913, Note_off_c, 0, 99, 63
1, 191914, Note_on_c, 0, 64, 36
1, 191943, Note_on_c, 0, 98, 103
1, 191945, Note_on_c, 0, 74, 94
1, 191945, Note_on_c, 0, 86, 102
1, 192004, Note_off_c, 0, 64, 40
1, 192018, Note_off_c, 0, 63, 58
1, 192024, Note_off_c, 0, 65, 61
1, 192030, Note_off_c, 0, 68, 61
1, 192040, Note_off_c, 0, 70, 63
1, 192054, Poly_aftertouch_c, 0, 94, 0
1, 192074, Note_off_c, 0, 74, 59
1, 192080, Note_off_c, 0, 86, 62
1, 192091, Poly_aftertouch_c, 0, 94, 127
1, 192123, Note_off_c, 0, 98, 64
1, 192176, Poly_aftertouch_c, 0, 94, 0
1, 192244, Note_on_c, 0, 97, 98
1, 192245, Note_on_c, 0, 85, 97
1, 192252, Note_on_c, 0, 66, 82
1, 192255, Note_on_c, 0, 63, 75
1, 192255, Note_on_c, 0, 68, 72
1, 192256, Note_on_c, 0, 61, 68
1, 192291, Note_off_c, 0, 85, 63
1, 192300, Note_off_c, 0, 97, 64
1, 192340, Note_on_c, 0, 72, 100
1, 192342, Note_on_c, 0, 96, 98
1, 192346, Note_on_c, 0, 84, 104
1, 192372, Note_off_c, 0, 72, 69
1, 192377, Note_off_c, 0, 68, 64
1, 192377, Note_off_c, 0, 96, 70
1, 192381, Note_off_c, 0, 61, 62
1, 192384, Note_off_c, 0, 84, 67
1, 192384, Note_off_c, 0, 63, 62
1, 192398, Note_off_c, 0, 66, 63
1, 192690, Note_on_c, 0, 59, 99
1, 192724, Control_c, 0, 64, 76
1, 192739, Control_c, 0, 64, 51
1, 192754, Control_c, 0, 64, 0
1, 192784, Control_c, 0, 66, 127
1, 192785, Note_on_c, 0, 35, 91
1, 192814, Control_c, 0, 64, 35
1, 192829, Control_c, 0, 64, 57
1, 192844, Control_c, 0, 64, 66
1, 192859, Control_c, 0, 64, 71
1, 192873, Control_c, 0, 64, 77
1, 192882, Note_off_c, 0, 35, 62
1, 192888, Control_c, 0, 64, 80
1, 192894, Note_off_c, 0, 59, 63
1, 192903, Control_c, 0, 64, 82
1, 192918, Control_c, 0, 64, 84
1, 192933, Control_c, 0, 64, 85
1, 192948, Control_c, 0, 64, 85
1, 192963, Control_c, 0, 64, 86
1, 192992, Control_c, 0, 64, 86
1, 193037, Control_c, 0, 64, 85
1, 193043, Note_on_c, 0, 58, 102
1, 193052, Control_c, 0, 64, 76
1, 193073, Control_c, 0, 64, 63
1, 193074, Note_on_c, 0, 47, 62
1, 193076, Note_on_c, 0, 63, 79
1, 193088, Control_c, 0, 64, 39
1, 193103, Control_c, 0, 64, 0
1, 193252, Control_c, 0, 64, 36
1, 193261, Note_on_c, 0, 73, 77
1, 193267, Control_c, 0, 64, 46
1, 193268, Note_off_c, 0, 63, 61
1, 193281, Control_c, 0, 64, 55
1, 193296, Control_c, 0, 64, 61
1, 193311, Control_c, 0, 64, 63
1, 193316, Poly_aftertouch_c, 0, 53, 127
1, 193326, Control_c, 0, 64, 65
1, 193341, Control_c, 0, 64, 67
1, 193355, Control_c, 0, 64, 68
1, 193357, Note_on_c, 0, 68, 82
1, 193370, Control_c, 0, 64, 70
1, 193385, Control_c, 0, 64, 72
1, 193395, Note_off_c, 0, 73, 56
1, 193400, Control_c, 0, 64, 73
1, 193415, Control_c, 0, 64, 74
1, 193429, Control_c, 0, 64, 74
1, 193444, Control_c, 0, 64, 75
1, 193469, Note_on_c, 0, 66, 84
1, 193469, Note_off_c, 0, 68, 60
1, 193504, Control_c, 0, 64, 75
1, 193538, Note_off_c, 0, 58, 58
1, 193541, Note_off_c, 0, 66, 64
1, 193565, Note_on_c, 0, 76, 81
1, 193660, Note_on_c, 0, 71, 85
1, 193667, Note_off_c, 0, 47, 57
1, 193672, Note_off_c, 0, 76, 59
1, 193681, Poly_aftertouch_c, 0, 53, 0
1, 193693, Note_on_c, 0, 59, 84
1, 193744, Note_off_c, 0, 59, 62
1, 193759, Note_off_c, 0, 71, 62
1, 193770, Note_on_c, 0, 69, 81
1, 193771, Control_c, 0, 64, 75
1, 193777, Note_on_c, 0, 61, 92
1, 193786, Control_c, 0, 64, 70
1, 193801, Control_c, 0, 64, 60
1, 193824, Control_c, 0, 64, 43
1, 193839, Control_c, 0, 64, 0
1, 193848, Note_off_c, 0, 69, 61
1, 193883, Control_c, 0, 64, 39
1, 193887, Note_on_c, 0, 79, 74
1, 193897, Control_c, 0, 64, 50
1, 193912, Control_c, 0, 64, 57
1, 193927, Control_c, 0, 64, 60
1, 193942, Control_c, 0, 64, 62
1, 193957, Control_c, 0, 64, 64
1, 193971, Control_c, 0, 64, 65
1, 193986, Control_c, 0, 64, 66
1, 193987, Note_on_c, 0, 74, 84
1, 193990, Note_off_c, 0, 79, 61
1, 194001, Control_c, 0, 64, 67
1, 194016, Control_c, 0, 64, 68
1, 194031, Control_c, 0, 64, 68
1, 194039, Note_off_c, 0, 61, 64
1, 194039, Note_on_c, 0, 60, 78
1, 194071, Note_off_c, 0, 74, 62
1, 194090, Note_on_c, 0, 72, 81
1, 194090, Control_c, 0, 64, 66
1, 194104, Control_c, 0, 64, 58
1, 194107, Note_on_c, 0, 62, 90
1, 194119, Control_c, 0, 64, 36
1, 194134, Control_c, 0, 64, 0
1, 194140, Note_off_c, 0, 60, 65
1, 194164, Note_off_c, 0, 72, 62
1, 194222, Note_on_c, 0, 82, 78
1, 194223, Control_c, 0, 64, 34
1, 194238, Control_c, 0, 64, 42
1, 194253, Control_c, 0, 64, 50
1, 194268, Control_c, 0, 64, 55
1, 194283, Control_c, 0, 64, 58
1, 194297, Control_c, 0, 64, 60
1, 194312, Control_c, 0, 64, 61
1, 194319, Note_on_c, 0, 77, 76
1, 194327, Note_off_c, 0, 82, 59
1, 194327, Control_c, 0, 64, 62
1, 194342, Control_c, 0, 64, 63
1, 194357, Control_c, 0, 64, 64
1, 194365, Note_on_c, 0, 64, 88
1, 194370, Note_off_c, 0, 62, 65
1, 194371, Control_c, 0, 64, 64
1, 194412, Note_off_c, 0, 77, 63
1, 194422, Note_on_c, 0, 75, 75
1, 194444, Note_on_c, 0, 63, 93
1, 194447, Control_c, 0, 64, 61
1, 194453, Note_off_c, 0, 64, 66
1, 194462, Control_c, 0, 64, 49
1, 194476, Control_c, 0, 64, 0
1, 194530, Note_off_c, 0, 75, 61
1, 194553, Note_on_c, 0, 85, 78
1, 194587, Control_c, 0, 64, 33
1, 194602, Control_c, 0, 64, 40
1, 194617, Control_c, 0, 64, 48
1, 194632, Control_c, 0, 64, 55
1, 194646, Control_c, 0, 64, 59
1, 194661, Control_c, 0, 64, 61
1, 194674, Note_on_c, 0, 80, 79
1, 194676, Control_c, 0, 64, 61
1, 194691, Control_c, 0, 64, 62
1, 194694, Note_off_c, 0, 85, 59
1, 194706, Control_c, 0, 64, 62
1, 194720, Control_c, 0, 64, 63
1, 194765, Control_c, 0, 64, 63
1, 194787, Note_off_c, 0, 80, 63
1, 194790, Note_on_c, 0, 78, 74
1, 194809, Control_c, 0, 64, 64
1, 194881, Note_off_c, 0, 78, 58
1, 194900, Note_on_c, 0, 88, 82
1, 194998, Note_on_c, 0, 83, 82
1, 195015, Note_off_c, 0, 88, 58
1, 195030, Note_on_c, 0, 65, 78
1, 195061, Control_c, 0, 64, 63
1, 195076, Control_c, 0, 64, 60
1, 195091, Control_c, 0, 64, 53
1, 195095, Note_off_c, 0, 63, 57
1, 195103, Note_off_c, 0, 83, 64
1, 195106, Control_c, 0, 64, 45
1, 195109, Note_on_c, 0, 67, 89
1, 195112, Note_on_c, 0, 81, 77
1, 195120, Control_c, 0, 64, 36
1, 195130, Note_off_c, 0, 65, 59
1, 195135, Control_c, 0, 64, 32
1, 195165, Control_c, 0, 64, 35
1, 195180, Control_c, 0, 64, 41
1, 195195, Control_c, 0, 64, 46
1, 195210, Control_c, 0, 64, 51
1, 195225, Control_c, 0, 64, 55
1, 195233, Note_off_c, 0, 81, 60
1, 195240, Control_c, 0, 64, 57
1, 195255, Control_c, 0, 64, 58
1, 195255, Note_on_c, 0, 91, 74
1, 195269, Control_c, 0, 64, 58
1, 195284, Control_c, 0, 64, 59
1, 195299, Control_c, 0, 64, 59
1, 195321, Control_c, 0, 64, 60
1, 195336, Control_c, 0, 64, 61
1, 195350, Control_c, 0, 64, 61
1, 195364, Note_off_c, 0, 91, 61
1, 195365, Control_c, 0, 64, 62
1, 195371, Note_on_c, 0, 86, 79
1, 195423, Note_on_c, 0, 66, 86
1, 195425, Note_off_c, 0, 67, 65
1, 195425, Control_c, 0, 64, 61
1, 195440, Control_c, 0, 64, 57
1, 195455, Control_c, 0, 64, 45
1, 195468, Note_off_c, 0, 86, 65
1, 195469, Control_c, 0, 64, 0
1, 195485, Note_on_c, 0, 68, 86
1, 195485, Note_on_c, 0, 84, 82
1, 195512, Note_off_c, 0, 66, 64
1, 195558, Control_c, 0, 64, 38
1, 195573, Control_c, 0, 64, 53
1, 195588, Control_c, 0, 64, 62
1, 195603, Control_c, 0, 64, 65
1, 195617, Control_c, 0, 64, 66
1, 195632, Control_c, 0, 64, 67
1, 195647, Control_c, 0, 64, 69
1, 195659, Note_on_c, 0, 94, 81
1, 195662, Control_c, 0, 64, 71
1, 195676, Control_c, 0, 64, 73
1, 195682, Note_off_c, 0, 84, 64
1, 195691, Control_c, 0, 64, 74
1, 195697, Note_off_c, 0, 94, 59
1, 195706, Control_c, 0, 64, 75
1, 195721, Control_c, 0, 64, 75
1, 195735, Control_c, 0, 64, 76
1, 195750, Control_c, 0, 64, 77
1, 195765, Control_c, 0, 64, 77
1, 195780, Control_c, 0, 64, 78
1, 195795, Control_c, 0, 64, 78
1, 195809, Control_c, 0, 64, 79
1, 195824, Control_c, 0, 64, 79
1, 195854, Control_c, 0, 64, 80
1, 195904, Note_off_c, 0, 68, 64
1, 195905, Note_on_c, 0, 70, 93
1, 195911, Note_on_c, 0, 69, 87
1, 195929, Control_c, 0, 64, 78
1, 195943, Control_c, 0, 64, 71
1, 195958, Control_c, 0, 64, 62
1, 195970, Note_off_c, 0, 70, 63
1, 195972, Note_on_c, 0, 72, 78
1, 195973, Control_c, 0, 64, 49
1, 195975, Note_on_c, 0, 68, 79
1, 195976, Note_off_c, 0, 69, 59
1, 195988, Control_c, 0, 64, 34
1, 196003, Control_c, 0, 64, 0
1, 196114, Control_c, 0, 64, 28
1, 196203, Control_c, 0, 64, 0
1, 196293, Note_on_c, 0, 75, 73
1, 196301, Note_off_c, 0, 72, 63
1, 196358, Note_off_c, 0, 75, 64
1, 196359, Note_on_c, 0, 76, 72
1, 196382, Control_c, 0, 64, 34
1, 196397, Control_c, 0, 64, 47
1, 196411, Control_c, 0, 64, 58
1, 196426, Control_c, 0, 64, 62
1, 196441, Control_c, 0, 64, 63
1, 196456, Control_c, 0, 64, 64
1, 196471, Control_c, 0, 64, 65
1, 196471, Control_c, 0, 66, 0
1, 196486, Control_c, 0, 64, 66
1, 196515, Control_c, 0, 64, 66
1, 196572, Note_off_c, 0, 76, 54
1, 196619, Note_off_c, 0, 68, 62
1, 196635, Note_on_c, 0, 67, 73
1, 196647, Note_on_c, 0, 69, 75
1, 196648, Control_c, 0, 64, 65
1, 196663, Control_c, 0, 64, 61
1, 196678, Control_c, 0, 64, 51
1, 196692, Control_c, 0, 64, 34
1, 196698, Note_off_c, 0, 67, 48
1, 196701, Note_on_c, 0, 66, 71
1, 196707, Control_c, 0, 64, 0
1, 196708, Note_on_c, 0, 70, 74
1, 196712, Note_off_c, 0, 69, 61
1, 197021, Note_on_c, 0, 73, 64
1, 197034, Note_off_c, 0, 70, 57
1, 197083, Note_off_c, 0, 73, 63
1, 197096, Note_on_c, 0, 74, 70
1, 197100, Control_c, 0, 64, 34
1, 197115, Control_c, 0, 64, 47
1, 197130, Control_c, 0, 64, 58
1, 197145, Control_c, 0, 64, 62
1, 197160, Control_c, 0, 64, 63
1, 197175, Control_c, 0, 64, 64
1, 197189, Control_c, 0, 64, 64
1, 197204, Control_c, 0, 64, 65
1, 197219, Control_c, 0, 64, 65
1, 197248, Control_c, 0, 64, 66
1, 197278, Control_c, 0, 67, 43
1, 197293, Control_c, 0, 67, 57
1, 197308, Control_c, 0, 67, 74
1, 197322, Control_c, 0, 67, 92
1, 197337, Control_c, 0, 67, 107
1, 197349, Note_off_c, 0, 74, 57
1, 197352, Control_c, 0, 67, 122
1, 197367, Control_c, 0, 67, 127
1, 197370, Note_off_c, 0, 66, 60
1, 197381, Note_on_c, 0, 65, 63
1, 197382, Control_c, 0, 64, 65
1, 197391, Note_on_c, 0, 67, 72
1, 197396, Control_c, 0, 64, 62
1, 197411, Control_c, 0, 64, 56
1, 197421, Note_off_c, 0, 65, 56
1, 197426, Control_c, 0, 64, 43
1, 197440, Control_c, 0, 64, 0
1, 197442, Note_off_c, 0, 67, 51
1, 197463, Note_on_c, 0, 64, 51
1, 197466, Note_on_c, 0, 68, 60
1, 197768, Note_off_c, 0, 68, 63
1, 197783, Note_on_c, 0, 71, 50
1, 197826, Note_off_c, 0, 71, 63
1, 197849, Note_on_c, 0, 72, 58
1, 197849, Control_c, 0, 64, 39
1, 197863, Control_c, 0, 64, 51
1, 197878, Control_c, 0, 64, 59
1, 197893, Control_c, 0, 64, 62
1, 197908, Control_c, 0, 64, 63
1, 197923, Control_c, 0, 64, 64
1, 197938, Control_c, 0, 64, 65
1, 197953, Control_c, 0, 64, 66
1, 197967, Control_c, 0, 64, 67
1, 197982, Control_c, 0, 64, 68
1, 197991, Note_off_c, 0, 72, 60
1, 197997, Control_c, 0, 64, 69
1, 198027, Control_c, 0, 64, 69
1, 198116, Control_c, 0, 64, 69
1, 198128, Note_on_c, 0, 77, 89
1, 198131, Control_c, 0, 64, 63
1, 198134, Note_on_c, 0, 76, 72
1, 198142, Note_off_c, 0, 64, 62
1, 198145, Control_c, 0, 64, 53
1, 198158, Note_off_c, 0, 76, 64
1, 198160, Control_c, 0, 64, 42
1, 198175, Control_c, 0, 64, 38
1, 198189, Control_c, 0, 64, 39
1, 198204, Control_c, 0, 64, 46
1, 198205, Note_off_c, 0, 77, 60
1, 198213, Note_on_c, 0, 79, 60
1, 198219, Control_c, 0, 64, 54
1, 198233, Note_on_c, 0, 75, 44
1, 198234, Control_c, 0, 64, 59
1, 198249, Control_c, 0, 64, 62
1, 198263, Control_c, 0, 64, 63
1, 198278, Control_c, 0, 64, 63
1, 198293, Control_c, 0, 64, 64
1, 198331, Control_c, 0, 64, 64
1, 198345, Control_c, 0, 64, 65
1, 198375, Control_c, 0, 64, 65
1, 198391, Control_c, 0, 64, 66
1, 198398, Note_off_c, 0, 79, 62
1, 198406, Control_c, 0, 64, 66
1, 198421, Control_c, 0, 64, 67
1, 198450, Control_c, 0, 64, 67
1, 198494, Control_c, 0, 64, 67
1, 198509, Control_c, 0, 64, 64
1, 198510, Note_on_c, 0, 70, 72
1, 198512, Note_on_c, 0, 82, 76
1, 198524, Control_c, 0, 64, 56
1, 198539, Control_c, 0, 64, 44
1, 198554, Control_c, 0, 64, 34
1, 198561, Note_off_c, 0, 70, 61
1, 198568, Control_c, 0, 64, 29
1, 198593, Note_on_c, 0, 83, 60
1, 198593, Note_on_c, 0, 69, 63
1, 198593, Note_off_c, 0, 82, 58
1, 198598, Control_c, 0, 64, 36
1, 198612, Control_c, 0, 64, 44
1, 198627, Control_c, 0, 64, 51
1, 198642, Control_c, 0, 64, 56
1, 198657, Control_c, 0, 64, 58
1, 198672, Control_c, 0, 64, 59
1, 198686, Control_c, 0, 64, 59
1, 198701, Control_c, 0, 64, 60
1, 198716, Control_c, 0, 64, 61
1, 198731, Control_c, 0, 64, 62
1, 198734, Note_off_c, 0, 83, 57
1, 198746, Control_c, 0, 64, 63
1, 198760, Note_off_c, 0, 75, 56
1, 198760, Control_c, 0, 64, 63
1, 198775, Control_c, 0, 64, 64
1, 198835, Control_c, 0, 64, 63
1, 198850, Control_c, 0, 64, 59
1, 198865, Control_c, 0, 64, 49
1, 198868, Note_on_c, 0, 76, 77
1, 198871, Note_on_c, 0, 74, 68
1, 198880, Control_c, 0, 64, 37
1, 198894, Control_c, 0, 64, 0
1, 198900, Note_off_c, 0, 74, 63
1, 198924, Control_c, 0, 64, 30
1, 198937, Note_off_c, 0, 76, 58
1, 198939, Control_c, 0, 64, 39
1, 198947, Note_on_c, 0, 77, 62
1, 198954, Control_c, 0, 64, 50
1, 198968, Control_c, 0, 64, 57
1, 198983, Note_on_c, 0, 73, 32
1, 198983, Control_c, 0, 64, 61
1, 198998, Control_c, 0, 64, 62
1, 199012, Control_c, 0, 64, 63
1, 199042, Control_c, 0, 64, 63
1, 199064, Control_c, 0, 64, 64
1, 199094, Control_c, 0, 64, 65
1, 199109, Control_c, 0, 64, 65
1, 199124, Control_c, 0, 64, 66
1, 199130, Note_off_c, 0, 77, 62
1, 199154, Control_c, 0, 64, 66
1, 199183, Control_c, 0, 64, 67
1, 199232, Note_off_c, 0, 69, 55
1, 199253, Note_on_c, 0, 68, 56
1, 199258, Control_c, 0, 64, 64
1, 199264, Note_on_c, 0, 80, 63
1, 199273, Control_c, 0, 64, 57
1, 199288, Control_c, 0, 64, 44
1, 199303, Control_c, 0, 64, 30
1, 199305, Note_off_c, 0, 68, 52
1, 199317, Control_c, 0, 64, 0
1, 199343, Note_off_c, 0, 80, 59
1, 199347, Control_c, 0, 64, 37
1, 199354, Note_on_c, 0, 67, 49
1, 199360, Note_on_c, 0, 81, 55
1, 199362, Control_c, 0, 64, 48
1, 199377, Control_c, 0, 64, 56
1, 199391, Control_c, 0, 64, 60
1, 199406, Control_c, 0, 64, 62
1, 199421, Control_c, 0, 64, 62
1, 199450, Control_c, 0, 64, 63
1, 199465, Control_c, 0, 64, 63
1, 199474, Note_off_c, 0, 81, 60
1, 199480, Control_c, 0, 64, 64
1, 199495, Control_c, 0, 64, 64
1, 199509, Control_c, 0, 64, 65
1, 199524, Control_c, 0, 64, 65
1, 199539, Control_c, 0, 64, 66
1, 199562, Note_off_c, 0, 73, 59
1, 199569, Control_c, 0, 64, 66
1, 199598, Control_c, 0, 64, 67
1, 199640, Note_on_c, 0, 72, 63
1, 199642, Note_on_c, 0, 74, 74
1, 199643, Control_c, 0, 64, 66
1, 199658, Control_c, 0, 64, 64
1, 199667, Note_off_c, 0, 72, 57
1, 199673, Control_c, 0, 64, 54
1, 199687, Control_c, 0, 64, 41
1, 199694, Note_off_c, 0, 74, 49
1, 199702, Control_c, 0, 64, 29
1, 199717, Control_c, 0, 64, 0
1, 199731, Note_on_c, 0, 75, 61
1, 199732, Control_c, 0, 64, 34
1, 199747, Control_c, 0, 64, 45
1, 199747, Note_on_c, 0, 71, 46
1, 199762, Control_c, 0, 64, 56
1, 199777, Control_c, 0, 64, 61
1, 199791, Control_c, 0, 64, 63
1, 199813, Control_c, 0, 64, 64
1, 199842, Control_c, 0, 64, 64
1, 199857, Control_c, 0, 64, 65
1, 199860, Note_off_c, 0, 75, 54
1, 199872, Control_c, 0, 64, 65
1, 199887, Control_c, 0, 64, 66
1, 199902, Control_c, 0, 64, 66
1, 199961, Control_c, 0, 64, 67
1, 200022, Control_c, 0, 64, 67
1, 200060, Note_off_c, 0, 67, 57
1, 200082, Note_on_c, 0, 66, 56
1, 200083, Note_on_c, 0, 78, 57
1, 200095, Note_off_c, 0, 71, 56
1, 200126, Control_c, 0, 64, 65
1, 200141, Note_off_c, 0, 66, 49
1, 200141, Control_c, 0, 64, 59
1, 200150, Note_off_c, 0, 78, 53
1, 200155, Control_c, 0, 64, 45
1, 200170, Control_c, 0, 64, 0
1, 200182, Note_on_c, 0, 79, 53
1, 200213, Note_on_c, 0, 65, 36
1, 200230, Control_c, 0, 64, 41
1, 200245, Control_c, 0, 64, 54
1, 200259, Control_c, 0, 64, 63
1, 200274, Control_c, 0, 64, 67
1, 200289, Control_c, 0, 64, 69
1, 200304, Control_c, 0, 64, 72
1, 200319, Control_c, 0, 64, 75
1, 200333, Control_c, 0, 64, 78
1, 200333, Control_c, 0, 67, 117
1, 200348, Control_c, 0, 64, 82
1, 200348, Control_c, 0, 67, 96
1, 200358, Note_off_c, 0, 65, 42
1, 200363, Control_c, 0, 64, 85
1, 200363, Control_c, 0, 67, 77
1, 200372, Note_off_c, 0, 79, 61
1, 200378, Control_c, 0, 64, 88
1, 200378, Control_c, 0, 67, 59
1, 200393, Control_c, 0, 64, 90
1, 200393, Control_c, 0, 67, 41
1, 200407, Control_c, 0, 64, 92
1, 200407, Control_c, 0, 67, 0
1, 200422, Control_c, 0, 64, 93
1, 200437, Control_c, 0, 64, 94
1, 200451, Control_c, 0, 64, 95
1, 200466, Control_c, 0, 64, 96
1, 200592, Control_c, 0, 64, 98
1, 200658, Note_on_c, 0, 81, 95
1, 200658, Note_on_c, 0, 83, 103
1, 200707, Note_off_c, 0, 81, 57
1, 200784, Note_off_c, 0, 83, 62
1, 200816, Control_c, 0, 64, 90
1, 200818, Note_on_c, 0, 84, 102
1, 200819, Note_on_c, 0, 80, 105
1, 200823, Note_on_c, 0, 41, 109
1, 200824, Note_on_c, 0, 29, 103
1, 200831, Control_c, 0, 64, 67
1, 200845, Control_c, 0, 64, 0
1, 200907, Note_off_c, 0, 80, 66
1, 200919, Control_c, 0, 64, 44
1, 200927, Note_off_c, 0, 84, 70
1, 200934, Control_c, 0, 64, 92
1, 200936, Note_off_c, 0, 29, 65
1, 200943, Note_off_c, 0, 41, 69
1, 200949, Control_c, 0, 64, 127
1, 201094, Note_on_c, 0, 92, 112
1, 201096, Note_on_c, 0, 90, 104
1, 201240, Note_on_c, 0, 51, 98
1, 201251, Note_off_c, 0, 90, 60
1, 201257, Note_off_c, 0, 92, 63
1, 201301, Note_on_c, 0, 93, 106
1, 201313, Note_on_c, 0, 89, 106
1, 201321, Note_on_c, 0, 50, 26
1, 201348, Note_off_c, 0, 89, 65
1, 201362, Note_off_c, 0, 50, 54
1, 201362, Note_off_c, 0, 93, 65
1, 201512, Note_on_c, 0, 79, 95
1, 201512, Note_on_c, 0, 81, 107
1, 201595, Note_on_c, 0, 59, 96
1, 201602, Note_off_c, 0, 51, 61
1, 201616, Note_off_c, 0, 79, 57
1, 201627, Note_off_c, 0, 81, 63
1, 201665, Note_on_c, 0, 78, 100
1, 201666, Note_on_c, 0, 82, 95
1, 201694, Note_off_c, 0, 78, 67
1, 201711, Note_off_c, 0, 82, 67
1, 201817, Note_on_c, 0, 90, 110
1, 201819, Note_on_c, 0, 88, 105
1, 201898, Note_off_c, 0, 59, 63
1, 201904, Note_on_c, 0, 67, 95
1, 201919, Note_off_c, 0, 88, 60
1, 201934, Note_off_c, 0, 90, 63
1, 201989, Note_off_c, 0, 67, 61
1, 201990, Note_on_c, 0, 91, 104
1, 201993, Note_on_c, 0, 87, 109
1, 202048, Note_off_c, 0, 91, 65
1, 202068, Note_off_c, 0, 87, 64
1, 202146, Note_on_c, 0, 73, 110
1, 202182, Note_off_c, 0, 73, 67
1, 202256, Note_on_c, 0, 78, 95
1, 202257, Note_on_c, 0, 85, 99
1, 202311, Note_off_c, 0, 78, 59
1, 202323, Note_off_c, 0, 85, 61
1, 202382, Note_on_c, 0, 86, 101
1, 202387, Note_on_c, 0, 77, 92
1, 202422, Note_off_c, 0, 86, 69
1, 202427, Note_off_c, 0, 77, 62
1, 202475, Note_on_c, 0, 87, 91
1, 202476, Note_on_c, 0, 76, 79
1, 202495, Note_off_c, 0, 76, 72
1, 202507, Note_on_c, 0, 77, 13
1, 202534, Note_off_c, 0, 87, 63
1, 202547, Note_on_c, 0, 88, 82
1, 202549, Note_off_c, 0, 77, 52
1, 202558, Note_on_c, 0, 75, 101
1, 202600, Note_off_c, 0, 88, 63
1, 202603, Note_off_c, 0, 75, 64
1, 202639, Control_c, 0, 64, 86
1, 202653, Control_c, 0, 64, 48
1, 202664, Note_on_c, 0, 68, 88
1, 202668, Control_c, 0, 64, 0
1, 202719, Note_on_c, 0, 67, 92
1, 202723, Note_off_c, 0, 68, 62
1, 203005, Note_on_c, 0, 66, 86
1, 203011, Note_off_c, 0, 67, 64
1, 203083, Note_on_c, 0, 68, 83
1, 203083, Note_off_c, 0, 66, 66
1, 203225, Control_c, 0, 64, 42
1, 203240, Control_c, 0, 64, 57
1, 203255, Control_c, 0, 64, 60
1, 203270, Control_c, 0, 64, 62
1, 203284, Control_c, 0, 64, 63
1, 203299, Control_c, 0, 64, 64
1, 203314, Control_c, 0, 64, 65
1, 203329, Control_c, 0, 64, 66
1, 203340, Note_on_c, 0, 67, 76
1, 203344, Note_off_c, 0, 68, 52
1, 203344, Control_c, 0, 64, 67
1, 203349, Note_on_c, 0, 73, 91
1, 203358, Control_c, 0, 64, 68
1, 203372, Note_off_c, 0, 67, 63
1, 203373, Control_c, 0, 64, 69
1, 203388, Control_c, 0, 64, 71
1, 203402, Control_c, 0, 64, 73
1, 203417, Control_c, 0, 64, 74
1, 203432, Control_c, 0, 64, 76
1, 203447, Control_c, 0, 64, 77
1, 203462, Control_c, 0, 64, 78
1, 203474, Note_on_c, 0, 53, 74
1, 203474, Note_on_c, 0, 66, 83
1, 203489, Note_off_c, 0, 73, 64
1, 203490, Note_on_c, 0, 74, 94
1, 203506, Control_c, 0, 64, 77
1, 203521, Control_c, 0, 64, 71
1, 203536, Control_c, 0, 64, 56
1, 203558, Control_c, 0, 64, 0
1, 203647, Control_c, 0, 64, 33
1, 203662, Control_c, 0, 64, 42
1, 203677, Control_c, 0, 64, 53
1, 203691, Control_c, 0, 64, 60
1, 203706, Control_c, 0, 64, 63
1, 203715, Note_on_c, 0, 84, 96
1, 203721, Control_c, 0, 64, 65
1, 203736, Control_c, 0, 64, 67
1, 203750, Control_c, 0, 64, 72
1, 203764, Control_c, 0, 64, 75
1, 203779, Control_c, 0, 64, 79
1, 203794, Control_c, 0, 64, 83
1, 203808, Control_c, 0, 64, 87
1, 203813, Note_off_c, 0, 53, 61
1, 203823, Control_c, 0, 64, 92
1, 203838, Control_c, 0, 64, 96
1, 203853, Control_c, 0, 64, 99
1, 203868, Control_c, 0, 64, 102
1, 203912, Control_c, 0, 64, 104
1, 203983, Note_on_c, 0, 83, 90
1, 203983, Note_off_c, 0, 84, 60
1, 204030, Note_off_c, 0, 74, 62
1, 204195, Note_off_c, 0, 83, 61
1, 204228, Note_off_c, 0, 66, 60
1, 204261, Note_on_c, 0, 65, 72
1, 204276, Note_on_c, 0, 73, 84
1, 204367, Note_off_c, 0, 73, 60
1, 204421, Note_on_c, 0, 80, 69
1, 204424, Control_c, 0, 64, 97
1, 204427, Note_on_c, 0, 64, 82
1, 204431, Note_off_c, 0, 65, 55
1, 204435, Note_on_c, 0, 72, 72
1, 204439, Control_c, 0, 64, 74
1, 204450, Note_off_c, 0, 80, 65
1, 204454, Control_c, 0, 64, 50
1, 204458, Note_off_c, 0, 72, 66
1, 204469, Control_c, 0, 64, 0
1, 204483, Note_on_c, 0, 81, 27
1, 204539, Note_on_c, 0, 71, 34
1, 204579, Note_off_c, 0, 71, 31
1, 204585, Note_off_c, 0, 81, 63
1, 204588, Note_on_c, 0, 82, 79
1, 204603, Note_on_c, 0, 70, 72
1, 204628, Note_off_c, 0, 70, 66
1, 204631, Note_off_c, 0, 82, 58
1, 204725, Note_off_c, 0, 64, 62
1, 204728, Note_on_c, 0, 63, 74
1, 204799, Note_on_c, 0, 64, 74
1, 204809, Note_off_c, 0, 63, 56
1, 204928, Control_c, 0, 67, 41
1, 204943, Control_c, 0, 67, 46
1, 204958, Control_c, 0, 67, 52
1, 204973, Control_c, 0, 67, 58
1, 204988, Control_c, 0, 67, 64
1, 205002, Control_c, 0, 67, 68
1, 205017, Control_c, 0, 67, 73
1, 205032, Control_c, 0, 67, 77
1, 205054, Control_c, 0, 67, 81
1, 205069, Control_c, 0, 67, 85
1, 205084, Control_c, 0, 67, 88
1, 205099, Control_c, 0, 67, 90
1, 205114, Control_c, 0, 67, 95
1, 205125, Note_off_c, 0, 64, 65
1, 205128, Note_on_c, 0, 63, 71
1, 205128, Control_c, 0, 67, 101
1, 205143, Control_c, 0, 67, 107
1, 205158, Control_c, 0, 67, 113
1, 205173, Control_c, 0, 67, 119
1, 205187, Control_c, 0, 67, 126
1, 205204, Note_off_c, 0, 63, 63
1, 205209, Note_on_c, 0, 62, 71
1, 205511, Note_on_c, 0, 88, 79
1, 205517, Note_on_c, 0, 69, 49
1, 205521, Note_on_c, 0, 76, 56
1, 205539, Note_off_c, 0, 76, 62
1, 205566, Note_off_c, 0, 69, 62
1, 205578, Note_off_c, 0, 88, 63
1, 205593, Note_on_c, 0, 87, 79
1, 205604, Control_c, 0, 64, 31
1, 205605, Note_on_c, 0, 71, 57
1, 205606, Note_on_c, 0, 75, 67
1, 205619, Control_c, 0, 64, 48
1, 205634, Control_c, 0, 64, 59
1, 205649, Control_c, 0, 64, 62
1, 205664, Control_c, 0, 64, 64
1, 205678, Control_c, 0, 64, 65
1, 205693, Control_c, 0, 64, 65
1, 205708, Control_c, 0, 64, 66
1, 205709, Note_off_c, 0, 75, 61
1, 205738, Control_c, 0, 64, 67
1, 205811, Note_off_c, 0, 87, 61
1, 205843, Note_off_c, 0, 71, 58
1, 205900, Note_on_c, 0, 89, 77
1, 205912, Note_on_c, 0, 68, 55
1, 205938, Control_c, 0, 64, 64
1, 205952, Control_c, 0, 64, 57
1, 205954, Note_off_c, 0, 89, 58
1, 205956, Note_off_c, 0, 68, 57
1, 205967, Control_c, 0, 64, 44
1, 205983, Control_c, 0, 64, 30
1, 205995, Note_on_c, 0, 86, 70
1, 205998, Control_c, 0, 64, 0
1, 206010, Note_on_c, 0, 70, 51
1, 206012, Control_c, 0, 64, 29
1, 206019, Note_on_c, 0, 74, 62
1, 206027, Control_c, 0, 64, 41
1, 206042, Control_c, 0, 64, 53
1, 206057, Control_c, 0, 64, 61
1, 206071, Control_c, 0, 64, 64
1, 206086, Control_c, 0, 64, 66
1, 206101, Control_c, 0, 64, 67
1, 206116, Control_c, 0, 64, 68
1, 206131, Control_c, 0, 64, 69
1, 206146, Control_c, 0, 64, 71
1, 206160, Control_c, 0, 64, 71
1, 206175, Control_c, 0, 64, 72
1, 206176, Note_off_c, 0, 74, 38
1, 206190, Control_c, 0, 64, 72
1, 206234, Control_c, 0, 64, 73
1, 206287, Note_off_c, 0, 86, 61
1, 206293, Note_off_c, 0, 70, 38
1, 206332, Note_on_c, 0, 69, 52
1, 206333, Note_on_c, 0, 88, 77
1, 206350, Note_on_c, 0, 76, 45
1, 206375, Note_off_c, 0, 76, 57
1, 206413, Control_c, 0, 64, 70
1, 206420, Note_off_c, 0, 88, 64
1, 206427, Control_c, 0, 64, 62
1, 206432, Note_off_c, 0, 69, 59
1, 206437, Note_on_c, 0, 87, 73
1, 206442, Control_c, 0, 64, 49
1, 206454, Note_on_c, 0, 75, 62
1, 206455, Note_on_c, 0, 71, 53
1, 206457, Control_c, 0, 64, 36
1, 206472, Control_c, 0, 64, 32
1, 206487, Control_c, 0, 64, 36
1, 206502, Control_c, 0, 64, 50
1, 206517, Control_c, 0, 64, 60
1, 206532, Control_c, 0, 64, 64
1, 206554, Control_c, 0, 64, 67
1, 206569, Control_c, 0, 64, 68
1, 206583, Control_c, 0, 64, 69
1, 206598, Control_c, 0, 64, 71
1, 206602, Note_off_c, 0, 75, 60
1, 206613, Control_c, 0, 64, 72
1, 206627, Control_c, 0, 64, 73
1, 206642, Control_c, 0, 64, 74
1, 206657, Control_c, 0, 64, 74
1, 206672, Control_c, 0, 64, 75
1, 206716, Control_c, 0, 64, 75
1, 206723, Note_off_c, 0, 71, 36
1, 206752, Note_off_c, 0, 87, 61
1, 206794, Note_on_c, 0, 89, 77
1, 206797, Note_on_c, 0, 68, 51
1, 206815, Note_on_c, 0, 77, 40
1, 206820, Control_c, 0, 64, 76
1, 206843, Note_off_c, 0, 77, 54
1, 206857, Note_off_c, 0, 89, 59
1, 206880, Control_c, 0, 64, 75
1, 206895, Control_c, 0, 64, 73
1, 206901, Note_off_c, 0, 68, 52
1, 206909, Control_c, 0, 64, 65
1, 206924, Control_c, 0, 64, 55
1, 206928, Note_on_c, 0, 70, 42
1, 206939, Note_on_c, 0, 74, 67
1, 206939, Control_c, 0, 64, 50
1, 206953, Control_c, 0, 64, 51
1, 206968, Control_c, 0, 64, 56
1, 206983, Control_c, 0, 64, 61
1, 206998, Control_c, 0, 64, 65
1, 207013, Control_c, 0, 64, 69
1, 207027, Control_c, 0, 64, 71
1, 207042, Control_c, 0, 64, 73
1, 207057, Control_c, 0, 64, 74
1, 207072, Control_c, 0, 64, 76
1, 207078, Note_on_c, 0, 85, 75
1, 207087, Control_c, 0, 64, 77
1, 207101, Note_off_c, 0, 74, 40
1, 207101, Control_c, 0, 64, 78
1, 207116, Control_c, 0, 64, 79
1, 207131, Control_c, 0, 64, 80
1, 207146, Control_c, 0, 64, 81
1, 207161, Control_c, 0, 64, 82
1, 207177, Control_c, 0, 64, 82
1, 207195, Note_on_c, 0, 87, 79
1, 207206, Control_c, 0, 64, 83
1, 207221, Control_c, 0, 64, 83
1, 207250, Control_c, 0, 64, 84
1, 207253, Note_off_c, 0, 85, 39
1, 207287, Note_off_c, 0, 87, 61
1, 207317, Note_on_c, 0, 84, 76
1, 207318, Control_c, 0, 64, 84
1, 207393, Note_off_c, 0, 70, 35
1, 207423, Note_on_c, 0, 76, 68
1, 207446, Note_off_c, 0, 84, 52
1, 207522, Note_off_c, 0, 76, 55
1, 207524, Control_c, 0, 64, 85
1, 207542, Note_on_c, 0, 83, 70
1, 207613, Note_off_c, 0, 83, 58
1, 207664, Note_on_c, 0, 89, 69
1, 207753, Note_off_c, 0, 89, 58
1, 207792, Note_on_c, 0, 82, 65
1, 207854, Note_off_c, 0, 62, 57
1, 207861, Note_off_c, 0, 82, 63
1, 207912, Note_on_c, 0, 78, 60
1, 207924, Control_c, 0, 64, 84
1, 207962, Note_on_c, 0, 63, 60
1, 207998, Control_c, 0, 64, 84
1, 208013, Control_c, 0, 64, 81
1, 208028, Control_c, 0, 64, 72
1, 208051, Control_c, 0, 64, 63
1, 208064, Note_off_c, 0, 63, 57
1, 208066, Control_c, 0, 64, 50
1, 208068, Note_on_c, 0, 62, 52
1, 208072, Note_on_c, 0, 81, 62
1, 208079, Note_off_c, 0, 78, 38
1, 208080, Control_c, 0, 64, 35
1, 208095, Control_c, 0, 64, 0
1, 208169, Control_c, 0, 64, 35
1, 208179, Note_off_c, 0, 81, 57
1, 208184, Control_c, 0, 64, 48
1, 208198, Control_c, 0, 64, 59
1, 208213, Control_c, 0, 64, 64
1, 208228, Control_c, 0, 64, 66
1, 208232, Note_on_c, 0, 91, 60
1, 208243, Control_c, 0, 64, 67
1, 208258, Control_c, 0, 64, 68
1, 208272, Control_c, 0, 64, 70
1, 208287, Control_c, 0, 64, 72
1, 208302, Control_c, 0, 64, 73
1, 208317, Control_c, 0, 64, 75
1, 208332, Control_c, 0, 64, 76
1, 208347, Control_c, 0, 64, 77
1, 208350, Note_on_c, 0, 80, 57
1, 208362, Control_c, 0, 64, 78
1, 208377, Control_c, 0, 64, 79
1, 208392, Control_c, 0, 64, 79
1, 208406, Control_c, 0, 64, 80
1, 208421, Control_c, 0, 64, 80
1, 208436, Control_c, 0, 64, 81
1, 208439, Note_off_c, 0, 80, 40
1, 208451, Control_c, 0, 64, 81
1, 208495, Control_c, 0, 64, 82
1, 208501, Note_on_c, 0, 86, 54
1, 208519, Note_off_c, 0, 91, 42
1, 208540, Control_c, 0, 64, 82
1, 208558, Note_off_c, 0, 86, 60
1, 208624, Note_on_c, 0, 70, 49
1, 208764, Note_on_c, 0, 78, 47
1, 208785, Note_off_c, 0, 62, 36
1, 208800, Control_c, 0, 64, 83
1, 208866, Note_off_c, 0, 78, 52
1, 208898, Note_on_c, 0, 81, 51
1, 208976, Note_off_c, 0, 81, 55
1, 209035, Note_on_c, 0, 73, 43
1, 209118, Note_off_c, 0, 73, 60
1, 209170, Note_on_c, 0, 65, 37
1, 209207, Note_off_c, 0, 70, 37
1, 209305, Note_on_c, 0, 68, 44
1, 209452, Note_on_c, 0, 76, 47
1, 209506, Note_off_c, 0, 76, 47
1, 209590, Note_on_c, 0, 84, 46
1, 209647, Note_off_c, 0, 65, 38
1, 209653, Note_off_c, 0, 68, 60
1, 209756, Note_on_c, 0, 87, 52
1, 209766, Note_off_c, 0, 84, 35
1, 209906, Note_off_c, 0, 87, 55
1, 209957, Note_on_c, 0, 79, 48
1, 210070, Note_off_c, 0, 79, 57
1, 210164, Note_on_c, 0, 71, 49
1, 210372, Control_c, 0, 64, 82
1, 210461, Control_c, 0, 64, 82
1, 210475, Note_on_c, 0, 50, 16
1, 210475, Control_c, 0, 64, 81
1, 210490, Control_c, 0, 64, 79
1, 210505, Control_c, 0, 64, 76
1, 210520, Control_c, 0, 64, 72
1, 210535, Control_c, 0, 64, 65
1, 210547, Note_on_c, 0, 74, 46
1, 210550, Control_c, 0, 64, 57
1, 210565, Control_c, 0, 64, 50
1, 210580, Control_c, 0, 64, 44
1, 210592, Note_off_c, 0, 71, 38
1, 210594, Control_c, 0, 64, 39
1, 210609, Control_c, 0, 64, 35
1, 210624, Control_c, 0, 64, 32
1, 210639, Control_c, 0, 64, 30
1, 210683, Control_c, 0, 64, 33
1, 210698, Control_c, 0, 64, 42
1, 210713, Control_c, 0, 64, 52
1, 210728, Control_c, 0, 64, 59
1, 210742, Control_c, 0, 64, 63
1, 210757, Control_c, 0, 64, 65
1, 210772, Control_c, 0, 64, 67
1, 210787, Control_c, 0, 64, 69
1, 210801, Control_c, 0, 64, 71
1, 210816, Control_c, 0, 64, 74
1, 210831, Control_c, 0, 64, 76
1, 210846, Control_c, 0, 64, 78
1, 210854, Note_on_c, 0, 54, 22
1, 210861, Control_c, 0, 64, 81
1, 210875, Control_c, 0, 64, 82
1, 210890, Control_c, 0, 64, 84
1, 210905, Control_c, 0, 64, 86
1, 210914, Note_off_c, 0, 74, 59
1, 210920, Control_c, 0, 64, 87
1, 210934, Control_c, 0, 64, 88
1, 210949, Control_c, 0, 64, 89
1, 210964, Control_c, 0, 64, 89
1, 210979, Control_c, 0, 64, 90
1, 210994, Control_c, 0, 64, 91
1, 211009, Control_c, 0, 64, 91
1, 211015, Note_off_c, 0, 50, 38
1, 211024, Control_c, 0, 64, 92
1, 211046, Control_c, 0, 64, 92
1, 211061, Control_c, 0, 64, 93
1, 211061, Control_c, 0, 67, 118
1, 211075, Control_c, 0, 67, 108
1, 211090, Control_c, 0, 64, 93
1, 211090, Control_c, 0, 67, 98
1, 211101, Note_on_c, 0, 58, 32
1, 211105, Control_c, 0, 67, 90
1, 211110, Note_off_c, 0, 54, 37
1, 211119, Control_c, 0, 64, 94
1, 211119, Control_c, 0, 67, 86
1, 211134, Control_c, 0, 67, 85
1, 211149, Control_c, 0, 67, 84
1, 211164, Control_c, 0, 67, 83
1, 211180, Control_c, 0, 67, 82
1, 211210, Control_c, 0, 67, 81
1, 211239, Control_c, 0, 67, 81
1, 211269, Control_c, 0, 67, 80
1, 211270, Note_on_c, 0, 82, 64
1, 211284, Control_c, 0, 67, 79
1, 211309, Note_on_c, 0, 61, 29
1, 211313, Control_c, 0, 67, 79
1, 211392, Note_off_c, 0, 58, 29
1, 211417, Control_c, 0, 67, 80
1, 211432, Control_c, 0, 67, 81
1, 211447, Control_c, 0, 67, 83
1, 211459, Note_off_c, 0, 61, 41
1, 211462, Control_c, 0, 67, 85
1, 211467, Note_on_c, 0, 65, 42
1, 211477, Control_c, 0, 67, 85
1, 211491, Control_c, 0, 67, 86
1, 211506, Control_c, 0, 67, 87
1, 211550, Control_c, 0, 67, 88
1, 211565, Control_c, 0, 67, 88
1, 211566, Note_off_c, 0, 65, 47
1, 211595, Control_c, 0, 67, 89
1, 211609, Control_c, 0, 67, 90
1, 211623, Note_on_c, 0, 57, 37
1, 211624, Control_c, 0, 67, 90
1, 211654, Control_c, 0, 67, 91
1, 211669, Control_c, 0, 64, 93
1, 211669, Control_c, 0, 67, 92
1, 211683, Control_c, 0, 64, 93
1, 211683, Control_c, 0, 67, 92
1, 211698, Control_c, 0, 64, 91
1, 211698, Control_c, 0, 67, 93
1, 211713, Control_c, 0, 64, 87
1, 211728, Control_c, 0, 64, 80
1, 211728, Control_c, 0, 67, 94
1, 211742, Control_c, 0, 64, 71
1, 211754, Note_off_c, 0, 57, 53
1, 211757, Control_c, 0, 64, 62
1, 211765, Note_on_c, 0, 83, 72
1, 211772, Control_c, 0, 64, 54
1, 211787, Control_c, 0, 64, 51
1, 211802, Note_on_c, 0, 56, 43
1, 211810, Control_c, 0, 64, 50
1, 211824, Control_c, 0, 64, 51
1, 211827, Note_off_c, 0, 82, 59
1, 211839, Control_c, 0, 64, 53
1, 211854, Control_c, 0, 64, 56
1, 211869, Control_c, 0, 64, 59
1, 211884, Control_c, 0, 64, 62
1, 211898, Control_c, 0, 64, 65
1, 211913, Control_c, 0, 64, 68
1, 211928, Control_c, 0, 64, 71
1, 211942, Control_c, 0, 64, 74
1, 211957, Control_c, 0, 64, 76
1, 211967, Note_on_c, 0, 60, 37
1, 211972, Control_c, 0, 64, 77
1, 211981, Note_off_c, 0, 56, 37
1, 211987, Control_c, 0, 64, 79
1, 212002, Control_c, 0, 64, 80
1, 212002, Control_c, 0, 67, 93
1, 212017, Control_c, 0, 64, 81
1, 212032, Control_c, 0, 64, 82
1, 212040, Note_off_c, 0, 60, 59
1, 212046, Control_c, 0, 64, 83
1, 212061, Control_c, 0, 64, 84
1, 212076, Control_c, 0, 64, 84
1, 212091, Control_c, 0, 64, 85
1, 212097, Note_on_c, 0, 64, 38
1, 212106, Control_c, 0, 64, 85
1, 212121, Control_c, 0, 64, 86
1, 212121, Control_c, 0, 67, 92
1, 212141, Note_off_c, 0, 83, 60
1, 212151, Control_c, 0, 64, 86
1, 212151, Note_on_c, 0, 88, 76
1, 212195, Control_c, 0, 64, 87
1, 212204, Note_off_c, 0, 64, 57
1, 212212, Note_on_c, 0, 83, 81
1, 212233, Note_on_c, 0, 67, 43
1, 212269, Control_c, 0, 64, 87
1, 212269, Control_c, 0, 67, 93
1, 212276, Note_off_c, 0, 88, 52
1, 212313, Control_c, 0, 64, 88
1, 212313, Control_c, 0, 67, 94
1, 212319, Note_off_c, 0, 67, 54
1, 212372, Control_c, 0, 64, 88
1, 212379, Note_on_c, 0, 70, 56
1, 212387, Control_c, 0, 67, 94
1, 212446, Control_c, 0, 67, 95
1, 212469, Note_off_c, 0, 70, 35
1, 212513, Note_on_c, 0, 63, 47
1, 212602, Control_c, 0, 64, 88
1, 212608, Note_off_c, 0, 63, 49
1, 212632, Control_c, 0, 64, 86
1, 212639, Note_on_c, 0, 82, 74
1, 212646, Control_c, 0, 64, 82
1, 212661, Control_c, 0, 64, 75
1, 212670, Note_on_c, 0, 62, 41
1, 212676, Control_c, 0, 64, 65
1, 212690, Control_c, 0, 64, 56
1, 212705, Control_c, 0, 64, 48
1, 212705, Control_c, 0, 67, 96
1, 212708, Note_off_c, 0, 83, 58
1, 212721, Control_c, 0, 64, 45
1, 212751, Control_c, 0, 64, 47
1, 212767, Control_c, 0, 64, 51
1, 212782, Control_c, 0, 64, 56
1, 212796, Control_c, 0, 64, 60
1, 212811, Control_c, 0, 64, 63
1, 212826, Control_c, 0, 64, 65
1, 212830, Note_on_c, 0, 66, 44
1, 212841, Control_c, 0, 64, 68
1, 212856, Control_c, 0, 64, 71
1, 212870, Control_c, 0, 64, 74
1, 212885, Control_c, 0, 64, 75
1, 212900, Control_c, 0, 64, 77
1, 212915, Control_c, 0, 64, 78
1, 212915, Control_c, 0, 67, 98
1, 212926, Note_off_c, 0, 62, 38
1, 212930, Control_c, 0, 64, 80
1, 212944, Control_c, 0, 64, 81
1, 212959, Control_c, 0, 64, 83
1, 212974, Control_c, 0, 64, 84
1, 212974, Control_c, 0, 67, 100
1, 212976, Note_off_c, 0, 66, 53
1, 212986, Note_on_c, 0, 70, 41
1, 212988, Control_c, 0, 64, 84
1, 213003, Control_c, 0, 64, 85
1, 213003, Control_c, 0, 67, 102
1, 213018, Control_c, 0, 64, 85
1, 213033, Control_c, 0, 64, 86
1, 213033, Control_c, 0, 67, 104
1, 213048, Control_c, 0, 64, 86
1, 213063, Control_c, 0, 64, 87
1, 213063, Control_c, 0, 67, 106
1, 213093, Control_c, 0, 67, 109
1, 213107, Control_c, 0, 64, 87
1, 213122, Control_c, 0, 67, 111
1, 213129, Note_on_c, 0, 73, 43
1, 213152, Control_c, 0, 67, 113
1, 213166, Note_off_c, 0, 70, 34
1, 213182, Control_c, 0, 67, 115
1, 213211, Control_c, 0, 67, 119
1, 213226, Control_c, 0, 67, 126
1, 213257, Note_off_c, 0, 73, 37
1, 213273, Note_on_c, 0, 77, 45
1, 213351, Note_off_c, 0, 77, 50
1, 213379, Note_off_c, 0, 82, 59
1, 213387, Note_on_c, 0, 79, 63
1, 213405, Note_on_c, 0, 69, 50
1, 213454, Note_off_c, 0, 79, 58
1, 213456, Note_on_c, 0, 82, 76
1, 213485, Control_c, 0, 64, 87
1, 213500, Control_c, 0, 64, 86
1, 213514, Control_c, 0, 64, 83
1, 213528, Note_off_c, 0, 69, 58
1, 213529, Control_c, 0, 64, 76
1, 213535, Note_off_c, 0, 82, 60
1, 213541, Note_on_c, 0, 83, 70
1, 213544, Control_c, 0, 64, 65
1, 213559, Control_c, 0, 64, 54
1, 213573, Note_on_c, 0, 68, 49
1, 213575, Control_c, 0, 64, 45
1, 213590, Control_c, 0, 64, 41
1, 213619, Control_c, 0, 64, 44
1, 213634, Control_c, 0, 64, 50
1, 213649, Control_c, 0, 64, 56
1, 213664, Control_c, 0, 64, 60
1, 213679, Control_c, 0, 64, 63
1, 213693, Control_c, 0, 64, 65
1, 213700, Note_off_c, 0, 68, 59
1, 213708, Control_c, 0, 64, 68
1, 213713, Note_on_c, 0, 72, 45
1, 213723, Control_c, 0, 64, 71
1, 213737, Control_c, 0, 64, 73
1, 213752, Control_c, 0, 64, 76
1, 213767, Control_c, 0, 64, 78
1, 213782, Control_c, 0, 64, 80
1, 213797, Control_c, 0, 64, 83
1, 213808, Note_off_c, 0, 72, 56
1, 213811, Control_c, 0, 64, 84
1, 213826, Control_c, 0, 64, 86
1, 213841, Control_c, 0, 64, 87
1, 213848, Note_on_c, 0, 76, 50
1, 213856, Control_c, 0, 64, 89
1, 213871, Control_c, 0, 64, 89
1, 213886, Control_c, 0, 64, 90
1, 213900, Control_c, 0, 64, 91
1, 213915, Control_c, 0, 64, 91
1, 213930, Control_c, 0, 64, 92
1, 213945, Control_c, 0, 64, 92
1, 213948, Note_off_c, 0, 76, 63
1, 213960, Control_c, 0, 64, 93
1, 213975, Control_c, 0, 64, 93
1, 213984, Note_on_c, 0, 79, 41
1, 213990, Control_c, 0, 64, 94
1, 214019, Control_c, 0, 64, 94
1, 214041, Control_c, 0, 64, 95
1, 214056, Control_c, 0, 64, 95
1, 214071, Control_c, 0, 64, 96
1, 214073, Note_off_c, 0, 79, 56
1, 214136, Note_on_c, 0, 82, 64
1, 214199, Note_off_c, 0, 82, 51
1, 214204, Control_c, 0, 64, 98
1, 214253, Note_on_c, 0, 75, 53
1, 214271, Note_off_c, 0, 83, 59
1, 214275, Note_off_c, 0, 75, 59
1, 214306, Note_on_c, 0, 85, 74
1, 214442, Control_c, 0, 64, 94
1, 214457, Control_c, 0, 64, 87
1, 214472, Control_c, 0, 64, 75
1, 214487, Control_c, 0, 64, 65
1, 214494, Note_on_c, 0, 86, 67
1, 214502, Control_c, 0, 64, 53
1, 214510, Note_off_c, 0, 85, 62
1, 214516, Control_c, 0, 64, 43
1, 214527, Poly_aftertouch_c, 0, 50, 127
1, 214531, Control_c, 0, 64, 37
1, 214560, Control_c, 0, 64, 42
1, 214575, Control_c, 0, 64, 49
1, 214590, Control_c, 0, 64, 57
1, 214605, Control_c, 0, 64, 63
1, 214620, Control_c, 0, 64, 66
1, 214634, Control_c, 0, 64, 69
1, 214649, Control_c, 0, 64, 72
1, 214658, Note_on_c, 0, 54, 38
1, 214664, Control_c, 0, 64, 75
1, 214679, Control_c, 0, 64, 77
1, 214694, Control_c, 0, 64, 79
1, 214708, Control_c, 0, 64, 81
1, 214723, Control_c, 0, 64, 84
1, 214738, Control_c, 0, 64, 86
1, 214745, Poly_aftertouch_c, 0, 50, 0
1, 214753, Control_c, 0, 64, 88
1, 214768, Control_c, 0, 64, 90
1, 214790, Control_c, 0, 64, 92
1, 214795, Note_on_c, 0, 87, 71
1, 214805, Control_c, 0, 64, 94
1, 214820, Control_c, 0, 64, 96
1, 214822, Note_on_c, 0, 58, 48
1, 214835, Control_c, 0, 64, 98
1, 214849, Control_c, 0, 64, 100
1, 214859, Note_off_c, 0, 86, 56
1, 214864, Control_c, 0, 64, 103
1, 214879, Control_c, 0, 64, 105
1, 214882, Note_off_c, 0, 54, 27
1, 214908, Control_c, 0, 64, 107
1, 214959, Note_on_c, 0, 61, 53
1, 214984, Note_off_c, 0, 58, 38
1, 215027, Control_c, 0, 67, 124
1, 215048, Note_off_c, 0, 61, 57
1, 215057, Control_c, 0, 67, 122
1, 215064, Note_on_c, 0, 94, 78
1, 215083, Note_on_c, 0, 65, 58
1, 215086, Control_c, 0, 67, 120
1, 215101, Control_c, 0, 67, 114
1, 215116, Control_c, 0, 67, 105
1, 215131, Control_c, 0, 67, 97
1, 215146, Control_c, 0, 67, 92
1, 215161, Control_c, 0, 67, 90
1, 215174, Note_off_c, 0, 65, 54
1, 215203, Note_on_c, 0, 57, 64
1, 215236, Control_c, 0, 67, 91
1, 215251, Control_c, 0, 67, 92
1, 215265, Control_c, 0, 67, 92
1, 215280, Control_c, 0, 64, 105
1, 215280, Control_c, 0, 67, 93
1, 215295, Control_c, 0, 64, 96
1, 215310, Control_c, 0, 64, 82
1, 215310, Control_c, 0, 67, 94
1, 215314, Note_on_c, 0, 91, 78
1, 215318, Note_off_c, 0, 94, 60
1, 215323, Note_off_c, 0, 57, 61
1, 215325, Control_c, 0, 64, 68
1, 215325, Control_c, 0, 67, 94
1, 215331, Note_off_c, 0, 87, 65
1, 215339, Control_c, 0, 64, 55
1, 215339, Control_c, 0, 67, 95
1, 215343, Note_on_c, 0, 56, 59
1, 215354, Control_c, 0, 64, 45
1, 215354, Control_c, 0, 67, 96
1, 215369, Control_c, 0, 64, 43
1, 215383, Control_c, 0, 64, 45
1, 215398, Control_c, 0, 64, 50
1, 215413, Control_c, 0, 64, 56
1, 215428, Control_c, 0, 64, 61
1, 215443, Control_c, 0, 64, 64
1, 215457, Control_c, 0, 64, 68
1, 215457, Control_c, 0, 67, 98
1, 215472, Control_c, 0, 64, 71
1, 215477, Note_off_c, 0, 56, 58
1, 215479, Note_on_c, 0, 60, 60
1, 215487, Control_c, 0, 64, 74
1, 215502, Control_c, 0, 64, 76
1, 215516, Control_c, 0, 64, 78
1, 215539, Control_c, 0, 64, 80
1, 215554, Control_c, 0, 64, 81
1, 215569, Control_c, 0, 64, 83
1, 215578, Note_on_c, 0, 88, 79
1, 215584, Control_c, 0, 64, 84
1, 215592, Note_off_c, 0, 60, 59
1, 215598, Control_c, 0, 64, 85
1, 215602, Note_off_c, 0, 91, 65
1, 215613, Control_c, 0, 64, 85
1, 215620, Note_on_c, 0, 64, 55
1, 215628, Control_c, 0, 64, 86
1, 215628, Control_c, 0, 67, 100
1, 215658, Control_c, 0, 64, 86
1, 215672, Control_c, 0, 67, 102
1, 215687, Control_c, 0, 64, 87
1, 215711, Note_off_c, 0, 64, 64
1, 215731, Control_c, 0, 64, 87
1, 215738, Note_on_c, 0, 67, 55
1, 215746, Control_c, 0, 67, 105
1, 215776, Control_c, 0, 67, 107
1, 215794, Note_off_c, 0, 67, 57
1, 215820, Control_c, 0, 67, 109
1, 215846, Note_on_c, 0, 84, 80
1, 215853, Note_on_c, 0, 70, 63
1, 215875, Note_off_c, 0, 88, 57
1, 215909, Note_off_c, 0, 70, 53
1, 215924, Control_c, 0, 67, 111
1, 215954, Note_on_c, 0, 63, 53
1, 216029, Control_c, 0, 67, 113
1, 216056, Note_off_c, 0, 63, 51
1, 216059, Control_c, 0, 64, 87
1, 216059, Control_c, 0, 67, 115
1, 216073, Control_c, 0, 64, 85
1, 216088, Control_c, 0, 64, 79
1, 216103, Control_c, 0, 64, 67
1, 216103, Note_on_c, 0, 62, 45
1, 216109, Note_on_c, 0, 80, 70
1, 216118, Control_c, 0, 64, 55
1, 216118, Control_c, 0, 67, 117
1, 216121, Note_off_c, 0, 84, 58
1, 216132, Control_c, 0, 64, 43
1, 216147, Control_c, 0, 64, 37
1, 216177, Control_c, 0, 64, 40
1, 216177, Control_c, 0, 67, 119
1, 216192, Control_c, 0, 64, 48
1, 216206, Control_c, 0, 64, 55
1, 216221, Control_c, 0, 64, 60
1, 216236, Control_c, 0, 64, 64
1, 216237, Note_on_c, 0, 66, 52
1, 216251, Control_c, 0, 64, 66
1, 216259, Note_off_c, 0, 62, 38
1, 216266, Control_c, 0, 64, 68
1, 216288, Control_c, 0, 64, 70
1, 216303, Control_c, 0, 64, 72
1, 216318, Control_c, 0, 64, 73
1, 216332, Control_c, 0, 64, 75
1, 216347, Control_c, 0, 64, 76
1, 216362, Control_c, 0, 64, 77
1, 216377, Note_on_c, 0, 81, 72
1, 216377, Control_c, 0, 64, 78
1, 216378, Note_off_c, 0, 66, 61
1, 216392, Control_c, 0, 64, 79
1, 216392, Control_c, 0, 67, 121
1, 216395, Note_on_c, 0, 70, 51
1, 216407, Control_c, 0, 64, 81
1, 216421, Control_c, 0, 64, 82
1, 216421, Control_c, 0, 67, 124
1, 216436, Control_c, 0, 64, 82
1, 216451, Control_c, 0, 67, 127
1, 216466, Control_c, 0, 64, 83
1, 216510, Control_c, 0, 64, 83
1, 216531, Note_on_c, 0, 73, 43
1, 216534, Note_off_c, 0, 70, 38
1, 216611, Note_off_c, 0, 73, 49
1, 216643, Note_off_c, 0, 80, 11
1, 216653, Note_on_c, 0, 89, 69
1, 216658, Note_on_c, 0, 77, 44
1, 216702, Note_off_c, 0, 81, 53
1, 216711, Note_off_c, 0, 77, 46
1, 216776, Note_on_c, 0, 69, 48
1, 216866, Control_c, 0, 64, 83
1, 216881, Note_off_c, 0, 69, 48
1, 216881, Control_c, 0, 64, 82
1, 216896, Control_c, 0, 64, 76
1, 216904, Note_on_c, 0, 85, 66
1, 216911, Control_c, 0, 64, 66
1, 216922, Note_on_c, 0, 68, 42
1, 216926, Control_c, 0, 64, 57
1, 216941, Control_c, 0, 64, 52
1, 216955, Control_c, 0, 64, 52
1, 216970, Control_c, 0, 64, 55
1, 216985, Control_c, 0, 64, 59
1, 217000, Control_c, 0, 64, 63
1, 217015, Control_c, 0, 64, 66
1, 217036, Control_c, 0, 64, 68
1, 217047, Note_off_c, 0, 68, 56
1, 217051, Control_c, 0, 64, 71
1, 217062, Note_on_c, 0, 72, 44
1, 217066, Control_c, 0, 64, 72
1, 217081, Control_c, 0, 64, 73
1, 217096, Control_c, 0, 64, 74
1, 217111, Control_c, 0, 64, 75
1, 217126, Control_c, 0, 64, 76
1, 217141, Control_c, 0, 64, 78
1, 217152, Note_off_c, 0, 72, 58
1, 217156, Control_c, 0, 64, 78
1, 217170, Control_c, 0, 64, 79
1, 217172, Note_off_c, 0, 89, 35
1, 217173, Note_on_c, 0, 82, 60
1, 217185, Control_c, 0, 64, 80
1, 217200, Control_c, 0, 64, 80
1, 217215, Control_c, 0, 64, 81
1, 217215, Note_on_c, 0, 76, 47
1, 217229, Control_c, 0, 64, 81
1, 217243, Control_c, 0, 64, 82
1, 217258, Control_c, 0, 64, 82
1, 217260, Note_off_c, 0, 85, 43
1, 217279, Note_off_c, 0, 76, 56
1, 217302, Control_c, 0, 64, 83
1, 217326, Note_on_c, 0, 79, 46
1, 217421, Control_c, 0, 64, 83
1, 217425, Note_off_c, 0, 79, 39
1, 217462, Note_on_c, 0, 78, 56
1, 217531, Note_off_c, 0, 82, 58
1, 217618, Note_on_c, 0, 75, 45
1, 217653, Note_off_c, 0, 75, 51
1, 217737, Note_off_c, 0, 78, 57
1, 217783, Note_on_c, 0, 74, 51
1, 217799, Control_c, 0, 64, 83
1, 217931, Note_off_c, 0, 74, 38
1, 217938, Note_on_c, 0, 75, 49
1, 218034, Note_off_c, 0, 75, 48
1, 218062, Note_on_c, 0, 82, 54
1, 218095, Control_c, 0, 64, 82
1, 218139, Control_c, 0, 64, 82
1, 218154, Control_c, 0, 64, 81
1, 218169, Control_c, 0, 64, 80
1, 218177, Note_off_c, 0, 82, 54
1, 218184, Control_c, 0, 64, 76
1, 218191, Note_on_c, 0, 58, 70
1, 218199, Control_c, 0, 64, 71
1, 218214, Control_c, 0, 64, 65
1, 218224, Note_on_c, 0, 79, 37
1, 218229, Control_c, 0, 64, 60
1, 218244, Control_c, 0, 64, 58
1, 218273, Control_c, 0, 64, 59
1, 218288, Control_c, 0, 64, 60
1, 218302, Control_c, 0, 64, 61
1, 218317, Control_c, 0, 64, 63
1, 218332, Control_c, 0, 64, 64
1, 218347, Control_c, 0, 64, 66
1, 218363, Control_c, 0, 64, 67
1, 218363, Control_c, 0, 67, 125
1, 218378, Control_c, 0, 64, 69
1, 218378, Control_c, 0, 67, 117
1, 218386, Note_on_c, 0, 76, 42
1, 218393, Control_c, 0, 64, 70
1, 218393, Control_c, 0, 67, 107
1, 218407, Control_c, 0, 64, 71
1, 218407, Control_c, 0, 67, 96
1, 218419, Note_off_c, 0, 79, 34
1, 218422, Control_c, 0, 64, 71
1, 218422, Control_c, 0, 67, 86
1, 218437, Control_c, 0, 64, 72
1, 218437, Control_c, 0, 67, 77
1, 218452, Control_c, 0, 67, 67
1, 218467, Control_c, 0, 67, 59
1, 218468, Note_off_c, 0, 76, 54
1, 218481, Control_c, 0, 67, 52
1, 218496, Control_c, 0, 67, 46
1, 218511, Control_c, 0, 67, 43
1, 218515, Note_on_c, 0, 72, 39
1, 218533, Control_c, 0, 67, 43
1, 218548, Control_c, 0, 67, 42
1, 218611, Note_off_c, 0, 72, 30
1, 218653, Note_on_c, 0, 59, 71
1, 218681, Control_c, 0, 64, 70
1, 218692, Note_on_c, 0, 68, 41
1, 218696, Control_c, 0, 64, 66
1, 218696, Control_c, 0, 67, 43
1, 218711, Control_c, 0, 64, 60
1, 218726, Control_c, 0, 64, 54
1, 218729, Note_off_c, 0, 58, 52
1, 218740, Control_c, 0, 64, 50
1, 218755, Control_c, 0, 64, 49
1, 218770, Control_c, 0, 64, 50
1, 218785, Control_c, 0, 64, 51
1, 218800, Control_c, 0, 64, 53
1, 218814, Control_c, 0, 64, 55
1, 218823, Note_off_c, 0, 68, 59
1, 218829, Control_c, 0, 64, 57
1, 218839, Note_on_c, 0, 69, 46
1, 218844, Control_c, 0, 64, 58
1, 218859, Control_c, 0, 64, 59
1, 218874, Control_c, 0, 64, 60
1, 218888, Control_c, 0, 64, 61
1, 218903, Control_c, 0, 64, 62
1, 218918, Control_c, 0, 64, 63
1, 218932, Control_c, 0, 64, 63
1, 218947, Control_c, 0, 64, 64
1, 218947, Control_c, 0, 67, 42
1, 218962, Control_c, 0, 64, 65
1, 218965, Note_off_c, 0, 69, 49
1, 218977, Control_c, 0, 64, 65
1, 218992, Control_c, 0, 64, 66
1, 218992, Control_c, 0, 67, 41
1, 218998, Note_on_c, 0, 77, 53
1, 219007, Control_c, 0, 64, 66
1, 219022, Control_c, 0, 67, 41
1, 219037, Control_c, 0, 64, 67
1, 219037, Control_c, 0, 67, 40
1, 219047, Note_off_c, 0, 59, 64
1, 219051, Note_on_c, 0, 64, 65
1, 219051, Control_c, 0, 67, 39
1, 219066, Control_c, 0, 64, 67
1, 219081, Control_c, 0, 67, 39
1, 219111, Control_c, 0, 67, 38
1, 219124, Note_off_c, 0, 64, 63
1, 219132, Note_on_c, 0, 59, 73
1, 219140, Control_c, 0, 64, 67
1, 219156, Note_on_c, 0, 73, 50
1, 219156, Control_c, 0, 64, 65
1, 219171, Control_c, 0, 64, 61
1, 219184, Note_off_c, 0, 77, 54
1, 219186, Control_c, 0, 64, 55
1, 219200, Control_c, 0, 64, 47
1, 219215, Control_c, 0, 64, 31
1, 219230, Control_c, 0, 64, 0
1, 219311, Control_c, 0, 67, 37
1, 219355, Control_c, 0, 64, 39
1, 219355, Control_c, 0, 67, 0
1, 219364, Note_on_c, 0, 70, 51
1, 219370, Note_off_c, 0, 73, 58
1, 219370, Control_c, 0, 64, 53
1, 219385, Control_c, 0, 64, 61
1, 219400, Control_c, 0, 64, 64
1, 219415, Control_c, 0, 64, 65
1, 219430, Control_c, 0, 64, 66
1, 219445, Control_c, 0, 64, 68
1, 219460, Control_c, 0, 64, 70
1, 219475, Control_c, 0, 64, 73
1, 219490, Control_c, 0, 64, 75
1, 219505, Control_c, 0, 64, 77
1, 219519, Control_c, 0, 64, 79
1, 219534, Control_c, 0, 64, 80
1, 219549, Control_c, 0, 64, 82
1, 219564, Control_c, 0, 64, 84
1, 219571, Note_off_c, 0, 70, 48
1, 219579, Control_c, 0, 64, 86
1, 219580, Note_on_c, 0, 66, 41
1, 219594, Control_c, 0, 64, 87
1, 219609, Control_c, 0, 64, 88
1, 219624, Control_c, 0, 64, 89
1, 219638, Control_c, 0, 64, 89
1, 219653, Control_c, 0, 64, 90
1, 219668, Control_c, 0, 64, 90
1, 219682, Control_c, 0, 64, 91
1, 219745, Note_off_c, 0, 66, 36
1, 219871, Note_on_c, 0, 58, 56
1, 219889, Control_c, 0, 64, 90
1, 219904, Control_c, 0, 64, 86
1, 219919, Control_c, 0, 64, 76
1, 219934, Control_c, 0, 64, 63
1, 219943, Note_off_c, 0, 59, 60
1, 219950, Control_c, 0, 64, 42
1, 219965, Control_c, 0, 64, 0
1, 220091, Control_c, 0, 64, 45
1, 220105, Control_c, 0, 64, 58
1, 220120, Control_c, 0, 64, 63
1, 220135, Control_c, 0, 64, 65
1, 220150, Control_c, 0, 64, 66
1, 220150, Control_c, 0, 66, 127
1, 220165, Control_c, 0, 64, 67
1, 220179, Control_c, 0, 64, 68
1, 220194, Control_c, 0, 64, 71
1, 220209, Control_c, 0, 64, 73
1, 220224, Control_c, 0, 64, 75
1, 220239, Control_c, 0, 64, 77
1, 220253, Control_c, 0, 64, 79
1, 220255, Note_off_c, 0, 58, 61
1, 220267, Note_on_c, 0, 66, 51
1, 220268, Control_c, 0, 64, 81
1, 220283, Control_c, 0, 64, 83
1, 220288, Note_on_c, 0, 63, 36
1, 220298, Control_c, 0, 64, 85
1, 220312, Control_c, 0, 64, 87
1, 220327, Control_c, 0, 64, 90
1, 220342, Control_c, 0, 64, 93
1, 220357, Control_c, 0, 64, 96
1, 220372, Control_c, 0, 64, 100
1, 220387, Control_c, 0, 64, 106
1, 220402, Control_c, 0, 64, 113
1, 220417, Control_c, 0, 64, 127
1, 220676, Note_on_c, 0, 71, 53
1, 220679, Note_on_c, 0, 39, 41
1, 220684, Note_on_c, 0, 46, 32
1, 220697, Control_c, 0, 64, 98
1, 220704, Note_on_c, 0, 68, 41
1, 220704, Note_off_c, 0, 63, 37
1, 220712, Control_c, 0, 64, 82
1, 220727, Control_c, 0, 64, 70
1, 220742, Control_c, 0, 64, 59
1, 220758, Control_c, 0, 64, 50
1, 220780, Control_c, 0, 64, 47
1, 220789, Note_off_c, 0, 66, 52
1, 220795, Control_c, 0, 64, 49
1, 220810, Control_c, 0, 64, 55
1, 220825, Control_c, 0, 64, 64
1, 220840, Control_c, 0, 64, 73
1, 220855, Control_c, 0, 64, 82
1, 220870, Control_c, 0, 64, 88
1, 220883, Note_off_c, 0, 68, 60
1, 220884, Control_c, 0, 64, 93
1, 220899, Control_c, 0, 64, 102
1, 220900, Note_off_c, 0, 71, 62
1, 220914, Control_c, 0, 64, 114
1, 220928, Control_c, 0, 64, 127
1, 220964, Note_off_c, 0, 39, 41
1, 221002, Note_off_c, 0, 46, 59
1, 221126, Note_on_c, 0, 77, 55
1, 221141, Note_on_c, 0, 73, 46
1, 221235, Note_off_c, 0, 73, 47
1, 221240, Note_on_c, 0, 70, 53
1, 221468, Note_on_c, 0, 56, 67
1, 221751, Note_on_c, 0, 61, 69
1, 221794, Note_off_c, 0, 56, 57
1, 221827, Note_off_c, 0, 70, 55
1, 221934, Note_off_c, 0, 77, 62
1, 222047, Control_c, 0, 66, 0
1, 222076, Note_off_c, 0, 61, 55
1, 222126, Note_on_c, 0, 66, 67
1, 222181, Control_c, 0, 64, 108
1, 222196, Control_c, 0, 64, 78
1, 222211, Control_c, 0, 64, 59
1, 222211, Control_c, 0, 66, 127
1, 222223, Note_on_c, 0, 59, 58
1, 222225, Control_c, 0, 64, 0
1, 222229, Note_off_c, 0, 66, 56
1, 222233, Note_on_c, 0, 51, 42
1, 222321, Control_c, 0, 64, 34
1, 222336, Control_c, 0, 64, 49
1, 222352, Control_c, 0, 64, 59
1, 222367, Control_c, 0, 64, 63
1, 222381, Control_c, 0, 64, 65
1, 222396, Control_c, 0, 64, 66
1, 222411, Control_c, 0, 64, 68
1, 222426, Control_c, 0, 64, 72
1, 222438, Note_off_c, 0, 59, 61
1, 222441, Control_c, 0, 64, 74
1, 222456, Control_c, 0, 64, 77
1, 222471, Control_c, 0, 64, 79
1, 222485, Note_on_c, 0, 75, 61
1, 222485, Control_c, 0, 64, 81
1, 222500, Control_c, 0, 64, 83
1, 222507, Note_on_c, 0, 66, 42
1, 222515, Control_c, 0, 64, 84
1, 222519, Note_off_c, 0, 51, 62
1, 222530, Control_c, 0, 64, 86
1, 222540, Note_off_c, 0, 66, 53
1, 222545, Control_c, 0, 64, 87
1, 222560, Control_c, 0, 64, 87
1, 222574, Control_c, 0, 64, 88
1, 222589, Control_c, 0, 64, 89
1, 222604, Control_c, 0, 64, 90
1, 222619, Control_c, 0, 64, 91
1, 222648, Control_c, 0, 64, 91
1, 222826, Control_c, 0, 64, 91
1, 222841, Control_c, 0, 64, 90
1, 222855, Control_c, 0, 64, 84
1, 222863, Note_on_c, 0, 27, 38
1, 222864, Note_on_c, 0, 39, 36
1, 222865, Note_on_c, 0, 80, 56
1, 222870, Control_c, 0, 64, 74
1, 222879, Note_on_c, 0, 71, 31
1, 222885, Control_c, 0, 64, 62
1, 222900, Control_c, 0, 64, 46
1, 222915, Control_c, 0, 64, 31
1, 222930, Control_c, 0, 64, 0
1, 222944, Control_c, 0, 64, 29
1, 222952, Note_off_c, 0, 75, 57
1, 222959, Control_c, 0, 64, 40
1, 222974, Control_c, 0, 64, 52
1, 222989, Control_c, 0, 64, 61
1, 223004, Control_c, 0, 64, 66
1, 223025, Control_c, 0, 64, 70
1, 223040, Control_c, 0, 64, 75
1, 223049, Note_off_c, 0, 27, 40
1, 223055, Control_c, 0, 64, 78
1, 223070, Control_c, 0, 64, 81
1, 223085, Control_c, 0, 64, 85
1, 223099, Note_off_c, 0, 39, 41
1, 223099, Control_c, 0, 64, 89
1, 223114, Control_c, 0, 64, 93
1, 223123, Note_off_c, 0, 71, 41
1, 223129, Control_c, 0, 64, 96
1, 223144, Control_c, 0, 64, 99
1, 223160, Control_c, 0, 64, 101
1, 223190, Control_c, 0, 64, 104
1, 223219, Control_c, 0, 64, 106
1, 223323, Control_c, 0, 64, 108
1, 223384, Note_on_c, 0, 85, 58
1, 223396, Note_on_c, 0, 77, 49
1, 223426, Note_off_c, 0, 80, 51
1, 223501, Note_off_c, 0, 77, 56
1, 223520, Note_on_c, 0, 70, 48
1, 223560, Control_c, 0, 64, 110
1, 223576, Note_off_c, 0, 70, 56
1, 223590, Control_c, 0, 64, 112
1, 223619, Control_c, 0, 64, 116
1, 223634, Control_c, 0, 64, 119
1, 223648, Control_c, 0, 64, 127
1, 223725, Note_on_c, 0, 63, 74
1, 224013, Control_c, 0, 66, 0
1, 224047, Note_on_c, 0, 68, 80
1, 224085, Note_off_c, 0, 63, 60
1, 224424, Note_on_c, 0, 73, 76
1, 224444, Note_off_c, 0, 68, 57
1, 224486, Control_c, 0, 64, 112
1, 224501, Control_c, 0, 64, 77
1, 224524, Control_c, 0, 64, 57
1, 224539, Control_c, 0, 64, 0
1, 224577, Note_off_c, 0, 73, 60
1, 224581, Note_on_c, 0, 66, 74
1, 224627, Control_c, 0, 64, 45
1, 224629, Note_off_c, 0, 85, 63
1, 224642, Control_c, 0, 64, 59
1, 224657, Control_c, 0, 64, 64
1, 224671, Control_c, 0, 64, 66
1, 224686, Control_c, 0, 64, 69
1, 224701, Control_c, 0, 64, 72
1, 224716, Control_c, 0, 64, 75
1, 224731, Control_c, 0, 64, 78
1, 224734, Note_off_c, 0, 66, 62
1, 224746, Note_on_c, 0, 62, 63
1, 224747, Control_c, 0, 64, 80
1, 224762, Control_c, 0, 64, 82
1, 224776, Control_c, 0, 64, 84
1, 224791, Control_c, 0, 64, 85
1, 224796, Note_off_c, 0, 62, 55
1, 224806, Control_c, 0, 64, 87
1, 224821, Control_c, 0, 64, 88
1, 224821, Control_c, 0, 67, 39
1, 224836, Control_c, 0, 64, 89
1, 224836, Control_c, 0, 67, 50
1, 224850, Control_c, 0, 64, 91
1, 224850, Control_c, 0, 67, 56
1, 224865, Control_c, 0, 64, 92
1, 224865, Control_c, 0, 67, 61
1, 224880, Control_c, 0, 64, 92
1, 224880, Control_c, 0, 67, 62
1, 224881, Note_on_c, 0, 70, 57
1, 224894, Control_c, 0, 64, 93
1, 224909, Control_c, 0, 67, 63
1, 224924, Control_c, 0, 64, 93
1, 224924, Control_c, 0, 67, 64
1, 224939, Control_c, 0, 64, 94
1, 224939, Control_c, 0, 67, 65
1, 224954, Control_c, 0, 67, 66
1, 224969, Control_c, 0, 67, 66
1, 224983, Control_c, 0, 67, 67
1, 224986, Note_off_c, 0, 70, 62
1, 224998, Note_on_c, 0, 82, 82
1, 224998, Control_c, 0, 64, 94
1, 224998, Control_c, 0, 67, 69
1, 225013, Control_c, 0, 67, 81
1, 225016, Note_on_c, 0, 73, 59
1, 225028, Control_c, 0, 67, 105
1, 225043, Control_c, 0, 67, 118
1, 225058, Control_c, 0, 67, 125
1, 225073, Control_c, 0, 67, 127
1, 225112, Note_off_c, 0, 73, 58
1, 225145, Note_on_c, 0, 77, 67
1, 225226, Note_off_c, 0, 77, 56
1, 225270, Note_on_c, 0, 69, 66
1, 225362, Control_c, 0, 64, 94
1, 225376, Control_c, 0, 64, 89
1, 225391, Control_c, 0, 64, 74
1, 225398, Note_off_c, 0, 69, 59
1, 225406, Control_c, 0, 64, 60
1, 225411, Note_on_c, 0, 83, 77
1, 225420, Control_c, 0, 64, 40
1, 225423, Note_on_c, 0, 68, 54
1, 225435, Control_c, 0, 64, 30
1, 225437, Note_off_c, 0, 82, 61
1, 225466, Control_c, 0, 64, 37
1, 225481, Control_c, 0, 64, 48
1, 225495, Control_c, 0, 64, 60
1, 225510, Control_c, 0, 64, 66
1, 225525, Control_c, 0, 64, 69
1, 225540, Control_c, 0, 64, 73
1, 225541, Note_off_c, 0, 68, 60
1, 225544, Note_on_c, 0, 72, 63
1, 225556, Control_c, 0, 64, 75
1, 225571, Control_c, 0, 64, 77
1, 225586, Control_c, 0, 64, 79
1, 225600, Control_c, 0, 64, 82
1, 225615, Control_c, 0, 64, 85
1, 225630, Control_c, 0, 64, 87
1, 225639, Note_off_c, 0, 72, 58
1, 225644, Control_c, 0, 64, 88
1, 225659, Control_c, 0, 64, 90
1, 225669, Note_on_c, 0, 76, 64
1, 225674, Control_c, 0, 64, 91
1, 225689, Control_c, 0, 64, 92
1, 225704, Control_c, 0, 64, 93
1, 225718, Control_c, 0, 64, 94
1, 225723, Note_off_c, 0, 83, 60
1, 225733, Control_c, 0, 64, 95
1, 225735, Note_on_c, 0, 88, 77
1, 225763, Control_c, 0, 64, 97
1, 225767, Note_off_c, 0, 76, 63
1, 225798, Note_on_c, 0, 83, 84
1, 225806, Note_on_c, 0, 79, 48
1, 225812, Note_off_c, 0, 88, 64
1, 225822, Control_c, 0, 64, 99
1, 225866, Control_c, 0, 64, 102
1, 225896, Control_c, 0, 64, 104
1, 225908, Note_off_c, 0, 79, 63
1, 225913, Poly_aftertouch_c, 0, 80, 0
1, 225940, Control_c, 0, 64, 106
1, 225941, Note_on_c, 0, 82, 67
1, 226009, Note_off_c, 0, 82, 61
1, 226050, Note_on_c, 0, 75, 72
1, 226074, Note_off_c, 0, 75, 71
1, 226200, Control_c, 0, 64, 98
1, 226214, Control_c, 0, 64, 84
1, 226227, Note_on_c, 0, 82, 76
1, 226229, Control_c, 0, 64, 69
1, 226243, Control_c, 0, 64, 55
1, 226244, Note_on_c, 0, 55, 48
1, 226249, Note_off_c, 0, 83, 58
1, 226258, Control_c, 0, 64, 44
1, 226273, Control_c, 0, 64, 43
1, 226288, Control_c, 0, 64, 45
1, 226303, Control_c, 0, 64, 51
1, 226317, Control_c, 0, 64, 56
1, 226332, Control_c, 0, 64, 61
1, 226348, Control_c, 0, 64, 64
1, 226351, Note_off_c, 0, 55, 62
1, 226363, Control_c, 0, 64, 66
1, 226378, Control_c, 0, 64, 68
1, 226384, Note_on_c, 0, 58, 52
1, 226393, Control_c, 0, 64, 69
1, 226408, Control_c, 0, 64, 71
1, 226422, Control_c, 0, 64, 73
1, 226437, Control_c, 0, 64, 75
1, 226452, Control_c, 0, 64, 76
1, 226466, Control_c, 0, 64, 77
1, 226481, Control_c, 0, 64, 78
1, 226496, Control_c, 0, 64, 78
1, 226509, Note_off_c, 0, 58, 58
1, 226531, Note_on_c, 0, 62, 50
1, 226540, Control_c, 0, 64, 79
1, 226642, Note_off_c, 0, 62, 62
1, 226683, Note_on_c, 0, 65, 41
1, 226777, Note_off_c, 0, 65, 59
1, 226831, Note_on_c, 0, 69, 49
1, 226844, Control_c, 0, 64, 78
1, 226933, Note_off_c, 0, 69, 34
1, 226958, Note_on_c, 0, 79, 59
1, 226963, Note_off_c, 0, 82, 57
1, 226978, Control_c, 0, 64, 78
1, 226980, Note_on_c, 0, 61, 48
1, 226992, Control_c, 0, 64, 77
1, 227001, Note_off_c, 0, 79, 57
1, 227007, Control_c, 0, 64, 74
1, 227022, Control_c, 0, 64, 67
1, 227023, Note_on_c, 0, 88, 74
1, 227037, Control_c, 0, 64, 57
1, 227052, Control_c, 0, 64, 33
1, 227066, Control_c, 0, 64, 0
1, 227083, Note_off_c, 0, 61, 60
1, 227086, Note_off_c, 0, 88, 64
1, 227104, Note_on_c, 0, 87, 64
1, 227115, Note_on_c, 0, 60, 45
1, 227201, Control_c, 0, 64, 47
1, 227216, Control_c, 0, 64, 62
1, 227231, Control_c, 0, 64, 66
1, 227245, Control_c, 0, 64, 69
1, 227250, Note_off_c, 0, 60, 58
1, 227260, Control_c, 0, 64, 71
1, 227265, Note_on_c, 0, 64, 45
1, 227275, Control_c, 0, 64, 72
1, 227289, Control_c, 0, 64, 73
1, 227304, Control_c, 0, 64, 75
1, 227319, Control_c, 0, 64, 76
1, 227334, Control_c, 0, 64, 78
1, 227349, Control_c, 0, 64, 81
1, 227363, Control_c, 0, 64, 83
1, 227368, Note_off_c, 0, 64, 61
1, 227378, Control_c, 0, 64, 84
1, 227382, Note_on_c, 0, 68, 60
1, 227385, Note_off_c, 0, 87, 63
1, 227393, Control_c, 0, 64, 85
1, 227408, Control_c, 0, 64, 86
1, 227423, Control_c, 0, 64, 87
1, 227437, Control_c, 0, 64, 87
1, 227452, Control_c, 0, 64, 88
1, 227481, Control_c, 0, 64, 88
1, 227496, Note_off_c, 0, 68, 62
1, 227523, Note_on_c, 0, 71, 70
1, 227534, Control_c, 0, 64, 89
1, 227608, Control_c, 0, 64, 89
1, 227637, Control_c, 0, 64, 90
1, 227644, Note_off_c, 0, 71, 51
1, 227663, Note_on_c, 0, 75, 69
1, 227665, Note_on_c, 0, 86, 76
1, 227667, Control_c, 0, 64, 90
1, 227682, Control_c, 0, 64, 91
1, 227711, Control_c, 0, 64, 91
1, 227725, Note_on_c, 0, 87, 74
1, 227725, Note_off_c, 0, 86, 63
1, 227726, Control_c, 0, 64, 92
1, 227741, Control_c, 0, 64, 92
1, 227756, Control_c, 0, 64, 93
1, 227785, Note_on_c, 0, 90, 73
1, 227791, Note_off_c, 0, 87, 64
1, 227792, Note_on_c, 0, 67, 53
1, 227800, Control_c, 0, 64, 92
1, 227815, Control_c, 0, 64, 87
1, 227830, Control_c, 0, 64, 72
1, 227839, Note_off_c, 0, 90, 64
1, 227845, Control_c, 0, 64, 58
1, 227848, Note_off_c, 0, 75, 50
1, 227857, Note_on_c, 0, 95, 70
1, 227860, Control_c, 0, 64, 44
1, 227875, Control_c, 0, 64, 40
1, 227889, Control_c, 0, 64, 41
1, 227899, Note_off_c, 0, 67, 61
1, 227904, Control_c, 0, 64, 47
1, 227905, Note_off_c, 0, 95, 66
1, 227907, Note_on_c, 0, 94, 79
1, 227919, Control_c, 0, 64, 53
1, 227929, Note_on_c, 0, 66, 62
1, 227934, Control_c, 0, 64, 58
1, 227949, Control_c, 0, 64, 60
1, 227964, Note_off_c, 0, 94, 65
1, 227964, Control_c, 0, 64, 61
1, 227976, Note_on_c, 0, 92, 74
1, 227979, Control_c, 0, 64, 62
1, 227994, Control_c, 0, 64, 62
1, 228009, Control_c, 0, 64, 63
1, 228043, Note_off_c, 0, 92, 65
1, 228046, Note_on_c, 0, 93, 77
1, 228053, Control_c, 0, 64, 61
1, 228064, Note_on_c, 0, 70, 49
1, 228068, Control_c, 0, 64, 57
1, 228083, Control_c, 0, 64, 51
1, 228093, Note_off_c, 0, 93, 58
1, 228098, Control_c, 0, 64, 46
1, 228103, Note_off_c, 0, 66, 63
1, 228105, Note_on_c, 0, 89, 66
1, 228112, Control_c, 0, 64, 43
1, 228113, Note_off_c, 0, 70, 58
1, 228127, Control_c, 0, 64, 41
1, 228132, Note_on_c, 0, 74, 61
1, 228164, Note_on_c, 0, 90, 72
1, 228164, Note_off_c, 0, 89, 62
1, 228186, Control_c, 0, 64, 42
1, 228201, Control_c, 0, 64, 43
1, 228216, Control_c, 0, 64, 46
1, 228221, Note_on_c, 0, 91, 67
1, 228226, Note_off_c, 0, 90, 61
1, 228231, Control_c, 0, 64, 50
1, 228245, Control_c, 0, 64, 55
1, 228268, Control_c, 0, 64, 59
1, 228275, Note_on_c, 0, 92, 76
1, 228283, Control_c, 0, 64, 61
1, 228289, Note_off_c, 0, 91, 63
1, 228298, Control_c, 0, 64, 62
1, 228298, Note_on_c, 0, 77, 51
1, 228313, Control_c, 0, 64, 62
1, 228319, Note_off_c, 0, 74, 57
1, 228327, Control_c, 0, 64, 63
1, 228340, Note_off_c, 0, 92, 66
1, 228342, Control_c, 0, 64, 64
1, 228349, Note_on_c, 0, 90, 74
1, 228357, Control_c, 0, 64, 65
1, 228372, Control_c, 0, 64, 66
1, 228373, Note_off_c, 0, 77, 63
1, 228387, Control_c, 0, 64, 68
1, 228401, Control_c, 0, 64, 70
1, 228411, Note_on_c, 0, 81, 57
1, 228411, Note_on_c, 0, 91, 67
1, 228416, Control_c, 0, 64, 72
1, 228431, Control_c, 0, 64, 73
1, 228438, Note_off_c, 0, 91, 58
1, 228445, Control_c, 0, 64, 74
1, 228447, Note_off_c, 0, 90, 43
1, 228475, Control_c, 0, 64, 74
1, 228477, Note_on_c, 0, 87, 74
1, 228499, Note_off_c, 0, 81, 48
1, 228501, Note_off_c, 0, 87, 66
1, 228505, Control_c, 0, 64, 75
1, 228519, Control_c, 0, 64, 75
1, 228529, Note_on_c, 0, 73, 62
1, 228532, Note_on_c, 0, 88, 78
1, 228534, Control_c, 0, 64, 77
1, 228549, Control_c, 0, 64, 79
1, 228563, Control_c, 0, 64, 80
1, 228578, Note_off_c, 0, 88, 67
1, 228578, Control_c, 0, 64, 80
1, 228584, Note_on_c, 0, 89, 68
1, 228599, Note_off_c, 0, 89, 63
1, 228608, Control_c, 0, 64, 80
1, 228623, Control_c, 0, 64, 75
1, 228627, Note_off_c, 0, 73, 59
1, 228638, Control_c, 0, 64, 66
1, 228651, Note_on_c, 0, 72, 74
1, 228653, Control_c, 0, 64, 53
1, 228664, Note_on_c, 0, 97, 88
1, 228668, Control_c, 0, 64, 47
1, 228683, Control_c, 0, 64, 46
1, 228698, Control_c, 0, 64, 47
1, 228712, Control_c, 0, 64, 50
1, 228714, Note_on_c, 0, 95, 74
1, 228725, Note_off_c, 0, 97, 65
1, 228727, Control_c, 0, 64, 53
1, 228742, Control_c, 0, 64, 55
1, 228757, Control_c, 0, 64, 55
1, 228782, Note_off_c, 0, 95, 66
1, 228785, Note_on_c, 0, 76, 73
1, 228790, Note_off_c, 0, 72, 59
1, 228794, Note_on_c, 0, 96, 77
1, 228802, Control_c, 0, 64, 56
1, 228817, Control_c, 0, 64, 57
1, 228838, Note_off_c, 0, 96, 64
1, 228847, Control_c, 0, 64, 57
1, 228853, Note_on_c, 0, 92, 80
1, 228861, Control_c, 0, 64, 58
1, 228902, Note_on_c, 0, 80, 80
1, 228906, Note_off_c, 0, 76, 64
1, 228907, Note_off_c, 0, 92, 65
1, 228917, Note_on_c, 0, 93, 77
1, 228921, Control_c, 0, 64, 58
1, 228965, Control_c, 0, 64, 58
1, 228966, Note_on_c, 0, 94, 71
1, 228981, Note_off_c, 0, 93, 62
1, 228995, Control_c, 0, 64, 57
1, 229017, Control_c, 0, 64, 57
1, 229027, Note_off_c, 0, 94, 64
1, 229037, Note_on_c, 0, 95, 71
1, 229043, Note_off_c, 0, 80, 62
1, 229046, Control_c, 0, 64, 56
1, 229052, Note_on_c, 0, 83, 77
1, 229091, Control_c, 0, 64, 56
1, 229103, Note_off_c, 0, 95, 66
1, 229106, Control_c, 0, 64, 55
1, 229108, Note_on_c, 0, 93, 71
1, 229145, Note_off_c, 0, 83, 61
1, 229150, Control_c, 0, 64, 56
1, 229161, Note_on_c, 0, 87, 67
1, 229161, Note_off_c, 0, 93, 63
1, 229162, Note_on_c, 0, 94, 72
1, 229165, Control_c, 0, 64, 58
1, 229180, Control_c, 0, 64, 61
1, 229195, Control_c, 0, 64, 64
1, 229197, Note_off_c, 0, 94, 63
1, 229210, Control_c, 0, 64, 67
1, 229225, Control_c, 0, 64, 69
1, 229230, Note_on_c, 0, 90, 73
1, 229240, Control_c, 0, 64, 72
1, 229241, Note_off_c, 0, 87, 57
1, 229255, Control_c, 0, 64, 75
1, 229269, Control_c, 0, 64, 77
1, 229272, Note_on_c, 0, 79, 65
1, 229276, Note_off_c, 0, 90, 63
1, 229284, Control_c, 0, 64, 78
1, 229285, Note_on_c, 0, 91, 70
1, 229299, Control_c, 0, 64, 79
1, 229314, Control_c, 0, 64, 79
1, 229315, Note_off_c, 0, 79, 64
1, 229334, Note_on_c, 0, 93, 83
1, 229340, Note_off_c, 0, 91, 66
1, 229357, Note_off_c, 0, 93, 64
1, 229358, Control_c, 0, 64, 79
1, 229387, Control_c, 0, 64, 78
1, 229402, Control_c, 0, 64, 76
1, 229404, Note_on_c, 0, 81, 86
1, 229414, Note_on_c, 0, 78, 67
1, 229417, Control_c, 0, 64, 75
1, 229432, Control_c, 0, 64, 74
1, 229446, Note_off_c, 0, 78, 61
1, 229447, Control_c, 0, 64, 73
1, 229461, Control_c, 0, 64, 73
1, 229476, Control_c, 0, 64, 72
1, 229478, Note_on_c, 0, 76, 70
1, 229491, Control_c, 0, 64, 71
1, 229506, Control_c, 0, 64, 70
1, 229514, Note_off_c, 0, 81, 62
1, 229521, Control_c, 0, 64, 68
1, 229529, Note_off_c, 0, 76, 65
1, 229536, Note_on_c, 0, 84, 79
1, 229537, Control_c, 0, 64, 66
1, 229552, Control_c, 0, 64, 64
1, 229566, Control_c, 0, 64, 62
1, 229573, Note_on_c, 0, 77, 68
1, 229581, Control_c, 0, 64, 62
1, 229613, Note_off_c, 0, 77, 51
1, 229631, Note_on_c, 0, 73, 65
1, 229677, Note_on_c, 0, 88, 84
1, 229677, Note_off_c, 0, 73, 56
1, 229686, Note_on_c, 0, 74, 65
1, 229693, Note_off_c, 0, 84, 63
1, 229740, Note_off_c, 0, 74, 65
1, 229743, Note_on_c, 0, 75, 66
1, 229789, Note_off_c, 0, 88, 64
1, 229803, Note_on_c, 0, 91, 84
1, 229807, Note_off_c, 0, 75, 65
1, 229820, Note_on_c, 0, 76, 65
1, 229854, Note_off_c, 0, 76, 63
1, 229862, Note_on_c, 0, 74, 65
1, 229870, Control_c, 0, 64, 61
1, 229885, Control_c, 0, 64, 60
1, 229890, Note_off_c, 0, 74, 68
1, 229912, Note_off_c, 0, 91, 64
1, 229917, Note_on_c, 0, 75, 72
1, 229924, Note_on_c, 0, 95, 86
1, 229929, Control_c, 0, 64, 61
1, 229944, Control_c, 0, 64, 63
1, 229958, Control_c, 0, 64, 65
1, 229970, Note_off_c, 0, 75, 60
1, 229972, Control_c, 0, 64, 68
1, 229987, Control_c, 0, 64, 71
1, 229988, Note_on_c, 0, 72, 57
1, 230002, Control_c, 0, 64, 74
1, 230016, Control_c, 0, 64, 77
1, 230017, Note_off_c, 0, 72, 66
1, 230031, Control_c, 0, 64, 81
1, 230031, Control_c, 0, 67, 125
1, 230039, Note_on_c, 0, 73, 62
1, 230046, Control_c, 0, 64, 85
1, 230046, Control_c, 0, 67, 104
1, 230053, Note_on_c, 0, 87, 84
1, 230061, Control_c, 0, 64, 89
1, 230061, Control_c, 0, 67, 83
1, 230066, Note_off_c, 0, 95, 64
1, 230076, Control_c, 0, 64, 96
1, 230076, Control_c, 0, 67, 66
1, 230086, Note_off_c, 0, 73, 63
1, 230088, Note_on_c, 0, 74, 77
1, 230090, Control_c, 0, 64, 102
1, 230090, Control_c, 0, 67, 56
1, 230105, Control_c, 0, 64, 107
1, 230105, Control_c, 0, 67, 53
1, 230110, Note_off_c, 0, 74, 71
1, 230120, Control_c, 0, 64, 109
1, 230150, Control_c, 0, 67, 54
1, 230161, Note_off_c, 0, 87, 64
1, 230164, Control_c, 0, 67, 56
1, 230179, Control_c, 0, 64, 97
1, 230179, Control_c, 0, 67, 58
1, 230181, Note_on_c, 0, 86, 91
1, 230186, Note_on_c, 0, 83, 80
1, 230194, Control_c, 0, 64, 84
1, 230194, Control_c, 0, 67, 60
1, 230209, Control_c, 0, 64, 74
1, 230209, Control_c, 0, 67, 60
1, 230224, Control_c, 0, 64, 66
1, 230224, Control_c, 0, 67, 61
1, 230239, Control_c, 0, 64, 61
1, 230248, Note_on_c, 0, 81, 67
1, 230248, Note_off_c, 0, 83, 61
1, 230254, Control_c, 0, 64, 61
1, 230269, Control_c, 0, 64, 61
1, 230283, Control_c, 0, 64, 63
1, 230298, Control_c, 0, 64, 63
1, 230301, Note_off_c, 0, 81, 63
1, 230310, Note_on_c, 0, 82, 71
1, 230313, Control_c, 0, 64, 64
1, 230315, Note_on_c, 0, 90, 89
1, 230328, Note_off_c, 0, 86, 62
1, 230328, Control_c, 0, 64, 64
1, 230343, Control_c, 0, 64, 65
1, 230358, Control_c, 0, 64, 67
1, 230370, Note_off_c, 0, 82, 61
1, 230373, Control_c, 0, 64, 70
1, 230388, Control_c, 0, 64, 73
1, 230389, Note_on_c, 0, 78, 68
1, 230403, Control_c, 0, 64, 76
1, 230418, Control_c, 0, 64, 78
1, 230424, Note_off_c, 0, 78, 60
1, 230432, Control_c, 0, 64, 80
1, 230432, Control_c, 0, 67, 62
1, 230434, Note_on_c, 0, 94, 95
1, 230439, Note_on_c, 0, 80, 72
1, 230444, Note_off_c, 0, 90, 63
1, 230447, Control_c, 0, 64, 81
1, 230447, Control_c, 0, 67, 64
1, 230462, Control_c, 0, 64, 82
1, 230462, Control_c, 0, 67, 67
1, 230477, Control_c, 0, 67, 68
1, 230492, Control_c, 0, 67, 70
1, 230510, Note_on_c, 0, 81, 64
1, 230513, Control_c, 0, 64, 81
1, 230513, Control_c, 0, 67, 70
1, 230528, Control_c, 0, 64, 79
1, 230528, Control_c, 0, 67, 71
1, 230543, Control_c, 0, 67, 71
1, 230552, Note_off_c, 0, 80, 59
1, 230565, Note_on_c, 0, 97, 92
1, 230567, Note_off_c, 0, 81, 58
1, 230573, Note_on_c, 0, 82, 69
1, 230573, Control_c, 0, 64, 80
1, 230588, Control_c, 0, 64, 83
1, 230596, Note_off_c, 0, 94, 58
1, 230602, Control_c, 0, 64, 89
1, 230617, Control_c, 0, 64, 96
1, 230617, Control_c, 0, 67, 71
1, 230619, Note_off_c, 0, 82, 60
1, 230631, Note_on_c, 0, 80, 66
1, 230632, Control_c, 0, 64, 101
1, 230632, Control_c, 0, 67, 70
1, 230647, Control_c, 0, 64, 107
1, 230647, Control_c, 0, 67, 70
1, 230662, Control_c, 0, 64, 112
1, 230662, Control_c, 0, 67, 69
1, 230668, Note_off_c, 0, 80, 60
1, 230677, Control_c, 0, 64, 117
1, 230677, Control_c, 0, 67, 68
1, 230681, Note_off_c, 0, 97, 63
1, 230692, Control_c, 0, 64, 120
1, 230710, Note_on_c, 0, 100, 91
1, 230721, Control_c, 0, 64, 124
1, 230724, Note_on_c, 0, 81, 73
1, 230778, Note_off_c, 0, 81, 63
1, 230781, Note_on_c, 0, 77, 59
1, 230781, Control_c, 0, 67, 68
1, 230795, Control_c, 0, 67, 69
1, 230810, Control_c, 0, 67, 70
1, 230825, Control_c, 0, 67, 71
1, 230833, Note_off_c, 0, 77, 58
1, 230836, Note_on_c, 0, 78, 68
1, 230836, Note_off_c, 0, 100, 64
1, 230840, Control_c, 0, 64, 127
1, 230840, Control_c, 0, 67, 72
1, 230856, Note_on_c, 0, 93, 86
1, 230881, Note_off_c, 0, 78, 58
1, 230907, Note_on_c, 0, 79, 78
1, 230914, Control_c, 0, 67, 71
1, 230921, Note_off_c, 0, 93, 63
1, 230929, Control_c, 0, 67, 70
1, 230936, Note_off_c, 0, 79, 58
1, 230944, Control_c, 0, 67, 68
1, 230959, Control_c, 0, 67, 66
1, 230974, Control_c, 0, 67, 64
1, 230988, Control_c, 0, 64, 124
1, 230988, Control_c, 0, 67, 64
1, 231003, Control_c, 0, 64, 105
1, 231018, Control_c, 0, 64, 94
1, 231018, Control_c, 0, 67, 63
1, 231026, Note_on_c, 0, 82, 80
1, 231026, Note_on_c, 0, 92, 76
1, 231032, Control_c, 0, 64, 85
1, 231035, Note_on_c, 0, 64, 61
1, 231035, Note_on_c, 0, 65, 59
1, 231040, Note_on_c, 0, 76, 53
1, 231047, Control_c, 0, 64, 79
1, 231047, Control_c, 0, 67, 64
1, 231061, Note_off_c, 0, 76, 60
1, 231062, Control_c, 0, 64, 77
1, 231067, Note_off_c, 0, 65, 63
1, 231069, Note_off_c, 0, 64, 64
1, 231077, Control_c, 0, 64, 76
1, 231077, Control_c, 0, 67, 64
1, 231081, Note_off_c, 0, 82, 63
1, 231092, Control_c, 0, 64, 76
1, 231092, Control_c, 0, 67, 65
1, 231094, Note_off_c, 0, 92, 62
1, 231106, Control_c, 0, 64, 75
1, 231121, Control_c, 0, 64, 75
1, 231125, Note_on_c, 0, 83, 78
1, 231137, Control_c, 0, 64, 74
1, 231152, Control_c, 0, 64, 71
1, 231167, Control_c, 0, 64, 68
1, 231182, Control_c, 0, 64, 65
1, 231197, Control_c, 0, 64, 63
1, 231199, Note_on_c, 0, 76, 59
1, 231199, Note_off_c, 0, 83, 63
1, 231205, Note_on_c, 0, 91, 70
1, 231206, Note_on_c, 0, 64, 51
1, 231206, Note_on_c, 0, 84, 78
1, 231211, Control_c, 0, 64, 62
1, 231227, Note_off_c, 0, 76, 66
1, 231239, Note_off_c, 0, 64, 63
1, 231267, Note_off_c, 0, 91, 66
1, 231294, Note_on_c, 0, 85, 84
1, 231296, Note_off_c, 0, 84, 60
1, 231308, Control_c, 0, 67, 66
1, 231349, Note_on_c, 0, 76, 62
1, 231350, Note_on_c, 0, 90, 79
1, 231353, Note_off_c, 0, 85, 64
1, 231360, Note_on_c, 0, 67, 57
1, 231368, Note_on_c, 0, 64, 38
1, 231371, Note_on_c, 0, 86, 79
1, 231380, Note_off_c, 0, 76, 66
1, 231391, Note_off_c, 0, 67, 66
1, 231402, Note_off_c, 0, 64, 55
1, 231419, Note_off_c, 0, 90, 64
1, 231435, Note_off_c, 0, 86, 62
1, 231440, Note_on_c, 0, 87, 77
1, 231441, Control_c, 0, 67, 66
1, 231488, Note_on_c, 0, 89, 90
1, 231498, Note_on_c, 0, 76, 75
1, 231499, Note_off_c, 0, 87, 65
1, 231500, Note_on_c, 0, 88, 83
1, 231500, Note_on_c, 0, 69, 71
1, 231500, Control_c, 0, 67, 67
1, 231503, Note_on_c, 0, 64, 60
1, 231525, Note_off_c, 0, 76, 64
1, 231536, Note_off_c, 0, 64, 64
1, 231537, Note_off_c, 0, 69, 60
1, 231559, Note_off_c, 0, 89, 60
1, 231559, Control_c, 0, 64, 62
1, 231567, Note_off_c, 0, 88, 65
1, 231573, Note_on_c, 0, 87, 81
1, 231610, Note_on_c, 0, 90, 78
1, 231625, Note_off_c, 0, 87, 66
1, 231628, Note_on_c, 0, 76, 77
1, 231634, Control_c, 0, 67, 66
1, 231640, Note_on_c, 0, 86, 78
1, 231642, Note_on_c, 0, 70, 69
1, 231647, Note_on_c, 0, 64, 38
1, 231651, Note_off_c, 0, 76, 68
1, 231663, Control_c, 0, 67, 66
1, 231667, Note_off_c, 0, 70, 68
1, 231676, Note_off_c, 0, 64, 56
1, 231678, Control_c, 0, 64, 62
1, 231693, Control_c, 0, 64, 63
1, 231707, Note_off_c, 0, 86, 65
1, 231708, Control_c, 0, 64, 65
1, 231708, Control_c, 0, 67, 65
1, 231714, Note_on_c, 0, 85, 74
1, 231717, Note_on_c, 0, 91, 74
1, 231719, Note_off_c, 0, 90, 62
1, 231723, Control_c, 0, 64, 68
1, 231737, Control_c, 0, 64, 70
1, 231752, Control_c, 0, 64, 71
1, 231765, Note_on_c, 0, 64, 64
1, 231767, Control_c, 0, 67, 64
1, 231770, Note_on_c, 0, 71, 82
1, 231778, Note_on_c, 0, 84, 84
1, 231780, Note_off_c, 0, 91, 65
1, 231781, Control_c, 0, 64, 69
1, 231781, Control_c, 0, 67, 63
1, 231784, Note_off_c, 0, 85, 65
1, 231796, Control_c, 0, 64, 65
1, 231796, Control_c, 0, 67, 60
1, 231803, Note_off_c, 0, 71, 57
1, 231804, Note_off_c, 0, 64, 65
1, 231811, Control_c, 0, 64, 58
1, 231811, Control_c, 0, 67, 56
1, 231824, Note_off_c, 0, 84, 64
1, 231826, Control_c, 0, 64, 53
1, 231826, Control_c, 0, 67, 51
1, 231839, Note_on_c, 0, 83, 77
1, 231841, Control_c, 0, 64, 51
1, 231841, Control_c, 0, 67, 47
1, 231855, Control_c, 0, 64, 53
1, 231855, Control_c, 0, 67, 42
1, 231870, Control_c, 0, 64, 58
1, 231870, Control_c, 0, 67, 0
1, 231885, Control_c, 0, 64, 63
1, 231895, Note_on_c, 0, 82, 96
1, 231896, Note_on_c, 0, 92, 97
1, 231900, Control_c, 0, 64, 66
1, 231902, Note_off_c, 0, 83, 64
1, 231903, Note_on_c, 0, 72, 87
1, 231912, Note_on_c, 0, 64, 73
1, 231915, Control_c, 0, 64, 67
1, 231931, Note_off_c, 0, 72, 62
1, 231938, Note_off_c, 0, 64, 69
1, 231946, Control_c, 0, 64, 67
1, 231947, Note_off_c, 0, 92, 67
1, 231950, Note_off_c, 0, 82, 63
1, 231960, Control_c, 0, 64, 66
1, 231966, Note_on_c, 0, 83, 75
1, 231975, Control_c, 0, 64, 65
1, 231990, Control_c, 0, 64, 64
1, 232012, Control_c, 0, 64, 63
1, 232027, Note_on_c, 0, 91, 87
1, 232029, Note_on_c, 0, 84, 90
1, 232030, Note_off_c, 0, 83, 67
1, 232039, Note_on_c, 0, 73, 83
1, 232051, Note_on_c, 0, 64, 49
1, 232071, Note_off_c, 0, 64, 63
1, 232072, Control_c, 0, 64, 64
1, 232073, Note_off_c, 0, 84, 66
1, 232075, Note_off_c, 0, 73, 59
1, 232086, Control_c, 0, 64, 64
1, 232094, Note_off_c, 0, 91, 64
1, 232101, Control_c, 0, 64, 66
1, 232113, Note_on_c, 0, 85, 90
1, 232116, Control_c, 0, 64, 68
1, 232131, Control_c, 0, 64, 70
1, 232146, Control_c, 0, 64, 71
1, 232158, Note_on_c, 0, 74, 98
1, 232160, Note_on_c, 0, 64, 73
1, 232160, Control_c, 0, 64, 72
1, 232161, Note_on_c, 0, 86, 93
1, 232166, Note_off_c, 0, 85, 66
1, 232170, Note_on_c, 0, 90, 86
1, 232190, Control_c, 0, 64, 71
1, 232193, Note_off_c, 0, 64, 64
1, 232194, Note_off_c, 0, 74, 61
1, 232206, Control_c, 0, 64, 71
1, 232214, Note_off_c, 0, 86, 65
1, 232220, Control_c, 0, 64, 70
1, 232230, Note_off_c, 0, 90, 64
1, 232235, Control_c, 0, 64, 69
1, 232245, Note_on_c, 0, 87, 89
1, 232250, Control_c, 0, 64, 69
1, 232265, Control_c, 0, 64, 68
1, 232292, Note_on_c, 0, 75, 97
1, 232293, Note_on_c, 0, 89, 86
1, 232294, Note_on_c, 0, 64, 84
1, 232294, Control_c, 0, 64, 68
1, 232296, Note_on_c, 0, 88, 83
1, 232301, Note_off_c, 0, 87, 66
1, 232309, Control_c, 0, 64, 67
1, 232319, Note_off_c, 0, 64, 65
1, 232324, Control_c, 0, 64, 65
1, 232329, Note_off_c, 0, 75, 60
1, 232339, Control_c, 0, 64, 63
1, 232354, Control_c, 0, 64, 62
1, 232368, Control_c, 0, 64, 61
1, 232373, Note_off_c, 0, 88, 63
1, 232375, Note_on_c, 0, 87, 92
1, 232376, Note_off_c, 0, 89, 65
1, 232415, Note_on_c, 0, 90, 77
1, 232433, Note_off_c, 0, 87, 64
1, 232438, Note_on_c, 0, 76, 100
1, 232442, Control_c, 0, 64, 61
1, 232448, Note_on_c, 0, 86, 76
1, 232448, Note_on_c, 0, 64, 78
1, 232449, Note_on_c, 0, 84, 80
1, 232470, Note_off_c, 0, 76, 66
1, 232472, Note_off_c, 0, 64, 68
1, 232486, Control_c, 0, 64, 60
1, 232501, Control_c, 0, 64, 60
1, 232508, Note_off_c, 0, 84, 66
1, 232509, Note_on_c, 0, 85, 88
1, 232513, Note_off_c, 0, 86, 68
1, 232514, Note_off_c, 0, 90, 66
1, 232531, Control_c, 0, 64, 59
1, 232581, Note_on_c, 0, 76, 104
1, 232582, Note_on_c, 0, 64, 73
1, 232585, Note_on_c, 0, 91, 91
1, 232589, Note_off_c, 0, 85, 63
1, 232590, Note_on_c, 0, 86, 89
1, 232614, Note_off_c, 0, 76, 70
1, 232615, Note_off_c, 0, 64, 67
1, 232635, Control_c, 0, 64, 60
1, 232635, Note_off_c, 0, 86, 65
1, 232650, Control_c, 0, 64, 61
1, 232663, Note_on_c, 0, 83, 94
1, 232665, Control_c, 0, 64, 62
1, 232678, Note_off_c, 0, 91, 65
1, 232679, Control_c, 0, 64, 65
1, 232694, Control_c, 0, 64, 68
1, 232709, Control_c, 0, 64, 70
1, 232724, Control_c, 0, 64, 71
1, 232740, Control_c, 0, 64, 70
1, 232749, Note_off_c, 0, 83, 65
1, 232762, Control_c, 0, 64, 63
1, 232777, Control_c, 0, 64, 42
1, 232787, Note_on_c, 0, 77, 106
1, 232788, Note_on_c, 0, 82, 106
1, 232791, Note_on_c, 0, 70, 99
1, 232791, Control_c, 0, 64, 0
1, 232792, Note_on_c, 0, 64, 96
1, 232793, Note_on_c, 0, 92, 104
1, 232823, Note_on_c, 0, 65, 52
1, 232823, Note_off_c, 0, 65, 127
1, 232865, Control_c, 0, 64, 49
1, 232880, Control_c, 0, 64, 64
1, 232888, Note_off_c, 0, 82, 62
1, 232895, Control_c, 0, 64, 67
1, 232939, Control_c, 0, 64, 68
1, 232954, Control_c, 0, 64, 71
1, 232967, Note_on_c, 0, 82, 104
1, 232969, Control_c, 0, 64, 77
1, 232983, Control_c, 0, 64, 85
1, 232998, Control_c, 0, 64, 93
1, 233006, Note_off_c, 0, 82, 65
1, 233013, Control_c, 0, 64, 102
1, 233028, Control_c, 0, 64, 112
1, 233042, Control_c, 0, 64, 120
1, 233057, Control_c, 0, 64, 127
1, 233059, Note_on_c, 0, 82, 103
1, 233103, Note_off_c, 0, 82, 65
1, 233151, Note_off_c, 0, 77, 58
1, 233167, Note_on_c, 0, 82, 108
1, 233181, Note_off_c, 0, 64, 63
1, 233210, Note_off_c, 0, 92, 67
1, 233213, Note_off_c, 0, 70, 64
1, 233228, Note_off_c, 0, 82, 58
1, 233396, Note_on_c, 0, 79, 90
1, 233487, Note_on_c, 0, 80, 96
1, 233512, Note_off_c, 0, 79, 58
1, 233577, Note_on_c, 0, 91, 99
1, 233582, Note_on_c, 0, 83, 90
1, 233594, Note_off_c, 0, 80, 60
1, 233658, Note_off_c, 0, 83, 62
1, 233669, Note_off_c, 0, 91, 64
1, 233673, Note_on_c, 0, 90, 90
1, 233677, Note_on_c, 0, 94, 98
1, 233750, Note_off_c, 0, 94, 62
1, 233762, Note_on_c, 0, 91, 79
1, 233762, Control_c, 0, 64, 91
1, 233764, Note_on_c, 0, 85, 87
1, 233777, Control_c, 0, 64, 75
1, 233792, Control_c, 0, 64, 64
1, 233806, Control_c, 0, 64, 56
1, 233814, Note_off_c, 0, 90, 63
1, 233820, Note_off_c, 0, 91, 66
1, 233821, Control_c, 0, 64, 53
1, 233828, Note_off_c, 0, 85, 64
1, 233851, Control_c, 0, 64, 58
1, 233861, Note_on_c, 0, 82, 103
1, 233865, Control_c, 0, 64, 64
1, 233867, Note_on_c, 0, 93, 95
1, 233880, Control_c, 0, 64, 69
1, 233884, Note_off_c, 0, 93, 73
1, 233895, Control_c, 0, 64, 74
1, 233904, Note_off_c, 0, 82, 68
1, 233910, Control_c, 0, 64, 75
1, 233961, Note_on_c, 0, 82, 95
1, 233997, Note_off_c, 0, 82, 65
1, 234067, Note_on_c, 0, 82, 83
1, 234096, Note_off_c, 0, 82, 65
1, 234132, Control_c, 0, 64, 76
1, 234152, Note_on_c, 0, 82, 72
1, 234162, Control_c, 0, 64, 76
1, 234176, Control_c, 0, 64, 77
1, 234191, Control_c, 0, 64, 79
1, 234191, Note_off_c, 0, 82, 58
1, 234206, Control_c, 0, 64, 79
1, 234236, Control_c, 0, 64, 78
1, 234238, Note_on_c, 0, 76, 98
1, 234257, Control_c, 0, 64, 67
1, 234272, Control_c, 0, 64, 39
1, 234287, Control_c, 0, 64, 0
1, 234289, Note_off_c, 0, 76, 68
1, 234323, Note_on_c, 0, 79, 63
1, 234349, Note_on_c, 0, 76, 75
1, 234352, Note_on_c, 0, 77, 70
1, 234361, Note_off_c, 0, 79, 56
1, 234373, Note_off_c, 0, 77, 71
1, 234385, Note_off_c, 0, 76, 66
1, 234421, Note_on_c, 0, 80, 79
1, 234439, Note_on_c, 0, 76, 82
1, 234475, Note_off_c, 0, 76, 64
1, 234481, Note_off_c, 0, 80, 63
1, 234508, Note_on_c, 0, 83, 96
1, 234510, Control_c, 0, 64, 29
1, 234519, Note_on_c, 0, 76, 94
1, 234525, Control_c, 0, 64, 48
1, 234540, Control_c, 0, 64, 57
1, 234555, Control_c, 0, 64, 59
1, 234570, Control_c, 0, 64, 60
1, 234577, Note_off_c, 0, 76, 65
1, 234582, Note_off_c, 0, 83, 62
1, 234585, Control_c, 0, 64, 61
1, 234600, Control_c, 0, 64, 63
1, 234614, Control_c, 0, 64, 65
1, 234615, Note_on_c, 0, 90, 85
1, 234629, Control_c, 0, 64, 66
1, 234644, Control_c, 0, 64, 68
1, 234659, Control_c, 0, 64, 69
1, 234688, Control_c, 0, 64, 69
1, 234700, Note_on_c, 0, 71, 80
1, 234701, Note_on_c, 0, 85, 85
1, 234707, Note_off_c, 0, 90, 66
1, 234718, Control_c, 0, 64, 69
1, 234733, Control_c, 0, 64, 66
1, 234748, Control_c, 0, 64, 60
1, 234762, Control_c, 0, 64, 48
1, 234764, Note_off_c, 0, 85, 62
1, 234776, Note_off_c, 0, 71, 62
1, 234777, Control_c, 0, 64, 38
1, 234779, Note_on_c, 0, 76, 80
1, 234782, Note_on_c, 0, 82, 94
1, 234792, Control_c, 0, 64, 33
1, 234821, Control_c, 0, 64, 34
1, 234822, Note_off_c, 0, 82, 66
1, 234836, Control_c, 0, 64, 39
1, 234851, Control_c, 0, 64, 47
1, 234854, Note_on_c, 0, 80, 85
1, 234859, Note_off_c, 0, 76, 64
1, 234866, Control_c, 0, 64, 55
1, 234877, Note_on_c, 0, 82, 84
1, 234880, Control_c, 0, 64, 61
1, 234895, Control_c, 0, 64, 63
1, 234910, Control_c, 0, 64, 64
1, 234919, Note_off_c, 0, 80, 63
1, 234925, Control_c, 0, 64, 65
1, 234934, Note_off_c, 0, 82, 0
1, 234940, Note_on_c, 0, 84, 84
1, 234940, Control_c, 0, 64, 65
1, 234947, Note_on_c, 0, 82, 61
1, 234969, Control_c, 0, 64, 66
1, 234978, Note_off_c, 0, 84, 65
1, 234981, Note_off_c, 0, 82, 65
1, 234984, Control_c, 0, 64, 67
1, 235006, Control_c, 0, 64, 69
1, 235021, Control_c, 0, 64, 71
1, 235026, Note_on_c, 0, 79, 90
1, 235030, Note_on_c, 0, 82, 86
1, 235036, Control_c, 0, 64, 73
1, 235055, Note_off_c, 0, 82, 66
1, 235065, Note_off_c, 0, 79, 69
1, 235066, Control_c, 0, 64, 73
1, 235119, Note_on_c, 0, 76, 92
1, 235162, Note_off_c, 0, 76, 69
1, 235202, Note_on_c, 0, 76, 89
1, 235213, Note_on_c, 0, 67, 73
1, 235232, Note_on_c, 0, 65, 47
1, 235258, Note_off_c, 0, 65, 60
1, 235260, Note_off_c, 0, 76, 69
1, 235262, Note_off_c, 0, 67, 62
1, 235275, Control_c, 0, 64, 74
1, 235290, Control_c, 0, 64, 74
1, 235293, Note_on_c, 0, 68, 81
1, 235294, Note_on_c, 0, 76, 86
1, 235304, Control_c, 0, 64, 75
1, 235355, Note_off_c, 0, 76, 61
1, 235356, Note_on_c, 0, 71, 76
1, 235360, Note_off_c, 0, 68, 60
1, 235364, Control_c, 0, 64, 74
1, 235370, Note_on_c, 0, 76, 80
1, 235408, Note_off_c, 0, 76, 68
1, 235408, Control_c, 0, 64, 75
1, 235440, Note_off_c, 0, 71, 54
1, 235451, Note_on_c, 0, 78, 90
1, 235541, Note_on_c, 0, 59, 81
1, 235546, Note_on_c, 0, 73, 89
1, 235548, Note_off_c, 0, 78, 58
1, 235572, Control_c, 0, 64, 74
1, 235586, Control_c, 0, 64, 74
1, 235601, Control_c, 0, 64, 68
1, 235616, Control_c, 0, 64, 56
1, 235621, Note_off_c, 0, 59, 62
1, 235627, Note_on_c, 0, 64, 79
1, 235630, Control_c, 0, 64, 0
1, 235634, Note_off_c, 0, 73, 62
1, 235637, Note_on_c, 0, 71, 90
1, 235663, Note_on_c, 0, 70, 31
1, 235663, Note_off_c, 0, 70, 127
1, 235692, Note_off_c, 0, 64, 65
1, 235698, Note_off_c, 0, 71, 56
1, 235709, Note_on_c, 0, 68, 84
1, 235711, Note_on_c, 0, 70, 73
1, 235741, Note_off_c, 0, 70, 66
1, 235780, Note_off_c, 0, 68, 61
1, 235786, Control_c, 0, 64, 30
1, 235799, Note_on_c, 0, 72, 85
1, 235801, Control_c, 0, 64, 46
1, 235801, Note_on_c, 0, 70, 80
1, 235816, Control_c, 0, 64, 56
1, 235830, Control_c, 0, 64, 62
1, 235837, Note_off_c, 0, 72, 65
1, 235839, Note_off_c, 0, 70, 66
1, 235845, Control_c, 0, 64, 64
1, 235860, Control_c, 0, 64, 66
1, 235875, Control_c, 0, 64, 66
1, 235876, Note_on_c, 0, 70, 82
1, 235883, Note_on_c, 0, 67, 98
1, 235890, Control_c, 0, 64, 67
1, 235902, Note_off_c, 0, 70, 68
1, 235929, Note_off_c, 0, 67, 66
1, 235976, Note_on_c, 0, 64, 96
1, 236034, Note_off_c, 0, 64, 68
1, 236054, Note_on_c, 0, 55, 82
1, 236065, Note_on_c, 0, 64, 84
1, 236126, Note_off_c, 0, 55, 59
1, 236138, Note_off_c, 0, 64, 65
1, 236142, Note_on_c, 0, 56, 81
1, 236142, Control_c, 0, 64, 66
1, 236157, Control_c, 0, 64, 65
1, 236162, Note_on_c, 0, 64, 85
1, 236172, Control_c, 0, 64, 63
1, 236186, Control_c, 0, 64, 60
1, 236201, Control_c, 0, 64, 56
1, 236207, Note_on_c, 0, 59, 76
1, 236212, Note_off_c, 0, 64, 67
1, 236216, Control_c, 0, 64, 55
1, 236225, Note_off_c, 0, 56, 62
1, 236242, Note_on_c, 0, 64, 93
1, 236246, Control_c, 0, 64, 56
1, 236260, Control_c, 0, 64, 56
1, 236269, Note_off_c, 0, 64, 73
1, 236275, Control_c, 0, 64, 58
1, 236290, Control_c, 0, 64, 60
1, 236296, Note_off_c, 0, 59, 63
1, 236305, Control_c, 0, 64, 62
1, 236320, Control_c, 0, 64, 63
1, 236336, Note_on_c, 0, 66, 98
1, 236350, Control_c, 0, 64, 63
1, 236365, Control_c, 0, 64, 64
1, 236379, Control_c, 0, 64, 64
1, 236394, Control_c, 0, 64, 65
1, 236407, Note_off_c, 0, 66, 62
1, 236409, Control_c, 0, 64, 66
1, 236424, Control_c, 0, 64, 68
1, 236439, Control_c, 0, 64, 69
1, 236445, Note_on_c, 0, 61, 93
1, 236447, Note_on_c, 0, 66, 41
1, 236453, Control_c, 0, 64, 70
1, 236468, Control_c, 0, 64, 70
1, 236482, Note_off_c, 0, 66, 30
1, 236505, Control_c, 0, 64, 71
1, 236520, Control_c, 0, 64, 70
1, 236534, Control_c, 0, 64, 68
1, 236542, Note_off_c, 0, 61, 61
1, 236549, Control_c, 0, 64, 60
1, 236564, Control_c, 0, 64, 30
1, 236579, Control_c, 0, 64, 0
1, 236599, Note_on_c, 0, 47, 97
1, 236601, Note_on_c, 0, 58, 98
1, 236605, Note_on_c, 0, 52, 96
1, 236605, Note_on_c, 0, 55, 90
1, 236606, Note_on_c, 0, 35, 95
1, 236626, Note_off_c, 0, 35, 67
1, 236631, Note_off_c, 0, 47, 64
1, 236653, Control_c, 0, 64, 45
1, 236668, Control_c, 0, 64, 65
1, 236681, Note_off_c, 0, 52, 62
1, 236683, Control_c, 0, 64, 71
1, 236697, Control_c, 0, 64, 75
1, 236707, Note_off_c, 0, 55, 63
1, 236712, Control_c, 0, 64, 76
1, 236728, Control_c, 0, 64, 76
1, 236743, Control_c, 0, 64, 77
1, 236749, Note_off_c, 0, 58, 61
1, 236757, Control_c, 0, 64, 78
1, 236833, Note_on_c, 0, 58, 102
1, 236849, Note_on_c, 0, 51, 66
1, 236850, Note_on_c, 0, 46, 54
1, 236850, Note_off_c, 0, 46, 127
1, 236853, Note_on_c, 0, 47, 76
1, 236905, Control_c, 0, 64, 78
1, 236910, Note_off_c, 0, 47, 60
1, 236911, Note_off_c, 0, 58, 62
1, 236916, Note_off_c, 0, 51, 62
1, 236982, Note_on_c, 0, 58, 103
1, 236999, Note_on_c, 0, 47, 75
1, 237009, Note_on_c, 0, 55, 63
1, 237024, Note_on_c, 0, 52, 54
1, 237037, Note_off_c, 0, 47, 59
1, 237042, Note_off_c, 0, 58, 61
1, 237044, Note_off_c, 0, 55, 61
1, 237044, Note_off_c, 0, 52, 64
1, 237094, Note_on_c, 0, 58, 101
1, 237109, Note_on_c, 0, 47, 82
1, 237110, Note_on_c, 0, 52, 69
1, 237112, Note_on_c, 0, 55, 71
1, 237143, Control_c, 0, 64, 79
1, 237172, Control_c, 0, 64, 78
1, 237180, Note_on_c, 0, 63, 99
1, 237182, Note_on_c, 0, 75, 94
1, 237187, Control_c, 0, 64, 74
1, 237201, Control_c, 0, 64, 60
1, 237216, Note_off_c, 0, 75, 66
1, 237216, Control_c, 0, 64, 0
1, 237217, Note_off_c, 0, 63, 66
1, 237264, Note_on_c, 0, 74, 96
1, 237268, Note_on_c, 0, 62, 91
1, 237327, Control_c, 0, 66, 127
1, 237416, Control_c, 0, 64, 51
1, 237431, Control_c, 0, 64, 64
1, 237446, Control_c, 0, 64, 66
1, 237461, Control_c, 0, 64, 67
1, 237475, Control_c, 0, 64, 68
1, 237483, Note_off_c, 0, 47, 60
1, 237490, Control_c, 0, 64, 71
1, 237505, Control_c, 0, 64, 72
1, 237513, Note_off_c, 0, 52, 60
1, 237516, Note_off_c, 0, 55, 60
1, 237519, Note_off_c, 0, 58, 59
1, 237520, Control_c, 0, 64, 74
1, 237536, Control_c, 0, 64, 75
1, 237551, Control_c, 0, 64, 76
1, 237566, Control_c, 0, 64, 76
1, 237567, Note_off_c, 0, 62, 58
1, 237580, Control_c, 0, 64, 77
1, 237610, Control_c, 0, 64, 77
1, 237639, Control_c, 0, 64, 78
1, 237684, Control_c, 0, 64, 78
1, 237773, Control_c, 0, 64, 79
1, 237776, Note_on_c, 0, 70, 80
1, 237779, Note_on_c, 0, 66, 77
1, 237780, Note_off_c, 0, 74, 58
1, 237804, Note_off_c, 0, 66, 67
1, 237805, Note_off_c, 0, 70, 61
1, 237818, Control_c, 0, 64, 79
1, 237848, Note_on_c, 0, 71, 89
1, 237855, Note_on_c, 0, 67, 73
1, 237862, Control_c, 0, 64, 80
1, 237877, Control_c, 0, 64, 81
1, 237877, Control_c, 0, 66, 0
1, 237879, Note_off_c, 0, 67, 70
1, 237892, Control_c, 0, 64, 82
1, 237897, Note_off_c, 0, 71, 62
1, 237906, Control_c, 0, 64, 84
1, 237921, Control_c, 0, 64, 86
1, 237927, Note_on_c, 0, 68, 95
1, 237932, Note_on_c, 0, 74, 81
1, 237936, Control_c, 0, 64, 89
1, 237950, Control_c, 0, 64, 92
1, 237965, Control_c, 0, 64, 95
1, 237973, Note_off_c, 0, 68, 63
1, 237980, Control_c, 0, 64, 97
1, 237988, Note_off_c, 0, 74, 64
1, 238003, Control_c, 0, 64, 99
1, 238018, Control_c, 0, 64, 102
1, 238020, Note_on_c, 0, 78, 86
1, 238022, Note_on_c, 0, 73, 84
1, 238032, Poly_aftertouch_c, 0, 74, 0
1, 238032, Control_c, 0, 64, 104
1, 238036, Note_on_c, 0, 74, 67
1, 238045, Note_off_c, 0, 73, 66
1, 238046, Note_off_c, 0, 78, 61
1, 238048, Note_on_c, 0, 79, 51
1, 238052, Note_off_c, 0, 74, 65
1, 238062, Control_c, 0, 64, 106
1, 238070, Note_off_c, 0, 79, 64
1, 238102, Note_on_c, 0, 74, 91
1, 238106, Control_c, 0, 64, 108
1, 238117, Note_on_c, 0, 68, 77
1, 238156, Note_off_c, 0, 74, 67
1, 238192, Note_on_c, 0, 71, 80
1, 238204, Note_off_c, 0, 68, 62
1, 238206, Note_on_c, 0, 67, 78
1, 238225, Note_off_c, 0, 71, 60
1, 238247, Note_off_c, 0, 67, 63
1, 238280, Note_on_c, 0, 66, 97
1, 238314, Note_on_c, 0, 69, 46
1, 238315, Note_on_c, 0, 70, 25
1, 238315, Note_off_c, 0, 70, 127
1, 238317, Note_off_c, 0, 66, 59
1, 238340, Note_off_c, 0, 69, 57
1, 238349, Poly_aftertouch_c, 0, 70, 0
1, 238359, Control_c, 0, 64, 106
1, 238374, Control_c, 0, 64, 89
1, 238389, Control_c, 0, 64, 67
1, 238403, Control_c, 0, 64, 33
1, 238418, Control_c, 0, 64, 0
1, 238430, Note_on_c, 0, 47, 107
1, 238435, Note_on_c, 0, 51, 103
1, 238435, Note_on_c, 0, 58, 95
1, 238437, Note_on_c, 0, 35, 95
1, 238444, Note_on_c, 0, 55, 82
1, 238459, Note_off_c, 0, 35, 69
1, 238463, Control_c, 0, 64, 38
1, 238466, Note_off_c, 0, 47, 66
1, 238478, Control_c, 0, 64, 60
1, 238486, Note_off_c, 0, 51, 62
1, 238493, Control_c, 0, 64, 69
1, 238503, Note_off_c, 0, 55, 64
1, 238508, Control_c, 0, 64, 75
1, 238520, Note_off_c, 0, 58, 63
1, 238522, Control_c, 0, 64, 78
1, 238641, Note_on_c, 0, 58, 101
1, 238655, Note_on_c, 0, 47, 77
1, 238660, Note_on_c, 0, 55, 65
1, 238666, Note_on_c, 0, 51, 58
1, 238678, Note_off_c, 0, 47, 63
1, 238687, Note_off_c, 0, 55, 54
1, 238688, Note_off_c, 0, 58, 62
1, 238691, Note_off_c, 0, 51, 67
1, 238758, Note_on_c, 0, 58, 93
1, 238769, Note_on_c, 0, 55, 71
1, 238772, Note_on_c, 0, 47, 71
1, 238785, Note_on_c, 0, 51, 68
1, 238800, Note_off_c, 0, 47, 62
1, 238800, Note_off_c, 0, 58, 61
1, 238809, Note_off_c, 0, 51, 67
1, 238812, Note_off_c, 0, 55, 64
1, 238853, Note_on_c, 0, 58, 95
1, 238861, Note_on_c, 0, 55, 69
1, 238867, Note_on_c, 0, 51, 77
1, 238869, Note_on_c, 0, 47, 78
1, 238887, Poly_aftertouch_c, 0, 70, 0
1, 238900, Control_c, 0, 64, 78
1, 238937, Note_on_c, 0, 63, 103
1, 238938, Note_on_c, 0, 75, 93
1, 238956, Note_off_c, 0, 75, 73
1, 238960, Control_c, 0, 64, 77
1, 238970, Note_off_c, 0, 63, 62
1, 238974, Control_c, 0, 64, 70
1, 238989, Control_c, 0, 64, 56
1, 239004, Control_c, 0, 64, 0
1, 239009, Note_on_c, 0, 74, 98
1, 239012, Note_on_c, 0, 62, 96
1, 239107, Control_c, 0, 64, 59
1, 239124, Control_c, 0, 64, 72
1, 239139, Control_c, 0, 64, 79
1, 239148, Note_off_c, 0, 47, 61
1, 239153, Control_c, 0, 64, 82
1, 239168, Control_c, 0, 64, 84
1, 239173, Note_off_c, 0, 58, 65
1, 239177, Note_off_c, 0, 55, 60
1, 239180, Note_off_c, 0, 51, 62
1, 239183, Control_c, 0, 64, 86
1, 239197, Control_c, 0, 64, 88
1, 239211, Note_off_c, 0, 62, 58
1, 239212, Control_c, 0, 64, 89
1, 239227, Control_c, 0, 64, 89
1, 239242, Control_c, 0, 64, 90
1, 239442, Note_on_c, 0, 70, 88
1, 239445, Note_on_c, 0, 66, 81
1, 239447, Note_off_c, 0, 74, 59
1, 239456, Note_off_c, 0, 70, 73
1, 239467, Note_off_c, 0, 66, 73
1, 239525, Note_on_c, 0, 71, 85
1, 239527, Note_on_c, 0, 67, 73
1, 239551, Note_off_c, 0, 67, 71
1, 239565, Note_off_c, 0, 71, 59
1, 239602, Note_on_c, 0, 68, 90
1, 239605, Note_on_c, 0, 74, 82
1, 239649, Note_off_c, 0, 74, 60
1, 239650, Note_off_c, 0, 68, 61
1, 239694, Note_on_c, 0, 78, 102
1, 239700, Note_on_c, 0, 73, 89
1, 239711, Note_off_c, 0, 78, 68
1, 239717, Note_off_c, 0, 73, 73
1, 239723, Control_c, 0, 64, 90
1, 239763, Note_on_c, 0, 74, 87
1, 239774, Note_on_c, 0, 68, 77
1, 239823, Note_off_c, 0, 74, 62
1, 239857, Note_on_c, 0, 71, 81
1, 239867, Note_off_c, 0, 68, 62
1, 239868, Note_on_c, 0, 67, 78
1, 239894, Note_off_c, 0, 71, 60
1, 239947, Note_on_c, 0, 66, 96
1, 239951, Note_on_c, 0, 70, 88
1, 239956, Note_off_c, 0, 67, 57
1, 239973, Note_off_c, 0, 66, 66
1, 240001, Note_off_c, 0, 70, 64
1, 240035, Control_c, 0, 64, 90
1, 240050, Control_c, 0, 64, 83
1, 240065, Control_c, 0, 64, 65
1, 240080, Control_c, 0, 64, 0
1, 240084, Note_on_c, 0, 58, 100
1, 240088, Note_on_c, 0, 47, 88
1, 240088, Note_on_c, 0, 55, 91
1, 240095, Note_on_c, 0, 52, 80
1, 240121, Note_off_c, 0, 58, 66
1, 240143, Note_off_c, 0, 47, 64
1, 240153, Control_c, 0, 64, 38
1, 240154, Note_off_c, 0, 55, 61
1, 240156, Note_off_c, 0, 52, 62
1, 240168, Control_c, 0, 64, 47
1, 240183, Control_c, 0, 64, 48
1, 240219, Note_on_c, 0, 58, 96
1, 240227, Note_on_c, 0, 55, 75
1, 240233, Note_on_c, 0, 47, 71
1, 240253, Note_on_c, 0, 52, 55
1, 240265, Control_c, 0, 64, 49
1, 240267, Note_off_c, 0, 58, 59
1, 240272, Note_off_c, 0, 47, 61
1, 240280, Control_c, 0, 64, 50
1, 240287, Note_off_c, 0, 52, 64
1, 240290, Note_off_c, 0, 55, 61
1, 240295, Control_c, 0, 64, 53
1, 240309, Control_c, 0, 64, 55
1, 240324, Control_c, 0, 64, 56
1, 240334, Note_on_c, 0, 47, 79
1, 240335, Note_on_c, 0, 58, 83
1, 240339, Control_c, 0, 64, 57
1, 240343, Note_on_c, 0, 55, 59
1, 240359, Note_on_c, 0, 52, 61
1, 240361, Note_off_c, 0, 58, 63
1, 240374, Note_off_c, 0, 47, 62
1, 240380, Note_off_c, 0, 55, 64
1, 240383, Control_c, 0, 64, 56
1, 240390, Note_off_c, 0, 52, 64
1, 240398, Control_c, 0, 64, 55
1, 240413, Control_c, 0, 64, 54
1, 240419, Note_on_c, 0, 58, 84
1, 240425, Note_on_c, 0, 55, 61
1, 240427, Control_c, 0, 64, 53
1, 240431, Note_on_c, 0, 47, 62
1, 240442, Control_c, 0, 64, 52
1, 240445, Note_on_c, 0, 52, 63
1, 240467, Note_on_c, 0, 83, 88
1, 240469, Note_on_c, 0, 90, 98
1, 240492, Note_off_c, 0, 83, 66
1, 240504, Note_off_c, 0, 90, 65
1, 240517, Control_c, 0, 64, 52
1, 240532, Control_c, 0, 64, 53
1, 240546, Control_c, 0, 64, 54
1, 240554, Note_on_c, 0, 91, 86
1, 240555, Note_on_c, 0, 82, 88
1, 240556, Note_on_c, 0, 90, 32
1, 240561, Control_c, 0, 64, 55
1, 240576, Control_c, 0, 64, 55
1, 240589, Note_off_c, 0, 82, 66
1, 240589, Note_off_c, 0, 90, 62
1, 240589, Note_off_c, 0, 91, 65
1, 240591, Control_c, 0, 64, 56
1, 240606, Control_c, 0, 64, 56
1, 240617, Note_on_c, 0, 81, 73
1, 240627, Note_on_c, 0, 92, 78
1, 240635, Control_c, 0, 64, 56
1, 240639, Note_on_c, 0, 83, 31
1, 240650, Control_c, 0, 64, 54
1, 240652, Note_off_c, 0, 81, 66
1, 240665, Control_c, 0, 64, 47
1, 240672, Note_off_c, 0, 83, 40
1, 240678, Note_on_c, 0, 93, 98
1, 240680, Control_c, 0, 64, 0
1, 240698, Note_on_c, 0, 80, 86
1, 240704, Note_on_c, 0, 82, 73
1, 240714, Note_off_c, 0, 92, 68
1, 240718, Note_off_c, 0, 82, 64
1, 240728, Note_off_c, 0, 80, 57
1, 240732, Note_off_c, 0, 93, 64
1, 240755, Control_c, 0, 64, 50
1, 240769, Control_c, 0, 64, 62
1, 240784, Control_c, 0, 64, 67
1, 240799, Control_c, 0, 64, 72
1, 240814, Control_c, 0, 64, 74
1, 240829, Control_c, 0, 64, 75
1, 240843, Control_c, 0, 64, 77
1, 240858, Control_c, 0, 64, 78
1, 240872, Note_off_c, 0, 58, 63
1, 240873, Control_c, 0, 64, 79
1, 240878, Note_off_c, 0, 52, 59
1, 240888, Control_c, 0, 64, 81
1, 240890, Note_off_c, 0, 47, 60
1, 240894, Note_off_c, 0, 55, 61
1, 240903, Control_c, 0, 64, 82
1, 240917, Control_c, 0, 64, 84
1, 240932, Control_c, 0, 64, 85
1, 240947, Control_c, 0, 64, 88
1, 240962, Control_c, 0, 64, 91
1, 240976, Control_c, 0, 64, 95
1, 240999, Control_c, 0, 64, 98
1, 241027, Note_on_c, 0, 58, 99
1, 241033, Note_on_c, 0, 55, 81
1, 241036, Note_on_c, 0, 47, 78
1, 241039, Note_on_c, 0, 51, 79
1, 241044, Control_c, 0, 64, 92
1, 241058, Control_c, 0, 64, 78
1, 241073, Control_c, 0, 64, 63
1, 241077, Note_off_c, 0, 58, 56
1, 241088, Control_c, 0, 64, 48
1, 241096, Note_off_c, 0, 47, 62
1, 241101, Note_off_c, 0, 51, 61
1, 241103, Note_off_c, 0, 55, 61
1, 241103, Control_c, 0, 64, 34
1, 241118, Control_c, 0, 64, 33
1, 241132, Control_c, 0, 64, 40
1, 241146, Note_on_c, 0, 58, 86
1, 241147, Control_c, 0, 64, 51
1, 241155, Note_on_c, 0, 47, 64
1, 241158, Note_on_c, 0, 55, 59
1, 241162, Control_c, 0, 64, 56
1, 241165, Note_on_c, 0, 51, 62
1, 241176, Control_c, 0, 64, 56
1, 241191, Control_c, 0, 64, 56
1, 241197, Note_off_c, 0, 47, 62
1, 241200, Note_off_c, 0, 58, 56
1, 241208, Note_off_c, 0, 51, 60
1, 241211, Note_off_c, 0, 55, 60
1, 241235, Control_c, 0, 64, 56
1, 241247, Note_on_c, 0, 58, 78
1, 241250, Control_c, 0, 64, 57
1, 241259, Note_on_c, 0, 47, 63
1, 241263, Note_on_c, 0, 55, 54
1, 241265, Control_c, 0, 64, 58
1, 241268, Note_on_c, 0, 51, 56
1, 241280, Control_c, 0, 64, 60
1, 241294, Note_off_c, 0, 47, 66
1, 241295, Control_c, 0, 64, 60
1, 241297, Note_off_c, 0, 58, 63
1, 241304, Note_off_c, 0, 55, 63
1, 241311, Note_off_c, 0, 51, 63
1, 241324, Control_c, 0, 64, 59
1, 241339, Control_c, 0, 64, 52
1, 241341, Note_on_c, 0, 58, 74
1, 241354, Control_c, 0, 64, 34
1, 241364, Note_on_c, 0, 55, 55
1, 241367, Note_on_c, 0, 47, 64
1, 241367, Note_on_c, 0, 51, 56
1, 241368, Control_c, 0, 64, 0
1, 241385, Note_on_c, 0, 83, 81
1, 241391, Note_on_c, 0, 76, 69
1, 241417, Note_off_c, 0, 76, 67
1, 241423, Note_off_c, 0, 83, 67
1, 241469, Note_on_c, 0, 84, 75
1, 241475, Note_on_c, 0, 75, 83
1, 241502, Note_off_c, 0, 75, 67
1, 241503, Note_off_c, 0, 84, 54
1, 241535, Note_on_c, 0, 74, 48
1, 241538, Note_on_c, 0, 85, 65
1, 241566, Note_off_c, 0, 74, 64
1, 241590, Note_on_c, 0, 86, 83
1, 241592, Note_off_c, 0, 85, 61
1, 241614, Note_on_c, 0, 73, 93
1, 241644, Note_off_c, 0, 86, 66
1, 241646, Note_off_c, 0, 73, 61
1, 241680, Control_c, 0, 64, 51
1, 241695, Control_c, 0, 64, 63
1, 241710, Control_c, 0, 64, 66
1, 241725, Control_c, 0, 64, 68
1, 241747, Control_c, 0, 64, 69
1, 241762, Control_c, 0, 64, 69
1, 241777, Control_c, 0, 64, 70
1, 241792, Control_c, 0, 64, 70
1, 241806, Control_c, 0, 64, 71
1, 241821, Control_c, 0, 64, 71
1, 241836, Control_c, 0, 64, 72
1, 241851, Control_c, 0, 64, 72
1, 241866, Control_c, 0, 64, 74
1, 241869, Note_off_c, 0, 51, 54
1, 241871, Note_off_c, 0, 58, 61
1, 241880, Control_c, 0, 64, 75
1, 241882, Note_off_c, 0, 47, 59
1, 241891, Note_off_c, 0, 55, 57
1, 241895, Control_c, 0, 64, 76
1, 241910, Control_c, 0, 64, 78
1, 241925, Control_c, 0, 64, 80
1, 241941, Control_c, 0, 64, 81
1, 241955, Control_c, 0, 64, 82
1, 241985, Control_c, 0, 64, 80
1, 241998, Note_on_c, 0, 58, 102
1, 241999, Control_c, 0, 64, 67
1, 242001, Note_on_c, 0, 47, 86
1, 242002, Note_on_c, 0, 55, 85
1, 242007, Note_on_c, 0, 52, 77
1, 242014, Control_c, 0, 64, 38
1, 242029, Control_c, 0, 64, 0
1, 242064, Note_off_c, 0, 58, 61
1, 242074, Note_off_c, 0, 47, 63
1, 242085, Note_off_c, 0, 52, 62
1, 242085, Note_off_c, 0, 55, 61
1, 242129, Note_on_c, 0, 58, 87
1, 242133, Note_on_c, 0, 47, 67
1, 242134, Note_on_c, 0, 55, 58
1, 242144, Note_on_c, 0, 52, 57
1, 242174, Note_off_c, 0, 58, 61
1, 242176, Note_off_c, 0, 47, 63
1, 242186, Note_off_c, 0, 55, 61
1, 242208, Note_off_c, 0, 52, 0
1, 242223, Note_on_c, 0, 58, 73
1, 242227, Note_on_c, 0, 47, 61
1, 242232, Note_on_c, 0, 55, 56
1, 242246, Poly_aftertouch_c, 0, 52, 127
1, 242344, Note_on_c, 0, 78, 80
1, 242356, Note_on_c, 0, 71, 60
1, 242370, Note_off_c, 0, 78, 61
1, 242377, Note_off_c, 0, 71, 61
1, 242430, Note_on_c, 0, 79, 75
1, 242431, Note_on_c, 0, 70, 82
1, 242450, Note_off_c, 0, 79, 70
1, 242452, Note_off_c, 0, 70, 71
1, 242511, Note_on_c, 0, 69, 68
1, 242514, Note_on_c, 0, 80, 77
1, 242536, Note_off_c, 0, 69, 69
1, 242570, Note_off_c, 0, 80, 63
1, 242576, Note_on_c, 0, 81, 79
1, 242592, Note_on_c, 0, 68, 78
1, 242612, Note_off_c, 0, 81, 64
1, 242615, Note_off_c, 0, 68, 67
1, 242689, Control_c, 0, 64, 46
1, 242703, Control_c, 0, 64, 59
1, 242718, Control_c, 0, 64, 63
1, 242733, Control_c, 0, 64, 64
1, 242747, Control_c, 0, 64, 65
1, 242762, Control_c, 0, 64, 66
1, 242777, Control_c, 0, 64, 67
1, 242792, Control_c, 0, 64, 68
1, 242807, Control_c, 0, 64, 69
1, 242821, Control_c, 0, 64, 70
1, 242836, Control_c, 0, 64, 71
1, 242851, Control_c, 0, 64, 72
1, 242866, Control_c, 0, 64, 72
1, 242880, Note_off_c, 0, 58, 58
1, 242881, Control_c, 0, 64, 73
1, 242890, Note_off_c, 0, 47, 52
1, 242896, Control_c, 0, 64, 74
1, 242902, Poly_aftertouch_c, 0, 52, 0
1, 242902, Note_off_c, 0, 55, 60
1, 242911, Control_c, 0, 64, 75
1, 242925, Control_c, 0, 64, 76
1, 242940, Control_c, 0, 64, 77
1, 242955, Control_c, 0, 64, 77
1, 242978, Note_on_c, 0, 58, 95
1, 242985, Control_c, 0, 64, 76
1, 242988, Note_on_c, 0, 55, 79
1, 242990, Note_on_c, 0, 47, 75
1, 242991, Note_on_c, 0, 51, 72
1, 243000, Control_c, 0, 64, 67
1, 243014, Control_c, 0, 64, 52
1, 243024, Note_off_c, 0, 58, 63
1, 243029, Control_c, 0, 64, 0
1, 243045, Note_off_c, 0, 55, 62
1, 243047, Note_off_c, 0, 47, 59
1, 243051, Note_off_c, 0, 51, 61
1, 243074, Control_c, 0, 67, 43
1, 243088, Control_c, 0, 67, 58
1, 243103, Control_c, 0, 67, 67
1, 243109, Note_on_c, 0, 58, 77
1, 243119, Control_c, 0, 67, 71
1, 243122, Note_on_c, 0, 47, 53
1, 243125, Note_on_c, 0, 55, 61
1, 243126, Note_on_c, 0, 51, 54
1, 243134, Control_c, 0, 67, 73
1, 243149, Control_c, 0, 67, 74
1, 243160, Note_off_c, 0, 58, 62
1, 243163, Note_off_c, 0, 47, 63
1, 243163, Control_c, 0, 67, 79
1, 243170, Note_off_c, 0, 55, 63
1, 243172, Note_off_c, 0, 51, 62
1, 243178, Control_c, 0, 67, 94
1, 243193, Control_c, 0, 67, 112
1, 243208, Control_c, 0, 67, 125
1, 243223, Control_c, 0, 67, 127
1, 243230, Note_on_c, 0, 58, 67
1, 243246, Note_on_c, 0, 47, 67
1, 243250, Note_on_c, 0, 55, 58
1, 243256, Note_on_c, 0, 51, 52
1, 243274, Note_off_c, 0, 58, 60
1, 243280, Note_off_c, 0, 47, 64
1, 243288, Note_off_c, 0, 55, 64
1, 243290, Note_off_c, 0, 51, 61
1, 243331, Note_on_c, 0, 58, 66
1, 243349, Control_c, 0, 67, 125
1, 243352, Note_on_c, 0, 47, 65
1, 243364, Note_on_c, 0, 55, 54
1, 243366, Note_on_c, 0, 51, 54
1, 243393, Control_c, 0, 67, 123
1, 243401, Note_on_c, 0, 71, 75
1, 243405, Note_on_c, 0, 64, 55
1, 243423, Control_c, 0, 67, 120
1, 243425, Note_off_c, 0, 71, 66
1, 243426, Note_off_c, 0, 64, 62
1, 243451, Control_c, 0, 67, 117
1, 243484, Note_on_c, 0, 72, 75
1, 243485, Note_on_c, 0, 63, 81
1, 243496, Control_c, 0, 67, 115
1, 243505, Note_off_c, 0, 72, 70
1, 243507, Note_off_c, 0, 63, 70
1, 243563, Note_on_c, 0, 62, 71
1, 243568, Note_on_c, 0, 73, 64
1, 243590, Note_off_c, 0, 62, 66
1, 243595, Note_off_c, 0, 73, 67
1, 243638, Note_on_c, 0, 74, 70
1, 243665, Note_on_c, 0, 61, 66
1, 243688, Note_off_c, 0, 74, 63
1, 243694, Note_off_c, 0, 61, 67
1, 243777, Control_c, 0, 64, 42
1, 243777, Control_c, 0, 67, 113
1, 243792, Control_c, 0, 64, 52
1, 243807, Control_c, 0, 64, 58
1, 243822, Control_c, 0, 64, 61
1, 243822, Control_c, 0, 67, 111
1, 243836, Control_c, 0, 64, 62
1, 243851, Control_c, 0, 64, 63
1, 243866, Control_c, 0, 64, 64
1, 243881, Control_c, 0, 64, 65
1, 243881, Control_c, 0, 67, 109
1, 243895, Control_c, 0, 64, 66
1, 243912, Control_c, 0, 64, 66
1, 243927, Control_c, 0, 64, 67
1, 243941, Control_c, 0, 64, 68
1, 243956, Control_c, 0, 64, 68
1, 244008, Control_c, 0, 64, 69
1, 244008, Control_c, 0, 67, 107
1, 244067, Control_c, 0, 64, 69
1, 244159, Note_off_c, 0, 51, 60
1, 244179, Note_on_c, 0, 63, 100
1, 244185, Control_c, 0, 64, 70
1, 244200, Control_c, 0, 67, 105
1, 244207, Note_off_c, 0, 47, 56
1, 244207, Note_off_c, 0, 58, 62
1, 244215, Control_c, 0, 67, 102
1, 244219, Note_off_c, 0, 55, 60
1, 244230, Control_c, 0, 67, 94
1, 244245, Control_c, 0, 64, 69
1, 244245, Control_c, 0, 67, 69
1, 244246, Note_off_c, 0, 63, 58
1, 244260, Control_c, 0, 64, 64
1, 244260, Control_c, 0, 67, 0
1, 244271, Note_on_c, 0, 62, 96
1, 244274, Control_c, 0, 64, 54
1, 244275, Note_on_c, 0, 58, 95
1, 244277, Note_on_c, 0, 55, 77
1, 244280, Note_on_c, 0, 52, 79
1, 244281, Note_on_c, 0, 47, 73
1, 244289, Control_c, 0, 64, 37
1, 244304, Control_c, 0, 64, 0
1, 244345, Note_off_c, 0, 58, 63
1, 244356, Note_off_c, 0, 47, 61
1, 244365, Note_off_c, 0, 55, 63
1, 244370, Note_off_c, 0, 52, 62
1, 244424, Note_on_c, 0, 58, 84
1, 244434, Note_on_c, 0, 47, 64
1, 244434, Note_on_c, 0, 55, 62
1, 244438, Note_on_c, 0, 52, 50
1, 244452, Control_c, 0, 64, 30
1, 244473, Note_off_c, 0, 58, 62
1, 244482, Control_c, 0, 64, 32
1, 244487, Note_off_c, 0, 52, 59
1, 244493, Note_off_c, 0, 55, 61
1, 244495, Note_off_c, 0, 47, 53
1, 244511, Control_c, 0, 64, 33
1, 244526, Control_c, 0, 64, 33
1, 244541, Control_c, 0, 64, 34
1, 244544, Note_on_c, 0, 58, 63
1, 244547, Note_on_c, 0, 47, 38
1, 244554, Note_on_c, 0, 55, 41
1, 244556, Control_c, 0, 64, 36
1, 244561, Note_on_c, 0, 52, 42
1, 244571, Control_c, 0, 64, 39
1, 244585, Control_c, 0, 64, 43
1, 244589, Note_off_c, 0, 58, 60
1, 244600, Control_c, 0, 64, 48
1, 244602, Note_off_c, 0, 52, 60
1, 244603, Note_off_c, 0, 47, 51
1, 244603, Note_off_c, 0, 55, 62
1, 244615, Control_c, 0, 64, 54
1, 244630, Control_c, 0, 64, 59
1, 244645, Control_c, 0, 64, 62
1, 244659, Control_c, 0, 64, 64
1, 244674, Control_c, 0, 64, 66
1, 244676, Note_on_c, 0, 47, 42
1, 244681, Note_on_c, 0, 58, 46
1, 244689, Control_c, 0, 64, 67
1, 244691, Note_on_c, 0, 55, 47
1, 244699, Note_on_c, 0, 52, 52
1, 244704, Control_c, 0, 64, 69
1, 244714, Note_off_c, 0, 62, 63
1, 244720, Control_c, 0, 64, 70
1, 244742, Control_c, 0, 64, 71
1, 244757, Control_c, 0, 64, 72
1, 244771, Control_c, 0, 64, 73
1, 244786, Control_c, 0, 64, 74
1, 244815, Control_c, 0, 64, 74
1, 245060, Note_on_c, 0, 36, 84
1, 245084, Control_c, 0, 64, 73
1, 245098, Control_c, 0, 64, 69
1, 245104, Note_off_c, 0, 36, 59
1, 245113, Control_c, 0, 64, 61
1, 245128, Control_c, 0, 64, 50
1, 245142, Control_c, 0, 64, 35
1, 245152, Note_on_c, 0, 35, 74
1, 245157, Control_c, 0, 64, 0
1, 245246, Control_c, 0, 64, 30
1, 245261, Control_c, 0, 64, 39
1, 245276, Control_c, 0, 64, 45
1, 245290, Control_c, 0, 64, 50
1, 245305, Control_c, 0, 64, 53
1, 245320, Control_c, 0, 64, 55
1, 245335, Control_c, 0, 64, 57
1, 245349, Control_c, 0, 64, 58
1, 245350, Note_off_c, 0, 52, 56
1, 245364, Control_c, 0, 64, 59
1, 245379, Control_c, 0, 64, 60
1, 245394, Control_c, 0, 64, 61
1, 245409, Control_c, 0, 64, 61
1, 245418, Note_off_c, 0, 58, 56
1, 245423, Control_c, 0, 64, 62
1, 245438, Control_c, 0, 64, 62
1, 245442, Note_off_c, 0, 47, 56
1, 245442, Note_off_c, 0, 55, 54
1, 245468, Control_c, 0, 64, 63
1, 245515, Note_on_c, 0, 47, 64
1, 245519, Note_on_c, 0, 58, 89
1, 245519, Note_on_c, 0, 55, 76
1, 245525, Note_on_c, 0, 51, 74
1, 245536, Control_c, 0, 64, 62
1, 245551, Control_c, 0, 64, 58
1, 245565, Control_c, 0, 64, 53
1, 245580, Control_c, 0, 64, 49
1, 245581, Note_off_c, 0, 58, 57
1, 245595, Control_c, 0, 64, 44
1, 245596, Note_off_c, 0, 47, 61
1, 245610, Control_c, 0, 64, 40
1, 245613, Note_off_c, 0, 51, 60
1, 245625, Control_c, 0, 64, 37
1, 245639, Control_c, 0, 64, 34
1, 245647, Note_off_c, 0, 55, 0
1, 245654, Control_c, 0, 64, 33
1, 245669, Control_c, 0, 64, 33
1, 245671, Note_on_c, 0, 55, 36
1, 245675, Note_on_c, 0, 47, 47
1, 245675, Note_on_c, 0, 58, 75
1, 245688, Note_on_c, 0, 51, 44
1, 245731, Note_off_c, 0, 58, 61
1, 245745, Note_off_c, 0, 51, 60
1, 245748, Note_off_c, 0, 55, 59
1, 245784, Note_off_c, 0, 47, 0
1, 245802, Note_on_c, 0, 47, 37
1, 245805, Note_on_c, 0, 58, 59
1, 245809, Note_on_c, 0, 55, 40
1, 245815, Note_on_c, 0, 51, 49
1, 245860, Note_off_c, 0, 58, 57
1, 245862, Control_c, 0, 64, 33
1, 245877, Control_c, 0, 64, 35
1, 245887, Note_off_c, 0, 51, 52
1, 245891, Control_c, 0, 64, 39
1, 245906, Control_c, 0, 64, 45
1, 245919, Note_off_c, 0, 55, 0
1, 245921, Control_c, 0, 64, 52
1, 245922, Note_off_c, 0, 47, 0
1, 245936, Control_c, 0, 64, 58
1, 245942, Note_on_c, 0, 55, 21
1, 245944, Note_on_c, 0, 58, 51
1, 245947, Note_on_c, 0, 47, 15
1, 245951, Control_c, 0, 64, 61
1, 245957, Note_on_c, 0, 51, 30
1, 245965, Control_c, 0, 64, 62
1, 245980, Control_c, 0, 64, 63
1, 245990, Note_off_c, 0, 35, 62
1, 245995, Control_c, 0, 64, 64
1, 246010, Control_c, 0, 64, 65
1, 246025, Control_c, 0, 64, 65
1, 246039, Control_c, 0, 64, 66
1, 246054, Control_c, 0, 64, 66
1, 246083, Control_c, 0, 64, 67
1, 246373, Note_on_c, 0, 63, 85
1, 246403, Control_c, 0, 64, 66
1, 246418, Note_off_c, 0, 63, 62
1, 246418, Control_c, 0, 64, 63
1, 246433, Control_c, 0, 64, 56
1, 246448, Control_c, 0, 64, 50
1, 246461, Note_on_c, 0, 62, 66
1, 246462, Control_c, 0, 64, 43
1, 246477, Control_c, 0, 64, 38
1, 246492, Control_c, 0, 64, 34
1, 246507, Control_c, 0, 64, 33
1, 246536, Control_c, 0, 64, 34
1, 246551, Control_c, 0, 64, 37
1, 246566, Control_c, 0, 64, 43
1, 246581, Control_c, 0, 64, 49
1, 246595, Control_c, 0, 64, 55
1, 246610, Control_c, 0, 64, 59
1, 246625, Control_c, 0, 64, 61
1, 246640, Control_c, 0, 64, 62
1, 246655, Control_c, 0, 64, 63
1, 246669, Control_c, 0, 64, 63
1, 246684, Control_c, 0, 64, 64
1, 246699, Control_c, 0, 64, 64
1, 246714, Control_c, 0, 64, 65
1, 246729, Control_c, 0, 64, 66
1, 246744, Control_c, 0, 64, 66
1, 246759, Control_c, 0, 64, 67
1, 246762, Note_off_c, 0, 58, 59
1, 246772, Note_off_c, 0, 55, 57
1, 246774, Note_off_c, 0, 51, 53
1, 246822, Note_off_c, 0, 47, 0
1, 246833, Note_on_c, 0, 55, 73
1, 246833, Control_c, 0, 64, 66
1, 246833, Note_on_c, 0, 58, 88
1, 246834, Note_on_c, 0, 47, 59
1, 246845, Note_on_c, 0, 50, 72
1, 246848, Control_c, 0, 64, 64
1, 246862, Control_c, 0, 64, 59
1, 246877, Control_c, 0, 64, 53
1, 246892, Control_c, 0, 64, 48
1, 246906, Control_c, 0, 64, 43
1, 246921, Control_c, 0, 64, 41
1, 246930, Note_off_c, 0, 58, 54
1, 246936, Control_c, 0, 64, 41
1, 246959, Note_off_c, 0, 55, 52
1, 246965, Note_off_c, 0, 47, 55
1, 246967, Note_off_c, 0, 50, 58
1, 247039, Note_on_c, 0, 58, 72
1, 247042, Note_on_c, 0, 55, 60
1, 247045, Note_on_c, 0, 47, 45
1, 247057, Note_on_c, 0, 50, 46
1, 247120, Note_off_c, 0, 58, 54
1, 247135, Note_off_c, 0, 55, 61
1, 247137, Control_c, 0, 64, 41
1, 247140, Note_off_c, 0, 50, 56
1, 247166, Note_off_c, 0, 47, 0
1, 247185, Note_on_c, 0, 58, 56
1, 247186, Note_on_c, 0, 47, 29
1, 247196, Note_on_c, 0, 55, 49
1, 247203, Note_on_c, 0, 50, 35
1, 247255, Control_c, 0, 64, 42
1, 247282, Note_off_c, 0, 58, 56
1, 247293, Note_off_c, 0, 55, 59
1, 247302, Note_off_c, 0, 50, 54
1, 247332, Note_off_c, 0, 47, 0
1, 247343, Control_c, 0, 64, 43
1, 247355, Note_on_c, 0, 47, 23
1, 247358, Note_on_c, 0, 58, 46
1, 247358, Control_c, 0, 64, 47
1, 247361, Note_on_c, 0, 55, 42
1, 247368, Note_on_c, 0, 50, 24
1, 247373, Control_c, 0, 64, 53
1, 247388, Control_c, 0, 64, 58
1, 247403, Control_c, 0, 64, 61
1, 247418, Control_c, 0, 64, 63
1, 247433, Control_c, 0, 64, 65
1, 247442, Note_off_c, 0, 62, 63
1, 247448, Control_c, 0, 64, 66
1, 247462, Control_c, 0, 64, 67
1, 247477, Control_c, 0, 64, 68
1, 247492, Control_c, 0, 64, 69
1, 247507, Control_c, 0, 64, 70
1, 247522, Control_c, 0, 64, 70
1, 247536, Control_c, 0, 64, 71
1, 247551, Control_c, 0, 64, 71
1, 247566, Control_c, 0, 64, 72
1, 247581, Control_c, 0, 64, 72
1, 247625, Control_c, 0, 64, 73
1, 247810, Control_c, 0, 64, 72
1, 247821, Note_on_c, 0, 36, 71
1, 247840, Control_c, 0, 64, 72
1, 247855, Control_c, 0, 64, 70
1, 247868, Note_off_c, 0, 36, 58
1, 247869, Control_c, 0, 64, 67
1, 247884, Control_c, 0, 64, 63
1, 247899, Control_c, 0, 64, 57
1, 247913, Note_on_c, 0, 35, 64
1, 247915, Control_c, 0, 64, 51
1, 247930, Control_c, 0, 64, 44
1, 247945, Control_c, 0, 64, 36
1, 247959, Control_c, 0, 64, 31
1, 247974, Control_c, 0, 64, 28
1, 247989, Control_c, 0, 64, 0
1, 248063, Control_c, 0, 64, 29
1, 248078, Control_c, 0, 64, 32
1, 248093, Control_c, 0, 64, 37
1, 248108, Control_c, 0, 64, 41
1, 248122, Control_c, 0, 64, 47
1, 248137, Control_c, 0, 64, 52
1, 248152, Control_c, 0, 64, 57
1, 248166, Control_c, 0, 64, 60
1, 248181, Control_c, 0, 64, 61
1, 248196, Control_c, 0, 64, 62
1, 248211, Control_c, 0, 64, 63
1, 248226, Control_c, 0, 64, 64
1, 248228, Note_off_c, 0, 55, 58
1, 248240, Control_c, 0, 64, 64
1, 248252, Note_off_c, 0, 58, 52
1, 248255, Control_c, 0, 64, 65
1, 248270, Control_c, 0, 64, 65
1, 248275, Note_off_c, 0, 50, 41
1, 248280, Note_off_c, 0, 47, 40
1, 248346, Note_on_c, 0, 58, 84
1, 248347, Note_on_c, 0, 54, 74
1, 248352, Note_on_c, 0, 47, 72
1, 248357, Note_on_c, 0, 50, 72
1, 248359, Control_c, 0, 64, 64
1, 248374, Control_c, 0, 64, 62
1, 248389, Control_c, 0, 64, 58
1, 248404, Control_c, 0, 64, 55
1, 248419, Control_c, 0, 64, 52
1, 248433, Control_c, 0, 64, 51
1, 248448, Control_c, 0, 64, 50
1, 248452, Note_off_c, 0, 58, 56
1, 248463, Control_c, 0, 64, 49
1, 248472, Note_off_c, 0, 54, 57
1, 248484, Note_off_c, 0, 50, 61
1, 248485, Control_c, 0, 64, 49
1, 248486, Note_off_c, 0, 47, 60
1, 248500, Control_c, 0, 64, 48
1, 248515, Control_c, 0, 64, 47
1, 248530, Control_c, 0, 64, 47
1, 248566, Note_on_c, 0, 58, 66
1, 248567, Note_on_c, 0, 54, 64
1, 248571, Note_on_c, 0, 47, 47
1, 248586, Note_on_c, 0, 50, 52
1, 248647, Note_off_c, 0, 58, 51
1, 248652, Note_off_c, 0, 54, 57
1, 248656, Note_off_c, 0, 47, 59
1, 248662, Note_off_c, 0, 50, 59
1, 248724, Note_on_c, 0, 47, 34
1, 248724, Note_on_c, 0, 58, 51
1, 248730, Note_on_c, 0, 54, 44
1, 248739, Note_on_c, 0, 50, 32
1, 248817, Note_off_c, 0, 58, 54
1, 248824, Note_off_c, 0, 54, 57
1, 248828, Control_c, 0, 67, 41
1, 248843, Control_c, 0, 67, 51
1, 248857, Control_c, 0, 67, 58
1, 248868, Note_off_c, 0, 47, 0
1, 248872, Control_c, 0, 67, 67
1, 248878, Note_off_c, 0, 50, 0
1, 248887, Control_c, 0, 67, 75
1, 248893, Note_on_c, 0, 47, 16
1, 248898, Note_on_c, 0, 58, 39
1, 248902, Note_on_c, 0, 54, 37
1, 248902, Control_c, 0, 67, 84
1, 248915, Poly_aftertouch_c, 0, 50, 127
1, 248916, Control_c, 0, 67, 93
1, 248931, Control_c, 0, 67, 102
1, 248946, Control_c, 0, 67, 110
1, 248961, Control_c, 0, 67, 117
1, 248976, Control_c, 0, 67, 120
1, 249005, Control_c, 0, 67, 122
1, 249064, Control_c, 0, 64, 48
1, 249079, Control_c, 0, 64, 51
1, 249079, Control_c, 0, 67, 124
1, 249094, Control_c, 0, 64, 55
1, 249108, Control_c, 0, 64, 57
1, 249123, Control_c, 0, 64, 59
1, 249138, Control_c, 0, 64, 60
1, 249153, Control_c, 0, 64, 62
1, 249168, Control_c, 0, 64, 63
1, 249182, Control_c, 0, 64, 63
1, 249197, Control_c, 0, 64, 64
1, 249212, Control_c, 0, 64, 64
1, 249368, Control_c, 0, 64, 64
1, 249373, Note_off_c, 0, 35, 45
1, 249382, Control_c, 0, 64, 63
1, 249397, Control_c, 0, 64, 61
1, 249412, Control_c, 0, 64, 57
1, 249427, Control_c, 0, 64, 55
1, 249441, Note_on_c, 0, 36, 49
1, 249442, Control_c, 0, 64, 54
1, 249457, Control_c, 0, 64, 52
1, 249472, Control_c, 0, 64, 51
1, 249486, Control_c, 0, 64, 50
1, 249501, Note_off_c, 0, 36, 54
1, 249501, Control_c, 0, 64, 48
1, 249517, Control_c, 0, 64, 45
1, 249531, Control_c, 0, 64, 41
1, 249546, Control_c, 0, 64, 36
1, 249549, Note_on_c, 0, 35, 48
1, 249561, Control_c, 0, 64, 30
1, 249576, Control_c, 0, 64, 0
1, 249680, Control_c, 0, 64, 36
1, 249695, Control_c, 0, 64, 45
1, 249710, Control_c, 0, 64, 53
1, 249725, Control_c, 0, 64, 58
1, 249739, Control_c, 0, 64, 61
1, 249754, Control_c, 0, 64, 62
1, 249769, Control_c, 0, 64, 63
1, 249784, Control_c, 0, 64, 64
1, 249799, Control_c, 0, 64, 64
1, 249813, Control_c, 0, 64, 65
1, 249813, Control_c, 0, 67, 126
1, 249828, Control_c, 0, 64, 66
1, 249843, Control_c, 0, 64, 66
1, 249873, Control_c, 0, 64, 67
1, 249887, Control_c, 0, 64, 67
1, 249895, Note_off_c, 0, 47, 35
1, 249917, Control_c, 0, 64, 68
1, 249943, Poly_aftertouch_c, 0, 50, 0
1, 249956, Note_off_c, 0, 54, 36
1, 249964, Note_off_c, 0, 58, 42
1, 250220, Control_c, 0, 64, 67
1, 250235, Control_c, 0, 64, 65
1, 250250, Control_c, 0, 64, 63
1, 250251, Note_on_c, 0, 52, 59
1, 250260, Note_on_c, 0, 58, 61
1, 250264, Control_c, 0, 64, 59
1, 250268, Note_on_c, 0, 50, 45
1, 250279, Control_c, 0, 64, 53
1, 250280, Note_on_c, 0, 47, 44
1, 250294, Control_c, 0, 64, 49
1, 250310, Control_c, 0, 64, 46
1, 250414, Control_c, 0, 64, 47
1, 250422, Note_off_c, 0, 58, 51
1, 250427, Note_off_c, 0, 47, 57
1, 250428, Note_off_c, 0, 52, 56
1, 250429, Note_off_c, 0, 50, 57
1, 250558, Note_on_c, 0, 58, 55
1, 250559, Note_on_c, 0, 52, 60
1, 250574, Note_on_c, 0, 50, 42
1, 250575, Note_on_c, 0, 47, 47
1, 250622, Control_c, 0, 64, 46
1, 250659, Note_off_c, 0, 58, 48
1, 250672, Note_off_c, 0, 52, 57
1, 250674, Note_off_c, 0, 50, 57
1, 250696, Note_off_c, 0, 47, 34
1, 250762, Control_c, 0, 64, 47
1, 250777, Control_c, 0, 64, 47
1, 250792, Control_c, 0, 64, 48
1, 250793, Note_on_c, 0, 47, 19
1, 250794, Note_on_c, 0, 52, 46
1, 250796, Note_on_c, 0, 58, 48
1, 250807, Control_c, 0, 64, 49
1, 250813, Note_on_c, 0, 50, 34
1, 250822, Control_c, 0, 64, 50
1, 250836, Control_c, 0, 64, 51
1, 250866, Control_c, 0, 64, 51
1, 250882, Note_off_c, 0, 58, 49
1, 250903, Note_off_c, 0, 52, 50
1, 250910, Control_c, 0, 64, 52
1, 250920, Note_off_c, 0, 50, 47
1, 250955, Control_c, 0, 64, 52
1, 250997, Note_off_c, 0, 47, 0
1, 251020, Note_on_c, 0, 47, 16
1, 251030, Note_on_c, 0, 52, 42
1, 251034, Note_on_c, 0, 58, 43
1, 251045, Note_on_c, 0, 50, 17
1, 251103, Control_c, 0, 64, 52
1, 251192, Control_c, 0, 64, 51
1, 251266, Control_c, 0, 64, 52
1, 251296, Control_c, 0, 64, 52
1, 251311, Control_c, 0, 64, 53
1, 251326, Control_c, 0, 64, 54
1, 251341, Control_c, 0, 64, 56
1, 251355, Control_c, 0, 64, 58
1, 251370, Control_c, 0, 64, 59
1, 251385, Control_c, 0, 64, 60
1, 251400, Control_c, 0, 64, 61
1, 251415, Control_c, 0, 64, 62
1, 251430, Control_c, 0, 64, 63
1, 251445, Control_c, 0, 64, 63
1, 251459, Control_c, 0, 64, 64
1, 251481, Control_c, 0, 64, 65
1, 251510, Control_c, 0, 64, 65
1, 251525, Control_c, 0, 64, 66
1, 251540, Control_c, 0, 64, 66
1, 251585, Control_c, 0, 64, 67
1, 251615, Control_c, 0, 64, 67
1, 251645, Control_c, 0, 64, 68
1, 251674, Control_c, 0, 64, 68
1, 251689, Control_c, 0, 64, 69
1, 251792, Control_c, 0, 64, 69
1, 251818, Note_off_c, 0, 35, 24
1, 252148, Control_c, 0, 64, 69
1, 252163, Control_c, 0, 64, 67
1, 252178, Note_on_c, 0, 36, 39
1, 252178, Control_c, 0, 64, 65
1, 252193, Control_c, 0, 64, 62
1, 252208, Control_c, 0, 64, 58
1, 252230, Control_c, 0, 64, 55
1, 252245, Control_c, 0, 64, 52
1, 252248, Note_off_c, 0, 36, 43
1, 252260, Control_c, 0, 64, 49
1, 252275, Control_c, 0, 64, 45
1, 252289, Control_c, 0, 64, 41
1, 252290, Note_on_c, 0, 35, 44
1, 252304, Control_c, 0, 64, 35
1, 252319, Control_c, 0, 64, 0
1, 252541, Control_c, 0, 64, 33
1, 252556, Control_c, 0, 64, 45
1, 252571, Control_c, 0, 64, 55
1, 252586, Control_c, 0, 64, 60
1, 252600, Control_c, 0, 64, 63
1, 252615, Control_c, 0, 64, 64
1, 252630, Control_c, 0, 64, 65
1, 252645, Control_c, 0, 64, 67
1, 252659, Control_c, 0, 64, 69
1, 252674, Control_c, 0, 64, 71
1, 252679, Note_off_c, 0, 58, 37
1, 252689, Control_c, 0, 64, 73
1, 252705, Control_c, 0, 64, 74
1, 252706, Note_off_c, 0, 52, 33
1, 252720, Control_c, 0, 64, 76
1, 252727, Note_off_c, 0, 50, 42
1, 252735, Control_c, 0, 64, 77
1, 252750, Control_c, 0, 64, 79
1, 252751, Note_off_c, 0, 35, 32
1, 252764, Control_c, 0, 64, 80
1, 252777, Note_off_c, 0, 47, 36
1, 252779, Control_c, 0, 64, 82
1, 252794, Control_c, 0, 64, 83
1, 252809, Control_c, 0, 64, 84
1, 252824, Control_c, 0, 64, 85
1, 252838, Control_c, 0, 64, 86
1, 252853, Control_c, 0, 64, 86
1, 252868, Control_c, 0, 64, 87
1, 252882, Control_c, 0, 64, 87
1, 252942, Control_c, 0, 64, 88
1, 253409, Control_c, 0, 64, 87
1, 253758, Control_c, 0, 64, 87
1, 253876, Control_c, 0, 64, 86
1, 253905, Control_c, 0, 64, 86
1, 253935, Control_c, 0, 64, 85
1, 253950, Control_c, 0, 64, 84
1, 253965, Control_c, 0, 64, 83
1, 253979, Control_c, 0, 64, 82
1, 253994, Control_c, 0, 64, 80
1, 254009, Control_c, 0, 64, 79
1, 254024, Control_c, 0, 64, 76
1, 254039, Control_c, 0, 64, 71
1, 254053, Control_c, 0, 64, 65
1, 254055, Note_on_c, 0, 39, 38
1, 254064, Note_on_c, 0, 27, 37
1, 254068, Control_c, 0, 64, 56
1, 254083, Control_c, 0, 64, 48
1, 254098, Control_c, 0, 64, 39
1, 254113, Control_c, 0, 64, 31
1, 254128, Control_c, 0, 64, 0
1, 254158, Control_c, 0, 64, 29
1, 254172, Control_c, 0, 64, 34
1, 254187, Control_c, 0, 64, 42
1, 254202, Control_c, 0, 64, 51
1, 254217, Control_c, 0, 64, 58
1, 254231, Control_c, 0, 64, 62
1, 254246, Control_c, 0, 64, 65
1, 254261, Control_c, 0, 64, 66
1, 254276, Control_c, 0, 64, 68
1, 254283, Note_off_c, 0, 27, 39
1, 254291, Control_c, 0, 64, 70
1, 254307, Control_c, 0, 64, 72
1, 254321, Control_c, 0, 64, 74
1, 254335, Note_off_c, 0, 39, 41
1, 254336, Control_c, 0, 64, 75
1, 254351, Control_c, 0, 64, 77
1, 254366, Control_c, 0, 64, 78
1, 254381, Control_c, 0, 64, 79
1, 254395, Control_c, 0, 64, 80
1, 254410, Control_c, 0, 64, 80
1, 254425, Control_c, 0, 64, 81
1, 254476, Control_c, 0, 64, 81
1, 254671, Note_on_c, 0, 51, 34
1, 254688, Note_on_c, 0, 39, 22
1, 254813, Note_off_c, 0, 51, 36
1, 254813, Note_off_c, 0, 39, 35
1, 254923, Note_on_c, 0, 51, 32
1, 254959, Note_on_c, 0, 39, 12
1, 255010, Note_off_c, 0, 39, 49
1, 255016, Note_off_c, 0, 51, 38
1, 255040, Control_c, 0, 64, 81
1, 255144, Note_on_c, 0, 51, 40
1, 255144, Control_c, 0, 64, 80
1, 255145, Note_on_c, 0, 39, 28
1, 255159, Control_c, 0, 64, 80
1, 255174, Control_c, 0, 64, 79
1, 255189, Control_c, 0, 64, 78
1, 255204, Control_c, 0, 64, 76
1, 255213, Note_on_c, 0, 64, 56
1, 255225, Control_c, 0, 64, 73
1, 255240, Control_c, 0, 64, 69
1, 255255, Control_c, 0, 64, 65
1, 255270, Control_c, 0, 64, 60
1, 255284, Control_c, 0, 64, 56
1, 255299, Control_c, 0, 64, 53
1, 255302, Note_off_c, 0, 64, 63
1, 255314, Control_c, 0, 64, 52
1, 255326, Note_on_c, 0, 63, 54
1, 255432, Control_c, 0, 64, 53
1, 255447, Control_c, 0, 64, 54
1, 255462, Control_c, 0, 64, 56
1, 255476, Control_c, 0, 64, 58
1, 255491, Control_c, 0, 64, 60
1, 255506, Control_c, 0, 64, 61
1, 255519, Note_on_c, 0, 54, 34
1, 255521, Control_c, 0, 64, 62
1, 255536, Control_c, 0, 64, 64
1, 255550, Control_c, 0, 64, 65
1, 255565, Control_c, 0, 64, 66
1, 255580, Control_c, 0, 64, 67
1, 255595, Control_c, 0, 64, 68
1, 255610, Control_c, 0, 64, 69
1, 255624, Control_c, 0, 64, 69
1, 255639, Control_c, 0, 64, 70
1, 255669, Control_c, 0, 64, 70
1, 255686, Note_off_c, 0, 54, 35
1, 255699, Note_on_c, 0, 59, 45
1, 255859, Note_off_c, 0, 39, 41
1, 255870, Note_on_c, 0, 54, 38
1, 255870, Note_off_c, 0, 51, 41
1, 256003, Control_c, 0, 64, 70
1, 256018, Control_c, 0, 64, 68
1, 256033, Control_c, 0, 64, 65
1, 256041, Note_on_c, 0, 51, 42
1, 256047, Control_c, 0, 64, 60
1, 256050, Note_on_c, 0, 39, 40
1, 256062, Control_c, 0, 64, 55
1, 256077, Control_c, 0, 64, 51
1, 256083, Note_off_c, 0, 54, 40
1, 256086, Note_off_c, 0, 51, 58
1, 256092, Control_c, 0, 64, 49
1, 256107, Control_c, 0, 64, 48
1, 256167, Control_c, 0, 64, 49
1, 256181, Control_c, 0, 64, 51
1, 256196, Control_c, 0, 64, 54
1, 256211, Note_on_c, 0, 51, 32
1, 256211, Control_c, 0, 64, 58
1, 256226, Control_c, 0, 64, 60
1, 256241, Control_c, 0, 64, 62
1, 256255, Control_c, 0, 64, 63
1, 256264, Note_off_c, 0, 51, 55
1, 256270, Control_c, 0, 64, 64
1, 256285, Control_c, 0, 64, 64
1, 256299, Control_c, 0, 64, 65
1, 256329, Note_off_c, 0, 59, 37
1, 256329, Control_c, 0, 64, 66
1, 256359, Control_c, 0, 64, 66
1, 256402, Note_on_c, 0, 51, 32
1, 256438, Note_off_c, 0, 51, 49
1, 256506, Control_c, 0, 64, 66
1, 256551, Control_c, 0, 64, 65
1, 256566, Control_c, 0, 64, 65
1, 256575, Note_on_c, 0, 51, 36
1, 256581, Control_c, 0, 64, 64
1, 256596, Control_c, 0, 64, 64
1, 256611, Control_c, 0, 64, 63
1, 256625, Control_c, 0, 64, 61
1, 256626, Note_off_c, 0, 63, 61
1, 256640, Control_c, 0, 64, 59
1, 256653, Note_on_c, 0, 59, 51
1, 256655, Control_c, 0, 64, 56
1, 256670, Control_c, 0, 64, 54
1, 256685, Control_c, 0, 64, 52
1, 256700, Control_c, 0, 64, 51
1, 256722, Note_off_c, 0, 59, 61
1, 256722, Control_c, 0, 64, 48
1, 256737, Control_c, 0, 64, 45
1, 256752, Note_on_c, 0, 58, 44
1, 256752, Control_c, 0, 64, 41
1, 256767, Control_c, 0, 64, 39
1, 256782, Control_c, 0, 64, 37
1, 256796, Control_c, 0, 64, 36
1, 256811, Control_c, 0, 64, 35
1, 256856, Control_c, 0, 64, 36
1, 256870, Control_c, 0, 64, 38
1, 256885, Control_c, 0, 64, 42
1, 256900, Control_c, 0, 64, 47
1, 256915, Control_c, 0, 64, 52
1, 256923, Note_on_c, 0, 56, 37
1, 256930, Control_c, 0, 64, 56
1, 256945, Control_c, 0, 64, 58
1, 256960, Control_c, 0, 64, 60
1, 256974, Control_c, 0, 64, 61
1, 256989, Control_c, 0, 64, 62
1, 257004, Control_c, 0, 64, 63
1, 257019, Control_c, 0, 64, 64
1, 257048, Control_c, 0, 64, 64
1, 257063, Control_c, 0, 64, 65
1, 257078, Control_c, 0, 64, 65
1, 257099, Note_off_c, 0, 56, 37
1, 257121, Note_on_c, 0, 61, 31
1, 257122, Control_c, 0, 64, 66
1, 257276, Note_on_c, 0, 56, 38
1, 257315, Note_off_c, 0, 39, 43
1, 257320, Note_off_c, 0, 51, 37
1, 257441, Note_off_c, 0, 56, 37
1, 257448, Control_c, 0, 64, 65
1, 257462, Note_on_c, 0, 51, 33
1, 257463, Control_c, 0, 64, 64
1, 257478, Note_on_c, 0, 39, 21
1, 257485, Control_c, 0, 64, 61
1, 257501, Control_c, 0, 64, 58
1, 257516, Control_c, 0, 64, 55
1, 257531, Control_c, 0, 64, 53
1, 257545, Control_c, 0, 64, 51
1, 257560, Control_c, 0, 64, 50
1, 257575, Control_c, 0, 64, 48
1, 257590, Control_c, 0, 64, 46
1, 257605, Control_c, 0, 64, 45
1, 257649, Control_c, 0, 64, 45
1, 257665, Note_off_c, 0, 51, 43
1, 257666, Note_on_c, 0, 49, 25
1, 257708, Control_c, 0, 64, 45
1, 257752, Control_c, 0, 64, 46
1, 257768, Note_off_c, 0, 49, 30
1, 257782, Control_c, 0, 64, 46
1, 257797, Control_c, 0, 64, 47
1, 257812, Control_c, 0, 64, 50
1, 257826, Control_c, 0, 64, 53
1, 257841, Control_c, 0, 64, 56
1, 257850, Note_on_c, 0, 51, 36
1, 257856, Control_c, 0, 64, 58
1, 257866, Note_off_c, 0, 58, 30
1, 257870, Control_c, 0, 64, 60
1, 257885, Control_c, 0, 64, 61
1, 257900, Control_c, 0, 64, 61
1, 257911, Note_off_c, 0, 51, 54
1, 257915, Control_c, 0, 64, 62
1, 257930, Control_c, 0, 64, 63
1, 257944, Control_c, 0, 64, 63
1, 257959, Note_off_c, 0, 61, 41
1, 257974, Control_c, 0, 64, 64
1, 258069, Note_on_c, 0, 51, 28
1, 258167, Control_c, 0, 64, 63
1, 258182, Control_c, 0, 64, 63
1, 258187, Note_on_c, 0, 64, 54
1, 258196, Control_c, 0, 64, 62
1, 258218, Control_c, 0, 64, 60
1, 258233, Control_c, 0, 64, 59
1, 258248, Control_c, 0, 64, 57
1, 258263, Control_c, 0, 64, 56
1, 258277, Control_c, 0, 64, 55
1, 258293, Control_c, 0, 64, 54
1, 258308, Control_c, 0, 64, 54
1, 258323, Control_c, 0, 64, 53
1, 258338, Control_c, 0, 64, 52
1, 258352, Note_off_c, 0, 64, 61
1, 258353, Control_c, 0, 64, 51
1, 258364, Note_on_c, 0, 63, 51
1, 258368, Control_c, 0, 64, 50
1, 258382, Control_c, 0, 64, 49
1, 258397, Control_c, 0, 64, 49
1, 258413, Control_c, 0, 64, 48
1, 258428, Control_c, 0, 64, 47
1, 258443, Control_c, 0, 64, 47
1, 258457, Control_c, 0, 64, 46
1, 258472, Control_c, 0, 64, 46
1, 258487, Control_c, 0, 64, 45
1, 258558, Note_on_c, 0, 54, 32
1, 258575, Control_c, 0, 64, 46
1, 258590, Control_c, 0, 64, 50
1, 258605, Control_c, 0, 64, 54
1, 258620, Control_c, 0, 64, 58
1, 258635, Control_c, 0, 64, 60
1, 258650, Control_c, 0, 64, 62
1, 258665, Control_c, 0, 64, 62
1, 258680, Control_c, 0, 64, 63
1, 258694, Control_c, 0, 64, 64
1, 258709, Control_c, 0, 64, 65
1, 258736, Note_off_c, 0, 54, 36
1, 258739, Control_c, 0, 64, 65
1, 258744, Note_on_c, 0, 59, 44
1, 258754, Control_c, 0, 64, 66
1, 258768, Control_c, 0, 64, 66
1, 258783, Control_c, 0, 64, 67
1, 258812, Control_c, 0, 64, 67
1, 258857, Control_c, 0, 64, 68
1, 258903, Note_on_c, 0, 54, 40
1, 258945, Note_off_c, 0, 39, 46
1, 258953, Note_off_c, 0, 51, 40
1, 259087, Control_c, 0, 64, 67
1, 259094, Note_on_c, 0, 39, 32
1, 259097, Note_on_c, 0, 51, 33
1, 259103, Control_c, 0, 64, 66
1, 259117, Control_c, 0, 64, 63
1, 259132, Control_c, 0, 64, 59
1, 259147, Control_c, 0, 64, 55
1, 259162, Control_c, 0, 64, 52
1, 259177, Control_c, 0, 64, 50
1, 259191, Control_c, 0, 64, 49
1, 259206, Control_c, 0, 64, 48
1, 259250, Control_c, 0, 64, 49
1, 259265, Control_c, 0, 64, 52
1, 259275, Note_on_c, 0, 49, 43
1, 259280, Control_c, 0, 64, 55
1, 259283, Note_off_c, 0, 51, 41
1, 259295, Control_c, 0, 64, 58
1, 259310, Control_c, 0, 64, 60
1, 259325, Note_off_c, 0, 54, 38
1, 259347, Note_off_c, 0, 59, 37
1, 259369, Control_c, 0, 64, 59
1, 259384, Control_c, 0, 64, 59
1, 259413, Control_c, 0, 64, 58
1, 259420, Note_off_c, 0, 49, 56
1, 259428, Control_c, 0, 64, 57
1, 259443, Control_c, 0, 64, 57
1, 259450, Note_on_c, 0, 51, 39
1, 259500, Note_off_c, 0, 51, 59
1, 259532, Control_c, 0, 64, 57
1, 259604, Note_on_c, 0, 51, 51
1, 259665, Control_c, 0, 64, 57
1, 259684, Note_on_c, 0, 59, 59
1, 259688, Note_off_c, 0, 63, 60
1, 259695, Control_c, 0, 64, 56
1, 259717, Control_c, 0, 64, 56
1, 259732, Control_c, 0, 64, 55
1, 259747, Control_c, 0, 64, 54
1, 259762, Control_c, 0, 64, 53
1, 259773, Note_off_c, 0, 59, 61
1, 259776, Note_on_c, 0, 58, 57
1, 259777, Control_c, 0, 64, 52
1, 259791, Control_c, 0, 64, 51
1, 259806, Control_c, 0, 64, 50
1, 259821, Control_c, 0, 64, 50
1, 259836, Control_c, 0, 64, 49
1, 259865, Control_c, 0, 64, 49
1, 259880, Control_c, 0, 64, 48
1, 259896, Control_c, 0, 64, 48
1, 259926, Control_c, 0, 64, 47
1, 259940, Control_c, 0, 64, 47
1, 259955, Control_c, 0, 64, 46
1, 259970, Control_c, 0, 64, 45
1, 259977, Note_on_c, 0, 56, 41
1, 259985, Control_c, 0, 64, 44
1, 260000, Control_c, 0, 64, 43
1, 260014, Control_c, 0, 64, 41
1, 260029, Control_c, 0, 64, 40
1, 260044, Control_c, 0, 64, 38
1, 260059, Control_c, 0, 64, 36
1, 260073, Control_c, 0, 64, 34
1, 260088, Control_c, 0, 64, 33
1, 260103, Control_c, 0, 64, 33
1, 260177, Control_c, 0, 64, 34
1, 260192, Control_c, 0, 64, 38
1, 260207, Control_c, 0, 64, 45
1, 260208, Note_off_c, 0, 56, 38
1, 260210, Note_on_c, 0, 61, 40
1, 260221, Control_c, 0, 64, 52
1, 260236, Control_c, 0, 64, 58
1, 260251, Control_c, 0, 64, 62
1, 260265, Control_c, 0, 64, 64
1, 260280, Control_c, 0, 64, 65
1, 260295, Control_c, 0, 64, 67
1, 260310, Control_c, 0, 64, 68
1, 260325, Control_c, 0, 64, 70
1, 260340, Control_c, 0, 64, 71
1, 260355, Control_c, 0, 64, 72
1, 260370, Control_c, 0, 64, 73
1, 260385, Control_c, 0, 64, 74
1, 260399, Control_c, 0, 64, 75
1, 260414, Note_on_c, 0, 56, 48
1, 260414, Control_c, 0, 64, 76
1, 260429, Control_c, 0, 64, 76
1, 260444, Control_c, 0, 64, 77
1, 260465, Control_c, 0, 64, 77
1, 260480, Control_c, 0, 67, 120
1, 260495, Control_c, 0, 64, 78
1, 260495, Control_c, 0, 67, 108
1, 260510, Control_c, 0, 67, 96
1, 260525, Control_c, 0, 67, 86
1, 260534, Note_off_c, 0, 51, 49
1, 260540, Control_c, 0, 67, 78
1, 260555, Control_c, 0, 67, 69
1, 260562, Note_off_c, 0, 39, 41
1, 260569, Control_c, 0, 67, 60
1, 260584, Control_c, 0, 67, 50
1, 260599, Control_c, 0, 67, 43
1, 260614, Control_c, 0, 67, 0
1, 260615, Note_off_c, 0, 56, 51
1, 260689, Control_c, 0, 64, 77
1, 260692, Note_on_c, 0, 39, 43
1, 260698, Note_on_c, 0, 51, 39
1, 260704, Control_c, 0, 64, 76
1, 260718, Control_c, 0, 64, 72
1, 260733, Control_c, 0, 64, 66
1, 260737, Note_off_c, 0, 58, 48
1, 260748, Control_c, 0, 64, 59
1, 260763, Control_c, 0, 64, 52
1, 260765, Note_off_c, 0, 61, 51
1, 260778, Control_c, 0, 64, 47
1, 260793, Control_c, 0, 64, 45
1, 260823, Control_c, 0, 64, 47
1, 260837, Control_c, 0, 64, 51
1, 260852, Control_c, 0, 64, 57
1, 260867, Control_c, 0, 64, 61
1, 260882, Control_c, 0, 64, 64
1, 260896, Control_c, 0, 64, 65
1, 260911, Control_c, 0, 64, 66
1, 260926, Control_c, 0, 64, 66
1, 260941, Control_c, 0, 64, 67
1, 260956, Control_c, 0, 64, 67
1, 260970, Control_c, 0, 64, 68
1, 260997, Note_on_c, 0, 49, 43
1, 261000, Control_c, 0, 64, 68
1, 261029, Control_c, 0, 64, 69
1, 261033, Note_off_c, 0, 51, 46
1, 261163, Control_c, 0, 64, 67
1, 261176, Note_on_c, 0, 51, 39
1, 261178, Control_c, 0, 64, 63
1, 261178, Note_off_c, 0, 49, 36
1, 261186, Note_on_c, 0, 66, 65
1, 261192, Control_c, 0, 64, 55
1, 261207, Control_c, 0, 64, 47
1, 261209, Note_on_c, 0, 63, 38
1, 261229, Control_c, 0, 64, 44
1, 261240, Note_off_c, 0, 51, 53
1, 261244, Control_c, 0, 64, 45
1, 261259, Control_c, 0, 64, 47
1, 261274, Control_c, 0, 64, 52
1, 261289, Control_c, 0, 64, 58
1, 261303, Control_c, 0, 64, 62
1, 261318, Control_c, 0, 64, 65
1, 261333, Control_c, 0, 64, 66
1, 261348, Control_c, 0, 64, 67
1, 261363, Control_c, 0, 64, 68
1, 261375, Note_on_c, 0, 51, 35
1, 261377, Control_c, 0, 64, 69
1, 261392, Control_c, 0, 64, 70
1, 261399, Note_off_c, 0, 39, 54
1, 261408, Control_c, 0, 64, 71
1, 261422, Control_c, 0, 64, 72
1, 261437, Control_c, 0, 64, 73
1, 261452, Control_c, 0, 64, 73
1, 261467, Control_c, 0, 64, 74
1, 261512, Control_c, 0, 64, 74
1, 261541, Note_on_c, 0, 71, 68
1, 261559, Note_off_c, 0, 63, 37
1, 261578, Note_on_c, 0, 68, 44
1, 261616, Control_c, 0, 64, 75
1, 261675, Control_c, 0, 64, 75
1, 261682, Note_off_c, 0, 66, 49
1, 261727, Note_on_c, 0, 54, 43
1, 261735, Control_c, 0, 64, 76
1, 261743, Note_off_c, 0, 68, 34
1, 261759, Note_off_c, 0, 71, 62
1, 261880, Note_off_c, 0, 54, 33
1, 261905, Note_on_c, 0, 59, 39
1, 262062, Note_off_c, 0, 59, 33
1, 262091, Note_on_c, 0, 77, 64
1, 262118, Note_on_c, 0, 73, 50
1, 262143, Note_off_c, 0, 51, 54
1, 262171, Control_c, 0, 64, 75
1, 262188, Poly_aftertouch_c, 0, 54, 0
1, 262200, Control_c, 0, 64, 74
1, 262215, Control_c, 0, 64, 73
1, 262230, Control_c, 0, 64, 70
1, 262245, Control_c, 0, 64, 66
1, 262256, Note_off_c, 0, 73, 49
1, 262260, Control_c, 0, 64, 60
1, 262264, Note_on_c, 0, 70, 50
1, 262267, Note_on_c, 0, 51, 46
1, 262275, Control_c, 0, 64, 53
1, 262290, Control_c, 0, 64, 46
1, 262294, Note_on_c, 0, 39, 38
1, 262305, Control_c, 0, 64, 38
1, 262320, Control_c, 0, 64, 0
1, 262433, Note_off_c, 0, 51, 35
1, 262447, Note_on_c, 0, 49, 33
1, 262468, Control_c, 0, 64, 34
1, 262483, Control_c, 0, 64, 45
1, 262498, Control_c, 0, 64, 55
1, 262513, Control_c, 0, 64, 60
1, 262528, Control_c, 0, 64, 62
1, 262542, Control_c, 0, 64, 63
1, 262557, Control_c, 0, 64, 64
1, 262572, Control_c, 0, 64, 65
1, 262587, Control_c, 0, 64, 66
1, 262602, Note_off_c, 0, 49, 37
1, 262602, Control_c, 0, 64, 67
1, 262616, Control_c, 0, 64, 68
1, 262618, Note_on_c, 0, 51, 37
1, 262625, Note_off_c, 0, 77, 59
1, 262631, Control_c, 0, 64, 69
1, 262646, Control_c, 0, 64, 69
1, 262660, Control_c, 0, 64, 70
1, 262672, Note_off_c, 0, 51, 55
1, 262675, Control_c, 0, 64, 70
1, 262677, Note_off_c, 0, 70, 63
1, 262690, Control_c, 0, 64, 71
1, 262728, Control_c, 0, 64, 71
1, 262772, Control_c, 0, 64, 72
1, 262778, Note_off_c, 0, 39, 50
1, 262817, Note_on_c, 0, 51, 45
1, 262884, Note_on_c, 0, 59, 68
1, 262930, Note_off_c, 0, 59, 59
1, 262949, Control_c, 0, 64, 70
1, 262964, Control_c, 0, 64, 67
1, 262969, Note_on_c, 0, 58, 57
1, 262979, Control_c, 0, 64, 62
1, 262993, Control_c, 0, 64, 56
1, 263008, Control_c, 0, 64, 51
1, 263023, Control_c, 0, 64, 48
1, 263038, Control_c, 0, 64, 47
1, 263053, Control_c, 0, 64, 47
1, 263067, Control_c, 0, 64, 48
1, 263082, Control_c, 0, 64, 51
1, 263098, Control_c, 0, 64, 55
1, 263113, Control_c, 0, 64, 59
1, 263128, Control_c, 0, 64, 61
1, 263142, Note_on_c, 0, 56, 45
1, 263143, Control_c, 0, 64, 63
1, 263157, Control_c, 0, 64, 64
1, 263172, Control_c, 0, 64, 65
1, 263187, Control_c, 0, 64, 66
1, 263202, Control_c, 0, 64, 67
1, 263216, Control_c, 0, 64, 68
1, 263231, Control_c, 0, 64, 69
1, 263246, Control_c, 0, 64, 70
1, 263261, Control_c, 0, 64, 71
1, 263266, Note_off_c, 0, 56, 57
1, 263276, Control_c, 0, 64, 71
1, 263291, Control_c, 0, 64, 72
1, 263306, Note_on_c, 0, 61, 33
1, 263306, Control_c, 0, 64, 72
1, 263321, Control_c, 0, 64, 73
1, 263365, Control_c, 0, 64, 73
1, 263405, Note_off_c, 0, 61, 28
1, 263449, Note_on_c, 0, 56, 43
1, 263507, Note_off_c, 0, 56, 62
1, 263532, Note_off_c, 0, 51, 54
1, 263609, Control_c, 0, 64, 73
1, 263624, Control_c, 0, 64, 69
1, 263639, Control_c, 0, 64, 64
1, 263654, Control_c, 0, 64, 57
1, 263664, Note_on_c, 0, 51, 45
1, 263669, Control_c, 0, 64, 54
1, 263693, Note_on_c, 0, 39, 34
1, 263698, Control_c, 0, 64, 55
1, 263713, Control_c, 0, 64, 58
1, 263717, Note_off_c, 0, 58, 63
1, 263728, Control_c, 0, 64, 61
1, 263743, Control_c, 0, 64, 63
1, 263757, Control_c, 0, 64, 65
1, 263772, Control_c, 0, 64, 67
1, 263787, Control_c, 0, 64, 68
1, 263802, Control_c, 0, 64, 68
1, 263816, Control_c, 0, 64, 69
1, 263831, Control_c, 0, 64, 69
1, 263834, Note_off_c, 0, 51, 50
1, 263846, Control_c, 0, 64, 70
1, 263847, Note_on_c, 0, 49, 40
1, 263861, Control_c, 0, 64, 71
1, 263876, Control_c, 0, 64, 71
1, 263892, Control_c, 0, 64, 72
1, 263907, Control_c, 0, 64, 72
1, 263945, Note_off_c, 0, 49, 46
1, 263981, Control_c, 0, 64, 71
1, 263994, Note_on_c, 0, 75, 71
1, 263994, Note_on_c, 0, 51, 45
1, 263995, Control_c, 0, 64, 66
1, 264010, Control_c, 0, 64, 59
1, 264025, Control_c, 0, 64, 55
1, 264026, Note_on_c, 0, 66, 47
1, 264039, Control_c, 0, 64, 55
1, 264046, Note_off_c, 0, 51, 57
1, 264054, Control_c, 0, 64, 56
1, 264069, Control_c, 0, 64, 59
1, 264084, Control_c, 0, 64, 62
1, 264085, Note_off_c, 0, 66, 57
1, 264099, Control_c, 0, 64, 65
1, 264114, Control_c, 0, 64, 67
1, 264129, Control_c, 0, 64, 68
1, 264144, Control_c, 0, 64, 69
1, 264158, Control_c, 0, 64, 70
1, 264166, Note_off_c, 0, 39, 53
1, 264172, Note_on_c, 0, 51, 43
1, 264173, Control_c, 0, 64, 70
1, 264203, Control_c, 0, 64, 71
1, 264225, Control_c, 0, 64, 71
1, 264345, Note_on_c, 0, 80, 66
1, 264355, Note_on_c, 0, 71, 41
1, 264373, Control_c, 0, 64, 70
1, 264388, Control_c, 0, 64, 67
1, 264395, Note_off_c, 0, 71, 0
1, 264395, Note_on_c, 0, 71, 18
1, 264403, Control_c, 0, 64, 64
1, 264418, Control_c, 0, 64, 60
1, 264432, Control_c, 0, 64, 59
1, 264437, Note_off_c, 0, 75, 58
1, 264462, Control_c, 0, 64, 60
1, 264477, Control_c, 0, 64, 61
1, 264492, Control_c, 0, 64, 62
1, 264506, Control_c, 0, 64, 63
1, 264521, Control_c, 0, 64, 65
1, 264536, Control_c, 0, 64, 66
1, 264537, Note_on_c, 0, 54, 28
1, 264551, Control_c, 0, 64, 68
1, 264565, Control_c, 0, 64, 69
1, 264580, Control_c, 0, 64, 69
1, 264595, Control_c, 0, 64, 70
1, 264616, Note_off_c, 0, 71, 56
1, 264625, Control_c, 0, 64, 70
1, 264654, Control_c, 0, 64, 71
1, 264707, Note_off_c, 0, 54, 36
1, 264715, Control_c, 0, 64, 71
1, 264716, Note_on_c, 0, 59, 35
1, 264894, Note_off_c, 0, 59, 43
1, 264936, Note_on_c, 0, 54, 36
1, 264938, Note_on_c, 0, 85, 67
1, 264962, Note_on_c, 0, 77, 43
1, 264983, Note_off_c, 0, 54, 61
1, 264993, Note_off_c, 0, 51, 60
1, 265107, Control_c, 0, 64, 71
1, 265117, Note_off_c, 0, 80, 27
1, 265122, Control_c, 0, 64, 70
1, 265136, Control_c, 0, 64, 68
1, 265150, Note_on_c, 0, 70, 55
1, 265152, Control_c, 0, 64, 65
1, 265167, Control_c, 0, 64, 60
1, 265169, Note_on_c, 0, 51, 26
1, 265171, Note_off_c, 0, 77, 42
1, 265181, Control_c, 0, 64, 55
1, 265196, Control_c, 0, 64, 47
1, 265202, Note_on_c, 0, 39, 15
1, 265211, Control_c, 0, 64, 41
1, 265226, Control_c, 0, 64, 34
1, 265241, Control_c, 0, 64, 28
1, 265255, Control_c, 0, 64, 0
1, 265291, Note_off_c, 0, 51, 34
1, 265300, Control_c, 0, 64, 29
1, 265315, Control_c, 0, 64, 36
1, 265321, Note_on_c, 0, 49, 35
1, 265330, Control_c, 0, 64, 45
1, 265345, Control_c, 0, 64, 54
1, 265360, Control_c, 0, 64, 60
1, 265375, Control_c, 0, 64, 63
1, 265389, Control_c, 0, 64, 64
1, 265404, Control_c, 0, 64, 65
1, 265419, Control_c, 0, 64, 66
1, 265434, Control_c, 0, 64, 67
1, 265443, Note_off_c, 0, 49, 50
1, 265449, Control_c, 0, 64, 69
1, 265463, Control_c, 0, 64, 70
1, 265467, Note_off_c, 0, 85, 64
1, 265477, Note_on_c, 0, 51, 36
1, 265479, Control_c, 0, 64, 71
1, 265494, Control_c, 0, 64, 72
1, 265509, Control_c, 0, 64, 72
1, 265524, Control_c, 0, 64, 73
1, 265527, Note_off_c, 0, 51, 57
1, 265539, Control_c, 0, 64, 73
1, 265555, Note_off_c, 0, 70, 64
1, 265654, Note_on_c, 0, 51, 42
1, 265669, Note_off_c, 0, 39, 40
1, 265768, Note_on_c, 0, 59, 53
1, 265795, Note_off_c, 0, 59, 55
1, 265798, Control_c, 0, 64, 71
1, 265812, Control_c, 0, 64, 67
1, 265827, Control_c, 0, 64, 63
1, 265830, Note_on_c, 0, 58, 62
1, 265842, Control_c, 0, 64, 56
1, 265857, Control_c, 0, 64, 50
1, 265872, Control_c, 0, 64, 45
1, 265886, Control_c, 0, 64, 42
1, 265915, Control_c, 0, 64, 42
1, 265930, Control_c, 0, 64, 45
1, 265945, Control_c, 0, 64, 52
1, 265959, Control_c, 0, 64, 59
1, 265974, Control_c, 0, 64, 63
1, 265989, Control_c, 0, 64, 66
1, 266004, Control_c, 0, 64, 67
1, 266019, Control_c, 0, 64, 69
1, 266023, Note_on_c, 0, 56, 32
1, 266033, Control_c, 0, 64, 70
1, 266048, Control_c, 0, 64, 71
1, 266063, Control_c, 0, 64, 72
1, 266072, Note_off_c, 0, 58, 64
1, 266078, Control_c, 0, 64, 73
1, 266093, Control_c, 0, 64, 74
1, 266108, Control_c, 0, 64, 75
1, 266123, Control_c, 0, 64, 76
1, 266153, Note_off_c, 0, 56, 51
1, 266153, Control_c, 0, 64, 76
1, 266182, Note_on_c, 0, 61, 48
1, 266182, Control_c, 0, 64, 77
1, 266211, Control_c, 0, 64, 77
1, 266250, Note_off_c, 0, 61, 45
1, 266256, Control_c, 0, 64, 78
1, 266329, Note_on_c, 0, 56, 53
1, 266356, Note_off_c, 0, 56, 61
1, 266373, Note_off_c, 0, 51, 53
1, 266472, Control_c, 0, 64, 77
1, 266487, Control_c, 0, 64, 74
1, 266497, Note_on_c, 0, 73, 64
1, 266501, Control_c, 0, 64, 68
1, 266516, Control_c, 0, 64, 60
1, 266522, Note_on_c, 0, 63, 49
1, 266528, Note_on_c, 0, 51, 33
1, 266531, Control_c, 0, 64, 51
1, 266546, Control_c, 0, 64, 45
1, 266549, Note_on_c, 0, 39, 33
1, 266561, Control_c, 0, 64, 43
1, 266576, Control_c, 0, 64, 44
1, 266590, Control_c, 0, 64, 47
1, 266599, Note_off_c, 0, 63, 61
1, 266605, Control_c, 0, 64, 53
1, 266620, Control_c, 0, 64, 59
1, 266634, Control_c, 0, 64, 63
1, 266649, Control_c, 0, 64, 65
1, 266664, Control_c, 0, 64, 67
1, 266665, Note_off_c, 0, 51, 35
1, 266679, Control_c, 0, 64, 68
1, 266680, Note_on_c, 0, 49, 41
1, 266694, Control_c, 0, 64, 69
1, 266708, Control_c, 0, 64, 71
1, 266723, Control_c, 0, 64, 72
1, 266738, Control_c, 0, 64, 73
1, 266753, Control_c, 0, 64, 74
1, 266767, Control_c, 0, 64, 74
1, 266782, Control_c, 0, 64, 75
1, 266788, Note_off_c, 0, 49, 51
1, 266797, Control_c, 0, 64, 76
1, 266812, Control_c, 0, 64, 77
1, 266822, Note_on_c, 0, 78, 76
1, 266827, Control_c, 0, 64, 78
1, 266837, Note_on_c, 0, 51, 43
1, 266841, Note_on_c, 0, 70, 61
1, 266841, Control_c, 0, 64, 79
1, 266856, Control_c, 0, 64, 80
1, 266859, Note_off_c, 0, 73, 61
1, 266871, Control_c, 0, 64, 81
1, 266883, Note_off_c, 0, 51, 53
1, 266886, Control_c, 0, 64, 82
1, 266901, Control_c, 0, 64, 83
1, 266916, Control_c, 0, 64, 83
1, 266957, Note_off_c, 0, 70, 63
1, 266960, Note_off_c, 0, 39, 43
1, 266960, Control_c, 0, 64, 84
1, 266989, Note_on_c, 0, 51, 53
1, 267139, Control_c, 0, 64, 83
1, 267154, Control_c, 0, 64, 81
1, 267169, Control_c, 0, 64, 76
1, 267171, Note_on_c, 0, 83, 78
1, 267183, Note_off_c, 0, 78, 53
1, 267183, Control_c, 0, 64, 68
1, 267192, Note_on_c, 0, 68, 44
1, 267205, Control_c, 0, 64, 62
1, 267220, Control_c, 0, 64, 57
1, 267235, Control_c, 0, 64, 56
1, 267250, Control_c, 0, 64, 56
1, 267265, Control_c, 0, 64, 58
1, 267279, Control_c, 0, 64, 60
1, 267294, Control_c, 0, 64, 63
1, 267309, Control_c, 0, 64, 65
1, 267324, Control_c, 0, 64, 68
1, 267330, Note_on_c, 0, 54, 41
1, 267339, Control_c, 0, 64, 70
1, 267354, Control_c, 0, 64, 71
1, 267369, Control_c, 0, 64, 72
1, 267383, Control_c, 0, 64, 72
1, 267383, Control_c, 0, 67, 37
1, 267398, Control_c, 0, 64, 73
1, 267398, Control_c, 0, 67, 38
1, 267413, Control_c, 0, 64, 74
1, 267428, Control_c, 0, 67, 39
1, 267443, Control_c, 0, 64, 74
1, 267443, Control_c, 0, 67, 39
1, 267457, Control_c, 0, 67, 40
1, 267472, Control_c, 0, 64, 75
1, 267472, Control_c, 0, 67, 41
1, 267476, Note_on_c, 0, 77, 66
1, 267487, Control_c, 0, 67, 43
1, 267490, Note_on_c, 0, 59, 49
1, 267495, Note_off_c, 0, 54, 37
1, 267496, Note_off_c, 0, 83, 56
1, 267502, Control_c, 0, 64, 75
1, 267502, Control_c, 0, 67, 45
1, 267517, Control_c, 0, 67, 48
1, 267524, Note_off_c, 0, 68, 55
1, 267531, Control_c, 0, 67, 53
1, 267545, Note_off_c, 0, 77, 63
1, 267546, Control_c, 0, 67, 56
1, 267561, Control_c, 0, 67, 60
1, 267575, Control_c, 0, 67, 62
1, 267590, Control_c, 0, 67, 65
1, 267603, Note_off_c, 0, 59, 54
1, 267605, Control_c, 0, 67, 67
1, 267620, Control_c, 0, 67, 71
1, 267633, Note_on_c, 0, 54, 50
1, 267635, Control_c, 0, 67, 86
1, 267650, Control_c, 0, 67, 100
1, 267662, Note_off_c, 0, 51, 59
1, 267664, Note_off_c, 0, 54, 63
1, 267664, Control_c, 0, 67, 109
1, 267679, Control_c, 0, 67, 117
1, 267694, Control_c, 0, 67, 126
1, 267739, Control_c, 0, 64, 74
1, 267753, Control_c, 0, 64, 72
1, 267768, Control_c, 0, 64, 69
1, 267783, Control_c, 0, 64, 64
1, 267798, Control_c, 0, 64, 58
1, 267804, Note_on_c, 0, 70, 65
1, 267813, Control_c, 0, 64, 53
1, 267828, Note_on_c, 0, 51, 40
1, 267828, Control_c, 0, 64, 46
1, 267831, Note_on_c, 0, 59, 51
1, 267843, Control_c, 0, 64, 42
1, 267846, Note_on_c, 0, 39, 41
1, 267857, Control_c, 0, 64, 38
1, 267873, Control_c, 0, 64, 38
1, 267888, Control_c, 0, 64, 38
1, 267902, Control_c, 0, 64, 42
1, 267917, Control_c, 0, 64, 48
1, 267932, Control_c, 0, 64, 56
1, 267954, Control_c, 0, 64, 60
1, 267969, Control_c, 0, 64, 63
1, 267984, Control_c, 0, 64, 64
1, 267985, Note_off_c, 0, 51, 37
1, 267986, Note_on_c, 0, 49, 42
1, 267995, Note_off_c, 0, 59, 36
1, 267999, Control_c, 0, 64, 65
1, 268013, Control_c, 0, 64, 66
1, 268028, Control_c, 0, 64, 67
1, 268043, Control_c, 0, 64, 68
1, 268058, Control_c, 0, 64, 69
1, 268102, Note_off_c, 0, 49, 54
1, 268102, Control_c, 0, 64, 68
1, 268114, Note_on_c, 0, 51, 45
1, 268117, Control_c, 0, 64, 68
1, 268120, Note_on_c, 0, 75, 74
1, 268133, Note_on_c, 0, 66, 51
1, 268174, Note_off_c, 0, 51, 55
1, 268191, Control_c, 0, 64, 68
1, 268205, Control_c, 0, 64, 69
1, 268213, Note_off_c, 0, 70, 31
1, 268220, Control_c, 0, 64, 70
1, 268231, Note_off_c, 0, 66, 61
1, 268235, Control_c, 0, 64, 71
1, 268250, Control_c, 0, 64, 72
1, 268263, Note_off_c, 0, 75, 65
1, 268279, Control_c, 0, 64, 73
1, 268295, Note_off_c, 0, 39, 39
1, 268296, Note_on_c, 0, 51, 49
1, 268486, Note_on_c, 0, 80, 68
1, 268502, Control_c, 0, 64, 71
1, 268516, Note_on_c, 0, 65, 43
1, 268517, Control_c, 0, 64, 67
1, 268531, Control_c, 0, 64, 62
1, 268546, Control_c, 0, 64, 56
1, 268561, Control_c, 0, 64, 52
1, 268576, Control_c, 0, 64, 52
1, 268591, Control_c, 0, 64, 52
1, 268605, Control_c, 0, 64, 54
1, 268620, Control_c, 0, 64, 57
1, 268635, Control_c, 0, 64, 61
1, 268650, Control_c, 0, 64, 64
1, 268665, Control_c, 0, 64, 66
1, 268680, Control_c, 0, 64, 67
1, 268695, Control_c, 0, 64, 68
1, 268707, Note_on_c, 0, 56, 38
1, 268717, Control_c, 0, 64, 69
1, 268732, Control_c, 0, 64, 70
1, 268747, Control_c, 0, 64, 71
1, 268762, Control_c, 0, 64, 72
1, 268776, Control_c, 0, 64, 72
1, 268791, Control_c, 0, 64, 73
1, 268806, Control_c, 0, 64, 73
1, 268821, Control_c, 0, 64, 74
1, 268846, Note_off_c, 0, 56, 57
1, 268865, Control_c, 0, 64, 74
1, 268875, Note_on_c, 0, 73, 56
1, 268889, Note_on_c, 0, 61, 31
1, 268910, Control_c, 0, 64, 75
1, 268927, Note_off_c, 0, 80, 60
1, 268936, Note_off_c, 0, 65, 31
1, 269002, Note_off_c, 0, 61, 35
1, 269008, Note_off_c, 0, 73, 59
1, 269037, Note_on_c, 0, 56, 51
1, 269077, Note_off_c, 0, 56, 63
1, 269103, Note_off_c, 0, 51, 52
1, 269223, Note_on_c, 0, 56, 60
1, 269235, Control_c, 0, 64, 72
1, 269242, Note_on_c, 0, 51, 42
1, 269250, Control_c, 0, 64, 68
1, 269265, Control_c, 0, 64, 60
1, 269268, Note_on_c, 0, 39, 40
1, 269280, Control_c, 0, 64, 52
1, 269295, Control_c, 0, 64, 46
1, 269309, Control_c, 0, 64, 43
1, 269339, Control_c, 0, 64, 45
1, 269354, Control_c, 0, 64, 49
1, 269364, Note_off_c, 0, 51, 45
1, 269369, Control_c, 0, 64, 56
1, 269384, Control_c, 0, 64, 61
1, 269399, Control_c, 0, 64, 63
1, 269410, Note_on_c, 0, 49, 40
1, 269414, Control_c, 0, 64, 65
1, 269428, Control_c, 0, 64, 66
1, 269450, Control_c, 0, 64, 67
1, 269465, Control_c, 0, 64, 69
1, 269481, Control_c, 0, 64, 70
1, 269485, Note_off_c, 0, 56, 63
1, 269496, Control_c, 0, 64, 71
1, 269511, Control_c, 0, 64, 72
1, 269526, Control_c, 0, 64, 72
1, 269540, Control_c, 0, 64, 73
1, 269555, Control_c, 0, 64, 73
1, 269566, Note_off_c, 0, 49, 37
1, 269584, Note_on_c, 0, 51, 41
1, 269584, Control_c, 0, 64, 74
1, 269636, Note_off_c, 0, 51, 56
1, 269673, Control_c, 0, 64, 74
1, 269751, Note_off_c, 0, 39, 42
1, 269792, Note_on_c, 0, 51, 39
1, 269866, Control_c, 0, 64, 74
1, 269905, Note_on_c, 0, 78, 64
1, 269906, Note_on_c, 0, 73, 62
1, 269915, Note_on_c, 0, 66, 57
1, 269936, Note_off_c, 0, 66, 64
1, 269940, Control_c, 0, 64, 73
1, 269950, Note_off_c, 0, 73, 56
1, 269951, Note_off_c, 0, 78, 51
1, 269955, Control_c, 0, 64, 71
1, 269969, Control_c, 0, 64, 66
1, 269984, Control_c, 0, 64, 58
1, 269995, Note_on_c, 0, 75, 57
1, 269999, Control_c, 0, 64, 51
1, 270001, Note_on_c, 0, 70, 54
1, 270012, Note_on_c, 0, 65, 36
1, 270014, Control_c, 0, 64, 46
1, 270029, Control_c, 0, 64, 42
1, 270043, Control_c, 0, 64, 42
1, 270073, Control_c, 0, 64, 44
1, 270088, Control_c, 0, 64, 48
1, 270103, Control_c, 0, 64, 54
1, 270117, Control_c, 0, 64, 59
1, 270132, Control_c, 0, 64, 62
1, 270147, Control_c, 0, 64, 64
1, 270162, Control_c, 0, 64, 65
1, 270177, Control_c, 0, 64, 67
1, 270180, Note_on_c, 0, 56, 48
1, 270199, Control_c, 0, 64, 69
1, 270214, Control_c, 0, 64, 70
1, 270229, Control_c, 0, 64, 71
1, 270244, Control_c, 0, 64, 72
1, 270258, Control_c, 0, 64, 73
1, 270267, Note_off_c, 0, 75, 63
1, 270274, Control_c, 0, 64, 74
1, 270289, Control_c, 0, 64, 74
1, 270294, Note_off_c, 0, 65, 48
1, 270304, Note_off_c, 0, 70, 64
1, 270304, Control_c, 0, 64, 75
1, 270333, Note_off_c, 0, 56, 57
1, 270334, Control_c, 0, 64, 76
1, 270348, Control_c, 0, 64, 76
1, 270362, Note_on_c, 0, 61, 46
1, 270378, Control_c, 0, 64, 77
1, 270407, Control_c, 0, 64, 77
1, 270414, Note_off_c, 0, 61, 52
1, 270467, Control_c, 0, 64, 78
1, 270528, Note_on_c, 0, 56, 53
1, 270563, Note_off_c, 0, 56, 63
1, 270594, Note_on_c, 0, 59, 59
1, 270609, Note_off_c, 0, 51, 53
1, 270615, Control_c, 0, 64, 77
1, 270660, Control_c, 0, 64, 77
1, 270670, Note_off_c, 0, 59, 58
1, 270674, Control_c, 0, 64, 76
1, 270681, Note_on_c, 0, 58, 59
1, 270689, Control_c, 0, 64, 75
1, 270704, Control_c, 0, 64, 72
1, 270718, Control_c, 0, 64, 67
1, 270733, Control_c, 0, 64, 61
1, 270735, Note_on_c, 0, 51, 43
1, 270748, Control_c, 0, 64, 54
1, 270763, Control_c, 0, 64, 46
1, 270778, Control_c, 0, 64, 33
1, 270793, Control_c, 0, 64, 0
1, 270905, Note_on_c, 0, 44, 43
1, 270911, Control_c, 0, 64, 37
1, 270925, Control_c, 0, 64, 52
1, 270926, Note_off_c, 0, 51, 50
1, 270948, Control_c, 0, 64, 61
1, 270963, Control_c, 0, 64, 64
1, 270978, Control_c, 0, 64, 65
1, 270993, Control_c, 0, 64, 66
1, 271007, Control_c, 0, 64, 67
1, 271022, Control_c, 0, 64, 68
1, 271037, Control_c, 0, 64, 70
1, 271052, Control_c, 0, 64, 71
1, 271067, Control_c, 0, 64, 72
1, 271083, Control_c, 0, 64, 73
1, 271097, Control_c, 0, 64, 74
1, 271112, Note_off_c, 0, 44, 56
1, 271112, Control_c, 0, 64, 75
1, 271112, Control_c, 0, 67, 124
1, 271125, Note_on_c, 0, 51, 38
1, 271127, Control_c, 0, 64, 76
1, 271127, Control_c, 0, 67, 121
1, 271143, Control_c, 0, 64, 77
1, 271143, Control_c, 0, 67, 119
1, 271158, Control_c, 0, 64, 78
1, 271158, Control_c, 0, 67, 116
1, 271172, Control_c, 0, 64, 79
1, 271172, Control_c, 0, 67, 113
1, 271187, Control_c, 0, 64, 81
1, 271187, Control_c, 0, 67, 105
1, 271202, Control_c, 0, 64, 82
1, 271202, Control_c, 0, 67, 90
1, 271217, Control_c, 0, 64, 84
1, 271217, Control_c, 0, 67, 75
1, 271231, Control_c, 0, 64, 85
1, 271231, Control_c, 0, 67, 58
1, 271246, Control_c, 0, 64, 86
1, 271246, Control_c, 0, 67, 43
1, 271261, Control_c, 0, 64, 86
1, 271261, Control_c, 0, 67, 0
1, 271276, Control_c, 0, 64, 87
1, 271291, Control_c, 0, 64, 87
1, 271305, Control_c, 0, 64, 88
1, 271316, Note_off_c, 0, 51, 43
1, 271320, Control_c, 0, 64, 88
1, 271335, Control_c, 0, 64, 89
1, 271355, Note_on_c, 0, 44, 40
1, 271364, Control_c, 0, 64, 89
1, 271379, Control_c, 0, 64, 90
1, 271423, Control_c, 0, 64, 90
1, 271446, Note_off_c, 0, 44, 59
1, 271453, Control_c, 0, 64, 91
1, 271617, Control_c, 0, 64, 90
1, 271631, Control_c, 0, 64, 89
1, 271646, Control_c, 0, 64, 84
1, 271661, Control_c, 0, 64, 75
1, 271676, Control_c, 0, 64, 63
1, 271695, Note_on_c, 0, 39, 46
1, 271697, Control_c, 0, 64, 45
1, 271702, Note_on_c, 0, 27, 46
1, 271712, Control_c, 0, 64, 0
1, 271712, Control_c, 0, 66, 127
1, 271785, Note_on_c, 0, 63, 33
1, 271823, Note_off_c, 0, 58, 37
1, 271891, Control_c, 0, 64, 33
1, 271897, Note_off_c, 0, 27, 61
1, 271906, Control_c, 0, 64, 45
1, 271921, Control_c, 0, 64, 56
1, 271936, Control_c, 0, 64, 61
1, 271951, Control_c, 0, 64, 64
1, 271965, Control_c, 0, 64, 65
1, 271976, Note_off_c, 0, 39, 38
1, 271980, Control_c, 0, 64, 66
1, 271994, Note_on_c, 0, 61, 41
1, 271995, Control_c, 0, 64, 66
1, 272000, Note_off_c, 0, 63, 35
1, 272010, Control_c, 0, 64, 67
1, 272025, Control_c, 0, 64, 69
1, 272040, Control_c, 0, 64, 69
1, 272084, Control_c, 0, 64, 70
1, 272159, Note_on_c, 0, 54, 53
1, 272166, Note_on_c, 0, 63, 52
1, 272171, Note_on_c, 0, 51, 45
1, 272171, Note_off_c, 0, 61, 51
1, 272243, Note_off_c, 0, 63, 57
1, 272359, Note_on_c, 0, 63, 53
1, 272476, Control_c, 0, 64, 69
1, 272491, Control_c, 0, 64, 69
1, 272506, Control_c, 0, 64, 65
1, 272521, Note_on_c, 0, 59, 71
1, 272521, Control_c, 0, 64, 58
1, 272535, Control_c, 0, 64, 42
1, 272539, Note_off_c, 0, 51, 59
1, 272550, Note_on_c, 0, 56, 55
1, 272550, Control_c, 0, 64, 0
1, 272582, Note_off_c, 0, 54, 52
1, 272651, Note_off_c, 0, 63, 58
1, 272666, Note_on_c, 0, 66, 57
1, 272684, Control_c, 0, 64, 41
1, 272699, Control_c, 0, 64, 53
1, 272714, Control_c, 0, 64, 60
1, 272729, Control_c, 0, 64, 63
1, 272734, Note_off_c, 0, 66, 58
1, 272743, Control_c, 0, 64, 64
1, 272758, Control_c, 0, 64, 65
1, 272773, Control_c, 0, 64, 66
1, 272776, Note_on_c, 0, 71, 52
1, 272788, Control_c, 0, 64, 67
1, 272802, Control_c, 0, 64, 69
1, 272817, Control_c, 0, 64, 69
1, 272832, Control_c, 0, 64, 70
1, 272841, Note_off_c, 0, 56, 59
1, 272847, Control_c, 0, 64, 71
1, 272851, Note_off_c, 0, 59, 64
1, 272888, Note_on_c, 0, 77, 63
1, 272892, Note_off_c, 0, 71, 36
1, 272971, Note_off_c, 0, 77, 55
1, 273006, Note_on_c, 0, 71, 49
1, 273045, Note_on_c, 0, 61, 74
1, 273074, Note_on_c, 0, 65, 40
1, 273104, Note_off_c, 0, 65, 51
1, 273113, Note_on_c, 0, 66, 48
1, 273113, Note_off_c, 0, 71, 36
1, 273143, Control_c, 0, 64, 70
1, 273158, Control_c, 0, 64, 70
1, 273173, Control_c, 0, 64, 69
1, 273194, Control_c, 0, 64, 67
1, 273208, Note_off_c, 0, 66, 64
1, 273209, Control_c, 0, 64, 65
1, 273214, Note_on_c, 0, 65, 51
1, 273215, Note_on_c, 0, 58, 73
1, 273224, Control_c, 0, 64, 61
1, 273225, Note_off_c, 0, 61, 59
1, 273239, Control_c, 0, 64, 54
1, 273247, Note_on_c, 0, 63, 56
1, 273254, Control_c, 0, 64, 44
1, 273269, Control_c, 0, 64, 29
1, 273283, Control_c, 0, 64, 0
1, 273359, Note_off_c, 0, 63, 50
1, 273395, Note_on_c, 0, 61, 48
1, 273477, Control_c, 0, 64, 31
1, 273492, Control_c, 0, 64, 44
1, 273497, Note_off_c, 0, 61, 57
1, 273507, Control_c, 0, 64, 54
1, 273521, Control_c, 0, 64, 59
1, 273536, Control_c, 0, 64, 62
1, 273551, Control_c, 0, 64, 64
1, 273551, Note_on_c, 0, 63, 42
1, 273566, Control_c, 0, 64, 65
1, 273581, Control_c, 0, 64, 66
1, 273596, Control_c, 0, 64, 68
1, 273611, Control_c, 0, 64, 70
1, 273620, Note_off_c, 0, 63, 54
1, 273625, Control_c, 0, 64, 72
1, 273640, Control_c, 0, 64, 74
1, 273655, Control_c, 0, 64, 76
1, 273670, Control_c, 0, 64, 78
1, 273676, Note_off_c, 0, 65, 31
1, 273685, Control_c, 0, 64, 80
1, 273699, Control_c, 0, 64, 82
1, 273714, Control_c, 0, 64, 84
1, 273729, Control_c, 0, 64, 86
1, 273743, Control_c, 0, 64, 87
1, 273749, Note_on_c, 0, 63, 45
1, 273758, Control_c, 0, 64, 89
1, 273773, Control_c, 0, 64, 91
1, 273788, Control_c, 0, 64, 92
1, 273803, Control_c, 0, 64, 92
1, 273817, Control_c, 0, 64, 93
1, 273832, Control_c, 0, 64, 93
1, 273847, Control_c, 0, 64, 94
1, 273891, Control_c, 0, 64, 94
1, 273958, Control_c, 0, 64, 95
1, 273988, Note_off_c, 0, 63, 56
1, 274026, Note_on_c, 0, 66, 50
1, 274125, Note_off_c, 0, 66, 53
1, 274150, Note_on_c, 0, 71, 50
1, 274184, Note_off_c, 0, 58, 39
1, 274268, Note_on_c, 0, 77, 66
1, 274279, Note_off_c, 0, 71, 37
1, 274354, Note_off_c, 0, 77, 61
1, 274382, Note_on_c, 0, 71, 65
1, 274389, Control_c, 0, 64, 94
1, 274466, Note_off_c, 0, 71, 60
1, 274474, Note_on_c, 0, 66, 70
1, 274508, Control_c, 0, 64, 94
1, 274522, Control_c, 0, 64, 93
1, 274537, Control_c, 0, 64, 87
1, 274552, Control_c, 0, 64, 77
1, 274555, Note_off_c, 0, 66, 62
1, 274566, Control_c, 0, 64, 63
1, 274581, Control_c, 0, 64, 45
1, 274585, Note_on_c, 0, 51, 70
1, 274596, Control_c, 0, 64, 0
1, 274597, Note_on_c, 0, 75, 59
1, 274600, Note_on_c, 0, 39, 63
1, 274604, Note_on_c, 0, 63, 47
1, 274670, Control_c, 0, 64, 39
1, 274693, Control_c, 0, 64, 51
1, 274697, Note_off_c, 0, 39, 63
1, 274708, Control_c, 0, 64, 59
1, 274722, Control_c, 0, 64, 63
1, 274729, Note_off_c, 0, 51, 63
1, 274735, Note_off_c, 0, 63, 48
1, 274737, Control_c, 0, 64, 64
1, 274752, Control_c, 0, 64, 64
1, 274760, Note_off_c, 0, 75, 61
1, 274766, Control_c, 0, 64, 65
1, 274779, Note_on_c, 0, 73, 66
1, 274781, Control_c, 0, 64, 66
1, 274796, Control_c, 0, 64, 67
1, 274811, Control_c, 0, 64, 68
1, 274826, Control_c, 0, 64, 69
1, 274840, Control_c, 0, 64, 70
1, 274870, Control_c, 0, 64, 70
1, 274915, Control_c, 0, 64, 70
1, 274928, Note_on_c, 0, 63, 82
1, 274949, Note_on_c, 0, 75, 73
1, 274952, Note_on_c, 0, 54, 58
1, 274957, Note_off_c, 0, 73, 59
1, 275003, Note_off_c, 0, 75, 64
1, 275055, Note_off_c, 0, 54, 50
1, 275110, Note_on_c, 0, 75, 65
1, 275263, Note_on_c, 0, 68, 82
1, 275269, Note_off_c, 0, 63, 63
1, 275284, Note_on_c, 0, 59, 61
1, 275286, Control_c, 0, 64, 69
1, 275301, Control_c, 0, 64, 64
1, 275316, Control_c, 0, 64, 54
1, 275331, Control_c, 0, 64, 39
1, 275346, Control_c, 0, 64, 0
1, 275390, Control_c, 0, 64, 34
1, 275405, Note_off_c, 0, 75, 59
1, 275405, Control_c, 0, 64, 47
1, 275411, Note_on_c, 0, 78, 68
1, 275420, Control_c, 0, 64, 57
1, 275442, Control_c, 0, 64, 63
1, 275457, Control_c, 0, 64, 66
1, 275471, Control_c, 0, 64, 68
1, 275486, Control_c, 0, 64, 69
1, 275501, Control_c, 0, 64, 71
1, 275516, Control_c, 0, 64, 73
1, 275523, Note_off_c, 0, 78, 59
1, 275531, Control_c, 0, 64, 74
1, 275534, Note_on_c, 0, 83, 66
1, 275545, Control_c, 0, 64, 75
1, 275560, Control_c, 0, 64, 76
1, 275575, Control_c, 0, 64, 77
1, 275590, Control_c, 0, 64, 77
1, 275605, Control_c, 0, 64, 78
1, 275620, Control_c, 0, 64, 78
1, 275624, Note_off_c, 0, 59, 37
1, 275635, Note_off_c, 0, 83, 55
1, 275650, Control_c, 0, 64, 79
1, 275659, Note_on_c, 0, 89, 62
1, 275709, Note_off_c, 0, 68, 62
1, 275738, Control_c, 0, 64, 79
1, 275760, Note_off_c, 0, 89, 50
1, 275762, Note_on_c, 0, 83, 56
1, 275876, Note_on_c, 0, 73, 82
1, 275891, Note_on_c, 0, 65, 58
1, 275906, Note_off_c, 0, 83, 53
1, 275933, Note_off_c, 0, 73, 60
1, 275939, Note_on_c, 0, 78, 47
1, 275976, Control_c, 0, 64, 79
1, 276025, Note_off_c, 0, 65, 51
1, 276038, Note_on_c, 0, 70, 68
1, 276040, Note_off_c, 0, 78, 61
1, 276050, Control_c, 0, 64, 78
1, 276064, Note_on_c, 0, 61, 43
1, 276065, Control_c, 0, 64, 77
1, 276073, Note_on_c, 0, 58, 48
1, 276076, Note_on_c, 0, 75, 49
1, 276080, Control_c, 0, 64, 72
1, 276085, Note_on_c, 0, 63, 39
1, 276094, Control_c, 0, 64, 62
1, 276109, Control_c, 0, 64, 49
1, 276124, Control_c, 0, 64, 28
1, 276139, Control_c, 0, 64, 0
1, 276208, Note_off_c, 0, 75, 55
1, 276250, Note_on_c, 0, 73, 48
1, 276250, Control_c, 0, 64, 36
1, 276265, Control_c, 0, 64, 48
1, 276280, Control_c, 0, 64, 57
1, 276294, Control_c, 0, 64, 61
1, 276309, Control_c, 0, 64, 63
1, 276324, Control_c, 0, 64, 64
1, 276339, Control_c, 0, 64, 65
1, 276353, Control_c, 0, 64, 65
1, 276355, Note_off_c, 0, 73, 59
1, 276368, Control_c, 0, 64, 67
1, 276383, Control_c, 0, 64, 68
1, 276398, Control_c, 0, 64, 70
1, 276412, Note_on_c, 0, 75, 46
1, 276412, Control_c, 0, 64, 72
1, 276427, Control_c, 0, 64, 74
1, 276442, Control_c, 0, 64, 75
1, 276457, Control_c, 0, 64, 77
1, 276458, Note_off_c, 0, 75, 58
1, 276472, Control_c, 0, 64, 78
1, 276486, Control_c, 0, 64, 79
1, 276501, Control_c, 0, 64, 80
1, 276516, Control_c, 0, 64, 81
1, 276531, Control_c, 0, 64, 82
1, 276545, Control_c, 0, 64, 83
1, 276560, Control_c, 0, 64, 84
1, 276568, Note_on_c, 0, 75, 48
1, 276575, Control_c, 0, 64, 85
1, 276590, Control_c, 0, 64, 86
1, 276605, Control_c, 0, 64, 87
1, 276619, Control_c, 0, 64, 87
1, 276634, Control_c, 0, 64, 88
1, 276649, Control_c, 0, 64, 89
1, 276665, Control_c, 0, 64, 89
1, 276680, Control_c, 0, 64, 90
1, 276695, Control_c, 0, 64, 90
1, 276698, Note_off_c, 0, 75, 57
1, 276724, Control_c, 0, 64, 91
1, 276743, Note_on_c, 0, 78, 48
1, 276768, Control_c, 0, 64, 91
1, 276839, Note_off_c, 0, 78, 45
1, 276872, Control_c, 0, 64, 92
1, 276887, Note_on_c, 0, 83, 45
1, 277001, Note_off_c, 0, 70, 56
1, 277003, Note_off_c, 0, 83, 37
1, 277018, Note_on_c, 0, 89, 65
1, 277086, Note_off_c, 0, 63, 61
1, 277090, Note_off_c, 0, 89, 58
1, 277095, Note_off_c, 0, 58, 61
1, 277102, Note_off_c, 0, 61, 51
1, 277110, Note_on_c, 0, 83, 65
1, 277191, Note_off_c, 0, 83, 59
1, 277217, Note_on_c, 0, 78, 62
1, 277221, Control_c, 0, 64, 91
1, 277252, Note_off_c, 0, 78, 62
1, 277294, Control_c, 0, 64, 91
1, 277300, Note_on_c, 0, 73, 70
1, 277324, Control_c, 0, 64, 90
1, 277339, Control_c, 0, 64, 88
1, 277342, Note_off_c, 0, 73, 57
1, 277354, Control_c, 0, 64, 82
1, 277368, Control_c, 0, 64, 74
1, 277383, Control_c, 0, 64, 63
1, 277398, Control_c, 0, 64, 48
1, 277400, Note_on_c, 0, 68, 59
1, 277413, Note_on_c, 0, 51, 45
1, 277413, Control_c, 0, 64, 0
1, 277418, Note_on_c, 0, 39, 47
1, 277488, Control_c, 0, 64, 31
1, 277503, Control_c, 0, 64, 35
1, 277518, Control_c, 0, 64, 39
1, 277532, Control_c, 0, 64, 41
1, 277546, Note_off_c, 0, 51, 47
1, 277547, Control_c, 0, 64, 44
1, 277561, Note_on_c, 0, 49, 46
1, 277562, Control_c, 0, 64, 47
1, 277577, Control_c, 0, 64, 51
1, 277591, Control_c, 0, 64, 54
1, 277606, Control_c, 0, 64, 56
1, 277621, Control_c, 0, 64, 58
1, 277636, Control_c, 0, 64, 59
1, 277651, Control_c, 0, 64, 61
1, 277665, Control_c, 0, 64, 62
1, 277680, Control_c, 0, 64, 63
1, 277691, Note_off_c, 0, 49, 57
1, 277695, Note_on_c, 0, 51, 58
1, 277702, Note_off_c, 0, 39, 43
1, 277703, Control_c, 0, 66, 0
1, 277707, Note_off_c, 0, 68, 56
1, 277717, Control_c, 0, 64, 63
1, 277719, Note_on_c, 0, 73, 52
1, 277736, Note_off_c, 0, 51, 61
1, 277747, Control_c, 0, 64, 64
1, 277777, Control_c, 0, 64, 64
1, 277821, Control_c, 0, 64, 64
1, 277836, Control_c, 0, 64, 61
1, 277838, Note_on_c, 0, 51, 49
1, 277851, Control_c, 0, 64, 56
1, 277859, Note_on_c, 0, 39, 37
1, 277865, Control_c, 0, 64, 51
1, 277881, Control_c, 0, 64, 49
1, 277896, Control_c, 0, 64, 48
1, 277911, Control_c, 0, 64, 50
1, 277925, Control_c, 0, 64, 54
1, 277940, Control_c, 0, 64, 58
1, 277955, Control_c, 0, 64, 60
1, 277970, Control_c, 0, 64, 61
1, 277985, Control_c, 0, 64, 62
1, 277993, Note_off_c, 0, 73, 57
1, 277994, Note_on_c, 0, 78, 53
1, 277999, Control_c, 0, 64, 62
1, 278000, Note_off_c, 0, 51, 50
1, 278002, Note_on_c, 0, 49, 46
1, 278014, Control_c, 0, 64, 63
1, 278029, Control_c, 0, 64, 64
1, 278044, Control_c, 0, 64, 64
1, 278059, Control_c, 0, 64, 65
1, 278060, Note_off_c, 0, 39, 43
1, 278073, Control_c, 0, 64, 65
1, 278088, Control_c, 0, 64, 66
1, 278096, Note_off_c, 0, 49, 59
1, 278118, Control_c, 0, 64, 66
1, 278130, Note_on_c, 0, 51, 59
1, 278133, Control_c, 0, 64, 67
1, 278172, Note_off_c, 0, 51, 61
1, 278207, Control_c, 0, 64, 65
1, 278222, Control_c, 0, 64, 62
1, 278237, Control_c, 0, 64, 56
1, 278252, Control_c, 0, 64, 52
1, 278260, Note_off_c, 0, 78, 58
1, 278273, Note_on_c, 0, 51, 48
1, 278274, Note_on_c, 0, 71, 62
1, 278282, Control_c, 0, 64, 53
1, 278293, Note_on_c, 0, 39, 43
1, 278297, Control_c, 0, 64, 56
1, 278309, Note_off_c, 0, 71, 61
1, 278312, Control_c, 0, 64, 59
1, 278321, Note_on_c, 0, 73, 63
1, 278327, Control_c, 0, 64, 62
1, 278341, Control_c, 0, 64, 63
1, 278356, Control_c, 0, 64, 64
1, 278383, Note_on_c, 0, 71, 67
1, 278386, Control_c, 0, 64, 65
1, 278401, Control_c, 0, 64, 65
1, 278407, Note_off_c, 0, 51, 33
1, 278408, Note_on_c, 0, 49, 46
1, 278408, Note_off_c, 0, 73, 56
1, 278415, Control_c, 0, 64, 66
1, 278437, Control_c, 0, 64, 66
1, 278452, Control_c, 0, 64, 67
1, 278455, Note_off_c, 0, 39, 32
1, 278467, Control_c, 0, 64, 67
1, 278497, Note_off_c, 0, 71, 62
1, 278497, Control_c, 0, 64, 68
1, 278512, Note_off_c, 0, 49, 61
1, 278546, Note_on_c, 0, 64, 67
1, 278552, Note_on_c, 0, 51, 58
1, 278556, Control_c, 0, 64, 67
1, 278571, Control_c, 0, 64, 66
1, 278586, Control_c, 0, 64, 65
1, 278593, Note_off_c, 0, 51, 61
1, 278601, Control_c, 0, 64, 65
1, 278601, Control_c, 0, 67, 46
1, 278615, Control_c, 0, 67, 56
1, 278630, Control_c, 0, 67, 62
1, 278645, Control_c, 0, 64, 64
1, 278645, Control_c, 0, 67, 65
1, 278660, Control_c, 0, 64, 62
1, 278660, Control_c, 0, 67, 66
1, 278675, Control_c, 0, 64, 59
1, 278677, Note_on_c, 0, 51, 59
1, 278689, Control_c, 0, 64, 55
1, 278689, Control_c, 0, 67, 65
1, 278693, Note_on_c, 0, 39, 43
1, 278704, Control_c, 0, 64, 52
1, 278704, Control_c, 0, 67, 64
1, 278719, Control_c, 0, 64, 50
1, 278733, Control_c, 0, 64, 49
1, 278733, Control_c, 0, 67, 63
1, 278748, Control_c, 0, 64, 50
1, 278763, Control_c, 0, 64, 51
1, 278763, Control_c, 0, 67, 62
1, 278778, Control_c, 0, 64, 53
1, 278778, Control_c, 0, 67, 61
1, 278793, Control_c, 0, 64, 57
1, 278793, Control_c, 0, 67, 59
1, 278808, Control_c, 0, 64, 59
1, 278808, Control_c, 0, 67, 58
1, 278819, Note_on_c, 0, 49, 62
1, 278822, Control_c, 0, 64, 61
1, 278822, Control_c, 0, 67, 56
1, 278824, Note_on_c, 0, 69, 74
1, 278829, Note_off_c, 0, 51, 51
1, 278837, Control_c, 0, 64, 62
1, 278837, Control_c, 0, 67, 55
1, 278838, Note_off_c, 0, 39, 44
1, 278848, Note_off_c, 0, 64, 62
1, 278852, Control_c, 0, 64, 63
1, 278852, Control_c, 0, 67, 54
1, 278866, Control_c, 0, 64, 64
1, 278866, Control_c, 0, 67, 53
1, 278881, Control_c, 0, 64, 65
1, 278896, Control_c, 0, 64, 66
1, 278896, Control_c, 0, 67, 52
1, 278911, Control_c, 0, 64, 66
1, 278911, Control_c, 0, 67, 51
1, 278920, Note_off_c, 0, 49, 61
1, 278926, Control_c, 0, 64, 67
1, 278926, Control_c, 0, 67, 51
1, 278941, Control_c, 0, 64, 67
1, 278941, Control_c, 0, 67, 50
1, 278965, Note_on_c, 0, 51, 62
1, 278971, Control_c, 0, 64, 68
1, 279015, Control_c, 0, 64, 67
1, 279021, Note_off_c, 0, 51, 59
1, 279030, Control_c, 0, 64, 65
1, 279045, Control_c, 0, 64, 62
1, 279060, Control_c, 0, 64, 57
1, 279075, Control_c, 0, 64, 56
1, 279075, Control_c, 0, 67, 51
1, 279090, Control_c, 0, 64, 57
1, 279103, Note_on_c, 0, 75, 78
1, 279105, Control_c, 0, 64, 58
1, 279120, Control_c, 0, 64, 60
1, 279120, Note_on_c, 0, 51, 60
1, 279123, Note_on_c, 0, 39, 61
1, 279131, Note_off_c, 0, 69, 54
1, 279135, Control_c, 0, 64, 62
1, 279149, Control_c, 0, 64, 63
1, 279164, Control_c, 0, 64, 64
1, 279186, Control_c, 0, 64, 65
1, 279201, Control_c, 0, 64, 66
1, 279216, Control_c, 0, 64, 66
1, 279231, Control_c, 0, 64, 67
1, 279231, Control_c, 0, 67, 51
1, 279245, Control_c, 0, 64, 68
1, 279258, Note_on_c, 0, 49, 60
1, 279260, Control_c, 0, 64, 69
1, 279260, Control_c, 0, 67, 52
1, 279275, Control_c, 0, 64, 70
1, 279281, Note_off_c, 0, 51, 53
1, 279290, Control_c, 0, 64, 71
1, 279290, Control_c, 0, 67, 53
1, 279305, Control_c, 0, 64, 71
1, 279305, Control_c, 0, 67, 53
1, 279319, Control_c, 0, 67, 54
1, 279334, Control_c, 0, 67, 54
1, 279364, Control_c, 0, 64, 71
1, 279379, Control_c, 0, 64, 68
1, 279394, Control_c, 0, 64, 64
1, 279394, Control_c, 0, 67, 55
1, 279396, Note_on_c, 0, 51, 64
1, 279398, Note_on_c, 0, 68, 68
1, 279405, Note_off_c, 0, 75, 63
1, 279409, Control_c, 0, 64, 61
1, 279413, Note_off_c, 0, 49, 36
1, 279424, Control_c, 0, 64, 59
1, 279447, Note_off_c, 0, 51, 56
1, 279453, Note_off_c, 0, 68, 63
1, 279453, Control_c, 0, 64, 60
1, 279455, Note_on_c, 0, 69, 71
1, 279468, Control_c, 0, 64, 62
1, 279482, Control_c, 0, 64, 63
1, 279482, Control_c, 0, 67, 56
1, 279497, Control_c, 0, 64, 65
1, 279497, Control_c, 0, 67, 56
1, 279512, Control_c, 0, 64, 66
1, 279519, Note_off_c, 0, 69, 62
1, 279525, Note_off_c, 0, 39, 55
1, 279526, Note_on_c, 0, 68, 72
1, 279527, Control_c, 0, 64, 66
1, 279527, Control_c, 0, 67, 57
1, 279542, Control_c, 0, 67, 58
1, 279556, Control_c, 0, 64, 67
1, 279556, Control_c, 0, 67, 58
1, 279558, Note_on_c, 0, 51, 57
1, 279571, Control_c, 0, 64, 67
1, 279571, Control_c, 0, 67, 59
1, 279586, Control_c, 0, 64, 68
1, 279586, Control_c, 0, 67, 60
1, 279601, Control_c, 0, 67, 61
1, 279616, Control_c, 0, 67, 62
1, 279630, Control_c, 0, 67, 62
1, 279645, Control_c, 0, 64, 68
1, 279660, Control_c, 0, 67, 63
1, 279675, Control_c, 0, 67, 64
1, 279687, Note_off_c, 0, 51, 60
1, 279689, Control_c, 0, 67, 64
1, 279704, Control_c, 0, 67, 65
1, 279719, Control_c, 0, 67, 66
1, 279734, Control_c, 0, 64, 67
1, 279734, Control_c, 0, 67, 66
1, 279743, Note_on_c, 0, 75, 67
1, 279749, Control_c, 0, 64, 65
1, 279749, Control_c, 0, 67, 67
1, 279755, Note_on_c, 0, 49, 48
1, 279763, Control_c, 0, 64, 61
1, 279765, Note_off_c, 0, 68, 54
1, 279769, Note_on_c, 0, 63, 39
1, 279778, Control_c, 0, 64, 56
1, 279778, Control_c, 0, 67, 68
1, 279793, Control_c, 0, 64, 54
1, 279793, Control_c, 0, 67, 69
1, 279808, Control_c, 0, 64, 53
1, 279808, Control_c, 0, 67, 70
1, 279838, Control_c, 0, 64, 54
1, 279838, Control_c, 0, 67, 70
1, 279853, Control_c, 0, 64, 54
1, 279868, Control_c, 0, 64, 55
1, 279883, Control_c, 0, 64, 57
1, 279898, Control_c, 0, 64, 58
1, 279913, Control_c, 0, 64, 60
1, 279927, Control_c, 0, 64, 61
1, 279950, Control_c, 0, 64, 62
1, 279965, Control_c, 0, 64, 62
1, 279980, Control_c, 0, 64, 63
1, 279980, Control_c, 0, 67, 70
1, 279981, Note_on_c, 0, 54, 47
1, 279983, Note_on_c, 0, 73, 70
1, 279994, Control_c, 0, 64, 65
1, 279994, Control_c, 0, 67, 69
1, 280009, Control_c, 0, 64, 65
1, 280009, Control_c, 0, 67, 68
1, 280017, Note_off_c, 0, 63, 53
1, 280022, Note_off_c, 0, 75, 64
1, 280024, Control_c, 0, 64, 66
1, 280024, Control_c, 0, 67, 68
1, 280039, Control_c, 0, 64, 66
1, 280039, Control_c, 0, 67, 66
1, 280054, Control_c, 0, 64, 67
1, 280054, Control_c, 0, 67, 65
1, 280068, Control_c, 0, 67, 64
1, 280083, Control_c, 0, 64, 67
1, 280083, Control_c, 0, 67, 62
1, 280098, Control_c, 0, 64, 68
1, 280098, Control_c, 0, 67, 60
1, 280112, Control_c, 0, 67, 57
1, 280127, Control_c, 0, 67, 55
1, 280142, Control_c, 0, 67, 53
1, 280156, Note_off_c, 0, 54, 53
1, 280157, Control_c, 0, 67, 51
1, 280162, Note_on_c, 0, 75, 79
1, 280167, Note_on_c, 0, 59, 60
1, 280172, Control_c, 0, 67, 49
1, 280175, Note_on_c, 0, 63, 48
1, 280187, Control_c, 0, 64, 68
1, 280187, Control_c, 0, 67, 47
1, 280196, Note_off_c, 0, 73, 61
1, 280202, Control_c, 0, 67, 45
1, 280217, Control_c, 0, 67, 43
1, 280231, Control_c, 0, 67, 42
1, 280246, Control_c, 0, 67, 41
1, 280261, Control_c, 0, 67, 41
1, 280276, Control_c, 0, 67, 40
1, 280291, Control_c, 0, 67, 39
1, 280305, Control_c, 0, 67, 39
1, 280345, Note_on_c, 0, 73, 77
1, 280348, Note_on_c, 0, 52, 65
1, 280369, Note_off_c, 0, 59, 39
1, 280373, Note_off_c, 0, 49, 60
1, 280378, Note_off_c, 0, 63, 57
1, 280384, Note_off_c, 0, 75, 62
1, 280542, Control_c, 0, 64, 68
1, 280547, Note_on_c, 0, 75, 87
1, 280547, Note_on_c, 0, 46, 62
1, 280557, Control_c, 0, 64, 67
1, 280562, Note_on_c, 0, 63, 48
1, 280572, Control_c, 0, 64, 66
1, 280578, Note_off_c, 0, 73, 62
1, 280586, Control_c, 0, 64, 66
1, 280598, Note_off_c, 0, 52, 55
1, 280601, Control_c, 0, 64, 65
1, 280616, Control_c, 0, 64, 63
1, 280631, Control_c, 0, 64, 63
1, 280646, Control_c, 0, 64, 62
1, 280677, Control_c, 0, 64, 61
1, 280699, Control_c, 0, 64, 61
1, 280714, Control_c, 0, 64, 60
1, 280753, Note_on_c, 0, 73, 81
1, 280757, Note_on_c, 0, 51, 64
1, 280758, Control_c, 0, 67, 39
1, 280786, Note_off_c, 0, 63, 57
1, 280788, Control_c, 0, 64, 61
1, 280788, Control_c, 0, 67, 40
1, 280803, Control_c, 0, 64, 61
1, 280808, Note_off_c, 0, 75, 60
1, 280832, Control_c, 0, 64, 62
1, 280847, Control_c, 0, 64, 62
1, 280854, Note_off_c, 0, 46, 28
1, 280862, Control_c, 0, 64, 63
1, 280890, Control_c, 0, 67, 41
1, 280935, Control_c, 0, 67, 41
1, 280965, Control_c, 0, 64, 62
1, 280980, Control_c, 0, 64, 62
1, 281004, Note_on_c, 0, 75, 80
1, 281009, Control_c, 0, 64, 61
1, 281012, Note_on_c, 0, 56, 47
1, 281022, Note_on_c, 0, 63, 44
1, 281024, Note_off_c, 0, 51, 61
1, 281024, Control_c, 0, 64, 61
1, 281024, Control_c, 0, 67, 42
1, 281054, Control_c, 0, 64, 60
1, 281054, Control_c, 0, 67, 43
1, 281057, Note_off_c, 0, 73, 58
1, 281069, Control_c, 0, 67, 43
1, 281083, Control_c, 0, 67, 44
1, 281098, Control_c, 0, 64, 60
1, 281098, Control_c, 0, 67, 45
1, 281113, Control_c, 0, 67, 46
1, 281127, Control_c, 0, 67, 47
1, 281142, Control_c, 0, 67, 49
1, 281157, Control_c, 0, 64, 59
1, 281157, Control_c, 0, 67, 49
1, 281172, Control_c, 0, 67, 50
1, 281187, Control_c, 0, 67, 51
1, 281201, Control_c, 0, 67, 52
1, 281216, Control_c, 0, 64, 59
1, 281216, Control_c, 0, 67, 53
1, 281231, Control_c, 0, 67, 54
1, 281246, Control_c, 0, 67, 55
1, 281260, Control_c, 0, 67, 56
1, 281275, Control_c, 0, 67, 57
1, 281288, Note_on_c, 0, 73, 68
1, 281290, Control_c, 0, 64, 58
1, 281290, Control_c, 0, 67, 59
1, 281299, Note_on_c, 0, 49, 42
1, 281305, Control_c, 0, 67, 60
1, 281320, Control_c, 0, 67, 62
1, 281334, Control_c, 0, 67, 63
1, 281337, Note_off_c, 0, 63, 56
1, 281349, Control_c, 0, 67, 65
1, 281356, Note_off_c, 0, 56, 37
1, 281364, Control_c, 0, 67, 66
1, 281379, Control_c, 0, 67, 68
1, 281382, Note_off_c, 0, 75, 59
1, 281394, Control_c, 0, 67, 68
1, 281409, Control_c, 0, 67, 69
1, 281431, Control_c, 0, 64, 58
1, 281431, Control_c, 0, 67, 70
1, 281446, Control_c, 0, 67, 71
1, 281462, Control_c, 0, 67, 71
1, 281477, Control_c, 0, 64, 57
1, 281477, Control_c, 0, 67, 73
1, 281492, Control_c, 0, 67, 74
1, 281506, Control_c, 0, 67, 75
1, 281521, Control_c, 0, 64, 57
1, 281521, Control_c, 0, 67, 75
1, 281536, Control_c, 0, 67, 77
1, 281540, Note_on_c, 0, 75, 59
1, 281542, Note_on_c, 0, 42, 41
1, 281551, Control_c, 0, 64, 56
1, 281551, Control_c, 0, 67, 105
1, 281564, Note_on_c, 0, 63, 32
1, 281565, Control_c, 0, 67, 127
1, 281579, Note_off_c, 0, 49, 53
1, 281582, Note_off_c, 0, 73, 60
1, 281595, Control_c, 0, 64, 56
1, 281683, Control_c, 0, 64, 55
1, 281773, Control_c, 0, 64, 55
1, 281790, Note_on_c, 0, 73, 48
1, 281801, Note_on_c, 0, 47, 34
1, 281821, Note_off_c, 0, 63, 41
1, 281831, Note_off_c, 0, 75, 59
1, 281832, Control_c, 0, 64, 54
1, 281851, Note_off_c, 0, 42, 36
1, 281877, Control_c, 0, 64, 54
1, 281951, Control_c, 0, 64, 53
1, 282055, Note_on_c, 0, 52, 34
1, 282058, Note_on_c, 0, 75, 49
1, 282075, Note_on_c, 0, 63, 18
1, 282095, Note_off_c, 0, 73, 53
1, 282133, Note_off_c, 0, 47, 35
1, 282371, Note_on_c, 0, 73, 44
1, 282382, Note_off_c, 0, 75, 61
1, 282388, Control_c, 0, 64, 54
1, 282396, Note_on_c, 0, 45, 22
1, 282403, Control_c, 0, 64, 55
1, 282418, Control_c, 0, 64, 58
1, 282433, Control_c, 0, 64, 62
1, 282448, Control_c, 0, 64, 64
1, 282462, Control_c, 0, 64, 67
1, 282464, Note_off_c, 0, 52, 29
1, 282477, Control_c, 0, 64, 69
1, 282492, Control_c, 0, 64, 71
1, 282506, Control_c, 0, 64, 72
1, 282521, Control_c, 0, 64, 74
1, 282536, Control_c, 0, 64, 76
1, 282551, Control_c, 0, 64, 77
1, 282566, Control_c, 0, 64, 79
1, 282580, Note_off_c, 0, 63, 41
1, 282580, Control_c, 0, 64, 80
1, 282589, Note_off_c, 0, 45, 46
1, 282595, Control_c, 0, 64, 81
1, 282610, Control_c, 0, 64, 81
1, 282625, Control_c, 0, 64, 82
1, 282640, Control_c, 0, 64, 82
1, 282714, Control_c, 0, 64, 83
1, 282788, Control_c, 0, 64, 82
1, 282848, Control_c, 0, 64, 82
1, 282849, Note_on_c, 0, 39, 40
1, 282862, Control_c, 0, 64, 80
1, 282867, Note_on_c, 0, 63, 47
1, 282870, Note_on_c, 0, 52, 36
1, 282877, Control_c, 0, 64, 77
1, 282892, Control_c, 0, 64, 73
1, 282906, Control_c, 0, 64, 68
1, 282921, Control_c, 0, 64, 62
1, 282944, Control_c, 0, 64, 54
1, 282959, Control_c, 0, 64, 50
1, 282974, Control_c, 0, 64, 47
1, 283028, Note_off_c, 0, 73, 47
1, 283047, Control_c, 0, 64, 49
1, 283057, Note_off_c, 0, 63, 58
1, 283063, Control_c, 0, 64, 51
1, 283075, Note_on_c, 0, 61, 45
1, 283078, Control_c, 0, 64, 55
1, 283093, Control_c, 0, 64, 58
1, 283108, Control_c, 0, 64, 61
1, 283122, Control_c, 0, 64, 62
1, 283136, Control_c, 0, 64, 63
1, 283151, Control_c, 0, 64, 64
1, 283166, Control_c, 0, 64, 66
1, 283181, Control_c, 0, 64, 67
1, 283196, Control_c, 0, 64, 68
1, 283198, Note_off_c, 0, 61, 58
1, 283210, Control_c, 0, 64, 69
1, 283215, Note_on_c, 0, 63, 54
1, 283225, Control_c, 0, 64, 70
1, 283240, Control_c, 0, 64, 71
1, 283255, Control_c, 0, 64, 72
1, 283256, Note_off_c, 0, 63, 61
1, 283270, Control_c, 0, 64, 73
1, 283284, Control_c, 0, 64, 74
1, 283299, Control_c, 0, 64, 74
1, 283314, Control_c, 0, 64, 75
1, 283329, Control_c, 0, 64, 75
1, 283344, Control_c, 0, 64, 76
1, 283350, Note_on_c, 0, 63, 57
1, 283356, Note_off_c, 0, 39, 54
1, 283357, Note_on_c, 0, 66, 66
1, 283358, Control_c, 0, 64, 76
1, 283361, Note_off_c, 0, 52, 59
1, 283373, Control_c, 0, 64, 77
1, 283383, Note_off_c, 0, 63, 65
1, 283388, Control_c, 0, 64, 77
1, 283390, Note_off_c, 0, 66, 66
1, 283418, Control_c, 0, 64, 78
1, 283522, Control_c, 0, 64, 77
1, 283542, Note_on_c, 0, 40, 42
1, 283543, Note_on_c, 0, 71, 59
1, 283551, Control_c, 0, 64, 76
1, 283553, Note_on_c, 0, 51, 42
1, 283558, Note_on_c, 0, 68, 44
1, 283566, Control_c, 0, 64, 74
1, 283581, Control_c, 0, 64, 69
1, 283596, Control_c, 0, 64, 64
1, 283610, Control_c, 0, 64, 60
1, 283625, Control_c, 0, 64, 59
1, 283654, Control_c, 0, 64, 60
1, 283669, Control_c, 0, 64, 60
1, 283692, Control_c, 0, 64, 61
1, 283707, Control_c, 0, 64, 63
1, 283722, Control_c, 0, 64, 65
1, 283736, Control_c, 0, 64, 66
1, 283751, Control_c, 0, 64, 67
1, 283766, Control_c, 0, 64, 69
1, 283781, Control_c, 0, 64, 70
1, 283796, Control_c, 0, 64, 71
1, 283810, Control_c, 0, 64, 71
1, 283825, Control_c, 0, 64, 72
1, 283840, Control_c, 0, 64, 72
1, 283853, Note_off_c, 0, 68, 38
1, 283856, Control_c, 0, 64, 73
1, 283915, Control_c, 0, 64, 73
1, 283929, Note_off_c, 0, 40, 57
1, 283975, Note_on_c, 0, 77, 56
1, 284003, Note_off_c, 0, 71, 53
1, 284009, Note_off_c, 0, 51, 55
1, 284017, Note_on_c, 0, 73, 14
1, 284059, Note_off_c, 0, 73, 51
1, 284077, Control_c, 0, 64, 73
1, 284092, Control_c, 0, 64, 69
1, 284096, Note_off_c, 0, 77, 61
1, 284107, Control_c, 0, 64, 64
1, 284122, Control_c, 0, 64, 57
1, 284127, Note_on_c, 0, 75, 69
1, 284135, Note_on_c, 0, 52, 36
1, 284136, Note_on_c, 0, 39, 46
1, 284137, Control_c, 0, 64, 53
1, 284151, Control_c, 0, 64, 52
1, 284166, Control_c, 0, 64, 53
1, 284181, Control_c, 0, 64, 54
1, 284196, Control_c, 0, 64, 55
1, 284211, Control_c, 0, 64, 56
1, 284226, Control_c, 0, 64, 57
1, 284239, Note_off_c, 0, 75, 63
1, 284241, Control_c, 0, 64, 57
1, 284270, Note_on_c, 0, 73, 57
1, 284375, Note_off_c, 0, 73, 54
1, 284405, Note_on_c, 0, 75, 66
1, 284419, Control_c, 0, 64, 58
1, 284441, Control_c, 0, 64, 58
1, 284444, Note_off_c, 0, 75, 62
1, 284455, Control_c, 0, 64, 60
1, 284470, Control_c, 0, 64, 62
1, 284485, Control_c, 0, 64, 64
1, 284500, Control_c, 0, 64, 66
1, 284515, Control_c, 0, 64, 68
1, 284530, Control_c, 0, 64, 70
1, 284530, Note_off_c, 0, 52, 61
1, 284545, Control_c, 0, 64, 72
1, 284551, Note_on_c, 0, 75, 67
1, 284556, Note_on_c, 0, 78, 72
1, 284559, Control_c, 0, 64, 73
1, 284574, Control_c, 0, 64, 74
1, 284578, Note_off_c, 0, 39, 52
1, 284583, Note_off_c, 0, 75, 64
1, 284589, Control_c, 0, 64, 75
1, 284604, Note_off_c, 0, 78, 59
1, 284619, Control_c, 0, 64, 76
1, 284649, Control_c, 0, 64, 76
1, 284754, Note_on_c, 0, 83, 60
1, 284756, Note_on_c, 0, 40, 37
1, 284762, Note_on_c, 0, 51, 38
1, 284762, Note_on_c, 0, 80, 51
1, 284783, Control_c, 0, 64, 76
1, 284798, Control_c, 0, 64, 74
1, 284813, Control_c, 0, 64, 71
1, 284828, Control_c, 0, 64, 67
1, 284843, Control_c, 0, 64, 63
1, 284857, Control_c, 0, 64, 61
1, 284872, Control_c, 0, 64, 60
1, 284916, Control_c, 0, 64, 60
1, 284931, Control_c, 0, 64, 61
1, 284946, Control_c, 0, 64, 62
1, 284961, Control_c, 0, 64, 64
1, 284975, Control_c, 0, 64, 67
1, 284990, Control_c, 0, 64, 68
1, 285005, Control_c, 0, 64, 69
1, 285020, Control_c, 0, 64, 70
1, 285035, Control_c, 0, 64, 71
1, 285049, Control_c, 0, 64, 71
1, 285064, Control_c, 0, 64, 72
1, 285079, Control_c, 0, 64, 73
1, 285093, Control_c, 0, 64, 73
1, 285108, Control_c, 0, 64, 74
1, 285198, Note_off_c, 0, 40, 41
1, 285205, Control_c, 0, 64, 74
1, 285248, Note_on_c, 0, 89, 55
1, 285254, Note_off_c, 0, 80, 52
1, 285261, Note_on_c, 0, 85, 43
1, 285290, Note_off_c, 0, 83, 56
1, 285302, Note_off_c, 0, 89, 58
1, 285317, Note_off_c, 0, 85, 55
1, 285334, Note_off_c, 0, 51, 36
1, 285338, Control_c, 0, 64, 74
1, 285427, Control_c, 0, 64, 73
1, 285442, Control_c, 0, 64, 73
1, 285453, Note_on_c, 0, 52, 44
1, 285458, Control_c, 0, 64, 71
1, 285463, Note_on_c, 0, 39, 43
1, 285473, Control_c, 0, 64, 69
1, 285487, Control_c, 0, 64, 65
1, 285502, Control_c, 0, 64, 61
1, 285517, Control_c, 0, 64, 58
1, 285532, Control_c, 0, 64, 56
1, 285546, Control_c, 0, 64, 54
1, 285561, Control_c, 0, 64, 53
1, 285576, Control_c, 0, 64, 52
1, 285591, Control_c, 0, 64, 51
1, 285606, Control_c, 0, 64, 50
1, 285621, Control_c, 0, 64, 49
1, 285679, Note_on_c, 0, 61, 49
1, 285710, Control_c, 0, 64, 50
1, 285724, Control_c, 0, 64, 53
1, 285739, Control_c, 0, 64, 57
1, 285754, Control_c, 0, 64, 61
1, 285769, Control_c, 0, 64, 63
1, 285784, Control_c, 0, 64, 65
1, 285798, Control_c, 0, 64, 67
1, 285813, Control_c, 0, 64, 69
1, 285828, Control_c, 0, 64, 70
1, 285842, Control_c, 0, 64, 72
1, 285857, Control_c, 0, 64, 73
1, 285867, Note_off_c, 0, 61, 57
1, 285872, Control_c, 0, 64, 73
1, 285875, Note_on_c, 0, 63, 49
1, 285877, Note_on_c, 0, 66, 62
1, 285887, Control_c, 0, 64, 74
1, 285901, Note_off_c, 0, 52, 60
1, 285902, Control_c, 0, 64, 75
1, 285923, Note_off_c, 0, 63, 64
1, 285924, Control_c, 0, 64, 75
1, 285940, Note_off_c, 0, 39, 40
1, 285946, Note_off_c, 0, 66, 64
1, 286102, Control_c, 0, 64, 74
1, 286113, Note_on_c, 0, 51, 45
1, 286117, Note_on_c, 0, 40, 33
1, 286117, Control_c, 0, 64, 72
1, 286125, Note_on_c, 0, 71, 48
1, 286131, Control_c, 0, 64, 68
1, 286132, Note_on_c, 0, 68, 40
1, 286144, Note_on_c, 0, 72, 32
1, 286146, Control_c, 0, 64, 64
1, 286161, Control_c, 0, 64, 61
1, 286176, Note_off_c, 0, 72, 43
1, 286176, Control_c, 0, 64, 58
1, 286191, Control_c, 0, 64, 56
1, 286205, Control_c, 0, 64, 54
1, 286220, Control_c, 0, 64, 53
1, 286235, Control_c, 0, 64, 52
1, 286251, Control_c, 0, 64, 51
1, 286266, Control_c, 0, 64, 50
1, 286281, Control_c, 0, 64, 49
1, 286296, Control_c, 0, 64, 48
1, 286310, Control_c, 0, 64, 48
1, 286325, Control_c, 0, 64, 47
1, 286340, Control_c, 0, 64, 46
1, 286345, Note_off_c, 0, 68, 55
1, 286354, Control_c, 0, 64, 46
1, 286369, Control_c, 0, 64, 45
1, 286374, Note_on_c, 0, 77, 47
1, 286384, Control_c, 0, 64, 45
1, 286390, Note_on_c, 0, 73, 40
1, 286399, Control_c, 0, 64, 44
1, 286418, Note_off_c, 0, 71, 56
1, 286444, Control_c, 0, 64, 45
1, 286459, Control_c, 0, 64, 47
1, 286473, Control_c, 0, 64, 53
1, 286488, Control_c, 0, 64, 59
1, 286503, Control_c, 0, 64, 63
1, 286518, Control_c, 0, 64, 65
1, 286533, Control_c, 0, 64, 66
1, 286547, Control_c, 0, 64, 68
1, 286562, Control_c, 0, 64, 70
1, 286577, Control_c, 0, 64, 72
1, 286592, Control_c, 0, 64, 73
1, 286607, Control_c, 0, 64, 74
1, 286619, Note_off_c, 0, 73, 37
1, 286621, Control_c, 0, 64, 75
1, 286636, Control_c, 0, 64, 76
1, 286650, Note_off_c, 0, 40, 40
1, 286651, Control_c, 0, 64, 77
1, 286666, Control_c, 0, 64, 77
1, 286688, Control_c, 0, 64, 78
1, 286712, Note_off_c, 0, 77, 38
1, 286718, Control_c, 0, 64, 78
1, 286764, Note_off_c, 0, 51, 48
1, 286865, Control_c, 0, 64, 78
1, 286879, Control_c, 0, 64, 77
1, 286884, Note_on_c, 0, 52, 31
1, 286889, Note_on_c, 0, 39, 34
1, 286894, Control_c, 0, 64, 75
1, 286909, Control_c, 0, 64, 72
1, 286924, Control_c, 0, 64, 66
1, 286939, Control_c, 0, 64, 61
1, 286953, Control_c, 0, 64, 56
1, 286968, Control_c, 0, 64, 52
1, 286969, Note_off_c, 0, 39, 0
1, 286969, Note_on_c, 0, 39, 3
1, 286983, Control_c, 0, 64, 50
1, 286998, Control_c, 0, 64, 48
1, 287013, Control_c, 0, 64, 47
1, 287028, Control_c, 0, 64, 47
1, 287043, Control_c, 0, 64, 46
1, 287102, Control_c, 0, 64, 47
1, 287117, Control_c, 0, 64, 49
1, 287132, Control_c, 0, 64, 54
1, 287136, Note_on_c, 0, 73, 41
1, 287147, Control_c, 0, 64, 59
1, 287162, Control_c, 0, 64, 62
1, 287177, Control_c, 0, 64, 64
1, 287192, Control_c, 0, 64, 66
1, 287207, Control_c, 0, 64, 67
1, 287222, Control_c, 0, 64, 70
1, 287237, Control_c, 0, 64, 71
1, 287251, Control_c, 0, 64, 72
1, 287266, Control_c, 0, 64, 73
1, 287281, Control_c, 0, 64, 74
1, 287295, Control_c, 0, 64, 75
1, 287310, Control_c, 0, 64, 76
1, 287320, Note_off_c, 0, 73, 55
1, 287325, Control_c, 0, 64, 77
1, 287334, Note_on_c, 0, 75, 42
1, 287340, Control_c, 0, 64, 78
1, 287348, Note_on_c, 0, 78, 42
1, 287355, Control_c, 0, 64, 78
1, 287365, Note_off_c, 0, 75, 56
1, 287369, Control_c, 0, 64, 79
1, 287384, Control_c, 0, 64, 79
1, 287392, Note_off_c, 0, 78, 62
1, 287399, Control_c, 0, 64, 80
1, 287409, Note_off_c, 0, 52, 55
1, 287477, Note_off_c, 0, 39, 40
1, 287570, Control_c, 0, 64, 79
1, 287584, Control_c, 0, 64, 78
1, 287591, Note_on_c, 0, 51, 37
1, 287592, Note_on_c, 0, 40, 32
1, 287593, Note_on_c, 0, 83, 51
1, 287599, Poly_aftertouch_c, 0, 82, 127
1, 287599, Control_c, 0, 64, 75
1, 287600, Note_on_c, 0, 80, 33
1, 287615, Control_c, 0, 64, 72
1, 287629, Control_c, 0, 64, 67
1, 287644, Control_c, 0, 64, 61
1, 287648, Poly_aftertouch_c, 0, 82, 0
1, 287659, Control_c, 0, 64, 57
1, 287674, Control_c, 0, 64, 54
1, 287689, Control_c, 0, 64, 53
1, 287703, Control_c, 0, 64, 52
1, 287854, Note_on_c, 0, 89, 33
1, 287854, Note_off_c, 0, 80, 42
1, 287859, Note_on_c, 0, 85, 33
1, 287875, Note_off_c, 0, 83, 57
1, 287927, Note_off_c, 0, 85, 44
1, 287941, Control_c, 0, 64, 53
1, 287956, Control_c, 0, 64, 55
1, 287971, Control_c, 0, 64, 59
1, 287986, Control_c, 0, 64, 63
1, 288000, Control_c, 0, 64, 66
1, 288015, Control_c, 0, 64, 69
1, 288030, Control_c, 0, 64, 71
1, 288044, Control_c, 0, 64, 72
1, 288059, Control_c, 0, 64, 74
1, 288070, Note_off_c, 0, 89, 35
1, 288074, Control_c, 0, 64, 75
1, 288089, Control_c, 0, 64, 76
1, 288104, Control_c, 0, 64, 78
1, 288119, Control_c, 0, 64, 79
1, 288134, Control_c, 0, 64, 79
1, 288149, Control_c, 0, 64, 80
1, 288164, Control_c, 0, 64, 80
1, 288186, Control_c, 0, 64, 81
1, 288200, Control_c, 0, 64, 81
1, 288230, Control_c, 0, 64, 82
1, 288230, Control_c, 0, 67, 118
1, 288245, Control_c, 0, 67, 105
1, 288259, Control_c, 0, 67, 89
1, 288274, Control_c, 0, 64, 82
1, 288274, Control_c, 0, 67, 75
1, 288289, Control_c, 0, 67, 62
1, 288304, Control_c, 0, 67, 47
1, 288312, Note_off_c, 0, 40, 40
1, 288319, Control_c, 0, 67, 0
1, 288379, Note_off_c, 0, 51, 40
1, 288438, Control_c, 0, 64, 80
1, 288438, Note_on_c, 0, 52, 47
1, 288452, Control_c, 0, 64, 76
1, 288456, Note_on_c, 0, 39, 44
1, 288467, Control_c, 0, 64, 71
1, 288482, Control_c, 0, 64, 67
1, 288497, Control_c, 0, 64, 64
1, 288512, Control_c, 0, 64, 62
1, 288526, Control_c, 0, 64, 62
1, 288644, Note_on_c, 0, 94, 93
1, 288645, Note_on_c, 0, 87, 79
1, 288661, Control_c, 0, 64, 61
1, 288675, Control_c, 0, 64, 59
1, 288678, Note_off_c, 0, 87, 65
1, 288690, Control_c, 0, 64, 54
1, 288696, Note_off_c, 0, 94, 64
1, 288705, Control_c, 0, 64, 48
1, 288720, Control_c, 0, 64, 39
1, 288730, Note_on_c, 0, 95, 92
1, 288734, Note_on_c, 0, 86, 88
1, 288735, Control_c, 0, 64, 29
1, 288742, Note_on_c, 0, 94, 54
1, 288749, Control_c, 0, 64, 0
1, 288751, Note_on_c, 0, 96, 61
1, 288760, Note_off_c, 0, 86, 66
1, 288767, Note_off_c, 0, 94, 52
1, 288769, Note_off_c, 0, 96, 62
1, 288777, Note_off_c, 0, 95, 65
1, 288812, Note_on_c, 0, 85, 100
1, 288814, Note_on_c, 0, 96, 99
1, 288852, Note_off_c, 0, 85, 61
1, 288861, Note_off_c, 0, 96, 0
1, 288882, Note_on_c, 0, 84, 98
1, 288882, Note_on_c, 0, 97, 104
1, 288899, Poly_aftertouch_c, 0, 96, 127
1, 288904, Note_on_c, 0, 92, 33
1, 288908, Poly_aftertouch_c, 0, 96, 0
1, 288930, Note_off_c, 0, 84, 66
1, 288935, Control_c, 0, 64, 43
1, 288936, Note_off_c, 0, 97, 65
1, 288949, Control_c, 0, 64, 56
1, 288952, Note_off_c, 0, 92, 52
1, 288964, Control_c, 0, 64, 63
1, 288979, Control_c, 0, 64, 65
1, 288994, Control_c, 0, 64, 65
1, 289006, Note_off_c, 0, 52, 62
1, 289009, Control_c, 0, 64, 66
1, 289023, Control_c, 0, 64, 66
1, 289038, Control_c, 0, 64, 68
1, 289053, Control_c, 0, 64, 69
1, 289068, Control_c, 0, 64, 70
1, 289082, Control_c, 0, 64, 70
1, 289100, Note_off_c, 0, 39, 53
1, 289192, Note_on_c, 0, 51, 50
1, 289209, Note_on_c, 0, 40, 38
1, 289231, Control_c, 0, 64, 70
1, 289246, Control_c, 0, 64, 69
1, 289261, Control_c, 0, 64, 66
1, 289275, Control_c, 0, 64, 60
1, 289290, Control_c, 0, 64, 53
1, 289305, Control_c, 0, 64, 47
1, 289320, Control_c, 0, 64, 43
1, 289335, Control_c, 0, 64, 40
1, 289349, Control_c, 0, 64, 40
1, 289364, Control_c, 0, 64, 39
1, 289379, Control_c, 0, 64, 40
1, 289393, Control_c, 0, 64, 41
1, 289408, Control_c, 0, 64, 43
1, 289423, Control_c, 0, 64, 48
1, 289439, Control_c, 0, 64, 53
1, 289454, Control_c, 0, 64, 58
1, 289469, Control_c, 0, 64, 62
1, 289484, Control_c, 0, 64, 65
1, 289498, Control_c, 0, 64, 66
1, 289513, Control_c, 0, 64, 68
1, 289528, Control_c, 0, 64, 70
1, 289543, Control_c, 0, 64, 71
1, 289558, Control_c, 0, 64, 72
1, 289572, Control_c, 0, 64, 73
1, 289587, Control_c, 0, 64, 74
1, 289602, Control_c, 0, 64, 75
1, 289616, Control_c, 0, 64, 75
1, 289631, Control_c, 0, 64, 76
1, 289646, Control_c, 0, 64, 76
1, 289713, Note_off_c, 0, 40, 0
1, 289744, Poly_aftertouch_c, 0, 40, 0
1, 289902, Note_off_c, 0, 51, 35
1, 289994, Control_c, 0, 64, 76
1, 289996, Note_on_c, 0, 52, 45
1, 290000, Note_on_c, 0, 39, 41
1, 290009, Control_c, 0, 64, 73
1, 290024, Control_c, 0, 64, 69
1, 290039, Control_c, 0, 64, 65
1, 290054, Control_c, 0, 64, 61
1, 290068, Control_c, 0, 64, 58
1, 290083, Control_c, 0, 64, 57
1, 290098, Control_c, 0, 64, 57
1, 290172, Control_c, 0, 64, 56
1, 290176, Note_on_c, 0, 87, 81
1, 290182, Note_on_c, 0, 80, 73
1, 290187, Control_c, 0, 64, 55
1, 290202, Control_c, 0, 64, 55
1, 290213, Note_off_c, 0, 80, 65
1, 290216, Control_c, 0, 64, 53
1, 290227, Note_off_c, 0, 87, 64
1, 290231, Control_c, 0, 64, 51
1, 290247, Control_c, 0, 64, 49
1, 290262, Control_c, 0, 64, 47
1, 290275, Note_on_c, 0, 88, 87
1, 290277, Control_c, 0, 64, 45
1, 290280, Note_on_c, 0, 79, 78
1, 290292, Control_c, 0, 64, 43
1, 290301, Note_off_c, 0, 79, 71
1, 290307, Control_c, 0, 64, 41
1, 290321, Control_c, 0, 64, 39
1, 290325, Note_off_c, 0, 88, 64
1, 290336, Control_c, 0, 64, 37
1, 290351, Control_c, 0, 64, 34
1, 290358, Note_on_c, 0, 89, 73
1, 290365, Note_on_c, 0, 78, 94
1, 290366, Control_c, 0, 64, 31
1, 290378, Note_on_c, 0, 88, 41
1, 290381, Control_c, 0, 64, 0
1, 290385, Note_off_c, 0, 78, 64
1, 290407, Note_off_c, 0, 88, 57
1, 290407, Note_off_c, 0, 89, 63
1, 290440, Note_on_c, 0, 90, 97
1, 290444, Note_on_c, 0, 77, 101
1, 290473, Note_off_c, 0, 77, 67
1, 290478, Note_off_c, 0, 90, 68
1, 290492, Control_c, 0, 64, 36
1, 290507, Control_c, 0, 64, 51
1, 290521, Control_c, 0, 64, 60
1, 290536, Control_c, 0, 64, 64
1, 290551, Control_c, 0, 64, 66
1, 290566, Control_c, 0, 64, 67
1, 290570, Note_off_c, 0, 52, 62
1, 290581, Control_c, 0, 64, 69
1, 290595, Control_c, 0, 64, 71
1, 290611, Control_c, 0, 64, 73
1, 290626, Control_c, 0, 64, 73
1, 290640, Control_c, 0, 64, 74
1, 290647, Note_off_c, 0, 39, 56
1, 290724, Note_on_c, 0, 40, 36
1, 290743, Note_on_c, 0, 51, 47
1, 290759, Control_c, 0, 64, 73
1, 290774, Control_c, 0, 64, 71
1, 290788, Control_c, 0, 64, 68
1, 290803, Control_c, 0, 64, 61
1, 290818, Control_c, 0, 64, 54
1, 290833, Control_c, 0, 64, 48
1, 290847, Control_c, 0, 64, 43
1, 290862, Control_c, 0, 64, 40
1, 290877, Control_c, 0, 64, 38
1, 290892, Control_c, 0, 64, 37
1, 290907, Control_c, 0, 64, 37
1, 290951, Control_c, 0, 64, 37
1, 290966, Control_c, 0, 64, 38
1, 290981, Control_c, 0, 64, 40
1, 290996, Control_c, 0, 64, 44
1, 291010, Control_c, 0, 64, 52
1, 291025, Control_c, 0, 64, 59
1, 291041, Control_c, 0, 64, 62
1, 291056, Control_c, 0, 64, 64
1, 291070, Control_c, 0, 64, 65
1, 291085, Control_c, 0, 64, 66
1, 291100, Control_c, 0, 64, 68
1, 291115, Control_c, 0, 64, 69
1, 291130, Control_c, 0, 64, 70
1, 291145, Control_c, 0, 64, 71
1, 291159, Control_c, 0, 64, 71
1, 291197, Control_c, 0, 64, 72
1, 291307, Note_off_c, 0, 40, 40
1, 291374, Control_c, 0, 67, 37
1, 291389, Control_c, 0, 67, 38
1, 291410, Note_off_c, 0, 51, 54
1, 291492, Control_c, 0, 64, 71
1, 291503, Note_on_c, 0, 39, 45
1, 291507, Control_c, 0, 64, 68
1, 291510, Note_on_c, 0, 52, 37
1, 291522, Control_c, 0, 64, 64
1, 291536, Control_c, 0, 64, 58
1, 291551, Control_c, 0, 64, 54
1, 291566, Control_c, 0, 64, 51
1, 291581, Control_c, 0, 64, 49
1, 291595, Control_c, 0, 64, 48
1, 291595, Control_c, 0, 67, 39
1, 291610, Control_c, 0, 64, 47
1, 291610, Control_c, 0, 67, 40
1, 291625, Control_c, 0, 64, 46
1, 291625, Control_c, 0, 67, 41
1, 291640, Control_c, 0, 64, 45
1, 291640, Control_c, 0, 67, 42
1, 291649, Note_on_c, 0, 82, 71
1, 291655, Control_c, 0, 64, 42
1, 291655, Control_c, 0, 67, 62
1, 291658, Note_on_c, 0, 75, 64
1, 291669, Control_c, 0, 64, 39
1, 291669, Control_c, 0, 67, 75
1, 291683, Note_off_c, 0, 82, 60
1, 291684, Control_c, 0, 64, 37
1, 291684, Control_c, 0, 67, 77
1, 291685, Note_off_c, 0, 75, 68
1, 291699, Control_c, 0, 64, 34
1, 291714, Control_c, 0, 64, 31
1, 291729, Control_c, 0, 64, 29
1, 291729, Control_c, 0, 67, 76
1, 291744, Control_c, 0, 64, 0
1, 291744, Control_c, 0, 67, 75
1, 291751, Note_on_c, 0, 83, 80
1, 291756, Note_on_c, 0, 74, 78
1, 291774, Control_c, 0, 67, 74
1, 291779, Note_off_c, 0, 74, 71
1, 291785, Note_off_c, 0, 83, 59
1, 291788, Control_c, 0, 67, 73
1, 291803, Control_c, 0, 67, 71
1, 291818, Control_c, 0, 67, 70
1, 291833, Control_c, 0, 67, 70
1, 291842, Note_on_c, 0, 84, 74
1, 291848, Control_c, 0, 67, 68
1, 291849, Note_on_c, 0, 74, 54
1, 291863, Control_c, 0, 67, 68
1, 291869, Note_off_c, 0, 84, 62
1, 291871, Note_off_c, 0, 74, 58
1, 291876, Note_on_c, 0, 85, 7
1, 291876, Note_off_c, 0, 85, 127
1, 291878, Control_c, 0, 67, 66
1, 291893, Control_c, 0, 67, 66
1, 291926, Note_on_c, 0, 85, 38
1, 291930, Control_c, 0, 67, 65
1, 291936, Note_on_c, 0, 72, 75
1, 291960, Control_c, 0, 67, 64
1, 291963, Note_off_c, 0, 72, 61
1, 291976, Note_off_c, 0, 85, 64
1, 291989, Control_c, 0, 67, 64
1, 292004, Control_c, 0, 67, 63
1, 292018, Control_c, 0, 64, 36
1, 292018, Control_c, 0, 67, 62
1, 292033, Control_c, 0, 64, 54
1, 292033, Control_c, 0, 67, 62
1, 292048, Control_c, 0, 64, 61
1, 292063, Control_c, 0, 64, 64
1, 292078, Control_c, 0, 64, 65
1, 292090, Note_off_c, 0, 52, 59
1, 292092, Control_c, 0, 64, 65
1, 292092, Control_c, 0, 67, 61
1, 292122, Control_c, 0, 64, 66
1, 292122, Control_c, 0, 67, 60
1, 292135, Note_off_c, 0, 39, 56
1, 292137, Control_c, 0, 64, 66
1, 292219, Note_on_c, 0, 40, 37
1, 292252, Note_on_c, 0, 51, 26
1, 292256, Control_c, 0, 67, 61
1, 292271, Control_c, 0, 64, 66
1, 292286, Control_c, 0, 64, 64
1, 292300, Control_c, 0, 64, 63
1, 292315, Control_c, 0, 64, 60
1, 292315, Control_c, 0, 67, 62
1, 292330, Control_c, 0, 64, 55
1, 292345, Control_c, 0, 64, 53
1, 292359, Control_c, 0, 64, 52
1, 292404, Control_c, 0, 64, 52
1, 292418, Control_c, 0, 64, 51
1, 292433, Control_c, 0, 64, 51
1, 292448, Control_c, 0, 64, 50
1, 292463, Control_c, 0, 64, 49
1, 292478, Control_c, 0, 64, 48
1, 292488, Note_on_c, 0, 75, 59
1, 292492, Control_c, 0, 64, 47
1, 292501, Note_on_c, 0, 68, 45
1, 292507, Control_c, 0, 64, 45
1, 292522, Control_c, 0, 64, 44
1, 292525, Note_off_c, 0, 75, 62
1, 292531, Note_off_c, 0, 68, 62
1, 292537, Control_c, 0, 64, 42
1, 292537, Control_c, 0, 67, 62
1, 292552, Control_c, 0, 64, 39
1, 292566, Control_c, 0, 64, 36
1, 292581, Control_c, 0, 64, 33
1, 292596, Control_c, 0, 64, 30
1, 292603, Note_on_c, 0, 76, 64
1, 292611, Control_c, 0, 64, 0
1, 292620, Note_on_c, 0, 67, 49
1, 292626, Control_c, 0, 67, 63
1, 292638, Note_off_c, 0, 76, 60
1, 292647, Note_off_c, 0, 67, 57
1, 292709, Control_c, 0, 67, 64
1, 292720, Note_on_c, 0, 77, 66
1, 292731, Note_on_c, 0, 66, 56
1, 292753, Control_c, 0, 67, 64
1, 292763, Note_off_c, 0, 77, 59
1, 292767, Note_off_c, 0, 66, 66
1, 292783, Control_c, 0, 67, 65
1, 292797, Control_c, 0, 64, 36
1, 292812, Control_c, 0, 64, 47
1, 292827, Control_c, 0, 64, 55
1, 292838, Note_on_c, 0, 78, 59
1, 292841, Note_off_c, 0, 40, 55
1, 292841, Control_c, 0, 64, 60
1, 292851, Note_on_c, 0, 65, 44
1, 292856, Control_c, 0, 64, 60
1, 292856, Control_c, 0, 67, 64
1, 292869, Note_off_c, 0, 78, 63
1, 292875, Note_off_c, 0, 65, 58
1, 292886, Control_c, 0, 64, 61
1, 292901, Control_c, 0, 64, 61
1, 292915, Control_c, 0, 64, 62
1, 292930, Control_c, 0, 64, 63
1, 292930, Control_c, 0, 67, 65
1, 292936, Note_off_c, 0, 51, 54
1, 292945, Control_c, 0, 67, 66
1, 292975, Control_c, 0, 64, 63
1, 292975, Control_c, 0, 67, 66
1, 292994, Note_on_c, 0, 52, 51
1, 293005, Control_c, 0, 64, 63
1, 293011, Note_on_c, 0, 39, 46
1, 293020, Control_c, 0, 64, 62
1, 293034, Control_c, 0, 64, 58
1, 293049, Control_c, 0, 64, 50
1, 293064, Control_c, 0, 64, 42
1, 293079, Control_c, 0, 64, 33
1, 293079, Control_c, 0, 67, 66
1, 293094, Control_c, 0, 64, 0
1, 293109, Control_c, 0, 67, 65
1, 293138, Control_c, 0, 67, 64
1, 293153, Control_c, 0, 67, 63
1, 293168, Control_c, 0, 67, 62
1, 293183, Control_c, 0, 67, 61
1, 293197, Control_c, 0, 64, 39
1, 293197, Control_c, 0, 67, 60
1, 293212, Control_c, 0, 64, 51
1, 293212, Control_c, 0, 67, 59
1, 293227, Control_c, 0, 64, 60
1, 293227, Control_c, 0, 67, 58
1, 293241, Control_c, 0, 64, 64
1, 293241, Control_c, 0, 67, 56
1, 293256, Control_c, 0, 64, 65
1, 293256, Control_c, 0, 67, 55
1, 293271, Control_c, 0, 64, 66
1, 293271, Control_c, 0, 67, 53
1, 293286, Control_c, 0, 64, 68
1, 293286, Control_c, 0, 67, 51
1, 293301, Control_c, 0, 64, 70
1, 293301, Control_c, 0, 67, 50
1, 293315, Control_c, 0, 64, 73
1, 293315, Control_c, 0, 67, 49
1, 293330, Control_c, 0, 64, 76
1, 293330, Control_c, 0, 67, 47
1, 293345, Control_c, 0, 64, 78
1, 293345, Control_c, 0, 67, 47
1, 293359, Control_c, 0, 64, 81
1, 293359, Control_c, 0, 67, 45
1, 293374, Control_c, 0, 64, 83
1, 293374, Control_c, 0, 67, 43
1, 293389, Control_c, 0, 64, 86
1, 293389, Control_c, 0, 67, 41
1, 293412, Control_c, 0, 64, 88
1, 293412, Control_c, 0, 67, 0
1, 293427, Control_c, 0, 64, 91
1, 293443, Control_c, 0, 64, 95
1, 293458, Control_c, 0, 64, 99
1, 293472, Control_c, 0, 64, 101
1, 293487, Control_c, 0, 64, 104
1, 293517, Control_c, 0, 64, 107
1, 293546, Control_c, 0, 64, 109
1, 293561, Control_c, 0, 64, 111
1, 293576, Control_c, 0, 64, 114
1, 293591, Control_c, 0, 64, 120
1, 293606, Control_c, 0, 64, 127
1, 293625, Note_off_c, 0, 52, 57
1, 293649, Note_off_c, 0, 39, 41
1, 293815, Note_on_c, 0, 40, 56
1, 293817, Note_on_c, 0, 51, 64
1, 293843, Note_on_c, 0, 83, 74
1, 293846, Note_off_c, 0, 40, 53
1, 293851, Note_off_c, 0, 51, 63
1, 293871, Note_off_c, 0, 83, 61
1, 293902, Note_on_c, 0, 94, 75
1, 293930, Note_off_c, 0, 94, 65
1, 293938, Note_on_c, 0, 96, 70
1, 293967, Note_on_c, 0, 93, 87
1, 293978, Note_on_c, 0, 95, 46
1, 293989, Note_off_c, 0, 96, 66
1, 294003, Note_off_c, 0, 95, 62
1, 294015, Note_on_c, 0, 85, 96
1, 294034, Note_off_c, 0, 93, 63
1, 294047, Note_off_c, 0, 85, 62
1, 294050, Note_on_c, 0, 92, 74
1, 294087, Note_on_c, 0, 98, 91
1, 294109, Note_off_c, 0, 92, 69
1, 294139, Note_on_c, 0, 91, 72
1, 294173, Note_off_c, 0, 98, 66
1, 294191, Note_off_c, 0, 91, 68
1, 294208, Note_on_c, 0, 87, 103
1, 294242, Note_off_c, 0, 87, 65
1, 294254, Note_on_c, 0, 90, 89
1, 294292, Note_on_c, 0, 100, 91
1, 294307, Note_off_c, 0, 90, 64
1, 294343, Note_on_c, 0, 89, 97
1, 294354, Note_off_c, 0, 100, 68
1, 294379, Note_off_c, 0, 89, 69
1, 294635, Control_c, 0, 64, 107
1, 294650, Control_c, 0, 64, 88
1, 294650, Note_on_c, 0, 52, 41
1, 294656, Note_on_c, 0, 39, 41
1, 294665, Control_c, 0, 64, 74
1, 294680, Control_c, 0, 64, 61
1, 294694, Control_c, 0, 64, 51
1, 294709, Control_c, 0, 64, 42
1, 294724, Control_c, 0, 64, 33
1, 294739, Control_c, 0, 64, 0
1, 294954, Control_c, 0, 64, 32
1, 294968, Control_c, 0, 64, 43
1, 294983, Control_c, 0, 64, 56
1, 294998, Control_c, 0, 64, 62
1, 295012, Control_c, 0, 64, 64
1, 295027, Control_c, 0, 64, 65
1, 295043, Control_c, 0, 64, 67
1, 295058, Control_c, 0, 64, 70
1, 295073, Control_c, 0, 64, 72
1, 295088, Control_c, 0, 64, 76
1, 295103, Control_c, 0, 64, 78
1, 295117, Control_c, 0, 64, 80
1, 295132, Control_c, 0, 64, 82
1, 295147, Control_c, 0, 64, 84
1, 295162, Control_c, 0, 64, 85
1, 295177, Control_c, 0, 64, 87
1, 295191, Control_c, 0, 64, 88
1, 295206, Control_c, 0, 64, 88
1, 295221, Control_c, 0, 64, 89
1, 295235, Control_c, 0, 64, 89
1, 295250, Control_c, 0, 64, 90
1, 295280, Control_c, 0, 64, 90
1, 295295, Control_c, 0, 64, 91
1, 295324, Control_c, 0, 64, 91
1, 295337, Note_off_c, 0, 52, 50
1, 295339, Control_c, 0, 64, 92
1, 295369, Control_c, 0, 64, 92
1, 295398, Control_c, 0, 64, 93
1, 295399, Note_off_c, 0, 39, 43
1, 295443, Control_c, 0, 64, 93
1, 295473, Control_c, 0, 64, 94
1, 295545, Note_on_c, 0, 40, 53
1, 295561, Note_on_c, 0, 51, 42
1, 295579, Note_off_c, 0, 40, 62
1, 295586, Note_on_c, 0, 77, 71
1, 295614, Note_off_c, 0, 51, 62
1, 295641, Note_off_c, 0, 77, 62
1, 295661, Note_on_c, 0, 88, 70
1, 295673, Control_c, 0, 64, 94
1, 295693, Note_on_c, 0, 90, 79
1, 295699, Note_off_c, 0, 88, 62
1, 295717, Control_c, 0, 64, 95
1, 295747, Control_c, 0, 64, 95
1, 295752, Note_on_c, 0, 87, 76
1, 295761, Control_c, 0, 64, 96
1, 295771, Note_off_c, 0, 90, 65
1, 295801, Note_on_c, 0, 79, 78
1, 295806, Control_c, 0, 64, 98
1, 295813, Note_off_c, 0, 87, 63
1, 295837, Control_c, 0, 64, 101
1, 295842, Note_off_c, 0, 79, 61
1, 295842, Note_on_c, 0, 86, 77
1, 295866, Control_c, 0, 64, 103
1, 295874, Note_on_c, 0, 92, 87
1, 295886, Note_off_c, 0, 86, 64
1, 295896, Control_c, 0, 64, 105
1, 295914, Note_on_c, 0, 85, 90
1, 295926, Control_c, 0, 64, 107
1, 295935, Note_off_c, 0, 92, 66
1, 295955, Control_c, 0, 64, 112
1, 295966, Note_off_c, 0, 85, 62
1, 295970, Control_c, 0, 64, 117
1, 295974, Note_on_c, 0, 81, 91
1, 295984, Control_c, 0, 64, 127
1, 295996, Note_on_c, 0, 84, 85
1, 295997, Note_off_c, 0, 81, 66
1, 296048, Note_off_c, 0, 84, 66
1, 296054, Note_on_c, 0, 94, 100
1, 296105, Note_on_c, 0, 86, 97
1, 296126, Note_off_c, 0, 94, 64
1, 296149, Note_off_c, 0, 86, 68
1, 296310, Control_c, 0, 64, 117
1, 296325, Control_c, 0, 64, 100
1, 296340, Control_c, 0, 64, 86
1, 296355, Control_c, 0, 64, 75
1, 296360, Note_on_c, 0, 39, 51
1, 296361, Note_on_c, 0, 52, 51
1, 296370, Control_c, 0, 64, 64
1, 296384, Control_c, 0, 64, 55
1, 296399, Control_c, 0, 64, 46
1, 296421, Control_c, 0, 64, 34
1, 296436, Control_c, 0, 64, 0
1, 296689, Control_c, 0, 64, 32
1, 296704, Control_c, 0, 64, 40
1, 296719, Control_c, 0, 64, 51
1, 296734, Control_c, 0, 64, 58
1, 296749, Control_c, 0, 64, 62
1, 296763, Control_c, 0, 64, 64
1, 296778, Control_c, 0, 64, 65
1, 296793, Control_c, 0, 64, 67
1, 296807, Control_c, 0, 64, 69
1, 296822, Control_c, 0, 64, 71
1, 296837, Control_c, 0, 64, 73
1, 296852, Control_c, 0, 64, 75
1, 296867, Control_c, 0, 64, 77
1, 296881, Control_c, 0, 64, 78
1, 296896, Control_c, 0, 64, 79
1, 296911, Control_c, 0, 64, 80
1, 296926, Control_c, 0, 64, 82
1, 296941, Control_c, 0, 64, 82
1, 296955, Control_c, 0, 64, 83
1, 296970, Control_c, 0, 64, 83
1, 296999, Control_c, 0, 64, 84
1, 297088, Control_c, 0, 64, 84
1, 297118, Note_off_c, 0, 52, 54
1, 297185, Note_off_c, 0, 39, 43
1, 297259, Control_c, 0, 64, 82
1, 297267, Note_on_c, 0, 40, 56
1, 297274, Control_c, 0, 64, 78
1, 297281, Note_on_c, 0, 51, 54
1, 297288, Control_c, 0, 64, 72
1, 297296, Note_off_c, 0, 40, 56
1, 297300, Note_on_c, 0, 71, 70
1, 297303, Control_c, 0, 64, 70
1, 297329, Note_off_c, 0, 51, 62
1, 297344, Note_off_c, 0, 71, 59
1, 297348, Control_c, 0, 64, 71
1, 297352, Note_on_c, 0, 82, 70
1, 297363, Control_c, 0, 64, 73
1, 297378, Control_c, 0, 64, 76
1, 297381, Note_off_c, 0, 82, 64
1, 297393, Control_c, 0, 64, 78
1, 297407, Control_c, 0, 64, 79
1, 297408, Note_on_c, 0, 84, 75
1, 297422, Control_c, 0, 64, 79
1, 297437, Control_c, 0, 64, 80
1, 297440, Note_on_c, 0, 81, 63
1, 297452, Control_c, 0, 64, 80
1, 297470, Note_off_c, 0, 84, 64
1, 297479, Note_on_c, 0, 73, 81
1, 297482, Control_c, 0, 64, 81
1, 297497, Control_c, 0, 64, 81
1, 297505, Note_off_c, 0, 73, 62
1, 297508, Note_off_c, 0, 81, 64
1, 297512, Control_c, 0, 64, 82
1, 297522, Note_on_c, 0, 80, 73
1, 297542, Control_c, 0, 64, 82
1, 297556, Control_c, 0, 64, 83
1, 297571, Control_c, 0, 64, 83
1, 297586, Note_on_c, 0, 86, 79
1, 297586, Control_c, 0, 64, 84
1, 297593, Note_off_c, 0, 80, 66
1, 297601, Control_c, 0, 64, 84
1, 297629, Note_on_c, 0, 79, 69
1, 297646, Note_off_c, 0, 86, 64
1, 297676, Note_off_c, 0, 79, 65
1, 297706, Note_on_c, 0, 75, 77
1, 297729, Note_off_c, 0, 75, 69
1, 297760, Note_on_c, 0, 78, 79
1, 297805, Note_on_c, 0, 88, 88
1, 297813, Note_off_c, 0, 78, 61
1, 297867, Note_on_c, 0, 77, 84
1, 297870, Note_off_c, 0, 88, 65
1, 297921, Note_off_c, 0, 77, 65
1, 298052, Control_c, 0, 64, 83
1, 298067, Control_c, 0, 64, 79
1, 298082, Control_c, 0, 64, 74
1, 298097, Control_c, 0, 64, 67
1, 298102, Note_on_c, 0, 52, 50
1, 298105, Note_on_c, 0, 39, 46
1, 298111, Control_c, 0, 64, 59
1, 298126, Control_c, 0, 64, 51
1, 298141, Control_c, 0, 64, 42
1, 298156, Control_c, 0, 64, 32
1, 298171, Control_c, 0, 64, 0
1, 298305, Control_c, 0, 64, 29
1, 298320, Control_c, 0, 64, 40
1, 298335, Control_c, 0, 64, 52
1, 298349, Control_c, 0, 64, 61
1, 298364, Control_c, 0, 64, 63
1, 298379, Control_c, 0, 64, 65
1, 298394, Control_c, 0, 64, 66
1, 298409, Control_c, 0, 64, 67
1, 298424, Control_c, 0, 64, 69
1, 298439, Control_c, 0, 64, 71
1, 298453, Control_c, 0, 64, 74
1, 298468, Control_c, 0, 64, 75
1, 298483, Control_c, 0, 64, 76
1, 298498, Control_c, 0, 64, 78
1, 298513, Control_c, 0, 64, 79
1, 298527, Control_c, 0, 64, 80
1, 298542, Control_c, 0, 64, 80
1, 298557, Control_c, 0, 64, 81
1, 298586, Control_c, 0, 64, 82
1, 298601, Control_c, 0, 64, 82
1, 298646, Control_c, 0, 64, 83
1, 298860, Control_c, 0, 67, 38
1, 298875, Control_c, 0, 67, 50
1, 298890, Control_c, 0, 67, 81
1, 298896, Note_off_c, 0, 52, 36
1, 298905, Control_c, 0, 67, 107
1, 298916, Note_off_c, 0, 39, 42
1, 298920, Control_c, 0, 67, 117
1, 298934, Control_c, 0, 67, 124
1, 298949, Control_c, 0, 67, 127
1, 299039, Control_c, 0, 64, 80
1, 299049, Note_on_c, 0, 40, 49
1, 299054, Control_c, 0, 64, 73
1, 299059, Note_on_c, 0, 51, 51
1, 299069, Control_c, 0, 64, 66
1, 299083, Control_c, 0, 64, 63
1, 299113, Control_c, 0, 64, 65
1, 299116, Note_on_c, 0, 65, 57
1, 299117, Note_off_c, 0, 40, 51
1, 299128, Control_c, 0, 64, 67
1, 299143, Control_c, 0, 64, 70
1, 299156, Note_off_c, 0, 65, 57
1, 299157, Control_c, 0, 64, 72
1, 299158, Note_off_c, 0, 51, 59
1, 299172, Control_c, 0, 64, 74
1, 299187, Control_c, 0, 64, 75
1, 299194, Note_on_c, 0, 76, 59
1, 299202, Control_c, 0, 64, 75
1, 299217, Control_c, 0, 64, 76
1, 299223, Note_on_c, 0, 78, 71
1, 299223, Note_off_c, 0, 76, 66
1, 299247, Control_c, 0, 64, 76
1, 299276, Control_c, 0, 64, 77
1, 299282, Note_on_c, 0, 75, 64
1, 299298, Note_off_c, 0, 78, 56
1, 299339, Note_on_c, 0, 67, 34
1, 299351, Note_off_c, 0, 75, 62
1, 299374, Note_off_c, 0, 67, 54
1, 299403, Note_on_c, 0, 74, 55
1, 299436, Note_off_c, 0, 74, 53
1, 299440, Note_on_c, 0, 80, 65
1, 299503, Note_off_c, 0, 80, 62
1, 299506, Note_on_c, 0, 73, 62
1, 299557, Note_off_c, 0, 73, 59
1, 299616, Note_on_c, 0, 69, 43
1, 299649, Note_off_c, 0, 69, 55
1, 299663, Note_on_c, 0, 72, 45
1, 299767, Note_on_c, 0, 82, 47
1, 299772, Control_c, 0, 67, 125
1, 299775, Note_off_c, 0, 72, 37
1, 299801, Control_c, 0, 67, 122
1, 299832, Control_c, 0, 67, 119
1, 299847, Control_c, 0, 67, 117
1, 299864, Note_off_c, 0, 82, 53
1, 299877, Control_c, 0, 67, 114
1, 299881, Note_on_c, 0, 74, 46
1, 299906, Control_c, 0, 67, 111
1, 299936, Control_c, 0, 67, 109
1, 299966, Control_c, 0, 67, 107
1, 299980, Control_c, 0, 67, 105
1, 299985, Note_off_c, 0, 74, 64
1, 299995, Control_c, 0, 67, 102
1, 300099, Control_c, 0, 64, 76
1, 300114, Control_c, 0, 64, 74
1, 300117, Note_on_c, 0, 38, 41
1, 300122, Note_on_c, 0, 52, 50
1, 300129, Control_c, 0, 64, 70
1, 300144, Control_c, 0, 64, 65
1, 300165, Control_c, 0, 64, 59
1, 300180, Control_c, 0, 64, 54
1, 300195, Control_c, 0, 64, 50
1, 300210, Control_c, 0, 64, 48
1, 300225, Control_c, 0, 64, 47
1, 300239, Control_c, 0, 64, 45
1, 300254, Control_c, 0, 64, 44
1, 300269, Control_c, 0, 64, 44
1, 300269, Control_c, 0, 67, 104
1, 300552, Note_on_c, 0, 59, 52
1, 300566, Control_c, 0, 64, 43
1, 300602, Note_off_c, 0, 59, 56
1, 300627, Control_c, 0, 64, 43
1, 300660, Note_on_c, 0, 58, 48
1, 300716, Control_c, 0, 64, 43
1, 300730, Control_c, 0, 64, 46
1, 300745, Control_c, 0, 64, 51
1, 300760, Control_c, 0, 64, 57
1, 300774, Control_c, 0, 64, 61
1, 300789, Control_c, 0, 64, 64
1, 300804, Control_c, 0, 64, 67
1, 300819, Control_c, 0, 64, 69
1, 300834, Control_c, 0, 64, 71
1, 300834, Control_c, 0, 67, 102
1, 300848, Control_c, 0, 64, 73
1, 300854, Note_off_c, 0, 52, 54
1, 300863, Control_c, 0, 64, 75
1, 300878, Control_c, 0, 64, 76
1, 300901, Control_c, 0, 64, 78
1, 300916, Control_c, 0, 64, 80
1, 300930, Control_c, 0, 64, 81
1, 300945, Control_c, 0, 64, 82
1, 300960, Control_c, 0, 64, 82
1, 300989, Control_c, 0, 64, 83
1, 301050, Note_on_c, 0, 40, 49
1, 301057, Note_on_c, 0, 51, 54
1, 301097, Note_off_c, 0, 38, 33
1, 301108, Control_c, 0, 64, 79
1, 301123, Control_c, 0, 64, 75
1, 301137, Control_c, 0, 64, 69
1, 301152, Control_c, 0, 64, 65
1, 301167, Control_c, 0, 64, 62
1, 301167, Control_c, 0, 67, 100
1, 301196, Control_c, 0, 64, 63
1, 301211, Control_c, 0, 64, 64
1, 301211, Control_c, 0, 67, 98
1, 301226, Control_c, 0, 64, 66
1, 301241, Control_c, 0, 64, 69
1, 301241, Control_c, 0, 67, 96
1, 301256, Control_c, 0, 64, 72
1, 301256, Control_c, 0, 67, 96
1, 301271, Control_c, 0, 64, 75
1, 301286, Control_c, 0, 64, 77
1, 301286, Control_c, 0, 67, 95
1, 301301, Control_c, 0, 64, 80
1, 301301, Control_c, 0, 67, 94
1, 301315, Control_c, 0, 64, 83
1, 301315, Control_c, 0, 67, 93
1, 301330, Control_c, 0, 64, 87
1, 301330, Control_c, 0, 67, 92
1, 301345, Control_c, 0, 64, 90
1, 301345, Control_c, 0, 67, 92
1, 301360, Control_c, 0, 64, 93
1, 301360, Control_c, 0, 67, 86
1, 301374, Control_c, 0, 64, 97
1, 301374, Control_c, 0, 67, 64
1, 301389, Control_c, 0, 64, 100
1, 301389, Control_c, 0, 67, 48
1, 301404, Control_c, 0, 64, 103
1, 301404, Control_c, 0, 67, 40
1, 301419, Control_c, 0, 64, 109
1, 301419, Control_c, 0, 67, 37
1, 301435, Control_c, 0, 64, 118
1, 301435, Control_c, 0, 67, 0
1, 301450, Control_c, 0, 64, 127
1, 301652, Note_off_c, 0, 51, 35
1, 301926, Note_on_c, 0, 52, 66
1, 301928, Note_on_c, 0, 38, 66
1, 301944, Control_c, 0, 64, 107
1, 301959, Control_c, 0, 64, 86
1, 301974, Control_c, 0, 64, 72
1, 301989, Control_c, 0, 64, 63
1, 302003, Note_off_c, 0, 40, 45
1, 302004, Control_c, 0, 64, 57
1, 302019, Control_c, 0, 64, 57
1, 302034, Control_c, 0, 64, 59
1, 302049, Control_c, 0, 64, 62
1, 302064, Control_c, 0, 64, 65
1, 302078, Control_c, 0, 64, 67
1, 302093, Control_c, 0, 64, 71
1, 302108, Control_c, 0, 64, 73
1, 302122, Control_c, 0, 64, 75
1, 302137, Control_c, 0, 64, 77
1, 302152, Control_c, 0, 64, 78
1, 302167, Control_c, 0, 64, 79
1, 302182, Control_c, 0, 64, 81
1, 302196, Control_c, 0, 64, 82
1, 302211, Control_c, 0, 64, 82
1, 302216, Note_off_c, 0, 58, 57
1, 302227, Control_c, 0, 64, 83
1, 302257, Control_c, 0, 64, 83
1, 302272, Control_c, 0, 64, 84
1, 302292, Note_on_c, 0, 59, 90
1, 302316, Control_c, 0, 64, 84
1, 302341, Note_off_c, 0, 59, 66
1, 302371, Note_on_c, 0, 58, 100
1, 302375, Control_c, 0, 64, 83
1, 302390, Control_c, 0, 64, 76
1, 302412, Control_c, 0, 64, 64
1, 302427, Control_c, 0, 64, 51
1, 302442, Control_c, 0, 64, 47
1, 302457, Control_c, 0, 64, 48
1, 302472, Control_c, 0, 64, 54
1, 302487, Control_c, 0, 64, 60
1, 302501, Control_c, 0, 64, 65
1, 302516, Control_c, 0, 64, 70
1, 302531, Control_c, 0, 64, 76
1, 302546, Control_c, 0, 64, 81
1, 302560, Control_c, 0, 64, 84
1, 302575, Control_c, 0, 64, 89
1, 302590, Control_c, 0, 64, 94
1, 302605, Control_c, 0, 64, 99
1, 302619, Control_c, 0, 64, 107
1, 302634, Control_c, 0, 64, 122
1, 302649, Control_c, 0, 64, 127
1, 302763, Note_off_c, 0, 38, 48
1, 302778, Note_off_c, 0, 52, 61
1, 302873, Note_on_c, 0, 51, 102
1, 302874, Note_on_c, 0, 40, 89
1, 302901, Control_c, 0, 64, 94
1, 302916, Control_c, 0, 64, 70
1, 302931, Control_c, 0, 64, 58
1, 302945, Control_c, 0, 64, 58
1, 302960, Control_c, 0, 64, 61
1, 302975, Control_c, 0, 64, 68
1, 302990, Control_c, 0, 64, 81
1, 303005, Control_c, 0, 64, 97
1, 303020, Control_c, 0, 64, 108
1, 303035, Control_c, 0, 64, 127
1, 303232, Note_off_c, 0, 51, 53
1, 303592, Note_off_c, 0, 58, 52
1, 303613, Note_off_c, 0, 40, 58
1, 303989, Note_on_c, 0, 52, 99
1, 303994, Note_on_c, 0, 45, 105
1, 303995, Note_on_c, 0, 27, 105
1, 303998, Note_on_c, 0, 40, 96
1, 304001, Note_on_c, 0, 33, 93
1, 304012, Note_on_c, 0, 53, 54
1, 304012, Note_off_c, 0, 53, 127
1, 304013, Control_c, 0, 64, 87
1, 304028, Control_c, 0, 64, 48
1, 304043, Control_c, 0, 64, 0
1, 304103, Control_c, 0, 66, 127
1, 304274, Note_off_c, 0, 45, 59
1, 304314, Note_off_c, 0, 52, 64
1, 304505, Note_on_c, 0, 62, 103
1, 304534, Note_off_c, 0, 27, 61
1, 304547, Note_off_c, 0, 33, 59
1, 304550, Note_off_c, 0, 62, 67
1, 304565, Note_off_c, 0, 40, 64
1, 304577, Note_on_c, 0, 61, 99
1, 304887, Note_on_c, 0, 56, 105
1, 304927, Note_off_c, 0, 56, 66
1, 304949, Note_on_c, 0, 55, 102
1, 305135, Note_off_c, 0, 61, 63
1, 305206, Note_on_c, 0, 60, 105
1, 305241, Note_off_c, 0, 60, 74
1, 305271, Note_on_c, 0, 59, 104
1, 305462, Note_on_c, 0, 54, 94
1, 305464, Note_off_c, 0, 55, 52
1, 305538, Note_off_c, 0, 54, 56
1, 305540, Note_on_c, 0, 53, 100
1, 305578, Note_off_c, 0, 59, 65
1, 305662, Note_on_c, 0, 57, 105
1, 305715, Note_off_c, 0, 57, 63
1, 305769, Note_on_c, 0, 56, 105
1, 305824, Note_off_c, 0, 56, 64
1, 305861, Note_on_c, 0, 55, 96
1, 305903, Note_off_c, 0, 53, 61
1, 305921, Note_off_c, 0, 55, 65
1, 305961, Note_on_c, 0, 54, 98
1, 305966, Note_on_c, 0, 52, 90
1, 306041, Note_on_c, 0, 51, 87
1, 306050, Note_off_c, 0, 52, 61
1, 306097, Note_on_c, 0, 53, 87
1, 306100, Note_off_c, 0, 54, 59
1, 306122, Note_off_c, 0, 51, 62
1, 306123, Note_on_c, 0, 50, 97
1, 306193, Note_off_c, 0, 53, 61
1, 306215, Note_on_c, 0, 52, 91
1, 306255, Note_off_c, 0, 50, 62
1, 306305, Note_on_c, 0, 49, 93
1, 306306, Note_off_c, 0, 52, 59
1, 306333, Note_on_c, 0, 51, 96
1, 306387, Note_off_c, 0, 49, 63
1, 306441, Note_on_c, 0, 47, 101
1, 306469, Note_off_c, 0, 51, 61
1, 306487, Note_off_c, 0, 47, 68
1, 306503, Note_on_c, 0, 50, 90
1, 306556, Note_off_c, 0, 50, 66
1, 306583, Note_on_c, 0, 46, 99
1, 306595, Note_on_c, 0, 49, 91
1, 306607, Note_off_c, 0, 46, 69
1, 306654, Note_off_c, 0, 49, 64
1, 306679, Note_on_c, 0, 47, 92
1, 306726, Note_off_c, 0, 47, 66
1, 306734, Control_c, 0, 66, 0
1, 306751, Note_on_c, 0, 46, 99
1, 306929, Note_on_c, 0, 40, 98
1, 306977, Note_off_c, 0, 40, 63
1, 306999, Note_on_c, 0, 39, 103
1, 307015, Note_on_c, 0, 40, 38
1, 307034, Note_off_c, 0, 40, 65
1, 307064, Note_off_c, 0, 46, 62
1, 307147, Note_on_c, 0, 47, 101
1, 307188, Note_off_c, 0, 47, 68
1, 307213, Note_on_c, 0, 46, 101
1, 307236, Note_on_c, 0, 47, 30
1, 307239, Note_off_c, 0, 39, 64
1, 307259, Note_off_c, 0, 47, 60
1, 307330, Note_on_c, 0, 40, 95
1, 307401, Note_on_c, 0, 39, 99
1, 307408, Control_c, 0, 64, 61
1, 307418, Note_off_c, 0, 46, 65
1, 307420, Note_off_c, 0, 40, 66
1, 307423, Control_c, 0, 64, 69
1, 307438, Control_c, 0, 64, 70
1, 307450, Note_off_c, 0, 39, 67
1, 307468, Control_c, 0, 64, 70
1, 307483, Control_c, 0, 64, 71
1, 307498, Control_c, 0, 64, 71
1, 307513, Control_c, 0, 64, 72
1, 307523, Note_on_c, 0, 35, 124
1, 307528, Control_c, 0, 64, 75
1, 307542, Control_c, 0, 64, 80
1, 307557, Control_c, 0, 64, 86
1, 307572, Control_c, 0, 64, 92
1, 307587, Control_c, 0, 64, 93
1, 307601, Note_off_c, 0, 35, 65
1, 307602, Control_c, 0, 64, 92
1, 307616, Control_c, 0, 64, 81
1, 307631, Control_c, 0, 64, 61
1, 307653, Control_c, 0, 64, 32
1, 307668, Control_c, 0, 64, 0
1, 307679, Note_on_c, 0, 34, 118
1, 307680, Note_on_c, 0, 40, 105
1, 307683, Note_on_c, 0, 28, 105
1, 307683, Control_c, 0, 64, 35
1, 307698, Control_c, 0, 64, 56
1, 307712, Control_c, 0, 64, 71
1, 307727, Control_c, 0, 64, 79
1, 307742, Control_c, 0, 64, 81
1, 307766, Note_off_c, 0, 40, 65
1, 307768, Note_off_c, 0, 28, 64
1, 307772, Control_c, 0, 64, 77
1, 307774, Poly_aftertouch_c, 0, 26, 127
1, 307787, Control_c, 0, 64, 62
1, 307802, Control_c, 0, 64, 0
1, 307802, Poly_aftertouch_c, 0, 26, 0
1, 307839, Note_on_c, 0, 39, 101
1, 307842, Note_on_c, 0, 27, 110
1, 307876, Control_c, 0, 64, 42
1, 307891, Control_c, 0, 64, 93
1, 307891, Note_on_c, 0, 28, 35
1, 307906, Control_c, 0, 64, 127
1, 307921, Note_off_c, 0, 39, 67
1, 307921, Note_off_c, 0, 28, 58
1, 307924, Note_off_c, 0, 27, 66
1, 307924, Note_off_c, 0, 34, 66
1, 308098, Control_c, 0, 64, 86
1, 308112, Control_c, 0, 64, 49
1, 308127, Control_c, 0, 64, 0
1, 312545, Control_c, 0, 67, 60
1, 312560, Control_c, 0, 67, 88
1, 312575, Control_c, 0, 67, 105
1, 312590, Control_c, 0, 67, 111
1, 312606, Control_c, 0, 67, 114
1, 312709, Control_c, 0, 67, 112
1, 312739, Control_c, 0, 67, 109
1, 312911, Note_on_c, 0, 86, 59
1, 312942, Note_off_c, 0, 86, 65
1, 312991, Note_on_c, 0, 84, 74
1, 313013, Control_c, 0, 67, 111
1, 313030, Note_off_c, 0, 84, 65
1, 313042, Control_c, 0, 67, 115
1, 313057, Control_c, 0, 67, 118
1, 313072, Control_c, 0, 67, 120
1, 313087, Control_c, 0, 67, 122
1, 313099, Note_on_c, 0, 83, 69
1, 313102, Control_c, 0, 67, 127
1, 313110, Note_on_c, 0, 67, 45
1, 313117, Control_c, 0, 64, 42
1, 313132, Control_c, 0, 64, 54
1, 313147, Control_c, 0, 64, 59
1, 313159, Note_off_c, 0, 67, 58
1, 313161, Control_c, 0, 64, 60
1, 313176, Control_c, 0, 64, 61
1, 313191, Note_on_c, 0, 78, 52
1, 313191, Control_c, 0, 64, 61
1, 313206, Control_c, 0, 64, 62
1, 313214, Note_off_c, 0, 83, 55
1, 313218, Note_on_c, 0, 73, 32
1, 313221, Control_c, 0, 64, 62
1, 313235, Control_c, 0, 64, 63
1, 313250, Note_off_c, 0, 73, 53
1, 313250, Control_c, 0, 64, 63
1, 313279, Control_c, 0, 64, 64
1, 313293, Note_on_c, 0, 87, 43
1, 313301, Note_on_c, 0, 71, 37
1, 313340, Note_off_c, 0, 71, 58
1, 313345, Note_off_c, 0, 87, 55
1, 313378, Note_off_c, 0, 78, 60
1, 313379, Note_on_c, 0, 77, 58
1, 313383, Control_c, 0, 64, 61
1, 313385, Note_on_c, 0, 82, 63
1, 313398, Control_c, 0, 64, 51
1, 313404, Note_off_c, 0, 77, 65
1, 313414, Control_c, 0, 64, 0
1, 313430, Note_off_c, 0, 82, 54
1, 313487, Note_on_c, 0, 86, 61
1, 313522, Note_off_c, 0, 86, 62
1, 313574, Note_on_c, 0, 84, 65
1, 313616, Note_off_c, 0, 84, 65
1, 313673, Note_on_c, 0, 83, 68
1, 313688, Note_on_c, 0, 67, 43
1, 313688, Control_c, 0, 64, 47
1, 313703, Control_c, 0, 64, 56
1, 313717, Control_c, 0, 64, 59
1, 313732, Note_off_c, 0, 67, 53
1, 313732, Control_c, 0, 64, 60
1, 313747, Control_c, 0, 64, 61
1, 313762, Control_c, 0, 64, 62
1, 313766, Note_on_c, 0, 78, 49
1, 313776, Control_c, 0, 64, 63
1, 313784, Note_on_c, 0, 73, 41
1, 313791, Control_c, 0, 64, 64
1, 313806, Control_c, 0, 64, 65
1, 313817, Note_off_c, 0, 73, 57
1, 313822, Control_c, 0, 64, 66
1, 313837, Control_c, 0, 64, 67
1, 313844, Note_off_c, 0, 83, 60
1, 313851, Control_c, 0, 64, 68
1, 313865, Note_on_c, 0, 87, 45
1, 313866, Control_c, 0, 64, 69
1, 313891, Note_on_c, 0, 71, 26
1, 313921, Note_off_c, 0, 87, 52
1, 313935, Note_off_c, 0, 71, 40
1, 313940, Control_c, 0, 64, 65
1, 313948, Note_on_c, 0, 77, 63
1, 313953, Note_on_c, 0, 82, 62
1, 313953, Note_off_c, 0, 78, 59
1, 313955, Control_c, 0, 64, 51
1, 313968, Note_off_c, 0, 77, 65
1, 313970, Control_c, 0, 64, 0
1, 314001, Note_off_c, 0, 82, 53
1, 314047, Note_on_c, 0, 86, 64
1, 314080, Note_off_c, 0, 86, 62
1, 314139, Note_on_c, 0, 84, 66
1, 314172, Note_off_c, 0, 84, 63
1, 314221, Note_on_c, 0, 83, 80
1, 314234, Note_on_c, 0, 67, 64
1, 314238, Control_c, 0, 64, 37
1, 314253, Control_c, 0, 64, 53
1, 314267, Control_c, 0, 64, 58
1, 314282, Control_c, 0, 64, 60
1, 314297, Control_c, 0, 64, 61
1, 314300, Note_off_c, 0, 67, 55
1, 314312, Control_c, 0, 64, 63
1, 314326, Control_c, 0, 64, 65
1, 314330, Note_on_c, 0, 78, 58
1, 314341, Control_c, 0, 64, 67
1, 314346, Note_on_c, 0, 73, 37
1, 314349, Note_off_c, 0, 83, 60
1, 314356, Control_c, 0, 64, 69
1, 314371, Control_c, 0, 64, 72
1, 314385, Note_off_c, 0, 73, 54
1, 314393, Control_c, 0, 64, 73
1, 314408, Control_c, 0, 64, 74
1, 314409, Note_off_c, 0, 78, 51
1, 314425, Note_on_c, 0, 87, 61
1, 314438, Note_on_c, 0, 71, 34
1, 314452, Control_c, 0, 64, 71
1, 314467, Control_c, 0, 64, 65
1, 314474, Note_off_c, 0, 71, 44
1, 314482, Control_c, 0, 64, 51
1, 314497, Control_c, 0, 64, 43
1, 314504, Note_on_c, 0, 82, 80
1, 314527, Control_c, 0, 64, 49
1, 314530, Note_on_c, 0, 77, 45
1, 314541, Control_c, 0, 64, 59
1, 314556, Control_c, 0, 64, 64
1, 314559, Note_off_c, 0, 77, 61
1, 314560, Note_off_c, 0, 87, 26
1, 314571, Control_c, 0, 64, 67
1, 314583, Note_off_c, 0, 82, 60
1, 314586, Control_c, 0, 64, 69
1, 314601, Control_c, 0, 64, 70
1, 314604, Note_on_c, 0, 91, 65
1, 314607, Note_on_c, 0, 75, 43
1, 314615, Control_c, 0, 64, 72
1, 314630, Control_c, 0, 64, 75
1, 314645, Control_c, 0, 64, 76
1, 314652, Note_off_c, 0, 75, 57
1, 314659, Control_c, 0, 64, 78
1, 314664, Note_off_c, 0, 91, 63
1, 314704, Control_c, 0, 64, 77
1, 314706, Note_on_c, 0, 86, 69
1, 314706, Note_on_c, 0, 81, 68
1, 314719, Control_c, 0, 64, 70
1, 314733, Control_c, 0, 64, 60
1, 314734, Note_off_c, 0, 81, 66
1, 314748, Control_c, 0, 64, 41
1, 314749, Note_off_c, 0, 86, 62
1, 314763, Control_c, 0, 64, 0
1, 314779, Note_on_c, 0, 79, 62
1, 314793, Control_c, 0, 64, 41
1, 314800, Note_on_c, 0, 95, 66
1, 314808, Control_c, 0, 64, 56
1, 314823, Control_c, 0, 64, 63
1, 314838, Control_c, 0, 64, 66
1, 314847, Note_off_c, 0, 79, 55
1, 314849, Note_off_c, 0, 95, 55
1, 314852, Control_c, 0, 64, 67
1, 314867, Control_c, 0, 64, 67
1, 314882, Control_c, 0, 64, 68
1, 314886, Note_on_c, 0, 91, 57
1, 314897, Control_c, 0, 64, 69
1, 314912, Control_c, 0, 64, 71
1, 314926, Control_c, 0, 64, 72
1, 314935, Note_off_c, 0, 91, 55
1, 314941, Control_c, 0, 64, 73
1, 314956, Control_c, 0, 64, 74
1, 314965, Note_on_c, 0, 86, 67
1, 314971, Control_c, 0, 64, 75
1, 314995, Note_off_c, 0, 86, 65
1, 315046, Control_c, 0, 64, 71
1, 315061, Control_c, 0, 64, 60
1, 315064, Note_on_c, 0, 79, 60
1, 315075, Control_c, 0, 64, 32
1, 315082, Note_off_c, 0, 79, 65
1, 315090, Control_c, 0, 64, 0
1, 315173, Note_on_c, 0, 86, 63
1, 315209, Note_off_c, 0, 86, 60
1, 315252, Note_on_c, 0, 84, 63
1, 315296, Note_off_c, 0, 84, 63
1, 315350, Control_c, 0, 64, 40
1, 315351, Note_on_c, 0, 83, 65
1, 315364, Control_c, 0, 64, 52
1, 315376, Note_on_c, 0, 67, 47
1, 315379, Control_c, 0, 64, 58
1, 315394, Control_c, 0, 64, 61
1, 315409, Control_c, 0, 64, 62
1, 315421, Note_off_c, 0, 67, 59
1, 315424, Control_c, 0, 64, 62
1, 315439, Control_c, 0, 64, 63
1, 315447, Note_on_c, 0, 78, 40
1, 315454, Control_c, 0, 64, 64
1, 315460, Note_on_c, 0, 73, 27
1, 315469, Control_c, 0, 64, 64
1, 315483, Control_c, 0, 64, 65
1, 315490, Note_off_c, 0, 73, 50
1, 315498, Control_c, 0, 64, 65
1, 315505, Note_off_c, 0, 83, 57
1, 315513, Control_c, 0, 64, 66
1, 315533, Note_on_c, 0, 71, 42
1, 315540, Note_on_c, 0, 87, 41
1, 315543, Control_c, 0, 64, 66
1, 315580, Note_off_c, 0, 71, 60
1, 315597, Note_off_c, 0, 87, 57
1, 315602, Control_c, 0, 64, 66
1, 315617, Control_c, 0, 64, 63
1, 315622, Note_on_c, 0, 77, 56
1, 315631, Control_c, 0, 64, 53
1, 315635, Note_on_c, 0, 82, 55
1, 315642, Note_off_c, 0, 77, 63
1, 315646, Control_c, 0, 64, 34
1, 315651, Note_off_c, 0, 78, 55
1, 315661, Control_c, 0, 64, 0
1, 315685, Note_off_c, 0, 82, 53
1, 315731, Note_on_c, 0, 86, 58
1, 315781, Note_off_c, 0, 86, 60
1, 315821, Note_on_c, 0, 84, 62
1, 315865, Note_off_c, 0, 84, 64
1, 315892, Control_c, 0, 64, 30
1, 315906, Control_c, 0, 64, 47
1, 315918, Note_on_c, 0, 83, 71
1, 315921, Control_c, 0, 64, 57
1, 315922, Note_on_c, 0, 67, 54
1, 315936, Control_c, 0, 64, 60
1, 315951, Control_c, 0, 64, 61
1, 315966, Control_c, 0, 64, 62
1, 315980, Control_c, 0, 64, 63
1, 315982, Note_off_c, 0, 67, 55
1, 315995, Control_c, 0, 64, 64
1, 316010, Control_c, 0, 64, 64
1, 316017, Note_on_c, 0, 78, 42
1, 316025, Control_c, 0, 64, 65
1, 316038, Note_on_c, 0, 73, 24
1, 316040, Control_c, 0, 64, 66
1, 316054, Control_c, 0, 64, 66
1, 316066, Note_off_c, 0, 73, 49
1, 316068, Control_c, 0, 64, 67
1, 316083, Control_c, 0, 64, 68
1, 316088, Note_off_c, 0, 83, 58
1, 316096, Note_on_c, 0, 71, 43
1, 316098, Control_c, 0, 64, 68
1, 316111, Note_on_c, 0, 87, 48
1, 316128, Control_c, 0, 64, 68
1, 316142, Control_c, 0, 64, 66
1, 316157, Control_c, 0, 64, 60
1, 316158, Note_off_c, 0, 87, 56
1, 316160, Note_off_c, 0, 71, 56
1, 316172, Control_c, 0, 64, 49
1, 316187, Control_c, 0, 64, 40
1, 316199, Note_on_c, 0, 82, 69
1, 316202, Note_on_c, 0, 77, 54
1, 316202, Control_c, 0, 64, 40
1, 316217, Control_c, 0, 64, 43
1, 316223, Note_off_c, 0, 77, 62
1, 316232, Control_c, 0, 64, 50
1, 316236, Note_off_c, 0, 78, 54
1, 316247, Control_c, 0, 64, 56
1, 316261, Control_c, 0, 64, 59
1, 316276, Note_off_c, 0, 82, 58
1, 316276, Control_c, 0, 64, 60
1, 316291, Control_c, 0, 64, 61
1, 316305, Control_c, 0, 64, 62
1, 316309, Note_on_c, 0, 86, 56
1, 316320, Control_c, 0, 64, 63
1, 316335, Control_c, 0, 64, 64
1, 316350, Control_c, 0, 64, 64
1, 316366, Note_off_c, 0, 86, 61
1, 316394, Control_c, 0, 64, 62
1, 316399, Note_on_c, 0, 84, 59
1, 316409, Control_c, 0, 64, 54
1, 316423, Control_c, 0, 64, 43
1, 316438, Control_c, 0, 64, 33
1, 316441, Note_off_c, 0, 84, 63
1, 316468, Control_c, 0, 64, 35
1, 316482, Note_on_c, 0, 67, 61
1, 316482, Note_on_c, 0, 83, 75
1, 316483, Control_c, 0, 64, 44
1, 316497, Control_c, 0, 64, 53
1, 316512, Control_c, 0, 64, 60
1, 316527, Control_c, 0, 64, 63
1, 316542, Control_c, 0, 64, 64
1, 316557, Control_c, 0, 64, 64
1, 316572, Control_c, 0, 64, 66
1, 316582, Note_off_c, 0, 67, 60
1, 316587, Control_c, 0, 64, 67
1, 316590, Note_on_c, 0, 78, 58
1, 316602, Control_c, 0, 64, 69
1, 316607, Note_off_c, 0, 83, 57
1, 316625, Control_c, 0, 64, 70
1, 316640, Control_c, 0, 64, 71
1, 316646, Note_off_c, 0, 78, 52
1, 316655, Control_c, 0, 64, 72
1, 316684, Note_on_c, 0, 87, 60
1, 316685, Note_on_c, 0, 71, 51
1, 316693, Poly_aftertouch_c, 0, 73, 0
1, 316699, Control_c, 0, 64, 71
1, 316714, Control_c, 0, 64, 67
1, 316722, Note_off_c, 0, 71, 62
1, 316728, Control_c, 0, 64, 60
1, 316740, Note_off_c, 0, 87, 53
1, 316743, Control_c, 0, 64, 52
1, 316758, Control_c, 0, 64, 51
1, 316766, Note_on_c, 0, 82, 78
1, 316773, Control_c, 0, 64, 53
1, 316787, Note_on_c, 0, 77, 47
1, 316788, Control_c, 0, 64, 57
1, 316802, Control_c, 0, 64, 61
1, 316818, Control_c, 0, 64, 64
1, 316824, Note_off_c, 0, 77, 63
1, 316833, Control_c, 0, 64, 66
1, 316834, Note_off_c, 0, 82, 63
1, 316847, Control_c, 0, 64, 68
1, 316862, Control_c, 0, 64, 70
1, 316867, Note_on_c, 0, 91, 68
1, 316870, Note_on_c, 0, 75, 45
1, 316877, Control_c, 0, 64, 71
1, 316892, Control_c, 0, 64, 72
1, 316907, Control_c, 0, 64, 73
1, 316912, Note_off_c, 0, 75, 60
1, 316928, Note_off_c, 0, 91, 65
1, 316951, Control_c, 0, 64, 71
1, 316959, Note_on_c, 0, 86, 73
1, 316963, Note_on_c, 0, 81, 68
1, 316966, Control_c, 0, 64, 64
1, 316981, Control_c, 0, 64, 51
1, 316996, Control_c, 0, 64, 33
1, 317003, Note_off_c, 0, 86, 63
1, 317010, Control_c, 0, 64, 0
1, 317025, Control_c, 0, 64, 32
1, 317040, Control_c, 0, 64, 45
1, 317046, Note_on_c, 0, 95, 73
1, 317046, Note_off_c, 0, 81, 55
1, 317055, Control_c, 0, 64, 56
1, 317069, Control_c, 0, 64, 62
1, 317077, Note_on_c, 0, 79, 39
1, 317084, Control_c, 0, 64, 64
1, 317099, Control_c, 0, 64, 65
1, 317114, Control_c, 0, 64, 65
1, 317118, Note_off_c, 0, 95, 62
1, 317123, Note_off_c, 0, 79, 61
1, 317129, Control_c, 0, 64, 67
1, 317130, Note_on_c, 0, 91, 69
1, 317144, Control_c, 0, 64, 68
1, 317159, Control_c, 0, 64, 69
1, 317174, Control_c, 0, 64, 70
1, 317189, Control_c, 0, 64, 71
1, 317189, Control_c, 0, 67, 117
1, 317198, Note_off_c, 0, 91, 64
1, 317203, Control_c, 0, 64, 72
1, 317203, Control_c, 0, 67, 79
1, 317212, Note_on_c, 0, 86, 75
1, 317218, Control_c, 0, 64, 73
1, 317218, Control_c, 0, 67, 41
1, 317233, Control_c, 0, 64, 73
1, 317233, Control_c, 0, 67, 0
1, 317242, Note_off_c, 0, 86, 65
1, 317247, Control_c, 0, 64, 74
1, 317311, Note_on_c, 0, 79, 56
1, 317330, Note_off_c, 0, 79, 63
1, 317336, Control_c, 0, 64, 72
1, 317351, Control_c, 0, 64, 69
1, 317366, Control_c, 0, 64, 65
1, 317388, Control_c, 0, 64, 59
1, 317398, Note_on_c, 0, 91, 82
1, 317404, Control_c, 0, 64, 54
1, 317419, Control_c, 0, 64, 48
1, 317433, Control_c, 0, 64, 43
1, 317448, Control_c, 0, 64, 38
1, 317463, Control_c, 0, 64, 34
1, 317478, Control_c, 0, 64, 30
1, 317484, Note_off_c, 0, 91, 67
1, 317492, Note_on_c, 0, 95, 86
1, 317493, Control_c, 0, 64, 0
1, 317567, Control_c, 0, 64, 33
1, 317582, Control_c, 0, 64, 42
1, 317594, Note_on_c, 0, 60, 53
1, 317595, Note_on_c, 0, 91, 80
1, 317597, Control_c, 0, 64, 53
1, 317600, Note_off_c, 0, 95, 65
1, 317612, Control_c, 0, 64, 60
1, 317626, Control_c, 0, 64, 64
1, 317641, Control_c, 0, 64, 66
1, 317642, Note_off_c, 0, 91, 66
1, 317656, Control_c, 0, 64, 66
1, 317667, Note_off_c, 0, 60, 62
1, 317671, Control_c, 0, 64, 67
1, 317681, Note_on_c, 0, 79, 70
1, 317689, Note_on_c, 0, 66, 60
1, 317700, Control_c, 0, 64, 68
1, 317715, Control_c, 0, 64, 68
1, 317730, Control_c, 0, 64, 69
1, 317752, Note_off_c, 0, 79, 57
1, 317763, Note_off_c, 0, 66, 62
1, 317772, Note_on_c, 0, 83, 70
1, 317789, Control_c, 0, 64, 69
1, 317794, Note_on_c, 0, 71, 48
1, 317800, Note_off_c, 0, 83, 63
1, 317877, Note_off_c, 0, 71, 31
1, 317880, Note_on_c, 0, 75, 68
1, 317916, Note_off_c, 0, 75, 62
1, 317967, Note_on_c, 0, 83, 81
1, 318054, Note_on_c, 0, 91, 82
1, 318054, Note_off_c, 0, 83, 59
1, 318056, Control_c, 0, 64, 67
1, 318070, Control_c, 0, 64, 63
1, 318085, Control_c, 0, 64, 54
1, 318100, Control_c, 0, 64, 45
1, 318115, Control_c, 0, 64, 36
1, 318137, Control_c, 0, 64, 30
1, 318149, Note_off_c, 0, 91, 67
1, 318152, Note_on_c, 0, 95, 85
1, 318169, Note_on_c, 0, 60, 49
1, 318181, Control_c, 0, 64, 33
1, 318196, Control_c, 0, 64, 39
1, 318212, Control_c, 0, 64, 44
1, 318220, Note_off_c, 0, 60, 55
1, 318227, Control_c, 0, 64, 50
1, 318242, Control_c, 0, 64, 54
1, 318246, Note_on_c, 0, 91, 78
1, 318247, Note_off_c, 0, 95, 64
1, 318256, Control_c, 0, 64, 57
1, 318257, Note_on_c, 0, 66, 46
1, 318271, Control_c, 0, 64, 58
1, 318286, Control_c, 0, 64, 59
1, 318298, Note_off_c, 0, 91, 66
1, 318301, Control_c, 0, 64, 60
1, 318320, Note_off_c, 0, 66, 62
1, 318330, Control_c, 0, 64, 61
1, 318333, Note_on_c, 0, 83, 75
1, 318345, Control_c, 0, 64, 62
1, 318357, Note_on_c, 0, 71, 50
1, 318360, Control_c, 0, 64, 63
1, 318375, Control_c, 0, 64, 63
1, 318381, Note_off_c, 0, 83, 60
1, 318390, Control_c, 0, 64, 64
1, 318405, Note_off_c, 0, 71, 58
1, 318420, Control_c, 0, 64, 64
1, 318425, Note_on_c, 0, 91, 69
1, 318435, Control_c, 0, 67, 49
1, 318443, Note_on_c, 0, 75, 52
1, 318449, Control_c, 0, 67, 57
1, 318464, Control_c, 0, 67, 62
1, 318468, Note_off_c, 0, 75, 65
1, 318474, Note_off_c, 0, 91, 55
1, 318479, Control_c, 0, 67, 65
1, 318493, Control_c, 0, 67, 67
1, 318505, Note_on_c, 0, 83, 71
1, 318508, Control_c, 0, 67, 68
1, 318553, Control_c, 0, 67, 67
1, 318561, Note_off_c, 0, 83, 64
1, 318567, Control_c, 0, 67, 66
1, 318582, Control_c, 0, 67, 66
1, 318584, Note_on_c, 0, 79, 75
1, 318597, Control_c, 0, 67, 65
1, 318612, Control_c, 0, 67, 64
1, 318627, Control_c, 0, 67, 64
1, 318630, Note_off_c, 0, 79, 61
1, 318641, Control_c, 0, 64, 64
1, 318641, Control_c, 0, 67, 63
1, 318656, Control_c, 0, 64, 60
1, 318671, Control_c, 0, 64, 54
1, 318677, Note_on_c, 0, 82, 72
1, 318686, Control_c, 0, 64, 47
1, 318697, Note_on_c, 0, 60, 53
1, 318697, Note_off_c, 0, 82, 69
1, 318700, Control_c, 0, 64, 38
1, 318712, Note_on_c, 0, 81, 74
1, 318715, Control_c, 0, 64, 0
1, 318730, Note_off_c, 0, 60, 63
1, 318730, Control_c, 0, 67, 64
1, 318763, Note_off_c, 0, 81, 58
1, 318763, Note_on_c, 0, 82, 70
1, 318766, Note_on_c, 0, 67, 53
1, 318804, Control_c, 0, 67, 64
1, 318819, Control_c, 0, 64, 30
1, 318823, Note_off_c, 0, 67, 54
1, 318834, Control_c, 0, 64, 42
1, 318834, Control_c, 0, 67, 65
1, 318849, Control_c, 0, 64, 54
1, 318864, Control_c, 0, 64, 62
1, 318882, Note_on_c, 0, 72, 40
1, 318886, Control_c, 0, 64, 64
1, 318886, Control_c, 0, 67, 66
1, 318900, Control_c, 0, 64, 64
1, 318915, Control_c, 0, 64, 65
1, 318930, Control_c, 0, 64, 65
1, 318930, Control_c, 0, 67, 67
1, 318945, Control_c, 0, 64, 66
1, 318945, Control_c, 0, 67, 68
1, 318953, Note_off_c, 0, 72, 36
1, 318960, Control_c, 0, 64, 67
1, 318960, Control_c, 0, 67, 70
1, 318965, Note_off_c, 0, 82, 61
1, 318974, Control_c, 0, 64, 67
1, 318974, Control_c, 0, 67, 71
1, 318989, Control_c, 0, 67, 73
1, 318991, Note_on_c, 0, 79, 53
1, 319000, Note_on_c, 0, 76, 44
1, 319005, Control_c, 0, 64, 68
1, 319005, Control_c, 0, 67, 81
1, 319020, Control_c, 0, 67, 109
1, 319028, Note_off_c, 0, 76, 55
1, 319034, Note_off_c, 0, 79, 63
1, 319035, Control_c, 0, 67, 127
1, 319094, Note_on_c, 0, 90, 65
1, 319139, Note_off_c, 0, 90, 57
1, 319183, Control_c, 0, 64, 67
1, 319189, Note_on_c, 0, 94, 67
1, 319198, Control_c, 0, 64, 64
1, 319213, Control_c, 0, 64, 55
1, 319228, Control_c, 0, 64, 42
1, 319243, Control_c, 0, 64, 29
1, 319247, Note_off_c, 0, 94, 64
1, 319257, Control_c, 0, 64, 0
1, 319263, Note_on_c, 0, 60, 48
1, 319271, Note_on_c, 0, 90, 60
1, 319272, Control_c, 0, 64, 29
1, 319287, Control_c, 0, 64, 38
1, 319302, Control_c, 0, 64, 48
1, 319307, Note_off_c, 0, 90, 63
1, 319309, Note_off_c, 0, 60, 63
1, 319316, Control_c, 0, 64, 57
1, 319331, Control_c, 0, 64, 61
1, 319346, Control_c, 0, 64, 63
1, 319361, Note_on_c, 0, 78, 58
1, 319361, Control_c, 0, 64, 63
1, 319374, Note_on_c, 0, 65, 34
1, 319376, Control_c, 0, 64, 64
1, 319405, Control_c, 0, 64, 64
1, 319412, Note_off_c, 0, 78, 48
1, 319443, Note_off_c, 0, 65, 46
1, 319449, Control_c, 0, 64, 65
1, 319451, Note_on_c, 0, 70, 55
1, 319464, Note_on_c, 0, 82, 56
1, 319489, Note_off_c, 0, 70, 61
1, 319515, Note_off_c, 0, 82, 59
1, 319556, Note_on_c, 0, 73, 58
1, 319579, Note_off_c, 0, 73, 57
1, 319645, Note_on_c, 0, 82, 61
1, 319709, Control_c, 0, 64, 64
1, 319722, Note_off_c, 0, 82, 55
1, 319723, Control_c, 0, 64, 63
1, 319730, Note_on_c, 0, 90, 71
1, 319738, Control_c, 0, 64, 58
1, 319753, Control_c, 0, 64, 49
1, 319768, Control_c, 0, 64, 41
1, 319783, Control_c, 0, 64, 30
1, 319799, Control_c, 0, 64, 0
1, 319804, Note_off_c, 0, 90, 60
1, 319813, Control_c, 0, 64, 30
1, 319821, Note_on_c, 0, 94, 79
1, 319823, Note_on_c, 0, 60, 50
1, 319827, Control_c, 0, 64, 36
1, 319842, Control_c, 0, 64, 44
1, 319857, Control_c, 0, 64, 50
1, 319872, Control_c, 0, 64, 55
1, 319875, Note_off_c, 0, 60, 61
1, 319886, Control_c, 0, 64, 57
1, 319901, Control_c, 0, 64, 58
1, 319914, Note_on_c, 0, 65, 42
1, 319915, Note_on_c, 0, 90, 78
1, 319916, Note_off_c, 0, 94, 63
1, 319916, Control_c, 0, 64, 58
1, 319976, Control_c, 0, 64, 58
1, 319976, Note_off_c, 0, 90, 64
1, 319988, Note_off_c, 0, 65, 62
1, 319991, Control_c, 0, 64, 56
1, 320002, Note_on_c, 0, 70, 59
1, 320003, Note_on_c, 0, 82, 72
1, 320006, Control_c, 0, 64, 52
1, 320020, Control_c, 0, 64, 47
1, 320035, Control_c, 0, 64, 43
1, 320050, Control_c, 0, 64, 40
1, 320050, Note_off_c, 0, 70, 61
1, 320064, Note_off_c, 0, 82, 59
1, 320065, Control_c, 0, 64, 40
1, 320079, Control_c, 0, 64, 43
1, 320091, Note_on_c, 0, 90, 76
1, 320094, Control_c, 0, 64, 50
1, 320105, Note_on_c, 0, 73, 50
1, 320109, Control_c, 0, 64, 59
1, 320124, Control_c, 0, 64, 63
1, 320126, Note_off_c, 0, 73, 60
1, 320139, Control_c, 0, 64, 65
1, 320153, Control_c, 0, 64, 67
1, 320167, Note_off_c, 0, 90, 63
1, 320168, Control_c, 0, 64, 68
1, 320176, Note_on_c, 0, 82, 81
1, 320183, Control_c, 0, 64, 69
1, 320198, Control_c, 0, 64, 71
1, 320198, Control_c, 0, 67, 121
1, 320213, Control_c, 0, 64, 73
1, 320213, Control_c, 0, 67, 71
1, 320227, Control_c, 0, 64, 74
1, 320227, Control_c, 0, 67, 0
1, 320238, Note_off_c, 0, 82, 60
1, 320242, Control_c, 0, 64, 76
1, 320257, Control_c, 0, 64, 77
1, 320259, Note_on_c, 0, 78, 85
1, 320271, Control_c, 0, 64, 77
1, 320298, Note_off_c, 0, 78, 62
1, 320316, Control_c, 0, 64, 77
1, 320331, Control_c, 0, 64, 75
1, 320345, Control_c, 0, 64, 68
1, 320351, Note_on_c, 0, 81, 86
1, 320354, Note_on_c, 0, 61, 69
1, 320368, Control_c, 0, 64, 58
1, 320383, Control_c, 0, 64, 42
1, 320393, Note_off_c, 0, 81, 67
1, 320397, Control_c, 0, 64, 0
1, 320426, Note_off_c, 0, 61, 61
1, 320446, Note_on_c, 0, 81, 75
1, 320450, Note_on_c, 0, 66, 65
1, 320509, Note_off_c, 0, 81, 62
1, 320518, Note_off_c, 0, 66, 61
1, 320540, Note_on_c, 0, 77, 81
1, 320541, Note_on_c, 0, 69, 65
1, 320593, Note_off_c, 0, 69, 61
1, 320595, Note_off_c, 0, 77, 63
1, 320626, Note_on_c, 0, 72, 61
1, 320632, Note_on_c, 0, 88, 76
1, 320647, Note_off_c, 0, 72, 64
1, 320664, Note_off_c, 0, 88, 56
1, 320724, Control_c, 0, 67, 42
1, 320736, Note_on_c, 0, 86, 66
1, 320739, Control_c, 0, 67, 56
1, 320754, Control_c, 0, 67, 70
1, 320763, Note_off_c, 0, 86, 68
1, 320769, Control_c, 0, 67, 81
1, 320784, Control_c, 0, 67, 93
1, 320799, Control_c, 0, 67, 110
1, 320814, Control_c, 0, 67, 127
1, 320823, Note_on_c, 0, 84, 66
1, 320850, Note_off_c, 0, 84, 65
1, 320917, Note_on_c, 0, 83, 65
1, 320932, Control_c, 0, 64, 42
1, 320933, Note_on_c, 0, 67, 41
1, 320947, Control_c, 0, 64, 52
1, 320962, Control_c, 0, 64, 58
1, 320970, Note_off_c, 0, 67, 54
1, 320976, Control_c, 0, 64, 60
1, 320991, Control_c, 0, 64, 61
1, 321004, Note_on_c, 0, 78, 51
1, 321006, Control_c, 0, 64, 62
1, 321011, Note_on_c, 0, 73, 48
1, 321020, Control_c, 0, 64, 62
1, 321035, Control_c, 0, 64, 63
1, 321050, Control_c, 0, 64, 64
1, 321057, Note_off_c, 0, 73, 59
1, 321065, Control_c, 0, 64, 65
1, 321089, Note_off_c, 0, 83, 54
1, 321094, Control_c, 0, 64, 65
1, 321095, Note_on_c, 0, 87, 51
1, 321138, Note_on_c, 0, 71, 30
1, 321174, Note_off_c, 0, 71, 54
1, 321174, Note_off_c, 0, 87, 60
1, 321176, Control_c, 0, 64, 65
1, 321191, Control_c, 0, 64, 62
1, 321205, Note_on_c, 0, 77, 57
1, 321206, Control_c, 0, 64, 54
1, 321213, Note_on_c, 0, 82, 56
1, 321220, Control_c, 0, 64, 41
1, 321225, Note_off_c, 0, 77, 64
1, 321229, Note_off_c, 0, 78, 53
1, 321235, Control_c, 0, 64, 0
1, 321264, Note_off_c, 0, 82, 54
1, 321302, Note_on_c, 0, 86, 61
1, 321347, Note_off_c, 0, 86, 62
1, 321385, Note_on_c, 0, 84, 70
1, 321439, Note_off_c, 0, 84, 63
1, 321473, Control_c, 0, 64, 39
1, 321475, Note_on_c, 0, 83, 86
1, 321487, Note_on_c, 0, 67, 63
1, 321488, Control_c, 0, 64, 52
1, 321503, Control_c, 0, 64, 60
1, 321517, Control_c, 0, 64, 62
1, 321532, Control_c, 0, 64, 63
1, 321547, Control_c, 0, 64, 64
1, 321562, Control_c, 0, 64, 64
1, 321575, Note_on_c, 0, 78, 59
1, 321577, Control_c, 0, 64, 66
1, 321586, Note_off_c, 0, 67, 56
1, 321592, Control_c, 0, 64, 67
1, 321597, Note_on_c, 0, 73, 45
1, 321606, Control_c, 0, 64, 68
1, 321621, Control_c, 0, 64, 69
1, 321636, Note_off_c, 0, 73, 62
1, 321667, Note_on_c, 0, 87, 58
1, 321673, Note_on_c, 0, 71, 46
1, 321675, Note_off_c, 0, 83, 59
1, 321681, Control_c, 0, 64, 68
1, 321696, Control_c, 0, 64, 65
1, 321711, Control_c, 0, 64, 58
1, 321725, Control_c, 0, 64, 48
1, 321727, Note_off_c, 0, 71, 60
1, 321735, Note_off_c, 0, 87, 62
1, 321740, Control_c, 0, 64, 44
1, 321755, Control_c, 0, 64, 44
1, 321759, Note_on_c, 0, 77, 67
1, 321760, Note_on_c, 0, 82, 74
1, 321770, Control_c, 0, 64, 48
1, 321784, Note_off_c, 0, 77, 70
1, 321785, Control_c, 0, 64, 55
1, 321788, Note_off_c, 0, 78, 57
1, 321799, Control_c, 0, 64, 58
1, 321814, Control_c, 0, 64, 60
1, 321829, Control_c, 0, 64, 61
1, 321835, Note_off_c, 0, 82, 57
1, 321843, Control_c, 0, 64, 62
1, 321858, Control_c, 0, 64, 62
1, 321860, Note_on_c, 0, 86, 66
1, 321925, Control_c, 0, 64, 61
1, 321937, Note_off_c, 0, 86, 62
1, 321940, Control_c, 0, 64, 55
1, 321954, Note_on_c, 0, 84, 67
1, 321955, Control_c, 0, 64, 44
1, 321970, Control_c, 0, 64, 0
1, 322023, Note_off_c, 0, 84, 61
1, 322029, Control_c, 0, 64, 39
1, 322035, Note_on_c, 0, 83, 85
1, 322036, Note_on_c, 0, 67, 64
1, 322043, Control_c, 0, 64, 51
1, 322058, Control_c, 0, 64, 60
1, 322073, Control_c, 0, 64, 64
1, 322088, Control_c, 0, 64, 65
1, 322103, Control_c, 0, 64, 66
1, 322117, Control_c, 0, 64, 67
1, 322132, Control_c, 0, 64, 68
1, 322142, Note_on_c, 0, 78, 70
1, 322147, Control_c, 0, 64, 70
1, 322148, Note_off_c, 0, 67, 61
1, 322159, Note_on_c, 0, 73, 38
1, 322162, Control_c, 0, 64, 72
1, 322174, Note_off_c, 0, 83, 56
1, 322176, Control_c, 0, 64, 73
1, 322193, Control_c, 0, 64, 74
1, 322197, Note_off_c, 0, 73, 50
1, 322209, Note_off_c, 0, 78, 57
1, 322237, Control_c, 0, 64, 74
1, 322245, Note_on_c, 0, 87, 66
1, 322252, Control_c, 0, 64, 72
1, 322253, Note_on_c, 0, 71, 43
1, 322266, Control_c, 0, 64, 67
1, 322281, Control_c, 0, 64, 61
1, 322283, Note_off_c, 0, 71, 52
1, 322296, Control_c, 0, 64, 56
1, 322319, Note_on_c, 0, 82, 84
1, 322326, Control_c, 0, 64, 58
1, 322331, Note_on_c, 0, 77, 59
1, 322340, Control_c, 0, 64, 61
1, 322355, Control_c, 0, 64, 64
1, 322369, Note_off_c, 0, 87, 55
1, 322370, Control_c, 0, 64, 67
1, 322372, Note_off_c, 0, 77, 62
1, 322385, Control_c, 0, 64, 68
1, 322400, Control_c, 0, 64, 70
1, 322402, Note_off_c, 0, 82, 60
1, 322414, Control_c, 0, 64, 72
1, 322416, Note_on_c, 0, 91, 67
1, 322423, Note_on_c, 0, 75, 60
1, 322429, Control_c, 0, 64, 74
1, 322444, Control_c, 0, 64, 75
1, 322459, Control_c, 0, 64, 75
1, 322469, Note_off_c, 0, 75, 54
1, 322477, Note_off_c, 0, 91, 65
1, 322489, Control_c, 0, 64, 75
1, 322504, Control_c, 0, 64, 72
1, 322511, Note_on_c, 0, 86, 80
1, 322519, Control_c, 0, 64, 62
1, 322521, Note_on_c, 0, 81, 76
1, 322533, Control_c, 0, 64, 34
1, 322548, Control_c, 0, 64, 0
1, 322558, Note_off_c, 0, 81, 64
1, 322563, Note_off_c, 0, 86, 64
1, 322607, Note_on_c, 0, 95, 74
1, 322608, Control_c, 0, 64, 45
1, 322629, Control_c, 0, 64, 58
1, 322632, Note_on_c, 0, 79, 50
1, 322644, Control_c, 0, 64, 64
1, 322659, Control_c, 0, 64, 65
1, 322674, Control_c, 0, 64, 65
1, 322683, Note_off_c, 0, 95, 59
1, 322683, Note_off_c, 0, 79, 59
1, 322688, Control_c, 0, 64, 66
1, 322703, Control_c, 0, 64, 66
1, 322704, Note_on_c, 0, 91, 65
1, 322718, Control_c, 0, 64, 67
1, 322733, Control_c, 0, 64, 67
1, 322748, Control_c, 0, 64, 68
1, 322761, Note_off_c, 0, 91, 52
1, 322763, Control_c, 0, 64, 68
1, 322785, Note_on_c, 0, 86, 75
1, 322792, Control_c, 0, 64, 69
1, 322805, Note_off_c, 0, 86, 72
1, 322836, Control_c, 0, 64, 69
1, 322880, Control_c, 0, 64, 69
1, 322884, Note_on_c, 0, 79, 71
1, 322895, Control_c, 0, 64, 65
1, 322905, Note_off_c, 0, 79, 71
1, 322910, Control_c, 0, 64, 54
1, 322925, Control_c, 0, 64, 33
1, 322939, Control_c, 0, 64, 0
1, 322972, Note_on_c, 0, 74, 60
1, 323009, Note_off_c, 0, 74, 63
1, 323056, Note_on_c, 0, 72, 69
1, 323101, Note_off_c, 0, 72, 64
1, 323155, Note_on_c, 0, 71, 73
1, 323165, Note_on_c, 0, 55, 52
1, 323192, Control_c, 0, 64, 38
1, 323207, Control_c, 0, 64, 47
1, 323222, Control_c, 0, 64, 54
1, 323228, Note_off_c, 0, 55, 54
1, 323237, Control_c, 0, 64, 58
1, 323252, Control_c, 0, 64, 61
1, 323258, Note_on_c, 0, 66, 50
1, 323262, Note_on_c, 0, 61, 37
1, 323267, Control_c, 0, 64, 62
1, 323281, Control_c, 0, 64, 63
1, 323296, Control_c, 0, 64, 64
1, 323297, Note_off_c, 0, 61, 56
1, 323311, Control_c, 0, 64, 65
1, 323326, Control_c, 0, 64, 66
1, 323337, Note_off_c, 0, 71, 58
1, 323344, Note_on_c, 0, 59, 45
1, 323350, Note_on_c, 0, 75, 58
1, 323392, Control_c, 0, 64, 63
1, 323407, Control_c, 0, 64, 57
1, 323410, Note_off_c, 0, 59, 62
1, 323422, Control_c, 0, 64, 47
1, 323433, Note_on_c, 0, 65, 61
1, 323434, Note_off_c, 0, 75, 61
1, 323437, Control_c, 0, 64, 38
1, 323440, Note_on_c, 0, 70, 72
1, 323452, Control_c, 0, 64, 32
1, 323462, Note_off_c, 0, 65, 66
1, 323481, Control_c, 0, 64, 32
1, 323484, Note_off_c, 0, 66, 61
1, 323496, Control_c, 0, 64, 33
1, 323520, Note_off_c, 0, 70, 58
1, 323526, Control_c, 0, 64, 33
1, 323541, Note_on_c, 0, 74, 68
1, 323556, Control_c, 0, 64, 34
1, 323571, Control_c, 0, 64, 35
1, 323586, Control_c, 0, 64, 37
1, 323603, Note_off_c, 0, 74, 62
1, 323615, Control_c, 0, 64, 36
1, 323628, Note_on_c, 0, 72, 70
1, 323630, Control_c, 0, 64, 0
1, 323677, Note_off_c, 0, 72, 64
1, 323712, Note_on_c, 0, 71, 84
1, 323722, Note_on_c, 0, 55, 60
1, 323734, Control_c, 0, 64, 37
1, 323749, Control_c, 0, 64, 49
1, 323763, Control_c, 0, 64, 58
1, 323778, Control_c, 0, 64, 61
1, 323794, Control_c, 0, 64, 63
1, 323809, Control_c, 0, 64, 64
1, 323812, Note_on_c, 0, 66, 59
1, 323824, Control_c, 0, 64, 65
1, 323834, Note_on_c, 0, 61, 52
1, 323838, Control_c, 0, 64, 66
1, 323853, Control_c, 0, 64, 67
1, 323868, Control_c, 0, 64, 68
1, 323881, Note_off_c, 0, 55, 36
1, 323883, Control_c, 0, 64, 68
1, 323900, Note_off_c, 0, 61, 55
1, 323903, Note_off_c, 0, 71, 58
1, 323911, Note_on_c, 0, 75, 63
1, 323918, Note_on_c, 0, 59, 54
1, 323927, Control_c, 0, 64, 67
1, 323942, Control_c, 0, 64, 63
1, 323957, Control_c, 0, 64, 54
1, 323968, Note_off_c, 0, 59, 62
1, 323972, Control_c, 0, 64, 37
1, 323979, Note_off_c, 0, 75, 60
1, 323986, Control_c, 0, 64, 0
1, 324000, Note_on_c, 0, 65, 60
1, 324007, Note_off_c, 0, 66, 58
1, 324010, Note_on_c, 0, 70, 63
1, 324028, Note_off_c, 0, 65, 64
1, 324048, Note_off_c, 0, 70, 58
1, 324093, Note_on_c, 0, 74, 72
1, 324160, Note_off_c, 0, 74, 61
1, 324196, Note_on_c, 0, 72, 64
1, 324237, Note_off_c, 0, 72, 63
1, 324273, Note_on_c, 0, 71, 83
1, 324290, Control_c, 0, 64, 37
1, 324291, Note_on_c, 0, 55, 56
1, 324305, Control_c, 0, 64, 49
1, 324319, Control_c, 0, 64, 55
1, 324334, Control_c, 0, 64, 59
1, 324349, Control_c, 0, 64, 60
1, 324364, Control_c, 0, 64, 62
1, 324379, Control_c, 0, 64, 64
1, 324384, Note_on_c, 0, 66, 71
1, 324388, Note_off_c, 0, 71, 58
1, 324391, Note_off_c, 0, 55, 59
1, 324394, Control_c, 0, 64, 65
1, 324408, Note_on_c, 0, 61, 34
1, 324408, Control_c, 0, 64, 66
1, 324423, Control_c, 0, 64, 67
1, 324438, Control_c, 0, 64, 68
1, 324447, Note_off_c, 0, 66, 63
1, 324453, Control_c, 0, 64, 68
1, 324455, Note_off_c, 0, 61, 58
1, 324468, Note_on_c, 0, 75, 67
1, 324480, Note_on_c, 0, 59, 43
1, 324498, Control_c, 0, 64, 68
1, 324507, Note_off_c, 0, 59, 55
1, 324512, Control_c, 0, 64, 65
1, 324516, Note_off_c, 0, 75, 55
1, 324527, Control_c, 0, 64, 56
1, 324542, Control_c, 0, 64, 39
1, 324544, Note_on_c, 0, 65, 60
1, 324550, Note_on_c, 0, 70, 78
1, 324557, Control_c, 0, 64, 0
1, 324578, Note_off_c, 0, 65, 61
1, 324585, Note_off_c, 0, 70, 66
1, 324639, Note_on_c, 0, 79, 64
1, 324645, Note_on_c, 0, 63, 61
1, 324686, Note_off_c, 0, 79, 61
1, 324712, Note_off_c, 0, 63, 63
1, 324741, Note_on_c, 0, 74, 85
1, 324760, Note_on_c, 0, 69, 56
1, 324775, Note_off_c, 0, 74, 65
1, 324782, Note_off_c, 0, 69, 61
1, 324809, Control_c, 0, 64, 35
1, 324824, Control_c, 0, 64, 50
1, 324832, Note_on_c, 0, 83, 90
1, 324835, Note_on_c, 0, 67, 67
1, 324839, Control_c, 0, 64, 57
1, 324854, Control_c, 0, 64, 59
1, 324876, Control_c, 0, 64, 60
1, 324891, Control_c, 0, 64, 62
1, 324892, Note_off_c, 0, 83, 65
1, 324906, Control_c, 0, 64, 63
1, 324921, Control_c, 0, 64, 64
1, 324936, Control_c, 0, 64, 65
1, 324943, Note_on_c, 0, 73, 54
1, 324944, Note_on_c, 0, 78, 74
1, 324950, Control_c, 0, 64, 66
1, 324962, Note_off_c, 0, 67, 61
1, 324965, Control_c, 0, 64, 67
1, 324980, Control_c, 0, 64, 68
1, 324987, Note_off_c, 0, 78, 56
1, 324994, Control_c, 0, 64, 69
1, 325000, Note_off_c, 0, 73, 51
1, 325009, Control_c, 0, 64, 69
1, 325017, Note_on_c, 0, 87, 74
1, 325024, Control_c, 0, 64, 70
1, 325029, Note_on_c, 0, 71, 53
1, 325039, Control_c, 0, 64, 70
1, 325054, Control_c, 0, 64, 71
1, 325058, Note_off_c, 0, 71, 58
1, 325068, Control_c, 0, 64, 72
1, 325083, Control_c, 0, 64, 72
1, 325098, Control_c, 0, 64, 73
1, 325099, Note_off_c, 0, 87, 55
1, 325100, Note_on_c, 0, 77, 69
1, 325107, Note_on_c, 0, 82, 80
1, 325113, Control_c, 0, 64, 73
1, 325142, Control_c, 0, 64, 74
1, 325145, Note_off_c, 0, 77, 57
1, 325157, Note_off_c, 0, 82, 64
1, 325172, Control_c, 0, 64, 74
1, 325186, Note_on_c, 0, 91, 79
1, 325186, Control_c, 0, 64, 75
1, 325198, Note_on_c, 0, 75, 73
1, 325201, Control_c, 0, 64, 75
1, 325216, Control_c, 0, 64, 76
1, 325245, Note_off_c, 0, 91, 65
1, 325246, Control_c, 0, 64, 76
1, 325246, Control_c, 0, 67, 118
1, 325257, Note_off_c, 0, 75, 64
1, 325261, Control_c, 0, 67, 101
1, 325276, Control_c, 0, 64, 77
1, 325276, Control_c, 0, 67, 86
1, 325276, Note_on_c, 0, 88, 74
1, 325287, Note_on_c, 0, 81, 72
1, 325289, Note_on_c, 0, 86, 67
1, 325291, Control_c, 0, 67, 71
1, 325306, Control_c, 0, 67, 61
1, 325307, Note_off_c, 0, 86, 65
1, 325309, Note_off_c, 0, 81, 71
1, 325313, Note_off_c, 0, 88, 66
1, 325321, Control_c, 0, 64, 77
1, 325321, Control_c, 0, 67, 50
1, 325335, Control_c, 0, 67, 39
1, 325350, Control_c, 0, 64, 78
1, 325350, Control_c, 0, 67, 0
1, 325367, Note_on_c, 0, 95, 96
1, 325368, Note_on_c, 0, 79, 68
1, 325395, Control_c, 0, 64, 78
1, 325417, Note_off_c, 0, 95, 68
1, 325425, Control_c, 0, 64, 79
1, 325440, Control_c, 0, 64, 79
1, 325455, Control_c, 0, 64, 81
1, 325456, Note_on_c, 0, 90, 90
1, 325467, Note_on_c, 0, 85, 65
1, 325468, Note_off_c, 0, 79, 58
1, 325470, Control_c, 0, 64, 82
1, 325484, Control_c, 0, 64, 83
1, 325499, Control_c, 0, 64, 84
1, 325514, Control_c, 0, 64, 86
1, 325526, Note_off_c, 0, 90, 65
1, 325529, Control_c, 0, 64, 86
1, 325532, Note_off_c, 0, 85, 63
1, 325539, Note_on_c, 0, 83, 67
1, 325539, Note_on_c, 0, 99, 96
1, 325544, Control_c, 0, 64, 87
1, 325558, Control_c, 0, 64, 88
1, 325573, Control_c, 0, 64, 88
1, 325595, Note_off_c, 0, 83, 64
1, 325636, Note_on_c, 0, 89, 80
1, 325640, Control_c, 0, 64, 89
1, 325641, Note_on_c, 0, 94, 97
1, 325658, Note_off_c, 0, 99, 63
1, 325690, Note_off_c, 0, 89, 63
1, 325693, Note_off_c, 0, 94, 67
1, 325728, Note_on_c, 0, 87, 76
1, 325730, Note_on_c, 0, 103, 82
1, 325732, Note_on_c, 0, 105, 87
1, 325762, Note_off_c, 0, 105, 65
1, 325795, Note_off_c, 0, 87, 65
1, 325795, Note_off_c, 0, 103, 62
1, 325807, Note_on_c, 0, 93, 87
1, 325812, Note_on_c, 0, 98, 96
1, 325817, Control_c, 0, 64, 88
1, 325832, Control_c, 0, 64, 79
1, 325847, Control_c, 0, 64, 61
1, 325853, Note_off_c, 0, 93, 63
1, 325862, Control_c, 0, 64, 0
1, 325878, Note_off_c, 0, 98, 66
1, 325889, Note_on_c, 0, 91, 94
1, 325903, Note_on_c, 0, 107, 96
1, 325916, Note_off_c, 0, 91, 70
1, 325971, Note_off_c, 0, 107, 52
1, 325977, Note_on_c, 0, 98, 87
1, 326048, Note_off_c, 0, 98, 65
1, 326071, Note_on_c, 0, 93, 77
1, 326094, Note_off_c, 0, 93, 69
1, 326158, Note_on_c, 0, 85, 78
1, 326177, Note_off_c, 0, 85, 72
1, 326258, Note_on_c, 0, 95, 63
1, 326290, Note_off_c, 0, 95, 48
1, 326301, Note_on_c, 0, 93, 35
1, 326343, Note_off_c, 0, 93, 41
1, 326373, Note_on_c, 0, 86, 34
1, 326382, Note_on_c, 0, 84, 37
1, 326397, Note_off_c, 0, 86, 49
1, 326415, Note_off_c, 0, 84, 33
1, 326429, Note_on_c, 0, 79, 67
1, 326450, Note_off_c, 0, 79, 71
1, 326511, Note_on_c, 0, 73, 64
1, 326538, Note_off_c, 0, 73, 65
1, 326602, Note_on_c, 0, 83, 70
1, 326647, Note_off_c, 0, 83, 60
1, 326686, Note_on_c, 0, 74, 69
1, 326726, Note_off_c, 0, 74, 57
1, 326777, Note_on_c, 0, 67, 54
1, 326799, Note_off_c, 0, 67, 61
1, 326855, Note_on_c, 0, 61, 59
1, 326877, Note_off_c, 0, 61, 62
1, 326957, Note_on_c, 0, 71, 57
1, 327000, Note_off_c, 0, 71, 61
1, 327033, Note_on_c, 0, 62, 62
1, 327066, Note_off_c, 0, 62, 64
1, 327136, Note_on_c, 0, 55, 71
1, 327165, Note_off_c, 0, 55, 65
1, 327335, Note_on_c, 0, 55, 89
1, 327372, Note_off_c, 0, 55, 66
1, 327424, Note_on_c, 0, 53, 89
1, 327467, Note_off_c, 0, 53, 65
1, 327519, Note_on_c, 0, 52, 99
1, 327581, Control_c, 0, 64, 37
1, 327596, Control_c, 0, 64, 59
1, 327607, Note_on_c, 0, 65, 81
1, 327611, Control_c, 0, 64, 64
1, 327626, Control_c, 0, 64, 65
1, 327641, Control_c, 0, 64, 66
1, 327644, Note_off_c, 0, 52, 63
1, 327655, Control_c, 0, 64, 68
1, 327670, Control_c, 0, 64, 70
1, 327685, Control_c, 0, 64, 72
1, 327690, Note_off_c, 0, 65, 62
1, 327697, Note_on_c, 0, 66, 79
1, 327700, Control_c, 0, 64, 73
1, 327706, Note_on_c, 0, 68, 79
1, 327715, Control_c, 0, 64, 74
1, 327727, Note_off_c, 0, 66, 61
1, 327729, Control_c, 0, 64, 74
1, 327775, Control_c, 0, 64, 72
1, 327781, Note_on_c, 0, 69, 89
1, 327783, Note_on_c, 0, 39, 87
1, 327790, Note_off_c, 0, 68, 62
1, 327790, Control_c, 0, 64, 62
1, 327804, Control_c, 0, 64, 29
1, 327819, Control_c, 0, 64, 0
1, 327869, Note_off_c, 0, 39, 61
1, 327878, Note_off_c, 0, 69, 41
1, 327879, Note_on_c, 0, 43, 84
1, 327881, Note_on_c, 0, 70, 79
1, 327882, Note_on_c, 0, 72, 74
1, 327904, Note_off_c, 0, 72, 68
1, 327916, Note_off_c, 0, 70, 64
1, 327938, Note_off_c, 0, 43, 64
1, 327970, Note_on_c, 0, 41, 90
1, 328027, Note_off_c, 0, 41, 65
1, 328077, Note_on_c, 0, 40, 98
1, 328167, Control_c, 0, 64, 52
1, 328179, Note_on_c, 0, 65, 76
1, 328182, Control_c, 0, 64, 63
1, 328197, Control_c, 0, 64, 65
1, 328212, Note_off_c, 0, 40, 63
1, 328212, Control_c, 0, 64, 67
1, 328227, Control_c, 0, 64, 69
1, 328242, Control_c, 0, 64, 72
1, 328251, Note_off_c, 0, 65, 61
1, 328257, Control_c, 0, 64, 74
1, 328268, Note_on_c, 0, 66, 72
1, 328272, Control_c, 0, 64, 74
1, 328275, Note_on_c, 0, 68, 78
1, 328293, Note_off_c, 0, 66, 68
1, 328301, Control_c, 0, 64, 74
1, 328316, Control_c, 0, 64, 69
1, 328331, Control_c, 0, 64, 55
1, 328346, Note_on_c, 0, 51, 83
1, 328346, Control_c, 0, 64, 0
1, 328347, Note_on_c, 0, 69, 86
1, 328347, Note_off_c, 0, 68, 62
1, 328418, Note_off_c, 0, 51, 63
1, 328426, Note_off_c, 0, 69, 61
1, 328431, Note_on_c, 0, 70, 74
1, 328432, Note_on_c, 0, 55, 86
1, 328433, Note_on_c, 0, 72, 68
1, 328460, Note_off_c, 0, 72, 64
1, 328468, Note_off_c, 0, 70, 59
1, 328485, Note_off_c, 0, 55, 61
1, 328516, Note_on_c, 0, 53, 77
1, 328542, Note_off_c, 0, 53, 64
1, 328590, Note_on_c, 0, 52, 89
1, 328632, Note_off_c, 0, 52, 66
1, 328698, Note_on_c, 0, 65, 70
1, 328740, Note_off_c, 0, 65, 60
1, 328769, Note_on_c, 0, 39, 74
1, 328781, Note_on_c, 0, 68, 62
1, 328790, Note_on_c, 0, 66, 38
1, 328796, Note_off_c, 0, 39, 65
1, 328823, Note_off_c, 0, 66, 33
1, 328843, Note_off_c, 0, 68, 59
1, 328855, Note_on_c, 0, 69, 73
1, 328913, Note_off_c, 0, 69, 57
1, 328935, Note_on_c, 0, 50, 70
1, 328944, Note_on_c, 0, 70, 61
1, 328944, Note_on_c, 0, 72, 60
1, 328960, Control_c, 0, 67, 42
1, 328966, Note_off_c, 0, 50, 67
1, 328975, Control_c, 0, 67, 47
1, 328989, Note_off_c, 0, 72, 58
1, 328990, Note_off_c, 0, 70, 56
1, 328990, Control_c, 0, 67, 51
1, 329005, Control_c, 0, 67, 52
1, 329020, Control_c, 0, 67, 53
1, 329025, Note_on_c, 0, 69, 68
1, 329035, Control_c, 0, 67, 53
1, 329050, Control_c, 0, 67, 54
1, 329065, Control_c, 0, 67, 54
1, 329080, Control_c, 0, 67, 55
1, 329094, Note_off_c, 0, 69, 55
1, 329094, Control_c, 0, 67, 56
1, 329105, Note_on_c, 0, 37, 64
1, 329109, Control_c, 0, 67, 57
1, 329111, Note_on_c, 0, 72, 61
1, 329121, Note_on_c, 0, 70, 55
1, 329124, Control_c, 0, 67, 60
1, 329135, Note_off_c, 0, 37, 63
1, 329139, Control_c, 0, 67, 75
1, 329153, Control_c, 0, 67, 92
1, 329168, Control_c, 0, 67, 103
1, 329179, Note_off_c, 0, 72, 55
1, 329183, Control_c, 0, 67, 111
1, 329184, Note_off_c, 0, 70, 41
1, 329198, Control_c, 0, 67, 119
1, 329205, Note_on_c, 0, 69, 67
1, 329213, Control_c, 0, 67, 127
1, 329276, Note_off_c, 0, 69, 55
1, 329297, Note_on_c, 0, 48, 64
1, 329310, Note_on_c, 0, 70, 55
1, 329312, Note_on_c, 0, 72, 51
1, 329329, Note_off_c, 0, 48, 65
1, 329331, Control_c, 0, 64, 29
1, 329346, Control_c, 0, 64, 32
1, 329368, Control_c, 0, 64, 35
1, 329384, Control_c, 0, 64, 39
1, 329393, Note_off_c, 0, 70, 39
1, 329399, Control_c, 0, 64, 41
1, 329400, Note_off_c, 0, 72, 53
1, 329407, Note_on_c, 0, 69, 59
1, 329529, Note_on_c, 0, 35, 56
1, 329532, Control_c, 0, 64, 40
1, 329541, Note_off_c, 0, 69, 55
1, 329547, Note_on_c, 0, 71, 52
1, 329548, Note_on_c, 0, 70, 45
1, 329562, Control_c, 0, 64, 40
1, 329583, Note_off_c, 0, 35, 60
1, 329592, Control_c, 0, 64, 39
1, 329656, Note_off_c, 0, 71, 55
1, 329689, Note_off_c, 0, 70, 55
1, 329711, Note_on_c, 0, 69, 44
1, 329740, Control_c, 0, 64, 40
1, 329755, Control_c, 0, 64, 41
1, 329770, Control_c, 0, 64, 42
1, 329784, Control_c, 0, 64, 43
1, 329799, Control_c, 0, 64, 43
1, 329814, Control_c, 0, 64, 39
1, 329829, Control_c, 0, 64, 32
1, 329835, Note_off_c, 0, 69, 59
1, 329844, Control_c, 0, 64, 0
1, 329877, Note_on_c, 0, 34, 41
1, 329918, Control_c, 0, 64, 32
1, 329932, Control_c, 0, 64, 42
1, 329947, Control_c, 0, 64, 52
1, 329962, Control_c, 0, 64, 59
1, 329977, Control_c, 0, 64, 61
1, 329992, Control_c, 0, 64, 63
1, 330007, Control_c, 0, 64, 64
1, 330022, Control_c, 0, 64, 65
1, 330033, Note_on_c, 0, 89, 57
1, 330036, Control_c, 0, 64, 67
1, 330041, Note_off_c, 0, 34, 55
1, 330051, Control_c, 0, 64, 68
1, 330066, Control_c, 0, 64, 69
1, 330081, Control_c, 0, 64, 70
1, 330096, Control_c, 0, 64, 72
1, 330118, Control_c, 0, 64, 73
1, 330125, Note_off_c, 0, 89, 46
1, 330132, Control_c, 0, 64, 75
1, 330147, Control_c, 0, 64, 76
1, 330155, Note_on_c, 0, 93, 65
1, 330162, Control_c, 0, 64, 77
1, 330177, Control_c, 0, 64, 77
1, 330207, Control_c, 0, 64, 78
1, 330225, Note_off_c, 0, 93, 60
1, 330245, Note_on_c, 0, 89, 59
1, 330270, Note_off_c, 0, 89, 63
1, 330323, Note_on_c, 0, 77, 68
1, 330346, Note_on_c, 0, 70, 50
1, 330388, Note_off_c, 0, 70, 62
1, 330399, Note_off_c, 0, 77, 52
1, 330415, Note_on_c, 0, 81, 67
1, 330448, Note_off_c, 0, 81, 61
1, 330450, Note_on_c, 0, 74, 43
1, 330477, Note_off_c, 0, 74, 52
1, 330516, Note_on_c, 0, 70, 59
1, 330543, Note_off_c, 0, 70, 66
1, 330604, Note_on_c, 0, 58, 50
1, 330616, Note_on_c, 0, 81, 73
1, 330646, Note_off_c, 0, 58, 58
1, 330689, Note_on_c, 0, 62, 52
1, 330692, Note_off_c, 0, 81, 58
1, 330714, Note_on_c, 0, 89, 71
1, 330764, Note_off_c, 0, 62, 62
1, 330782, Note_off_c, 0, 89, 62
1, 330791, Note_on_c, 0, 93, 76
1, 330886, Note_off_c, 0, 93, 62
1, 330891, Note_on_c, 0, 89, 75
1, 330895, Note_on_c, 0, 62, 58
1, 330946, Note_off_c, 0, 89, 63
1, 330958, Note_off_c, 0, 62, 57
1, 330975, Note_on_c, 0, 70, 68
1, 330976, Note_on_c, 0, 81, 77
1, 331030, Note_off_c, 0, 81, 63
1, 331039, Note_off_c, 0, 70, 63
1, 331053, Note_on_c, 0, 89, 84
1, 331077, Note_on_c, 0, 74, 62
1, 331116, Note_off_c, 0, 74, 59
1, 331141, Note_on_c, 0, 81, 81
1, 331146, Note_off_c, 0, 89, 55
1, 331157, Note_on_c, 0, 70, 63
1, 331193, Control_c, 0, 64, 77
1, 331196, Note_off_c, 0, 70, 62
1, 331207, Note_off_c, 0, 81, 61
1, 331208, Control_c, 0, 64, 73
1, 331223, Control_c, 0, 64, 66
1, 331223, Note_on_c, 0, 77, 81
1, 331237, Control_c, 0, 64, 59
1, 331244, Note_on_c, 0, 62, 59
1, 331252, Control_c, 0, 64, 56
1, 331282, Control_c, 0, 64, 57
1, 331297, Control_c, 0, 64, 59
1, 331311, Control_c, 0, 64, 62
1, 331316, Note_off_c, 0, 62, 58
1, 331319, Note_on_c, 0, 80, 77
1, 331324, Note_off_c, 0, 77, 66
1, 331326, Control_c, 0, 64, 63
1, 331333, Note_on_c, 0, 70, 61
1, 331341, Control_c, 0, 64, 65
1, 331346, Note_off_c, 0, 80, 66
1, 331355, Control_c, 0, 64, 66
1, 331370, Control_c, 0, 64, 67
1, 331373, Note_off_c, 0, 70, 63
1, 331385, Control_c, 0, 64, 68
1, 331415, Control_c, 0, 64, 68
1, 331421, Note_on_c, 0, 89, 76
1, 331431, Note_on_c, 0, 62, 52
1, 331459, Control_c, 0, 64, 68
1, 331474, Control_c, 0, 64, 64
1, 331489, Control_c, 0, 64, 53
1, 331495, Note_off_c, 0, 89, 59
1, 331503, Note_off_c, 0, 62, 60
1, 331503, Control_c, 0, 64, 35
1, 331514, Note_on_c, 0, 92, 75
1, 331518, Control_c, 0, 64, 0
1, 331526, Note_on_c, 0, 58, 63
1, 331578, Control_c, 0, 64, 33
1, 331592, Control_c, 0, 64, 47
1, 331609, Note_off_c, 0, 58, 60
1, 331615, Control_c, 0, 64, 59
1, 331625, Note_off_c, 0, 92, 65
1, 331629, Control_c, 0, 64, 65
1, 331632, Note_on_c, 0, 89, 66
1, 331641, Note_on_c, 0, 61, 54
1, 331644, Control_c, 0, 64, 67
1, 331659, Control_c, 0, 64, 68
1, 331674, Control_c, 0, 64, 70
1, 331689, Control_c, 0, 64, 71
1, 331694, Note_off_c, 0, 89, 63
1, 331701, Note_off_c, 0, 61, 62
1, 331704, Control_c, 0, 64, 72
1, 331718, Control_c, 0, 64, 73
1, 331747, Control_c, 0, 64, 73
1, 331758, Note_on_c, 0, 77, 65
1, 331767, Note_on_c, 0, 70, 48
1, 331794, Control_c, 0, 64, 74
1, 331848, Note_off_c, 0, 77, 63
1, 331849, Note_on_c, 0, 80, 69
1, 331853, Note_off_c, 0, 70, 62
1, 331866, Note_on_c, 0, 73, 64
1, 331893, Note_off_c, 0, 80, 62
1, 331914, Note_off_c, 0, 73, 61
1, 331963, Note_on_c, 0, 70, 68
1, 331989, Note_off_c, 0, 70, 68
1, 332041, Note_on_c, 0, 58, 71
1, 332051, Note_on_c, 0, 80, 69
1, 332123, Note_off_c, 0, 58, 60
1, 332129, Note_off_c, 0, 80, 59
1, 332141, Note_on_c, 0, 89, 71
1, 332147, Note_on_c, 0, 61, 58
1, 332207, Note_off_c, 0, 61, 62
1, 332223, Control_c, 0, 64, 73
1, 332226, Note_on_c, 0, 92, 77
1, 332233, Note_off_c, 0, 89, 62
1, 332312, Note_off_c, 0, 92, 66
1, 332315, Note_on_c, 0, 89, 71
1, 332318, Note_on_c, 0, 61, 63
1, 332397, Note_off_c, 0, 61, 62
1, 332397, Note_off_c, 0, 89, 62
1, 332400, Note_on_c, 0, 80, 75
1, 332412, Note_on_c, 0, 70, 60
1, 332451, Note_off_c, 0, 80, 64
1, 332454, Note_off_c, 0, 70, 62
1, 332482, Control_c, 0, 64, 73
1, 332490, Note_on_c, 0, 73, 70
1, 332493, Note_on_c, 0, 89, 89
1, 332555, Note_off_c, 0, 73, 55
1, 332576, Note_on_c, 0, 70, 67
1, 332584, Note_on_c, 0, 80, 85
1, 332585, Note_off_c, 0, 89, 61
1, 332632, Note_off_c, 0, 70, 58
1, 332645, Control_c, 0, 67, 117
1, 332657, Note_off_c, 0, 80, 62
1, 332660, Note_on_c, 0, 77, 84
1, 332660, Control_c, 0, 67, 59
1, 332669, Note_on_c, 0, 61, 67
1, 332675, Control_c, 0, 67, 0
1, 332709, Note_off_c, 0, 61, 59
1, 332728, Note_off_c, 0, 77, 61
1, 332749, Note_on_c, 0, 70, 75
1, 332754, Note_on_c, 0, 79, 84
1, 332794, Note_off_c, 0, 79, 64
1, 332806, Note_off_c, 0, 70, 64
1, 332841, Note_on_c, 0, 61, 70
1, 332845, Note_on_c, 0, 88, 80
1, 332882, Control_c, 0, 64, 72
1, 332897, Control_c, 0, 64, 71
1, 332911, Note_off_c, 0, 61, 59
1, 332912, Control_c, 0, 64, 67
1, 332926, Note_off_c, 0, 88, 65
1, 332927, Control_c, 0, 64, 59
1, 332931, Note_on_c, 0, 91, 85
1, 332942, Note_on_c, 0, 58, 61
1, 332942, Control_c, 0, 64, 37
1, 332956, Control_c, 0, 64, 0
1, 333002, Note_off_c, 0, 58, 63
1, 333021, Note_on_c, 0, 88, 86
1, 333025, Note_on_c, 0, 60, 75
1, 333035, Note_off_c, 0, 91, 59
1, 333045, Control_c, 0, 64, 42
1, 333060, Control_c, 0, 64, 55
1, 333070, Note_off_c, 0, 88, 66
1, 333072, Note_off_c, 0, 60, 61
1, 333074, Control_c, 0, 64, 62
1, 333089, Control_c, 0, 64, 63
1, 333112, Control_c, 0, 64, 64
1, 333122, Note_on_c, 0, 76, 77
1, 333126, Control_c, 0, 64, 64
1, 333137, Note_on_c, 0, 69, 70
1, 333141, Control_c, 0, 64, 65
1, 333156, Control_c, 0, 64, 65
1, 333186, Control_c, 0, 64, 66
1, 333189, Note_off_c, 0, 76, 60
1, 333200, Control_c, 0, 64, 66
1, 333204, Note_on_c, 0, 79, 72
1, 333207, Note_off_c, 0, 69, 62
1, 333215, Control_c, 0, 64, 67
1, 333230, Control_c, 0, 64, 68
1, 333231, Note_on_c, 0, 72, 73
1, 333245, Note_off_c, 0, 79, 62
1, 333245, Control_c, 0, 64, 69
1, 333260, Control_c, 0, 64, 70
1, 333265, Note_off_c, 0, 72, 59
1, 333274, Control_c, 0, 64, 70
1, 333289, Control_c, 0, 64, 71
1, 333306, Note_on_c, 0, 69, 77
1, 333324, Note_off_c, 0, 69, 73
1, 333333, Control_c, 0, 64, 70
1, 333348, Control_c, 0, 64, 64
1, 333363, Control_c, 0, 64, 50
1, 333376, Note_on_c, 0, 57, 70
1, 333379, Control_c, 0, 64, 36
1, 333394, Control_c, 0, 64, 33
1, 333405, Note_on_c, 0, 79, 73
1, 333409, Control_c, 0, 64, 35
1, 333423, Control_c, 0, 64, 43
1, 333438, Control_c, 0, 64, 54
1, 333453, Control_c, 0, 64, 61
1, 333468, Control_c, 0, 64, 64
1, 333474, Note_off_c, 0, 57, 63
1, 333478, Note_off_c, 0, 79, 60
1, 333483, Control_c, 0, 64, 64
1, 333485, Note_on_c, 0, 60, 60
1, 333487, Note_on_c, 0, 88, 73
1, 333497, Control_c, 0, 67, 48
1, 333512, Control_c, 0, 64, 65
1, 333512, Control_c, 0, 67, 60
1, 333527, Control_c, 0, 67, 73
1, 333542, Control_c, 0, 67, 91
1, 333543, Note_off_c, 0, 60, 62
1, 333557, Control_c, 0, 64, 64
1, 333557, Control_c, 0, 67, 116
1, 333560, Note_off_c, 0, 88, 65
1, 333572, Control_c, 0, 64, 60
1, 333572, Control_c, 0, 67, 127
1, 333574, Note_on_c, 0, 91, 67
1, 333587, Control_c, 0, 64, 55
1, 333602, Control_c, 0, 64, 53
1, 333616, Control_c, 0, 64, 53
1, 333631, Control_c, 0, 64, 55
1, 333646, Note_off_c, 0, 91, 66
1, 333646, Control_c, 0, 64, 59
1, 333655, Note_on_c, 0, 60, 62
1, 333657, Note_on_c, 0, 88, 73
1, 333661, Control_c, 0, 64, 62
1, 333676, Control_c, 0, 64, 63
1, 333691, Control_c, 0, 64, 64
1, 333701, Note_off_c, 0, 88, 63
1, 333705, Control_c, 0, 64, 64
1, 333727, Note_off_c, 0, 60, 61
1, 333739, Note_on_c, 0, 79, 65
1, 333744, Note_on_c, 0, 69, 54
1, 333764, Control_c, 0, 64, 65
1, 333780, Note_off_c, 0, 79, 61
1, 333788, Note_off_c, 0, 69, 62
1, 333816, Note_on_c, 0, 88, 72
1, 333829, Note_on_c, 0, 72, 57
1, 333875, Note_off_c, 0, 72, 58
1, 333884, Note_off_c, 0, 88, 60
1, 333915, Note_on_c, 0, 79, 64
1, 333926, Note_on_c, 0, 69, 37
1, 333956, Note_off_c, 0, 69, 53
1, 333964, Control_c, 0, 64, 64
1, 333967, Note_off_c, 0, 79, 62
1, 333994, Control_c, 0, 64, 64
1, 333995, Note_on_c, 0, 60, 52
1, 334009, Note_on_c, 0, 76, 69
1, 334009, Control_c, 0, 64, 62
1, 334023, Control_c, 0, 64, 58
1, 334034, Note_off_c, 0, 60, 65
1, 334038, Control_c, 0, 64, 50
1, 334043, Note_off_c, 0, 76, 62
1, 334053, Control_c, 0, 64, 41
1, 334068, Control_c, 0, 64, 31
1, 334080, Note_on_c, 0, 69, 53
1, 334083, Control_c, 0, 64, 0
1, 334093, Note_on_c, 0, 78, 65
1, 334150, Note_off_c, 0, 78, 60
1, 334174, Note_on_c, 0, 60, 51
1, 334185, Note_on_c, 0, 75, 62
1, 334238, Note_off_c, 0, 60, 63
1, 334239, Note_off_c, 0, 75, 56
1, 334266, Note_on_c, 0, 57, 55
1, 334269, Note_on_c, 0, 78, 65
1, 334322, Note_off_c, 0, 78, 57
1, 334332, Note_off_c, 0, 57, 62
1, 334353, Note_on_c, 0, 59, 57
1, 334353, Note_on_c, 0, 75, 72
1, 334368, Note_off_c, 0, 69, 56
1, 334374, Note_off_c, 0, 59, 61
1, 334378, Note_off_c, 0, 75, 66
1, 334462, Note_on_c, 0, 87, 50
1, 334492, Note_off_c, 0, 87, 60
1, 334539, Note_on_c, 0, 90, 64
1, 334601, Note_off_c, 0, 90, 60
1, 334630, Note_on_c, 0, 68, 66
1, 334630, Note_on_c, 0, 72, 62
1, 334639, Note_on_c, 0, 87, 61
1, 334649, Note_off_c, 0, 72, 65
1, 334657, Note_off_c, 0, 68, 68
1, 334664, Note_off_c, 0, 87, 70
1, 334721, Note_on_c, 0, 75, 77
1, 334781, Note_off_c, 0, 75, 59
1, 334808, Note_on_c, 0, 78, 77
1, 334861, Note_off_c, 0, 78, 61
1, 334880, Note_on_c, 0, 69, 89
1, 334884, Note_on_c, 0, 59, 73
1, 334894, Note_on_c, 0, 75, 86
1, 334897, Note_on_c, 0, 57, 56
1, 334904, Note_off_c, 0, 69, 65
1, 334910, Note_off_c, 0, 59, 68
1, 334919, Note_off_c, 0, 57, 59
1, 334920, Control_c, 0, 67, 99
1, 334934, Note_off_c, 0, 75, 66
1, 334935, Control_c, 0, 67, 68
1, 334950, Control_c, 0, 67, 42
1, 334965, Control_c, 0, 67, 0
1, 334985, Note_on_c, 0, 87, 82
1, 335053, Note_off_c, 0, 87, 62
1, 335068, Note_on_c, 0, 90, 84
1, 335148, Note_on_c, 0, 72, 81
1, 335151, Note_on_c, 0, 68, 81
1, 335153, Note_on_c, 0, 87, 85
1, 335163, Note_off_c, 0, 90, 63
1, 335168, Note_off_c, 0, 72, 71
1, 335170, Note_off_c, 0, 68, 71
1, 335196, Note_off_c, 0, 87, 67
1, 335237, Note_on_c, 0, 75, 87
1, 335300, Note_off_c, 0, 75, 60
1, 335322, Note_on_c, 0, 78, 86
1, 335389, Note_off_c, 0, 78, 58
1, 335408, Note_on_c, 0, 57, 63
1, 335411, Note_on_c, 0, 68, 83
1, 335417, Note_on_c, 0, 75, 94
1, 335438, Note_off_c, 0, 57, 64
1, 335444, Note_off_c, 0, 68, 65
1, 335465, Note_off_c, 0, 75, 64
1, 335505, Note_on_c, 0, 78, 90
1, 335518, Note_on_c, 0, 69, 82
1, 335548, Note_off_c, 0, 78, 65
1, 335586, Note_off_c, 0, 69, 62
1, 335593, Note_on_c, 0, 87, 75
1, 335601, Note_on_c, 0, 71, 77
1, 335635, Note_off_c, 0, 87, 60
1, 335658, Note_off_c, 0, 71, 62
1, 335682, Note_on_c, 0, 72, 77
1, 335692, Note_on_c, 0, 90, 68
1, 335718, Note_off_c, 0, 90, 69
1, 335726, Note_off_c, 0, 72, 63
1, 335762, Note_on_c, 0, 68, 80
1, 335764, Note_on_c, 0, 75, 82
1, 335816, Note_off_c, 0, 75, 64
1, 335854, Note_on_c, 0, 69, 80
1, 335856, Note_on_c, 0, 78, 80
1, 335864, Note_off_c, 0, 68, 57
1, 335906, Note_off_c, 0, 78, 60
1, 335936, Note_on_c, 0, 71, 76
1, 335944, Note_on_c, 0, 87, 66
1, 335948, Note_off_c, 0, 69, 58
1, 335990, Note_off_c, 0, 87, 63
1, 336005, Note_off_c, 0, 71, 62
1, 336018, Note_on_c, 0, 72, 79
1, 336018, Note_on_c, 0, 90, 67
1, 336050, Note_off_c, 0, 90, 66
1, 336070, Note_off_c, 0, 72, 60
1, 336106, Note_on_c, 0, 75, 90
1, 336114, Note_on_c, 0, 68, 79
1, 336158, Note_off_c, 0, 75, 64
1, 336198, Note_on_c, 0, 69, 79
1, 336199, Note_on_c, 0, 78, 82
1, 336204, Note_off_c, 0, 68, 61
1, 336248, Note_off_c, 0, 78, 60
1, 336278, Note_on_c, 0, 71, 78
1, 336283, Note_on_c, 0, 87, 77
1, 336292, Note_off_c, 0, 69, 59
1, 336344, Note_off_c, 0, 87, 64
1, 336358, Note_off_c, 0, 71, 63
1, 336364, Note_on_c, 0, 72, 86
1, 336371, Note_on_c, 0, 90, 68
1, 336416, Note_off_c, 0, 72, 64
1, 336421, Note_off_c, 0, 90, 63
1, 336449, Note_on_c, 0, 75, 97
1, 336488, Note_off_c, 0, 75, 68
1, 336551, Note_on_c, 0, 72, 78
1, 336609, Note_off_c, 0, 72, 61
1, 336637, Note_on_c, 0, 68, 75
1, 336657, Note_off_c, 0, 68, 71
1, 336717, Note_on_c, 0, 71, 81
1, 336755, Note_off_c, 0, 71, 64
1, 336803, Note_on_c, 0, 74, 86
1, 336848, Note_off_c, 0, 74, 61
1, 336895, Note_on_c, 0, 78, 83
1, 336943, Note_off_c, 0, 78, 52
1, 336982, Note_on_c, 0, 81, 89
1, 337016, Note_off_c, 0, 81, 66
1, 337071, Note_on_c, 0, 77, 67
1, 337124, Note_off_c, 0, 77, 57
1, 337172, Note_on_c, 0, 74, 49
1, 337197, Note_off_c, 0, 74, 38
1, 337241, Note_on_c, 0, 76, 72
1, 337265, Note_off_c, 0, 76, 70
1, 337324, Note_on_c, 0, 79, 74
1, 337349, Note_off_c, 0, 79, 65
1, 337412, Note_on_c, 0, 83, 75
1, 337437, Note_off_c, 0, 83, 63
1, 337497, Note_on_c, 0, 86, 78
1, 337516, Note_off_c, 0, 86, 70
1, 337581, Note_on_c, 0, 82, 65
1, 337583, Control_c, 0, 67, 50
1, 337605, Control_c, 0, 67, 71
1, 337620, Control_c, 0, 67, 89
1, 337621, Note_off_c, 0, 82, 61
1, 337635, Control_c, 0, 67, 100
1, 337650, Control_c, 0, 67, 109
1, 337665, Control_c, 0, 67, 113
1, 337667, Note_on_c, 0, 78, 66
1, 337679, Control_c, 0, 67, 115
1, 337691, Note_off_c, 0, 78, 67
1, 337774, Note_on_c, 0, 81, 60
1, 337801, Note_off_c, 0, 81, 66
1, 337863, Note_on_c, 0, 84, 64
1, 337886, Control_c, 0, 67, 113
1, 337890, Note_off_c, 0, 84, 66
1, 337954, Note_on_c, 0, 88, 71
1, 337992, Note_off_c, 0, 88, 57
1, 338019, Control_c, 0, 67, 111
1, 338079, Control_c, 0, 67, 109
1, 338156, Note_on_c, 0, 87, 55
1, 338195, Note_off_c, 0, 87, 62
1, 338252, Note_on_c, 0, 83, 62
1, 338287, Control_c, 0, 67, 111
1, 338289, Note_off_c, 0, 83, 63
1, 338373, Note_on_c, 0, 86, 60
1, 338401, Note_off_c, 0, 86, 68
1, 338457, Control_c, 0, 67, 109
1, 338502, Note_on_c, 0, 89, 61
1, 338534, Note_off_c, 0, 89, 62
1, 338635, Control_c, 0, 67, 111
1, 338642, Note_on_c, 0, 93, 58
1, 338650, Control_c, 0, 64, 43
1, 338665, Control_c, 0, 64, 58
1, 338680, Control_c, 0, 64, 61
1, 338694, Control_c, 0, 64, 62
1, 338709, Control_c, 0, 64, 62
1, 338724, Control_c, 0, 64, 63
1, 338738, Control_c, 0, 64, 63
1, 338738, Control_c, 0, 67, 113
1, 338768, Control_c, 0, 67, 116
1, 338783, Control_c, 0, 67, 118
1, 338798, Control_c, 0, 64, 62
1, 338798, Control_c, 0, 67, 120
1, 338811, Note_off_c, 0, 93, 53
1, 338812, Note_on_c, 0, 48, 46
1, 338812, Control_c, 0, 64, 58
1, 338812, Control_c, 0, 67, 122
1, 338827, Control_c, 0, 64, 52
1, 338827, Control_c, 0, 67, 125
1, 338842, Control_c, 0, 64, 49
1, 338842, Control_c, 0, 67, 127
1, 338857, Control_c, 0, 64, 50
1, 338866, Note_on_c, 0, 96, 59
1, 338872, Control_c, 0, 64, 54
1, 338887, Control_c, 0, 64, 59
1, 338902, Control_c, 0, 64, 62
1, 338917, Control_c, 0, 64, 63
1, 338931, Control_c, 0, 64, 64
1, 338946, Control_c, 0, 64, 64
1, 338971, Note_off_c, 0, 96, 66
1, 338991, Note_on_c, 0, 100, 65
1, 339036, Control_c, 0, 64, 64
1, 339051, Control_c, 0, 64, 60
1, 339066, Control_c, 0, 64, 47
1, 339070, Note_off_c, 0, 100, 61
1, 339075, Note_off_c, 0, 48, 36
1, 339080, Control_c, 0, 64, 0
1, 339092, Note_on_c, 0, 96, 73
1, 339096, Note_on_c, 0, 64, 49
1, 339098, Note_on_c, 0, 55, 47
1, 339118, Note_off_c, 0, 96, 69
1, 339120, Note_off_c, 0, 64, 58
1, 339125, Note_off_c, 0, 55, 55
1, 339167, Note_on_c, 0, 84, 70
1, 339212, Note_off_c, 0, 84, 58
1, 339266, Note_on_c, 0, 88, 66
1, 339269, Note_on_c, 0, 64, 52
1, 339284, Note_on_c, 0, 55, 48
1, 339295, Note_off_c, 0, 64, 65
1, 339313, Note_off_c, 0, 55, 54
1, 339429, Control_c, 0, 64, 40
1, 339444, Control_c, 0, 64, 51
1, 339459, Control_c, 0, 64, 57
1, 339464, Note_on_c, 0, 48, 63
1, 339474, Control_c, 0, 64, 60
1, 339488, Control_c, 0, 64, 60
1, 339495, Note_off_c, 0, 48, 64
1, 339503, Control_c, 0, 64, 61
1, 339518, Control_c, 0, 64, 61
1, 339519, Note_off_c, 0, 88, 57
1, 339533, Control_c, 0, 64, 62
1, 339539, Note_on_c, 0, 96, 60
1, 339577, Control_c, 0, 64, 59
1, 339592, Control_c, 0, 64, 49
1, 339593, Note_off_c, 0, 96, 61
1, 339607, Control_c, 0, 64, 0
1, 339632, Note_on_c, 0, 64, 65
1, 339635, Note_on_c, 0, 55, 61
1, 339635, Note_on_c, 0, 100, 57
1, 339657, Note_off_c, 0, 55, 62
1, 339659, Note_off_c, 0, 64, 67
1, 339686, Note_off_c, 0, 100, 53
1, 339720, Note_on_c, 0, 96, 62
1, 339759, Note_off_c, 0, 96, 64
1, 339816, Note_on_c, 0, 88, 65
1, 339825, Note_on_c, 0, 64, 47
1, 339827, Note_on_c, 0, 55, 57
1, 339838, Control_c, 0, 64, 31
1, 339853, Control_c, 0, 64, 45
1, 339860, Note_off_c, 0, 88, 60
1, 339867, Control_c, 0, 64, 49
1, 339882, Control_c, 0, 64, 52
1, 339897, Control_c, 0, 64, 54
1, 339908, Note_on_c, 0, 96, 66
1, 339912, Control_c, 0, 64, 56
1, 339927, Control_c, 0, 64, 56
1, 339941, Control_c, 0, 64, 56
1, 339948, Note_off_c, 0, 64, 50
1, 339956, Control_c, 0, 64, 54
1, 339971, Control_c, 0, 64, 46
1, 339978, Note_off_c, 0, 96, 61
1, 339986, Control_c, 0, 64, 32
1, 339990, Note_off_c, 0, 55, 62
1, 339993, Note_on_c, 0, 88, 59
1, 339995, Note_on_c, 0, 48, 62
1, 340000, Control_c, 0, 64, 0
1, 340025, Note_off_c, 0, 48, 64
1, 340031, Note_off_c, 0, 88, 65
1, 340074, Note_on_c, 0, 84, 62
1, 340129, Note_off_c, 0, 84, 61
1, 340164, Note_on_c, 0, 48, 69
1, 340170, Note_on_c, 0, 81, 71
1, 340172, Note_on_c, 0, 87, 69
1, 340178, Control_c, 0, 64, 38
1, 340192, Control_c, 0, 64, 53
1, 340207, Control_c, 0, 64, 58
1, 340222, Control_c, 0, 64, 59
1, 340231, Note_off_c, 0, 81, 60
1, 340237, Control_c, 0, 64, 60
1, 340252, Control_c, 0, 64, 60
1, 340257, Note_on_c, 0, 84, 71
1, 340261, Note_off_c, 0, 87, 63
1, 340267, Note_off_c, 0, 48, 54
1, 340297, Control_c, 0, 64, 59
1, 340311, Control_c, 0, 64, 50
1, 340326, Control_c, 0, 64, 0
1, 340331, Note_on_c, 0, 63, 66
1, 340343, Note_on_c, 0, 81, 70
1, 340343, Note_off_c, 0, 84, 63
1, 340344, Note_on_c, 0, 53, 44
1, 340360, Note_off_c, 0, 63, 65
1, 340367, Note_off_c, 0, 81, 70
1, 340371, Note_off_c, 0, 53, 52
1, 340423, Note_on_c, 0, 72, 63
1, 340508, Note_off_c, 0, 72, 57
1, 340529, Note_on_c, 0, 63, 62
1, 340531, Note_on_c, 0, 75, 66
1, 340549, Note_off_c, 0, 63, 64
1, 340550, Note_on_c, 0, 53, 39
1, 340593, Note_off_c, 0, 53, 33
1, 340744, Note_on_c, 0, 48, 73
1, 340779, Control_c, 0, 64, 52
1, 340794, Control_c, 0, 64, 59
1, 340839, Note_off_c, 0, 75, 65
1, 340843, Note_on_c, 0, 81, 72
1, 340853, Control_c, 0, 64, 60
1, 340883, Control_c, 0, 64, 60
1, 340900, Note_off_c, 0, 48, 62
1, 340912, Control_c, 0, 64, 57
1, 340915, Note_off_c, 0, 81, 63
1, 340924, Note_on_c, 0, 63, 64
1, 340927, Note_on_c, 0, 53, 54
1, 340927, Note_on_c, 0, 84, 74
1, 340927, Control_c, 0, 64, 44
1, 340941, Note_off_c, 0, 63, 64
1, 340941, Control_c, 0, 64, 0
1, 340952, Note_off_c, 0, 53, 62
1, 341005, Note_off_c, 0, 84, 64
1, 341013, Note_on_c, 0, 81, 76
1, 341065, Note_off_c, 0, 81, 61
1, 341099, Note_on_c, 0, 63, 68
1, 341101, Note_on_c, 0, 72, 70
1, 341124, Note_on_c, 0, 53, 48
1, 341149, Note_off_c, 0, 72, 60
1, 341173, Note_on_c, 0, 81, 76
1, 341225, Note_off_c, 0, 63, 60
1, 341241, Note_off_c, 0, 81, 58
1, 341254, Note_on_c, 0, 72, 78
1, 341256, Note_off_c, 0, 53, 61
1, 341259, Note_on_c, 0, 48, 71
1, 341299, Note_off_c, 0, 48, 61
1, 341321, Note_off_c, 0, 72, 62
1, 341339, Note_on_c, 0, 69, 83
1, 341403, Note_off_c, 0, 69, 62
1, 341409, Control_c, 0, 67, 117
1, 341424, Control_c, 0, 67, 88
1, 341432, Note_on_c, 0, 48, 71
1, 341436, Note_on_c, 0, 68, 81
1, 341438, Control_c, 0, 67, 66
1, 341453, Control_c, 0, 67, 44
1, 341468, Control_c, 0, 67, 0
1, 341483, Control_c, 0, 64, 31
1, 341498, Control_c, 0, 64, 47
1, 341503, Note_off_c, 0, 68, 62
1, 341513, Control_c, 0, 64, 54
1, 341514, Note_on_c, 0, 64, 83
1, 341527, Control_c, 0, 64, 57
1, 341542, Control_c, 0, 64, 58
1, 341557, Control_c, 0, 64, 59
1, 341571, Control_c, 0, 64, 60
1, 341573, Note_off_c, 0, 48, 62
1, 341586, Control_c, 0, 64, 60
1, 341590, Note_off_c, 0, 64, 65
1, 341599, Note_on_c, 0, 68, 91
1, 341599, Note_on_c, 0, 61, 64
1, 341601, Control_c, 0, 64, 61
1, 341604, Note_on_c, 0, 53, 49
1, 341616, Control_c, 0, 64, 62
1, 341626, Note_off_c, 0, 61, 63
1, 341635, Note_off_c, 0, 53, 61
1, 341642, Note_off_c, 0, 68, 60
1, 341660, Control_c, 0, 64, 61
1, 341675, Control_c, 0, 64, 55
1, 341689, Control_c, 0, 64, 40
1, 341691, Note_on_c, 0, 80, 84
1, 341704, Control_c, 0, 64, 0
1, 341769, Note_off_c, 0, 80, 63
1, 341787, Note_on_c, 0, 76, 77
1, 341810, Note_on_c, 0, 61, 47
1, 341811, Note_on_c, 0, 53, 44
1, 341838, Control_c, 0, 64, 31
1, 341840, Note_off_c, 0, 61, 54
1, 341853, Control_c, 0, 64, 57
1, 341856, Note_off_c, 0, 53, 58
1, 341868, Control_c, 0, 64, 63
1, 341882, Control_c, 0, 64, 64
1, 341912, Control_c, 0, 64, 64
1, 341927, Control_c, 0, 64, 65
1, 341942, Control_c, 0, 64, 65
1, 341994, Note_off_c, 0, 76, 64
1, 342015, Note_on_c, 0, 48, 63
1, 342125, Note_on_c, 0, 68, 75
1, 342200, Note_off_c, 0, 48, 63
1, 342208, Note_off_c, 0, 68, 63
1, 342222, Note_on_c, 0, 61, 57
1, 342226, Note_on_c, 0, 64, 78
1, 342230, Note_on_c, 0, 53, 44
1, 342246, Control_c, 0, 64, 64
1, 342252, Note_off_c, 0, 61, 59
1, 342261, Note_off_c, 0, 53, 54
1, 342261, Control_c, 0, 64, 59
1, 342276, Control_c, 0, 64, 41
1, 342291, Control_c, 0, 64, 0
1, 342306, Note_on_c, 0, 68, 84
1, 342306, Note_off_c, 0, 64, 64
1, 342386, Note_on_c, 0, 61, 66
1, 342392, Note_off_c, 0, 68, 62
1, 342393, Note_on_c, 0, 53, 59
1, 342394, Note_on_c, 0, 76, 80
1, 342429, Note_off_c, 0, 61, 58
1, 342444, Note_off_c, 0, 76, 62
1, 342446, Note_off_c, 0, 53, 60
1, 342470, Note_on_c, 0, 68, 82
1, 342546, Note_off_c, 0, 68, 62
1, 342569, Note_on_c, 0, 48, 77
1, 342571, Note_on_c, 0, 76, 80
1, 342638, Note_on_c, 0, 80, 87
1, 342644, Note_off_c, 0, 76, 66
1, 342704, Note_off_c, 0, 80, 57
1, 342708, Note_off_c, 0, 48, 56
1, 342727, Note_on_c, 0, 79, 40
1, 342734, Note_on_c, 0, 77, 87
1, 342738, Note_on_c, 0, 62, 64
1, 342738, Note_on_c, 0, 54, 60
1, 342755, Note_off_c, 0, 79, 54
1, 342766, Note_off_c, 0, 62, 63
1, 342768, Note_off_c, 0, 54, 65
1, 342860, Control_c, 0, 64, 40
1, 342875, Control_c, 0, 64, 54
1, 342890, Control_c, 0, 64, 59
1, 342905, Control_c, 0, 64, 60
1, 342920, Control_c, 0, 64, 61
1, 342920, Note_off_c, 0, 77, 65
1, 342930, Note_on_c, 0, 62, 65
1, 342935, Control_c, 0, 64, 62
1, 342936, Note_on_c, 0, 54, 69
1, 342950, Control_c, 0, 64, 64
1, 342963, Note_off_c, 0, 62, 66
1, 342965, Control_c, 0, 64, 65
1, 342968, Note_off_c, 0, 54, 63
1, 342980, Control_c, 0, 64, 65
1, 342995, Control_c, 0, 64, 66
1, 343009, Control_c, 0, 64, 67
1, 343025, Control_c, 0, 64, 68
1, 343040, Control_c, 0, 64, 69
1, 343055, Control_c, 0, 64, 70
1, 343099, Control_c, 0, 64, 68
1, 343111, Note_on_c, 0, 48, 78
1, 343111, Note_on_c, 0, 88, 94
1, 343114, Control_c, 0, 64, 61
1, 343129, Control_c, 0, 64, 43
1, 343143, Control_c, 0, 64, 0
1, 343194, Note_on_c, 0, 92, 97
1, 343200, Note_off_c, 0, 88, 67
1, 343249, Note_off_c, 0, 48, 61
1, 343279, Note_on_c, 0, 89, 95
1, 343283, Note_on_c, 0, 61, 70
1, 343298, Note_on_c, 0, 53, 47
1, 343308, Note_off_c, 0, 92, 67
1, 343316, Note_off_c, 0, 61, 59
1, 343322, Control_c, 0, 64, 49
1, 343324, Note_off_c, 0, 89, 67
1, 343326, Note_off_c, 0, 53, 56
1, 343336, Control_c, 0, 64, 62
1, 343351, Control_c, 0, 64, 64
1, 343366, Control_c, 0, 64, 65
1, 343381, Control_c, 0, 64, 67
1, 343396, Control_c, 0, 64, 69
1, 343410, Control_c, 0, 64, 71
1, 343425, Control_c, 0, 64, 72
1, 343440, Control_c, 0, 64, 73
1, 343454, Control_c, 0, 64, 74
1, 343468, Note_on_c, 0, 61, 77
1, 343469, Control_c, 0, 64, 74
1, 343473, Note_on_c, 0, 53, 68
1, 343484, Control_c, 0, 64, 75
1, 343499, Control_c, 0, 64, 75
1, 343518, Note_off_c, 0, 53, 60
1, 343525, Note_off_c, 0, 61, 61
1, 343558, Control_c, 0, 64, 76
1, 343573, Control_c, 0, 64, 75
1, 343596, Control_c, 0, 64, 68
1, 343610, Control_c, 0, 64, 47
1, 343621, Note_on_c, 0, 78, 85
1, 343625, Control_c, 0, 64, 0
1, 343644, Note_on_c, 0, 48, 74
1, 343659, Note_on_c, 0, 76, 79
1, 343689, Note_off_c, 0, 78, 61
1, 343743, Note_on_c, 0, 80, 87
1, 343749, Note_off_c, 0, 76, 66
1, 343835, Note_off_c, 0, 48, 58
1, 343867, Note_on_c, 0, 77, 83
1, 343868, Note_on_c, 0, 54, 54
1, 343871, Note_on_c, 0, 62, 47
1, 343896, Note_off_c, 0, 80, 62
1, 343899, Note_off_c, 0, 62, 54
1, 343900, Note_off_c, 0, 54, 63
1, 344085, Control_c, 0, 64, 29
1, 344100, Control_c, 0, 64, 50
1, 344115, Control_c, 0, 64, 60
1, 344115, Control_c, 0, 67, 51
1, 344130, Control_c, 0, 64, 63
1, 344130, Control_c, 0, 67, 67
1, 344145, Control_c, 0, 64, 65
1, 344145, Control_c, 0, 67, 81
1, 344148, Note_on_c, 0, 62, 44
1, 344151, Note_on_c, 0, 54, 42
1, 344151, Note_off_c, 0, 77, 63
1, 344159, Control_c, 0, 64, 67
1, 344159, Control_c, 0, 67, 96
1, 344174, Control_c, 0, 64, 70
1, 344174, Control_c, 0, 67, 111
1, 344189, Control_c, 0, 64, 72
1, 344189, Control_c, 0, 67, 124
1, 344204, Control_c, 0, 64, 74
1, 344204, Control_c, 0, 67, 127
1, 344207, Note_off_c, 0, 54, 58
1, 344219, Control_c, 0, 64, 75
1, 344233, Control_c, 0, 64, 76
1, 344248, Control_c, 0, 64, 76
1, 344277, Control_c, 0, 64, 77
1, 344503, Note_off_c, 0, 62, 57
1, 344522, Control_c, 0, 64, 75
1, 344537, Control_c, 0, 64, 67
1, 344541, Note_on_c, 0, 53, 41
1, 344552, Control_c, 0, 64, 56
1, 344557, Note_on_c, 0, 96, 60
1, 344568, Control_c, 0, 64, 40
1, 344582, Control_c, 0, 64, 29
1, 344612, Control_c, 0, 64, 36
1, 344627, Control_c, 0, 64, 45
1, 344642, Control_c, 0, 64, 54
1, 344649, Note_off_c, 0, 96, 56
1, 344656, Control_c, 0, 64, 59
1, 344671, Control_c, 0, 64, 61
1, 344685, Note_on_c, 0, 100, 63
1, 344686, Control_c, 0, 64, 61
1, 344729, Note_off_c, 0, 53, 58
1, 344745, Control_c, 0, 64, 61
1, 344759, Note_off_c, 0, 100, 62
1, 344760, Control_c, 0, 64, 57
1, 344765, Note_on_c, 0, 69, 54
1, 344775, Note_on_c, 0, 96, 58
1, 344775, Control_c, 0, 64, 50
1, 344777, Note_on_c, 0, 60, 41
1, 344787, Note_off_c, 0, 69, 62
1, 344789, Control_c, 0, 64, 41
1, 344793, Note_off_c, 0, 96, 65
1, 344802, Note_off_c, 0, 60, 53
1, 344804, Control_c, 0, 64, 35
1, 344819, Control_c, 0, 64, 31
1, 344846, Note_on_c, 0, 84, 63
1, 344849, Control_c, 0, 64, 28
1, 344863, Control_c, 0, 64, 0
1, 344882, Note_off_c, 0, 84, 59
1, 344931, Note_on_c, 0, 60, 64
1, 344932, Note_on_c, 0, 69, 63
1, 344939, Note_on_c, 0, 88, 63
1, 344959, Note_off_c, 0, 69, 69
1, 344962, Note_off_c, 0, 60, 66
1, 345042, Control_c, 0, 64, 34
1, 345056, Control_c, 0, 64, 42
1, 345071, Control_c, 0, 64, 52
1, 345093, Control_c, 0, 64, 59
1, 345108, Control_c, 0, 64, 61
1, 345123, Control_c, 0, 64, 62
1, 345137, Note_on_c, 0, 53, 57
1, 345153, Control_c, 0, 64, 63
1, 345167, Note_off_c, 0, 53, 64
1, 345167, Control_c, 0, 64, 63
1, 345182, Control_c, 0, 64, 64
1, 345220, Note_off_c, 0, 88, 56
1, 345244, Note_on_c, 0, 96, 62
1, 345285, Note_off_c, 0, 96, 61
1, 345299, Control_c, 0, 64, 62
1, 345305, Note_on_c, 0, 60, 62
1, 345307, Note_on_c, 0, 69, 61
1, 345314, Control_c, 0, 64, 59
1, 345328, Control_c, 0, 64, 53
1, 345330, Note_off_c, 0, 60, 65
1, 345331, Note_on_c, 0, 100, 55
1, 345333, Note_off_c, 0, 69, 64
1, 345343, Control_c, 0, 64, 46
1, 345359, Control_c, 0, 64, 39
1, 345374, Control_c, 0, 64, 34
1, 345387, Note_off_c, 0, 100, 64
1, 345389, Control_c, 0, 64, 31
1, 345397, Note_on_c, 0, 96, 72
1, 345418, Control_c, 0, 64, 32
1, 345433, Control_c, 0, 64, 35
1, 345446, Note_off_c, 0, 96, 65
1, 345448, Control_c, 0, 64, 39
1, 345463, Control_c, 0, 64, 44
1, 345468, Note_on_c, 0, 69, 52
1, 345473, Note_on_c, 0, 60, 50
1, 345477, Control_c, 0, 64, 49
1, 345478, Note_on_c, 0, 88, 61
1, 345492, Control_c, 0, 64, 52
1, 345507, Control_c, 0, 64, 53
1, 345515, Note_off_c, 0, 88, 63
1, 345522, Control_c, 0, 64, 55
1, 345537, Control_c, 0, 64, 56
1, 345552, Control_c, 0, 64, 58
1, 345556, Note_on_c, 0, 96, 77
1, 345567, Control_c, 0, 64, 59
1, 345572, Note_off_c, 0, 69, 53
1, 345582, Control_c, 0, 64, 60
1, 345626, Note_off_c, 0, 60, 62
1, 345628, Note_off_c, 0, 96, 59
1, 345639, Note_on_c, 0, 53, 59
1, 345641, Control_c, 0, 64, 58
1, 345644, Note_on_c, 0, 88, 71
1, 345655, Control_c, 0, 64, 54
1, 345669, Note_off_c, 0, 53, 64
1, 345670, Control_c, 0, 64, 48
1, 345685, Control_c, 0, 64, 39
1, 345700, Control_c, 0, 64, 0
1, 345701, Note_off_c, 0, 88, 65
1, 345725, Note_on_c, 0, 84, 78
1, 345759, Control_c, 0, 64, 35
1, 345774, Control_c, 0, 64, 46
1, 345789, Control_c, 0, 64, 56
1, 345803, Control_c, 0, 64, 61
1, 345818, Control_c, 0, 64, 62
1, 345841, Control_c, 0, 64, 63
1, 345846, Note_on_c, 0, 53, 58
1, 345848, Note_off_c, 0, 84, 51
1, 345855, Control_c, 0, 64, 63
1, 345867, Note_on_c, 0, 80, 66
1, 345870, Control_c, 0, 64, 64
1, 345874, Note_on_c, 0, 87, 63
1, 345885, Control_c, 0, 64, 64
1, 345900, Control_c, 0, 64, 65
1, 345915, Control_c, 0, 64, 65
1, 345947, Note_off_c, 0, 80, 61
1, 345959, Note_off_c, 0, 87, 57
1, 345959, Control_c, 0, 64, 66
1, 345960, Note_on_c, 0, 84, 68
1, 345996, Note_off_c, 0, 53, 58
1, 346044, Note_on_c, 0, 68, 60
1, 346044, Note_on_c, 0, 60, 56
1, 346052, Note_on_c, 0, 80, 74
1, 346053, Note_off_c, 0, 84, 61
1, 346063, Control_c, 0, 64, 65
1, 346064, Note_off_c, 0, 68, 59
1, 346071, Note_off_c, 0, 60, 65
1, 346078, Control_c, 0, 64, 63
1, 346092, Note_off_c, 0, 80, 61
1, 346093, Control_c, 0, 64, 55
1, 346108, Control_c, 0, 64, 39
1, 346123, Control_c, 0, 64, 0
1, 346138, Note_on_c, 0, 72, 60
1, 346204, Note_off_c, 0, 72, 54
1, 346210, Note_on_c, 0, 68, 55
1, 346216, Note_on_c, 0, 60, 58
1, 346222, Note_on_c, 0, 75, 64
1, 346239, Note_off_c, 0, 68, 64
1, 346243, Note_off_c, 0, 60, 65
1, 346360, Control_c, 0, 64, 33
1, 346375, Control_c, 0, 64, 44
1, 346390, Control_c, 0, 64, 53
1, 346401, Note_on_c, 0, 53, 58
1, 346405, Control_c, 0, 64, 59
1, 346420, Control_c, 0, 64, 61
1, 346434, Control_c, 0, 64, 61
1, 346449, Control_c, 0, 64, 62
1, 346454, Note_on_c, 0, 80, 74
1, 346456, Note_off_c, 0, 75, 64
1, 346464, Control_c, 0, 64, 63
1, 346479, Control_c, 0, 64, 64
1, 346494, Control_c, 0, 64, 65
1, 346509, Control_c, 0, 64, 66
1, 346513, Note_off_c, 0, 53, 55
1, 346517, Note_off_c, 0, 80, 64
1, 346538, Note_on_c, 0, 84, 72
1, 346539, Control_c, 0, 64, 65
1, 346553, Control_c, 0, 64, 62
1, 346554, Note_on_c, 0, 60, 61
1, 346559, Note_on_c, 0, 68, 58
1, 346575, Control_c, 0, 64, 52
1, 346586, Note_off_c, 0, 68, 62
1, 346590, Control_c, 0, 64, 35
1, 346591, Note_off_c, 0, 60, 65
1, 346605, Control_c, 0, 64, 0
1, 346618, Note_off_c, 0, 84, 63
1, 346620, Note_on_c, 0, 80, 79
1, 346686, Note_off_c, 0, 80, 63
1, 346699, Note_on_c, 0, 72, 74
1, 346718, Note_on_c, 0, 68, 68
1, 346726, Note_on_c, 0, 60, 66
1, 346768, Control_c, 0, 64, 32
1, 346774, Note_off_c, 0, 72, 59
1, 346783, Control_c, 0, 64, 47
1, 346786, Note_on_c, 0, 80, 76
1, 346798, Control_c, 0, 64, 53
1, 346805, Note_off_c, 0, 68, 59
1, 346813, Control_c, 0, 64, 55
1, 346827, Control_c, 0, 64, 56
1, 346840, Note_off_c, 0, 80, 63
1, 346842, Control_c, 0, 64, 57
1, 346857, Control_c, 0, 64, 58
1, 346863, Note_on_c, 0, 72, 78
1, 346872, Control_c, 0, 64, 59
1, 346880, Note_on_c, 0, 53, 71
1, 346886, Control_c, 0, 64, 60
1, 346889, Note_off_c, 0, 60, 64
1, 346901, Control_c, 0, 64, 61
1, 346901, Control_c, 0, 67, 115
1, 346910, Note_off_c, 0, 53, 66
1, 346916, Control_c, 0, 67, 91
1, 346931, Control_c, 0, 67, 74
1, 346940, Note_on_c, 0, 68, 78
1, 346940, Note_off_c, 0, 72, 58
1, 346946, Control_c, 0, 67, 62
1, 346962, Control_c, 0, 64, 58
1, 346962, Control_c, 0, 67, 55
1, 346976, Control_c, 0, 64, 46
1, 346976, Control_c, 0, 67, 54
1, 346991, Control_c, 0, 64, 0
1, 346991, Control_c, 0, 67, 53
1, 347036, Note_off_c, 0, 68, 60
1, 347050, Control_c, 0, 67, 53
1, 347051, Note_on_c, 0, 71, 84
1, 347057, Note_on_c, 0, 46, 73
1, 347065, Control_c, 0, 64, 37
1, 347065, Control_c, 0, 67, 51
1, 347080, Control_c, 0, 64, 51
1, 347080, Control_c, 0, 67, 51
1, 347095, Control_c, 0, 64, 60
1, 347095, Control_c, 0, 67, 49
1, 347109, Control_c, 0, 64, 63
1, 347109, Control_c, 0, 67, 46
1, 347123, Note_off_c, 0, 46, 62
1, 347123, Note_off_c, 0, 71, 61
1, 347124, Control_c, 0, 64, 65
1, 347124, Control_c, 0, 67, 0
1, 347129, Note_on_c, 0, 67, 81
1, 347139, Control_c, 0, 64, 65
1, 347154, Control_c, 0, 64, 66
1, 347169, Control_c, 0, 64, 66
1, 347183, Control_c, 0, 64, 67
1, 347187, Note_off_c, 0, 67, 64
1, 347198, Control_c, 0, 64, 66
1, 347213, Control_c, 0, 64, 64
1, 347223, Note_on_c, 0, 71, 91
1, 347228, Control_c, 0, 64, 47
1, 347229, Note_on_c, 0, 62, 71
1, 347239, Note_on_c, 0, 53, 50
1, 347243, Control_c, 0, 64, 0
1, 347257, Note_off_c, 0, 62, 65
1, 347263, Note_off_c, 0, 53, 60
1, 347264, Note_off_c, 0, 71, 60
1, 347291, Note_on_c, 0, 83, 86
1, 347376, Note_off_c, 0, 83, 56
1, 347394, Note_on_c, 0, 79, 78
1, 347406, Note_on_c, 0, 53, 70
1, 347410, Note_on_c, 0, 62, 62
1, 347432, Note_off_c, 0, 62, 60
1, 347433, Note_off_c, 0, 53, 68
1, 347597, Note_on_c, 0, 46, 85
1, 347634, Control_c, 0, 64, 61
1, 347649, Control_c, 0, 64, 70
1, 347664, Control_c, 0, 64, 71
1, 347674, Note_off_c, 0, 46, 63
1, 347679, Control_c, 0, 64, 72
1, 347681, Note_on_c, 0, 71, 79
1, 347694, Control_c, 0, 64, 75
1, 347705, Note_off_c, 0, 79, 60
1, 347708, Control_c, 0, 64, 80
1, 347723, Control_c, 0, 64, 85
1, 347738, Control_c, 0, 64, 86
1, 347750, Note_off_c, 0, 71, 63
1, 347754, Control_c, 0, 64, 86
1, 347763, Note_on_c, 0, 67, 84
1, 347764, Note_on_c, 0, 53, 71
1, 347768, Note_on_c, 0, 62, 69
1, 347769, Control_c, 0, 64, 81
1, 347784, Control_c, 0, 64, 64
1, 347792, Note_off_c, 0, 53, 66
1, 347795, Note_off_c, 0, 62, 66
1, 347798, Control_c, 0, 64, 0
1, 347832, Note_off_c, 0, 67, 58
1, 347852, Note_on_c, 0, 71, 85
1, 347906, Note_off_c, 0, 71, 62
1, 347926, Note_on_c, 0, 79, 80
1, 347931, Note_on_c, 0, 62, 72
1, 347939, Note_on_c, 0, 53, 75
1, 347955, Note_off_c, 0, 62, 69
1, 347963, Note_off_c, 0, 53, 67
1, 347995, Note_off_c, 0, 79, 64
1, 348005, Note_on_c, 0, 71, 90
1, 348084, Note_off_c, 0, 71, 59
1, 348109, Note_on_c, 0, 79, 88
1, 348116, Note_on_c, 0, 47, 83
1, 348176, Control_c, 0, 64, 57
1, 348180, Note_on_c, 0, 83, 93
1, 348184, Note_off_c, 0, 79, 67
1, 348191, Control_c, 0, 64, 67
1, 348235, Control_c, 0, 64, 68
1, 348242, Note_off_c, 0, 47, 58
1, 348250, Control_c, 0, 64, 69
1, 348265, Control_c, 0, 64, 69
1, 348271, Note_on_c, 0, 80, 95
1, 348275, Note_off_c, 0, 83, 66
1, 348283, Note_on_c, 0, 61, 75
1, 348286, Note_on_c, 0, 53, 57
1, 348294, Control_c, 0, 64, 66
1, 348309, Note_off_c, 0, 61, 66
1, 348309, Control_c, 0, 64, 50
1, 348318, Note_off_c, 0, 53, 60
1, 348324, Control_c, 0, 64, 0
1, 348464, Note_on_c, 0, 61, 72
1, 348468, Note_on_c, 0, 53, 73
1, 348492, Note_off_c, 0, 61, 66
1, 348531, Note_off_c, 0, 53, 60
1, 348557, Note_on_c, 0, 79, 83
1, 348572, Note_off_c, 0, 80, 61
1, 348622, Control_c, 0, 64, 51
1, 348636, Control_c, 0, 64, 61
1, 348637, Note_on_c, 0, 46, 72
1, 348651, Note_off_c, 0, 79, 63
1, 348658, Note_on_c, 0, 83, 96
1, 348666, Control_c, 0, 64, 61
1, 348680, Control_c, 0, 64, 62
1, 348695, Control_c, 0, 64, 64
1, 348710, Control_c, 0, 64, 67
1, 348725, Control_c, 0, 64, 69
1, 348740, Note_off_c, 0, 46, 62
1, 348740, Control_c, 0, 64, 70
1, 348749, Note_on_c, 0, 95, 94
1, 348749, Note_off_c, 0, 83, 59
1, 348784, Control_c, 0, 64, 69
1, 348799, Control_c, 0, 64, 69
1, 348844, Note_on_c, 0, 92, 104
1, 348845, Note_on_c, 0, 62, 70
1, 348847, Note_off_c, 0, 95, 65
1, 348857, Note_on_c, 0, 53, 53
1, 348873, Note_off_c, 0, 92, 70
1, 348882, Note_off_c, 0, 62, 57
1, 348882, Note_off_c, 0, 53, 59
1, 349059, Note_on_c, 0, 62, 65
1, 349063, Note_on_c, 0, 53, 64
1, 349073, Control_c, 0, 64, 68
1, 349084, Note_off_c, 0, 62, 63
1, 349088, Control_c, 0, 64, 68
1, 349088, Control_c, 0, 67, 46
1, 349103, Control_c, 0, 64, 67
1, 349103, Control_c, 0, 67, 66
1, 349107, Note_off_c, 0, 53, 52
1, 349118, Control_c, 0, 64, 65
1, 349118, Control_c, 0, 67, 87
1, 349133, Control_c, 0, 64, 64
1, 349133, Control_c, 0, 67, 106
1, 349147, Control_c, 0, 64, 61
1, 349147, Control_c, 0, 67, 119
1, 349162, Control_c, 0, 64, 58
1, 349162, Control_c, 0, 67, 127
1, 349167, Note_on_c, 0, 67, 62
1, 349168, Note_on_c, 0, 65, 57
1, 349177, Control_c, 0, 64, 56
1, 349192, Control_c, 0, 64, 55
1, 349207, Control_c, 0, 64, 54
1, 349222, Control_c, 0, 64, 54
1, 349226, Note_off_c, 0, 65, 54
1, 349230, Note_off_c, 0, 67, 52
1, 349236, Control_c, 0, 64, 53
1, 349251, Control_c, 0, 64, 50
1, 349266, Control_c, 0, 64, 46
1, 349269, Note_on_c, 0, 47, 56
1, 349278, Note_on_c, 0, 71, 75
1, 349281, Control_c, 0, 64, 42
1, 349296, Control_c, 0, 64, 38
1, 349311, Control_c, 0, 64, 33
1, 349326, Control_c, 0, 64, 0
1, 349344, Note_off_c, 0, 71, 56
1, 349394, Note_on_c, 0, 83, 50
1, 349396, Note_on_c, 0, 84, 55
1, 349453, Note_off_c, 0, 84, 57
1, 349464, Note_off_c, 0, 83, 61
1, 349475, Note_off_c, 0, 47, 37
1, 349490, Note_on_c, 0, 61, 52
1, 349495, Note_on_c, 0, 53, 45
1, 349512, Note_on_c, 0, 80, 52
1, 349531, Note_off_c, 0, 61, 63
1, 349546, Note_off_c, 0, 53, 57
1, 349675, Control_c, 0, 64, 37
1, 349690, Control_c, 0, 64, 52
1, 349704, Control_c, 0, 64, 60
1, 349719, Control_c, 0, 64, 63
1, 349734, Control_c, 0, 64, 64
1, 349749, Control_c, 0, 64, 66
1, 349764, Control_c, 0, 64, 68
1, 349775, Note_off_c, 0, 80, 64
1, 349776, Note_on_c, 0, 61, 51
1, 349778, Control_c, 0, 64, 71
1, 349793, Control_c, 0, 64, 75
1, 349793, Control_c, 0, 67, 115
1, 349800, Note_on_c, 0, 53, 41
1, 349808, Control_c, 0, 64, 79
1, 349808, Control_c, 0, 67, 94
1, 349822, Control_c, 0, 64, 82
1, 349822, Control_c, 0, 67, 70
1, 349827, Note_off_c, 0, 53, 59
1, 349828, Note_off_c, 0, 61, 62
1, 349837, Control_c, 0, 64, 84
1, 349837, Control_c, 0, 67, 47
1, 349852, Control_c, 0, 64, 86
1, 349852, Control_c, 0, 67, 0
1, 349867, Control_c, 0, 64, 88
1, 349882, Control_c, 0, 64, 89
1, 349896, Control_c, 0, 64, 89
1, 349911, Control_c, 0, 64, 90
1, 349956, Control_c, 0, 64, 90
1, 349985, Control_c, 0, 64, 91
1, 350074, Control_c, 0, 64, 90
1, 350077, Note_on_c, 0, 71, 82
1, 350078, Note_on_c, 0, 96, 100
1, 350086, Note_on_c, 0, 64, 60
1, 350089, Control_c, 0, 64, 84
1, 350104, Control_c, 0, 64, 75
1, 350113, Note_on_c, 0, 65, 41
1, 350119, Control_c, 0, 64, 65
1, 350128, Note_on_c, 0, 60, 12
1, 350134, Control_c, 0, 64, 54
1, 350143, Note_off_c, 0, 65, 34
1, 350149, Control_c, 0, 64, 46
1, 350164, Control_c, 0, 64, 42
1, 350172, Note_off_c, 0, 96, 67
1, 350175, Note_on_c, 0, 100, 90
1, 350175, Poly_aftertouch_c, 0, 62, 127
1, 350179, Control_c, 0, 64, 42
1, 350193, Control_c, 0, 64, 42
1, 350207, Poly_aftertouch_c, 0, 62, 0
1, 350223, Control_c, 0, 64, 43
1, 350250, Note_on_c, 0, 96, 86
1, 350262, Note_on_c, 0, 66, 80
1, 350268, Note_off_c, 0, 100, 66
1, 350288, Note_off_c, 0, 71, 58
1, 350296, Note_off_c, 0, 96, 68
1, 350330, Note_on_c, 0, 84, 83
1, 350411, Note_off_c, 0, 84, 59
1, 350412, Note_on_c, 0, 88, 85
1, 350430, Note_on_c, 0, 70, 80
1, 350448, Note_off_c, 0, 66, 62
1, 350497, Control_c, 0, 64, 43
1, 350542, Control_c, 0, 67, 44
1, 350557, Control_c, 0, 67, 60
1, 350572, Control_c, 0, 67, 73
1, 350587, Control_c, 0, 67, 84
1, 350601, Control_c, 0, 67, 91
1, 350608, Note_on_c, 0, 65, 73
1, 350613, Note_off_c, 0, 70, 64
1, 350616, Control_c, 0, 67, 98
1, 350631, Control_c, 0, 67, 104
1, 350645, Control_c, 0, 67, 112
1, 350660, Control_c, 0, 67, 119
1, 350675, Control_c, 0, 67, 126
1, 350680, Note_on_c, 0, 96, 76
1, 350684, Note_off_c, 0, 88, 53
1, 350755, Note_off_c, 0, 96, 67
1, 350762, Note_on_c, 0, 100, 77
1, 350788, Note_off_c, 0, 65, 60
1, 350789, Note_on_c, 0, 69, 67
1, 350823, Control_c, 0, 64, 43
1, 350838, Control_c, 0, 64, 42
1, 350849, Note_off_c, 0, 100, 66
1, 350851, Note_on_c, 0, 96, 78
1, 350852, Control_c, 0, 64, 42
1, 350882, Control_c, 0, 64, 41
1, 350905, Note_off_c, 0, 96, 67
1, 350912, Control_c, 0, 64, 42
1, 350925, Note_off_c, 0, 69, 39
1, 350927, Control_c, 0, 64, 43
1, 350934, Note_on_c, 0, 88, 70
1, 350942, Control_c, 0, 64, 47
1, 350947, Note_on_c, 0, 66, 58
1, 350957, Control_c, 0, 64, 55
1, 350972, Control_c, 0, 64, 61
1, 350977, Note_off_c, 0, 88, 63
1, 350987, Control_c, 0, 64, 63
1, 351002, Control_c, 0, 64, 65
1, 351014, Note_on_c, 0, 96, 74
1, 351016, Control_c, 0, 64, 66
1, 351031, Control_c, 0, 64, 67
1, 351046, Control_c, 0, 64, 68
1, 351061, Control_c, 0, 64, 68
1, 351081, Note_on_c, 0, 68, 40
1, 351082, Note_off_c, 0, 66, 64
1, 351083, Control_c, 0, 64, 69
1, 351093, Note_off_c, 0, 64, 63
1, 351098, Control_c, 0, 64, 70
1, 351105, Note_on_c, 0, 88, 75
1, 351105, Note_off_c, 0, 60, 58
1, 351105, Note_off_c, 0, 96, 65
1, 351109, Note_off_c, 0, 68, 51
1, 351113, Control_c, 0, 64, 70
1, 351128, Control_c, 0, 64, 71
1, 351143, Control_c, 0, 64, 71
1, 351156, Note_off_c, 0, 88, 63
1, 351157, Control_c, 0, 64, 72
1, 351172, Control_c, 0, 64, 72
1, 351183, Note_on_c, 0, 84, 73
1, 351231, Control_c, 0, 64, 70
1, 351246, Control_c, 0, 64, 63
1, 351261, Control_c, 0, 64, 52
1, 351262, Note_off_c, 0, 84, 59
1, 351275, Control_c, 0, 64, 45
1, 351278, Note_on_c, 0, 64, 36
1, 351287, Note_on_c, 0, 87, 65
1, 351296, Note_on_c, 0, 57, 50
1, 351305, Control_c, 0, 64, 50
1, 351310, Note_on_c, 0, 53, 40
1, 351311, Note_on_c, 0, 81, 50
1, 351320, Control_c, 0, 64, 58
1, 351335, Control_c, 0, 64, 63
1, 351350, Control_c, 0, 64, 66
1, 351360, Note_off_c, 0, 81, 62
1, 351365, Control_c, 0, 64, 68
1, 351367, Note_off_c, 0, 87, 64
1, 351371, Note_off_c, 0, 64, 53
1, 351372, Note_on_c, 0, 84, 69
1, 351380, Control_c, 0, 64, 68
1, 351463, Note_on_c, 0, 81, 68
1, 351464, Note_off_c, 0, 84, 62
1, 351466, Note_on_c, 0, 59, 50
1, 351486, Note_off_c, 0, 81, 68
1, 351543, Control_c, 0, 64, 68
1, 351552, Note_on_c, 0, 69, 69
1, 351557, Control_c, 0, 64, 67
1, 351572, Control_c, 0, 64, 64
1, 351587, Control_c, 0, 64, 59
1, 351601, Control_c, 0, 64, 53
1, 351610, Note_off_c, 0, 69, 57
1, 351616, Control_c, 0, 64, 50
1, 351617, Note_on_c, 0, 63, 51
1, 351631, Control_c, 0, 64, 48
1, 351633, Note_on_c, 0, 72, 58
1, 351645, Note_off_c, 0, 59, 56
1, 351646, Control_c, 0, 64, 47
1, 351661, Control_c, 0, 64, 45
1, 351675, Control_c, 0, 64, 44
1, 351690, Control_c, 0, 64, 44
1, 351705, Control_c, 0, 64, 43
1, 351751, Control_c, 0, 64, 44
1, 351764, Note_off_c, 0, 63, 61
1, 351765, Control_c, 0, 64, 44
1, 351780, Control_c, 0, 64, 45
1, 351795, Control_c, 0, 64, 45
1, 351809, Note_on_c, 0, 58, 57
1, 351810, Control_c, 0, 64, 46
1, 351833, Control_c, 0, 64, 47
1, 351847, Control_c, 0, 64, 48
1, 351862, Control_c, 0, 64, 49
1, 351870, Note_off_c, 0, 72, 55
1, 351877, Control_c, 0, 64, 50
1, 351886, Note_on_c, 0, 81, 66
1, 351892, Control_c, 0, 64, 50
1, 351906, Control_c, 0, 64, 51
1, 351921, Control_c, 0, 64, 51
1, 351951, Control_c, 0, 64, 52
1, 351954, Note_off_c, 0, 81, 62
1, 351969, Note_on_c, 0, 84, 68
1, 351980, Control_c, 0, 64, 52
1, 351982, Note_off_c, 0, 58, 59
1, 351994, Note_on_c, 0, 62, 62
1, 351995, Control_c, 0, 64, 53
1, 352009, Control_c, 0, 64, 53
1, 352038, Note_off_c, 0, 84, 60
1, 352039, Control_c, 0, 64, 52
1, 352053, Control_c, 0, 64, 50
1, 352058, Note_on_c, 0, 81, 63
1, 352068, Control_c, 0, 64, 48
1, 352083, Control_c, 0, 64, 47
1, 352099, Note_off_c, 0, 81, 63
1, 352113, Control_c, 0, 64, 48
1, 352119, Note_off_c, 0, 62, 54
1, 352128, Control_c, 0, 64, 51
1, 352133, Note_on_c, 0, 72, 62
1, 352143, Control_c, 0, 64, 55
1, 352146, Note_on_c, 0, 59, 55
1, 352158, Control_c, 0, 64, 60
1, 352172, Control_c, 0, 64, 62
1, 352181, Note_off_c, 0, 72, 61
1, 352187, Control_c, 0, 64, 64
1, 352202, Control_c, 0, 64, 65
1, 352208, Note_on_c, 0, 81, 76
1, 352216, Control_c, 0, 64, 66
1, 352231, Control_c, 0, 64, 67
1, 352246, Control_c, 0, 64, 68
1, 352261, Control_c, 0, 64, 68
1, 352276, Control_c, 0, 64, 69
1, 352277, Note_off_c, 0, 81, 61
1, 352283, Note_off_c, 0, 59, 64
1, 352288, Note_off_c, 0, 53, 62
1, 352291, Note_on_c, 0, 61, 59
1, 352291, Control_c, 0, 64, 70
1, 352293, Note_on_c, 0, 72, 79
1, 352298, Note_off_c, 0, 57, 58
1, 352305, Control_c, 0, 64, 71
1, 352311, Note_off_c, 0, 61, 63
1, 352320, Control_c, 0, 64, 71
1, 352320, Control_c, 0, 67, 96
1, 352335, Control_c, 0, 64, 72
1, 352335, Control_c, 0, 67, 57
1, 352342, Note_off_c, 0, 72, 64
1, 352350, Control_c, 0, 64, 73
1, 352350, Control_c, 0, 67, 0
1, 352364, Control_c, 0, 64, 75
1, 352369, Note_on_c, 0, 69, 86
1, 352379, Control_c, 0, 64, 76
1, 352389, Note_off_c, 0, 69, 71
1, 352394, Control_c, 0, 64, 77
1, 352409, Control_c, 0, 64, 78
1, 352468, Control_c, 0, 64, 75
1, 352483, Control_c, 0, 64, 70
1, 352498, Control_c, 0, 64, 63
1, 352510, Note_on_c, 0, 64, 70
1, 352511, Note_on_c, 0, 60, 67
1, 352512, Control_c, 0, 64, 53
1, 352515, Note_on_c, 0, 98, 91
1, 352516, Note_on_c, 0, 96, 95
1, 352517, Note_on_c, 0, 71, 90
1, 352527, Control_c, 0, 64, 46
1, 352543, Control_c, 0, 64, 42
1, 352592, Note_off_c, 0, 98, 65
1, 352599, Note_off_c, 0, 96, 67
1, 352606, Note_on_c, 0, 100, 82
1, 352628, Note_on_c, 0, 101, 36
1, 352628, Note_off_c, 0, 101, 127
1, 352640, Control_c, 0, 64, 43
1, 352654, Control_c, 0, 64, 43
1, 352675, Note_on_c, 0, 66, 85
1, 352694, Note_on_c, 0, 96, 79
1, 352700, Note_on_c, 0, 98, 77
1, 352709, Note_off_c, 0, 71, 39
1, 352720, Note_off_c, 0, 100, 66
1, 352721, Note_off_c, 0, 98, 66
1, 352752, Note_off_c, 0, 96, 68
1, 352772, Note_on_c, 0, 84, 86
1, 352852, Note_on_c, 0, 70, 77
1, 352852, Note_on_c, 0, 88, 92
1, 352855, Note_off_c, 0, 84, 60
1, 352862, Control_c, 0, 64, 43
1, 352877, Control_c, 0, 64, 42
1, 352879, Note_off_c, 0, 66, 62
1, 352892, Control_c, 0, 64, 42
1, 352907, Control_c, 0, 64, 40
1, 352921, Control_c, 0, 64, 38
1, 352936, Control_c, 0, 64, 34
1, 352951, Control_c, 0, 64, 0
1, 353005, Note_off_c, 0, 70, 64
1, 353016, Note_on_c, 0, 67, 77
1, 353040, Control_c, 0, 64, 42
1, 353055, Control_c, 0, 64, 58
1, 353070, Control_c, 0, 64, 64
1, 353082, Note_off_c, 0, 88, 64
1, 353085, Control_c, 0, 64, 67
1, 353095, Note_on_c, 0, 96, 88
1, 353100, Control_c, 0, 64, 68
1, 353114, Control_c, 0, 64, 69
1, 353129, Control_c, 0, 64, 69
1, 353144, Control_c, 0, 64, 70
1, 353159, Control_c, 0, 64, 71
1, 353179, Note_on_c, 0, 68, 64
1, 353183, Note_off_c, 0, 67, 59
1, 353189, Note_off_c, 0, 96, 60
1, 353189, Control_c, 0, 64, 71
1, 353189, Control_c, 0, 67, 39
1, 353192, Note_on_c, 0, 88, 88
1, 353203, Control_c, 0, 67, 60
1, 353204, Note_off_c, 0, 68, 69
1, 353210, Note_off_c, 0, 64, 65
1, 353218, Control_c, 0, 67, 80
1, 353223, Note_off_c, 0, 60, 59
1, 353233, Control_c, 0, 67, 96
1, 353247, Control_c, 0, 67, 107
1, 353262, Control_c, 0, 67, 116
1, 353264, Note_off_c, 0, 88, 64
1, 353277, Control_c, 0, 67, 122
1, 353286, Note_on_c, 0, 84, 83
1, 353292, Control_c, 0, 67, 127
1, 353363, Note_off_c, 0, 84, 64
1, 353404, Control_c, 0, 64, 71
1, 353419, Control_c, 0, 64, 70
1, 353434, Control_c, 0, 64, 66
1, 353448, Control_c, 0, 64, 59
1, 353456, Note_on_c, 0, 81, 61
1, 353459, Note_on_c, 0, 53, 35
1, 353463, Note_on_c, 0, 64, 33
1, 353463, Control_c, 0, 64, 46
1, 353470, Note_on_c, 0, 57, 44
1, 353478, Control_c, 0, 64, 36
1, 353493, Control_c, 0, 64, 29
1, 353508, Control_c, 0, 64, 0
1, 353547, Note_off_c, 0, 81, 63
1, 353563, Note_on_c, 0, 84, 68
1, 353634, Note_off_c, 0, 84, 60
1, 353642, Note_on_c, 0, 59, 53
1, 353657, Note_on_c, 0, 81, 56
1, 353675, Note_off_c, 0, 81, 64
1, 353708, Note_off_c, 0, 64, 37
1, 353726, Note_on_c, 0, 69, 65
1, 353800, Note_off_c, 0, 59, 56
1, 353807, Note_off_c, 0, 69, 39
1, 353818, Note_on_c, 0, 63, 50
1, 353824, Note_on_c, 0, 72, 55
1, 353997, Note_off_c, 0, 63, 60
1, 354015, Note_on_c, 0, 60, 49
1, 354121, Note_off_c, 0, 72, 57
1, 354141, Note_on_c, 0, 81, 62
1, 354182, Control_c, 0, 64, 36
1, 354197, Control_c, 0, 64, 46
1, 354212, Control_c, 0, 64, 53
1, 354227, Control_c, 0, 64, 59
1, 354241, Control_c, 0, 64, 61
1, 354256, Control_c, 0, 64, 62
1, 354257, Note_off_c, 0, 53, 52
1, 354257, Note_off_c, 0, 81, 57
1, 354258, Note_on_c, 0, 61, 48
1, 354271, Control_c, 0, 64, 63
1, 354272, Note_off_c, 0, 60, 51
1, 354275, Note_on_c, 0, 72, 58
1, 354286, Control_c, 0, 64, 64
1, 354294, Note_off_c, 0, 57, 57
1, 354296, Note_off_c, 0, 61, 64
1, 354301, Control_c, 0, 64, 65
1, 354316, Control_c, 0, 64, 66
1, 354331, Control_c, 0, 64, 66
1, 354342, Note_off_c, 0, 72, 62
1, 354346, Control_c, 0, 64, 67
1, 354361, Control_c, 0, 64, 68
1, 354375, Control_c, 0, 64, 69
1, 354378, Note_on_c, 0, 69, 73
1, 354390, Control_c, 0, 64, 70
1, 354401, Note_off_c, 0, 69, 69
1, 354405, Control_c, 0, 64, 71
1, 354419, Control_c, 0, 64, 71
1, 354429, Note_on_c, 0, 60, 56
1, 354434, Control_c, 0, 64, 72
1, 354464, Control_c, 0, 64, 71
1, 354478, Note_on_c, 0, 67, 69
1, 354479, Control_c, 0, 64, 69
1, 354493, Control_c, 0, 64, 59
1, 354508, Control_c, 0, 64, 38
1, 354523, Control_c, 0, 64, 0
1, 354537, Note_on_c, 0, 84, 98
1, 354546, Note_on_c, 0, 76, 88
1, 354553, Control_c, 0, 64, 37
1, 354567, Control_c, 0, 64, 55
1, 354582, Control_c, 0, 64, 66
1, 354597, Control_c, 0, 64, 74
1, 354609, Note_off_c, 0, 76, 66
1, 354611, Control_c, 0, 64, 80
1, 354611, Control_c, 0, 67, 96
1, 354615, Note_off_c, 0, 60, 64
1, 354620, Note_off_c, 0, 84, 65
1, 354626, Note_on_c, 0, 88, 84
1, 354626, Control_c, 0, 64, 83
1, 354626, Control_c, 0, 67, 56
1, 354635, Note_off_c, 0, 67, 62
1, 354641, Control_c, 0, 64, 87
1, 354641, Control_c, 0, 67, 0
1, 354656, Control_c, 0, 64, 89
1, 354671, Control_c, 0, 64, 92
1, 354686, Control_c, 0, 64, 93
1, 354700, Control_c, 0, 64, 94
1, 354704, Note_on_c, 0, 84, 88
1, 354714, Note_off_c, 0, 88, 60
1, 354715, Control_c, 0, 64, 95
1, 354730, Control_c, 0, 64, 96
1, 354745, Control_c, 0, 64, 98
1, 354749, Note_off_c, 0, 84, 65
1, 354760, Control_c, 0, 64, 101
1, 354772, Note_on_c, 0, 72, 85
1, 354775, Control_c, 0, 64, 107
1, 354790, Control_c, 0, 64, 120
1, 354805, Control_c, 0, 64, 127
1, 354843, Note_off_c, 0, 72, 60
1, 354856, Control_c, 0, 64, 99
1, 354871, Note_on_c, 0, 76, 83
1, 354871, Control_c, 0, 64, 80
1, 354872, Note_on_c, 0, 78, 80
1, 354886, Control_c, 0, 64, 66
1, 354895, Note_off_c, 0, 76, 68
1, 354900, Control_c, 0, 64, 59
1, 354915, Control_c, 0, 64, 60
1, 354930, Control_c, 0, 64, 63
1, 354941, Note_off_c, 0, 78, 61
1, 354946, Control_c, 0, 64, 66
1, 354954, Note_on_c, 0, 82, 74
1, 354961, Control_c, 0, 64, 70
1, 354976, Control_c, 0, 64, 73
1, 354990, Control_c, 0, 64, 74
1, 354999, Note_off_c, 0, 82, 62
1, 355005, Control_c, 0, 64, 75
1, 355020, Control_c, 0, 64, 76
1, 355035, Control_c, 0, 64, 78
1, 355041, Note_on_c, 0, 78, 74
1, 355049, Control_c, 0, 64, 80
1, 355064, Control_c, 0, 64, 82
1, 355067, Note_off_c, 0, 78, 64
1, 355079, Control_c, 0, 64, 83
1, 355094, Control_c, 0, 64, 84
1, 355111, Note_on_c, 0, 66, 74
1, 355124, Control_c, 0, 64, 83
1, 355139, Control_c, 0, 64, 75
1, 355154, Control_c, 0, 64, 59
1, 355168, Control_c, 0, 64, 0
1, 355187, Note_on_c, 0, 84, 85
1, 355198, Note_off_c, 0, 66, 62
1, 355198, Note_on_c, 0, 70, 76
1, 355228, Control_c, 0, 64, 30
1, 355242, Control_c, 0, 64, 47
1, 355257, Control_c, 0, 64, 60
1, 355264, Note_off_c, 0, 84, 65
1, 355270, Note_on_c, 0, 88, 78
1, 355272, Control_c, 0, 64, 65
1, 355285, Note_off_c, 0, 70, 62
1, 355287, Control_c, 0, 64, 68
1, 355302, Control_c, 0, 64, 69
1, 355316, Control_c, 0, 64, 70
1, 355331, Control_c, 0, 64, 71
1, 355346, Note_off_c, 0, 88, 64
1, 355346, Control_c, 0, 64, 72
1, 355353, Note_on_c, 0, 84, 78
1, 355361, Control_c, 0, 64, 74
1, 355376, Control_c, 0, 64, 75
1, 355390, Control_c, 0, 64, 77
1, 355393, Note_off_c, 0, 84, 61
1, 355405, Control_c, 0, 64, 79
1, 355420, Control_c, 0, 64, 81
1, 355422, Note_on_c, 0, 72, 77
1, 355434, Control_c, 0, 64, 83
1, 355449, Control_c, 0, 64, 84
1, 355488, Note_off_c, 0, 72, 59
1, 355508, Note_on_c, 0, 76, 84
1, 355508, Control_c, 0, 64, 83
1, 355523, Note_on_c, 0, 78, 81
1, 355538, Control_c, 0, 64, 83
1, 355544, Note_off_c, 0, 76, 61
1, 355576, Control_c, 0, 64, 82
1, 355598, Note_off_c, 0, 78, 60
1, 355607, Note_on_c, 0, 82, 81
1, 355657, Note_off_c, 0, 82, 63
1, 355694, Note_on_c, 0, 78, 80
1, 355724, Note_off_c, 0, 78, 62
1, 355753, Note_on_c, 0, 84, 92
1, 355765, Note_on_c, 0, 66, 83
1, 355784, Control_c, 0, 64, 80
1, 355799, Control_c, 0, 64, 69
1, 355813, Control_c, 0, 64, 52
1, 355828, Control_c, 0, 64, 0
1, 355854, Note_on_c, 0, 88, 92
1, 355854, Note_off_c, 0, 84, 64
1, 355858, Note_off_c, 0, 66, 62
1, 355864, Note_on_c, 0, 70, 74
1, 355872, Control_c, 0, 64, 35
1, 355887, Control_c, 0, 64, 51
1, 355902, Control_c, 0, 64, 62
1, 355917, Control_c, 0, 64, 67
1, 355928, Note_off_c, 0, 70, 62
1, 355932, Control_c, 0, 64, 69
1, 355934, Note_on_c, 0, 84, 88
1, 355943, Note_off_c, 0, 88, 59
1, 355946, Control_c, 0, 64, 70
1, 355961, Control_c, 0, 64, 71
1, 355976, Control_c, 0, 64, 72
1, 355982, Note_off_c, 0, 84, 66
1, 355991, Control_c, 0, 64, 72
1, 356006, Note_on_c, 0, 72, 87
1, 356006, Control_c, 0, 64, 73
1, 356057, Note_off_c, 0, 72, 64
1, 356092, Note_on_c, 0, 76, 82
1, 356100, Note_on_c, 0, 78, 76
1, 356126, Note_off_c, 0, 76, 64
1, 356160, Note_off_c, 0, 78, 61
1, 356166, Note_on_c, 0, 82, 80
1, 356169, Control_c, 0, 64, 73
1, 356209, Note_off_c, 0, 82, 62
1, 356243, Control_c, 0, 64, 72
1, 356251, Note_on_c, 0, 78, 75
1, 356255, Note_on_c, 0, 84, 81
1, 356257, Control_c, 0, 64, 65
1, 356272, Control_c, 0, 64, 50
1, 356273, Note_off_c, 0, 78, 67
1, 356287, Control_c, 0, 64, 0
1, 356323, Note_on_c, 0, 66, 75
1, 356345, Note_off_c, 0, 84, 64
1, 356346, Note_on_c, 0, 88, 81
1, 356354, Control_c, 0, 64, 37
1, 356369, Control_c, 0, 64, 52
1, 356384, Control_c, 0, 64, 62
1, 356398, Control_c, 0, 64, 65
1, 356406, Note_off_c, 0, 66, 62
1, 356413, Control_c, 0, 64, 67
1, 356428, Control_c, 0, 64, 67
1, 356432, Note_off_c, 0, 88, 64
1, 356436, Note_on_c, 0, 70, 53
1, 356437, Note_on_c, 0, 84, 81
1, 356443, Control_c, 0, 64, 68
1, 356458, Control_c, 0, 64, 68
1, 356459, Note_off_c, 0, 70, 60
1, 356472, Control_c, 0, 64, 69
1, 356477, Note_off_c, 0, 84, 62
1, 356487, Control_c, 0, 64, 69
1, 356516, Note_on_c, 0, 72, 79
1, 356532, Control_c, 0, 64, 70
1, 356561, Note_off_c, 0, 72, 62
1, 356588, Note_on_c, 0, 78, 69
1, 356602, Note_on_c, 0, 76, 71
1, 356626, Note_off_c, 0, 76, 70
1, 356651, Control_c, 0, 64, 70
1, 356657, Note_off_c, 0, 78, 61
1, 356669, Note_on_c, 0, 82, 75
1, 356710, Note_off_c, 0, 82, 63
1, 356710, Control_c, 0, 64, 71
1, 356740, Control_c, 0, 64, 70
1, 356755, Control_c, 0, 64, 69
1, 356760, Note_on_c, 0, 78, 72
1, 356765, Note_on_c, 0, 84, 78
1, 356769, Control_c, 0, 64, 63
1, 356784, Control_c, 0, 64, 50
1, 356787, Note_off_c, 0, 78, 65
1, 356799, Control_c, 0, 64, 31
1, 356814, Control_c, 0, 64, 0
1, 356831, Note_on_c, 0, 66, 68
1, 356844, Control_c, 0, 64, 28
1, 356848, Note_on_c, 0, 88, 78
1, 356848, Note_off_c, 0, 84, 65
1, 356859, Control_c, 0, 64, 41
1, 356873, Control_c, 0, 64, 52
1, 356888, Control_c, 0, 64, 60
1, 356896, Note_off_c, 0, 66, 62
1, 356903, Control_c, 0, 64, 64
1, 356918, Control_c, 0, 64, 64
1, 356931, Note_off_c, 0, 88, 64
1, 356933, Control_c, 0, 64, 65
1, 356939, Note_on_c, 0, 70, 55
1, 356942, Note_on_c, 0, 84, 75
1, 356948, Control_c, 0, 64, 65
1, 356962, Control_c, 0, 64, 66
1, 356975, Note_off_c, 0, 70, 63
1, 356975, Note_off_c, 0, 84, 61
1, 356992, Control_c, 0, 67, 60
1, 357006, Control_c, 0, 64, 66
1, 357006, Control_c, 0, 67, 84
1, 357021, Control_c, 0, 67, 103
1, 357022, Note_on_c, 0, 72, 76
1, 357036, Control_c, 0, 67, 119
1, 357051, Control_c, 0, 67, 127
1, 357070, Note_off_c, 0, 72, 63
1, 357100, Note_on_c, 0, 78, 62
1, 357118, Note_on_c, 0, 76, 75
1, 357140, Note_off_c, 0, 76, 71
1, 357172, Note_off_c, 0, 78, 61
1, 357178, Note_on_c, 0, 82, 67
1, 357207, Control_c, 0, 64, 66
1, 357216, Note_off_c, 0, 82, 61
1, 357236, Control_c, 0, 64, 65
1, 357251, Control_c, 0, 64, 64
1, 357266, Control_c, 0, 64, 63
1, 357281, Control_c, 0, 64, 62
1, 357283, Note_on_c, 0, 78, 64
1, 357289, Note_on_c, 0, 84, 76
1, 357295, Control_c, 0, 64, 60
1, 357309, Note_off_c, 0, 78, 66
1, 357310, Control_c, 0, 64, 57
1, 357325, Control_c, 0, 64, 53
1, 357341, Control_c, 0, 64, 48
1, 357356, Control_c, 0, 64, 40
1, 357363, Note_off_c, 0, 84, 64
1, 357367, Note_on_c, 0, 66, 64
1, 357371, Control_c, 0, 64, 33
1, 357371, Note_on_c, 0, 88, 79
1, 357385, Control_c, 0, 64, 29
1, 357430, Control_c, 0, 64, 32
1, 357436, Note_off_c, 0, 66, 61
1, 357444, Control_c, 0, 64, 38
1, 357459, Control_c, 0, 64, 47
1, 357461, Note_off_c, 0, 88, 64
1, 357463, Note_on_c, 0, 84, 78
1, 357467, Note_on_c, 0, 70, 64
1, 357474, Control_c, 0, 64, 54
1, 357489, Control_c, 0, 64, 57
1, 357497, Note_off_c, 0, 84, 63
1, 357499, Note_off_c, 0, 70, 65
1, 357504, Control_c, 0, 64, 58
1, 357550, Note_on_c, 0, 72, 77
1, 357552, Note_on_c, 0, 78, 70
1, 357592, Control_c, 0, 64, 58
1, 357595, Note_off_c, 0, 72, 62
1, 357607, Control_c, 0, 64, 59
1, 357622, Control_c, 0, 64, 60
1, 357626, Note_off_c, 0, 78, 58
1, 357637, Control_c, 0, 64, 61
1, 357640, Note_on_c, 0, 76, 73
1, 357643, Note_on_c, 0, 82, 67
1, 357652, Control_c, 0, 64, 61
1, 357678, Note_off_c, 0, 82, 62
1, 357681, Control_c, 0, 64, 62
1, 357687, Note_off_c, 0, 76, 65
1, 357733, Note_on_c, 0, 78, 67
1, 357768, Note_off_c, 0, 78, 60
1, 357822, Note_on_c, 0, 66, 56
1, 357836, Note_on_c, 0, 76, 73
1, 357884, Note_off_c, 0, 66, 57
1, 357898, Note_off_c, 0, 76, 61
1, 357909, Note_on_c, 0, 84, 71
1, 357925, Note_on_c, 0, 70, 58
1, 357956, Note_off_c, 0, 70, 66
1, 357972, Note_off_c, 0, 84, 63
1, 357992, Note_on_c, 0, 88, 73
1, 358059, Note_off_c, 0, 88, 64
1, 358070, Note_on_c, 0, 84, 73
1, 358079, Note_on_c, 0, 70, 57
1, 358117, Control_c, 0, 64, 62
1, 358131, Note_off_c, 0, 84, 63
1, 358133, Note_off_c, 0, 70, 60
1, 358159, Note_on_c, 0, 76, 67
1, 358182, Note_on_c, 0, 78, 46
1, 358192, Note_off_c, 0, 76, 62
1, 358215, Note_off_c, 0, 78, 62
1, 358240, Note_on_c, 0, 84, 78
1, 358245, Note_on_c, 0, 82, 56
1, 358278, Note_off_c, 0, 82, 60
1, 358301, Note_on_c, 0, 78, 66
1, 358316, Note_off_c, 0, 84, 61
1, 358319, Note_on_c, 0, 76, 69
1, 358345, Note_off_c, 0, 78, 51
1, 358387, Note_off_c, 0, 76, 64
1, 358411, Note_on_c, 0, 72, 64
1, 358413, Note_on_c, 0, 70, 55
1, 358444, Control_c, 0, 64, 63
1, 358449, Note_off_c, 0, 70, 65
1, 358474, Note_off_c, 0, 72, 59
1, 358488, Note_on_c, 0, 76, 75
1, 358489, Note_on_c, 0, 78, 61
1, 358511, Note_off_c, 0, 76, 68
1, 358525, Note_off_c, 0, 78, 59
1, 358574, Note_on_c, 0, 84, 88
1, 358585, Note_on_c, 0, 70, 67
1, 358599, Control_c, 0, 64, 62
1, 358614, Control_c, 0, 64, 61
1, 358629, Control_c, 0, 64, 57
1, 358644, Control_c, 0, 64, 52
1, 358652, Note_off_c, 0, 84, 65
1, 358658, Control_c, 0, 64, 42
1, 358659, Note_on_c, 0, 88, 85
1, 358659, Note_off_c, 0, 70, 59
1, 358673, Control_c, 0, 64, 0
1, 358690, Note_on_c, 0, 66, 69
1, 358748, Note_on_c, 0, 84, 82
1, 358748, Note_off_c, 0, 66, 60
1, 358756, Note_off_c, 0, 88, 61
1, 358763, Control_c, 0, 64, 36
1, 358770, Note_on_c, 0, 70, 68
1, 358778, Control_c, 0, 64, 51
1, 358792, Control_c, 0, 64, 60
1, 358799, Note_off_c, 0, 84, 66
1, 358804, Note_off_c, 0, 70, 64
1, 358807, Control_c, 0, 64, 63
1, 358837, Control_c, 0, 64, 63
1, 358844, Note_on_c, 0, 72, 69
1, 358850, Note_on_c, 0, 78, 78
1, 358866, Control_c, 0, 64, 64
1, 358881, Control_c, 0, 64, 64
1, 358887, Note_on_c, 0, 74, 4
1, 358889, Note_off_c, 0, 72, 62
1, 358911, Control_c, 0, 64, 65
1, 358917, Note_off_c, 0, 78, 59
1, 358920, Note_on_c, 0, 76, 70
1, 358926, Control_c, 0, 64, 65
1, 358937, Note_on_c, 0, 82, 71
1, 358942, Control_c, 0, 64, 66
1, 358944, Note_off_c, 0, 74, 26
1, 358970, Note_off_c, 0, 82, 63
1, 358971, Control_c, 0, 64, 66
1, 358978, Note_off_c, 0, 76, 61
1, 358986, Control_c, 0, 64, 67
1, 359018, Note_on_c, 0, 78, 76
1, 359050, Note_off_c, 0, 78, 62
1, 359098, Note_on_c, 0, 66, 71
1, 359117, Note_on_c, 0, 76, 74
1, 359178, Note_off_c, 0, 66, 60
1, 359190, Note_on_c, 0, 84, 73
1, 359192, Note_off_c, 0, 76, 63
1, 359206, Note_on_c, 0, 70, 64
1, 359237, Control_c, 0, 64, 66
1, 359239, Note_off_c, 0, 70, 62
1, 359264, Note_off_c, 0, 84, 65
1, 359267, Control_c, 0, 64, 65
1, 359273, Note_on_c, 0, 88, 79
1, 359282, Control_c, 0, 64, 65
1, 359297, Control_c, 0, 64, 64
1, 359319, Control_c, 0, 64, 64
1, 359334, Control_c, 0, 64, 63
1, 359349, Control_c, 0, 64, 62
1, 359355, Note_off_c, 0, 88, 64
1, 359363, Control_c, 0, 64, 61
1, 359364, Note_on_c, 0, 84, 77
1, 359370, Note_on_c, 0, 70, 65
1, 359378, Control_c, 0, 64, 61
1, 359393, Control_c, 0, 64, 60
1, 359407, Control_c, 0, 64, 60
1, 359421, Note_off_c, 0, 84, 64
1, 359443, Note_off_c, 0, 70, 61
1, 359446, Note_on_c, 0, 76, 67
1, 359459, Note_on_c, 0, 78, 58
1, 359485, Note_off_c, 0, 76, 59
1, 359497, Note_off_c, 0, 78, 60
1, 359532, Note_on_c, 0, 84, 76
1, 359540, Note_on_c, 0, 82, 53
1, 359574, Note_off_c, 0, 82, 59
1, 359604, Note_on_c, 0, 78, 60
1, 359606, Note_off_c, 0, 84, 61
1, 359619, Note_on_c, 0, 76, 71
1, 359643, Note_off_c, 0, 78, 55
1, 359660, Control_c, 0, 64, 60
1, 359679, Note_off_c, 0, 76, 65
1, 359706, Note_on_c, 0, 70, 50
1, 359718, Note_on_c, 0, 72, 58
1, 359719, Control_c, 0, 64, 61
1, 359742, Note_off_c, 0, 70, 66
1, 359759, Note_off_c, 0, 72, 57
1, 359775, Note_on_c, 0, 78, 57
1, 359780, Control_c, 0, 64, 60
1, 359785, Note_on_c, 0, 76, 80
1, 359794, Control_c, 0, 64, 59
1, 359806, Note_off_c, 0, 76, 69
1, 359809, Control_c, 0, 64, 57
1, 359813, Note_off_c, 0, 78, 61
1, 359824, Control_c, 0, 64, 55
1, 359838, Control_c, 0, 64, 54
1, 359853, Control_c, 0, 64, 54
1, 359869, Note_on_c, 0, 70, 63
1, 359873, Note_on_c, 0, 76, 85
1, 359898, Control_c, 0, 64, 53
1, 359939, Note_off_c, 0, 76, 60
1, 359942, Control_c, 0, 64, 53
1, 359953, Note_off_c, 0, 70, 56
1, 359962, Note_on_c, 0, 84, 72
1, 359972, Control_c, 0, 64, 52
1, 359973, Note_on_c, 0, 66, 70
1, 360001, Control_c, 0, 64, 53
1, 360016, Control_c, 0, 64, 54
1, 360024, Note_off_c, 0, 66, 57
1, 360030, Control_c, 0, 64, 55
1, 360031, Note_off_c, 0, 84, 64
1, 360037, Note_on_c, 0, 88, 78
1, 360061, Note_on_c, 0, 70, 55
1, 360083, Control_c, 0, 64, 55
1, 360118, Note_off_c, 0, 70, 64
1, 360127, Note_off_c, 0, 88, 64
1, 360139, Note_on_c, 0, 84, 69
1, 360157, Control_c, 0, 64, 56
1, 360160, Note_on_c, 0, 78, 59
1, 360198, Note_off_c, 0, 84, 62
1, 360216, Control_c, 0, 64, 55
1, 360223, Note_on_c, 0, 76, 69
1, 360223, Note_off_c, 0, 78, 55
1, 360260, Control_c, 0, 64, 55
1, 360265, Note_off_c, 0, 76, 57
1, 360267, Note_on_c, 0, 82, 43
1, 360275, Control_c, 0, 64, 54
1, 360290, Note_off_c, 0, 82, 53
1, 360314, Note_on_c, 0, 84, 73
1, 360382, Note_on_c, 0, 70, 59
1, 360397, Note_off_c, 0, 84, 59
1, 360406, Note_on_c, 0, 76, 71
1, 360442, Note_off_c, 0, 70, 63
1, 360465, Note_off_c, 0, 76, 63
1, 360486, Note_on_c, 0, 78, 54
1, 360501, Note_on_c, 0, 72, 63
1, 360507, Note_off_c, 0, 78, 62
1, 360541, Note_off_c, 0, 72, 54
1, 360571, Note_on_c, 0, 70, 57
1, 360582, Note_on_c, 0, 76, 66
1, 360588, Control_c, 0, 64, 54
1, 360602, Control_c, 0, 64, 53
1, 360608, Note_off_c, 0, 76, 66
1, 360617, Control_c, 0, 64, 50
1, 360632, Note_off_c, 0, 70, 56
1, 360632, Control_c, 0, 64, 45
1, 360647, Control_c, 0, 64, 39
1, 360661, Control_c, 0, 64, 31
1, 360676, Note_on_c, 0, 66, 55
1, 360676, Control_c, 0, 64, 0
1, 360677, Note_on_c, 0, 86, 76
1, 360726, Note_off_c, 0, 86, 62
1, 360740, Note_off_c, 0, 66, 60
1, 360775, Note_on_c, 0, 84, 77
1, 360780, Note_on_c, 0, 70, 48
1, 360838, Note_off_c, 0, 84, 64
1, 360871, Note_off_c, 0, 70, 53
1, 360901, Note_on_c, 0, 83, 74
1, 360919, Note_on_c, 0, 67, 53
1, 360979, Control_c, 0, 64, 29
1, 360994, Control_c, 0, 64, 42
1, 361001, Note_on_c, 0, 78, 51
1, 361009, Control_c, 0, 64, 52
1, 361017, Note_on_c, 0, 73, 43
1, 361024, Control_c, 0, 64, 59
1, 361030, Note_off_c, 0, 78, 53
1, 361039, Control_c, 0, 64, 60
1, 361058, Note_off_c, 0, 73, 61
1, 361068, Control_c, 0, 64, 60
1, 361083, Control_c, 0, 64, 61
1, 361098, Control_c, 0, 64, 61
1, 361108, Note_on_c, 0, 87, 49
1, 361121, Note_on_c, 0, 71, 26
1, 361127, Control_c, 0, 64, 62
1, 361150, Note_off_c, 0, 87, 60
1, 361157, Control_c, 0, 64, 61
1, 361163, Note_off_c, 0, 71, 51
1, 361172, Control_c, 0, 64, 56
1, 361178, Note_on_c, 0, 82, 66
1, 361187, Control_c, 0, 64, 48
1, 361191, Note_on_c, 0, 77, 61
1, 361202, Control_c, 0, 64, 42
1, 361206, Note_off_c, 0, 83, 50
1, 361211, Note_off_c, 0, 67, 59
1, 361217, Control_c, 0, 64, 39
1, 361219, Note_off_c, 0, 77, 65
1, 361246, Control_c, 0, 64, 41
1, 361250, Note_off_c, 0, 82, 60
1, 361261, Control_c, 0, 64, 45
1, 361272, Note_on_c, 0, 86, 64
1, 361276, Control_c, 0, 64, 49
1, 361291, Control_c, 0, 64, 53
1, 361306, Control_c, 0, 64, 55
1, 361321, Control_c, 0, 64, 56
1, 361331, Note_off_c, 0, 86, 57
1, 361336, Control_c, 0, 64, 56
1, 361360, Note_on_c, 0, 84, 72
1, 361381, Control_c, 0, 64, 53
1, 361396, Control_c, 0, 64, 45
1, 361410, Control_c, 0, 64, 31
1, 361413, Note_off_c, 0, 84, 64
1, 361425, Control_c, 0, 64, 0
1, 361449, Note_on_c, 0, 83, 80
1, 361470, Control_c, 0, 64, 32
1, 361473, Note_on_c, 0, 67, 57
1, 361484, Control_c, 0, 64, 43
1, 361499, Control_c, 0, 64, 53
1, 361514, Control_c, 0, 64, 60
1, 361529, Control_c, 0, 64, 62
1, 361544, Control_c, 0, 64, 62
1, 361553, Note_on_c, 0, 78, 57
1, 361571, Note_on_c, 0, 73, 48
1, 361580, Control_c, 0, 64, 63
1, 361595, Control_c, 0, 64, 63
1, 361610, Control_c, 0, 64, 64
1, 361613, Note_off_c, 0, 73, 60
1, 361625, Control_c, 0, 64, 64
1, 361632, Note_off_c, 0, 83, 60
1, 361640, Control_c, 0, 64, 65
1, 361652, Note_on_c, 0, 87, 53
1, 361667, Note_on_c, 0, 71, 40
1, 361670, Control_c, 0, 64, 65
1, 361715, Note_off_c, 0, 87, 53
1, 361721, Note_off_c, 0, 71, 54
1, 361753, Note_on_c, 0, 82, 69
1, 361756, Note_on_c, 0, 77, 59
1, 361758, Control_c, 0, 64, 65
1, 361771, Note_off_c, 0, 78, 56
1, 361773, Control_c, 0, 64, 61
1, 361774, Note_off_c, 0, 67, 47
1, 361777, Note_off_c, 0, 77, 65
1, 361788, Control_c, 0, 64, 50
1, 361802, Control_c, 0, 64, 30
1, 361817, Control_c, 0, 64, 0
1, 361833, Note_off_c, 0, 82, 57
1, 361849, Note_on_c, 0, 86, 68
1, 361901, Note_off_c, 0, 86, 62
1, 361941, Note_on_c, 0, 84, 67
1, 361985, Note_off_c, 0, 84, 65
1, 362027, Note_on_c, 0, 83, 81
1, 362039, Control_c, 0, 64, 39
1, 362041, Note_on_c, 0, 67, 62
1, 362054, Control_c, 0, 64, 51
1, 362069, Control_c, 0, 64, 58
1, 362084, Control_c, 0, 64, 61
1, 362099, Control_c, 0, 64, 62
1, 362114, Control_c, 0, 64, 62
1, 362129, Control_c, 0, 64, 63
1, 362139, Note_on_c, 0, 78, 51
1, 362144, Control_c, 0, 64, 64
1, 362159, Control_c, 0, 64, 65
1, 362167, Note_off_c, 0, 67, 59
1, 362174, Control_c, 0, 64, 66
1, 362188, Control_c, 0, 64, 68
1, 362191, Note_on_c, 0, 73, 7
1, 362193, Note_off_c, 0, 78, 49
1, 362203, Control_c, 0, 64, 69
1, 362212, Note_off_c, 0, 83, 47
1, 362218, Control_c, 0, 64, 70
1, 362233, Control_c, 0, 64, 71
1, 362233, Note_on_c, 0, 71, 48
1, 362237, Note_on_c, 0, 87, 63
1, 362242, Note_off_c, 0, 73, 35
1, 362248, Control_c, 0, 64, 71
1, 362263, Control_c, 0, 64, 71
1, 362272, Note_off_c, 0, 71, 53
1, 362278, Control_c, 0, 64, 68
1, 362293, Control_c, 0, 64, 63
1, 362314, Control_c, 0, 64, 57
1, 362326, Note_on_c, 0, 82, 80
1, 362329, Control_c, 0, 64, 55
1, 362344, Control_c, 0, 64, 55
1, 362351, Note_on_c, 0, 77, 51
1, 362359, Control_c, 0, 64, 59
1, 362374, Control_c, 0, 64, 62
1, 362381, Note_off_c, 0, 87, 25
1, 362388, Note_off_c, 0, 77, 64
1, 362388, Control_c, 0, 64, 64
1, 362403, Control_c, 0, 64, 66
1, 362412, Note_off_c, 0, 82, 61
1, 362418, Control_c, 0, 64, 68
1, 362424, Note_on_c, 0, 91, 60
1, 362433, Control_c, 0, 64, 70
1, 362438, Note_on_c, 0, 75, 47
1, 362448, Control_c, 0, 64, 72
1, 362463, Control_c, 0, 64, 74
1, 362473, Note_off_c, 0, 75, 60
1, 362476, Note_off_c, 0, 91, 61
1, 362478, Control_c, 0, 64, 75
1, 362492, Control_c, 0, 64, 75
1, 362507, Control_c, 0, 64, 75
1, 362522, Control_c, 0, 64, 73
1, 362523, Note_on_c, 0, 86, 73
1, 362531, Note_on_c, 0, 81, 64
1, 362537, Control_c, 0, 64, 64
1, 362552, Control_c, 0, 64, 44
1, 362566, Control_c, 0, 64, 0
1, 362567, Note_off_c, 0, 86, 62
1, 362588, Note_off_c, 0, 81, 60
1, 362596, Control_c, 0, 64, 30
1, 362611, Control_c, 0, 64, 45
1, 362620, Note_on_c, 0, 79, 50
1, 362623, Note_on_c, 0, 95, 61
1, 362626, Control_c, 0, 64, 57
1, 362640, Control_c, 0, 64, 63
1, 362655, Control_c, 0, 64, 66
1, 362662, Note_off_c, 0, 95, 53
1, 362670, Control_c, 0, 64, 66
1, 362673, Note_off_c, 0, 79, 55
1, 362700, Control_c, 0, 64, 67
1, 362705, Note_on_c, 0, 91, 60
1, 362714, Control_c, 0, 64, 67
1, 362729, Control_c, 0, 64, 68
1, 362758, Control_c, 0, 64, 68
1, 362770, Note_off_c, 0, 91, 51
1, 362773, Control_c, 0, 64, 69
1, 362795, Note_on_c, 0, 86, 63
1, 362803, Control_c, 0, 64, 69
1, 362820, Note_off_c, 0, 86, 65
1, 362886, Note_on_c, 0, 79, 58
1, 362892, Control_c, 0, 64, 69
1, 362903, Note_off_c, 0, 79, 64
1, 362907, Control_c, 0, 64, 65
1, 362922, Control_c, 0, 64, 56
1, 362937, Control_c, 0, 64, 40
1, 362952, Control_c, 0, 64, 0
1, 362990, Note_on_c, 0, 86, 55
1, 363027, Note_off_c, 0, 86, 60
1, 363078, Note_on_c, 0, 84, 60
1, 363124, Note_off_c, 0, 84, 58
1, 363177, Note_on_c, 0, 83, 63
1, 363181, Control_c, 0, 64, 30
1, 363196, Control_c, 0, 64, 43
1, 363211, Control_c, 0, 64, 53
1, 363216, Note_on_c, 0, 67, 31
1, 363226, Control_c, 0, 64, 59
1, 363241, Control_c, 0, 64, 61
1, 363271, Control_c, 0, 64, 61
1, 363272, Note_off_c, 0, 67, 43
1, 363276, Note_on_c, 0, 73, 29
1, 363281, Note_on_c, 0, 78, 31
1, 363285, Control_c, 0, 64, 62
1, 363315, Control_c, 0, 64, 62
1, 363317, Note_off_c, 0, 73, 49
1, 363341, Note_off_c, 0, 83, 58
1, 363345, Control_c, 0, 64, 63
1, 363369, Note_on_c, 0, 71, 31
1, 363369, Note_on_c, 0, 87, 47
1, 363374, Control_c, 0, 64, 63
1, 363417, Note_off_c, 0, 87, 58
1, 363419, Control_c, 0, 64, 63
1, 363422, Note_off_c, 0, 71, 44
1, 363434, Control_c, 0, 64, 62
1, 363449, Control_c, 0, 64, 58
1, 363449, Note_on_c, 0, 77, 55
1, 363463, Control_c, 0, 64, 52
1, 363468, Note_on_c, 0, 82, 52
1, 363473, Note_off_c, 0, 77, 63
1, 363478, Control_c, 0, 64, 45
1, 363493, Control_c, 0, 64, 39
1, 363508, Control_c, 0, 64, 35
1, 363516, Note_off_c, 0, 78, 43
1, 363520, Note_off_c, 0, 82, 53
1, 363523, Control_c, 0, 64, 33
1, 363562, Note_on_c, 0, 86, 54
1, 363581, Control_c, 0, 64, 31
1, 363601, Note_off_c, 0, 86, 62
1, 363626, Control_c, 0, 64, 28
1, 363641, Control_c, 0, 64, 0
1, 363653, Note_on_c, 0, 84, 56
1, 363684, Note_off_c, 0, 84, 65
1, 363700, Control_c, 0, 64, 31
1, 363715, Control_c, 0, 64, 40
1, 363731, Control_c, 0, 64, 51
1, 363743, Note_on_c, 0, 83, 67
1, 363745, Control_c, 0, 64, 59
1, 363751, Note_on_c, 0, 67, 51
1, 363760, Control_c, 0, 64, 62
1, 363775, Control_c, 0, 64, 62
1, 363790, Control_c, 0, 64, 63
1, 363814, Note_off_c, 0, 67, 49
1, 363827, Control_c, 0, 64, 63
1, 363842, Control_c, 0, 64, 64
1, 363843, Note_on_c, 0, 78, 32
1, 363870, Note_on_c, 0, 73, 37
1, 363872, Control_c, 0, 64, 64
1, 363899, Note_off_c, 0, 73, 56
1, 363916, Control_c, 0, 64, 65
1, 363919, Note_off_c, 0, 83, 52
1, 363943, Note_on_c, 0, 87, 45
1, 363953, Note_on_c, 0, 71, 37
1, 363989, Note_off_c, 0, 71, 51
1, 363989, Note_off_c, 0, 87, 58
1, 364019, Control_c, 0, 64, 63
1, 364034, Note_on_c, 0, 77, 57
1, 364034, Control_c, 0, 64, 56
1, 364043, Note_on_c, 0, 82, 50
1, 364049, Control_c, 0, 64, 43
1, 364053, Note_off_c, 0, 77, 63
1, 364064, Control_c, 0, 64, 0
1, 364076, Note_off_c, 0, 78, 46
1, 364087, Note_off_c, 0, 82, 56
1, 364139, Note_on_c, 0, 86, 57
1, 364190, Note_off_c, 0, 86, 58
1, 364236, Note_on_c, 0, 84, 58
1, 364269, Note_off_c, 0, 84, 64
1, 364316, Control_c, 0, 64, 41
1, 364319, Note_on_c, 0, 83, 66
1, 364323, Note_on_c, 0, 67, 55
1, 364330, Control_c, 0, 64, 52
1, 364345, Control_c, 0, 64, 59
1, 364360, Control_c, 0, 64, 61
1, 364375, Control_c, 0, 64, 62
1, 364390, Control_c, 0, 64, 62
1, 364404, Control_c, 0, 64, 63
1, 364407, Note_off_c, 0, 67, 53
1, 364419, Control_c, 0, 64, 64
1, 364434, Control_c, 0, 64, 65
1, 364437, Note_on_c, 0, 78, 31
1, 364449, Control_c, 0, 64, 65
1, 364464, Control_c, 0, 64, 66
1, 364478, Control_c, 0, 64, 67
1, 364484, Note_off_c, 0, 78, 43
1, 364493, Control_c, 0, 64, 68
1, 364494, Note_off_c, 0, 83, 38
1, 364508, Control_c, 0, 64, 68
1, 364514, Note_on_c, 0, 71, 22
1, 364517, Note_on_c, 0, 87, 52
1, 364524, Control_c, 0, 64, 68
1, 364539, Control_c, 0, 64, 67
1, 364561, Control_c, 0, 64, 65
1, 364567, Note_off_c, 0, 71, 43
1, 364576, Control_c, 0, 64, 60
1, 364591, Control_c, 0, 64, 55
1, 364606, Note_on_c, 0, 82, 67
1, 364606, Control_c, 0, 64, 54
1, 364619, Note_on_c, 0, 77, 42
1, 364621, Control_c, 0, 64, 56
1, 364635, Control_c, 0, 64, 59
1, 364650, Control_c, 0, 64, 62
1, 364654, Note_off_c, 0, 77, 53
1, 364665, Control_c, 0, 64, 63
1, 364680, Control_c, 0, 64, 64
1, 364695, Control_c, 0, 64, 65
1, 364698, Note_off_c, 0, 82, 56
1, 364699, Note_on_c, 0, 75, 47
1, 364709, Control_c, 0, 64, 66
1, 364712, Note_on_c, 0, 91, 44
1, 364724, Control_c, 0, 64, 67
1, 364739, Control_c, 0, 64, 68
1, 364745, Note_off_c, 0, 75, 58
1, 364753, Control_c, 0, 64, 68
1, 364756, Note_off_c, 0, 91, 46
1, 364761, Note_off_c, 0, 87, 19
1, 364798, Note_on_c, 0, 86, 70
1, 364798, Control_c, 0, 64, 67
1, 364812, Note_on_c, 0, 81, 56
1, 364813, Control_c, 0, 64, 62
1, 364827, Control_c, 0, 64, 50
1, 364842, Control_c, 0, 64, 37
1, 364851, Note_off_c, 0, 81, 57
1, 364856, Note_off_c, 0, 86, 60
1, 364857, Control_c, 0, 64, 32
1, 364872, Control_c, 0, 64, 33
1, 364887, Control_c, 0, 64, 39
1, 364898, Note_on_c, 0, 79, 42
1, 364900, Note_on_c, 0, 95, 66
1, 364901, Control_c, 0, 64, 50
1, 364916, Control_c, 0, 64, 59
1, 364931, Control_c, 0, 64, 62
1, 364937, Note_off_c, 0, 79, 60
1, 364946, Control_c, 0, 64, 63
1, 364967, Note_off_c, 0, 95, 59
1, 364976, Control_c, 0, 64, 64
1, 364990, Note_on_c, 0, 91, 57
1, 365005, Control_c, 0, 64, 65
1, 365020, Control_c, 0, 64, 65
1, 365035, Control_c, 0, 64, 66
1, 365050, Control_c, 0, 64, 67
1, 365059, Note_off_c, 0, 91, 57
1, 365065, Control_c, 0, 64, 67
1, 365076, Note_on_c, 0, 86, 61
1, 365080, Control_c, 0, 64, 68
1, 365094, Control_c, 0, 64, 68
1, 365104, Note_off_c, 0, 86, 67
1, 365109, Control_c, 0, 64, 69
1, 365124, Control_c, 0, 64, 69
1, 365139, Control_c, 0, 67, 106
1, 365153, Control_c, 0, 67, 76
1, 365163, Note_on_c, 0, 79, 59
1, 365168, Control_c, 0, 67, 43
1, 365181, Note_off_c, 0, 79, 64
1, 365183, Control_c, 0, 64, 68
1, 365183, Control_c, 0, 67, 0
1, 365198, Control_c, 0, 64, 64
1, 365213, Control_c, 0, 64, 55
1, 365227, Control_c, 0, 64, 45
1, 365242, Control_c, 0, 64, 37
1, 365247, Note_on_c, 0, 91, 81
1, 365257, Control_c, 0, 64, 30
1, 365272, Control_c, 0, 64, 0
1, 365340, Note_off_c, 0, 91, 66
1, 365343, Note_on_c, 0, 95, 81
1, 365429, Control_c, 0, 64, 33
1, 365444, Note_off_c, 0, 95, 66
1, 365444, Control_c, 0, 64, 45
1, 365446, Note_on_c, 0, 60, 55
1, 365446, Note_on_c, 0, 91, 78
1, 365458, Control_c, 0, 64, 56
1, 365473, Control_c, 0, 64, 61
1, 365488, Control_c, 0, 64, 63
1, 365495, Note_off_c, 0, 91, 66
1, 365503, Control_c, 0, 64, 63
1, 365515, Note_off_c, 0, 60, 62
1, 365518, Control_c, 0, 64, 64
1, 365533, Control_c, 0, 64, 65
1, 365535, Note_on_c, 0, 79, 64
1, 365538, Note_on_c, 0, 66, 54
1, 365548, Control_c, 0, 64, 66
1, 365563, Control_c, 0, 64, 66
1, 365577, Control_c, 0, 64, 67
1, 365605, Note_off_c, 0, 66, 62
1, 365607, Control_c, 0, 64, 67
1, 365613, Note_off_c, 0, 79, 59
1, 365625, Note_on_c, 0, 83, 68
1, 365637, Note_on_c, 0, 71, 53
1, 365655, Note_off_c, 0, 83, 62
1, 365723, Note_off_c, 0, 71, 59
1, 365730, Note_on_c, 0, 75, 62
1, 365771, Note_off_c, 0, 75, 59
1, 365817, Note_on_c, 0, 83, 74
1, 365858, Control_c, 0, 64, 67
1, 365873, Control_c, 0, 64, 65
1, 365888, Control_c, 0, 64, 63
1, 365903, Control_c, 0, 64, 60
1, 365906, Note_on_c, 0, 91, 77
1, 365908, Note_off_c, 0, 83, 59
1, 365918, Control_c, 0, 64, 54
1, 365932, Control_c, 0, 64, 49
1, 365947, Control_c, 0, 64, 45
1, 365962, Control_c, 0, 64, 42
1, 365977, Control_c, 0, 64, 38
1, 365988, Note_off_c, 0, 91, 67
1, 365992, Control_c, 0, 64, 35
1, 365994, Note_on_c, 0, 95, 83
1, 366007, Control_c, 0, 64, 34
1, 366010, Note_on_c, 0, 60, 60
1, 366022, Control_c, 0, 64, 33
1, 366073, Control_c, 0, 64, 32
1, 366079, Note_off_c, 0, 60, 63
1, 366092, Note_off_c, 0, 95, 65
1, 366094, Note_on_c, 0, 91, 77
1, 366101, Note_on_c, 0, 66, 55
1, 366150, Note_off_c, 0, 91, 66
1, 366159, Note_off_c, 0, 66, 62
1, 366186, Note_on_c, 0, 83, 62
1, 366220, Note_on_c, 0, 71, 32
1, 366222, Control_c, 0, 64, 33
1, 366224, Note_off_c, 0, 83, 58
1, 366237, Control_c, 0, 64, 38
1, 366251, Control_c, 0, 64, 48
1, 366261, Note_off_c, 0, 71, 50
1, 366266, Control_c, 0, 64, 58
1, 366272, Note_on_c, 0, 91, 70
1, 366281, Control_c, 0, 64, 63
1, 366296, Control_c, 0, 64, 64
1, 366298, Note_on_c, 0, 75, 52
1, 366311, Control_c, 0, 64, 65
1, 366322, Note_off_c, 0, 75, 64
1, 366326, Control_c, 0, 64, 65
1, 366334, Note_off_c, 0, 91, 53
1, 366341, Control_c, 0, 64, 66
1, 366363, Note_on_c, 0, 83, 68
1, 366370, Control_c, 0, 64, 66
1, 366385, Control_c, 0, 64, 67
1, 366417, Note_off_c, 0, 83, 62
1, 366429, Control_c, 0, 64, 67
1, 366445, Note_on_c, 0, 79, 68
1, 366487, Note_off_c, 0, 79, 61
1, 366503, Control_c, 0, 64, 67
1, 366517, Control_c, 0, 64, 65
1, 366530, Note_on_c, 0, 82, 73
1, 366532, Control_c, 0, 64, 59
1, 366547, Control_c, 0, 64, 51
1, 366552, Note_off_c, 0, 82, 71
1, 366554, Note_on_c, 0, 60, 54
1, 366562, Control_c, 0, 64, 44
1, 366565, Note_on_c, 0, 81, 63
1, 366577, Control_c, 0, 64, 38
1, 366579, Note_off_c, 0, 60, 60
1, 366591, Control_c, 0, 64, 34
1, 366606, Control_c, 0, 64, 30
1, 366611, Note_on_c, 0, 67, 51
1, 366618, Note_on_c, 0, 82, 70
1, 366621, Control_c, 0, 64, 0
1, 366641, Note_off_c, 0, 81, 43
1, 366663, Note_off_c, 0, 67, 57
1, 366666, Control_c, 0, 67, 41
1, 366681, Control_c, 0, 67, 47
1, 366696, Control_c, 0, 67, 53
1, 366710, Control_c, 0, 67, 60
1, 366723, Note_on_c, 0, 72, 40
1, 366725, Control_c, 0, 64, 36
1, 366725, Control_c, 0, 67, 70
1, 366740, Control_c, 0, 64, 49
1, 366740, Control_c, 0, 67, 81
1, 366755, Control_c, 0, 64, 58
1, 366755, Control_c, 0, 67, 92
1, 366770, Control_c, 0, 64, 62
1, 366770, Control_c, 0, 67, 103
1, 366776, Note_off_c, 0, 72, 47
1, 366785, Control_c, 0, 64, 62
1, 366785, Control_c, 0, 67, 114
1, 366806, Control_c, 0, 64, 63
1, 366806, Control_c, 0, 67, 125
1, 366821, Control_c, 0, 64, 63
1, 366821, Control_c, 0, 67, 127
1, 366836, Control_c, 0, 64, 64
1, 366839, Note_off_c, 0, 82, 61
1, 366851, Control_c, 0, 64, 64
1, 366855, Note_on_c, 0, 76, 49
1, 366865, Note_on_c, 0, 79, 53
1, 366866, Control_c, 0, 64, 65
1, 366880, Control_c, 0, 64, 65
1, 366897, Note_off_c, 0, 76, 61
1, 366899, Note_off_c, 0, 79, 63
1, 366963, Note_on_c, 0, 90, 68
1, 367007, Note_off_c, 0, 90, 57
1, 367064, Note_on_c, 0, 94, 63
1, 367089, Control_c, 0, 64, 64
1, 367104, Control_c, 0, 64, 61
1, 367119, Control_c, 0, 64, 53
1, 367123, Note_off_c, 0, 94, 63
1, 367134, Control_c, 0, 64, 45
1, 367141, Note_on_c, 0, 60, 47
1, 367141, Note_on_c, 0, 90, 60
1, 367148, Control_c, 0, 64, 35
1, 367163, Control_c, 0, 64, 0
1, 367181, Note_off_c, 0, 90, 61
1, 367189, Note_off_c, 0, 60, 63
1, 367237, Control_c, 0, 64, 34
1, 367238, Note_on_c, 0, 65, 40
1, 367241, Note_on_c, 0, 78, 57
1, 367252, Control_c, 0, 64, 44
1, 367267, Control_c, 0, 64, 51
1, 367282, Control_c, 0, 64, 56
1, 367290, Note_off_c, 0, 78, 51
1, 367296, Control_c, 0, 64, 59
1, 367311, Control_c, 0, 64, 60
1, 367317, Note_off_c, 0, 65, 58
1, 367326, Control_c, 0, 64, 61
1, 367338, Note_on_c, 0, 70, 51
1, 367340, Control_c, 0, 64, 62
1, 367348, Note_on_c, 0, 82, 50
1, 367355, Control_c, 0, 64, 62
1, 367370, Control_c, 0, 64, 63
1, 367385, Control_c, 0, 64, 64
1, 367388, Note_off_c, 0, 70, 55
1, 367389, Note_off_c, 0, 82, 60
1, 367400, Control_c, 0, 64, 64
1, 367441, Note_on_c, 0, 73, 45
1, 367472, Note_off_c, 0, 73, 54
1, 367524, Note_on_c, 0, 82, 60
1, 367610, Note_off_c, 0, 82, 58
1, 367616, Note_on_c, 0, 90, 69
1, 367629, Control_c, 0, 64, 64
1, 367644, Control_c, 0, 64, 62
1, 367659, Control_c, 0, 64, 58
1, 367674, Control_c, 0, 64, 55
1, 367689, Control_c, 0, 64, 53
1, 367697, Note_off_c, 0, 90, 63
1, 367701, Note_on_c, 0, 60, 55
1, 367703, Control_c, 0, 64, 53
1, 367705, Note_on_c, 0, 94, 80
1, 367719, Control_c, 0, 64, 52
1, 367749, Control_c, 0, 64, 51
1, 367760, Note_off_c, 0, 60, 61
1, 367764, Control_c, 0, 64, 50
1, 367778, Control_c, 0, 64, 49
1, 367801, Note_off_c, 0, 94, 63
1, 367804, Note_on_c, 0, 65, 38
1, 367807, Note_on_c, 0, 90, 75
1, 367808, Control_c, 0, 64, 49
1, 367823, Control_c, 0, 64, 48
1, 367838, Control_c, 0, 64, 48
1, 367852, Control_c, 0, 64, 47
1, 367864, Note_off_c, 0, 65, 54
1, 367865, Note_off_c, 0, 90, 65
1, 367867, Control_c, 0, 64, 46
1, 367882, Control_c, 0, 64, 44
1, 367894, Note_on_c, 0, 70, 53
1, 367894, Note_on_c, 0, 82, 73
1, 367897, Control_c, 0, 64, 43
1, 367912, Control_c, 0, 64, 40
1, 367927, Control_c, 0, 64, 37
1, 367934, Note_off_c, 0, 70, 65
1, 367942, Control_c, 0, 64, 35
1, 367948, Note_off_c, 0, 82, 59
1, 367971, Control_c, 0, 64, 37
1, 367982, Note_on_c, 0, 90, 75
1, 367986, Control_c, 0, 64, 42
1, 367994, Note_on_c, 0, 73, 46
1, 368001, Control_c, 0, 64, 52
1, 368016, Control_c, 0, 64, 59
1, 368016, Note_off_c, 0, 73, 59
1, 368031, Control_c, 0, 64, 63
1, 368045, Control_c, 0, 64, 64
1, 368060, Note_off_c, 0, 90, 63
1, 368060, Control_c, 0, 64, 65
1, 368061, Note_on_c, 0, 82, 81
1, 368075, Control_c, 0, 64, 66
1, 368090, Control_c, 0, 64, 67
1, 368105, Control_c, 0, 64, 69
1, 368105, Control_c, 0, 67, 98
1, 368119, Control_c, 0, 64, 70
1, 368119, Control_c, 0, 67, 52
1, 368130, Note_off_c, 0, 82, 60
1, 368134, Control_c, 0, 64, 70
1, 368134, Control_c, 0, 67, 0
1, 368148, Note_on_c, 0, 78, 85
1, 368149, Control_c, 0, 64, 71
1, 368164, Control_c, 0, 64, 71
1, 368188, Note_off_c, 0, 78, 64
1, 368223, Control_c, 0, 64, 70
1, 368238, Control_c, 0, 64, 64
1, 368240, Note_on_c, 0, 81, 83
1, 368249, Note_on_c, 0, 61, 70
1, 368252, Control_c, 0, 64, 53
1, 368267, Control_c, 0, 64, 0
1, 368278, Note_off_c, 0, 81, 67
1, 368329, Note_off_c, 0, 61, 61
1, 368337, Note_on_c, 0, 66, 79
1, 368341, Note_on_c, 0, 81, 81
1, 368397, Note_off_c, 0, 81, 64
1, 368423, Note_off_c, 0, 66, 63
1, 368425, Note_on_c, 0, 69, 81
1, 368427, Note_on_c, 0, 77, 79
1, 368440, Note_on_c, 0, 79, 64
1, 368459, Note_off_c, 0, 79, 63
1, 368472, Note_off_c, 0, 77, 64
1, 368484, Note_off_c, 0, 69, 64
1, 368502, Note_on_c, 0, 72, 94
1, 368511, Note_on_c, 0, 88, 94
1, 368532, Note_off_c, 0, 72, 68
1, 368558, Note_off_c, 0, 88, 64
1, 368612, Note_on_c, 0, 86, 81
1, 368680, Note_off_c, 0, 86, 62
1, 368702, Note_on_c, 0, 84, 71
1, 368706, Control_c, 0, 67, 55
1, 368720, Control_c, 0, 67, 75
1, 368735, Control_c, 0, 67, 94
1, 368750, Note_off_c, 0, 84, 59
1, 368750, Control_c, 0, 67, 111
1, 368765, Control_c, 0, 67, 127
1, 368788, Note_on_c, 0, 83, 68
1, 368792, Note_on_c, 0, 71, 66
1, 368850, Note_off_c, 0, 71, 55
1, 368858, Note_off_c, 0, 83, 62
1, 368887, Note_on_c, 0, 78, 62
1, 368902, Note_on_c, 0, 73, 51
1, 368931, Note_off_c, 0, 78, 55
1, 368949, Note_off_c, 0, 73, 57
1, 368976, Note_on_c, 0, 71, 62
1, 368983, Note_on_c, 0, 87, 50
1, 369022, Note_off_c, 0, 87, 60
1, 369076, Note_on_c, 0, 82, 54
1, 369077, Note_off_c, 0, 71, 55
1, 369086, Note_on_c, 0, 70, 63
1, 369119, Note_off_c, 0, 82, 60
1, 369146, Note_off_c, 0, 70, 61
1, 369158, Note_on_c, 0, 74, 62
1, 369162, Note_on_c, 0, 91, 65
1, 369190, Note_off_c, 0, 74, 62
1, 369212, Note_off_c, 0, 91, 64
1, 369249, Note_on_c, 0, 86, 63
1, 369250, Note_on_c, 0, 72, 60
1, 369304, Note_off_c, 0, 72, 60
1, 369337, Note_on_c, 0, 71, 67
1, 369339, Note_on_c, 0, 83, 70
1, 369343, Note_off_c, 0, 86, 54
1, 369411, Note_off_c, 0, 71, 60
1, 369414, Note_off_c, 0, 83, 60
1, 369426, Note_on_c, 0, 78, 74
1, 369433, Note_on_c, 0, 73, 67
1, 369490, Note_off_c, 0, 78, 59
1, 369498, Note_off_c, 0, 73, 62
1, 369514, Note_on_c, 0, 71, 75
1, 369516, Note_on_c, 0, 87, 70
1, 369585, Note_off_c, 0, 87, 60
1, 369606, Note_on_c, 0, 70, 65
1, 369608, Note_on_c, 0, 82, 65
1, 369625, Note_off_c, 0, 71, 61
1, 369662, Note_off_c, 0, 70, 63
1, 369662, Note_off_c, 0, 82, 60
1, 369675, Note_on_c, 0, 74, 79
1, 369688, Note_on_c, 0, 91, 74
1, 369715, Note_off_c, 0, 74, 59
1, 369742, Note_off_c, 0, 91, 65
1, 369774, Note_on_c, 0, 86, 65
1, 369798, Note_on_c, 0, 72, 64
1, 369839, Note_off_c, 0, 72, 57
1, 369848, Note_on_c, 0, 71, 98
1, 369856, Note_on_c, 0, 83, 74
1, 369867, Note_off_c, 0, 86, 59
1, 369879, Note_off_c, 0, 71, 66
1, 369891, Control_c, 0, 67, 116
1, 369906, Control_c, 0, 67, 87
1, 369921, Control_c, 0, 67, 58
1, 369922, Note_off_c, 0, 83, 59
1, 369936, Control_c, 0, 67, 0
1, 369962, Note_on_c, 0, 78, 67
1, 370010, Note_off_c, 0, 78, 53
1, 370031, Note_on_c, 0, 58, 85
1, 370055, Note_on_c, 0, 87, 64
1, 370056, Note_off_c, 0, 58, 66
1, 370121, Note_on_c, 0, 82, 75
1, 370133, Note_off_c, 0, 87, 58
1, 370169, Note_off_c, 0, 82, 64
1, 370193, Note_on_c, 0, 69, 101
1, 370198, Note_on_c, 0, 91, 84
1, 370223, Note_off_c, 0, 69, 67
1, 370262, Note_off_c, 0, 91, 65
1, 370288, Note_on_c, 0, 86, 85
1, 370368, Note_off_c, 0, 86, 63
1, 370394, Note_on_c, 0, 95, 98
1, 370395, Note_on_c, 0, 55, 83
1, 370411, Control_c, 0, 64, 44
1, 370426, Control_c, 0, 64, 59
1, 370440, Control_c, 0, 64, 62
1, 370455, Control_c, 0, 64, 64
1, 370470, Control_c, 0, 64, 66
1, 370484, Control_c, 0, 64, 68
1, 370487, Note_on_c, 0, 62, 80
1, 370487, Note_on_c, 0, 91, 78
1, 370490, Note_off_c, 0, 55, 61
1, 370499, Control_c, 0, 64, 70
1, 370505, Note_off_c, 0, 95, 62
1, 370514, Control_c, 0, 64, 72
1, 370529, Control_c, 0, 64, 73
1, 370550, Note_off_c, 0, 62, 65
1, 370552, Control_c, 0, 64, 75
1, 370566, Control_c, 0, 64, 75
1, 370576, Note_on_c, 0, 86, 80
1, 370581, Control_c, 0, 64, 76
1, 370590, Note_on_c, 0, 67, 78
1, 370603, Note_off_c, 0, 91, 63
1, 370626, Control_c, 0, 64, 73
1, 370634, Note_off_c, 0, 86, 67
1, 370636, Note_off_c, 0, 67, 62
1, 370640, Control_c, 0, 64, 64
1, 370655, Control_c, 0, 64, 37
1, 370662, Note_on_c, 0, 79, 76
1, 370670, Control_c, 0, 64, 0
1, 370679, Note_on_c, 0, 71, 81
1, 370708, Note_off_c, 0, 79, 61
1, 370743, Note_off_c, 0, 71, 61
1, 370758, Control_c, 0, 67, 49
1, 370764, Note_on_c, 0, 74, 87
1, 370772, Control_c, 0, 67, 66
1, 370787, Control_c, 0, 67, 83
1, 370802, Control_c, 0, 67, 99
1, 370808, Note_off_c, 0, 74, 63
1, 370817, Control_c, 0, 67, 111
1, 370832, Control_c, 0, 67, 119
1, 370841, Note_on_c, 0, 72, 77
1, 370846, Control_c, 0, 67, 126
1, 370911, Note_off_c, 0, 72, 61
1, 370923, Note_on_c, 0, 83, 71
1, 370934, Note_on_c, 0, 71, 81
1, 371004, Note_off_c, 0, 83, 58
1, 371015, Note_on_c, 0, 78, 64
1, 371030, Note_off_c, 0, 71, 62
1, 371036, Note_on_c, 0, 73, 81
1, 371075, Note_off_c, 0, 78, 54
1, 371107, Note_on_c, 0, 87, 58
1, 371122, Note_off_c, 0, 73, 61
1, 371123, Note_on_c, 0, 71, 78
1, 371164, Note_off_c, 0, 87, 51
1, 371194, Note_on_c, 0, 82, 61
1, 371205, Note_on_c, 0, 70, 70
1, 371234, Note_off_c, 0, 71, 59
1, 371245, Note_off_c, 0, 82, 58
1, 371296, Note_on_c, 0, 91, 68
1, 371298, Note_off_c, 0, 70, 63
1, 371301, Note_on_c, 0, 74, 75
1, 371346, Note_off_c, 0, 91, 65
1, 371349, Note_off_c, 0, 74, 59
1, 371385, Note_on_c, 0, 72, 74
1, 371395, Note_on_c, 0, 86, 54
1, 371449, Note_off_c, 0, 72, 60
1, 371466, Note_off_c, 0, 86, 58
1, 371470, Note_on_c, 0, 83, 66
1, 371473, Note_on_c, 0, 71, 75
1, 371554, Note_off_c, 0, 83, 60
1, 371557, Note_off_c, 0, 71, 61
1, 371561, Note_on_c, 0, 78, 71
1, 371563, Note_on_c, 0, 73, 82
1, 371628, Note_off_c, 0, 78, 59
1, 371644, Note_on_c, 0, 71, 85
1, 371645, Note_on_c, 0, 87, 79
1, 371646, Note_off_c, 0, 73, 63
1, 371723, Note_on_c, 0, 70, 78
1, 371730, Control_c, 0, 67, 118
1, 371730, Note_on_c, 0, 82, 79
1, 371733, Note_off_c, 0, 87, 62
1, 371744, Control_c, 0, 67, 92
1, 371757, Note_off_c, 0, 71, 61
1, 371759, Control_c, 0, 67, 60
1, 371774, Control_c, 0, 67, 0
1, 371797, Note_off_c, 0, 70, 64
1, 371803, Note_off_c, 0, 82, 63
1, 371807, Note_on_c, 0, 74, 93
1, 371817, Note_on_c, 0, 91, 82
1, 371856, Note_off_c, 0, 74, 62
1, 371879, Note_off_c, 0, 91, 66
1, 371891, Note_on_c, 0, 86, 74
1, 371903, Note_on_c, 0, 72, 86
1, 371938, Note_off_c, 0, 72, 64
1, 371970, Note_on_c, 0, 83, 73
1, 371972, Note_off_c, 0, 86, 63
1, 371980, Note_on_c, 0, 71, 97
1, 372008, Note_off_c, 0, 71, 68
1, 372046, Note_off_c, 0, 83, 61
1, 372089, Note_on_c, 0, 78, 68
1, 372152, Note_off_c, 0, 78, 60
1, 372162, Note_on_c, 0, 58, 77
1, 372188, Note_off_c, 0, 58, 67
1, 372196, Note_on_c, 0, 87, 63
1, 372277, Note_on_c, 0, 82, 72
1, 372282, Note_off_c, 0, 87, 58
1, 372300, Control_c, 0, 67, 47
1, 372315, Control_c, 0, 67, 67
1, 372330, Control_c, 0, 67, 88
1, 372332, Note_off_c, 0, 82, 63
1, 372344, Control_c, 0, 67, 108
1, 372359, Control_c, 0, 67, 124
1, 372365, Note_on_c, 0, 68, 58
1, 372374, Control_c, 0, 67, 127
1, 372376, Note_on_c, 0, 91, 64
1, 372385, Note_off_c, 0, 68, 62
1, 372428, Note_off_c, 0, 91, 63
1, 372473, Note_on_c, 0, 86, 61
1, 372598, Note_on_c, 0, 55, 48
1, 372599, Note_off_c, 0, 86, 58
1, 372604, Note_on_c, 0, 94, 63
1, 372657, Control_c, 0, 64, 29
1, 372672, Control_c, 0, 64, 42
1, 372684, Note_off_c, 0, 94, 57
1, 372686, Control_c, 0, 64, 53
1, 372701, Control_c, 0, 64, 59
1, 372716, Control_c, 0, 64, 60
1, 372724, Note_on_c, 0, 91, 54
1, 372731, Control_c, 0, 64, 61
1, 372746, Control_c, 0, 64, 62
1, 372760, Control_c, 0, 64, 63
1, 372775, Control_c, 0, 64, 63
1, 372797, Control_c, 0, 64, 64
1, 372813, Note_off_c, 0, 91, 60
1, 372817, Note_on_c, 0, 86, 66
1, 372827, Control_c, 0, 64, 64
1, 372842, Control_c, 0, 64, 65
1, 372853, Note_off_c, 0, 86, 61
1, 372860, Note_off_c, 0, 55, 63
1, 372887, Control_c, 0, 64, 64
1, 372901, Control_c, 0, 64, 62
1, 372914, Note_on_c, 0, 79, 62
1, 372916, Control_c, 0, 64, 52
1, 372931, Control_c, 0, 64, 29
1, 372946, Control_c, 0, 64, 0
1, 372949, Note_off_c, 0, 79, 59
1, 373000, Note_on_c, 0, 82, 61
1, 373036, Note_off_c, 0, 82, 61
1, 373094, Note_on_c, 0, 82, 60
1, 373119, Note_off_c, 0, 82, 68
1, 373162, Note_on_c, 0, 51, 63
1, 373171, Note_on_c, 0, 83, 83
1, 373213, Note_off_c, 0, 51, 60
1, 373218, Note_off_c, 0, 83, 63
1, 373255, Note_on_c, 0, 57, 44
1, 373262, Note_on_c, 0, 82, 65
1, 373282, Note_off_c, 0, 57, 58
1, 373291, Note_off_c, 0, 82, 63
1, 373356, Note_on_c, 0, 82, 69
1, 373358, Note_on_c, 0, 65, 38
1, 373386, Note_off_c, 0, 65, 51
1, 373394, Note_off_c, 0, 82, 62
1, 373444, Note_on_c, 0, 94, 78
1, 373447, Note_on_c, 0, 75, 57
1, 373465, Note_off_c, 0, 75, 61
1, 373493, Note_off_c, 0, 94, 62
1, 373543, Note_on_c, 0, 82, 70
1, 373566, Note_off_c, 0, 82, 69
1, 373622, Note_on_c, 0, 82, 67
1, 373647, Note_off_c, 0, 82, 65
1, 373710, Note_on_c, 0, 83, 82
1, 373721, Note_on_c, 0, 51, 64
1, 373762, Note_off_c, 0, 83, 64
1, 373781, Note_off_c, 0, 51, 61
1, 373785, Note_on_c, 0, 59, 67
1, 373787, Note_on_c, 0, 82, 82
1, 373828, Control_c, 0, 64, 30
1, 373828, Control_c, 0, 67, 111
1, 373832, Note_off_c, 0, 59, 61
1, 373833, Note_off_c, 0, 82, 61
1, 373843, Control_c, 0, 64, 33
1, 373843, Control_c, 0, 67, 84
1, 373858, Control_c, 0, 64, 35
1, 373858, Control_c, 0, 67, 56
1, 373872, Control_c, 0, 64, 37
1, 373872, Control_c, 0, 67, 0
1, 373887, Control_c, 0, 64, 38
1, 373897, Note_on_c, 0, 94, 86
1, 373899, Note_on_c, 0, 67, 51
1, 373902, Control_c, 0, 64, 39
1, 373923, Note_off_c, 0, 67, 58
1, 373944, Note_off_c, 0, 94, 64
1, 373965, Note_on_c, 0, 75, 72
1, 373976, Control_c, 0, 64, 38
1, 373980, Note_on_c, 0, 83, 77
1, 373989, Note_off_c, 0, 75, 69
1, 373990, Control_c, 0, 64, 37
1, 374005, Control_c, 0, 64, 37
1, 374020, Control_c, 0, 64, 36
1, 374022, Note_off_c, 0, 83, 64
1, 374050, Control_c, 0, 64, 35
1, 374070, Note_on_c, 0, 85, 81
1, 374110, Control_c, 0, 64, 35
1, 374114, Note_off_c, 0, 85, 62
1, 374125, Control_c, 0, 64, 31
1, 374139, Control_c, 0, 64, 0
1, 374154, Note_on_c, 0, 84, 87
1, 374193, Note_off_c, 0, 84, 66
1, 374242, Note_on_c, 0, 86, 83
1, 374243, Control_c, 0, 64, 34
1, 374257, Note_on_c, 0, 58, 59
1, 374258, Control_c, 0, 64, 50
1, 374273, Control_c, 0, 64, 60
1, 374293, Note_off_c, 0, 86, 64
1, 374295, Control_c, 0, 64, 63
1, 374302, Note_off_c, 0, 58, 64
1, 374310, Control_c, 0, 64, 64
1, 374324, Note_on_c, 0, 65, 57
1, 374325, Control_c, 0, 64, 65
1, 374338, Note_on_c, 0, 82, 79
1, 374339, Control_c, 0, 64, 66
1, 374354, Control_c, 0, 64, 68
1, 374365, Note_off_c, 0, 65, 62
1, 374369, Control_c, 0, 64, 69
1, 374378, Note_off_c, 0, 82, 63
1, 374384, Control_c, 0, 64, 71
1, 374399, Control_c, 0, 64, 71
1, 374428, Note_on_c, 0, 74, 57
1, 374434, Note_on_c, 0, 82, 66
1, 374443, Control_c, 0, 64, 71
1, 374450, Note_off_c, 0, 74, 61
1, 374458, Control_c, 0, 64, 67
1, 374470, Note_off_c, 0, 82, 60
1, 374473, Control_c, 0, 64, 59
1, 374488, Control_c, 0, 64, 42
1, 374503, Control_c, 0, 64, 0
1, 374515, Note_on_c, 0, 80, 60
1, 374519, Note_on_c, 0, 95, 78
1, 374534, Note_off_c, 0, 80, 66
1, 374565, Note_off_c, 0, 95, 64
1, 374609, Note_on_c, 0, 82, 86
1, 374655, Note_off_c, 0, 82, 62
1, 374696, Note_on_c, 0, 82, 70
1, 374741, Note_off_c, 0, 82, 65
1, 374786, Note_on_c, 0, 51, 74
1, 374786, Note_on_c, 0, 83, 95
1, 374828, Control_c, 0, 64, 39
1, 374839, Note_off_c, 0, 83, 62
1, 374843, Control_c, 0, 64, 49
1, 374846, Note_off_c, 0, 51, 63
1, 374857, Control_c, 0, 64, 57
1, 374863, Note_on_c, 0, 57, 59
1, 374866, Note_on_c, 0, 82, 91
1, 374872, Control_c, 0, 64, 61
1, 374887, Control_c, 0, 64, 62
1, 374902, Note_off_c, 0, 57, 62
1, 374903, Note_off_c, 0, 82, 66
1, 374903, Control_c, 0, 64, 63
1, 374918, Control_c, 0, 64, 64
1, 374933, Control_c, 0, 64, 65
1, 374948, Control_c, 0, 64, 66
1, 374953, Note_on_c, 0, 65, 57
1, 374962, Note_on_c, 0, 82, 77
1, 374976, Note_off_c, 0, 65, 63
1, 374992, Control_c, 0, 64, 63
1, 375007, Control_c, 0, 64, 50
1, 375012, Note_off_c, 0, 82, 63
1, 375022, Control_c, 0, 64, 0
1, 375051, Note_on_c, 0, 75, 77
1, 375051, Note_on_c, 0, 94, 93
1, 375072, Note_off_c, 0, 75, 73
1, 375116, Note_off_c, 0, 94, 64
1, 375138, Note_on_c, 0, 82, 82
1, 375179, Note_off_c, 0, 82, 63
1, 375225, Note_on_c, 0, 82, 77
1, 375271, Note_off_c, 0, 82, 62
1, 375313, Note_on_c, 0, 83, 86
1, 375322, Note_on_c, 0, 51, 72
1, 375355, Control_c, 0, 64, 29
1, 375370, Note_off_c, 0, 83, 65
1, 375370, Control_c, 0, 64, 34
1, 375385, Control_c, 0, 64, 37
1, 375393, Note_on_c, 0, 82, 87
1, 375396, Note_off_c, 0, 51, 62
1, 375400, Control_c, 0, 64, 41
1, 375402, Note_on_c, 0, 59, 65
1, 375415, Control_c, 0, 64, 47
1, 375430, Control_c, 0, 64, 53
1, 375434, Note_off_c, 0, 82, 63
1, 375440, Note_off_c, 0, 59, 64
1, 375445, Control_c, 0, 64, 55
1, 375487, Note_on_c, 0, 65, 63
1, 375494, Note_on_c, 0, 94, 96
1, 375507, Note_off_c, 0, 65, 64
1, 375519, Control_c, 0, 64, 55
1, 375534, Control_c, 0, 64, 53
1, 375549, Control_c, 0, 64, 48
1, 375555, Note_off_c, 0, 94, 63
1, 375563, Control_c, 0, 64, 37
1, 375573, Note_on_c, 0, 83, 87
1, 375576, Note_on_c, 0, 75, 80
1, 375578, Control_c, 0, 64, 0
1, 375596, Note_off_c, 0, 75, 73
1, 375627, Note_off_c, 0, 83, 65
1, 375667, Note_on_c, 0, 94, 93
1, 375719, Note_off_c, 0, 94, 64
1, 375757, Note_on_c, 0, 84, 85
1, 375799, Note_off_c, 0, 84, 67
1, 375853, Note_on_c, 0, 86, 87
1, 375875, Note_on_c, 0, 58, 66
1, 375891, Note_on_c, 0, 88, 26
1, 375891, Note_off_c, 0, 88, 127
1, 375898, Control_c, 0, 64, 30
1, 375912, Control_c, 0, 64, 52
1, 375918, Note_off_c, 0, 86, 65
1, 375924, Note_off_c, 0, 58, 60
1, 375927, Control_c, 0, 64, 61
1, 375930, Note_on_c, 0, 65, 67
1, 375938, Note_on_c, 0, 82, 96
1, 375942, Control_c, 0, 64, 63
1, 375957, Control_c, 0, 64, 65
1, 375972, Control_c, 0, 64, 69
1, 375986, Control_c, 0, 64, 74
1, 375990, Note_off_c, 0, 82, 63
1, 375991, Note_off_c, 0, 65, 62
1, 376001, Control_c, 0, 64, 79
1, 376016, Control_c, 0, 64, 82
1, 376030, Note_on_c, 0, 82, 87
1, 376038, Note_on_c, 0, 74, 85
1, 376046, Control_c, 0, 64, 80
1, 376060, Control_c, 0, 64, 71
1, 376070, Note_off_c, 0, 74, 60
1, 376075, Control_c, 0, 64, 56
1, 376089, Note_off_c, 0, 82, 62
1, 376090, Control_c, 0, 64, 0
1, 376118, Note_on_c, 0, 94, 92
1, 376172, Note_off_c, 0, 94, 64
1, 376201, Note_on_c, 0, 82, 84
1, 376214, Note_on_c, 0, 71, 79
1, 376228, Note_off_c, 0, 82, 66
1, 376286, Note_on_c, 0, 82, 82
1, 376308, Note_off_c, 0, 71, 65
1, 376321, Note_off_c, 0, 82, 63
1, 376371, Note_on_c, 0, 74, 97
1, 376375, Note_on_c, 0, 82, 85
1, 376375, Note_on_c, 0, 64, 81
1, 376381, Note_on_c, 0, 67, 66
1, 376396, Note_on_c, 0, 72, 51
1, 376396, Note_off_c, 0, 72, 127
1, 376404, Note_on_c, 0, 69, 59
1, 376423, Note_off_c, 0, 74, 63
1, 376429, Note_off_c, 0, 69, 37
1, 376430, Control_c, 0, 66, 127
1, 376454, Note_off_c, 0, 82, 43
1, 376467, Note_on_c, 0, 83, 87
1, 376482, Note_on_c, 0, 71, 85
1, 376521, Note_off_c, 0, 83, 64
1, 376571, Note_on_c, 0, 84, 86
1, 376605, Note_off_c, 0, 71, 67
1, 376626, Note_off_c, 0, 84, 65
1, 376670, Note_on_c, 0, 95, 69
1, 376672, Note_on_c, 0, 93, 74
1, 376695, Note_off_c, 0, 95, 67
1, 376697, Note_off_c, 0, 93, 66
1, 376708, Note_off_c, 0, 67, 62
1, 376738, Note_off_c, 0, 64, 61
1, 376749, Note_on_c, 0, 71, 79
1, 376768, Note_on_c, 0, 81, 66
1, 376798, Note_off_c, 0, 81, 63
1, 376837, Note_on_c, 0, 83, 73
1, 376857, Note_off_c, 0, 71, 63
1, 376878, Note_off_c, 0, 83, 62
1, 376899, Note_on_c, 0, 72, 83
1, 376918, Note_on_c, 0, 84, 77
1, 376976, Note_off_c, 0, 84, 63
1, 376979, Note_off_c, 0, 72, 61
1, 376986, Note_on_c, 0, 71, 90
1, 377000, Note_on_c, 0, 95, 77
1, 377021, Note_off_c, 0, 95, 71
1, 377033, Note_on_c, 0, 93, 47
1, 377043, Note_off_c, 0, 71, 63
1, 377060, Note_off_c, 0, 93, 55
1, 377072, Note_on_c, 0, 73, 89
1, 377096, Note_on_c, 0, 82, 86
1, 377145, Note_off_c, 0, 73, 61
1, 377165, Note_on_c, 0, 72, 88
1, 377166, Note_off_c, 0, 82, 62
1, 377179, Note_on_c, 0, 83, 79
1, 377218, Note_off_c, 0, 83, 61
1, 377232, Note_off_c, 0, 72, 62
1, 377254, Note_on_c, 0, 84, 80
1, 377258, Note_on_c, 0, 74, 96
1, 377328, Note_off_c, 0, 74, 64
1, 377335, Control_c, 0, 66, 0
1, 377344, Note_on_c, 0, 95, 65
1, 377345, Note_off_c, 0, 84, 44
1, 377352, Note_on_c, 0, 73, 91
1, 377368, Note_off_c, 0, 95, 70
1, 377409, Control_c, 0, 64, 29
1, 377424, Note_off_c, 0, 73, 63
1, 377424, Control_c, 0, 64, 31
1, 377436, Note_on_c, 0, 82, 92
1, 377439, Note_on_c, 0, 75, 93
1, 377439, Control_c, 0, 64, 32
1, 377454, Control_c, 0, 64, 32
1, 377469, Control_c, 0, 64, 33
1, 377488, Note_off_c, 0, 82, 64
1, 377495, Note_off_c, 0, 75, 66
1, 377498, Control_c, 0, 64, 33
1, 377528, Note_on_c, 0, 83, 87
1, 377537, Note_on_c, 0, 71, 84
1, 377557, Control_c, 0, 64, 33
1, 377572, Control_c, 0, 64, 32
1, 377587, Note_off_c, 0, 83, 63
1, 377592, Note_off_c, 0, 71, 63
1, 377602, Control_c, 0, 64, 30
1, 377617, Control_c, 0, 64, 0
1, 377624, Note_on_c, 0, 93, 81
1, 377641, Note_on_c, 0, 66, 77
1, 377686, Note_off_c, 0, 93, 64
1, 377707, Note_on_c, 0, 96, 84
1, 377723, Note_on_c, 0, 59, 74
1, 377725, Note_off_c, 0, 66, 63
1, 377777, Note_off_c, 0, 59, 65
1, 377797, Note_off_c, 0, 96, 66
1, 377799, Note_on_c, 0, 93, 83
1, 377813, Note_on_c, 0, 71, 87
1, 377853, Note_off_c, 0, 93, 64
1, 377860, Note_off_c, 0, 71, 62
1, 377880, Note_on_c, 0, 71, 78
1, 377895, Note_on_c, 0, 83, 83
1, 377925, Note_off_c, 0, 71, 65
1, 377939, Note_off_c, 0, 83, 64
1, 377976, Note_on_c, 0, 72, 99
1, 377986, Note_on_c, 0, 64, 79
1, 377990, Note_on_c, 0, 68, 80
1, 377992, Note_on_c, 0, 82, 90
1, 378017, Control_c, 0, 66, 127
1, 378036, Note_off_c, 0, 72, 58
1, 378080, Note_off_c, 0, 82, 62
1, 378082, Note_on_c, 0, 83, 78
1, 378108, Note_on_c, 0, 71, 83
1, 378133, Note_off_c, 0, 83, 63
1, 378172, Note_on_c, 0, 84, 80
1, 378213, Note_off_c, 0, 71, 66
1, 378224, Note_off_c, 0, 84, 64
1, 378253, Note_on_c, 0, 95, 80
1, 378274, Note_off_c, 0, 95, 66
1, 378306, Note_off_c, 0, 68, 60
1, 378348, Note_off_c, 0, 64, 55
1, 378361, Note_on_c, 0, 82, 82
1, 378369, Note_on_c, 0, 71, 82
1, 378424, Note_off_c, 0, 82, 61
1, 378442, Note_on_c, 0, 83, 80
1, 378486, Note_off_c, 0, 83, 64
1, 378505, Note_off_c, 0, 71, 64
1, 378525, Note_on_c, 0, 72, 89
1, 378529, Note_on_c, 0, 84, 78
1, 378589, Note_off_c, 0, 84, 58
1, 378607, Note_on_c, 0, 95, 82
1, 378610, Note_on_c, 0, 71, 95
1, 378615, Note_off_c, 0, 72, 64
1, 378631, Note_off_c, 0, 95, 65
1, 378686, Note_off_c, 0, 71, 52
1, 378697, Note_on_c, 0, 73, 92
1, 378710, Note_on_c, 0, 82, 84
1, 378721, Control_c, 0, 64, 30
1, 378721, Control_c, 0, 66, 0
1, 378751, Control_c, 0, 64, 33
1, 378766, Control_c, 0, 64, 33
1, 378769, Note_off_c, 0, 73, 62
1, 378789, Note_off_c, 0, 82, 62
1, 378791, Note_on_c, 0, 72, 94
1, 378803, Note_on_c, 0, 83, 84
1, 378847, Control_c, 0, 64, 32
1, 378855, Note_off_c, 0, 83, 63
1, 378877, Control_c, 0, 64, 29
1, 378879, Note_off_c, 0, 72, 50
1, 378885, Note_on_c, 0, 84, 92
1, 378890, Note_on_c, 0, 74, 103
1, 378892, Control_c, 0, 64, 0
1, 378977, Note_off_c, 0, 84, 63
1, 378987, Note_on_c, 0, 73, 94
1, 378992, Note_on_c, 0, 95, 91
1, 378996, Note_off_c, 0, 74, 59
1, 379035, Note_on_c, 0, 70, 4
1, 379035, Note_off_c, 0, 70, 127
1, 379103, Note_off_c, 0, 95, 63
1, 379138, Note_on_c, 0, 75, 103
1, 379138, Note_on_c, 0, 83, 95
1, 379143, Note_off_c, 0, 73, 65
1, 379248, Control_c, 0, 64, 29
1, 379248, Control_c, 0, 67, 52
1, 379263, Control_c, 0, 64, 51
1, 379263, Control_c, 0, 67, 92
1, 379278, Control_c, 0, 64, 63
1, 379278, Control_c, 0, 67, 127
1, 379293, Control_c, 0, 64, 68
1, 379308, Control_c, 0, 64, 72
1, 379323, Control_c, 0, 64, 76
1, 379337, Control_c, 0, 64, 79
1, 379352, Control_c, 0, 64, 82
1, 379367, Control_c, 0, 64, 85
1, 379382, Control_c, 0, 64, 87
1, 379397, Control_c, 0, 64, 88
1, 379399, Note_off_c, 0, 75, 61
1, 379411, Control_c, 0, 64, 89
1, 379425, Note_on_c, 0, 71, 60
1, 379426, Control_c, 0, 64, 90
1, 379427, Note_on_c, 0, 90, 61
1, 379441, Control_c, 0, 64, 90
1, 379455, Control_c, 0, 64, 91
1, 379470, Control_c, 0, 64, 91
1, 379475, Note_off_c, 0, 83, 49
1, 379485, Control_c, 0, 64, 92
1, 379515, Note_off_c, 0, 71, 52
1, 379552, Control_c, 0, 64, 92
1, 379566, Note_off_c, 0, 90, 35
1, 379575, Note_on_c, 0, 94, 65
1, 379587, Note_on_c, 0, 66, 53
1, 379648, Note_off_c, 0, 66, 54
1, 379650, Note_off_c, 0, 94, 60
1, 379683, Note_on_c, 0, 90, 58
1, 379695, Note_on_c, 0, 59, 55
1, 379718, Note_off_c, 0, 59, 62
1, 379724, Note_off_c, 0, 90, 62
1, 379797, Note_on_c, 0, 78, 57
1, 379814, Note_on_c, 0, 71, 45
1, 379852, Note_off_c, 0, 78, 50
1, 379856, Note_off_c, 0, 71, 47
1, 379892, Note_on_c, 0, 82, 61
1, 379900, Note_on_c, 0, 75, 60
1, 379932, Note_off_c, 0, 75, 65
1, 379935, Note_off_c, 0, 82, 54
1, 379992, Note_on_c, 0, 71, 44
1, 380020, Note_off_c, 0, 71, 56
1, 380072, Note_on_c, 0, 59, 65
1, 380083, Note_on_c, 0, 82, 59
1, 380139, Note_off_c, 0, 59, 58
1, 380152, Note_off_c, 0, 82, 52
1, 380176, Note_on_c, 0, 90, 53
1, 380190, Note_on_c, 0, 63, 45
1, 380227, Note_off_c, 0, 63, 59
1, 380242, Note_off_c, 0, 90, 61
1, 380261, Note_on_c, 0, 94, 66
1, 380343, Note_off_c, 0, 94, 63
1, 380357, Note_on_c, 0, 63, 47
1, 380357, Note_on_c, 0, 90, 69
1, 380406, Note_off_c, 0, 90, 59
1, 380422, Note_off_c, 0, 63, 56
1, 380435, Note_on_c, 0, 82, 70
1, 380497, Note_off_c, 0, 82, 57
1, 380509, Control_c, 0, 64, 92
1, 380515, Note_on_c, 0, 75, 55
1, 380522, Note_on_c, 0, 90, 80
1, 380570, Note_off_c, 0, 75, 51
1, 380607, Note_on_c, 0, 82, 81
1, 380609, Note_on_c, 0, 71, 49
1, 380625, Note_off_c, 0, 90, 61
1, 380662, Note_off_c, 0, 71, 57
1, 380686, Note_on_c, 0, 78, 80
1, 380692, Note_off_c, 0, 82, 65
1, 380711, Note_on_c, 0, 63, 51
1, 380716, Control_c, 0, 64, 90
1, 380731, Control_c, 0, 64, 84
1, 380746, Control_c, 0, 64, 75
1, 380751, Note_off_c, 0, 63, 63
1, 380761, Control_c, 0, 64, 67
1, 380775, Control_c, 0, 64, 62
1, 380784, Note_on_c, 0, 81, 82
1, 380788, Note_off_c, 0, 78, 57
1, 380805, Control_c, 0, 64, 63
1, 380816, Note_on_c, 0, 71, 51
1, 380820, Control_c, 0, 64, 65
1, 380828, Note_off_c, 0, 81, 66
1, 380835, Control_c, 0, 64, 67
1, 380843, Note_off_c, 0, 71, 55
1, 380849, Control_c, 0, 64, 70
1, 380864, Control_c, 0, 64, 72
1, 380879, Control_c, 0, 64, 72
1, 380894, Control_c, 0, 64, 73
1, 380900, Note_on_c, 0, 63, 53
1, 380903, Note_on_c, 0, 90, 82
1, 380938, Control_c, 0, 64, 71
1, 380953, Control_c, 0, 64, 65
1, 380968, Control_c, 0, 64, 52
1, 380974, Note_off_c, 0, 63, 60
1, 380983, Control_c, 0, 64, 34
1, 380988, Note_off_c, 0, 90, 63
1, 380997, Note_on_c, 0, 93, 81
1, 380998, Control_c, 0, 64, 0
1, 380998, Note_on_c, 0, 59, 53
1, 381049, Control_c, 0, 64, 33
1, 381064, Control_c, 0, 64, 47
1, 381079, Control_c, 0, 64, 58
1, 381086, Note_off_c, 0, 59, 61
1, 381094, Control_c, 0, 64, 64
1, 381105, Note_on_c, 0, 62, 61
1, 381108, Control_c, 0, 64, 66
1, 381115, Note_off_c, 0, 93, 63
1, 381117, Note_on_c, 0, 90, 75
1, 381123, Control_c, 0, 64, 68
1, 381138, Control_c, 0, 64, 70
1, 381152, Note_off_c, 0, 62, 61
1, 381153, Control_c, 0, 64, 71
1, 381168, Control_c, 0, 64, 71
1, 381175, Note_off_c, 0, 90, 66
1, 381183, Control_c, 0, 64, 72
1, 381198, Control_c, 0, 64, 73
1, 381212, Control_c, 0, 64, 73
1, 381219, Note_on_c, 0, 78, 70
1, 381226, Control_c, 0, 64, 74
1, 381227, Note_on_c, 0, 71, 52
1, 381256, Control_c, 0, 64, 74
1, 381302, Note_off_c, 0, 78, 52
1, 381303, Note_off_c, 0, 71, 62
1, 381307, Note_on_c, 0, 81, 75
1, 381320, Note_on_c, 0, 74, 66
1, 381331, Control_c, 0, 64, 75
1, 381370, Note_off_c, 0, 74, 60
1, 381376, Note_off_c, 0, 81, 61
1, 381406, Note_on_c, 0, 71, 67
1, 381432, Note_off_c, 0, 71, 69
1, 381464, Control_c, 0, 64, 74
1, 381479, Control_c, 0, 64, 74
1, 381481, Note_on_c, 0, 59, 69
1, 381512, Note_on_c, 0, 81, 75
1, 381573, Note_off_c, 0, 59, 60
1, 381592, Note_off_c, 0, 81, 61
1, 381594, Note_on_c, 0, 90, 77
1, 381600, Note_on_c, 0, 62, 62
1, 381647, Note_off_c, 0, 62, 60
1, 381669, Note_off_c, 0, 90, 65
1, 381678, Note_on_c, 0, 93, 79
1, 381687, Control_c, 0, 64, 73
1, 381701, Control_c, 0, 64, 71
1, 381716, Control_c, 0, 64, 68
1, 381731, Control_c, 0, 64, 65
1, 381746, Control_c, 0, 64, 64
1, 381758, Note_on_c, 0, 62, 67
1, 381766, Note_off_c, 0, 93, 64
1, 381776, Note_on_c, 0, 90, 79
1, 381826, Note_off_c, 0, 90, 65
1, 381845, Note_off_c, 0, 62, 59
1, 381855, Note_on_c, 0, 81, 71
1, 381856, Control_c, 0, 64, 64
1, 381871, Control_c, 0, 64, 63
1, 381879, Note_on_c, 0, 71, 57
1, 381886, Control_c, 0, 64, 63
1, 381910, Note_off_c, 0, 81, 64
1, 381913, Note_off_c, 0, 71, 64
1, 381931, Control_c, 0, 64, 62
1, 381940, Note_on_c, 0, 90, 75
1, 381946, Control_c, 0, 64, 62
1, 381949, Note_on_c, 0, 74, 66
1, 381961, Control_c, 0, 64, 61
1, 381976, Control_c, 0, 64, 60
1, 381991, Control_c, 0, 64, 59
1, 381995, Note_off_c, 0, 74, 57
1, 382027, Note_off_c, 0, 90, 64
1, 382034, Note_on_c, 0, 81, 66
1, 382037, Note_on_c, 0, 71, 61
1, 382050, Control_c, 0, 64, 59
1, 382065, Control_c, 0, 64, 60
1, 382080, Control_c, 0, 64, 61
1, 382095, Note_off_c, 0, 71, 52
1, 382095, Control_c, 0, 64, 62
1, 382110, Control_c, 0, 64, 63
1, 382117, Note_off_c, 0, 81, 63
1, 382125, Note_on_c, 0, 78, 72
1, 382125, Control_c, 0, 64, 63
1, 382137, Note_on_c, 0, 62, 57
1, 382140, Control_c, 0, 64, 64
1, 382169, Control_c, 0, 64, 63
1, 382178, Note_off_c, 0, 62, 63
1, 382184, Control_c, 0, 64, 62
1, 382188, Note_off_c, 0, 78, 59
1, 382199, Control_c, 0, 64, 59
1, 382208, Note_on_c, 0, 80, 69
1, 382214, Control_c, 0, 64, 55
1, 382220, Note_on_c, 0, 71, 70
1, 382229, Control_c, 0, 64, 50
1, 382231, Note_off_c, 0, 80, 69
1, 382244, Control_c, 0, 64, 45
1, 382259, Control_c, 0, 64, 36
1, 382268, Note_off_c, 0, 71, 59
1, 382273, Control_c, 0, 64, 29
1, 382288, Control_c, 0, 64, 0
1, 382296, Note_on_c, 0, 89, 79
1, 382317, Note_on_c, 0, 62, 59
1, 382362, Note_off_c, 0, 89, 57
1, 382382, Note_off_c, 0, 62, 58
1, 382390, Note_on_c, 0, 92, 71
1, 382416, Note_on_c, 0, 59, 52
1, 382462, Note_off_c, 0, 59, 62
1, 382479, Note_on_c, 0, 89, 72
1, 382485, Note_off_c, 0, 92, 65
1, 382495, Control_c, 0, 64, 31
1, 382497, Note_on_c, 0, 61, 67
1, 382510, Control_c, 0, 64, 43
1, 382515, Note_off_c, 0, 89, 65
1, 382533, Control_c, 0, 64, 52
1, 382534, Note_off_c, 0, 61, 66
1, 382547, Control_c, 0, 64, 57
1, 382562, Control_c, 0, 64, 58
1, 382592, Control_c, 0, 64, 59
1, 382602, Note_on_c, 0, 77, 60
1, 382611, Note_on_c, 0, 70, 62
1, 382621, Control_c, 0, 64, 59
1, 382636, Control_c, 0, 64, 60
1, 382651, Control_c, 0, 64, 61
1, 382652, Note_off_c, 0, 77, 52
1, 382666, Control_c, 0, 64, 62
1, 382680, Control_c, 0, 64, 63
1, 382682, Note_on_c, 0, 80, 64
1, 382682, Note_off_c, 0, 70, 64
1, 382695, Control_c, 0, 64, 63
1, 382707, Note_on_c, 0, 73, 66
1, 382710, Control_c, 0, 64, 64
1, 382740, Control_c, 0, 64, 64
1, 382757, Note_off_c, 0, 80, 64
1, 382759, Note_off_c, 0, 73, 58
1, 382769, Control_c, 0, 64, 65
1, 382784, Control_c, 0, 64, 65
1, 382795, Note_on_c, 0, 70, 72
1, 382798, Control_c, 0, 64, 66
1, 382813, Control_c, 0, 64, 66
1, 382828, Control_c, 0, 64, 67
1, 382829, Note_off_c, 0, 70, 66
1, 382858, Control_c, 0, 64, 67
1, 382873, Note_on_c, 0, 58, 71
1, 382888, Control_c, 0, 64, 67
1, 382902, Note_on_c, 0, 80, 71
1, 382903, Control_c, 0, 64, 64
1, 382918, Control_c, 0, 64, 59
1, 382933, Control_c, 0, 64, 52
1, 382948, Control_c, 0, 64, 50
1, 382963, Control_c, 0, 64, 51
1, 382968, Note_off_c, 0, 58, 61
1, 382977, Control_c, 0, 64, 54
1, 382980, Note_on_c, 0, 61, 71
1, 382983, Note_on_c, 0, 89, 75
1, 382984, Note_off_c, 0, 80, 62
1, 382992, Control_c, 0, 64, 59
1, 383007, Control_c, 0, 64, 64
1, 383022, Control_c, 0, 64, 66
1, 383037, Control_c, 0, 64, 68
1, 383052, Control_c, 0, 64, 69
1, 383058, Note_off_c, 0, 61, 61
1, 383067, Control_c, 0, 64, 71
1, 383070, Note_on_c, 0, 92, 76
1, 383073, Note_off_c, 0, 89, 63
1, 383082, Control_c, 0, 64, 71
1, 383082, Control_c, 0, 67, 111
1, 383096, Control_c, 0, 64, 72
1, 383096, Control_c, 0, 67, 86
1, 383111, Control_c, 0, 67, 70
1, 383126, Control_c, 0, 64, 73
1, 383126, Control_c, 0, 67, 58
1, 383141, Control_c, 0, 67, 50
1, 383144, Note_on_c, 0, 89, 66
1, 383147, Note_off_c, 0, 92, 66
1, 383156, Control_c, 0, 67, 43
1, 383163, Note_on_c, 0, 61, 77
1, 383170, Control_c, 0, 64, 73
1, 383170, Control_c, 0, 67, 0
1, 383210, Note_off_c, 0, 89, 66
1, 383215, Control_c, 0, 64, 74
1, 383235, Note_off_c, 0, 61, 60
1, 383242, Note_on_c, 0, 80, 79
1, 383254, Note_on_c, 0, 70, 70
1, 383299, Note_off_c, 0, 80, 63
1, 383323, Note_off_c, 0, 70, 64
1, 383332, Note_on_c, 0, 89, 84
1, 383341, Note_on_c, 0, 73, 74
1, 383356, Control_c, 0, 64, 73
1, 383370, Control_c, 0, 64, 73
1, 383385, Control_c, 0, 64, 72
1, 383400, Control_c, 0, 64, 72
1, 383409, Note_off_c, 0, 73, 57
1, 383415, Control_c, 0, 64, 71
1, 383420, Note_on_c, 0, 80, 86
1, 383424, Note_on_c, 0, 70, 78
1, 383427, Note_off_c, 0, 89, 60
1, 383490, Note_off_c, 0, 70, 61
1, 383508, Note_off_c, 0, 80, 62
1, 383512, Note_on_c, 0, 61, 75
1, 383512, Note_on_c, 0, 77, 87
1, 383563, Control_c, 0, 64, 71
1, 383571, Note_off_c, 0, 61, 61
1, 383573, Note_off_c, 0, 77, 65
1, 383577, Control_c, 0, 64, 69
1, 383592, Control_c, 0, 64, 63
1, 383593, Note_on_c, 0, 70, 85
1, 383605, Note_on_c, 0, 79, 82
1, 383607, Control_c, 0, 64, 54
1, 383621, Control_c, 0, 64, 43
1, 383636, Control_c, 0, 64, 35
1, 383651, Control_c, 0, 64, 31
1, 383680, Note_off_c, 0, 79, 64
1, 383681, Note_on_c, 0, 61, 68
1, 383693, Note_on_c, 0, 76, 87
1, 383747, Note_on_c, 0, 58, 74
1, 383749, Note_off_c, 0, 61, 62
1, 383764, Note_off_c, 0, 76, 60
1, 383777, Note_on_c, 0, 79, 86
1, 383786, Control_c, 0, 64, 32
1, 383800, Control_c, 0, 64, 33
1, 383815, Control_c, 0, 64, 35
1, 383833, Note_off_c, 0, 58, 62
1, 383841, Note_off_c, 0, 79, 65
1, 383845, Control_c, 0, 64, 34
1, 383852, Note_on_c, 0, 60, 82
1, 383858, Note_on_c, 0, 76, 91
1, 383860, Control_c, 0, 64, 29
1, 383874, Note_off_c, 0, 70, 65
1, 383875, Control_c, 0, 64, 0
1, 383885, Note_off_c, 0, 60, 67
1, 383895, Note_off_c, 0, 76, 64
1, 383953, Note_on_c, 0, 88, 84
1, 384031, Note_off_c, 0, 88, 64
1, 384045, Note_on_c, 0, 91, 77
1, 384128, Note_on_c, 0, 88, 87
1, 384130, Note_off_c, 0, 91, 66
1, 384132, Note_on_c, 0, 73, 69
1, 384134, Note_on_c, 0, 69, 79
1, 384154, Note_off_c, 0, 69, 72
1, 384155, Note_off_c, 0, 73, 70
1, 384166, Note_off_c, 0, 88, 65
1, 384232, Note_on_c, 0, 76, 75
1, 384281, Note_off_c, 0, 76, 58
1, 384310, Note_on_c, 0, 79, 77
1, 384368, Note_off_c, 0, 79, 65
1, 384392, Note_on_c, 0, 70, 87
1, 384395, Note_on_c, 0, 76, 85
1, 384397, Note_on_c, 0, 60, 72
1, 384403, Note_on_c, 0, 58, 66
1, 384409, Note_off_c, 0, 70, 72
1, 384420, Note_off_c, 0, 76, 67
1, 384422, Note_off_c, 0, 58, 62
1, 384423, Note_off_c, 0, 60, 69
1, 384484, Note_on_c, 0, 88, 85
1, 384554, Note_off_c, 0, 88, 63
1, 384566, Note_on_c, 0, 91, 92
1, 384652, Note_on_c, 0, 88, 97
1, 384660, Note_on_c, 0, 73, 89
1, 384663, Note_on_c, 0, 69, 87
1, 384663, Note_off_c, 0, 91, 61
1, 384685, Note_off_c, 0, 69, 67
1, 384689, Note_off_c, 0, 73, 66
1, 384709, Note_off_c, 0, 88, 65
1, 384750, Note_on_c, 0, 76, 93
1, 384811, Note_off_c, 0, 76, 66
1, 384837, Note_on_c, 0, 58, 18
1, 384837, Note_off_c, 0, 58, 127
1, 384839, Note_on_c, 0, 79, 90
1, 384896, Note_off_c, 0, 79, 67
1, 384911, Control_c, 0, 64, 40
1, 384923, Note_on_c, 0, 58, 67
1, 384926, Control_c, 0, 64, 59
1, 384927, Note_on_c, 0, 69, 89
1, 384927, Note_on_c, 0, 76, 99
1, 384933, Note_on_c, 0, 60, 59
1, 384941, Control_c, 0, 64, 64
1, 384948, Note_off_c, 0, 58, 66
1, 384954, Note_off_c, 0, 60, 60
1, 384956, Control_c, 0, 64, 65
1, 384971, Note_off_c, 0, 76, 67
1, 384978, Note_off_c, 0, 69, 63
1, 385015, Control_c, 0, 64, 63
1, 385016, Note_on_c, 0, 79, 92
1, 385025, Note_on_c, 0, 70, 86
1, 385030, Control_c, 0, 64, 55
1, 385045, Control_c, 0, 64, 32
1, 385060, Control_c, 0, 64, 0
1, 385069, Note_off_c, 0, 79, 61
1, 385103, Note_off_c, 0, 70, 64
1, 385106, Note_on_c, 0, 72, 87
1, 385109, Note_on_c, 0, 88, 71
1, 385117, Note_on_c, 0, 86, 74
1, 385138, Note_off_c, 0, 86, 71
1, 385152, Note_off_c, 0, 88, 66
1, 385183, Note_off_c, 0, 72, 58
1, 385189, Note_on_c, 0, 73, 96
1, 385192, Note_on_c, 0, 91, 83
1, 385224, Note_off_c, 0, 91, 70
1, 385227, Note_off_c, 0, 73, 65
1, 385266, Note_on_c, 0, 69, 80
1, 385276, Note_on_c, 0, 76, 89
1, 385320, Note_off_c, 0, 76, 66
1, 385350, Note_on_c, 0, 70, 73
1, 385366, Note_on_c, 0, 79, 85
1, 385368, Note_off_c, 0, 69, 63
1, 385407, Note_off_c, 0, 79, 64
1, 385440, Note_off_c, 0, 70, 65
1, 385443, Note_on_c, 0, 72, 79
1, 385451, Note_on_c, 0, 88, 81
1, 385500, Note_on_c, 0, 86, 17
1, 385500, Note_off_c, 0, 86, 127
1, 385504, Note_off_c, 0, 88, 65
1, 385543, Note_on_c, 0, 91, 76
1, 385547, Note_on_c, 0, 73, 93
1, 385553, Note_off_c, 0, 72, 63
1, 385584, Note_off_c, 0, 91, 68
1, 385591, Note_off_c, 0, 73, 66
1, 385630, Note_on_c, 0, 69, 79
1, 385631, Note_on_c, 0, 76, 89
1, 385675, Note_off_c, 0, 76, 65
1, 385717, Note_on_c, 0, 70, 91
1, 385718, Note_on_c, 0, 79, 87
1, 385724, Note_off_c, 0, 69, 63
1, 385753, Note_off_c, 0, 79, 66
1, 385797, Note_off_c, 0, 70, 64
1, 385806, Note_on_c, 0, 87, 91
1, 385818, Note_on_c, 0, 72, 88
1, 385860, Note_off_c, 0, 87, 65
1, 385877, Note_off_c, 0, 72, 63
1, 385896, Note_on_c, 0, 85, 96
1, 385910, Note_on_c, 0, 73, 74
1, 385933, Note_off_c, 0, 73, 67
1, 385934, Note_off_c, 0, 85, 66
1, 385971, Control_c, 0, 67, 62
1, 385986, Control_c, 0, 67, 117
1, 386001, Control_c, 0, 67, 127
1, 386054, Note_on_c, 0, 74, 68
1, 386077, Note_on_c, 0, 68, 49
1, 386090, Note_off_c, 0, 74, 63
1, 386108, Note_off_c, 0, 68, 63
1, 386149, Note_on_c, 0, 84, 64
1, 386158, Note_on_c, 0, 79, 52
1, 386179, Note_off_c, 0, 84, 62
1, 386179, Note_off_c, 0, 79, 63
1, 386256, Note_on_c, 0, 78, 62
1, 386271, Note_on_c, 0, 72, 52
1, 386292, Note_off_c, 0, 78, 62
1, 386295, Note_off_c, 0, 72, 63
1, 386365, Note_on_c, 0, 88, 62
1, 386367, Note_on_c, 0, 83, 51
1, 386389, Note_off_c, 0, 83, 58
1, 386393, Note_off_c, 0, 88, 65
1, 386468, Note_on_c, 0, 87, 53
1, 386506, Note_off_c, 0, 87, 63
1, 386551, Note_on_c, 0, 85, 48
1, 386579, Note_off_c, 0, 85, 59
1, 386637, Note_on_c, 0, 68, 47
1, 386638, Note_on_c, 0, 74, 43
1, 386661, Note_off_c, 0, 68, 59
1, 386664, Note_off_c, 0, 74, 53
1, 386734, Note_on_c, 0, 84, 61
1, 386737, Note_on_c, 0, 79, 50
1, 386763, Note_off_c, 0, 79, 61
1, 386767, Note_off_c, 0, 84, 61
1, 386826, Note_on_c, 0, 72, 50
1, 386829, Note_on_c, 0, 78, 37
1, 386846, Note_off_c, 0, 72, 61
1, 386857, Note_off_c, 0, 78, 47
1, 386916, Note_on_c, 0, 83, 60
1, 386919, Note_on_c, 0, 88, 61
1, 386933, Note_off_c, 0, 83, 63
1, 386945, Note_off_c, 0, 88, 67
1, 387017, Note_on_c, 0, 87, 58
1, 387065, Note_off_c, 0, 87, 59
1, 387099, Note_on_c, 0, 85, 56
1, 387127, Note_off_c, 0, 85, 64
1, 387183, Note_on_c, 0, 74, 65
1, 387191, Note_on_c, 0, 68, 52
1, 387210, Note_off_c, 0, 74, 68
1, 387212, Note_off_c, 0, 68, 62
1, 387276, Note_on_c, 0, 84, 56
1, 387276, Note_on_c, 0, 79, 49
1, 387295, Note_off_c, 0, 84, 65
1, 387297, Note_off_c, 0, 79, 63
1, 387357, Note_on_c, 0, 72, 59
1, 387362, Note_on_c, 0, 78, 56
1, 387385, Note_off_c, 0, 72, 65
1, 387385, Note_off_c, 0, 78, 62
1, 387449, Note_on_c, 0, 88, 64
1, 387461, Note_on_c, 0, 83, 42
1, 387475, Note_off_c, 0, 88, 66
1, 387488, Note_off_c, 0, 83, 54
1, 387539, Note_on_c, 0, 76, 62
1, 387544, Note_on_c, 0, 82, 50
1, 387565, Note_off_c, 0, 82, 58
1, 387568, Note_off_c, 0, 76, 66
1, 387627, Note_on_c, 0, 92, 68
1, 387642, Note_on_c, 0, 87, 38
1, 387654, Note_off_c, 0, 92, 66
1, 387666, Note_off_c, 0, 87, 50
1, 387726, Note_on_c, 0, 96, 75
1, 387804, Note_off_c, 0, 96, 62
1, 387836, Note_on_c, 0, 92, 65
1, 387904, Note_off_c, 0, 92, 61
1, 387923, Note_on_c, 0, 87, 54
1, 387946, Note_off_c, 0, 87, 65
1, 387994, Note_on_c, 0, 80, 66
1, 388019, Note_off_c, 0, 80, 70
1, 388106, Note_on_c, 0, 87, 52
1, 388143, Note_off_c, 0, 87, 61
1, 388182, Note_on_c, 0, 85, 58
1, 388209, Note_off_c, 0, 85, 68
1, 388266, Note_on_c, 0, 74, 72
1, 388277, Note_on_c, 0, 68, 56
1, 388290, Note_off_c, 0, 74, 69
1, 388305, Note_off_c, 0, 68, 64
1, 388384, Note_on_c, 0, 84, 59
1, 388395, Note_on_c, 0, 79, 24
1, 388410, Note_off_c, 0, 84, 67
1, 388431, Note_off_c, 0, 79, 51
1, 388451, Note_on_c, 0, 78, 75
1, 388460, Note_on_c, 0, 72, 70
1, 388475, Note_off_c, 0, 78, 64
1, 388486, Note_off_c, 0, 72, 66
1, 388549, Note_on_c, 0, 88, 75
1, 388558, Note_on_c, 0, 83, 53
1, 388574, Note_off_c, 0, 88, 61
1, 388580, Note_off_c, 0, 83, 38
1, 388626, Control_c, 0, 67, 114
1, 388641, Control_c, 0, 67, 102
1, 388649, Note_on_c, 0, 87, 55
1, 388656, Control_c, 0, 67, 89
1, 388671, Control_c, 0, 67, 76
1, 388680, Note_off_c, 0, 87, 67
1, 388686, Control_c, 0, 67, 62
1, 388701, Control_c, 0, 67, 50
1, 388715, Control_c, 0, 67, 37
1, 388729, Note_on_c, 0, 85, 60
1, 388730, Control_c, 0, 67, 0
1, 388770, Note_off_c, 0, 85, 61
1, 388800, Note_on_c, 0, 74, 75
1, 388802, Note_on_c, 0, 68, 68
1, 388826, Note_off_c, 0, 74, 67
1, 388832, Note_off_c, 0, 68, 63
1, 388890, Note_on_c, 0, 84, 70
1, 388892, Note_on_c, 0, 79, 57
1, 388915, Note_off_c, 0, 79, 65
1, 388919, Note_off_c, 0, 84, 60
1, 388978, Note_on_c, 0, 72, 79
1, 388980, Note_on_c, 0, 78, 84
1, 389004, Note_off_c, 0, 78, 63
1, 389017, Note_off_c, 0, 72, 58
1, 389050, Note_on_c, 0, 83, 81
1, 389050, Note_on_c, 0, 88, 84
1, 389070, Note_off_c, 0, 83, 68
1, 389085, Note_off_c, 0, 88, 58
1, 389142, Note_on_c, 0, 87, 76
1, 389197, Note_off_c, 0, 87, 63
1, 389217, Note_on_c, 0, 85, 75
1, 389262, Note_off_c, 0, 85, 60
1, 389291, Note_on_c, 0, 74, 101
1, 389304, Note_on_c, 0, 68, 77
1, 389325, Note_off_c, 0, 68, 71
1, 389325, Note_off_c, 0, 74, 69
1, 389379, Note_on_c, 0, 84, 83
1, 389392, Note_on_c, 0, 79, 56
1, 389408, Note_off_c, 0, 84, 59
1, 389410, Note_off_c, 0, 79, 65
1, 389467, Note_on_c, 0, 78, 99
1, 389472, Note_on_c, 0, 72, 91
1, 389496, Note_off_c, 0, 72, 63
1, 389496, Note_off_c, 0, 78, 62
1, 389546, Note_on_c, 0, 88, 84
1, 389562, Note_on_c, 0, 83, 50
1, 389584, Note_off_c, 0, 83, 58
1, 389584, Note_off_c, 0, 88, 66
1, 389632, Note_on_c, 0, 82, 99
1, 389635, Note_on_c, 0, 76, 94
1, 389651, Note_off_c, 0, 76, 77
1, 389653, Note_off_c, 0, 82, 65
1, 389711, Note_on_c, 0, 92, 91
1, 389718, Note_on_c, 0, 87, 76
1, 389743, Note_off_c, 0, 87, 64
1, 389764, Note_off_c, 0, 92, 66
1, 389814, Note_on_c, 0, 96, 102
1, 389818, Note_on_c, 0, 84, 94
1, 389893, Control_c, 0, 64, 35
1, 389900, Note_on_c, 0, 92, 88
1, 389908, Control_c, 0, 64, 54
1, 389923, Control_c, 0, 64, 61
1, 389935, Note_off_c, 0, 96, 65
1, 389938, Control_c, 0, 64, 65
1, 389953, Control_c, 0, 64, 69
1, 389967, Control_c, 0, 64, 75
1, 389978, Note_off_c, 0, 84, 63
1, 389982, Control_c, 0, 64, 82
1, 389994, Note_on_c, 0, 87, 87
1, 389997, Control_c, 0, 64, 89
1, 390019, Control_c, 0, 64, 93
1, 390020, Note_off_c, 0, 92, 66
1, 390034, Control_c, 0, 64, 94
1, 390049, Control_c, 0, 64, 95
1, 390053, Note_off_c, 0, 87, 66
1, 390063, Control_c, 0, 64, 95
1, 390094, Control_c, 0, 64, 96
1, 390097, Note_on_c, 0, 80, 99
1, 390123, Note_off_c, 0, 80, 67
1, 390182, Note_on_c, 0, 92, 98
1, 390227, Control_c, 0, 64, 99
1, 390242, Control_c, 0, 64, 105
1, 390257, Control_c, 0, 64, 115
1, 390263, Note_off_c, 0, 92, 64
1, 390272, Note_on_c, 0, 96, 96
1, 390272, Control_c, 0, 64, 127
1, 390331, Control_c, 0, 64, 90
1, 390346, Control_c, 0, 64, 68
1, 390361, Control_c, 0, 64, 47
1, 390376, Control_c, 0, 64, 31
1, 390391, Control_c, 0, 64, 34
1, 390400, Note_on_c, 0, 92, 95
1, 390406, Control_c, 0, 64, 47
1, 390406, Note_on_c, 0, 61, 66
1, 390415, Note_off_c, 0, 96, 63
1, 390420, Control_c, 0, 64, 64
1, 390435, Control_c, 0, 64, 73
1, 390450, Control_c, 0, 64, 82
1, 390465, Control_c, 0, 64, 89
1, 390474, Note_off_c, 0, 92, 69
1, 390480, Control_c, 0, 64, 93
1, 390494, Control_c, 0, 64, 98
1, 390507, Note_off_c, 0, 61, 63
1, 390509, Control_c, 0, 64, 102
1, 390519, Note_on_c, 0, 80, 88
1, 390521, Note_on_c, 0, 67, 66
1, 390524, Control_c, 0, 64, 107
1, 390539, Control_c, 0, 64, 112
1, 390554, Control_c, 0, 64, 117
1, 390568, Control_c, 0, 64, 122
1, 390583, Control_c, 0, 64, 127
1, 390591, Note_off_c, 0, 80, 62
1, 390614, Note_on_c, 0, 84, 94
1, 390621, Note_off_c, 0, 67, 61
1, 390630, Note_on_c, 0, 72, 73
1, 390659, Note_off_c, 0, 84, 68
1, 390678, Note_off_c, 0, 72, 62
1, 390708, Note_on_c, 0, 76, 73
1, 390737, Note_off_c, 0, 76, 63
1, 390800, Note_on_c, 0, 84, 91
1, 390812, Control_c, 0, 64, 119
1, 390827, Control_c, 0, 64, 92
1, 390842, Control_c, 0, 64, 71
1, 390857, Control_c, 0, 64, 51
1, 390872, Control_c, 0, 64, 0
1, 390891, Note_on_c, 0, 92, 89
1, 390903, Note_off_c, 0, 84, 62
1, 390932, Control_c, 0, 64, 42
1, 390947, Control_c, 0, 64, 52
1, 390950, Note_on_c, 0, 90, 22
1, 390962, Control_c, 0, 64, 59
1, 390965, Note_on_c, 0, 61, 61
1, 390977, Control_c, 0, 64, 63
1, 390981, Note_on_c, 0, 96, 90
1, 390982, Note_off_c, 0, 92, 66
1, 390990, Note_off_c, 0, 90, 30
1, 390991, Control_c, 0, 64, 65
1, 391006, Control_c, 0, 64, 66
1, 391021, Control_c, 0, 64, 68
1, 391035, Control_c, 0, 64, 70
1, 391050, Control_c, 0, 64, 72
1, 391054, Note_off_c, 0, 61, 59
1, 391064, Note_on_c, 0, 67, 55
1, 391065, Control_c, 0, 64, 73
1, 391076, Note_on_c, 0, 92, 91
1, 391080, Control_c, 0, 64, 74
1, 391092, Note_off_c, 0, 96, 63
1, 391095, Control_c, 0, 64, 75
1, 391109, Control_c, 0, 64, 76
1, 391124, Control_c, 0, 64, 77
1, 391140, Note_off_c, 0, 92, 67
1, 391146, Note_off_c, 0, 67, 60
1, 391159, Note_on_c, 0, 84, 81
1, 391160, Note_on_c, 0, 72, 63
1, 391213, Note_off_c, 0, 72, 61
1, 391222, Note_off_c, 0, 84, 60
1, 391247, Note_on_c, 0, 76, 58
1, 391249, Note_on_c, 0, 92, 88
1, 391270, Note_off_c, 0, 76, 57
1, 391328, Note_on_c, 0, 84, 82
1, 391339, Note_off_c, 0, 92, 64
1, 391398, Note_off_c, 0, 84, 63
1, 391412, Note_on_c, 0, 80, 86
1, 391435, Control_c, 0, 64, 77
1, 391455, Note_off_c, 0, 80, 65
1, 391465, Control_c, 0, 64, 77
1, 391495, Control_c, 0, 64, 72
1, 391512, Note_on_c, 0, 83, 89
1, 391517, Control_c, 0, 64, 63
1, 391527, Note_on_c, 0, 61, 68
1, 391532, Control_c, 0, 64, 43
1, 391547, Control_c, 0, 64, 0
1, 391558, Note_on_c, 0, 82, 75
1, 391559, Note_off_c, 0, 83, 64
1, 391580, Note_off_c, 0, 61, 62
1, 391594, Note_on_c, 0, 83, 74
1, 391595, Note_on_c, 0, 68, 63
1, 391618, Note_off_c, 0, 82, 64
1, 391635, Control_c, 0, 64, 34
1, 391650, Control_c, 0, 64, 48
1, 391665, Control_c, 0, 64, 59
1, 391681, Control_c, 0, 64, 63
1, 391687, Note_off_c, 0, 68, 58
1, 391696, Control_c, 0, 64, 64
1, 391704, Note_on_c, 0, 73, 61
1, 391711, Control_c, 0, 64, 65
1, 391726, Control_c, 0, 64, 67
1, 391740, Control_c, 0, 64, 68
1, 391755, Control_c, 0, 64, 70
1, 391765, Note_off_c, 0, 73, 61
1, 391766, Note_off_c, 0, 83, 64
1, 391770, Control_c, 0, 64, 71
1, 391784, Control_c, 0, 64, 71
1, 391799, Control_c, 0, 64, 72
1, 391803, Note_on_c, 0, 80, 71
1, 391811, Note_on_c, 0, 77, 64
1, 391814, Control_c, 0, 64, 72
1, 391825, Note_off_c, 0, 80, 72
1, 391834, Note_off_c, 0, 77, 64
1, 391844, Control_c, 0, 64, 73
1, 391858, Control_c, 0, 67, 43
1, 391873, Control_c, 0, 67, 68
1, 391888, Control_c, 0, 67, 94
1, 391898, Note_on_c, 0, 91, 74
1, 391903, Control_c, 0, 64, 72
1, 391903, Control_c, 0, 67, 122
1, 391918, Control_c, 0, 67, 127
1, 391932, Control_c, 0, 64, 69
1, 391947, Control_c, 0, 64, 61
1, 391962, Control_c, 0, 64, 45
1, 391966, Note_off_c, 0, 91, 64
1, 391977, Control_c, 0, 64, 0
1, 391983, Note_on_c, 0, 95, 69
1, 392081, Note_on_c, 0, 61, 48
1, 392081, Note_off_c, 0, 95, 61
1, 392090, Note_on_c, 0, 91, 66
1, 392096, Control_c, 0, 64, 36
1, 392111, Control_c, 0, 64, 48
1, 392123, Note_off_c, 0, 91, 64
1, 392126, Control_c, 0, 64, 57
1, 392140, Control_c, 0, 64, 61
1, 392155, Control_c, 0, 64, 62
1, 392160, Note_off_c, 0, 61, 60
1, 392170, Control_c, 0, 64, 63
1, 392179, Note_on_c, 0, 66, 50
1, 392182, Note_on_c, 0, 79, 56
1, 392184, Control_c, 0, 64, 64
1, 392199, Control_c, 0, 64, 64
1, 392214, Control_c, 0, 64, 65
1, 392229, Control_c, 0, 64, 65
1, 392244, Control_c, 0, 64, 66
1, 392260, Note_off_c, 0, 79, 53
1, 392266, Control_c, 0, 64, 66
1, 392273, Note_off_c, 0, 66, 57
1, 392281, Note_on_c, 0, 83, 60
1, 392301, Note_on_c, 0, 71, 44
1, 392311, Note_off_c, 0, 83, 64
1, 392340, Control_c, 0, 64, 67
1, 392344, Note_off_c, 0, 71, 62
1, 392378, Note_on_c, 0, 74, 51
1, 392419, Note_off_c, 0, 74, 62
1, 392467, Note_on_c, 0, 83, 72
1, 392504, Control_c, 0, 64, 66
1, 392534, Control_c, 0, 64, 65
1, 392549, Control_c, 0, 64, 62
1, 392555, Note_on_c, 0, 91, 73
1, 392555, Note_off_c, 0, 83, 60
1, 392563, Control_c, 0, 64, 53
1, 392578, Control_c, 0, 64, 43
1, 392593, Control_c, 0, 64, 32
1, 392607, Control_c, 0, 64, 0
1, 392641, Note_on_c, 0, 61, 63
1, 392642, Note_off_c, 0, 91, 66
1, 392644, Note_on_c, 0, 95, 82
1, 392667, Control_c, 0, 64, 35
1, 392681, Control_c, 0, 64, 43
1, 392696, Control_c, 0, 64, 50
1, 392711, Note_off_c, 0, 61, 63
1, 392711, Control_c, 0, 64, 56
1, 392726, Control_c, 0, 64, 58
1, 392727, Note_on_c, 0, 66, 61
1, 392736, Note_on_c, 0, 91, 76
1, 392736, Note_off_c, 0, 95, 66
1, 392741, Control_c, 0, 64, 60
1, 392755, Control_c, 0, 64, 60
1, 392770, Control_c, 0, 64, 61
1, 392785, Control_c, 0, 64, 62
1, 392802, Note_off_c, 0, 91, 65
1, 392815, Note_off_c, 0, 66, 62
1, 392822, Note_on_c, 0, 71, 61
1, 392829, Note_on_c, 0, 83, 71
1, 392859, Control_c, 0, 64, 61
1, 392873, Note_off_c, 0, 71, 60
1, 392874, Control_c, 0, 64, 61
1, 392875, Note_off_c, 0, 83, 62
1, 392889, Control_c, 0, 64, 60
1, 392899, Note_on_c, 0, 74, 81
1, 392915, Note_on_c, 0, 91, 82
1, 392942, Note_off_c, 0, 74, 62
1, 392978, Control_c, 0, 64, 61
1, 392993, Control_c, 0, 64, 61
1, 392993, Control_c, 0, 67, 119
1, 392996, Note_on_c, 0, 83, 85
1, 393010, Note_off_c, 0, 91, 63
1, 393014, Control_c, 0, 67, 93
1, 393029, Control_c, 0, 67, 66
1, 393044, Control_c, 0, 64, 62
1, 393044, Control_c, 0, 67, 37
1, 393059, Control_c, 0, 67, 0
1, 393063, Note_off_c, 0, 83, 64
1, 393074, Control_c, 0, 64, 62
1, 393088, Note_on_c, 0, 79, 76
1, 393103, Control_c, 0, 64, 63
1, 393133, Control_c, 0, 64, 62
1, 393147, Note_off_c, 0, 79, 64
1, 393148, Control_c, 0, 64, 59
1, 393163, Control_c, 0, 64, 49
1, 393178, Control_c, 0, 64, 29
1, 393181, Note_on_c, 0, 82, 80
1, 393189, Note_on_c, 0, 62, 70
1, 393193, Control_c, 0, 64, 0
1, 393224, Note_off_c, 0, 82, 64
1, 393250, Note_off_c, 0, 62, 62
1, 393279, Note_on_c, 0, 82, 75
1, 393280, Note_on_c, 0, 67, 77
1, 393297, Control_c, 0, 64, 31
1, 393312, Control_c, 0, 64, 38
1, 393327, Control_c, 0, 64, 45
1, 393339, Note_off_c, 0, 82, 61
1, 393342, Control_c, 0, 64, 52
1, 393343, Note_off_c, 0, 67, 61
1, 393357, Control_c, 0, 64, 56
1, 393369, Note_on_c, 0, 78, 80
1, 393372, Control_c, 0, 64, 57
1, 393377, Note_on_c, 0, 70, 79
1, 393401, Control_c, 0, 64, 55
1, 393416, Control_c, 0, 64, 48
1, 393418, Note_off_c, 0, 78, 61
1, 393430, Control_c, 0, 64, 32
1, 393432, Note_off_c, 0, 70, 65
1, 393445, Control_c, 0, 64, 0
1, 393469, Note_on_c, 0, 73, 71
1, 393471, Note_on_c, 0, 88, 90
1, 393488, Note_off_c, 0, 73, 67
1, 393506, Note_off_c, 0, 88, 66
1, 393581, Note_on_c, 0, 86, 83
1, 393616, Note_off_c, 0, 86, 63
1, 393694, Note_on_c, 0, 84, 89
1, 393717, Note_off_c, 0, 84, 66
1, 393848, Note_on_c, 0, 83, 82
1, 393867, Control_c, 0, 67, 42
1, 393875, Note_on_c, 0, 67, 52
1, 393882, Control_c, 0, 64, 47
1, 393882, Control_c, 0, 67, 73
1, 393897, Control_c, 0, 64, 57
1, 393897, Control_c, 0, 67, 113
1, 393911, Control_c, 0, 64, 60
1, 393911, Control_c, 0, 67, 127
1, 393926, Control_c, 0, 64, 61
1, 393941, Control_c, 0, 64, 62
1, 393956, Control_c, 0, 64, 62
1, 393971, Control_c, 0, 64, 63
1, 393986, Control_c, 0, 64, 63
1, 393987, Note_on_c, 0, 73, 52
1, 393989, Note_on_c, 0, 78, 64
1, 394001, Control_c, 0, 64, 64
1, 394030, Control_c, 0, 64, 64
1, 394036, Note_off_c, 0, 73, 57
1, 394060, Control_c, 0, 64, 65
1, 394076, Note_off_c, 0, 83, 59
1, 394078, Note_on_c, 0, 71, 51
1, 394098, Note_on_c, 0, 87, 53
1, 394112, Note_off_c, 0, 78, 58
1, 394120, Control_c, 0, 64, 64
1, 394126, Note_off_c, 0, 71, 60
1, 394135, Control_c, 0, 64, 62
1, 394150, Control_c, 0, 64, 50
1, 394154, Note_on_c, 0, 77, 66
1, 394154, Note_off_c, 0, 87, 44
1, 394165, Control_c, 0, 64, 0
1, 394167, Note_on_c, 0, 82, 69
1, 394171, Note_off_c, 0, 67, 42
1, 394180, Note_off_c, 0, 77, 68
1, 394221, Note_off_c, 0, 82, 60
1, 394266, Note_on_c, 0, 86, 72
1, 394310, Note_off_c, 0, 86, 61
1, 394358, Note_on_c, 0, 84, 75
1, 394406, Note_off_c, 0, 84, 63
1, 394444, Note_on_c, 0, 83, 76
1, 394454, Note_on_c, 0, 67, 57
1, 394460, Control_c, 0, 64, 44
1, 394475, Control_c, 0, 64, 57
1, 394490, Control_c, 0, 64, 60
1, 394513, Control_c, 0, 64, 61
1, 394528, Control_c, 0, 64, 61
1, 394542, Control_c, 0, 64, 62
1, 394557, Control_c, 0, 64, 63
1, 394560, Note_on_c, 0, 73, 48
1, 394572, Control_c, 0, 64, 64
1, 394573, Note_on_c, 0, 78, 56
1, 394586, Control_c, 0, 64, 65
1, 394597, Note_off_c, 0, 73, 63
1, 394601, Control_c, 0, 64, 65
1, 394616, Control_c, 0, 64, 66
1, 394631, Control_c, 0, 64, 66
1, 394632, Note_off_c, 0, 83, 63
1, 394646, Control_c, 0, 64, 67
1, 394653, Note_on_c, 0, 71, 38
1, 394660, Note_on_c, 0, 87, 48
1, 394704, Note_off_c, 0, 71, 52
1, 394716, Note_off_c, 0, 87, 51
1, 394721, Control_c, 0, 64, 65
1, 394722, Note_off_c, 0, 78, 58
1, 394734, Note_off_c, 0, 67, 54
1, 394735, Control_c, 0, 64, 57
1, 394737, Note_on_c, 0, 77, 58
1, 394743, Note_on_c, 0, 82, 70
1, 394750, Control_c, 0, 64, 0
1, 394757, Note_off_c, 0, 77, 63
1, 394782, Note_off_c, 0, 82, 59
1, 394835, Note_on_c, 0, 86, 72
1, 394880, Note_off_c, 0, 86, 59
1, 394919, Note_on_c, 0, 84, 73
1, 394965, Note_off_c, 0, 84, 64
1, 395002, Note_on_c, 0, 83, 83
1, 395015, Note_on_c, 0, 67, 66
1, 395017, Control_c, 0, 64, 42
1, 395032, Control_c, 0, 64, 57
1, 395047, Control_c, 0, 64, 60
1, 395062, Control_c, 0, 64, 61
1, 395077, Control_c, 0, 64, 61
1, 395092, Control_c, 0, 64, 63
1, 395092, Control_c, 0, 67, 121
1, 395107, Control_c, 0, 64, 65
1, 395107, Control_c, 0, 67, 105
1, 395119, Note_off_c, 0, 67, 55
1, 395121, Note_on_c, 0, 78, 58
1, 395121, Control_c, 0, 64, 66
1, 395121, Control_c, 0, 67, 92
1, 395136, Control_c, 0, 64, 68
1, 395136, Control_c, 0, 67, 80
1, 395144, Note_off_c, 0, 83, 58
1, 395146, Note_on_c, 0, 73, 39
1, 395151, Control_c, 0, 64, 70
1, 395151, Control_c, 0, 67, 68
1, 395166, Control_c, 0, 64, 71
1, 395166, Control_c, 0, 67, 56
1, 395177, Note_off_c, 0, 73, 56
1, 395181, Control_c, 0, 64, 72
1, 395181, Control_c, 0, 67, 43
1, 395190, Note_off_c, 0, 78, 59
1, 395196, Control_c, 0, 67, 0
1, 395210, Note_on_c, 0, 71, 52
1, 395213, Note_on_c, 0, 87, 63
1, 395225, Control_c, 0, 64, 72
1, 395240, Control_c, 0, 64, 71
1, 395256, Note_off_c, 0, 71, 63
1, 395262, Control_c, 0, 64, 69
1, 395268, Note_off_c, 0, 87, 58
1, 395277, Control_c, 0, 64, 68
1, 395291, Control_c, 0, 64, 66
1, 395299, Note_on_c, 0, 82, 86
1, 395306, Control_c, 0, 64, 66
1, 395312, Note_on_c, 0, 77, 63
1, 395359, Note_off_c, 0, 77, 59
1, 395381, Control_c, 0, 64, 66
1, 395384, Note_off_c, 0, 82, 61
1, 395396, Control_c, 0, 64, 67
1, 395399, Note_on_c, 0, 91, 68
1, 395410, Control_c, 0, 64, 68
1, 395418, Note_on_c, 0, 75, 35
1, 395425, Control_c, 0, 64, 70
1, 395439, Control_c, 0, 64, 70
1, 395447, Note_off_c, 0, 75, 58
1, 395455, Note_off_c, 0, 91, 66
1, 395469, Control_c, 0, 64, 70
1, 395483, Control_c, 0, 64, 66
1, 395498, Control_c, 0, 64, 53
1, 395500, Note_on_c, 0, 81, 71
1, 395500, Note_on_c, 0, 86, 77
1, 395513, Control_c, 0, 64, 0
1, 395543, Note_off_c, 0, 81, 62
1, 395554, Note_off_c, 0, 86, 62
1, 395587, Control_c, 0, 64, 44
1, 395589, Note_on_c, 0, 95, 75
1, 395592, Note_on_c, 0, 79, 56
1, 395601, Control_c, 0, 64, 57
1, 395616, Control_c, 0, 64, 63
1, 395631, Control_c, 0, 64, 63
1, 395646, Control_c, 0, 64, 64
1, 395656, Note_off_c, 0, 95, 61
1, 395666, Note_off_c, 0, 79, 59
1, 395676, Note_on_c, 0, 91, 70
1, 395677, Control_c, 0, 64, 64
1, 395706, Control_c, 0, 64, 65
1, 395721, Control_c, 0, 64, 65
1, 395736, Control_c, 0, 64, 66
1, 395740, Note_off_c, 0, 91, 60
1, 395751, Control_c, 0, 64, 66
1, 395759, Note_on_c, 0, 86, 80
1, 395778, Note_off_c, 0, 86, 72
1, 395780, Control_c, 0, 64, 67
1, 395810, Control_c, 0, 64, 67
1, 395852, Note_on_c, 0, 79, 76
1, 395855, Control_c, 0, 64, 67
1, 395855, Control_c, 0, 67, 55
1, 395870, Note_off_c, 0, 79, 74
1, 395870, Control_c, 0, 64, 62
1, 395870, Control_c, 0, 67, 83
1, 395885, Control_c, 0, 64, 48
1, 395885, Control_c, 0, 67, 113
1, 395899, Control_c, 0, 64, 0
1, 395899, Control_c, 0, 67, 127
1, 395959, Note_on_c, 0, 74, 65
1, 396010, Note_off_c, 0, 74, 59
1, 396049, Note_on_c, 0, 72, 67
1, 396101, Note_off_c, 0, 72, 61
1, 396148, Note_on_c, 0, 71, 68
1, 396152, Note_on_c, 0, 55, 50
1, 396158, Control_c, 0, 64, 39
1, 396173, Control_c, 0, 64, 49
1, 396188, Control_c, 0, 64, 56
1, 396203, Control_c, 0, 64, 59
1, 396214, Note_off_c, 0, 55, 55
1, 396218, Control_c, 0, 64, 60
1, 396232, Control_c, 0, 64, 60
1, 396242, Note_on_c, 0, 66, 58
1, 396247, Control_c, 0, 64, 61
1, 396254, Note_on_c, 0, 61, 34
1, 396262, Control_c, 0, 64, 62
1, 396277, Control_c, 0, 64, 62
1, 396287, Note_off_c, 0, 61, 52
1, 396292, Control_c, 0, 64, 63
1, 396329, Note_off_c, 0, 71, 60
1, 396334, Note_on_c, 0, 59, 47
1, 396336, Control_c, 0, 64, 63
1, 396347, Note_on_c, 0, 75, 52
1, 396394, Note_off_c, 0, 59, 61
1, 396415, Note_off_c, 0, 75, 61
1, 396422, Note_on_c, 0, 65, 60
1, 396424, Note_off_c, 0, 66, 61
1, 396424, Control_c, 0, 64, 63
1, 396433, Note_on_c, 0, 70, 66
1, 396439, Control_c, 0, 64, 57
1, 396445, Note_off_c, 0, 65, 63
1, 396454, Control_c, 0, 64, 41
1, 396470, Control_c, 0, 64, 0
1, 396487, Note_off_c, 0, 70, 57
1, 396531, Note_on_c, 0, 74, 62
1, 396571, Note_off_c, 0, 74, 60
1, 396619, Note_on_c, 0, 72, 62
1, 396658, Note_off_c, 0, 72, 61
1, 396709, Note_on_c, 0, 71, 79
1, 396722, Control_c, 0, 64, 40
1, 396725, Note_on_c, 0, 55, 51
1, 396737, Control_c, 0, 64, 50
1, 396759, Control_c, 0, 64, 56
1, 396773, Control_c, 0, 64, 58
1, 396788, Control_c, 0, 64, 59
1, 396790, Note_off_c, 0, 55, 52
1, 396803, Control_c, 0, 64, 60
1, 396818, Control_c, 0, 64, 60
1, 396829, Note_on_c, 0, 66, 49
1, 396833, Control_c, 0, 64, 61
1, 396844, Note_on_c, 0, 61, 33
1, 396848, Control_c, 0, 64, 62
1, 396862, Control_c, 0, 64, 62
1, 396877, Control_c, 0, 64, 63
1, 396883, Note_off_c, 0, 61, 50
1, 396892, Control_c, 0, 64, 63
1, 396907, Control_c, 0, 64, 64
1, 396919, Note_off_c, 0, 71, 59
1, 396924, Note_on_c, 0, 59, 43
1, 396931, Note_on_c, 0, 75, 51
1, 396937, Control_c, 0, 64, 64
1, 396970, Note_off_c, 0, 59, 63
1, 396977, Note_off_c, 0, 75, 56
1, 397002, Note_off_c, 0, 66, 61
1, 397008, Note_on_c, 0, 65, 55
1, 397011, Control_c, 0, 64, 62
1, 397020, Note_on_c, 0, 70, 65
1, 397026, Control_c, 0, 64, 54
1, 397032, Note_off_c, 0, 65, 63
1, 397041, Control_c, 0, 64, 35
1, 397055, Control_c, 0, 64, 0
1, 397059, Note_off_c, 0, 70, 61
1, 397112, Note_on_c, 0, 74, 67
1, 397150, Note_off_c, 0, 74, 59
1, 397197, Note_on_c, 0, 72, 70
1, 397236, Note_off_c, 0, 72, 60
1, 397247, Control_c, 0, 67, 124
1, 397262, Control_c, 0, 67, 120
1, 397274, Note_on_c, 0, 71, 81
1, 397278, Control_c, 0, 67, 117
1, 397293, Control_c, 0, 64, 37
1, 397293, Control_c, 0, 67, 115
1, 397298, Note_on_c, 0, 55, 55
1, 397308, Control_c, 0, 64, 49
1, 397308, Control_c, 0, 67, 113
1, 397323, Control_c, 0, 64, 55
1, 397338, Control_c, 0, 64, 58
1, 397338, Control_c, 0, 67, 111
1, 397352, Control_c, 0, 64, 60
1, 397367, Control_c, 0, 64, 62
1, 397367, Control_c, 0, 67, 109
1, 397382, Control_c, 0, 64, 63
1, 397387, Note_on_c, 0, 66, 72
1, 397395, Note_off_c, 0, 55, 54
1, 397396, Control_c, 0, 64, 64
1, 397401, Note_on_c, 0, 61, 49
1, 397404, Note_off_c, 0, 71, 59
1, 397411, Control_c, 0, 64, 66
1, 397426, Control_c, 0, 64, 67
1, 397441, Control_c, 0, 64, 68
1, 397455, Note_off_c, 0, 66, 63
1, 397456, Control_c, 0, 64, 69
1, 397470, Control_c, 0, 67, 107
1, 397473, Note_on_c, 0, 75, 62
1, 397478, Note_off_c, 0, 61, 61
1, 397490, Note_on_c, 0, 59, 48
1, 397508, Control_c, 0, 64, 66
1, 397508, Control_c, 0, 67, 104
1, 397521, Note_off_c, 0, 59, 58
1, 397523, Control_c, 0, 64, 59
1, 397523, Control_c, 0, 67, 100
1, 397527, Note_off_c, 0, 75, 54
1, 397538, Control_c, 0, 64, 46
1, 397538, Control_c, 0, 67, 90
1, 397552, Control_c, 0, 64, 38
1, 397552, Control_c, 0, 67, 77
1, 397560, Note_on_c, 0, 70, 82
1, 397567, Control_c, 0, 64, 38
1, 397567, Control_c, 0, 67, 63
1, 397569, Note_on_c, 0, 65, 57
1, 397582, Control_c, 0, 64, 41
1, 397582, Control_c, 0, 67, 53
1, 397596, Control_c, 0, 64, 50
1, 397596, Control_c, 0, 67, 49
1, 397604, Note_off_c, 0, 65, 62
1, 397607, Note_off_c, 0, 70, 64
1, 397611, Control_c, 0, 64, 57
1, 397611, Control_c, 0, 67, 46
1, 397626, Control_c, 0, 64, 61
1, 397626, Control_c, 0, 67, 43
1, 397641, Control_c, 0, 64, 62
1, 397641, Control_c, 0, 67, 41
1, 397656, Control_c, 0, 64, 64
1, 397656, Control_c, 0, 67, 0
1, 397661, Note_on_c, 0, 79, 62
1, 397665, Note_on_c, 0, 63, 55
1, 397670, Control_c, 0, 64, 65
1, 397685, Control_c, 0, 64, 66
1, 397700, Control_c, 0, 64, 67
1, 397702, Note_off_c, 0, 79, 61
1, 397715, Control_c, 0, 64, 68
1, 397728, Note_off_c, 0, 63, 63
1, 397730, Control_c, 0, 64, 68
1, 397745, Control_c, 0, 64, 68
1, 397754, Note_on_c, 0, 74, 89
1, 397760, Control_c, 0, 64, 64
1, 397768, Note_on_c, 0, 69, 57
1, 397774, Control_c, 0, 64, 52
1, 397786, Note_off_c, 0, 74, 64
1, 397789, Note_off_c, 0, 69, 62
1, 397789, Control_c, 0, 64, 0
1, 397841, Note_on_c, 0, 83, 97
1, 397846, Note_on_c, 0, 67, 69
1, 397849, Control_c, 0, 64, 41
1, 397864, Control_c, 0, 64, 57
1, 397878, Control_c, 0, 64, 63
1, 397893, Control_c, 0, 64, 65
1, 397906, Note_off_c, 0, 83, 64
1, 397908, Control_c, 0, 64, 66
1, 397922, Control_c, 0, 64, 68
1, 397937, Control_c, 0, 64, 70
1, 397944, Note_on_c, 0, 78, 78
1, 397944, Note_on_c, 0, 73, 58
1, 397952, Control_c, 0, 64, 73
1, 397956, Note_off_c, 0, 67, 57
1, 397967, Control_c, 0, 64, 77
1, 397982, Control_c, 0, 64, 80
1, 397996, Control_c, 0, 64, 84
1, 398001, Note_off_c, 0, 78, 60
1, 398011, Control_c, 0, 64, 85
1, 398026, Control_c, 0, 64, 86
1, 398030, Note_on_c, 0, 87, 77
1, 398030, Note_off_c, 0, 73, 51
1, 398041, Note_on_c, 0, 71, 50
1, 398056, Control_c, 0, 64, 84
1, 398068, Note_off_c, 0, 71, 57
1, 398072, Control_c, 0, 64, 72
1, 398087, Control_c, 0, 64, 58
1, 398093, Note_off_c, 0, 87, 60
1, 398101, Control_c, 0, 64, 30
1, 398108, Note_on_c, 0, 77, 75
1, 398114, Note_on_c, 0, 82, 92
1, 398116, Control_c, 0, 64, 0
1, 398160, Note_off_c, 0, 77, 62
1, 398160, Note_off_c, 0, 82, 64
1, 398201, Note_on_c, 0, 75, 69
1, 398204, Note_on_c, 0, 91, 74
1, 398257, Note_off_c, 0, 91, 65
1, 398279, Note_off_c, 0, 75, 64
1, 398313, Note_on_c, 0, 81, 79
1, 398314, Note_on_c, 0, 86, 83
1, 398349, Note_off_c, 0, 86, 69
1, 398350, Note_off_c, 0, 81, 64
1, 398375, Control_c, 0, 64, 42
1, 398390, Control_c, 0, 64, 57
1, 398395, Note_on_c, 0, 79, 77
1, 398396, Note_on_c, 0, 95, 106
1, 398405, Control_c, 0, 64, 64
1, 398419, Control_c, 0, 64, 65
1, 398434, Control_c, 0, 64, 66
1, 398449, Control_c, 0, 64, 66
1, 398458, Note_off_c, 0, 95, 67
1, 398464, Control_c, 0, 64, 67
1, 398479, Control_c, 0, 64, 69
1, 398493, Control_c, 0, 64, 71
1, 398495, Note_on_c, 0, 90, 83
1, 398507, Note_on_c, 0, 85, 70
1, 398508, Control_c, 0, 64, 72
1, 398522, Note_off_c, 0, 79, 59
1, 398523, Control_c, 0, 64, 74
1, 398538, Control_c, 0, 64, 76
1, 398552, Control_c, 0, 64, 78
1, 398565, Note_off_c, 0, 90, 63
1, 398567, Control_c, 0, 64, 81
1, 398578, Note_on_c, 0, 99, 88
1, 398582, Control_c, 0, 64, 82
1, 398594, Note_on_c, 0, 83, 61
1, 398594, Note_off_c, 0, 85, 61
1, 398612, Control_c, 0, 64, 82
1, 398627, Control_c, 0, 64, 79
1, 398634, Note_off_c, 0, 83, 63
1, 398642, Control_c, 0, 64, 69
1, 398657, Note_off_c, 0, 99, 43
1, 398657, Control_c, 0, 64, 53
1, 398666, Note_on_c, 0, 89, 85
1, 398667, Note_on_c, 0, 94, 100
1, 398672, Control_c, 0, 64, 0
1, 398718, Note_off_c, 0, 94, 66
1, 398722, Note_off_c, 0, 89, 64
1, 398742, Note_on_c, 0, 103, 94
1, 398759, Note_on_c, 0, 87, 69
1, 398800, Note_off_c, 0, 103, 66
1, 398821, Note_off_c, 0, 87, 65
1, 398849, Note_on_c, 0, 93, 92
1, 398849, Note_on_c, 0, 98, 89
1, 398895, Note_off_c, 0, 93, 65
1, 398907, Note_off_c, 0, 98, 68
1, 398910, Control_c, 0, 64, 51
1, 398924, Control_c, 0, 64, 63
1, 398931, Note_on_c, 0, 107, 96
1, 398937, Note_on_c, 0, 91, 103
1, 398939, Control_c, 0, 64, 66
1, 398954, Control_c, 0, 64, 67
1, 398967, Note_off_c, 0, 91, 70
1, 398968, Control_c, 0, 64, 69
1, 398983, Control_c, 0, 64, 71
1, 399000, Note_off_c, 0, 107, 61
1, 399006, Control_c, 0, 64, 72
1, 399019, Note_on_c, 0, 98, 79
1, 399020, Control_c, 0, 64, 72
1, 399035, Control_c, 0, 64, 73
1, 399065, Control_c, 0, 64, 73
1, 399076, Note_off_c, 0, 98, 65
1, 399080, Control_c, 0, 64, 74
1, 399095, Control_c, 0, 64, 75
1, 399108, Note_on_c, 0, 91, 82
1, 399110, Control_c, 0, 64, 76
1, 399124, Control_c, 0, 64, 77
1, 399128, Note_off_c, 0, 91, 73
1, 399139, Control_c, 0, 64, 78
1, 399183, Control_c, 0, 64, 77
1, 399193, Note_on_c, 0, 85, 104
1, 399198, Control_c, 0, 64, 69
1, 399213, Control_c, 0, 64, 58
1, 399215, Note_off_c, 0, 85, 69
1, 399228, Control_c, 0, 64, 39
1, 399242, Control_c, 0, 64, 0
1, 399283, Note_on_c, 0, 95, 79
1, 399302, Control_c, 0, 64, 31
1, 399345, Note_off_c, 0, 95, 61
1, 399361, Control_c, 0, 64, 32
1, 399369, Note_on_c, 0, 86, 73
1, 399375, Control_c, 0, 64, 33
1, 399390, Control_c, 0, 64, 33
1, 399408, Note_off_c, 0, 86, 65
1, 399450, Note_on_c, 0, 79, 80
1, 399468, Note_off_c, 0, 79, 74
1, 399530, Note_on_c, 0, 73, 108
1, 399551, Note_off_c, 0, 73, 71
1, 399583, Control_c, 0, 64, 34
1, 399614, Note_on_c, 0, 83, 73
1, 399628, Control_c, 0, 64, 34
1, 399657, Control_c, 0, 64, 35
1, 399676, Note_off_c, 0, 83, 60
1, 399697, Note_on_c, 0, 74, 70
1, 399733, Control_c, 0, 64, 35
1, 399734, Note_off_c, 0, 74, 64
1, 399775, Note_on_c, 0, 67, 80
1, 399806, Note_off_c, 0, 67, 62
1, 399843, Control_c, 0, 64, 36
1, 399849, Note_on_c, 0, 61, 106
1, 399858, Control_c, 0, 64, 39
1, 399873, Control_c, 0, 64, 46
1, 399879, Note_off_c, 0, 61, 71
1, 399888, Control_c, 0, 64, 54
1, 399903, Control_c, 0, 64, 58
1, 399918, Control_c, 0, 64, 60
1, 399932, Control_c, 0, 64, 60
1, 399947, Note_on_c, 0, 71, 64
1, 399951, Note_on_c, 0, 72, 61
1, 399983, Note_off_c, 0, 72, 59
1, 400006, Control_c, 0, 64, 61
1, 400011, Note_off_c, 0, 71, 63
1, 400023, Note_on_c, 0, 62, 65
1, 400036, Control_c, 0, 64, 62
1, 400080, Control_c, 0, 64, 57
1, 400081, Note_off_c, 0, 62, 61
1, 400095, Control_c, 0, 64, 46
1, 400108, Note_on_c, 0, 55, 106
1, 400110, Control_c, 0, 64, 0
1, 400151, Note_off_c, 0, 55, 68
1, 400184, Control_c, 0, 64, 33
1, 400198, Control_c, 0, 64, 43
1, 400213, Control_c, 0, 64, 52
1, 400228, Control_c, 0, 64, 55
1, 400243, Control_c, 0, 64, 54
1, 400258, Control_c, 0, 64, 48
1, 400272, Control_c, 0, 64, 30
1, 400287, Note_on_c, 0, 52, 100
1, 400287, Control_c, 0, 64, 0
1, 400331, Note_off_c, 0, 52, 66
1, 400389, Note_on_c, 0, 50, 100
1, 400444, Note_off_c, 0, 50, 65
1, 400529, Note_on_c, 0, 49, 100
1, 400577, Control_c, 0, 64, 56
1, 400592, Control_c, 0, 64, 67
1, 400607, Control_c, 0, 64, 73
1, 400621, Control_c, 0, 64, 77
1, 400636, Note_off_c, 0, 49, 66
1, 400636, Control_c, 0, 64, 79
1, 400649, Poly_aftertouch_c, 0, 46, 0
1, 400651, Control_c, 0, 64, 80
1, 400652, Note_on_c, 0, 62, 89
1, 400666, Control_c, 0, 64, 81
1, 400681, Control_c, 0, 64, 81
1, 400696, Control_c, 0, 64, 82
1, 400711, Control_c, 0, 64, 82
1, 400726, Control_c, 0, 64, 84
1, 400730, Note_off_c, 0, 62, 61
1, 400739, Note_on_c, 0, 63, 79
1, 400740, Control_c, 0, 64, 85
1, 400746, Note_on_c, 0, 65, 82
1, 400755, Control_c, 0, 64, 85
1, 400768, Note_off_c, 0, 63, 62
1, 400770, Control_c, 0, 64, 85
1, 400785, Control_c, 0, 64, 78
1, 400800, Control_c, 0, 64, 62
1, 400803, Note_on_c, 0, 36, 89
1, 400806, Note_off_c, 0, 65, 61
1, 400815, Control_c, 0, 64, 0
1, 400816, Note_on_c, 0, 64, 90
1, 400863, Note_off_c, 0, 36, 63
1, 400881, Note_off_c, 0, 64, 63
1, 400899, Note_on_c, 0, 40, 87
1, 400901, Note_on_c, 0, 68, 75
1, 400902, Note_on_c, 0, 66, 75
1, 400927, Note_off_c, 0, 66, 67
1, 400930, Note_off_c, 0, 68, 62
1, 400949, Note_off_c, 0, 40, 63
1, 400986, Note_on_c, 0, 38, 94
1, 401026, Note_off_c, 0, 38, 62
1, 401077, Note_on_c, 0, 37, 101
1, 401086, Note_on_c, 0, 39, 84
1, 401114, Note_off_c, 0, 39, 66
1, 401152, Note_on_c, 0, 38, 78
1, 401155, Control_c, 0, 64, 45
1, 401170, Control_c, 0, 64, 64
1, 401182, Note_on_c, 0, 62, 79
1, 401185, Control_c, 0, 64, 66
1, 401188, Note_off_c, 0, 38, 67
1, 401193, Note_off_c, 0, 37, 64
1, 401200, Control_c, 0, 64, 68
1, 401214, Control_c, 0, 64, 71
1, 401229, Control_c, 0, 64, 76
1, 401251, Control_c, 0, 64, 79
1, 401267, Control_c, 0, 64, 81
1, 401271, Note_off_c, 0, 62, 59
1, 401282, Control_c, 0, 64, 80
1, 401283, Note_on_c, 0, 63, 77
1, 401286, Note_on_c, 0, 65, 83
1, 401297, Control_c, 0, 64, 77
1, 401307, Note_off_c, 0, 63, 69
1, 401312, Control_c, 0, 64, 64
1, 401326, Control_c, 0, 64, 0
1, 401344, Note_off_c, 0, 65, 62
1, 401364, Note_on_c, 0, 64, 87
1, 401366, Note_on_c, 0, 48, 87
1, 401421, Note_off_c, 0, 48, 65
1, 401432, Note_on_c, 0, 52, 78
1, 401441, Note_off_c, 0, 64, 61
1, 401442, Note_on_c, 0, 66, 78
1, 401444, Note_on_c, 0, 68, 72
1, 401480, Note_off_c, 0, 66, 60
1, 401480, Note_off_c, 0, 68, 61
1, 401489, Note_off_c, 0, 52, 62
1, 401511, Note_on_c, 0, 50, 86
1, 401544, Note_off_c, 0, 50, 67
1, 401602, Note_on_c, 0, 49, 92
1, 401639, Note_off_c, 0, 49, 64
1, 401685, Note_on_c, 0, 62, 74
1, 401745, Note_off_c, 0, 62, 59
1, 401767, Note_on_c, 0, 35, 85
1, 401770, Note_on_c, 0, 65, 71
1, 401799, Note_off_c, 0, 35, 67
1, 401807, Note_on_c, 0, 67, 29
1, 401820, Note_off_c, 0, 65, 58
1, 401843, Note_off_c, 0, 67, 48
1, 401854, Note_on_c, 0, 64, 73
1, 401907, Note_off_c, 0, 64, 58
1, 401925, Note_on_c, 0, 47, 78
1, 401940, Note_on_c, 0, 66, 67
1, 401942, Note_on_c, 0, 68, 60
1, 401963, Note_off_c, 0, 47, 65
1, 401981, Note_off_c, 0, 68, 59
1, 401995, Note_off_c, 0, 66, 56
1, 402001, Control_c, 0, 67, 45
1, 402016, Control_c, 0, 67, 54
1, 402031, Note_on_c, 0, 64, 58
1, 402031, Control_c, 0, 67, 63
1, 402045, Control_c, 0, 67, 73
1, 402060, Control_c, 0, 67, 83
1, 402076, Control_c, 0, 67, 88
1, 402085, Note_off_c, 0, 64, 55
1, 402091, Control_c, 0, 67, 90
1, 402103, Note_on_c, 0, 34, 67
1, 402106, Control_c, 0, 67, 91
1, 402110, Note_on_c, 0, 68, 57
1, 402115, Note_on_c, 0, 66, 55
1, 402120, Control_c, 0, 67, 92
1, 402138, Note_off_c, 0, 34, 62
1, 402150, Control_c, 0, 67, 92
1, 402165, Note_off_c, 0, 66, 55
1, 402165, Control_c, 0, 67, 93
1, 402167, Note_off_c, 0, 68, 55
1, 402179, Control_c, 0, 67, 94
1, 402207, Note_on_c, 0, 64, 50
1, 402208, Control_c, 0, 67, 94
1, 402223, Control_c, 0, 67, 95
1, 402238, Control_c, 0, 67, 96
1, 402276, Note_off_c, 0, 64, 55
1, 402282, Control_c, 0, 67, 98
1, 402292, Note_on_c, 0, 45, 50
1, 402297, Control_c, 0, 67, 105
1, 402299, Note_on_c, 0, 68, 51
1, 402308, Note_on_c, 0, 66, 47
1, 402311, Control_c, 0, 67, 126
1, 402325, Note_off_c, 0, 45, 63
1, 402351, Note_off_c, 0, 68, 55
1, 402368, Note_off_c, 0, 66, 55
1, 402403, Note_on_c, 0, 64, 47
1, 402499, Note_off_c, 0, 64, 59
1, 402514, Note_on_c, 0, 68, 32
1, 402516, Note_on_c, 0, 32, 59
1, 402523, Note_on_c, 0, 66, 41
1, 402561, Note_off_c, 0, 32, 59
1, 402562, Note_off_c, 0, 68, 45
1, 402622, Note_off_c, 0, 66, 56
1, 402650, Note_on_c, 0, 65, 37
1, 402808, Note_off_c, 0, 65, 62
1, 402869, Note_on_c, 0, 31, 46
1, 402942, Control_c, 0, 64, 45
1, 402957, Control_c, 0, 64, 58
1, 402972, Control_c, 0, 64, 62
1, 402987, Control_c, 0, 64, 65
1, 403002, Control_c, 0, 64, 67
1, 403013, Note_off_c, 0, 31, 63
1, 403016, Control_c, 0, 64, 70
1, 403031, Control_c, 0, 64, 73
1, 403046, Control_c, 0, 64, 76
1, 403061, Control_c, 0, 64, 78
1, 403076, Control_c, 0, 64, 81
1, 403090, Control_c, 0, 64, 84
1, 403096, Note_on_c, 0, 90, 41
1, 403105, Control_c, 0, 64, 86
1, 403120, Control_c, 0, 64, 88
1, 403134, Control_c, 0, 64, 91
1, 403149, Control_c, 0, 64, 93
1, 403164, Control_c, 0, 64, 94
1, 403179, Control_c, 0, 64, 96
1, 403195, Note_off_c, 0, 90, 37
1, 403209, Control_c, 0, 64, 98
1, 403212, Note_on_c, 0, 93, 52
1, 403299, Note_off_c, 0, 93, 55
1, 403310, Note_on_c, 0, 90, 55
1, 403355, Note_off_c, 0, 90, 55
1, 403397, Note_on_c, 0, 79, 53
1, 403432, Note_on_c, 0, 71, 44
1, 403469, Note_off_c, 0, 71, 57
1, 403471, Note_off_c, 0, 79, 53
1, 403498, Control_c, 0, 64, 100
1, 403499, Note_on_c, 0, 83, 54
1, 403509, Note_on_c, 0, 75, 55
1, 403537, Note_off_c, 0, 75, 61
1, 403562, Note_off_c, 0, 83, 58
1, 403581, Note_on_c, 0, 71, 56
1, 403631, Note_off_c, 0, 71, 45
1, 403678, Note_on_c, 0, 61, 51
1, 403697, Note_on_c, 0, 90, 52
1, 403724, Note_off_c, 0, 61, 60
1, 403749, Note_off_c, 0, 90, 60
1, 403777, Note_on_c, 0, 93, 67
1, 403785, Note_on_c, 0, 64, 43
1, 403859, Note_off_c, 0, 64, 57
1, 403867, Note_on_c, 0, 90, 71
1, 403875, Note_off_c, 0, 93, 58
1, 403936, Note_off_c, 0, 90, 55
1, 403943, Note_on_c, 0, 79, 69
1, 403986, Note_on_c, 0, 71, 42
1, 404026, Note_off_c, 0, 71, 52
1, 404036, Note_on_c, 0, 83, 75
1, 404041, Note_off_c, 0, 79, 57
1, 404055, Note_on_c, 0, 75, 57
1, 404103, Note_off_c, 0, 75, 56
1, 404129, Note_off_c, 0, 83, 60
1, 404130, Note_on_c, 0, 71, 61
1, 404250, Note_on_c, 0, 61, 60
1, 404253, Note_on_c, 0, 83, 75
1, 404288, Note_off_c, 0, 71, 33
1, 404327, Note_off_c, 0, 61, 58
1, 404362, Note_on_c, 0, 64, 47
1, 404363, Note_on_c, 0, 90, 86
1, 404377, Note_off_c, 0, 83, 60
1, 404443, Note_off_c, 0, 64, 56
1, 404481, Note_off_c, 0, 90, 64
1, 404487, Note_on_c, 0, 93, 83
1, 404577, Note_on_c, 0, 64, 55
1, 404600, Note_on_c, 0, 90, 75
1, 404619, Note_off_c, 0, 93, 57
1, 404655, Note_off_c, 0, 64, 58
1, 404689, Note_on_c, 0, 71, 39
1, 404702, Note_off_c, 0, 90, 63
1, 404713, Note_on_c, 0, 83, 65
1, 404789, Note_off_c, 0, 83, 62
1, 404806, Note_off_c, 0, 71, 40
1, 404809, Note_on_c, 0, 75, 37
1, 404816, Note_on_c, 0, 79, 56
1, 404841, Note_off_c, 0, 75, 53
1, 404884, Note_on_c, 0, 71, 45
1, 404887, Note_off_c, 0, 79, 55
1, 404908, Note_on_c, 0, 83, 67
1, 404961, Note_off_c, 0, 71, 37
1, 404969, Note_off_c, 0, 83, 61
1, 405000, Note_on_c, 0, 64, 48
1, 405012, Note_on_c, 0, 90, 54
1, 405063, Note_off_c, 0, 90, 60
1, 405064, Note_off_c, 0, 64, 57
1, 405093, Note_on_c, 0, 61, 55
1, 405101, Note_on_c, 0, 93, 63
1, 405133, Note_off_c, 0, 61, 62
1, 405165, Note_off_c, 0, 93, 59
1, 405170, Note_on_c, 0, 64, 30
1, 405182, Note_on_c, 0, 90, 59
1, 405219, Note_off_c, 0, 64, 48
1, 405245, Note_off_c, 0, 90, 61
1, 405247, Note_on_c, 0, 71, 44
1, 405259, Note_on_c, 0, 83, 65
1, 405313, Note_off_c, 0, 71, 40
1, 405328, Note_off_c, 0, 83, 62
1, 405347, Note_on_c, 0, 79, 53
1, 405354, Note_on_c, 0, 75, 35
1, 405383, Note_off_c, 0, 75, 46
1, 405396, Note_off_c, 0, 79, 56
1, 405406, Note_on_c, 0, 71, 54
1, 405426, Note_on_c, 0, 83, 61
1, 405450, Note_off_c, 0, 71, 43
1, 405468, Note_off_c, 0, 83, 59
1, 405480, Note_on_c, 0, 90, 58
1, 405498, Note_on_c, 0, 64, 48
1, 405522, Note_off_c, 0, 90, 61
1, 405545, Note_off_c, 0, 64, 63
1, 405548, Note_on_c, 0, 93, 70
1, 405563, Note_on_c, 0, 61, 58
1, 405601, Note_off_c, 0, 61, 64
1, 405607, Note_off_c, 0, 93, 61
1, 405618, Note_on_c, 0, 90, 59
1, 405635, Note_on_c, 0, 64, 13
1, 405674, Note_off_c, 0, 90, 59
1, 405683, Note_off_c, 0, 64, 49
1, 405690, Note_on_c, 0, 71, 36
1, 405692, Note_on_c, 0, 83, 66
1, 405747, Note_off_c, 0, 83, 61
1, 405754, Note_off_c, 0, 71, 42
1, 405772, Note_on_c, 0, 79, 49
1, 405816, Note_off_c, 0, 79, 60
1, 405833, Note_on_c, 0, 83, 65
1, 405847, Poly_aftertouch_c, 0, 75, 0
1, 405861, Poly_aftertouch_c, 0, 71, 127
1, 405877, Note_off_c, 0, 83, 58
1, 405885, Note_on_c, 0, 90, 59
1, 405893, Note_on_c, 0, 64, 48
1, 405901, Poly_aftertouch_c, 0, 71, 0
1, 405926, Note_off_c, 0, 90, 62
1, 405942, Note_off_c, 0, 64, 61
1, 405943, Note_on_c, 0, 93, 73
1, 405975, Note_on_c, 0, 61, 50
1, 405996, Control_c, 0, 64, 102
1, 405999, Note_off_c, 0, 61, 58
1, 406001, Note_on_c, 0, 90, 67
1, 406011, Note_off_c, 0, 93, 58
1, 406021, Note_on_c, 0, 64, 44
1, 406026, Control_c, 0, 64, 105
1, 406041, Control_c, 0, 64, 107
1, 406051, Note_off_c, 0, 64, 52
1, 406062, Note_on_c, 0, 83, 65
1, 406065, Note_off_c, 0, 90, 65
1, 406071, Control_c, 0, 64, 110
1, 406084, Note_on_c, 0, 71, 43
1, 406101, Control_c, 0, 64, 112
1, 406112, Note_off_c, 0, 83, 63
1, 406120, Note_off_c, 0, 71, 50
1, 406126, Note_on_c, 0, 75, 48
1, 406126, Note_on_c, 0, 79, 64
1, 406145, Control_c, 0, 64, 114
1, 406150, Note_off_c, 0, 75, 58
1, 406178, Note_off_c, 0, 79, 62
1, 406180, Note_on_c, 0, 83, 71
1, 406189, Note_on_c, 0, 71, 41
1, 406222, Note_off_c, 0, 71, 50
1, 406228, Note_off_c, 0, 83, 62
1, 406239, Note_on_c, 0, 90, 54
1, 406246, Note_on_c, 0, 64, 46
1, 406261, Note_off_c, 0, 90, 64
1, 406285, Note_off_c, 0, 64, 55
1, 406291, Note_on_c, 0, 93, 61
1, 406293, Control_c, 0, 64, 118
1, 406308, Control_c, 0, 64, 120
1, 406312, Note_on_c, 0, 61, 61
1, 406323, Control_c, 0, 64, 127
1, 406342, Note_off_c, 0, 93, 0
1, 406342, Note_on_c, 0, 93, 15
1, 406343, Note_on_c, 0, 90, 70
1, 406344, Note_off_c, 0, 61, 65
1, 406372, Note_off_c, 0, 90, 65
1, 406377, Note_on_c, 0, 64, 46
1, 406389, Note_off_c, 0, 93, 49
1, 406395, Note_on_c, 0, 83, 73
1, 406401, Note_off_c, 0, 64, 60
1, 406401, Note_on_c, 0, 71, 48
1, 406435, Note_off_c, 0, 83, 60
1, 406437, Note_off_c, 0, 71, 57
1, 406450, Note_on_c, 0, 75, 59
1, 406452, Note_on_c, 0, 79, 68
1, 406490, Note_off_c, 0, 75, 65
1, 406506, Note_off_c, 0, 79, 64
1, 406517, Note_on_c, 0, 83, 68
1, 406519, Note_on_c, 0, 71, 44
1, 406549, Note_on_c, 0, 64, 47
1, 406554, Note_off_c, 0, 71, 49
1, 406554, Note_off_c, 0, 83, 56
1, 406564, Note_on_c, 0, 90, 70
1, 406600, Note_off_c, 0, 90, 57
1, 406623, Note_on_c, 0, 93, 76
1, 406631, Note_off_c, 0, 64, 60
1, 406640, Note_on_c, 0, 61, 68
1, 406674, Note_on_c, 0, 90, 74
1, 406690, Note_on_c, 0, 64, 52
1, 406693, Note_off_c, 0, 61, 62
1, 406696, Note_off_c, 0, 93, 62
1, 406714, Note_on_c, 0, 83, 74
1, 406736, Note_on_c, 0, 71, 42
1, 406741, Note_off_c, 0, 90, 64
1, 406751, Note_off_c, 0, 64, 51
1, 406753, Note_on_c, 0, 75, 70
1, 406768, Note_off_c, 0, 83, 65
1, 406777, Note_on_c, 0, 79, 67
1, 406791, Note_off_c, 0, 75, 58
1, 406824, Note_off_c, 0, 79, 65
1, 406833, Note_on_c, 0, 83, 69
1, 406868, Note_on_c, 0, 64, 59
1, 406875, Note_on_c, 0, 90, 82
1, 406887, Note_off_c, 0, 83, 62
1, 406887, Note_off_c, 0, 71, 33
1, 406894, Control_c, 0, 67, 122
1, 406908, Control_c, 0, 67, 98
1, 406923, Control_c, 0, 67, 78
1, 406938, Control_c, 0, 67, 65
1, 406947, Note_on_c, 0, 93, 90
1, 406953, Note_on_c, 0, 61, 71
1, 406953, Control_c, 0, 67, 60
1, 406963, Note_off_c, 0, 90, 64
1, 406968, Control_c, 0, 64, 82
1, 406968, Control_c, 0, 67, 59
1, 406982, Control_c, 0, 64, 64
1, 406997, Control_c, 0, 64, 57
1, 407012, Control_c, 0, 64, 59
1, 407020, Note_off_c, 0, 61, 62
1, 407027, Control_c, 0, 64, 62
1, 407041, Note_on_c, 0, 67, 49
1, 407042, Control_c, 0, 64, 70
1, 407057, Control_c, 0, 64, 83
1, 407063, Note_off_c, 0, 64, 39
1, 407072, Control_c, 0, 64, 99
1, 407087, Control_c, 0, 64, 109
1, 407087, Control_c, 0, 67, 58
1, 407101, Control_c, 0, 64, 124
1, 407101, Control_c, 0, 67, 58
1, 407105, Note_off_c, 0, 67, 59
1, 407108, Note_on_c, 0, 71, 69
1, 407116, Control_c, 0, 64, 127
1, 407116, Control_c, 0, 67, 57
1, 407131, Control_c, 0, 67, 56
1, 407146, Control_c, 0, 67, 55
1, 407161, Control_c, 0, 67, 54
1, 407175, Note_off_c, 0, 71, 61
1, 407175, Note_off_c, 0, 93, 58
1, 407176, Control_c, 0, 67, 54
1, 407185, Note_on_c, 0, 75, 66
1, 407214, Note_off_c, 0, 75, 67
1, 407220, Control_c, 0, 67, 53
1, 407251, Note_on_c, 0, 79, 62
1, 407272, Control_c, 0, 67, 54
1, 407275, Note_off_c, 0, 79, 69
1, 407287, Control_c, 0, 67, 56
1, 407295, Note_on_c, 0, 83, 65
1, 407301, Control_c, 0, 67, 60
1, 407316, Control_c, 0, 67, 62
1, 407331, Control_c, 0, 67, 63
1, 407332, Note_off_c, 0, 83, 54
1, 407341, Note_on_c, 0, 87, 70
1, 407393, Note_off_c, 0, 87, 65
1, 407418, Note_on_c, 0, 90, 42
1, 407421, Note_on_c, 0, 93, 74
1, 407435, Control_c, 0, 67, 62
1, 407445, Note_off_c, 0, 90, 47
1, 407450, Control_c, 0, 67, 62
1, 407457, Note_on_c, 0, 79, 57
1, 407465, Control_c, 0, 67, 60
1, 407468, Note_off_c, 0, 93, 63
1, 407480, Control_c, 0, 67, 58
1, 407495, Control_c, 0, 67, 56
1, 407506, Note_on_c, 0, 83, 52
1, 407508, Note_on_c, 0, 87, 66
1, 407509, Control_c, 0, 67, 55
1, 407515, Note_off_c, 0, 79, 64
1, 407530, Note_off_c, 0, 83, 58
1, 407541, Note_on_c, 0, 90, 59
1, 407560, Note_off_c, 0, 90, 62
1, 407564, Note_off_c, 0, 87, 63
1, 407588, Note_on_c, 0, 91, 66
1, 407627, Note_off_c, 0, 91, 59
1, 407632, Note_on_c, 0, 95, 47
1, 407657, Note_off_c, 0, 95, 56
1, 407674, Control_c, 0, 67, 56
1, 407677, Note_on_c, 0, 99, 65
1, 407703, Control_c, 0, 67, 56
1, 407709, Note_on_c, 0, 103, 71
1, 407732, Control_c, 0, 67, 57
1, 407747, Control_c, 0, 67, 58
1, 407759, Note_off_c, 0, 103, 62
1, 407766, Note_on_c, 0, 98, 73
1, 407772, Note_off_c, 0, 99, 39
1, 407777, Control_c, 0, 64, 95
1, 407781, Note_on_c, 0, 91, 67
1, 407784, Note_on_c, 0, 107, 83
1, 407792, Control_c, 0, 64, 60
1, 407793, Note_off_c, 0, 98, 69
1, 407799, Note_off_c, 0, 91, 67
1, 407805, Note_off_c, 0, 107, 70
1, 407806, Control_c, 0, 64, 0
1, 407880, Control_c, 0, 67, 57
1, 407895, Control_c, 0, 67, 56
1, 407954, Control_c, 0, 67, 56
1, 407969, Control_c, 0, 67, 54
1, 407992, Control_c, 0, 67, 53
1, 408006, Control_c, 0, 67, 52
1, 408184, Control_c, 0, 67, 51
1, 408199, Control_c, 0, 67, 50
1, 408214, Control_c, 0, 67, 49
1, 408273, Control_c, 0, 67, 49
1, 408303, Control_c, 0, 67, 48
1, 408436, Control_c, 0, 67, 49
1, 408481, Control_c, 0, 67, 49
1, 408526, Control_c, 0, 67, 50
1, 408541, Control_c, 0, 67, 51
1, 408555, Control_c, 0, 67, 51
1, 408600, Control_c, 0, 67, 52
1, 408703, Control_c, 0, 67, 53
1, 408718, Control_c, 0, 67, 53
1, 408785, Control_c, 0, 67, 54
1, 408800, Control_c, 0, 67, 55
1, 408815, Control_c, 0, 67, 56
1, 408829, Control_c, 0, 67, 57
1, 408859, Control_c, 0, 67, 58
1, 408874, Control_c, 0, 67, 58
1, 408888, Control_c, 0, 67, 60
1, 408903, Control_c, 0, 67, 61
1, 408918, Control_c, 0, 67, 62
1, 408962, Control_c, 0, 67, 62
1, 409096, Control_c, 0, 67, 63
1, 409290, Control_c, 0, 67, 64
1, 409319, Control_c, 0, 67, 64
1, 409334, Control_c, 0, 67, 65
1, 409393, Control_c, 0, 67, 66
1, 409408, Control_c, 0, 67, 66
1, 409423, Control_c, 0, 67, 67
1, 409438, Control_c, 0, 67, 68
1, 409489, Control_c, 0, 67, 68
1, 409519, Control_c, 0, 67, 69
1, 409814, Control_c, 0, 67, 70
1, 410035, Control_c, 0, 67, 69
1, 410155, Control_c, 0, 67, 70
1, 410214, Control_c, 0, 67, 70
1, 410237, Control_c, 0, 67, 71
1, 410281, Control_c, 0, 67, 71
1, 410355, Control_c, 0, 67, 72
1, 410414, Control_c, 0, 67, 73
1, 410429, Control_c, 0, 67, 74
1, 410444, Control_c, 0, 67, 75
1, 410458, Control_c, 0, 67, 75
1, 410592, Control_c, 0, 67, 76
1, 410607, Control_c, 0, 67, 77
1, 410637, Control_c, 0, 67, 76
1, 410740, Control_c, 0, 67, 77
1, 410770, Control_c, 0, 67, 77
1, 410829, Control_c, 0, 67, 78
1, 410844, Control_c, 0, 67, 79
1, 410904, Control_c, 0, 67, 79
1, 411016, Control_c, 0, 67, 78
1, 411030, Control_c, 0, 67, 77
1, 411060, Control_c, 0, 67, 77
1, 411134, Control_c, 0, 67, 77
1, 411179, Control_c, 0, 67, 78
1, 411327, Control_c, 0, 67, 77
1, 411342, Control_c, 0, 67, 77
1, 411371, Control_c, 0, 67, 76
1, 411386, Control_c, 0, 67, 75
1, 411401, Control_c, 0, 67, 75
1, 411416, Control_c, 0, 67, 73
1, 411430, Control_c, 0, 67, 71
1, 411445, Control_c, 0, 67, 70
1, 411460, Control_c, 0, 67, 67
1, 411475, Control_c, 0, 67, 64
1, 411490, Control_c, 0, 67, 62
1, 411505, Control_c, 0, 67, 61
1, 411519, Control_c, 0, 67, 59
1, 411534, Control_c, 0, 67, 58
1, 411549, Control_c, 0, 67, 58
1, 411623, Control_c, 0, 67, 58
1, 411638, Control_c, 0, 67, 59
1, 411654, Control_c, 0, 67, 60
1, 411668, Control_c, 0, 67, 60
1, 411683, Control_c, 0, 67, 62
1, 411698, Control_c, 0, 67, 62
1, 411713, Control_c, 0, 67, 64
1, 411735, Control_c, 0, 64, 33
1, 411750, Control_c, 0, 64, 41
1, 411750, Control_c, 0, 67, 64
1, 411765, Control_c, 0, 64, 47
1, 411765, Control_c, 0, 67, 65
1, 411779, Control_c, 0, 64, 52
1, 411794, Control_c, 0, 64, 55
1, 411794, Control_c, 0, 67, 66
1, 411809, Control_c, 0, 64, 57
1, 411824, Control_c, 0, 64, 58
1, 411824, Control_c, 0, 67, 66
1, 411839, Control_c, 0, 64, 59
1, 411839, Control_c, 0, 67, 67
1, 411853, Control_c, 0, 64, 60
1, 411868, Control_c, 0, 64, 61
1, 411868, Control_c, 0, 67, 68
1, 411883, Control_c, 0, 64, 62
1, 411883, Control_c, 0, 67, 68
1, 411898, Control_c, 0, 64, 63
1, 411913, Control_c, 0, 64, 64
1, 411913, Control_c, 0, 67, 69
1, 411928, Control_c, 0, 64, 65
1, 411928, Control_c, 0, 67, 70
1, 411943, Control_c, 0, 64, 66
1, 411943, Control_c, 0, 67, 70
1, 411958, Control_c, 0, 64, 68
1, 411958, Control_c, 0, 67, 71
1, 411973, Control_c, 0, 64, 69
1, 411987, Control_c, 0, 64, 70
1, 411987, Control_c, 0, 67, 71
1, 412002, Control_c, 0, 64, 71
1, 412017, Control_c, 0, 64, 73
1, 412031, Control_c, 0, 64, 74
1, 412031, Control_c, 0, 67, 72
1, 412046, Control_c, 0, 64, 75
1, 412061, Control_c, 0, 64, 77
1, 412061, Control_c, 0, 67, 73
1, 412076, Control_c, 0, 64, 78
1, 412091, Control_c, 0, 64, 79
1, 412105, Control_c, 0, 64, 81
1, 412105, Control_c, 0, 67, 73
1, 412120, Control_c, 0, 64, 82
1, 412120, Control_c, 0, 67, 74
1, 412135, Control_c, 0, 64, 84
1, 412150, Control_c, 0, 64, 85
1, 412150, Control_c, 0, 67, 75
1, 412165, Control_c, 0, 64, 87
1, 412165, Control_c, 0, 67, 75
1, 412179, Control_c, 0, 64, 88
1, 412194, Control_c, 0, 64, 90
1, 412194, Control_c, 0, 67, 76
1, 412209, Control_c, 0, 64, 92
1, 412209, Control_c, 0, 67, 77
1, 412223, Control_c, 0, 64, 93
1, 412238, Control_c, 0, 64, 95
1, 412238, Control_c, 0, 67, 78
1, 412253, Control_c, 0, 64, 97
1, 412253, Control_c, 0, 67, 79
1, 412268, Control_c, 0, 64, 99
1, 412283, Control_c, 0, 67, 79
1, 412297, Control_c, 0, 64, 103
1, 412312, Control_c, 0, 64, 105
1, 412327, Control_c, 0, 64, 108
1, 412327, Control_c, 0, 67, 80
1, 412342, Control_c, 0, 64, 111
1, 412357, Control_c, 0, 64, 116
1, 412357, Control_c, 0, 67, 81
1, 412372, Control_c, 0, 64, 122
1, 412372, Control_c, 0, 67, 81
1, 412387, Control_c, 0, 64, 127
1, 412387, Control_c, 0, 67, 82
1, 412402, Control_c, 0, 67, 83
1, 412416, Control_c, 0, 67, 84
1, 412431, Control_c, 0, 67, 85
1, 412447, Control_c, 0, 67, 86
1, 412462, Control_c, 0, 67, 87
1, 412484, Control_c, 0, 67, 88
1, 412499, Control_c, 0, 67, 88
1, 412514, Control_c, 0, 67, 90
1, 412528, Control_c, 0, 67, 92
1, 412543, Control_c, 0, 67, 98
1, 412558, Control_c, 0, 67, 111
1, 412573, Control_c, 0, 67, 122
1, 412588, Control_c, 0, 67, 127
1, 413506, Note_on_c, 0, 55, 31
1, 413517, Note_on_c, 0, 47, 34
1, 413906, Note_off_c, 0, 47, 35
1, 414007, Note_off_c, 0, 55, 34
1, 414448, Note_on_c, 0, 63, 46
1, 414457, Note_on_c, 0, 70, 42
1, 414803, Note_off_c, 0, 63, 36
1, 415511, Note_on_c, 0, 54, 41
1, 415512, Note_on_c, 0, 62, 32
1, 415946, Note_off_c, 0, 62, 40
1, 416027, Note_off_c, 0, 70, 48
1, 416699, Note_on_c, 0, 48, 43
1, 416701, Note_on_c, 0, 56, 38
1, 416701, Control_c, 0, 64, 101
1, 416716, Control_c, 0, 64, 86
1, 416731, Control_c, 0, 64, 73
1, 416746, Control_c, 0, 64, 61
1, 416761, Control_c, 0, 64, 50
1, 416775, Control_c, 0, 64, 38
1, 416790, Control_c, 0, 64, 0
1, 416812, Note_off_c, 0, 54, 31
1, 416939, Control_c, 0, 64, 32
1, 416954, Control_c, 0, 64, 45
1, 416975, Control_c, 0, 64, 55
1, 416990, Control_c, 0, 64, 60
1, 417005, Control_c, 0, 64, 63
1, 417019, Control_c, 0, 64, 64
1, 417034, Control_c, 0, 64, 66
1, 417049, Control_c, 0, 64, 68
1, 417064, Control_c, 0, 64, 71
1, 417079, Control_c, 0, 64, 74
1, 417094, Control_c, 0, 64, 76
1, 417109, Control_c, 0, 64, 78
1, 417124, Control_c, 0, 64, 81
1, 417138, Control_c, 0, 64, 83
1, 417154, Control_c, 0, 64, 86
1, 417168, Control_c, 0, 64, 88
1, 417183, Control_c, 0, 64, 90
1, 417198, Control_c, 0, 64, 93
1, 417213, Control_c, 0, 64, 95
1, 417228, Control_c, 0, 64, 98
1, 417243, Control_c, 0, 64, 101
1, 417258, Control_c, 0, 64, 105
1, 417273, Control_c, 0, 64, 107
1, 417303, Control_c, 0, 64, 110
1, 417332, Control_c, 0, 64, 113
1, 417362, Control_c, 0, 64, 116
1, 417407, Control_c, 0, 64, 118
1, 417466, Control_c, 0, 64, 120
1, 417511, Note_off_c, 0, 48, 38
1, 417737, Note_on_c, 0, 69, 49
1, 417752, Note_on_c, 0, 64, 35
1, 417858, Control_c, 0, 64, 124
1, 417903, Control_c, 0, 64, 127
1, 418200, Control_c, 0, 67, 124
1, 418215, Control_c, 0, 67, 115
1, 418229, Control_c, 0, 67, 104
1, 418244, Control_c, 0, 67, 92
1, 418253, Note_off_c, 0, 56, 38
1, 418259, Control_c, 0, 67, 80
1, 418274, Control_c, 0, 67, 68
1, 418289, Control_c, 0, 67, 55
1, 418304, Control_c, 0, 67, 45
1, 418319, Control_c, 0, 67, 0
1, 418769, Note_on_c, 0, 61, 35
1, 418774, Note_on_c, 0, 53, 29
1, 419153, Note_off_c, 0, 61, 39
1, 419537, Note_off_c, 0, 53, 39
1, 419984, Note_on_c, 0, 55, 40
1, 419995, Note_on_c, 0, 47, 40
1, 420016, Control_c, 0, 64, 122
1, 420031, Control_c, 0, 64, 99
1, 420045, Control_c, 0, 64, 86
1, 420060, Control_c, 0, 64, 76
1, 420075, Control_c, 0, 64, 67
1, 420087, Note_off_c, 0, 64, 37
1, 420090, Control_c, 0, 64, 60
1, 420105, Control_c, 0, 64, 53
1, 420119, Control_c, 0, 64, 47
1, 420128, Note_off_c, 0, 69, 32
1, 420134, Control_c, 0, 64, 43
1, 420149, Control_c, 0, 64, 38
1, 420164, Control_c, 0, 64, 34
1, 420179, Control_c, 0, 64, 29
1, 420194, Control_c, 0, 64, 0
1, 420253, Control_c, 0, 64, 29
1, 420268, Control_c, 0, 64, 34
1, 420283, Control_c, 0, 64, 40
1, 420298, Control_c, 0, 64, 47
1, 420312, Control_c, 0, 64, 55
1, 420327, Control_c, 0, 64, 60
1, 420342, Control_c, 0, 64, 62
1, 420357, Control_c, 0, 64, 63
1, 420371, Control_c, 0, 64, 64
1, 420386, Control_c, 0, 64, 66
1, 420401, Control_c, 0, 64, 68
1, 420416, Control_c, 0, 64, 71
1, 420431, Control_c, 0, 64, 73
1, 420447, Control_c, 0, 64, 75
1, 420461, Control_c, 0, 64, 78
1, 420476, Control_c, 0, 64, 80
1, 420491, Control_c, 0, 64, 83
1, 420506, Control_c, 0, 64, 85
1, 420521, Control_c, 0, 64, 89
1, 420535, Control_c, 0, 64, 92
1, 420550, Control_c, 0, 64, 96
1, 420565, Control_c, 0, 64, 99
1, 420580, Control_c, 0, 64, 104
1, 420595, Control_c, 0, 64, 109
1, 420609, Control_c, 0, 64, 115
1, 420624, Control_c, 0, 64, 127
1, 420891, Note_off_c, 0, 55, 34
1, 420919, Note_off_c, 0, 47, 32
1, 421017, Control_c, 0, 67, 38
1, 421031, Control_c, 0, 67, 39
1, 421046, Control_c, 0, 67, 39
1, 421078, Note_on_c, 0, 70, 41
1, 421083, Note_on_c, 0, 63, 32
1, 421106, Control_c, 0, 67, 40
1, 421150, Control_c, 0, 67, 41
1, 421165, Control_c, 0, 67, 41
1, 421194, Control_c, 0, 67, 42
1, 421314, Control_c, 0, 67, 43
1, 421373, Control_c, 0, 67, 43
1, 421514, Control_c, 0, 67, 44
1, 421573, Control_c, 0, 67, 45
1, 421647, Control_c, 0, 67, 45
1, 421677, Control_c, 0, 67, 46
1, 421706, Control_c, 0, 67, 47
1, 421721, Control_c, 0, 67, 47
1, 421736, Control_c, 0, 67, 48
1, 421751, Control_c, 0, 67, 56
1, 421765, Control_c, 0, 67, 85
1, 421780, Control_c, 0, 67, 100
1, 421795, Control_c, 0, 67, 104
1, 421824, Control_c, 0, 67, 107
1, 422033, Control_c, 0, 67, 105
1, 422172, Note_on_c, 0, 62, 36
1, 422182, Note_on_c, 0, 54, 23
1, 422218, Control_c, 0, 64, 103
1, 422233, Control_c, 0, 64, 91
1, 422248, Control_c, 0, 64, 82
1, 422263, Control_c, 0, 64, 74
1, 422277, Control_c, 0, 64, 69
1, 422292, Control_c, 0, 64, 66
1, 422307, Control_c, 0, 64, 65
1, 422366, Control_c, 0, 64, 66
1, 422381, Control_c, 0, 64, 67
1, 422395, Control_c, 0, 64, 70
1, 422410, Control_c, 0, 64, 74
1, 422425, Control_c, 0, 64, 76
1, 422439, Control_c, 0, 64, 79
1, 422454, Control_c, 0, 64, 82
1, 422469, Control_c, 0, 64, 84
1, 422484, Control_c, 0, 64, 87
1, 422499, Control_c, 0, 64, 90
1, 422513, Control_c, 0, 64, 92
1, 422528, Control_c, 0, 64, 95
1, 422543, Control_c, 0, 64, 98
1, 422558, Control_c, 0, 64, 101
1, 422573, Control_c, 0, 64, 103
1, 422588, Control_c, 0, 64, 105
1, 422602, Control_c, 0, 64, 108
1, 422632, Control_c, 0, 64, 111
1, 422647, Note_off_c, 0, 62, 40
1, 422662, Control_c, 0, 64, 114
1, 422677, Control_c, 0, 67, 107
1, 422721, Control_c, 0, 67, 109
1, 422736, Control_c, 0, 64, 117
1, 422745, Note_off_c, 0, 63, 36
1, 422765, Control_c, 0, 67, 111
1, 422826, Control_c, 0, 67, 113
1, 422841, Control_c, 0, 67, 120
1, 422855, Control_c, 0, 67, 127
1, 422894, Note_off_c, 0, 70, 39
1, 423202, Control_c, 0, 64, 114
1, 423217, Control_c, 0, 64, 112
1, 423229, Note_on_c, 0, 56, 32
1, 423232, Note_on_c, 0, 48, 40
1, 423232, Control_c, 0, 64, 107
1, 423247, Control_c, 0, 64, 101
1, 423261, Control_c, 0, 64, 94
1, 423276, Control_c, 0, 64, 85
1, 423291, Control_c, 0, 64, 78
1, 423306, Control_c, 0, 64, 70
1, 423321, Control_c, 0, 64, 64
1, 423336, Control_c, 0, 64, 59
1, 423351, Control_c, 0, 64, 55
1, 423366, Control_c, 0, 64, 52
1, 423370, Note_off_c, 0, 54, 34
1, 423380, Control_c, 0, 64, 49
1, 423395, Control_c, 0, 64, 46
1, 423410, Control_c, 0, 64, 43
1, 423425, Control_c, 0, 64, 39
1, 423440, Control_c, 0, 64, 36
1, 423454, Control_c, 0, 64, 34
1, 423484, Control_c, 0, 64, 35
1, 423499, Control_c, 0, 64, 36
1, 423514, Control_c, 0, 64, 39
1, 423528, Control_c, 0, 64, 42
1, 423543, Control_c, 0, 64, 47
1, 423558, Control_c, 0, 64, 53
1, 423573, Control_c, 0, 64, 59
1, 423587, Control_c, 0, 64, 62
1, 423602, Control_c, 0, 64, 64
1, 423617, Control_c, 0, 64, 66
1, 423633, Control_c, 0, 64, 67
1, 423648, Control_c, 0, 64, 70
1, 423663, Control_c, 0, 64, 72
1, 423677, Control_c, 0, 64, 74
1, 423692, Control_c, 0, 64, 76
1, 423714, Control_c, 0, 64, 78
1, 423729, Control_c, 0, 64, 80
1, 423744, Control_c, 0, 64, 81
1, 423759, Control_c, 0, 64, 83
1, 423774, Control_c, 0, 64, 85
1, 423789, Control_c, 0, 64, 87
1, 423803, Control_c, 0, 64, 88
1, 423818, Control_c, 0, 64, 90
1, 423833, Control_c, 0, 64, 91
1, 423848, Control_c, 0, 64, 93
1, 423863, Control_c, 0, 64, 94
1, 423878, Control_c, 0, 64, 96
1, 423908, Control_c, 0, 64, 98
1, 423953, Control_c, 0, 64, 100
1, 423997, Control_c, 0, 64, 102
1, 424041, Control_c, 0, 64, 104
1, 424085, Control_c, 0, 64, 107
1, 424174, Control_c, 0, 64, 109
1, 424265, Note_on_c, 0, 64, 25
1, 424270, Note_on_c, 0, 69, 31
1, 424337, Control_c, 0, 64, 111
1, 424411, Control_c, 0, 64, 114
1, 424442, Control_c, 0, 64, 118
1, 424464, Control_c, 0, 64, 122
1, 424479, Control_c, 0, 64, 127
1, 424592, Note_off_c, 0, 48, 41
1, 425394, Note_on_c, 0, 61, 26
1, 425403, Note_on_c, 0, 53, 18
1, 425494, Note_off_c, 0, 56, 39
1, 425509, Control_c, 0, 64, 108
1, 425524, Control_c, 0, 64, 95
1, 425539, Control_c, 0, 64, 87
1, 425554, Control_c, 0, 64, 82
1, 425568, Control_c, 0, 64, 78
1, 425583, Control_c, 0, 64, 76
1, 425598, Control_c, 0, 64, 75
1, 425672, Control_c, 0, 64, 76
1, 425687, Control_c, 0, 64, 79
1, 425702, Control_c, 0, 64, 83
1, 425717, Control_c, 0, 64, 88
1, 425731, Control_c, 0, 64, 92
1, 425746, Control_c, 0, 64, 97
1, 425761, Control_c, 0, 64, 101
1, 425775, Control_c, 0, 64, 107
1, 425790, Control_c, 0, 64, 115
1, 425799, Note_off_c, 0, 61, 41
1, 425805, Control_c, 0, 64, 127
1, 425810, Note_off_c, 0, 64, 44
1, 425897, Note_off_c, 0, 69, 61
1, 425961, Control_c, 0, 67, 120
1, 425976, Control_c, 0, 67, 112
1, 425990, Control_c, 0, 67, 103
1, 426005, Control_c, 0, 67, 96
1, 426020, Control_c, 0, 67, 89
1, 426036, Control_c, 0, 67, 83
1, 426051, Control_c, 0, 67, 79
1, 426066, Control_c, 0, 67, 73
1, 426080, Control_c, 0, 67, 64
1, 426095, Control_c, 0, 67, 52
1, 426110, Control_c, 0, 67, 39
1, 426125, Control_c, 0, 67, 0
1, 426524, Control_c, 0, 64, 124
1, 426533, Note_on_c, 0, 47, 29
1, 426539, Control_c, 0, 64, 103
1, 426554, Control_c, 0, 64, 94
1, 426569, Control_c, 0, 64, 86
1, 426584, Control_c, 0, 64, 78
1, 426598, Control_c, 0, 64, 71
1, 426613, Control_c, 0, 64, 65
1, 426628, Control_c, 0, 64, 59
1, 426636, Note_off_c, 0, 53, 1
1, 426643, Control_c, 0, 64, 54
1, 426658, Control_c, 0, 64, 52
1, 426672, Control_c, 0, 64, 51
1, 426687, Control_c, 0, 64, 49
1, 426710, Control_c, 0, 64, 48
1, 426725, Control_c, 0, 64, 45
1, 426739, Control_c, 0, 64, 44
1, 426754, Control_c, 0, 64, 43
1, 426784, Control_c, 0, 64, 44
1, 426799, Control_c, 0, 64, 45
1, 426813, Control_c, 0, 64, 46
1, 426829, Control_c, 0, 64, 49
1, 426844, Control_c, 0, 64, 53
1, 426859, Control_c, 0, 64, 58
1, 426874, Control_c, 0, 64, 61
1, 426889, Control_c, 0, 64, 64
1, 426903, Control_c, 0, 64, 66
1, 426918, Control_c, 0, 64, 69
1, 426933, Control_c, 0, 64, 71
1, 426948, Control_c, 0, 64, 74
1, 426962, Control_c, 0, 64, 76
1, 426977, Control_c, 0, 64, 79
1, 426992, Control_c, 0, 64, 81
1, 427007, Control_c, 0, 64, 83
1, 427022, Control_c, 0, 64, 86
1, 427036, Control_c, 0, 64, 89
1, 427051, Control_c, 0, 64, 92
1, 427066, Control_c, 0, 64, 95
1, 427081, Control_c, 0, 64, 98
1, 427096, Control_c, 0, 64, 101
1, 427110, Control_c, 0, 64, 105
1, 427125, Control_c, 0, 64, 108
1, 427140, Control_c, 0, 64, 112
1, 427154, Control_c, 0, 64, 119
1, 427169, Control_c, 0, 64, 127
1, 427197, Note_on_c, 0, 71, 63
1, 427766, Note_on_c, 0, 55, 17
1, 427933, Note_off_c, 0, 47, 40
1, 428610, Note_on_c, 0, 63, 32
1, 429055, Note_on_c, 0, 72, 63
1, 429148, Note_off_c, 0, 71, 48
1, 429240, Note_on_c, 0, 74, 77
1, 429298, Control_c, 0, 64, 122
1, 429312, Control_c, 0, 64, 118
1, 429327, Note_off_c, 0, 72, 53
1, 429327, Control_c, 0, 64, 115
1, 429342, Control_c, 0, 64, 112
1, 429357, Control_c, 0, 64, 109
1, 429387, Control_c, 0, 64, 105
1, 429402, Control_c, 0, 64, 103
1, 429417, Control_c, 0, 64, 100
1, 429431, Control_c, 0, 64, 98
1, 429446, Control_c, 0, 64, 95
1, 429461, Control_c, 0, 64, 92
1, 429476, Control_c, 0, 64, 89
1, 429491, Control_c, 0, 64, 84
1, 429498, Note_on_c, 0, 75, 73
1, 429505, Control_c, 0, 64, 79
1, 429518, Note_on_c, 0, 70, 37
1, 429520, Control_c, 0, 64, 74
1, 429535, Control_c, 0, 64, 68
1, 429549, Control_c, 0, 64, 62
1, 429564, Control_c, 0, 64, 56
1, 429575, Note_off_c, 0, 74, 59
1, 429579, Control_c, 0, 64, 51
1, 429594, Control_c, 0, 64, 47
1, 429609, Control_c, 0, 64, 45
1, 429623, Control_c, 0, 64, 43
1, 429638, Control_c, 0, 64, 42
1, 429653, Control_c, 0, 64, 41
1, 429683, Control_c, 0, 64, 42
1, 429705, Control_c, 0, 64, 46
1, 429720, Control_c, 0, 64, 53
1, 429735, Control_c, 0, 64, 59
1, 429749, Control_c, 0, 64, 63
1, 429764, Control_c, 0, 64, 66
1, 429779, Control_c, 0, 64, 69
1, 429794, Control_c, 0, 64, 72
1, 429809, Control_c, 0, 64, 75
1, 429823, Control_c, 0, 64, 77
1, 429838, Control_c, 0, 64, 79
1, 429853, Control_c, 0, 64, 82
1, 429868, Control_c, 0, 64, 84
1, 429883, Control_c, 0, 64, 86
1, 429897, Control_c, 0, 64, 88
1, 429912, Control_c, 0, 64, 90
1, 429927, Control_c, 0, 64, 92
1, 429942, Control_c, 0, 64, 93
1, 429956, Control_c, 0, 64, 94
1, 429971, Control_c, 0, 64, 95
1, 429986, Control_c, 0, 64, 96
1, 430104, Note_on_c, 0, 74, 64
1, 430129, Note_off_c, 0, 63, 38
1, 430147, Note_off_c, 0, 70, 38
1, 430271, Note_on_c, 0, 72, 64
1, 430377, Note_off_c, 0, 74, 37
1, 430387, Control_c, 0, 64, 95
1, 430402, Control_c, 0, 64, 94
1, 430417, Control_c, 0, 64, 92
1, 430432, Control_c, 0, 64, 89
1, 430454, Control_c, 0, 64, 84
1, 430466, Note_on_c, 0, 71, 61
1, 430469, Control_c, 0, 64, 78
1, 430484, Note_on_c, 0, 62, 34
1, 430484, Control_c, 0, 64, 72
1, 430498, Control_c, 0, 64, 64
1, 430513, Control_c, 0, 64, 57
1, 430517, Note_off_c, 0, 72, 58
1, 430528, Control_c, 0, 64, 50
1, 430543, Control_c, 0, 64, 46
1, 430558, Control_c, 0, 64, 43
1, 430572, Control_c, 0, 64, 41
1, 430587, Control_c, 0, 64, 41
1, 430595, Note_off_c, 0, 75, 40
1, 430617, Control_c, 0, 64, 41
1, 430633, Control_c, 0, 64, 44
1, 430647, Control_c, 0, 64, 49
1, 430662, Control_c, 0, 64, 55
1, 430677, Control_c, 0, 64, 60
1, 430692, Control_c, 0, 64, 63
1, 430706, Control_c, 0, 64, 65
1, 430721, Control_c, 0, 64, 67
1, 430736, Control_c, 0, 64, 69
1, 430751, Control_c, 0, 64, 71
1, 430754, Note_off_c, 0, 55, 36
1, 430766, Control_c, 0, 64, 73
1, 430780, Control_c, 0, 64, 75
1, 430795, Control_c, 0, 64, 76
1, 430810, Control_c, 0, 64, 78
1, 430826, Control_c, 0, 64, 80
1, 430841, Control_c, 0, 64, 81
1, 430856, Control_c, 0, 64, 82
1, 430870, Control_c, 0, 64, 83
1, 430885, Control_c, 0, 64, 83
1, 430900, Control_c, 0, 64, 84
1, 431095, Note_on_c, 0, 70, 45
1, 431201, Note_off_c, 0, 71, 56
1, 431499, Control_c, 0, 64, 83
1, 431514, Control_c, 0, 64, 83
1, 431528, Control_c, 0, 64, 81
1, 431543, Control_c, 0, 64, 79
1, 431558, Control_c, 0, 64, 78
1, 431572, Note_on_c, 0, 54, 33
1, 431573, Control_c, 0, 64, 78
1, 431663, Control_c, 0, 64, 78
1, 431678, Control_c, 0, 64, 79
1, 431679, Note_off_c, 0, 70, 52
1, 431692, Control_c, 0, 64, 80
1, 431707, Control_c, 0, 64, 81
1, 431722, Control_c, 0, 64, 83
1, 431737, Control_c, 0, 64, 85
1, 431751, Control_c, 0, 64, 87
1, 431762, Note_off_c, 0, 62, 27
1, 431766, Control_c, 0, 64, 89
1, 431781, Control_c, 0, 64, 90
1, 431796, Control_c, 0, 64, 92
1, 431799, Note_on_c, 0, 70, 60
1, 431810, Control_c, 0, 64, 93
1, 431825, Control_c, 0, 64, 94
1, 431840, Control_c, 0, 64, 95
1, 431885, Control_c, 0, 64, 98
1, 431978, Note_off_c, 0, 70, 58
1, 432087, Note_on_c, 0, 70, 73
1, 432257, Note_on_c, 0, 73, 79
1, 432300, Note_off_c, 0, 70, 63
1, 432471, Control_c, 0, 64, 93
1, 432486, Control_c, 0, 64, 88
1, 432496, Note_on_c, 0, 77, 77
1, 432501, Control_c, 0, 64, 81
1, 432511, Note_on_c, 0, 69, 46
1, 432515, Note_on_c, 0, 48, 45
1, 432515, Control_c, 0, 64, 74
1, 432530, Control_c, 0, 64, 65
1, 432545, Control_c, 0, 64, 57
1, 432560, Control_c, 0, 64, 48
1, 432571, Note_off_c, 0, 54, 54
1, 432574, Control_c, 0, 64, 39
1, 432580, Note_off_c, 0, 73, 55
1, 432589, Control_c, 0, 64, 31
1, 432604, Control_c, 0, 64, 0
1, 432774, Control_c, 0, 64, 32
1, 432789, Control_c, 0, 64, 44
1, 432804, Control_c, 0, 64, 55
1, 432819, Control_c, 0, 64, 60
1, 432834, Control_c, 0, 64, 63
1, 432848, Control_c, 0, 64, 64
1, 432863, Control_c, 0, 64, 65
1, 432878, Control_c, 0, 64, 66
1, 432892, Control_c, 0, 64, 68
1, 432907, Control_c, 0, 64, 70
1, 432922, Control_c, 0, 64, 71
1, 432937, Control_c, 0, 64, 73
1, 432952, Control_c, 0, 64, 75
1, 432967, Control_c, 0, 64, 76
1, 432982, Control_c, 0, 64, 78
1, 432997, Control_c, 0, 64, 79
1, 433012, Control_c, 0, 64, 80
1, 433027, Control_c, 0, 64, 81
1, 433041, Control_c, 0, 64, 82
1, 433056, Control_c, 0, 64, 82
1, 433071, Control_c, 0, 64, 84
1, 433085, Control_c, 0, 64, 85
1, 433100, Control_c, 0, 64, 86
1, 433111, Note_on_c, 0, 76, 58
1, 433115, Control_c, 0, 64, 86
1, 433130, Control_c, 0, 64, 87
1, 433145, Control_c, 0, 64, 88
1, 433155, Note_off_c, 0, 77, 60
1, 433160, Control_c, 0, 64, 89
1, 433174, Control_c, 0, 64, 90
1, 433189, Control_c, 0, 64, 91
1, 433204, Control_c, 0, 64, 91
1, 433220, Control_c, 0, 64, 92
1, 433250, Control_c, 0, 64, 92
1, 433264, Control_c, 0, 64, 93
1, 433278, Note_off_c, 0, 69, 60
1, 433309, Control_c, 0, 64, 93
1, 433368, Control_c, 0, 64, 94
1, 433391, Note_off_c, 0, 76, 38
1, 433538, Control_c, 0, 64, 93
1, 433550, Note_on_c, 0, 76, 51
1, 433563, Note_on_c, 0, 56, 33
1, 433575, Note_on_c, 0, 68, 28
1, 433583, Control_c, 0, 64, 92
1, 433597, Control_c, 0, 64, 89
1, 433612, Control_c, 0, 64, 83
1, 433628, Control_c, 0, 64, 76
1, 433643, Control_c, 0, 64, 68
1, 433658, Control_c, 0, 64, 60
1, 433672, Control_c, 0, 64, 54
1, 433687, Control_c, 0, 64, 51
1, 433716, Control_c, 0, 64, 52
1, 433731, Control_c, 0, 64, 54
1, 433746, Control_c, 0, 64, 57
1, 433761, Control_c, 0, 64, 60
1, 433776, Control_c, 0, 64, 64
1, 433790, Control_c, 0, 64, 67
1, 433805, Control_c, 0, 64, 70
1, 433820, Control_c, 0, 64, 72
1, 433835, Control_c, 0, 64, 75
1, 433850, Control_c, 0, 64, 77
1, 433855, Note_off_c, 0, 48, 33
1, 433864, Control_c, 0, 64, 79
1, 433879, Control_c, 0, 64, 82
1, 433894, Control_c, 0, 64, 84
1, 433909, Control_c, 0, 64, 87
1, 433924, Control_c, 0, 64, 90
1, 433939, Control_c, 0, 64, 93
1, 433954, Control_c, 0, 64, 95
1, 433969, Control_c, 0, 64, 98
1, 433983, Control_c, 0, 64, 101
1, 433998, Control_c, 0, 64, 104
1, 434013, Control_c, 0, 64, 108
1, 434028, Control_c, 0, 64, 111
1, 434043, Control_c, 0, 64, 115
1, 434058, Control_c, 0, 64, 120
1, 434073, Control_c, 0, 64, 127
1, 434201, Note_off_c, 0, 68, 46
1, 434432, Note_on_c, 0, 64, 37
1, 434665, Note_off_c, 0, 56, 39
1, 434920, Note_on_c, 0, 79, 72
1, 434988, Note_off_c, 0, 76, 59
1, 435112, Note_on_c, 0, 76, 78
1, 435215, Note_off_c, 0, 79, 58
1, 435257, Control_c, 0, 64, 124
1, 435272, Control_c, 0, 64, 119
1, 435286, Control_c, 0, 64, 116
1, 435301, Control_c, 0, 64, 113
1, 435316, Control_c, 0, 64, 110
1, 435331, Control_c, 0, 64, 107
1, 435346, Control_c, 0, 64, 103
1, 435361, Control_c, 0, 64, 97
1, 435376, Control_c, 0, 64, 91
1, 435378, Note_on_c, 0, 75, 67
1, 435382, Note_on_c, 0, 69, 39
1, 435390, Control_c, 0, 64, 84
1, 435405, Control_c, 0, 64, 78
1, 435420, Control_c, 0, 64, 70
1, 435425, Note_off_c, 0, 76, 57
1, 435435, Control_c, 0, 64, 63
1, 435450, Control_c, 0, 64, 56
1, 435465, Control_c, 0, 64, 52
1, 435480, Control_c, 0, 64, 51
1, 435494, Control_c, 0, 64, 51
1, 435509, Control_c, 0, 64, 52
1, 435524, Control_c, 0, 64, 55
1, 435539, Control_c, 0, 64, 59
1, 435554, Control_c, 0, 64, 62
1, 435568, Control_c, 0, 64, 65
1, 435583, Control_c, 0, 64, 67
1, 435598, Control_c, 0, 64, 70
1, 435614, Control_c, 0, 64, 72
1, 435629, Control_c, 0, 64, 74
1, 435644, Control_c, 0, 64, 75
1, 435658, Control_c, 0, 64, 76
1, 435673, Control_c, 0, 64, 78
1, 435674, Note_off_c, 0, 64, 34
1, 435695, Control_c, 0, 64, 79
1, 435709, Control_c, 0, 64, 80
1, 435724, Control_c, 0, 64, 82
1, 435739, Control_c, 0, 64, 83
1, 435754, Control_c, 0, 64, 84
1, 435759, Note_on_c, 0, 74, 67
1, 435769, Control_c, 0, 64, 85
1, 435784, Control_c, 0, 64, 86
1, 435799, Control_c, 0, 64, 86
1, 435814, Control_c, 0, 64, 87
1, 435844, Control_c, 0, 64, 87
1, 435998, Note_on_c, 0, 72, 69
1, 436029, Note_off_c, 0, 74, 64
1, 436037, Note_off_c, 0, 75, 31
1, 436213, Control_c, 0, 64, 87
1, 436243, Control_c, 0, 64, 86
1, 436258, Control_c, 0, 64, 84
1, 436273, Control_c, 0, 64, 82
1, 436288, Control_c, 0, 64, 78
1, 436300, Note_on_c, 0, 71, 62
1, 436303, Control_c, 0, 64, 72
1, 436310, Note_on_c, 0, 61, 41
1, 436317, Control_c, 0, 64, 66
1, 436332, Control_c, 0, 64, 60
1, 436347, Control_c, 0, 64, 55
1, 436362, Control_c, 0, 64, 51
1, 436377, Control_c, 0, 64, 48
1, 436390, Note_off_c, 0, 72, 56
1, 436391, Control_c, 0, 64, 47
1, 436407, Control_c, 0, 64, 46
1, 436437, Note_off_c, 0, 69, 42
1, 436474, Control_c, 0, 64, 47
1, 436488, Control_c, 0, 64, 48
1, 436503, Control_c, 0, 64, 49
1, 436518, Control_c, 0, 64, 50
1, 436533, Control_c, 0, 64, 52
1, 436547, Control_c, 0, 64, 55
1, 436562, Control_c, 0, 64, 57
1, 436577, Control_c, 0, 64, 59
1, 436592, Control_c, 0, 64, 61
1, 436607, Control_c, 0, 64, 63
1, 436622, Control_c, 0, 64, 64
1, 436637, Control_c, 0, 64, 66
1, 436651, Control_c, 0, 64, 67
1, 436666, Control_c, 0, 64, 69
1, 436681, Control_c, 0, 64, 69
1, 436696, Control_c, 0, 64, 70
1, 436711, Control_c, 0, 64, 71
1, 436740, Control_c, 0, 67, 49
1, 436755, Control_c, 0, 67, 62
1, 436770, Control_c, 0, 67, 73
1, 436785, Control_c, 0, 67, 83
1, 436800, Control_c, 0, 67, 92
1, 436814, Control_c, 0, 67, 99
1, 436829, Control_c, 0, 67, 102
1, 436918, Control_c, 0, 64, 70
1, 436932, Control_c, 0, 64, 70
1, 436932, Control_c, 0, 67, 104
1, 436944, Note_on_c, 0, 70, 43
1, 436947, Control_c, 0, 64, 69
1, 436962, Control_c, 0, 64, 67
1, 436977, Control_c, 0, 64, 65
1, 436977, Control_c, 0, 67, 106
1, 436992, Control_c, 0, 64, 64
1, 437003, Note_off_c, 0, 71, 37
1, 437006, Control_c, 0, 64, 62
1, 437081, Control_c, 0, 64, 63
1, 437096, Control_c, 0, 64, 63
1, 437110, Control_c, 0, 64, 64
1, 437110, Control_c, 0, 67, 104
1, 437125, Control_c, 0, 64, 65
1, 437125, Control_c, 0, 67, 102
1, 437140, Control_c, 0, 64, 66
1, 437155, Control_c, 0, 64, 68
1, 437155, Control_c, 0, 67, 100
1, 437170, Control_c, 0, 64, 69
1, 437192, Control_c, 0, 64, 70
1, 437192, Control_c, 0, 67, 98
1, 437207, Control_c, 0, 64, 71
1, 437223, Control_c, 0, 64, 71
1, 437223, Control_c, 0, 67, 96
1, 437237, Control_c, 0, 64, 72
1, 437237, Control_c, 0, 67, 95
1, 437252, Control_c, 0, 64, 73
1, 437252, Control_c, 0, 67, 94
1, 437267, Control_c, 0, 64, 74
1, 437267, Control_c, 0, 67, 93
1, 437282, Control_c, 0, 64, 74
1, 437282, Control_c, 0, 67, 92
1, 437297, Control_c, 0, 64, 75
1, 437297, Control_c, 0, 67, 92
1, 437311, Control_c, 0, 64, 75
1, 437311, Control_c, 0, 67, 91
1, 437341, Control_c, 0, 64, 76
1, 437370, Control_c, 0, 67, 90
1, 437395, Note_on_c, 0, 53, 32
1, 437400, Control_c, 0, 67, 90
1, 437415, Control_c, 0, 64, 76
1, 437415, Control_c, 0, 67, 89
1, 437430, Control_c, 0, 67, 88
1, 437444, Control_c, 0, 64, 77
1, 437444, Control_c, 0, 67, 87
1, 437459, Control_c, 0, 64, 78
1, 437459, Control_c, 0, 67, 86
1, 437474, Control_c, 0, 64, 79
1, 437474, Control_c, 0, 67, 85
1, 437489, Control_c, 0, 64, 80
1, 437489, Control_c, 0, 67, 85
1, 437504, Control_c, 0, 64, 82
1, 437504, Control_c, 0, 67, 83
1, 437519, Control_c, 0, 64, 83
1, 437519, Control_c, 0, 67, 83
1, 437525, Note_off_c, 0, 61, 34
1, 437534, Control_c, 0, 64, 85
1, 437534, Control_c, 0, 67, 81
1, 437549, Control_c, 0, 64, 86
1, 437549, Control_c, 0, 67, 81
1, 437563, Control_c, 0, 64, 88
1, 437563, Control_c, 0, 67, 80
1, 437578, Control_c, 0, 64, 89
1, 437578, Control_c, 0, 67, 79
1, 437593, Control_c, 0, 64, 90
1, 437593, Control_c, 0, 67, 78
1, 437608, Control_c, 0, 64, 92
1, 437608, Control_c, 0, 67, 77
1, 437623, Control_c, 0, 64, 94
1, 437623, Control_c, 0, 67, 77
1, 437637, Control_c, 0, 64, 95
1, 437637, Control_c, 0, 67, 76
1, 437644, Note_on_c, 0, 65, 52
1, 437667, Control_c, 0, 64, 99
1, 437667, Control_c, 0, 67, 75
1, 437681, Control_c, 0, 64, 101
1, 437696, Control_c, 0, 64, 103
1, 437696, Control_c, 0, 67, 75
1, 437711, Control_c, 0, 64, 105
1, 437726, Control_c, 0, 64, 108
1, 437731, Note_off_c, 0, 70, 37
1, 437741, Control_c, 0, 64, 110
1, 437741, Control_c, 0, 67, 74
1, 437755, Control_c, 0, 64, 113
1, 437770, Control_c, 0, 64, 116
1, 437781, Note_off_c, 0, 65, 55
1, 437785, Control_c, 0, 64, 120
1, 437800, Control_c, 0, 64, 127
1, 437855, Note_on_c, 0, 65, 53
1, 437918, Control_c, 0, 67, 73
1, 437970, Control_c, 0, 67, 73
1, 437985, Control_c, 0, 67, 72
1, 438000, Control_c, 0, 67, 70
1, 438016, Control_c, 0, 67, 68
1, 438031, Control_c, 0, 67, 64
1, 438034, Note_on_c, 0, 70, 73
1, 438040, Note_off_c, 0, 65, 56
1, 438046, Control_c, 0, 67, 57
1, 438049, Note_on_c, 0, 68, 51
1, 438060, Control_c, 0, 67, 48
1, 438075, Control_c, 0, 67, 40
1, 438090, Control_c, 0, 67, 0
1, 438124, Note_off_c, 0, 68, 39
1, 438188, Note_off_c, 0, 70, 63
1, 438334, Note_on_c, 0, 62, 34
1, 438357, Note_on_c, 0, 52, 39
1, 438368, Note_on_c, 0, 80, 75
1, 438371, Control_c, 0, 64, 108
1, 438386, Control_c, 0, 64, 92
1, 438401, Control_c, 0, 64, 81
1, 438416, Control_c, 0, 64, 72
1, 438431, Control_c, 0, 64, 64
1, 438434, Note_off_c, 0, 53, 40
1, 438446, Control_c, 0, 64, 57
1, 438460, Control_c, 0, 64, 52
1, 438475, Control_c, 0, 64, 49
1, 438490, Control_c, 0, 64, 48
1, 438504, Control_c, 0, 64, 48
1, 438519, Control_c, 0, 64, 47
1, 438534, Control_c, 0, 64, 46
1, 438549, Control_c, 0, 64, 45
1, 438564, Control_c, 0, 64, 43
1, 438578, Control_c, 0, 64, 42
1, 438593, Control_c, 0, 64, 41
1, 438705, Control_c, 0, 64, 42
1, 438719, Control_c, 0, 64, 43
1, 438734, Control_c, 0, 64, 47
1, 438749, Control_c, 0, 64, 52
1, 438764, Control_c, 0, 64, 57
1, 438779, Control_c, 0, 64, 60
1, 438793, Control_c, 0, 64, 62
1, 438809, Control_c, 0, 64, 62
1, 438824, Control_c, 0, 64, 63
1, 438839, Control_c, 0, 64, 63
1, 438869, Control_c, 0, 64, 64
1, 438883, Control_c, 0, 64, 64
1, 439002, Control_c, 0, 64, 64
1, 439010, Note_on_c, 0, 79, 58
1, 439031, Control_c, 0, 64, 63
1, 439046, Control_c, 0, 64, 62
1, 439061, Control_c, 0, 64, 62
1, 439073, Note_off_c, 0, 80, 54
1, 439135, Control_c, 0, 64, 63
1, 439149, Control_c, 0, 64, 64
1, 439164, Control_c, 0, 64, 65
1, 439179, Control_c, 0, 64, 67
1, 439194, Control_c, 0, 64, 69
1, 439209, Control_c, 0, 64, 71
1, 439224, Control_c, 0, 64, 73
1, 439239, Control_c, 0, 64, 74
1, 439253, Control_c, 0, 64, 76
1, 439268, Control_c, 0, 64, 77
1, 439283, Control_c, 0, 64, 79
1, 439298, Control_c, 0, 64, 80
1, 439313, Control_c, 0, 64, 80
1, 439327, Control_c, 0, 64, 81
1, 439357, Control_c, 0, 64, 81
1, 439364, Note_off_c, 0, 79, 59
1, 439486, Note_on_c, 0, 79, 52
1, 439492, Note_on_c, 0, 61, 37
1, 439513, Control_c, 0, 64, 80
1, 439527, Control_c, 0, 64, 78
1, 439542, Control_c, 0, 64, 75
1, 439557, Control_c, 0, 64, 70
1, 439572, Control_c, 0, 64, 65
1, 439582, Note_off_c, 0, 62, 41
1, 439587, Control_c, 0, 64, 60
1, 439603, Control_c, 0, 64, 57
1, 439617, Control_c, 0, 64, 57
1, 439677, Control_c, 0, 64, 57
1, 439691, Control_c, 0, 64, 58
1, 439706, Control_c, 0, 64, 59
1, 439721, Control_c, 0, 64, 60
1, 439736, Control_c, 0, 64, 63
1, 439751, Control_c, 0, 64, 66
1, 439765, Control_c, 0, 64, 69
1, 439780, Control_c, 0, 64, 73
1, 439795, Control_c, 0, 64, 76
1, 439810, Control_c, 0, 64, 79
1, 439825, Control_c, 0, 64, 82
1, 439839, Control_c, 0, 64, 85
1, 439854, Control_c, 0, 64, 89
1, 439869, Control_c, 0, 64, 92
1, 439883, Control_c, 0, 64, 96
1, 439889, Note_off_c, 0, 52, 34
1, 439898, Control_c, 0, 64, 100
1, 439913, Control_c, 0, 64, 105
1, 439928, Control_c, 0, 64, 112
1, 439943, Control_c, 0, 64, 122
1, 439957, Control_c, 0, 64, 127
1, 440340, Note_on_c, 0, 70, 41
1, 440402, Note_off_c, 0, 61, 41
1, 440795, Note_on_c, 0, 84, 67
1, 440877, Note_off_c, 0, 79, 58
1, 440971, Note_on_c, 0, 83, 78
1, 441016, Note_off_c, 0, 84, 57
1, 441163, Note_on_c, 0, 86, 82
1, 441190, Note_on_c, 0, 79, 33
1, 441222, Note_off_c, 0, 83, 60
1, 441343, Note_on_c, 0, 85, 81
1, 441381, Note_off_c, 0, 86, 60
1, 441541, Note_on_c, 0, 88, 85
1, 441605, Note_off_c, 0, 85, 63
1, 441996, Control_c, 0, 64, 115
1, 441998, Note_on_c, 0, 83, 64
1, 442012, Control_c, 0, 64, 98
1, 442025, Note_on_c, 0, 75, 34
1, 442026, Control_c, 0, 64, 88
1, 442041, Control_c, 0, 64, 79
1, 442056, Control_c, 0, 64, 70
1, 442071, Control_c, 0, 64, 64
1, 442086, Control_c, 0, 64, 60
1, 442101, Control_c, 0, 64, 58
1, 442103, Note_off_c, 0, 88, 56
1, 442115, Control_c, 0, 64, 57
1, 442145, Control_c, 0, 64, 58
1, 442160, Control_c, 0, 64, 59
1, 442175, Control_c, 0, 64, 62
1, 442190, Control_c, 0, 64, 65
1, 442205, Control_c, 0, 64, 68
1, 442219, Control_c, 0, 64, 72
1, 442232, Note_off_c, 0, 79, 35
1, 442234, Control_c, 0, 64, 76
1, 442249, Control_c, 0, 64, 79
1, 442264, Control_c, 0, 64, 82
1, 442278, Control_c, 0, 64, 84
1, 442293, Control_c, 0, 64, 87
1, 442308, Control_c, 0, 64, 89
1, 442323, Control_c, 0, 64, 92
1, 442338, Control_c, 0, 64, 94
1, 442352, Control_c, 0, 64, 97
1, 442382, Control_c, 0, 64, 100
1, 442397, Control_c, 0, 64, 102
1, 442412, Control_c, 0, 64, 104
1, 442436, Note_on_c, 0, 82, 51
1, 442449, Control_c, 0, 64, 108
1, 442464, Control_c, 0, 64, 111
1, 442467, Note_off_c, 0, 83, 56
1, 442478, Control_c, 0, 64, 115
1, 442493, Control_c, 0, 64, 120
1, 442508, Control_c, 0, 64, 127
1, 442612, Note_off_c, 0, 70, 34
1, 443004, Note_on_c, 0, 69, 14
1, 443011, Note_on_c, 0, 85, 72
1, 443063, Note_off_c, 0, 82, 38
1, 443215, Note_off_c, 0, 75, 38
1, 443644, Control_c, 0, 67, 40
1, 443658, Control_c, 0, 67, 54
1, 443673, Control_c, 0, 67, 67
1, 443688, Control_c, 0, 67, 77
1, 443703, Control_c, 0, 67, 85
1, 443718, Control_c, 0, 64, 122
1, 443718, Control_c, 0, 67, 92
1, 443732, Control_c, 0, 64, 118
1, 443732, Control_c, 0, 67, 99
1, 443747, Control_c, 0, 64, 115
1, 443747, Control_c, 0, 67, 105
1, 443762, Control_c, 0, 67, 110
1, 443777, Control_c, 0, 64, 112
1, 443777, Control_c, 0, 67, 114
1, 443792, Control_c, 0, 64, 110
1, 443792, Control_c, 0, 67, 116
1, 443821, Control_c, 0, 64, 108
1, 443850, Control_c, 0, 64, 104
1, 443850, Control_c, 0, 67, 118
1, 443865, Control_c, 0, 64, 102
1, 443880, Control_c, 0, 64, 100
1, 443895, Control_c, 0, 64, 97
1, 443910, Control_c, 0, 64, 95
1, 443910, Control_c, 0, 67, 120
1, 443916, Note_on_c, 0, 66, 40
1, 443932, Control_c, 0, 64, 93
1, 443947, Control_c, 0, 64, 92
1, 443962, Control_c, 0, 64, 92
1, 443977, Control_c, 0, 64, 91
1, 443992, Control_c, 0, 64, 91
1, 444006, Control_c, 0, 67, 122
1, 444125, Control_c, 0, 67, 124
1, 444139, Control_c, 0, 67, 127
1, 444289, Note_off_c, 0, 69, 33
1, 444392, Control_c, 0, 64, 90
1, 444444, Note_on_c, 0, 84, 62
1, 444600, Control_c, 0, 64, 90
1, 444626, Note_on_c, 0, 83, 72
1, 444642, Note_off_c, 0, 85, 43
1, 444680, Note_off_c, 0, 84, 59
1, 444681, Control_c, 0, 64, 89
1, 444711, Control_c, 0, 64, 89
1, 444741, Control_c, 0, 64, 88
1, 444755, Control_c, 0, 64, 88
1, 444770, Control_c, 0, 64, 87
1, 444785, Control_c, 0, 64, 86
1, 444800, Control_c, 0, 64, 85
1, 444815, Control_c, 0, 64, 83
1, 444829, Control_c, 0, 64, 82
1, 444844, Control_c, 0, 64, 80
1, 444859, Control_c, 0, 64, 76
1, 444873, Note_on_c, 0, 86, 62
1, 444873, Control_c, 0, 64, 71
1, 444881, Note_on_c, 0, 60, 30
1, 444888, Control_c, 0, 64, 65
1, 444903, Control_c, 0, 64, 60
1, 444917, Note_off_c, 0, 83, 57
1, 444918, Control_c, 0, 64, 55
1, 444933, Control_c, 0, 64, 53
1, 444947, Control_c, 0, 64, 52
1, 444962, Control_c, 0, 64, 52
1, 445007, Control_c, 0, 64, 53
1, 445022, Control_c, 0, 64, 56
1, 445037, Control_c, 0, 64, 58
1, 445041, Note_off_c, 0, 66, 35
1, 445052, Control_c, 0, 64, 60
1, 445067, Control_c, 0, 64, 62
1, 445081, Control_c, 0, 64, 63
1, 445096, Control_c, 0, 64, 65
1, 445111, Control_c, 0, 64, 66
1, 445126, Control_c, 0, 64, 68
1, 445140, Control_c, 0, 64, 70
1, 445155, Control_c, 0, 64, 72
1, 445170, Control_c, 0, 64, 73
1, 445185, Control_c, 0, 64, 73
1, 445216, Control_c, 0, 64, 74
1, 445230, Control_c, 0, 64, 74
1, 445239, Note_on_c, 0, 85, 62
1, 445260, Control_c, 0, 64, 75
1, 445285, Note_off_c, 0, 86, 54
1, 445564, Note_on_c, 0, 87, 59
1, 445674, Note_off_c, 0, 85, 53
1, 445948, Control_c, 0, 64, 74
1, 445977, Control_c, 0, 64, 74
1, 445993, Control_c, 0, 64, 73
1, 446000, Note_on_c, 0, 59, 33
1, 446005, Note_on_c, 0, 81, 45
1, 446008, Control_c, 0, 64, 71
1, 446023, Control_c, 0, 64, 69
1, 446037, Control_c, 0, 64, 65
1, 446052, Control_c, 0, 64, 63
1, 446067, Control_c, 0, 64, 61
1, 446082, Control_c, 0, 64, 59
1, 446097, Control_c, 0, 64, 59
1, 446112, Note_off_c, 0, 60, 37
1, 446112, Control_c, 0, 64, 58
1, 446126, Control_c, 0, 64, 58
1, 446135, Note_off_c, 0, 87, 58
1, 446141, Control_c, 0, 64, 57
1, 446178, Control_c, 0, 64, 57
1, 446208, Control_c, 0, 64, 56
1, 446252, Control_c, 0, 64, 56
1, 446587, Note_on_c, 0, 80, 40
1, 446623, Control_c, 0, 64, 56
1, 446638, Control_c, 0, 64, 57
1, 446652, Control_c, 0, 64, 58
1, 446667, Control_c, 0, 64, 60
1, 446673, Note_off_c, 0, 81, 48
1, 446682, Control_c, 0, 64, 62
1, 446697, Control_c, 0, 64, 65
1, 446712, Control_c, 0, 64, 67
1, 446727, Control_c, 0, 64, 70
1, 446742, Control_c, 0, 64, 73
1, 446757, Control_c, 0, 64, 74
1, 446771, Control_c, 0, 64, 75
1, 446786, Control_c, 0, 64, 76
1, 446802, Control_c, 0, 64, 77
1, 446816, Control_c, 0, 64, 77
1, 446831, Control_c, 0, 64, 78
1, 446876, Control_c, 0, 64, 78
1, 446881, Note_off_c, 0, 80, 59
1, 446969, Note_on_c, 0, 80, 56
1, 446972, Control_c, 0, 64, 78
1, 447002, Control_c, 0, 64, 77
1, 447016, Control_c, 0, 64, 75
1, 447020, Note_on_c, 0, 62, 22
1, 447025, Note_on_c, 0, 85, 69
1, 447031, Control_c, 0, 64, 72
1, 447046, Control_c, 0, 64, 67
1, 447061, Control_c, 0, 64, 61
1, 447073, Note_off_c, 0, 80, 50
1, 447076, Control_c, 0, 64, 58
1, 447091, Control_c, 0, 64, 56
1, 447105, Control_c, 0, 64, 56
1, 447120, Control_c, 0, 64, 55
1, 447165, Control_c, 0, 64, 55
1, 447239, Control_c, 0, 64, 55
1, 447254, Control_c, 0, 64, 56
1, 447268, Control_c, 0, 64, 56
1, 447283, Control_c, 0, 64, 57
1, 447298, Control_c, 0, 64, 58
1, 447313, Control_c, 0, 64, 59
1, 447328, Control_c, 0, 64, 60
1, 447342, Control_c, 0, 64, 61
1, 447372, Control_c, 0, 64, 61
1, 447431, Control_c, 0, 64, 62
1, 447461, Control_c, 0, 64, 62
1, 447475, Control_c, 0, 64, 63
1, 447480, Note_off_c, 0, 85, 60
1, 447485, Note_on_c, 0, 84, 49
1, 447490, Control_c, 0, 64, 64
1, 447505, Control_c, 0, 64, 65
1, 447520, Control_c, 0, 64, 67
1, 447535, Control_c, 0, 64, 70
1, 447550, Control_c, 0, 64, 72
1, 447565, Control_c, 0, 64, 74
1, 447579, Control_c, 0, 64, 75
1, 447595, Control_c, 0, 64, 76
1, 447595, Control_c, 0, 67, 122
1, 447610, Control_c, 0, 64, 78
1, 447610, Control_c, 0, 67, 110
1, 447625, Control_c, 0, 64, 79
1, 447625, Control_c, 0, 67, 98
1, 447639, Control_c, 0, 64, 80
1, 447639, Control_c, 0, 67, 85
1, 447654, Control_c, 0, 64, 81
1, 447654, Control_c, 0, 67, 71
1, 447668, Note_off_c, 0, 84, 63
1, 447677, Control_c, 0, 64, 81
1, 447677, Control_c, 0, 67, 58
1, 447692, Control_c, 0, 64, 82
1, 447692, Control_c, 0, 67, 43
1, 447706, Control_c, 0, 67, 0
1, 447721, Control_c, 0, 64, 82
1, 447839, Control_c, 0, 64, 82
1, 447868, Control_c, 0, 64, 81
1, 447869, Note_on_c, 0, 75, 62
1, 447883, Control_c, 0, 64, 79
1, 447897, Control_c, 0, 64, 76
1, 447911, Note_on_c, 0, 65, 30
1, 447912, Control_c, 0, 64, 72
1, 447917, Note_on_c, 0, 81, 69
1, 447927, Control_c, 0, 64, 67
1, 447942, Control_c, 0, 64, 63
1, 447954, Note_off_c, 0, 75, 57
1, 447957, Control_c, 0, 64, 59
1, 447971, Control_c, 0, 64, 57
1, 447986, Control_c, 0, 64, 56
1, 448104, Control_c, 0, 64, 56
1, 448119, Control_c, 0, 64, 57
1, 448134, Control_c, 0, 64, 57
1, 448149, Control_c, 0, 64, 58
1, 448164, Control_c, 0, 64, 59
1, 448179, Control_c, 0, 64, 60
1, 448193, Control_c, 0, 64, 61
1, 448208, Control_c, 0, 64, 61
1, 448223, Control_c, 0, 64, 62
1, 448238, Control_c, 0, 64, 62
1, 448327, Control_c, 0, 67, 37
1, 448342, Control_c, 0, 67, 39
1, 448357, Control_c, 0, 67, 39
1, 448371, Control_c, 0, 64, 63
1, 448371, Control_c, 0, 67, 40
1, 448387, Control_c, 0, 67, 41
1, 448424, Control_c, 0, 67, 41
1, 448513, Control_c, 0, 67, 41
1, 448542, Control_c, 0, 67, 40
1, 448557, Control_c, 0, 67, 39
1, 448572, Control_c, 0, 67, 39
1, 448573, Note_on_c, 0, 80, 40
1, 448587, Control_c, 0, 67, 38
1, 448602, Control_c, 0, 67, 37
1, 448617, Control_c, 0, 67, 0
1, 448646, Control_c, 0, 64, 63
1, 448676, Control_c, 0, 64, 64
1, 448690, Note_off_c, 0, 81, 39
1, 448691, Control_c, 0, 64, 64
1, 448706, Control_c, 0, 64, 65
1, 448720, Control_c, 0, 64, 66
1, 448735, Control_c, 0, 64, 68
1, 448750, Control_c, 0, 64, 69
1, 448765, Control_c, 0, 64, 71
1, 448780, Control_c, 0, 64, 73
1, 448794, Control_c, 0, 64, 74
1, 448809, Control_c, 0, 64, 75
1, 448824, Control_c, 0, 64, 76
1, 448838, Control_c, 0, 64, 78
1, 448853, Control_c, 0, 64, 79
1, 448868, Control_c, 0, 64, 81
1, 448883, Control_c, 0, 64, 83
1, 448898, Control_c, 0, 64, 85
1, 448912, Control_c, 0, 64, 87
1, 448927, Control_c, 0, 64, 89
1, 448942, Control_c, 0, 64, 90
1, 448957, Control_c, 0, 64, 92
1, 448971, Control_c, 0, 64, 94
1, 448986, Control_c, 0, 64, 96
1, 449001, Control_c, 0, 64, 98
1, 449031, Control_c, 0, 64, 101
1, 449061, Control_c, 0, 64, 105
1, 449063, Note_on_c, 0, 68, 30
1, 449076, Note_off_c, 0, 80, 36
1, 449076, Control_c, 0, 64, 107
1, 449091, Control_c, 0, 64, 110
1, 449106, Control_c, 0, 64, 113
1, 449120, Control_c, 0, 64, 117
1, 449135, Control_c, 0, 64, 124
1, 449150, Control_c, 0, 64, 127
1, 449228, Note_on_c, 0, 78, 51
1, 449405, Note_on_c, 0, 73, 43
1, 449409, Note_off_c, 0, 68, 41
1, 449580, Note_off_c, 0, 78, 37
1, 449617, Note_on_c, 0, 77, 63
1, 449645, Note_off_c, 0, 62, 34
1, 449675, Note_off_c, 0, 65, 33
1, 449705, Note_off_c, 0, 73, 38
1, 449750, Note_off_c, 0, 59, 38
1, 449896, Note_on_c, 0, 67, 43
1, 450089, Note_on_c, 0, 72, 62
1, 450173, Note_off_c, 0, 67, 51
1, 450337, Control_c, 0, 64, 99
1, 450352, Control_c, 0, 64, 83
1, 450358, Note_on_c, 0, 34, 36
1, 450358, Note_on_c, 0, 46, 36
1, 450367, Control_c, 0, 64, 68
1, 450381, Control_c, 0, 64, 54
1, 450391, Note_on_c, 0, 71, 64
1, 450396, Control_c, 0, 64, 29
1, 450405, Note_off_c, 0, 77, 18
1, 450411, Control_c, 0, 64, 0
1, 450460, Note_off_c, 0, 72, 58
1, 450515, Control_c, 0, 66, 127
1, 450671, Control_c, 0, 64, 41
1, 450686, Control_c, 0, 64, 54
1, 450700, Control_c, 0, 64, 61
1, 450715, Control_c, 0, 64, 63
1, 450730, Control_c, 0, 64, 65
1, 450744, Control_c, 0, 64, 67
1, 450749, Note_off_c, 0, 34, 40
1, 450759, Control_c, 0, 64, 70
1, 450774, Control_c, 0, 64, 74
1, 450779, Note_off_c, 0, 46, 61
1, 450790, Control_c, 0, 64, 78
1, 450805, Control_c, 0, 64, 82
1, 450820, Control_c, 0, 64, 86
1, 450835, Control_c, 0, 64, 91
1, 450849, Control_c, 0, 64, 96
1, 450864, Control_c, 0, 64, 101
1, 450879, Control_c, 0, 64, 107
1, 450894, Control_c, 0, 64, 114
1, 450909, Control_c, 0, 64, 127
1, 451214, Note_on_c, 0, 55, 36
1, 452015, Note_on_c, 0, 63, 45
1, 452488, Note_on_c, 0, 72, 59
1, 452571, Note_off_c, 0, 71, 53
1, 452636, Note_on_c, 0, 74, 77
1, 452642, Control_c, 0, 64, 122
1, 452657, Control_c, 0, 64, 109
1, 452672, Control_c, 0, 64, 104
1, 452686, Control_c, 0, 64, 100
1, 452701, Control_c, 0, 64, 97
1, 452713, Note_off_c, 0, 72, 48
1, 452716, Control_c, 0, 64, 95
1, 452731, Control_c, 0, 64, 92
1, 452746, Control_c, 0, 64, 90
1, 452760, Control_c, 0, 64, 87
1, 452775, Control_c, 0, 64, 85
1, 452790, Control_c, 0, 64, 82
1, 452805, Control_c, 0, 64, 79
1, 452820, Control_c, 0, 64, 76
1, 452835, Control_c, 0, 64, 72
1, 452841, Note_on_c, 0, 75, 73
1, 452850, Control_c, 0, 64, 67
1, 452855, Note_on_c, 0, 70, 41
1, 452865, Control_c, 0, 64, 61
1, 452879, Control_c, 0, 64, 56
1, 452888, Note_off_c, 0, 74, 59
1, 452894, Control_c, 0, 64, 52
1, 452916, Control_c, 0, 64, 48
1, 452931, Control_c, 0, 64, 41
1, 452946, Control_c, 0, 64, 29
1, 452960, Control_c, 0, 64, 0
1, 453109, Control_c, 0, 64, 34
1, 453124, Control_c, 0, 64, 50
1, 453139, Control_c, 0, 64, 60
1, 453154, Control_c, 0, 64, 64
1, 453169, Control_c, 0, 64, 67
1, 453184, Control_c, 0, 64, 70
1, 453199, Control_c, 0, 64, 73
1, 453214, Control_c, 0, 64, 77
1, 453226, Note_off_c, 0, 70, 37
1, 453229, Control_c, 0, 64, 81
1, 453243, Control_c, 0, 64, 86
1, 453258, Control_c, 0, 64, 92
1, 453273, Control_c, 0, 64, 100
1, 453288, Control_c, 0, 64, 109
1, 453303, Control_c, 0, 64, 127
1, 453383, Note_off_c, 0, 63, 32
1, 453408, Note_on_c, 0, 74, 78
1, 453516, Note_off_c, 0, 55, 40
1, 453537, Note_off_c, 0, 75, 57
1, 453616, Note_on_c, 0, 72, 83
1, 453637, Note_off_c, 0, 74, 64
1, 453769, Control_c, 0, 66, 0
1, 453934, Note_on_c, 0, 47, 41
1, 453941, Note_on_c, 0, 35, 45
1, 453965, Note_on_c, 0, 71, 80
1, 453976, Control_c, 0, 64, 93
1, 453979, Note_on_c, 0, 62, 51
1, 453993, Control_c, 0, 64, 69
1, 454007, Control_c, 0, 64, 50
1, 454018, Note_off_c, 0, 72, 62
1, 454022, Control_c, 0, 64, 0
1, 454096, Control_c, 0, 66, 127
1, 454316, Note_off_c, 0, 35, 54
1, 454338, Note_off_c, 0, 47, 36
1, 454716, Note_on_c, 0, 70, 48
1, 454817, Note_off_c, 0, 71, 54
1, 454975, Note_on_c, 0, 51, 61
1, 455048, Note_off_c, 0, 51, 59
1, 455061, Note_on_c, 0, 55, 63
1, 455159, Note_off_c, 0, 55, 54
1, 455187, Note_on_c, 0, 54, 50
1, 455489, Control_c, 0, 64, 38
1, 455504, Control_c, 0, 64, 50
1, 455519, Control_c, 0, 64, 58
1, 455533, Control_c, 0, 64, 62
1, 455548, Control_c, 0, 64, 64
1, 455563, Control_c, 0, 64, 66
1, 455579, Control_c, 0, 64, 69
1, 455594, Control_c, 0, 64, 73
1, 455609, Control_c, 0, 64, 78
1, 455624, Control_c, 0, 64, 85
1, 455638, Control_c, 0, 64, 92
1, 455653, Control_c, 0, 64, 102
1, 455668, Control_c, 0, 64, 127
1, 455670, Note_off_c, 0, 54, 32
1, 455717, Note_off_c, 0, 70, 60
1, 455887, Note_off_c, 0, 62, 41
1, 456016, Control_c, 0, 66, 0
1, 456642, Note_on_c, 0, 46, 34
1, 456656, Note_on_c, 0, 34, 37
1, 456661, Control_c, 0, 64, 99
1, 456676, Control_c, 0, 64, 82
1, 456686, Note_on_c, 0, 59, 68
1, 456691, Control_c, 0, 64, 67
1, 456706, Control_c, 0, 64, 52
1, 456721, Control_c, 0, 64, 0
1, 456839, Control_c, 0, 66, 127
1, 457017, Control_c, 0, 64, 37
1, 457032, Control_c, 0, 64, 48
1, 457047, Control_c, 0, 64, 58
1, 457061, Control_c, 0, 64, 61
1, 457076, Control_c, 0, 64, 63
1, 457091, Control_c, 0, 64, 64
1, 457105, Control_c, 0, 64, 66
1, 457120, Control_c, 0, 64, 69
1, 457135, Control_c, 0, 64, 72
1, 457150, Control_c, 0, 64, 76
1, 457165, Control_c, 0, 64, 80
1, 457181, Control_c, 0, 64, 84
1, 457195, Control_c, 0, 64, 89
1, 457210, Control_c, 0, 64, 96
1, 457225, Control_c, 0, 64, 104
1, 457240, Control_c, 0, 64, 118
1, 457255, Control_c, 0, 64, 127
1, 457506, Note_off_c, 0, 59, 36
1, 457610, Note_on_c, 0, 67, 37
1, 457619, Note_on_c, 0, 60, 23
1, 457869, Note_off_c, 0, 60, 42
1, 457893, Note_off_c, 0, 34, 41
1, 458032, Note_off_c, 0, 67, 61
1, 458171, Note_off_c, 0, 46, 38
1, 458383, Note_on_c, 0, 75, 45
1, 458389, Note_on_c, 0, 67, 36
1, 458546, Note_off_c, 0, 67, 49
1, 458834, Note_on_c, 0, 60, 58
1, 459023, Note_off_c, 0, 75, 64
1, 459029, Note_on_c, 0, 62, 73
1, 459059, Note_off_c, 0, 60, 62
1, 459174, Control_c, 0, 64, 122
1, 459189, Control_c, 0, 64, 115
1, 459204, Control_c, 0, 64, 110
1, 459219, Control_c, 0, 64, 107
1, 459234, Control_c, 0, 64, 103
1, 459248, Control_c, 0, 64, 100
1, 459263, Control_c, 0, 64, 97
1, 459278, Control_c, 0, 64, 95
1, 459293, Control_c, 0, 64, 92
1, 459308, Control_c, 0, 64, 88
1, 459322, Control_c, 0, 64, 84
1, 459337, Control_c, 0, 64, 79
1, 459349, Note_on_c, 0, 82, 53
1, 459350, Note_on_c, 0, 63, 72
1, 459352, Control_c, 0, 64, 74
1, 459363, Note_on_c, 0, 75, 33
1, 459367, Control_c, 0, 64, 68
1, 459381, Control_c, 0, 64, 61
1, 459388, Note_off_c, 0, 62, 60
1, 459396, Control_c, 0, 64, 53
1, 459411, Control_c, 0, 64, 48
1, 459426, Control_c, 0, 64, 44
1, 459441, Control_c, 0, 64, 39
1, 459455, Control_c, 0, 64, 29
1, 459470, Control_c, 0, 64, 0
1, 459701, Control_c, 0, 64, 28
1, 459716, Control_c, 0, 64, 38
1, 459730, Control_c, 0, 64, 45
1, 459745, Control_c, 0, 64, 52
1, 459760, Control_c, 0, 64, 56
1, 459775, Control_c, 0, 64, 58
1, 459790, Control_c, 0, 64, 60
1, 459804, Control_c, 0, 64, 60
1, 459819, Control_c, 0, 64, 61
1, 459835, Control_c, 0, 64, 62
1, 459850, Control_c, 0, 64, 62
1, 459855, Note_off_c, 0, 82, 57
1, 459865, Control_c, 0, 64, 63
1, 459879, Control_c, 0, 64, 64
1, 459881, Note_off_c, 0, 75, 62
1, 459894, Control_c, 0, 64, 65
1, 459909, Control_c, 0, 64, 66
1, 459923, Control_c, 0, 64, 67
1, 459938, Control_c, 0, 64, 68
1, 459943, Note_on_c, 0, 62, 71
1, 459953, Control_c, 0, 64, 69
1, 459968, Control_c, 0, 64, 71
1, 459983, Control_c, 0, 64, 72
1, 459998, Control_c, 0, 64, 74
1, 460004, Note_off_c, 0, 63, 53
1, 460013, Control_c, 0, 64, 76
1, 460028, Control_c, 0, 64, 79
1, 460043, Control_c, 0, 64, 83
1, 460057, Control_c, 0, 64, 88
1, 460072, Control_c, 0, 64, 94
1, 460087, Control_c, 0, 64, 102
1, 460102, Control_c, 0, 64, 116
1, 460117, Control_c, 0, 64, 127
1, 460118, Note_on_c, 0, 60, 78
1, 460144, Note_off_c, 0, 62, 52
1, 460195, Note_off_c, 0, 60, 62
1, 460279, Control_c, 0, 66, 0
1, 460403, Note_on_c, 0, 59, 73
1, 460412, Note_on_c, 0, 74, 65
1, 460415, Note_on_c, 0, 35, 57
1, 460421, Control_c, 0, 64, 108
1, 460423, Note_on_c, 0, 47, 51
1, 460436, Control_c, 0, 64, 83
1, 460442, Note_on_c, 0, 66, 33
1, 460451, Control_c, 0, 64, 66
1, 460466, Control_c, 0, 64, 49
1, 460481, Control_c, 0, 64, 0
1, 460540, Control_c, 0, 66, 127
1, 460642, Control_c, 0, 64, 30
1, 460657, Control_c, 0, 64, 43
1, 460672, Control_c, 0, 64, 54
1, 460686, Control_c, 0, 64, 61
1, 460701, Control_c, 0, 64, 64
1, 460701, Note_off_c, 0, 35, 37
1, 460716, Control_c, 0, 64, 66
1, 460731, Control_c, 0, 64, 68
1, 460745, Control_c, 0, 64, 70
1, 460757, Note_off_c, 0, 47, 57
1, 460760, Control_c, 0, 64, 73
1, 460775, Control_c, 0, 64, 75
1, 460790, Control_c, 0, 64, 78
1, 460805, Control_c, 0, 64, 80
1, 460819, Control_c, 0, 64, 82
1, 460834, Control_c, 0, 64, 85
1, 460849, Control_c, 0, 64, 87
1, 460864, Control_c, 0, 64, 88
1, 460879, Control_c, 0, 64, 89
1, 460893, Control_c, 0, 64, 90
1, 460908, Control_c, 0, 64, 91
1, 460952, Control_c, 0, 64, 91
1, 461015, Note_off_c, 0, 59, 55
1, 461071, Control_c, 0, 64, 91
1, 461078, Note_on_c, 0, 58, 66
1, 461116, Control_c, 0, 64, 89
1, 461131, Control_c, 0, 64, 85
1, 461152, Control_c, 0, 64, 79
1, 461167, Control_c, 0, 64, 72
1, 461183, Control_c, 0, 64, 64
1, 461198, Control_c, 0, 64, 56
1, 461213, Control_c, 0, 64, 47
1, 461228, Control_c, 0, 64, 36
1, 461243, Control_c, 0, 64, 0
1, 461346, Control_c, 0, 64, 40
1, 461361, Control_c, 0, 64, 51
1, 461375, Control_c, 0, 64, 60
1, 461390, Control_c, 0, 64, 63
1, 461405, Control_c, 0, 64, 64
1, 461420, Control_c, 0, 64, 65
1, 461435, Control_c, 0, 64, 67
1, 461450, Control_c, 0, 64, 69
1, 461464, Control_c, 0, 64, 72
1, 461479, Control_c, 0, 64, 73
1, 461494, Control_c, 0, 64, 75
1, 461509, Control_c, 0, 64, 76
1, 461521, Note_on_c, 0, 68, 62
1, 461524, Control_c, 0, 64, 78
1, 461531, Note_on_c, 0, 60, 46
1, 461533, Note_off_c, 0, 58, 57
1, 461539, Control_c, 0, 64, 81
1, 461554, Control_c, 0, 64, 83
1, 461568, Control_c, 0, 64, 85
1, 461583, Control_c, 0, 64, 87
1, 461598, Control_c, 0, 64, 89
1, 461613, Control_c, 0, 64, 91
1, 461619, Note_off_c, 0, 66, 39
1, 461628, Control_c, 0, 64, 93
1, 461631, Note_off_c, 0, 60, 52
1, 461642, Control_c, 0, 64, 96
1, 461655, Note_off_c, 0, 74, 60
1, 461672, Control_c, 0, 64, 99
1, 461701, Control_c, 0, 64, 101
1, 461731, Control_c, 0, 64, 103
1, 461751, Note_on_c, 0, 58, 76
1, 461761, Control_c, 0, 64, 105
1, 461771, Note_off_c, 0, 68, 61
1, 461775, Control_c, 0, 64, 108
1, 461790, Control_c, 0, 64, 110
1, 461805, Control_c, 0, 64, 114
1, 461820, Control_c, 0, 64, 120
1, 461835, Control_c, 0, 64, 127
1, 461936, Note_off_c, 0, 58, 60
1, 462099, Note_on_c, 0, 58, 81
1, 462269, Note_off_c, 0, 58, 55
1, 462310, Note_on_c, 0, 61, 81
1, 462362, Control_c, 0, 66, 0
1, 462569, Control_c, 0, 64, 105
1, 462584, Control_c, 0, 64, 83
1, 462586, Note_on_c, 0, 44, 42
1, 462587, Note_on_c, 0, 32, 55
1, 462590, Note_on_c, 0, 57, 80
1, 462598, Control_c, 0, 64, 65
1, 462613, Control_c, 0, 64, 42
1, 462628, Control_c, 0, 64, 0
1, 462680, Note_off_c, 0, 61, 54
1, 462814, Control_c, 0, 66, 127
1, 462947, Control_c, 0, 64, 34
1, 462962, Control_c, 0, 64, 51
1, 462977, Control_c, 0, 64, 60
1, 462992, Control_c, 0, 64, 63
1, 463007, Control_c, 0, 64, 66
1, 463009, Note_off_c, 0, 32, 52
1, 463021, Control_c, 0, 64, 69
1, 463036, Control_c, 0, 64, 74
1, 463051, Control_c, 0, 64, 78
1, 463066, Note_off_c, 0, 57, 66
1, 463066, Control_c, 0, 64, 84
1, 463081, Control_c, 0, 64, 88
1, 463095, Control_c, 0, 64, 93
1, 463110, Control_c, 0, 64, 97
1, 463115, Note_off_c, 0, 44, 59
1, 463125, Control_c, 0, 64, 101
1, 463140, Control_c, 0, 64, 105
1, 463155, Control_c, 0, 64, 108
1, 463170, Control_c, 0, 64, 111
1, 463199, Control_c, 0, 64, 114
1, 463420, Note_on_c, 0, 65, 56
1, 463488, Control_c, 0, 64, 112
1, 463491, Note_off_c, 0, 65, 59
1, 463494, Note_on_c, 0, 70, 73
1, 463503, Control_c, 0, 64, 110
1, 463518, Control_c, 0, 64, 107
1, 463533, Control_c, 0, 64, 103
1, 463547, Control_c, 0, 64, 99
1, 463562, Control_c, 0, 64, 94
1, 463578, Control_c, 0, 64, 88
1, 463584, Note_on_c, 0, 69, 72
1, 463593, Control_c, 0, 64, 79
1, 463608, Note_on_c, 0, 53, 47
1, 463608, Control_c, 0, 64, 71
1, 463623, Control_c, 0, 64, 63
1, 463638, Control_c, 0, 64, 55
1, 463646, Note_off_c, 0, 70, 54
1, 463652, Control_c, 0, 64, 48
1, 463667, Control_c, 0, 64, 43
1, 463682, Control_c, 0, 64, 39
1, 463697, Control_c, 0, 64, 35
1, 463712, Control_c, 0, 64, 30
1, 463726, Control_c, 0, 64, 0
1, 464037, Control_c, 0, 64, 30
1, 464052, Control_c, 0, 64, 33
1, 464067, Control_c, 0, 64, 35
1, 464082, Control_c, 0, 64, 36
1, 464111, Control_c, 0, 64, 36
1, 464177, Control_c, 0, 64, 37
1, 464455, Note_on_c, 0, 61, 47
1, 464490, Control_c, 0, 64, 36
1, 464623, Control_c, 0, 64, 36
1, 464873, Note_on_c, 0, 70, 62
1, 464941, Control_c, 0, 64, 36
1, 465071, Note_on_c, 0, 72, 76
1, 465113, Note_off_c, 0, 69, 56
1, 465140, Note_off_c, 0, 70, 59
1, 465328, Control_c, 0, 64, 36
1, 465372, Note_on_c, 0, 68, 37
1, 465382, Note_on_c, 0, 73, 77
1, 465446, Control_c, 0, 64, 35
1, 465458, Note_off_c, 0, 72, 56
1, 465520, Control_c, 0, 64, 35
1, 465876, Note_on_c, 0, 72, 59
1, 465930, Note_off_c, 0, 73, 48
1, 466032, Control_c, 0, 64, 35
1, 466046, Control_c, 0, 64, 37
1, 466061, Control_c, 0, 64, 39
1, 466076, Control_c, 0, 64, 45
1, 466091, Control_c, 0, 64, 51
1, 466106, Control_c, 0, 64, 57
1, 466113, Note_off_c, 0, 68, 38
1, 466121, Control_c, 0, 64, 60
1, 466136, Control_c, 0, 64, 61
1, 466150, Control_c, 0, 64, 62
1, 466165, Control_c, 0, 64, 63
1, 466180, Control_c, 0, 64, 65
1, 466195, Control_c, 0, 64, 68
1, 466196, Note_off_c, 0, 72, 58
1, 466203, Note_on_c, 0, 70, 55
1, 466210, Control_c, 0, 64, 71
1, 466225, Control_c, 0, 64, 74
1, 466239, Control_c, 0, 64, 78
1, 466242, Note_off_c, 0, 61, 37
1, 466254, Control_c, 0, 64, 82
1, 466269, Control_c, 0, 64, 85
1, 466282, Note_off_c, 0, 53, 58
1, 466283, Control_c, 0, 64, 89
1, 466298, Control_c, 0, 64, 93
1, 466313, Control_c, 0, 64, 97
1, 466328, Control_c, 0, 64, 102
1, 466343, Control_c, 0, 64, 107
1, 466357, Control_c, 0, 64, 110
1, 466372, Control_c, 0, 64, 114
1, 466395, Control_c, 0, 64, 116
1, 466410, Control_c, 0, 64, 118
1, 466498, Control_c, 0, 64, 120
1, 466528, Control_c, 0, 66, 0
1, 466617, Control_c, 0, 64, 118
1, 466646, Control_c, 0, 64, 112
1, 466661, Control_c, 0, 64, 101
1, 466665, Note_on_c, 0, 69, 57
1, 466666, Note_on_c, 0, 33, 46
1, 466675, Note_on_c, 0, 60, 44
1, 466676, Control_c, 0, 64, 87
1, 466685, Note_on_c, 0, 45, 27
1, 466690, Control_c, 0, 64, 72
1, 466705, Control_c, 0, 64, 58
1, 466720, Control_c, 0, 64, 36
1, 466735, Control_c, 0, 64, 0
1, 466764, Note_off_c, 0, 70, 53
1, 466825, Control_c, 0, 66, 127
1, 467113, Note_off_c, 0, 33, 51
1, 467157, Note_off_c, 0, 45, 37
1, 467331, Note_on_c, 0, 68, 44
1, 467481, Note_off_c, 0, 69, 37
1, 467537, Note_on_c, 0, 49, 48
1, 467662, Note_off_c, 0, 49, 54
1, 467692, Note_on_c, 0, 53, 41
1, 467863, Note_off_c, 0, 53, 48
1, 467879, Note_on_c, 0, 52, 37
1, 467984, Note_off_c, 0, 60, 51
1, 468004, Note_off_c, 0, 68, 56
1, 468705, Note_off_c, 0, 52, 36
1, 469057, Note_on_c, 0, 69, 47
1, 469063, Note_on_c, 0, 60, 26
1, 469692, Note_on_c, 0, 68, 37
1, 469803, Note_off_c, 0, 69, 36
1, 469897, Note_on_c, 0, 49, 40
1, 470056, Note_off_c, 0, 49, 48
1, 470089, Note_on_c, 0, 53, 29
1, 470304, Note_off_c, 0, 53, 35
1, 470318, Note_on_c, 0, 52, 31
1, 470779, Note_off_c, 0, 68, 53
1, 470789, Note_off_c, 0, 60, 40
1, 470791, Note_off_c, 0, 52, 37
1, 470888, Control_c, 0, 66, 0
1, 471555, Control_c, 0, 67, 64
1, 471570, Control_c, 0, 67, 92
1, 471585, Control_c, 0, 67, 122
1, 471600, Control_c, 0, 67, 127
1, 471840, Note_on_c, 0, 68, 38
1, 471843, Note_on_c, 0, 60, 26
1, 471849, Note_on_c, 0, 34, 36
1, 471855, Note_on_c, 0, 46, 21
1, 471889, Control_c, 0, 64, 31
1, 471903, Control_c, 0, 64, 39
1, 471918, Control_c, 0, 64, 46
1, 471933, Control_c, 0, 64, 54
1, 471948, Control_c, 0, 64, 58
1, 471963, Control_c, 0, 64, 60
1, 471977, Control_c, 0, 64, 62
1, 471992, Control_c, 0, 64, 63
1, 472007, Control_c, 0, 64, 64
1, 472022, Control_c, 0, 64, 66
1, 472036, Control_c, 0, 64, 67
1, 472051, Control_c, 0, 64, 70
1, 472066, Control_c, 0, 64, 71
1, 472081, Control_c, 0, 64, 73
1, 472096, Control_c, 0, 64, 74
1, 472110, Control_c, 0, 64, 75
1, 472125, Control_c, 0, 64, 76
1, 472128, Note_off_c, 0, 34, 39
1, 472140, Note_off_c, 0, 46, 36
1, 472140, Control_c, 0, 64, 77
1, 472155, Control_c, 0, 64, 77
1, 472184, Control_c, 0, 64, 78
1, 472228, Control_c, 0, 64, 78
1, 472475, Control_c, 0, 64, 78
1, 472525, Note_on_c, 0, 67, 38
1, 472533, Control_c, 0, 64, 77
1, 472548, Control_c, 0, 64, 77
1, 472564, Control_c, 0, 64, 76
1, 472579, Control_c, 0, 64, 76
1, 472594, Control_c, 0, 64, 75
1, 472608, Control_c, 0, 64, 74
1, 472623, Control_c, 0, 64, 74
1, 472638, Control_c, 0, 64, 73
1, 472652, Control_c, 0, 64, 73
1, 472667, Control_c, 0, 64, 72
1, 472682, Control_c, 0, 64, 72
1, 472697, Control_c, 0, 64, 71
1, 472712, Control_c, 0, 64, 71
1, 472717, Note_off_c, 0, 68, 27
1, 472741, Control_c, 0, 64, 70
1, 472771, Control_c, 0, 64, 70
1, 472816, Control_c, 0, 64, 69
1, 472860, Control_c, 0, 64, 69
1, 472891, Note_on_c, 0, 49, 36
1, 472905, Control_c, 0, 64, 68
1, 472934, Control_c, 0, 64, 68
1, 472964, Control_c, 0, 64, 67
1, 472994, Control_c, 0, 64, 67
1, 473023, Control_c, 0, 64, 66
1, 473038, Control_c, 0, 64, 66
1, 473067, Control_c, 0, 64, 65
1, 473083, Note_off_c, 0, 49, 33
1, 473097, Control_c, 0, 64, 64
1, 473104, Note_on_c, 0, 53, 35
1, 473112, Control_c, 0, 64, 64
1, 473134, Control_c, 0, 64, 63
1, 473179, Control_c, 0, 64, 63
1, 473254, Control_c, 0, 64, 62
1, 473414, Note_off_c, 0, 53, 35
1, 473429, Note_on_c, 0, 52, 32
1, 473431, Control_c, 0, 64, 62
1, 473490, Control_c, 0, 64, 61
1, 473683, Control_c, 0, 64, 61
1, 473702, Note_off_c, 0, 52, 38
1, 473706, Note_off_c, 0, 60, 36
1, 473721, Note_off_c, 0, 67, 35
1, 473772, Control_c, 0, 64, 60
1, 473801, Control_c, 0, 64, 60
1, 473831, Control_c, 0, 64, 59
1, 473846, Control_c, 0, 64, 59
1, 473861, Control_c, 0, 64, 58
1, 473883, Control_c, 0, 64, 57
1, 473898, Control_c, 0, 64, 56
1, 473913, Control_c, 0, 64, 55
1, 473928, Control_c, 0, 64, 54
1, 473958, Control_c, 0, 64, 54
1, 474017, Control_c, 0, 64, 53
1, 474032, Control_c, 0, 64, 53
1, 474060, Control_c, 0, 64, 52
1, 474104, Control_c, 0, 64, 52
1, 475016, Control_c, 0, 64, 52
1, 475031, Control_c, 0, 64, 53
1, 475046, Control_c, 0, 64, 54
1, 475060, Control_c, 0, 64, 55
1, 475075, Control_c, 0, 64, 55
1, 475090, Control_c, 0, 64, 56
1, 475105, Control_c, 0, 64, 56
1, 475120, Control_c, 0, 64, 57
1, 475135, Control_c, 0, 64, 58
1, 475150, Control_c, 0, 64, 59
1, 475165, Control_c, 0, 64, 59
1, 475180, Control_c, 0, 64, 60
1, 475194, Control_c, 0, 64, 61
1, 475209, Control_c, 0, 64, 61
1, 475224, Control_c, 0, 64, 62
1, 475239, Control_c, 0, 64, 63
1, 475253, Control_c, 0, 64, 64
1, 475268, Control_c, 0, 64, 65
1, 475283, Control_c, 0, 64, 66
1, 475298, Control_c, 0, 64, 67
1, 475313, Control_c, 0, 64, 68
1, 475327, Control_c, 0, 64, 69
1, 475342, Control_c, 0, 64, 70
1, 475357, Control_c, 0, 64, 71
1, 475379, Control_c, 0, 64, 72
1, 475394, Control_c, 0, 64, 73
1, 475409, Control_c, 0, 64, 74
1, 475424, Control_c, 0, 64, 75
1, 475439, Control_c, 0, 64, 77
1, 475453, Control_c, 0, 64, 78
1, 475468, Control_c, 0, 64, 80
1, 475483, Control_c, 0, 64, 81
1, 475498, Control_c, 0, 64, 83
1, 475513, Control_c, 0, 64, 84
1, 475527, Control_c, 0, 64, 86
1, 475542, Control_c, 0, 64, 88
1, 475558, Control_c, 0, 64, 90
1, 475573, Control_c, 0, 64, 92
1, 475588, Control_c, 0, 64, 93
1, 475603, Control_c, 0, 64, 95
1, 475618, Control_c, 0, 64, 97
1, 475632, Control_c, 0, 64, 99
1, 475647, Control_c, 0, 64, 101
1, 475662, Control_c, 0, 64, 103
1, 475676, Control_c, 0, 64, 105
1, 475691, Control_c, 0, 64, 108
1, 475721, Control_c, 0, 64, 112
1, 475736, Control_c, 0, 64, 114
1, 475750, Control_c, 0, 64, 118
1, 475765, Control_c, 0, 64, 122
1, 475780, Control_c, 0, 64, 127
1, 475933, Note_on_c, 0, 55, 36
1, 475944, Note_on_c, 0, 35, 35
1, 475946, Note_on_c, 0, 47, 16
1, 476243, Note_off_c, 0, 47, 32
1, 476256, Note_off_c, 0, 35, 38
1, 476341, Note_off_c, 0, 55, 33
1, 477098, Note_on_c, 0, 70, 42
1, 477112, Note_on_c, 0, 63, 27
1, 478071, Note_on_c, 0, 54, 34
1, 478079, Note_on_c, 0, 62, 34
1, 478531, Note_off_c, 0, 62, 43
1, 478786, Note_off_c, 0, 63, 36
1, 478905, Note_off_c, 0, 70, 32
1, 479153, Control_c, 0, 64, 113
1, 479168, Control_c, 0, 64, 105
1, 479178, Note_on_c, 0, 48, 41
1, 479183, Control_c, 0, 64, 99
1, 479187, Note_on_c, 0, 56, 41
1, 479198, Control_c, 0, 64, 92
1, 479213, Control_c, 0, 64, 87
1, 479227, Control_c, 0, 64, 82
1, 479242, Control_c, 0, 64, 78
1, 479257, Control_c, 0, 64, 72
1, 479272, Control_c, 0, 64, 66
1, 479287, Control_c, 0, 64, 61
1, 479302, Control_c, 0, 64, 56
1, 479317, Control_c, 0, 64, 53
1, 479318, Note_off_c, 0, 54, 28
1, 479332, Control_c, 0, 64, 52
1, 479347, Control_c, 0, 64, 51
1, 479362, Control_c, 0, 64, 51
1, 479376, Control_c, 0, 64, 50
1, 479391, Control_c, 0, 64, 49
1, 479406, Control_c, 0, 64, 48
1, 479480, Control_c, 0, 64, 49
1, 479494, Control_c, 0, 64, 52
1, 479509, Control_c, 0, 64, 57
1, 479524, Control_c, 0, 64, 60
1, 479540, Control_c, 0, 64, 63
1, 479555, Control_c, 0, 64, 66
1, 479570, Control_c, 0, 64, 69
1, 479585, Control_c, 0, 64, 73
1, 479599, Control_c, 0, 64, 76
1, 479614, Control_c, 0, 64, 79
1, 479629, Control_c, 0, 64, 82
1, 479643, Control_c, 0, 64, 85
1, 479658, Control_c, 0, 64, 89
1, 479673, Control_c, 0, 64, 94
1, 479688, Control_c, 0, 64, 99
1, 479703, Control_c, 0, 64, 107
1, 479717, Control_c, 0, 64, 120
1, 479732, Control_c, 0, 64, 127
1, 480000, Note_off_c, 0, 48, 34
1, 480244, Note_on_c, 0, 69, 38
1, 480263, Note_on_c, 0, 64, 28
1, 480919, Note_off_c, 0, 56, 38
1, 481255, Note_on_c, 0, 61, 28
1, 481287, Note_on_c, 0, 53, 18
1, 481639, Note_off_c, 0, 61, 41
1, 481755, Control_c, 0, 67, 122
1, 481770, Control_c, 0, 67, 115
1, 481785, Control_c, 0, 67, 109
1, 481800, Control_c, 0, 67, 104
1, 481814, Control_c, 0, 67, 99
1, 481829, Control_c, 0, 67, 94
1, 481833, Note_off_c, 0, 64, 45
1, 481844, Control_c, 0, 67, 87
1, 481859, Control_c, 0, 67, 80
1, 481874, Control_c, 0, 67, 73
1, 481888, Control_c, 0, 67, 68
1, 481903, Control_c, 0, 67, 64
1, 481918, Control_c, 0, 67, 60
1, 481934, Control_c, 0, 67, 56
1, 481944, Note_off_c, 0, 53, 37
1, 481949, Control_c, 0, 67, 53
1, 481964, Control_c, 0, 67, 49
1, 481979, Control_c, 0, 67, 45
1, 481993, Control_c, 0, 67, 41
1, 482008, Control_c, 0, 67, 0
1, 482460, Control_c, 0, 64, 115
1, 482466, Note_on_c, 0, 67, 60
1, 482475, Control_c, 0, 64, 99
1, 482486, Note_on_c, 0, 59, 40
1, 482489, Note_on_c, 0, 55, 29
1, 482490, Control_c, 0, 64, 88
1, 482505, Control_c, 0, 64, 79
1, 482506, Note_on_c, 0, 47, 31
1, 482519, Control_c, 0, 64, 71
1, 482534, Control_c, 0, 64, 64
1, 482549, Control_c, 0, 64, 57
1, 482563, Control_c, 0, 64, 51
1, 482578, Control_c, 0, 64, 48
1, 482593, Control_c, 0, 64, 47
1, 482608, Control_c, 0, 64, 46
1, 482653, Control_c, 0, 64, 47
1, 482668, Control_c, 0, 64, 52
1, 482683, Control_c, 0, 64, 58
1, 482697, Control_c, 0, 64, 63
1, 482712, Control_c, 0, 64, 67
1, 482726, Note_off_c, 0, 69, 37
1, 482727, Control_c, 0, 64, 72
1, 482742, Control_c, 0, 64, 77
1, 482757, Control_c, 0, 64, 82
1, 482772, Control_c, 0, 64, 88
1, 482787, Control_c, 0, 64, 95
1, 482802, Control_c, 0, 64, 104
1, 482817, Control_c, 0, 64, 124
1, 482832, Control_c, 0, 64, 127
1, 482868, Note_off_c, 0, 59, 43
1, 482912, Note_off_c, 0, 47, 41
1, 483165, Control_c, 0, 67, 40
1, 483180, Control_c, 0, 67, 56
1, 483194, Control_c, 0, 67, 71
1, 483209, Control_c, 0, 67, 83
1, 483224, Control_c, 0, 67, 95
1, 483239, Control_c, 0, 67, 107
1, 483254, Control_c, 0, 67, 118
1, 483268, Control_c, 0, 67, 124
1, 483283, Control_c, 0, 67, 127
1, 483461, Note_on_c, 0, 63, 34
1, 483467, Note_on_c, 0, 82, 35
1, 483472, Note_on_c, 0, 70, 29
1, 483493, Note_on_c, 0, 75, 29
1, 483517, Note_off_c, 0, 63, 57
1, 483524, Note_off_c, 0, 70, 47
1, 483544, Note_off_c, 0, 75, 45
1, 483571, Note_off_c, 0, 82, 43
1, 483869, Note_off_c, 0, 55, 40
1, 484077, Control_c, 0, 67, 124
1, 484106, Control_c, 0, 67, 122
1, 484136, Control_c, 0, 67, 120
1, 484195, Control_c, 0, 67, 118
1, 484367, Control_c, 0, 64, 120
1, 484382, Control_c, 0, 64, 103
1, 484396, Control_c, 0, 64, 93
1, 484408, Note_on_c, 0, 66, 52
1, 484411, Control_c, 0, 64, 83
1, 484415, Note_on_c, 0, 62, 30
1, 484423, Note_on_c, 0, 54, 28
1, 484426, Control_c, 0, 64, 76
1, 484440, Control_c, 0, 64, 70
1, 484444, Note_on_c, 0, 74, 33
1, 484455, Control_c, 0, 64, 64
1, 484470, Control_c, 0, 64, 60
1, 484485, Control_c, 0, 64, 57
1, 484500, Control_c, 0, 64, 56
1, 484522, Note_off_c, 0, 67, 44
1, 484559, Control_c, 0, 64, 56
1, 484588, Control_c, 0, 64, 56
1, 484603, Control_c, 0, 64, 58
1, 484618, Control_c, 0, 64, 61
1, 484632, Control_c, 0, 64, 64
1, 484647, Control_c, 0, 64, 69
1, 484647, Control_c, 0, 67, 116
1, 484662, Control_c, 0, 64, 74
1, 484677, Control_c, 0, 64, 78
1, 484677, Control_c, 0, 67, 114
1, 484692, Control_c, 0, 64, 81
1, 484707, Control_c, 0, 64, 84
1, 484707, Control_c, 0, 67, 111
1, 484721, Control_c, 0, 64, 88
1, 484736, Control_c, 0, 64, 92
1, 484736, Control_c, 0, 67, 109
1, 484751, Control_c, 0, 64, 98
1, 484766, Control_c, 0, 64, 104
1, 484766, Control_c, 0, 67, 107
1, 484781, Control_c, 0, 64, 113
1, 484796, Control_c, 0, 64, 127
1, 484796, Control_c, 0, 67, 105
1, 484823, Note_off_c, 0, 74, 43
1, 484826, Control_c, 0, 67, 103
1, 484870, Control_c, 0, 67, 100
1, 484900, Control_c, 0, 67, 98
1, 484905, Note_off_c, 0, 62, 41
1, 484929, Control_c, 0, 67, 94
1, 484944, Control_c, 0, 67, 90
1, 484958, Control_c, 0, 67, 84
1, 484973, Control_c, 0, 67, 77
1, 484988, Control_c, 0, 67, 71
1, 485003, Control_c, 0, 67, 68
1, 485018, Control_c, 0, 67, 66
1, 485032, Control_c, 0, 67, 65
1, 485047, Control_c, 0, 67, 64
1, 485077, Control_c, 0, 67, 63
1, 485092, Control_c, 0, 67, 62
1, 485129, Control_c, 0, 67, 61
1, 485160, Control_c, 0, 67, 60
1, 485322, Control_c, 0, 67, 61
1, 485351, Control_c, 0, 67, 62
1, 485366, Control_c, 0, 67, 62
1, 485425, Control_c, 0, 67, 63
1, 485485, Control_c, 0, 67, 64
1, 485514, Control_c, 0, 67, 64
1, 485523, Note_on_c, 0, 68, 64
1, 485529, Control_c, 0, 64, 106
1, 485537, Note_on_c, 0, 48, 48
1, 485537, Note_on_c, 0, 60, 45
1, 485541, Note_on_c, 0, 56, 46
1, 485544, Control_c, 0, 64, 95
1, 485544, Control_c, 0, 67, 65
1, 485559, Control_c, 0, 64, 86
1, 485574, Control_c, 0, 64, 77
1, 485588, Control_c, 0, 64, 68
1, 485588, Control_c, 0, 67, 66
1, 485603, Control_c, 0, 64, 61
1, 485618, Control_c, 0, 64, 54
1, 485633, Control_c, 0, 64, 49
1, 485636, Note_off_c, 0, 54, 37
1, 485648, Control_c, 0, 64, 46
1, 485662, Control_c, 0, 64, 45
1, 485665, Note_off_c, 0, 66, 56
1, 485707, Control_c, 0, 64, 46
1, 485722, Control_c, 0, 64, 50
1, 485736, Control_c, 0, 64, 56
1, 485751, Control_c, 0, 64, 61
1, 485766, Control_c, 0, 64, 65
1, 485780, Control_c, 0, 64, 69
1, 485795, Control_c, 0, 64, 73
1, 485810, Control_c, 0, 64, 76
1, 485825, Control_c, 0, 64, 80
1, 485840, Control_c, 0, 64, 84
1, 485862, Control_c, 0, 64, 89
1, 485877, Control_c, 0, 64, 94
1, 485892, Control_c, 0, 64, 101
1, 485904, Note_off_c, 0, 60, 54
1, 485906, Control_c, 0, 64, 109
1, 485921, Control_c, 0, 64, 127
1, 485943, Note_off_c, 0, 48, 36
1, 486072, Control_c, 0, 67, 66
1, 486131, Control_c, 0, 67, 67
1, 486175, Control_c, 0, 67, 68
1, 486249, Control_c, 0, 67, 68
1, 486264, Control_c, 0, 67, 69
1, 486279, Control_c, 0, 67, 70
1, 486293, Control_c, 0, 67, 71
1, 486308, Control_c, 0, 67, 71
1, 486323, Control_c, 0, 67, 72
1, 486338, Control_c, 0, 67, 73
1, 486353, Control_c, 0, 67, 73
1, 486367, Control_c, 0, 67, 75
1, 486382, Control_c, 0, 67, 75
1, 486397, Control_c, 0, 67, 76
1, 486412, Control_c, 0, 67, 77
1, 486427, Control_c, 0, 67, 78
1, 486441, Control_c, 0, 67, 79
1, 486456, Control_c, 0, 67, 80
1, 486471, Control_c, 0, 67, 81
1, 486486, Control_c, 0, 67, 82
1, 486501, Control_c, 0, 67, 83
1, 486516, Control_c, 0, 67, 85
1, 486530, Control_c, 0, 67, 86
1, 486545, Control_c, 0, 67, 87
1, 486560, Control_c, 0, 67, 88
1, 486575, Control_c, 0, 67, 89
1, 486590, Control_c, 0, 67, 91
1, 486607, Note_on_c, 0, 81, 44
1, 486611, Control_c, 0, 67, 92
1, 486614, Note_on_c, 0, 76, 34
1, 486626, Control_c, 0, 67, 94
1, 486628, Note_on_c, 0, 69, 32
1, 486632, Note_on_c, 0, 64, 33
1, 486641, Control_c, 0, 67, 95
1, 486656, Control_c, 0, 67, 96
1, 486686, Control_c, 0, 67, 98
1, 486701, Control_c, 0, 67, 100
1, 486716, Control_c, 0, 67, 102
1, 486731, Control_c, 0, 67, 105
1, 486746, Control_c, 0, 67, 107
1, 486748, Note_off_c, 0, 69, 37
1, 486754, Note_off_c, 0, 64, 53
1, 486761, Control_c, 0, 67, 113
1, 486766, Note_off_c, 0, 81, 55
1, 486776, Control_c, 0, 67, 120
1, 486790, Control_c, 0, 67, 126
1, 486815, Note_off_c, 0, 76, 43
1, 487656, Control_c, 0, 64, 110
1, 487658, Note_on_c, 0, 65, 41
1, 487664, Note_on_c, 0, 53, 40
1, 487671, Control_c, 0, 64, 95
1, 487682, Note_on_c, 0, 61, 27
1, 487686, Control_c, 0, 64, 85
1, 487693, Note_on_c, 0, 73, 32
1, 487701, Control_c, 0, 64, 76
1, 487716, Control_c, 0, 64, 67
1, 487730, Control_c, 0, 64, 60
1, 487745, Control_c, 0, 64, 55
1, 487756, Note_off_c, 0, 56, 51
1, 487760, Control_c, 0, 64, 51
1, 487774, Control_c, 0, 64, 50
1, 487789, Control_c, 0, 64, 49
1, 487789, Control_c, 0, 67, 124
1, 487819, Control_c, 0, 64, 50
1, 487828, Note_off_c, 0, 68, 30
1, 487834, Control_c, 0, 64, 52
1, 487848, Control_c, 0, 64, 57
1, 487863, Control_c, 0, 64, 61
1, 487863, Control_c, 0, 67, 122
1, 487878, Control_c, 0, 64, 65
1, 487893, Control_c, 0, 64, 69
1, 487908, Control_c, 0, 64, 74
1, 487908, Control_c, 0, 67, 120
1, 487923, Control_c, 0, 64, 78
1, 487938, Control_c, 0, 64, 81
1, 487938, Control_c, 0, 67, 118
1, 487953, Control_c, 0, 64, 86
1, 487968, Control_c, 0, 64, 92
1, 487968, Control_c, 0, 67, 116
1, 487982, Control_c, 0, 64, 98
1, 487987, Note_off_c, 0, 61, 41
1, 487997, Control_c, 0, 64, 106
1, 488012, Control_c, 0, 64, 124
1, 488012, Control_c, 0, 67, 114
1, 488027, Control_c, 0, 64, 127
1, 488027, Note_off_c, 0, 53, 52
1, 488042, Control_c, 0, 67, 112
1, 488086, Control_c, 0, 67, 109
1, 488123, Control_c, 0, 67, 107
1, 488152, Control_c, 0, 67, 104
1, 488167, Control_c, 0, 67, 102
1, 488173, Note_off_c, 0, 73, 55
1, 488197, Control_c, 0, 67, 100
1, 488227, Control_c, 0, 67, 96
1, 488242, Control_c, 0, 67, 92
1, 488243, Note_off_c, 0, 65, 62
1, 488256, Control_c, 0, 67, 87
1, 488271, Control_c, 0, 67, 79
1, 488286, Control_c, 0, 67, 70
1, 488301, Control_c, 0, 67, 62
1, 488315, Control_c, 0, 67, 57
1, 488331, Control_c, 0, 67, 53
1, 488346, Control_c, 0, 67, 51
1, 488361, Control_c, 0, 67, 50
1, 488420, Control_c, 0, 67, 51
1, 488435, Control_c, 0, 67, 52
1, 488438, Note_on_c, 0, 35, 54
1, 488450, Control_c, 0, 67, 53
1, 488465, Control_c, 0, 67, 53
1, 488479, Control_c, 0, 67, 54
1, 488494, Control_c, 0, 64, 87
1, 488509, Control_c, 0, 64, 73
1, 488524, Control_c, 0, 64, 66
1, 488539, Control_c, 0, 64, 65
1, 488553, Control_c, 0, 64, 66
1, 488564, Note_on_c, 0, 47, 38
1, 488568, Control_c, 0, 64, 69
1, 488576, Note_on_c, 0, 55, 56
1, 488583, Control_c, 0, 64, 76
1, 488583, Control_c, 0, 67, 53
1, 488597, Control_c, 0, 64, 82
1, 488597, Control_c, 0, 67, 53
1, 488612, Control_c, 0, 64, 87
1, 488612, Control_c, 0, 67, 52
1, 488627, Control_c, 0, 64, 93
1, 488627, Control_c, 0, 67, 51
1, 488642, Control_c, 0, 64, 100
1, 488642, Control_c, 0, 67, 51
1, 488644, Note_off_c, 0, 35, 37
1, 488657, Control_c, 0, 64, 111
1, 488657, Control_c, 0, 67, 49
1, 488659, Note_off_c, 0, 55, 55
1, 488671, Control_c, 0, 64, 127
1, 488671, Control_c, 0, 67, 49
1, 488680, Note_off_c, 0, 47, 58
1, 488686, Control_c, 0, 67, 48
1, 488695, Note_on_c, 0, 59, 56
1, 488746, Control_c, 0, 67, 47
1, 488761, Control_c, 0, 67, 47
1, 488763, Note_off_c, 0, 59, 57
1, 488775, Control_c, 0, 67, 46
1, 488800, Note_on_c, 0, 67, 58
1, 488805, Control_c, 0, 67, 45
1, 488820, Control_c, 0, 67, 45
1, 488853, Note_off_c, 0, 67, 62
1, 488857, Control_c, 0, 67, 44
1, 488872, Control_c, 0, 67, 43
1, 488901, Control_c, 0, 67, 43
1, 489035, Control_c, 0, 67, 42
1, 489050, Control_c, 0, 67, 41
1, 489072, Note_on_c, 0, 79, 80
1, 489090, Note_on_c, 0, 67, 45
1, 489094, Note_on_c, 0, 71, 51
1, 489094, Control_c, 0, 67, 41
1, 489098, Note_on_c, 0, 59, 33
1, 489109, Control_c, 0, 67, 39
1, 489125, Control_c, 0, 67, 0
1, 489293, Note_off_c, 0, 59, 41
1, 489330, Note_off_c, 0, 71, 38
1, 490068, Note_on_c, 0, 82, 49
1, 490076, Note_on_c, 0, 70, 36
1, 490095, Note_on_c, 0, 75, 30
1, 490096, Note_on_c, 0, 63, 38
1, 490155, Note_off_c, 0, 70, 50
1, 490159, Note_off_c, 0, 63, 52
1, 490163, Note_off_c, 0, 75, 40
1, 490213, Note_off_c, 0, 82, 58
1, 490329, Note_off_c, 0, 67, 58
1, 490427, Note_off_c, 0, 79, 56
1, 490976, Note_on_c, 0, 78, 65
1, 490994, Note_on_c, 0, 62, 40
1, 490995, Note_on_c, 0, 54, 38
1, 490996, Note_on_c, 0, 66, 47
1, 491008, Control_c, 0, 64, 105
1, 491009, Note_on_c, 0, 74, 42
1, 491023, Control_c, 0, 64, 91
1, 491038, Control_c, 0, 64, 80
1, 491053, Control_c, 0, 64, 73
1, 491067, Control_c, 0, 64, 69
1, 491082, Control_c, 0, 64, 67
1, 491104, Control_c, 0, 64, 66
1, 491178, Control_c, 0, 64, 67
1, 491193, Control_c, 0, 64, 70
1, 491208, Control_c, 0, 64, 74
1, 491223, Control_c, 0, 64, 79
1, 491238, Control_c, 0, 64, 84
1, 491253, Control_c, 0, 64, 88
1, 491268, Control_c, 0, 64, 93
1, 491282, Control_c, 0, 64, 99
1, 491297, Control_c, 0, 64, 106
1, 491312, Control_c, 0, 64, 115
1, 491326, Control_c, 0, 64, 127
1, 491519, Note_off_c, 0, 62, 32
1, 492008, Note_on_c, 0, 68, 52
1, 492022, Note_on_c, 0, 56, 40
1, 492022, Note_on_c, 0, 60, 39
1, 492024, Note_on_c, 0, 48, 48
1, 492031, Control_c, 0, 64, 97
1, 492046, Control_c, 0, 64, 83
1, 492060, Control_c, 0, 64, 69
1, 492075, Control_c, 0, 64, 60
1, 492090, Control_c, 0, 64, 52
1, 492105, Control_c, 0, 64, 47
1, 492120, Control_c, 0, 64, 43
1, 492123, Note_off_c, 0, 54, 49
1, 492135, Control_c, 0, 64, 41
1, 492149, Control_c, 0, 64, 40
1, 492194, Control_c, 0, 64, 43
1, 492209, Control_c, 0, 64, 48
1, 492223, Control_c, 0, 64, 56
1, 492238, Control_c, 0, 64, 62
1, 492253, Control_c, 0, 64, 67
1, 492267, Control_c, 0, 64, 72
1, 492282, Control_c, 0, 64, 77
1, 492297, Control_c, 0, 64, 81
1, 492312, Control_c, 0, 64, 86
1, 492327, Note_off_c, 0, 48, 35
1, 492328, Control_c, 0, 64, 93
1, 492341, Note_off_c, 0, 56, 59
1, 492343, Control_c, 0, 64, 102
1, 492358, Control_c, 0, 64, 120
1, 492371, Note_off_c, 0, 66, 55
1, 492372, Control_c, 0, 64, 127
1, 492393, Note_off_c, 0, 60, 37
1, 492468, Note_off_c, 0, 68, 36
1, 492529, Note_off_c, 0, 74, 42
1, 492660, Note_off_c, 0, 78, 58
1, 492934, Note_on_c, 0, 81, 65
1, 492956, Note_on_c, 0, 69, 35
1, 492957, Note_on_c, 0, 64, 37
1, 493003, Note_on_c, 0, 76, 6
1, 493059, Note_off_c, 0, 69, 46
1, 493158, Note_off_c, 0, 64, 44
1, 493223, Note_off_c, 0, 81, 57
1, 493390, Note_on_c, 0, 78, 78
1, 493395, Note_on_c, 0, 66, 59
1, 493481, Note_off_c, 0, 76, 38
1, 493701, Note_off_c, 0, 66, 38
1, 493779, Note_off_c, 0, 78, 55
1, 493976, Note_on_c, 0, 77, 84
1, 493982, Note_on_c, 0, 61, 44
1, 493987, Note_on_c, 0, 53, 38
1, 493990, Note_on_c, 0, 73, 61
1, 493999, Note_on_c, 0, 65, 52
1, 494018, Control_c, 0, 64, 101
1, 494033, Control_c, 0, 64, 81
1, 494048, Control_c, 0, 64, 68
1, 494063, Control_c, 0, 64, 59
1, 494078, Control_c, 0, 64, 54
1, 494114, Control_c, 0, 64, 56
1, 494129, Control_c, 0, 64, 60
1, 494144, Control_c, 0, 64, 63
1, 494159, Control_c, 0, 64, 68
1, 494174, Control_c, 0, 64, 74
1, 494189, Control_c, 0, 64, 81
1, 494204, Control_c, 0, 64, 88
1, 494218, Control_c, 0, 64, 95
1, 494220, Note_off_c, 0, 61, 62
1, 494233, Control_c, 0, 64, 104
1, 494248, Control_c, 0, 64, 127
1, 494295, Note_off_c, 0, 53, 57
1, 494409, Note_off_c, 0, 65, 51
1, 494459, Note_off_c, 0, 73, 58
1, 494825, Note_on_c, 0, 35, 62
1, 494848, Control_c, 0, 64, 102
1, 494863, Control_c, 0, 64, 81
1, 494878, Control_c, 0, 64, 68
1, 494893, Control_c, 0, 64, 59
1, 494908, Control_c, 0, 64, 54
1, 494937, Control_c, 0, 64, 57
1, 494952, Control_c, 0, 64, 61
1, 494964, Note_off_c, 0, 35, 59
1, 494967, Control_c, 0, 64, 64
1, 494982, Control_c, 0, 64, 68
1, 494986, Note_on_c, 0, 47, 57
1, 494997, Control_c, 0, 64, 74
1, 495012, Control_c, 0, 64, 80
1, 495026, Control_c, 0, 64, 82
1, 495041, Control_c, 0, 64, 85
1, 495056, Control_c, 0, 64, 88
1, 495071, Control_c, 0, 64, 92
1, 495080, Note_off_c, 0, 47, 61
1, 495086, Control_c, 0, 64, 95
1, 495100, Control_c, 0, 64, 97
1, 495115, Control_c, 0, 64, 99
1, 495160, Control_c, 0, 64, 101
1, 495259, Note_on_c, 0, 55, 70
1, 495264, Note_on_c, 0, 73, 54
1, 495278, Control_c, 0, 64, 99
1, 495286, Note_on_c, 0, 64, 35
1, 495292, Control_c, 0, 64, 93
1, 495307, Control_c, 0, 64, 84
1, 495322, Control_c, 0, 64, 72
1, 495337, Control_c, 0, 64, 65
1, 495352, Control_c, 0, 64, 60
1, 495366, Control_c, 0, 64, 59
1, 495396, Control_c, 0, 64, 60
1, 495411, Control_c, 0, 64, 62
1, 495426, Control_c, 0, 64, 65
1, 495441, Control_c, 0, 64, 70
1, 495456, Control_c, 0, 64, 75
1, 495458, Note_off_c, 0, 77, 52
1, 495471, Control_c, 0, 64, 78
1, 495485, Control_c, 0, 64, 79
1, 495500, Control_c, 0, 64, 80
1, 495515, Control_c, 0, 64, 82
1, 495530, Control_c, 0, 64, 85
1, 495533, Note_off_c, 0, 64, 46
1, 495545, Control_c, 0, 64, 87
1, 495560, Control_c, 0, 64, 88
1, 495575, Control_c, 0, 64, 89
1, 495597, Control_c, 0, 64, 90
1, 495612, Control_c, 0, 64, 90
1, 495627, Control_c, 0, 64, 91
1, 495642, Control_c, 0, 64, 91
1, 495701, Control_c, 0, 64, 92
1, 495802, Note_on_c, 0, 79, 53
1, 495812, Note_on_c, 0, 70, 41
1, 495923, Control_c, 0, 64, 91
1, 495997, Control_c, 0, 67, 39
1, 496012, Control_c, 0, 67, 53
1, 496027, Control_c, 0, 67, 62
1, 496042, Control_c, 0, 67, 69
1, 496057, Control_c, 0, 67, 73
1, 496071, Control_c, 0, 67, 76
1, 496086, Control_c, 0, 67, 79
1, 496101, Control_c, 0, 67, 81
1, 496115, Control_c, 0, 67, 84
1, 496130, Control_c, 0, 67, 88
1, 496145, Control_c, 0, 67, 92
1, 496160, Control_c, 0, 67, 94
1, 496189, Control_c, 0, 64, 91
1, 496249, Control_c, 0, 64, 90
1, 496264, Control_c, 0, 64, 90
1, 496278, Control_c, 0, 64, 89
1, 496293, Control_c, 0, 64, 88
1, 496308, Control_c, 0, 64, 85
1, 496309, Control_c, 0, 67, 93
1, 496314, Note_on_c, 0, 75, 51
1, 496316, Note_on_c, 0, 54, 50
1, 496324, Control_c, 0, 64, 81
1, 496328, Note_on_c, 0, 69, 33
1, 496346, Control_c, 0, 64, 76
1, 496346, Control_c, 0, 67, 92
1, 496361, Control_c, 0, 64, 72
1, 496376, Control_c, 0, 64, 67
1, 496391, Control_c, 0, 64, 63
1, 496406, Control_c, 0, 64, 60
1, 496420, Control_c, 0, 64, 58
1, 496435, Control_c, 0, 64, 57
1, 496445, Note_off_c, 0, 70, 32
1, 496450, Control_c, 0, 64, 55
1, 496450, Control_c, 0, 67, 92
1, 496465, Control_c, 0, 64, 55
1, 496496, Note_off_c, 0, 73, 28
1, 496499, Note_off_c, 0, 55, 52
1, 496500, Note_off_c, 0, 79, 40
1, 496509, Control_c, 0, 67, 91
1, 496539, Control_c, 0, 67, 90
1, 496568, Control_c, 0, 64, 56
1, 496583, Control_c, 0, 64, 58
1, 496583, Control_c, 0, 67, 90
1, 496598, Control_c, 0, 64, 61
1, 496613, Control_c, 0, 64, 64
1, 496627, Control_c, 0, 64, 67
1, 496642, Control_c, 0, 64, 70
1, 496657, Control_c, 0, 64, 75
1, 496657, Control_c, 0, 67, 89
1, 496672, Control_c, 0, 64, 77
1, 496687, Control_c, 0, 64, 79
1, 496702, Control_c, 0, 64, 82
1, 496702, Control_c, 0, 67, 88
1, 496717, Control_c, 0, 64, 84
1, 496732, Control_c, 0, 64, 87
1, 496732, Control_c, 0, 67, 88
1, 496746, Control_c, 0, 64, 91
1, 496761, Control_c, 0, 64, 94
1, 496776, Control_c, 0, 64, 96
1, 496791, Control_c, 0, 64, 98
1, 496820, Control_c, 0, 64, 101
1, 496850, Control_c, 0, 64, 103
1, 496924, Control_c, 0, 64, 105
1, 496938, Control_c, 0, 67, 87
1, 496940, Note_off_c, 0, 69, 52
1, 497109, Control_c, 0, 67, 88
1, 497140, Control_c, 0, 67, 88
1, 497155, Control_c, 0, 67, 89
1, 497184, Control_c, 0, 67, 90
1, 497214, Control_c, 0, 67, 90
1, 497258, Control_c, 0, 67, 91
1, 497347, Control_c, 0, 67, 92
1, 497376, Control_c, 0, 67, 92
1, 497406, Control_c, 0, 67, 93
1, 497421, Control_c, 0, 64, 103
1, 497421, Control_c, 0, 67, 94
1, 497436, Control_c, 0, 64, 98
1, 497436, Control_c, 0, 67, 94
1, 497446, Note_on_c, 0, 56, 49
1, 497450, Control_c, 0, 64, 92
1, 497465, Control_c, 0, 64, 84
1, 497480, Control_c, 0, 64, 78
1, 497480, Control_c, 0, 67, 95
1, 497495, Control_c, 0, 64, 72
1, 497510, Control_c, 0, 64, 67
1, 497510, Control_c, 0, 67, 96
1, 497524, Control_c, 0, 64, 64
1, 497539, Control_c, 0, 64, 63
1, 497569, Note_off_c, 0, 54, 52
1, 497569, Control_c, 0, 64, 64
1, 497584, Control_c, 0, 64, 65
1, 497599, Control_c, 0, 64, 68
1, 497614, Control_c, 0, 64, 72
1, 497629, Control_c, 0, 64, 76
1, 497643, Control_c, 0, 64, 78
1, 497650, Note_off_c, 0, 75, 54
1, 497658, Control_c, 0, 64, 80
1, 497673, Control_c, 0, 64, 82
1, 497687, Control_c, 0, 64, 85
1, 497702, Control_c, 0, 64, 88
1, 497717, Control_c, 0, 64, 91
1, 497732, Control_c, 0, 64, 94
1, 497747, Control_c, 0, 64, 96
1, 497747, Control_c, 0, 67, 98
1, 497761, Control_c, 0, 64, 99
1, 497776, Control_c, 0, 64, 102
1, 497784, Note_on_c, 0, 66, 47
1, 497791, Control_c, 0, 64, 105
1, 497791, Control_c, 0, 67, 100
1, 497801, Note_on_c, 0, 60, 42
1, 497806, Control_c, 0, 64, 108
1, 497821, Control_c, 0, 64, 113
1, 497843, Control_c, 0, 64, 118
1, 497858, Control_c, 0, 64, 127
1, 497858, Control_c, 0, 67, 113
1, 497871, Note_off_c, 0, 60, 59
1, 497873, Control_c, 0, 67, 127
1, 497954, Note_off_c, 0, 66, 62
1, 498109, Note_on_c, 0, 77, 55
1, 498127, Note_on_c, 0, 71, 27
1, 498437, Control_c, 0, 64, 124
1, 498452, Control_c, 0, 64, 116
1, 498466, Control_c, 0, 64, 108
1, 498469, Note_on_c, 0, 53, 39
1, 498470, Note_on_c, 0, 68, 31
1, 498474, Note_on_c, 0, 74, 49
1, 498481, Control_c, 0, 64, 99
1, 498488, Note_off_c, 0, 71, 40
1, 498496, Control_c, 0, 64, 91
1, 498510, Control_c, 0, 64, 82
1, 498525, Control_c, 0, 64, 73
1, 498540, Control_c, 0, 64, 65
1, 498555, Control_c, 0, 64, 59
1, 498570, Control_c, 0, 64, 54
1, 498578, Note_off_c, 0, 77, 59
1, 498592, Control_c, 0, 64, 52
1, 498636, Control_c, 0, 64, 53
1, 498651, Control_c, 0, 64, 56
1, 498652, Note_off_c, 0, 56, 38
1, 498666, Control_c, 0, 64, 60
1, 498681, Control_c, 0, 64, 64
1, 498696, Control_c, 0, 64, 69
1, 498711, Control_c, 0, 64, 73
1, 498726, Control_c, 0, 64, 77
1, 498741, Control_c, 0, 64, 81
1, 498756, Control_c, 0, 64, 85
1, 498771, Control_c, 0, 64, 90
1, 498786, Control_c, 0, 64, 97
1, 498801, Control_c, 0, 64, 108
1, 498815, Control_c, 0, 64, 127
1, 498950, Note_off_c, 0, 53, 57
1, 499131, Note_off_c, 0, 74, 30
1, 499201, Control_c, 0, 67, 125
1, 499230, Control_c, 0, 67, 123
1, 499262, Note_off_c, 0, 68, 49
1, 499274, Control_c, 0, 67, 120
1, 499319, Control_c, 0, 67, 117
1, 499341, Control_c, 0, 67, 113
1, 499356, Control_c, 0, 67, 109
1, 499371, Control_c, 0, 67, 105
1, 499386, Control_c, 0, 67, 98
1, 499401, Control_c, 0, 67, 88
1, 499415, Control_c, 0, 67, 77
1, 499430, Control_c, 0, 67, 66
1, 499445, Control_c, 0, 67, 52
1, 499460, Control_c, 0, 67, 41
1, 499474, Control_c, 0, 67, 0
1, 499721, Note_on_c, 0, 56, 64
1, 499726, Control_c, 0, 64, 109
1, 499739, Note_on_c, 0, 36, 44
1, 499741, Control_c, 0, 64, 84
1, 499744, Note_on_c, 0, 48, 47
1, 499755, Control_c, 0, 64, 69
1, 499770, Control_c, 0, 64, 60
1, 499785, Control_c, 0, 64, 56
1, 499800, Control_c, 0, 64, 57
1, 499815, Control_c, 0, 64, 61
1, 499829, Control_c, 0, 64, 66
1, 499844, Control_c, 0, 64, 72
1, 499859, Control_c, 0, 64, 81
1, 499874, Control_c, 0, 64, 88
1, 499888, Control_c, 0, 64, 96
1, 499903, Control_c, 0, 64, 108
1, 499918, Control_c, 0, 64, 127
1, 499952, Note_off_c, 0, 56, 60
1, 499992, Note_off_c, 0, 36, 34
1, 500064, Note_off_c, 0, 48, 36
1, 500334, Note_on_c, 0, 76, 57
1, 500464, Note_off_c, 0, 76, 63
1, 500478, Note_on_c, 0, 77, 73
1, 500583, Note_on_c, 0, 78, 88
1, 500596, Note_off_c, 0, 77, 56
1, 500727, Note_on_c, 0, 80, 85
1, 500730, Note_on_c, 0, 82, 86
1, 500735, Note_on_c, 0, 71, 58
1, 500741, Note_off_c, 0, 78, 61
1, 500755, Note_on_c, 0, 64, 41
1, 500885, Note_off_c, 0, 64, 53
1, 500901, Note_off_c, 0, 71, 48
1, 501060, Note_on_c, 0, 78, 68
1, 501272, Note_on_c, 0, 77, 63
1, 501272, Note_off_c, 0, 78, 60
1, 501434, Note_off_c, 0, 77, 53
1, 501440, Note_on_c, 0, 76, 67
1, 501474, Note_off_c, 0, 82, 54
1, 501475, Note_off_c, 0, 80, 59
1, 501536, Note_off_c, 0, 76, 61
1, 501650, Note_on_c, 0, 55, 32
1, 501653, Note_on_c, 0, 63, 43
1, 501659, Note_on_c, 0, 76, 60
1, 501823, Note_off_c, 0, 63, 45
1, 501859, Note_on_c, 0, 75, 58
1, 501907, Note_off_c, 0, 76, 44
1, 501938, Note_off_c, 0, 55, 41
1, 502040, Note_off_c, 0, 75, 60
1, 502049, Note_on_c, 0, 74, 58
1, 502234, Note_on_c, 0, 73, 56
1, 502267, Note_off_c, 0, 74, 40
1, 502486, Note_on_c, 0, 72, 46
1, 502489, Note_on_c, 0, 57, 35
1, 502493, Note_on_c, 0, 49, 36
1, 502499, Control_c, 0, 64, 124
1, 502513, Control_c, 0, 64, 91
1, 502528, Control_c, 0, 64, 75
1, 502538, Note_off_c, 0, 73, 39
1, 502543, Control_c, 0, 64, 64
1, 502557, Control_c, 0, 64, 57
1, 502572, Control_c, 0, 64, 54
1, 502587, Control_c, 0, 64, 54
1, 502601, Control_c, 0, 64, 54
1, 502616, Control_c, 0, 64, 56
1, 502631, Control_c, 0, 64, 59
1, 502646, Control_c, 0, 64, 63
1, 502661, Control_c, 0, 64, 69
1, 502675, Control_c, 0, 64, 77
1, 502690, Control_c, 0, 64, 84
1, 502706, Control_c, 0, 64, 88
1, 502721, Control_c, 0, 64, 95
1, 502736, Control_c, 0, 64, 102
1, 502751, Control_c, 0, 64, 115
1, 502766, Control_c, 0, 64, 127
1, 502900, Note_off_c, 0, 49, 35
1, 502901, Note_on_c, 0, 75, 54
1, 502920, Note_off_c, 0, 72, 54
1, 502946, Note_off_c, 0, 57, 41
1, 503047, Note_on_c, 0, 76, 75
1, 503047, Note_off_c, 0, 75, 64
1, 503162, Note_on_c, 0, 77, 88
1, 503173, Note_off_c, 0, 76, 58
1, 503306, Note_on_c, 0, 80, 85
1, 503309, Note_on_c, 0, 65, 38
1, 503309, Note_on_c, 0, 70, 56
1, 503312, Note_on_c, 0, 79, 75
1, 503339, Note_off_c, 0, 77, 62
1, 503437, Note_off_c, 0, 65, 51
1, 503453, Note_off_c, 0, 70, 38
1, 503623, Note_on_c, 0, 77, 70
1, 503781, Note_off_c, 0, 79, 55
1, 503829, Note_on_c, 0, 76, 71
1, 503853, Note_off_c, 0, 77, 63
1, 503886, Note_off_c, 0, 80, 62
1, 503996, Note_on_c, 0, 75, 80
1, 504034, Note_off_c, 0, 76, 63
1, 504121, Note_off_c, 0, 75, 63
1, 504181, Note_on_c, 0, 75, 74
1, 504187, Note_on_c, 0, 54, 38
1, 504192, Note_on_c, 0, 62, 38
1, 504292, Note_off_c, 0, 62, 51
1, 504409, Note_off_c, 0, 54, 31
1, 504413, Note_on_c, 0, 74, 85
1, 504580, Note_on_c, 0, 73, 86
1, 504610, Note_off_c, 0, 75, 0
1, 504634, Note_off_c, 0, 74, 51
1, 504675, Poly_aftertouch_c, 0, 75, 0
1, 504738, Note_on_c, 0, 72, 87
1, 504767, Note_off_c, 0, 73, 64
1, 504795, Note_on_c, 0, 36, 62
1, 504804, Note_on_c, 0, 48, 64
1, 504804, Control_c, 0, 64, 75
1, 504819, Control_c, 0, 64, 49
1, 504834, Control_c, 0, 64, 37
1, 504849, Control_c, 0, 64, 39
1, 504858, Note_off_c, 0, 36, 62
1, 504863, Control_c, 0, 64, 51
1, 504878, Control_c, 0, 64, 65
1, 504893, Control_c, 0, 64, 76
1, 504907, Note_off_c, 0, 48, 64
1, 504908, Control_c, 0, 64, 91
1, 504923, Control_c, 0, 64, 107
1, 504938, Control_c, 0, 64, 127
1, 504984, Note_on_c, 0, 71, 83
1, 504991, Note_on_c, 0, 56, 69
1, 505007, Note_off_c, 0, 72, 56
1, 505037, Note_off_c, 0, 56, 49
1, 505120, Note_off_c, 0, 71, 65
1, 505293, Note_on_c, 0, 79, 80
1, 505462, Note_on_c, 0, 81, 92
1, 505479, Note_off_c, 0, 79, 58
1, 505579, Note_on_c, 0, 83, 98
1, 505602, Note_off_c, 0, 81, 62
1, 505662, Note_off_c, 0, 83, 60
1, 505682, Note_on_c, 0, 84, 96
1, 505767, Note_off_c, 0, 84, 62
1, 505805, Note_on_c, 0, 86, 98
1, 505814, Note_on_c, 0, 84, 94
1, 505822, Note_on_c, 0, 71, 74
1, 505823, Note_on_c, 0, 64, 64
1, 505883, Note_off_c, 0, 71, 60
1, 505883, Note_off_c, 0, 64, 64
1, 506121, Note_on_c, 0, 83, 87
1, 506318, Note_on_c, 0, 82, 86
1, 506411, Note_off_c, 0, 86, 52
1, 506432, Note_off_c, 0, 84, 47
1, 506441, Note_off_c, 0, 83, 47
1, 506472, Note_on_c, 0, 81, 87
1, 506503, Note_off_c, 0, 82, 59
1, 506581, Note_off_c, 0, 81, 63
1, 506653, Note_on_c, 0, 55, 42
1, 506653, Note_on_c, 0, 81, 82
1, 506654, Note_on_c, 0, 63, 48
1, 506852, Note_off_c, 0, 63, 61
1, 506854, Note_on_c, 0, 80, 77
1, 506946, Note_off_c, 0, 81, 54
1, 506952, Note_off_c, 0, 55, 60
1, 507042, Note_on_c, 0, 79, 73
1, 507044, Note_off_c, 0, 80, 63
1, 507221, Note_on_c, 0, 78, 77
1, 507249, Note_off_c, 0, 79, 55
1, 507479, Note_on_c, 0, 77, 65
1, 507491, Note_on_c, 0, 57, 38
1, 507494, Note_on_c, 0, 49, 41
1, 507510, Control_c, 0, 64, 112
1, 507525, Control_c, 0, 64, 84
1, 507540, Control_c, 0, 64, 69
1, 507555, Control_c, 0, 64, 59
1, 507577, Control_c, 0, 64, 56
1, 507592, Control_c, 0, 64, 57
1, 507607, Control_c, 0, 64, 61
1, 507622, Control_c, 0, 64, 65
1, 507636, Control_c, 0, 64, 70
1, 507651, Control_c, 0, 64, 77
1, 507666, Control_c, 0, 64, 82
1, 507681, Control_c, 0, 64, 87
1, 507696, Control_c, 0, 64, 92
1, 507710, Control_c, 0, 64, 97
1, 507725, Control_c, 0, 64, 103
1, 507740, Control_c, 0, 64, 112
1, 507755, Control_c, 0, 64, 127
1, 507796, Note_off_c, 0, 78, 22
1, 507805, Note_on_c, 0, 79, 61
1, 507808, Note_off_c, 0, 77, 61
1, 507902, Note_off_c, 0, 49, 50
1, 507971, Note_off_c, 0, 57, 56
1, 507974, Note_on_c, 0, 81, 78
1, 508008, Note_off_c, 0, 79, 63
1, 508089, Note_on_c, 0, 82, 92
1, 508109, Note_off_c, 0, 81, 60
1, 508184, Note_on_c, 0, 83, 97
1, 508191, Note_off_c, 0, 82, 62
1, 508298, Note_on_c, 0, 85, 97
1, 508302, Note_on_c, 0, 70, 65
1, 508302, Note_on_c, 0, 84, 89
1, 508309, Note_on_c, 0, 65, 53
1, 508322, Note_off_c, 0, 83, 63
1, 508372, Note_off_c, 0, 65, 56
1, 508375, Note_off_c, 0, 70, 61
1, 508637, Note_on_c, 0, 83, 81
1, 508652, Note_off_c, 0, 84, 53
1, 508655, Note_off_c, 0, 85, 66
1, 508847, Note_on_c, 0, 82, 79
1, 508877, Note_off_c, 0, 83, 56
1, 508995, Note_on_c, 0, 80, 83
1, 509033, Note_off_c, 0, 82, 61
1, 509114, Note_off_c, 0, 80, 65
1, 509174, Note_on_c, 0, 80, 89
1, 509176, Note_on_c, 0, 54, 49
1, 509178, Note_on_c, 0, 62, 49
1, 509278, Note_off_c, 0, 62, 61
1, 509336, Note_off_c, 0, 54, 60
1, 509376, Note_on_c, 0, 79, 88
1, 509501, Note_off_c, 0, 80, 48
1, 509549, Note_on_c, 0, 78, 90
1, 509572, Note_off_c, 0, 79, 61
1, 509713, Note_on_c, 0, 36, 85
1, 509716, Note_on_c, 0, 48, 91
1, 509728, Control_c, 0, 64, 82
1, 509742, Control_c, 0, 64, 57
1, 509751, Note_on_c, 0, 77, 92
1, 509754, Note_off_c, 0, 78, 61
1, 509757, Control_c, 0, 64, 42
1, 509772, Control_c, 0, 64, 48
1, 509787, Control_c, 0, 64, 61
1, 509794, Note_off_c, 0, 36, 63
1, 509800, Note_off_c, 0, 77, 69
1, 509801, Control_c, 0, 64, 75
1, 509824, Control_c, 0, 64, 109
1, 509839, Control_c, 0, 64, 127
1, 509848, Note_off_c, 0, 48, 64
1, 509943, Note_on_c, 0, 56, 83
1, 509953, Note_on_c, 0, 68, 92
1, 509960, Note_on_c, 0, 61, 84
1, 509966, Note_off_c, 0, 56, 70
1, 510041, Note_off_c, 0, 61, 61
1, 510075, Note_off_c, 0, 68, 64
1, 510388, Note_on_c, 0, 83, 102
1, 510392, Note_on_c, 0, 64, 85
1, 510396, Note_on_c, 0, 59, 84
1, 510396, Note_on_c, 0, 71, 83
1, 510401, Note_on_c, 0, 76, 80
1, 510417, Control_c, 0, 64, 124
1, 510432, Control_c, 0, 64, 85
1, 510447, Control_c, 0, 64, 70
1, 510462, Control_c, 0, 64, 64
1, 510491, Control_c, 0, 64, 67
1, 510506, Control_c, 0, 64, 73
1, 510521, Control_c, 0, 64, 84
1, 510536, Control_c, 0, 64, 95
1, 510551, Control_c, 0, 64, 107
1, 510572, Control_c, 0, 64, 127
1, 510627, Note_off_c, 0, 59, 63
1, 510632, Note_off_c, 0, 76, 59
1, 510662, Note_off_c, 0, 71, 59
1, 510930, Note_off_c, 0, 83, 46
1, 510975, Note_on_c, 0, 75, 88
1, 510976, Note_on_c, 0, 63, 79
1, 510978, Note_on_c, 0, 55, 68
1, 510989, Note_on_c, 0, 67, 74
1, 511002, Control_c, 0, 64, 110
1, 511017, Control_c, 0, 64, 84
1, 511025, Note_off_c, 0, 64, 61
1, 511032, Control_c, 0, 64, 66
1, 511046, Control_c, 0, 64, 56
1, 511061, Control_c, 0, 64, 48
1, 511076, Control_c, 0, 64, 43
1, 511091, Control_c, 0, 64, 43
1, 511106, Control_c, 0, 64, 43
1, 511120, Control_c, 0, 64, 44
1, 511135, Control_c, 0, 64, 48
1, 511150, Control_c, 0, 64, 54
1, 511165, Control_c, 0, 64, 59
1, 511180, Control_c, 0, 64, 62
1, 511195, Control_c, 0, 64, 65
1, 511210, Control_c, 0, 64, 69
1, 511225, Control_c, 0, 64, 75
1, 511239, Control_c, 0, 64, 82
1, 511254, Control_c, 0, 64, 88
1, 511269, Control_c, 0, 64, 95
1, 511284, Control_c, 0, 64, 104
1, 511299, Control_c, 0, 64, 127
1, 511437, Note_off_c, 0, 63, 62
1, 511509, Note_off_c, 0, 55, 60
1, 511643, Note_off_c, 0, 67, 36
1, 511944, Control_c, 0, 67, 46
1, 511959, Control_c, 0, 67, 54
1, 511974, Control_c, 0, 67, 58
1, 512115, Note_on_c, 0, 69, 75
1, 512115, Control_c, 0, 64, 101
1, 512122, Note_on_c, 0, 57, 51
1, 512128, Note_on_c, 0, 49, 50
1, 512130, Control_c, 0, 64, 79
1, 512133, Note_on_c, 0, 61, 49
1, 512144, Control_c, 0, 64, 67
1, 512154, Note_off_c, 0, 75, 65
1, 512159, Control_c, 0, 64, 60
1, 512159, Control_c, 0, 67, 57
1, 512188, Control_c, 0, 64, 62
1, 512188, Control_c, 0, 67, 56
1, 512203, Control_c, 0, 64, 66
1, 512203, Control_c, 0, 67, 56
1, 512218, Control_c, 0, 64, 71
1, 512218, Control_c, 0, 67, 55
1, 512233, Control_c, 0, 64, 77
1, 512233, Control_c, 0, 67, 54
1, 512247, Control_c, 0, 64, 81
1, 512262, Control_c, 0, 64, 85
1, 512262, Control_c, 0, 67, 54
1, 512266, Note_off_c, 0, 57, 62
1, 512277, Control_c, 0, 64, 90
1, 512277, Control_c, 0, 67, 53
1, 512283, Note_off_c, 0, 49, 62
1, 512292, Control_c, 0, 64, 95
1, 512304, Note_off_c, 0, 61, 63
1, 512307, Control_c, 0, 64, 101
1, 512307, Control_c, 0, 67, 53
1, 512322, Note_off_c, 0, 69, 60
1, 512322, Control_c, 0, 64, 107
1, 512337, Control_c, 0, 64, 112
1, 512352, Control_c, 0, 64, 118
1, 512366, Control_c, 0, 64, 127
1, 512441, Note_on_c, 0, 82, 69
1, 512446, Note_on_c, 0, 70, 62
1, 512456, Control_c, 0, 64, 114
1, 512458, Note_on_c, 0, 58, 57
1, 512459, Note_on_c, 0, 77, 55
1, 512463, Note_on_c, 0, 65, 48
1, 512471, Control_c, 0, 64, 87
1, 512486, Control_c, 0, 64, 70
1, 512500, Control_c, 0, 64, 60
1, 512515, Control_c, 0, 64, 58
1, 512515, Control_c, 0, 67, 51
1, 512530, Control_c, 0, 64, 60
1, 512530, Control_c, 0, 67, 48
1, 512545, Control_c, 0, 64, 64
1, 512545, Control_c, 0, 67, 46
1, 512559, Control_c, 0, 64, 71
1, 512559, Control_c, 0, 67, 43
1, 512574, Control_c, 0, 64, 82
1, 512574, Control_c, 0, 67, 40
1, 512589, Control_c, 0, 64, 90
1, 512589, Control_c, 0, 67, 37
1, 512604, Control_c, 0, 64, 97
1, 512604, Control_c, 0, 67, 0
1, 512609, Note_off_c, 0, 65, 49
1, 512614, Note_off_c, 0, 70, 61
1, 512618, Control_c, 0, 64, 106
1, 512633, Control_c, 0, 64, 122
1, 512648, Control_c, 0, 64, 127
1, 512677, Note_off_c, 0, 82, 56
1, 512781, Note_on_c, 0, 74, 65
1, 512793, Note_on_c, 0, 54, 47
1, 512801, Note_on_c, 0, 66, 59
1, 512818, Control_c, 0, 64, 92
1, 512825, Note_on_c, 0, 62, 25
1, 512833, Control_c, 0, 64, 72
1, 512840, Note_off_c, 0, 58, 58
1, 512848, Control_c, 0, 64, 57
1, 512863, Control_c, 0, 64, 38
1, 512878, Control_c, 0, 64, 0
1, 512918, Note_off_c, 0, 77, 64
1, 512981, Control_c, 0, 64, 34
1, 512995, Control_c, 0, 64, 53
1, 513010, Control_c, 0, 64, 63
1, 513025, Control_c, 0, 64, 68
1, 513040, Control_c, 0, 64, 71
1, 513055, Control_c, 0, 64, 75
1, 513070, Control_c, 0, 64, 79
1, 513085, Control_c, 0, 64, 88
1, 513099, Note_off_c, 0, 62, 42
1, 513100, Control_c, 0, 64, 97
1, 513115, Control_c, 0, 64, 110
1, 513129, Control_c, 0, 64, 127
1, 513214, Note_off_c, 0, 54, 45
1, 513322, Control_c, 0, 67, 37
1, 513325, Note_off_c, 0, 74, 51
1, 513337, Control_c, 0, 67, 39
1, 513352, Control_c, 0, 67, 40
1, 513367, Control_c, 0, 67, 42
1, 513382, Control_c, 0, 67, 43
1, 513396, Control_c, 0, 67, 45
1, 513411, Control_c, 0, 67, 47
1, 513426, Control_c, 0, 67, 48
1, 513438, Note_off_c, 0, 66, 62
1, 513440, Control_c, 0, 67, 49
1, 513455, Control_c, 0, 67, 51
1, 513470, Control_c, 0, 67, 53
1, 513485, Control_c, 0, 67, 56
1, 513500, Control_c, 0, 67, 58
1, 513514, Control_c, 0, 67, 60
1, 513529, Control_c, 0, 67, 61
1, 513544, Control_c, 0, 67, 62
1, 513566, Control_c, 0, 67, 64
1, 513581, Control_c, 0, 67, 66
1, 513596, Control_c, 0, 67, 75
1, 513611, Control_c, 0, 67, 109
1, 513626, Control_c, 0, 67, 127
1, 514001, Note_on_c, 0, 44, 41
1, 514012, Control_c, 0, 64, 124
1, 514027, Control_c, 0, 64, 108
1, 514042, Control_c, 0, 64, 100
1, 514057, Control_c, 0, 64, 93
1, 514071, Control_c, 0, 64, 86
1, 514086, Control_c, 0, 64, 80
1, 514101, Control_c, 0, 64, 72
1, 514116, Control_c, 0, 64, 66
1, 514131, Control_c, 0, 64, 62
1, 514145, Control_c, 0, 64, 58
1, 514160, Control_c, 0, 64, 57
1, 514321, Note_on_c, 0, 62, 44
1, 514331, Control_c, 0, 64, 58
1, 514340, Note_on_c, 0, 53, 28
1, 514345, Control_c, 0, 64, 59
1, 514360, Control_c, 0, 64, 61
1, 514375, Control_c, 0, 64, 62
1, 514389, Control_c, 0, 64, 64
1, 514404, Control_c, 0, 64, 65
1, 514419, Control_c, 0, 64, 66
1, 514434, Control_c, 0, 64, 68
1, 514449, Control_c, 0, 64, 69
1, 514463, Control_c, 0, 64, 70
1, 514478, Note_off_c, 0, 53, 40
1, 514478, Control_c, 0, 64, 70
1, 514554, Note_on_c, 0, 59, 28
1, 514590, Note_on_c, 0, 68, 39
1, 514626, Control_c, 0, 64, 70
1, 514671, Control_c, 0, 64, 69
1, 514701, Control_c, 0, 64, 69
1, 514731, Control_c, 0, 64, 68
1, 514741, Note_off_c, 0, 68, 50
1, 514746, Control_c, 0, 64, 67
1, 514760, Control_c, 0, 64, 67
1, 514775, Control_c, 0, 64, 66
1, 514786, Note_on_c, 0, 43, 51
1, 514790, Control_c, 0, 64, 65
1, 514797, Note_on_c, 0, 64, 34
1, 514805, Control_c, 0, 64, 64
1, 514808, Note_on_c, 0, 58, 33
1, 514809, Note_off_c, 0, 62, 19
1, 514820, Control_c, 0, 64, 63
1, 514835, Control_c, 0, 64, 61
1, 514842, Note_off_c, 0, 59, 41
1, 514849, Control_c, 0, 64, 60
1, 514864, Control_c, 0, 64, 59
1, 514877, Note_off_c, 0, 44, 57
1, 514879, Control_c, 0, 64, 59
1, 514888, Note_off_c, 0, 58, 0
1, 514888, Note_on_c, 0, 58, 5
1, 514894, Control_c, 0, 64, 58
1, 514977, Note_off_c, 0, 64, 56
1, 515003, Note_off_c, 0, 58, 59
1, 515027, Control_c, 0, 64, 59
1, 515039, Note_on_c, 0, 45, 57
1, 515042, Control_c, 0, 64, 59
1, 515064, Control_c, 0, 64, 60
1, 515079, Control_c, 0, 64, 60
1, 515094, Control_c, 0, 64, 61
1, 515109, Control_c, 0, 64, 62
1, 515124, Control_c, 0, 64, 62
1, 515135, Note_off_c, 0, 43, 57
1, 515168, Control_c, 0, 64, 63
1, 515243, Control_c, 0, 67, 117
1, 515258, Control_c, 0, 67, 103
1, 515273, Control_c, 0, 67, 86
1, 515283, Note_on_c, 0, 55, 56
1, 515287, Control_c, 0, 67, 73
1, 515293, Note_on_c, 0, 49, 50
1, 515302, Control_c, 0, 67, 61
1, 515317, Control_c, 0, 64, 64
1, 515317, Control_c, 0, 67, 47
1, 515332, Control_c, 0, 64, 66
1, 515332, Control_c, 0, 67, 0
1, 515346, Control_c, 0, 64, 69
1, 515361, Control_c, 0, 64, 74
1, 515376, Control_c, 0, 64, 77
1, 515382, Note_off_c, 0, 49, 59
1, 515391, Control_c, 0, 64, 79
1, 515406, Control_c, 0, 64, 80
1, 515420, Control_c, 0, 64, 82
1, 515435, Control_c, 0, 64, 84
1, 515450, Control_c, 0, 64, 85
1, 515465, Control_c, 0, 64, 86
1, 515481, Control_c, 0, 64, 87
1, 515496, Control_c, 0, 64, 88
1, 515504, Note_off_c, 0, 55, 45
1, 515525, Control_c, 0, 64, 88
1, 515589, Note_on_c, 0, 66, 61
1, 515594, Note_on_c, 0, 60, 42
1, 515902, Note_on_c, 0, 42, 70
1, 515903, Control_c, 0, 64, 88
1, 515906, Note_on_c, 0, 63, 63
1, 515917, Control_c, 0, 64, 87
1, 515932, Control_c, 0, 64, 79
1, 515933, Note_on_c, 0, 57, 28
1, 515943, Note_off_c, 0, 66, 52
1, 515946, Note_off_c, 0, 45, 63
1, 515947, Control_c, 0, 64, 64
1, 515955, Note_off_c, 0, 60, 53
1, 515961, Control_c, 0, 64, 46
1, 515976, Control_c, 0, 64, 0
1, 516021, Control_c, 0, 64, 43
1, 516036, Control_c, 0, 64, 59
1, 516051, Control_c, 0, 64, 67
1, 516066, Control_c, 0, 64, 74
1, 516081, Control_c, 0, 64, 80
1, 516095, Control_c, 0, 64, 83
1, 516110, Control_c, 0, 64, 86
1, 516117, Note_off_c, 0, 63, 63
1, 516122, Note_off_c, 0, 57, 39
1, 516125, Control_c, 0, 64, 90
1, 516140, Control_c, 0, 64, 94
1, 516155, Control_c, 0, 64, 98
1, 516169, Control_c, 0, 64, 102
1, 516184, Control_c, 0, 64, 106
1, 516199, Control_c, 0, 64, 111
1, 516214, Control_c, 0, 64, 116
1, 516229, Control_c, 0, 64, 120
1, 516243, Control_c, 0, 64, 127
1, 516388, Note_on_c, 0, 72, 82
1, 516392, Control_c, 0, 64, 105
1, 516395, Note_on_c, 0, 52, 54
1, 516397, Note_on_c, 0, 40, 58
1, 516404, Note_on_c, 0, 60, 49
1, 516404, Note_on_c, 0, 64, 57
1, 516407, Control_c, 0, 64, 79
1, 516422, Control_c, 0, 64, 58
1, 516437, Control_c, 0, 64, 0
1, 516448, Note_off_c, 0, 42, 60
1, 516607, Control_c, 0, 64, 37
1, 516622, Control_c, 0, 64, 56
1, 516637, Control_c, 0, 64, 64
1, 516652, Control_c, 0, 64, 70
1, 516666, Control_c, 0, 64, 77
1, 516681, Control_c, 0, 64, 86
1, 516696, Control_c, 0, 64, 97
1, 516711, Control_c, 0, 64, 124
1, 516726, Control_c, 0, 64, 127
1, 516753, Note_off_c, 0, 60, 46
1, 516771, Note_off_c, 0, 40, 56
1, 516781, Note_off_c, 0, 64, 60
1, 516856, Note_off_c, 0, 52, 36
1, 517353, Note_on_c, 0, 56, 36
1, 517353, Note_on_c, 0, 63, 47
1, 517354, Note_on_c, 0, 75, 47
1, 517366, Note_on_c, 0, 68, 44
1, 517412, Note_off_c, 0, 63, 52
1, 517426, Note_off_c, 0, 56, 53
1, 517462, Note_off_c, 0, 75, 64
1, 517464, Note_off_c, 0, 68, 34
1, 518089, Note_off_c, 0, 72, 34
1, 518371, Note_on_c, 0, 71, 64
1, 518383, Note_on_c, 0, 55, 38
1, 518385, Note_on_c, 0, 47, 41
1, 518394, Note_on_c, 0, 59, 44
1, 518403, Note_on_c, 0, 67, 34
1, 518461, Control_c, 0, 64, 96
1, 518476, Control_c, 0, 64, 84
1, 518491, Control_c, 0, 64, 73
1, 518505, Control_c, 0, 64, 66
1, 518520, Control_c, 0, 64, 61
1, 518535, Control_c, 0, 64, 58
1, 518549, Control_c, 0, 64, 56
1, 518579, Control_c, 0, 64, 57
1, 518594, Control_c, 0, 64, 59
1, 518609, Control_c, 0, 64, 63
1, 518623, Control_c, 0, 64, 66
1, 518638, Control_c, 0, 64, 71
1, 518653, Control_c, 0, 64, 76
1, 518668, Control_c, 0, 64, 79
1, 518684, Control_c, 0, 64, 83
1, 518699, Control_c, 0, 64, 89
1, 518714, Control_c, 0, 64, 94
1, 518728, Control_c, 0, 64, 101
1, 518743, Control_c, 0, 64, 112
1, 518758, Control_c, 0, 64, 127
1, 518862, Note_off_c, 0, 55, 54
1, 518958, Note_off_c, 0, 47, 58
1, 519459, Note_on_c, 0, 41, 36
1, 519462, Note_on_c, 0, 53, 29
1, 519463, Note_on_c, 0, 61, 35
1, 519471, Note_on_c, 0, 49, 31
1, 519477, Control_c, 0, 64, 101
1, 519492, Control_c, 0, 64, 82
1, 519507, Control_c, 0, 64, 66
1, 519522, Control_c, 0, 64, 55
1, 519537, Control_c, 0, 64, 43
1, 519559, Control_c, 0, 64, 35
1, 519574, Control_c, 0, 64, 33
1, 519589, Control_c, 0, 64, 34
1, 519603, Control_c, 0, 64, 39
1, 519618, Control_c, 0, 64, 50
1, 519633, Control_c, 0, 64, 60
1, 519648, Control_c, 0, 64, 66
1, 519663, Control_c, 0, 64, 71
1, 519678, Control_c, 0, 64, 76
1, 519692, Control_c, 0, 64, 81
1, 519707, Control_c, 0, 64, 88
1, 519722, Control_c, 0, 64, 99
1, 519737, Control_c, 0, 64, 115
1, 519752, Control_c, 0, 64, 127
1, 519795, Note_off_c, 0, 59, 56
1, 519825, Note_off_c, 0, 41, 41
1, 519846, Note_off_c, 0, 61, 53
1, 519855, Note_off_c, 0, 49, 41
1, 519864, Note_off_c, 0, 53, 55
1, 519905, Note_off_c, 0, 67, 42
1, 519946, Note_off_c, 0, 71, 61
1, 520339, Note_on_c, 0, 74, 54
1, 520348, Note_on_c, 0, 62, 37
1, 520352, Note_on_c, 0, 57, 32
1, 520354, Note_on_c, 0, 69, 36
1, 520495, Note_off_c, 0, 69, 61
1, 520499, Note_off_c, 0, 62, 34
1, 520504, Note_off_c, 0, 74, 63
1, 520597, Note_off_c, 0, 57, 41
1, 520749, Note_on_c, 0, 71, 73
1, 520771, Note_on_c, 0, 59, 47
1, 520965, Note_off_c, 0, 59, 57
1, 521390, Note_on_c, 0, 70, 59
1, 521392, Note_on_c, 0, 54, 31
1, 521399, Note_on_c, 0, 66, 46
1, 521400, Note_on_c, 0, 46, 39
1, 521404, Note_on_c, 0, 58, 32
1, 521427, Control_c, 0, 64, 122
1, 521442, Control_c, 0, 64, 91
1, 521456, Control_c, 0, 64, 74
1, 521471, Control_c, 0, 64, 64
1, 521486, Control_c, 0, 64, 55
1, 521501, Control_c, 0, 64, 48
1, 521516, Control_c, 0, 64, 40
1, 521530, Control_c, 0, 64, 31
1, 521545, Control_c, 0, 64, 0
1, 521595, Note_off_c, 0, 71, 58
1, 521604, Control_c, 0, 64, 33
1, 521619, Control_c, 0, 64, 43
1, 521634, Control_c, 0, 64, 54
1, 521649, Control_c, 0, 64, 62
1, 521664, Control_c, 0, 64, 66
1, 521679, Control_c, 0, 64, 70
1, 521694, Control_c, 0, 64, 73
1, 521708, Control_c, 0, 64, 78
1, 521723, Control_c, 0, 64, 84
1, 521738, Control_c, 0, 64, 92
1, 521753, Control_c, 0, 64, 105
1, 521768, Control_c, 0, 64, 127
1, 521929, Note_off_c, 0, 54, 39
1, 522051, Note_off_c, 0, 58, 36
1, 522212, Note_off_c, 0, 46, 33
1, 522772, Note_on_c, 0, 52, 45
1, 522774, Note_on_c, 0, 60, 56
1, 522776, Control_c, 0, 64, 105
1, 522780, Note_on_c, 0, 40, 43
1, 522791, Control_c, 0, 64, 78
1, 522806, Control_c, 0, 64, 63
1, 522820, Control_c, 0, 64, 46
1, 522835, Control_c, 0, 64, 30
1, 522850, Control_c, 0, 64, 0
1, 522868, Note_off_c, 0, 70, 59
1, 522874, Note_off_c, 0, 66, 57
1, 522880, Control_c, 0, 64, 30
1, 522895, Control_c, 0, 64, 41
1, 522910, Control_c, 0, 64, 53
1, 522925, Control_c, 0, 64, 62
1, 522940, Control_c, 0, 64, 67
1, 522954, Control_c, 0, 64, 72
1, 522969, Control_c, 0, 64, 76
1, 522984, Control_c, 0, 64, 83
1, 522999, Control_c, 0, 64, 92
1, 523014, Control_c, 0, 64, 107
1, 523028, Control_c, 0, 64, 127
1, 523046, Note_off_c, 0, 40, 40
1, 523084, Note_off_c, 0, 60, 63
1, 523248, Note_off_c, 0, 52, 60
1, 523372, Note_on_c, 0, 80, 73
1, 523515, Note_on_c, 0, 81, 83
1, 523520, Note_off_c, 0, 80, 63
1, 523607, Note_on_c, 0, 82, 88
1, 523613, Note_off_c, 0, 81, 62
1, 523687, Note_off_c, 0, 82, 63
1, 523722, Note_on_c, 0, 84, 91
1, 523723, Note_on_c, 0, 86, 91
1, 523736, Note_on_c, 0, 75, 68
1, 523742, Note_on_c, 0, 68, 60
1, 523836, Note_off_c, 0, 75, 58
1, 523853, Note_off_c, 0, 68, 53
1, 524039, Note_on_c, 0, 82, 80
1, 524238, Note_on_c, 0, 81, 85
1, 524260, Note_off_c, 0, 82, 62
1, 524370, Note_off_c, 0, 86, 58
1, 524403, Note_on_c, 0, 80, 87
1, 524406, Note_off_c, 0, 84, 61
1, 524433, Note_off_c, 0, 81, 60
1, 524534, Note_off_c, 0, 80, 61
1, 524570, Note_on_c, 0, 59, 31
1, 524590, Note_on_c, 0, 67, 53
1, 524601, Note_on_c, 0, 80, 78
1, 524767, Note_off_c, 0, 67, 51
1, 524800, Note_on_c, 0, 79, 79
1, 524852, Note_off_c, 0, 59, 41
1, 524960, Note_on_c, 0, 78, 82
1, 524987, Note_off_c, 0, 79, 56
1, 525038, Note_off_c, 0, 80, 19
1, 525122, Note_on_c, 0, 77, 81
1, 525137, Note_off_c, 0, 78, 59
1, 525360, Note_off_c, 0, 77, 60
1, 525363, Note_on_c, 0, 53, 43
1, 525363, Control_c, 0, 64, 108
1, 525370, Note_on_c, 0, 76, 73
1, 525375, Note_on_c, 0, 61, 45
1, 525378, Control_c, 0, 64, 86
1, 525393, Control_c, 0, 64, 73
1, 525408, Control_c, 0, 64, 66
1, 525422, Control_c, 0, 64, 64
1, 525437, Control_c, 0, 64, 66
1, 525452, Control_c, 0, 64, 71
1, 525467, Control_c, 0, 64, 77
1, 525482, Control_c, 0, 64, 83
1, 525496, Control_c, 0, 64, 89
1, 525511, Control_c, 0, 64, 98
1, 525526, Control_c, 0, 64, 111
1, 525548, Control_c, 0, 64, 127
1, 525565, Note_off_c, 0, 53, 51
1, 525640, Note_off_c, 0, 61, 52
1, 525679, Note_on_c, 0, 78, 76
1, 525696, Note_off_c, 0, 76, 60
1, 525812, Note_off_c, 0, 78, 60
1, 525816, Note_on_c, 0, 79, 78
1, 525900, Note_off_c, 0, 79, 58
1, 525906, Note_on_c, 0, 80, 89
1, 525993, Note_on_c, 0, 81, 94
1, 525994, Note_off_c, 0, 80, 63
1, 526099, Note_on_c, 0, 84, 90
1, 526103, Note_on_c, 0, 74, 68
1, 526104, Note_on_c, 0, 82, 94
1, 526106, Note_on_c, 0, 69, 64
1, 526117, Note_off_c, 0, 81, 52
1, 526134, Note_off_c, 0, 69, 68
1, 526144, Note_off_c, 0, 74, 62
1, 526405, Note_on_c, 0, 81, 88
1, 526428, Note_off_c, 0, 82, 62
1, 526598, Note_on_c, 0, 80, 93
1, 526609, Note_off_c, 0, 81, 56
1, 526647, Note_off_c, 0, 84, 61
1, 526745, Note_on_c, 0, 79, 91
1, 526748, Note_off_c, 0, 80, 67
1, 526857, Note_off_c, 0, 79, 66
1, 526921, Note_on_c, 0, 66, 76
1, 526922, Note_on_c, 0, 79, 94
1, 526922, Note_on_c, 0, 58, 72
1, 526998, Note_off_c, 0, 66, 64
1, 527012, Note_off_c, 0, 58, 61
1, 527140, Note_on_c, 0, 78, 91
1, 527173, Note_off_c, 0, 79, 57
1, 527341, Note_on_c, 0, 77, 93
1, 527387, Note_off_c, 0, 78, 59
1, 527566, Note_off_c, 0, 77, 64
1, 527568, Note_on_c, 0, 76, 91
1, 527594, Control_c, 0, 64, 103
1, 527608, Control_c, 0, 64, 76
1, 527623, Control_c, 0, 64, 66
1, 527643, Note_on_c, 0, 28, 86
1, 527653, Control_c, 0, 64, 71
1, 527668, Control_c, 0, 64, 89
1, 527672, Note_off_c, 0, 76, 67
1, 527682, Control_c, 0, 64, 127
1, 527747, Note_off_c, 0, 28, 62
1, 527753, Note_on_c, 0, 40, 85
1, 527800, Note_on_c, 0, 60, 82
1, 527803, Note_off_c, 0, 40, 62
1, 527884, Note_on_c, 0, 64, 84
1, 527888, Note_off_c, 0, 60, 64
1, 527951, Note_off_c, 0, 64, 66
1, 527964, Note_on_c, 0, 72, 85
1, 528001, Note_off_c, 0, 72, 67
1, 528005, Note_on_c, 0, 52, 63
1, 528065, Note_on_c, 0, 72, 86
1, 528306, Note_on_c, 0, 60, 64
1, 528320, Note_on_c, 0, 84, 100
1, 528323, Note_on_c, 0, 76, 92
1, 528341, Note_off_c, 0, 52, 60
1, 528368, Note_off_c, 0, 60, 62
1, 528374, Note_off_c, 0, 76, 60
1, 529203, Note_on_c, 0, 75, 64
1, 529205, Note_on_c, 0, 63, 60
1, 529207, Note_on_c, 0, 71, 69
1, 529208, Note_on_c, 0, 68, 63
1, 529261, Note_off_c, 0, 75, 66
1, 529268, Note_off_c, 0, 63, 63
1, 529292, Note_off_c, 0, 71, 61
1, 529309, Note_off_c, 0, 68, 61
1, 529845, Note_off_c, 0, 72, 58
1, 530204, Note_on_c, 0, 83, 78
1, 530213, Note_on_c, 0, 67, 50
1, 530213, Note_on_c, 0, 71, 67
1, 530216, Note_on_c, 0, 59, 50
1, 530219, Note_on_c, 0, 64, 46
1, 530225, Note_on_c, 0, 55, 45
1, 530234, Control_c, 0, 64, 117
1, 530249, Control_c, 0, 64, 83
1, 530263, Control_c, 0, 64, 67
1, 530278, Control_c, 0, 64, 55
1, 530288, Note_off_c, 0, 84, 56
1, 530293, Control_c, 0, 64, 49
1, 530308, Control_c, 0, 64, 48
1, 530323, Control_c, 0, 64, 52
1, 530337, Control_c, 0, 64, 57
1, 530352, Control_c, 0, 64, 63
1, 530367, Control_c, 0, 64, 69
1, 530382, Control_c, 0, 64, 77
1, 530397, Control_c, 0, 64, 86
1, 530411, Control_c, 0, 64, 93
1, 530426, Control_c, 0, 64, 108
1, 530441, Control_c, 0, 64, 127
1, 530535, Note_off_c, 0, 67, 38
1, 530564, Note_off_c, 0, 64, 54
1, 530637, Note_off_c, 0, 55, 35
1, 530641, Note_off_c, 0, 59, 59
1, 531313, Note_on_c, 0, 61, 71
1, 531317, Note_on_c, 0, 57, 64
1, 531324, Note_on_c, 0, 53, 58
1, 531328, Note_on_c, 0, 49, 57
1, 531339, Control_c, 0, 64, 107
1, 531354, Control_c, 0, 64, 75
1, 531368, Control_c, 0, 64, 57
1, 531383, Control_c, 0, 64, 40
1, 531398, Control_c, 0, 64, 39
1, 531412, Control_c, 0, 64, 46
1, 531427, Control_c, 0, 64, 58
1, 531442, Control_c, 0, 64, 68
1, 531458, Control_c, 0, 64, 78
1, 531473, Control_c, 0, 64, 89
1, 531488, Control_c, 0, 64, 99
1, 531499, Note_off_c, 0, 71, 58
1, 531503, Control_c, 0, 64, 113
1, 531510, Note_off_c, 0, 83, 60
1, 531518, Control_c, 0, 64, 127
1, 531560, Note_off_c, 0, 49, 48
1, 531585, Note_on_c, 0, 83, 87
1, 531610, Note_on_c, 0, 71, 60
1, 531641, Note_off_c, 0, 53, 33
1, 531698, Note_off_c, 0, 57, 52
1, 531778, Note_off_c, 0, 71, 56
1, 531796, Note_off_c, 0, 83, 61
1, 531843, Note_off_c, 0, 61, 45
1, 531867, Note_on_c, 0, 83, 90
1, 531883, Note_on_c, 0, 71, 70
1, 532002, Note_off_c, 0, 71, 56
1, 532017, Note_off_c, 0, 83, 62
1, 532081, Note_on_c, 0, 83, 92
1, 532094, Note_on_c, 0, 71, 86
1, 532154, Note_off_c, 0, 71, 55
1, 532180, Note_off_c, 0, 83, 64
1, 532246, Note_on_c, 0, 83, 95
1, 532255, Note_on_c, 0, 71, 86
1, 532413, Note_on_c, 0, 74, 84
1, 532416, Note_off_c, 0, 71, 43
1, 532421, Note_on_c, 0, 69, 66
1, 532425, Note_on_c, 0, 62, 57
1, 532434, Note_on_c, 0, 65, 56
1, 532450, Note_off_c, 0, 83, 56
1, 532610, Note_off_c, 0, 74, 57
1, 532627, Note_on_c, 0, 83, 95
1, 532637, Note_on_c, 0, 71, 75
1, 532700, Note_off_c, 0, 62, 30
1, 532741, Note_off_c, 0, 69, 54
1, 532777, Note_off_c, 0, 71, 56
1, 532788, Note_off_c, 0, 65, 38
1, 532802, Note_off_c, 0, 83, 58
1, 532881, Note_on_c, 0, 83, 94
1, 532890, Note_on_c, 0, 71, 80
1, 532977, Note_off_c, 0, 71, 56
1, 533182, Note_on_c, 0, 86, 97
1, 533193, Note_on_c, 0, 74, 82
1, 533206, Note_off_c, 0, 83, 57
1, 533384, Note_off_c, 0, 74, 55
1, 533409, Note_off_c, 0, 86, 59
1, 533579, Note_on_c, 0, 82, 93
1, 533586, Note_on_c, 0, 70, 81
1, 533587, Note_on_c, 0, 66, 67
1, 533596, Note_on_c, 0, 61, 64
1, 533597, Note_on_c, 0, 58, 64
1, 533601, Note_on_c, 0, 54, 54
1, 533674, Control_c, 0, 64, 103
1, 533689, Control_c, 0, 64, 70
1, 533704, Control_c, 0, 64, 51
1, 533719, Control_c, 0, 64, 0
1, 533814, Control_c, 0, 64, 34
1, 533829, Control_c, 0, 64, 54
1, 533844, Control_c, 0, 64, 65
1, 533860, Control_c, 0, 64, 72
1, 533875, Control_c, 0, 64, 80
1, 533890, Control_c, 0, 64, 89
1, 533905, Control_c, 0, 64, 103
1, 533919, Control_c, 0, 64, 127
1, 533945, Note_off_c, 0, 66, 61
1, 534042, Note_off_c, 0, 82, 59
1, 534057, Note_off_c, 0, 61, 56
1, 534080, Note_off_c, 0, 58, 51
1, 534100, Note_off_c, 0, 54, 56
1, 534135, Note_off_c, 0, 70, 62
1, 534803, Control_c, 0, 64, 117
1, 534810, Note_on_c, 0, 72, 69
1, 534815, Note_on_c, 0, 40, 77
1, 534816, Note_on_c, 0, 28, 78
1, 534817, Control_c, 0, 64, 66
1, 534820, Note_on_c, 0, 64, 60
1, 534822, Note_on_c, 0, 60, 49
1, 534832, Note_on_c, 0, 67, 49
1, 534832, Control_c, 0, 64, 0
1, 534876, Control_c, 0, 66, 127
1, 534877, Note_off_c, 0, 60, 0
1, 534877, Note_on_c, 0, 60, 13
1, 534944, Note_off_c, 0, 28, 61
1, 534950, Control_c, 0, 64, 44
1, 534965, Control_c, 0, 64, 55
1, 534980, Control_c, 0, 64, 62
1, 534992, Note_off_c, 0, 40, 62
1, 534995, Control_c, 0, 64, 65
1, 535009, Control_c, 0, 64, 67
1, 535024, Control_c, 0, 64, 70
1, 535039, Control_c, 0, 64, 72
1, 535054, Control_c, 0, 64, 75
1, 535069, Control_c, 0, 64, 78
1, 535084, Control_c, 0, 64, 81
1, 535099, Control_c, 0, 64, 85
1, 535114, Control_c, 0, 64, 88
1, 535128, Control_c, 0, 64, 91
1, 535143, Control_c, 0, 64, 93
1, 535158, Control_c, 0, 64, 94
1, 535173, Control_c, 0, 64, 95
1, 535182, Note_off_c, 0, 60, 37
1, 535188, Control_c, 0, 64, 95
1, 535202, Control_c, 0, 64, 96
1, 535301, Note_off_c, 0, 64, 32
1, 535340, Note_off_c, 0, 67, 38
1, 535402, Note_on_c, 0, 59, 93
1, 535412, Note_on_c, 0, 47, 79
1, 535417, Control_c, 0, 64, 95
1, 535432, Control_c, 0, 64, 90
1, 535447, Control_c, 0, 64, 82
1, 535462, Control_c, 0, 64, 74
1, 535477, Control_c, 0, 64, 67
1, 535491, Control_c, 0, 64, 63
1, 535506, Control_c, 0, 64, 64
1, 535521, Control_c, 0, 64, 65
1, 535536, Control_c, 0, 64, 69
1, 535551, Control_c, 0, 64, 73
1, 535565, Control_c, 0, 64, 76
1, 535578, Note_off_c, 0, 72, 62
1, 535580, Control_c, 0, 64, 79
1, 535595, Control_c, 0, 64, 82
1, 535610, Control_c, 0, 64, 84
1, 535625, Control_c, 0, 64, 88
1, 535639, Control_c, 0, 64, 91
1, 535654, Control_c, 0, 64, 95
1, 535669, Control_c, 0, 64, 98
1, 535683, Control_c, 0, 64, 102
1, 535698, Control_c, 0, 64, 104
1, 535713, Control_c, 0, 64, 106
1, 535728, Control_c, 0, 64, 108
1, 535758, Control_c, 0, 64, 110
1, 535787, Control_c, 0, 64, 112
1, 535817, Control_c, 0, 64, 114
1, 535902, Note_on_c, 0, 87, 75
1, 535906, Control_c, 0, 64, 111
1, 535913, Note_on_c, 0, 75, 61
1, 535918, Note_on_c, 0, 83, 66
1, 535921, Control_c, 0, 64, 97
1, 535930, Note_on_c, 0, 80, 51
1, 535936, Control_c, 0, 64, 78
1, 535950, Control_c, 0, 64, 65
1, 535965, Control_c, 0, 64, 53
1, 535980, Control_c, 0, 64, 47
1, 535995, Control_c, 0, 64, 48
1, 536010, Control_c, 0, 64, 53
1, 536032, Control_c, 0, 64, 61
1, 536047, Control_c, 0, 64, 69
1, 536062, Control_c, 0, 64, 77
1, 536076, Control_c, 0, 64, 84
1, 536091, Control_c, 0, 64, 88
1, 536106, Control_c, 0, 64, 94
1, 536121, Control_c, 0, 64, 99
1, 536136, Control_c, 0, 64, 107
1, 536150, Control_c, 0, 64, 122
1, 536165, Control_c, 0, 64, 127
1, 536223, Note_off_c, 0, 47, 56
1, 536233, Note_off_c, 0, 59, 61
1, 536329, Note_on_c, 0, 60, 85
1, 536330, Note_on_c, 0, 48, 82
1, 536344, Control_c, 0, 64, 122
1, 536359, Control_c, 0, 64, 106
1, 536428, Note_off_c, 0, 48, 62
1, 536433, Control_c, 0, 64, 109
1, 536444, Note_off_c, 0, 60, 61
1, 536444, Note_off_c, 0, 87, 63
1, 536448, Note_off_c, 0, 83, 55
1, 536448, Control_c, 0, 64, 124
1, 536462, Control_c, 0, 64, 127
1, 536465, Note_off_c, 0, 80, 61
1, 536499, Note_off_c, 0, 75, 65
1, 536506, Control_c, 0, 64, 119
1, 536510, Note_on_c, 0, 62, 93
1, 536511, Note_on_c, 0, 50, 82
1, 536521, Control_c, 0, 64, 93
1, 536536, Control_c, 0, 64, 74
1, 536551, Control_c, 0, 64, 60
1, 536566, Control_c, 0, 64, 58
1, 536580, Control_c, 0, 64, 62
1, 536595, Control_c, 0, 64, 68
1, 536610, Control_c, 0, 64, 79
1, 536625, Control_c, 0, 64, 93
1, 536640, Control_c, 0, 64, 101
1, 536655, Control_c, 0, 64, 115
1, 536670, Control_c, 0, 64, 127
1, 536723, Note_off_c, 0, 62, 63
1, 536831, Note_off_c, 0, 50, 63
1, 536835, Note_on_c, 0, 51, 89
1, 536835, Note_on_c, 0, 63, 93
1, 536836, Note_on_c, 0, 79, 79
1, 536841, Note_on_c, 0, 67, 67
1, 536844, Note_on_c, 0, 76, 72
1, 536852, Note_on_c, 0, 71, 63
1, 536869, Control_c, 0, 64, 80
1, 536884, Control_c, 0, 64, 60
1, 536899, Control_c, 0, 64, 29
1, 536914, Control_c, 0, 64, 0
1, 537078, Control_c, 0, 64, 44
1, 537093, Control_c, 0, 64, 57
1, 537108, Control_c, 0, 64, 62
1, 537122, Control_c, 0, 64, 66
1, 537137, Control_c, 0, 64, 68
1, 537152, Control_c, 0, 64, 71
1, 537167, Control_c, 0, 64, 76
1, 537182, Control_c, 0, 64, 82
1, 537196, Control_c, 0, 64, 88
1, 537211, Control_c, 0, 64, 93
1, 537226, Control_c, 0, 64, 99
1, 537241, Control_c, 0, 64, 107
1, 537255, Control_c, 0, 64, 120
1, 537270, Control_c, 0, 64, 127
1, 537361, Note_off_c, 0, 63, 61
1, 537374, Note_off_c, 0, 79, 58
1, 537397, Note_off_c, 0, 76, 41
1, 537415, Note_off_c, 0, 67, 61
1, 537416, Note_on_c, 0, 62, 84
1, 537423, Note_on_c, 0, 50, 73
1, 537427, Note_off_c, 0, 71, 60
1, 537480, Note_off_c, 0, 50, 63
1, 537486, Note_off_c, 0, 62, 60
1, 537492, Note_off_c, 0, 51, 59
1, 537555, Note_on_c, 0, 60, 84
1, 537560, Note_on_c, 0, 48, 85
1, 537627, Note_off_c, 0, 60, 61
1, 537632, Note_off_c, 0, 48, 63
1, 537662, Control_c, 0, 66, 0
1, 537715, Note_on_c, 0, 59, 87
1, 537716, Note_on_c, 0, 47, 80
1, 537719, Note_on_c, 0, 73, 74
1, 537725, Note_on_c, 0, 61, 64
1, 537728, Note_on_c, 0, 65, 61
1, 537731, Note_on_c, 0, 69, 63
1, 537736, Control_c, 0, 64, 97
1, 537751, Control_c, 0, 64, 71
1, 537766, Control_c, 0, 64, 51
1, 537781, Control_c, 0, 64, 0
1, 537825, Control_c, 0, 64, 39
1, 537840, Control_c, 0, 64, 55
1, 537856, Control_c, 0, 64, 64
1, 537870, Control_c, 0, 64, 70
1, 537885, Control_c, 0, 64, 77
1, 537900, Control_c, 0, 64, 83
1, 537915, Control_c, 0, 64, 89
1, 537930, Control_c, 0, 64, 98
1, 537944, Control_c, 0, 64, 112
1, 537959, Control_c, 0, 64, 127
1, 538021, Note_off_c, 0, 59, 62
1, 538274, Note_on_c, 0, 58, 77
1, 538276, Note_on_c, 0, 46, 72
1, 538285, Note_off_c, 0, 47, 60
1, 538307, Control_c, 0, 64, 83
1, 538322, Control_c, 0, 64, 62
1, 538337, Control_c, 0, 64, 37
1, 538351, Control_c, 0, 64, 0
1, 538366, Note_off_c, 0, 61, 61
1, 538366, Control_c, 0, 64, 35
1, 538381, Control_c, 0, 64, 55
1, 538391, Note_off_c, 0, 65, 57
1, 538396, Control_c, 0, 64, 72
1, 538411, Control_c, 0, 64, 95
1, 538413, Note_off_c, 0, 69, 58
1, 538425, Control_c, 0, 64, 127
1, 538436, Note_off_c, 0, 46, 63
1, 538459, Note_off_c, 0, 73, 64
1, 538501, Note_off_c, 0, 58, 63
1, 538699, Note_on_c, 0, 86, 85
1, 538703, Note_on_c, 0, 69, 70
1, 538706, Note_on_c, 0, 65, 63
1, 538709, Note_on_c, 0, 62, 68
1, 538711, Note_on_c, 0, 74, 70
1, 538711, Note_on_c, 0, 77, 63
1, 538711, Note_on_c, 0, 81, 71
1, 538737, Note_off_c, 0, 69, 61
1, 538755, Note_off_c, 0, 65, 57
1, 538780, Note_off_c, 0, 62, 62
1, 538976, Note_on_c, 0, 58, 88
1, 538978, Note_on_c, 0, 46, 78
1, 539150, Note_off_c, 0, 46, 58
1, 539156, Note_off_c, 0, 58, 57
1, 539255, Note_on_c, 0, 58, 93
1, 539256, Note_on_c, 0, 46, 83
1, 539275, Note_off_c, 0, 86, 60
1, 539296, Note_off_c, 0, 74, 41
1, 539312, Note_off_c, 0, 81, 57
1, 539332, Note_off_c, 0, 77, 62
1, 539367, Note_off_c, 0, 58, 60
1, 539369, Note_off_c, 0, 46, 60
1, 539443, Note_on_c, 0, 61, 101
1, 539449, Note_on_c, 0, 49, 78
1, 539560, Note_off_c, 0, 61, 64
1, 539656, Note_off_c, 0, 49, 0
1, 539673, Note_on_c, 0, 78, 91
1, 539677, Note_on_c, 0, 57, 93
1, 539679, Note_on_c, 0, 66, 80
1, 539680, Note_on_c, 0, 45, 88
1, 539683, Note_on_c, 0, 54, 76
1, 539683, Note_on_c, 0, 73, 76
1, 539683, Note_on_c, 0, 69, 73
1, 539693, Poly_aftertouch_c, 0, 49, 127
1, 539723, Control_c, 0, 64, 105
1, 539738, Control_c, 0, 64, 74
1, 539753, Control_c, 0, 64, 52
1, 539776, Control_c, 0, 64, 0
1, 539864, Control_c, 0, 64, 40
1, 539879, Control_c, 0, 64, 61
1, 539894, Control_c, 0, 64, 69
1, 539909, Control_c, 0, 64, 78
1, 539923, Control_c, 0, 64, 90
1, 539938, Control_c, 0, 64, 104
1, 539953, Control_c, 0, 64, 127
1, 540158, Note_off_c, 0, 57, 58
1, 540162, Note_off_c, 0, 45, 54
1, 540202, Poly_aftertouch_c, 0, 49, 0
1, 540210, Note_off_c, 0, 54, 57
1, 540332, Note_on_c, 0, 56, 98
1, 540334, Note_on_c, 0, 44, 92
1, 540376, Note_off_c, 0, 78, 58
1, 540408, Note_off_c, 0, 69, 60
1, 540408, Note_off_c, 0, 73, 61
1, 540414, Note_off_c, 0, 56, 61
1, 540430, Note_off_c, 0, 66, 63
1, 540432, Note_off_c, 0, 44, 63
1, 540508, Note_on_c, 0, 54, 99
1, 540510, Note_on_c, 0, 42, 98
1, 540554, Note_off_c, 0, 54, 66
1, 540586, Note_off_c, 0, 42, 63
1, 540604, Note_on_c, 0, 58, 29
1, 540641, Note_off_c, 0, 58, 41
1, 540783, Note_on_c, 0, 65, 97
1, 540784, Note_on_c, 0, 33, 81
1, 540784, Note_on_c, 0, 52, 90
1, 540784, Note_on_c, 0, 57, 86
1, 540786, Note_on_c, 0, 53, 94
1, 540786, Note_on_c, 0, 60, 86
1, 540786, Note_on_c, 0, 28, 98
1, 540787, Note_on_c, 0, 40, 97
1, 540806, Control_c, 0, 64, 90
1, 540821, Control_c, 0, 64, 60
1, 540836, Control_c, 0, 64, 0
1, 540910, Control_c, 0, 64, 36
1, 540912, Note_off_c, 0, 28, 64
1, 540922, Note_off_c, 0, 40, 63
1, 540925, Control_c, 0, 64, 61
1, 540926, Note_off_c, 0, 52, 64
1, 540931, Note_off_c, 0, 33, 63
1, 540933, Note_off_c, 0, 53, 64
1, 540937, Note_off_c, 0, 57, 63
1, 540940, Control_c, 0, 64, 87
1, 540953, Note_off_c, 0, 60, 63
1, 540954, Control_c, 0, 64, 127
1, 540974, Note_off_c, 0, 65, 69
1, 541154, Note_on_c, 0, 73, 32
1, 541186, Note_off_c, 0, 73, 53
1, 541222, Note_on_c, 0, 65, 104
1, 541222, Note_on_c, 0, 77, 106
1, 541280, Note_off_c, 0, 65, 57
1, 541472, Note_off_c, 0, 77, 61
1, 541749, Note_on_c, 0, 89, 101
1, 541751, Note_on_c, 0, 77, 101
1, 541757, Note_on_c, 0, 63, 81
1, 541757, Note_on_c, 0, 75, 89
1, 541758, Note_on_c, 0, 68, 78
1, 541760, Note_on_c, 0, 71, 88
1, 542051, Note_off_c, 0, 75, 61
1, 542125, Note_off_c, 0, 63, 58
1, 542146, Note_off_c, 0, 71, 57
1, 542181, Note_off_c, 0, 68, 59
1, 542241, Note_off_c, 0, 77, 59
1, 542411, Note_on_c, 0, 88, 94
1, 542417, Note_on_c, 0, 76, 86
1, 542450, Note_off_c, 0, 89, 61
1, 542903, Note_on_c, 0, 55, 74
1, 542904, Note_on_c, 0, 67, 90
1, 542906, Note_on_c, 0, 59, 73
1, 542906, Note_on_c, 0, 64, 80
1, 542948, Control_c, 0, 64, 81
1, 542963, Control_c, 0, 64, 55
1, 542978, Control_c, 0, 64, 0
1, 543022, Control_c, 0, 64, 33
1, 543037, Control_c, 0, 64, 57
1, 543052, Control_c, 0, 64, 70
1, 543067, Control_c, 0, 64, 87
1, 543082, Control_c, 0, 64, 127
1, 543120, Note_off_c, 0, 67, 59
1, 543201, Note_off_c, 0, 64, 63
1, 543243, Note_off_c, 0, 55, 52
1, 543245, Note_off_c, 0, 59, 63
1, 543314, Note_off_c, 0, 88, 57
1, 543379, Note_off_c, 0, 76, 63
1, 543931, Note_on_c, 0, 61, 90
1, 543935, Note_on_c, 0, 49, 99
1, 543935, Note_on_c, 0, 53, 94
1, 543937, Note_on_c, 0, 57, 91
1, 543939, Note_on_c, 0, 37, 89
1, 543943, Note_on_c, 0, 45, 87
1, 543947, Note_on_c, 0, 41, 80
1, 543968, Note_off_c, 0, 53, 66
1, 543978, Note_off_c, 0, 57, 65
1, 543982, Note_off_c, 0, 49, 65
1, 543991, Note_off_c, 0, 37, 62
1, 543991, Note_off_c, 0, 41, 63
1, 543992, Note_off_c, 0, 45, 65
1, 543997, Note_off_c, 0, 61, 68
1, 544270, Note_on_c, 0, 88, 98
1, 544272, Note_on_c, 0, 76, 99
1, 544279, Note_on_c, 0, 64, 100
1, 544447, Note_off_c, 0, 64, 60
1, 544462, Note_off_c, 0, 88, 61
1, 544468, Note_off_c, 0, 76, 58
1, 544536, Note_on_c, 0, 88, 100
1, 544540, Note_on_c, 0, 76, 95
1, 544545, Note_on_c, 0, 64, 93
1, 544658, Note_off_c, 0, 76, 57
1, 544663, Note_off_c, 0, 88, 62
1, 544664, Note_off_c, 0, 64, 59
1, 544738, Note_on_c, 0, 88, 98
1, 544739, Note_on_c, 0, 76, 103
1, 544741, Note_on_c, 0, 64, 91
1, 544802, Note_off_c, 0, 76, 58
1, 544814, Note_off_c, 0, 64, 60
1, 544815, Note_off_c, 0, 88, 64
1, 544882, Note_on_c, 0, 76, 104
1, 544882, Note_on_c, 0, 88, 102
1, 544882, Note_on_c, 0, 64, 96
1, 544922, Note_off_c, 0, 88, 68
1, 544936, Note_off_c, 0, 76, 63
1, 544940, Note_off_c, 0, 64, 65
1, 545032, Control_c, 0, 64, 109
1, 545046, Note_on_c, 0, 74, 93
1, 545048, Note_on_c, 0, 62, 93
1, 545048, Control_c, 0, 64, 73
1, 545049, Note_on_c, 0, 65, 94
1, 545052, Note_on_c, 0, 53, 75
1, 545052, Note_on_c, 0, 69, 88
1, 545052, Note_on_c, 0, 57, 79
1, 545058, Note_on_c, 0, 50, 70
1, 545063, Control_c, 0, 64, 53
1, 545077, Control_c, 0, 64, 42
1, 545092, Control_c, 0, 64, 49
1, 545107, Control_c, 0, 64, 63
1, 545121, Note_off_c, 0, 65, 62
1, 545122, Control_c, 0, 64, 82
1, 545129, Note_off_c, 0, 50, 63
1, 545137, Control_c, 0, 64, 127
1, 545138, Note_off_c, 0, 69, 62
1, 545141, Note_off_c, 0, 53, 61
1, 545150, Note_off_c, 0, 57, 64
1, 545162, Note_off_c, 0, 74, 65
1, 545184, Note_off_c, 0, 62, 62
1, 545257, Note_on_c, 0, 88, 101
1, 545258, Note_on_c, 0, 64, 96
1, 545261, Note_on_c, 0, 76, 93
1, 545397, Note_off_c, 0, 76, 60
1, 545403, Note_off_c, 0, 64, 64
1, 545416, Note_off_c, 0, 88, 63
1, 545485, Note_on_c, 0, 88, 109
1, 545487, Note_on_c, 0, 76, 104
1, 545489, Note_on_c, 0, 64, 97
1, 545550, Note_off_c, 0, 76, 59
1, 545730, Note_off_c, 0, 64, 61
1, 545744, Note_off_c, 0, 88, 62
1, 545785, Note_on_c, 0, 67, 96
1, 545789, Note_on_c, 0, 91, 109
1, 545791, Note_on_c, 0, 79, 96
1, 545815, Note_off_c, 0, 67, 68
1, 545940, Note_on_c, 0, 42, 86
1, 545941, Note_on_c, 0, 46, 85
1, 546009, Note_off_c, 0, 42, 63
1, 546010, Note_off_c, 0, 91, 62
1, 546014, Note_off_c, 0, 79, 64
1, 546031, Note_off_c, 0, 46, 62
1, 546040, Note_on_c, 0, 51, 77
1, 546065, Note_off_c, 0, 51, 65
1, 546135, Note_on_c, 0, 54, 79
1, 546138, Note_on_c, 0, 58, 81
1, 546237, Note_on_c, 0, 87, 101
1, 546238, Note_on_c, 0, 75, 105
1, 546244, Note_on_c, 0, 63, 106
1, 546255, Control_c, 0, 64, 89
1, 546270, Control_c, 0, 64, 74
1, 546283, Note_off_c, 0, 58, 63
1, 546284, Control_c, 0, 64, 72
1, 546294, Note_off_c, 0, 63, 69
1, 546295, Note_off_c, 0, 54, 63
1, 546299, Control_c, 0, 64, 78
1, 546314, Control_c, 0, 64, 98
1, 546329, Control_c, 0, 64, 127
1, 546784, Note_off_c, 0, 87, 58
1, 546842, Note_off_c, 0, 75, 59
1, 547368, Note_on_c, 0, 72, 97
1, 547370, Note_on_c, 0, 64, 96
1, 547371, Note_on_c, 0, 67, 106
1, 547374, Note_on_c, 0, 55, 90
1, 547375, Note_on_c, 0, 60, 97
1, 547377, Note_on_c, 0, 52, 93
1, 547396, Control_c, 0, 64, 81
1, 547411, Control_c, 0, 64, 41
1, 547426, Control_c, 0, 64, 0
1, 547487, Control_c, 0, 64, 52
1, 547502, Control_c, 0, 64, 81
1, 547517, Control_c, 0, 64, 127
1, 547555, Note_off_c, 0, 64, 59
1, 547584, Note_off_c, 0, 55, 61
1, 547589, Note_off_c, 0, 52, 57
1, 547593, Note_off_c, 0, 67, 63
1, 547605, Note_off_c, 0, 60, 61
1, 547620, Note_off_c, 0, 72, 62
1, 547919, Note_on_c, 0, 90, 114
1, 547922, Note_on_c, 0, 78, 107
1, 547924, Note_on_c, 0, 66, 106
1, 547957, Note_off_c, 0, 66, 72
1, 547979, Note_off_c, 0, 78, 64
1, 547982, Note_off_c, 0, 90, 68
1, 548506, Note_on_c, 0, 51, 101
1, 548506, Note_on_c, 0, 56, 106
1, 548507, Note_on_c, 0, 59, 97
1, 548508, Note_on_c, 0, 44, 98
1, 548508, Note_on_c, 0, 47, 95
1, 548509, Note_on_c, 0, 39, 94
1, 548548, Note_off_c, 0, 47, 68
1, 548549, Note_off_c, 0, 39, 66
1, 548550, Note_off_c, 0, 44, 68
1, 548551, Note_off_c, 0, 51, 65
1, 548562, Note_off_c, 0, 56, 65
1, 548569, Note_off_c, 0, 59, 66
1, 548990, Note_on_c, 0, 67, 101
1, 548993, Note_on_c, 0, 79, 99
1, 548993, Note_on_c, 0, 91, 100
1, 549185, Note_off_c, 0, 79, 59
1, 549207, Note_off_c, 0, 91, 64
1, 549276, Note_on_c, 0, 69, 91
1, 549279, Note_off_c, 0, 67, 61
1, 549282, Note_on_c, 0, 81, 105
1, 549282, Note_on_c, 0, 93, 114
1, 549319, Note_off_c, 0, 69, 66
1, 549525, Note_off_c, 0, 93, 66
1, 549552, Note_off_c, 0, 81, 58
1, 549560, Note_on_c, 0, 55, 66
1, 549576, Note_on_c, 0, 58, 73
1, 549640, Note_on_c, 0, 62, 70
1, 549696, Note_on_c, 0, 94, 99
1, 549699, Note_on_c, 0, 82, 105
1, 549699, Note_on_c, 0, 86, 109
1, 549708, Note_on_c, 0, 70, 102
1, 549762, Control_c, 0, 64, 85
1, 549777, Control_c, 0, 64, 56
1, 549792, Control_c, 0, 64, 36
1, 549807, Control_c, 0, 64, 44
1, 549821, Control_c, 0, 64, 64
1, 549837, Control_c, 0, 64, 88
1, 549852, Control_c, 0, 64, 127
1, 550128, Note_off_c, 0, 55, 57
1, 550128, Note_off_c, 0, 62, 62
1, 550135, Note_off_c, 0, 58, 60
1, 550197, Note_off_c, 0, 70, 56
1, 550228, Note_off_c, 0, 94, 63
1, 550237, Note_off_c, 0, 82, 55
1, 550353, Note_on_c, 0, 93, 102
1, 550355, Note_on_c, 0, 81, 98
1, 550358, Note_on_c, 0, 69, 93
1, 550378, Note_off_c, 0, 86, 59
1, 550423, Note_off_c, 0, 93, 64
1, 550425, Note_off_c, 0, 81, 56
1, 550433, Note_off_c, 0, 69, 59
1, 550462, Note_on_c, 0, 67, 93
1, 550483, Note_on_c, 0, 91, 96
1, 550485, Note_on_c, 0, 79, 97
1, 550496, Note_off_c, 0, 67, 68
1, 550578, Note_off_c, 0, 79, 63
1, 550579, Note_on_c, 0, 49, 71
1, 550593, Note_off_c, 0, 91, 64
1, 550618, Note_off_c, 0, 49, 56
1, 550623, Note_on_c, 0, 54, 38
1, 550631, Note_on_c, 0, 53, 57
1, 550644, Note_on_c, 0, 57, 64
1, 550675, Note_on_c, 0, 85, 90
1, 550678, Note_on_c, 0, 90, 98
1, 550680, Note_on_c, 0, 78, 104
1, 550695, Note_on_c, 0, 66, 88
1, 550719, Control_c, 0, 64, 86
1, 550734, Control_c, 0, 64, 62
1, 550748, Control_c, 0, 64, 45
1, 550763, Control_c, 0, 64, 41
1, 550778, Control_c, 0, 64, 46
1, 550793, Control_c, 0, 64, 60
1, 550807, Control_c, 0, 64, 71
1, 550822, Control_c, 0, 64, 89
1, 550837, Control_c, 0, 64, 127
1, 551100, Note_off_c, 0, 53, 27
1, 551115, Note_off_c, 0, 90, 60
1, 551124, Note_off_c, 0, 66, 59
1, 551144, Note_off_c, 0, 78, 56
1, 551166, Note_off_c, 0, 57, 51
1, 551170, Note_off_c, 0, 54, 57
1, 551196, Note_on_c, 0, 89, 91
1, 551201, Note_on_c, 0, 77, 90
1, 551202, Note_on_c, 0, 65, 78
1, 551334, Note_off_c, 0, 89, 59
1, 551358, Note_off_c, 0, 85, 62
1, 551391, Note_off_c, 0, 77, 62
1, 551473, Note_off_c, 0, 65, 53
1, 551637, Note_on_c, 0, 74, 96
1, 551637, Note_on_c, 0, 62, 90
1, 551638, Note_on_c, 0, 65, 88
1, 551640, Note_on_c, 0, 57, 73
1, 551642, Note_on_c, 0, 69, 84
1, 551648, Note_on_c, 0, 53, 76
1, 551651, Note_on_c, 0, 50, 70
1, 551661, Control_c, 0, 64, 85
1, 551676, Control_c, 0, 64, 69
1, 551690, Control_c, 0, 64, 65
1, 551705, Control_c, 0, 64, 68
1, 551720, Control_c, 0, 64, 77
1, 551727, Note_off_c, 0, 65, 61
1, 551735, Control_c, 0, 64, 106
1, 551739, Note_off_c, 0, 50, 59
1, 551744, Note_off_c, 0, 57, 63
1, 551753, Note_off_c, 0, 69, 63
1, 551754, Note_off_c, 0, 53, 61
1, 551756, Control_c, 0, 64, 127
1, 551787, Note_off_c, 0, 74, 65
1, 551837, Note_off_c, 0, 62, 60
1, 551895, Note_on_c, 0, 65, 93
1, 551898, Note_on_c, 0, 89, 103
1, 551902, Note_on_c, 0, 77, 96
1, 552058, Note_off_c, 0, 77, 61
1, 552065, Note_off_c, 0, 65, 63
1, 552075, Note_off_c, 0, 89, 61
1, 552126, Note_on_c, 0, 89, 96
1, 552129, Note_on_c, 0, 77, 102
1, 552131, Note_on_c, 0, 65, 98
1, 552251, Note_off_c, 0, 77, 59
1, 552254, Note_off_c, 0, 89, 63
1, 552260, Note_off_c, 0, 65, 63
1, 552325, Note_on_c, 0, 77, 112
1, 552325, Note_on_c, 0, 89, 102
1, 552325, Note_on_c, 0, 65, 102
1, 552416, Note_off_c, 0, 77, 63
1, 552440, Note_off_c, 0, 89, 65
1, 552449, Note_off_c, 0, 65, 58
1, 552507, Note_on_c, 0, 68, 101
1, 552514, Note_on_c, 0, 80, 107
1, 552514, Note_on_c, 0, 92, 110
1, 552535, Note_off_c, 0, 68, 67
1, 552603, Poly_aftertouch_c, 0, 79, 127
1, 552627, Poly_aftertouch_c, 0, 79, 0
1, 552653, Control_c, 0, 64, 120
1, 552665, Note_on_c, 0, 30, 99
1, 552665, Note_on_c, 0, 42, 106
1, 552668, Control_c, 0, 64, 100
1, 552684, Note_off_c, 0, 92, 66
1, 552705, Note_off_c, 0, 80, 54
1, 552709, Note_off_c, 0, 30, 63
1, 552712, Control_c, 0, 64, 127
1, 552730, Note_off_c, 0, 42, 60
1, 552898, Note_on_c, 0, 88, 100
1, 552898, Note_on_c, 0, 64, 108
1, 552899, Note_on_c, 0, 76, 106
1, 552905, Note_on_c, 0, 52, 92
1, 552906, Note_on_c, 0, 82, 111
1, 552909, Note_on_c, 0, 58, 89
1, 552915, Note_on_c, 0, 54, 80
1, 552930, Note_off_c, 0, 64, 72
1, 552934, Note_off_c, 0, 58, 67
1, 552935, Note_off_c, 0, 52, 62
1, 552939, Note_off_c, 0, 54, 66
1, 552939, Note_off_c, 0, 88, 68
1, 552956, Note_on_c, 0, 85, 5
1, 552956, Note_off_c, 0, 85, 127
1, 552958, Note_off_c, 0, 76, 70
1, 552960, Note_off_c, 0, 82, 69
1, 553292, Note_on_c, 0, 53, 99
1, 553297, Note_on_c, 0, 41, 102
1, 553303, Note_on_c, 0, 29, 94
1, 553399, Note_off_c, 0, 41, 64
1, 553433, Note_off_c, 0, 29, 59
1, 553525, Note_off_c, 0, 53, 61
1, 553535, Control_c, 0, 64, 88
1, 553545, Note_on_c, 0, 49, 100
1, 553550, Control_c, 0, 64, 65
1, 553556, Note_on_c, 0, 25, 96
1, 553556, Note_on_c, 0, 37, 101
1, 553565, Control_c, 0, 64, 57
1, 553580, Control_c, 0, 64, 61
1, 553595, Control_c, 0, 64, 70
1, 553598, Note_off_c, 0, 37, 58
1, 553603, Note_off_c, 0, 25, 61
1, 553609, Control_c, 0, 64, 91
1, 553624, Control_c, 0, 64, 127
1, 553756, Note_off_c, 0, 49, 59
1, 553777, Note_on_c, 0, 27, 97
1, 553783, Note_on_c, 0, 39, 79
1, 553787, Note_on_c, 0, 51, 80
1, 553806, Note_off_c, 0, 27, 65
1, 553808, Note_off_c, 0, 39, 65
1, 553838, Note_on_c, 0, 48, 105
1, 553852, Note_on_c, 0, 24, 110
1, 553852, Note_on_c, 0, 36, 98
1, 553862, Control_c, 0, 64, 79
1, 553868, Note_off_c, 0, 51, 63
1, 553877, Control_c, 0, 64, 41
1, 553891, Control_c, 0, 64, 0
1, 553921, Control_c, 0, 64, 29
1, 553936, Control_c, 0, 64, 61
1, 553950, Control_c, 0, 64, 76
1, 553965, Control_c, 0, 64, 94
1, 553980, Control_c, 0, 64, 124
1, 554003, Control_c, 0, 64, 127
1, 554087, Note_off_c, 0, 36, 53
1, 554299, Note_off_c, 0, 24, 62
1, 554314, Note_off_c, 0, 48, 62
1, 554349, Note_on_c, 0, 47, 109
1, 554354, Note_on_c, 0, 35, 105
1, 554355, Note_on_c, 0, 23, 101
1, 554388, Control_c, 0, 64, 76
1, 554403, Control_c, 0, 64, 0
1, 554522, Control_c, 0, 66, 127
1, 554551, Control_c, 0, 64, 50
1, 554566, Control_c, 0, 64, 66
1, 554581, Control_c, 0, 64, 70
1, 554582, Note_off_c, 0, 23, 64
1, 554596, Control_c, 0, 64, 74
1, 554611, Control_c, 0, 64, 78
1, 554618, Note_off_c, 0, 35, 66
1, 554622, Note_off_c, 0, 47, 67
1, 554627, Control_c, 0, 64, 84
1, 554642, Control_c, 0, 64, 88
1, 554656, Control_c, 0, 64, 93
1, 554671, Control_c, 0, 64, 102
1, 554686, Control_c, 0, 64, 127
1, 555009, Note_on_c, 0, 106, 118
1, 555013, Note_on_c, 0, 99, 115
1, 555016, Note_on_c, 0, 75, 100
1, 555016, Note_on_c, 0, 82, 102
1, 555028, Note_on_c, 0, 107, 76
1, 555048, Note_off_c, 0, 82, 71
1, 555050, Note_off_c, 0, 99, 65
1, 555052, Note_off_c, 0, 107, 65
1, 555056, Note_off_c, 0, 75, 69
1, 555065, Note_off_c, 0, 106, 66
1, 555681, Note_on_c, 0, 98, 107
1, 555682, Note_on_c, 0, 90, 103
1, 555688, Note_on_c, 0, 74, 101
1, 555689, Note_on_c, 0, 66, 99
1, 556311, Note_off_c, 0, 98, 52
1, 556358, Note_off_c, 0, 74, 54
1, 556379, Note_on_c, 0, 92, 105
1, 556379, Note_on_c, 0, 84, 93
1, 556382, Note_on_c, 0, 68, 86
1, 556390, Note_on_c, 0, 60, 80
1, 556394, Note_off_c, 0, 66, 61
1, 556404, Note_off_c, 0, 90, 68
1, 556418, Note_off_c, 0, 68, 67
1, 556428, Note_off_c, 0, 84, 66
1, 556434, Note_off_c, 0, 92, 69
1, 556435, Note_off_c, 0, 60, 66
1, 556656, Note_on_c, 0, 81, 96
1, 556658, Note_on_c, 0, 76, 95
1, 556661, Note_on_c, 0, 52, 87
1, 556663, Note_on_c, 0, 57, 75
1, 556687, Note_off_c, 0, 57, 67
1, 556692, Note_off_c, 0, 52, 64
1, 556692, Note_off_c, 0, 76, 70
1, 556701, Note_off_c, 0, 81, 65
1, 556770, Poly_aftertouch_c, 0, 78, 0
1, 556874, Note_on_c, 0, 73, 90
1, 556877, Note_on_c, 0, 65, 98
1, 556880, Note_on_c, 0, 49, 92
1, 556881, Note_on_c, 0, 41, 84
1, 556916, Note_on_c, 0, 66, 27
1, 556916, Note_off_c, 0, 66, 127
1, 556937, Note_off_c, 0, 49, 63
1, 556972, Note_off_c, 0, 73, 58
1, 557080, Note_off_c, 0, 65, 60
1, 557090, Note_off_c, 0, 41, 62
1, 557117, Control_c, 0, 64, 78
1, 557118, Note_on_c, 0, 67, 87
1, 557119, Note_on_c, 0, 59, 96
1, 557125, Note_on_c, 0, 43, 99
1, 557128, Note_on_c, 0, 35, 93
1, 557131, Control_c, 0, 64, 52
1, 557146, Control_c, 0, 64, 0
1, 557214, Note_off_c, 0, 35, 62
1, 557221, Control_c, 0, 64, 45
1, 557236, Control_c, 0, 64, 65
1, 557250, Note_off_c, 0, 59, 61
1, 557250, Note_off_c, 0, 43, 64
1, 557250, Control_c, 0, 64, 74
1, 557265, Control_c, 0, 64, 89
1, 557280, Control_c, 0, 64, 101
1, 557295, Control_c, 0, 64, 127
1, 557302, Note_off_c, 0, 67, 64
1, 557536, Note_on_c, 0, 94, 111
1, 557538, Note_on_c, 0, 87, 98
1, 557542, Note_on_c, 0, 70, 100
1, 557553, Note_on_c, 0, 63, 90
1, 557572, Note_on_c, 0, 62, 69
1, 557578, Note_off_c, 0, 70, 69
1, 557592, Note_off_c, 0, 62, 65
1, 557601, Note_off_c, 0, 63, 61
1, 557957, Note_off_c, 0, 87, 56
1, 557972, Note_off_c, 0, 94, 59
1, 558028, Note_on_c, 0, 94, 109
1, 558034, Note_on_c, 0, 87, 100
1, 558036, Note_on_c, 0, 70, 100
1, 558039, Note_on_c, 0, 63, 90
1, 558163, Note_off_c, 0, 70, 64
1, 558179, Note_off_c, 0, 63, 63
1, 558325, Note_off_c, 0, 87, 58
1, 558412, Note_off_c, 0, 94, 61
1, 558598, Note_on_c, 0, 86, 97
1, 558600, Note_on_c, 0, 54, 88
1, 558603, Note_on_c, 0, 62, 91
1, 558609, Note_on_c, 0, 78, 92
1, 558660, Control_c, 0, 64, 99
1, 558675, Control_c, 0, 64, 74
1, 558690, Control_c, 0, 64, 56
1, 558704, Control_c, 0, 64, 0
1, 558763, Control_c, 0, 64, 33
1, 558778, Control_c, 0, 64, 46
1, 558793, Control_c, 0, 64, 62
1, 558808, Control_c, 0, 64, 69
1, 558822, Control_c, 0, 64, 77
1, 558837, Control_c, 0, 64, 83
1, 558852, Control_c, 0, 64, 90
1, 558867, Control_c, 0, 64, 101
1, 558882, Control_c, 0, 64, 127
1, 559148, Note_off_c, 0, 86, 51
1, 559184, Note_off_c, 0, 62, 58
1, 559190, Note_on_c, 0, 80, 93
1, 559193, Note_on_c, 0, 56, 85
1, 559198, Note_on_c, 0, 72, 88
1, 559209, Note_on_c, 0, 48, 80
1, 559227, Note_off_c, 0, 54, 59
1, 559232, Note_off_c, 0, 78, 58
1, 559280, Note_off_c, 0, 80, 68
1, 559319, Note_off_c, 0, 72, 64
1, 559376, Note_off_c, 0, 56, 61
1, 559409, Note_on_c, 0, 69, 90
1, 559412, Note_off_c, 0, 48, 61
1, 559417, Note_on_c, 0, 64, 90
1, 559422, Note_on_c, 0, 57, 81
1, 559423, Note_on_c, 0, 52, 68
1, 559432, Note_on_c, 0, 53, 75
1, 559505, Note_off_c, 0, 57, 59
1, 559521, Note_off_c, 0, 53, 56
1, 559524, Note_off_c, 0, 69, 59
1, 559554, Note_off_c, 0, 64, 58
1, 559560, Note_on_c, 0, 48, 87
1, 559560, Note_on_c, 0, 53, 67
1, 559563, Note_on_c, 0, 65, 87
1, 559564, Note_on_c, 0, 60, 83
1, 559564, Note_off_c, 0, 52, 39
1, 559583, Note_off_c, 0, 53, 69
1, 559598, Note_off_c, 0, 48, 62
1, 559609, Note_off_c, 0, 65, 65
1, 559614, Note_off_c, 0, 60, 65
1, 559696, Note_on_c, 0, 49, 83
1, 559701, Note_on_c, 0, 61, 86
1, 559703, Note_on_c, 0, 41, 78
1, 559712, Note_on_c, 0, 53, 73
1, 559718, Note_on_c, 0, 52, 82
1, 559751, Note_off_c, 0, 49, 44
1, 559778, Control_c, 0, 64, 79
1, 559793, Control_c, 0, 64, 57
1, 559797, Note_off_c, 0, 52, 40
1, 559801, Note_off_c, 0, 61, 60
1, 559808, Control_c, 0, 64, 0
1, 559821, Note_off_c, 0, 41, 63
1, 559837, Note_off_c, 0, 53, 60
1, 559845, Note_on_c, 0, 55, 87
1, 559849, Note_on_c, 0, 35, 85
1, 559852, Note_on_c, 0, 43, 87
1, 559852, Control_c, 0, 64, 36
1, 559853, Note_on_c, 0, 48, 90
1, 559867, Control_c, 0, 64, 59
1, 559877, Note_off_c, 0, 48, 66
1, 559882, Control_c, 0, 64, 69
1, 559889, Note_on_c, 0, 54, 20
1, 559889, Note_off_c, 0, 54, 127
1, 559897, Control_c, 0, 64, 77
1, 559899, Note_off_c, 0, 35, 64
1, 559902, Note_off_c, 0, 55, 65
1, 559912, Control_c, 0, 64, 87
1, 559918, Note_off_c, 0, 43, 63
1, 559927, Control_c, 0, 64, 93
1, 559942, Control_c, 0, 64, 97
1, 559956, Control_c, 0, 64, 99
1, 559969, Poly_aftertouch_c, 0, 50, 0
1, 560000, Note_on_c, 0, 70, 91
1, 560003, Note_on_c, 0, 63, 98
1, 560047, Note_off_c, 0, 70, 65
1, 560049, Note_off_c, 0, 63, 63
1, 560052, Control_c, 0, 64, 101
1, 560123, Note_on_c, 0, 54, 86
1, 560126, Note_on_c, 0, 62, 84
1, 560126, Control_c, 0, 66, 0
1, 560172, Note_off_c, 0, 62, 62
1, 560220, Note_on_c, 0, 56, 90
1, 560223, Note_on_c, 0, 48, 95
1, 560240, Note_off_c, 0, 56, 71
1, 560270, Note_off_c, 0, 48, 67
1, 560281, Note_off_c, 0, 54, 26
1, 560291, Control_c, 0, 64, 99
1, 560306, Control_c, 0, 64, 95
1, 560320, Control_c, 0, 64, 90
1, 560322, Note_on_c, 0, 57, 90
1, 560325, Note_on_c, 0, 52, 92
1, 560335, Control_c, 0, 64, 83
1, 560347, Poly_aftertouch_c, 0, 55, 0
1, 560350, Control_c, 0, 64, 77
1, 560365, Control_c, 0, 64, 70
1, 560380, Control_c, 0, 64, 65
1, 560383, Note_off_c, 0, 52, 58
1, 560391, Note_off_c, 0, 57, 61
1, 560395, Control_c, 0, 64, 60
1, 560410, Control_c, 0, 64, 55
1, 560424, Control_c, 0, 64, 52
1, 560427, Note_on_c, 0, 41, 78
1, 560431, Note_on_c, 0, 49, 83
1, 560439, Note_on_c, 0, 40, 59
1, 560439, Control_c, 0, 64, 51
1, 560467, Note_off_c, 0, 40, 56
1, 560477, Note_off_c, 0, 49, 64
1, 560484, Control_c, 0, 64, 51
1, 560499, Control_c, 0, 64, 54
1, 560513, Control_c, 0, 64, 58
1, 560528, Control_c, 0, 64, 63
1, 560535, Note_on_c, 0, 35, 94
1, 560535, Note_on_c, 0, 43, 91
1, 560543, Control_c, 0, 64, 68
1, 560558, Control_c, 0, 64, 70
1, 560559, Note_off_c, 0, 41, 64
1, 560573, Control_c, 0, 64, 71
1, 560588, Note_off_c, 0, 35, 65
1, 560589, Note_off_c, 0, 43, 64
1, 560627, Note_on_c, 0, 58, 99
1, 560634, Note_on_c, 0, 51, 90
1, 560678, Note_off_c, 0, 51, 58
1, 560682, Note_off_c, 0, 58, 61
1, 560747, Note_on_c, 0, 42, 99
1, 560748, Note_on_c, 0, 50, 93
1, 560781, Note_off_c, 0, 50, 62
1, 560788, Control_c, 0, 64, 70
1, 560802, Control_c, 0, 64, 70
1, 560817, Control_c, 0, 64, 69
1, 560832, Control_c, 0, 64, 68
1, 560842, Note_off_c, 0, 42, 51
1, 560842, Note_on_c, 0, 44, 92
1, 560845, Note_on_c, 0, 36, 93
1, 560846, Control_c, 0, 64, 67
1, 560861, Control_c, 0, 64, 67
1, 560866, Note_off_c, 0, 44, 71
1, 560876, Control_c, 0, 64, 66
1, 560891, Control_c, 0, 64, 64
1, 560892, Note_off_c, 0, 36, 65
1, 560904, Note_on_c, 0, 43, 16
1, 560906, Control_c, 0, 64, 63
1, 560919, Control_c, 0, 64, 62
1, 560947, Note_off_c, 0, 43, 46
1, 560964, Note_on_c, 0, 45, 103
1, 560967, Note_on_c, 0, 40, 100
1, 560994, Note_off_c, 0, 40, 64
1, 561007, Note_off_c, 0, 45, 63
1, 561069, Control_c, 0, 64, 59
1, 561084, Control_c, 0, 64, 51
1, 561098, Control_c, 0, 64, 42
1, 561113, Control_c, 0, 64, 45
1, 561122, Note_on_c, 0, 29, 97
1, 561122, Note_on_c, 0, 37, 104
1, 561128, Control_c, 0, 64, 55
1, 561143, Control_c, 0, 64, 67
1, 561158, Control_c, 0, 64, 80
1, 561167, Note_off_c, 0, 37, 66
1, 561170, Note_off_c, 0, 29, 64
1, 561173, Control_c, 0, 64, 99
1, 561188, Control_c, 0, 64, 117
1, 561203, Control_c, 0, 64, 127
1, 561391, Note_on_c, 0, 34, 116
1, 561393, Note_on_c, 0, 22, 104
1, 561409, Control_c, 0, 64, 94
1, 561424, Control_c, 0, 64, 56
1, 561439, Control_c, 0, 64, 0
1, 561441, Note_on_c, 0, 35, 36
1, 561492, Note_off_c, 0, 35, 30
1, 561550, Control_c, 0, 66, 127
1, 561580, Control_c, 0, 64, 44
1, 561595, Control_c, 0, 64, 74
1, 561610, Note_off_c, 0, 22, 62
1, 561610, Control_c, 0, 64, 84
1, 561624, Control_c, 0, 64, 89
1, 561637, Note_off_c, 0, 34, 67
1, 561639, Control_c, 0, 64, 90
1, 561654, Control_c, 0, 64, 98
1, 561668, Control_c, 0, 64, 103
1, 561683, Control_c, 0, 64, 107
1, 561698, Control_c, 0, 64, 112
1, 561713, Control_c, 0, 64, 118
1, 561728, Control_c, 0, 64, 127
1, 562010, Note_on_c, 0, 46, 70
1, 562079, Note_on_c, 0, 52, 76
1, 562141, Note_on_c, 0, 69, 96
1, 562144, Note_on_c, 0, 60, 103
1, 562144, Note_on_c, 0, 72, 100
1, 562146, Note_on_c, 0, 64, 104
1, 562147, Note_on_c, 0, 57, 105
1, 562464, Note_off_c, 0, 57, 55
1, 562763, Note_on_c, 0, 56, 92
1, 562763, Note_on_c, 0, 68, 85
1, 562799, Note_off_c, 0, 69, 52
1, 562903, Note_off_c, 0, 60, 58
1, 562952, Note_off_c, 0, 64, 61
1, 563000, Note_off_c, 0, 68, 61
1, 563020, Note_off_c, 0, 72, 63
1, 563093, Note_off_c, 0, 46, 58
1, 563147, Note_off_c, 0, 56, 57
1, 563326, Note_off_c, 0, 52, 36
1, 563343, Note_on_c, 0, 76, 91
1, 563453, Note_on_c, 0, 61, 94
1, 563456, Note_on_c, 0, 49, 82
1, 563482, Note_off_c, 0, 76, 64
1, 563483, Note_off_c, 0, 49, 66
1, 563489, Note_on_c, 0, 77, 87
1, 563500, Note_off_c, 0, 61, 62
1, 563563, Note_on_c, 0, 65, 97
1, 563569, Note_on_c, 0, 53, 78
1, 563588, Note_on_c, 0, 78, 88
1, 563600, Note_off_c, 0, 65, 65
1, 563609, Note_on_c, 0, 55, 32
1, 563611, Note_off_c, 0, 53, 61
1, 563611, Note_off_c, 0, 77, 61
1, 563647, Note_off_c, 0, 55, 50
1, 563663, Note_on_c, 0, 64, 96
1, 563667, Note_on_c, 0, 52, 96
1, 563683, Note_on_c, 0, 62, 63
1, 563693, Note_off_c, 0, 64, 70
1, 563701, Note_off_c, 0, 52, 65
1, 563704, Note_off_c, 0, 62, 64
1, 563709, Note_on_c, 0, 82, 93
1, 563713, Note_on_c, 0, 80, 93
1, 563739, Note_off_c, 0, 78, 38
1, 563888, Note_off_c, 0, 80, 58
1, 563900, Note_on_c, 0, 79, 89
1, 563909, Note_off_c, 0, 82, 58
1, 563986, Note_off_c, 0, 79, 42
1, 563990, Note_on_c, 0, 78, 97
1, 564035, Note_off_c, 0, 78, 61
1, 564048, Control_c, 0, 66, 0
1, 564067, Note_on_c, 0, 77, 103
1, 564105, Note_off_c, 0, 77, 66
1, 564151, Control_c, 0, 64, 90
1, 564166, Control_c, 0, 64, 50
1, 564172, Note_on_c, 0, 22, 98
1, 564174, Note_on_c, 0, 34, 109
1, 564181, Control_c, 0, 64, 0
1, 564241, Control_c, 0, 66, 127
1, 564374, Control_c, 0, 64, 32
1, 564389, Control_c, 0, 64, 48
1, 564404, Control_c, 0, 64, 60
1, 564419, Control_c, 0, 64, 64
1, 564422, Note_off_c, 0, 22, 60
1, 564434, Control_c, 0, 64, 67
1, 564449, Control_c, 0, 64, 71
1, 564464, Control_c, 0, 64, 77
1, 564485, Control_c, 0, 64, 82
1, 564486, Note_off_c, 0, 34, 61
1, 564500, Control_c, 0, 64, 87
1, 564515, Control_c, 0, 64, 92
1, 564530, Control_c, 0, 64, 99
1, 564545, Control_c, 0, 64, 107
1, 564559, Control_c, 0, 64, 117
1, 564574, Control_c, 0, 64, 127
1, 564800, Note_on_c, 0, 46, 75
1, 564828, Note_on_c, 0, 52, 81
1, 564905, Note_on_c, 0, 69, 94
1, 564905, Note_on_c, 0, 72, 97
1, 564906, Note_on_c, 0, 57, 100
1, 564907, Note_on_c, 0, 60, 102
1, 564908, Note_on_c, 0, 64, 99
1, 564915, Control_c, 0, 64, 73
1, 564930, Control_c, 0, 64, 46
1, 564945, Control_c, 0, 64, 0
1, 564974, Control_c, 0, 64, 40
1, 564989, Control_c, 0, 64, 63
1, 565005, Control_c, 0, 64, 76
1, 565020, Control_c, 0, 64, 95
1, 565035, Control_c, 0, 64, 102
1, 565049, Control_c, 0, 64, 107
1, 565064, Control_c, 0, 64, 114
1, 565079, Control_c, 0, 64, 127
1, 565236, Note_off_c, 0, 57, 59
1, 565245, Note_off_c, 0, 69, 58
1, 565321, Note_on_c, 0, 57, 96
1, 565321, Note_on_c, 0, 69, 93
1, 565445, Note_off_c, 0, 57, 62
1, 565453, Note_off_c, 0, 69, 61
1, 565509, Note_on_c, 0, 57, 94
1, 565513, Note_on_c, 0, 69, 87
1, 565584, Note_off_c, 0, 57, 62
1, 565618, Note_off_c, 0, 69, 57
1, 565657, Note_on_c, 0, 68, 92
1, 565658, Note_on_c, 0, 56, 97
1, 565679, Control_c, 0, 64, 105
1, 565694, Control_c, 0, 64, 73
1, 565708, Control_c, 0, 64, 49
1, 565723, Control_c, 0, 64, 0
1, 565813, Control_c, 0, 64, 33
1, 565828, Control_c, 0, 64, 60
1, 565843, Control_c, 0, 64, 66
1, 565857, Control_c, 0, 64, 69
1, 565872, Control_c, 0, 64, 72
1, 565880, Note_off_c, 0, 60, 50
1, 565887, Control_c, 0, 64, 77
1, 565902, Control_c, 0, 64, 83
1, 565917, Control_c, 0, 64, 91
1, 565927, Note_off_c, 0, 64, 62
1, 565931, Control_c, 0, 64, 103
1, 565946, Control_c, 0, 64, 127
1, 565955, Note_off_c, 0, 68, 62
1, 565988, Note_off_c, 0, 72, 65
1, 566097, Note_off_c, 0, 46, 56
1, 566161, Note_off_c, 0, 56, 58
1, 566210, Note_off_c, 0, 52, 55
1, 566215, Note_on_c, 0, 76, 93
1, 566301, Note_on_c, 0, 61, 99
1, 566301, Note_off_c, 0, 76, 62
1, 566303, Note_on_c, 0, 49, 88
1, 566318, Note_on_c, 0, 77, 93
1, 566328, Note_off_c, 0, 49, 66
1, 566345, Note_off_c, 0, 61, 64
1, 566404, Note_on_c, 0, 65, 99
1, 566404, Note_on_c, 0, 78, 88
1, 566409, Note_on_c, 0, 53, 78
1, 566419, Note_off_c, 0, 77, 62
1, 566428, Control_c, 0, 64, 110
1, 566440, Note_off_c, 0, 65, 66
1, 566443, Control_c, 0, 64, 75
1, 566449, Note_off_c, 0, 53, 63
1, 566457, Control_c, 0, 64, 49
1, 566458, Note_on_c, 0, 55, 10
1, 566472, Control_c, 0, 64, 0
1, 566487, Control_c, 0, 64, 29
1, 566494, Note_on_c, 0, 64, 107
1, 566497, Note_on_c, 0, 52, 95
1, 566502, Control_c, 0, 64, 46
1, 566511, Note_off_c, 0, 55, 41
1, 566517, Control_c, 0, 64, 65
1, 566529, Note_on_c, 0, 82, 89
1, 566530, Note_off_c, 0, 64, 70
1, 566531, Control_c, 0, 64, 79
1, 566535, Note_on_c, 0, 80, 92
1, 566535, Note_off_c, 0, 52, 65
1, 566546, Control_c, 0, 64, 110
1, 566556, Note_off_c, 0, 78, 57
1, 566561, Control_c, 0, 64, 127
1, 566735, Note_off_c, 0, 80, 60
1, 566741, Note_on_c, 0, 79, 84
1, 566777, Note_off_c, 0, 82, 61
1, 566868, Note_off_c, 0, 79, 58
1, 566873, Note_on_c, 0, 78, 82
1, 566950, Note_off_c, 0, 78, 58
1, 566985, Note_on_c, 0, 77, 88
1, 567014, Control_c, 0, 66, 0
1, 567057, Note_off_c, 0, 77, 59
1, 567146, Note_on_c, 0, 22, 88
1, 567151, Note_on_c, 0, 34, 89
1, 567161, Control_c, 0, 64, 91
1, 567176, Control_c, 0, 64, 66
1, 567191, Control_c, 0, 64, 38
1, 567206, Control_c, 0, 64, 0
1, 567206, Control_c, 0, 66, 127
1, 567384, Control_c, 0, 64, 35
1, 567400, Control_c, 0, 64, 52
1, 567415, Control_c, 0, 64, 62
1, 567416, Note_off_c, 0, 22, 56
1, 567430, Control_c, 0, 64, 66
1, 567445, Control_c, 0, 64, 68
1, 567459, Control_c, 0, 64, 71
1, 567481, Control_c, 0, 64, 76
1, 567496, Control_c, 0, 64, 81
1, 567510, Control_c, 0, 64, 87
1, 567525, Control_c, 0, 64, 93
1, 567540, Control_c, 0, 64, 97
1, 567541, Note_off_c, 0, 34, 54
1, 567555, Control_c, 0, 64, 101
1, 567570, Control_c, 0, 64, 105
1, 567585, Control_c, 0, 64, 110
1, 567600, Control_c, 0, 64, 116
1, 567614, Control_c, 0, 64, 127
1, 567979, Note_on_c, 0, 46, 65
1, 568016, Note_on_c, 0, 52, 74
1, 568076, Note_on_c, 0, 68, 88
1, 568078, Note_on_c, 0, 56, 85
1, 568079, Note_on_c, 0, 72, 89
1, 568082, Note_on_c, 0, 64, 82
1, 568086, Note_on_c, 0, 60, 77
1, 568088, Control_c, 0, 64, 98
1, 568103, Control_c, 0, 64, 81
1, 568118, Control_c, 0, 64, 68
1, 568133, Control_c, 0, 64, 56
1, 568148, Control_c, 0, 64, 41
1, 568163, Control_c, 0, 64, 0
1, 568304, Control_c, 0, 64, 31
1, 568319, Control_c, 0, 64, 43
1, 568333, Control_c, 0, 64, 55
1, 568348, Control_c, 0, 64, 62
1, 568363, Control_c, 0, 64, 65
1, 568378, Control_c, 0, 64, 67
1, 568393, Control_c, 0, 64, 70
1, 568407, Control_c, 0, 64, 73
1, 568422, Control_c, 0, 64, 76
1, 568437, Control_c, 0, 64, 79
1, 568452, Control_c, 0, 64, 81
1, 568467, Control_c, 0, 64, 82
1, 568482, Control_c, 0, 64, 84
1, 568497, Control_c, 0, 64, 85
1, 568512, Control_c, 0, 64, 86
1, 568541, Control_c, 0, 64, 86
1, 568556, Control_c, 0, 64, 87
1, 568586, Control_c, 0, 64, 87
1, 568604, Note_off_c, 0, 56, 58
1, 568689, Control_c, 0, 64, 87
1, 568703, Note_off_c, 0, 68, 63
1, 568717, Note_on_c, 0, 55, 60
1, 568718, Control_c, 0, 64, 86
1, 568720, Note_on_c, 0, 67, 71
1, 568733, Control_c, 0, 64, 84
1, 568748, Control_c, 0, 64, 78
1, 568763, Control_c, 0, 64, 70
1, 568778, Control_c, 0, 64, 60
1, 568793, Control_c, 0, 64, 47
1, 568807, Control_c, 0, 64, 37
1, 568822, Control_c, 0, 64, 0
1, 568881, Control_c, 0, 64, 30
1, 568896, Control_c, 0, 64, 43
1, 568911, Control_c, 0, 64, 55
1, 568926, Control_c, 0, 64, 63
1, 568937, Note_off_c, 0, 60, 50
1, 568941, Control_c, 0, 64, 68
1, 568956, Control_c, 0, 64, 72
1, 568977, Control_c, 0, 64, 74
1, 568992, Control_c, 0, 64, 76
1, 569009, Control_c, 0, 64, 79
1, 569012, Note_off_c, 0, 64, 60
1, 569024, Control_c, 0, 64, 81
1, 569038, Control_c, 0, 64, 84
1, 569041, Note_off_c, 0, 67, 61
1, 569053, Control_c, 0, 64, 86
1, 569068, Control_c, 0, 64, 87
1, 569082, Control_c, 0, 64, 88
1, 569083, Note_off_c, 0, 72, 63
1, 569097, Control_c, 0, 64, 88
1, 569127, Control_c, 0, 64, 89
1, 569305, Control_c, 0, 64, 88
1, 569310, Note_off_c, 0, 46, 30
1, 569329, Note_on_c, 0, 71, 80
1, 569364, Control_c, 0, 64, 88
1, 569379, Control_c, 0, 64, 87
1, 569394, Control_c, 0, 64, 87
1, 569409, Control_c, 0, 64, 86
1, 569423, Control_c, 0, 64, 86
1, 569438, Control_c, 0, 64, 85
1, 569453, Control_c, 0, 64, 84
1, 569468, Control_c, 0, 64, 84
1, 569482, Control_c, 0, 64, 82
1, 569490, Note_on_c, 0, 72, 83
1, 569497, Control_c, 0, 64, 81
1, 569509, Note_off_c, 0, 71, 61
1, 569512, Control_c, 0, 64, 79
1, 569527, Control_c, 0, 64, 78
1, 569542, Control_c, 0, 64, 76
1, 569556, Control_c, 0, 64, 74
1, 569571, Control_c, 0, 64, 72
1, 569584, Note_on_c, 0, 49, 73
1, 569586, Control_c, 0, 64, 70
1, 569591, Note_off_c, 0, 55, 59
1, 569600, Control_c, 0, 64, 67
1, 569615, Control_c, 0, 64, 63
1, 569630, Control_c, 0, 64, 61
1, 569638, Note_on_c, 0, 73, 82
1, 569645, Control_c, 0, 64, 59
1, 569660, Control_c, 0, 64, 58
1, 569667, Note_off_c, 0, 72, 61
1, 569674, Control_c, 0, 64, 56
1, 569684, Note_off_c, 0, 52, 30
1, 569689, Control_c, 0, 64, 55
1, 569704, Control_c, 0, 64, 55
1, 569727, Control_c, 0, 64, 54
1, 569737, Note_on_c, 0, 53, 73
1, 569742, Control_c, 0, 64, 54
1, 569756, Control_c, 0, 64, 53
1, 569771, Control_c, 0, 64, 52
1, 569786, Control_c, 0, 64, 51
1, 569802, Control_c, 0, 64, 50
1, 569817, Control_c, 0, 64, 49
1, 569832, Control_c, 0, 64, 48
1, 569846, Control_c, 0, 64, 46
1, 569861, Control_c, 0, 64, 44
1, 569867, Note_off_c, 0, 49, 39
1, 569876, Control_c, 0, 64, 41
1, 569877, Note_on_c, 0, 52, 63
1, 569878, Note_on_c, 0, 76, 75
1, 569890, Note_on_c, 0, 75, 73
1, 569891, Control_c, 0, 64, 37
1, 569906, Control_c, 0, 64, 32
1, 569921, Control_c, 0, 64, 0
1, 569937, Note_off_c, 0, 53, 54
1, 569959, Note_off_c, 0, 73, 56
1, 570151, Note_on_c, 0, 74, 81
1, 570248, Note_off_c, 0, 75, 63
1, 570374, Note_on_c, 0, 73, 62
1, 570423, Note_off_c, 0, 74, 54
1, 570455, Note_off_c, 0, 76, 55
1, 570618, Note_on_c, 0, 72, 40
1, 570640, Control_c, 0, 64, 34
1, 570655, Control_c, 0, 64, 45
1, 570662, Note_off_c, 0, 73, 36
1, 570663, Note_off_c, 0, 52, 57
1, 570670, Control_c, 0, 64, 56
1, 570685, Control_c, 0, 64, 62
1, 570700, Control_c, 0, 64, 65
1, 570715, Control_c, 0, 64, 67
1, 570729, Control_c, 0, 64, 69
1, 570744, Control_c, 0, 64, 74
1, 570759, Control_c, 0, 64, 78
1, 570774, Control_c, 0, 64, 82
1, 570789, Control_c, 0, 64, 85
1, 570803, Control_c, 0, 64, 88
1, 570818, Control_c, 0, 64, 91
1, 570833, Control_c, 0, 64, 92
1, 570847, Control_c, 0, 64, 93
1, 570862, Control_c, 0, 64, 93
1, 570877, Control_c, 0, 64, 94
1, 570923, Note_off_c, 0, 72, 36
1, 570951, Control_c, 0, 64, 93
1, 570964, Note_on_c, 0, 34, 62
1, 570966, Control_c, 0, 64, 93
1, 570981, Control_c, 0, 64, 91
1, 570995, Control_c, 0, 64, 84
1, 570995, Control_c, 0, 66, 0
1, 571010, Control_c, 0, 64, 74
1, 571025, Control_c, 0, 64, 62
1, 571040, Control_c, 0, 64, 40
1, 571054, Control_c, 0, 64, 0
1, 571254, Control_c, 0, 66, 127
1, 571314, Control_c, 0, 64, 36
1, 571329, Control_c, 0, 64, 47
1, 571344, Control_c, 0, 64, 56
1, 571358, Control_c, 0, 64, 62
1, 571373, Control_c, 0, 64, 64
1, 571388, Control_c, 0, 64, 66
1, 571403, Control_c, 0, 64, 68
1, 571418, Control_c, 0, 64, 71
1, 571433, Control_c, 0, 64, 74
1, 571448, Control_c, 0, 64, 77
1, 571463, Control_c, 0, 64, 81
1, 571477, Control_c, 0, 64, 84
1, 571492, Control_c, 0, 64, 87
1, 571507, Control_c, 0, 64, 89
1, 571522, Control_c, 0, 64, 92
1, 571528, Note_off_c, 0, 34, 58
1, 571537, Control_c, 0, 64, 94
1, 571551, Control_c, 0, 64, 96
1, 571566, Control_c, 0, 64, 98
1, 571581, Control_c, 0, 64, 100
1, 571611, Control_c, 0, 64, 103
1, 571912, Note_on_c, 0, 46, 51
1, 571937, Control_c, 0, 64, 100
1, 571951, Control_c, 0, 64, 97
1, 571973, Control_c, 0, 64, 93
1, 571988, Control_c, 0, 64, 89
1, 572002, Control_c, 0, 64, 85
1, 572003, Note_on_c, 0, 52, 47
1, 572017, Control_c, 0, 64, 81
1, 572032, Control_c, 0, 64, 76
1, 572047, Control_c, 0, 64, 72
1, 572062, Control_c, 0, 64, 66
1, 572077, Control_c, 0, 64, 63
1, 572092, Control_c, 0, 64, 61
1, 572107, Control_c, 0, 64, 60
1, 572122, Control_c, 0, 64, 59
1, 572136, Control_c, 0, 64, 58
1, 572143, Note_on_c, 0, 56, 68
1, 572151, Control_c, 0, 64, 57
1, 572166, Control_c, 0, 64, 55
1, 572181, Control_c, 0, 64, 54
1, 572196, Control_c, 0, 64, 53
1, 572211, Control_c, 0, 64, 53
1, 572271, Control_c, 0, 64, 54
1, 572286, Control_c, 0, 64, 57
1, 572300, Control_c, 0, 64, 61
1, 572315, Control_c, 0, 64, 64
1, 572330, Control_c, 0, 64, 67
1, 572345, Control_c, 0, 64, 70
1, 572360, Control_c, 0, 64, 72
1, 572374, Control_c, 0, 64, 74
1, 572389, Control_c, 0, 64, 75
1, 572404, Control_c, 0, 64, 75
1, 572418, Control_c, 0, 64, 76
1, 572433, Control_c, 0, 64, 76
1, 572448, Control_c, 0, 64, 77
1, 572463, Control_c, 0, 64, 77
1, 572483, Note_off_c, 0, 56, 60
1, 572558, Note_on_c, 0, 56, 67
1, 572566, Control_c, 0, 64, 74
1, 572581, Control_c, 0, 64, 70
1, 572596, Control_c, 0, 64, 64
1, 572610, Control_c, 0, 64, 61
1, 572625, Control_c, 0, 64, 60
1, 572640, Control_c, 0, 64, 61
1, 572655, Control_c, 0, 64, 63
1, 572670, Control_c, 0, 64, 65
1, 572685, Control_c, 0, 64, 67
1, 572700, Control_c, 0, 64, 69
1, 572722, Control_c, 0, 64, 69
1, 572737, Control_c, 0, 64, 70
1, 572752, Control_c, 0, 64, 70
1, 572936, Note_off_c, 0, 56, 38
1, 573004, Control_c, 0, 64, 70
1, 573034, Control_c, 0, 64, 69
1, 573049, Control_c, 0, 64, 69
1, 573064, Control_c, 0, 64, 68
1, 573067, Note_on_c, 0, 55, 46
1, 573078, Control_c, 0, 64, 66
1, 573093, Control_c, 0, 64, 65
1, 573108, Control_c, 0, 64, 63
1, 573123, Control_c, 0, 64, 62
1, 573138, Control_c, 0, 64, 61
1, 573153, Control_c, 0, 64, 60
1, 573168, Control_c, 0, 64, 59
1, 573183, Control_c, 0, 64, 58
1, 573197, Control_c, 0, 64, 58
1, 573212, Control_c, 0, 64, 57
1, 573227, Control_c, 0, 64, 56
1, 573241, Control_c, 0, 64, 56
1, 573256, Control_c, 0, 64, 55
1, 573271, Control_c, 0, 64, 55
1, 573286, Control_c, 0, 64, 54
1, 573301, Control_c, 0, 64, 54
1, 573315, Control_c, 0, 64, 53
1, 573434, Control_c, 0, 64, 55
1, 573448, Control_c, 0, 64, 57
1, 573471, Control_c, 0, 64, 60
1, 573486, Control_c, 0, 64, 63
1, 573501, Control_c, 0, 64, 65
1, 573515, Control_c, 0, 64, 67
1, 573530, Control_c, 0, 64, 69
1, 573545, Control_c, 0, 64, 71
1, 573560, Control_c, 0, 64, 72
1, 573574, Control_c, 0, 64, 73
1, 573589, Control_c, 0, 64, 73
1, 573604, Control_c, 0, 64, 74
1, 573619, Control_c, 0, 64, 74
1, 573664, Control_c, 0, 64, 75
1, 573843, Control_c, 0, 64, 74
1, 573946, Control_c, 0, 64, 74
1, 573976, Control_c, 0, 64, 73
1, 573981, Note_on_c, 0, 59, 54
1, 574005, Control_c, 0, 64, 73
1, 574035, Control_c, 0, 64, 72
1, 574065, Control_c, 0, 64, 72
1, 574080, Control_c, 0, 64, 71
1, 574110, Control_c, 0, 64, 71
1, 574125, Control_c, 0, 64, 70
1, 574139, Control_c, 0, 64, 70
1, 574154, Control_c, 0, 64, 69
1, 574160, Note_off_c, 0, 46, 35
1, 574169, Control_c, 0, 64, 69
1, 574184, Control_c, 0, 64, 68
1, 574198, Control_c, 0, 64, 67
1, 574220, Control_c, 0, 64, 66
1, 574229, Note_on_c, 0, 60, 67
1, 574235, Control_c, 0, 64, 65
1, 574242, Note_off_c, 0, 59, 59
1, 574250, Control_c, 0, 64, 64
1, 574265, Control_c, 0, 64, 64
1, 574310, Control_c, 0, 64, 63
1, 574339, Control_c, 0, 64, 63
1, 574369, Control_c, 0, 64, 62
1, 574398, Control_c, 0, 64, 62
1, 574412, Note_on_c, 0, 49, 40
1, 574428, Control_c, 0, 64, 61
1, 574443, Control_c, 0, 64, 61
1, 574449, Note_off_c, 0, 55, 37
1, 574458, Control_c, 0, 64, 60
1, 574472, Control_c, 0, 64, 60
1, 574487, Control_c, 0, 64, 59
1, 574496, Note_on_c, 0, 61, 67
1, 574502, Control_c, 0, 64, 58
1, 574517, Control_c, 0, 64, 57
1, 574532, Control_c, 0, 64, 57
1, 574542, Note_off_c, 0, 52, 29
1, 574544, Note_off_c, 0, 60, 56
1, 574546, Control_c, 0, 64, 56
1, 574561, Control_c, 0, 64, 55
1, 574576, Control_c, 0, 64, 54
1, 574592, Control_c, 0, 64, 53
1, 574607, Control_c, 0, 64, 52
1, 574621, Control_c, 0, 64, 50
1, 574636, Control_c, 0, 64, 47
1, 574651, Control_c, 0, 64, 44
1, 574666, Control_c, 0, 64, 40
1, 574670, Note_on_c, 0, 53, 31
1, 574670, Note_off_c, 0, 49, 52
1, 574681, Control_c, 0, 64, 35
1, 574695, Control_c, 0, 64, 28
1, 574710, Control_c, 0, 64, 0
1, 574843, Note_on_c, 0, 52, 41
1, 574867, Note_off_c, 0, 53, 35
1, 574899, Note_on_c, 0, 63, 59
1, 574972, Note_off_c, 0, 61, 56
1, 575476, Note_on_c, 0, 62, 51
1, 575534, Note_off_c, 0, 63, 54
1, 575808, Note_on_c, 0, 61, 48
1, 575839, Note_off_c, 0, 62, 49
1, 576278, Note_on_c, 0, 63, 50
1, 576352, Note_on_c, 0, 60, 34
1, 576359, Note_off_c, 0, 61, 35
1, 576383, Note_off_c, 0, 63, 47
1, 576688, Control_c, 0, 64, 34
1, 576703, Control_c, 0, 64, 44
1, 576718, Control_c, 0, 64, 53
1, 576733, Control_c, 0, 64, 58
1, 576748, Control_c, 0, 64, 61
1, 576763, Control_c, 0, 64, 64
1, 576778, Control_c, 0, 64, 66
1, 576792, Control_c, 0, 64, 69
1, 576807, Control_c, 0, 64, 72
1, 576822, Control_c, 0, 64, 76
1, 576837, Control_c, 0, 64, 81
1, 576852, Control_c, 0, 64, 87
1, 576866, Control_c, 0, 64, 94
1, 576881, Control_c, 0, 64, 100
1, 576896, Control_c, 0, 64, 105
1, 576898, Note_off_c, 0, 52, 31
1, 576911, Control_c, 0, 64, 111
1, 576926, Control_c, 0, 64, 119
1, 576940, Control_c, 0, 64, 127
1, 577089, Control_c, 0, 66, 0
1, 577427, Note_off_c, 0, 60, 36
1, 577526, Control_c, 0, 67, 38
1, 577541, Control_c, 0, 67, 73
1, 577556, Control_c, 0, 67, 112
1, 577570, Control_c, 0, 64, 124
1, 577570, Control_c, 0, 67, 127
1, 577585, Control_c, 0, 64, 115
1, 577600, Control_c, 0, 64, 111
1, 577614, Control_c, 0, 64, 108
1, 577629, Control_c, 0, 64, 106
1, 577644, Control_c, 0, 64, 104
1, 577674, Control_c, 0, 64, 101
1, 577703, Control_c, 0, 64, 98
1, 577732, Control_c, 0, 64, 96
1, 577747, Control_c, 0, 64, 94
1, 577762, Control_c, 0, 64, 93
1, 577777, Control_c, 0, 64, 92
1, 577793, Control_c, 0, 64, 92
1, 577808, Control_c, 0, 64, 91
1, 577823, Control_c, 0, 64, 90
1, 577837, Control_c, 0, 64, 89
1, 577852, Control_c, 0, 64, 89
1, 577867, Control_c, 0, 64, 88
1, 577882, Control_c, 0, 64, 88
1, 577897, Control_c, 0, 64, 87
1, 577926, Control_c, 0, 64, 87
1, 577941, Control_c, 0, 64, 86
1, 577964, Control_c, 0, 64, 86
1, 577993, Control_c, 0, 64, 85
1, 578008, Control_c, 0, 64, 85
1, 578023, Control_c, 0, 64, 84
1, 578037, Control_c, 0, 64, 84
1, 578052, Control_c, 0, 64, 83
1, 578067, Control_c, 0, 64, 82
1, 578082, Control_c, 0, 64, 81
1, 578097, Control_c, 0, 64, 79
1, 578111, Control_c, 0, 64, 77
1, 578126, Control_c, 0, 64, 74
1, 578135, Note_on_c, 0, 35, 28
1, 578141, Control_c, 0, 64, 71
1, 578143, Note_on_c, 0, 47, 26
1, 578156, Control_c, 0, 64, 67
1, 578170, Control_c, 0, 64, 63
1, 578185, Control_c, 0, 64, 58
1, 578200, Control_c, 0, 64, 55
1, 578215, Control_c, 0, 64, 53
1, 578229, Control_c, 0, 64, 52
1, 578244, Control_c, 0, 64, 51
1, 578259, Control_c, 0, 64, 50
1, 578274, Control_c, 0, 64, 49
1, 578289, Control_c, 0, 64, 47
1, 578304, Control_c, 0, 64, 46
1, 578319, Control_c, 0, 64, 45
1, 578334, Control_c, 0, 64, 44
1, 578349, Control_c, 0, 64, 43
1, 578363, Control_c, 0, 64, 43
1, 578393, Control_c, 0, 64, 42
1, 578467, Control_c, 0, 64, 43
1, 578482, Control_c, 0, 64, 44
1, 578497, Control_c, 0, 64, 47
1, 578511, Control_c, 0, 64, 52
1, 578526, Control_c, 0, 64, 56
1, 578541, Control_c, 0, 64, 59
1, 578555, Control_c, 0, 64, 61
1, 578570, Control_c, 0, 64, 62
1, 578586, Control_c, 0, 64, 63
1, 578601, Control_c, 0, 64, 64
1, 578616, Control_c, 0, 64, 65
1, 578631, Control_c, 0, 64, 65
1, 578646, Control_c, 0, 64, 66
1, 578660, Control_c, 0, 64, 66
1, 578675, Control_c, 0, 64, 67
1, 578690, Control_c, 0, 64, 69
1, 578712, Control_c, 0, 64, 70
1, 578727, Control_c, 0, 64, 71
1, 578742, Control_c, 0, 64, 72
1, 578757, Control_c, 0, 64, 73
1, 578772, Control_c, 0, 64, 75
1, 578786, Control_c, 0, 64, 76
1, 578801, Control_c, 0, 64, 78
1, 578816, Control_c, 0, 64, 79
1, 578831, Control_c, 0, 64, 81
1, 578846, Control_c, 0, 64, 83
1, 578860, Control_c, 0, 64, 84
1, 578875, Control_c, 0, 64, 86
1, 578890, Control_c, 0, 64, 87
1, 578905, Control_c, 0, 64, 89
1, 578920, Control_c, 0, 64, 91
1, 578934, Control_c, 0, 64, 93
1, 578949, Control_c, 0, 64, 95
1, 578964, Control_c, 0, 64, 97
1, 578979, Control_c, 0, 64, 99
1, 578993, Control_c, 0, 64, 102
1, 579008, Control_c, 0, 64, 104
1, 579023, Control_c, 0, 64, 106
1, 579038, Control_c, 0, 64, 108
1, 579067, Control_c, 0, 64, 112
1, 579097, Control_c, 0, 64, 115
1, 579127, Control_c, 0, 64, 118
1, 579156, Control_c, 0, 64, 120
1, 579186, Control_c, 0, 64, 127
1, 579260, Note_on_c, 0, 71, 52
1, 579493, Note_off_c, 0, 35, 40
1, 579569, Note_off_c, 0, 47, 36
1, 580075, Poly_aftertouch_c, 0, 55, 127
1, 580839, Note_on_c, 0, 63, 26
1, 581371, Note_on_c, 0, 72, 38
1, 581440, Note_off_c, 0, 71, 34
1, 581546, Note_on_c, 0, 74, 50
1, 581626, Control_c, 0, 64, 119
1, 581641, Control_c, 0, 64, 114
1, 581643, Note_off_c, 0, 72, 34
1, 581655, Control_c, 0, 64, 109
1, 581670, Control_c, 0, 64, 106
1, 581685, Control_c, 0, 64, 103
1, 581707, Control_c, 0, 64, 100
1, 581722, Control_c, 0, 64, 96
1, 581737, Control_c, 0, 64, 93
1, 581752, Control_c, 0, 64, 89
1, 581767, Control_c, 0, 64, 85
1, 581783, Control_c, 0, 64, 81
1, 581783, Note_on_c, 0, 75, 48
1, 581792, Note_on_c, 0, 70, 26
1, 581798, Control_c, 0, 64, 77
1, 581812, Control_c, 0, 64, 73
1, 581827, Control_c, 0, 64, 68
1, 581836, Note_off_c, 0, 74, 48
1, 581842, Control_c, 0, 64, 64
1, 581857, Control_c, 0, 64, 62
1, 581872, Control_c, 0, 64, 60
1, 581885, Control_c, 0, 64, 59
1, 581945, Control_c, 0, 64, 60
1, 581959, Control_c, 0, 64, 62
1, 581974, Control_c, 0, 64, 64
1, 581989, Control_c, 0, 64, 66
1, 582003, Control_c, 0, 64, 69
1, 582018, Control_c, 0, 64, 72
1, 582033, Control_c, 0, 64, 75
1, 582048, Control_c, 0, 64, 77
1, 582063, Control_c, 0, 64, 80
1, 582078, Control_c, 0, 64, 82
1, 582093, Control_c, 0, 64, 84
1, 582108, Control_c, 0, 64, 86
1, 582122, Control_c, 0, 64, 88
1, 582137, Control_c, 0, 64, 89
1, 582152, Control_c, 0, 64, 90
1, 582167, Control_c, 0, 64, 90
1, 582182, Control_c, 0, 64, 91
1, 582255, Note_off_c, 0, 70, 42
1, 582298, Note_off_c, 0, 63, 38
1, 582389, Note_on_c, 0, 74, 52
1, 582500, Control_c, 0, 64, 90
1, 582529, Control_c, 0, 64, 90
1, 582559, Control_c, 0, 64, 89
1, 582560, Note_on_c, 0, 72, 52
1, 582574, Control_c, 0, 64, 89
1, 582590, Control_c, 0, 64, 88
1, 582605, Control_c, 0, 64, 87
1, 582620, Control_c, 0, 64, 86
1, 582634, Control_c, 0, 64, 85
1, 582649, Control_c, 0, 64, 84
1, 582653, Note_off_c, 0, 74, 34
1, 582664, Control_c, 0, 64, 82
1, 582679, Control_c, 0, 64, 79
1, 582688, Note_off_c, 0, 75, 15
1, 582694, Control_c, 0, 64, 77
1, 582708, Control_c, 0, 64, 74
1, 582723, Control_c, 0, 64, 70
1, 582738, Control_c, 0, 64, 66
1, 582749, Note_on_c, 0, 71, 48
1, 582752, Control_c, 0, 64, 62
1, 582763, Note_on_c, 0, 62, 22
1, 582767, Control_c, 0, 64, 60
1, 582776, Note_off_c, 0, 72, 44
1, 582782, Control_c, 0, 64, 58
1, 582797, Control_c, 0, 64, 57
1, 582812, Control_c, 0, 64, 56
1, 582826, Control_c, 0, 64, 56
1, 582841, Control_c, 0, 64, 55
1, 582901, Control_c, 0, 64, 56
1, 582915, Control_c, 0, 64, 58
1, 582930, Control_c, 0, 64, 61
1, 582945, Control_c, 0, 64, 64
1, 582960, Control_c, 0, 64, 67
1, 582970, Poly_aftertouch_c, 0, 55, 0
1, 582975, Control_c, 0, 64, 71
1, 582990, Control_c, 0, 64, 74
1, 583005, Control_c, 0, 64, 76
1, 583020, Control_c, 0, 64, 78
1, 583034, Control_c, 0, 64, 79
1, 583049, Control_c, 0, 64, 80
1, 583064, Control_c, 0, 64, 81
1, 583079, Control_c, 0, 64, 82
1, 583108, Control_c, 0, 64, 82
1, 583331, Note_on_c, 0, 66, 53
1, 583351, Note_on_c, 0, 70, 41
1, 583395, Note_off_c, 0, 71, 54
1, 583532, Control_c, 0, 64, 82
1, 583739, Control_c, 0, 64, 81
1, 583769, Control_c, 0, 64, 81
1, 583798, Control_c, 0, 64, 80
1, 583813, Control_c, 0, 64, 79
1, 583819, Note_on_c, 0, 54, 39
1, 583828, Control_c, 0, 64, 78
1, 583843, Control_c, 0, 64, 75
1, 583857, Control_c, 0, 64, 70
1, 583872, Control_c, 0, 64, 65
1, 583887, Control_c, 0, 64, 62
1, 583902, Control_c, 0, 64, 61
1, 583954, Control_c, 0, 64, 61
1, 583969, Control_c, 0, 64, 62
1, 583983, Control_c, 0, 64, 63
1, 583998, Control_c, 0, 64, 65
1, 584009, Note_off_c, 0, 62, 35
1, 584013, Control_c, 0, 64, 68
1, 584028, Control_c, 0, 64, 71
1, 584043, Control_c, 0, 64, 74
1, 584057, Control_c, 0, 64, 75
1, 584072, Control_c, 0, 64, 76
1, 584087, Control_c, 0, 64, 77
1, 584102, Control_c, 0, 64, 77
1, 584117, Control_c, 0, 64, 78
1, 584132, Control_c, 0, 64, 78
1, 584147, Control_c, 0, 64, 79
1, 584177, Control_c, 0, 64, 79
1, 584271, Note_off_c, 0, 66, 61
1, 584274, Note_off_c, 0, 70, 60
1, 584277, Note_on_c, 0, 67, 63
1, 584442, Note_on_c, 0, 68, 75
1, 584471, Note_off_c, 0, 67, 55
1, 584577, Control_c, 0, 64, 79
1, 584606, Control_c, 0, 64, 78
1, 584621, Control_c, 0, 64, 78
1, 584636, Control_c, 0, 64, 77
1, 584651, Control_c, 0, 64, 76
1, 584666, Control_c, 0, 64, 75
1, 584680, Control_c, 0, 64, 72
1, 584703, Control_c, 0, 64, 69
1, 584718, Control_c, 0, 64, 65
1, 584730, Note_on_c, 0, 48, 33
1, 584732, Control_c, 0, 64, 61
1, 584740, Note_on_c, 0, 69, 46
1, 584740, Note_on_c, 0, 77, 64
1, 584747, Control_c, 0, 64, 58
1, 584762, Control_c, 0, 64, 55
1, 584777, Control_c, 0, 64, 51
1, 584786, Note_off_c, 0, 68, 62
1, 584792, Control_c, 0, 64, 44
1, 584795, Note_off_c, 0, 54, 54
1, 584806, Control_c, 0, 64, 29
1, 584821, Control_c, 0, 64, 0
1, 584985, Control_c, 0, 64, 42
1, 585000, Control_c, 0, 64, 53
1, 585015, Control_c, 0, 64, 60
1, 585029, Control_c, 0, 64, 64
1, 585044, Control_c, 0, 64, 65
1, 585059, Control_c, 0, 64, 66
1, 585074, Control_c, 0, 64, 69
1, 585089, Control_c, 0, 64, 71
1, 585103, Control_c, 0, 64, 73
1, 585118, Control_c, 0, 64, 75
1, 585133, Control_c, 0, 64, 76
1, 585148, Control_c, 0, 64, 78
1, 585163, Control_c, 0, 64, 79
1, 585178, Control_c, 0, 64, 79
1, 585183, Note_off_c, 0, 77, 59
1, 585193, Control_c, 0, 64, 80
1, 585208, Control_c, 0, 64, 80
1, 585237, Control_c, 0, 64, 81
1, 585332, Note_off_c, 0, 69, 63
1, 585340, Note_on_c, 0, 76, 67
1, 585382, Note_on_c, 0, 68, 31
1, 585539, Note_off_c, 0, 68, 21
1, 585542, Note_on_c, 0, 66, 61
1, 585634, Note_off_c, 0, 76, 60
1, 585680, Note_off_c, 0, 66, 41
1, 585747, Control_c, 0, 64, 80
1, 585762, Control_c, 0, 64, 79
1, 585767, Note_on_c, 0, 76, 66
1, 585771, Note_on_c, 0, 56, 42
1, 585777, Control_c, 0, 64, 76
1, 585789, Note_on_c, 0, 65, 51
1, 585792, Control_c, 0, 64, 71
1, 585807, Control_c, 0, 64, 63
1, 585822, Control_c, 0, 64, 55
1, 585837, Control_c, 0, 64, 46
1, 585852, Control_c, 0, 64, 40
1, 585867, Control_c, 0, 64, 39
1, 585896, Control_c, 0, 64, 40
1, 585911, Control_c, 0, 64, 45
1, 585926, Control_c, 0, 64, 53
1, 585941, Control_c, 0, 64, 62
1, 585956, Control_c, 0, 64, 65
1, 585970, Control_c, 0, 64, 69
1, 585976, Note_off_c, 0, 48, 41
1, 585985, Control_c, 0, 64, 71
1, 586000, Control_c, 0, 64, 72
1, 586015, Control_c, 0, 64, 74
1, 586030, Control_c, 0, 64, 76
1, 586044, Control_c, 0, 64, 78
1, 586059, Control_c, 0, 64, 80
1, 586074, Control_c, 0, 64, 81
1, 586089, Control_c, 0, 64, 81
1, 586104, Control_c, 0, 64, 82
1, 586133, Control_c, 0, 64, 82
1, 586245, Control_c, 0, 64, 83
1, 586284, Note_on_c, 0, 64, 44
1, 586303, Control_c, 0, 64, 83
1, 586318, Control_c, 0, 64, 84
1, 586324, Note_off_c, 0, 65, 55
1, 586333, Control_c, 0, 64, 84
1, 586348, Control_c, 0, 64, 85
1, 586363, Control_c, 0, 64, 85
1, 586378, Control_c, 0, 64, 86
1, 586393, Control_c, 0, 64, 86
1, 586399, Note_off_c, 0, 64, 59
1, 586408, Control_c, 0, 64, 87
1, 586423, Control_c, 0, 64, 87
1, 586438, Control_c, 0, 64, 88
1, 586467, Control_c, 0, 64, 88
1, 586496, Control_c, 0, 64, 89
1, 586572, Control_c, 0, 67, 122
1, 586587, Control_c, 0, 67, 117
1, 586601, Control_c, 0, 67, 112
1, 586616, Control_c, 0, 67, 107
1, 586631, Control_c, 0, 67, 103
1, 586719, Control_c, 0, 64, 88
1, 586734, Control_c, 0, 64, 88
1, 586749, Control_c, 0, 64, 85
1, 586760, Note_on_c, 0, 64, 45
1, 586764, Control_c, 0, 64, 80
1, 586779, Control_c, 0, 64, 75
1, 586794, Control_c, 0, 64, 71
1, 586808, Control_c, 0, 64, 69
1, 586823, Control_c, 0, 64, 68
1, 586883, Control_c, 0, 64, 69
1, 586898, Control_c, 0, 64, 71
1, 586913, Control_c, 0, 64, 74
1, 586913, Control_c, 0, 67, 101
1, 586927, Control_c, 0, 64, 76
1, 586949, Control_c, 0, 64, 78
1, 586949, Control_c, 0, 67, 99
1, 586964, Control_c, 0, 64, 80
1, 586979, Control_c, 0, 64, 82
1, 586994, Control_c, 0, 64, 84
1, 587008, Control_c, 0, 64, 85
1, 587023, Control_c, 0, 64, 86
1, 587023, Control_c, 0, 67, 97
1, 587038, Control_c, 0, 64, 87
1, 587053, Control_c, 0, 64, 87
1, 587067, Note_off_c, 0, 56, 28
1, 587068, Control_c, 0, 64, 88
1, 587098, Control_c, 0, 67, 96
1, 587113, Control_c, 0, 64, 88
1, 587184, Note_on_c, 0, 79, 67
1, 587187, Control_c, 0, 67, 95
1, 587242, Note_off_c, 0, 76, 60
1, 587261, Control_c, 0, 67, 98
1, 587275, Control_c, 0, 67, 100
1, 587305, Control_c, 0, 67, 103
1, 587334, Control_c, 0, 67, 106
1, 587349, Control_c, 0, 67, 108
1, 587364, Control_c, 0, 67, 110
1, 587380, Control_c, 0, 67, 113
1, 587387, Note_on_c, 0, 76, 76
1, 587395, Control_c, 0, 67, 115
1, 587410, Control_c, 0, 67, 117
1, 587424, Control_c, 0, 67, 119
1, 587454, Control_c, 0, 67, 122
1, 587483, Note_off_c, 0, 79, 47
1, 587484, Control_c, 0, 67, 124
1, 587513, Control_c, 0, 64, 88
1, 587602, Control_c, 0, 64, 87
1, 587631, Control_c, 0, 64, 86
1, 587646, Control_c, 0, 64, 85
1, 587661, Control_c, 0, 64, 83
1, 587676, Control_c, 0, 64, 78
1, 587698, Control_c, 0, 64, 73
1, 587707, Note_on_c, 0, 75, 70
1, 587713, Control_c, 0, 64, 67
1, 587718, Note_on_c, 0, 69, 30
1, 587728, Control_c, 0, 64, 62
1, 587743, Control_c, 0, 64, 55
1, 587757, Control_c, 0, 64, 50
1, 587763, Note_off_c, 0, 76, 54
1, 587772, Control_c, 0, 64, 48
1, 587802, Control_c, 0, 64, 49
1, 587817, Control_c, 0, 64, 51
1, 587831, Control_c, 0, 64, 56
1, 587846, Control_c, 0, 64, 61
1, 587861, Control_c, 0, 64, 65
1, 587876, Control_c, 0, 64, 68
1, 587891, Control_c, 0, 64, 72
1, 587905, Control_c, 0, 64, 74
1, 587920, Control_c, 0, 64, 75
1, 587935, Control_c, 0, 64, 77
1, 587950, Control_c, 0, 64, 78
1, 587965, Control_c, 0, 64, 79
1, 587980, Control_c, 0, 64, 81
1, 587995, Control_c, 0, 64, 82
1, 588010, Control_c, 0, 64, 82
1, 588024, Control_c, 0, 64, 83
1, 588039, Control_c, 0, 64, 83
1, 588068, Control_c, 0, 64, 84
1, 588099, Note_on_c, 0, 74, 73
1, 588173, Control_c, 0, 67, 122
1, 588218, Control_c, 0, 67, 120
1, 588342, Note_on_c, 0, 72, 72
1, 588373, Note_off_c, 0, 75, 24
1, 588391, Note_off_c, 0, 74, 62
1, 588462, Control_c, 0, 67, 122
1, 588468, Note_off_c, 0, 64, 42
1, 588521, Control_c, 0, 64, 83
1, 588536, Control_c, 0, 67, 124
1, 588551, Control_c, 0, 64, 83
1, 588566, Control_c, 0, 64, 82
1, 588580, Control_c, 0, 64, 81
1, 588580, Control_c, 0, 67, 126
1, 588595, Control_c, 0, 64, 80
1, 588610, Control_c, 0, 64, 78
1, 588625, Control_c, 0, 64, 75
1, 588640, Control_c, 0, 64, 71
1, 588654, Control_c, 0, 64, 65
1, 588669, Control_c, 0, 64, 58
1, 588682, Note_on_c, 0, 71, 62
1, 588684, Control_c, 0, 64, 52
1, 588685, Note_on_c, 0, 61, 30
1, 588698, Control_c, 0, 64, 48
1, 588713, Control_c, 0, 64, 46
1, 588722, Note_off_c, 0, 72, 59
1, 588728, Control_c, 0, 64, 46
1, 588749, Note_off_c, 0, 69, 43
1, 588788, Control_c, 0, 64, 47
1, 588803, Control_c, 0, 64, 50
1, 588818, Control_c, 0, 64, 54
1, 588833, Control_c, 0, 64, 59
1, 588847, Control_c, 0, 64, 62
1, 588862, Control_c, 0, 64, 64
1, 588877, Control_c, 0, 64, 65
1, 588891, Control_c, 0, 64, 66
1, 588906, Control_c, 0, 64, 68
1, 588921, Control_c, 0, 64, 69
1, 588936, Control_c, 0, 64, 70
1, 588951, Control_c, 0, 64, 71
1, 588967, Control_c, 0, 64, 72
1, 588996, Control_c, 0, 64, 72
1, 589026, Control_c, 0, 64, 73
1, 589230, Note_on_c, 0, 70, 51
1, 589241, Note_on_c, 0, 64, 45
1, 589306, Note_off_c, 0, 71, 54
1, 589432, Note_on_c, 0, 65, 65
1, 589481, Note_off_c, 0, 64, 39
1, 589669, Control_c, 0, 64, 72
1, 589684, Control_c, 0, 64, 71
1, 589699, Control_c, 0, 64, 70
1, 589713, Control_c, 0, 64, 66
1, 589718, Note_on_c, 0, 66, 57
1, 589728, Control_c, 0, 64, 63
1, 589734, Note_on_c, 0, 53, 26
1, 589743, Control_c, 0, 64, 58
1, 589758, Control_c, 0, 64, 55
1, 589772, Note_off_c, 0, 65, 54
1, 589774, Control_c, 0, 64, 52
1, 589789, Control_c, 0, 64, 50
1, 589804, Control_c, 0, 64, 48
1, 589818, Control_c, 0, 64, 47
1, 589833, Control_c, 0, 64, 46
1, 589850, Note_off_c, 0, 61, 40
1, 589878, Control_c, 0, 64, 47
1, 589892, Control_c, 0, 64, 48
1, 589907, Control_c, 0, 64, 52
1, 589922, Control_c, 0, 64, 57
1, 589944, Control_c, 0, 64, 61
1, 589959, Control_c, 0, 64, 63
1, 589974, Control_c, 0, 64, 64
1, 589989, Control_c, 0, 64, 66
1, 590004, Control_c, 0, 64, 67
1, 590018, Control_c, 0, 64, 69
1, 590033, Control_c, 0, 64, 70
1, 590048, Control_c, 0, 64, 71
1, 590063, Control_c, 0, 64, 72
1, 590078, Control_c, 0, 64, 73
1, 590092, Control_c, 0, 64, 74
1, 590107, Control_c, 0, 64, 75
1, 590108, Note_on_c, 0, 65, 63
1, 590122, Control_c, 0, 64, 76
1, 590137, Control_c, 0, 64, 78
1, 590137, Control_c, 0, 67, 124
1, 590144, Note_off_c, 0, 66, 62
1, 590151, Control_c, 0, 64, 79
1, 590151, Control_c, 0, 67, 121
1, 590166, Control_c, 0, 64, 80
1, 590166, Control_c, 0, 67, 119
1, 590181, Control_c, 0, 64, 81
1, 590181, Control_c, 0, 67, 116
1, 590196, Control_c, 0, 64, 82
1, 590196, Control_c, 0, 67, 113
1, 590211, Control_c, 0, 64, 82
1, 590211, Control_c, 0, 67, 111
1, 590225, Control_c, 0, 64, 83
1, 590225, Control_c, 0, 67, 109
1, 590240, Control_c, 0, 64, 84
1, 590240, Control_c, 0, 67, 107
1, 590255, Control_c, 0, 64, 84
1, 590269, Control_c, 0, 64, 85
1, 590269, Control_c, 0, 67, 105
1, 590284, Control_c, 0, 64, 85
1, 590299, Control_c, 0, 67, 102
1, 590314, Note_off_c, 0, 70, 50
1, 590314, Control_c, 0, 64, 86
1, 590329, Control_c, 0, 67, 100
1, 590359, Control_c, 0, 64, 86
1, 590359, Control_c, 0, 67, 98
1, 590380, Note_on_c, 0, 68, 72
1, 590389, Control_c, 0, 64, 87
1, 590389, Control_c, 0, 67, 96
1, 590403, Control_c, 0, 64, 87
1, 590403, Control_c, 0, 67, 94
1, 590418, Control_c, 0, 67, 93
1, 590433, Control_c, 0, 64, 88
1, 590433, Control_c, 0, 67, 90
1, 590448, Control_c, 0, 64, 88
1, 590448, Control_c, 0, 67, 88
1, 590463, Control_c, 0, 67, 86
1, 590477, Control_c, 0, 64, 89
1, 590477, Control_c, 0, 67, 76
1, 590492, Control_c, 0, 67, 0
1, 590507, Control_c, 0, 64, 89
1, 590534, Note_off_c, 0, 65, 37
1, 590537, Control_c, 0, 64, 90
1, 590541, Note_on_c, 0, 70, 77
1, 590567, Control_c, 0, 64, 90
1, 590623, Note_off_c, 0, 68, 60
1, 590627, Control_c, 0, 64, 91
1, 590711, Note_off_c, 0, 70, 65
1, 590767, Control_c, 0, 64, 90
1, 590797, Control_c, 0, 64, 90
1, 590801, Note_on_c, 0, 62, 53
1, 590812, Note_on_c, 0, 52, 49
1, 590812, Control_c, 0, 64, 88
1, 590827, Control_c, 0, 64, 84
1, 590841, Control_c, 0, 64, 78
1, 590854, Note_on_c, 0, 80, 82
1, 590856, Control_c, 0, 64, 72
1, 590871, Control_c, 0, 64, 66
1, 590886, Control_c, 0, 64, 59
1, 590893, Note_off_c, 0, 53, 38
1, 590900, Control_c, 0, 64, 52
1, 590915, Control_c, 0, 64, 46
1, 590930, Control_c, 0, 64, 39
1, 590945, Control_c, 0, 64, 31
1, 590960, Control_c, 0, 64, 0
1, 591122, Control_c, 0, 64, 34
1, 591137, Control_c, 0, 64, 42
1, 591152, Control_c, 0, 64, 52
1, 591167, Control_c, 0, 64, 59
1, 591181, Control_c, 0, 64, 62
1, 591196, Control_c, 0, 64, 63
1, 591211, Control_c, 0, 64, 64
1, 591226, Control_c, 0, 64, 66
1, 591241, Control_c, 0, 64, 67
1, 591256, Control_c, 0, 64, 68
1, 591271, Control_c, 0, 64, 69
1, 591285, Control_c, 0, 64, 70
1, 591300, Control_c, 0, 64, 71
1, 591315, Control_c, 0, 64, 71
1, 591330, Control_c, 0, 64, 72
1, 591345, Control_c, 0, 64, 72
1, 591390, Control_c, 0, 64, 73
1, 591477, Note_on_c, 0, 79, 56
1, 591563, Note_off_c, 0, 80, 54
1, 591649, Control_c, 0, 64, 73
1, 591679, Control_c, 0, 64, 74
1, 591694, Control_c, 0, 64, 74
1, 591709, Control_c, 0, 64, 75
1, 591723, Control_c, 0, 64, 75
1, 591738, Control_c, 0, 64, 76
1, 591768, Control_c, 0, 64, 76
1, 591834, Note_off_c, 0, 79, 61
1, 591914, Note_on_c, 0, 79, 52
1, 591928, Note_on_c, 0, 61, 33
1, 591945, Control_c, 0, 64, 75
1, 591960, Control_c, 0, 64, 71
1, 591975, Control_c, 0, 64, 65
1, 591989, Control_c, 0, 64, 60
1, 591999, Note_off_c, 0, 62, 36
1, 592004, Control_c, 0, 64, 55
1, 592019, Control_c, 0, 64, 51
1, 592034, Control_c, 0, 64, 49
1, 592049, Control_c, 0, 64, 49
1, 592079, Control_c, 0, 64, 50
1, 592094, Control_c, 0, 64, 53
1, 592108, Control_c, 0, 64, 58
1, 592123, Control_c, 0, 64, 62
1, 592138, Control_c, 0, 64, 65
1, 592153, Control_c, 0, 64, 68
1, 592168, Control_c, 0, 64, 70
1, 592191, Control_c, 0, 64, 72
1, 592206, Control_c, 0, 64, 74
1, 592220, Control_c, 0, 64, 76
1, 592235, Control_c, 0, 64, 79
1, 592250, Control_c, 0, 64, 82
1, 592265, Control_c, 0, 64, 85
1, 592280, Control_c, 0, 64, 88
1, 592294, Control_c, 0, 64, 89
1, 592308, Note_off_c, 0, 52, 33
1, 592309, Control_c, 0, 64, 91
1, 592324, Control_c, 0, 64, 92
1, 592338, Control_c, 0, 64, 93
1, 592368, Control_c, 0, 64, 93
1, 592413, Control_c, 0, 64, 94
1, 592577, Note_off_c, 0, 61, 50
1, 592609, Note_on_c, 0, 67, 39
1, 592795, Note_on_c, 0, 77, 60
1, 592798, Note_off_c, 0, 67, 42
1, 592825, Note_on_c, 0, 70, 29
1, 592983, Control_c, 0, 64, 94
1, 592998, Note_off_c, 0, 70, 43
1, 592998, Control_c, 0, 64, 95
1, 593013, Control_c, 0, 64, 96
1, 593042, Control_c, 0, 64, 98
1, 593057, Control_c, 0, 64, 100
1, 593086, Control_c, 0, 64, 105
1, 593101, Control_c, 0, 64, 107
1, 593117, Control_c, 0, 64, 110
1, 593132, Control_c, 0, 64, 114
1, 593147, Control_c, 0, 64, 119
1, 593161, Control_c, 0, 64, 127
1, 593250, Note_off_c, 0, 77, 36
1, 593358, Note_on_c, 0, 76, 45
1, 593359, Note_on_c, 0, 84, 55
1, 593407, Note_off_c, 0, 79, 61
1, 593536, Note_off_c, 0, 76, 54
1, 593542, Note_on_c, 0, 83, 69
1, 593566, Note_off_c, 0, 84, 58
1, 593717, Control_c, 0, 64, 118
1, 593732, Control_c, 0, 64, 100
1, 593747, Control_c, 0, 64, 88
1, 593763, Control_c, 0, 64, 78
1, 593766, Note_on_c, 0, 86, 60
1, 593767, Note_on_c, 0, 79, 33
1, 593771, Note_off_c, 0, 83, 56
1, 593778, Note_on_c, 0, 76, 42
1, 593778, Control_c, 0, 64, 71
1, 593792, Control_c, 0, 64, 66
1, 593807, Control_c, 0, 64, 63
1, 593837, Control_c, 0, 64, 63
1, 593852, Control_c, 0, 64, 64
1, 593866, Control_c, 0, 64, 66
1, 593881, Control_c, 0, 64, 69
1, 593896, Control_c, 0, 64, 73
1, 593910, Control_c, 0, 64, 76
1, 593925, Control_c, 0, 64, 79
1, 593940, Control_c, 0, 64, 81
1, 593950, Note_on_c, 0, 85, 61
1, 593955, Note_off_c, 0, 86, 61
1, 593955, Control_c, 0, 64, 83
1, 593970, Control_c, 0, 64, 86
1, 593984, Control_c, 0, 64, 88
1, 593999, Control_c, 0, 64, 91
1, 594014, Control_c, 0, 64, 93
1, 594016, Note_off_c, 0, 79, 54
1, 594029, Control_c, 0, 64, 95
1, 594058, Control_c, 0, 64, 97
1, 594146, Note_off_c, 0, 85, 60
1, 594150, Note_on_c, 0, 88, 62
1, 594177, Control_c, 0, 64, 99
1, 594296, Control_c, 0, 67, 57
1, 594310, Control_c, 0, 67, 80
1, 594325, Control_c, 0, 67, 88
1, 594340, Control_c, 0, 67, 92
1, 594355, Control_c, 0, 67, 93
1, 594370, Control_c, 0, 67, 95
1, 594384, Control_c, 0, 67, 96
1, 594600, Note_on_c, 0, 83, 45
1, 594601, Control_c, 0, 64, 96
1, 594614, Note_on_c, 0, 75, 30
1, 594615, Control_c, 0, 64, 92
1, 594630, Control_c, 0, 64, 86
1, 594645, Control_c, 0, 64, 81
1, 594660, Control_c, 0, 64, 77
1, 594675, Control_c, 0, 64, 75
1, 594689, Control_c, 0, 64, 73
1, 594719, Control_c, 0, 64, 73
1, 594755, Note_off_c, 0, 88, 35
1, 594778, Control_c, 0, 64, 73
1, 594793, Control_c, 0, 64, 74
1, 594793, Control_c, 0, 67, 95
1, 594807, Control_c, 0, 64, 75
1, 594807, Control_c, 0, 67, 94
1, 594822, Control_c, 0, 64, 77
1, 594837, Control_c, 0, 64, 79
1, 594852, Control_c, 0, 64, 80
1, 594852, Control_c, 0, 67, 94
1, 594866, Control_c, 0, 64, 81
1, 594881, Control_c, 0, 64, 83
1, 594896, Control_c, 0, 64, 84
1, 594911, Control_c, 0, 64, 85
1, 594911, Control_c, 0, 67, 93
1, 594926, Control_c, 0, 64, 85
1, 594940, Control_c, 0, 64, 86
1, 594955, Control_c, 0, 67, 92
1, 594970, Control_c, 0, 64, 86
1, 594970, Control_c, 0, 67, 92
1, 594985, Control_c, 0, 67, 90
1, 595000, Control_c, 0, 67, 90
1, 595010, Note_off_c, 0, 76, 42
1, 595015, Control_c, 0, 67, 89
1, 595016, Note_on_c, 0, 82, 57
1, 595021, Note_on_c, 0, 78, 45
1, 595030, Control_c, 0, 67, 88
1, 595045, Control_c, 0, 67, 88
1, 595059, Control_c, 0, 67, 87
1, 595074, Control_c, 0, 67, 86
1, 595089, Control_c, 0, 67, 86
1, 595104, Control_c, 0, 67, 85
1, 595119, Control_c, 0, 67, 85
1, 595125, Note_off_c, 0, 83, 38
1, 595148, Control_c, 0, 67, 84
1, 595200, Control_c, 0, 67, 83
1, 595207, Note_on_c, 0, 77, 66
1, 595213, Note_off_c, 0, 78, 59
1, 595393, Control_c, 0, 67, 84
1, 595408, Control_c, 0, 64, 85
1, 595423, Note_on_c, 0, 69, 46
1, 595423, Control_c, 0, 64, 82
1, 595433, Note_off_c, 0, 77, 62
1, 595438, Control_c, 0, 64, 75
1, 595438, Control_c, 0, 67, 85
1, 595439, Note_on_c, 0, 85, 76
1, 595441, Note_on_c, 0, 80, 60
1, 595453, Control_c, 0, 64, 68
1, 595468, Control_c, 0, 64, 62
1, 595482, Control_c, 0, 64, 57
1, 595497, Control_c, 0, 64, 56
1, 595498, Note_off_c, 0, 75, 42
1, 595512, Control_c, 0, 64, 56
1, 595527, Control_c, 0, 64, 58
1, 595527, Control_c, 0, 67, 84
1, 595530, Note_off_c, 0, 82, 49
1, 595542, Control_c, 0, 64, 61
1, 595556, Control_c, 0, 64, 63
1, 595571, Control_c, 0, 64, 65
1, 595571, Control_c, 0, 67, 83
1, 595586, Control_c, 0, 64, 67
1, 595601, Control_c, 0, 64, 69
1, 595601, Control_c, 0, 67, 83
1, 595609, Note_on_c, 0, 79, 74
1, 595616, Control_c, 0, 64, 70
1, 595616, Control_c, 0, 67, 82
1, 595630, Control_c, 0, 64, 72
1, 595630, Control_c, 0, 67, 81
1, 595644, Note_off_c, 0, 80, 64
1, 595645, Control_c, 0, 64, 73
1, 595645, Control_c, 0, 67, 81
1, 595660, Control_c, 0, 64, 74
1, 595660, Control_c, 0, 67, 80
1, 595675, Control_c, 0, 64, 75
1, 595675, Control_c, 0, 67, 79
1, 595689, Control_c, 0, 64, 76
1, 595689, Control_c, 0, 67, 79
1, 595704, Control_c, 0, 64, 76
1, 595719, Control_c, 0, 64, 77
1, 595719, Control_c, 0, 67, 78
1, 595734, Control_c, 0, 64, 77
1, 595808, Control_c, 0, 64, 77
1, 595815, Note_on_c, 0, 81, 74
1, 595823, Control_c, 0, 64, 75
1, 595838, Control_c, 0, 64, 72
1, 595844, Note_off_c, 0, 79, 62
1, 595853, Control_c, 0, 64, 70
1, 595897, Control_c, 0, 64, 70
1, 595912, Control_c, 0, 64, 72
1, 595934, Control_c, 0, 64, 73
1, 595949, Control_c, 0, 64, 75
1, 595963, Control_c, 0, 64, 77
1, 595978, Control_c, 0, 64, 78
1, 595993, Control_c, 0, 64, 79
1, 595993, Control_c, 0, 67, 79
1, 596008, Control_c, 0, 64, 80
1, 596023, Control_c, 0, 64, 81
1, 596037, Control_c, 0, 64, 81
1, 596052, Control_c, 0, 67, 79
1, 596067, Control_c, 0, 64, 82
1, 596097, Control_c, 0, 64, 82
1, 596112, Control_c, 0, 67, 80
1, 596142, Control_c, 0, 67, 81
1, 596157, Control_c, 0, 64, 83
1, 596186, Control_c, 0, 67, 81
1, 596231, Control_c, 0, 67, 82
1, 596261, Control_c, 0, 64, 82
1, 596276, Control_c, 0, 64, 82
1, 596276, Control_c, 0, 67, 83
1, 596291, Control_c, 0, 64, 79
1, 596301, Note_on_c, 0, 76, 69
1, 596305, Control_c, 0, 64, 74
1, 596320, Control_c, 0, 64, 68
1, 596320, Control_c, 0, 67, 83
1, 596332, Note_on_c, 0, 66, 30
1, 596335, Control_c, 0, 64, 62
1, 596350, Control_c, 0, 64, 59
1, 596379, Control_c, 0, 64, 59
1, 596394, Note_off_c, 0, 81, 60
1, 596394, Control_c, 0, 64, 61
1, 596409, Control_c, 0, 64, 63
1, 596424, Control_c, 0, 64, 65
1, 596439, Control_c, 0, 64, 68
1, 596453, Control_c, 0, 64, 72
1, 596468, Control_c, 0, 64, 75
1, 596470, Note_off_c, 0, 69, 35
1, 596483, Control_c, 0, 64, 76
1, 596498, Control_c, 0, 64, 78
1, 596512, Control_c, 0, 64, 80
1, 596527, Control_c, 0, 64, 82
1, 596542, Control_c, 0, 64, 84
1, 596557, Control_c, 0, 64, 86
1, 596557, Control_c, 0, 67, 84
1, 596572, Control_c, 0, 64, 88
1, 596586, Control_c, 0, 64, 89
1, 596586, Control_c, 0, 67, 85
1, 596601, Control_c, 0, 64, 90
1, 596601, Control_c, 0, 67, 85
1, 596616, Control_c, 0, 64, 91
1, 596616, Control_c, 0, 67, 86
1, 596631, Control_c, 0, 64, 92
1, 596631, Control_c, 0, 67, 87
1, 596645, Control_c, 0, 64, 92
1, 596645, Control_c, 0, 67, 88
1, 596650, Note_off_c, 0, 76, 61
1, 596660, Control_c, 0, 64, 93
1, 596660, Control_c, 0, 67, 88
1, 596698, Control_c, 0, 67, 89
1, 596727, Control_c, 0, 64, 93
1, 596801, Control_c, 0, 67, 90
1, 596830, Control_c, 0, 67, 90
1, 596875, Control_c, 0, 64, 93
1, 596889, Note_on_c, 0, 75, 43
1, 596890, Note_on_c, 0, 84, 56
1, 596905, Control_c, 0, 67, 91
1, 596935, Control_c, 0, 64, 92
1, 596965, Control_c, 0, 67, 92
1, 596980, Control_c, 0, 67, 92
1, 596995, Control_c, 0, 67, 93
1, 597009, Control_c, 0, 67, 94
1, 597024, Control_c, 0, 67, 96
1, 597039, Control_c, 0, 67, 98
1, 597053, Note_off_c, 0, 85, 33
1, 597069, Control_c, 0, 67, 101
1, 597081, Note_on_c, 0, 83, 61
1, 597099, Control_c, 0, 67, 103
1, 597126, Note_off_c, 0, 84, 56
1, 597128, Note_off_c, 0, 75, 55
1, 597128, Control_c, 0, 67, 116
1, 597143, Control_c, 0, 67, 127
1, 597276, Control_c, 0, 64, 92
1, 597306, Control_c, 0, 64, 91
1, 597317, Note_on_c, 0, 60, 35
1, 597321, Control_c, 0, 64, 90
1, 597335, Control_c, 0, 64, 88
1, 597350, Control_c, 0, 64, 84
1, 597365, Note_on_c, 0, 86, 65
1, 597365, Control_c, 0, 64, 79
1, 597377, Note_on_c, 0, 75, 35
1, 597380, Control_c, 0, 64, 73
1, 597395, Control_c, 0, 64, 67
1, 597409, Control_c, 0, 64, 61
1, 597430, Note_off_c, 0, 83, 38
1, 597432, Control_c, 0, 64, 57
1, 597447, Control_c, 0, 64, 55
1, 597476, Control_c, 0, 64, 56
1, 597491, Control_c, 0, 64, 58
1, 597506, Control_c, 0, 64, 60
1, 597521, Control_c, 0, 64, 62
1, 597535, Control_c, 0, 64, 64
1, 597539, Note_off_c, 0, 66, 36
1, 597550, Control_c, 0, 64, 66
1, 597565, Control_c, 0, 64, 68
1, 597580, Control_c, 0, 64, 70
1, 597595, Control_c, 0, 64, 71
1, 597609, Control_c, 0, 64, 72
1, 597624, Control_c, 0, 64, 72
1, 597639, Control_c, 0, 64, 73
1, 597653, Control_c, 0, 64, 73
1, 597668, Control_c, 0, 64, 74
1, 597683, Control_c, 0, 64, 75
1, 597698, Control_c, 0, 64, 75
1, 597742, Control_c, 0, 64, 76
1, 597821, Note_on_c, 0, 85, 58
1, 597862, Control_c, 0, 64, 76
1, 597874, Note_off_c, 0, 86, 59
1, 598108, Note_on_c, 0, 87, 61
1, 598133, Note_off_c, 0, 85, 57
1, 598388, Control_c, 0, 64, 76
1, 598417, Control_c, 0, 64, 75
1, 598421, Note_on_c, 0, 59, 31
1, 598432, Control_c, 0, 64, 74
1, 598447, Control_c, 0, 64, 71
1, 598462, Control_c, 0, 64, 66
1, 598476, Control_c, 0, 64, 61
1, 598479, Note_on_c, 0, 81, 51
1, 598491, Control_c, 0, 64, 56
1, 598495, Note_off_c, 0, 87, 64
1, 598506, Control_c, 0, 64, 54
1, 598521, Control_c, 0, 64, 53
1, 598524, Note_off_c, 0, 60, 39
1, 598552, Control_c, 0, 64, 53
1, 598567, Control_c, 0, 64, 54
1, 598581, Control_c, 0, 64, 57
1, 598596, Control_c, 0, 64, 60
1, 598611, Control_c, 0, 64, 63
1, 598626, Control_c, 0, 64, 65
1, 598641, Control_c, 0, 64, 67
1, 598655, Control_c, 0, 64, 69
1, 598670, Control_c, 0, 64, 71
1, 598685, Control_c, 0, 64, 73
1, 598699, Control_c, 0, 64, 74
1, 598714, Control_c, 0, 64, 74
1, 598729, Control_c, 0, 64, 75
1, 598744, Control_c, 0, 64, 76
1, 598759, Control_c, 0, 64, 77
1, 598774, Control_c, 0, 64, 78
1, 598789, Control_c, 0, 64, 78
1, 598790, Note_off_c, 0, 75, 59
1, 598804, Control_c, 0, 64, 79
1, 598819, Control_c, 0, 64, 79
1, 598863, Control_c, 0, 64, 80
1, 598961, Note_on_c, 0, 80, 55
1, 598980, Note_on_c, 0, 76, 43
1, 599028, Note_off_c, 0, 81, 43
1, 599159, Note_off_c, 0, 76, 42
1, 599168, Note_on_c, 0, 74, 54
1, 599186, Note_off_c, 0, 80, 62
1, 599298, Note_off_c, 0, 74, 45
1, 599300, Control_c, 0, 64, 79
1, 599321, Note_on_c, 0, 80, 55
1, 599330, Control_c, 0, 64, 78
1, 599339, Note_on_c, 0, 85, 69
1, 599345, Control_c, 0, 64, 75
1, 599355, Note_on_c, 0, 62, 34
1, 599360, Note_off_c, 0, 80, 57
1, 599361, Control_c, 0, 64, 69
1, 599366, Note_on_c, 0, 78, 51
1, 599376, Control_c, 0, 64, 62
1, 599391, Control_c, 0, 64, 55
1, 599405, Control_c, 0, 64, 50
1, 599420, Control_c, 0, 64, 47
1, 599435, Control_c, 0, 64, 47
1, 599464, Control_c, 0, 64, 47
1, 599479, Control_c, 0, 64, 50
1, 599494, Control_c, 0, 64, 54
1, 599509, Control_c, 0, 64, 58
1, 599523, Control_c, 0, 64, 62
1, 599538, Control_c, 0, 64, 64
1, 599553, Control_c, 0, 64, 65
1, 599568, Control_c, 0, 64, 67
1, 599583, Control_c, 0, 64, 69
1, 599597, Control_c, 0, 64, 70
1, 599612, Control_c, 0, 64, 71
1, 599627, Control_c, 0, 64, 72
1, 599642, Control_c, 0, 64, 72
1, 599656, Control_c, 0, 64, 73
1, 599679, Control_c, 0, 64, 74
1, 599709, Control_c, 0, 64, 74
1, 599738, Note_on_c, 0, 77, 38
1, 599738, Control_c, 0, 64, 75
1, 599788, Note_off_c, 0, 85, 41
1, 599883, Note_on_c, 0, 84, 57
1, 599886, Note_off_c, 0, 78, 34
1, 599985, Note_off_c, 0, 77, 36
1, 600024, Note_on_c, 0, 80, 40
1, 600332, Control_c, 0, 64, 74
1, 600357, Note_on_c, 0, 65, 32
1, 600361, Control_c, 0, 64, 74
1, 600376, Control_c, 0, 64, 73
1, 600391, Control_c, 0, 64, 71
1, 600406, Control_c, 0, 64, 68
1, 600407, Note_on_c, 0, 81, 55
1, 600428, Control_c, 0, 64, 64
1, 600436, Note_on_c, 0, 76, 26
1, 600440, Note_off_c, 0, 80, 52
1, 600443, Control_c, 0, 64, 59
1, 600458, Control_c, 0, 64, 56
1, 600473, Control_c, 0, 64, 53
1, 600487, Control_c, 0, 64, 50
1, 600502, Control_c, 0, 64, 48
1, 600517, Control_c, 0, 64, 46
1, 600532, Control_c, 0, 64, 44
1, 600547, Control_c, 0, 64, 44
1, 600576, Control_c, 0, 64, 44
1, 600591, Control_c, 0, 64, 46
1, 600604, Control_c, 0, 64, 50
1, 600619, Control_c, 0, 64, 56
1, 600620, Note_off_c, 0, 84, 37
1, 600634, Control_c, 0, 64, 60
1, 600649, Control_c, 0, 64, 62
1, 600664, Control_c, 0, 64, 64
1, 600679, Control_c, 0, 64, 65
1, 600694, Control_c, 0, 64, 66
1, 600708, Control_c, 0, 64, 68
1, 600723, Control_c, 0, 64, 69
1, 600738, Control_c, 0, 64, 70
1, 600753, Control_c, 0, 64, 71
1, 600768, Control_c, 0, 64, 71
1, 600783, Control_c, 0, 64, 72
1, 600798, Control_c, 0, 64, 72
1, 600842, Control_c, 0, 64, 73
1, 600913, Note_off_c, 0, 81, 59
1, 600922, Note_on_c, 0, 80, 49
1, 600976, Note_off_c, 0, 76, 55
1, 601119, Note_on_c, 0, 75, 47
1, 601495, Note_on_c, 0, 68, 19
1, 601501, Control_c, 0, 64, 72
1, 601511, Note_on_c, 0, 74, 38
1, 601516, Control_c, 0, 64, 72
1, 601531, Control_c, 0, 64, 71
1, 601546, Control_c, 0, 64, 68
1, 601549, Note_off_c, 0, 75, 57
1, 601561, Control_c, 0, 64, 64
1, 601576, Control_c, 0, 64, 59
1, 601591, Control_c, 0, 64, 56
1, 601606, Control_c, 0, 64, 55
1, 601621, Control_c, 0, 64, 54
1, 601650, Control_c, 0, 64, 54
1, 601665, Control_c, 0, 64, 53
1, 601687, Note_on_c, 0, 78, 52
1, 601709, Control_c, 0, 64, 54
1, 601724, Control_c, 0, 64, 57
1, 601739, Control_c, 0, 64, 60
1, 601755, Control_c, 0, 64, 63
1, 601770, Control_c, 0, 64, 65
1, 601785, Control_c, 0, 64, 67
1, 601799, Control_c, 0, 64, 68
1, 601814, Control_c, 0, 64, 70
1, 601829, Control_c, 0, 64, 71
1, 601841, Note_off_c, 0, 80, 55
1, 601843, Control_c, 0, 64, 73
1, 601858, Control_c, 0, 64, 74
1, 601871, Note_on_c, 0, 73, 41
1, 601873, Control_c, 0, 64, 75
1, 601888, Note_off_c, 0, 74, 36
1, 601888, Control_c, 0, 64, 76
1, 601903, Control_c, 0, 64, 77
1, 601925, Control_c, 0, 64, 78
1, 601940, Control_c, 0, 64, 79
1, 601954, Control_c, 0, 64, 80
1, 601969, Control_c, 0, 64, 81
1, 601982, Note_off_c, 0, 68, 40
1, 601984, Control_c, 0, 64, 83
1, 601999, Control_c, 0, 64, 84
1, 602014, Control_c, 0, 64, 86
1, 602029, Control_c, 0, 64, 88
1, 602044, Control_c, 0, 64, 89
1, 602046, Note_off_c, 0, 78, 43
1, 602058, Control_c, 0, 64, 90
1, 602073, Control_c, 0, 64, 92
1, 602088, Control_c, 0, 64, 93
1, 602102, Control_c, 0, 64, 94
1, 602117, Control_c, 0, 64, 96
1, 602121, Note_on_c, 0, 77, 59
1, 602131, Control_c, 0, 64, 98
1, 602146, Control_c, 0, 64, 101
1, 602161, Control_c, 0, 64, 103
1, 602176, Control_c, 0, 64, 107
1, 602189, Note_off_c, 0, 65, 42
1, 602191, Control_c, 0, 64, 111
1, 602205, Control_c, 0, 64, 116
1, 602210, Note_off_c, 0, 73, 35
1, 602220, Control_c, 0, 64, 127
1, 602241, Note_off_c, 0, 59, 41
1, 602267, Note_off_c, 0, 62, 40
1, 602457, Control_c, 0, 67, 124
1, 602472, Control_c, 0, 67, 119
1, 602487, Note_on_c, 0, 67, 31
1, 602487, Control_c, 0, 67, 113
1, 602502, Control_c, 0, 67, 107
1, 602516, Control_c, 0, 67, 101
1, 602531, Control_c, 0, 67, 94
1, 602547, Control_c, 0, 67, 86
1, 602562, Control_c, 0, 67, 78
1, 602577, Control_c, 0, 67, 68
1, 602592, Control_c, 0, 67, 59
1, 602607, Control_c, 0, 67, 52
1, 602621, Control_c, 0, 67, 43
1, 602636, Control_c, 0, 67, 0
1, 602718, Note_on_c, 0, 72, 57
1, 602900, Note_off_c, 0, 67, 42
1, 603036, Note_on_c, 0, 46, 30
1, 603057, Note_on_c, 0, 34, 34
1, 603058, Control_c, 0, 64, 103
1, 603062, Note_on_c, 0, 71, 61
1, 603072, Control_c, 0, 64, 85
1, 603087, Control_c, 0, 64, 70
1, 603102, Control_c, 0, 64, 58
1, 603117, Control_c, 0, 64, 42
1, 603132, Control_c, 0, 64, 0
1, 603160, Note_off_c, 0, 77, 38
1, 603162, Note_off_c, 0, 72, 55
1, 603221, Control_c, 0, 66, 127
1, 603341, Control_c, 0, 64, 39
1, 603355, Control_c, 0, 64, 52
1, 603370, Control_c, 0, 64, 60
1, 603385, Control_c, 0, 64, 63
1, 603400, Control_c, 0, 64, 64
1, 603421, Control_c, 0, 64, 66
1, 603431, Note_off_c, 0, 34, 44
1, 603436, Control_c, 0, 64, 68
1, 603451, Control_c, 0, 64, 71
1, 603466, Control_c, 0, 64, 74
1, 603480, Note_off_c, 0, 46, 58
1, 603481, Control_c, 0, 64, 77
1, 603496, Control_c, 0, 64, 81
1, 603510, Control_c, 0, 64, 85
1, 603525, Control_c, 0, 64, 89
1, 603540, Control_c, 0, 64, 94
1, 603555, Control_c, 0, 64, 98
1, 603570, Control_c, 0, 64, 103
1, 603585, Control_c, 0, 64, 108
1, 603600, Control_c, 0, 64, 127
1, 603901, Note_on_c, 0, 55, 36
1, 604801, Note_on_c, 0, 63, 48
1, 605256, Note_on_c, 0, 72, 62
1, 605407, Note_off_c, 0, 71, 35
1, 605434, Note_on_c, 0, 74, 78
1, 605534, Note_off_c, 0, 72, 51
1, 605630, Control_c, 0, 64, 109
1, 605645, Control_c, 0, 64, 101
1, 605667, Control_c, 0, 64, 94
1, 605682, Control_c, 0, 64, 88
1, 605696, Note_on_c, 0, 75, 77
1, 605697, Control_c, 0, 64, 81
1, 605708, Note_on_c, 0, 70, 47
1, 605712, Control_c, 0, 64, 74
1, 605727, Control_c, 0, 64, 65
1, 605743, Control_c, 0, 64, 55
1, 605755, Note_off_c, 0, 74, 59
1, 605758, Control_c, 0, 64, 44
1, 605772, Control_c, 0, 64, 30
1, 605787, Control_c, 0, 64, 0
1, 605921, Control_c, 0, 64, 31
1, 605936, Control_c, 0, 64, 44
1, 605951, Control_c, 0, 64, 58
1, 605965, Control_c, 0, 64, 63
1, 605980, Control_c, 0, 64, 65
1, 605995, Control_c, 0, 64, 67
1, 606010, Control_c, 0, 64, 70
1, 606024, Control_c, 0, 64, 75
1, 606039, Control_c, 0, 64, 79
1, 606054, Control_c, 0, 64, 86
1, 606069, Control_c, 0, 64, 93
1, 606083, Note_off_c, 0, 70, 33
1, 606084, Control_c, 0, 64, 101
1, 606098, Control_c, 0, 64, 112
1, 606113, Control_c, 0, 64, 127
1, 606333, Note_on_c, 0, 74, 80
1, 606420, Note_off_c, 0, 63, 38
1, 606435, Note_off_c, 0, 55, 58
1, 606464, Note_off_c, 0, 75, 52
1, 606563, Note_on_c, 0, 72, 84
1, 606585, Note_off_c, 0, 74, 64
1, 606713, Control_c, 0, 66, 0
1, 606899, Note_on_c, 0, 47, 35
1, 606903, Note_on_c, 0, 35, 42
1, 606936, Control_c, 0, 64, 87
1, 606950, Control_c, 0, 64, 66
1, 606957, Note_on_c, 0, 71, 83
1, 606965, Control_c, 0, 64, 39
1, 606980, Note_on_c, 0, 62, 55
1, 606980, Control_c, 0, 64, 0
1, 606993, Note_off_c, 0, 72, 60
1, 606995, Control_c, 0, 66, 127
1, 607099, Control_c, 0, 64, 44
1, 607113, Control_c, 0, 64, 60
1, 607122, Note_off_c, 0, 62, 61
1, 607128, Control_c, 0, 64, 65
1, 607143, Control_c, 0, 64, 68
1, 607165, Control_c, 0, 64, 73
1, 607175, Note_off_c, 0, 71, 65
1, 607177, Note_off_c, 0, 35, 61
1, 607180, Control_c, 0, 64, 79
1, 607195, Control_c, 0, 64, 86
1, 607210, Control_c, 0, 64, 93
1, 607225, Control_c, 0, 64, 100
1, 607240, Control_c, 0, 64, 108
1, 607243, Note_off_c, 0, 47, 63
1, 607254, Control_c, 0, 64, 119
1, 607269, Control_c, 0, 64, 127
1, 607408, Note_on_c, 0, 94, 60
1, 607418, Note_on_c, 0, 87, 48
1, 607531, Note_off_c, 0, 94, 63
1, 607542, Note_off_c, 0, 87, 62
1, 607687, Note_on_c, 0, 70, 55
1, 607848, Note_on_c, 0, 86, 50
1, 607862, Note_on_c, 0, 78, 29
1, 608175, Note_on_c, 0, 80, 44
1, 608184, Note_on_c, 0, 72, 38
1, 608199, Note_off_c, 0, 70, 37
1, 608208, Note_off_c, 0, 86, 36
1, 608248, Note_off_c, 0, 78, 40
1, 608263, Note_off_c, 0, 80, 61
1, 608492, Note_on_c, 0, 81, 45
1, 608509, Note_on_c, 0, 76, 26
1, 608509, Note_off_c, 0, 72, 50
1, 608679, Note_off_c, 0, 81, 38
1, 608790, Note_off_c, 0, 76, 38
1, 608888, Note_on_c, 0, 73, 41
1, 608909, Note_on_c, 0, 65, 32
1, 609098, Note_off_c, 0, 73, 56
1, 609316, Note_off_c, 0, 65, 42
1, 609413, Control_c, 0, 66, 0
1, 609583, Note_on_c, 0, 46, 26
1, 609600, Note_on_c, 0, 34, 38
1, 609605, Control_c, 0, 64, 103
1, 609611, Note_on_c, 0, 59, 69
1, 609620, Control_c, 0, 64, 81
1, 609634, Control_c, 0, 64, 66
1, 609649, Control_c, 0, 64, 52
1, 609657, Note_on_c, 0, 67, 35
1, 609664, Control_c, 0, 64, 32
1, 609679, Control_c, 0, 64, 0
1, 609783, Control_c, 0, 66, 127
1, 609843, Control_c, 0, 64, 33
1, 609857, Control_c, 0, 64, 50
1, 609872, Control_c, 0, 64, 60
1, 609887, Control_c, 0, 64, 64
1, 609902, Control_c, 0, 64, 68
1, 609917, Control_c, 0, 64, 72
1, 609927, Note_off_c, 0, 34, 40
1, 609931, Control_c, 0, 64, 79
1, 609946, Control_c, 0, 64, 85
1, 609961, Control_c, 0, 64, 92
1, 609976, Control_c, 0, 64, 97
1, 609981, Note_off_c, 0, 46, 53
1, 609991, Control_c, 0, 64, 103
1, 610006, Control_c, 0, 64, 109
1, 610021, Control_c, 0, 64, 117
1, 610036, Control_c, 0, 64, 127
1, 610176, Note_on_c, 0, 48, 43
1, 610355, Note_off_c, 0, 48, 54
1, 610405, Note_on_c, 0, 55, 37
1, 610435, Note_off_c, 0, 67, 43
1, 610589, Note_off_c, 0, 55, 33
1, 610593, Note_on_c, 0, 63, 53
1, 610644, Note_off_c, 0, 63, 57
1, 610799, Note_on_c, 0, 63, 56
1, 610985, Note_off_c, 0, 63, 35
1, 611023, Note_on_c, 0, 60, 67
1, 611043, Note_on_c, 0, 70, 46
1, 611083, Note_off_c, 0, 59, 52
1, 611146, Control_c, 0, 64, 122
1, 611161, Control_c, 0, 64, 117
1, 611176, Control_c, 0, 64, 113
1, 611191, Control_c, 0, 64, 109
1, 611205, Control_c, 0, 64, 106
1, 611220, Control_c, 0, 64, 102
1, 611235, Control_c, 0, 64, 99
1, 611243, Note_off_c, 0, 70, 39
1, 611250, Control_c, 0, 64, 95
1, 611263, Note_on_c, 0, 75, 50
1, 611265, Control_c, 0, 64, 93
1, 611273, Note_on_c, 0, 62, 74
1, 611279, Control_c, 0, 64, 90
1, 611294, Control_c, 0, 64, 88
1, 611309, Control_c, 0, 64, 86
1, 611324, Control_c, 0, 64, 83
1, 611340, Control_c, 0, 64, 81
1, 611355, Control_c, 0, 64, 79
1, 611370, Control_c, 0, 64, 77
1, 611376, Note_off_c, 0, 60, 52
1, 611384, Control_c, 0, 64, 76
1, 611399, Control_c, 0, 64, 74
1, 611414, Control_c, 0, 64, 73
1, 611428, Control_c, 0, 64, 72
1, 611443, Control_c, 0, 64, 70
1, 611458, Control_c, 0, 64, 68
1, 611473, Control_c, 0, 64, 66
1, 611488, Control_c, 0, 64, 65
1, 611502, Control_c, 0, 64, 64
1, 611517, Control_c, 0, 64, 64
1, 611532, Control_c, 0, 64, 63
1, 611547, Control_c, 0, 64, 63
1, 611562, Control_c, 0, 64, 62
1, 611592, Control_c, 0, 64, 62
1, 611607, Control_c, 0, 64, 61
1, 611622, Control_c, 0, 64, 61
1, 611626, Note_on_c, 0, 82, 50
1, 611630, Note_on_c, 0, 63, 72
1, 611658, Control_c, 0, 64, 60
1, 611673, Control_c, 0, 64, 60
1, 611703, Control_c, 0, 64, 59
1, 611732, Control_c, 0, 64, 59
1, 611747, Control_c, 0, 64, 58
1, 611762, Control_c, 0, 64, 58
1, 611783, Note_off_c, 0, 62, 33
1, 611791, Control_c, 0, 64, 57
1, 611806, Control_c, 0, 64, 57
1, 611851, Control_c, 0, 64, 56
1, 612325, Control_c, 0, 64, 57
1, 612392, Note_on_c, 0, 62, 69
1, 612515, Note_off_c, 0, 63, 59
1, 612799, Note_on_c, 0, 63, 80
1, 612945, Note_off_c, 0, 62, 36
1, 613061, Control_c, 0, 64, 57
1, 613075, Control_c, 0, 64, 59
1, 613090, Control_c, 0, 64, 63
1, 613105, Control_c, 0, 64, 68
1, 613120, Control_c, 0, 64, 74
1, 613135, Control_c, 0, 64, 81
1, 613157, Control_c, 0, 64, 87
1, 613172, Control_c, 0, 64, 94
1, 613186, Control_c, 0, 64, 108
1, 613192, Note_off_c, 0, 75, 34
1, 613201, Control_c, 0, 64, 127
1, 613203, Note_off_c, 0, 82, 38
1, 613725, Note_on_c, 0, 62, 74
1, 614009, Control_c, 0, 66, 0
1, 614054, Note_off_c, 0, 63, 21
1, 614108, Note_on_c, 0, 60, 83
1, 614153, Note_off_c, 0, 62, 56
1, 614627, Note_on_c, 0, 23, 54
1, 614636, Note_on_c, 0, 35, 53
1, 614696, Note_on_c, 0, 59, 85
1, 614729, Control_c, 0, 64, 79
1, 614731, Note_off_c, 0, 60, 63
1, 614743, Control_c, 0, 64, 55
1, 614758, Control_c, 0, 64, 0
1, 614890, Control_c, 0, 66, 127
1, 614964, Control_c, 0, 64, 33
1, 614978, Control_c, 0, 64, 50
1, 614993, Control_c, 0, 64, 60
1, 615008, Control_c, 0, 64, 64
1, 615023, Control_c, 0, 64, 68
1, 615038, Control_c, 0, 64, 71
1, 615053, Control_c, 0, 64, 76
1, 615067, Control_c, 0, 64, 81
1, 615079, Note_off_c, 0, 59, 62
1, 615082, Control_c, 0, 64, 87
1, 615085, Note_off_c, 0, 23, 40
1, 615097, Control_c, 0, 64, 93
1, 615112, Control_c, 0, 64, 99
1, 615127, Control_c, 0, 64, 108
1, 615138, Note_off_c, 0, 35, 61
1, 615142, Control_c, 0, 64, 116
1, 615157, Control_c, 0, 64, 127
1, 615306, Note_on_c, 0, 73, 47
1, 615515, Note_on_c, 0, 74, 56
1, 615526, Note_off_c, 0, 73, 37
1, 615817, Control_c, 0, 64, 122
1, 615819, Note_on_c, 0, 58, 76
1, 615832, Control_c, 0, 64, 104
1, 615834, Note_on_c, 0, 82, 54
1, 615840, Note_on_c, 0, 75, 43
1, 615847, Control_c, 0, 64, 90
1, 615862, Note_off_c, 0, 74, 45
1, 615862, Control_c, 0, 64, 78
1, 615876, Control_c, 0, 64, 68
1, 615891, Control_c, 0, 64, 58
1, 615906, Control_c, 0, 64, 47
1, 615920, Control_c, 0, 64, 37
1, 615935, Control_c, 0, 64, 29
1, 615950, Control_c, 0, 64, 0
1, 616329, Control_c, 0, 64, 32
1, 616344, Control_c, 0, 64, 50
1, 616358, Control_c, 0, 64, 62
1, 616366, Note_off_c, 0, 82, 60
1, 616373, Control_c, 0, 64, 66
1, 616388, Control_c, 0, 64, 69
1, 616403, Control_c, 0, 64, 73
1, 616415, Note_off_c, 0, 75, 64
1, 616418, Control_c, 0, 64, 77
1, 616433, Control_c, 0, 64, 82
1, 616448, Control_c, 0, 64, 87
1, 616463, Control_c, 0, 64, 92
1, 616477, Control_c, 0, 64, 96
1, 616492, Control_c, 0, 64, 99
1, 616507, Control_c, 0, 64, 102
1, 616522, Control_c, 0, 64, 104
1, 616537, Control_c, 0, 64, 106
1, 616551, Control_c, 0, 64, 108
1, 616566, Control_c, 0, 64, 110
1, 616581, Control_c, 0, 64, 113
1, 616596, Control_c, 0, 64, 115
1, 616611, Control_c, 0, 64, 118
1, 616625, Control_c, 0, 64, 120
1, 616640, Control_c, 0, 64, 127
1, 616720, Note_on_c, 0, 74, 50
1, 616723, Note_on_c, 0, 66, 46
1, 617601, Note_on_c, 0, 68, 43
1, 617617, Note_on_c, 0, 60, 26
1, 617684, Note_off_c, 0, 74, 18
1, 617833, Note_off_c, 0, 66, 20
1, 617872, Note_off_c, 0, 60, 41
1, 618080, Note_off_c, 0, 68, 61
1, 618448, Note_on_c, 0, 76, 38
1, 618454, Note_on_c, 0, 81, 46
1, 618593, Note_off_c, 0, 58, 56
1, 618660, Note_on_c, 0, 58, 71
1, 618886, Note_off_c, 0, 58, 61
1, 618963, Note_on_c, 0, 58, 68
1, 619079, Control_c, 0, 64, 122
1, 619094, Control_c, 0, 64, 115
1, 619109, Control_c, 0, 64, 110
1, 619124, Control_c, 0, 64, 106
1, 619145, Control_c, 0, 64, 103
1, 619160, Control_c, 0, 64, 99
1, 619165, Note_off_c, 0, 58, 61
1, 619175, Note_on_c, 0, 61, 73
1, 619175, Control_c, 0, 64, 96
1, 619190, Control_c, 0, 64, 93
1, 619205, Control_c, 0, 64, 88
1, 619220, Control_c, 0, 64, 84
1, 619220, Note_off_c, 0, 81, 27
1, 619235, Control_c, 0, 64, 80
1, 619250, Control_c, 0, 64, 77
1, 619265, Control_c, 0, 64, 73
1, 619279, Control_c, 0, 64, 70
1, 619294, Control_c, 0, 64, 66
1, 619309, Control_c, 0, 64, 63
1, 619324, Control_c, 0, 64, 62
1, 619339, Control_c, 0, 64, 61
1, 619354, Control_c, 0, 64, 60
1, 619369, Control_c, 0, 64, 60
1, 619384, Control_c, 0, 64, 59
1, 619399, Control_c, 0, 64, 59
1, 619414, Control_c, 0, 64, 58
1, 619417, Note_on_c, 0, 57, 58
1, 619422, Note_on_c, 0, 73, 49
1, 619428, Control_c, 0, 64, 56
1, 619437, Note_on_c, 0, 65, 37
1, 619443, Control_c, 0, 64, 55
1, 619458, Control_c, 0, 64, 54
1, 619468, Note_off_c, 0, 61, 58
1, 619473, Control_c, 0, 64, 52
1, 619488, Control_c, 0, 64, 48
1, 619503, Control_c, 0, 64, 42
1, 619517, Control_c, 0, 64, 0
1, 619539, Note_off_c, 0, 76, 44
1, 619754, Control_c, 0, 64, 42
1, 619768, Control_c, 0, 64, 56
1, 619783, Control_c, 0, 64, 63
1, 619798, Control_c, 0, 64, 66
1, 619813, Control_c, 0, 64, 69
1, 619828, Control_c, 0, 64, 73
1, 619843, Control_c, 0, 64, 78
1, 619858, Control_c, 0, 64, 84
1, 619873, Control_c, 0, 64, 90
1, 619894, Control_c, 0, 64, 98
1, 619909, Control_c, 0, 64, 108
1, 619924, Control_c, 0, 64, 127
1, 619947, Note_off_c, 0, 73, 51
1, 619979, Note_off_c, 0, 57, 57
1, 620036, Note_off_c, 0, 65, 56
1, 620582, Note_on_c, 0, 67, 33
1, 620589, Note_on_c, 0, 35, 19
1, 620591, Note_on_c, 0, 23, 37
1, 620607, Note_on_c, 0, 59, 27
1, 620766, Note_off_c, 0, 23, 40
1, 620779, Note_off_c, 0, 35, 40
1, 620821, Note_off_c, 0, 59, 43
1, 620964, Note_off_c, 0, 67, 39
1, 621680, Note_on_c, 0, 54, 60
1, 621692, Note_on_c, 0, 82, 47
1, 621715, Note_on_c, 0, 75, 35
1, 621807, Control_c, 0, 64, 109
1, 621822, Control_c, 0, 64, 96
1, 621837, Control_c, 0, 64, 87
1, 621852, Control_c, 0, 64, 80
1, 621867, Control_c, 0, 64, 74
1, 621882, Control_c, 0, 64, 70
1, 621896, Control_c, 0, 64, 66
1, 621911, Control_c, 0, 64, 62
1, 621926, Control_c, 0, 64, 61
1, 621941, Control_c, 0, 64, 61
1, 621956, Control_c, 0, 64, 62
1, 621970, Control_c, 0, 64, 64
1, 621985, Control_c, 0, 64, 67
1, 622000, Control_c, 0, 64, 72
1, 622015, Control_c, 0, 64, 77
1, 622030, Control_c, 0, 64, 80
1, 622044, Control_c, 0, 64, 83
1, 622059, Control_c, 0, 64, 88
1, 622074, Control_c, 0, 64, 94
1, 622080, Note_off_c, 0, 82, 57
1, 622088, Control_c, 0, 64, 99
1, 622103, Control_c, 0, 64, 105
1, 622118, Control_c, 0, 64, 114
1, 622133, Control_c, 0, 64, 127
1, 622148, Note_off_c, 0, 75, 54
1, 622612, Note_on_c, 0, 74, 35
1, 622629, Note_on_c, 0, 66, 28
1, 623528, Note_on_c, 0, 68, 39
1, 623548, Note_on_c, 0, 60, 20
1, 623584, Note_off_c, 0, 74, 24
1, 623730, Note_off_c, 0, 66, 39
1, 623790, Note_off_c, 0, 54, 37
1, 624111, Note_off_c, 0, 60, 39
1, 624141, Note_on_c, 0, 54, 44
1, 624246, Note_off_c, 0, 68, 60
1, 624351, Control_c, 0, 64, 113
1, 624357, Note_on_c, 0, 57, 58
1, 624365, Control_c, 0, 64, 104
1, 624366, Note_off_c, 0, 54, 48
1, 624388, Control_c, 0, 64, 98
1, 624403, Control_c, 0, 64, 93
1, 624418, Control_c, 0, 64, 88
1, 624433, Control_c, 0, 64, 85
1, 624447, Control_c, 0, 64, 83
1, 624462, Control_c, 0, 64, 81
1, 624477, Control_c, 0, 64, 80
1, 624491, Control_c, 0, 64, 79
1, 624506, Control_c, 0, 64, 78
1, 624521, Control_c, 0, 64, 78
1, 624551, Control_c, 0, 64, 77
1, 624565, Control_c, 0, 64, 77
1, 624580, Control_c, 0, 64, 76
1, 624595, Control_c, 0, 64, 75
1, 624610, Control_c, 0, 64, 75
1, 624625, Control_c, 0, 64, 73
1, 624639, Control_c, 0, 64, 72
1, 624654, Control_c, 0, 64, 70
1, 624667, Note_on_c, 0, 53, 49
1, 624669, Control_c, 0, 64, 68
1, 624683, Note_on_c, 0, 81, 38
1, 624684, Control_c, 0, 64, 66
1, 624685, Note_on_c, 0, 76, 34
1, 624699, Control_c, 0, 64, 65
1, 624714, Control_c, 0, 64, 64
1, 624723, Note_off_c, 0, 57, 51
1, 624729, Control_c, 0, 64, 62
1, 624743, Control_c, 0, 64, 61
1, 624758, Control_c, 0, 64, 60
1, 624773, Control_c, 0, 64, 58
1, 624788, Control_c, 0, 64, 57
1, 624803, Control_c, 0, 64, 55
1, 624818, Control_c, 0, 64, 53
1, 624833, Control_c, 0, 64, 52
1, 624847, Control_c, 0, 64, 50
1, 624862, Control_c, 0, 64, 48
1, 624877, Control_c, 0, 64, 47
1, 624891, Control_c, 0, 64, 45
1, 624906, Control_c, 0, 64, 42
1, 624922, Control_c, 0, 64, 40
1, 624937, Control_c, 0, 64, 38
1, 624952, Control_c, 0, 64, 37
1, 624967, Control_c, 0, 64, 37
1, 624982, Control_c, 0, 64, 36
1, 624996, Control_c, 0, 64, 36
1, 625070, Control_c, 0, 64, 35
1, 625167, Control_c, 0, 64, 36
1, 625196, Control_c, 0, 64, 38
1, 625211, Control_c, 0, 64, 43
1, 625226, Control_c, 0, 64, 53
1, 625241, Control_c, 0, 64, 60
1, 625256, Control_c, 0, 64, 65
1, 625270, Control_c, 0, 64, 68
1, 625285, Control_c, 0, 64, 71
1, 625300, Control_c, 0, 64, 74
1, 625314, Control_c, 0, 64, 76
1, 625329, Control_c, 0, 64, 80
1, 625344, Control_c, 0, 64, 84
1, 625359, Control_c, 0, 64, 88
1, 625374, Control_c, 0, 64, 92
1, 625388, Control_c, 0, 64, 96
1, 625400, Note_off_c, 0, 81, 33
1, 625403, Control_c, 0, 64, 101
1, 625418, Control_c, 0, 64, 106
1, 625432, Control_c, 0, 64, 117
1, 625447, Control_c, 0, 64, 127
1, 625714, Note_on_c, 0, 73, 29
1, 625721, Note_on_c, 0, 65, 16
1, 625977, Note_off_c, 0, 76, 42
1, 625985, Note_off_c, 0, 53, 55
1, 626010, Note_off_c, 0, 73, 42
1, 626136, Note_off_c, 0, 65, 50
1, 626960, Control_c, 0, 64, 124
1, 626967, Note_on_c, 0, 67, 33
1, 626970, Note_on_c, 0, 23, 34
1, 626975, Control_c, 0, 64, 105
1, 626984, Note_on_c, 0, 59, 20
1, 626985, Note_on_c, 0, 35, 29
1, 626990, Control_c, 0, 64, 95
1, 627005, Control_c, 0, 64, 86
1, 627020, Control_c, 0, 64, 79
1, 627034, Control_c, 0, 64, 71
1, 627049, Control_c, 0, 64, 64
1, 627064, Control_c, 0, 64, 58
1, 627079, Control_c, 0, 64, 54
1, 627093, Control_c, 0, 64, 53
1, 627138, Control_c, 0, 64, 54
1, 627152, Control_c, 0, 64, 57
1, 627167, Control_c, 0, 64, 61
1, 627182, Control_c, 0, 64, 64
1, 627197, Control_c, 0, 64, 69
1, 627212, Control_c, 0, 64, 73
1, 627227, Control_c, 0, 64, 77
1, 627241, Control_c, 0, 64, 80
1, 627256, Control_c, 0, 64, 82
1, 627261, Note_off_c, 0, 23, 40
1, 627271, Control_c, 0, 64, 86
1, 627286, Note_off_c, 0, 35, 38
1, 627286, Control_c, 0, 64, 90
1, 627301, Control_c, 0, 64, 95
1, 627316, Control_c, 0, 64, 100
1, 627325, Note_off_c, 0, 59, 43
1, 627331, Control_c, 0, 64, 107
1, 627346, Control_c, 0, 64, 115
1, 627361, Control_c, 0, 64, 127
1, 627447, Note_off_c, 0, 67, 39
1, 628472, Control_c, 0, 64, 122
1, 628487, Control_c, 0, 64, 110
1, 628495, Note_on_c, 0, 49, 52
1, 628502, Control_c, 0, 64, 101
1, 628505, Note_on_c, 0, 82, 42
1, 628517, Control_c, 0, 64, 93
1, 628525, Note_on_c, 0, 75, 34
1, 628531, Control_c, 0, 64, 85
1, 628546, Control_c, 0, 64, 77
1, 628561, Control_c, 0, 64, 70
1, 628576, Control_c, 0, 64, 64
1, 628591, Control_c, 0, 64, 59
1, 628605, Control_c, 0, 64, 57
1, 628620, Control_c, 0, 64, 56
1, 628635, Control_c, 0, 64, 56
1, 628724, Control_c, 0, 64, 57
1, 628738, Control_c, 0, 64, 58
1, 628753, Control_c, 0, 64, 61
1, 628768, Control_c, 0, 64, 63
1, 628783, Control_c, 0, 64, 65
1, 628798, Control_c, 0, 64, 69
1, 628812, Control_c, 0, 64, 73
1, 628827, Control_c, 0, 64, 77
1, 628842, Control_c, 0, 64, 79
1, 628857, Control_c, 0, 64, 81
1, 628872, Control_c, 0, 64, 84
1, 628894, Control_c, 0, 64, 87
1, 628910, Control_c, 0, 64, 91
1, 628925, Control_c, 0, 64, 94
1, 628940, Control_c, 0, 64, 97
1, 628954, Control_c, 0, 64, 100
1, 628969, Control_c, 0, 64, 103
1, 628984, Control_c, 0, 64, 106
1, 628999, Control_c, 0, 64, 109
1, 629014, Control_c, 0, 64, 112
1, 629028, Control_c, 0, 64, 116
1, 629043, Control_c, 0, 64, 120
1, 629058, Control_c, 0, 64, 127
1, 629096, Note_off_c, 0, 82, 36
1, 629487, Note_on_c, 0, 74, 40
1, 629499, Note_on_c, 0, 66, 30
1, 629579, Note_off_c, 0, 75, 37
1, 629843, Note_off_c, 0, 66, 42
1, 630446, Note_on_c, 0, 81, 33
1, 630455, Note_on_c, 0, 76, 31
1, 630571, Control_c, 0, 64, 120
1, 630578, Note_off_c, 0, 74, 29
1, 630586, Control_c, 0, 64, 117
1, 630601, Control_c, 0, 64, 114
1, 630615, Control_c, 0, 64, 112
1, 630630, Control_c, 0, 64, 110
1, 630659, Control_c, 0, 64, 108
1, 630704, Control_c, 0, 64, 105
1, 630748, Control_c, 0, 64, 103
1, 630778, Control_c, 0, 64, 101
1, 630822, Control_c, 0, 64, 99
1, 630866, Control_c, 0, 64, 96
1, 630881, Control_c, 0, 64, 95
1, 630896, Control_c, 0, 64, 95
1, 630911, Control_c, 0, 64, 94
1, 630926, Control_c, 0, 64, 93
1, 630941, Control_c, 0, 64, 92
1, 630956, Control_c, 0, 64, 92
1, 630971, Control_c, 0, 64, 91
1, 630985, Control_c, 0, 64, 90
1, 631000, Control_c, 0, 64, 89
1, 631015, Control_c, 0, 64, 89
1, 631030, Control_c, 0, 64, 88
1, 631044, Control_c, 0, 64, 87
1, 631059, Control_c, 0, 64, 86
1, 631063, Note_on_c, 0, 48, 50
1, 631074, Control_c, 0, 64, 85
1, 631089, Control_c, 0, 64, 84
1, 631104, Control_c, 0, 64, 83
1, 631126, Control_c, 0, 64, 82
1, 631140, Control_c, 0, 64, 81
1, 631155, Control_c, 0, 64, 79
1, 631170, Control_c, 0, 64, 78
1, 631185, Control_c, 0, 64, 75
1, 631200, Control_c, 0, 64, 72
1, 631215, Control_c, 0, 64, 68
1, 631230, Control_c, 0, 64, 65
1, 631245, Control_c, 0, 64, 63
1, 631259, Control_c, 0, 64, 62
1, 631274, Control_c, 0, 64, 61
1, 631304, Control_c, 0, 64, 61
1, 631348, Note_off_c, 0, 49, 37
1, 631364, Control_c, 0, 64, 60
1, 631409, Control_c, 0, 64, 61
1, 631418, Note_off_c, 0, 81, 15
1, 631438, Control_c, 0, 64, 61
1, 631453, Control_c, 0, 64, 62
1, 631482, Control_c, 0, 64, 63
1, 631497, Control_c, 0, 64, 63
1, 631512, Control_c, 0, 64, 64
1, 631527, Control_c, 0, 64, 65
1, 631571, Control_c, 0, 64, 65
1, 631573, Note_on_c, 0, 73, 38
1, 631595, Note_on_c, 0, 65, 33
1, 631823, Control_c, 0, 64, 66
1, 631874, Control_c, 0, 64, 66
1, 631951, Note_off_c, 0, 76, 42
1, 632053, Control_c, 0, 64, 66
1, 632091, Note_on_c, 0, 49, 52
1, 632097, Control_c, 0, 64, 65
1, 632127, Control_c, 0, 64, 65
1, 632142, Control_c, 0, 64, 64
1, 632157, Control_c, 0, 64, 64
1, 632172, Control_c, 0, 64, 63
1, 632202, Control_c, 0, 64, 63
1, 632226, Note_off_c, 0, 48, 36
1, 632246, Control_c, 0, 64, 62
1, 632305, Control_c, 0, 64, 62
1, 632350, Control_c, 0, 64, 61
1, 632379, Control_c, 0, 64, 61
1, 632394, Control_c, 0, 64, 60
1, 632397, Note_on_c, 0, 51, 70
1, 632409, Control_c, 0, 64, 59
1, 632423, Control_c, 0, 64, 58
1, 632438, Control_c, 0, 64, 57
1, 632441, Note_off_c, 0, 73, 62
1, 632453, Control_c, 0, 64, 56
1, 632468, Control_c, 0, 64, 56
1, 632497, Control_c, 0, 64, 55
1, 632500, Note_off_c, 0, 49, 55
1, 632527, Control_c, 0, 64, 56
1, 632542, Control_c, 0, 64, 58
1, 632547, Note_off_c, 0, 65, 58
1, 632557, Control_c, 0, 64, 61
1, 632571, Control_c, 0, 64, 65
1, 632586, Control_c, 0, 64, 69
1, 632601, Control_c, 0, 64, 74
1, 632623, Control_c, 0, 64, 77
1, 632638, Control_c, 0, 64, 79
1, 632653, Control_c, 0, 64, 80
1, 632668, Control_c, 0, 64, 82
1, 632683, Control_c, 0, 64, 82
1, 632698, Control_c, 0, 64, 83
1, 632712, Control_c, 0, 64, 83
1, 632786, Control_c, 0, 64, 83
1, 632816, Control_c, 0, 64, 81
1, 632831, Control_c, 0, 64, 77
1, 632839, Note_on_c, 0, 67, 53
1, 632841, Note_on_c, 0, 52, 62
1, 632846, Control_c, 0, 64, 72
1, 632849, Note_on_c, 0, 59, 45
1, 632860, Control_c, 0, 64, 65
1, 632875, Control_c, 0, 64, 60
1, 632890, Control_c, 0, 64, 55
1, 632906, Control_c, 0, 64, 52
1, 632920, Control_c, 0, 64, 47
1, 632935, Control_c, 0, 64, 41
1, 632950, Control_c, 0, 64, 31
1, 632961, Note_off_c, 0, 51, 53
1, 632965, Control_c, 0, 64, 0
1, 633466, Note_on_c, 0, 51, 53
1, 633517, Note_off_c, 0, 52, 54
1, 633856, Note_on_c, 0, 49, 44
1, 633871, Note_off_c, 0, 51, 58
1, 634010, Control_c, 0, 64, 31
1, 634025, Control_c, 0, 64, 42
1, 634040, Control_c, 0, 64, 54
1, 634055, Control_c, 0, 64, 61
1, 634069, Control_c, 0, 64, 64
1, 634070, Note_off_c, 0, 67, 62
1, 634084, Control_c, 0, 64, 66
1, 634099, Control_c, 0, 64, 69
1, 634114, Control_c, 0, 64, 73
1, 634136, Control_c, 0, 64, 77
1, 634151, Control_c, 0, 64, 81
1, 634166, Control_c, 0, 64, 85
1, 634181, Control_c, 0, 64, 90
1, 634196, Control_c, 0, 64, 93
1, 634210, Control_c, 0, 64, 95
1, 634225, Control_c, 0, 64, 96
1, 634255, Control_c, 0, 64, 98
1, 634284, Control_c, 0, 64, 100
1, 634552, Control_c, 0, 64, 96
1, 634566, Control_c, 0, 64, 93
1, 634581, Control_c, 0, 64, 88
1, 634589, Note_on_c, 0, 70, 44
1, 634593, Note_on_c, 0, 48, 46
1, 634595, Note_on_c, 0, 63, 39
1, 634596, Control_c, 0, 64, 82
1, 634611, Control_c, 0, 64, 76
1, 634625, Control_c, 0, 64, 70
1, 634640, Control_c, 0, 64, 65
1, 634655, Control_c, 0, 64, 60
1, 634670, Control_c, 0, 64, 56
1, 634674, Note_off_c, 0, 59, 40
1, 634685, Control_c, 0, 64, 53
1, 634700, Control_c, 0, 64, 51
1, 634715, Control_c, 0, 64, 50
1, 634724, Note_off_c, 0, 49, 33
1, 634729, Control_c, 0, 64, 49
1, 634744, Control_c, 0, 64, 48
1, 634759, Control_c, 0, 64, 47
1, 634774, Control_c, 0, 64, 47
1, 634804, Control_c, 0, 64, 46
1, 634959, Control_c, 0, 64, 46
1, 634974, Control_c, 0, 66, 0
1, 635033, Control_c, 0, 64, 46
1, 635093, Control_c, 0, 64, 47
1, 635108, Control_c, 0, 64, 48
1, 635138, Control_c, 0, 64, 49
1, 635153, Control_c, 0, 64, 50
1, 635168, Control_c, 0, 64, 51
1, 635182, Control_c, 0, 64, 53
1, 635197, Control_c, 0, 64, 55
1, 635212, Control_c, 0, 64, 58
1, 635226, Control_c, 0, 64, 60
1, 635241, Control_c, 0, 64, 64
1, 635256, Control_c, 0, 64, 68
1, 635271, Control_c, 0, 64, 72
1, 635286, Control_c, 0, 64, 76
1, 635302, Control_c, 0, 64, 80
1, 635316, Control_c, 0, 64, 85
1, 635331, Control_c, 0, 64, 94
1, 635346, Control_c, 0, 64, 104
1, 635361, Control_c, 0, 64, 127
1, 635647, Note_off_c, 0, 48, 38
1, 635960, Control_c, 0, 67, 47
1, 635974, Control_c, 0, 67, 51
1, 635989, Control_c, 0, 67, 51
1, 636004, Control_c, 0, 67, 51
1, 636019, Control_c, 0, 67, 50
1, 636034, Control_c, 0, 67, 48
1, 636048, Control_c, 0, 67, 46
1, 636063, Control_c, 0, 67, 43
1, 636078, Control_c, 0, 67, 41
1, 636094, Control_c, 0, 67, 39
1, 636109, Control_c, 0, 67, 0
1, 636885, Note_on_c, 0, 47, 44
1, 636890, Note_on_c, 0, 35, 42
1, 636902, Control_c, 0, 64, 102
1, 636917, Control_c, 0, 64, 89
1, 636932, Control_c, 0, 64, 80
1, 636947, Control_c, 0, 64, 72
1, 636961, Control_c, 0, 64, 63
1, 636976, Control_c, 0, 64, 57
1, 636991, Control_c, 0, 64, 53
1, 637006, Control_c, 0, 64, 50
1, 637020, Control_c, 0, 64, 49
1, 637035, Control_c, 0, 64, 46
1, 637050, Control_c, 0, 64, 41
1, 637065, Control_c, 0, 64, 30
1, 637080, Control_c, 0, 64, 0
1, 637280, Control_c, 0, 64, 40
1, 637294, Control_c, 0, 64, 52
1, 637309, Control_c, 0, 64, 60
1, 637324, Control_c, 0, 64, 63
1, 637339, Control_c, 0, 64, 64
1, 637354, Control_c, 0, 64, 66
1, 637368, Control_c, 0, 64, 68
1, 637383, Control_c, 0, 64, 71
1, 637398, Control_c, 0, 64, 75
1, 637412, Control_c, 0, 64, 77
1, 637427, Control_c, 0, 64, 80
1, 637442, Control_c, 0, 64, 83
1, 637457, Control_c, 0, 64, 86
1, 637472, Control_c, 0, 64, 89
1, 637487, Control_c, 0, 64, 92
1, 637496, Note_off_c, 0, 70, 35
1, 637502, Control_c, 0, 64, 94
1, 637517, Control_c, 0, 64, 96
1, 637546, Control_c, 0, 64, 98
1, 637585, Note_off_c, 0, 63, 39
1, 637591, Control_c, 0, 64, 100
1, 637591, Control_c, 0, 67, 38
1, 637606, Control_c, 0, 67, 42
1, 637620, Control_c, 0, 67, 48
1, 637635, Control_c, 0, 67, 56
1, 637650, Control_c, 0, 67, 66
1, 637665, Control_c, 0, 67, 74
1, 637680, Control_c, 0, 67, 79
1, 637695, Control_c, 0, 67, 79
1, 637725, Control_c, 0, 67, 79
1, 637740, Control_c, 0, 67, 78
1, 637755, Control_c, 0, 67, 77
1, 637770, Control_c, 0, 67, 75
1, 637784, Control_c, 0, 67, 74
1, 637799, Control_c, 0, 67, 73
1, 637829, Control_c, 0, 67, 73
1, 637843, Control_c, 0, 67, 72
1, 637858, Control_c, 0, 67, 71
1, 637976, Note_on_c, 0, 62, 37
1, 637985, Note_on_c, 0, 54, 39
1, 637999, Control_c, 0, 64, 96
1, 638014, Control_c, 0, 64, 90
1, 638029, Control_c, 0, 64, 84
1, 638043, Control_c, 0, 64, 77
1, 638058, Control_c, 0, 64, 70
1, 638073, Control_c, 0, 64, 65
1, 638088, Control_c, 0, 64, 61
1, 638088, Control_c, 0, 67, 71
1, 638117, Control_c, 0, 64, 61
1, 638117, Control_c, 0, 67, 70
1, 638132, Control_c, 0, 64, 63
1, 638147, Control_c, 0, 64, 65
1, 638162, Control_c, 0, 64, 68
1, 638176, Control_c, 0, 64, 72
1, 638176, Control_c, 0, 67, 70
1, 638191, Control_c, 0, 64, 76
1, 638206, Control_c, 0, 64, 79
1, 638221, Control_c, 0, 64, 81
1, 638236, Control_c, 0, 64, 84
1, 638236, Control_c, 0, 67, 69
1, 638250, Control_c, 0, 64, 87
1, 638265, Control_c, 0, 64, 90
1, 638280, Control_c, 0, 64, 94
1, 638295, Control_c, 0, 64, 98
1, 638310, Control_c, 0, 64, 103
1, 638324, Note_off_c, 0, 54, 55
1, 638324, Control_c, 0, 64, 108
1, 638339, Control_c, 0, 64, 114
1, 638354, Control_c, 0, 64, 127
1, 638369, Control_c, 0, 67, 70
1, 638399, Control_c, 0, 67, 70
1, 638414, Control_c, 0, 67, 71
1, 638429, Control_c, 0, 67, 71
1, 638443, Control_c, 0, 67, 72
1, 638518, Control_c, 0, 67, 73
1, 638548, Control_c, 0, 67, 73
1, 638563, Control_c, 0, 67, 74
1, 638592, Control_c, 0, 67, 75
1, 638614, Control_c, 0, 67, 75
1, 638629, Control_c, 0, 67, 76
1, 638644, Control_c, 0, 67, 77
1, 638659, Control_c, 0, 67, 78
1, 638673, Control_c, 0, 67, 79
1, 638688, Control_c, 0, 67, 79
1, 638703, Control_c, 0, 67, 81
1, 638718, Control_c, 0, 67, 81
1, 638733, Control_c, 0, 67, 83
1, 638748, Control_c, 0, 67, 83
1, 638763, Control_c, 0, 67, 84
1, 638807, Control_c, 0, 67, 85
1, 638822, Control_c, 0, 67, 85
1, 638852, Control_c, 0, 67, 86
1, 638867, Control_c, 0, 67, 86
1, 638882, Control_c, 0, 67, 90
1, 638897, Control_c, 0, 67, 112
1, 638912, Control_c, 0, 67, 127
1, 639119, Control_c, 0, 64, 119
1, 639120, Note_on_c, 0, 70, 44
1, 639125, Note_on_c, 0, 63, 29
1, 639134, Control_c, 0, 64, 104
1, 639148, Control_c, 0, 64, 94
1, 639163, Control_c, 0, 64, 85
1, 639178, Control_c, 0, 64, 77
1, 639192, Control_c, 0, 64, 70
1, 639207, Control_c, 0, 64, 64
1, 639222, Control_c, 0, 64, 61
1, 639237, Control_c, 0, 64, 60
1, 639252, Control_c, 0, 64, 60
1, 639266, Note_off_c, 0, 62, 32
1, 639266, Control_c, 0, 64, 61
1, 639282, Control_c, 0, 64, 61
1, 639297, Control_c, 0, 64, 62
1, 639312, Control_c, 0, 64, 65
1, 639327, Control_c, 0, 64, 67
1, 639342, Control_c, 0, 64, 71
1, 639364, Control_c, 0, 64, 75
1, 639379, Control_c, 0, 64, 77
1, 639394, Control_c, 0, 64, 79
1, 639409, Control_c, 0, 64, 82
1, 639423, Control_c, 0, 64, 86
1, 639438, Control_c, 0, 64, 90
1, 639453, Control_c, 0, 64, 94
1, 639468, Control_c, 0, 64, 97
1, 639483, Control_c, 0, 64, 100
1, 639497, Control_c, 0, 64, 102
1, 639512, Control_c, 0, 64, 105
1, 639527, Control_c, 0, 64, 108
1, 639542, Control_c, 0, 64, 110
1, 639557, Note_off_c, 0, 47, 32
1, 639557, Control_c, 0, 64, 114
1, 639571, Control_c, 0, 64, 117
1, 639586, Control_c, 0, 64, 122
1, 639598, Note_off_c, 0, 35, 38
1, 639601, Control_c, 0, 64, 127
1, 640570, Control_c, 0, 64, 120
1, 640585, Control_c, 0, 64, 108
1, 640590, Note_on_c, 0, 44, 36
1, 640591, Note_on_c, 0, 32, 42
1, 640600, Control_c, 0, 64, 100
1, 640615, Control_c, 0, 64, 93
1, 640629, Control_c, 0, 64, 85
1, 640644, Control_c, 0, 64, 79
1, 640659, Control_c, 0, 64, 72
1, 640674, Control_c, 0, 64, 66
1, 640689, Control_c, 0, 64, 61
1, 640704, Control_c, 0, 64, 58
1, 640718, Control_c, 0, 64, 56
1, 640733, Control_c, 0, 64, 55
1, 640748, Control_c, 0, 64, 55
1, 640763, Control_c, 0, 64, 54
1, 640778, Control_c, 0, 64, 54
1, 640793, Control_c, 0, 64, 53
1, 640890, Control_c, 0, 64, 54
1, 640905, Control_c, 0, 64, 55
1, 640920, Control_c, 0, 64, 56
1, 640934, Control_c, 0, 64, 58
1, 640949, Control_c, 0, 64, 60
1, 640964, Control_c, 0, 64, 62
1, 640979, Control_c, 0, 64, 64
1, 640993, Control_c, 0, 64, 67
1, 641008, Control_c, 0, 64, 70
1, 641023, Control_c, 0, 64, 74
1, 641038, Control_c, 0, 64, 76
1, 641053, Control_c, 0, 64, 79
1, 641067, Control_c, 0, 64, 81
1, 641082, Control_c, 0, 64, 83
1, 641097, Control_c, 0, 64, 86
1, 641112, Control_c, 0, 64, 89
1, 641127, Control_c, 0, 64, 91
1, 641129, Note_off_c, 0, 70, 37
1, 641141, Control_c, 0, 64, 94
1, 641156, Control_c, 0, 64, 97
1, 641171, Control_c, 0, 64, 99
1, 641186, Control_c, 0, 64, 101
1, 641201, Note_off_c, 0, 63, 40
1, 641201, Control_c, 0, 64, 103
1, 641216, Control_c, 0, 64, 105
1, 641231, Control_c, 0, 64, 108
1, 641260, Control_c, 0, 64, 112
1, 641290, Control_c, 0, 64, 114
1, 641334, Control_c, 0, 64, 116
1, 641727, Note_on_c, 0, 62, 34
1, 641739, Note_on_c, 0, 54, 29
1, 641758, Control_c, 0, 64, 113
1, 641772, Control_c, 0, 64, 108
1, 641787, Control_c, 0, 64, 100
1, 641803, Control_c, 0, 64, 92
1, 641817, Control_c, 0, 64, 84
1, 641832, Control_c, 0, 64, 78
1, 641847, Control_c, 0, 64, 72
1, 641862, Control_c, 0, 64, 67
1, 641877, Control_c, 0, 64, 63
1, 641891, Control_c, 0, 64, 62
1, 641921, Control_c, 0, 64, 63
1, 641936, Control_c, 0, 64, 64
1, 641951, Control_c, 0, 64, 66
1, 641965, Control_c, 0, 64, 70
1, 641980, Control_c, 0, 64, 74
1, 641995, Control_c, 0, 64, 77
1, 642009, Control_c, 0, 64, 78
1, 642024, Control_c, 0, 64, 80
1, 642039, Control_c, 0, 64, 83
1, 642054, Control_c, 0, 64, 86
1, 642069, Control_c, 0, 64, 90
1, 642083, Control_c, 0, 64, 93
1, 642098, Control_c, 0, 64, 97
1, 642113, Control_c, 0, 64, 100
1, 642128, Control_c, 0, 64, 103
1, 642143, Control_c, 0, 64, 107
1, 642146, Note_off_c, 0, 54, 41
1, 642158, Control_c, 0, 64, 112
1, 642173, Control_c, 0, 64, 120
1, 642188, Control_c, 0, 64, 127
1, 642373, Control_c, 0, 67, 120
1, 642387, Control_c, 0, 67, 110
1, 642402, Control_c, 0, 67, 100
1, 642417, Control_c, 0, 67, 94
1, 642432, Control_c, 0, 67, 89
1, 642447, Control_c, 0, 67, 85
1, 642462, Control_c, 0, 67, 82
1, 642477, Control_c, 0, 67, 80
1, 642492, Control_c, 0, 67, 79
1, 642566, Control_c, 0, 67, 79
1, 642581, Control_c, 0, 67, 82
1, 642595, Control_c, 0, 67, 85
1, 642610, Control_c, 0, 67, 86
1, 642625, Control_c, 0, 67, 89
1, 642639, Control_c, 0, 67, 91
1, 642654, Control_c, 0, 67, 92
1, 642669, Control_c, 0, 67, 94
1, 642684, Control_c, 0, 67, 96
1, 642699, Control_c, 0, 67, 98
1, 642728, Control_c, 0, 67, 100
1, 642757, Control_c, 0, 67, 102
1, 642772, Control_c, 0, 64, 120
1, 642787, Control_c, 0, 64, 111
1, 642787, Control_c, 0, 67, 104
1, 642802, Control_c, 0, 64, 106
1, 642817, Control_c, 0, 64, 101
1, 642832, Control_c, 0, 64, 97
1, 642832, Control_c, 0, 67, 106
1, 642846, Control_c, 0, 64, 93
1, 642861, Control_c, 0, 64, 89
1, 642876, Control_c, 0, 64, 85
1, 642886, Note_on_c, 0, 63, 32
1, 642891, Control_c, 0, 64, 80
1, 642891, Control_c, 0, 67, 108
1, 642894, Note_on_c, 0, 70, 39
1, 642906, Control_c, 0, 64, 76
1, 642921, Control_c, 0, 64, 70
1, 642936, Control_c, 0, 64, 65
1, 642951, Control_c, 0, 64, 61
1, 642965, Control_c, 0, 64, 59
1, 642980, Control_c, 0, 64, 58
1, 642995, Control_c, 0, 67, 110
1, 643024, Control_c, 0, 64, 58
1, 643039, Control_c, 0, 64, 59
1, 643054, Control_c, 0, 64, 61
1, 643069, Control_c, 0, 64, 64
1, 643074, Note_off_c, 0, 62, 39
1, 643084, Control_c, 0, 64, 67
1, 643106, Control_c, 0, 64, 70
1, 643121, Control_c, 0, 64, 74
1, 643121, Control_c, 0, 67, 113
1, 643136, Control_c, 0, 64, 77
1, 643151, Control_c, 0, 64, 79
1, 643165, Control_c, 0, 64, 81
1, 643165, Control_c, 0, 67, 115
1, 643180, Control_c, 0, 64, 84
1, 643195, Control_c, 0, 64, 87
1, 643195, Control_c, 0, 67, 117
1, 643210, Control_c, 0, 64, 90
1, 643210, Control_c, 0, 67, 119
1, 643225, Control_c, 0, 64, 93
1, 643225, Control_c, 0, 67, 124
1, 643239, Control_c, 0, 64, 96
1, 643239, Control_c, 0, 67, 127
1, 643254, Control_c, 0, 64, 99
1, 643269, Control_c, 0, 64, 101
1, 643285, Control_c, 0, 64, 104
1, 643300, Control_c, 0, 64, 106
1, 643329, Control_c, 0, 64, 110
1, 643331, Note_off_c, 0, 32, 40
1, 643344, Control_c, 0, 64, 112
1, 643366, Note_off_c, 0, 44, 35
1, 643374, Control_c, 0, 64, 114
1, 644345, Control_c, 0, 64, 112
1, 644359, Control_c, 0, 64, 110
1, 644374, Control_c, 0, 64, 108
1, 644389, Control_c, 0, 64, 104
1, 644403, Control_c, 0, 64, 100
1, 644418, Control_c, 0, 64, 94
1, 644433, Control_c, 0, 64, 89
1, 644435, Note_on_c, 0, 35, 38
1, 644448, Control_c, 0, 64, 83
1, 644451, Note_on_c, 0, 47, 31
1, 644463, Control_c, 0, 64, 78
1, 644477, Control_c, 0, 64, 72
1, 644492, Control_c, 0, 64, 66
1, 644507, Control_c, 0, 64, 62
1, 644522, Control_c, 0, 64, 58
1, 644537, Control_c, 0, 64, 57
1, 644552, Control_c, 0, 64, 56
1, 644581, Control_c, 0, 64, 56
1, 644596, Control_c, 0, 64, 55
1, 644618, Control_c, 0, 64, 54
1, 644633, Control_c, 0, 64, 54
1, 644648, Control_c, 0, 64, 53
1, 644663, Control_c, 0, 64, 52
1, 644678, Control_c, 0, 64, 51
1, 644692, Control_c, 0, 64, 50
1, 644707, Control_c, 0, 64, 50
1, 644722, Control_c, 0, 64, 49
1, 644781, Control_c, 0, 64, 50
1, 644797, Control_c, 0, 64, 53
1, 644811, Control_c, 0, 64, 57
1, 644826, Control_c, 0, 64, 62
1, 644841, Control_c, 0, 64, 64
1, 644856, Control_c, 0, 64, 67
1, 644871, Control_c, 0, 64, 70
1, 644887, Control_c, 0, 64, 72
1, 644901, Control_c, 0, 64, 74
1, 644916, Control_c, 0, 64, 75
1, 644931, Control_c, 0, 64, 77
1, 644946, Control_c, 0, 64, 79
1, 644960, Control_c, 0, 64, 80
1, 644975, Control_c, 0, 64, 82
1, 644989, Note_off_c, 0, 70, 37
1, 644990, Control_c, 0, 64, 83
1, 645005, Control_c, 0, 64, 84
1, 645020, Control_c, 0, 64, 85
1, 645034, Control_c, 0, 64, 86
1, 645049, Control_c, 0, 64, 86
1, 645062, Note_off_c, 0, 63, 36
1, 645064, Control_c, 0, 64, 87
1, 645079, Control_c, 0, 64, 87
1, 645109, Control_c, 0, 64, 88
1, 645647, Note_on_c, 0, 62, 32
1, 645649, Control_c, 0, 64, 87
1, 645651, Note_on_c, 0, 54, 29
1, 645664, Control_c, 0, 64, 86
1, 645680, Control_c, 0, 64, 84
1, 645695, Control_c, 0, 64, 82
1, 645710, Control_c, 0, 64, 79
1, 645724, Control_c, 0, 64, 77
1, 645739, Control_c, 0, 64, 75
1, 645754, Control_c, 0, 64, 74
1, 645769, Control_c, 0, 64, 73
1, 645828, Control_c, 0, 64, 74
1, 645843, Control_c, 0, 64, 74
1, 645857, Control_c, 0, 64, 76
1, 645872, Control_c, 0, 64, 78
1, 645887, Control_c, 0, 64, 80
1, 645902, Control_c, 0, 64, 82
1, 645907, Note_off_c, 0, 54, 42
1, 645917, Control_c, 0, 64, 85
1, 645932, Control_c, 0, 64, 87
1, 645947, Control_c, 0, 64, 90
1, 645962, Control_c, 0, 64, 92
1, 645976, Control_c, 0, 64, 94
1, 645991, Control_c, 0, 64, 95
1, 646006, Control_c, 0, 64, 98
1, 646021, Control_c, 0, 64, 100
1, 646036, Control_c, 0, 64, 102
1, 646050, Control_c, 0, 64, 105
1, 646065, Control_c, 0, 64, 107
1, 646102, Control_c, 0, 64, 110
1, 646724, Control_c, 0, 64, 108
1, 646739, Control_c, 0, 64, 105
1, 646754, Control_c, 0, 64, 100
1, 646765, Note_on_c, 0, 70, 32
1, 646767, Note_on_c, 0, 63, 23
1, 646769, Control_c, 0, 64, 95
1, 646784, Control_c, 0, 64, 88
1, 646798, Control_c, 0, 64, 82
1, 646813, Control_c, 0, 64, 77
1, 646828, Control_c, 0, 64, 72
1, 646850, Control_c, 0, 64, 66
1, 646865, Control_c, 0, 64, 61
1, 646880, Control_c, 0, 64, 58
1, 646885, Note_off_c, 0, 62, 37
1, 646895, Control_c, 0, 64, 58
1, 646924, Control_c, 0, 64, 58
1, 646939, Control_c, 0, 64, 59
1, 646954, Control_c, 0, 64, 61
1, 646969, Control_c, 0, 64, 63
1, 646984, Control_c, 0, 64, 66
1, 646998, Control_c, 0, 64, 69
1, 647013, Control_c, 0, 64, 73
1, 647028, Control_c, 0, 64, 75
1, 647043, Control_c, 0, 64, 77
1, 647058, Control_c, 0, 64, 78
1, 647072, Control_c, 0, 64, 81
1, 647087, Control_c, 0, 64, 83
1, 647102, Control_c, 0, 64, 86
1, 647117, Control_c, 0, 64, 88
1, 647131, Control_c, 0, 64, 91
1, 647146, Control_c, 0, 64, 94
1, 647161, Control_c, 0, 64, 96
1, 647176, Control_c, 0, 64, 98
1, 647205, Control_c, 0, 64, 101
1, 647218, Note_off_c, 0, 47, 32
1, 647220, Control_c, 0, 64, 103
1, 647250, Control_c, 0, 64, 105
1, 647296, Control_c, 0, 64, 107
1, 647326, Note_off_c, 0, 35, 38
1, 648148, Control_c, 0, 64, 105
1, 648163, Control_c, 0, 64, 103
1, 648177, Control_c, 0, 64, 100
1, 648190, Note_on_c, 0, 31, 27
1, 648192, Control_c, 0, 64, 97
1, 648197, Note_on_c, 0, 43, 27
1, 648207, Control_c, 0, 64, 93
1, 648222, Control_c, 0, 64, 88
1, 648237, Control_c, 0, 64, 83
1, 648251, Control_c, 0, 64, 78
1, 648266, Control_c, 0, 64, 73
1, 648281, Control_c, 0, 64, 67
1, 648296, Control_c, 0, 64, 62
1, 648311, Control_c, 0, 64, 59
1, 648325, Control_c, 0, 64, 57
1, 648340, Control_c, 0, 64, 56
1, 648363, Control_c, 0, 64, 55
1, 648377, Control_c, 0, 64, 55
1, 648392, Control_c, 0, 64, 53
1, 648407, Control_c, 0, 64, 52
1, 648422, Control_c, 0, 64, 51
1, 648437, Control_c, 0, 64, 50
1, 648451, Control_c, 0, 64, 49
1, 648466, Control_c, 0, 64, 49
1, 648481, Control_c, 0, 64, 48
1, 648525, Control_c, 0, 64, 49
1, 648541, Control_c, 0, 64, 51
1, 648556, Control_c, 0, 64, 55
1, 648571, Control_c, 0, 64, 59
1, 648585, Control_c, 0, 64, 62
1, 648600, Control_c, 0, 64, 65
1, 648615, Control_c, 0, 64, 68
1, 648630, Control_c, 0, 64, 70
1, 648644, Control_c, 0, 64, 73
1, 648659, Control_c, 0, 64, 74
1, 648674, Control_c, 0, 64, 76
1, 648689, Control_c, 0, 64, 77
1, 648704, Control_c, 0, 64, 80
1, 648719, Control_c, 0, 64, 82
1, 648734, Control_c, 0, 64, 84
1, 648747, Note_off_c, 0, 70, 45
1, 648749, Control_c, 0, 64, 85
1, 648764, Control_c, 0, 64, 87
1, 648778, Control_c, 0, 64, 89
1, 648793, Control_c, 0, 64, 91
1, 648808, Control_c, 0, 64, 93
1, 648823, Control_c, 0, 64, 94
1, 648838, Control_c, 0, 64, 96
1, 648868, Control_c, 0, 64, 98
1, 648887, Note_off_c, 0, 63, 39
1, 648942, Control_c, 0, 64, 100
1, 649491, Note_on_c, 0, 62, 25
1, 649505, Note_on_c, 0, 54, 14
1, 649512, Control_c, 0, 64, 96
1, 649527, Control_c, 0, 64, 93
1, 649542, Control_c, 0, 64, 89
1, 649556, Control_c, 0, 64, 85
1, 649571, Control_c, 0, 64, 80
1, 649586, Control_c, 0, 64, 76
1, 649601, Control_c, 0, 64, 71
1, 649616, Control_c, 0, 64, 65
1, 649631, Control_c, 0, 64, 62
1, 649646, Control_c, 0, 64, 61
1, 649691, Control_c, 0, 64, 62
1, 649706, Control_c, 0, 64, 63
1, 649720, Control_c, 0, 64, 66
1, 649735, Control_c, 0, 64, 68
1, 649750, Control_c, 0, 64, 71
1, 649765, Control_c, 0, 64, 73
1, 649780, Control_c, 0, 64, 75
1, 649795, Control_c, 0, 64, 76
1, 649810, Control_c, 0, 64, 78
1, 649824, Control_c, 0, 64, 80
1, 649846, Control_c, 0, 64, 82
1, 649861, Control_c, 0, 64, 84
1, 649876, Control_c, 0, 64, 86
1, 649891, Control_c, 0, 64, 87
1, 649905, Control_c, 0, 64, 89
1, 649920, Control_c, 0, 64, 91
1, 649928, Note_off_c, 0, 54, 42
1, 649935, Control_c, 0, 64, 92
1, 649950, Control_c, 0, 64, 93
1, 649965, Control_c, 0, 64, 94
1, 649980, Control_c, 0, 64, 95
1, 649995, Control_c, 0, 64, 96
1, 650039, Control_c, 0, 64, 98
1, 650084, Control_c, 0, 64, 100
1, 650951, Note_on_c, 0, 63, 24
1, 650972, Note_on_c, 0, 70, 36
1, 650979, Control_c, 0, 64, 97
1, 650994, Control_c, 0, 64, 94
1, 651009, Control_c, 0, 64, 89
1, 651024, Control_c, 0, 64, 85
1, 651039, Control_c, 0, 64, 80
1, 651053, Control_c, 0, 64, 75
1, 651068, Control_c, 0, 64, 71
1, 651083, Control_c, 0, 64, 67
1, 651098, Control_c, 0, 64, 64
1, 651113, Control_c, 0, 64, 62
1, 651151, Note_off_c, 0, 62, 28
1, 651187, Control_c, 0, 64, 63
1, 651202, Control_c, 0, 64, 63
1, 651217, Control_c, 0, 64, 64
1, 651232, Control_c, 0, 64, 66
1, 651246, Control_c, 0, 64, 68
1, 651261, Control_c, 0, 64, 70
1, 651276, Control_c, 0, 64, 72
1, 651291, Control_c, 0, 64, 74
1, 651306, Control_c, 0, 64, 75
1, 651321, Control_c, 0, 64, 77
1, 651343, Control_c, 0, 64, 78
1, 651358, Control_c, 0, 64, 81
1, 651373, Control_c, 0, 64, 83
1, 651388, Control_c, 0, 64, 85
1, 651402, Control_c, 0, 64, 87
1, 651417, Control_c, 0, 64, 89
1, 651432, Control_c, 0, 64, 91
1, 651447, Control_c, 0, 64, 93
1, 651462, Control_c, 0, 64, 95
1, 651476, Control_c, 0, 64, 97
1, 651491, Control_c, 0, 64, 99
1, 651521, Control_c, 0, 64, 103
1, 651536, Control_c, 0, 64, 105
1, 651551, Control_c, 0, 64, 108
1, 651566, Control_c, 0, 64, 110
1, 651581, Control_c, 0, 64, 112
1, 651595, Control_c, 0, 64, 114
1, 651612, Note_off_c, 0, 43, 33
1, 651625, Control_c, 0, 64, 118
1, 651640, Control_c, 0, 64, 120
1, 651655, Control_c, 0, 64, 124
1, 651670, Control_c, 0, 64, 127
1, 651801, Note_off_c, 0, 31, 28
1, 653079, Control_c, 0, 64, 124
1, 653123, Control_c, 0, 64, 122
1, 653197, Control_c, 0, 64, 119
1, 653227, Control_c, 0, 64, 117
1, 653241, Control_c, 0, 64, 114
1, 653256, Control_c, 0, 64, 112
1, 653271, Control_c, 0, 64, 108
1, 653286, Control_c, 0, 64, 103
1, 653301, Control_c, 0, 64, 98
1, 653315, Control_c, 0, 64, 93
1, 653327, Note_on_c, 0, 23, 34
1, 653330, Note_on_c, 0, 35, 33
1, 653330, Control_c, 0, 64, 88
1, 653345, Control_c, 0, 64, 84
1, 653360, Control_c, 0, 64, 80
1, 653375, Control_c, 0, 64, 76
1, 653390, Control_c, 0, 64, 72
1, 653405, Control_c, 0, 64, 65
1, 653420, Control_c, 0, 64, 61
1, 653434, Control_c, 0, 64, 59
1, 653449, Control_c, 0, 64, 57
1, 653464, Control_c, 0, 64, 57
1, 653493, Control_c, 0, 64, 56
1, 653508, Control_c, 0, 64, 55
1, 653523, Control_c, 0, 64, 55
1, 653538, Control_c, 0, 64, 54
1, 653553, Control_c, 0, 64, 54
1, 653567, Control_c, 0, 64, 53
1, 653605, Control_c, 0, 64, 53
1, 653634, Control_c, 0, 64, 52
1, 653664, Control_c, 0, 64, 52
1, 653694, Control_c, 0, 64, 51
1, 654049, Control_c, 0, 64, 51
1, 654635, Control_c, 0, 64, 51
1, 654724, Control_c, 0, 64, 52
1, 654738, Control_c, 0, 64, 52
1, 654753, Control_c, 0, 64, 53
1, 654768, Control_c, 0, 64, 53
1, 654783, Control_c, 0, 64, 54
1, 654798, Control_c, 0, 64, 54
1, 654812, Control_c, 0, 64, 55
1, 654827, Control_c, 0, 64, 56
1, 654842, Control_c, 0, 64, 56
1, 654857, Control_c, 0, 64, 57
1, 654886, Control_c, 0, 64, 57
1, 654901, Control_c, 0, 64, 58
1, 654931, Control_c, 0, 64, 58
1, 654961, Control_c, 0, 64, 59
1, 655020, Control_c, 0, 64, 59
1, 655116, Control_c, 0, 64, 60
1, 655621, Control_c, 0, 64, 60
1, 655850, Control_c, 0, 64, 61
1, 655894, Control_c, 0, 64, 61
1, 655909, Control_c, 0, 64, 62
1, 655939, Control_c, 0, 64, 62
1, 655954, Control_c, 0, 64, 63
1, 655968, Control_c, 0, 64, 64
1, 655983, Control_c, 0, 64, 65
1, 655998, Control_c, 0, 64, 66
1, 656013, Control_c, 0, 64, 67
1, 656028, Control_c, 0, 64, 69
1, 656043, Control_c, 0, 64, 70
1, 656058, Control_c, 0, 64, 72
1, 656073, Control_c, 0, 64, 73
1, 656088, Control_c, 0, 64, 74
1, 656103, Control_c, 0, 64, 75
1, 656117, Control_c, 0, 64, 76
1, 656132, Control_c, 0, 64, 77
1, 656147, Control_c, 0, 64, 79
1, 656162, Control_c, 0, 64, 80
1, 656177, Control_c, 0, 64, 82
1, 656192, Control_c, 0, 64, 84
1, 656207, Control_c, 0, 64, 85
1, 656222, Control_c, 0, 64, 87
1, 656237, Control_c, 0, 64, 89
1, 656252, Control_c, 0, 64, 91
1, 656266, Control_c, 0, 64, 93
1, 656281, Control_c, 0, 64, 95
1, 656296, Control_c, 0, 64, 97
1, 656325, Control_c, 0, 64, 100
1, 656340, Control_c, 0, 64, 102
1, 656355, Control_c, 0, 64, 105
1, 656370, Control_c, 0, 64, 108
1, 656384, Control_c, 0, 64, 111
1, 656399, Control_c, 0, 64, 116
1, 656414, Control_c, 0, 64, 127
1, 656721, Note_off_c, 0, 70, 39
1, 656890, Note_off_c, 0, 63, 32
1, 658979, Note_on_c, 0, 54, 23
1, 658981, Note_on_c, 0, 62, 33
1, 659083, Control_c, 0, 64, 106
1, 659098, Control_c, 0, 64, 95
1, 659112, Control_c, 0, 64, 86
1, 659127, Control_c, 0, 64, 79
1, 659142, Control_c, 0, 64, 74
1, 659157, Control_c, 0, 64, 69
1, 659172, Control_c, 0, 64, 64
1, 659186, Control_c, 0, 64, 61
1, 659201, Control_c, 0, 64, 59
1, 659216, Control_c, 0, 64, 59
1, 659230, Control_c, 0, 64, 58
1, 659306, Control_c, 0, 64, 58
1, 659424, Control_c, 0, 64, 58
1, 659483, Control_c, 0, 64, 59
1, 659557, Control_c, 0, 64, 59
1, 659572, Control_c, 0, 64, 60
1, 659609, Control_c, 0, 64, 60
1, 659639, Control_c, 0, 64, 61
1, 659668, Control_c, 0, 64, 61
1, 659683, Control_c, 0, 64, 62
1, 659698, Control_c, 0, 64, 62
1, 659713, Control_c, 0, 64, 63
1, 659728, Control_c, 0, 64, 64
1, 659742, Control_c, 0, 64, 64
1, 659757, Control_c, 0, 64, 65
1, 659772, Control_c, 0, 64, 66
1, 659787, Control_c, 0, 64, 67
1, 659802, Control_c, 0, 64, 68
1, 659817, Control_c, 0, 64, 70
1, 659832, Control_c, 0, 64, 72
1, 659847, Control_c, 0, 64, 73
1, 659861, Control_c, 0, 64, 74
1, 659876, Control_c, 0, 64, 75
1, 659891, Control_c, 0, 64, 76
1, 659906, Control_c, 0, 64, 78
1, 659921, Control_c, 0, 64, 79
1, 659935, Control_c, 0, 64, 80
1, 659950, Control_c, 0, 64, 82
1, 659965, Control_c, 0, 64, 83
1, 659979, Control_c, 0, 64, 84
1, 659994, Control_c, 0, 64, 86
1, 660009, Control_c, 0, 64, 88
1, 660024, Control_c, 0, 64, 90
1, 660039, Control_c, 0, 64, 92
1, 660055, Control_c, 0, 64, 94
1, 660070, Control_c, 0, 64, 96
1, 660084, Control_c, 0, 64, 98
1, 660114, Control_c, 0, 64, 101
1, 660129, Control_c, 0, 64, 103
1, 660158, Control_c, 0, 64, 107
1, 660188, Control_c, 0, 64, 110
1, 660203, Control_c, 0, 64, 113
1, 660218, Control_c, 0, 64, 115
1, 660232, Control_c, 0, 64, 119
1, 660247, Control_c, 0, 64, 127
1, 663783, Control_c, 0, 64, 124
1, 663798, Control_c, 0, 64, 116
1, 663813, Control_c, 0, 64, 111
1, 663827, Control_c, 0, 64, 108
1, 663842, Control_c, 0, 64, 105
1, 663857, Control_c, 0, 64, 102
1, 663872, Control_c, 0, 64, 99
1, 663887, Control_c, 0, 64, 97
1, 663901, Control_c, 0, 64, 94
1, 663916, Control_c, 0, 64, 92
1, 663931, Control_c, 0, 64, 91
1, 663946, Control_c, 0, 64, 89
1, 663961, Control_c, 0, 64, 88
1, 663975, Control_c, 0, 64, 86
1, 663990, Control_c, 0, 64, 85
1, 664005, Control_c, 0, 64, 84
1, 664020, Control_c, 0, 64, 83
1, 664035, Control_c, 0, 64, 82
1, 664050, Control_c, 0, 64, 81
1, 664065, Control_c, 0, 64, 80
1, 664088, Control_c, 0, 64, 79
1, 664103, Control_c, 0, 64, 78
1, 664118, Control_c, 0, 64, 76
1, 664132, Control_c, 0, 64, 75
1, 664147, Control_c, 0, 64, 74
1, 664162, Control_c, 0, 64, 73
1, 664177, Control_c, 0, 64, 72
1, 664192, Control_c, 0, 64, 71
1, 664206, Control_c, 0, 64, 69
1, 664221, Control_c, 0, 64, 68
1, 664236, Control_c, 0, 64, 68
1, 664241, Note_off_c, 0, 62, 24
1, 664250, Control_c, 0, 64, 67
1, 664266, Control_c, 0, 64, 67
1, 664296, Control_c, 0, 64, 66
1, 664303, Note_off_c, 0, 35, 17
1, 664325, Control_c, 0, 64, 66
1, 664385, Control_c, 0, 64, 65
1, 664429, Control_c, 0, 64, 65
1, 664430, Note_off_c, 0, 54, 12
1, 664473, Control_c, 0, 64, 64
1, 664518, Control_c, 0, 64, 64
1, 664547, Control_c, 0, 64, 63
1, 664577, Control_c, 0, 64, 63
1, 664580, Note_off_c, 0, 23, 34
1, 664592, Control_c, 0, 64, 62
1, 664622, Control_c, 0, 64, 62
1, 664637, Control_c, 0, 64, 61
1, 664666, Control_c, 0, 64, 61
1, 664681, Control_c, 0, 64, 60
1, 664711, Control_c, 0, 64, 60
1, 664755, Control_c, 0, 64, 59
1, 664799, Control_c, 0, 64, 59
1, 664852, Control_c, 0, 64, 58
1, 664896, Control_c, 0, 64, 58
1, 664941, Control_c, 0, 64, 57
1, 664971, Control_c, 0, 64, 57
1, 665001, Control_c, 0, 64, 56
1, 665029, Control_c, 0, 64, 56
1, 665059, Control_c, 0, 64, 55
1, 665088, Control_c, 0, 64, 55
1, 665118, Control_c, 0, 64, 54
1, 665147, Control_c, 0, 64, 54
1, 665177, Control_c, 0, 64, 53
1, 665207, Control_c, 0, 64, 53
1, 665236, Control_c, 0, 64, 52
1, 665266, Control_c, 0, 64, 52
1, 665296, Control_c, 0, 64, 51
1, 665325, Control_c, 0, 64, 51
1, 665340, Control_c, 0, 64, 50
1, 665355, Control_c, 0, 64, 50
1, 665370, Control_c, 0, 64, 49
1, 665385, Control_c, 0, 64, 49
1, 665399, Control_c, 0, 64, 48
1, 665414, Control_c, 0, 64, 47
1, 665429, Control_c, 0, 64, 47
1, 665444, Control_c, 0, 64, 46
1, 665444, Control_c, 0, 67, 102
1, 665459, Control_c, 0, 64, 45
1, 665459, Control_c, 0, 67, 83
1, 665473, Control_c, 0, 64, 44
1, 665473, Control_c, 0, 67, 71
1, 665488, Control_c, 0, 64, 43
1, 665488, Control_c, 0, 67, 64
1, 665503, Control_c, 0, 64, 42
1, 665503, Control_c, 0, 67, 56
1, 665518, Control_c, 0, 64, 41
1, 665518, Control_c, 0, 67, 51
1, 665533, Control_c, 0, 64, 39
1, 665533, Control_c, 0, 67, 47
1, 665547, Control_c, 0, 64, 37
1, 665547, Control_c, 0, 67, 44
1, 665570, Control_c, 0, 64, 35
1, 665570, Control_c, 0, 67, 41
1, 665585, Control_c, 0, 64, 34
1, 665585, Control_c, 0, 67, 0
1, 665599, Control_c, 0, 64, 32
1, 665629, Control_c, 0, 64, 29
1, 665644, Control_c, 0, 64, 0
1, 669115, Note_on_c, 0, 63, 45
1, 669141, Note_off_c, 0, 63, 55
1, 669214, Note_on_c, 0, 66, 48
1, 669238, Note_off_c, 0, 66, 57
1, 669304, Note_on_c, 0, 70, 68
1, 669337, Note_off_c, 0, 70, 69
1, 669426, Note_on_c, 0, 74, 73
1, 669491, Control_c, 0, 64, 42
1, 669506, Control_c, 0, 64, 47
1, 669520, Control_c, 0, 64, 49
1, 669535, Control_c, 0, 64, 52
1, 669550, Control_c, 0, 64, 55
1, 669564, Control_c, 0, 64, 57
1, 669579, Control_c, 0, 64, 58
1, 669594, Control_c, 0, 64, 59
1, 669609, Control_c, 0, 64, 59
1, 669621, Note_off_c, 0, 74, 63
1, 669655, Control_c, 0, 64, 59
1, 669669, Control_c, 0, 64, 54
1, 669684, Control_c, 0, 64, 36
1, 669699, Control_c, 0, 64, 0
1, 669749, Note_on_c, 0, 77, 91
1, 669788, Control_c, 0, 64, 42
1, 669803, Control_c, 0, 64, 53
1, 669818, Control_c, 0, 64, 60
1, 669833, Control_c, 0, 64, 62
1, 669848, Control_c, 0, 64, 63
1, 669862, Control_c, 0, 64, 63
1, 669877, Control_c, 0, 64, 64
1, 669892, Control_c, 0, 64, 64
1, 669902, Note_off_c, 0, 77, 62
1, 669907, Control_c, 0, 64, 65
1, 669922, Control_c, 0, 64, 64
1, 669936, Control_c, 0, 64, 59
1, 669951, Control_c, 0, 64, 45
1, 669966, Control_c, 0, 64, 0
1, 669968, Note_on_c, 0, 78, 82
1, 670037, Note_off_c, 0, 78, 53
1, 670088, Note_on_c, 0, 75, 67
1, 670124, Note_off_c, 0, 75, 63
1, 670151, Control_c, 0, 67, 37
1, 670166, Control_c, 0, 64, 30
1, 670178, Note_on_c, 0, 70, 64
1, 670181, Control_c, 0, 64, 33
1, 670181, Control_c, 0, 67, 38
1, 670195, Control_c, 0, 64, 36
1, 670205, Note_off_c, 0, 70, 69
1, 670210, Control_c, 0, 64, 38
1, 670210, Control_c, 0, 67, 39
1, 670225, Control_c, 0, 64, 39
1, 670225, Control_c, 0, 67, 42
1, 670240, Control_c, 0, 64, 37
1, 670240, Control_c, 0, 67, 49
1, 670255, Control_c, 0, 64, 0
1, 670255, Control_c, 0, 67, 74
1, 670269, Control_c, 0, 67, 94
1, 670284, Control_c, 0, 67, 107
1, 670286, Note_on_c, 0, 74, 69
1, 670299, Control_c, 0, 67, 109
1, 670301, Note_on_c, 0, 76, 44
1, 670325, Note_off_c, 0, 76, 57
1, 670332, Note_off_c, 0, 74, 59
1, 670358, Control_c, 0, 67, 107
1, 670373, Control_c, 0, 67, 105
1, 670383, Note_on_c, 0, 69, 72
1, 670387, Control_c, 0, 67, 102
1, 670413, Note_off_c, 0, 69, 62
1, 670417, Control_c, 0, 67, 99
1, 670463, Control_c, 0, 67, 97
1, 670485, Note_on_c, 0, 66, 66
1, 670492, Control_c, 0, 67, 96
1, 670507, Control_c, 0, 67, 95
1, 670518, Note_off_c, 0, 66, 64
1, 670522, Control_c, 0, 67, 94
1, 670537, Control_c, 0, 67, 92
1, 670552, Control_c, 0, 67, 90
1, 670566, Control_c, 0, 67, 87
1, 670581, Control_c, 0, 67, 85
1, 670596, Control_c, 0, 67, 83
1, 670602, Note_on_c, 0, 63, 71
1, 670611, Control_c, 0, 67, 81
1, 670626, Control_c, 0, 64, 48
1, 670626, Control_c, 0, 67, 80
1, 670640, Control_c, 0, 64, 57
1, 670640, Control_c, 0, 67, 79
1, 670655, Control_c, 0, 64, 59
1, 670655, Control_c, 0, 67, 78
1, 670670, Control_c, 0, 64, 60
1, 670685, Control_c, 0, 64, 61
1, 670700, Control_c, 0, 64, 61
1, 670700, Control_c, 0, 67, 77
1, 670708, Note_off_c, 0, 63, 62
1, 670715, Control_c, 0, 64, 62
1, 670730, Control_c, 0, 64, 62
1, 670745, Control_c, 0, 64, 63
1, 670805, Note_on_c, 0, 70, 68
1, 670825, Control_c, 0, 64, 62
1, 670840, Control_c, 0, 64, 60
1, 670840, Control_c, 0, 67, 77
1, 670847, Note_off_c, 0, 70, 66
1, 670855, Control_c, 0, 64, 53
1, 670870, Control_c, 0, 64, 39
1, 670885, Control_c, 0, 64, 0
1, 670900, Control_c, 0, 67, 76
1, 670915, Control_c, 0, 67, 75
1, 670921, Note_on_c, 0, 71, 66
1, 670944, Control_c, 0, 67, 75
1, 670950, Note_off_c, 0, 71, 65
1, 670959, Control_c, 0, 67, 74
1, 670974, Control_c, 0, 67, 73
1, 670989, Control_c, 0, 67, 71
1, 671004, Control_c, 0, 67, 70
1, 671009, Note_on_c, 0, 73, 70
1, 671019, Control_c, 0, 67, 65
1, 671034, Control_c, 0, 67, 38
1, 671040, Note_off_c, 0, 73, 60
1, 671049, Control_c, 0, 67, 0
1, 671122, Note_on_c, 0, 75, 83
1, 671170, Note_off_c, 0, 75, 62
1, 671239, Note_on_c, 0, 65, 55
1, 671272, Note_off_c, 0, 65, 59
1, 671355, Note_on_c, 0, 70, 37
1, 671384, Note_off_c, 0, 70, 49
1, 671449, Control_c, 0, 64, 47
1, 671454, Note_on_c, 0, 78, 86
1, 671464, Control_c, 0, 64, 58
1, 671479, Control_c, 0, 64, 60
1, 671494, Control_c, 0, 64, 62
1, 671508, Control_c, 0, 64, 62
1, 671523, Control_c, 0, 64, 63
1, 671553, Control_c, 0, 64, 63
1, 671605, Control_c, 0, 64, 64
1, 671620, Control_c, 0, 64, 64
1, 671635, Control_c, 0, 64, 65
1, 671648, Note_off_c, 0, 78, 58
1, 671649, Control_c, 0, 64, 65
1, 671664, Control_c, 0, 64, 66
1, 671684, Note_on_c, 0, 68, 59
1, 671717, Note_off_c, 0, 68, 63
1, 671791, Note_on_c, 0, 77, 72
1, 671812, Control_c, 0, 64, 65
1, 671815, Note_off_c, 0, 77, 67
1, 671827, Control_c, 0, 64, 64
1, 671841, Control_c, 0, 64, 58
1, 671856, Control_c, 0, 64, 47
1, 671871, Control_c, 0, 64, 0
1, 671893, Note_on_c, 0, 71, 64
1, 671921, Note_off_c, 0, 71, 66
1, 671986, Note_on_c, 0, 73, 77
1, 672013, Note_off_c, 0, 73, 60
1, 672089, Note_on_c, 0, 63, 64
1, 672128, Note_off_c, 0, 63, 59
1, 672211, Note_on_c, 0, 68, 45
1, 672235, Note_off_c, 0, 68, 58
1, 672286, Control_c, 0, 64, 48
1, 672301, Control_c, 0, 64, 58
1, 672311, Note_on_c, 0, 77, 81
1, 672324, Control_c, 0, 64, 59
1, 672338, Control_c, 0, 64, 60
1, 672353, Control_c, 0, 64, 61
1, 672368, Control_c, 0, 64, 62
1, 672383, Control_c, 0, 64, 62
1, 672412, Control_c, 0, 64, 63
1, 672427, Control_c, 0, 64, 63
1, 672442, Control_c, 0, 64, 64
1, 672456, Note_off_c, 0, 77, 63
1, 672457, Control_c, 0, 64, 64
1, 672528, Note_on_c, 0, 66, 66
1, 672560, Control_c, 0, 64, 63
1, 672564, Note_off_c, 0, 66, 61
1, 672575, Control_c, 0, 64, 59
1, 672590, Control_c, 0, 64, 54
1, 672605, Control_c, 0, 64, 51
1, 672620, Control_c, 0, 64, 51
1, 672635, Note_on_c, 0, 75, 66
1, 672635, Control_c, 0, 64, 52
1, 672650, Control_c, 0, 64, 54
1, 672664, Control_c, 0, 64, 57
1, 672676, Note_off_c, 0, 75, 55
1, 672679, Control_c, 0, 64, 59
1, 672694, Control_c, 0, 64, 59
1, 672724, Control_c, 0, 64, 58
1, 672737, Note_on_c, 0, 70, 61
1, 672738, Control_c, 0, 64, 53
1, 672753, Control_c, 0, 64, 44
1, 672766, Note_off_c, 0, 70, 67
1, 672768, Control_c, 0, 64, 0
1, 672829, Note_on_c, 0, 71, 85
1, 672870, Note_off_c, 0, 71, 61
1, 672945, Note_on_c, 0, 61, 60
1, 672983, Note_off_c, 0, 61, 62
1, 673043, Note_on_c, 0, 66, 68
1, 673081, Note_off_c, 0, 66, 66
1, 673132, Control_c, 0, 64, 29
1, 673147, Control_c, 0, 64, 45
1, 673155, Note_on_c, 0, 75, 82
1, 673161, Control_c, 0, 64, 52
1, 673176, Control_c, 0, 64, 56
1, 673191, Control_c, 0, 64, 58
1, 673204, Note_off_c, 0, 75, 62
1, 673206, Control_c, 0, 64, 59
1, 673220, Control_c, 0, 64, 60
1, 673235, Control_c, 0, 64, 61
1, 673250, Control_c, 0, 64, 62
1, 673265, Control_c, 0, 64, 63
1, 673266, Note_on_c, 0, 65, 59
1, 673280, Control_c, 0, 64, 63
1, 673294, Control_c, 0, 64, 64
1, 673297, Note_off_c, 0, 65, 64
1, 673338, Control_c, 0, 64, 63
1, 673353, Control_c, 0, 64, 62
1, 673359, Note_on_c, 0, 73, 74
1, 673368, Control_c, 0, 64, 55
1, 673383, Control_c, 0, 64, 39
1, 673395, Note_off_c, 0, 73, 58
1, 673398, Control_c, 0, 64, 0
1, 673460, Note_on_c, 0, 70, 81
1, 673498, Note_off_c, 0, 70, 63
1, 673502, Control_c, 0, 64, 46
1, 673517, Control_c, 0, 64, 55
1, 673531, Control_c, 0, 64, 58
1, 673546, Control_c, 0, 64, 58
1, 673561, Control_c, 0, 64, 59
1, 673564, Note_on_c, 0, 59, 75
1, 673576, Control_c, 0, 64, 60
1, 673591, Control_c, 0, 64, 61
1, 673592, Note_off_c, 0, 59, 67
1, 673605, Control_c, 0, 64, 62
1, 673620, Control_c, 0, 64, 63
1, 673688, Note_on_c, 0, 65, 64
1, 673696, Control_c, 0, 64, 61
1, 673710, Control_c, 0, 64, 53
1, 673715, Note_off_c, 0, 65, 67
1, 673725, Control_c, 0, 64, 34
1, 673740, Control_c, 0, 64, 0
1, 673782, Note_on_c, 0, 73, 74
1, 673840, Note_off_c, 0, 73, 62
1, 673866, Control_c, 0, 64, 46
1, 673881, Control_c, 0, 64, 52
1, 673896, Control_c, 0, 64, 54
1, 673902, Note_on_c, 0, 63, 78
1, 673910, Control_c, 0, 64, 56
1, 673925, Control_c, 0, 64, 57
1, 673925, Note_off_c, 0, 63, 68
1, 673940, Control_c, 0, 64, 58
1, 674006, Note_on_c, 0, 71, 77
1, 674042, Note_off_c, 0, 71, 62
1, 674104, Note_on_c, 0, 70, 84
1, 674104, Control_c, 0, 64, 58
1, 674118, Control_c, 0, 64, 53
1, 674133, Control_c, 0, 64, 39
1, 674144, Note_off_c, 0, 70, 63
1, 674148, Control_c, 0, 64, 0
1, 674194, Note_on_c, 0, 46, 72
1, 674203, Note_on_c, 0, 65, 72
1, 674237, Note_off_c, 0, 46, 58
1, 674241, Note_off_c, 0, 65, 59
1, 674305, Note_on_c, 0, 49, 65
1, 674305, Note_on_c, 0, 61, 75
1, 674337, Note_off_c, 0, 61, 62
1, 674343, Note_off_c, 0, 49, 62
1, 674399, Note_on_c, 0, 58, 67
1, 674405, Note_on_c, 0, 53, 75
1, 674424, Note_off_c, 0, 58, 63
1, 674432, Note_off_c, 0, 53, 67
1, 674511, Note_on_c, 0, 57, 89
1, 674626, Note_on_c, 0, 73, 66
1, 674700, Note_off_c, 0, 73, 61
1, 674728, Note_off_c, 0, 57, 64
1, 674732, Note_on_c, 0, 75, 67
1, 674779, Note_off_c, 0, 75, 57
1, 674829, Note_on_c, 0, 60, 98
1, 674837, Note_on_c, 0, 73, 68
1, 674882, Control_c, 0, 64, 50
1, 674897, Control_c, 0, 64, 60
1, 674897, Note_off_c, 0, 73, 59
1, 674912, Control_c, 0, 64, 61
1, 674926, Control_c, 0, 64, 62
1, 674937, Note_on_c, 0, 77, 68
1, 674941, Control_c, 0, 64, 63
1, 674951, Note_off_c, 0, 60, 62
1, 674956, Control_c, 0, 64, 64
1, 674971, Control_c, 0, 64, 65
1, 674985, Control_c, 0, 64, 65
1, 675015, Control_c, 0, 64, 66
1, 675016, Note_off_c, 0, 77, 58
1, 675030, Control_c, 0, 64, 65
1, 675044, Note_on_c, 0, 73, 64
1, 675045, Control_c, 0, 64, 64
1, 675048, Note_on_c, 0, 61, 84
1, 675059, Control_c, 0, 64, 56
1, 675073, Note_off_c, 0, 73, 65
1, 675074, Control_c, 0, 64, 30
1, 675089, Control_c, 0, 64, 0
1, 675094, Note_off_c, 0, 61, 62
1, 675159, Note_on_c, 0, 58, 73
1, 675202, Note_off_c, 0, 58, 63
1, 675262, Note_on_c, 0, 53, 68
1, 675291, Note_off_c, 0, 53, 66
1, 675371, Note_on_c, 0, 57, 82
1, 675419, Note_off_c, 0, 57, 63
1, 675454, Note_on_c, 0, 72, 64
1, 675478, Note_on_c, 0, 52, 75
1, 675505, Note_off_c, 0, 72, 55
1, 675517, Note_off_c, 0, 52, 61
1, 675574, Note_on_c, 0, 49, 76
1, 675574, Note_on_c, 0, 73, 55
1, 675604, Note_off_c, 0, 49, 66
1, 675661, Note_off_c, 0, 73, 43
1, 675668, Note_on_c, 0, 46, 83
1, 675684, Note_on_c, 0, 72, 63
1, 675719, Control_c, 0, 64, 47
1, 675733, Control_c, 0, 64, 58
1, 675744, Note_off_c, 0, 72, 55
1, 675748, Control_c, 0, 64, 61
1, 675763, Control_c, 0, 64, 62
1, 675778, Control_c, 0, 64, 63
1, 675780, Note_off_c, 0, 46, 61
1, 675785, Note_on_c, 0, 75, 65
1, 675793, Control_c, 0, 64, 63
1, 675807, Control_c, 0, 64, 64
1, 675851, Note_off_c, 0, 75, 53
1, 675852, Control_c, 0, 64, 62
1, 675867, Control_c, 0, 64, 52
1, 675879, Note_on_c, 0, 72, 54
1, 675881, Control_c, 0, 64, 0
1, 675883, Note_on_c, 0, 52, 75
1, 675901, Note_off_c, 0, 72, 62
1, 675924, Note_off_c, 0, 52, 59
1, 675996, Note_on_c, 0, 53, 64
1, 676000, Control_c, 0, 67, 54
1, 676015, Control_c, 0, 67, 69
1, 676030, Control_c, 0, 67, 76
1, 676042, Note_off_c, 0, 53, 63
1, 676045, Control_c, 0, 67, 77
1, 676098, Control_c, 0, 67, 77
1, 676098, Note_on_c, 0, 54, 63
1, 676127, Control_c, 0, 67, 78
1, 676128, Note_off_c, 0, 54, 64
1, 676142, Control_c, 0, 67, 79
1, 676171, Control_c, 0, 67, 79
1, 676186, Control_c, 0, 67, 80
1, 676200, Note_on_c, 0, 56, 72
1, 676216, Control_c, 0, 67, 81
1, 676232, Note_off_c, 0, 56, 64
1, 676260, Control_c, 0, 67, 80
1, 676275, Control_c, 0, 67, 79
1, 676290, Control_c, 0, 67, 77
1, 676304, Control_c, 0, 67, 76
1, 676318, Note_on_c, 0, 71, 43
1, 676319, Note_on_c, 0, 46, 41
1, 676319, Control_c, 0, 67, 75
1, 676334, Control_c, 0, 67, 75
1, 676360, Note_off_c, 0, 46, 55
1, 676364, Note_off_c, 0, 71, 61
1, 676394, Control_c, 0, 67, 74
1, 676408, Note_on_c, 0, 51, 58
1, 676412, Note_on_c, 0, 78, 55
1, 676423, Control_c, 0, 67, 73
1, 676438, Control_c, 0, 67, 72
1, 676441, Note_off_c, 0, 51, 63
1, 676453, Control_c, 0, 67, 71
1, 676468, Control_c, 0, 67, 70
1, 676483, Control_c, 0, 64, 46
1, 676483, Control_c, 0, 67, 69
1, 676484, Note_off_c, 0, 78, 53
1, 676498, Control_c, 0, 64, 56
1, 676498, Control_c, 0, 67, 68
1, 676508, Note_on_c, 0, 59, 78
1, 676512, Control_c, 0, 64, 58
1, 676512, Control_c, 0, 67, 66
1, 676523, Note_on_c, 0, 70, 60
1, 676527, Control_c, 0, 64, 59
1, 676527, Control_c, 0, 67, 65
1, 676542, Control_c, 0, 64, 60
1, 676542, Control_c, 0, 67, 63
1, 676556, Control_c, 0, 64, 60
1, 676556, Control_c, 0, 67, 61
1, 676571, Control_c, 0, 67, 60
1, 676586, Control_c, 0, 67, 59
1, 676599, Note_off_c, 0, 70, 55
1, 676601, Control_c, 0, 67, 58
1, 676630, Control_c, 0, 64, 61
1, 676630, Control_c, 0, 67, 58
1, 676635, Note_on_c, 0, 75, 60
1, 676669, Note_off_c, 0, 59, 61
1, 676707, Note_off_c, 0, 75, 59
1, 676732, Note_on_c, 0, 68, 58
1, 676734, Control_c, 0, 64, 58
1, 676742, Note_on_c, 0, 49, 58
1, 676748, Control_c, 0, 64, 48
1, 676763, Control_c, 0, 64, 0
1, 676763, Control_c, 0, 67, 57
1, 676781, Note_off_c, 0, 49, 61
1, 676816, Control_c, 0, 67, 56
1, 676832, Control_c, 0, 67, 56
1, 676847, Control_c, 0, 67, 54
1, 676848, Note_on_c, 0, 58, 73
1, 676861, Control_c, 0, 67, 49
1, 676876, Control_c, 0, 67, 39
1, 676883, Note_off_c, 0, 58, 63
1, 676891, Control_c, 0, 67, 0
1, 676948, Note_on_c, 0, 53, 68
1, 676980, Note_off_c, 0, 53, 64
1, 677056, Note_on_c, 0, 54, 70
1, 677087, Note_off_c, 0, 54, 61
1, 677125, Note_off_c, 0, 68, 59
1, 677154, Note_on_c, 0, 70, 59
1, 677159, Note_on_c, 0, 44, 65
1, 677207, Note_off_c, 0, 44, 59
1, 677214, Note_off_c, 0, 70, 55
1, 677264, Note_on_c, 0, 77, 58
1, 677270, Note_on_c, 0, 49, 65
1, 677296, Note_off_c, 0, 49, 66
1, 677322, Note_off_c, 0, 77, 56
1, 677362, Note_on_c, 0, 58, 92
1, 677365, Control_c, 0, 64, 48
1, 677371, Note_on_c, 0, 68, 60
1, 677379, Control_c, 0, 64, 61
1, 677394, Control_c, 0, 64, 61
1, 677409, Control_c, 0, 64, 62
1, 677424, Control_c, 0, 64, 62
1, 677439, Control_c, 0, 64, 63
1, 677445, Note_off_c, 0, 68, 55
1, 677487, Note_on_c, 0, 73, 64
1, 677512, Control_c, 0, 64, 63
1, 677523, Note_off_c, 0, 58, 57
1, 677579, Control_c, 0, 64, 64
1, 677583, Note_off_c, 0, 73, 55
1, 677589, Note_on_c, 0, 66, 67
1, 677590, Note_on_c, 0, 47, 61
1, 677640, Control_c, 0, 64, 63
1, 677645, Note_off_c, 0, 47, 60
1, 677654, Control_c, 0, 64, 54
1, 677669, Control_c, 0, 64, 0
1, 677696, Note_on_c, 0, 56, 86
1, 677760, Note_off_c, 0, 56, 58
1, 677802, Note_on_c, 0, 51, 76
1, 677844, Note_off_c, 0, 51, 60
1, 677905, Note_on_c, 0, 53, 86
1, 677957, Note_off_c, 0, 53, 65
1, 677962, Note_off_c, 0, 66, 62
1, 678001, Note_on_c, 0, 42, 69
1, 678007, Note_on_c, 0, 75, 64
1, 678049, Note_off_c, 0, 75, 56
1, 678072, Note_off_c, 0, 42, 58
1, 678105, Note_on_c, 0, 47, 59
1, 678123, Note_on_c, 0, 68, 61
1, 678140, Note_off_c, 0, 47, 64
1, 678169, Note_off_c, 0, 68, 59
1, 678201, Note_on_c, 0, 56, 97
1, 678208, Note_on_c, 0, 75, 80
1, 678246, Note_off_c, 0, 56, 65
1, 678285, Note_off_c, 0, 75, 59
1, 678323, Note_on_c, 0, 46, 67
1, 678335, Note_on_c, 0, 71, 51
1, 678353, Note_off_c, 0, 46, 62
1, 678376, Note_off_c, 0, 71, 49
1, 678430, Note_on_c, 0, 54, 86
1, 678435, Note_on_c, 0, 65, 66
1, 678475, Note_off_c, 0, 54, 63
1, 678531, Note_on_c, 0, 51, 88
1, 678567, Control_c, 0, 64, 49
1, 678573, Note_off_c, 0, 65, 64
1, 678582, Control_c, 0, 64, 63
1, 678585, Note_off_c, 0, 51, 63
1, 678627, Note_on_c, 0, 41, 83
1, 678641, Control_c, 0, 64, 64
1, 678656, Control_c, 0, 64, 65
1, 678671, Control_c, 0, 64, 67
1, 678686, Control_c, 0, 64, 69
1, 678694, Note_off_c, 0, 41, 65
1, 678700, Control_c, 0, 64, 71
1, 678730, Control_c, 0, 64, 70
1, 678737, Note_on_c, 0, 46, 88
1, 678745, Control_c, 0, 64, 59
1, 678759, Control_c, 0, 64, 0
1, 678780, Note_off_c, 0, 46, 62
1, 678838, Note_on_c, 0, 58, 93
1, 678843, Note_on_c, 0, 54, 91
1, 678877, Note_off_c, 0, 58, 63
1, 678883, Note_off_c, 0, 54, 65
1, 678948, Note_on_c, 0, 44, 66
1, 678951, Note_on_c, 0, 60, 80
1, 678980, Note_off_c, 0, 44, 64
1, 678986, Note_off_c, 0, 60, 64
1, 679052, Note_on_c, 0, 53, 83
1, 679053, Note_on_c, 0, 62, 81
1, 679081, Note_off_c, 0, 53, 64
1, 679086, Note_off_c, 0, 62, 66
1, 679151, Control_c, 0, 66, 127
1, 679155, Note_on_c, 0, 51, 90
1, 679157, Note_on_c, 0, 63, 94
1, 679176, Note_off_c, 0, 63, 73
1, 679238, Note_off_c, 0, 51, 59
1, 679263, Note_on_c, 0, 75, 85
1, 679269, Note_on_c, 0, 46, 81
1, 679307, Note_off_c, 0, 75, 66
1, 679354, Note_off_c, 0, 46, 61
1, 679370, Note_on_c, 0, 78, 89
1, 679371, Note_on_c, 0, 42, 81
1, 679415, Note_off_c, 0, 78, 65
1, 679433, Control_c, 0, 66, 0
1, 679458, Note_off_c, 0, 42, 59
1, 679460, Note_on_c, 0, 39, 78
1, 679461, Note_on_c, 0, 82, 94
1, 679485, Note_off_c, 0, 39, 67
1, 679504, Note_off_c, 0, 82, 65
1, 679574, Note_on_c, 0, 86, 100
1, 679669, Note_on_c, 0, 66, 76
1, 679671, Note_on_c, 0, 58, 71
1, 679747, Note_off_c, 0, 66, 63
1, 679755, Note_off_c, 0, 58, 62
1, 679774, Note_on_c, 0, 68, 73
1, 679779, Note_on_c, 0, 62, 65
1, 679837, Note_off_c, 0, 86, 66
1, 679839, Note_off_c, 0, 68, 62
1, 679869, Note_off_c, 0, 62, 61
1, 679886, Note_on_c, 0, 89, 102
1, 679895, Note_on_c, 0, 66, 67
1, 679896, Note_on_c, 0, 58, 64
1, 679982, Note_off_c, 0, 66, 58
1, 679985, Note_off_c, 0, 58, 62
1, 680001, Note_on_c, 0, 63, 70
1, 680002, Note_on_c, 0, 70, 70
1, 680042, Note_off_c, 0, 70, 62
1, 680053, Note_off_c, 0, 89, 63
1, 680093, Control_c, 0, 67, 43
1, 680099, Note_on_c, 0, 66, 67
1, 680100, Note_off_c, 0, 63, 62
1, 680105, Note_on_c, 0, 90, 97
1, 680108, Control_c, 0, 67, 57
1, 680108, Note_on_c, 0, 58, 63
1, 680122, Control_c, 0, 67, 70
1, 680129, Note_off_c, 0, 66, 67
1, 680137, Control_c, 0, 67, 82
1, 680143, Note_off_c, 0, 58, 64
1, 680152, Note_off_c, 0, 90, 66
1, 680152, Control_c, 0, 67, 91
1, 680167, Control_c, 0, 67, 99
1, 680182, Control_c, 0, 67, 105
1, 680196, Control_c, 0, 67, 112
1, 680202, Note_on_c, 0, 87, 96
1, 680211, Control_c, 0, 67, 118
1, 680226, Control_c, 0, 67, 121
1, 680242, Note_off_c, 0, 87, 68
1, 680256, Control_c, 0, 64, 29
1, 680270, Control_c, 0, 64, 31
1, 680285, Control_c, 0, 64, 28
1, 680300, Control_c, 0, 64, 0
1, 680300, Control_c, 0, 67, 119
1, 680307, Note_on_c, 0, 82, 86
1, 680314, Control_c, 0, 67, 116
1, 680329, Control_c, 0, 67, 113
1, 680345, Note_off_c, 0, 82, 65
1, 680359, Control_c, 0, 67, 111
1, 680388, Control_c, 0, 64, 33
1, 680402, Note_on_c, 0, 86, 101
1, 680403, Control_c, 0, 64, 49
1, 680403, Control_c, 0, 67, 109
1, 680418, Control_c, 0, 64, 58
1, 680433, Control_c, 0, 64, 59
1, 680463, Control_c, 0, 67, 111
1, 680489, Note_on_c, 0, 57, 61
1, 680492, Control_c, 0, 67, 113
1, 680498, Note_on_c, 0, 65, 65
1, 680507, Note_on_c, 0, 81, 93
1, 680515, Note_off_c, 0, 86, 63
1, 680522, Control_c, 0, 67, 116
1, 680537, Control_c, 0, 64, 59
1, 680559, Control_c, 0, 67, 118
1, 680560, Note_off_c, 0, 81, 66
1, 680583, Note_off_c, 0, 65, 60
1, 680589, Control_c, 0, 64, 58
1, 680599, Note_off_c, 0, 57, 63
1, 680615, Note_on_c, 0, 66, 68
1, 680615, Note_on_c, 0, 78, 93
1, 680618, Control_c, 0, 64, 57
1, 680619, Note_on_c, 0, 62, 53
1, 680633, Control_c, 0, 64, 55
1, 680644, Note_off_c, 0, 66, 69
1, 680648, Control_c, 0, 64, 44
1, 680655, Note_off_c, 0, 78, 63
1, 680662, Note_off_c, 0, 62, 58
1, 680663, Control_c, 0, 64, 0
1, 680663, Control_c, 0, 67, 116
1, 680707, Note_on_c, 0, 65, 72
1, 680712, Note_on_c, 0, 75, 93
1, 680719, Note_on_c, 0, 57, 61
1, 680752, Control_c, 0, 64, 41
1, 680767, Control_c, 0, 64, 54
1, 680767, Control_c, 0, 67, 119
1, 680782, Control_c, 0, 64, 60
1, 680782, Control_c, 0, 67, 121
1, 680784, Note_off_c, 0, 57, 53
1, 680796, Control_c, 0, 64, 61
1, 680799, Note_off_c, 0, 65, 62
1, 680811, Control_c, 0, 67, 124
1, 680813, Note_on_c, 0, 69, 83
1, 680859, Note_off_c, 0, 75, 62
1, 680892, Note_off_c, 0, 69, 52
1, 680916, Control_c, 0, 67, 126
1, 680917, Note_on_c, 0, 66, 72
1, 680927, Note_on_c, 0, 58, 65
1, 680931, Control_c, 0, 64, 60
1, 680936, Note_on_c, 0, 82, 77
1, 680944, Note_off_c, 0, 66, 68
1, 680945, Control_c, 0, 64, 59
1, 680958, Note_off_c, 0, 58, 65
1, 680960, Control_c, 0, 64, 58
1, 680975, Control_c, 0, 64, 55
1, 680990, Control_c, 0, 64, 52
1, 680996, Note_off_c, 0, 82, 61
1, 681005, Control_c, 0, 64, 50
1, 681020, Control_c, 0, 64, 47
1, 681035, Control_c, 0, 64, 43
1, 681049, Note_on_c, 0, 83, 74
1, 681050, Control_c, 0, 64, 32
1, 681065, Control_c, 0, 64, 0
1, 681097, Note_off_c, 0, 83, 63
1, 681142, Note_on_c, 0, 85, 73
1, 681184, Note_off_c, 0, 85, 61
1, 681198, Control_c, 0, 64, 30
1, 681213, Control_c, 0, 64, 46
1, 681227, Control_c, 0, 64, 57
1, 681242, Control_c, 0, 64, 61
1, 681252, Note_on_c, 0, 87, 77
1, 681257, Control_c, 0, 64, 63
1, 681259, Note_on_c, 0, 68, 47
1, 681271, Control_c, 0, 64, 63
1, 681286, Control_c, 0, 64, 64
1, 681303, Note_off_c, 0, 68, 61
1, 681309, Control_c, 0, 64, 65
1, 681315, Note_off_c, 0, 87, 64
1, 681324, Control_c, 0, 64, 65
1, 681339, Control_c, 0, 64, 66
1, 681353, Control_c, 0, 64, 66
1, 681360, Note_on_c, 0, 77, 66
1, 681383, Note_on_c, 0, 54, 40
1, 681383, Control_c, 0, 64, 67
1, 681413, Note_off_c, 0, 77, 60
1, 681414, Note_off_c, 0, 54, 58
1, 681457, Control_c, 0, 64, 67
1, 681462, Note_on_c, 0, 82, 72
1, 681471, Control_c, 0, 64, 68
1, 681485, Note_on_c, 0, 61, 51
1, 681486, Control_c, 0, 64, 68
1, 681501, Control_c, 0, 64, 69
1, 681515, Note_off_c, 0, 82, 62
1, 681516, Control_c, 0, 64, 69
1, 681531, Note_off_c, 0, 61, 59
1, 681560, Control_c, 0, 64, 67
1, 681569, Note_on_c, 0, 53, 63
1, 681572, Note_on_c, 0, 90, 67
1, 681575, Control_c, 0, 64, 57
1, 681590, Control_c, 0, 64, 0
1, 681612, Note_off_c, 0, 90, 61
1, 681641, Note_off_c, 0, 53, 62
1, 681650, Control_c, 0, 64, 44
1, 681665, Control_c, 0, 64, 60
1, 681680, Note_on_c, 0, 73, 78
1, 681680, Control_c, 0, 64, 65
1, 681685, Note_on_c, 0, 58, 62
1, 681695, Control_c, 0, 64, 68
1, 681710, Control_c, 0, 64, 69
1, 681724, Control_c, 0, 64, 71
1, 681739, Control_c, 0, 64, 72
1, 681747, Note_off_c, 0, 73, 61
1, 681754, Control_c, 0, 64, 73
1, 681767, Note_off_c, 0, 58, 59
1, 681768, Control_c, 0, 64, 75
1, 681781, Note_on_c, 0, 80, 72
1, 681783, Control_c, 0, 64, 75
1, 681792, Note_on_c, 0, 51, 64
1, 681828, Control_c, 0, 64, 76
1, 681834, Note_off_c, 0, 51, 59
1, 681834, Note_off_c, 0, 80, 62
1, 681858, Control_c, 0, 64, 76
1, 681872, Control_c, 0, 64, 77
1, 681886, Note_on_c, 0, 89, 80
1, 681887, Control_c, 0, 64, 78
1, 681902, Control_c, 0, 64, 79
1, 681917, Control_c, 0, 64, 80
1, 681932, Control_c, 0, 64, 81
1, 681939, Note_off_c, 0, 89, 60
1, 681947, Control_c, 0, 64, 82
1, 681983, Note_on_c, 0, 83, 83
1, 681991, Control_c, 0, 64, 81
1, 682006, Control_c, 0, 64, 74
1, 682021, Control_c, 0, 64, 62
1, 682036, Control_c, 0, 64, 40
1, 682048, Note_off_c, 0, 83, 63
1, 682057, Control_c, 0, 64, 29
1, 682072, Control_c, 0, 64, 33
1, 682087, Control_c, 0, 64, 48
1, 682102, Note_on_c, 0, 66, 84
1, 682102, Note_on_c, 0, 85, 80
1, 682102, Control_c, 0, 64, 61
1, 682117, Control_c, 0, 64, 67
1, 682132, Control_c, 0, 64, 70
1, 682140, Note_off_c, 0, 66, 60
1, 682145, Note_off_c, 0, 85, 65
1, 682147, Control_c, 0, 64, 72
1, 682162, Control_c, 0, 64, 73
1, 682176, Control_c, 0, 64, 75
1, 682176, Control_c, 0, 67, 117
1, 682191, Control_c, 0, 64, 75
1, 682191, Control_c, 0, 67, 96
1, 682203, Note_on_c, 0, 75, 79
1, 682206, Control_c, 0, 64, 76
1, 682206, Control_c, 0, 67, 77
1, 682207, Note_on_c, 0, 53, 55
1, 682221, Control_c, 0, 64, 76
1, 682221, Control_c, 0, 67, 62
1, 682235, Control_c, 0, 67, 49
1, 682249, Control_c, 0, 67, 41
1, 682251, Note_off_c, 0, 75, 60
1, 682252, Note_off_c, 0, 53, 54
1, 682264, Control_c, 0, 67, 0
1, 682279, Control_c, 0, 64, 77
1, 682310, Note_on_c, 0, 80, 75
1, 682315, Note_on_c, 0, 59, 72
1, 682323, Control_c, 0, 64, 77
1, 682338, Control_c, 0, 64, 78
1, 682341, Note_off_c, 0, 80, 62
1, 682367, Control_c, 0, 64, 78
1, 682384, Note_off_c, 0, 59, 61
1, 682405, Note_on_c, 0, 89, 86
1, 682413, Note_on_c, 0, 51, 70
1, 682413, Control_c, 0, 64, 77
1, 682428, Control_c, 0, 64, 68
1, 682443, Control_c, 0, 64, 46
1, 682445, Note_off_c, 0, 89, 64
1, 682458, Control_c, 0, 64, 0
1, 682467, Note_off_c, 0, 51, 57
1, 682513, Note_on_c, 0, 71, 92
1, 682516, Note_on_c, 0, 56, 70
1, 682531, Control_c, 0, 64, 45
1, 682546, Control_c, 0, 64, 61
1, 682561, Control_c, 0, 64, 65
1, 682576, Note_off_c, 0, 71, 64
1, 682576, Control_c, 0, 64, 69
1, 682591, Control_c, 0, 64, 70
1, 682606, Control_c, 0, 64, 73
1, 682614, Note_off_c, 0, 56, 60
1, 682621, Control_c, 0, 64, 74
1, 682624, Note_on_c, 0, 78, 79
1, 682636, Control_c, 0, 64, 76
1, 682645, Note_on_c, 0, 49, 60
1, 682650, Control_c, 0, 64, 77
1, 682660, Note_off_c, 0, 78, 54
1, 682665, Control_c, 0, 64, 77
1, 682680, Control_c, 0, 64, 78
1, 682695, Control_c, 0, 64, 78
1, 682704, Note_off_c, 0, 49, 61
1, 682710, Control_c, 0, 64, 79
1, 682724, Control_c, 0, 64, 81
1, 682727, Note_on_c, 0, 87, 80
1, 682739, Control_c, 0, 64, 82
1, 682754, Control_c, 0, 64, 83
1, 682769, Control_c, 0, 64, 84
1, 682805, Control_c, 0, 64, 81
1, 682817, Note_off_c, 0, 87, 62
1, 682820, Control_c, 0, 64, 70
1, 682826, Note_on_c, 0, 82, 74
1, 682835, Control_c, 0, 64, 53
1, 682850, Control_c, 0, 64, 0
1, 682856, Note_off_c, 0, 82, 60
1, 682880, Control_c, 0, 64, 34
1, 682895, Control_c, 0, 64, 51
1, 682910, Control_c, 0, 64, 57
1, 682914, Note_on_c, 0, 83, 93
1, 682917, Note_on_c, 0, 65, 81
1, 682924, Control_c, 0, 64, 56
1, 682939, Control_c, 0, 64, 55
1, 682954, Control_c, 0, 64, 54
1, 682955, Note_off_c, 0, 65, 65
1, 682961, Note_off_c, 0, 83, 65
1, 682984, Control_c, 0, 64, 55
1, 682998, Control_c, 0, 64, 55
1, 683013, Control_c, 0, 64, 57
1, 683018, Note_on_c, 0, 73, 78
1, 683023, Note_on_c, 0, 58, 70
1, 683028, Control_c, 0, 64, 58
1, 683043, Control_c, 0, 64, 59
1, 683058, Control_c, 0, 64, 60
1, 683059, Note_off_c, 0, 73, 62
1, 683072, Control_c, 0, 64, 60
1, 683087, Note_off_c, 0, 58, 62
1, 683112, Note_on_c, 0, 51, 55
1, 683125, Note_on_c, 0, 78, 79
1, 683131, Control_c, 0, 64, 58
1, 683146, Control_c, 0, 64, 49
1, 683160, Note_off_c, 0, 51, 61
1, 683161, Control_c, 0, 64, 0
1, 683173, Note_off_c, 0, 78, 59
1, 683220, Note_on_c, 0, 87, 84
1, 683221, Note_on_c, 0, 58, 76
1, 683236, Note_on_c, 0, 85, 74
1, 683236, Control_c, 0, 64, 35
1, 683251, Note_off_c, 0, 87, 67
1, 683251, Control_c, 0, 64, 51
1, 683266, Control_c, 0, 64, 62
1, 683279, Note_off_c, 0, 85, 63
1, 683281, Control_c, 0, 64, 66
1, 683289, Note_off_c, 0, 58, 62
1, 683295, Control_c, 0, 64, 69
1, 683310, Control_c, 0, 64, 70
1, 683325, Control_c, 0, 64, 71
1, 683327, Note_on_c, 0, 70, 81
1, 683331, Note_on_c, 0, 54, 74
1, 683339, Control_c, 0, 64, 72
1, 683343, Note_on_c, 0, 77, 64
1, 683369, Note_off_c, 0, 70, 58
1, 683369, Control_c, 0, 64, 71
1, 683384, Control_c, 0, 64, 65
1, 683390, Note_off_c, 0, 77, 62
1, 683399, Control_c, 0, 64, 40
1, 683414, Control_c, 0, 64, 0
1, 683433, Note_on_c, 0, 47, 78
1, 683434, Note_on_c, 0, 85, 87
1, 683434, Note_off_c, 0, 54, 61
1, 683458, Control_c, 0, 64, 46
1, 683473, Note_off_c, 0, 47, 63
1, 683473, Control_c, 0, 64, 62
1, 683479, Note_off_c, 0, 85, 65
1, 683488, Control_c, 0, 64, 67
1, 683503, Control_c, 0, 64, 71
1, 683535, Note_on_c, 0, 82, 91
1, 683584, Note_off_c, 0, 82, 63
1, 683642, Note_on_c, 0, 71, 88
1, 683658, Control_c, 0, 64, 71
1, 683674, Note_off_c, 0, 71, 64
1, 683688, Control_c, 0, 64, 72
1, 683703, Control_c, 0, 64, 73
1, 683718, Control_c, 0, 64, 74
1, 683744, Note_on_c, 0, 69, 88
1, 683744, Note_on_c, 0, 77, 86
1, 683763, Note_off_c, 0, 77, 71
1, 683763, Control_c, 0, 64, 73
1, 683764, Note_off_c, 0, 69, 66
1, 683778, Control_c, 0, 64, 69
1, 683793, Control_c, 0, 64, 60
1, 683808, Control_c, 0, 64, 0
1, 683825, Note_on_c, 0, 53, 85
1, 683832, Note_on_c, 0, 41, 79
1, 683848, Note_on_c, 0, 85, 88
1, 683864, Note_off_c, 0, 41, 69
1, 683864, Note_off_c, 0, 53, 63
1, 683897, Note_off_c, 0, 85, 60
1, 683942, Note_on_c, 0, 55, 80
1, 683944, Note_on_c, 0, 75, 78
1, 683952, Note_on_c, 0, 43, 70
1, 683965, Note_off_c, 0, 55, 69
1, 683970, Note_off_c, 0, 75, 65
1, 683980, Note_off_c, 0, 43, 62
1, 684037, Note_on_c, 0, 57, 88
1, 684037, Note_on_c, 0, 83, 86
1, 684042, Note_on_c, 0, 45, 77
1, 684057, Note_off_c, 0, 57, 72
1, 684070, Note_off_c, 0, 45, 67
1, 684082, Note_off_c, 0, 83, 63
1, 684106, Control_c, 0, 64, 35
1, 684120, Control_c, 0, 64, 64
1, 684135, Control_c, 0, 64, 68
1, 684137, Note_on_c, 0, 58, 95
1, 684142, Note_on_c, 0, 46, 84
1, 684146, Note_on_c, 0, 82, 98
1, 684150, Control_c, 0, 64, 72
1, 684158, Note_off_c, 0, 58, 67
1, 684165, Control_c, 0, 64, 74
1, 684166, Note_off_c, 0, 46, 69
1, 684180, Control_c, 0, 64, 77
1, 684192, Note_off_c, 0, 82, 61
1, 684209, Control_c, 0, 64, 76
1, 684224, Control_c, 0, 64, 69
1, 684239, Control_c, 0, 64, 52
1, 684248, Note_on_c, 0, 58, 90
1, 684251, Note_on_c, 0, 77, 92
1, 684254, Control_c, 0, 64, 0
1, 684304, Note_off_c, 0, 77, 64
1, 684312, Note_off_c, 0, 58, 64
1, 684365, Note_on_c, 0, 73, 89
1, 684370, Note_on_c, 0, 61, 86
1, 684408, Note_off_c, 0, 73, 62
1, 684421, Note_off_c, 0, 61, 65
1, 684462, Note_on_c, 0, 70, 78
1, 684464, Note_on_c, 0, 65, 97
1, 684484, Note_off_c, 0, 70, 70
1, 684503, Note_off_c, 0, 65, 67
1, 684567, Note_on_c, 0, 69, 108
1, 684663, Note_on_c, 0, 77, 76
1, 684669, Note_on_c, 0, 85, 78
1, 684707, Note_off_c, 0, 77, 59
1, 684757, Note_off_c, 0, 85, 60
1, 684765, Note_off_c, 0, 69, 60
1, 684770, Note_on_c, 0, 82, 80
1, 684776, Note_on_c, 0, 87, 78
1, 684819, Note_off_c, 0, 82, 61
1, 684838, Note_off_c, 0, 87, 64
1, 684866, Note_on_c, 0, 72, 109
1, 684877, Note_on_c, 0, 85, 91
1, 684882, Note_on_c, 0, 77, 89
1, 684899, Control_c, 0, 64, 39
1, 684913, Control_c, 0, 64, 60
1, 684928, Control_c, 0, 64, 64
1, 684937, Note_off_c, 0, 77, 59
1, 684943, Control_c, 0, 64, 66
1, 684958, Control_c, 0, 64, 68
1, 684972, Note_off_c, 0, 85, 57
1, 684973, Control_c, 0, 64, 71
1, 684974, Note_off_c, 0, 72, 65
1, 684986, Note_on_c, 0, 82, 84
1, 684988, Control_c, 0, 64, 74
1, 684989, Note_on_c, 0, 89, 84
1, 685002, Control_c, 0, 64, 77
1, 685017, Control_c, 0, 64, 80
1, 685040, Control_c, 0, 64, 82
1, 685056, Note_off_c, 0, 82, 59
1, 685069, Control_c, 0, 64, 81
1, 685074, Note_off_c, 0, 89, 63
1, 685083, Note_on_c, 0, 73, 96
1, 685084, Control_c, 0, 64, 73
1, 685090, Note_on_c, 0, 85, 85
1, 685091, Note_on_c, 0, 77, 81
1, 685099, Control_c, 0, 64, 55
1, 685110, Note_off_c, 0, 77, 70
1, 685114, Control_c, 0, 64, 0
1, 685116, Note_off_c, 0, 85, 66
1, 685128, Note_off_c, 0, 73, 64
1, 685197, Note_on_c, 0, 70, 83
1, 685244, Note_off_c, 0, 70, 66
1, 685293, Note_on_c, 0, 65, 71
1, 685312, Note_on_c, 0, 67, 68
1, 685330, Note_off_c, 0, 67, 39
1, 685339, Note_off_c, 0, 65, 65
1, 685401, Note_on_c, 0, 69, 95
1, 685449, Note_off_c, 0, 69, 64
1, 685494, Note_on_c, 0, 52, 61
1, 685494, Poly_aftertouch_c, 0, 67, 0
1, 685499, Note_on_c, 0, 64, 82
1, 685500, Note_on_c, 0, 48, 53
1, 685530, Note_off_c, 0, 48, 51
1, 685533, Note_off_c, 0, 52, 60
1, 685544, Note_off_c, 0, 64, 63
1, 685587, Note_on_c, 0, 61, 85
1, 685592, Note_on_c, 0, 53, 73
1, 685608, Note_on_c, 0, 49, 64
1, 685637, Note_off_c, 0, 61, 64
1, 685640, Note_off_c, 0, 49, 63
1, 685646, Note_off_c, 0, 53, 62
1, 685684, Note_on_c, 0, 58, 86
1, 685691, Note_on_c, 0, 48, 86
1, 685692, Note_on_c, 0, 52, 84
1, 685722, Note_off_c, 0, 48, 63
1, 685755, Note_off_c, 0, 52, 61
1, 685795, Note_on_c, 0, 51, 85
1, 685796, Note_on_c, 0, 55, 83
1, 685815, Note_off_c, 0, 58, 62
1, 685849, Note_off_c, 0, 51, 62
1, 685860, Note_off_c, 0, 55, 61
1, 685888, Note_on_c, 0, 52, 74
1, 685894, Note_on_c, 0, 48, 63
1, 685903, Note_on_c, 0, 64, 82
1, 685911, Note_off_c, 0, 52, 68
1, 685922, Note_off_c, 0, 48, 55
1, 685965, Note_off_c, 0, 64, 64
1, 686018, Note_on_c, 0, 65, 73
1, 686071, Note_off_c, 0, 65, 62
1, 686126, Poly_aftertouch_c, 0, 67, 127
1, 686159, Poly_aftertouch_c, 0, 67, 0
1, 686210, Note_on_c, 0, 68, 85
1, 686260, Note_off_c, 0, 68, 61
1, 686314, Note_on_c, 0, 58, 74
1, 686325, Note_on_c, 0, 83, 55
1, 686363, Note_off_c, 0, 83, 61
1, 686376, Note_off_c, 0, 58, 63
1, 686423, Note_on_c, 0, 63, 67
1, 686446, Note_on_c, 0, 90, 50
1, 686449, Note_off_c, 0, 63, 66
1, 686474, Note_off_c, 0, 90, 65
1, 686522, Note_on_c, 0, 71, 85
1, 686528, Note_on_c, 0, 82, 72
1, 686529, Control_c, 0, 64, 37
1, 686552, Control_c, 0, 64, 59
1, 686566, Control_c, 0, 64, 62
1, 686579, Note_off_c, 0, 82, 58
1, 686596, Control_c, 0, 64, 63
1, 686597, Note_off_c, 0, 71, 60
1, 686611, Control_c, 0, 64, 65
1, 686626, Control_c, 0, 64, 68
1, 686639, Note_on_c, 0, 92, 79
1, 686640, Control_c, 0, 64, 71
1, 686655, Control_c, 0, 64, 74
1, 686658, Note_off_c, 0, 92, 72
1, 686670, Control_c, 0, 64, 78
1, 686685, Control_c, 0, 64, 82
1, 686699, Control_c, 0, 64, 87
1, 686714, Control_c, 0, 64, 90
1, 686729, Control_c, 0, 64, 91
1, 686743, Note_on_c, 0, 61, 75
1, 686744, Control_c, 0, 64, 91
1, 686759, Control_c, 0, 64, 79
1, 686773, Control_c, 0, 64, 51
1, 686788, Control_c, 0, 64, 0
1, 686816, Note_off_c, 0, 61, 59
1, 686828, Note_on_c, 0, 70, 87
1, 686833, Control_c, 0, 66, 127
1, 686852, Note_on_c, 0, 51, 90
1, 686896, Note_off_c, 0, 51, 59
1, 686908, Note_off_c, 0, 70, 57
1, 686916, Note_on_c, 0, 65, 71
1, 686990, Note_off_c, 0, 65, 62
1, 687047, Note_on_c, 0, 66, 75
1, 687086, Note_off_c, 0, 66, 60
1, 687143, Note_on_c, 0, 82, 50
1, 687144, Note_on_c, 0, 56, 75
1, 687172, Note_off_c, 0, 82, 56
1, 687204, Note_off_c, 0, 56, 61
1, 687247, Note_on_c, 0, 61, 77
1, 687253, Note_on_c, 0, 89, 70
1, 687277, Note_off_c, 0, 61, 66
1, 687316, Note_off_c, 0, 89, 62
1, 687330, Control_c, 0, 64, 29
1, 687345, Control_c, 0, 64, 56
1, 687347, Note_on_c, 0, 70, 92
1, 687355, Note_on_c, 0, 80, 74
1, 687360, Control_c, 0, 64, 62
1, 687375, Control_c, 0, 64, 62
1, 687389, Control_c, 0, 64, 63
1, 687404, Control_c, 0, 64, 64
1, 687410, Note_off_c, 0, 80, 59
1, 687419, Control_c, 0, 64, 65
1, 687434, Control_c, 0, 64, 65
1, 687449, Control_c, 0, 64, 66
1, 687459, Note_off_c, 0, 70, 57
1, 687461, Note_on_c, 0, 90, 89
1, 687463, Control_c, 0, 64, 67
1, 687479, Control_c, 0, 64, 68
1, 687485, Note_off_c, 0, 90, 66
1, 687494, Control_c, 0, 64, 69
1, 687509, Control_c, 0, 64, 71
1, 687523, Control_c, 0, 64, 73
1, 687538, Control_c, 0, 64, 76
1, 687553, Control_c, 0, 64, 79
1, 687567, Note_on_c, 0, 59, 76
1, 687568, Control_c, 0, 64, 81
1, 687583, Control_c, 0, 66, 0
1, 687597, Control_c, 0, 64, 81
1, 687612, Control_c, 0, 64, 73
1, 687627, Control_c, 0, 64, 53
1, 687635, Note_off_c, 0, 59, 63
1, 687641, Control_c, 0, 64, 0
1, 687668, Note_on_c, 0, 68, 93
1, 687671, Control_c, 0, 66, 127
1, 687691, Note_on_c, 0, 49, 88
1, 687715, Note_on_c, 0, 48, 61
1, 687715, Control_c, 0, 64, 51
1, 687730, Control_c, 0, 64, 63
1, 687733, Note_off_c, 0, 49, 62
1, 687745, Note_off_c, 0, 48, 55
1, 687745, Control_c, 0, 64, 64
1, 687758, Note_on_c, 0, 63, 82
1, 687766, Note_off_c, 0, 68, 59
1, 687822, Note_off_c, 0, 63, 63
1, 687864, Control_c, 0, 64, 63
1, 687877, Note_on_c, 0, 65, 84
1, 687879, Control_c, 0, 64, 62
1, 687894, Control_c, 0, 64, 61
1, 687908, Control_c, 0, 64, 60
1, 687936, Note_off_c, 0, 65, 65
1, 687938, Control_c, 0, 64, 59
1, 687953, Control_c, 0, 64, 58
1, 687968, Control_c, 0, 64, 57
1, 687975, Note_on_c, 0, 54, 81
1, 687982, Control_c, 0, 64, 56
1, 687983, Note_on_c, 0, 80, 76
1, 687997, Control_c, 0, 64, 54
1, 688013, Control_c, 0, 64, 52
1, 688035, Note_off_c, 0, 80, 60
1, 688035, Control_c, 0, 64, 50
1, 688050, Control_c, 0, 64, 49
1, 688055, Note_off_c, 0, 54, 60
1, 688092, Note_on_c, 0, 59, 71
1, 688094, Control_c, 0, 66, 0
1, 688098, Note_on_c, 0, 87, 82
1, 688126, Note_off_c, 0, 59, 63
1, 688156, Note_off_c, 0, 87, 63
1, 688168, Control_c, 0, 64, 49
1, 688183, Control_c, 0, 64, 50
1, 688189, Note_on_c, 0, 68, 89
1, 688192, Note_on_c, 0, 78, 85
1, 688234, Note_off_c, 0, 68, 65
1, 688240, Note_off_c, 0, 78, 61
1, 688287, Control_c, 0, 64, 49
1, 688290, Note_on_c, 0, 58, 83
1, 688295, Note_on_c, 0, 89, 77
1, 688311, Note_off_c, 0, 89, 66
1, 688317, Control_c, 0, 64, 49
1, 688332, Control_c, 0, 64, 47
1, 688341, Note_off_c, 0, 58, 64
1, 688346, Control_c, 0, 64, 45
1, 688361, Control_c, 0, 64, 43
1, 688376, Control_c, 0, 64, 41
1, 688391, Control_c, 0, 64, 39
1, 688393, Note_on_c, 0, 66, 92
1, 688420, Control_c, 0, 64, 40
1, 688435, Control_c, 0, 64, 44
1, 688446, Note_off_c, 0, 66, 63
1, 688450, Control_c, 0, 64, 52
1, 688464, Control_c, 0, 64, 59
1, 688479, Control_c, 0, 64, 65
1, 688494, Control_c, 0, 64, 68
1, 688497, Note_on_c, 0, 63, 84
1, 688502, Note_on_c, 0, 47, 112
1, 688509, Control_c, 0, 64, 70
1, 688524, Control_c, 0, 64, 71
1, 688533, Note_off_c, 0, 47, 67
1, 688538, Control_c, 0, 64, 72
1, 688553, Control_c, 0, 64, 73
1, 688574, Note_off_c, 0, 63, 61
1, 688598, Note_on_c, 0, 53, 70
1, 688642, Control_c, 0, 64, 73
1, 688685, Note_off_c, 0, 53, 61
1, 688687, Control_c, 0, 64, 74
1, 688696, Note_on_c, 0, 58, 86
1, 688731, Control_c, 0, 64, 74
1, 688746, Control_c, 0, 64, 74
1, 688761, Control_c, 0, 64, 73
1, 688763, Poly_aftertouch_c, 0, 39, 127
1, 688764, Note_off_c, 0, 58, 65
1, 688776, Control_c, 0, 64, 67
1, 688798, Control_c, 0, 64, 52
1, 688806, Poly_aftertouch_c, 0, 39, 0
1, 688814, Control_c, 0, 64, 0
1, 688821, Note_on_c, 0, 66, 100
1, 688830, Note_on_c, 0, 34, 97
1, 688870, Note_off_c, 0, 66, 66
1, 688883, Note_off_c, 0, 34, 63
1, 688931, Note_on_c, 0, 36, 94
1, 688934, Note_on_c, 0, 56, 86
1, 688985, Note_off_c, 0, 36, 62
1, 688988, Note_off_c, 0, 56, 62
1, 689029, Note_on_c, 0, 38, 91
1, 689036, Note_on_c, 0, 65, 93
1, 689081, Note_off_c, 0, 38, 63
1, 689086, Note_off_c, 0, 65, 66
1, 689136, Note_on_c, 0, 39, 96
1, 689150, Note_on_c, 0, 54, 81
1, 689184, Note_off_c, 0, 54, 63
1, 689186, Note_off_c, 0, 39, 66
1, 689280, Note_on_c, 0, 63, 71
1, 689302, Control_c, 0, 67, 47
1, 689317, Control_c, 0, 67, 57
1, 689332, Control_c, 0, 67, 68
1, 689347, Control_c, 0, 67, 82
1, 689361, Control_c, 0, 67, 102
1, 689376, Control_c, 0, 67, 124
1, 689382, Note_off_c, 0, 63, 60
1, 689391, Control_c, 0, 67, 127
1, 689410, Note_on_c, 0, 65, 56
1, 689490, Note_off_c, 0, 65, 61
1, 689507, Note_on_c, 0, 63, 59
1, 689613, Note_off_c, 0, 63, 59
1, 689638, Note_on_c, 0, 66, 51
1, 689709, Note_on_c, 0, 69, 54
1, 689756, Note_on_c, 0, 63, 39
1, 689771, Note_off_c, 0, 66, 36
1, 689798, Note_off_c, 0, 69, 59
1, 689820, Note_on_c, 0, 70, 52
1, 689841, Note_off_c, 0, 63, 61
1, 689923, Note_on_c, 0, 69, 53
1, 689938, Note_off_c, 0, 70, 38
1, 690002, Note_off_c, 0, 69, 54
1, 690040, Note_on_c, 0, 72, 53
1, 690105, Note_off_c, 0, 72, 52
1, 690135, Note_on_c, 0, 63, 59
1, 690141, Note_on_c, 0, 69, 52
1, 690191, Note_off_c, 0, 69, 56
1, 690220, Note_off_c, 0, 63, 60
1, 690245, Note_on_c, 0, 65, 52
1, 690319, Note_off_c, 0, 65, 60
1, 690350, Note_on_c, 0, 63, 61
1, 690379, Note_on_c, 0, 69, 52
1, 690422, Note_off_c, 0, 63, 59
1, 690435, Note_off_c, 0, 69, 55
1, 690462, Note_on_c, 0, 66, 59
1, 690483, Note_on_c, 0, 70, 55
1, 690532, Note_off_c, 0, 70, 55
1, 690539, Note_off_c, 0, 66, 61
1, 690577, Note_on_c, 0, 63, 59
1, 690601, Note_on_c, 0, 69, 51
1, 690642, Note_off_c, 0, 69, 59
1, 690666, Note_off_c, 0, 63, 52
1, 690698, Note_on_c, 0, 72, 65
1, 690702, Note_on_c, 0, 65, 55
1, 690723, Note_off_c, 0, 72, 66
1, 690789, Note_on_c, 0, 72, 75
1, 690810, Note_on_c, 0, 63, 55
1, 690827, Note_off_c, 0, 65, 53
1, 690840, Note_off_c, 0, 72, 58
1, 690877, Note_off_c, 0, 63, 62
1, 690896, Note_on_c, 0, 69, 74
1, 690910, Note_on_c, 0, 66, 53
1, 690991, Note_off_c, 0, 66, 59
1, 691001, Note_on_c, 0, 70, 74
1, 691002, Note_on_c, 0, 63, 61
1, 691002, Note_off_c, 0, 69, 60
1, 691042, Note_off_c, 0, 63, 65
1, 691083, Note_off_c, 0, 70, 56
1, 691112, Note_on_c, 0, 72, 71
1, 691183, Note_off_c, 0, 72, 61
1, 691210, Note_on_c, 0, 70, 75
1, 691216, Note_on_c, 0, 65, 71
1, 691267, Note_off_c, 0, 70, 63
1, 691304, Note_off_c, 0, 65, 57
1, 691316, Note_on_c, 0, 66, 78
1, 691406, Note_off_c, 0, 66, 60
1, 691407, Note_on_c, 0, 73, 76
1, 691412, Note_on_c, 0, 65, 75
1, 691498, Note_off_c, 0, 73, 53
1, 691501, Note_off_c, 0, 65, 59
1, 691522, Note_on_c, 0, 72, 70
1, 691526, Note_on_c, 0, 68, 71
1, 691572, Note_off_c, 0, 68, 58
1, 691597, Note_off_c, 0, 72, 57
1, 691618, Note_on_c, 0, 73, 68
1, 691621, Note_on_c, 0, 65, 65
1, 691647, Note_off_c, 0, 65, 68
1, 691719, Note_off_c, 0, 73, 59
1, 691724, Note_on_c, 0, 70, 72
1, 691808, Note_off_c, 0, 70, 60
1, 691832, Note_on_c, 0, 73, 72
1, 691841, Note_on_c, 0, 65, 75
1, 691882, Note_off_c, 0, 73, 60
1, 691927, Note_off_c, 0, 65, 56
1, 691939, Note_on_c, 0, 66, 79
1, 692022, Note_on_c, 0, 73, 76
1, 692036, Note_on_c, 0, 65, 73
1, 692037, Note_off_c, 0, 66, 64
1, 692137, Note_on_c, 0, 72, 81
1, 692139, Note_off_c, 0, 65, 60
1, 692140, Note_off_c, 0, 73, 56
1, 692145, Note_on_c, 0, 68, 78
1, 692210, Note_off_c, 0, 68, 61
1, 692216, Note_off_c, 0, 72, 57
1, 692240, Note_on_c, 0, 73, 77
1, 692247, Note_on_c, 0, 65, 74
1, 692290, Note_off_c, 0, 73, 60
1, 692335, Note_off_c, 0, 65, 59
1, 692338, Note_on_c, 0, 70, 82
1, 692349, Note_on_c, 0, 66, 78
1, 692383, Note_off_c, 0, 70, 63
1, 692386, Control_c, 0, 64, 30
1, 692401, Control_c, 0, 64, 34
1, 692416, Control_c, 0, 64, 39
1, 692430, Control_c, 0, 64, 44
1, 692439, Note_on_c, 0, 70, 80
1, 692443, Note_on_c, 0, 65, 77
1, 692445, Control_c, 0, 64, 47
1, 692450, Note_off_c, 0, 66, 57
1, 692460, Control_c, 0, 64, 47
1, 692475, Control_c, 0, 64, 41
1, 692490, Control_c, 0, 64, 0
1, 692490, Control_c, 0, 67, 122
1, 692504, Control_c, 0, 67, 113
1, 692519, Control_c, 0, 67, 103
1, 692538, Note_off_c, 0, 65, 61
1, 692541, Note_off_c, 0, 70, 62
1, 692541, Control_c, 0, 67, 93
1, 692554, Note_on_c, 0, 72, 82
1, 692556, Note_on_c, 0, 68, 77
1, 692556, Control_c, 0, 67, 81
1, 692571, Control_c, 0, 67, 63
1, 692586, Control_c, 0, 67, 0
1, 692601, Control_c, 0, 64, 38
1, 692616, Control_c, 0, 64, 52
1, 692630, Control_c, 0, 64, 60
1, 692635, Note_off_c, 0, 68, 59
1, 692644, Note_on_c, 0, 70, 85
1, 692645, Control_c, 0, 64, 62
1, 692651, Note_off_c, 0, 72, 62
1, 692656, Note_on_c, 0, 65, 73
1, 692660, Control_c, 0, 64, 63
1, 692675, Control_c, 0, 64, 64
1, 692690, Control_c, 0, 64, 66
1, 692704, Control_c, 0, 64, 67
1, 692709, Note_off_c, 0, 65, 64
1, 692718, Control_c, 0, 64, 69
1, 692733, Control_c, 0, 64, 71
1, 692746, Note_on_c, 0, 73, 90
1, 692748, Note_off_c, 0, 70, 53
1, 692748, Control_c, 0, 64, 72
1, 692763, Control_c, 0, 64, 74
1, 692777, Control_c, 0, 64, 74
1, 692792, Control_c, 0, 64, 75
1, 692795, Note_off_c, 0, 73, 64
1, 692838, Control_c, 0, 64, 75
1, 692852, Control_c, 0, 64, 70
1, 692863, Note_on_c, 0, 82, 94
1, 692867, Control_c, 0, 64, 59
1, 692871, Note_on_c, 0, 72, 85
1, 692877, Note_on_c, 0, 66, 77
1, 692882, Control_c, 0, 64, 32
1, 692897, Control_c, 0, 64, 0
1, 692926, Control_c, 0, 64, 35
1, 692941, Control_c, 0, 64, 53
1, 692956, Control_c, 0, 64, 63
1, 692971, Control_c, 0, 64, 66
1, 692977, Note_off_c, 0, 66, 60
1, 692986, Control_c, 0, 64, 67
1, 692988, Note_off_c, 0, 82, 60
1, 692989, Note_on_c, 0, 77, 84
1, 692992, Note_on_c, 0, 68, 71
1, 693000, Control_c, 0, 64, 68
1, 693015, Control_c, 0, 64, 68
1, 693030, Control_c, 0, 64, 69
1, 693032, Note_off_c, 0, 72, 61
1, 693060, Control_c, 0, 64, 69
1, 693082, Note_off_c, 0, 77, 64
1, 693089, Note_off_c, 0, 68, 57
1, 693092, Note_on_c, 0, 66, 76
1, 693099, Note_on_c, 0, 80, 87
1, 693119, Control_c, 0, 64, 70
1, 693164, Control_c, 0, 64, 70
1, 693165, Note_off_c, 0, 66, 61
1, 693179, Control_c, 0, 64, 71
1, 693194, Control_c, 0, 64, 71
1, 693200, Note_on_c, 0, 75, 88
1, 693200, Note_off_c, 0, 80, 63
1, 693203, Note_on_c, 0, 70, 77
1, 693208, Control_c, 0, 64, 72
1, 693223, Control_c, 0, 64, 72
1, 693251, Note_off_c, 0, 70, 64
1, 693289, Control_c, 0, 64, 68
1, 693297, Note_off_c, 0, 75, 62
1, 693304, Control_c, 0, 64, 52
1, 693307, Note_on_c, 0, 70, 79
1, 693308, Note_on_c, 0, 78, 87
1, 693318, Note_on_c, 0, 65, 77
1, 693319, Control_c, 0, 64, 0
1, 693379, Control_c, 0, 64, 38
1, 693394, Control_c, 0, 64, 53
1, 693406, Note_off_c, 0, 70, 62
1, 693408, Control_c, 0, 64, 61
1, 693418, Note_on_c, 0, 72, 75
1, 693423, Control_c, 0, 64, 63
1, 693438, Control_c, 0, 64, 64
1, 693452, Control_c, 0, 64, 65
1, 693483, Control_c, 0, 64, 65
1, 693513, Control_c, 0, 64, 66
1, 693522, Note_off_c, 0, 72, 58
1, 693534, Note_on_c, 0, 70, 64
1, 693557, Control_c, 0, 64, 66
1, 693572, Control_c, 0, 64, 67
1, 693575, Note_off_c, 0, 78, 54
1, 693586, Control_c, 0, 64, 67
1, 693602, Control_c, 0, 64, 68
1, 693617, Control_c, 0, 64, 68
1, 693630, Note_off_c, 0, 70, 52
1, 693632, Control_c, 0, 64, 69
1, 693644, Note_on_c, 0, 73, 72
1, 693677, Control_c, 0, 64, 68
1, 693691, Control_c, 0, 64, 63
1, 693706, Control_c, 0, 64, 38
1, 693721, Control_c, 0, 64, 0
1, 693732, Note_off_c, 0, 65, 55
1, 693736, Note_on_c, 0, 63, 71
1, 693736, Control_c, 0, 67, 45
1, 693739, Note_on_c, 0, 68, 82
1, 693742, Note_on_c, 0, 78, 83
1, 693750, Control_c, 0, 67, 70
1, 693754, Note_off_c, 0, 73, 61
1, 693765, Control_c, 0, 67, 92
1, 693780, Control_c, 0, 64, 43
1, 693780, Control_c, 0, 67, 111
1, 693795, Control_c, 0, 64, 56
1, 693795, Control_c, 0, 67, 121
1, 693810, Control_c, 0, 64, 62
1, 693810, Control_c, 0, 67, 127
1, 693816, Note_off_c, 0, 63, 60
1, 693824, Control_c, 0, 64, 64
1, 693838, Note_off_c, 0, 78, 58
1, 693849, Note_on_c, 0, 65, 59
1, 693858, Note_on_c, 0, 73, 76
1, 693865, Note_off_c, 0, 68, 59
1, 693883, Control_c, 0, 64, 64
1, 693923, Note_off_c, 0, 73, 62
1, 693925, Note_off_c, 0, 65, 60
1, 693943, Note_on_c, 0, 63, 63
1, 693959, Note_on_c, 0, 77, 69
1, 693987, Control_c, 0, 64, 65
1, 694002, Note_off_c, 0, 63, 61
1, 694017, Control_c, 0, 64, 65
1, 694030, Note_off_c, 0, 77, 61
1, 694039, Control_c, 0, 64, 66
1, 694061, Note_on_c, 0, 66, 69
1, 694068, Note_on_c, 0, 72, 70
1, 694096, Note_off_c, 0, 66, 62
1, 694098, Control_c, 0, 64, 65
1, 694113, Control_c, 0, 64, 57
1, 694128, Control_c, 0, 64, 35
1, 694136, Note_off_c, 0, 72, 59
1, 694143, Control_c, 0, 64, 0
1, 694163, Note_on_c, 0, 75, 78
1, 694165, Note_on_c, 0, 61, 60
1, 694181, Note_on_c, 0, 66, 62
1, 694201, Control_c, 0, 64, 31
1, 694216, Control_c, 0, 64, 46
1, 694231, Control_c, 0, 64, 57
1, 694246, Control_c, 0, 64, 62
1, 694251, Note_off_c, 0, 66, 56
1, 694261, Control_c, 0, 64, 63
1, 694273, Note_on_c, 0, 68, 65
1, 694291, Control_c, 0, 64, 64
1, 694321, Control_c, 0, 64, 64
1, 694350, Control_c, 0, 64, 65
1, 694352, Note_off_c, 0, 68, 61
1, 694381, Note_on_c, 0, 66, 58
1, 694395, Control_c, 0, 64, 65
1, 694440, Control_c, 0, 64, 66
1, 694469, Note_off_c, 0, 75, 58
1, 694489, Note_on_c, 0, 70, 72
1, 694490, Note_off_c, 0, 66, 39
1, 694529, Control_c, 0, 64, 63
1, 694544, Control_c, 0, 64, 52
1, 694559, Control_c, 0, 64, 0
1, 694572, Note_off_c, 0, 70, 55
1, 694574, Note_off_c, 0, 61, 60
1, 694587, Note_on_c, 0, 75, 80
1, 694592, Note_on_c, 0, 60, 67
1, 694597, Note_on_c, 0, 65, 72
1, 694632, Control_c, 0, 64, 34
1, 694647, Control_c, 0, 64, 47
1, 694662, Control_c, 0, 64, 56
1, 694669, Note_off_c, 0, 60, 60
1, 694669, Note_off_c, 0, 75, 62
1, 694677, Control_c, 0, 64, 60
1, 694689, Note_on_c, 0, 70, 74
1, 694692, Control_c, 0, 64, 61
1, 694705, Note_on_c, 0, 61, 60
1, 694713, Note_off_c, 0, 65, 59
1, 694736, Control_c, 0, 64, 61
1, 694789, Note_off_c, 0, 70, 55
1, 694792, Note_off_c, 0, 61, 55
1, 694798, Note_on_c, 0, 60, 55
1, 694816, Note_on_c, 0, 73, 65
1, 694842, Note_off_c, 0, 60, 63
1, 694872, Note_off_c, 0, 73, 53
1, 694914, Note_on_c, 0, 63, 62
1, 694928, Note_on_c, 0, 68, 65
1, 694947, Note_off_c, 0, 63, 64
1, 694972, Note_off_c, 0, 68, 55
1, 694980, Control_c, 0, 64, 60
1, 694995, Control_c, 0, 64, 53
1, 695010, Control_c, 0, 64, 39
1, 695017, Note_on_c, 0, 63, 77
1, 695018, Note_on_c, 0, 72, 82
1, 695019, Note_on_c, 0, 58, 71
1, 695024, Control_c, 0, 64, 0
1, 695081, Note_off_c, 0, 63, 55
1, 695131, Note_on_c, 0, 65, 58
1, 695188, Control_c, 0, 64, 28
1, 695209, Note_off_c, 0, 65, 59
1, 695218, Control_c, 0, 64, 30
1, 695233, Control_c, 0, 64, 33
1, 695236, Note_on_c, 0, 63, 52
1, 695248, Control_c, 0, 64, 35
1, 695263, Control_c, 0, 64, 37
1, 695278, Control_c, 0, 64, 38
1, 695292, Control_c, 0, 64, 40
1, 695298, Note_off_c, 0, 63, 53
1, 695307, Control_c, 0, 64, 42
1, 695316, Note_off_c, 0, 72, 57
1, 695322, Control_c, 0, 64, 44
1, 695337, Control_c, 0, 64, 46
1, 695352, Control_c, 0, 64, 47
1, 695352, Note_on_c, 0, 66, 63
1, 695367, Control_c, 0, 64, 44
1, 695382, Control_c, 0, 64, 34
1, 695396, Control_c, 0, 64, 0
1, 695425, Note_off_c, 0, 66, 60
1, 695426, Note_off_c, 0, 58, 58
1, 695436, Note_on_c, 0, 72, 77
1, 695442, Note_on_c, 0, 61, 75
1, 695445, Note_on_c, 0, 56, 69
1, 695485, Control_c, 0, 64, 29
1, 695500, Control_c, 0, 64, 33
1, 695509, Note_off_c, 0, 72, 60
1, 695514, Note_off_c, 0, 56, 60
1, 695515, Control_c, 0, 64, 36
1, 695537, Control_c, 0, 64, 39
1, 695552, Control_c, 0, 64, 43
1, 695554, Note_on_c, 0, 66, 68
1, 695563, Note_on_c, 0, 58, 48
1, 695566, Note_off_c, 0, 61, 56
1, 695567, Control_c, 0, 64, 45
1, 695582, Control_c, 0, 64, 47
1, 695597, Control_c, 0, 64, 48
1, 695608, Note_off_c, 0, 58, 59
1, 695611, Control_c, 0, 64, 48
1, 695622, Note_off_c, 0, 66, 62
1, 695626, Control_c, 0, 64, 49
1, 695641, Control_c, 0, 64, 49
1, 695642, Note_on_c, 0, 56, 57
1, 695655, Control_c, 0, 64, 50
1, 695669, Note_on_c, 0, 70, 62
1, 695670, Control_c, 0, 64, 51
1, 695685, Control_c, 0, 64, 51
1, 695695, Note_off_c, 0, 56, 58
1, 695700, Control_c, 0, 64, 52
1, 695715, Control_c, 0, 64, 52
1, 695729, Control_c, 0, 64, 53
1, 695732, Note_off_c, 0, 70, 62
1, 695744, Control_c, 0, 64, 54
1, 695760, Note_on_c, 0, 60, 52
1, 695773, Control_c, 0, 64, 52
1, 695778, Note_on_c, 0, 65, 58
1, 695788, Control_c, 0, 64, 41
1, 695790, Note_off_c, 0, 60, 62
1, 695803, Control_c, 0, 64, 0
1, 695816, Note_off_c, 0, 65, 59
1, 695854, Note_on_c, 0, 68, 79
1, 695860, Note_on_c, 0, 60, 70
1, 695862, Note_on_c, 0, 54, 64
1, 695877, Control_c, 0, 64, 34
1, 695892, Control_c, 0, 64, 46
1, 695898, Note_off_c, 0, 60, 59
1, 695907, Control_c, 0, 64, 56
1, 695921, Control_c, 0, 64, 60
1, 695936, Control_c, 0, 64, 61
1, 695951, Control_c, 0, 64, 62
1, 695966, Control_c, 0, 64, 62
1, 695974, Note_on_c, 0, 61, 74
1, 695981, Note_off_c, 0, 54, 60
1, 695981, Control_c, 0, 64, 64
1, 695997, Control_c, 0, 64, 65
1, 696012, Control_c, 0, 64, 66
1, 696022, Note_off_c, 0, 68, 61
1, 696026, Control_c, 0, 64, 67
1, 696034, Note_off_c, 0, 61, 63
1, 696041, Control_c, 0, 64, 67
1, 696056, Control_c, 0, 67, 115
1, 696070, Note_on_c, 0, 60, 78
1, 696071, Control_c, 0, 64, 67
1, 696071, Control_c, 0, 67, 51
1, 696085, Note_on_c, 0, 53, 84
1, 696085, Control_c, 0, 64, 60
1, 696085, Control_c, 0, 67, 0
1, 696100, Control_c, 0, 64, 34
1, 696115, Control_c, 0, 64, 0
1, 696122, Note_off_c, 0, 60, 66
1, 696133, Note_off_c, 0, 53, 62
1, 696172, Note_on_c, 0, 63, 65
1, 696183, Note_on_c, 0, 56, 87
1, 696190, Note_off_c, 0, 63, 64
1, 696228, Note_off_c, 0, 56, 64
1, 696289, Note_on_c, 0, 60, 94
1, 696324, Note_off_c, 0, 60, 71
1, 696390, Note_on_c, 0, 64, 99
1, 696488, Note_on_c, 0, 74, 77
1, 696496, Note_on_c, 0, 71, 65
1, 696524, Note_off_c, 0, 71, 66
1, 696539, Note_off_c, 0, 74, 64
1, 696598, Note_on_c, 0, 76, 80
1, 696601, Note_on_c, 0, 79, 69
1, 696619, Note_off_c, 0, 64, 65
1, 696637, Note_off_c, 0, 76, 62
1, 696640, Note_off_c, 0, 79, 64
1, 696699, Note_on_c, 0, 67, 103
1, 696709, Note_on_c, 0, 74, 92
1, 696710, Note_on_c, 0, 71, 77
1, 696738, Note_off_c, 0, 71, 61
1, 696751, Note_off_c, 0, 74, 65
1, 696774, Control_c, 0, 64, 46
1, 696789, Control_c, 0, 64, 60
1, 696804, Control_c, 0, 64, 62
1, 696816, Note_on_c, 0, 77, 80
1, 696819, Control_c, 0, 64, 63
1, 696819, Note_on_c, 0, 80, 76
1, 696831, Note_off_c, 0, 67, 62
1, 696834, Control_c, 0, 64, 64
1, 696849, Control_c, 0, 64, 65
1, 696863, Control_c, 0, 64, 66
1, 696868, Note_off_c, 0, 77, 64
1, 696890, Note_off_c, 0, 80, 58
1, 696908, Control_c, 0, 64, 65
1, 696923, Control_c, 0, 64, 58
1, 696923, Note_on_c, 0, 68, 83
1, 696926, Note_on_c, 0, 75, 77
1, 696933, Note_on_c, 0, 72, 63
1, 696938, Control_c, 0, 64, 35
1, 696951, Note_off_c, 0, 75, 69
1, 696951, Note_off_c, 0, 72, 64
1, 696953, Control_c, 0, 64, 0
1, 696960, Note_off_c, 0, 68, 62
1, 697034, Note_on_c, 0, 65, 76
1, 697070, Note_off_c, 0, 65, 64
1, 697132, Note_on_c, 0, 60, 77
1, 697166, Note_off_c, 0, 60, 65
1, 697230, Note_on_c, 0, 64, 91
1, 697273, Note_off_c, 0, 64, 65
1, 697317, Note_on_c, 0, 71, 75
1, 697335, Note_on_c, 0, 59, 73
1, 697348, Note_off_c, 0, 71, 58
1, 697376, Note_off_c, 0, 59, 63
1, 697417, Poly_aftertouch_c, 0, 67, 0
1, 697433, Note_on_c, 0, 56, 71
1, 697440, Note_on_c, 0, 72, 66
1, 697450, Note_on_c, 0, 76, 51
1, 697466, Note_off_c, 0, 72, 67
1, 697467, Note_off_c, 0, 56, 64
1, 697474, Note_off_c, 0, 76, 61
1, 697530, Note_on_c, 0, 53, 75
1, 697540, Note_on_c, 0, 71, 76
1, 697549, Note_on_c, 0, 67, 50
1, 697566, Note_off_c, 0, 71, 66
1, 697573, Note_off_c, 0, 67, 60
1, 697652, Note_on_c, 0, 77, 69
1, 697653, Note_on_c, 0, 73, 71
1, 697657, Control_c, 0, 64, 30
1, 697659, Note_off_c, 0, 53, 62
1, 697672, Control_c, 0, 64, 42
1, 697681, Note_off_c, 0, 77, 64
1, 697681, Note_off_c, 0, 73, 65
1, 697687, Control_c, 0, 64, 49
1, 697702, Control_c, 0, 64, 53
1, 697716, Control_c, 0, 64, 56
1, 697731, Control_c, 0, 64, 57
1, 697754, Note_on_c, 0, 68, 57
1, 697755, Note_on_c, 0, 60, 67
1, 697758, Note_on_c, 0, 72, 62
1, 697784, Note_off_c, 0, 68, 63
1, 697784, Control_c, 0, 64, 56
1, 697787, Note_off_c, 0, 72, 64
1, 697798, Control_c, 0, 64, 52
1, 697799, Note_off_c, 0, 60, 59
1, 697813, Control_c, 0, 64, 41
1, 697813, Control_c, 0, 67, 60
1, 697828, Control_c, 0, 64, 0
1, 697828, Control_c, 0, 67, 89
1, 697843, Control_c, 0, 67, 116
1, 697857, Control_c, 0, 67, 127
1, 697871, Note_on_c, 0, 61, 62
1, 697926, Note_off_c, 0, 61, 61
1, 697981, Note_on_c, 0, 63, 63
1, 698014, Note_off_c, 0, 63, 63
1, 698089, Note_on_c, 0, 55, 59
1, 698194, Note_on_c, 0, 65, 57
1, 698226, Note_off_c, 0, 65, 65
1, 698314, Note_on_c, 0, 60, 45
1, 698340, Note_off_c, 0, 60, 54
1, 698415, Note_on_c, 0, 68, 57
1, 698548, Note_on_c, 0, 73, 50
1, 698571, Note_off_c, 0, 68, 48
1, 698592, Note_off_c, 0, 73, 59
1, 698654, Note_on_c, 0, 51, 58
1, 698657, Note_on_c, 0, 67, 56
1, 698666, Note_off_c, 0, 55, 60
1, 698743, Note_off_c, 0, 51, 0
1, 698765, Note_on_c, 0, 73, 54
1, 698771, Note_on_c, 0, 51, 26
1, 698812, Note_off_c, 0, 73, 56
1, 698867, Note_on_c, 0, 82, 65
1, 698899, Note_off_c, 0, 67, 0
1, 698914, Note_off_c, 0, 82, 61
1, 698936, Poly_aftertouch_c, 0, 67, 127
1, 698971, Note_on_c, 0, 53, 69
1, 698985, Note_off_c, 0, 51, 50
1, 699007, Poly_aftertouch_c, 0, 67, 0
1, 699075, Note_on_c, 0, 63, 70
1, 699123, Note_off_c, 0, 63, 57
1, 699154, Control_c, 0, 67, 117
1, 699169, Control_c, 0, 67, 107
1, 699184, Control_c, 0, 67, 96
1, 699191, Note_on_c, 0, 58, 70
1, 699200, Control_c, 0, 67, 84
1, 699214, Control_c, 0, 67, 71
1, 699221, Note_off_c, 0, 58, 64
1, 699229, Control_c, 0, 67, 58
1, 699244, Control_c, 0, 67, 45
1, 699259, Control_c, 0, 67, 0
1, 699292, Note_on_c, 0, 67, 77
1, 699418, Note_on_c, 0, 72, 62
1, 699478, Note_off_c, 0, 67, 60
1, 699490, Note_off_c, 0, 72, 60
1, 699518, Note_on_c, 0, 49, 79
1, 699521, Note_off_c, 0, 53, 63
1, 699524, Note_on_c, 0, 65, 75
1, 699623, Note_on_c, 0, 72, 63
1, 699669, Note_off_c, 0, 72, 63
1, 699723, Note_on_c, 0, 80, 74
1, 699752, Note_off_c, 0, 80, 61
1, 699821, Note_on_c, 0, 51, 85
1, 699821, Note_off_c, 0, 65, 56
1, 699838, Note_off_c, 0, 49, 62
1, 699931, Note_on_c, 0, 61, 78
1, 699962, Note_off_c, 0, 61, 64
1, 700048, Note_on_c, 0, 56, 98
1, 700157, Note_on_c, 0, 72, 81
1, 700223, Note_off_c, 0, 72, 62
1, 700265, Note_on_c, 0, 65, 77
1, 700325, Note_off_c, 0, 65, 62
1, 700363, Note_on_c, 0, 63, 81
1, 700363, Note_off_c, 0, 56, 61
1, 700366, Note_on_c, 0, 55, 82
1, 700375, Note_off_c, 0, 51, 61
1, 700408, Note_off_c, 0, 63, 59
1, 700430, Note_off_c, 0, 55, 62
1, 700474, Note_on_c, 0, 49, 82
1, 700575, Note_on_c, 0, 60, 78
1, 700598, Note_off_c, 0, 60, 70
1, 700688, Note_on_c, 0, 55, 94
1, 700796, Note_on_c, 0, 71, 82
1, 700901, Note_off_c, 0, 71, 57
1, 700914, Note_on_c, 0, 63, 87
1, 700979, Note_off_c, 0, 63, 63
1, 700982, Note_off_c, 0, 55, 53
1, 701006, Note_off_c, 0, 49, 62
1, 701010, Note_on_c, 0, 61, 78
1, 701011, Note_on_c, 0, 53, 78
1, 701016, Control_c, 0, 64, 39
1, 701031, Control_c, 0, 64, 49
1, 701037, Note_off_c, 0, 61, 67
1, 701046, Control_c, 0, 64, 51
1, 701061, Control_c, 0, 64, 49
1, 701075, Control_c, 0, 64, 44
1, 701080, Note_off_c, 0, 53, 64
1, 701090, Control_c, 0, 64, 30
1, 701105, Control_c, 0, 64, 0
1, 701123, Note_on_c, 0, 60, 97
1, 701178, Note_off_c, 0, 60, 65
1, 701212, Note_on_c, 0, 72, 80
1, 701223, Note_on_c, 0, 55, 82
1, 701243, Note_off_c, 0, 72, 60
1, 701269, Note_off_c, 0, 55, 62
1, 701313, Note_on_c, 0, 51, 72
1, 701321, Note_on_c, 0, 75, 76
1, 701341, Note_off_c, 0, 75, 71
1, 701388, Note_off_c, 0, 51, 54
1, 701410, Note_on_c, 0, 48, 72
1, 701415, Note_on_c, 0, 79, 80
1, 701439, Note_off_c, 0, 79, 64
1, 701440, Note_off_c, 0, 48, 65
1, 701536, Note_on_c, 0, 83, 95
1, 701633, Note_on_c, 0, 60, 76
1, 701666, Note_off_c, 0, 60, 65
1, 701740, Note_on_c, 0, 63, 83
1, 701782, Note_off_c, 0, 63, 60
1, 701785, Note_off_c, 0, 83, 64
1, 701843, Note_on_c, 0, 67, 95
1, 701847, Note_on_c, 0, 86, 94
1, 701883, Note_off_c, 0, 67, 66
1, 701953, Note_on_c, 0, 71, 104
1, 701976, Note_off_c, 0, 86, 67
1, 702047, Note_on_c, 0, 87, 84
1, 702095, Note_off_c, 0, 87, 63
1, 702154, Note_on_c, 0, 84, 91
1, 702175, Note_off_c, 0, 71, 64
1, 702194, Note_off_c, 0, 84, 64
1, 702252, Note_on_c, 0, 74, 107
1, 702267, Note_on_c, 0, 79, 86
1, 702290, Control_c, 0, 64, 44
1, 702305, Control_c, 0, 64, 54
1, 702311, Note_off_c, 0, 79, 67
1, 702320, Control_c, 0, 64, 57
1, 702335, Control_c, 0, 64, 59
1, 702349, Control_c, 0, 64, 60
1, 702364, Control_c, 0, 64, 61
1, 702371, Note_on_c, 0, 83, 91
1, 702381, Note_off_c, 0, 74, 63
1, 702410, Control_c, 0, 64, 60
1, 702425, Note_off_c, 0, 83, 64
1, 702425, Control_c, 0, 64, 55
1, 702439, Control_c, 0, 64, 40
1, 702454, Control_c, 0, 64, 0
1, 702454, Control_c, 0, 67, 44
1, 702469, Control_c, 0, 67, 62
1, 702473, Note_on_c, 0, 75, 87
1, 702479, Note_on_c, 0, 78, 89
1, 702484, Control_c, 0, 67, 71
1, 702499, Control_c, 0, 67, 75
1, 702503, Note_off_c, 0, 75, 65
1, 702513, Control_c, 0, 67, 76
1, 702525, Note_off_c, 0, 78, 60
1, 702543, Control_c, 0, 67, 75
1, 702558, Control_c, 0, 67, 72
1, 702570, Note_on_c, 0, 72, 75
1, 702572, Control_c, 0, 67, 70
1, 702579, Note_on_c, 0, 75, 87
1, 702587, Control_c, 0, 67, 68
1, 702602, Control_c, 0, 67, 66
1, 702615, Note_off_c, 0, 72, 63
1, 702617, Control_c, 0, 67, 63
1, 702630, Note_off_c, 0, 75, 65
1, 702632, Control_c, 0, 67, 61
1, 702646, Control_c, 0, 67, 58
1, 702661, Control_c, 0, 67, 57
1, 702676, Control_c, 0, 67, 56
1, 702680, Note_on_c, 0, 72, 81
1, 702681, Note_on_c, 0, 67, 68
1, 702691, Control_c, 0, 67, 55
1, 702707, Note_off_c, 0, 67, 69
1, 702721, Control_c, 0, 67, 56
1, 702736, Control_c, 0, 67, 61
1, 702751, Control_c, 0, 67, 66
1, 702765, Control_c, 0, 67, 72
1, 702776, Note_on_c, 0, 71, 90
1, 702780, Control_c, 0, 67, 76
1, 702795, Control_c, 0, 67, 79
1, 702810, Control_c, 0, 67, 85
1, 702823, Note_off_c, 0, 71, 62
1, 702825, Control_c, 0, 67, 98
1, 702828, Note_off_c, 0, 72, 59
1, 702839, Control_c, 0, 67, 112
1, 702854, Control_c, 0, 67, 124
1, 702869, Control_c, 0, 67, 127
1, 702877, Note_on_c, 0, 78, 80
1, 702881, Note_on_c, 0, 66, 81
1, 702938, Note_off_c, 0, 78, 62
1, 702939, Note_off_c, 0, 66, 65
1, 702983, Note_on_c, 0, 63, 62
1, 702987, Note_on_c, 0, 79, 81
1, 703050, Note_off_c, 0, 79, 64
1, 703075, Note_off_c, 0, 63, 61
1, 703091, Note_on_c, 0, 60, 62
1, 703092, Note_on_c, 0, 80, 82
1, 703134, Note_off_c, 0, 80, 64
1, 703188, Control_c, 0, 64, 32
1, 703204, Control_c, 0, 64, 42
1, 703209, Note_on_c, 0, 82, 84
1, 703219, Control_c, 0, 64, 48
1, 703234, Control_c, 0, 64, 50
1, 703269, Note_off_c, 0, 82, 60
1, 703293, Control_c, 0, 64, 50
1, 703302, Note_off_c, 0, 60, 58
1, 703308, Note_on_c, 0, 61, 58
1, 703308, Control_c, 0, 64, 49
1, 703315, Note_on_c, 0, 72, 72
1, 703323, Control_c, 0, 64, 49
1, 703352, Control_c, 0, 64, 48
1, 703362, Note_off_c, 0, 72, 58
1, 703389, Note_off_c, 0, 61, 58
1, 703418, Note_on_c, 0, 68, 68
1, 703418, Note_on_c, 0, 77, 69
1, 703441, Control_c, 0, 64, 48
1, 703445, Note_off_c, 0, 77, 65
1, 703456, Control_c, 0, 64, 46
1, 703470, Control_c, 0, 64, 42
1, 703485, Control_c, 0, 64, 35
1, 703500, Control_c, 0, 64, 29
1, 703503, Note_off_c, 0, 68, 50
1, 703515, Control_c, 0, 64, 0
1, 703519, Note_on_c, 0, 85, 83
1, 703523, Note_on_c, 0, 60, 59
1, 703544, Control_c, 0, 64, 29
1, 703559, Control_c, 0, 64, 31
1, 703574, Control_c, 0, 64, 36
1, 703588, Control_c, 0, 64, 42
1, 703603, Control_c, 0, 64, 50
1, 703607, Note_off_c, 0, 60, 61
1, 703618, Control_c, 0, 64, 52
1, 703633, Control_c, 0, 64, 53
1, 703638, Note_on_c, 0, 65, 64
1, 703704, Note_off_c, 0, 65, 52
1, 703717, Note_off_c, 0, 85, 60
1, 703728, Note_on_c, 0, 58, 57
1, 703748, Note_on_c, 0, 75, 61
1, 703752, Control_c, 0, 64, 52
1, 703788, Note_off_c, 0, 75, 63
1, 703803, Control_c, 0, 64, 52
1, 703818, Control_c, 0, 64, 51
1, 703833, Control_c, 0, 64, 50
1, 703848, Control_c, 0, 64, 50
1, 703862, Note_on_c, 0, 84, 44
1, 703863, Control_c, 0, 64, 49
1, 703877, Control_c, 0, 64, 48
1, 703892, Control_c, 0, 64, 47
1, 703907, Note_off_c, 0, 84, 56
1, 703907, Control_c, 0, 64, 46
1, 703922, Control_c, 0, 64, 45
1, 703937, Control_c, 0, 64, 43
1, 703950, Note_on_c, 0, 79, 73
1, 703952, Control_c, 0, 64, 42
1, 703967, Control_c, 0, 64, 41
1, 703982, Control_c, 0, 64, 40
1, 703997, Note_off_c, 0, 79, 61
1, 703997, Control_c, 0, 64, 39
1, 704012, Control_c, 0, 64, 38
1, 704027, Control_c, 0, 64, 37
1, 704041, Control_c, 0, 64, 37
1, 704061, Note_on_c, 0, 80, 83
1, 704071, Control_c, 0, 64, 36
1, 704086, Control_c, 0, 64, 36
1, 704101, Control_c, 0, 64, 35
1, 704108, Note_off_c, 0, 80, 63
1, 704116, Control_c, 0, 64, 34
1, 704128, Note_off_c, 0, 58, 61
1, 704131, Control_c, 0, 64, 34
1, 704146, Control_c, 0, 64, 33
1, 704149, Note_on_c, 0, 60, 55
1, 704170, Note_on_c, 0, 70, 60
1, 704175, Control_c, 0, 64, 32
1, 704205, Control_c, 0, 64, 32
1, 704207, Note_off_c, 0, 70, 59
1, 704218, Note_off_c, 0, 60, 60
1, 704256, Note_on_c, 0, 67, 53
1, 704265, Note_on_c, 0, 75, 72
1, 704293, Note_off_c, 0, 75, 64
1, 704304, Note_off_c, 0, 67, 53
1, 704308, Control_c, 0, 64, 30
1, 704323, Control_c, 0, 64, 0
1, 704360, Note_on_c, 0, 58, 63
1, 704369, Note_on_c, 0, 84, 93
1, 704426, Control_c, 0, 64, 43
1, 704430, Note_off_c, 0, 58, 62
1, 704441, Control_c, 0, 64, 55
1, 704456, Control_c, 0, 64, 61
1, 704471, Control_c, 0, 64, 61
1, 704478, Note_on_c, 0, 63, 58
1, 704551, Note_off_c, 0, 84, 63
1, 704552, Note_off_c, 0, 63, 63
1, 704592, Note_on_c, 0, 56, 53
1, 704597, Control_c, 0, 64, 61
1, 704619, Note_on_c, 0, 73, 51
1, 704626, Control_c, 0, 64, 60
1, 704641, Control_c, 0, 64, 60
1, 704646, Note_off_c, 0, 73, 57
1, 704656, Control_c, 0, 64, 59
1, 704671, Control_c, 0, 64, 57
1, 704685, Control_c, 0, 64, 54
1, 704697, Note_on_c, 0, 82, 71
1, 704699, Control_c, 0, 64, 48
1, 704714, Control_c, 0, 64, 38
1, 704729, Control_c, 0, 64, 0
1, 704763, Note_off_c, 0, 82, 57
1, 704788, Note_on_c, 0, 77, 71
1, 704843, Note_off_c, 0, 77, 63
1, 704899, Note_on_c, 0, 79, 78
1, 704935, Note_off_c, 0, 79, 68
1, 704983, Note_on_c, 0, 65, 56
1, 704995, Note_on_c, 0, 68, 68
1, 705021, Note_off_c, 0, 56, 53
1, 705021, Note_off_c, 0, 68, 66
1, 705040, Note_off_c, 0, 65, 54
1, 705097, Note_on_c, 0, 73, 71
1, 705102, Note_on_c, 0, 58, 46
1, 705131, Note_off_c, 0, 73, 59
1, 705153, Note_off_c, 0, 58, 59
1, 705198, Note_on_c, 0, 65, 50
1, 705201, Note_on_c, 0, 82, 82
1, 705204, Control_c, 0, 64, 32
1, 705219, Control_c, 0, 64, 46
1, 705232, Note_off_c, 0, 65, 60
1, 705233, Control_c, 0, 64, 52
1, 705248, Note_off_c, 0, 82, 61
1, 705248, Control_c, 0, 64, 53
1, 705270, Control_c, 0, 64, 54
1, 705285, Control_c, 0, 64, 55
1, 705312, Note_on_c, 0, 72, 77
1, 705314, Control_c, 0, 64, 55
1, 705317, Note_on_c, 0, 61, 57
1, 705335, Note_off_c, 0, 72, 66
1, 705344, Control_c, 0, 64, 54
1, 705359, Control_c, 0, 64, 49
1, 705374, Control_c, 0, 64, 31
1, 705375, Note_off_c, 0, 61, 55
1, 705389, Control_c, 0, 64, 0
1, 705418, Note_on_c, 0, 80, 78
1, 705425, Note_on_c, 0, 55, 64
1, 705472, Note_off_c, 0, 80, 65
1, 705478, Control_c, 0, 64, 31
1, 705493, Control_c, 0, 64, 47
1, 705507, Control_c, 0, 64, 55
1, 705508, Note_off_c, 0, 55, 63
1, 705522, Control_c, 0, 64, 58
1, 705526, Note_on_c, 0, 77, 78
1, 705537, Control_c, 0, 64, 59
1, 705552, Control_c, 0, 64, 60
1, 705571, Note_off_c, 0, 77, 62
1, 705582, Control_c, 0, 64, 60
1, 705597, Control_c, 0, 64, 61
1, 705612, Control_c, 0, 64, 61
1, 705623, Note_on_c, 0, 67, 71
1, 705642, Control_c, 0, 64, 62
1, 705656, Note_off_c, 0, 67, 61
1, 705723, Note_on_c, 0, 72, 73
1, 705745, Control_c, 0, 64, 61
1, 705747, Note_off_c, 0, 72, 65
1, 705760, Control_c, 0, 64, 54
1, 705775, Control_c, 0, 64, 36
1, 705789, Control_c, 0, 64, 0
1, 705810, Note_on_c, 0, 44, 54
1, 705830, Note_on_c, 0, 80, 72
1, 705851, Note_off_c, 0, 44, 63
1, 705862, Note_off_c, 0, 80, 56
1, 705929, Note_on_c, 0, 58, 52
1, 705934, Note_on_c, 0, 70, 63
1, 705959, Note_off_c, 0, 58, 63
1, 705961, Note_off_c, 0, 70, 66
1, 706034, Note_on_c, 0, 79, 67
1, 706038, Note_on_c, 0, 48, 66
1, 706068, Note_off_c, 0, 48, 65
1, 706072, Note_off_c, 0, 79, 63
1, 706143, Note_on_c, 0, 77, 71
1, 706157, Note_on_c, 0, 61, 63
1, 706167, Note_off_c, 0, 77, 66
1, 706187, Note_off_c, 0, 61, 63
1, 706247, Note_on_c, 0, 49, 67
1, 706253, Note_on_c, 0, 72, 66
1, 706280, Note_off_c, 0, 72, 64
1, 706287, Note_off_c, 0, 49, 60
1, 706315, Control_c, 0, 67, 112
1, 706330, Control_c, 0, 67, 87
1, 706345, Control_c, 0, 67, 66
1, 706346, Note_on_c, 0, 53, 76
1, 706360, Control_c, 0, 67, 45
1, 706362, Note_on_c, 0, 68, 63
1, 706375, Control_c, 0, 67, 0
1, 706383, Note_off_c, 0, 53, 64
1, 706399, Note_off_c, 0, 68, 56
1, 706439, Note_on_c, 0, 56, 88
1, 706459, Note_on_c, 0, 65, 52
1, 706485, Note_off_c, 0, 56, 62
1, 706495, Note_off_c, 0, 65, 61
1, 706551, Note_on_c, 0, 60, 93
1, 706670, Note_on_c, 0, 69, 64
1, 706757, Note_off_c, 0, 69, 37
1, 706774, Note_on_c, 0, 68, 62
1, 706809, Note_off_c, 0, 60, 60
1, 706834, Note_off_c, 0, 68, 57
1, 706858, Note_on_c, 0, 64, 92
1, 706881, Note_on_c, 0, 69, 60
1, 706901, Control_c, 0, 64, 30
1, 706916, Control_c, 0, 64, 47
1, 706930, Control_c, 0, 64, 56
1, 706945, Control_c, 0, 64, 60
1, 706960, Control_c, 0, 64, 61
1, 706964, Note_off_c, 0, 69, 51
1, 706975, Control_c, 0, 64, 63
1, 706984, Note_off_c, 0, 64, 63
1, 706987, Note_on_c, 0, 65, 59
1, 706990, Control_c, 0, 64, 63
1, 707004, Control_c, 0, 64, 64
1, 707019, Note_off_c, 0, 65, 64
1, 707019, Control_c, 0, 64, 64
1, 707034, Control_c, 0, 64, 65
1, 707064, Control_c, 0, 64, 64
1, 707075, Note_on_c, 0, 65, 78
1, 707076, Note_on_c, 0, 68, 60
1, 707079, Control_c, 0, 64, 60
1, 707094, Control_c, 0, 64, 47
1, 707109, Control_c, 0, 64, 0
1, 707112, Note_off_c, 0, 65, 64
1, 707180, Note_on_c, 0, 61, 75
1, 707230, Note_off_c, 0, 61, 59
1, 707279, Note_on_c, 0, 56, 76
1, 707309, Note_off_c, 0, 56, 65
1, 707377, Note_on_c, 0, 60, 79
1, 707420, Note_off_c, 0, 60, 63
1, 707481, Note_on_c, 0, 57, 74
1, 707483, Note_off_c, 0, 68, 60
1, 707495, Note_on_c, 0, 69, 59
1, 707530, Note_off_c, 0, 57, 63
1, 707554, Note_off_c, 0, 69, 52
1, 707594, Note_on_c, 0, 53, 76
1, 707614, Note_on_c, 0, 68, 60
1, 707620, Note_off_c, 0, 53, 66
1, 707655, Note_off_c, 0, 68, 59
1, 707701, Note_on_c, 0, 49, 77
1, 707726, Note_on_c, 0, 69, 57
1, 707739, Control_c, 0, 64, 45
1, 707753, Control_c, 0, 64, 55
1, 707765, Note_off_c, 0, 69, 62
1, 707768, Control_c, 0, 64, 59
1, 707783, Control_c, 0, 64, 62
1, 707798, Control_c, 0, 64, 63
1, 707812, Note_on_c, 0, 65, 69
1, 707813, Control_c, 0, 64, 64
1, 707827, Control_c, 0, 64, 64
1, 707842, Control_c, 0, 64, 65
1, 707843, Note_off_c, 0, 49, 63
1, 707871, Note_off_c, 0, 65, 54
1, 707872, Control_c, 0, 64, 64
1, 707887, Control_c, 0, 64, 55
1, 707900, Note_on_c, 0, 48, 93
1, 707902, Control_c, 0, 64, 0
1, 707905, Note_on_c, 0, 68, 75
1, 707907, Note_on_c, 0, 72, 75
1, 707954, Note_off_c, 0, 48, 64
1, 707976, Note_off_c, 0, 72, 60
1, 707990, Note_off_c, 0, 68, 57
1, 708003, Note_on_c, 0, 53, 87
1, 708005, Note_on_c, 0, 73, 80
1, 708060, Note_off_c, 0, 53, 62
1, 708064, Note_off_c, 0, 73, 61
1, 708095, Note_on_c, 0, 56, 95
1, 708101, Note_on_c, 0, 72, 82
1, 708134, Note_off_c, 0, 56, 67
1, 708174, Note_off_c, 0, 72, 61
1, 708206, Note_on_c, 0, 61, 104
1, 708212, Note_on_c, 0, 76, 85
1, 708265, Control_c, 0, 64, 48
1, 708280, Control_c, 0, 64, 55
1, 708295, Control_c, 0, 64, 56
1, 708299, Note_off_c, 0, 76, 62
1, 708310, Control_c, 0, 64, 58
1, 708322, Note_on_c, 0, 72, 65
1, 708325, Note_on_c, 0, 69, 70
1, 708325, Control_c, 0, 64, 61
1, 708340, Control_c, 0, 64, 64
1, 708355, Control_c, 0, 64, 67
1, 708370, Control_c, 0, 64, 70
1, 708384, Control_c, 0, 64, 73
1, 708399, Control_c, 0, 64, 75
1, 708410, Note_off_c, 0, 61, 62
1, 708414, Control_c, 0, 64, 76
1, 708426, Note_on_c, 0, 68, 82
1, 708429, Control_c, 0, 64, 76
1, 708439, Note_off_c, 0, 69, 56
1, 708444, Control_c, 0, 64, 74
1, 708458, Control_c, 0, 64, 64
1, 708473, Control_c, 0, 64, 32
1, 708477, Note_off_c, 0, 68, 62
1, 708488, Control_c, 0, 64, 0
1, 708518, Note_on_c, 0, 64, 103
1, 708532, Control_c, 0, 64, 47
1, 708533, Note_on_c, 0, 69, 83
1, 708547, Control_c, 0, 64, 63
1, 708562, Control_c, 0, 64, 68
1, 708577, Control_c, 0, 64, 72
1, 708591, Control_c, 0, 64, 75
1, 708606, Control_c, 0, 64, 78
1, 708611, Note_off_c, 0, 69, 60
1, 708621, Control_c, 0, 64, 80
1, 708632, Note_off_c, 0, 64, 57
1, 708636, Control_c, 0, 64, 83
1, 708640, Note_on_c, 0, 65, 76
1, 708651, Control_c, 0, 64, 85
1, 708653, Note_off_c, 0, 72, 50
1, 708665, Control_c, 0, 64, 86
1, 708677, Note_off_c, 0, 65, 56
1, 708695, Control_c, 0, 64, 80
1, 708710, Control_c, 0, 64, 59
1, 708715, Note_on_c, 0, 65, 86
1, 708724, Control_c, 0, 64, 0
1, 708730, Note_on_c, 0, 68, 82
1, 708731, Note_on_c, 0, 72, 80
1, 708764, Note_off_c, 0, 65, 66
1, 708780, Note_off_c, 0, 68, 55
1, 708816, Note_on_c, 0, 60, 87
1, 708829, Note_on_c, 0, 73, 81
1, 708833, Note_off_c, 0, 72, 61
1, 708870, Note_off_c, 0, 60, 66
1, 708888, Note_off_c, 0, 73, 62
1, 708909, Note_on_c, 0, 57, 86
1, 708927, Note_on_c, 0, 72, 81
1, 708945, Note_off_c, 0, 57, 63
1, 709022, Note_on_c, 0, 61, 95
1, 709034, Note_on_c, 0, 76, 84
1, 709052, Note_off_c, 0, 72, 49
1, 709070, Note_off_c, 0, 61, 67
1, 709101, Note_off_c, 0, 76, 59
1, 709128, Note_on_c, 0, 56, 79
1, 709136, Note_on_c, 0, 72, 69
1, 709137, Note_on_c, 0, 69, 69
1, 709166, Note_off_c, 0, 56, 60
1, 709195, Note_off_c, 0, 69, 58
1, 709231, Note_on_c, 0, 53, 77
1, 709237, Note_on_c, 0, 68, 75
1, 709255, Note_off_c, 0, 53, 67
1, 709270, Note_off_c, 0, 68, 62
1, 709309, Note_off_c, 0, 72, 0
1, 709323, Note_on_c, 0, 48, 103
1, 709328, Note_on_c, 0, 69, 82
1, 709340, Control_c, 0, 64, 32
1, 709346, Poly_aftertouch_c, 0, 72, 127
1, 709355, Control_c, 0, 64, 52
1, 709370, Control_c, 0, 64, 57
1, 709385, Control_c, 0, 64, 58
1, 709399, Control_c, 0, 64, 59
1, 709414, Control_c, 0, 64, 61
1, 709428, Note_off_c, 0, 69, 61
1, 709429, Control_c, 0, 64, 62
1, 709437, Note_on_c, 0, 65, 80
1, 709444, Control_c, 0, 64, 63
1, 709446, Note_off_c, 0, 48, 63
1, 709459, Control_c, 0, 64, 63
1, 709467, Poly_aftertouch_c, 0, 72, 0
1, 709488, Control_c, 0, 64, 61
1, 709494, Note_off_c, 0, 65, 63
1, 709503, Control_c, 0, 64, 50
1, 709518, Control_c, 0, 64, 0
1, 709524, Note_on_c, 0, 47, 90
1, 709534, Note_on_c, 0, 68, 81
1, 709538, Note_on_c, 0, 72, 83
1, 709586, Note_off_c, 0, 47, 62
1, 709604, Note_off_c, 0, 68, 60
1, 709627, Note_on_c, 0, 53, 86
1, 709635, Note_on_c, 0, 73, 85
1, 709643, Note_off_c, 0, 72, 58
1, 709697, Note_off_c, 0, 53, 61
1, 709714, Note_off_c, 0, 73, 60
1, 709720, Note_on_c, 0, 56, 91
1, 709726, Note_on_c, 0, 72, 83
1, 709772, Note_off_c, 0, 56, 65
1, 709811, Note_off_c, 0, 72, 51
1, 709833, Note_on_c, 0, 60, 99
1, 709844, Note_on_c, 0, 76, 85
1, 709852, Control_c, 0, 64, 53
1, 709867, Control_c, 0, 64, 61
1, 709882, Control_c, 0, 64, 61
1, 709911, Control_c, 0, 64, 62
1, 709923, Note_off_c, 0, 76, 64
1, 709926, Control_c, 0, 64, 64
1, 709937, Note_on_c, 0, 72, 63
1, 709942, Control_c, 0, 64, 65
1, 709947, Note_on_c, 0, 69, 70
1, 709956, Control_c, 0, 64, 66
1, 709971, Control_c, 0, 64, 68
1, 709979, Poly_aftertouch_c, 0, 73, 0
1, 709986, Control_c, 0, 64, 69
1, 710001, Control_c, 0, 64, 70
1, 710016, Control_c, 0, 64, 70
1, 710031, Note_on_c, 0, 68, 86
1, 710038, Note_off_c, 0, 60, 62
1, 710044, Note_off_c, 0, 69, 58
1, 710045, Control_c, 0, 64, 69
1, 710060, Control_c, 0, 64, 61
1, 710075, Control_c, 0, 64, 0
1, 710081, Note_off_c, 0, 68, 63
1, 710123, Note_on_c, 0, 64, 99
1, 710134, Note_on_c, 0, 69, 84
1, 710164, Control_c, 0, 64, 45
1, 710179, Control_c, 0, 64, 66
1, 710194, Control_c, 0, 64, 67
1, 710209, Control_c, 0, 64, 68
1, 710212, Note_off_c, 0, 69, 60
1, 710228, Note_on_c, 0, 65, 84
1, 710238, Control_c, 0, 64, 69
1, 710248, Note_off_c, 0, 64, 64
1, 710253, Note_off_c, 0, 72, 61
1, 710253, Control_c, 0, 64, 69
1, 710268, Control_c, 0, 64, 70
1, 710279, Note_off_c, 0, 65, 61
1, 710297, Control_c, 0, 64, 69
1, 710312, Control_c, 0, 64, 63
1, 710313, Note_on_c, 0, 65, 83
1, 710327, Control_c, 0, 64, 43
1, 710334, Note_on_c, 0, 72, 75
1, 710341, Note_on_c, 0, 68, 77
1, 710342, Control_c, 0, 64, 0
1, 710366, Note_off_c, 0, 65, 65
1, 710375, Note_off_c, 0, 68, 59
1, 710423, Note_on_c, 0, 61, 77
1, 710428, Note_on_c, 0, 73, 85
1, 710428, Note_off_c, 0, 72, 37
1, 710489, Note_off_c, 0, 73, 62
1, 710501, Note_off_c, 0, 61, 63
1, 710526, Note_on_c, 0, 56, 77
1, 710537, Note_on_c, 0, 72, 90
1, 710566, Note_off_c, 0, 56, 62
1, 710579, Note_off_c, 0, 72, 64
1, 710632, Control_c, 0, 64, 61
1, 710636, Note_on_c, 0, 60, 95
1, 710641, Note_on_c, 0, 76, 101
1, 710647, Control_c, 0, 64, 66
1, 710687, Note_off_c, 0, 60, 66
1, 710687, Note_off_c, 0, 76, 63
1, 710743, Note_on_c, 0, 68, 91
1, 710751, Note_on_c, 0, 56, 95
1, 710765, Control_c, 0, 64, 65
1, 710779, Control_c, 0, 64, 62
1, 710794, Control_c, 0, 64, 50
1, 710799, Note_off_c, 0, 68, 65
1, 710802, Note_off_c, 0, 56, 65
1, 710809, Control_c, 0, 64, 28
1, 710824, Control_c, 0, 64, 0
1, 710850, Note_on_c, 0, 53, 88
1, 710853, Note_on_c, 0, 71, 94
1, 710906, Note_off_c, 0, 71, 65
1, 710910, Note_off_c, 0, 53, 63
1, 710957, Note_on_c, 0, 47, 95
1, 710960, Note_on_c, 0, 75, 100
1, 710987, Control_c, 0, 64, 37
1, 711001, Note_off_c, 0, 47, 64
1, 711002, Control_c, 0, 64, 48
1, 711013, Note_off_c, 0, 75, 65
1, 711017, Control_c, 0, 64, 56
1, 711032, Control_c, 0, 64, 59
1, 711061, Control_c, 0, 64, 58
1, 711076, Control_c, 0, 64, 53
1, 711085, Note_on_c, 0, 79, 106
1, 711091, Control_c, 0, 64, 41
1, 711105, Control_c, 0, 64, 0
1, 711177, Note_on_c, 0, 52, 95
1, 711225, Note_off_c, 0, 52, 63
1, 711288, Note_on_c, 0, 56, 95
1, 711333, Note_off_c, 0, 56, 65
1, 711333, Note_off_c, 0, 79, 66
1, 711385, Note_on_c, 0, 82, 95
1, 711386, Note_on_c, 0, 59, 98
1, 711421, Note_off_c, 0, 59, 68
1, 711491, Note_on_c, 0, 63, 106
1, 711522, Note_off_c, 0, 82, 61
1, 711592, Note_on_c, 0, 83, 90
1, 711640, Note_off_c, 0, 83, 64
1, 711667, Note_off_c, 0, 63, 64
1, 711699, Note_on_c, 0, 80, 97
1, 711745, Note_off_c, 0, 80, 63
1, 711790, Note_on_c, 0, 67, 103
1, 711800, Note_on_c, 0, 75, 99
1, 711824, Control_c, 0, 64, 48
1, 711839, Control_c, 0, 64, 65
1, 711840, Note_off_c, 0, 75, 68
1, 711854, Control_c, 0, 64, 66
1, 711868, Control_c, 0, 64, 68
1, 711883, Control_c, 0, 64, 70
1, 711898, Control_c, 0, 64, 73
1, 711913, Control_c, 0, 64, 76
1, 711914, Note_off_c, 0, 67, 66
1, 711916, Note_on_c, 0, 79, 84
1, 711927, Control_c, 0, 64, 77
1, 711942, Control_c, 0, 64, 77
1, 711968, Note_off_c, 0, 79, 64
1, 711973, Control_c, 0, 64, 77
1, 711988, Control_c, 0, 64, 72
1, 712010, Control_c, 0, 64, 59
1, 712014, Note_on_c, 0, 68, 90
1, 712020, Note_on_c, 0, 74, 96
1, 712024, Control_c, 0, 64, 0
1, 712059, Note_off_c, 0, 68, 65
1, 712071, Note_off_c, 0, 74, 65
1, 712126, Note_on_c, 0, 71, 91
1, 712130, Note_on_c, 0, 64, 77
1, 712170, Note_off_c, 0, 71, 63
1, 712183, Note_off_c, 0, 64, 63
1, 712224, Note_on_c, 0, 60, 80
1, 712227, Note_on_c, 0, 68, 77
1, 712253, Note_off_c, 0, 60, 64
1, 712328, Note_on_c, 0, 63, 95
1, 712336, Control_c, 0, 67, 43
1, 712350, Control_c, 0, 67, 55
1, 712365, Control_c, 0, 67, 61
1, 712369, Note_on_c, 0, 64, 45
1, 712373, Note_off_c, 0, 63, 64
1, 712380, Control_c, 0, 67, 62
1, 712393, Note_off_c, 0, 68, 59
1, 712397, Note_off_c, 0, 64, 57
1, 712408, Note_on_c, 0, 72, 64
1, 712424, Control_c, 0, 67, 62
1, 712437, Note_on_c, 0, 59, 53
1, 712468, Note_off_c, 0, 72, 58
1, 712469, Control_c, 0, 67, 62
1, 712498, Control_c, 0, 67, 63
1, 712504, Note_off_c, 0, 59, 59
1, 712524, Note_on_c, 0, 71, 68
1, 712528, Control_c, 0, 67, 64
1, 712532, Note_on_c, 0, 56, 64
1, 712543, Control_c, 0, 67, 68
1, 712558, Control_c, 0, 67, 77
1, 712573, Control_c, 0, 67, 112
1, 712576, Note_off_c, 0, 56, 60
1, 712588, Control_c, 0, 67, 127
1, 712593, Note_off_c, 0, 71, 53
1, 712630, Note_on_c, 0, 72, 70
1, 712635, Note_on_c, 0, 52, 75
1, 712662, Control_c, 0, 64, 38
1, 712676, Control_c, 0, 64, 55
1, 712691, Control_c, 0, 64, 60
1, 712693, Note_off_c, 0, 72, 62
1, 712706, Control_c, 0, 64, 61
1, 712721, Control_c, 0, 64, 62
1, 712736, Note_on_c, 0, 68, 73
1, 712736, Control_c, 0, 64, 63
1, 712758, Control_c, 0, 64, 64
1, 712765, Note_off_c, 0, 68, 70
1, 712773, Control_c, 0, 64, 65
1, 712788, Control_c, 0, 64, 67
1, 712802, Note_off_c, 0, 52, 53
1, 712803, Control_c, 0, 64, 67
1, 712818, Control_c, 0, 64, 68
1, 712833, Control_c, 0, 64, 68
1, 712843, Note_on_c, 0, 80, 80
1, 712850, Note_on_c, 0, 64, 74
1, 712854, Note_on_c, 0, 71, 71
1, 712877, Control_c, 0, 64, 68
1, 712892, Control_c, 0, 64, 63
1, 712906, Note_off_c, 0, 64, 60
1, 712907, Control_c, 0, 64, 47
1, 712908, Note_off_c, 0, 80, 61
1, 712922, Control_c, 0, 64, 0
1, 712947, Note_on_c, 0, 82, 79
1, 712954, Note_on_c, 0, 52, 56
1, 712965, Note_on_c, 0, 63, 65
1, 712996, Control_c, 0, 64, 38
1, 713011, Control_c, 0, 64, 54
1, 713012, Note_off_c, 0, 52, 62
1, 713020, Note_off_c, 0, 63, 64
1, 713026, Control_c, 0, 64, 64
1, 713041, Control_c, 0, 64, 67
1, 713053, Note_on_c, 0, 80, 79
1, 713056, Control_c, 0, 64, 69
1, 713057, Note_on_c, 0, 64, 76
1, 713084, Note_off_c, 0, 82, 59
1, 713097, Note_off_c, 0, 64, 65
1, 713100, Control_c, 0, 64, 67
1, 713115, Control_c, 0, 64, 60
1, 713121, Note_off_c, 0, 71, 54
1, 713127, Note_off_c, 0, 80, 63
1, 713130, Control_c, 0, 64, 42
1, 713145, Control_c, 0, 64, 0
1, 713147, Note_on_c, 0, 51, 72
1, 713157, Note_on_c, 0, 60, 58
1, 713160, Note_on_c, 0, 83, 85
1, 713174, Control_c, 0, 64, 33
1, 713189, Control_c, 0, 64, 46
1, 713204, Control_c, 0, 64, 58
1, 713219, Control_c, 0, 64, 61
1, 713234, Control_c, 0, 64, 62
1, 713235, Note_off_c, 0, 60, 63
1, 713248, Control_c, 0, 64, 63
1, 713251, Note_off_c, 0, 83, 63
1, 713258, Note_on_c, 0, 80, 70
1, 713261, Note_on_c, 0, 63, 57
1, 713263, Control_c, 0, 64, 65
1, 713264, Note_on_c, 0, 72, 69
1, 713278, Control_c, 0, 64, 67
1, 713293, Control_c, 0, 64, 71
1, 713297, Note_off_c, 0, 63, 64
1, 713307, Control_c, 0, 64, 74
1, 713320, Note_off_c, 0, 51, 61
1, 713322, Control_c, 0, 64, 75
1, 713336, Note_off_c, 0, 80, 62
1, 713352, Control_c, 0, 64, 74
1, 713355, Note_off_c, 0, 72, 59
1, 713363, Note_on_c, 0, 52, 84
1, 713365, Note_on_c, 0, 71, 69
1, 713366, Control_c, 0, 64, 68
1, 713378, Note_on_c, 0, 80, 60
1, 713381, Control_c, 0, 64, 59
1, 713396, Control_c, 0, 64, 45
1, 713404, Note_off_c, 0, 71, 63
1, 713411, Control_c, 0, 64, 48
1, 713426, Control_c, 0, 64, 56
1, 713440, Control_c, 0, 64, 64
1, 713440, Control_c, 0, 67, 121
1, 713455, Control_c, 0, 64, 67
1, 713455, Control_c, 0, 67, 115
1, 713463, Note_on_c, 0, 72, 80
1, 713470, Control_c, 0, 67, 108
1, 713485, Control_c, 0, 64, 66
1, 713485, Control_c, 0, 67, 96
1, 713507, Control_c, 0, 64, 57
1, 713507, Control_c, 0, 67, 84
1, 713522, Control_c, 0, 64, 35
1, 713522, Control_c, 0, 67, 70
1, 713537, Control_c, 0, 64, 0
1, 713537, Control_c, 0, 67, 56
1, 713539, Note_off_c, 0, 72, 62
1, 713552, Control_c, 0, 67, 40
1, 713567, Control_c, 0, 67, 0
1, 713579, Note_on_c, 0, 48, 89
1, 713583, Note_on_c, 0, 68, 65
1, 713583, Control_c, 0, 64, 36
1, 713595, Note_off_c, 0, 52, 57
1, 713597, Control_c, 0, 64, 53
1, 713610, Note_off_c, 0, 68, 68
1, 713612, Note_off_c, 0, 80, 64
1, 713612, Control_c, 0, 64, 64
1, 713627, Control_c, 0, 64, 67
1, 713642, Control_c, 0, 64, 70
1, 713657, Control_c, 0, 64, 73
1, 713667, Note_on_c, 0, 80, 78
1, 713671, Control_c, 0, 64, 75
1, 713679, Note_on_c, 0, 71, 77
1, 713686, Control_c, 0, 64, 77
1, 713688, Note_off_c, 0, 48, 64
1, 713701, Control_c, 0, 64, 78
1, 713716, Control_c, 0, 64, 77
1, 713730, Control_c, 0, 64, 72
1, 713745, Control_c, 0, 64, 57
1, 713760, Control_c, 0, 64, 0
1, 713761, Note_off_c, 0, 80, 57
1, 713780, Note_on_c, 0, 82, 83
1, 713781, Note_on_c, 0, 51, 83
1, 713819, Control_c, 0, 64, 53
1, 713834, Control_c, 0, 64, 64
1, 713849, Control_c, 0, 64, 67
1, 713864, Note_off_c, 0, 51, 61
1, 713864, Control_c, 0, 64, 69
1, 713875, Note_on_c, 0, 80, 81
1, 713878, Control_c, 0, 64, 70
1, 713887, Note_on_c, 0, 64, 75
1, 713893, Control_c, 0, 64, 70
1, 713908, Note_off_c, 0, 82, 61
1, 713908, Control_c, 0, 64, 71
1, 713931, Note_off_c, 0, 71, 49
1, 713938, Control_c, 0, 64, 71
1, 713958, Note_off_c, 0, 80, 62
1, 713983, Control_c, 0, 64, 72
1, 713983, Note_on_c, 0, 83, 87
1, 713983, Note_off_c, 0, 64, 62
1, 713988, Note_on_c, 0, 63, 79
1, 713997, Control_c, 0, 64, 72
1, 714012, Control_c, 0, 64, 73
1, 714027, Control_c, 0, 64, 74
1, 714042, Control_c, 0, 64, 74
1, 714057, Control_c, 0, 64, 75
1, 714059, Note_off_c, 0, 63, 61
1, 714080, Note_off_c, 0, 83, 62
1, 714090, Note_on_c, 0, 80, 71
1, 714096, Note_on_c, 0, 64, 70
1, 714101, Control_c, 0, 64, 74
1, 714104, Note_on_c, 0, 72, 73
1, 714116, Control_c, 0, 64, 66
1, 714130, Control_c, 0, 64, 50
1, 714145, Control_c, 0, 64, 0
1, 714165, Note_off_c, 0, 80, 62
1, 714174, Note_off_c, 0, 72, 62
1, 714177, Note_on_c, 0, 52, 68
1, 714183, Note_off_c, 0, 64, 62
1, 714185, Note_on_c, 0, 71, 69
1, 714185, Note_on_c, 0, 63, 57
1, 714204, Control_c, 0, 64, 42
1, 714209, Note_on_c, 0, 80, 63
1, 714219, Control_c, 0, 64, 55
1, 714228, Note_off_c, 0, 71, 63
1, 714234, Control_c, 0, 64, 60
1, 714234, Control_c, 0, 67, 41
1, 714257, Control_c, 0, 64, 62
1, 714257, Control_c, 0, 67, 57
1, 714272, Control_c, 0, 64, 62
1, 714272, Control_c, 0, 67, 72
1, 714272, Note_off_c, 0, 63, 64
1, 714278, Note_off_c, 0, 52, 60
1, 714286, Control_c, 0, 64, 63
1, 714286, Control_c, 0, 67, 82
1, 714291, Note_on_c, 0, 72, 84
1, 714301, Control_c, 0, 64, 65
1, 714301, Control_c, 0, 67, 88
1, 714305, Note_on_c, 0, 64, 74
1, 714316, Control_c, 0, 64, 67
1, 714316, Control_c, 0, 67, 92
1, 714330, Control_c, 0, 64, 69
1, 714330, Control_c, 0, 67, 94
1, 714345, Control_c, 0, 64, 70
1, 714345, Control_c, 0, 67, 95
1, 714346, Note_off_c, 0, 64, 64
1, 714360, Control_c, 0, 67, 96
1, 714364, Note_off_c, 0, 72, 62
1, 714376, Control_c, 0, 64, 70
1, 714391, Control_c, 0, 64, 65
1, 714403, Note_on_c, 0, 68, 69
1, 714406, Control_c, 0, 64, 53
1, 714406, Control_c, 0, 67, 98
1, 714410, Note_on_c, 0, 51, 73
1, 714420, Control_c, 0, 64, 34
1, 714420, Control_c, 0, 67, 100
1, 714426, Note_off_c, 0, 68, 69
1, 714435, Control_c, 0, 64, 0
1, 714435, Control_c, 0, 67, 111
1, 714448, Note_off_c, 0, 80, 64
1, 714450, Control_c, 0, 64, 32
1, 714450, Control_c, 0, 67, 127
1, 714465, Control_c, 0, 64, 44
1, 714480, Control_c, 0, 64, 55
1, 714491, Note_on_c, 0, 80, 74
1, 714494, Control_c, 0, 64, 62
1, 714507, Note_on_c, 0, 71, 74
1, 714509, Control_c, 0, 64, 65
1, 714524, Control_c, 0, 64, 66
1, 714539, Control_c, 0, 64, 66
1, 714568, Control_c, 0, 64, 65
1, 714583, Control_c, 0, 64, 58
1, 714587, Note_off_c, 0, 51, 58
1, 714593, Note_off_c, 0, 80, 60
1, 714598, Control_c, 0, 64, 37
1, 714606, Note_on_c, 0, 52, 70
1, 714606, Note_on_c, 0, 82, 79
1, 714613, Control_c, 0, 64, 0
1, 714657, Control_c, 0, 64, 41
1, 714672, Control_c, 0, 64, 56
1, 714687, Control_c, 0, 64, 64
1, 714701, Control_c, 0, 64, 65
1, 714703, Note_on_c, 0, 80, 81
1, 714716, Control_c, 0, 64, 66
1, 714727, Note_off_c, 0, 82, 58
1, 714731, Control_c, 0, 64, 65
1, 714746, Note_off_c, 0, 71, 55
1, 714746, Control_c, 0, 64, 61
1, 714761, Control_c, 0, 64, 55
1, 714776, Note_off_c, 0, 80, 64
1, 714776, Control_c, 0, 64, 52
1, 714791, Control_c, 0, 64, 53
1, 714805, Control_c, 0, 64, 56
1, 714808, Note_off_c, 0, 52, 63
1, 714811, Note_on_c, 0, 48, 77
1, 714814, Note_on_c, 0, 83, 86
1, 714820, Control_c, 0, 64, 60
1, 714835, Control_c, 0, 64, 63
1, 714845, Note_off_c, 0, 48, 65
1, 714898, Note_off_c, 0, 83, 62
1, 714915, Note_on_c, 0, 64, 74
1, 714921, Note_on_c, 0, 80, 74
1, 714924, Control_c, 0, 64, 63
1, 714937, Note_on_c, 0, 72, 72
1, 714938, Control_c, 0, 64, 64
1, 714953, Control_c, 0, 64, 64
1, 714968, Control_c, 0, 64, 65
1, 714972, Note_off_c, 0, 64, 63
1, 714983, Control_c, 0, 64, 65
1, 715010, Note_off_c, 0, 80, 60
1, 715023, Note_off_c, 0, 72, 58
1, 715024, Note_on_c, 0, 71, 65
1, 715030, Note_on_c, 0, 51, 67
1, 715033, Note_on_c, 0, 63, 56
1, 715050, Control_c, 0, 64, 64
1, 715053, Note_on_c, 0, 80, 61
1, 715065, Control_c, 0, 64, 58
1, 715068, Note_off_c, 0, 63, 66
1, 715079, Control_c, 0, 64, 46
1, 715084, Note_off_c, 0, 71, 57
1, 715094, Control_c, 0, 64, 38
1, 715109, Control_c, 0, 64, 37
1, 715124, Control_c, 0, 64, 39
1, 715130, Note_on_c, 0, 72, 76
1, 715139, Control_c, 0, 64, 48
1, 715139, Note_on_c, 0, 64, 69
1, 715153, Control_c, 0, 64, 56
1, 715168, Note_off_c, 0, 64, 67
1, 715169, Control_c, 0, 64, 61
1, 715183, Control_c, 0, 64, 63
1, 715199, Note_off_c, 0, 72, 61
1, 715232, Note_on_c, 0, 68, 74
1, 715238, Note_on_c, 0, 60, 59
1, 715257, Note_off_c, 0, 68, 65
1, 715283, Note_off_c, 0, 80, 64
1, 715294, Note_off_c, 0, 51, 57
1, 715328, Note_on_c, 0, 80, 72
1, 715337, Note_on_c, 0, 63, 56
1, 715338, Note_on_c, 0, 71, 76
1, 715346, Control_c, 0, 64, 62
1, 715361, Control_c, 0, 64, 60
1, 715372, Note_off_c, 0, 63, 64
1, 715375, Control_c, 0, 64, 52
1, 715389, Note_off_c, 0, 60, 58
1, 715390, Control_c, 0, 64, 35
1, 715405, Control_c, 0, 64, 0
1, 715416, Note_off_c, 0, 80, 57
1, 715431, Note_on_c, 0, 52, 56
1, 715448, Note_on_c, 0, 82, 71
1, 715455, Note_off_c, 0, 71, 29
1, 715524, Control_c, 0, 64, 31
1, 715527, Note_off_c, 0, 82, 53
1, 715539, Control_c, 0, 64, 45
1, 715548, Note_on_c, 0, 80, 68
1, 715554, Control_c, 0, 64, 54
1, 715568, Control_c, 0, 64, 59
1, 715583, Control_c, 0, 64, 60
1, 715613, Note_off_c, 0, 80, 64
1, 715655, Note_on_c, 0, 83, 88
1, 715706, Note_off_c, 0, 83, 64
1, 715753, Note_on_c, 0, 60, 61
1, 715767, Note_on_c, 0, 68, 68
1, 715783, Control_c, 0, 64, 61
1, 715813, Control_c, 0, 64, 61
1, 715820, Note_off_c, 0, 68, 62
1, 715823, Note_off_c, 0, 60, 61
1, 715842, Control_c, 0, 64, 60
1, 715857, Control_c, 0, 64, 50
1, 715864, Note_on_c, 0, 71, 78
1, 715870, Note_on_c, 0, 59, 61
1, 715872, Control_c, 0, 64, 0
1, 715885, Note_off_c, 0, 71, 70
1, 715899, Note_off_c, 0, 52, 59
1, 715916, Note_off_c, 0, 59, 62
1, 715953, Note_on_c, 0, 60, 69
1, 716028, Note_off_c, 0, 60, 61
1, 716069, Note_on_c, 0, 51, 68
1, 716072, Note_on_c, 0, 71, 94
1, 716074, Note_on_c, 0, 56, 63
1, 716138, Note_off_c, 0, 71, 60
1, 716163, Note_off_c, 0, 56, 62
1, 716171, Note_on_c, 0, 59, 75
1, 716177, Note_on_c, 0, 75, 83
1, 716195, Note_off_c, 0, 75, 74
1, 716224, Note_off_c, 0, 59, 59
1, 716272, Note_on_c, 0, 58, 68
1, 716305, Note_off_c, 0, 51, 59
1, 716350, Note_off_c, 0, 58, 62
1, 716370, Note_on_c, 0, 59, 71
1, 716377, Control_c, 0, 64, 31
1, 716384, Note_on_c, 0, 75, 86
1, 716391, Control_c, 0, 64, 33
1, 716406, Control_c, 0, 67, 110
1, 716421, Control_c, 0, 64, 32
1, 716421, Control_c, 0, 67, 67
1, 716430, Note_off_c, 0, 75, 67
1, 716436, Control_c, 0, 67, 0
1, 716438, Note_off_c, 0, 59, 63
1, 716451, Control_c, 0, 64, 0
1, 716477, Note_on_c, 0, 79, 85
1, 716480, Note_on_c, 0, 56, 66
1, 716482, Note_on_c, 0, 52, 60
1, 716501, Note_off_c, 0, 79, 74
1, 716562, Note_off_c, 0, 56, 61
1, 716585, Note_on_c, 0, 60, 68
1, 716666, Note_off_c, 0, 60, 57
1, 716698, Note_on_c, 0, 79, 87
1, 716700, Note_on_c, 0, 59, 69
1, 716737, Note_off_c, 0, 79, 64
1, 716768, Note_off_c, 0, 59, 64
1, 716773, Note_off_c, 0, 52, 59
1, 716800, Note_on_c, 0, 82, 103
1, 716807, Note_on_c, 0, 60, 73
1, 716875, Control_c, 0, 64, 41
1, 716889, Control_c, 0, 64, 58
1, 716895, Note_off_c, 0, 60, 61
1, 716904, Control_c, 0, 64, 62
1, 716918, Note_on_c, 0, 56, 76
1, 716919, Note_on_c, 0, 48, 79
1, 716919, Control_c, 0, 64, 63
1, 716934, Control_c, 0, 64, 64
1, 716949, Control_c, 0, 64, 65
1, 716961, Note_off_c, 0, 48, 61
1, 716964, Control_c, 0, 64, 66
1, 716970, Note_off_c, 0, 82, 61
1, 716979, Control_c, 0, 64, 66
1, 716982, Note_off_c, 0, 56, 63
1, 716993, Control_c, 0, 64, 67
1, 717024, Note_on_c, 0, 83, 100
1, 717032, Note_on_c, 0, 64, 80
1, 717077, Note_off_c, 0, 83, 65
1, 717097, Control_c, 0, 64, 67
1, 717110, Note_off_c, 0, 64, 63
1, 717127, Control_c, 0, 64, 68
1, 717128, Note_on_c, 0, 63, 77
1, 717131, Note_on_c, 0, 80, 92
1, 717141, Control_c, 0, 64, 70
1, 717156, Control_c, 0, 64, 73
1, 717171, Control_c, 0, 64, 75
1, 717185, Note_off_c, 0, 80, 63
1, 717186, Control_c, 0, 64, 79
1, 717187, Note_off_c, 0, 63, 63
1, 717201, Control_c, 0, 64, 80
1, 717215, Control_c, 0, 64, 81
1, 717222, Note_on_c, 0, 64, 75
1, 717226, Note_on_c, 0, 75, 93
1, 717230, Control_c, 0, 64, 80
1, 717253, Control_c, 0, 64, 70
1, 717267, Control_c, 0, 64, 43
1, 717271, Note_off_c, 0, 75, 67
1, 717282, Control_c, 0, 64, 0
1, 717283, Note_off_c, 0, 64, 66
1, 717336, Note_on_c, 0, 51, 87
1, 717336, Note_on_c, 0, 79, 95
1, 717339, Note_on_c, 0, 59, 82
1, 717341, Control_c, 0, 66, 127
1, 717396, Note_off_c, 0, 79, 66
1, 717419, Note_off_c, 0, 51, 60
1, 717426, Note_off_c, 0, 59, 65
1, 717442, Note_on_c, 0, 74, 95
1, 717443, Note_on_c, 0, 62, 81
1, 717480, Note_off_c, 0, 74, 66
1, 717487, Note_off_c, 0, 62, 62
1, 717536, Note_on_c, 0, 63, 84
1, 717543, Note_on_c, 0, 71, 98
1, 717578, Note_off_c, 0, 71, 65
1, 717595, Note_off_c, 0, 63, 62
1, 717637, Note_on_c, 0, 68, 83
1, 717637, Note_on_c, 0, 64, 83
1, 717661, Note_off_c, 0, 68, 66
1, 717694, Note_off_c, 0, 64, 64
1, 717736, Note_on_c, 0, 67, 95
1, 717779, Note_off_c, 0, 67, 67
1, 717834, Note_on_c, 0, 96, 105
1, 717838, Note_on_c, 0, 68, 103
1, 717879, Note_off_c, 0, 96, 68
1, 717888, Control_c, 0, 64, 58
1, 717903, Control_c, 0, 64, 63
1, 717918, Control_c, 0, 64, 64
1, 717933, Control_c, 0, 64, 65
1, 717948, Control_c, 0, 64, 67
1, 717953, Note_on_c, 0, 92, 90
1, 717962, Control_c, 0, 64, 68
1, 717977, Control_c, 0, 64, 69
1, 718000, Control_c, 0, 64, 69
1, 718015, Control_c, 0, 64, 70
1, 718016, Note_off_c, 0, 92, 68
1, 718017, Note_off_c, 0, 68, 56
1, 718044, Control_c, 0, 64, 70
1, 718059, Control_c, 0, 64, 71
1, 718070, Note_on_c, 0, 87, 80
1, 718074, Control_c, 0, 64, 71
1, 718101, Note_off_c, 0, 87, 66
1, 718103, Control_c, 0, 64, 72
1, 718133, Control_c, 0, 64, 72
1, 718163, Note_on_c, 0, 91, 94
1, 718177, Control_c, 0, 64, 72
1, 718192, Control_c, 0, 64, 66
1, 718207, Control_c, 0, 64, 40
1, 718216, Note_off_c, 0, 91, 68
1, 718222, Control_c, 0, 64, 0
1, 718264, Note_on_c, 0, 86, 95
1, 718266, Note_on_c, 0, 71, 85
1, 718312, Note_off_c, 0, 86, 66
1, 718322, Note_off_c, 0, 71, 61
1, 718368, Note_on_c, 0, 83, 94
1, 718372, Note_on_c, 0, 74, 94
1, 718412, Note_off_c, 0, 83, 66
1, 718419, Note_off_c, 0, 74, 66
1, 718459, Note_on_c, 0, 80, 79
1, 718467, Note_on_c, 0, 75, 95
1, 718478, Note_off_c, 0, 80, 73
1, 718531, Note_off_c, 0, 75, 63
1, 718567, Note_on_c, 0, 76, 92
1, 718635, Note_off_c, 0, 76, 65
1, 718666, Note_on_c, 0, 71, 83
1, 718667, Note_on_c, 0, 79, 94
1, 718679, Note_on_c, 0, 77, 78
1, 718695, Note_off_c, 0, 77, 70
1, 718697, Control_c, 0, 64, 42
1, 718704, Note_off_c, 0, 79, 72
1, 718711, Control_c, 0, 64, 63
1, 718726, Control_c, 0, 64, 65
1, 718749, Control_c, 0, 64, 68
1, 718764, Control_c, 0, 64, 70
1, 718779, Note_off_c, 0, 71, 58
1, 718779, Control_c, 0, 64, 71
1, 718780, Note_on_c, 0, 68, 73
1, 718793, Control_c, 0, 64, 72
1, 718808, Control_c, 0, 64, 73
1, 718823, Control_c, 0, 64, 73
1, 718848, Note_off_c, 0, 68, 65
1, 718852, Control_c, 0, 64, 74
1, 718867, Control_c, 0, 64, 75
1, 718882, Control_c, 0, 64, 76
1, 718884, Note_on_c, 0, 63, 84
1, 718897, Control_c, 0, 64, 77
1, 718908, Note_off_c, 0, 63, 66
1, 718912, Control_c, 0, 64, 78
1, 718926, Control_c, 0, 64, 79
1, 718941, Control_c, 0, 64, 79
1, 718971, Control_c, 0, 64, 79
1, 718971, Control_c, 0, 66, 0
1, 718982, Note_on_c, 0, 67, 86
1, 718985, Control_c, 0, 64, 73
1, 719000, Control_c, 0, 64, 59
1, 719015, Control_c, 0, 64, 0
1, 719032, Note_off_c, 0, 67, 62
1, 719078, Note_on_c, 0, 51, 89
1, 719081, Note_on_c, 0, 62, 84
1, 719124, Note_off_c, 0, 51, 63
1, 719125, Note_off_c, 0, 62, 62
1, 719190, Note_on_c, 0, 52, 77
1, 719191, Note_on_c, 0, 59, 83
1, 719217, Note_off_c, 0, 59, 67
1, 719225, Note_off_c, 0, 52, 64
1, 719295, Note_on_c, 0, 56, 69
1, 719328, Note_off_c, 0, 56, 64
1, 719395, Note_on_c, 0, 71, 79
1, 719434, Note_off_c, 0, 71, 61
1, 719507, Note_on_c, 0, 68, 66
1, 719513, Note_on_c, 0, 53, 70
1, 719536, Note_off_c, 0, 68, 63
1, 719547, Note_off_c, 0, 53, 60
1, 719600, Note_on_c, 0, 48, 81
1, 719608, Note_on_c, 0, 63, 79
1, 719623, Note_off_c, 0, 48, 67
1, 719633, Note_off_c, 0, 63, 65
1, 719702, Note_on_c, 0, 67, 90
1, 719751, Note_off_c, 0, 67, 61
1, 719804, Note_on_c, 0, 62, 80
1, 719845, Note_off_c, 0, 62, 59
1, 719904, Note_on_c, 0, 59, 78
1, 719908, Note_on_c, 0, 39, 69
1, 719936, Note_off_c, 0, 59, 64
1, 719939, Note_off_c, 0, 39, 63
1, 720010, Note_on_c, 0, 56, 74
1, 720014, Note_on_c, 0, 40, 60
1, 720038, Note_off_c, 0, 56, 66
1, 720040, Note_off_c, 0, 40, 58
1, 720106, Note_on_c, 0, 71, 77
1, 720146, Note_off_c, 0, 71, 61
1, 720224, Note_on_c, 0, 68, 62
1, 720269, Note_off_c, 0, 68, 59
1, 720322, Note_on_c, 0, 41, 70
1, 720323, Note_on_c, 0, 63, 67
1, 720357, Note_off_c, 0, 41, 65
1, 720360, Note_off_c, 0, 63, 59
1, 720419, Note_on_c, 0, 36, 76
1, 720427, Note_on_c, 0, 59, 64
1, 720443, Note_off_c, 0, 36, 65
1, 720459, Note_off_c, 0, 59, 66
1, 720532, Note_on_c, 0, 66, 73
1, 720591, Note_off_c, 0, 66, 63
1, 720623, Note_on_c, 0, 61, 75
1, 720682, Note_off_c, 0, 61, 62
1, 720715, Note_on_c, 0, 74, 102
1, 720718, Note_on_c, 0, 58, 83
1, 720718, Note_on_c, 0, 76, 91
1, 720744, Note_off_c, 0, 76, 66
1, 720758, Note_off_c, 0, 74, 67
1, 720781, Note_off_c, 0, 58, 63
1, 720818, Note_on_c, 0, 75, 108
1, 720823, Note_on_c, 0, 55, 70
1, 720851, Note_off_c, 0, 75, 68
1, 720853, Note_off_c, 0, 55, 63
1, 720918, Note_on_c, 0, 70, 60
1, 720950, Note_off_c, 0, 70, 66
1, 721030, Note_on_c, 0, 76, 105
1, 721031, Note_on_c, 0, 67, 59
1, 721067, Note_off_c, 0, 76, 68
1, 721070, Note_on_c, 0, 75, 33
1, 721070, Note_off_c, 0, 75, 127
1, 721077, Note_off_c, 0, 67, 62
1, 721095, Note_on_c, 0, 62, 60
1, 721130, Note_off_c, 0, 62, 65
1, 721134, Note_on_c, 0, 71, 78
1, 721149, Note_off_c, 0, 71, 70
1, 721161, Note_on_c, 0, 69, 39
1, 721191, Note_off_c, 0, 69, 56
1, 721228, Note_on_c, 0, 66, 69
1, 721268, Note_off_c, 0, 66, 63
1, 721323, Note_on_c, 0, 50, 100
1, 721328, Note_on_c, 0, 61, 74
1, 721364, Note_off_c, 0, 50, 67
1, 721387, Note_off_c, 0, 61, 61
1, 721415, Note_on_c, 0, 51, 103
1, 721431, Note_on_c, 0, 58, 77
1, 721447, Note_off_c, 0, 51, 66
1, 721488, Note_off_c, 0, 58, 63
1, 721538, Note_on_c, 0, 55, 75
1, 721566, Note_off_c, 0, 55, 68
1, 721630, Note_on_c, 0, 52, 103
1, 721638, Note_on_c, 0, 70, 87
1, 721672, Note_off_c, 0, 52, 68
1, 721688, Note_off_c, 0, 70, 66
1, 721738, Note_on_c, 0, 67, 77
1, 721740, Note_on_c, 0, 47, 96
1, 721759, Note_on_c, 0, 48, 64
1, 721759, Note_off_c, 0, 48, 127
1, 721770, Note_off_c, 0, 47, 68
1, 721798, Note_off_c, 0, 67, 64
1, 721846, Note_on_c, 0, 62, 87
1, 721880, Note_off_c, 0, 62, 65
1, 721927, Note_on_c, 0, 46, 101
1, 721927, Note_on_c, 0, 34, 101
1, 721938, Note_on_c, 0, 66, 88
1, 721951, Note_off_c, 0, 46, 68
1, 721951, Note_off_c, 0, 34, 72
1, 721992, Note_off_c, 0, 66, 63
1, 722028, Note_on_c, 0, 61, 77
1, 722034, Note_on_c, 0, 49, 99
1, 722034, Note_on_c, 0, 37, 99
1, 722056, Note_off_c, 0, 61, 65
1, 722061, Note_off_c, 0, 37, 68
1, 722067, Note_off_c, 0, 49, 61
1, 722127, Note_on_c, 0, 53, 101
1, 722127, Note_on_c, 0, 41, 98
1, 722158, Note_off_c, 0, 41, 67
1, 722162, Note_off_c, 0, 53, 65
1, 722230, Note_on_c, 0, 57, 109
1, 722233, Note_on_c, 0, 45, 98
1, 722320, Note_on_c, 0, 76, 91
1, 722323, Control_c, 0, 64, 30
1, 722324, Note_on_c, 0, 71, 92
1, 722337, Control_c, 0, 64, 44
1, 722353, Control_c, 0, 64, 53
1, 722368, Control_c, 0, 64, 57
1, 722383, Control_c, 0, 64, 59
1, 722386, Note_off_c, 0, 71, 62
1, 722391, Note_off_c, 0, 76, 61
1, 722393, Note_off_c, 0, 45, 62
1, 722402, Note_off_c, 0, 57, 64
1, 722413, Control_c, 0, 64, 58
1, 722428, Note_on_c, 0, 77, 88
1, 722428, Control_c, 0, 64, 57
1, 722428, Note_on_c, 0, 65, 88
1, 722442, Control_c, 0, 64, 50
1, 722457, Control_c, 0, 64, 30
1, 722459, Note_off_c, 0, 65, 65
1, 722465, Note_off_c, 0, 77, 64
1, 722472, Control_c, 0, 64, 0
1, 722526, Note_on_c, 0, 60, 107
1, 722532, Note_on_c, 0, 48, 107
1, 722627, Control_c, 0, 64, 40
1, 722629, Note_on_c, 0, 66, 93
1, 722632, Note_on_c, 0, 78, 90
1, 722636, Note_off_c, 0, 48, 62
1, 722642, Control_c, 0, 64, 63
1, 722653, Note_off_c, 0, 60, 59
1, 722657, Control_c, 0, 64, 66
1, 722672, Control_c, 0, 64, 70
1, 722677, Note_off_c, 0, 66, 63
1, 722687, Control_c, 0, 64, 74
1, 722702, Control_c, 0, 64, 80
1, 722717, Control_c, 0, 64, 86
1, 722723, Note_off_c, 0, 78, 57
1, 722732, Control_c, 0, 64, 89
1, 722733, Note_on_c, 0, 70, 76
1, 722738, Note_on_c, 0, 61, 98
1, 722741, Note_on_c, 0, 73, 71
1, 722742, Note_on_c, 0, 49, 91
1, 722761, Control_c, 0, 64, 85
1, 722763, Note_off_c, 0, 61, 63
1, 722765, Note_off_c, 0, 49, 69
1, 722776, Control_c, 0, 64, 69
1, 722788, Note_off_c, 0, 70, 63
1, 722788, Note_off_c, 0, 73, 55
1, 722791, Control_c, 0, 64, 0
1, 722839, Note_on_c, 0, 58, 102
1, 722842, Note_on_c, 0, 46, 96
1, 722869, Note_off_c, 0, 46, 65
1, 722875, Note_off_c, 0, 58, 62
1, 722944, Note_on_c, 0, 41, 91
1, 722948, Note_on_c, 0, 53, 87
1, 722974, Note_off_c, 0, 41, 66
1, 722976, Note_off_c, 0, 53, 63
1, 723047, Note_on_c, 0, 57, 112
1, 723051, Note_on_c, 0, 45, 99
1, 723086, Control_c, 0, 64, 40
1, 723101, Control_c, 0, 64, 44
1, 723108, Note_off_c, 0, 57, 61
1, 723116, Control_c, 0, 64, 50
1, 723125, Note_off_c, 0, 45, 64
1, 723127, Note_on_c, 0, 77, 74
1, 723131, Control_c, 0, 64, 58
1, 723138, Note_on_c, 0, 72, 68
1, 723146, Control_c, 0, 64, 61
1, 723162, Control_c, 0, 64, 60
1, 723176, Control_c, 0, 64, 51
1, 723191, Control_c, 0, 64, 0
1, 723208, Note_off_c, 0, 77, 52
1, 723235, Note_off_c, 0, 72, 58
1, 723241, Note_on_c, 0, 78, 86
1, 723242, Note_on_c, 0, 66, 85
1, 723269, Note_off_c, 0, 66, 63
1, 723295, Note_off_c, 0, 78, 60
1, 723331, Note_on_c, 0, 52, 106
1, 723332, Note_on_c, 0, 40, 99
1, 723343, Note_on_c, 0, 50, 76
1, 723369, Note_off_c, 0, 50, 38
1, 723422, Note_on_c, 0, 80, 86
1, 723426, Note_on_c, 0, 75, 80
1, 723432, Note_off_c, 0, 52, 63
1, 723450, Note_off_c, 0, 40, 63
1, 723474, Note_off_c, 0, 75, 65
1, 723477, Note_off_c, 0, 80, 62
1, 723507, Note_on_c, 0, 81, 84
1, 723507, Note_on_c, 0, 68, 88
1, 723529, Note_off_c, 0, 68, 65
1, 723544, Note_on_c, 0, 79, 32
1, 723544, Note_off_c, 0, 79, 127
1, 723560, Note_off_c, 0, 81, 64
1, 723587, Note_on_c, 0, 49, 111
1, 723589, Note_on_c, 0, 37, 107
1, 723680, Note_on_c, 0, 83, 94
1, 723686, Note_on_c, 0, 78, 87
1, 723698, Note_off_c, 0, 49, 61
1, 723717, Note_off_c, 0, 37, 64
1, 723727, Note_off_c, 0, 83, 64
1, 723736, Note_off_c, 0, 78, 62
1, 723777, Note_on_c, 0, 84, 92
1, 723780, Note_on_c, 0, 71, 99
1, 723809, Note_off_c, 0, 71, 66
1, 723821, Note_off_c, 0, 84, 65
1, 723861, Note_on_c, 0, 46, 108
1, 723862, Note_on_c, 0, 34, 102
1, 723934, Note_off_c, 0, 46, 64
1, 723949, Note_off_c, 0, 34, 62
1, 723961, Note_on_c, 0, 82, 102
1, 723962, Note_on_c, 0, 87, 98
1, 723993, Control_c, 0, 64, 55
1, 724002, Note_on_c, 0, 85, 51
1, 724007, Control_c, 0, 64, 66
1, 724017, Note_off_c, 0, 82, 63
1, 724018, Note_off_c, 0, 87, 68
1, 724022, Control_c, 0, 64, 72
1, 724025, Note_off_c, 0, 85, 42
1, 724037, Control_c, 0, 64, 76
1, 724052, Control_c, 0, 64, 79
1, 724066, Control_c, 0, 64, 82
1, 724076, Note_on_c, 0, 88, 91
1, 724079, Note_on_c, 0, 75, 117
1, 724081, Control_c, 0, 64, 85
1, 724096, Control_c, 0, 64, 87
1, 724097, Note_off_c, 0, 88, 66
1, 724111, Control_c, 0, 64, 89
1, 724112, Note_off_c, 0, 75, 71
1, 724126, Control_c, 0, 64, 97
1, 724140, Control_c, 0, 64, 127
1, 724158, Poly_aftertouch_c, 0, 21, 127
1, 724203, Poly_aftertouch_c, 0, 21, 0
1, 724229, Control_c, 0, 64, 93
1, 724244, Control_c, 0, 64, 63
1, 724258, Control_c, 0, 64, 0
1, 724268, Note_on_c, 0, 21, 98
1, 724270, Note_on_c, 0, 33, 107
1, 724273, Note_on_c, 0, 47, 100
1, 724273, Control_c, 0, 66, 127
1, 724276, Note_on_c, 0, 45, 104
1, 724309, Note_off_c, 0, 47, 68
1, 724332, Control_c, 0, 64, 49
1, 724347, Control_c, 0, 64, 63
1, 724362, Control_c, 0, 64, 66
1, 724363, Note_off_c, 0, 45, 64
1, 724368, Note_off_c, 0, 21, 62
1, 724382, Note_off_c, 0, 33, 66
1, 724392, Control_c, 0, 64, 67
1, 724422, Control_c, 0, 64, 67
1, 724437, Control_c, 0, 64, 71
1, 724452, Control_c, 0, 64, 76
1, 724466, Control_c, 0, 64, 83
1, 724481, Control_c, 0, 64, 92
1, 724496, Control_c, 0, 64, 104
1, 724511, Control_c, 0, 64, 106
1, 724579, Note_on_c, 0, 70, 24
1, 724616, Note_on_c, 0, 77, 105
1, 724620, Note_off_c, 0, 70, 43
1, 724621, Note_on_c, 0, 101, 110
1, 724757, Note_off_c, 0, 101, 68
1, 724757, Note_off_c, 0, 77, 61
1, 724771, Note_on_c, 0, 72, 86
1, 724774, Note_on_c, 0, 96, 101
1, 724803, Note_on_c, 0, 74, 35
1, 724803, Note_off_c, 0, 74, 127
1, 724858, Note_off_c, 0, 72, 62
1, 724858, Note_off_c, 0, 96, 63
1, 724869, Note_on_c, 0, 93, 101
1, 724880, Note_on_c, 0, 69, 91
1, 724934, Note_off_c, 0, 69, 63
1, 724941, Note_off_c, 0, 93, 65
1, 724972, Note_on_c, 0, 99, 102
1, 724977, Note_on_c, 0, 75, 102
1, 725039, Note_off_c, 0, 75, 67
1, 725045, Note_off_c, 0, 99, 63
1, 725067, Note_on_c, 0, 95, 88
1, 725072, Note_on_c, 0, 71, 83
1, 725141, Control_c, 0, 64, 104
1, 725164, Note_off_c, 0, 95, 65
1, 725168, Note_on_c, 0, 92, 97
1, 725170, Note_on_c, 0, 68, 81
1, 725178, Note_off_c, 0, 71, 60
1, 725252, Note_off_c, 0, 92, 65
1, 725257, Note_on_c, 0, 64, 86
1, 725260, Note_off_c, 0, 68, 61
1, 725266, Note_on_c, 0, 88, 87
1, 725313, Note_off_c, 0, 64, 65
1, 725323, Note_off_c, 0, 88, 65
1, 725334, Control_c, 0, 64, 87
1, 725349, Control_c, 0, 64, 60
1, 725360, Note_on_c, 0, 89, 95
1, 725363, Control_c, 0, 64, 0
1, 725364, Note_on_c, 0, 65, 97
1, 725424, Note_off_c, 0, 65, 62
1, 725455, Note_on_c, 0, 84, 86
1, 725465, Note_on_c, 0, 60, 85
1, 725466, Note_off_c, 0, 89, 59
1, 725539, Note_off_c, 0, 84, 63
1, 725551, Note_off_c, 0, 60, 55
1, 725564, Note_on_c, 0, 81, 86
1, 725573, Note_on_c, 0, 57, 78
1, 725607, Note_off_c, 0, 57, 62
1, 725626, Note_off_c, 0, 81, 64
1, 725656, Note_on_c, 0, 87, 91
1, 725657, Note_on_c, 0, 63, 97
1, 725715, Note_off_c, 0, 63, 64
1, 725719, Note_off_c, 0, 87, 65
1, 725753, Note_on_c, 0, 83, 85
1, 725757, Note_on_c, 0, 59, 85
1, 725844, Note_off_c, 0, 83, 62
1, 725850, Note_on_c, 0, 56, 86
1, 725851, Note_on_c, 0, 80, 88
1, 725856, Note_off_c, 0, 59, 66
1, 725928, Note_off_c, 0, 80, 64
1, 725941, Note_off_c, 0, 56, 62
1, 725942, Note_on_c, 0, 52, 79
1, 725949, Note_on_c, 0, 76, 82
1, 725990, Note_off_c, 0, 52, 63
1, 725994, Note_off_c, 0, 76, 64
1, 726033, Note_on_c, 0, 77, 100
1, 726035, Note_on_c, 0, 53, 92
1, 726096, Note_off_c, 0, 53, 63
1, 726139, Note_on_c, 0, 72, 83
1, 726139, Note_off_c, 0, 77, 62
1, 726142, Note_on_c, 0, 48, 87
1, 726217, Note_off_c, 0, 72, 61
1, 726237, Note_off_c, 0, 48, 58
1, 726246, Note_on_c, 0, 69, 82
1, 726253, Note_on_c, 0, 45, 73
1, 726288, Note_off_c, 0, 45, 65
1, 726311, Note_off_c, 0, 69, 62
1, 726350, Note_on_c, 0, 51, 93
1, 726359, Note_on_c, 0, 74, 94
1, 726407, Note_off_c, 0, 74, 62
1, 726413, Note_off_c, 0, 51, 61
1, 726455, Note_on_c, 0, 47, 73
1, 726457, Note_on_c, 0, 71, 82
1, 726479, Note_on_c, 0, 48, 50
1, 726526, Note_off_c, 0, 48, 52
1, 726548, Note_off_c, 0, 71, 60
1, 726553, Note_on_c, 0, 44, 74
1, 726556, Note_off_c, 0, 47, 61
1, 726563, Note_on_c, 0, 68, 82
1, 726634, Note_off_c, 0, 68, 61
1, 726637, Note_on_c, 0, 40, 73
1, 726637, Note_off_c, 0, 44, 63
1, 726659, Note_on_c, 0, 64, 78
1, 726693, Note_off_c, 0, 40, 62
1, 726701, Note_off_c, 0, 64, 64
1, 726746, Note_on_c, 0, 41, 90
1, 726750, Note_on_c, 0, 65, 91
1, 726809, Note_off_c, 0, 41, 66
1, 726845, Note_off_c, 0, 65, 63
1, 726846, Note_on_c, 0, 60, 83
1, 726852, Note_on_c, 0, 36, 82
1, 726917, Note_off_c, 0, 60, 62
1, 726923, Note_off_c, 0, 36, 62
1, 726950, Note_on_c, 0, 57, 82
1, 726979, Note_on_c, 0, 31, 56
1, 726979, Note_on_c, 0, 33, 62
1, 726986, Control_c, 0, 66, 0
1, 727009, Note_off_c, 0, 31, 60
1, 727011, Note_off_c, 0, 33, 63
1, 727013, Note_off_c, 0, 57, 64
1, 727054, Note_on_c, 0, 39, 91
1, 727054, Note_on_c, 0, 63, 89
1, 727117, Note_off_c, 0, 39, 63
1, 727135, Note_off_c, 0, 63, 60
1, 727157, Note_on_c, 0, 35, 81
1, 727158, Note_on_c, 0, 59, 88
1, 727221, Note_off_c, 0, 35, 61
1, 727221, Note_off_c, 0, 59, 64
1, 727263, Note_on_c, 0, 32, 83
1, 727266, Note_on_c, 0, 56, 90
1, 727320, Note_off_c, 0, 32, 62
1, 727324, Note_off_c, 0, 56, 62
1, 727368, Note_on_c, 0, 28, 90
1, 727370, Note_on_c, 0, 52, 86
1, 727415, Note_off_c, 0, 52, 63
1, 727420, Note_off_c, 0, 28, 64
1, 727526, Note_on_c, 0, 29, 98
1, 727580, Control_c, 0, 66, 127
1, 727641, Note_off_c, 0, 29, 63
1, 727829, Note_on_c, 0, 52, 78
1, 727887, Note_off_c, 0, 52, 60
1, 727946, Note_on_c, 0, 53, 70
1, 727999, Note_off_c, 0, 53, 62
1, 728045, Note_on_c, 0, 55, 71
1, 728076, Note_off_c, 0, 55, 65
1, 728155, Note_on_c, 0, 57, 88
1, 728210, Note_off_c, 0, 57, 64
1, 728262, Note_on_c, 0, 52, 72
1, 728317, Note_off_c, 0, 52, 59
1, 728372, Note_on_c, 0, 47, 73
1, 728404, Note_off_c, 0, 47, 66
1, 728495, Note_on_c, 0, 60, 89
1, 728514, Control_c, 0, 64, 32
1, 728529, Control_c, 0, 64, 38
1, 728544, Control_c, 0, 64, 39
1, 728559, Control_c, 0, 64, 39
1, 728573, Control_c, 0, 64, 41
1, 728588, Control_c, 0, 64, 43
1, 728603, Control_c, 0, 64, 44
1, 728618, Control_c, 0, 64, 44
1, 728632, Control_c, 0, 64, 45
1, 728662, Control_c, 0, 64, 45
1, 728677, Control_c, 0, 64, 46
1, 728692, Control_c, 0, 64, 46
1, 728708, Note_off_c, 0, 60, 59
1, 728709, Note_on_c, 0, 50, 68
1, 728721, Control_c, 0, 64, 46
1, 728736, Control_c, 0, 64, 45
1, 728752, Control_c, 0, 64, 42
1, 728755, Note_off_c, 0, 50, 59
1, 728767, Control_c, 0, 64, 39
1, 728782, Control_c, 0, 64, 35
1, 728796, Control_c, 0, 64, 34
1, 728819, Note_on_c, 0, 59, 79
1, 728826, Control_c, 0, 64, 34
1, 728841, Control_c, 0, 64, 33
1, 728855, Control_c, 0, 64, 33
1, 728857, Note_off_c, 0, 59, 60
1, 728915, Control_c, 0, 64, 32
1, 728921, Note_on_c, 0, 53, 71
1, 728929, Control_c, 0, 64, 32
1, 728950, Note_off_c, 0, 53, 65
1, 728974, Control_c, 0, 64, 30
1, 728989, Control_c, 0, 64, 0
1, 729032, Note_on_c, 0, 55, 87
1, 729083, Note_off_c, 0, 55, 61
1, 729140, Note_on_c, 0, 50, 67
1, 729194, Note_off_c, 0, 50, 59
1, 729259, Note_on_c, 0, 45, 59
1, 729284, Note_off_c, 0, 45, 61
1, 729370, Note_on_c, 0, 59, 88
1, 729591, Note_on_c, 0, 52, 64
1, 729591, Note_off_c, 0, 59, 59
1, 729603, Note_on_c, 0, 62, 62
1, 729636, Note_off_c, 0, 62, 62
1, 729665, Note_off_c, 0, 52, 60
1, 729701, Note_on_c, 0, 57, 55
1, 729710, Note_on_c, 0, 64, 65
1, 729725, Note_off_c, 0, 57, 61
1, 729740, Note_off_c, 0, 64, 67
1, 729798, Note_on_c, 0, 65, 63
1, 729829, Note_off_c, 0, 65, 66
1, 729901, Note_on_c, 0, 67, 87
1, 729954, Note_off_c, 0, 67, 64
1, 730014, Note_on_c, 0, 52, 58
1, 730016, Note_on_c, 0, 62, 66
1, 730053, Note_off_c, 0, 62, 61
1, 730056, Note_off_c, 0, 52, 60
1, 730124, Note_on_c, 0, 57, 61
1, 730129, Note_on_c, 0, 53, 57
1, 730151, Note_off_c, 0, 53, 60
1, 730153, Note_off_c, 0, 57, 66
1, 730231, Note_on_c, 0, 71, 92
1, 730347, Note_on_c, 0, 55, 80
1, 730396, Note_off_c, 0, 55, 61
1, 730434, Note_off_c, 0, 71, 59
1, 730443, Note_on_c, 0, 50, 68
1, 730467, Note_on_c, 0, 60, 60
1, 730472, Note_off_c, 0, 50, 65
1, 730503, Note_off_c, 0, 60, 62
1, 730568, Note_on_c, 0, 69, 67
1, 730610, Note_off_c, 0, 69, 54
1, 730661, Note_on_c, 0, 64, 70
1, 730691, Note_off_c, 0, 64, 66
1, 730770, Note_on_c, 0, 65, 90
1, 730819, Note_off_c, 0, 65, 63
1, 730872, Note_on_c, 0, 60, 76
1, 730889, Note_on_c, 0, 50, 40
1, 730906, Note_off_c, 0, 60, 64
1, 730926, Note_off_c, 0, 50, 62
1, 730977, Note_on_c, 0, 52, 61
1, 730977, Note_on_c, 0, 55, 64
1, 731000, Note_off_c, 0, 55, 61
1, 731006, Note_off_c, 0, 52, 65
1, 731075, Note_on_c, 0, 69, 89
1, 731186, Note_on_c, 0, 53, 86
1, 731236, Note_off_c, 0, 53, 62
1, 731288, Note_on_c, 0, 48, 81
1, 731297, Note_off_c, 0, 69, 58
1, 731302, Note_on_c, 0, 67, 74
1, 731317, Note_off_c, 0, 48, 66
1, 731350, Note_off_c, 0, 67, 61
1, 731403, Note_on_c, 0, 69, 77
1, 731451, Note_off_c, 0, 69, 61
1, 731503, Note_on_c, 0, 71, 78
1, 731540, Note_off_c, 0, 71, 63
1, 731606, Note_on_c, 0, 72, 93
1, 731663, Note_off_c, 0, 72, 64
1, 731693, Note_on_c, 0, 57, 63
1, 731717, Note_on_c, 0, 67, 62
1, 731758, Note_off_c, 0, 57, 62
1, 731758, Note_off_c, 0, 67, 60
1, 731818, Note_on_c, 0, 59, 74
1, 731819, Note_on_c, 0, 62, 70
1, 731844, Note_off_c, 0, 59, 68
1, 731850, Note_off_c, 0, 62, 63
1, 731921, Note_on_c, 0, 76, 91
1, 732029, Note_on_c, 0, 60, 88
1, 732075, Note_off_c, 0, 60, 67
1, 732112, Note_off_c, 0, 76, 62
1, 732132, Note_on_c, 0, 55, 68
1, 732142, Note_on_c, 0, 65, 66
1, 732160, Note_off_c, 0, 55, 66
1, 732198, Note_off_c, 0, 65, 60
1, 732258, Note_on_c, 0, 74, 71
1, 732310, Note_off_c, 0, 74, 55
1, 732349, Note_on_c, 0, 69, 76
1, 732385, Note_off_c, 0, 69, 62
1, 732452, Note_on_c, 0, 71, 84
1, 732514, Note_off_c, 0, 71, 59
1, 732536, Note_on_c, 0, 55, 52
1, 732557, Note_on_c, 0, 65, 68
1, 732591, Note_off_c, 0, 55, 57
1, 732596, Note_off_c, 0, 65, 59
1, 732657, Note_on_c, 0, 57, 65
1, 732661, Note_on_c, 0, 60, 67
1, 732683, Note_off_c, 0, 57, 66
1, 732688, Note_off_c, 0, 60, 65
1, 732769, Note_on_c, 0, 74, 73
1, 732890, Note_on_c, 0, 59, 61
1, 732980, Note_off_c, 0, 59, 51
1, 732992, Control_c, 0, 64, 37
1, 733007, Control_c, 0, 64, 48
1, 733010, Note_on_c, 0, 76, 73
1, 733021, Control_c, 0, 64, 56
1, 733028, Note_on_c, 0, 67, 45
1, 733029, Note_on_c, 0, 53, 40
1, 733036, Control_c, 0, 64, 59
1, 733046, Note_off_c, 0, 74, 57
1, 733051, Control_c, 0, 64, 61
1, 733055, Note_off_c, 0, 67, 56
1, 733066, Control_c, 0, 64, 62
1, 733081, Control_c, 0, 64, 64
1, 733090, Note_off_c, 0, 53, 60
1, 733095, Control_c, 0, 64, 66
1, 733110, Control_c, 0, 64, 68
1, 733125, Control_c, 0, 64, 70
1, 733140, Control_c, 0, 64, 71
1, 733147, Note_off_c, 0, 76, 60
1, 733155, Control_c, 0, 64, 72
1, 733157, Note_on_c, 0, 77, 76
1, 733169, Control_c, 0, 64, 73
1, 733184, Control_c, 0, 64, 74
1, 733199, Control_c, 0, 64, 74
1, 733213, Control_c, 0, 64, 75
1, 733228, Control_c, 0, 64, 75
1, 733272, Poly_aftertouch_c, 0, 72, 0
1, 733280, Note_off_c, 0, 77, 50
1, 733289, Note_on_c, 0, 79, 75
1, 733362, Control_c, 0, 66, 0
1, 733397, Note_on_c, 0, 28, 59
1, 733424, Note_off_c, 0, 79, 62
1, 733465, Note_on_c, 0, 40, 49
1, 733466, Control_c, 0, 64, 74
1, 733481, Control_c, 0, 64, 66
1, 733495, Control_c, 0, 64, 51
1, 733510, Control_c, 0, 64, 0
1, 733510, Control_c, 0, 66, 127
1, 733520, Note_on_c, 0, 81, 63
1, 733615, Control_c, 0, 64, 37
1, 733621, Note_off_c, 0, 28, 60
1, 733630, Control_c, 0, 64, 52
1, 733644, Control_c, 0, 64, 59
1, 733659, Control_c, 0, 64, 62
1, 733674, Control_c, 0, 64, 63
1, 733684, Note_off_c, 0, 40, 61
1, 733689, Control_c, 0, 64, 64
1, 733704, Control_c, 0, 64, 64
1, 733725, Control_c, 0, 64, 65
1, 733740, Control_c, 0, 64, 65
1, 733758, Note_on_c, 0, 71, 59
1, 733770, Note_off_c, 0, 81, 54
1, 733874, Note_on_c, 0, 50, 62
1, 733885, Note_off_c, 0, 71, 37
1, 733889, Control_c, 0, 64, 65
1, 733893, Note_on_c, 0, 76, 64
1, 733904, Control_c, 0, 64, 64
1, 733918, Control_c, 0, 64, 63
1, 733933, Control_c, 0, 64, 62
1, 733948, Control_c, 0, 64, 61
1, 733962, Control_c, 0, 64, 60
1, 733973, Note_off_c, 0, 76, 60
1, 733977, Control_c, 0, 64, 59
1, 733992, Control_c, 0, 64, 58
1, 733997, Note_on_c, 0, 84, 73
1, 734007, Control_c, 0, 64, 57
1, 734022, Control_c, 0, 64, 56
1, 734083, Note_on_c, 0, 53, 80
1, 734110, Control_c, 0, 64, 56
1, 734125, Note_off_c, 0, 50, 57
1, 734165, Note_off_c, 0, 84, 61
1, 734196, Note_on_c, 0, 74, 71
1, 734244, Control_c, 0, 64, 55
1, 734274, Control_c, 0, 64, 55
1, 734281, Note_off_c, 0, 74, 57
1, 734292, Note_on_c, 0, 57, 86
1, 734313, Note_on_c, 0, 83, 68
1, 734318, Control_c, 0, 64, 54
1, 734333, Control_c, 0, 64, 54
1, 734335, Note_off_c, 0, 53, 60
1, 734348, Control_c, 0, 64, 53
1, 734393, Control_c, 0, 64, 53
1, 734396, Note_off_c, 0, 83, 57
1, 734417, Note_on_c, 0, 77, 71
1, 734423, Control_c, 0, 64, 52
1, 734438, Control_c, 0, 64, 52
1, 734453, Control_c, 0, 64, 51
1, 734474, Control_c, 0, 64, 50
1, 734489, Control_c, 0, 64, 49
1, 734504, Control_c, 0, 64, 49
1, 734515, Note_off_c, 0, 77, 60
1, 734519, Control_c, 0, 64, 48
1, 734520, Note_on_c, 0, 60, 90
1, 734530, Note_off_c, 0, 57, 63
1, 734534, Control_c, 0, 64, 47
1, 734536, Note_on_c, 0, 79, 70
1, 734548, Control_c, 0, 64, 46
1, 734563, Control_c, 0, 64, 45
1, 734578, Control_c, 0, 64, 44
1, 734593, Control_c, 0, 64, 44
1, 734600, Note_off_c, 0, 79, 64
1, 734608, Control_c, 0, 64, 43
1, 734623, Control_c, 0, 64, 42
1, 734637, Control_c, 0, 64, 42
1, 734646, Note_on_c, 0, 69, 64
1, 734652, Control_c, 0, 64, 41
1, 734713, Note_off_c, 0, 69, 48
1, 734752, Note_on_c, 0, 74, 72
1, 734800, Control_c, 0, 64, 39
1, 734815, Control_c, 0, 64, 35
1, 734830, Control_c, 0, 64, 29
1, 734838, Note_off_c, 0, 74, 62
1, 734845, Control_c, 0, 64, 0
1, 734866, Note_on_c, 0, 83, 77
1, 734889, Control_c, 0, 64, 33
1, 734904, Control_c, 0, 64, 41
1, 734919, Control_c, 0, 64, 50
1, 734934, Control_c, 0, 64, 57
1, 734948, Control_c, 0, 64, 60
1, 734963, Control_c, 0, 64, 61
1, 734978, Control_c, 0, 64, 62
1, 734992, Control_c, 0, 64, 62
1, 735022, Control_c, 0, 64, 63
1, 735055, Note_off_c, 0, 83, 57
1, 735098, Note_on_c, 0, 72, 59
1, 735165, Note_off_c, 0, 72, 51
1, 735171, Control_c, 0, 64, 62
1, 735186, Control_c, 0, 64, 60
1, 735201, Control_c, 0, 64, 55
1, 735207, Note_on_c, 0, 81, 61
1, 735218, Note_on_c, 0, 64, 84
1, 735223, Control_c, 0, 64, 50
1, 735238, Control_c, 0, 64, 44
1, 735248, Note_off_c, 0, 60, 60
1, 735253, Control_c, 0, 64, 39
1, 735268, Control_c, 0, 64, 37
1, 735295, Note_off_c, 0, 81, 59
1, 735297, Control_c, 0, 64, 37
1, 735312, Control_c, 0, 64, 40
1, 735327, Control_c, 0, 64, 43
1, 735341, Control_c, 0, 64, 49
1, 735344, Note_on_c, 0, 76, 55
1, 735356, Control_c, 0, 64, 53
1, 735371, Control_c, 0, 64, 55
1, 735386, Control_c, 0, 64, 56
1, 735415, Control_c, 0, 64, 56
1, 735416, Note_off_c, 0, 76, 57
1, 735437, Note_on_c, 0, 77, 68
1, 735475, Control_c, 0, 64, 57
1, 735490, Control_c, 0, 64, 57
1, 735494, Note_off_c, 0, 77, 63
1, 735505, Control_c, 0, 64, 58
1, 735535, Control_c, 0, 64, 58
1, 735538, Note_on_c, 0, 67, 65
1, 735549, Control_c, 0, 64, 58
1, 735564, Control_c, 0, 64, 56
1, 735579, Control_c, 0, 64, 54
1, 735593, Note_off_c, 0, 67, 52
1, 735594, Control_c, 0, 64, 51
1, 735609, Control_c, 0, 64, 50
1, 735623, Control_c, 0, 64, 49
1, 735624, Note_on_c, 0, 65, 80
1, 735638, Control_c, 0, 64, 50
1, 735640, Note_on_c, 0, 72, 68
1, 735648, Note_off_c, 0, 64, 62
1, 735653, Control_c, 0, 64, 50
1, 735683, Control_c, 0, 64, 51
1, 735710, Note_off_c, 0, 72, 58
1, 735743, Note_on_c, 0, 81, 68
1, 735756, Control_c, 0, 64, 50
1, 735800, Note_off_c, 0, 81, 63
1, 735801, Control_c, 0, 64, 50
1, 735815, Control_c, 0, 64, 49
1, 735833, Note_on_c, 0, 61, 79
1, 735845, Control_c, 0, 64, 49
1, 735855, Note_on_c, 0, 71, 69
1, 735860, Control_c, 0, 64, 48
1, 735866, Note_off_c, 0, 65, 57
1, 735889, Control_c, 0, 64, 47
1, 735916, Note_off_c, 0, 71, 59
1, 735946, Note_on_c, 0, 79, 67
1, 735972, Control_c, 0, 64, 47
1, 736002, Control_c, 0, 64, 46
1, 736030, Note_off_c, 0, 79, 57
1, 736032, Control_c, 0, 64, 46
1, 736045, Note_on_c, 0, 56, 76
1, 736046, Control_c, 0, 64, 45
1, 736061, Control_c, 0, 64, 45
1, 736062, Note_on_c, 0, 76, 69
1, 736062, Note_off_c, 0, 61, 64
1, 736076, Control_c, 0, 64, 44
1, 736104, Note_off_c, 0, 76, 61
1, 736106, Control_c, 0, 64, 44
1, 736135, Control_c, 0, 64, 43
1, 736150, Control_c, 0, 64, 43
1, 736158, Note_on_c, 0, 65, 70
1, 736164, Control_c, 0, 64, 42
1, 736179, Control_c, 0, 64, 41
1, 736194, Control_c, 0, 64, 39
1, 736196, Note_off_c, 0, 65, 61
1, 736209, Control_c, 0, 64, 36
1, 736224, Control_c, 0, 64, 33
1, 736238, Note_off_c, 0, 56, 61
1, 736238, Control_c, 0, 64, 30
1, 736253, Control_c, 0, 64, 0
1, 736260, Note_on_c, 0, 71, 82
1, 736265, Note_on_c, 0, 60, 73
1, 736310, Note_off_c, 0, 71, 61
1, 736357, Note_on_c, 0, 79, 58
1, 736424, Note_off_c, 0, 79, 62
1, 736442, Note_off_c, 0, 60, 54
1, 736468, Note_on_c, 0, 72, 75
1, 736468, Note_on_c, 0, 57, 70
1, 736507, Note_off_c, 0, 72, 62
1, 736572, Note_on_c, 0, 77, 53
1, 736617, Note_off_c, 0, 77, 59
1, 736664, Note_on_c, 0, 67, 74
1, 736669, Note_off_c, 0, 57, 61
1, 736678, Note_on_c, 0, 53, 60
1, 736712, Note_off_c, 0, 67, 59
1, 736772, Note_on_c, 0, 76, 53
1, 736808, Note_off_c, 0, 76, 58
1, 736879, Note_on_c, 0, 69, 67
1, 736883, Note_on_c, 0, 50, 66
1, 736888, Note_off_c, 0, 53, 61
1, 736899, Control_c, 0, 64, 43
1, 736914, Control_c, 0, 64, 52
1, 736929, Control_c, 0, 64, 58
1, 736931, Note_off_c, 0, 69, 53
1, 736936, Note_off_c, 0, 50, 62
1, 736943, Control_c, 0, 64, 60
1, 736958, Control_c, 0, 64, 61
1, 736970, Note_on_c, 0, 74, 72
1, 736987, Control_c, 0, 64, 61
1, 736995, Note_off_c, 0, 74, 67
1, 737002, Control_c, 0, 64, 62
1, 737069, Note_on_c, 0, 52, 77
1, 737080, Note_on_c, 0, 40, 66
1, 737100, Note_off_c, 0, 52, 65
1, 737106, Note_off_c, 0, 40, 60
1, 737165, Control_c, 0, 64, 60
1, 737180, Control_c, 0, 64, 55
1, 737183, Note_on_c, 0, 57, 71
1, 737195, Control_c, 0, 64, 49
1, 737210, Control_c, 0, 64, 40
1, 737225, Control_c, 0, 64, 30
1, 737228, Note_off_c, 0, 57, 60
1, 737240, Control_c, 0, 64, 0
1, 737276, Note_on_c, 0, 48, 75
1, 737294, Note_on_c, 0, 91, 83
1, 737357, Note_off_c, 0, 48, 60
1, 737395, Note_on_c, 0, 59, 69
1, 737513, Note_on_c, 0, 88, 86
1, 737553, Note_off_c, 0, 91, 61
1, 737589, Note_off_c, 0, 59, 58
1, 737606, Note_on_c, 0, 50, 65
1, 737696, Note_on_c, 0, 45, 63
1, 737708, Note_on_c, 0, 84, 90
1, 737712, Note_off_c, 0, 88, 66
1, 737720, Note_off_c, 0, 50, 48
1, 737778, Note_off_c, 0, 45, 62
1, 737800, Note_on_c, 0, 55, 76
1, 737867, Note_off_c, 0, 55, 61
1, 737916, Note_on_c, 0, 80, 90
1, 737919, Note_on_c, 0, 53, 72
1, 737937, Note_off_c, 0, 84, 59
1, 737982, Note_off_c, 0, 53, 63
1, 738022, Note_on_c, 0, 59, 74
1, 738082, Note_off_c, 0, 59, 56
1, 738125, Note_on_c, 0, 50, 68
1, 738158, Note_off_c, 0, 50, 65
1, 738243, Note_on_c, 0, 60, 85
1, 738307, Control_c, 0, 64, 28
1, 738322, Control_c, 0, 64, 31
1, 738337, Control_c, 0, 64, 32
1, 738352, Control_c, 0, 64, 34
1, 738367, Control_c, 0, 64, 34
1, 738445, Note_off_c, 0, 60, 58
1, 738462, Note_on_c, 0, 52, 62
1, 738515, Control_c, 0, 64, 34
1, 738530, Control_c, 0, 64, 33
1, 738555, Note_off_c, 0, 52, 58
1, 738559, Note_on_c, 0, 47, 62
1, 738562, Note_on_c, 0, 77, 77
1, 738574, Control_c, 0, 64, 33
1, 738589, Control_c, 0, 64, 32
1, 738604, Control_c, 0, 64, 32
1, 738627, Note_off_c, 0, 47, 58
1, 738627, Note_off_c, 0, 80, 52
1, 738648, Control_c, 0, 64, 30
1, 738668, Note_on_c, 0, 57, 62
1, 738707, Control_c, 0, 64, 0
1, 738712, Note_off_c, 0, 57, 61
1, 738760, Note_on_c, 0, 56, 63
1, 738810, Note_off_c, 0, 56, 56
1, 738862, Note_on_c, 0, 60, 67
1, 738918, Note_off_c, 0, 60, 59
1, 738946, Note_off_c, 0, 77, 62
1, 738983, Note_on_c, 0, 52, 58
1, 738983, Note_on_c, 0, 76, 68
1, 739024, Note_off_c, 0, 52, 58
1, 739085, Note_on_c, 0, 62, 70
1, 739183, Note_on_c, 0, 81, 81
1, 739232, Note_off_c, 0, 76, 51
1, 739235, Control_c, 0, 64, 30
1, 739250, Control_c, 0, 64, 32
1, 739264, Control_c, 0, 64, 34
1, 739278, Note_off_c, 0, 62, 59
1, 739279, Control_c, 0, 64, 36
1, 739288, Note_on_c, 0, 53, 67
1, 739294, Control_c, 0, 64, 37
1, 739309, Control_c, 0, 64, 38
1, 739324, Control_c, 0, 64, 39
1, 739353, Control_c, 0, 64, 40
1, 739377, Note_on_c, 0, 48, 71
1, 739384, Note_off_c, 0, 53, 62
1, 739393, Note_off_c, 0, 81, 61
1, 739395, Note_on_c, 0, 84, 93
1, 739455, Note_off_c, 0, 48, 62
1, 739474, Note_on_c, 0, 59, 83
1, 739529, Note_off_c, 0, 59, 64
1, 739550, Note_off_c, 0, 84, 65
1, 739580, Note_on_c, 0, 80, 96
1, 739583, Note_on_c, 0, 57, 85
1, 739590, Control_c, 0, 64, 39
1, 739637, Note_off_c, 0, 57, 64
1, 739682, Note_on_c, 0, 62, 89
1, 739756, Note_off_c, 0, 62, 61
1, 739771, Note_off_c, 0, 80, 61
1, 739794, Note_on_c, 0, 53, 89
1, 739794, Note_on_c, 0, 84, 104
1, 739835, Control_c, 0, 64, 34
1, 739839, Note_off_c, 0, 53, 62
1, 739850, Control_c, 0, 64, 0
1, 739899, Note_on_c, 0, 63, 103
1, 739961, Note_off_c, 0, 84, 63
1, 740005, Note_on_c, 0, 88, 100
1, 740092, Note_on_c, 0, 59, 83
1, 740105, Note_off_c, 0, 63, 60
1, 740157, Note_off_c, 0, 59, 65
1, 740161, Control_c, 0, 64, 39
1, 740176, Control_c, 0, 64, 48
1, 740185, Note_off_c, 0, 88, 59
1, 740191, Control_c, 0, 64, 55
1, 740200, Note_on_c, 0, 92, 103
1, 740201, Note_on_c, 0, 51, 92
1, 740206, Control_c, 0, 64, 58
1, 740221, Control_c, 0, 64, 61
1, 740236, Control_c, 0, 64, 63
1, 740245, Note_off_c, 0, 92, 68
1, 740250, Note_off_c, 0, 51, 61
1, 740250, Control_c, 0, 64, 65
1, 740265, Control_c, 0, 64, 67
1, 740280, Control_c, 0, 64, 68
1, 740287, Note_on_c, 0, 65, 89
1, 740295, Control_c, 0, 64, 70
1, 740304, Note_off_c, 0, 65, 74
1, 740310, Control_c, 0, 64, 70
1, 740384, Control_c, 0, 64, 69
1, 740399, Control_c, 0, 64, 63
1, 740413, Control_c, 0, 64, 47
1, 740428, Control_c, 0, 64, 0
1, 740429, Note_on_c, 0, 28, 102
1, 740431, Note_on_c, 0, 40, 91
1, 740431, Note_on_c, 0, 76, 98
1, 740474, Note_off_c, 0, 28, 64
1, 740489, Note_off_c, 0, 40, 58
1, 740495, Control_c, 0, 64, 32
1, 740510, Control_c, 0, 64, 49
1, 740525, Control_c, 0, 64, 60
1, 740539, Control_c, 0, 64, 64
1, 740554, Control_c, 0, 64, 65
1, 740555, Note_on_c, 0, 81, 94
1, 740558, Note_off_c, 0, 76, 60
1, 740599, Control_c, 0, 64, 64
1, 740613, Control_c, 0, 64, 62
1, 740628, Control_c, 0, 64, 55
1, 740639, Note_off_c, 0, 81, 62
1, 740642, Control_c, 0, 64, 44
1, 740650, Note_on_c, 0, 53, 87
1, 740652, Note_on_c, 0, 65, 90
1, 740657, Control_c, 0, 64, 0
1, 740658, Note_on_c, 0, 72, 96
1, 740701, Control_c, 0, 64, 31
1, 740716, Control_c, 0, 64, 40
1, 740730, Note_off_c, 0, 72, 61
1, 740732, Control_c, 0, 64, 48
1, 740747, Control_c, 0, 64, 55
1, 740752, Note_on_c, 0, 83, 98
1, 740752, Note_off_c, 0, 65, 58
1, 740761, Control_c, 0, 64, 57
1, 740776, Control_c, 0, 64, 57
1, 740806, Control_c, 0, 64, 57
1, 740821, Control_c, 0, 64, 55
1, 740835, Control_c, 0, 64, 54
1, 740850, Note_on_c, 0, 62, 100
1, 740850, Control_c, 0, 64, 53
1, 740852, Note_on_c, 0, 50, 92
1, 740873, Note_off_c, 0, 53, 43
1, 740909, Control_c, 0, 64, 53
1, 740924, Control_c, 0, 64, 54
1, 740932, Note_on_c, 0, 74, 90
1, 740939, Control_c, 0, 64, 56
1, 740942, Note_off_c, 0, 83, 56
1, 740944, Note_off_c, 0, 62, 57
1, 740954, Control_c, 0, 64, 58
1, 740969, Control_c, 0, 64, 59
1, 740977, Note_off_c, 0, 50, 64
1, 740984, Control_c, 0, 64, 60
1, 741017, Note_off_c, 0, 74, 66
1, 741028, Control_c, 0, 64, 58
1, 741040, Note_on_c, 0, 59, 102
1, 741041, Note_on_c, 0, 47, 95
1, 741043, Control_c, 0, 64, 50
1, 741045, Note_on_c, 0, 69, 91
1, 741058, Control_c, 0, 64, 0
1, 741102, Note_off_c, 0, 69, 60
1, 741126, Note_off_c, 0, 59, 55
1, 741143, Note_on_c, 0, 79, 82
1, 741233, Note_off_c, 0, 47, 64
1, 741252, Note_on_c, 0, 55, 99
1, 741255, Note_on_c, 0, 43, 96
1, 741255, Note_on_c, 0, 77, 94
1, 741275, Note_off_c, 0, 79, 57
1, 741345, Note_off_c, 0, 77, 62
1, 741351, Note_on_c, 0, 83, 89
1, 741424, Note_off_c, 0, 83, 63
1, 741449, Note_on_c, 0, 74, 88
1, 741508, Note_off_c, 0, 74, 63
1, 741555, Note_on_c, 0, 84, 101
1, 741596, Note_off_c, 0, 55, 57
1, 741599, Control_c, 0, 64, 31
1, 741614, Control_c, 0, 64, 53
1, 741629, Control_c, 0, 64, 59
1, 741644, Control_c, 0, 64, 59
1, 741658, Control_c, 0, 64, 60
1, 741673, Control_c, 0, 64, 62
1, 741688, Control_c, 0, 64, 64
1, 741703, Control_c, 0, 64, 65
1, 741718, Control_c, 0, 64, 67
1, 741732, Control_c, 0, 64, 68
1, 741747, Control_c, 0, 64, 70
1, 741760, Note_on_c, 0, 76, 86
1, 741762, Note_off_c, 0, 84, 56
1, 741762, Control_c, 0, 64, 72
1, 741777, Control_c, 0, 64, 73
1, 741792, Control_c, 0, 64, 73
1, 741830, Note_off_c, 0, 76, 63
1, 741836, Control_c, 0, 64, 71
1, 741842, Note_off_c, 0, 43, 61
1, 741851, Note_on_c, 0, 71, 94
1, 741851, Control_c, 0, 64, 61
1, 741852, Note_on_c, 0, 40, 84
1, 741854, Note_on_c, 0, 52, 101
1, 741866, Control_c, 0, 64, 28
1, 741881, Control_c, 0, 64, 0
1, 741900, Note_off_c, 0, 71, 62
1, 741944, Note_on_c, 0, 81, 88
1, 741976, Control_c, 0, 64, 49
1, 741991, Control_c, 0, 64, 58
1, 742003, Note_off_c, 0, 40, 61
1, 742006, Control_c, 0, 64, 61
1, 742021, Control_c, 0, 64, 62
1, 742036, Control_c, 0, 64, 63
1, 742037, Note_off_c, 0, 52, 65
1, 742048, Note_on_c, 0, 79, 86
1, 742051, Control_c, 0, 64, 64
1, 742058, Note_off_c, 0, 81, 58
1, 742066, Control_c, 0, 64, 65
1, 742081, Control_c, 0, 64, 68
1, 742096, Control_c, 0, 64, 70
1, 742110, Control_c, 0, 64, 72
1, 742125, Control_c, 0, 64, 73
1, 742130, Note_off_c, 0, 79, 62
1, 742142, Note_on_c, 0, 84, 94
1, 742170, Control_c, 0, 64, 73
1, 742185, Control_c, 0, 64, 70
1, 742200, Control_c, 0, 64, 66
1, 742215, Control_c, 0, 64, 63
1, 742223, Note_off_c, 0, 84, 65
1, 742229, Note_on_c, 0, 72, 96
1, 742230, Control_c, 0, 64, 63
1, 742233, Note_on_c, 0, 60, 79
1, 742241, Note_on_c, 0, 62, 80
1, 742243, Note_on_c, 0, 76, 94
1, 742245, Control_c, 0, 64, 64
1, 742259, Control_c, 0, 64, 66
1, 742274, Control_c, 0, 64, 68
1, 742289, Control_c, 0, 64, 69
1, 742303, Note_off_c, 0, 76, 63
1, 742318, Note_off_c, 0, 72, 57
1, 742333, Note_on_c, 0, 86, 86
1, 742348, Note_off_c, 0, 62, 32
1, 742379, Control_c, 0, 64, 65
1, 742394, Control_c, 0, 64, 55
1, 742408, Control_c, 0, 64, 34
1, 742423, Note_on_c, 0, 69, 101
1, 742423, Control_c, 0, 64, 0
1, 742424, Note_on_c, 0, 83, 81
1, 742427, Note_off_c, 0, 86, 65
1, 742429, Note_on_c, 0, 57, 96
1, 742452, Note_off_c, 0, 60, 65
1, 742468, Control_c, 0, 64, 41
1, 742482, Control_c, 0, 64, 56
1, 742497, Control_c, 0, 64, 64
1, 742504, Note_off_c, 0, 83, 63
1, 742512, Control_c, 0, 64, 68
1, 742523, Note_on_c, 0, 72, 84
1, 742526, Control_c, 0, 64, 72
1, 742531, Note_off_c, 0, 69, 58
1, 742541, Control_c, 0, 64, 74
1, 742550, Note_off_c, 0, 57, 65
1, 742586, Control_c, 0, 64, 73
1, 742592, Note_off_c, 0, 72, 61
1, 742600, Control_c, 0, 64, 70
1, 742614, Note_on_c, 0, 65, 100
1, 742614, Note_on_c, 0, 53, 99
1, 742615, Control_c, 0, 64, 67
1, 742624, Note_on_c, 0, 81, 88
1, 742630, Control_c, 0, 64, 66
1, 742660, Control_c, 0, 64, 67
1, 742674, Control_c, 0, 64, 71
1, 742689, Control_c, 0, 64, 75
1, 742712, Note_off_c, 0, 65, 59
1, 742712, Control_c, 0, 64, 77
1, 742718, Note_off_c, 0, 81, 64
1, 742722, Note_on_c, 0, 86, 85
1, 742726, Control_c, 0, 64, 78
1, 742765, Note_off_c, 0, 53, 63
1, 742771, Control_c, 0, 64, 75
1, 742786, Control_c, 0, 64, 65
1, 742800, Control_c, 0, 64, 32
1, 742806, Note_off_c, 0, 86, 65
1, 742815, Control_c, 0, 64, 0
1, 742817, Note_on_c, 0, 62, 107
1, 742818, Note_on_c, 0, 50, 102
1, 742824, Note_on_c, 0, 77, 97
1, 742895, Note_off_c, 0, 77, 62
1, 742904, Control_c, 0, 64, 41
1, 742919, Control_c, 0, 64, 61
1, 742920, Note_on_c, 0, 88, 93
1, 742933, Control_c, 0, 64, 64
1, 742948, Control_c, 0, 64, 65
1, 742963, Control_c, 0, 64, 66
1, 742978, Control_c, 0, 64, 67
1, 742993, Control_c, 0, 64, 69
1, 743006, Note_off_c, 0, 62, 63
1, 743008, Control_c, 0, 64, 70
1, 743014, Note_off_c, 0, 50, 64
1, 743015, Note_on_c, 0, 84, 89
1, 743023, Control_c, 0, 64, 72
1, 743032, Note_off_c, 0, 88, 61
1, 743038, Control_c, 0, 64, 74
1, 743052, Control_c, 0, 64, 77
1, 743067, Control_c, 0, 64, 80
1, 743073, Poly_aftertouch_c, 0, 51, 127
1, 743076, Note_off_c, 0, 84, 65
1, 743082, Control_c, 0, 64, 85
1, 743092, Note_on_c, 0, 74, 94
1, 743097, Control_c, 0, 64, 92
1, 743103, Poly_aftertouch_c, 0, 51, 0
1, 743112, Control_c, 0, 64, 99
1, 743127, Control_c, 0, 64, 104
1, 743166, Note_off_c, 0, 74, 54
1, 743172, Control_c, 0, 64, 97
1, 743187, Control_c, 0, 64, 73
1, 743200, Note_on_c, 0, 58, 115
1, 743201, Note_on_c, 0, 46, 104
1, 743202, Control_c, 0, 64, 0
1, 743209, Note_on_c, 0, 82, 89
1, 743291, Control_c, 0, 64, 55
1, 743291, Note_on_c, 0, 88, 89
1, 743294, Note_off_c, 0, 82, 64
1, 743305, Control_c, 0, 64, 72
1, 743311, Note_off_c, 0, 46, 64
1, 743320, Control_c, 0, 64, 76
1, 743327, Note_off_c, 0, 58, 64
1, 743335, Control_c, 0, 64, 78
1, 743345, Note_off_c, 0, 88, 65
1, 743349, Control_c, 0, 64, 80
1, 743364, Control_c, 0, 64, 82
1, 743372, Note_on_c, 0, 79, 82
1, 743379, Control_c, 0, 64, 83
1, 743394, Control_c, 0, 64, 84
1, 743409, Control_c, 0, 64, 86
1, 743423, Control_c, 0, 64, 88
1, 743424, Note_on_c, 0, 89, 80
1, 743428, Note_off_c, 0, 79, 66
1, 743438, Control_c, 0, 64, 91
1, 743461, Control_c, 0, 64, 92
1, 743476, Control_c, 0, 64, 95
1, 743476, Control_c, 0, 66, 0
1, 743486, Note_off_c, 0, 89, 66
1, 743491, Control_c, 0, 64, 109
1, 743505, Control_c, 0, 64, 127
1, 743509, Note_on_c, 0, 75, 88
1, 743552, Note_off_c, 0, 75, 66
1, 743561, Note_on_c, 0, 86, 92
1, 743591, Note_off_c, 0, 86, 71
1, 743594, Control_c, 0, 64, 74
1, 743609, Control_c, 0, 64, 0
1, 743623, Note_on_c, 0, 76, 112
1, 743623, Note_on_c, 0, 77, 103
1, 743626, Note_on_c, 0, 64, 101
1, 743627, Note_on_c, 0, 65, 95
1, 743652, Control_c, 0, 66, 127
1, 743727, Note_on_c, 0, 100, 101
1, 743728, Note_on_c, 0, 87, 108
1, 743755, Note_on_c, 0, 88, 61
1, 743755, Control_c, 0, 64, 54
1, 743765, Note_off_c, 0, 76, 57
1, 743768, Note_off_c, 0, 64, 65
1, 743769, Note_off_c, 0, 77, 60
1, 743770, Control_c, 0, 64, 66
1, 743774, Note_off_c, 0, 88, 64
1, 743778, Note_off_c, 0, 65, 60
1, 743779, Note_off_c, 0, 100, 63
1, 743785, Control_c, 0, 64, 66
1, 743797, Note_on_c, 0, 99, 6
1, 743797, Note_off_c, 0, 99, 127
1, 743800, Control_c, 0, 64, 67
1, 743815, Control_c, 0, 64, 68
1, 743829, Control_c, 0, 64, 70
1, 743833, Note_on_c, 0, 94, 93
1, 743844, Control_c, 0, 64, 71
1, 743845, Note_off_c, 0, 87, 28
1, 743859, Control_c, 0, 64, 71
1, 743862, Note_on_c, 0, 92, 54
1, 743873, Control_c, 0, 64, 72
1, 743884, Note_off_c, 0, 92, 57
1, 743886, Note_off_c, 0, 94, 62
1, 743888, Control_c, 0, 64, 73
1, 743903, Control_c, 0, 64, 75
1, 743918, Control_c, 0, 64, 77
1, 743926, Note_on_c, 0, 99, 96
1, 743934, Note_on_c, 0, 88, 90
1, 743934, Control_c, 0, 64, 79
1, 743949, Control_c, 0, 64, 80
1, 743964, Control_c, 0, 64, 80
1, 743978, Control_c, 0, 64, 81
1, 743983, Note_off_c, 0, 88, 66
1, 743984, Note_off_c, 0, 99, 65
1, 743993, Control_c, 0, 64, 81
1, 744023, Control_c, 0, 64, 82
1, 744025, Note_on_c, 0, 95, 99
1, 744114, Note_on_c, 0, 83, 97
1, 744115, Note_off_c, 0, 95, 59
1, 744120, Note_on_c, 0, 98, 107
1, 744122, Note_on_c, 0, 89, 97
1, 744153, Note_off_c, 0, 89, 64
1, 744166, Note_off_c, 0, 98, 67
1, 744223, Control_c, 0, 64, 81
1, 744225, Note_on_c, 0, 84, 93
1, 744230, Note_off_c, 0, 83, 62
1, 744322, Note_on_c, 0, 83, 91
1, 744328, Note_off_c, 0, 84, 65
1, 744413, Note_on_c, 0, 86, 94
1, 744422, Note_off_c, 0, 83, 64
1, 744430, Control_c, 0, 64, 73
1, 744445, Control_c, 0, 64, 59
1, 744460, Control_c, 0, 64, 30
1, 744474, Control_c, 0, 64, 0
1, 744497, Note_on_c, 0, 88, 83
1, 744504, Control_c, 0, 64, 44
1, 744505, Note_on_c, 0, 75, 92
1, 744507, Note_on_c, 0, 83, 89
1, 744519, Control_c, 0, 64, 58
1, 744531, Note_off_c, 0, 86, 66
1, 744534, Control_c, 0, 64, 65
1, 744537, Note_on_c, 0, 87, 41
1, 744549, Control_c, 0, 64, 68
1, 744558, Note_off_c, 0, 83, 65
1, 744561, Note_off_c, 0, 75, 57
1, 744564, Control_c, 0, 64, 70
1, 744564, Note_off_c, 0, 87, 49
1, 744567, Note_off_c, 0, 88, 62
1, 744578, Control_c, 0, 64, 71
1, 744611, Note_on_c, 0, 82, 84
1, 744696, Control_c, 0, 64, 72
1, 744702, Note_off_c, 0, 82, 55
1, 744719, Note_on_c, 0, 87, 89
1, 744725, Note_on_c, 0, 76, 90
1, 744727, Control_c, 0, 64, 73
1, 744742, Control_c, 0, 64, 75
1, 744757, Control_c, 0, 64, 75
1, 744772, Control_c, 0, 64, 76
1, 744775, Note_off_c, 0, 76, 63
1, 744793, Note_off_c, 0, 87, 62
1, 744801, Control_c, 0, 64, 75
1, 744816, Control_c, 0, 64, 69
1, 744819, Note_on_c, 0, 83, 87
1, 744831, Control_c, 0, 64, 55
1, 744846, Control_c, 0, 64, 34
1, 744861, Control_c, 0, 64, 0
1, 744875, Control_c, 0, 64, 29
1, 744890, Control_c, 0, 64, 46
1, 744905, Control_c, 0, 64, 60
1, 744912, Note_on_c, 0, 71, 93
1, 744913, Note_on_c, 0, 77, 101
1, 744913, Note_on_c, 0, 86, 96
1, 744919, Control_c, 0, 64, 65
1, 744925, Note_off_c, 0, 83, 55
1, 744934, Note_on_c, 0, 85, 62
1, 744934, Control_c, 0, 64, 69
1, 744957, Control_c, 0, 64, 70
1, 744960, Note_off_c, 0, 77, 65
1, 744960, Note_off_c, 0, 85, 61
1, 744972, Control_c, 0, 64, 70
1, 744974, Note_off_c, 0, 86, 67
1, 745021, Note_on_c, 0, 72, 88
1, 745023, Note_off_c, 0, 71, 60
1, 745115, Note_on_c, 0, 71, 94
1, 745118, Note_off_c, 0, 72, 64
1, 745179, Control_c, 0, 64, 71
1, 745208, Control_c, 0, 64, 70
1, 745212, Note_on_c, 0, 74, 96
1, 745215, Note_off_c, 0, 71, 62
1, 745223, Control_c, 0, 64, 67
1, 745238, Control_c, 0, 64, 57
1, 745253, Control_c, 0, 64, 0
1, 745291, Note_on_c, 0, 76, 89
1, 745297, Note_on_c, 0, 63, 101
1, 745297, Control_c, 0, 64, 28
1, 745299, Note_on_c, 0, 71, 88
1, 745312, Control_c, 0, 64, 46
1, 745318, Note_off_c, 0, 74, 62
1, 745327, Control_c, 0, 64, 56
1, 745342, Control_c, 0, 64, 61
1, 745348, Note_off_c, 0, 71, 64
1, 745349, Note_off_c, 0, 63, 62
1, 745359, Note_off_c, 0, 76, 60
1, 745401, Control_c, 0, 64, 61
1, 745407, Note_on_c, 0, 70, 71
1, 745460, Control_c, 0, 64, 60
1, 745508, Note_off_c, 0, 70, 63
1, 745512, Note_on_c, 0, 75, 81
1, 745529, Note_on_c, 0, 64, 74
1, 745536, Control_c, 0, 64, 61
1, 745550, Control_c, 0, 64, 61
1, 745565, Control_c, 0, 64, 62
1, 745572, Note_off_c, 0, 64, 56
1, 745580, Control_c, 0, 64, 62
1, 745584, Note_off_c, 0, 75, 63
1, 745610, Control_c, 0, 64, 63
1, 745623, Note_on_c, 0, 71, 75
1, 745639, Control_c, 0, 64, 62
1, 745654, Control_c, 0, 64, 51
1, 745669, Control_c, 0, 64, 0
1, 745708, Note_on_c, 0, 59, 96
1, 745716, Note_on_c, 0, 65, 98
1, 745717, Note_on_c, 0, 74, 97
1, 745765, Control_c, 0, 64, 43
1, 745770, Note_on_c, 0, 73, 13
1, 745780, Control_c, 0, 64, 53
1, 745795, Control_c, 0, 64, 58
1, 745799, Note_off_c, 0, 65, 60
1, 745800, Note_off_c, 0, 74, 65
1, 745810, Control_c, 0, 64, 60
1, 745813, Note_off_c, 0, 73, 29
1, 745815, Note_on_c, 0, 60, 88
1, 745816, Note_off_c, 0, 71, 61
1, 745819, Note_off_c, 0, 59, 63
1, 745869, Control_c, 0, 64, 60
1, 745899, Control_c, 0, 64, 61
1, 745914, Note_on_c, 0, 59, 87
1, 745914, Control_c, 0, 64, 61
1, 745924, Note_off_c, 0, 60, 60
1, 745929, Control_c, 0, 64, 62
1, 745944, Control_c, 0, 64, 62
1, 745958, Control_c, 0, 64, 63
1, 745973, Control_c, 0, 64, 63
1, 745988, Control_c, 0, 64, 64
1, 746015, Note_on_c, 0, 62, 89
1, 746015, Note_off_c, 0, 59, 63
1, 746032, Control_c, 0, 64, 62
1, 746047, Control_c, 0, 64, 49
1, 746062, Control_c, 0, 64, 0
1, 746105, Note_on_c, 0, 59, 88
1, 746110, Note_on_c, 0, 64, 90
1, 746112, Note_on_c, 0, 51, 98
1, 746127, Note_off_c, 0, 62, 63
1, 746150, Control_c, 0, 64, 40
1, 746152, Note_off_c, 0, 59, 66
1, 746165, Control_c, 0, 64, 56
1, 746169, Note_off_c, 0, 51, 60
1, 746174, Note_on_c, 0, 58, 3
1, 746178, Note_off_c, 0, 64, 58
1, 746180, Control_c, 0, 64, 57
1, 746210, Control_c, 0, 64, 58
1, 746220, Note_off_c, 0, 58, 0
1, 746220, Note_on_c, 0, 58, 50
1, 746224, Control_c, 0, 64, 59
1, 746239, Control_c, 0, 64, 61
1, 746254, Control_c, 0, 64, 62
1, 746269, Control_c, 0, 64, 64
1, 746284, Control_c, 0, 64, 65
1, 746284, Control_c, 0, 66, 0
1, 746299, Control_c, 0, 64, 66
1, 746316, Note_on_c, 0, 63, 87
1, 746317, Note_off_c, 0, 58, 62
1, 746329, Control_c, 0, 64, 65
1, 746335, Note_on_c, 0, 52, 83
1, 746344, Control_c, 0, 64, 59
1, 746359, Control_c, 0, 64, 45
1, 746373, Control_c, 0, 64, 44
1, 746379, Note_on_c, 0, 64, 6
1, 746381, Note_off_c, 0, 63, 63
1, 746385, Note_off_c, 0, 52, 60
1, 746388, Control_c, 0, 64, 48
1, 746403, Control_c, 0, 64, 57
1, 746418, Control_c, 0, 64, 62
1, 746427, Note_on_c, 0, 59, 80
1, 746432, Note_off_c, 0, 64, 27
1, 746433, Control_c, 0, 64, 65
1, 746455, Control_c, 0, 64, 67
1, 746470, Control_c, 0, 64, 68
1, 746514, Control_c, 0, 64, 66
1, 746521, Note_on_c, 0, 53, 86
1, 746525, Note_on_c, 0, 62, 83
1, 746529, Control_c, 0, 64, 58
1, 746532, Note_off_c, 0, 59, 63
1, 746543, Note_on_c, 0, 52, 93
1, 746544, Control_c, 0, 64, 31
1, 746546, Note_off_c, 0, 53, 67
1, 746551, Note_on_c, 0, 40, 79
1, 746559, Control_c, 0, 64, 0
1, 746571, Note_off_c, 0, 52, 65
1, 746575, Note_off_c, 0, 40, 65
1, 746579, Note_off_c, 0, 62, 64
1, 746645, Note_on_c, 0, 53, 93
1, 746649, Note_on_c, 0, 41, 90
1, 746679, Note_off_c, 0, 41, 67
1, 746681, Note_off_c, 0, 53, 64
1, 746736, Note_on_c, 0, 55, 96
1, 746749, Note_on_c, 0, 43, 67
1, 746768, Note_off_c, 0, 55, 63
1, 746781, Note_off_c, 0, 43, 64
1, 746829, Note_on_c, 0, 57, 99
1, 746832, Note_on_c, 0, 59, 90
1, 746834, Note_on_c, 0, 64, 81
1, 746835, Note_on_c, 0, 45, 92
1, 746835, Note_on_c, 0, 69, 88
1, 746844, Note_on_c, 0, 62, 70
1, 746850, Note_off_c, 0, 57, 72
1, 746865, Note_off_c, 0, 45, 67
1, 746876, Note_on_c, 0, 63, 29
1, 746876, Note_off_c, 0, 63, 127
1, 746944, Note_on_c, 0, 33, 98
1, 746946, Note_off_c, 0, 59, 59
1, 746947, Note_on_c, 0, 47, 81
1, 746954, Note_on_c, 0, 45, 80
1, 746966, Note_off_c, 0, 33, 68
1, 746972, Note_off_c, 0, 47, 69
1, 746976, Note_off_c, 0, 45, 64
1, 747032, Note_on_c, 0, 50, 103
1, 747040, Note_on_c, 0, 38, 82
1, 747044, Note_off_c, 0, 62, 52
1, 747048, Note_on_c, 0, 36, 67
1, 747062, Note_off_c, 0, 38, 67
1, 747065, Note_off_c, 0, 50, 67
1, 747074, Note_off_c, 0, 36, 58
1, 747147, Note_on_c, 0, 60, 107
1, 747150, Note_on_c, 0, 48, 113
1, 747181, Control_c, 0, 64, 43
1, 747202, Note_off_c, 0, 60, 64
1, 747203, Control_c, 0, 64, 65
1, 747218, Control_c, 0, 64, 69
1, 747222, Note_off_c, 0, 48, 62
1, 747233, Control_c, 0, 64, 73
1, 747248, Control_c, 0, 64, 75
1, 747263, Control_c, 0, 64, 78
1, 747277, Control_c, 0, 64, 81
1, 747292, Control_c, 0, 64, 83
1, 747307, Control_c, 0, 64, 84
1, 747347, Note_on_c, 0, 38, 85
1, 747347, Note_on_c, 0, 52, 88
1, 747350, Note_on_c, 0, 50, 84
1, 747367, Note_on_c, 0, 40, 59
1, 747368, Note_off_c, 0, 38, 66
1, 747369, Note_off_c, 0, 52, 70
1, 747372, Note_off_c, 0, 50, 69
1, 747383, Note_off_c, 0, 64, 62
1, 747395, Note_off_c, 0, 40, 59
1, 747405, Note_off_c, 0, 69, 61
1, 747412, Poly_aftertouch_c, 0, 66, 0
1, 747445, Note_on_c, 0, 59, 105
1, 747452, Note_on_c, 0, 47, 93
1, 747473, Note_off_c, 0, 59, 62
1, 747477, Note_off_c, 0, 47, 65
1, 747500, Control_c, 0, 64, 84
1, 747514, Control_c, 0, 64, 84
1, 747529, Control_c, 0, 64, 79
1, 747544, Control_c, 0, 64, 65
1, 747548, Note_on_c, 0, 53, 97
1, 747559, Control_c, 0, 64, 37
1, 747563, Note_on_c, 0, 40, 70
1, 747571, Note_on_c, 0, 41, 63
1, 747574, Control_c, 0, 64, 0
1, 747575, Note_off_c, 0, 53, 66
1, 747584, Note_off_c, 0, 40, 65
1, 747600, Note_off_c, 0, 41, 65
1, 747637, Note_on_c, 0, 71, 76
1, 747638, Note_on_c, 0, 55, 102
1, 747640, Note_on_c, 0, 60, 94
1, 747640, Note_on_c, 0, 43, 92
1, 747643, Note_on_c, 0, 65, 78
1, 747650, Note_on_c, 0, 45, 80
1, 747654, Note_on_c, 0, 64, 71
1, 747664, Note_off_c, 0, 55, 66
1, 747667, Note_off_c, 0, 45, 64
1, 747673, Note_off_c, 0, 43, 67
1, 747750, Note_on_c, 0, 33, 98
1, 747750, Note_on_c, 0, 45, 100
1, 747780, Note_off_c, 0, 45, 66
1, 747783, Note_off_c, 0, 33, 62
1, 747851, Note_on_c, 0, 47, 90
1, 747852, Note_on_c, 0, 48, 101
1, 747855, Note_on_c, 0, 35, 83
1, 747872, Note_off_c, 0, 47, 67
1, 747872, Note_off_c, 0, 48, 74
1, 747878, Note_off_c, 0, 35, 39
1, 747963, Note_on_c, 0, 59, 112
1, 747976, Note_on_c, 0, 45, 93
1, 747984, Note_on_c, 0, 47, 60
1, 747997, Control_c, 0, 64, 42
1, 747998, Note_off_c, 0, 59, 69
1, 748002, Note_on_c, 0, 49, 43
1, 748012, Control_c, 0, 64, 65
1, 748015, Note_off_c, 0, 45, 62
1, 748026, Control_c, 0, 64, 69
1, 748027, Note_off_c, 0, 47, 52
1, 748036, Note_off_c, 0, 49, 51
1, 748041, Control_c, 0, 64, 73
1, 748056, Control_c, 0, 64, 74
1, 748071, Control_c, 0, 64, 76
1, 748086, Control_c, 0, 64, 77
1, 748100, Control_c, 0, 64, 78
1, 748115, Control_c, 0, 64, 79
1, 748167, Note_on_c, 0, 48, 105
1, 748171, Note_on_c, 0, 36, 97
1, 748190, Note_off_c, 0, 60, 57
1, 748194, Note_off_c, 0, 36, 71
1, 748199, Note_off_c, 0, 48, 63
1, 748209, Note_off_c, 0, 65, 60
1, 748212, Note_off_c, 0, 64, 63
1, 748249, Note_off_c, 0, 71, 63
1, 748275, Note_on_c, 0, 57, 104
1, 748278, Note_on_c, 0, 45, 96
1, 748302, Note_on_c, 0, 47, 54
1, 748310, Note_off_c, 0, 57, 64
1, 748311, Note_off_c, 0, 45, 65
1, 748332, Note_off_c, 0, 47, 58
1, 748337, Control_c, 0, 64, 78
1, 748352, Control_c, 0, 64, 70
1, 748367, Control_c, 0, 64, 54
1, 748378, Note_on_c, 0, 72, 24
1, 748379, Note_on_c, 0, 40, 90
1, 748379, Note_on_c, 0, 52, 99
1, 748382, Control_c, 0, 64, 0
1, 748409, Note_off_c, 0, 52, 67
1, 748412, Note_off_c, 0, 72, 44
1, 748418, Note_off_c, 0, 40, 62
1, 748466, Note_on_c, 0, 69, 82
1, 748471, Note_on_c, 0, 62, 92
1, 748472, Note_on_c, 0, 72, 94
1, 748478, Note_on_c, 0, 53, 95
1, 748479, Note_on_c, 0, 67, 78
1, 748481, Note_on_c, 0, 41, 87
1, 748492, Note_on_c, 0, 43, 75
1, 748502, Note_off_c, 0, 53, 66
1, 748513, Note_off_c, 0, 43, 52
1, 748514, Note_off_c, 0, 41, 67
1, 748584, Note_on_c, 0, 43, 93
1, 748588, Note_on_c, 0, 31, 95
1, 748611, Note_off_c, 0, 31, 72
1, 748612, Note_off_c, 0, 43, 68
1, 748627, Note_on_c, 0, 34, 30
1, 748675, Note_off_c, 0, 34, 29
1, 748677, Note_on_c, 0, 47, 98
1, 748678, Note_on_c, 0, 35, 91
1, 748694, Note_on_c, 0, 45, 80
1, 748707, Note_off_c, 0, 35, 67
1, 748707, Note_off_c, 0, 47, 72
1, 748713, Note_off_c, 0, 45, 61
1, 748792, Note_on_c, 0, 47, 97
1, 748793, Note_on_c, 0, 57, 96
1, 748793, Note_on_c, 0, 59, 102
1, 748815, Note_on_c, 0, 45, 43
1, 748815, Note_off_c, 0, 45, 127
1, 748819, Note_off_c, 0, 59, 68
1, 748820, Control_c, 0, 64, 56
1, 748830, Note_off_c, 0, 57, 66
1, 748835, Control_c, 0, 64, 71
1, 748838, Note_off_c, 0, 47, 66
1, 748849, Control_c, 0, 64, 74
1, 748864, Control_c, 0, 64, 76
1, 748880, Control_c, 0, 64, 78
1, 748894, Control_c, 0, 64, 85
1, 748909, Control_c, 0, 64, 93
1, 748924, Control_c, 0, 64, 102
1, 748939, Control_c, 0, 64, 110
1, 748954, Control_c, 0, 64, 118
1, 748977, Note_on_c, 0, 50, 105
1, 748979, Note_on_c, 0, 38, 97
1, 748983, Control_c, 0, 64, 114
1, 748998, Control_c, 0, 64, 89
1, 749002, Note_off_c, 0, 38, 68
1, 749008, Note_off_c, 0, 50, 66
1, 749013, Control_c, 0, 64, 62
1, 749028, Control_c, 0, 64, 0
1, 749069, Note_off_c, 0, 67, 59
1, 749080, Note_off_c, 0, 62, 61
1, 749083, Note_off_c, 0, 69, 61
1, 749086, Note_on_c, 0, 55, 106
1, 749089, Note_on_c, 0, 43, 99
1, 749102, Note_off_c, 0, 72, 65
1, 749116, Note_off_c, 0, 55, 69
1, 749123, Note_off_c, 0, 43, 64
1, 749179, Note_on_c, 0, 35, 112
1, 749181, Note_on_c, 0, 47, 99
1, 749199, Note_off_c, 0, 47, 72
1, 749204, Note_on_c, 0, 62, 44
1, 749208, Note_on_c, 0, 74, 44
1, 749217, Note_off_c, 0, 35, 66
1, 749230, Note_off_c, 0, 62, 56
1, 749234, Note_off_c, 0, 74, 52
1, 749279, Poly_aftertouch_c, 0, 36, 0
1, 749289, Note_on_c, 0, 40, 98
1, 749291, Note_on_c, 0, 74, 102
1, 749292, Note_on_c, 0, 28, 97
1, 749292, Note_on_c, 0, 35, 92
1, 749306, Note_on_c, 0, 62, 56
1, 749306, Note_on_c, 0, 64, 66
1, 749309, Control_c, 0, 66, 127
1, 749321, Note_off_c, 0, 28, 66
1, 749322, Note_on_c, 0, 29, 46
1, 749324, Note_off_c, 0, 64, 66
1, 749327, Note_off_c, 0, 74, 70
1, 749329, Note_off_c, 0, 35, 58
1, 749330, Note_off_c, 0, 62, 60
1, 749339, Control_c, 0, 64, 51
1, 749342, Note_off_c, 0, 40, 57
1, 749354, Control_c, 0, 64, 63
1, 749364, Note_off_c, 0, 29, 52
1, 749368, Control_c, 0, 64, 65
1, 749383, Control_c, 0, 64, 68
1, 749398, Control_c, 0, 64, 71
1, 749406, Note_on_c, 0, 88, 105
1, 749408, Note_on_c, 0, 76, 96
1, 749412, Control_c, 0, 64, 74
1, 749427, Control_c, 0, 64, 76
1, 749432, Note_off_c, 0, 76, 66
1, 749449, Note_off_c, 0, 88, 68
1, 749450, Control_c, 0, 64, 77
1, 749464, Control_c, 0, 64, 78
1, 749479, Control_c, 0, 64, 79
1, 749494, Control_c, 0, 64, 80
1, 749509, Control_c, 0, 64, 81
1, 749512, Note_on_c, 0, 77, 99
1, 749513, Note_on_c, 0, 89, 98
1, 749524, Control_c, 0, 64, 82
1, 749539, Control_c, 0, 64, 83
1, 749548, Note_off_c, 0, 77, 68
1, 749552, Note_off_c, 0, 89, 67
1, 749554, Control_c, 0, 64, 84
1, 749569, Control_c, 0, 64, 85
1, 749584, Control_c, 0, 64, 86
1, 749599, Control_c, 0, 64, 88
1, 749609, Note_on_c, 0, 79, 99
1, 749612, Note_on_c, 0, 91, 105
1, 749614, Control_c, 0, 64, 89
1, 749628, Control_c, 0, 64, 91
1, 749643, Control_c, 0, 64, 93
1, 749646, Note_off_c, 0, 79, 68
1, 749649, Note_off_c, 0, 91, 67
1, 749658, Control_c, 0, 64, 96
1, 749673, Control_c, 0, 64, 98
1, 749688, Control_c, 0, 64, 100
1, 749703, Control_c, 0, 64, 102
1, 749705, Note_on_c, 0, 64, 96
1, 749706, Note_on_c, 0, 53, 98
1, 749706, Note_on_c, 0, 65, 94
1, 749710, Note_on_c, 0, 81, 106
1, 749711, Note_on_c, 0, 59, 88
1, 749712, Note_on_c, 0, 93, 106
1, 749717, Control_c, 0, 64, 104
1, 749717, Control_c, 0, 66, 0
1, 749723, Note_off_c, 0, 64, 73
1, 749723, Note_off_c, 0, 65, 73
1, 749730, Note_off_c, 0, 59, 72
1, 749732, Control_c, 0, 64, 106
1, 749745, Note_off_c, 0, 53, 63
1, 749762, Control_c, 0, 64, 108
1, 749783, Note_off_c, 0, 81, 57
1, 749787, Note_off_c, 0, 93, 56
1, 749808, Note_on_c, 0, 83, 98
1, 749875, Note_off_c, 0, 83, 64
1, 749911, Note_on_c, 0, 88, 97
1, 749948, Note_off_c, 0, 88, 67
1, 750010, Note_on_c, 0, 96, 110
1, 750012, Note_on_c, 0, 84, 104
1, 750058, Control_c, 0, 64, 105
1, 750073, Control_c, 0, 64, 82
1, 750087, Control_c, 0, 64, 57
1, 750097, Note_on_c, 0, 40, 101
1, 750098, Note_on_c, 0, 28, 104
1, 750102, Control_c, 0, 64, 0
1, 750132, Control_c, 0, 66, 127
1, 750163, Note_off_c, 0, 96, 62
1, 750175, Note_off_c, 0, 84, 62
1, 750177, Control_c, 0, 64, 30
1, 750178, Note_off_c, 0, 28, 65
1, 750198, Control_c, 0, 64, 62
1, 750213, Control_c, 0, 64, 70
1, 750214, Note_off_c, 0, 40, 64
1, 750228, Control_c, 0, 64, 73
1, 750236, Note_on_c, 0, 86, 97
1, 750242, Control_c, 0, 64, 74
1, 750257, Control_c, 0, 64, 76
1, 750272, Control_c, 0, 64, 78
1, 750287, Control_c, 0, 64, 79
1, 750290, Note_off_c, 0, 86, 67
1, 750302, Control_c, 0, 64, 79
1, 750318, Control_c, 0, 64, 80
1, 750333, Control_c, 0, 64, 82
1, 750335, Note_on_c, 0, 95, 99
1, 750336, Note_on_c, 0, 83, 104
1, 750347, Control_c, 0, 64, 85
1, 750362, Control_c, 0, 64, 87
1, 750375, Note_off_c, 0, 83, 65
1, 750377, Control_c, 0, 64, 90
1, 750392, Control_c, 0, 64, 93
1, 750399, Note_off_c, 0, 95, 61
1, 750407, Control_c, 0, 64, 95
1, 750421, Control_c, 0, 64, 98
1, 750433, Note_on_c, 0, 89, 90
1, 750436, Control_c, 0, 64, 100
1, 750466, Control_c, 0, 64, 103
1, 750474, Note_off_c, 0, 89, 65
1, 750496, Control_c, 0, 64, 106
1, 750511, Control_c, 0, 64, 108
1, 750526, Control_c, 0, 64, 110
1, 750526, Control_c, 0, 66, 0
1, 750526, Note_on_c, 0, 67, 104
1, 750531, Note_on_c, 0, 55, 86
1, 750531, Note_on_c, 0, 57, 91
1, 750535, Note_on_c, 0, 62, 88
1, 750537, Note_on_c, 0, 91, 111
1, 750538, Note_on_c, 0, 79, 103
1, 750540, Control_c, 0, 64, 114
1, 750555, Control_c, 0, 64, 122
1, 750555, Note_off_c, 0, 67, 68
1, 750570, Note_off_c, 0, 62, 62
1, 750570, Control_c, 0, 64, 127
1, 750578, Note_off_c, 0, 57, 65
1, 750579, Note_off_c, 0, 55, 62
1, 750599, Note_off_c, 0, 79, 55
1, 750631, Note_on_c, 0, 81, 94
1, 750634, Note_off_c, 0, 91, 57
1, 750695, Note_off_c, 0, 81, 63
1, 750738, Note_on_c, 0, 86, 83
1, 750758, Note_off_c, 0, 86, 69
1, 750830, Note_on_c, 0, 95, 104
1, 750831, Note_on_c, 0, 83, 111
1, 750895, Control_c, 0, 64, 97
1, 750910, Control_c, 0, 64, 61
1, 750917, Note_on_c, 0, 40, 109
1, 750918, Note_on_c, 0, 28, 104
1, 750925, Control_c, 0, 64, 0
1, 750979, Note_on_c, 0, 30, 9
1, 750992, Control_c, 0, 64, 58
1, 750995, Note_off_c, 0, 95, 60
1, 750999, Note_off_c, 0, 83, 61
1, 751007, Control_c, 0, 64, 69
1, 751015, Note_off_c, 0, 28, 65
1, 751021, Control_c, 0, 64, 76
1, 751030, Note_off_c, 0, 30, 49
1, 751036, Control_c, 0, 64, 83
1, 751047, Note_off_c, 0, 40, 62
1, 751051, Control_c, 0, 64, 89
1, 751059, Note_on_c, 0, 84, 91
1, 751065, Note_on_c, 0, 86, 78
1, 751065, Control_c, 0, 64, 94
1, 751080, Control_c, 0, 64, 97
1, 751095, Control_c, 0, 64, 101
1, 751098, Note_off_c, 0, 86, 52
1, 751111, Control_c, 0, 64, 103
1, 751117, Note_off_c, 0, 84, 65
1, 751125, Control_c, 0, 64, 105
1, 751155, Control_c, 0, 64, 108
1, 751161, Note_on_c, 0, 81, 98
1, 751162, Note_on_c, 0, 93, 103
1, 751199, Note_off_c, 0, 81, 67
1, 751199, Control_c, 0, 64, 113
1, 751214, Control_c, 0, 64, 124
1, 751221, Note_off_c, 0, 93, 59
1, 751229, Control_c, 0, 64, 127
1, 751253, Note_on_c, 0, 88, 95
1, 751296, Note_off_c, 0, 88, 66
1, 751354, Note_on_c, 0, 69, 108
1, 751357, Note_on_c, 0, 57, 96
1, 751358, Note_on_c, 0, 77, 106
1, 751359, Note_on_c, 0, 60, 89
1, 751359, Note_on_c, 0, 89, 101
1, 751360, Note_on_c, 0, 65, 95
1, 751379, Note_off_c, 0, 69, 72
1, 751384, Note_off_c, 0, 65, 66
1, 751393, Note_off_c, 0, 57, 54
1, 751397, Note_off_c, 0, 60, 66
1, 751402, Note_off_c, 0, 77, 60
1, 751456, Note_on_c, 0, 79, 94
1, 751469, Note_off_c, 0, 89, 41
1, 751513, Note_off_c, 0, 79, 65
1, 751557, Note_on_c, 0, 84, 94
1, 751587, Note_off_c, 0, 84, 69
1, 751646, Note_on_c, 0, 81, 106
1, 751648, Note_on_c, 0, 93, 106
1, 751710, Control_c, 0, 64, 108
1, 751725, Control_c, 0, 64, 70
1, 751740, Control_c, 0, 64, 35
1, 751746, Note_on_c, 0, 40, 113
1, 751747, Note_on_c, 0, 28, 107
1, 751755, Control_c, 0, 64, 0
1, 751784, Control_c, 0, 64, 43
1, 751798, Note_off_c, 0, 93, 56
1, 751799, Control_c, 0, 64, 63
1, 751805, Note_off_c, 0, 81, 62
1, 751809, Note_off_c, 0, 28, 63
1, 751813, Control_c, 0, 64, 72
1, 751828, Note_off_c, 0, 40, 66
1, 751828, Control_c, 0, 64, 81
1, 751843, Control_c, 0, 64, 83
1, 751858, Control_c, 0, 64, 85
1, 751867, Note_on_c, 0, 86, 99
1, 751874, Control_c, 0, 64, 87
1, 751888, Control_c, 0, 64, 89
1, 751903, Control_c, 0, 64, 90
1, 751919, Control_c, 0, 64, 91
1, 751927, Note_off_c, 0, 86, 67
1, 751934, Control_c, 0, 64, 92
1, 751949, Control_c, 0, 64, 93
1, 751964, Control_c, 0, 64, 94
1, 751977, Note_on_c, 0, 79, 100
1, 751978, Note_on_c, 0, 91, 103
1, 751979, Control_c, 0, 64, 96
1, 751992, Note_on_c, 0, 89, 77
1, 751993, Control_c, 0, 64, 100
1, 752008, Control_c, 0, 64, 112
1, 752011, Note_off_c, 0, 89, 42
1, 752016, Note_off_c, 0, 79, 69
1, 752023, Control_c, 0, 64, 127
1, 752026, Note_off_c, 0, 91, 64
1, 752051, Note_on_c, 0, 59, 66
1, 752060, Note_on_c, 0, 57, 56
1, 752079, Note_on_c, 0, 64, 70
1, 752083, Note_off_c, 0, 57, 59
1, 752093, Note_on_c, 0, 83, 93
1, 752094, Note_on_c, 0, 81, 96
1, 752137, Note_on_c, 0, 67, 80
1, 752145, Note_off_c, 0, 81, 63
1, 752146, Note_off_c, 0, 83, 64
1, 752166, Note_off_c, 0, 64, 65
1, 752176, Note_off_c, 0, 59, 64
1, 752195, Note_on_c, 0, 71, 90
1, 752201, Note_on_c, 0, 76, 112
1, 752202, Note_on_c, 0, 88, 100
1, 752204, Note_off_c, 0, 67, 65
1, 752228, Note_off_c, 0, 71, 66
1, 752237, Note_off_c, 0, 76, 68
1, 752240, Note_off_c, 0, 88, 67
1, 752305, Note_on_c, 0, 76, 102
1, 752308, Note_on_c, 0, 88, 92
1, 752321, Note_on_c, 0, 89, 62
1, 752321, Note_off_c, 0, 89, 127
1, 752353, Note_off_c, 0, 76, 64
1, 752377, Note_off_c, 0, 88, 65
1, 752409, Note_on_c, 0, 71, 78
1, 752411, Note_on_c, 0, 83, 98
1, 752473, Note_off_c, 0, 83, 63
1, 752493, Note_off_c, 0, 71, 61
1, 752507, Note_on_c, 0, 75, 94
1, 752515, Note_on_c, 0, 87, 92
1, 752548, Note_off_c, 0, 75, 67
1, 752572, Note_off_c, 0, 87, 63
1, 752600, Note_on_c, 0, 65, 75
1, 752610, Note_on_c, 0, 77, 91
1, 752672, Note_off_c, 0, 65, 61
1, 752673, Note_off_c, 0, 77, 62
1, 752685, Note_on_c, 0, 70, 90
1, 752699, Note_on_c, 0, 82, 92
1, 752723, Note_off_c, 0, 70, 66
1, 752734, Note_on_c, 0, 83, 47
1, 752736, Note_off_c, 0, 82, 58
1, 752761, Note_off_c, 0, 83, 59
1, 752806, Note_on_c, 0, 64, 85
1, 752808, Note_on_c, 0, 76, 97
1, 752811, Note_on_c, 0, 62, 89
1, 752842, Note_off_c, 0, 62, 60
1, 752849, Note_off_c, 0, 64, 64
1, 752895, Note_on_c, 0, 71, 95
1, 752898, Note_on_c, 0, 59, 91
1, 752898, Note_off_c, 0, 76, 61
1, 752952, Note_off_c, 0, 59, 66
1, 752955, Note_off_c, 0, 71, 64
1, 752992, Note_on_c, 0, 75, 103
1, 752994, Control_c, 0, 64, 90
1, 753003, Note_on_c, 0, 63, 96
1, 753009, Control_c, 0, 64, 71
1, 753024, Control_c, 0, 64, 59
1, 753034, Note_off_c, 0, 75, 70
1, 753039, Control_c, 0, 64, 51
1, 753040, Note_off_c, 0, 63, 67
1, 753053, Control_c, 0, 64, 50
1, 753068, Control_c, 0, 64, 50
1, 753083, Note_on_c, 0, 53, 76
1, 753083, Control_c, 0, 64, 53
1, 753098, Note_on_c, 0, 65, 90
1, 753098, Control_c, 0, 64, 56
1, 753113, Control_c, 0, 64, 57
1, 753127, Control_c, 0, 64, 58
1, 753142, Control_c, 0, 64, 59
1, 753152, Note_off_c, 0, 65, 64
1, 753154, Note_off_c, 0, 53, 63
1, 753157, Control_c, 0, 64, 61
1, 753172, Control_c, 0, 64, 63
1, 753191, Note_on_c, 0, 58, 96
1, 753194, Control_c, 0, 64, 65
1, 753202, Note_on_c, 0, 70, 100
1, 753209, Control_c, 0, 64, 67
1, 753222, Note_off_c, 0, 70, 67
1, 753226, Note_off_c, 0, 58, 64
1, 753253, Control_c, 0, 64, 66
1, 753268, Control_c, 0, 64, 62
1, 753283, Control_c, 0, 64, 55
1, 753298, Control_c, 0, 64, 46
1, 753305, Note_on_c, 0, 52, 89
1, 753309, Note_on_c, 0, 64, 102
1, 753313, Control_c, 0, 64, 0
1, 753321, Note_on_c, 0, 50, 70
1, 753343, Note_off_c, 0, 50, 65
1, 753348, Note_off_c, 0, 52, 64
1, 753354, Note_off_c, 0, 64, 67
1, 753404, Note_on_c, 0, 47, 100
1, 753406, Note_on_c, 0, 59, 106
1, 753450, Note_off_c, 0, 59, 67
1, 753453, Note_off_c, 0, 47, 65
1, 753505, Note_on_c, 0, 63, 97
1, 753510, Note_on_c, 0, 51, 94
1, 753546, Note_off_c, 0, 63, 68
1, 753551, Note_off_c, 0, 51, 65
1, 753608, Note_on_c, 0, 41, 92
1, 753617, Note_on_c, 0, 53, 93
1, 753662, Note_off_c, 0, 41, 65
1, 753668, Note_off_c, 0, 53, 65
1, 753718, Note_on_c, 0, 46, 98
1, 753721, Note_on_c, 0, 58, 105
1, 753742, Note_off_c, 0, 46, 68
1, 753764, Note_off_c, 0, 58, 65
1, 753893, Note_on_c, 0, 43, 102
1, 753897, Note_on_c, 0, 52, 94
1, 753899, Note_on_c, 0, 36, 93
1, 754068, Note_on_c, 0, 64, 96
1, 754107, Note_off_c, 0, 52, 63
1, 754195, Note_off_c, 0, 64, 56
1, 754203, Note_on_c, 0, 59, 95
1, 754266, Note_off_c, 0, 59, 62
1, 754305, Note_on_c, 0, 63, 96
1, 754374, Note_off_c, 0, 63, 62
1, 754377, Note_off_c, 0, 43, 63
1, 754413, Note_on_c, 0, 53, 90
1, 754496, Note_off_c, 0, 53, 52
1, 754502, Note_on_c, 0, 43, 82
1, 754517, Note_on_c, 0, 58, 90
1, 754602, Note_off_c, 0, 43, 62
1, 754607, Note_on_c, 0, 45, 82
1, 754708, Note_off_c, 0, 45, 44
1, 754717, Note_on_c, 0, 43, 84
1, 754793, Note_off_c, 0, 43, 63
1, 754835, Note_on_c, 0, 46, 93
1, 754881, Note_off_c, 0, 46, 63
1, 754886, Note_off_c, 0, 58, 60
1, 754929, Note_on_c, 0, 64, 81
1, 754936, Note_on_c, 0, 43, 82
1, 754998, Note_off_c, 0, 64, 59
1, 755050, Note_on_c, 0, 59, 70
1, 755105, Note_off_c, 0, 59, 63
1, 755148, Note_on_c, 0, 63, 79
1, 755218, Note_off_c, 0, 63, 61
1, 755247, Note_off_c, 0, 43, 62
1, 755252, Note_on_c, 0, 53, 82
1, 755319, Note_off_c, 0, 53, 60
1, 755354, Note_on_c, 0, 43, 78
1, 755354, Note_on_c, 0, 58, 82
1, 755456, Note_off_c, 0, 43, 62
1, 755467, Note_on_c, 0, 45, 81
1, 755537, Note_off_c, 0, 45, 56
1, 755563, Note_on_c, 0, 43, 80
1, 755650, Note_off_c, 0, 43, 64
1, 755683, Note_on_c, 0, 46, 91
1, 755737, Note_off_c, 0, 58, 60
1, 755745, Note_off_c, 0, 46, 59
1, 755786, Note_on_c, 0, 64, 74
1, 755787, Note_on_c, 0, 43, 77
1, 755865, Note_off_c, 0, 64, 58
1, 755903, Note_on_c, 0, 59, 70
1, 755954, Note_off_c, 0, 59, 58
1, 756009, Note_on_c, 0, 63, 67
1, 756078, Note_off_c, 0, 63, 61
1, 756123, Note_on_c, 0, 53, 69
1, 756141, Note_off_c, 0, 43, 62
1, 756217, Note_off_c, 0, 53, 57
1, 756230, Note_on_c, 0, 58, 68
1, 756233, Note_on_c, 0, 42, 73
1, 756329, Note_off_c, 0, 42, 62
1, 756338, Note_on_c, 0, 43, 61
1, 756437, Note_on_c, 0, 42, 73
1, 756440, Note_off_c, 0, 43, 62
1, 756529, Note_off_c, 0, 42, 63
1, 756553, Note_on_c, 0, 45, 75
1, 756598, Note_off_c, 0, 58, 61
1, 756626, Note_off_c, 0, 45, 52
1, 756648, Note_on_c, 0, 64, 66
1, 756656, Note_on_c, 0, 42, 66
1, 756702, Note_off_c, 0, 64, 57
1, 756764, Note_on_c, 0, 58, 60
1, 756823, Note_off_c, 0, 58, 57
1, 756875, Note_on_c, 0, 63, 57
1, 756931, Note_off_c, 0, 63, 56
1, 756992, Note_off_c, 0, 42, 64
1, 756996, Note_on_c, 0, 52, 62
1, 757044, Note_off_c, 0, 52, 54
1, 757099, Note_on_c, 0, 42, 64
1, 757102, Note_on_c, 0, 58, 55
1, 757188, Note_off_c, 0, 42, 62
1, 757212, Note_on_c, 0, 43, 54
1, 757292, Note_off_c, 0, 43, 56
1, 757309, Note_on_c, 0, 42, 63
1, 757390, Note_off_c, 0, 42, 63
1, 757420, Note_on_c, 0, 45, 56
1, 757473, Note_off_c, 0, 45, 55
1, 757477, Note_off_c, 0, 58, 56
1, 757522, Note_on_c, 0, 42, 55
1, 757522, Note_on_c, 0, 64, 53
1, 757579, Note_off_c, 0, 64, 52
1, 757635, Note_on_c, 0, 58, 43
1, 757713, Note_off_c, 0, 58, 57
1, 757748, Note_on_c, 0, 63, 52
1, 757798, Note_off_c, 0, 63, 57
1, 757838, Note_off_c, 0, 42, 63
1, 757859, Note_on_c, 0, 52, 55
1, 757923, Note_off_c, 0, 52, 49
1, 757936, Note_on_c, 0, 42, 57
1, 757968, Note_on_c, 0, 58, 52
1, 758066, Note_off_c, 0, 42, 62
1, 758083, Note_on_c, 0, 43, 52
1, 758164, Note_off_c, 0, 43, 55
1, 758184, Note_on_c, 0, 42, 61
1, 758266, Note_off_c, 0, 42, 63
1, 758303, Note_on_c, 0, 45, 55
1, 758347, Note_off_c, 0, 58, 54
1, 758373, Note_off_c, 0, 45, 50
1, 758401, Note_on_c, 0, 64, 58
1, 758410, Note_on_c, 0, 42, 48
1, 758455, Note_off_c, 0, 64, 59
1, 758531, Note_on_c, 0, 58, 48
1, 758590, Note_off_c, 0, 58, 56
1, 758654, Note_on_c, 0, 63, 56
1, 758690, Note_off_c, 0, 63, 62
1, 758786, Note_on_c, 0, 52, 53
1, 758786, Note_off_c, 0, 42, 62
1, 758824, Note_off_c, 0, 52, 61
1, 758917, Note_on_c, 0, 42, 50
1, 758925, Note_on_c, 0, 57, 43
1, 758991, Note_off_c, 0, 42, 57
1, 759099, Note_on_c, 0, 44, 56
1, 759133, Note_off_c, 0, 44, 64
1, 759316, Note_on_c, 0, 42, 52
1, 759357, Note_off_c, 0, 42, 62
1, 759556, Note_off_c, 0, 57, 65
1, 759600, Note_on_c, 0, 47, 42
1, 759602, Note_on_c, 0, 40, 37
1, 759614, Control_c, 0, 66, 127
1, 759618, Note_off_c, 0, 36, 34
1, 759768, Note_off_c, 0, 40, 61
1, 759781, Note_off_c, 0, 47, 61
1, 759829, Note_on_c, 0, 68, 45
1, 759993, Note_off_c, 0, 68, 55
1, 760027, Note_on_c, 0, 64, 51
1, 760028, Note_on_c, 0, 70, 45
1, 760145, Note_on_c, 0, 68, 48
1, 760172, Note_off_c, 0, 70, 33
1, 760256, Note_off_c, 0, 68, 56
1, 760270, Note_on_c, 0, 63, 59
1, 760293, Note_on_c, 0, 71, 51
1, 760325, Note_off_c, 0, 64, 48
1, 760354, Note_off_c, 0, 71, 53
1, 760387, Note_on_c, 0, 68, 50
1, 760443, Note_off_c, 0, 68, 56
1, 760498, Note_on_c, 0, 64, 66
1, 760539, Note_off_c, 0, 63, 52
1, 760614, Note_on_c, 0, 68, 50
1, 760666, Note_off_c, 0, 68, 55
1, 760727, Note_on_c, 0, 61, 49
1, 760739, Note_off_c, 0, 64, 54
1, 760753, Note_on_c, 0, 69, 49
1, 760798, Note_off_c, 0, 69, 58
1, 760860, Note_on_c, 0, 68, 52
1, 760908, Note_off_c, 0, 68, 57
1, 760938, Note_off_c, 0, 61, 55
1, 760971, Note_on_c, 0, 71, 49
1, 760972, Note_on_c, 0, 64, 39
1, 760998, Note_off_c, 0, 71, 58
1, 761081, Note_on_c, 0, 71, 57
1, 761111, Note_off_c, 0, 71, 56
1, 761173, Note_off_c, 0, 64, 45
1, 761176, Note_on_c, 0, 68, 53
1, 761204, Note_off_c, 0, 68, 59
1, 761278, Note_on_c, 0, 68, 56
1, 761347, Note_off_c, 0, 68, 49
1, 761380, Note_on_c, 0, 64, 46
1, 761386, Note_on_c, 0, 69, 58
1, 761463, Note_off_c, 0, 69, 49
1, 761493, Note_on_c, 0, 68, 57
1, 761576, Note_off_c, 0, 68, 54
1, 761598, Note_off_c, 0, 64, 56
1, 761616, Note_on_c, 0, 71, 58
1, 761618, Note_on_c, 0, 61, 42
1, 761692, Note_off_c, 0, 71, 53
1, 761725, Note_on_c, 0, 69, 50
1, 761761, Note_off_c, 0, 69, 65
1, 761835, Note_on_c, 0, 63, 51
1, 761854, Note_off_c, 0, 61, 34
1, 761927, Note_on_c, 0, 73, 62
1, 762027, Note_off_c, 0, 63, 56
1, 762036, Note_on_c, 0, 59, 53
1, 762038, Note_off_c, 0, 73, 52
1, 762047, Note_on_c, 0, 66, 74
1, 762145, Note_off_c, 0, 66, 61
1, 762146, Note_on_c, 0, 69, 72
1, 762216, Note_off_c, 0, 59, 49
1, 762256, Note_off_c, 0, 69, 48
1, 762257, Note_on_c, 0, 61, 58
1, 762259, Note_on_c, 0, 63, 74
1, 762287, Note_off_c, 0, 61, 65
1, 762327, Note_off_c, 0, 63, 58
1, 762365, Note_on_c, 0, 66, 75
1, 762461, Note_off_c, 0, 66, 59
1, 762488, Note_on_c, 0, 64, 69
1, 762498, Note_on_c, 0, 40, 49
1, 762508, Note_on_c, 0, 47, 43
1, 762520, Control_c, 0, 64, 47
1, 762535, Control_c, 0, 64, 56
1, 762550, Control_c, 0, 64, 58
1, 762565, Control_c, 0, 64, 60
1, 762571, Note_off_c, 0, 40, 62
1, 762579, Control_c, 0, 64, 61
1, 762594, Control_c, 0, 64, 62
1, 762598, Note_off_c, 0, 64, 53
1, 762601, Note_off_c, 0, 47, 62
1, 762609, Control_c, 0, 64, 63
1, 762643, Note_on_c, 0, 68, 65
1, 762653, Control_c, 0, 64, 63
1, 762713, Control_c, 0, 64, 63
1, 762727, Control_c, 0, 64, 61
1, 762742, Control_c, 0, 64, 56
1, 762751, Note_off_c, 0, 68, 53
1, 762755, Note_on_c, 0, 64, 76
1, 762757, Control_c, 0, 64, 46
1, 762765, Note_on_c, 0, 70, 75
1, 762771, Control_c, 0, 64, 0
1, 762866, Note_on_c, 0, 68, 73
1, 762880, Note_off_c, 0, 70, 54
1, 762958, Note_off_c, 0, 68, 59
1, 762977, Note_on_c, 0, 63, 77
1, 762989, Note_on_c, 0, 71, 66
1, 763013, Note_off_c, 0, 64, 61
1, 763053, Note_off_c, 0, 71, 59
1, 763082, Note_on_c, 0, 68, 62
1, 763144, Note_off_c, 0, 68, 57
1, 763194, Note_on_c, 0, 64, 67
1, 763206, Note_off_c, 0, 63, 54
1, 763299, Note_on_c, 0, 68, 54
1, 763343, Note_off_c, 0, 68, 58
1, 763402, Note_on_c, 0, 61, 53
1, 763409, Note_off_c, 0, 64, 57
1, 763427, Note_on_c, 0, 69, 45
1, 763471, Note_off_c, 0, 69, 54
1, 763524, Note_on_c, 0, 68, 50
1, 763568, Note_off_c, 0, 68, 59
1, 763590, Note_off_c, 0, 61, 54
1, 763609, Note_on_c, 0, 71, 54
1, 763612, Note_on_c, 0, 64, 50
1, 763638, Note_off_c, 0, 71, 62
1, 763724, Note_on_c, 0, 71, 65
1, 763760, Note_off_c, 0, 71, 60
1, 763816, Note_off_c, 0, 64, 52
1, 763841, Note_on_c, 0, 68, 40
1, 763870, Note_off_c, 0, 68, 50
1, 763932, Note_on_c, 0, 68, 62
1, 764020, Note_off_c, 0, 68, 39
1, 764026, Note_on_c, 0, 64, 52
1, 764030, Note_on_c, 0, 69, 66
1, 764124, Note_off_c, 0, 69, 56
1, 764129, Note_on_c, 0, 68, 67
1, 764232, Note_off_c, 0, 68, 57
1, 764247, Note_off_c, 0, 64, 57
1, 764251, Note_on_c, 0, 71, 68
1, 764259, Note_on_c, 0, 61, 45
1, 764327, Note_off_c, 0, 71, 59
1, 764365, Note_on_c, 0, 69, 60
1, 764452, Note_off_c, 0, 69, 58
1, 764475, Note_on_c, 0, 63, 62
1, 764476, Note_off_c, 0, 61, 52
1, 764575, Note_on_c, 0, 73, 69
1, 764640, Note_off_c, 0, 63, 61
1, 764777, Note_on_c, 0, 66, 64
1, 764816, Note_off_c, 0, 73, 54
1, 764879, Note_off_c, 0, 66, 62
1, 764900, Note_on_c, 0, 69, 59
1, 765015, Note_off_c, 0, 69, 47
1, 765022, Note_on_c, 0, 63, 55
1, 765031, Note_on_c, 0, 61, 50
1, 765127, Note_off_c, 0, 63, 55
1, 765132, Note_on_c, 0, 66, 60
1, 765240, Note_on_c, 0, 57, 51
1, 765242, Note_off_c, 0, 61, 55
1, 765341, Note_on_c, 0, 71, 78
1, 765347, Note_off_c, 0, 66, 39
1, 765423, Note_off_c, 0, 57, 61
1, 765427, Note_off_c, 0, 71, 59
1, 765457, Note_on_c, 0, 59, 49
1, 765474, Note_on_c, 0, 64, 49
1, 765516, Note_off_c, 0, 64, 64
1, 765570, Note_on_c, 0, 68, 44
1, 765603, Note_off_c, 0, 68, 54
1, 765640, Note_off_c, 0, 59, 53
1, 765660, Note_on_c, 0, 56, 46
1, 765664, Note_on_c, 0, 61, 56
1, 765706, Note_off_c, 0, 61, 60
1, 765758, Note_on_c, 0, 64, 59
1, 765807, Note_off_c, 0, 64, 59
1, 765828, Note_off_c, 0, 56, 60
1, 765860, Note_on_c, 0, 69, 75
1, 765874, Note_on_c, 0, 57, 48
1, 765913, Note_off_c, 0, 69, 60
1, 765976, Note_on_c, 0, 66, 66
1, 766020, Note_off_c, 0, 66, 56
1, 766030, Note_off_c, 0, 57, 53
1, 766066, Note_on_c, 0, 54, 46
1, 766087, Note_on_c, 0, 63, 63
1, 766092, Note_off_c, 0, 54, 59
1, 766123, Note_off_c, 0, 63, 63
1, 766172, Note_on_c, 0, 59, 66
1, 766215, Note_off_c, 0, 59, 58
1, 766278, Control_c, 0, 64, 35
1, 766286, Note_on_c, 0, 64, 70
1, 766290, Note_on_c, 0, 56, 55
1, 766294, Control_c, 0, 64, 55
1, 766300, Note_on_c, 0, 40, 55
1, 766300, Note_on_c, 0, 47, 64
1, 766309, Control_c, 0, 64, 62
1, 766314, Note_off_c, 0, 56, 58
1, 766324, Control_c, 0, 64, 63
1, 766330, Note_off_c, 0, 64, 65
1, 766335, Note_off_c, 0, 40, 62
1, 766339, Control_c, 0, 64, 65
1, 766351, Note_off_c, 0, 47, 61
1, 766354, Control_c, 0, 64, 65
1, 766409, Note_on_c, 0, 71, 78
1, 766518, Note_on_c, 0, 73, 82
1, 766523, Note_off_c, 0, 71, 40
1, 766531, Control_c, 0, 64, 65
1, 766560, Control_c, 0, 64, 64
1, 766575, Control_c, 0, 64, 63
1, 766590, Control_c, 0, 64, 56
1, 766591, Note_on_c, 0, 64, 73
1, 766605, Control_c, 0, 64, 38
1, 766614, Note_off_c, 0, 73, 59
1, 766617, Note_on_c, 0, 71, 87
1, 766620, Control_c, 0, 64, 0
1, 766702, Note_off_c, 0, 64, 63
1, 766706, Note_off_c, 0, 71, 57
1, 766712, Note_on_c, 0, 66, 70
1, 766735, Note_on_c, 0, 74, 86
1, 766787, Note_off_c, 0, 66, 62
1, 766796, Note_off_c, 0, 74, 62
1, 766823, Note_on_c, 0, 64, 68
1, 766830, Note_on_c, 0, 71, 72
1, 766875, Note_off_c, 0, 71, 56
1, 766891, Note_off_c, 0, 64, 63
1, 766957, Note_on_c, 0, 68, 50
1, 766981, Note_off_c, 0, 68, 61
1, 767022, Note_on_c, 0, 64, 59
1, 767040, Note_on_c, 0, 71, 67
1, 767056, Note_off_c, 0, 64, 65
1, 767092, Note_off_c, 0, 71, 50
1, 767146, Note_on_c, 0, 73, 65
1, 767214, Note_off_c, 0, 73, 59
1, 767234, Note_on_c, 0, 71, 69
1, 767238, Note_on_c, 0, 64, 64
1, 767299, Note_off_c, 0, 71, 60
1, 767301, Note_off_c, 0, 64, 51
1, 767341, Note_on_c, 0, 74, 71
1, 767359, Note_on_c, 0, 66, 57
1, 767370, Note_off_c, 0, 74, 65
1, 767410, Note_off_c, 0, 66, 59
1, 767445, Note_on_c, 0, 74, 80
1, 767457, Note_on_c, 0, 64, 64
1, 767499, Note_off_c, 0, 74, 63
1, 767505, Note_off_c, 0, 64, 63
1, 767551, Note_on_c, 0, 71, 79
1, 767562, Note_on_c, 0, 68, 71
1, 767585, Note_off_c, 0, 71, 65
1, 767588, Note_off_c, 0, 68, 67
1, 767651, Note_on_c, 0, 71, 81
1, 767666, Note_on_c, 0, 68, 73
1, 767698, Note_off_c, 0, 68, 65
1, 767705, Note_off_c, 0, 71, 60
1, 767755, Note_on_c, 0, 73, 82
1, 767768, Note_on_c, 0, 64, 59
1, 767791, Control_c, 0, 64, 39
1, 767796, Note_off_c, 0, 64, 65
1, 767806, Control_c, 0, 64, 51
1, 767821, Control_c, 0, 64, 55
1, 767823, Note_off_c, 0, 73, 60
1, 767835, Control_c, 0, 64, 57
1, 767848, Note_on_c, 0, 64, 69
1, 767849, Note_on_c, 0, 71, 85
1, 767850, Control_c, 0, 64, 59
1, 767865, Control_c, 0, 64, 60
1, 767869, Note_off_c, 0, 64, 66
1, 767880, Control_c, 0, 66, 0
1, 767894, Note_off_c, 0, 71, 63
1, 767895, Control_c, 0, 64, 59
1, 767910, Control_c, 0, 64, 55
1, 767925, Control_c, 0, 64, 37
1, 767940, Control_c, 0, 64, 0
1, 767960, Note_on_c, 0, 74, 85
1, 767962, Note_on_c, 0, 66, 89
1, 767970, Control_c, 0, 66, 127
1, 767970, Note_on_c, 0, 57, 79
1, 767973, Note_on_c, 0, 52, 79
1, 768033, Note_off_c, 0, 66, 61
1, 768040, Note_off_c, 0, 52, 60
1, 768041, Note_off_c, 0, 74, 62
1, 768054, Note_off_c, 0, 57, 63
1, 768062, Note_on_c, 0, 64, 86
1, 768066, Note_on_c, 0, 73, 82
1, 768084, Note_off_c, 0, 64, 70
1, 768125, Note_off_c, 0, 73, 63
1, 768185, Note_on_c, 0, 68, 78
1, 768252, Note_off_c, 0, 68, 62
1, 768286, Note_on_c, 0, 66, 81
1, 768287, Note_on_c, 0, 76, 84
1, 768324, Note_off_c, 0, 66, 57
1, 768360, Note_off_c, 0, 76, 61
1, 768389, Note_on_c, 0, 69, 88
1, 768442, Note_off_c, 0, 69, 63
1, 768479, Poly_aftertouch_c, 0, 69, 0
1, 768487, Note_on_c, 0, 69, 68
1, 768497, Note_on_c, 0, 73, 82
1, 768540, Note_off_c, 0, 69, 62
1, 768557, Note_off_c, 0, 73, 58
1, 768585, Note_on_c, 0, 66, 92
1, 768596, Note_on_c, 0, 63, 70
1, 768624, Note_on_c, 0, 70, 22
1, 768638, Note_off_c, 0, 66, 63
1, 768658, Control_c, 0, 64, 34
1, 768668, Note_off_c, 0, 70, 40
1, 768673, Control_c, 0, 64, 45
1, 768688, Note_on_c, 0, 66, 86
1, 768689, Control_c, 0, 64, 53
1, 768691, Note_on_c, 0, 69, 84
1, 768704, Control_c, 0, 64, 56
1, 768711, Note_off_c, 0, 63, 63
1, 768719, Control_c, 0, 64, 57
1, 768731, Note_off_c, 0, 66, 66
1, 768805, Note_on_c, 0, 59, 88
1, 768806, Note_on_c, 0, 52, 85
1, 768808, Control_c, 0, 66, 0
1, 768822, Control_c, 0, 64, 56
1, 768852, Control_c, 0, 64, 56
1, 768883, Note_off_c, 0, 59, 65
1, 768897, Note_off_c, 0, 69, 44
1, 768897, Control_c, 0, 64, 55
1, 768899, Note_on_c, 0, 75, 84
1, 768916, Note_on_c, 0, 63, 89
1, 768919, Control_c, 0, 64, 55
1, 768969, Note_off_c, 0, 63, 58
1, 768984, Note_off_c, 0, 75, 53
1, 769020, Note_on_c, 0, 68, 85
1, 769071, Note_off_c, 0, 68, 62
1, 769082, Control_c, 0, 64, 54
1, 769110, Control_c, 0, 64, 54
1, 769112, Note_on_c, 0, 71, 90
1, 769117, Note_on_c, 0, 68, 73
1, 769154, Control_c, 0, 64, 53
1, 769176, Note_off_c, 0, 71, 62
1, 769198, Note_off_c, 0, 68, 59
1, 769199, Control_c, 0, 64, 52
1, 769206, Note_on_c, 0, 61, 80
1, 769210, Note_on_c, 0, 64, 90
1, 769213, Control_c, 0, 64, 49
1, 769228, Control_c, 0, 64, 39
1, 769243, Control_c, 0, 64, 0
1, 769257, Note_off_c, 0, 64, 64
1, 769282, Note_off_c, 0, 61, 62
1, 769285, Note_off_c, 0, 52, 53
1, 769306, Note_on_c, 0, 68, 90
1, 769310, Note_on_c, 0, 64, 89
1, 769358, Note_off_c, 0, 64, 66
1, 769407, Note_off_c, 0, 68, 61
1, 769408, Note_on_c, 0, 52, 77
1, 769408, Note_on_c, 0, 73, 91
1, 769410, Note_on_c, 0, 57, 85
1, 769496, Note_off_c, 0, 73, 62
1, 769505, Note_on_c, 0, 69, 88
1, 769514, Note_on_c, 0, 59, 92
1, 769519, Note_off_c, 0, 57, 67
1, 769529, Note_off_c, 0, 52, 64
1, 769586, Note_off_c, 0, 59, 65
1, 769592, Note_off_c, 0, 69, 60
1, 769616, Note_on_c, 0, 61, 91
1, 769616, Note_on_c, 0, 66, 96
1, 769644, Control_c, 0, 64, 29
1, 769645, Note_off_c, 0, 61, 66
1, 769666, Control_c, 0, 64, 42
1, 769677, Note_off_c, 0, 66, 61
1, 769681, Control_c, 0, 64, 51
1, 769696, Control_c, 0, 64, 56
1, 769711, Control_c, 0, 64, 57
1, 769715, Note_on_c, 0, 63, 96
1, 769741, Control_c, 0, 64, 55
1, 769755, Note_off_c, 0, 63, 67
1, 769755, Control_c, 0, 64, 45
1, 769761, Note_on_c, 0, 64, 39
1, 769770, Control_c, 0, 64, 0
1, 769792, Note_off_c, 0, 64, 56
1, 769828, Note_on_c, 0, 64, 96
1, 769831, Note_on_c, 0, 52, 90
1, 769833, Note_on_c, 0, 59, 77
1, 769874, Control_c, 0, 66, 127
1, 769928, Note_on_c, 0, 68, 93
1, 769930, Note_on_c, 0, 76, 89
1, 769992, Note_off_c, 0, 68, 62
1, 770003, Note_off_c, 0, 64, 55
1, 770029, Note_off_c, 0, 76, 45
1, 770040, Note_on_c, 0, 78, 85
1, 770042, Note_on_c, 0, 69, 89
1, 770068, Note_off_c, 0, 52, 56
1, 770091, Note_off_c, 0, 59, 61
1, 770098, Note_off_c, 0, 69, 62
1, 770121, Note_off_c, 0, 78, 58
1, 770137, Note_on_c, 0, 68, 91
1, 770141, Note_on_c, 0, 76, 90
1, 770160, Note_on_c, 0, 64, 84
1, 770191, Note_off_c, 0, 68, 62
1, 770241, Note_off_c, 0, 64, 62
1, 770247, Note_on_c, 0, 71, 95
1, 770254, Note_on_c, 0, 80, 88
1, 770256, Note_off_c, 0, 76, 57
1, 770266, Note_on_c, 0, 63, 78
1, 770341, Note_off_c, 0, 71, 61
1, 770347, Note_on_c, 0, 76, 83
1, 770350, Note_on_c, 0, 68, 84
1, 770355, Note_off_c, 0, 63, 62
1, 770356, Note_off_c, 0, 80, 64
1, 770374, Note_on_c, 0, 64, 74
1, 770394, Note_off_c, 0, 68, 60
1, 770420, Note_off_c, 0, 76, 59
1, 770435, Note_off_c, 0, 64, 60
1, 770477, Note_on_c, 0, 61, 75
1, 770510, Note_off_c, 0, 61, 63
1, 770566, Note_on_c, 0, 68, 75
1, 770566, Note_on_c, 0, 76, 78
1, 770568, Note_on_c, 0, 64, 73
1, 770600, Note_off_c, 0, 64, 67
1, 770614, Note_off_c, 0, 68, 58
1, 770630, Note_off_c, 0, 76, 55
1, 770663, Note_on_c, 0, 78, 77
1, 770674, Note_on_c, 0, 69, 78
1, 770724, Note_off_c, 0, 78, 59
1, 770729, Note_off_c, 0, 69, 61
1, 770760, Note_on_c, 0, 76, 65
1, 770760, Note_on_c, 0, 68, 76
1, 770784, Note_on_c, 0, 64, 71
1, 770803, Note_off_c, 0, 68, 59
1, 770819, Note_off_c, 0, 76, 63
1, 770850, Note_off_c, 0, 64, 62
1, 770870, Note_on_c, 0, 80, 76
1, 770881, Note_on_c, 0, 71, 72
1, 770883, Note_on_c, 0, 63, 67
1, 770908, Note_off_c, 0, 80, 59
1, 770913, Note_off_c, 0, 71, 59
1, 770928, Note_off_c, 0, 63, 58
1, 770966, Note_on_c, 0, 64, 71
1, 770971, Note_on_c, 0, 80, 77
1, 770975, Note_on_c, 0, 71, 70
1, 771003, Note_off_c, 0, 64, 57
1, 771019, Note_off_c, 0, 71, 61
1, 771035, Note_off_c, 0, 80, 62
1, 771055, Note_on_c, 0, 61, 70
1, 771073, Note_on_c, 0, 68, 77
1, 771075, Note_on_c, 0, 76, 80
1, 771085, Note_off_c, 0, 61, 65
1, 771099, Note_off_c, 0, 68, 64
1, 771154, Note_off_c, 0, 76, 0
1, 771165, Note_on_c, 0, 76, 64
1, 771175, Note_on_c, 0, 61, 64
1, 771177, Note_on_c, 0, 68, 80
1, 771225, Note_off_c, 0, 68, 62
1, 771232, Note_off_c, 0, 76, 63
1, 771240, Note_off_c, 0, 61, 60
1, 771275, Note_on_c, 0, 78, 84
1, 771284, Note_on_c, 0, 64, 72
1, 771285, Note_on_c, 0, 69, 80
1, 771335, Note_off_c, 0, 69, 59
1, 771350, Note_off_c, 0, 64, 58
1, 771357, Note_off_c, 0, 78, 59
1, 771368, Note_on_c, 0, 68, 95
1, 771383, Note_on_c, 0, 76, 78
1, 771392, Note_on_c, 0, 64, 60
1, 771421, Note_off_c, 0, 68, 61
1, 771436, Note_off_c, 0, 76, 63
1, 771455, Note_off_c, 0, 64, 62
1, 771479, Note_on_c, 0, 71, 94
1, 771487, Note_on_c, 0, 80, 89
1, 771496, Note_on_c, 0, 63, 77
1, 771548, Note_off_c, 0, 71, 61
1, 771550, Control_c, 0, 64, 43
1, 771565, Control_c, 0, 64, 54
1, 771566, Note_off_c, 0, 63, 63
1, 771577, Note_on_c, 0, 78, 83
1, 771578, Note_on_c, 0, 69, 83
1, 771580, Control_c, 0, 64, 57
1, 771589, Note_off_c, 0, 80, 61
1, 771595, Control_c, 0, 64, 58
1, 771603, Note_on_c, 0, 64, 71
1, 771609, Control_c, 0, 64, 59
1, 771624, Note_off_c, 0, 69, 60
1, 771628, Note_off_c, 0, 64, 69
1, 771639, Control_c, 0, 64, 58
1, 771654, Control_c, 0, 64, 51
1, 771663, Note_off_c, 0, 78, 57
1, 771669, Control_c, 0, 64, 0
1, 771693, Note_on_c, 0, 61, 84
1, 771695, Note_on_c, 0, 52, 76
1, 771698, Control_c, 0, 66, 0
1, 771750, Note_off_c, 0, 61, 64
1, 771772, Control_c, 0, 64, 51
1, 771785, Note_on_c, 0, 81, 76
1, 771787, Note_on_c, 0, 73, 86
1, 771787, Control_c, 0, 64, 59
1, 771797, Note_on_c, 0, 63, 81
1, 771801, Control_c, 0, 64, 60
1, 771804, Note_off_c, 0, 81, 72
1, 771828, Note_off_c, 0, 63, 58
1, 771845, Note_off_c, 0, 73, 62
1, 771877, Control_c, 0, 64, 61
1, 771892, Control_c, 0, 64, 62
1, 771896, Note_on_c, 0, 75, 86
1, 771898, Note_on_c, 0, 66, 89
1, 771914, Control_c, 0, 64, 63
1, 771946, Note_off_c, 0, 66, 61
1, 771958, Note_off_c, 0, 75, 63
1, 771997, Note_on_c, 0, 68, 85
1, 772003, Control_c, 0, 64, 62
1, 772015, Note_on_c, 0, 63, 75
1, 772018, Control_c, 0, 64, 61
1, 772032, Note_on_c, 0, 77, 55
1, 772032, Control_c, 0, 64, 59
1, 772047, Control_c, 0, 64, 58
1, 772053, Note_off_c, 0, 77, 60
1, 772057, Note_off_c, 0, 52, 62
1, 772062, Control_c, 0, 64, 57
1, 772069, Note_off_c, 0, 68, 62
1, 772077, Note_on_c, 0, 54, 63
1, 772078, Note_off_c, 0, 63, 60
1, 772081, Note_on_c, 0, 69, 19
1, 772105, Control_c, 0, 64, 58
1, 772111, Note_on_c, 0, 71, 80
1, 772120, Control_c, 0, 64, 58
1, 772123, Note_off_c, 0, 69, 43
1, 772135, Control_c, 0, 64, 59
1, 772150, Control_c, 0, 64, 59
1, 772164, Control_c, 0, 64, 60
1, 772178, Note_off_c, 0, 54, 62
1, 772179, Control_c, 0, 64, 61
1, 772185, Note_off_c, 0, 71, 62
1, 772193, Note_on_c, 0, 57, 77
1, 772194, Control_c, 0, 64, 61
1, 772208, Note_on_c, 0, 75, 58
1, 772209, Control_c, 0, 64, 62
1, 772221, Note_off_c, 0, 57, 69
1, 772224, Control_c, 0, 64, 63
1, 772233, Note_off_c, 0, 75, 54
1, 772239, Control_c, 0, 64, 63
1, 772244, Note_on_c, 0, 76, 41
1, 772256, Note_on_c, 0, 66, 48
1, 772268, Note_on_c, 0, 68, 36
1, 772273, Note_off_c, 0, 76, 34
1, 772281, Note_off_c, 0, 66, 57
1, 772298, Note_on_c, 0, 47, 85
1, 772298, Control_c, 0, 64, 63
1, 772299, Note_off_c, 0, 68, 51
1, 772313, Control_c, 0, 64, 59
1, 772328, Control_c, 0, 64, 51
1, 772343, Control_c, 0, 64, 42
1, 772357, Control_c, 0, 64, 39
1, 772372, Control_c, 0, 64, 40
1, 772387, Control_c, 0, 64, 47
1, 772402, Control_c, 0, 64, 53
1, 772406, Note_on_c, 0, 51, 82
1, 772414, Note_on_c, 0, 71, 82
1, 772417, Control_c, 0, 64, 56
1, 772423, Note_on_c, 0, 80, 81
1, 772431, Control_c, 0, 64, 57
1, 772461, Control_c, 0, 64, 57
1, 772466, Note_off_c, 0, 71, 63
1, 772471, Note_off_c, 0, 80, 62
1, 772490, Control_c, 0, 64, 58
1, 772520, Control_c, 0, 64, 58
1, 772530, Note_on_c, 0, 64, 79
1, 772531, Note_on_c, 0, 73, 78
1, 772549, Control_c, 0, 64, 59
1, 772580, Note_off_c, 0, 64, 59
1, 772596, Note_off_c, 0, 51, 59
1, 772598, Note_off_c, 0, 73, 62
1, 772623, Note_on_c, 0, 59, 70
1, 772625, Note_on_c, 0, 68, 80
1, 772638, Note_on_c, 0, 76, 84
1, 772661, Control_c, 0, 64, 57
1, 772677, Control_c, 0, 64, 52
1, 772690, Note_off_c, 0, 68, 62
1, 772692, Control_c, 0, 64, 39
1, 772698, Note_off_c, 0, 59, 58
1, 772707, Control_c, 0, 64, 0
1, 772733, Note_off_c, 0, 76, 61
1, 772749, Note_on_c, 0, 69, 87
1, 772759, Note_on_c, 0, 52, 72
1, 772810, Control_c, 0, 64, 43
1, 772825, Control_c, 0, 64, 51
1, 772840, Control_c, 0, 64, 56
1, 772847, Note_off_c, 0, 69, 62
1, 772854, Control_c, 0, 64, 59
1, 772859, Note_on_c, 0, 73, 91
1, 772864, Note_off_c, 0, 52, 63
1, 772869, Note_on_c, 0, 64, 79
1, 772869, Control_c, 0, 64, 60
1, 772873, Note_off_c, 0, 47, 60
1, 772879, Note_on_c, 0, 54, 73
1, 772884, Control_c, 0, 64, 62
1, 772899, Control_c, 0, 64, 64
1, 772909, Note_off_c, 0, 64, 62
1, 772914, Control_c, 0, 64, 66
1, 772926, Note_off_c, 0, 54, 55
1, 772928, Control_c, 0, 64, 68
1, 772943, Control_c, 0, 64, 71
1, 772958, Control_c, 0, 64, 73
1, 772961, Note_off_c, 0, 73, 65
1, 772973, Control_c, 0, 64, 74
1, 773002, Control_c, 0, 64, 72
1, 773014, Note_on_c, 0, 69, 61
1, 773016, Note_on_c, 0, 78, 92
1, 773017, Control_c, 0, 64, 62
1, 773020, Note_on_c, 0, 45, 74
1, 773032, Control_c, 0, 64, 0
1, 773106, Control_c, 0, 64, 45
1, 773115, Note_off_c, 0, 45, 58
1, 773121, Control_c, 0, 64, 61
1, 773136, Control_c, 0, 64, 64
1, 773151, Control_c, 0, 64, 66
1, 773157, Note_off_c, 0, 78, 59
1, 773166, Control_c, 0, 64, 67
1, 773174, Note_on_c, 0, 47, 72
1, 773180, Control_c, 0, 64, 69
1, 773193, Note_off_c, 0, 69, 38
1, 773195, Note_on_c, 0, 75, 88
1, 773195, Control_c, 0, 64, 70
1, 773197, Note_on_c, 0, 66, 79
1, 773202, Note_off_c, 0, 47, 65
1, 773210, Control_c, 0, 64, 72
1, 773225, Control_c, 0, 64, 73
1, 773240, Control_c, 0, 64, 74
1, 773254, Control_c, 0, 64, 76
1, 773269, Control_c, 0, 64, 76
1, 773283, Note_off_c, 0, 66, 61
1, 773284, Control_c, 0, 64, 77
1, 773298, Control_c, 0, 64, 77
1, 773313, Control_c, 0, 64, 78
1, 773328, Control_c, 0, 64, 78
1, 773343, Control_c, 0, 64, 79
1, 773358, Control_c, 0, 64, 79
1, 773370, Note_off_c, 0, 75, 59
1, 773372, Control_c, 0, 64, 80
1, 773410, Control_c, 0, 64, 80
1, 773440, Control_c, 0, 64, 80
1, 773454, Control_c, 0, 64, 76
1, 773469, Control_c, 0, 64, 64
1, 773485, Control_c, 0, 64, 33
1, 773499, Control_c, 0, 64, 0
1, 773511, Note_on_c, 0, 36, 44
1, 773520, Note_on_c, 0, 52, 44
1, 773521, Note_on_c, 0, 43, 41
1, 773574, Control_c, 0, 66, 127
1, 773757, Note_on_c, 0, 76, 48
1, 773766, Control_c, 0, 64, 37
1, 773771, Note_off_c, 0, 36, 59
1, 773781, Control_c, 0, 64, 49
1, 773793, Note_off_c, 0, 43, 59
1, 773796, Control_c, 0, 64, 58
1, 773810, Control_c, 0, 64, 62
1, 773825, Control_c, 0, 64, 64
1, 773840, Control_c, 0, 64, 65
1, 773841, Note_off_c, 0, 52, 62
1, 773855, Control_c, 0, 64, 66
1, 773857, Note_off_c, 0, 76, 39
1, 773870, Control_c, 0, 64, 67
1, 773884, Control_c, 0, 64, 68
1, 773899, Control_c, 0, 64, 69
1, 773914, Control_c, 0, 64, 69
1, 773920, Note_on_c, 0, 79, 55
1, 773929, Control_c, 0, 64, 70
1, 773944, Control_c, 0, 64, 70
1, 773959, Control_c, 0, 64, 71
1, 773973, Control_c, 0, 64, 71
1, 773989, Note_off_c, 0, 79, 58
1, 774066, Note_on_c, 0, 83, 64
1, 774107, Control_c, 0, 64, 72
1, 774134, Note_off_c, 0, 83, 56
1, 774158, Control_c, 0, 64, 71
1, 774188, Control_c, 0, 64, 69
1, 774203, Control_c, 0, 64, 68
1, 774213, Note_on_c, 0, 59, 52
1, 774213, Note_on_c, 0, 87, 59
1, 774218, Control_c, 0, 64, 67
1, 774276, Note_off_c, 0, 59, 55
1, 774352, Control_c, 0, 64, 68
1, 774367, Control_c, 0, 64, 68
1, 774377, Note_on_c, 0, 63, 55
1, 774397, Control_c, 0, 64, 69
1, 774412, Control_c, 0, 64, 69
1, 774438, Note_off_c, 0, 63, 54
1, 774448, Note_off_c, 0, 87, 64
1, 774520, Note_on_c, 0, 66, 63
1, 774560, Note_off_c, 0, 66, 61
1, 774597, Note_on_c, 0, 90, 71
1, 774696, Note_on_c, 0, 70, 73
1, 774702, Note_off_c, 0, 90, 61
1, 774800, Note_on_c, 0, 103, 88
1, 774805, Note_on_c, 0, 91, 78
1, 774838, Note_off_c, 0, 91, 65
1, 774841, Control_c, 0, 64, 69
1, 774853, Note_off_c, 0, 103, 66
1, 774916, Note_on_c, 0, 100, 92
1, 774966, Control_c, 0, 64, 68
1, 774976, Note_off_c, 0, 100, 65
1, 774981, Control_c, 0, 64, 64
1, 774996, Control_c, 0, 64, 48
1, 774999, Note_off_c, 0, 70, 63
1, 775011, Note_on_c, 0, 71, 83
1, 775011, Control_c, 0, 64, 0
1, 775015, Note_on_c, 0, 95, 103
1, 775031, Note_off_c, 0, 71, 69
1, 775053, Note_off_c, 0, 95, 67
1, 775123, Note_on_c, 0, 82, 94
1, 775131, Note_on_c, 0, 83, 96
1, 775167, Note_off_c, 0, 82, 64
1, 775224, Note_on_c, 0, 84, 85
1, 775232, Note_off_c, 0, 83, 64
1, 775237, Note_on_c, 0, 99, 56
1, 775240, Note_on_c, 0, 87, 71
1, 775264, Note_off_c, 0, 99, 50
1, 775266, Note_off_c, 0, 87, 65
1, 775270, Note_off_c, 0, 84, 64
1, 775329, Note_on_c, 0, 96, 74
1, 775383, Note_off_c, 0, 96, 65
1, 775431, Note_on_c, 0, 90, 71
1, 775457, Note_off_c, 0, 90, 66
1, 775538, Note_on_c, 0, 76, 62
1, 775546, Note_on_c, 0, 77, 78
1, 775568, Note_off_c, 0, 76, 65
1, 775622, Note_off_c, 0, 77, 60
1, 775643, Note_on_c, 0, 78, 61
1, 775655, Note_on_c, 0, 96, 72
1, 775661, Note_on_c, 0, 84, 66
1, 775670, Note_off_c, 0, 78, 62
1, 775679, Note_off_c, 0, 84, 65
1, 775683, Note_off_c, 0, 96, 65
1, 775764, Note_on_c, 0, 92, 68
1, 775811, Note_off_c, 0, 92, 51
1, 775854, Note_on_c, 0, 87, 62
1, 775885, Note_off_c, 0, 87, 65
1, 775964, Note_on_c, 0, 71, 56
1, 775974, Note_on_c, 0, 72, 62
1, 776000, Note_off_c, 0, 71, 61
1, 776048, Note_off_c, 0, 72, 53
1, 776069, Note_on_c, 0, 73, 57
1, 776069, Note_on_c, 0, 93, 74
1, 776074, Note_on_c, 0, 81, 60
1, 776089, Note_off_c, 0, 73, 65
1, 776093, Note_off_c, 0, 81, 64
1, 776105, Note_off_c, 0, 93, 54
1, 776182, Note_on_c, 0, 89, 62
1, 776216, Note_off_c, 0, 89, 62
1, 776279, Note_on_c, 0, 84, 58
1, 776299, Note_off_c, 0, 84, 61
1, 776399, Note_on_c, 0, 66, 40
1, 776419, Note_on_c, 0, 68, 50
1, 776429, Note_off_c, 0, 66, 51
1, 776501, Note_off_c, 0, 68, 48
1, 776515, Note_on_c, 0, 69, 52
1, 776517, Note_on_c, 0, 87, 57
1, 776534, Note_on_c, 0, 75, 34
1, 776538, Note_off_c, 0, 69, 61
1, 776552, Note_off_c, 0, 87, 63
1, 776564, Note_off_c, 0, 75, 44
1, 776632, Note_on_c, 0, 84, 48
1, 776662, Note_off_c, 0, 84, 63
1, 776737, Note_on_c, 0, 78, 53
1, 776758, Note_off_c, 0, 78, 57
1, 776820, Control_c, 0, 64, 29
1, 776835, Control_c, 0, 64, 34
1, 776850, Control_c, 0, 64, 38
1, 776865, Control_c, 0, 64, 42
1, 776880, Control_c, 0, 64, 45
1, 776895, Control_c, 0, 64, 48
1, 776910, Control_c, 0, 64, 49
1, 776925, Control_c, 0, 64, 46
1, 776931, Note_on_c, 0, 62, 86
1, 776932, Note_on_c, 0, 83, 99
1, 776933, Note_on_c, 0, 71, 90
1, 776939, Control_c, 0, 64, 32
1, 776941, Note_on_c, 0, 63, 82
1, 776954, Control_c, 0, 64, 0
1, 776954, Note_off_c, 0, 71, 64
1, 776959, Note_on_c, 0, 72, 52
1, 776959, Note_off_c, 0, 72, 127
1, 776975, Note_off_c, 0, 83, 64
1, 776978, Note_off_c, 0, 62, 62
1, 776984, Control_c, 0, 66, 0
1, 777012, Note_off_c, 0, 63, 59
1, 777052, Note_on_c, 0, 64, 70
1, 777066, Note_on_c, 0, 79, 44
1, 777074, Note_on_c, 0, 77, 48
1, 777079, Note_off_c, 0, 64, 69
1, 777091, Note_off_c, 0, 79, 59
1, 777099, Note_off_c, 0, 77, 57
1, 777161, Note_on_c, 0, 76, 69
1, 777201, Note_off_c, 0, 76, 57
1, 777275, Note_on_c, 0, 72, 61
1, 777304, Note_off_c, 0, 72, 64
1, 777345, Poly_aftertouch_c, 0, 59, 127
1, 777347, Control_c, 0, 67, 39
1, 777356, Note_on_c, 0, 60, 38
1, 777361, Control_c, 0, 67, 54
1, 777376, Control_c, 0, 67, 74
1, 777379, Poly_aftertouch_c, 0, 59, 0
1, 777385, Note_on_c, 0, 76, 67
1, 777391, Control_c, 0, 67, 96
1, 777405, Note_off_c, 0, 60, 65
1, 777406, Control_c, 0, 67, 117
1, 777420, Control_c, 0, 67, 127
1, 777433, Note_off_c, 0, 76, 59
1, 777497, Note_on_c, 0, 77, 68
1, 777554, Note_off_c, 0, 77, 63
1, 777588, Note_on_c, 0, 48, 54
1, 777612, Note_on_c, 0, 79, 65
1, 777629, Control_c, 0, 64, 39
1, 777643, Control_c, 0, 64, 53
1, 777658, Control_c, 0, 64, 60
1, 777672, Note_on_c, 0, 57, 43
1, 777673, Control_c, 0, 64, 62
1, 777688, Control_c, 0, 64, 64
1, 777703, Control_c, 0, 64, 65
1, 777709, Note_off_c, 0, 79, 63
1, 777717, Control_c, 0, 64, 67
1, 777732, Control_c, 0, 64, 69
1, 777747, Control_c, 0, 64, 72
1, 777762, Control_c, 0, 64, 74
1, 777777, Control_c, 0, 64, 75
1, 777792, Control_c, 0, 64, 76
1, 777796, Note_off_c, 0, 48, 36
1, 777798, Note_on_c, 0, 81, 72
1, 777799, Note_off_c, 0, 57, 56
1, 777807, Control_c, 0, 64, 77
1, 777812, Note_on_c, 0, 64, 37
1, 777815, Note_on_c, 0, 65, 51
1, 777822, Control_c, 0, 64, 78
1, 777837, Control_c, 0, 64, 79
1, 777850, Note_on_c, 0, 76, 28
1, 777851, Control_c, 0, 64, 81
1, 777855, Note_off_c, 0, 81, 62
1, 777866, Control_c, 0, 64, 82
1, 777870, Note_off_c, 0, 64, 60
1, 777877, Note_off_c, 0, 65, 59
1, 777881, Control_c, 0, 64, 83
1, 777884, Note_off_c, 0, 76, 54
1, 777902, Control_c, 0, 64, 84
1, 777917, Control_c, 0, 64, 84
1, 777927, Note_on_c, 0, 71, 59
1, 777957, Note_off_c, 0, 71, 61
1, 778031, Note_on_c, 0, 81, 74
1, 778053, Note_off_c, 0, 81, 69
1, 778134, Note_on_c, 0, 84, 68
1, 778177, Note_off_c, 0, 84, 55
1, 778236, Note_on_c, 0, 74, 47
1, 778242, Note_on_c, 0, 96, 68
1, 778246, Note_on_c, 0, 62, 41
1, 778247, Note_on_c, 0, 69, 34
1, 778253, Note_on_c, 0, 91, 65
1, 778260, Note_off_c, 0, 74, 55
1, 778281, Note_off_c, 0, 69, 53
1, 778281, Note_off_c, 0, 96, 61
1, 778300, Note_off_c, 0, 91, 60
1, 778322, Note_off_c, 0, 62, 51
1, 778349, Note_on_c, 0, 84, 71
1, 778370, Note_off_c, 0, 84, 70
1, 778457, Note_on_c, 0, 83, 74
1, 778481, Note_on_c, 0, 77, 58
1, 778520, Note_off_c, 0, 83, 62
1, 778527, Note_off_c, 0, 77, 58
1, 778560, Note_on_c, 0, 48, 54
1, 778571, Control_c, 0, 64, 84
1, 778581, Note_on_c, 0, 72, 60
1, 778586, Control_c, 0, 64, 79
1, 778600, Control_c, 0, 64, 70
1, 778606, Note_on_c, 0, 55, 45
1, 778615, Control_c, 0, 64, 57
1, 778630, Control_c, 0, 64, 45
1, 778632, Note_off_c, 0, 72, 51
1, 778653, Control_c, 0, 64, 39
1, 778668, Control_c, 0, 64, 40
1, 778682, Control_c, 0, 64, 47
1, 778697, Control_c, 0, 64, 57
1, 778699, Note_on_c, 0, 79, 59
1, 778700, Note_on_c, 0, 64, 38
1, 778710, Note_on_c, 0, 62, 34
1, 778712, Control_c, 0, 64, 63
1, 778721, Note_on_c, 0, 74, 51
1, 778726, Control_c, 0, 64, 66
1, 778741, Control_c, 0, 64, 68
1, 778743, Note_off_c, 0, 79, 58
1, 778756, Control_c, 0, 64, 70
1, 778764, Note_off_c, 0, 74, 62
1, 778767, Note_off_c, 0, 48, 55
1, 778771, Control_c, 0, 64, 71
1, 778786, Control_c, 0, 64, 72
1, 778793, Note_off_c, 0, 55, 37
1, 778800, Control_c, 0, 64, 73
1, 778815, Note_on_c, 0, 69, 54
1, 778815, Control_c, 0, 64, 74
1, 778830, Control_c, 0, 64, 75
1, 778840, Note_off_c, 0, 64, 60
1, 778842, Note_off_c, 0, 69, 56
1, 778859, Control_c, 0, 64, 76
1, 778860, Note_off_c, 0, 62, 42
1, 778926, Note_on_c, 0, 79, 52
1, 778934, Control_c, 0, 64, 76
1, 778946, Note_off_c, 0, 79, 63
1, 779023, Note_on_c, 0, 83, 69
1, 779071, Note_off_c, 0, 83, 53
1, 779136, Note_on_c, 0, 72, 41
1, 779136, Note_on_c, 0, 95, 63
1, 779142, Note_on_c, 0, 60, 42
1, 779144, Note_on_c, 0, 89, 62
1, 779147, Note_on_c, 0, 67, 40
1, 779166, Note_off_c, 0, 95, 61
1, 779167, Note_off_c, 0, 72, 51
1, 779187, Note_off_c, 0, 67, 50
1, 779190, Note_off_c, 0, 89, 60
1, 779224, Note_off_c, 0, 60, 63
1, 779249, Note_on_c, 0, 83, 61
1, 779265, Note_off_c, 0, 83, 64
1, 779342, Note_on_c, 0, 81, 68
1, 779360, Note_on_c, 0, 76, 57
1, 779409, Note_off_c, 0, 81, 63
1, 779418, Note_off_c, 0, 76, 61
1, 779461, Note_on_c, 0, 48, 40
1, 779463, Note_on_c, 0, 71, 65
1, 779490, Control_c, 0, 64, 75
1, 779494, Note_on_c, 0, 53, 40
1, 779505, Control_c, 0, 64, 70
1, 779514, Note_off_c, 0, 71, 55
1, 779520, Control_c, 0, 64, 60
1, 779535, Control_c, 0, 64, 41
1, 779549, Control_c, 0, 64, 0
1, 779578, Note_on_c, 0, 77, 63
1, 779579, Note_on_c, 0, 62, 46
1, 779579, Control_c, 0, 64, 33
1, 779580, Note_on_c, 0, 60, 31
1, 779593, Note_on_c, 0, 72, 58
1, 779594, Control_c, 0, 64, 44
1, 779609, Control_c, 0, 64, 55
1, 779623, Control_c, 0, 64, 61
1, 779627, Note_off_c, 0, 77, 61
1, 779638, Control_c, 0, 64, 64
1, 779642, Note_off_c, 0, 72, 58
1, 779653, Control_c, 0, 64, 66
1, 779667, Control_c, 0, 64, 68
1, 779682, Control_c, 0, 64, 69
1, 779683, Note_on_c, 0, 67, 65
1, 779691, Note_off_c, 0, 48, 41
1, 779697, Control_c, 0, 64, 71
1, 779706, Note_off_c, 0, 53, 35
1, 779712, Control_c, 0, 64, 72
1, 779725, Note_off_c, 0, 67, 57
1, 779727, Control_c, 0, 64, 73
1, 779738, Note_off_c, 0, 62, 63
1, 779741, Note_off_c, 0, 60, 38
1, 779756, Control_c, 0, 64, 73
1, 779782, Note_on_c, 0, 72, 49
1, 779789, Note_on_c, 0, 77, 62
1, 779804, Note_off_c, 0, 72, 57
1, 779816, Note_off_c, 0, 77, 68
1, 779861, Control_c, 0, 64, 74
1, 779891, Note_on_c, 0, 81, 73
1, 779935, Control_c, 0, 64, 72
1, 779950, Control_c, 0, 64, 70
1, 779951, Note_off_c, 0, 81, 60
1, 779965, Control_c, 0, 64, 68
1, 779980, Control_c, 0, 64, 67
1, 779988, Note_on_c, 0, 59, 27
1, 780004, Note_on_c, 0, 93, 69
1, 780008, Note_on_c, 0, 71, 47
1, 780010, Note_on_c, 0, 88, 69
1, 780017, Note_on_c, 0, 65, 44
1, 780025, Control_c, 0, 64, 68
1, 780037, Note_off_c, 0, 71, 57
1, 780039, Note_off_c, 0, 93, 57
1, 780039, Control_c, 0, 64, 69
1, 780053, Note_off_c, 0, 65, 64
1, 780054, Control_c, 0, 64, 70
1, 780066, Note_off_c, 0, 88, 62
1, 780069, Control_c, 0, 64, 71
1, 780078, Note_off_c, 0, 59, 61
1, 780083, Control_c, 0, 64, 71
1, 780114, Note_on_c, 0, 81, 71
1, 780146, Note_off_c, 0, 81, 70
1, 780209, Control_c, 0, 64, 72
1, 780222, Note_on_c, 0, 79, 76
1, 780239, Control_c, 0, 64, 73
1, 780241, Note_on_c, 0, 74, 71
1, 780254, Control_c, 0, 64, 74
1, 780278, Note_off_c, 0, 74, 60
1, 780282, Note_off_c, 0, 79, 66
1, 780298, Control_c, 0, 64, 73
1, 780313, Control_c, 0, 64, 68
1, 780326, Note_on_c, 0, 69, 78
1, 780327, Control_c, 0, 64, 58
1, 780330, Note_on_c, 0, 52, 63
1, 780342, Control_c, 0, 64, 44
1, 780357, Control_c, 0, 64, 42
1, 780371, Control_c, 0, 64, 43
1, 780386, Control_c, 0, 64, 51
1, 780391, Note_off_c, 0, 69, 61
1, 780401, Control_c, 0, 64, 61
1, 780403, Note_on_c, 0, 59, 59
1, 780416, Control_c, 0, 64, 65
1, 780418, Note_off_c, 0, 52, 59
1, 780431, Control_c, 0, 64, 69
1, 780431, Control_c, 0, 67, 94
1, 780432, Note_on_c, 0, 76, 78
1, 780439, Note_on_c, 0, 71, 56
1, 780443, Note_off_c, 0, 59, 64
1, 780445, Control_c, 0, 64, 71
1, 780445, Control_c, 0, 67, 45
1, 780454, Note_off_c, 0, 76, 70
1, 780460, Control_c, 0, 64, 72
1, 780460, Control_c, 0, 67, 0
1, 780462, Note_on_c, 0, 64, 59
1, 780463, Note_off_c, 0, 71, 58
1, 780487, Note_off_c, 0, 64, 65
1, 780505, Control_c, 0, 64, 71
1, 780520, Control_c, 0, 64, 69
1, 780533, Note_on_c, 0, 83, 89
1, 780534, Control_c, 0, 64, 65
1, 780541, Note_on_c, 0, 64, 77
1, 780549, Control_c, 0, 64, 57
1, 780564, Control_c, 0, 64, 49
1, 780573, Note_off_c, 0, 83, 64
1, 780579, Control_c, 0, 64, 41
1, 780594, Control_c, 0, 64, 35
1, 780600, Note_off_c, 0, 64, 63
1, 780609, Control_c, 0, 64, 33
1, 780623, Control_c, 0, 64, 32
1, 780630, Note_on_c, 0, 84, 89
1, 780638, Note_on_c, 0, 65, 63
1, 780638, Control_c, 0, 64, 32
1, 780669, Control_c, 0, 64, 30
1, 780680, Note_off_c, 0, 84, 64
1, 780683, Control_c, 0, 64, 0
1, 780713, Note_off_c, 0, 65, 62
1, 780723, Note_on_c, 0, 67, 68
1, 780725, Note_on_c, 0, 86, 84
1, 780749, Note_off_c, 0, 67, 66
1, 780764, Note_off_c, 0, 86, 67
1, 780817, Control_c, 0, 64, 31
1, 780828, Note_on_c, 0, 88, 94
1, 780832, Note_on_c, 0, 83, 87
1, 780832, Control_c, 0, 64, 49
1, 780836, Note_on_c, 0, 64, 73
1, 780837, Note_on_c, 0, 69, 73
1, 780847, Control_c, 0, 64, 60
1, 780861, Control_c, 0, 64, 64
1, 780876, Control_c, 0, 64, 65
1, 780892, Note_off_c, 0, 83, 61
1, 780898, Control_c, 0, 64, 66
1, 780901, Note_off_c, 0, 69, 63
1, 780901, Note_off_c, 0, 88, 65
1, 780905, Note_off_c, 0, 64, 63
1, 780913, Control_c, 0, 64, 68
1, 780928, Control_c, 0, 64, 69
1, 780935, Note_on_c, 0, 77, 83
1, 780943, Control_c, 0, 64, 69
1, 780946, Note_on_c, 0, 74, 79
1, 780958, Control_c, 0, 64, 70
1, 780987, Control_c, 0, 64, 71
1, 780999, Note_off_c, 0, 77, 58
1, 781009, Note_off_c, 0, 74, 59
1, 781017, Control_c, 0, 64, 71
1, 781032, Control_c, 0, 64, 72
1, 781038, Note_on_c, 0, 88, 78
1, 781040, Note_on_c, 0, 64, 69
1, 781043, Note_on_c, 0, 83, 59
1, 781047, Control_c, 0, 64, 73
1, 781050, Note_on_c, 0, 69, 44
1, 781062, Control_c, 0, 64, 74
1, 781062, Note_off_c, 0, 88, 66
1, 781063, Note_off_c, 0, 83, 60
1, 781065, Note_off_c, 0, 64, 69
1, 781072, Note_off_c, 0, 69, 61
1, 781077, Control_c, 0, 64, 75
1, 781092, Control_c, 0, 64, 75
1, 781121, Control_c, 0, 64, 75
1, 781134, Poly_aftertouch_c, 0, 86, 0
1, 781136, Control_c, 0, 64, 74
1, 781137, Note_on_c, 0, 91, 85
1, 781143, Note_on_c, 0, 60, 74
1, 781151, Control_c, 0, 64, 71
1, 781166, Control_c, 0, 64, 64
1, 781181, Control_c, 0, 64, 58
1, 781195, Control_c, 0, 64, 56
1, 781208, Note_off_c, 0, 91, 64
1, 781210, Control_c, 0, 64, 57
1, 781223, Note_off_c, 0, 60, 61
1, 781225, Control_c, 0, 64, 59
1, 781237, Note_on_c, 0, 103, 103
1, 781239, Control_c, 0, 64, 61
1, 781243, Note_on_c, 0, 48, 85
1, 781243, Note_on_c, 0, 96, 94
1, 781254, Control_c, 0, 64, 63
1, 781262, Note_on_c, 0, 53, 71
1, 781269, Control_c, 0, 64, 64
1, 781284, Control_c, 0, 64, 64
1, 781299, Note_off_c, 0, 48, 63
1, 781312, Note_off_c, 0, 96, 61
1, 781315, Note_off_c, 0, 103, 66
1, 781324, Note_off_c, 0, 53, 63
1, 781328, Control_c, 0, 64, 65
1, 781336, Note_on_c, 0, 91, 81
1, 781337, Note_on_c, 0, 60, 71
1, 781360, Note_off_c, 0, 60, 68
1, 781368, Note_off_c, 0, 91, 68
1, 781402, Control_c, 0, 64, 64
1, 781417, Control_c, 0, 64, 63
1, 781432, Control_c, 0, 64, 63
1, 781444, Note_on_c, 0, 89, 84
1, 781447, Control_c, 0, 64, 62
1, 781448, Note_on_c, 0, 64, 72
1, 781451, Note_on_c, 0, 84, 82
1, 781456, Note_on_c, 0, 69, 61
1, 781477, Control_c, 0, 64, 63
1, 781492, Control_c, 0, 64, 63
1, 781506, Note_off_c, 0, 84, 63
1, 781507, Control_c, 0, 64, 64
1, 781509, Note_off_c, 0, 89, 62
1, 781522, Control_c, 0, 64, 64
1, 781524, Note_off_c, 0, 69, 62
1, 781525, Note_off_c, 0, 64, 59
1, 781536, Control_c, 0, 64, 65
1, 781546, Note_on_c, 0, 79, 76
1, 781551, Control_c, 0, 64, 65
1, 781554, Note_on_c, 0, 74, 78
1, 781581, Control_c, 0, 64, 65
1, 781596, Control_c, 0, 64, 61
1, 781601, Note_off_c, 0, 79, 62
1, 781609, Note_off_c, 0, 74, 62
1, 781611, Control_c, 0, 64, 49
1, 781625, Control_c, 0, 64, 0
1, 781658, Note_on_c, 0, 86, 85
1, 781659, Note_on_c, 0, 81, 79
1, 781667, Note_on_c, 0, 62, 67
1, 781672, Note_on_c, 0, 67, 62
1, 781694, Note_off_c, 0, 86, 67
1, 781703, Note_off_c, 0, 62, 62
1, 781708, Note_off_c, 0, 67, 60
1, 781708, Note_off_c, 0, 81, 62
1, 781754, Note_on_c, 0, 76, 76
1, 781759, Note_on_c, 0, 72, 70
1, 781797, Note_off_c, 0, 76, 58
1, 781820, Note_off_c, 0, 72, 58
1, 781840, Control_c, 0, 64, 43
1, 781854, Note_on_c, 0, 81, 70
1, 781855, Note_on_c, 0, 86, 88
1, 781855, Control_c, 0, 64, 57
1, 781858, Note_on_c, 0, 67, 65
1, 781869, Note_on_c, 0, 62, 63
1, 781870, Control_c, 0, 64, 61
1, 781876, Note_off_c, 0, 81, 70
1, 781879, Note_off_c, 0, 67, 63
1, 781885, Control_c, 0, 64, 62
1, 781893, Note_off_c, 0, 86, 66
1, 781898, Note_off_c, 0, 62, 64
1, 781900, Control_c, 0, 64, 63
1, 781915, Control_c, 0, 64, 63
1, 781929, Control_c, 0, 64, 64
1, 781956, Note_on_c, 0, 89, 73
1, 781959, Control_c, 0, 64, 65
1, 781962, Note_on_c, 0, 59, 73
1, 782031, Note_off_c, 0, 89, 60
1, 782042, Note_off_c, 0, 59, 61
1, 782055, Note_on_c, 0, 101, 90
1, 782064, Note_on_c, 0, 95, 88
1, 782064, Note_on_c, 0, 47, 73
1, 782090, Note_on_c, 0, 52, 54
1, 782118, Note_off_c, 0, 47, 60
1, 782132, Note_off_c, 0, 52, 61
1, 782134, Note_off_c, 0, 101, 66
1, 782141, Note_off_c, 0, 95, 63
1, 782153, Note_on_c, 0, 59, 75
1, 782163, Note_on_c, 0, 89, 78
1, 782180, Note_off_c, 0, 59, 68
1, 782198, Note_off_c, 0, 89, 65
1, 782226, Control_c, 0, 64, 64
1, 782241, Control_c, 0, 64, 62
1, 782256, Control_c, 0, 64, 60
1, 782272, Control_c, 0, 64, 58
1, 782272, Note_on_c, 0, 88, 74
1, 782275, Note_on_c, 0, 62, 63
1, 782278, Note_on_c, 0, 83, 76
1, 782280, Note_on_c, 0, 67, 65
1, 782286, Control_c, 0, 64, 58
1, 782331, Note_off_c, 0, 83, 64
1, 782331, Control_c, 0, 64, 58
1, 782334, Note_off_c, 0, 88, 64
1, 782343, Note_off_c, 0, 67, 62
1, 782346, Control_c, 0, 64, 59
1, 782346, Control_c, 0, 67, 45
1, 782357, Note_off_c, 0, 62, 61
1, 782360, Control_c, 0, 64, 60
1, 782360, Control_c, 0, 67, 54
1, 782368, Note_on_c, 0, 77, 78
1, 782375, Control_c, 0, 67, 62
1, 782377, Note_on_c, 0, 72, 72
1, 782397, Control_c, 0, 67, 70
1, 782412, Control_c, 0, 64, 58
1, 782412, Control_c, 0, 67, 81
1, 782427, Control_c, 0, 64, 53
1, 782427, Control_c, 0, 67, 96
1, 782436, Note_off_c, 0, 77, 63
1, 782437, Note_off_c, 0, 72, 60
1, 782442, Control_c, 0, 64, 44
1, 782442, Control_c, 0, 67, 113
1, 782457, Control_c, 0, 64, 0
1, 782457, Control_c, 0, 67, 125
1, 782472, Control_c, 0, 67, 127
1, 782488, Note_on_c, 0, 84, 76
1, 782490, Note_on_c, 0, 79, 70
1, 782495, Note_on_c, 0, 60, 62
1, 782499, Note_on_c, 0, 65, 57
1, 782528, Note_off_c, 0, 84, 65
1, 782545, Note_off_c, 0, 60, 61
1, 782549, Note_off_c, 0, 79, 63
1, 782554, Note_off_c, 0, 65, 61
1, 782580, Note_on_c, 0, 74, 77
1, 782587, Note_on_c, 0, 71, 76
1, 782619, Control_c, 0, 64, 30
1, 782633, Control_c, 0, 64, 43
1, 782639, Note_off_c, 0, 74, 62
1, 782648, Control_c, 0, 64, 53
1, 782650, Note_off_c, 0, 71, 58
1, 782663, Control_c, 0, 64, 58
1, 782678, Control_c, 0, 64, 60
1, 782684, Note_on_c, 0, 65, 63
1, 782689, Note_on_c, 0, 84, 75
1, 782690, Note_on_c, 0, 79, 48
1, 782693, Control_c, 0, 64, 61
1, 782699, Note_on_c, 0, 60, 49
1, 782703, Note_off_c, 0, 65, 64
1, 782707, Control_c, 0, 64, 61
1, 782714, Note_off_c, 0, 79, 59
1, 782722, Control_c, 0, 64, 62
1, 782724, Note_off_c, 0, 84, 65
1, 782724, Note_off_c, 0, 60, 63
1, 782737, Control_c, 0, 64, 63
1, 782752, Control_c, 0, 64, 64
1, 782767, Control_c, 0, 64, 65
1, 782782, Control_c, 0, 64, 65
1, 782797, Note_on_c, 0, 57, 67
1, 782797, Note_on_c, 0, 88, 72
1, 782811, Control_c, 0, 64, 65
1, 782826, Control_c, 0, 64, 62
1, 782841, Control_c, 0, 64, 56
1, 782856, Control_c, 0, 64, 50
1, 782871, Control_c, 0, 64, 50
1, 782874, Note_off_c, 0, 88, 58
1, 782885, Control_c, 0, 64, 51
1, 782900, Note_on_c, 0, 100, 81
1, 782900, Control_c, 0, 64, 56
1, 782901, Note_off_c, 0, 57, 59
1, 782915, Control_c, 0, 64, 60
1, 782916, Note_on_c, 0, 45, 56
1, 782925, Note_on_c, 0, 93, 69
1, 782930, Control_c, 0, 64, 63
1, 782940, Note_on_c, 0, 50, 44
1, 782945, Control_c, 0, 64, 64
1, 782959, Control_c, 0, 64, 64
1, 782964, Note_off_c, 0, 45, 61
1, 782974, Control_c, 0, 64, 65
1, 782976, Note_off_c, 0, 100, 62
1, 782984, Note_off_c, 0, 50, 64
1, 782986, Note_off_c, 0, 93, 62
1, 782989, Control_c, 0, 64, 65
1, 783004, Control_c, 0, 64, 66
1, 783012, Note_on_c, 0, 57, 69
1, 783022, Note_on_c, 0, 88, 74
1, 783038, Note_off_c, 0, 57, 67
1, 783054, Note_off_c, 0, 88, 63
1, 783146, Note_on_c, 0, 86, 74
1, 783152, Note_on_c, 0, 60, 60
1, 783160, Note_on_c, 0, 65, 53
1, 783186, Note_on_c, 0, 81, 46
1, 783194, Note_on_c, 0, 83, 41
1, 783208, Note_off_c, 0, 86, 62
1, 783220, Control_c, 0, 64, 66
1, 783222, Note_off_c, 0, 81, 66
1, 783222, Note_off_c, 0, 83, 50
1, 783230, Note_off_c, 0, 65, 62
1, 783243, Note_off_c, 0, 60, 62
1, 783261, Note_on_c, 0, 71, 70
1, 783261, Note_on_c, 0, 74, 73
1, 783264, Control_c, 0, 64, 65
1, 783279, Control_c, 0, 64, 61
1, 783294, Control_c, 0, 64, 51
1, 783309, Control_c, 0, 64, 42
1, 783323, Control_c, 0, 64, 40
1, 783338, Control_c, 0, 64, 41
1, 783340, Note_off_c, 0, 74, 59
1, 783343, Note_off_c, 0, 71, 54
1, 783353, Control_c, 0, 64, 45
1, 783368, Control_c, 0, 64, 52
1, 783382, Note_on_c, 0, 59, 70
1, 783383, Control_c, 0, 64, 58
1, 783389, Note_on_c, 0, 64, 49
1, 783389, Note_on_c, 0, 83, 73
1, 783397, Control_c, 0, 64, 61
1, 783404, Note_on_c, 0, 76, 52
1, 783412, Control_c, 0, 64, 63
1, 783413, Note_off_c, 0, 64, 59
1, 783423, Note_off_c, 0, 59, 64
1, 783427, Control_c, 0, 64, 63
1, 783441, Control_c, 0, 64, 64
1, 783456, Control_c, 0, 64, 64
1, 783501, Control_c, 0, 64, 64
1, 783503, Note_on_c, 0, 52, 85
1, 783515, Control_c, 0, 64, 61
1, 783530, Control_c, 0, 64, 56
1, 783545, Control_c, 0, 64, 52
1, 783560, Control_c, 0, 64, 51
1, 783575, Control_c, 0, 64, 52
1, 783590, Control_c, 0, 64, 54
1, 783605, Control_c, 0, 64, 57
1, 783616, Note_on_c, 0, 53, 77
1, 783617, Note_off_c, 0, 83, 61
1, 783617, Note_off_c, 0, 52, 64
1, 783620, Control_c, 0, 64, 60
1, 783634, Control_c, 0, 64, 61
1, 783637, Note_off_c, 0, 76, 64
1, 783649, Control_c, 0, 64, 62
1, 783664, Control_c, 0, 64, 62
1, 783679, Control_c, 0, 64, 63
1, 783679, Control_c, 0, 67, 124
1, 783694, Control_c, 0, 64, 64
1, 783694, Control_c, 0, 67, 105
1, 783705, Note_on_c, 0, 55, 85
1, 783708, Control_c, 0, 64, 65
1, 783708, Control_c, 0, 67, 90
1, 783716, Note_off_c, 0, 53, 61
1, 783723, Control_c, 0, 64, 66
1, 783723, Control_c, 0, 67, 82
1, 783738, Control_c, 0, 64, 67
1, 783738, Control_c, 0, 67, 79
1, 783753, Control_c, 0, 64, 67
1, 783755, Note_off_c, 0, 55, 64
1, 783768, Control_c, 0, 64, 68
1, 783782, Control_c, 0, 67, 80
1, 783797, Control_c, 0, 64, 67
1, 783797, Control_c, 0, 67, 81
1, 783812, Control_c, 0, 64, 65
1, 783812, Control_c, 0, 67, 82
1, 783816, Note_on_c, 0, 57, 86
1, 783827, Control_c, 0, 64, 59
1, 783827, Control_c, 0, 67, 83
1, 783831, Note_on_c, 0, 48, 76
1, 783841, Control_c, 0, 64, 46
1, 783841, Control_c, 0, 67, 83
1, 783857, Control_c, 0, 64, 32
1, 783872, Control_c, 0, 64, 0
1, 783872, Control_c, 0, 67, 84
1, 783909, Control_c, 0, 64, 32
1, 783924, Control_c, 0, 64, 44
1, 783936, Note_on_c, 0, 63, 70
1, 783939, Control_c, 0, 64, 52
1, 783954, Control_c, 0, 64, 59
1, 783968, Control_c, 0, 64, 61
1, 783983, Control_c, 0, 64, 62
1, 783998, Control_c, 0, 64, 63
1, 783998, Control_c, 0, 67, 85
1, 784000, Note_off_c, 0, 63, 63
1, 784028, Control_c, 0, 64, 63
1, 784043, Control_c, 0, 64, 63
1, 784058, Control_c, 0, 64, 59
1, 784060, Note_on_c, 0, 60, 89
1, 784063, Note_on_c, 0, 65, 58
1, 784063, Note_off_c, 0, 57, 65
1, 784072, Control_c, 0, 64, 50
1, 784072, Control_c, 0, 67, 84
1, 784087, Control_c, 0, 64, 37
1, 784097, Note_off_c, 0, 65, 62
1, 784102, Control_c, 0, 64, 0
1, 784146, Control_c, 0, 64, 34
1, 784152, Note_on_c, 0, 75, 70
1, 784161, Control_c, 0, 64, 47
1, 784176, Control_c, 0, 64, 56
1, 784183, Note_on_c, 0, 69, 46
1, 784191, Control_c, 0, 64, 61
1, 784206, Control_c, 0, 64, 61
1, 784214, Note_off_c, 0, 75, 60
1, 784220, Control_c, 0, 67, 85
1, 784235, Control_c, 0, 64, 62
1, 784241, Note_off_c, 0, 69, 53
1, 784267, Note_on_c, 0, 72, 57
1, 784269, Note_on_c, 0, 77, 70
1, 784279, Control_c, 0, 67, 85
1, 784287, Note_off_c, 0, 72, 63
1, 784293, Note_off_c, 0, 77, 70
1, 784294, Control_c, 0, 64, 62
1, 784294, Control_c, 0, 67, 86
1, 784309, Control_c, 0, 64, 63
1, 784309, Control_c, 0, 67, 86
1, 784324, Control_c, 0, 64, 63
1, 784324, Control_c, 0, 67, 87
1, 784338, Control_c, 0, 64, 64
1, 784353, Control_c, 0, 67, 88
1, 784368, Control_c, 0, 64, 64
1, 784368, Control_c, 0, 67, 88
1, 784375, Note_on_c, 0, 82, 78
1, 784383, Control_c, 0, 64, 65
1, 784383, Control_c, 0, 67, 90
1, 784413, Control_c, 0, 67, 90
1, 784427, Control_c, 0, 64, 64
1, 784427, Control_c, 0, 67, 91
1, 784442, Control_c, 0, 64, 61
1, 784455, Note_off_c, 0, 82, 63
1, 784457, Control_c, 0, 64, 50
1, 784457, Control_c, 0, 67, 92
1, 784472, Control_c, 0, 64, 32
1, 784487, Control_c, 0, 64, 0
1, 784496, Note_on_c, 0, 59, 83
1, 784508, Note_on_c, 0, 84, 71
1, 784509, Note_off_c, 0, 60, 58
1, 784546, Control_c, 0, 64, 32
1, 784561, Control_c, 0, 64, 44
1, 784561, Control_c, 0, 67, 92
1, 784575, Control_c, 0, 64, 53
1, 784590, Control_c, 0, 64, 59
1, 784597, Note_off_c, 0, 84, 61
1, 784605, Control_c, 0, 64, 61
1, 784615, Note_on_c, 0, 87, 69
1, 784620, Control_c, 0, 64, 62
1, 784620, Control_c, 0, 67, 93
1, 784638, Note_off_c, 0, 48, 61
1, 784642, Control_c, 0, 64, 62
1, 784658, Control_c, 0, 64, 63
1, 784673, Control_c, 0, 64, 64
1, 784687, Control_c, 0, 64, 64
1, 784702, Note_off_c, 0, 87, 59
1, 784702, Control_c, 0, 64, 65
1, 784717, Control_c, 0, 67, 94
1, 784732, Control_c, 0, 67, 94
1, 784735, Note_on_c, 0, 55, 78
1, 784743, Note_on_c, 0, 48, 79
1, 784746, Note_off_c, 0, 59, 61
1, 784747, Control_c, 0, 64, 64
1, 784747, Control_c, 0, 67, 95
1, 784761, Control_c, 0, 64, 59
1, 784761, Control_c, 0, 67, 96
1, 784776, Control_c, 0, 64, 46
1, 784791, Control_c, 0, 64, 0
1, 784806, Control_c, 0, 67, 98
1, 784822, Control_c, 0, 67, 100
1, 784836, Control_c, 0, 67, 102
1, 784845, Note_on_c, 0, 88, 79
1, 784853, Note_on_c, 0, 76, 61
1, 784866, Control_c, 0, 67, 104
1, 784871, Note_off_c, 0, 76, 64
1, 784875, Note_off_c, 0, 88, 59
1, 784958, Note_on_c, 0, 84, 72
1, 784983, Note_off_c, 0, 84, 63
1, 785000, Control_c, 0, 67, 106
1, 785047, Note_on_c, 0, 79, 69
1, 785071, Note_off_c, 0, 79, 67
1, 785088, Control_c, 0, 67, 109
1, 785133, Control_c, 0, 67, 111
1, 785150, Note_on_c, 0, 83, 71
1, 785155, Note_on_c, 0, 71, 70
1, 785179, Note_off_c, 0, 83, 51
1, 785180, Note_off_c, 0, 71, 68
1, 785211, Note_off_c, 0, 55, 61
1, 785215, Note_on_c, 0, 52, 69
1, 785260, Note_on_c, 0, 78, 70
1, 785310, Note_off_c, 0, 78, 53
1, 785335, Note_on_c, 0, 53, 69
1, 785340, Control_c, 0, 67, 113
1, 785366, Note_off_c, 0, 48, 59
1, 785368, Note_on_c, 0, 75, 58
1, 785369, Control_c, 0, 67, 119
1, 785392, Control_c, 0, 64, 34
1, 785392, Control_c, 0, 67, 127
1, 785404, Note_off_c, 0, 52, 47
1, 785407, Control_c, 0, 64, 45
1, 785421, Control_c, 0, 64, 54
1, 785436, Control_c, 0, 64, 58
1, 785441, Note_off_c, 0, 75, 63
1, 785446, Note_on_c, 0, 55, 79
1, 785451, Control_c, 0, 64, 60
1, 785455, Note_on_c, 0, 72, 60
1, 785461, Note_off_c, 0, 53, 62
1, 785467, Control_c, 0, 64, 61
1, 785482, Control_c, 0, 64, 61
1, 785483, Note_off_c, 0, 72, 65
1, 785501, Note_off_c, 0, 55, 63
1, 785541, Control_c, 0, 64, 60
1, 785556, Control_c, 0, 64, 52
1, 785564, Note_on_c, 0, 57, 73
1, 785571, Control_c, 0, 64, 39
1, 785578, Note_on_c, 0, 47, 59
1, 785585, Control_c, 0, 64, 0
1, 785674, Control_c, 0, 64, 34
1, 785679, Note_on_c, 0, 63, 69
1, 785689, Control_c, 0, 64, 47
1, 785703, Control_c, 0, 64, 57
1, 785718, Control_c, 0, 64, 61
1, 785733, Control_c, 0, 64, 61
1, 785748, Control_c, 0, 64, 62
1, 785761, Note_off_c, 0, 63, 62
1, 785778, Control_c, 0, 64, 61
1, 785793, Control_c, 0, 64, 59
1, 785798, Note_off_c, 0, 57, 64
1, 785802, Note_on_c, 0, 60, 79
1, 785808, Control_c, 0, 64, 50
1, 785812, Note_on_c, 0, 65, 57
1, 785823, Control_c, 0, 64, 34
1, 785837, Control_c, 0, 64, 0
1, 785846, Note_off_c, 0, 65, 62
1, 785897, Control_c, 0, 64, 39
1, 785911, Control_c, 0, 64, 50
1, 785915, Note_on_c, 0, 75, 63
1, 785926, Control_c, 0, 64, 58
1, 785941, Control_c, 0, 64, 61
1, 785942, Note_on_c, 0, 69, 49
1, 785956, Control_c, 0, 64, 61
1, 785971, Control_c, 0, 64, 62
1, 785985, Control_c, 0, 64, 62
1, 785990, Note_off_c, 0, 75, 57
1, 786000, Control_c, 0, 64, 63
1, 786013, Note_off_c, 0, 69, 60
1, 786029, Control_c, 0, 64, 63
1, 786035, Note_on_c, 0, 72, 51
1, 786037, Note_on_c, 0, 77, 66
1, 786044, Control_c, 0, 64, 64
1, 786057, Note_off_c, 0, 72, 59
1, 786063, Note_off_c, 0, 77, 69
1, 786118, Control_c, 0, 64, 64
1, 786141, Control_c, 0, 64, 65
1, 786164, Note_off_c, 0, 60, 56
1, 786167, Note_on_c, 0, 81, 68
1, 786171, Control_c, 0, 64, 65
1, 786185, Control_c, 0, 64, 66
1, 786215, Control_c, 0, 64, 66
1, 786275, Control_c, 0, 64, 65
1, 786290, Control_c, 0, 64, 61
1, 786305, Control_c, 0, 64, 51
1, 786311, Note_off_c, 0, 81, 58
1, 786319, Control_c, 0, 64, 38
1, 786326, Note_on_c, 0, 59, 66
1, 786333, Control_c, 0, 64, 28
1, 786334, Note_on_c, 0, 84, 58
1, 786363, Control_c, 0, 64, 38
1, 786378, Control_c, 0, 64, 49
1, 786393, Control_c, 0, 64, 57
1, 786407, Control_c, 0, 64, 61
1, 786422, Control_c, 0, 64, 62
1, 786437, Control_c, 0, 64, 62
1, 786448, Note_off_c, 0, 47, 55
1, 786452, Control_c, 0, 64, 63
1, 786457, Note_off_c, 0, 84, 55
1, 786482, Control_c, 0, 64, 63
1, 786487, Note_on_c, 0, 87, 54
1, 786526, Control_c, 0, 64, 64
1, 786533, Note_off_c, 0, 87, 59
1, 786652, Note_on_c, 0, 48, 59
1, 786662, Note_on_c, 0, 55, 56
1, 786675, Control_c, 0, 64, 62
1, 786690, Control_c, 0, 64, 56
1, 786695, Note_off_c, 0, 59, 48
1, 786705, Control_c, 0, 64, 45
1, 786720, Control_c, 0, 64, 0
1, 786748, Note_on_c, 0, 88, 68
1, 786765, Note_on_c, 0, 76, 45
1, 786773, Note_off_c, 0, 88, 67
1, 786789, Note_off_c, 0, 76, 57
1, 786869, Note_on_c, 0, 84, 51
1, 786899, Note_off_c, 0, 84, 58
1, 786964, Note_on_c, 0, 79, 62
1, 786989, Note_off_c, 0, 79, 69
1, 787055, Note_off_c, 0, 48, 62
1, 787086, Note_on_c, 0, 83, 51
1, 787095, Note_on_c, 0, 71, 40
1, 787109, Note_off_c, 0, 83, 57
1, 787126, Note_off_c, 0, 71, 53
1, 787155, Note_off_c, 0, 55, 59
1, 787180, Note_on_c, 0, 47, 58
1, 787189, Note_on_c, 0, 78, 58
1, 787232, Note_off_c, 0, 78, 55
1, 787268, Note_off_c, 0, 47, 60
1, 787280, Note_on_c, 0, 48, 67
1, 787308, Note_on_c, 0, 75, 37
1, 787351, Note_off_c, 0, 75, 48
1, 787378, Note_off_c, 0, 48, 62
1, 787393, Note_on_c, 0, 50, 61
1, 787401, Note_on_c, 0, 72, 23
1, 787438, Note_off_c, 0, 72, 30
1, 787497, Note_off_c, 0, 50, 66
1, 787512, Note_on_c, 0, 52, 64
1, 787557, Control_c, 0, 64, 41
1, 787572, Control_c, 0, 64, 53
1, 787587, Control_c, 0, 64, 59
1, 787601, Control_c, 0, 64, 60
1, 787614, Note_on_c, 0, 79, 53
1, 787616, Control_c, 0, 64, 61
1, 787638, Control_c, 0, 64, 62
1, 787653, Control_c, 0, 64, 63
1, 787661, Note_off_c, 0, 79, 64
1, 787668, Control_c, 0, 64, 64
1, 787683, Control_c, 0, 64, 64
1, 787712, Control_c, 0, 64, 65
1, 787737, Note_on_c, 0, 83, 57
1, 787851, Note_on_c, 0, 87, 48
1, 787899, Note_off_c, 0, 83, 29
1, 787921, Control_c, 0, 64, 64
1, 787926, Note_off_c, 0, 87, 55
1, 787936, Control_c, 0, 64, 59
1, 787944, Note_on_c, 0, 90, 51
1, 787951, Control_c, 0, 64, 46
1, 787957, Note_on_c, 0, 55, 69
1, 787966, Control_c, 0, 64, 0
1, 788011, Note_off_c, 0, 52, 60
1, 788026, Note_off_c, 0, 90, 54
1, 788066, Note_on_c, 0, 91, 48
1, 788070, Control_c, 0, 64, 39
1, 788085, Control_c, 0, 64, 52
1, 788100, Control_c, 0, 64, 60
1, 788114, Control_c, 0, 64, 61
1, 788129, Control_c, 0, 64, 62
1, 788136, Note_off_c, 0, 91, 56
1, 788144, Control_c, 0, 64, 62
1, 788159, Control_c, 0, 64, 63
1, 788166, Note_on_c, 0, 88, 58
1, 788174, Control_c, 0, 64, 64
1, 788188, Control_c, 0, 64, 65
1, 788203, Control_c, 0, 64, 66
1, 788204, Note_off_c, 0, 88, 64
1, 788218, Control_c, 0, 64, 68
1, 788232, Control_c, 0, 64, 69
1, 788247, Control_c, 0, 64, 70
1, 788262, Control_c, 0, 64, 71
1, 788267, Note_on_c, 0, 83, 64
1, 788277, Control_c, 0, 64, 71
1, 788332, Note_off_c, 0, 83, 58
1, 788336, Control_c, 0, 64, 68
1, 788351, Control_c, 0, 64, 61
1, 788364, Note_on_c, 0, 59, 79
1, 788366, Control_c, 0, 64, 53
1, 788372, Note_off_c, 0, 55, 64
1, 788386, Note_on_c, 0, 87, 64
1, 788388, Control_c, 0, 64, 52
1, 788395, Note_on_c, 0, 51, 56
1, 788403, Control_c, 0, 64, 54
1, 788418, Control_c, 0, 64, 59
1, 788432, Control_c, 0, 64, 63
1, 788447, Control_c, 0, 64, 65
1, 788462, Control_c, 0, 64, 67
1, 788477, Control_c, 0, 64, 68
1, 788479, Note_off_c, 0, 87, 61
1, 788484, Note_off_c, 0, 51, 58
1, 788488, Note_on_c, 0, 82, 66
1, 788492, Control_c, 0, 64, 70
1, 788506, Control_c, 0, 64, 71
1, 788506, Control_c, 0, 67, 111
1, 788521, Control_c, 0, 64, 72
1, 788521, Control_c, 0, 67, 96
1, 788536, Control_c, 0, 64, 72
1, 788536, Control_c, 0, 67, 83
1, 788550, Note_off_c, 0, 82, 61
1, 788551, Control_c, 0, 64, 73
1, 788551, Control_c, 0, 67, 74
1, 788566, Control_c, 0, 67, 70
1, 788580, Control_c, 0, 64, 73
1, 788580, Control_c, 0, 67, 69
1, 788591, Note_on_c, 0, 79, 68
1, 788595, Control_c, 0, 64, 74
1, 788610, Control_c, 0, 64, 75
1, 788625, Control_c, 0, 64, 76
1, 788629, Note_off_c, 0, 79, 58
1, 788639, Control_c, 0, 64, 76
1, 788655, Control_c, 0, 64, 77
1, 788687, Note_on_c, 0, 76, 72
1, 788700, Control_c, 0, 64, 75
1, 788715, Control_c, 0, 64, 67
1, 788729, Control_c, 0, 64, 58
1, 788744, Control_c, 0, 64, 52
1, 788759, Note_off_c, 0, 76, 60
1, 788759, Control_c, 0, 64, 53
1, 788774, Control_c, 0, 64, 57
1, 788774, Control_c, 0, 67, 68
1, 788783, Note_on_c, 0, 63, 86
1, 788789, Control_c, 0, 64, 62
1, 788789, Control_c, 0, 67, 68
1, 788800, Note_on_c, 0, 75, 70
1, 788803, Control_c, 0, 64, 66
1, 788803, Control_c, 0, 67, 66
1, 788806, Note_off_c, 0, 59, 57
1, 788809, Note_on_c, 0, 54, 63
1, 788818, Control_c, 0, 64, 71
1, 788818, Control_c, 0, 67, 66
1, 788822, Note_off_c, 0, 75, 72
1, 788833, Control_c, 0, 64, 74
1, 788833, Control_c, 0, 67, 65
1, 788848, Control_c, 0, 64, 76
1, 788848, Control_c, 0, 67, 64
1, 788863, Control_c, 0, 64, 79
1, 788863, Control_c, 0, 67, 60
1, 788878, Control_c, 0, 64, 81
1, 788878, Control_c, 0, 67, 47
1, 788887, Note_off_c, 0, 54, 62
1, 788893, Control_c, 0, 64, 82
1, 788893, Control_c, 0, 67, 0
1, 788901, Note_off_c, 0, 63, 66
1, 788902, Note_on_c, 0, 86, 69
1, 788908, Control_c, 0, 64, 83
1, 788923, Control_c, 0, 64, 83
1, 788931, Note_off_c, 0, 86, 65
1, 788937, Control_c, 0, 64, 84
1, 789005, Note_on_c, 0, 89, 76
1, 789033, Note_on_c, 0, 50, 62
1, 789055, Control_c, 0, 64, 84
1, 789106, Note_off_c, 0, 89, 57
1, 789113, Note_on_c, 0, 93, 81
1, 789119, Note_on_c, 0, 58, 76
1, 789134, Note_off_c, 0, 50, 58
1, 789152, Control_c, 0, 64, 83
1, 789167, Control_c, 0, 64, 76
1, 789181, Control_c, 0, 64, 66
1, 789196, Control_c, 0, 64, 54
1, 789211, Control_c, 0, 64, 50
1, 789226, Control_c, 0, 64, 52
1, 789241, Note_off_c, 0, 93, 63
1, 789241, Control_c, 0, 64, 56
1, 789249, Note_on_c, 0, 66, 84
1, 789255, Control_c, 0, 64, 61
1, 789260, Note_on_c, 0, 96, 75
1, 789270, Control_c, 0, 64, 65
1, 789285, Control_c, 0, 64, 68
1, 789300, Control_c, 0, 64, 71
1, 789315, Control_c, 0, 64, 74
1, 789329, Control_c, 0, 64, 76
1, 789344, Control_c, 0, 64, 78
1, 789358, Note_off_c, 0, 96, 61
1, 789359, Control_c, 0, 64, 80
1, 789369, Note_on_c, 0, 97, 70
1, 789373, Control_c, 0, 64, 81
1, 789388, Control_c, 0, 64, 83
1, 789403, Control_c, 0, 64, 84
1, 789418, Control_c, 0, 64, 84
1, 789418, Control_c, 0, 67, 37
1, 789433, Control_c, 0, 64, 85
1, 789448, Control_c, 0, 64, 86
1, 789448, Control_c, 0, 67, 38
1, 789462, Note_off_c, 0, 97, 47
1, 789464, Control_c, 0, 64, 86
1, 789464, Control_c, 0, 67, 39
1, 789478, Control_c, 0, 64, 87
1, 789478, Control_c, 0, 67, 40
1, 789479, Note_on_c, 0, 94, 65
1, 789490, Note_off_c, 0, 58, 62
1, 789493, Control_c, 0, 64, 88
1, 789493, Control_c, 0, 67, 41
1, 789508, Control_c, 0, 64, 88
1, 789508, Control_c, 0, 67, 42
1, 789520, Note_off_c, 0, 94, 62
1, 789523, Control_c, 0, 64, 89
1, 789523, Control_c, 0, 67, 43
1, 789538, Control_c, 0, 64, 90
1, 789538, Control_c, 0, 67, 43
1, 789575, Note_on_c, 0, 89, 68
1, 789582, Control_c, 0, 64, 89
1, 789582, Control_c, 0, 67, 44
1, 789597, Control_c, 0, 64, 84
1, 789612, Control_c, 0, 64, 75
1, 789626, Control_c, 0, 64, 65
1, 789626, Control_c, 0, 67, 45
1, 789641, Note_off_c, 0, 89, 51
1, 789641, Control_c, 0, 64, 59
1, 789656, Control_c, 0, 64, 60
1, 789668, Note_on_c, 0, 53, 49
1, 789671, Note_on_c, 0, 61, 58
1, 789671, Control_c, 0, 64, 62
1, 789686, Control_c, 0, 64, 67
1, 789693, Note_on_c, 0, 93, 58
1, 789701, Control_c, 0, 64, 72
1, 789701, Note_on_c, 0, 91, 68
1, 789716, Control_c, 0, 64, 77
1, 789731, Control_c, 0, 64, 79
1, 789734, Note_off_c, 0, 91, 63
1, 789736, Note_off_c, 0, 93, 64
1, 789745, Control_c, 0, 64, 80
1, 789758, Note_off_c, 0, 53, 62
1, 789760, Control_c, 0, 64, 81
1, 789775, Note_off_c, 0, 61, 63
1, 789775, Control_c, 0, 64, 82
1, 789785, Note_on_c, 0, 88, 77
1, 789790, Control_c, 0, 64, 82
1, 789804, Control_c, 0, 64, 83
1, 789833, Note_off_c, 0, 66, 62
1, 789843, Note_off_c, 0, 88, 61
1, 789890, Note_on_c, 0, 85, 68
1, 789942, Note_on_c, 0, 49, 58
1, 789975, Control_c, 0, 64, 83
1, 789987, Note_off_c, 0, 85, 56
1, 789990, Control_c, 0, 64, 84
1, 789993, Note_on_c, 0, 82, 73
1, 790009, Note_off_c, 0, 49, 63
1, 790016, Note_on_c, 0, 57, 63
1, 790019, Control_c, 0, 64, 84
1, 790034, Control_c, 0, 64, 85
1, 790036, Note_off_c, 0, 57, 64
1, 790064, Control_c, 0, 64, 84
1, 790078, Control_c, 0, 64, 80
1, 790088, Note_off_c, 0, 82, 61
1, 790093, Control_c, 0, 64, 72
1, 790108, Control_c, 0, 64, 62
1, 790115, Note_on_c, 0, 67, 76
1, 790117, Note_on_c, 0, 81, 72
1, 790123, Control_c, 0, 64, 54
1, 790123, Control_c, 0, 67, 44
1, 790127, Note_on_c, 0, 69, 59
1, 790138, Control_c, 0, 64, 55
1, 790150, Note_off_c, 0, 69, 38
1, 790152, Control_c, 0, 64, 58
1, 790167, Control_c, 0, 64, 62
1, 790167, Control_c, 0, 67, 43
1, 790182, Control_c, 0, 64, 66
1, 790196, Control_c, 0, 64, 70
1, 790211, Control_c, 0, 64, 74
1, 790225, Note_off_c, 0, 81, 59
1, 790226, Note_on_c, 0, 85, 73
1, 790226, Control_c, 0, 64, 76
1, 790241, Control_c, 0, 64, 77
1, 790257, Control_c, 0, 64, 79
1, 790272, Control_c, 0, 64, 80
1, 790287, Control_c, 0, 64, 81
1, 790301, Control_c, 0, 64, 81
1, 790316, Control_c, 0, 64, 82
1, 790331, Control_c, 0, 64, 83
1, 790337, Note_off_c, 0, 85, 61
1, 790339, Note_on_c, 0, 87, 76
1, 790346, Control_c, 0, 64, 84
1, 790361, Control_c, 0, 64, 85
1, 790367, Note_off_c, 0, 67, 51
1, 790375, Control_c, 0, 64, 86
1, 790390, Control_c, 0, 64, 86
1, 790405, Control_c, 0, 64, 87
1, 790416, Note_off_c, 0, 87, 61
1, 790420, Control_c, 0, 64, 88
1, 790429, Note_on_c, 0, 88, 76
1, 790434, Control_c, 0, 64, 89
1, 790449, Control_c, 0, 64, 89
1, 790494, Control_c, 0, 64, 88
1, 790509, Control_c, 0, 64, 82
1, 790523, Control_c, 0, 64, 71
1, 790534, Note_off_c, 0, 88, 51
1, 790538, Control_c, 0, 64, 62
1, 790539, Note_on_c, 0, 64, 73
1, 790550, Note_on_c, 0, 90, 67
1, 790553, Control_c, 0, 64, 59
1, 790558, Note_on_c, 0, 52, 47
1, 790568, Control_c, 0, 64, 60
1, 790580, Note_on_c, 0, 60, 22
1, 790583, Control_c, 0, 64, 63
1, 790598, Control_c, 0, 64, 67
1, 790613, Control_c, 0, 64, 71
1, 790634, Control_c, 0, 64, 74
1, 790634, Control_c, 0, 67, 44
1, 790647, Note_off_c, 0, 90, 60
1, 790649, Note_off_c, 0, 60, 39
1, 790649, Control_c, 0, 64, 75
1, 790664, Control_c, 0, 64, 76
1, 790664, Control_c, 0, 67, 45
1, 790679, Control_c, 0, 64, 77
1, 790679, Control_c, 0, 67, 45
1, 790680, Note_on_c, 0, 91, 70
1, 790694, Control_c, 0, 64, 77
1, 790694, Control_c, 0, 67, 47
1, 790708, Control_c, 0, 67, 49
1, 790723, Control_c, 0, 64, 78
1, 790723, Control_c, 0, 67, 51
1, 790738, Control_c, 0, 67, 53
1, 790753, Control_c, 0, 67, 56
1, 790768, Control_c, 0, 67, 59
1, 790771, Note_off_c, 0, 91, 63
1, 790783, Control_c, 0, 67, 62
1, 790786, Note_on_c, 0, 88, 70
1, 790798, Control_c, 0, 67, 70
1, 790813, Control_c, 0, 67, 84
1, 790827, Control_c, 0, 64, 78
1, 790827, Control_c, 0, 67, 98
1, 790837, Note_off_c, 0, 52, 37
1, 790842, Control_c, 0, 67, 105
1, 790857, Control_c, 0, 67, 108
1, 790867, Note_off_c, 0, 88, 58
1, 790872, Control_c, 0, 64, 79
1, 790883, Note_on_c, 0, 83, 77
1, 790916, Control_c, 0, 67, 110
1, 790938, Note_off_c, 0, 83, 64
1, 790961, Control_c, 0, 64, 74
1, 790975, Control_c, 0, 64, 65
1, 790975, Control_c, 0, 67, 113
1, 790985, Note_on_c, 0, 79, 66
1, 790990, Control_c, 0, 64, 53
1, 790994, Note_on_c, 0, 59, 65
1, 791005, Note_on_c, 0, 55, 49
1, 791005, Control_c, 0, 64, 48
1, 791005, Control_c, 0, 67, 125
1, 791020, Control_c, 0, 67, 127
1, 791034, Control_c, 0, 64, 52
1, 791050, Control_c, 0, 64, 58
1, 791063, Note_off_c, 0, 79, 63
1, 791065, Control_c, 0, 64, 64
1, 791080, Control_c, 0, 64, 68
1, 791084, Note_off_c, 0, 64, 56
1, 791095, Control_c, 0, 64, 72
1, 791097, Note_off_c, 0, 55, 56
1, 791101, Note_on_c, 0, 82, 72
1, 791110, Control_c, 0, 64, 74
1, 791124, Control_c, 0, 64, 75
1, 791139, Control_c, 0, 64, 75
1, 791154, Control_c, 0, 64, 76
1, 791161, Note_off_c, 0, 82, 61
1, 791169, Control_c, 0, 64, 77
1, 791184, Control_c, 0, 64, 78
1, 791195, Note_off_c, 0, 59, 64
1, 791198, Control_c, 0, 64, 78
1, 791209, Note_on_c, 0, 83, 70
1, 791213, Control_c, 0, 64, 79
1, 791228, Control_c, 0, 64, 79
1, 791257, Control_c, 0, 64, 80
1, 791272, Control_c, 0, 64, 81
1, 791287, Control_c, 0, 64, 82
1, 791301, Note_off_c, 0, 83, 44
1, 791302, Control_c, 0, 64, 82
1, 791305, Note_on_c, 0, 85, 70
1, 791319, Note_on_c, 0, 48, 57
1, 791361, Control_c, 0, 64, 80
1, 791384, Control_c, 0, 64, 70
1, 791385, Note_on_c, 0, 56, 48
1, 791394, Note_off_c, 0, 85, 65
1, 791399, Control_c, 0, 64, 59
1, 791413, Control_c, 0, 64, 47
1, 791428, Control_c, 0, 64, 46
1, 791432, Note_on_c, 0, 63, 60
1, 791439, Note_on_c, 0, 86, 58
1, 791443, Control_c, 0, 64, 48
1, 791457, Control_c, 0, 64, 54
1, 791472, Control_c, 0, 64, 61
1, 791487, Control_c, 0, 64, 65
1, 791502, Control_c, 0, 64, 67
1, 791517, Note_off_c, 0, 86, 60
1, 791517, Control_c, 0, 64, 69
1, 791531, Control_c, 0, 64, 70
1, 791537, Note_on_c, 0, 87, 64
1, 791546, Control_c, 0, 64, 71
1, 791561, Control_c, 0, 64, 71
1, 791576, Control_c, 0, 64, 72
1, 791591, Control_c, 0, 64, 72
1, 791600, Note_off_c, 0, 63, 57
1, 791605, Note_off_c, 0, 48, 37
1, 791627, Note_off_c, 0, 87, 59
1, 791642, Note_on_c, 0, 84, 63
1, 791650, Control_c, 0, 64, 73
1, 791695, Control_c, 0, 64, 73
1, 791713, Note_off_c, 0, 84, 59
1, 791724, Control_c, 0, 64, 74
1, 791739, Control_c, 0, 64, 74
1, 791741, Note_on_c, 0, 80, 70
1, 791754, Control_c, 0, 64, 75
1, 791793, Note_off_c, 0, 80, 61
1, 791798, Control_c, 0, 64, 74
1, 791813, Control_c, 0, 64, 69
1, 791828, Control_c, 0, 64, 60
1, 791843, Control_c, 0, 64, 50
1, 791849, Note_off_c, 0, 56, 59
1, 791858, Note_on_c, 0, 78, 59
1, 791859, Control_c, 0, 64, 49
1, 791859, Note_on_c, 0, 51, 49
1, 791873, Control_c, 0, 64, 50
1, 791888, Control_c, 0, 64, 55
1, 791903, Control_c, 0, 64, 59
1, 791918, Control_c, 0, 64, 63
1, 791926, Note_off_c, 0, 78, 55
1, 791933, Control_c, 0, 64, 65
1, 791947, Control_c, 0, 64, 67
1, 791962, Control_c, 0, 64, 68
1, 791968, Note_on_c, 0, 79, 51
1, 791977, Control_c, 0, 64, 69
1, 791991, Control_c, 0, 64, 70
1, 792006, Control_c, 0, 64, 70
1, 792021, Control_c, 0, 64, 71
1, 792036, Control_c, 0, 64, 71
1, 792041, Note_off_c, 0, 79, 60
1, 792051, Control_c, 0, 64, 72
1, 792053, Note_off_c, 0, 51, 57
1, 792056, Note_on_c, 0, 75, 73
1, 792065, Control_c, 0, 64, 73
1, 792080, Control_c, 0, 64, 74
1, 792095, Control_c, 0, 64, 74
1, 792110, Control_c, 0, 64, 75
1, 792111, Note_off_c, 0, 75, 64
1, 792133, Control_c, 0, 64, 76
1, 792147, Control_c, 0, 64, 77
1, 792162, Control_c, 0, 64, 77
1, 792167, Note_on_c, 0, 70, 76
1, 792192, Control_c, 0, 64, 77
1, 792206, Control_c, 0, 64, 73
1, 792221, Control_c, 0, 64, 65
1, 792222, Note_off_c, 0, 70, 61
1, 792236, Control_c, 0, 64, 55
1, 792251, Control_c, 0, 64, 49
1, 792266, Control_c, 0, 64, 50
1, 792273, Note_on_c, 0, 55, 54
1, 792275, Note_on_c, 0, 71, 73
1, 792280, Control_c, 0, 64, 53
1, 792295, Control_c, 0, 64, 59
1, 792297, Note_off_c, 0, 55, 58
1, 792299, Note_on_c, 0, 67, 65
1, 792310, Control_c, 0, 64, 62
1, 792325, Control_c, 0, 64, 63
1, 792360, Note_off_c, 0, 67, 57
1, 792384, Note_on_c, 0, 59, 70
1, 792445, Note_off_c, 0, 59, 63
1, 792487, Note_on_c, 0, 62, 70
1, 792488, Control_c, 0, 64, 63
1, 792503, Control_c, 0, 64, 62
1, 792524, Note_off_c, 0, 62, 64
1, 792576, Note_on_c, 0, 66, 65
1, 792592, Control_c, 0, 64, 62
1, 792606, Control_c, 0, 64, 61
1, 792649, Note_off_c, 0, 66, 60
1, 792661, Note_off_c, 0, 71, 59
1, 792671, Note_on_c, 0, 74, 78
1, 792692, Note_on_c, 0, 70, 58
1, 792750, Note_off_c, 0, 70, 64
1, 792784, Note_on_c, 0, 71, 65
1, 792835, Note_off_c, 0, 71, 58
1, 792886, Note_on_c, 0, 66, 64
1, 792926, Control_c, 0, 64, 62
1, 792956, Control_c, 0, 64, 62
1, 792965, Note_off_c, 0, 66, 62
1, 792987, Note_on_c, 0, 62, 57
1, 793000, Control_c, 0, 64, 63
1, 793029, Control_c, 0, 64, 62
1, 793040, Note_off_c, 0, 62, 59
1, 793044, Control_c, 0, 64, 60
1, 793059, Control_c, 0, 64, 54
1, 793074, Control_c, 0, 64, 48
1, 793088, Note_on_c, 0, 78, 83
1, 793089, Control_c, 0, 64, 43
1, 793103, Control_c, 0, 64, 42
1, 793109, Note_on_c, 0, 65, 56
1, 793115, Note_on_c, 0, 70, 55
1, 793118, Control_c, 0, 64, 45
1, 793124, Note_off_c, 0, 74, 58
1, 793133, Control_c, 0, 64, 52
1, 793148, Control_c, 0, 64, 59
1, 793153, Note_off_c, 0, 65, 54
1, 793163, Control_c, 0, 64, 63
1, 793177, Control_c, 0, 64, 66
1, 793192, Control_c, 0, 64, 69
1, 793201, Note_on_c, 0, 61, 58
1, 793207, Control_c, 0, 64, 71
1, 793218, Note_off_c, 0, 70, 63
1, 793221, Control_c, 0, 64, 72
1, 793236, Control_c, 0, 64, 73
1, 793238, Note_off_c, 0, 61, 64
1, 793260, Note_off_c, 0, 78, 61
1, 793266, Control_c, 0, 64, 74
1, 793296, Control_c, 0, 64, 74
1, 793302, Note_on_c, 0, 57, 57
1, 793340, Control_c, 0, 64, 75
1, 793378, Note_off_c, 0, 57, 62
1, 793402, Note_on_c, 0, 54, 56
1, 793481, Note_off_c, 0, 54, 57
1, 793504, Control_c, 0, 64, 72
1, 793516, Note_on_c, 0, 82, 80
1, 793519, Control_c, 0, 64, 65
1, 793525, Note_on_c, 0, 53, 44
1, 793534, Control_c, 0, 64, 56
1, 793538, Note_on_c, 0, 73, 48
1, 793549, Control_c, 0, 64, 48
1, 793564, Control_c, 0, 64, 46
1, 793593, Control_c, 0, 64, 49
1, 793608, Control_c, 0, 64, 54
1, 793610, Note_off_c, 0, 53, 60
1, 793630, Control_c, 0, 64, 58
1, 793645, Control_c, 0, 64, 61
1, 793646, Note_on_c, 0, 58, 56
1, 793659, Control_c, 0, 64, 63
1, 793674, Control_c, 0, 64, 65
1, 793689, Control_c, 0, 64, 65
1, 793719, Note_off_c, 0, 58, 59
1, 793719, Control_c, 0, 64, 66
1, 793734, Control_c, 0, 64, 66
1, 793759, Note_on_c, 0, 61, 52
1, 793764, Control_c, 0, 64, 67
1, 793793, Control_c, 0, 64, 67
1, 793798, Note_off_c, 0, 61, 65
1, 793823, Control_c, 0, 64, 68
1, 793838, Control_c, 0, 64, 68
1, 793845, Note_on_c, 0, 65, 51
1, 793882, Control_c, 0, 64, 68
1, 793892, Note_off_c, 0, 65, 57
1, 793897, Control_c, 0, 64, 66
1, 793912, Control_c, 0, 64, 60
1, 793926, Control_c, 0, 64, 52
1, 793941, Control_c, 0, 64, 50
1, 793951, Note_on_c, 0, 85, 79
1, 793959, Note_on_c, 0, 68, 47
1, 793969, Note_off_c, 0, 73, 58
1, 793970, Note_on_c, 0, 77, 56
1, 793970, Control_c, 0, 64, 52
1, 793976, Note_off_c, 0, 82, 51
1, 793985, Control_c, 0, 64, 57
1, 794000, Control_c, 0, 64, 61
1, 794015, Control_c, 0, 64, 63
1, 794023, Note_off_c, 0, 68, 58
1, 794030, Control_c, 0, 64, 65
1, 794044, Control_c, 0, 64, 66
1, 794059, Control_c, 0, 64, 66
1, 794063, Note_on_c, 0, 69, 61
1, 794089, Control_c, 0, 64, 67
1, 794112, Note_off_c, 0, 69, 54
1, 794163, Control_c, 0, 64, 67
1, 794169, Note_on_c, 0, 65, 58
1, 794208, Control_c, 0, 64, 68
1, 794217, Note_off_c, 0, 65, 57
1, 794238, Control_c, 0, 64, 68
1, 794266, Note_on_c, 0, 61, 54
1, 794282, Control_c, 0, 64, 66
1, 794297, Control_c, 0, 64, 61
1, 794312, Control_c, 0, 64, 53
1, 794327, Control_c, 0, 64, 48
1, 794330, Note_off_c, 0, 61, 62
1, 794357, Control_c, 0, 64, 50
1, 794379, Control_c, 0, 64, 55
1, 794384, Note_on_c, 0, 80, 76
1, 794392, Note_on_c, 0, 64, 61
1, 794394, Control_c, 0, 64, 60
1, 794397, Note_on_c, 0, 72, 58
1, 794408, Control_c, 0, 64, 63
1, 794410, Note_off_c, 0, 77, 54
1, 794423, Control_c, 0, 64, 65
1, 794434, Note_off_c, 0, 64, 62
1, 794438, Control_c, 0, 64, 67
1, 794453, Control_c, 0, 64, 68
1, 794468, Control_c, 0, 64, 69
1, 794482, Control_c, 0, 64, 70
1, 794487, Note_off_c, 0, 72, 61
1, 794493, Note_on_c, 0, 60, 47
1, 794497, Control_c, 0, 64, 71
1, 794497, Control_c, 0, 67, 123
1, 794512, Control_c, 0, 64, 71
1, 794512, Control_c, 0, 67, 106
1, 794527, Control_c, 0, 64, 72
1, 794527, Control_c, 0, 67, 89
1, 794536, Note_off_c, 0, 85, 61
1, 794541, Note_off_c, 0, 60, 63
1, 794542, Control_c, 0, 64, 72
1, 794542, Control_c, 0, 67, 70
1, 794556, Control_c, 0, 64, 73
1, 794556, Control_c, 0, 67, 54
1, 794571, Control_c, 0, 64, 73
1, 794571, Control_c, 0, 67, 0
1, 794579, Note_on_c, 0, 56, 70
1, 794586, Control_c, 0, 64, 74
1, 794600, Control_c, 0, 64, 74
1, 794615, Control_c, 0, 64, 75
1, 794630, Control_c, 0, 64, 75
1, 794646, Note_on_c, 0, 68, 70
1, 794660, Control_c, 0, 64, 76
1, 794670, Note_off_c, 0, 56, 61
1, 794671, Note_off_c, 0, 68, 66
1, 794674, Control_c, 0, 64, 76
1, 794683, Note_off_c, 0, 80, 59
1, 794689, Note_on_c, 0, 53, 63
1, 794689, Control_c, 0, 64, 77
1, 794700, Note_on_c, 0, 76, 69
1, 794704, Control_c, 0, 64, 77
1, 794719, Control_c, 0, 64, 78
1, 794748, Control_c, 0, 64, 78
1, 794778, Control_c, 0, 64, 78
1, 794792, Control_c, 0, 64, 76
1, 794797, Note_off_c, 0, 53, 52
1, 794807, Control_c, 0, 64, 70
1, 794810, Note_on_c, 0, 52, 59
1, 794822, Control_c, 0, 64, 60
1, 794824, Note_on_c, 0, 86, 94
1, 794837, Note_off_c, 0, 76, 65
1, 794837, Control_c, 0, 64, 48
1, 794852, Control_c, 0, 64, 45
1, 794867, Control_c, 0, 64, 45
1, 794882, Control_c, 0, 64, 50
1, 794896, Control_c, 0, 64, 56
1, 794911, Control_c, 0, 64, 61
1, 794926, Control_c, 0, 64, 64
1, 794933, Note_off_c, 0, 52, 59
1, 794941, Control_c, 0, 64, 66
1, 794944, Note_on_c, 0, 58, 59
1, 794956, Control_c, 0, 64, 68
1, 794971, Control_c, 0, 64, 69
1, 794986, Control_c, 0, 64, 70
1, 795000, Control_c, 0, 64, 71
1, 795014, Note_off_c, 0, 58, 62
1, 795015, Control_c, 0, 64, 71
1, 795030, Control_c, 0, 64, 72
1, 795050, Note_on_c, 0, 59, 64
1, 795060, Control_c, 0, 64, 72
1, 795105, Note_off_c, 0, 59, 46
1, 795105, Control_c, 0, 64, 73
1, 795142, Control_c, 0, 64, 73
1, 795154, Note_on_c, 0, 61, 63
1, 795157, Control_c, 0, 64, 74
1, 795194, Note_off_c, 0, 86, 59
1, 795216, Control_c, 0, 64, 73
1, 795230, Control_c, 0, 64, 68
1, 795231, Note_off_c, 0, 61, 58
1, 795245, Control_c, 0, 64, 59
1, 795251, Note_on_c, 0, 83, 85
1, 795260, Control_c, 0, 64, 52
1, 795268, Note_on_c, 0, 63, 53
1, 795290, Control_c, 0, 64, 53
1, 795294, Note_on_c, 0, 71, 37
1, 795305, Control_c, 0, 64, 57
1, 795306, Note_on_c, 0, 79, 7
1, 795310, Note_off_c, 0, 63, 62
1, 795320, Control_c, 0, 64, 61
1, 795335, Control_c, 0, 64, 64
1, 795341, Note_off_c, 0, 71, 45
1, 795350, Control_c, 0, 64, 66
1, 795364, Control_c, 0, 64, 67
1, 795370, Note_on_c, 0, 64, 62
1, 795379, Control_c, 0, 64, 68
1, 795394, Control_c, 0, 64, 69
1, 795409, Control_c, 0, 64, 69
1, 795426, Note_off_c, 0, 79, 28
1, 795438, Control_c, 0, 64, 70
1, 795445, Note_off_c, 0, 64, 62
1, 795453, Control_c, 0, 64, 70
1, 795472, Note_on_c, 0, 66, 62
1, 795483, Control_c, 0, 64, 71
1, 795512, Control_c, 0, 64, 71
1, 795541, Control_c, 0, 64, 72
1, 795552, Note_off_c, 0, 66, 59
1, 795571, Control_c, 0, 67, 39
1, 795573, Note_on_c, 0, 68, 54
1, 795586, Control_c, 0, 64, 71
1, 795586, Control_c, 0, 67, 48
1, 795601, Control_c, 0, 64, 69
1, 795601, Control_c, 0, 67, 56
1, 795615, Control_c, 0, 64, 64
1, 795615, Control_c, 0, 67, 64
1, 795630, Control_c, 0, 64, 56
1, 795630, Control_c, 0, 67, 76
1, 795645, Control_c, 0, 64, 51
1, 795645, Control_c, 0, 67, 90
1, 795657, Note_off_c, 0, 68, 58
1, 795660, Control_c, 0, 64, 51
1, 795660, Control_c, 0, 67, 104
1, 795675, Note_on_c, 0, 78, 76
1, 795675, Control_c, 0, 64, 53
1, 795675, Control_c, 0, 67, 119
1, 795689, Note_on_c, 0, 70, 54
1, 795689, Control_c, 0, 64, 57
1, 795689, Control_c, 0, 67, 127
1, 795692, Note_on_c, 0, 74, 62
1, 795704, Control_c, 0, 64, 61
1, 795710, Note_off_c, 0, 83, 62
1, 795719, Control_c, 0, 64, 62
1, 795734, Control_c, 0, 64, 63
1, 795741, Note_off_c, 0, 70, 62
1, 795749, Control_c, 0, 64, 64
1, 795791, Note_on_c, 0, 71, 58
1, 795858, Note_off_c, 0, 71, 60
1, 795895, Note_on_c, 0, 66, 67
1, 795906, Control_c, 0, 64, 63
1, 795916, Note_off_c, 0, 74, 60
1, 795961, Note_off_c, 0, 66, 62
1, 795992, Note_on_c, 0, 62, 58
1, 796009, Control_c, 0, 64, 62
1, 796024, Control_c, 0, 64, 61
1, 796039, Control_c, 0, 64, 59
1, 796053, Control_c, 0, 64, 57
1, 796068, Note_off_c, 0, 62, 62
1, 796068, Control_c, 0, 64, 55
1, 796083, Control_c, 0, 64, 54
1, 796095, Note_on_c, 0, 82, 81
1, 796107, Note_off_c, 0, 78, 59
1, 796110, Note_on_c, 0, 72, 53
1, 796113, Note_on_c, 0, 63, 58
1, 796113, Control_c, 0, 64, 55
1, 796142, Control_c, 0, 64, 56
1, 796157, Control_c, 0, 64, 57
1, 796172, Control_c, 0, 64, 59
1, 796187, Control_c, 0, 64, 60
1, 796202, Control_c, 0, 64, 61
1, 796203, Note_off_c, 0, 63, 63
1, 796232, Control_c, 0, 64, 61
1, 796233, Note_on_c, 0, 64, 62
1, 796261, Control_c, 0, 64, 62
1, 796300, Note_off_c, 0, 64, 64
1, 796306, Control_c, 0, 64, 62
1, 796329, Note_on_c, 0, 66, 67
1, 796409, Control_c, 0, 64, 62
1, 796423, Note_off_c, 0, 66, 53
1, 796432, Note_on_c, 0, 67, 56
1, 796438, Control_c, 0, 64, 61
1, 796453, Control_c, 0, 64, 60
1, 796468, Control_c, 0, 64, 59
1, 796483, Control_c, 0, 64, 59
1, 796494, Note_off_c, 0, 82, 62
1, 796498, Control_c, 0, 64, 58
1, 796501, Note_off_c, 0, 67, 59
1, 796508, Note_off_c, 0, 72, 60
1, 796515, Note_on_c, 0, 77, 63
1, 796527, Control_c, 0, 64, 58
1, 796533, Note_on_c, 0, 73, 51
1, 796545, Note_on_c, 0, 68, 53
1, 796628, Note_off_c, 0, 68, 59
1, 796667, Note_on_c, 0, 69, 60
1, 796719, Note_off_c, 0, 69, 53
1, 796758, Control_c, 0, 64, 57
1, 796773, Note_on_c, 0, 65, 47
1, 796816, Note_off_c, 0, 65, 60
1, 796862, Note_on_c, 0, 61, 56
1, 796920, Control_c, 0, 64, 57
1, 796935, Control_c, 0, 64, 55
1, 796948, Note_off_c, 0, 61, 60
1, 796950, Control_c, 0, 64, 53
1, 796962, Note_on_c, 0, 74, 66
1, 796965, Control_c, 0, 64, 51
1, 796975, Note_on_c, 0, 70, 40
1, 796978, Note_off_c, 0, 73, 58
1, 796980, Control_c, 0, 64, 49
1, 796982, Note_off_c, 0, 77, 61
1, 796983, Note_on_c, 0, 62, 56
1, 797039, Control_c, 0, 64, 50
1, 797040, Note_off_c, 0, 62, 51
1, 797054, Control_c, 0, 64, 52
1, 797068, Control_c, 0, 64, 55
1, 797078, Note_on_c, 0, 63, 59
1, 797083, Control_c, 0, 64, 58
1, 797098, Control_c, 0, 64, 61
1, 797113, Control_c, 0, 64, 62
1, 797128, Control_c, 0, 64, 63
1, 797142, Control_c, 0, 64, 64
1, 797156, Note_off_c, 0, 63, 60
1, 797157, Control_c, 0, 64, 65
1, 797172, Control_c, 0, 64, 65
1, 797186, Control_c, 0, 64, 66
1, 797199, Note_on_c, 0, 64, 51
1, 797201, Control_c, 0, 64, 66
1, 797227, Note_off_c, 0, 74, 57
1, 797260, Note_off_c, 0, 70, 62
1, 797273, Note_off_c, 0, 64, 63
1, 797326, Note_on_c, 0, 65, 51
1, 797416, Control_c, 0, 64, 66
1, 797430, Note_off_c, 0, 65, 59
1, 797431, Control_c, 0, 64, 64
1, 797447, Control_c, 0, 64, 62
1, 797462, Control_c, 0, 64, 58
1, 797464, Note_on_c, 0, 66, 61
1, 797467, Note_on_c, 0, 71, 56
1, 797477, Control_c, 0, 64, 54
1, 797491, Control_c, 0, 64, 51
1, 797506, Control_c, 0, 64, 50
1, 797521, Control_c, 0, 64, 48
1, 797536, Control_c, 0, 64, 47
1, 797546, Note_off_c, 0, 66, 52
1, 797552, Control_c, 0, 64, 44
1, 797566, Control_c, 0, 64, 42
1, 797581, Note_on_c, 0, 51, 65
1, 797581, Control_c, 0, 64, 40
1, 797596, Control_c, 0, 64, 39
1, 797598, Note_on_c, 0, 67, 55
1, 797610, Control_c, 0, 64, 38
1, 797625, Control_c, 0, 64, 37
1, 797627, Note_off_c, 0, 51, 58
1, 797645, Note_off_c, 0, 67, 56
1, 797708, Note_on_c, 0, 63, 44
1, 797710, Note_on_c, 0, 55, 57
1, 797745, Note_off_c, 0, 55, 64
1, 797807, Note_on_c, 0, 59, 69
1, 797833, Note_off_c, 0, 59, 66
1, 797836, Note_off_c, 0, 63, 62
1, 797925, Note_on_c, 0, 62, 80
1, 797925, Note_off_c, 0, 71, 58
1, 798046, Note_on_c, 0, 71, 49
1, 798099, Control_c, 0, 64, 38
1, 798118, Note_off_c, 0, 71, 48
1, 798122, Control_c, 0, 64, 39
1, 798122, Note_off_c, 0, 62, 59
1, 798138, Note_on_c, 0, 70, 63
1, 798181, Control_c, 0, 64, 34
1, 798193, Note_off_c, 0, 70, 56
1, 798196, Control_c, 0, 64, 0
1, 798240, Note_on_c, 0, 66, 89
1, 798244, Note_on_c, 0, 71, 65
1, 798286, Control_c, 0, 64, 35
1, 798301, Control_c, 0, 64, 48
1, 798312, Note_off_c, 0, 71, 55
1, 798315, Control_c, 0, 64, 59
1, 798330, Control_c, 0, 64, 62
1, 798343, Note_on_c, 0, 67, 66
1, 798345, Control_c, 0, 64, 63
1, 798360, Control_c, 0, 64, 63
1, 798372, Note_off_c, 0, 67, 64
1, 798374, Control_c, 0, 64, 64
1, 798387, Note_off_c, 0, 66, 61
1, 798434, Control_c, 0, 64, 63
1, 798448, Control_c, 0, 64, 59
1, 798453, Note_on_c, 0, 70, 67
1, 798456, Note_on_c, 0, 67, 74
1, 798463, Control_c, 0, 64, 50
1, 798478, Control_c, 0, 64, 36
1, 798488, Note_off_c, 0, 67, 64
1, 798493, Control_c, 0, 64, 0
1, 798549, Note_on_c, 0, 63, 66
1, 798596, Note_off_c, 0, 63, 54
1, 798660, Note_on_c, 0, 58, 54
1, 798682, Note_off_c, 0, 58, 58
1, 798754, Note_on_c, 0, 62, 75
1, 798794, Note_off_c, 0, 62, 64
1, 798840, Note_off_c, 0, 70, 48
1, 798865, Note_on_c, 0, 59, 69
1, 798867, Note_on_c, 0, 71, 56
1, 798900, Note_off_c, 0, 59, 65
1, 798923, Note_off_c, 0, 71, 51
1, 798973, Note_on_c, 0, 55, 71
1, 798978, Note_on_c, 0, 70, 57
1, 799001, Note_off_c, 0, 55, 66
1, 799032, Note_off_c, 0, 70, 56
1, 799075, Note_on_c, 0, 51, 78
1, 799077, Note_on_c, 0, 71, 65
1, 799132, Note_off_c, 0, 71, 59
1, 799138, Control_c, 0, 64, 39
1, 799153, Control_c, 0, 64, 49
1, 799168, Control_c, 0, 64, 55
1, 799171, Note_on_c, 0, 67, 74
1, 799183, Control_c, 0, 64, 58
1, 799197, Control_c, 0, 64, 60
1, 799198, Note_off_c, 0, 51, 61
1, 799212, Control_c, 0, 64, 60
1, 799237, Note_off_c, 0, 67, 57
1, 799272, Note_on_c, 0, 74, 77
1, 799276, Note_on_c, 0, 50, 75
1, 799281, Note_on_c, 0, 70, 67
1, 799286, Control_c, 0, 64, 59
1, 799301, Control_c, 0, 64, 58
1, 799316, Control_c, 0, 64, 54
1, 799331, Control_c, 0, 64, 50
1, 799336, Note_off_c, 0, 50, 63
1, 799337, Note_off_c, 0, 74, 58
1, 799345, Control_c, 0, 64, 48
1, 799350, Note_off_c, 0, 70, 60
1, 799360, Control_c, 0, 64, 47
1, 799375, Control_c, 0, 64, 47
1, 799377, Note_on_c, 0, 75, 73
1, 799381, Note_on_c, 0, 55, 74
1, 799389, Control_c, 0, 64, 46
1, 799404, Control_c, 0, 64, 44
1, 799419, Control_c, 0, 64, 40
1, 799434, Control_c, 0, 64, 33
1, 799435, Note_off_c, 0, 75, 64
1, 799445, Note_off_c, 0, 55, 64
1, 799449, Control_c, 0, 64, 0
1, 799469, Note_on_c, 0, 74, 76
1, 799473, Note_on_c, 0, 58, 75
1, 799499, Note_off_c, 0, 58, 67
1, 799508, Control_c, 0, 67, 97
1, 799523, Control_c, 0, 67, 64
1, 799538, Control_c, 0, 67, 0
1, 799541, Note_off_c, 0, 74, 62
1, 799576, Note_on_c, 0, 62, 91
1, 799582, Note_on_c, 0, 78, 66
1, 799597, Control_c, 0, 64, 37
1, 799603, Note_on_c, 0, 79, 59
1, 799619, Control_c, 0, 64, 41
1, 799634, Note_off_c, 0, 78, 0
1, 799634, Note_on_c, 0, 78, 28
1, 799634, Control_c, 0, 64, 46
1, 799648, Note_off_c, 0, 79, 47
1, 799649, Control_c, 0, 64, 52
1, 799663, Control_c, 0, 64, 57
1, 799669, Note_off_c, 0, 78, 49
1, 799678, Note_on_c, 0, 74, 73
1, 799678, Control_c, 0, 64, 59
1, 799693, Control_c, 0, 64, 61
1, 799695, Note_on_c, 0, 71, 58
1, 799708, Control_c, 0, 64, 62
1, 799722, Control_c, 0, 64, 63
1, 799737, Control_c, 0, 64, 64
1, 799752, Control_c, 0, 64, 65
1, 799767, Control_c, 0, 64, 65
1, 799779, Note_on_c, 0, 70, 80
1, 799794, Note_off_c, 0, 71, 62
1, 799798, Note_off_c, 0, 62, 61
1, 799812, Control_c, 0, 64, 64
1, 799827, Control_c, 0, 64, 56
1, 799827, Note_off_c, 0, 70, 63
1, 799842, Control_c, 0, 64, 0
1, 799889, Note_on_c, 0, 65, 93
1, 799889, Note_on_c, 0, 71, 72
1, 799916, Control_c, 0, 64, 36
1, 799931, Control_c, 0, 64, 49
1, 799946, Control_c, 0, 64, 60
1, 799961, Control_c, 0, 64, 63
1, 799971, Note_off_c, 0, 71, 63
1, 799976, Control_c, 0, 64, 64
1, 799984, Note_on_c, 0, 67, 80
1, 799991, Control_c, 0, 64, 65
1, 799993, Note_off_c, 0, 65, 63
1, 800006, Control_c, 0, 64, 66
1, 800012, Note_off_c, 0, 74, 54
1, 800020, Control_c, 0, 64, 67
1, 800065, Control_c, 0, 64, 66
1, 800065, Note_off_c, 0, 67, 60
1, 800078, Note_on_c, 0, 66, 91
1, 800080, Control_c, 0, 64, 60
1, 800083, Note_on_c, 0, 70, 80
1, 800083, Note_on_c, 0, 74, 77
1, 800094, Control_c, 0, 64, 42
1, 800109, Control_c, 0, 64, 0
1, 800131, Note_off_c, 0, 66, 63
1, 800178, Note_on_c, 0, 75, 85
1, 800184, Note_on_c, 0, 63, 83
1, 800194, Note_off_c, 0, 74, 61
1, 800265, Note_off_c, 0, 75, 65
1, 800272, Note_off_c, 0, 63, 59
1, 800274, Note_on_c, 0, 74, 85
1, 800278, Note_on_c, 0, 58, 88
1, 800327, Note_off_c, 0, 58, 63
1, 800348, Note_off_c, 0, 70, 54
1, 800384, Note_on_c, 0, 62, 99
1, 800388, Note_on_c, 0, 78, 91
1, 800390, Note_off_c, 0, 74, 36
1, 800434, Note_off_c, 0, 62, 66
1, 800480, Note_on_c, 0, 70, 74
1, 800488, Note_on_c, 0, 74, 78
1, 800489, Note_on_c, 0, 58, 87
1, 800489, Note_off_c, 0, 78, 60
1, 800543, Note_off_c, 0, 58, 65
1, 800572, Note_off_c, 0, 70, 62
1, 800587, Note_on_c, 0, 54, 85
1, 800592, Note_on_c, 0, 69, 84
1, 800636, Note_off_c, 0, 54, 63
1, 800642, Note_off_c, 0, 69, 63
1, 800667, Note_off_c, 0, 74, 55
1, 800688, Note_on_c, 0, 70, 92
1, 800689, Note_on_c, 0, 50, 98
1, 800760, Note_off_c, 0, 70, 64
1, 800769, Control_c, 0, 64, 48
1, 800784, Control_c, 0, 64, 60
1, 800794, Note_on_c, 0, 66, 96
1, 800799, Control_c, 0, 64, 62
1, 800814, Control_c, 0, 64, 63
1, 800819, Note_off_c, 0, 50, 63
1, 800828, Control_c, 0, 64, 64
1, 800838, Note_off_c, 0, 66, 67
1, 800843, Control_c, 0, 64, 64
1, 800873, Control_c, 0, 64, 62
1, 800888, Control_c, 0, 64, 53
1, 800896, Note_on_c, 0, 69, 100
1, 800903, Control_c, 0, 64, 29
1, 800917, Control_c, 0, 64, 0
1, 800948, Note_off_c, 0, 69, 65
1, 800999, Note_on_c, 0, 73, 95
1, 801046, Note_off_c, 0, 73, 66
1, 801097, Note_on_c, 0, 77, 97
1, 801153, Note_off_c, 0, 77, 67
1, 801216, Note_on_c, 0, 80, 103
1, 801308, Note_on_c, 0, 53, 90
1, 801367, Note_off_c, 0, 53, 61
1, 801413, Note_on_c, 0, 57, 89
1, 801460, Note_off_c, 0, 80, 52
1, 801468, Note_off_c, 0, 57, 66
1, 801505, Note_on_c, 0, 83, 98
1, 801507, Note_on_c, 0, 60, 95
1, 801554, Note_off_c, 0, 60, 69
1, 801613, Note_on_c, 0, 64, 106
1, 801639, Note_off_c, 0, 83, 63
1, 801705, Note_on_c, 0, 84, 97
1, 801754, Note_off_c, 0, 84, 66
1, 801809, Note_on_c, 0, 81, 99
1, 801828, Note_off_c, 0, 64, 61
1, 801866, Note_off_c, 0, 81, 65
1, 801917, Note_on_c, 0, 68, 101
1, 801918, Note_on_c, 0, 76, 93
1, 801955, Control_c, 0, 64, 32
1, 801970, Control_c, 0, 64, 42
1, 801978, Note_off_c, 0, 76, 63
1, 801984, Control_c, 0, 64, 49
1, 801999, Control_c, 0, 64, 54
1, 802014, Control_c, 0, 64, 56
1, 802021, Note_on_c, 0, 80, 87
1, 802029, Control_c, 0, 64, 58
1, 802044, Control_c, 0, 64, 58
1, 802080, Note_off_c, 0, 80, 61
1, 802085, Note_off_c, 0, 68, 60
1, 802088, Control_c, 0, 64, 56
1, 802103, Control_c, 0, 64, 47
1, 802117, Control_c, 0, 64, 0
1, 802122, Note_on_c, 0, 69, 84
1, 802131, Note_on_c, 0, 75, 92
1, 802169, Note_off_c, 0, 69, 62
1, 802186, Note_off_c, 0, 75, 62
1, 802220, Note_on_c, 0, 65, 79
1, 802228, Note_on_c, 0, 72, 93
1, 802274, Note_off_c, 0, 65, 63
1, 802284, Note_off_c, 0, 72, 65
1, 802324, Note_on_c, 0, 69, 88
1, 802326, Note_on_c, 0, 61, 82
1, 802374, Note_off_c, 0, 61, 60
1, 802429, Note_on_c, 0, 64, 83
1, 802471, Note_off_c, 0, 64, 65
1, 802513, Note_off_c, 0, 69, 58
1, 802527, Note_on_c, 0, 60, 78
1, 802539, Note_on_c, 0, 73, 74
1, 802569, Note_off_c, 0, 60, 63
1, 802638, Note_off_c, 0, 73, 53
1, 802653, Note_on_c, 0, 57, 67
1, 802659, Note_on_c, 0, 72, 74
1, 802674, Control_c, 0, 67, 65
1, 802688, Control_c, 0, 67, 103
1, 802703, Control_c, 0, 67, 127
1, 802712, Note_off_c, 0, 57, 62
1, 802737, Note_off_c, 0, 72, 57
1, 802758, Note_on_c, 0, 53, 55
1, 802769, Note_on_c, 0, 73, 71
1, 802807, Control_c, 0, 64, 39
1, 802822, Control_c, 0, 64, 52
1, 802837, Control_c, 0, 64, 58
1, 802841, Note_off_c, 0, 73, 61
1, 802852, Control_c, 0, 64, 60
1, 802867, Control_c, 0, 64, 61
1, 802881, Control_c, 0, 64, 61
1, 802884, Note_on_c, 0, 69, 73
1, 802896, Control_c, 0, 64, 62
1, 802909, Note_off_c, 0, 69, 67
1, 802911, Control_c, 0, 64, 63
1, 802926, Control_c, 0, 64, 64
1, 802940, Control_c, 0, 64, 65
1, 802955, Control_c, 0, 64, 65
1, 802970, Control_c, 0, 64, 66
1, 802981, Note_on_c, 0, 65, 77
1, 802983, Note_off_c, 0, 53, 60
1, 802987, Note_on_c, 0, 81, 80
1, 802996, Note_on_c, 0, 72, 71
1, 803014, Control_c, 0, 64, 63
1, 803030, Control_c, 0, 64, 52
1, 803045, Control_c, 0, 64, 0
1, 803046, Note_off_c, 0, 65, 60
1, 803067, Note_off_c, 0, 81, 61
1, 803090, Note_on_c, 0, 64, 66
1, 803096, Note_on_c, 0, 83, 84
1, 803097, Note_on_c, 0, 53, 56
1, 803148, Control_c, 0, 64, 33
1, 803159, Note_off_c, 0, 64, 64
1, 803163, Control_c, 0, 64, 47
1, 803171, Note_off_c, 0, 53, 62
1, 803178, Control_c, 0, 64, 57
1, 803184, Note_on_c, 0, 65, 78
1, 803191, Note_on_c, 0, 81, 79
1, 803193, Control_c, 0, 64, 62
1, 803198, Note_off_c, 0, 83, 64
1, 803208, Control_c, 0, 64, 64
1, 803222, Control_c, 0, 64, 65
1, 803238, Note_off_c, 0, 65, 62
1, 803265, Note_off_c, 0, 81, 61
1, 803267, Control_c, 0, 64, 64
1, 803282, Control_c, 0, 64, 62
1, 803293, Note_on_c, 0, 52, 72
1, 803293, Note_on_c, 0, 84, 73
1, 803295, Note_on_c, 0, 61, 59
1, 803297, Control_c, 0, 64, 62
1, 803312, Note_off_c, 0, 72, 57
1, 803315, Note_off_c, 0, 84, 68
1, 803321, Note_on_c, 0, 83, 46
1, 803326, Note_off_c, 0, 61, 65
1, 803326, Control_c, 0, 64, 62
1, 803341, Control_c, 0, 64, 64
1, 803356, Note_off_c, 0, 83, 35
1, 803363, Control_c, 0, 64, 66
1, 803378, Control_c, 0, 64, 69
1, 803393, Control_c, 0, 64, 72
1, 803393, Control_c, 0, 67, 115
1, 803403, Note_on_c, 0, 81, 83
1, 803408, Control_c, 0, 64, 74
1, 803408, Control_c, 0, 67, 106
1, 803410, Note_on_c, 0, 73, 77
1, 803423, Control_c, 0, 64, 75
1, 803423, Control_c, 0, 67, 103
1, 803437, Control_c, 0, 67, 100
1, 803452, Control_c, 0, 67, 96
1, 803467, Control_c, 0, 64, 72
1, 803467, Control_c, 0, 67, 86
1, 803482, Control_c, 0, 64, 67
1, 803482, Control_c, 0, 67, 69
1, 803497, Control_c, 0, 64, 63
1, 803497, Control_c, 0, 67, 49
1, 803501, Note_off_c, 0, 73, 62
1, 803508, Note_on_c, 0, 53, 77
1, 803508, Note_off_c, 0, 52, 63
1, 803511, Note_on_c, 0, 72, 79
1, 803511, Control_c, 0, 64, 61
1, 803511, Control_c, 0, 67, 0
1, 803526, Control_c, 0, 64, 62
1, 803541, Control_c, 0, 64, 66
1, 803556, Control_c, 0, 64, 70
1, 803571, Control_c, 0, 64, 76
1, 803572, Note_off_c, 0, 72, 59
1, 803586, Control_c, 0, 64, 82
1, 803601, Control_c, 0, 64, 87
1, 803606, Note_on_c, 0, 73, 85
1, 803616, Control_c, 0, 64, 88
1, 803618, Note_off_c, 0, 53, 61
1, 803645, Control_c, 0, 64, 85
1, 803660, Control_c, 0, 64, 78
1, 803675, Note_off_c, 0, 73, 63
1, 803675, Control_c, 0, 64, 70
1, 803689, Control_c, 0, 64, 63
1, 803699, Note_on_c, 0, 49, 87
1, 803704, Control_c, 0, 64, 63
1, 803712, Note_on_c, 0, 69, 75
1, 803719, Control_c, 0, 64, 67
1, 803733, Note_off_c, 0, 69, 70
1, 803734, Control_c, 0, 64, 74
1, 803749, Note_off_c, 0, 81, 63
1, 803749, Control_c, 0, 64, 85
1, 803763, Control_c, 0, 64, 99
1, 803778, Control_c, 0, 64, 120
1, 803793, Control_c, 0, 64, 127
1, 803800, Note_on_c, 0, 81, 84
1, 803803, Note_off_c, 0, 49, 62
1, 803809, Note_on_c, 0, 72, 79
1, 803853, Control_c, 0, 64, 110
1, 803868, Control_c, 0, 64, 76
1, 803883, Control_c, 0, 64, 53
1, 803898, Note_on_c, 0, 52, 91
1, 803898, Control_c, 0, 64, 0
1, 803900, Note_off_c, 0, 81, 61
1, 803902, Note_on_c, 0, 83, 89
1, 803920, Note_off_c, 0, 72, 63
1, 803927, Control_c, 0, 64, 33
1, 803942, Control_c, 0, 64, 55
1, 803957, Control_c, 0, 64, 66
1, 803972, Control_c, 0, 64, 71
1, 803973, Note_off_c, 0, 52, 61
1, 803986, Control_c, 0, 64, 73
1, 804001, Control_c, 0, 64, 73
1, 804003, Note_on_c, 0, 65, 91
1, 804007, Note_on_c, 0, 81, 87
1, 804016, Control_c, 0, 64, 74
1, 804023, Note_off_c, 0, 83, 61
1, 804031, Control_c, 0, 64, 75
1, 804046, Control_c, 0, 64, 75
1, 804060, Control_c, 0, 64, 76
1, 804075, Control_c, 0, 64, 77
1, 804081, Note_off_c, 0, 65, 57
1, 804090, Control_c, 0, 64, 78
1, 804109, Note_on_c, 0, 84, 88
1, 804112, Control_c, 0, 64, 79
1, 804113, Note_on_c, 0, 64, 85
1, 804113, Note_off_c, 0, 81, 61
1, 804127, Control_c, 0, 64, 82
1, 804142, Control_c, 0, 64, 86
1, 804157, Control_c, 0, 64, 93
1, 804171, Note_off_c, 0, 64, 58
1, 804172, Control_c, 0, 64, 109
1, 804173, Note_off_c, 0, 84, 57
1, 804186, Control_c, 0, 64, 127
1, 804192, Note_on_c, 0, 65, 85
1, 804213, Note_on_c, 0, 81, 78
1, 804214, Note_off_c, 0, 65, 71
1, 804219, Note_on_c, 0, 73, 83
1, 804234, Note_off_c, 0, 81, 71
1, 804263, Note_off_c, 0, 73, 62
1, 804275, Control_c, 0, 64, 81
1, 804291, Control_c, 0, 64, 61
1, 804305, Control_c, 0, 64, 42
1, 804318, Note_on_c, 0, 41, 97
1, 804320, Note_on_c, 0, 53, 99
1, 804335, Control_c, 0, 64, 50
1, 804343, Note_on_c, 0, 71, 75
1, 804344, Note_on_c, 0, 72, 59
1, 804350, Control_c, 0, 64, 61
1, 804365, Control_c, 0, 64, 69
1, 804379, Control_c, 0, 64, 79
1, 804394, Control_c, 0, 64, 89
1, 804409, Control_c, 0, 64, 97
1, 804417, Note_off_c, 0, 72, 61
1, 804419, Note_on_c, 0, 73, 80
1, 804424, Note_off_c, 0, 71, 58
1, 804424, Control_c, 0, 64, 105
1, 804439, Control_c, 0, 64, 115
1, 804448, Note_off_c, 0, 41, 65
1, 804457, Note_off_c, 0, 53, 60
1, 804465, Note_on_c, 0, 74, 42
1, 804483, Control_c, 0, 64, 96
1, 804493, Note_off_c, 0, 74, 51
1, 804495, Note_off_c, 0, 73, 60
1, 804498, Control_c, 0, 64, 73
1, 804513, Control_c, 0, 64, 53
1, 804522, Note_on_c, 0, 69, 84
1, 804524, Note_on_c, 0, 52, 98
1, 804525, Note_on_c, 0, 40, 93
1, 804528, Control_c, 0, 64, 0
1, 804558, Control_c, 0, 64, 44
1, 804558, Note_off_c, 0, 69, 65
1, 804572, Control_c, 0, 64, 64
1, 804587, Control_c, 0, 64, 76
1, 804602, Control_c, 0, 64, 94
1, 804617, Control_c, 0, 64, 103
1, 804636, Note_on_c, 0, 72, 91
1, 804641, Note_on_c, 0, 81, 92
1, 804648, Note_off_c, 0, 40, 60
1, 804662, Control_c, 0, 64, 98
1, 804665, Note_off_c, 0, 52, 61
1, 804677, Control_c, 0, 64, 78
1, 804692, Control_c, 0, 64, 59
1, 804707, Control_c, 0, 64, 0
1, 804736, Note_on_c, 0, 53, 104
1, 804737, Note_off_c, 0, 81, 51
1, 804741, Note_on_c, 0, 41, 97
1, 804741, Note_on_c, 0, 83, 94
1, 804751, Control_c, 0, 64, 49
1, 804766, Control_c, 0, 64, 65
1, 804775, Note_off_c, 0, 72, 64
1, 804781, Control_c, 0, 64, 75
1, 804787, Note_off_c, 0, 53, 63
1, 804796, Control_c, 0, 64, 88
1, 804810, Control_c, 0, 64, 104
1, 804811, Note_off_c, 0, 41, 65
1, 804825, Control_c, 0, 64, 127
1, 804839, Note_on_c, 0, 81, 91
1, 804862, Note_off_c, 0, 83, 60
1, 804906, Control_c, 0, 64, 77
1, 804921, Control_c, 0, 64, 41
1, 804926, Note_off_c, 0, 81, 64
1, 804936, Control_c, 0, 64, 0
1, 804940, Note_on_c, 0, 49, 105
1, 804943, Note_on_c, 0, 37, 98
1, 804957, Note_on_c, 0, 84, 82
1, 804981, Control_c, 0, 64, 40
1, 804995, Note_off_c, 0, 84, 65
1, 804996, Control_c, 0, 64, 68
1, 805002, Note_on_c, 0, 39, 6
1, 805010, Control_c, 0, 64, 79
1, 805025, Control_c, 0, 64, 94
1, 805036, Note_on_c, 0, 81, 86
1, 805037, Note_off_c, 0, 37, 61
1, 805039, Control_c, 0, 64, 96
1, 805040, Note_on_c, 0, 73, 89
1, 805043, Note_off_c, 0, 49, 56
1, 805054, Control_c, 0, 64, 100
1, 805060, Note_off_c, 0, 39, 50
1, 805070, Note_off_c, 0, 81, 65
1, 805079, Note_off_c, 0, 73, 62
1, 805154, Note_on_c, 0, 72, 95
1, 805160, Note_on_c, 0, 64, 85
1, 805166, Note_on_c, 0, 53, 98
1, 805166, Note_on_c, 0, 62, 86
1, 805173, Note_on_c, 0, 52, 85
1, 805178, Note_on_c, 0, 41, 77
1, 805180, Note_on_c, 0, 40, 68
1, 805181, Note_off_c, 0, 64, 73
1, 805181, Note_off_c, 0, 62, 70
1, 805192, Note_off_c, 0, 52, 64
1, 805192, Note_off_c, 0, 72, 63
1, 805199, Note_off_c, 0, 53, 64
1, 805201, Note_off_c, 0, 41, 68
1, 805204, Note_off_c, 0, 40, 60
1, 805246, Control_c, 0, 64, 102
1, 805257, Note_on_c, 0, 65, 73
1, 805258, Note_on_c, 0, 73, 86
1, 805264, Note_on_c, 0, 67, 69
1, 805279, Note_off_c, 0, 65, 64
1, 805282, Note_off_c, 0, 67, 64
1, 805287, Note_off_c, 0, 73, 58
1, 805297, Note_on_c, 0, 74, 49
1, 805323, Note_off_c, 0, 74, 56
1, 805357, Note_on_c, 0, 69, 88
1, 805360, Note_on_c, 0, 71, 87
1, 805365, Note_on_c, 0, 62, 66
1, 805389, Note_off_c, 0, 71, 52
1, 805398, Note_off_c, 0, 62, 62
1, 805404, Note_off_c, 0, 69, 62
1, 805434, Note_on_c, 0, 65, 51
1, 805434, Note_on_c, 0, 67, 53
1, 805443, Note_on_c, 0, 81, 103
1, 805448, Note_on_c, 0, 72, 79
1, 805452, Note_off_c, 0, 65, 64
1, 805458, Note_off_c, 0, 67, 58
1, 805470, Note_on_c, 0, 74, 56
1, 805477, Note_off_c, 0, 72, 61
1, 805485, Control_c, 0, 64, 84
1, 805489, Note_off_c, 0, 74, 60
1, 805499, Control_c, 0, 64, 63
1, 805505, Note_off_c, 0, 81, 65
1, 805514, Control_c, 0, 64, 0
1, 805547, Note_on_c, 0, 83, 102
1, 805548, Note_on_c, 0, 41, 102
1, 805549, Note_on_c, 0, 53, 101
1, 805625, Control_c, 0, 64, 43
1, 805640, Control_c, 0, 64, 71
1, 805643, Note_off_c, 0, 41, 65
1, 805645, Note_on_c, 0, 81, 94
1, 805654, Control_c, 0, 64, 77
1, 805669, Note_off_c, 0, 83, 58
1, 805669, Control_c, 0, 64, 79
1, 805672, Note_off_c, 0, 53, 65
1, 805699, Control_c, 0, 64, 80
1, 805714, Control_c, 0, 64, 81
1, 805715, Note_off_c, 0, 81, 63
1, 805729, Control_c, 0, 64, 81
1, 805750, Note_on_c, 0, 84, 97
1, 805790, Note_off_c, 0, 84, 66
1, 805803, Control_c, 0, 64, 82
1, 805818, Control_c, 0, 64, 82
1, 805832, Control_c, 0, 64, 84
1, 805839, Note_on_c, 0, 61, 79
1, 805845, Note_on_c, 0, 69, 99
1, 805847, Control_c, 0, 64, 87
1, 805849, Note_on_c, 0, 81, 97
1, 805862, Control_c, 0, 64, 92
1, 805876, Control_c, 0, 64, 95
1, 805880, Note_off_c, 0, 69, 64
1, 805893, Note_off_c, 0, 81, 66
1, 805906, Control_c, 0, 64, 96
1, 805912, Note_off_c, 0, 61, 50
1, 805921, Control_c, 0, 64, 85
1, 805936, Control_c, 0, 64, 63
1, 805947, Note_on_c, 0, 84, 97
1, 805948, Note_on_c, 0, 60, 75
1, 805949, Note_on_c, 0, 72, 101
1, 805950, Control_c, 0, 64, 0
1, 805974, Note_off_c, 0, 72, 71
1, 805979, Note_off_c, 0, 84, 69
1, 806040, Note_on_c, 0, 61, 92
1, 806044, Note_off_c, 0, 60, 64
1, 806108, Note_off_c, 0, 61, 65
1, 806148, Note_on_c, 0, 57, 80
1, 806150, Note_on_c, 0, 72, 105
1, 806151, Note_on_c, 0, 52, 71
1, 806152, Note_on_c, 0, 84, 101
1, 806158, Control_c, 0, 64, 39
1, 806173, Control_c, 0, 64, 66
1, 806183, Note_off_c, 0, 72, 66
1, 806188, Control_c, 0, 64, 69
1, 806190, Note_off_c, 0, 84, 68
1, 806203, Control_c, 0, 64, 70
1, 806218, Control_c, 0, 64, 70
1, 806233, Control_c, 0, 64, 73
1, 806248, Control_c, 0, 64, 76
1, 806251, Note_on_c, 0, 76, 104
1, 806251, Note_on_c, 0, 88, 103
1, 806252, Note_on_c, 0, 60, 89
1, 806263, Control_c, 0, 64, 81
1, 806270, Note_off_c, 0, 57, 61
1, 806277, Control_c, 0, 64, 83
1, 806282, Note_off_c, 0, 76, 67
1, 806283, Note_off_c, 0, 88, 67
1, 806292, Control_c, 0, 64, 85
1, 806307, Control_c, 0, 64, 86
1, 806334, Note_off_c, 0, 60, 52
1, 806340, Note_on_c, 0, 59, 87
1, 806361, Note_off_c, 0, 52, 61
1, 806374, Control_c, 0, 64, 81
1, 806388, Control_c, 0, 64, 67
1, 806403, Control_c, 0, 64, 40
1, 806418, Control_c, 0, 64, 0
1, 806445, Note_on_c, 0, 60, 87
1, 806446, Note_off_c, 0, 59, 64
1, 806457, Note_on_c, 0, 76, 98
1, 806459, Note_on_c, 0, 88, 102
1, 806483, Note_off_c, 0, 76, 70
1, 806487, Note_off_c, 0, 88, 69
1, 806507, Control_c, 0, 64, 45
1, 806512, Note_off_c, 0, 60, 66
1, 806522, Control_c, 0, 64, 63
1, 806534, Note_on_c, 0, 53, 73
1, 806537, Control_c, 0, 64, 65
1, 806546, Note_on_c, 0, 57, 75
1, 806549, Note_on_c, 0, 80, 104
1, 806550, Note_on_c, 0, 92, 104
1, 806552, Control_c, 0, 64, 66
1, 806567, Control_c, 0, 64, 66
1, 806571, Note_off_c, 0, 80, 70
1, 806579, Note_off_c, 0, 92, 68
1, 806581, Control_c, 0, 64, 67
1, 806596, Control_c, 0, 64, 69
1, 806611, Control_c, 0, 64, 71
1, 806626, Control_c, 0, 64, 74
1, 806632, Note_off_c, 0, 57, 63
1, 806641, Control_c, 0, 64, 77
1, 806646, Note_on_c, 0, 61, 79
1, 806655, Control_c, 0, 64, 79
1, 806670, Control_c, 0, 64, 80
1, 806685, Control_c, 0, 64, 81
1, 806703, Note_off_c, 0, 53, 57
1, 806713, Note_off_c, 0, 61, 59
1, 806729, Control_c, 0, 64, 81
1, 806744, Control_c, 0, 64, 83
1, 806745, Note_on_c, 0, 60, 81
1, 806751, Note_on_c, 0, 92, 109
1, 806754, Note_on_c, 0, 80, 99
1, 806759, Control_c, 0, 64, 86
1, 806773, Control_c, 0, 64, 89
1, 806781, Note_off_c, 0, 80, 64
1, 806792, Note_off_c, 0, 92, 68
1, 806800, Note_off_c, 0, 60, 67
1, 806803, Control_c, 0, 64, 87
1, 806818, Control_c, 0, 64, 72
1, 806833, Control_c, 0, 64, 53
1, 806847, Control_c, 0, 64, 0
1, 806851, Note_on_c, 0, 95, 103
1, 806852, Note_on_c, 0, 83, 111
1, 806862, Note_on_c, 0, 61, 85
1, 806893, Note_on_c, 0, 92, 47
1, 806893, Note_off_c, 0, 92, 127
1, 806906, Control_c, 0, 64, 57
1, 806910, Note_off_c, 0, 61, 65
1, 806921, Control_c, 0, 64, 70
1, 806936, Control_c, 0, 64, 80
1, 806937, Note_on_c, 0, 49, 81
1, 806951, Control_c, 0, 64, 92
1, 806953, Note_off_c, 0, 83, 59
1, 806954, Note_on_c, 0, 57, 91
1, 806966, Control_c, 0, 64, 98
1, 806981, Note_off_c, 0, 95, 65
1, 806981, Control_c, 0, 64, 107
1, 806981, Note_off_c, 0, 49, 66
1, 806996, Control_c, 0, 64, 114
1, 807002, Note_off_c, 0, 57, 63
1, 807011, Control_c, 0, 64, 118
1, 807014, Note_on_c, 0, 58, 19
1, 807026, Control_c, 0, 64, 122
1, 807041, Control_c, 0, 64, 127
1, 807058, Note_off_c, 0, 58, 39
1, 807065, Note_on_c, 0, 65, 100
1, 807069, Note_on_c, 0, 84, 105
1, 807070, Note_on_c, 0, 96, 108
1, 807112, Note_off_c, 0, 84, 70
1, 807117, Note_off_c, 0, 96, 69
1, 807124, Note_off_c, 0, 65, 67
1, 807175, Note_on_c, 0, 93, 105
1, 807187, Note_on_c, 0, 64, 89
1, 807228, Note_off_c, 0, 93, 66
1, 807262, Note_off_c, 0, 64, 67
1, 807265, Note_on_c, 0, 65, 97
1, 807273, Note_on_c, 0, 88, 106
1, 807294, Note_off_c, 0, 65, 64
1, 807319, Note_off_c, 0, 88, 67
1, 807374, Control_c, 0, 64, 68
1, 807389, Control_c, 0, 64, 0
1, 807395, Note_on_c, 0, 92, 105
1, 807395, Note_on_c, 0, 52, 103
1, 807396, Note_on_c, 0, 48, 102
1, 807396, Note_on_c, 0, 80, 107
1, 807398, Note_on_c, 0, 40, 97
1, 807423, Note_on_c, 0, 90, 62
1, 807446, Note_off_c, 0, 90, 55
1, 807448, Control_c, 0, 66, 127
1, 807461, Note_off_c, 0, 40, 64
1, 807476, Note_off_c, 0, 48, 67
1, 807493, Note_off_c, 0, 52, 66
1, 807515, Note_off_c, 0, 80, 63
1, 807518, Note_off_c, 0, 92, 65
1, 807519, Poly_aftertouch_c, 0, 79, 0
1, 807569, Note_on_c, 0, 87, 93
1, 807580, Note_on_c, 0, 63, 61
1, 807586, Note_on_c, 0, 64, 81
1, 807603, Note_on_c, 0, 65, 58
1, 807619, Note_off_c, 0, 64, 66
1, 807621, Note_off_c, 0, 63, 43
1, 807626, Note_off_c, 0, 65, 60
1, 807628, Note_off_c, 0, 87, 66
1, 807674, Note_on_c, 0, 84, 98
1, 807679, Note_on_c, 0, 64, 98
1, 807721, Note_off_c, 0, 84, 67
1, 807732, Note_off_c, 0, 64, 64
1, 807759, Note_on_c, 0, 81, 96
1, 807772, Note_on_c, 0, 65, 88
1, 807793, Note_off_c, 0, 81, 66
1, 807827, Note_off_c, 0, 65, 66
1, 807869, Note_on_c, 0, 68, 97
1, 807953, Note_on_c, 0, 69, 97
1, 807956, Note_on_c, 0, 60, 90
1, 807959, Note_on_c, 0, 59, 88
1, 807970, Note_off_c, 0, 68, 62
1, 807987, Note_off_c, 0, 59, 67
1, 807989, Note_off_c, 0, 60, 66
1, 808060, Note_on_c, 0, 57, 81
1, 808067, Note_on_c, 0, 55, 76
1, 808105, Note_off_c, 0, 57, 65
1, 808111, Note_off_c, 0, 55, 60
1, 808149, Note_on_c, 0, 52, 93
1, 808194, Note_off_c, 0, 52, 66
1, 808246, Note_on_c, 0, 56, 101
1, 808293, Note_on_c, 0, 51, 27
1, 808297, Note_off_c, 0, 56, 66
1, 808319, Note_off_c, 0, 69, 62
1, 808345, Note_on_c, 0, 72, 88
1, 808349, Note_off_c, 0, 51, 0
1, 808349, Note_on_c, 0, 51, 79
1, 808403, Note_off_c, 0, 72, 64
1, 808404, Note_off_c, 0, 51, 64
1, 808448, Note_on_c, 0, 48, 97
1, 808453, Note_on_c, 0, 75, 84
1, 808480, Note_off_c, 0, 48, 66
1, 808496, Note_off_c, 0, 75, 66
1, 808535, Note_on_c, 0, 45, 100
1, 808541, Note_on_c, 0, 76, 98
1, 808566, Note_off_c, 0, 45, 68
1, 808620, Note_off_c, 0, 76, 63
1, 808659, Note_on_c, 0, 77, 98
1, 808709, Note_off_c, 0, 77, 68
1, 808760, Note_on_c, 0, 80, 104
1, 808764, Note_on_c, 0, 96, 101
1, 808765, Note_on_c, 0, 84, 99
1, 808793, Note_off_c, 0, 84, 68
1, 808814, Note_off_c, 0, 96, 65
1, 808853, Note_on_c, 0, 93, 92
1, 808886, Note_off_c, 0, 80, 63
1, 808916, Note_off_c, 0, 93, 63
1, 808960, Note_on_c, 0, 88, 92
1, 808996, Note_off_c, 0, 88, 66
1, 809049, Note_on_c, 0, 80, 102
1, 809052, Note_on_c, 0, 92, 106
1, 809079, Control_c, 0, 66, 0
1, 809080, Note_off_c, 0, 80, 69
1, 809097, Note_off_c, 0, 92, 65
1, 809142, Note_on_c, 0, 76, 81
1, 809160, Note_on_c, 0, 87, 75
1, 809182, Note_off_c, 0, 76, 59
1, 809205, Note_off_c, 0, 87, 60
1, 809249, Note_on_c, 0, 77, 70
1, 809265, Note_off_c, 0, 77, 67
1, 809269, Note_on_c, 0, 84, 69
1, 809300, Note_off_c, 0, 84, 64
1, 809357, Note_on_c, 0, 81, 80
1, 809376, Note_off_c, 0, 81, 71
1, 809449, Note_on_c, 0, 84, 97
1, 809452, Note_on_c, 0, 72, 98
1, 809481, Note_off_c, 0, 72, 66
1, 809508, Note_off_c, 0, 84, 65
1, 809534, Note_on_c, 0, 66, 71
1, 809560, Note_on_c, 0, 81, 81
1, 809607, Note_off_c, 0, 66, 58
1, 809610, Note_off_c, 0, 81, 62
1, 809650, Control_c, 0, 67, 43
1, 809661, Note_on_c, 0, 76, 74
1, 809665, Note_on_c, 0, 61, 39
1, 809665, Control_c, 0, 67, 52
1, 809679, Control_c, 0, 67, 56
1, 809682, Note_off_c, 0, 76, 71
1, 809697, Note_off_c, 0, 61, 34
1, 809723, Control_c, 0, 67, 56
1, 809738, Control_c, 0, 67, 54
1, 809747, Note_on_c, 0, 80, 93
1, 809747, Note_on_c, 0, 68, 94
1, 809753, Control_c, 0, 67, 53
1, 809762, Note_on_c, 0, 70, 69
1, 809768, Control_c, 0, 67, 50
1, 809777, Note_off_c, 0, 68, 66
1, 809780, Note_off_c, 0, 70, 66
1, 809783, Control_c, 0, 67, 49
1, 809798, Control_c, 0, 67, 48
1, 809801, Note_off_c, 0, 80, 62
1, 809813, Control_c, 0, 67, 47
1, 809828, Control_c, 0, 67, 46
1, 809842, Control_c, 0, 67, 45
1, 809853, Note_on_c, 0, 75, 84
1, 809857, Control_c, 0, 67, 45
1, 809872, Control_c, 0, 67, 44
1, 809887, Control_c, 0, 67, 43
1, 809899, Note_off_c, 0, 75, 65
1, 809950, Note_on_c, 0, 72, 78
1, 809960, Note_on_c, 0, 52, 59
1, 809993, Note_off_c, 0, 72, 65
1, 810005, Control_c, 0, 67, 43
1, 810015, Note_off_c, 0, 52, 57
1, 810035, Control_c, 0, 67, 41
1, 810049, Note_on_c, 0, 69, 80
1, 810054, Note_on_c, 0, 53, 75
1, 810064, Control_c, 0, 67, 40
1, 810069, Note_off_c, 0, 69, 72
1, 810078, Note_off_c, 0, 53, 69
1, 810079, Control_c, 0, 67, 39
1, 810117, Control_c, 0, 67, 40
1, 810131, Control_c, 0, 67, 41
1, 810144, Note_on_c, 0, 72, 100
1, 810146, Note_on_c, 0, 60, 101
1, 810161, Control_c, 0, 67, 41
1, 810176, Control_c, 0, 67, 42
1, 810180, Note_off_c, 0, 60, 65
1, 810191, Control_c, 0, 67, 43
1, 810194, Note_off_c, 0, 72, 65
1, 810205, Control_c, 0, 67, 46
1, 810221, Control_c, 0, 67, 47
1, 810236, Control_c, 0, 67, 49
1, 810251, Control_c, 0, 67, 49
1, 810254, Note_on_c, 0, 69, 91
1, 810266, Control_c, 0, 67, 51
1, 810281, Control_c, 0, 67, 52
1, 810310, Control_c, 0, 67, 51
1, 810311, Note_off_c, 0, 69, 60
1, 810325, Control_c, 0, 67, 50
1, 810340, Control_c, 0, 67, 49
1, 810354, Note_on_c, 0, 64, 83
1, 810354, Control_c, 0, 67, 47
1, 810363, Note_on_c, 0, 42, 75
1, 810369, Control_c, 0, 67, 43
1, 810384, Control_c, 0, 67, 39
1, 810399, Control_c, 0, 67, 0
1, 810402, Note_off_c, 0, 64, 66
1, 810420, Note_off_c, 0, 42, 62
1, 810448, Note_on_c, 0, 60, 57
1, 810449, Note_on_c, 0, 37, 93
1, 810471, Note_off_c, 0, 60, 61
1, 810478, Note_off_c, 0, 37, 66
1, 810502, Control_c, 0, 67, 42
1, 810517, Control_c, 0, 67, 46
1, 810532, Control_c, 0, 67, 48
1, 810546, Note_on_c, 0, 79, 105
1, 810546, Control_c, 0, 67, 49
1, 810549, Note_on_c, 0, 91, 95
1, 810561, Control_c, 0, 67, 50
1, 810572, Note_on_c, 0, 93, 56
1, 810572, Note_off_c, 0, 93, 127
1, 810576, Control_c, 0, 67, 49
1, 810579, Note_on_c, 0, 81, 44
1, 810582, Note_off_c, 0, 79, 69
1, 810584, Note_off_c, 0, 91, 71
1, 810591, Control_c, 0, 67, 47
1, 810606, Note_off_c, 0, 81, 39
1, 810636, Control_c, 0, 67, 46
1, 810650, Note_on_c, 0, 86, 96
1, 810695, Control_c, 0, 67, 45
1, 810710, Control_c, 0, 67, 43
1, 810719, Note_off_c, 0, 86, 62
1, 810725, Control_c, 0, 67, 43
1, 810736, Note_on_c, 0, 75, 91
1, 810742, Note_on_c, 0, 83, 100
1, 810754, Control_c, 0, 67, 42
1, 810784, Control_c, 0, 67, 41
1, 810787, Note_off_c, 0, 83, 67
1, 810788, Note_off_c, 0, 75, 66
1, 810799, Control_c, 0, 67, 0
1, 810827, Note_on_c, 0, 76, 98
1, 810851, Note_on_c, 0, 80, 83
1, 810862, Note_off_c, 0, 76, 66
1, 810868, Note_off_c, 0, 80, 74
1, 810939, Note_on_c, 0, 83, 89
1, 810952, Note_on_c, 0, 71, 75
1, 810975, Note_off_c, 0, 71, 69
1, 810993, Note_off_c, 0, 83, 65
1, 811035, Note_on_c, 0, 65, 105
1, 811071, Note_on_c, 0, 79, 67
1, 811078, Note_on_c, 0, 78, 53
1, 811080, Note_on_c, 0, 80, 19
1, 811081, Note_off_c, 0, 65, 68
1, 811101, Note_off_c, 0, 78, 57
1, 811108, Note_off_c, 0, 80, 55
1, 811109, Note_off_c, 0, 79, 64
1, 811120, Note_on_c, 0, 75, 61
1, 811127, Note_on_c, 0, 60, 90
1, 811139, Note_off_c, 0, 75, 63
1, 811140, Note_on_c, 0, 59, 73
1, 811157, Note_off_c, 0, 60, 69
1, 811157, Note_off_c, 0, 59, 67
1, 811214, Note_on_c, 0, 79, 93
1, 811219, Note_on_c, 0, 67, 85
1, 811244, Note_off_c, 0, 67, 65
1, 811268, Note_off_c, 0, 79, 64
1, 811310, Note_on_c, 0, 74, 96
1, 811319, Note_on_c, 0, 51, 103
1, 811364, Note_off_c, 0, 51, 67
1, 811396, Note_off_c, 0, 74, 65
1, 811405, Note_on_c, 0, 71, 94
1, 811414, Note_on_c, 0, 52, 106
1, 811449, Note_off_c, 0, 52, 70
1, 811453, Note_off_c, 0, 71, 64
1, 811494, Note_on_c, 0, 68, 81
1, 811536, Note_off_c, 0, 68, 62
1, 811612, Note_on_c, 0, 41, 106
1, 811617, Note_on_c, 0, 71, 93
1, 811619, Note_on_c, 0, 59, 94
1, 811649, Note_off_c, 0, 59, 66
1, 811664, Note_on_c, 0, 60, 25
1, 811664, Note_off_c, 0, 60, 127
1, 811667, Note_off_c, 0, 41, 66
1, 811712, Note_on_c, 0, 36, 97
1, 811718, Note_on_c, 0, 68, 82
1, 811718, Note_off_c, 0, 71, 37
1, 811758, Note_off_c, 0, 36, 67
1, 811804, Note_on_c, 0, 63, 96
1, 811812, Note_off_c, 0, 68, 61
1, 811858, Note_off_c, 0, 63, 65
1, 811899, Note_on_c, 0, 47, 102
1, 811906, Note_on_c, 0, 35, 93
1, 811914, Note_on_c, 0, 55, 95
1, 811914, Note_on_c, 0, 67, 93
1, 811930, Note_off_c, 0, 35, 67
1, 811935, Note_off_c, 0, 47, 69
1, 811945, Note_off_c, 0, 55, 66
1, 811974, Note_off_c, 0, 67, 61
1, 812008, Note_on_c, 0, 50, 102
1, 812012, Note_on_c, 0, 62, 97
1, 812016, Note_on_c, 0, 38, 83
1, 812022, Note_on_c, 0, 36, 73
1, 812043, Note_off_c, 0, 50, 67
1, 812046, Note_off_c, 0, 38, 67
1, 812047, Note_off_c, 0, 36, 61
1, 812099, Note_off_c, 0, 62, 57
1, 812109, Note_on_c, 0, 59, 91
1, 812111, Note_on_c, 0, 54, 99
1, 812115, Note_on_c, 0, 42, 90
1, 812137, Note_off_c, 0, 59, 65
1, 812143, Note_off_c, 0, 54, 62
1, 812148, Note_off_c, 0, 42, 65
1, 812228, Note_on_c, 0, 58, 111
1, 812230, Note_on_c, 0, 46, 96
1, 812321, Note_on_c, 0, 77, 79
1, 812326, Note_on_c, 0, 72, 86
1, 812392, Control_c, 0, 64, 44
1, 812402, Note_off_c, 0, 77, 62
1, 812407, Control_c, 0, 64, 56
1, 812412, Note_off_c, 0, 46, 60
1, 812414, Note_off_c, 0, 58, 57
1, 812422, Control_c, 0, 64, 57
1, 812430, Note_on_c, 0, 78, 91
1, 812431, Note_on_c, 0, 66, 96
1, 812445, Note_off_c, 0, 72, 55
1, 812451, Control_c, 0, 64, 57
1, 812464, Note_off_c, 0, 78, 66
1, 812466, Note_off_c, 0, 66, 66
1, 812466, Control_c, 0, 64, 53
1, 812481, Control_c, 0, 64, 41
1, 812496, Control_c, 0, 64, 0
1, 812522, Note_on_c, 0, 61, 110
1, 812524, Note_on_c, 0, 49, 101
1, 812615, Control_c, 0, 64, 45
1, 812621, Note_on_c, 0, 79, 83
1, 812624, Note_on_c, 0, 67, 90
1, 812624, Note_on_c, 0, 81, 84
1, 812627, Note_on_c, 0, 69, 82
1, 812630, Control_c, 0, 64, 60
1, 812642, Note_off_c, 0, 81, 73
1, 812645, Control_c, 0, 64, 64
1, 812649, Note_off_c, 0, 69, 65
1, 812654, Note_off_c, 0, 67, 65
1, 812657, Note_off_c, 0, 49, 59
1, 812658, Note_off_c, 0, 61, 55
1, 812660, Control_c, 0, 64, 68
1, 812675, Control_c, 0, 64, 72
1, 812679, Note_off_c, 0, 79, 63
1, 812689, Control_c, 0, 64, 76
1, 812704, Control_c, 0, 64, 77
1, 812719, Control_c, 0, 64, 75
1, 812722, Note_on_c, 0, 74, 88
1, 812727, Note_on_c, 0, 62, 83
1, 812728, Note_on_c, 0, 50, 84
1, 812730, Note_on_c, 0, 71, 74
1, 812732, Note_on_c, 0, 64, 82
1, 812734, Control_c, 0, 64, 66
1, 812746, Note_off_c, 0, 64, 69
1, 812749, Control_c, 0, 64, 40
1, 812752, Note_on_c, 0, 52, 55
1, 812755, Note_off_c, 0, 71, 67
1, 812758, Note_off_c, 0, 62, 63
1, 812764, Control_c, 0, 64, 0
1, 812773, Note_off_c, 0, 50, 64
1, 812774, Note_off_c, 0, 74, 66
1, 812782, Note_off_c, 0, 52, 56
1, 812828, Note_on_c, 0, 59, 107
1, 812835, Note_on_c, 0, 47, 83
1, 812845, Note_on_c, 0, 48, 78
1, 812859, Note_off_c, 0, 59, 65
1, 812862, Note_off_c, 0, 47, 69
1, 812865, Note_off_c, 0, 48, 63
1, 812928, Note_on_c, 0, 54, 106
1, 812929, Note_on_c, 0, 42, 106
1, 812958, Note_off_c, 0, 42, 66
1, 812959, Note_off_c, 0, 54, 63
1, 813030, Note_on_c, 0, 58, 109
1, 813031, Note_on_c, 0, 46, 101
1, 813074, Control_c, 0, 64, 51
1, 813076, Note_off_c, 0, 58, 60
1, 813079, Note_off_c, 0, 46, 63
1, 813084, Note_on_c, 0, 69, 94
1, 813094, Note_on_c, 0, 80, 86
1, 813097, Control_c, 0, 64, 69
1, 813112, Control_c, 0, 64, 72
1, 813124, Note_off_c, 0, 80, 63
1, 813127, Control_c, 0, 64, 73
1, 813136, Note_off_c, 0, 69, 64
1, 813141, Control_c, 0, 64, 73
1, 813156, Control_c, 0, 64, 75
1, 813171, Control_c, 0, 64, 76
1, 813182, Note_on_c, 0, 81, 80
1, 813186, Control_c, 0, 64, 76
1, 813187, Note_on_c, 0, 74, 96
1, 813196, Note_on_c, 0, 64, 88
1, 813197, Note_on_c, 0, 65, 88
1, 813201, Control_c, 0, 64, 77
1, 813210, Note_off_c, 0, 81, 65
1, 813215, Control_c, 0, 64, 77
1, 813228, Note_off_c, 0, 74, 65
1, 813230, Control_c, 0, 64, 79
1, 813239, Note_off_c, 0, 65, 60
1, 813241, Note_off_c, 0, 64, 66
1, 813245, Control_c, 0, 64, 81
1, 813260, Control_c, 0, 64, 86
1, 813274, Control_c, 0, 64, 94
1, 813280, Note_on_c, 0, 65, 89
1, 813283, Note_on_c, 0, 70, 95
1, 813289, Note_on_c, 0, 82, 88
1, 813289, Note_on_c, 0, 61, 90
1, 813289, Control_c, 0, 64, 104
1, 813296, Note_on_c, 0, 53, 74
1, 813303, Note_off_c, 0, 65, 71
1, 813304, Control_c, 0, 64, 127
1, 813315, Note_off_c, 0, 61, 65
1, 813320, Note_off_c, 0, 53, 69
1, 813323, Note_off_c, 0, 70, 66
1, 813348, Control_c, 0, 64, 103
1, 813363, Control_c, 0, 64, 73
1, 813368, Note_on_c, 0, 73, 85
1, 813368, Note_off_c, 0, 82, 62
1, 813370, Note_on_c, 0, 77, 80
1, 813378, Control_c, 0, 64, 30
1, 813387, Poly_aftertouch_c, 0, 58, 0
1, 813393, Control_c, 0, 64, 0
1, 813420, Note_off_c, 0, 73, 65
1, 813429, Note_off_c, 0, 77, 65
1, 813433, Note_on_c, 0, 53, 106
1, 813437, Note_on_c, 0, 41, 104
1, 813468, Control_c, 0, 64, 39
1, 813470, Note_off_c, 0, 41, 69
1, 813482, Control_c, 0, 64, 64
1, 813495, Note_off_c, 0, 53, 62
1, 813497, Control_c, 0, 64, 69
1, 813504, Note_on_c, 0, 72, 102
1, 813512, Note_on_c, 0, 83, 86
1, 813512, Control_c, 0, 64, 74
1, 813520, Note_on_c, 0, 84, 76
1, 813527, Control_c, 0, 64, 76
1, 813536, Note_off_c, 0, 84, 66
1, 813542, Control_c, 0, 64, 78
1, 813547, Note_off_c, 0, 83, 64
1, 813548, Note_off_c, 0, 72, 65
1, 813557, Control_c, 0, 64, 81
1, 813572, Control_c, 0, 64, 84
1, 813587, Control_c, 0, 64, 86
1, 813595, Note_on_c, 0, 84, 81
1, 813596, Note_on_c, 0, 67, 95
1, 813602, Control_c, 0, 64, 88
1, 813616, Note_on_c, 0, 76, 86
1, 813616, Control_c, 0, 64, 92
1, 813630, Note_on_c, 0, 64, 52
1, 813631, Control_c, 0, 64, 97
1, 813632, Note_on_c, 0, 65, 50
1, 813637, Note_off_c, 0, 67, 65
1, 813646, Control_c, 0, 64, 104
1, 813649, Note_off_c, 0, 84, 66
1, 813652, Note_off_c, 0, 64, 62
1, 813654, Note_off_c, 0, 65, 60
1, 813661, Control_c, 0, 64, 127
1, 813663, Note_off_c, 0, 76, 65
1, 813679, Note_on_c, 0, 68, 95
1, 813687, Note_on_c, 0, 56, 93
1, 813705, Note_on_c, 0, 85, 93
1, 813706, Note_off_c, 0, 68, 67
1, 813708, Note_on_c, 0, 73, 95
1, 813710, Note_off_c, 0, 56, 68
1, 813771, Note_on_c, 0, 80, 83
1, 813786, Note_on_c, 0, 76, 91
1, 813787, Note_off_c, 0, 73, 61
1, 813795, Note_off_c, 0, 85, 63
1, 813809, Control_c, 0, 64, 107
1, 813824, Control_c, 0, 64, 64
1, 813826, Note_off_c, 0, 76, 67
1, 813827, Poly_aftertouch_c, 0, 75, 0
1, 813828, Note_off_c, 0, 80, 65
1, 813846, Control_c, 0, 64, 0
1, 813858, Note_on_c, 0, 50, 110
1, 813858, Note_on_c, 0, 38, 105
1, 813882, Note_off_c, 0, 38, 69
1, 813889, Note_on_c, 0, 40, 56
1, 813890, Control_c, 0, 64, 31
1, 813894, Note_off_c, 0, 50, 69
1, 813905, Control_c, 0, 64, 58
1, 813920, Control_c, 0, 64, 71
1, 813921, Note_off_c, 0, 40, 57
1, 813923, Note_on_c, 0, 87, 98
1, 813926, Note_on_c, 0, 76, 92
1, 813935, Control_c, 0, 64, 80
1, 813943, Note_on_c, 0, 74, 66
1, 813943, Note_off_c, 0, 74, 127
1, 813950, Control_c, 0, 64, 89
1, 813964, Note_off_c, 0, 87, 69
1, 813964, Control_c, 0, 64, 94
1, 813965, Note_off_c, 0, 76, 66
1, 813979, Control_c, 0, 64, 97
1, 814009, Control_c, 0, 64, 100
1, 814013, Note_on_c, 0, 81, 98
1, 814017, Note_on_c, 0, 65, 95
1, 814017, Note_on_c, 0, 71, 98
1, 814024, Control_c, 0, 64, 104
1, 814029, Note_on_c, 0, 88, 81
1, 814039, Control_c, 0, 64, 110
1, 814048, Note_off_c, 0, 81, 67
1, 814054, Note_on_c, 0, 72, 31
1, 814054, Note_off_c, 0, 72, 127
1, 814054, Control_c, 0, 64, 127
1, 814055, Note_off_c, 0, 88, 65
1, 814058, Note_off_c, 0, 71, 66
1, 814068, Note_off_c, 0, 65, 66
1, 814111, Note_on_c, 0, 77, 112
1, 814112, Note_on_c, 0, 89, 99
1, 814153, Note_off_c, 0, 77, 61
1, 814194, Note_on_c, 0, 80, 99
1, 814194, Note_on_c, 0, 84, 92
1, 814216, Note_off_c, 0, 89, 61
1, 814218, Control_c, 0, 64, 96
1, 814233, Control_c, 0, 64, 56
1, 814234, Note_on_c, 0, 35, 106
1, 814236, Note_on_c, 0, 48, 105
1, 814237, Note_on_c, 0, 47, 104
1, 814239, Note_off_c, 0, 84, 66
1, 814242, Note_off_c, 0, 80, 68
1, 814248, Control_c, 0, 64, 0
1, 814261, Note_on_c, 0, 37, 61
1, 814270, Note_off_c, 0, 48, 62
1, 814279, Note_on_c, 0, 36, 26
1, 814279, Note_off_c, 0, 36, 127
1, 814289, Note_off_c, 0, 35, 66
1, 814296, Note_off_c, 0, 37, 57
1, 814304, Note_off_c, 0, 47, 68
1, 814306, Control_c, 0, 64, 39
1, 814318, Note_on_c, 0, 90, 77
1, 814321, Control_c, 0, 64, 65
1, 814331, Poly_aftertouch_c, 0, 36, 0
1, 814336, Control_c, 0, 64, 77
1, 814341, Note_on_c, 0, 80, 97
1, 814351, Control_c, 0, 64, 90
1, 814359, Note_on_c, 0, 78, 74
1, 814366, Control_c, 0, 64, 100
1, 814381, Control_c, 0, 64, 127
1, 814382, Note_on_c, 0, 79, 46
1, 814384, Note_off_c, 0, 78, 60
1, 814403, Note_off_c, 0, 90, 67
1, 814406, Note_off_c, 0, 79, 59
1, 814412, Note_off_c, 0, 80, 61
1, 814444, Note_on_c, 0, 92, 100
1, 814446, Note_on_c, 0, 69, 102
1, 814447, Note_on_c, 0, 85, 98
1, 814450, Note_on_c, 0, 76, 102
1, 814505, Note_off_c, 0, 92, 68
1, 814512, Note_off_c, 0, 85, 66
1, 814520, Note_off_c, 0, 76, 57
1, 814561, Note_on_c, 0, 81, 108
1, 814561, Note_on_c, 0, 93, 105
1, 814572, Note_on_c, 0, 65, 96
1, 814591, Note_on_c, 0, 72, 68
1, 814594, Note_on_c, 0, 71, 71
1, 814599, Note_on_c, 0, 74, 37
1, 814600, Note_off_c, 0, 69, 67
1, 814610, Note_off_c, 0, 72, 66
1, 814612, Note_off_c, 0, 71, 66
1, 814615, Note_off_c, 0, 65, 71
1, 814617, Note_off_c, 0, 81, 62
1, 814630, Note_off_c, 0, 74, 53
1, 814631, Note_off_c, 0, 93, 64
1, 814675, Note_on_c, 0, 84, 106
1, 814677, Note_on_c, 0, 88, 102
1, 814710, Note_off_c, 0, 88, 70
1, 814713, Note_off_c, 0, 84, 71
1, 814772, Note_on_c, 0, 22, 48
1, 814818, Note_off_c, 0, 22, 45
1, 814877, Control_c, 0, 64, 82
1, 814885, Note_on_c, 0, 34, 111
1, 814887, Note_on_c, 0, 22, 106
1, 814892, Control_c, 0, 64, 44
1, 814893, Note_on_c, 0, 46, 117
1, 814907, Control_c, 0, 64, 0
1, 814907, Control_c, 0, 66, 127
1, 814925, Note_off_c, 0, 46, 65
1, 814951, Control_c, 0, 64, 54
1, 814966, Control_c, 0, 64, 69
1, 814981, Control_c, 0, 64, 76
1, 814995, Control_c, 0, 64, 87
1, 815003, Note_off_c, 0, 22, 62
1, 815011, Control_c, 0, 64, 92
1, 815026, Control_c, 0, 64, 94
1, 815033, Note_off_c, 0, 34, 66
1, 815144, Control_c, 0, 64, 96
1, 815156, Note_on_c, 0, 95, 102
1, 815158, Note_on_c, 0, 83, 106
1, 815158, Note_on_c, 0, 93, 108
1, 815159, Control_c, 0, 64, 101
1, 815160, Note_on_c, 0, 81, 100
1, 815160, Note_on_c, 0, 87, 100
1, 815166, Note_on_c, 0, 90, 84
1, 815174, Control_c, 0, 64, 103
1, 815204, Control_c, 0, 64, 105
1, 815218, Control_c, 0, 64, 108
1, 815233, Control_c, 0, 64, 111
1, 815248, Control_c, 0, 64, 115
1, 815262, Control_c, 0, 64, 127
1, 815357, Note_on_c, 0, 82, 108
1, 815358, Note_on_c, 0, 70, 98
1, 815363, Note_on_c, 0, 80, 96
1, 815372, Note_on_c, 0, 74, 80
1, 815373, Note_on_c, 0, 77, 76
1, 815384, Note_on_c, 0, 69, 65
1, 815411, Note_on_c, 0, 78, 18
1, 815416, Note_off_c, 0, 69, 59
1, 815430, Note_off_c, 0, 82, 60
1, 815432, Note_off_c, 0, 81, 57
1, 815432, Note_off_c, 0, 83, 57
1, 815434, Note_off_c, 0, 95, 60
1, 815438, Note_off_c, 0, 80, 59
1, 815441, Note_off_c, 0, 78, 32
1, 815444, Note_off_c, 0, 77, 64
1, 815449, Note_off_c, 0, 70, 54
1, 815449, Note_off_c, 0, 90, 63
1, 815450, Note_off_c, 0, 93, 62
1, 815452, Note_off_c, 0, 87, 63
1, 815457, Note_off_c, 0, 74, 63
1, 815506, Note_on_c, 0, 93, 103
1, 815506, Note_on_c, 0, 95, 102
1, 815506, Note_on_c, 0, 87, 101
1, 815508, Note_on_c, 0, 81, 101
1, 815508, Note_on_c, 0, 90, 93
1, 815509, Note_on_c, 0, 83, 104
1, 815564, Note_off_c, 0, 83, 59
1, 815566, Note_off_c, 0, 95, 67
1, 815574, Note_off_c, 0, 81, 58
1, 815579, Note_off_c, 0, 93, 64
1, 815594, Note_off_c, 0, 90, 65
1, 815598, Note_off_c, 0, 87, 66
1, 815621, Note_on_c, 0, 71, 105
1, 815622, Note_on_c, 0, 59, 99
1, 815622, Note_on_c, 0, 69, 105
1, 815624, Note_on_c, 0, 57, 96
1, 815624, Note_on_c, 0, 63, 99
1, 815657, Note_off_c, 0, 57, 64
1, 815658, Note_off_c, 0, 71, 67
1, 815663, Note_off_c, 0, 69, 63
1, 815682, Note_off_c, 0, 63, 68
1, 815694, Note_off_c, 0, 59, 62
1, 815736, Note_on_c, 0, 70, 108
1, 815736, Note_on_c, 0, 82, 92
1, 815743, Note_on_c, 0, 75, 92
1, 815744, Note_on_c, 0, 78, 92
1, 815745, Note_on_c, 0, 80, 91
1, 815758, Control_c, 0, 64, 84
1, 815773, Control_c, 0, 64, 62
1, 815788, Control_c, 0, 64, 41
1, 815803, Control_c, 0, 64, 42
1, 815804, Note_off_c, 0, 80, 56
1, 815819, Control_c, 0, 64, 53
1, 815833, Control_c, 0, 64, 63
1, 815848, Control_c, 0, 64, 71
1, 815863, Control_c, 0, 64, 81
1, 815878, Control_c, 0, 64, 88
1, 815892, Control_c, 0, 64, 94
1, 815907, Control_c, 0, 64, 99
1, 815922, Control_c, 0, 64, 102
1, 815952, Control_c, 0, 64, 105
1, 815962, Note_off_c, 0, 70, 57
1, 815966, Control_c, 0, 64, 107
1, 815981, Control_c, 0, 64, 110
1, 815985, Note_off_c, 0, 82, 62
1, 815996, Control_c, 0, 64, 117
1, 816007, Note_off_c, 0, 75, 60
1, 816011, Control_c, 0, 64, 127
1, 816014, Note_off_c, 0, 78, 58
1, 816090, Note_on_c, 0, 81, 95
1, 816090, Note_on_c, 0, 83, 98
1, 816095, Note_on_c, 0, 69, 98
1, 816095, Note_on_c, 0, 71, 99
1, 816096, Note_on_c, 0, 75, 97
1, 816104, Note_on_c, 0, 78, 84
1, 816165, Note_off_c, 0, 69, 59
1, 816165, Note_off_c, 0, 71, 57
1, 816194, Note_off_c, 0, 83, 61
1, 816198, Note_on_c, 0, 70, 113
1, 816204, Note_on_c, 0, 66, 96
1, 816204, Note_off_c, 0, 78, 57
1, 816205, Note_on_c, 0, 58, 95
1, 816207, Note_on_c, 0, 63, 92
1, 816207, Note_off_c, 0, 75, 58
1, 816210, Note_off_c, 0, 81, 60
1, 816227, Note_off_c, 0, 66, 66
1, 816228, Note_off_c, 0, 70, 67
1, 816228, Note_off_c, 0, 63, 66
1, 816250, Note_off_c, 0, 58, 62
1, 816293, Note_on_c, 0, 81, 109
1, 816294, Note_on_c, 0, 71, 106
1, 816294, Note_on_c, 0, 83, 103
1, 816296, Note_on_c, 0, 75, 102
1, 816296, Note_on_c, 0, 69, 103
1, 816301, Note_on_c, 0, 78, 91
1, 816320, Note_off_c, 0, 69, 53
1, 816321, Note_off_c, 0, 71, 64
1, 816324, Note_off_c, 0, 83, 68
1, 816341, Note_off_c, 0, 81, 64
1, 816356, Note_off_c, 0, 75, 61
1, 816356, Note_off_c, 0, 78, 62
1, 816402, Note_on_c, 0, 59, 105
1, 816403, Note_on_c, 0, 57, 101
1, 816404, Note_on_c, 0, 51, 101
1, 816405, Note_on_c, 0, 47, 97
1, 816407, Note_on_c, 0, 45, 97
1, 816433, Control_c, 0, 64, 94
1, 816439, Note_off_c, 0, 45, 63
1, 816447, Note_off_c, 0, 59, 64
1, 816448, Control_c, 0, 64, 68
1, 816451, Note_off_c, 0, 57, 58
1, 816463, Control_c, 0, 64, 55
1, 816469, Note_off_c, 0, 51, 67
1, 816471, Note_off_c, 0, 47, 59
1, 816478, Control_c, 0, 64, 54
1, 816492, Control_c, 0, 64, 56
1, 816505, Note_on_c, 0, 70, 99
1, 816507, Control_c, 0, 64, 60
1, 816508, Note_on_c, 0, 58, 105
1, 816510, Note_on_c, 0, 66, 92
1, 816511, Note_on_c, 0, 63, 92
1, 816522, Control_c, 0, 64, 65
1, 816537, Control_c, 0, 64, 70
1, 816548, Note_on_c, 0, 68, 41
1, 816552, Control_c, 0, 64, 75
1, 816565, Note_on_c, 0, 64, 44
1, 816566, Control_c, 0, 64, 79
1, 816578, Note_off_c, 0, 68, 49
1, 816581, Control_c, 0, 64, 81
1, 816596, Control_c, 0, 64, 83
1, 816612, Control_c, 0, 64, 85
1, 816627, Control_c, 0, 64, 86
1, 816631, Note_off_c, 0, 58, 63
1, 816642, Control_c, 0, 64, 86
1, 816656, Note_off_c, 0, 63, 63
1, 816664, Note_off_c, 0, 64, 32
1, 816666, Note_on_c, 0, 71, 60
1, 816671, Control_c, 0, 64, 87
1, 816675, Note_off_c, 0, 66, 65
1, 816681, Note_off_c, 0, 70, 65
1, 816686, Control_c, 0, 64, 87
1, 816688, Note_off_c, 0, 71, 59
1, 816701, Control_c, 0, 64, 88
1, 816715, Control_c, 0, 64, 90
1, 816730, Control_c, 0, 64, 91
1, 816745, Control_c, 0, 64, 92
1, 816818, Note_on_c, 0, 81, 103
1, 816818, Note_on_c, 0, 83, 104
1, 816818, Note_on_c, 0, 95, 105
1, 816819, Note_on_c, 0, 93, 99
1, 816819, Control_c, 0, 64, 93
1, 816841, Control_c, 0, 64, 94
1, 816856, Control_c, 0, 64, 95
1, 816857, Note_off_c, 0, 83, 64
1, 816857, Note_off_c, 0, 81, 67
1, 816871, Control_c, 0, 64, 95
1, 816885, Note_off_c, 0, 93, 59
1, 816886, Control_c, 0, 64, 96
1, 816887, Note_off_c, 0, 95, 64
1, 816925, Note_on_c, 0, 82, 110
1, 816932, Note_on_c, 0, 70, 103
1, 816953, Note_off_c, 0, 82, 69
1, 816955, Note_off_c, 0, 70, 64
1, 816978, Note_on_c, 0, 73, 11
1, 817004, Control_c, 0, 64, 98
1, 817018, Note_on_c, 0, 95, 89
1, 817022, Note_on_c, 0, 93, 93
1, 817024, Note_off_c, 0, 73, 40
1, 817025, Note_on_c, 0, 81, 91
1, 817025, Note_on_c, 0, 83, 88
1, 817049, Control_c, 0, 64, 84
1, 817050, Note_off_c, 0, 83, 58
1, 817061, Note_off_c, 0, 95, 66
1, 817062, Note_off_c, 0, 81, 60
1, 817064, Control_c, 0, 64, 67
1, 817068, Note_off_c, 0, 93, 64
1, 817079, Control_c, 0, 64, 53
1, 817094, Control_c, 0, 64, 49
1, 817108, Control_c, 0, 64, 51
1, 817123, Control_c, 0, 64, 58
1, 817126, Note_on_c, 0, 69, 106
1, 817131, Note_on_c, 0, 57, 94
1, 817134, Note_on_c, 0, 55, 98
1, 817134, Note_on_c, 0, 71, 94
1, 817134, Note_on_c, 0, 67, 97
1, 817138, Control_c, 0, 64, 65
1, 817150, Note_off_c, 0, 67, 74
1, 817153, Note_off_c, 0, 55, 69
1, 817153, Control_c, 0, 64, 74
1, 817168, Control_c, 0, 64, 85
1, 817182, Control_c, 0, 64, 92
1, 817197, Control_c, 0, 64, 94
1, 817212, Control_c, 0, 64, 94
1, 817213, Note_off_c, 0, 71, 58
1, 817224, Note_off_c, 0, 57, 61
1, 817225, Note_on_c, 0, 82, 96
1, 817226, Note_on_c, 0, 70, 101
1, 817227, Control_c, 0, 64, 95
1, 817228, Note_off_c, 0, 69, 62
1, 817241, Control_c, 0, 64, 99
1, 817256, Control_c, 0, 64, 111
1, 817268, Note_on_c, 0, 80, 29
1, 817271, Note_off_c, 0, 70, 65
1, 817271, Control_c, 0, 64, 127
1, 817292, Note_off_c, 0, 82, 60
1, 817301, Note_off_c, 0, 80, 47
1, 817316, Control_c, 0, 64, 88
1, 817319, Note_on_c, 0, 58, 101
1, 817319, Note_on_c, 0, 70, 108
1, 817331, Control_c, 0, 64, 52
1, 817340, Note_off_c, 0, 70, 65
1, 817343, Note_on_c, 0, 61, 55
1, 817343, Note_off_c, 0, 61, 127
1, 817346, Control_c, 0, 64, 0
1, 817357, Note_off_c, 0, 58, 63
1, 817421, Note_on_c, 0, 69, 92
1, 817421, Note_on_c, 0, 81, 77
1, 817429, Note_on_c, 0, 83, 73
1, 817431, Note_on_c, 0, 71, 78
1, 817431, Note_on_c, 0, 80, 67
1, 817442, Note_off_c, 0, 81, 67
1, 817444, Note_off_c, 0, 69, 62
1, 817445, Note_off_c, 0, 83, 67
1, 817447, Note_off_c, 0, 71, 68
1, 817450, Note_off_c, 0, 80, 59
1, 817459, Note_on_c, 0, 79, 23
1, 817499, Note_off_c, 0, 79, 35
1, 817513, Note_on_c, 0, 57, 102
1, 817516, Note_on_c, 0, 45, 99
1, 817516, Note_on_c, 0, 59, 100
1, 817527, Note_on_c, 0, 47, 81
1, 817533, Note_on_c, 0, 55, 70
1, 817539, Control_c, 0, 64, 50
1, 817551, Note_on_c, 0, 46, 36
1, 817554, Control_c, 0, 64, 74
1, 817557, Note_off_c, 0, 55, 63
1, 817563, Note_on_c, 0, 49, 10
1, 817563, Note_off_c, 0, 49, 127
1, 817569, Control_c, 0, 64, 83
1, 817574, Note_off_c, 0, 47, 0
1, 817591, Control_c, 0, 64, 89
1, 817594, Note_off_c, 0, 46, 53
1, 817606, Control_c, 0, 64, 92
1, 817614, Note_on_c, 0, 58, 103
1, 817614, Note_on_c, 0, 70, 95
1, 817618, Poly_aftertouch_c, 0, 49, 0
1, 817618, Poly_aftertouch_c, 0, 47, 127
1, 817620, Control_c, 0, 64, 99
1, 817632, Note_off_c, 0, 45, 63
1, 817635, Control_c, 0, 64, 107
1, 817638, Note_off_c, 0, 59, 62
1, 817640, Note_off_c, 0, 57, 62
1, 817650, Control_c, 0, 64, 127
1, 817661, Poly_aftertouch_c, 0, 47, 0
1, 817668, Note_off_c, 0, 58, 57
1, 817697, Note_off_c, 0, 70, 60
1, 817721, Note_on_c, 0, 46, 103
1, 817723, Note_on_c, 0, 58, 105
1, 817724, Control_c, 0, 64, 71
1, 817739, Control_c, 0, 64, 0
1, 817742, Note_off_c, 0, 58, 70
1, 817762, Note_off_c, 0, 46, 62
1, 817815, Note_on_c, 0, 71, 92
1, 817818, Note_on_c, 0, 57, 90
1, 817820, Note_on_c, 0, 59, 85
1, 817826, Note_on_c, 0, 68, 70
1, 817826, Note_on_c, 0, 69, 79
1, 817841, Note_off_c, 0, 59, 71
1, 817842, Note_off_c, 0, 57, 70
1, 817846, Note_off_c, 0, 71, 61
1, 817847, Note_off_c, 0, 68, 61
1, 817848, Note_off_c, 0, 69, 69
1, 817919, Note_on_c, 0, 33, 104
1, 817920, Note_on_c, 0, 47, 110
1, 817921, Note_on_c, 0, 45, 106
1, 817927, Note_on_c, 0, 35, 93
1, 817931, Control_c, 0, 64, 29
1, 817946, Control_c, 0, 64, 71
1, 817955, Note_on_c, 0, 34, 41
1, 817956, Note_on_c, 0, 37, 35
1, 817956, Note_off_c, 0, 37, 127
1, 817961, Control_c, 0, 64, 84
1, 817984, Note_off_c, 0, 34, 59
1, 817997, Poly_aftertouch_c, 0, 37, 0
1, 818005, Control_c, 0, 64, 86
1, 818016, Note_on_c, 0, 58, 95
1, 818019, Note_on_c, 0, 46, 96
1, 818020, Control_c, 0, 64, 91
1, 818030, Note_off_c, 0, 35, 47
1, 818035, Control_c, 0, 64, 104
1, 818041, Note_off_c, 0, 47, 56
1, 818044, Note_off_c, 0, 33, 60
1, 818044, Note_off_c, 0, 45, 56
1, 818049, Note_on_c, 0, 56, 50
1, 818050, Control_c, 0, 64, 127
1, 818076, Note_off_c, 0, 46, 61
1, 818076, Note_off_c, 0, 56, 55
1, 818109, Control_c, 0, 64, 71
1, 818124, Control_c, 0, 64, 0
1, 818128, Note_off_c, 0, 58, 57
1, 818135, Note_on_c, 0, 34, 105
1, 818135, Note_on_c, 0, 46, 92
1, 818141, Note_on_c, 0, 44, 89
1, 818152, Note_on_c, 0, 33, 77
1, 818153, Note_off_c, 0, 46, 72
1, 818153, Control_c, 0, 66, 0
1, 818157, Note_off_c, 0, 44, 69
1, 818172, Note_off_c, 0, 34, 51
1, 818174, Note_off_c, 0, 33, 63
1, 818213, Note_on_c, 0, 47, 89
1, 818213, Note_on_c, 0, 59, 95
1, 818219, Note_on_c, 0, 57, 78
1, 818220, Note_on_c, 0, 48, 89
1, 818237, Note_on_c, 0, 56, 31
1, 818249, Note_off_c, 0, 48, 65
1, 818252, Note_off_c, 0, 47, 64
1, 818264, Note_off_c, 0, 57, 54
1, 818276, Note_off_c, 0, 56, 50
1, 818276, Note_off_c, 0, 59, 61
1, 818405, Note_on_c, 0, 22, 106
1, 818407, Note_on_c, 0, 34, 110
1, 818414, Control_c, 0, 66, 127
1, 818441, Note_on_c, 0, 21, 43
1, 818452, Note_off_c, 0, 22, 64
1, 818470, Note_off_c, 0, 34, 65
1, 818484, Note_off_c, 0, 21, 48
1, 818597, Note_on_c, 0, 39, 98
1, 818664, Note_off_c, 0, 39, 65
1, 818732, Note_on_c, 0, 42, 88
1, 818807, Note_off_c, 0, 42, 64
1, 818842, Note_on_c, 0, 46, 94
1, 818893, Note_off_c, 0, 46, 64
1, 818961, Note_on_c, 0, 50, 106
1, 819071, Note_on_c, 0, 75, 93
1, 819118, Control_c, 0, 64, 29
1, 819131, Note_off_c, 0, 50, 61
1, 819133, Control_c, 0, 64, 35
1, 819143, Note_off_c, 0, 75, 65
1, 819148, Control_c, 0, 64, 41
1, 819163, Control_c, 0, 64, 45
1, 819178, Control_c, 0, 64, 46
1, 819192, Control_c, 0, 64, 42
1, 819193, Note_on_c, 0, 78, 96
1, 819207, Control_c, 0, 64, 0
1, 819247, Note_off_c, 0, 78, 62
1, 819289, Note_on_c, 0, 53, 89
1, 819297, Note_on_c, 0, 82, 100
1, 819311, Note_on_c, 0, 55, 50
1, 819311, Note_off_c, 0, 55, 127
1, 819325, Control_c, 0, 64, 44
1, 819340, Control_c, 0, 64, 58
1, 819346, Note_off_c, 0, 53, 65
1, 819355, Control_c, 0, 64, 60
1, 819370, Control_c, 0, 64, 61
1, 819385, Control_c, 0, 64, 62
1, 819396, Note_on_c, 0, 69, 102
1, 819399, Control_c, 0, 64, 62
1, 819409, Note_on_c, 0, 86, 90
1, 819414, Control_c, 0, 64, 63
1, 819427, Note_off_c, 0, 69, 70
1, 819489, Control_c, 0, 64, 63
1, 819512, Note_on_c, 0, 72, 84
1, 819522, Note_off_c, 0, 86, 63
1, 819529, Note_on_c, 0, 54, 82
1, 819534, Note_on_c, 0, 74, 56
1, 819547, Note_off_c, 0, 72, 67
1, 819548, Control_c, 0, 64, 64
1, 819551, Note_on_c, 0, 55, 59
1, 819557, Note_off_c, 0, 54, 63
1, 819557, Note_off_c, 0, 74, 38
1, 819563, Control_c, 0, 64, 64
1, 819577, Control_c, 0, 64, 66
1, 819578, Note_off_c, 0, 55, 58
1, 819586, Note_off_c, 0, 82, 59
1, 819592, Control_c, 0, 64, 67
1, 819607, Control_c, 0, 64, 70
1, 819622, Control_c, 0, 64, 72
1, 819623, Note_on_c, 0, 51, 83
1, 819636, Control_c, 0, 64, 73
1, 819639, Note_on_c, 0, 76, 76
1, 819644, Note_on_c, 0, 77, 74
1, 819650, Note_on_c, 0, 78, 51
1, 819666, Control_c, 0, 64, 70
1, 819668, Note_off_c, 0, 77, 71
1, 819670, Note_off_c, 0, 76, 65
1, 819677, Note_off_c, 0, 78, 53
1, 819681, Control_c, 0, 64, 60
1, 819696, Control_c, 0, 64, 31
1, 819701, Note_off_c, 0, 51, 57
1, 819710, Control_c, 0, 64, 0
1, 819723, Note_on_c, 0, 89, 92
1, 819727, Note_on_c, 0, 46, 86
1, 819729, Note_on_c, 0, 78, 98
1, 819739, Note_on_c, 0, 80, 84
1, 819757, Note_off_c, 0, 80, 73
1, 819770, Control_c, 0, 64, 45
1, 819772, Note_on_c, 0, 49, 35
1, 819784, Note_off_c, 0, 89, 60
1, 819784, Control_c, 0, 64, 57
1, 819800, Control_c, 0, 64, 61
1, 819809, Note_off_c, 0, 49, 44
1, 819812, Note_off_c, 0, 46, 62
1, 819815, Control_c, 0, 64, 62
1, 819838, Control_c, 0, 64, 63
1, 819852, Note_on_c, 0, 50, 85
1, 819853, Control_c, 0, 64, 64
1, 819858, Note_on_c, 0, 82, 96
1, 819867, Control_c, 0, 64, 66
1, 819882, Control_c, 0, 64, 69
1, 819883, Note_off_c, 0, 78, 60
1, 819897, Control_c, 0, 64, 72
1, 819912, Control_c, 0, 64, 74
1, 819925, Note_off_c, 0, 82, 62
1, 819927, Control_c, 0, 64, 75
1, 819933, Note_off_c, 0, 50, 64
1, 819941, Control_c, 0, 64, 75
1, 819965, Note_on_c, 0, 90, 100
1, 819976, Note_on_c, 0, 45, 99
1, 820015, Control_c, 0, 64, 73
1, 820022, Note_off_c, 0, 90, 69
1, 820030, Control_c, 0, 64, 63
1, 820031, Note_on_c, 0, 85, 19
1, 820045, Control_c, 0, 64, 34
1, 820052, Note_off_c, 0, 85, 34
1, 820059, Control_c, 0, 64, 0
1, 820078, Note_on_c, 0, 83, 95
1, 820084, Note_on_c, 0, 87, 87
1, 820089, Note_on_c, 0, 51, 95
1, 820093, Note_on_c, 0, 84, 65
1, 820113, Note_off_c, 0, 84, 45
1, 820123, Note_on_c, 0, 88, 46
1, 820145, Note_off_c, 0, 45, 61
1, 820148, Control_c, 0, 64, 55
1, 820152, Note_off_c, 0, 88, 35
1, 820163, Control_c, 0, 64, 61
1, 820178, Control_c, 0, 64, 62
1, 820179, Note_off_c, 0, 51, 62
1, 820183, Note_off_c, 0, 87, 57
1, 820193, Control_c, 0, 64, 64
1, 820201, Note_on_c, 0, 54, 95
1, 820202, Note_on_c, 0, 82, 98
1, 820205, Note_on_c, 0, 78, 96
1, 820207, Note_off_c, 0, 83, 59
1, 820207, Control_c, 0, 64, 67
1, 820222, Control_c, 0, 64, 73
1, 820237, Control_c, 0, 64, 80
1, 820252, Control_c, 0, 64, 89
1, 820256, Note_off_c, 0, 54, 63
1, 820267, Control_c, 0, 64, 93
1, 820281, Note_off_c, 0, 78, 58
1, 820282, Control_c, 0, 64, 94
1, 820283, Note_on_c, 0, 42, 87
1, 820297, Control_c, 0, 64, 93
1, 820300, Note_off_c, 0, 82, 59
1, 820312, Control_c, 0, 64, 83
1, 820326, Control_c, 0, 64, 64
1, 820341, Control_c, 0, 64, 0
1, 820342, Note_on_c, 0, 86, 92
1, 820345, Note_on_c, 0, 75, 104
1, 820350, Note_on_c, 0, 57, 98
1, 820351, Note_on_c, 0, 49, 32
1, 820362, Note_on_c, 0, 44, 32
1, 820389, Note_off_c, 0, 49, 42
1, 820400, Control_c, 0, 64, 50
1, 820409, Note_off_c, 0, 44, 47
1, 820415, Control_c, 0, 64, 63
1, 820428, Note_off_c, 0, 75, 62
1, 820430, Control_c, 0, 64, 67
1, 820431, Note_off_c, 0, 86, 60
1, 820445, Control_c, 0, 64, 68
1, 820457, Note_off_c, 0, 57, 58
1, 820459, Control_c, 0, 64, 69
1, 820474, Control_c, 0, 64, 70
1, 820489, Control_c, 0, 64, 73
1, 820493, Note_on_c, 0, 81, 84
1, 820494, Note_on_c, 0, 77, 102
1, 820504, Control_c, 0, 64, 76
1, 820518, Poly_aftertouch_c, 0, 78, 127
1, 820519, Control_c, 0, 64, 82
1, 820533, Control_c, 0, 64, 89
1, 820535, Note_off_c, 0, 42, 63
1, 820548, Control_c, 0, 64, 98
1, 820557, Poly_aftertouch_c, 0, 78, 0
1, 820561, Note_off_c, 0, 81, 66
1, 820562, Note_off_c, 0, 77, 63
1, 820563, Control_c, 0, 64, 107
1, 820585, Control_c, 0, 64, 112
1, 820600, Control_c, 0, 64, 114
1, 820645, Control_c, 0, 64, 104
1, 820660, Control_c, 0, 64, 73
1, 820673, Note_on_c, 0, 78, 95
1, 820675, Control_c, 0, 64, 40
1, 820676, Note_on_c, 0, 39, 106
1, 820680, Note_on_c, 0, 70, 98
1, 820690, Control_c, 0, 64, 0
1, 820701, Note_on_c, 0, 38, 72
1, 820741, Note_off_c, 0, 38, 47
1, 820763, Control_c, 0, 64, 59
1, 820768, Note_off_c, 0, 39, 60
1, 820778, Control_c, 0, 64, 68
1, 820787, Note_off_c, 0, 78, 55
1, 820793, Control_c, 0, 64, 70
1, 820808, Control_c, 0, 64, 71
1, 820823, Control_c, 0, 64, 72
1, 820837, Control_c, 0, 64, 73
1, 820852, Control_c, 0, 64, 74
1, 820867, Control_c, 0, 64, 75
1, 820881, Control_c, 0, 64, 76
1, 820893, Note_off_c, 0, 70, 62
1, 820896, Control_c, 0, 64, 79
1, 820908, Note_on_c, 0, 58, 112
1, 820909, Note_on_c, 0, 66, 108
1, 820909, Note_on_c, 0, 75, 105
1, 820910, Note_on_c, 0, 46, 98
1, 820911, Control_c, 0, 64, 87
1, 820926, Note_off_c, 0, 58, 71
1, 820926, Control_c, 0, 64, 109
1, 820932, Note_off_c, 0, 46, 70
1, 820941, Control_c, 0, 64, 127
1, 820950, Note_off_c, 0, 66, 67
1, 820950, Note_off_c, 0, 75, 70
1, 821003, Poly_aftertouch_c, 0, 70, 0
1, 821015, Control_c, 0, 66, 0
1, 821311, Control_c, 0, 64, 74
1, 821316, Note_on_c, 0, 47, 108
1, 821316, Note_on_c, 0, 59, 103
1, 821319, Note_on_c, 0, 22, 102
1, 821319, Note_on_c, 0, 34, 120
1, 821334, Control_c, 0, 64, 33
1, 821349, Control_c, 0, 64, 0
1, 821355, Note_on_c, 0, 25, 48
1, 821355, Note_off_c, 0, 25, 127
1, 821363, Control_c, 0, 66, 127
1, 821412, Note_on_c, 0, 35, 6
1, 821417, Poly_aftertouch_c, 0, 23, 127
1, 821431, Note_off_c, 0, 47, 63
1, 821444, Note_off_c, 0, 35, 28
1, 821453, Poly_aftertouch_c, 0, 23, 0
1, 821468, Control_c, 0, 64, 42
1, 821480, Note_off_c, 0, 59, 68
1, 821483, Control_c, 0, 64, 64
1, 821498, Control_c, 0, 64, 76
1, 821512, Note_off_c, 0, 22, 60
1, 821512, Control_c, 0, 64, 87
1, 821527, Control_c, 0, 64, 91
1, 821542, Control_c, 0, 64, 92
1, 821557, Control_c, 0, 64, 92
1, 821558, Note_off_c, 0, 34, 60
1, 821563, Poly_aftertouch_c, 0, 35, 127
1, 821600, Poly_aftertouch_c, 0, 35, 0
1, 821653, Note_on_c, 0, 87, 102
1, 821690, Control_c, 0, 64, 93
1, 821733, Note_off_c, 0, 87, 64
1, 821734, Control_c, 0, 64, 94
1, 821749, Control_c, 0, 64, 94
1, 821764, Control_c, 0, 64, 95
1, 821780, Note_on_c, 0, 89, 98
1, 821808, Control_c, 0, 64, 95
1, 821827, Note_off_c, 0, 89, 65
1, 821853, Control_c, 0, 64, 97
1, 821883, Note_on_c, 0, 90, 101
1, 821927, Control_c, 0, 64, 86
1, 821927, Note_off_c, 0, 90, 67
1, 821942, Control_c, 0, 64, 76
1, 821957, Control_c, 0, 64, 69
1, 821971, Control_c, 0, 64, 68
1, 821996, Note_on_c, 0, 92, 78
1, 821998, Note_on_c, 0, 91, 98
1, 822001, Control_c, 0, 64, 69
1, 822002, Note_on_c, 0, 90, 80
1, 822016, Control_c, 0, 64, 71
1, 822030, Control_c, 0, 64, 73
1, 822045, Control_c, 0, 64, 74
1, 822082, Control_c, 0, 64, 75
1, 822085, Note_on_c, 0, 75, 84
1, 822094, Note_off_c, 0, 91, 59
1, 822097, Note_off_c, 0, 92, 65
1, 822097, Control_c, 0, 64, 76
1, 822102, Note_off_c, 0, 90, 53
1, 822103, Note_on_c, 0, 82, 85
1, 822112, Control_c, 0, 64, 79
1, 822127, Control_c, 0, 64, 80
1, 822142, Control_c, 0, 64, 81
1, 822151, Note_off_c, 0, 75, 57
1, 822156, Control_c, 0, 64, 81
1, 822165, Note_off_c, 0, 82, 58
1, 822171, Control_c, 0, 64, 82
1, 822191, Note_on_c, 0, 77, 81
1, 822204, Note_on_c, 0, 87, 87
1, 822216, Control_c, 0, 64, 81
1, 822231, Control_c, 0, 64, 72
1, 822246, Note_off_c, 0, 87, 67
1, 822246, Control_c, 0, 64, 54
1, 822260, Control_c, 0, 64, 0
1, 822271, Note_off_c, 0, 77, 64
1, 822291, Note_on_c, 0, 95, 111
1, 822293, Note_on_c, 0, 78, 87
1, 822320, Control_c, 0, 64, 43
1, 822334, Control_c, 0, 64, 59
1, 822349, Control_c, 0, 64, 66
1, 822356, Note_off_c, 0, 78, 63
1, 822364, Control_c, 0, 64, 69
1, 822379, Control_c, 0, 64, 70
1, 822389, Note_on_c, 0, 80, 88
1, 822394, Control_c, 0, 64, 71
1, 822408, Control_c, 0, 64, 73
1, 822423, Control_c, 0, 64, 74
1, 822425, Note_off_c, 0, 95, 62
1, 822438, Control_c, 0, 64, 77
1, 822443, Note_off_c, 0, 80, 64
1, 822452, Control_c, 0, 64, 80
1, 822467, Control_c, 0, 64, 86
1, 822482, Control_c, 0, 64, 91
1, 822489, Note_on_c, 0, 85, 85
1, 822490, Note_on_c, 0, 70, 84
1, 822497, Control_c, 0, 64, 93
1, 822526, Control_c, 0, 64, 93
1, 822541, Control_c, 0, 64, 87
1, 822542, Note_off_c, 0, 85, 64
1, 822556, Control_c, 0, 64, 72
1, 822571, Control_c, 0, 64, 56
1, 822577, Note_off_c, 0, 70, 63
1, 822580, Note_on_c, 0, 75, 88
1, 822584, Note_on_c, 0, 94, 91
1, 822586, Control_c, 0, 64, 40
1, 822601, Control_c, 0, 64, 44
1, 822616, Control_c, 0, 64, 54
1, 822631, Control_c, 0, 64, 62
1, 822645, Control_c, 0, 64, 67
1, 822660, Control_c, 0, 64, 70
1, 822665, Note_off_c, 0, 75, 63
1, 822675, Control_c, 0, 64, 72
1, 822678, Note_off_c, 0, 94, 63
1, 822681, Note_on_c, 0, 83, 98
1, 822684, Note_on_c, 0, 89, 77
1, 822719, Note_on_c, 0, 88, 43
1, 822719, Note_off_c, 0, 88, 127
1, 822739, Note_off_c, 0, 83, 66
1, 822764, Control_c, 0, 64, 73
1, 822786, Note_on_c, 0, 90, 85
1, 822808, Control_c, 0, 64, 73
1, 822828, Note_off_c, 0, 89, 61
1, 822845, Control_c, 0, 64, 74
1, 822857, Note_off_c, 0, 90, 65
1, 822860, Control_c, 0, 64, 75
1, 822875, Control_c, 0, 64, 76
1, 822875, Note_on_c, 0, 73, 78
1, 822883, Note_on_c, 0, 80, 92
1, 822905, Control_c, 0, 64, 77
1, 822928, Note_off_c, 0, 80, 66
1, 822963, Note_off_c, 0, 73, 54
1, 822964, Control_c, 0, 64, 76
1, 822978, Control_c, 0, 64, 75
1, 822979, Note_on_c, 0, 82, 87
1, 822985, Note_on_c, 0, 85, 93
1, 822993, Control_c, 0, 64, 74
1, 823009, Control_c, 0, 64, 73
1, 823024, Control_c, 0, 64, 71
1, 823032, Note_off_c, 0, 85, 66
1, 823034, Note_off_c, 0, 82, 62
1, 823039, Control_c, 0, 64, 69
1, 823054, Control_c, 0, 64, 68
1, 823069, Control_c, 0, 64, 68
1, 823079, Note_on_c, 0, 94, 105
1, 823084, Note_on_c, 0, 77, 86
1, 823100, Note_on_c, 0, 95, 77
1, 823102, Poly_aftertouch_c, 0, 86, 0
1, 823132, Note_off_c, 0, 95, 0
1, 823147, Note_on_c, 0, 95, 41
1, 823167, Note_off_c, 0, 77, 60
1, 823178, Note_on_c, 0, 78, 91
1, 823188, Note_off_c, 0, 95, 48
1, 823201, Control_c, 0, 64, 68
1, 823216, Control_c, 0, 64, 69
1, 823221, Note_off_c, 0, 78, 63
1, 823222, Note_off_c, 0, 94, 62
1, 823231, Control_c, 0, 64, 70
1, 823246, Control_c, 0, 64, 71
1, 823263, Note_on_c, 0, 83, 79
1, 823277, Note_on_c, 0, 68, 88
1, 823305, Control_c, 0, 64, 68
1, 823320, Control_c, 0, 64, 61
1, 823326, Note_off_c, 0, 83, 64
1, 823335, Control_c, 0, 64, 52
1, 823349, Control_c, 0, 64, 50
1, 823358, Note_on_c, 0, 92, 92
1, 823361, Note_off_c, 0, 68, 54
1, 823364, Control_c, 0, 64, 53
1, 823373, Note_on_c, 0, 73, 88
1, 823379, Control_c, 0, 64, 57
1, 823394, Control_c, 0, 64, 60
1, 823409, Control_c, 0, 64, 63
1, 823424, Control_c, 0, 64, 64
1, 823431, Note_off_c, 0, 73, 65
1, 823439, Control_c, 0, 64, 64
1, 823458, Note_on_c, 0, 87, 83
1, 823475, Note_on_c, 0, 82, 95
1, 823486, Note_off_c, 0, 92, 60
1, 823513, Control_c, 0, 64, 64
1, 823524, Note_off_c, 0, 82, 63
1, 823534, Note_off_c, 0, 87, 65
1, 823561, Note_on_c, 0, 89, 86
1, 823594, Control_c, 0, 64, 63
1, 823623, Control_c, 0, 64, 62
1, 823627, Note_off_c, 0, 89, 67
1, 823652, Note_on_c, 0, 71, 68
1, 823653, Control_c, 0, 64, 62
1, 823662, Note_on_c, 0, 78, 93
1, 823708, Note_off_c, 0, 78, 62
1, 823738, Note_off_c, 0, 71, 62
1, 823758, Note_on_c, 0, 83, 97
1, 823761, Note_on_c, 0, 80, 95
1, 823803, Control_c, 0, 64, 61
1, 823818, Control_c, 0, 64, 61
1, 823820, Note_off_c, 0, 83, 61
1, 823832, Control_c, 0, 64, 60
1, 823843, Note_off_c, 0, 80, 61
1, 823847, Control_c, 0, 64, 61
1, 823848, Note_on_c, 0, 75, 76
1, 823862, Control_c, 0, 64, 62
1, 823867, Note_on_c, 0, 92, 101
1, 823877, Control_c, 0, 64, 64
1, 823892, Control_c, 0, 64, 65
1, 823907, Control_c, 0, 64, 66
1, 823909, Note_off_c, 0, 75, 64
1, 823945, Note_on_c, 0, 77, 94
1, 823957, Note_off_c, 0, 92, 65
1, 823960, Note_on_c, 0, 82, 89
1, 824001, Note_off_c, 0, 77, 65
1, 824003, Note_off_c, 0, 82, 64
1, 824011, Control_c, 0, 64, 66
1, 824040, Control_c, 0, 64, 65
1, 824055, Control_c, 0, 64, 64
1, 824059, Note_on_c, 0, 90, 95
1, 824068, Note_on_c, 0, 68, 58
1, 824070, Control_c, 0, 64, 63
1, 824081, Note_on_c, 0, 67, 66
1, 824085, Control_c, 0, 64, 63
1, 824099, Control_c, 0, 64, 62
1, 824106, Note_off_c, 0, 68, 49
1, 824110, Note_off_c, 0, 67, 64
1, 824114, Control_c, 0, 64, 62
1, 824152, Note_on_c, 0, 87, 85
1, 824156, Note_on_c, 0, 71, 75
1, 824214, Note_off_c, 0, 90, 57
1, 824214, Note_off_c, 0, 71, 63
1, 824243, Note_off_c, 0, 87, 56
1, 824247, Note_on_c, 0, 77, 89
1, 824247, Control_c, 0, 64, 62
1, 824255, Note_on_c, 0, 80, 95
1, 824262, Control_c, 0, 64, 63
1, 824277, Control_c, 0, 64, 64
1, 824299, Note_off_c, 0, 80, 67
1, 824310, Note_off_c, 0, 77, 64
1, 824351, Note_on_c, 0, 78, 72
1, 824351, Note_on_c, 0, 82, 96
1, 824359, Control_c, 0, 64, 64
1, 824373, Control_c, 0, 64, 65
1, 824388, Control_c, 0, 64, 66
1, 824391, Note_off_c, 0, 78, 65
1, 824403, Control_c, 0, 64, 66
1, 824432, Control_c, 0, 64, 66
1, 824446, Note_on_c, 0, 90, 90
1, 824447, Control_c, 0, 64, 65
1, 824449, Note_off_c, 0, 82, 54
1, 824459, Note_on_c, 0, 69, 91
1, 824462, Control_c, 0, 64, 64
1, 824477, Control_c, 0, 64, 63
1, 824492, Control_c, 0, 64, 61
1, 824503, Note_off_c, 0, 90, 69
1, 824506, Control_c, 0, 64, 58
1, 824514, Note_off_c, 0, 69, 64
1, 824521, Control_c, 0, 64, 54
1, 824536, Control_c, 0, 64, 48
1, 824550, Note_on_c, 0, 81, 89
1, 824550, Control_c, 0, 64, 43
1, 824556, Note_on_c, 0, 70, 93
1, 824565, Control_c, 0, 64, 41
1, 824596, Control_c, 0, 64, 42
1, 824611, Control_c, 0, 64, 45
1, 824612, Note_off_c, 0, 81, 66
1, 824623, Note_off_c, 0, 70, 64
1, 824626, Control_c, 0, 64, 50
1, 824640, Control_c, 0, 64, 56
1, 824655, Control_c, 0, 64, 60
1, 824657, Note_on_c, 0, 71, 98
1, 824657, Note_on_c, 0, 89, 84
1, 824670, Control_c, 0, 64, 62
1, 824685, Control_c, 0, 64, 64
1, 824700, Control_c, 0, 64, 65
1, 824714, Control_c, 0, 64, 67
1, 824720, Note_off_c, 0, 89, 61
1, 824729, Control_c, 0, 64, 68
1, 824732, Note_off_c, 0, 71, 61
1, 824744, Control_c, 0, 64, 69
1, 824759, Note_on_c, 0, 73, 100
1, 824759, Control_c, 0, 64, 70
1, 824764, Note_on_c, 0, 80, 92
1, 824774, Control_c, 0, 64, 71
1, 824789, Control_c, 0, 64, 72
1, 824804, Control_c, 0, 64, 73
1, 824818, Note_off_c, 0, 73, 63
1, 824818, Note_off_c, 0, 80, 64
1, 824834, Control_c, 0, 64, 73
1, 824858, Note_on_c, 0, 75, 98
1, 824863, Control_c, 0, 64, 74
1, 824867, Note_on_c, 0, 88, 92
1, 824878, Control_c, 0, 64, 76
1, 824893, Control_c, 0, 64, 78
1, 824893, Note_off_c, 0, 75, 70
1, 824908, Control_c, 0, 64, 79
1, 824920, Note_off_c, 0, 88, 65
1, 824922, Control_c, 0, 64, 80
1, 824937, Control_c, 0, 64, 81
1, 824967, Control_c, 0, 64, 82
1, 824974, Note_on_c, 0, 76, 97
1, 825081, Note_on_c, 0, 78, 97
1, 825094, Note_off_c, 0, 76, 61
1, 825138, Control_c, 0, 64, 80
1, 825153, Control_c, 0, 64, 68
1, 825167, Control_c, 0, 64, 52
1, 825182, Control_c, 0, 64, 0
1, 825198, Note_on_c, 0, 34, 84
1, 825200, Note_on_c, 0, 22, 74
1, 825203, Note_off_c, 0, 78, 60
1, 825222, Note_off_c, 0, 22, 63
1, 825227, Control_c, 0, 64, 41
1, 825239, Note_off_c, 0, 34, 62
1, 825242, Control_c, 0, 64, 55
1, 825256, Control_c, 0, 64, 63
1, 825260, Note_on_c, 0, 80, 99
1, 825271, Control_c, 0, 64, 66
1, 825286, Control_c, 0, 64, 68
1, 825301, Control_c, 0, 64, 69
1, 825316, Control_c, 0, 64, 69
1, 825389, Note_on_c, 0, 70, 90
1, 825389, Control_c, 0, 64, 70
1, 825403, Note_on_c, 0, 63, 77
1, 825405, Control_c, 0, 64, 70
1, 825410, Note_off_c, 0, 80, 56
1, 825420, Control_c, 0, 64, 71
1, 825450, Control_c, 0, 64, 71
1, 825463, Note_off_c, 0, 70, 61
1, 825472, Note_off_c, 0, 63, 55
1, 825492, Note_on_c, 0, 75, 89
1, 825501, Note_on_c, 0, 65, 76
1, 825509, Control_c, 0, 64, 69
1, 825524, Control_c, 0, 64, 64
1, 825531, Note_off_c, 0, 75, 67
1, 825538, Control_c, 0, 64, 57
1, 825553, Control_c, 0, 64, 53
1, 825564, Note_off_c, 0, 65, 62
1, 825568, Control_c, 0, 64, 55
1, 825579, Note_on_c, 0, 83, 105
1, 825583, Control_c, 0, 64, 59
1, 825585, Note_on_c, 0, 66, 79
1, 825597, Control_c, 0, 64, 63
1, 825612, Control_c, 0, 64, 66
1, 825627, Control_c, 0, 64, 69
1, 825642, Control_c, 0, 64, 71
1, 825646, Note_off_c, 0, 66, 63
1, 825657, Control_c, 0, 64, 72
1, 825671, Control_c, 0, 64, 73
1, 825681, Note_on_c, 0, 68, 81
1, 825686, Control_c, 0, 64, 73
1, 825716, Control_c, 0, 64, 74
1, 825731, Control_c, 0, 64, 75
1, 825738, Note_off_c, 0, 68, 61
1, 825739, Note_off_c, 0, 83, 61
1, 825746, Control_c, 0, 64, 76
1, 825761, Control_c, 0, 64, 78
1, 825776, Control_c, 0, 64, 80
1, 825777, Note_on_c, 0, 58, 83
1, 825780, Note_on_c, 0, 73, 87
1, 825790, Control_c, 0, 64, 81
1, 825805, Control_c, 0, 64, 82
1, 825856, Note_off_c, 0, 73, 60
1, 825857, Control_c, 0, 64, 80
1, 825871, Control_c, 0, 64, 68
1, 825883, Note_on_c, 0, 63, 88
1, 825883, Note_off_c, 0, 58, 62
1, 825886, Control_c, 0, 64, 52
1, 825892, Note_on_c, 0, 82, 87
1, 825901, Control_c, 0, 64, 30
1, 825916, Control_c, 0, 64, 0
1, 825931, Control_c, 0, 64, 31
1, 825945, Control_c, 0, 64, 42
1, 825960, Control_c, 0, 64, 54
1, 825975, Control_c, 0, 64, 61
1, 825986, Note_on_c, 0, 71, 98
1, 825990, Control_c, 0, 64, 64
1, 825993, Note_on_c, 0, 77, 80
1, 825993, Note_off_c, 0, 82, 60
1, 826004, Control_c, 0, 64, 65
1, 826010, Note_off_c, 0, 63, 56
1, 826019, Control_c, 0, 64, 65
1, 826063, Note_off_c, 0, 71, 61
1, 826078, Control_c, 0, 64, 66
1, 826092, Note_on_c, 0, 78, 86
1, 826093, Control_c, 0, 64, 66
1, 826108, Control_c, 0, 64, 67
1, 826122, Note_off_c, 0, 77, 61
1, 826123, Control_c, 0, 64, 67
1, 826138, Control_c, 0, 64, 68
1, 826152, Control_c, 0, 64, 69
1, 826167, Control_c, 0, 64, 70
1, 826173, Note_on_c, 0, 61, 79
1, 826182, Note_on_c, 0, 68, 83
1, 826182, Control_c, 0, 64, 71
1, 826189, Note_off_c, 0, 78, 43
1, 826213, Control_c, 0, 64, 70
1, 826227, Control_c, 0, 64, 67
1, 826242, Control_c, 0, 64, 60
1, 826246, Note_off_c, 0, 68, 62
1, 826257, Control_c, 0, 64, 54
1, 826267, Note_off_c, 0, 61, 59
1, 826279, Note_on_c, 0, 73, 85
1, 826287, Note_on_c, 0, 70, 84
1, 826287, Control_c, 0, 64, 55
1, 826301, Control_c, 0, 64, 58
1, 826316, Control_c, 0, 64, 60
1, 826331, Control_c, 0, 64, 62
1, 826346, Note_off_c, 0, 73, 60
1, 826346, Control_c, 0, 64, 62
1, 826351, Note_off_c, 0, 70, 62
1, 826361, Control_c, 0, 64, 63
1, 826375, Control_c, 0, 64, 63
1, 826378, Note_on_c, 0, 82, 94
1, 826384, Note_on_c, 0, 65, 72
1, 826390, Control_c, 0, 64, 64
1, 826419, Control_c, 0, 64, 64
1, 826464, Note_off_c, 0, 65, 61
1, 826479, Control_c, 0, 64, 65
1, 826485, Note_on_c, 0, 66, 88
1, 826524, Control_c, 0, 64, 65
1, 826539, Control_c, 0, 64, 66
1, 826554, Note_off_c, 0, 66, 62
1, 826554, Control_c, 0, 64, 67
1, 826557, Note_off_c, 0, 82, 60
1, 826575, Control_c, 0, 64, 68
1, 826578, Note_on_c, 0, 56, 91
1, 826589, Note_on_c, 0, 71, 81
1, 826590, Control_c, 0, 64, 68
1, 826619, Control_c, 0, 64, 68
1, 826634, Control_c, 0, 64, 64
1, 826649, Control_c, 0, 64, 55
1, 826664, Control_c, 0, 64, 44
1, 826676, Note_off_c, 0, 71, 61
1, 826678, Note_on_c, 0, 61, 89
1, 826679, Note_off_c, 0, 56, 61
1, 826679, Control_c, 0, 64, 39
1, 826694, Control_c, 0, 64, 41
1, 826696, Note_on_c, 0, 80, 80
1, 826709, Control_c, 0, 64, 48
1, 826724, Control_c, 0, 64, 56
1, 826738, Control_c, 0, 64, 62
1, 826753, Control_c, 0, 64, 64
1, 826762, Note_off_c, 0, 61, 64
1, 826768, Control_c, 0, 64, 65
1, 826783, Control_c, 0, 64, 66
1, 826786, Note_on_c, 0, 70, 92
1, 826789, Note_on_c, 0, 75, 83
1, 826819, Note_off_c, 0, 80, 59
1, 826855, Note_off_c, 0, 70, 62
1, 826884, Note_on_c, 0, 77, 84
1, 826887, Control_c, 0, 64, 66
1, 826920, Note_off_c, 0, 75, 58
1, 826932, Control_c, 0, 64, 66
1, 826946, Control_c, 0, 64, 65
1, 826948, Note_off_c, 0, 77, 62
1, 826950, Note_on_c, 0, 59, 67
1, 826961, Control_c, 0, 64, 62
1, 826972, Note_on_c, 0, 66, 90
1, 826976, Control_c, 0, 64, 58
1, 826992, Control_c, 0, 64, 53
1, 827007, Control_c, 0, 64, 50
1, 827042, Note_off_c, 0, 66, 63
1, 827051, Control_c, 0, 64, 51
1, 827066, Control_c, 0, 64, 54
1, 827068, Note_on_c, 0, 68, 86
1, 827077, Note_on_c, 0, 71, 90
1, 827081, Control_c, 0, 64, 57
1, 827089, Note_off_c, 0, 59, 60
1, 827096, Control_c, 0, 64, 60
1, 827111, Control_c, 0, 64, 60
1, 827148, Note_on_c, 0, 63, 80
1, 827155, Control_c, 0, 64, 61
1, 827161, Note_off_c, 0, 68, 62
1, 827164, Note_off_c, 0, 71, 58
1, 827168, Note_on_c, 0, 80, 90
1, 827184, Control_c, 0, 64, 62
1, 827209, Note_off_c, 0, 63, 62
1, 827214, Control_c, 0, 64, 62
1, 827256, Note_on_c, 0, 65, 88
1, 827256, Note_off_c, 0, 80, 63
1, 827261, Note_on_c, 0, 70, 85
1, 827273, Control_c, 0, 64, 62
1, 827303, Control_c, 0, 64, 61
1, 827309, Note_off_c, 0, 65, 64
1, 827310, Note_off_c, 0, 70, 66
1, 827325, Control_c, 0, 64, 61
1, 827340, Control_c, 0, 64, 60
1, 827355, Control_c, 0, 64, 60
1, 827364, Note_on_c, 0, 54, 82
1, 827364, Note_on_c, 0, 78, 92
1, 827369, Control_c, 0, 64, 59
1, 827384, Control_c, 0, 64, 58
1, 827399, Control_c, 0, 64, 56
1, 827414, Control_c, 0, 64, 51
1, 827429, Control_c, 0, 64, 43
1, 827443, Control_c, 0, 64, 0
1, 827460, Note_off_c, 0, 54, 62
1, 827463, Note_on_c, 0, 75, 84
1, 827464, Note_on_c, 0, 59, 80
1, 827499, Note_off_c, 0, 78, 55
1, 827534, Note_off_c, 0, 59, 63
1, 827560, Note_on_c, 0, 65, 84
1, 827562, Control_c, 0, 64, 42
1, 827565, Note_on_c, 0, 68, 88
1, 827576, Control_c, 0, 64, 49
1, 827577, Note_off_c, 0, 75, 59
1, 827591, Control_c, 0, 64, 54
1, 827606, Control_c, 0, 64, 58
1, 827615, Note_off_c, 0, 68, 62
1, 827621, Control_c, 0, 64, 59
1, 827633, Note_off_c, 0, 65, 57
1, 827636, Control_c, 0, 64, 60
1, 827651, Control_c, 0, 64, 61
1, 827655, Note_on_c, 0, 66, 93
1, 827662, Note_on_c, 0, 70, 92
1, 827665, Control_c, 0, 64, 62
1, 827695, Control_c, 0, 64, 62
1, 827699, Note_off_c, 0, 66, 68
1, 827710, Control_c, 0, 64, 57
1, 827725, Control_c, 0, 64, 44
1, 827740, Control_c, 0, 64, 0
1, 827755, Note_on_c, 0, 78, 90
1, 827758, Note_on_c, 0, 53, 91
1, 827758, Note_off_c, 0, 70, 59
1, 827806, Note_off_c, 0, 53, 64
1, 827818, Note_off_c, 0, 78, 63
1, 827856, Note_on_c, 0, 69, 85
1, 827857, Note_on_c, 0, 54, 88
1, 827874, Control_c, 0, 66, 0
1, 827905, Note_off_c, 0, 69, 63
1, 827920, Note_off_c, 0, 54, 59
1, 827949, Note_on_c, 0, 77, 92
1, 827949, Note_on_c, 0, 56, 101
1, 827987, Note_off_c, 0, 77, 65
1, 827995, Note_off_c, 0, 56, 65
1, 828049, Note_on_c, 0, 76, 94
1, 828056, Note_on_c, 0, 58, 98
1, 828104, Note_off_c, 0, 76, 65
1, 828105, Note_off_c, 0, 58, 65
1, 828158, Note_on_c, 0, 71, 100
1, 828167, Note_on_c, 0, 59, 93
1, 828199, Note_off_c, 0, 71, 64
1, 828205, Note_off_c, 0, 59, 69
1, 828266, Note_on_c, 0, 68, 98
1, 828271, Note_on_c, 0, 61, 95
1, 828309, Note_off_c, 0, 61, 67
1, 828318, Note_off_c, 0, 68, 62
1, 828374, Note_on_c, 0, 63, 106
1, 828383, Note_on_c, 0, 65, 90
1, 828405, Note_off_c, 0, 63, 71
1, 828500, Note_off_c, 0, 65, 60
1, 828525, Note_on_c, 0, 46, 94
1, 828529, Note_on_c, 0, 34, 95
1, 828631, Note_on_c, 0, 71, 92
1, 828633, Note_on_c, 0, 64, 91
1, 828634, Note_on_c, 0, 68, 87
1, 828682, Control_c, 0, 66, 127
1, 828763, Note_off_c, 0, 34, 59
1, 828774, Note_off_c, 0, 46, 56
1, 828848, Note_on_c, 0, 63, 91
1, 828852, Note_off_c, 0, 64, 64
1, 828962, Note_off_c, 0, 63, 62
1, 828987, Note_on_c, 0, 64, 86
1, 829023, Note_off_c, 0, 71, 59
1, 829049, Note_off_c, 0, 68, 55
1, 829119, Note_off_c, 0, 64, 62
1, 829122, Note_on_c, 0, 60, 88
1, 829239, Note_on_c, 0, 63, 84
1, 829242, Note_on_c, 0, 70, 83
1, 829242, Note_on_c, 0, 66, 81
1, 829243, Note_on_c, 0, 59, 94
1, 829246, Note_off_c, 0, 60, 64
1, 829354, Note_on_c, 0, 58, 85
1, 829359, Note_off_c, 0, 59, 62
1, 829386, Control_c, 0, 64, 29
1, 829401, Control_c, 0, 64, 38
1, 829416, Control_c, 0, 64, 48
1, 829431, Control_c, 0, 64, 56
1, 829440, Note_off_c, 0, 66, 61
1, 829445, Note_off_c, 0, 58, 61
1, 829445, Control_c, 0, 64, 59
1, 829447, Note_off_c, 0, 70, 59
1, 829452, Note_off_c, 0, 63, 60
1, 829453, Note_on_c, 0, 59, 91
1, 829460, Control_c, 0, 64, 60
1, 829475, Control_c, 0, 64, 61
1, 829490, Control_c, 0, 64, 61
1, 829505, Control_c, 0, 64, 62
1, 829520, Control_c, 0, 64, 62
1, 829546, Note_on_c, 0, 55, 87
1, 829549, Note_off_c, 0, 59, 56
1, 829549, Control_c, 0, 64, 63
1, 829586, Control_c, 0, 64, 62
1, 829601, Control_c, 0, 64, 57
1, 829616, Control_c, 0, 64, 43
1, 829631, Control_c, 0, 64, 0
1, 829641, Note_on_c, 0, 71, 90
1, 829643, Note_on_c, 0, 64, 93
1, 829644, Note_on_c, 0, 68, 86
1, 829646, Note_on_c, 0, 58, 99
1, 829661, Note_off_c, 0, 55, 64
1, 829690, Control_c, 0, 64, 28
1, 829705, Control_c, 0, 64, 39
1, 829719, Control_c, 0, 64, 48
1, 829734, Control_c, 0, 64, 53
1, 829749, Control_c, 0, 64, 56
1, 829755, Note_on_c, 0, 63, 83
1, 829763, Note_off_c, 0, 64, 61
1, 829764, Control_c, 0, 64, 56
1, 829809, Control_c, 0, 64, 57
1, 829813, Note_off_c, 0, 63, 60
1, 829838, Control_c, 0, 64, 57
1, 829856, Note_on_c, 0, 64, 87
1, 829868, Control_c, 0, 64, 58
1, 829883, Control_c, 0, 64, 58
1, 829893, Note_off_c, 0, 71, 54
1, 829898, Control_c, 0, 64, 59
1, 829906, Note_off_c, 0, 68, 59
1, 829912, Control_c, 0, 64, 60
1, 829927, Control_c, 0, 64, 61
1, 829942, Control_c, 0, 64, 61
1, 829957, Note_off_c, 0, 64, 64
1, 829959, Note_on_c, 0, 60, 85
1, 829986, Control_c, 0, 64, 60
1, 830001, Control_c, 0, 64, 53
1, 830016, Control_c, 0, 64, 34
1, 830029, Note_off_c, 0, 60, 63
1, 830031, Control_c, 0, 64, 0
1, 830044, Note_off_c, 0, 58, 63
1, 830049, Note_on_c, 0, 63, 95
1, 830050, Note_on_c, 0, 70, 92
1, 830052, Note_on_c, 0, 66, 91
1, 830054, Note_on_c, 0, 59, 103
1, 830134, Control_c, 0, 64, 32
1, 830149, Control_c, 0, 64, 34
1, 830157, Note_on_c, 0, 58, 89
1, 830172, Note_off_c, 0, 59, 64
1, 830178, Control_c, 0, 64, 35
1, 830194, Control_c, 0, 64, 38
1, 830209, Control_c, 0, 64, 43
1, 830224, Control_c, 0, 64, 48
1, 830226, Note_off_c, 0, 70, 59
1, 830239, Control_c, 0, 64, 52
1, 830240, Note_off_c, 0, 58, 61
1, 830254, Control_c, 0, 64, 55
1, 830256, Note_on_c, 0, 59, 94
1, 830268, Control_c, 0, 64, 57
1, 830271, Note_off_c, 0, 66, 62
1, 830276, Note_off_c, 0, 63, 58
1, 830283, Control_c, 0, 64, 58
1, 830298, Control_c, 0, 64, 59
1, 830321, Control_c, 0, 64, 60
1, 830335, Control_c, 0, 64, 61
1, 830350, Control_c, 0, 64, 61
1, 830353, Note_on_c, 0, 55, 85
1, 830363, Note_off_c, 0, 59, 58
1, 830394, Control_c, 0, 64, 60
1, 830409, Control_c, 0, 64, 53
1, 830424, Control_c, 0, 64, 29
1, 830439, Control_c, 0, 64, 0
1, 830443, Note_on_c, 0, 58, 99
1, 830445, Note_on_c, 0, 69, 88
1, 830450, Note_on_c, 0, 62, 89
1, 830451, Note_on_c, 0, 65, 81
1, 830455, Note_off_c, 0, 55, 64
1, 830528, Control_c, 0, 64, 33
1, 830542, Control_c, 0, 64, 39
1, 830557, Control_c, 0, 64, 41
1, 830562, Note_off_c, 0, 62, 63
1, 830563, Note_on_c, 0, 61, 75
1, 830572, Control_c, 0, 64, 43
1, 830587, Control_c, 0, 64, 45
1, 830602, Control_c, 0, 64, 47
1, 830616, Note_off_c, 0, 61, 63
1, 830617, Control_c, 0, 64, 49
1, 830630, Note_off_c, 0, 65, 57
1, 830631, Control_c, 0, 64, 52
1, 830646, Control_c, 0, 64, 54
1, 830660, Note_on_c, 0, 62, 84
1, 830661, Control_c, 0, 64, 57
1, 830663, Note_off_c, 0, 69, 60
1, 830676, Control_c, 0, 64, 58
1, 830691, Control_c, 0, 64, 59
1, 830706, Control_c, 0, 64, 59
1, 830720, Control_c, 0, 64, 60
1, 830721, Note_off_c, 0, 58, 61
1, 830735, Control_c, 0, 64, 61
1, 830738, Note_off_c, 0, 62, 62
1, 830753, Note_on_c, 0, 58, 86
1, 830765, Control_c, 0, 64, 62
1, 830780, Control_c, 0, 64, 61
1, 830794, Control_c, 0, 64, 54
1, 830809, Control_c, 0, 64, 40
1, 830824, Control_c, 0, 64, 0
1, 830830, Note_off_c, 0, 58, 0
1, 830836, Note_on_c, 0, 57, 94
1, 830841, Note_on_c, 0, 68, 89
1, 830844, Note_on_c, 0, 61, 91
1, 830849, Note_on_c, 0, 63, 84
1, 830854, Poly_aftertouch_c, 0, 58, 0
1, 830883, Control_c, 0, 64, 28
1, 830898, Control_c, 0, 64, 35
1, 830912, Control_c, 0, 64, 38
1, 830927, Control_c, 0, 64, 39
1, 830942, Control_c, 0, 64, 40
1, 830947, Note_on_c, 0, 56, 88
1, 830950, Note_off_c, 0, 57, 61
1, 830957, Control_c, 0, 64, 40
1, 830972, Control_c, 0, 64, 41
1, 830988, Control_c, 0, 64, 42
1, 830993, Note_off_c, 0, 68, 56
1, 831003, Control_c, 0, 64, 43
1, 831009, Note_off_c, 0, 61, 56
1, 831017, Control_c, 0, 64, 45
1, 831031, Note_off_c, 0, 56, 58
1, 831032, Control_c, 0, 64, 46
1, 831041, Note_off_c, 0, 63, 57
1, 831047, Control_c, 0, 64, 47
1, 831048, Note_on_c, 0, 57, 90
1, 831070, Control_c, 0, 64, 49
1, 831085, Control_c, 0, 64, 50
1, 831114, Control_c, 0, 64, 48
1, 831123, Note_off_c, 0, 57, 59
1, 831129, Control_c, 0, 64, 41
1, 831137, Note_on_c, 0, 53, 83
1, 831144, Control_c, 0, 64, 30
1, 831159, Control_c, 0, 64, 0
1, 831233, Note_on_c, 0, 56, 99
1, 831238, Note_on_c, 0, 67, 87
1, 831241, Note_on_c, 0, 60, 88
1, 831243, Note_on_c, 0, 63, 90
1, 831248, Note_off_c, 0, 53, 63
1, 831277, Control_c, 0, 64, 30
1, 831306, Control_c, 0, 64, 32
1, 831320, Note_off_c, 0, 67, 61
1, 831321, Control_c, 0, 64, 35
1, 831336, Control_c, 0, 64, 40
1, 831338, Note_off_c, 0, 60, 63
1, 831340, Note_on_c, 0, 58, 93
1, 831350, Control_c, 0, 64, 46
1, 831362, Note_off_c, 0, 63, 62
1, 831365, Control_c, 0, 64, 52
1, 831380, Control_c, 0, 64, 52
1, 831395, Control_c, 0, 64, 48
1, 831397, Note_off_c, 0, 56, 61
1, 831407, Note_off_c, 0, 58, 63
1, 831410, Control_c, 0, 64, 37
1, 831424, Control_c, 0, 64, 0
1, 831445, Note_on_c, 0, 59, 94
1, 831447, Note_on_c, 0, 62, 89
1, 831448, Note_on_c, 0, 66, 94
1, 831451, Note_on_c, 0, 55, 91
1, 831527, Note_off_c, 0, 55, 64
1, 831562, Note_on_c, 0, 52, 89
1, 831573, Control_c, 0, 64, 30
1, 831588, Control_c, 0, 64, 33
1, 831603, Control_c, 0, 64, 34
1, 831603, Note_off_c, 0, 66, 60
1, 831617, Control_c, 0, 64, 34
1, 831618, Note_off_c, 0, 59, 61
1, 831630, Note_off_c, 0, 62, 60
1, 831632, Control_c, 0, 64, 35
1, 831647, Control_c, 0, 64, 36
1, 831662, Control_c, 0, 64, 37
1, 831663, Note_on_c, 0, 56, 97
1, 831672, Note_on_c, 0, 54, 86
1, 831677, Control_c, 0, 64, 39
1, 831679, Note_on_c, 0, 65, 78
1, 831691, Control_c, 0, 64, 41
1, 831697, Note_off_c, 0, 52, 64
1, 831706, Control_c, 0, 64, 44
1, 831721, Control_c, 0, 64, 47
1, 831726, Note_off_c, 0, 56, 60
1, 831735, Control_c, 0, 64, 49
1, 831737, Note_on_c, 0, 58, 60
1, 831743, Note_on_c, 0, 61, 70
1, 831750, Control_c, 0, 64, 50
1, 831765, Control_c, 0, 64, 51
1, 831781, Control_c, 0, 64, 52
1, 831796, Control_c, 0, 64, 54
1, 831810, Note_off_c, 0, 65, 61
1, 831818, Control_c, 0, 64, 56
1, 831828, Note_off_c, 0, 54, 60
1, 831833, Note_off_c, 0, 58, 64
1, 831833, Control_c, 0, 64, 57
1, 831838, Note_off_c, 0, 61, 64
1, 831863, Control_c, 0, 64, 53
1, 831877, Control_c, 0, 64, 38
1, 831885, Note_on_c, 0, 60, 93
1, 831889, Note_on_c, 0, 57, 89
1, 831890, Note_on_c, 0, 64, 92
1, 831892, Control_c, 0, 64, 0
1, 831897, Note_on_c, 0, 53, 92
1, 831899, Note_on_c, 0, 61, 39
1, 831913, Note_on_c, 0, 62, 68
1, 831929, Note_off_c, 0, 61, 31
1, 831943, Note_off_c, 0, 62, 64
1, 831955, Note_off_c, 0, 53, 64
1, 831981, Control_c, 0, 64, 43
1, 831996, Control_c, 0, 64, 56
1, 832003, Note_on_c, 0, 51, 98
1, 832011, Control_c, 0, 64, 61
1, 832026, Control_c, 0, 64, 63
1, 832040, Note_on_c, 0, 52, 52
1, 832040, Control_c, 0, 64, 65
1, 832042, Note_off_c, 0, 57, 62
1, 832052, Note_off_c, 0, 60, 52
1, 832055, Note_off_c, 0, 51, 62
1, 832055, Control_c, 0, 64, 67
1, 832068, Note_off_c, 0, 52, 57
1, 832070, Control_c, 0, 64, 70
1, 832085, Control_c, 0, 64, 72
1, 832100, Control_c, 0, 64, 72
1, 832103, Note_off_c, 0, 64, 57
1, 832114, Control_c, 0, 66, 0
1, 832122, Note_on_c, 0, 52, 105
1, 832128, Note_on_c, 0, 40, 95
1, 832129, Control_c, 0, 64, 73
1, 832164, Note_off_c, 0, 52, 66
1, 832167, Note_off_c, 0, 40, 65
1, 832203, Control_c, 0, 64, 72
1, 832218, Control_c, 0, 64, 67
1, 832226, Note_on_c, 0, 64, 90
1, 832229, Note_on_c, 0, 56, 93
1, 832232, Note_on_c, 0, 59, 86
1, 832233, Control_c, 0, 64, 55
1, 832247, Control_c, 0, 64, 0
1, 832256, Note_on_c, 0, 51, 99
1, 832258, Note_on_c, 0, 39, 97
1, 832261, Note_on_c, 0, 61, 47
1, 832289, Note_off_c, 0, 39, 65
1, 832304, Note_off_c, 0, 51, 60
1, 832375, Note_on_c, 0, 52, 102
1, 832379, Note_on_c, 0, 40, 91
1, 832412, Note_off_c, 0, 52, 65
1, 832427, Note_off_c, 0, 40, 63
1, 832514, Note_on_c, 0, 36, 93
1, 832514, Note_on_c, 0, 48, 112
1, 832550, Note_off_c, 0, 36, 60
1, 832551, Note_off_c, 0, 48, 65
1, 832611, Control_c, 0, 64, 31
1, 832626, Control_c, 0, 64, 33
1, 832641, Control_c, 0, 64, 35
1, 832651, Note_on_c, 0, 51, 102
1, 832655, Note_on_c, 0, 39, 101
1, 832656, Control_c, 0, 64, 36
1, 832670, Control_c, 0, 64, 39
1, 832685, Control_c, 0, 64, 43
1, 832688, Note_off_c, 0, 51, 63
1, 832700, Control_c, 0, 64, 46
1, 832707, Note_off_c, 0, 39, 62
1, 832715, Control_c, 0, 64, 48
1, 832730, Control_c, 0, 64, 49
1, 832775, Control_c, 0, 64, 49
1, 832778, Note_on_c, 0, 33, 96
1, 832781, Note_on_c, 0, 45, 96
1, 832816, Note_off_c, 0, 45, 64
1, 832821, Note_off_c, 0, 33, 61
1, 832886, Note_on_c, 0, 48, 112
1, 832889, Note_on_c, 0, 36, 93
1, 832908, Control_c, 0, 64, 50
1, 832923, Note_off_c, 0, 48, 66
1, 832923, Control_c, 0, 64, 50
1, 832936, Note_off_c, 0, 36, 61
1, 832937, Control_c, 0, 64, 51
1, 832952, Control_c, 0, 64, 51
1, 832967, Control_c, 0, 64, 52
1, 832996, Control_c, 0, 64, 52
1, 833002, Note_on_c, 0, 41, 102
1, 833011, Note_on_c, 0, 29, 86
1, 833019, Note_on_c, 0, 28, 83
1, 833026, Control_c, 0, 64, 53
1, 833040, Note_off_c, 0, 29, 69
1, 833040, Note_off_c, 0, 41, 68
1, 833046, Note_off_c, 0, 28, 63
1, 833113, Note_on_c, 0, 44, 100
1, 833115, Control_c, 0, 64, 53
1, 833116, Note_on_c, 0, 32, 108
1, 833144, Control_c, 0, 64, 54
1, 833153, Note_off_c, 0, 61, 33
1, 833155, Note_off_c, 0, 44, 66
1, 833162, Note_on_c, 0, 45, 29
1, 833164, Note_off_c, 0, 59, 57
1, 833170, Note_off_c, 0, 32, 61
1, 833175, Note_off_c, 0, 56, 61
1, 833201, Note_off_c, 0, 45, 31
1, 833204, Control_c, 0, 64, 54
1, 833219, Control_c, 0, 64, 55
1, 833234, Control_c, 0, 64, 56
1, 833242, Note_on_c, 0, 40, 103
1, 833244, Note_on_c, 0, 28, 106
1, 833249, Control_c, 0, 64, 57
1, 833263, Control_c, 0, 64, 58
1, 833278, Control_c, 0, 64, 59
1, 833281, Note_off_c, 0, 40, 66
1, 833289, Note_off_c, 0, 28, 60
1, 833314, Control_c, 0, 64, 59
1, 833358, Note_off_c, 0, 64, 61
1, 833374, Control_c, 0, 64, 59
1, 833390, Control_c, 0, 64, 58
1, 833395, Note_on_c, 0, 39, 105
1, 833396, Note_on_c, 0, 27, 104
1, 833399, Note_on_c, 0, 60, 88
1, 833401, Note_on_c, 0, 52, 92
1, 833402, Note_on_c, 0, 56, 88
1, 833405, Control_c, 0, 64, 58
1, 833419, Control_c, 0, 64, 57
1, 833443, Note_off_c, 0, 27, 64
1, 833444, Note_off_c, 0, 39, 62
1, 833449, Control_c, 0, 64, 57
1, 833479, Control_c, 0, 64, 56
1, 833508, Control_c, 0, 64, 56
1, 833577, Note_on_c, 0, 40, 102
1, 833579, Note_on_c, 0, 28, 101
1, 833613, Note_off_c, 0, 40, 66
1, 833627, Note_off_c, 0, 28, 62
1, 833685, Control_c, 0, 64, 56
1, 833744, Control_c, 0, 64, 55
1, 833759, Control_c, 0, 64, 53
1, 833774, Control_c, 0, 64, 52
1, 833797, Note_on_c, 0, 36, 109
1, 833799, Note_on_c, 0, 24, 100
1, 833803, Control_c, 0, 64, 53
1, 833818, Control_c, 0, 64, 55
1, 833833, Control_c, 0, 64, 58
1, 833848, Control_c, 0, 64, 62
1, 833863, Control_c, 0, 64, 64
1, 833870, Note_off_c, 0, 24, 39
1, 833878, Control_c, 0, 64, 66
1, 833893, Control_c, 0, 64, 67
1, 833905, Note_off_c, 0, 36, 63
1, 833907, Control_c, 0, 64, 68
1, 833922, Control_c, 0, 64, 69
1, 833954, Note_off_c, 0, 52, 52
1, 833967, Control_c, 0, 64, 69
1, 833980, Note_off_c, 0, 60, 64
1, 833990, Note_off_c, 0, 56, 62
1, 834156, Note_on_c, 0, 27, 67
1, 834182, Control_c, 0, 64, 70
1, 834197, Control_c, 0, 64, 70
1, 834212, Control_c, 0, 64, 71
1, 834218, Note_on_c, 0, 33, 63
1, 834234, Note_on_c, 0, 63, 96
1, 834236, Note_on_c, 0, 57, 97
1, 834237, Note_on_c, 0, 39, 114
1, 834237, Note_on_c, 0, 52, 101
1, 834239, Note_on_c, 0, 53, 100
1, 834241, Control_c, 0, 64, 63
1, 834256, Control_c, 0, 64, 0
1, 834273, Note_on_c, 0, 54, 45
1, 834307, Note_off_c, 0, 54, 49
1, 834523, Control_c, 0, 66, 127
1, 834582, Control_c, 0, 64, 30
1, 834597, Control_c, 0, 64, 48
1, 834612, Control_c, 0, 64, 55
1, 834626, Control_c, 0, 64, 57
1, 834641, Control_c, 0, 64, 61
1, 834656, Control_c, 0, 64, 64
1, 834671, Control_c, 0, 64, 67
1, 834686, Control_c, 0, 64, 70
1, 834691, Note_off_c, 0, 52, 56
1, 834700, Control_c, 0, 64, 73
1, 834703, Note_off_c, 0, 53, 57
1, 834708, Note_off_c, 0, 57, 60
1, 834715, Control_c, 0, 64, 74
1, 834730, Control_c, 0, 64, 76
1, 834745, Control_c, 0, 64, 77
1, 834760, Control_c, 0, 64, 78
1, 834775, Control_c, 0, 64, 79
1, 834775, Note_off_c, 0, 63, 60
1, 834790, Control_c, 0, 64, 80
1, 834812, Control_c, 0, 64, 80
1, 834827, Control_c, 0, 64, 81
1, 834871, Control_c, 0, 64, 81
1, 834960, Control_c, 0, 64, 82
1, 835064, Control_c, 0, 64, 82
1, 835076, Note_on_c, 0, 88, 110
1, 835094, Control_c, 0, 64, 83
1, 835121, Note_off_c, 0, 27, 61
1, 835124, Control_c, 0, 64, 83
1, 835139, Control_c, 0, 64, 84
1, 835142, Note_off_c, 0, 33, 58
1, 835154, Control_c, 0, 64, 85
1, 835168, Control_c, 0, 64, 85
1, 835170, Note_off_c, 0, 39, 60
1, 835183, Control_c, 0, 64, 86
1, 835198, Control_c, 0, 64, 87
1, 835213, Control_c, 0, 64, 89
1, 835228, Control_c, 0, 64, 91
1, 835243, Control_c, 0, 64, 93
1, 835257, Control_c, 0, 64, 96
1, 835287, Control_c, 0, 64, 99
1, 835375, Control_c, 0, 64, 101
1, 835418, Note_off_c, 0, 88, 63
1, 835439, Note_on_c, 0, 83, 100
1, 835458, Note_on_c, 0, 84, 61
1, 835458, Note_off_c, 0, 84, 127
1, 835650, Note_off_c, 0, 83, 61
1, 835669, Note_on_c, 0, 87, 103
1, 835810, Note_off_c, 0, 87, 62
1, 835828, Note_on_c, 0, 80, 96
1, 835904, Note_off_c, 0, 80, 64
1, 835954, Note_on_c, 0, 86, 100
1, 836065, Note_on_c, 0, 81, 97
1, 836075, Note_off_c, 0, 86, 55
1, 836110, Control_c, 0, 64, 99
1, 836176, Note_on_c, 0, 82, 97
1, 836187, Note_off_c, 0, 81, 59
1, 836257, Note_off_c, 0, 82, 60
1, 836280, Note_on_c, 0, 77, 94
1, 836339, Control_c, 0, 64, 97
1, 836352, Note_off_c, 0, 77, 66
1, 836400, Note_on_c, 0, 81, 98
1, 836443, Control_c, 0, 64, 96
1, 836473, Note_off_c, 0, 81, 58
1, 836517, Control_c, 0, 64, 95
1, 836521, Note_on_c, 0, 74, 100
1, 836575, Note_off_c, 0, 74, 65
1, 836674, Note_on_c, 0, 80, 97
1, 836710, Note_off_c, 0, 80, 68
1, 836860, Note_on_c, 0, 75, 102
1, 836890, Note_off_c, 0, 75, 69
1, 837107, Note_on_c, 0, 76, 99
1, 837257, Note_off_c, 0, 76, 53
1, 837289, Note_on_c, 0, 77, 64
1, 837334, Note_off_c, 0, 77, 61
1, 837346, Note_on_c, 0, 78, 74
1, 837392, Note_on_c, 0, 80, 74
1, 837414, Note_off_c, 0, 78, 59
1, 837439, Note_on_c, 0, 82, 65
1, 837475, Note_on_c, 0, 83, 72
1, 837501, Note_on_c, 0, 77, 75
1, 837505, Note_off_c, 0, 80, 40
1, 837510, Note_off_c, 0, 82, 62
1, 837530, Note_off_c, 0, 83, 62
1, 837550, Note_off_c, 0, 77, 62
1, 837552, Note_on_c, 0, 72, 84
1, 837590, Note_on_c, 0, 71, 107
1, 837592, Note_off_c, 0, 72, 63
1, 837654, Note_off_c, 0, 71, 69
1, 837681, Note_on_c, 0, 72, 76
1, 837696, Control_c, 0, 64, 96
1, 837736, Note_off_c, 0, 72, 60
1, 837744, Note_on_c, 0, 73, 60
1, 837758, Note_on_c, 0, 75, 68
1, 837783, Note_on_c, 0, 76, 64
1, 837830, Note_on_c, 0, 70, 75
1, 837831, Note_off_c, 0, 73, 63
1, 837834, Note_off_c, 0, 76, 58
1, 837834, Note_off_c, 0, 75, 63
1, 837869, Note_on_c, 0, 65, 75
1, 837881, Note_off_c, 0, 70, 63
1, 837905, Note_off_c, 0, 65, 63
1, 837911, Control_c, 0, 64, 98
1, 837925, Note_on_c, 0, 64, 105
1, 837970, Control_c, 0, 64, 100
1, 837973, Note_off_c, 0, 64, 73
1, 837978, Note_on_c, 0, 65, 73
1, 838000, Control_c, 0, 64, 104
1, 838008, Note_on_c, 0, 66, 68
1, 838015, Control_c, 0, 64, 108
1, 838015, Note_off_c, 0, 65, 57
1, 838030, Control_c, 0, 64, 110
1, 838045, Control_c, 0, 64, 113
1, 838059, Control_c, 0, 64, 115
1, 838066, Note_on_c, 0, 68, 62
1, 838069, Note_on_c, 0, 70, 62
1, 838074, Control_c, 0, 64, 119
1, 838088, Note_on_c, 0, 71, 62
1, 838089, Control_c, 0, 64, 124
1, 838103, Control_c, 0, 64, 127
1, 838122, Note_off_c, 0, 70, 64
1, 838124, Note_off_c, 0, 66, 64
1, 838136, Note_off_c, 0, 68, 62
1, 838136, Note_off_c, 0, 71, 47
1, 838140, Note_on_c, 0, 60, 84
1, 838185, Note_off_c, 0, 60, 64
1, 838199, Note_on_c, 0, 59, 106
1, 838245, Note_off_c, 0, 59, 71
1, 838270, Note_on_c, 0, 60, 61
1, 838287, Note_on_c, 0, 61, 40
1, 838287, Note_on_c, 0, 63, 68
1, 838295, Note_on_c, 0, 62, 46
1, 838301, Note_off_c, 0, 60, 62
1, 838310, Note_on_c, 0, 64, 74
1, 838333, Note_off_c, 0, 62, 50
1, 838363, Note_off_c, 0, 63, 62
1, 838369, Note_off_c, 0, 64, 64
1, 838383, Note_on_c, 0, 52, 109
1, 838388, Note_off_c, 0, 61, 36
1, 838406, Note_on_c, 0, 55, 68
1, 838430, Note_off_c, 0, 52, 68
1, 838451, Note_on_c, 0, 53, 28
1, 838453, Note_on_c, 0, 54, 69
1, 838462, Note_on_c, 0, 56, 74
1, 838471, Note_off_c, 0, 55, 63
1, 838480, Note_on_c, 0, 58, 70
1, 838483, Note_off_c, 0, 53, 46
1, 838504, Note_on_c, 0, 59, 74
1, 838505, Note_off_c, 0, 54, 58
1, 838548, Note_off_c, 0, 56, 61
1, 838549, Note_off_c, 0, 58, 62
1, 838561, Note_off_c, 0, 59, 59
1, 838566, Note_on_c, 0, 47, 110
1, 838608, Note_off_c, 0, 47, 68
1, 838611, Note_on_c, 0, 50, 68
1, 838633, Note_on_c, 0, 48, 52
1, 838641, Note_on_c, 0, 49, 69
1, 838650, Note_on_c, 0, 51, 73
1, 838663, Note_off_c, 0, 50, 63
1, 838666, Note_off_c, 0, 48, 53
1, 838669, Note_on_c, 0, 53, 68
1, 838674, Note_on_c, 0, 52, 57
1, 838695, Note_off_c, 0, 52, 64
1, 838695, Note_off_c, 0, 53, 69
1, 838698, Note_off_c, 0, 49, 55
1, 838701, Note_off_c, 0, 51, 57
1, 838716, Note_on_c, 0, 40, 101
1, 838754, Note_off_c, 0, 40, 66
1, 838756, Note_on_c, 0, 41, 86
1, 838775, Note_on_c, 0, 44, 76
1, 838777, Note_on_c, 0, 42, 74
1, 838792, Note_on_c, 0, 47, 76
1, 838792, Note_off_c, 0, 41, 61
1, 838824, Note_on_c, 0, 41, 81
1, 838836, Note_off_c, 0, 44, 62
1, 838847, Note_off_c, 0, 42, 62
1, 838852, Control_c, 0, 66, 0
1, 838854, Note_off_c, 0, 47, 66
1, 838866, Note_on_c, 0, 40, 99
1, 838876, Note_off_c, 0, 41, 66
1, 838882, Control_c, 0, 64, 94
1, 838897, Control_c, 0, 64, 61
1, 838912, Control_c, 0, 64, 0
1, 838913, Note_off_c, 0, 40, 64
1, 838987, Note_on_c, 0, 35, 110
1, 839026, Note_off_c, 0, 35, 67
1, 839079, Note_on_c, 0, 28, 101
1, 839119, Note_off_c, 0, 28, 66
1, 839177, Note_on_c, 0, 39, 114
1, 839177, Note_on_c, 0, 63, 105
1, 839178, Note_on_c, 0, 27, 108
1, 839238, Control_c, 0, 66, 127
1, 839251, Note_off_c, 0, 39, 68
1, 839261, Note_off_c, 0, 27, 64
1, 839283, Control_c, 0, 64, 58
1, 839305, Control_c, 0, 64, 72
1, 839320, Control_c, 0, 64, 76
1, 839335, Control_c, 0, 64, 78
1, 839349, Control_c, 0, 64, 81
1, 839364, Control_c, 0, 64, 84
1, 839379, Control_c, 0, 64, 84
1, 839394, Control_c, 0, 64, 86
1, 839409, Control_c, 0, 64, 88
1, 839423, Control_c, 0, 64, 90
1, 839438, Control_c, 0, 64, 92
1, 839453, Control_c, 0, 64, 93
1, 839468, Control_c, 0, 64, 93
1, 839512, Control_c, 0, 64, 94
1, 839526, Note_off_c, 0, 63, 57
1, 839587, Note_on_c, 0, 66, 106
1, 839589, Note_on_c, 0, 62, 98
1, 839601, Control_c, 0, 64, 94
1, 839616, Control_c, 0, 64, 96
1, 839631, Control_c, 0, 64, 100
1, 839646, Control_c, 0, 64, 111
1, 839661, Control_c, 0, 64, 127
1, 839673, Note_off_c, 0, 62, 42
1, 839735, Note_off_c, 0, 66, 60
1, 839941, Note_on_c, 0, 70, 102
1, 839946, Note_on_c, 0, 61, 106
1, 839948, Note_on_c, 0, 65, 87
1, 839983, Note_on_c, 0, 67, 36
1, 839983, Note_off_c, 0, 67, 127
1, 840105, Note_off_c, 0, 65, 57
1, 840232, Note_off_c, 0, 70, 59
1, 840236, Note_off_c, 0, 61, 59
1, 840262, Control_c, 0, 64, 101
1, 840269, Note_on_c, 0, 74, 106
1, 840272, Note_on_c, 0, 60, 92
1, 840272, Note_on_c, 0, 64, 100
1, 840272, Note_on_c, 0, 69, 100
1, 840277, Control_c, 0, 64, 66
1, 840292, Control_c, 0, 64, 0
1, 840366, Control_c, 0, 64, 58
1, 840380, Control_c, 0, 64, 68
1, 840385, Note_off_c, 0, 64, 61
1, 840395, Control_c, 0, 64, 76
1, 840410, Control_c, 0, 64, 84
1, 840418, Note_off_c, 0, 74, 66
1, 840420, Note_off_c, 0, 69, 58
1, 840425, Control_c, 0, 64, 88
1, 840440, Control_c, 0, 64, 92
1, 840454, Control_c, 0, 64, 97
1, 840469, Control_c, 0, 64, 103
1, 840484, Control_c, 0, 64, 111
1, 840498, Control_c, 0, 64, 127
1, 840585, Note_off_c, 0, 60, 60
1, 840589, Control_c, 0, 64, 110
1, 840591, Note_on_c, 0, 77, 100
1, 840594, Note_on_c, 0, 68, 100
1, 840599, Note_on_c, 0, 73, 94
1, 840600, Note_on_c, 0, 63, 96
1, 840603, Note_on_c, 0, 59, 85
1, 840603, Control_c, 0, 64, 72
1, 840618, Control_c, 0, 64, 40
1, 840633, Control_c, 0, 64, 0
1, 840677, Control_c, 0, 64, 45
1, 840692, Control_c, 0, 64, 64
1, 840707, Control_c, 0, 64, 71
1, 840722, Control_c, 0, 64, 80
1, 840737, Control_c, 0, 64, 85
1, 840738, Note_off_c, 0, 63, 59
1, 840752, Control_c, 0, 64, 89
1, 840767, Control_c, 0, 64, 91
1, 840769, Note_off_c, 0, 68, 56
1, 840781, Control_c, 0, 64, 94
1, 840797, Note_off_c, 0, 73, 44
1, 840803, Control_c, 0, 64, 101
1, 840818, Control_c, 0, 64, 112
1, 840833, Control_c, 0, 64, 127
1, 840916, Note_off_c, 0, 59, 61
1, 840919, Note_on_c, 0, 62, 82
1, 840920, Note_on_c, 0, 67, 86
1, 840921, Note_on_c, 0, 58, 81
1, 840922, Note_on_c, 0, 76, 89
1, 840922, Control_c, 0, 64, 94
1, 840923, Note_on_c, 0, 72, 80
1, 840936, Control_c, 0, 64, 67
1, 840951, Control_c, 0, 64, 50
1, 840954, Note_off_c, 0, 77, 59
1, 840966, Control_c, 0, 64, 49
1, 840981, Control_c, 0, 64, 54
1, 840995, Control_c, 0, 64, 62
1, 841010, Control_c, 0, 64, 69
1, 841025, Control_c, 0, 64, 77
1, 841029, Note_off_c, 0, 67, 60
1, 841040, Control_c, 0, 64, 82
1, 841043, Note_off_c, 0, 72, 60
1, 841047, Note_off_c, 0, 76, 65
1, 841054, Control_c, 0, 64, 83
1, 841069, Control_c, 0, 64, 84
1, 841084, Control_c, 0, 64, 86
1, 841099, Control_c, 0, 64, 88
1, 841114, Control_c, 0, 64, 92
1, 841128, Control_c, 0, 64, 94
1, 841143, Control_c, 0, 64, 97
1, 841149, Note_off_c, 0, 62, 56
1, 841158, Control_c, 0, 64, 99
1, 841217, Note_off_c, 0, 58, 59
1, 841217, Control_c, 0, 64, 90
1, 841232, Control_c, 0, 64, 69
1, 841239, Note_on_c, 0, 78, 94
1, 841241, Note_on_c, 0, 75, 94
1, 841242, Note_on_c, 0, 66, 102
1, 841245, Note_on_c, 0, 61, 87
1, 841245, Note_on_c, 0, 71, 93
1, 841246, Note_on_c, 0, 57, 78
1, 841246, Control_c, 0, 64, 42
1, 841261, Control_c, 0, 64, 0
1, 841321, Control_c, 0, 64, 30
1, 841336, Control_c, 0, 64, 58
1, 841351, Control_c, 0, 64, 67
1, 841366, Control_c, 0, 64, 72
1, 841381, Control_c, 0, 64, 76
1, 841387, Note_off_c, 0, 78, 58
1, 841396, Control_c, 0, 64, 79
1, 841399, Note_off_c, 0, 61, 60
1, 841411, Control_c, 0, 64, 82
1, 841413, Note_off_c, 0, 71, 60
1, 841422, Note_off_c, 0, 75, 61
1, 841425, Control_c, 0, 64, 86
1, 841440, Control_c, 0, 64, 90
1, 841455, Control_c, 0, 64, 96
1, 841470, Control_c, 0, 64, 107
1, 841485, Control_c, 0, 64, 127
1, 841490, Note_off_c, 0, 66, 60
1, 841561, Note_off_c, 0, 57, 62
1, 841566, Control_c, 0, 64, 96
1, 841571, Note_on_c, 0, 75, 97
1, 841574, Note_on_c, 0, 65, 90
1, 841574, Note_on_c, 0, 70, 96
1, 841575, Note_on_c, 0, 56, 85
1, 841581, Note_on_c, 0, 60, 83
1, 841581, Control_c, 0, 64, 67
1, 841596, Control_c, 0, 64, 45
1, 841611, Control_c, 0, 64, 34
1, 841625, Control_c, 0, 64, 37
1, 841640, Control_c, 0, 64, 48
1, 841655, Control_c, 0, 64, 62
1, 841670, Control_c, 0, 64, 69
1, 841685, Control_c, 0, 64, 77
1, 841700, Control_c, 0, 64, 81
1, 841714, Control_c, 0, 64, 85
1, 841725, Note_off_c, 0, 70, 60
1, 841729, Control_c, 0, 64, 89
1, 841744, Control_c, 0, 64, 94
1, 841759, Control_c, 0, 64, 100
1, 841761, Note_off_c, 0, 65, 54
1, 841774, Control_c, 0, 64, 108
1, 841789, Control_c, 0, 64, 127
1, 841805, Note_off_c, 0, 75, 60
1, 841843, Note_off_c, 0, 60, 60
1, 841853, Note_off_c, 0, 56, 59
1, 841863, Control_c, 0, 64, 112
1, 841877, Control_c, 0, 64, 77
1, 841888, Note_on_c, 0, 70, 93
1, 841891, Note_on_c, 0, 69, 98
1, 841892, Control_c, 0, 64, 45
1, 841893, Note_on_c, 0, 64, 87
1, 841899, Note_on_c, 0, 59, 90
1, 841902, Note_on_c, 0, 55, 78
1, 841907, Control_c, 0, 64, 0
1, 841951, Control_c, 0, 64, 32
1, 841966, Control_c, 0, 64, 57
1, 841981, Control_c, 0, 64, 67
1, 841996, Control_c, 0, 64, 74
1, 842011, Control_c, 0, 64, 77
1, 842019, Note_off_c, 0, 55, 63
1, 842022, Note_off_c, 0, 59, 64
1, 842025, Control_c, 0, 64, 80
1, 842040, Control_c, 0, 64, 83
1, 842055, Control_c, 0, 64, 87
1, 842069, Control_c, 0, 64, 92
1, 842084, Control_c, 0, 64, 99
1, 842087, Note_off_c, 0, 69, 59
1, 842099, Control_c, 0, 64, 107
1, 842114, Control_c, 0, 64, 118
1, 842124, Note_off_c, 0, 64, 61
1, 842129, Control_c, 0, 64, 127
1, 842150, Note_off_c, 0, 70, 60
1, 842189, Control_c, 0, 64, 118
1, 842200, Note_on_c, 0, 74, 105
1, 842201, Note_on_c, 0, 67, 103
1, 842204, Note_on_c, 0, 63, 97
1, 842204, Control_c, 0, 64, 81
1, 842205, Note_on_c, 0, 58, 86
1, 842206, Note_on_c, 0, 72, 96
1, 842209, Note_on_c, 0, 54, 84
1, 842219, Control_c, 0, 64, 57
1, 842234, Control_c, 0, 64, 0
1, 842315, Control_c, 0, 64, 59
1, 842330, Control_c, 0, 64, 74
1, 842345, Control_c, 0, 64, 84
1, 842360, Control_c, 0, 64, 89
1, 842374, Control_c, 0, 64, 93
1, 842389, Control_c, 0, 64, 100
1, 842394, Note_off_c, 0, 63, 53
1, 842404, Control_c, 0, 64, 119
1, 842419, Control_c, 0, 64, 127
1, 842436, Note_off_c, 0, 67, 60
1, 842441, Note_off_c, 0, 54, 58
1, 842445, Note_off_c, 0, 74, 58
1, 842466, Note_off_c, 0, 72, 59
1, 842483, Note_off_c, 0, 58, 62
1, 842517, Note_on_c, 0, 69, 96
1, 842522, Control_c, 0, 64, 88
1, 842522, Control_c, 0, 66, 0
1, 842524, Note_on_c, 0, 66, 90
1, 842534, Note_on_c, 0, 57, 73
1, 842534, Note_on_c, 0, 61, 83
1, 842535, Note_on_c, 0, 53, 75
1, 842537, Control_c, 0, 64, 66
1, 842552, Control_c, 0, 64, 56
1, 842567, Control_c, 0, 64, 57
1, 842582, Control_c, 0, 64, 62
1, 842597, Control_c, 0, 64, 70
1, 842612, Control_c, 0, 64, 80
1, 842627, Control_c, 0, 64, 88
1, 842642, Control_c, 0, 64, 92
1, 842656, Control_c, 0, 64, 98
1, 842671, Control_c, 0, 64, 110
1, 842686, Control_c, 0, 64, 127
1, 842746, Note_off_c, 0, 66, 57
1, 842754, Note_off_c, 0, 53, 59
1, 842758, Note_off_c, 0, 57, 61
1, 842770, Note_off_c, 0, 61, 59
1, 842804, Control_c, 0, 64, 95
1, 842805, Note_off_c, 0, 69, 60
1, 842818, Control_c, 0, 64, 64
1, 842833, Control_c, 0, 64, 0
1, 842836, Note_on_c, 0, 66, 93
1, 842839, Note_on_c, 0, 65, 83
1, 842843, Note_on_c, 0, 56, 72
1, 842847, Note_on_c, 0, 60, 85
1, 842849, Note_on_c, 0, 52, 72
1, 842863, Control_c, 0, 64, 34
1, 842878, Control_c, 0, 64, 58
1, 842892, Control_c, 0, 64, 73
1, 842907, Control_c, 0, 64, 93
1, 842920, Note_off_c, 0, 65, 60
1, 842922, Control_c, 0, 64, 105
1, 842931, Note_off_c, 0, 60, 59
1, 842937, Control_c, 0, 64, 109
1, 842952, Control_c, 0, 64, 115
1, 842961, Note_off_c, 0, 66, 64
1, 842968, Control_c, 0, 64, 127
1, 842971, Note_off_c, 0, 56, 62
1, 842975, Note_off_c, 0, 52, 63
1, 843153, Control_c, 0, 64, 81
1, 843168, Control_c, 0, 64, 43
1, 843173, Note_on_c, 0, 63, 106
1, 843174, Note_on_c, 0, 27, 99
1, 843174, Note_on_c, 0, 39, 101
1, 843175, Note_on_c, 0, 75, 104
1, 843183, Control_c, 0, 64, 0
1, 843197, Control_c, 0, 66, 127
1, 843238, Note_off_c, 0, 27, 65
1, 843243, Control_c, 0, 64, 53
1, 843258, Control_c, 0, 64, 78
1, 843260, Note_off_c, 0, 39, 64
1, 843272, Control_c, 0, 64, 127
1, 843276, Poly_aftertouch_c, 0, 40, 0
1, 843281, Note_off_c, 0, 63, 62
1, 843299, Note_off_c, 0, 75, 61
1, 843306, Poly_aftertouch_c, 0, 40, 0
1, 843331, Control_c, 0, 66, 0
1, 843487, Note_on_c, 0, 78, 102
1, 843488, Note_on_c, 0, 66, 99
1, 843488, Note_on_c, 0, 74, 96
1, 843494, Note_on_c, 0, 62, 87
1, 843497, Note_on_c, 0, 50, 74
1, 843497, Note_on_c, 0, 54, 75
1, 843562, Note_off_c, 0, 50, 60
1, 843571, Note_off_c, 0, 62, 61
1, 843578, Note_off_c, 0, 66, 63
1, 843585, Note_off_c, 0, 78, 58
1, 843596, Note_off_c, 0, 54, 59
1, 843616, Note_off_c, 0, 74, 61
1, 843746, Control_c, 0, 64, 83
1, 843762, Control_c, 0, 64, 62
1, 843765, Poly_aftertouch_c, 0, 78, 127
1, 843772, Note_on_c, 0, 77, 99
1, 843774, Note_on_c, 0, 82, 94
1, 843775, Note_on_c, 0, 70, 101
1, 843777, Control_c, 0, 64, 52
1, 843780, Note_on_c, 0, 61, 95
1, 843786, Note_on_c, 0, 58, 88
1, 843796, Note_on_c, 0, 49, 80
1, 843799, Control_c, 0, 64, 57
1, 843814, Control_c, 0, 64, 65
1, 843828, Control_c, 0, 64, 78
1, 843843, Control_c, 0, 64, 96
1, 843845, Note_off_c, 0, 70, 65
1, 843858, Control_c, 0, 64, 127
1, 843861, Note_off_c, 0, 77, 64
1, 843874, Note_off_c, 0, 61, 62
1, 843875, Poly_aftertouch_c, 0, 78, 0
1, 843885, Note_off_c, 0, 49, 61
1, 843888, Note_off_c, 0, 82, 59
1, 843890, Note_off_c, 0, 58, 58
1, 843966, Note_on_c, 0, 48, 81
1, 843976, Note_on_c, 0, 52, 71
1, 844021, Control_c, 0, 64, 89
1, 844028, Note_on_c, 0, 57, 63
1, 844036, Control_c, 0, 64, 53
1, 844051, Control_c, 0, 64, 0
1, 844052, Note_off_c, 0, 48, 52
1, 844061, Note_on_c, 0, 81, 104
1, 844062, Note_on_c, 0, 86, 102
1, 844064, Note_on_c, 0, 76, 102
1, 844065, Note_on_c, 0, 64, 98
1, 844066, Note_on_c, 0, 74, 105
1, 844080, Control_c, 0, 64, 33
1, 844095, Control_c, 0, 64, 58
1, 844110, Control_c, 0, 64, 71
1, 844125, Note_off_c, 0, 64, 63
1, 844125, Control_c, 0, 64, 81
1, 844135, Note_off_c, 0, 76, 63
1, 844138, Note_off_c, 0, 74, 62
1, 844139, Control_c, 0, 64, 87
1, 844141, Note_off_c, 0, 57, 64
1, 844147, Note_off_c, 0, 52, 62
1, 844154, Control_c, 0, 64, 90
1, 844169, Control_c, 0, 64, 95
1, 844180, Note_off_c, 0, 86, 59
1, 844184, Control_c, 0, 64, 104
1, 844196, Note_off_c, 0, 81, 59
1, 844199, Control_c, 0, 64, 127
1, 844212, Note_on_c, 0, 47, 81
1, 844246, Note_on_c, 0, 73, 78
1, 844255, Note_off_c, 0, 47, 56
1, 844260, Note_on_c, 0, 80, 78
1, 844281, Note_on_c, 0, 56, 75
1, 844288, Note_off_c, 0, 73, 61
1, 844349, Note_off_c, 0, 56, 0
1, 844360, Note_on_c, 0, 85, 108
1, 844362, Note_on_c, 0, 89, 100
1, 844377, Note_on_c, 0, 68, 98
1, 844386, Poly_aftertouch_c, 0, 56, 127
1, 844391, Note_on_c, 0, 56, 10
1, 844391, Note_on_c, 0, 88, 37
1, 844391, Note_off_c, 0, 88, 127
1, 844410, Note_on_c, 0, 58, 36
1, 844414, Note_off_c, 0, 89, 68
1, 844415, Note_off_c, 0, 68, 67
1, 844423, Note_off_c, 0, 85, 64
1, 844430, Note_off_c, 0, 80, 66
1, 844442, Note_off_c, 0, 58, 48
1, 844449, Note_off_c, 0, 56, 63
1, 844593, Note_on_c, 0, 63, 29
1, 844603, Note_on_c, 0, 66, 16
1, 844632, Note_off_c, 0, 63, 41
1, 844639, Note_on_c, 0, 64, 98
1, 844639, Note_on_c, 0, 72, 90
1, 844641, Note_on_c, 0, 58, 107
1, 844641, Note_on_c, 0, 60, 90
1, 844641, Note_on_c, 0, 46, 98
1, 844642, Note_on_c, 0, 67, 91
1, 844645, Note_off_c, 0, 66, 59
1, 844648, Note_on_c, 0, 62, 80
1, 844661, Note_off_c, 0, 60, 70
1, 844670, Note_off_c, 0, 62, 70
1, 844677, Note_off_c, 0, 64, 68
1, 844688, Note_off_c, 0, 58, 62
1, 844690, Note_off_c, 0, 67, 68
1, 844692, Note_on_c, 0, 45, 22
1, 844706, Note_off_c, 0, 46, 58
1, 844706, Note_off_c, 0, 72, 68
1, 844733, Note_off_c, 0, 45, 39
1, 844805, Note_on_c, 0, 45, 102
1, 844814, Control_c, 0, 64, 85
1, 844829, Control_c, 0, 64, 61
1, 844838, Note_off_c, 0, 45, 67
1, 844843, Control_c, 0, 64, 50
1, 844858, Control_c, 0, 64, 57
1, 844873, Control_c, 0, 64, 65
1, 844887, Control_c, 0, 64, 78
1, 844902, Control_c, 0, 64, 103
1, 844916, Note_on_c, 0, 78, 110
1, 844917, Note_on_c, 0, 90, 104
1, 844917, Control_c, 0, 64, 127
1, 844919, Note_on_c, 0, 87, 80
1, 844919, Note_on_c, 0, 84, 100
1, 844928, Note_on_c, 0, 61, 98
1, 844928, Note_on_c, 0, 73, 109
1, 844946, Note_on_c, 0, 63, 66
1, 844953, Note_on_c, 0, 77, 47
1, 844955, Note_off_c, 0, 73, 62
1, 844964, Note_on_c, 0, 74, 47
1, 844964, Note_off_c, 0, 74, 127
1, 844964, Note_off_c, 0, 61, 66
1, 844964, Note_off_c, 0, 63, 65
1, 844976, Note_off_c, 0, 77, 59
1, 844979, Note_off_c, 0, 90, 71
1, 844982, Note_off_c, 0, 84, 67
1, 844984, Note_off_c, 0, 78, 62
1, 844985, Note_on_c, 0, 60, 15
1, 844996, Note_off_c, 0, 87, 67
1, 845028, Note_off_c, 0, 60, 55
1, 845191, Note_on_c, 0, 77, 108
1, 845191, Note_on_c, 0, 87, 95
1, 845192, Note_on_c, 0, 78, 85
1, 845196, Note_on_c, 0, 82, 88
1, 845197, Note_on_c, 0, 56, 115
1, 845203, Note_on_c, 0, 48, 87
1, 845206, Note_on_c, 0, 44, 86
1, 845238, Note_on_c, 0, 46, 45
1, 845246, Note_off_c, 0, 77, 64
1, 845254, Note_off_c, 0, 87, 65
1, 845268, Note_off_c, 0, 46, 54
1, 845274, Note_off_c, 0, 82, 61
1, 845275, Note_off_c, 0, 56, 59
1, 845291, Note_off_c, 0, 44, 62
1, 845296, Note_off_c, 0, 48, 59
1, 845296, Note_off_c, 0, 78, 61
1, 845360, Note_on_c, 0, 43, 80
1, 845399, Note_on_c, 0, 52, 66
1, 845411, Note_on_c, 0, 51, 40
1, 845414, Control_c, 0, 64, 102
1, 845426, Note_off_c, 0, 43, 61
1, 845429, Control_c, 0, 64, 72
1, 845444, Note_on_c, 0, 45, 18
1, 845444, Control_c, 0, 64, 59
1, 845447, Note_off_c, 0, 51, 54
1, 845457, Note_on_c, 0, 60, 101
1, 845459, Control_c, 0, 64, 58
1, 845460, Note_on_c, 0, 70, 112
1, 845461, Note_on_c, 0, 76, 98
1, 845461, Note_on_c, 0, 82, 99
1, 845461, Note_on_c, 0, 81, 92
1, 845473, Control_c, 0, 64, 61
1, 845479, Note_off_c, 0, 45, 35
1, 845488, Control_c, 0, 64, 68
1, 845497, Note_on_c, 0, 80, 38
1, 845497, Note_off_c, 0, 80, 127
1, 845503, Control_c, 0, 64, 79
1, 845506, Note_off_c, 0, 60, 67
1, 845517, Note_off_c, 0, 70, 62
1, 845518, Control_c, 0, 64, 94
1, 845529, Note_off_c, 0, 76, 64
1, 845530, Note_off_c, 0, 52, 63
1, 845533, Control_c, 0, 64, 108
1, 845544, Note_off_c, 0, 81, 64
1, 845548, Control_c, 0, 64, 127
1, 845553, Note_off_c, 0, 82, 60
1, 845630, Note_on_c, 0, 42, 101
1, 845671, Note_off_c, 0, 42, 67
1, 845681, Control_c, 0, 64, 85
1, 845696, Control_c, 0, 64, 62
1, 845710, Control_c, 0, 64, 52
1, 845720, Note_on_c, 0, 84, 85
1, 845721, Note_on_c, 0, 86, 95
1, 845724, Note_on_c, 0, 74, 104
1, 845724, Note_on_c, 0, 79, 87
1, 845725, Control_c, 0, 64, 57
1, 845729, Note_on_c, 0, 63, 113
1, 845732, Note_on_c, 0, 51, 99
1, 845740, Control_c, 0, 64, 64
1, 845743, Poly_aftertouch_c, 0, 41, 0
1, 845755, Control_c, 0, 64, 75
1, 845758, Note_off_c, 0, 63, 70
1, 845770, Control_c, 0, 64, 99
1, 845777, Note_off_c, 0, 51, 64
1, 845783, Note_off_c, 0, 86, 64
1, 845784, Control_c, 0, 64, 127
1, 845790, Note_off_c, 0, 74, 63
1, 845795, Note_off_c, 0, 79, 65
1, 845802, Note_off_c, 0, 84, 64
1, 845921, Note_on_c, 0, 41, 99
1, 845954, Note_off_c, 0, 41, 64
1, 845997, Poly_aftertouch_c, 0, 42, 127
1, 846010, Note_on_c, 0, 81, 103
1, 846011, Note_on_c, 0, 69, 105
1, 846013, Note_on_c, 0, 56, 96
1, 846013, Note_on_c, 0, 78, 103
1, 846014, Note_on_c, 0, 75, 94
1, 846028, Note_on_c, 0, 66, 86
1, 846043, Note_on_c, 0, 57, 80
1, 846044, Poly_aftertouch_c, 0, 42, 0
1, 846054, Note_on_c, 0, 63, 52
1, 846054, Note_off_c, 0, 63, 127
1, 846055, Note_on_c, 0, 54, 56
1, 846056, Note_off_c, 0, 66, 71
1, 846059, Note_off_c, 0, 56, 65
1, 846068, Note_off_c, 0, 57, 69
1, 846070, Note_off_c, 0, 81, 66
1, 846070, Note_on_c, 0, 65, 36
1, 846070, Note_off_c, 0, 65, 127
1, 846071, Note_off_c, 0, 69, 66
1, 846078, Note_off_c, 0, 54, 59
1, 846079, Poly_aftertouch_c, 0, 43, 0
1, 846087, Note_off_c, 0, 78, 65
1, 846096, Note_off_c, 0, 75, 69
1, 846102, Poly_aftertouch_c, 0, 65, 0
1, 846246, Note_on_c, 0, 52, 103
1, 846249, Note_on_c, 0, 40, 85
1, 846269, Note_off_c, 0, 40, 63
1, 846278, Note_on_c, 0, 41, 58
1, 846278, Note_off_c, 0, 41, 127
1, 846278, Note_off_c, 0, 52, 69
1, 846306, Note_on_c, 0, 76, 70
1, 846309, Note_on_c, 0, 66, 111
1, 846309, Note_on_c, 0, 78, 101
1, 846312, Note_on_c, 0, 72, 91
1, 846321, Note_on_c, 0, 60, 110
1, 846345, Note_off_c, 0, 60, 74
1, 846378, Note_off_c, 0, 78, 60
1, 846382, Note_off_c, 0, 66, 61
1, 846385, Note_off_c, 0, 72, 64
1, 846389, Note_off_c, 0, 76, 64
1, 846683, Note_on_c, 0, 66, 105
1, 846683, Note_on_c, 0, 75, 103
1, 846684, Note_on_c, 0, 63, 105
1, 846685, Note_on_c, 0, 39, 126
1, 846687, Note_on_c, 0, 71, 96
1, 846690, Note_on_c, 0, 27, 98
1, 846695, Note_on_c, 0, 35, 92
1, 846696, Note_on_c, 0, 36, 88
1, 846714, Note_on_c, 0, 30, 46
1, 846714, Note_off_c, 0, 30, 127
1, 846747, Note_on_c, 0, 69, 46
1, 846751, Poly_aftertouch_c, 0, 30, 0
1, 846775, Note_off_c, 0, 75, 67
1, 846796, Note_off_c, 0, 69, 57
1, 846800, Note_off_c, 0, 71, 64
1, 846806, Note_off_c, 0, 63, 58
1, 846815, Note_off_c, 0, 66, 66
1, 846827, Note_off_c, 0, 36, 60
1, 846828, Note_off_c, 0, 35, 62
1, 846830, Note_off_c, 0, 39, 63
1, 846833, Note_off_c, 0, 27, 64
1, 846837, Control_c, 0, 64, 82
1, 846852, Control_c, 0, 64, 51
1, 846866, Control_c, 0, 64, 0
1, 846911, Note_on_c, 0, 34, 87
1, 846960, Note_off_c, 0, 34, 60
1, 847060, Note_on_c, 0, 35, 78
1, 847089, Note_off_c, 0, 35, 64
1, 847200, Note_on_c, 0, 46, 59
1, 847229, Note_off_c, 0, 46, 64
1, 847346, Note_on_c, 0, 36, 54
1, 847350, Note_on_c, 0, 47, 52
1, 847376, Note_off_c, 0, 36, 54
1, 847380, Note_off_c, 0, 47, 51
1, 847486, Note_on_c, 0, 31, 58
1, 847517, Note_off_c, 0, 31, 63
1, 847643, Note_on_c, 0, 48, 66
1, 847675, Note_off_c, 0, 48, 64
1, 847779, Note_on_c, 0, 34, 67
1, 847782, Note_on_c, 0, 43, 65
1, 847806, Note_off_c, 0, 34, 62
1, 847813, Note_off_c, 0, 43, 65
1, 847915, Note_on_c, 0, 35, 79
1, 847942, Note_off_c, 0, 35, 64
1, 848051, Note_on_c, 0, 46, 76
1, 848125, Note_off_c, 0, 46, 63
1, 848189, Note_on_c, 0, 36, 63
1, 848191, Note_on_c, 0, 47, 77
1, 848219, Note_off_c, 0, 36, 64
1, 848221, Note_off_c, 0, 47, 66
1, 848338, Note_on_c, 0, 31, 60
1, 848369, Note_off_c, 0, 31, 63
1, 848484, Note_on_c, 0, 48, 70
1, 848514, Note_off_c, 0, 48, 64
1, 848613, Note_on_c, 0, 34, 55
1, 848614, Note_on_c, 0, 43, 72
1, 848642, Note_off_c, 0, 43, 65
1, 848658, Note_off_c, 0, 34, 58
1, 848749, Note_on_c, 0, 35, 74
1, 848776, Note_off_c, 0, 35, 65
1, 848880, Note_on_c, 0, 51, 80
1, 848913, Note_off_c, 0, 51, 66
1, 849010, Note_on_c, 0, 52, 78
1, 849018, Note_on_c, 0, 36, 52
1, 849045, Note_off_c, 0, 52, 64
1, 849056, Note_off_c, 0, 36, 59
1, 849140, Note_on_c, 0, 31, 64
1, 849168, Note_off_c, 0, 31, 64
1, 849283, Note_on_c, 0, 53, 85
1, 849340, Note_off_c, 0, 53, 61
1, 849411, Note_on_c, 0, 34, 61
1, 849413, Note_on_c, 0, 48, 72
1, 849447, Note_off_c, 0, 48, 62
1, 849453, Note_off_c, 0, 34, 63
1, 849546, Note_on_c, 0, 35, 72
1, 849573, Note_off_c, 0, 35, 65
1, 849663, Note_on_c, 0, 51, 86
1, 849725, Note_off_c, 0, 51, 66
1, 849801, Note_on_c, 0, 52, 79
1, 849808, Note_on_c, 0, 36, 73
1, 849831, Note_off_c, 0, 52, 61
1, 849839, Note_off_c, 0, 36, 65
1, 849930, Note_on_c, 0, 31, 64
1, 849957, Note_off_c, 0, 31, 64
1, 850074, Note_on_c, 0, 53, 71
1, 850104, Note_off_c, 0, 53, 63
1, 850178, Note_on_c, 0, 39, 83
1, 850189, Note_on_c, 0, 48, 77
1, 850214, Note_off_c, 0, 48, 67
1, 850222, Note_off_c, 0, 39, 59
1, 850303, Note_on_c, 0, 40, 78
1, 850334, Note_off_c, 0, 40, 64
1, 850431, Note_on_c, 0, 56, 77
1, 850466, Note_off_c, 0, 56, 63
1, 850557, Note_on_c, 0, 41, 94
1, 850565, Note_on_c, 0, 57, 80
1, 850593, Note_off_c, 0, 57, 67
1, 850611, Note_off_c, 0, 41, 65
1, 850678, Note_on_c, 0, 36, 77
1, 850711, Note_off_c, 0, 36, 68
1, 850818, Note_on_c, 0, 58, 81
1, 850859, Note_off_c, 0, 58, 57
1, 850918, Note_on_c, 0, 39, 89
1, 850935, Note_on_c, 0, 53, 68
1, 850976, Note_off_c, 0, 53, 59
1, 851015, Note_off_c, 0, 39, 64
1, 851050, Note_on_c, 0, 40, 95
1, 851089, Note_off_c, 0, 40, 65
1, 851164, Note_on_c, 0, 56, 85
1, 851215, Note_off_c, 0, 56, 64
1, 851303, Note_on_c, 0, 57, 90
1, 851304, Note_on_c, 0, 41, 86
1, 851334, Note_off_c, 0, 57, 64
1, 851349, Note_off_c, 0, 41, 63
1, 851439, Note_on_c, 0, 36, 71
1, 851465, Note_off_c, 0, 36, 64
1, 851558, Note_on_c, 0, 58, 90
1, 851611, Note_off_c, 0, 58, 63
1, 851680, Note_on_c, 0, 53, 75
1, 851686, Note_on_c, 0, 39, 73
1, 851720, Note_off_c, 0, 53, 63
1, 851722, Note_off_c, 0, 39, 67
1, 851798, Note_on_c, 0, 40, 84
1, 851834, Note_off_c, 0, 40, 65
1, 851908, Note_on_c, 0, 61, 80
1, 851910, Note_on_c, 0, 56, 77
1, 851942, Note_off_c, 0, 56, 62
1, 851966, Note_off_c, 0, 61, 62
1, 852037, Note_on_c, 0, 62, 82
1, 852038, Note_on_c, 0, 57, 79
1, 852044, Note_on_c, 0, 41, 78
1, 852064, Note_off_c, 0, 57, 68
1, 852078, Note_off_c, 0, 62, 61
1, 852087, Note_off_c, 0, 41, 63
1, 852157, Note_on_c, 0, 36, 80
1, 852201, Note_off_c, 0, 36, 58
1, 852282, Note_on_c, 0, 63, 89
1, 852284, Note_on_c, 0, 58, 92
1, 852334, Note_off_c, 0, 58, 63
1, 852343, Note_off_c, 0, 63, 64
1, 852401, Note_on_c, 0, 53, 76
1, 852402, Note_on_c, 0, 39, 78
1, 852418, Note_on_c, 0, 58, 59
1, 852440, Note_off_c, 0, 53, 62
1, 852442, Note_off_c, 0, 58, 59
1, 852443, Note_off_c, 0, 39, 64
1, 852529, Note_on_c, 0, 40, 85
1, 852568, Note_off_c, 0, 40, 63
1, 852628, Note_on_c, 0, 61, 89
1, 852631, Note_on_c, 0, 56, 88
1, 852687, Note_off_c, 0, 56, 63
1, 852702, Note_off_c, 0, 61, 62
1, 852742, Note_on_c, 0, 62, 89
1, 852743, Note_on_c, 0, 57, 82
1, 852752, Note_on_c, 0, 41, 95
1, 852778, Note_off_c, 0, 57, 66
1, 852792, Note_off_c, 0, 62, 62
1, 852808, Note_off_c, 0, 41, 65
1, 852867, Note_on_c, 0, 36, 89
1, 852895, Note_off_c, 0, 36, 68
1, 852991, Note_on_c, 0, 58, 90
1, 852991, Note_on_c, 0, 63, 90
1, 853037, Note_off_c, 0, 58, 62
1, 853046, Note_off_c, 0, 63, 63
1, 853104, Note_on_c, 0, 53, 82
1, 853105, Note_on_c, 0, 58, 82
1, 853110, Note_on_c, 0, 45, 92
1, 853134, Note_off_c, 0, 58, 67
1, 853137, Note_off_c, 0, 53, 65
1, 853158, Note_off_c, 0, 45, 64
1, 853215, Note_on_c, 0, 46, 103
1, 853252, Note_off_c, 0, 46, 63
1, 853330, Note_on_c, 0, 60, 81
1, 853330, Note_on_c, 0, 65, 80
1, 853374, Note_on_c, 0, 63, 35
1, 853383, Note_off_c, 0, 65, 62
1, 853390, Note_off_c, 0, 60, 64
1, 853407, Note_off_c, 0, 63, 47
1, 853444, Note_on_c, 0, 54, 88
1, 853444, Note_on_c, 0, 66, 98
1, 853447, Note_on_c, 0, 47, 97
1, 853480, Note_off_c, 0, 54, 63
1, 853490, Note_off_c, 0, 66, 62
1, 853492, Note_off_c, 0, 47, 67
1, 853565, Note_on_c, 0, 41, 97
1, 853603, Note_off_c, 0, 41, 67
1, 853680, Note_on_c, 0, 55, 98
1, 853686, Note_on_c, 0, 67, 97
1, 853722, Note_off_c, 0, 55, 65
1, 853736, Note_off_c, 0, 67, 60
1, 853791, Note_on_c, 0, 45, 91
1, 853794, Note_on_c, 0, 62, 85
1, 853796, Note_on_c, 0, 59, 81
1, 853814, Note_on_c, 0, 47, 54
1, 853814, Note_off_c, 0, 47, 127
1, 853829, Note_off_c, 0, 59, 63
1, 853834, Note_off_c, 0, 45, 63
1, 853853, Poly_aftertouch_c, 0, 47, 0
1, 853853, Note_off_c, 0, 62, 58
1, 853901, Note_on_c, 0, 46, 104
1, 853939, Note_off_c, 0, 46, 65
1, 853998, Note_on_c, 0, 65, 60
1, 854001, Note_on_c, 0, 60, 82
1, 854041, Note_on_c, 0, 63, 39
1, 854059, Note_off_c, 0, 65, 64
1, 854068, Note_off_c, 0, 63, 49
1, 854073, Note_off_c, 0, 60, 64
1, 854117, Note_on_c, 0, 47, 101
1, 854117, Note_on_c, 0, 54, 90
1, 854118, Note_on_c, 0, 66, 99
1, 854151, Note_off_c, 0, 54, 65
1, 854160, Note_off_c, 0, 66, 63
1, 854165, Note_off_c, 0, 47, 67
1, 854224, Note_on_c, 0, 41, 97
1, 854261, Note_off_c, 0, 41, 67
1, 854349, Note_on_c, 0, 55, 104
1, 854355, Note_on_c, 0, 67, 91
1, 854389, Note_off_c, 0, 55, 66
1, 854392, Note_off_c, 0, 67, 63
1, 854448, Note_on_c, 0, 50, 98
1, 854455, Note_on_c, 0, 59, 90
1, 854458, Note_on_c, 0, 62, 88
1, 854484, Note_off_c, 0, 59, 68
1, 854494, Note_off_c, 0, 50, 67
1, 854496, Note_off_c, 0, 62, 61
1, 854559, Note_on_c, 0, 51, 113
1, 854595, Note_off_c, 0, 51, 67
1, 854659, Note_on_c, 0, 67, 74
1, 854661, Note_on_c, 0, 62, 91
1, 854720, Note_off_c, 0, 67, 62
1, 854729, Note_off_c, 0, 62, 64
1, 854775, Note_on_c, 0, 58, 101
1, 854776, Note_on_c, 0, 52, 104
1, 854777, Note_on_c, 0, 68, 95
1, 854811, Note_off_c, 0, 58, 66
1, 854819, Note_off_c, 0, 68, 65
1, 854821, Note_off_c, 0, 52, 67
1, 854873, Note_on_c, 0, 46, 94
1, 854918, Note_off_c, 0, 46, 65
1, 854982, Note_on_c, 0, 57, 101
1, 854984, Note_on_c, 0, 69, 102
1, 855030, Note_off_c, 0, 57, 67
1, 855046, Note_off_c, 0, 69, 52
1, 855094, Note_on_c, 0, 50, 104
1, 855095, Note_on_c, 0, 61, 80
1, 855105, Note_on_c, 0, 64, 72
1, 855105, Note_on_c, 0, 65, 69
1, 855136, Note_off_c, 0, 50, 67
1, 855144, Note_off_c, 0, 61, 60
1, 855152, Note_off_c, 0, 65, 58
1, 855161, Note_off_c, 0, 64, 57
1, 855197, Note_on_c, 0, 51, 105
1, 855234, Note_off_c, 0, 51, 68
1, 855304, Note_on_c, 0, 62, 85
1, 855304, Note_on_c, 0, 67, 82
1, 855366, Note_off_c, 0, 67, 64
1, 855375, Note_off_c, 0, 62, 63
1, 855405, Note_on_c, 0, 58, 98
1, 855406, Note_on_c, 0, 68, 94
1, 855412, Note_on_c, 0, 52, 104
1, 855444, Note_off_c, 0, 58, 66
1, 855456, Note_off_c, 0, 52, 68
1, 855459, Note_off_c, 0, 68, 62
1, 855502, Note_on_c, 0, 46, 99
1, 855550, Note_off_c, 0, 46, 65
1, 855617, Note_on_c, 0, 57, 100
1, 855619, Note_on_c, 0, 69, 97
1, 855661, Note_off_c, 0, 57, 65
1, 855666, Note_off_c, 0, 69, 61
1, 855725, Note_on_c, 0, 61, 88
1, 855728, Note_on_c, 0, 64, 88
1, 855736, Note_on_c, 0, 45, 98
1, 855737, Note_on_c, 0, 33, 93
1, 855763, Note_off_c, 0, 45, 69
1, 855765, Note_off_c, 0, 33, 67
1, 855779, Note_off_c, 0, 64, 64
1, 855781, Note_off_c, 0, 61, 62
1, 855851, Note_on_c, 0, 34, 97
1, 855853, Note_on_c, 0, 46, 102
1, 855898, Note_off_c, 0, 46, 59
1, 855904, Note_off_c, 0, 34, 63
1, 855949, Note_on_c, 0, 59, 84
1, 855951, Note_on_c, 0, 57, 89
1, 856029, Note_off_c, 0, 57, 59
1, 856035, Note_off_c, 0, 59, 62
1, 856050, Note_on_c, 0, 47, 96
1, 856056, Note_on_c, 0, 35, 91
1, 856059, Note_on_c, 0, 66, 88
1, 856062, Note_on_c, 0, 63, 85
1, 856064, Note_on_c, 0, 36, 70
1, 856065, Note_on_c, 0, 70, 86
1, 856071, Note_off_c, 0, 47, 71
1, 856082, Note_off_c, 0, 35, 68
1, 856082, Note_off_c, 0, 63, 69
1, 856085, Note_on_c, 0, 48, 36
1, 856085, Note_off_c, 0, 48, 127
1, 856089, Note_off_c, 0, 36, 61
1, 856101, Note_off_c, 0, 66, 66
1, 856112, Note_off_c, 0, 70, 66
1, 856132, Poly_aftertouch_c, 0, 48, 0
1, 856154, Note_on_c, 0, 42, 102
1, 856158, Note_on_c, 0, 30, 85
1, 856163, Note_on_c, 0, 69, 89
1, 856163, Note_on_c, 0, 71, 96
1, 856183, Note_on_c, 0, 29, 58
1, 856192, Note_off_c, 0, 30, 64
1, 856199, Note_off_c, 0, 42, 64
1, 856220, Note_off_c, 0, 29, 56
1, 856234, Note_off_c, 0, 69, 63
1, 856237, Note_off_c, 0, 71, 61
1, 856267, Note_on_c, 0, 78, 87
1, 856268, Note_on_c, 0, 75, 87
1, 856273, Note_on_c, 0, 82, 83
1, 856295, Note_off_c, 0, 75, 65
1, 856304, Note_off_c, 0, 78, 64
1, 856313, Note_off_c, 0, 82, 66
1, 856363, Note_on_c, 0, 45, 98
1, 856363, Note_on_c, 0, 33, 88
1, 856369, Note_on_c, 0, 81, 93
1, 856375, Note_on_c, 0, 83, 96
1, 856401, Note_off_c, 0, 45, 66
1, 856403, Note_off_c, 0, 33, 61
1, 856446, Note_off_c, 0, 83, 56
1, 856447, Note_off_c, 0, 81, 60
1, 856471, Note_on_c, 0, 46, 98
1, 856473, Note_on_c, 0, 87, 96
1, 856473, Note_on_c, 0, 90, 96
1, 856473, Note_on_c, 0, 34, 93
1, 856476, Control_c, 0, 64, 28
1, 856478, Note_on_c, 0, 94, 99
1, 856495, Note_off_c, 0, 87, 68
1, 856510, Note_off_c, 0, 90, 68
1, 856515, Note_on_c, 0, 92, 34
1, 856515, Note_off_c, 0, 92, 127
1, 856527, Control_c, 0, 64, 0
1, 856532, Note_off_c, 0, 94, 66
1, 856536, Note_off_c, 0, 34, 61
1, 856544, Note_off_c, 0, 46, 51
1, 856580, Note_on_c, 0, 93, 106
1, 856582, Note_on_c, 0, 95, 101
1, 856617, Control_c, 0, 64, 28
1, 856632, Control_c, 0, 64, 31
1, 856647, Control_c, 0, 64, 34
1, 856662, Control_c, 0, 64, 35
1, 856676, Control_c, 0, 64, 36
1, 856684, Note_on_c, 0, 99, 111
1, 856686, Note_on_c, 0, 47, 98
1, 856686, Note_on_c, 0, 102, 101
1, 856686, Note_on_c, 0, 106, 110
1, 856687, Note_on_c, 0, 35, 101
1, 856691, Control_c, 0, 64, 36
1, 856702, Note_off_c, 0, 95, 68
1, 856703, Note_on_c, 0, 98, 77
1, 856703, Note_off_c, 0, 93, 67
1, 856720, Note_off_c, 0, 98, 69
1, 856721, Control_c, 0, 64, 37
1, 856725, Note_off_c, 0, 47, 66
1, 856728, Note_off_c, 0, 35, 65
1, 856736, Control_c, 0, 64, 39
1, 856740, Note_on_c, 0, 101, 7
1, 856750, Control_c, 0, 64, 41
1, 856765, Control_c, 0, 64, 42
1, 856777, Note_off_c, 0, 101, 31
1, 856780, Control_c, 0, 64, 43
1, 856783, Note_off_c, 0, 106, 59
1, 856785, Note_on_c, 0, 93, 97
1, 856789, Note_on_c, 0, 95, 84
1, 856793, Note_off_c, 0, 99, 65
1, 856795, Control_c, 0, 64, 44
1, 856797, Note_off_c, 0, 102, 66
1, 856801, Note_on_c, 0, 44, 92
1, 856804, Note_on_c, 0, 32, 91
1, 856806, Note_on_c, 0, 42, 81
1, 856807, Note_off_c, 0, 95, 70
1, 856824, Note_off_c, 0, 44, 68
1, 856825, Control_c, 0, 64, 42
1, 856831, Note_off_c, 0, 93, 66
1, 856833, Note_on_c, 0, 31, 37
1, 856834, Note_off_c, 0, 32, 64
1, 856836, Note_off_c, 0, 42, 67
1, 856840, Control_c, 0, 64, 40
1, 856854, Control_c, 0, 64, 36
1, 856854, Control_c, 0, 67, 42
1, 856869, Control_c, 0, 64, 33
1, 856869, Control_c, 0, 67, 47
1, 856870, Note_off_c, 0, 31, 53
1, 856884, Control_c, 0, 64, 29
1, 856899, Control_c, 0, 64, 0
1, 856899, Control_c, 0, 67, 49
1, 856907, Note_on_c, 0, 94, 88
1, 856913, Note_on_c, 0, 90, 85
1, 856914, Control_c, 0, 67, 51
1, 856920, Note_on_c, 0, 87, 71
1, 856929, Control_c, 0, 67, 56
1, 856941, Note_on_c, 0, 34, 46
1, 856943, Control_c, 0, 67, 70
1, 856958, Control_c, 0, 67, 88
1, 856960, Note_off_c, 0, 94, 64
1, 856962, Note_off_c, 0, 90, 65
1, 856973, Control_c, 0, 67, 107
1, 856977, Note_off_c, 0, 34, 54
1, 856988, Control_c, 0, 67, 122
1, 856993, Note_off_c, 0, 87, 61
1, 857002, Control_c, 0, 67, 127
1, 857005, Note_on_c, 0, 33, 46
1, 857009, Note_on_c, 0, 45, 87
1, 857009, Note_on_c, 0, 81, 93
1, 857045, Note_off_c, 0, 45, 65
1, 857051, Note_off_c, 0, 81, 64
1, 857057, Note_off_c, 0, 33, 63
1, 857122, Note_on_c, 0, 82, 77
1, 857126, Note_on_c, 0, 34, 89
1, 857129, Note_on_c, 0, 78, 69
1, 857129, Note_on_c, 0, 46, 87
1, 857130, Note_on_c, 0, 75, 72
1, 857164, Note_off_c, 0, 46, 62
1, 857174, Note_off_c, 0, 34, 60
1, 857188, Note_off_c, 0, 82, 63
1, 857214, Note_off_c, 0, 78, 60
1, 857227, Note_on_c, 0, 47, 83
1, 857227, Note_on_c, 0, 35, 85
1, 857229, Note_off_c, 0, 75, 62
1, 857236, Note_on_c, 0, 69, 80
1, 857250, Note_off_c, 0, 47, 69
1, 857258, Note_off_c, 0, 35, 68
1, 857283, Note_off_c, 0, 69, 64
1, 857349, Note_on_c, 0, 30, 90
1, 857350, Note_on_c, 0, 42, 91
1, 857352, Note_on_c, 0, 66, 84
1, 857352, Note_on_c, 0, 63, 84
1, 857355, Note_on_c, 0, 70, 76
1, 857379, Note_on_c, 0, 68, 36
1, 857379, Note_off_c, 0, 42, 68
1, 857385, Note_off_c, 0, 30, 62
1, 857409, Note_off_c, 0, 68, 53
1, 857409, Note_off_c, 0, 63, 63
1, 857418, Note_off_c, 0, 66, 61
1, 857427, Note_off_c, 0, 70, 62
1, 857451, Note_on_c, 0, 33, 73
1, 857459, Note_on_c, 0, 59, 71
1, 857460, Note_on_c, 0, 57, 75
1, 857463, Note_on_c, 0, 45, 58
1, 857479, Note_off_c, 0, 33, 63
1, 857495, Note_off_c, 0, 45, 56
1, 857516, Note_off_c, 0, 57, 60
1, 857523, Note_off_c, 0, 59, 62
1, 857552, Note_on_c, 0, 34, 84
1, 857552, Note_on_c, 0, 46, 83
1, 857570, Note_on_c, 0, 66, 66
1, 857572, Note_on_c, 0, 63, 61
1, 857572, Note_on_c, 0, 70, 71
1, 857586, Note_off_c, 0, 46, 62
1, 857593, Note_off_c, 0, 63, 64
1, 857594, Note_off_c, 0, 34, 62
1, 857598, Note_off_c, 0, 66, 67
1, 857606, Note_off_c, 0, 70, 65
1, 857650, Note_on_c, 0, 35, 88
1, 857655, Note_on_c, 0, 47, 78
1, 857661, Note_on_c, 0, 69, 74
1, 857665, Note_on_c, 0, 71, 86
1, 857683, Note_off_c, 0, 47, 69
1, 857683, Note_off_c, 0, 35, 66
1, 857692, Control_c, 0, 64, 28
1, 857700, Note_on_c, 0, 45, 17
1, 857734, Note_off_c, 0, 69, 63
1, 857734, Note_off_c, 0, 71, 59
1, 857737, Control_c, 0, 64, 30
1, 857748, Note_off_c, 0, 45, 30
1, 857751, Control_c, 0, 64, 32
1, 857762, Note_on_c, 0, 78, 90
1, 857763, Note_on_c, 0, 42, 103
1, 857764, Note_on_c, 0, 30, 96
1, 857764, Note_on_c, 0, 75, 85
1, 857764, Note_on_c, 0, 82, 86
1, 857781, Control_c, 0, 64, 32
1, 857790, Note_off_c, 0, 75, 68
1, 857796, Note_off_c, 0, 42, 61
1, 857798, Note_off_c, 0, 30, 61
1, 857805, Note_off_c, 0, 78, 62
1, 857811, Control_c, 0, 64, 33
1, 857811, Control_c, 0, 67, 118
1, 857816, Note_off_c, 0, 82, 63
1, 857818, Note_on_c, 0, 29, 11
1, 857825, Control_c, 0, 64, 33
1, 857825, Control_c, 0, 67, 103
1, 857840, Control_c, 0, 64, 34
1, 857840, Control_c, 0, 67, 90
1, 857855, Control_c, 0, 67, 81
1, 857859, Note_on_c, 0, 45, 87
1, 857862, Note_on_c, 0, 33, 87
1, 857870, Note_off_c, 0, 29, 41
1, 857870, Control_c, 0, 67, 81
1, 857873, Note_on_c, 0, 83, 81
1, 857880, Note_on_c, 0, 81, 75
1, 857880, Note_off_c, 0, 45, 69
1, 857885, Control_c, 0, 67, 80
1, 857893, Note_off_c, 0, 33, 66
1, 857929, Control_c, 0, 67, 79
1, 857943, Control_c, 0, 67, 77
1, 857945, Note_off_c, 0, 81, 51
1, 857950, Note_off_c, 0, 83, 63
1, 857958, Control_c, 0, 67, 75
1, 857961, Note_on_c, 0, 46, 91
1, 857963, Note_on_c, 0, 34, 93
1, 857968, Note_on_c, 0, 90, 92
1, 857971, Note_on_c, 0, 94, 90
1, 857973, Control_c, 0, 67, 70
1, 857975, Note_on_c, 0, 87, 76
1, 857988, Control_c, 0, 67, 60
1, 857996, Note_off_c, 0, 87, 72
1, 857998, Note_off_c, 0, 46, 60
1, 858003, Control_c, 0, 67, 47
1, 858004, Note_off_c, 0, 90, 64
1, 858017, Note_off_c, 0, 34, 60
1, 858022, Note_off_c, 0, 94, 65
1, 858025, Control_c, 0, 67, 0
1, 858040, Control_c, 0, 64, 33
1, 858070, Control_c, 0, 64, 33
1, 858071, Note_on_c, 0, 93, 97
1, 858071, Note_on_c, 0, 35, 92
1, 858074, Note_on_c, 0, 47, 94
1, 858077, Note_on_c, 0, 95, 103
1, 858097, Note_off_c, 0, 47, 72
1, 858114, Note_off_c, 0, 35, 63
1, 858145, Control_c, 0, 64, 33
1, 858154, Note_off_c, 0, 95, 50
1, 858160, Control_c, 0, 64, 34
1, 858175, Control_c, 0, 64, 35
1, 858180, Note_on_c, 0, 99, 103
1, 858180, Note_on_c, 0, 102, 102
1, 858181, Note_on_c, 0, 106, 108
1, 858184, Note_on_c, 0, 42, 101
1, 858186, Note_on_c, 0, 30, 97
1, 858186, Note_on_c, 0, 95, 62
1, 858190, Control_c, 0, 64, 37
1, 858200, Note_off_c, 0, 93, 65
1, 858204, Control_c, 0, 64, 38
1, 858208, Note_off_c, 0, 95, 57
1, 858219, Control_c, 0, 64, 40
1, 858226, Note_on_c, 0, 29, 38
1, 858231, Note_off_c, 0, 30, 60
1, 858231, Note_off_c, 0, 42, 63
1, 858233, Note_on_c, 0, 104, 7
1, 858233, Note_off_c, 0, 104, 127
1, 858234, Control_c, 0, 64, 41
1, 858248, Control_c, 0, 64, 44
1, 858253, Note_off_c, 0, 106, 64
1, 858263, Control_c, 0, 64, 46
1, 858269, Note_off_c, 0, 29, 47
1, 858270, Note_off_c, 0, 99, 61
1, 858272, Note_off_c, 0, 102, 65
1, 858278, Control_c, 0, 64, 47
1, 858286, Note_on_c, 0, 93, 93
1, 858288, Note_on_c, 0, 47, 85
1, 858293, Note_on_c, 0, 33, 78
1, 858293, Control_c, 0, 64, 47
1, 858294, Note_on_c, 0, 45, 80
1, 858309, Note_on_c, 0, 35, 65
1, 858312, Note_off_c, 0, 47, 69
1, 858316, Note_off_c, 0, 45, 67
1, 858322, Control_c, 0, 64, 47
1, 858327, Note_off_c, 0, 33, 66
1, 858330, Note_off_c, 0, 93, 65
1, 858334, Note_off_c, 0, 35, 57
1, 858337, Control_c, 0, 64, 46
1, 858352, Control_c, 0, 64, 45
1, 858367, Control_c, 0, 64, 44
1, 858381, Control_c, 0, 64, 43
1, 858396, Note_on_c, 0, 46, 94
1, 858396, Note_on_c, 0, 94, 93
1, 858396, Control_c, 0, 64, 42
1, 858398, Note_on_c, 0, 90, 92
1, 858399, Note_on_c, 0, 34, 97
1, 858402, Note_on_c, 0, 87, 82
1, 858428, Note_off_c, 0, 46, 62
1, 858450, Note_off_c, 0, 34, 62
1, 858454, Note_off_c, 0, 94, 61
1, 858455, Control_c, 0, 64, 43
1, 858470, Control_c, 0, 64, 43
1, 858484, Note_off_c, 0, 90, 64
1, 858485, Note_on_c, 0, 47, 95
1, 858486, Note_on_c, 0, 35, 86
1, 858495, Note_on_c, 0, 81, 84
1, 858496, Note_off_c, 0, 87, 60
1, 858499, Note_on_c, 0, 83, 72
1, 858512, Note_off_c, 0, 47, 66
1, 858521, Note_off_c, 0, 83, 65
1, 858530, Note_off_c, 0, 81, 63
1, 858531, Note_off_c, 0, 35, 62
1, 858560, Control_c, 0, 64, 43
1, 858574, Control_c, 0, 64, 42
1, 858594, Note_on_c, 0, 82, 90
1, 858596, Note_on_c, 0, 78, 91
1, 858598, Note_on_c, 0, 75, 94
1, 858603, Note_on_c, 0, 42, 100
1, 858604, Control_c, 0, 64, 42
1, 858607, Note_on_c, 0, 30, 79
1, 858616, Note_on_c, 0, 28, 79
1, 858629, Note_on_c, 0, 72, 37
1, 858629, Note_off_c, 0, 72, 127
1, 858631, Note_on_c, 0, 29, 61
1, 858633, Note_off_c, 0, 42, 62
1, 858645, Note_off_c, 0, 30, 63
1, 858646, Note_off_c, 0, 28, 64
1, 858652, Note_off_c, 0, 82, 66
1, 858661, Note_off_c, 0, 29, 57
1, 858677, Note_off_c, 0, 75, 55
1, 858679, Note_off_c, 0, 78, 60
1, 858682, Note_on_c, 0, 43, 93
1, 858685, Note_on_c, 0, 31, 84
1, 858701, Note_on_c, 0, 69, 90
1, 858706, Note_off_c, 0, 31, 64
1, 858715, Note_off_c, 0, 43, 65
1, 858737, Control_c, 0, 64, 42
1, 858743, Note_off_c, 0, 69, 67
1, 858752, Control_c, 0, 64, 43
1, 858801, Note_on_c, 0, 34, 80
1, 858804, Note_on_c, 0, 46, 82
1, 858811, Note_on_c, 0, 63, 85
1, 858812, Note_on_c, 0, 66, 87
1, 858814, Note_on_c, 0, 70, 83
1, 858826, Note_off_c, 0, 46, 67
1, 858831, Note_off_c, 0, 63, 71
1, 858848, Control_c, 0, 64, 43
1, 858854, Note_off_c, 0, 66, 65
1, 858855, Note_off_c, 0, 34, 62
1, 858861, Note_off_c, 0, 70, 66
1, 858863, Control_c, 0, 64, 45
1, 858878, Control_c, 0, 64, 46
1, 858891, Note_on_c, 0, 45, 82
1, 858893, Control_c, 0, 64, 47
1, 858894, Poly_aftertouch_c, 0, 34, 0
1, 858906, Note_on_c, 0, 71, 90
1, 858908, Note_on_c, 0, 31, 62
1, 858908, Note_on_c, 0, 33, 57
1, 858918, Note_off_c, 0, 45, 68
1, 858922, Note_on_c, 0, 69, 64
1, 858922, Note_off_c, 0, 69, 127
1, 858936, Note_off_c, 0, 33, 61
1, 858938, Note_off_c, 0, 31, 62
1, 858969, Note_off_c, 0, 71, 63
1, 858995, Control_c, 0, 64, 46
1, 859005, Note_on_c, 0, 42, 97
1, 859007, Note_on_c, 0, 75, 93
1, 859007, Note_on_c, 0, 78, 92
1, 859008, Note_on_c, 0, 82, 92
1, 859010, Control_c, 0, 64, 45
1, 859012, Note_on_c, 0, 30, 71
1, 859016, Note_on_c, 0, 28, 85
1, 859025, Control_c, 0, 64, 45
1, 859028, Note_on_c, 0, 27, 52
1, 859028, Note_off_c, 0, 27, 127
1, 859031, Note_off_c, 0, 42, 66
1, 859036, Note_on_c, 0, 29, 57
1, 859037, Note_off_c, 0, 75, 66
1, 859040, Control_c, 0, 64, 44
1, 859043, Note_on_c, 0, 80, 44
1, 859045, Note_off_c, 0, 78, 66
1, 859046, Note_off_c, 0, 28, 65
1, 859055, Note_off_c, 0, 82, 65
1, 859056, Note_off_c, 0, 80, 38
1, 859058, Note_off_c, 0, 30, 63
1, 859073, Note_off_c, 0, 29, 49
1, 859104, Note_on_c, 0, 45, 89
1, 859105, Note_on_c, 0, 31, 71
1, 859105, Note_on_c, 0, 83, 107
1, 859129, Note_off_c, 0, 45, 70
1, 859129, Control_c, 0, 64, 44
1, 859130, Note_off_c, 0, 31, 65
1, 859135, Note_on_c, 0, 84, 56
1, 859156, Note_off_c, 0, 84, 40
1, 859174, Control_c, 0, 64, 43
1, 859185, Note_off_c, 0, 83, 56
1, 859194, Note_on_c, 0, 34, 98
1, 859194, Note_on_c, 0, 46, 97
1, 859197, Note_on_c, 0, 90, 101
1, 859198, Note_on_c, 0, 87, 93
1, 859202, Note_on_c, 0, 94, 100
1, 859218, Note_on_c, 0, 92, 70
1, 859218, Note_off_c, 0, 46, 67
1, 859218, Control_c, 0, 64, 44
1, 859221, Note_off_c, 0, 87, 69
1, 859227, Note_on_c, 0, 33, 55
1, 859233, Control_c, 0, 64, 46
1, 859234, Note_off_c, 0, 90, 69
1, 859235, Note_off_c, 0, 92, 64
1, 859242, Note_off_c, 0, 94, 67
1, 859248, Control_c, 0, 64, 49
1, 859248, Note_off_c, 0, 34, 63
1, 859262, Note_off_c, 0, 33, 54
1, 859262, Control_c, 0, 64, 51
1, 859277, Control_c, 0, 64, 52
1, 859288, Note_on_c, 0, 43, 102
1, 859292, Note_on_c, 0, 32, 44
1, 859297, Note_on_c, 0, 31, 84
1, 859297, Note_on_c, 0, 93, 105
1, 859298, Note_on_c, 0, 95, 105
1, 859320, Note_off_c, 0, 31, 70
1, 859323, Note_off_c, 0, 32, 59
1, 859324, Note_off_c, 0, 43, 64
1, 859337, Control_c, 0, 64, 51
1, 859351, Control_c, 0, 64, 51
1, 859366, Control_c, 0, 64, 50
1, 859379, Note_off_c, 0, 95, 61
1, 859381, Control_c, 0, 64, 50
1, 859395, Control_c, 0, 64, 50
1, 859403, Note_on_c, 0, 42, 115
1, 859403, Note_on_c, 0, 95, 75
1, 859404, Note_on_c, 0, 30, 105
1, 859404, Note_on_c, 0, 99, 111
1, 859404, Note_on_c, 0, 102, 100
1, 859406, Note_on_c, 0, 106, 106
1, 859413, Note_on_c, 0, 32, 79
1, 859416, Note_on_c, 0, 104, 85
1, 859420, Note_off_c, 0, 93, 68
1, 859424, Note_off_c, 0, 95, 66
1, 859427, Note_on_c, 0, 29, 62
1, 859429, Note_on_c, 0, 28, 66
1, 859438, Note_off_c, 0, 32, 60
1, 859457, Note_off_c, 0, 30, 63
1, 859458, Note_off_c, 0, 42, 60
1, 859459, Note_off_c, 0, 29, 56
1, 859460, Note_off_c, 0, 28, 57
1, 859481, Note_off_c, 0, 106, 64
1, 859489, Note_off_c, 0, 104, 51
1, 859491, Note_off_c, 0, 102, 68
1, 859520, Note_off_c, 0, 99, 60
1, 859532, Note_on_c, 0, 46, 101
1, 859539, Note_on_c, 0, 34, 95
1, 859540, Note_on_c, 0, 32, 80
1, 859540, Note_on_c, 0, 91, 89
1, 859540, Note_on_c, 0, 93, 82
1, 859551, Control_c, 0, 64, 50
1, 859565, Note_off_c, 0, 34, 68
1, 859566, Note_off_c, 0, 32, 63
1, 859566, Note_off_c, 0, 46, 61
1, 859566, Control_c, 0, 64, 48
1, 859572, Note_off_c, 0, 93, 51
1, 859577, Note_off_c, 0, 91, 66
1, 859581, Control_c, 0, 64, 46
1, 859595, Control_c, 0, 64, 43
1, 859610, Control_c, 0, 64, 41
1, 859625, Control_c, 0, 64, 40
1, 859633, Note_on_c, 0, 47, 97
1, 859636, Note_on_c, 0, 94, 100
1, 859637, Note_on_c, 0, 35, 91
1, 859639, Note_on_c, 0, 90, 91
1, 859640, Note_on_c, 0, 33, 70
1, 859641, Note_on_c, 0, 87, 94
1, 859649, Note_on_c, 0, 34, 71
1, 859655, Control_c, 0, 64, 39
1, 859663, Note_on_c, 0, 86, 55
1, 859663, Note_off_c, 0, 86, 127
1, 859663, Note_off_c, 0, 47, 71
1, 859665, Note_off_c, 0, 35, 68
1, 859666, Note_off_c, 0, 33, 65
1, 859669, Control_c, 0, 64, 35
1, 859672, Note_off_c, 0, 34, 63
1, 859684, Control_c, 0, 64, 0
1, 859690, Note_off_c, 0, 94, 67
1, 859712, Note_off_c, 0, 90, 66
1, 859736, Note_on_c, 0, 51, 100
1, 859737, Note_on_c, 0, 37, 101
1, 859738, Note_on_c, 0, 49, 100
1, 859740, Note_on_c, 0, 39, 92
1, 859740, Note_on_c, 0, 83, 80
1, 859740, Note_off_c, 0, 87, 54
1, 859750, Note_on_c, 0, 81, 80
1, 859758, Note_off_c, 0, 49, 73
1, 859761, Note_off_c, 0, 37, 68
1, 859765, Note_off_c, 0, 51, 65
1, 859775, Note_off_c, 0, 81, 51
1, 859776, Note_off_c, 0, 39, 64
1, 859776, Note_off_c, 0, 83, 67
1, 859834, Note_on_c, 0, 82, 83
1, 859835, Note_on_c, 0, 54, 110
1, 859835, Note_on_c, 0, 78, 89
1, 859837, Note_on_c, 0, 42, 107
1, 859850, Note_on_c, 0, 77, 62
1, 859856, Note_on_c, 0, 75, 45
1, 859856, Note_off_c, 0, 75, 127
1, 859860, Note_on_c, 0, 80, 52
1, 859865, Note_off_c, 0, 54, 67
1, 859866, Note_on_c, 0, 76, 64
1, 859875, Note_off_c, 0, 42, 62
1, 859886, Note_off_c, 0, 77, 47
1, 859887, Note_off_c, 0, 76, 65
1, 859888, Note_off_c, 0, 80, 61
1, 859907, Note_off_c, 0, 82, 59
1, 859921, Note_off_c, 0, 78, 63
1, 859927, Note_on_c, 0, 58, 103
1, 859928, Note_on_c, 0, 46, 93
1, 859932, Note_on_c, 0, 56, 101
1, 859937, Note_on_c, 0, 72, 90
1, 859953, Note_off_c, 0, 56, 62
1, 859955, Note_on_c, 0, 45, 58
1, 859961, Note_off_c, 0, 72, 65
1, 859974, Note_on_c, 0, 57, 25
1, 859974, Note_off_c, 0, 46, 63
1, 859974, Note_off_c, 0, 58, 58
1, 859987, Note_off_c, 0, 45, 37
1, 860011, Note_off_c, 0, 57, 34
1, 860038, Note_on_c, 0, 64, 109
1, 860039, Note_on_c, 0, 52, 95
1, 860039, Note_on_c, 0, 63, 109
1, 860041, Note_on_c, 0, 70, 102
1, 860041, Control_c, 0, 64, 37
1, 860042, Note_on_c, 0, 50, 105
1, 860044, Note_on_c, 0, 62, 91
1, 860045, Note_on_c, 0, 66, 99
1, 860056, Control_c, 0, 64, 62
1, 860063, Note_off_c, 0, 63, 71
1, 860064, Note_off_c, 0, 50, 68
1, 860069, Note_off_c, 0, 62, 54
1, 860071, Note_on_c, 0, 56, 40
1, 860071, Note_off_c, 0, 66, 68
1, 860071, Control_c, 0, 64, 86
1, 860074, Note_on_c, 0, 65, 39
1, 860074, Note_off_c, 0, 65, 127
1, 860077, Note_off_c, 0, 64, 70
1, 860080, Note_off_c, 0, 70, 71
1, 860086, Note_off_c, 0, 52, 66
1, 860086, Control_c, 0, 64, 127
1, 860101, Note_off_c, 0, 56, 57
1, 860116, Note_on_c, 0, 54, 4
1, 860153, Note_off_c, 0, 54, 42
1, 860205, Control_c, 0, 64, 93
1, 860206, Note_on_c, 0, 92, 100
1, 860208, Note_on_c, 0, 102, 90
1, 860212, Note_on_c, 0, 83, 104
1, 860219, Control_c, 0, 64, 66
1, 860220, Note_on_c, 0, 69, 87
1, 860224, Note_on_c, 0, 71, 76
1, 860231, Note_on_c, 0, 103, 62
1, 860233, Note_on_c, 0, 81, 56
1, 860234, Note_off_c, 0, 83, 72
1, 860234, Control_c, 0, 64, 40
1, 860238, Note_off_c, 0, 69, 70
1, 860241, Note_on_c, 0, 97, 33
1, 860242, Note_off_c, 0, 92, 66
1, 860246, Note_off_c, 0, 71, 70
1, 860247, Note_off_c, 0, 102, 66
1, 860249, Control_c, 0, 64, 0
1, 860250, Note_off_c, 0, 103, 62
1, 860256, Note_off_c, 0, 81, 43
1, 860286, Note_off_c, 0, 97, 33
1, 860320, Note_on_c, 0, 99, 92
1, 860322, Note_on_c, 0, 82, 100
1, 860323, Note_on_c, 0, 70, 97
1, 860342, Note_on_c, 0, 100, 67
1, 860360, Note_off_c, 0, 82, 66
1, 860363, Note_off_c, 0, 70, 65
1, 860367, Note_on_c, 0, 101, 38
1, 860374, Note_off_c, 0, 100, 49
1, 860387, Note_off_c, 0, 99, 61
1, 860401, Note_off_c, 0, 101, 49
1, 860415, Note_on_c, 0, 94, 85
1, 860455, Note_on_c, 0, 95, 39
1, 860466, Note_off_c, 0, 94, 62
1, 860483, Note_off_c, 0, 95, 54
1, 860506, Note_on_c, 0, 83, 96
1, 860506, Note_on_c, 0, 71, 91
1, 860508, Note_on_c, 0, 81, 93
1, 860508, Note_on_c, 0, 98, 104
1, 860511, Note_on_c, 0, 86, 96
1, 860524, Note_off_c, 0, 81, 74
1, 860528, Note_off_c, 0, 83, 67
1, 860531, Note_off_c, 0, 71, 66
1, 860543, Note_off_c, 0, 86, 68
1, 860557, Note_off_c, 0, 98, 66
1, 860603, Note_on_c, 0, 93, 94
1, 860605, Note_on_c, 0, 78, 95
1, 860607, Note_on_c, 0, 66, 95
1, 860631, Note_off_c, 0, 78, 64
1, 860633, Note_off_c, 0, 66, 59
1, 860670, Note_off_c, 0, 93, 61
1, 860700, Note_on_c, 0, 90, 93
1, 860748, Note_off_c, 0, 90, 67
1, 860768, Note_on_c, 0, 69, 108
1, 860769, Note_on_c, 0, 57, 97
1, 860783, Note_on_c, 0, 87, 72
1, 860796, Note_off_c, 0, 57, 66
1, 860798, Note_off_c, 0, 69, 68
1, 860806, Note_off_c, 0, 87, 71
1, 860865, Note_on_c, 0, 58, 86
1, 860865, Note_on_c, 0, 70, 109
1, 860877, Note_on_c, 0, 78, 94
1, 860880, Note_on_c, 0, 90, 88
1, 860898, Note_off_c, 0, 70, 63
1, 860903, Note_off_c, 0, 58, 63
1, 860917, Note_off_c, 0, 78, 59
1, 860938, Note_off_c, 0, 90, 59
1, 860964, Note_on_c, 0, 87, 83
1, 861048, Note_off_c, 0, 87, 63
1, 861063, Note_on_c, 0, 71, 95
1, 861063, Note_on_c, 0, 82, 81
1, 861064, Note_on_c, 0, 69, 95
1, 861065, Note_on_c, 0, 57, 88
1, 861072, Note_on_c, 0, 59, 75
1, 861083, Note_off_c, 0, 69, 68
1, 861083, Note_off_c, 0, 71, 67
1, 861088, Note_off_c, 0, 57, 71
1, 861099, Note_off_c, 0, 59, 68
1, 861114, Note_off_c, 0, 82, 64
1, 861155, Note_on_c, 0, 66, 108
1, 861156, Note_on_c, 0, 54, 98
1, 861167, Note_on_c, 0, 84, 85
1, 861171, Note_on_c, 0, 74, 78
1, 861174, Note_on_c, 0, 72, 72
1, 861183, Note_off_c, 0, 66, 69
1, 861187, Note_off_c, 0, 84, 67
1, 861189, Note_off_c, 0, 54, 63
1, 861194, Note_off_c, 0, 74, 71
1, 861198, Note_off_c, 0, 72, 68
1, 861239, Note_on_c, 0, 81, 91
1, 861324, Note_on_c, 0, 57, 104
1, 861325, Note_off_c, 0, 81, 61
1, 861329, Note_on_c, 0, 78, 97
1, 861331, Note_on_c, 0, 45, 97
1, 861353, Note_off_c, 0, 57, 70
1, 861354, Note_off_c, 0, 45, 71
1, 861390, Note_off_c, 0, 78, 62
1, 861419, Note_on_c, 0, 58, 113
1, 861421, Note_on_c, 0, 46, 82
1, 861433, Note_on_c, 0, 75, 79
1, 861453, Note_off_c, 0, 58, 67
1, 861454, Note_off_c, 0, 75, 73
1, 861455, Note_off_c, 0, 46, 64
1, 861525, Note_on_c, 0, 66, 100
1, 861525, Note_on_c, 0, 78, 76
1, 861555, Note_on_c, 0, 65, 56
1, 861568, Note_off_c, 0, 78, 60
1, 861570, Note_off_c, 0, 66, 65
1, 861576, Note_off_c, 0, 65, 61
1, 861603, Note_on_c, 0, 59, 104
1, 861604, Note_on_c, 0, 75, 45
1, 861612, Note_on_c, 0, 47, 81
1, 861612, Note_on_c, 0, 57, 84
1, 861615, Note_on_c, 0, 45, 81
1, 861627, Note_off_c, 0, 57, 71
1, 861629, Note_off_c, 0, 59, 72
1, 861635, Note_off_c, 0, 47, 68
1, 861636, Note_off_c, 0, 45, 68
1, 861639, Note_on_c, 0, 46, 47
1, 861639, Note_off_c, 0, 46, 127
1, 861675, Note_on_c, 0, 70, 85
1, 861696, Note_on_c, 0, 54, 102
1, 861698, Note_off_c, 0, 75, 64
1, 861701, Note_on_c, 0, 42, 87
1, 861709, Note_on_c, 0, 44, 81
1, 861722, Note_off_c, 0, 70, 67
1, 861728, Note_off_c, 0, 44, 66
1, 861729, Note_off_c, 0, 54, 62
1, 861733, Note_off_c, 0, 42, 67
1, 861738, Note_on_c, 0, 55, 32
1, 861740, Note_on_c, 0, 56, 11
1, 861776, Note_off_c, 0, 56, 41
1, 861786, Note_on_c, 0, 62, 97
1, 861788, Note_on_c, 0, 74, 93
1, 861790, Note_off_c, 0, 55, 50
1, 861821, Note_off_c, 0, 62, 64
1, 861825, Note_off_c, 0, 74, 65
1, 861870, Note_on_c, 0, 45, 108
1, 861878, Note_on_c, 0, 33, 95
1, 861878, Note_on_c, 0, 69, 97
1, 861894, Note_on_c, 0, 31, 61
1, 861894, Note_off_c, 0, 31, 127
1, 861901, Note_off_c, 0, 45, 69
1, 861903, Note_off_c, 0, 33, 69
1, 861924, Poly_aftertouch_c, 0, 31, 0
1, 861930, Note_on_c, 0, 34, 9
1, 861963, Note_on_c, 0, 46, 105
1, 861966, Note_on_c, 0, 66, 105
1, 861970, Note_off_c, 0, 69, 66
1, 861996, Note_on_c, 0, 33, 38
1, 862003, Note_off_c, 0, 46, 66
1, 862013, Note_off_c, 0, 34, 58
1, 862029, Note_off_c, 0, 33, 56
1, 862032, Note_off_c, 0, 66, 65
1, 862058, Note_on_c, 0, 63, 94
1, 862092, Note_off_c, 0, 63, 65
1, 862137, Note_on_c, 0, 47, 106
1, 862144, Note_on_c, 0, 35, 100
1, 862155, Control_c, 0, 64, 31
1, 862161, Note_on_c, 0, 54, 96
1, 862162, Note_on_c, 0, 66, 89
1, 862165, Note_off_c, 0, 35, 73
1, 862169, Control_c, 0, 64, 33
1, 862170, Note_off_c, 0, 47, 68
1, 862184, Control_c, 0, 64, 34
1, 862194, Note_on_c, 0, 56, 46
1, 862202, Note_off_c, 0, 54, 66
1, 862205, Note_off_c, 0, 66, 66
1, 862223, Note_off_c, 0, 56, 36
1, 862244, Note_on_c, 0, 42, 123
1, 862249, Note_on_c, 0, 30, 102
1, 862250, Note_on_c, 0, 63, 94
1, 862258, Control_c, 0, 64, 35
1, 862273, Control_c, 0, 64, 36
1, 862277, Note_on_c, 0, 32, 55
1, 862277, Note_off_c, 0, 32, 127
1, 862282, Note_off_c, 0, 42, 66
1, 862295, Note_off_c, 0, 30, 65
1, 862317, Control_c, 0, 64, 37
1, 862332, Control_c, 0, 64, 37
1, 862347, Note_on_c, 0, 58, 93
1, 862347, Control_c, 0, 64, 39
1, 862356, Note_off_c, 0, 63, 53
1, 862361, Control_c, 0, 64, 40
1, 862408, Note_off_c, 0, 58, 65
1, 862442, Note_on_c, 0, 33, 114
1, 862445, Note_on_c, 0, 21, 102
1, 862450, Note_on_c, 0, 50, 99
1, 862455, Note_on_c, 0, 62, 97
1, 862465, Control_c, 0, 64, 39
1, 862469, Note_on_c, 0, 22, 59
1, 862479, Control_c, 0, 64, 39
1, 862485, Note_off_c, 0, 33, 64
1, 862488, Note_off_c, 0, 21, 65
1, 862494, Control_c, 0, 64, 38
1, 862500, Note_off_c, 0, 62, 62
1, 862517, Control_c, 0, 64, 38
1, 862518, Note_off_c, 0, 22, 45
1, 862518, Note_off_c, 0, 50, 61
1, 862572, Note_on_c, 0, 57, 109
1, 862575, Note_on_c, 0, 23, 104
1, 862576, Control_c, 0, 64, 39
1, 862578, Note_on_c, 0, 35, 101
1, 862581, Note_on_c, 0, 36, 92
1, 862591, Control_c, 0, 64, 42
1, 862604, Note_on_c, 0, 24, 58
1, 862604, Note_off_c, 0, 24, 127
1, 862604, Note_off_c, 0, 36, 61
1, 862606, Control_c, 0, 64, 45
1, 862626, Note_off_c, 0, 35, 65
1, 862628, Note_off_c, 0, 23, 63
1, 862635, Control_c, 0, 64, 38
1, 862643, Note_off_c, 0, 57, 65
1, 862650, Control_c, 0, 64, 0
1, 862691, Note_on_c, 0, 54, 103
1, 862697, Note_on_c, 0, 38, 116
1, 862700, Note_on_c, 0, 26, 100
1, 862760, Note_off_c, 0, 26, 62
1, 862760, Note_off_c, 0, 38, 62
1, 862782, Note_off_c, 0, 54, 64
1, 862828, Control_c, 0, 64, 51
1, 862835, Note_on_c, 0, 39, 118
1, 862837, Note_on_c, 0, 51, 112
1, 862839, Note_on_c, 0, 27, 106
1, 862843, Control_c, 0, 64, 71
1, 862858, Control_c, 0, 64, 89
1, 862866, Note_on_c, 0, 26, 60
1, 862873, Control_c, 0, 64, 127
1, 862882, Note_on_c, 0, 32, 32
1, 862882, Note_off_c, 0, 32, 127
1, 862897, Note_off_c, 0, 39, 64
1, 862900, Note_off_c, 0, 26, 61
1, 862912, Note_off_c, 0, 27, 62
1, 862922, Poly_aftertouch_c, 0, 32, 0
1, 862936, Note_off_c, 0, 51, 61
1, 862986, Note_on_c, 0, 40, 93
1, 862986, Note_on_c, 0, 41, 93
1, 862992, Control_c, 0, 64, 72
1, 863007, Control_c, 0, 64, 0
1, 863015, Note_off_c, 0, 41, 65
1, 863025, Note_off_c, 0, 40, 65
1, 863088, Note_on_c, 0, 35, 101
1, 863139, Note_off_c, 0, 35, 67
1, 863186, Note_on_c, 0, 39, 107
1, 863189, Note_on_c, 0, 27, 90
1, 863209, Note_off_c, 0, 39, 70
1, 863210, Note_off_c, 0, 27, 68
1, 863299, Note_on_c, 0, 45, 100
1, 863299, Note_on_c, 0, 50, 100
1, 863341, Note_off_c, 0, 50, 67
1, 863342, Note_off_c, 0, 45, 66
1, 863398, Note_on_c, 0, 46, 99
1, 863404, Note_on_c, 0, 51, 104
1, 863439, Note_off_c, 0, 46, 66
1, 863451, Note_off_c, 0, 51, 63
1, 863516, Note_on_c, 0, 40, 89
1, 863560, Note_off_c, 0, 40, 63
1, 863618, Note_on_c, 0, 35, 93
1, 863666, Note_off_c, 0, 35, 64
1, 863713, Note_on_c, 0, 39, 90
1, 863717, Note_on_c, 0, 27, 73
1, 863735, Note_off_c, 0, 39, 68
1, 863749, Note_off_c, 0, 27, 61
1, 863808, Note_on_c, 0, 45, 75
1, 863812, Note_on_c, 0, 50, 74
1, 863840, Note_off_c, 0, 50, 68
1, 863850, Note_off_c, 0, 45, 62
1, 863908, Note_on_c, 0, 46, 83
1, 863922, Note_on_c, 0, 51, 76
1, 863943, Note_off_c, 0, 46, 64
1, 863949, Note_off_c, 0, 51, 64
1, 864028, Note_on_c, 0, 40, 80
1, 864062, Note_off_c, 0, 40, 64
1, 864128, Note_on_c, 0, 35, 78
1, 864172, Note_off_c, 0, 35, 62
1, 864214, Note_on_c, 0, 27, 76
1, 864241, Note_on_c, 0, 39, 55
1, 864251, Note_off_c, 0, 27, 63
1, 864274, Note_off_c, 0, 39, 36
1, 864311, Note_on_c, 0, 50, 77
1, 864315, Note_on_c, 0, 45, 79
1, 864345, Note_off_c, 0, 50, 64
1, 864347, Note_off_c, 0, 45, 66
1, 864411, Note_on_c, 0, 46, 83
1, 864418, Note_on_c, 0, 51, 85
1, 864442, Note_off_c, 0, 51, 68
1, 864445, Note_off_c, 0, 46, 65
1, 864516, Note_on_c, 0, 40, 76
1, 864518, Control_c, 0, 64, 29
1, 864549, Control_c, 0, 64, 0
1, 864550, Note_off_c, 0, 40, 66
1, 864604, Note_on_c, 0, 64, 91
1, 864608, Note_on_c, 0, 52, 80
1, 864610, Note_on_c, 0, 35, 70
1, 864613, Note_on_c, 0, 33, 62
1, 864644, Note_off_c, 0, 33, 62
1, 864652, Note_off_c, 0, 35, 64
1, 864691, Note_on_c, 0, 39, 79
1, 864697, Control_c, 0, 64, 44
1, 864699, Note_on_c, 0, 27, 46
1, 864712, Control_c, 0, 64, 54
1, 864714, Note_off_c, 0, 39, 65
1, 864727, Control_c, 0, 64, 58
1, 864739, Note_off_c, 0, 27, 32
1, 864742, Control_c, 0, 64, 63
1, 864764, Control_c, 0, 64, 65
1, 864779, Control_c, 0, 64, 66
1, 864788, Note_off_c, 0, 52, 60
1, 864792, Note_on_c, 0, 50, 82
1, 864794, Control_c, 0, 64, 67
1, 864796, Note_on_c, 0, 45, 76
1, 864809, Control_c, 0, 64, 68
1, 864822, Note_off_c, 0, 64, 66
1, 864829, Note_off_c, 0, 50, 64
1, 864838, Control_c, 0, 64, 67
1, 864846, Note_off_c, 0, 45, 62
1, 864853, Control_c, 0, 64, 58
1, 864868, Control_c, 0, 64, 33
1, 864883, Control_c, 0, 64, 0
1, 864890, Note_on_c, 0, 51, 85
1, 864891, Note_on_c, 0, 46, 74
1, 864895, Note_on_c, 0, 67, 96
1, 864897, Note_on_c, 0, 55, 90
1, 864922, Note_off_c, 0, 51, 67
1, 864942, Control_c, 0, 64, 44
1, 864947, Note_off_c, 0, 46, 63
1, 864957, Control_c, 0, 64, 58
1, 864971, Control_c, 0, 64, 64
1, 864986, Control_c, 0, 64, 68
1, 865001, Control_c, 0, 64, 72
1, 865004, Note_on_c, 0, 40, 93
1, 865016, Control_c, 0, 64, 74
1, 865031, Control_c, 0, 64, 75
1, 865046, Control_c, 0, 64, 75
1, 865046, Note_off_c, 0, 55, 60
1, 865055, Note_off_c, 0, 40, 63
1, 865076, Control_c, 0, 64, 74
1, 865079, Note_off_c, 0, 67, 66
1, 865090, Control_c, 0, 64, 65
1, 865103, Note_on_c, 0, 35, 88
1, 865105, Control_c, 0, 64, 46
1, 865120, Control_c, 0, 64, 0
1, 865142, Note_on_c, 0, 71, 98
1, 865144, Note_on_c, 0, 59, 98
1, 865179, Control_c, 0, 64, 48
1, 865188, Note_off_c, 0, 35, 43
1, 865192, Note_on_c, 0, 27, 74
1, 865194, Control_c, 0, 64, 59
1, 865197, Note_on_c, 0, 39, 83
1, 865208, Control_c, 0, 64, 65
1, 865220, Note_off_c, 0, 39, 67
1, 865222, Note_off_c, 0, 27, 64
1, 865223, Control_c, 0, 64, 69
1, 865238, Control_c, 0, 64, 75
1, 865253, Control_c, 0, 64, 82
1, 865268, Control_c, 0, 64, 85
1, 865279, Note_off_c, 0, 59, 63
1, 865289, Note_on_c, 0, 50, 92
1, 865296, Note_on_c, 0, 45, 79
1, 865297, Control_c, 0, 64, 83
1, 865311, Note_off_c, 0, 71, 65
1, 865312, Control_c, 0, 64, 72
1, 865327, Note_off_c, 0, 50, 66
1, 865328, Control_c, 0, 64, 54
1, 865340, Note_off_c, 0, 45, 61
1, 865343, Control_c, 0, 64, 0
1, 865386, Note_on_c, 0, 51, 93
1, 865387, Control_c, 0, 64, 37
1, 865388, Note_on_c, 0, 46, 83
1, 865389, Note_on_c, 0, 75, 106
1, 865390, Note_on_c, 0, 63, 103
1, 865402, Control_c, 0, 64, 54
1, 865417, Control_c, 0, 64, 63
1, 865422, Note_off_c, 0, 51, 63
1, 865431, Control_c, 0, 64, 66
1, 865436, Note_off_c, 0, 46, 64
1, 865446, Control_c, 0, 64, 68
1, 865461, Control_c, 0, 64, 70
1, 865476, Control_c, 0, 64, 72
1, 865491, Control_c, 0, 64, 76
1, 865513, Control_c, 0, 64, 79
1, 865516, Note_on_c, 0, 40, 87
1, 865528, Control_c, 0, 64, 83
1, 865529, Note_on_c, 0, 38, 78
1, 865543, Control_c, 0, 64, 84
1, 865553, Note_off_c, 0, 38, 61
1, 865558, Control_c, 0, 64, 85
1, 865561, Note_off_c, 0, 40, 64
1, 865564, Note_off_c, 0, 63, 63
1, 865572, Control_c, 0, 64, 84
1, 865577, Note_off_c, 0, 75, 66
1, 865587, Control_c, 0, 64, 78
1, 865602, Control_c, 0, 64, 63
1, 865617, Control_c, 0, 64, 0
1, 865618, Note_on_c, 0, 35, 81
1, 865623, Note_on_c, 0, 33, 82
1, 865639, Note_on_c, 0, 78, 103
1, 865640, Note_on_c, 0, 66, 107
1, 865653, Note_off_c, 0, 33, 65
1, 865672, Note_off_c, 0, 35, 63
1, 865676, Control_c, 0, 64, 51
1, 865691, Control_c, 0, 64, 64
1, 865698, Note_on_c, 0, 27, 80
1, 865703, Note_on_c, 0, 39, 94
1, 865706, Control_c, 0, 64, 70
1, 865720, Note_off_c, 0, 27, 65
1, 865720, Control_c, 0, 64, 77
1, 865725, Note_off_c, 0, 39, 70
1, 865735, Control_c, 0, 64, 84
1, 865750, Control_c, 0, 64, 94
1, 865764, Control_c, 0, 64, 108
1, 865779, Control_c, 0, 64, 116
1, 865797, Note_on_c, 0, 50, 95
1, 865797, Note_on_c, 0, 45, 99
1, 865809, Control_c, 0, 64, 105
1, 865824, Control_c, 0, 64, 79
1, 865826, Note_off_c, 0, 66, 59
1, 865831, Note_off_c, 0, 50, 65
1, 865837, Note_off_c, 0, 78, 57
1, 865839, Control_c, 0, 64, 56
1, 865843, Note_off_c, 0, 45, 65
1, 865854, Control_c, 0, 64, 0
1, 865895, Note_on_c, 0, 67, 102
1, 865896, Note_on_c, 0, 79, 100
1, 865898, Note_on_c, 0, 51, 93
1, 865898, Control_c, 0, 64, 39
1, 865902, Note_on_c, 0, 46, 85
1, 865913, Control_c, 0, 64, 60
1, 865921, Note_off_c, 0, 51, 69
1, 865928, Control_c, 0, 64, 68
1, 865938, Note_on_c, 0, 78, 46
1, 865943, Control_c, 0, 64, 74
1, 865947, Note_off_c, 0, 46, 65
1, 865957, Control_c, 0, 64, 79
1, 865966, Note_off_c, 0, 78, 56
1, 865972, Control_c, 0, 64, 85
1, 865987, Control_c, 0, 64, 95
1, 866002, Control_c, 0, 64, 109
1, 866010, Note_on_c, 0, 40, 101
1, 866017, Control_c, 0, 64, 127
1, 866049, Note_off_c, 0, 79, 64
1, 866051, Note_off_c, 0, 67, 66
1, 866059, Note_off_c, 0, 40, 65
1, 866090, Control_c, 0, 64, 92
1, 866105, Control_c, 0, 64, 66
1, 866114, Note_on_c, 0, 35, 80
1, 866120, Note_on_c, 0, 33, 81
1, 866120, Control_c, 0, 64, 33
1, 866136, Control_c, 0, 64, 0
1, 866145, Note_on_c, 0, 64, 107
1, 866147, Note_on_c, 0, 76, 98
1, 866153, Note_off_c, 0, 33, 65
1, 866165, Note_on_c, 0, 74, 64
1, 866166, Control_c, 0, 64, 43
1, 866173, Note_off_c, 0, 35, 64
1, 866180, Control_c, 0, 64, 64
1, 866191, Note_off_c, 0, 74, 41
1, 866195, Control_c, 0, 64, 73
1, 866197, Note_on_c, 0, 27, 82
1, 866207, Note_on_c, 0, 39, 94
1, 866210, Control_c, 0, 64, 84
1, 866221, Note_off_c, 0, 27, 66
1, 866225, Control_c, 0, 64, 94
1, 866231, Note_off_c, 0, 39, 67
1, 866240, Note_on_c, 0, 74, 7
1, 866240, Control_c, 0, 64, 109
1, 866262, Control_c, 0, 64, 127
1, 866299, Note_off_c, 0, 74, 26
1, 866301, Note_off_c, 0, 76, 67
1, 866306, Note_off_c, 0, 64, 63
1, 866313, Note_on_c, 0, 45, 86
1, 866313, Note_on_c, 0, 50, 92
1, 866322, Control_c, 0, 64, 103
1, 866325, Note_on_c, 0, 47, 71
1, 866326, Note_on_c, 0, 52, 60
1, 866336, Control_c, 0, 64, 70
1, 866339, Note_off_c, 0, 50, 67
1, 866346, Note_off_c, 0, 47, 52
1, 866348, Note_off_c, 0, 52, 59
1, 866351, Control_c, 0, 64, 43
1, 866357, Note_off_c, 0, 45, 63
1, 866366, Control_c, 0, 64, 0
1, 866387, Note_on_c, 0, 59, 104
1, 866389, Note_on_c, 0, 71, 102
1, 866395, Note_on_c, 0, 51, 97
1, 866395, Control_c, 0, 64, 49
1, 866401, Note_on_c, 0, 46, 86
1, 866410, Control_c, 0, 64, 64
1, 866425, Control_c, 0, 64, 71
1, 866432, Note_off_c, 0, 51, 67
1, 866440, Control_c, 0, 64, 78
1, 866447, Note_off_c, 0, 46, 65
1, 866454, Control_c, 0, 64, 83
1, 866469, Control_c, 0, 64, 92
1, 866484, Control_c, 0, 64, 120
1, 866499, Control_c, 0, 64, 127
1, 866508, Note_on_c, 0, 40, 107
1, 866543, Note_off_c, 0, 59, 64
1, 866554, Note_off_c, 0, 40, 67
1, 866566, Note_off_c, 0, 71, 64
1, 866573, Control_c, 0, 64, 92
1, 866587, Control_c, 0, 64, 62
1, 866602, Control_c, 0, 64, 0
1, 866614, Note_on_c, 0, 35, 94
1, 866632, Note_on_c, 0, 63, 106
1, 866634, Note_on_c, 0, 75, 106
1, 866642, Note_on_c, 0, 33, 47
1, 866642, Note_off_c, 0, 33, 127
1, 866647, Control_c, 0, 64, 53
1, 866653, Note_on_c, 0, 70, 65
1, 866662, Control_c, 0, 64, 68
1, 866663, Note_on_c, 0, 73, 45
1, 866663, Note_off_c, 0, 73, 127
1, 866671, Note_off_c, 0, 70, 65
1, 866674, Note_off_c, 0, 35, 63
1, 866677, Control_c, 0, 64, 78
1, 866684, Poly_aftertouch_c, 0, 33, 0
1, 866691, Control_c, 0, 64, 91
1, 866699, Note_on_c, 0, 27, 83
1, 866700, Note_on_c, 0, 39, 108
1, 866706, Control_c, 0, 64, 103
1, 866721, Control_c, 0, 64, 127
1, 866722, Note_off_c, 0, 39, 72
1, 866723, Note_off_c, 0, 27, 66
1, 866757, Note_on_c, 0, 40, 19
1, 866771, Note_on_c, 0, 70, 33
1, 866785, Note_off_c, 0, 75, 64
1, 866787, Note_off_c, 0, 63, 63
1, 866789, Note_off_c, 0, 40, 49
1, 866796, Note_off_c, 0, 70, 62
1, 866803, Note_on_c, 0, 45, 95
1, 866807, Note_on_c, 0, 52, 86
1, 866808, Note_on_c, 0, 50, 92
1, 866825, Control_c, 0, 64, 77
1, 866826, Note_off_c, 0, 52, 71
1, 866829, Note_off_c, 0, 50, 72
1, 866840, Control_c, 0, 64, 47
1, 866846, Note_off_c, 0, 45, 63
1, 866854, Control_c, 0, 64, 0
1, 866882, Note_on_c, 0, 70, 97
1, 866885, Note_on_c, 0, 58, 104
1, 866896, Note_on_c, 0, 52, 77
1, 866899, Control_c, 0, 64, 36
1, 866906, Note_on_c, 0, 71, 71
1, 866907, Note_on_c, 0, 47, 65
1, 866913, Control_c, 0, 64, 62
1, 866918, Note_on_c, 0, 44, 34
1, 866918, Note_off_c, 0, 44, 127
1, 866923, Note_off_c, 0, 52, 66
1, 866929, Control_c, 0, 64, 70
1, 866938, Note_off_c, 0, 47, 63
1, 866944, Control_c, 0, 64, 77
1, 866959, Control_c, 0, 64, 80
1, 866963, Poly_aftertouch_c, 0, 44, 0
1, 866963, Note_off_c, 0, 71, 0
1, 866974, Control_c, 0, 64, 80
1, 867007, Poly_aftertouch_c, 0, 71, 127
1, 867014, Note_on_c, 0, 40, 112
1, 867049, Poly_aftertouch_c, 0, 71, 0
1, 867057, Note_off_c, 0, 40, 68
1, 867081, Note_off_c, 0, 70, 62
1, 867085, Control_c, 0, 64, 79
1, 867094, Note_off_c, 0, 58, 59
1, 867100, Control_c, 0, 64, 77
1, 867115, Control_c, 0, 64, 75
1, 867126, Note_on_c, 0, 35, 104
1, 867129, Control_c, 0, 64, 72
1, 867144, Control_c, 0, 64, 69
1, 867159, Control_c, 0, 64, 67
1, 867174, Control_c, 0, 64, 65
1, 867180, Note_off_c, 0, 35, 63
1, 867189, Control_c, 0, 64, 64
1, 867195, Note_on_c, 0, 55, 96
1, 867195, Note_on_c, 0, 67, 102
1, 867203, Control_c, 0, 64, 63
1, 867230, Note_on_c, 0, 28, 96
1, 867233, Control_c, 0, 64, 63
1, 867248, Control_c, 0, 64, 64
1, 867254, Note_on_c, 0, 30, 47
1, 867263, Control_c, 0, 64, 64
1, 867277, Control_c, 0, 64, 63
1, 867279, Note_off_c, 0, 28, 66
1, 867290, Note_off_c, 0, 30, 54
1, 867292, Control_c, 0, 64, 59
1, 867307, Control_c, 0, 64, 52
1, 867319, Note_off_c, 0, 55, 63
1, 867321, Note_off_c, 0, 67, 63
1, 867322, Control_c, 0, 64, 44
1, 867336, Control_c, 0, 64, 35
1, 867351, Control_c, 0, 64, 30
1, 867361, Note_on_c, 0, 27, 101
1, 867361, Note_on_c, 0, 39, 107
1, 867392, Note_off_c, 0, 39, 62
1, 867396, Control_c, 0, 64, 0
1, 867401, Note_off_c, 0, 27, 56
1, 867482, Note_on_c, 0, 30, 73
1, 867483, Note_on_c, 0, 42, 98
1, 867507, Note_off_c, 0, 42, 68
1, 867519, Note_off_c, 0, 30, 65
1, 867526, Note_on_c, 0, 32, 28
1, 867573, Note_off_c, 0, 32, 40
1, 867591, Note_on_c, 0, 46, 101
1, 867593, Note_on_c, 0, 51, 100
1, 867593, Note_on_c, 0, 63, 94
1, 867595, Note_on_c, 0, 34, 87
1, 867617, Note_off_c, 0, 46, 66
1, 867619, Note_off_c, 0, 51, 66
1, 867625, Note_off_c, 0, 34, 68
1, 867633, Note_off_c, 0, 63, 58
1, 867702, Note_on_c, 0, 66, 95
1, 867703, Note_on_c, 0, 54, 90
1, 867720, Note_on_c, 0, 50, 76
1, 867720, Note_on_c, 0, 52, 80
1, 867725, Note_on_c, 0, 40, 64
1, 867725, Note_off_c, 0, 54, 68
1, 867726, Note_on_c, 0, 38, 67
1, 867726, Note_off_c, 0, 66, 64
1, 867745, Note_off_c, 0, 52, 69
1, 867747, Note_off_c, 0, 50, 67
1, 867758, Note_off_c, 0, 38, 59
1, 867759, Note_off_c, 0, 40, 58
1, 867812, Note_on_c, 0, 58, 91
1, 867815, Note_on_c, 0, 70, 92
1, 867821, Note_on_c, 0, 51, 98
1, 867824, Note_on_c, 0, 39, 95
1, 867832, Note_off_c, 0, 58, 72
1, 867845, Note_off_c, 0, 51, 66
1, 867847, Note_on_c, 0, 68, 40
1, 867858, Note_off_c, 0, 39, 65
1, 867863, Note_off_c, 0, 70, 63
1, 867878, Note_off_c, 0, 68, 36
1, 867912, Note_on_c, 0, 74, 101
1, 867913, Note_on_c, 0, 62, 94
1, 867915, Note_on_c, 0, 54, 91
1, 867933, Note_on_c, 0, 42, 56
1, 867940, Note_off_c, 0, 54, 67
1, 867943, Note_off_c, 0, 62, 69
1, 867946, Note_on_c, 0, 73, 48
1, 867947, Note_off_c, 0, 74, 69
1, 867961, Note_off_c, 0, 42, 56
1, 867971, Note_off_c, 0, 73, 37
1, 868012, Note_on_c, 0, 56, 108
1, 868017, Note_on_c, 0, 44, 86
1, 868023, Note_on_c, 0, 75, 96
1, 868024, Note_on_c, 0, 63, 97
1, 868034, Note_off_c, 0, 56, 64
1, 868045, Note_off_c, 0, 63, 66
1, 868051, Note_on_c, 0, 46, 35
1, 868051, Note_off_c, 0, 46, 127
1, 868054, Note_off_c, 0, 44, 64
1, 868054, Note_off_c, 0, 75, 52
1, 868100, Control_c, 0, 64, 32
1, 868115, Note_on_c, 0, 78, 98
1, 868115, Control_c, 0, 64, 35
1, 868116, Note_on_c, 0, 66, 98
1, 868119, Note_on_c, 0, 60, 99
1, 868130, Control_c, 0, 64, 36
1, 868131, Note_on_c, 0, 48, 59
1, 868140, Note_off_c, 0, 60, 69
1, 868143, Note_off_c, 0, 66, 67
1, 868149, Note_off_c, 0, 78, 63
1, 868159, Control_c, 0, 64, 36
1, 868161, Note_off_c, 0, 48, 54
1, 868164, Note_on_c, 0, 50, 30
1, 868164, Note_off_c, 0, 50, 127
1, 868174, Control_c, 0, 64, 37
1, 868189, Control_c, 0, 64, 40
1, 868204, Control_c, 0, 64, 43
1, 868207, Note_on_c, 0, 63, 93
1, 868212, Note_on_c, 0, 70, 105
1, 868216, Note_on_c, 0, 82, 98
1, 868219, Control_c, 0, 64, 46
1, 868224, Note_on_c, 0, 51, 51
1, 868224, Note_off_c, 0, 63, 73
1, 868230, Note_off_c, 0, 51, 40
1, 868232, Note_on_c, 0, 61, 57
1, 868232, Note_off_c, 0, 61, 127
1, 868233, Control_c, 0, 64, 47
1, 868237, Note_on_c, 0, 80, 56
1, 868248, Control_c, 0, 64, 47
1, 868249, Note_off_c, 0, 70, 63
1, 868256, Note_off_c, 0, 80, 62
1, 868265, Note_off_c, 0, 82, 61
1, 868277, Control_c, 0, 64, 47
1, 868292, Control_c, 0, 64, 40
1, 868307, Control_c, 0, 64, 0
1, 868309, Note_on_c, 0, 74, 101
1, 868309, Note_on_c, 0, 86, 98
1, 868313, Note_on_c, 0, 56, 93
1, 868313, Note_on_c, 0, 46, 91
1, 868314, Note_on_c, 0, 58, 96
1, 868330, Note_on_c, 0, 72, 55
1, 868330, Note_off_c, 0, 72, 127
1, 868331, Note_on_c, 0, 85, 65
1, 868333, Note_on_c, 0, 44, 47
1, 868333, Note_off_c, 0, 44, 127
1, 868333, Note_off_c, 0, 58, 72
1, 868334, Note_off_c, 0, 56, 72
1, 868343, Note_off_c, 0, 74, 69
1, 868345, Note_on_c, 0, 45, 42
1, 868345, Note_off_c, 0, 46, 62
1, 868346, Note_off_c, 0, 85, 64
1, 868352, Note_off_c, 0, 86, 68
1, 868383, Note_off_c, 0, 45, 47
1, 868411, Control_c, 0, 64, 43
1, 868414, Note_on_c, 0, 62, 108
1, 868417, Note_on_c, 0, 50, 93
1, 868423, Note_on_c, 0, 75, 104
1, 868425, Note_on_c, 0, 87, 100
1, 868426, Control_c, 0, 64, 58
1, 868441, Control_c, 0, 64, 60
1, 868441, Note_on_c, 0, 51, 56
1, 868442, Note_off_c, 0, 62, 64
1, 868447, Note_on_c, 0, 85, 41
1, 868447, Note_off_c, 0, 85, 44
1, 868456, Control_c, 0, 64, 61
1, 868459, Note_off_c, 0, 75, 66
1, 868460, Note_off_c, 0, 50, 61
1, 868465, Note_off_c, 0, 87, 65
1, 868471, Control_c, 0, 64, 62
1, 868472, Note_off_c, 0, 51, 56
1, 868485, Control_c, 0, 64, 62
1, 868507, Control_c, 0, 64, 63
1, 868530, Note_on_c, 0, 56, 112
1, 868534, Note_on_c, 0, 44, 98
1, 868543, Note_on_c, 0, 78, 106
1, 868543, Note_on_c, 0, 90, 103
1, 868555, Note_off_c, 0, 56, 60
1, 868558, Note_on_c, 0, 46, 52
1, 868560, Note_off_c, 0, 44, 66
1, 868572, Note_off_c, 0, 90, 64
1, 868574, Note_off_c, 0, 78, 63
1, 868575, Note_on_c, 0, 87, 47
1, 868582, Control_c, 0, 64, 63
1, 868590, Note_off_c, 0, 46, 53
1, 868597, Control_c, 0, 64, 64
1, 868602, Note_off_c, 0, 87, 41
1, 868612, Control_c, 0, 64, 64
1, 868627, Control_c, 0, 64, 65
1, 868628, Note_on_c, 0, 54, 98
1, 868630, Note_on_c, 0, 42, 103
1, 868635, Note_on_c, 0, 82, 95
1, 868638, Note_on_c, 0, 94, 99
1, 868649, Note_on_c, 0, 41, 75
1, 868650, Note_on_c, 0, 92, 76
1, 868650, Note_off_c, 0, 54, 67
1, 868662, Note_on_c, 0, 44, 42
1, 868662, Note_off_c, 0, 44, 127
1, 868671, Note_off_c, 0, 82, 63
1, 868674, Note_off_c, 0, 92, 71
1, 868677, Note_off_c, 0, 42, 59
1, 868679, Note_off_c, 0, 41, 66
1, 868685, Note_off_c, 0, 94, 64
1, 868695, Poly_aftertouch_c, 0, 44, 0
1, 868727, Note_on_c, 0, 86, 101
1, 868730, Note_on_c, 0, 48, 87
1, 868730, Note_on_c, 0, 36, 86
1, 868732, Note_on_c, 0, 98, 102
1, 868754, Note_off_c, 0, 36, 63
1, 868754, Note_on_c, 0, 37, 48
1, 868755, Note_off_c, 0, 48, 68
1, 868762, Note_off_c, 0, 86, 68
1, 868766, Note_off_c, 0, 98, 68
1, 868774, Note_on_c, 0, 97, 25
1, 868774, Note_off_c, 0, 97, 127
1, 868790, Control_c, 0, 64, 64
1, 868790, Note_off_c, 0, 37, 54
1, 868817, Note_on_c, 0, 44, 98
1, 868822, Poly_aftertouch_c, 0, 50, 0
1, 868825, Note_on_c, 0, 32, 102
1, 868825, Note_on_c, 0, 87, 97
1, 868829, Note_on_c, 0, 99, 101
1, 868835, Control_c, 0, 64, 65
1, 868841, Note_off_c, 0, 44, 70
1, 868847, Note_off_c, 0, 32, 68
1, 868849, Note_off_c, 0, 87, 66
1, 868853, Note_on_c, 0, 34, 45
1, 868853, Note_off_c, 0, 34, 127
1, 868860, Note_on_c, 0, 100, 36
1, 868861, Note_off_c, 0, 99, 64
1, 868864, Control_c, 0, 64, 65
1, 868879, Control_c, 0, 64, 66
1, 868894, Control_c, 0, 64, 67
1, 868896, Note_off_c, 0, 100, 35
1, 868897, Poly_aftertouch_c, 0, 34, 0
1, 868908, Control_c, 0, 64, 67
1, 868910, Note_on_c, 0, 90, 99
1, 868911, Note_on_c, 0, 102, 105
1, 868918, Note_on_c, 0, 30, 64
1, 868918, Note_on_c, 0, 39, 73
1, 868923, Control_c, 0, 64, 66
1, 868938, Control_c, 0, 64, 53
1, 868943, Note_off_c, 0, 39, 62
1, 868945, Note_off_c, 0, 90, 64
1, 868947, Note_off_c, 0, 102, 69
1, 868949, Note_off_c, 0, 30, 58
1, 868953, Control_c, 0, 64, 0
1, 868980, Note_on_c, 0, 28, 3
1, 868993, Note_on_c, 0, 39, 115
1, 868993, Poly_aftertouch_c, 0, 42, 0
1, 868993, Note_on_c, 0, 27, 119
1, 869003, Note_on_c, 0, 94, 119
1, 869003, Note_on_c, 0, 106, 118
1, 869008, Note_on_c, 0, 104, 103
1, 869021, Note_off_c, 0, 28, 33
1, 869026, Note_off_c, 0, 104, 66
1, 869027, Control_c, 0, 64, 43
1, 869028, Note_off_c, 0, 94, 69
1, 869029, Note_off_c, 0, 106, 70
1, 869031, Note_off_c, 0, 27, 67
1, 869031, Note_off_c, 0, 39, 67
1, 869042, Control_c, 0, 64, 127
1, 869049, Note_on_c, 0, 30, 10
1, 869073, Note_off_c, 0, 30, 62
1, 869130, Control_c, 0, 64, 122
1, 869145, Control_c, 0, 64, 66
1, 869160, Control_c, 0, 64, 0
1, 869547, Note_on_c, 0, 71, 110
1, 869548, Note_on_c, 0, 57, 111
1, 869548, Note_on_c, 0, 81, 107
1, 869548, Note_on_c, 0, 83, 101
1, 869549, Note_on_c, 0, 69, 105
1, 869550, Note_on_c, 0, 45, 97
1, 869550, Note_on_c, 0, 59, 117
1, 869553, Note_on_c, 0, 47, 90
1, 869569, Control_c, 0, 64, 65
1, 869570, Note_on_c, 0, 72, 67
1, 869570, Note_off_c, 0, 72, 127
1, 869580, Note_off_c, 0, 45, 67
1, 869583, Note_on_c, 0, 55, 55
1, 869583, Note_off_c, 0, 55, 127
1, 869584, Control_c, 0, 64, 127
1, 869588, Note_off_c, 0, 57, 66
1, 869588, Note_off_c, 0, 59, 71
1, 869595, Note_off_c, 0, 47, 67
1, 869601, Note_off_c, 0, 83, 69
1, 869610, Note_off_c, 0, 81, 70
1, 869611, Note_off_c, 0, 69, 66
1, 869611, Note_off_c, 0, 71, 65
1, 869664, Poly_aftertouch_c, 0, 49, 0
1, 869777, Control_c, 0, 64, 103
1, 869792, Control_c, 0, 64, 67
1, 869806, Control_c, 0, 64, 0
1, 869925, Note_on_c, 0, 42, 105
1, 869932, Note_on_c, 0, 54, 100
1, 869933, Note_on_c, 0, 66, 87
1, 869938, Note_on_c, 0, 56, 90
1, 869950, Note_on_c, 0, 67, 75
1, 869953, Note_on_c, 0, 43, 59
1, 869959, Note_off_c, 0, 56, 71
1, 869962, Note_off_c, 0, 66, 61
1, 869965, Note_off_c, 0, 42, 64
1, 869966, Note_off_c, 0, 67, 69
1, 869967, Note_off_c, 0, 54, 63
1, 869981, Note_off_c, 0, 43, 55
1, 870024, Note_on_c, 0, 39, 75
1, 870032, Note_on_c, 0, 51, 102
1, 870033, Note_on_c, 0, 63, 90
1, 870044, Poly_aftertouch_c, 0, 34, 0
1, 870070, Note_off_c, 0, 51, 66
1, 870081, Note_off_c, 0, 63, 63
1, 870121, Note_on_c, 0, 46, 103
1, 870122, Note_on_c, 0, 58, 99
1, 870125, Note_on_c, 0, 34, 93
1, 870146, Note_off_c, 0, 39, 56
1, 870165, Note_off_c, 0, 46, 63
1, 870170, Note_off_c, 0, 34, 59
1, 870171, Note_on_c, 0, 37, 12
1, 870176, Note_off_c, 0, 58, 65
1, 870215, Note_on_c, 0, 50, 103
1, 870222, Note_on_c, 0, 62, 92
1, 870223, Note_on_c, 0, 38, 94
1, 870227, Note_off_c, 0, 37, 26
1, 870249, Note_off_c, 0, 62, 63
1, 870257, Note_off_c, 0, 50, 67
1, 870272, Note_off_c, 0, 38, 63
1, 870312, Note_on_c, 0, 57, 96
1, 870317, Note_on_c, 0, 45, 98
1, 870330, Note_on_c, 0, 33, 73
1, 870339, Note_off_c, 0, 45, 70
1, 870345, Note_on_c, 0, 32, 64
1, 870351, Note_on_c, 0, 43, 47
1, 870351, Note_off_c, 0, 43, 127
1, 870353, Note_off_c, 0, 57, 66
1, 870362, Note_off_c, 0, 33, 63
1, 870363, Note_on_c, 0, 58, 23
1, 870363, Note_off_c, 0, 58, 127
1, 870377, Note_off_c, 0, 32, 52
1, 870393, Poly_aftertouch_c, 0, 43, 0
1, 870399, Note_on_c, 0, 54, 100
1, 870404, Note_on_c, 0, 42, 95
1, 870422, Note_off_c, 0, 42, 69
1, 870441, Note_off_c, 0, 54, 67
1, 870483, Note_on_c, 0, 51, 108
1, 870486, Note_on_c, 0, 39, 113
1, 870486, Note_on_c, 0, 46, 102
1, 870487, Note_on_c, 0, 34, 74
1, 870492, Note_on_c, 0, 27, 106
1, 870495, Control_c, 0, 64, 49
1, 870510, Control_c, 0, 64, 90
1, 870513, Note_on_c, 0, 52, 52
1, 870522, Note_off_c, 0, 27, 67
1, 870522, Note_off_c, 0, 39, 61
1, 870525, Control_c, 0, 64, 127
1, 870531, Note_off_c, 0, 34, 62
1, 870536, Note_off_c, 0, 46, 66
1, 870537, Note_off_c, 0, 52, 60
1, 870546, Note_off_c, 0, 51, 64
1, 870585, Control_c, 0, 64, 81
1, 870599, Control_c, 0, 64, 51
1, 870614, Control_c, 0, 64, 0
1, 870708, Note_on_c, 0, 51, 23
1, 870765, Note_off_c, 0, 51, 29
1, 870888, Note_on_c, 0, 46, 109
1, 870888, Note_on_c, 0, 51, 108
1, 870890, Note_on_c, 0, 34, 113
1, 870890, Note_on_c, 0, 39, 114
1, 870892, Note_on_c, 0, 27, 113
1, 870896, Note_on_c, 0, 40, 93
1, 870902, Note_on_c, 0, 41, 88
1, 870903, Control_c, 0, 64, 48
1, 870910, Note_on_c, 0, 32, 76
1, 870910, Note_off_c, 0, 32, 127
1, 870913, Note_on_c, 0, 38, 62
1, 870918, Control_c, 0, 64, 127
1, 870924, Note_off_c, 0, 41, 68
1, 870939, Note_on_c, 0, 49, 21
1, 870941, Note_off_c, 0, 40, 66
1, 870942, Note_off_c, 0, 38, 62
1, 870944, Note_off_c, 0, 27, 67
1, 870945, Note_off_c, 0, 34, 69
1, 870949, Note_off_c, 0, 46, 66
1, 870950, Note_off_c, 0, 39, 66
1, 870968, Note_off_c, 0, 51, 67
1, 870975, Note_off_c, 0, 49, 48
1, 870975, Poly_aftertouch_c, 0, 30, 127
1, 871023, Poly_aftertouch_c, 0, 30, 0
1, 871259, Control_c, 0, 64, 80
1, 871274, Control_c, 0, 64, 0
1, 871274, End_track
0, 0, End_of_file
