0, 0, Header, 0, 1, 384
1, 0, Start_track
1, 0, Title_t, "Nocturne--Gregory De Turck      "
1, 0, Text_t, "2006 International Piano-e-Competition Recital Round"
1, 0, Text_t, "St. Paul, Minnesota, July 2006"
1, 0, Text_t, "http://www.piano-e-competition.com/"
1, 0, Instrument_name_t, "Yamaha Disklavier Pro Mark IV concert grand piano"
1, 0, Sequencer_specific, 39, 67, 113, 0, 1, 0, 1, 0, 78, 111, 99, 116, 117, 114, 110, 101, 32, 32, 32, 32, 32, 32, 32, 32, 71, 114, 101, 103, 111, 114, 121, 32, 68, 101, 32, 84, 117, 114, 99, 107
1, 0, Sequencer_specific, 6, 67, 113, 0, 0, 0, 69
1, 0, System_exclusive, 21, 67, 113, 126, 21, 0, 2, 2, 0, 14, 5, 1, 4, 4, 10, 9, 10, 14, 6, 2, 6, 247
1, 0, Sequencer_specific, 5, 67, 123, 12, 2, 1
1, 0, Tempo, 512820
1, 0, Time_signature, 4, 2, 24, 8
1, 0, System_exclusive, 5, 126, 127, 9, 1, 247
1, 1, System_exclusive, 8, 67, 16, 76, 0, 0, 126, 0, 247
1, 2, System_exclusive, 8, 67, 16, 76, 8, 9, 7, 1, 247
1, 3, Control_c, 0, 0, 0
1, 4, Control_c, 0, 32, 0
1, 5, Program_c, 0, 0
1, 6, Control_c, 0, 7, 100
1, 95, Control_c, 0, 64, 12
1, 184, Control_c, 0, 64, 24
1, 273, Control_c, 0, 64, 36
1, 362, Control_c, 0, 64, 48
1, 452, Control_c, 0, 64, 60
1, 541, Control_c, 0, 64, 72
1, 630, Control_c, 0, 64, 84
1, 719, Control_c, 0, 64, 96
1, 909, Note_on_c, 0, 44, 36
1, 1152, Control_c, 0, 64, 98
1, 1318, Note_on_c, 0, 51, 42
1, 1411, Note_off_c, 0, 44, 41
1, 1619, Note_on_c, 0, 56, 48
1, 1734, Note_off_c, 0, 51, 30
1, 1922, Note_on_c, 0, 60, 43
1, 1962, Note_off_c, 0, 56, 37
1, 2209, Note_on_c, 0, 56, 38
1, 2227, Note_off_c, 0, 60, 35
1, 2426, Control_c, 0, 67, 43
1, 2441, Control_c, 0, 67, 58
1, 2457, Control_c, 0, 67, 66
1, 2472, Control_c, 0, 67, 69
1, 2516, Note_on_c, 0, 51, 19
1, 2531, Control_c, 0, 67, 68
1, 2544, Note_off_c, 0, 56, 40
1, 2546, Control_c, 0, 67, 68
1, 2561, Control_c, 0, 67, 67
1, 2575, Control_c, 0, 67, 66
1, 2590, Control_c, 0, 67, 64
1, 2605, Control_c, 0, 67, 64
1, 2620, Control_c, 0, 67, 63
1, 2635, Control_c, 0, 67, 62
1, 2650, Control_c, 0, 67, 61
1, 2665, Control_c, 0, 67, 60
1, 2680, Control_c, 0, 67, 60
1, 2694, Control_c, 0, 67, 59
1, 2709, Control_c, 0, 67, 58
1, 2724, Control_c, 0, 67, 58
1, 2769, Control_c, 0, 67, 57
1, 2798, Note_on_c, 0, 44, 34
1, 2813, Control_c, 0, 67, 56
1, 2858, Note_off_c, 0, 51, 40
1, 2939, Control_c, 0, 67, 56
1, 3106, Note_on_c, 0, 51, 35
1, 3139, Note_off_c, 0, 44, 41
1, 3296, Control_c, 0, 67, 56
1, 3326, Control_c, 0, 67, 57
1, 3341, Control_c, 0, 67, 58
1, 3365, Note_on_c, 0, 56, 40
1, 3370, Control_c, 0, 67, 59
1, 3385, Control_c, 0, 67, 60
1, 3399, Control_c, 0, 67, 60
1, 3414, Control_c, 0, 67, 61
1, 3429, Control_c, 0, 67, 62
1, 3444, Control_c, 0, 67, 64
1, 3446, Note_off_c, 0, 51, 37
1, 3459, Control_c, 0, 67, 64
1, 3547, Control_c, 0, 67, 64
1, 3577, Control_c, 0, 67, 63
1, 3592, Control_c, 0, 67, 62
1, 3607, Control_c, 0, 67, 62
1, 3629, Control_c, 0, 67, 61
1, 3659, Control_c, 0, 67, 60
1, 3673, Control_c, 0, 67, 60
1, 3675, Note_on_c, 0, 60, 34
1, 3688, Control_c, 0, 67, 59
1, 3703, Control_c, 0, 67, 58
1, 3708, Note_off_c, 0, 56, 37
1, 3718, Control_c, 0, 67, 57
1, 3732, Control_c, 0, 67, 56
1, 3747, Control_c, 0, 67, 56
1, 3762, Control_c, 0, 67, 55
1, 3777, Control_c, 0, 64, 100
1, 3777, Control_c, 0, 67, 54
1, 3792, Control_c, 0, 67, 54
1, 3806, Control_c, 0, 67, 53
1, 3821, Control_c, 0, 67, 53
1, 3851, Control_c, 0, 67, 52
1, 3880, Control_c, 0, 67, 51
1, 3910, Control_c, 0, 67, 51
1, 3924, Control_c, 0, 67, 50
1, 3939, Control_c, 0, 67, 49
1, 3954, Control_c, 0, 67, 49
1, 3956, Note_on_c, 0, 56, 32
1, 3969, Control_c, 0, 67, 48
1, 3984, Control_c, 0, 67, 47
1, 3989, Note_off_c, 0, 60, 36
1, 3998, Control_c, 0, 67, 47
1, 4013, Control_c, 0, 67, 46
1, 4028, Control_c, 0, 67, 45
1, 4059, Control_c, 0, 67, 45
1, 4089, Control_c, 0, 67, 44
1, 4148, Control_c, 0, 67, 43
1, 4285, Note_on_c, 0, 51, 33
1, 4313, Note_off_c, 0, 56, 39
1, 4475, Note_on_c, 0, 60, 55
1, 4599, Control_c, 0, 64, 98
1, 4618, Note_on_c, 0, 44, 31
1, 4628, Control_c, 0, 64, 94
1, 4643, Control_c, 0, 64, 89
1, 4658, Control_c, 0, 64, 80
1, 4668, Note_off_c, 0, 60, 55
1, 4673, Note_on_c, 0, 65, 64
1, 4673, Control_c, 0, 64, 69
1, 4688, Control_c, 0, 64, 59
1, 4695, Note_off_c, 0, 51, 43
1, 4702, Control_c, 0, 64, 42
1, 4717, Control_c, 0, 64, 0
1, 4776, Control_c, 0, 64, 32
1, 4791, Control_c, 0, 64, 44
1, 4806, Control_c, 0, 64, 57
1, 4820, Control_c, 0, 64, 63
1, 4835, Control_c, 0, 64, 67
1, 4851, Control_c, 0, 64, 69
1, 4866, Control_c, 0, 64, 72
1, 4881, Control_c, 0, 64, 74
1, 4896, Control_c, 0, 64, 77
1, 4911, Control_c, 0, 64, 79
1, 4925, Control_c, 0, 64, 83
1, 4940, Control_c, 0, 64, 85
1, 4947, Note_on_c, 0, 51, 39
1, 4955, Control_c, 0, 64, 88
1, 4969, Control_c, 0, 64, 89
1, 4975, Note_off_c, 0, 44, 41
1, 4984, Control_c, 0, 64, 90
1, 4984, Control_c, 0, 67, 44
1, 4999, Control_c, 0, 64, 91
1, 5014, Control_c, 0, 67, 45
1, 5043, Control_c, 0, 67, 45
1, 5058, Control_c, 0, 64, 91
1, 5058, Control_c, 0, 67, 46
1, 5088, Control_c, 0, 67, 47
1, 5140, Control_c, 0, 67, 47
1, 5188, Note_on_c, 0, 56, 37
1, 5224, Note_off_c, 0, 51, 32
1, 5428, Note_off_c, 0, 65, 56
1, 5475, Note_on_c, 0, 60, 37
1, 5488, Note_off_c, 0, 56, 39
1, 5725, Note_on_c, 0, 56, 39
1, 5750, Note_off_c, 0, 60, 32
1, 5792, Control_c, 0, 67, 47
1, 5852, Control_c, 0, 67, 46
1, 5958, Note_off_c, 0, 56, 35
1, 5963, Control_c, 0, 67, 45
1, 5972, Note_on_c, 0, 51, 40
1, 6027, Note_on_c, 0, 59, 65
1, 6067, Control_c, 0, 64, 91
1, 6089, Note_off_c, 0, 59, 63
1, 6111, Control_c, 0, 64, 90
1, 6118, Note_on_c, 0, 70, 74
1, 6126, Control_c, 0, 64, 90
1, 6140, Control_c, 0, 64, 89
1, 6155, Control_c, 0, 64, 88
1, 6170, Control_c, 0, 64, 86
1, 6185, Control_c, 0, 64, 84
1, 6200, Control_c, 0, 64, 79
1, 6215, Control_c, 0, 64, 72
1, 6230, Control_c, 0, 64, 62
1, 6231, Note_on_c, 0, 68, 68
1, 6239, Note_on_c, 0, 44, 42
1, 6245, Control_c, 0, 64, 51
1, 6257, Note_off_c, 0, 70, 57
1, 6260, Control_c, 0, 64, 35
1, 6274, Control_c, 0, 64, 0
1, 6289, Control_c, 0, 67, 45
1, 6298, Note_off_c, 0, 51, 31
1, 6378, Control_c, 0, 64, 37
1, 6392, Control_c, 0, 64, 48
1, 6407, Control_c, 0, 64, 56
1, 6422, Control_c, 0, 64, 61
1, 6437, Control_c, 0, 64, 64
1, 6453, Control_c, 0, 64, 66
1, 6468, Control_c, 0, 64, 67
1, 6483, Control_c, 0, 64, 68
1, 6497, Control_c, 0, 64, 70
1, 6501, Note_on_c, 0, 49, 38
1, 6512, Control_c, 0, 64, 72
1, 6527, Control_c, 0, 64, 74
1, 6541, Control_c, 0, 64, 75
1, 6556, Control_c, 0, 64, 76
1, 6571, Control_c, 0, 64, 78
1, 6586, Control_c, 0, 64, 79
1, 6601, Control_c, 0, 64, 80
1, 6623, Control_c, 0, 64, 82
1, 6638, Control_c, 0, 64, 83
1, 6653, Control_c, 0, 64, 83
1, 6668, Control_c, 0, 64, 84
1, 6680, Note_off_c, 0, 44, 27
1, 6683, Control_c, 0, 64, 84
1, 6712, Control_c, 0, 64, 85
1, 6737, Note_on_c, 0, 55, 45
1, 6756, Control_c, 0, 64, 85
1, 6973, Note_on_c, 0, 59, 54
1, 6978, Control_c, 0, 64, 85
1, 6993, Control_c, 0, 64, 84
1, 7008, Control_c, 0, 64, 83
1, 7023, Control_c, 0, 64, 81
1, 7032, Note_off_c, 0, 55, 48
1, 7038, Control_c, 0, 64, 79
1, 7053, Control_c, 0, 64, 78
1, 7073, Note_off_c, 0, 49, 36
1, 7082, Control_c, 0, 67, 45
1, 7240, Note_on_c, 0, 55, 44
1, 7261, Control_c, 0, 64, 78
1, 7280, Note_off_c, 0, 59, 36
1, 7306, Control_c, 0, 67, 46
1, 7506, Note_on_c, 0, 49, 45
1, 7593, Note_off_c, 0, 55, 30
1, 7727, Control_c, 0, 64, 78
1, 7742, Control_c, 0, 64, 77
1, 7756, Note_on_c, 0, 44, 48
1, 7757, Control_c, 0, 64, 73
1, 7771, Control_c, 0, 64, 66
1, 7786, Control_c, 0, 64, 58
1, 7801, Control_c, 0, 64, 50
1, 7808, Note_off_c, 0, 49, 54
1, 7816, Control_c, 0, 64, 43
1, 7831, Control_c, 0, 64, 39
1, 7860, Control_c, 0, 64, 41
1, 7875, Control_c, 0, 64, 45
1, 7890, Control_c, 0, 64, 52
1, 7905, Control_c, 0, 64, 59
1, 7920, Control_c, 0, 64, 63
1, 7935, Control_c, 0, 64, 66
1, 7950, Control_c, 0, 64, 68
1, 7964, Control_c, 0, 64, 70
1, 7979, Control_c, 0, 64, 73
1, 7989, Note_on_c, 0, 49, 42
1, 7994, Control_c, 0, 64, 75
1, 8009, Control_c, 0, 64, 77
1, 8024, Control_c, 0, 64, 79
1, 8024, Control_c, 0, 67, 45
1, 8039, Control_c, 0, 64, 80
1, 8054, Control_c, 0, 64, 82
1, 8068, Note_off_c, 0, 44, 50
1, 8069, Control_c, 0, 64, 84
1, 8084, Control_c, 0, 64, 85
1, 8099, Control_c, 0, 64, 85
1, 8121, Control_c, 0, 64, 86
1, 8165, Control_c, 0, 64, 86
1, 8216, Note_on_c, 0, 55, 38
1, 8334, Note_on_c, 0, 73, 60
1, 8338, Note_off_c, 0, 68, 59
1, 8486, Note_on_c, 0, 59, 37
1, 8510, Note_off_c, 0, 73, 57
1, 8523, Note_on_c, 0, 67, 63
1, 8540, Note_off_c, 0, 55, 34
1, 8625, Note_off_c, 0, 67, 38
1, 8633, Note_off_c, 0, 49, 29
1, 8668, Note_on_c, 0, 78, 71
1, 8791, Note_on_c, 0, 55, 38
1, 8791, Note_on_c, 0, 76, 74
1, 8793, Note_off_c, 0, 78, 57
1, 8820, Note_off_c, 0, 59, 33
1, 8847, Control_c, 0, 64, 86
1, 8868, Note_off_c, 0, 76, 61
1, 8898, Note_on_c, 0, 81, 83
1, 8980, Note_off_c, 0, 81, 59
1, 9002, Note_on_c, 0, 75, 83
1, 9003, Control_c, 0, 67, 46
1, 9024, Note_off_c, 0, 55, 54
1, 9035, Note_on_c, 0, 49, 47
1, 9077, Note_off_c, 0, 75, 60
1, 9078, Control_c, 0, 64, 85
1, 9104, Note_on_c, 0, 86, 87
1, 9107, Control_c, 0, 64, 85
1, 9122, Control_c, 0, 64, 84
1, 9137, Control_c, 0, 64, 84
1, 9151, Control_c, 0, 64, 83
1, 9166, Control_c, 0, 64, 83
1, 9181, Control_c, 0, 64, 82
1, 9196, Control_c, 0, 64, 81
1, 9211, Control_c, 0, 64, 79
1, 9218, Note_on_c, 0, 44, 43
1, 9226, Control_c, 0, 64, 77
1, 9236, Note_off_c, 0, 49, 53
1, 9241, Control_c, 0, 64, 73
1, 9246, Note_on_c, 0, 84, 82
1, 9255, Control_c, 0, 64, 68
1, 9267, Note_off_c, 0, 86, 62
1, 9270, Control_c, 0, 64, 61
1, 9285, Control_c, 0, 64, 49
1, 9300, Control_c, 0, 64, 35
1, 9315, Control_c, 0, 64, 0
1, 9315, Control_c, 0, 67, 45
1, 9374, Control_c, 0, 67, 45
1, 9418, Control_c, 0, 64, 30
1, 9433, Control_c, 0, 64, 43
1, 9433, Control_c, 0, 67, 44
1, 9448, Control_c, 0, 64, 54
1, 9463, Control_c, 0, 64, 60
1, 9467, Note_on_c, 0, 53, 54
1, 9478, Control_c, 0, 64, 63
1, 9492, Control_c, 0, 64, 64
1, 9500, Note_off_c, 0, 44, 55
1, 9507, Control_c, 0, 64, 65
1, 9507, Control_c, 0, 67, 43
1, 9522, Control_c, 0, 64, 66
1, 9536, Control_c, 0, 64, 68
1, 9551, Control_c, 0, 64, 69
1, 9566, Control_c, 0, 64, 70
1, 9581, Control_c, 0, 64, 71
1, 9596, Control_c, 0, 64, 73
1, 9618, Control_c, 0, 64, 73
1, 9618, Control_c, 0, 67, 43
1, 9633, Control_c, 0, 64, 74
1, 9649, Control_c, 0, 64, 75
1, 9664, Control_c, 0, 64, 75
1, 9679, Control_c, 0, 64, 76
1, 9694, Control_c, 0, 64, 76
1, 9703, Note_on_c, 0, 56, 63
1, 9709, Control_c, 0, 64, 77
1, 9723, Control_c, 0, 64, 77
1, 9738, Control_c, 0, 64, 78
1, 9767, Control_c, 0, 64, 79
1, 9782, Control_c, 0, 64, 79
1, 9797, Control_c, 0, 64, 80
1, 9812, Control_c, 0, 64, 80
1, 9838, Note_off_c, 0, 53, 28
1, 9841, Control_c, 0, 64, 81
1, 9856, Control_c, 0, 64, 81
1, 9886, Control_c, 0, 64, 82
1, 9930, Control_c, 0, 64, 82
1, 9974, Control_c, 0, 64, 83
1, 9994, Note_on_c, 0, 60, 53
1, 10031, Note_off_c, 0, 56, 55
1, 10034, Control_c, 0, 64, 83
1, 10048, Control_c, 0, 64, 84
1, 10078, Control_c, 0, 64, 84
1, 10093, Control_c, 0, 64, 85
1, 10108, Control_c, 0, 64, 86
1, 10123, Control_c, 0, 64, 86
1, 10138, Control_c, 0, 64, 87
1, 10153, Control_c, 0, 64, 88
1, 10167, Control_c, 0, 64, 89
1, 10182, Control_c, 0, 64, 89
1, 10197, Control_c, 0, 64, 90
1, 10227, Control_c, 0, 64, 90
1, 10256, Control_c, 0, 64, 91
1, 10304, Note_on_c, 0, 56, 44
1, 10322, Note_on_c, 0, 86, 77
1, 10330, Control_c, 0, 64, 91
1, 10393, Note_off_c, 0, 84, 54
1, 10418, Note_off_c, 0, 60, 31
1, 10516, Control_c, 0, 67, 43
1, 10612, Note_on_c, 0, 87, 82
1, 10619, Control_c, 0, 67, 44
1, 10620, Note_on_c, 0, 51, 47
1, 10643, Note_off_c, 0, 56, 41
1, 10655, Note_off_c, 0, 86, 62
1, 10856, Control_c, 0, 64, 91
1, 10886, Note_on_c, 0, 81, 76
1, 10886, Control_c, 0, 64, 89
1, 10893, Note_on_c, 0, 42, 46
1, 10901, Control_c, 0, 64, 84
1, 10901, Control_c, 0, 67, 45
1, 10915, Control_c, 0, 64, 76
1, 10930, Control_c, 0, 64, 67
1, 10937, Note_off_c, 0, 51, 36
1, 10945, Control_c, 0, 64, 56
1, 10960, Control_c, 0, 64, 42
1, 10968, Note_off_c, 0, 87, 57
1, 10975, Control_c, 0, 64, 0
1, 11049, Control_c, 0, 64, 30
1, 11063, Control_c, 0, 64, 36
1, 11078, Control_c, 0, 64, 42
1, 11093, Control_c, 0, 64, 49
1, 11115, Control_c, 0, 64, 57
1, 11115, Control_c, 0, 67, 44
1, 11130, Control_c, 0, 64, 63
1, 11145, Control_c, 0, 64, 65
1, 11160, Control_c, 0, 64, 67
1, 11175, Control_c, 0, 64, 68
1, 11189, Control_c, 0, 64, 69
1, 11204, Control_c, 0, 64, 71
1, 11208, Note_on_c, 0, 49, 38
1, 11219, Control_c, 0, 64, 72
1, 11235, Control_c, 0, 64, 74
1, 11250, Control_c, 0, 64, 75
1, 11265, Control_c, 0, 64, 77
1, 11271, Note_off_c, 0, 42, 33
1, 11279, Control_c, 0, 64, 78
1, 11294, Control_c, 0, 64, 79
1, 11309, Control_c, 0, 64, 80
1, 11324, Control_c, 0, 64, 81
1, 11338, Control_c, 0, 64, 81
1, 11353, Control_c, 0, 64, 82
1, 11368, Control_c, 0, 64, 82
1, 11398, Control_c, 0, 64, 83
1, 11478, Note_off_c, 0, 49, 37
1, 11491, Note_on_c, 0, 76, 62
1, 11503, Note_on_c, 0, 57, 31
1, 11541, Note_off_c, 0, 81, 61
1, 11694, Control_c, 0, 67, 45
1, 11709, Control_c, 0, 67, 46
1, 11724, Control_c, 0, 67, 47
1, 11738, Note_off_c, 0, 57, 40
1, 11738, Control_c, 0, 67, 49
1, 11740, Note_on_c, 0, 61, 42
1, 11753, Control_c, 0, 67, 51
1, 11768, Control_c, 0, 67, 53
1, 11783, Control_c, 0, 67, 54
1, 11798, Control_c, 0, 67, 56
1, 11812, Control_c, 0, 67, 58
1, 11827, Control_c, 0, 67, 60
1, 11842, Control_c, 0, 67, 61
1, 11864, Control_c, 0, 67, 62
1, 11879, Control_c, 0, 67, 62
1, 11894, Control_c, 0, 67, 63
1, 11908, Control_c, 0, 67, 64
1, 11953, Control_c, 0, 67, 64
1, 11959, Note_off_c, 0, 61, 59
1, 11968, Control_c, 0, 67, 65
1, 11982, Note_on_c, 0, 78, 76
1, 11983, Control_c, 0, 67, 66
1, 11998, Control_c, 0, 67, 67
1, 12008, Note_on_c, 0, 57, 43
1, 12010, Note_off_c, 0, 76, 52
1, 12012, Control_c, 0, 67, 68
1, 12043, Control_c, 0, 67, 68
1, 12161, Control_c, 0, 67, 68
1, 12175, Note_off_c, 0, 57, 44
1, 12176, Control_c, 0, 67, 67
1, 12191, Control_c, 0, 67, 66
1, 12206, Control_c, 0, 67, 64
1, 12221, Note_on_c, 0, 79, 77
1, 12221, Control_c, 0, 67, 64
1, 12236, Control_c, 0, 67, 63
1, 12242, Note_on_c, 0, 49, 47
1, 12246, Note_off_c, 0, 78, 62
1, 12250, Control_c, 0, 67, 62
1, 12265, Control_c, 0, 67, 61
1, 12280, Control_c, 0, 67, 60
1, 12295, Control_c, 0, 67, 58
1, 12309, Control_c, 0, 64, 82
1, 12309, Control_c, 0, 67, 58
1, 12324, Control_c, 0, 67, 57
1, 12339, Control_c, 0, 67, 56
1, 12354, Control_c, 0, 67, 56
1, 12383, Control_c, 0, 67, 55
1, 12398, Control_c, 0, 64, 82
1, 12442, Control_c, 0, 64, 81
1, 12472, Control_c, 0, 64, 81
1, 12479, Note_off_c, 0, 49, 53
1, 12487, Control_c, 0, 64, 80
1, 12488, Note_on_c, 0, 42, 50
1, 12502, Control_c, 0, 64, 77
1, 12505, Note_on_c, 0, 73, 79
1, 12517, Control_c, 0, 64, 72
1, 12531, Control_c, 0, 64, 63
1, 12546, Control_c, 0, 64, 49
1, 12561, Control_c, 0, 64, 32
1, 12561, Control_c, 0, 67, 54
1, 12576, Control_c, 0, 64, 0
1, 12589, Note_off_c, 0, 79, 63
1, 12591, Control_c, 0, 67, 54
1, 12613, Control_c, 0, 67, 53
1, 12628, Control_c, 0, 67, 53
1, 12642, Control_c, 0, 64, 36
1, 12657, Control_c, 0, 64, 50
1, 12657, Control_c, 0, 67, 52
1, 12672, Control_c, 0, 64, 59
1, 12672, Control_c, 0, 67, 51
1, 12686, Control_c, 0, 64, 64
1, 12686, Control_c, 0, 67, 51
1, 12701, Control_c, 0, 64, 67
1, 12701, Control_c, 0, 67, 50
1, 12716, Control_c, 0, 64, 69
1, 12716, Control_c, 0, 67, 49
1, 12731, Control_c, 0, 64, 70
1, 12731, Control_c, 0, 67, 49
1, 12746, Control_c, 0, 64, 72
1, 12746, Control_c, 0, 67, 48
1, 12751, Note_off_c, 0, 42, 62
1, 12756, Note_on_c, 0, 52, 59
1, 12761, Control_c, 0, 64, 74
1, 12776, Control_c, 0, 64, 76
1, 12776, Control_c, 0, 67, 47
1, 12791, Control_c, 0, 64, 78
1, 12806, Control_c, 0, 64, 79
1, 12821, Control_c, 0, 64, 80
1, 12837, Control_c, 0, 64, 80
1, 12837, Control_c, 0, 67, 47
1, 12852, Control_c, 0, 64, 81
1, 12881, Control_c, 0, 64, 81
1, 12925, Control_c, 0, 64, 82
1, 12926, Note_off_c, 0, 52, 34
1, 12970, Note_on_c, 0, 58, 66
1, 13148, Control_c, 0, 67, 47
1, 13207, Control_c, 0, 67, 48
1, 13222, Control_c, 0, 67, 49
1, 13244, Note_on_c, 0, 68, 70
1, 13245, Note_on_c, 0, 61, 55
1, 13252, Control_c, 0, 67, 49
1, 13266, Control_c, 0, 64, 81
1, 13266, Control_c, 0, 67, 50
1, 13269, Note_off_c, 0, 58, 57
1, 13281, Control_c, 0, 64, 79
1, 13281, Control_c, 0, 67, 51
1, 13296, Control_c, 0, 64, 74
1, 13296, Control_c, 0, 67, 52
1, 13310, Control_c, 0, 64, 66
1, 13310, Control_c, 0, 67, 53
1, 13316, Note_off_c, 0, 73, 59
1, 13325, Control_c, 0, 64, 56
1, 13325, Control_c, 0, 67, 54
1, 13340, Control_c, 0, 64, 46
1, 13340, Control_c, 0, 67, 55
1, 13363, Control_c, 0, 64, 39
1, 13363, Control_c, 0, 67, 56
1, 13378, Control_c, 0, 64, 38
1, 13378, Control_c, 0, 67, 58
1, 13392, Control_c, 0, 64, 42
1, 13392, Control_c, 0, 67, 59
1, 13407, Control_c, 0, 64, 49
1, 13407, Control_c, 0, 67, 61
1, 13422, Control_c, 0, 64, 56
1, 13422, Control_c, 0, 67, 63
1, 13437, Control_c, 0, 64, 61
1, 13437, Control_c, 0, 67, 66
1, 13452, Control_c, 0, 64, 64
1, 13452, Control_c, 0, 67, 68
1, 13466, Control_c, 0, 64, 66
1, 13466, Control_c, 0, 67, 70
1, 13481, Control_c, 0, 64, 68
1, 13481, Control_c, 0, 67, 73
1, 13496, Control_c, 0, 64, 69
1, 13496, Control_c, 0, 67, 75
1, 13510, Control_c, 0, 64, 71
1, 13510, Control_c, 0, 67, 76
1, 13525, Control_c, 0, 64, 72
1, 13525, Control_c, 0, 67, 77
1, 13540, Control_c, 0, 64, 73
1, 13540, Control_c, 0, 67, 79
1, 13555, Control_c, 0, 64, 73
1, 13555, Control_c, 0, 67, 98
1, 13570, Control_c, 0, 64, 74
1, 13570, Control_c, 0, 67, 127
1, 13599, Control_c, 0, 64, 74
1, 13659, Note_on_c, 0, 49, 38
1, 13706, Note_off_c, 0, 61, 56
1, 13813, Note_on_c, 0, 70, 63
1, 13850, Note_off_c, 0, 68, 60
1, 13971, Control_c, 0, 64, 74
1, 13983, Note_off_c, 0, 70, 51
1, 13992, Note_on_c, 0, 71, 64
1, 14008, Note_on_c, 0, 59, 41
1, 14037, Note_off_c, 0, 49, 58
1, 14113, Note_off_c, 0, 59, 60
1, 14119, Note_off_c, 0, 71, 55
1, 14127, Note_on_c, 0, 65, 64
1, 14281, Note_off_c, 0, 65, 48
1, 14284, Note_on_c, 0, 60, 56
1, 14287, Note_on_c, 0, 41, 44
1, 14289, Control_c, 0, 64, 73
1, 14303, Control_c, 0, 64, 71
1, 14318, Control_c, 0, 64, 67
1, 14332, Control_c, 0, 64, 62
1, 14347, Control_c, 0, 64, 53
1, 14362, Control_c, 0, 64, 43
1, 14377, Control_c, 0, 64, 0
1, 14497, Control_c, 0, 64, 36
1, 14511, Control_c, 0, 64, 46
1, 14526, Control_c, 0, 64, 55
1, 14541, Control_c, 0, 64, 61
1, 14543, Note_on_c, 0, 48, 47
1, 14556, Control_c, 0, 64, 63
1, 14570, Control_c, 0, 64, 64
1, 14585, Control_c, 0, 64, 65
1, 14600, Control_c, 0, 64, 66
1, 14615, Control_c, 0, 64, 68
1, 14630, Control_c, 0, 64, 69
1, 14645, Control_c, 0, 64, 71
1, 14660, Control_c, 0, 64, 72
1, 14675, Control_c, 0, 64, 73
1, 14690, Control_c, 0, 64, 74
1, 14704, Control_c, 0, 64, 75
1, 14719, Control_c, 0, 64, 76
1, 14734, Control_c, 0, 64, 77
1, 14749, Control_c, 0, 64, 78
1, 14763, Control_c, 0, 64, 78
1, 14778, Control_c, 0, 64, 79
1, 14781, Note_on_c, 0, 57, 40
1, 14793, Control_c, 0, 64, 80
1, 14806, Note_off_c, 0, 48, 34
1, 14808, Control_c, 0, 64, 81
1, 14823, Control_c, 0, 64, 82
1, 14833, Note_off_c, 0, 60, 37
1, 14837, Control_c, 0, 64, 83
1, 14860, Control_c, 0, 64, 83
1, 14874, Control_c, 0, 64, 84
1, 14889, Control_c, 0, 64, 84
1, 14904, Control_c, 0, 64, 85
1, 14919, Control_c, 0, 64, 86
1, 14949, Control_c, 0, 64, 86
1, 14978, Control_c, 0, 64, 87
1, 15031, Note_on_c, 0, 60, 42
1, 15037, Control_c, 0, 64, 87
1, 15117, Note_off_c, 0, 57, 35
1, 15126, Control_c, 0, 64, 88
1, 15277, Note_off_c, 0, 60, 49
1, 15347, Note_on_c, 0, 57, 40
1, 15436, Note_on_c, 0, 62, 52
1, 15512, Note_off_c, 0, 57, 37
1, 15540, Note_off_c, 0, 62, 55
1, 15548, Note_on_c, 0, 63, 65
1, 15552, Note_off_c, 0, 41, 49
1, 15567, Note_on_c, 0, 48, 45
1, 15623, Note_off_c, 0, 63, 61
1, 15623, Control_c, 0, 64, 87
1, 15653, Note_on_c, 0, 69, 64
1, 15667, Control_c, 0, 64, 87
1, 15682, Control_c, 0, 64, 86
1, 15697, Control_c, 0, 64, 84
1, 15712, Control_c, 0, 64, 78
1, 15727, Control_c, 0, 64, 71
1, 15728, Note_off_c, 0, 69, 58
1, 15742, Control_c, 0, 64, 64
1, 15757, Control_c, 0, 64, 54
1, 15759, Note_on_c, 0, 64, 60
1, 15772, Control_c, 0, 64, 41
1, 15782, Note_off_c, 0, 48, 35
1, 15785, Note_on_c, 0, 40, 41
1, 15786, Control_c, 0, 64, 0
1, 15876, Control_c, 0, 64, 33
1, 15891, Control_c, 0, 64, 46
1, 15905, Control_c, 0, 64, 56
1, 15920, Control_c, 0, 64, 62
1, 15935, Control_c, 0, 64, 64
1, 15950, Control_c, 0, 64, 65
1, 15965, Control_c, 0, 64, 66
1, 15979, Control_c, 0, 64, 67
1, 15994, Control_c, 0, 64, 68
1, 16009, Control_c, 0, 64, 70
1, 16017, Note_on_c, 0, 49, 46
1, 16024, Control_c, 0, 64, 71
1, 16040, Control_c, 0, 64, 72
1, 16055, Control_c, 0, 64, 73
1, 16057, Note_off_c, 0, 64, 56
1, 16070, Control_c, 0, 64, 74
1, 16084, Control_c, 0, 64, 76
1, 16099, Control_c, 0, 64, 77
1, 16105, Note_on_c, 0, 66, 70
1, 16114, Note_off_c, 0, 40, 37
1, 16114, Control_c, 0, 64, 78
1, 16128, Control_c, 0, 64, 78
1, 16143, Control_c, 0, 64, 79
1, 16143, Control_c, 0, 67, 123
1, 16158, Control_c, 0, 67, 111
1, 16173, Control_c, 0, 64, 80
1, 16173, Control_c, 0, 67, 98
1, 16188, Control_c, 0, 67, 81
1, 16195, Note_off_c, 0, 49, 62
1, 16198, Note_off_c, 0, 66, 63
1, 16202, Control_c, 0, 64, 80
1, 16202, Control_c, 0, 67, 66
1, 16213, Note_on_c, 0, 67, 76
1, 16217, Control_c, 0, 67, 53
1, 16220, Note_on_c, 0, 52, 44
1, 16232, Control_c, 0, 67, 41
1, 16247, Control_c, 0, 67, 0
1, 16252, Note_off_c, 0, 52, 49
1, 16281, Note_off_c, 0, 67, 63
1, 16297, Note_on_c, 0, 73, 77
1, 16413, Note_off_c, 0, 73, 57
1, 16422, Note_on_c, 0, 68, 75
1, 16432, Control_c, 0, 64, 79
1, 16437, Note_on_c, 0, 61, 55
1, 16447, Control_c, 0, 64, 75
1, 16461, Control_c, 0, 64, 67
1, 16476, Control_c, 0, 64, 58
1, 16491, Control_c, 0, 64, 48
1, 16506, Control_c, 0, 64, 41
1, 16521, Control_c, 0, 64, 39
1, 16535, Control_c, 0, 64, 41
1, 16550, Control_c, 0, 64, 47
1, 16565, Control_c, 0, 64, 54
1, 16580, Control_c, 0, 64, 60
1, 16595, Control_c, 0, 64, 64
1, 16609, Control_c, 0, 64, 66
1, 16624, Control_c, 0, 64, 69
1, 16639, Control_c, 0, 64, 71
1, 16654, Control_c, 0, 64, 73
1, 16669, Control_c, 0, 64, 75
1, 16683, Note_on_c, 0, 55, 51
1, 16684, Control_c, 0, 64, 78
1, 16699, Control_c, 0, 64, 80
1, 16714, Control_c, 0, 64, 82
1, 16728, Control_c, 0, 64, 83
1, 16743, Control_c, 0, 64, 85
1, 16758, Control_c, 0, 64, 87
1, 16771, Note_off_c, 0, 61, 36
1, 16773, Control_c, 0, 64, 89
1, 16788, Control_c, 0, 64, 90
1, 16793, Note_on_c, 0, 70, 78
1, 16802, Control_c, 0, 64, 92
1, 16817, Control_c, 0, 64, 93
1, 16833, Control_c, 0, 64, 94
1, 16842, Note_off_c, 0, 68, 54
1, 16848, Control_c, 0, 64, 95
1, 16863, Control_c, 0, 64, 95
1, 16915, Note_off_c, 0, 55, 34
1, 16922, Control_c, 0, 64, 97
1, 17011, Note_on_c, 0, 51, 46
1, 17032, Note_on_c, 0, 71, 83
1, 17077, Note_off_c, 0, 51, 59
1, 17118, Note_off_c, 0, 70, 54
1, 17200, Note_on_c, 0, 77, 85
1, 17231, Note_off_c, 0, 71, 57
1, 17328, Control_c, 0, 64, 96
1, 17343, Control_c, 0, 64, 95
1, 17357, Control_c, 0, 64, 92
1, 17362, Note_on_c, 0, 36, 49
1, 17372, Control_c, 0, 64, 88
1, 17387, Control_c, 0, 64, 82
1, 17402, Control_c, 0, 64, 75
1, 17417, Control_c, 0, 64, 67
1, 17419, Note_on_c, 0, 72, 76
1, 17431, Control_c, 0, 64, 58
1, 17446, Control_c, 0, 64, 47
1, 17455, Note_off_c, 0, 77, 62
1, 17461, Control_c, 0, 64, 28
1, 17475, Control_c, 0, 64, 0
1, 17609, Control_c, 0, 64, 36
1, 17625, Control_c, 0, 64, 50
1, 17640, Control_c, 0, 64, 59
1, 17654, Control_c, 0, 64, 64
1, 17669, Note_on_c, 0, 43, 45
1, 17669, Control_c, 0, 64, 66
1, 17684, Control_c, 0, 64, 68
1, 17698, Control_c, 0, 64, 70
1, 17711, Note_off_c, 0, 36, 34
1, 17713, Control_c, 0, 64, 73
1, 17728, Control_c, 0, 64, 75
1, 17743, Control_c, 0, 64, 78
1, 17758, Control_c, 0, 64, 80
1, 17772, Control_c, 0, 64, 83
1, 17787, Control_c, 0, 64, 85
1, 17802, Control_c, 0, 64, 88
1, 17817, Control_c, 0, 64, 90
1, 17832, Control_c, 0, 64, 92
1, 17854, Control_c, 0, 64, 95
1, 17869, Control_c, 0, 64, 98
1, 17884, Control_c, 0, 64, 100
1, 17899, Control_c, 0, 64, 103
1, 17913, Control_c, 0, 64, 107
1, 17919, Note_off_c, 0, 43, 52
1, 17921, Note_on_c, 0, 52, 43
1, 17928, Control_c, 0, 64, 110
1, 17943, Control_c, 0, 64, 114
1, 17958, Control_c, 0, 64, 120
1, 17973, Control_c, 0, 64, 127
1, 18031, Note_off_c, 0, 52, 60
1, 18182, Note_on_c, 0, 64, 47
1, 18353, Note_off_c, 0, 64, 57
1, 18446, Note_on_c, 0, 60, 36
1, 18715, Note_on_c, 0, 52, 44
1, 18757, Note_off_c, 0, 60, 32
1, 18826, Control_c, 0, 67, 45
1, 18841, Control_c, 0, 67, 53
1, 18855, Control_c, 0, 67, 58
1, 18870, Control_c, 0, 67, 60
1, 18900, Control_c, 0, 67, 61
1, 18959, Control_c, 0, 67, 60
1, 18974, Control_c, 0, 67, 60
1, 19018, Control_c, 0, 67, 59
1, 19033, Control_c, 0, 67, 58
1, 19048, Control_c, 0, 67, 58
1, 19051, Note_off_c, 0, 72, 59
1, 19057, Note_on_c, 0, 48, 48
1, 19063, Control_c, 0, 67, 57
1, 19078, Control_c, 0, 67, 56
1, 19092, Control_c, 0, 64, 114
1, 19092, Control_c, 0, 67, 56
1, 19107, Control_c, 0, 64, 105
1, 19122, Control_c, 0, 64, 97
1, 19137, Control_c, 0, 64, 90
1, 19137, Control_c, 0, 67, 55
1, 19146, Note_on_c, 0, 72, 73
1, 19152, Control_c, 0, 64, 82
1, 19167, Control_c, 0, 64, 75
1, 19167, Control_c, 0, 67, 54
1, 19167, Note_off_c, 0, 52, 39
1, 19182, Control_c, 0, 64, 64
1, 19182, Control_c, 0, 67, 54
1, 19196, Control_c, 0, 64, 55
1, 19196, Control_c, 0, 67, 53
1, 19211, Control_c, 0, 64, 45
1, 19211, Control_c, 0, 67, 53
1, 19227, Control_c, 0, 64, 34
1, 19227, Control_c, 0, 67, 52
1, 19241, Control_c, 0, 64, 0
1, 19301, Control_c, 0, 64, 29
1, 19316, Control_c, 0, 64, 35
1, 19331, Control_c, 0, 64, 43
1, 19352, Control_c, 0, 64, 51
1, 19367, Control_c, 0, 64, 58
1, 19382, Control_c, 0, 64, 61
1, 19397, Control_c, 0, 64, 64
1, 19412, Control_c, 0, 64, 65
1, 19426, Control_c, 0, 64, 66
1, 19441, Control_c, 0, 64, 68
1, 19444, Note_on_c, 0, 54, 42
1, 19456, Control_c, 0, 64, 70
1, 19471, Control_c, 0, 64, 72
1, 19486, Control_c, 0, 64, 73
1, 19501, Control_c, 0, 64, 75
1, 19516, Control_c, 0, 64, 76
1, 19531, Control_c, 0, 64, 78
1, 19546, Control_c, 0, 64, 78
1, 19560, Control_c, 0, 64, 79
1, 19575, Control_c, 0, 64, 80
1, 19590, Control_c, 0, 64, 80
1, 19620, Control_c, 0, 67, 53
1, 19634, Control_c, 0, 64, 81
1, 19649, Control_c, 0, 67, 53
1, 19659, Note_on_c, 0, 57, 50
1, 19696, Note_off_c, 0, 54, 36
1, 19708, Control_c, 0, 67, 54
1, 19738, Control_c, 0, 67, 54
1, 19752, Control_c, 0, 64, 81
1, 19812, Control_c, 0, 64, 82
1, 19841, Control_c, 0, 64, 82
1, 19870, Control_c, 0, 64, 83
1, 19870, Control_c, 0, 67, 55
1, 19885, Control_c, 0, 64, 83
1, 19900, Control_c, 0, 64, 84
1, 19900, Control_c, 0, 67, 56
1, 19915, Control_c, 0, 64, 85
1, 19917, Note_on_c, 0, 63, 53
1, 19930, Control_c, 0, 64, 86
1, 19930, Control_c, 0, 67, 56
1, 19934, Note_off_c, 0, 57, 56
1, 19945, Control_c, 0, 64, 87
1, 19945, Control_c, 0, 67, 57
1, 19960, Control_c, 0, 64, 88
1, 19960, Control_c, 0, 67, 58
1, 19975, Control_c, 0, 64, 89
1, 19975, Control_c, 0, 67, 60
1, 19990, Control_c, 0, 64, 90
1, 19990, Control_c, 0, 67, 60
1, 20004, Control_c, 0, 64, 91
1, 20004, Control_c, 0, 67, 61
1, 20020, Control_c, 0, 64, 91
1, 20020, Control_c, 0, 67, 62
1, 20035, Control_c, 0, 64, 92
1, 20035, Control_c, 0, 67, 62
1, 20049, Note_off_c, 0, 72, 53
1, 20049, Control_c, 0, 64, 92
1, 20049, Control_c, 0, 67, 63
1, 20064, Control_c, 0, 64, 93
1, 20064, Control_c, 0, 67, 64
1, 20079, Control_c, 0, 67, 65
1, 20101, Control_c, 0, 64, 93
1, 20116, Control_c, 0, 67, 66
1, 20131, Control_c, 0, 67, 66
1, 20146, Control_c, 0, 64, 94
1, 20178, Note_on_c, 0, 57, 48
1, 20219, Note_off_c, 0, 63, 33
1, 20249, Control_c, 0, 67, 66
1, 20294, Control_c, 0, 67, 65
1, 20309, Control_c, 0, 67, 64
1, 20312, Note_on_c, 0, 78, 57
1, 20324, Control_c, 0, 67, 64
1, 20338, Control_c, 0, 67, 63
1, 20368, Control_c, 0, 67, 62
1, 20383, Control_c, 0, 67, 62
1, 20398, Control_c, 0, 67, 61
1, 20404, Note_off_c, 0, 48, 37
1, 20428, Control_c, 0, 67, 60
1, 20443, Control_c, 0, 67, 60
1, 20443, Note_off_c, 0, 78, 56
1, 20447, Note_on_c, 0, 54, 37
1, 20457, Note_on_c, 0, 69, 57
1, 20472, Control_c, 0, 67, 59
1, 20487, Control_c, 0, 67, 58
1, 20501, Control_c, 0, 67, 57
1, 20510, Note_off_c, 0, 57, 40
1, 20529, Note_off_c, 0, 69, 60
1, 20565, Note_on_c, 0, 83, 71
1, 20575, Control_c, 0, 67, 56
1, 20590, Control_c, 0, 64, 93
1, 20605, Control_c, 0, 64, 86
1, 20605, Control_c, 0, 67, 56
1, 20619, Control_c, 0, 64, 74
1, 20634, Control_c, 0, 64, 63
1, 20634, Control_c, 0, 67, 55
1, 20642, Note_off_c, 0, 83, 59
1, 20649, Control_c, 0, 64, 55
1, 20664, Control_c, 0, 64, 54
1, 20664, Control_c, 0, 67, 54
1, 20674, Note_on_c, 0, 48, 56
1, 20679, Control_c, 0, 64, 56
1, 20679, Control_c, 0, 67, 53
1, 20682, Note_on_c, 0, 80, 72
1, 20693, Note_off_c, 0, 54, 47
1, 20694, Control_c, 0, 64, 61
1, 20694, Control_c, 0, 67, 53
1, 20709, Control_c, 0, 64, 66
1, 20709, Control_c, 0, 67, 52
1, 20724, Control_c, 0, 64, 70
1, 20724, Control_c, 0, 67, 51
1, 20739, Control_c, 0, 64, 73
1, 20739, Control_c, 0, 67, 51
1, 20754, Control_c, 0, 64, 75
1, 20768, Control_c, 0, 64, 76
1, 20768, Control_c, 0, 67, 50
1, 20780, Note_off_c, 0, 80, 63
1, 20783, Control_c, 0, 64, 78
1, 20783, Control_c, 0, 67, 49
1, 20789, Note_on_c, 0, 86, 73
1, 20798, Control_c, 0, 64, 79
1, 20798, Control_c, 0, 67, 49
1, 20813, Control_c, 0, 64, 81
1, 20829, Control_c, 0, 64, 83
1, 20829, Control_c, 0, 67, 48
1, 20851, Control_c, 0, 64, 85
1, 20851, Control_c, 0, 67, 47
1, 20866, Control_c, 0, 64, 86
1, 20866, Control_c, 0, 67, 47
1, 20881, Control_c, 0, 64, 87
1, 20881, Note_off_c, 0, 86, 64
1, 20896, Control_c, 0, 64, 88
1, 20896, Control_c, 0, 67, 46
1, 20909, Note_on_c, 0, 77, 73
1, 20911, Note_on_c, 0, 56, 51
1, 20911, Control_c, 0, 64, 89
1, 20925, Control_c, 0, 64, 90
1, 20940, Control_c, 0, 64, 90
1, 20940, Control_c, 0, 67, 45
1, 20955, Control_c, 0, 64, 91
1, 20962, Note_off_c, 0, 77, 65
1, 21010, Note_on_c, 0, 91, 76
1, 21014, Control_c, 0, 64, 91
1, 21057, Control_c, 0, 64, 92
1, 21078, Note_off_c, 0, 91, 65
1, 21120, Note_on_c, 0, 88, 80
1, 21140, Note_on_c, 0, 61, 42
1, 21206, Control_c, 0, 67, 45
1, 21228, Note_off_c, 0, 88, 63
1, 21232, Note_on_c, 0, 94, 84
1, 21236, Control_c, 0, 67, 44
1, 21245, Note_off_c, 0, 61, 37
1, 21250, Control_c, 0, 67, 43
1, 21265, Control_c, 0, 67, 43
1, 21295, Control_c, 0, 67, 42
1, 21335, Note_off_c, 0, 94, 64
1, 21339, Control_c, 0, 67, 41
1, 21348, Note_on_c, 0, 85, 83
1, 21369, Control_c, 0, 67, 41
1, 21382, Note_off_c, 0, 48, 33
1, 21384, Note_off_c, 0, 56, 45
1, 21388, Note_on_c, 0, 52, 46
1, 21413, Control_c, 0, 67, 40
1, 21428, Control_c, 0, 64, 91
1, 21428, Control_c, 0, 67, 39
1, 21442, Control_c, 0, 67, 0
1, 21470, Note_on_c, 0, 99, 85
1, 21504, Note_off_c, 0, 85, 59
1, 21654, Note_on_c, 0, 48, 52
1, 21673, Control_c, 0, 64, 90
1, 21688, Control_c, 0, 64, 85
1, 21692, Note_on_c, 0, 96, 86
1, 21698, Note_off_c, 0, 52, 27
1, 21703, Control_c, 0, 64, 75
1, 21718, Control_c, 0, 64, 63
1, 21733, Control_c, 0, 64, 46
1, 21736, Note_off_c, 0, 99, 60
1, 21747, Control_c, 0, 64, 0
1, 21792, Control_c, 0, 64, 37
1, 21807, Control_c, 0, 64, 51
1, 21821, Control_c, 0, 64, 61
1, 21836, Control_c, 0, 64, 67
1, 21851, Control_c, 0, 64, 73
1, 21866, Control_c, 0, 64, 77
1, 21880, Control_c, 0, 64, 79
1, 21895, Control_c, 0, 64, 82
1, 21910, Control_c, 0, 64, 84
1, 21919, Note_off_c, 0, 96, 67
1, 21925, Control_c, 0, 64, 87
1, 21940, Control_c, 0, 64, 89
1, 21951, Note_on_c, 0, 55, 61
1, 21951, Note_off_c, 0, 48, 53
1, 21954, Control_c, 0, 64, 91
1, 21969, Control_c, 0, 64, 92
1, 21984, Control_c, 0, 64, 93
1, 21999, Control_c, 0, 64, 94
1, 22014, Control_c, 0, 64, 95
1, 22029, Control_c, 0, 64, 95
1, 22044, Control_c, 0, 64, 96
1, 22190, Note_on_c, 0, 60, 61
1, 22246, Note_on_c, 0, 72, 82
1, 22486, Note_on_c, 0, 65, 71
1, 22505, Note_off_c, 0, 60, 55
1, 22508, Note_off_c, 0, 55, 56
1, 22798, Note_on_c, 0, 55, 41
1, 22849, Note_off_c, 0, 65, 52
1, 23025, Note_off_c, 0, 72, 58
1, 23108, Note_on_c, 0, 64, 59
1, 23111, Control_c, 0, 64, 95
1, 23126, Control_c, 0, 64, 93
1, 23141, Control_c, 0, 64, 89
1, 23156, Control_c, 0, 64, 85
1, 23166, Note_on_c, 0, 72, 68
1, 23170, Control_c, 0, 64, 82
1, 23185, Control_c, 0, 64, 81
1, 23200, Control_c, 0, 64, 81
1, 23334, Control_c, 0, 64, 80
1, 23409, Control_c, 0, 64, 79
1, 23412, Note_on_c, 0, 48, 48
1, 23415, Note_off_c, 0, 55, 61
1, 23424, Control_c, 0, 64, 76
1, 23438, Control_c, 0, 64, 69
1, 23453, Control_c, 0, 64, 62
1, 23468, Control_c, 0, 64, 54
1, 23483, Control_c, 0, 64, 47
1, 23498, Control_c, 0, 64, 44
1, 23513, Control_c, 0, 64, 43
1, 23527, Control_c, 0, 64, 44
1, 23542, Control_c, 0, 64, 46
1, 23557, Control_c, 0, 64, 48
1, 23572, Control_c, 0, 64, 51
1, 23587, Control_c, 0, 64, 52
1, 23601, Control_c, 0, 64, 55
1, 23616, Control_c, 0, 64, 57
1, 23631, Control_c, 0, 64, 59
1, 23645, Control_c, 0, 64, 62
1, 23660, Control_c, 0, 64, 64
1, 23674, Note_on_c, 0, 54, 46
1, 23675, Control_c, 0, 64, 66
1, 23690, Control_c, 0, 64, 69
1, 23705, Control_c, 0, 64, 71
1, 23719, Control_c, 0, 64, 73
1, 23734, Control_c, 0, 64, 74
1, 23749, Control_c, 0, 64, 76
1, 23764, Control_c, 0, 64, 77
1, 23779, Control_c, 0, 64, 78
1, 23793, Control_c, 0, 64, 79
1, 23808, Control_c, 0, 64, 80
1, 23823, Control_c, 0, 64, 81
1, 23845, Control_c, 0, 64, 82
1, 23860, Control_c, 0, 64, 82
1, 23875, Control_c, 0, 64, 83
1, 23890, Control_c, 0, 64, 83
1, 23904, Note_on_c, 0, 57, 52
1, 23905, Control_c, 0, 64, 84
1, 23934, Control_c, 0, 64, 84
1, 23940, Note_off_c, 0, 54, 36
1, 23956, Note_off_c, 0, 64, 43
1, 23993, Control_c, 0, 64, 85
1, 24054, Control_c, 0, 64, 85
1, 24142, Control_c, 0, 64, 85
1, 24154, Note_off_c, 0, 57, 56
1, 24157, Control_c, 0, 64, 83
1, 24159, Note_on_c, 0, 64, 65
1, 24166, Poly_aftertouch_c, 0, 50, 127
1, 24172, Control_c, 0, 64, 80
1, 24187, Control_c, 0, 64, 75
1, 24202, Control_c, 0, 64, 72
1, 24217, Control_c, 0, 64, 70
1, 24261, Control_c, 0, 64, 71
1, 24276, Control_c, 0, 64, 72
1, 24291, Control_c, 0, 64, 73
1, 24306, Control_c, 0, 64, 75
1, 24321, Control_c, 0, 64, 76
1, 24336, Control_c, 0, 64, 78
1, 24350, Control_c, 0, 64, 78
1, 24365, Control_c, 0, 64, 79
1, 24380, Control_c, 0, 64, 80
1, 24395, Control_c, 0, 64, 81
1, 24424, Control_c, 0, 64, 81
1, 24439, Control_c, 0, 67, 43
1, 24454, Control_c, 0, 64, 82
1, 24454, Control_c, 0, 67, 56
1, 24468, Control_c, 0, 67, 66
1, 24483, Control_c, 0, 67, 74
1, 24491, Note_off_c, 0, 64, 53
1, 24498, Control_c, 0, 67, 81
1, 24504, Note_on_c, 0, 57, 41
1, 24513, Control_c, 0, 67, 86
1, 24528, Control_c, 0, 67, 93
1, 24542, Control_c, 0, 67, 103
1, 24551, Note_off_c, 0, 72, 61
1, 24557, Control_c, 0, 67, 113
1, 24572, Control_c, 0, 67, 121
1, 24594, Control_c, 0, 67, 127
1, 24611, Note_on_c, 0, 78, 57
1, 24729, Note_off_c, 0, 78, 56
1, 24733, Note_off_c, 0, 48, 51
1, 24746, Note_on_c, 0, 63, 51
1, 24750, Note_on_c, 0, 69, 65
1, 24750, Poly_aftertouch_c, 0, 50, 0
1, 24807, Note_off_c, 0, 69, 55
1, 24861, Note_on_c, 0, 83, 68
1, 24938, Note_off_c, 0, 83, 58
1, 24950, Control_c, 0, 64, 81
1, 24965, Control_c, 0, 64, 75
1, 24980, Control_c, 0, 64, 66
1, 24989, Note_on_c, 0, 80, 65
1, 24990, Note_on_c, 0, 48, 47
1, 24992, Note_off_c, 0, 57, 56
1, 24995, Control_c, 0, 64, 56
1, 25010, Control_c, 0, 64, 49
1, 25024, Control_c, 0, 64, 48
1, 25039, Control_c, 0, 64, 51
1, 25054, Control_c, 0, 64, 57
1, 25069, Control_c, 0, 64, 62
1, 25084, Control_c, 0, 64, 64
1, 25084, Note_off_c, 0, 80, 63
1, 25098, Control_c, 0, 64, 67
1, 25113, Control_c, 0, 64, 70
1, 25119, Note_on_c, 0, 86, 62
1, 25128, Control_c, 0, 64, 72
1, 25143, Control_c, 0, 64, 73
1, 25158, Control_c, 0, 64, 75
1, 25172, Control_c, 0, 64, 76
1, 25187, Control_c, 0, 64, 77
1, 25188, Note_off_c, 0, 86, 62
1, 25202, Control_c, 0, 64, 78
1, 25216, Note_off_c, 0, 63, 55
1, 25216, Control_c, 0, 64, 79
1, 25230, Note_on_c, 0, 77, 61
1, 25231, Control_c, 0, 64, 79
1, 25237, Note_on_c, 0, 56, 43
1, 25261, Control_c, 0, 64, 80
1, 25283, Note_off_c, 0, 77, 63
1, 25349, Note_on_c, 0, 91, 68
1, 25358, Control_c, 0, 64, 80
1, 25402, Note_off_c, 0, 91, 60
1, 25476, Control_c, 0, 64, 79
1, 25481, Note_on_c, 0, 88, 59
1, 25491, Control_c, 0, 64, 75
1, 25498, Note_on_c, 0, 61, 39
1, 25505, Control_c, 0, 64, 67
1, 25520, Control_c, 0, 64, 59
1, 25536, Control_c, 0, 64, 56
1, 25566, Control_c, 0, 64, 58
1, 25580, Control_c, 0, 64, 61
1, 25586, Note_off_c, 0, 88, 57
1, 25595, Control_c, 0, 64, 64
1, 25610, Control_c, 0, 64, 66
1, 25626, Control_c, 0, 64, 70
1, 25636, Note_on_c, 0, 94, 54
1, 25640, Control_c, 0, 64, 72
1, 25655, Control_c, 0, 64, 74
1, 25670, Control_c, 0, 64, 75
1, 25685, Control_c, 0, 64, 77
1, 25700, Control_c, 0, 64, 78
1, 25714, Control_c, 0, 64, 80
1, 25729, Control_c, 0, 64, 81
1, 25744, Control_c, 0, 64, 82
1, 25759, Control_c, 0, 64, 83
1, 25767, Note_off_c, 0, 94, 38
1, 25774, Control_c, 0, 64, 84
1, 25788, Control_c, 0, 64, 86
1, 25791, Note_on_c, 0, 85, 48
1, 25803, Control_c, 0, 64, 87
1, 25818, Note_on_c, 0, 52, 31
1, 25818, Control_c, 0, 64, 88
1, 25833, Control_c, 0, 64, 89
1, 25847, Control_c, 0, 64, 90
1, 25862, Control_c, 0, 64, 91
1, 25865, Note_off_c, 0, 61, 30
1, 25877, Control_c, 0, 64, 92
1, 25892, Control_c, 0, 64, 92
1, 25907, Control_c, 0, 64, 93
1, 25913, Note_off_c, 0, 56, 27
1, 25922, Control_c, 0, 64, 93
1, 25937, Control_c, 0, 64, 94
1, 25966, Control_c, 0, 64, 94
1, 26011, Note_on_c, 0, 99, 51
1, 26026, Control_c, 0, 64, 95
1, 26073, Note_off_c, 0, 48, 21
1, 26104, Note_off_c, 0, 52, 34
1, 26294, Note_on_c, 0, 48, 34
1, 26300, Control_c, 0, 64, 94
1, 26314, Control_c, 0, 64, 94
1, 26329, Control_c, 0, 64, 92
1, 26344, Control_c, 0, 64, 88
1, 26348, Note_on_c, 0, 96, 59
1, 26359, Control_c, 0, 64, 81
1, 26373, Control_c, 0, 64, 72
1, 26381, Note_off_c, 0, 85, 39
1, 26388, Control_c, 0, 64, 64
1, 26403, Control_c, 0, 64, 56
1, 26419, Control_c, 0, 64, 48
1, 26434, Control_c, 0, 64, 42
1, 26435, Note_off_c, 0, 99, 58
1, 26449, Control_c, 0, 64, 41
1, 26478, Control_c, 0, 64, 43
1, 26493, Control_c, 0, 64, 47
1, 26508, Control_c, 0, 64, 53
1, 26523, Control_c, 0, 64, 58
1, 26537, Control_c, 0, 64, 63
1, 26552, Control_c, 0, 64, 65
1, 26567, Control_c, 0, 64, 67
1, 26582, Control_c, 0, 64, 69
1, 26597, Control_c, 0, 64, 71
1, 26611, Control_c, 0, 64, 73
1, 26626, Control_c, 0, 64, 75
1, 26641, Control_c, 0, 64, 78
1, 26656, Control_c, 0, 64, 80
1, 26670, Control_c, 0, 64, 82
1, 26685, Control_c, 0, 64, 84
1, 26694, Note_on_c, 0, 55, 26
1, 26700, Control_c, 0, 64, 87
1, 26715, Control_c, 0, 64, 89
1, 26730, Control_c, 0, 64, 91
1, 26744, Control_c, 0, 64, 94
1, 26756, Note_off_c, 0, 96, 62
1, 26759, Control_c, 0, 64, 97
1, 26774, Control_c, 0, 64, 101
1, 26789, Control_c, 0, 64, 105
1, 26804, Control_c, 0, 64, 110
1, 26819, Control_c, 0, 64, 119
1, 26841, Control_c, 0, 64, 127
1, 26970, Note_on_c, 0, 60, 31
1, 26995, Note_off_c, 0, 55, 42
1, 27229, Note_on_c, 0, 64, 39
1, 27299, Note_off_c, 0, 60, 42
1, 27472, Note_on_c, 0, 60, 26
1, 27642, Note_off_c, 0, 60, 43
1, 27735, Note_on_c, 0, 52, 36
1, 27750, Note_off_c, 0, 48, 39
1, 27802, Note_off_c, 0, 52, 60
1, 27993, Note_on_c, 0, 36, 49
1, 28247, Note_on_c, 0, 43, 55
1, 28295, Note_off_c, 0, 64, 59
1, 28398, Control_c, 0, 67, 119
1, 28413, Control_c, 0, 67, 109
1, 28428, Control_c, 0, 67, 100
1, 28442, Control_c, 0, 67, 91
1, 28457, Control_c, 0, 67, 83
1, 28472, Control_c, 0, 67, 73
1, 28487, Control_c, 0, 67, 64
1, 28497, Note_on_c, 0, 52, 60
1, 28502, Control_c, 0, 67, 55
1, 28509, Note_off_c, 0, 43, 59
1, 28516, Control_c, 0, 67, 47
1, 28532, Control_c, 0, 67, 0
1, 28755, Note_on_c, 0, 55, 59
1, 28801, Note_off_c, 0, 52, 56
1, 29008, Note_on_c, 0, 52, 62
1, 29165, Note_off_c, 0, 55, 58
1, 29269, Note_off_c, 0, 52, 52
1, 29326, Note_on_c, 0, 43, 69
1, 29383, Note_off_c, 0, 36, 60
1, 29481, Note_on_c, 0, 55, 81
1, 29642, Note_off_c, 0, 43, 61
1, 29644, Note_on_c, 0, 36, 69
1, 29710, Control_c, 0, 64, 96
1, 29720, Note_on_c, 0, 60, 89
1, 29725, Control_c, 0, 64, 78
1, 29740, Control_c, 0, 64, 63
1, 29746, Note_off_c, 0, 55, 63
1, 29755, Control_c, 0, 64, 46
1, 29770, Control_c, 0, 64, 0
1, 29925, Control_c, 0, 64, 41
1, 29940, Control_c, 0, 64, 54
1, 29955, Control_c, 0, 64, 61
1, 29964, Note_on_c, 0, 43, 63
1, 29970, Control_c, 0, 64, 65
1, 29985, Control_c, 0, 64, 68
1, 30000, Control_c, 0, 64, 72
1, 30014, Control_c, 0, 64, 77
1, 30029, Control_c, 0, 64, 82
1, 30044, Control_c, 0, 64, 87
1, 30059, Control_c, 0, 64, 92
1, 30074, Control_c, 0, 64, 98
1, 30088, Control_c, 0, 64, 104
1, 30103, Control_c, 0, 64, 114
1, 30118, Control_c, 0, 64, 127
1, 30188, Note_on_c, 0, 51, 65
1, 30289, Note_off_c, 0, 43, 38
1, 30322, Note_off_c, 0, 51, 46
1, 30342, Poly_aftertouch_c, 0, 38, 127
1, 30422, Note_on_c, 0, 55, 69
1, 30541, Note_off_c, 0, 55, 61
1, 30609, Note_off_c, 0, 60, 61
1, 30649, Note_on_c, 0, 51, 65
1, 30715, Note_off_c, 0, 51, 60
1, 30846, Note_off_c, 0, 36, 57
1, 30858, Note_on_c, 0, 43, 64
1, 30870, Poly_aftertouch_c, 0, 38, 0
1, 30935, Note_on_c, 0, 54, 82
1, 31013, Note_off_c, 0, 54, 59
1, 31014, Control_c, 0, 64, 113
1, 31018, Note_on_c, 0, 65, 86
1, 31029, Control_c, 0, 64, 107
1, 31043, Control_c, 0, 64, 103
1, 31058, Control_c, 0, 64, 98
1, 31073, Control_c, 0, 64, 95
1, 31088, Control_c, 0, 64, 91
1, 31103, Control_c, 0, 64, 87
1, 31111, Note_off_c, 0, 43, 61
1, 31117, Note_on_c, 0, 36, 71
1, 31117, Control_c, 0, 64, 80
1, 31123, Note_on_c, 0, 63, 93
1, 31132, Control_c, 0, 64, 71
1, 31134, Note_off_c, 0, 65, 62
1, 31147, Control_c, 0, 64, 60
1, 31162, Control_c, 0, 64, 46
1, 31177, Control_c, 0, 64, 0
1, 31333, Control_c, 0, 64, 36
1, 31348, Control_c, 0, 64, 50
1, 31363, Control_c, 0, 64, 60
1, 31378, Control_c, 0, 64, 64
1, 31389, Note_on_c, 0, 44, 60
1, 31392, Control_c, 0, 64, 67
1, 31407, Control_c, 0, 64, 68
1, 31422, Control_c, 0, 64, 70
1, 31437, Control_c, 0, 64, 73
1, 31452, Control_c, 0, 64, 76
1, 31466, Control_c, 0, 64, 79
1, 31481, Control_c, 0, 64, 81
1, 31496, Control_c, 0, 64, 84
1, 31511, Control_c, 0, 64, 86
1, 31526, Control_c, 0, 64, 88
1, 31540, Note_off_c, 0, 36, 34
1, 31540, Control_c, 0, 64, 90
1, 31555, Control_c, 0, 64, 92
1, 31570, Control_c, 0, 64, 94
1, 31584, Control_c, 0, 64, 94
1, 31587, Note_off_c, 0, 44, 63
1, 31594, Note_on_c, 0, 50, 69
1, 31599, Control_c, 0, 64, 95
1, 31614, Control_c, 0, 64, 96
1, 31812, Note_on_c, 0, 54, 71
1, 31818, Note_off_c, 0, 50, 53
1, 32028, Note_off_c, 0, 54, 62
1, 32045, Note_on_c, 0, 50, 69
1, 32244, Control_c, 0, 64, 95
1, 32257, Note_on_c, 0, 44, 67
1, 32275, Control_c, 0, 64, 95
1, 32292, Note_off_c, 0, 50, 39
1, 32319, Control_c, 0, 64, 94
1, 32349, Control_c, 0, 64, 94
1, 32393, Control_c, 0, 64, 93
1, 32423, Control_c, 0, 64, 93
1, 32453, Control_c, 0, 64, 92
1, 32468, Control_c, 0, 64, 91
1, 32482, Control_c, 0, 64, 89
1, 32491, Note_on_c, 0, 36, 76
1, 32497, Control_c, 0, 64, 84
1, 32509, Note_off_c, 0, 44, 61
1, 32512, Control_c, 0, 64, 77
1, 32527, Control_c, 0, 64, 67
1, 32542, Control_c, 0, 64, 55
1, 32556, Control_c, 0, 64, 37
1, 32571, Control_c, 0, 64, 0
1, 32660, Control_c, 0, 64, 42
1, 32674, Control_c, 0, 64, 53
1, 32689, Control_c, 0, 64, 60
1, 32704, Control_c, 0, 64, 63
1, 32719, Control_c, 0, 64, 64
1, 32733, Control_c, 0, 64, 65
1, 32739, Note_on_c, 0, 44, 70
1, 32748, Control_c, 0, 64, 67
1, 32763, Control_c, 0, 64, 70
1, 32778, Control_c, 0, 64, 72
1, 32793, Control_c, 0, 64, 74
1, 32809, Control_c, 0, 64, 76
1, 32831, Control_c, 0, 64, 78
1, 32846, Control_c, 0, 64, 80
1, 32861, Control_c, 0, 64, 82
1, 32873, Note_off_c, 0, 36, 35
1, 32876, Control_c, 0, 64, 84
1, 32891, Control_c, 0, 64, 85
1, 32905, Control_c, 0, 64, 86
1, 32920, Control_c, 0, 64, 87
1, 32935, Control_c, 0, 64, 87
1, 32954, Note_on_c, 0, 50, 67
1, 32956, Note_off_c, 0, 44, 62
1, 32965, Control_c, 0, 64, 88
1, 32994, Control_c, 0, 64, 88
1, 33035, Note_on_c, 0, 68, 81
1, 33052, Note_off_c, 0, 63, 57
1, 33127, Control_c, 0, 64, 89
1, 33179, Note_off_c, 0, 50, 53
1, 33192, Note_on_c, 0, 54, 61
1, 33235, Note_on_c, 0, 62, 82
1, 33243, Note_off_c, 0, 68, 56
1, 33261, Control_c, 0, 64, 88
1, 33380, Note_on_c, 0, 61, 84
1, 33389, Note_off_c, 0, 62, 59
1, 33432, Note_off_c, 0, 54, 61
1, 33483, Control_c, 0, 64, 88
1, 33491, Note_on_c, 0, 59, 86
1, 33492, Note_off_c, 0, 61, 61
1, 33495, Note_on_c, 0, 50, 62
1, 33556, Control_c, 0, 64, 87
1, 33562, Note_off_c, 0, 59, 60
1, 33587, Note_on_c, 0, 64, 81
1, 33594, Control_c, 0, 64, 87
1, 33624, Control_c, 0, 64, 86
1, 33639, Control_c, 0, 64, 85
1, 33654, Control_c, 0, 64, 85
1, 33663, Note_off_c, 0, 50, 39
1, 33669, Control_c, 0, 64, 84
1, 33684, Control_c, 0, 64, 83
1, 33684, Note_off_c, 0, 64, 64
1, 33691, Note_on_c, 0, 58, 85
1, 33696, Note_on_c, 0, 44, 62
1, 33699, Control_c, 0, 64, 82
1, 33714, Control_c, 0, 64, 80
1, 33728, Control_c, 0, 64, 79
1, 33743, Control_c, 0, 64, 78
1, 33758, Control_c, 0, 64, 78
1, 33773, Control_c, 0, 64, 77
1, 33775, Note_off_c, 0, 58, 64
1, 33776, Note_on_c, 0, 56, 90
1, 33787, Control_c, 0, 64, 76
1, 33802, Control_c, 0, 64, 73
1, 33817, Control_c, 0, 64, 69
1, 33832, Control_c, 0, 64, 63
1, 33842, Note_off_c, 0, 44, 60
1, 33847, Control_c, 0, 64, 53
1, 33861, Control_c, 0, 64, 37
1, 33871, Note_off_c, 0, 56, 57
1, 33876, Control_c, 0, 64, 0
1, 33881, Note_on_c, 0, 36, 68
1, 33903, Note_on_c, 0, 55, 78
1, 33979, Control_c, 0, 64, 35
1, 33994, Control_c, 0, 64, 53
1, 34009, Control_c, 0, 64, 60
1, 34015, Note_off_c, 0, 36, 57
1, 34024, Control_c, 0, 64, 62
1, 34039, Control_c, 0, 64, 63
1, 34054, Control_c, 0, 64, 65
1, 34069, Control_c, 0, 64, 66
1, 34083, Control_c, 0, 64, 67
1, 34098, Control_c, 0, 64, 68
1, 34113, Control_c, 0, 64, 69
1, 34128, Control_c, 0, 64, 69
1, 34139, Note_on_c, 0, 53, 73
1, 34172, Control_c, 0, 64, 70
1, 34217, Control_c, 0, 64, 70
1, 34246, Control_c, 0, 64, 71
1, 34261, Control_c, 0, 64, 71
1, 34291, Control_c, 0, 64, 72
1, 34371, Note_on_c, 0, 50, 69
1, 34408, Note_off_c, 0, 53, 39
1, 34596, Control_c, 0, 64, 67
1, 34603, Note_off_c, 0, 50, 63
1, 34610, Control_c, 0, 64, 57
1, 34615, Note_on_c, 0, 51, 68
1, 34625, Control_c, 0, 64, 35
1, 34640, Control_c, 0, 64, 0
1, 34684, Control_c, 0, 64, 33
1, 34699, Control_c, 0, 64, 52
1, 34714, Control_c, 0, 64, 62
1, 34729, Control_c, 0, 64, 67
1, 34744, Control_c, 0, 64, 70
1, 34758, Control_c, 0, 64, 71
1, 34773, Control_c, 0, 64, 73
1, 34788, Control_c, 0, 64, 74
1, 34794, Note_off_c, 0, 55, 63
1, 34802, Control_c, 0, 64, 76
1, 34817, Control_c, 0, 64, 78
1, 34832, Control_c, 0, 64, 78
1, 34847, Control_c, 0, 64, 79
1, 34862, Control_c, 0, 64, 79
1, 34875, Note_off_c, 0, 51, 62
1, 34879, Note_on_c, 0, 48, 75
1, 34921, Control_c, 0, 64, 80
1, 34951, Control_c, 0, 64, 80
1, 34971, Note_on_c, 0, 66, 89
1, 34981, Control_c, 0, 64, 81
1, 34995, Control_c, 0, 64, 82
1, 35010, Control_c, 0, 64, 84
1, 35025, Control_c, 0, 64, 85
1, 35040, Control_c, 0, 64, 87
1, 35055, Control_c, 0, 64, 88
1, 35076, Control_c, 0, 64, 90
1, 35091, Control_c, 0, 64, 91
1, 35106, Control_c, 0, 64, 92
1, 35121, Control_c, 0, 64, 93
1, 35126, Note_off_c, 0, 48, 50
1, 35136, Control_c, 0, 64, 93
1, 35151, Control_c, 0, 64, 94
1, 35154, Note_on_c, 0, 43, 72
1, 35155, Note_off_c, 0, 66, 62
1, 35156, Note_on_c, 0, 67, 85
1, 35180, Control_c, 0, 64, 94
1, 35195, Control_c, 0, 64, 95
1, 35225, Control_c, 0, 64, 95
1, 35249, Note_off_c, 0, 67, 63
1, 35277, Note_on_c, 0, 72, 87
1, 35359, Note_off_c, 0, 72, 63
1, 35369, Note_on_c, 0, 63, 81
1, 35418, Note_on_c, 0, 35, 68
1, 35421, Note_off_c, 0, 43, 58
1, 35433, Control_c, 0, 64, 95
1, 35442, Note_on_c, 0, 68, 73
1, 35478, Control_c, 0, 64, 94
1, 35493, Control_c, 0, 64, 88
1, 35507, Control_c, 0, 64, 69
1, 35522, Control_c, 0, 64, 48
1, 35537, Note_on_c, 0, 47, 68
1, 35537, Control_c, 0, 64, 0
1, 35562, Note_on_c, 0, 75, 92
1, 35596, Control_c, 0, 64, 47
1, 35611, Control_c, 0, 64, 60
1, 35613, Note_off_c, 0, 35, 62
1, 35625, Control_c, 0, 64, 67
1, 35640, Control_c, 0, 64, 71
1, 35655, Control_c, 0, 64, 75
1, 35670, Note_off_c, 0, 47, 64
1, 35670, Control_c, 0, 64, 79
1, 35675, Note_off_c, 0, 63, 44
1, 35685, Control_c, 0, 64, 83
1, 35699, Control_c, 0, 64, 89
1, 35714, Control_c, 0, 64, 96
1, 35729, Control_c, 0, 64, 103
1, 35744, Control_c, 0, 64, 110
1, 35746, Note_off_c, 0, 68, 35
1, 35759, Control_c, 0, 64, 120
1, 35774, Control_c, 0, 64, 127
1, 35861, Note_on_c, 0, 56, 80
1, 35865, Note_off_c, 0, 75, 66
1, 36090, Note_on_c, 0, 80, 89
1, 36091, Note_on_c, 0, 63, 64
1, 36272, Note_off_c, 0, 80, 62
1, 36321, Note_on_c, 0, 68, 71
1, 36358, Note_off_c, 0, 63, 58
1, 36478, Note_off_c, 0, 56, 37
1, 36492, Note_off_c, 0, 68, 59
1, 36519, Note_on_c, 0, 74, 89
1, 36533, Note_on_c, 0, 63, 60
1, 36758, Note_off_c, 0, 74, 57
1, 36763, Note_on_c, 0, 73, 85
1, 36774, Note_on_c, 0, 56, 63
1, 36789, Note_off_c, 0, 63, 37
1, 36838, Note_off_c, 0, 73, 65
1, 36845, Note_off_c, 0, 56, 63
1, 36898, Note_on_c, 0, 59, 73
1, 36969, Note_on_c, 0, 64, 65
1, 37048, Note_on_c, 0, 44, 56
1, 37094, Note_on_c, 0, 71, 91
1, 37094, Control_c, 0, 64, 114
1, 37109, Control_c, 0, 64, 86
1, 37124, Control_c, 0, 64, 68
1, 37139, Control_c, 0, 64, 55
1, 37153, Control_c, 0, 64, 44
1, 37168, Control_c, 0, 64, 43
1, 37183, Control_c, 0, 64, 48
1, 37197, Control_c, 0, 64, 57
1, 37212, Control_c, 0, 64, 63
1, 37227, Control_c, 0, 64, 68
1, 37242, Control_c, 0, 64, 74
1, 37257, Control_c, 0, 64, 79
1, 37271, Control_c, 0, 64, 82
1, 37286, Control_c, 0, 64, 86
1, 37297, Note_off_c, 0, 59, 62
1, 37301, Control_c, 0, 64, 90
1, 37323, Control_c, 0, 64, 94
1, 37334, Note_off_c, 0, 64, 64
1, 37334, Note_off_c, 0, 71, 64
1, 37338, Control_c, 0, 64, 98
1, 37353, Control_c, 0, 64, 103
1, 37356, Note_on_c, 0, 52, 62
1, 37368, Control_c, 0, 64, 106
1, 37383, Control_c, 0, 64, 110
1, 37397, Control_c, 0, 64, 114
1, 37412, Control_c, 0, 64, 118
1, 37427, Control_c, 0, 64, 124
1, 37442, Control_c, 0, 64, 127
1, 37500, Note_off_c, 0, 44, 59
1, 37571, Note_off_c, 0, 52, 57
1, 37575, Note_on_c, 0, 76, 87
1, 37592, Note_on_c, 0, 59, 57
1, 37783, Note_off_c, 0, 59, 46
1, 37798, Note_on_c, 0, 64, 61
1, 37984, Note_off_c, 0, 64, 54
1, 38042, Note_on_c, 0, 59, 44
1, 38063, Note_on_c, 0, 66, 78
1, 38152, Note_off_c, 0, 76, 50
1, 38212, Note_off_c, 0, 59, 38
1, 38390, Note_on_c, 0, 52, 47
1, 38424, Note_off_c, 0, 52, 63
1, 38491, Note_on_c, 0, 64, 70
1, 38498, Note_off_c, 0, 66, 63
1, 38602, Poly_aftertouch_c, 0, 65, 0
1, 38638, Note_off_c, 0, 64, 62
1, 38671, Note_on_c, 0, 66, 69
1, 38679, Note_on_c, 0, 36, 49
1, 38680, Note_on_c, 0, 43, 45
1, 38681, Control_c, 0, 64, 107
1, 38696, Control_c, 0, 64, 85
1, 38711, Control_c, 0, 64, 66
1, 38717, Note_on_c, 0, 64, 76
1, 38725, Control_c, 0, 64, 44
1, 38740, Control_c, 0, 64, 0
1, 38757, Note_off_c, 0, 66, 61
1, 38799, Control_c, 0, 64, 38
1, 38805, Note_off_c, 0, 36, 60
1, 38822, Control_c, 0, 64, 54
1, 38837, Control_c, 0, 64, 63
1, 38844, Note_off_c, 0, 43, 63
1, 38851, Control_c, 0, 64, 67
1, 38866, Control_c, 0, 64, 71
1, 38881, Control_c, 0, 64, 75
1, 38896, Control_c, 0, 64, 77
1, 38911, Control_c, 0, 64, 79
1, 38925, Control_c, 0, 64, 82
1, 38940, Control_c, 0, 64, 83
1, 38955, Control_c, 0, 64, 84
1, 38969, Control_c, 0, 64, 86
1, 38984, Control_c, 0, 64, 87
1, 38999, Control_c, 0, 64, 88
1, 39008, Note_on_c, 0, 51, 49
1, 39014, Control_c, 0, 64, 90
1, 39029, Control_c, 0, 64, 91
1, 39044, Control_c, 0, 64, 92
1, 39073, Control_c, 0, 64, 92
1, 39088, Control_c, 0, 64, 93
1, 39220, Note_on_c, 0, 63, 66
1, 39228, Note_on_c, 0, 61, 47
1, 39238, Note_off_c, 0, 64, 59
1, 39415, Control_c, 0, 64, 92
1, 39430, Control_c, 0, 64, 90
1, 39445, Control_c, 0, 64, 83
1, 39452, Note_off_c, 0, 61, 59
1, 39460, Control_c, 0, 64, 73
1, 39473, Note_on_c, 0, 60, 43
1, 39474, Control_c, 0, 64, 66
1, 39489, Control_c, 0, 64, 63
1, 39518, Control_c, 0, 64, 65
1, 39533, Control_c, 0, 64, 68
1, 39548, Control_c, 0, 64, 72
1, 39571, Control_c, 0, 64, 75
1, 39586, Control_c, 0, 64, 78
1, 39600, Control_c, 0, 64, 80
1, 39615, Control_c, 0, 64, 81
1, 39630, Control_c, 0, 64, 82
1, 39645, Control_c, 0, 64, 83
1, 39660, Control_c, 0, 64, 84
1, 39674, Control_c, 0, 64, 85
1, 39689, Control_c, 0, 64, 85
1, 39689, Control_c, 0, 67, 53
1, 39704, Control_c, 0, 64, 86
1, 39704, Control_c, 0, 67, 68
1, 39718, Control_c, 0, 64, 86
1, 39718, Control_c, 0, 67, 83
1, 39733, Control_c, 0, 67, 98
1, 39736, Note_off_c, 0, 51, 33
1, 39748, Control_c, 0, 67, 109
1, 39757, Note_on_c, 0, 56, 49
1, 39762, Control_c, 0, 64, 87
1, 39762, Control_c, 0, 67, 115
1, 39799, Note_off_c, 0, 60, 34
1, 39822, Note_off_c, 0, 63, 62
1, 39822, Control_c, 0, 64, 87
1, 39846, Note_on_c, 0, 65, 61
1, 39881, Control_c, 0, 67, 113
1, 39925, Control_c, 0, 67, 111
1, 39970, Control_c, 0, 67, 109
1, 39983, Note_on_c, 0, 66, 72
1, 39988, Note_off_c, 0, 56, 61
1, 39990, Note_on_c, 0, 51, 53
1, 39994, Note_off_c, 0, 65, 55
1, 40023, Note_off_c, 0, 51, 64
1, 40030, Control_c, 0, 67, 107
1, 40076, Note_off_c, 0, 66, 64
1, 40084, Note_on_c, 0, 72, 75
1, 40104, Control_c, 0, 67, 105
1, 40148, Control_c, 0, 64, 87
1, 40163, Control_c, 0, 64, 86
1, 40164, Note_off_c, 0, 72, 60
1, 40178, Control_c, 0, 64, 82
1, 40192, Note_on_c, 0, 67, 71
1, 40193, Control_c, 0, 64, 73
1, 40195, Note_on_c, 0, 43, 61
1, 40208, Control_c, 0, 64, 60
1, 40222, Control_c, 0, 64, 43
1, 40222, Control_c, 0, 67, 103
1, 40237, Control_c, 0, 64, 0
1, 40267, Control_c, 0, 67, 101
1, 40296, Control_c, 0, 64, 40
1, 40296, Control_c, 0, 67, 99
1, 40311, Control_c, 0, 64, 53
1, 40311, Control_c, 0, 67, 97
1, 40334, Control_c, 0, 64, 61
1, 40334, Control_c, 0, 67, 96
1, 40348, Control_c, 0, 64, 65
1, 40348, Control_c, 0, 67, 94
1, 40363, Control_c, 0, 64, 67
1, 40363, Control_c, 0, 67, 92
1, 40378, Control_c, 0, 64, 68
1, 40378, Control_c, 0, 67, 90
1, 40393, Control_c, 0, 64, 70
1, 40393, Control_c, 0, 67, 88
1, 40408, Control_c, 0, 64, 73
1, 40408, Control_c, 0, 67, 86
1, 40422, Control_c, 0, 64, 76
1, 40422, Control_c, 0, 67, 84
1, 40436, Note_on_c, 0, 52, 65
1, 40437, Control_c, 0, 64, 78
1, 40437, Control_c, 0, 67, 81
1, 40452, Control_c, 0, 64, 80
1, 40452, Control_c, 0, 67, 79
1, 40467, Control_c, 0, 64, 82
1, 40467, Control_c, 0, 67, 71
1, 40482, Control_c, 0, 64, 84
1, 40482, Control_c, 0, 67, 53
1, 40496, Control_c, 0, 64, 86
1, 40496, Control_c, 0, 67, 39
1, 40511, Control_c, 0, 64, 87
1, 40511, Control_c, 0, 67, 0
1, 40513, Note_off_c, 0, 43, 35
1, 40515, Note_on_c, 0, 68, 80
1, 40526, Control_c, 0, 64, 88
1, 40540, Control_c, 0, 64, 89
1, 40543, Note_off_c, 0, 67, 59
1, 40555, Control_c, 0, 64, 90
1, 40570, Control_c, 0, 64, 90
1, 40585, Control_c, 0, 64, 91
1, 40600, Control_c, 0, 64, 91
1, 40604, Note_off_c, 0, 52, 61
1, 40615, Control_c, 0, 64, 92
1, 40618, Note_on_c, 0, 55, 62
1, 40620, Note_on_c, 0, 70, 85
1, 40644, Control_c, 0, 64, 92
1, 40645, Note_off_c, 0, 68, 62
1, 40646, Note_off_c, 0, 55, 66
1, 40674, Control_c, 0, 64, 93
1, 40701, Note_on_c, 0, 76, 84
1, 40704, Control_c, 0, 64, 93
1, 40719, Note_off_c, 0, 70, 63
1, 40793, Control_c, 0, 64, 93
1, 40798, Note_off_c, 0, 76, 65
1, 40806, Note_on_c, 0, 71, 86
1, 40808, Control_c, 0, 64, 88
1, 40811, Note_on_c, 0, 64, 73
1, 40823, Control_c, 0, 64, 75
1, 40838, Control_c, 0, 64, 63
1, 40853, Control_c, 0, 64, 50
1, 40868, Control_c, 0, 64, 47
1, 40883, Control_c, 0, 64, 48
1, 40898, Control_c, 0, 64, 55
1, 40912, Control_c, 0, 64, 62
1, 40927, Control_c, 0, 64, 68
1, 40942, Control_c, 0, 64, 73
1, 40957, Control_c, 0, 64, 77
1, 40971, Control_c, 0, 64, 80
1, 40986, Control_c, 0, 64, 83
1, 41001, Control_c, 0, 64, 86
1, 41016, Control_c, 0, 64, 89
1, 41031, Control_c, 0, 64, 94
1, 41045, Control_c, 0, 64, 97
1, 41068, Control_c, 0, 64, 101
1, 41077, Note_on_c, 0, 58, 66
1, 41083, Control_c, 0, 64, 104
1, 41097, Control_c, 0, 64, 106
1, 41112, Control_c, 0, 64, 108
1, 41121, Note_off_c, 0, 64, 52
1, 41127, Control_c, 0, 64, 110
1, 41142, Control_c, 0, 64, 113
1, 41157, Control_c, 0, 64, 116
1, 41171, Control_c, 0, 64, 120
1, 41176, Note_on_c, 0, 73, 84
1, 41186, Control_c, 0, 64, 124
1, 41201, Control_c, 0, 64, 127
1, 41208, Note_off_c, 0, 71, 61
1, 41398, Note_on_c, 0, 54, 46
1, 41408, Note_on_c, 0, 74, 89
1, 41440, Note_off_c, 0, 73, 63
1, 41443, Note_off_c, 0, 58, 35
1, 41521, Note_off_c, 0, 54, 59
1, 41565, Note_on_c, 0, 80, 90
1, 41602, Note_off_c, 0, 74, 62
1, 41744, Note_on_c, 0, 39, 61
1, 41808, Note_on_c, 0, 75, 87
1, 41816, Control_c, 0, 64, 122
1, 41831, Control_c, 0, 64, 106
1, 41846, Control_c, 0, 64, 90
1, 41850, Note_off_c, 0, 80, 62
1, 41861, Control_c, 0, 64, 76
1, 41875, Control_c, 0, 64, 63
1, 41890, Control_c, 0, 64, 47
1, 41905, Control_c, 0, 64, 0
1, 41980, Control_c, 0, 64, 41
1, 41994, Control_c, 0, 64, 54
1, 42010, Control_c, 0, 64, 63
1, 42025, Control_c, 0, 64, 66
1, 42039, Control_c, 0, 64, 69
1, 42054, Control_c, 0, 64, 72
1, 42069, Control_c, 0, 64, 75
1, 42084, Control_c, 0, 64, 79
1, 42099, Control_c, 0, 64, 82
1, 42113, Control_c, 0, 64, 86
1, 42115, Note_on_c, 0, 46, 59
1, 42128, Control_c, 0, 64, 89
1, 42132, Note_off_c, 0, 39, 58
1, 42143, Control_c, 0, 64, 92
1, 42158, Control_c, 0, 64, 95
1, 42173, Control_c, 0, 64, 98
1, 42187, Control_c, 0, 64, 102
1, 42202, Control_c, 0, 64, 105
1, 42217, Control_c, 0, 64, 108
1, 42232, Control_c, 0, 64, 112
1, 42247, Control_c, 0, 64, 119
1, 42262, Control_c, 0, 64, 127
1, 42303, Note_off_c, 0, 46, 56
1, 42334, Note_on_c, 0, 55, 63
1, 42413, Note_off_c, 0, 55, 61
1, 42578, Note_on_c, 0, 67, 61
1, 42705, Note_off_c, 0, 67, 56
1, 42809, Note_on_c, 0, 63, 51
1, 43058, Note_on_c, 0, 58, 55
1, 43072, Note_off_c, 0, 63, 38
1, 43354, Note_on_c, 0, 51, 54
1, 43356, Note_off_c, 0, 75, 61
1, 43420, Note_on_c, 0, 75, 79
1, 43434, Control_c, 0, 64, 110
1, 43435, Note_off_c, 0, 58, 33
1, 43448, Control_c, 0, 64, 92
1, 43463, Control_c, 0, 64, 77
1, 43478, Control_c, 0, 64, 63
1, 43492, Control_c, 0, 64, 50
1, 43506, Control_c, 0, 64, 36
1, 43521, Control_c, 0, 64, 0
1, 43536, Control_c, 0, 64, 30
1, 43551, Control_c, 0, 64, 39
1, 43565, Control_c, 0, 64, 48
1, 43580, Control_c, 0, 64, 57
1, 43595, Control_c, 0, 64, 62
1, 43610, Control_c, 0, 64, 65
1, 43625, Control_c, 0, 64, 68
1, 43639, Control_c, 0, 64, 71
1, 43654, Control_c, 0, 64, 74
1, 43669, Control_c, 0, 64, 77
1, 43683, Control_c, 0, 64, 79
1, 43694, Note_on_c, 0, 57, 48
1, 43698, Control_c, 0, 64, 81
1, 43713, Control_c, 0, 64, 83
1, 43728, Control_c, 0, 64, 85
1, 43743, Control_c, 0, 64, 87
1, 43757, Control_c, 0, 64, 88
1, 43772, Control_c, 0, 64, 89
1, 43787, Control_c, 0, 64, 90
1, 43802, Control_c, 0, 64, 91
1, 43817, Control_c, 0, 64, 91
1, 43846, Control_c, 0, 64, 92
1, 43929, Note_on_c, 0, 60, 49
1, 43933, Note_off_c, 0, 51, 55
1, 44015, Note_off_c, 0, 57, 32
1, 44121, Control_c, 0, 67, 40
1, 44136, Control_c, 0, 67, 53
1, 44151, Control_c, 0, 67, 67
1, 44166, Control_c, 0, 67, 78
1, 44175, Note_on_c, 0, 67, 60
1, 44177, Note_off_c, 0, 60, 35
1, 44181, Control_c, 0, 67, 85
1, 44195, Control_c, 0, 67, 88
1, 44210, Control_c, 0, 67, 90
1, 44240, Control_c, 0, 67, 88
1, 44255, Control_c, 0, 67, 86
1, 44269, Control_c, 0, 67, 85
1, 44284, Control_c, 0, 67, 85
1, 44299, Control_c, 0, 67, 84
1, 44314, Control_c, 0, 67, 83
1, 44329, Control_c, 0, 67, 81
1, 44344, Control_c, 0, 67, 80
1, 44359, Control_c, 0, 67, 79
1, 44362, Note_off_c, 0, 75, 55
1, 44366, Note_off_c, 0, 67, 37
1, 44373, Control_c, 0, 67, 79
1, 44402, Note_on_c, 0, 81, 64
1, 44403, Control_c, 0, 67, 78
1, 44404, Note_on_c, 0, 78, 59
1, 44410, Note_on_c, 0, 57, 48
1, 44448, Control_c, 0, 67, 77
1, 44451, Note_off_c, 0, 78, 51
1, 44462, Control_c, 0, 67, 77
1, 44463, Note_off_c, 0, 81, 62
1, 44506, Control_c, 0, 67, 76
1, 44544, Note_on_c, 0, 81, 64
1, 44555, Note_on_c, 0, 78, 47
1, 44579, Note_off_c, 0, 78, 55
1, 44600, Note_off_c, 0, 81, 63
1, 44661, Note_on_c, 0, 86, 68
1, 44665, Note_on_c, 0, 75, 68
1, 44670, Note_on_c, 0, 66, 59
1, 44685, Note_off_c, 0, 75, 64
1, 44686, Note_off_c, 0, 86, 67
1, 44724, Note_off_c, 0, 66, 55
1, 44728, Control_c, 0, 67, 75
1, 44758, Control_c, 0, 67, 75
1, 44761, Note_on_c, 0, 75, 69
1, 44773, Note_on_c, 0, 86, 77
1, 44773, Control_c, 0, 67, 74
1, 44790, Note_off_c, 0, 75, 68
1, 44797, Note_off_c, 0, 86, 66
1, 44811, Control_c, 0, 67, 73
1, 44841, Control_c, 0, 67, 73
1, 44872, Note_on_c, 0, 51, 60
1, 44874, Note_off_c, 0, 57, 52
1, 44886, Note_on_c, 0, 83, 72
1, 44895, Note_on_c, 0, 89, 62
1, 44913, Note_off_c, 0, 83, 62
1, 44913, Note_off_c, 0, 89, 64
1, 44987, Note_on_c, 0, 89, 77
1, 45018, Note_off_c, 0, 89, 62
1, 45019, Control_c, 0, 67, 72
1, 45034, Control_c, 0, 67, 71
1, 45064, Control_c, 0, 67, 71
1, 45085, Note_on_c, 0, 59, 58
1, 45093, Control_c, 0, 67, 70
1, 45098, Note_on_c, 0, 80, 79
1, 45101, Note_on_c, 0, 94, 84
1, 45108, Control_c, 0, 67, 70
1, 45123, Control_c, 0, 64, 92
1, 45123, Control_c, 0, 67, 69
1, 45132, Note_off_c, 0, 80, 58
1, 45136, Note_off_c, 0, 94, 56
1, 45152, Control_c, 0, 64, 93
1, 45152, Control_c, 0, 67, 68
1, 45167, Control_c, 0, 67, 67
1, 45182, Control_c, 0, 67, 66
1, 45197, Control_c, 0, 64, 93
1, 45197, Control_c, 0, 67, 66
1, 45211, Note_on_c, 0, 94, 88
1, 45211, Control_c, 0, 64, 94
1, 45211, Control_c, 0, 67, 65
1, 45215, Note_on_c, 0, 80, 74
1, 45226, Control_c, 0, 67, 64
1, 45236, Note_off_c, 0, 80, 65
1, 45256, Control_c, 0, 67, 64
1, 45265, Note_off_c, 0, 94, 63
1, 45271, Control_c, 0, 64, 94
1, 45297, Note_off_c, 0, 59, 55
1, 45315, Control_c, 0, 67, 63
1, 45333, Note_on_c, 0, 97, 89
1, 45342, Note_on_c, 0, 64, 42
1, 45347, Note_on_c, 0, 91, 67
1, 45378, Note_off_c, 0, 91, 66
1, 45385, Note_off_c, 0, 97, 63
1, 45404, Control_c, 0, 67, 62
1, 45408, Note_off_c, 0, 64, 51
1, 45462, Note_on_c, 0, 97, 85
1, 45474, Note_on_c, 0, 91, 46
1, 45493, Control_c, 0, 64, 95
1, 45500, Note_off_c, 0, 91, 49
1, 45527, Note_off_c, 0, 97, 63
1, 45622, Note_on_c, 0, 102, 85
1, 45628, Note_on_c, 0, 56, 40
1, 45640, Note_on_c, 0, 88, 50
1, 45663, Note_off_c, 0, 88, 58
1, 45691, Note_off_c, 0, 102, 63
1, 45692, Note_off_c, 0, 56, 51
1, 45716, Note_off_c, 0, 51, 60
1, 45775, Note_on_c, 0, 102, 90
1, 45788, Note_on_c, 0, 88, 44
1, 45823, Note_off_c, 0, 88, 55
1, 45885, Control_c, 0, 67, 63
1, 45945, Control_c, 0, 67, 64
1, 45955, Note_on_c, 0, 39, 48
1, 45959, Control_c, 0, 64, 94
1, 45974, Control_c, 0, 64, 92
1, 45989, Control_c, 0, 64, 82
1, 46004, Control_c, 0, 64, 69
1, 46008, Note_on_c, 0, 99, 83
1, 46019, Control_c, 0, 64, 55
1, 46034, Control_c, 0, 64, 32
1, 46034, Note_on_c, 0, 94, 63
1, 46049, Control_c, 0, 64, 0
1, 46079, Control_c, 0, 64, 43
1, 46079, Note_off_c, 0, 102, 65
1, 46093, Control_c, 0, 64, 57
1, 46108, Control_c, 0, 64, 65
1, 46123, Control_c, 0, 64, 73
1, 46123, Control_c, 0, 67, 63
1, 46129, Note_off_c, 0, 39, 57
1, 46136, Note_off_c, 0, 94, 0
1, 46136, Note_on_c, 0, 94, 4
1, 46138, Control_c, 0, 64, 78
1, 46153, Control_c, 0, 64, 83
1, 46167, Control_c, 0, 64, 86
1, 46167, Control_c, 0, 67, 62
1, 46182, Control_c, 0, 64, 90
1, 46182, Control_c, 0, 67, 62
1, 46197, Control_c, 0, 64, 94
1, 46197, Control_c, 0, 67, 61
1, 46212, Control_c, 0, 64, 98
1, 46226, Control_c, 0, 64, 103
1, 46226, Control_c, 0, 67, 60
1, 46241, Control_c, 0, 64, 107
1, 46256, Control_c, 0, 64, 110
1, 46256, Control_c, 0, 67, 60
1, 46271, Control_c, 0, 64, 113
1, 46279, Note_off_c, 0, 99, 62
1, 46285, Control_c, 0, 64, 116
1, 46285, Control_c, 0, 67, 59
1, 46305, Note_off_c, 0, 94, 58
1, 46308, Control_c, 0, 64, 120
1, 46323, Control_c, 0, 64, 127
1, 46323, Control_c, 0, 67, 58
1, 46326, Note_on_c, 0, 55, 52
1, 46338, Control_c, 0, 67, 58
1, 46367, Control_c, 0, 67, 57
1, 46398, Control_c, 0, 67, 56
1, 46427, Control_c, 0, 67, 56
1, 46442, Control_c, 0, 67, 55
1, 46457, Control_c, 0, 67, 54
1, 46502, Control_c, 0, 67, 54
1, 46561, Control_c, 0, 67, 53
1, 46593, Note_on_c, 0, 63, 52
1, 46630, Note_off_c, 0, 55, 60
1, 46648, Note_on_c, 0, 75, 79
1, 46694, Control_c, 0, 67, 54
1, 46738, Control_c, 0, 67, 54
1, 46768, Control_c, 0, 67, 55
1, 46797, Control_c, 0, 67, 56
1, 46812, Control_c, 0, 67, 56
1, 46827, Control_c, 0, 67, 57
1, 46842, Control_c, 0, 67, 58
1, 46857, Control_c, 0, 67, 59
1, 46871, Control_c, 0, 67, 60
1, 46886, Control_c, 0, 67, 61
1, 46892, Note_on_c, 0, 68, 69
1, 46894, Note_off_c, 0, 63, 63
1, 46901, Control_c, 0, 67, 62
1, 46916, Control_c, 0, 67, 63
1, 46931, Control_c, 0, 67, 64
1, 46946, Control_c, 0, 67, 66
1, 46961, Control_c, 0, 67, 67
1, 46976, Control_c, 0, 67, 68
1, 46990, Control_c, 0, 67, 69
1, 47005, Control_c, 0, 67, 70
1, 47020, Control_c, 0, 67, 70
1, 47035, Control_c, 0, 67, 71
1, 47056, Control_c, 0, 67, 72
1, 47071, Control_c, 0, 67, 73
1, 47086, Control_c, 0, 67, 73
1, 47101, Control_c, 0, 67, 74
1, 47116, Control_c, 0, 67, 75
1, 47131, Control_c, 0, 67, 77
1, 47146, Control_c, 0, 67, 78
1, 47161, Control_c, 0, 67, 79
1, 47176, Control_c, 0, 67, 80
1, 47191, Control_c, 0, 67, 81
1, 47205, Control_c, 0, 67, 83
1, 47217, Note_on_c, 0, 58, 34
1, 47220, Control_c, 0, 67, 84
1, 47235, Control_c, 0, 67, 85
1, 47250, Control_c, 0, 67, 86
1, 47265, Control_c, 0, 67, 88
1, 47280, Control_c, 0, 67, 90
1, 47295, Control_c, 0, 67, 92
1, 47310, Control_c, 0, 67, 95
1, 47325, Control_c, 0, 67, 110
1, 47334, Note_off_c, 0, 68, 38
1, 47339, Control_c, 0, 67, 127
1, 47440, Note_off_c, 0, 75, 58
1, 47463, Note_on_c, 0, 67, 57
1, 47487, Control_c, 0, 64, 103
1, 47502, Control_c, 0, 64, 85
1, 47517, Control_c, 0, 64, 75
1, 47527, Note_on_c, 0, 75, 65
1, 47531, Control_c, 0, 64, 69
1, 47546, Control_c, 0, 64, 68
1, 47561, Control_c, 0, 64, 69
1, 47576, Control_c, 0, 64, 71
1, 47583, Note_off_c, 0, 58, 55
1, 47591, Control_c, 0, 64, 74
1, 47605, Control_c, 0, 64, 76
1, 47620, Control_c, 0, 64, 78
1, 47635, Note_off_c, 0, 75, 63
1, 47635, Control_c, 0, 64, 79
1, 47650, Control_c, 0, 64, 80
1, 47651, Note_on_c, 0, 76, 62
1, 47664, Control_c, 0, 64, 82
1, 47670, Note_off_c, 0, 67, 37
1, 47679, Control_c, 0, 64, 83
1, 47694, Control_c, 0, 64, 84
1, 47709, Control_c, 0, 64, 84
1, 47713, Note_off_c, 0, 76, 60
1, 47739, Control_c, 0, 64, 85
1, 47748, Note_on_c, 0, 75, 59
1, 47752, Note_on_c, 0, 51, 42
1, 47786, Note_off_c, 0, 75, 63
1, 47834, Note_on_c, 0, 76, 42
1, 47835, Control_c, 0, 64, 84
1, 47858, Note_off_c, 0, 76, 57
1, 47864, Control_c, 0, 64, 83
1, 47879, Control_c, 0, 64, 83
1, 47894, Control_c, 0, 64, 82
1, 47904, Note_on_c, 0, 75, 54
1, 47909, Control_c, 0, 64, 81
1, 47924, Control_c, 0, 64, 80
1, 47927, Note_off_c, 0, 75, 61
1, 47938, Note_on_c, 0, 76, 59
1, 47939, Control_c, 0, 64, 79
1, 47954, Control_c, 0, 64, 79
1, 47968, Control_c, 0, 64, 78
1, 47980, Note_on_c, 0, 57, 46
1, 47987, Note_off_c, 0, 76, 55
1, 48013, Note_off_c, 0, 51, 36
1, 48013, Note_on_c, 0, 75, 58
1, 48046, Note_off_c, 0, 75, 64
1, 48064, Note_on_c, 0, 76, 42
1, 48100, Note_off_c, 0, 76, 60
1, 48148, Note_on_c, 0, 75, 47
1, 48170, Note_off_c, 0, 75, 54
1, 48193, Note_on_c, 0, 76, 38
1, 48220, Note_off_c, 0, 76, 55
1, 48234, Note_on_c, 0, 60, 41
1, 48245, Note_on_c, 0, 75, 61
1, 48275, Note_off_c, 0, 75, 65
1, 48278, Note_off_c, 0, 57, 31
1, 48311, Note_on_c, 0, 76, 40
1, 48340, Note_off_c, 0, 76, 55
1, 48363, Note_on_c, 0, 75, 59
1, 48395, Note_off_c, 0, 75, 63
1, 48431, Note_on_c, 0, 76, 39
1, 48463, Note_off_c, 0, 76, 52
1, 48475, Note_off_c, 0, 60, 32
1, 48488, Note_on_c, 0, 67, 38
1, 48494, Note_on_c, 0, 75, 58
1, 48531, Note_off_c, 0, 75, 60
1, 48580, Note_on_c, 0, 76, 37
1, 48638, Note_off_c, 0, 76, 46
1, 48645, Note_on_c, 0, 75, 60
1, 48677, Note_off_c, 0, 75, 66
1, 48699, Note_off_c, 0, 67, 41
1, 48745, Note_on_c, 0, 60, 44
1, 48752, Note_on_c, 0, 75, 64
1, 48785, Note_off_c, 0, 75, 63
1, 48812, Note_on_c, 0, 81, 58
1, 48845, Note_off_c, 0, 81, 60
1, 48887, Note_on_c, 0, 75, 58
1, 48904, Note_off_c, 0, 75, 61
1, 48922, Note_on_c, 0, 81, 52
1, 48943, Note_off_c, 0, 81, 60
1, 48965, Note_off_c, 0, 60, 49
1, 48974, Note_on_c, 0, 66, 46
1, 49000, Note_on_c, 0, 72, 52
1, 49023, Note_off_c, 0, 72, 57
1, 49035, Note_off_c, 0, 66, 58
1, 49066, Note_on_c, 0, 86, 62
1, 49085, Note_off_c, 0, 86, 66
1, 49119, Note_on_c, 0, 72, 63
1, 49119, Control_c, 0, 64, 79
1, 49147, Note_off_c, 0, 72, 65
1, 49162, Note_on_c, 0, 86, 70
1, 49191, Note_off_c, 0, 86, 65
1, 49193, Control_c, 0, 64, 78
1, 49223, Control_c, 0, 64, 77
1, 49235, Note_on_c, 0, 51, 55
1, 49238, Control_c, 0, 64, 76
1, 49249, Note_on_c, 0, 83, 68
1, 49252, Control_c, 0, 64, 76
1, 49316, Note_off_c, 0, 83, 58
1, 49325, Note_on_c, 0, 90, 56
1, 49346, Note_off_c, 0, 90, 60
1, 49380, Note_on_c, 0, 83, 45
1, 49406, Note_off_c, 0, 83, 54
1, 49417, Note_on_c, 0, 90, 63
1, 49438, Note_off_c, 0, 90, 61
1, 49452, Control_c, 0, 64, 74
1, 49467, Note_on_c, 0, 59, 37
1, 49467, Control_c, 0, 64, 70
1, 49482, Control_c, 0, 64, 65
1, 49495, Note_on_c, 0, 80, 75
1, 49497, Control_c, 0, 64, 63
1, 49526, Control_c, 0, 64, 65
1, 49538, Note_off_c, 0, 59, 0
1, 49538, Note_on_c, 0, 59, 3
1, 49541, Control_c, 0, 64, 68
1, 49544, Note_off_c, 0, 80, 58
1, 49556, Control_c, 0, 64, 72
1, 49571, Control_c, 0, 64, 76
1, 49575, Note_on_c, 0, 94, 56
1, 49587, Control_c, 0, 64, 79
1, 49601, Control_c, 0, 64, 81
1, 49604, Note_off_c, 0, 94, 66
1, 49616, Control_c, 0, 64, 82
1, 49631, Control_c, 0, 64, 84
1, 49634, Note_on_c, 0, 80, 69
1, 49646, Control_c, 0, 64, 85
1, 49659, Note_off_c, 0, 80, 68
1, 49661, Control_c, 0, 64, 87
1, 49676, Control_c, 0, 64, 89
1, 49688, Note_on_c, 0, 94, 68
1, 49690, Control_c, 0, 64, 91
1, 49705, Control_c, 0, 64, 92
1, 49717, Note_off_c, 0, 94, 66
1, 49720, Control_c, 0, 64, 92
1, 49734, Control_c, 0, 64, 93
1, 49748, Note_on_c, 0, 91, 57
1, 49764, Control_c, 0, 64, 93
1, 49774, Note_on_c, 0, 64, 30
1, 49779, Control_c, 0, 64, 94
1, 49794, Control_c, 0, 64, 94
1, 49808, Control_c, 0, 64, 95
1, 49817, Note_off_c, 0, 91, 66
1, 49823, Control_c, 0, 64, 96
1, 49824, Note_on_c, 0, 97, 61
1, 49867, Control_c, 0, 64, 98
1, 49870, Note_off_c, 0, 97, 60
1, 49890, Note_on_c, 0, 91, 55
1, 49934, Note_off_c, 0, 91, 60
1, 49957, Control_c, 0, 64, 100
1, 49961, Note_on_c, 0, 97, 65
1, 49982, Note_off_c, 0, 64, 43
1, 49985, Note_off_c, 0, 59, 44
1, 50004, Note_off_c, 0, 97, 63
1, 50022, Note_on_c, 0, 56, 37
1, 50051, Note_on_c, 0, 88, 56
1, 50115, Note_off_c, 0, 88, 46
1, 50133, Note_off_c, 0, 56, 56
1, 50145, Note_on_c, 0, 102, 60
1, 50154, Note_off_c, 0, 51, 58
1, 50204, Note_off_c, 0, 102, 58
1, 50256, Note_on_c, 0, 88, 50
1, 50322, Note_off_c, 0, 88, 36
1, 50377, Note_on_c, 0, 102, 55
1, 50581, Note_on_c, 0, 27, 40
1, 50586, Control_c, 0, 64, 97
1, 50601, Control_c, 0, 64, 93
1, 50616, Control_c, 0, 64, 86
1, 50630, Control_c, 0, 64, 77
1, 50645, Control_c, 0, 64, 68
1, 50660, Note_on_c, 0, 99, 66
1, 50660, Control_c, 0, 64, 61
1, 50675, Control_c, 0, 64, 54
1, 50690, Control_c, 0, 64, 51
1, 50703, Note_off_c, 0, 102, 61
1, 50705, Control_c, 0, 64, 50
1, 50720, Control_c, 0, 64, 51
1, 50735, Control_c, 0, 64, 53
1, 50749, Control_c, 0, 64, 57
1, 50764, Control_c, 0, 64, 62
1, 50779, Control_c, 0, 64, 67
1, 50798, Note_off_c, 0, 27, 57
1, 50801, Control_c, 0, 64, 72
1, 50816, Control_c, 0, 64, 78
1, 50830, Control_c, 0, 64, 83
1, 50845, Control_c, 0, 64, 86
1, 50860, Control_c, 0, 64, 90
1, 50875, Control_c, 0, 64, 93
1, 50890, Control_c, 0, 64, 97
1, 50905, Control_c, 0, 64, 101
1, 50920, Control_c, 0, 64, 105
1, 50934, Control_c, 0, 64, 109
1, 50949, Control_c, 0, 64, 114
1, 50964, Control_c, 0, 64, 118
1, 50979, Control_c, 0, 64, 122
1, 50994, Control_c, 0, 64, 127
1, 51107, Note_on_c, 0, 55, 42
1, 51198, Note_off_c, 0, 99, 62
1, 51398, Note_on_c, 0, 63, 37
1, 51587, Note_off_c, 0, 55, 37
1, 51696, Note_on_c, 0, 75, 38
1, 51981, Note_on_c, 0, 67, 35
1, 52063, Note_off_c, 0, 63, 32
1, 52246, Note_on_c, 0, 58, 37
1, 52258, Note_off_c, 0, 67, 42
1, 52453, Note_off_c, 0, 75, 62
1, 52527, Note_on_c, 0, 51, 39
1, 52550, Note_off_c, 0, 58, 40
1, 52788, Note_on_c, 0, 58, 31
1, 53012, Note_on_c, 0, 63, 49
1, 53160, Note_off_c, 0, 51, 39
1, 53274, Note_off_c, 0, 58, 38
1, 53289, Note_on_c, 0, 67, 44
1, 53326, Note_off_c, 0, 63, 38
1, 53561, Note_on_c, 0, 63, 37
1, 53700, Note_off_c, 0, 67, 37
1, 53779, Note_off_c, 0, 63, 55
1, 53841, Note_on_c, 0, 58, 36
1, 53945, Control_c, 0, 64, 115
1, 53960, Control_c, 0, 64, 108
1, 53972, Note_on_c, 0, 43, 51
1, 53975, Control_c, 0, 64, 104
1, 53989, Control_c, 0, 64, 100
1, 54004, Control_c, 0, 64, 97
1, 54018, Control_c, 0, 64, 93
1, 54033, Control_c, 0, 64, 91
1, 54048, Control_c, 0, 64, 88
1, 54063, Control_c, 0, 64, 85
1, 54078, Control_c, 0, 64, 82
1, 54092, Control_c, 0, 64, 79
1, 54107, Control_c, 0, 64, 75
1, 54122, Control_c, 0, 64, 72
1, 54137, Control_c, 0, 64, 67
1, 54152, Control_c, 0, 64, 63
1, 54166, Control_c, 0, 64, 60
1, 54181, Control_c, 0, 64, 57
1, 54196, Control_c, 0, 64, 55
1, 54207, Note_on_c, 0, 49, 58
1, 54211, Note_off_c, 0, 58, 40
1, 54211, Control_c, 0, 64, 53
1, 54225, Control_c, 0, 64, 52
1, 54231, Note_on_c, 0, 55, 29
1, 54240, Control_c, 0, 64, 49
1, 54248, Note_off_c, 0, 43, 53
1, 54255, Control_c, 0, 64, 44
1, 54270, Control_c, 0, 64, 39
1, 54285, Control_c, 0, 64, 33
1, 54300, Control_c, 0, 64, 30
1, 54315, Control_c, 0, 64, 0
1, 54434, Control_c, 0, 64, 28
1, 54464, Control_c, 0, 64, 32
1, 54472, Note_on_c, 0, 57, 38
1, 54479, Control_c, 0, 64, 34
1, 54494, Control_c, 0, 64, 38
1, 54509, Control_c, 0, 64, 41
1, 54523, Control_c, 0, 64, 46
1, 54545, Control_c, 0, 64, 51
1, 54560, Control_c, 0, 64, 55
1, 54575, Control_c, 0, 64, 58
1, 54590, Control_c, 0, 64, 61
1, 54604, Control_c, 0, 64, 63
1, 54619, Control_c, 0, 64, 64
1, 54634, Control_c, 0, 64, 65
1, 54649, Control_c, 0, 64, 66
1, 54664, Control_c, 0, 64, 68
1, 54678, Control_c, 0, 64, 69
1, 54693, Control_c, 0, 64, 71
1, 54708, Control_c, 0, 64, 73
1, 54723, Control_c, 0, 64, 74
1, 54738, Control_c, 0, 64, 75
1, 54740, Note_on_c, 0, 61, 32
1, 54753, Control_c, 0, 64, 77
1, 54768, Control_c, 0, 64, 79
1, 54783, Control_c, 0, 64, 81
1, 54798, Control_c, 0, 64, 82
1, 54813, Control_c, 0, 64, 84
1, 54818, Note_off_c, 0, 55, 37
1, 54828, Control_c, 0, 64, 86
1, 54842, Control_c, 0, 64, 87
1, 54857, Control_c, 0, 64, 88
1, 54872, Control_c, 0, 64, 88
1, 54887, Control_c, 0, 64, 89
1, 54916, Control_c, 0, 64, 89
1, 54946, Control_c, 0, 64, 90
1, 54976, Control_c, 0, 64, 90
1, 54982, Note_on_c, 0, 64, 36
1, 54984, Note_off_c, 0, 57, 36
1, 55016, Note_off_c, 0, 61, 40
1, 55020, Control_c, 0, 64, 91
1, 55214, Control_c, 0, 67, 117
1, 55228, Control_c, 0, 67, 107
1, 55243, Control_c, 0, 67, 98
1, 55246, Note_on_c, 0, 61, 34
1, 55258, Control_c, 0, 67, 88
1, 55272, Control_c, 0, 67, 80
1, 55287, Control_c, 0, 67, 73
1, 55310, Control_c, 0, 67, 68
1, 55325, Control_c, 0, 67, 67
1, 55333, Note_off_c, 0, 64, 31
1, 55340, Control_c, 0, 67, 66
1, 55399, Control_c, 0, 67, 67
1, 55428, Control_c, 0, 64, 90
1, 55428, Control_c, 0, 67, 68
1, 55443, Control_c, 0, 64, 88
1, 55458, Control_c, 0, 64, 82
1, 55458, Control_c, 0, 67, 68
1, 55472, Control_c, 0, 64, 75
1, 55477, Note_on_c, 0, 40, 56
1, 55487, Control_c, 0, 64, 67
1, 55488, Note_off_c, 0, 49, 56
1, 55495, Note_on_c, 0, 57, 48
1, 55502, Control_c, 0, 64, 61
1, 55517, Control_c, 0, 64, 56
1, 55532, Control_c, 0, 64, 54
1, 55542, Note_off_c, 0, 61, 34
1, 55546, Control_c, 0, 64, 56
1, 55550, Note_off_c, 0, 40, 61
1, 55561, Control_c, 0, 64, 59
1, 55576, Control_c, 0, 64, 61
1, 55591, Control_c, 0, 64, 63
1, 55603, Note_on_c, 0, 54, 56
1, 55606, Control_c, 0, 64, 65
1, 55620, Control_c, 0, 64, 67
1, 55635, Control_c, 0, 64, 68
1, 55650, Control_c, 0, 64, 69
1, 55665, Control_c, 0, 64, 69
1, 55673, Note_off_c, 0, 57, 59
1, 55680, Control_c, 0, 64, 70
1, 55695, Note_off_c, 0, 54, 57
1, 55695, Control_c, 0, 67, 69
1, 55725, Control_c, 0, 64, 70
1, 55725, Control_c, 0, 67, 70
1, 55737, Note_on_c, 0, 51, 65
1, 55754, Control_c, 0, 67, 70
1, 55769, Control_c, 0, 64, 69
1, 55784, Control_c, 0, 64, 66
1, 55784, Control_c, 0, 67, 71
1, 55798, Control_c, 0, 64, 62
1, 55813, Control_c, 0, 64, 56
1, 55828, Control_c, 0, 64, 50
1, 55828, Control_c, 0, 67, 71
1, 55843, Control_c, 0, 64, 48
1, 55872, Control_c, 0, 64, 48
1, 55887, Control_c, 0, 64, 49
1, 55902, Control_c, 0, 64, 51
1, 55917, Control_c, 0, 64, 52
1, 55932, Control_c, 0, 64, 54
1, 55946, Control_c, 0, 64, 56
1, 55962, Control_c, 0, 64, 58
1, 55977, Control_c, 0, 64, 61
1, 55992, Control_c, 0, 64, 63
1, 56005, Note_on_c, 0, 55, 42
1, 56007, Control_c, 0, 64, 65
1, 56022, Control_c, 0, 64, 67
1, 56044, Control_c, 0, 64, 69
1, 56044, Control_c, 0, 67, 71
1, 56059, Control_c, 0, 64, 70
1, 56074, Control_c, 0, 64, 72
1, 56088, Control_c, 0, 64, 72
1, 56088, Control_c, 0, 67, 70
1, 56103, Control_c, 0, 64, 73
1, 56118, Control_c, 0, 64, 74
1, 56133, Control_c, 0, 64, 74
1, 56148, Control_c, 0, 64, 75
1, 56148, Control_c, 0, 67, 70
1, 56192, Control_c, 0, 64, 75
1, 56229, Note_on_c, 0, 57, 47
1, 56249, Note_off_c, 0, 55, 53
1, 56330, Note_on_c, 0, 63, 56
1, 56398, Control_c, 0, 64, 75
1, 56398, Control_c, 0, 67, 70
1, 56412, Note_off_c, 0, 63, 53
1, 56412, Control_c, 0, 64, 72
1, 56427, Control_c, 0, 64, 67
1, 56441, Note_on_c, 0, 69, 62
1, 56442, Control_c, 0, 64, 60
1, 56444, Note_off_c, 0, 57, 60
1, 56455, Note_on_c, 0, 61, 44
1, 56457, Control_c, 0, 64, 55
1, 56472, Control_c, 0, 64, 54
1, 56486, Control_c, 0, 64, 54
1, 56501, Control_c, 0, 64, 57
1, 56516, Control_c, 0, 64, 60
1, 56531, Control_c, 0, 64, 62
1, 56546, Control_c, 0, 64, 65
1, 56560, Control_c, 0, 64, 67
1, 56575, Control_c, 0, 64, 70
1, 56590, Control_c, 0, 64, 71
1, 56605, Control_c, 0, 64, 73
1, 56619, Control_c, 0, 64, 74
1, 56634, Control_c, 0, 64, 75
1, 56649, Control_c, 0, 64, 76
1, 56649, Control_c, 0, 67, 70
1, 56664, Control_c, 0, 64, 77
1, 56679, Control_c, 0, 64, 78
1, 56686, Note_off_c, 0, 61, 36
1, 56694, Control_c, 0, 64, 79
1, 56694, Control_c, 0, 67, 69
1, 56701, Note_on_c, 0, 57, 41
1, 56708, Control_c, 0, 64, 79
1, 56723, Control_c, 0, 64, 80
1, 56738, Control_c, 0, 64, 80
1, 56738, Control_c, 0, 67, 68
1, 56753, Control_c, 0, 64, 81
1, 56763, Note_off_c, 0, 69, 25
1, 56769, Control_c, 0, 64, 81
1, 56806, Control_c, 0, 64, 82
1, 56806, Control_c, 0, 67, 68
1, 56836, Control_c, 0, 67, 67
1, 56912, Note_off_c, 0, 57, 28
1, 56915, Note_off_c, 0, 51, 38
1, 56955, Note_on_c, 0, 60, 62
1, 56978, Note_on_c, 0, 55, 38
1, 56995, Note_off_c, 0, 60, 62
1, 57013, Note_off_c, 0, 55, 52
1, 57062, Note_on_c, 0, 74, 71
1, 57072, Control_c, 0, 64, 81
1, 57080, Note_on_c, 0, 47, 68
1, 57087, Control_c, 0, 64, 79
1, 57102, Control_c, 0, 64, 72
1, 57117, Control_c, 0, 64, 63
1, 57132, Control_c, 0, 64, 50
1, 57147, Control_c, 0, 64, 0
1, 57162, Note_off_c, 0, 74, 62
1, 57179, Note_off_c, 0, 47, 61
1, 57185, Note_on_c, 0, 53, 65
1, 57186, Note_on_c, 0, 71, 71
1, 57250, Control_c, 0, 64, 29
1, 57265, Control_c, 0, 64, 45
1, 57280, Control_c, 0, 64, 57
1, 57280, Control_c, 0, 67, 66
1, 57295, Control_c, 0, 64, 62
1, 57302, Note_off_c, 0, 71, 62
1, 57309, Control_c, 0, 64, 64
1, 57324, Control_c, 0, 64, 65
1, 57324, Control_c, 0, 67, 66
1, 57339, Control_c, 0, 64, 66
1, 57339, Control_c, 0, 67, 65
1, 57354, Control_c, 0, 64, 68
1, 57354, Control_c, 0, 67, 64
1, 57368, Control_c, 0, 64, 70
1, 57368, Control_c, 0, 67, 64
1, 57383, Control_c, 0, 64, 72
1, 57398, Control_c, 0, 64, 73
1, 57398, Control_c, 0, 67, 63
1, 57413, Control_c, 0, 64, 75
1, 57413, Control_c, 0, 67, 62
1, 57421, Note_on_c, 0, 57, 51
1, 57428, Control_c, 0, 64, 77
1, 57442, Control_c, 0, 64, 79
1, 57442, Control_c, 0, 67, 62
1, 57457, Control_c, 0, 64, 81
1, 57472, Control_c, 0, 64, 83
1, 57487, Control_c, 0, 64, 84
1, 57487, Control_c, 0, 67, 61
1, 57502, Control_c, 0, 64, 86
1, 57516, Control_c, 0, 64, 87
1, 57516, Control_c, 0, 67, 60
1, 57539, Control_c, 0, 64, 88
1, 57554, Control_c, 0, 64, 89
1, 57570, Control_c, 0, 64, 90
1, 57570, Control_c, 0, 67, 60
1, 57585, Control_c, 0, 64, 91
1, 57600, Control_c, 0, 64, 92
1, 57614, Control_c, 0, 64, 93
1, 57614, Control_c, 0, 67, 59
1, 57629, Control_c, 0, 64, 94
1, 57629, Control_c, 0, 67, 58
1, 57633, Note_off_c, 0, 57, 37
1, 57644, Control_c, 0, 64, 95
1, 57656, Note_on_c, 0, 60, 50
1, 57659, Control_c, 0, 67, 58
1, 57673, Control_c, 0, 64, 97
1, 57718, Control_c, 0, 64, 100
1, 57718, Control_c, 0, 67, 57
1, 57748, Control_c, 0, 67, 56
1, 57763, Control_c, 0, 64, 102
1, 57763, Control_c, 0, 67, 49
1, 57778, Control_c, 0, 67, 0
1, 57805, Note_off_c, 0, 53, 61
1, 57822, Control_c, 0, 64, 105
1, 57847, Note_off_c, 0, 60, 55
1, 57886, Note_on_c, 0, 64, 50
1, 57896, Control_c, 0, 64, 107
1, 58029, Note_off_c, 0, 64, 60
1, 58110, Note_on_c, 0, 59, 33
1, 58327, Note_on_c, 0, 63, 75
1, 58330, Note_on_c, 0, 44, 61
1, 58353, Note_off_c, 0, 59, 42
1, 58401, Note_off_c, 0, 44, 62
1, 58408, Control_c, 0, 64, 104
1, 58432, Note_on_c, 0, 65, 73
1, 58436, Note_on_c, 0, 58, 65
1, 58452, Control_c, 0, 64, 101
1, 58460, Note_off_c, 0, 63, 50
1, 58467, Note_on_c, 0, 66, 37
1, 58482, Control_c, 0, 64, 99
1, 58484, Note_off_c, 0, 58, 61
1, 58503, Note_off_c, 0, 66, 35
1, 58512, Control_c, 0, 64, 97
1, 58527, Control_c, 0, 64, 95
1, 58542, Control_c, 0, 64, 91
1, 58557, Control_c, 0, 64, 86
1, 58564, Note_on_c, 0, 73, 84
1, 58565, Note_on_c, 0, 55, 67
1, 58571, Control_c, 0, 64, 78
1, 58586, Control_c, 0, 64, 68
1, 58587, Note_off_c, 0, 65, 54
1, 58601, Control_c, 0, 64, 58
1, 58615, Control_c, 0, 64, 45
1, 58630, Control_c, 0, 64, 29
1, 58645, Control_c, 0, 64, 0
1, 58704, Control_c, 0, 64, 31
1, 58719, Control_c, 0, 64, 40
1, 58734, Control_c, 0, 64, 48
1, 58749, Control_c, 0, 64, 56
1, 58763, Control_c, 0, 64, 61
1, 58778, Control_c, 0, 64, 63
1, 58793, Control_c, 0, 64, 65
1, 58799, Note_on_c, 0, 59, 53
1, 58807, Control_c, 0, 64, 66
1, 58822, Control_c, 0, 64, 68
1, 58837, Control_c, 0, 64, 70
1, 58852, Control_c, 0, 64, 73
1, 58867, Control_c, 0, 64, 75
1, 58882, Control_c, 0, 64, 77
1, 58896, Control_c, 0, 64, 79
1, 58911, Control_c, 0, 64, 81
1, 58926, Control_c, 0, 64, 83
1, 58941, Control_c, 0, 64, 84
1, 58956, Control_c, 0, 64, 86
1, 58971, Control_c, 0, 64, 87
1, 58986, Control_c, 0, 64, 89
1, 59001, Control_c, 0, 64, 90
1, 59015, Note_on_c, 0, 62, 58
1, 59015, Control_c, 0, 64, 91
1, 59030, Control_c, 0, 64, 92
1, 59052, Control_c, 0, 64, 92
1, 59064, Note_off_c, 0, 59, 53
1, 59067, Control_c, 0, 64, 93
1, 59082, Control_c, 0, 64, 94
1, 59096, Control_c, 0, 64, 95
1, 59111, Control_c, 0, 64, 95
1, 59141, Control_c, 0, 64, 96
1, 59231, Control_c, 0, 64, 98
1, 59240, Note_on_c, 0, 66, 66
1, 59248, Note_off_c, 0, 62, 60
1, 59387, Note_off_c, 0, 73, 59
1, 59439, Note_off_c, 0, 66, 61
1, 59462, Note_on_c, 0, 59, 61
1, 59674, Note_on_c, 0, 61, 60
1, 59708, Note_on_c, 0, 64, 78
1, 59742, Note_off_c, 0, 55, 51
1, 59746, Note_off_c, 0, 59, 62
1, 59823, Note_off_c, 0, 64, 63
1, 59847, Note_on_c, 0, 78, 84
1, 59965, Control_c, 0, 64, 95
1, 59980, Control_c, 0, 64, 94
1, 59995, Control_c, 0, 64, 92
1, 60009, Control_c, 0, 64, 87
1, 60024, Note_on_c, 0, 54, 64
1, 60024, Control_c, 0, 64, 82
1, 60039, Control_c, 0, 64, 75
1, 60054, Control_c, 0, 64, 68
1, 60068, Control_c, 0, 64, 60
1, 60083, Control_c, 0, 64, 50
1, 60084, Note_on_c, 0, 75, 78
1, 60095, Note_off_c, 0, 61, 55
1, 60098, Control_c, 0, 64, 38
1, 60113, Control_c, 0, 64, 0
1, 60143, Note_off_c, 0, 78, 60
1, 60232, Control_c, 0, 64, 41
1, 60247, Control_c, 0, 64, 53
1, 60261, Control_c, 0, 64, 60
1, 60276, Control_c, 0, 64, 63
1, 60291, Control_c, 0, 64, 65
1, 60306, Control_c, 0, 64, 66
1, 60321, Control_c, 0, 64, 68
1, 60335, Control_c, 0, 64, 70
1, 60344, Note_off_c, 0, 75, 61
1, 60350, Control_c, 0, 64, 72
1, 60365, Control_c, 0, 64, 74
1, 60379, Control_c, 0, 64, 76
1, 60394, Control_c, 0, 64, 77
1, 60409, Control_c, 0, 64, 79
1, 60416, Note_on_c, 0, 58, 55
1, 60424, Control_c, 0, 64, 80
1, 60439, Control_c, 0, 64, 80
1, 60453, Control_c, 0, 64, 81
1, 60467, Note_off_c, 0, 54, 54
1, 60468, Control_c, 0, 64, 82
1, 60483, Control_c, 0, 64, 82
1, 60498, Control_c, 0, 64, 83
1, 60513, Control_c, 0, 64, 83
1, 60537, Note_off_c, 0, 58, 61
1, 60565, Control_c, 0, 64, 84
1, 60646, Note_on_c, 0, 63, 66
1, 60733, Note_on_c, 0, 48, 81
1, 60742, Control_c, 0, 64, 83
1, 60802, Control_c, 0, 64, 82
1, 60816, Control_c, 0, 64, 79
1, 60831, Note_on_c, 0, 54, 75
1, 60831, Control_c, 0, 64, 72
1, 60839, Note_off_c, 0, 48, 62
1, 60846, Control_c, 0, 64, 63
1, 60858, Note_on_c, 0, 60, 56
1, 60861, Control_c, 0, 64, 50
1, 60865, Note_off_c, 0, 63, 57
1, 60876, Control_c, 0, 64, 0
1, 61024, Control_c, 0, 64, 34
1, 61039, Control_c, 0, 64, 47
1, 61054, Control_c, 0, 64, 57
1, 61069, Control_c, 0, 64, 62
1, 61083, Control_c, 0, 64, 64
1, 61098, Control_c, 0, 64, 65
1, 61099, Note_on_c, 0, 62, 56
1, 61113, Control_c, 0, 64, 66
1, 61128, Control_c, 0, 64, 68
1, 61143, Control_c, 0, 64, 70
1, 61157, Control_c, 0, 64, 72
1, 61172, Control_c, 0, 64, 74
1, 61187, Control_c, 0, 64, 75
1, 61201, Control_c, 0, 64, 76
1, 61216, Control_c, 0, 64, 77
1, 61231, Control_c, 0, 64, 77
1, 61246, Control_c, 0, 64, 78
1, 61298, Control_c, 0, 64, 78
1, 61317, Note_on_c, 0, 66, 63
1, 61478, Note_off_c, 0, 60, 33
1, 61532, Note_off_c, 0, 62, 34
1, 61576, Note_on_c, 0, 69, 50
1, 61600, Note_off_c, 0, 66, 40
1, 61815, Note_on_c, 0, 66, 62
1, 61845, Note_off_c, 0, 69, 38
1, 61992, Note_on_c, 0, 45, 68
1, 62006, Note_off_c, 0, 66, 58
1, 62014, Note_on_c, 0, 62, 73
1, 62061, Note_off_c, 0, 45, 62
1, 62085, Note_off_c, 0, 54, 61
1, 62110, Note_on_c, 0, 59, 76
1, 62158, Note_off_c, 0, 62, 62
1, 62181, Note_off_c, 0, 59, 60
1, 62196, Control_c, 0, 64, 78
1, 62248, Note_on_c, 0, 56, 79
1, 62285, Control_c, 0, 64, 77
1, 62300, Control_c, 0, 64, 74
1, 62314, Control_c, 0, 64, 68
1, 62329, Control_c, 0, 64, 59
1, 62344, Control_c, 0, 64, 48
1, 62360, Control_c, 0, 64, 39
1, 62375, Control_c, 0, 64, 37
1, 62390, Control_c, 0, 64, 39
1, 62404, Control_c, 0, 64, 45
1, 62419, Control_c, 0, 64, 52
1, 62434, Control_c, 0, 64, 58
1, 62449, Control_c, 0, 64, 62
1, 62463, Control_c, 0, 64, 66
1, 62478, Control_c, 0, 64, 68
1, 62491, Note_on_c, 0, 60, 64
1, 62493, Control_c, 0, 64, 70
1, 62508, Control_c, 0, 64, 72
1, 62523, Control_c, 0, 64, 74
1, 62537, Control_c, 0, 64, 76
1, 62552, Control_c, 0, 64, 78
1, 62567, Control_c, 0, 64, 79
1, 62581, Control_c, 0, 64, 80
1, 62596, Control_c, 0, 64, 80
1, 62611, Control_c, 0, 64, 81
1, 62626, Control_c, 0, 64, 81
1, 62685, Note_on_c, 0, 62, 63
1, 62691, Note_off_c, 0, 60, 55
1, 62792, Note_on_c, 0, 68, 77
1, 62841, Control_c, 0, 64, 82
1, 62880, Note_off_c, 0, 68, 54
1, 62882, Note_off_c, 0, 62, 62
1, 62892, Note_on_c, 0, 66, 62
1, 62896, Note_on_c, 0, 74, 88
1, 63004, Control_c, 0, 64, 82
1, 63087, Note_off_c, 0, 66, 38
1, 63097, Note_on_c, 0, 62, 60
1, 63273, Note_off_c, 0, 56, 58
1, 63306, Note_off_c, 0, 62, 60
1, 63309, Note_on_c, 0, 65, 79
1, 63318, Note_on_c, 0, 60, 67
1, 63362, Note_off_c, 0, 65, 62
1, 63366, Note_off_c, 0, 60, 61
1, 63368, Poly_aftertouch_c, 0, 72, 0
1, 63413, Note_on_c, 0, 79, 77
1, 63421, Note_on_c, 0, 52, 73
1, 63439, Note_off_c, 0, 74, 28
1, 63464, Control_c, 0, 64, 82
1, 63478, Control_c, 0, 64, 77
1, 63493, Control_c, 0, 64, 68
1, 63508, Control_c, 0, 64, 56
1, 63523, Control_c, 0, 64, 40
1, 63534, Note_off_c, 0, 52, 61
1, 63540, Note_on_c, 0, 58, 86
1, 63546, Note_on_c, 0, 76, 85
1, 63546, Control_c, 0, 64, 0
1, 63575, Control_c, 0, 64, 34
1, 63576, Note_off_c, 0, 79, 36
1, 63590, Control_c, 0, 64, 49
1, 63605, Control_c, 0, 64, 60
1, 63619, Control_c, 0, 64, 65
1, 63634, Control_c, 0, 64, 69
1, 63649, Control_c, 0, 64, 72
1, 63664, Control_c, 0, 64, 73
1, 63679, Control_c, 0, 64, 76
1, 63683, Note_off_c, 0, 76, 60
1, 63693, Control_c, 0, 64, 78
1, 63708, Control_c, 0, 64, 81
1, 63723, Control_c, 0, 64, 83
1, 63737, Control_c, 0, 64, 86
1, 63752, Control_c, 0, 64, 88
1, 63767, Control_c, 0, 64, 90
1, 63782, Control_c, 0, 64, 93
1, 63797, Control_c, 0, 64, 95
1, 63812, Control_c, 0, 64, 97
1, 63821, Note_on_c, 0, 61, 57
1, 63827, Control_c, 0, 64, 99
1, 63857, Control_c, 0, 64, 102
1, 63886, Control_c, 0, 64, 104
1, 63930, Control_c, 0, 64, 106
1, 63960, Note_off_c, 0, 61, 58
1, 63991, Control_c, 0, 64, 108
1, 64000, Note_on_c, 0, 65, 72
1, 64021, Control_c, 0, 64, 111
1, 64050, Control_c, 0, 64, 115
1, 64065, Control_c, 0, 64, 118
1, 64080, Control_c, 0, 64, 122
1, 64095, Control_c, 0, 64, 127
1, 64204, Note_on_c, 0, 69, 70
1, 64219, Note_off_c, 0, 65, 57
1, 64375, Note_off_c, 0, 69, 61
1, 64423, Note_on_c, 0, 64, 69
1, 64620, Note_on_c, 0, 68, 84
1, 64623, Note_on_c, 0, 49, 76
1, 64633, Note_off_c, 0, 64, 39
1, 64733, Note_off_c, 0, 49, 62
1, 64743, Note_off_c, 0, 58, 55
1, 64753, Note_on_c, 0, 72, 87
1, 64759, Note_on_c, 0, 63, 82
1, 64781, Note_off_c, 0, 68, 62
1, 64817, Note_off_c, 0, 63, 63
1, 64935, Note_on_c, 0, 60, 75
1, 64945, Note_on_c, 0, 78, 92
1, 64967, Note_off_c, 0, 72, 61
1, 64976, Control_c, 0, 64, 114
1, 64991, Control_c, 0, 64, 90
1, 65006, Control_c, 0, 64, 71
1, 65028, Control_c, 0, 64, 56
1, 65043, Control_c, 0, 64, 36
1, 65058, Control_c, 0, 64, 0
1, 65162, Control_c, 0, 64, 31
1, 65166, Note_on_c, 0, 63, 69
1, 65176, Control_c, 0, 64, 45
1, 65191, Control_c, 0, 64, 56
1, 65206, Control_c, 0, 64, 62
1, 65221, Control_c, 0, 64, 65
1, 65236, Control_c, 0, 64, 67
1, 65250, Control_c, 0, 64, 69
1, 65265, Control_c, 0, 64, 72
1, 65280, Control_c, 0, 64, 75
1, 65295, Control_c, 0, 64, 78
1, 65310, Control_c, 0, 64, 82
1, 65324, Control_c, 0, 64, 85
1, 65339, Control_c, 0, 64, 89
1, 65354, Control_c, 0, 64, 92
1, 65365, Note_on_c, 0, 67, 74
1, 65369, Control_c, 0, 64, 95
1, 65383, Control_c, 0, 64, 98
1, 65398, Control_c, 0, 64, 102
1, 65413, Control_c, 0, 64, 106
1, 65428, Control_c, 0, 64, 109
1, 65443, Control_c, 0, 64, 113
1, 65445, Note_off_c, 0, 63, 36
1, 65457, Control_c, 0, 64, 117
1, 65472, Control_c, 0, 64, 120
1, 65487, Control_c, 0, 64, 127
1, 65563, Note_off_c, 0, 67, 61
1, 65571, Note_on_c, 0, 71, 77
1, 65708, Note_off_c, 0, 78, 58
1, 65732, Note_off_c, 0, 71, 57
1, 65781, Note_on_c, 0, 63, 71
1, 65969, Note_on_c, 0, 66, 75
1, 65973, Note_on_c, 0, 69, 88
1, 66012, Note_off_c, 0, 60, 60
1, 66052, Note_off_c, 0, 69, 59
1, 66077, Note_on_c, 0, 83, 100
1, 66186, Note_on_c, 0, 59, 81
1, 66217, Note_off_c, 0, 63, 55
1, 66222, Note_off_c, 0, 66, 62
1, 66225, Note_on_c, 0, 80, 92
1, 66246, Note_off_c, 0, 83, 61
1, 66251, Control_c, 0, 64, 108
1, 66266, Control_c, 0, 64, 87
1, 66280, Control_c, 0, 64, 69
1, 66295, Control_c, 0, 64, 48
1, 66310, Control_c, 0, 64, 0
1, 66400, Control_c, 0, 64, 35
1, 66415, Control_c, 0, 64, 50
1, 66423, Note_on_c, 0, 63, 74
1, 66429, Control_c, 0, 64, 61
1, 66444, Control_c, 0, 64, 64
1, 66459, Control_c, 0, 64, 67
1, 66474, Control_c, 0, 64, 70
1, 66489, Control_c, 0, 64, 73
1, 66504, Control_c, 0, 64, 77
1, 66519, Control_c, 0, 64, 81
1, 66541, Control_c, 0, 64, 85
1, 66555, Control_c, 0, 64, 89
1, 66570, Control_c, 0, 64, 95
1, 66585, Control_c, 0, 64, 105
1, 66600, Control_c, 0, 64, 127
1, 66635, Note_on_c, 0, 65, 76
1, 66662, Note_off_c, 0, 63, 61
1, 66853, Note_off_c, 0, 65, 62
1, 66855, Note_on_c, 0, 69, 76
1, 66973, Note_off_c, 0, 69, 54
1, 67088, Note_on_c, 0, 63, 69
1, 67192, Note_off_c, 0, 63, 63
1, 67207, Note_off_c, 0, 80, 52
1, 67210, Note_off_c, 0, 59, 58
1, 67347, Note_on_c, 0, 80, 87
1, 67358, Note_on_c, 0, 68, 65
1, 67601, Control_c, 0, 64, 82
1, 67616, Control_c, 0, 64, 61
1, 67630, Control_c, 0, 64, 0
1, 67637, Note_on_c, 0, 46, 62
1, 67639, Note_on_c, 0, 34, 70
1, 67690, Control_c, 0, 66, 127
1, 67705, Control_c, 0, 64, 32
1, 67719, Control_c, 0, 64, 49
1, 67734, Control_c, 0, 64, 60
1, 67749, Control_c, 0, 64, 64
1, 67752, Note_off_c, 0, 34, 63
1, 67764, Control_c, 0, 64, 69
1, 67778, Control_c, 0, 64, 73
1, 67793, Control_c, 0, 64, 80
1, 67797, Note_off_c, 0, 46, 62
1, 67808, Control_c, 0, 64, 86
1, 67823, Control_c, 0, 64, 93
1, 67838, Control_c, 0, 64, 99
1, 67852, Control_c, 0, 64, 105
1, 67867, Control_c, 0, 64, 114
1, 67882, Control_c, 0, 64, 127
1, 67882, Control_c, 0, 66, 0
1, 67896, Note_off_c, 0, 68, 56
1, 67947, Note_on_c, 0, 56, 55
1, 68031, Note_on_c, 0, 70, 76
1, 68120, Note_off_c, 0, 70, 64
1, 68127, Note_on_c, 0, 71, 76
1, 68136, Note_on_c, 0, 59, 60
1, 68201, Note_off_c, 0, 71, 58
1, 68221, Note_on_c, 0, 76, 80
1, 68242, Note_off_c, 0, 80, 57
1, 68322, Note_on_c, 0, 72, 79
1, 68340, Note_on_c, 0, 64, 58
1, 68347, Note_off_c, 0, 76, 60
1, 68376, Note_off_c, 0, 59, 42
1, 68447, Note_off_c, 0, 56, 36
1, 68538, Note_on_c, 0, 59, 64
1, 68546, Note_off_c, 0, 64, 58
1, 68641, Note_on_c, 0, 73, 88
1, 68665, Note_off_c, 0, 72, 61
1, 68727, Note_off_c, 0, 59, 36
1, 68794, Note_on_c, 0, 56, 60
1, 68823, Note_off_c, 0, 56, 65
1, 68833, Note_on_c, 0, 74, 90
1, 68864, Note_off_c, 0, 73, 62
1, 68924, Note_on_c, 0, 79, 77
1, 68927, Note_off_c, 0, 74, 62
1, 68932, Note_on_c, 0, 81, 66
1, 68948, Note_off_c, 0, 81, 64
1, 69009, Control_c, 0, 64, 101
1, 69023, Control_c, 0, 64, 70
1, 69027, Note_on_c, 0, 46, 71
1, 69031, Note_on_c, 0, 34, 75
1, 69035, Note_on_c, 0, 76, 87
1, 69036, Note_off_c, 0, 79, 62
1, 69038, Control_c, 0, 64, 42
1, 69053, Control_c, 0, 64, 0
1, 69085, Note_off_c, 0, 34, 64
1, 69097, Control_c, 0, 64, 59
1, 69112, Control_c, 0, 64, 71
1, 69114, Note_off_c, 0, 46, 62
1, 69127, Control_c, 0, 64, 82
1, 69142, Control_c, 0, 64, 91
1, 69157, Control_c, 0, 64, 97
1, 69172, Control_c, 0, 64, 103
1, 69187, Control_c, 0, 64, 112
1, 69201, Control_c, 0, 64, 127
1, 69255, Note_on_c, 0, 56, 68
1, 69388, Note_off_c, 0, 56, 47
1, 69447, Note_on_c, 0, 62, 72
1, 69489, Note_off_c, 0, 62, 59
1, 69675, Note_on_c, 0, 71, 78
1, 69755, Note_off_c, 0, 71, 59
1, 69878, Note_on_c, 0, 62, 76
1, 70058, Note_off_c, 0, 62, 57
1, 70072, Note_on_c, 0, 56, 77
1, 70081, Note_on_c, 0, 77, 95
1, 70096, Note_on_c, 0, 65, 78
1, 70099, Note_off_c, 0, 56, 69
1, 70120, Note_off_c, 0, 76, 57
1, 70217, Control_c, 0, 64, 85
1, 70232, Control_c, 0, 64, 68
1, 70246, Control_c, 0, 64, 61
1, 70284, Control_c, 0, 64, 65
1, 70294, Note_on_c, 0, 34, 86
1, 70294, Note_on_c, 0, 46, 84
1, 70298, Control_c, 0, 64, 75
1, 70313, Control_c, 0, 64, 94
1, 70324, Note_off_c, 0, 34, 68
1, 70325, Note_off_c, 0, 65, 62
1, 70328, Note_off_c, 0, 46, 62
1, 70328, Control_c, 0, 64, 127
1, 70360, Note_off_c, 0, 77, 66
1, 70523, Note_on_c, 0, 55, 73
1, 70547, Note_on_c, 0, 62, 58
1, 70612, Note_on_c, 0, 78, 88
1, 70710, Note_off_c, 0, 62, 34
1, 70713, Note_on_c, 0, 79, 86
1, 70721, Note_off_c, 0, 78, 59
1, 70731, Note_on_c, 0, 65, 63
1, 70738, Note_off_c, 0, 55, 30
1, 70791, Note_on_c, 0, 84, 91
1, 70791, Note_off_c, 0, 79, 64
1, 70792, Note_on_c, 0, 72, 83
1, 70824, Note_off_c, 0, 72, 60
1, 70850, Note_off_c, 0, 65, 56
1, 70891, Note_on_c, 0, 81, 95
1, 70899, Note_on_c, 0, 71, 70
1, 70915, Note_off_c, 0, 84, 61
1, 71037, Note_off_c, 0, 71, 55
1, 71066, Note_off_c, 0, 81, 62
1, 71091, Note_on_c, 0, 65, 80
1, 71185, Note_on_c, 0, 82, 93
1, 71193, Note_on_c, 0, 70, 86
1, 71237, Note_off_c, 0, 70, 59
1, 71262, Note_off_c, 0, 82, 60
1, 71300, Note_off_c, 0, 65, 61
1, 71319, Note_on_c, 0, 83, 100
1, 71323, Note_on_c, 0, 55, 64
1, 71324, Note_on_c, 0, 61, 59
1, 71327, Note_on_c, 0, 71, 85
1, 71346, Note_off_c, 0, 71, 70
1, 71363, Note_off_c, 0, 61, 64
1, 71375, Note_off_c, 0, 83, 66
1, 71390, Note_off_c, 0, 55, 62
1, 71460, Note_on_c, 0, 88, 99
1, 71467, Note_on_c, 0, 76, 87
1, 71500, Note_off_c, 0, 76, 58
1, 71518, Note_off_c, 0, 88, 64
1, 71647, Note_on_c, 0, 39, 81
1, 71654, Note_on_c, 0, 27, 76
1, 71657, Note_on_c, 0, 83, 98
1, 71658, Note_on_c, 0, 25, 55
1, 71663, Note_on_c, 0, 71, 87
1, 71670, Control_c, 0, 64, 98
1, 71685, Control_c, 0, 64, 68
1, 71691, Note_off_c, 0, 25, 52
1, 71699, Control_c, 0, 64, 43
1, 71714, Control_c, 0, 64, 0
1, 71741, Note_off_c, 0, 27, 63
1, 71744, Control_c, 0, 64, 43
1, 71766, Control_c, 0, 64, 61
1, 71778, Note_off_c, 0, 39, 64
1, 71781, Control_c, 0, 64, 72
1, 71796, Control_c, 0, 64, 87
1, 71811, Control_c, 0, 64, 112
1, 71825, Control_c, 0, 64, 127
1, 71944, Note_on_c, 0, 61, 72
1, 72049, Note_off_c, 0, 61, 53
1, 72141, Note_on_c, 0, 67, 74
1, 72202, Note_off_c, 0, 67, 60
1, 72379, Note_off_c, 0, 71, 45
1, 72381, Note_on_c, 0, 77, 85
1, 72433, Note_off_c, 0, 83, 52
1, 72588, Note_off_c, 0, 77, 63
1, 72632, Note_on_c, 0, 84, 104
1, 72638, Note_on_c, 0, 72, 90
1, 72674, Note_off_c, 0, 72, 59
1, 72901, Note_on_c, 0, 67, 95
1, 72930, Note_off_c, 0, 84, 59
1, 72931, Note_off_c, 0, 67, 69
1, 73232, Note_on_c, 0, 36, 91
1, 73237, Note_on_c, 0, 24, 87
1, 73279, Control_c, 0, 64, 82
1, 73291, Note_on_c, 0, 85, 105
1, 73294, Control_c, 0, 64, 57
1, 73294, Note_on_c, 0, 73, 98
1, 73309, Control_c, 0, 64, 0
1, 73309, Note_off_c, 0, 24, 63
1, 73343, Note_off_c, 0, 36, 64
1, 73353, Control_c, 0, 64, 46
1, 73368, Control_c, 0, 64, 65
1, 73383, Control_c, 0, 64, 77
1, 73397, Control_c, 0, 64, 94
1, 73412, Control_c, 0, 64, 109
1, 73427, Control_c, 0, 64, 127
1, 73478, Note_off_c, 0, 73, 58
1, 73626, Note_on_c, 0, 56, 89
1, 73631, Note_on_c, 0, 52, 77
1, 73643, Note_off_c, 0, 85, 64
1, 73858, Note_on_c, 0, 92, 107
1, 73861, Note_on_c, 0, 80, 93
1, 73863, Note_on_c, 0, 58, 83
1, 73966, Note_off_c, 0, 92, 67
1, 73969, Note_off_c, 0, 80, 61
1, 74039, Note_off_c, 0, 58, 61
1, 74070, Note_on_c, 0, 59, 83
1, 74096, Note_off_c, 0, 52, 59
1, 74102, Note_off_c, 0, 56, 59
1, 74170, Note_on_c, 0, 64, 92
1, 74174, Note_off_c, 0, 59, 66
1, 74257, Note_off_c, 0, 64, 55
1, 74265, Control_c, 0, 64, 109
1, 74275, Note_on_c, 0, 84, 95
1, 74276, Note_on_c, 0, 60, 85
1, 74280, Control_c, 0, 64, 79
1, 74281, Note_on_c, 0, 72, 87
1, 74295, Control_c, 0, 64, 66
1, 74310, Control_c, 0, 64, 64
1, 74325, Control_c, 0, 64, 66
1, 74341, Control_c, 0, 64, 73
1, 74355, Control_c, 0, 64, 84
1, 74370, Control_c, 0, 64, 95
1, 74372, Note_off_c, 0, 72, 63
1, 74385, Control_c, 0, 64, 102
1, 74400, Control_c, 0, 64, 108
1, 74415, Control_c, 0, 64, 114
1, 74430, Control_c, 0, 64, 120
1, 74444, Control_c, 0, 64, 127
1, 74466, Note_off_c, 0, 84, 60
1, 74502, Note_on_c, 0, 82, 90
1, 74510, Note_on_c, 0, 70, 83
1, 74564, Note_off_c, 0, 60, 60
1, 74581, Note_on_c, 0, 61, 73
1, 74627, Note_off_c, 0, 61, 65
1, 74665, Note_off_c, 0, 70, 62
1, 74671, Note_off_c, 0, 82, 60
1, 74710, Control_c, 0, 64, 97
1, 74713, Note_on_c, 0, 54, 58
1, 74725, Note_on_c, 0, 81, 99
1, 74725, Control_c, 0, 64, 72
1, 74728, Note_on_c, 0, 62, 80
1, 74734, Note_on_c, 0, 69, 82
1, 74740, Control_c, 0, 64, 63
1, 74777, Control_c, 0, 64, 68
1, 74778, Note_off_c, 0, 54, 63
1, 74788, Note_off_c, 0, 69, 62
1, 74792, Control_c, 0, 64, 78
1, 74807, Control_c, 0, 64, 99
1, 74808, Note_off_c, 0, 62, 63
1, 74822, Control_c, 0, 64, 114
1, 74837, Control_c, 0, 64, 127
1, 74848, Note_on_c, 0, 69, 88
1, 74868, Note_off_c, 0, 81, 64
1, 74957, Note_off_c, 0, 69, 59
1, 74967, Note_on_c, 0, 64, 86
1, 75157, Note_on_c, 0, 86, 96
1, 75163, Note_on_c, 0, 74, 93
1, 75247, Note_off_c, 0, 86, 61
1, 75253, Note_off_c, 0, 74, 61
1, 75255, Note_off_c, 0, 64, 65
1, 75261, Note_on_c, 0, 65, 80
1, 75357, Note_off_c, 0, 65, 61
1, 75366, Note_on_c, 0, 66, 85
1, 75414, Note_off_c, 0, 66, 64
1, 75449, Note_on_c, 0, 73, 89
1, 75503, Note_off_c, 0, 73, 60
1, 75556, Note_on_c, 0, 76, 85
1, 75565, Note_on_c, 0, 64, 77
1, 75570, Control_c, 0, 64, 82
1, 75579, Note_on_c, 0, 67, 71
1, 75584, Control_c, 0, 64, 62
1, 75599, Control_c, 0, 64, 51
1, 75605, Note_on_c, 0, 68, 31
1, 75614, Control_c, 0, 64, 52
1, 75629, Control_c, 0, 64, 59
1, 75644, Control_c, 0, 64, 67
1, 75659, Control_c, 0, 64, 77
1, 75673, Control_c, 0, 64, 89
1, 75688, Control_c, 0, 64, 95
1, 75703, Control_c, 0, 64, 98
1, 75710, Note_off_c, 0, 64, 63
1, 75717, Note_off_c, 0, 76, 62
1, 75718, Control_c, 0, 64, 102
1, 75733, Control_c, 0, 64, 106
1, 75736, Note_off_c, 0, 68, 18
1, 75747, Control_c, 0, 64, 110
1, 75762, Control_c, 0, 64, 115
1, 75777, Control_c, 0, 64, 127
1, 75786, Note_off_c, 0, 67, 34
1, 75797, Note_on_c, 0, 74, 90
1, 75804, Note_on_c, 0, 62, 74
1, 75888, Note_on_c, 0, 69, 87
1, 75892, Note_off_c, 0, 62, 59
1, 75905, Note_off_c, 0, 69, 73
1, 76024, Note_on_c, 0, 60, 83
1, 76029, Note_on_c, 0, 48, 86
1, 76030, Control_c, 0, 64, 91
1, 76045, Control_c, 0, 64, 65
1, 76060, Control_c, 0, 64, 45
1, 76075, Control_c, 0, 64, 38
1, 76087, Note_off_c, 0, 74, 49
1, 76089, Control_c, 0, 64, 40
1, 76104, Control_c, 0, 64, 51
1, 76119, Control_c, 0, 64, 62
1, 76133, Control_c, 0, 64, 69
1, 76148, Control_c, 0, 64, 74
1, 76163, Control_c, 0, 64, 78
1, 76178, Control_c, 0, 64, 80
1, 76193, Control_c, 0, 64, 84
1, 76207, Control_c, 0, 64, 88
1, 76222, Control_c, 0, 64, 94
1, 76230, Note_on_c, 0, 73, 82
1, 76237, Control_c, 0, 64, 102
1, 76238, Note_on_c, 0, 61, 75
1, 76241, Note_off_c, 0, 48, 60
1, 76245, Note_on_c, 0, 70, 68
1, 76258, Note_off_c, 0, 60, 65
1, 76260, Control_c, 0, 64, 110
1, 76275, Control_c, 0, 64, 127
1, 76377, Note_off_c, 0, 61, 55
1, 76433, Note_on_c, 0, 65, 81
1, 76435, Note_on_c, 0, 53, 77
1, 76449, Note_off_c, 0, 73, 60
1, 76487, Note_off_c, 0, 70, 62
1, 76534, Note_on_c, 0, 75, 90
1, 76540, Note_on_c, 0, 63, 68
1, 76567, Note_off_c, 0, 63, 68
1, 76573, Note_off_c, 0, 65, 53
1, 76579, Note_off_c, 0, 75, 62
1, 76639, Note_on_c, 0, 76, 89
1, 76646, Note_on_c, 0, 64, 63
1, 76653, Note_on_c, 0, 70, 63
1, 76663, Note_off_c, 0, 64, 65
1, 76665, Note_off_c, 0, 76, 62
1, 76672, Note_off_c, 0, 70, 66
1, 76692, Note_off_c, 0, 53, 62
1, 76738, Note_on_c, 0, 81, 87
1, 76771, Note_off_c, 0, 81, 62
1, 76780, Note_on_c, 0, 69, 33
1, 76817, Note_off_c, 0, 69, 50
1, 76859, Note_on_c, 0, 75, 87
1, 76862, Note_on_c, 0, 58, 86
1, 76866, Note_on_c, 0, 63, 81
1, 76868, Note_on_c, 0, 46, 81
1, 76868, Control_c, 0, 64, 118
1, 76868, Note_on_c, 0, 70, 74
1, 76882, Control_c, 0, 64, 77
1, 76897, Control_c, 0, 64, 58
1, 76904, Note_on_c, 0, 73, 24
1, 76912, Control_c, 0, 64, 43
1, 76927, Control_c, 0, 64, 45
1, 76942, Control_c, 0, 64, 55
1, 76943, Note_off_c, 0, 73, 49
1, 76956, Control_c, 0, 64, 66
1, 76971, Control_c, 0, 64, 76
1, 76986, Control_c, 0, 64, 87
1, 76998, Note_off_c, 0, 58, 60
1, 77008, Control_c, 0, 64, 91
1, 77023, Control_c, 0, 64, 92
1, 77038, Control_c, 0, 64, 93
1, 77050, Note_off_c, 0, 63, 60
1, 77053, Control_c, 0, 64, 94
1, 77068, Control_c, 0, 64, 96
1, 77082, Control_c, 0, 64, 98
1, 77084, Note_on_c, 0, 56, 94
1, 77092, Note_on_c, 0, 44, 84
1, 77096, Note_off_c, 0, 75, 60
1, 77097, Control_c, 0, 64, 101
1, 77105, Note_off_c, 0, 46, 57
1, 77112, Control_c, 0, 64, 104
1, 77127, Control_c, 0, 64, 108
1, 77137, Note_off_c, 0, 70, 62
1, 77142, Control_c, 0, 64, 113
1, 77156, Control_c, 0, 64, 127
1, 77189, Note_on_c, 0, 77, 91
1, 77196, Note_on_c, 0, 65, 85
1, 77230, Note_off_c, 0, 65, 61
1, 77238, Note_off_c, 0, 77, 65
1, 77241, Note_off_c, 0, 44, 61
1, 77252, Note_off_c, 0, 56, 61
1, 77305, Control_c, 0, 64, 114
1, 77310, Note_on_c, 0, 66, 96
1, 77311, Note_on_c, 0, 78, 97
1, 77313, Note_on_c, 0, 55, 98
1, 77315, Note_on_c, 0, 43, 93
1, 77320, Control_c, 0, 64, 71
1, 77335, Control_c, 0, 64, 40
1, 77347, Note_off_c, 0, 66, 63
1, 77347, Note_off_c, 0, 78, 66
1, 77350, Control_c, 0, 64, 0
1, 77364, Control_c, 0, 64, 29
1, 77379, Control_c, 0, 64, 53
1, 77394, Control_c, 0, 64, 70
1, 77409, Control_c, 0, 64, 84
1, 77424, Control_c, 0, 64, 104
1, 77428, Note_on_c, 0, 85, 95
1, 77429, Note_on_c, 0, 73, 96
1, 77438, Control_c, 0, 64, 111
1, 77453, Control_c, 0, 64, 127
1, 77465, Note_off_c, 0, 73, 62
1, 77465, Note_off_c, 0, 85, 64
1, 77545, Note_on_c, 0, 68, 89
1, 77547, Note_on_c, 0, 80, 91
1, 77569, Note_on_c, 0, 73, 65
1, 77582, Note_off_c, 0, 43, 60
1, 77607, Note_off_c, 0, 55, 63
1, 77730, Note_off_c, 0, 80, 59
1, 77736, Note_off_c, 0, 68, 59
1, 77747, Note_on_c, 0, 61, 92
1, 77751, Note_on_c, 0, 49, 85
1, 77801, Note_off_c, 0, 73, 61
1, 77847, Note_on_c, 0, 81, 90
1, 77851, Note_on_c, 0, 69, 91
1, 77882, Note_off_c, 0, 69, 62
1, 77886, Note_off_c, 0, 81, 66
1, 77888, Note_on_c, 0, 74, 40
1, 77909, Note_off_c, 0, 61, 59
1, 77917, Note_off_c, 0, 74, 50
1, 77963, Note_on_c, 0, 70, 92
1, 77967, Note_on_c, 0, 82, 91
1, 77974, Note_off_c, 0, 49, 62
1, 77995, Note_off_c, 0, 70, 66
1, 77998, Note_off_c, 0, 82, 61
1, 78083, Note_on_c, 0, 90, 96
1, 78098, Note_on_c, 0, 78, 78
1, 78116, Note_off_c, 0, 90, 65
1, 78117, Note_off_c, 0, 78, 70
1, 78225, Note_on_c, 0, 42, 84
1, 78225, Note_on_c, 0, 54, 90
1, 78243, Note_on_c, 0, 83, 94
1, 78248, Note_on_c, 0, 71, 85
1, 78254, Note_on_c, 0, 78, 66
1, 78254, Note_on_c, 0, 76, 64
1, 78276, Control_c, 0, 64, 95
1, 78291, Control_c, 0, 64, 66
1, 78305, Control_c, 0, 64, 40
1, 78320, Control_c, 0, 64, 0
1, 78336, Control_c, 0, 64, 32
1, 78351, Control_c, 0, 64, 50
1, 78366, Control_c, 0, 64, 66
1, 78381, Control_c, 0, 64, 79
1, 78396, Control_c, 0, 64, 93
1, 78410, Control_c, 0, 64, 97
1, 78425, Control_c, 0, 64, 102
1, 78440, Control_c, 0, 64, 119
1, 78451, Note_off_c, 0, 54, 63
1, 78455, Control_c, 0, 64, 127
1, 78520, Note_off_c, 0, 71, 54
1, 78526, Note_off_c, 0, 83, 64
1, 78532, Note_on_c, 0, 52, 94
1, 78537, Note_on_c, 0, 40, 85
1, 78567, Note_off_c, 0, 42, 58
1, 78625, Note_off_c, 0, 52, 64
1, 78661, Note_on_c, 0, 84, 99
1, 78666, Note_on_c, 0, 72, 87
1, 78667, Note_off_c, 0, 76, 59
1, 78668, Note_off_c, 0, 40, 63
1, 78685, Note_off_c, 0, 78, 54
1, 78732, Note_off_c, 0, 72, 57
1, 78737, Note_off_c, 0, 84, 62
1, 78865, Note_on_c, 0, 27, 101
1, 78866, Note_on_c, 0, 39, 97
1, 78877, Control_c, 0, 64, 105
1, 78892, Control_c, 0, 64, 59
1, 78907, Control_c, 0, 64, 0
1, 78966, Control_c, 0, 66, 127
1, 78986, Poly_aftertouch_c, 0, 26, 0
1, 78996, Control_c, 0, 64, 60
1, 79006, Note_off_c, 0, 27, 63
1, 79010, Control_c, 0, 64, 67
1, 79021, Note_on_c, 0, 67, 85
1, 79025, Control_c, 0, 64, 70
1, 79040, Note_off_c, 0, 39, 64
1, 79040, Control_c, 0, 64, 71
1, 79054, Control_c, 0, 64, 73
1, 79069, Control_c, 0, 64, 75
1, 79084, Control_c, 0, 64, 77
1, 79099, Control_c, 0, 64, 80
1, 79114, Control_c, 0, 64, 83
1, 79130, Control_c, 0, 64, 85
1, 79145, Control_c, 0, 64, 86
1, 79155, Note_off_c, 0, 67, 56
1, 79157, Note_on_c, 0, 68, 82
1, 79159, Control_c, 0, 64, 86
1, 79163, Note_on_c, 0, 55, 71
1, 79176, Note_on_c, 0, 49, 65
1, 79269, Note_off_c, 0, 68, 61
1, 79271, Note_on_c, 0, 69, 84
1, 79271, Control_c, 0, 64, 87
1, 79285, Control_c, 0, 64, 87
1, 79315, Control_c, 0, 64, 88
1, 79319, Note_off_c, 0, 49, 51
1, 79332, Note_off_c, 0, 55, 62
1, 79335, Note_off_c, 0, 69, 62
1, 79348, Note_on_c, 0, 77, 84
1, 79383, Note_on_c, 0, 61, 79
1, 79419, Control_c, 0, 64, 88
1, 79436, Note_on_c, 0, 72, 84
1, 79439, Note_off_c, 0, 61, 63
1, 79443, Note_off_c, 0, 77, 62
1, 79513, Note_on_c, 0, 73, 83
1, 79515, Note_off_c, 0, 72, 64
1, 79538, Note_on_c, 0, 67, 79
1, 79591, Note_off_c, 0, 73, 64
1, 79593, Note_on_c, 0, 74, 89
1, 79657, Note_off_c, 0, 74, 62
1, 79658, Note_off_c, 0, 67, 62
1, 79669, Note_on_c, 0, 81, 86
1, 79691, Note_on_c, 0, 61, 80
1, 79738, Note_on_c, 0, 76, 82
1, 79755, Note_off_c, 0, 81, 63
1, 79773, Control_c, 0, 64, 89
1, 79788, Control_c, 0, 64, 89
1, 79803, Control_c, 0, 64, 92
1, 79815, Note_on_c, 0, 77, 92
1, 79818, Control_c, 0, 64, 97
1, 79825, Note_off_c, 0, 76, 61
1, 79832, Note_on_c, 0, 67, 80
1, 79832, Control_c, 0, 64, 101
1, 79835, Note_off_c, 0, 61, 56
1, 79847, Control_c, 0, 64, 104
1, 79876, Control_c, 0, 64, 108
1, 79890, Note_on_c, 0, 78, 89
1, 79891, Control_c, 0, 64, 112
1, 79906, Control_c, 0, 64, 127
1, 79917, Note_off_c, 0, 77, 63
1, 79962, Note_off_c, 0, 67, 61
1, 79965, Note_on_c, 0, 84, 88
1, 79971, Note_off_c, 0, 78, 60
1, 79974, Note_on_c, 0, 73, 84
1, 80035, Note_off_c, 0, 73, 64
1, 80050, Note_on_c, 0, 79, 82
1, 80057, Note_off_c, 0, 84, 63
1, 80124, Note_on_c, 0, 67, 86
1, 80144, Note_on_c, 0, 80, 91
1, 80149, Note_off_c, 0, 79, 65
1, 80223, Note_off_c, 0, 80, 63
1, 80225, Note_on_c, 0, 81, 92
1, 80317, Note_on_c, 0, 73, 84
1, 80321, Note_on_c, 0, 89, 92
1, 80323, Note_off_c, 0, 67, 65
1, 80334, Note_off_c, 0, 81, 63
1, 80428, Note_on_c, 0, 82, 97
1, 80440, Note_off_c, 0, 89, 63
1, 80560, Note_off_c, 0, 73, 64
1, 80577, Note_on_c, 0, 79, 89
1, 80587, Note_off_c, 0, 82, 60
1, 80598, Note_on_c, 0, 83, 98
1, 80642, Note_off_c, 0, 79, 66
1, 80774, Note_on_c, 0, 88, 90
1, 80857, Note_on_c, 0, 86, 88
1, 80878, Note_off_c, 0, 88, 61
1, 80882, Note_off_c, 0, 83, 59
1, 80897, Poly_aftertouch_c, 0, 87, 0
1, 80907, Note_on_c, 0, 93, 80
1, 80932, Note_off_c, 0, 86, 65
1, 80952, Note_on_c, 0, 85, 82
1, 80988, Note_off_c, 0, 93, 63
1, 80999, Note_on_c, 0, 87, 65
1, 81059, Note_on_c, 0, 90, 89
1, 81084, Note_off_c, 0, 87, 63
1, 81095, Note_off_c, 0, 85, 54
1, 81116, Note_off_c, 0, 90, 65
1, 81143, Note_on_c, 0, 81, 66
1, 81148, Note_on_c, 0, 79, 68
1, 81192, Note_off_c, 0, 79, 52
1, 81204, Note_on_c, 0, 86, 82
1, 81215, Note_off_c, 0, 81, 62
1, 81268, Note_on_c, 0, 84, 76
1, 81298, Note_off_c, 0, 86, 63
1, 81309, Note_on_c, 0, 91, 79
1, 81340, Note_on_c, 0, 82, 76
1, 81342, Note_off_c, 0, 84, 63
1, 81378, Note_on_c, 0, 85, 72
1, 81381, Note_off_c, 0, 91, 63
1, 81399, Note_off_c, 0, 82, 61
1, 81429, Note_on_c, 0, 87, 84
1, 81436, Note_off_c, 0, 85, 64
1, 81480, Note_off_c, 0, 87, 64
1, 81507, Note_on_c, 0, 79, 72
1, 81569, Note_on_c, 0, 84, 79
1, 81571, Note_off_c, 0, 79, 60
1, 81624, Note_on_c, 0, 83, 68
1, 81651, Note_off_c, 0, 84, 65
1, 81659, Note_on_c, 0, 89, 69
1, 81685, Note_on_c, 0, 80, 71
1, 81696, Note_off_c, 0, 83, 62
1, 81715, Note_off_c, 0, 80, 61
1, 81715, Note_on_c, 0, 82, 71
1, 81724, Note_off_c, 0, 89, 61
1, 81772, Note_off_c, 0, 82, 63
1, 81773, Note_on_c, 0, 85, 80
1, 81823, Note_off_c, 0, 85, 62
1, 81826, Note_on_c, 0, 77, 79
1, 81886, Note_off_c, 0, 77, 62
1, 81891, Note_on_c, 0, 83, 80
1, 81936, Note_on_c, 0, 81, 63
1, 81961, Note_off_c, 0, 83, 63
1, 81965, Note_on_c, 0, 88, 72
1, 82018, Note_on_c, 0, 78, 44
1, 82018, Note_off_c, 0, 88, 63
1, 82019, Note_off_c, 0, 81, 53
1, 82025, Note_on_c, 0, 80, 63
1, 82046, Note_off_c, 0, 78, 51
1, 82083, Note_on_c, 0, 84, 80
1, 82088, Note_off_c, 0, 80, 65
1, 82121, Note_off_c, 0, 84, 65
1, 82148, Note_on_c, 0, 71, 77
1, 82195, Note_on_c, 0, 76, 70
1, 82213, Note_off_c, 0, 71, 56
1, 82259, Note_on_c, 0, 74, 73
1, 82273, Note_off_c, 0, 76, 60
1, 82283, Note_on_c, 0, 81, 71
1, 82323, Note_on_c, 0, 73, 60
1, 82325, Note_off_c, 0, 74, 60
1, 82353, Note_off_c, 0, 81, 60
1, 82377, Note_off_c, 0, 73, 60
1, 82388, Note_on_c, 0, 76, 59
1, 82413, Note_off_c, 0, 76, 63
1, 82414, Note_on_c, 0, 78, 71
1, 82440, Note_off_c, 0, 78, 66
1, 82470, Note_on_c, 0, 69, 70
1, 82526, Note_on_c, 0, 74, 71
1, 82540, Note_off_c, 0, 69, 57
1, 82586, Note_on_c, 0, 72, 55
1, 82601, Note_off_c, 0, 74, 62
1, 82612, Note_on_c, 0, 79, 62
1, 82652, Note_on_c, 0, 70, 58
1, 82655, Note_off_c, 0, 72, 61
1, 82682, Note_off_c, 0, 79, 58
1, 82690, Note_on_c, 0, 73, 61
1, 82691, Note_off_c, 0, 70, 59
1, 82734, Note_off_c, 0, 73, 61
1, 82738, Note_on_c, 0, 75, 66
1, 82767, Note_off_c, 0, 75, 66
1, 82794, Note_on_c, 0, 67, 62
1, 82848, Note_off_c, 0, 67, 52
1, 82854, Note_on_c, 0, 72, 68
1, 82914, Note_off_c, 0, 72, 59
1, 82920, Note_on_c, 0, 71, 57
1, 82944, Note_on_c, 0, 77, 61
1, 82997, Note_off_c, 0, 71, 60
1, 83010, Note_on_c, 0, 68, 40
1, 83024, Note_off_c, 0, 77, 61
1, 83031, Note_on_c, 0, 70, 63
1, 83039, Note_off_c, 0, 68, 54
1, 83089, Note_off_c, 0, 70, 63
1, 83094, Note_on_c, 0, 73, 54
1, 83128, Note_off_c, 0, 73, 63
1, 83137, Note_on_c, 0, 65, 60
1, 83200, Note_off_c, 0, 65, 55
1, 83203, Note_on_c, 0, 71, 67
1, 83267, Note_on_c, 0, 69, 52
1, 83267, Note_off_c, 0, 71, 59
1, 83289, Note_on_c, 0, 76, 48
1, 83325, Note_off_c, 0, 69, 58
1, 83334, Note_off_c, 0, 76, 58
1, 83357, Note_on_c, 0, 68, 57
1, 83414, Note_off_c, 0, 68, 59
1, 83428, Note_on_c, 0, 72, 65
1, 83462, Note_off_c, 0, 72, 60
1, 83507, Note_on_c, 0, 63, 65
1, 83531, Control_c, 0, 64, 109
1, 83535, Note_off_c, 0, 63, 62
1, 83546, Control_c, 0, 64, 107
1, 83548, Note_on_c, 0, 69, 52
1, 83586, Note_on_c, 0, 65, 45
1, 83597, Note_off_c, 0, 69, 56
1, 83632, Note_off_c, 0, 65, 59
1, 83638, Note_on_c, 0, 71, 60
1, 83680, Note_off_c, 0, 71, 59
1, 83715, Note_on_c, 0, 66, 63
1, 83736, Note_off_c, 0, 66, 64
1, 83790, Note_on_c, 0, 72, 57
1, 83826, Note_on_c, 0, 68, 54
1, 83848, Note_off_c, 0, 72, 47
1, 83895, Note_off_c, 0, 68, 60
1, 83915, Note_on_c, 0, 63, 77
1, 83973, Note_off_c, 0, 63, 59
1, 83992, Note_on_c, 0, 69, 66
1, 84022, Note_on_c, 0, 65, 45
1, 84061, Note_off_c, 0, 65, 49
1, 84064, Note_off_c, 0, 69, 55
1, 84070, Note_on_c, 0, 71, 71
1, 84124, Note_off_c, 0, 71, 59
1, 84133, Note_on_c, 0, 66, 84
1, 84179, Note_off_c, 0, 66, 61
1, 84203, Note_on_c, 0, 72, 63
1, 84252, Note_on_c, 0, 68, 67
1, 84252, Note_off_c, 0, 72, 60
1, 84303, Note_off_c, 0, 68, 61
1, 84340, Note_on_c, 0, 63, 75
1, 84341, Control_c, 0, 64, 103
1, 84355, Control_c, 0, 64, 96
1, 84370, Control_c, 0, 64, 90
1, 84385, Control_c, 0, 64, 87
1, 84398, Note_on_c, 0, 68, 65
1, 84400, Control_c, 0, 64, 86
1, 84447, Note_on_c, 0, 64, 55
1, 84470, Note_off_c, 0, 68, 56
1, 84489, Note_on_c, 0, 70, 72
1, 84525, Note_off_c, 0, 64, 59
1, 84541, Control_c, 0, 64, 85
1, 84541, Note_off_c, 0, 63, 47
1, 84555, Control_c, 0, 64, 81
1, 84563, Note_off_c, 0, 70, 60
1, 84570, Control_c, 0, 64, 74
1, 84575, Note_on_c, 0, 65, 69
1, 84585, Control_c, 0, 64, 68
1, 84599, Control_c, 0, 64, 64
1, 84629, Control_c, 0, 64, 65
1, 84644, Control_c, 0, 64, 68
1, 84654, Note_on_c, 0, 71, 67
1, 84659, Control_c, 0, 64, 73
1, 84673, Control_c, 0, 64, 77
1, 84688, Control_c, 0, 64, 79
1, 84703, Control_c, 0, 64, 81
1, 84706, Note_off_c, 0, 65, 51
1, 84717, Note_on_c, 0, 67, 64
1, 84718, Control_c, 0, 64, 82
1, 84734, Control_c, 0, 64, 84
1, 84749, Control_c, 0, 64, 86
1, 84764, Control_c, 0, 64, 87
1, 84772, Note_off_c, 0, 67, 62
1, 84774, Note_off_c, 0, 71, 34
1, 84793, Control_c, 0, 64, 86
1, 84806, Note_on_c, 0, 63, 66
1, 84808, Control_c, 0, 64, 86
1, 84823, Control_c, 0, 64, 84
1, 84838, Control_c, 0, 64, 81
1, 84852, Control_c, 0, 64, 80
1, 84879, Note_on_c, 0, 68, 58
1, 84944, Note_on_c, 0, 64, 50
1, 84946, Note_off_c, 0, 68, 57
1, 84956, Control_c, 0, 64, 80
1, 84970, Control_c, 0, 64, 81
1, 84984, Note_on_c, 0, 70, 56
1, 84985, Control_c, 0, 64, 82
1, 85003, Note_off_c, 0, 64, 49
1, 85030, Control_c, 0, 64, 81
1, 85045, Control_c, 0, 64, 76
1, 85048, Note_off_c, 0, 63, 58
1, 85060, Control_c, 0, 64, 69
1, 85072, Note_off_c, 0, 70, 38
1, 85073, Note_on_c, 0, 65, 51
1, 85075, Control_c, 0, 64, 61
1, 85090, Control_c, 0, 64, 58
1, 85119, Control_c, 0, 64, 61
1, 85134, Control_c, 0, 64, 64
1, 85140, Note_on_c, 0, 72, 52
1, 85149, Control_c, 0, 64, 68
1, 85164, Control_c, 0, 64, 72
1, 85178, Control_c, 0, 64, 74
1, 85193, Control_c, 0, 64, 75
1, 85208, Control_c, 0, 64, 76
1, 85214, Note_off_c, 0, 72, 54
1, 85222, Control_c, 0, 64, 77
1, 85231, Note_on_c, 0, 67, 53
1, 85237, Control_c, 0, 64, 78
1, 85260, Control_c, 0, 64, 79
1, 85274, Control_c, 0, 64, 80
1, 85289, Control_c, 0, 64, 81
1, 85298, Note_off_c, 0, 67, 58
1, 85336, Note_on_c, 0, 62, 55
1, 85349, Control_c, 0, 64, 79
1, 85364, Control_c, 0, 64, 73
1, 85378, Control_c, 0, 64, 65
1, 85379, Note_off_c, 0, 65, 38
1, 85393, Control_c, 0, 64, 58
1, 85408, Control_c, 0, 64, 53
1, 85422, Control_c, 0, 64, 51
1, 85424, Note_on_c, 0, 68, 55
1, 85436, Control_c, 0, 64, 51
1, 85451, Control_c, 0, 64, 53
1, 85466, Control_c, 0, 64, 57
1, 85481, Control_c, 0, 64, 60
1, 85495, Control_c, 0, 64, 63
1, 85497, Note_off_c, 0, 68, 57
1, 85504, Note_on_c, 0, 64, 43
1, 85510, Control_c, 0, 64, 65
1, 85526, Control_c, 0, 64, 68
1, 85541, Control_c, 0, 64, 69
1, 85546, Note_on_c, 0, 70, 52
1, 85556, Control_c, 0, 64, 71
1, 85567, Note_off_c, 0, 64, 47
1, 85586, Control_c, 0, 64, 70
1, 85600, Control_c, 0, 64, 69
1, 85615, Control_c, 0, 64, 67
1, 85630, Control_c, 0, 64, 65
1, 85644, Note_on_c, 0, 65, 43
1, 85644, Control_c, 0, 64, 64
1, 85659, Control_c, 0, 64, 65
1, 85668, Note_off_c, 0, 70, 36
1, 85674, Control_c, 0, 64, 66
1, 85689, Control_c, 0, 64, 69
1, 85704, Control_c, 0, 64, 71
1, 85707, Note_off_c, 0, 62, 36
1, 85719, Control_c, 0, 64, 74
1, 85734, Control_c, 0, 64, 75
1, 85735, Note_on_c, 0, 72, 49
1, 85748, Control_c, 0, 64, 76
1, 85763, Control_c, 0, 64, 76
1, 85778, Control_c, 0, 64, 77
1, 85793, Control_c, 0, 64, 77
1, 85808, Control_c, 0, 64, 78
1, 85815, Note_off_c, 0, 72, 46
1, 85818, Note_on_c, 0, 67, 49
1, 85823, Control_c, 0, 64, 79
1, 85837, Control_c, 0, 64, 80
1, 85852, Control_c, 0, 64, 81
1, 85867, Control_c, 0, 64, 81
1, 85877, Note_off_c, 0, 67, 57
1, 85902, Note_on_c, 0, 62, 55
1, 86000, Note_off_c, 0, 65, 32
1, 86026, Note_on_c, 0, 68, 47
1, 86067, Control_c, 0, 64, 82
1, 86091, Note_on_c, 0, 64, 40
1, 86097, Control_c, 0, 64, 83
1, 86112, Note_off_c, 0, 68, 38
1, 86112, Control_c, 0, 64, 84
1, 86126, Control_c, 0, 64, 84
1, 86141, Control_c, 0, 64, 86
1, 86156, Note_on_c, 0, 70, 47
1, 86156, Control_c, 0, 64, 86
1, 86171, Control_c, 0, 64, 87
1, 86186, Note_off_c, 0, 64, 36
1, 86186, Control_c, 0, 64, 87
1, 86200, Control_c, 0, 64, 88
1, 86215, Control_c, 0, 64, 88
1, 86230, Control_c, 0, 64, 89
1, 86244, Control_c, 0, 64, 89
1, 86274, Control_c, 0, 64, 90
1, 86275, Note_on_c, 0, 65, 35
1, 86304, Control_c, 0, 64, 90
1, 86335, Control_c, 0, 64, 91
1, 86367, Note_off_c, 0, 62, 49
1, 86407, Note_off_c, 0, 70, 40
1, 86427, Note_on_c, 0, 72, 44
1, 86541, Note_on_c, 0, 67, 45
1, 86543, Note_off_c, 0, 72, 34
1, 86681, Note_off_c, 0, 67, 36
1, 86684, Note_on_c, 0, 62, 43
1, 86845, Control_c, 0, 64, 90
1, 86866, Note_off_c, 0, 65, 36
1, 86879, Note_on_c, 0, 68, 49
1, 86935, Control_c, 0, 64, 90
1, 86944, Note_on_c, 0, 64, 44
1, 86994, Control_c, 0, 64, 89
1, 87017, Note_off_c, 0, 68, 27
1, 87039, Control_c, 0, 64, 89
1, 87055, Note_on_c, 0, 70, 42
1, 87083, Control_c, 0, 64, 88
1, 87096, Note_off_c, 0, 64, 35
1, 87129, Control_c, 0, 64, 88
1, 87203, Control_c, 0, 64, 87
1, 87277, Control_c, 0, 64, 87
1, 87380, Control_c, 0, 64, 86
1, 87427, Note_on_c, 0, 65, 31
1, 87439, Control_c, 0, 64, 86
1, 87506, Control_c, 0, 64, 85
1, 87536, Control_c, 0, 64, 85
1, 87565, Control_c, 0, 64, 84
1, 87624, Control_c, 0, 64, 84
1, 87669, Control_c, 0, 64, 83
1, 87698, Control_c, 0, 64, 83
1, 87758, Control_c, 0, 64, 82
1, 87802, Control_c, 0, 64, 82
1, 87847, Control_c, 0, 64, 81
1, 87891, Control_c, 0, 64, 81
1, 87915, Note_on_c, 0, 71, 33
1, 87922, Control_c, 0, 64, 80
1, 87951, Control_c, 0, 64, 80
1, 87981, Control_c, 0, 64, 79
1, 88011, Control_c, 0, 64, 79
1, 88040, Control_c, 0, 64, 78
1, 88051, Note_off_c, 0, 70, 39
1, 88070, Control_c, 0, 64, 78
1, 88100, Control_c, 0, 64, 77
1, 88129, Control_c, 0, 64, 77
1, 88159, Control_c, 0, 64, 76
1, 88188, Control_c, 0, 64, 76
1, 88218, Control_c, 0, 64, 75
1, 88270, Control_c, 0, 64, 75
1, 88285, Control_c, 0, 64, 74
1, 88314, Control_c, 0, 64, 74
1, 88344, Control_c, 0, 64, 73
1, 88359, Control_c, 0, 64, 73
1, 88374, Control_c, 0, 64, 72
1, 88388, Control_c, 0, 64, 72
1, 88403, Control_c, 0, 64, 71
1, 88418, Control_c, 0, 64, 71
1, 88422, Note_on_c, 0, 67, 30
1, 88433, Control_c, 0, 64, 70
1, 88447, Control_c, 0, 64, 69
1, 88462, Control_c, 0, 64, 68
1, 88477, Control_c, 0, 64, 66
1, 88492, Control_c, 0, 64, 65
1, 88507, Control_c, 0, 64, 64
1, 88521, Control_c, 0, 64, 63
1, 88536, Control_c, 0, 64, 63
1, 88551, Control_c, 0, 64, 62
1, 88566, Control_c, 0, 64, 61
1, 88581, Control_c, 0, 64, 60
1, 88595, Control_c, 0, 64, 60
1, 88610, Control_c, 0, 64, 59
1, 88625, Control_c, 0, 64, 59
1, 88685, Control_c, 0, 64, 58
1, 88700, Control_c, 0, 64, 58
1, 88715, Control_c, 0, 64, 57
1, 88789, Control_c, 0, 64, 58
1, 88804, Control_c, 0, 64, 58
1, 88819, Control_c, 0, 64, 59
1, 88834, Control_c, 0, 64, 60
1, 88849, Control_c, 0, 64, 61
1, 88863, Control_c, 0, 64, 63
1, 88878, Control_c, 0, 64, 64
1, 88893, Control_c, 0, 64, 66
1, 88908, Control_c, 0, 64, 67
1, 88923, Control_c, 0, 64, 68
1, 88937, Control_c, 0, 64, 69
1, 88967, Control_c, 0, 64, 69
1, 88982, Control_c, 0, 64, 70
1, 89004, Control_c, 0, 64, 71
1, 89018, Control_c, 0, 64, 72
1, 89033, Control_c, 0, 64, 74
1, 89048, Control_c, 0, 64, 76
1, 89063, Control_c, 0, 64, 78
1, 89078, Control_c, 0, 64, 81
1, 89093, Control_c, 0, 64, 85
1, 89108, Control_c, 0, 64, 89
1, 89123, Control_c, 0, 64, 94
1, 89138, Control_c, 0, 64, 99
1, 89152, Control_c, 0, 64, 107
1, 89167, Control_c, 0, 64, 118
1, 89182, Control_c, 0, 64, 127
1, 89198, Note_off_c, 0, 65, 34
1, 89214, Note_off_c, 0, 62, 38
1, 89253, Note_off_c, 0, 67, 38
1, 89283, Note_off_c, 0, 71, 36
1, 90211, Control_c, 0, 64, 111
1, 90226, Control_c, 0, 64, 104
1, 90241, Control_c, 0, 64, 99
1, 90256, Control_c, 0, 64, 94
1, 90270, Control_c, 0, 64, 90
1, 90270, Control_c, 0, 66, 0
1, 90285, Control_c, 0, 64, 85
1, 90300, Control_c, 0, 64, 78
1, 90315, Control_c, 0, 64, 69
1, 90330, Control_c, 0, 64, 63
1, 90345, Control_c, 0, 64, 57
1, 90360, Control_c, 0, 64, 54
1, 90375, Control_c, 0, 64, 51
1, 90390, Control_c, 0, 64, 49
1, 90405, Control_c, 0, 64, 47
1, 90420, Control_c, 0, 64, 45
1, 90434, Control_c, 0, 64, 44
1, 90449, Control_c, 0, 64, 43
1, 90464, Control_c, 0, 64, 42
1, 90479, Control_c, 0, 64, 41
1, 90501, Control_c, 0, 64, 41
1, 90515, Control_c, 0, 64, 40
1, 90530, Control_c, 0, 64, 39
1, 90545, Control_c, 0, 64, 38
1, 90560, Control_c, 0, 64, 37
1, 90575, Control_c, 0, 64, 36
1, 90589, Control_c, 0, 64, 35
1, 90604, Control_c, 0, 64, 34
1, 90619, Control_c, 0, 64, 32
1, 90634, Control_c, 0, 64, 30
1, 90649, Control_c, 0, 64, 0
1, 91251, Control_c, 0, 67, 42
1, 91265, Control_c, 0, 67, 59
1, 91280, Control_c, 0, 67, 75
1, 91295, Control_c, 0, 67, 90
1, 91310, Control_c, 0, 67, 105
1, 91325, Control_c, 0, 67, 120
1, 91339, Control_c, 0, 67, 127
1, 91497, Note_on_c, 0, 60, 37
1, 91735, Note_on_c, 0, 32, 36
1, 91804, Note_on_c, 0, 65, 49
1, 91835, Note_off_c, 0, 60, 38
1, 91933, Control_c, 0, 64, 42
1, 91948, Control_c, 0, 64, 57
1, 91962, Control_c, 0, 64, 62
1, 91984, Control_c, 0, 64, 65
1, 91999, Control_c, 0, 64, 67
1, 92014, Control_c, 0, 64, 70
1, 92029, Control_c, 0, 64, 73
1, 92044, Control_c, 0, 64, 77
1, 92059, Control_c, 0, 64, 81
1, 92065, Note_off_c, 0, 32, 45
1, 92074, Control_c, 0, 64, 84
1, 92088, Control_c, 0, 64, 88
1, 92103, Control_c, 0, 64, 93
1, 92118, Control_c, 0, 64, 99
1, 92133, Control_c, 0, 64, 107
1, 92148, Control_c, 0, 64, 119
1, 92162, Control_c, 0, 64, 127
1, 92329, Note_on_c, 0, 51, 34
1, 92584, Note_on_c, 0, 56, 31
1, 92691, Note_off_c, 0, 51, 31
1, 92842, Note_on_c, 0, 60, 32
1, 92860, Note_off_c, 0, 56, 39
1, 92971, Note_off_c, 0, 65, 61
1, 93070, Note_off_c, 0, 60, 42
1, 93081, Note_on_c, 0, 56, 34
1, 93308, Note_off_c, 0, 56, 38
1, 93311, Note_on_c, 0, 51, 41
1, 93377, Note_on_c, 0, 59, 55
1, 93473, Note_off_c, 0, 59, 57
1, 93527, Note_on_c, 0, 70, 65
1, 93541, Control_c, 0, 64, 118
1, 93556, Control_c, 0, 64, 110
1, 93571, Control_c, 0, 64, 104
1, 93586, Control_c, 0, 64, 99
1, 93601, Control_c, 0, 64, 95
1, 93615, Control_c, 0, 64, 91
1, 93630, Control_c, 0, 64, 88
1, 93645, Control_c, 0, 64, 84
1, 93660, Control_c, 0, 64, 81
1, 93669, Note_on_c, 0, 68, 64
1, 93675, Control_c, 0, 64, 76
1, 93690, Control_c, 0, 64, 70
1, 93695, Note_off_c, 0, 70, 39
1, 93696, Note_on_c, 0, 44, 39
1, 93704, Control_c, 0, 64, 63
1, 93719, Control_c, 0, 64, 55
1, 93734, Control_c, 0, 64, 47
1, 93749, Control_c, 0, 64, 38
1, 93751, Note_off_c, 0, 51, 32
1, 93764, Control_c, 0, 64, 29
1, 93779, Control_c, 0, 64, 0
1, 93897, Control_c, 0, 64, 39
1, 93912, Control_c, 0, 64, 51
1, 93926, Control_c, 0, 64, 60
1, 93940, Note_on_c, 0, 49, 27
1, 93941, Control_c, 0, 64, 63
1, 93956, Control_c, 0, 64, 65
1, 93971, Control_c, 0, 64, 66
1, 93985, Control_c, 0, 64, 68
1, 94000, Control_c, 0, 64, 71
1, 94015, Control_c, 0, 64, 73
1, 94030, Control_c, 0, 64, 74
1, 94045, Control_c, 0, 64, 76
1, 94059, Control_c, 0, 64, 78
1, 94074, Control_c, 0, 64, 80
1, 94089, Control_c, 0, 64, 82
1, 94104, Control_c, 0, 64, 83
1, 94119, Control_c, 0, 64, 84
1, 94134, Control_c, 0, 64, 85
1, 94143, Note_off_c, 0, 44, 29
1, 94149, Control_c, 0, 64, 85
1, 94168, Note_on_c, 0, 55, 36
1, 94178, Control_c, 0, 64, 86
1, 94414, Note_off_c, 0, 55, 34
1, 94416, Note_on_c, 0, 59, 40
1, 94485, Note_off_c, 0, 49, 14
1, 94649, Note_on_c, 0, 55, 36
1, 94674, Note_off_c, 0, 59, 40
1, 94896, Note_on_c, 0, 49, 37
1, 94928, Note_off_c, 0, 55, 35
1, 95067, Control_c, 0, 64, 85
1, 95082, Control_c, 0, 64, 84
1, 95097, Control_c, 0, 64, 80
1, 95112, Control_c, 0, 64, 73
1, 95127, Control_c, 0, 64, 65
1, 95129, Note_on_c, 0, 44, 37
1, 95142, Control_c, 0, 64, 59
1, 95157, Control_c, 0, 64, 56
1, 95168, Note_off_c, 0, 49, 36
1, 95172, Control_c, 0, 64, 55
1, 95186, Control_c, 0, 64, 56
1, 95201, Control_c, 0, 64, 58
1, 95216, Control_c, 0, 64, 59
1, 95231, Control_c, 0, 64, 61
1, 95237, Note_off_c, 0, 68, 53
1, 95239, Note_on_c, 0, 73, 47
1, 95246, Control_c, 0, 64, 64
1, 95260, Control_c, 0, 64, 66
1, 95275, Control_c, 0, 64, 68
1, 95290, Control_c, 0, 64, 70
1, 95305, Control_c, 0, 64, 71
1, 95320, Control_c, 0, 64, 73
1, 95335, Control_c, 0, 64, 74
1, 95350, Control_c, 0, 64, 76
1, 95364, Control_c, 0, 64, 78
1, 95379, Control_c, 0, 64, 79
1, 95383, Note_off_c, 0, 73, 60
1, 95394, Control_c, 0, 64, 81
1, 95409, Control_c, 0, 64, 82
1, 95413, Note_on_c, 0, 49, 35
1, 95424, Control_c, 0, 64, 84
1, 95426, Note_on_c, 0, 67, 55
1, 95438, Control_c, 0, 64, 85
1, 95453, Control_c, 0, 64, 86
1, 95468, Control_c, 0, 64, 87
1, 95469, Note_off_c, 0, 67, 56
1, 95483, Control_c, 0, 64, 88
1, 95498, Control_c, 0, 64, 89
1, 95527, Control_c, 0, 64, 89
1, 95544, Note_on_c, 0, 78, 52
1, 95545, Note_off_c, 0, 44, 26
1, 95612, Note_off_c, 0, 78, 56
1, 95624, Note_on_c, 0, 76, 62
1, 95665, Note_on_c, 0, 55, 34
1, 95665, Note_off_c, 0, 76, 61
1, 95708, Note_on_c, 0, 81, 66
1, 95744, Note_off_c, 0, 81, 63
1, 95776, Note_on_c, 0, 75, 69
1, 95818, Note_off_c, 0, 75, 60
1, 95842, Note_off_c, 0, 55, 41
1, 95851, Note_on_c, 0, 86, 75
1, 95851, Note_on_c, 0, 59, 43
1, 95863, Note_off_c, 0, 49, 32
1, 95887, Note_off_c, 0, 86, 59
1, 95927, Note_on_c, 0, 79, 63
1, 95958, Note_off_c, 0, 79, 60
1, 95964, Control_c, 0, 64, 89
1, 96006, Note_off_c, 0, 59, 53
1, 96007, Note_on_c, 0, 90, 69
1, 96009, Control_c, 0, 64, 88
1, 96039, Control_c, 0, 64, 88
1, 96067, Note_off_c, 0, 90, 53
1, 96068, Control_c, 0, 64, 87
1, 96070, Note_on_c, 0, 55, 14
1, 96083, Control_c, 0, 64, 87
1, 96092, Note_on_c, 0, 88, 73
1, 96113, Control_c, 0, 64, 86
1, 96127, Control_c, 0, 64, 86
1, 96145, Note_off_c, 0, 88, 61
1, 96157, Control_c, 0, 64, 85
1, 96172, Control_c, 0, 64, 85
1, 96182, Note_on_c, 0, 93, 76
1, 96186, Control_c, 0, 64, 84
1, 96201, Control_c, 0, 64, 84
1, 96216, Control_c, 0, 64, 83
1, 96231, Control_c, 0, 64, 83
1, 96246, Note_off_c, 0, 93, 61
1, 96246, Control_c, 0, 64, 82
1, 96260, Control_c, 0, 64, 82
1, 96287, Note_on_c, 0, 87, 71
1, 96290, Control_c, 0, 64, 81
1, 96305, Control_c, 0, 64, 81
1, 96319, Note_on_c, 0, 49, 39
1, 96320, Control_c, 0, 64, 80
1, 96334, Control_c, 0, 64, 80
1, 96336, Note_off_c, 0, 55, 40
1, 96364, Control_c, 0, 64, 79
1, 96393, Control_c, 0, 64, 79
1, 96423, Control_c, 0, 64, 78
1, 96438, Control_c, 0, 64, 78
1, 96441, Note_on_c, 0, 98, 68
1, 96443, Note_off_c, 0, 87, 59
1, 96453, Control_c, 0, 64, 77
1, 96468, Control_c, 0, 64, 77
1, 96505, Control_c, 0, 64, 76
1, 96520, Control_c, 0, 64, 76
1, 96549, Control_c, 0, 64, 75
1, 96564, Control_c, 0, 64, 75
1, 96593, Control_c, 0, 64, 74
1, 96597, Note_on_c, 0, 44, 40
1, 96623, Control_c, 0, 64, 74
1, 96635, Note_off_c, 0, 49, 37
1, 96653, Control_c, 0, 64, 73
1, 96683, Control_c, 0, 64, 73
1, 96699, Control_c, 0, 64, 72
1, 96714, Control_c, 0, 64, 70
1, 96724, Note_on_c, 0, 96, 78
1, 96729, Control_c, 0, 64, 66
1, 96744, Control_c, 0, 64, 61
1, 96758, Control_c, 0, 64, 54
1, 96771, Note_off_c, 0, 98, 59
1, 96773, Control_c, 0, 64, 48
1, 96788, Control_c, 0, 64, 42
1, 96802, Control_c, 0, 64, 38
1, 96817, Control_c, 0, 64, 37
1, 96847, Control_c, 0, 64, 38
1, 96862, Control_c, 0, 64, 43
1, 96876, Control_c, 0, 64, 52
1, 96891, Control_c, 0, 64, 60
1, 96906, Control_c, 0, 64, 65
1, 96921, Control_c, 0, 64, 69
1, 96936, Control_c, 0, 64, 74
1, 96951, Control_c, 0, 64, 78
1, 96966, Control_c, 0, 64, 82
1, 96975, Note_on_c, 0, 53, 45
1, 96980, Control_c, 0, 64, 87
1, 96995, Control_c, 0, 64, 92
1, 97010, Control_c, 0, 64, 99
1, 97010, Note_off_c, 0, 44, 38
1, 97025, Control_c, 0, 64, 108
1, 97040, Control_c, 0, 64, 127
1, 97202, Note_on_c, 0, 56, 51
1, 97247, Note_off_c, 0, 96, 66
1, 97255, Control_c, 0, 67, 120
1, 97270, Control_c, 0, 67, 105
1, 97284, Control_c, 0, 67, 91
1, 97299, Control_c, 0, 67, 80
1, 97314, Control_c, 0, 67, 70
1, 97328, Control_c, 0, 67, 61
1, 97335, Note_off_c, 0, 53, 31
1, 97343, Control_c, 0, 67, 51
1, 97358, Control_c, 0, 67, 41
1, 97373, Control_c, 0, 67, 0
1, 97472, Note_on_c, 0, 60, 46
1, 97486, Note_off_c, 0, 56, 51
1, 97715, Note_on_c, 0, 86, 78
1, 97727, Note_on_c, 0, 56, 42
1, 97824, Note_off_c, 0, 60, 32
1, 98068, Note_off_c, 0, 56, 37
1, 98073, Note_on_c, 0, 51, 40
1, 98080, Note_on_c, 0, 87, 75
1, 98131, Note_off_c, 0, 86, 62
1, 98350, Note_on_c, 0, 42, 47
1, 98366, Note_on_c, 0, 81, 74
1, 98374, Control_c, 0, 64, 106
1, 98389, Control_c, 0, 64, 85
1, 98404, Control_c, 0, 64, 73
1, 98419, Control_c, 0, 64, 62
1, 98422, Note_off_c, 0, 51, 35
1, 98434, Control_c, 0, 64, 50
1, 98448, Control_c, 0, 64, 39
1, 98463, Control_c, 0, 64, 31
1, 98492, Note_off_c, 0, 87, 52
1, 98493, Control_c, 0, 64, 33
1, 98508, Control_c, 0, 64, 39
1, 98522, Control_c, 0, 64, 47
1, 98537, Control_c, 0, 64, 56
1, 98552, Control_c, 0, 64, 62
1, 98566, Control_c, 0, 64, 65
1, 98581, Control_c, 0, 64, 68
1, 98596, Control_c, 0, 64, 70
1, 98611, Control_c, 0, 64, 73
1, 98626, Control_c, 0, 64, 76
1, 98641, Control_c, 0, 64, 78
1, 98656, Control_c, 0, 64, 81
1, 98668, Note_on_c, 0, 49, 43
1, 98671, Control_c, 0, 64, 83
1, 98686, Control_c, 0, 64, 87
1, 98700, Control_c, 0, 64, 90
1, 98722, Control_c, 0, 64, 93
1, 98737, Control_c, 0, 64, 96
1, 98752, Control_c, 0, 64, 98
1, 98766, Note_off_c, 0, 42, 35
1, 98781, Control_c, 0, 64, 100
1, 98898, Note_off_c, 0, 49, 56
1, 98921, Note_on_c, 0, 76, 72
1, 98930, Note_on_c, 0, 57, 46
1, 98992, Note_off_c, 0, 81, 62
1, 99133, Note_off_c, 0, 57, 56
1, 99147, Note_on_c, 0, 61, 52
1, 99372, Note_off_c, 0, 61, 59
1, 99379, Note_on_c, 0, 78, 76
1, 99404, Note_on_c, 0, 57, 46
1, 99417, Note_off_c, 0, 76, 60
1, 99590, Note_off_c, 0, 57, 38
1, 99621, Note_on_c, 0, 79, 77
1, 99640, Note_on_c, 0, 49, 51
1, 99669, Note_off_c, 0, 78, 60
1, 99866, Note_on_c, 0, 42, 48
1, 99902, Control_c, 0, 64, 97
1, 99917, Control_c, 0, 64, 92
1, 99919, Note_on_c, 0, 73, 78
1, 99932, Control_c, 0, 64, 85
1, 99941, Note_off_c, 0, 49, 30
1, 99946, Control_c, 0, 64, 77
1, 99961, Control_c, 0, 64, 68
1, 99970, Note_off_c, 0, 79, 63
1, 99976, Control_c, 0, 64, 60
1, 99991, Control_c, 0, 64, 52
1, 100006, Control_c, 0, 64, 49
1, 100035, Control_c, 0, 64, 51
1, 100050, Control_c, 0, 64, 56
1, 100065, Control_c, 0, 64, 60
1, 100080, Control_c, 0, 64, 65
1, 100094, Control_c, 0, 64, 69
1, 100109, Control_c, 0, 64, 75
1, 100124, Control_c, 0, 64, 78
1, 100139, Control_c, 0, 64, 81
1, 100140, Note_off_c, 0, 42, 61
1, 100153, Control_c, 0, 64, 84
1, 100168, Control_c, 0, 64, 88
1, 100170, Note_on_c, 0, 52, 52
1, 100183, Control_c, 0, 64, 91
1, 100198, Control_c, 0, 64, 95
1, 100213, Control_c, 0, 64, 98
1, 100235, Control_c, 0, 64, 100
1, 100265, Control_c, 0, 64, 104
1, 100319, Note_off_c, 0, 52, 37
1, 100385, Note_on_c, 0, 58, 50
1, 100457, Control_c, 0, 67, 43
1, 100472, Control_c, 0, 67, 55
1, 100487, Control_c, 0, 67, 66
1, 100501, Control_c, 0, 67, 73
1, 100516, Control_c, 0, 67, 79
1, 100531, Control_c, 0, 67, 86
1, 100546, Control_c, 0, 67, 90
1, 100561, Control_c, 0, 67, 92
1, 100605, Control_c, 0, 67, 92
1, 100645, Note_on_c, 0, 61, 45
1, 100650, Control_c, 0, 64, 97
1, 100650, Control_c, 0, 67, 93
1, 100650, Note_on_c, 0, 68, 61
1, 100665, Control_c, 0, 64, 90
1, 100675, Note_off_c, 0, 58, 42
1, 100680, Control_c, 0, 64, 80
1, 100680, Control_c, 0, 67, 94
1, 100695, Control_c, 0, 64, 71
1, 100700, Note_off_c, 0, 73, 60
1, 100710, Control_c, 0, 64, 62
1, 100724, Control_c, 0, 64, 54
1, 100739, Control_c, 0, 64, 50
1, 100754, Control_c, 0, 64, 49
1, 100769, Control_c, 0, 64, 50
1, 100784, Control_c, 0, 64, 52
1, 100799, Control_c, 0, 64, 55
1, 100814, Control_c, 0, 64, 59
1, 100829, Control_c, 0, 64, 62
1, 100843, Control_c, 0, 64, 65
1, 100858, Control_c, 0, 64, 67
1, 100873, Control_c, 0, 64, 70
1, 100888, Control_c, 0, 64, 72
1, 100903, Control_c, 0, 64, 74
1, 100903, Control_c, 0, 67, 94
1, 100917, Control_c, 0, 64, 75
1, 100917, Control_c, 0, 67, 95
1, 100932, Control_c, 0, 64, 77
1, 100947, Control_c, 0, 64, 78
1, 100947, Control_c, 0, 67, 96
1, 100962, Control_c, 0, 64, 79
1, 100984, Control_c, 0, 64, 81
1, 100999, Control_c, 0, 64, 82
1, 100999, Control_c, 0, 67, 98
1, 101014, Control_c, 0, 64, 83
1, 101014, Note_on_c, 0, 49, 37
1, 101029, Control_c, 0, 64, 84
1, 101029, Control_c, 0, 67, 109
1, 101043, Control_c, 0, 64, 85
1, 101043, Control_c, 0, 67, 127
1, 101058, Control_c, 0, 64, 85
1, 101073, Control_c, 0, 64, 86
1, 101081, Note_off_c, 0, 61, 37
1, 101117, Control_c, 0, 64, 86
1, 101158, Note_on_c, 0, 70, 67
1, 101188, Note_off_c, 0, 68, 60
1, 101305, Note_off_c, 0, 70, 39
1, 101321, Note_on_c, 0, 71, 58
1, 101328, Note_off_c, 0, 49, 58
1, 101336, Note_on_c, 0, 59, 45
1, 101368, Control_c, 0, 64, 86
1, 101396, Note_off_c, 0, 59, 63
1, 101428, Control_c, 0, 64, 85
1, 101431, Note_on_c, 0, 65, 72
1, 101431, Note_off_c, 0, 71, 56
1, 101443, Control_c, 0, 64, 85
1, 101473, Control_c, 0, 64, 84
1, 101488, Control_c, 0, 64, 84
1, 101503, Control_c, 0, 64, 83
1, 101518, Control_c, 0, 64, 82
1, 101533, Control_c, 0, 64, 82
1, 101547, Control_c, 0, 64, 80
1, 101562, Control_c, 0, 64, 78
1, 101568, Note_off_c, 0, 65, 54
1, 101577, Note_on_c, 0, 60, 62
1, 101577, Control_c, 0, 64, 75
1, 101592, Control_c, 0, 64, 71
1, 101607, Control_c, 0, 64, 65
1, 101611, Note_on_c, 0, 41, 43
1, 101622, Control_c, 0, 64, 58
1, 101637, Control_c, 0, 64, 49
1, 101652, Control_c, 0, 64, 41
1, 101666, Control_c, 0, 64, 33
1, 101681, Control_c, 0, 64, 0
1, 101792, Control_c, 0, 64, 33
1, 101807, Control_c, 0, 64, 41
1, 101821, Control_c, 0, 64, 52
1, 101836, Control_c, 0, 64, 60
1, 101845, Note_on_c, 0, 48, 48
1, 101851, Control_c, 0, 64, 64
1, 101866, Control_c, 0, 64, 66
1, 101881, Control_c, 0, 64, 67
1, 101896, Control_c, 0, 64, 69
1, 101911, Control_c, 0, 64, 72
1, 101925, Control_c, 0, 64, 75
1, 101940, Control_c, 0, 64, 77
1, 101955, Control_c, 0, 64, 80
1, 101970, Control_c, 0, 64, 83
1, 101985, Control_c, 0, 64, 85
1, 101999, Control_c, 0, 64, 87
1, 102014, Control_c, 0, 64, 89
1, 102029, Control_c, 0, 64, 90
1, 102044, Control_c, 0, 64, 92
1, 102059, Control_c, 0, 64, 93
1, 102073, Control_c, 0, 64, 95
1, 102077, Note_off_c, 0, 60, 48
1, 102093, Note_on_c, 0, 57, 40
1, 102103, Control_c, 0, 64, 97
1, 102147, Control_c, 0, 64, 99
1, 102236, Control_c, 0, 64, 101
1, 102245, Note_off_c, 0, 48, 33
1, 102281, Control_c, 0, 67, 125
1, 102296, Control_c, 0, 67, 122
1, 102311, Control_c, 0, 67, 119
1, 102326, Control_c, 0, 67, 117
1, 102340, Control_c, 0, 67, 115
1, 102342, Note_on_c, 0, 60, 42
1, 102355, Control_c, 0, 67, 111
1, 102370, Control_c, 0, 67, 102
1, 102385, Control_c, 0, 67, 90
1, 102400, Control_c, 0, 67, 80
1, 102415, Control_c, 0, 67, 71
1, 102422, Note_off_c, 0, 57, 35
1, 102430, Control_c, 0, 67, 65
1, 102444, Control_c, 0, 67, 60
1, 102467, Control_c, 0, 67, 58
1, 102482, Control_c, 0, 67, 56
1, 102496, Control_c, 0, 67, 56
1, 102594, Note_off_c, 0, 60, 38
1, 102615, Control_c, 0, 67, 56
1, 102629, Control_c, 0, 67, 57
1, 102641, Note_on_c, 0, 57, 42
1, 102644, Control_c, 0, 67, 58
1, 102659, Control_c, 0, 67, 58
1, 102674, Control_c, 0, 67, 60
1, 102689, Control_c, 0, 67, 60
1, 102704, Control_c, 0, 67, 62
1, 102719, Control_c, 0, 67, 62
1, 102742, Note_off_c, 0, 57, 51
1, 102744, Note_on_c, 0, 62, 54
1, 102748, Control_c, 0, 67, 63
1, 102808, Control_c, 0, 67, 64
1, 102834, Note_off_c, 0, 62, 36
1, 102837, Control_c, 0, 67, 64
1, 102853, Note_off_c, 0, 41, 51
1, 102855, Note_on_c, 0, 63, 64
1, 102861, Note_on_c, 0, 48, 47
1, 102867, Control_c, 0, 67, 65
1, 102885, Note_off_c, 0, 63, 67
1, 102911, Control_c, 0, 67, 66
1, 102940, Control_c, 0, 67, 66
1, 102945, Note_on_c, 0, 74, 72
1, 102955, Control_c, 0, 67, 67
1, 102983, Note_on_c, 0, 69, 68
1, 102985, Control_c, 0, 64, 99
1, 102985, Control_c, 0, 67, 68
1, 102993, Note_off_c, 0, 74, 57
1, 103000, Control_c, 0, 64, 97
1, 103000, Control_c, 0, 67, 68
1, 103014, Control_c, 0, 64, 93
1, 103029, Control_c, 0, 64, 87
1, 103029, Control_c, 0, 67, 69
1, 103044, Control_c, 0, 64, 79
1, 103045, Note_off_c, 0, 69, 62
1, 103059, Control_c, 0, 64, 70
1, 103060, Note_off_c, 0, 48, 49
1, 103073, Note_on_c, 0, 64, 71
1, 103073, Control_c, 0, 64, 59
1, 103090, Control_c, 0, 64, 47
1, 103094, Note_on_c, 0, 40, 48
1, 103105, Control_c, 0, 64, 31
1, 103119, Control_c, 0, 64, 0
1, 103163, Control_c, 0, 67, 68
1, 103178, Control_c, 0, 64, 37
1, 103193, Control_c, 0, 64, 48
1, 103193, Control_c, 0, 67, 68
1, 103216, Control_c, 0, 64, 58
1, 103216, Control_c, 0, 67, 67
1, 103231, Control_c, 0, 64, 63
1, 103245, Control_c, 0, 64, 65
1, 103245, Control_c, 0, 67, 66
1, 103260, Control_c, 0, 64, 66
1, 103260, Control_c, 0, 67, 66
1, 103275, Control_c, 0, 64, 68
1, 103275, Control_c, 0, 67, 65
1, 103290, Control_c, 0, 64, 70
1, 103290, Control_c, 0, 67, 64
1, 103305, Control_c, 0, 64, 72
1, 103305, Control_c, 0, 67, 64
1, 103318, Note_on_c, 0, 49, 61
1, 103319, Control_c, 0, 64, 74
1, 103334, Control_c, 0, 64, 76
1, 103334, Control_c, 0, 67, 63
1, 103335, Note_off_c, 0, 64, 57
1, 103349, Control_c, 0, 64, 78
1, 103349, Control_c, 0, 67, 62
1, 103363, Control_c, 0, 64, 79
1, 103363, Control_c, 0, 67, 62
1, 103378, Control_c, 0, 64, 81
1, 103378, Control_c, 0, 67, 61
1, 103393, Control_c, 0, 64, 83
1, 103393, Control_c, 0, 67, 60
1, 103396, Note_on_c, 0, 66, 78
1, 103409, Control_c, 0, 64, 85
1, 103409, Control_c, 0, 67, 59
1, 103424, Control_c, 0, 64, 86
1, 103424, Control_c, 0, 67, 58
1, 103433, Note_off_c, 0, 40, 37
1, 103438, Control_c, 0, 64, 87
1, 103438, Control_c, 0, 67, 57
1, 103453, Control_c, 0, 64, 88
1, 103453, Control_c, 0, 67, 56
1, 103463, Note_off_c, 0, 66, 62
1, 103468, Control_c, 0, 64, 89
1, 103468, Control_c, 0, 67, 55
1, 103483, Control_c, 0, 67, 54
1, 103491, Note_off_c, 0, 49, 63
1, 103498, Control_c, 0, 64, 89
1, 103498, Control_c, 0, 67, 53
1, 103512, Note_on_c, 0, 52, 52
1, 103512, Note_on_c, 0, 67, 74
1, 103527, Control_c, 0, 67, 52
1, 103536, Note_off_c, 0, 52, 56
1, 103565, Note_off_c, 0, 67, 62
1, 103571, Control_c, 0, 67, 53
1, 103586, Note_on_c, 0, 78, 76
1, 103586, Control_c, 0, 67, 55
1, 103601, Control_c, 0, 67, 58
1, 103616, Control_c, 0, 67, 60
1, 103622, Note_on_c, 0, 73, 84
1, 103631, Control_c, 0, 67, 62
1, 103640, Note_off_c, 0, 78, 61
1, 103646, Control_c, 0, 67, 62
1, 103661, Control_c, 0, 67, 63
1, 103701, Note_off_c, 0, 73, 63
1, 103705, Control_c, 0, 64, 87
1, 103709, Note_on_c, 0, 68, 84
1, 103720, Control_c, 0, 64, 79
1, 103720, Note_on_c, 0, 61, 66
1, 103735, Control_c, 0, 64, 68
1, 103750, Control_c, 0, 64, 57
1, 103764, Control_c, 0, 64, 49
1, 103764, Control_c, 0, 67, 62
1, 103779, Control_c, 0, 67, 61
1, 103794, Control_c, 0, 64, 53
1, 103794, Control_c, 0, 67, 60
1, 103809, Control_c, 0, 64, 60
1, 103809, Control_c, 0, 67, 60
1, 103824, Control_c, 0, 64, 65
1, 103824, Control_c, 0, 67, 59
1, 103838, Control_c, 0, 64, 69
1, 103838, Control_c, 0, 67, 58
1, 103853, Control_c, 0, 64, 73
1, 103853, Control_c, 0, 67, 57
1, 103868, Control_c, 0, 64, 77
1, 103868, Control_c, 0, 67, 56
1, 103883, Control_c, 0, 64, 80
1, 103883, Control_c, 0, 67, 55
1, 103899, Control_c, 0, 64, 84
1, 103899, Control_c, 0, 67, 54
1, 103914, Control_c, 0, 64, 88
1, 103914, Control_c, 0, 67, 53
1, 103929, Control_c, 0, 64, 95
1, 103929, Control_c, 0, 67, 52
1, 103943, Control_c, 0, 64, 102
1, 103943, Control_c, 0, 67, 51
1, 103964, Note_on_c, 0, 55, 58
1, 103965, Control_c, 0, 64, 111
1, 103965, Control_c, 0, 67, 50
1, 103980, Control_c, 0, 64, 127
1, 103980, Control_c, 0, 67, 49
1, 103995, Control_c, 0, 67, 48
1, 104009, Control_c, 0, 67, 38
1, 104024, Control_c, 0, 67, 0
1, 104060, Note_off_c, 0, 61, 38
1, 104065, Note_on_c, 0, 70, 86
1, 104068, Note_off_c, 0, 68, 61
1, 104240, Note_off_c, 0, 70, 63
1, 104257, Note_off_c, 0, 55, 36
1, 104261, Note_on_c, 0, 71, 86
1, 104282, Note_on_c, 0, 51, 56
1, 104317, Note_off_c, 0, 51, 61
1, 104394, Note_off_c, 0, 71, 56
1, 104394, Note_on_c, 0, 83, 78
1, 104415, Note_on_c, 0, 84, 43
1, 104439, Note_on_c, 0, 77, 76
1, 104443, Note_off_c, 0, 84, 59
1, 104473, Note_off_c, 0, 83, 65
1, 104564, Note_on_c, 0, 36, 71
1, 104624, Note_on_c, 0, 72, 79
1, 104631, Control_c, 0, 64, 101
1, 104636, Note_off_c, 0, 77, 63
1, 104646, Control_c, 0, 64, 82
1, 104660, Control_c, 0, 64, 67
1, 104675, Control_c, 0, 64, 51
1, 104691, Control_c, 0, 64, 0
1, 104817, Control_c, 0, 64, 32
1, 104832, Control_c, 0, 64, 52
1, 104847, Control_c, 0, 64, 63
1, 104862, Control_c, 0, 64, 67
1, 104877, Control_c, 0, 64, 72
1, 104877, Note_on_c, 0, 44, 64
1, 104891, Control_c, 0, 64, 77
1, 104906, Control_c, 0, 64, 84
1, 104921, Control_c, 0, 64, 96
1, 104936, Control_c, 0, 64, 112
1, 104945, Note_off_c, 0, 36, 34
1, 104950, Control_c, 0, 64, 127
1, 104974, Note_off_c, 0, 72, 65
1, 105063, Note_off_c, 0, 44, 62
1, 105085, Note_on_c, 0, 52, 71
1, 105324, Note_on_c, 0, 64, 76
1, 105582, Note_on_c, 0, 56, 79
1, 105732, Note_off_c, 0, 56, 62
1, 105770, Note_off_c, 0, 64, 64
1, 105817, Note_on_c, 0, 48, 82
1, 105839, Note_off_c, 0, 52, 55
1, 105935, Note_on_c, 0, 60, 85
1, 106098, Note_on_c, 0, 41, 72
1, 106112, Note_off_c, 0, 48, 62
1, 106144, Control_c, 0, 64, 124
1, 106158, Control_c, 0, 64, 111
1, 106173, Control_c, 0, 64, 102
1, 106188, Control_c, 0, 64, 92
1, 106191, Note_on_c, 0, 65, 89
1, 106210, Control_c, 0, 64, 81
1, 106225, Control_c, 0, 64, 68
1, 106232, Note_off_c, 0, 60, 65
1, 106239, Control_c, 0, 64, 51
1, 106254, Control_c, 0, 64, 0
1, 106403, Control_c, 0, 64, 44
1, 106418, Control_c, 0, 64, 57
1, 106433, Control_c, 0, 64, 63
1, 106445, Note_on_c, 0, 48, 70
1, 106448, Control_c, 0, 64, 67
1, 106463, Control_c, 0, 64, 70
1, 106478, Control_c, 0, 64, 72
1, 106493, Control_c, 0, 64, 75
1, 106507, Control_c, 0, 64, 79
1, 106522, Control_c, 0, 64, 82
1, 106537, Control_c, 0, 64, 86
1, 106552, Control_c, 0, 64, 90
1, 106567, Control_c, 0, 64, 93
1, 106582, Control_c, 0, 64, 96
1, 106596, Control_c, 0, 64, 99
1, 106611, Control_c, 0, 64, 102
1, 106626, Control_c, 0, 64, 106
1, 106641, Control_c, 0, 64, 111
1, 106656, Control_c, 0, 64, 118
1, 106664, Note_on_c, 0, 56, 73
1, 106670, Control_c, 0, 64, 127
1, 106701, Note_off_c, 0, 48, 39
1, 106888, Note_off_c, 0, 56, 57
1, 106890, Note_on_c, 0, 60, 69
1, 107012, Note_off_c, 0, 60, 62
1, 107101, Note_off_c, 0, 65, 56
1, 107120, Note_on_c, 0, 56, 58
1, 107202, Poly_aftertouch_c, 0, 43, 127
1, 107219, Note_off_c, 0, 56, 45
1, 107330, Note_on_c, 0, 48, 67
1, 107351, Poly_aftertouch_c, 0, 43, 0
1, 107388, Note_off_c, 0, 41, 50
1, 107392, Note_on_c, 0, 59, 84
1, 107449, Note_off_c, 0, 59, 63
1, 107478, Note_on_c, 0, 70, 87
1, 107553, Control_c, 0, 64, 120
1, 107568, Control_c, 0, 64, 104
1, 107583, Control_c, 0, 64, 89
1, 107588, Note_on_c, 0, 68, 86
1, 107592, Note_on_c, 0, 41, 69
1, 107598, Control_c, 0, 64, 73
1, 107601, Note_off_c, 0, 70, 52
1, 107602, Note_off_c, 0, 48, 56
1, 107612, Control_c, 0, 64, 60
1, 107627, Control_c, 0, 64, 42
1, 107642, Control_c, 0, 64, 0
1, 107753, Control_c, 0, 64, 36
1, 107768, Control_c, 0, 64, 52
1, 107783, Control_c, 0, 64, 62
1, 107798, Control_c, 0, 64, 65
1, 107812, Control_c, 0, 64, 68
1, 107827, Control_c, 0, 64, 70
1, 107842, Note_on_c, 0, 49, 55
1, 107842, Control_c, 0, 64, 74
1, 107857, Control_c, 0, 64, 77
1, 107871, Control_c, 0, 64, 80
1, 107887, Control_c, 0, 64, 82
1, 107900, Control_c, 0, 64, 84
1, 107915, Control_c, 0, 64, 87
1, 107930, Control_c, 0, 64, 89
1, 107945, Control_c, 0, 64, 90
1, 107959, Control_c, 0, 64, 92
1, 107974, Control_c, 0, 64, 94
1, 107989, Control_c, 0, 64, 96
1, 107991, Note_off_c, 0, 41, 34
1, 108019, Control_c, 0, 64, 99
1, 108037, Note_off_c, 0, 49, 61
1, 108044, Note_on_c, 0, 55, 63
1, 108063, Control_c, 0, 64, 101
1, 108277, Note_on_c, 0, 59, 66
1, 108303, Note_off_c, 0, 55, 52
1, 108483, Note_off_c, 0, 59, 63
1, 108508, Note_on_c, 0, 55, 62
1, 108717, Note_on_c, 0, 49, 65
1, 108812, Note_off_c, 0, 55, 29
1, 108931, Control_c, 0, 64, 94
1, 108946, Control_c, 0, 64, 84
1, 108950, Note_on_c, 0, 41, 68
1, 108961, Control_c, 0, 64, 71
1, 108976, Control_c, 0, 64, 59
1, 108990, Control_c, 0, 64, 45
1, 108991, Note_off_c, 0, 49, 58
1, 109005, Control_c, 0, 64, 39
1, 109020, Control_c, 0, 64, 40
1, 109035, Control_c, 0, 64, 47
1, 109049, Control_c, 0, 64, 55
1, 109064, Control_c, 0, 64, 61
1, 109079, Control_c, 0, 64, 64
1, 109094, Control_c, 0, 64, 68
1, 109108, Control_c, 0, 64, 71
1, 109123, Control_c, 0, 64, 74
1, 109138, Control_c, 0, 64, 77
1, 109153, Control_c, 0, 64, 80
1, 109168, Control_c, 0, 64, 83
1, 109182, Control_c, 0, 64, 86
1, 109197, Control_c, 0, 64, 89
1, 109199, Note_on_c, 0, 49, 59
1, 109220, Control_c, 0, 64, 91
1, 109235, Control_c, 0, 64, 93
1, 109250, Control_c, 0, 64, 94
1, 109264, Control_c, 0, 64, 95
1, 109279, Control_c, 0, 64, 95
1, 109288, Note_on_c, 0, 73, 81
1, 109294, Control_c, 0, 64, 96
1, 109360, Note_off_c, 0, 41, 32
1, 109361, Note_off_c, 0, 68, 52
1, 109500, Note_on_c, 0, 55, 48
1, 109507, Note_off_c, 0, 49, 61
1, 109572, Note_on_c, 0, 80, 84
1, 109589, Note_off_c, 0, 73, 60
1, 109727, Note_on_c, 0, 73, 81
1, 109773, Note_off_c, 0, 80, 58
1, 109825, Note_off_c, 0, 55, 45
1, 109834, Note_off_c, 0, 73, 62
1, 109859, Note_on_c, 0, 67, 80
1, 109868, Note_on_c, 0, 59, 55
1, 109887, Control_c, 0, 64, 95
1, 109902, Control_c, 0, 64, 94
1, 109917, Control_c, 0, 64, 92
1, 109931, Control_c, 0, 64, 91
1, 109946, Control_c, 0, 64, 89
1, 109968, Control_c, 0, 64, 88
1, 109983, Control_c, 0, 64, 87
1, 109986, Note_on_c, 0, 66, 81
1, 109992, Note_off_c, 0, 67, 36
1, 109998, Control_c, 0, 64, 86
1, 110013, Control_c, 0, 64, 85
1, 110028, Control_c, 0, 64, 85
1, 110034, Note_off_c, 0, 59, 59
1, 110043, Control_c, 0, 64, 84
1, 110057, Control_c, 0, 64, 83
1, 110072, Control_c, 0, 64, 82
1, 110087, Control_c, 0, 64, 80
1, 110088, Note_on_c, 0, 64, 78
1, 110091, Note_off_c, 0, 66, 63
1, 110096, Note_on_c, 0, 55, 56
1, 110102, Control_c, 0, 64, 77
1, 110117, Control_c, 0, 64, 73
1, 110131, Control_c, 0, 64, 68
1, 110147, Control_c, 0, 64, 64
1, 110162, Control_c, 0, 64, 60
1, 110177, Control_c, 0, 64, 58
1, 110177, Note_off_c, 0, 64, 63
1, 110180, Note_on_c, 0, 69, 80
1, 110192, Control_c, 0, 64, 57
1, 110263, Note_off_c, 0, 55, 48
1, 110275, Note_off_c, 0, 69, 60
1, 110280, Note_on_c, 0, 63, 81
1, 110287, Note_on_c, 0, 49, 54
1, 110311, Control_c, 0, 64, 58
1, 110355, Control_c, 0, 64, 58
1, 110368, Note_on_c, 0, 62, 76
1, 110383, Note_off_c, 0, 63, 59
1, 110415, Control_c, 0, 64, 58
1, 110429, Control_c, 0, 64, 57
1, 110444, Control_c, 0, 64, 54
1, 110458, Note_off_c, 0, 62, 63
1, 110459, Control_c, 0, 64, 48
1, 110461, Note_off_c, 0, 49, 63
1, 110474, Control_c, 0, 64, 33
1, 110488, Control_c, 0, 64, 0
1, 110492, Note_on_c, 0, 60, 76
1, 110493, Note_on_c, 0, 41, 67
1, 110548, Control_c, 0, 64, 34
1, 110562, Control_c, 0, 64, 50
1, 110577, Control_c, 0, 64, 62
1, 110592, Control_c, 0, 64, 66
1, 110607, Control_c, 0, 64, 68
1, 110613, Note_off_c, 0, 41, 61
1, 110621, Control_c, 0, 64, 69
1, 110636, Control_c, 0, 64, 70
1, 110651, Control_c, 0, 64, 71
1, 110666, Control_c, 0, 64, 72
1, 110681, Control_c, 0, 64, 73
1, 110703, Control_c, 0, 64, 73
1, 110718, Control_c, 0, 64, 74
1, 110743, Note_on_c, 0, 58, 70
1, 110957, Note_on_c, 0, 55, 64
1, 110982, Note_off_c, 0, 58, 58
1, 111191, Note_off_c, 0, 55, 62
1, 111192, Control_c, 0, 64, 72
1, 111202, Note_on_c, 0, 56, 57
1, 111207, Control_c, 0, 64, 69
1, 111222, Control_c, 0, 64, 63
1, 111237, Control_c, 0, 64, 56
1, 111251, Control_c, 0, 64, 53
1, 111266, Control_c, 0, 64, 52
1, 111281, Control_c, 0, 64, 52
1, 111296, Control_c, 0, 64, 54
1, 111310, Control_c, 0, 64, 57
1, 111325, Control_c, 0, 64, 59
1, 111340, Control_c, 0, 64, 61
1, 111355, Control_c, 0, 64, 62
1, 111370, Control_c, 0, 64, 63
1, 111384, Control_c, 0, 64, 64
1, 111429, Control_c, 0, 67, 48
1, 111444, Control_c, 0, 64, 64
1, 111444, Control_c, 0, 67, 58
1, 111466, Control_c, 0, 67, 66
1, 111481, Control_c, 0, 67, 73
1, 111496, Control_c, 0, 67, 79
1, 111510, Control_c, 0, 67, 86
1, 111525, Control_c, 0, 67, 93
1, 111530, Note_on_c, 0, 53, 46
1, 111540, Control_c, 0, 67, 102
1, 111555, Control_c, 0, 67, 111
1, 111570, Control_c, 0, 67, 120
1, 111584, Control_c, 0, 67, 127
1, 111599, Note_off_c, 0, 56, 31
1, 111629, Note_off_c, 0, 60, 64
1, 111630, Note_on_c, 0, 58, 66
1, 111673, Control_c, 0, 64, 64
1, 111813, Note_off_c, 0, 58, 63
1, 111833, Note_on_c, 0, 59, 60
1, 111839, Note_on_c, 0, 48, 48
1, 111842, Note_off_c, 0, 53, 38
1, 111965, Note_off_c, 0, 59, 39
1, 111990, Note_on_c, 0, 65, 65
1, 112219, Note_on_c, 0, 40, 40
1, 112230, Control_c, 0, 64, 63
1, 112246, Note_off_c, 0, 48, 33
1, 112259, Control_c, 0, 64, 63
1, 112274, Control_c, 0, 64, 62
1, 112289, Control_c, 0, 64, 62
1, 112304, Control_c, 0, 64, 60
1, 112311, Note_on_c, 0, 68, 62
1, 112319, Control_c, 0, 64, 58
1, 112333, Control_c, 0, 64, 56
1, 112348, Control_c, 0, 64, 54
1, 112353, Note_off_c, 0, 65, 61
1, 112363, Control_c, 0, 64, 51
1, 112378, Control_c, 0, 64, 48
1, 112393, Control_c, 0, 64, 43
1, 112407, Control_c, 0, 64, 36
1, 112422, Control_c, 0, 64, 29
1, 112437, Control_c, 0, 64, 0
1, 112526, Control_c, 0, 64, 31
1, 112541, Control_c, 0, 64, 38
1, 112556, Control_c, 0, 64, 46
1, 112571, Control_c, 0, 64, 55
1, 112586, Control_c, 0, 64, 60
1, 112600, Control_c, 0, 64, 63
1, 112615, Control_c, 0, 64, 64
1, 112630, Control_c, 0, 64, 65
1, 112644, Control_c, 0, 64, 67
1, 112654, Note_on_c, 0, 49, 41
1, 112659, Control_c, 0, 64, 69
1, 112675, Control_c, 0, 64, 71
1, 112690, Control_c, 0, 64, 73
1, 112705, Control_c, 0, 64, 75
1, 112720, Control_c, 0, 64, 76
1, 112735, Control_c, 0, 64, 78
1, 112749, Control_c, 0, 64, 80
1, 112764, Control_c, 0, 64, 82
1, 112772, Note_off_c, 0, 40, 38
1, 112779, Control_c, 0, 64, 83
1, 112794, Control_c, 0, 64, 84
1, 112809, Control_c, 0, 64, 85
1, 112823, Control_c, 0, 64, 86
1, 112838, Control_c, 0, 64, 86
1, 112853, Control_c, 0, 64, 87
1, 112868, Control_c, 0, 64, 87
1, 112882, Control_c, 0, 64, 88
1, 112897, Control_c, 0, 64, 89
1, 112912, Control_c, 0, 64, 89
1, 112916, Note_on_c, 0, 73, 67
1, 112927, Control_c, 0, 64, 90
1, 112936, Note_on_c, 0, 56, 43
1, 112964, Control_c, 0, 64, 91
1, 112968, Note_off_c, 0, 68, 57
1, 112979, Control_c, 0, 64, 92
1, 112985, Note_off_c, 0, 56, 44
1, 112994, Control_c, 0, 64, 92
1, 113009, Control_c, 0, 64, 93
1, 113017, Note_off_c, 0, 49, 23
1, 113024, Control_c, 0, 64, 95
1, 113038, Control_c, 0, 64, 96
1, 113068, Control_c, 0, 64, 98
1, 113097, Control_c, 0, 64, 100
1, 113127, Control_c, 0, 64, 102
1, 113157, Control_c, 0, 64, 104
1, 113184, Note_on_c, 0, 61, 52
1, 113217, Control_c, 0, 64, 106
1, 113231, Control_c, 0, 67, 121
1, 113246, Control_c, 0, 67, 115
1, 113261, Control_c, 0, 67, 107
1, 113275, Control_c, 0, 67, 96
1, 113290, Control_c, 0, 64, 108
1, 113290, Control_c, 0, 67, 87
1, 113305, Control_c, 0, 67, 78
1, 113320, Control_c, 0, 67, 71
1, 113335, Control_c, 0, 67, 65
1, 113349, Control_c, 0, 67, 60
1, 113364, Control_c, 0, 67, 56
1, 113379, Control_c, 0, 67, 54
1, 113394, Control_c, 0, 67, 53
1, 113396, Note_off_c, 0, 73, 58
1, 113402, Note_on_c, 0, 67, 72
1, 113408, Control_c, 0, 67, 53
1, 113411, Note_on_c, 0, 56, 38
1, 113423, Control_c, 0, 67, 52
1, 113427, Note_off_c, 0, 61, 61
1, 113564, Note_off_c, 0, 56, 36
1, 113602, Control_c, 0, 67, 53
1, 113617, Control_c, 0, 67, 53
1, 113632, Control_c, 0, 67, 54
1, 113637, Note_on_c, 0, 66, 74
1, 113647, Control_c, 0, 67, 55
1, 113660, Note_on_c, 0, 49, 50
1, 113662, Control_c, 0, 67, 56
1, 113668, Note_off_c, 0, 67, 57
1, 113677, Control_c, 0, 67, 56
1, 113728, Control_c, 0, 67, 57
1, 113739, Note_off_c, 0, 49, 61
1, 113758, Control_c, 0, 67, 58
1, 113787, Control_c, 0, 67, 58
1, 113832, Control_c, 0, 64, 106
1, 113846, Control_c, 0, 64, 104
1, 113861, Control_c, 0, 64, 100
1, 113876, Control_c, 0, 64, 94
1, 113876, Control_c, 0, 67, 59
1, 113891, Control_c, 0, 64, 82
1, 113900, Note_on_c, 0, 37, 49
1, 113902, Note_on_c, 0, 64, 66
1, 113906, Control_c, 0, 64, 72
1, 113921, Control_c, 0, 64, 61
1, 113923, Note_off_c, 0, 66, 62
1, 113936, Control_c, 0, 64, 48
1, 113951, Control_c, 0, 64, 32
1, 113951, Control_c, 0, 67, 60
1, 113966, Control_c, 0, 64, 0
1, 114069, Control_c, 0, 64, 37
1, 114084, Control_c, 0, 64, 47
1, 114098, Control_c, 0, 64, 55
1, 114113, Control_c, 0, 64, 59
1, 114128, Control_c, 0, 64, 61
1, 114143, Control_c, 0, 64, 63
1, 114153, Note_on_c, 0, 45, 41
1, 114158, Control_c, 0, 64, 64
1, 114158, Control_c, 0, 67, 60
1, 114172, Control_c, 0, 64, 66
1, 114187, Control_c, 0, 64, 68
1, 114202, Control_c, 0, 64, 69
1, 114217, Control_c, 0, 64, 71
1, 114231, Control_c, 0, 64, 72
1, 114246, Control_c, 0, 64, 72
1, 114261, Control_c, 0, 64, 73
1, 114277, Control_c, 0, 64, 74
1, 114307, Control_c, 0, 64, 74
1, 114336, Control_c, 0, 64, 75
1, 114351, Control_c, 0, 67, 61
1, 114366, Control_c, 0, 64, 75
1, 114384, Note_off_c, 0, 37, 31
1, 114435, Note_off_c, 0, 64, 62
1, 114447, Control_c, 0, 64, 76
1, 114457, Note_on_c, 0, 69, 59
1, 114466, Note_on_c, 0, 52, 34
1, 114492, Control_c, 0, 64, 76
1, 114516, Note_off_c, 0, 45, 35
1, 114521, Control_c, 0, 64, 77
1, 114536, Control_c, 0, 67, 62
1, 114551, Control_c, 0, 64, 77
1, 114566, Control_c, 0, 64, 78
1, 114581, Control_c, 0, 64, 78
1, 114596, Control_c, 0, 64, 79
1, 114596, Control_c, 0, 67, 62
1, 114610, Control_c, 0, 64, 79
1, 114625, Control_c, 0, 64, 80
1, 114654, Control_c, 0, 64, 80
1, 114684, Control_c, 0, 67, 63
1, 114714, Control_c, 0, 64, 81
1, 114722, Note_off_c, 0, 69, 50
1, 114743, Control_c, 0, 67, 64
1, 114746, Note_on_c, 0, 57, 49
1, 114788, Control_c, 0, 67, 64
1, 114802, Control_c, 0, 67, 65
1, 114817, Control_c, 0, 67, 66
1, 114832, Control_c, 0, 67, 66
1, 114833, Note_off_c, 0, 52, 38
1, 114846, Control_c, 0, 67, 67
1, 114861, Control_c, 0, 67, 68
1, 114876, Control_c, 0, 67, 68
1, 114891, Control_c, 0, 67, 69
1, 114906, Control_c, 0, 67, 70
1, 114920, Control_c, 0, 67, 70
1, 114950, Control_c, 0, 67, 71
1, 114994, Control_c, 0, 67, 71
1, 115068, Note_on_c, 0, 52, 36
1, 115078, Note_off_c, 0, 57, 57
1, 115083, Note_on_c, 0, 59, 68
1, 115114, Control_c, 0, 67, 72
1, 115129, Control_c, 0, 64, 80
1, 115143, Control_c, 0, 67, 73
1, 115225, Control_c, 0, 64, 80
1, 115255, Control_c, 0, 64, 79
1, 115299, Control_c, 0, 64, 79
1, 115329, Control_c, 0, 64, 78
1, 115358, Control_c, 0, 64, 78
1, 115373, Control_c, 0, 64, 77
1, 115388, Control_c, 0, 67, 73
1, 115403, Control_c, 0, 64, 77
1, 115407, Note_on_c, 0, 45, 36
1, 115417, Control_c, 0, 64, 76
1, 115432, Control_c, 0, 64, 76
1, 115447, Control_c, 0, 64, 75
1, 115462, Control_c, 0, 64, 74
1, 115476, Note_off_c, 0, 59, 60
1, 115477, Control_c, 0, 64, 73
1, 115481, Note_off_c, 0, 52, 30
1, 115484, Note_on_c, 0, 57, 70
1, 115492, Control_c, 0, 64, 73
1, 115507, Control_c, 0, 64, 72
1, 115522, Control_c, 0, 64, 71
1, 115581, Control_c, 0, 64, 71
1, 115605, Note_off_c, 0, 57, 62
1, 115625, Control_c, 0, 64, 70
1, 115640, Control_c, 0, 64, 69
1, 115644, Note_on_c, 0, 59, 60
1, 115655, Control_c, 0, 64, 68
1, 115669, Control_c, 0, 64, 65
1, 115683, Note_off_c, 0, 59, 64
1, 115684, Control_c, 0, 64, 61
1, 115689, Note_on_c, 0, 57, 71
1, 115699, Note_on_c, 0, 52, 38
1, 115699, Note_off_c, 0, 45, 56
1, 115699, Control_c, 0, 64, 57
1, 115714, Control_c, 0, 64, 53
1, 115729, Control_c, 0, 64, 51
1, 115729, Control_c, 0, 67, 74
1, 115743, Control_c, 0, 64, 50
1, 115743, Control_c, 0, 67, 75
1, 115758, Control_c, 0, 64, 49
1, 115758, Control_c, 0, 67, 75
1, 115773, Control_c, 0, 64, 49
1, 115788, Control_c, 0, 67, 76
1, 115802, Control_c, 0, 67, 77
1, 115832, Control_c, 0, 67, 77
1, 115862, Control_c, 0, 64, 49
1, 115878, Control_c, 0, 64, 51
1, 115892, Control_c, 0, 64, 54
1, 115907, Control_c, 0, 64, 57
1, 115922, Control_c, 0, 64, 59
1, 115937, Control_c, 0, 64, 61
1, 115960, Control_c, 0, 64, 63
1, 115974, Control_c, 0, 64, 64
1, 115982, Note_on_c, 0, 49, 41
1, 115989, Control_c, 0, 64, 65
1, 116004, Control_c, 0, 64, 66
1, 116019, Control_c, 0, 64, 66
1, 116034, Control_c, 0, 64, 67
1, 116063, Control_c, 0, 64, 67
1, 116078, Control_c, 0, 67, 78
1, 116122, Control_c, 0, 67, 79
1, 116167, Control_c, 0, 64, 67
1, 116167, Control_c, 0, 67, 79
1, 116181, Control_c, 0, 64, 65
1, 116195, Note_on_c, 0, 56, 64
1, 116196, Control_c, 0, 64, 63
1, 116202, Note_off_c, 0, 52, 44
1, 116211, Control_c, 0, 64, 61
1, 116216, Note_on_c, 0, 44, 35
1, 116225, Control_c, 0, 64, 60
1, 116228, Note_off_c, 0, 57, 61
1, 116240, Control_c, 0, 64, 61
1, 116270, Control_c, 0, 64, 62
1, 116285, Control_c, 0, 64, 63
1, 116300, Control_c, 0, 64, 64
1, 116300, Control_c, 0, 67, 79
1, 116315, Control_c, 0, 64, 66
1, 116330, Control_c, 0, 64, 66
1, 116344, Control_c, 0, 67, 78
1, 116363, Note_off_c, 0, 49, 35
1, 116374, Control_c, 0, 64, 64
1, 116389, Control_c, 0, 64, 61
1, 116389, Control_c, 0, 67, 77
1, 116404, Control_c, 0, 64, 55
1, 116404, Control_c, 0, 67, 77
1, 116418, Control_c, 0, 64, 51
1, 116432, Note_on_c, 0, 53, 47
1, 116433, Control_c, 0, 64, 49
1, 116433, Control_c, 0, 67, 76
1, 116448, Control_c, 0, 64, 50
1, 116448, Control_c, 0, 67, 75
1, 116463, Control_c, 0, 64, 52
1, 116463, Control_c, 0, 67, 75
1, 116478, Control_c, 0, 64, 57
1, 116478, Control_c, 0, 67, 74
1, 116492, Control_c, 0, 64, 61
1, 116492, Control_c, 0, 67, 73
1, 116507, Control_c, 0, 64, 64
1, 116507, Control_c, 0, 67, 72
1, 116522, Control_c, 0, 64, 67
1, 116522, Control_c, 0, 67, 71
1, 116537, Control_c, 0, 64, 70
1, 116537, Control_c, 0, 67, 70
1, 116552, Control_c, 0, 64, 72
1, 116552, Control_c, 0, 67, 70
1, 116566, Control_c, 0, 64, 74
1, 116566, Control_c, 0, 67, 69
1, 116569, Note_off_c, 0, 44, 35
1, 116581, Control_c, 0, 64, 75
1, 116596, Control_c, 0, 64, 77
1, 116596, Control_c, 0, 67, 68
1, 116611, Control_c, 0, 64, 78
1, 116611, Control_c, 0, 67, 68
1, 116625, Control_c, 0, 64, 80
1, 116625, Control_c, 0, 67, 67
1, 116640, Control_c, 0, 64, 81
1, 116655, Control_c, 0, 64, 82
1, 116655, Control_c, 0, 67, 66
1, 116671, Control_c, 0, 64, 83
1, 116671, Control_c, 0, 67, 66
1, 116683, Note_on_c, 0, 48, 62
1, 116686, Control_c, 0, 64, 83
1, 116686, Control_c, 0, 67, 64
1, 116708, Control_c, 0, 64, 84
1, 116708, Control_c, 0, 67, 64
1, 116723, Control_c, 0, 67, 63
1, 116753, Control_c, 0, 67, 62
1, 116768, Control_c, 0, 64, 84
1, 116768, Control_c, 0, 67, 62
1, 116776, Note_on_c, 0, 58, 77
1, 116783, Control_c, 0, 67, 61
1, 116797, Control_c, 0, 67, 60
1, 116809, Note_off_c, 0, 53, 33
1, 116842, Control_c, 0, 67, 60
1, 116871, Control_c, 0, 67, 59
1, 116902, Control_c, 0, 67, 58
1, 116914, Note_off_c, 0, 56, 49
1, 116919, Note_on_c, 0, 59, 76
1, 116920, Note_on_c, 0, 41, 43
1, 116931, Control_c, 0, 67, 58
1, 116955, Note_off_c, 0, 58, 62
1, 116961, Control_c, 0, 67, 57
1, 116968, Note_off_c, 0, 41, 60
1, 117014, Note_on_c, 0, 65, 78
1, 117017, Note_off_c, 0, 59, 63
1, 117049, Control_c, 0, 67, 58
1, 117079, Control_c, 0, 64, 83
1, 117094, Control_c, 0, 64, 78
1, 117094, Control_c, 0, 67, 58
1, 117109, Control_c, 0, 64, 69
1, 117113, Note_off_c, 0, 65, 62
1, 117123, Control_c, 0, 64, 58
1, 117128, Note_on_c, 0, 60, 73
1, 117136, Note_off_c, 0, 48, 63
1, 117138, Note_on_c, 0, 40, 58
1, 117138, Control_c, 0, 64, 42
1, 117153, Control_c, 0, 64, 0
1, 117242, Control_c, 0, 64, 40
1, 117257, Control_c, 0, 64, 55
1, 117271, Control_c, 0, 64, 62
1, 117286, Control_c, 0, 64, 64
1, 117286, Control_c, 0, 67, 58
1, 117301, Control_c, 0, 64, 65
1, 117316, Control_c, 0, 64, 66
1, 117331, Control_c, 0, 64, 68
1, 117331, Control_c, 0, 67, 57
1, 117346, Control_c, 0, 64, 70
1, 117346, Control_c, 0, 67, 56
1, 117360, Control_c, 0, 64, 72
1, 117360, Control_c, 0, 67, 56
1, 117362, Note_on_c, 0, 49, 59
1, 117364, Note_off_c, 0, 40, 37
1, 117375, Control_c, 0, 64, 73
1, 117390, Control_c, 0, 64, 74
1, 117405, Control_c, 0, 64, 75
1, 117405, Control_c, 0, 67, 55
1, 117420, Control_c, 0, 64, 76
1, 117435, Control_c, 0, 64, 77
1, 117456, Control_c, 0, 64, 77
1, 117460, Note_on_c, 0, 62, 78
1, 117472, Control_c, 0, 64, 78
1, 117481, Note_off_c, 0, 60, 61
1, 117487, Control_c, 0, 64, 78
1, 117517, Control_c, 0, 64, 79
1, 117524, Note_off_c, 0, 49, 62
1, 117567, Note_on_c, 0, 63, 86
1, 117570, Note_on_c, 0, 57, 49
1, 117576, Control_c, 0, 64, 79
1, 117582, Note_off_c, 0, 62, 62
1, 117605, Note_off_c, 0, 57, 65
1, 117649, Note_on_c, 0, 69, 81
1, 117665, Note_off_c, 0, 63, 60
1, 117665, Control_c, 0, 67, 56
1, 117680, Control_c, 0, 67, 56
1, 117695, Control_c, 0, 67, 57
1, 117710, Control_c, 0, 67, 58
1, 117739, Control_c, 0, 64, 79
1, 117745, Note_off_c, 0, 69, 64
1, 117754, Control_c, 0, 64, 77
1, 117754, Control_c, 0, 67, 58
1, 117759, Note_on_c, 0, 64, 83
1, 117769, Control_c, 0, 64, 71
1, 117775, Note_on_c, 0, 61, 63
1, 117784, Control_c, 0, 64, 61
1, 117799, Control_c, 0, 64, 46
1, 117814, Control_c, 0, 64, 0
1, 117872, Control_c, 0, 64, 39
1, 117887, Control_c, 0, 64, 51
1, 117887, Control_c, 0, 67, 58
1, 117902, Control_c, 0, 64, 60
1, 117917, Control_c, 0, 64, 64
1, 117917, Control_c, 0, 67, 57
1, 117932, Control_c, 0, 64, 66
1, 117932, Control_c, 0, 67, 56
1, 117946, Control_c, 0, 64, 68
1, 117946, Control_c, 0, 67, 55
1, 117961, Control_c, 0, 64, 70
1, 117961, Control_c, 0, 67, 54
1, 117976, Control_c, 0, 64, 72
1, 117976, Control_c, 0, 67, 52
1, 117990, Control_c, 0, 64, 75
1, 117990, Control_c, 0, 67, 51
1, 117995, Note_on_c, 0, 55, 60
1, 118005, Control_c, 0, 64, 77
1, 118005, Control_c, 0, 67, 49
1, 118020, Control_c, 0, 64, 79
1, 118020, Control_c, 0, 67, 47
1, 118035, Control_c, 0, 64, 81
1, 118035, Control_c, 0, 67, 45
1, 118041, Note_off_c, 0, 61, 49
1, 118050, Control_c, 0, 64, 82
1, 118050, Control_c, 0, 67, 41
1, 118064, Control_c, 0, 64, 84
1, 118064, Control_c, 0, 67, 0
1, 118079, Control_c, 0, 64, 84
1, 118087, Note_on_c, 0, 66, 87
1, 118094, Note_off_c, 0, 64, 64
1, 118094, Control_c, 0, 64, 85
1, 118109, Control_c, 0, 64, 86
1, 118124, Control_c, 0, 64, 86
1, 118139, Control_c, 0, 64, 87
1, 118184, Control_c, 0, 64, 87
1, 118225, Note_on_c, 0, 67, 84
1, 118225, Note_off_c, 0, 66, 64
1, 118238, Note_on_c, 0, 51, 59
1, 118301, Note_off_c, 0, 55, 34
1, 118308, Note_on_c, 0, 73, 86
1, 118318, Note_off_c, 0, 67, 61
1, 118340, Control_c, 0, 64, 87
1, 118369, Control_c, 0, 64, 86
1, 118384, Control_c, 0, 64, 81
1, 118395, Note_off_c, 0, 51, 62
1, 118399, Control_c, 0, 64, 72
1, 118411, Note_on_c, 0, 68, 84
1, 118414, Control_c, 0, 64, 62
1, 118421, Note_on_c, 0, 44, 60
1, 118422, Note_off_c, 0, 73, 56
1, 118428, Control_c, 0, 64, 49
1, 118443, Control_c, 0, 64, 30
1, 118458, Control_c, 0, 64, 0
1, 118562, Control_c, 0, 64, 40
1, 118577, Control_c, 0, 64, 54
1, 118592, Control_c, 0, 64, 62
1, 118607, Control_c, 0, 64, 64
1, 118621, Control_c, 0, 64, 66
1, 118629, Note_off_c, 0, 44, 63
1, 118636, Control_c, 0, 64, 67
1, 118643, Note_on_c, 0, 52, 62
1, 118651, Control_c, 0, 64, 69
1, 118666, Control_c, 0, 64, 71
1, 118681, Control_c, 0, 64, 73
1, 118695, Control_c, 0, 64, 74
1, 118710, Control_c, 0, 64, 75
1, 118725, Control_c, 0, 64, 76
1, 118740, Control_c, 0, 64, 77
1, 118755, Control_c, 0, 64, 78
1, 118769, Control_c, 0, 64, 78
1, 118784, Control_c, 0, 64, 79
1, 118799, Control_c, 0, 64, 79
1, 118828, Control_c, 0, 64, 80
1, 118843, Control_c, 0, 64, 80
1, 118857, Note_on_c, 0, 56, 69
1, 118858, Control_c, 0, 64, 81
1, 118902, Control_c, 0, 64, 81
1, 118910, Note_off_c, 0, 52, 47
1, 119078, Note_off_c, 0, 56, 59
1, 119085, Note_on_c, 0, 62, 58
1, 119104, Control_c, 0, 64, 81
1, 119310, Control_c, 0, 64, 80
1, 119325, Note_on_c, 0, 59, 58
1, 119370, Control_c, 0, 64, 80
1, 119390, Note_off_c, 0, 62, 38
1, 119427, Note_on_c, 0, 70, 72
1, 119429, Control_c, 0, 64, 79
1, 119443, Control_c, 0, 67, 38
1, 119458, Control_c, 0, 67, 48
1, 119471, Note_off_c, 0, 68, 57
1, 119473, Control_c, 0, 67, 56
1, 119488, Control_c, 0, 67, 64
1, 119503, Control_c, 0, 64, 79
1, 119503, Control_c, 0, 67, 75
1, 119509, Note_off_c, 0, 59, 56
1, 119517, Control_c, 0, 67, 90
1, 119526, Note_off_c, 0, 70, 63
1, 119532, Control_c, 0, 67, 103
1, 119547, Control_c, 0, 67, 113
1, 119562, Control_c, 0, 67, 117
1, 119564, Note_on_c, 0, 71, 72
1, 119576, Note_on_c, 0, 54, 55
1, 119577, Control_c, 0, 64, 78
1, 119621, Control_c, 0, 64, 78
1, 119622, Note_off_c, 0, 71, 58
1, 119644, Note_on_c, 0, 82, 63
1, 119665, Control_c, 0, 64, 77
1, 119681, Note_on_c, 0, 77, 76
1, 119695, Note_off_c, 0, 82, 59
1, 119703, Control_c, 0, 64, 77
1, 119717, Control_c, 0, 64, 76
1, 119732, Control_c, 0, 64, 75
1, 119747, Control_c, 0, 64, 73
1, 119762, Control_c, 0, 64, 69
1, 119762, Control_c, 0, 67, 115
1, 119776, Control_c, 0, 64, 64
1, 119783, Note_off_c, 0, 77, 63
1, 119788, Note_on_c, 0, 72, 67
1, 119791, Control_c, 0, 64, 57
1, 119805, Note_on_c, 0, 48, 57
1, 119806, Control_c, 0, 64, 46
1, 119812, Note_off_c, 0, 54, 50
1, 119821, Control_c, 0, 64, 35
1, 119836, Control_c, 0, 64, 0
1, 119941, Control_c, 0, 64, 41
1, 119956, Control_c, 0, 64, 53
1, 119956, Control_c, 0, 67, 113
1, 119971, Control_c, 0, 64, 61
1, 119986, Control_c, 0, 64, 64
1, 120001, Control_c, 0, 64, 65
1, 120015, Control_c, 0, 64, 66
1, 120030, Control_c, 0, 64, 67
1, 120035, Note_on_c, 0, 57, 50
1, 120045, Control_c, 0, 64, 69
1, 120059, Control_c, 0, 64, 70
1, 120074, Control_c, 0, 64, 71
1, 120089, Control_c, 0, 64, 72
1, 120104, Control_c, 0, 64, 73
1, 120115, Note_off_c, 0, 48, 29
1, 120119, Control_c, 0, 64, 74
1, 120128, Note_off_c, 0, 72, 61
1, 120143, Note_on_c, 0, 74, 73
1, 120163, Control_c, 0, 64, 74
1, 120190, Note_off_c, 0, 74, 62
1, 120208, Control_c, 0, 64, 75
1, 120223, Control_c, 0, 67, 115
1, 120231, Note_off_c, 0, 57, 63
1, 120266, Note_on_c, 0, 75, 73
1, 120267, Control_c, 0, 64, 75
1, 120267, Note_on_c, 0, 60, 44
1, 120303, Note_off_c, 0, 60, 65
1, 120327, Control_c, 0, 67, 117
1, 120343, Note_off_c, 0, 75, 54
1, 120363, Note_on_c, 0, 86, 66
1, 120388, Note_on_c, 0, 81, 67
1, 120420, Note_off_c, 0, 86, 63
1, 120497, Control_c, 0, 64, 75
1, 120504, Note_on_c, 0, 76, 65
1, 120512, Note_off_c, 0, 81, 53
1, 120539, Note_on_c, 0, 69, 41
1, 120541, Control_c, 0, 64, 72
1, 120556, Control_c, 0, 64, 67
1, 120571, Control_c, 0, 64, 60
1, 120586, Control_c, 0, 64, 54
1, 120600, Control_c, 0, 64, 51
1, 120615, Control_c, 0, 64, 49
1, 120629, Control_c, 0, 64, 50
1, 120644, Control_c, 0, 64, 51
1, 120659, Control_c, 0, 64, 54
1, 120675, Control_c, 0, 64, 58
1, 120689, Control_c, 0, 64, 62
1, 120704, Control_c, 0, 64, 64
1, 120719, Control_c, 0, 64, 66
1, 120719, Control_c, 0, 67, 119
1, 120734, Control_c, 0, 64, 67
1, 120749, Control_c, 0, 64, 68
1, 120763, Control_c, 0, 64, 69
1, 120778, Control_c, 0, 64, 70
1, 120778, Control_c, 0, 67, 121
1, 120793, Control_c, 0, 64, 71
1, 120808, Control_c, 0, 64, 72
1, 120808, Control_c, 0, 67, 123
1, 120822, Control_c, 0, 64, 73
1, 120825, Note_on_c, 0, 63, 34
1, 120837, Control_c, 0, 64, 74
1, 120837, Control_c, 0, 67, 127
1, 120852, Control_c, 0, 64, 74
1, 120867, Control_c, 0, 64, 75
1, 120896, Control_c, 0, 64, 75
1, 120941, Note_off_c, 0, 69, 31
1, 120953, Note_off_c, 0, 76, 47
1, 120961, Note_on_c, 0, 78, 59
1, 121158, Note_off_c, 0, 78, 59
1, 121165, Note_on_c, 0, 59, 35
1, 121191, Note_on_c, 0, 79, 57
1, 121334, Note_off_c, 0, 59, 36
1, 121349, Control_c, 0, 64, 75
1, 121375, Note_off_c, 0, 79, 34
1, 121376, Note_on_c, 0, 91, 54
1, 121418, Note_off_c, 0, 91, 66
1, 121419, Note_on_c, 0, 85, 65
1, 121482, Control_c, 0, 64, 74
1, 121526, Control_c, 0, 64, 74
1, 121571, Control_c, 0, 64, 73
1, 121600, Control_c, 0, 64, 73
1, 121630, Control_c, 0, 64, 72
1, 121644, Control_c, 0, 64, 72
1, 121659, Control_c, 0, 64, 71
1, 121689, Control_c, 0, 64, 71
1, 121700, Note_on_c, 0, 56, 28
1, 121704, Control_c, 0, 64, 70
1, 121719, Control_c, 0, 64, 70
1, 121734, Control_c, 0, 64, 69
1, 121749, Control_c, 0, 64, 68
1, 121764, Control_c, 0, 64, 67
1, 121776, Note_on_c, 0, 80, 59
1, 121778, Control_c, 0, 64, 65
1, 121793, Control_c, 0, 64, 63
1, 121805, Note_off_c, 0, 85, 50
1, 121808, Control_c, 0, 64, 61
1, 121823, Control_c, 0, 64, 59
1, 121837, Control_c, 0, 64, 58
1, 121846, Note_off_c, 0, 63, 34
1, 121852, Control_c, 0, 64, 57
1, 121867, Control_c, 0, 64, 56
1, 121882, Control_c, 0, 64, 55
1, 121897, Control_c, 0, 64, 54
1, 121911, Control_c, 0, 64, 53
1, 121934, Control_c, 0, 64, 52
1, 121949, Control_c, 0, 64, 51
1, 121963, Control_c, 0, 64, 50
1, 121978, Control_c, 0, 64, 50
1, 121993, Control_c, 0, 64, 49
1, 122023, Control_c, 0, 64, 49
1, 122067, Control_c, 0, 64, 49
1, 122082, Control_c, 0, 64, 50
1, 122097, Control_c, 0, 64, 52
1, 122111, Control_c, 0, 64, 55
1, 122126, Control_c, 0, 64, 58
1, 122141, Control_c, 0, 64, 60
1, 122155, Note_on_c, 0, 63, 38
1, 122156, Control_c, 0, 64, 63
1, 122170, Control_c, 0, 64, 64
1, 122185, Control_c, 0, 64, 66
1, 122200, Control_c, 0, 64, 68
1, 122215, Control_c, 0, 64, 70
1, 122230, Control_c, 0, 64, 71
1, 122244, Control_c, 0, 64, 73
1, 122260, Control_c, 0, 64, 74
1, 122275, Control_c, 0, 64, 76
1, 122290, Control_c, 0, 64, 78
1, 122305, Control_c, 0, 64, 79
1, 122320, Control_c, 0, 64, 81
1, 122334, Control_c, 0, 64, 82
1, 122349, Control_c, 0, 64, 83
1, 122364, Control_c, 0, 64, 85
1, 122379, Control_c, 0, 64, 86
1, 122394, Control_c, 0, 64, 87
1, 122402, Note_on_c, 0, 68, 37
1, 122408, Control_c, 0, 64, 88
1, 122414, Note_off_c, 0, 63, 39
1, 122423, Control_c, 0, 64, 88
1, 122438, Control_c, 0, 64, 89
1, 122453, Control_c, 0, 64, 90
1, 122467, Control_c, 0, 64, 91
1, 122482, Control_c, 0, 64, 92
1, 122497, Control_c, 0, 64, 92
1, 122512, Control_c, 0, 64, 93
1, 122527, Control_c, 0, 64, 93
1, 122542, Control_c, 0, 64, 94
1, 122572, Control_c, 0, 64, 95
1, 122601, Control_c, 0, 64, 95
1, 122616, Control_c, 0, 64, 96
1, 122670, Note_on_c, 0, 73, 45
1, 122697, Control_c, 0, 64, 98
1, 122733, Note_off_c, 0, 68, 32
1, 122741, Control_c, 0, 64, 101
1, 122771, Control_c, 0, 64, 104
1, 122801, Control_c, 0, 64, 108
1, 122831, Control_c, 0, 64, 112
1, 122846, Control_c, 0, 64, 114
1, 122860, Control_c, 0, 64, 116
1, 122876, Control_c, 0, 64, 118
1, 122890, Control_c, 0, 64, 122
1, 122905, Control_c, 0, 64, 127
1, 122962, Note_on_c, 0, 63, 32
1, 123117, Note_off_c, 0, 73, 34
1, 123194, Note_off_c, 0, 63, 38
1, 123261, Note_off_c, 0, 56, 50
1, 123278, Note_on_c, 0, 72, 38
1, 123391, Note_off_c, 0, 80, 59
1, 123652, Note_on_c, 0, 44, 37
1, 123654, Control_c, 0, 64, 124
1, 123669, Control_c, 0, 64, 118
1, 123683, Control_c, 0, 64, 112
1, 123698, Control_c, 0, 64, 105
1, 123713, Control_c, 0, 64, 99
1, 123728, Control_c, 0, 64, 93
1, 123734, Note_on_c, 0, 68, 60
1, 123743, Control_c, 0, 64, 86
1, 123758, Control_c, 0, 64, 79
1, 123773, Control_c, 0, 64, 72
1, 123785, Note_off_c, 0, 72, 58
1, 123788, Control_c, 0, 64, 64
1, 123803, Control_c, 0, 64, 59
1, 123817, Control_c, 0, 64, 55
1, 123832, Control_c, 0, 64, 52
1, 123847, Control_c, 0, 64, 51
1, 123892, Control_c, 0, 64, 52
1, 123907, Control_c, 0, 64, 54
1, 123922, Control_c, 0, 64, 58
1, 123937, Control_c, 0, 64, 62
1, 123952, Control_c, 0, 64, 65
1, 123967, Control_c, 0, 64, 68
1, 123981, Control_c, 0, 64, 71
1, 123996, Control_c, 0, 64, 74
1, 124011, Control_c, 0, 64, 76
1, 124026, Control_c, 0, 64, 79
1, 124029, Note_on_c, 0, 50, 37
1, 124040, Control_c, 0, 64, 81
1, 124055, Control_c, 0, 64, 84
1, 124070, Control_c, 0, 64, 87
1, 124085, Control_c, 0, 64, 89
1, 124100, Control_c, 0, 64, 93
1, 124114, Control_c, 0, 64, 95
1, 124129, Control_c, 0, 64, 97
1, 124144, Control_c, 0, 64, 99
1, 124174, Control_c, 0, 64, 102
1, 124199, Note_off_c, 0, 44, 41
1, 124211, Control_c, 0, 64, 104
1, 124240, Control_c, 0, 64, 106
1, 124269, Note_on_c, 0, 53, 46
1, 124285, Control_c, 0, 64, 108
1, 124325, Note_off_c, 0, 50, 31
1, 124329, Control_c, 0, 67, 119
1, 124344, Control_c, 0, 67, 110
1, 124358, Control_c, 0, 67, 100
1, 124373, Control_c, 0, 67, 87
1, 124388, Control_c, 0, 67, 75
1, 124403, Control_c, 0, 67, 63
1, 124418, Control_c, 0, 67, 51
1, 124432, Control_c, 0, 67, 43
1, 124447, Control_c, 0, 67, 0
1, 124464, Note_off_c, 0, 68, 60
1, 124494, Note_off_c, 0, 53, 33
1, 124521, Note_on_c, 0, 60, 47
1, 124730, Note_off_c, 0, 60, 35
1, 124754, Note_on_c, 0, 74, 61
1, 124772, Note_on_c, 0, 50, 28
1, 124772, Note_on_c, 0, 71, 40
1, 124798, Note_off_c, 0, 74, 58
1, 124804, Note_off_c, 0, 71, 51
1, 124906, Note_on_c, 0, 74, 65
1, 124907, Note_on_c, 0, 71, 46
1, 124947, Note_off_c, 0, 71, 56
1, 124953, Note_off_c, 0, 74, 58
1, 125043, Note_on_c, 0, 79, 61
1, 125052, Note_on_c, 0, 59, 45
1, 125057, Note_on_c, 0, 65, 46
1, 125069, Note_off_c, 0, 79, 68
1, 125082, Note_off_c, 0, 65, 55
1, 125139, Note_off_c, 0, 59, 51
1, 125144, Note_on_c, 0, 79, 72
1, 125158, Note_on_c, 0, 65, 51
1, 125177, Note_off_c, 0, 65, 63
1, 125188, Note_off_c, 0, 79, 61
1, 125254, Control_c, 0, 64, 104
1, 125255, Note_off_c, 0, 50, 41
1, 125267, Note_on_c, 0, 82, 72
1, 125269, Control_c, 0, 64, 98
1, 125271, Note_on_c, 0, 44, 49
1, 125272, Note_on_c, 0, 76, 59
1, 125284, Control_c, 0, 64, 91
1, 125299, Control_c, 0, 64, 85
1, 125307, Note_off_c, 0, 82, 54
1, 125312, Note_off_c, 0, 76, 59
1, 125314, Control_c, 0, 64, 81
1, 125329, Control_c, 0, 64, 80
1, 125374, Control_c, 0, 64, 80
1, 125386, Note_on_c, 0, 82, 75
1, 125388, Control_c, 0, 64, 79
1, 125417, Note_off_c, 0, 82, 60
1, 125418, Control_c, 0, 64, 79
1, 125478, Control_c, 0, 64, 78
1, 125484, Note_on_c, 0, 87, 73
1, 125498, Note_on_c, 0, 52, 46
1, 125504, Note_on_c, 0, 73, 50
1, 125518, Note_off_c, 0, 87, 59
1, 125527, Note_off_c, 0, 73, 59
1, 125567, Control_c, 0, 64, 79
1, 125598, Note_on_c, 0, 73, 66
1, 125603, Note_on_c, 0, 87, 80
1, 125614, Note_off_c, 0, 73, 67
1, 125654, Note_off_c, 0, 87, 64
1, 125693, Control_c, 0, 64, 78
1, 125707, Control_c, 0, 64, 74
1, 125722, Control_c, 0, 64, 68
1, 125736, Note_on_c, 0, 90, 69
1, 125737, Control_c, 0, 64, 63
1, 125746, Note_off_c, 0, 52, 48
1, 125752, Note_on_c, 0, 84, 56
1, 125752, Control_c, 0, 64, 63
1, 125756, Note_on_c, 0, 57, 40
1, 125767, Control_c, 0, 64, 64
1, 125782, Control_c, 0, 64, 66
1, 125791, Note_off_c, 0, 84, 57
1, 125797, Control_c, 0, 64, 70
1, 125800, Note_off_c, 0, 90, 64
1, 125811, Control_c, 0, 64, 74
1, 125826, Control_c, 0, 64, 77
1, 125841, Control_c, 0, 64, 78
1, 125856, Control_c, 0, 64, 81
1, 125871, Control_c, 0, 64, 83
1, 125874, Note_on_c, 0, 90, 70
1, 125885, Control_c, 0, 64, 86
1, 125895, Note_on_c, 0, 84, 36
1, 125900, Control_c, 0, 64, 88
1, 125915, Control_c, 0, 64, 90
1, 125928, Note_off_c, 0, 84, 53
1, 125930, Control_c, 0, 64, 92
1, 125941, Note_off_c, 0, 90, 63
1, 125945, Control_c, 0, 64, 93
1, 125959, Control_c, 0, 64, 93
1, 125974, Control_c, 0, 64, 94
1, 125989, Control_c, 0, 64, 94
1, 126003, Control_c, 0, 64, 95
1, 126025, Note_on_c, 0, 49, 45
1, 126033, Control_c, 0, 64, 95
1, 126034, Note_on_c, 0, 95, 71
1, 126043, Note_off_c, 0, 57, 34
1, 126046, Note_on_c, 0, 81, 51
1, 126048, Control_c, 0, 64, 96
1, 126072, Note_off_c, 0, 81, 54
1, 126096, Note_off_c, 0, 95, 60
1, 126104, Note_off_c, 0, 49, 61
1, 126127, Note_off_c, 0, 44, 63
1, 126196, Note_on_c, 0, 95, 72
1, 126206, Note_on_c, 0, 81, 38
1, 126237, Note_off_c, 0, 81, 54
1, 126375, Control_c, 0, 64, 95
1, 126381, Note_on_c, 0, 32, 50
1, 126390, Control_c, 0, 64, 89
1, 126405, Control_c, 0, 64, 78
1, 126416, Note_on_c, 0, 92, 65
1, 126426, Control_c, 0, 64, 68
1, 126441, Note_on_c, 0, 87, 42
1, 126441, Control_c, 0, 64, 59
1, 126456, Control_c, 0, 64, 55
1, 126470, Note_off_c, 0, 95, 64
1, 126471, Control_c, 0, 64, 55
1, 126486, Control_c, 0, 64, 57
1, 126501, Control_c, 0, 64, 60
1, 126515, Control_c, 0, 64, 64
1, 126519, Note_off_c, 0, 32, 56
1, 126530, Control_c, 0, 64, 68
1, 126545, Control_c, 0, 64, 76
1, 126560, Control_c, 0, 64, 82
1, 126575, Control_c, 0, 64, 87
1, 126590, Control_c, 0, 64, 92
1, 126605, Control_c, 0, 64, 97
1, 126620, Control_c, 0, 64, 103
1, 126635, Control_c, 0, 64, 110
1, 126649, Control_c, 0, 64, 127
1, 126769, Note_on_c, 0, 51, 44
1, 126809, Note_off_c, 0, 92, 65
1, 126819, Note_off_c, 0, 87, 63
1, 126971, Note_on_c, 0, 60, 42
1, 127005, Note_off_c, 0, 51, 54
1, 127041, Note_on_c, 0, 80, 49
1, 127087, Note_off_c, 0, 60, 63
1, 127104, Note_off_c, 0, 80, 59
1, 127141, Note_on_c, 0, 82, 54
1, 127217, Note_off_c, 0, 82, 41
1, 127235, Note_on_c, 0, 80, 58
1, 127258, Note_on_c, 0, 73, 50
1, 127299, Note_off_c, 0, 80, 62
1, 127332, Note_on_c, 0, 82, 50
1, 127374, Note_off_c, 0, 82, 59
1, 127407, Note_on_c, 0, 80, 52
1, 127441, Note_off_c, 0, 80, 67
1, 127480, Note_on_c, 0, 82, 43
1, 127518, Note_off_c, 0, 82, 53
1, 127532, Note_on_c, 0, 63, 45
1, 127543, Note_on_c, 0, 80, 53
1, 127579, Note_off_c, 0, 80, 62
1, 127604, Note_on_c, 0, 82, 45
1, 127634, Note_off_c, 0, 82, 57
1, 127673, Note_on_c, 0, 80, 54
1, 127694, Note_off_c, 0, 80, 64
1, 127696, Note_off_c, 0, 73, 56
1, 127716, Note_on_c, 0, 82, 55
1, 127748, Note_off_c, 0, 82, 53
1, 127771, Note_on_c, 0, 80, 66
1, 127809, Note_off_c, 0, 80, 62
1, 127820, Note_on_c, 0, 72, 52
1, 127838, Note_on_c, 0, 82, 47
1, 127851, Note_off_c, 0, 63, 61
1, 127869, Note_off_c, 0, 82, 53
1, 127888, Note_off_c, 0, 72, 62
1, 127919, Note_on_c, 0, 80, 20
1, 127934, Note_on_c, 0, 82, 58
1, 127964, Note_off_c, 0, 80, 53
1, 127979, Note_off_c, 0, 82, 54
1, 128001, Note_on_c, 0, 80, 55
1, 128036, Note_on_c, 0, 82, 43
1, 128045, Note_off_c, 0, 80, 54
1, 128058, Note_on_c, 0, 56, 55
1, 128100, Note_on_c, 0, 80, 50
1, 128116, Note_off_c, 0, 82, 56
1, 128167, Note_off_c, 0, 80, 61
1, 128170, Note_on_c, 0, 79, 56
1, 128235, Note_off_c, 0, 79, 53
1, 128262, Note_on_c, 0, 80, 59
1, 128268, Note_on_c, 0, 62, 51
1, 128292, Note_off_c, 0, 56, 52
1, 128307, Note_off_c, 0, 80, 62
1, 128329, Note_on_c, 0, 81, 61
1, 128366, Note_off_c, 0, 81, 60
1, 128408, Note_on_c, 0, 80, 52
1, 128431, Note_off_c, 0, 80, 64
1, 128451, Note_on_c, 0, 81, 42
1, 128479, Note_off_c, 0, 81, 55
1, 128485, Note_off_c, 0, 62, 51
1, 128498, Note_on_c, 0, 65, 48
1, 128507, Note_on_c, 0, 80, 63
1, 128533, Note_off_c, 0, 80, 65
1, 128557, Note_on_c, 0, 81, 54
1, 128577, Control_c, 0, 67, 38
1, 128588, Note_off_c, 0, 81, 50
1, 128592, Control_c, 0, 67, 39
1, 128606, Control_c, 0, 67, 42
1, 128621, Control_c, 0, 67, 43
1, 128629, Note_on_c, 0, 80, 62
1, 128636, Control_c, 0, 67, 45
1, 128652, Control_c, 0, 67, 47
1, 128656, Note_off_c, 0, 80, 67
1, 128667, Control_c, 0, 67, 49
1, 128689, Control_c, 0, 67, 51
1, 128694, Note_on_c, 0, 81, 44
1, 128703, Control_c, 0, 67, 53
1, 128718, Control_c, 0, 67, 54
1, 128719, Note_off_c, 0, 81, 55
1, 128733, Control_c, 0, 67, 56
1, 128748, Control_c, 0, 67, 58
1, 128749, Note_on_c, 0, 80, 59
1, 128757, Note_on_c, 0, 72, 50
1, 128763, Control_c, 0, 67, 60
1, 128778, Control_c, 0, 67, 66
1, 128793, Control_c, 0, 67, 75
1, 128795, Note_off_c, 0, 80, 51
1, 128808, Control_c, 0, 67, 86
1, 128808, Note_on_c, 0, 81, 49
1, 128822, Control_c, 0, 67, 95
1, 128835, Note_off_c, 0, 65, 51
1, 128837, Control_c, 0, 67, 102
1, 128852, Control_c, 0, 67, 108
1, 128867, Control_c, 0, 67, 113
1, 128876, Note_off_c, 0, 81, 62
1, 128882, Control_c, 0, 67, 117
1, 128903, Note_on_c, 0, 80, 37
1, 128933, Note_off_c, 0, 80, 52
1, 128970, Control_c, 0, 67, 119
1, 128972, Note_off_c, 0, 72, 52
1, 128975, Note_on_c, 0, 65, 53
1, 128997, Note_on_c, 0, 80, 59
1, 129033, Note_off_c, 0, 80, 60
1, 129050, Note_on_c, 0, 86, 65
1, 129059, Control_c, 0, 67, 121
1, 129091, Note_off_c, 0, 86, 58
1, 129119, Note_on_c, 0, 80, 65
1, 129145, Note_off_c, 0, 80, 68
1, 129164, Note_on_c, 0, 86, 47
1, 129177, Control_c, 0, 67, 119
1, 129187, Note_off_c, 0, 86, 58
1, 129213, Note_off_c, 0, 65, 56
1, 129222, Control_c, 0, 67, 117
1, 129224, Note_on_c, 0, 77, 67
1, 129236, Note_on_c, 0, 71, 59
1, 129252, Note_off_c, 0, 77, 63
1, 129293, Note_on_c, 0, 91, 64
1, 129314, Note_off_c, 0, 91, 67
1, 129347, Note_on_c, 0, 77, 69
1, 129370, Note_off_c, 0, 77, 66
1, 129372, Note_off_c, 0, 71, 35
1, 129398, Note_on_c, 0, 91, 67
1, 129431, Note_off_c, 0, 91, 68
1, 129472, Note_on_c, 0, 88, 74
1, 129473, Note_on_c, 0, 56, 54
1, 129544, Note_off_c, 0, 88, 60
1, 129559, Note_on_c, 0, 94, 60
1, 129577, Note_off_c, 0, 94, 59
1, 129611, Note_on_c, 0, 88, 31
1, 129615, Control_c, 0, 64, 122
1, 129645, Note_on_c, 0, 94, 73
1, 129645, Note_off_c, 0, 88, 47
1, 129645, Control_c, 0, 64, 119
1, 129675, Control_c, 0, 64, 117
1, 129678, Note_off_c, 0, 94, 64
1, 129723, Note_on_c, 0, 85, 77
1, 129724, Note_on_c, 0, 64, 52
1, 129779, Note_off_c, 0, 85, 60
1, 129800, Note_on_c, 0, 99, 66
1, 129833, Note_off_c, 0, 99, 65
1, 129859, Note_on_c, 0, 85, 67
1, 129884, Note_off_c, 0, 85, 68
1, 129919, Note_on_c, 0, 99, 62
1, 129949, Note_off_c, 0, 99, 65
1, 129977, Note_on_c, 0, 96, 61
1, 130010, Note_on_c, 0, 69, 37
1, 130048, Note_off_c, 0, 96, 62
1, 130050, Note_off_c, 0, 64, 51
1, 130051, Note_on_c, 0, 102, 59
1, 130093, Note_off_c, 0, 102, 63
1, 130105, Control_c, 0, 67, 119
1, 130110, Note_on_c, 0, 96, 60
1, 130164, Control_c, 0, 67, 121
1, 130167, Note_off_c, 0, 96, 65
1, 130191, Note_on_c, 0, 102, 67
1, 130216, Control_c, 0, 67, 123
1, 130235, Note_off_c, 0, 102, 63
1, 130266, Note_off_c, 0, 69, 42
1, 130267, Note_on_c, 0, 93, 65
1, 130269, Note_on_c, 0, 61, 42
1, 130320, Note_off_c, 0, 93, 61
1, 130323, Note_off_c, 0, 56, 46
1, 130355, Note_on_c, 0, 107, 66
1, 130380, Control_c, 0, 67, 125
1, 130409, Note_off_c, 0, 107, 52
1, 130439, Control_c, 0, 67, 127
1, 130455, Note_on_c, 0, 93, 55
1, 130501, Note_off_c, 0, 93, 48
1, 130546, Note_on_c, 0, 107, 62
1, 130725, Note_on_c, 0, 56, 37
1, 130750, Control_c, 0, 64, 114
1, 130780, Control_c, 0, 64, 110
1, 130794, Control_c, 0, 64, 105
1, 130809, Control_c, 0, 64, 99
1, 130814, Note_on_c, 0, 104, 63
1, 130824, Control_c, 0, 64, 89
1, 130833, Note_on_c, 0, 99, 52
1, 130839, Control_c, 0, 64, 79
1, 130854, Control_c, 0, 64, 69
1, 130868, Control_c, 0, 64, 61
1, 130881, Note_off_c, 0, 61, 35
1, 130883, Control_c, 0, 64, 53
1, 130898, Control_c, 0, 64, 48
1, 130913, Control_c, 0, 64, 43
1, 130935, Control_c, 0, 64, 41
1, 130950, Control_c, 0, 64, 40
1, 130954, Note_off_c, 0, 107, 37
1, 130965, Control_c, 0, 64, 40
1, 130995, Control_c, 0, 64, 41
1, 131009, Control_c, 0, 64, 46
1, 131024, Control_c, 0, 64, 53
1, 131039, Control_c, 0, 64, 60
1, 131055, Control_c, 0, 64, 64
1, 131070, Control_c, 0, 64, 66
1, 131085, Control_c, 0, 64, 69
1, 131099, Control_c, 0, 64, 71
1, 131114, Control_c, 0, 64, 73
1, 131129, Control_c, 0, 64, 76
1, 131144, Control_c, 0, 64, 80
1, 131158, Control_c, 0, 64, 83
1, 131173, Control_c, 0, 64, 87
1, 131188, Control_c, 0, 64, 91
1, 131203, Control_c, 0, 64, 94
1, 131217, Note_on_c, 0, 63, 42
1, 131218, Control_c, 0, 64, 98
1, 131232, Control_c, 0, 64, 103
1, 131247, Control_c, 0, 64, 109
1, 131262, Control_c, 0, 64, 122
1, 131277, Control_c, 0, 64, 127
1, 131307, Note_off_c, 0, 56, 41
1, 131458, Note_off_c, 0, 63, 54
1, 131495, Note_on_c, 0, 72, 41
1, 131685, Note_off_c, 0, 99, 42
1, 131693, Note_off_c, 0, 104, 59
1, 131780, Note_on_c, 0, 80, 43
1, 131781, Note_off_c, 0, 72, 37
1, 132027, Note_off_c, 0, 80, 52
1, 132062, Note_on_c, 0, 101, 48
1, 132079, Note_on_c, 0, 72, 37
1, 132080, Note_on_c, 0, 96, 29
1, 132185, Note_off_c, 0, 101, 46
1, 132202, Note_on_c, 0, 99, 56
1, 132203, Note_off_c, 0, 96, 42
1, 132224, Note_on_c, 0, 95, 61
1, 132235, Note_off_c, 0, 99, 60
1, 132270, Note_off_c, 0, 72, 46
1, 132286, Note_off_c, 0, 95, 62
1, 132355, Note_on_c, 0, 98, 62
1, 132361, Note_on_c, 0, 93, 56
1, 132366, Note_on_c, 0, 63, 45
1, 132428, Note_off_c, 0, 98, 64
1, 132440, Note_off_c, 0, 93, 58
1, 132468, Note_on_c, 0, 96, 58
1, 132479, Note_on_c, 0, 92, 74
1, 132494, Note_off_c, 0, 96, 65
1, 132519, Note_off_c, 0, 92, 59
1, 132568, Note_off_c, 0, 63, 52
1, 132605, Note_on_c, 0, 95, 63
1, 132606, Note_on_c, 0, 56, 44
1, 132614, Note_on_c, 0, 90, 54
1, 132659, Note_off_c, 0, 95, 63
1, 132722, Note_on_c, 0, 89, 58
1, 132724, Note_on_c, 0, 93, 49
1, 132733, Note_off_c, 0, 90, 35
1, 132754, Note_off_c, 0, 93, 52
1, 132786, Note_off_c, 0, 89, 63
1, 132847, Note_on_c, 0, 92, 59
1, 132850, Note_on_c, 0, 87, 58
1, 132863, Note_on_c, 0, 63, 43
1, 132874, Note_off_c, 0, 56, 46
1, 132923, Note_off_c, 0, 92, 58
1, 132929, Note_off_c, 0, 87, 57
1, 132968, Note_on_c, 0, 86, 62
1, 132990, Note_on_c, 0, 90, 16
1, 133019, Note_off_c, 0, 86, 62
1, 133033, Note_off_c, 0, 90, 37
1, 133061, Note_off_c, 0, 63, 58
1, 133096, Note_on_c, 0, 89, 54
1, 133102, Note_on_c, 0, 68, 41
1, 133108, Note_on_c, 0, 84, 48
1, 133158, Note_off_c, 0, 89, 59
1, 133173, Note_off_c, 0, 84, 54
1, 133216, Note_on_c, 0, 83, 64
1, 133230, Note_on_c, 0, 87, 15
1, 133266, Note_off_c, 0, 83, 54
1, 133271, Note_off_c, 0, 87, 37
1, 133328, Note_on_c, 0, 86, 66
1, 133333, Note_off_c, 0, 68, 38
1, 133346, Note_on_c, 0, 81, 58
1, 133365, Note_on_c, 0, 72, 22
1, 133392, Note_off_c, 0, 81, 53
1, 133395, Note_off_c, 0, 86, 62
1, 133428, Note_on_c, 0, 84, 56
1, 133461, Note_on_c, 0, 80, 61
1, 133472, Note_off_c, 0, 84, 57
1, 133500, Note_off_c, 0, 80, 58
1, 133501, Note_off_c, 0, 72, 39
1, 133585, Note_on_c, 0, 83, 66
1, 133597, Note_on_c, 0, 78, 61
1, 133607, Note_on_c, 0, 68, 36
1, 133649, Note_off_c, 0, 83, 61
1, 133689, Note_off_c, 0, 78, 52
1, 133711, Note_on_c, 0, 81, 49
1, 133720, Note_on_c, 0, 77, 67
1, 133733, Note_off_c, 0, 81, 60
1, 133833, Note_off_c, 0, 77, 60
1, 133852, Note_on_c, 0, 80, 61
1, 133856, Note_off_c, 0, 68, 35
1, 133860, Note_on_c, 0, 75, 56
1, 133867, Note_on_c, 0, 63, 38
1, 133920, Note_off_c, 0, 63, 61
1, 133993, Note_off_c, 0, 80, 58
1, 133997, Note_off_c, 0, 75, 55
1, 134005, Note_on_c, 0, 78, 62
1, 134007, Note_on_c, 0, 74, 69
1, 134075, Note_off_c, 0, 78, 61
1, 134149, Note_off_c, 0, 74, 53
1, 134175, Note_on_c, 0, 44, 37
1, 134182, Control_c, 0, 64, 116
1, 134184, Note_on_c, 0, 77, 64
1, 134197, Control_c, 0, 64, 93
1, 134209, Note_on_c, 0, 72, 55
1, 134212, Control_c, 0, 64, 81
1, 134226, Control_c, 0, 64, 73
1, 134242, Control_c, 0, 64, 66
1, 134257, Control_c, 0, 64, 64
1, 134301, Control_c, 0, 64, 65
1, 134316, Note_off_c, 0, 72, 59
1, 134316, Note_off_c, 0, 77, 62
1, 134316, Control_c, 0, 64, 67
1, 134331, Control_c, 0, 64, 68
1, 134335, Note_on_c, 0, 75, 57
1, 134341, Note_on_c, 0, 71, 68
1, 134346, Control_c, 0, 64, 70
1, 134361, Control_c, 0, 64, 72
1, 134370, Note_off_c, 0, 75, 64
1, 134375, Control_c, 0, 64, 73
1, 134405, Control_c, 0, 64, 73
1, 134410, Note_off_c, 0, 71, 55
1, 134457, Note_on_c, 0, 74, 70
1, 134459, Note_on_c, 0, 69, 67
1, 134515, Note_off_c, 0, 69, 61
1, 134517, Note_off_c, 0, 74, 63
1, 134552, Note_on_c, 0, 72, 55
1, 134573, Note_on_c, 0, 68, 68
1, 134576, Note_on_c, 0, 52, 51
1, 134582, Note_off_c, 0, 72, 63
1, 134597, Note_off_c, 0, 68, 69
1, 134681, Note_on_c, 0, 71, 68
1, 134695, Note_on_c, 0, 66, 71
1, 134708, Control_c, 0, 64, 73
1, 134738, Control_c, 0, 64, 72
1, 134748, Note_off_c, 0, 71, 61
1, 134753, Control_c, 0, 64, 71
1, 134767, Control_c, 0, 64, 71
1, 134782, Control_c, 0, 64, 70
1, 134783, Note_off_c, 0, 66, 64
1, 134784, Note_on_c, 0, 69, 68
1, 134797, Control_c, 0, 64, 69
1, 134800, Note_on_c, 0, 65, 65
1, 134812, Control_c, 0, 64, 68
1, 134823, Note_off_c, 0, 69, 60
1, 134827, Control_c, 0, 64, 67
1, 134841, Control_c, 0, 64, 66
1, 134856, Control_c, 0, 64, 65
1, 134871, Control_c, 0, 64, 64
1, 134886, Control_c, 0, 64, 63
1, 134892, Note_off_c, 0, 65, 56
1, 134898, Note_on_c, 0, 57, 48
1, 134901, Control_c, 0, 64, 62
1, 134910, Note_on_c, 0, 63, 68
1, 134912, Note_on_c, 0, 68, 64
1, 134915, Control_c, 0, 64, 61
1, 134930, Control_c, 0, 64, 60
1, 134945, Control_c, 0, 64, 59
1, 134960, Control_c, 0, 64, 58
1, 135014, Note_on_c, 0, 66, 68
1, 135014, Note_off_c, 0, 63, 62
1, 135017, Note_off_c, 0, 68, 62
1, 135032, Note_on_c, 0, 62, 64
1, 135074, Note_off_c, 0, 66, 65
1, 135109, Control_c, 0, 64, 59
1, 135139, Control_c, 0, 64, 59
1, 135141, Note_off_c, 0, 62, 62
1, 135144, Note_on_c, 0, 65, 66
1, 135153, Note_on_c, 0, 60, 59
1, 135160, Note_off_c, 0, 57, 42
1, 135184, Control_c, 0, 64, 60
1, 135294, Note_on_c, 0, 63, 73
1, 135309, Note_on_c, 0, 59, 54
1, 135309, Note_off_c, 0, 60, 58
1, 135324, Note_off_c, 0, 44, 49
1, 135338, Note_off_c, 0, 52, 48
1, 135344, Note_off_c, 0, 65, 60
1, 135376, Control_c, 0, 64, 59
1, 135376, Control_c, 0, 67, 117
1, 135390, Control_c, 0, 67, 109
1, 135405, Control_c, 0, 67, 102
1, 135428, Control_c, 0, 67, 94
1, 135443, Control_c, 0, 67, 87
1, 135458, Control_c, 0, 67, 79
1, 135472, Control_c, 0, 67, 70
1, 135487, Control_c, 0, 67, 62
1, 135502, Control_c, 0, 67, 55
1, 135516, Control_c, 0, 67, 48
1, 135531, Control_c, 0, 67, 41
1, 135546, Control_c, 0, 67, 0
1, 135716, Note_on_c, 0, 44, 51
1, 135946, Control_c, 0, 64, 60
1, 135976, Control_c, 0, 64, 60
1, 135991, Control_c, 0, 64, 61
1, 136020, Control_c, 0, 64, 61
1, 136080, Control_c, 0, 64, 62
1, 136215, Note_on_c, 0, 52, 63
1, 136265, Control_c, 0, 64, 61
1, 136309, Control_c, 0, 64, 61
1, 136472, Control_c, 0, 64, 61
1, 136502, Control_c, 0, 64, 62
1, 136532, Control_c, 0, 64, 62
1, 136546, Control_c, 0, 64, 63
1, 136561, Control_c, 0, 64, 63
1, 136591, Control_c, 0, 64, 64
1, 136799, Control_c, 0, 64, 63
1, 136829, Control_c, 0, 64, 63
1, 136844, Control_c, 0, 64, 62
1, 136852, Note_on_c, 0, 60, 57
1, 136859, Control_c, 0, 64, 62
1, 136874, Control_c, 0, 64, 61
1, 136888, Control_c, 0, 64, 59
1, 136890, Note_off_c, 0, 59, 62
1, 136910, Control_c, 0, 64, 58
1, 136925, Control_c, 0, 64, 57
1, 136940, Control_c, 0, 64, 56
1, 136955, Control_c, 0, 64, 55
1, 136969, Control_c, 0, 64, 54
1, 136984, Control_c, 0, 64, 53
1, 136999, Control_c, 0, 64, 53
1, 137059, Control_c, 0, 64, 54
1, 137074, Control_c, 0, 64, 57
1, 137088, Control_c, 0, 64, 60
1, 137103, Control_c, 0, 64, 64
1, 137118, Control_c, 0, 64, 67
1, 137133, Control_c, 0, 64, 71
1, 137148, Control_c, 0, 64, 74
1, 137162, Control_c, 0, 64, 77
1, 137177, Control_c, 0, 64, 78
1, 137192, Control_c, 0, 64, 80
1, 137207, Control_c, 0, 64, 82
1, 137222, Control_c, 0, 64, 83
1, 137236, Control_c, 0, 64, 84
1, 137251, Control_c, 0, 64, 85
1, 137252, Note_off_c, 0, 44, 62
1, 137266, Control_c, 0, 64, 86
1, 137445, Control_c, 0, 67, 39
1, 137459, Control_c, 0, 67, 45
1, 137474, Control_c, 0, 67, 51
1, 137489, Control_c, 0, 67, 58
1, 137504, Control_c, 0, 67, 62
1, 137518, Control_c, 0, 67, 64
1, 137563, Control_c, 0, 67, 64
1, 137578, Control_c, 0, 64, 85
1, 137592, Control_c, 0, 64, 84
1, 137602, Note_on_c, 0, 32, 46
1, 137607, Control_c, 0, 64, 83
1, 137622, Control_c, 0, 64, 81
1, 137637, Control_c, 0, 64, 78
1, 137652, Control_c, 0, 64, 74
1, 137674, Control_c, 0, 64, 67
1, 137689, Control_c, 0, 64, 62
1, 137704, Control_c, 0, 64, 58
1, 137718, Control_c, 0, 64, 56
1, 137733, Control_c, 0, 64, 55
1, 137733, Control_c, 0, 67, 64
1, 137748, Control_c, 0, 64, 54
1, 137763, Control_c, 0, 64, 54
1, 137792, Control_c, 0, 67, 63
1, 137822, Control_c, 0, 64, 55
1, 137837, Control_c, 0, 64, 59
1, 137837, Control_c, 0, 67, 62
1, 137852, Control_c, 0, 64, 63
1, 137867, Control_c, 0, 64, 67
1, 137867, Control_c, 0, 67, 62
1, 137881, Control_c, 0, 64, 72
1, 137896, Control_c, 0, 64, 76
1, 137911, Control_c, 0, 64, 79
1, 137926, Control_c, 0, 64, 83
1, 137941, Control_c, 0, 64, 87
1, 137941, Control_c, 0, 67, 61
1, 137956, Control_c, 0, 64, 91
1, 137971, Control_c, 0, 64, 96
1, 137985, Control_c, 0, 64, 101
1, 138000, Control_c, 0, 64, 105
1, 138015, Control_c, 0, 64, 110
1, 138030, Control_c, 0, 64, 115
1, 138045, Control_c, 0, 64, 122
1, 138059, Control_c, 0, 64, 127
1, 138059, Control_c, 0, 67, 62
1, 138104, Control_c, 0, 67, 62
1, 138133, Control_c, 0, 67, 63
1, 138147, Note_off_c, 0, 52, 33
1, 138148, Control_c, 0, 67, 64
1, 138163, Control_c, 0, 67, 64
1, 138178, Control_c, 0, 67, 65
1, 138192, Control_c, 0, 67, 66
1, 138207, Control_c, 0, 67, 66
1, 138222, Control_c, 0, 67, 67
1, 138238, Control_c, 0, 67, 68
1, 138253, Control_c, 0, 67, 68
1, 138268, Control_c, 0, 67, 69
1, 138282, Control_c, 0, 67, 70
1, 138297, Control_c, 0, 67, 71
1, 138312, Control_c, 0, 67, 88
1, 138327, Control_c, 0, 67, 104
1, 138341, Control_c, 0, 67, 111
1, 138356, Control_c, 0, 67, 114
1, 138386, Control_c, 0, 67, 117
1, 138401, Control_c, 0, 67, 119
1, 138423, Control_c, 0, 67, 123
1, 138438, Control_c, 0, 67, 127
1, 138808, Control_c, 0, 64, 117
1, 138823, Control_c, 0, 64, 110
1, 138838, Control_c, 0, 64, 105
1, 138853, Control_c, 0, 64, 100
1, 138867, Control_c, 0, 64, 95
1, 138882, Control_c, 0, 64, 90
1, 138897, Control_c, 0, 64, 83
1, 138908, Note_on_c, 0, 51, 36
1, 138912, Control_c, 0, 64, 78
1, 138927, Control_c, 0, 64, 74
1, 138941, Control_c, 0, 64, 68
1, 138956, Control_c, 0, 64, 63
1, 138971, Control_c, 0, 64, 58
1, 138986, Control_c, 0, 64, 54
1, 139001, Control_c, 0, 64, 52
1, 139015, Control_c, 0, 64, 51
1, 139031, Control_c, 0, 64, 49
1, 139046, Control_c, 0, 64, 47
1, 139061, Control_c, 0, 64, 45
1, 139076, Control_c, 0, 64, 44
1, 139091, Control_c, 0, 64, 43
1, 139120, Control_c, 0, 64, 43
1, 139135, Control_c, 0, 64, 46
1, 139150, Control_c, 0, 64, 51
1, 139172, Control_c, 0, 64, 58
1, 139187, Control_c, 0, 64, 63
1, 139202, Control_c, 0, 64, 68
1, 139217, Control_c, 0, 64, 72
1, 139232, Control_c, 0, 64, 75
1, 139246, Control_c, 0, 64, 78
1, 139261, Control_c, 0, 64, 82
1, 139276, Control_c, 0, 64, 85
1, 139290, Control_c, 0, 64, 89
1, 139305, Control_c, 0, 64, 94
1, 139320, Control_c, 0, 64, 98
1, 139324, Note_off_c, 0, 32, 39
1, 139330, Note_off_c, 0, 51, 47
1, 139335, Control_c, 0, 64, 102
1, 139351, Control_c, 0, 64, 108
1, 139365, Control_c, 0, 64, 115
1, 139380, Control_c, 0, 64, 127
1, 139452, Note_off_c, 0, 60, 36
1, 139505, Note_off_c, 0, 63, 59
1, 140808, Note_on_c, 0, 87, 39
1, 140823, Note_on_c, 0, 75, 32
1, 140964, Note_off_c, 0, 75, 37
1, 140964, Note_off_c, 0, 87, 35
1, 143065, Control_c, 0, 64, 114
1, 143080, Control_c, 0, 64, 107
1, 143095, Control_c, 0, 64, 103
1, 143110, Control_c, 0, 64, 100
1, 143110, Control_c, 0, 67, 124
1, 143125, Control_c, 0, 64, 97
1, 143125, Control_c, 0, 67, 120
1, 143139, Control_c, 0, 64, 95
1, 143139, Control_c, 0, 67, 118
1, 143154, Control_c, 0, 64, 93
1, 143154, Control_c, 0, 67, 115
1, 143169, Control_c, 0, 64, 91
1, 143169, Control_c, 0, 67, 111
1, 143184, Control_c, 0, 64, 88
1, 143184, Control_c, 0, 67, 106
1, 143199, Control_c, 0, 64, 87
1, 143199, Control_c, 0, 67, 101
1, 143213, Control_c, 0, 64, 85
1, 143213, Control_c, 0, 67, 96
1, 143228, Control_c, 0, 64, 83
1, 143228, Control_c, 0, 67, 90
1, 143243, Control_c, 0, 64, 82
1, 143243, Control_c, 0, 67, 82
1, 143257, Control_c, 0, 64, 80
1, 143257, Control_c, 0, 67, 73
1, 143272, Control_c, 0, 64, 78
1, 143272, Control_c, 0, 67, 63
1, 143287, Control_c, 0, 64, 77
1, 143287, Control_c, 0, 67, 54
1, 143302, Control_c, 0, 64, 75
1, 143302, Control_c, 0, 67, 46
1, 143317, Control_c, 0, 64, 72
1, 143317, Control_c, 0, 67, 39
1, 143331, Control_c, 0, 64, 68
1, 143331, Control_c, 0, 67, 0
1, 143346, Control_c, 0, 64, 65
1, 143361, Control_c, 0, 64, 63
1, 143376, Control_c, 0, 64, 61
1, 143391, Control_c, 0, 64, 60
1, 143405, Control_c, 0, 64, 59
1, 143420, Control_c, 0, 64, 59
1, 143435, Control_c, 0, 64, 58
1, 143450, Control_c, 0, 64, 58
1, 143465, Control_c, 0, 64, 57
1, 143480, Control_c, 0, 64, 57
1, 143494, Control_c, 0, 64, 56
1, 143524, Control_c, 0, 64, 55
1, 143539, Control_c, 0, 64, 55
1, 143569, Control_c, 0, 64, 54
1, 143584, Control_c, 0, 64, 54
1, 143598, Control_c, 0, 64, 53
1, 143613, Control_c, 0, 64, 53
1, 143643, Control_c, 0, 64, 52
1, 143679, Control_c, 0, 64, 52
1, 143694, Control_c, 0, 64, 51
1, 143709, Control_c, 0, 64, 51
1, 143724, Control_c, 0, 64, 50
1, 143754, Control_c, 0, 64, 50
1, 143769, Control_c, 0, 64, 49
1, 143813, Control_c, 0, 64, 49
1, 143828, Control_c, 0, 64, 48
1, 143843, Control_c, 0, 64, 48
1, 143858, Control_c, 0, 64, 47
1, 143873, Control_c, 0, 64, 45
1, 143887, Control_c, 0, 64, 44
1, 143902, Control_c, 0, 64, 42
1, 143917, Control_c, 0, 64, 40
1, 143932, Control_c, 0, 64, 37
1, 143947, Control_c, 0, 64, 34
1, 143961, Control_c, 0, 64, 30
1, 143976, Control_c, 0, 64, 0
1, 143976, End_track
0, 0, End_of_file
