0, 0, Header, 0, 1, 384
1, 0, Start_track
1, 0, Title_t, "Iberia Book II--Gregory De Turck"
1, 0, Text_t, "2006 International Piano-e-Competition Recital Round"
1, 0, Text_t, "St. Paul, Minnesota, July 2006"
1, 0, Text_t, "http://www.piano-e-competition.com/"
1, 0, Instrument_name_t, "Yamaha Disklavier Pro Mark IV concert grand piano"
1, 0, Sequencer_specific, 39, 67, 113, 0, 1, 0, 1, 0, 73, 98, 101, 114, 105, 97, 32, 66, 111, 111, 107, 32, 73, 73, 32, 32, 71, 114, 101, 103, 111, 114, 121, 32, 68, 101, 32, 84, 117, 114, 99, 107
1, 0, Sequencer_specific, 6, 67, 113, 0, 0, 0, 69
1, 0, System_exclusive, 21, 67, 113, 126, 21, 0, 2, 2, 0, 14, 5, 1, 4, 4, 10, 9, 10, 14, 6, 2, 6, 247
1, 0, Sequencer_specific, 5, 67, 123, 12, 2, 1
1, 0, Tempo, 512820
1, 0, Time_signature, 4, 2, 24, 8
1, 0, System_exclusive, 5, 126, 127, 9, 1, 247
1, 1, System_exclusive, 8, 67, 16, 76, 0, 0, 126, 0, 247
1, 2, System_exclusive, 8, 67, 16, 76, 8, 9, 7, 1, 247
1, 3, Control_c, 0, 0, 0
1, 4, Control_c, 0, 32, 0
1, 5, Program_c, 0, 0
1, 6, Control_c, 0, 7, 100
1, 900, Control_c, 0, 67, 103
1, 908, Note_on_c, 0, 38, 45
1, 914, Control_c, 0, 67, 105
1, 929, Control_c, 0, 67, 108
1, 944, Control_c, 0, 67, 124
1, 958, Control_c, 0, 67, 127
1, 1070, Note_on_c, 0, 69, 69
1, 1082, Note_on_c, 0, 67, 60
1, 1154, Note_off_c, 0, 67, 42
1, 1207, Note_on_c, 0, 66, 54
1, 1342, Note_off_c, 0, 66, 50
1, 1349, Note_on_c, 0, 45, 45
1, 1359, Note_on_c, 0, 64, 46
1, 1382, Control_c, 0, 64, 38
1, 1395, Note_off_c, 0, 38, 42
1, 1397, Control_c, 0, 64, 53
1, 1411, Control_c, 0, 64, 60
1, 1426, Control_c, 0, 64, 61
1, 1441, Control_c, 0, 64, 62
1, 1455, Control_c, 0, 64, 62
1, 1461, Note_off_c, 0, 64, 63
1, 1470, Control_c, 0, 64, 63
1, 1475, Note_off_c, 0, 69, 56
1, 1494, Note_on_c, 0, 62, 51
1, 1500, Control_c, 0, 64, 63
1, 1566, Note_off_c, 0, 45, 62
1, 1604, Control_c, 0, 64, 63
1, 1616, Note_off_c, 0, 62, 58
1, 1619, Control_c, 0, 64, 60
1, 1623, Note_on_c, 0, 54, 53
1, 1626, Note_on_c, 0, 61, 51
1, 1634, Control_c, 0, 64, 51
1, 1649, Control_c, 0, 64, 34
1, 1663, Control_c, 0, 64, 0
1, 1674, Note_off_c, 0, 54, 56
1, 1692, Note_off_c, 0, 61, 55
1, 1775, Note_on_c, 0, 59, 56
1, 1778, Note_on_c, 0, 55, 54
1, 1796, Note_off_c, 0, 59, 62
1, 1810, Note_off_c, 0, 55, 64
1, 2055, Note_on_c, 0, 55, 46
1, 2055, Note_on_c, 0, 62, 50
1, 2056, Note_on_c, 0, 59, 45
1, 2058, Note_on_c, 0, 52, 50
1, 2078, Note_off_c, 0, 62, 58
1, 2081, Note_off_c, 0, 59, 55
1, 2085, Note_off_c, 0, 52, 56
1, 2087, Note_off_c, 0, 55, 53
1, 2319, Note_on_c, 0, 57, 55
1, 2328, Note_on_c, 0, 61, 47
1, 2330, Note_on_c, 0, 55, 40
1, 2342, Note_off_c, 0, 57, 58
1, 2353, Note_off_c, 0, 61, 55
1, 2368, Note_off_c, 0, 55, 51
1, 2608, Note_on_c, 0, 38, 59
1, 2754, Note_on_c, 0, 69, 74
1, 2758, Note_on_c, 0, 67, 69
1, 2848, Note_off_c, 0, 67, 55
1, 2897, Note_on_c, 0, 66, 53
1, 3023, Note_off_c, 0, 66, 50
1, 3025, Note_on_c, 0, 45, 44
1, 3035, Note_on_c, 0, 64, 46
1, 3042, Control_c, 0, 64, 43
1, 3057, Control_c, 0, 64, 52
1, 3072, Control_c, 0, 64, 57
1, 3087, Control_c, 0, 64, 59
1, 3101, Control_c, 0, 64, 60
1, 3107, Note_off_c, 0, 38, 37
1, 3116, Control_c, 0, 64, 61
1, 3131, Control_c, 0, 64, 62
1, 3145, Note_off_c, 0, 64, 63
1, 3146, Control_c, 0, 64, 63
1, 3161, Control_c, 0, 64, 63
1, 3163, Note_off_c, 0, 69, 58
1, 3170, Note_on_c, 0, 62, 53
1, 3175, Control_c, 0, 64, 64
1, 3270, Note_off_c, 0, 45, 62
1, 3304, Note_on_c, 0, 54, 49
1, 3305, Note_on_c, 0, 61, 60
1, 3307, Note_off_c, 0, 62, 60
1, 3354, Note_off_c, 0, 54, 57
1, 3378, Note_off_c, 0, 61, 53
1, 3390, Control_c, 0, 64, 63
1, 3405, Control_c, 0, 64, 59
1, 3421, Control_c, 0, 64, 44
1, 3435, Note_on_c, 0, 59, 64
1, 3435, Control_c, 0, 64, 0
1, 3446, Note_on_c, 0, 55, 59
1, 3461, Note_off_c, 0, 59, 65
1, 3477, Note_off_c, 0, 55, 64
1, 3697, Note_on_c, 0, 55, 51
1, 3704, Note_on_c, 0, 62, 54
1, 3706, Note_on_c, 0, 59, 40
1, 3707, Note_on_c, 0, 52, 51
1, 3723, Note_off_c, 0, 55, 58
1, 3726, Note_off_c, 0, 62, 60
1, 3732, Note_off_c, 0, 52, 57
1, 3734, Note_off_c, 0, 59, 55
1, 3967, Note_on_c, 0, 57, 57
1, 3977, Control_c, 0, 67, 106
1, 3979, Note_on_c, 0, 55, 50
1, 3979, Note_on_c, 0, 61, 51
1, 3992, Control_c, 0, 67, 71
1, 3995, Note_off_c, 0, 57, 58
1, 4002, Note_off_c, 0, 61, 60
1, 4007, Control_c, 0, 67, 0
1, 4008, Note_off_c, 0, 55, 56
1, 4266, Note_on_c, 0, 38, 74
1, 4403, Note_on_c, 0, 73, 81
1, 4418, Note_on_c, 0, 71, 65
1, 4525, Note_off_c, 0, 71, 59
1, 4552, Note_on_c, 0, 69, 56
1, 4555, Control_c, 0, 64, 40
1, 4570, Control_c, 0, 64, 50
1, 4585, Control_c, 0, 64, 54
1, 4599, Control_c, 0, 64, 57
1, 4614, Control_c, 0, 64, 59
1, 4629, Control_c, 0, 64, 60
1, 4644, Control_c, 0, 64, 61
1, 4659, Control_c, 0, 64, 63
1, 4667, Note_off_c, 0, 69, 63
1, 4673, Control_c, 0, 64, 64
1, 4685, Note_off_c, 0, 73, 62
1, 4688, Note_on_c, 0, 67, 58
1, 4688, Control_c, 0, 64, 66
1, 4692, Note_on_c, 0, 45, 56
1, 4703, Control_c, 0, 64, 68
1, 4725, Control_c, 0, 64, 69
1, 4753, Note_off_c, 0, 38, 34
1, 4770, Control_c, 0, 64, 68
1, 4785, Control_c, 0, 64, 63
1, 4799, Control_c, 0, 64, 55
1, 4806, Note_off_c, 0, 67, 62
1, 4814, Control_c, 0, 64, 53
1, 4826, Note_on_c, 0, 69, 68
1, 4829, Control_c, 0, 64, 55
1, 4829, Note_on_c, 0, 66, 66
1, 4844, Control_c, 0, 64, 59
1, 4859, Control_c, 0, 64, 63
1, 4873, Control_c, 0, 64, 65
1, 4888, Control_c, 0, 64, 66
1, 4908, Note_off_c, 0, 66, 62
1, 4912, Note_off_c, 0, 45, 55
1, 4918, Control_c, 0, 64, 67
1, 4952, Note_on_c, 0, 54, 45
1, 4960, Note_on_c, 0, 62, 66
1, 4962, Control_c, 0, 64, 66
1, 4996, Note_off_c, 0, 54, 58
1, 5014, Note_off_c, 0, 69, 56
1, 5018, Note_off_c, 0, 62, 56
1, 5066, Control_c, 0, 64, 62
1, 5080, Control_c, 0, 64, 39
1, 5095, Note_on_c, 0, 59, 62
1, 5095, Control_c, 0, 64, 0
1, 5111, Note_on_c, 0, 55, 43
1, 5114, Note_off_c, 0, 59, 64
1, 5146, Note_off_c, 0, 55, 52
1, 5351, Note_on_c, 0, 59, 61
1, 5361, Note_on_c, 0, 67, 57
1, 5366, Note_on_c, 0, 52, 54
1, 5371, Note_off_c, 0, 59, 64
1, 5377, Note_on_c, 0, 62, 29
1, 5388, Note_off_c, 0, 67, 64
1, 5391, Note_off_c, 0, 52, 58
1, 5415, Note_off_c, 0, 62, 31
1, 5628, Note_on_c, 0, 57, 65
1, 5631, Note_on_c, 0, 61, 57
1, 5637, Note_on_c, 0, 67, 55
1, 5652, Note_off_c, 0, 61, 63
1, 5654, Note_off_c, 0, 57, 64
1, 5661, Note_off_c, 0, 67, 61
1, 5908, Note_on_c, 0, 38, 74
1, 6036, Note_on_c, 0, 73, 82
1, 6052, Note_on_c, 0, 71, 66
1, 6097, Control_c, 0, 64, 40
1, 6112, Control_c, 0, 64, 52
1, 6126, Control_c, 0, 64, 56
1, 6139, Note_off_c, 0, 71, 51
1, 6141, Control_c, 0, 64, 58
1, 6156, Control_c, 0, 64, 59
1, 6171, Control_c, 0, 64, 61
1, 6174, Note_on_c, 0, 69, 54
1, 6186, Control_c, 0, 64, 62
1, 6200, Control_c, 0, 64, 63
1, 6215, Control_c, 0, 64, 65
1, 6238, Control_c, 0, 64, 67
1, 6252, Control_c, 0, 64, 68
1, 6267, Control_c, 0, 64, 70
1, 6282, Control_c, 0, 64, 71
1, 6297, Control_c, 0, 64, 72
1, 6307, Note_off_c, 0, 69, 62
1, 6317, Note_off_c, 0, 73, 60
1, 6322, Note_on_c, 0, 45, 60
1, 6323, Note_on_c, 0, 67, 65
1, 6326, Control_c, 0, 64, 70
1, 6341, Control_c, 0, 64, 63
1, 6356, Control_c, 0, 64, 52
1, 6371, Control_c, 0, 64, 47
1, 6385, Control_c, 0, 64, 50
1, 6400, Control_c, 0, 64, 58
1, 6404, Note_off_c, 0, 38, 37
1, 6416, Control_c, 0, 64, 64
1, 6431, Control_c, 0, 64, 66
1, 6445, Control_c, 0, 64, 67
1, 6446, Note_on_c, 0, 69, 72
1, 6450, Note_off_c, 0, 67, 64
1, 6456, Note_on_c, 0, 66, 69
1, 6460, Control_c, 0, 64, 68
1, 6531, Note_off_c, 0, 66, 59
1, 6534, Note_off_c, 0, 45, 63
1, 6549, Control_c, 0, 64, 67
1, 6568, Note_on_c, 0, 54, 68
1, 6578, Note_on_c, 0, 62, 73
1, 6610, Note_off_c, 0, 69, 56
1, 6628, Note_off_c, 0, 54, 53
1, 6631, Note_off_c, 0, 62, 61
1, 6683, Control_c, 0, 64, 62
1, 6698, Control_c, 0, 64, 44
1, 6713, Control_c, 0, 64, 0
1, 6716, Note_on_c, 0, 55, 70
1, 6717, Note_on_c, 0, 59, 68
1, 6742, Note_off_c, 0, 55, 65
1, 6746, Note_off_c, 0, 59, 66
1, 6976, Note_on_c, 0, 59, 62
1, 6982, Note_on_c, 0, 67, 58
1, 6987, Note_on_c, 0, 52, 63
1, 6987, Note_on_c, 0, 62, 48
1, 6994, Note_off_c, 0, 59, 63
1, 7005, Note_off_c, 0, 67, 64
1, 7013, Note_off_c, 0, 62, 55
1, 7016, Note_off_c, 0, 52, 64
1, 7250, Note_on_c, 0, 67, 68
1, 7252, Note_on_c, 0, 57, 65
1, 7253, Note_on_c, 0, 61, 58
1, 7270, Note_off_c, 0, 57, 64
1, 7274, Note_off_c, 0, 61, 61
1, 7274, Note_off_c, 0, 67, 68
1, 7541, Note_on_c, 0, 38, 83
1, 7672, Note_on_c, 0, 76, 95
1, 7701, Note_on_c, 0, 45, 63
1, 7703, Note_on_c, 0, 74, 59
1, 7735, Control_c, 0, 64, 48
1, 7740, Note_off_c, 0, 38, 52
1, 7746, Note_off_c, 0, 74, 53
1, 7750, Control_c, 0, 64, 58
1, 7765, Control_c, 0, 64, 60
1, 7779, Control_c, 0, 64, 62
1, 7794, Control_c, 0, 64, 63
1, 7800, Note_off_c, 0, 45, 63
1, 7809, Control_c, 0, 64, 64
1, 7813, Note_off_c, 0, 76, 57
1, 7813, Note_on_c, 0, 71, 63
1, 7815, Note_on_c, 0, 48, 75
1, 7823, Control_c, 0, 64, 66
1, 7838, Control_c, 0, 64, 68
1, 7849, Note_off_c, 0, 48, 64
1, 7853, Control_c, 0, 64, 71
1, 7868, Control_c, 0, 64, 73
1, 7883, Control_c, 0, 64, 75
1, 7897, Control_c, 0, 64, 76
1, 7912, Control_c, 0, 64, 76
1, 7939, Note_off_c, 0, 71, 0
1, 7942, Control_c, 0, 64, 74
1, 7947, Note_on_c, 0, 50, 71
1, 7947, Note_on_c, 0, 74, 90
1, 7956, Control_c, 0, 64, 64
1, 7957, Note_on_c, 0, 73, 74
1, 7971, Control_c, 0, 64, 37
1, 7986, Control_c, 0, 64, 0
1, 8008, Poly_aftertouch_c, 0, 71, 0
1, 8016, Control_c, 0, 64, 30
1, 8028, Note_off_c, 0, 73, 46
1, 8031, Control_c, 0, 64, 51
1, 8046, Control_c, 0, 64, 63
1, 8058, Note_off_c, 0, 74, 60
1, 8061, Control_c, 0, 64, 65
1, 8067, Note_off_c, 0, 50, 63
1, 8075, Note_on_c, 0, 69, 70
1, 8075, Control_c, 0, 64, 66
1, 8087, Note_on_c, 0, 54, 57
1, 8136, Note_off_c, 0, 69, 59
1, 8169, Note_off_c, 0, 54, 62
1, 8203, Note_on_c, 0, 71, 73
1, 8210, Note_on_c, 0, 66, 66
1, 8214, Note_on_c, 0, 60, 62
1, 8239, Note_off_c, 0, 66, 68
1, 8246, Note_off_c, 0, 60, 65
1, 8281, Note_off_c, 0, 71, 57
1, 8297, Control_c, 0, 64, 65
1, 8312, Control_c, 0, 64, 56
1, 8327, Control_c, 0, 64, 0
1, 8335, Note_on_c, 0, 67, 78
1, 8342, Note_on_c, 0, 59, 68
1, 8354, Note_off_c, 0, 67, 72
1, 8371, Note_off_c, 0, 59, 65
1, 8604, Note_on_c, 0, 74, 66
1, 8604, Note_on_c, 0, 79, 68
1, 8606, Note_on_c, 0, 67, 62
1, 8607, Note_on_c, 0, 52, 66
1, 8611, Note_on_c, 0, 59, 47
1, 8624, Note_off_c, 0, 74, 65
1, 8626, Note_off_c, 0, 67, 63
1, 8627, Note_off_c, 0, 79, 70
1, 8633, Note_on_c, 0, 64, 16
1, 8634, Note_off_c, 0, 52, 65
1, 8636, Note_off_c, 0, 59, 55
1, 8676, Note_off_c, 0, 64, 30
1, 8873, Note_on_c, 0, 64, 67
1, 8873, Note_on_c, 0, 67, 60
1, 8873, Note_on_c, 0, 73, 66
1, 8874, Note_on_c, 0, 79, 53
1, 8876, Note_on_c, 0, 57, 66
1, 8894, Note_off_c, 0, 67, 62
1, 8895, Note_off_c, 0, 79, 62
1, 8900, Note_off_c, 0, 73, 68
1, 8901, Note_off_c, 0, 64, 66
1, 8903, Note_off_c, 0, 57, 64
1, 9149, Note_on_c, 0, 38, 86
1, 9284, Note_on_c, 0, 76, 91
1, 9297, Note_on_c, 0, 74, 79
1, 9298, Note_on_c, 0, 45, 71
1, 9307, Control_c, 0, 64, 52
1, 9321, Control_c, 0, 64, 60
1, 9323, Note_off_c, 0, 38, 58
1, 9336, Control_c, 0, 64, 60
1, 9351, Control_c, 0, 64, 61
1, 9354, Note_off_c, 0, 74, 43
1, 9366, Control_c, 0, 64, 63
1, 9381, Control_c, 0, 64, 64
1, 9395, Control_c, 0, 64, 66
1, 9398, Note_off_c, 0, 45, 62
1, 9401, Note_off_c, 0, 76, 54
1, 9411, Control_c, 0, 64, 68
1, 9415, Note_on_c, 0, 48, 78
1, 9420, Note_on_c, 0, 71, 65
1, 9426, Control_c, 0, 64, 70
1, 9441, Control_c, 0, 64, 73
1, 9448, Note_off_c, 0, 48, 65
1, 9456, Control_c, 0, 64, 74
1, 9470, Control_c, 0, 64, 76
1, 9485, Control_c, 0, 64, 77
1, 9526, Note_off_c, 0, 71, 0
1, 9530, Control_c, 0, 64, 73
1, 9544, Control_c, 0, 64, 58
1, 9550, Note_on_c, 0, 74, 85
1, 9551, Note_on_c, 0, 50, 80
1, 9553, Note_on_c, 0, 73, 77
1, 9559, Control_c, 0, 64, 0
1, 9563, Poly_aftertouch_c, 0, 71, 127
1, 9598, Poly_aftertouch_c, 0, 71, 0
1, 9618, Control_c, 0, 64, 46
1, 9633, Control_c, 0, 64, 62
1, 9639, Note_off_c, 0, 73, 60
1, 9648, Control_c, 0, 64, 65
1, 9654, Note_off_c, 0, 74, 62
1, 9662, Control_c, 0, 64, 66
1, 9677, Note_off_c, 0, 50, 60
1, 9679, Note_on_c, 0, 69, 72
1, 9685, Note_on_c, 0, 54, 68
1, 9692, Control_c, 0, 64, 67
1, 9739, Note_off_c, 0, 69, 60
1, 9770, Note_off_c, 0, 54, 61
1, 9805, Note_on_c, 0, 71, 76
1, 9807, Note_on_c, 0, 66, 79
1, 9812, Note_on_c, 0, 60, 73
1, 9852, Note_off_c, 0, 60, 61
1, 9855, Note_off_c, 0, 66, 58
1, 9887, Note_off_c, 0, 71, 58
1, 9900, Control_c, 0, 64, 65
1, 9914, Control_c, 0, 64, 49
1, 9929, Control_c, 0, 64, 0
1, 9943, Note_on_c, 0, 67, 85
1, 9950, Note_on_c, 0, 59, 74
1, 9969, Note_off_c, 0, 67, 73
1, 9989, Note_off_c, 0, 59, 63
1, 10222, Note_on_c, 0, 74, 66
1, 10223, Note_on_c, 0, 79, 65
1, 10228, Note_on_c, 0, 67, 59
1, 10231, Note_on_c, 0, 52, 64
1, 10234, Note_on_c, 0, 64, 50
1, 10237, Note_on_c, 0, 59, 47
1, 10240, Note_off_c, 0, 74, 65
1, 10247, Note_off_c, 0, 79, 70
1, 10251, Note_off_c, 0, 67, 62
1, 10258, Note_off_c, 0, 64, 59
1, 10260, Note_off_c, 0, 52, 63
1, 10263, Note_off_c, 0, 59, 58
1, 10481, Note_on_c, 0, 67, 66
1, 10481, Note_on_c, 0, 79, 65
1, 10482, Note_on_c, 0, 64, 64
1, 10486, Note_on_c, 0, 57, 61
1, 10490, Note_on_c, 0, 73, 56
1, 10500, Note_off_c, 0, 67, 66
1, 10505, Note_off_c, 0, 79, 69
1, 10508, Note_off_c, 0, 57, 64
1, 10509, Note_off_c, 0, 73, 63
1, 10511, Note_off_c, 0, 64, 66
1, 10775, Note_on_c, 0, 62, 96
1, 10804, Control_c, 0, 64, 49
1, 10818, Control_c, 0, 64, 69
1, 10833, Control_c, 0, 64, 81
1, 10849, Control_c, 0, 64, 88
1, 10864, Control_c, 0, 64, 88
1, 10879, Note_off_c, 0, 62, 64
1, 10894, Control_c, 0, 64, 89
1, 10908, Control_c, 0, 64, 89
1, 10913, Note_on_c, 0, 81, 88
1, 10915, Note_on_c, 0, 69, 91
1, 10918, Note_on_c, 0, 79, 79
1, 10937, Control_c, 0, 64, 90
1, 10964, Note_off_c, 0, 69, 62
1, 10982, Control_c, 0, 64, 90
1, 10991, Note_off_c, 0, 81, 63
1, 10995, Note_off_c, 0, 79, 60
1, 11027, Control_c, 0, 64, 91
1, 11039, Note_on_c, 0, 76, 87
1, 11070, Note_off_c, 0, 76, 58
1, 11101, Control_c, 0, 64, 91
1, 11115, Control_c, 0, 64, 93
1, 11130, Control_c, 0, 64, 97
1, 11145, Control_c, 0, 64, 107
1, 11159, Control_c, 0, 64, 127
1, 11170, Note_on_c, 0, 78, 99
1, 11199, Note_off_c, 0, 78, 66
1, 11308, Note_on_c, 0, 74, 81
1, 11308, Note_on_c, 0, 81, 77
1, 11366, Note_off_c, 0, 81, 58
1, 11367, Note_off_c, 0, 74, 59
1, 11438, Note_on_c, 0, 73, 86
1, 11473, Note_off_c, 0, 73, 61
1, 11581, Control_c, 0, 64, 77
1, 11596, Note_on_c, 0, 71, 78
1, 11596, Control_c, 0, 64, 0
1, 11619, Note_off_c, 0, 71, 69
1, 11847, Note_on_c, 0, 84, 80
1, 11852, Note_on_c, 0, 67, 69
1, 11852, Note_on_c, 0, 76, 68
1, 11853, Note_on_c, 0, 72, 65
1, 11858, Note_on_c, 0, 60, 65
1, 11867, Note_off_c, 0, 84, 70
1, 11870, Note_off_c, 0, 72, 66
1, 11870, Note_off_c, 0, 76, 67
1, 11876, Note_off_c, 0, 67, 68
1, 11888, Note_off_c, 0, 60, 67
1, 12116, Note_on_c, 0, 73, 80
1, 12116, Note_on_c, 0, 85, 75
1, 12117, Note_on_c, 0, 57, 72
1, 12117, Note_on_c, 0, 79, 75
1, 12120, Note_on_c, 0, 69, 68
1, 12127, Note_on_c, 0, 64, 63
1, 12135, Note_off_c, 0, 73, 72
1, 12137, Note_off_c, 0, 79, 71
1, 12138, Note_off_c, 0, 85, 69
1, 12144, Note_off_c, 0, 57, 66
1, 12145, Note_off_c, 0, 69, 69
1, 12152, Note_off_c, 0, 64, 65
1, 12403, Note_on_c, 0, 62, 102
1, 12435, Control_c, 0, 64, 44
1, 12450, Control_c, 0, 64, 67
1, 12465, Control_c, 0, 64, 69
1, 12480, Control_c, 0, 64, 70
1, 12494, Control_c, 0, 64, 70
1, 12509, Control_c, 0, 64, 72
1, 12520, Note_off_c, 0, 62, 63
1, 12524, Control_c, 0, 64, 75
1, 12533, Note_on_c, 0, 81, 85
1, 12538, Note_on_c, 0, 69, 84
1, 12538, Control_c, 0, 64, 79
1, 12539, Note_on_c, 0, 79, 71
1, 12553, Control_c, 0, 64, 81
1, 12558, Note_off_c, 0, 69, 70
1, 12568, Control_c, 0, 64, 83
1, 12583, Control_c, 0, 64, 84
1, 12598, Control_c, 0, 64, 86
1, 12612, Control_c, 0, 64, 86
1, 12625, Note_off_c, 0, 79, 58
1, 12627, Control_c, 0, 64, 87
1, 12633, Note_off_c, 0, 81, 56
1, 12657, Control_c, 0, 64, 87
1, 12664, Note_on_c, 0, 76, 90
1, 12672, Control_c, 0, 64, 88
1, 12687, Control_c, 0, 64, 88
1, 12707, Note_off_c, 0, 76, 65
1, 12717, Control_c, 0, 64, 89
1, 12791, Control_c, 0, 64, 89
1, 12791, Note_on_c, 0, 78, 102
1, 12806, Control_c, 0, 64, 90
1, 12820, Control_c, 0, 64, 94
1, 12822, Note_off_c, 0, 78, 68
1, 12835, Control_c, 0, 64, 105
1, 12850, Control_c, 0, 64, 127
1, 12927, Note_on_c, 0, 81, 78
1, 12929, Note_on_c, 0, 74, 89
1, 12999, Note_off_c, 0, 74, 57
1, 13003, Note_off_c, 0, 81, 55
1, 13061, Note_on_c, 0, 73, 96
1, 13100, Note_off_c, 0, 73, 63
1, 13184, Control_c, 0, 64, 122
1, 13199, Control_c, 0, 64, 67
1, 13204, Note_on_c, 0, 71, 96
1, 13213, Control_c, 0, 64, 0
1, 13228, Note_off_c, 0, 71, 66
1, 13457, Note_on_c, 0, 84, 99
1, 13459, Note_on_c, 0, 67, 86
1, 13459, Note_on_c, 0, 72, 95
1, 13459, Note_on_c, 0, 76, 91
1, 13463, Note_on_c, 0, 60, 76
1, 13479, Note_off_c, 0, 67, 68
1, 13480, Note_off_c, 0, 72, 65
1, 13480, Note_off_c, 0, 76, 68
1, 13491, Note_off_c, 0, 60, 67
1, 13493, Note_off_c, 0, 84, 66
1, 13710, Poly_aftertouch_c, 0, 80, 0
1, 13742, Note_on_c, 0, 85, 93
1, 13745, Note_on_c, 0, 73, 100
1, 13745, Note_on_c, 0, 79, 95
1, 13746, Note_on_c, 0, 57, 83
1, 13748, Note_on_c, 0, 69, 97
1, 13749, Note_on_c, 0, 64, 91
1, 13771, Note_off_c, 0, 57, 69
1, 13772, Note_off_c, 0, 73, 67
1, 13776, Note_off_c, 0, 64, 66
1, 13776, Note_off_c, 0, 69, 67
1, 13778, Note_off_c, 0, 79, 71
1, 13779, Note_off_c, 0, 85, 69
1, 13793, Note_on_c, 0, 78, 15
1, 13793, Note_off_c, 0, 78, 127
1, 14050, Note_on_c, 0, 62, 74
1, 14061, Note_on_c, 0, 74, 100
1, 14067, Note_on_c, 0, 69, 46
1, 14074, Note_on_c, 0, 78, 41
1, 14091, Note_off_c, 0, 62, 64
1, 14093, Note_off_c, 0, 69, 57
1, 14103, Note_off_c, 0, 78, 47
1, 14109, Note_off_c, 0, 74, 68
1, 14184, Note_on_c, 0, 69, 75
1, 14184, Note_on_c, 0, 81, 78
1, 14198, Note_on_c, 0, 78, 53
1, 14207, Note_off_c, 0, 69, 69
1, 14221, Note_off_c, 0, 78, 58
1, 14225, Note_off_c, 0, 81, 64
1, 14325, Note_on_c, 0, 74, 95
1, 14342, Note_off_c, 0, 74, 75
1, 14467, Note_on_c, 0, 76, 84
1, 14490, Note_off_c, 0, 76, 67
1, 14591, Note_on_c, 0, 78, 82
1, 14610, Note_off_c, 0, 78, 70
1, 14717, Note_on_c, 0, 79, 71
1, 14726, Note_on_c, 0, 69, 61
1, 14729, Note_on_c, 0, 73, 58
1, 14740, Note_off_c, 0, 79, 68
1, 14747, Note_off_c, 0, 69, 64
1, 14748, Note_off_c, 0, 73, 62
1, 14869, Note_on_c, 0, 62, 70
1, 14889, Control_c, 0, 64, 32
1, 14896, Note_off_c, 0, 62, 66
1, 14904, Control_c, 0, 64, 55
1, 14919, Control_c, 0, 64, 61
1, 14933, Control_c, 0, 64, 63
1, 14948, Control_c, 0, 64, 64
1, 14963, Control_c, 0, 64, 65
1, 14978, Control_c, 0, 64, 67
1, 14993, Control_c, 0, 64, 69
1, 14996, Note_on_c, 0, 69, 84
1, 14996, Note_on_c, 0, 81, 81
1, 14998, Note_on_c, 0, 79, 73
1, 15007, Control_c, 0, 64, 69
1, 15015, Note_off_c, 0, 69, 68
1, 15018, Note_off_c, 0, 79, 71
1, 15022, Control_c, 0, 64, 70
1, 15033, Note_off_c, 0, 81, 62
1, 15081, Control_c, 0, 64, 70
1, 15125, Control_c, 0, 64, 69
1, 15137, Note_on_c, 0, 76, 65
1, 15140, Control_c, 0, 64, 62
1, 15155, Control_c, 0, 64, 36
1, 15170, Control_c, 0, 64, 0
1, 15171, Note_off_c, 0, 76, 59
1, 15271, Note_on_c, 0, 81, 61
1, 15273, Note_on_c, 0, 69, 62
1, 15278, Note_on_c, 0, 78, 55
1, 15292, Note_off_c, 0, 69, 64
1, 15298, Note_off_c, 0, 78, 59
1, 15301, Note_off_c, 0, 81, 65
1, 15392, Note_on_c, 0, 74, 70
1, 15415, Note_off_c, 0, 74, 70
1, 15519, Note_on_c, 0, 73, 63
1, 15520, Note_on_c, 0, 81, 68
1, 15521, Note_on_c, 0, 69, 59
1, 15538, Note_off_c, 0, 73, 66
1, 15542, Note_off_c, 0, 69, 61
1, 15547, Note_off_c, 0, 81, 65
1, 15646, Note_on_c, 0, 86, 90
1, 15651, Note_on_c, 0, 81, 88
1, 15653, Control_c, 0, 64, 29
1, 15653, Note_on_c, 0, 74, 90
1, 15665, Note_on_c, 0, 62, 72
1, 15668, Control_c, 0, 64, 50
1, 15683, Control_c, 0, 64, 57
1, 15698, Control_c, 0, 64, 60
1, 15712, Control_c, 0, 64, 61
1, 15713, Note_off_c, 0, 74, 57
1, 15727, Control_c, 0, 64, 62
1, 15742, Control_c, 0, 64, 64
1, 15752, Note_off_c, 0, 81, 59
1, 15756, Control_c, 0, 64, 65
1, 15760, Note_off_c, 0, 62, 60
1, 15762, Note_off_c, 0, 86, 60
1, 15771, Control_c, 0, 64, 67
1, 15786, Control_c, 0, 64, 69
1, 15790, Note_on_c, 0, 79, 78
1, 15797, Note_on_c, 0, 71, 72
1, 15801, Control_c, 0, 64, 69
1, 15816, Control_c, 0, 64, 70
1, 15845, Control_c, 0, 64, 69
1, 15875, Control_c, 0, 64, 69
1, 15879, Note_off_c, 0, 71, 60
1, 15890, Control_c, 0, 64, 68
1, 15896, Note_off_c, 0, 79, 54
1, 15920, Note_on_c, 0, 86, 88
1, 15921, Note_on_c, 0, 81, 86
1, 15924, Note_on_c, 0, 76, 72
1, 15927, Note_on_c, 0, 74, 80
1, 15993, Note_off_c, 0, 74, 59
1, 15996, Note_off_c, 0, 76, 61
1, 16031, Note_off_c, 0, 86, 63
1, 16033, Note_off_c, 0, 81, 60
1, 16045, Control_c, 0, 64, 69
1, 16058, Note_on_c, 0, 83, 89
1, 16058, Note_on_c, 0, 78, 74
1, 16060, Control_c, 0, 64, 69
1, 16075, Control_c, 0, 64, 70
1, 16089, Control_c, 0, 64, 70
1, 16104, Control_c, 0, 64, 71
1, 16127, Note_off_c, 0, 83, 61
1, 16134, Control_c, 0, 64, 71
1, 16143, Note_off_c, 0, 78, 58
1, 16150, Control_c, 0, 64, 72
1, 16164, Control_c, 0, 64, 72
1, 16179, Control_c, 0, 64, 73
1, 16189, Note_on_c, 0, 81, 92
1, 16193, Note_on_c, 0, 86, 87
1, 16196, Note_on_c, 0, 74, 87
1, 16196, Note_on_c, 0, 79, 78
1, 16209, Control_c, 0, 64, 73
1, 16229, Note_off_c, 0, 74, 52
1, 16249, Note_off_c, 0, 79, 63
1, 16279, Note_off_c, 0, 86, 63
1, 16280, Note_off_c, 0, 81, 61
1, 16327, Note_on_c, 0, 76, 83
1, 16333, Note_on_c, 0, 79, 84
1, 16347, Note_off_c, 0, 76, 69
1, 16377, Note_off_c, 0, 79, 63
1, 16416, Control_c, 0, 64, 72
1, 16432, Control_c, 0, 64, 66
1, 16447, Control_c, 0, 64, 55
1, 16461, Control_c, 0, 64, 42
1, 16466, Note_on_c, 0, 62, 87
1, 16476, Control_c, 0, 64, 40
1, 16491, Control_c, 0, 64, 43
1, 16505, Control_c, 0, 64, 53
1, 16520, Control_c, 0, 64, 59
1, 16535, Control_c, 0, 64, 62
1, 16550, Control_c, 0, 64, 64
1, 16554, Note_off_c, 0, 62, 60
1, 16565, Control_c, 0, 64, 65
1, 16580, Control_c, 0, 64, 66
1, 16593, Note_on_c, 0, 79, 79
1, 16595, Control_c, 0, 64, 67
1, 16595, Note_on_c, 0, 69, 84
1, 16597, Note_on_c, 0, 81, 78
1, 16610, Control_c, 0, 64, 68
1, 16620, Note_off_c, 0, 69, 64
1, 16635, Note_off_c, 0, 81, 63
1, 16640, Note_off_c, 0, 79, 64
1, 16640, Control_c, 0, 64, 68
1, 16654, Control_c, 0, 64, 69
1, 16669, Control_c, 0, 64, 69
1, 16720, Control_c, 0, 64, 66
1, 16729, Note_on_c, 0, 76, 78
1, 16735, Control_c, 0, 64, 56
1, 16750, Control_c, 0, 64, 0
1, 16756, Note_off_c, 0, 76, 64
1, 16865, Note_on_c, 0, 69, 67
1, 16865, Note_on_c, 0, 81, 66
1, 16886, Note_on_c, 0, 78, 39
1, 16890, Note_off_c, 0, 69, 65
1, 16896, Note_off_c, 0, 81, 61
1, 16915, Note_off_c, 0, 78, 46
1, 16995, Note_on_c, 0, 74, 76
1, 17019, Note_off_c, 0, 74, 69
1, 17117, Note_on_c, 0, 81, 69
1, 17120, Note_on_c, 0, 69, 55
1, 17120, Note_on_c, 0, 73, 53
1, 17141, Note_off_c, 0, 73, 59
1, 17142, Note_off_c, 0, 69, 60
1, 17144, Note_off_c, 0, 81, 64
1, 17248, Note_on_c, 0, 86, 99
1, 17251, Note_on_c, 0, 81, 89
1, 17255, Control_c, 0, 64, 43
1, 17257, Note_on_c, 0, 72, 75
1, 17259, Note_on_c, 0, 74, 77
1, 17260, Note_on_c, 0, 62, 80
1, 17270, Control_c, 0, 64, 55
1, 17281, Note_off_c, 0, 74, 66
1, 17284, Control_c, 0, 64, 58
1, 17290, Note_off_c, 0, 72, 53
1, 17299, Control_c, 0, 64, 59
1, 17314, Control_c, 0, 64, 61
1, 17320, Note_off_c, 0, 62, 63
1, 17328, Control_c, 0, 64, 64
1, 17343, Control_c, 0, 64, 66
1, 17358, Control_c, 0, 64, 68
1, 17373, Control_c, 0, 64, 70
1, 17388, Note_on_c, 0, 83, 88
1, 17388, Control_c, 0, 64, 72
1, 17396, Note_on_c, 0, 76, 69
1, 17397, Note_off_c, 0, 86, 63
1, 17403, Control_c, 0, 64, 73
1, 17409, Note_off_c, 0, 81, 59
1, 17433, Note_off_c, 0, 76, 58
1, 17447, Control_c, 0, 64, 72
1, 17470, Control_c, 0, 64, 69
1, 17484, Control_c, 0, 64, 65
1, 17499, Control_c, 0, 64, 61
1, 17508, Note_off_c, 0, 83, 57
1, 17514, Control_c, 0, 64, 61
1, 17522, Note_on_c, 0, 84, 84
1, 17525, Note_on_c, 0, 78, 67
1, 17525, Note_on_c, 0, 86, 83
1, 17526, Note_on_c, 0, 74, 89
1, 17529, Control_c, 0, 64, 63
1, 17543, Control_c, 0, 64, 66
1, 17558, Control_c, 0, 64, 69
1, 17573, Control_c, 0, 64, 73
1, 17588, Control_c, 0, 64, 76
1, 17603, Control_c, 0, 64, 77
1, 17614, Note_off_c, 0, 74, 60
1, 17632, Note_off_c, 0, 78, 57
1, 17632, Control_c, 0, 64, 75
1, 17647, Control_c, 0, 64, 68
1, 17662, Control_c, 0, 64, 57
1, 17668, Note_on_c, 0, 79, 65
1, 17671, Note_off_c, 0, 86, 62
1, 17671, Note_on_c, 0, 83, 78
1, 17677, Control_c, 0, 64, 45
1, 17683, Note_on_c, 0, 81, 72
1, 17692, Control_c, 0, 64, 46
1, 17703, Note_off_c, 0, 84, 64
1, 17705, Note_off_c, 0, 81, 53
1, 17707, Control_c, 0, 64, 54
1, 17722, Control_c, 0, 64, 63
1, 17722, Note_off_c, 0, 79, 61
1, 17727, Note_off_c, 0, 83, 64
1, 17736, Control_c, 0, 64, 69
1, 17751, Control_c, 0, 64, 73
1, 17766, Control_c, 0, 64, 74
1, 17781, Control_c, 0, 64, 75
1, 17791, Note_on_c, 0, 86, 89
1, 17798, Note_on_c, 0, 76, 77
1, 17804, Note_on_c, 0, 74, 79
1, 17814, Note_on_c, 0, 81, 72
1, 17828, Note_off_c, 0, 74, 65
1, 17835, Note_off_c, 0, 76, 58
1, 17880, Note_off_c, 0, 86, 61
1, 17887, Note_off_c, 0, 81, 57
1, 17925, Note_on_c, 0, 79, 84
1, 17927, Note_on_c, 0, 83, 85
1, 17943, Note_off_c, 0, 83, 74
1, 17959, Control_c, 0, 64, 75
1, 17972, Note_off_c, 0, 79, 64
1, 18018, Control_c, 0, 64, 74
1, 18034, Control_c, 0, 64, 66
1, 18049, Control_c, 0, 64, 49
1, 18064, Control_c, 0, 64, 31
1, 18064, Note_on_c, 0, 62, 84
1, 18079, Control_c, 0, 64, 0
1, 18094, Control_c, 0, 64, 32
1, 18108, Control_c, 0, 64, 44
1, 18123, Control_c, 0, 64, 54
1, 18138, Control_c, 0, 64, 60
1, 18152, Note_off_c, 0, 62, 60
1, 18152, Control_c, 0, 64, 62
1, 18167, Control_c, 0, 64, 63
1, 18182, Control_c, 0, 64, 64
1, 18197, Control_c, 0, 64, 65
1, 18207, Note_on_c, 0, 69, 79
1, 18208, Note_on_c, 0, 81, 71
1, 18208, Note_on_c, 0, 79, 70
1, 18219, Control_c, 0, 64, 66
1, 18229, Note_off_c, 0, 69, 66
1, 18232, Note_off_c, 0, 79, 67
1, 18237, Note_off_c, 0, 81, 63
1, 18308, Control_c, 0, 64, 62
1, 18323, Control_c, 0, 64, 49
1, 18338, Control_c, 0, 64, 0
1, 18339, Note_on_c, 0, 76, 66
1, 18367, Note_off_c, 0, 76, 66
1, 18460, Note_on_c, 0, 69, 64
1, 18462, Note_on_c, 0, 81, 62
1, 18468, Note_on_c, 0, 78, 50
1, 18478, Note_off_c, 0, 69, 66
1, 18488, Note_off_c, 0, 81, 65
1, 18491, Note_off_c, 0, 78, 55
1, 18586, Note_on_c, 0, 74, 70
1, 18607, Note_off_c, 0, 74, 65
1, 18678, Control_c, 0, 64, 47
1, 18693, Control_c, 0, 64, 59
1, 18708, Control_c, 0, 64, 62
1, 18712, Note_on_c, 0, 81, 75
1, 18713, Note_on_c, 0, 69, 69
1, 18714, Note_on_c, 0, 73, 66
1, 18723, Control_c, 0, 64, 64
1, 18735, Note_off_c, 0, 81, 67
1, 18738, Control_c, 0, 64, 65
1, 18739, Note_off_c, 0, 69, 67
1, 18739, Note_off_c, 0, 73, 65
1, 18752, Control_c, 0, 64, 67
1, 18767, Control_c, 0, 64, 67
1, 18797, Control_c, 0, 64, 67
1, 18812, Control_c, 0, 64, 61
1, 18828, Control_c, 0, 64, 40
1, 18842, Note_on_c, 0, 71, 92
1, 18842, Control_c, 0, 64, 0
1, 18843, Note_on_c, 0, 62, 84
1, 18843, Note_on_c, 0, 83, 84
1, 18844, Note_on_c, 0, 81, 83
1, 18863, Note_off_c, 0, 71, 66
1, 18864, Note_off_c, 0, 83, 62
1, 18873, Note_off_c, 0, 81, 59
1, 18878, Note_off_c, 0, 62, 64
1, 18997, Note_on_c, 0, 79, 56
1, 19018, Note_off_c, 0, 79, 65
1, 19109, Note_on_c, 0, 74, 86
1, 19114, Note_on_c, 0, 83, 80
1, 19120, Note_on_c, 0, 78, 70
1, 19123, Note_on_c, 0, 71, 67
1, 19130, Note_off_c, 0, 74, 68
1, 19145, Note_off_c, 0, 78, 62
1, 19151, Note_off_c, 0, 71, 66
1, 19154, Note_off_c, 0, 83, 57
1, 19248, Note_on_c, 0, 72, 60
1, 19253, Note_on_c, 0, 79, 70
1, 19254, Note_on_c, 0, 76, 75
1, 19261, Note_on_c, 0, 67, 66
1, 19267, Note_off_c, 0, 72, 63
1, 19281, Note_off_c, 0, 67, 66
1, 19286, Note_off_c, 0, 76, 58
1, 19287, Note_off_c, 0, 79, 58
1, 19388, Note_on_c, 0, 69, 50
1, 19392, Note_on_c, 0, 74, 66
1, 19411, Note_off_c, 0, 74, 65
1, 19414, Note_off_c, 0, 69, 57
1, 19500, Note_on_c, 0, 76, 71
1, 19506, Note_on_c, 0, 72, 71
1, 19512, Note_on_c, 0, 79, 65
1, 19524, Note_off_c, 0, 76, 65
1, 19528, Note_off_c, 0, 72, 69
1, 19532, Note_on_c, 0, 67, 34
1, 19536, Note_off_c, 0, 79, 69
1, 19567, Note_off_c, 0, 67, 36
1, 19648, Note_on_c, 0, 62, 79
1, 19680, Control_c, 0, 64, 39
1, 19702, Control_c, 0, 64, 56
1, 19717, Control_c, 0, 64, 60
1, 19718, Note_off_c, 0, 62, 62
1, 19731, Control_c, 0, 64, 61
1, 19746, Control_c, 0, 64, 62
1, 19761, Control_c, 0, 64, 63
1, 19776, Control_c, 0, 64, 65
1, 19790, Note_on_c, 0, 79, 75
1, 19791, Control_c, 0, 64, 65
1, 19793, Note_on_c, 0, 69, 78
1, 19800, Note_on_c, 0, 81, 61
1, 19805, Control_c, 0, 64, 66
1, 19813, Note_off_c, 0, 79, 68
1, 19814, Note_off_c, 0, 69, 68
1, 19818, Note_off_c, 0, 81, 65
1, 19835, Control_c, 0, 64, 67
1, 19880, Control_c, 0, 64, 64
1, 19894, Control_c, 0, 64, 50
1, 19909, Control_c, 0, 64, 0
1, 19924, Note_on_c, 0, 76, 63
1, 19943, Note_off_c, 0, 76, 64
1, 20041, Note_on_c, 0, 81, 65
1, 20044, Note_on_c, 0, 69, 65
1, 20049, Note_on_c, 0, 78, 65
1, 20064, Note_off_c, 0, 69, 66
1, 20065, Note_off_c, 0, 81, 68
1, 20075, Note_off_c, 0, 78, 63
1, 20181, Note_on_c, 0, 74, 64
1, 20198, Note_off_c, 0, 74, 65
1, 20220, Control_c, 0, 64, 31
1, 20235, Control_c, 0, 64, 55
1, 20249, Control_c, 0, 64, 60
1, 20264, Control_c, 0, 64, 61
1, 20279, Control_c, 0, 64, 62
1, 20294, Control_c, 0, 64, 64
1, 20300, Note_on_c, 0, 81, 74
1, 20301, Note_on_c, 0, 69, 64
1, 20306, Note_on_c, 0, 73, 62
1, 20309, Control_c, 0, 64, 66
1, 20321, Note_off_c, 0, 69, 65
1, 20323, Control_c, 0, 64, 67
1, 20326, Note_off_c, 0, 81, 65
1, 20327, Note_off_c, 0, 73, 65
1, 20338, Control_c, 0, 64, 69
1, 20353, Control_c, 0, 64, 70
1, 20412, Control_c, 0, 64, 66
1, 20428, Control_c, 0, 64, 51
1, 20437, Note_on_c, 0, 71, 89
1, 20447, Note_on_c, 0, 81, 83
1, 20447, Note_on_c, 0, 83, 84
1, 20449, Note_on_c, 0, 62, 78
1, 20450, Control_c, 0, 64, 0
1, 20465, Note_off_c, 0, 71, 67
1, 20467, Note_off_c, 0, 83, 67
1, 20471, Note_off_c, 0, 81, 64
1, 20486, Note_off_c, 0, 62, 63
1, 20589, Note_on_c, 0, 79, 63
1, 20596, Note_on_c, 0, 64, 47
1, 20615, Note_off_c, 0, 79, 69
1, 20621, Note_off_c, 0, 64, 58
1, 20711, Note_on_c, 0, 83, 77
1, 20717, Note_on_c, 0, 74, 77
1, 20726, Note_on_c, 0, 71, 60
1, 20729, Note_on_c, 0, 78, 51
1, 20740, Note_off_c, 0, 74, 68
1, 20747, Note_off_c, 0, 83, 54
1, 20747, Note_off_c, 0, 71, 61
1, 20752, Note_off_c, 0, 78, 37
1, 20847, Note_on_c, 0, 79, 70
1, 20849, Note_on_c, 0, 67, 75
1, 20852, Note_on_c, 0, 76, 68
1, 20853, Note_on_c, 0, 72, 59
1, 20872, Note_off_c, 0, 67, 70
1, 20872, Note_off_c, 0, 72, 61
1, 20872, Note_off_c, 0, 79, 64
1, 20877, Note_off_c, 0, 76, 69
1, 20980, Note_on_c, 0, 74, 66
1, 20992, Note_on_c, 0, 69, 40
1, 21009, Note_off_c, 0, 74, 63
1, 21023, Note_off_c, 0, 69, 53
1, 21110, Note_on_c, 0, 76, 63
1, 21111, Note_on_c, 0, 72, 71
1, 21129, Note_off_c, 0, 76, 64
1, 21130, Note_on_c, 0, 67, 46
1, 21134, Note_off_c, 0, 72, 69
1, 21137, Note_on_c, 0, 79, 35
1, 21145, Note_on_c, 0, 77, 23
1, 21159, Note_off_c, 0, 67, 36
1, 21168, Note_off_c, 0, 79, 55
1, 21185, Note_off_c, 0, 77, 30
1, 21255, Note_on_c, 0, 62, 72
1, 21258, Control_c, 0, 64, 42
1, 21273, Control_c, 0, 64, 58
1, 21288, Control_c, 0, 64, 59
1, 21302, Control_c, 0, 64, 60
1, 21307, Note_off_c, 0, 62, 59
1, 21317, Control_c, 0, 64, 61
1, 21332, Control_c, 0, 64, 62
1, 21347, Control_c, 0, 64, 62
1, 21362, Control_c, 0, 64, 63
1, 21376, Control_c, 0, 64, 63
1, 21388, Note_on_c, 0, 81, 66
1, 21391, Note_on_c, 0, 69, 68
1, 21391, Control_c, 0, 64, 64
1, 21399, Note_on_c, 0, 79, 45
1, 21406, Control_c, 0, 64, 64
1, 21408, Note_off_c, 0, 69, 67
1, 21418, Note_off_c, 0, 81, 63
1, 21421, Control_c, 0, 64, 65
1, 21424, Note_off_c, 0, 79, 59
1, 21480, Control_c, 0, 64, 63
1, 21494, Control_c, 0, 64, 51
1, 21509, Control_c, 0, 64, 0
1, 21513, Note_on_c, 0, 76, 71
1, 21538, Note_off_c, 0, 76, 68
1, 21636, Note_on_c, 0, 69, 65
1, 21636, Note_on_c, 0, 78, 68
1, 21641, Note_on_c, 0, 81, 58
1, 21662, Note_off_c, 0, 78, 66
1, 21662, Note_off_c, 0, 69, 68
1, 21671, Note_off_c, 0, 81, 66
1, 21761, Control_c, 0, 64, 36
1, 21766, Note_on_c, 0, 74, 64
1, 21776, Control_c, 0, 64, 55
1, 21784, Note_off_c, 0, 74, 64
1, 21791, Control_c, 0, 64, 59
1, 21806, Control_c, 0, 64, 60
1, 21820, Control_c, 0, 64, 60
1, 21835, Control_c, 0, 64, 61
1, 21850, Control_c, 0, 64, 62
1, 21865, Control_c, 0, 64, 63
1, 21880, Control_c, 0, 64, 64
1, 21885, Note_on_c, 0, 81, 69
1, 21888, Note_on_c, 0, 69, 63
1, 21890, Note_on_c, 0, 73, 62
1, 21894, Control_c, 0, 64, 65
1, 21907, Note_off_c, 0, 69, 64
1, 21907, Note_off_c, 0, 81, 70
1, 21909, Control_c, 0, 64, 66
1, 21910, Note_off_c, 0, 73, 66
1, 21924, Control_c, 0, 64, 67
1, 21946, Control_c, 0, 64, 69
1, 21961, Control_c, 0, 64, 71
1, 21975, Control_c, 0, 64, 72
1, 21990, Control_c, 0, 64, 73
1, 22020, Note_on_c, 0, 83, 105
1, 22020, Note_on_c, 0, 62, 99
1, 22020, Note_on_c, 0, 71, 106
1, 22020, Control_c, 0, 64, 70
1, 22023, Note_on_c, 0, 81, 95
1, 22036, Control_c, 0, 64, 55
1, 22051, Control_c, 0, 64, 0
1, 22053, Note_off_c, 0, 71, 64
1, 22059, Note_off_c, 0, 62, 67
1, 22059, Note_off_c, 0, 83, 62
1, 22063, Note_off_c, 0, 81, 58
1, 22153, Note_on_c, 0, 64, 84
1, 22165, Note_on_c, 0, 79, 74
1, 22186, Note_off_c, 0, 79, 71
1, 22187, Note_off_c, 0, 64, 62
1, 22283, Note_on_c, 0, 83, 93
1, 22285, Note_on_c, 0, 74, 95
1, 22287, Note_on_c, 0, 78, 91
1, 22288, Note_on_c, 0, 71, 86
1, 22308, Note_off_c, 0, 71, 69
1, 22314, Note_off_c, 0, 78, 53
1, 22315, Note_off_c, 0, 74, 65
1, 22321, Note_off_c, 0, 83, 64
1, 22408, Note_on_c, 0, 79, 95
1, 22410, Note_on_c, 0, 72, 99
1, 22414, Note_on_c, 0, 76, 92
1, 22414, Note_on_c, 0, 67, 86
1, 22427, Note_on_c, 0, 69, 67
1, 22432, Note_off_c, 0, 67, 73
1, 22439, Note_off_c, 0, 72, 66
1, 22445, Note_off_c, 0, 69, 65
1, 22461, Note_off_c, 0, 76, 62
1, 22461, Note_off_c, 0, 79, 63
1, 22540, Note_on_c, 0, 69, 72
1, 22549, Note_on_c, 0, 74, 91
1, 22575, Note_off_c, 0, 69, 66
1, 22591, Note_off_c, 0, 74, 64
1, 22667, Note_on_c, 0, 76, 98
1, 22676, Note_on_c, 0, 79, 84
1, 22678, Note_on_c, 0, 67, 88
1, 22679, Note_on_c, 0, 72, 79
1, 22682, Note_off_c, 0, 76, 77
1, 22705, Note_off_c, 0, 72, 71
1, 22708, Note_off_c, 0, 67, 66
1, 22708, Note_off_c, 0, 79, 58
1, 22829, Note_on_c, 0, 38, 98
1, 22982, Note_on_c, 0, 57, 95
1, 22984, Note_on_c, 0, 69, 94
1, 22986, Note_on_c, 0, 67, 91
1, 23008, Control_c, 0, 64, 29
1, 23019, Note_off_c, 0, 38, 63
1, 23022, Control_c, 0, 64, 54
1, 23037, Control_c, 0, 64, 63
1, 23052, Control_c, 0, 64, 65
1, 23060, Note_off_c, 0, 57, 61
1, 23067, Control_c, 0, 64, 67
1, 23081, Control_c, 0, 64, 71
1, 23096, Control_c, 0, 64, 75
1, 23111, Control_c, 0, 64, 80
1, 23126, Control_c, 0, 64, 84
1, 23131, Note_on_c, 0, 64, 95
1, 23141, Control_c, 0, 64, 89
1, 23143, Note_off_c, 0, 69, 59
1, 23145, Note_off_c, 0, 67, 57
1, 23156, Control_c, 0, 64, 92
1, 23171, Control_c, 0, 64, 95
1, 23187, Note_off_c, 0, 64, 64
1, 23201, Control_c, 0, 64, 97
1, 23259, Note_on_c, 0, 66, 96
1, 23283, Note_off_c, 0, 66, 67
1, 23394, Note_on_c, 0, 69, 86
1, 23400, Note_on_c, 0, 62, 83
1, 23489, Note_off_c, 0, 69, 59
1, 23524, Note_on_c, 0, 61, 85
1, 23534, Note_off_c, 0, 62, 58
1, 23589, Note_off_c, 0, 61, 61
1, 23593, Control_c, 0, 64, 90
1, 23608, Control_c, 0, 64, 77
1, 23608, Control_c, 0, 67, 38
1, 23624, Control_c, 0, 64, 62
1, 23624, Control_c, 0, 67, 68
1, 23639, Control_c, 0, 64, 36
1, 23639, Control_c, 0, 67, 99
1, 23653, Control_c, 0, 64, 0
1, 23653, Control_c, 0, 67, 121
1, 23668, Control_c, 0, 67, 127
1, 23680, Note_on_c, 0, 62, 51
1, 23684, Note_on_c, 0, 58, 51
1, 23685, Note_on_c, 0, 64, 50
1, 23686, Note_on_c, 0, 43, 50
1, 23793, Note_off_c, 0, 43, 49
1, 23795, Note_off_c, 0, 58, 56
1, 23830, Note_on_c, 0, 60, 52
1, 23832, Note_on_c, 0, 57, 28
1, 23838, Note_on_c, 0, 50, 51
1, 23861, Note_off_c, 0, 64, 48
1, 23882, Note_off_c, 0, 62, 37
1, 23949, Note_off_c, 0, 50, 61
1, 23954, Note_on_c, 0, 58, 54
1, 23957, Note_off_c, 0, 60, 58
1, 23963, Note_on_c, 0, 62, 52
1, 23978, Note_on_c, 0, 52, 43
1, 23993, Note_off_c, 0, 57, 36
1, 24058, Note_off_c, 0, 62, 59
1, 24059, Note_off_c, 0, 58, 45
1, 24062, Note_off_c, 0, 52, 60
1, 24095, Note_on_c, 0, 60, 50
1, 24098, Note_on_c, 0, 64, 57
1, 24106, Note_on_c, 0, 53, 53
1, 24148, Note_off_c, 0, 53, 59
1, 24210, Note_off_c, 0, 64, 59
1, 24232, Note_off_c, 0, 60, 37
1, 24241, Note_on_c, 0, 55, 50
1, 24242, Note_on_c, 0, 62, 50
1, 24262, Note_on_c, 0, 58, 50
1, 24283, Note_off_c, 0, 55, 61
1, 24342, Control_c, 0, 64, 31
1, 24345, Note_off_c, 0, 58, 52
1, 24357, Control_c, 0, 64, 36
1, 24363, Note_off_c, 0, 62, 58
1, 24366, Note_on_c, 0, 52, 61
1, 24371, Control_c, 0, 64, 42
1, 24375, Note_on_c, 0, 60, 55
1, 24381, Note_on_c, 0, 57, 54
1, 24386, Control_c, 0, 64, 47
1, 24389, Note_off_c, 0, 52, 63
1, 24401, Control_c, 0, 64, 51
1, 24411, Note_off_c, 0, 60, 66
1, 24417, Control_c, 0, 64, 53
1, 24432, Control_c, 0, 64, 55
1, 24447, Control_c, 0, 64, 57
1, 24461, Control_c, 0, 64, 58
1, 24476, Control_c, 0, 64, 59
1, 24491, Control_c, 0, 64, 60
1, 24506, Control_c, 0, 64, 60
1, 24506, Control_c, 0, 67, 96
1, 24520, Note_on_c, 0, 38, 96
1, 24520, Control_c, 0, 67, 0
1, 24531, Note_off_c, 0, 57, 61
1, 24550, Control_c, 0, 64, 58
1, 24565, Control_c, 0, 64, 42
1, 24580, Control_c, 0, 64, 0
1, 24647, Note_on_c, 0, 57, 101
1, 24650, Note_on_c, 0, 69, 94
1, 24653, Note_on_c, 0, 67, 92
1, 24668, Control_c, 0, 64, 38
1, 24669, Note_off_c, 0, 38, 63
1, 24683, Control_c, 0, 64, 64
1, 24692, Note_off_c, 0, 57, 63
1, 24698, Control_c, 0, 64, 68
1, 24712, Control_c, 0, 64, 71
1, 24727, Control_c, 0, 64, 73
1, 24742, Note_off_c, 0, 69, 60
1, 24742, Control_c, 0, 64, 76
1, 24757, Control_c, 0, 64, 80
1, 24772, Control_c, 0, 64, 82
1, 24777, Note_off_c, 0, 67, 46
1, 24785, Note_on_c, 0, 64, 87
1, 24787, Control_c, 0, 64, 84
1, 24801, Control_c, 0, 64, 84
1, 24816, Control_c, 0, 64, 85
1, 24831, Control_c, 0, 64, 85
1, 24836, Note_off_c, 0, 64, 62
1, 24861, Control_c, 0, 64, 86
1, 24891, Control_c, 0, 64, 86
1, 24928, Note_on_c, 0, 66, 93
1, 24965, Note_off_c, 0, 66, 62
1, 24972, Control_c, 0, 64, 87
1, 25058, Note_on_c, 0, 69, 87
1, 25063, Note_on_c, 0, 62, 85
1, 25165, Note_off_c, 0, 69, 60
1, 25195, Note_on_c, 0, 61, 78
1, 25201, Note_off_c, 0, 62, 56
1, 25250, Note_off_c, 0, 61, 63
1, 25268, Control_c, 0, 64, 86
1, 25283, Control_c, 0, 64, 86
1, 25298, Control_c, 0, 64, 81
1, 25313, Control_c, 0, 64, 71
1, 25328, Control_c, 0, 64, 59
1, 25342, Control_c, 0, 64, 41
1, 25347, Note_on_c, 0, 58, 65
1, 25347, Note_on_c, 0, 64, 61
1, 25347, Note_on_c, 0, 62, 54
1, 25357, Control_c, 0, 64, 0
1, 25366, Note_on_c, 0, 43, 54
1, 25475, Control_c, 0, 67, 45
1, 25482, Note_on_c, 0, 57, 41
1, 25490, Note_on_c, 0, 60, 64
1, 25490, Control_c, 0, 67, 58
1, 25492, Note_off_c, 0, 43, 58
1, 25503, Note_off_c, 0, 58, 35
1, 25505, Control_c, 0, 67, 69
1, 25510, Note_on_c, 0, 50, 51
1, 25520, Control_c, 0, 67, 79
1, 25535, Control_c, 0, 67, 86
1, 25539, Note_off_c, 0, 62, 50
1, 25541, Note_off_c, 0, 64, 56
1, 25550, Control_c, 0, 67, 88
1, 25564, Control_c, 0, 64, 28
1, 25579, Control_c, 0, 64, 34
1, 25594, Control_c, 0, 64, 39
1, 25594, Control_c, 0, 67, 88
1, 25609, Control_c, 0, 64, 43
1, 25609, Control_c, 0, 67, 87
1, 25624, Note_on_c, 0, 58, 59
1, 25624, Control_c, 0, 64, 45
1, 25624, Control_c, 0, 67, 86
1, 25628, Note_off_c, 0, 50, 61
1, 25630, Note_on_c, 0, 62, 67
1, 25637, Note_on_c, 0, 52, 58
1, 25639, Control_c, 0, 64, 47
1, 25652, Note_off_c, 0, 60, 57
1, 25654, Control_c, 0, 64, 48
1, 25654, Control_c, 0, 67, 86
1, 25658, Note_off_c, 0, 57, 46
1, 25668, Control_c, 0, 67, 85
1, 25690, Control_c, 0, 67, 85
1, 25705, Control_c, 0, 67, 84
1, 25720, Control_c, 0, 64, 47
1, 25728, Note_off_c, 0, 62, 60
1, 25735, Control_c, 0, 64, 43
1, 25735, Control_c, 0, 67, 83
1, 25740, Note_off_c, 0, 58, 55
1, 25749, Control_c, 0, 64, 39
1, 25755, Note_off_c, 0, 52, 62
1, 25764, Control_c, 0, 64, 34
1, 25774, Note_on_c, 0, 64, 59
1, 25779, Control_c, 0, 64, 30
1, 25780, Note_on_c, 0, 53, 61
1, 25785, Note_on_c, 0, 60, 52
1, 25794, Control_c, 0, 64, 0
1, 25820, Note_off_c, 0, 53, 56
1, 25833, Note_off_c, 0, 60, 57
1, 25854, Note_off_c, 0, 64, 60
1, 25868, Control_c, 0, 67, 82
1, 25883, Control_c, 0, 67, 81
1, 25894, Note_on_c, 0, 55, 49
1, 25895, Note_on_c, 0, 62, 53
1, 25898, Control_c, 0, 67, 79
1, 25913, Control_c, 0, 67, 78
1, 25919, Note_on_c, 0, 58, 51
1, 25928, Control_c, 0, 67, 76
1, 25937, Note_off_c, 0, 55, 59
1, 25943, Control_c, 0, 67, 74
1, 25958, Control_c, 0, 67, 72
1, 25973, Control_c, 0, 64, 29
1, 25973, Control_c, 0, 67, 70
1, 25988, Control_c, 0, 64, 36
1, 25988, Control_c, 0, 67, 68
1, 26001, Note_off_c, 0, 62, 54
1, 26002, Control_c, 0, 64, 44
1, 26002, Control_c, 0, 67, 65
1, 26007, Note_off_c, 0, 58, 58
1, 26018, Control_c, 0, 64, 51
1, 26018, Control_c, 0, 67, 62
1, 26019, Note_on_c, 0, 52, 69
1, 26025, Note_on_c, 0, 60, 62
1, 26031, Note_on_c, 0, 57, 58
1, 26033, Control_c, 0, 64, 56
1, 26033, Control_c, 0, 67, 58
1, 26044, Note_off_c, 0, 52, 65
1, 26047, Control_c, 0, 64, 58
1, 26047, Control_c, 0, 67, 54
1, 26056, Note_off_c, 0, 60, 66
1, 26062, Control_c, 0, 64, 59
1, 26062, Control_c, 0, 67, 47
1, 26077, Control_c, 0, 64, 60
1, 26077, Control_c, 0, 67, 0
1, 26092, Control_c, 0, 64, 61
1, 26107, Control_c, 0, 64, 62
1, 26122, Control_c, 0, 64, 63
1, 26167, Note_on_c, 0, 38, 94
1, 26175, Note_off_c, 0, 57, 59
1, 26196, Control_c, 0, 64, 61
1, 26211, Control_c, 0, 64, 49
1, 26226, Control_c, 0, 64, 0
1, 26296, Note_on_c, 0, 57, 91
1, 26300, Note_on_c, 0, 69, 86
1, 26301, Note_on_c, 0, 67, 86
1, 26313, Note_off_c, 0, 38, 63
1, 26314, Control_c, 0, 64, 49
1, 26329, Control_c, 0, 64, 61
1, 26344, Control_c, 0, 64, 64
1, 26357, Note_off_c, 0, 57, 58
1, 26358, Control_c, 0, 64, 66
1, 26373, Control_c, 0, 64, 67
1, 26388, Control_c, 0, 64, 68
1, 26403, Control_c, 0, 64, 70
1, 26417, Control_c, 0, 64, 71
1, 26431, Note_on_c, 0, 64, 84
1, 26441, Note_off_c, 0, 69, 56
1, 26441, Note_off_c, 0, 67, 39
1, 26455, Control_c, 0, 64, 71
1, 26491, Note_off_c, 0, 64, 65
1, 26559, Control_c, 0, 64, 72
1, 26576, Note_on_c, 0, 66, 90
1, 26604, Note_off_c, 0, 66, 66
1, 26698, Note_on_c, 0, 69, 83
1, 26707, Note_on_c, 0, 62, 78
1, 26796, Note_off_c, 0, 69, 59
1, 26810, Control_c, 0, 64, 71
1, 26832, Note_off_c, 0, 62, 62
1, 26833, Note_on_c, 0, 61, 84
1, 26894, Note_off_c, 0, 61, 60
1, 26915, Control_c, 0, 64, 71
1, 26930, Control_c, 0, 64, 70
1, 26945, Control_c, 0, 64, 69
1, 26959, Control_c, 0, 64, 65
1, 26974, Control_c, 0, 64, 61
1, 26989, Control_c, 0, 64, 54
1, 27004, Control_c, 0, 64, 48
1, 27004, Control_c, 0, 67, 44
1, 27014, Note_on_c, 0, 58, 52
1, 27016, Note_on_c, 0, 64, 56
1, 27019, Note_on_c, 0, 62, 52
1, 27019, Control_c, 0, 64, 41
1, 27019, Control_c, 0, 67, 65
1, 27030, Note_on_c, 0, 43, 52
1, 27033, Control_c, 0, 64, 35
1, 27033, Control_c, 0, 67, 84
1, 27048, Control_c, 0, 64, 30
1, 27048, Control_c, 0, 67, 100
1, 27063, Control_c, 0, 64, 0
1, 27063, Control_c, 0, 67, 113
1, 27078, Control_c, 0, 67, 122
1, 27093, Control_c, 0, 67, 127
1, 27192, Note_on_c, 0, 57, 41
1, 27205, Note_on_c, 0, 60, 64
1, 27213, Note_off_c, 0, 58, 38
1, 27219, Note_off_c, 0, 43, 57
1, 27222, Note_off_c, 0, 64, 50
1, 27231, Note_off_c, 0, 62, 52
1, 27234, Note_on_c, 0, 50, 51
1, 27330, Note_off_c, 0, 57, 64
1, 27334, Note_off_c, 0, 50, 63
1, 27334, Note_off_c, 0, 60, 61
1, 27338, Note_on_c, 0, 58, 58
1, 27344, Note_on_c, 0, 62, 70
1, 27347, Note_on_c, 0, 52, 61
1, 27433, Note_off_c, 0, 58, 59
1, 27436, Note_off_c, 0, 62, 60
1, 27451, Note_off_c, 0, 52, 62
1, 27468, Note_on_c, 0, 64, 65
1, 27472, Note_on_c, 0, 60, 52
1, 27478, Note_on_c, 0, 53, 58
1, 27540, Note_off_c, 0, 53, 62
1, 27568, Note_off_c, 0, 64, 57
1, 27582, Note_on_c, 0, 55, 60
1, 27584, Note_off_c, 0, 60, 61
1, 27591, Note_on_c, 0, 62, 63
1, 27603, Control_c, 0, 67, 124
1, 27604, Note_on_c, 0, 58, 63
1, 27634, Control_c, 0, 67, 121
1, 27663, Control_c, 0, 67, 118
1, 27678, Control_c, 0, 64, 29
1, 27678, Control_c, 0, 67, 115
1, 27693, Control_c, 0, 67, 113
1, 27705, Note_on_c, 0, 52, 70
1, 27708, Control_c, 0, 64, 31
1, 27708, Control_c, 0, 67, 111
1, 27711, Note_off_c, 0, 55, 59
1, 27723, Control_c, 0, 64, 34
1, 27723, Control_c, 0, 67, 107
1, 27727, Note_on_c, 0, 57, 68
1, 27729, Note_off_c, 0, 58, 62
1, 27730, Note_on_c, 0, 60, 70
1, 27738, Control_c, 0, 64, 38
1, 27738, Control_c, 0, 67, 105
1, 27752, Control_c, 0, 64, 41
1, 27752, Control_c, 0, 67, 99
1, 27758, Note_off_c, 0, 62, 58
1, 27767, Control_c, 0, 64, 44
1, 27767, Control_c, 0, 67, 91
1, 27782, Control_c, 0, 64, 45
1, 27782, Control_c, 0, 67, 79
1, 27797, Control_c, 0, 64, 47
1, 27797, Control_c, 0, 67, 61
1, 27812, Control_c, 0, 64, 47
1, 27812, Control_c, 0, 67, 40
1, 27815, Note_off_c, 0, 57, 51
1, 27827, Control_c, 0, 64, 48
1, 27827, Control_c, 0, 67, 0
1, 27841, Note_off_c, 0, 60, 59
1, 27842, Control_c, 0, 64, 49
1, 27849, Note_on_c, 0, 53, 74
1, 27853, Note_on_c, 0, 58, 71
1, 27855, Note_on_c, 0, 62, 79
1, 27857, Control_c, 0, 64, 49
1, 27860, Note_off_c, 0, 52, 55
1, 27923, Note_off_c, 0, 58, 62
1, 27931, Control_c, 0, 64, 50
1, 27942, Note_off_c, 0, 62, 62
1, 27952, Control_c, 0, 64, 51
1, 27967, Control_c, 0, 64, 52
1, 27978, Note_on_c, 0, 60, 78
1, 27982, Note_on_c, 0, 55, 76
1, 27982, Note_on_c, 0, 64, 76
1, 27982, Control_c, 0, 64, 55
1, 27995, Note_off_c, 0, 53, 58
1, 27997, Control_c, 0, 64, 57
1, 28012, Control_c, 0, 64, 58
1, 28037, Note_off_c, 0, 60, 64
1, 28042, Control_c, 0, 64, 55
1, 28056, Control_c, 0, 64, 49
1, 28068, Note_off_c, 0, 64, 54
1, 28071, Control_c, 0, 64, 41
1, 28086, Control_c, 0, 64, 40
1, 28094, Note_on_c, 0, 57, 82
1, 28099, Note_on_c, 0, 52, 78
1, 28101, Control_c, 0, 64, 43
1, 28101, Note_on_c, 0, 60, 76
1, 28116, Control_c, 0, 64, 51
1, 28119, Note_off_c, 0, 55, 59
1, 28131, Control_c, 0, 64, 59
1, 28145, Control_c, 0, 64, 61
1, 28160, Control_c, 0, 64, 59
1, 28175, Control_c, 0, 64, 51
1, 28179, Note_off_c, 0, 60, 62
1, 28182, Note_off_c, 0, 57, 56
1, 28189, Control_c, 0, 64, 37
1, 28204, Control_c, 0, 64, 0
1, 28215, Note_on_c, 0, 62, 82
1, 28220, Note_on_c, 0, 58, 80
1, 28229, Note_on_c, 0, 53, 82
1, 28251, Note_off_c, 0, 52, 59
1, 28277, Note_off_c, 0, 58, 64
1, 28278, Control_c, 0, 64, 47
1, 28293, Control_c, 0, 64, 60
1, 28296, Note_off_c, 0, 62, 62
1, 28308, Control_c, 0, 64, 63
1, 28323, Control_c, 0, 64, 64
1, 28337, Control_c, 0, 64, 65
1, 28338, Note_on_c, 0, 64, 87
1, 28339, Note_on_c, 0, 60, 81
1, 28344, Note_on_c, 0, 55, 87
1, 28346, Note_off_c, 0, 53, 58
1, 28376, Note_off_c, 0, 60, 64
1, 28397, Note_off_c, 0, 64, 64
1, 28420, Note_off_c, 0, 55, 63
1, 28463, Note_on_c, 0, 57, 82
1, 28466, Note_on_c, 0, 62, 84
1, 28466, Note_on_c, 0, 65, 91
1, 28494, Note_off_c, 0, 62, 61
1, 28506, Note_off_c, 0, 57, 63
1, 28531, Note_off_c, 0, 65, 62
1, 28546, Control_c, 0, 64, 64
1, 28560, Control_c, 0, 64, 53
1, 28575, Control_c, 0, 64, 0
1, 28596, Note_on_c, 0, 67, 98
1, 28600, Note_on_c, 0, 58, 87
1, 28603, Note_on_c, 0, 64, 83
1, 28624, Note_off_c, 0, 64, 73
1, 28643, Note_off_c, 0, 67, 64
1, 28648, Note_off_c, 0, 58, 63
1, 28772, Note_on_c, 0, 69, 84
1, 28778, Note_on_c, 0, 65, 75
1, 28782, Note_on_c, 0, 60, 70
1, 28799, Note_off_c, 0, 65, 70
1, 28807, Note_off_c, 0, 69, 63
1, 28808, Note_off_c, 0, 60, 69
1, 28910, Note_on_c, 0, 65, 84
1, 28923, Note_on_c, 0, 62, 71
1, 28924, Note_on_c, 0, 57, 68
1, 28942, Note_off_c, 0, 62, 65
1, 28949, Note_off_c, 0, 65, 64
1, 28953, Note_off_c, 0, 57, 66
1, 29046, Note_on_c, 0, 64, 72
1, 29046, Note_on_c, 0, 67, 72
1, 29051, Note_on_c, 0, 58, 66
1, 29073, Note_off_c, 0, 64, 69
1, 29079, Note_off_c, 0, 58, 64
1, 29083, Note_off_c, 0, 67, 60
1, 29169, Note_on_c, 0, 64, 68
1, 29171, Note_on_c, 0, 60, 75
1, 29179, Note_on_c, 0, 55, 58
1, 29197, Note_off_c, 0, 60, 68
1, 29202, Note_off_c, 0, 64, 63
1, 29206, Note_off_c, 0, 55, 58
1, 29304, Note_on_c, 0, 65, 72
1, 29308, Note_on_c, 0, 57, 56
1, 29324, Note_on_c, 0, 62, 33
1, 29324, Note_off_c, 0, 62, 127
1, 29329, Note_off_c, 0, 57, 61
1, 29330, Note_off_c, 0, 65, 66
1, 29425, Note_on_c, 0, 62, 72
1, 29439, Note_on_c, 0, 58, 60
1, 29444, Note_on_c, 0, 53, 59
1, 29460, Note_off_c, 0, 58, 62
1, 29464, Note_off_c, 0, 62, 62
1, 29476, Note_off_c, 0, 53, 64
1, 29567, Note_on_c, 0, 64, 72
1, 29571, Note_on_c, 0, 55, 65
1, 29571, Note_on_c, 0, 60, 61
1, 29592, Note_off_c, 0, 60, 62
1, 29593, Note_off_c, 0, 55, 61
1, 29601, Note_off_c, 0, 64, 59
1, 29628, Control_c, 0, 67, 41
1, 29642, Control_c, 0, 67, 54
1, 29657, Control_c, 0, 67, 65
1, 29672, Control_c, 0, 67, 70
1, 29687, Control_c, 0, 67, 75
1, 29693, Note_on_c, 0, 60, 64
1, 29699, Note_on_c, 0, 57, 68
1, 29702, Control_c, 0, 67, 85
1, 29715, Note_on_c, 0, 52, 38
1, 29717, Control_c, 0, 67, 101
1, 29723, Note_off_c, 0, 60, 66
1, 29726, Note_off_c, 0, 57, 64
1, 29732, Control_c, 0, 67, 115
1, 29747, Control_c, 0, 67, 121
1, 29750, Note_off_c, 0, 52, 50
1, 29762, Control_c, 0, 67, 123
1, 29827, Note_on_c, 0, 62, 62
1, 29835, Control_c, 0, 67, 125
1, 29836, Note_on_c, 0, 53, 55
1, 29848, Note_off_c, 0, 62, 61
1, 29861, Note_off_c, 0, 53, 62
1, 29985, Note_on_c, 0, 58, 63
1, 29991, Note_on_c, 0, 50, 51
1, 29998, Control_c, 0, 67, 123
1, 30016, Note_off_c, 0, 58, 65
1, 30019, Note_off_c, 0, 50, 57
1, 30156, Note_on_c, 0, 55, 64
1, 30158, Note_on_c, 0, 46, 60
1, 30188, Note_off_c, 0, 55, 63
1, 30193, Note_off_c, 0, 46, 62
1, 30244, Control_c, 0, 67, 125
1, 30303, Control_c, 0, 67, 127
1, 30374, Note_on_c, 0, 38, 52
1, 30525, Note_on_c, 0, 57, 73
1, 30554, Note_on_c, 0, 55, 49
1, 30599, Control_c, 0, 64, 34
1, 30614, Control_c, 0, 64, 49
1, 30629, Control_c, 0, 64, 57
1, 30634, Note_off_c, 0, 38, 61
1, 30644, Control_c, 0, 64, 59
1, 30657, Note_off_c, 0, 55, 29
1, 30658, Control_c, 0, 64, 61
1, 30668, Note_on_c, 0, 52, 52
1, 30673, Control_c, 0, 64, 62
1, 30688, Control_c, 0, 64, 62
1, 30703, Control_c, 0, 64, 63
1, 30718, Control_c, 0, 64, 64
1, 30732, Control_c, 0, 64, 65
1, 30747, Control_c, 0, 64, 66
1, 30791, Control_c, 0, 64, 64
1, 30808, Control_c, 0, 64, 57
1, 30809, Note_off_c, 0, 52, 54
1, 30814, Note_on_c, 0, 54, 57
1, 30823, Control_c, 0, 64, 42
1, 30837, Control_c, 0, 64, 0
1, 30867, Control_c, 0, 64, 36
1, 30881, Control_c, 0, 64, 51
1, 30896, Control_c, 0, 64, 62
1, 30911, Control_c, 0, 64, 64
1, 30918, Note_off_c, 0, 54, 59
1, 30933, Control_c, 0, 64, 64
1, 30954, Note_on_c, 0, 52, 51
1, 31064, Note_off_c, 0, 52, 36
1, 31081, Control_c, 0, 64, 64
1, 31105, Note_on_c, 0, 50, 55
1, 31144, Note_off_c, 0, 50, 65
1, 31155, Control_c, 0, 64, 63
1, 31196, Note_off_c, 0, 57, 59
1, 31214, Control_c, 0, 64, 63
1, 31229, Control_c, 0, 64, 58
1, 31244, Control_c, 0, 64, 34
1, 31252, Note_on_c, 0, 36, 67
1, 31259, Control_c, 0, 64, 0
1, 31280, Note_off_c, 0, 36, 64
1, 31517, Note_on_c, 0, 46, 58
1, 31517, Note_on_c, 0, 58, 56
1, 31523, Note_on_c, 0, 41, 53
1, 31527, Note_on_c, 0, 50, 45
1, 31530, Note_on_c, 0, 34, 46
1, 31541, Note_off_c, 0, 46, 58
1, 31543, Note_off_c, 0, 58, 63
1, 31553, Note_off_c, 0, 41, 53
1, 31556, Note_off_c, 0, 50, 54
1, 31565, Note_off_c, 0, 34, 52
1, 31798, Note_on_c, 0, 43, 58
1, 31799, Note_on_c, 0, 36, 58
1, 31799, Note_on_c, 0, 60, 57
1, 31803, Note_on_c, 0, 48, 61
1, 31810, Note_on_c, 0, 52, 46
1, 31821, Note_off_c, 0, 60, 63
1, 31822, Note_off_c, 0, 43, 58
1, 31829, Note_off_c, 0, 36, 62
1, 31830, Note_off_c, 0, 48, 56
1, 31840, Note_off_c, 0, 52, 50
1, 31845, Control_c, 0, 67, 115
1, 31860, Control_c, 0, 67, 102
1, 31875, Control_c, 0, 67, 95
1, 31890, Control_c, 0, 67, 90
1, 31919, Control_c, 0, 67, 91
1, 31934, Control_c, 0, 67, 92
1, 31949, Control_c, 0, 67, 94
1, 31964, Control_c, 0, 67, 96
1, 31993, Control_c, 0, 67, 99
1, 32023, Control_c, 0, 67, 101
1, 32087, Note_on_c, 0, 38, 50
1, 32111, Control_c, 0, 67, 103
1, 32213, Note_on_c, 0, 57, 66
1, 32215, Control_c, 0, 64, 30
1, 32230, Control_c, 0, 64, 45
1, 32237, Note_on_c, 0, 55, 48
1, 32245, Control_c, 0, 64, 52
1, 32260, Control_c, 0, 64, 56
1, 32274, Control_c, 0, 64, 58
1, 32274, Control_c, 0, 67, 105
1, 32280, Note_off_c, 0, 38, 60
1, 32289, Control_c, 0, 64, 59
1, 32292, Note_off_c, 0, 55, 43
1, 32304, Control_c, 0, 64, 59
1, 32319, Control_c, 0, 64, 60
1, 32334, Control_c, 0, 64, 61
1, 32334, Control_c, 0, 67, 107
1, 32349, Control_c, 0, 64, 61
1, 32351, Note_on_c, 0, 52, 47
1, 32363, Control_c, 0, 64, 62
1, 32378, Control_c, 0, 64, 62
1, 32393, Control_c, 0, 64, 63
1, 32393, Control_c, 0, 67, 109
1, 32409, Control_c, 0, 64, 64
1, 32460, Control_c, 0, 64, 63
1, 32475, Control_c, 0, 64, 58
1, 32475, Control_c, 0, 67, 111
1, 32490, Control_c, 0, 64, 48
1, 32491, Note_on_c, 0, 54, 52
1, 32498, Note_off_c, 0, 52, 43
1, 32505, Control_c, 0, 64, 35
1, 32520, Control_c, 0, 64, 0
1, 32549, Control_c, 0, 64, 37
1, 32564, Control_c, 0, 64, 49
1, 32579, Control_c, 0, 64, 58
1, 32594, Control_c, 0, 64, 61
1, 32603, Note_off_c, 0, 54, 58
1, 32608, Control_c, 0, 64, 61
1, 32635, Note_on_c, 0, 52, 44
1, 32713, Control_c, 0, 64, 61
1, 32725, Note_off_c, 0, 52, 39
1, 32742, Control_c, 0, 64, 60
1, 32757, Control_c, 0, 64, 60
1, 32772, Control_c, 0, 64, 59
1, 32784, Note_on_c, 0, 50, 39
1, 32787, Control_c, 0, 64, 59
1, 32802, Control_c, 0, 64, 58
1, 32825, Note_off_c, 0, 50, 51
1, 32906, Control_c, 0, 64, 56
1, 32906, Note_off_c, 0, 57, 63
1, 32921, Control_c, 0, 64, 45
1, 32935, Control_c, 0, 64, 0
1, 32943, Note_on_c, 0, 36, 31
1, 32984, Note_off_c, 0, 36, 50
1, 33009, Control_c, 0, 67, 113
1, 33211, Note_on_c, 0, 58, 43
1, 33212, Note_on_c, 0, 34, 50
1, 33216, Note_on_c, 0, 46, 37
1, 33217, Note_on_c, 0, 50, 39
1, 33222, Note_on_c, 0, 41, 35
1, 33238, Note_off_c, 0, 58, 54
1, 33245, Note_off_c, 0, 34, 56
1, 33252, Note_off_c, 0, 46, 45
1, 33252, Note_off_c, 0, 50, 51
1, 33267, Note_off_c, 0, 41, 47
1, 33499, Note_on_c, 0, 60, 54
1, 33500, Note_on_c, 0, 36, 57
1, 33501, Note_on_c, 0, 48, 52
1, 33506, Note_on_c, 0, 43, 49
1, 33519, Note_on_c, 0, 52, 27
1, 33524, Note_off_c, 0, 60, 62
1, 33531, Note_off_c, 0, 36, 65
1, 33534, Note_off_c, 0, 48, 52
1, 33538, Note_off_c, 0, 43, 51
1, 33562, Note_off_c, 0, 52, 48
1, 33756, Control_c, 0, 67, 111
1, 33792, Note_on_c, 0, 50, 93
1, 33798, Note_on_c, 0, 38, 33
1, 33827, Note_off_c, 0, 50, 65
1, 33839, Note_off_c, 0, 38, 43
1, 33930, Note_on_c, 0, 50, 71
1, 33942, Note_on_c, 0, 57, 48
1, 33959, Note_off_c, 0, 50, 67
1, 33983, Note_off_c, 0, 57, 58
1, 34033, Poly_aftertouch_c, 0, 55, 0
1, 34061, Control_c, 0, 67, 109
1, 34067, Note_on_c, 0, 54, 61
1, 34069, Note_on_c, 0, 50, 62
1, 34097, Note_off_c, 0, 54, 64
1, 34099, Note_off_c, 0, 50, 65
1, 34120, Control_c, 0, 67, 107
1, 34194, Note_on_c, 0, 52, 85
1, 34203, Note_on_c, 0, 38, 64
1, 34221, Note_off_c, 0, 52, 65
1, 34230, Note_off_c, 0, 38, 57
1, 34327, Note_on_c, 0, 54, 71
1, 34330, Note_on_c, 0, 61, 53
1, 34339, Note_on_c, 0, 55, 32
1, 34354, Note_off_c, 0, 54, 65
1, 34368, Note_off_c, 0, 61, 61
1, 34377, Note_off_c, 0, 55, 50
1, 34452, Note_on_c, 0, 55, 79
1, 34464, Note_on_c, 0, 57, 43
1, 34476, Control_c, 0, 67, 105
1, 34485, Note_off_c, 0, 55, 63
1, 34495, Note_off_c, 0, 57, 34
1, 34549, Control_c, 0, 67, 103
1, 34600, Note_on_c, 0, 57, 80
1, 34609, Control_c, 0, 64, 46
1, 34609, Control_c, 0, 67, 101
1, 34611, Note_on_c, 0, 50, 73
1, 34623, Control_c, 0, 64, 57
1, 34625, Note_off_c, 0, 57, 71
1, 34634, Note_off_c, 0, 50, 66
1, 34638, Control_c, 0, 64, 60
1, 34653, Control_c, 0, 64, 61
1, 34676, Control_c, 0, 64, 61
1, 34705, Control_c, 0, 64, 62
1, 34732, Note_on_c, 0, 60, 68
1, 34735, Control_c, 0, 67, 103
1, 34740, Note_on_c, 0, 55, 59
1, 34760, Note_off_c, 0, 60, 67
1, 34762, Note_off_c, 0, 55, 61
1, 34794, Control_c, 0, 64, 62
1, 34840, Control_c, 0, 64, 61
1, 34854, Control_c, 0, 64, 52
1, 34869, Control_c, 0, 64, 0
1, 34872, Note_on_c, 0, 64, 71
1, 34899, Note_off_c, 0, 64, 69
1, 34994, Note_on_c, 0, 67, 54
1, 34999, Note_on_c, 0, 60, 57
1, 35020, Note_off_c, 0, 60, 62
1, 35026, Note_off_c, 0, 67, 63
1, 35117, Note_on_c, 0, 57, 74
1, 35121, Control_c, 0, 67, 99
1, 35136, Control_c, 0, 67, 96
1, 35141, Note_off_c, 0, 57, 67
1, 35151, Control_c, 0, 67, 94
1, 35166, Control_c, 0, 67, 92
1, 35180, Control_c, 0, 67, 92
1, 35195, Control_c, 0, 67, 90
1, 35210, Control_c, 0, 67, 90
1, 35225, Control_c, 0, 67, 88
1, 35240, Control_c, 0, 67, 87
1, 35242, Note_on_c, 0, 55, 64
1, 35243, Note_on_c, 0, 59, 60
1, 35248, Note_on_c, 0, 60, 53
1, 35254, Control_c, 0, 67, 86
1, 35262, Note_off_c, 0, 55, 63
1, 35264, Note_off_c, 0, 59, 63
1, 35269, Control_c, 0, 67, 85
1, 35270, Note_off_c, 0, 60, 59
1, 35284, Control_c, 0, 67, 83
1, 35299, Control_c, 0, 67, 81
1, 35314, Control_c, 0, 67, 79
1, 35328, Control_c, 0, 67, 53
1, 35343, Control_c, 0, 67, 0
1, 35378, Note_on_c, 0, 57, 83
1, 35382, Note_on_c, 0, 48, 84
1, 35401, Note_off_c, 0, 57, 69
1, 35408, Note_off_c, 0, 48, 65
1, 35512, Note_on_c, 0, 55, 84
1, 35515, Note_on_c, 0, 60, 64
1, 35520, Note_on_c, 0, 67, 64
1, 35540, Note_on_c, 0, 66, 42
1, 35547, Note_off_c, 0, 55, 64
1, 35550, Note_off_c, 0, 60, 61
1, 35568, Note_off_c, 0, 66, 56
1, 35574, Note_off_c, 0, 67, 58
1, 35618, Control_c, 0, 64, 33
1, 35633, Control_c, 0, 64, 53
1, 35644, Note_on_c, 0, 57, 86
1, 35646, Note_on_c, 0, 64, 65
1, 35648, Control_c, 0, 64, 60
1, 35663, Control_c, 0, 64, 62
1, 35674, Note_off_c, 0, 64, 66
1, 35677, Control_c, 0, 64, 64
1, 35687, Note_off_c, 0, 57, 65
1, 35692, Control_c, 0, 64, 65
1, 35707, Control_c, 0, 64, 66
1, 35766, Control_c, 0, 64, 64
1, 35781, Control_c, 0, 64, 54
1, 35782, Note_on_c, 0, 59, 91
1, 35795, Control_c, 0, 64, 0
1, 35810, Note_off_c, 0, 59, 65
1, 35902, Note_on_c, 0, 64, 68
1, 35910, Note_on_c, 0, 57, 75
1, 35929, Note_on_c, 0, 55, 33
1, 35938, Note_off_c, 0, 57, 66
1, 35951, Note_off_c, 0, 64, 58
1, 35969, Note_off_c, 0, 55, 49
1, 36030, Note_on_c, 0, 55, 91
1, 36038, Note_on_c, 0, 60, 64
1, 36058, Note_off_c, 0, 60, 63
1, 36060, Note_off_c, 0, 55, 63
1, 36177, Note_on_c, 0, 57, 86
1, 36179, Note_on_c, 0, 47, 82
1, 36197, Note_off_c, 0, 57, 71
1, 36203, Control_c, 0, 64, 54
1, 36203, Note_off_c, 0, 47, 70
1, 36218, Control_c, 0, 64, 59
1, 36233, Control_c, 0, 64, 60
1, 36248, Control_c, 0, 64, 61
1, 36263, Control_c, 0, 64, 62
1, 36277, Control_c, 0, 64, 63
1, 36292, Control_c, 0, 64, 63
1, 36305, Note_on_c, 0, 60, 71
1, 36305, Note_on_c, 0, 69, 69
1, 36307, Control_c, 0, 64, 64
1, 36309, Note_on_c, 0, 67, 60
1, 36331, Note_off_c, 0, 60, 69
1, 36336, Control_c, 0, 64, 65
1, 36338, Note_off_c, 0, 67, 66
1, 36340, Note_off_c, 0, 69, 62
1, 36381, Control_c, 0, 64, 63
1, 36397, Control_c, 0, 64, 54
1, 36412, Control_c, 0, 64, 0
1, 36435, Note_on_c, 0, 64, 87
1, 36470, Note_off_c, 0, 64, 63
1, 36572, Note_on_c, 0, 64, 72
1, 36572, Note_on_c, 0, 66, 72
1, 36576, Note_on_c, 0, 60, 63
1, 36598, Note_off_c, 0, 60, 63
1, 36598, Note_off_c, 0, 66, 69
1, 36602, Note_off_c, 0, 64, 65
1, 36679, Note_on_c, 0, 57, 89
1, 36701, Note_off_c, 0, 57, 70
1, 36737, Control_c, 0, 64, 50
1, 36752, Control_c, 0, 64, 60
1, 36782, Control_c, 0, 64, 61
1, 36798, Note_on_c, 0, 60, 76
1, 36803, Note_on_c, 0, 59, 73
1, 36805, Note_on_c, 0, 55, 66
1, 36827, Note_off_c, 0, 55, 61
1, 36830, Note_off_c, 0, 59, 62
1, 36834, Note_off_c, 0, 60, 65
1, 36856, Control_c, 0, 64, 60
1, 36862, Note_on_c, 0, 47, 90
1, 36871, Control_c, 0, 64, 58
1, 36886, Control_c, 0, 64, 55
1, 36900, Control_c, 0, 64, 52
1, 36922, Control_c, 0, 64, 51
1, 37013, Note_on_c, 0, 60, 98
1, 37026, Control_c, 0, 64, 51
1, 37047, Note_off_c, 0, 60, 68
1, 37076, Note_on_c, 0, 48, 15
1, 37076, Note_off_c, 0, 48, 127
1, 37145, Note_on_c, 0, 64, 81
1, 37152, Note_on_c, 0, 57, 84
1, 37169, Note_on_c, 0, 55, 47
1, 37174, Control_c, 0, 64, 51
1, 37179, Note_on_c, 0, 56, 22
1, 37189, Control_c, 0, 64, 50
1, 37199, Note_off_c, 0, 55, 56
1, 37214, Note_off_c, 0, 57, 57
1, 37220, Control_c, 0, 64, 50
1, 37228, Note_off_c, 0, 56, 28
1, 37242, Note_off_c, 0, 64, 59
1, 37275, Note_on_c, 0, 60, 68
1, 37280, Note_on_c, 0, 59, 87
1, 37303, Note_off_c, 0, 60, 68
1, 37306, Note_off_c, 0, 59, 66
1, 37415, Note_on_c, 0, 55, 84
1, 37427, Control_c, 0, 64, 49
1, 37441, Control_c, 0, 64, 48
1, 37456, Control_c, 0, 64, 46
1, 37459, Note_off_c, 0, 55, 61
1, 37471, Control_c, 0, 64, 42
1, 37486, Control_c, 0, 64, 36
1, 37501, Control_c, 0, 64, 0
1, 37543, Note_on_c, 0, 57, 84
1, 37549, Note_on_c, 0, 66, 54
1, 37554, Note_on_c, 0, 60, 56
1, 37556, Note_on_c, 0, 64, 67
1, 37586, Note_off_c, 0, 66, 61
1, 37586, Note_off_c, 0, 57, 61
1, 37589, Control_c, 0, 64, 31
1, 37604, Control_c, 0, 64, 37
1, 37610, Note_off_c, 0, 60, 51
1, 37619, Control_c, 0, 64, 43
1, 37634, Control_c, 0, 64, 50
1, 37649, Control_c, 0, 64, 53
1, 37652, Note_off_c, 0, 64, 56
1, 37671, Control_c, 0, 64, 55
1, 37681, Note_on_c, 0, 63, 70
1, 37682, Note_on_c, 0, 54, 80
1, 37686, Control_c, 0, 64, 55
1, 37701, Control_c, 0, 64, 56
1, 37713, Note_off_c, 0, 47, 61
1, 37716, Control_c, 0, 64, 56
1, 37717, Note_off_c, 0, 63, 62
1, 37730, Note_off_c, 0, 54, 61
1, 37745, Control_c, 0, 64, 56
1, 37760, Control_c, 0, 64, 53
1, 37774, Control_c, 0, 64, 49
1, 37789, Control_c, 0, 64, 43
1, 37804, Control_c, 0, 64, 37
1, 37813, Note_on_c, 0, 57, 82
1, 37818, Note_on_c, 0, 47, 78
1, 37819, Control_c, 0, 64, 30
1, 37834, Control_c, 0, 64, 0
1, 37861, Note_off_c, 0, 57, 62
1, 37864, Control_c, 0, 67, 48
1, 37879, Control_c, 0, 67, 60
1, 37893, Control_c, 0, 67, 70
1, 37908, Control_c, 0, 67, 79
1, 37923, Control_c, 0, 67, 88
1, 37930, Note_on_c, 0, 59, 65
1, 37937, Note_on_c, 0, 54, 75
1, 37938, Control_c, 0, 67, 97
1, 37939, Note_on_c, 0, 64, 60
1, 37953, Control_c, 0, 67, 107
1, 37968, Control_c, 0, 67, 117
1, 37980, Note_off_c, 0, 59, 56
1, 37982, Control_c, 0, 67, 127
1, 37988, Note_off_c, 0, 54, 58
1, 38008, Note_off_c, 0, 64, 58
1, 38057, Note_on_c, 0, 60, 69
1, 38068, Note_on_c, 0, 55, 70
1, 38090, Note_off_c, 0, 60, 63
1, 38096, Note_off_c, 0, 55, 66
1, 38197, Note_on_c, 0, 52, 73
1, 38244, Note_off_c, 0, 52, 59
1, 38322, Note_on_c, 0, 55, 71
1, 38326, Note_on_c, 0, 54, 69
1, 38342, Note_on_c, 0, 62, 53
1, 38371, Note_off_c, 0, 55, 57
1, 38379, Note_off_c, 0, 54, 57
1, 38421, Note_off_c, 0, 62, 55
1, 38450, Control_c, 0, 64, 38
1, 38453, Note_off_c, 0, 47, 58
1, 38460, Note_on_c, 0, 50, 72
1, 38465, Control_c, 0, 64, 50
1, 38472, Note_on_c, 0, 59, 63
1, 38479, Control_c, 0, 64, 55
1, 38494, Control_c, 0, 64, 57
1, 38506, Note_off_c, 0, 59, 64
1, 38509, Control_c, 0, 64, 58
1, 38538, Control_c, 0, 64, 59
1, 38583, Control_c, 0, 64, 58
1, 38588, Note_off_c, 0, 50, 62
1, 38597, Control_c, 0, 64, 54
1, 38612, Control_c, 0, 64, 46
1, 38620, Note_on_c, 0, 47, 66
1, 38627, Control_c, 0, 64, 36
1, 38629, Note_on_c, 0, 54, 70
1, 38642, Control_c, 0, 64, 0
1, 38669, Note_off_c, 0, 54, 60
1, 38815, Note_on_c, 0, 55, 59
1, 38821, Note_on_c, 0, 52, 66
1, 38832, Note_on_c, 0, 62, 47
1, 38853, Note_off_c, 0, 52, 65
1, 38859, Note_off_c, 0, 55, 55
1, 38974, Note_off_c, 0, 62, 60
1, 38976, Note_on_c, 0, 54, 63
1, 38980, Note_on_c, 0, 59, 63
1, 39011, Note_off_c, 0, 59, 65
1, 39016, Note_off_c, 0, 54, 58
1, 39120, Note_on_c, 0, 52, 70
1, 39149, Note_off_c, 0, 52, 64
1, 39256, Note_on_c, 0, 50, 65
1, 39262, Note_on_c, 0, 52, 54
1, 39273, Note_on_c, 0, 57, 51
1, 39281, Note_off_c, 0, 47, 55
1, 39291, Note_off_c, 0, 50, 62
1, 39300, Note_off_c, 0, 52, 50
1, 39329, Note_off_c, 0, 57, 55
1, 39396, Note_on_c, 0, 48, 73
1, 39401, Note_on_c, 0, 54, 52
1, 39420, Note_off_c, 0, 48, 63
1, 39434, Note_off_c, 0, 54, 62
1, 39536, Note_on_c, 0, 35, 73
1, 39567, Note_off_c, 0, 35, 64
1, 39675, Note_on_c, 0, 55, 55
1, 39685, Note_on_c, 0, 52, 42
1, 39703, Note_on_c, 0, 54, 16
1, 39706, Note_off_c, 0, 55, 64
1, 39719, Note_off_c, 0, 52, 52
1, 39745, Note_off_c, 0, 54, 29
1, 39815, Note_on_c, 0, 48, 73
1, 39844, Note_off_c, 0, 48, 65
1, 39950, Note_on_c, 0, 57, 58
1, 39956, Note_on_c, 0, 54, 53
1, 39956, Note_on_c, 0, 52, 48
1, 39980, Note_off_c, 0, 54, 61
1, 39986, Note_off_c, 0, 52, 52
1, 39986, Note_off_c, 0, 57, 65
1, 40108, Note_on_c, 0, 54, 59
1, 40132, Note_off_c, 0, 54, 56
1, 40184, Control_c, 0, 64, 28
1, 40199, Control_c, 0, 64, 45
1, 40214, Control_c, 0, 64, 57
1, 40229, Control_c, 0, 64, 61
1, 40243, Control_c, 0, 64, 63
1, 40258, Control_c, 0, 64, 63
1, 40268, Note_on_c, 0, 51, 56
1, 40273, Control_c, 0, 64, 64
1, 40287, Control_c, 0, 64, 64
1, 40296, Note_off_c, 0, 51, 62
1, 40317, Control_c, 0, 64, 65
1, 40350, Note_on_c, 0, 47, 31
1, 40422, Control_c, 0, 64, 62
1, 40424, Note_on_c, 0, 61, 93
1, 40426, Note_on_c, 0, 64, 81
1, 40437, Control_c, 0, 64, 53
1, 40445, Note_off_c, 0, 47, 60
1, 40451, Note_off_c, 0, 61, 69
1, 40452, Control_c, 0, 64, 0
1, 40467, Note_off_c, 0, 64, 61
1, 40564, Note_on_c, 0, 54, 68
1, 40565, Note_on_c, 0, 59, 63
1, 40591, Note_off_c, 0, 59, 65
1, 40591, Note_off_c, 0, 54, 64
1, 40701, Note_on_c, 0, 64, 74
1, 40708, Note_on_c, 0, 61, 70
1, 40716, Note_on_c, 0, 55, 51
1, 40725, Note_off_c, 0, 61, 67
1, 40740, Note_off_c, 0, 64, 61
1, 40749, Note_off_c, 0, 55, 54
1, 40827, Note_on_c, 0, 61, 73
1, 40837, Note_on_c, 0, 67, 72
1, 40845, Control_c, 0, 67, 119
1, 40853, Note_on_c, 0, 59, 49
1, 40859, Control_c, 0, 67, 103
1, 40873, Note_off_c, 0, 61, 64
1, 40874, Note_off_c, 0, 67, 58
1, 40874, Control_c, 0, 67, 90
1, 40877, Note_off_c, 0, 59, 57
1, 40889, Control_c, 0, 67, 81
1, 40904, Control_c, 0, 67, 74
1, 40918, Control_c, 0, 67, 72
1, 40933, Control_c, 0, 67, 71
1, 40961, Note_on_c, 0, 63, 79
1, 40963, Control_c, 0, 67, 71
1, 40970, Note_on_c, 0, 64, 70
1, 40978, Control_c, 0, 67, 70
1, 40990, Note_off_c, 0, 63, 61
1, 40992, Control_c, 0, 67, 68
1, 41005, Note_off_c, 0, 64, 62
1, 41007, Control_c, 0, 67, 66
1, 41022, Control_c, 0, 67, 62
1, 41037, Control_c, 0, 67, 56
1, 41052, Control_c, 0, 67, 49
1, 41066, Control_c, 0, 67, 40
1, 41081, Control_c, 0, 67, 0
1, 41084, Note_on_c, 0, 59, 73
1, 41086, Note_on_c, 0, 64, 77
1, 41101, Note_on_c, 0, 55, 68
1, 41109, Note_off_c, 0, 64, 71
1, 41110, Note_off_c, 0, 59, 67
1, 41131, Note_off_c, 0, 55, 65
1, 41214, Note_on_c, 0, 59, 69
1, 41219, Note_on_c, 0, 47, 80
1, 41219, Note_on_c, 0, 69, 80
1, 41220, Note_on_c, 0, 67, 83
1, 41245, Control_c, 0, 64, 37
1, 41260, Control_c, 0, 64, 49
1, 41275, Control_c, 0, 64, 55
1, 41278, Note_off_c, 0, 59, 61
1, 41281, Note_off_c, 0, 47, 63
1, 41289, Control_c, 0, 64, 57
1, 41304, Control_c, 0, 64, 59
1, 41319, Control_c, 0, 64, 61
1, 41333, Note_off_c, 0, 67, 52
1, 41333, Control_c, 0, 64, 63
1, 41342, Note_off_c, 0, 69, 37
1, 41348, Control_c, 0, 64, 64
1, 41353, Note_on_c, 0, 64, 74
1, 41360, Note_on_c, 0, 61, 71
1, 41363, Control_c, 0, 64, 64
1, 41378, Control_c, 0, 64, 65
1, 41390, Note_off_c, 0, 61, 64
1, 41398, Note_off_c, 0, 64, 64
1, 41415, Control_c, 0, 64, 62
1, 41430, Control_c, 0, 64, 47
1, 41445, Control_c, 0, 64, 0
1, 41493, Note_on_c, 0, 66, 80
1, 41495, Note_on_c, 0, 59, 70
1, 41495, Note_on_c, 0, 63, 73
1, 41504, Control_c, 0, 64, 32
1, 41519, Control_c, 0, 64, 49
1, 41526, Note_off_c, 0, 59, 65
1, 41527, Note_off_c, 0, 63, 66
1, 41534, Control_c, 0, 64, 58
1, 41548, Control_c, 0, 64, 62
1, 41563, Note_off_c, 0, 66, 62
1, 41563, Control_c, 0, 64, 63
1, 41578, Control_c, 0, 64, 64
1, 41593, Control_c, 0, 64, 65
1, 41608, Control_c, 0, 64, 66
1, 41616, Note_on_c, 0, 59, 69
1, 41623, Control_c, 0, 64, 67
1, 41623, Note_on_c, 0, 63, 71
1, 41650, Note_off_c, 0, 63, 67
1, 41652, Control_c, 0, 64, 66
1, 41661, Note_off_c, 0, 59, 59
1, 41667, Control_c, 0, 64, 61
1, 41682, Control_c, 0, 64, 39
1, 41697, Control_c, 0, 64, 0
1, 41741, Control_c, 0, 64, 35
1, 41742, Note_on_c, 0, 67, 98
1, 41745, Note_on_c, 0, 72, 84
1, 41746, Note_on_c, 0, 71, 87
1, 41748, Note_on_c, 0, 64, 86
1, 41756, Control_c, 0, 64, 55
1, 41771, Control_c, 0, 64, 62
1, 41786, Control_c, 0, 64, 64
1, 41789, Note_off_c, 0, 67, 58
1, 41796, Note_off_c, 0, 64, 64
1, 41810, Note_off_c, 0, 72, 59
1, 41815, Control_c, 0, 64, 65
1, 41826, Note_off_c, 0, 71, 61
1, 41845, Control_c, 0, 64, 65
1, 41860, Control_c, 0, 64, 66
1, 41871, Note_on_c, 0, 63, 80
1, 41875, Note_on_c, 0, 66, 84
1, 41875, Control_c, 0, 64, 68
1, 41889, Control_c, 0, 64, 69
1, 41904, Control_c, 0, 64, 70
1, 41915, Note_off_c, 0, 63, 57
1, 41919, Note_off_c, 0, 66, 59
1, 41919, Control_c, 0, 64, 71
1, 41963, Control_c, 0, 64, 66
1, 41978, Control_c, 0, 64, 52
1, 41994, Control_c, 0, 64, 0
1, 42008, Note_on_c, 0, 64, 95
1, 42008, Note_on_c, 0, 71, 84
1, 42010, Note_on_c, 0, 69, 89
1, 42016, Note_on_c, 0, 59, 82
1, 42017, Note_on_c, 0, 60, 75
1, 42039, Note_off_c, 0, 64, 66
1, 42043, Note_off_c, 0, 60, 65
1, 42044, Note_off_c, 0, 71, 59
1, 42047, Note_off_c, 0, 59, 64
1, 42058, Note_off_c, 0, 69, 60
1, 42150, Note_on_c, 0, 62, 68
1, 42165, Note_on_c, 0, 66, 67
1, 42186, Note_off_c, 0, 62, 66
1, 42197, Note_off_c, 0, 66, 66
1, 42272, Note_on_c, 0, 64, 84
1, 42284, Note_on_c, 0, 69, 73
1, 42304, Note_off_c, 0, 64, 61
1, 42308, Note_off_c, 0, 69, 70
1, 42405, Note_on_c, 0, 74, 92
1, 42407, Note_on_c, 0, 64, 86
1, 42412, Note_on_c, 0, 66, 83
1, 42416, Note_on_c, 0, 72, 77
1, 42439, Note_off_c, 0, 64, 64
1, 42439, Note_off_c, 0, 72, 65
1, 42450, Note_off_c, 0, 74, 65
1, 42455, Note_off_c, 0, 66, 57
1, 42536, Note_on_c, 0, 72, 65
1, 42554, Note_on_c, 0, 69, 60
1, 42568, Note_off_c, 0, 72, 57
1, 42573, Note_off_c, 0, 69, 63
1, 42658, Note_on_c, 0, 66, 78
1, 42659, Note_on_c, 0, 72, 80
1, 42684, Note_off_c, 0, 66, 67
1, 42686, Note_off_c, 0, 72, 60
1, 42691, Note_on_c, 0, 64, 47
1, 42718, Note_off_c, 0, 64, 58
1, 42788, Note_on_c, 0, 59, 86
1, 42788, Note_on_c, 0, 76, 88
1, 42795, Note_on_c, 0, 65, 72
1, 42800, Note_on_c, 0, 74, 78
1, 42818, Control_c, 0, 64, 33
1, 42818, Note_off_c, 0, 65, 70
1, 42833, Control_c, 0, 64, 47
1, 42848, Control_c, 0, 64, 59
1, 42861, Note_off_c, 0, 59, 61
1, 42862, Control_c, 0, 64, 62
1, 42865, Note_off_c, 0, 74, 60
1, 42868, Note_off_c, 0, 76, 62
1, 42877, Control_c, 0, 64, 64
1, 42892, Control_c, 0, 64, 65
1, 42907, Control_c, 0, 64, 66
1, 42924, Note_on_c, 0, 72, 76
1, 42928, Note_on_c, 0, 70, 81
1, 42943, Note_off_c, 0, 72, 70
1, 42955, Note_off_c, 0, 70, 62
1, 42958, Control_c, 0, 64, 62
1, 42973, Control_c, 0, 64, 42
1, 42988, Control_c, 0, 64, 0
1, 43047, Note_on_c, 0, 79, 91
1, 43047, Control_c, 0, 64, 29
1, 43053, Note_on_c, 0, 76, 80
1, 43059, Note_on_c, 0, 72, 83
1, 43062, Control_c, 0, 64, 48
1, 43077, Control_c, 0, 64, 55
1, 43092, Control_c, 0, 64, 58
1, 43095, Note_off_c, 0, 76, 49
1, 43107, Control_c, 0, 64, 59
1, 43121, Control_c, 0, 64, 61
1, 43133, Note_off_c, 0, 79, 63
1, 43136, Control_c, 0, 64, 63
1, 43151, Control_c, 0, 64, 64
1, 43164, Note_off_c, 0, 72, 55
1, 43166, Control_c, 0, 64, 65
1, 43167, Note_on_c, 0, 78, 76
1, 43168, Note_on_c, 0, 82, 75
1, 43175, Note_on_c, 0, 75, 84
1, 43181, Control_c, 0, 64, 66
1, 43194, Note_off_c, 0, 78, 60
1, 43215, Note_off_c, 0, 82, 62
1, 43220, Note_off_c, 0, 75, 63
1, 43225, Control_c, 0, 64, 66
1, 43240, Control_c, 0, 64, 59
1, 43255, Control_c, 0, 64, 0
1, 43310, Note_on_c, 0, 79, 94
1, 43310, Note_on_c, 0, 83, 100
1, 43311, Note_on_c, 0, 76, 93
1, 43316, Note_on_c, 0, 71, 83
1, 43328, Control_c, 0, 64, 45
1, 43343, Control_c, 0, 64, 59
1, 43358, Control_c, 0, 64, 63
1, 43360, Note_off_c, 0, 76, 65
1, 43373, Control_c, 0, 64, 63
1, 43387, Control_c, 0, 64, 64
1, 43402, Control_c, 0, 64, 64
1, 43408, Note_off_c, 0, 79, 59
1, 43410, Note_off_c, 0, 83, 58
1, 43417, Control_c, 0, 64, 65
1, 43424, Note_on_c, 0, 75, 83
1, 43431, Note_on_c, 0, 78, 91
1, 43432, Control_c, 0, 64, 67
1, 43447, Control_c, 0, 64, 69
1, 43453, Note_off_c, 0, 71, 60
1, 43462, Control_c, 0, 64, 71
1, 43469, Note_off_c, 0, 75, 63
1, 43476, Note_off_c, 0, 78, 62
1, 43477, Control_c, 0, 64, 73
1, 43492, Control_c, 0, 64, 73
1, 43521, Control_c, 0, 64, 72
1, 43536, Control_c, 0, 64, 63
1, 43551, Control_c, 0, 64, 0
1, 43557, Note_on_c, 0, 71, 94
1, 43562, Note_on_c, 0, 73, 90
1, 43598, Note_off_c, 0, 71, 62
1, 43608, Note_off_c, 0, 73, 64
1, 43703, Note_on_c, 0, 75, 77
1, 43715, Note_on_c, 0, 83, 57
1, 43725, Note_off_c, 0, 75, 72
1, 43737, Note_on_c, 0, 79, 26
1, 43738, Note_off_c, 0, 83, 61
1, 43773, Note_off_c, 0, 79, 48
1, 43823, Note_on_c, 0, 73, 73
1, 43831, Note_on_c, 0, 76, 75
1, 43846, Note_off_c, 0, 73, 68
1, 43853, Note_off_c, 0, 76, 70
1, 43951, Note_on_c, 0, 73, 88
1, 43951, Note_on_c, 0, 79, 86
1, 43954, Note_on_c, 0, 71, 90
1, 43984, Note_off_c, 0, 71, 61
1, 43994, Note_off_c, 0, 79, 64
1, 44002, Note_off_c, 0, 73, 61
1, 44080, Note_on_c, 0, 76, 76
1, 44082, Note_on_c, 0, 75, 70
1, 44102, Note_off_c, 0, 76, 68
1, 44106, Note_off_c, 0, 75, 66
1, 44206, Note_on_c, 0, 73, 73
1, 44207, Note_on_c, 0, 79, 70
1, 44228, Note_off_c, 0, 79, 70
1, 44231, Note_off_c, 0, 73, 64
1, 44335, Note_on_c, 0, 71, 84
1, 44338, Note_on_c, 0, 76, 79
1, 44338, Note_on_c, 0, 83, 73
1, 44346, Note_on_c, 0, 79, 63
1, 44379, Note_off_c, 0, 76, 55
1, 44389, Control_c, 0, 64, 33
1, 44404, Control_c, 0, 64, 46
1, 44425, Note_off_c, 0, 71, 55
1, 44426, Control_c, 0, 64, 55
1, 44436, Note_off_c, 0, 79, 57
1, 44437, Note_off_c, 0, 83, 55
1, 44440, Control_c, 0, 64, 58
1, 44455, Control_c, 0, 64, 59
1, 44472, Note_on_c, 0, 78, 72
1, 44481, Note_on_c, 0, 75, 72
1, 44485, Control_c, 0, 64, 57
1, 44500, Control_c, 0, 64, 47
1, 44505, Note_off_c, 0, 75, 71
1, 44511, Note_off_c, 0, 78, 57
1, 44514, Control_c, 0, 64, 0
1, 44589, Control_c, 0, 64, 38
1, 44599, Note_on_c, 0, 79, 85
1, 44603, Control_c, 0, 64, 51
1, 44606, Note_on_c, 0, 71, 82
1, 44608, Note_on_c, 0, 73, 74
1, 44618, Control_c, 0, 64, 59
1, 44621, Note_on_c, 0, 76, 63
1, 44633, Control_c, 0, 64, 61
1, 44648, Control_c, 0, 64, 62
1, 44652, Note_off_c, 0, 71, 50
1, 44663, Control_c, 0, 64, 64
1, 44678, Control_c, 0, 64, 66
1, 44693, Control_c, 0, 64, 69
1, 44696, Note_off_c, 0, 79, 60
1, 44708, Control_c, 0, 64, 72
1, 44715, Note_off_c, 0, 73, 62
1, 44721, Note_on_c, 0, 75, 82
1, 44722, Note_on_c, 0, 78, 88
1, 44722, Control_c, 0, 64, 75
1, 44734, Note_off_c, 0, 76, 63
1, 44737, Control_c, 0, 64, 76
1, 44744, Note_off_c, 0, 75, 69
1, 44766, Control_c, 0, 64, 75
1, 44767, Note_off_c, 0, 78, 63
1, 44781, Control_c, 0, 64, 66
1, 44796, Control_c, 0, 64, 55
1, 44811, Control_c, 0, 64, 46
1, 44826, Control_c, 0, 64, 49
1, 44837, Note_on_c, 0, 76, 97
1, 44840, Control_c, 0, 64, 56
1, 44842, Note_on_c, 0, 74, 103
1, 44849, Note_on_c, 0, 70, 76
1, 44855, Control_c, 0, 64, 62
1, 44862, Note_on_c, 0, 67, 62
1, 44870, Control_c, 0, 64, 66
1, 44884, Control_c, 0, 64, 67
1, 44887, Note_on_c, 0, 66, 20
1, 44899, Control_c, 0, 64, 68
1, 44914, Control_c, 0, 64, 68
1, 44928, Note_off_c, 0, 74, 61
1, 44929, Control_c, 0, 64, 69
1, 44930, Note_off_c, 0, 67, 0
1, 44931, Note_off_c, 0, 70, 62
1, 44932, Note_off_c, 0, 66, 29
1, 44944, Control_c, 0, 64, 70
1, 44953, Note_on_c, 0, 67, 45
1, 44958, Control_c, 0, 64, 72
1, 44959, Note_on_c, 0, 75, 94
1, 44973, Note_on_c, 0, 66, 63
1, 44973, Control_c, 0, 64, 75
1, 44976, Note_on_c, 0, 71, 74
1, 44988, Control_c, 0, 64, 78
1, 44989, Note_off_c, 0, 67, 64
1, 44989, Note_off_c, 0, 76, 58
1, 45000, Note_off_c, 0, 66, 64
1, 45000, Note_off_c, 0, 71, 68
1, 45003, Control_c, 0, 64, 81
1, 45012, Note_off_c, 0, 75, 65
1, 45018, Control_c, 0, 64, 82
1, 45033, Control_c, 0, 64, 83
1, 45063, Control_c, 0, 64, 81
1, 45077, Control_c, 0, 64, 70
1, 45092, Control_c, 0, 64, 37
1, 45098, Note_on_c, 0, 76, 84
1, 45104, Note_on_c, 0, 67, 88
1, 45105, Note_on_c, 0, 59, 75
1, 45107, Control_c, 0, 64, 0
1, 45131, Note_off_c, 0, 59, 68
1, 45142, Note_off_c, 0, 67, 64
1, 45161, Note_off_c, 0, 76, 62
1, 45238, Note_on_c, 0, 72, 78
1, 45247, Note_on_c, 0, 67, 70
1, 45248, Note_on_c, 0, 70, 73
1, 45266, Note_off_c, 0, 72, 60
1, 45270, Note_off_c, 0, 67, 69
1, 45271, Note_off_c, 0, 70, 70
1, 45360, Note_on_c, 0, 74, 84
1, 45361, Note_on_c, 0, 67, 72
1, 45367, Note_on_c, 0, 70, 73
1, 45384, Note_off_c, 0, 67, 69
1, 45389, Note_off_c, 0, 70, 71
1, 45394, Note_off_c, 0, 74, 61
1, 45474, Note_on_c, 0, 70, 74
1, 45485, Note_on_c, 0, 74, 82
1, 45488, Note_on_c, 0, 78, 80
1, 45489, Note_on_c, 0, 67, 67
1, 45510, Note_off_c, 0, 67, 61
1, 45516, Note_off_c, 0, 74, 57
1, 45524, Note_off_c, 0, 78, 53
1, 45542, Note_off_c, 0, 70, 54
1, 45603, Note_on_c, 0, 76, 91
1, 45608, Note_on_c, 0, 67, 71
1, 45618, Note_on_c, 0, 72, 56
1, 45622, Note_on_c, 0, 71, 57
1, 45637, Note_off_c, 0, 67, 65
1, 45638, Note_off_c, 0, 72, 63
1, 45644, Note_off_c, 0, 71, 59
1, 45653, Note_off_c, 0, 76, 64
1, 45728, Note_on_c, 0, 72, 84
1, 45734, Note_on_c, 0, 67, 80
1, 45753, Note_off_c, 0, 67, 73
1, 45763, Note_off_c, 0, 72, 64
1, 45853, Note_on_c, 0, 66, 94
1, 45861, Note_on_c, 0, 76, 87
1, 45861, Note_on_c, 0, 71, 95
1, 45864, Note_on_c, 0, 59, 84
1, 45886, Control_c, 0, 64, 53
1, 45908, Control_c, 0, 64, 61
1, 45913, Note_off_c, 0, 66, 66
1, 45918, Note_off_c, 0, 71, 63
1, 45923, Control_c, 0, 64, 62
1, 45938, Control_c, 0, 64, 63
1, 45939, Note_off_c, 0, 59, 59
1, 45946, Note_off_c, 0, 76, 63
1, 45953, Control_c, 0, 64, 65
1, 45968, Control_c, 0, 64, 67
1, 45984, Control_c, 0, 64, 69
1, 45991, Note_on_c, 0, 67, 80
1, 45993, Note_on_c, 0, 64, 80
1, 45999, Control_c, 0, 64, 70
1, 46013, Control_c, 0, 64, 71
1, 46028, Note_off_c, 0, 64, 65
1, 46039, Note_off_c, 0, 67, 64
1, 46058, Control_c, 0, 64, 68
1, 46073, Control_c, 0, 64, 58
1, 46087, Control_c, 0, 64, 0
1, 46121, Note_on_c, 0, 71, 82
1, 46122, Note_on_c, 0, 66, 87
1, 46130, Note_on_c, 0, 63, 79
1, 46191, Note_off_c, 0, 63, 59
1, 46204, Note_off_c, 0, 71, 61
1, 46207, Note_off_c, 0, 66, 62
1, 46246, Note_on_c, 0, 64, 76
1, 46257, Note_on_c, 0, 61, 76
1, 46285, Note_off_c, 0, 64, 66
1, 46303, Note_off_c, 0, 61, 56
1, 46382, Note_on_c, 0, 67, 86
1, 46389, Note_on_c, 0, 64, 84
1, 46395, Note_on_c, 0, 59, 75
1, 46397, Control_c, 0, 64, 40
1, 46411, Control_c, 0, 64, 59
1, 46423, Note_off_c, 0, 59, 65
1, 46426, Control_c, 0, 64, 59
1, 46437, Note_off_c, 0, 64, 62
1, 46441, Control_c, 0, 64, 60
1, 46456, Control_c, 0, 64, 61
1, 46459, Note_off_c, 0, 67, 59
1, 46471, Control_c, 0, 64, 63
1, 46485, Control_c, 0, 64, 64
1, 46487, Note_on_c, 0, 63, 77
1, 46497, Note_on_c, 0, 66, 86
1, 46500, Control_c, 0, 64, 66
1, 46508, Note_off_c, 0, 63, 67
1, 46515, Control_c, 0, 64, 68
1, 46529, Control_c, 0, 64, 69
1, 46544, Control_c, 0, 64, 70
1, 46552, Note_off_c, 0, 66, 65
1, 46559, Control_c, 0, 64, 71
1, 46574, Control_c, 0, 64, 72
1, 46604, Control_c, 0, 64, 69
1, 46619, Control_c, 0, 64, 57
1, 46625, Note_on_c, 0, 47, 77
1, 46633, Control_c, 0, 64, 0
1, 46644, Note_on_c, 0, 61, 52
1, 46645, Note_on_c, 0, 58, 52
1, 46645, Note_off_c, 0, 58, 127
1, 46660, Note_off_c, 0, 47, 65
1, 46676, Note_off_c, 0, 61, 59
1, 46767, Note_on_c, 0, 63, 82
1, 46790, Note_off_c, 0, 63, 70
1, 46797, Note_on_c, 0, 67, 41
1, 46800, Note_on_c, 0, 59, 43
1, 46827, Note_off_c, 0, 67, 55
1, 46829, Note_off_c, 0, 59, 56
1, 46890, Note_on_c, 0, 64, 74
1, 46895, Note_on_c, 0, 61, 69
1, 46899, Note_on_c, 0, 59, 63
1, 46917, Note_off_c, 0, 64, 66
1, 46919, Note_off_c, 0, 59, 65
1, 46923, Note_off_c, 0, 61, 66
1, 47008, Note_on_c, 0, 61, 80
1, 47009, Note_on_c, 0, 64, 84
1, 47012, Note_on_c, 0, 59, 67
1, 47038, Note_off_c, 0, 64, 65
1, 47038, Note_off_c, 0, 59, 66
1, 47045, Note_off_c, 0, 61, 63
1, 47133, Note_on_c, 0, 63, 74
1, 47143, Note_on_c, 0, 67, 63
1, 47158, Note_off_c, 0, 63, 68
1, 47171, Note_off_c, 0, 67, 67
1, 47259, Note_on_c, 0, 61, 73
1, 47262, Note_on_c, 0, 64, 70
1, 47282, Note_on_c, 0, 67, 40
1, 47286, Note_off_c, 0, 61, 66
1, 47289, Note_off_c, 0, 64, 67
1, 47314, Note_off_c, 0, 67, 51
1, 47384, Note_on_c, 0, 64, 63
1, 47388, Note_on_c, 0, 59, 80
1, 47389, Note_on_c, 0, 67, 69
1, 47396, Note_on_c, 0, 71, 74
1, 47472, Note_off_c, 0, 59, 54
1, 47483, Note_off_c, 0, 71, 57
1, 47490, Note_off_c, 0, 64, 63
1, 47493, Control_c, 0, 64, 28
1, 47493, Control_c, 0, 67, 39
1, 47508, Control_c, 0, 64, 33
1, 47508, Control_c, 0, 67, 50
1, 47509, Note_off_c, 0, 67, 55
1, 47519, Note_on_c, 0, 63, 70
1, 47523, Control_c, 0, 64, 35
1, 47523, Control_c, 0, 67, 58
1, 47528, Note_on_c, 0, 66, 75
1, 47538, Control_c, 0, 64, 36
1, 47538, Control_c, 0, 67, 64
1, 47553, Control_c, 0, 64, 36
1, 47553, Control_c, 0, 67, 66
1, 47567, Control_c, 0, 64, 33
1, 47567, Control_c, 0, 67, 66
1, 47577, Note_off_c, 0, 63, 59
1, 47579, Note_off_c, 0, 66, 62
1, 47583, Control_c, 0, 64, 0
1, 47598, Control_c, 0, 67, 66
1, 47613, Control_c, 0, 67, 64
1, 47628, Control_c, 0, 67, 63
1, 47643, Control_c, 0, 67, 61
1, 47657, Control_c, 0, 67, 59
1, 47662, Note_on_c, 0, 67, 74
1, 47664, Note_on_c, 0, 60, 69
1, 47665, Note_on_c, 0, 64, 71
1, 47672, Control_c, 0, 67, 56
1, 47687, Control_c, 0, 64, 30
1, 47687, Control_c, 0, 67, 54
1, 47701, Control_c, 0, 64, 39
1, 47701, Control_c, 0, 67, 52
1, 47714, Note_off_c, 0, 64, 52
1, 47716, Control_c, 0, 64, 47
1, 47716, Control_c, 0, 67, 50
1, 47731, Control_c, 0, 64, 54
1, 47731, Control_c, 0, 67, 48
1, 47746, Control_c, 0, 64, 58
1, 47746, Control_c, 0, 67, 46
1, 47749, Note_off_c, 0, 60, 57
1, 47761, Control_c, 0, 64, 60
1, 47761, Control_c, 0, 67, 45
1, 47762, Note_off_c, 0, 67, 59
1, 47775, Control_c, 0, 64, 61
1, 47775, Control_c, 0, 67, 43
1, 47781, Note_on_c, 0, 59, 80
1, 47784, Note_on_c, 0, 66, 80
1, 47784, Note_on_c, 0, 63, 77
1, 47790, Control_c, 0, 64, 62
1, 47790, Control_c, 0, 67, 43
1, 47805, Control_c, 0, 64, 63
1, 47805, Control_c, 0, 67, 41
1, 47820, Control_c, 0, 64, 64
1, 47820, Control_c, 0, 67, 40
1, 47835, Control_c, 0, 67, 39
1, 47838, Note_off_c, 0, 66, 65
1, 47838, Note_off_c, 0, 63, 63
1, 47844, Note_off_c, 0, 59, 64
1, 47850, Control_c, 0, 64, 63
1, 47850, Control_c, 0, 67, 38
1, 47865, Control_c, 0, 64, 57
1, 47865, Control_c, 0, 67, 0
1, 47879, Control_c, 0, 64, 43
1, 47894, Control_c, 0, 64, 0
1, 47906, Note_on_c, 0, 60, 87
1, 47911, Note_on_c, 0, 64, 81
1, 47915, Note_on_c, 0, 55, 78
1, 47924, Control_c, 0, 64, 32
1, 47939, Control_c, 0, 64, 48
1, 47954, Control_c, 0, 64, 58
1, 47969, Control_c, 0, 64, 62
1, 47978, Note_off_c, 0, 55, 61
1, 47983, Control_c, 0, 64, 63
1, 47984, Note_off_c, 0, 60, 61
1, 47990, Note_off_c, 0, 64, 62
1, 47998, Control_c, 0, 64, 64
1, 48013, Control_c, 0, 64, 65
1, 48026, Note_on_c, 0, 63, 87
1, 48028, Control_c, 0, 64, 67
1, 48032, Note_on_c, 0, 59, 81
1, 48035, Note_on_c, 0, 54, 81
1, 48043, Control_c, 0, 64, 69
1, 48057, Control_c, 0, 64, 70
1, 48068, Note_off_c, 0, 59, 61
1, 48072, Control_c, 0, 64, 71
1, 48078, Note_off_c, 0, 63, 65
1, 48103, Note_off_c, 0, 54, 61
1, 48116, Control_c, 0, 64, 67
1, 48131, Control_c, 0, 64, 55
1, 48146, Control_c, 0, 64, 0
1, 48158, Note_on_c, 0, 58, 80
1, 48168, Note_on_c, 0, 47, 68
1, 48170, Note_on_c, 0, 55, 87
1, 48170, Note_on_c, 0, 62, 78
1, 48173, Note_on_c, 0, 60, 82
1, 48186, Note_off_c, 0, 58, 62
1, 48197, Note_off_c, 0, 62, 66
1, 48201, Note_off_c, 0, 55, 61
1, 48214, Note_off_c, 0, 47, 61
1, 48221, Note_off_c, 0, 60, 61
1, 48301, Note_on_c, 0, 60, 63
1, 48309, Note_on_c, 0, 52, 58
1, 48316, Note_on_c, 0, 54, 60
1, 48331, Note_off_c, 0, 60, 65
1, 48342, Note_off_c, 0, 52, 63
1, 48346, Note_off_c, 0, 54, 64
1, 48429, Note_on_c, 0, 58, 64
1, 48430, Note_on_c, 0, 60, 69
1, 48431, Note_on_c, 0, 55, 70
1, 48449, Note_off_c, 0, 58, 62
1, 48461, Note_off_c, 0, 55, 66
1, 48465, Note_off_c, 0, 60, 61
1, 48542, Note_on_c, 0, 58, 67
1, 48556, Note_on_c, 0, 55, 75
1, 48564, Note_on_c, 0, 60, 71
1, 48575, Note_off_c, 0, 58, 65
1, 48582, Note_off_c, 0, 55, 67
1, 48594, Note_off_c, 0, 60, 64
1, 48689, Note_on_c, 0, 52, 59
1, 48696, Note_on_c, 0, 54, 50
1, 48704, Note_on_c, 0, 60, 44
1, 48722, Note_off_c, 0, 54, 57
1, 48728, Note_off_c, 0, 52, 62
1, 48731, Note_off_c, 0, 60, 53
1, 48813, Note_on_c, 0, 60, 67
1, 48817, Note_on_c, 0, 58, 68
1, 48831, Note_on_c, 0, 55, 52
1, 48850, Control_c, 0, 64, 34
1, 48858, Note_off_c, 0, 55, 57
1, 48859, Note_off_c, 0, 58, 60
1, 48865, Control_c, 0, 64, 47
1, 48880, Control_c, 0, 64, 55
1, 48887, Note_off_c, 0, 60, 61
1, 48902, Control_c, 0, 64, 58
1, 48917, Control_c, 0, 64, 59
1, 48962, Control_c, 0, 64, 54
1, 48976, Control_c, 0, 64, 38
1, 48981, Note_on_c, 0, 64, 77
1, 48987, Note_on_c, 0, 58, 50
1, 48991, Control_c, 0, 64, 0
1, 49001, Note_on_c, 0, 55, 32
1, 49002, Note_on_c, 0, 47, 41
1, 49013, Note_on_c, 0, 60, 50
1, 49051, Control_c, 0, 64, 29
1, 49051, Control_c, 0, 67, 46
1, 49065, Control_c, 0, 64, 43
1, 49065, Control_c, 0, 67, 70
1, 49080, Control_c, 0, 64, 53
1, 49080, Control_c, 0, 67, 88
1, 49090, Note_off_c, 0, 60, 54
1, 49096, Control_c, 0, 64, 58
1, 49096, Control_c, 0, 67, 96
1, 49111, Control_c, 0, 64, 59
1, 49111, Control_c, 0, 67, 98
1, 49116, Note_off_c, 0, 58, 56
1, 49125, Control_c, 0, 64, 59
1, 49155, Control_c, 0, 64, 60
1, 49158, Note_off_c, 0, 55, 39
1, 49159, Note_off_c, 0, 64, 62
1, 49165, Note_on_c, 0, 63, 82
1, 49170, Control_c, 0, 64, 61
1, 49170, Control_c, 0, 67, 96
1, 49179, Note_on_c, 0, 59, 71
1, 49185, Control_c, 0, 64, 62
1, 49185, Control_c, 0, 67, 94
1, 49188, Note_on_c, 0, 54, 50
1, 49200, Control_c, 0, 64, 62
1, 49200, Control_c, 0, 67, 92
1, 49212, Note_off_c, 0, 59, 64
1, 49215, Control_c, 0, 67, 91
1, 49224, Note_off_c, 0, 63, 63
1, 49230, Control_c, 0, 67, 90
1, 49241, Note_off_c, 0, 54, 53
1, 49245, Control_c, 0, 64, 62
1, 49245, Control_c, 0, 67, 88
1, 49260, Control_c, 0, 64, 57
1, 49260, Control_c, 0, 67, 87
1, 49275, Control_c, 0, 64, 40
1, 49275, Control_c, 0, 67, 86
1, 49289, Control_c, 0, 64, 0
1, 49289, Control_c, 0, 67, 85
1, 49304, Control_c, 0, 67, 85
1, 49308, Note_on_c, 0, 60, 75
1, 49316, Note_on_c, 0, 55, 64
1, 49319, Control_c, 0, 67, 84
1, 49323, Note_on_c, 0, 52, 60
1, 49349, Control_c, 0, 64, 37
1, 49349, Control_c, 0, 67, 83
1, 49363, Control_c, 0, 64, 44
1, 49371, Note_off_c, 0, 55, 49
1, 49375, Note_off_c, 0, 52, 51
1, 49378, Control_c, 0, 64, 50
1, 49378, Control_c, 0, 67, 83
1, 49391, Note_off_c, 0, 60, 61
1, 49393, Control_c, 0, 64, 54
1, 49408, Control_c, 0, 64, 55
1, 49423, Control_c, 0, 64, 56
1, 49426, Note_on_c, 0, 59, 71
1, 49438, Note_on_c, 0, 54, 67
1, 49441, Note_on_c, 0, 51, 61
1, 49452, Control_c, 0, 64, 55
1, 49467, Control_c, 0, 64, 53
1, 49467, Control_c, 0, 67, 83
1, 49470, Note_off_c, 0, 54, 63
1, 49471, Note_off_c, 0, 47, 54
1, 49471, Note_off_c, 0, 59, 60
1, 49480, Note_off_c, 0, 51, 63
1, 49481, Control_c, 0, 64, 43
1, 49496, Control_c, 0, 64, 0
1, 49561, Note_on_c, 0, 52, 72
1, 49570, Control_c, 0, 67, 83
1, 49571, Note_on_c, 0, 48, 65
1, 49582, Note_on_c, 0, 55, 56
1, 49585, Control_c, 0, 67, 82
1, 49600, Control_c, 0, 67, 81
1, 49615, Control_c, 0, 64, 32
1, 49629, Control_c, 0, 64, 39
1, 49629, Control_c, 0, 67, 81
1, 49631, Note_off_c, 0, 52, 50
1, 49635, Note_off_c, 0, 55, 58
1, 49638, Note_off_c, 0, 48, 55
1, 49652, Control_c, 0, 64, 44
1, 49667, Control_c, 0, 64, 49
1, 49681, Control_c, 0, 64, 51
1, 49691, Note_on_c, 0, 54, 69
1, 49696, Control_c, 0, 64, 52
1, 49697, Note_on_c, 0, 47, 65
1, 49698, Note_on_c, 0, 51, 59
1, 49711, Control_c, 0, 64, 53
1, 49726, Control_c, 0, 64, 54
1, 49727, Note_off_c, 0, 51, 64
1, 49728, Note_off_c, 0, 47, 64
1, 49741, Control_c, 0, 64, 54
1, 49741, Control_c, 0, 67, 81
1, 49751, Note_off_c, 0, 54, 60
1, 49785, Control_c, 0, 64, 53
1, 49785, Control_c, 0, 67, 81
1, 49800, Control_c, 0, 64, 45
1, 49815, Control_c, 0, 64, 0
1, 49826, Note_on_c, 0, 55, 73
1, 49827, Note_on_c, 0, 35, 75
1, 49827, Note_on_c, 0, 50, 70
1, 49832, Note_on_c, 0, 52, 64
1, 49857, Note_off_c, 0, 35, 64
1, 49858, Note_off_c, 0, 50, 66
1, 49859, Control_c, 0, 67, 81
1, 49863, Note_off_c, 0, 52, 64
1, 49875, Note_off_c, 0, 55, 62
1, 49904, Control_c, 0, 67, 82
1, 49933, Control_c, 0, 67, 83
1, 49960, Note_on_c, 0, 48, 76
1, 49965, Note_on_c, 0, 46, 56
1, 49990, Note_off_c, 0, 48, 65
1, 49993, Note_off_c, 0, 46, 56
1, 49993, Control_c, 0, 67, 83
1, 50089, Note_on_c, 0, 50, 66
1, 50094, Note_on_c, 0, 46, 55
1, 50110, Note_on_c, 0, 55, 28
1, 50117, Note_off_c, 0, 50, 64
1, 50119, Note_off_c, 0, 46, 57
1, 50151, Note_off_c, 0, 55, 48
1, 50219, Note_on_c, 0, 48, 71
1, 50219, Note_on_c, 0, 52, 62
1, 50233, Note_on_c, 0, 55, 55
1, 50246, Note_off_c, 0, 48, 63
1, 50246, Note_off_c, 0, 52, 63
1, 50261, Note_off_c, 0, 55, 62
1, 50338, Note_on_c, 0, 46, 57
1, 50351, Note_on_c, 0, 50, 60
1, 50368, Note_on_c, 0, 55, 26
1, 50369, Note_off_c, 0, 46, 62
1, 50374, Note_off_c, 0, 50, 61
1, 50419, Note_off_c, 0, 55, 48
1, 50485, Note_on_c, 0, 52, 57
1, 50492, Note_on_c, 0, 48, 69
1, 50503, Note_on_c, 0, 55, 58
1, 50511, Note_off_c, 0, 52, 57
1, 50515, Note_off_c, 0, 48, 61
1, 50527, Note_off_c, 0, 55, 58
1, 50578, Control_c, 0, 67, 83
1, 50622, Control_c, 0, 67, 82
1, 50641, Note_on_c, 0, 35, 69
1, 50673, Note_off_c, 0, 35, 64
1, 50741, Control_c, 0, 67, 81
1, 50801, Control_c, 0, 67, 81
1, 50920, Control_c, 0, 67, 81
1, 50926, Note_on_c, 0, 41, 60
1, 50928, Note_on_c, 0, 57, 59
1, 50932, Note_on_c, 0, 53, 51
1, 50935, Note_on_c, 0, 69, 56
1, 50939, Note_on_c, 0, 60, 47
1, 50940, Note_on_c, 0, 48, 47
1, 50947, Note_on_c, 0, 65, 38
1, 50949, Note_off_c, 0, 57, 62
1, 50957, Note_off_c, 0, 41, 65
1, 50958, Note_off_c, 0, 53, 55
1, 50962, Note_off_c, 0, 69, 62
1, 50965, Note_off_c, 0, 60, 55
1, 50974, Note_off_c, 0, 48, 51
1, 50978, Note_off_c, 0, 65, 52
1, 50994, Control_c, 0, 67, 81
1, 51218, Note_on_c, 0, 59, 60
1, 51221, Note_on_c, 0, 63, 61
1, 51221, Note_on_c, 0, 54, 51
1, 51221, Note_on_c, 0, 71, 55
1, 51223, Control_c, 0, 67, 80
1, 51232, Note_on_c, 0, 47, 46
1, 51239, Note_off_c, 0, 59, 62
1, 51243, Note_off_c, 0, 63, 64
1, 51245, Note_off_c, 0, 71, 57
1, 51246, Note_off_c, 0, 54, 58
1, 51252, Control_c, 0, 67, 79
1, 51266, Note_off_c, 0, 47, 51
1, 51297, Control_c, 0, 67, 80
1, 51341, Control_c, 0, 67, 81
1, 51430, Control_c, 0, 67, 80
1, 51460, Control_c, 0, 67, 79
1, 51474, Control_c, 0, 67, 79
1, 51489, Control_c, 0, 67, 77
1, 51502, Note_on_c, 0, 55, 74
1, 51504, Note_on_c, 0, 52, 70
1, 51504, Note_on_c, 0, 50, 68
1, 51504, Control_c, 0, 67, 77
1, 51509, Note_on_c, 0, 35, 87
1, 51519, Control_c, 0, 67, 76
1, 51530, Note_off_c, 0, 52, 66
1, 51533, Note_off_c, 0, 50, 66
1, 51541, Note_off_c, 0, 35, 66
1, 51544, Note_off_c, 0, 55, 62
1, 51579, Control_c, 0, 67, 77
1, 51609, Control_c, 0, 67, 77
1, 51623, Control_c, 0, 67, 78
1, 51638, Control_c, 0, 67, 79
1, 51641, Note_on_c, 0, 48, 68
1, 51656, Note_on_c, 0, 46, 42
1, 51664, Note_off_c, 0, 48, 60
1, 51692, Note_off_c, 0, 46, 49
1, 51772, Control_c, 0, 67, 78
1, 51775, Note_on_c, 0, 46, 64
1, 51783, Note_on_c, 0, 50, 50
1, 51802, Control_c, 0, 67, 77
1, 51808, Note_off_c, 0, 46, 63
1, 51811, Note_off_c, 0, 50, 56
1, 51817, Control_c, 0, 67, 77
1, 51831, Control_c, 0, 67, 76
1, 51846, Control_c, 0, 67, 75
1, 51861, Control_c, 0, 67, 75
1, 51910, Note_on_c, 0, 52, 83
1, 51913, Note_on_c, 0, 48, 86
1, 51918, Note_on_c, 0, 55, 63
1, 51934, Note_off_c, 0, 48, 67
1, 51945, Note_off_c, 0, 52, 64
1, 51953, Note_off_c, 0, 55, 64
1, 51957, Control_c, 0, 67, 74
1, 52031, Control_c, 0, 67, 75
1, 52047, Note_on_c, 0, 50, 61
1, 52051, Note_on_c, 0, 46, 59
1, 52070, Note_off_c, 0, 50, 62
1, 52075, Note_off_c, 0, 46, 61
1, 52178, Note_on_c, 0, 52, 62
1, 52183, Note_on_c, 0, 48, 72
1, 52191, Note_on_c, 0, 55, 60
1, 52195, Control_c, 0, 67, 74
1, 52200, Note_off_c, 0, 52, 59
1, 52205, Note_off_c, 0, 48, 63
1, 52217, Note_off_c, 0, 55, 62
1, 52224, Control_c, 0, 67, 73
1, 52239, Control_c, 0, 67, 72
1, 52254, Control_c, 0, 67, 68
1, 52269, Control_c, 0, 67, 57
1, 52283, Control_c, 0, 67, 0
1, 52325, Note_on_c, 0, 35, 85
1, 52348, Note_off_c, 0, 35, 67
1, 52591, Note_on_c, 0, 57, 76
1, 52593, Note_on_c, 0, 69, 77
1, 52595, Note_on_c, 0, 41, 72
1, 52596, Note_on_c, 0, 65, 72
1, 52597, Note_on_c, 0, 60, 68
1, 52598, Note_on_c, 0, 53, 74
1, 52606, Note_on_c, 0, 48, 66
1, 52618, Note_off_c, 0, 57, 68
1, 52620, Note_off_c, 0, 65, 69
1, 52625, Note_off_c, 0, 53, 69
1, 52625, Note_off_c, 0, 60, 68
1, 52627, Note_off_c, 0, 41, 65
1, 52630, Note_off_c, 0, 48, 59
1, 52633, Note_off_c, 0, 69, 64
1, 52881, Note_on_c, 0, 71, 83
1, 52882, Note_on_c, 0, 59, 83
1, 52887, Note_on_c, 0, 54, 74
1, 52888, Note_on_c, 0, 63, 77
1, 52890, Note_on_c, 0, 66, 78
1, 52892, Note_on_c, 0, 47, 77
1, 52905, Note_off_c, 0, 59, 71
1, 52905, Note_off_c, 0, 71, 65
1, 52910, Note_off_c, 0, 54, 65
1, 52911, Note_off_c, 0, 63, 69
1, 52912, Note_off_c, 0, 66, 71
1, 52914, Control_c, 0, 64, 40
1, 52914, Note_off_c, 0, 47, 67
1, 52929, Control_c, 0, 64, 58
1, 52944, Control_c, 0, 64, 63
1, 52959, Control_c, 0, 64, 65
1, 52973, Control_c, 0, 64, 66
1, 52988, Control_c, 0, 64, 67
1, 53003, Control_c, 0, 64, 68
1, 53018, Control_c, 0, 64, 69
1, 53032, Control_c, 0, 64, 69
1, 53047, Control_c, 0, 64, 71
1, 53062, Control_c, 0, 64, 72
1, 53077, Control_c, 0, 64, 73
1, 53092, Control_c, 0, 64, 75
1, 53106, Control_c, 0, 64, 76
1, 53121, Control_c, 0, 64, 77
1, 53149, Note_on_c, 0, 55, 87
1, 53150, Note_on_c, 0, 50, 85
1, 53150, Note_on_c, 0, 52, 87
1, 53151, Note_on_c, 0, 35, 97
1, 53151, Control_c, 0, 64, 76
1, 53166, Control_c, 0, 64, 66
1, 53174, Note_off_c, 0, 50, 71
1, 53182, Control_c, 0, 64, 36
1, 53187, Note_off_c, 0, 52, 60
1, 53194, Note_off_c, 0, 35, 60
1, 53196, Control_c, 0, 64, 0
1, 53198, Note_off_c, 0, 55, 61
1, 53283, Note_on_c, 0, 48, 81
1, 53311, Note_off_c, 0, 48, 63
1, 53312, Note_on_c, 0, 46, 43
1, 53348, Note_off_c, 0, 46, 51
1, 53433, Note_on_c, 0, 46, 68
1, 53433, Note_on_c, 0, 55, 69
1, 53434, Note_on_c, 0, 50, 66
1, 53460, Note_off_c, 0, 50, 64
1, 53462, Note_off_c, 0, 46, 64
1, 53470, Note_off_c, 0, 55, 61
1, 53555, Note_on_c, 0, 48, 92
1, 53557, Note_on_c, 0, 52, 75
1, 53560, Note_on_c, 0, 55, 81
1, 53573, Note_on_c, 0, 53, 61
1, 53579, Note_off_c, 0, 48, 68
1, 53591, Note_off_c, 0, 52, 63
1, 53597, Note_off_c, 0, 53, 38
1, 53600, Note_off_c, 0, 55, 61
1, 53680, Note_on_c, 0, 46, 73
1, 53692, Note_on_c, 0, 50, 69
1, 53696, Note_on_c, 0, 55, 64
1, 53716, Note_off_c, 0, 46, 61
1, 53719, Note_off_c, 0, 50, 66
1, 53728, Note_off_c, 0, 55, 65
1, 53812, Note_on_c, 0, 48, 76
1, 53812, Note_on_c, 0, 52, 57
1, 53814, Note_on_c, 0, 55, 68
1, 53837, Note_off_c, 0, 52, 59
1, 53842, Note_off_c, 0, 48, 66
1, 53842, Note_off_c, 0, 55, 64
1, 53932, Note_on_c, 0, 60, 76
1, 53940, Note_on_c, 0, 50, 71
1, 53943, Note_on_c, 0, 54, 68
1, 53948, Note_on_c, 0, 55, 48
1, 53969, Note_off_c, 0, 50, 65
1, 53972, Note_off_c, 0, 54, 64
1, 53972, Note_off_c, 0, 60, 62
1, 53978, Note_off_c, 0, 55, 60
1, 54063, Note_on_c, 0, 52, 74
1, 54068, Note_on_c, 0, 48, 67
1, 54101, Note_off_c, 0, 52, 64
1, 54108, Note_off_c, 0, 48, 62
1, 54175, Control_c, 0, 64, 35
1, 54188, Note_on_c, 0, 50, 76
1, 54189, Note_on_c, 0, 54, 72
1, 54190, Control_c, 0, 64, 44
1, 54190, Note_on_c, 0, 55, 79
1, 54205, Control_c, 0, 64, 49
1, 54214, Note_off_c, 0, 54, 66
1, 54214, Note_off_c, 0, 50, 67
1, 54219, Control_c, 0, 64, 52
1, 54223, Note_off_c, 0, 55, 66
1, 54234, Control_c, 0, 64, 51
1, 54249, Control_c, 0, 64, 47
1, 54264, Control_c, 0, 64, 33
1, 54278, Control_c, 0, 64, 0
1, 54300, Note_on_c, 0, 52, 87
1, 54300, Note_on_c, 0, 55, 81
1, 54302, Note_on_c, 0, 59, 89
1, 54324, Note_off_c, 0, 55, 71
1, 54348, Note_off_c, 0, 59, 64
1, 54354, Note_off_c, 0, 52, 63
1, 54418, Note_on_c, 0, 55, 84
1, 54424, Note_on_c, 0, 59, 89
1, 54429, Note_on_c, 0, 60, 87
1, 54449, Note_off_c, 0, 59, 65
1, 54462, Note_off_c, 0, 55, 63
1, 54467, Note_off_c, 0, 60, 64
1, 54530, Control_c, 0, 64, 36
1, 54541, Note_on_c, 0, 59, 88
1, 54542, Note_on_c, 0, 64, 95
1, 54544, Control_c, 0, 64, 48
1, 54547, Note_on_c, 0, 60, 84
1, 54559, Control_c, 0, 64, 58
1, 54567, Note_off_c, 0, 60, 73
1, 54574, Control_c, 0, 64, 63
1, 54577, Note_off_c, 0, 64, 67
1, 54587, Note_off_c, 0, 59, 66
1, 54589, Control_c, 0, 64, 66
1, 54604, Control_c, 0, 64, 67
1, 54618, Control_c, 0, 64, 69
1, 54633, Control_c, 0, 64, 71
1, 54663, Control_c, 0, 64, 69
1, 54664, Note_on_c, 0, 72, 94
1, 54666, Note_on_c, 0, 62, 102
1, 54673, Note_on_c, 0, 67, 85
1, 54675, Note_on_c, 0, 66, 87
1, 54677, Control_c, 0, 64, 46
1, 54692, Control_c, 0, 64, 0
1, 54701, Note_off_c, 0, 66, 67
1, 54704, Note_off_c, 0, 62, 67
1, 54705, Note_off_c, 0, 72, 65
1, 54710, Note_off_c, 0, 67, 65
1, 54797, Note_on_c, 0, 60, 82
1, 54798, Note_on_c, 0, 64, 85
1, 54838, Note_off_c, 0, 64, 64
1, 54841, Note_off_c, 0, 60, 61
1, 54932, Note_on_c, 0, 67, 88
1, 54936, Note_on_c, 0, 62, 95
1, 54938, Note_on_c, 0, 66, 84
1, 54959, Note_off_c, 0, 66, 69
1, 54976, Note_off_c, 0, 62, 63
1, 54977, Note_off_c, 0, 67, 65
1, 55042, Control_c, 0, 64, 58
1, 55051, Note_on_c, 0, 71, 105
1, 55052, Note_on_c, 0, 64, 103
1, 55053, Note_on_c, 0, 67, 96
1, 55056, Control_c, 0, 64, 65
1, 55071, Control_c, 0, 64, 64
1, 55072, Note_off_c, 0, 67, 67
1, 55087, Control_c, 0, 64, 47
1, 55096, Note_off_c, 0, 71, 64
1, 55101, Control_c, 0, 64, 0
1, 55102, Note_off_c, 0, 64, 68
1, 55180, Note_on_c, 0, 71, 90
1, 55181, Note_on_c, 0, 67, 90
1, 55183, Note_on_c, 0, 72, 85
1, 55199, Note_off_c, 0, 71, 70
1, 55215, Note_off_c, 0, 72, 67
1, 55225, Note_off_c, 0, 67, 65
1, 55296, Note_on_c, 0, 71, 88
1, 55305, Note_on_c, 0, 76, 97
1, 55308, Note_on_c, 0, 72, 88
1, 55314, Note_off_c, 0, 71, 72
1, 55326, Note_off_c, 0, 72, 71
1, 55348, Note_off_c, 0, 76, 66
1, 55436, Note_on_c, 0, 35, 102
1, 55482, Note_off_c, 0, 35, 65
1, 55501, Control_c, 0, 64, 55
1, 55516, Control_c, 0, 64, 62
1, 55561, Control_c, 0, 64, 59
1, 55576, Control_c, 0, 64, 52
1, 55591, Control_c, 0, 64, 0
1, 55721, Note_on_c, 0, 81, 103
1, 55722, Note_on_c, 0, 69, 99
1, 55725, Note_on_c, 0, 76, 94
1, 55726, Note_on_c, 0, 72, 94
1, 55727, Note_on_c, 0, 66, 95
1, 55728, Note_on_c, 0, 54, 85
1, 55731, Note_on_c, 0, 60, 80
1, 55746, Control_c, 0, 64, 40
1, 55757, Note_off_c, 0, 66, 68
1, 55758, Note_off_c, 0, 60, 69
1, 55760, Note_off_c, 0, 69, 66
1, 55761, Control_c, 0, 64, 68
1, 55769, Note_off_c, 0, 72, 67
1, 55775, Note_off_c, 0, 54, 60
1, 55776, Control_c, 0, 64, 78
1, 55779, Note_off_c, 0, 76, 68
1, 55781, Note_off_c, 0, 81, 67
1, 55791, Control_c, 0, 64, 89
1, 55806, Control_c, 0, 64, 96
1, 55821, Control_c, 0, 64, 107
1, 55836, Control_c, 0, 64, 127
1, 55880, Control_c, 0, 64, 99
1, 55895, Control_c, 0, 64, 71
1, 55910, Control_c, 0, 64, 0
1, 56090, Note_on_c, 0, 83, 99
1, 56091, Note_on_c, 0, 47, 92
1, 56092, Note_on_c, 0, 71, 103
1, 56092, Note_on_c, 0, 75, 102
1, 56092, Note_on_c, 0, 78, 97
1, 56095, Note_on_c, 0, 59, 95
1, 56098, Note_on_c, 0, 54, 91
1, 56116, Control_c, 0, 64, 45
1, 56122, Note_off_c, 0, 59, 70
1, 56131, Note_off_c, 0, 71, 64
1, 56131, Control_c, 0, 64, 76
1, 56133, Note_off_c, 0, 47, 66
1, 56133, Note_off_c, 0, 54, 67
1, 56145, Note_off_c, 0, 83, 65
1, 56146, Control_c, 0, 64, 89
1, 56151, Note_off_c, 0, 75, 68
1, 56157, Note_off_c, 0, 78, 67
1, 56161, Control_c, 0, 64, 105
1, 56176, Control_c, 0, 64, 108
1, 56190, Control_c, 0, 64, 127
1, 56445, Poly_aftertouch_c, 0, 73, 0
1, 56510, Control_c, 0, 64, 83
1, 56525, Control_c, 0, 64, 42
1, 56540, Control_c, 0, 64, 0
1, 56801, Note_on_c, 0, 43, 68
1, 56951, Note_on_c, 0, 74, 79
1, 56966, Note_on_c, 0, 72, 67
1, 57028, Control_c, 0, 67, 54
1, 57043, Control_c, 0, 67, 78
1, 57058, Note_off_c, 0, 72, 32
1, 57058, Control_c, 0, 67, 94
1, 57073, Control_c, 0, 67, 103
1, 57087, Control_c, 0, 67, 111
1, 57088, Note_on_c, 0, 71, 61
1, 57102, Control_c, 0, 67, 124
1, 57117, Control_c, 0, 67, 127
1, 57219, Note_off_c, 0, 71, 50
1, 57239, Note_on_c, 0, 69, 52
1, 57252, Note_on_c, 0, 50, 48
1, 57289, Control_c, 0, 64, 45
1, 57303, Control_c, 0, 64, 56
1, 57318, Control_c, 0, 64, 57
1, 57333, Control_c, 0, 64, 58
1, 57348, Control_c, 0, 64, 60
1, 57353, Note_off_c, 0, 69, 62
1, 57363, Control_c, 0, 64, 61
1, 57385, Note_on_c, 0, 67, 46
1, 57410, Note_off_c, 0, 74, 62
1, 57443, Note_off_c, 0, 43, 40
1, 57468, Note_off_c, 0, 50, 53
1, 57496, Control_c, 0, 64, 60
1, 57511, Control_c, 0, 64, 60
1, 57519, Note_on_c, 0, 66, 57
1, 57523, Note_off_c, 0, 67, 58
1, 57526, Control_c, 0, 64, 59
1, 57526, Note_on_c, 0, 59, 49
1, 57541, Control_c, 0, 64, 57
1, 57555, Control_c, 0, 64, 55
1, 57570, Control_c, 0, 64, 53
1, 57585, Control_c, 0, 64, 51
1, 57591, Note_off_c, 0, 59, 59
1, 57600, Control_c, 0, 64, 44
1, 57606, Note_off_c, 0, 66, 50
1, 57614, Control_c, 0, 64, 0
1, 57669, Note_on_c, 0, 64, 55
1, 57673, Note_on_c, 0, 60, 42
1, 57690, Note_off_c, 0, 64, 62
1, 57702, Note_off_c, 0, 60, 52
1, 57943, Note_on_c, 0, 57, 54
1, 57943, Note_on_c, 0, 60, 42
1, 57947, Note_on_c, 0, 64, 42
1, 57949, Note_on_c, 0, 67, 45
1, 57970, Note_off_c, 0, 57, 63
1, 57971, Note_off_c, 0, 60, 51
1, 57976, Note_off_c, 0, 67, 58
1, 57977, Note_off_c, 0, 64, 56
1, 58234, Note_on_c, 0, 66, 54
1, 58235, Note_on_c, 0, 62, 60
1, 58238, Note_on_c, 0, 60, 45
1, 58255, Note_off_c, 0, 62, 62
1, 58256, Note_off_c, 0, 66, 61
1, 58264, Note_off_c, 0, 60, 53
1, 58452, Control_c, 0, 67, 124
1, 58467, Control_c, 0, 67, 91
1, 58482, Control_c, 0, 67, 56
1, 58497, Control_c, 0, 67, 0
1, 58522, Note_on_c, 0, 43, 63
1, 58654, Note_on_c, 0, 74, 84
1, 58666, Note_on_c, 0, 72, 70
1, 58748, Note_off_c, 0, 72, 53
1, 58787, Note_on_c, 0, 71, 68
1, 58919, Control_c, 0, 64, 38
1, 58933, Control_c, 0, 64, 52
1, 58938, Note_on_c, 0, 69, 55
1, 58943, Note_on_c, 0, 50, 49
1, 58948, Note_off_c, 0, 71, 36
1, 58948, Control_c, 0, 64, 57
1, 58963, Control_c, 0, 64, 59
1, 58978, Control_c, 0, 64, 61
1, 58993, Control_c, 0, 64, 61
1, 59007, Control_c, 0, 64, 62
1, 59067, Note_off_c, 0, 69, 62
1, 59080, Note_off_c, 0, 74, 60
1, 59086, Note_on_c, 0, 67, 65
1, 59119, Note_off_c, 0, 43, 48
1, 59166, Note_off_c, 0, 50, 61
1, 59201, Control_c, 0, 64, 61
1, 59210, Note_off_c, 0, 67, 59
1, 59211, Note_on_c, 0, 66, 70
1, 59215, Note_on_c, 0, 59, 59
1, 59215, Control_c, 0, 64, 61
1, 59230, Control_c, 0, 64, 60
1, 59245, Control_c, 0, 64, 59
1, 59259, Control_c, 0, 64, 59
1, 59267, Note_off_c, 0, 59, 62
1, 59274, Control_c, 0, 64, 58
1, 59289, Control_c, 0, 64, 56
1, 59295, Note_off_c, 0, 66, 56
1, 59304, Control_c, 0, 64, 46
1, 59319, Control_c, 0, 64, 0
1, 59353, Note_on_c, 0, 64, 68
1, 59358, Note_on_c, 0, 60, 52
1, 59389, Note_off_c, 0, 60, 58
1, 59389, Note_off_c, 0, 64, 67
1, 59614, Note_on_c, 0, 60, 62
1, 59619, Note_on_c, 0, 67, 59
1, 59624, Note_on_c, 0, 64, 49
1, 59628, Note_on_c, 0, 57, 49
1, 59635, Note_off_c, 0, 60, 65
1, 59644, Note_off_c, 0, 67, 64
1, 59648, Note_off_c, 0, 64, 58
1, 59653, Note_off_c, 0, 57, 53
1, 59897, Note_on_c, 0, 66, 75
1, 59907, Note_on_c, 0, 60, 51
1, 59908, Note_on_c, 0, 62, 59
1, 59922, Note_off_c, 0, 66, 70
1, 59930, Note_off_c, 0, 62, 59
1, 59931, Note_off_c, 0, 60, 58
1, 60223, Note_on_c, 0, 43, 68
1, 60223, Note_on_c, 0, 79, 76
1, 60225, Note_on_c, 0, 67, 73
1, 60226, Note_on_c, 0, 74, 75
1, 60245, Note_off_c, 0, 79, 65
1, 60248, Note_off_c, 0, 67, 70
1, 60250, Note_off_c, 0, 74, 70
1, 60258, Note_on_c, 0, 69, 32
1, 60295, Note_off_c, 0, 69, 31
1, 60347, Note_on_c, 0, 79, 67
1, 60350, Note_off_c, 0, 43, 58
1, 60355, Note_on_c, 0, 67, 54
1, 60356, Note_on_c, 0, 74, 63
1, 60375, Note_on_c, 0, 50, 52
1, 60375, Note_off_c, 0, 79, 62
1, 60380, Note_off_c, 0, 67, 62
1, 60383, Note_off_c, 0, 74, 65
1, 60431, Note_off_c, 0, 50, 57
1, 60432, Control_c, 0, 64, 29
1, 60480, Note_on_c, 0, 74, 62
1, 60482, Note_on_c, 0, 67, 56
1, 60483, Note_on_c, 0, 79, 59
1, 60500, Note_on_c, 0, 59, 61
1, 60505, Note_off_c, 0, 67, 61
1, 60509, Note_off_c, 0, 74, 68
1, 60509, Note_off_c, 0, 79, 66
1, 60565, Control_c, 0, 64, 0
1, 60569, Note_off_c, 0, 59, 61
1, 60605, Note_on_c, 0, 81, 84
1, 60609, Note_on_c, 0, 69, 75
1, 60616, Note_on_c, 0, 74, 55
1, 60619, Note_on_c, 0, 60, 60
1, 60629, Note_off_c, 0, 81, 61
1, 60632, Note_off_c, 0, 69, 69
1, 60638, Note_off_c, 0, 74, 60
1, 60693, Note_off_c, 0, 60, 57
1, 60731, Note_on_c, 0, 62, 60
1, 60734, Note_on_c, 0, 83, 80
1, 60756, Note_on_c, 0, 71, 37
1, 60757, Note_off_c, 0, 83, 65
1, 60790, Note_off_c, 0, 71, 33
1, 60796, Note_off_c, 0, 62, 61
1, 60852, Note_on_c, 0, 66, 67
1, 60854, Note_on_c, 0, 84, 91
1, 60857, Note_on_c, 0, 72, 76
1, 60882, Note_off_c, 0, 66, 65
1, 60885, Note_off_c, 0, 72, 70
1, 60889, Note_off_c, 0, 84, 62
1, 60989, Note_on_c, 0, 86, 84
1, 60992, Note_on_c, 0, 74, 80
1, 61000, Note_on_c, 0, 43, 66
1, 61001, Note_on_c, 0, 79, 54
1, 61006, Note_off_c, 0, 74, 72
1, 61007, Note_off_c, 0, 86, 74
1, 61023, Note_off_c, 0, 79, 62
1, 61100, Note_off_c, 0, 43, 59
1, 61130, Note_on_c, 0, 50, 57
1, 61156, Note_off_c, 0, 50, 62
1, 61249, Note_on_c, 0, 74, 81
1, 61250, Note_on_c, 0, 62, 62
1, 61264, Note_on_c, 0, 67, 43
1, 61267, Note_off_c, 0, 74, 73
1, 61269, Note_on_c, 0, 60, 59
1, 61270, Note_off_c, 0, 62, 62
1, 61297, Note_off_c, 0, 67, 36
1, 61300, Note_off_c, 0, 60, 66
1, 61389, Note_on_c, 0, 57, 56
1, 61460, Note_off_c, 0, 57, 61
1, 61487, Note_on_c, 0, 86, 91
1, 61490, Note_on_c, 0, 74, 80
1, 61505, Note_on_c, 0, 79, 44
1, 61511, Note_off_c, 0, 74, 65
1, 61513, Note_off_c, 0, 86, 59
1, 61514, Note_on_c, 0, 59, 68
1, 61532, Note_off_c, 0, 79, 59
1, 61627, Note_on_c, 0, 67, 62
1, 61670, Note_on_c, 0, 79, 69
1, 61672, Note_off_c, 0, 67, 58
1, 61678, Note_on_c, 0, 86, 69
1, 61679, Note_on_c, 0, 74, 62
1, 61692, Note_off_c, 0, 79, 71
1, 61696, Note_off_c, 0, 86, 67
1, 61699, Note_off_c, 0, 74, 62
1, 61722, Note_on_c, 0, 88, 84
1, 61732, Note_off_c, 0, 59, 61
1, 61735, Control_c, 0, 64, 32
1, 61738, Note_on_c, 0, 55, 78
1, 61746, Note_on_c, 0, 86, 90
1, 61750, Control_c, 0, 64, 57
1, 61752, Note_on_c, 0, 74, 61
1, 61765, Control_c, 0, 64, 64
1, 61772, Note_off_c, 0, 74, 61
1, 61776, Note_off_c, 0, 88, 64
1, 61779, Control_c, 0, 64, 66
1, 61791, Note_off_c, 0, 86, 66
1, 61794, Control_c, 0, 64, 68
1, 61809, Control_c, 0, 64, 70
1, 61824, Control_c, 0, 64, 73
1, 61831, Note_off_c, 0, 55, 59
1, 61839, Control_c, 0, 64, 74
1, 61878, Note_on_c, 0, 84, 94
1, 61881, Note_on_c, 0, 57, 62
1, 61890, Note_on_c, 0, 72, 74
1, 61911, Note_off_c, 0, 72, 69
1, 61928, Control_c, 0, 64, 74
1, 61929, Note_off_c, 0, 84, 65
1, 61946, Note_off_c, 0, 57, 64
1, 61958, Control_c, 0, 64, 75
1, 61973, Control_c, 0, 64, 76
1, 61988, Control_c, 0, 64, 78
1, 62002, Note_on_c, 0, 86, 97
1, 62003, Control_c, 0, 64, 82
1, 62005, Note_on_c, 0, 74, 89
1, 62007, Note_on_c, 0, 64, 66
1, 62018, Control_c, 0, 64, 85
1, 62033, Control_c, 0, 64, 86
1, 62035, Note_off_c, 0, 64, 68
1, 62035, Note_off_c, 0, 74, 61
1, 62048, Control_c, 0, 64, 85
1, 62052, Note_off_c, 0, 86, 66
1, 62063, Control_c, 0, 64, 80
1, 62078, Control_c, 0, 64, 67
1, 62092, Control_c, 0, 64, 50
1, 62107, Control_c, 0, 64, 40
1, 62122, Control_c, 0, 64, 45
1, 62137, Note_on_c, 0, 88, 90
1, 62137, Control_c, 0, 64, 59
1, 62139, Note_on_c, 0, 67, 68
1, 62149, Note_on_c, 0, 79, 64
1, 62150, Note_on_c, 0, 76, 71
1, 62152, Control_c, 0, 64, 67
1, 62166, Control_c, 0, 64, 72
1, 62176, Note_off_c, 0, 79, 65
1, 62177, Note_off_c, 0, 76, 65
1, 62181, Control_c, 0, 64, 74
1, 62191, Note_off_c, 0, 88, 65
1, 62196, Control_c, 0, 64, 75
1, 62210, Control_c, 0, 64, 75
1, 62219, Note_off_c, 0, 67, 38
1, 62240, Control_c, 0, 64, 76
1, 62254, Note_on_c, 0, 69, 72
1, 62268, Note_on_c, 0, 86, 87
1, 62275, Note_on_c, 0, 74, 75
1, 62286, Note_off_c, 0, 69, 62
1, 62297, Note_off_c, 0, 74, 63
1, 62321, Note_off_c, 0, 86, 64
1, 62373, Control_c, 0, 64, 76
1, 62396, Control_c, 0, 64, 77
1, 62398, Note_on_c, 0, 84, 90
1, 62402, Note_on_c, 0, 72, 80
1, 62402, Note_on_c, 0, 76, 53
1, 62410, Control_c, 0, 64, 78
1, 62422, Note_off_c, 0, 72, 67
1, 62424, Note_off_c, 0, 76, 60
1, 62452, Note_off_c, 0, 84, 65
1, 62455, Control_c, 0, 64, 77
1, 62470, Control_c, 0, 64, 73
1, 62484, Control_c, 0, 64, 69
1, 62499, Control_c, 0, 64, 65
1, 62514, Control_c, 0, 64, 64
1, 62528, Note_on_c, 0, 43, 73
1, 62528, Note_on_c, 0, 86, 86
1, 62531, Note_on_c, 0, 74, 80
1, 62544, Control_c, 0, 64, 60
1, 62546, Note_off_c, 0, 86, 74
1, 62546, Note_on_c, 0, 79, 49
1, 62552, Note_off_c, 0, 74, 66
1, 62558, Control_c, 0, 64, 47
1, 62568, Note_off_c, 0, 79, 62
1, 62573, Control_c, 0, 64, 0
1, 62606, Note_off_c, 0, 43, 48
1, 62659, Note_on_c, 0, 50, 73
1, 62690, Note_off_c, 0, 50, 66
1, 62752, Control_c, 0, 64, 43
1, 62767, Control_c, 0, 64, 50
1, 62781, Control_c, 0, 64, 47
1, 62783, Note_on_c, 0, 74, 87
1, 62784, Note_on_c, 0, 62, 68
1, 62792, Note_on_c, 0, 60, 74
1, 62796, Control_c, 0, 64, 41
1, 62801, Note_on_c, 0, 67, 40
1, 62802, Note_off_c, 0, 62, 65
1, 62811, Control_c, 0, 64, 0
1, 62812, Note_off_c, 0, 74, 66
1, 62823, Note_off_c, 0, 60, 67
1, 62832, Note_off_c, 0, 67, 34
1, 62903, Note_on_c, 0, 57, 70
1, 62972, Note_off_c, 0, 57, 62
1, 63004, Control_c, 0, 64, 34
1, 63019, Control_c, 0, 64, 50
1, 63020, Note_on_c, 0, 86, 98
1, 63024, Note_on_c, 0, 74, 81
1, 63031, Note_on_c, 0, 79, 57
1, 63033, Control_c, 0, 64, 52
1, 63039, Note_on_c, 0, 59, 70
1, 63041, Note_off_c, 0, 74, 65
1, 63048, Control_c, 0, 64, 52
1, 63049, Note_off_c, 0, 79, 64
1, 63064, Note_off_c, 0, 86, 63
1, 63078, Control_c, 0, 64, 54
1, 63093, Control_c, 0, 64, 57
1, 63107, Control_c, 0, 64, 60
1, 63114, Note_on_c, 0, 67, 79
1, 63122, Control_c, 0, 64, 60
1, 63145, Note_off_c, 0, 67, 66
1, 63160, Control_c, 0, 64, 56
1, 63174, Control_c, 0, 64, 51
1, 63181, Note_off_c, 0, 59, 66
1, 63189, Control_c, 0, 64, 48
1, 63194, Note_on_c, 0, 79, 63
1, 63196, Note_on_c, 0, 86, 80
1, 63200, Note_on_c, 0, 74, 57
1, 63204, Control_c, 0, 64, 49
1, 63216, Note_off_c, 0, 79, 66
1, 63219, Control_c, 0, 64, 52
1, 63219, Note_off_c, 0, 86, 64
1, 63225, Note_off_c, 0, 74, 65
1, 63233, Control_c, 0, 64, 58
1, 63244, Note_on_c, 0, 88, 88
1, 63248, Control_c, 0, 64, 61
1, 63251, Note_on_c, 0, 43, 91
1, 63252, Note_on_c, 0, 86, 77
1, 63263, Control_c, 0, 64, 63
1, 63278, Control_c, 0, 64, 63
1, 63285, Note_off_c, 0, 88, 64
1, 63290, Note_on_c, 0, 74, 14
1, 63293, Control_c, 0, 64, 64
1, 63300, Note_off_c, 0, 86, 62
1, 63307, Control_c, 0, 64, 64
1, 63337, Control_c, 0, 64, 65
1, 63339, Note_off_c, 0, 74, 27
1, 63366, Control_c, 0, 64, 65
1, 63396, Note_on_c, 0, 52, 75
1, 63396, Note_off_c, 0, 43, 60
1, 63406, Note_on_c, 0, 73, 67
1, 63406, Note_on_c, 0, 84, 66
1, 63417, Note_on_c, 0, 75, 42
1, 63425, Note_off_c, 0, 73, 66
1, 63426, Control_c, 0, 64, 63
1, 63431, Note_off_c, 0, 84, 70
1, 63440, Control_c, 0, 64, 51
1, 63443, Note_off_c, 0, 75, 40
1, 63455, Control_c, 0, 64, 0
1, 63479, Note_off_c, 0, 52, 62
1, 63515, Note_on_c, 0, 55, 75
1, 63515, Note_on_c, 0, 83, 84
1, 63528, Note_on_c, 0, 71, 70
1, 63542, Note_off_c, 0, 83, 63
1, 63553, Note_off_c, 0, 71, 68
1, 63563, Note_off_c, 0, 55, 63
1, 63636, Note_on_c, 0, 57, 72
1, 63640, Note_on_c, 0, 81, 89
1, 63645, Note_on_c, 0, 69, 76
1, 63649, Note_on_c, 0, 73, 66
1, 63666, Note_off_c, 0, 69, 71
1, 63666, Note_off_c, 0, 81, 56
1, 63672, Note_off_c, 0, 73, 69
1, 63770, Note_on_c, 0, 79, 75
1, 63772, Note_on_c, 0, 60, 65
1, 63773, Note_on_c, 0, 67, 73
1, 63783, Note_on_c, 0, 71, 61
1, 63788, Note_off_c, 0, 79, 72
1, 63796, Note_off_c, 0, 67, 70
1, 63803, Note_off_c, 0, 71, 60
1, 63850, Note_off_c, 0, 57, 62
1, 63882, Note_off_c, 0, 60, 64
1, 63899, Note_on_c, 0, 67, 78
1, 63903, Note_on_c, 0, 65, 81
1, 63911, Note_on_c, 0, 77, 66
1, 63915, Note_on_c, 0, 79, 59
1, 63920, Note_off_c, 0, 67, 71
1, 63922, Note_off_c, 0, 65, 72
1, 63930, Note_off_c, 0, 77, 63
1, 63932, Note_off_c, 0, 79, 66
1, 64025, Note_on_c, 0, 79, 72
1, 64029, Note_on_c, 0, 43, 78
1, 64033, Note_on_c, 0, 74, 74
1, 64039, Note_on_c, 0, 67, 65
1, 64049, Note_off_c, 0, 74, 67
1, 64057, Note_off_c, 0, 67, 66
1, 64059, Note_off_c, 0, 79, 61
1, 64101, Note_off_c, 0, 43, 59
1, 64155, Note_on_c, 0, 50, 77
1, 64184, Note_off_c, 0, 50, 66
1, 64219, Control_c, 0, 64, 35
1, 64234, Control_c, 0, 64, 38
1, 64249, Control_c, 0, 64, 39
1, 64278, Control_c, 0, 64, 38
1, 64279, Note_on_c, 0, 67, 83
1, 64286, Note_on_c, 0, 60, 76
1, 64286, Note_on_c, 0, 62, 70
1, 64293, Control_c, 0, 64, 36
1, 64295, Note_on_c, 0, 55, 49
1, 64307, Note_off_c, 0, 62, 65
1, 64308, Control_c, 0, 64, 35
1, 64315, Note_off_c, 0, 67, 66
1, 64323, Control_c, 0, 64, 35
1, 64326, Note_off_c, 0, 60, 64
1, 64331, Note_off_c, 0, 55, 54
1, 64337, Control_c, 0, 64, 34
1, 64353, Control_c, 0, 64, 34
1, 64368, Control_c, 0, 64, 33
1, 64398, Control_c, 0, 64, 29
1, 64412, Control_c, 0, 64, 0
1, 64415, Note_on_c, 0, 57, 63
1, 64420, Note_on_c, 0, 55, 57
1, 64456, Note_off_c, 0, 55, 60
1, 64461, Note_off_c, 0, 57, 58
1, 64534, Note_on_c, 0, 79, 90
1, 64536, Note_on_c, 0, 67, 87
1, 64538, Note_on_c, 0, 74, 81
1, 64546, Note_on_c, 0, 59, 68
1, 64546, Control_c, 0, 64, 44
1, 64555, Note_off_c, 0, 67, 68
1, 64557, Note_off_c, 0, 74, 73
1, 64561, Control_c, 0, 64, 57
1, 64576, Control_c, 0, 64, 59
1, 64590, Note_off_c, 0, 79, 66
1, 64590, Control_c, 0, 64, 60
1, 64605, Control_c, 0, 64, 61
1, 64627, Control_c, 0, 64, 62
1, 64638, Note_on_c, 0, 67, 82
1, 64642, Control_c, 0, 64, 64
1, 64657, Control_c, 0, 64, 65
1, 64659, Note_off_c, 0, 67, 65
1, 64672, Control_c, 0, 64, 66
1, 64686, Control_c, 0, 64, 67
1, 64698, Note_on_c, 0, 79, 73
1, 64699, Note_off_c, 0, 59, 66
1, 64701, Control_c, 0, 64, 68
1, 64705, Note_on_c, 0, 86, 75
1, 64710, Note_on_c, 0, 74, 54
1, 64716, Control_c, 0, 64, 69
1, 64718, Note_off_c, 0, 79, 69
1, 64728, Note_off_c, 0, 86, 67
1, 64732, Note_off_c, 0, 74, 59
1, 64744, Note_on_c, 0, 88, 85
1, 64755, Note_on_c, 0, 86, 79
1, 64764, Note_on_c, 0, 74, 83
1, 64768, Note_on_c, 0, 43, 87
1, 64775, Control_c, 0, 64, 67
1, 64787, Note_off_c, 0, 74, 65
1, 64790, Control_c, 0, 64, 55
1, 64800, Note_off_c, 0, 88, 65
1, 64805, Control_c, 0, 64, 0
1, 64807, Note_off_c, 0, 86, 66
1, 64910, Note_on_c, 0, 84, 85
1, 64918, Note_off_c, 0, 43, 58
1, 64920, Note_on_c, 0, 72, 65
1, 64922, Note_on_c, 0, 76, 67
1, 64926, Note_on_c, 0, 52, 70
1, 64933, Note_off_c, 0, 84, 62
1, 64937, Note_off_c, 0, 72, 64
1, 64939, Note_off_c, 0, 76, 66
1, 65012, Note_off_c, 0, 52, 60
1, 65030, Note_on_c, 0, 83, 88
1, 65037, Note_on_c, 0, 74, 73
1, 65038, Note_on_c, 0, 71, 72
1, 65042, Note_on_c, 0, 55, 67
1, 65052, Note_off_c, 0, 83, 63
1, 65061, Note_off_c, 0, 74, 69
1, 65064, Note_off_c, 0, 71, 68
1, 65088, Note_off_c, 0, 55, 64
1, 65155, Note_on_c, 0, 57, 70
1, 65156, Note_on_c, 0, 81, 83
1, 65160, Note_on_c, 0, 69, 76
1, 65160, Note_on_c, 0, 72, 71
1, 65181, Note_off_c, 0, 69, 67
1, 65182, Note_off_c, 0, 72, 70
1, 65190, Note_off_c, 0, 81, 54
1, 65285, Note_on_c, 0, 79, 76
1, 65287, Note_on_c, 0, 67, 72
1, 65288, Note_on_c, 0, 60, 65
1, 65290, Note_on_c, 0, 71, 69
1, 65303, Note_off_c, 0, 79, 72
1, 65308, Note_off_c, 0, 71, 65
1, 65311, Note_off_c, 0, 67, 69
1, 65369, Note_off_c, 0, 57, 62
1, 65389, Note_off_c, 0, 60, 64
1, 65414, Note_on_c, 0, 67, 71
1, 65419, Note_on_c, 0, 65, 77
1, 65422, Note_on_c, 0, 77, 83
1, 65436, Note_off_c, 0, 67, 71
1, 65440, Note_off_c, 0, 65, 71
1, 65447, Note_off_c, 0, 77, 58
1, 65553, Note_on_c, 0, 43, 66
1, 65555, Note_on_c, 0, 79, 83
1, 65559, Note_on_c, 0, 74, 73
1, 65564, Note_on_c, 0, 67, 75
1, 65583, Control_c, 0, 64, 42
1, 65598, Control_c, 0, 64, 51
1, 65610, Note_off_c, 0, 79, 65
1, 65613, Note_off_c, 0, 74, 63
1, 65613, Control_c, 0, 64, 55
1, 65620, Note_off_c, 0, 67, 61
1, 65628, Control_c, 0, 64, 59
1, 65643, Control_c, 0, 64, 61
1, 65652, Note_off_c, 0, 43, 58
1, 65658, Control_c, 0, 64, 63
1, 65672, Control_c, 0, 64, 65
1, 65673, Note_on_c, 0, 50, 83
1, 65687, Control_c, 0, 64, 67
1, 65697, Note_off_c, 0, 50, 70
1, 65702, Control_c, 0, 64, 70
1, 65717, Control_c, 0, 64, 73
1, 65732, Control_c, 0, 64, 75
1, 65746, Control_c, 0, 64, 76
1, 65761, Control_c, 0, 64, 75
1, 65776, Control_c, 0, 64, 71
1, 65791, Control_c, 0, 64, 58
1, 65806, Control_c, 0, 64, 0
1, 65815, Note_on_c, 0, 53, 89
1, 65824, Note_on_c, 0, 69, 90
1, 65826, Note_on_c, 0, 57, 88
1, 65828, Note_on_c, 0, 62, 79
1, 65860, Note_off_c, 0, 57, 65
1, 65865, Control_c, 0, 64, 46
1, 65872, Note_off_c, 0, 62, 62
1, 65880, Control_c, 0, 64, 61
1, 65895, Control_c, 0, 64, 65
1, 65896, Note_off_c, 0, 69, 64
1, 65909, Control_c, 0, 64, 68
1, 65924, Control_c, 0, 64, 69
1, 65939, Control_c, 0, 64, 71
1, 65955, Control_c, 0, 64, 73
1, 65957, Note_on_c, 0, 59, 85
1, 65970, Control_c, 0, 64, 75
1, 65984, Control_c, 0, 64, 77
1, 65999, Control_c, 0, 64, 78
1, 66026, Note_off_c, 0, 59, 56
1, 66044, Control_c, 0, 64, 70
1, 66058, Control_c, 0, 64, 48
1, 66072, Note_on_c, 0, 52, 86
1, 66073, Control_c, 0, 64, 0
1, 66074, Note_off_c, 0, 53, 64
1, 66082, Note_on_c, 0, 76, 94
1, 66085, Note_on_c, 0, 62, 87
1, 66088, Note_on_c, 0, 68, 85
1, 66131, Note_off_c, 0, 62, 65
1, 66140, Control_c, 0, 64, 48
1, 66155, Note_off_c, 0, 68, 64
1, 66155, Control_c, 0, 64, 64
1, 66170, Control_c, 0, 64, 67
1, 66179, Note_off_c, 0, 76, 66
1, 66184, Control_c, 0, 64, 68
1, 66199, Control_c, 0, 64, 69
1, 66214, Note_off_c, 0, 52, 62
1, 66214, Control_c, 0, 64, 71
1, 66215, Note_on_c, 0, 59, 94
1, 66229, Control_c, 0, 64, 73
1, 66244, Control_c, 0, 64, 76
1, 66253, Note_off_c, 0, 59, 67
1, 66258, Control_c, 0, 64, 78
1, 66273, Control_c, 0, 64, 80
1, 66288, Control_c, 0, 64, 81
1, 66303, Control_c, 0, 64, 82
1, 66318, Control_c, 0, 64, 82
1, 66347, Control_c, 0, 64, 81
1, 66351, Note_on_c, 0, 45, 80
1, 66362, Control_c, 0, 64, 71
1, 66376, Control_c, 0, 64, 50
1, 66391, Control_c, 0, 64, 0
1, 66397, Note_on_c, 0, 81, 101
1, 66406, Note_on_c, 0, 69, 85
1, 66410, Note_on_c, 0, 76, 76
1, 66480, Control_c, 0, 64, 45
1, 66495, Control_c, 0, 64, 64
1, 66507, Note_off_c, 0, 69, 62
1, 66507, Note_off_c, 0, 76, 63
1, 66510, Control_c, 0, 64, 66
1, 66517, Note_off_c, 0, 81, 64
1, 66555, Control_c, 0, 64, 66
1, 66569, Note_off_c, 0, 45, 63
1, 66570, Control_c, 0, 64, 67
1, 66576, Note_on_c, 0, 81, 84
1, 66576, Note_on_c, 0, 69, 83
1, 66580, Note_on_c, 0, 52, 72
1, 66583, Note_on_c, 0, 76, 80
1, 66584, Control_c, 0, 64, 69
1, 66599, Control_c, 0, 64, 71
1, 66614, Control_c, 0, 64, 73
1, 66626, Note_off_c, 0, 69, 61
1, 66628, Note_off_c, 0, 76, 60
1, 66629, Control_c, 0, 64, 76
1, 66632, Note_off_c, 0, 81, 64
1, 66644, Control_c, 0, 64, 79
1, 66647, Note_off_c, 0, 52, 61
1, 66658, Control_c, 0, 64, 84
1, 66673, Control_c, 0, 64, 88
1, 66686, Note_on_c, 0, 61, 73
1, 66688, Control_c, 0, 64, 89
1, 66689, Note_on_c, 0, 81, 91
1, 66695, Note_on_c, 0, 69, 86
1, 66698, Note_on_c, 0, 76, 81
1, 66703, Control_c, 0, 64, 88
1, 66713, Note_off_c, 0, 61, 68
1, 66718, Control_c, 0, 64, 75
1, 66732, Control_c, 0, 64, 61
1, 66748, Note_off_c, 0, 69, 61
1, 66748, Control_c, 0, 64, 49
1, 66763, Control_c, 0, 64, 52
1, 66767, Note_off_c, 0, 81, 64
1, 66775, Note_off_c, 0, 76, 65
1, 66778, Control_c, 0, 64, 58
1, 66793, Control_c, 0, 64, 65
1, 66807, Control_c, 0, 64, 72
1, 66812, Note_on_c, 0, 62, 79
1, 66822, Control_c, 0, 64, 77
1, 66824, Note_on_c, 0, 83, 97
1, 66829, Note_on_c, 0, 71, 89
1, 66837, Control_c, 0, 64, 77
1, 66852, Control_c, 0, 64, 78
1, 66881, Note_off_c, 0, 71, 61
1, 66883, Note_off_c, 0, 83, 65
1, 66937, Note_off_c, 0, 62, 52
1, 66955, Note_on_c, 0, 64, 80
1, 66958, Note_on_c, 0, 73, 91
1, 66959, Note_on_c, 0, 85, 97
1, 66963, Control_c, 0, 64, 78
1, 67007, Control_c, 0, 64, 79
1, 67008, Note_off_c, 0, 73, 61
1, 67016, Note_off_c, 0, 64, 63
1, 67018, Note_off_c, 0, 85, 60
1, 67022, Control_c, 0, 64, 80
1, 67037, Control_c, 0, 64, 82
1, 67052, Control_c, 0, 64, 84
1, 67067, Control_c, 0, 64, 87
1, 67069, Note_on_c, 0, 68, 82
1, 67073, Note_on_c, 0, 74, 100
1, 67073, Note_on_c, 0, 86, 98
1, 67081, Control_c, 0, 64, 90
1, 67088, Note_off_c, 0, 68, 71
1, 67096, Control_c, 0, 64, 91
1, 67111, Control_c, 0, 64, 92
1, 67113, Note_off_c, 0, 74, 64
1, 67114, Note_on_c, 0, 85, 46
1, 67126, Control_c, 0, 64, 91
1, 67128, Note_off_c, 0, 86, 63
1, 67140, Note_off_c, 0, 85, 57
1, 67141, Control_c, 0, 64, 87
1, 67155, Control_c, 0, 64, 73
1, 67170, Control_c, 0, 64, 55
1, 67185, Control_c, 0, 64, 0
1, 67204, Note_on_c, 0, 88, 101
1, 67207, Note_on_c, 0, 45, 72
1, 67207, Note_on_c, 0, 76, 98
1, 67214, Control_c, 0, 64, 37
1, 67229, Control_c, 0, 64, 57
1, 67231, Note_on_c, 0, 81, 45
1, 67239, Note_off_c, 0, 88, 66
1, 67244, Note_off_c, 0, 76, 66
1, 67244, Control_c, 0, 64, 65
1, 67256, Note_off_c, 0, 81, 58
1, 67259, Control_c, 0, 64, 69
1, 67273, Control_c, 0, 64, 71
1, 67288, Control_c, 0, 64, 72
1, 67299, Note_off_c, 0, 45, 59
1, 67303, Control_c, 0, 64, 73
1, 67318, Control_c, 0, 64, 76
1, 67332, Note_on_c, 0, 52, 79
1, 67333, Control_c, 0, 64, 78
1, 67348, Control_c, 0, 64, 79
1, 67363, Note_off_c, 0, 52, 66
1, 67384, Note_on_c, 0, 68, 36
1, 67392, Control_c, 0, 64, 78
1, 67407, Control_c, 0, 64, 76
1, 67418, Note_off_c, 0, 68, 44
1, 67422, Control_c, 0, 64, 75
1, 67437, Control_c, 0, 64, 74
1, 67455, Note_on_c, 0, 64, 90
1, 67459, Note_on_c, 0, 76, 91
1, 67467, Note_on_c, 0, 69, 64
1, 67467, Note_on_c, 0, 62, 81
1, 67473, Note_off_c, 0, 64, 75
1, 67485, Note_off_c, 0, 69, 64
1, 67497, Note_off_c, 0, 76, 67
1, 67509, Note_off_c, 0, 62, 60
1, 67556, Control_c, 0, 64, 73
1, 67571, Control_c, 0, 64, 68
1, 67579, Note_on_c, 0, 59, 85
1, 67586, Control_c, 0, 64, 55
1, 67601, Control_c, 0, 64, 0
1, 67676, Note_off_c, 0, 59, 61
1, 67710, Note_on_c, 0, 76, 97
1, 67711, Note_on_c, 0, 88, 101
1, 67711, Control_c, 0, 64, 55
1, 67718, Note_on_c, 0, 81, 80
1, 67724, Note_on_c, 0, 61, 77
1, 67726, Control_c, 0, 64, 63
1, 67737, Note_off_c, 0, 76, 66
1, 67738, Note_off_c, 0, 81, 73
1, 67741, Control_c, 0, 64, 65
1, 67756, Control_c, 0, 64, 65
1, 67762, Note_off_c, 0, 88, 65
1, 67771, Control_c, 0, 64, 67
1, 67786, Control_c, 0, 64, 69
1, 67801, Control_c, 0, 64, 72
1, 67816, Control_c, 0, 64, 75
1, 67830, Control_c, 0, 64, 76
1, 67837, Note_on_c, 0, 69, 78
1, 67845, Control_c, 0, 64, 77
1, 67860, Control_c, 0, 64, 78
1, 67866, Note_on_c, 0, 81, 84
1, 67869, Note_on_c, 0, 76, 76
1, 67875, Control_c, 0, 64, 77
1, 67883, Note_off_c, 0, 69, 58
1, 67888, Note_off_c, 0, 76, 63
1, 67890, Control_c, 0, 64, 70
1, 67904, Control_c, 0, 64, 49
1, 67905, Note_off_c, 0, 81, 64
1, 67907, Note_on_c, 0, 88, 89
1, 67919, Control_c, 0, 64, 0
1, 67938, Note_on_c, 0, 81, 73
1, 67941, Note_on_c, 0, 76, 89
1, 67949, Note_on_c, 0, 57, 83
1, 67961, Note_off_c, 0, 61, 61
1, 67978, Control_c, 0, 64, 37
1, 67993, Control_c, 0, 64, 65
1, 67996, Note_off_c, 0, 88, 64
1, 68006, Note_off_c, 0, 76, 65
1, 68008, Control_c, 0, 64, 72
1, 68012, Note_off_c, 0, 81, 65
1, 68022, Control_c, 0, 64, 76
1, 68037, Control_c, 0, 64, 77
1, 68052, Control_c, 0, 64, 78
1, 68054, Note_off_c, 0, 57, 59
1, 68067, Control_c, 0, 64, 79
1, 68082, Control_c, 0, 64, 79
1, 68087, Note_on_c, 0, 59, 73
1, 68094, Note_on_c, 0, 86, 93
1, 68096, Control_c, 0, 64, 80
1, 68098, Note_on_c, 0, 74, 93
1, 68123, Note_off_c, 0, 74, 66
1, 68126, Control_c, 0, 64, 80
1, 68138, Note_off_c, 0, 86, 66
1, 68156, Control_c, 0, 64, 81
1, 68164, Note_off_c, 0, 59, 63
1, 68170, Control_c, 0, 64, 82
1, 68185, Control_c, 0, 64, 84
1, 68200, Control_c, 0, 64, 89
1, 68207, Note_on_c, 0, 66, 75
1, 68215, Note_on_c, 0, 76, 92
1, 68215, Control_c, 0, 64, 97
1, 68218, Note_on_c, 0, 88, 97
1, 68230, Control_c, 0, 64, 107
1, 68232, Note_off_c, 0, 66, 70
1, 68245, Control_c, 0, 64, 111
1, 68253, Note_off_c, 0, 88, 64
1, 68254, Note_off_c, 0, 76, 67
1, 68275, Control_c, 0, 64, 96
1, 68290, Control_c, 0, 64, 74
1, 68293, Note_on_c, 0, 82, 26
1, 68305, Control_c, 0, 64, 55
1, 68320, Note_off_c, 0, 82, 32
1, 68320, Control_c, 0, 64, 43
1, 68334, Control_c, 0, 64, 52
1, 68343, Note_on_c, 0, 78, 96
1, 68343, Note_on_c, 0, 90, 97
1, 68344, Note_on_c, 0, 69, 84
1, 68350, Control_c, 0, 64, 65
1, 68352, Note_on_c, 0, 81, 65
1, 68372, Control_c, 0, 64, 75
1, 68387, Control_c, 0, 64, 86
1, 68396, Note_off_c, 0, 90, 67
1, 68402, Control_c, 0, 64, 90
1, 68406, Note_off_c, 0, 78, 59
1, 68418, Note_off_c, 0, 81, 62
1, 68433, Note_off_c, 0, 69, 59
1, 68475, Note_on_c, 0, 71, 86
1, 68477, Note_on_c, 0, 88, 90
1, 68483, Note_on_c, 0, 76, 84
1, 68511, Note_off_c, 0, 71, 63
1, 68516, Note_off_c, 0, 76, 63
1, 68545, Note_off_c, 0, 88, 64
1, 68566, Control_c, 0, 64, 90
1, 68580, Control_c, 0, 64, 91
1, 68595, Note_on_c, 0, 74, 93
1, 68595, Note_on_c, 0, 86, 94
1, 68595, Control_c, 0, 64, 91
1, 68603, Note_on_c, 0, 78, 67
1, 68610, Control_c, 0, 64, 92
1, 68619, Note_off_c, 0, 78, 64
1, 68637, Note_off_c, 0, 74, 63
1, 68665, Note_off_c, 0, 86, 64
1, 68669, Control_c, 0, 64, 89
1, 68684, Control_c, 0, 64, 77
1, 68699, Control_c, 0, 64, 61
1, 68714, Control_c, 0, 64, 0
1, 68731, Note_on_c, 0, 88, 91
1, 68734, Note_on_c, 0, 76, 86
1, 68737, Note_on_c, 0, 45, 80
1, 68746, Note_on_c, 0, 81, 65
1, 68762, Note_off_c, 0, 76, 68
1, 68764, Note_off_c, 0, 81, 65
1, 68769, Note_off_c, 0, 88, 65
1, 68788, Control_c, 0, 64, 40
1, 68802, Control_c, 0, 64, 49
1, 68805, Note_off_c, 0, 45, 54
1, 68817, Control_c, 0, 64, 55
1, 68832, Control_c, 0, 64, 59
1, 68847, Control_c, 0, 64, 60
1, 68856, Note_on_c, 0, 52, 81
1, 68862, Control_c, 0, 64, 61
1, 68877, Control_c, 0, 64, 62
1, 68888, Note_off_c, 0, 52, 66
1, 68892, Control_c, 0, 64, 63
1, 68907, Control_c, 0, 64, 64
1, 68921, Control_c, 0, 64, 64
1, 68951, Control_c, 0, 64, 63
1, 68966, Control_c, 0, 64, 41
1, 68980, Note_on_c, 0, 64, 89
1, 68980, Control_c, 0, 64, 0
1, 68981, Note_on_c, 0, 76, 93
1, 68990, Note_on_c, 0, 62, 80
1, 68999, Note_off_c, 0, 64, 73
1, 69021, Note_off_c, 0, 76, 67
1, 69027, Note_off_c, 0, 62, 62
1, 69094, Note_on_c, 0, 59, 91
1, 69131, Note_on_c, 0, 80, 49
1, 69157, Note_off_c, 0, 80, 57
1, 69176, Note_off_c, 0, 59, 60
1, 69229, Note_on_c, 0, 76, 98
1, 69229, Note_on_c, 0, 88, 101
1, 69238, Note_on_c, 0, 61, 82
1, 69238, Note_on_c, 0, 81, 74
1, 69241, Control_c, 0, 64, 38
1, 69256, Control_c, 0, 64, 64
1, 69259, Note_off_c, 0, 81, 71
1, 69270, Control_c, 0, 64, 66
1, 69271, Note_off_c, 0, 76, 66
1, 69285, Control_c, 0, 64, 67
1, 69300, Control_c, 0, 64, 68
1, 69306, Note_off_c, 0, 88, 65
1, 69314, Control_c, 0, 64, 71
1, 69329, Control_c, 0, 64, 76
1, 69344, Control_c, 0, 64, 81
1, 69345, Note_on_c, 0, 69, 86
1, 69358, Control_c, 0, 64, 85
1, 69366, Note_off_c, 0, 69, 66
1, 69373, Control_c, 0, 64, 90
1, 69387, Note_on_c, 0, 79, 84
1, 69388, Control_c, 0, 64, 92
1, 69391, Note_off_c, 0, 61, 65
1, 69393, Note_on_c, 0, 76, 71
1, 69409, Note_off_c, 0, 76, 68
1, 69411, Note_on_c, 0, 88, 78
1, 69414, Note_off_c, 0, 79, 65
1, 69417, Control_c, 0, 64, 88
1, 69432, Control_c, 0, 64, 68
1, 69447, Control_c, 0, 64, 0
1, 69463, Note_on_c, 0, 76, 90
1, 69467, Note_on_c, 0, 79, 77
1, 69471, Note_on_c, 0, 43, 86
1, 69485, Note_off_c, 0, 76, 68
1, 69485, Note_off_c, 0, 79, 74
1, 69491, Control_c, 0, 67, 71
1, 69496, Note_off_c, 0, 88, 66
1, 69506, Control_c, 0, 67, 121
1, 69521, Control_c, 0, 67, 127
1, 69537, Note_off_c, 0, 43, 56
1, 69607, Note_on_c, 0, 86, 78
1, 69613, Note_on_c, 0, 78, 59
1, 69616, Note_on_c, 0, 74, 56
1, 69616, Note_on_c, 0, 50, 59
1, 69629, Note_off_c, 0, 86, 66
1, 69636, Note_off_c, 0, 74, 61
1, 69642, Note_off_c, 0, 78, 64
1, 69664, Note_off_c, 0, 50, 64
1, 69741, Note_on_c, 0, 84, 67
1, 69746, Note_on_c, 0, 59, 57
1, 69753, Note_on_c, 0, 76, 42
1, 69757, Note_off_c, 0, 84, 66
1, 69767, Note_on_c, 0, 72, 19
1, 69780, Note_off_c, 0, 76, 57
1, 69782, Note_off_c, 0, 59, 65
1, 69805, Note_off_c, 0, 72, 31
1, 69876, Note_on_c, 0, 83, 65
1, 69876, Note_on_c, 0, 74, 53
1, 69883, Note_on_c, 0, 71, 45
1, 69885, Note_on_c, 0, 55, 48
1, 69893, Note_off_c, 0, 83, 66
1, 69899, Note_off_c, 0, 74, 59
1, 69910, Note_off_c, 0, 71, 53
1, 70004, Note_on_c, 0, 69, 61
1, 70004, Note_on_c, 0, 72, 58
1, 70004, Note_on_c, 0, 81, 62
1, 70018, Note_on_c, 0, 62, 46
1, 70019, Note_off_c, 0, 81, 65
1, 70023, Note_off_c, 0, 72, 63
1, 70024, Note_off_c, 0, 69, 65
1, 70125, Note_on_c, 0, 71, 55
1, 70129, Note_on_c, 0, 67, 73
1, 70135, Note_on_c, 0, 79, 67
1, 70142, Note_off_c, 0, 62, 63
1, 70147, Note_off_c, 0, 71, 58
1, 70150, Note_off_c, 0, 55, 62
1, 70151, Note_off_c, 0, 79, 68
1, 70152, Note_off_c, 0, 67, 70
1, 70264, Note_on_c, 0, 45, 65
1, 70264, Note_on_c, 0, 81, 63
1, 70266, Note_on_c, 0, 73, 48
1, 70267, Note_on_c, 0, 69, 65
1, 70281, Note_off_c, 0, 81, 65
1, 70284, Note_on_c, 0, 76, 28
1, 70287, Note_off_c, 0, 69, 65
1, 70288, Note_off_c, 0, 73, 58
1, 70318, Note_off_c, 0, 76, 33
1, 70344, Note_off_c, 0, 45, 57
1, 70358, Control_c, 0, 67, 117
1, 70373, Control_c, 0, 67, 87
1, 70388, Note_on_c, 0, 52, 67
1, 70388, Control_c, 0, 67, 45
1, 70403, Control_c, 0, 67, 0
1, 70414, Note_off_c, 0, 52, 65
1, 70519, Note_on_c, 0, 62, 67
1, 70522, Note_on_c, 0, 69, 71
1, 70537, Note_on_c, 0, 64, 40
1, 70539, Note_on_c, 0, 57, 28
1, 70539, Note_off_c, 0, 57, 127
1, 70546, Note_off_c, 0, 69, 68
1, 70547, Note_off_c, 0, 62, 67
1, 70568, Note_off_c, 0, 64, 35
1, 70641, Note_on_c, 0, 59, 76
1, 70685, Note_off_c, 0, 59, 59
1, 70772, Note_on_c, 0, 69, 88
1, 70774, Note_on_c, 0, 81, 88
1, 70775, Note_on_c, 0, 76, 75
1, 70782, Control_c, 0, 64, 51
1, 70788, Note_on_c, 0, 61, 75
1, 70792, Note_off_c, 0, 69, 66
1, 70797, Control_c, 0, 64, 58
1, 70800, Note_off_c, 0, 76, 67
1, 70812, Control_c, 0, 64, 60
1, 70826, Control_c, 0, 64, 61
1, 70836, Note_off_c, 0, 81, 65
1, 70841, Control_c, 0, 64, 62
1, 70856, Control_c, 0, 64, 63
1, 70871, Control_c, 0, 64, 64
1, 70883, Note_on_c, 0, 69, 79
1, 70886, Control_c, 0, 64, 65
1, 70901, Control_c, 0, 64, 67
1, 70904, Note_off_c, 0, 69, 71
1, 70915, Control_c, 0, 64, 71
1, 70916, Note_on_c, 0, 76, 85
1, 70927, Note_on_c, 0, 79, 69
1, 70930, Control_c, 0, 64, 75
1, 70934, Note_off_c, 0, 61, 65
1, 70945, Control_c, 0, 64, 79
1, 70946, Note_on_c, 0, 88, 76
1, 70949, Note_off_c, 0, 76, 67
1, 70949, Note_off_c, 0, 79, 71
1, 70960, Control_c, 0, 64, 81
1, 70989, Control_c, 0, 64, 78
1, 70996, Note_on_c, 0, 42, 102
1, 70999, Note_on_c, 0, 79, 77
1, 71003, Note_on_c, 0, 76, 85
1, 71003, Note_on_c, 0, 81, 73
1, 71004, Control_c, 0, 64, 62
1, 71019, Control_c, 0, 64, 0
1, 71044, Note_off_c, 0, 81, 57
1, 71045, Note_off_c, 0, 88, 64
1, 71056, Note_off_c, 0, 76, 61
1, 71057, Note_off_c, 0, 79, 64
1, 71059, Note_on_c, 0, 41, 13
1, 71063, Control_c, 0, 64, 29
1, 71078, Control_c, 0, 64, 50
1, 71093, Control_c, 0, 64, 62
1, 71108, Control_c, 0, 64, 65
1, 71109, Note_off_c, 0, 41, 28
1, 71139, Note_on_c, 0, 74, 97
1, 71141, Note_on_c, 0, 86, 90
1, 71151, Note_on_c, 0, 49, 75
1, 71154, Note_off_c, 0, 42, 62
1, 71164, Note_off_c, 0, 74, 66
1, 71166, Control_c, 0, 64, 66
1, 71173, Note_off_c, 0, 86, 66
1, 71181, Control_c, 0, 64, 66
1, 71196, Control_c, 0, 64, 68
1, 71211, Control_c, 0, 64, 70
1, 71226, Control_c, 0, 64, 73
1, 71236, Note_off_c, 0, 49, 63
1, 71241, Control_c, 0, 64, 77
1, 71256, Control_c, 0, 64, 81
1, 71258, Note_on_c, 0, 73, 90
1, 71258, Note_on_c, 0, 85, 95
1, 71268, Note_on_c, 0, 55, 72
1, 71271, Control_c, 0, 64, 84
1, 71286, Control_c, 0, 64, 86
1, 71294, Note_off_c, 0, 85, 67
1, 71297, Note_off_c, 0, 55, 67
1, 71302, Note_off_c, 0, 73, 64
1, 71315, Control_c, 0, 64, 80
1, 71330, Control_c, 0, 64, 65
1, 71345, Control_c, 0, 64, 35
1, 71360, Control_c, 0, 64, 0
1, 71384, Note_on_c, 0, 83, 94
1, 71395, Note_on_c, 0, 71, 81
1, 71395, Note_on_c, 0, 74, 74
1, 71396, Control_c, 0, 64, 35
1, 71402, Note_on_c, 0, 54, 78
1, 71411, Control_c, 0, 64, 57
1, 71419, Note_off_c, 0, 74, 69
1, 71422, Note_off_c, 0, 71, 63
1, 71426, Control_c, 0, 64, 65
1, 71435, Note_off_c, 0, 83, 63
1, 71441, Control_c, 0, 64, 68
1, 71455, Control_c, 0, 64, 69
1, 71470, Control_c, 0, 64, 69
1, 71485, Control_c, 0, 64, 70
1, 71500, Control_c, 0, 64, 70
1, 71513, Note_on_c, 0, 67, 94
1, 71515, Control_c, 0, 64, 71
1, 71517, Note_on_c, 0, 79, 82
1, 71527, Note_on_c, 0, 71, 68
1, 71530, Control_c, 0, 64, 71
1, 71541, Note_on_c, 0, 61, 68
1, 71542, Note_off_c, 0, 67, 62
1, 71545, Note_off_c, 0, 71, 67
1, 71545, Control_c, 0, 64, 72
1, 71552, Note_off_c, 0, 54, 57
1, 71560, Control_c, 0, 64, 73
1, 71563, Note_off_c, 0, 79, 62
1, 71575, Control_c, 0, 64, 74
1, 71590, Control_c, 0, 64, 75
1, 71604, Control_c, 0, 64, 75
1, 71605, Note_off_c, 0, 61, 61
1, 71619, Control_c, 0, 64, 77
1, 71626, Note_on_c, 0, 66, 73
1, 71632, Note_on_c, 0, 69, 97
1, 71634, Control_c, 0, 64, 79
1, 71636, Note_on_c, 0, 81, 95
1, 71643, Note_on_c, 0, 73, 80
1, 71649, Control_c, 0, 64, 81
1, 71652, Note_off_c, 0, 66, 69
1, 71664, Control_c, 0, 64, 83
1, 71667, Note_off_c, 0, 69, 59
1, 71667, Note_off_c, 0, 73, 60
1, 71679, Control_c, 0, 64, 83
1, 71680, Note_off_c, 0, 81, 63
1, 71694, Control_c, 0, 64, 83
1, 71709, Control_c, 0, 64, 81
1, 71724, Control_c, 0, 64, 66
1, 71739, Control_c, 0, 64, 39
1, 71753, Control_c, 0, 64, 0
1, 71762, Note_on_c, 0, 47, 80
1, 71769, Note_on_c, 0, 83, 93
1, 71770, Note_on_c, 0, 71, 93
1, 71772, Note_on_c, 0, 78, 96
1, 71793, Note_off_c, 0, 71, 65
1, 71797, Control_c, 0, 64, 41
1, 71799, Note_off_c, 0, 83, 63
1, 71811, Note_off_c, 0, 78, 65
1, 71812, Control_c, 0, 64, 59
1, 71827, Control_c, 0, 64, 67
1, 71837, Note_off_c, 0, 47, 61
1, 71842, Control_c, 0, 64, 73
1, 71857, Control_c, 0, 64, 78
1, 71871, Control_c, 0, 64, 84
1, 71881, Note_on_c, 0, 54, 84
1, 71886, Control_c, 0, 64, 88
1, 71901, Control_c, 0, 64, 90
1, 71915, Note_off_c, 0, 54, 60
1, 71930, Control_c, 0, 64, 88
1, 71945, Control_c, 0, 64, 73
1, 71960, Control_c, 0, 64, 47
1, 71975, Control_c, 0, 64, 0
1, 72013, Note_on_c, 0, 71, 93
1, 72017, Note_on_c, 0, 59, 85
1, 72019, Note_on_c, 0, 66, 93
1, 72022, Note_on_c, 0, 64, 81
1, 72034, Control_c, 0, 64, 53
1, 72039, Note_off_c, 0, 59, 70
1, 72046, Note_off_c, 0, 66, 67
1, 72049, Control_c, 0, 64, 64
1, 72051, Note_off_c, 0, 71, 62
1, 72052, Note_off_c, 0, 64, 64
1, 72064, Control_c, 0, 64, 67
1, 72078, Control_c, 0, 64, 69
1, 72093, Control_c, 0, 64, 69
1, 72115, Control_c, 0, 64, 70
1, 72138, Note_on_c, 0, 61, 86
1, 72145, Control_c, 0, 64, 69
1, 72160, Control_c, 0, 64, 64
1, 72175, Control_c, 0, 64, 46
1, 72186, Note_off_c, 0, 61, 64
1, 72190, Control_c, 0, 64, 0
1, 72261, Note_on_c, 0, 62, 99
1, 72264, Note_on_c, 0, 78, 82
1, 72266, Note_on_c, 0, 66, 93
1, 72270, Note_on_c, 0, 71, 78
1, 72287, Note_on_c, 0, 70, 35
1, 72297, Note_off_c, 0, 62, 65
1, 72323, Control_c, 0, 64, 53
1, 72327, Note_off_c, 0, 78, 60
1, 72338, Control_c, 0, 64, 69
1, 72350, Note_off_c, 0, 66, 57
1, 72354, Control_c, 0, 64, 71
1, 72358, Note_off_c, 0, 71, 56
1, 72359, Note_off_c, 0, 70, 38
1, 72359, Note_on_c, 0, 74, 89
1, 72368, Control_c, 0, 64, 73
1, 72382, Note_off_c, 0, 74, 69
1, 72383, Control_c, 0, 64, 78
1, 72398, Control_c, 0, 64, 87
1, 72413, Control_c, 0, 64, 99
1, 72427, Control_c, 0, 64, 109
1, 72442, Control_c, 0, 64, 111
1, 72457, Control_c, 0, 64, 106
1, 72460, Note_on_c, 0, 78, 95
1, 72471, Note_on_c, 0, 81, 82
1, 72472, Control_c, 0, 64, 79
1, 72483, Note_on_c, 0, 82, 65
1, 72483, Note_on_c, 0, 90, 77
1, 72487, Control_c, 0, 64, 48
1, 72495, Note_off_c, 0, 82, 42
1, 72496, Note_off_c, 0, 78, 61
1, 72502, Control_c, 0, 64, 0
1, 72511, Note_off_c, 0, 81, 0
1, 72515, Note_on_c, 0, 44, 93
1, 72535, Note_on_c, 0, 78, 80
1, 72546, Control_c, 0, 64, 50
1, 72548, Poly_aftertouch_c, 0, 81, 127
1, 72555, Poly_aftertouch_c, 0, 85, 0
1, 72561, Control_c, 0, 64, 74
1, 72566, Note_on_c, 0, 82, 22
1, 72566, Note_off_c, 0, 82, 127
1, 72576, Control_c, 0, 64, 89
1, 72589, Note_off_c, 0, 90, 66
1, 72591, Control_c, 0, 64, 102
1, 72594, Note_off_c, 0, 78, 59
1, 72601, Poly_aftertouch_c, 0, 81, 0
1, 72666, Note_on_c, 0, 76, 98
1, 72668, Note_on_c, 0, 88, 94
1, 72683, Note_on_c, 0, 51, 86
1, 72688, Note_off_c, 0, 44, 62
1, 72693, Note_on_c, 0, 80, 63
1, 72704, Note_off_c, 0, 88, 66
1, 72706, Note_off_c, 0, 76, 68
1, 72743, Note_off_c, 0, 80, 62
1, 72749, Note_off_c, 0, 51, 61
1, 72779, Note_on_c, 0, 87, 87
1, 72785, Note_on_c, 0, 75, 91
1, 72790, Note_on_c, 0, 59, 76
1, 72826, Note_off_c, 0, 87, 64
1, 72827, Note_off_c, 0, 59, 62
1, 72829, Note_off_c, 0, 75, 64
1, 72916, Note_on_c, 0, 73, 97
1, 72917, Note_on_c, 0, 56, 84
1, 72921, Note_on_c, 0, 85, 97
1, 72955, Note_off_c, 0, 73, 65
1, 72962, Note_off_c, 0, 85, 64
1, 73028, Note_on_c, 0, 63, 82
1, 73029, Note_off_c, 0, 56, 60
1, 73035, Note_on_c, 0, 87, 93
1, 73039, Note_on_c, 0, 75, 98
1, 73083, Note_off_c, 0, 75, 64
1, 73087, Note_off_c, 0, 87, 62
1, 73101, Control_c, 0, 64, 105
1, 73116, Control_c, 0, 64, 108
1, 73131, Control_c, 0, 64, 115
1, 73147, Control_c, 0, 64, 127
1, 73158, Note_on_c, 0, 72, 98
1, 73158, Note_on_c, 0, 84, 92
1, 73161, Note_on_c, 0, 69, 84
1, 73197, Note_off_c, 0, 72, 66
1, 73199, Note_off_c, 0, 84, 67
1, 73200, Note_off_c, 0, 69, 62
1, 73204, Note_off_c, 0, 63, 61
1, 73206, Control_c, 0, 64, 109
1, 73221, Control_c, 0, 64, 73
1, 73236, Control_c, 0, 64, 31
1, 73250, Control_c, 0, 64, 0
1, 73280, Control_c, 0, 64, 34
1, 73286, Note_on_c, 0, 73, 104
1, 73286, Note_on_c, 0, 85, 100
1, 73289, Note_on_c, 0, 56, 73
1, 73293, Note_on_c, 0, 68, 83
1, 73295, Control_c, 0, 64, 62
1, 73310, Control_c, 0, 64, 79
1, 73324, Control_c, 0, 64, 111
1, 73339, Control_c, 0, 64, 127
1, 73363, Note_off_c, 0, 73, 59
1, 73388, Note_off_c, 0, 68, 55
1, 73412, Note_on_c, 0, 76, 88
1, 73417, Note_on_c, 0, 64, 79
1, 73440, Note_off_c, 0, 85, 61
1, 73441, Note_off_c, 0, 56, 58
1, 73476, Note_off_c, 0, 76, 62
1, 73501, Note_off_c, 0, 64, 62
1, 73548, Note_on_c, 0, 66, 86
1, 73552, Note_on_c, 0, 71, 98
1, 73555, Note_on_c, 0, 83, 90
1, 73586, Note_off_c, 0, 83, 65
1, 73587, Note_off_c, 0, 71, 67
1, 73604, Note_off_c, 0, 66, 62
1, 73637, Poly_aftertouch_c, 0, 56, 127
1, 73661, Poly_aftertouch_c, 0, 56, 0
1, 73692, Note_on_c, 0, 80, 95
1, 73693, Note_on_c, 0, 68, 96
1, 73703, Note_on_c, 0, 63, 90
1, 73705, Note_on_c, 0, 71, 82
1, 73740, Note_off_c, 0, 68, 58
1, 73772, Note_off_c, 0, 80, 60
1, 73779, Note_off_c, 0, 71, 59
1, 73793, Note_off_c, 0, 63, 60
1, 73846, Note_on_c, 0, 78, 100
1, 73852, Note_on_c, 0, 66, 94
1, 73852, Note_on_c, 0, 69, 97
1, 73864, Note_on_c, 0, 61, 76
1, 73885, Note_off_c, 0, 69, 65
1, 73885, Note_on_c, 0, 57, 43
1, 73897, Note_off_c, 0, 66, 62
1, 73912, Note_off_c, 0, 78, 58
1, 73914, Note_off_c, 0, 57, 49
1, 73925, Note_off_c, 0, 61, 62
1, 73981, Note_on_c, 0, 66, 98
1, 73984, Note_on_c, 0, 75, 105
1, 73985, Note_on_c, 0, 57, 89
1, 73985, Note_on_c, 0, 63, 95
1, 73998, Note_off_c, 0, 66, 73
1, 74020, Note_off_c, 0, 63, 65
1, 74022, Note_off_c, 0, 57, 67
1, 74024, Note_off_c, 0, 75, 68
1, 74121, Note_on_c, 0, 81, 89
1, 74123, Note_on_c, 0, 85, 90
1, 74153, Note_on_c, 0, 93, 88
1, 74160, Note_off_c, 0, 81, 66
1, 74161, Note_off_c, 0, 85, 68
1, 74192, Control_c, 0, 64, 70
1, 74201, Note_on_c, 0, 81, 97
1, 74204, Note_on_c, 0, 85, 95
1, 74207, Control_c, 0, 64, 0
1, 74210, Note_on_c, 0, 39, 89
1, 74273, Note_off_c, 0, 93, 64
1, 74281, Control_c, 0, 64, 36
1, 74296, Control_c, 0, 64, 70
1, 74300, Note_off_c, 0, 81, 65
1, 74310, Control_c, 0, 64, 81
1, 74313, Note_off_c, 0, 85, 68
1, 74325, Control_c, 0, 64, 90
1, 74340, Control_c, 0, 64, 91
1, 74355, Control_c, 0, 64, 93
1, 74377, Control_c, 0, 64, 96
1, 74393, Note_on_c, 0, 92, 95
1, 74395, Note_on_c, 0, 80, 91
1, 74402, Note_on_c, 0, 83, 87
1, 74404, Note_on_c, 0, 82, 52
1, 74407, Control_c, 0, 64, 99
1, 74416, Note_on_c, 0, 49, 81
1, 74436, Control_c, 0, 64, 101
1, 74454, Note_off_c, 0, 39, 62
1, 74460, Note_off_c, 0, 92, 66
1, 74462, Note_off_c, 0, 80, 63
1, 74466, Note_off_c, 0, 82, 60
1, 74466, Control_c, 0, 64, 104
1, 74467, Note_off_c, 0, 83, 65
1, 74481, Control_c, 0, 64, 106
1, 74496, Control_c, 0, 64, 108
1, 74502, Note_off_c, 0, 49, 62
1, 74511, Control_c, 0, 64, 112
1, 74525, Control_c, 0, 64, 117
1, 74536, Note_on_c, 0, 90, 92
1, 74537, Note_on_c, 0, 78, 89
1, 74540, Control_c, 0, 64, 127
1, 74545, Note_on_c, 0, 82, 62
1, 74552, Note_on_c, 0, 81, 90
1, 74566, Note_on_c, 0, 57, 72
1, 74581, Note_off_c, 0, 82, 48
1, 74582, Note_on_c, 0, 55, 48
1, 74594, Note_off_c, 0, 78, 57
1, 74597, Note_off_c, 0, 57, 68
1, 74598, Note_off_c, 0, 90, 63
1, 74603, Note_off_c, 0, 81, 63
1, 74613, Note_off_c, 0, 55, 54
1, 74668, Note_on_c, 0, 76, 84
1, 74671, Note_on_c, 0, 88, 88
1, 74676, Note_on_c, 0, 51, 83
1, 74696, Note_on_c, 0, 80, 64
1, 74704, Note_off_c, 0, 76, 68
1, 74706, Note_on_c, 0, 77, 35
1, 74706, Note_off_c, 0, 77, 127
1, 74709, Note_off_c, 0, 88, 63
1, 74727, Note_off_c, 0, 80, 61
1, 74786, Note_on_c, 0, 87, 90
1, 74791, Note_on_c, 0, 75, 90
1, 74802, Note_on_c, 0, 61, 78
1, 74809, Note_off_c, 0, 51, 62
1, 74827, Note_off_c, 0, 75, 65
1, 74833, Note_off_c, 0, 87, 65
1, 74891, Note_off_c, 0, 61, 59
1, 74919, Note_on_c, 0, 67, 83
1, 74920, Note_on_c, 0, 73, 95
1, 74920, Note_on_c, 0, 85, 94
1, 74923, Note_on_c, 0, 61, 56
1, 74940, Note_off_c, 0, 67, 70
1, 74973, Note_off_c, 0, 61, 64
1, 74975, Note_off_c, 0, 85, 66
1, 74989, Note_off_c, 0, 73, 58
1, 75001, Control_c, 0, 64, 108
1, 75015, Control_c, 0, 64, 67
1, 75030, Control_c, 0, 64, 0
1, 75042, Note_on_c, 0, 84, 76
1, 75051, Note_on_c, 0, 72, 84
1, 75053, Note_on_c, 0, 44, 78
1, 75075, Control_c, 0, 64, 47
1, 75089, Control_c, 0, 64, 67
1, 75098, Note_off_c, 0, 84, 65
1, 75104, Control_c, 0, 64, 75
1, 75116, Note_off_c, 0, 72, 64
1, 75127, Control_c, 0, 64, 81
1, 75141, Control_c, 0, 64, 82
1, 75192, Note_off_c, 0, 44, 63
1, 75201, Note_on_c, 0, 51, 77
1, 75201, Note_on_c, 0, 81, 94
1, 75203, Note_on_c, 0, 69, 93
1, 75215, Control_c, 0, 64, 83
1, 75217, Note_on_c, 0, 72, 55
1, 75230, Note_on_c, 0, 73, 42
1, 75230, Control_c, 0, 64, 85
1, 75245, Control_c, 0, 64, 87
1, 75260, Control_c, 0, 64, 88
1, 75264, Note_off_c, 0, 69, 63
1, 75264, Note_off_c, 0, 81, 60
1, 75265, Note_off_c, 0, 73, 42
1, 75275, Note_off_c, 0, 51, 63
1, 75295, Note_off_c, 0, 72, 62
1, 75304, Control_c, 0, 64, 87
1, 75344, Note_on_c, 0, 80, 88
1, 75348, Control_c, 0, 64, 88
1, 75349, Note_on_c, 0, 68, 91
1, 75360, Note_on_c, 0, 60, 59
1, 75363, Control_c, 0, 64, 89
1, 75369, Note_on_c, 0, 62, 56
1, 75378, Control_c, 0, 64, 97
1, 75390, Note_off_c, 0, 80, 64
1, 75393, Control_c, 0, 64, 127
1, 75401, Note_off_c, 0, 62, 58
1, 75428, Note_off_c, 0, 68, 56
1, 75432, Poly_aftertouch_c, 0, 67, 127
1, 75436, Note_off_c, 0, 60, 59
1, 75479, Poly_aftertouch_c, 0, 67, 0
1, 75495, Note_on_c, 0, 56, 80
1, 75496, Control_c, 0, 64, 89
1, 75507, Note_on_c, 0, 78, 94
1, 75509, Note_on_c, 0, 69, 76
1, 75511, Control_c, 0, 64, 68
1, 75518, Note_on_c, 0, 66, 80
1, 75526, Control_c, 0, 64, 60
1, 75542, Control_c, 0, 64, 61
1, 75557, Control_c, 0, 64, 66
1, 75571, Control_c, 0, 64, 76
1, 75586, Control_c, 0, 64, 90
1, 75601, Note_off_c, 0, 78, 60
1, 75601, Control_c, 0, 64, 103
1, 75604, Note_off_c, 0, 66, 60
1, 75606, Note_off_c, 0, 69, 62
1, 75616, Control_c, 0, 64, 108
1, 75681, Note_on_c, 0, 63, 78
1, 75683, Note_on_c, 0, 76, 95
1, 75689, Note_on_c, 0, 64, 90
1, 75691, Note_off_c, 0, 56, 62
1, 75700, Note_on_c, 0, 68, 73
1, 75705, Note_off_c, 0, 63, 70
1, 75737, Note_off_c, 0, 76, 61
1, 75748, Note_off_c, 0, 64, 61
1, 75758, Note_off_c, 0, 68, 58
1, 75778, Control_c, 0, 64, 110
1, 75793, Control_c, 0, 64, 114
1, 75808, Control_c, 0, 64, 127
1, 75904, Control_c, 0, 64, 112
1, 75908, Note_on_c, 0, 63, 99
1, 75908, Note_on_c, 0, 66, 86
1, 75908, Note_on_c, 0, 75, 97
1, 75909, Note_on_c, 0, 72, 91
1, 75919, Control_c, 0, 64, 69
1, 75934, Control_c, 0, 64, 33
1, 75949, Control_c, 0, 64, 29
1, 75963, Control_c, 0, 64, 43
1, 75978, Control_c, 0, 64, 61
1, 75993, Control_c, 0, 64, 72
1, 76008, Control_c, 0, 64, 88
1, 76023, Control_c, 0, 64, 110
1, 76037, Control_c, 0, 64, 127
1, 76055, Note_off_c, 0, 72, 61
1, 76061, Note_off_c, 0, 75, 60
1, 76064, Note_off_c, 0, 66, 62
1, 76165, Note_off_c, 0, 63, 45
1, 76255, Note_on_c, 0, 69, 93
1, 76257, Note_on_c, 0, 73, 94
1, 76261, Note_on_c, 0, 61, 96
1, 76261, Note_on_c, 0, 64, 94
1, 76269, Note_on_c, 0, 45, 84
1, 76270, Note_on_c, 0, 33, 84
1, 76270, Note_on_c, 0, 40, 74
1, 76289, Control_c, 0, 64, 90
1, 76304, Control_c, 0, 64, 59
1, 76319, Control_c, 0, 64, 0
1, 76468, Control_c, 0, 64, 36
1, 76483, Control_c, 0, 64, 56
1, 76498, Control_c, 0, 64, 62
1, 76512, Control_c, 0, 64, 66
1, 76527, Control_c, 0, 64, 69
1, 76542, Control_c, 0, 64, 74
1, 76557, Control_c, 0, 64, 79
1, 76572, Control_c, 0, 64, 84
1, 76586, Control_c, 0, 64, 88
1, 76589, Note_off_c, 0, 61, 52
1, 76601, Control_c, 0, 64, 92
1, 76606, Note_off_c, 0, 45, 55
1, 76624, Control_c, 0, 64, 95
1, 76639, Control_c, 0, 64, 97
1, 76642, Note_off_c, 0, 73, 56
1, 76654, Control_c, 0, 64, 100
1, 76668, Control_c, 0, 64, 102
1, 76670, Note_off_c, 0, 69, 57
1, 76683, Control_c, 0, 64, 104
1, 76695, Note_off_c, 0, 64, 60
1, 76712, Control_c, 0, 64, 106
1, 76984, Note_on_c, 0, 62, 57
1, 76990, Note_on_c, 0, 64, 54
1, 77001, Note_on_c, 0, 45, 45
1, 77080, Note_off_c, 0, 40, 58
1, 77083, Poly_aftertouch_c, 0, 57, 127
1, 77432, Control_c, 0, 64, 104
1, 77441, Note_on_c, 0, 61, 57
1, 77461, Note_off_c, 0, 45, 48
1, 77474, Note_on_c, 0, 40, 27
1, 77477, Note_off_c, 0, 62, 55
1, 77482, Note_off_c, 0, 64, 34
1, 77512, Poly_aftertouch_c, 0, 57, 0
1, 77521, Control_c, 0, 64, 102
1, 77565, Control_c, 0, 64, 99
1, 77639, Control_c, 0, 64, 97
1, 77683, Control_c, 0, 64, 96
1, 77684, Note_on_c, 0, 62, 48
1, 77687, Note_off_c, 0, 40, 41
1, 77689, Note_on_c, 0, 57, 16
1, 77689, Note_on_c, 0, 64, 47
1, 77694, Note_on_c, 0, 45, 33
1, 77700, Note_off_c, 0, 61, 38
1, 77713, Control_c, 0, 64, 95
1, 77727, Control_c, 0, 64, 95
1, 77742, Control_c, 0, 64, 94
1, 77749, Poly_aftertouch_c, 0, 52, 127
1, 77772, Control_c, 0, 64, 94
1, 77787, Control_c, 0, 64, 93
1, 77791, Poly_aftertouch_c, 0, 52, 0
1, 77802, Control_c, 0, 64, 93
1, 77832, Control_c, 0, 64, 92
1, 77846, Control_c, 0, 64, 92
1, 77861, Control_c, 0, 64, 91
1, 77863, Note_on_c, 0, 61, 53
1, 77871, Note_on_c, 0, 40, 36
1, 77873, Note_off_c, 0, 64, 38
1, 77876, Control_c, 0, 64, 90
1, 77884, Note_off_c, 0, 45, 35
1, 77891, Control_c, 0, 64, 90
1, 77906, Control_c, 0, 64, 89
1, 77908, Note_off_c, 0, 57, 17
1, 77919, Note_off_c, 0, 62, 31
1, 77921, Control_c, 0, 64, 89
1, 77936, Control_c, 0, 64, 88
1, 77951, Control_c, 0, 64, 87
1, 77966, Control_c, 0, 64, 86
1, 77972, Note_off_c, 0, 40, 33
1, 77981, Control_c, 0, 64, 85
1, 77996, Control_c, 0, 64, 84
1, 78010, Control_c, 0, 64, 83
1, 78025, Control_c, 0, 64, 82
1, 78028, Note_off_c, 0, 61, 35
1, 78040, Control_c, 0, 64, 80
1, 78052, Note_on_c, 0, 45, 29
1, 78055, Control_c, 0, 64, 77
1, 78057, Note_on_c, 0, 57, 28
1, 78057, Note_on_c, 0, 62, 47
1, 78069, Note_on_c, 0, 64, 40
1, 78070, Control_c, 0, 64, 76
1, 78085, Control_c, 0, 64, 75
1, 78100, Control_c, 0, 64, 74
1, 78121, Control_c, 0, 64, 73
1, 78136, Control_c, 0, 64, 73
1, 78139, Poly_aftertouch_c, 0, 52, 127
1, 78151, Control_c, 0, 64, 72
1, 78165, Control_c, 0, 64, 72
1, 78180, Control_c, 0, 64, 71
1, 78192, Poly_aftertouch_c, 0, 52, 0
1, 78195, Control_c, 0, 64, 71
1, 78210, Control_c, 0, 64, 70
1, 78225, Control_c, 0, 64, 67
1, 78240, Control_c, 0, 64, 65
1, 78255, Control_c, 0, 64, 64
1, 78261, Note_on_c, 0, 61, 43
1, 78274, Note_on_c, 0, 40, 36
1, 78274, Note_off_c, 0, 57, 17
1, 78281, Note_off_c, 0, 64, 32
1, 78297, Note_off_c, 0, 45, 32
1, 78300, Control_c, 0, 64, 64
1, 78315, Control_c, 0, 64, 65
1, 78322, Note_off_c, 0, 62, 37
1, 78329, Control_c, 0, 64, 65
1, 78344, Control_c, 0, 64, 66
1, 78359, Control_c, 0, 64, 67
1, 78374, Control_c, 0, 64, 67
1, 78404, Control_c, 0, 64, 68
1, 78537, Control_c, 0, 64, 68
1, 78596, Control_c, 0, 64, 68
1, 78611, Control_c, 0, 64, 67
1, 78625, Control_c, 0, 64, 66
1, 78640, Control_c, 0, 64, 64
1, 78655, Control_c, 0, 64, 63
1, 78667, Note_on_c, 0, 64, 34
1, 78670, Note_on_c, 0, 62, 35
1, 78670, Control_c, 0, 64, 62
1, 78672, Note_on_c, 0, 57, 23
1, 78675, Note_on_c, 0, 45, 32
1, 78678, Note_off_c, 0, 40, 41
1, 78678, Note_off_c, 0, 61, 40
1, 78684, Control_c, 0, 64, 62
1, 78699, Control_c, 0, 67, 47
1, 78714, Control_c, 0, 67, 56
1, 78717, Note_on_c, 0, 52, 3
1, 78730, Control_c, 0, 67, 62
1, 78745, Control_c, 0, 67, 69
1, 78760, Control_c, 0, 64, 62
1, 78760, Control_c, 0, 67, 73
1, 78775, Control_c, 0, 64, 63
1, 78775, Control_c, 0, 67, 75
1, 78789, Control_c, 0, 64, 63
1, 78789, Control_c, 0, 67, 76
1, 78804, Control_c, 0, 64, 64
1, 78804, Control_c, 0, 67, 77
1, 78819, Control_c, 0, 64, 65
1, 78834, Control_c, 0, 64, 65
1, 78849, Control_c, 0, 64, 66
1, 78849, Control_c, 0, 67, 76
1, 78871, Control_c, 0, 64, 66
1, 78871, Control_c, 0, 67, 75
1, 78886, Control_c, 0, 64, 67
1, 78886, Control_c, 0, 67, 75
1, 78901, Control_c, 0, 64, 68
1, 78901, Control_c, 0, 67, 74
1, 78915, Control_c, 0, 64, 68
1, 78915, Control_c, 0, 67, 73
1, 78930, Control_c, 0, 64, 69
1, 78930, Control_c, 0, 67, 73
1, 78945, Control_c, 0, 67, 72
1, 78960, Control_c, 0, 67, 71
1, 78975, Control_c, 0, 67, 71
1, 79004, Control_c, 0, 64, 69
1, 79034, Control_c, 0, 67, 70
1, 79049, Control_c, 0, 64, 70
1, 79060, Note_on_c, 0, 40, 36
1, 79063, Control_c, 0, 64, 70
1, 79072, Note_on_c, 0, 61, 37
1, 79078, Control_c, 0, 64, 71
1, 79093, Control_c, 0, 64, 71
1, 79093, Control_c, 0, 67, 71
1, 79107, Control_c, 0, 67, 71
1, 79123, Note_off_c, 0, 45, 38
1, 79132, Note_off_c, 0, 64, 41
1, 79137, Control_c, 0, 64, 72
1, 79137, Control_c, 0, 67, 72
1, 79140, Note_off_c, 0, 33, 50
1, 79157, Note_off_c, 0, 52, 4
1, 79158, Note_off_c, 0, 62, 41
1, 79167, Control_c, 0, 67, 73
1, 79182, Control_c, 0, 67, 73
1, 79212, Control_c, 0, 67, 74
1, 79227, Control_c, 0, 67, 75
1, 79243, Note_off_c, 0, 57, 26
1, 79256, Control_c, 0, 67, 75
1, 79330, Control_c, 0, 67, 76
1, 79364, Note_off_c, 0, 61, 41
1, 79434, Control_c, 0, 64, 71
1, 79449, Control_c, 0, 64, 71
1, 79461, Note_on_c, 0, 33, 62
1, 79463, Control_c, 0, 64, 69
1, 79478, Control_c, 0, 64, 65
1, 79478, Control_c, 0, 67, 77
1, 79479, Note_off_c, 0, 40, 53
1, 79493, Control_c, 0, 64, 61
1, 79493, Control_c, 0, 67, 77
1, 79507, Control_c, 0, 64, 57
1, 79507, Control_c, 0, 67, 78
1, 79523, Control_c, 0, 64, 55
1, 79538, Control_c, 0, 64, 54
1, 79538, Control_c, 0, 67, 79
1, 79553, Control_c, 0, 64, 53
1, 79568, Control_c, 0, 64, 53
1, 79568, Control_c, 0, 67, 79
1, 79605, Control_c, 0, 64, 52
1, 79605, Control_c, 0, 67, 80
1, 79620, Control_c, 0, 67, 81
1, 79635, Control_c, 0, 67, 81
1, 79650, Control_c, 0, 67, 82
1, 79665, Control_c, 0, 64, 53
1, 79665, Control_c, 0, 67, 83
1, 79668, Note_on_c, 0, 62, 48
1, 79674, Note_on_c, 0, 64, 46
1, 79680, Control_c, 0, 64, 53
1, 79680, Control_c, 0, 67, 99
1, 79681, Note_on_c, 0, 40, 35
1, 79694, Control_c, 0, 64, 55
1, 79694, Control_c, 0, 67, 122
1, 79709, Control_c, 0, 64, 57
1, 79709, Control_c, 0, 67, 127
1, 79724, Control_c, 0, 64, 60
1, 79738, Control_c, 0, 64, 61
1, 79740, Poly_aftertouch_c, 0, 52, 127
1, 79753, Control_c, 0, 64, 62
1, 79768, Control_c, 0, 64, 63
1, 79777, Poly_aftertouch_c, 0, 52, 0
1, 79783, Control_c, 0, 64, 63
1, 79797, Control_c, 0, 64, 64
1, 79841, Control_c, 0, 64, 64
1, 79845, Note_on_c, 0, 47, 41
1, 79849, Note_on_c, 0, 56, 49
1, 79857, Note_off_c, 0, 40, 36
1, 79866, Note_off_c, 0, 62, 53
1, 79866, Note_off_c, 0, 64, 56
1, 79871, Control_c, 0, 64, 65
1, 79930, Control_c, 0, 64, 65
1, 79990, Control_c, 0, 64, 65
1, 80004, Control_c, 0, 64, 63
1, 80013, Note_on_c, 0, 40, 32
1, 80017, Note_on_c, 0, 62, 46
1, 80019, Control_c, 0, 64, 60
1, 80026, Note_on_c, 0, 64, 43
1, 80032, Note_off_c, 0, 47, 38
1, 80034, Control_c, 0, 64, 57
1, 80037, Note_off_c, 0, 56, 24
1, 80049, Control_c, 0, 64, 55
1, 80085, Poly_aftertouch_c, 0, 52, 127
1, 80093, Control_c, 0, 64, 55
1, 80108, Control_c, 0, 64, 56
1, 80123, Control_c, 0, 64, 58
1, 80137, Control_c, 0, 64, 59
1, 80152, Control_c, 0, 64, 61
1, 80167, Control_c, 0, 64, 62
1, 80178, Poly_aftertouch_c, 0, 52, 0
1, 80182, Control_c, 0, 64, 63
1, 80196, Note_on_c, 0, 56, 42
1, 80197, Control_c, 0, 64, 63
1, 80201, Note_off_c, 0, 40, 42
1, 80207, Note_on_c, 0, 47, 33
1, 80226, Control_c, 0, 64, 64
1, 80230, Note_off_c, 0, 64, 37
1, 80246, Note_off_c, 0, 62, 37
1, 80285, Control_c, 0, 64, 64
1, 80331, Control_c, 0, 64, 64
1, 80368, Control_c, 0, 64, 63
1, 80383, Control_c, 0, 64, 62
1, 80386, Note_on_c, 0, 62, 47
1, 80392, Note_on_c, 0, 40, 33
1, 80398, Control_c, 0, 64, 60
1, 80399, Note_on_c, 0, 64, 34
1, 80404, Note_off_c, 0, 47, 42
1, 80413, Control_c, 0, 64, 58
1, 80427, Control_c, 0, 64, 56
1, 80428, Note_off_c, 0, 56, 33
1, 80442, Control_c, 0, 64, 55
1, 80457, Control_c, 0, 64, 55
1, 80472, Control_c, 0, 64, 54
1, 80487, Control_c, 0, 64, 54
1, 80501, Control_c, 0, 64, 53
1, 80516, Control_c, 0, 64, 52
1, 80531, Control_c, 0, 64, 51
1, 80546, Control_c, 0, 64, 50
1, 80560, Control_c, 0, 64, 48
1, 80575, Control_c, 0, 64, 46
1, 80587, Note_on_c, 0, 56, 37
1, 80590, Control_c, 0, 64, 44
1, 80603, Note_off_c, 0, 40, 39
1, 80605, Control_c, 0, 64, 42
1, 80610, Note_on_c, 0, 47, 37
1, 80628, Note_off_c, 0, 62, 51
1, 80649, Control_c, 0, 64, 43
1, 80652, Note_off_c, 0, 64, 44
1, 80664, Control_c, 0, 64, 49
1, 80678, Control_c, 0, 64, 55
1, 80693, Control_c, 0, 64, 61
1, 80708, Control_c, 0, 64, 64
1, 80723, Control_c, 0, 64, 66
1, 80738, Control_c, 0, 64, 67
1, 80753, Control_c, 0, 64, 68
1, 80768, Control_c, 0, 64, 69
1, 80783, Control_c, 0, 64, 70
1, 80812, Control_c, 0, 64, 70
1, 80975, Control_c, 0, 64, 69
1, 80990, Note_on_c, 0, 62, 36
1, 80990, Control_c, 0, 64, 67
1, 80995, Note_on_c, 0, 40, 27
1, 80997, Note_on_c, 0, 64, 34
1, 81000, Note_on_c, 0, 52, 28
1, 81005, Control_c, 0, 64, 63
1, 81020, Control_c, 0, 64, 58
1, 81031, Note_off_c, 0, 47, 29
1, 81034, Control_c, 0, 64, 54
1, 81049, Control_c, 0, 64, 52
1, 81086, Note_off_c, 0, 56, 35
1, 81176, Control_c, 0, 64, 52
1, 81206, Control_c, 0, 64, 53
1, 81221, Control_c, 0, 64, 54
1, 81251, Control_c, 0, 64, 54
1, 81295, Control_c, 0, 64, 55
1, 81325, Control_c, 0, 64, 56
1, 81340, Control_c, 0, 64, 57
1, 81355, Control_c, 0, 64, 59
1, 81370, Control_c, 0, 64, 60
1, 81384, Control_c, 0, 64, 62
1, 81399, Control_c, 0, 64, 63
1, 81403, Note_on_c, 0, 56, 40
1, 81408, Note_on_c, 0, 47, 39
1, 81414, Control_c, 0, 64, 65
1, 81429, Control_c, 0, 64, 66
1, 81444, Control_c, 0, 64, 68
1, 81458, Control_c, 0, 64, 68
1, 81465, Note_off_c, 0, 40, 38
1, 81473, Control_c, 0, 64, 69
1, 81488, Control_c, 0, 64, 70
1, 81501, Note_off_c, 0, 33, 42
1, 81517, Control_c, 0, 64, 70
1, 81532, Control_c, 0, 64, 71
1, 81577, Note_off_c, 0, 62, 31
1, 81585, Note_off_c, 0, 64, 41
1, 81621, Note_off_c, 0, 52, 23
1, 81659, Note_off_c, 0, 56, 50
1, 81843, Control_c, 0, 64, 70
1, 81865, Control_c, 0, 64, 69
1, 81880, Control_c, 0, 64, 68
1, 81895, Control_c, 0, 64, 66
1, 81901, Note_on_c, 0, 33, 58
1, 81909, Control_c, 0, 64, 63
1, 81924, Control_c, 0, 64, 60
1, 81940, Control_c, 0, 64, 57
1, 81955, Control_c, 0, 64, 55
1, 81970, Control_c, 0, 64, 54
1, 81985, Note_off_c, 0, 47, 36
1, 81985, Control_c, 0, 64, 53
1, 82000, Control_c, 0, 64, 53
1, 82014, Control_c, 0, 64, 52
1, 82029, Control_c, 0, 64, 51
1, 82044, Control_c, 0, 64, 51
1, 82059, Control_c, 0, 64, 50
1, 82074, Control_c, 0, 64, 50
1, 82088, Control_c, 0, 64, 49
1, 82118, Control_c, 0, 64, 49
1, 82133, Control_c, 0, 64, 48
1, 82148, Control_c, 0, 64, 48
1, 82178, Control_c, 0, 64, 47
1, 82228, Note_on_c, 0, 45, 33
1, 82228, Note_on_c, 0, 62, 42
1, 82240, Note_on_c, 0, 64, 39
1, 82288, Poly_aftertouch_c, 0, 57, 127
1, 82296, Control_c, 0, 64, 48
1, 82311, Control_c, 0, 64, 50
1, 82325, Control_c, 0, 64, 53
1, 82340, Control_c, 0, 64, 56
1, 82355, Control_c, 0, 64, 58
1, 82370, Control_c, 0, 64, 59
1, 82414, Control_c, 0, 64, 59
1, 82458, Control_c, 0, 64, 60
1, 82460, Note_on_c, 0, 61, 57
1, 82473, Control_c, 0, 64, 60
1, 82475, Note_on_c, 0, 40, 35
1, 82486, Note_off_c, 0, 62, 52
1, 82498, Note_off_c, 0, 64, 38
1, 82503, Control_c, 0, 64, 61
1, 82523, Note_off_c, 0, 45, 35
1, 82529, Poly_aftertouch_c, 0, 57, 0
1, 82532, Control_c, 0, 64, 61
1, 82592, Control_c, 0, 64, 62
1, 82654, Note_on_c, 0, 62, 51
1, 82658, Control_c, 0, 64, 61
1, 82664, Note_on_c, 0, 57, 44
1, 82670, Note_on_c, 0, 45, 32
1, 82670, Note_off_c, 0, 40, 48
1, 82673, Note_off_c, 0, 61, 53
1, 82677, Note_on_c, 0, 64, 45
1, 82688, Control_c, 0, 64, 61
1, 82703, Control_c, 0, 64, 60
1, 82718, Control_c, 0, 64, 60
1, 82734, Control_c, 0, 64, 59
1, 82749, Control_c, 0, 64, 59
1, 82778, Control_c, 0, 64, 58
1, 82833, Note_on_c, 0, 61, 59
1, 82839, Note_on_c, 0, 40, 33
1, 82854, Note_off_c, 0, 64, 54
1, 82862, Note_off_c, 0, 45, 41
1, 82870, Note_off_c, 0, 62, 52
1, 82873, Note_off_c, 0, 57, 53
1, 83003, Note_on_c, 0, 62, 56
1, 83009, Note_off_c, 0, 61, 48
1, 83015, Note_on_c, 0, 45, 31
1, 83019, Note_on_c, 0, 57, 33
1, 83019, Note_off_c, 0, 40, 47
1, 83026, Note_on_c, 0, 64, 40
1, 83045, Control_c, 0, 64, 58
1, 83074, Control_c, 0, 64, 57
1, 83119, Control_c, 0, 64, 57
1, 83148, Control_c, 0, 64, 56
1, 83163, Control_c, 0, 64, 56
1, 83178, Control_c, 0, 64, 55
1, 83193, Control_c, 0, 64, 55
1, 83208, Control_c, 0, 64, 54
1, 83219, Note_on_c, 0, 61, 53
1, 83226, Note_on_c, 0, 40, 34
1, 83263, Note_off_c, 0, 45, 40
1, 83267, Note_off_c, 0, 57, 41
1, 83274, Note_off_c, 0, 64, 39
1, 83281, Note_off_c, 0, 62, 31
1, 83281, Control_c, 0, 64, 55
1, 83296, Control_c, 0, 64, 56
1, 83311, Control_c, 0, 64, 58
1, 83326, Control_c, 0, 64, 59
1, 83348, Control_c, 0, 64, 61
1, 83363, Control_c, 0, 64, 62
1, 83378, Control_c, 0, 64, 63
1, 83393, Control_c, 0, 64, 64
1, 83408, Control_c, 0, 64, 65
1, 83423, Control_c, 0, 64, 66
1, 83437, Control_c, 0, 64, 67
1, 83452, Control_c, 0, 64, 67
1, 83467, Control_c, 0, 64, 68
1, 83481, Control_c, 0, 64, 68
1, 83600, Control_c, 0, 64, 68
1, 83615, Control_c, 0, 64, 67
1, 83630, Control_c, 0, 64, 66
1, 83635, Note_on_c, 0, 62, 41
1, 83645, Control_c, 0, 64, 65
1, 83647, Note_on_c, 0, 57, 25
1, 83656, Note_on_c, 0, 45, 36
1, 83656, Note_on_c, 0, 64, 37
1, 83659, Control_c, 0, 64, 62
1, 83662, Note_off_c, 0, 40, 41
1, 83662, Note_off_c, 0, 61, 30
1, 83674, Control_c, 0, 64, 60
1, 83686, Note_on_c, 0, 52, 3
1, 83689, Control_c, 0, 64, 58
1, 83704, Control_c, 0, 64, 57
1, 83719, Control_c, 0, 64, 55
1, 83734, Control_c, 0, 64, 54
1, 83749, Control_c, 0, 64, 53
1, 83764, Control_c, 0, 64, 51
1, 83778, Control_c, 0, 64, 51
1, 83793, Control_c, 0, 64, 50
1, 83808, Control_c, 0, 64, 50
1, 83838, Control_c, 0, 64, 49
1, 83985, Control_c, 0, 64, 50
1, 84000, Control_c, 0, 64, 50
1, 84015, Control_c, 0, 64, 52
1, 84029, Control_c, 0, 64, 55
1, 84044, Control_c, 0, 64, 58
1, 84059, Control_c, 0, 64, 61
1, 84059, Control_c, 0, 67, 125
1, 84074, Control_c, 0, 64, 63
1, 84074, Control_c, 0, 67, 123
1, 84089, Control_c, 0, 64, 64
1, 84089, Control_c, 0, 67, 120
1, 84111, Control_c, 0, 64, 65
1, 84112, Note_on_c, 0, 40, 35
1, 84117, Note_on_c, 0, 61, 35
1, 84126, Control_c, 0, 64, 66
1, 84126, Control_c, 0, 67, 118
1, 84141, Control_c, 0, 64, 67
1, 84150, Note_off_c, 0, 62, 35
1, 84156, Control_c, 0, 64, 68
1, 84156, Control_c, 0, 67, 115
1, 84157, Note_off_c, 0, 64, 39
1, 84171, Control_c, 0, 64, 69
1, 84171, Control_c, 0, 67, 113
1, 84185, Control_c, 0, 64, 70
1, 84185, Control_c, 0, 67, 107
1, 84200, Control_c, 0, 64, 70
1, 84200, Control_c, 0, 67, 100
1, 84215, Control_c, 0, 64, 71
1, 84215, Control_c, 0, 67, 91
1, 84222, Note_off_c, 0, 57, 41
1, 84225, Note_off_c, 0, 45, 37
1, 84229, Control_c, 0, 64, 72
1, 84229, Control_c, 0, 67, 85
1, 84241, Note_off_c, 0, 52, 15
1, 84244, Control_c, 0, 64, 72
1, 84244, Control_c, 0, 67, 78
1, 84259, Control_c, 0, 64, 73
1, 84259, Control_c, 0, 67, 71
1, 84274, Control_c, 0, 64, 74
1, 84274, Control_c, 0, 67, 63
1, 84289, Control_c, 0, 64, 74
1, 84289, Control_c, 0, 67, 54
1, 84303, Control_c, 0, 64, 75
1, 84303, Control_c, 0, 67, 47
1, 84318, Control_c, 0, 64, 75
1, 84318, Control_c, 0, 67, 37
1, 84322, Note_off_c, 0, 33, 46
1, 84334, Control_c, 0, 67, 0
1, 84400, Note_off_c, 0, 61, 61
1, 84690, Control_c, 0, 64, 75
1, 84705, Control_c, 0, 64, 73
1, 84719, Control_c, 0, 64, 72
1, 84734, Control_c, 0, 64, 69
1, 84738, Note_on_c, 0, 31, 58
1, 84749, Control_c, 0, 64, 65
1, 84764, Control_c, 0, 64, 60
1, 84779, Control_c, 0, 64, 56
1, 84793, Control_c, 0, 64, 54
1, 84808, Control_c, 0, 64, 52
1, 84814, Note_off_c, 0, 40, 42
1, 84823, Control_c, 0, 64, 52
1, 84838, Control_c, 0, 64, 51
1, 84860, Control_c, 0, 64, 51
1, 84875, Control_c, 0, 64, 50
1, 84890, Control_c, 0, 64, 50
1, 84920, Control_c, 0, 64, 49
1, 84979, Control_c, 0, 64, 49
1, 85038, Control_c, 0, 64, 48
1, 85067, Control_c, 0, 64, 48
1, 85112, Control_c, 0, 64, 47
1, 85142, Control_c, 0, 64, 47
1, 85153, Note_on_c, 0, 62, 53
1, 85165, Note_on_c, 0, 38, 43
1, 85172, Control_c, 0, 64, 46
1, 85174, Note_on_c, 0, 64, 45
1, 85177, Note_on_c, 0, 58, 34
1, 85240, Poly_aftertouch_c, 0, 52, 127
1, 85261, Control_c, 0, 64, 47
1, 85275, Control_c, 0, 64, 48
1, 85290, Control_c, 0, 64, 51
1, 85305, Control_c, 0, 64, 54
1, 85320, Control_c, 0, 64, 56
1, 85335, Control_c, 0, 64, 58
1, 85349, Control_c, 0, 64, 59
1, 85364, Control_c, 0, 64, 59
1, 85379, Control_c, 0, 64, 60
1, 85454, Control_c, 0, 64, 60
1, 85483, Control_c, 0, 64, 61
1, 85501, Note_on_c, 0, 60, 57
1, 85515, Note_on_c, 0, 43, 41
1, 85538, Note_off_c, 0, 38, 41
1, 85549, Poly_aftertouch_c, 0, 52, 0
1, 85552, Note_off_c, 0, 62, 57
1, 85570, Note_off_c, 0, 64, 38
1, 85609, Control_c, 0, 64, 61
1, 85624, Control_c, 0, 64, 62
1, 85713, Control_c, 0, 64, 61
1, 85728, Control_c, 0, 64, 60
1, 85743, Control_c, 0, 64, 59
1, 85752, Note_on_c, 0, 62, 49
1, 85757, Control_c, 0, 64, 58
1, 85761, Note_on_c, 0, 38, 37
1, 85764, Note_off_c, 0, 60, 57
1, 85772, Control_c, 0, 64, 57
1, 85773, Note_on_c, 0, 64, 46
1, 85786, Control_c, 0, 64, 56
1, 85791, Note_off_c, 0, 43, 37
1, 85800, Control_c, 0, 64, 55
1, 85815, Control_c, 0, 64, 55
1, 85830, Control_c, 0, 64, 54
1, 85835, Poly_aftertouch_c, 0, 52, 127
1, 85845, Control_c, 0, 64, 54
1, 85874, Control_c, 0, 64, 53
1, 85920, Control_c, 0, 67, 53
1, 85935, Control_c, 0, 67, 64
1, 85950, Control_c, 0, 64, 54
1, 85950, Control_c, 0, 67, 73
1, 85960, Note_on_c, 0, 60, 59
1, 85965, Control_c, 0, 64, 54
1, 85965, Control_c, 0, 67, 81
1, 85966, Note_on_c, 0, 43, 37
1, 85975, Poly_aftertouch_c, 0, 52, 0
1, 85975, Note_off_c, 0, 62, 53
1, 85979, Control_c, 0, 64, 55
1, 85979, Control_c, 0, 67, 90
1, 85984, Note_off_c, 0, 64, 56
1, 85986, Note_off_c, 0, 38, 41
1, 85994, Control_c, 0, 64, 57
1, 85994, Control_c, 0, 67, 96
1, 86009, Control_c, 0, 64, 58
1, 86009, Control_c, 0, 67, 103
1, 86024, Control_c, 0, 64, 59
1, 86024, Control_c, 0, 67, 111
1, 86038, Control_c, 0, 64, 59
1, 86038, Control_c, 0, 67, 116
1, 86053, Control_c, 0, 67, 120
1, 86068, Control_c, 0, 67, 126
1, 86127, Control_c, 0, 64, 59
1, 86139, Note_on_c, 0, 62, 44
1, 86142, Note_off_c, 0, 60, 59
1, 86142, Control_c, 0, 64, 58
1, 86148, Note_off_c, 0, 43, 53
1, 86149, Note_on_c, 0, 64, 39
1, 86150, Note_on_c, 0, 38, 33
1, 86157, Control_c, 0, 64, 57
1, 86160, Note_on_c, 0, 52, 16
1, 86172, Control_c, 0, 64, 56
1, 86187, Control_c, 0, 64, 55
1, 86202, Control_c, 0, 64, 54
1, 86217, Control_c, 0, 64, 54
1, 86232, Control_c, 0, 64, 53
1, 86246, Control_c, 0, 64, 52
1, 86276, Control_c, 0, 64, 52
1, 86290, Control_c, 0, 64, 51
1, 86320, Control_c, 0, 64, 51
1, 86335, Control_c, 0, 64, 50
1, 86368, Note_off_c, 0, 62, 54
1, 86372, Control_c, 0, 64, 50
1, 86372, Note_on_c, 0, 43, 23
1, 86380, Note_on_c, 0, 60, 43
1, 86387, Note_off_c, 0, 38, 42
1, 86427, Note_off_c, 0, 64, 32
1, 86461, Control_c, 0, 64, 51
1, 86476, Control_c, 0, 64, 53
1, 86491, Control_c, 0, 64, 56
1, 86505, Control_c, 0, 64, 59
1, 86520, Control_c, 0, 64, 62
1, 86535, Control_c, 0, 64, 63
1, 86550, Control_c, 0, 64, 64
1, 86565, Control_c, 0, 64, 65
1, 86579, Control_c, 0, 64, 67
1, 86587, Note_off_c, 0, 52, 5
1, 86594, Control_c, 0, 64, 68
1, 86609, Control_c, 0, 64, 68
1, 86623, Control_c, 0, 64, 69
1, 86773, Control_c, 0, 64, 68
1, 86788, Control_c, 0, 64, 67
1, 86793, Note_on_c, 0, 62, 39
1, 86796, Note_off_c, 0, 60, 54
1, 86799, Note_on_c, 0, 38, 31
1, 86802, Control_c, 0, 64, 64
1, 86817, Control_c, 0, 64, 61
1, 86832, Control_c, 0, 64, 58
1, 86835, Note_on_c, 0, 64, 26
1, 86839, Note_off_c, 0, 43, 38
1, 86846, Control_c, 0, 64, 56
1, 86855, Poly_aftertouch_c, 0, 52, 127
1, 86861, Control_c, 0, 64, 54
1, 86876, Control_c, 0, 64, 53
1, 86891, Control_c, 0, 64, 52
1, 86906, Control_c, 0, 64, 51
1, 86920, Control_c, 0, 64, 50
1, 86935, Control_c, 0, 64, 50
1, 86950, Control_c, 0, 64, 49
1, 86965, Control_c, 0, 64, 49
1, 86980, Control_c, 0, 64, 48
1, 86995, Control_c, 0, 64, 48
1, 87054, Control_c, 0, 64, 47
1, 87165, Control_c, 0, 64, 48
1, 87180, Control_c, 0, 64, 48
1, 87195, Control_c, 0, 64, 50
1, 87210, Control_c, 0, 64, 52
1, 87224, Control_c, 0, 64, 55
1, 87239, Control_c, 0, 64, 58
1, 87240, Note_on_c, 0, 60, 37
1, 87241, Note_on_c, 0, 43, 28
1, 87254, Control_c, 0, 64, 61
1, 87254, Note_off_c, 0, 62, 36
1, 87269, Control_c, 0, 64, 62
1, 87284, Control_c, 0, 64, 64
1, 87299, Control_c, 0, 64, 66
1, 87314, Control_c, 0, 64, 67
1, 87320, Note_off_c, 0, 38, 42
1, 87328, Control_c, 0, 64, 69
1, 87335, Note_off_c, 0, 64, 37
1, 87343, Control_c, 0, 64, 70
1, 87358, Control_c, 0, 64, 70
1, 87388, Control_c, 0, 64, 71
1, 87389, Note_off_c, 0, 31, 57
1, 87448, Poly_aftertouch_c, 0, 52, 0
1, 87496, Note_off_c, 0, 60, 35
1, 87530, Note_off_c, 0, 58, 39
1, 87699, Control_c, 0, 64, 70
1, 87714, Control_c, 0, 64, 69
1, 87729, Control_c, 0, 64, 67
1, 87734, Note_on_c, 0, 33, 50
1, 87743, Control_c, 0, 64, 62
1, 87758, Control_c, 0, 64, 57
1, 87762, Note_off_c, 0, 43, 52
1, 87773, Control_c, 0, 64, 53
1, 87788, Control_c, 0, 64, 51
1, 87803, Control_c, 0, 64, 49
1, 87818, Control_c, 0, 64, 47
1, 87833, Control_c, 0, 64, 46
1, 87855, Control_c, 0, 64, 44
1, 87869, Control_c, 0, 64, 44
1, 87884, Control_c, 0, 64, 43
1, 87937, Note_on_c, 0, 62, 48
1, 87951, Note_on_c, 0, 64, 39
1, 87952, Note_on_c, 0, 57, 26
1, 87954, Note_on_c, 0, 45, 34
1, 88008, Poly_aftertouch_c, 0, 52, 127
1, 88033, Control_c, 0, 64, 43
1, 88048, Control_c, 0, 64, 44
1, 88063, Control_c, 0, 64, 47
1, 88077, Control_c, 0, 64, 51
1, 88092, Control_c, 0, 64, 55
1, 88107, Control_c, 0, 64, 57
1, 88122, Control_c, 0, 64, 58
1, 88127, Note_on_c, 0, 40, 35
1, 88136, Note_on_c, 0, 61, 47
1, 88137, Control_c, 0, 64, 59
1, 88140, Note_off_c, 0, 45, 39
1, 88145, Note_off_c, 0, 62, 50
1, 88148, Note_off_c, 0, 64, 51
1, 88151, Control_c, 0, 64, 60
1, 88156, Poly_aftertouch_c, 0, 52, 0
1, 88166, Control_c, 0, 64, 61
1, 88181, Control_c, 0, 64, 61
1, 88196, Control_c, 0, 64, 62
1, 88196, Note_off_c, 0, 57, 41
1, 88285, Control_c, 0, 64, 61
1, 88300, Control_c, 0, 64, 59
1, 88309, Note_off_c, 0, 40, 43
1, 88313, Note_on_c, 0, 62, 36
1, 88314, Note_on_c, 0, 45, 31
1, 88315, Control_c, 0, 64, 56
1, 88327, Note_on_c, 0, 64, 25
1, 88329, Note_on_c, 0, 57, 37
1, 88330, Note_off_c, 0, 61, 31
1, 88330, Control_c, 0, 64, 52
1, 88345, Control_c, 0, 64, 50
1, 88360, Control_c, 0, 64, 50
1, 88366, Poly_aftertouch_c, 0, 52, 127
1, 88390, Control_c, 0, 64, 50
1, 88405, Control_c, 0, 64, 52
1, 88420, Control_c, 0, 64, 54
1, 88435, Control_c, 0, 64, 56
1, 88449, Control_c, 0, 64, 58
1, 88464, Control_c, 0, 64, 60
1, 88479, Control_c, 0, 64, 61
1, 88493, Control_c, 0, 64, 61
1, 88508, Control_c, 0, 64, 62
1, 88510, Note_on_c, 0, 61, 40
1, 88512, Note_on_c, 0, 40, 30
1, 88523, Control_c, 0, 64, 62
1, 88527, Note_off_c, 0, 45, 39
1, 88538, Control_c, 0, 64, 63
1, 88542, Note_off_c, 0, 64, 42
1, 88545, Poly_aftertouch_c, 0, 52, 0
1, 88553, Control_c, 0, 64, 63
1, 88555, Note_off_c, 0, 62, 34
1, 88583, Note_off_c, 0, 57, 40
1, 88649, Note_off_c, 0, 61, 33
1, 88679, Control_c, 0, 64, 63
1, 88693, Control_c, 0, 64, 61
1, 88708, Control_c, 0, 64, 59
1, 88709, Note_on_c, 0, 62, 39
1, 88712, Note_on_c, 0, 57, 18
1, 88715, Note_on_c, 0, 45, 29
1, 88721, Note_off_c, 0, 40, 42
1, 88722, Note_on_c, 0, 64, 23
1, 88723, Control_c, 0, 64, 57
1, 88738, Control_c, 0, 64, 55
1, 88745, Poly_aftertouch_c, 0, 52, 127
1, 88753, Control_c, 0, 64, 54
1, 88767, Control_c, 0, 64, 53
1, 88797, Control_c, 0, 64, 52
1, 88856, Control_c, 0, 64, 52
1, 88900, Control_c, 0, 64, 51
1, 88923, Note_on_c, 0, 61, 38
1, 88932, Note_on_c, 0, 40, 34
1, 88970, Note_off_c, 0, 45, 39
1, 88989, Control_c, 0, 64, 52
1, 89004, Control_c, 0, 64, 54
1, 89019, Control_c, 0, 64, 57
1, 89025, Note_off_c, 0, 62, 27
1, 89034, Control_c, 0, 64, 59
1, 89049, Control_c, 0, 64, 61
1, 89064, Control_c, 0, 64, 62
1, 89076, Note_off_c, 0, 64, 36
1, 89079, Control_c, 0, 64, 63
1, 89093, Control_c, 0, 64, 64
1, 89099, Poly_aftertouch_c, 0, 52, 0
1, 89108, Control_c, 0, 64, 65
1, 89113, Note_off_c, 0, 57, 38
1, 89123, Control_c, 0, 64, 65
1, 89138, Control_c, 0, 64, 66
1, 89153, Control_c, 0, 64, 66
1, 89183, Control_c, 0, 64, 67
1, 89213, Control_c, 0, 64, 67
1, 89374, Note_on_c, 0, 57, 24
1, 89380, Note_on_c, 0, 45, 33
1, 89383, Control_c, 0, 64, 67
1, 89386, Note_on_c, 0, 62, 34
1, 89393, Note_on_c, 0, 64, 37
1, 89398, Control_c, 0, 64, 66
1, 89412, Control_c, 0, 64, 64
1, 89415, Note_off_c, 0, 40, 41
1, 89422, Note_on_c, 0, 52, 3
1, 89427, Control_c, 0, 64, 61
1, 89442, Control_c, 0, 64, 57
1, 89456, Note_off_c, 0, 61, 39
1, 89457, Control_c, 0, 64, 54
1, 89472, Control_c, 0, 64, 52
1, 89487, Control_c, 0, 64, 51
1, 89502, Control_c, 0, 64, 51
1, 89531, Control_c, 0, 64, 50
1, 89797, Control_c, 0, 64, 50
1, 89908, Note_on_c, 0, 40, 24
1, 89909, Note_on_c, 0, 61, 35
1, 89915, Note_off_c, 0, 52, 25
1, 89932, Control_c, 0, 64, 50
1, 89946, Control_c, 0, 64, 51
1, 89961, Control_c, 0, 64, 53
1, 89976, Control_c, 0, 64, 56
1, 89987, Note_off_c, 0, 45, 40
1, 89991, Control_c, 0, 64, 60
1, 90006, Control_c, 0, 64, 63
1, 90021, Control_c, 0, 64, 65
1, 90026, Note_off_c, 0, 64, 38
1, 90035, Control_c, 0, 64, 67
1, 90050, Control_c, 0, 64, 69
1, 90065, Control_c, 0, 64, 71
1, 90080, Control_c, 0, 64, 73
1, 90082, Note_off_c, 0, 62, 40
1, 90102, Control_c, 0, 64, 75
1, 90116, Note_off_c, 0, 57, 37
1, 90117, Control_c, 0, 64, 76
1, 90132, Control_c, 0, 64, 78
1, 90146, Control_c, 0, 64, 79
1, 90161, Control_c, 0, 64, 81
1, 90176, Control_c, 0, 64, 82
1, 90176, Control_c, 0, 67, 123
1, 90191, Control_c, 0, 64, 83
1, 90191, Control_c, 0, 67, 109
1, 90206, Control_c, 0, 64, 84
1, 90206, Control_c, 0, 67, 92
1, 90220, Control_c, 0, 64, 86
1, 90220, Control_c, 0, 67, 80
1, 90235, Control_c, 0, 64, 87
1, 90235, Control_c, 0, 67, 70
1, 90250, Control_c, 0, 64, 87
1, 90250, Control_c, 0, 67, 61
1, 90265, Control_c, 0, 64, 88
1, 90265, Control_c, 0, 67, 53
1, 90279, Control_c, 0, 64, 89
1, 90279, Control_c, 0, 67, 45
1, 90294, Control_c, 0, 64, 89
1, 90294, Control_c, 0, 67, 0
1, 90309, Control_c, 0, 64, 90
1, 90317, Note_off_c, 0, 33, 41
1, 90324, Control_c, 0, 64, 90
1, 90353, Control_c, 0, 64, 91
1, 90383, Control_c, 0, 64, 91
1, 90412, Control_c, 0, 64, 92
1, 90516, Control_c, 0, 64, 92
1, 90590, Control_c, 0, 64, 92
1, 90605, Control_c, 0, 64, 81
1, 90608, Note_on_c, 0, 33, 52
1, 90620, Note_off_c, 0, 40, 40
1, 90620, Control_c, 0, 64, 67
1, 90635, Control_c, 0, 64, 53
1, 90649, Control_c, 0, 64, 44
1, 90664, Control_c, 0, 64, 44
1, 90679, Control_c, 0, 64, 51
1, 90694, Control_c, 0, 64, 61
1, 90709, Control_c, 0, 64, 69
1, 90724, Control_c, 0, 64, 75
1, 90739, Control_c, 0, 64, 80
1, 90754, Control_c, 0, 64, 84
1, 90766, Note_off_c, 0, 33, 57
1, 90769, Control_c, 0, 64, 88
1, 90784, Control_c, 0, 64, 93
1, 90799, Control_c, 0, 64, 98
1, 90813, Control_c, 0, 64, 104
1, 90828, Control_c, 0, 64, 109
1, 90850, Control_c, 0, 64, 117
1, 90865, Control_c, 0, 64, 127
1, 91183, Note_on_c, 0, 50, 30
1, 91186, Note_off_c, 0, 61, 35
1, 91210, Note_on_c, 0, 52, 8
1, 91272, Note_on_c, 0, 61, 66
1, 91538, Note_on_c, 0, 56, 44
1, 91549, Note_off_c, 0, 50, 43
1, 91561, Note_off_c, 0, 52, 38
1, 91568, Note_off_c, 0, 61, 62
1, 91651, Note_on_c, 0, 61, 73
1, 91830, Note_off_c, 0, 61, 62
1, 91848, Note_on_c, 0, 50, 35
1, 91853, Note_off_c, 0, 56, 37
1, 91862, Note_on_c, 0, 52, 23
1, 91916, Note_on_c, 0, 61, 76
1, 92047, Note_off_c, 0, 61, 61
1, 92048, Note_on_c, 0, 56, 54
1, 92053, Note_off_c, 0, 50, 40
1, 92060, Note_off_c, 0, 52, 39
1, 92122, Note_on_c, 0, 61, 76
1, 92164, Note_off_c, 0, 56, 56
1, 92194, Note_on_c, 0, 50, 35
1, 92223, Note_on_c, 0, 52, 18
1, 92243, Note_off_c, 0, 61, 63
1, 92330, Note_on_c, 0, 61, 76
1, 92355, Note_on_c, 0, 56, 40
1, 92371, Note_off_c, 0, 50, 32
1, 92382, Note_off_c, 0, 52, 32
1, 92544, Note_off_c, 0, 56, 40
1, 92570, Note_on_c, 0, 50, 18
1, 92588, Note_off_c, 0, 61, 60
1, 92602, Poly_aftertouch_c, 0, 52, 127
1, 92660, Note_on_c, 0, 61, 75
1, 92789, Note_on_c, 0, 56, 43
1, 92967, Poly_aftertouch_c, 0, 52, 0
1, 92982, Note_off_c, 0, 56, 34
1, 93003, Note_off_c, 0, 50, 43
1, 93055, Note_on_c, 0, 64, 38
1, 93062, Note_on_c, 0, 62, 41
1, 93123, Note_off_c, 0, 62, 56
1, 93132, Note_off_c, 0, 64, 58
1, 93541, Note_on_c, 0, 76, 34
1, 93544, Note_on_c, 0, 74, 37
1, 93565, Note_on_c, 0, 59, 71
1, 93601, Note_off_c, 0, 76, 56
1, 93605, Note_off_c, 0, 74, 57
1, 93634, Note_off_c, 0, 61, 61
1, 94281, Note_on_c, 0, 33, 55
1, 94292, Note_off_c, 0, 59, 63
1, 94365, Control_c, 0, 64, 100
1, 94378, Note_on_c, 0, 59, 75
1, 94379, Control_c, 0, 64, 79
1, 94394, Control_c, 0, 64, 58
1, 94409, Control_c, 0, 64, 0
1, 94452, Note_off_c, 0, 59, 63
1, 94465, Note_on_c, 0, 61, 74
1, 94528, Note_off_c, 0, 61, 63
1, 94545, Note_on_c, 0, 59, 81
1, 94604, Note_off_c, 0, 59, 63
1, 94640, Note_on_c, 0, 57, 68
1, 94758, Control_c, 0, 64, 34
1, 94773, Control_c, 0, 64, 51
1, 94788, Control_c, 0, 64, 61
1, 94803, Control_c, 0, 64, 64
1, 94814, Note_off_c, 0, 33, 61
1, 94817, Control_c, 0, 64, 66
1, 94832, Control_c, 0, 64, 69
1, 94847, Control_c, 0, 64, 73
1, 94861, Control_c, 0, 64, 76
1, 94876, Control_c, 0, 64, 80
1, 94891, Control_c, 0, 64, 84
1, 94906, Control_c, 0, 64, 88
1, 94921, Control_c, 0, 64, 93
1, 94936, Control_c, 0, 64, 97
1, 94951, Control_c, 0, 64, 103
1, 94966, Control_c, 0, 64, 111
1, 94980, Control_c, 0, 64, 127
1, 95054, Control_c, 0, 67, 43
1, 95069, Control_c, 0, 67, 64
1, 95084, Control_c, 0, 67, 88
1, 95099, Control_c, 0, 67, 110
1, 95114, Control_c, 0, 67, 127
1, 95127, Note_off_c, 0, 57, 55
1, 95160, Note_on_c, 0, 52, 29
1, 95186, Note_on_c, 0, 64, 26
1, 95196, Note_on_c, 0, 68, 9
1, 95321, Note_off_c, 0, 52, 29
1, 95360, Note_on_c, 0, 61, 40
1, 95360, Note_off_c, 0, 64, 44
1, 95364, Note_off_c, 0, 68, 34
1, 95370, Note_on_c, 0, 66, 45
1, 95380, Note_on_c, 0, 57, 24
1, 95467, Note_off_c, 0, 57, 34
1, 95528, Note_off_c, 0, 66, 35
1, 95553, Note_on_c, 0, 68, 42
1, 95560, Note_on_c, 0, 64, 45
1, 95566, Note_on_c, 0, 52, 30
1, 95574, Note_off_c, 0, 61, 40
1, 95610, Note_off_c, 0, 68, 53
1, 95626, Note_off_c, 0, 52, 41
1, 95737, Note_off_c, 0, 64, 34
1, 95747, Note_on_c, 0, 61, 32
1, 95752, Note_on_c, 0, 57, 33
1, 95753, Note_on_c, 0, 66, 40
1, 95815, Note_off_c, 0, 66, 46
1, 95975, Note_off_c, 0, 57, 15
1, 95976, Note_on_c, 0, 64, 38
1, 95985, Note_on_c, 0, 68, 41
1, 95997, Note_on_c, 0, 52, 27
1, 96041, Note_off_c, 0, 61, 38
1, 96167, Note_off_c, 0, 68, 33
1, 96402, Note_on_c, 0, 66, 42
1, 96420, Note_on_c, 0, 61, 34
1, 96421, Note_on_c, 0, 57, 32
1, 96459, Note_off_c, 0, 52, 34
1, 96496, Note_off_c, 0, 66, 51
1, 96500, Note_off_c, 0, 64, 45
1, 96868, Note_on_c, 0, 68, 33
1, 96877, Note_on_c, 0, 64, 33
1, 96894, Note_on_c, 0, 52, 23
1, 96925, Note_off_c, 0, 68, 57
1, 96995, Note_off_c, 0, 57, 38
1, 97033, Note_off_c, 0, 61, 37
1, 97048, Note_off_c, 0, 52, 32
1, 97109, Control_c, 0, 67, 117
1, 97124, Control_c, 0, 67, 105
1, 97138, Control_c, 0, 67, 92
1, 97153, Control_c, 0, 67, 77
1, 97168, Control_c, 0, 67, 63
1, 97182, Control_c, 0, 67, 53
1, 97197, Control_c, 0, 67, 43
1, 97212, Control_c, 0, 67, 0
1, 97454, Note_off_c, 0, 64, 44
1, 97493, Note_on_c, 0, 33, 58
1, 97494, Control_c, 0, 64, 105
1, 97509, Control_c, 0, 64, 82
1, 97523, Control_c, 0, 64, 67
1, 97538, Control_c, 0, 64, 55
1, 97553, Control_c, 0, 64, 55
1, 97568, Control_c, 0, 64, 58
1, 97589, Control_c, 0, 64, 65
1, 97604, Control_c, 0, 64, 75
1, 97619, Control_c, 0, 64, 88
1, 97634, Control_c, 0, 64, 97
1, 97648, Note_off_c, 0, 33, 62
1, 97649, Control_c, 0, 64, 103
1, 97664, Control_c, 0, 64, 109
1, 97678, Control_c, 0, 64, 120
1, 97693, Control_c, 0, 64, 127
1, 97883, Note_on_c, 0, 62, 39
1, 97894, Note_on_c, 0, 52, 29
1, 97895, Note_on_c, 0, 50, 14
1, 97938, Note_on_c, 0, 61, 67
1, 98168, Note_off_c, 0, 61, 60
1, 98218, Note_on_c, 0, 56, 44
1, 98272, Note_on_c, 0, 61, 75
1, 98283, Note_off_c, 0, 62, 39
1, 98287, Note_off_c, 0, 50, 43
1, 98288, Note_off_c, 0, 52, 42
1, 98451, Note_off_c, 0, 61, 62
1, 98462, Note_on_c, 0, 62, 39
1, 98471, Note_off_c, 0, 56, 49
1, 98485, Note_on_c, 0, 50, 31
1, 98504, Note_on_c, 0, 52, 11
1, 98540, Note_on_c, 0, 61, 73
1, 98671, Note_on_c, 0, 56, 52
1, 98671, Note_off_c, 0, 61, 64
1, 98701, Note_off_c, 0, 50, 43
1, 98712, Note_off_c, 0, 52, 39
1, 98714, Note_off_c, 0, 62, 40
1, 98734, Note_on_c, 0, 61, 78
1, 98784, Note_off_c, 0, 56, 55
1, 98838, Note_on_c, 0, 62, 35
1, 98848, Note_on_c, 0, 50, 13
1, 98865, Note_off_c, 0, 61, 63
1, 98871, Note_on_c, 0, 52, 6
1, 98927, Note_on_c, 0, 61, 78
1, 98966, Note_on_c, 0, 56, 42
1, 98991, Note_off_c, 0, 62, 43
1, 99032, Note_off_c, 0, 50, 35
1, 99038, Note_off_c, 0, 52, 39
1, 99150, Note_off_c, 0, 56, 37
1, 99158, Note_on_c, 0, 62, 31
1, 99160, Note_off_c, 0, 61, 62
1, 99189, Note_on_c, 0, 50, 16
1, 99223, Note_on_c, 0, 61, 77
1, 99237, Poly_aftertouch_c, 0, 52, 127
1, 99341, Note_on_c, 0, 56, 50
1, 99378, Note_off_c, 0, 62, 40
1, 99486, Poly_aftertouch_c, 0, 52, 0
1, 99486, Note_off_c, 0, 56, 45
1, 99511, Note_off_c, 0, 50, 34
1, 99575, Note_on_c, 0, 64, 37
1, 99582, Note_on_c, 0, 62, 37
1, 99613, Note_off_c, 0, 64, 51
1, 99613, Note_off_c, 0, 62, 52
1, 99953, Note_on_c, 0, 74, 54
1, 99955, Note_on_c, 0, 76, 50
1, 99983, Note_on_c, 0, 59, 80
1, 100004, Note_off_c, 0, 76, 59
1, 100009, Note_off_c, 0, 74, 49
1, 100051, Note_off_c, 0, 61, 59
1, 100484, Note_off_c, 0, 59, 62
1, 100492, Note_on_c, 0, 33, 56
1, 100547, Control_c, 0, 64, 91
1, 100562, Control_c, 0, 64, 74
1, 100567, Note_on_c, 0, 59, 79
1, 100585, Control_c, 0, 64, 62
1, 100599, Control_c, 0, 64, 50
1, 100614, Control_c, 0, 64, 43
1, 100629, Control_c, 0, 64, 43
1, 100644, Control_c, 0, 64, 45
1, 100659, Control_c, 0, 64, 49
1, 100673, Control_c, 0, 64, 53
1, 100688, Control_c, 0, 64, 56
1, 100703, Control_c, 0, 64, 57
1, 100733, Control_c, 0, 64, 56
1, 100747, Control_c, 0, 64, 55
1, 100762, Control_c, 0, 64, 54
1, 100777, Control_c, 0, 64, 53
1, 100789, Note_on_c, 0, 61, 79
1, 100792, Control_c, 0, 64, 51
1, 100793, Note_off_c, 0, 59, 62
1, 100806, Control_c, 0, 64, 47
1, 100821, Control_c, 0, 64, 40
1, 100836, Control_c, 0, 64, 30
1, 100851, Control_c, 0, 64, 0
1, 100867, Note_off_c, 0, 61, 62
1, 100889, Note_on_c, 0, 59, 83
1, 100959, Note_off_c, 0, 59, 64
1, 101006, Note_on_c, 0, 57, 75
1, 101118, Control_c, 0, 64, 30
1, 101133, Control_c, 0, 64, 56
1, 101148, Control_c, 0, 64, 65
1, 101163, Control_c, 0, 64, 70
1, 101164, Note_off_c, 0, 33, 63
1, 101178, Control_c, 0, 64, 75
1, 101193, Control_c, 0, 64, 80
1, 101208, Control_c, 0, 64, 85
1, 101222, Control_c, 0, 64, 91
1, 101237, Control_c, 0, 64, 95
1, 101252, Control_c, 0, 64, 97
1, 101282, Control_c, 0, 64, 100
1, 101311, Control_c, 0, 67, 44
1, 101333, Control_c, 0, 67, 66
1, 101348, Control_c, 0, 67, 90
1, 101363, Control_c, 0, 67, 109
1, 101370, Note_off_c, 0, 57, 55
1, 101378, Control_c, 0, 64, 102
1, 101378, Control_c, 0, 67, 123
1, 101393, Control_c, 0, 67, 127
1, 101402, Note_on_c, 0, 64, 45
1, 101418, Note_on_c, 0, 52, 29
1, 101425, Note_on_c, 0, 67, 35
1, 101572, Note_off_c, 0, 64, 37
1, 101576, Note_off_c, 0, 52, 20
1, 101616, Note_on_c, 0, 57, 36
1, 101620, Note_on_c, 0, 60, 39
1, 101626, Note_off_c, 0, 67, 43
1, 101630, Note_on_c, 0, 65, 41
1, 101774, Note_off_c, 0, 65, 36
1, 101797, Note_on_c, 0, 67, 41
1, 101802, Note_off_c, 0, 60, 37
1, 101809, Note_on_c, 0, 64, 42
1, 101812, Note_off_c, 0, 57, 37
1, 101816, Note_on_c, 0, 52, 26
1, 101896, Note_off_c, 0, 67, 38
1, 101914, Note_off_c, 0, 52, 33
1, 101950, Note_off_c, 0, 64, 37
1, 101978, Note_on_c, 0, 57, 39
1, 101979, Note_on_c, 0, 65, 39
1, 101984, Note_on_c, 0, 60, 41
1, 102129, Note_off_c, 0, 65, 32
1, 102206, Note_on_c, 0, 67, 35
1, 102207, Note_on_c, 0, 64, 39
1, 102226, Note_on_c, 0, 52, 20
1, 102254, Note_off_c, 0, 57, 38
1, 102257, Note_off_c, 0, 60, 38
1, 102324, Note_off_c, 0, 52, 37
1, 102338, Note_off_c, 0, 67, 34
1, 102615, Note_on_c, 0, 57, 37
1, 102617, Note_on_c, 0, 65, 39
1, 102621, Note_on_c, 0, 60, 42
1, 102673, Note_off_c, 0, 65, 59
1, 102696, Note_off_c, 0, 57, 56
1, 102712, Note_off_c, 0, 64, 45
1, 102742, Note_off_c, 0, 60, 49
1, 103083, Control_c, 0, 67, 125
1, 103127, Control_c, 0, 67, 123
1, 103154, Note_on_c, 0, 76, 43
1, 103157, Control_c, 0, 67, 121
1, 103178, Note_on_c, 0, 64, 27
1, 103180, Note_on_c, 0, 69, 27
1, 103187, Control_c, 0, 67, 119
1, 103211, Poly_aftertouch_c, 0, 72, 127
1, 103216, Control_c, 0, 67, 117
1, 103243, Note_off_c, 0, 64, 42
1, 103246, Control_c, 0, 67, 113
1, 103261, Control_c, 0, 67, 111
1, 103265, Note_off_c, 0, 69, 34
1, 103290, Control_c, 0, 67, 109
1, 103319, Control_c, 0, 67, 107
1, 103334, Control_c, 0, 67, 103
1, 103349, Control_c, 0, 67, 100
1, 103364, Control_c, 0, 67, 91
1, 103379, Control_c, 0, 67, 81
1, 103393, Control_c, 0, 67, 73
1, 103408, Control_c, 0, 67, 69
1, 103423, Poly_aftertouch_c, 0, 72, 0
1, 103423, Control_c, 0, 67, 66
1, 103438, Control_c, 0, 67, 62
1, 103453, Control_c, 0, 67, 56
1, 103467, Control_c, 0, 67, 49
1, 103472, Note_off_c, 0, 76, 30
1, 103482, Control_c, 0, 67, 41
1, 103498, Control_c, 0, 67, 0
1, 103788, Control_c, 0, 64, 98
1, 103794, Note_on_c, 0, 33, 79
1, 103803, Control_c, 0, 64, 80
1, 103817, Control_c, 0, 64, 63
1, 103832, Control_c, 0, 64, 43
1, 103847, Control_c, 0, 64, 37
1, 103862, Control_c, 0, 64, 44
1, 103877, Control_c, 0, 64, 64
1, 103891, Control_c, 0, 64, 78
1, 103906, Control_c, 0, 64, 104
1, 103908, Note_off_c, 0, 33, 62
1, 103921, Control_c, 0, 64, 127
1, 104132, Note_on_c, 0, 53, 33
1, 104136, Note_on_c, 0, 55, 39
1, 104150, Note_on_c, 0, 62, 45
1, 104208, Note_on_c, 0, 64, 85
1, 104450, Note_off_c, 0, 62, 47
1, 104571, Note_off_c, 0, 64, 57
1, 104579, Note_on_c, 0, 58, 55
1, 104622, Note_off_c, 0, 53, 54
1, 104652, Note_off_c, 0, 55, 36
1, 104682, Note_on_c, 0, 64, 77
1, 104874, Note_off_c, 0, 58, 53
1, 104884, Note_off_c, 0, 64, 60
1, 104892, Note_on_c, 0, 53, 31
1, 104907, Note_on_c, 0, 55, 25
1, 104912, Note_on_c, 0, 62, 35
1, 104985, Note_on_c, 0, 64, 79
1, 105137, Note_off_c, 0, 64, 64
1, 105140, Note_on_c, 0, 58, 55
1, 105156, Note_off_c, 0, 62, 40
1, 105170, Note_off_c, 0, 53, 36
1, 105177, Note_off_c, 0, 55, 40
1, 105201, Note_on_c, 0, 64, 81
1, 105246, Note_off_c, 0, 58, 59
1, 105294, Note_on_c, 0, 62, 35
1, 105304, Note_on_c, 0, 53, 37
1, 105306, Note_off_c, 0, 64, 66
1, 105311, Note_on_c, 0, 55, 39
1, 105380, Note_on_c, 0, 64, 89
1, 105459, Note_on_c, 0, 58, 46
1, 105462, Note_off_c, 0, 62, 34
1, 105476, Note_off_c, 0, 53, 37
1, 105491, Note_off_c, 0, 55, 32
1, 105568, Note_off_c, 0, 58, 56
1, 105599, Note_off_c, 0, 64, 62
1, 105632, Note_on_c, 0, 62, 26
1, 105640, Note_on_c, 0, 53, 24
1, 105652, Note_on_c, 0, 55, 26
1, 105691, Note_on_c, 0, 64, 85
1, 105822, Note_on_c, 0, 58, 54
1, 105848, Note_off_c, 0, 62, 43
1, 105858, Note_off_c, 0, 53, 35
1, 105868, Note_off_c, 0, 55, 43
1, 106013, Note_off_c, 0, 58, 57
1, 106031, Note_on_c, 0, 62, 56
1, 106041, Note_on_c, 0, 53, 50
1, 106052, Note_on_c, 0, 55, 41
1, 106098, Note_off_c, 0, 55, 60
1, 106110, Note_off_c, 0, 53, 61
1, 106150, Note_off_c, 0, 62, 61
1, 106386, Note_on_c, 0, 58, 46
1, 106445, Note_on_c, 0, 67, 47
1, 106450, Note_on_c, 0, 62, 86
1, 106487, Note_off_c, 0, 67, 64
1, 106498, Note_off_c, 0, 58, 61
1, 106532, Note_off_c, 0, 64, 59
1, 106965, Note_off_c, 0, 62, 61
1, 106970, Note_on_c, 0, 33, 62
1, 107035, Note_on_c, 0, 62, 82
1, 107049, Control_c, 0, 64, 94
1, 107064, Control_c, 0, 64, 73
1, 107079, Control_c, 0, 64, 60
1, 107093, Control_c, 0, 64, 52
1, 107108, Control_c, 0, 64, 53
1, 107123, Control_c, 0, 64, 57
1, 107138, Control_c, 0, 64, 63
1, 107153, Control_c, 0, 64, 67
1, 107167, Control_c, 0, 64, 70
1, 107182, Control_c, 0, 64, 72
1, 107197, Control_c, 0, 64, 73
1, 107220, Note_on_c, 0, 64, 83
1, 107227, Control_c, 0, 64, 72
1, 107232, Note_off_c, 0, 62, 61
1, 107241, Control_c, 0, 64, 69
1, 107256, Control_c, 0, 64, 64
1, 107271, Control_c, 0, 64, 57
1, 107286, Control_c, 0, 64, 50
1, 107301, Control_c, 0, 64, 44
1, 107315, Note_on_c, 0, 62, 83
1, 107315, Note_off_c, 0, 64, 65
1, 107323, Control_c, 0, 64, 37
1, 107338, Control_c, 0, 64, 30
1, 107353, Control_c, 0, 64, 0
1, 107395, Note_off_c, 0, 62, 59
1, 107411, Note_on_c, 0, 60, 80
1, 107577, Control_c, 0, 64, 51
1, 107591, Control_c, 0, 64, 64
1, 107604, Note_off_c, 0, 33, 63
1, 107606, Control_c, 0, 64, 68
1, 107621, Control_c, 0, 64, 74
1, 107636, Control_c, 0, 64, 78
1, 107651, Control_c, 0, 64, 83
1, 107665, Control_c, 0, 64, 87
1, 107680, Control_c, 0, 64, 90
1, 107695, Control_c, 0, 64, 91
1, 107709, Control_c, 0, 64, 92
1, 107724, Control_c, 0, 64, 92
1, 107739, Control_c, 0, 67, 62
1, 107754, Control_c, 0, 67, 86
1, 107769, Control_c, 0, 67, 103
1, 107784, Control_c, 0, 67, 113
1, 107799, Control_c, 0, 67, 119
1, 107811, Note_off_c, 0, 60, 48
1, 107814, Control_c, 0, 67, 122
1, 107830, Note_on_c, 0, 64, 53
1, 107849, Note_on_c, 0, 67, 36
1, 107854, Note_on_c, 0, 52, 16
1, 107888, Control_c, 0, 64, 93
1, 107912, Note_off_c, 0, 52, 43
1, 107917, Control_c, 0, 67, 120
1, 107991, Control_c, 0, 67, 118
1, 108003, Note_off_c, 0, 64, 34
1, 108024, Note_off_c, 0, 67, 40
1, 108031, Note_on_c, 0, 65, 34
1, 108037, Note_on_c, 0, 57, 32
1, 108043, Note_on_c, 0, 60, 34
1, 108100, Note_off_c, 0, 57, 42
1, 108183, Note_off_c, 0, 65, 22
1, 108203, Note_off_c, 0, 60, 22
1, 108216, Note_on_c, 0, 67, 33
1, 108219, Note_on_c, 0, 64, 45
1, 108239, Note_on_c, 0, 52, 13
1, 108293, Note_off_c, 0, 52, 45
1, 108332, Note_off_c, 0, 67, 31
1, 108373, Note_off_c, 0, 64, 36
1, 108413, Note_on_c, 0, 65, 34
1, 108417, Note_on_c, 0, 60, 37
1, 108424, Note_on_c, 0, 57, 35
1, 108495, Note_off_c, 0, 57, 37
1, 108503, Control_c, 0, 67, 120
1, 108519, Note_off_c, 0, 65, 34
1, 108532, Control_c, 0, 67, 122
1, 108586, Note_off_c, 0, 60, 23
1, 108607, Control_c, 0, 67, 124
1, 108623, Note_on_c, 0, 64, 44
1, 108633, Note_on_c, 0, 67, 34
1, 108643, Note_on_c, 0, 52, 21
1, 108666, Control_c, 0, 67, 126
1, 108761, Note_off_c, 0, 52, 26
1, 108788, Note_off_c, 0, 67, 39
1, 109013, Control_c, 0, 67, 124
1, 109039, Note_on_c, 0, 65, 42
1, 109045, Note_on_c, 0, 60, 40
1, 109056, Note_on_c, 0, 57, 23
1, 109081, Note_off_c, 0, 65, 62
1, 109096, Note_off_c, 0, 57, 51
1, 109096, Note_off_c, 0, 64, 59
1, 109104, Note_off_c, 0, 60, 58
1, 109133, Control_c, 0, 67, 122
1, 109384, Control_c, 0, 67, 120
1, 109444, Control_c, 0, 67, 117
1, 109474, Control_c, 0, 67, 115
1, 109492, Note_on_c, 0, 76, 47
1, 109503, Control_c, 0, 67, 113
1, 109511, Note_on_c, 0, 69, 35
1, 109513, Note_on_c, 0, 72, 33
1, 109515, Note_on_c, 0, 64, 34
1, 109533, Control_c, 0, 67, 110
1, 109569, Control_c, 0, 67, 108
1, 109599, Control_c, 0, 67, 106
1, 109603, Note_off_c, 0, 64, 49
1, 109644, Control_c, 0, 67, 103
1, 109676, Note_off_c, 0, 69, 29
1, 109708, Note_off_c, 0, 72, 28
1, 109749, Note_off_c, 0, 76, 43
1, 110059, Control_c, 0, 64, 92
1, 110074, Control_c, 0, 64, 92
1, 110089, Control_c, 0, 64, 84
1, 110100, Note_on_c, 0, 33, 57
1, 110103, Control_c, 0, 64, 72
1, 110118, Control_c, 0, 64, 61
1, 110133, Control_c, 0, 64, 48
1, 110148, Control_c, 0, 64, 42
1, 110163, Control_c, 0, 64, 44
1, 110177, Control_c, 0, 64, 52
1, 110192, Control_c, 0, 64, 62
1, 110207, Control_c, 0, 64, 67
1, 110222, Control_c, 0, 64, 73
1, 110237, Control_c, 0, 64, 79
1, 110252, Control_c, 0, 64, 83
1, 110267, Control_c, 0, 64, 87
1, 110267, Note_off_c, 0, 33, 59
1, 110282, Control_c, 0, 64, 91
1, 110297, Control_c, 0, 64, 96
1, 110318, Control_c, 0, 64, 99
1, 110333, Control_c, 0, 64, 103
1, 110348, Control_c, 0, 64, 105
1, 110363, Control_c, 0, 64, 107
1, 110541, Control_c, 0, 67, 101
1, 110553, Note_on_c, 0, 53, 29
1, 110556, Control_c, 0, 67, 99
1, 110559, Note_on_c, 0, 55, 32
1, 110571, Control_c, 0, 67, 97
1, 110573, Note_on_c, 0, 64, 25
1, 110585, Control_c, 0, 67, 95
1, 110600, Control_c, 0, 67, 94
1, 110615, Control_c, 0, 67, 93
1, 110624, Note_on_c, 0, 62, 55
1, 110630, Control_c, 0, 67, 92
1, 110645, Control_c, 0, 67, 90
1, 110659, Control_c, 0, 67, 89
1, 110674, Control_c, 0, 67, 86
1, 110690, Control_c, 0, 67, 79
1, 110705, Control_c, 0, 67, 69
1, 110720, Control_c, 0, 67, 59
1, 110734, Control_c, 0, 67, 53
1, 110749, Control_c, 0, 67, 49
1, 110764, Control_c, 0, 67, 46
1, 110779, Control_c, 0, 67, 45
1, 110794, Control_c, 0, 67, 44
1, 110808, Control_c, 0, 67, 43
1, 110823, Control_c, 0, 67, 41
1, 110838, Control_c, 0, 67, 41
1, 110853, Control_c, 0, 67, 39
1, 110868, Control_c, 0, 67, 38
1, 110882, Control_c, 0, 67, 0
1, 110911, Note_off_c, 0, 62, 52
1, 110995, Note_on_c, 0, 58, 38
1, 111064, Note_off_c, 0, 64, 39
1, 111075, Note_off_c, 0, 53, 40
1, 111090, Note_on_c, 0, 62, 54
1, 111094, Note_off_c, 0, 55, 38
1, 111274, Note_off_c, 0, 62, 55
1, 111343, Note_on_c, 0, 64, 15
1, 111349, Note_on_c, 0, 53, 8
1, 111353, Note_off_c, 0, 58, 27
1, 111391, Poly_aftertouch_c, 0, 55, 127
1, 111417, Note_on_c, 0, 62, 57
1, 111565, Note_off_c, 0, 62, 57
1, 111584, Note_on_c, 0, 58, 44
1, 111605, Note_off_c, 0, 64, 44
1, 111616, Control_c, 0, 67, 43
1, 111630, Control_c, 0, 67, 55
1, 111632, Note_off_c, 0, 53, 39
1, 111638, Note_on_c, 0, 62, 61
1, 111645, Control_c, 0, 67, 66
1, 111660, Control_c, 0, 67, 72
1, 111674, Control_c, 0, 67, 75
1, 111686, Poly_aftertouch_c, 0, 55, 0
1, 111689, Control_c, 0, 67, 78
1, 111704, Control_c, 0, 67, 85
1, 111707, Note_off_c, 0, 58, 52
1, 111719, Control_c, 0, 67, 94
1, 111734, Control_c, 0, 67, 100
1, 111748, Control_c, 0, 67, 104
1, 111760, Note_off_c, 0, 62, 59
1, 111778, Control_c, 0, 67, 106
1, 111781, Note_on_c, 0, 53, 32
1, 111805, Poly_aftertouch_c, 0, 55, 127
1, 111829, Poly_aftertouch_c, 0, 64, 127
1, 111848, Note_on_c, 0, 62, 60
1, 111875, Control_c, 0, 67, 108
1, 111919, Control_c, 0, 67, 110
1, 111930, Poly_aftertouch_c, 0, 64, 0
1, 111957, Note_on_c, 0, 58, 33
1, 111963, Control_c, 0, 67, 113
1, 111967, Note_off_c, 0, 53, 30
1, 111978, Control_c, 0, 67, 127
1, 112015, Poly_aftertouch_c, 0, 55, 0
1, 112070, Note_off_c, 0, 62, 56
1, 112099, Note_off_c, 0, 58, 36
1, 112121, Note_on_c, 0, 53, 26
1, 112151, Poly_aftertouch_c, 0, 64, 127
1, 112157, Poly_aftertouch_c, 0, 55, 127
1, 112183, Note_on_c, 0, 62, 61
1, 112310, Note_on_c, 0, 58, 42
1, 112332, Poly_aftertouch_c, 0, 64, 0
1, 112363, Note_off_c, 0, 53, 34
1, 112389, Poly_aftertouch_c, 0, 55, 0
1, 112518, Note_off_c, 0, 58, 30
1, 112583, Note_on_c, 0, 64, 31
1, 112602, Note_on_c, 0, 53, 31
1, 112602, Note_on_c, 0, 55, 10
1, 112655, Note_off_c, 0, 53, 58
1, 112663, Note_off_c, 0, 55, 46
1, 112669, Note_off_c, 0, 64, 54
1, 113066, Note_on_c, 0, 68, 36
1, 113067, Note_on_c, 0, 64, 27
1, 113099, Control_c, 0, 64, 102
1, 113114, Note_on_c, 0, 60, 64
1, 113114, Control_c, 0, 64, 97
1, 113128, Control_c, 0, 64, 91
1, 113143, Control_c, 0, 64, 87
1, 113158, Control_c, 0, 64, 83
1, 113173, Control_c, 0, 64, 82
1, 113188, Control_c, 0, 64, 81
1, 113233, Note_off_c, 0, 68, 56
1, 113286, Note_off_c, 0, 62, 59
1, 113313, Control_c, 0, 64, 82
1, 113320, Note_off_c, 0, 64, 40
1, 113403, Control_c, 0, 64, 82
1, 113684, Control_c, 0, 64, 82
1, 113847, Control_c, 0, 64, 81
1, 113893, Control_c, 0, 64, 81
1, 113922, Control_c, 0, 64, 80
1, 113937, Control_c, 0, 64, 80
1, 113951, Control_c, 0, 64, 79
1, 113966, Control_c, 0, 64, 79
1, 113981, Control_c, 0, 64, 78
1, 113996, Control_c, 0, 64, 77
1, 114008, Note_on_c, 0, 33, 36
1, 114011, Control_c, 0, 64, 76
1, 114026, Control_c, 0, 64, 75
1, 114041, Control_c, 0, 64, 74
1, 114063, Control_c, 0, 64, 72
1, 114077, Control_c, 0, 64, 68
1, 114086, Note_off_c, 0, 60, 63
1, 114092, Control_c, 0, 64, 64
1, 114097, Note_on_c, 0, 58, 74
1, 114107, Control_c, 0, 64, 58
1, 114122, Control_c, 0, 64, 50
1, 114137, Control_c, 0, 64, 35
1, 114151, Control_c, 0, 64, 0
1, 114160, Note_off_c, 0, 58, 62
1, 114175, Note_on_c, 0, 60, 60
1, 114216, Note_off_c, 0, 60, 61
1, 114242, Note_on_c, 0, 58, 69
1, 114293, Note_off_c, 0, 58, 60
1, 114333, Note_on_c, 0, 57, 62
1, 114492, Control_c, 0, 64, 29
1, 114507, Control_c, 0, 64, 47
1, 114522, Control_c, 0, 64, 58
1, 114537, Control_c, 0, 64, 62
1, 114544, Note_off_c, 0, 33, 55
1, 114551, Control_c, 0, 64, 65
1, 114566, Control_c, 0, 64, 67
1, 114581, Control_c, 0, 64, 70
1, 114596, Control_c, 0, 64, 74
1, 114611, Control_c, 0, 64, 77
1, 114625, Control_c, 0, 64, 80
1, 114640, Control_c, 0, 64, 83
1, 114655, Control_c, 0, 64, 85
1, 114671, Control_c, 0, 64, 87
1, 114686, Control_c, 0, 64, 89
1, 114700, Control_c, 0, 64, 91
1, 114715, Control_c, 0, 64, 92
1, 114730, Control_c, 0, 64, 92
1, 114745, Control_c, 0, 64, 93
1, 114816, Note_off_c, 0, 57, 57
1, 114847, Note_on_c, 0, 68, 33
1, 114849, Note_on_c, 0, 64, 35
1, 114855, Note_on_c, 0, 52, 14
1, 114983, Note_off_c, 0, 52, 24
1, 115019, Note_off_c, 0, 68, 36
1, 115031, Note_on_c, 0, 66, 45
1, 115037, Note_off_c, 0, 64, 44
1, 115045, Note_on_c, 0, 61, 33
1, 115056, Note_on_c, 0, 57, 22
1, 115117, Note_off_c, 0, 57, 41
1, 115200, Note_off_c, 0, 66, 43
1, 115208, Note_off_c, 0, 61, 20
1, 115228, Note_on_c, 0, 68, 33
1, 115239, Note_on_c, 0, 52, 12
1, 115244, Note_on_c, 0, 64, 18
1, 115324, Note_off_c, 0, 52, 33
1, 115389, Note_off_c, 0, 68, 22
1, 115391, Note_off_c, 0, 64, 40
1, 115407, Note_on_c, 0, 66, 40
1, 115417, Note_on_c, 0, 61, 31
1, 115429, Note_on_c, 0, 57, 29
1, 115513, Note_off_c, 0, 57, 32
1, 115629, Note_off_c, 0, 66, 38
1, 115648, Note_on_c, 0, 68, 36
1, 115650, Note_on_c, 0, 52, 28
1, 115650, Note_on_c, 0, 64, 36
1, 115673, Note_off_c, 0, 61, 36
1, 115753, Note_off_c, 0, 52, 37
1, 115794, Note_off_c, 0, 68, 35
1, 116063, Note_on_c, 0, 66, 38
1, 116064, Note_on_c, 0, 57, 25
1, 116065, Note_on_c, 0, 61, 38
1, 116106, Note_off_c, 0, 57, 51
1, 116126, Note_off_c, 0, 66, 55
1, 116132, Note_off_c, 0, 61, 57
1, 116137, Control_c, 0, 64, 93
1, 116141, Note_off_c, 0, 64, 44
1, 116152, Control_c, 0, 64, 94
1, 116167, Control_c, 0, 64, 94
1, 116182, Control_c, 0, 64, 95
1, 116211, Control_c, 0, 64, 98
1, 116241, Control_c, 0, 64, 100
1, 116286, Control_c, 0, 64, 103
1, 116353, Control_c, 0, 67, 119
1, 116368, Control_c, 0, 64, 105
1, 116368, Control_c, 0, 67, 112
1, 116383, Control_c, 0, 67, 108
1, 116413, Control_c, 0, 67, 106
1, 116457, Control_c, 0, 67, 104
1, 116486, Control_c, 0, 67, 102
1, 116545, Control_c, 0, 67, 100
1, 116566, Note_on_c, 0, 73, 38
1, 116567, Note_on_c, 0, 76, 41
1, 116574, Note_on_c, 0, 69, 33
1, 116577, Note_on_c, 0, 64, 24
1, 116590, Control_c, 0, 67, 98
1, 116605, Control_c, 0, 67, 86
1, 116619, Control_c, 0, 67, 61
1, 116634, Control_c, 0, 67, 39
1, 116649, Control_c, 0, 67, 0
1, 116790, Note_off_c, 0, 64, 42
1, 116827, Note_off_c, 0, 69, 42
1, 116846, Note_off_c, 0, 73, 36
1, 116851, Note_off_c, 0, 76, 58
1, 117004, Control_c, 0, 64, 107
1, 117102, Control_c, 0, 64, 104
1, 117117, Control_c, 0, 64, 86
1, 117126, Note_on_c, 0, 33, 81
1, 117132, Control_c, 0, 64, 67
1, 117147, Control_c, 0, 64, 47
1, 117162, Control_c, 0, 64, 43
1, 117176, Control_c, 0, 64, 48
1, 117191, Control_c, 0, 64, 62
1, 117206, Control_c, 0, 64, 77
1, 117221, Control_c, 0, 64, 110
1, 117221, Note_off_c, 0, 33, 63
1, 117236, Control_c, 0, 64, 127
1, 117501, Note_on_c, 0, 70, 62
1, 117516, Note_on_c, 0, 62, 48
1, 117530, Note_on_c, 0, 58, 41
1, 117581, Note_on_c, 0, 69, 83
1, 117643, Note_off_c, 0, 70, 52
1, 117856, Note_off_c, 0, 69, 62
1, 117869, Note_on_c, 0, 64, 59
1, 117889, Note_off_c, 0, 62, 56
1, 117920, Note_on_c, 0, 69, 86
1, 117925, Note_off_c, 0, 58, 33
1, 118086, Note_off_c, 0, 64, 60
1, 118100, Note_off_c, 0, 69, 61
1, 118114, Note_on_c, 0, 62, 41
1, 118124, Note_on_c, 0, 58, 47
1, 118125, Note_on_c, 0, 70, 40
1, 118181, Note_on_c, 0, 69, 92
1, 118268, Note_off_c, 0, 70, 33
1, 118315, Note_off_c, 0, 69, 64
1, 118325, Note_on_c, 0, 64, 53
1, 118334, Note_off_c, 0, 62, 46
1, 118351, Note_off_c, 0, 58, 30
1, 118374, Note_on_c, 0, 69, 91
1, 118455, Note_off_c, 0, 64, 61
1, 118485, Note_on_c, 0, 58, 50
1, 118494, Note_on_c, 0, 70, 49
1, 118497, Note_on_c, 0, 62, 39
1, 118497, Note_off_c, 0, 69, 64
1, 118565, Note_on_c, 0, 69, 93
1, 118591, Note_off_c, 0, 70, 39
1, 118613, Note_off_c, 0, 58, 53
1, 118663, Note_on_c, 0, 64, 40
1, 118674, Note_off_c, 0, 62, 37
1, 118776, Note_off_c, 0, 64, 62
1, 118779, Note_off_c, 0, 69, 61
1, 118804, Note_on_c, 0, 70, 53
1, 118804, Note_on_c, 0, 58, 52
1, 118830, Note_on_c, 0, 62, 27
1, 118854, Note_on_c, 0, 69, 94
1, 118900, Note_off_c, 0, 70, 39
1, 118959, Note_off_c, 0, 58, 37
1, 119001, Note_on_c, 0, 64, 55
1, 119011, Note_off_c, 0, 62, 41
1, 119149, Note_off_c, 0, 64, 58
1, 119212, Note_on_c, 0, 70, 53
1, 119219, Note_on_c, 0, 58, 45
1, 119246, Poly_aftertouch_c, 0, 62, 127
1, 119277, Note_off_c, 0, 58, 61
1, 119301, Poly_aftertouch_c, 0, 62, 0
1, 119341, Note_off_c, 0, 70, 63
1, 119636, Note_on_c, 0, 76, 56
1, 119642, Note_on_c, 0, 74, 58
1, 119648, Note_on_c, 0, 70, 51
1, 119669, Note_on_c, 0, 67, 86
1, 119687, Note_off_c, 0, 76, 59
1, 119698, Note_off_c, 0, 74, 54
1, 119727, Note_off_c, 0, 70, 52
1, 119749, Note_off_c, 0, 69, 56
1, 120240, Note_on_c, 0, 33, 59
1, 120276, Control_c, 0, 64, 95
1, 120291, Control_c, 0, 64, 72
1, 120293, Note_on_c, 0, 65, 81
1, 120306, Control_c, 0, 64, 54
1, 120320, Control_c, 0, 64, 42
1, 120330, Note_off_c, 0, 67, 59
1, 120335, Control_c, 0, 64, 40
1, 120350, Control_c, 0, 64, 45
1, 120365, Control_c, 0, 64, 54
1, 120380, Control_c, 0, 64, 60
1, 120394, Control_c, 0, 64, 63
1, 120409, Control_c, 0, 64, 64
1, 120461, Note_on_c, 0, 67, 78
1, 120466, Note_off_c, 0, 65, 61
1, 120468, Control_c, 0, 64, 64
1, 120483, Control_c, 0, 64, 63
1, 120551, Note_off_c, 0, 67, 61
1, 120557, Control_c, 0, 64, 63
1, 120558, Note_on_c, 0, 65, 83
1, 120572, Control_c, 0, 64, 61
1, 120587, Control_c, 0, 64, 58
1, 120602, Control_c, 0, 64, 53
1, 120617, Control_c, 0, 64, 43
1, 120619, Note_off_c, 0, 65, 62
1, 120631, Control_c, 0, 64, 0
1, 120667, Note_on_c, 0, 64, 79
1, 120750, Control_c, 0, 64, 46
1, 120765, Control_c, 0, 64, 64
1, 120777, Note_off_c, 0, 33, 62
1, 120780, Control_c, 0, 64, 72
1, 120801, Control_c, 0, 64, 81
1, 120816, Control_c, 0, 64, 90
1, 120819, Note_off_c, 0, 64, 65
1, 120831, Control_c, 0, 64, 97
1, 120846, Control_c, 0, 64, 105
1, 120861, Control_c, 0, 64, 114
1, 120876, Control_c, 0, 64, 127
1, 120935, Control_c, 0, 67, 38
1, 120950, Control_c, 0, 67, 65
1, 120965, Control_c, 0, 67, 98
1, 120980, Control_c, 0, 67, 120
1, 120994, Control_c, 0, 67, 127
1, 121013, Note_on_c, 0, 72, 58
1, 121042, Note_on_c, 0, 57, 47
1, 121093, Poly_aftertouch_c, 0, 60, 127
1, 121096, Note_off_c, 0, 57, 58
1, 121133, Poly_aftertouch_c, 0, 60, 0
1, 121169, Note_off_c, 0, 72, 46
1, 121217, Note_on_c, 0, 64, 35
1, 121231, Note_on_c, 0, 69, 35
1, 121243, Note_on_c, 0, 65, 29
1, 121278, Note_off_c, 0, 64, 42
1, 121380, Note_off_c, 0, 69, 39
1, 121389, Note_on_c, 0, 72, 48
1, 121415, Note_off_c, 0, 65, 37
1, 121418, Note_on_c, 0, 57, 29
1, 121436, Note_on_c, 0, 60, 3
1, 121481, Note_off_c, 0, 60, 46
1, 121562, Note_off_c, 0, 72, 38
1, 121582, Note_on_c, 0, 64, 39
1, 121588, Note_on_c, 0, 69, 50
1, 121621, Note_on_c, 0, 65, 21
1, 121635, Note_off_c, 0, 64, 53
1, 121806, Note_on_c, 0, 72, 44
1, 121830, Note_on_c, 0, 60, 19
1, 121840, Note_off_c, 0, 69, 33
1, 121877, Note_off_c, 0, 65, 35
1, 121892, Poly_aftertouch_c, 0, 67, 0
1, 121958, Note_off_c, 0, 60, 37
1, 122204, Note_on_c, 0, 69, 43
1, 122208, Note_on_c, 0, 65, 33
1, 122208, Note_on_c, 0, 64, 39
1, 122271, Note_off_c, 0, 65, 55
1, 122312, Note_off_c, 0, 57, 40
1, 122319, Note_off_c, 0, 64, 58
1, 122319, Note_off_c, 0, 72, 52
1, 122329, Control_c, 0, 67, 122
1, 122330, Note_off_c, 0, 69, 59
1, 122344, Control_c, 0, 67, 114
1, 122359, Control_c, 0, 67, 107
1, 122373, Control_c, 0, 67, 101
1, 122388, Control_c, 0, 67, 96
1, 122403, Control_c, 0, 67, 92
1, 122417, Control_c, 0, 67, 88
1, 122432, Control_c, 0, 67, 84
1, 122447, Control_c, 0, 67, 79
1, 122462, Control_c, 0, 67, 71
1, 122477, Control_c, 0, 67, 64
1, 122491, Control_c, 0, 67, 57
1, 122506, Control_c, 0, 67, 51
1, 122521, Control_c, 0, 67, 46
1, 122536, Control_c, 0, 67, 41
1, 122551, Control_c, 0, 67, 0
1, 122677, Note_on_c, 0, 76, 49
1, 122699, Note_on_c, 0, 72, 39
1, 122701, Note_on_c, 0, 67, 29
1, 122712, Note_on_c, 0, 71, 32
1, 122791, Note_off_c, 0, 67, 37
1, 122897, Note_off_c, 0, 71, 39
1, 122912, Note_off_c, 0, 72, 35
1, 122980, Note_off_c, 0, 76, 37
1, 123240, Control_c, 0, 64, 104
1, 123242, Note_on_c, 0, 33, 61
1, 123255, Control_c, 0, 64, 78
1, 123270, Control_c, 0, 64, 61
1, 123284, Control_c, 0, 64, 54
1, 123299, Control_c, 0, 64, 55
1, 123314, Control_c, 0, 64, 60
1, 123329, Control_c, 0, 64, 69
1, 123344, Control_c, 0, 64, 81
1, 123358, Control_c, 0, 64, 98
1, 123373, Control_c, 0, 64, 113
1, 123378, Note_off_c, 0, 33, 62
1, 123388, Control_c, 0, 64, 127
1, 123657, Note_on_c, 0, 62, 22
1, 123666, Note_on_c, 0, 69, 42
1, 123671, Note_on_c, 0, 58, 48
1, 123706, Note_on_c, 0, 67, 68
1, 123785, Note_off_c, 0, 69, 53
1, 123930, Note_off_c, 0, 67, 59
1, 123997, Note_off_c, 0, 62, 42
1, 124011, Note_on_c, 0, 64, 36
1, 124056, Note_on_c, 0, 67, 72
1, 124062, Note_off_c, 0, 58, 33
1, 124190, Note_off_c, 0, 64, 59
1, 124217, Note_off_c, 0, 67, 59
1, 124259, Note_on_c, 0, 62, 25
1, 124262, Note_on_c, 0, 65, 34
1, 124287, Note_on_c, 0, 58, 8
1, 124308, Note_off_c, 0, 65, 47
1, 124318, Note_on_c, 0, 67, 78
1, 124411, Note_off_c, 0, 62, 42
1, 124419, Note_off_c, 0, 67, 60
1, 124440, Note_on_c, 0, 64, 46
1, 124441, Note_off_c, 0, 58, 36
1, 124498, Note_on_c, 0, 67, 77
1, 124502, Note_off_c, 0, 64, 54
1, 124575, Note_on_c, 0, 58, 44
1, 124609, Note_off_c, 0, 67, 60
1, 124629, Note_on_c, 0, 69, 3
1, 124656, Note_on_c, 0, 62, 11
1, 124671, Note_off_c, 0, 69, 49
1, 124694, Note_on_c, 0, 67, 74
1, 124720, Note_off_c, 0, 62, 43
1, 124721, Note_off_c, 0, 58, 35
1, 124784, Note_on_c, 0, 64, 18
1, 124918, Note_off_c, 0, 67, 55
1, 124925, Note_off_c, 0, 64, 38
1, 124965, Note_on_c, 0, 65, 20
1, 125004, Poly_aftertouch_c, 0, 62, 127
1, 125019, Note_off_c, 0, 65, 44
1, 125024, Poly_aftertouch_c, 0, 58, 127
1, 125027, Note_on_c, 0, 67, 63
1, 125139, Poly_aftertouch_c, 0, 58, 0
1, 125153, Note_on_c, 0, 64, 40
1, 125158, Poly_aftertouch_c, 0, 62, 0
1, 125291, Note_off_c, 0, 64, 47
1, 125439, Note_on_c, 0, 58, 25
1, 125457, Note_on_c, 0, 62, 17
1, 125462, Note_on_c, 0, 69, 31
1, 125530, Note_off_c, 0, 58, 37
1, 125542, Note_off_c, 0, 62, 39
1, 125577, Note_off_c, 0, 69, 46
1, 126012, Note_on_c, 0, 70, 24
1, 126019, Note_on_c, 0, 76, 27
1, 126039, Note_on_c, 0, 74, 27
1, 126090, Note_on_c, 0, 65, 61
1, 126092, Note_off_c, 0, 74, 44
1, 126098, Note_off_c, 0, 76, 43
1, 126113, Note_off_c, 0, 70, 46
1, 126230, Note_off_c, 0, 67, 48
1, 126620, Control_c, 0, 67, 49
1, 126635, Control_c, 0, 67, 62
1, 126650, Control_c, 0, 67, 77
1, 126665, Control_c, 0, 67, 88
1, 126680, Control_c, 0, 67, 98
1, 126695, Control_c, 0, 67, 102
1, 126862, Note_on_c, 0, 33, 38
1, 126894, Note_off_c, 0, 65, 59
1, 126924, Control_c, 0, 64, 117
1, 126927, Note_on_c, 0, 62, 57
1, 126939, Control_c, 0, 64, 105
1, 126954, Control_c, 0, 64, 97
1, 126969, Control_c, 0, 64, 87
1, 126984, Control_c, 0, 64, 77
1, 126999, Control_c, 0, 64, 67
1, 127012, Note_off_c, 0, 62, 59
1, 127014, Control_c, 0, 64, 58
1, 127018, Note_on_c, 0, 64, 59
1, 127028, Control_c, 0, 64, 47
1, 127043, Control_c, 0, 64, 31
1, 127058, Control_c, 0, 64, 0
1, 127060, Note_off_c, 0, 64, 64
1, 127099, Note_on_c, 0, 62, 56
1, 127166, Note_off_c, 0, 62, 62
1, 127199, Note_on_c, 0, 61, 52
1, 127266, Control_c, 0, 67, 100
1, 127325, Control_c, 0, 64, 31
1, 127325, Control_c, 0, 67, 98
1, 127339, Control_c, 0, 64, 52
1, 127354, Control_c, 0, 64, 62
1, 127369, Control_c, 0, 64, 66
1, 127369, Control_c, 0, 67, 96
1, 127384, Control_c, 0, 64, 70
1, 127384, Control_c, 0, 67, 95
1, 127398, Note_off_c, 0, 33, 62
1, 127399, Control_c, 0, 64, 74
1, 127413, Control_c, 0, 64, 80
1, 127428, Control_c, 0, 64, 86
1, 127443, Control_c, 0, 64, 93
1, 127443, Control_c, 0, 67, 96
1, 127459, Control_c, 0, 64, 99
1, 127474, Control_c, 0, 64, 105
1, 127474, Control_c, 0, 67, 100
1, 127489, Control_c, 0, 64, 112
1, 127489, Control_c, 0, 67, 103
1, 127503, Control_c, 0, 64, 127
1, 127503, Control_c, 0, 67, 105
1, 127518, Control_c, 0, 67, 108
1, 127541, Control_c, 0, 67, 111
1, 127556, Control_c, 0, 67, 127
1, 127733, Note_on_c, 0, 65, 28
1, 127735, Note_on_c, 0, 67, 10
1, 127738, Note_off_c, 0, 61, 35
1, 127743, Note_on_c, 0, 69, 10
1, 127780, Poly_aftertouch_c, 0, 57, 127
1, 127840, Poly_aftertouch_c, 0, 57, 0
1, 127901, Note_off_c, 0, 69, 33
1, 127902, Note_on_c, 0, 64, 33
1, 127903, Note_on_c, 0, 61, 37
1, 127933, Note_off_c, 0, 67, 38
1, 127939, Note_off_c, 0, 65, 34
1, 128083, Note_on_c, 0, 65, 39
1, 128093, Note_off_c, 0, 64, 35
1, 128093, Note_on_c, 0, 67, 27
1, 128105, Note_on_c, 0, 69, 35
1, 128114, Note_off_c, 0, 61, 23
1, 128125, Note_on_c, 0, 57, 7
1, 128178, Note_off_c, 0, 57, 47
1, 128268, Note_on_c, 0, 64, 40
1, 128268, Note_off_c, 0, 69, 25
1, 128269, Note_on_c, 0, 61, 38
1, 128314, Note_off_c, 0, 65, 26
1, 128339, Note_off_c, 0, 67, 23
1, 128370, Note_off_c, 0, 61, 46
1, 128480, Note_off_c, 0, 64, 27
1, 128491, Note_on_c, 0, 67, 37
1, 128501, Note_on_c, 0, 69, 36
1, 128513, Note_on_c, 0, 65, 27
1, 128525, Note_on_c, 0, 57, 29
1, 128883, Note_off_c, 0, 65, 40
1, 128935, Note_on_c, 0, 61, 36
1, 128942, Note_on_c, 0, 64, 35
1, 128996, Note_off_c, 0, 57, 40
1, 129031, Note_off_c, 0, 61, 57
1, 129052, Note_off_c, 0, 64, 49
1, 129058, Note_off_c, 0, 69, 61
1, 129081, Note_off_c, 0, 67, 35
1, 129404, Note_on_c, 0, 73, 46
1, 129419, Note_on_c, 0, 76, 41
1, 129422, Note_on_c, 0, 69, 33
1, 129447, Note_on_c, 0, 64, 14
1, 129469, Control_c, 0, 67, 121
1, 129483, Control_c, 0, 67, 112
1, 129498, Control_c, 0, 67, 100
1, 129513, Control_c, 0, 67, 86
1, 129527, Control_c, 0, 67, 72
1, 129539, Note_off_c, 0, 64, 40
1, 129542, Control_c, 0, 67, 66
1, 129557, Control_c, 0, 67, 62
1, 129572, Control_c, 0, 67, 57
1, 129587, Control_c, 0, 67, 52
1, 129601, Control_c, 0, 67, 45
1, 129616, Control_c, 0, 67, 0
1, 129642, Note_off_c, 0, 69, 40
1, 129650, Note_off_c, 0, 76, 48
1, 129683, Note_off_c, 0, 73, 37
1, 130024, Note_on_c, 0, 33, 51
1, 130039, Control_c, 0, 64, 89
1, 130054, Control_c, 0, 64, 72
1, 130069, Control_c, 0, 64, 62
1, 130084, Control_c, 0, 64, 58
1, 130099, Control_c, 0, 64, 58
1, 130114, Control_c, 0, 64, 62
1, 130129, Control_c, 0, 64, 66
1, 130143, Control_c, 0, 64, 71
1, 130158, Control_c, 0, 64, 77
1, 130173, Control_c, 0, 64, 82
1, 130188, Control_c, 0, 64, 87
1, 130203, Control_c, 0, 64, 94
1, 130212, Note_off_c, 0, 33, 61
1, 130218, Control_c, 0, 64, 102
1, 130232, Control_c, 0, 64, 117
1, 130247, Control_c, 0, 64, 127
1, 130597, Note_on_c, 0, 66, 19
1, 130611, Note_on_c, 0, 52, 29
1, 130625, Note_on_c, 0, 62, 60
1, 130779, Note_off_c, 0, 66, 34
1, 130953, Note_off_c, 0, 62, 58
1, 131012, Note_on_c, 0, 56, 42
1, 131021, Note_off_c, 0, 52, 34
1, 131068, Note_on_c, 0, 62, 71
1, 131255, Note_off_c, 0, 56, 36
1, 131289, Note_off_c, 0, 62, 59
1, 131300, Note_on_c, 0, 52, 33
1, 131312, Note_on_c, 0, 66, 30
1, 131388, Note_on_c, 0, 62, 73
1, 131452, Note_off_c, 0, 66, 40
1, 131506, Note_off_c, 0, 62, 62
1, 131517, Note_off_c, 0, 52, 36
1, 131539, Note_on_c, 0, 56, 40
1, 131585, Note_on_c, 0, 62, 67
1, 131677, Note_off_c, 0, 56, 37
1, 131698, Note_off_c, 0, 62, 59
1, 131713, Note_on_c, 0, 52, 36
1, 131720, Note_on_c, 0, 66, 15
1, 131780, Note_off_c, 0, 66, 43
1, 131792, Note_on_c, 0, 62, 64
1, 131794, Note_off_c, 0, 52, 51
1, 131837, Note_on_c, 0, 56, 31
1, 132036, Note_off_c, 0, 62, 56
1, 132080, Note_off_c, 0, 56, 40
1, 132091, Note_on_c, 0, 52, 35
1, 132101, Note_on_c, 0, 66, 5
1, 132176, Note_on_c, 0, 62, 55
1, 132210, Note_off_c, 0, 66, 32
1, 132262, Note_off_c, 0, 52, 35
1, 132295, Note_on_c, 0, 56, 41
1, 132360, Control_c, 0, 67, 39
1, 132375, Control_c, 0, 67, 49
1, 132390, Control_c, 0, 67, 53
1, 132405, Control_c, 0, 67, 54
1, 132419, Control_c, 0, 67, 53
1, 132434, Control_c, 0, 67, 52
1, 132449, Control_c, 0, 67, 51
1, 132464, Control_c, 0, 67, 49
1, 132479, Control_c, 0, 67, 48
1, 132493, Control_c, 0, 67, 47
1, 132503, Note_off_c, 0, 56, 36
1, 132508, Control_c, 0, 67, 47
1, 132523, Control_c, 0, 67, 45
1, 132538, Control_c, 0, 67, 44
1, 132552, Control_c, 0, 67, 43
1, 132555, Note_on_c, 0, 52, 26
1, 132567, Control_c, 0, 67, 42
1, 132573, Note_on_c, 0, 66, 43
1, 132582, Control_c, 0, 67, 41
1, 132597, Control_c, 0, 67, 40
1, 132612, Control_c, 0, 67, 39
1, 132627, Control_c, 0, 67, 39
1, 132627, Note_off_c, 0, 52, 41
1, 132656, Control_c, 0, 67, 38
1, 132671, Control_c, 0, 67, 37
1, 132701, Control_c, 0, 67, 0
1, 132752, Note_off_c, 0, 66, 42
1, 133113, Note_on_c, 0, 76, 24
1, 133114, Note_on_c, 0, 74, 30
1, 133132, Poly_aftertouch_c, 0, 64, 127
1, 133135, Note_on_c, 0, 68, 24
1, 133141, Note_on_c, 0, 61, 62
1, 133178, Note_off_c, 0, 76, 43
1, 133182, Note_off_c, 0, 74, 41
1, 133199, Control_c, 0, 67, 37
1, 133214, Note_off_c, 0, 68, 38
1, 133229, Control_c, 0, 67, 38
1, 133243, Poly_aftertouch_c, 0, 64, 0
1, 133258, Control_c, 0, 67, 39
1, 133259, Note_off_c, 0, 62, 55
1, 133332, Control_c, 0, 67, 39
1, 133465, Control_c, 0, 67, 39
1, 133547, Control_c, 0, 67, 39
1, 133562, Control_c, 0, 67, 41
1, 133576, Control_c, 0, 67, 42
1, 133591, Control_c, 0, 67, 43
1, 133606, Control_c, 0, 67, 45
1, 133621, Control_c, 0, 67, 48
1, 133636, Control_c, 0, 67, 49
1, 133650, Control_c, 0, 67, 51
1, 133665, Control_c, 0, 67, 53
1, 133680, Control_c, 0, 67, 54
1, 133695, Control_c, 0, 67, 55
1, 133709, Control_c, 0, 67, 56
1, 133724, Control_c, 0, 67, 57
1, 133738, Control_c, 0, 67, 58
1, 133798, Control_c, 0, 64, 122
1, 133813, Control_c, 0, 64, 104
1, 133816, Note_on_c, 0, 33, 36
1, 133828, Control_c, 0, 64, 94
1, 133828, Control_c, 0, 67, 58
1, 133843, Control_c, 0, 64, 85
1, 133858, Control_c, 0, 64, 76
1, 133873, Control_c, 0, 64, 66
1, 133887, Control_c, 0, 64, 59
1, 133889, Note_on_c, 0, 59, 53
1, 133902, Control_c, 0, 64, 53
1, 133914, Note_off_c, 0, 61, 52
1, 133917, Control_c, 0, 64, 50
1, 133932, Control_c, 0, 64, 48
1, 133947, Control_c, 0, 64, 47
1, 133962, Control_c, 0, 64, 44
1, 133977, Control_c, 0, 64, 38
1, 133991, Control_c, 0, 64, 29
1, 133991, Control_c, 0, 67, 59
1, 134006, Control_c, 0, 64, 0
1, 134097, Note_off_c, 0, 59, 64
1, 134114, Note_on_c, 0, 61, 55
1, 134169, Control_c, 0, 67, 60
1, 134184, Control_c, 0, 67, 60
1, 134189, Note_off_c, 0, 61, 54
1, 134198, Control_c, 0, 67, 61
1, 134213, Control_c, 0, 67, 62
1, 134225, Note_on_c, 0, 59, 56
1, 134228, Control_c, 0, 67, 64
1, 134243, Control_c, 0, 67, 87
1, 134258, Control_c, 0, 67, 107
1, 134280, Control_c, 0, 67, 115
1, 134304, Note_off_c, 0, 59, 60
1, 134354, Note_on_c, 0, 57, 50
1, 134369, Control_c, 0, 67, 112
1, 134398, Control_c, 0, 67, 109
1, 134413, Control_c, 0, 67, 106
1, 134428, Control_c, 0, 67, 104
1, 134443, Control_c, 0, 64, 45
1, 134458, Control_c, 0, 64, 60
1, 134458, Control_c, 0, 67, 102
1, 134469, Note_off_c, 0, 33, 56
1, 134472, Control_c, 0, 64, 65
1, 134487, Control_c, 0, 64, 70
1, 134502, Control_c, 0, 64, 74
1, 134516, Control_c, 0, 64, 79
1, 134531, Control_c, 0, 64, 84
1, 134546, Control_c, 0, 64, 90
1, 134561, Control_c, 0, 64, 96
1, 134576, Control_c, 0, 64, 103
1, 134591, Control_c, 0, 64, 112
1, 134606, Control_c, 0, 64, 127
1, 134713, Note_off_c, 0, 57, 57
1, 134748, Note_on_c, 0, 68, 30
1, 134755, Note_on_c, 0, 64, 37
1, 134756, Note_on_c, 0, 52, 25
1, 134815, Control_c, 0, 67, 100
1, 134926, Note_off_c, 0, 52, 32
1, 134933, Note_off_c, 0, 64, 40
1, 134934, Note_on_c, 0, 57, 39
1, 134940, Note_on_c, 0, 61, 38
1, 134940, Note_off_c, 0, 68, 38
1, 134952, Note_on_c, 0, 66, 30
1, 135115, Note_off_c, 0, 57, 27
1, 135121, Note_off_c, 0, 66, 41
1, 135126, Note_on_c, 0, 68, 37
1, 135140, Note_on_c, 0, 52, 34
1, 135142, Note_on_c, 0, 64, 46
1, 135149, Note_off_c, 0, 61, 40
1, 135236, Control_c, 0, 67, 98
1, 135299, Note_on_c, 0, 66, 41
1, 135302, Note_on_c, 0, 61, 43
1, 135312, Note_on_c, 0, 57, 38
1, 135318, Note_off_c, 0, 68, 34
1, 135327, Note_off_c, 0, 52, 33
1, 135333, Note_off_c, 0, 64, 38
1, 135514, Note_off_c, 0, 66, 36
1, 135526, Note_on_c, 0, 64, 38
1, 135533, Note_on_c, 0, 52, 26
1, 135539, Note_on_c, 0, 68, 28
1, 135539, Note_off_c, 0, 57, 33
1, 135560, Note_off_c, 0, 61, 31
1, 135691, Note_off_c, 0, 68, 45
1, 135724, Note_off_c, 0, 52, 35
1, 135974, Note_on_c, 0, 66, 36
1, 135983, Note_on_c, 0, 61, 37
1, 135986, Note_on_c, 0, 57, 32
1, 136059, Note_off_c, 0, 66, 53
1, 136063, Note_off_c, 0, 57, 55
1, 136074, Note_off_c, 0, 64, 49
1, 136112, Note_off_c, 0, 61, 61
1, 136325, Control_c, 0, 67, 96
1, 136414, Control_c, 0, 67, 95
1, 136459, Control_c, 0, 67, 94
1, 136488, Control_c, 0, 67, 94
1, 136493, Note_on_c, 0, 73, 44
1, 136499, Note_on_c, 0, 76, 45
1, 136503, Control_c, 0, 67, 93
1, 136518, Note_on_c, 0, 64, 25
1, 136520, Note_on_c, 0, 69, 34
1, 136525, Control_c, 0, 67, 92
1, 136555, Control_c, 0, 67, 92
1, 136570, Control_c, 0, 67, 91
1, 136585, Control_c, 0, 67, 90
1, 136599, Control_c, 0, 67, 89
1, 136614, Control_c, 0, 67, 88
1, 136629, Control_c, 0, 67, 87
1, 136644, Control_c, 0, 67, 85
1, 136659, Control_c, 0, 67, 85
1, 136673, Control_c, 0, 67, 83
1, 136678, Note_off_c, 0, 64, 43
1, 136688, Control_c, 0, 67, 82
1, 136703, Control_c, 0, 67, 79
1, 136718, Control_c, 0, 67, 76
1, 136733, Control_c, 0, 67, 73
1, 136748, Control_c, 0, 67, 68
1, 136763, Control_c, 0, 67, 60
1, 136778, Control_c, 0, 67, 53
1, 136792, Control_c, 0, 67, 48
1, 136807, Control_c, 0, 67, 43
1, 136809, Note_off_c, 0, 76, 59
1, 136811, Note_off_c, 0, 69, 42
1, 136815, Note_off_c, 0, 73, 36
1, 136822, Control_c, 0, 67, 41
1, 136837, Control_c, 0, 67, 0
1, 137080, Note_on_c, 0, 33, 87
1, 137104, Control_c, 0, 64, 108
1, 137119, Control_c, 0, 64, 74
1, 137134, Control_c, 0, 64, 53
1, 137149, Control_c, 0, 64, 43
1, 137164, Control_c, 0, 64, 47
1, 137178, Control_c, 0, 64, 59
1, 137193, Control_c, 0, 64, 71
1, 137208, Control_c, 0, 64, 91
1, 137223, Control_c, 0, 64, 127
1, 137223, Note_off_c, 0, 33, 62
1, 137518, Note_on_c, 0, 57, 53
1, 137542, Note_on_c, 0, 68, 52
1, 137599, Note_on_c, 0, 65, 88
1, 137617, Note_off_c, 0, 68, 51
1, 137964, Note_off_c, 0, 57, 59
1, 137986, Note_on_c, 0, 58, 53
1, 137989, Note_off_c, 0, 65, 55
1, 138055, Note_on_c, 0, 62, 86
1, 138368, Note_on_c, 0, 68, 37
1, 138376, Note_on_c, 0, 57, 46
1, 138382, Note_off_c, 0, 62, 58
1, 138413, Note_off_c, 0, 58, 37
1, 138416, Note_off_c, 0, 68, 44
1, 138432, Note_on_c, 0, 64, 88
1, 138651, Note_off_c, 0, 57, 38
1, 138666, Note_on_c, 0, 60, 85
1, 138667, Note_off_c, 0, 64, 61
1, 138672, Note_on_c, 0, 58, 61
1, 138824, Note_off_c, 0, 58, 53
1, 138849, Note_on_c, 0, 62, 85
1, 138857, Note_on_c, 0, 57, 60
1, 138867, Note_off_c, 0, 60, 49
1, 138918, Note_off_c, 0, 57, 53
1, 138994, Control_c, 0, 64, 100
1, 139009, Control_c, 0, 64, 82
1, 139015, Note_on_c, 0, 58, 84
1, 139024, Control_c, 0, 64, 74
1, 139039, Control_c, 0, 64, 72
1, 139068, Control_c, 0, 64, 73
1, 139083, Control_c, 0, 64, 79
1, 139098, Control_c, 0, 64, 85
1, 139113, Control_c, 0, 64, 89
1, 139128, Control_c, 0, 64, 90
1, 139143, Control_c, 0, 64, 90
1, 139158, Control_c, 0, 64, 87
1, 139164, Note_off_c, 0, 58, 65
1, 139173, Control_c, 0, 64, 79
1, 139187, Control_c, 0, 64, 68
1, 139189, Note_off_c, 0, 62, 58
1, 139202, Control_c, 0, 64, 62
1, 139203, Note_on_c, 0, 60, 85
1, 139214, Note_on_c, 0, 57, 61
1, 139217, Control_c, 0, 64, 60
1, 139232, Control_c, 0, 64, 62
1, 139247, Control_c, 0, 64, 69
1, 139261, Control_c, 0, 64, 83
1, 139276, Control_c, 0, 64, 99
1, 139291, Control_c, 0, 64, 101
1, 139320, Control_c, 0, 64, 98
1, 139335, Control_c, 0, 64, 87
1, 139350, Control_c, 0, 64, 74
1, 139363, Note_off_c, 0, 57, 56
1, 139365, Control_c, 0, 64, 64
1, 139375, Note_off_c, 0, 60, 60
1, 139380, Control_c, 0, 64, 59
1, 139383, Note_on_c, 0, 64, 88
1, 139388, Note_on_c, 0, 58, 71
1, 139394, Control_c, 0, 64, 61
1, 139409, Control_c, 0, 64, 64
1, 139424, Control_c, 0, 64, 70
1, 139439, Note_off_c, 0, 64, 63
1, 139440, Control_c, 0, 64, 75
1, 139455, Control_c, 0, 64, 77
1, 139470, Control_c, 0, 64, 78
1, 139484, Control_c, 0, 64, 79
1, 139499, Control_c, 0, 64, 81
1, 139521, Control_c, 0, 64, 84
1, 139522, Note_on_c, 0, 62, 74
1, 139536, Control_c, 0, 64, 87
1, 139539, Note_on_c, 0, 64, 82
1, 139548, Note_off_c, 0, 62, 66
1, 139551, Control_c, 0, 64, 89
1, 139566, Control_c, 0, 64, 90
1, 139596, Control_c, 0, 64, 90
1, 139602, Note_off_c, 0, 64, 65
1, 139606, Note_on_c, 0, 62, 82
1, 139610, Control_c, 0, 64, 84
1, 139625, Control_c, 0, 64, 69
1, 139636, Note_on_c, 0, 68, 70
1, 139640, Control_c, 0, 64, 54
1, 139655, Control_c, 0, 64, 38
1, 139670, Control_c, 0, 64, 35
1, 139684, Control_c, 0, 64, 41
1, 139691, Note_off_c, 0, 58, 35
1, 139700, Control_c, 0, 64, 56
1, 139715, Control_c, 0, 64, 64
1, 139730, Control_c, 0, 64, 69
1, 139744, Control_c, 0, 64, 72
1, 139759, Control_c, 0, 64, 74
1, 139774, Control_c, 0, 64, 75
1, 139789, Control_c, 0, 64, 78
1, 139804, Control_c, 0, 64, 80
1, 139818, Control_c, 0, 64, 82
1, 139833, Control_c, 0, 64, 83
1, 139848, Control_c, 0, 64, 84
1, 139863, Control_c, 0, 64, 85
1, 139878, Control_c, 0, 64, 86
1, 139892, Control_c, 0, 64, 87
1, 139936, Control_c, 0, 64, 87
1, 139963, Note_on_c, 0, 58, 70
1, 139970, Note_off_c, 0, 68, 56
1, 140147, Note_on_c, 0, 60, 86
1, 140189, Control_c, 0, 64, 88
1, 140202, Note_off_c, 0, 62, 57
1, 140204, Control_c, 0, 64, 90
1, 140218, Control_c, 0, 64, 91
1, 140249, Control_c, 0, 64, 91
1, 140271, Control_c, 0, 64, 92
1, 140300, Control_c, 0, 64, 93
1, 140315, Control_c, 0, 64, 94
1, 140330, Control_c, 0, 64, 96
1, 140345, Control_c, 0, 64, 99
1, 140360, Control_c, 0, 64, 104
1, 140374, Control_c, 0, 64, 113
1, 140383, Note_off_c, 0, 58, 55
1, 140384, Note_on_c, 0, 68, 61
1, 140389, Control_c, 0, 64, 127
1, 140442, Note_off_c, 0, 68, 63
1, 141057, Note_on_c, 0, 33, 73
1, 141107, Control_c, 0, 64, 100
1, 141122, Control_c, 0, 64, 76
1, 141124, Note_on_c, 0, 58, 86
1, 141137, Control_c, 0, 64, 62
1, 141152, Control_c, 0, 64, 47
1, 141161, Note_off_c, 0, 60, 61
1, 141167, Control_c, 0, 64, 36
1, 141182, Control_c, 0, 64, 31
1, 141212, Control_c, 0, 64, 33
1, 141226, Control_c, 0, 64, 35
1, 141241, Control_c, 0, 64, 38
1, 141256, Control_c, 0, 64, 41
1, 141271, Control_c, 0, 64, 42
1, 141286, Control_c, 0, 64, 43
1, 141404, Control_c, 0, 64, 42
1, 141419, Control_c, 0, 64, 40
1, 141423, Note_on_c, 0, 60, 81
1, 141426, Note_off_c, 0, 58, 63
1, 141434, Control_c, 0, 64, 34
1, 141449, Control_c, 0, 64, 0
1, 141503, Note_off_c, 0, 60, 63
1, 141540, Note_on_c, 0, 58, 82
1, 141638, Note_off_c, 0, 58, 62
1, 141691, Note_on_c, 0, 57, 79
1, 141872, Control_c, 0, 64, 49
1, 141886, Control_c, 0, 64, 62
1, 141901, Control_c, 0, 64, 68
1, 141916, Control_c, 0, 64, 74
1, 141930, Control_c, 0, 64, 81
1, 141933, Note_off_c, 0, 33, 62
1, 141945, Control_c, 0, 64, 91
1, 141960, Control_c, 0, 64, 104
1, 141975, Control_c, 0, 64, 127
1, 142138, Control_c, 0, 67, 49
1, 142153, Control_c, 0, 67, 66
1, 142168, Control_c, 0, 67, 81
1, 142183, Control_c, 0, 67, 92
1, 142198, Control_c, 0, 67, 98
1, 142212, Control_c, 0, 67, 102
1, 142217, Note_off_c, 0, 57, 61
1, 142227, Control_c, 0, 67, 105
1, 142235, Note_on_c, 0, 64, 45
1, 142242, Control_c, 0, 67, 108
1, 142244, Note_on_c, 0, 68, 45
1, 142246, Note_on_c, 0, 52, 33
1, 142256, Control_c, 0, 67, 115
1, 142271, Control_c, 0, 67, 124
1, 142286, Control_c, 0, 67, 127
1, 142413, Note_off_c, 0, 64, 38
1, 142423, Note_off_c, 0, 52, 38
1, 142432, Note_on_c, 0, 57, 44
1, 142436, Note_off_c, 0, 68, 42
1, 142438, Note_on_c, 0, 61, 43
1, 142451, Note_on_c, 0, 66, 37
1, 142560, Control_c, 0, 67, 124
1, 142590, Control_c, 0, 67, 122
1, 142608, Note_off_c, 0, 57, 37
1, 142611, Note_off_c, 0, 66, 42
1, 142631, Note_on_c, 0, 68, 47
1, 142641, Note_on_c, 0, 52, 39
1, 142655, Note_on_c, 0, 64, 29
1, 142657, Note_off_c, 0, 61, 41
1, 142665, Control_c, 0, 67, 120
1, 142769, Control_c, 0, 67, 118
1, 142794, Note_off_c, 0, 68, 36
1, 142799, Control_c, 0, 67, 115
1, 142817, Note_on_c, 0, 66, 50
1, 142820, Note_on_c, 0, 61, 43
1, 142824, Note_on_c, 0, 57, 47
1, 142829, Control_c, 0, 67, 112
1, 142832, Note_off_c, 0, 64, 43
1, 142838, Note_off_c, 0, 52, 33
1, 142843, Control_c, 0, 67, 109
1, 142858, Control_c, 0, 67, 105
1, 142873, Control_c, 0, 67, 103
1, 142887, Control_c, 0, 67, 101
1, 142902, Control_c, 0, 67, 98
1, 142917, Control_c, 0, 67, 96
1, 142932, Control_c, 0, 67, 89
1, 142947, Control_c, 0, 67, 76
1, 142961, Control_c, 0, 67, 62
1, 142976, Control_c, 0, 67, 51
1, 142991, Control_c, 0, 67, 43
1, 142996, Note_off_c, 0, 66, 53
1, 143006, Control_c, 0, 67, 0
1, 143018, Note_off_c, 0, 57, 54
1, 143024, Note_on_c, 0, 64, 56
1, 143029, Note_on_c, 0, 68, 46
1, 143033, Note_on_c, 0, 52, 44
1, 143058, Note_off_c, 0, 61, 48
1, 143129, Note_off_c, 0, 52, 52
1, 143179, Note_off_c, 0, 68, 45
1, 143441, Note_on_c, 0, 57, 57
1, 143451, Note_on_c, 0, 61, 56
1, 143459, Note_on_c, 0, 66, 56
1, 143501, Note_off_c, 0, 66, 63
1, 143531, Note_off_c, 0, 57, 60
1, 143538, Note_off_c, 0, 64, 57
1, 143600, Note_off_c, 0, 61, 63
1, 143987, Note_on_c, 0, 76, 58
1, 143990, Note_on_c, 0, 73, 58
1, 143993, Note_on_c, 0, 64, 50
1, 144012, Note_on_c, 0, 69, 49
1, 144064, Note_off_c, 0, 64, 55
1, 144205, Note_off_c, 0, 76, 38
1, 144233, Note_off_c, 0, 69, 29
1, 144298, Note_off_c, 0, 73, 32
1, 144547, Control_c, 0, 67, 44
1, 144562, Control_c, 0, 67, 61
1, 144577, Control_c, 0, 67, 76
1, 144592, Control_c, 0, 67, 92
1, 144607, Control_c, 0, 67, 109
1, 144622, Control_c, 0, 67, 126
1, 144970, Control_c, 0, 64, 109
1, 144985, Control_c, 0, 64, 97
1, 145000, Control_c, 0, 64, 84
1, 145014, Control_c, 0, 64, 74
1, 145016, Note_on_c, 0, 33, 36
1, 145021, Note_on_c, 0, 40, 28
1, 145030, Control_c, 0, 64, 63
1, 145045, Control_c, 0, 64, 49
1, 145056, Note_on_c, 0, 64, 40
1, 145060, Control_c, 0, 64, 33
1, 145060, Note_on_c, 0, 56, 31
1, 145074, Control_c, 0, 64, 0
1, 145075, Note_on_c, 0, 62, 35
1, 145084, Note_on_c, 0, 52, 9
1, 145208, Control_c, 0, 64, 34
1, 145222, Control_c, 0, 64, 50
1, 145237, Control_c, 0, 64, 61
1, 145252, Note_off_c, 0, 33, 60
1, 145252, Control_c, 0, 64, 65
1, 145267, Control_c, 0, 64, 68
1, 145281, Control_c, 0, 64, 71
1, 145288, Note_off_c, 0, 40, 55
1, 145296, Control_c, 0, 64, 74
1, 145307, Note_off_c, 0, 52, 40
1, 145311, Control_c, 0, 64, 78
1, 145326, Control_c, 0, 64, 82
1, 145341, Control_c, 0, 64, 85
1, 145355, Control_c, 0, 64, 88
1, 145370, Control_c, 0, 64, 91
1, 145371, Note_off_c, 0, 56, 48
1, 145385, Control_c, 0, 64, 95
1, 145400, Control_c, 0, 64, 98
1, 145415, Control_c, 0, 64, 102
1, 145421, Note_off_c, 0, 62, 42
1, 145430, Control_c, 0, 64, 106
1, 145436, Note_off_c, 0, 64, 65
1, 145444, Control_c, 0, 64, 110
1, 145459, Control_c, 0, 64, 115
1, 145474, Control_c, 0, 64, 122
1, 145489, Control_c, 0, 64, 127
1, 145610, Note_on_c, 0, 56, 22
1, 145633, Note_on_c, 0, 52, 32
1, 145722, Note_on_c, 0, 85, 69
1, 145754, Note_on_c, 0, 73, 15
1, 145774, Note_on_c, 0, 76, 29
1, 145905, Note_off_c, 0, 52, 49
1, 145935, Note_off_c, 0, 73, 40
1, 145942, Note_off_c, 0, 85, 59
1, 145969, Note_off_c, 0, 76, 41
1, 145998, Note_off_c, 0, 56, 40
1, 146044, Note_on_c, 0, 62, 34
1, 146088, Note_on_c, 0, 85, 64
1, 146107, Note_on_c, 0, 76, 35
1, 146118, Note_on_c, 0, 73, 38
1, 146144, Note_off_c, 0, 62, 48
1, 146235, Note_off_c, 0, 73, 34
1, 146255, Note_off_c, 0, 85, 61
1, 146266, Note_off_c, 0, 76, 36
1, 146291, Note_on_c, 0, 64, 38
1, 146347, Note_on_c, 0, 85, 71
1, 146377, Note_on_c, 0, 73, 23
1, 146380, Note_on_c, 0, 76, 42
1, 146441, Note_off_c, 0, 73, 41
1, 146452, Note_off_c, 0, 64, 48
1, 146453, Note_off_c, 0, 76, 51
1, 146467, Note_off_c, 0, 85, 62
1, 146500, Note_on_c, 0, 62, 41
1, 146570, Note_on_c, 0, 85, 81
1, 146591, Note_on_c, 0, 76, 41
1, 146605, Note_off_c, 0, 62, 57
1, 146609, Note_on_c, 0, 73, 24
1, 146649, Note_on_c, 0, 64, 40
1, 146658, Note_off_c, 0, 73, 44
1, 146708, Note_off_c, 0, 85, 62
1, 146714, Note_off_c, 0, 76, 37
1, 146782, Note_off_c, 0, 64, 60
1, 146812, Note_on_c, 0, 85, 75
1, 146834, Note_on_c, 0, 68, 38
1, 146835, Note_on_c, 0, 76, 49
1, 146845, Note_on_c, 0, 74, 19
1, 146857, Note_on_c, 0, 73, 13
1, 146898, Note_off_c, 0, 74, 43
1, 146998, Note_off_c, 0, 73, 41
1, 147015, Note_off_c, 0, 76, 55
1, 147024, Note_off_c, 0, 85, 60
1, 147045, Note_off_c, 0, 68, 37
1, 147052, Note_on_c, 0, 64, 38
1, 147130, Note_on_c, 0, 85, 73
1, 147147, Note_on_c, 0, 73, 35
1, 147166, Note_on_c, 0, 76, 25
1, 147195, Note_off_c, 0, 73, 48
1, 147206, Note_off_c, 0, 64, 36
1, 147221, Note_off_c, 0, 76, 43
1, 147223, Note_on_c, 0, 68, 36
1, 147370, Note_off_c, 0, 68, 57
1, 147494, Note_on_c, 0, 74, 43
1, 147548, Note_off_c, 0, 85, 60
1, 147557, Note_off_c, 0, 74, 60
1, 147896, Note_on_c, 0, 80, 36
1, 147906, Note_on_c, 0, 76, 32
1, 147934, Note_on_c, 0, 83, 62
1, 147946, Note_off_c, 0, 80, 59
1, 147960, Note_on_c, 0, 71, 32
1, 147971, Note_off_c, 0, 76, 43
1, 147972, Note_on_c, 0, 74, 33
1, 148100, Note_off_c, 0, 71, 39
1, 148151, Note_off_c, 0, 74, 18
1, 148542, Note_on_c, 0, 33, 46
1, 148581, Control_c, 0, 64, 93
1, 148595, Note_off_c, 0, 83, 60
1, 148596, Control_c, 0, 64, 81
1, 148611, Control_c, 0, 64, 75
1, 148619, Note_on_c, 0, 74, 60
1, 148625, Control_c, 0, 64, 73
1, 148658, Note_on_c, 0, 71, 27
1, 148670, Control_c, 0, 64, 75
1, 148683, Note_off_c, 0, 74, 57
1, 148685, Control_c, 0, 64, 78
1, 148697, Note_on_c, 0, 83, 70
1, 148698, Control_c, 0, 64, 80
1, 148712, Note_off_c, 0, 71, 42
1, 148713, Control_c, 0, 64, 83
1, 148728, Control_c, 0, 64, 85
1, 148743, Control_c, 0, 64, 86
1, 148758, Control_c, 0, 64, 88
1, 148762, Note_off_c, 0, 83, 60
1, 148771, Note_on_c, 0, 74, 69
1, 148772, Control_c, 0, 64, 89
1, 148787, Control_c, 0, 64, 91
1, 148798, Note_off_c, 0, 74, 66
1, 148802, Control_c, 0, 64, 91
1, 148861, Control_c, 0, 64, 90
1, 148869, Note_on_c, 0, 81, 67
1, 148876, Control_c, 0, 64, 80
1, 148891, Control_c, 0, 64, 67
1, 148896, Note_on_c, 0, 73, 59
1, 148905, Control_c, 0, 64, 50
1, 148920, Control_c, 0, 64, 0
1, 148928, Note_on_c, 0, 69, 4
1, 148965, Control_c, 0, 64, 33
1, 148980, Control_c, 0, 64, 53
1, 148995, Control_c, 0, 64, 65
1, 149008, Note_off_c, 0, 33, 62
1, 149010, Control_c, 0, 64, 72
1, 149025, Control_c, 0, 64, 80
1, 149039, Control_c, 0, 64, 88
1, 149054, Note_off_c, 0, 81, 61
1, 149054, Control_c, 0, 64, 94
1, 149066, Note_off_c, 0, 73, 63
1, 149069, Control_c, 0, 64, 103
1, 149078, Note_off_c, 0, 69, 56
1, 149084, Control_c, 0, 64, 120
1, 149099, Control_c, 0, 64, 127
1, 149296, Note_on_c, 0, 76, 53
1, 149308, Note_on_c, 0, 73, 36
1, 149358, Note_off_c, 0, 73, 42
1, 149360, Poly_aftertouch_c, 0, 69, 127
1, 149361, Note_on_c, 0, 69, 3
1, 149372, Poly_aftertouch_c, 0, 64, 127
1, 149388, Poly_aftertouch_c, 0, 68, 127
1, 149430, Poly_aftertouch_c, 0, 64, 0
1, 149449, Note_off_c, 0, 69, 32
1, 149469, Note_off_c, 0, 76, 44
1, 149472, Note_on_c, 0, 73, 50
1, 149479, Poly_aftertouch_c, 0, 68, 0
1, 149490, Note_on_c, 0, 66, 37
1, 149597, Note_off_c, 0, 66, 50
1, 149619, Note_off_c, 0, 73, 0
1, 149641, Note_on_c, 0, 73, 15
1, 149643, Note_on_c, 0, 68, 28
1, 149648, Note_on_c, 0, 76, 53
1, 149665, Note_on_c, 0, 69, 36
1, 149668, Note_on_c, 0, 64, 30
1, 149734, Note_off_c, 0, 73, 37
1, 149758, Note_off_c, 0, 64, 34
1, 149809, Note_off_c, 0, 76, 61
1, 149809, Note_off_c, 0, 69, 28
1, 149823, Note_off_c, 0, 68, 40
1, 149826, Note_on_c, 0, 73, 58
1, 149826, Note_on_c, 0, 66, 47
1, 149958, Note_off_c, 0, 66, 39
1, 150022, Note_off_c, 0, 73, 34
1, 150029, Note_on_c, 0, 76, 56
1, 150043, Note_on_c, 0, 68, 27
1, 150053, Note_on_c, 0, 72, 44
1, 150072, Note_on_c, 0, 64, 25
1, 150083, Note_on_c, 0, 69, 17
1, 150118, Note_off_c, 0, 64, 49
1, 150184, Note_off_c, 0, 72, 34
1, 150250, Note_off_c, 0, 69, 43
1, 150466, Note_on_c, 0, 72, 48
1, 150476, Note_on_c, 0, 66, 20
1, 150515, Note_off_c, 0, 76, 58
1, 150521, Note_off_c, 0, 68, 33
1, 150595, Note_off_c, 0, 72, 60
1, 150687, Note_off_c, 0, 66, 42
1, 150932, Note_on_c, 0, 81, 45
1, 150940, Note_on_c, 0, 64, 42
1, 150946, Note_on_c, 0, 76, 35
1, 150951, Note_on_c, 0, 72, 33
1, 150986, Poly_aftertouch_c, 0, 69, 127
1, 151012, Note_off_c, 0, 72, 54
1, 151075, Note_off_c, 0, 64, 58
1, 151078, Poly_aftertouch_c, 0, 69, 0
1, 151314, Note_off_c, 0, 81, 61
1, 151374, Control_c, 0, 67, 105
1, 151389, Control_c, 0, 67, 56
1, 151404, Control_c, 0, 67, 0
1, 151517, Note_on_c, 0, 43, 56
1, 151576, Control_c, 0, 64, 101
1, 151591, Control_c, 0, 64, 81
1, 151605, Control_c, 0, 64, 66
1, 151620, Control_c, 0, 64, 53
1, 151635, Control_c, 0, 64, 42
1, 151649, Control_c, 0, 64, 40
1, 151664, Control_c, 0, 64, 41
1, 151679, Control_c, 0, 64, 47
1, 151694, Control_c, 0, 64, 56
1, 151709, Control_c, 0, 64, 62
1, 151723, Control_c, 0, 64, 66
1, 151729, Note_off_c, 0, 76, 35
1, 151738, Control_c, 0, 64, 71
1, 151753, Control_c, 0, 64, 75
1, 151768, Control_c, 0, 64, 78
1, 151783, Control_c, 0, 64, 83
1, 151797, Control_c, 0, 64, 88
1, 151812, Control_c, 0, 64, 92
1, 151827, Control_c, 0, 64, 97
1, 151835, Note_on_c, 0, 50, 37
1, 151841, Control_c, 0, 64, 104
1, 151856, Control_c, 0, 64, 114
1, 151871, Control_c, 0, 64, 127
1, 151907, Note_on_c, 0, 82, 70
1, 151937, Note_on_c, 0, 70, 23
1, 151943, Note_on_c, 0, 74, 34
1, 152111, Note_off_c, 0, 82, 60
1, 152122, Note_off_c, 0, 70, 44
1, 152134, Note_off_c, 0, 74, 41
1, 152145, Note_on_c, 0, 53, 40
1, 152174, Note_off_c, 0, 50, 35
1, 152190, Note_off_c, 0, 43, 37
1, 152200, Note_on_c, 0, 82, 82
1, 152220, Note_on_c, 0, 70, 49
1, 152249, Note_on_c, 0, 74, 52
1, 152336, Note_off_c, 0, 53, 62
1, 152365, Note_off_c, 0, 70, 29
1, 152376, Note_on_c, 0, 55, 47
1, 152379, Note_off_c, 0, 82, 59
1, 152397, Note_off_c, 0, 74, 58
1, 152406, Note_off_c, 0, 55, 60
1, 152455, Note_on_c, 0, 82, 89
1, 152473, Note_on_c, 0, 70, 56
1, 152485, Note_on_c, 0, 74, 40
1, 152539, Note_off_c, 0, 70, 53
1, 152545, Note_on_c, 0, 62, 49
1, 152584, Note_off_c, 0, 82, 60
1, 152605, Note_off_c, 0, 74, 35
1, 152661, Note_on_c, 0, 82, 91
1, 152677, Note_on_c, 0, 70, 57
1, 152679, Note_on_c, 0, 65, 63
1, 152679, Note_off_c, 0, 62, 60
1, 152691, Note_on_c, 0, 74, 63
1, 152708, Note_off_c, 0, 65, 66
1, 152798, Note_off_c, 0, 70, 38
1, 152808, Note_off_c, 0, 74, 59
1, 152810, Note_off_c, 0, 82, 60
1, 152834, Note_on_c, 0, 48, 72
1, 152871, Note_on_c, 0, 82, 85
1, 152891, Note_on_c, 0, 74, 58
1, 152898, Note_on_c, 0, 70, 50
1, 152903, Control_c, 0, 64, 99
1, 152918, Control_c, 0, 64, 73
1, 152932, Control_c, 0, 64, 56
1, 152947, Control_c, 0, 64, 40
1, 152962, Control_c, 0, 64, 40
1, 152977, Control_c, 0, 64, 49
1, 152998, Control_c, 0, 64, 61
1, 153015, Control_c, 0, 64, 68
1, 153030, Control_c, 0, 64, 75
1, 153044, Control_c, 0, 64, 81
1, 153059, Control_c, 0, 64, 87
1, 153074, Control_c, 0, 64, 92
1, 153078, Note_on_c, 0, 55, 61
1, 153081, Note_off_c, 0, 82, 58
1, 153085, Note_off_c, 0, 70, 50
1, 153089, Control_c, 0, 64, 97
1, 153090, Note_off_c, 0, 48, 56
1, 153093, Note_off_c, 0, 74, 60
1, 153103, Control_c, 0, 64, 101
1, 153118, Control_c, 0, 64, 105
1, 153133, Control_c, 0, 64, 107
1, 153163, Control_c, 0, 64, 111
1, 153165, Note_on_c, 0, 82, 92
1, 153192, Control_c, 0, 64, 116
1, 153194, Note_on_c, 0, 74, 58
1, 153196, Note_on_c, 0, 70, 47
1, 153207, Control_c, 0, 64, 124
1, 153222, Control_c, 0, 64, 127
1, 153228, Note_off_c, 0, 55, 61
1, 153236, Note_off_c, 0, 70, 50
1, 153254, Note_on_c, 0, 58, 61
1, 153305, Note_off_c, 0, 74, 54
1, 153376, Note_off_c, 0, 58, 63
1, 153441, Note_on_c, 0, 64, 62
1, 153471, Note_off_c, 0, 82, 57
1, 153546, Note_off_c, 0, 64, 58
1, 153655, Note_on_c, 0, 60, 58
1, 153746, Note_on_c, 0, 81, 84
1, 153772, Note_on_c, 0, 69, 44
1, 153778, Note_on_c, 0, 72, 40
1, 153801, Note_off_c, 0, 69, 54
1, 153815, Note_off_c, 0, 72, 50
1, 153863, Note_off_c, 0, 60, 59
1, 153886, Note_on_c, 0, 70, 68
1, 153912, Note_off_c, 0, 70, 68
1, 153984, Note_off_c, 0, 81, 58
1, 154164, Note_on_c, 0, 41, 69
1, 154223, Control_c, 0, 64, 92
1, 154226, Note_on_c, 0, 70, 70
1, 154237, Control_c, 0, 64, 69
1, 154241, Note_on_c, 0, 67, 40
1, 154252, Control_c, 0, 64, 52
1, 154267, Control_c, 0, 64, 34
1, 154274, Note_off_c, 0, 67, 53
1, 154282, Control_c, 0, 64, 30
1, 154297, Control_c, 0, 64, 37
1, 154306, Note_on_c, 0, 79, 74
1, 154309, Note_off_c, 0, 70, 64
1, 154311, Control_c, 0, 64, 50
1, 154326, Control_c, 0, 64, 59
1, 154341, Control_c, 0, 64, 64
1, 154356, Control_c, 0, 64, 67
1, 154371, Control_c, 0, 64, 69
1, 154380, Note_on_c, 0, 70, 74
1, 154384, Note_off_c, 0, 79, 63
1, 154385, Control_c, 0, 64, 72
1, 154400, Control_c, 0, 64, 74
1, 154415, Control_c, 0, 64, 76
1, 154430, Control_c, 0, 64, 76
1, 154434, Note_off_c, 0, 70, 66
1, 154474, Control_c, 0, 64, 72
1, 154491, Note_on_c, 0, 77, 78
1, 154494, Note_on_c, 0, 69, 65
1, 154497, Control_c, 0, 64, 59
1, 154512, Control_c, 0, 64, 35
1, 154514, Note_on_c, 0, 65, 44
1, 154526, Control_c, 0, 64, 0
1, 154585, Control_c, 0, 64, 39
1, 154600, Control_c, 0, 64, 62
1, 154616, Control_c, 0, 64, 70
1, 154630, Note_off_c, 0, 41, 64
1, 154631, Control_c, 0, 64, 80
1, 154644, Note_off_c, 0, 77, 62
1, 154646, Control_c, 0, 64, 88
1, 154660, Control_c, 0, 64, 95
1, 154664, Note_off_c, 0, 69, 63
1, 154665, Note_off_c, 0, 65, 62
1, 154675, Control_c, 0, 64, 103
1, 154689, Control_c, 0, 64, 118
1, 154704, Control_c, 0, 64, 127
1, 154867, Control_c, 0, 67, 42
1, 154882, Control_c, 0, 67, 47
1, 154888, Note_on_c, 0, 69, 54
1, 154890, Note_on_c, 0, 61, 37
1, 154897, Control_c, 0, 67, 51
1, 154904, Note_on_c, 0, 66, 45
1, 154912, Control_c, 0, 67, 54
1, 154927, Control_c, 0, 67, 59
1, 154941, Control_c, 0, 67, 70
1, 154956, Control_c, 0, 67, 85
1, 154971, Control_c, 0, 67, 102
1, 154981, Note_off_c, 0, 66, 46
1, 154985, Control_c, 0, 67, 115
1, 155000, Control_c, 0, 67, 123
1, 155015, Control_c, 0, 67, 126
1, 155048, Note_off_c, 0, 69, 37
1, 155061, Note_on_c, 0, 57, 51
1, 155068, Note_off_c, 0, 61, 40
1, 155076, Note_on_c, 0, 60, 45
1, 155119, Control_c, 0, 67, 124
1, 155126, Note_off_c, 0, 60, 59
1, 155148, Control_c, 0, 67, 122
1, 155178, Control_c, 0, 67, 120
1, 155252, Note_on_c, 0, 69, 46
1, 155259, Note_on_c, 0, 61, 33
1, 155263, Note_on_c, 0, 65, 32
1, 155270, Note_on_c, 0, 66, 41
1, 155274, Control_c, 0, 67, 118
1, 155309, Note_off_c, 0, 65, 45
1, 155361, Note_off_c, 0, 66, 35
1, 155364, Note_off_c, 0, 57, 37
1, 155392, Control_c, 0, 67, 116
1, 155412, Note_off_c, 0, 69, 50
1, 155415, Note_on_c, 0, 57, 35
1, 155448, Note_off_c, 0, 61, 40
1, 155454, Note_on_c, 0, 60, 37
1, 155512, Note_off_c, 0, 60, 48
1, 155647, Note_on_c, 0, 69, 43
1, 155650, Note_on_c, 0, 65, 40
1, 155651, Note_on_c, 0, 61, 40
1, 155658, Note_on_c, 0, 66, 36
1, 155764, Note_off_c, 0, 65, 49
1, 155764, Note_off_c, 0, 57, 41
1, 155808, Control_c, 0, 67, 114
1, 155994, Control_c, 0, 67, 112
1, 156017, Note_on_c, 0, 57, 31
1, 156036, Note_off_c, 0, 61, 31
1, 156048, Note_on_c, 0, 60, 40
1, 156128, Note_off_c, 0, 57, 59
1, 156130, Note_off_c, 0, 60, 62
1, 156164, Note_off_c, 0, 69, 62
1, 156168, Note_off_c, 0, 66, 43
1, 156366, Control_c, 0, 67, 109
1, 156504, Note_on_c, 0, 77, 48
1, 156508, Note_on_c, 0, 60, 44
1, 156515, Note_on_c, 0, 69, 28
1, 156516, Note_on_c, 0, 72, 34
1, 156535, Note_on_c, 0, 65, 15
1, 156565, Note_off_c, 0, 69, 48
1, 156587, Control_c, 0, 67, 107
1, 156615, Note_off_c, 0, 60, 62
1, 156617, Control_c, 0, 67, 105
1, 156646, Note_off_c, 0, 65, 39
1, 156647, Control_c, 0, 67, 102
1, 156662, Control_c, 0, 67, 100
1, 156676, Control_c, 0, 67, 98
1, 156706, Control_c, 0, 67, 94
1, 156721, Control_c, 0, 67, 92
1, 156743, Control_c, 0, 67, 86
1, 156757, Control_c, 0, 67, 73
1, 156765, Note_off_c, 0, 77, 63
1, 156772, Control_c, 0, 67, 53
1, 156787, Control_c, 0, 67, 0
1, 156810, Note_off_c, 0, 72, 41
1, 157006, Note_on_c, 0, 39, 65
1, 157025, Control_c, 0, 64, 103
1, 157040, Control_c, 0, 64, 80
1, 157055, Control_c, 0, 64, 61
1, 157070, Control_c, 0, 64, 43
1, 157085, Control_c, 0, 64, 0
1, 157130, Control_c, 0, 64, 29
1, 157144, Control_c, 0, 64, 43
1, 157159, Control_c, 0, 64, 55
1, 157174, Control_c, 0, 64, 63
1, 157188, Control_c, 0, 64, 67
1, 157203, Control_c, 0, 64, 70
1, 157218, Control_c, 0, 64, 73
1, 157233, Control_c, 0, 64, 77
1, 157248, Control_c, 0, 64, 84
1, 157262, Control_c, 0, 64, 90
1, 157277, Control_c, 0, 64, 96
1, 157292, Control_c, 0, 64, 103
1, 157295, Note_on_c, 0, 49, 46
1, 157307, Control_c, 0, 64, 115
1, 157320, Note_on_c, 0, 78, 71
1, 157322, Control_c, 0, 64, 127
1, 157344, Note_on_c, 0, 66, 36
1, 157359, Note_on_c, 0, 70, 37
1, 157391, Note_off_c, 0, 39, 53
1, 157504, Note_off_c, 0, 49, 62
1, 157514, Note_off_c, 0, 66, 34
1, 157529, Note_off_c, 0, 78, 58
1, 157537, Note_on_c, 0, 51, 51
1, 157560, Note_off_c, 0, 70, 39
1, 157572, Note_off_c, 0, 51, 62
1, 157620, Note_on_c, 0, 78, 87
1, 157633, Note_on_c, 0, 66, 50
1, 157654, Note_on_c, 0, 70, 44
1, 157770, Note_on_c, 0, 60, 53
1, 157772, Note_off_c, 0, 70, 60
1, 157780, Note_off_c, 0, 66, 43
1, 157781, Note_off_c, 0, 78, 58
1, 157852, Note_on_c, 0, 78, 86
1, 157860, Note_off_c, 0, 60, 58
1, 157873, Note_on_c, 0, 66, 58
1, 157897, Note_on_c, 0, 70, 51
1, 157963, Note_off_c, 0, 66, 56
1, 157984, Note_on_c, 0, 58, 55
1, 157986, Note_off_c, 0, 78, 59
1, 157987, Note_off_c, 0, 70, 61
1, 158036, Note_off_c, 0, 58, 54
1, 158056, Note_on_c, 0, 78, 89
1, 158073, Note_on_c, 0, 66, 58
1, 158081, Note_on_c, 0, 70, 56
1, 158113, Note_on_c, 0, 61, 61
1, 158152, Note_off_c, 0, 61, 61
1, 158170, Note_off_c, 0, 66, 51
1, 158188, Note_off_c, 0, 78, 59
1, 158198, Note_off_c, 0, 70, 61
1, 158264, Note_on_c, 0, 78, 77
1, 158273, Note_on_c, 0, 44, 56
1, 158287, Note_on_c, 0, 70, 51
1, 158295, Note_on_c, 0, 66, 41
1, 158300, Control_c, 0, 64, 99
1, 158315, Control_c, 0, 64, 74
1, 158330, Control_c, 0, 64, 56
1, 158345, Control_c, 0, 64, 30
1, 158359, Control_c, 0, 64, 0
1, 158418, Control_c, 0, 64, 44
1, 158433, Control_c, 0, 64, 58
1, 158448, Control_c, 0, 64, 66
1, 158463, Control_c, 0, 64, 71
1, 158477, Control_c, 0, 64, 75
1, 158492, Control_c, 0, 64, 78
1, 158507, Note_on_c, 0, 51, 49
1, 158507, Note_off_c, 0, 44, 59
1, 158507, Control_c, 0, 64, 81
1, 158511, Note_off_c, 0, 78, 59
1, 158520, Note_off_c, 0, 66, 42
1, 158522, Control_c, 0, 64, 84
1, 158526, Note_off_c, 0, 70, 60
1, 158537, Control_c, 0, 64, 87
1, 158551, Control_c, 0, 64, 89
1, 158566, Control_c, 0, 64, 90
1, 158581, Control_c, 0, 64, 91
1, 158617, Note_on_c, 0, 78, 73
1, 158626, Note_on_c, 0, 66, 47
1, 158646, Note_on_c, 0, 70, 51
1, 158656, Control_c, 0, 64, 91
1, 158658, Note_off_c, 0, 51, 57
1, 158730, Note_on_c, 0, 60, 46
1, 158849, Control_c, 0, 64, 91
1, 158864, Control_c, 0, 64, 90
1, 158879, Control_c, 0, 64, 80
1, 158894, Control_c, 0, 64, 68
1, 158898, Note_off_c, 0, 60, 47
1, 158908, Control_c, 0, 64, 56
1, 158921, Note_on_c, 0, 55, 43
1, 158923, Control_c, 0, 64, 48
1, 158938, Control_c, 0, 64, 48
1, 158952, Control_c, 0, 64, 53
1, 158967, Control_c, 0, 64, 60
1, 158990, Control_c, 0, 64, 65
1, 159005, Control_c, 0, 64, 70
1, 159019, Control_c, 0, 64, 74
1, 159034, Control_c, 0, 64, 77
1, 159049, Control_c, 0, 64, 79
1, 159064, Control_c, 0, 64, 81
1, 159079, Control_c, 0, 64, 83
1, 159094, Control_c, 0, 64, 85
1, 159106, Note_off_c, 0, 70, 42
1, 159108, Control_c, 0, 64, 87
1, 159123, Control_c, 0, 64, 88
1, 159138, Control_c, 0, 64, 89
1, 159153, Control_c, 0, 64, 91
1, 159158, Note_off_c, 0, 66, 42
1, 159167, Control_c, 0, 64, 92
1, 159182, Control_c, 0, 64, 94
1, 159197, Control_c, 0, 64, 95
1, 159212, Control_c, 0, 64, 97
1, 159215, Note_off_c, 0, 55, 55
1, 159216, Note_off_c, 0, 78, 31
1, 159236, Note_on_c, 0, 56, 47
1, 159286, Control_c, 0, 64, 95
1, 159301, Control_c, 0, 64, 94
1, 159311, Note_on_c, 0, 77, 70
1, 159315, Control_c, 0, 64, 93
1, 159344, Note_on_c, 0, 65, 26
1, 159349, Note_on_c, 0, 68, 35
1, 159359, Control_c, 0, 64, 94
1, 159380, Note_off_c, 0, 65, 46
1, 159386, Note_off_c, 0, 68, 53
1, 159389, Control_c, 0, 64, 94
1, 159405, Control_c, 0, 64, 95
1, 159420, Control_c, 0, 67, 43
1, 159435, Control_c, 0, 64, 95
1, 159435, Control_c, 0, 67, 53
1, 159449, Control_c, 0, 67, 62
1, 159464, Control_c, 0, 64, 96
1, 159464, Control_c, 0, 67, 69
1, 159478, Note_on_c, 0, 68, 60
1, 159479, Control_c, 0, 67, 73
1, 159494, Control_c, 0, 67, 76
1, 159509, Control_c, 0, 67, 77
1, 159511, Note_off_c, 0, 68, 64
1, 159523, Control_c, 0, 67, 78
1, 159534, Note_off_c, 0, 77, 63
1, 159571, Note_off_c, 0, 56, 62
1, 159583, Control_c, 0, 64, 98
1, 159642, Control_c, 0, 67, 77
1, 159657, Control_c, 0, 67, 77
1, 159687, Control_c, 0, 67, 76
1, 159717, Control_c, 0, 67, 75
1, 159753, Control_c, 0, 67, 75
1, 159815, Note_on_c, 0, 32, 53
1, 159827, Control_c, 0, 64, 95
1, 159842, Control_c, 0, 64, 86
1, 159857, Control_c, 0, 64, 73
1, 159857, Control_c, 0, 67, 74
1, 159871, Note_on_c, 0, 66, 60
1, 159872, Control_c, 0, 64, 62
1, 159872, Control_c, 0, 67, 73
1, 159887, Control_c, 0, 64, 53
1, 159887, Control_c, 0, 67, 73
1, 159897, Note_on_c, 0, 63, 42
1, 159902, Control_c, 0, 64, 50
1, 159902, Control_c, 0, 67, 71
1, 159917, Control_c, 0, 64, 52
1, 159917, Control_c, 0, 67, 71
1, 159931, Control_c, 0, 64, 57
1, 159931, Control_c, 0, 67, 70
1, 159946, Control_c, 0, 64, 61
1, 159946, Control_c, 0, 67, 70
1, 159952, Note_off_c, 0, 66, 63
1, 159961, Control_c, 0, 64, 64
1, 159961, Control_c, 0, 67, 69
1, 159964, Note_on_c, 0, 75, 63
1, 159976, Control_c, 0, 64, 68
1, 159976, Control_c, 0, 67, 68
1, 159990, Control_c, 0, 64, 72
1, 159990, Control_c, 0, 67, 68
1, 160004, Note_off_c, 0, 63, 37
1, 160005, Control_c, 0, 64, 75
1, 160005, Control_c, 0, 67, 67
1, 160020, Control_c, 0, 64, 78
1, 160020, Control_c, 0, 67, 66
1, 160035, Note_off_c, 0, 75, 64
1, 160035, Control_c, 0, 64, 80
1, 160047, Note_on_c, 0, 66, 67
1, 160050, Control_c, 0, 64, 81
1, 160064, Control_c, 0, 64, 83
1, 160079, Control_c, 0, 64, 84
1, 160129, Note_off_c, 0, 66, 53
1, 160138, Control_c, 0, 64, 83
1, 160153, Control_c, 0, 64, 76
1, 160168, Control_c, 0, 64, 66
1, 160172, Note_on_c, 0, 73, 55
1, 160179, Note_on_c, 0, 65, 51
1, 160182, Control_c, 0, 64, 51
1, 160186, Note_on_c, 0, 61, 41
1, 160198, Control_c, 0, 64, 33
1, 160213, Control_c, 0, 64, 0
1, 160243, Control_c, 0, 64, 41
1, 160258, Control_c, 0, 64, 57
1, 160258, Control_c, 0, 67, 66
1, 160272, Control_c, 0, 64, 66
1, 160287, Control_c, 0, 64, 74
1, 160302, Control_c, 0, 64, 82
1, 160303, Note_off_c, 0, 32, 61
1, 160317, Control_c, 0, 64, 90
1, 160332, Control_c, 0, 64, 98
1, 160340, Note_off_c, 0, 65, 60
1, 160341, Note_off_c, 0, 61, 60
1, 160342, Note_off_c, 0, 73, 63
1, 160346, Control_c, 0, 64, 107
1, 160361, Control_c, 0, 64, 127
1, 160391, Control_c, 0, 67, 66
1, 160406, Control_c, 0, 67, 67
1, 160502, Control_c, 0, 67, 66
1, 160532, Control_c, 0, 67, 66
1, 160542, Note_on_c, 0, 70, 53
1, 160572, Note_on_c, 0, 56, 28
1, 160576, Control_c, 0, 67, 65
1, 160584, Poly_aftertouch_c, 0, 66, 127
1, 160602, Note_on_c, 0, 60, 3
1, 160605, Control_c, 0, 67, 64
1, 160607, Poly_aftertouch_c, 0, 64, 127
1, 160643, Poly_aftertouch_c, 0, 68, 127
1, 160653, Note_off_c, 0, 60, 43
1, 160656, Poly_aftertouch_c, 0, 66, 0
1, 160665, Control_c, 0, 67, 64
1, 160695, Control_c, 0, 67, 63
1, 160697, Note_off_c, 0, 70, 34
1, 160716, Poly_aftertouch_c, 0, 68, 0
1, 160731, Note_on_c, 0, 65, 50
1, 160731, Poly_aftertouch_c, 0, 64, 0
1, 160738, Note_off_c, 0, 56, 40
1, 160739, Control_c, 0, 67, 62
1, 160752, Note_on_c, 0, 61, 41
1, 160799, Control_c, 0, 67, 62
1, 160843, Control_c, 0, 67, 61
1, 160873, Note_off_c, 0, 65, 33
1, 160873, Control_c, 0, 67, 60
1, 160901, Note_on_c, 0, 70, 54
1, 160902, Control_c, 0, 67, 60
1, 160917, Control_c, 0, 67, 59
1, 160921, Note_on_c, 0, 68, 31
1, 160927, Note_off_c, 0, 61, 35
1, 160930, Note_on_c, 0, 56, 37
1, 160931, Control_c, 0, 67, 58
1, 160946, Control_c, 0, 67, 57
1, 160961, Control_c, 0, 67, 56
1, 160963, Poly_aftertouch_c, 0, 64, 127
1, 160976, Control_c, 0, 67, 55
1, 160981, Poly_aftertouch_c, 0, 60, 127
1, 160991, Control_c, 0, 67, 54
1, 161007, Control_c, 0, 67, 54
1, 161020, Poly_aftertouch_c, 0, 60, 0
1, 161035, Note_off_c, 0, 68, 26
1, 161036, Control_c, 0, 67, 53
1, 161051, Control_c, 0, 67, 53
1, 161066, Control_c, 0, 67, 52
1, 161067, Note_off_c, 0, 70, 37
1, 161072, Note_on_c, 0, 65, 55
1, 161078, Note_on_c, 0, 61, 41
1, 161079, Poly_aftertouch_c, 0, 64, 0
1, 161094, Note_off_c, 0, 56, 40
1, 161095, Control_c, 0, 67, 51
1, 161125, Control_c, 0, 67, 51
1, 161140, Control_c, 0, 67, 49
1, 161155, Control_c, 0, 67, 49
1, 161169, Control_c, 0, 67, 48
1, 161199, Control_c, 0, 67, 47
1, 161214, Control_c, 0, 67, 47
1, 161251, Control_c, 0, 67, 46
1, 161266, Note_off_c, 0, 65, 30
1, 161266, Control_c, 0, 67, 45
1, 161282, Note_on_c, 0, 70, 50
1, 161300, Note_off_c, 0, 61, 36
1, 161303, Note_on_c, 0, 56, 39
1, 161310, Control_c, 0, 67, 45
1, 161315, Note_on_c, 0, 68, 18
1, 161358, Note_on_c, 0, 64, 10
1, 161384, Control_c, 0, 67, 44
1, 161385, Poly_aftertouch_c, 0, 60, 127
1, 161427, Poly_aftertouch_c, 0, 60, 0
1, 161444, Note_off_c, 0, 68, 40
1, 161711, Note_off_c, 0, 56, 41
1, 161713, Note_on_c, 0, 65, 41
1, 161725, Note_on_c, 0, 61, 37
1, 161768, Note_off_c, 0, 64, 40
1, 161813, Control_c, 0, 67, 43
1, 161816, Note_off_c, 0, 61, 59
1, 161822, Note_off_c, 0, 65, 61
1, 161843, Note_off_c, 0, 70, 60
1, 161843, Control_c, 0, 67, 43
1, 161857, Control_c, 0, 67, 42
1, 161872, Control_c, 0, 67, 41
1, 161902, Control_c, 0, 67, 41
1, 162102, Control_c, 0, 67, 41
1, 162122, Note_on_c, 0, 77, 57
1, 162137, Note_on_c, 0, 72, 44
1, 162145, Note_on_c, 0, 68, 42
1, 162150, Note_on_c, 0, 73, 24
1, 162185, Note_on_c, 0, 65, 3
1, 162219, Note_off_c, 0, 68, 53
1, 162224, Note_off_c, 0, 73, 39
1, 162233, Note_off_c, 0, 65, 45
1, 162236, Control_c, 0, 67, 41
1, 162251, Control_c, 0, 67, 40
1, 162266, Control_c, 0, 67, 39
1, 162281, Control_c, 0, 67, 39
1, 162295, Control_c, 0, 67, 38
1, 162310, Control_c, 0, 67, 37
1, 162325, Control_c, 0, 67, 0
1, 162429, Note_off_c, 0, 77, 62
1, 162509, Note_off_c, 0, 72, 59
1, 162628, Note_on_c, 0, 39, 73
1, 162681, Control_c, 0, 64, 105
1, 162696, Control_c, 0, 64, 79
1, 162711, Control_c, 0, 64, 63
1, 162734, Control_c, 0, 64, 44
1, 162749, Control_c, 0, 64, 0
1, 162822, Control_c, 0, 64, 40
1, 162837, Control_c, 0, 64, 54
1, 162852, Control_c, 0, 64, 63
1, 162867, Control_c, 0, 64, 68
1, 162870, Note_on_c, 0, 78, 75
1, 162877, Note_on_c, 0, 66, 59
1, 162881, Control_c, 0, 64, 71
1, 162884, Note_on_c, 0, 49, 53
1, 162886, Note_on_c, 0, 70, 58
1, 162896, Control_c, 0, 64, 74
1, 162911, Control_c, 0, 64, 78
1, 162925, Control_c, 0, 64, 83
1, 162940, Control_c, 0, 64, 87
1, 162955, Control_c, 0, 64, 92
1, 162969, Note_off_c, 0, 70, 57
1, 162970, Control_c, 0, 64, 97
1, 162976, Note_off_c, 0, 66, 62
1, 162985, Control_c, 0, 64, 101
1, 162987, Note_off_c, 0, 39, 54
1, 162996, Note_off_c, 0, 78, 60
1, 162999, Control_c, 0, 64, 107
1, 163014, Control_c, 0, 64, 113
1, 163029, Control_c, 0, 64, 127
1, 163069, Note_on_c, 0, 80, 87
1, 163079, Note_off_c, 0, 49, 62
1, 163085, Note_on_c, 0, 68, 64
1, 163085, Note_on_c, 0, 72, 46
1, 163095, Note_on_c, 0, 51, 58
1, 163115, Note_off_c, 0, 72, 58
1, 163154, Note_off_c, 0, 68, 62
1, 163164, Note_off_c, 0, 80, 63
1, 163184, Note_off_c, 0, 51, 60
1, 163239, Note_on_c, 0, 82, 86
1, 163244, Note_on_c, 0, 70, 76
1, 163251, Note_on_c, 0, 54, 65
1, 163251, Note_on_c, 0, 73, 73
1, 163289, Note_off_c, 0, 70, 56
1, 163305, Note_off_c, 0, 73, 61
1, 163314, Note_off_c, 0, 82, 61
1, 163398, Note_on_c, 0, 84, 95
1, 163404, Note_on_c, 0, 51, 67
1, 163404, Note_on_c, 0, 72, 77
1, 163413, Note_on_c, 0, 75, 69
1, 163443, Note_off_c, 0, 72, 61
1, 163449, Note_off_c, 0, 84, 64
1, 163463, Note_off_c, 0, 75, 61
1, 163544, Note_off_c, 0, 51, 60
1, 163556, Note_off_c, 0, 54, 60
1, 163559, Note_on_c, 0, 80, 90
1, 163563, Note_on_c, 0, 68, 82
1, 163568, Note_on_c, 0, 61, 71
1, 163568, Note_on_c, 0, 72, 70
1, 163602, Note_off_c, 0, 61, 62
1, 163661, Note_off_c, 0, 68, 59
1, 163685, Note_off_c, 0, 72, 62
1, 163691, Note_off_c, 0, 80, 61
1, 163744, Note_on_c, 0, 44, 70
1, 163767, Note_on_c, 0, 82, 93
1, 163777, Note_on_c, 0, 70, 81
1, 163778, Control_c, 0, 64, 82
1, 163787, Note_on_c, 0, 73, 75
1, 163793, Control_c, 0, 64, 62
1, 163808, Control_c, 0, 64, 43
1, 163822, Control_c, 0, 64, 39
1, 163837, Control_c, 0, 64, 43
1, 163852, Control_c, 0, 64, 55
1, 163867, Control_c, 0, 64, 64
1, 163882, Control_c, 0, 64, 71
1, 163893, Note_off_c, 0, 82, 61
1, 163896, Control_c, 0, 64, 76
1, 163903, Note_off_c, 0, 70, 64
1, 163911, Control_c, 0, 64, 79
1, 163926, Control_c, 0, 64, 81
1, 163931, Note_off_c, 0, 73, 63
1, 163941, Control_c, 0, 64, 83
1, 163956, Control_c, 0, 64, 85
1, 163971, Control_c, 0, 64, 87
1, 163986, Control_c, 0, 64, 89
1, 164000, Note_on_c, 0, 78, 91
1, 164001, Control_c, 0, 64, 90
1, 164008, Note_on_c, 0, 66, 78
1, 164010, Note_off_c, 0, 44, 62
1, 164012, Note_on_c, 0, 70, 76
1, 164015, Note_on_c, 0, 51, 60
1, 164015, Control_c, 0, 64, 91
1, 164030, Control_c, 0, 64, 92
1, 164045, Control_c, 0, 64, 94
1, 164060, Control_c, 0, 64, 95
1, 164075, Control_c, 0, 64, 98
1, 164089, Control_c, 0, 64, 101
1, 164104, Control_c, 0, 64, 106
1, 164119, Control_c, 0, 64, 112
1, 164134, Control_c, 0, 64, 120
1, 164148, Control_c, 0, 64, 127
1, 164149, Note_off_c, 0, 78, 58
1, 164153, Note_off_c, 0, 66, 59
1, 164165, Note_off_c, 0, 70, 62
1, 164230, Note_off_c, 0, 51, 60
1, 164266, Note_on_c, 0, 60, 58
1, 164273, Note_on_c, 0, 72, 71
1, 164273, Note_on_c, 0, 80, 92
1, 164277, Note_on_c, 0, 68, 73
1, 164387, Note_off_c, 0, 72, 59
1, 164393, Note_off_c, 0, 60, 0
1, 164393, Note_on_c, 0, 60, 13
1, 164416, Note_off_c, 0, 80, 67
1, 164421, Note_off_c, 0, 68, 61
1, 164584, Note_on_c, 0, 66, 69
1, 164643, Note_on_c, 0, 77, 92
1, 164652, Note_on_c, 0, 68, 73
1, 164653, Note_on_c, 0, 65, 66
1, 164654, Note_off_c, 0, 60, 61
1, 164675, Control_c, 0, 64, 113
1, 164690, Control_c, 0, 64, 94
1, 164704, Control_c, 0, 64, 76
1, 164719, Control_c, 0, 64, 66
1, 164734, Control_c, 0, 64, 60
1, 164749, Control_c, 0, 64, 60
1, 164764, Control_c, 0, 64, 61
1, 164779, Control_c, 0, 64, 63
1, 164793, Control_c, 0, 64, 67
1, 164808, Control_c, 0, 64, 72
1, 164823, Control_c, 0, 64, 78
1, 164838, Control_c, 0, 64, 82
1, 164853, Control_c, 0, 64, 85
1, 164868, Control_c, 0, 64, 87
1, 164883, Control_c, 0, 64, 90
1, 164897, Control_c, 0, 64, 94
1, 164912, Control_c, 0, 64, 97
1, 164927, Control_c, 0, 64, 99
1, 164957, Control_c, 0, 64, 101
1, 164975, Note_off_c, 0, 65, 47
1, 165009, Control_c, 0, 64, 103
1, 165068, Control_c, 0, 64, 105
1, 165120, Note_off_c, 0, 68, 49
1, 165185, Note_on_c, 0, 60, 53
1, 165222, Note_off_c, 0, 66, 52
1, 165264, Note_off_c, 0, 77, 54
1, 165542, Control_c, 0, 64, 103
1, 165586, Control_c, 0, 64, 101
1, 165631, Control_c, 0, 64, 98
1, 165675, Control_c, 0, 64, 96
1, 165690, Control_c, 0, 64, 95
1, 165705, Control_c, 0, 64, 94
1, 165727, Control_c, 0, 64, 92
1, 165741, Control_c, 0, 64, 91
1, 165756, Control_c, 0, 64, 90
1, 165771, Control_c, 0, 64, 89
1, 165780, Note_on_c, 0, 66, 49
1, 165780, Note_on_c, 0, 75, 59
1, 165786, Control_c, 0, 64, 87
1, 165802, Control_c, 0, 64, 86
1, 165805, Note_on_c, 0, 63, 28
1, 165816, Control_c, 0, 64, 84
1, 165831, Control_c, 0, 64, 83
1, 165846, Control_c, 0, 64, 82
1, 165861, Control_c, 0, 64, 81
1, 165876, Control_c, 0, 64, 80
1, 165890, Control_c, 0, 64, 79
1, 165905, Control_c, 0, 64, 79
1, 165921, Control_c, 0, 64, 78
1, 165921, Control_c, 0, 67, 42
1, 165936, Control_c, 0, 64, 76
1, 165936, Control_c, 0, 67, 47
1, 165950, Control_c, 0, 64, 75
1, 165950, Control_c, 0, 67, 51
1, 165965, Control_c, 0, 64, 75
1, 165965, Control_c, 0, 67, 58
1, 165980, Control_c, 0, 64, 74
1, 165980, Control_c, 0, 67, 68
1, 165995, Control_c, 0, 64, 73
1, 165995, Control_c, 0, 67, 77
1, 166010, Control_c, 0, 64, 72
1, 166010, Control_c, 0, 67, 85
1, 166025, Control_c, 0, 64, 71
1, 166025, Control_c, 0, 67, 93
1, 166040, Control_c, 0, 64, 70
1, 166040, Control_c, 0, 67, 101
1, 166054, Control_c, 0, 64, 69
1, 166054, Control_c, 0, 67, 109
1, 166069, Control_c, 0, 64, 68
1, 166069, Control_c, 0, 67, 117
1, 166084, Control_c, 0, 64, 67
1, 166084, Control_c, 0, 67, 124
1, 166099, Control_c, 0, 64, 67
1, 166099, Control_c, 0, 67, 127
1, 166114, Control_c, 0, 64, 66
1, 166129, Control_c, 0, 64, 66
1, 166173, Control_c, 0, 64, 65
1, 166203, Control_c, 0, 64, 65
1, 166224, Note_on_c, 0, 56, 37
1, 166232, Control_c, 0, 64, 64
1, 166262, Control_c, 0, 64, 64
1, 166277, Control_c, 0, 64, 63
1, 166291, Control_c, 0, 64, 63
1, 166306, Control_c, 0, 64, 62
1, 166321, Control_c, 0, 64, 61
1, 166336, Control_c, 0, 64, 59
1, 166350, Control_c, 0, 64, 57
1, 166365, Control_c, 0, 64, 57
1, 166380, Control_c, 0, 64, 56
1, 166395, Control_c, 0, 64, 56
1, 166410, Control_c, 0, 64, 55
1, 166424, Control_c, 0, 64, 55
1, 166439, Control_c, 0, 64, 54
1, 166454, Control_c, 0, 64, 54
1, 166536, Control_c, 0, 64, 54
1, 166550, Control_c, 0, 64, 56
1, 166565, Control_c, 0, 64, 59
1, 166580, Control_c, 0, 64, 62
1, 166596, Control_c, 0, 64, 65
1, 166611, Control_c, 0, 64, 69
1, 166626, Control_c, 0, 64, 73
1, 166641, Control_c, 0, 64, 76
1, 166655, Control_c, 0, 64, 79
1, 166670, Control_c, 0, 64, 81
1, 166673, Note_off_c, 0, 60, 34
1, 166685, Control_c, 0, 64, 84
1, 166700, Control_c, 0, 64, 87
1, 166714, Control_c, 0, 64, 90
1, 166721, Note_off_c, 0, 56, 31
1, 166729, Control_c, 0, 64, 93
1, 166744, Control_c, 0, 64, 96
1, 166759, Control_c, 0, 64, 98
1, 166788, Control_c, 0, 64, 100
1, 166833, Control_c, 0, 64, 103
1, 166877, Control_c, 0, 64, 105
1, 166985, Note_off_c, 0, 75, 49
1, 167065, Note_off_c, 0, 66, 32
1, 167566, Note_off_c, 0, 63, 39
1, 167922, Control_c, 0, 64, 103
1, 168034, Control_c, 0, 64, 101
1, 168078, Control_c, 0, 64, 99
1, 168122, Control_c, 0, 64, 96
1, 168137, Control_c, 0, 64, 95
1, 168152, Control_c, 0, 64, 94
1, 168167, Control_c, 0, 64, 93
1, 168182, Control_c, 0, 64, 92
1, 168198, Control_c, 0, 64, 91
1, 168213, Control_c, 0, 64, 91
1, 168227, Control_c, 0, 64, 90
1, 168242, Control_c, 0, 64, 89
1, 168257, Control_c, 0, 64, 89
1, 168287, Control_c, 0, 64, 88
1, 168331, Control_c, 0, 64, 88
1, 168360, Control_c, 0, 64, 87
1, 168405, Control_c, 0, 64, 87
1, 168434, Control_c, 0, 64, 86
1, 168449, Control_c, 0, 64, 86
1, 168464, Control_c, 0, 64, 84
1, 168478, Note_on_c, 0, 37, 42
1, 168479, Control_c, 0, 64, 81
1, 168493, Control_c, 0, 64, 76
1, 168508, Control_c, 0, 64, 70
1, 168523, Control_c, 0, 64, 64
1, 168538, Control_c, 0, 64, 58
1, 168552, Control_c, 0, 64, 54
1, 168567, Control_c, 0, 64, 52
1, 168582, Control_c, 0, 64, 50
1, 168597, Control_c, 0, 64, 48
1, 168612, Control_c, 0, 64, 45
1, 168627, Control_c, 0, 64, 41
1, 168642, Control_c, 0, 64, 37
1, 168645, Note_on_c, 0, 66, 57
1, 168645, Note_on_c, 0, 68, 52
1, 168657, Control_c, 0, 64, 34
1, 168672, Control_c, 0, 64, 31
1, 168701, Control_c, 0, 64, 29
1, 168752, Control_c, 0, 64, 0
1, 168791, Note_on_c, 0, 65, 45
1, 168857, Note_off_c, 0, 66, 24
1, 168940, Note_off_c, 0, 65, 50
1, 168952, Note_on_c, 0, 63, 50
1, 168961, Control_c, 0, 64, 41
1, 168966, Note_on_c, 0, 44, 26
1, 168976, Control_c, 0, 64, 53
1, 168991, Control_c, 0, 64, 61
1, 168995, Note_off_c, 0, 37, 44
1, 169006, Control_c, 0, 64, 62
1, 169021, Control_c, 0, 64, 63
1, 169056, Note_off_c, 0, 63, 60
1, 169065, Control_c, 0, 64, 63
1, 169078, Note_off_c, 0, 68, 59
1, 169106, Note_on_c, 0, 61, 48
1, 169179, Note_off_c, 0, 44, 54
1, 169184, Control_c, 0, 64, 63
1, 169190, Note_off_c, 0, 61, 54
1, 169199, Control_c, 0, 64, 62
1, 169214, Control_c, 0, 64, 59
1, 169223, Note_on_c, 0, 60, 49
1, 169229, Control_c, 0, 64, 53
1, 169236, Note_on_c, 0, 53, 41
1, 169243, Control_c, 0, 64, 45
1, 169258, Control_c, 0, 64, 32
1, 169273, Control_c, 0, 64, 0
1, 169294, Note_off_c, 0, 53, 54
1, 169338, Note_off_c, 0, 60, 35
1, 169372, Note_on_c, 0, 58, 51
1, 169377, Note_on_c, 0, 54, 40
1, 169396, Note_off_c, 0, 58, 56
1, 169407, Note_off_c, 0, 54, 49
1, 169643, Note_on_c, 0, 54, 40
1, 169643, Note_on_c, 0, 58, 47
1, 169648, Note_on_c, 0, 61, 49
1, 169657, Note_on_c, 0, 51, 47
1, 169669, Note_off_c, 0, 58, 54
1, 169672, Note_off_c, 0, 54, 50
1, 169673, Note_off_c, 0, 61, 58
1, 169688, Note_off_c, 0, 51, 54
1, 169919, Note_on_c, 0, 54, 46
1, 169925, Note_on_c, 0, 56, 54
1, 169929, Note_on_c, 0, 60, 42
1, 169946, Note_off_c, 0, 54, 53
1, 169948, Note_off_c, 0, 56, 59
1, 169956, Note_off_c, 0, 60, 52
1, 170224, Note_on_c, 0, 37, 47
1, 170371, Note_on_c, 0, 68, 64
1, 170374, Note_on_c, 0, 66, 68
1, 170440, Note_off_c, 0, 66, 55
1, 170508, Note_on_c, 0, 65, 48
1, 170633, Note_off_c, 0, 65, 54
1, 170636, Control_c, 0, 64, 35
1, 170651, Control_c, 0, 64, 49
1, 170654, Note_on_c, 0, 44, 33
1, 170656, Note_on_c, 0, 63, 47
1, 170666, Control_c, 0, 64, 58
1, 170681, Control_c, 0, 64, 60
1, 170681, Note_off_c, 0, 37, 52
1, 170696, Control_c, 0, 64, 61
1, 170711, Control_c, 0, 64, 62
1, 170725, Control_c, 0, 64, 62
1, 170740, Control_c, 0, 64, 63
1, 170755, Control_c, 0, 64, 63
1, 170764, Note_off_c, 0, 63, 57
1, 170770, Control_c, 0, 64, 64
1, 170779, Note_off_c, 0, 68, 59
1, 170793, Note_on_c, 0, 61, 48
1, 170854, Note_off_c, 0, 44, 62
1, 170877, Note_off_c, 0, 61, 54
1, 170920, Note_on_c, 0, 53, 41
1, 170920, Note_on_c, 0, 60, 50
1, 170947, Control_c, 0, 64, 63
1, 170970, Control_c, 0, 64, 62
1, 170972, Note_off_c, 0, 53, 59
1, 170985, Control_c, 0, 64, 61
1, 171000, Control_c, 0, 64, 57
1, 171003, Note_off_c, 0, 60, 49
1, 171014, Control_c, 0, 64, 50
1, 171029, Control_c, 0, 64, 37
1, 171044, Control_c, 0, 64, 0
1, 171071, Note_on_c, 0, 58, 52
1, 171077, Note_on_c, 0, 54, 26
1, 171095, Note_off_c, 0, 58, 58
1, 171116, Note_off_c, 0, 54, 31
1, 171333, Note_on_c, 0, 61, 51
1, 171345, Note_on_c, 0, 51, 46
1, 171345, Note_on_c, 0, 54, 37
1, 171347, Note_on_c, 0, 58, 35
1, 171357, Note_off_c, 0, 61, 60
1, 171360, Note_off_c, 0, 58, 39
1, 171375, Note_off_c, 0, 51, 53
1, 171381, Note_off_c, 0, 54, 33
1, 171604, Note_on_c, 0, 54, 48
1, 171611, Note_on_c, 0, 56, 54
1, 171615, Note_on_c, 0, 60, 45
1, 171629, Note_off_c, 0, 54, 55
1, 171634, Note_off_c, 0, 56, 58
1, 171641, Note_off_c, 0, 60, 53
1, 171793, Control_c, 0, 67, 117
1, 171808, Control_c, 0, 67, 101
1, 171822, Control_c, 0, 67, 84
1, 171837, Control_c, 0, 67, 66
1, 171852, Control_c, 0, 67, 47
1, 171867, Control_c, 0, 67, 37
1, 171882, Control_c, 0, 67, 0
1, 171911, Note_on_c, 0, 37, 48
1, 171985, Control_c, 0, 67, 37
1, 172000, Control_c, 0, 67, 39
1, 172015, Control_c, 0, 67, 39
1, 172030, Control_c, 0, 67, 40
1, 172044, Control_c, 0, 67, 41
1, 172047, Note_on_c, 0, 72, 77
1, 172063, Note_on_c, 0, 70, 65
1, 172074, Control_c, 0, 67, 41
1, 172102, Note_off_c, 0, 70, 54
1, 172118, Control_c, 0, 64, 35
1, 172133, Control_c, 0, 64, 50
1, 172148, Control_c, 0, 64, 60
1, 172162, Control_c, 0, 64, 62
1, 172162, Control_c, 0, 67, 42
1, 172178, Control_c, 0, 64, 63
1, 172184, Note_on_c, 0, 68, 47
1, 172193, Control_c, 0, 64, 63
1, 172208, Control_c, 0, 64, 64
1, 172238, Control_c, 0, 64, 64
1, 172256, Note_off_c, 0, 72, 56
1, 172267, Control_c, 0, 64, 65
1, 172297, Control_c, 0, 64, 65
1, 172311, Control_c, 0, 64, 66
1, 172317, Note_off_c, 0, 68, 53
1, 172326, Control_c, 0, 64, 66
1, 172328, Note_on_c, 0, 66, 53
1, 172344, Note_off_c, 0, 37, 54
1, 172348, Note_on_c, 0, 44, 40
1, 172356, Control_c, 0, 64, 67
1, 172370, Note_off_c, 0, 66, 66
1, 172371, Control_c, 0, 64, 67
1, 172386, Control_c, 0, 64, 68
1, 172401, Control_c, 0, 67, 43
1, 172416, Control_c, 0, 64, 68
1, 172431, Control_c, 0, 67, 43
1, 172467, Control_c, 0, 64, 68
1, 172467, Control_c, 0, 67, 44
1, 172469, Note_on_c, 0, 68, 63
1, 172482, Control_c, 0, 64, 67
1, 172487, Note_on_c, 0, 65, 48
1, 172497, Control_c, 0, 64, 64
1, 172511, Control_c, 0, 64, 59
1, 172511, Control_c, 0, 67, 45
1, 172526, Control_c, 0, 64, 55
1, 172541, Control_c, 0, 64, 54
1, 172556, Control_c, 0, 64, 54
1, 172560, Note_off_c, 0, 44, 62
1, 172571, Control_c, 0, 64, 55
1, 172586, Control_c, 0, 64, 56
1, 172591, Note_off_c, 0, 65, 51
1, 172600, Control_c, 0, 64, 56
1, 172606, Note_on_c, 0, 53, 51
1, 172613, Note_on_c, 0, 61, 58
1, 172645, Control_c, 0, 67, 45
1, 172648, Note_off_c, 0, 53, 61
1, 172660, Control_c, 0, 64, 57
1, 172664, Note_off_c, 0, 61, 55
1, 172675, Control_c, 0, 64, 58
1, 172690, Control_c, 0, 64, 58
1, 172720, Control_c, 0, 64, 57
1, 172735, Control_c, 0, 64, 52
1, 172745, Note_on_c, 0, 54, 56
1, 172750, Control_c, 0, 64, 42
1, 172751, Note_on_c, 0, 58, 62
1, 172764, Control_c, 0, 64, 0
1, 172769, Note_off_c, 0, 68, 62
1, 172773, Note_off_c, 0, 58, 63
1, 172775, Note_off_c, 0, 54, 64
1, 172927, Control_c, 0, 67, 46
1, 172957, Control_c, 0, 67, 47
1, 173006, Note_on_c, 0, 58, 57
1, 173018, Note_on_c, 0, 61, 43
1, 173018, Note_on_c, 0, 66, 53
1, 173021, Note_on_c, 0, 51, 54
1, 173027, Note_off_c, 0, 58, 60
1, 173041, Note_off_c, 0, 66, 59
1, 173045, Note_off_c, 0, 61, 53
1, 173048, Note_off_c, 0, 51, 56
1, 173247, Control_c, 0, 67, 47
1, 173282, Note_on_c, 0, 56, 70
1, 173287, Note_on_c, 0, 60, 59
1, 173295, Note_on_c, 0, 66, 61
1, 173306, Control_c, 0, 67, 47
1, 173308, Note_off_c, 0, 60, 62
1, 173313, Note_off_c, 0, 56, 66
1, 173315, Note_off_c, 0, 66, 62
1, 173321, Control_c, 0, 67, 46
1, 173350, Control_c, 0, 67, 45
1, 173513, Control_c, 0, 67, 45
1, 173581, Note_on_c, 0, 37, 67
1, 173706, Note_on_c, 0, 72, 80
1, 173717, Note_on_c, 0, 70, 72
1, 173720, Control_c, 0, 67, 44
1, 173734, Control_c, 0, 64, 40
1, 173749, Control_c, 0, 64, 53
1, 173764, Control_c, 0, 64, 58
1, 173780, Control_c, 0, 64, 59
1, 173795, Control_c, 0, 64, 60
1, 173802, Note_off_c, 0, 70, 52
1, 173810, Control_c, 0, 64, 61
1, 173810, Control_c, 0, 67, 43
1, 173825, Control_c, 0, 64, 62
1, 173839, Control_c, 0, 64, 62
1, 173848, Note_on_c, 0, 68, 50
1, 173854, Control_c, 0, 64, 63
1, 173869, Control_c, 0, 64, 63
1, 173883, Control_c, 0, 64, 64
1, 173891, Note_off_c, 0, 72, 60
1, 173898, Control_c, 0, 64, 65
1, 173913, Control_c, 0, 64, 66
1, 173928, Control_c, 0, 64, 66
1, 173943, Control_c, 0, 64, 67
1, 173965, Control_c, 0, 64, 67
1, 173980, Control_c, 0, 64, 68
1, 173994, Note_off_c, 0, 68, 44
1, 173995, Control_c, 0, 64, 68
1, 174000, Note_on_c, 0, 66, 59
1, 174016, Note_on_c, 0, 44, 49
1, 174047, Note_off_c, 0, 66, 62
1, 174052, Note_off_c, 0, 37, 37
1, 174083, Control_c, 0, 64, 68
1, 174127, Note_on_c, 0, 68, 69
1, 174143, Note_on_c, 0, 65, 60
1, 174143, Control_c, 0, 64, 67
1, 174157, Control_c, 0, 64, 66
1, 174157, Control_c, 0, 67, 43
1, 174171, Control_c, 0, 64, 65
1, 174171, Control_c, 0, 67, 42
1, 174186, Control_c, 0, 64, 63
1, 174186, Control_c, 0, 67, 41
1, 174201, Control_c, 0, 64, 62
1, 174216, Control_c, 0, 64, 60
1, 174216, Control_c, 0, 67, 41
1, 174224, Note_off_c, 0, 44, 63
1, 174231, Control_c, 0, 64, 59
1, 174231, Control_c, 0, 67, 39
1, 174246, Control_c, 0, 64, 58
1, 174246, Control_c, 0, 67, 38
1, 174248, Note_off_c, 0, 65, 60
1, 174253, Note_on_c, 0, 53, 64
1, 174258, Note_on_c, 0, 61, 67
1, 174261, Control_c, 0, 64, 59
1, 174261, Control_c, 0, 67, 0
1, 174290, Control_c, 0, 64, 59
1, 174291, Note_off_c, 0, 53, 59
1, 174305, Control_c, 0, 64, 60
1, 174320, Control_c, 0, 64, 61
1, 174335, Control_c, 0, 64, 62
1, 174339, Note_off_c, 0, 61, 55
1, 174349, Control_c, 0, 64, 63
1, 174379, Control_c, 0, 64, 60
1, 174394, Control_c, 0, 64, 46
1, 174396, Note_on_c, 0, 58, 70
1, 174397, Note_on_c, 0, 54, 69
1, 174404, Note_off_c, 0, 68, 53
1, 174409, Control_c, 0, 64, 0
1, 174424, Note_off_c, 0, 54, 65
1, 174426, Note_off_c, 0, 58, 65
1, 174651, Note_on_c, 0, 58, 64
1, 174654, Note_on_c, 0, 51, 71
1, 174658, Note_on_c, 0, 66, 60
1, 174666, Note_on_c, 0, 61, 43
1, 174670, Note_off_c, 0, 58, 62
1, 174678, Note_off_c, 0, 66, 63
1, 174682, Note_off_c, 0, 51, 65
1, 174694, Note_off_c, 0, 61, 53
1, 174928, Note_on_c, 0, 56, 77
1, 174932, Note_on_c, 0, 66, 72
1, 174935, Note_on_c, 0, 60, 63
1, 174949, Note_off_c, 0, 56, 65
1, 174955, Note_off_c, 0, 60, 64
1, 174957, Note_off_c, 0, 66, 68
1, 175203, Note_on_c, 0, 37, 75
1, 175330, Note_on_c, 0, 75, 90
1, 175344, Note_on_c, 0, 73, 75
1, 175350, Control_c, 0, 64, 31
1, 175361, Note_on_c, 0, 44, 57
1, 175361, Note_off_c, 0, 37, 59
1, 175365, Control_c, 0, 64, 54
1, 175381, Control_c, 0, 64, 60
1, 175395, Control_c, 0, 64, 61
1, 175410, Control_c, 0, 64, 63
1, 175425, Control_c, 0, 64, 64
1, 175435, Note_off_c, 0, 44, 64
1, 175440, Control_c, 0, 64, 66
1, 175445, Note_off_c, 0, 75, 61
1, 175462, Control_c, 0, 64, 68
1, 175472, Note_on_c, 0, 47, 61
1, 175474, Note_off_c, 0, 73, 58
1, 175476, Note_on_c, 0, 70, 68
1, 175477, Control_c, 0, 64, 69
1, 175492, Control_c, 0, 64, 71
1, 175503, Note_off_c, 0, 47, 66
1, 175507, Control_c, 0, 64, 73
1, 175522, Control_c, 0, 64, 74
1, 175536, Control_c, 0, 64, 76
1, 175549, Note_off_c, 0, 70, 57
1, 175551, Control_c, 0, 64, 77
1, 175566, Control_c, 0, 64, 78
1, 175601, Note_on_c, 0, 73, 77
1, 175611, Note_on_c, 0, 49, 68
1, 175611, Note_on_c, 0, 72, 82
1, 175625, Control_c, 0, 64, 69
1, 175640, Control_c, 0, 64, 49
1, 175654, Control_c, 0, 64, 0
1, 175713, Note_off_c, 0, 49, 60
1, 175726, Note_on_c, 0, 53, 52
1, 175728, Control_c, 0, 64, 49
1, 175743, Control_c, 0, 64, 61
1, 175754, Note_on_c, 0, 68, 67
1, 175754, Note_off_c, 0, 73, 61
1, 175758, Control_c, 0, 64, 62
1, 175773, Control_c, 0, 64, 63
1, 175788, Note_off_c, 0, 72, 60
1, 175802, Control_c, 0, 64, 63
1, 175817, Note_off_c, 0, 68, 62
1, 175817, Control_c, 0, 64, 64
1, 175827, Note_off_c, 0, 53, 61
1, 175862, Control_c, 0, 64, 64
1, 175865, Note_on_c, 0, 59, 66
1, 175881, Note_on_c, 0, 70, 74
1, 175882, Note_on_c, 0, 65, 59
1, 175900, Note_off_c, 0, 59, 63
1, 175909, Note_off_c, 0, 65, 64
1, 175936, Control_c, 0, 64, 61
1, 175945, Note_off_c, 0, 70, 61
1, 175951, Control_c, 0, 64, 44
1, 175966, Control_c, 0, 64, 0
1, 176005, Note_on_c, 0, 58, 70
1, 176011, Note_on_c, 0, 66, 69
1, 176029, Note_off_c, 0, 66, 66
1, 176032, Note_off_c, 0, 58, 66
1, 176283, Note_on_c, 0, 66, 64
1, 176283, Note_on_c, 0, 78, 69
1, 176289, Note_on_c, 0, 73, 56
1, 176290, Note_on_c, 0, 58, 47
1, 176291, Note_on_c, 0, 51, 57
1, 176295, Note_on_c, 0, 63, 46
1, 176302, Note_off_c, 0, 66, 65
1, 176308, Note_off_c, 0, 73, 63
1, 176308, Note_off_c, 0, 78, 68
1, 176315, Note_off_c, 0, 58, 52
1, 176319, Note_off_c, 0, 51, 61
1, 176322, Note_off_c, 0, 63, 36
1, 176547, Note_on_c, 0, 63, 64
1, 176550, Note_on_c, 0, 78, 65
1, 176552, Note_on_c, 0, 66, 64
1, 176553, Note_on_c, 0, 56, 60
1, 176562, Note_on_c, 0, 72, 48
1, 176571, Note_off_c, 0, 63, 64
1, 176571, Note_off_c, 0, 66, 65
1, 176574, Note_off_c, 0, 56, 61
1, 176576, Note_off_c, 0, 78, 63
1, 176587, Note_off_c, 0, 72, 56
1, 176848, Note_on_c, 0, 37, 89
1, 176991, Note_on_c, 0, 75, 89
1, 177006, Note_on_c, 0, 73, 72
1, 177014, Note_on_c, 0, 44, 67
1, 177020, Note_off_c, 0, 37, 58
1, 177034, Control_c, 0, 64, 40
1, 177048, Control_c, 0, 64, 54
1, 177063, Control_c, 0, 64, 57
1, 177078, Control_c, 0, 64, 59
1, 177092, Note_off_c, 0, 75, 59
1, 177093, Control_c, 0, 64, 61
1, 177100, Note_off_c, 0, 44, 64
1, 177108, Control_c, 0, 64, 64
1, 177123, Control_c, 0, 64, 66
1, 177123, Note_on_c, 0, 47, 66
1, 177125, Note_off_c, 0, 73, 51
1, 177128, Note_on_c, 0, 70, 73
1, 177137, Control_c, 0, 64, 68
1, 177152, Control_c, 0, 64, 71
1, 177153, Note_off_c, 0, 47, 65
1, 177167, Control_c, 0, 64, 73
1, 177182, Control_c, 0, 64, 74
1, 177212, Control_c, 0, 64, 74
1, 177220, Note_off_c, 0, 70, 56
1, 177227, Control_c, 0, 64, 74
1, 177242, Control_c, 0, 64, 72
1, 177254, Note_on_c, 0, 49, 73
1, 177256, Note_on_c, 0, 72, 89
1, 177256, Control_c, 0, 64, 60
1, 177257, Note_on_c, 0, 73, 79
1, 177271, Control_c, 0, 64, 0
1, 177345, Control_c, 0, 64, 50
1, 177360, Control_c, 0, 64, 62
1, 177366, Note_off_c, 0, 49, 58
1, 177370, Note_on_c, 0, 53, 39
1, 177374, Control_c, 0, 64, 63
1, 177387, Note_on_c, 0, 68, 71
1, 177392, Note_off_c, 0, 73, 58
1, 177409, Note_off_c, 0, 72, 57
1, 177433, Poly_aftertouch_c, 0, 51, 0
1, 177454, Note_off_c, 0, 68, 62
1, 177475, Note_off_c, 0, 53, 61
1, 177507, Note_on_c, 0, 59, 72
1, 177517, Note_on_c, 0, 70, 78
1, 177518, Note_on_c, 0, 65, 63
1, 177546, Note_off_c, 0, 65, 65
1, 177549, Note_off_c, 0, 59, 57
1, 177596, Note_off_c, 0, 70, 58
1, 177626, Control_c, 0, 64, 59
1, 177641, Control_c, 0, 64, 33
1, 177653, Note_on_c, 0, 58, 80
1, 177654, Note_on_c, 0, 66, 78
1, 177656, Control_c, 0, 64, 0
1, 177677, Note_off_c, 0, 66, 71
1, 177679, Note_off_c, 0, 58, 67
1, 177921, Note_on_c, 0, 78, 79
1, 177924, Note_on_c, 0, 66, 71
1, 177924, Note_on_c, 0, 73, 69
1, 177925, Note_on_c, 0, 58, 65
1, 177925, Note_on_c, 0, 63, 63
1, 177939, Note_off_c, 0, 78, 70
1, 177941, Note_off_c, 0, 66, 67
1, 177943, Note_on_c, 0, 51, 45
1, 177945, Note_off_c, 0, 63, 63
1, 177947, Note_off_c, 0, 58, 64
1, 177948, Note_off_c, 0, 73, 65
1, 177976, Note_off_c, 0, 51, 53
1, 178182, Note_on_c, 0, 63, 76
1, 178184, Note_on_c, 0, 78, 77
1, 178187, Note_on_c, 0, 56, 77
1, 178187, Note_on_c, 0, 72, 74
1, 178190, Note_on_c, 0, 66, 66
1, 178206, Note_off_c, 0, 63, 69
1, 178206, Note_off_c, 0, 78, 65
1, 178208, Note_off_c, 0, 66, 64
1, 178208, Note_off_c, 0, 72, 69
1, 178215, Note_off_c, 0, 56, 68
1, 178475, Note_on_c, 0, 37, 90
1, 178477, Note_on_c, 0, 49, 93
1, 178526, Note_off_c, 0, 37, 61
1, 178532, Note_off_c, 0, 49, 60
1, 178560, Control_c, 0, 64, 58
1, 178576, Control_c, 0, 64, 73
1, 178591, Control_c, 0, 64, 75
1, 178606, Control_c, 0, 64, 76
1, 178611, Note_on_c, 0, 80, 85
1, 178616, Note_on_c, 0, 68, 85
1, 178621, Control_c, 0, 64, 77
1, 178623, Note_on_c, 0, 78, 75
1, 178635, Control_c, 0, 64, 81
1, 178650, Note_off_c, 0, 68, 55
1, 178651, Control_c, 0, 64, 84
1, 178666, Control_c, 0, 64, 86
1, 178673, Note_off_c, 0, 80, 62
1, 178680, Control_c, 0, 64, 88
1, 178685, Note_off_c, 0, 78, 59
1, 178695, Control_c, 0, 64, 89
1, 178710, Control_c, 0, 64, 91
1, 178725, Control_c, 0, 64, 92
1, 178738, Note_on_c, 0, 75, 89
1, 178740, Control_c, 0, 64, 94
1, 178754, Control_c, 0, 64, 96
1, 178769, Control_c, 0, 64, 98
1, 178784, Control_c, 0, 64, 101
1, 178792, Note_off_c, 0, 75, 58
1, 178799, Control_c, 0, 64, 103
1, 178828, Control_c, 0, 64, 106
1, 178843, Control_c, 0, 64, 108
1, 178858, Control_c, 0, 64, 115
1, 178872, Control_c, 0, 64, 127
1, 178879, Note_on_c, 0, 77, 89
1, 178882, Poly_aftertouch_c, 0, 78, 0
1, 178886, Note_on_c, 0, 76, 81
1, 178907, Note_off_c, 0, 76, 71
1, 178913, Note_off_c, 0, 77, 67
1, 179012, Note_on_c, 0, 80, 79
1, 179013, Note_on_c, 0, 75, 83
1, 179072, Note_off_c, 0, 75, 61
1, 179082, Note_off_c, 0, 80, 59
1, 179137, Note_on_c, 0, 73, 89
1, 179179, Note_off_c, 0, 73, 63
1, 179290, Note_on_c, 0, 71, 91
1, 179295, Control_c, 0, 64, 79
1, 179308, Note_off_c, 0, 71, 73
1, 179310, Control_c, 0, 64, 36
1, 179325, Control_c, 0, 64, 0
1, 179543, Note_on_c, 0, 83, 94
1, 179546, Note_on_c, 0, 71, 86
1, 179546, Note_on_c, 0, 74, 88
1, 179551, Note_on_c, 0, 62, 78
1, 179554, Note_on_c, 0, 55, 65
1, 179564, Note_off_c, 0, 74, 74
1, 179564, Note_off_c, 0, 71, 71
1, 179571, Note_off_c, 0, 62, 71
1, 179585, Note_off_c, 0, 55, 64
1, 179587, Note_off_c, 0, 83, 63
1, 179808, Note_on_c, 0, 68, 85
1, 179809, Note_on_c, 0, 63, 86
1, 179811, Note_on_c, 0, 72, 94
1, 179811, Note_on_c, 0, 78, 97
1, 179811, Note_on_c, 0, 84, 93
1, 179811, Note_on_c, 0, 56, 82
1, 179826, Note_off_c, 0, 72, 75
1, 179826, Note_off_c, 0, 68, 73
1, 179827, Note_off_c, 0, 63, 71
1, 179830, Note_off_c, 0, 84, 63
1, 179835, Note_off_c, 0, 56, 66
1, 179843, Note_off_c, 0, 78, 59
1, 180080, Note_on_c, 0, 49, 103
1, 180081, Note_on_c, 0, 37, 100
1, 180111, Note_off_c, 0, 37, 65
1, 180118, Control_c, 0, 64, 31
1, 180119, Note_off_c, 0, 49, 61
1, 180133, Control_c, 0, 64, 59
1, 180147, Control_c, 0, 64, 66
1, 180162, Control_c, 0, 64, 68
1, 180178, Control_c, 0, 64, 69
1, 180193, Control_c, 0, 64, 71
1, 180207, Control_c, 0, 64, 75
1, 180216, Note_on_c, 0, 68, 95
1, 180217, Note_on_c, 0, 80, 88
1, 180222, Control_c, 0, 64, 79
1, 180223, Note_on_c, 0, 78, 83
1, 180237, Control_c, 0, 64, 84
1, 180250, Note_off_c, 0, 68, 58
1, 180251, Control_c, 0, 64, 89
1, 180266, Control_c, 0, 64, 93
1, 180274, Note_off_c, 0, 80, 63
1, 180281, Control_c, 0, 64, 96
1, 180284, Note_off_c, 0, 78, 58
1, 180296, Control_c, 0, 64, 99
1, 180311, Control_c, 0, 64, 102
1, 180325, Control_c, 0, 64, 105
1, 180338, Note_on_c, 0, 75, 94
1, 180340, Control_c, 0, 64, 107
1, 180355, Control_c, 0, 64, 110
1, 180370, Control_c, 0, 64, 114
1, 180385, Control_c, 0, 64, 116
1, 180399, Control_c, 0, 64, 119
1, 180402, Note_off_c, 0, 75, 57
1, 180429, Control_c, 0, 64, 122
1, 180443, Control_c, 0, 64, 127
1, 180471, Note_on_c, 0, 77, 104
1, 180507, Note_off_c, 0, 77, 71
1, 180604, Note_on_c, 0, 80, 86
1, 180606, Note_on_c, 0, 75, 89
1, 180675, Note_off_c, 0, 75, 59
1, 180685, Note_off_c, 0, 80, 62
1, 180739, Note_on_c, 0, 73, 92
1, 180780, Note_off_c, 0, 73, 65
1, 180882, Note_on_c, 0, 71, 108
1, 180909, Note_off_c, 0, 71, 70
1, 180911, Control_c, 0, 64, 70
1, 180925, Control_c, 0, 64, 0
1, 181135, Note_on_c, 0, 83, 106
1, 181138, Note_on_c, 0, 74, 103
1, 181138, Note_on_c, 0, 71, 103
1, 181142, Note_on_c, 0, 55, 86
1, 181145, Note_on_c, 0, 62, 93
1, 181148, Control_c, 0, 64, 31
1, 181163, Control_c, 0, 64, 65
1, 181167, Note_off_c, 0, 71, 67
1, 181174, Note_off_c, 0, 74, 70
1, 181176, Note_off_c, 0, 62, 68
1, 181177, Note_off_c, 0, 55, 65
1, 181178, Control_c, 0, 64, 78
1, 181189, Note_off_c, 0, 83, 66
1, 181193, Control_c, 0, 64, 90
1, 181208, Control_c, 0, 64, 98
1, 181222, Control_c, 0, 64, 113
1, 181237, Control_c, 0, 64, 127
1, 181266, Control_c, 0, 64, 109
1, 181281, Control_c, 0, 64, 78
1, 181296, Control_c, 0, 64, 50
1, 181311, Control_c, 0, 64, 0
1, 181460, Note_on_c, 0, 84, 98
1, 181463, Note_on_c, 0, 72, 100
1, 181463, Note_on_c, 0, 78, 101
1, 181465, Note_on_c, 0, 63, 98
1, 181465, Note_on_c, 0, 68, 104
1, 181468, Note_on_c, 0, 56, 95
1, 181481, Control_c, 0, 64, 54
1, 181489, Note_off_c, 0, 56, 71
1, 181490, Note_off_c, 0, 68, 68
1, 181490, Note_off_c, 0, 72, 71
1, 181494, Note_off_c, 0, 63, 70
1, 181496, Control_c, 0, 64, 82
1, 181507, Note_off_c, 0, 84, 65
1, 181510, Note_off_c, 0, 78, 67
1, 181511, Control_c, 0, 64, 98
1, 181526, Control_c, 0, 64, 124
1, 181541, Control_c, 0, 64, 127
1, 181630, Control_c, 0, 64, 111
1, 181645, Control_c, 0, 64, 67
1, 181659, Control_c, 0, 64, 0
1, 181806, Note_on_c, 0, 73, 116
1, 181807, Note_on_c, 0, 85, 97
1, 181808, Note_on_c, 0, 80, 103
1, 181810, Note_on_c, 0, 47, 112
1, 181815, Note_on_c, 0, 35, 98
1, 181835, Note_off_c, 0, 35, 72
1, 181838, Note_off_c, 0, 73, 68
1, 181838, Note_off_c, 0, 85, 64
1, 181838, Control_c, 0, 64, 62
1, 181841, Note_off_c, 0, 80, 71
1, 181842, Note_off_c, 0, 47, 69
1, 181853, Control_c, 0, 64, 127
1, 181957, Control_c, 0, 64, 71
1, 181967, Note_on_c, 0, 61, 95
1, 181968, Note_on_c, 0, 53, 85
1, 181971, Control_c, 0, 64, 0
1, 181988, Note_on_c, 0, 52, 55
1, 182006, Note_off_c, 0, 53, 65
1, 182015, Note_off_c, 0, 61, 59
1, 182017, Note_off_c, 0, 52, 36
1, 182088, Note_on_c, 0, 47, 85
1, 182098, Note_on_c, 0, 56, 63
1, 182098, Note_on_c, 0, 61, 70
1, 182115, Note_off_c, 0, 47, 65
1, 182126, Note_off_c, 0, 61, 65
1, 182131, Note_off_c, 0, 56, 64
1, 182220, Note_on_c, 0, 59, 91
1, 182220, Note_on_c, 0, 63, 95
1, 182250, Note_off_c, 0, 59, 68
1, 182267, Note_off_c, 0, 63, 62
1, 182342, Note_on_c, 0, 65, 79
1, 182346, Note_on_c, 0, 61, 71
1, 182349, Note_on_c, 0, 56, 74
1, 182365, Note_off_c, 0, 61, 66
1, 182376, Note_off_c, 0, 65, 64
1, 182381, Note_off_c, 0, 56, 64
1, 182458, Note_on_c, 0, 66, 87
1, 182461, Note_on_c, 0, 59, 76
1, 182473, Note_on_c, 0, 63, 75
1, 182485, Note_off_c, 0, 59, 69
1, 182488, Note_off_c, 0, 66, 59
1, 182515, Note_off_c, 0, 63, 58
1, 182545, Note_on_c, 0, 61, 74
1, 182590, Note_on_c, 0, 68, 94
1, 182592, Note_on_c, 0, 63, 86
1, 182593, Note_on_c, 0, 65, 86
1, 182595, Note_on_c, 0, 59, 72
1, 182605, Note_off_c, 0, 61, 0
1, 182611, Note_off_c, 0, 65, 72
1, 182613, Note_off_c, 0, 59, 66
1, 182619, Note_on_c, 0, 61, 63
1, 182633, Note_off_c, 0, 68, 59
1, 182637, Note_off_c, 0, 63, 63
1, 182721, Note_on_c, 0, 56, 80
1, 182726, Note_off_c, 0, 61, 65
1, 182844, Note_on_c, 0, 68, 88
1, 182845, Note_on_c, 0, 59, 81
1, 182848, Note_on_c, 0, 65, 77
1, 182851, Note_on_c, 0, 61, 69
1, 182852, Note_off_c, 0, 56, 63
1, 182868, Note_off_c, 0, 59, 71
1, 182870, Note_off_c, 0, 68, 60
1, 182871, Note_off_c, 0, 65, 70
1, 182956, Note_off_c, 0, 61, 59
1, 182975, Note_on_c, 0, 63, 79
1, 183076, Note_off_c, 0, 63, 49
1, 183091, Note_on_c, 0, 66, 93
1, 183092, Note_on_c, 0, 59, 88
1, 183095, Note_on_c, 0, 61, 73
1, 183098, Note_on_c, 0, 70, 81
1, 183111, Note_off_c, 0, 66, 69
1, 183113, Note_off_c, 0, 59, 72
1, 183117, Note_off_c, 0, 70, 72
1, 183147, Note_off_c, 0, 61, 64
1, 183201, Note_on_c, 0, 56, 80
1, 183261, Note_off_c, 0, 56, 61
1, 183350, Note_on_c, 0, 59, 88
1, 183351, Note_on_c, 0, 65, 81
1, 183351, Note_on_c, 0, 68, 92
1, 183358, Note_on_c, 0, 61, 82
1, 183366, Control_c, 0, 64, 52
1, 183371, Note_off_c, 0, 59, 71
1, 183374, Note_off_c, 0, 65, 69
1, 183381, Control_c, 0, 64, 66
1, 183389, Note_off_c, 0, 61, 63
1, 183395, Note_off_c, 0, 68, 65
1, 183396, Control_c, 0, 64, 67
1, 183396, Control_c, 0, 67, 68
1, 183411, Control_c, 0, 67, 127
1, 183425, Control_c, 0, 64, 66
1, 183440, Control_c, 0, 64, 58
1, 183455, Control_c, 0, 64, 0
1, 183498, Note_on_c, 0, 73, 68
1, 183501, Note_on_c, 0, 65, 63
1, 183523, Note_off_c, 0, 73, 68
1, 183528, Note_off_c, 0, 65, 68
1, 183609, Note_on_c, 0, 73, 77
1, 183612, Note_on_c, 0, 59, 62
1, 183632, Note_off_c, 0, 73, 68
1, 183640, Note_off_c, 0, 59, 66
1, 183741, Note_on_c, 0, 75, 78
1, 183758, Note_on_c, 0, 71, 60
1, 183770, Note_off_c, 0, 75, 59
1, 183778, Note_off_c, 0, 71, 62
1, 183865, Note_on_c, 0, 68, 57
1, 183866, Note_on_c, 0, 77, 69
1, 183875, Note_on_c, 0, 73, 51
1, 183892, Note_off_c, 0, 77, 65
1, 183895, Note_off_c, 0, 68, 64
1, 183896, Note_off_c, 0, 73, 58
1, 183982, Note_on_c, 0, 71, 67
1, 183985, Note_on_c, 0, 75, 73
1, 183987, Note_on_c, 0, 78, 62
1, 184005, Note_off_c, 0, 78, 64
1, 184008, Note_off_c, 0, 71, 67
1, 184019, Note_off_c, 0, 75, 58
1, 184060, Note_on_c, 0, 73, 48
1, 184115, Note_on_c, 0, 80, 75
1, 184122, Note_on_c, 0, 77, 61
1, 184125, Note_on_c, 0, 71, 52
1, 184137, Note_off_c, 0, 80, 68
1, 184139, Note_off_c, 0, 77, 65
1, 184148, Note_off_c, 0, 71, 58
1, 184228, Note_off_c, 0, 73, 60
1, 184230, Note_on_c, 0, 68, 62
1, 184358, Note_on_c, 0, 80, 76
1, 184362, Note_off_c, 0, 68, 59
1, 184372, Note_on_c, 0, 77, 50
1, 184373, Note_on_c, 0, 71, 50
1, 184376, Note_on_c, 0, 73, 49
1, 184379, Note_off_c, 0, 80, 69
1, 184395, Note_off_c, 0, 77, 59
1, 184399, Note_off_c, 0, 71, 37
1, 184479, Note_off_c, 0, 73, 62
1, 184500, Note_on_c, 0, 75, 59
1, 184621, Note_on_c, 0, 82, 71
1, 184626, Note_on_c, 0, 78, 62
1, 184628, Note_on_c, 0, 71, 64
1, 184635, Note_off_c, 0, 75, 60
1, 184642, Note_off_c, 0, 82, 70
1, 184644, Note_on_c, 0, 73, 53
1, 184645, Note_off_c, 0, 78, 63
1, 184647, Note_off_c, 0, 71, 62
1, 184718, Note_off_c, 0, 73, 59
1, 184749, Note_on_c, 0, 68, 46
1, 184873, Note_on_c, 0, 80, 76
1, 184879, Note_on_c, 0, 71, 60
1, 184879, Note_on_c, 0, 77, 61
1, 184884, Note_on_c, 0, 73, 56
1, 184894, Note_off_c, 0, 80, 70
1, 184897, Note_off_c, 0, 77, 64
1, 184899, Note_off_c, 0, 71, 61
1, 184900, Note_off_c, 0, 68, 36
1, 184982, Control_c, 0, 67, 120
1, 184991, Note_off_c, 0, 73, 60
1, 184996, Control_c, 0, 67, 111
1, 184998, Note_on_c, 0, 75, 69
1, 185011, Control_c, 0, 67, 103
1, 185026, Control_c, 0, 67, 94
1, 185040, Control_c, 0, 67, 84
1, 185055, Control_c, 0, 67, 76
1, 185070, Control_c, 0, 67, 71
1, 185085, Control_c, 0, 67, 66
1, 185100, Control_c, 0, 64, 29
1, 185100, Control_c, 0, 67, 59
1, 185114, Control_c, 0, 64, 32
1, 185114, Control_c, 0, 67, 53
1, 185117, Note_on_c, 0, 82, 81
1, 185120, Note_on_c, 0, 71, 80
1, 185121, Note_on_c, 0, 78, 77
1, 185129, Control_c, 0, 64, 33
1, 185129, Control_c, 0, 67, 44
1, 185131, Note_on_c, 0, 73, 62
1, 185132, Note_off_c, 0, 75, 60
1, 185141, Note_off_c, 0, 71, 68
1, 185143, Note_off_c, 0, 78, 66
1, 185144, Control_c, 0, 64, 33
1, 185144, Control_c, 0, 67, 0
1, 185159, Control_c, 0, 64, 34
1, 185162, Note_off_c, 0, 82, 60
1, 185174, Control_c, 0, 64, 35
1, 185196, Control_c, 0, 64, 35
1, 185248, Note_off_c, 0, 73, 62
1, 185250, Note_on_c, 0, 68, 73
1, 185270, Control_c, 0, 64, 36
1, 185374, Note_on_c, 0, 80, 85
1, 185374, Control_c, 0, 64, 36
1, 185378, Note_on_c, 0, 77, 74
1, 185380, Note_on_c, 0, 71, 75
1, 185387, Note_on_c, 0, 73, 70
1, 185390, Note_off_c, 0, 68, 60
1, 185399, Note_off_c, 0, 77, 71
1, 185403, Note_off_c, 0, 71, 69
1, 185419, Note_off_c, 0, 80, 64
1, 185448, Control_c, 0, 64, 37
1, 185505, Note_on_c, 0, 75, 82
1, 185516, Note_off_c, 0, 73, 58
1, 185627, Note_on_c, 0, 82, 85
1, 185629, Note_on_c, 0, 78, 88
1, 185630, Note_on_c, 0, 71, 88
1, 185641, Note_on_c, 0, 73, 71
1, 185651, Note_off_c, 0, 71, 64
1, 185660, Note_off_c, 0, 78, 59
1, 185664, Note_off_c, 0, 75, 59
1, 185672, Note_off_c, 0, 82, 64
1, 185757, Note_on_c, 0, 68, 77
1, 185785, Note_off_c, 0, 73, 57
1, 185880, Note_on_c, 0, 77, 81
1, 185880, Note_on_c, 0, 80, 92
1, 185883, Note_on_c, 0, 71, 83
1, 185889, Note_on_c, 0, 73, 80
1, 185908, Note_off_c, 0, 71, 64
1, 185909, Control_c, 0, 64, 36
1, 185916, Note_off_c, 0, 77, 64
1, 185934, Note_off_c, 0, 68, 61
1, 185941, Note_off_c, 0, 80, 65
1, 186023, Note_on_c, 0, 75, 88
1, 186030, Note_off_c, 0, 73, 63
1, 186064, Control_c, 0, 64, 34
1, 186079, Control_c, 0, 64, 0
1, 186154, Note_on_c, 0, 73, 75
1, 186155, Note_on_c, 0, 82, 93
1, 186160, Note_on_c, 0, 71, 91
1, 186163, Note_on_c, 0, 78, 85
1, 186178, Note_off_c, 0, 75, 62
1, 186190, Note_off_c, 0, 71, 61
1, 186197, Control_c, 0, 64, 43
1, 186212, Control_c, 0, 64, 58
1, 186221, Note_off_c, 0, 78, 60
1, 186227, Control_c, 0, 64, 62
1, 186230, Note_off_c, 0, 82, 61
1, 186242, Control_c, 0, 64, 65
1, 186257, Control_c, 0, 64, 66
1, 186271, Control_c, 0, 64, 69
1, 186286, Control_c, 0, 64, 72
1, 186301, Control_c, 0, 64, 75
1, 186304, Note_on_c, 0, 68, 87
1, 186305, Note_off_c, 0, 73, 64
1, 186316, Control_c, 0, 64, 78
1, 186331, Control_c, 0, 64, 81
1, 186345, Control_c, 0, 64, 83
1, 186360, Control_c, 0, 64, 84
1, 186375, Note_off_c, 0, 68, 63
1, 186375, Control_c, 0, 64, 86
1, 186390, Control_c, 0, 64, 87
1, 186405, Control_c, 0, 64, 88
1, 186420, Control_c, 0, 64, 90
1, 186435, Control_c, 0, 64, 91
1, 186450, Control_c, 0, 64, 92
1, 186464, Control_c, 0, 64, 93
1, 186523, Note_on_c, 0, 58, 77
1, 186524, Control_c, 0, 64, 92
1, 186535, Note_on_c, 0, 80, 90
1, 186538, Control_c, 0, 64, 81
1, 186539, Note_on_c, 0, 74, 77
1, 186539, Note_on_c, 0, 77, 80
1, 186542, Note_on_c, 0, 71, 77
1, 186554, Control_c, 0, 64, 65
1, 186569, Control_c, 0, 64, 39
1, 186584, Control_c, 0, 64, 0
1, 186628, Control_c, 0, 64, 34
1, 186643, Control_c, 0, 64, 57
1, 186658, Control_c, 0, 64, 66
1, 186673, Control_c, 0, 64, 73
1, 186694, Control_c, 0, 64, 78
1, 186703, Note_off_c, 0, 58, 62
1, 186709, Control_c, 0, 64, 82
1, 186724, Control_c, 0, 64, 85
1, 186739, Control_c, 0, 64, 88
1, 186744, Note_off_c, 0, 74, 62
1, 186754, Note_off_c, 0, 77, 62
1, 186754, Control_c, 0, 64, 92
1, 186769, Note_off_c, 0, 71, 55
1, 186769, Control_c, 0, 64, 95
1, 186784, Control_c, 0, 64, 98
1, 186799, Control_c, 0, 64, 100
1, 186828, Control_c, 0, 64, 102
1, 186896, Note_on_c, 0, 75, 63
1, 187088, Note_on_c, 0, 82, 78
1, 187100, Note_off_c, 0, 75, 39
1, 187100, Note_on_c, 0, 78, 59
1, 187101, Note_on_c, 0, 74, 50
1, 187117, Note_on_c, 0, 71, 34
1, 187138, Note_off_c, 0, 80, 55
1, 187234, Note_off_c, 0, 74, 53
1, 187278, Note_on_c, 0, 70, 42
1, 187298, Note_off_c, 0, 71, 39
1, 187380, Note_off_c, 0, 78, 56
1, 187418, Note_on_c, 0, 80, 69
1, 187423, Note_on_c, 0, 77, 56
1, 187443, Note_on_c, 0, 74, 43
1, 187463, Note_off_c, 0, 70, 29
1, 187487, Note_off_c, 0, 82, 52
1, 187487, Poly_aftertouch_c, 0, 71, 127
1, 187547, Control_c, 0, 67, 41
1, 187562, Control_c, 0, 67, 50
1, 187575, Note_off_c, 0, 74, 44
1, 187575, Poly_aftertouch_c, 0, 71, 0
1, 187577, Control_c, 0, 67, 58
1, 187591, Control_c, 0, 67, 70
1, 187594, Note_on_c, 0, 75, 45
1, 187606, Control_c, 0, 67, 78
1, 187621, Control_c, 0, 67, 84
1, 187634, Control_c, 0, 67, 87
1, 187649, Control_c, 0, 67, 90
1, 187664, Control_c, 0, 67, 94
1, 187679, Control_c, 0, 67, 102
1, 187689, Note_off_c, 0, 77, 38
1, 187694, Control_c, 0, 67, 109
1, 187708, Control_c, 0, 67, 117
1, 187723, Control_c, 0, 67, 124
1, 187732, Note_on_c, 0, 82, 65
1, 187738, Note_off_c, 0, 75, 46
1, 187738, Control_c, 0, 67, 127
1, 187743, Note_on_c, 0, 74, 38
1, 187750, Note_on_c, 0, 78, 41
1, 187782, Note_off_c, 0, 80, 39
1, 187803, Poly_aftertouch_c, 0, 71, 127
1, 187906, Note_off_c, 0, 74, 35
1, 187918, Note_on_c, 0, 70, 41
1, 187943, Poly_aftertouch_c, 0, 71, 0
1, 188062, Note_off_c, 0, 78, 48
1, 188075, Note_on_c, 0, 80, 59
1, 188083, Note_on_c, 0, 77, 41
1, 188095, Note_on_c, 0, 74, 34
1, 188111, Note_off_c, 0, 70, 38
1, 188125, Poly_aftertouch_c, 0, 71, 127
1, 188152, Note_off_c, 0, 82, 37
1, 188277, Poly_aftertouch_c, 0, 71, 0
1, 188289, Note_on_c, 0, 75, 36
1, 188293, Note_off_c, 0, 74, 39
1, 188352, Note_off_c, 0, 77, 38
1, 188491, Note_on_c, 0, 82, 58
1, 188516, Note_on_c, 0, 74, 37
1, 188522, Note_on_c, 0, 78, 29
1, 188527, Note_off_c, 0, 75, 41
1, 188535, Note_off_c, 0, 80, 39
1, 188549, Note_on_c, 0, 71, 12
1, 188715, Note_off_c, 0, 71, 40
1, 188740, Note_off_c, 0, 74, 43
1, 188748, Note_on_c, 0, 70, 44
1, 188796, Note_off_c, 0, 70, 62
1, 188879, Note_off_c, 0, 78, 40
1, 188900, Note_off_c, 0, 82, 40
1, 189000, Control_c, 0, 64, 100
1, 189073, Note_on_c, 0, 39, 36
1, 189088, Control_c, 0, 64, 89
1, 189095, Note_on_c, 0, 46, 56
1, 189103, Control_c, 0, 64, 74
1, 189118, Control_c, 0, 64, 59
1, 189133, Control_c, 0, 64, 39
1, 189141, Note_off_c, 0, 39, 42
1, 189148, Control_c, 0, 64, 0
1, 189169, Note_on_c, 0, 82, 59
1, 189174, Note_on_c, 0, 51, 72
1, 189174, Note_off_c, 0, 46, 58
1, 189192, Control_c, 0, 64, 36
1, 189197, Note_on_c, 0, 75, 40
1, 189207, Note_on_c, 0, 79, 19
1, 189207, Control_c, 0, 64, 42
1, 189222, Control_c, 0, 64, 47
1, 189233, Note_off_c, 0, 51, 57
1, 189237, Control_c, 0, 64, 50
1, 189252, Control_c, 0, 64, 52
1, 189256, Note_off_c, 0, 75, 58
1, 189264, Note_off_c, 0, 79, 44
1, 189267, Control_c, 0, 64, 54
1, 189276, Note_off_c, 0, 82, 57
1, 189281, Control_c, 0, 64, 55
1, 189296, Control_c, 0, 64, 56
1, 189305, Note_on_c, 0, 51, 68
1, 189309, Note_on_c, 0, 74, 67
1, 189311, Control_c, 0, 64, 57
1, 189341, Control_c, 0, 64, 56
1, 189347, Note_off_c, 0, 51, 62
1, 189355, Control_c, 0, 64, 52
1, 189356, Note_off_c, 0, 74, 58
1, 189370, Control_c, 0, 64, 47
1, 189385, Control_c, 0, 64, 41
1, 189400, Control_c, 0, 64, 38
1, 189440, Note_on_c, 0, 51, 72
1, 189441, Note_on_c, 0, 79, 44
1, 189444, Control_c, 0, 64, 39
1, 189452, Note_on_c, 0, 72, 58
1, 189455, Note_on_c, 0, 75, 54
1, 189459, Control_c, 0, 64, 40
1, 189468, Note_off_c, 0, 79, 57
1, 189472, Note_off_c, 0, 51, 64
1, 189474, Control_c, 0, 64, 42
1, 189488, Control_c, 0, 64, 43
1, 189503, Control_c, 0, 64, 44
1, 189506, Note_off_c, 0, 72, 55
1, 189513, Note_off_c, 0, 75, 61
1, 189532, Control_c, 0, 64, 44
1, 189556, Note_on_c, 0, 53, 72
1, 189562, Note_on_c, 0, 70, 68
1, 189562, Control_c, 0, 64, 44
1, 189590, Note_off_c, 0, 70, 67
1, 189592, Control_c, 0, 64, 42
1, 189602, Note_off_c, 0, 53, 58
1, 189607, Control_c, 0, 64, 41
1, 189621, Control_c, 0, 64, 39
1, 189636, Control_c, 0, 64, 37
1, 189651, Control_c, 0, 64, 34
1, 189666, Control_c, 0, 64, 30
1, 189688, Control_c, 0, 64, 0
1, 189700, Note_on_c, 0, 55, 57
1, 189701, Note_on_c, 0, 74, 45
1, 189708, Note_on_c, 0, 70, 45
1, 189728, Note_off_c, 0, 55, 54
1, 189730, Note_off_c, 0, 74, 54
1, 189735, Note_off_c, 0, 70, 63
1, 189821, Note_on_c, 0, 56, 64
1, 189848, Note_on_c, 0, 62, 32
1, 189872, Note_off_c, 0, 56, 61
1, 189883, Note_off_c, 0, 62, 46
1, 189961, Note_on_c, 0, 58, 80
1, 189970, Note_on_c, 0, 74, 52
1, 189971, Control_c, 0, 64, 39
1, 189975, Note_on_c, 0, 51, 62
1, 189980, Note_on_c, 0, 67, 54
1, 189985, Note_off_c, 0, 58, 67
1, 189985, Control_c, 0, 64, 57
1, 189999, Note_off_c, 0, 51, 59
1, 190000, Control_c, 0, 64, 62
1, 190014, Note_off_c, 0, 67, 62
1, 190015, Control_c, 0, 64, 65
1, 190030, Control_c, 0, 64, 66
1, 190045, Control_c, 0, 64, 67
1, 190047, Note_off_c, 0, 74, 54
1, 190060, Control_c, 0, 64, 68
1, 190075, Control_c, 0, 64, 69
1, 190089, Control_c, 0, 64, 70
1, 190092, Note_on_c, 0, 62, 64
1, 190104, Control_c, 0, 64, 70
1, 190121, Note_off_c, 0, 62, 65
1, 190134, Control_c, 0, 64, 71
1, 190217, Note_on_c, 0, 70, 77
1, 190224, Note_on_c, 0, 74, 68
1, 190231, Note_off_c, 0, 70, 69
1, 190250, Note_off_c, 0, 74, 69
1, 190259, Note_on_c, 0, 67, 18
1, 190304, Note_off_c, 0, 67, 46
1, 190342, Note_on_c, 0, 79, 63
1, 190376, Note_off_c, 0, 79, 60
1, 190468, Note_on_c, 0, 82, 88
1, 190477, Note_on_c, 0, 74, 69
1, 190480, Note_off_c, 0, 82, 71
1, 190483, Note_on_c, 0, 75, 53
1, 190496, Note_on_c, 0, 79, 40
1, 190503, Note_off_c, 0, 75, 64
1, 190505, Note_off_c, 0, 74, 64
1, 190522, Note_off_c, 0, 79, 57
1, 190541, Control_c, 0, 64, 72
1, 190557, Control_c, 0, 64, 72
1, 190568, Note_on_c, 0, 70, 57
1, 190572, Control_c, 0, 64, 73
1, 190586, Control_c, 0, 64, 74
1, 190587, Note_off_c, 0, 70, 62
1, 190601, Control_c, 0, 64, 74
1, 190616, Control_c, 0, 64, 75
1, 190630, Control_c, 0, 67, 112
1, 190636, Poly_aftertouch_c, 0, 82, 0
1, 190645, Control_c, 0, 67, 102
1, 190650, Note_on_c, 0, 58, 76
1, 190659, Control_c, 0, 67, 96
1, 190670, Note_on_c, 0, 51, 57
1, 190674, Control_c, 0, 67, 96
1, 190680, Note_off_c, 0, 58, 63
1, 190689, Control_c, 0, 64, 73
1, 190704, Control_c, 0, 64, 69
1, 190704, Control_c, 0, 67, 98
1, 190708, Note_on_c, 0, 79, 51
1, 190709, Note_on_c, 0, 84, 43
1, 190712, Note_on_c, 0, 87, 81
1, 190719, Control_c, 0, 64, 60
1, 190719, Control_c, 0, 67, 102
1, 190733, Control_c, 0, 64, 49
1, 190736, Note_on_c, 0, 58, 89
1, 190748, Control_c, 0, 64, 42
1, 190748, Control_c, 0, 67, 105
1, 190763, Control_c, 0, 64, 41
1, 190778, Control_c, 0, 64, 42
1, 190793, Control_c, 0, 64, 44
1, 190793, Control_c, 0, 67, 107
1, 190808, Control_c, 0, 64, 46
1, 190823, Control_c, 0, 64, 47
1, 190830, Note_off_c, 0, 84, 55
1, 190836, Note_off_c, 0, 87, 62
1, 190838, Note_off_c, 0, 79, 61
1, 190867, Control_c, 0, 67, 105
1, 190876, Note_on_c, 0, 77, 64
1, 190880, Note_on_c, 0, 56, 82
1, 190882, Control_c, 0, 64, 46
1, 190897, Control_c, 0, 64, 45
1, 190897, Control_c, 0, 67, 103
1, 190909, Note_off_c, 0, 58, 61
1, 190910, Note_off_c, 0, 77, 60
1, 190912, Control_c, 0, 64, 44
1, 190926, Control_c, 0, 64, 42
1, 190941, Control_c, 0, 64, 40
1, 190956, Control_c, 0, 64, 37
1, 190971, Control_c, 0, 64, 34
1, 190985, Control_c, 0, 64, 31
1, 190993, Note_on_c, 0, 84, 72
1, 191000, Control_c, 0, 64, 0
1, 191008, Note_on_c, 0, 58, 85
1, 191016, Note_on_c, 0, 77, 59
1, 191018, Note_on_c, 0, 79, 51
1, 191043, Note_off_c, 0, 56, 59
1, 191059, Control_c, 0, 67, 101
1, 191068, Note_off_c, 0, 84, 58
1, 191074, Control_c, 0, 67, 98
1, 191085, Note_off_c, 0, 79, 62
1, 191089, Control_c, 0, 67, 95
1, 191098, Note_off_c, 0, 77, 61
1, 191104, Control_c, 0, 67, 92
1, 191118, Note_off_c, 0, 58, 62
1, 191118, Control_c, 0, 67, 90
1, 191133, Control_c, 0, 67, 84
1, 191136, Note_on_c, 0, 60, 82
1, 191138, Note_on_c, 0, 74, 67
1, 191148, Control_c, 0, 67, 64
1, 191163, Note_off_c, 0, 74, 68
1, 191163, Control_c, 0, 67, 37
1, 191185, Control_c, 0, 67, 0
1, 191266, Note_off_c, 0, 60, 49
1, 191273, Note_on_c, 0, 77, 72
1, 191279, Note_on_c, 0, 58, 75
1, 191285, Note_on_c, 0, 74, 63
1, 191285, Note_on_c, 0, 72, 64
1, 191289, Control_c, 0, 64, 32
1, 191303, Control_c, 0, 64, 39
1, 191318, Control_c, 0, 64, 45
1, 191329, Note_off_c, 0, 74, 61
1, 191332, Note_off_c, 0, 72, 58
1, 191333, Control_c, 0, 64, 50
1, 191335, Note_off_c, 0, 77, 61
1, 191348, Control_c, 0, 64, 52
1, 191364, Control_c, 0, 64, 52
1, 191376, Note_off_c, 0, 51, 59
1, 191399, Note_on_c, 0, 56, 72
1, 191403, Note_off_c, 0, 58, 62
1, 191405, Note_on_c, 0, 65, 63
1, 191423, Control_c, 0, 64, 51
1, 191438, Control_c, 0, 64, 46
1, 191444, Note_off_c, 0, 65, 58
1, 191453, Control_c, 0, 64, 36
1, 191468, Control_c, 0, 64, 0
1, 191519, Note_off_c, 0, 56, 61
1, 191530, Note_on_c, 0, 74, 73
1, 191538, Note_on_c, 0, 67, 71
1, 191541, Note_on_c, 0, 58, 73
1, 191557, Note_on_c, 0, 52, 58
1, 191586, Control_c, 0, 64, 56
1, 191588, Note_off_c, 0, 52, 64
1, 191596, Note_off_c, 0, 67, 62
1, 191601, Control_c, 0, 64, 65
1, 191602, Note_off_c, 0, 74, 61
1, 191606, Note_off_c, 0, 58, 64
1, 191616, Control_c, 0, 64, 68
1, 191631, Control_c, 0, 64, 71
1, 191645, Control_c, 0, 64, 73
1, 191660, Control_c, 0, 64, 74
1, 191662, Note_on_c, 0, 62, 72
1, 191675, Control_c, 0, 64, 75
1, 191689, Note_off_c, 0, 62, 65
1, 191705, Control_c, 0, 64, 76
1, 191787, Note_on_c, 0, 70, 88
1, 191792, Note_on_c, 0, 74, 76
1, 191795, Note_on_c, 0, 67, 70
1, 191805, Note_off_c, 0, 70, 70
1, 191820, Note_off_c, 0, 67, 67
1, 191837, Note_off_c, 0, 74, 61
1, 191910, Note_on_c, 0, 79, 71
1, 191973, Note_off_c, 0, 79, 63
1, 192054, Note_on_c, 0, 82, 78
1, 192063, Note_on_c, 0, 79, 64
1, 192067, Note_off_c, 0, 82, 70
1, 192072, Note_on_c, 0, 75, 66
1, 192074, Note_on_c, 0, 74, 68
1, 192099, Note_off_c, 0, 79, 63
1, 192125, Note_off_c, 0, 74, 62
1, 192127, Note_off_c, 0, 75, 65
1, 192179, Note_on_c, 0, 70, 80
1, 192225, Note_off_c, 0, 70, 63
1, 192277, Control_c, 0, 64, 75
1, 192292, Control_c, 0, 64, 71
1, 192306, Control_c, 0, 64, 61
1, 192321, Note_on_c, 0, 85, 90
1, 192321, Control_c, 0, 64, 43
1, 192329, Note_on_c, 0, 58, 88
1, 192332, Note_on_c, 0, 51, 80
1, 192336, Control_c, 0, 64, 0
1, 192337, Note_on_c, 0, 80, 72
1, 192340, Note_on_c, 0, 77, 60
1, 192380, Control_c, 0, 64, 28
1, 192395, Control_c, 0, 64, 39
1, 192410, Control_c, 0, 64, 47
1, 192421, Note_off_c, 0, 77, 62
1, 192424, Control_c, 0, 64, 52
1, 192426, Note_off_c, 0, 80, 63
1, 192429, Note_off_c, 0, 85, 61
1, 192435, Note_off_c, 0, 51, 59
1, 192439, Control_c, 0, 64, 55
1, 192454, Note_off_c, 0, 58, 61
1, 192467, Note_on_c, 0, 76, 62
1, 192471, Note_on_c, 0, 60, 78
1, 192513, Control_c, 0, 64, 54
1, 192525, Note_off_c, 0, 76, 53
1, 192528, Control_c, 0, 64, 54
1, 192547, Note_off_c, 0, 60, 61
1, 192558, Control_c, 0, 64, 53
1, 192587, Control_c, 0, 64, 54
1, 192593, Note_on_c, 0, 61, 80
1, 192594, Note_on_c, 0, 82, 77
1, 192607, Note_on_c, 0, 75, 67
1, 192612, Note_on_c, 0, 78, 61
1, 192617, Control_c, 0, 64, 55
1, 192632, Control_c, 0, 64, 57
1, 192647, Control_c, 0, 64, 59
1, 192662, Control_c, 0, 64, 60
1, 192684, Control_c, 0, 64, 61
1, 192687, Note_off_c, 0, 82, 61
1, 192692, Note_off_c, 0, 78, 59
1, 192692, Note_off_c, 0, 75, 62
1, 192699, Control_c, 0, 64, 60
1, 192711, Note_off_c, 0, 61, 61
1, 192713, Control_c, 0, 64, 56
1, 192728, Control_c, 0, 64, 47
1, 192736, Note_on_c, 0, 63, 91
1, 192742, Note_on_c, 0, 71, 71
1, 192743, Control_c, 0, 64, 31
1, 192757, Control_c, 0, 64, 0
1, 192793, Note_off_c, 0, 71, 52
1, 192847, Control_c, 0, 64, 36
1, 192862, Control_c, 0, 64, 41
1, 192868, Note_on_c, 0, 80, 70
1, 192873, Note_on_c, 0, 61, 78
1, 192877, Control_c, 0, 64, 43
1, 192883, Note_on_c, 0, 74, 61
1, 192891, Control_c, 0, 64, 44
1, 192893, Note_on_c, 0, 77, 50
1, 192894, Note_off_c, 0, 63, 61
1, 192906, Control_c, 0, 64, 45
1, 192921, Control_c, 0, 64, 46
1, 192929, Note_off_c, 0, 74, 53
1, 192936, Control_c, 0, 64, 48
1, 192937, Note_off_c, 0, 80, 62
1, 192942, Note_off_c, 0, 77, 57
1, 192948, Note_off_c, 0, 61, 64
1, 192951, Control_c, 0, 64, 50
1, 192966, Control_c, 0, 64, 52
1, 192981, Control_c, 0, 64, 54
1, 192988, Note_on_c, 0, 59, 76
1, 192996, Control_c, 0, 64, 56
1, 193008, Note_on_c, 0, 68, 61
1, 193011, Control_c, 0, 64, 57
1, 193026, Control_c, 0, 64, 58
1, 193035, Note_off_c, 0, 68, 67
1, 193055, Control_c, 0, 64, 57
1, 193070, Control_c, 0, 64, 50
1, 193085, Control_c, 0, 64, 29
1, 193089, Note_off_c, 0, 59, 56
1, 193100, Control_c, 0, 64, 0
1, 193127, Note_on_c, 0, 74, 71
1, 193133, Note_on_c, 0, 67, 75
1, 193133, Note_on_c, 0, 58, 79
1, 193135, Note_on_c, 0, 51, 75
1, 193173, Control_c, 0, 64, 36
1, 193184, Note_off_c, 0, 51, 57
1, 193188, Control_c, 0, 64, 57
1, 193194, Note_off_c, 0, 67, 61
1, 193196, Note_off_c, 0, 58, 62
1, 193201, Note_off_c, 0, 74, 61
1, 193203, Control_c, 0, 64, 64
1, 193218, Control_c, 0, 64, 66
1, 193233, Control_c, 0, 64, 67
1, 193247, Control_c, 0, 64, 68
1, 193257, Note_on_c, 0, 62, 73
1, 193262, Control_c, 0, 64, 69
1, 193277, Control_c, 0, 64, 70
1, 193285, Note_off_c, 0, 62, 66
1, 193292, Control_c, 0, 64, 71
1, 193307, Control_c, 0, 64, 71
1, 193336, Control_c, 0, 64, 72
1, 193351, Control_c, 0, 64, 73
1, 193366, Control_c, 0, 64, 74
1, 193376, Note_on_c, 0, 70, 83
1, 193380, Control_c, 0, 64, 76
1, 193385, Note_on_c, 0, 74, 79
1, 193386, Note_on_c, 0, 67, 76
1, 193395, Note_off_c, 0, 70, 69
1, 193395, Control_c, 0, 64, 78
1, 193410, Control_c, 0, 64, 80
1, 193413, Note_off_c, 0, 67, 62
1, 193416, Note_off_c, 0, 74, 59
1, 193433, Control_c, 0, 64, 81
1, 193448, Control_c, 0, 64, 83
1, 193462, Control_c, 0, 64, 84
1, 193477, Control_c, 0, 64, 84
1, 193492, Control_c, 0, 64, 85
1, 193512, Note_on_c, 0, 79, 74
1, 193522, Control_c, 0, 64, 85
1, 193566, Control_c, 0, 64, 86
1, 193567, Note_off_c, 0, 79, 62
1, 193625, Note_on_c, 0, 82, 88
1, 193636, Note_on_c, 0, 79, 64
1, 193643, Note_on_c, 0, 74, 76
1, 193644, Note_off_c, 0, 82, 70
1, 193649, Note_on_c, 0, 75, 69
1, 193682, Note_off_c, 0, 79, 62
1, 193699, Control_c, 0, 64, 86
1, 193700, Note_off_c, 0, 75, 64
1, 193704, Note_off_c, 0, 74, 62
1, 193729, Control_c, 0, 64, 87
1, 193747, Note_on_c, 0, 70, 83
1, 193759, Control_c, 0, 64, 87
1, 193774, Control_c, 0, 64, 88
1, 193787, Note_off_c, 0, 70, 65
1, 193789, Control_c, 0, 64, 88
1, 193804, Control_c, 0, 64, 89
1, 193863, Control_c, 0, 64, 88
1, 193878, Control_c, 0, 64, 84
1, 193893, Control_c, 0, 64, 69
1, 193893, Note_on_c, 0, 49, 83
1, 193894, Note_on_c, 0, 58, 83
1, 193902, Note_on_c, 0, 84, 59
1, 193903, Note_on_c, 0, 85, 81
1, 193908, Control_c, 0, 64, 50
1, 193910, Note_on_c, 0, 79, 55
1, 193922, Control_c, 0, 64, 0
1, 193947, Note_on_c, 0, 86, 44
1, 193967, Control_c, 0, 64, 37
1, 193982, Control_c, 0, 64, 52
1, 193983, Note_off_c, 0, 86, 48
1, 193996, Control_c, 0, 64, 60
1, 194011, Control_c, 0, 64, 63
1, 194019, Note_off_c, 0, 85, 60
1, 194020, Note_off_c, 0, 84, 61
1, 194026, Control_c, 0, 64, 64
1, 194027, Note_off_c, 0, 79, 63
1, 194044, Note_off_c, 0, 49, 60
1, 194056, Control_c, 0, 64, 64
1, 194057, Note_on_c, 0, 77, 79
1, 194068, Note_on_c, 0, 60, 86
1, 194072, Note_off_c, 0, 58, 63
1, 194085, Control_c, 0, 64, 65
1, 194100, Control_c, 0, 64, 65
1, 194113, Note_off_c, 0, 77, 62
1, 194115, Control_c, 0, 64, 66
1, 194152, Note_off_c, 0, 60, 56
1, 194159, Control_c, 0, 64, 63
1, 194182, Control_c, 0, 64, 55
1, 194186, Note_on_c, 0, 84, 70
1, 194192, Note_on_c, 0, 61, 93
1, 194197, Control_c, 0, 64, 32
1, 194197, Note_on_c, 0, 79, 64
1, 194211, Control_c, 0, 64, 0
1, 194212, Note_on_c, 0, 77, 62
1, 194256, Control_c, 0, 64, 29
1, 194260, Note_off_c, 0, 84, 61
1, 194271, Control_c, 0, 64, 44
1, 194274, Note_off_c, 0, 79, 62
1, 194284, Note_off_c, 0, 77, 63
1, 194286, Control_c, 0, 64, 56
1, 194301, Control_c, 0, 64, 62
1, 194311, Note_on_c, 0, 63, 94
1, 194314, Note_off_c, 0, 61, 61
1, 194316, Control_c, 0, 64, 63
1, 194328, Note_on_c, 0, 72, 69
1, 194360, Note_off_c, 0, 72, 59
1, 194360, Control_c, 0, 64, 62
1, 194374, Control_c, 0, 64, 57
1, 194389, Control_c, 0, 64, 49
1, 194403, Control_c, 0, 64, 41
1, 194418, Control_c, 0, 64, 38
1, 194433, Note_on_c, 0, 61, 87
1, 194433, Control_c, 0, 64, 39
1, 194448, Control_c, 0, 64, 42
1, 194450, Note_on_c, 0, 79, 56
1, 194461, Note_off_c, 0, 63, 62
1, 194462, Note_on_c, 0, 77, 62
1, 194463, Note_on_c, 0, 74, 52
1, 194463, Control_c, 0, 64, 46
1, 194466, Note_on_c, 0, 76, 61
1, 194477, Control_c, 0, 64, 49
1, 194479, Note_on_c, 0, 72, 48
1, 194492, Control_c, 0, 64, 51
1, 194497, Note_off_c, 0, 74, 63
1, 194501, Note_off_c, 0, 79, 65
1, 194503, Note_off_c, 0, 72, 56
1, 194504, Note_off_c, 0, 76, 61
1, 194507, Control_c, 0, 64, 54
1, 194509, Note_off_c, 0, 77, 58
1, 194521, Note_off_c, 0, 61, 64
1, 194522, Control_c, 0, 64, 57
1, 194537, Control_c, 0, 64, 59
1, 194552, Control_c, 0, 64, 60
1, 194558, Note_on_c, 0, 60, 88
1, 194567, Control_c, 0, 64, 60
1, 194574, Note_on_c, 0, 65, 69
1, 194582, Control_c, 0, 64, 60
1, 194597, Control_c, 0, 64, 56
1, 194612, Control_c, 0, 64, 47
1, 194620, Note_off_c, 0, 65, 61
1, 194626, Control_c, 0, 64, 29
1, 194641, Control_c, 0, 64, 0
1, 194678, Note_off_c, 0, 60, 55
1, 194695, Note_on_c, 0, 48, 84
1, 194695, Note_on_c, 0, 72, 78
1, 194698, Note_on_c, 0, 58, 84
1, 194705, Note_on_c, 0, 67, 75
1, 194713, Note_on_c, 0, 65, 67
1, 194731, Control_c, 0, 64, 47
1, 194745, Control_c, 0, 64, 58
1, 194748, Note_off_c, 0, 48, 61
1, 194760, Control_c, 0, 64, 61
1, 194765, Note_off_c, 0, 58, 65
1, 194766, Note_off_c, 0, 72, 61
1, 194775, Control_c, 0, 64, 62
1, 194790, Note_off_c, 0, 67, 61
1, 194790, Control_c, 0, 64, 64
1, 194793, Note_off_c, 0, 65, 61
1, 194805, Control_c, 0, 64, 65
1, 194819, Control_c, 0, 64, 68
1, 194822, Note_on_c, 0, 60, 78
1, 194834, Control_c, 0, 64, 70
1, 194849, Control_c, 0, 64, 73
1, 194864, Control_c, 0, 64, 75
1, 194874, Note_off_c, 0, 60, 66
1, 194908, Control_c, 0, 64, 73
1, 194930, Control_c, 0, 64, 64
1, 194945, Control_c, 0, 64, 50
1, 194957, Note_on_c, 0, 70, 93
1, 194960, Control_c, 0, 64, 40
1, 194965, Note_on_c, 0, 65, 71
1, 194966, Note_on_c, 0, 67, 82
1, 194975, Control_c, 0, 64, 43
1, 194990, Control_c, 0, 64, 51
1, 195005, Control_c, 0, 64, 62
1, 195012, Note_off_c, 0, 70, 60
1, 195020, Control_c, 0, 64, 66
1, 195034, Control_c, 0, 64, 70
1, 195049, Control_c, 0, 64, 75
1, 195064, Control_c, 0, 64, 80
1, 195073, Note_off_c, 0, 65, 39
1, 195076, Note_on_c, 0, 72, 85
1, 195079, Control_c, 0, 64, 86
1, 195089, Note_off_c, 0, 67, 62
1, 195094, Control_c, 0, 64, 91
1, 195108, Control_c, 0, 64, 94
1, 195113, Note_off_c, 0, 72, 64
1, 195124, Control_c, 0, 64, 94
1, 195139, Control_c, 0, 64, 93
1, 195153, Control_c, 0, 64, 82
1, 195168, Control_c, 0, 64, 64
1, 195183, Control_c, 0, 64, 35
1, 195198, Control_c, 0, 64, 0
1, 195213, Control_c, 0, 64, 39
1, 195220, Note_on_c, 0, 72, 96
1, 195226, Note_on_c, 0, 84, 90
1, 195227, Control_c, 0, 64, 58
1, 195236, Note_on_c, 0, 80, 83
1, 195242, Control_c, 0, 64, 69
1, 195246, Note_on_c, 0, 82, 65
1, 195249, Note_off_c, 0, 72, 69
1, 195257, Control_c, 0, 64, 76
1, 195272, Control_c, 0, 64, 80
1, 195287, Control_c, 0, 64, 81
1, 195301, Control_c, 0, 64, 81
1, 195310, Note_off_c, 0, 82, 57
1, 195313, Note_off_c, 0, 80, 60
1, 195316, Control_c, 0, 64, 82
1, 195323, Note_off_c, 0, 84, 61
1, 195331, Control_c, 0, 64, 83
1, 195347, Control_c, 0, 64, 84
1, 195348, Note_on_c, 0, 76, 81
1, 195362, Control_c, 0, 64, 86
1, 195376, Control_c, 0, 64, 88
1, 195391, Control_c, 0, 64, 90
1, 195397, Note_on_c, 0, 41, 75
1, 195406, Control_c, 0, 64, 90
1, 195419, Note_off_c, 0, 76, 63
1, 195426, Note_on_c, 0, 48, 80
1, 195450, Control_c, 0, 64, 90
1, 195452, Note_off_c, 0, 41, 63
1, 195465, Control_c, 0, 64, 79
1, 195474, Note_on_c, 0, 53, 100
1, 195476, Note_on_c, 0, 84, 89
1, 195480, Control_c, 0, 64, 59
1, 195488, Note_on_c, 0, 77, 86
1, 195488, Note_on_c, 0, 81, 77
1, 195495, Control_c, 0, 64, 0
1, 195503, Note_off_c, 0, 48, 62
1, 195520, Note_off_c, 0, 53, 67
1, 195565, Note_off_c, 0, 84, 60
1, 195571, Note_off_c, 0, 77, 60
1, 195576, Note_off_c, 0, 81, 62
1, 195618, Note_on_c, 0, 53, 77
1, 195619, Note_on_c, 0, 76, 65
1, 195645, Note_off_c, 0, 53, 65
1, 195649, Note_off_c, 0, 76, 62
1, 195723, Note_on_c, 0, 81, 73
1, 195738, Note_on_c, 0, 77, 66
1, 195749, Note_on_c, 0, 53, 82
1, 195750, Note_on_c, 0, 74, 61
1, 195754, Control_c, 0, 64, 29
1, 195768, Control_c, 0, 64, 31
1, 195783, Note_off_c, 0, 53, 65
1, 195783, Control_c, 0, 64, 34
1, 195798, Control_c, 0, 64, 37
1, 195811, Note_off_c, 0, 81, 58
1, 195813, Control_c, 0, 64, 42
1, 195828, Control_c, 0, 64, 47
1, 195830, Note_off_c, 0, 74, 61
1, 195831, Note_off_c, 0, 77, 62
1, 195857, Control_c, 0, 64, 42
1, 195862, Note_on_c, 0, 55, 88
1, 195872, Control_c, 0, 64, 0
1, 195874, Note_on_c, 0, 72, 76
1, 195902, Note_off_c, 0, 72, 61
1, 195910, Note_off_c, 0, 55, 63
1, 195983, Note_on_c, 0, 57, 83
1, 195989, Note_on_c, 0, 76, 58
1, 196014, Note_on_c, 0, 72, 45
1, 196017, Note_off_c, 0, 57, 66
1, 196040, Note_off_c, 0, 72, 53
1, 196042, Note_off_c, 0, 76, 58
1, 196053, Note_on_c, 0, 70, 15
1, 196078, Note_off_c, 0, 70, 47
1, 196113, Note_on_c, 0, 58, 85
1, 196124, Note_on_c, 0, 64, 70
1, 196153, Note_off_c, 0, 58, 58
1, 196156, Note_off_c, 0, 64, 66
1, 196245, Note_on_c, 0, 76, 76
1, 196247, Note_on_c, 0, 53, 82
1, 196247, Note_on_c, 0, 60, 85
1, 196250, Note_on_c, 0, 69, 79
1, 196266, Note_off_c, 0, 60, 74
1, 196268, Note_off_c, 0, 53, 69
1, 196273, Control_c, 0, 64, 50
1, 196288, Control_c, 0, 64, 65
1, 196299, Note_off_c, 0, 69, 60
1, 196303, Control_c, 0, 64, 68
1, 196314, Note_off_c, 0, 76, 62
1, 196317, Control_c, 0, 64, 70
1, 196332, Control_c, 0, 64, 72
1, 196347, Control_c, 0, 64, 74
1, 196362, Control_c, 0, 64, 75
1, 196368, Note_on_c, 0, 64, 68
1, 196377, Control_c, 0, 64, 75
1, 196397, Note_off_c, 0, 64, 68
1, 196453, Poly_aftertouch_c, 0, 65, 127
1, 196491, Note_on_c, 0, 72, 88
1, 196491, Poly_aftertouch_c, 0, 65, 0
1, 196494, Note_on_c, 0, 76, 84
1, 196517, Note_on_c, 0, 69, 50
1, 196518, Control_c, 0, 64, 76
1, 196525, Note_on_c, 0, 67, 43
1, 196528, Note_off_c, 0, 72, 66
1, 196532, Control_c, 0, 64, 78
1, 196538, Note_off_c, 0, 69, 62
1, 196547, Control_c, 0, 64, 80
1, 196550, Note_off_c, 0, 76, 63
1, 196555, Note_off_c, 0, 67, 55
1, 196562, Control_c, 0, 64, 82
1, 196577, Control_c, 0, 64, 84
1, 196592, Control_c, 0, 64, 85
1, 196606, Control_c, 0, 64, 86
1, 196621, Note_on_c, 0, 81, 85
1, 196636, Control_c, 0, 64, 86
1, 196666, Note_off_c, 0, 81, 64
1, 196725, Control_c, 0, 64, 87
1, 196728, Note_on_c, 0, 84, 99
1, 196746, Note_off_c, 0, 84, 69
1, 196749, Note_on_c, 0, 81, 80
1, 196755, Control_c, 0, 64, 87
1, 196758, Note_on_c, 0, 77, 71
1, 196761, Note_on_c, 0, 76, 60
1, 196770, Control_c, 0, 64, 88
1, 196785, Control_c, 0, 64, 90
1, 196794, Note_off_c, 0, 77, 60
1, 196796, Note_off_c, 0, 76, 64
1, 196799, Control_c, 0, 64, 91
1, 196799, Note_off_c, 0, 81, 64
1, 196814, Control_c, 0, 64, 92
1, 196829, Control_c, 0, 64, 93
1, 196841, Note_on_c, 0, 74, 78
1, 196844, Control_c, 0, 64, 94
1, 196859, Control_c, 0, 64, 95
1, 196873, Control_c, 0, 64, 95
1, 196888, Control_c, 0, 64, 96
1, 196904, Note_on_c, 0, 60, 80
1, 196917, Note_off_c, 0, 74, 60
1, 196931, Note_off_c, 0, 60, 66
1, 196933, Note_on_c, 0, 51, 62
1, 196976, Note_on_c, 0, 87, 93
1, 196978, Control_c, 0, 64, 94
1, 196985, Note_on_c, 0, 81, 80
1, 196987, Note_on_c, 0, 60, 98
1, 196987, Note_on_c, 0, 79, 79
1, 196993, Control_c, 0, 64, 83
1, 197008, Control_c, 0, 64, 67
1, 197022, Control_c, 0, 64, 45
1, 197037, Control_c, 0, 64, 0
1, 197081, Note_off_c, 0, 87, 62
1, 197093, Note_off_c, 0, 79, 62
1, 197102, Note_on_c, 0, 58, 85
1, 197131, Note_on_c, 0, 77, 82
1, 197133, Note_off_c, 0, 60, 62
1, 197136, Note_off_c, 0, 81, 62
1, 197181, Note_off_c, 0, 77, 64
1, 197229, Note_off_c, 0, 58, 64
1, 197237, Control_c, 0, 64, 31
1, 197248, Note_on_c, 0, 60, 91
1, 197252, Control_c, 0, 64, 39
1, 197254, Note_on_c, 0, 81, 85
1, 197267, Control_c, 0, 64, 49
1, 197275, Note_on_c, 0, 75, 76
1, 197282, Control_c, 0, 64, 54
1, 197311, Control_c, 0, 64, 50
1, 197326, Control_c, 0, 64, 36
1, 197341, Control_c, 0, 64, 0
1, 197345, Note_off_c, 0, 81, 62
1, 197357, Note_off_c, 0, 75, 64
1, 197381, Note_off_c, 0, 60, 63
1, 197391, Note_on_c, 0, 62, 94
1, 197402, Note_on_c, 0, 69, 70
1, 197437, Note_off_c, 0, 69, 59
1, 197489, Control_c, 0, 64, 33
1, 197499, Note_off_c, 0, 62, 57
1, 197503, Control_c, 0, 64, 46
1, 197509, Note_on_c, 0, 79, 81
1, 197518, Control_c, 0, 64, 52
1, 197520, Note_on_c, 0, 60, 80
1, 197524, Note_on_c, 0, 69, 80
1, 197533, Control_c, 0, 64, 54
1, 197548, Control_c, 0, 64, 55
1, 197563, Control_c, 0, 64, 57
1, 197577, Control_c, 0, 64, 58
1, 197592, Control_c, 0, 64, 60
1, 197607, Note_off_c, 0, 79, 61
1, 197607, Control_c, 0, 64, 62
1, 197616, Note_off_c, 0, 69, 61
1, 197622, Control_c, 0, 64, 63
1, 197634, Note_on_c, 0, 58, 88
1, 197635, Note_on_c, 0, 67, 80
1, 197637, Control_c, 0, 64, 65
1, 197639, Note_off_c, 0, 51, 63
1, 197640, Note_off_c, 0, 60, 61
1, 197652, Control_c, 0, 64, 66
1, 197666, Control_c, 0, 64, 67
1, 197693, Note_off_c, 0, 67, 61
1, 197711, Control_c, 0, 64, 66
1, 197718, Note_off_c, 0, 58, 62
1, 197726, Control_c, 0, 64, 57
1, 197741, Control_c, 0, 64, 0
1, 197769, Note_on_c, 0, 75, 87
1, 197774, Note_on_c, 0, 60, 95
1, 197776, Note_on_c, 0, 50, 74
1, 197778, Note_on_c, 0, 67, 82
1, 197801, Note_off_c, 0, 50, 67
1, 197813, Note_off_c, 0, 60, 67
1, 197816, Control_c, 0, 64, 57
1, 197831, Control_c, 0, 64, 67
1, 197845, Control_c, 0, 64, 71
1, 197851, Note_off_c, 0, 67, 60
1, 197860, Control_c, 0, 64, 73
1, 197863, Note_off_c, 0, 75, 60
1, 197875, Control_c, 0, 64, 74
1, 197890, Control_c, 0, 64, 75
1, 197899, Note_on_c, 0, 69, 82
1, 197905, Control_c, 0, 64, 75
1, 197962, Note_off_c, 0, 69, 64
1, 197986, Control_c, 0, 64, 76
1, 198031, Control_c, 0, 64, 76
1, 198032, Note_on_c, 0, 72, 88
1, 198038, Note_on_c, 0, 67, 84
1, 198038, Note_on_c, 0, 75, 87
1, 198045, Control_c, 0, 64, 77
1, 198060, Control_c, 0, 64, 78
1, 198070, Note_off_c, 0, 72, 64
1, 198075, Control_c, 0, 64, 79
1, 198078, Note_off_c, 0, 67, 57
1, 198090, Control_c, 0, 64, 80
1, 198104, Control_c, 0, 64, 81
1, 198111, Note_off_c, 0, 75, 62
1, 198120, Control_c, 0, 64, 84
1, 198135, Control_c, 0, 64, 87
1, 198150, Control_c, 0, 64, 91
1, 198159, Note_on_c, 0, 81, 90
1, 198165, Control_c, 0, 64, 96
1, 198179, Control_c, 0, 64, 98
1, 198199, Note_off_c, 0, 81, 66
1, 198209, Control_c, 0, 64, 95
1, 198224, Control_c, 0, 64, 82
1, 198239, Control_c, 0, 64, 67
1, 198253, Control_c, 0, 64, 57
1, 198268, Control_c, 0, 64, 56
1, 198282, Note_on_c, 0, 62, 89
1, 198283, Control_c, 0, 64, 60
1, 198288, Note_on_c, 0, 86, 101
1, 198297, Control_c, 0, 64, 64
1, 198299, Note_on_c, 0, 72, 72
1, 198303, Note_on_c, 0, 78, 67
1, 198312, Control_c, 0, 64, 69
1, 198313, Note_on_c, 0, 74, 64
1, 198317, Note_off_c, 0, 62, 65
1, 198317, Note_on_c, 0, 63, 25
1, 198317, Note_off_c, 0, 63, 127
1, 198322, Note_off_c, 0, 72, 69
1, 198327, Control_c, 0, 64, 71
1, 198332, Note_off_c, 0, 74, 63
1, 198332, Note_off_c, 0, 78, 63
1, 198342, Control_c, 0, 64, 71
1, 198371, Control_c, 0, 64, 72
1, 198386, Control_c, 0, 64, 73
1, 198401, Control_c, 0, 64, 74
1, 198406, Note_on_c, 0, 81, 86
1, 198416, Control_c, 0, 64, 77
1, 198431, Control_c, 0, 64, 79
1, 198443, Note_off_c, 0, 86, 60
1, 198445, Control_c, 0, 64, 81
1, 198447, Note_on_c, 0, 43, 65
1, 198478, Note_on_c, 0, 50, 77
1, 198484, Note_off_c, 0, 81, 64
1, 198490, Control_c, 0, 64, 75
1, 198499, Note_off_c, 0, 43, 61
1, 198505, Control_c, 0, 64, 61
1, 198519, Control_c, 0, 64, 29
1, 198531, Note_on_c, 0, 86, 88
1, 198534, Note_on_c, 0, 79, 85
1, 198534, Control_c, 0, 64, 0
1, 198537, Note_on_c, 0, 55, 99
1, 198539, Poly_aftertouch_c, 0, 45, 0
1, 198547, Note_on_c, 0, 83, 72
1, 198568, Note_off_c, 0, 50, 59
1, 198580, Control_c, 0, 64, 52
1, 198589, Note_off_c, 0, 55, 65
1, 198594, Control_c, 0, 64, 61
1, 198598, Note_off_c, 0, 86, 62
1, 198608, Note_off_c, 0, 79, 64
1, 198609, Control_c, 0, 64, 63
1, 198610, Note_off_c, 0, 83, 62
1, 198655, Note_on_c, 0, 78, 82
1, 198675, Note_on_c, 0, 55, 82
1, 198695, Note_off_c, 0, 78, 61
1, 198706, Control_c, 0, 64, 63
1, 198711, Note_off_c, 0, 55, 64
1, 198720, Control_c, 0, 64, 62
1, 198735, Control_c, 0, 64, 62
1, 198750, Control_c, 0, 64, 60
1, 198765, Control_c, 0, 64, 58
1, 198780, Control_c, 0, 64, 56
1, 198789, Note_on_c, 0, 55, 93
1, 198791, Note_on_c, 0, 83, 82
1, 198794, Control_c, 0, 64, 56
1, 198800, Note_on_c, 0, 76, 77
1, 198801, Note_on_c, 0, 79, 70
1, 198832, Note_off_c, 0, 55, 65
1, 198839, Control_c, 0, 64, 56
1, 198842, Note_off_c, 0, 79, 59
1, 198847, Note_off_c, 0, 83, 62
1, 198847, Note_off_c, 0, 76, 64
1, 198883, Control_c, 0, 64, 56
1, 198898, Control_c, 0, 64, 55
1, 198908, Note_on_c, 0, 74, 71
1, 198913, Control_c, 0, 64, 54
1, 198915, Note_on_c, 0, 57, 73
1, 198917, Note_on_c, 0, 55, 81
1, 198927, Control_c, 0, 64, 53
1, 198942, Control_c, 0, 64, 50
1, 198949, Note_off_c, 0, 74, 67
1, 198949, Note_off_c, 0, 55, 60
1, 198957, Control_c, 0, 64, 44
1, 198961, Note_off_c, 0, 57, 61
1, 198972, Control_c, 0, 64, 0
1, 198973, Note_on_c, 0, 73, 18
1, 198990, Note_off_c, 0, 73, 0
1, 199023, Note_on_c, 0, 78, 75
1, 199026, Note_on_c, 0, 59, 98
1, 199028, Poly_aftertouch_c, 0, 73, 127
1, 199046, Note_on_c, 0, 72, 50
1, 199077, Note_off_c, 0, 59, 67
1, 199098, Poly_aftertouch_c, 0, 73, 0
1, 199107, Note_off_c, 0, 72, 60
1, 199107, Note_off_c, 0, 78, 59
1, 199142, Note_on_c, 0, 60, 90
1, 199157, Note_on_c, 0, 66, 74
1, 199187, Note_off_c, 0, 60, 67
1, 199196, Note_off_c, 0, 66, 59
1, 199271, Note_on_c, 0, 78, 79
1, 199273, Note_on_c, 0, 62, 97
1, 199277, Note_on_c, 0, 55, 94
1, 199283, Note_on_c, 0, 71, 73
1, 199297, Control_c, 0, 64, 48
1, 199307, Note_off_c, 0, 55, 67
1, 199309, Note_off_c, 0, 62, 66
1, 199312, Control_c, 0, 64, 67
1, 199327, Control_c, 0, 64, 72
1, 199341, Note_off_c, 0, 71, 60
1, 199342, Control_c, 0, 64, 77
1, 199357, Control_c, 0, 64, 80
1, 199372, Control_c, 0, 64, 83
1, 199387, Control_c, 0, 64, 87
1, 199389, Note_on_c, 0, 66, 83
1, 199402, Control_c, 0, 64, 88
1, 199424, Note_off_c, 0, 78, 55
1, 199424, Control_c, 0, 64, 89
1, 199435, Note_off_c, 0, 66, 62
1, 199439, Control_c, 0, 64, 90
1, 199524, Note_on_c, 0, 74, 98
1, 199527, Note_on_c, 0, 78, 83
1, 199533, Note_on_c, 0, 71, 81
1, 199548, Note_off_c, 0, 74, 68
1, 199587, Control_c, 0, 64, 90
1, 199600, Note_off_c, 0, 78, 54
1, 199602, Control_c, 0, 64, 91
1, 199616, Control_c, 0, 64, 93
1, 199631, Control_c, 0, 64, 96
1, 199640, Note_off_c, 0, 71, 35
1, 199646, Control_c, 0, 64, 99
1, 199652, Note_on_c, 0, 83, 79
1, 199661, Control_c, 0, 64, 103
1, 199676, Control_c, 0, 64, 106
1, 199691, Control_c, 0, 64, 109
1, 199703, Note_off_c, 0, 83, 63
1, 199721, Control_c, 0, 64, 111
1, 199755, Note_on_c, 0, 86, 105
1, 199762, Note_on_c, 0, 83, 79
1, 199765, Control_c, 0, 64, 114
1, 199774, Note_off_c, 0, 86, 68
1, 199778, Note_on_c, 0, 79, 73
1, 199780, Control_c, 0, 64, 116
1, 199788, Note_on_c, 0, 78, 62
1, 199795, Control_c, 0, 64, 119
1, 199810, Control_c, 0, 64, 122
1, 199824, Control_c, 0, 64, 124
1, 199825, Note_off_c, 0, 78, 58
1, 199825, Note_off_c, 0, 79, 64
1, 199834, Note_off_c, 0, 83, 65
1, 199839, Control_c, 0, 64, 127
1, 199870, Note_on_c, 0, 74, 77
1, 199894, Note_off_c, 0, 74, 62
1, 199900, Note_on_c, 0, 76, 48
1, 199925, Note_off_c, 0, 76, 56
1, 199926, Note_on_c, 0, 62, 85
1, 199971, Note_off_c, 0, 62, 65
1, 200010, Note_on_c, 0, 53, 86
1, 200014, Note_on_c, 0, 83, 27
1, 200016, Note_on_c, 0, 89, 91
1, 200016, Control_c, 0, 64, 110
1, 200020, Note_on_c, 0, 62, 97
1, 200024, Note_on_c, 0, 81, 87
1, 200031, Control_c, 0, 64, 77
1, 200046, Control_c, 0, 64, 47
1, 200061, Control_c, 0, 64, 0
1, 200120, Control_c, 0, 64, 39
1, 200135, Note_off_c, 0, 89, 55
1, 200136, Control_c, 0, 64, 59
1, 200148, Note_off_c, 0, 81, 61
1, 200150, Note_on_c, 0, 60, 80
1, 200151, Control_c, 0, 64, 63
1, 200166, Note_on_c, 0, 79, 83
1, 200173, Control_c, 0, 64, 63
1, 200188, Note_off_c, 0, 83, 56
1, 200192, Note_off_c, 0, 62, 59
1, 200216, Note_off_c, 0, 79, 65
1, 200280, Note_off_c, 0, 60, 65
1, 200281, Note_on_c, 0, 62, 98
1, 200290, Note_on_c, 0, 84, 73
1, 200291, Note_on_c, 0, 86, 71
1, 200291, Control_c, 0, 64, 64
1, 200296, Note_on_c, 0, 83, 65
1, 200298, Note_on_c, 0, 81, 78
1, 200306, Control_c, 0, 64, 64
1, 200308, Note_on_c, 0, 79, 66
1, 200309, Note_on_c, 0, 77, 68
1, 200329, Note_off_c, 0, 86, 63
1, 200336, Control_c, 0, 64, 60
1, 200351, Control_c, 0, 64, 41
1, 200365, Control_c, 0, 64, 0
1, 200375, Note_off_c, 0, 83, 63
1, 200380, Note_off_c, 0, 79, 58
1, 200381, Note_off_c, 0, 84, 53
1, 200383, Note_off_c, 0, 77, 61
1, 200385, Note_off_c, 0, 81, 63
1, 200407, Note_on_c, 0, 64, 97
1, 200409, Note_off_c, 0, 62, 63
1, 200409, Control_c, 0, 64, 40
1, 200417, Note_on_c, 0, 72, 85
1, 200424, Control_c, 0, 64, 62
1, 200439, Control_c, 0, 64, 68
1, 200454, Control_c, 0, 64, 72
1, 200469, Note_off_c, 0, 72, 62
1, 200469, Control_c, 0, 64, 73
1, 200503, Note_off_c, 0, 64, 63
1, 200535, Note_on_c, 0, 81, 88
1, 200538, Note_on_c, 0, 77, 84
1, 200549, Note_on_c, 0, 62, 91
1, 200550, Note_off_c, 0, 53, 60
1, 200556, Note_on_c, 0, 71, 62
1, 200577, Note_on_c, 0, 72, 50
1, 200602, Control_c, 0, 64, 73
1, 200617, Control_c, 0, 64, 74
1, 200625, Note_off_c, 0, 72, 42
1, 200628, Note_off_c, 0, 77, 62
1, 200631, Note_off_c, 0, 81, 62
1, 200632, Control_c, 0, 64, 76
1, 200635, Note_off_c, 0, 62, 61
1, 200638, Note_off_c, 0, 71, 59
1, 200646, Control_c, 0, 64, 78
1, 200661, Note_on_c, 0, 69, 86
1, 200661, Control_c, 0, 64, 81
1, 200663, Note_on_c, 0, 60, 89
1, 200676, Control_c, 0, 64, 82
1, 200712, Note_off_c, 0, 69, 61
1, 200720, Control_c, 0, 64, 74
1, 200735, Control_c, 0, 64, 58
1, 200750, Control_c, 0, 64, 0
1, 200767, Note_off_c, 0, 60, 65
1, 200802, Note_on_c, 0, 77, 92
1, 200804, Note_on_c, 0, 69, 91
1, 200805, Note_on_c, 0, 62, 102
1, 200806, Note_on_c, 0, 65, 85
1, 200809, Note_on_c, 0, 52, 85
1, 200809, Control_c, 0, 64, 36
1, 200824, Control_c, 0, 64, 59
1, 200839, Control_c, 0, 64, 64
1, 200853, Control_c, 0, 64, 66
1, 200858, Note_off_c, 0, 65, 61
1, 200868, Control_c, 0, 64, 68
1, 200883, Control_c, 0, 64, 70
1, 200883, Note_off_c, 0, 77, 62
1, 200898, Control_c, 0, 64, 74
1, 200902, Note_off_c, 0, 52, 60
1, 200920, Control_c, 0, 64, 79
1, 200935, Control_c, 0, 64, 87
1, 200945, Note_on_c, 0, 71, 95
1, 200945, Note_off_c, 0, 69, 40
1, 200951, Control_c, 0, 64, 97
1, 200966, Control_c, 0, 64, 112
1, 200981, Control_c, 0, 64, 127
1, 200995, Note_off_c, 0, 71, 65
1, 201059, Note_off_c, 0, 62, 64
1, 201080, Note_on_c, 0, 65, 93
1, 201081, Note_on_c, 0, 74, 100
1, 201085, Note_on_c, 0, 69, 90
1, 201160, Note_off_c, 0, 69, 59
1, 201203, Note_off_c, 0, 74, 58
1, 201225, Note_on_c, 0, 81, 102
1, 201269, Note_off_c, 0, 81, 69
1, 201271, Note_off_c, 0, 65, 55
1, 201394, Control_c, 0, 64, 87
1, 201404, Note_on_c, 0, 71, 91
1, 201404, Note_on_c, 0, 88, 102
1, 201405, Note_on_c, 0, 64, 83
1, 201409, Note_on_c, 0, 74, 101
1, 201409, Control_c, 0, 64, 61
1, 201424, Control_c, 0, 64, 38
1, 201439, Control_c, 0, 64, 45
1, 201453, Control_c, 0, 64, 59
1, 201468, Control_c, 0, 64, 70
1, 201476, Note_off_c, 0, 71, 65
1, 201483, Control_c, 0, 64, 85
1, 201498, Control_c, 0, 64, 103
1, 201499, Note_off_c, 0, 64, 67
1, 201512, Control_c, 0, 64, 111
1, 201527, Control_c, 0, 64, 119
1, 201542, Control_c, 0, 64, 127
1, 201602, Note_on_c, 0, 80, 101
1, 201631, Note_off_c, 0, 74, 62
1, 201634, Note_off_c, 0, 88, 33
1, 201682, Note_off_c, 0, 80, 65
1, 201775, Note_on_c, 0, 45, 86
1, 201817, Control_c, 0, 64, 116
1, 201825, Note_on_c, 0, 81, 97
1, 201831, Note_on_c, 0, 69, 90
1, 201832, Control_c, 0, 64, 71
1, 201834, Note_on_c, 0, 76, 92
1, 201836, Note_on_c, 0, 73, 85
1, 201847, Control_c, 0, 64, 0
1, 201887, Note_on_c, 0, 71, 9
1, 201887, Note_off_c, 0, 71, 127
1, 201892, Control_c, 0, 64, 31
1, 201907, Control_c, 0, 64, 57
1, 201922, Control_c, 0, 64, 67
1, 201933, Note_off_c, 0, 81, 58
1, 201936, Control_c, 0, 64, 73
1, 201937, Note_off_c, 0, 69, 61
1, 201938, Note_off_c, 0, 73, 60
1, 201944, Note_off_c, 0, 76, 61
1, 201951, Control_c, 0, 64, 74
1, 201981, Control_c, 0, 64, 75
1, 202022, Note_on_c, 0, 81, 97
1, 202023, Note_on_c, 0, 69, 98
1, 202025, Control_c, 0, 64, 76
1, 202031, Note_on_c, 0, 52, 75
1, 202034, Note_on_c, 0, 76, 73
1, 202035, Note_off_c, 0, 45, 61
1, 202037, Note_on_c, 0, 73, 79
1, 202040, Control_c, 0, 64, 77
1, 202055, Control_c, 0, 64, 80
1, 202070, Control_c, 0, 64, 83
1, 202076, Note_off_c, 0, 76, 48
1, 202079, Note_off_c, 0, 69, 63
1, 202085, Control_c, 0, 64, 86
1, 202090, Note_off_c, 0, 81, 63
1, 202094, Note_off_c, 0, 73, 61
1, 202100, Control_c, 0, 64, 89
1, 202114, Control_c, 0, 64, 96
1, 202125, Note_off_c, 0, 52, 60
1, 202129, Control_c, 0, 64, 110
1, 202144, Control_c, 0, 64, 127
1, 202144, Note_on_c, 0, 61, 89
1, 202152, Note_on_c, 0, 81, 89
1, 202153, Note_on_c, 0, 73, 70
1, 202156, Note_on_c, 0, 69, 85
1, 202184, Note_off_c, 0, 73, 63
1, 202190, Note_off_c, 0, 61, 64
1, 202201, Note_off_c, 0, 69, 61
1, 202204, Note_off_c, 0, 81, 65
1, 202218, Control_c, 0, 64, 105
1, 202233, Control_c, 0, 64, 84
1, 202248, Control_c, 0, 64, 77
1, 202274, Note_on_c, 0, 62, 84
1, 202276, Note_on_c, 0, 83, 101
1, 202277, Note_on_c, 0, 71, 102
1, 202277, Control_c, 0, 64, 79
1, 202292, Control_c, 0, 64, 86
1, 202307, Control_c, 0, 64, 97
1, 202317, Note_off_c, 0, 71, 65
1, 202321, Note_off_c, 0, 83, 66
1, 202322, Control_c, 0, 64, 109
1, 202336, Control_c, 0, 64, 124
1, 202351, Control_c, 0, 64, 127
1, 202365, Note_off_c, 0, 62, 59
1, 202398, Note_on_c, 0, 64, 83
1, 202398, Note_on_c, 0, 85, 99
1, 202400, Note_on_c, 0, 73, 91
1, 202454, Note_off_c, 0, 73, 63
1, 202469, Note_off_c, 0, 85, 62
1, 202475, Note_off_c, 0, 64, 62
1, 202520, Note_on_c, 0, 68, 96
1, 202528, Note_on_c, 0, 74, 97
1, 202528, Note_on_c, 0, 86, 99
1, 202556, Note_off_c, 0, 68, 66
1, 202575, Note_off_c, 0, 74, 61
1, 202594, Note_off_c, 0, 86, 65
1, 202627, Control_c, 0, 64, 89
1, 202641, Control_c, 0, 64, 58
1, 202656, Control_c, 0, 64, 0
1, 202669, Note_on_c, 0, 45, 101
1, 202671, Note_on_c, 0, 88, 100
1, 202678, Note_on_c, 0, 76, 99
1, 202700, Control_c, 0, 64, 32
1, 202703, Note_on_c, 0, 85, 55
1, 202708, Note_off_c, 0, 45, 65
1, 202712, Note_on_c, 0, 81, 34
1, 202715, Control_c, 0, 64, 62
1, 202720, Note_off_c, 0, 88, 68
1, 202725, Note_off_c, 0, 85, 52
1, 202730, Control_c, 0, 64, 77
1, 202745, Control_c, 0, 64, 92
1, 202746, Note_off_c, 0, 81, 33
1, 202747, Note_off_c, 0, 76, 64
1, 202759, Control_c, 0, 64, 99
1, 202842, Note_on_c, 0, 76, 88
1, 202848, Control_c, 0, 64, 101
1, 202850, Note_on_c, 0, 73, 100
1, 202851, Note_on_c, 0, 69, 85
1, 202863, Control_c, 0, 64, 103
1, 202878, Control_c, 0, 64, 105
1, 202883, Note_off_c, 0, 73, 70
1, 202892, Control_c, 0, 64, 107
1, 202907, Control_c, 0, 64, 110
1, 202922, Control_c, 0, 64, 114
1, 202937, Control_c, 0, 64, 120
1, 202952, Note_off_c, 0, 69, 59
1, 202952, Control_c, 0, 64, 127
1, 202992, Note_on_c, 0, 64, 87
1, 202995, Note_on_c, 0, 73, 112
1, 203026, Note_off_c, 0, 73, 71
1, 203045, Note_off_c, 0, 76, 64
1, 203081, Note_off_c, 0, 64, 61
1, 203141, Note_on_c, 0, 73, 110
1, 203148, Note_on_c, 0, 74, 89
1, 203160, Note_on_c, 0, 68, 74
1, 203179, Note_off_c, 0, 73, 67
1, 203209, Note_off_c, 0, 68, 66
1, 203232, Note_off_c, 0, 74, 60
1, 203279, Note_on_c, 0, 76, 98
1, 203307, Note_off_c, 0, 76, 70
1, 203412, Note_on_c, 0, 71, 106
1, 203446, Note_off_c, 0, 71, 69
1, 203499, Note_on_c, 0, 88, 93
1, 203501, Note_on_c, 0, 76, 101
1, 203512, Note_on_c, 0, 80, 77
1, 203515, Note_on_c, 0, 86, 71
1, 203531, Note_off_c, 0, 80, 72
1, 203532, Note_off_c, 0, 86, 65
1, 203533, Note_off_c, 0, 76, 68
1, 203534, Note_off_c, 0, 88, 66
1, 203537, Note_on_c, 0, 84, 44
1, 203563, Note_off_c, 0, 84, 58
1, 203638, Note_on_c, 0, 43, 80
1, 203646, Note_on_c, 0, 45, 79
1, 203694, Note_on_c, 0, 71, 98
1, 203702, Note_on_c, 0, 76, 91
1, 203715, Control_c, 0, 64, 83
1, 203729, Note_off_c, 0, 71, 65
1, 203730, Control_c, 0, 64, 48
1, 203745, Control_c, 0, 64, 0
1, 203763, Note_on_c, 0, 73, 90
1, 203778, Note_off_c, 0, 43, 63
1, 203787, Note_off_c, 0, 76, 66
1, 203798, Note_on_c, 0, 71, 90
1, 203834, Control_c, 0, 64, 56
1, 203838, Note_on_c, 0, 52, 51
1, 203849, Control_c, 0, 64, 74
1, 203850, Note_off_c, 0, 45, 59
1, 203861, Note_on_c, 0, 69, 89
1, 203863, Note_off_c, 0, 73, 53
1, 203864, Control_c, 0, 64, 84
1, 203876, Note_off_c, 0, 71, 64
1, 203879, Control_c, 0, 64, 92
1, 203894, Control_c, 0, 64, 93
1, 203915, Control_c, 0, 64, 95
1, 203921, Note_off_c, 0, 69, 64
1, 203930, Control_c, 0, 64, 95
1, 203942, Note_off_c, 0, 52, 63
1, 203960, Control_c, 0, 64, 96
1, 203970, Note_on_c, 0, 61, 85
1, 203982, Note_on_c, 0, 81, 93
1, 203984, Note_on_c, 0, 69, 96
1, 204010, Note_on_c, 0, 71, 55
1, 204010, Note_off_c, 0, 71, 127
1, 204015, Note_off_c, 0, 61, 59
1, 204025, Note_off_c, 0, 81, 65
1, 204026, Note_off_c, 0, 69, 62
1, 204109, Note_on_c, 0, 62, 79
1, 204112, Note_on_c, 0, 71, 97
1, 204113, Note_on_c, 0, 83, 96
1, 204145, Note_off_c, 0, 71, 62
1, 204147, Note_off_c, 0, 83, 66
1, 204168, Control_c, 0, 64, 98
1, 204177, Note_off_c, 0, 62, 59
1, 204198, Control_c, 0, 64, 101
1, 204230, Note_on_c, 0, 64, 83
1, 204230, Note_on_c, 0, 85, 97
1, 204231, Note_on_c, 0, 73, 93
1, 204243, Control_c, 0, 64, 103
1, 204277, Note_off_c, 0, 73, 62
1, 204287, Control_c, 0, 64, 105
1, 204289, Note_off_c, 0, 64, 63
1, 204290, Note_off_c, 0, 85, 62
1, 204302, Control_c, 0, 64, 107
1, 204317, Control_c, 0, 64, 110
1, 204331, Control_c, 0, 64, 117
1, 204341, Note_on_c, 0, 68, 92
1, 204346, Control_c, 0, 64, 127
1, 204356, Note_on_c, 0, 74, 95
1, 204356, Note_on_c, 0, 86, 100
1, 204368, Note_off_c, 0, 68, 64
1, 204401, Note_off_c, 0, 74, 62
1, 204409, Note_off_c, 0, 86, 62
1, 204450, Control_c, 0, 64, 94
1, 204464, Control_c, 0, 64, 64
1, 204479, Control_c, 0, 64, 0
1, 204486, Note_on_c, 0, 45, 91
1, 204491, Note_on_c, 0, 88, 101
1, 204498, Note_on_c, 0, 76, 103
1, 204509, Control_c, 0, 64, 30
1, 204514, Note_on_c, 0, 85, 72
1, 204522, Note_off_c, 0, 45, 66
1, 204524, Control_c, 0, 64, 54
1, 204529, Note_off_c, 0, 85, 67
1, 204533, Note_off_c, 0, 88, 67
1, 204538, Control_c, 0, 64, 71
1, 204553, Control_c, 0, 64, 86
1, 204554, Note_off_c, 0, 76, 66
1, 204568, Control_c, 0, 64, 108
1, 204583, Control_c, 0, 64, 113
1, 204641, Note_on_c, 0, 76, 92
1, 204642, Control_c, 0, 64, 115
1, 204651, Note_on_c, 0, 69, 89
1, 204664, Control_c, 0, 64, 118
1, 204665, Note_on_c, 0, 73, 96
1, 204679, Control_c, 0, 64, 127
1, 204705, Note_off_c, 0, 73, 62
1, 204734, Note_off_c, 0, 69, 61
1, 204781, Note_on_c, 0, 64, 84
1, 204781, Note_on_c, 0, 73, 103
1, 204797, Note_on_c, 0, 65, 66
1, 204811, Note_off_c, 0, 76, 56
1, 204816, Note_off_c, 0, 73, 68
1, 204867, Note_off_c, 0, 64, 63
1, 204913, Note_on_c, 0, 73, 105
1, 204917, Note_on_c, 0, 74, 89
1, 204926, Note_off_c, 0, 65, 47
1, 204928, Note_on_c, 0, 68, 78
1, 204953, Note_off_c, 0, 73, 58
1, 205000, Note_off_c, 0, 68, 62
1, 205045, Note_on_c, 0, 76, 86
1, 205045, Note_off_c, 0, 74, 0
1, 205061, Note_on_c, 0, 74, 52
1, 205071, Note_off_c, 0, 76, 63
1, 205082, Note_off_c, 0, 74, 60
1, 205182, Note_on_c, 0, 71, 96
1, 205218, Note_off_c, 0, 71, 68
1, 205259, Note_on_c, 0, 88, 87
1, 205265, Note_on_c, 0, 76, 93
1, 205267, Note_on_c, 0, 86, 85
1, 205273, Note_on_c, 0, 80, 79
1, 205292, Note_off_c, 0, 80, 70
1, 205298, Note_off_c, 0, 88, 65
1, 205299, Note_off_c, 0, 76, 65
1, 205307, Note_off_c, 0, 86, 61
1, 205399, Note_on_c, 0, 43, 74
1, 205411, Note_on_c, 0, 41, 80
1, 205434, Note_off_c, 0, 41, 68
1, 205453, Note_on_c, 0, 71, 95
1, 205465, Note_on_c, 0, 76, 80
1, 205487, Control_c, 0, 64, 76
1, 205498, Note_off_c, 0, 71, 60
1, 205502, Control_c, 0, 64, 39
1, 205517, Control_c, 0, 64, 0
1, 205531, Note_on_c, 0, 73, 91
1, 205542, Note_off_c, 0, 76, 64
1, 205587, Note_on_c, 0, 71, 79
1, 205591, Control_c, 0, 64, 45
1, 205593, Note_off_c, 0, 73, 65
1, 205606, Control_c, 0, 64, 65
1, 205621, Control_c, 0, 64, 70
1, 205635, Control_c, 0, 64, 74
1, 205638, Note_on_c, 0, 70, 96
1, 205640, Note_on_c, 0, 52, 79
1, 205644, Note_off_c, 0, 71, 65
1, 205650, Control_c, 0, 64, 77
1, 205656, Note_off_c, 0, 43, 62
1, 205665, Control_c, 0, 64, 80
1, 205676, Note_off_c, 0, 70, 68
1, 205680, Control_c, 0, 64, 83
1, 205694, Control_c, 0, 64, 86
1, 205709, Control_c, 0, 64, 88
1, 205724, Control_c, 0, 64, 91
1, 205736, Note_off_c, 0, 52, 61
1, 205740, Control_c, 0, 64, 94
1, 205754, Note_on_c, 0, 55, 79
1, 205755, Control_c, 0, 64, 98
1, 205760, Note_on_c, 0, 85, 103
1, 205763, Note_on_c, 0, 73, 89
1, 205770, Control_c, 0, 64, 102
1, 205781, Note_off_c, 0, 55, 67
1, 205784, Control_c, 0, 64, 108
1, 205799, Control_c, 0, 64, 120
1, 205808, Note_off_c, 0, 73, 61
1, 205814, Control_c, 0, 64, 127
1, 205817, Note_off_c, 0, 85, 64
1, 205862, Note_on_c, 0, 58, 80
1, 205880, Note_on_c, 0, 74, 98
1, 205880, Note_on_c, 0, 86, 101
1, 205915, Note_off_c, 0, 74, 65
1, 205924, Note_off_c, 0, 86, 66
1, 206000, Note_on_c, 0, 67, 82
1, 206000, Note_on_c, 0, 88, 100
1, 206001, Note_on_c, 0, 76, 97
1, 206034, Note_off_c, 0, 76, 66
1, 206039, Note_off_c, 0, 88, 68
1, 206050, Note_off_c, 0, 67, 64
1, 206095, Note_off_c, 0, 58, 60
1, 206116, Note_on_c, 0, 78, 97
1, 206117, Note_on_c, 0, 90, 101
1, 206121, Note_on_c, 0, 61, 78
1, 206168, Note_off_c, 0, 78, 60
1, 206185, Note_off_c, 0, 90, 62
1, 206198, Note_off_c, 0, 61, 64
1, 206239, Note_on_c, 0, 70, 97
1, 206246, Note_on_c, 0, 91, 102
1, 206246, Note_on_c, 0, 79, 87
1, 206267, Note_off_c, 0, 70, 68
1, 206281, Note_off_c, 0, 79, 67
1, 206300, Note_off_c, 0, 91, 63
1, 206355, Control_c, 0, 64, 87
1, 206370, Control_c, 0, 64, 65
1, 206384, Control_c, 0, 64, 56
1, 206386, Note_on_c, 0, 93, 94
1, 206389, Note_on_c, 0, 82, 108
1, 206393, Note_on_c, 0, 86, 82
1, 206393, Note_on_c, 0, 88, 80
1, 206399, Control_c, 0, 64, 61
1, 206414, Control_c, 0, 64, 68
1, 206427, Note_off_c, 0, 82, 68
1, 206428, Control_c, 0, 64, 79
1, 206443, Control_c, 0, 64, 100
1, 206458, Control_c, 0, 64, 118
1, 206473, Control_c, 0, 64, 127
1, 206483, Note_off_c, 0, 93, 64
1, 206512, Note_off_c, 0, 88, 63
1, 206520, Note_off_c, 0, 86, 62
1, 206532, Note_on_c, 0, 82, 109
1, 206533, Note_on_c, 0, 85, 93
1, 206558, Note_off_c, 0, 82, 73
1, 206576, Note_off_c, 0, 85, 68
1, 206675, Note_on_c, 0, 82, 115
1, 206690, Note_on_c, 0, 88, 94
1, 206691, Note_on_c, 0, 81, 91
1, 206697, Note_on_c, 0, 86, 80
1, 206709, Note_off_c, 0, 82, 67
1, 206760, Note_off_c, 0, 86, 61
1, 206765, Note_off_c, 0, 81, 60
1, 206768, Note_off_c, 0, 88, 62
1, 206812, Note_on_c, 0, 79, 78
1, 206858, Note_off_c, 0, 79, 63
1, 206908, Note_on_c, 0, 81, 110
1, 206932, Note_on_c, 0, 82, 39
1, 206932, Note_off_c, 0, 82, 127
1, 206935, Note_off_c, 0, 81, 70
1, 206983, Note_on_c, 0, 86, 87
1, 206991, Note_on_c, 0, 74, 95
1, 206996, Note_on_c, 0, 82, 95
1, 207032, Note_off_c, 0, 74, 62
1, 207036, Note_off_c, 0, 86, 62
1, 207073, Note_off_c, 0, 82, 60
1, 207148, Note_on_c, 0, 58, 92
1, 207149, Note_on_c, 0, 81, 95
1, 207155, Note_on_c, 0, 74, 81
1, 207163, Control_c, 0, 64, 108
1, 207176, Note_off_c, 0, 74, 70
1, 207178, Control_c, 0, 64, 65
1, 207193, Control_c, 0, 64, 0
1, 207206, Note_off_c, 0, 81, 67
1, 207208, Note_on_c, 0, 82, 86
1, 207222, Control_c, 0, 64, 40
1, 207237, Control_c, 0, 64, 61
1, 207251, Control_c, 0, 64, 78
1, 207252, Note_on_c, 0, 83, 61
1, 207266, Control_c, 0, 64, 107
1, 207270, Note_on_c, 0, 81, 95
1, 207281, Control_c, 0, 64, 127
1, 207291, Note_off_c, 0, 83, 54
1, 207304, Note_off_c, 0, 82, 53
1, 207309, Note_off_c, 0, 58, 61
1, 207310, Note_on_c, 0, 64, 81
1, 207340, Note_on_c, 0, 79, 84
1, 207357, Note_off_c, 0, 81, 66
1, 207408, Note_off_c, 0, 64, 64
1, 207424, Note_on_c, 0, 70, 89
1, 207429, Note_on_c, 0, 74, 87
1, 207435, Note_on_c, 0, 81, 96
1, 207438, Note_off_c, 0, 79, 67
1, 207442, Note_off_c, 0, 70, 70
1, 207465, Note_off_c, 0, 74, 63
1, 207485, Note_off_c, 0, 81, 66
1, 207564, Note_on_c, 0, 88, 98
1, 207567, Note_on_c, 0, 82, 105
1, 207571, Note_on_c, 0, 86, 93
1, 207572, Note_on_c, 0, 81, 95
1, 207669, Note_off_c, 0, 86, 64
1, 207674, Note_off_c, 0, 82, 53
1, 207674, Note_off_c, 0, 88, 64
1, 207677, Note_off_c, 0, 81, 62
1, 207692, Note_on_c, 0, 79, 86
1, 207743, Note_off_c, 0, 79, 65
1, 207772, Note_on_c, 0, 81, 101
1, 207803, Note_off_c, 0, 81, 69
1, 207837, Note_on_c, 0, 86, 86
1, 207844, Note_on_c, 0, 82, 91
1, 207847, Note_on_c, 0, 74, 97
1, 207888, Note_off_c, 0, 74, 63
1, 207889, Note_off_c, 0, 86, 60
1, 207925, Note_off_c, 0, 82, 63
1, 207981, Note_on_c, 0, 81, 98
1, 207982, Note_on_c, 0, 58, 94
1, 207987, Note_on_c, 0, 74, 82
1, 207987, Control_c, 0, 64, 73
1, 208002, Control_c, 0, 64, 49
1, 208008, Note_off_c, 0, 74, 69
1, 208017, Control_c, 0, 64, 45
1, 208031, Control_c, 0, 64, 57
1, 208032, Note_on_c, 0, 82, 82
1, 208040, Note_off_c, 0, 81, 64
1, 208046, Control_c, 0, 64, 68
1, 208061, Control_c, 0, 64, 88
1, 208075, Control_c, 0, 64, 127
1, 208090, Note_on_c, 0, 81, 85
1, 208124, Note_off_c, 0, 82, 61
1, 208146, Note_on_c, 0, 79, 86
1, 208147, Note_on_c, 0, 64, 79
1, 208148, Note_off_c, 0, 58, 61
1, 208175, Note_off_c, 0, 81, 65
1, 208227, Note_off_c, 0, 64, 66
1, 208241, Note_on_c, 0, 74, 95
1, 208243, Note_on_c, 0, 70, 92
1, 208255, Note_on_c, 0, 81, 89
1, 208258, Note_off_c, 0, 79, 63
1, 208270, Note_off_c, 0, 70, 63
1, 208283, Note_off_c, 0, 74, 66
1, 208304, Note_off_c, 0, 81, 65
1, 208379, Note_on_c, 0, 88, 103
1, 208383, Note_on_c, 0, 82, 107
1, 208385, Note_on_c, 0, 86, 94
1, 208387, Note_on_c, 0, 81, 97
1, 208500, Note_off_c, 0, 86, 65
1, 208504, Note_off_c, 0, 88, 62
1, 208510, Note_off_c, 0, 81, 65
1, 208516, Note_on_c, 0, 79, 85
1, 208523, Note_off_c, 0, 82, 55
1, 208571, Note_off_c, 0, 79, 64
1, 208611, Note_on_c, 0, 81, 108
1, 208652, Note_off_c, 0, 81, 66
1, 208678, Note_on_c, 0, 86, 98
1, 208685, Note_on_c, 0, 82, 88
1, 208688, Note_on_c, 0, 74, 96
1, 208772, Note_off_c, 0, 86, 63
1, 208809, Note_off_c, 0, 74, 61
1, 208839, Note_off_c, 0, 82, 62
1, 208851, Note_on_c, 0, 58, 96
1, 208913, Note_on_c, 0, 81, 103
1, 208913, Control_c, 0, 64, 108
1, 208919, Note_on_c, 0, 74, 93
1, 208929, Control_c, 0, 64, 66
1, 208944, Control_c, 0, 64, 0
1, 208988, Control_c, 0, 64, 35
1, 209003, Control_c, 0, 64, 60
1, 209008, Note_off_c, 0, 81, 58
1, 209011, Note_on_c, 0, 82, 94
1, 209018, Control_c, 0, 64, 71
1, 209033, Control_c, 0, 64, 83
1, 209047, Control_c, 0, 64, 91
1, 209048, Note_off_c, 0, 74, 65
1, 209062, Control_c, 0, 64, 94
1, 209077, Control_c, 0, 64, 97
1, 209089, Note_on_c, 0, 81, 98
1, 209107, Control_c, 0, 64, 99
1, 209121, Control_c, 0, 64, 102
1, 209136, Control_c, 0, 64, 104
1, 209145, Note_on_c, 0, 64, 87
1, 209166, Note_off_c, 0, 82, 61
1, 209173, Control_c, 0, 64, 109
1, 209180, Note_on_c, 0, 80, 103
1, 209188, Control_c, 0, 64, 120
1, 209203, Note_off_c, 0, 81, 68
1, 209203, Control_c, 0, 64, 127
1, 209291, Note_off_c, 0, 58, 61
1, 209302, Note_off_c, 0, 64, 67
1, 209308, Note_on_c, 0, 81, 82
1, 209314, Note_on_c, 0, 74, 88
1, 209321, Note_on_c, 0, 70, 79
1, 209325, Note_off_c, 0, 80, 60
1, 209340, Note_off_c, 0, 70, 66
1, 209358, Note_off_c, 0, 74, 65
1, 209371, Note_off_c, 0, 81, 65
1, 209443, Note_on_c, 0, 82, 95
1, 209443, Note_on_c, 0, 88, 92
1, 209447, Note_on_c, 0, 84, 90
1, 209456, Note_on_c, 0, 76, 66
1, 209457, Note_off_c, 0, 82, 72
1, 209463, Note_on_c, 0, 77, 61
1, 209474, Note_off_c, 0, 76, 67
1, 209483, Note_off_c, 0, 77, 62
1, 209486, Note_off_c, 0, 84, 44
1, 209486, Note_off_c, 0, 88, 64
1, 209579, Note_on_c, 0, 80, 88
1, 209623, Note_off_c, 0, 80, 62
1, 209655, Note_on_c, 0, 80, 76
1, 209674, Note_off_c, 0, 80, 73
1, 209711, Note_on_c, 0, 82, 82
1, 209712, Note_on_c, 0, 74, 84
1, 209712, Note_on_c, 0, 86, 84
1, 209733, Note_off_c, 0, 74, 71
1, 209751, Note_off_c, 0, 86, 60
1, 209754, Note_off_c, 0, 82, 58
1, 209831, Note_on_c, 0, 82, 77
1, 209839, Note_on_c, 0, 88, 81
1, 209842, Note_on_c, 0, 84, 82
1, 209851, Note_off_c, 0, 82, 71
1, 209854, Note_on_c, 0, 76, 60
1, 209863, Note_off_c, 0, 88, 65
1, 209865, Note_off_c, 0, 84, 64
1, 209872, Note_off_c, 0, 76, 65
1, 209960, Note_on_c, 0, 86, 89
1, 209962, Note_on_c, 0, 82, 78
1, 209963, Note_on_c, 0, 74, 83
1, 209966, Note_on_c, 0, 80, 79
1, 209984, Note_off_c, 0, 74, 72
1, 209987, Note_off_c, 0, 80, 68
1, 210004, Note_off_c, 0, 86, 65
1, 210008, Note_off_c, 0, 82, 60
1, 210073, Note_on_c, 0, 88, 86
1, 210076, Note_on_c, 0, 82, 88
1, 210076, Note_on_c, 0, 84, 90
1, 210085, Note_on_c, 0, 76, 70
1, 210101, Note_off_c, 0, 76, 69
1, 210111, Note_off_c, 0, 88, 61
1, 210114, Note_off_c, 0, 82, 60
1, 210118, Note_off_c, 0, 84, 64
1, 210188, Note_on_c, 0, 86, 94
1, 210191, Note_on_c, 0, 74, 93
1, 210196, Note_on_c, 0, 82, 84
1, 210198, Note_on_c, 0, 80, 93
1, 210211, Note_off_c, 0, 74, 66
1, 210223, Note_on_c, 0, 76, 7
1, 210231, Note_off_c, 0, 86, 64
1, 210237, Note_off_c, 0, 82, 60
1, 210237, Note_off_c, 0, 80, 64
1, 210273, Note_off_c, 0, 76, 50
1, 210301, Note_on_c, 0, 82, 96
1, 210302, Note_on_c, 0, 88, 90
1, 210306, Note_on_c, 0, 84, 94
1, 210310, Note_on_c, 0, 76, 80
1, 210332, Note_off_c, 0, 76, 69
1, 210344, Note_off_c, 0, 82, 61
1, 210347, Note_off_c, 0, 88, 60
1, 210349, Note_off_c, 0, 84, 65
1, 210412, Note_on_c, 0, 80, 93
1, 210416, Note_on_c, 0, 86, 100
1, 210423, Note_on_c, 0, 74, 90
1, 210426, Note_on_c, 0, 82, 88
1, 210434, Note_on_c, 0, 76, 63
1, 210440, Note_off_c, 0, 80, 63
1, 210441, Note_off_c, 0, 74, 74
1, 210454, Note_off_c, 0, 76, 63
1, 210455, Note_off_c, 0, 86, 67
1, 210464, Note_off_c, 0, 82, 66
1, 210484, Control_c, 0, 64, 79
1, 210499, Control_c, 0, 64, 55
1, 210514, Control_c, 0, 64, 34
1, 210529, Control_c, 0, 64, 45
1, 210534, Note_on_c, 0, 62, 99
1, 210538, Note_on_c, 0, 80, 100
1, 210538, Note_on_c, 0, 92, 98
1, 210544, Note_on_c, 0, 88, 93
1, 210544, Control_c, 0, 64, 61
1, 210550, Note_on_c, 0, 64, 69
1, 210555, Note_off_c, 0, 62, 69
1, 210559, Control_c, 0, 64, 75
1, 210564, Note_on_c, 0, 87, 60
1, 210570, Note_off_c, 0, 64, 41
1, 210574, Control_c, 0, 64, 97
1, 210575, Note_off_c, 0, 80, 63
1, 210588, Note_off_c, 0, 87, 39
1, 210589, Control_c, 0, 64, 127
1, 210614, Note_off_c, 0, 92, 63
1, 210626, Note_off_c, 0, 88, 62
1, 210672, Note_on_c, 0, 90, 90
1, 210675, Note_on_c, 0, 78, 88
1, 210684, Note_on_c, 0, 86, 76
1, 210685, Note_on_c, 0, 82, 100
1, 210715, Note_off_c, 0, 78, 59
1, 210738, Note_off_c, 0, 90, 63
1, 210740, Note_off_c, 0, 82, 56
1, 210740, Note_off_c, 0, 86, 62
1, 210791, Note_on_c, 0, 92, 94
1, 210793, Note_on_c, 0, 88, 93
1, 210798, Note_on_c, 0, 80, 87
1, 210798, Note_on_c, 0, 84, 69
1, 210807, Note_on_c, 0, 83, 73
1, 210825, Note_off_c, 0, 83, 67
1, 210825, Note_off_c, 0, 80, 65
1, 210837, Note_off_c, 0, 84, 63
1, 210854, Note_off_c, 0, 92, 65
1, 210855, Note_off_c, 0, 88, 62
1, 210905, Note_on_c, 0, 78, 91
1, 210905, Note_on_c, 0, 90, 95
1, 210912, Note_on_c, 0, 86, 86
1, 210913, Note_on_c, 0, 82, 84
1, 210946, Note_off_c, 0, 78, 61
1, 210971, Note_off_c, 0, 90, 63
1, 210974, Note_off_c, 0, 82, 59
1, 210978, Note_off_c, 0, 86, 63
1, 211021, Note_on_c, 0, 84, 98
1, 211027, Note_on_c, 0, 88, 90
1, 211027, Note_on_c, 0, 92, 91
1, 211029, Note_on_c, 0, 80, 83
1, 211035, Note_on_c, 0, 86, 69
1, 211069, Note_off_c, 0, 80, 63
1, 211072, Note_off_c, 0, 92, 66
1, 211075, Note_off_c, 0, 84, 61
1, 211087, Note_off_c, 0, 88, 63
1, 211105, Note_off_c, 0, 86, 64
1, 211136, Note_on_c, 0, 82, 93
1, 211138, Note_on_c, 0, 90, 99
1, 211142, Note_on_c, 0, 78, 99
1, 211171, Note_off_c, 0, 82, 66
1, 211181, Note_off_c, 0, 78, 62
1, 211203, Control_c, 0, 64, 80
1, 211205, Note_off_c, 0, 90, 64
1, 211218, Control_c, 0, 64, 61
1, 211233, Control_c, 0, 64, 55
1, 211248, Control_c, 0, 64, 62
1, 211254, Poly_aftertouch_c, 0, 80, 0
1, 211263, Control_c, 0, 64, 72
1, 211264, Note_on_c, 0, 68, 94
1, 211266, Note_on_c, 0, 94, 103
1, 211269, Note_on_c, 0, 82, 103
1, 211272, Note_on_c, 0, 90, 93
1, 211278, Control_c, 0, 64, 94
1, 211292, Control_c, 0, 64, 127
1, 211301, Note_off_c, 0, 68, 66
1, 211319, Note_off_c, 0, 82, 59
1, 211327, Note_off_c, 0, 94, 63
1, 211340, Note_off_c, 0, 90, 62
1, 211396, Poly_aftertouch_c, 0, 83, 0
1, 211409, Note_on_c, 0, 80, 96
1, 211410, Note_on_c, 0, 92, 97
1, 211412, Note_on_c, 0, 84, 89
1, 211412, Note_on_c, 0, 88, 93
1, 211425, Note_on_c, 0, 85, 48
1, 211453, Note_off_c, 0, 85, 35
1, 211466, Note_off_c, 0, 80, 59
1, 211479, Note_off_c, 0, 92, 66
1, 211480, Note_off_c, 0, 84, 57
1, 211492, Note_off_c, 0, 88, 62
1, 211540, Note_on_c, 0, 82, 91
1, 211541, Note_on_c, 0, 86, 94
1, 211542, Note_on_c, 0, 90, 98
1, 211543, Note_on_c, 0, 78, 95
1, 211581, Note_on_c, 0, 80, 42
1, 211594, Note_off_c, 0, 82, 62
1, 211603, Note_off_c, 0, 78, 57
1, 211606, Note_off_c, 0, 80, 42
1, 211629, Note_off_c, 0, 86, 64
1, 211632, Note_off_c, 0, 90, 63
1, 211677, Note_on_c, 0, 74, 90
1, 211684, Note_on_c, 0, 88, 93
1, 211686, Note_on_c, 0, 80, 103
1, 211690, Note_on_c, 0, 92, 105
1, 211720, Note_off_c, 0, 74, 65
1, 211725, Note_off_c, 0, 88, 64
1, 211730, Note_off_c, 0, 80, 59
1, 211765, Note_off_c, 0, 92, 67
1, 211834, Note_on_c, 0, 85, 97
1, 211848, Note_on_c, 0, 94, 106
1, 211850, Note_on_c, 0, 82, 100
1, 211853, Note_on_c, 0, 92, 106
1, 211870, Note_on_c, 0, 90, 70
1, 211882, Note_off_c, 0, 82, 62
1, 211886, Note_off_c, 0, 90, 67
1, 211893, Note_off_c, 0, 85, 66
1, 211915, Note_off_c, 0, 92, 66
1, 211931, Note_off_c, 0, 94, 63
1, 212029, Note_on_c, 0, 90, 104
1, 212038, Note_on_c, 0, 86, 107
1, 212039, Note_on_c, 0, 94, 113
1, 212039, Note_on_c, 0, 98, 99
1, 212057, Note_on_c, 0, 96, 64
1, 212057, Note_off_c, 0, 96, 127
1, 212059, Note_off_c, 0, 90, 69
1, 212063, Note_off_c, 0, 86, 71
1, 212085, Note_off_c, 0, 94, 68
1, 212092, Note_off_c, 0, 98, 68
1, 212342, Note_on_c, 0, 37, 8
1, 212346, Control_c, 0, 64, 101
1, 212349, Note_on_c, 0, 105, 111
1, 212351, Note_on_c, 0, 98, 114
1, 212352, Note_on_c, 0, 93, 108
1, 212354, Note_on_c, 0, 102, 106
1, 212357, Note_on_c, 0, 33, 97
1, 212357, Note_on_c, 0, 45, 100
1, 212361, Control_c, 0, 64, 56
1, 212376, Control_c, 0, 64, 0
1, 212381, Note_on_c, 0, 95, 57
1, 212381, Note_off_c, 0, 95, 127
1, 212393, Note_off_c, 0, 37, 41
1, 212396, Note_off_c, 0, 93, 65
1, 212401, Note_off_c, 0, 105, 70
1, 212406, Note_off_c, 0, 33, 64
1, 212408, Note_off_c, 0, 98, 69
1, 212413, Note_off_c, 0, 102, 70
1, 212420, Control_c, 0, 64, 31
1, 212425, Note_off_c, 0, 45, 65
1, 212435, Control_c, 0, 64, 60
1, 212450, Control_c, 0, 64, 80
1, 212465, Control_c, 0, 64, 127
1, 212678, Note_on_c, 0, 90, 104
1, 212681, Note_on_c, 0, 78, 101
1, 212682, Note_on_c, 0, 45, 85
1, 212688, Note_on_c, 0, 81, 79
1, 212816, Note_off_c, 0, 78, 54
1, 212822, Note_off_c, 0, 90, 61
1, 212849, Note_off_c, 0, 81, 58
1, 212908, Note_off_c, 0, 45, 62
1, 212912, Note_on_c, 0, 50, 86
1, 212916, Note_on_c, 0, 90, 105
1, 212917, Note_on_c, 0, 78, 103
1, 212919, Note_on_c, 0, 81, 93
1, 213010, Note_off_c, 0, 90, 63
1, 213016, Note_off_c, 0, 78, 56
1, 213027, Note_off_c, 0, 81, 60
1, 213081, Note_on_c, 0, 52, 91
1, 213083, Note_on_c, 0, 90, 110
1, 213083, Note_on_c, 0, 81, 92
1, 213086, Note_on_c, 0, 78, 104
1, 213110, Note_off_c, 0, 50, 60
1, 213165, Note_off_c, 0, 81, 62
1, 213175, Note_off_c, 0, 90, 68
1, 213178, Note_off_c, 0, 78, 59
1, 213209, Note_on_c, 0, 54, 90
1, 213212, Control_c, 0, 64, 95
1, 213227, Control_c, 0, 64, 79
1, 213242, Control_c, 0, 64, 75
1, 213244, Note_off_c, 0, 52, 59
1, 213265, Note_on_c, 0, 88, 103
1, 213266, Note_on_c, 0, 76, 99
1, 213268, Note_on_c, 0, 79, 90
1, 213272, Control_c, 0, 64, 77
1, 213287, Control_c, 0, 64, 84
1, 213301, Control_c, 0, 64, 92
1, 213308, Note_off_c, 0, 76, 63
1, 213316, Control_c, 0, 64, 100
1, 213323, Note_off_c, 0, 79, 63
1, 213331, Control_c, 0, 64, 114
1, 213332, Note_on_c, 0, 55, 81
1, 213346, Control_c, 0, 64, 127
1, 213346, Note_off_c, 0, 54, 59
1, 213359, Note_off_c, 0, 88, 65
1, 213384, Note_off_c, 0, 55, 63
1, 213391, Note_on_c, 0, 76, 89
1, 213397, Note_on_c, 0, 79, 82
1, 213424, Note_off_c, 0, 79, 60
1, 213427, Note_off_c, 0, 76, 67
1, 213441, Note_on_c, 0, 88, 102
1, 213460, Note_on_c, 0, 57, 85
1, 213464, Note_on_c, 0, 79, 88
1, 213464, Control_c, 0, 64, 89
1, 213465, Note_on_c, 0, 76, 92
1, 213479, Control_c, 0, 64, 51
1, 213493, Control_c, 0, 64, 0
1, 213553, Control_c, 0, 64, 32
1, 213567, Control_c, 0, 64, 60
1, 213582, Control_c, 0, 64, 72
1, 213597, Note_off_c, 0, 57, 60
1, 213597, Control_c, 0, 64, 80
1, 213612, Control_c, 0, 64, 83
1, 213615, Note_on_c, 0, 45, 84
1, 213627, Control_c, 0, 64, 85
1, 213649, Control_c, 0, 64, 87
1, 213652, Note_off_c, 0, 88, 59
1, 213664, Control_c, 0, 64, 89
1, 213679, Control_c, 0, 64, 92
1, 213686, Note_off_c, 0, 76, 60
1, 213690, Note_off_c, 0, 79, 64
1, 213694, Control_c, 0, 64, 94
1, 213708, Control_c, 0, 64, 95
1, 213724, Control_c, 0, 64, 96
1, 213742, Note_off_c, 0, 45, 61
1, 213746, Note_on_c, 0, 86, 101
1, 213750, Note_on_c, 0, 74, 99
1, 213754, Note_on_c, 0, 78, 92
1, 213764, Note_on_c, 0, 57, 85
1, 213808, Note_off_c, 0, 57, 66
1, 213857, Control_c, 0, 64, 98
1, 213872, Control_c, 0, 64, 102
1, 213887, Control_c, 0, 64, 107
1, 213892, Note_on_c, 0, 65, 91
1, 213925, Note_off_c, 0, 74, 60
1, 213928, Note_off_c, 0, 86, 61
1, 213930, Note_off_c, 0, 78, 59
1, 213946, Control_c, 0, 64, 105
1, 214016, Note_off_c, 0, 65, 60
1, 214020, Note_on_c, 0, 74, 100
1, 214020, Note_on_c, 0, 86, 97
1, 214021, Note_on_c, 0, 66, 86
1, 214022, Note_on_c, 0, 78, 97
1, 214057, Note_off_c, 0, 74, 64
1, 214066, Note_off_c, 0, 78, 61
1, 214073, Note_off_c, 0, 86, 61
1, 214081, Note_off_c, 0, 66, 64
1, 214124, Note_on_c, 0, 71, 63
1, 214142, Note_on_c, 0, 74, 95
1, 214145, Note_on_c, 0, 86, 91
1, 214146, Note_on_c, 0, 78, 87
1, 214146, Note_off_c, 0, 71, 63
1, 214176, Note_on_c, 0, 70, 84
1, 214185, Note_off_c, 0, 74, 59
1, 214197, Note_off_c, 0, 70, 68
1, 214197, Note_off_c, 0, 86, 62
1, 214199, Note_off_c, 0, 78, 59
1, 214265, Note_on_c, 0, 86, 97
1, 214268, Note_on_c, 0, 77, 95
1, 214269, Note_on_c, 0, 74, 92
1, 214272, Note_on_c, 0, 70, 98
1, 214272, Control_c, 0, 64, 100
1, 214279, Note_on_c, 0, 57, 70
1, 214287, Control_c, 0, 64, 89
1, 214294, Note_off_c, 0, 74, 65
1, 214295, Note_off_c, 0, 57, 68
1, 214299, Note_off_c, 0, 77, 62
1, 214302, Control_c, 0, 64, 74
1, 214306, Note_off_c, 0, 70, 60
1, 214306, Note_off_c, 0, 86, 66
1, 214315, Note_on_c, 0, 58, 22
1, 214316, Control_c, 0, 64, 63
1, 214331, Control_c, 0, 64, 55
1, 214346, Control_c, 0, 64, 53
1, 214355, Note_off_c, 0, 58, 43
1, 214375, Control_c, 0, 64, 54
1, 214406, Note_on_c, 0, 76, 85
1, 214407, Note_on_c, 0, 72, 87
1, 214408, Note_on_c, 0, 84, 90
1, 214413, Control_c, 0, 64, 53
1, 214423, Note_on_c, 0, 69, 86
1, 214428, Control_c, 0, 64, 49
1, 214432, Note_off_c, 0, 76, 66
1, 214432, Note_off_c, 0, 72, 62
1, 214442, Control_c, 0, 64, 44
1, 214451, Note_off_c, 0, 84, 63
1, 214457, Control_c, 0, 64, 39
1, 214465, Note_off_c, 0, 69, 63
1, 214472, Control_c, 0, 64, 37
1, 214502, Control_c, 0, 64, 37
1, 214531, Note_on_c, 0, 77, 82
1, 214533, Control_c, 0, 64, 38
1, 214535, Note_on_c, 0, 74, 81
1, 214535, Note_on_c, 0, 86, 87
1, 214539, Note_on_c, 0, 70, 82
1, 214547, Control_c, 0, 64, 39
1, 214552, Note_off_c, 0, 77, 70
1, 214554, Note_off_c, 0, 74, 73
1, 214562, Control_c, 0, 64, 42
1, 214569, Note_off_c, 0, 86, 64
1, 214572, Note_off_c, 0, 70, 63
1, 214577, Control_c, 0, 64, 47
1, 214592, Control_c, 0, 64, 52
1, 214607, Control_c, 0, 64, 53
1, 214622, Control_c, 0, 64, 50
1, 214637, Control_c, 0, 64, 42
1, 214649, Note_on_c, 0, 88, 99
1, 214650, Note_on_c, 0, 79, 86
1, 214652, Control_c, 0, 64, 0
1, 214652, Note_on_c, 0, 72, 88
1, 214652, Note_on_c, 0, 76, 84
1, 214669, Note_off_c, 0, 76, 75
1, 214672, Note_off_c, 0, 79, 67
1, 214681, Note_off_c, 0, 88, 66
1, 214687, Note_off_c, 0, 72, 68
1, 214773, Note_on_c, 0, 70, 86
1, 214773, Note_on_c, 0, 74, 95
1, 214775, Note_on_c, 0, 86, 88
1, 214782, Note_on_c, 0, 77, 66
1, 214799, Note_off_c, 0, 74, 64
1, 214799, Note_off_c, 0, 86, 58
1, 214801, Note_off_c, 0, 77, 66
1, 214814, Note_off_c, 0, 70, 63
1, 214894, Note_on_c, 0, 72, 94
1, 214896, Note_on_c, 0, 84, 92
1, 214897, Note_on_c, 0, 69, 82
1, 214920, Note_off_c, 0, 84, 61
1, 214923, Note_off_c, 0, 72, 69
1, 214947, Note_off_c, 0, 69, 60
1, 215028, Note_on_c, 0, 82, 88
1, 215031, Note_on_c, 0, 74, 89
1, 215037, Note_on_c, 0, 70, 94
1, 215038, Note_on_c, 0, 67, 78
1, 215052, Control_c, 0, 64, 31
1, 215066, Control_c, 0, 64, 54
1, 215081, Control_c, 0, 64, 63
1, 215096, Control_c, 0, 64, 65
1, 215111, Control_c, 0, 64, 68
1, 215126, Control_c, 0, 64, 71
1, 215147, Control_c, 0, 64, 75
1, 215162, Control_c, 0, 64, 80
1, 215165, Note_off_c, 0, 67, 60
1, 215177, Control_c, 0, 64, 86
1, 215192, Control_c, 0, 64, 91
1, 215195, Note_on_c, 0, 57, 72
1, 215202, Note_off_c, 0, 82, 58
1, 215207, Control_c, 0, 64, 94
1, 215211, Note_off_c, 0, 70, 61
1, 215221, Control_c, 0, 64, 95
1, 215229, Note_off_c, 0, 74, 59
1, 215251, Control_c, 0, 64, 94
1, 215266, Control_c, 0, 64, 84
1, 215280, Note_on_c, 0, 81, 97
1, 215281, Control_c, 0, 64, 71
1, 215284, Note_on_c, 0, 74, 81
1, 215287, Note_on_c, 0, 69, 86
1, 215296, Control_c, 0, 64, 57
1, 215311, Control_c, 0, 64, 51
1, 215326, Control_c, 0, 64, 58
1, 215331, Note_on_c, 0, 65, 76
1, 215341, Control_c, 0, 64, 65
1, 215356, Control_c, 0, 64, 72
1, 215370, Note_off_c, 0, 81, 62
1, 215370, Control_c, 0, 64, 78
1, 215373, Note_off_c, 0, 69, 62
1, 215385, Note_off_c, 0, 74, 65
1, 215385, Control_c, 0, 64, 80
1, 215414, Control_c, 0, 64, 80
1, 215420, Note_off_c, 0, 65, 63
1, 215429, Control_c, 0, 64, 81
1, 215444, Control_c, 0, 64, 83
1, 215450, Note_on_c, 0, 66, 87
1, 215459, Control_c, 0, 64, 90
1, 215474, Control_c, 0, 64, 102
1, 215488, Control_c, 0, 64, 127
1, 215523, Note_off_c, 0, 66, 65
1, 215548, Control_c, 0, 64, 98
1, 215562, Control_c, 0, 64, 85
1, 215575, Note_on_c, 0, 78, 91
1, 215577, Control_c, 0, 64, 80
1, 215582, Note_on_c, 0, 66, 85
1, 215582, Note_on_c, 0, 73, 81
1, 215583, Note_on_c, 0, 69, 82
1, 215621, Control_c, 0, 64, 81
1, 215627, Note_off_c, 0, 69, 58
1, 215636, Control_c, 0, 64, 82
1, 215649, Note_off_c, 0, 66, 61
1, 215651, Control_c, 0, 64, 83
1, 215658, Note_off_c, 0, 78, 59
1, 215666, Control_c, 0, 64, 83
1, 215683, Note_off_c, 0, 73, 60
1, 215717, Note_on_c, 0, 72, 74
1, 215726, Note_on_c, 0, 66, 90
1, 215728, Note_on_c, 0, 78, 89
1, 215730, Note_on_c, 0, 62, 83
1, 215740, Control_c, 0, 64, 84
1, 215755, Control_c, 0, 64, 85
1, 215762, Note_off_c, 0, 66, 57
1, 215770, Note_off_c, 0, 72, 63
1, 215770, Control_c, 0, 64, 89
1, 215785, Control_c, 0, 64, 93
1, 215800, Control_c, 0, 64, 98
1, 215806, Note_off_c, 0, 78, 61
1, 215814, Control_c, 0, 64, 100
1, 215818, Note_off_c, 0, 62, 64
1, 215844, Control_c, 0, 64, 98
1, 215859, Control_c, 0, 64, 81
1, 215865, Note_on_c, 0, 70, 102
1, 215874, Control_c, 0, 64, 61
1, 215895, Control_c, 0, 64, 0
1, 215940, Control_c, 0, 64, 37
1, 215955, Control_c, 0, 64, 57
1, 215970, Control_c, 0, 64, 65
1, 215985, Control_c, 0, 64, 70
1, 215988, Note_on_c, 0, 81, 97
1, 215990, Note_off_c, 0, 70, 60
1, 215991, Note_on_c, 0, 74, 94
1, 215991, Note_on_c, 0, 69, 89
1, 215996, Note_on_c, 0, 62, 77
1, 215999, Control_c, 0, 64, 74
1, 216014, Control_c, 0, 64, 79
1, 216028, Note_off_c, 0, 57, 63
1, 216029, Control_c, 0, 64, 82
1, 216044, Control_c, 0, 64, 85
1, 216050, Note_off_c, 0, 69, 59
1, 216059, Control_c, 0, 64, 86
1, 216066, Note_off_c, 0, 74, 62
1, 216073, Note_off_c, 0, 81, 64
1, 216088, Control_c, 0, 64, 86
1, 216103, Control_c, 0, 64, 87
1, 216119, Control_c, 0, 64, 88
1, 216127, Note_on_c, 0, 57, 82
1, 216129, Note_on_c, 0, 81, 89
1, 216131, Note_on_c, 0, 74, 94
1, 216134, Note_off_c, 0, 62, 62
1, 216134, Control_c, 0, 64, 90
1, 216135, Note_on_c, 0, 69, 89
1, 216149, Control_c, 0, 64, 92
1, 216163, Control_c, 0, 64, 93
1, 216187, Note_off_c, 0, 69, 61
1, 216193, Control_c, 0, 64, 93
1, 216204, Note_off_c, 0, 74, 63
1, 216208, Note_off_c, 0, 81, 63
1, 216223, Control_c, 0, 64, 94
1, 216237, Control_c, 0, 64, 94
1, 216252, Control_c, 0, 64, 95
1, 216265, Note_on_c, 0, 74, 94
1, 216265, Note_on_c, 0, 81, 89
1, 216267, Control_c, 0, 64, 95
1, 216273, Note_on_c, 0, 69, 87
1, 216278, Note_on_c, 0, 62, 82
1, 216282, Control_c, 0, 64, 97
1, 216297, Control_c, 0, 64, 100
1, 216311, Control_c, 0, 64, 103
1, 216326, Control_c, 0, 64, 105
1, 216339, Note_off_c, 0, 74, 59
1, 216339, Note_off_c, 0, 81, 61
1, 216341, Control_c, 0, 64, 108
1, 216354, Note_off_c, 0, 69, 56
1, 216356, Control_c, 0, 64, 110
1, 216371, Control_c, 0, 64, 112
1, 216393, Note_off_c, 0, 62, 59
1, 216400, Control_c, 0, 64, 114
1, 216408, Note_on_c, 0, 70, 97
1, 216444, Control_c, 0, 64, 117
1, 216484, Note_on_c, 0, 74, 96
1, 216488, Note_off_c, 0, 70, 64
1, 216490, Note_on_c, 0, 79, 85
1, 216491, Note_on_c, 0, 67, 92
1, 216504, Control_c, 0, 64, 119
1, 216533, Note_on_c, 0, 62, 75
1, 216533, Note_off_c, 0, 57, 62
1, 216533, Control_c, 0, 64, 122
1, 216548, Control_c, 0, 64, 124
1, 216563, Control_c, 0, 64, 127
1, 216577, Note_off_c, 0, 62, 66
1, 216597, Note_off_c, 0, 67, 57
1, 216601, Note_off_c, 0, 79, 59
1, 216643, Poly_aftertouch_c, 0, 61, 0
1, 216659, Note_off_c, 0, 74, 60
1, 216691, Note_on_c, 0, 45, 82
1, 216711, Note_on_c, 0, 74, 96
1, 216717, Note_on_c, 0, 79, 87
1, 216718, Note_on_c, 0, 67, 89
1, 216718, Control_c, 0, 64, 78
1, 216733, Control_c, 0, 64, 49
1, 216748, Control_c, 0, 64, 0
1, 216792, Control_c, 0, 64, 45
1, 216807, Control_c, 0, 64, 63
1, 216822, Control_c, 0, 64, 70
1, 216823, Note_off_c, 0, 79, 64
1, 216833, Note_off_c, 0, 67, 63
1, 216837, Control_c, 0, 64, 75
1, 216849, Note_off_c, 0, 45, 61
1, 216852, Control_c, 0, 64, 77
1, 216866, Note_on_c, 0, 56, 86
1, 216867, Control_c, 0, 64, 77
1, 216882, Control_c, 0, 64, 78
1, 216897, Control_c, 0, 64, 78
1, 216912, Control_c, 0, 64, 79
1, 216924, Note_off_c, 0, 74, 59
1, 216927, Control_c, 0, 64, 80
1, 216941, Control_c, 0, 64, 81
1, 216955, Note_off_c, 0, 56, 61
1, 216956, Control_c, 0, 64, 81
1, 216983, Note_on_c, 0, 66, 84
1, 216986, Note_on_c, 0, 78, 63
1, 216986, Note_off_c, 0, 78, 127
1, 216986, Control_c, 0, 64, 82
1, 216990, Note_on_c, 0, 57, 72
1, 216995, Note_on_c, 0, 77, 74
1, 217001, Control_c, 0, 64, 82
1, 217016, Control_c, 0, 64, 84
1, 217019, Note_off_c, 0, 77, 69
1, 217031, Control_c, 0, 64, 87
1, 217034, Note_off_c, 0, 57, 63
1, 217038, Note_off_c, 0, 66, 63
1, 217046, Control_c, 0, 64, 91
1, 217060, Control_c, 0, 64, 95
1, 217075, Control_c, 0, 64, 99
1, 217117, Note_on_c, 0, 62, 84
1, 217134, Control_c, 0, 64, 91
1, 217149, Control_c, 0, 64, 68
1, 217152, Note_off_c, 0, 62, 60
1, 217164, Control_c, 0, 64, 46
1, 217179, Control_c, 0, 64, 37
1, 217193, Control_c, 0, 64, 43
1, 217208, Control_c, 0, 64, 55
1, 217214, Note_on_c, 0, 74, 89
1, 217216, Note_on_c, 0, 57, 85
1, 217223, Control_c, 0, 64, 64
1, 217229, Note_on_c, 0, 62, 75
1, 217238, Control_c, 0, 64, 71
1, 217253, Control_c, 0, 64, 78
1, 217257, Note_off_c, 0, 62, 64
1, 217263, Note_off_c, 0, 57, 64
1, 217282, Control_c, 0, 64, 78
1, 217301, Note_off_c, 0, 74, 58
1, 217327, Control_c, 0, 64, 81
1, 217329, Note_on_c, 0, 66, 94
1, 217335, Note_on_c, 0, 69, 84
1, 217341, Control_c, 0, 64, 84
1, 217356, Control_c, 0, 64, 87
1, 217368, Note_off_c, 0, 66, 64
1, 217371, Control_c, 0, 64, 89
1, 217393, Control_c, 0, 64, 91
1, 217408, Control_c, 0, 64, 93
1, 217409, Note_off_c, 0, 69, 63
1, 217423, Control_c, 0, 64, 93
1, 217449, Note_on_c, 0, 74, 86
1, 217453, Control_c, 0, 64, 93
1, 217457, Note_on_c, 0, 72, 86
1, 217463, Note_on_c, 0, 43, 90
1, 217467, Control_c, 0, 64, 82
1, 217482, Control_c, 0, 64, 64
1, 217488, Note_on_c, 0, 62, 17
1, 217495, Note_off_c, 0, 43, 62
1, 217497, Control_c, 0, 64, 36
1, 217512, Control_c, 0, 64, 0
1, 217519, Note_off_c, 0, 62, 48
1, 217535, Note_off_c, 0, 74, 60
1, 217576, Note_off_c, 0, 72, 57
1, 217587, Note_on_c, 0, 70, 88
1, 217599, Note_on_c, 0, 62, 82
1, 217642, Note_off_c, 0, 62, 61
1, 217653, Note_off_c, 0, 70, 62
1, 217708, Note_on_c, 0, 69, 78
1, 217708, Note_on_c, 0, 72, 79
1, 217719, Note_on_c, 0, 62, 78
1, 217733, Note_off_c, 0, 69, 68
1, 217749, Note_off_c, 0, 72, 67
1, 217758, Note_off_c, 0, 62, 62
1, 217821, Note_on_c, 0, 64, 84
1, 217825, Note_on_c, 0, 74, 87
1, 217826, Note_on_c, 0, 70, 88
1, 217854, Note_off_c, 0, 70, 61
1, 217863, Note_off_c, 0, 64, 64
1, 217870, Note_off_c, 0, 74, 62
1, 217944, Note_on_c, 0, 72, 82
1, 217945, Note_on_c, 0, 66, 75
1, 217952, Note_on_c, 0, 69, 71
1, 217976, Note_off_c, 0, 69, 69
1, 217988, Note_off_c, 0, 72, 63
1, 218000, Note_off_c, 0, 66, 63
1, 218051, Note_on_c, 0, 67, 82
1, 218056, Note_on_c, 0, 70, 84
1, 218088, Note_off_c, 0, 70, 65
1, 218096, Note_off_c, 0, 67, 62
1, 218165, Note_on_c, 0, 72, 87
1, 218173, Note_on_c, 0, 57, 83
1, 218174, Note_on_c, 0, 69, 92
1, 218186, Note_on_c, 0, 70, 84
1, 218187, Control_c, 0, 64, 32
1, 218190, Note_on_c, 0, 67, 63
1, 218202, Control_c, 0, 64, 52
1, 218214, Note_off_c, 0, 72, 60
1, 218216, Note_off_c, 0, 67, 54
1, 218217, Control_c, 0, 64, 61
1, 218223, Note_off_c, 0, 69, 62
1, 218224, Note_off_c, 0, 57, 55
1, 218227, Note_on_c, 0, 71, 47
1, 218279, Note_off_c, 0, 71, 52
1, 218297, Note_on_c, 0, 69, 77
1, 218301, Note_on_c, 0, 62, 79
1, 218319, Note_off_c, 0, 70, 38
1, 218350, Control_c, 0, 64, 60
1, 218365, Control_c, 0, 64, 60
1, 218380, Control_c, 0, 64, 58
1, 218382, Note_off_c, 0, 62, 63
1, 218386, Note_off_c, 0, 69, 63
1, 218395, Control_c, 0, 64, 57
1, 218395, Control_c, 0, 67, 45
1, 218410, Control_c, 0, 64, 55
1, 218410, Control_c, 0, 67, 53
1, 218417, Note_on_c, 0, 61, 63
1, 218424, Control_c, 0, 64, 54
1, 218424, Control_c, 0, 67, 58
1, 218436, Note_on_c, 0, 65, 78
1, 218439, Control_c, 0, 67, 63
1, 218454, Control_c, 0, 64, 54
1, 218454, Control_c, 0, 67, 74
1, 218469, Control_c, 0, 64, 53
1, 218469, Control_c, 0, 67, 87
1, 218483, Control_c, 0, 64, 52
1, 218483, Control_c, 0, 67, 97
1, 218487, Note_off_c, 0, 61, 64
1, 218498, Control_c, 0, 67, 100
1, 218501, Note_off_c, 0, 65, 64
1, 218514, Control_c, 0, 64, 52
1, 218544, Control_c, 0, 64, 51
1, 218554, Note_on_c, 0, 57, 72
1, 218554, Note_on_c, 0, 66, 71
1, 218559, Control_c, 0, 64, 50
1, 218560, Note_on_c, 0, 62, 66
1, 218574, Control_c, 0, 64, 47
1, 218588, Control_c, 0, 64, 41
1, 218603, Control_c, 0, 64, 29
1, 218618, Control_c, 0, 64, 0
1, 218632, Note_off_c, 0, 62, 59
1, 218643, Note_off_c, 0, 57, 62
1, 218672, Note_off_c, 0, 66, 49
1, 218682, Note_on_c, 0, 61, 72
1, 218685, Note_on_c, 0, 53, 68
1, 218721, Control_c, 0, 64, 35
1, 218736, Control_c, 0, 64, 51
1, 218750, Note_off_c, 0, 53, 60
1, 218751, Control_c, 0, 64, 58
1, 218754, Note_off_c, 0, 61, 62
1, 218766, Control_c, 0, 64, 60
1, 218781, Control_c, 0, 64, 61
1, 218792, Note_on_c, 0, 54, 79
1, 218796, Control_c, 0, 64, 62
1, 218796, Control_c, 0, 67, 98
1, 218802, Note_on_c, 0, 57, 72
1, 218810, Note_on_c, 0, 62, 39
1, 218810, Control_c, 0, 64, 63
1, 218814, Note_off_c, 0, 54, 66
1, 218825, Control_c, 0, 64, 65
1, 218825, Control_c, 0, 67, 96
1, 218840, Control_c, 0, 64, 66
1, 218840, Control_c, 0, 67, 94
1, 218840, Note_off_c, 0, 62, 33
1, 218851, Note_off_c, 0, 57, 62
1, 218855, Control_c, 0, 64, 67
1, 218855, Control_c, 0, 67, 91
1, 218870, Control_c, 0, 64, 67
1, 218870, Control_c, 0, 67, 88
1, 218892, Control_c, 0, 67, 86
1, 218907, Control_c, 0, 67, 84
1, 218921, Control_c, 0, 64, 65
1, 218921, Control_c, 0, 67, 83
1, 218924, Note_on_c, 0, 33, 93
1, 218936, Control_c, 0, 64, 56
1, 218936, Control_c, 0, 67, 82
1, 218951, Control_c, 0, 64, 29
1, 218951, Control_c, 0, 67, 83
1, 218953, Note_off_c, 0, 33, 66
1, 218965, Control_c, 0, 64, 0
1, 218965, Control_c, 0, 67, 83
1, 218980, Control_c, 0, 67, 85
1, 218995, Control_c, 0, 67, 86
1, 219010, Control_c, 0, 67, 87
1, 219025, Control_c, 0, 67, 88
1, 219065, Note_on_c, 0, 52, 74
1, 219065, Note_on_c, 0, 62, 69
1, 219068, Note_on_c, 0, 55, 61
1, 219070, Control_c, 0, 67, 87
1, 219076, Note_on_c, 0, 60, 53
1, 219093, Note_off_c, 0, 52, 64
1, 219100, Note_off_c, 0, 55, 64
1, 219109, Note_off_c, 0, 60, 65
1, 219113, Note_off_c, 0, 62, 57
1, 219129, Control_c, 0, 67, 86
1, 219144, Control_c, 0, 67, 86
1, 219158, Control_c, 0, 67, 85
1, 219173, Control_c, 0, 67, 85
1, 219186, Note_on_c, 0, 52, 68
1, 219186, Note_on_c, 0, 58, 67
1, 219203, Control_c, 0, 67, 84
1, 219216, Note_off_c, 0, 58, 64
1, 219216, Note_off_c, 0, 52, 64
1, 219218, Control_c, 0, 67, 83
1, 219247, Control_c, 0, 67, 83
1, 219305, Note_on_c, 0, 54, 81
1, 219323, Control_c, 0, 67, 82
1, 219347, Note_off_c, 0, 54, 53
1, 219367, Control_c, 0, 67, 81
1, 219381, Control_c, 0, 67, 81
1, 219411, Control_c, 0, 67, 80
1, 219419, Note_on_c, 0, 55, 75
1, 219426, Control_c, 0, 67, 79
1, 219427, Note_on_c, 0, 64, 63
1, 219428, Note_on_c, 0, 58, 56
1, 219441, Control_c, 0, 67, 79
1, 219448, Note_off_c, 0, 55, 65
1, 219455, Control_c, 0, 67, 77
1, 219464, Note_off_c, 0, 58, 60
1, 219470, Control_c, 0, 67, 75
1, 219482, Note_off_c, 0, 64, 56
1, 219485, Control_c, 0, 67, 74
1, 219500, Control_c, 0, 67, 73
1, 219515, Control_c, 0, 67, 73
1, 219526, Note_on_c, 0, 62, 75
1, 219529, Control_c, 0, 67, 72
1, 219536, Note_on_c, 0, 57, 82
1, 219544, Control_c, 0, 67, 71
1, 219551, Note_off_c, 0, 62, 69
1, 219559, Control_c, 0, 67, 70
1, 219569, Note_off_c, 0, 57, 65
1, 219574, Control_c, 0, 67, 70
1, 219603, Control_c, 0, 67, 70
1, 219618, Control_c, 0, 67, 71
1, 219641, Control_c, 0, 67, 73
1, 219656, Control_c, 0, 67, 73
1, 219657, Note_on_c, 0, 58, 105
1, 219670, Control_c, 0, 67, 74
1, 219686, Note_off_c, 0, 58, 67
1, 219700, Control_c, 0, 67, 75
1, 219715, Control_c, 0, 67, 75
1, 219759, Control_c, 0, 67, 76
1, 219774, Control_c, 0, 67, 77
1, 219789, Note_on_c, 0, 60, 67
1, 219794, Note_on_c, 0, 67, 64
1, 219802, Note_on_c, 0, 64, 43
1, 219803, Control_c, 0, 67, 77
1, 219805, Note_on_c, 0, 62, 40
1, 219808, Note_off_c, 0, 60, 66
1, 219818, Note_off_c, 0, 67, 64
1, 219828, Note_off_c, 0, 64, 60
1, 219834, Note_off_c, 0, 62, 35
1, 219848, Control_c, 0, 67, 77
1, 219862, Control_c, 0, 67, 76
1, 219892, Control_c, 0, 67, 75
1, 219902, Note_on_c, 0, 57, 83
1, 219930, Note_off_c, 0, 57, 67
1, 219951, Control_c, 0, 67, 76
1, 220033, Note_on_c, 0, 58, 70
1, 220039, Note_on_c, 0, 64, 59
1, 220054, Control_c, 0, 67, 77
1, 220062, Note_off_c, 0, 58, 66
1, 220064, Note_off_c, 0, 64, 61
1, 220157, Note_on_c, 0, 55, 76
1, 220182, Note_off_c, 0, 55, 68
1, 220189, Control_c, 0, 67, 77
1, 220203, Control_c, 0, 64, 37
1, 220218, Control_c, 0, 64, 49
1, 220233, Control_c, 0, 64, 54
1, 220248, Control_c, 0, 64, 56
1, 220263, Control_c, 0, 64, 57
1, 220267, Note_on_c, 0, 62, 67
1, 220273, Note_on_c, 0, 54, 67
1, 220274, Note_on_c, 0, 58, 62
1, 220277, Control_c, 0, 64, 59
1, 220292, Control_c, 0, 64, 61
1, 220292, Control_c, 0, 67, 77
1, 220303, Note_off_c, 0, 54, 65
1, 220307, Control_c, 0, 64, 62
1, 220310, Note_off_c, 0, 58, 62
1, 220321, Note_off_c, 0, 62, 61
1, 220322, Control_c, 0, 64, 63
1, 220337, Control_c, 0, 64, 64
1, 220337, Control_c, 0, 67, 76
1, 220352, Control_c, 0, 64, 65
1, 220352, Control_c, 0, 67, 75
1, 220366, Control_c, 0, 67, 74
1, 220389, Control_c, 0, 64, 64
1, 220389, Control_c, 0, 67, 73
1, 220402, Note_on_c, 0, 52, 94
1, 220404, Control_c, 0, 64, 62
1, 220418, Control_c, 0, 64, 58
1, 220418, Control_c, 0, 67, 72
1, 220419, Note_on_c, 0, 45, 67
1, 220432, Note_on_c, 0, 43, 55
1, 220433, Control_c, 0, 64, 50
1, 220441, Note_off_c, 0, 52, 63
1, 220448, Note_off_c, 0, 45, 64
1, 220448, Control_c, 0, 64, 45
1, 220463, Control_c, 0, 64, 42
1, 220465, Note_off_c, 0, 43, 57
1, 220492, Control_c, 0, 67, 73
1, 220526, Note_on_c, 0, 52, 75
1, 220531, Note_on_c, 0, 55, 55
1, 220532, Note_on_c, 0, 62, 62
1, 220542, Note_on_c, 0, 60, 51
1, 220551, Note_off_c, 0, 52, 68
1, 220552, Control_c, 0, 67, 73
1, 220557, Note_off_c, 0, 55, 57
1, 220578, Note_off_c, 0, 62, 56
1, 220580, Note_off_c, 0, 60, 64
1, 220581, Control_c, 0, 64, 42
1, 220581, Control_c, 0, 67, 74
1, 220611, Control_c, 0, 64, 43
1, 220626, Control_c, 0, 64, 44
1, 220626, Control_c, 0, 67, 73
1, 220641, Note_on_c, 0, 52, 80
1, 220641, Control_c, 0, 64, 46
1, 220641, Control_c, 0, 67, 68
1, 220649, Note_on_c, 0, 58, 74
1, 220656, Control_c, 0, 64, 50
1, 220656, Control_c, 0, 67, 60
1, 220671, Control_c, 0, 64, 52
1, 220671, Control_c, 0, 67, 0
1, 220675, Note_off_c, 0, 58, 66
1, 220677, Note_off_c, 0, 52, 62
1, 220700, Control_c, 0, 64, 50
1, 220715, Control_c, 0, 64, 48
1, 220729, Control_c, 0, 64, 46
1, 220744, Control_c, 0, 64, 45
1, 220759, Control_c, 0, 64, 45
1, 220760, Note_on_c, 0, 57, 87
1, 220774, Control_c, 0, 64, 44
1, 220789, Control_c, 0, 64, 44
1, 220799, Note_off_c, 0, 57, 66
1, 220864, Note_on_c, 0, 58, 97
1, 220876, Note_on_c, 0, 67, 75
1, 220879, Note_on_c, 0, 66, 67
1, 220892, Control_c, 0, 64, 44
1, 220906, Note_off_c, 0, 58, 65
1, 220908, Control_c, 0, 64, 45
1, 220916, Note_off_c, 0, 66, 63
1, 220920, Note_off_c, 0, 67, 62
1, 220923, Control_c, 0, 64, 45
1, 220938, Control_c, 0, 64, 46
1, 220980, Note_on_c, 0, 62, 90
1, 221026, Note_off_c, 0, 62, 64
1, 221071, Control_c, 0, 64, 45
1, 221086, Control_c, 0, 64, 44
1, 221101, Control_c, 0, 64, 43
1, 221102, Note_on_c, 0, 64, 101
1, 221115, Control_c, 0, 64, 42
1, 221138, Control_c, 0, 64, 41
1, 221148, Note_off_c, 0, 64, 66
1, 221153, Control_c, 0, 64, 40
1, 221167, Control_c, 0, 64, 40
1, 221182, Control_c, 0, 64, 39
1, 221197, Control_c, 0, 64, 39
1, 221212, Control_c, 0, 64, 38
1, 221227, Control_c, 0, 64, 37
1, 221230, Note_on_c, 0, 70, 77
1, 221231, Note_on_c, 0, 66, 87
1, 221241, Control_c, 0, 64, 36
1, 221256, Control_c, 0, 64, 34
1, 221259, Note_off_c, 0, 66, 64
1, 221262, Note_off_c, 0, 70, 62
1, 221271, Control_c, 0, 64, 33
1, 221301, Control_c, 0, 64, 30
1, 221315, Control_c, 0, 64, 0
1, 221344, Note_on_c, 0, 62, 99
1, 221371, Note_off_c, 0, 62, 66
1, 221445, Note_on_c, 0, 64, 92
1, 221474, Note_on_c, 0, 67, 44
1, 221475, Note_off_c, 0, 64, 68
1, 221478, Note_on_c, 0, 66, 36
1, 221497, Note_off_c, 0, 66, 37
1, 221503, Note_off_c, 0, 67, 55
1, 221572, Note_on_c, 0, 60, 93
1, 221601, Note_off_c, 0, 60, 69
1, 221672, Control_c, 0, 64, 33
1, 221687, Control_c, 0, 64, 38
1, 221693, Note_on_c, 0, 58, 87
1, 221702, Control_c, 0, 64, 43
1, 221708, Note_on_c, 0, 66, 52
1, 221711, Note_on_c, 0, 67, 59
1, 221717, Control_c, 0, 64, 46
1, 221740, Note_off_c, 0, 66, 64
1, 221744, Note_off_c, 0, 67, 64
1, 221745, Note_off_c, 0, 58, 58
1, 221776, Control_c, 0, 64, 45
1, 221791, Control_c, 0, 64, 45
1, 221806, Control_c, 0, 64, 44
1, 221808, Note_on_c, 0, 52, 97
1, 221821, Control_c, 0, 64, 43
1, 221821, Note_on_c, 0, 45, 80
1, 221836, Control_c, 0, 64, 42
1, 221845, Note_off_c, 0, 45, 66
1, 221845, Note_off_c, 0, 52, 66
1, 221850, Control_c, 0, 64, 41
1, 221865, Control_c, 0, 64, 39
1, 221887, Control_c, 0, 64, 38
1, 221902, Control_c, 0, 64, 37
1, 221925, Note_on_c, 0, 45, 76
1, 221927, Note_on_c, 0, 52, 92
1, 221927, Note_on_c, 0, 58, 88
1, 221931, Note_on_c, 0, 67, 76
1, 221934, Note_on_c, 0, 66, 67
1, 221946, Control_c, 0, 64, 39
1, 221961, Control_c, 0, 64, 40
1, 221974, Note_off_c, 0, 45, 61
1, 221976, Control_c, 0, 64, 41
1, 221984, Note_off_c, 0, 52, 62
1, 221985, Note_off_c, 0, 58, 62
1, 221991, Control_c, 0, 64, 42
1, 221997, Note_off_c, 0, 67, 60
1, 222004, Note_off_c, 0, 66, 61
1, 222039, Note_on_c, 0, 55, 96
1, 222042, Note_on_c, 0, 62, 85
1, 222065, Control_c, 0, 64, 41
1, 222078, Note_off_c, 0, 55, 66
1, 222080, Control_c, 0, 64, 40
1, 222086, Note_off_c, 0, 62, 64
1, 222095, Control_c, 0, 64, 40
1, 222110, Control_c, 0, 64, 39
1, 222157, Note_on_c, 0, 58, 100
1, 222169, Control_c, 0, 64, 39
1, 222183, Control_c, 0, 64, 38
1, 222195, Note_on_c, 0, 66, 4
1, 222195, Note_off_c, 0, 66, 127
1, 222198, Control_c, 0, 64, 38
1, 222205, Note_off_c, 0, 58, 64
1, 222213, Control_c, 0, 64, 37
1, 222257, Control_c, 0, 64, 37
1, 222268, Note_on_c, 0, 66, 77
1, 222274, Note_on_c, 0, 70, 84
1, 222277, Note_on_c, 0, 62, 97
1, 222311, Note_off_c, 0, 62, 66
1, 222317, Control_c, 0, 64, 36
1, 222331, Note_off_c, 0, 66, 66
1, 222331, Control_c, 0, 64, 34
1, 222336, Note_off_c, 0, 70, 65
1, 222346, Control_c, 0, 64, 33
1, 222376, Control_c, 0, 64, 37
1, 222391, Note_on_c, 0, 62, 90
1, 222391, Control_c, 0, 64, 49
1, 222398, Note_on_c, 0, 64, 107
1, 222405, Control_c, 0, 64, 61
1, 222420, Control_c, 0, 64, 67
1, 222435, Note_off_c, 0, 62, 65
1, 222435, Note_off_c, 0, 64, 71
1, 222435, Control_c, 0, 64, 72
1, 222450, Control_c, 0, 64, 75
1, 222465, Control_c, 0, 64, 77
1, 222495, Control_c, 0, 64, 76
1, 222510, Control_c, 0, 64, 67
1, 222525, Control_c, 0, 64, 39
1, 222540, Control_c, 0, 64, 0
1, 222543, Note_on_c, 0, 67, 105
1, 222567, Note_off_c, 0, 67, 71
1, 222743, Note_on_c, 0, 69, 97
1, 222750, Note_on_c, 0, 74, 88
1, 222773, Note_off_c, 0, 74, 62
1, 222775, Note_off_c, 0, 69, 65
1, 222911, Note_on_c, 0, 66, 96
1, 222943, Note_off_c, 0, 66, 66
1, 223045, Note_on_c, 0, 67, 88
1, 223050, Note_on_c, 0, 73, 76
1, 223053, Note_on_c, 0, 70, 81
1, 223071, Note_off_c, 0, 73, 71
1, 223079, Note_off_c, 0, 67, 65
1, 223081, Note_off_c, 0, 70, 66
1, 223177, Note_on_c, 0, 64, 92
1, 223204, Note_off_c, 0, 64, 66
1, 223295, Note_on_c, 0, 70, 80
1, 223296, Note_on_c, 0, 66, 79
1, 223297, Note_on_c, 0, 62, 84
1, 223321, Note_off_c, 0, 66, 69
1, 223331, Note_off_c, 0, 62, 66
1, 223337, Note_off_c, 0, 70, 64
1, 223431, Note_on_c, 0, 58, 91
1, 223440, Note_on_c, 0, 45, 73
1, 223458, Note_off_c, 0, 58, 66
1, 223460, Note_off_c, 0, 45, 63
1, 223557, Note_on_c, 0, 60, 79
1, 223564, Note_on_c, 0, 62, 75
1, 223565, Note_on_c, 0, 67, 75
1, 223577, Note_off_c, 0, 60, 74
1, 223588, Note_off_c, 0, 62, 68
1, 223594, Note_off_c, 0, 67, 64
1, 223687, Note_on_c, 0, 62, 79
1, 223722, Note_off_c, 0, 62, 66
1, 223802, Note_on_c, 0, 64, 76
1, 223802, Note_on_c, 0, 70, 79
1, 223808, Note_on_c, 0, 66, 64
1, 223823, Note_off_c, 0, 64, 71
1, 223833, Note_off_c, 0, 66, 65
1, 223847, Note_off_c, 0, 70, 63
1, 223934, Note_on_c, 0, 62, 76
1, 223955, Note_off_c, 0, 62, 69
1, 224006, Control_c, 0, 67, 45
1, 224021, Control_c, 0, 67, 56
1, 224036, Control_c, 0, 67, 66
1, 224051, Control_c, 0, 67, 73
1, 224054, Note_on_c, 0, 60, 78
1, 224057, Note_on_c, 0, 62, 50
1, 224060, Note_on_c, 0, 67, 71
1, 224066, Control_c, 0, 67, 83
1, 224081, Control_c, 0, 67, 96
1, 224082, Note_off_c, 0, 60, 62
1, 224088, Note_off_c, 0, 62, 64
1, 224096, Note_off_c, 0, 67, 57
1, 224096, Control_c, 0, 67, 110
1, 224111, Control_c, 0, 67, 122
1, 224133, Control_c, 0, 67, 127
1, 224207, Note_on_c, 0, 58, 81
1, 224211, Note_on_c, 0, 45, 61
1, 224236, Note_off_c, 0, 45, 62
1, 224237, Note_off_c, 0, 58, 62
1, 224356, Note_on_c, 0, 60, 66
1, 224363, Note_on_c, 0, 62, 66
1, 224364, Note_on_c, 0, 67, 61
1, 224388, Note_off_c, 0, 60, 64
1, 224391, Note_off_c, 0, 62, 65
1, 224397, Note_off_c, 0, 67, 63
1, 224509, Note_on_c, 0, 57, 73
1, 224540, Note_off_c, 0, 57, 68
1, 224699, Note_on_c, 0, 55, 66
1, 224704, Note_on_c, 0, 61, 56
1, 224712, Note_on_c, 0, 58, 52
1, 224741, Note_off_c, 0, 55, 58
1, 224744, Note_off_c, 0, 58, 63
1, 224744, Note_off_c, 0, 61, 64
1, 224924, Note_on_c, 0, 54, 58
1, 224955, Note_off_c, 0, 54, 64
1, 225198, Note_on_c, 0, 52, 56
1, 225205, Note_on_c, 0, 57, 41
1, 225224, Note_on_c, 0, 55, 25
1, 225247, Note_off_c, 0, 57, 59
1, 225253, Note_off_c, 0, 52, 55
1, 225265, Note_off_c, 0, 55, 44
1, 225357, Control_c, 0, 64, 31
1, 225371, Control_c, 0, 64, 36
1, 225386, Control_c, 0, 64, 41
1, 225401, Control_c, 0, 64, 46
1, 225416, Control_c, 0, 64, 50
1, 225431, Control_c, 0, 64, 53
1, 225446, Control_c, 0, 64, 53
1, 225461, Control_c, 0, 64, 54
1, 225564, Control_c, 0, 64, 53
1, 225579, Control_c, 0, 64, 53
1, 225593, Control_c, 0, 64, 52
1, 225594, Note_on_c, 0, 38, 49
1, 225608, Control_c, 0, 64, 50
1, 225631, Control_c, 0, 64, 48
1, 225646, Control_c, 0, 64, 47
1, 225661, Control_c, 0, 64, 46
1, 225675, Control_c, 0, 64, 45
1, 225690, Control_c, 0, 64, 44
1, 225705, Control_c, 0, 64, 44
1, 225720, Control_c, 0, 64, 43
1, 225750, Control_c, 0, 64, 42
1, 225867, Control_c, 0, 64, 42
1, 225926, Note_on_c, 0, 69, 56
1, 225930, Note_on_c, 0, 67, 60
1, 226045, Control_c, 0, 64, 42
1, 226180, Note_off_c, 0, 67, 42
1, 226182, Note_on_c, 0, 66, 54
1, 226377, Note_on_c, 0, 64, 50
1, 226409, Note_on_c, 0, 45, 28
1, 226411, Note_off_c, 0, 66, 38
1, 226437, Control_c, 0, 64, 43
1, 226452, Control_c, 0, 64, 44
1, 226467, Control_c, 0, 64, 45
1, 226478, Note_off_c, 0, 38, 42
1, 226481, Control_c, 0, 64, 47
1, 226498, Control_c, 0, 64, 48
1, 226521, Note_off_c, 0, 45, 50
1, 226525, Note_off_c, 0, 69, 59
1, 226530, Note_off_c, 0, 64, 63
1, 226545, Note_on_c, 0, 62, 55
1, 226568, Note_on_c, 0, 53, 52
1, 226675, Control_c, 0, 64, 47
1, 226690, Control_c, 0, 64, 47
1, 226694, Note_off_c, 0, 53, 40
1, 226702, Note_off_c, 0, 62, 61
1, 226705, Control_c, 0, 64, 46
1, 226706, Note_on_c, 0, 61, 60
1, 226720, Note_on_c, 0, 54, 26
1, 226749, Control_c, 0, 64, 46
1, 226764, Control_c, 0, 64, 45
1, 226778, Control_c, 0, 64, 44
1, 226793, Control_c, 0, 64, 41
1, 226808, Control_c, 0, 64, 37
1, 226823, Control_c, 0, 64, 29
1, 226838, Control_c, 0, 64, 0
1, 226853, Note_off_c, 0, 61, 56
1, 226857, Note_off_c, 0, 54, 50
1, 226905, Note_on_c, 0, 59, 64
1, 226909, Note_on_c, 0, 55, 37
1, 226927, Control_c, 0, 64, 41
1, 226942, Control_c, 0, 64, 56
1, 226948, Note_off_c, 0, 59, 64
1, 226957, Control_c, 0, 64, 63
1, 226957, Control_c, 0, 67, 105
1, 226971, Control_c, 0, 64, 66
1, 226971, Control_c, 0, 67, 82
1, 226986, Control_c, 0, 64, 68
1, 226986, Control_c, 0, 67, 62
1, 227001, Control_c, 0, 64, 71
1, 227001, Control_c, 0, 67, 47
1, 227016, Control_c, 0, 64, 73
1, 227016, Control_c, 0, 67, 0
1, 227031, Control_c, 0, 64, 75
1, 227045, Control_c, 0, 64, 77
1, 227060, Control_c, 0, 64, 79
1, 227075, Control_c, 0, 64, 80
1, 227089, Control_c, 0, 64, 82
1, 227104, Control_c, 0, 64, 83
1, 227127, Control_c, 0, 64, 84
1, 227142, Control_c, 0, 64, 85
1, 227145, Note_off_c, 0, 55, 60
1, 227165, Note_on_c, 0, 52, 48
1, 227186, Control_c, 0, 64, 84
1, 227201, Control_c, 0, 64, 79
1, 227202, Note_on_c, 0, 91, 79
1, 227216, Control_c, 0, 64, 73
1, 227225, Note_on_c, 0, 83, 53
1, 227226, Note_on_c, 0, 79, 51
1, 227231, Control_c, 0, 64, 67
1, 227245, Control_c, 0, 64, 64
1, 227260, Control_c, 0, 64, 63
1, 227275, Control_c, 0, 64, 65
1, 227290, Control_c, 0, 64, 68
1, 227306, Control_c, 0, 64, 72
1, 227306, Note_off_c, 0, 79, 55
1, 227307, Note_off_c, 0, 83, 56
1, 227321, Control_c, 0, 64, 74
1, 227328, Note_off_c, 0, 91, 66
1, 227336, Control_c, 0, 64, 76
1, 227351, Control_c, 0, 64, 77
1, 227357, Note_off_c, 0, 52, 59
1, 227366, Control_c, 0, 64, 78
1, 227381, Note_on_c, 0, 91, 79
1, 227381, Control_c, 0, 64, 78
1, 227384, Note_on_c, 0, 62, 60
1, 227395, Control_c, 0, 64, 79
1, 227408, Note_on_c, 0, 83, 61
1, 227410, Note_on_c, 0, 79, 47
1, 227410, Control_c, 0, 64, 81
1, 227423, Note_off_c, 0, 62, 61
1, 227425, Control_c, 0, 64, 83
1, 227440, Control_c, 0, 64, 86
1, 227455, Control_c, 0, 64, 89
1, 227469, Control_c, 0, 64, 92
1, 227476, Note_off_c, 0, 83, 59
1, 227477, Note_off_c, 0, 79, 55
1, 227484, Control_c, 0, 64, 93
1, 227495, Note_off_c, 0, 91, 66
1, 227514, Control_c, 0, 64, 92
1, 227528, Control_c, 0, 64, 86
1, 227543, Control_c, 0, 64, 74
1, 227558, Control_c, 0, 64, 60
1, 227564, Note_on_c, 0, 91, 72
1, 227573, Control_c, 0, 64, 49
1, 227580, Note_on_c, 0, 45, 56
1, 227587, Note_on_c, 0, 83, 45
1, 227588, Control_c, 0, 64, 48
1, 227600, Note_on_c, 0, 79, 36
1, 227602, Control_c, 0, 64, 54
1, 227617, Control_c, 0, 64, 63
1, 227624, Note_off_c, 0, 83, 65
1, 227632, Control_c, 0, 64, 70
1, 227634, Note_off_c, 0, 45, 61
1, 227647, Control_c, 0, 64, 77
1, 227658, Note_off_c, 0, 91, 65
1, 227662, Control_c, 0, 64, 83
1, 227676, Control_c, 0, 64, 86
1, 227685, Note_off_c, 0, 79, 57
1, 227691, Control_c, 0, 64, 88
1, 227706, Control_c, 0, 64, 91
1, 227720, Control_c, 0, 64, 93
1, 227735, Control_c, 0, 64, 94
1, 227750, Control_c, 0, 64, 96
1, 227780, Control_c, 0, 64, 98
1, 227797, Note_on_c, 0, 61, 57
1, 227825, Control_c, 0, 64, 100
1, 227856, Note_on_c, 0, 90, 73
1, 227876, Control_c, 0, 67, 37
1, 227879, Note_on_c, 0, 78, 58
1, 227883, Note_on_c, 0, 81, 35
1, 227891, Control_c, 0, 67, 38
1, 227906, Control_c, 0, 67, 39
1, 227917, Note_off_c, 0, 81, 52
1, 227920, Control_c, 0, 67, 39
1, 227924, Note_off_c, 0, 78, 55
1, 227935, Control_c, 0, 67, 40
1, 227938, Note_off_c, 0, 90, 65
1, 227950, Control_c, 0, 67, 41
1, 227974, Note_on_c, 0, 57, 60
1, 227979, Note_on_c, 0, 67, 40
1, 227980, Note_off_c, 0, 61, 58
1, 227980, Control_c, 0, 67, 41
1, 228007, Note_off_c, 0, 57, 66
1, 228010, Note_off_c, 0, 67, 54
1, 228024, Control_c, 0, 67, 42
1, 228068, Note_on_c, 0, 79, 56
1, 228069, Control_c, 0, 67, 41
1, 228087, Note_on_c, 0, 76, 43
1, 228099, Control_c, 0, 67, 41
1, 228102, Note_off_c, 0, 79, 61
1, 228114, Control_c, 0, 67, 40
1, 228117, Note_off_c, 0, 76, 53
1, 228118, Note_on_c, 0, 88, 76
1, 228129, Control_c, 0, 64, 96
1, 228144, Control_c, 0, 64, 81
1, 228144, Control_c, 0, 67, 39
1, 228159, Control_c, 0, 64, 64
1, 228169, Note_on_c, 0, 79, 54
1, 228173, Note_on_c, 0, 38, 58
1, 228173, Control_c, 0, 64, 38
1, 228173, Control_c, 0, 67, 39
1, 228182, Note_on_c, 0, 76, 63
1, 228188, Control_c, 0, 64, 0
1, 228218, Control_c, 0, 64, 41
1, 228233, Control_c, 0, 64, 59
1, 228239, Note_off_c, 0, 38, 62
1, 228248, Control_c, 0, 64, 68
1, 228263, Control_c, 0, 64, 75
1, 228278, Control_c, 0, 64, 82
1, 228292, Control_c, 0, 64, 84
1, 228307, Control_c, 0, 64, 87
1, 228322, Control_c, 0, 64, 89
1, 228322, Control_c, 0, 67, 38
1, 228329, Note_off_c, 0, 88, 53
1, 228336, Control_c, 0, 64, 92
1, 228341, Note_off_c, 0, 76, 59
1, 228349, Note_off_c, 0, 79, 63
1, 228351, Control_c, 0, 64, 94
1, 228366, Control_c, 0, 64, 94
1, 228381, Control_c, 0, 64, 95
1, 228411, Control_c, 0, 67, 37
1, 228433, Note_on_c, 0, 67, 65
1, 228440, Control_c, 0, 67, 0
1, 228442, Note_on_c, 0, 69, 54
1, 228486, Note_off_c, 0, 69, 47
1, 228520, Note_on_c, 0, 86, 75
1, 228544, Note_on_c, 0, 78, 57
1, 228550, Note_on_c, 0, 74, 38
1, 228577, Note_off_c, 0, 86, 65
1, 228581, Note_off_c, 0, 74, 51
1, 228587, Note_off_c, 0, 78, 60
1, 228650, Note_on_c, 0, 66, 78
1, 228676, Note_off_c, 0, 67, 55
1, 228803, Control_c, 0, 64, 94
1, 228813, Note_on_c, 0, 64, 83
1, 228817, Control_c, 0, 64, 92
1, 228832, Control_c, 0, 64, 84
1, 228847, Control_c, 0, 64, 73
1, 228850, Note_off_c, 0, 66, 61
1, 228862, Control_c, 0, 64, 66
1, 228877, Control_c, 0, 64, 64
1, 228893, Control_c, 0, 64, 66
1, 228908, Control_c, 0, 64, 69
1, 228922, Control_c, 0, 64, 72
1, 228937, Control_c, 0, 64, 75
1, 228952, Control_c, 0, 64, 76
1, 228963, Note_on_c, 0, 66, 76
1, 228966, Control_c, 0, 64, 77
1, 228981, Note_on_c, 0, 62, 75
1, 228981, Control_c, 0, 64, 77
1, 228996, Control_c, 0, 64, 78
1, 228999, Note_off_c, 0, 64, 60
1, 229026, Control_c, 0, 64, 78
1, 229046, Poly_aftertouch_c, 0, 57, 127
1, 229047, Note_off_c, 0, 62, 62
1, 229071, Poly_aftertouch_c, 0, 57, 0
1, 229124, Note_on_c, 0, 61, 82
1, 229132, Note_off_c, 0, 66, 63
1, 229145, Control_c, 0, 64, 79
1, 229174, Control_c, 0, 64, 79
1, 229189, Control_c, 0, 64, 80
1, 229204, Control_c, 0, 64, 81
1, 229248, Control_c, 0, 64, 79
1, 229263, Control_c, 0, 64, 71
1, 229271, Note_off_c, 0, 61, 57
1, 229278, Control_c, 0, 64, 60
1, 229292, Control_c, 0, 64, 40
1, 229296, Note_on_c, 0, 55, 62
1, 229307, Control_c, 0, 64, 30
1, 229335, Note_on_c, 0, 59, 83
1, 229337, Control_c, 0, 64, 43
1, 229352, Control_c, 0, 64, 57
1, 229374, Control_c, 0, 64, 65
1, 229387, Note_off_c, 0, 59, 66
1, 229389, Control_c, 0, 64, 70
1, 229404, Control_c, 0, 64, 75
1, 229419, Control_c, 0, 64, 78
1, 229434, Control_c, 0, 64, 79
1, 229448, Control_c, 0, 64, 81
1, 229463, Control_c, 0, 64, 82
1, 229478, Control_c, 0, 64, 82
1, 229492, Control_c, 0, 64, 83
1, 229516, Note_off_c, 0, 55, 63
1, 229525, Note_on_c, 0, 52, 66
1, 229528, Note_on_c, 0, 91, 82
1, 229537, Control_c, 0, 64, 83
1, 229545, Note_on_c, 0, 79, 57
1, 229567, Control_c, 0, 64, 84
1, 229571, Note_on_c, 0, 83, 20
1, 229581, Control_c, 0, 64, 86
1, 229596, Control_c, 0, 64, 87
1, 229598, Note_off_c, 0, 79, 53
1, 229608, Note_off_c, 0, 83, 52
1, 229625, Note_off_c, 0, 91, 66
1, 229626, Control_c, 0, 64, 87
1, 229641, Control_c, 0, 64, 82
1, 229655, Control_c, 0, 64, 70
1, 229670, Control_c, 0, 64, 57
1, 229673, Note_off_c, 0, 52, 62
1, 229683, Note_on_c, 0, 91, 84
1, 229685, Control_c, 0, 64, 45
1, 229695, Note_on_c, 0, 62, 72
1, 229700, Note_on_c, 0, 83, 62
1, 229701, Control_c, 0, 64, 44
1, 229703, Note_on_c, 0, 79, 61
1, 229715, Control_c, 0, 64, 52
1, 229730, Control_c, 0, 64, 63
1, 229745, Control_c, 0, 64, 70
1, 229760, Control_c, 0, 64, 77
1, 229762, Note_off_c, 0, 62, 61
1, 229775, Control_c, 0, 64, 80
1, 229789, Control_c, 0, 64, 82
1, 229792, Note_off_c, 0, 79, 59
1, 229799, Note_off_c, 0, 83, 57
1, 229804, Control_c, 0, 64, 83
1, 229814, Note_off_c, 0, 91, 66
1, 229819, Control_c, 0, 64, 84
1, 229834, Control_c, 0, 64, 85
1, 229849, Control_c, 0, 64, 86
1, 229873, Note_on_c, 0, 91, 78
1, 229879, Control_c, 0, 64, 86
1, 229882, Note_on_c, 0, 45, 65
1, 229888, Note_on_c, 0, 79, 66
1, 229918, Note_on_c, 0, 83, 9
1, 229935, Note_off_c, 0, 45, 60
1, 229938, Control_c, 0, 64, 87
1, 229946, Note_off_c, 0, 91, 66
1, 229964, Note_off_c, 0, 83, 52
1, 229967, Note_off_c, 0, 79, 61
1, 229968, Control_c, 0, 64, 87
1, 229983, Control_c, 0, 64, 88
1, 229997, Control_c, 0, 64, 90
1, 230012, Control_c, 0, 64, 92
1, 230027, Control_c, 0, 64, 93
1, 230042, Control_c, 0, 64, 92
1, 230057, Control_c, 0, 64, 91
1, 230071, Control_c, 0, 64, 82
1, 230086, Control_c, 0, 64, 71
1, 230097, Note_on_c, 0, 61, 57
1, 230101, Control_c, 0, 64, 63
1, 230123, Control_c, 0, 64, 60
1, 230138, Control_c, 0, 64, 62
1, 230153, Control_c, 0, 64, 66
1, 230154, Note_on_c, 0, 90, 79
1, 230168, Control_c, 0, 64, 71
1, 230168, Note_on_c, 0, 78, 60
1, 230172, Note_on_c, 0, 81, 47
1, 230183, Control_c, 0, 64, 76
1, 230197, Control_c, 0, 64, 78
1, 230212, Control_c, 0, 64, 78
1, 230212, Note_off_c, 0, 81, 58
1, 230225, Note_off_c, 0, 78, 51
1, 230248, Note_off_c, 0, 90, 64
1, 230257, Control_c, 0, 64, 79
1, 230266, Note_on_c, 0, 57, 64
1, 230268, Note_on_c, 0, 67, 48
1, 230283, Note_off_c, 0, 61, 63
1, 230286, Control_c, 0, 64, 79
1, 230296, Note_off_c, 0, 67, 56
1, 230301, Control_c, 0, 64, 80
1, 230302, Note_off_c, 0, 57, 66
1, 230329, Control_c, 0, 64, 80
1, 230358, Note_on_c, 0, 79, 62
1, 230359, Control_c, 0, 64, 81
1, 230383, Note_on_c, 0, 76, 37
1, 230388, Control_c, 0, 64, 80
1, 230392, Note_off_c, 0, 79, 62
1, 230396, Note_on_c, 0, 88, 78
1, 230403, Control_c, 0, 64, 74
1, 230413, Note_off_c, 0, 76, 51
1, 230418, Control_c, 0, 64, 63
1, 230433, Control_c, 0, 64, 31
1, 230448, Control_c, 0, 64, 0
1, 230457, Note_on_c, 0, 38, 65
1, 230460, Note_on_c, 0, 79, 57
1, 230467, Note_on_c, 0, 76, 52
1, 230493, Control_c, 0, 64, 34
1, 230508, Control_c, 0, 64, 55
1, 230523, Control_c, 0, 64, 66
1, 230525, Note_off_c, 0, 38, 61
1, 230537, Control_c, 0, 64, 72
1, 230552, Control_c, 0, 64, 76
1, 230564, Note_off_c, 0, 76, 60
1, 230567, Control_c, 0, 64, 78
1, 230582, Control_c, 0, 64, 80
1, 230583, Note_off_c, 0, 88, 56
1, 230597, Note_off_c, 0, 79, 62
1, 230597, Control_c, 0, 64, 82
1, 230612, Control_c, 0, 64, 83
1, 230627, Control_c, 0, 64, 85
1, 230642, Control_c, 0, 64, 86
1, 230722, Note_on_c, 0, 67, 60
1, 230726, Note_on_c, 0, 69, 56
1, 230793, Note_on_c, 0, 86, 76
1, 230816, Note_off_c, 0, 69, 38
1, 230818, Note_on_c, 0, 74, 61
1, 230820, Note_on_c, 0, 78, 64
1, 230847, Note_off_c, 0, 74, 61
1, 230849, Control_c, 0, 64, 86
1, 230869, Note_off_c, 0, 86, 65
1, 230877, Note_off_c, 0, 78, 60
1, 230941, Note_on_c, 0, 66, 80
1, 230987, Note_off_c, 0, 67, 55
1, 231101, Note_on_c, 0, 64, 85
1, 231109, Control_c, 0, 64, 86
1, 231149, Note_off_c, 0, 66, 56
1, 231263, Note_on_c, 0, 66, 86
1, 231265, Note_on_c, 0, 62, 70
1, 231280, Note_off_c, 0, 64, 57
1, 231322, Note_off_c, 0, 62, 63
1, 231427, Note_off_c, 0, 66, 63
1, 231429, Note_on_c, 0, 60, 89
1, 231584, Control_c, 0, 64, 82
1, 231599, Control_c, 0, 64, 70
1, 231604, Note_on_c, 0, 43, 69
1, 231621, Control_c, 0, 64, 54
1, 231636, Control_c, 0, 64, 0
1, 231643, Note_off_c, 0, 60, 55
1, 231674, Note_off_c, 0, 43, 63
1, 231680, Control_c, 0, 64, 47
1, 231694, Control_c, 0, 64, 62
1, 231696, Note_on_c, 0, 58, 87
1, 231709, Control_c, 0, 64, 68
1, 231724, Control_c, 0, 64, 72
1, 231739, Note_off_c, 0, 58, 65
1, 231739, Control_c, 0, 64, 75
1, 231754, Control_c, 0, 64, 76
1, 231768, Control_c, 0, 64, 77
1, 231783, Control_c, 0, 64, 79
1, 231798, Control_c, 0, 64, 80
1, 231813, Control_c, 0, 64, 81
1, 231885, Note_on_c, 0, 60, 80
1, 231892, Note_on_c, 0, 90, 83
1, 231906, Note_on_c, 0, 78, 70
1, 231931, Note_off_c, 0, 78, 65
1, 231932, Control_c, 0, 64, 82
1, 231967, Note_off_c, 0, 90, 65
1, 232006, Control_c, 0, 64, 80
1, 232021, Control_c, 0, 64, 74
1, 232035, Control_c, 0, 64, 64
1, 232050, Control_c, 0, 64, 54
1, 232053, Note_on_c, 0, 62, 83
1, 232060, Note_on_c, 0, 88, 82
1, 232060, Note_off_c, 0, 60, 60
1, 232065, Control_c, 0, 64, 50
1, 232078, Note_on_c, 0, 79, 57
1, 232080, Control_c, 0, 64, 52
1, 232085, Note_on_c, 0, 76, 62
1, 232096, Control_c, 0, 64, 58
1, 232110, Control_c, 0, 64, 64
1, 232115, Note_off_c, 0, 79, 60
1, 232124, Note_off_c, 0, 76, 49
1, 232125, Control_c, 0, 64, 68
1, 232140, Control_c, 0, 64, 73
1, 232155, Control_c, 0, 64, 76
1, 232160, Note_off_c, 0, 88, 64
1, 232170, Control_c, 0, 64, 77
1, 232184, Control_c, 0, 64, 77
1, 232214, Control_c, 0, 64, 77
1, 232229, Control_c, 0, 64, 71
1, 232237, Note_on_c, 0, 64, 83
1, 232244, Note_on_c, 0, 86, 84
1, 232244, Control_c, 0, 64, 59
1, 232256, Note_off_c, 0, 62, 61
1, 232259, Control_c, 0, 64, 33
1, 232271, Note_on_c, 0, 78, 54
1, 232272, Note_on_c, 0, 74, 50
1, 232273, Control_c, 0, 64, 0
1, 232303, Control_c, 0, 64, 32
1, 232317, Control_c, 0, 64, 49
1, 232332, Control_c, 0, 64, 60
1, 232344, Note_off_c, 0, 74, 0
1, 232344, Note_on_c, 0, 74, 12
1, 232346, Note_off_c, 0, 78, 58
1, 232347, Control_c, 0, 64, 65
1, 232370, Control_c, 0, 64, 68
1, 232385, Control_c, 0, 64, 69
1, 232399, Control_c, 0, 64, 70
1, 232414, Control_c, 0, 64, 70
1, 232429, Control_c, 0, 64, 71
1, 232439, Note_off_c, 0, 74, 54
1, 232444, Control_c, 0, 64, 72
1, 232457, Note_off_c, 0, 86, 57
1, 232459, Control_c, 0, 64, 72
1, 232466, Note_on_c, 0, 66, 88
1, 232473, Control_c, 0, 64, 73
1, 232488, Control_c, 0, 64, 74
1, 232489, Note_off_c, 0, 64, 60
1, 232503, Control_c, 0, 64, 76
1, 232517, Control_c, 0, 64, 78
1, 232532, Control_c, 0, 64, 79
1, 232547, Control_c, 0, 64, 80
1, 232577, Control_c, 0, 64, 78
1, 232591, Control_c, 0, 64, 73
1, 232597, Note_on_c, 0, 84, 84
1, 232606, Control_c, 0, 64, 67
1, 232608, Note_on_c, 0, 72, 67
1, 232621, Note_on_c, 0, 76, 24
1, 232621, Control_c, 0, 64, 64
1, 232636, Control_c, 0, 64, 65
1, 232649, Note_off_c, 0, 76, 48
1, 232651, Control_c, 0, 64, 67
1, 232666, Control_c, 0, 64, 71
1, 232681, Control_c, 0, 64, 75
1, 232695, Control_c, 0, 64, 78
1, 232707, Note_on_c, 0, 67, 84
1, 232710, Control_c, 0, 64, 81
1, 232715, Note_off_c, 0, 84, 65
1, 232719, Note_off_c, 0, 66, 61
1, 232725, Control_c, 0, 64, 83
1, 232740, Control_c, 0, 64, 84
1, 232754, Note_off_c, 0, 72, 55
1, 232755, Control_c, 0, 64, 84
1, 232770, Control_c, 0, 64, 85
1, 232784, Control_c, 0, 64, 85
1, 232803, Note_off_c, 0, 67, 60
1, 232814, Control_c, 0, 64, 86
1, 232888, Note_on_c, 0, 67, 66
1, 232921, Note_on_c, 0, 82, 71
1, 232931, Note_on_c, 0, 74, 68
1, 232936, Note_on_c, 0, 70, 58
1, 232946, Note_off_c, 0, 67, 59
1, 232948, Control_c, 0, 64, 85
1, 232955, Note_on_c, 0, 69, 71
1, 232963, Control_c, 0, 64, 81
1, 232978, Control_c, 0, 64, 70
1, 232982, Note_off_c, 0, 69, 65
1, 232993, Control_c, 0, 64, 57
1, 233003, Note_on_c, 0, 67, 69
1, 233007, Control_c, 0, 64, 30
1, 233022, Control_c, 0, 64, 0
1, 233148, Control_c, 0, 64, 38
1, 233163, Control_c, 0, 64, 56
1, 233178, Control_c, 0, 64, 62
1, 233193, Control_c, 0, 64, 65
1, 233208, Control_c, 0, 64, 66
1, 233222, Control_c, 0, 64, 68
1, 233237, Control_c, 0, 64, 71
1, 233252, Control_c, 0, 64, 73
1, 233267, Control_c, 0, 64, 75
1, 233282, Control_c, 0, 64, 76
1, 233283, Note_off_c, 0, 67, 55
1, 233296, Control_c, 0, 64, 77
1, 233311, Control_c, 0, 64, 78
1, 233355, Control_c, 0, 64, 78
1, 233563, Control_c, 0, 64, 78
1, 233578, Control_c, 0, 64, 73
1, 233578, Note_on_c, 0, 66, 61
1, 233593, Control_c, 0, 64, 62
1, 233607, Control_c, 0, 64, 48
1, 233622, Control_c, 0, 64, 41
1, 233652, Control_c, 0, 64, 45
1, 233666, Control_c, 0, 64, 54
1, 233682, Control_c, 0, 64, 62
1, 233697, Control_c, 0, 64, 65
1, 233712, Control_c, 0, 64, 66
1, 233727, Control_c, 0, 64, 67
1, 233742, Control_c, 0, 64, 68
1, 233756, Note_off_c, 0, 82, 60
1, 233756, Control_c, 0, 64, 68
1, 233771, Control_c, 0, 64, 69
1, 233775, Note_off_c, 0, 70, 62
1, 233816, Control_c, 0, 67, 37
1, 233830, Control_c, 0, 67, 46
1, 233845, Control_c, 0, 67, 55
1, 233864, Note_on_c, 0, 81, 61
1, 233867, Control_c, 0, 67, 64
1, 233882, Control_c, 0, 67, 72
1, 233888, Note_on_c, 0, 69, 36
1, 233897, Control_c, 0, 67, 81
1, 233912, Control_c, 0, 67, 88
1, 233927, Control_c, 0, 67, 95
1, 233942, Control_c, 0, 64, 68
1, 233942, Control_c, 0, 67, 101
1, 233956, Control_c, 0, 64, 64
1, 233956, Control_c, 0, 67, 105
1, 233971, Control_c, 0, 64, 55
1, 233971, Control_c, 0, 67, 111
1, 233986, Control_c, 0, 64, 40
1, 233986, Control_c, 0, 67, 119
1, 234001, Control_c, 0, 64, 0
1, 234001, Control_c, 0, 67, 126
1, 234033, Note_on_c, 0, 57, 37
1, 234045, Control_c, 0, 64, 39
1, 234060, Control_c, 0, 64, 49
1, 234075, Control_c, 0, 64, 59
1, 234089, Control_c, 0, 64, 64
1, 234104, Control_c, 0, 64, 66
1, 234119, Control_c, 0, 64, 67
1, 234134, Control_c, 0, 64, 69
1, 234149, Control_c, 0, 64, 70
1, 234163, Control_c, 0, 64, 72
1, 234169, Note_off_c, 0, 66, 55
1, 234178, Control_c, 0, 64, 73
1, 234193, Control_c, 0, 64, 74
1, 234208, Control_c, 0, 64, 75
1, 234223, Control_c, 0, 64, 75
1, 234231, Note_off_c, 0, 81, 63
1, 234252, Control_c, 0, 64, 76
1, 234264, Note_off_c, 0, 69, 56
1, 234272, Note_off_c, 0, 74, 65
1, 234296, Control_c, 0, 64, 76
1, 234341, Note_on_c, 0, 66, 46
1, 234415, Control_c, 0, 64, 77
1, 234451, Note_off_c, 0, 66, 60
1, 234551, Note_on_c, 0, 78, 69
1, 234563, Note_on_c, 0, 69, 45
1, 234576, Note_on_c, 0, 73, 52
1, 234582, Note_on_c, 0, 66, 37
1, 234658, Note_off_c, 0, 66, 38
1, 234695, Note_off_c, 0, 78, 57
1, 234699, Note_off_c, 0, 69, 31
1, 234773, Note_on_c, 0, 78, 71
1, 234794, Note_on_c, 0, 66, 39
1, 234797, Note_on_c, 0, 72, 51
1, 234800, Note_on_c, 0, 62, 43
1, 234818, Note_off_c, 0, 57, 58
1, 234884, Note_off_c, 0, 73, 30
1, 234940, Note_off_c, 0, 72, 58
1, 235004, Note_off_c, 0, 66, 42
1, 235020, Note_off_c, 0, 78, 54
1, 235053, Note_off_c, 0, 62, 57
1, 235071, Note_on_c, 0, 55, 38
1, 235075, Control_c, 0, 64, 76
1, 235090, Control_c, 0, 64, 73
1, 235105, Control_c, 0, 64, 66
1, 235119, Control_c, 0, 64, 55
1, 235134, Control_c, 0, 64, 45
1, 235149, Control_c, 0, 64, 40
1, 235152, Note_on_c, 0, 78, 59
1, 235164, Control_c, 0, 64, 40
1, 235167, Note_on_c, 0, 70, 46
1, 235179, Control_c, 0, 64, 45
1, 235189, Note_on_c, 0, 66, 30
1, 235193, Control_c, 0, 64, 54
1, 235208, Control_c, 0, 64, 60
1, 235222, Note_off_c, 0, 70, 56
1, 235223, Control_c, 0, 64, 64
1, 235238, Control_c, 0, 64, 67
1, 235253, Control_c, 0, 64, 68
1, 235268, Note_off_c, 0, 66, 51
1, 235268, Control_c, 0, 64, 69
1, 235283, Control_c, 0, 64, 70
1, 235286, Note_off_c, 0, 78, 60
1, 235298, Control_c, 0, 64, 70
1, 235313, Control_c, 0, 64, 71
1, 235362, Note_off_c, 0, 55, 58
1, 235396, Note_on_c, 0, 62, 47
1, 235397, Note_on_c, 0, 76, 71
1, 235426, Note_on_c, 0, 64, 46
1, 235426, Note_off_c, 0, 62, 62
1, 235438, Note_on_c, 0, 67, 30
1, 235454, Control_c, 0, 64, 72
1, 235456, Note_off_c, 0, 64, 54
1, 235456, Note_off_c, 0, 76, 63
1, 235475, Note_off_c, 0, 67, 50
1, 235564, Note_on_c, 0, 74, 76
1, 235583, Note_on_c, 0, 66, 56
1, 235583, Note_on_c, 0, 70, 61
1, 235585, Note_on_c, 0, 62, 40
1, 235627, Note_off_c, 0, 70, 47
1, 235627, Note_off_c, 0, 66, 61
1, 235634, Note_off_c, 0, 62, 47
1, 235634, Note_off_c, 0, 74, 62
1, 235691, Control_c, 0, 64, 71
1, 235706, Control_c, 0, 64, 71
1, 235721, Control_c, 0, 64, 67
1, 235735, Control_c, 0, 64, 60
1, 235736, Note_on_c, 0, 72, 65
1, 235750, Control_c, 0, 64, 48
1, 235759, Note_on_c, 0, 60, 46
1, 235759, Note_on_c, 0, 64, 46
1, 235760, Note_on_c, 0, 66, 47
1, 235765, Control_c, 0, 64, 31
1, 235780, Control_c, 0, 64, 0
1, 235824, Control_c, 0, 64, 32
1, 235839, Control_c, 0, 64, 48
1, 235853, Control_c, 0, 64, 59
1, 235868, Control_c, 0, 64, 64
1, 235883, Control_c, 0, 64, 66
1, 235885, Note_off_c, 0, 64, 63
1, 235897, Note_off_c, 0, 72, 60
1, 235898, Control_c, 0, 64, 66
1, 235903, Note_off_c, 0, 60, 55
1, 235913, Control_c, 0, 64, 67
1, 235927, Control_c, 0, 64, 69
1, 235942, Control_c, 0, 64, 71
1, 235957, Control_c, 0, 64, 72
1, 235958, Note_on_c, 0, 70, 44
1, 235972, Control_c, 0, 64, 73
1, 235987, Control_c, 0, 64, 74
1, 235991, Note_off_c, 0, 66, 56
1, 236016, Control_c, 0, 64, 75
1, 236031, Control_c, 0, 64, 75
1, 236078, Note_on_c, 0, 74, 68
1, 236109, Note_on_c, 0, 62, 35
1, 236205, Note_off_c, 0, 62, 35
1, 236214, Note_on_c, 0, 67, 55
1, 236248, Note_off_c, 0, 67, 65
1, 236320, Note_off_c, 0, 74, 58
1, 236349, Note_off_c, 0, 70, 41
1, 236404, Note_on_c, 0, 67, 50
1, 236411, Note_on_c, 0, 64, 30
1, 236447, Note_off_c, 0, 67, 60
1, 236448, Note_on_c, 0, 76, 72
1, 236454, Control_c, 0, 64, 71
1, 236469, Control_c, 0, 64, 61
1, 236484, Control_c, 0, 64, 41
1, 236497, Note_off_c, 0, 64, 0
1, 236499, Control_c, 0, 64, 0
1, 236506, Note_on_c, 0, 38, 56
1, 236511, Note_on_c, 0, 67, 53
1, 236535, Poly_aftertouch_c, 0, 64, 127
1, 236544, Control_c, 0, 64, 35
1, 236558, Control_c, 0, 64, 50
1, 236560, Poly_aftertouch_c, 0, 64, 0
1, 236569, Note_off_c, 0, 38, 62
1, 236573, Control_c, 0, 64, 61
1, 236588, Control_c, 0, 64, 66
1, 236600, Note_off_c, 0, 76, 58
1, 236603, Control_c, 0, 64, 68
1, 236618, Control_c, 0, 64, 70
1, 236632, Control_c, 0, 64, 72
1, 236645, Note_off_c, 0, 67, 60
1, 236647, Control_c, 0, 64, 73
1, 236662, Control_c, 0, 64, 75
1, 236676, Control_c, 0, 64, 76
1, 236691, Control_c, 0, 64, 77
1, 236706, Control_c, 0, 64, 78
1, 236721, Control_c, 0, 64, 78
1, 236790, Note_on_c, 0, 67, 69
1, 236829, Note_on_c, 0, 69, 28
1, 236839, Control_c, 0, 64, 79
1, 236875, Note_off_c, 0, 69, 54
1, 236905, Note_on_c, 0, 74, 65
1, 236908, Control_c, 0, 67, 124
1, 236937, Control_c, 0, 67, 122
1, 236963, Note_off_c, 0, 74, 64
1, 236967, Control_c, 0, 67, 120
1, 237011, Control_c, 0, 67, 117
1, 237024, Note_on_c, 0, 66, 77
1, 237026, Control_c, 0, 67, 115
1, 237057, Control_c, 0, 67, 111
1, 237057, Note_off_c, 0, 67, 55
1, 237071, Control_c, 0, 67, 108
1, 237086, Control_c, 0, 67, 103
1, 237101, Control_c, 0, 67, 90
1, 237115, Control_c, 0, 64, 79
1, 237115, Control_c, 0, 67, 71
1, 237130, Control_c, 0, 67, 53
1, 237145, Control_c, 0, 64, 80
1, 237145, Control_c, 0, 67, 0
1, 237189, Control_c, 0, 64, 78
1, 237195, Note_on_c, 0, 64, 84
1, 237204, Control_c, 0, 64, 73
1, 237219, Control_c, 0, 64, 66
1, 237234, Control_c, 0, 64, 61
1, 237235, Note_off_c, 0, 66, 55
1, 237249, Control_c, 0, 64, 59
1, 237263, Control_c, 0, 64, 60
1, 237278, Control_c, 0, 64, 63
1, 237293, Control_c, 0, 64, 66
1, 237307, Control_c, 0, 64, 69
1, 237322, Control_c, 0, 64, 71
1, 237337, Control_c, 0, 64, 72
1, 237352, Control_c, 0, 64, 74
1, 237367, Note_on_c, 0, 66, 75
1, 237367, Control_c, 0, 64, 75
1, 237369, Note_on_c, 0, 62, 65
1, 237377, Note_off_c, 0, 64, 61
1, 237381, Control_c, 0, 64, 76
1, 237396, Control_c, 0, 64, 77
1, 237411, Control_c, 0, 64, 77
1, 237426, Control_c, 0, 64, 78
1, 237432, Note_off_c, 0, 62, 62
1, 237471, Poly_aftertouch_c, 0, 57, 0
1, 237530, Note_on_c, 0, 61, 82
1, 237535, Note_off_c, 0, 66, 61
1, 237545, Control_c, 0, 64, 78
1, 237589, Control_c, 0, 64, 79
1, 237656, Control_c, 0, 64, 77
1, 237671, Control_c, 0, 64, 69
1, 237686, Control_c, 0, 64, 56
1, 237695, Note_off_c, 0, 61, 55
1, 237701, Control_c, 0, 64, 39
1, 237709, Note_on_c, 0, 39, 70
1, 237716, Control_c, 0, 64, 34
1, 237730, Control_c, 0, 64, 42
1, 237745, Control_c, 0, 64, 57
1, 237746, Note_off_c, 0, 39, 67
1, 237759, Note_on_c, 0, 60, 81
1, 237760, Control_c, 0, 64, 67
1, 237775, Control_c, 0, 64, 75
1, 237790, Control_c, 0, 64, 82
1, 237797, Note_off_c, 0, 60, 66
1, 237805, Control_c, 0, 64, 85
1, 237820, Control_c, 0, 64, 88
1, 237835, Control_c, 0, 64, 89
1, 237849, Control_c, 0, 64, 90
1, 237864, Control_c, 0, 64, 92
1, 237879, Control_c, 0, 64, 94
1, 237894, Control_c, 0, 64, 95
1, 237924, Control_c, 0, 64, 97
1, 237946, Note_on_c, 0, 63, 76
1, 237949, Note_on_c, 0, 91, 82
1, 237959, Note_on_c, 0, 79, 73
1, 237968, Control_c, 0, 64, 99
1, 238001, Note_off_c, 0, 79, 61
1, 238012, Control_c, 0, 64, 101
1, 238013, Note_off_c, 0, 91, 65
1, 238071, Control_c, 0, 64, 103
1, 238127, Note_on_c, 0, 93, 95
1, 238136, Note_on_c, 0, 60, 58
1, 238136, Note_on_c, 0, 81, 73
1, 238139, Note_off_c, 0, 63, 55
1, 238144, Note_on_c, 0, 70, 30
1, 238161, Note_off_c, 0, 60, 67
1, 238180, Note_off_c, 0, 70, 50
1, 238180, Note_off_c, 0, 93, 64
1, 238194, Note_off_c, 0, 81, 63
1, 238210, Poly_aftertouch_c, 0, 84, 0
1, 238309, Control_c, 0, 64, 94
1, 238321, Note_on_c, 0, 41, 61
1, 238323, Control_c, 0, 64, 76
1, 238330, Note_on_c, 0, 89, 80
1, 238338, Control_c, 0, 64, 58
1, 238360, Control_c, 0, 64, 0
1, 238361, Note_on_c, 0, 81, 35
1, 238367, Note_on_c, 0, 77, 41
1, 238419, Control_c, 0, 64, 48
1, 238432, Note_off_c, 0, 41, 64
1, 238434, Control_c, 0, 64, 62
1, 238436, Note_off_c, 0, 81, 48
1, 238449, Control_c, 0, 64, 67
1, 238464, Control_c, 0, 64, 72
1, 238468, Note_off_c, 0, 89, 61
1, 238479, Control_c, 0, 64, 75
1, 238494, Control_c, 0, 64, 77
1, 238509, Control_c, 0, 64, 79
1, 238524, Control_c, 0, 64, 81
1, 238533, Note_off_c, 0, 77, 37
1, 238539, Control_c, 0, 64, 83
1, 238552, Control_c, 0, 64, 84
1, 238567, Control_c, 0, 64, 85
1, 238582, Control_c, 0, 64, 85
1, 238593, Note_on_c, 0, 63, 66
1, 238612, Control_c, 0, 67, 37
1, 238626, Control_c, 0, 64, 86
1, 238626, Control_c, 0, 67, 53
1, 238641, Control_c, 0, 67, 64
1, 238654, Note_on_c, 0, 87, 79
1, 238656, Control_c, 0, 67, 70
1, 238670, Note_on_c, 0, 75, 61
1, 238670, Note_on_c, 0, 79, 58
1, 238671, Control_c, 0, 67, 73
1, 238685, Control_c, 0, 67, 73
1, 238702, Note_off_c, 0, 79, 64
1, 238710, Note_off_c, 0, 75, 57
1, 238715, Control_c, 0, 67, 71
1, 238730, Note_off_c, 0, 87, 64
1, 238730, Control_c, 0, 67, 69
1, 238745, Control_c, 0, 67, 67
1, 238747, Note_on_c, 0, 60, 57
1, 238755, Note_on_c, 0, 69, 19
1, 238755, Note_off_c, 0, 63, 62
1, 238759, Control_c, 0, 67, 65
1, 238774, Control_c, 0, 64, 86
1, 238774, Control_c, 0, 67, 64
1, 238777, Note_off_c, 0, 60, 65
1, 238789, Control_c, 0, 67, 62
1, 238798, Note_off_c, 0, 69, 53
1, 238804, Control_c, 0, 67, 60
1, 238819, Control_c, 0, 67, 58
1, 238829, Note_on_c, 0, 75, 69
1, 238833, Control_c, 0, 67, 58
1, 238843, Note_on_c, 0, 72, 54
1, 238848, Control_c, 0, 67, 57
1, 238863, Control_c, 0, 64, 86
1, 238863, Control_c, 0, 67, 56
1, 238865, Note_off_c, 0, 75, 63
1, 238868, Note_off_c, 0, 72, 54
1, 238878, Note_on_c, 0, 84, 74
1, 238878, Control_c, 0, 64, 83
1, 238893, Control_c, 0, 64, 69
1, 238893, Control_c, 0, 67, 56
1, 238908, Control_c, 0, 64, 51
1, 238908, Control_c, 0, 67, 55
1, 238923, Control_c, 0, 64, 0
1, 238927, Note_on_c, 0, 34, 73
1, 238928, Note_on_c, 0, 72, 66
1, 238934, Note_on_c, 0, 75, 69
1, 238938, Control_c, 0, 67, 54
1, 238967, Control_c, 0, 64, 44
1, 238967, Control_c, 0, 67, 53
1, 238982, Control_c, 0, 64, 61
1, 238982, Control_c, 0, 67, 52
1, 238991, Note_off_c, 0, 34, 62
1, 238995, Note_off_c, 0, 72, 58
1, 238997, Control_c, 0, 64, 69
1, 238997, Control_c, 0, 67, 50
1, 239012, Control_c, 0, 64, 74
1, 239012, Control_c, 0, 67, 49
1, 239014, Note_off_c, 0, 84, 64
1, 239026, Control_c, 0, 64, 76
1, 239026, Control_c, 0, 67, 47
1, 239041, Control_c, 0, 64, 78
1, 239041, Control_c, 0, 67, 45
1, 239048, Note_off_c, 0, 75, 60
1, 239056, Control_c, 0, 64, 81
1, 239056, Control_c, 0, 67, 43
1, 239070, Control_c, 0, 64, 83
1, 239070, Control_c, 0, 67, 41
1, 239085, Control_c, 0, 64, 85
1, 239085, Control_c, 0, 67, 39
1, 239107, Control_c, 0, 64, 87
1, 239107, Control_c, 0, 67, 39
1, 239122, Control_c, 0, 64, 88
1, 239137, Control_c, 0, 64, 89
1, 239152, Control_c, 0, 64, 89
1, 239152, Control_c, 0, 67, 38
1, 239167, Control_c, 0, 67, 37
1, 239167, Note_on_c, 0, 63, 75
1, 239181, Note_on_c, 0, 65, 66
1, 239182, Control_c, 0, 64, 90
1, 239197, Control_c, 0, 67, 0
1, 239211, Control_c, 0, 64, 90
1, 239241, Control_c, 0, 64, 91
1, 239263, Note_off_c, 0, 65, 34
1, 239265, Note_on_c, 0, 82, 83
1, 239276, Note_on_c, 0, 70, 69
1, 239283, Note_on_c, 0, 74, 65
1, 239322, Note_off_c, 0, 70, 59
1, 239331, Note_off_c, 0, 82, 63
1, 239334, Note_off_c, 0, 74, 64
1, 239358, Note_off_c, 0, 63, 55
1, 239361, Note_on_c, 0, 62, 77
1, 239517, Note_on_c, 0, 60, 80
1, 239531, Note_off_c, 0, 62, 61
1, 239664, Note_on_c, 0, 58, 80
1, 239671, Note_on_c, 0, 62, 81
1, 239679, Note_off_c, 0, 60, 55
1, 239707, Note_off_c, 0, 58, 62
1, 239829, Note_on_c, 0, 56, 90
1, 239876, Note_off_c, 0, 62, 61
1, 239930, Control_c, 0, 64, 90
1, 239945, Control_c, 0, 64, 84
1, 239960, Control_c, 0, 64, 69
1, 239975, Control_c, 0, 64, 48
1, 239990, Control_c, 0, 64, 0
1, 240005, Note_on_c, 0, 39, 81
1, 240029, Note_off_c, 0, 56, 56
1, 240049, Control_c, 0, 64, 47
1, 240061, Note_off_c, 0, 39, 63
1, 240062, Note_on_c, 0, 54, 87
1, 240064, Control_c, 0, 64, 61
1, 240079, Control_c, 0, 64, 66
1, 240094, Control_c, 0, 64, 71
1, 240100, Note_off_c, 0, 54, 66
1, 240109, Control_c, 0, 64, 75
1, 240124, Control_c, 0, 64, 79
1, 240139, Control_c, 0, 64, 83
1, 240154, Control_c, 0, 64, 87
1, 240169, Control_c, 0, 64, 90
1, 240184, Control_c, 0, 64, 92
1, 240198, Control_c, 0, 64, 94
1, 240213, Control_c, 0, 64, 95
1, 240243, Control_c, 0, 64, 98
1, 240272, Control_c, 0, 64, 102
1, 240279, Note_on_c, 0, 94, 98
1, 240287, Control_c, 0, 64, 105
1, 240293, Note_on_c, 0, 82, 74
1, 240294, Note_on_c, 0, 85, 76
1, 240302, Control_c, 0, 64, 109
1, 240317, Control_c, 0, 64, 117
1, 240331, Control_c, 0, 64, 127
1, 240374, Note_off_c, 0, 82, 58
1, 240376, Note_off_c, 0, 85, 62
1, 240397, Poly_aftertouch_c, 0, 65, 0
1, 240424, Note_off_c, 0, 94, 63
1, 240508, Note_on_c, 0, 96, 98
1, 240509, Note_on_c, 0, 73, 62
1, 240511, Note_on_c, 0, 84, 87
1, 240513, Note_on_c, 0, 63, 72
1, 240529, Note_off_c, 0, 73, 65
1, 240540, Note_off_c, 0, 63, 68
1, 240555, Note_off_c, 0, 96, 68
1, 240559, Note_off_c, 0, 84, 60
1, 240709, Control_c, 0, 64, 100
1, 240720, Note_on_c, 0, 92, 92
1, 240724, Note_on_c, 0, 44, 61
1, 240724, Control_c, 0, 64, 71
1, 240727, Note_on_c, 0, 80, 68
1, 240735, Note_on_c, 0, 84, 57
1, 240738, Control_c, 0, 64, 43
1, 240753, Control_c, 0, 64, 0
1, 240780, Note_off_c, 0, 84, 0
1, 240780, Note_on_c, 0, 84, 27
1, 240783, Control_c, 0, 64, 33
1, 240797, Note_off_c, 0, 44, 64
1, 240798, Control_c, 0, 64, 55
1, 240812, Control_c, 0, 64, 66
1, 240827, Control_c, 0, 64, 72
1, 240842, Control_c, 0, 64, 78
1, 240857, Control_c, 0, 64, 80
1, 240862, Note_off_c, 0, 84, 64
1, 240872, Control_c, 0, 64, 82
1, 240873, Note_off_c, 0, 92, 65
1, 240887, Control_c, 0, 64, 84
1, 240894, Note_off_c, 0, 80, 61
1, 240902, Control_c, 0, 64, 85
1, 240917, Control_c, 0, 64, 86
1, 240932, Control_c, 0, 64, 86
1, 240939, Note_on_c, 0, 66, 73
1, 240947, Control_c, 0, 64, 87
1, 241006, Control_c, 0, 64, 87
1, 241018, Note_on_c, 0, 90, 83
1, 241021, Control_c, 0, 67, 41
1, 241030, Note_on_c, 0, 82, 65
1, 241032, Note_on_c, 0, 78, 65
1, 241036, Control_c, 0, 67, 51
1, 241051, Control_c, 0, 64, 88
1, 241051, Control_c, 0, 67, 60
1, 241066, Control_c, 0, 67, 65
1, 241080, Control_c, 0, 64, 88
1, 241080, Control_c, 0, 67, 66
1, 241098, Note_off_c, 0, 82, 59
1, 241108, Note_off_c, 0, 90, 64
1, 241110, Control_c, 0, 67, 65
1, 241111, Note_off_c, 0, 78, 60
1, 241115, Note_on_c, 0, 72, 43
1, 241123, Note_on_c, 0, 63, 60
1, 241125, Control_c, 0, 64, 89
1, 241125, Control_c, 0, 67, 64
1, 241136, Note_off_c, 0, 66, 61
1, 241140, Control_c, 0, 67, 64
1, 241143, Note_off_c, 0, 72, 53
1, 241154, Control_c, 0, 67, 62
1, 241156, Note_off_c, 0, 63, 67
1, 241169, Control_c, 0, 67, 61
1, 241184, Control_c, 0, 67, 60
1, 241199, Control_c, 0, 67, 60
1, 241214, Control_c, 0, 67, 59
1, 241226, Note_on_c, 0, 78, 70
1, 241243, Control_c, 0, 67, 60
1, 241246, Note_on_c, 0, 75, 43
1, 241258, Control_c, 0, 67, 60
1, 241268, Note_off_c, 0, 78, 51
1, 241271, Note_off_c, 0, 75, 51
1, 241272, Control_c, 0, 64, 88
1, 241272, Control_c, 0, 67, 62
1, 241274, Note_on_c, 0, 87, 74
1, 241287, Control_c, 0, 64, 82
1, 241287, Control_c, 0, 67, 62
1, 241302, Control_c, 0, 64, 68
1, 241302, Control_c, 0, 67, 63
1, 241314, Note_on_c, 0, 78, 60
1, 241317, Control_c, 0, 64, 51
1, 241323, Note_on_c, 0, 75, 67
1, 241330, Note_on_c, 0, 37, 68
1, 241332, Control_c, 0, 64, 0
1, 241332, Control_c, 0, 67, 64
1, 241384, Control_c, 0, 64, 36
1, 241398, Control_c, 0, 64, 54
1, 241403, Note_off_c, 0, 37, 61
1, 241413, Control_c, 0, 64, 65
1, 241428, Control_c, 0, 64, 70
1, 241443, Control_c, 0, 64, 75
1, 241458, Control_c, 0, 64, 78
1, 241472, Control_c, 0, 64, 80
1, 241487, Control_c, 0, 64, 83
1, 241487, Control_c, 0, 67, 63
1, 241490, Note_off_c, 0, 87, 63
1, 241502, Control_c, 0, 64, 84
1, 241502, Control_c, 0, 67, 62
1, 241517, Control_c, 0, 64, 86
1, 241526, Note_off_c, 0, 75, 56
1, 241532, Control_c, 0, 64, 87
1, 241532, Control_c, 0, 67, 62
1, 241547, Control_c, 0, 64, 88
1, 241547, Control_c, 0, 67, 61
1, 241559, Note_off_c, 0, 78, 58
1, 241561, Control_c, 0, 64, 88
1, 241561, Control_c, 0, 67, 60
1, 241576, Control_c, 0, 67, 59
1, 241605, Note_on_c, 0, 66, 67
1, 241605, Control_c, 0, 67, 58
1, 241617, Note_on_c, 0, 68, 45
1, 241620, Control_c, 0, 67, 58
1, 241635, Control_c, 0, 67, 57
1, 241650, Control_c, 0, 64, 89
1, 241650, Control_c, 0, 67, 56
1, 241660, Note_off_c, 0, 68, 45
1, 241665, Control_c, 0, 67, 54
1, 241681, Control_c, 0, 67, 53
1, 241695, Control_c, 0, 67, 51
1, 241710, Control_c, 0, 67, 49
1, 241716, Note_on_c, 0, 85, 77
1, 241725, Control_c, 0, 67, 47
1, 241728, Note_on_c, 0, 77, 63
1, 241732, Note_on_c, 0, 73, 53
1, 241740, Control_c, 0, 67, 45
1, 241755, Control_c, 0, 67, 44
1, 241769, Control_c, 0, 67, 43
1, 241781, Note_off_c, 0, 85, 65
1, 241784, Control_c, 0, 67, 41
1, 241790, Note_off_c, 0, 77, 63
1, 241793, Note_off_c, 0, 73, 60
1, 241799, Control_c, 0, 67, 39
1, 241808, Note_off_c, 0, 66, 59
1, 241812, Note_on_c, 0, 65, 77
1, 241814, Control_c, 0, 67, 0
1, 241986, Note_on_c, 0, 63, 80
1, 241992, Control_c, 0, 64, 88
1, 242004, Note_off_c, 0, 65, 58
1, 242007, Control_c, 0, 64, 88
1, 242021, Control_c, 0, 64, 83
1, 242036, Control_c, 0, 64, 75
1, 242051, Control_c, 0, 64, 66
1, 242066, Control_c, 0, 64, 60
1, 242081, Control_c, 0, 64, 59
1, 242103, Control_c, 0, 64, 60
1, 242118, Control_c, 0, 64, 62
1, 242133, Control_c, 0, 64, 65
1, 242148, Control_c, 0, 64, 68
1, 242148, Control_c, 0, 67, 37
1, 242163, Control_c, 0, 64, 71
1, 242163, Control_c, 0, 67, 38
1, 242169, Note_on_c, 0, 61, 67
1, 242171, Note_on_c, 0, 65, 74
1, 242177, Control_c, 0, 64, 72
1, 242177, Control_c, 0, 67, 39
1, 242187, Note_off_c, 0, 63, 53
1, 242192, Control_c, 0, 64, 73
1, 242192, Control_c, 0, 67, 39
1, 242207, Control_c, 0, 64, 74
1, 242212, Note_on_c, 0, 56, 15
1, 242217, Note_off_c, 0, 61, 62
1, 242221, Control_c, 0, 64, 74
1, 242221, Control_c, 0, 67, 40
1, 242236, Control_c, 0, 64, 75
1, 242251, Control_c, 0, 64, 75
1, 242251, Control_c, 0, 67, 41
1, 242258, Note_off_c, 0, 56, 38
1, 242338, Note_off_c, 0, 65, 59
1, 242347, Note_on_c, 0, 60, 76
1, 242428, Control_c, 0, 67, 41
1, 242458, Control_c, 0, 67, 42
1, 242474, Control_c, 0, 67, 43
1, 242489, Control_c, 0, 67, 43
1, 242519, Control_c, 0, 67, 44
1, 242533, Control_c, 0, 64, 73
1, 242534, Note_off_c, 0, 60, 54
1, 242535, Note_on_c, 0, 43, 53
1, 242548, Control_c, 0, 64, 65
1, 242563, Control_c, 0, 64, 45
1, 242563, Control_c, 0, 67, 43
1, 242578, Control_c, 0, 64, 0
1, 242578, Control_c, 0, 67, 43
1, 242609, Note_on_c, 0, 59, 77
1, 242622, Control_c, 0, 64, 40
1, 242630, Note_off_c, 0, 43, 63
1, 242637, Control_c, 0, 64, 56
1, 242637, Control_c, 0, 67, 43
1, 242652, Control_c, 0, 64, 64
1, 242652, Control_c, 0, 67, 45
1, 242667, Control_c, 0, 64, 69
1, 242667, Control_c, 0, 67, 47
1, 242671, Note_off_c, 0, 59, 65
1, 242682, Control_c, 0, 64, 72
1, 242682, Control_c, 0, 67, 50
1, 242696, Control_c, 0, 64, 75
1, 242696, Control_c, 0, 67, 51
1, 242711, Control_c, 0, 64, 77
1, 242711, Control_c, 0, 67, 53
1, 242726, Control_c, 0, 64, 78
1, 242726, Control_c, 0, 67, 53
1, 242741, Control_c, 0, 64, 79
1, 242741, Control_c, 0, 67, 54
1, 242756, Control_c, 0, 64, 79
1, 242756, Control_c, 0, 67, 54
1, 242771, Control_c, 0, 67, 55
1, 242786, Control_c, 0, 64, 80
1, 242852, Note_on_c, 0, 89, 81
1, 242855, Note_on_c, 0, 61, 51
1, 242872, Note_on_c, 0, 80, 58
1, 242878, Note_on_c, 0, 77, 40
1, 242910, Note_off_c, 0, 77, 50
1, 242938, Note_off_c, 0, 80, 49
1, 242956, Note_off_c, 0, 89, 57
1, 242971, Control_c, 0, 64, 80
1, 243030, Control_c, 0, 67, 56
1, 243044, Control_c, 0, 67, 56
1, 243059, Control_c, 0, 67, 58
1, 243069, Note_on_c, 0, 59, 52
1, 243069, Note_on_c, 0, 91, 80
1, 243074, Control_c, 0, 67, 59
1, 243077, Note_off_c, 0, 61, 35
1, 243089, Control_c, 0, 67, 60
1, 243090, Note_on_c, 0, 79, 44
1, 243090, Note_on_c, 0, 82, 58
1, 243104, Control_c, 0, 67, 62
1, 243114, Note_off_c, 0, 79, 58
1, 243118, Control_c, 0, 67, 62
1, 243120, Note_off_c, 0, 82, 62
1, 243121, Note_off_c, 0, 91, 64
1, 243133, Control_c, 0, 67, 63
1, 243237, Control_c, 0, 67, 62
1, 243308, Note_on_c, 0, 87, 70
1, 243312, Control_c, 0, 64, 79
1, 243327, Control_c, 0, 64, 74
1, 243334, Note_on_c, 0, 65, 39
1, 243337, Note_on_c, 0, 79, 37
1, 243340, Note_on_c, 0, 75, 33
1, 243341, Control_c, 0, 64, 67
1, 243356, Control_c, 0, 64, 59
1, 243356, Control_c, 0, 67, 63
1, 243371, Control_c, 0, 64, 53
1, 243386, Control_c, 0, 64, 51
1, 243401, Control_c, 0, 64, 52
1, 243415, Control_c, 0, 64, 55
1, 243415, Control_c, 0, 67, 64
1, 243430, Control_c, 0, 64, 59
1, 243430, Control_c, 0, 67, 64
1, 243445, Control_c, 0, 64, 63
1, 243460, Control_c, 0, 64, 66
1, 243460, Control_c, 0, 67, 65
1, 243473, Note_off_c, 0, 79, 63
1, 243474, Control_c, 0, 64, 70
1, 243489, Control_c, 0, 64, 74
1, 243489, Control_c, 0, 67, 66
1, 243504, Control_c, 0, 64, 75
1, 243519, Control_c, 0, 64, 76
1, 243519, Control_c, 0, 67, 66
1, 243522, Note_off_c, 0, 87, 63
1, 243534, Control_c, 0, 64, 77
1, 243549, Control_c, 0, 64, 79
1, 243549, Control_c, 0, 67, 68
1, 243561, Note_off_c, 0, 65, 52
1, 243564, Control_c, 0, 64, 80
1, 243564, Control_c, 0, 67, 68
1, 243576, Note_off_c, 0, 75, 59
1, 243579, Control_c, 0, 64, 81
1, 243579, Control_c, 0, 67, 70
1, 243587, Note_on_c, 0, 67, 49
1, 243600, Control_c, 0, 64, 82
1, 243600, Control_c, 0, 67, 71
1, 243615, Control_c, 0, 64, 82
1, 243615, Control_c, 0, 67, 87
1, 243630, Control_c, 0, 64, 83
1, 243630, Control_c, 0, 67, 110
1, 243645, Control_c, 0, 64, 83
1, 243645, Control_c, 0, 67, 127
1, 243660, Control_c, 0, 64, 84
1, 243689, Control_c, 0, 64, 84
1, 243719, Control_c, 0, 64, 85
1, 243734, Note_on_c, 0, 85, 69
1, 243737, Note_off_c, 0, 67, 48
1, 243758, Note_on_c, 0, 73, 42
1, 243761, Note_on_c, 0, 77, 42
1, 243793, Control_c, 0, 64, 85
1, 243807, Note_off_c, 0, 77, 49
1, 243880, Note_off_c, 0, 85, 64
1, 243922, Note_on_c, 0, 71, 53
1, 243945, Note_off_c, 0, 73, 48
1, 243969, Note_off_c, 0, 71, 58
1, 244008, Note_off_c, 0, 59, 60
1, 244235, Note_on_c, 0, 70, 50
1, 244244, Note_on_c, 0, 74, 53
1, 244255, Note_on_c, 0, 78, 51
1, 244270, Note_off_c, 0, 70, 58
1, 244284, Control_c, 0, 64, 85
1, 244298, Control_c, 0, 64, 83
1, 244301, Note_on_c, 0, 82, 64
1, 244313, Control_c, 0, 64, 78
1, 244328, Control_c, 0, 64, 71
1, 244351, Control_c, 0, 64, 62
1, 244360, Note_on_c, 0, 70, 37
1, 244365, Note_on_c, 0, 33, 45
1, 244366, Control_c, 0, 64, 49
1, 244380, Control_c, 0, 64, 38
1, 244395, Control_c, 0, 64, 33
1, 244410, Control_c, 0, 64, 35
1, 244424, Control_c, 0, 64, 43
1, 244439, Control_c, 0, 64, 52
1, 244454, Control_c, 0, 64, 60
1, 244469, Control_c, 0, 64, 64
1, 244470, Note_off_c, 0, 33, 62
1, 244484, Control_c, 0, 64, 68
1, 244498, Control_c, 0, 64, 70
1, 244513, Control_c, 0, 64, 73
1, 244528, Control_c, 0, 64, 75
1, 244542, Control_c, 0, 64, 78
1, 244557, Control_c, 0, 64, 80
1, 244571, Control_c, 0, 64, 81
1, 244586, Control_c, 0, 64, 83
1, 244601, Control_c, 0, 64, 84
1, 244616, Control_c, 0, 64, 84
1, 244720, Control_c, 0, 64, 85
1, 244762, Note_off_c, 0, 70, 40
1, 244786, Note_off_c, 0, 82, 56
1, 244812, Note_on_c, 0, 67, 28
1, 244873, Poly_aftertouch_c, 0, 69, 127
1, 244929, Poly_aftertouch_c, 0, 69, 0
1, 244975, Note_on_c, 0, 81, 63
1, 244993, Note_on_c, 0, 69, 30
1, 245076, Control_c, 0, 64, 84
1, 245079, Note_off_c, 0, 81, 62
1, 245109, Note_on_c, 0, 66, 59
1, 245113, Note_off_c, 0, 69, 42
1, 245113, Note_off_c, 0, 78, 59
1, 245129, Note_off_c, 0, 74, 40
1, 245149, Note_off_c, 0, 67, 42
1, 245323, Note_on_c, 0, 64, 64
1, 245332, Note_off_c, 0, 66, 63
1, 245454, Control_c, 0, 64, 84
1, 245469, Control_c, 0, 64, 83
1, 245484, Control_c, 0, 64, 82
1, 245498, Control_c, 0, 64, 80
1, 245513, Control_c, 0, 64, 78
1, 245528, Note_on_c, 0, 61, 54
1, 245528, Control_c, 0, 64, 75
1, 245528, Note_on_c, 0, 62, 56
1, 245538, Note_off_c, 0, 64, 52
1, 245540, Note_on_c, 0, 66, 44
1, 245543, Control_c, 0, 64, 73
1, 245558, Control_c, 0, 64, 70
1, 245572, Control_c, 0, 64, 68
1, 245587, Control_c, 0, 64, 67
1, 245602, Control_c, 0, 64, 67
1, 245635, Note_off_c, 0, 62, 57
1, 245755, Note_on_c, 0, 60, 63
1, 245802, Note_off_c, 0, 61, 52
1, 246010, Control_c, 0, 64, 65
1, 246023, Note_on_c, 0, 43, 38
1, 246025, Control_c, 0, 64, 63
1, 246036, Note_off_c, 0, 60, 63
1, 246040, Control_c, 0, 64, 58
1, 246055, Control_c, 0, 64, 54
1, 246066, Note_on_c, 0, 58, 63
1, 246069, Control_c, 0, 64, 50
1, 246084, Control_c, 0, 64, 48
1, 246099, Control_c, 0, 64, 47
1, 246114, Control_c, 0, 64, 47
1, 246115, Note_off_c, 0, 66, 62
1, 246129, Control_c, 0, 64, 51
1, 246143, Control_c, 0, 64, 59
1, 246158, Control_c, 0, 64, 65
1, 246173, Control_c, 0, 64, 69
1, 246187, Note_off_c, 0, 58, 64
1, 246187, Control_c, 0, 64, 74
1, 246202, Control_c, 0, 64, 76
1, 246217, Control_c, 0, 64, 77
1, 246232, Control_c, 0, 64, 78
1, 246247, Control_c, 0, 64, 79
1, 246276, Control_c, 0, 64, 79
1, 246336, Control_c, 0, 64, 78
1, 246351, Control_c, 0, 64, 74
1, 246366, Control_c, 0, 64, 69
1, 246375, Note_on_c, 0, 81, 67
1, 246381, Control_c, 0, 64, 64
1, 246394, Note_on_c, 0, 58, 32
1, 246395, Control_c, 0, 64, 62
1, 246406, Note_on_c, 0, 69, 22
1, 246410, Control_c, 0, 64, 63
1, 246423, Note_on_c, 0, 72, 32
1, 246425, Control_c, 0, 64, 65
1, 246440, Control_c, 0, 64, 69
1, 246455, Control_c, 0, 64, 73
1, 246470, Control_c, 0, 64, 75
1, 246485, Control_c, 0, 64, 77
1, 246500, Control_c, 0, 64, 78
1, 246515, Control_c, 0, 64, 79
1, 246530, Control_c, 0, 64, 80
1, 246545, Control_c, 0, 64, 80
1, 246548, Note_off_c, 0, 81, 59
1, 246554, Note_off_c, 0, 58, 33
1, 246559, Control_c, 0, 64, 81
1, 246560, Note_off_c, 0, 69, 42
1, 246571, Note_off_c, 0, 72, 35
1, 246715, Control_c, 0, 64, 80
1, 246716, Note_on_c, 0, 79, 64
1, 246730, Control_c, 0, 64, 80
1, 246732, Note_on_c, 0, 67, 40
1, 246733, Note_on_c, 0, 70, 51
1, 246735, Note_on_c, 0, 50, 39
1, 246744, Control_c, 0, 64, 79
1, 246759, Control_c, 0, 64, 79
1, 246859, Note_off_c, 0, 70, 53
1, 246918, Note_off_c, 0, 79, 61
1, 246944, Note_off_c, 0, 43, 32
1, 246971, Note_off_c, 0, 67, 47
1, 247186, Note_on_c, 0, 45, 36
1, 247204, Control_c, 0, 64, 78
1, 247218, Control_c, 0, 64, 75
1, 247233, Control_c, 0, 64, 71
1, 247234, Note_on_c, 0, 78, 57
1, 247248, Control_c, 0, 64, 66
1, 247252, Note_off_c, 0, 50, 37
1, 247253, Note_on_c, 0, 66, 41
1, 247261, Note_on_c, 0, 69, 43
1, 247264, Control_c, 0, 64, 59
1, 247279, Control_c, 0, 64, 54
1, 247294, Control_c, 0, 64, 49
1, 247308, Control_c, 0, 64, 43
1, 247323, Control_c, 0, 64, 34
1, 247346, Control_c, 0, 64, 0
1, 247420, Control_c, 0, 64, 38
1, 247435, Control_c, 0, 64, 50
1, 247449, Control_c, 0, 64, 60
1, 247464, Control_c, 0, 64, 64
1, 247479, Control_c, 0, 64, 66
1, 247494, Control_c, 0, 64, 67
1, 247508, Note_off_c, 0, 45, 59
1, 247509, Control_c, 0, 64, 69
1, 247523, Control_c, 0, 64, 70
1, 247538, Control_c, 0, 64, 72
1, 247553, Control_c, 0, 64, 74
1, 247568, Control_c, 0, 64, 75
1, 247583, Control_c, 0, 64, 77
1, 247597, Control_c, 0, 64, 78
1, 247612, Control_c, 0, 64, 79
1, 247627, Control_c, 0, 64, 79
1, 247642, Control_c, 0, 64, 80
1, 247657, Control_c, 0, 64, 80
1, 247672, Control_c, 0, 64, 81
1, 247701, Control_c, 0, 64, 82
1, 247731, Control_c, 0, 64, 82
1, 247797, Note_on_c, 0, 61, 31
1, 247865, Note_off_c, 0, 78, 60
1, 247869, Note_off_c, 0, 69, 41
1, 247910, Note_off_c, 0, 66, 38
1, 248296, Note_on_c, 0, 76, 49
1, 248326, Note_on_c, 0, 64, 22
1, 248327, Note_on_c, 0, 67, 20
1, 248493, Note_off_c, 0, 64, 43
1, 248527, Note_off_c, 0, 67, 43
1, 248783, Note_on_c, 0, 57, 29
1, 248810, Note_on_c, 0, 67, 20
1, 248960, Note_off_c, 0, 67, 43
1, 249007, Note_off_c, 0, 61, 38
1, 249053, Note_off_c, 0, 57, 41
1, 249358, Note_off_c, 0, 76, 38
1, 250006, Control_c, 0, 64, 82
1, 250140, Control_c, 0, 64, 81
1, 250169, Control_c, 0, 64, 81
1, 250199, Control_c, 0, 64, 80
1, 250214, Control_c, 0, 64, 80
1, 250228, Control_c, 0, 64, 79
1, 250243, Control_c, 0, 64, 78
1, 250258, Control_c, 0, 64, 78
1, 250273, Control_c, 0, 64, 77
1, 250288, Control_c, 0, 64, 76
1, 250303, Control_c, 0, 64, 74
1, 250317, Control_c, 0, 64, 73
1, 250339, Control_c, 0, 64, 71
1, 250354, Control_c, 0, 64, 68
1, 250369, Control_c, 0, 64, 63
1, 250384, Control_c, 0, 64, 58
1, 250396, Note_on_c, 0, 26, 35
1, 250399, Control_c, 0, 64, 53
1, 250414, Control_c, 0, 64, 47
1, 250429, Control_c, 0, 64, 32
1, 250443, Control_c, 0, 64, 0
1, 250518, Control_c, 0, 64, 33
1, 250533, Control_c, 0, 64, 48
1, 250548, Control_c, 0, 64, 59
1, 250563, Control_c, 0, 64, 64
1, 250578, Control_c, 0, 64, 66
1, 250593, Control_c, 0, 64, 68
1, 250608, Control_c, 0, 64, 70
1, 250623, Control_c, 0, 64, 73
1, 250631, Note_off_c, 0, 26, 53
1, 250638, Control_c, 0, 64, 78
1, 250652, Control_c, 0, 64, 81
1, 250667, Control_c, 0, 64, 85
1, 250682, Control_c, 0, 64, 88
1, 250697, Control_c, 0, 64, 91
1, 250712, Control_c, 0, 64, 93
1, 250727, Control_c, 0, 64, 95
1, 250756, Control_c, 0, 64, 97
1, 251219, Note_on_c, 0, 74, 50
1, 251237, Note_on_c, 0, 62, 39
1, 251250, Note_on_c, 0, 67, 10
1, 251250, Note_on_c, 0, 71, 38
1, 251267, Note_on_c, 0, 69, 32
1, 251339, Note_off_c, 0, 62, 0
1, 251339, Note_on_c, 0, 62, 10
1, 251655, Note_on_c, 0, 66, 39
1, 251660, Note_on_c, 0, 57, 32
1, 251694, Note_off_c, 0, 67, 42
1, 251729, Note_off_c, 0, 62, 43
1, 251733, Note_off_c, 0, 69, 42
1, 251744, Note_off_c, 0, 71, 39
1, 251749, Note_off_c, 0, 74, 35
1, 251889, Note_on_c, 0, 74, 40
1, 251892, Note_on_c, 0, 62, 28
1, 251901, Note_off_c, 0, 57, 38
1, 251906, Note_on_c, 0, 71, 35
1, 251907, Note_on_c, 0, 67, 37
1, 251922, Note_on_c, 0, 69, 14
1, 251955, Note_off_c, 0, 66, 39
1, 252086, Note_on_c, 0, 66, 46
1, 252113, Note_off_c, 0, 62, 40
1, 252113, Note_off_c, 0, 67, 43
1, 252116, Note_on_c, 0, 57, 34
1, 252153, Note_off_c, 0, 71, 36
1, 252154, Note_off_c, 0, 74, 34
1, 252165, Note_off_c, 0, 69, 42
1, 252301, Note_on_c, 0, 74, 40
1, 252314, Note_on_c, 0, 62, 20
1, 252317, Note_on_c, 0, 71, 34
1, 252321, Note_on_c, 0, 67, 31
1, 252322, Note_off_c, 0, 57, 39
1, 252333, Note_on_c, 0, 69, 25
1, 252378, Note_off_c, 0, 66, 41
1, 252526, Note_on_c, 0, 66, 30
1, 252547, Note_off_c, 0, 62, 36
1, 252548, Note_on_c, 0, 57, 32
1, 252611, Note_off_c, 0, 67, 42
1, 252650, Note_off_c, 0, 69, 42
1, 252653, Note_off_c, 0, 71, 39
1, 252665, Note_off_c, 0, 74, 38
1, 252999, Note_on_c, 0, 74, 38
1, 253001, Note_on_c, 0, 71, 27
1, 253013, Note_on_c, 0, 67, 14
1, 253016, Note_on_c, 0, 62, 10
1, 253022, Note_on_c, 0, 69, 7
1, 253093, Note_off_c, 0, 57, 40
1, 253150, Note_off_c, 0, 66, 37
1, 253427, Note_on_c, 0, 66, 36
1, 253431, Note_on_c, 0, 57, 29
1, 253485, Note_off_c, 0, 57, 61
1, 253489, Note_off_c, 0, 62, 43
1, 253590, Note_off_c, 0, 69, 43
1, 253592, Note_off_c, 0, 66, 42
1, 253610, Note_off_c, 0, 71, 41
1, 253626, Note_off_c, 0, 74, 62
1, 253839, Control_c, 0, 64, 93
1, 253854, Control_c, 0, 64, 81
1, 253869, Control_c, 0, 64, 69
1, 253884, Control_c, 0, 64, 60
1, 253899, Control_c, 0, 64, 58
1, 253901, Note_on_c, 0, 26, 44
1, 253914, Control_c, 0, 64, 59
1, 253928, Control_c, 0, 64, 62
1, 253943, Control_c, 0, 64, 65
1, 253958, Control_c, 0, 64, 69
1, 253962, Note_off_c, 0, 26, 64
1, 253973, Control_c, 0, 64, 74
1, 253988, Control_c, 0, 64, 77
1, 254002, Control_c, 0, 64, 80
1, 254017, Control_c, 0, 64, 81
1, 254032, Control_c, 0, 64, 83
1, 254047, Control_c, 0, 64, 85
1, 254062, Control_c, 0, 64, 86
1, 254083, Control_c, 0, 64, 88
1, 254098, Control_c, 0, 64, 89
1, 254128, Control_c, 0, 64, 90
1, 254163, Note_on_c, 0, 76, 49
1, 254173, Note_off_c, 0, 67, 41
1, 254187, Note_on_c, 0, 74, 38
1, 254194, Note_on_c, 0, 69, 26
1, 254201, Note_on_c, 0, 62, 42
1, 254262, Control_c, 0, 64, 90
1, 254352, Note_on_c, 0, 67, 47
1, 254355, Note_off_c, 0, 62, 35
1, 254356, Note_off_c, 0, 76, 34
1, 254361, Note_off_c, 0, 74, 39
1, 254375, Note_off_c, 0, 69, 43
1, 254379, Note_on_c, 0, 70, 41
1, 254395, Control_c, 0, 64, 91
1, 254410, Note_off_c, 0, 70, 52
1, 254537, Note_off_c, 0, 67, 41
1, 254564, Note_on_c, 0, 78, 52
1, 254566, Note_on_c, 0, 76, 43
1, 254581, Note_on_c, 0, 69, 25
1, 254581, Note_on_c, 0, 74, 38
1, 254602, Note_off_c, 0, 78, 46
1, 254743, Note_off_c, 0, 76, 29
1, 254754, Note_on_c, 0, 70, 45
1, 254767, Note_on_c, 0, 67, 39
1, 254776, Note_off_c, 0, 74, 37
1, 254784, Note_off_c, 0, 69, 41
1, 254908, Note_off_c, 0, 70, 43
1, 254948, Note_on_c, 0, 62, 46
1, 254969, Note_on_c, 0, 76, 44
1, 254975, Note_off_c, 0, 67, 41
1, 254977, Note_on_c, 0, 74, 33
1, 254985, Note_on_c, 0, 69, 6
1, 255156, Note_off_c, 0, 62, 36
1, 255164, Note_on_c, 0, 67, 40
1, 255164, Note_off_c, 0, 76, 32
1, 255183, Note_on_c, 0, 70, 39
1, 255184, Note_off_c, 0, 74, 37
1, 255205, Note_off_c, 0, 69, 38
1, 255342, Note_off_c, 0, 70, 38
1, 255609, Note_on_c, 0, 78, 50
1, 255623, Note_on_c, 0, 76, 43
1, 255634, Note_on_c, 0, 74, 31
1, 255655, Poly_aftertouch_c, 0, 69, 127
1, 255669, Note_off_c, 0, 78, 49
1, 255696, Note_off_c, 0, 67, 33
1, 256008, Note_on_c, 0, 67, 17
1, 256035, Note_on_c, 0, 70, 43
1, 256084, Note_off_c, 0, 70, 60
1, 256086, Note_off_c, 0, 74, 40
1, 256101, Poly_aftertouch_c, 0, 69, 0
1, 256114, Note_off_c, 0, 76, 50
1, 256418, Control_c, 0, 64, 90
1, 256433, Control_c, 0, 64, 88
1, 256448, Control_c, 0, 64, 76
1, 256463, Control_c, 0, 64, 63
1, 256477, Control_c, 0, 64, 49
1, 256492, Control_c, 0, 64, 42
1, 256504, Note_on_c, 0, 26, 52
1, 256507, Control_c, 0, 64, 42
1, 256523, Control_c, 0, 64, 47
1, 256537, Control_c, 0, 64, 56
1, 256552, Control_c, 0, 64, 63
1, 256567, Control_c, 0, 64, 67
1, 256574, Note_off_c, 0, 26, 62
1, 256582, Control_c, 0, 64, 73
1, 256597, Control_c, 0, 64, 77
1, 256611, Control_c, 0, 64, 80
1, 256619, Note_off_c, 0, 67, 43
1, 256626, Control_c, 0, 64, 82
1, 256641, Control_c, 0, 64, 84
1, 256656, Control_c, 0, 64, 85
1, 256671, Control_c, 0, 64, 86
1, 256744, Note_on_c, 0, 74, 50
1, 256751, Note_on_c, 0, 62, 42
1, 256754, Note_on_c, 0, 71, 43
1, 256760, Note_on_c, 0, 67, 29
1, 256761, Note_on_c, 0, 69, 37
1, 256930, Note_on_c, 0, 66, 49
1, 256938, Note_off_c, 0, 67, 43
1, 256949, Note_on_c, 0, 57, 34
1, 256951, Note_off_c, 0, 62, 40
1, 256953, Control_c, 0, 64, 86
1, 256974, Note_off_c, 0, 69, 34
1, 256996, Note_off_c, 0, 74, 40
1, 257005, Note_off_c, 0, 71, 34
1, 257067, Note_off_c, 0, 57, 36
1, 257119, Note_on_c, 0, 74, 55
1, 257133, Note_on_c, 0, 71, 55
1, 257140, Note_on_c, 0, 69, 41
1, 257141, Note_on_c, 0, 67, 43
1, 257144, Note_on_c, 0, 62, 32
1, 257163, Note_off_c, 0, 66, 31
1, 257183, Control_c, 0, 64, 87
1, 257272, Control_c, 0, 64, 87
1, 257303, Note_off_c, 0, 62, 41
1, 257315, Note_on_c, 0, 66, 47
1, 257319, Note_on_c, 0, 57, 41
1, 257339, Note_off_c, 0, 74, 53
1, 257355, Note_off_c, 0, 67, 36
1, 257358, Note_off_c, 0, 69, 37
1, 257365, Note_off_c, 0, 71, 34
1, 257473, Note_off_c, 0, 57, 53
1, 257512, Note_on_c, 0, 71, 46
1, 257514, Note_on_c, 0, 74, 51
1, 257515, Note_on_c, 0, 67, 45
1, 257515, Note_off_c, 0, 66, 0
1, 257525, Note_on_c, 0, 62, 39
1, 257532, Note_on_c, 0, 69, 36
1, 257564, Poly_aftertouch_c, 0, 66, 0
1, 257742, Note_on_c, 0, 66, 53
1, 257744, Note_on_c, 0, 57, 39
1, 257749, Note_off_c, 0, 62, 39
1, 257802, Note_off_c, 0, 67, 33
1, 257833, Note_off_c, 0, 74, 25
1, 257847, Note_off_c, 0, 69, 37
1, 257853, Note_off_c, 0, 71, 35
1, 257962, Control_c, 0, 64, 88
1, 258006, Control_c, 0, 64, 88
1, 258021, Control_c, 0, 64, 89
1, 258036, Control_c, 0, 64, 89
1, 258050, Control_c, 0, 64, 90
1, 258065, Control_c, 0, 64, 91
1, 258080, Control_c, 0, 64, 91
1, 258094, Control_c, 0, 64, 92
1, 258109, Control_c, 0, 64, 93
1, 258139, Control_c, 0, 64, 93
1, 258154, Control_c, 0, 64, 94
1, 258183, Control_c, 0, 64, 94
1, 258184, Note_on_c, 0, 67, 51
1, 258190, Note_on_c, 0, 71, 48
1, 258191, Note_on_c, 0, 74, 56
1, 258198, Note_on_c, 0, 62, 40
1, 258198, Control_c, 0, 64, 95
1, 258205, Note_on_c, 0, 69, 43
1, 258213, Control_c, 0, 64, 95
1, 258257, Control_c, 0, 64, 98
1, 258273, Note_off_c, 0, 57, 37
1, 258287, Control_c, 0, 64, 100
1, 258308, Note_off_c, 0, 66, 36
1, 258331, Control_c, 0, 64, 103
1, 258361, Control_c, 0, 64, 105
1, 258391, Control_c, 0, 64, 107
1, 258391, Control_c, 0, 67, 124
1, 258406, Control_c, 0, 67, 112
1, 258421, Control_c, 0, 67, 100
1, 258436, Control_c, 0, 64, 109
1, 258436, Control_c, 0, 67, 89
1, 258451, Control_c, 0, 64, 111
1, 258451, Control_c, 0, 67, 77
1, 258466, Control_c, 0, 67, 62
1, 258480, Control_c, 0, 67, 45
1, 258495, Control_c, 0, 64, 114
1, 258495, Control_c, 0, 67, 0
1, 258525, Control_c, 0, 64, 117
1, 258555, Control_c, 0, 64, 119
1, 258606, Control_c, 0, 64, 122
1, 258621, Control_c, 0, 64, 124
1, 258651, Control_c, 0, 64, 127
1, 258671, Note_on_c, 0, 57, 39
1, 258683, Note_on_c, 0, 66, 53
1, 258728, Note_off_c, 0, 62, 46
1, 258759, Note_off_c, 0, 57, 60
1, 258797, Note_off_c, 0, 69, 50
1, 258833, Note_off_c, 0, 66, 55
1, 258841, Note_off_c, 0, 71, 36
1, 258861, Note_off_c, 0, 74, 62
1, 259003, Note_off_c, 0, 67, 43
1, 259274, Control_c, 0, 64, 124
1, 259289, Control_c, 0, 64, 112
1, 259303, Note_on_c, 0, 24, 71
1, 259303, Control_c, 0, 64, 92
1, 259326, Control_c, 0, 64, 75
1, 259341, Control_c, 0, 64, 60
1, 259355, Control_c, 0, 64, 44
1, 259370, Control_c, 0, 64, 31
1, 259400, Control_c, 0, 64, 37
1, 259415, Control_c, 0, 64, 50
1, 259429, Control_c, 0, 64, 59
1, 259444, Control_c, 0, 64, 65
1, 259459, Control_c, 0, 64, 71
1, 259474, Control_c, 0, 64, 77
1, 259483, Note_off_c, 0, 24, 64
1, 259489, Control_c, 0, 64, 83
1, 259503, Control_c, 0, 64, 88
1, 259518, Control_c, 0, 64, 96
1, 259533, Control_c, 0, 64, 102
1, 259547, Control_c, 0, 64, 112
1, 259562, Control_c, 0, 64, 127
1, 259778, Note_on_c, 0, 74, 78
1, 259796, Note_on_c, 0, 77, 65
1, 259808, Note_on_c, 0, 75, 52
1, 259813, Note_on_c, 0, 70, 29
1, 259815, Note_on_c, 0, 63, 42
1, 259859, Poly_aftertouch_c, 0, 67, 127
1, 259941, Poly_aftertouch_c, 0, 67, 0
1, 259978, Poly_aftertouch_c, 0, 67, 127
1, 260030, Note_off_c, 0, 70, 42
1, 260191, Note_on_c, 0, 72, 74
1, 260202, Note_on_c, 0, 57, 41
1, 260221, Note_off_c, 0, 63, 53
1, 260254, Note_off_c, 0, 75, 50
1, 260254, Note_off_c, 0, 77, 56
1, 260263, Note_off_c, 0, 74, 57
1, 260494, Note_on_c, 0, 74, 69
1, 260513, Note_on_c, 0, 70, 38
1, 260519, Note_on_c, 0, 63, 44
1, 260523, Note_on_c, 0, 75, 47
1, 260527, Note_off_c, 0, 57, 33
1, 260534, Note_on_c, 0, 77, 46
1, 260549, Note_off_c, 0, 72, 56
1, 260694, Note_off_c, 0, 70, 45
1, 260725, Poly_aftertouch_c, 0, 67, 0
1, 260764, Note_on_c, 0, 72, 60
1, 260768, Note_on_c, 0, 57, 42
1, 260781, Note_off_c, 0, 63, 37
1, 260793, Note_off_c, 0, 74, 53
1, 260799, Note_off_c, 0, 75, 38
1, 260799, Note_off_c, 0, 77, 38
1, 260965, Note_on_c, 0, 74, 55
1, 260967, Note_off_c, 0, 57, 40
1, 260975, Note_on_c, 0, 70, 44
1, 260981, Note_on_c, 0, 63, 44
1, 260989, Note_on_c, 0, 75, 35
1, 260991, Note_off_c, 0, 72, 52
1, 260994, Note_on_c, 0, 77, 42
1, 261154, Note_off_c, 0, 70, 43
1, 261215, Note_on_c, 0, 72, 54
1, 261218, Note_on_c, 0, 57, 40
1, 261226, Note_off_c, 0, 63, 37
1, 261257, Note_off_c, 0, 75, 37
1, 261259, Note_off_c, 0, 74, 38
1, 261267, Note_off_c, 0, 77, 34
1, 261652, Note_on_c, 0, 74, 48
1, 261667, Note_on_c, 0, 75, 43
1, 261672, Note_on_c, 0, 77, 47
1, 261673, Note_on_c, 0, 69, 43
1, 261680, Note_on_c, 0, 63, 36
1, 261691, Control_c, 0, 64, 110
1, 261703, Note_off_c, 0, 72, 36
1, 261706, Control_c, 0, 64, 99
1, 261721, Control_c, 0, 64, 92
1, 261735, Control_c, 0, 64, 88
1, 261750, Control_c, 0, 64, 86
1, 261765, Control_c, 0, 64, 86
1, 261846, Note_off_c, 0, 57, 36
1, 261884, Control_c, 0, 64, 86
1, 261908, Note_off_c, 0, 69, 34
1, 261913, Control_c, 0, 67, 42
1, 261928, Control_c, 0, 67, 61
1, 261942, Control_c, 0, 67, 82
1, 261957, Control_c, 0, 64, 87
1, 261957, Control_c, 0, 67, 105
1, 261972, Control_c, 0, 64, 87
1, 261972, Control_c, 0, 67, 127
1, 262016, Control_c, 0, 64, 88
1, 262061, Control_c, 0, 64, 88
1, 262142, Note_on_c, 0, 72, 46
1, 262144, Note_on_c, 0, 57, 33
1, 262150, Control_c, 0, 64, 89
1, 262186, Note_off_c, 0, 63, 40
1, 262205, Note_off_c, 0, 57, 51
1, 262215, Note_off_c, 0, 74, 37
1, 262229, Note_off_c, 0, 75, 37
1, 262283, Note_off_c, 0, 72, 57
1, 262290, Note_off_c, 0, 77, 37
1, 262588, Control_c, 0, 64, 88
1, 262633, Control_c, 0, 64, 85
1, 262647, Control_c, 0, 64, 76
1, 262662, Control_c, 0, 64, 64
1, 262677, Control_c, 0, 64, 49
1, 262688, Note_on_c, 0, 26, 45
1, 262691, Control_c, 0, 64, 40
1, 262706, Control_c, 0, 64, 39
1, 262721, Control_c, 0, 64, 44
1, 262736, Control_c, 0, 64, 54
1, 262751, Control_c, 0, 64, 61
1, 262761, Note_off_c, 0, 26, 63
1, 262765, Control_c, 0, 64, 66
1, 262780, Control_c, 0, 64, 70
1, 262795, Control_c, 0, 64, 74
1, 262810, Control_c, 0, 64, 77
1, 262825, Control_c, 0, 64, 80
1, 262839, Control_c, 0, 64, 82
1, 262854, Control_c, 0, 64, 84
1, 262869, Control_c, 0, 64, 86
1, 262883, Control_c, 0, 64, 87
1, 262898, Control_c, 0, 64, 88
1, 262943, Control_c, 0, 64, 88
1, 262946, Note_on_c, 0, 74, 55
1, 262958, Note_on_c, 0, 67, 43
1, 262973, Note_on_c, 0, 62, 36
1, 262976, Note_on_c, 0, 69, 31
1, 262976, Note_on_c, 0, 71, 37
1, 263154, Note_off_c, 0, 67, 43
1, 263162, Note_on_c, 0, 57, 42
1, 263162, Note_on_c, 0, 66, 45
1, 263173, Note_off_c, 0, 62, 40
1, 263192, Note_off_c, 0, 69, 42
1, 263202, Note_off_c, 0, 71, 39
1, 263207, Note_off_c, 0, 74, 28
1, 263337, Note_on_c, 0, 74, 51
1, 263341, Note_off_c, 0, 57, 33
1, 263354, Note_on_c, 0, 62, 36
1, 263357, Note_on_c, 0, 71, 36
1, 263361, Note_on_c, 0, 67, 38
1, 263369, Note_on_c, 0, 69, 26
1, 263385, Note_off_c, 0, 66, 40
1, 263544, Note_off_c, 0, 62, 40
1, 263557, Note_on_c, 0, 57, 39
1, 263563, Note_on_c, 0, 66, 42
1, 263567, Note_off_c, 0, 67, 43
1, 263611, Note_off_c, 0, 74, 37
1, 263616, Note_off_c, 0, 71, 38
1, 263617, Note_off_c, 0, 69, 41
1, 263740, Note_off_c, 0, 57, 31
1, 263755, Note_on_c, 0, 74, 37
1, 263761, Note_on_c, 0, 71, 36
1, 263772, Note_on_c, 0, 62, 29
1, 263777, Note_on_c, 0, 67, 37
1, 263780, Note_on_c, 0, 69, 30
1, 263842, Note_off_c, 0, 66, 41
1, 263984, Note_on_c, 0, 66, 35
1, 264001, Note_on_c, 0, 57, 33
1, 264034, Note_off_c, 0, 62, 38
1, 264068, Note_off_c, 0, 67, 43
1, 264082, Note_off_c, 0, 71, 39
1, 264084, Note_off_c, 0, 74, 39
1, 264088, Note_off_c, 0, 69, 42
1, 264457, Note_on_c, 0, 69, 30
1, 264458, Note_on_c, 0, 74, 44
1, 264464, Note_on_c, 0, 71, 35
1, 264469, Note_on_c, 0, 62, 17
1, 264475, Note_on_c, 0, 67, 9
1, 264537, Note_off_c, 0, 57, 38
1, 264592, Note_off_c, 0, 66, 37
1, 264988, Note_on_c, 0, 57, 27
1, 264995, Note_on_c, 0, 66, 31
1, 265041, Control_c, 0, 64, 89
1, 265093, Note_off_c, 0, 62, 39
1, 265131, Note_off_c, 0, 67, 42
1, 265139, Note_off_c, 0, 57, 38
1, 265199, Note_off_c, 0, 69, 42
1, 265206, Note_off_c, 0, 71, 39
1, 265213, Note_off_c, 0, 74, 41
1, 265277, Control_c, 0, 64, 89
1, 265277, Control_c, 0, 67, 119
1, 265292, Control_c, 0, 67, 110
1, 265315, Control_c, 0, 67, 102
1, 265330, Control_c, 0, 67, 95
1, 265345, Control_c, 0, 67, 88
1, 265359, Control_c, 0, 67, 81
1, 265374, Control_c, 0, 67, 71
1, 265389, Control_c, 0, 67, 60
1, 265404, Control_c, 0, 67, 47
1, 265419, Control_c, 0, 67, 0
1, 265516, Note_off_c, 0, 66, 40
1, 265745, Control_c, 0, 64, 89
1, 265819, Control_c, 0, 64, 88
1, 265834, Control_c, 0, 64, 84
1, 265849, Control_c, 0, 64, 76
1, 265863, Control_c, 0, 64, 66
1, 265867, Note_on_c, 0, 43, 61
1, 265878, Control_c, 0, 64, 54
1, 265893, Control_c, 0, 64, 43
1, 265907, Control_c, 0, 64, 37
1, 265922, Control_c, 0, 64, 36
1, 265937, Control_c, 0, 64, 39
1, 265952, Control_c, 0, 64, 43
1, 265967, Control_c, 0, 64, 50
1, 265981, Control_c, 0, 64, 57
1, 265996, Control_c, 0, 64, 61
1, 266011, Control_c, 0, 64, 64
1, 266026, Control_c, 0, 64, 67
1, 266040, Control_c, 0, 64, 71
1, 266063, Control_c, 0, 64, 75
1, 266078, Control_c, 0, 64, 79
1, 266093, Control_c, 0, 64, 83
1, 266108, Control_c, 0, 64, 88
1, 266121, Note_off_c, 0, 43, 58
1, 266122, Control_c, 0, 64, 93
1, 266137, Control_c, 0, 64, 100
1, 266152, Control_c, 0, 64, 114
1, 266167, Control_c, 0, 64, 127
1, 266410, Note_on_c, 0, 58, 31
1, 266497, Note_on_c, 0, 64, 60
1, 266697, Note_off_c, 0, 64, 62
1, 266749, Note_on_c, 0, 62, 38
1, 266795, Note_on_c, 0, 64, 72
1, 266824, Note_off_c, 0, 58, 41
1, 266937, Note_off_c, 0, 64, 63
1, 267006, Note_on_c, 0, 58, 38
1, 267009, Note_on_c, 0, 66, 29
1, 267027, Note_on_c, 0, 64, 72
1, 267041, Note_off_c, 0, 62, 35
1, 267161, Note_off_c, 0, 64, 64
1, 267189, Note_on_c, 0, 62, 39
1, 267196, Note_off_c, 0, 66, 36
1, 267244, Note_on_c, 0, 64, 78
1, 267307, Note_off_c, 0, 62, 59
1, 267326, Note_on_c, 0, 66, 42
1, 267329, Note_off_c, 0, 58, 42
1, 267362, Note_off_c, 0, 66, 62
1, 267414, Note_off_c, 0, 64, 62
1, 267482, Note_on_c, 0, 64, 79
1, 267511, Poly_aftertouch_c, 0, 61, 127
1, 267536, Poly_aftertouch_c, 0, 61, 0
1, 267560, Poly_aftertouch_c, 0, 70, 127
1, 267657, Poly_aftertouch_c, 0, 62, 127
1, 267698, Poly_aftertouch_c, 0, 70, 0
1, 267715, Note_off_c, 0, 64, 61
1, 267731, Note_on_c, 0, 66, 44
1, 267798, Poly_aftertouch_c, 0, 62, 0
1, 267821, Note_on_c, 0, 64, 72
1, 267946, Note_on_c, 0, 70, 42
1, 267948, Note_on_c, 0, 62, 29
1, 267948, Note_off_c, 0, 66, 51
1, 267986, Note_off_c, 0, 62, 51
1, 268221, Note_off_c, 0, 70, 42
1, 268259, Note_on_c, 0, 66, 33
1, 268267, Note_on_c, 0, 72, 25
1, 268370, Note_off_c, 0, 66, 52
1, 268378, Note_off_c, 0, 72, 56
1, 268803, Note_on_c, 0, 62, 65
1, 268803, Note_on_c, 0, 77, 30
1, 268810, Note_on_c, 0, 79, 27
1, 268829, Note_on_c, 0, 70, 32
1, 268869, Note_off_c, 0, 79, 52
1, 268902, Note_off_c, 0, 64, 58
1, 268918, Note_off_c, 0, 70, 46
1, 268923, Note_off_c, 0, 77, 44
1, 269806, Note_on_c, 0, 38, 43
1, 269838, Control_c, 0, 64, 122
1, 269852, Control_c, 0, 64, 106
1, 269865, Note_on_c, 0, 58, 69
1, 269867, Control_c, 0, 64, 95
1, 269868, Note_off_c, 0, 62, 61
1, 269882, Control_c, 0, 64, 84
1, 269897, Control_c, 0, 64, 73
1, 269912, Control_c, 0, 64, 61
1, 269926, Note_off_c, 0, 58, 63
1, 269927, Control_c, 0, 64, 44
1, 269941, Note_on_c, 0, 60, 64
1, 269942, Control_c, 0, 64, 0
1, 270006, Note_off_c, 0, 60, 63
1, 270018, Note_on_c, 0, 58, 67
1, 270064, Note_off_c, 0, 58, 61
1, 270105, Note_on_c, 0, 57, 66
1, 270237, Control_c, 0, 64, 50
1, 270252, Control_c, 0, 64, 62
1, 270267, Control_c, 0, 64, 66
1, 270282, Control_c, 0, 64, 72
1, 270297, Control_c, 0, 64, 79
1, 270297, Note_off_c, 0, 38, 54
1, 270312, Control_c, 0, 64, 88
1, 270326, Control_c, 0, 64, 102
1, 270341, Control_c, 0, 64, 120
1, 270356, Control_c, 0, 64, 127
1, 270461, Control_c, 0, 67, 51
1, 270475, Control_c, 0, 67, 71
1, 270484, Note_off_c, 0, 57, 56
1, 270490, Control_c, 0, 67, 91
1, 270505, Control_c, 0, 67, 109
1, 270520, Control_c, 0, 67, 122
1, 270535, Control_c, 0, 67, 127
1, 270596, Note_on_c, 0, 68, 33
1, 270601, Note_on_c, 0, 69, 47
1, 270629, Note_off_c, 0, 68, 46
1, 270642, Note_on_c, 0, 57, 5
1, 270757, Note_off_c, 0, 57, 35
1, 270774, Note_off_c, 0, 69, 37
1, 270783, Note_on_c, 0, 66, 50
1, 270783, Note_on_c, 0, 62, 46
1, 270933, Note_off_c, 0, 62, 37
1, 270971, Note_off_c, 0, 66, 30
1, 270974, Note_on_c, 0, 67, 44
1, 270977, Note_on_c, 0, 57, 30
1, 270979, Note_on_c, 0, 69, 37
1, 271059, Note_off_c, 0, 69, 45
1, 271066, Note_off_c, 0, 57, 31
1, 271124, Note_off_c, 0, 67, 35
1, 271140, Note_on_c, 0, 66, 29
1, 271164, Note_on_c, 0, 62, 47
1, 271270, Note_off_c, 0, 66, 36
1, 271371, Note_off_c, 0, 62, 33
1, 271381, Note_on_c, 0, 67, 37
1, 271388, Note_on_c, 0, 69, 41
1, 271397, Note_on_c, 0, 57, 33
1, 271523, Note_off_c, 0, 57, 37
1, 271546, Note_off_c, 0, 67, 35
1, 271820, Note_on_c, 0, 62, 42
1, 271827, Note_on_c, 0, 66, 34
1, 271927, Note_off_c, 0, 66, 48
1, 271936, Note_off_c, 0, 62, 62
1, 271936, Note_off_c, 0, 69, 60
1, 272351, Note_on_c, 0, 74, 48
1, 272374, Note_on_c, 0, 66, 29
1, 272378, Note_on_c, 0, 73, 42
1, 272380, Control_c, 0, 67, 114
1, 272386, Note_on_c, 0, 69, 31
1, 272395, Control_c, 0, 67, 93
1, 272410, Control_c, 0, 67, 79
1, 272425, Control_c, 0, 67, 70
1, 272440, Control_c, 0, 67, 67
1, 272455, Control_c, 0, 67, 66
1, 272470, Control_c, 0, 67, 65
1, 272499, Control_c, 0, 67, 64
1, 272514, Control_c, 0, 67, 64
1, 272529, Control_c, 0, 67, 63
1, 272555, Note_off_c, 0, 66, 44
1, 272558, Control_c, 0, 67, 62
1, 272573, Control_c, 0, 67, 61
1, 272588, Control_c, 0, 67, 60
1, 272602, Control_c, 0, 67, 60
1, 272617, Control_c, 0, 67, 59
1, 272632, Control_c, 0, 67, 58
1, 272647, Control_c, 0, 67, 43
1, 272662, Control_c, 0, 67, 0
1, 272676, Note_off_c, 0, 69, 42
1, 272781, Note_off_c, 0, 73, 38
1, 272783, Note_off_c, 0, 74, 60
1, 273021, Note_on_c, 0, 36, 85
1, 273041, Control_c, 0, 64, 91
1, 273056, Control_c, 0, 64, 67
1, 273071, Control_c, 0, 64, 50
1, 273086, Control_c, 0, 64, 39
1, 273100, Control_c, 0, 64, 43
1, 273115, Control_c, 0, 64, 57
1, 273130, Control_c, 0, 64, 67
1, 273145, Control_c, 0, 64, 78
1, 273160, Control_c, 0, 64, 91
1, 273174, Control_c, 0, 64, 103
1, 273189, Control_c, 0, 64, 127
1, 273194, Note_off_c, 0, 36, 62
1, 273415, Note_on_c, 0, 60, 59
1, 273489, Note_on_c, 0, 69, 83
1, 273714, Note_off_c, 0, 69, 62
1, 273744, Note_on_c, 0, 63, 67
1, 273783, Note_off_c, 0, 60, 46
1, 273792, Note_on_c, 0, 69, 93
1, 273930, Note_off_c, 0, 69, 62
1, 273978, Note_on_c, 0, 67, 51
1, 273992, Note_on_c, 0, 69, 92
1, 273995, Note_on_c, 0, 60, 53
1, 274014, Note_off_c, 0, 63, 53
1, 274144, Note_off_c, 0, 69, 62
1, 274158, Note_on_c, 0, 63, 61
1, 274160, Note_off_c, 0, 60, 61
1, 274163, Note_off_c, 0, 67, 27
1, 274216, Note_on_c, 0, 69, 96
1, 274321, Note_off_c, 0, 63, 60
1, 274330, Note_on_c, 0, 67, 53
1, 274333, Note_on_c, 0, 60, 60
1, 274366, Note_off_c, 0, 67, 63
1, 274370, Note_off_c, 0, 60, 64
1, 274422, Note_off_c, 0, 69, 64
1, 274482, Note_on_c, 0, 69, 95
1, 274500, Note_on_c, 0, 63, 65
1, 274501, Note_on_c, 0, 72, 61
1, 274665, Note_off_c, 0, 72, 34
1, 274768, Note_on_c, 0, 67, 66
1, 274783, Note_off_c, 0, 63, 56
1, 274804, Note_off_c, 0, 69, 63
1, 274857, Note_on_c, 0, 69, 88
1, 274978, Note_off_c, 0, 67, 63
1, 274995, Note_on_c, 0, 72, 65
1, 275000, Note_on_c, 0, 63, 54
1, 275043, Note_off_c, 0, 63, 62
1, 275272, Note_off_c, 0, 72, 64
1, 275290, Note_on_c, 0, 74, 69
1, 275298, Note_on_c, 0, 67, 58
1, 275372, Note_off_c, 0, 67, 61
1, 275397, Note_off_c, 0, 74, 62
1, 275904, Note_on_c, 0, 81, 56
1, 275904, Note_on_c, 0, 67, 85
1, 275909, Note_on_c, 0, 75, 53
1, 275912, Note_on_c, 0, 72, 54
1, 275957, Note_off_c, 0, 81, 62
1, 275958, Note_off_c, 0, 69, 52
1, 275985, Note_off_c, 0, 75, 61
1, 275990, Note_off_c, 0, 72, 59
1, 277138, Note_on_c, 0, 38, 64
1, 277158, Note_on_c, 0, 63, 86
1, 277171, Control_c, 0, 64, 90
1, 277185, Control_c, 0, 64, 68
1, 277200, Control_c, 0, 64, 49
1, 277215, Control_c, 0, 64, 0
1, 277223, Note_off_c, 0, 67, 62
1, 277645, Note_on_c, 0, 65, 71
1, 277653, Note_off_c, 0, 63, 61
1, 277733, Note_off_c, 0, 65, 61
1, 277789, Note_on_c, 0, 63, 71
1, 277878, Note_off_c, 0, 63, 60
1, 277940, Note_on_c, 0, 62, 64
1, 278089, Control_c, 0, 64, 32
1, 278103, Control_c, 0, 64, 49
1, 278103, Control_c, 0, 67, 39
1, 278118, Control_c, 0, 64, 60
1, 278118, Control_c, 0, 67, 51
1, 278133, Control_c, 0, 64, 65
1, 278133, Control_c, 0, 67, 61
1, 278148, Control_c, 0, 64, 69
1, 278148, Control_c, 0, 67, 68
1, 278163, Control_c, 0, 64, 74
1, 278163, Control_c, 0, 67, 71
1, 278173, Note_off_c, 0, 38, 63
1, 278177, Control_c, 0, 64, 79
1, 278177, Control_c, 0, 67, 71
1, 278192, Control_c, 0, 64, 87
1, 278192, Control_c, 0, 67, 73
1, 278207, Control_c, 0, 64, 95
1, 278207, Control_c, 0, 67, 74
1, 278221, Control_c, 0, 64, 103
1, 278221, Control_c, 0, 67, 76
1, 278236, Control_c, 0, 64, 117
1, 278236, Control_c, 0, 67, 90
1, 278251, Control_c, 0, 64, 127
1, 278251, Control_c, 0, 67, 118
1, 278266, Control_c, 0, 67, 127
1, 278573, Note_off_c, 0, 62, 52
1, 278581, Note_on_c, 0, 69, 40
1, 278583, Note_on_c, 0, 67, 39
1, 278584, Note_on_c, 0, 57, 27
1, 278730, Note_off_c, 0, 57, 20
1, 278752, Note_off_c, 0, 69, 31
1, 278788, Note_on_c, 0, 66, 36
1, 278796, Note_on_c, 0, 62, 38
1, 278811, Note_off_c, 0, 67, 35
1, 278860, Note_off_c, 0, 66, 50
1, 278869, Note_off_c, 0, 62, 47
1, 278989, Note_on_c, 0, 67, 28
1, 279006, Note_on_c, 0, 69, 31
1, 279028, Poly_aftertouch_c, 0, 57, 127
1, 279111, Note_off_c, 0, 67, 40
1, 279114, Poly_aftertouch_c, 0, 57, 0
1, 279189, Note_off_c, 0, 69, 30
1, 279199, Note_on_c, 0, 62, 36
1, 279216, Note_on_c, 0, 66, 20
1, 279266, Note_off_c, 0, 66, 46
1, 279427, Note_on_c, 0, 67, 39
1, 279431, Note_on_c, 0, 69, 36
1, 279433, Note_off_c, 0, 62, 16
1, 279442, Note_on_c, 0, 57, 33
1, 279523, Note_off_c, 0, 57, 49
1, 279577, Note_off_c, 0, 67, 36
1, 279862, Note_on_c, 0, 62, 36
1, 279866, Note_on_c, 0, 66, 29
1, 279913, Note_off_c, 0, 69, 59
1, 279920, Note_off_c, 0, 62, 60
1, 279946, Note_off_c, 0, 66, 54
1, 280265, Note_on_c, 0, 74, 45
1, 280277, Note_on_c, 0, 66, 27
1, 280281, Note_on_c, 0, 73, 24
1, 280311, Poly_aftertouch_c, 0, 69, 127
1, 280324, Note_off_c, 0, 66, 50
1, 280363, Poly_aftertouch_c, 0, 69, 0
1, 280456, Note_off_c, 0, 74, 62
1, 280655, Note_on_c, 0, 62, 40
1, 280836, Note_off_c, 0, 73, 41
1, 280839, Note_on_c, 0, 71, 43
1, 280844, Note_on_c, 0, 69, 36
1, 280971, Note_off_c, 0, 69, 37
1, 281037, Note_on_c, 0, 73, 41
1, 281045, Note_on_c, 0, 74, 37
1, 281050, Note_on_c, 0, 66, 36
1, 281055, Note_off_c, 0, 71, 38
1, 281090, Note_off_c, 0, 74, 44
1, 281203, Note_off_c, 0, 66, 38
1, 281221, Note_on_c, 0, 69, 43
1, 281227, Note_on_c, 0, 71, 47
1, 281228, Note_off_c, 0, 73, 40
1, 281368, Note_off_c, 0, 69, 28
1, 281412, Note_on_c, 0, 74, 40
1, 281423, Note_on_c, 0, 73, 34
1, 281423, Note_off_c, 0, 71, 41
1, 281455, Note_off_c, 0, 74, 46
1, 281472, Poly_aftertouch_c, 0, 66, 127
1, 281502, Poly_aftertouch_c, 0, 66, 0
1, 281573, Note_on_c, 0, 71, 52
1, 281593, Note_on_c, 0, 69, 39
1, 281597, Note_off_c, 0, 73, 29
1, 281600, Note_off_c, 0, 71, 62
1, 281622, Note_off_c, 0, 69, 56
1, 281827, Note_on_c, 0, 81, 39
1, 281842, Note_on_c, 0, 74, 36
1, 281845, Note_on_c, 0, 78, 27
1, 281875, Poly_aftertouch_c, 0, 73, 0
1, 281901, Poly_aftertouch_c, 0, 73, 0
1, 281927, Note_off_c, 0, 74, 47
1, 282238, Note_on_c, 0, 74, 49
1, 282263, Note_on_c, 0, 69, 29
1, 282306, Note_off_c, 0, 74, 63
1, 282329, Note_off_c, 0, 69, 49
1, 282336, Note_off_c, 0, 81, 62
1, 282345, Note_off_c, 0, 62, 35
1, 282347, Note_off_c, 0, 78, 48
1, 282695, Note_on_c, 0, 85, 45
1, 282695, Note_on_c, 0, 86, 54
1, 282706, Note_on_c, 0, 78, 35
1, 282724, Note_on_c, 0, 81, 35
1, 282781, Note_off_c, 0, 78, 57
1, 282807, Note_off_c, 0, 81, 46
1, 282938, Note_off_c, 0, 86, 61
1, 282979, Note_off_c, 0, 85, 63
1, 283309, Note_on_c, 0, 93, 64
1, 283314, Note_on_c, 0, 74, 40
1, 283321, Note_on_c, 0, 85, 41
1, 283322, Note_on_c, 0, 83, 38
1, 283324, Note_on_c, 0, 90, 50
1, 283604, Note_on_c, 0, 86, 56
1, 283618, Note_on_c, 0, 81, 42
1, 283627, Note_off_c, 0, 83, 44
1, 283646, Note_off_c, 0, 93, 53
1, 283663, Note_off_c, 0, 90, 34
1, 283678, Note_off_c, 0, 85, 43
1, 283841, Note_on_c, 0, 93, 56
1, 283844, Note_off_c, 0, 86, 54
1, 283845, Note_on_c, 0, 85, 34
1, 283850, Note_off_c, 0, 81, 57
1, 283857, Note_on_c, 0, 90, 40
1, 283860, Note_on_c, 0, 83, 19
1, 284101, Note_off_c, 0, 83, 37
1, 284103, Note_on_c, 0, 86, 51
1, 284104, Note_on_c, 0, 81, 41
1, 284116, Note_off_c, 0, 93, 53
1, 284143, Note_off_c, 0, 85, 37
1, 284152, Note_off_c, 0, 90, 36
1, 284358, Note_on_c, 0, 93, 45
1, 284359, Note_off_c, 0, 81, 54
1, 284361, Note_on_c, 0, 90, 39
1, 284371, Note_on_c, 0, 85, 32
1, 284383, Note_on_c, 0, 83, 7
1, 284384, Note_off_c, 0, 86, 33
1, 284614, Note_on_c, 0, 86, 41
1, 284614, Note_off_c, 0, 83, 39
1, 284625, Note_on_c, 0, 81, 28
1, 284661, Note_off_c, 0, 90, 31
1, 284668, Note_off_c, 0, 93, 33
1, 284670, Note_off_c, 0, 85, 39
1, 284899, Note_on_c, 0, 93, 43
1, 284915, Note_on_c, 0, 85, 30
1, 284919, Note_on_c, 0, 90, 34
1, 284948, Poly_aftertouch_c, 0, 83, 127
1, 284950, Note_off_c, 0, 81, 43
1, 284984, Note_off_c, 0, 86, 42
1, 285203, Note_on_c, 0, 86, 39
1, 285213, Note_on_c, 0, 81, 28
1, 285259, Poly_aftertouch_c, 0, 83, 0
1, 285261, Note_off_c, 0, 85, 36
1, 285284, Note_off_c, 0, 93, 39
1, 285291, Note_off_c, 0, 90, 35
1, 285530, Note_on_c, 0, 93, 36
1, 285544, Note_on_c, 0, 90, 32
1, 285547, Note_on_c, 0, 85, 21
1, 285577, Poly_aftertouch_c, 0, 83, 127
1, 285594, Note_off_c, 0, 81, 42
1, 285624, Note_off_c, 0, 86, 43
1, 285945, Note_on_c, 0, 86, 35
1, 285953, Note_on_c, 0, 81, 26
1, 286021, Note_off_c, 0, 85, 38
1, 286049, Poly_aftertouch_c, 0, 83, 0
1, 286095, Note_off_c, 0, 90, 35
1, 286099, Note_off_c, 0, 93, 41
1, 286416, Note_on_c, 0, 85, 29
1, 286417, Note_on_c, 0, 93, 34
1, 286432, Note_on_c, 0, 83, 6
1, 286436, Note_on_c, 0, 90, 32
1, 286525, Note_off_c, 0, 81, 42
1, 286545, Note_off_c, 0, 86, 33
1, 286823, Note_off_c, 0, 85, 34
1, 287195, Note_on_c, 0, 81, 25
1, 287207, Note_on_c, 0, 86, 31
1, 287457, Note_off_c, 0, 81, 43
1, 287495, Note_off_c, 0, 83, 37
1, 287511, Note_off_c, 0, 74, 40
1, 287732, Note_off_c, 0, 86, 36
1, 287839, Note_off_c, 0, 90, 25
1, 288009, Note_off_c, 0, 93, 51
1, 288183, Note_on_c, 0, 105, 97
1, 288188, Note_on_c, 0, 93, 92
1, 288191, Note_on_c, 0, 90, 85
1, 288192, Note_on_c, 0, 98, 90
1, 288194, Control_c, 0, 64, 72
1, 288203, Note_on_c, 0, 86, 70
1, 288209, Control_c, 0, 64, 37
1, 288209, Control_c, 0, 67, 109
1, 288214, Note_off_c, 0, 98, 68
1, 288221, Note_off_c, 0, 93, 63
1, 288224, Note_off_c, 0, 90, 62
1, 288224, Control_c, 0, 64, 0
1, 288224, Control_c, 0, 67, 49
1, 288225, Note_off_c, 0, 105, 66
1, 288227, Note_off_c, 0, 86, 69
1, 288239, Control_c, 0, 67, 0
1, 288303, Note_on_c, 0, 96, 83
1, 288340, Note_off_c, 0, 96, 64
1, 288416, Note_on_c, 0, 98, 73
1, 288444, Note_off_c, 0, 98, 69
1, 288513, Note_on_c, 0, 100, 86
1, 288531, Note_on_c, 0, 88, 68
1, 288533, Note_on_c, 0, 84, 61
1, 288534, Note_on_c, 0, 91, 56
1, 288547, Note_on_c, 0, 95, 39
1, 288547, Note_off_c, 0, 88, 68
1, 288555, Note_off_c, 0, 91, 56
1, 288558, Note_off_c, 0, 84, 67
1, 288566, Note_off_c, 0, 100, 67
1, 288576, Note_off_c, 0, 95, 57
1, 288635, Note_on_c, 0, 98, 78
1, 288667, Note_off_c, 0, 98, 64
1, 288751, Note_on_c, 0, 96, 65
1, 288776, Note_off_c, 0, 96, 68
1, 288847, Note_on_c, 0, 98, 85
1, 288862, Note_on_c, 0, 86, 69
1, 288864, Note_on_c, 0, 88, 62
1, 288875, Note_off_c, 0, 98, 66
1, 288877, Note_off_c, 0, 86, 67
1, 288883, Note_off_c, 0, 88, 64
1, 288966, Note_on_c, 0, 84, 73
1, 288990, Note_off_c, 0, 84, 67
1, 289078, Note_on_c, 0, 86, 66
1, 289104, Note_off_c, 0, 86, 69
1, 289180, Note_on_c, 0, 88, 79
1, 289185, Note_on_c, 0, 76, 60
1, 289186, Note_on_c, 0, 79, 47
1, 289190, Note_on_c, 0, 83, 52
1, 289193, Note_on_c, 0, 72, 49
1, 289201, Note_off_c, 0, 88, 67
1, 289204, Note_off_c, 0, 76, 63
1, 289210, Note_off_c, 0, 79, 60
1, 289213, Note_off_c, 0, 83, 59
1, 289216, Note_off_c, 0, 72, 57
1, 289300, Note_on_c, 0, 86, 70
1, 289323, Note_off_c, 0, 86, 70
1, 289399, Note_on_c, 0, 84, 73
1, 289425, Note_off_c, 0, 84, 65
1, 289511, Note_on_c, 0, 86, 76
1, 289512, Note_on_c, 0, 74, 78
1, 289526, Note_on_c, 0, 78, 45
1, 289531, Note_on_c, 0, 81, 44
1, 289531, Note_off_c, 0, 86, 73
1, 289533, Note_off_c, 0, 74, 72
1, 289552, Note_off_c, 0, 81, 43
1, 289553, Note_off_c, 0, 78, 50
1, 289643, Note_on_c, 0, 72, 57
1, 289663, Note_off_c, 0, 72, 61
1, 289744, Note_on_c, 0, 74, 60
1, 289763, Note_off_c, 0, 74, 62
1, 289841, Note_on_c, 0, 76, 81
1, 289849, Note_on_c, 0, 64, 62
1, 289855, Note_on_c, 0, 71, 54
1, 289858, Note_on_c, 0, 67, 52
1, 289864, Note_on_c, 0, 60, 47
1, 289869, Note_off_c, 0, 64, 65
1, 289873, Note_off_c, 0, 76, 61
1, 289877, Note_off_c, 0, 71, 58
1, 289883, Note_off_c, 0, 67, 59
1, 289890, Note_off_c, 0, 60, 56
1, 289965, Note_on_c, 0, 74, 70
1, 289990, Note_off_c, 0, 74, 68
1, 290065, Note_on_c, 0, 72, 73
1, 290086, Note_off_c, 0, 72, 70
1, 290170, Note_on_c, 0, 74, 85
1, 290173, Note_on_c, 0, 62, 73
1, 290175, Note_on_c, 0, 66, 56
1, 290179, Note_on_c, 0, 64, 65
1, 290188, Note_off_c, 0, 74, 72
1, 290196, Note_off_c, 0, 66, 61
1, 290198, Note_off_c, 0, 62, 65
1, 290198, Note_off_c, 0, 64, 66
1, 290210, Note_on_c, 0, 69, 10
1, 290265, Note_off_c, 0, 69, 29
1, 290288, Note_on_c, 0, 60, 80
1, 290314, Note_off_c, 0, 60, 65
1, 290391, Note_on_c, 0, 62, 79
1, 290423, Note_off_c, 0, 62, 64
1, 290459, Note_on_c, 0, 48, 63
1, 290460, Note_on_c, 0, 52, 76
1, 290486, Note_off_c, 0, 52, 67
1, 290489, Note_on_c, 0, 55, 79
1, 290492, Note_on_c, 0, 59, 56
1, 290501, Note_off_c, 0, 48, 65
1, 290503, Note_on_c, 0, 64, 88
1, 290513, Note_off_c, 0, 55, 66
1, 290522, Note_off_c, 0, 59, 65
1, 290534, Note_off_c, 0, 64, 65
1, 290634, Note_on_c, 0, 62, 69
1, 290661, Note_off_c, 0, 62, 66
1, 290745, Note_on_c, 0, 60, 70
1, 290781, Note_off_c, 0, 60, 66
1, 290872, Note_on_c, 0, 50, 69
1, 290872, Note_on_c, 0, 62, 76
1, 290877, Control_c, 0, 64, 40
1, 290889, Note_on_c, 0, 54, 39
1, 290892, Note_on_c, 0, 57, 45
1, 290892, Control_c, 0, 64, 51
1, 290907, Control_c, 0, 64, 56
1, 290921, Control_c, 0, 64, 58
1, 290927, Note_off_c, 0, 54, 32
1, 290980, Control_c, 0, 64, 56
1, 290995, Control_c, 0, 64, 52
1, 291010, Control_c, 0, 64, 43
1, 291016, Note_on_c, 0, 36, 77
1, 291024, Control_c, 0, 64, 0
1, 291026, Note_off_c, 0, 57, 63
1, 291038, Note_off_c, 0, 50, 39
1, 291053, Note_off_c, 0, 62, 61
1, 291056, Note_off_c, 0, 36, 60
1, 291124, Note_on_c, 0, 38, 79
1, 291158, Note_off_c, 0, 38, 67
1, 291228, Note_on_c, 0, 40, 85
1, 291263, Note_off_c, 0, 40, 65
1, 291336, Note_on_c, 0, 42, 82
1, 291370, Note_off_c, 0, 42, 67
1, 291442, Note_on_c, 0, 43, 76
1, 291470, Note_off_c, 0, 43, 65
1, 291571, Note_on_c, 0, 45, 68
1, 291656, Note_off_c, 0, 45, 56
1, 291688, Note_on_c, 0, 47, 66
1, 291725, Note_off_c, 0, 47, 63
1, 291789, Note_on_c, 0, 43, 64
1, 291817, Note_off_c, 0, 43, 62
1, 291857, Note_on_c, 0, 45, 70
1, 291884, Note_off_c, 0, 45, 65
1, 291888, Note_on_c, 0, 47, 55
1, 291921, Note_off_c, 0, 47, 64
1, 291932, Note_on_c, 0, 45, 69
1, 291957, Note_off_c, 0, 45, 66
1, 291965, Control_c, 0, 67, 37
1, 291980, Control_c, 0, 67, 44
1, 291996, Control_c, 0, 67, 48
1, 292011, Control_c, 0, 67, 51
1, 292026, Note_on_c, 0, 42, 66
1, 292026, Control_c, 0, 67, 55
1, 292041, Control_c, 0, 67, 62
1, 292056, Control_c, 0, 67, 65
1, 292062, Note_off_c, 0, 42, 62
1, 292070, Control_c, 0, 67, 66
1, 292100, Control_c, 0, 67, 65
1, 292114, Control_c, 0, 67, 64
1, 292159, Note_on_c, 0, 40, 56
1, 292159, Control_c, 0, 67, 64
1, 292187, Note_off_c, 0, 40, 57
1, 292270, Control_c, 0, 67, 64
1, 292285, Control_c, 0, 67, 65
1, 292299, Note_on_c, 0, 38, 66
1, 292300, Control_c, 0, 67, 66
1, 292315, Control_c, 0, 67, 66
1, 292329, Control_c, 0, 67, 67
1, 292331, Note_off_c, 0, 38, 63
1, 292344, Control_c, 0, 67, 68
1, 292374, Control_c, 0, 67, 68
1, 292388, Control_c, 0, 67, 69
1, 292418, Control_c, 0, 67, 70
1, 292522, Control_c, 0, 67, 70
1, 292537, Control_c, 0, 67, 71
1, 292552, Note_on_c, 0, 36, 55
1, 292552, Control_c, 0, 67, 71
1, 292567, Control_c, 0, 67, 72
1, 292582, Note_off_c, 0, 36, 58
1, 292582, Control_c, 0, 67, 73
1, 292597, Control_c, 0, 67, 85
1, 292612, Control_c, 0, 67, 114
1, 292627, Control_c, 0, 67, 127
1, 292687, Note_on_c, 0, 38, 45
1, 292720, Note_off_c, 0, 38, 53
1, 292811, Note_on_c, 0, 40, 47
1, 292843, Note_off_c, 0, 40, 51
1, 292938, Note_on_c, 0, 36, 49
1, 292968, Note_off_c, 0, 36, 57
1, 293101, Note_on_c, 0, 38, 56
1, 293131, Note_off_c, 0, 38, 62
1, 293515, Note_on_c, 0, 81, 58
1, 293519, Note_on_c, 0, 69, 53
1, 293521, Note_on_c, 0, 73, 54
1, 293521, Note_on_c, 0, 57, 44
1, 293523, Note_on_c, 0, 45, 50
1, 293524, Note_on_c, 0, 79, 47
1, 293540, Note_off_c, 0, 73, 62
1, 293542, Note_off_c, 0, 69, 60
1, 293545, Note_off_c, 0, 79, 62
1, 293548, Note_off_c, 0, 57, 51
1, 293548, Note_off_c, 0, 81, 66
1, 293549, Note_off_c, 0, 45, 59
1, 294033, Note_on_c, 0, 86, 68
1, 294041, Note_on_c, 0, 81, 58
1, 294043, Note_on_c, 0, 78, 56
1, 294054, Note_on_c, 0, 38, 40
1, 294054, Note_on_c, 0, 74, 36
1, 294060, Note_off_c, 0, 86, 65
1, 294062, Note_on_c, 0, 50, 21
1, 294066, Note_off_c, 0, 78, 62
1, 294069, Note_off_c, 0, 81, 66
1, 294084, Note_off_c, 0, 74, 52
1, 294087, Note_off_c, 0, 38, 50
1, 294106, Note_off_c, 0, 50, 29
1, 294784, Control_c, 0, 67, 125
1, 294813, Control_c, 0, 67, 122
1, 294828, Control_c, 0, 67, 117
1, 294843, Control_c, 0, 67, 109
1, 294858, Control_c, 0, 67, 99
1, 294872, Control_c, 0, 67, 90
1, 294887, Control_c, 0, 67, 83
1, 294902, Control_c, 0, 67, 76
1, 294916, Control_c, 0, 67, 68
1, 294931, Control_c, 0, 67, 57
1, 294946, Control_c, 0, 67, 49
1, 294961, Control_c, 0, 67, 43
1, 294976, Control_c, 0, 67, 0
1, 300026, Control_c, 0, 64, 34
1, 300041, Control_c, 0, 64, 40
1, 300056, Control_c, 0, 64, 47
1, 300071, Control_c, 0, 64, 53
1, 300085, Control_c, 0, 64, 57
1, 300100, Control_c, 0, 64, 59
1, 300115, Control_c, 0, 64, 60
1, 300129, Control_c, 0, 64, 62
1, 300144, Control_c, 0, 64, 63
1, 300159, Control_c, 0, 64, 65
1, 300174, Control_c, 0, 64, 66
1, 300189, Control_c, 0, 64, 67
1, 300204, Control_c, 0, 64, 69
1, 300219, Control_c, 0, 64, 70
1, 300234, Control_c, 0, 64, 71
1, 300249, Control_c, 0, 64, 72
1, 300278, Control_c, 0, 64, 73
1, 300426, Control_c, 0, 64, 72
1, 300441, Control_c, 0, 64, 69
1, 300443, Note_on_c, 0, 43, 52
1, 300446, Note_on_c, 0, 67, 72
1, 300451, Note_on_c, 0, 66, 69
1, 300454, Note_on_c, 0, 64, 61
1, 300455, Control_c, 0, 64, 64
1, 300470, Control_c, 0, 64, 57
1, 300485, Control_c, 0, 64, 50
1, 300508, Control_c, 0, 64, 45
1, 300523, Control_c, 0, 64, 44
1, 300537, Control_c, 0, 64, 46
1, 300552, Control_c, 0, 64, 53
1, 300567, Control_c, 0, 64, 59
1, 300582, Control_c, 0, 64, 63
1, 300597, Control_c, 0, 64, 66
1, 300611, Control_c, 0, 64, 68
1, 300626, Control_c, 0, 64, 69
1, 300641, Control_c, 0, 64, 71
1, 300655, Control_c, 0, 64, 72
1, 300670, Control_c, 0, 64, 73
1, 300685, Control_c, 0, 64, 75
1, 300700, Control_c, 0, 64, 75
1, 300715, Control_c, 0, 64, 76
1, 300924, Note_on_c, 0, 62, 38
1, 300968, Note_off_c, 0, 64, 37
1, 301027, Note_off_c, 0, 66, 35
1, 301042, Control_c, 0, 64, 75
1, 301086, Control_c, 0, 64, 75
1, 301101, Control_c, 0, 64, 74
1, 301116, Control_c, 0, 64, 74
1, 301131, Control_c, 0, 64, 73
1, 301146, Control_c, 0, 64, 72
1, 301146, Control_c, 0, 67, 48
1, 301160, Control_c, 0, 64, 71
1, 301160, Control_c, 0, 67, 58
1, 301167, Note_on_c, 0, 50, 30
1, 301175, Control_c, 0, 64, 69
1, 301175, Control_c, 0, 67, 65
1, 301190, Control_c, 0, 64, 67
1, 301190, Control_c, 0, 67, 68
1, 301203, Note_on_c, 0, 60, 45
1, 301205, Control_c, 0, 64, 63
1, 301205, Control_c, 0, 67, 70
1, 301220, Control_c, 0, 64, 58
1, 301234, Control_c, 0, 64, 52
1, 301256, Control_c, 0, 64, 44
1, 301266, Note_off_c, 0, 62, 37
1, 301271, Control_c, 0, 64, 39
1, 301271, Control_c, 0, 67, 70
1, 301286, Control_c, 0, 64, 38
1, 301286, Control_c, 0, 67, 69
1, 301301, Control_c, 0, 64, 38
1, 301301, Control_c, 0, 67, 67
1, 301316, Control_c, 0, 64, 40
1, 301316, Control_c, 0, 67, 65
1, 301331, Control_c, 0, 64, 44
1, 301331, Control_c, 0, 67, 64
1, 301346, Control_c, 0, 64, 50
1, 301346, Control_c, 0, 67, 63
1, 301360, Control_c, 0, 64, 55
1, 301360, Control_c, 0, 67, 62
1, 301375, Control_c, 0, 64, 58
1, 301375, Control_c, 0, 67, 61
1, 301390, Control_c, 0, 64, 60
1, 301390, Control_c, 0, 67, 60
1, 301404, Control_c, 0, 64, 60
1, 301404, Control_c, 0, 67, 59
1, 301419, Control_c, 0, 64, 61
1, 301419, Control_c, 0, 67, 58
1, 301434, Control_c, 0, 64, 61
1, 301434, Control_c, 0, 67, 58
1, 301449, Control_c, 0, 64, 62
1, 301449, Control_c, 0, 67, 56
1, 301464, Control_c, 0, 67, 55
1, 301474, Note_off_c, 0, 60, 54
1, 301478, Control_c, 0, 64, 63
1, 301478, Control_c, 0, 67, 54
1, 301483, Note_on_c, 0, 59, 46
1, 301493, Control_c, 0, 64, 64
1, 301493, Control_c, 0, 67, 53
1, 301508, Control_c, 0, 64, 66
1, 301508, Control_c, 0, 67, 52
1, 301523, Control_c, 0, 64, 68
1, 301523, Control_c, 0, 67, 51
1, 301538, Control_c, 0, 64, 70
1, 301538, Control_c, 0, 67, 50
1, 301552, Control_c, 0, 64, 73
1, 301552, Control_c, 0, 67, 49
1, 301567, Control_c, 0, 64, 76
1, 301567, Control_c, 0, 67, 48
1, 301583, Control_c, 0, 64, 78
1, 301583, Control_c, 0, 67, 47
1, 301590, Note_off_c, 0, 43, 38
1, 301598, Control_c, 0, 64, 81
1, 301598, Control_c, 0, 67, 46
1, 301613, Control_c, 0, 64, 83
1, 301623, Note_off_c, 0, 59, 63
1, 301628, Control_c, 0, 64, 85
1, 301628, Control_c, 0, 67, 45
1, 301643, Control_c, 0, 64, 87
1, 301657, Control_c, 0, 64, 89
1, 301672, Control_c, 0, 64, 90
1, 301672, Control_c, 0, 67, 45
1, 301676, Note_off_c, 0, 67, 62
1, 301687, Control_c, 0, 64, 91
1, 301701, Control_c, 0, 67, 44
1, 301731, Control_c, 0, 64, 91
1, 301746, Control_c, 0, 67, 43
1, 301805, Control_c, 0, 67, 43
1, 301835, Control_c, 0, 67, 42
1, 301849, Control_c, 0, 67, 41
1, 301879, Control_c, 0, 67, 41
1, 301891, Note_on_c, 0, 62, 29
1, 301909, Control_c, 0, 67, 40
1, 301917, Note_on_c, 0, 69, 62
1, 301939, Control_c, 0, 67, 39
1, 301954, Note_off_c, 0, 62, 44
1, 301969, Control_c, 0, 67, 39
1, 301983, Control_c, 0, 67, 38
1, 302005, Control_c, 0, 67, 0
1, 302122, Note_on_c, 0, 71, 76
1, 302139, Control_c, 0, 64, 91
1, 302151, Note_on_c, 0, 66, 50
1, 302202, Note_off_c, 0, 69, 38
1, 302258, Control_c, 0, 64, 90
1, 302288, Control_c, 0, 64, 90
1, 302302, Control_c, 0, 64, 88
1, 302317, Control_c, 0, 64, 86
1, 302332, Control_c, 0, 64, 80
1, 302343, Note_on_c, 0, 43, 37
1, 302347, Control_c, 0, 64, 72
1, 302349, Note_on_c, 0, 72, 64
1, 302358, Note_off_c, 0, 66, 33
1, 302362, Control_c, 0, 64, 63
1, 302366, Note_off_c, 0, 71, 54
1, 302367, Note_off_c, 0, 50, 46
1, 302370, Note_on_c, 0, 64, 36
1, 302377, Control_c, 0, 64, 49
1, 302392, Control_c, 0, 64, 29
1, 302407, Control_c, 0, 64, 0
1, 302496, Control_c, 0, 64, 30
1, 302511, Control_c, 0, 64, 42
1, 302525, Control_c, 0, 64, 52
1, 302540, Control_c, 0, 64, 59
1, 302555, Control_c, 0, 64, 62
1, 302565, Note_on_c, 0, 49, 30
1, 302570, Control_c, 0, 64, 63
1, 302585, Control_c, 0, 64, 64
1, 302599, Control_c, 0, 64, 65
1, 302614, Control_c, 0, 64, 66
1, 302629, Control_c, 0, 64, 68
1, 302643, Control_c, 0, 64, 69
1, 302649, Note_off_c, 0, 49, 46
1, 302658, Control_c, 0, 64, 70
1, 302673, Control_c, 0, 64, 71
1, 302688, Control_c, 0, 64, 72
1, 302703, Control_c, 0, 64, 72
1, 302717, Control_c, 0, 64, 73
1, 302746, Note_on_c, 0, 74, 66
1, 302747, Note_off_c, 0, 64, 46
1, 302755, Control_c, 0, 64, 73
1, 302765, Note_on_c, 0, 66, 48
1, 302765, Note_off_c, 0, 72, 53
1, 302773, Note_off_c, 0, 43, 38
1, 302774, Note_on_c, 0, 50, 40
1, 302785, Control_c, 0, 64, 74
1, 302814, Control_c, 0, 64, 74
1, 302817, Note_off_c, 0, 50, 63
1, 302844, Control_c, 0, 64, 75
1, 302888, Control_c, 0, 64, 75
1, 302940, Note_off_c, 0, 66, 59
1, 302946, Control_c, 0, 64, 75
1, 302947, Note_off_c, 0, 74, 61
1, 302955, Note_on_c, 0, 71, 64
1, 302960, Note_on_c, 0, 61, 44
1, 302961, Control_c, 0, 64, 71
1, 302974, Note_on_c, 0, 62, 39
1, 302976, Control_c, 0, 64, 64
1, 302991, Control_c, 0, 64, 50
1, 303005, Control_c, 0, 64, 34
1, 303020, Control_c, 0, 64, 0
1, 303049, Control_c, 0, 64, 39
1, 303064, Control_c, 0, 64, 52
1, 303079, Control_c, 0, 64, 60
1, 303094, Control_c, 0, 64, 65
1, 303109, Control_c, 0, 64, 67
1, 303123, Control_c, 0, 64, 68
1, 303138, Control_c, 0, 64, 70
1, 303148, Note_on_c, 0, 50, 44
1, 303153, Control_c, 0, 64, 71
1, 303155, Note_off_c, 0, 62, 47
1, 303158, Note_off_c, 0, 61, 36
1, 303168, Control_c, 0, 64, 73
1, 303184, Control_c, 0, 64, 74
1, 303199, Control_c, 0, 64, 75
1, 303214, Control_c, 0, 64, 76
1, 303228, Control_c, 0, 64, 77
1, 303238, Note_off_c, 0, 50, 39
1, 303258, Control_c, 0, 64, 77
1, 303317, Note_off_c, 0, 71, 54
1, 303325, Note_on_c, 0, 72, 67
1, 303329, Note_on_c, 0, 62, 41
1, 303346, Note_on_c, 0, 64, 47
1, 303358, Note_off_c, 0, 62, 56
1, 303403, Note_off_c, 0, 72, 61
1, 303443, Note_off_c, 0, 64, 36
1, 303480, Control_c, 0, 64, 77
1, 303502, Control_c, 0, 64, 72
1, 303517, Control_c, 0, 64, 64
1, 303526, Note_on_c, 0, 69, 60
1, 303532, Control_c, 0, 64, 52
1, 303540, Note_on_c, 0, 43, 35
1, 303547, Control_c, 0, 64, 31
1, 303555, Note_on_c, 0, 66, 45
1, 303561, Control_c, 0, 64, 0
1, 303572, Note_on_c, 0, 64, 27
1, 303605, Control_c, 0, 64, 31
1, 303620, Control_c, 0, 64, 45
1, 303635, Control_c, 0, 64, 55
1, 303650, Control_c, 0, 64, 62
1, 303665, Control_c, 0, 64, 64
1, 303680, Control_c, 0, 64, 65
1, 303695, Control_c, 0, 64, 65
1, 303710, Control_c, 0, 64, 66
1, 303719, Note_off_c, 0, 64, 48
1, 303719, Note_off_c, 0, 69, 61
1, 303724, Control_c, 0, 64, 67
1, 303731, Note_off_c, 0, 66, 44
1, 303739, Note_on_c, 0, 62, 40
1, 303739, Control_c, 0, 64, 68
1, 303754, Control_c, 0, 64, 69
1, 303769, Control_c, 0, 64, 69
1, 303784, Control_c, 0, 64, 70
1, 303798, Control_c, 0, 64, 70
1, 303813, Control_c, 0, 64, 71
1, 303843, Control_c, 0, 64, 71
1, 303872, Control_c, 0, 64, 71
1, 303887, Control_c, 0, 64, 70
1, 303889, Note_off_c, 0, 62, 58
1, 303902, Control_c, 0, 64, 65
1, 303908, Note_on_c, 0, 67, 55
1, 303917, Control_c, 0, 64, 56
1, 303932, Control_c, 0, 64, 45
1, 303933, Note_on_c, 0, 50, 27
1, 303936, Note_on_c, 0, 60, 23
1, 303946, Control_c, 0, 64, 40
1, 303961, Control_c, 0, 64, 42
1, 303977, Control_c, 0, 64, 50
1, 303992, Control_c, 0, 64, 60
1, 304007, Control_c, 0, 64, 65
1, 304010, Note_off_c, 0, 60, 0
1, 304022, Control_c, 0, 64, 68
1, 304033, Note_off_c, 0, 43, 34
1, 304037, Control_c, 0, 64, 70
1, 304046, Poly_aftertouch_c, 0, 60, 127
1, 304051, Control_c, 0, 64, 73
1, 304066, Control_c, 0, 64, 75
1, 304081, Control_c, 0, 64, 78
1, 304088, Poly_aftertouch_c, 0, 60, 0
1, 304095, Control_c, 0, 64, 80
1, 304106, Note_on_c, 0, 59, 49
1, 304109, Note_off_c, 0, 67, 63
1, 304110, Control_c, 0, 64, 83
1, 304125, Control_c, 0, 64, 84
1, 304133, Note_off_c, 0, 59, 57
1, 304140, Control_c, 0, 64, 86
1, 304155, Control_c, 0, 64, 87
1, 304169, Control_c, 0, 64, 87
1, 304184, Control_c, 0, 64, 88
1, 304302, Note_on_c, 0, 69, 75
1, 304312, Note_on_c, 0, 62, 51
1, 304352, Note_off_c, 0, 62, 56
1, 304468, Poly_aftertouch_c, 0, 67, 0
1, 304481, Note_on_c, 0, 71, 79
1, 304504, Note_on_c, 0, 66, 56
1, 304539, Note_off_c, 0, 69, 48
1, 304577, Control_c, 0, 64, 87
1, 304651, Control_c, 0, 64, 87
1, 304666, Control_c, 0, 64, 84
1, 304671, Note_on_c, 0, 72, 70
1, 304681, Control_c, 0, 64, 76
1, 304686, Note_off_c, 0, 71, 56
1, 304688, Note_on_c, 0, 43, 47
1, 304690, Note_on_c, 0, 64, 56
1, 304694, Note_off_c, 0, 66, 34
1, 304696, Control_c, 0, 64, 65
1, 304699, Note_off_c, 0, 50, 53
1, 304710, Control_c, 0, 64, 48
1, 304725, Control_c, 0, 64, 0
1, 304830, Control_c, 0, 64, 40
1, 304844, Control_c, 0, 64, 51
1, 304859, Control_c, 0, 64, 58
1, 304869, Note_on_c, 0, 49, 47
1, 304874, Control_c, 0, 64, 61
1, 304889, Control_c, 0, 64, 62
1, 304904, Control_c, 0, 64, 63
1, 304918, Control_c, 0, 64, 65
1, 304933, Control_c, 0, 64, 66
1, 304948, Control_c, 0, 64, 67
1, 304963, Control_c, 0, 64, 68
1, 304978, Control_c, 0, 64, 69
1, 305000, Control_c, 0, 64, 70
1, 305023, Note_off_c, 0, 64, 49
1, 305029, Note_off_c, 0, 49, 37
1, 305030, Control_c, 0, 64, 70
1, 305036, Note_off_c, 0, 72, 62
1, 305040, Note_on_c, 0, 74, 72
1, 305050, Note_on_c, 0, 66, 58
1, 305054, Note_off_c, 0, 43, 33
1, 305058, Note_on_c, 0, 50, 52
1, 305059, Control_c, 0, 64, 71
1, 305099, Note_off_c, 0, 50, 64
1, 305104, Control_c, 0, 64, 71
1, 305119, Control_c, 0, 64, 72
1, 305148, Control_c, 0, 64, 72
1, 305224, Note_off_c, 0, 66, 60
1, 305226, Note_off_c, 0, 74, 60
1, 305233, Note_on_c, 0, 71, 68
1, 305236, Note_on_c, 0, 61, 46
1, 305237, Control_c, 0, 64, 70
1, 305248, Note_on_c, 0, 62, 46
1, 305251, Control_c, 0, 64, 63
1, 305266, Control_c, 0, 64, 50
1, 305281, Control_c, 0, 64, 31
1, 305296, Control_c, 0, 64, 0
1, 305325, Control_c, 0, 64, 39
1, 305340, Control_c, 0, 64, 55
1, 305355, Control_c, 0, 64, 62
1, 305370, Control_c, 0, 64, 64
1, 305385, Control_c, 0, 64, 66
1, 305400, Control_c, 0, 64, 67
1, 305415, Control_c, 0, 64, 68
1, 305429, Note_on_c, 0, 50, 48
1, 305430, Note_off_c, 0, 62, 59
1, 305430, Control_c, 0, 64, 70
1, 305444, Control_c, 0, 64, 72
1, 305448, Note_off_c, 0, 61, 35
1, 305459, Control_c, 0, 64, 73
1, 305474, Control_c, 0, 64, 74
1, 305489, Control_c, 0, 64, 74
1, 305504, Control_c, 0, 64, 75
1, 305573, Note_off_c, 0, 50, 34
1, 305593, Note_off_c, 0, 71, 50
1, 305597, Note_on_c, 0, 72, 64
1, 305611, Note_on_c, 0, 62, 46
1, 305614, Note_on_c, 0, 64, 50
1, 305638, Note_off_c, 0, 62, 61
1, 305667, Control_c, 0, 64, 75
1, 305681, Note_off_c, 0, 72, 60
1, 305686, Note_off_c, 0, 64, 56
1, 305763, Control_c, 0, 64, 75
1, 305778, Control_c, 0, 64, 74
1, 305793, Control_c, 0, 64, 70
1, 305807, Note_on_c, 0, 69, 58
1, 305808, Control_c, 0, 64, 62
1, 305812, Note_on_c, 0, 43, 35
1, 305823, Control_c, 0, 64, 47
1, 305837, Note_on_c, 0, 66, 43
1, 305838, Control_c, 0, 64, 0
1, 305847, Note_on_c, 0, 64, 30
1, 305884, Note_off_c, 0, 43, 0
1, 305884, Note_on_c, 0, 43, 3
1, 305897, Control_c, 0, 64, 39
1, 305912, Control_c, 0, 64, 50
1, 305927, Control_c, 0, 64, 59
1, 305942, Control_c, 0, 64, 64
1, 305956, Control_c, 0, 64, 65
1, 305971, Control_c, 0, 64, 66
1, 305986, Control_c, 0, 64, 66
1, 306000, Control_c, 0, 64, 67
1, 306011, Note_off_c, 0, 69, 59
1, 306014, Note_on_c, 0, 62, 41
1, 306015, Control_c, 0, 64, 69
1, 306018, Note_off_c, 0, 64, 49
1, 306030, Control_c, 0, 64, 70
1, 306036, Note_off_c, 0, 66, 38
1, 306045, Control_c, 0, 64, 71
1, 306060, Control_c, 0, 64, 71
1, 306074, Control_c, 0, 64, 72
1, 306089, Control_c, 0, 64, 72
1, 306104, Control_c, 0, 64, 73
1, 306178, Control_c, 0, 64, 72
1, 306183, Note_off_c, 0, 62, 57
1, 306193, Control_c, 0, 64, 67
1, 306196, Note_on_c, 0, 67, 54
1, 306208, Control_c, 0, 64, 59
1, 306217, Note_on_c, 0, 50, 32
1, 306222, Control_c, 0, 64, 50
1, 306237, Note_on_c, 0, 60, 11
1, 306237, Control_c, 0, 64, 48
1, 306252, Control_c, 0, 64, 51
1, 306267, Control_c, 0, 64, 58
1, 306282, Control_c, 0, 64, 63
1, 306297, Control_c, 0, 64, 67
1, 306312, Control_c, 0, 64, 69
1, 306327, Control_c, 0, 64, 71
1, 306330, Note_off_c, 0, 43, 39
1, 306341, Control_c, 0, 64, 73
1, 306356, Control_c, 0, 64, 75
1, 306372, Control_c, 0, 64, 76
1, 306376, Note_off_c, 0, 60, 42
1, 306386, Control_c, 0, 64, 78
1, 306387, Note_off_c, 0, 67, 62
1, 306388, Note_on_c, 0, 59, 54
1, 306401, Control_c, 0, 64, 80
1, 306416, Control_c, 0, 64, 82
1, 306421, Note_off_c, 0, 59, 65
1, 306431, Control_c, 0, 64, 84
1, 306446, Control_c, 0, 64, 85
1, 306461, Control_c, 0, 64, 85
1, 306497, Control_c, 0, 64, 86
1, 306580, Note_on_c, 0, 69, 77
1, 306585, Note_on_c, 0, 62, 56
1, 306598, Note_on_c, 0, 67, 58
1, 306621, Note_off_c, 0, 67, 58
1, 306628, Note_off_c, 0, 62, 58
1, 306756, Note_on_c, 0, 71, 85
1, 306767, Note_on_c, 0, 66, 69
1, 306803, Note_off_c, 0, 69, 58
1, 306832, Note_off_c, 0, 66, 58
1, 306944, Note_on_c, 0, 43, 51
1, 306971, Control_c, 0, 64, 85
1, 306981, Note_off_c, 0, 50, 43
1, 306986, Note_on_c, 0, 74, 86
1, 306986, Control_c, 0, 64, 84
1, 307001, Control_c, 0, 64, 77
1, 307005, Note_on_c, 0, 65, 63
1, 307015, Control_c, 0, 64, 67
1, 307018, Note_off_c, 0, 71, 58
1, 307030, Control_c, 0, 64, 52
1, 307045, Control_c, 0, 64, 0
1, 307090, Control_c, 0, 64, 30
1, 307105, Control_c, 0, 64, 47
1, 307120, Control_c, 0, 64, 59
1, 307135, Control_c, 0, 64, 65
1, 307150, Control_c, 0, 64, 68
1, 307165, Control_c, 0, 64, 70
1, 307170, Note_off_c, 0, 43, 60
1, 307176, Note_on_c, 0, 51, 61
1, 307180, Control_c, 0, 64, 71
1, 307182, Note_off_c, 0, 74, 58
1, 307194, Control_c, 0, 64, 73
1, 307209, Control_c, 0, 64, 75
1, 307224, Control_c, 0, 64, 77
1, 307246, Control_c, 0, 64, 78
1, 307261, Control_c, 0, 64, 79
1, 307276, Control_c, 0, 64, 80
1, 307321, Note_off_c, 0, 51, 57
1, 307350, Note_off_c, 0, 65, 61
1, 307361, Note_on_c, 0, 75, 87
1, 307373, Note_on_c, 0, 56, 60
1, 307376, Note_on_c, 0, 67, 36
1, 307380, Control_c, 0, 64, 80
1, 307415, Note_off_c, 0, 56, 63
1, 307498, Control_c, 0, 64, 81
1, 307543, Control_c, 0, 64, 80
1, 307548, Note_on_c, 0, 72, 81
1, 307558, Control_c, 0, 64, 77
1, 307563, Note_on_c, 0, 63, 65
1, 307567, Note_on_c, 0, 60, 53
1, 307572, Control_c, 0, 64, 69
1, 307578, Note_off_c, 0, 75, 59
1, 307587, Control_c, 0, 64, 57
1, 307592, Note_off_c, 0, 67, 45
1, 307602, Control_c, 0, 64, 46
1, 307617, Control_c, 0, 64, 43
1, 307632, Control_c, 0, 64, 45
1, 307646, Control_c, 0, 64, 53
1, 307661, Control_c, 0, 64, 61
1, 307676, Control_c, 0, 64, 65
1, 307691, Control_c, 0, 64, 68
1, 307706, Control_c, 0, 64, 70
1, 307720, Control_c, 0, 64, 72
1, 307728, Note_off_c, 0, 60, 57
1, 307732, Note_on_c, 0, 62, 49
1, 307735, Control_c, 0, 64, 73
1, 307750, Control_c, 0, 64, 75
1, 307758, Note_off_c, 0, 63, 48
1, 307764, Control_c, 0, 64, 76
1, 307776, Note_off_c, 0, 62, 62
1, 307779, Control_c, 0, 64, 78
1, 307794, Control_c, 0, 64, 78
1, 307809, Control_c, 0, 64, 79
1, 307824, Control_c, 0, 64, 79
1, 307868, Control_c, 0, 64, 80
1, 307889, Note_on_c, 0, 70, 82
1, 307904, Note_on_c, 0, 65, 56
1, 307914, Note_off_c, 0, 72, 55
1, 307918, Note_on_c, 0, 62, 51
1, 307926, Note_off_c, 0, 65, 61
1, 307963, Note_off_c, 0, 70, 66
1, 308099, Control_c, 0, 64, 79
1, 308106, Note_on_c, 0, 68, 73
1, 308111, Note_off_c, 0, 62, 63
1, 308114, Control_c, 0, 64, 78
1, 308119, Note_on_c, 0, 43, 44
1, 308126, Note_on_c, 0, 63, 46
1, 308129, Control_c, 0, 64, 72
1, 308134, Note_on_c, 0, 65, 35
1, 308143, Control_c, 0, 64, 63
1, 308158, Control_c, 0, 64, 49
1, 308173, Control_c, 0, 64, 30
1, 308188, Control_c, 0, 64, 0
1, 308232, Control_c, 0, 64, 38
1, 308247, Control_c, 0, 64, 49
1, 308261, Control_c, 0, 64, 58
1, 308276, Control_c, 0, 64, 63
1, 308291, Control_c, 0, 64, 65
1, 308297, Note_off_c, 0, 63, 56
1, 308306, Control_c, 0, 64, 66
1, 308321, Control_c, 0, 64, 67
1, 308330, Note_on_c, 0, 62, 48
1, 308336, Control_c, 0, 64, 67
1, 308351, Control_c, 0, 64, 68
1, 308378, Note_off_c, 0, 65, 37
1, 308381, Control_c, 0, 64, 68
1, 308405, Note_off_c, 0, 68, 38
1, 308410, Control_c, 0, 64, 69
1, 308440, Control_c, 0, 64, 69
1, 308455, Control_c, 0, 64, 70
1, 308499, Control_c, 0, 64, 70
1, 308502, Note_off_c, 0, 62, 59
1, 308508, Note_on_c, 0, 67, 62
1, 308529, Control_c, 0, 64, 70
1, 308533, Note_on_c, 0, 50, 34
1, 308536, Note_on_c, 0, 60, 40
1, 308543, Control_c, 0, 64, 69
1, 308558, Control_c, 0, 64, 65
1, 308573, Control_c, 0, 64, 58
1, 308587, Control_c, 0, 64, 46
1, 308602, Control_c, 0, 64, 35
1, 308617, Control_c, 0, 64, 32
1, 308632, Control_c, 0, 64, 38
1, 308647, Control_c, 0, 64, 49
1, 308661, Control_c, 0, 64, 59
1, 308676, Control_c, 0, 64, 64
1, 308690, Note_off_c, 0, 60, 62
1, 308691, Control_c, 0, 64, 67
1, 308706, Control_c, 0, 64, 69
1, 308720, Note_on_c, 0, 59, 51
1, 308721, Control_c, 0, 64, 71
1, 308740, Note_off_c, 0, 67, 63
1, 308743, Control_c, 0, 64, 73
1, 308758, Control_c, 0, 64, 74
1, 308759, Note_off_c, 0, 59, 52
1, 308769, Note_off_c, 0, 43, 34
1, 308774, Control_c, 0, 64, 75
1, 308789, Control_c, 0, 64, 76
1, 308804, Control_c, 0, 64, 76
1, 308938, Note_on_c, 0, 69, 63
1, 308957, Note_on_c, 0, 62, 50
1, 308966, Note_on_c, 0, 67, 37
1, 308997, Note_off_c, 0, 67, 55
1, 309000, Note_off_c, 0, 62, 59
1, 309115, Control_c, 0, 64, 76
1, 309133, Note_on_c, 0, 71, 67
1, 309145, Control_c, 0, 67, 43
1, 309159, Control_c, 0, 67, 54
1, 309160, Note_on_c, 0, 66, 36
1, 309171, Note_off_c, 0, 69, 55
1, 309174, Control_c, 0, 64, 75
1, 309174, Control_c, 0, 67, 57
1, 309204, Control_c, 0, 64, 75
1, 309218, Control_c, 0, 64, 74
1, 309233, Control_c, 0, 64, 74
1, 309254, Note_off_c, 0, 66, 30
1, 309263, Control_c, 0, 64, 73
1, 309278, Control_c, 0, 64, 73
1, 309293, Control_c, 0, 64, 72
1, 309308, Control_c, 0, 64, 72
1, 309323, Control_c, 0, 64, 71
1, 309323, Control_c, 0, 67, 58
1, 309337, Control_c, 0, 64, 70
1, 309352, Control_c, 0, 64, 70
1, 309367, Control_c, 0, 64, 68
1, 309380, Note_on_c, 0, 43, 23
1, 309382, Control_c, 0, 64, 67
1, 309397, Control_c, 0, 64, 65
1, 309411, Control_c, 0, 64, 62
1, 309426, Control_c, 0, 64, 59
1, 309430, Note_on_c, 0, 74, 60
1, 309436, Note_off_c, 0, 50, 43
1, 309441, Note_on_c, 0, 65, 37
1, 309441, Control_c, 0, 64, 56
1, 309456, Control_c, 0, 64, 52
1, 309471, Control_c, 0, 64, 47
1, 309487, Note_off_c, 0, 71, 53
1, 309493, Control_c, 0, 64, 41
1, 309507, Control_c, 0, 64, 34
1, 309507, Control_c, 0, 67, 57
1, 309522, Control_c, 0, 64, 0
1, 309552, Control_c, 0, 67, 56
1, 309568, Control_c, 0, 64, 30
1, 309568, Control_c, 0, 67, 56
1, 309583, Control_c, 0, 64, 38
1, 309597, Control_c, 0, 64, 49
1, 309597, Control_c, 0, 67, 55
1, 309612, Control_c, 0, 64, 59
1, 309627, Control_c, 0, 64, 63
1, 309642, Control_c, 0, 64, 65
1, 309642, Control_c, 0, 67, 54
1, 309656, Control_c, 0, 64, 66
1, 309665, Note_off_c, 0, 74, 62
1, 309671, Control_c, 0, 64, 67
1, 309671, Control_c, 0, 67, 53
1, 309686, Control_c, 0, 64, 68
1, 309686, Control_c, 0, 67, 53
1, 309701, Control_c, 0, 64, 70
1, 309715, Control_c, 0, 64, 71
1, 309730, Control_c, 0, 64, 72
1, 309734, Note_on_c, 0, 51, 29
1, 309745, Control_c, 0, 64, 73
1, 309759, Note_off_c, 0, 43, 39
1, 309760, Control_c, 0, 64, 73
1, 309775, Control_c, 0, 67, 52
1, 309789, Control_c, 0, 64, 74
1, 309804, Control_c, 0, 64, 74
1, 309819, Control_c, 0, 67, 51
1, 309848, Control_c, 0, 64, 75
1, 309899, Note_off_c, 0, 51, 34
1, 309904, Note_off_c, 0, 65, 55
1, 309916, Note_on_c, 0, 75, 57
1, 309933, Note_on_c, 0, 56, 41
1, 309937, Control_c, 0, 67, 52
1, 309950, Note_on_c, 0, 67, 24
1, 309984, Note_off_c, 0, 56, 62
1, 310115, Control_c, 0, 64, 73
1, 310115, Control_c, 0, 67, 53
1, 310125, Note_on_c, 0, 72, 53
1, 310130, Control_c, 0, 64, 67
1, 310132, Note_on_c, 0, 63, 32
1, 310142, Note_on_c, 0, 60, 39
1, 310145, Control_c, 0, 64, 60
1, 310145, Control_c, 0, 67, 53
1, 310159, Control_c, 0, 64, 54
1, 310166, Note_off_c, 0, 75, 56
1, 310174, Control_c, 0, 64, 53
1, 310186, Note_off_c, 0, 67, 44
1, 310189, Control_c, 0, 64, 54
1, 310204, Control_c, 0, 64, 58
1, 310204, Control_c, 0, 67, 54
1, 310219, Control_c, 0, 64, 61
1, 310241, Control_c, 0, 64, 64
1, 310241, Control_c, 0, 67, 54
1, 310256, Control_c, 0, 64, 66
1, 310271, Control_c, 0, 64, 68
1, 310271, Control_c, 0, 67, 55
1, 310281, Note_off_c, 0, 60, 55
1, 310285, Control_c, 0, 64, 70
1, 310285, Control_c, 0, 67, 56
1, 310300, Control_c, 0, 64, 71
1, 310307, Note_on_c, 0, 62, 47
1, 310315, Control_c, 0, 64, 72
1, 310315, Control_c, 0, 67, 57
1, 310318, Note_off_c, 0, 63, 42
1, 310330, Control_c, 0, 64, 72
1, 310330, Control_c, 0, 67, 58
1, 310345, Control_c, 0, 64, 73
1, 310345, Control_c, 0, 67, 59
1, 310348, Note_off_c, 0, 62, 62
1, 310360, Control_c, 0, 67, 60
1, 310375, Control_c, 0, 64, 74
1, 310375, Control_c, 0, 67, 61
1, 310390, Control_c, 0, 67, 62
1, 310405, Control_c, 0, 67, 62
1, 310420, Control_c, 0, 64, 74
1, 310420, Control_c, 0, 67, 64
1, 310434, Control_c, 0, 67, 64
1, 310449, Control_c, 0, 67, 72
1, 310464, Control_c, 0, 67, 106
1, 310479, Control_c, 0, 67, 127
1, 310485, Note_on_c, 0, 70, 65
1, 310489, Note_on_c, 0, 65, 52
1, 310518, Note_off_c, 0, 72, 37
1, 310519, Note_off_c, 0, 65, 63
1, 310528, Note_on_c, 0, 62, 19
1, 310531, Note_off_c, 0, 70, 61
1, 310657, Control_c, 0, 64, 74
1, 310671, Control_c, 0, 64, 73
1, 310686, Control_c, 0, 64, 71
1, 310701, Control_c, 0, 64, 66
1, 310706, Note_off_c, 0, 62, 53
1, 310712, Note_on_c, 0, 68, 58
1, 310716, Control_c, 0, 64, 58
1, 310731, Control_c, 0, 64, 48
1, 310735, Note_on_c, 0, 43, 34
1, 310736, Note_on_c, 0, 65, 17
1, 310745, Control_c, 0, 64, 34
1, 310760, Control_c, 0, 64, 0
1, 310786, Poly_aftertouch_c, 0, 63, 127
1, 310804, Control_c, 0, 64, 32
1, 310819, Control_c, 0, 64, 42
1, 310834, Control_c, 0, 64, 53
1, 310849, Control_c, 0, 64, 60
1, 310864, Control_c, 0, 64, 63
1, 310879, Control_c, 0, 64, 64
1, 310894, Control_c, 0, 64, 65
1, 310906, Poly_aftertouch_c, 0, 63, 0
1, 310908, Control_c, 0, 64, 66
1, 310923, Control_c, 0, 64, 66
1, 310938, Control_c, 0, 64, 68
1, 310944, Note_off_c, 0, 65, 38
1, 310944, Note_on_c, 0, 62, 39
1, 310953, Control_c, 0, 64, 68
1, 310968, Control_c, 0, 64, 69
1, 310989, Control_c, 0, 64, 70
1, 310992, Note_off_c, 0, 68, 37
1, 311164, Note_on_c, 0, 67, 45
1, 311168, Control_c, 0, 64, 69
1, 311174, Note_off_c, 0, 62, 38
1, 311183, Control_c, 0, 64, 67
1, 311186, Note_on_c, 0, 50, 26
1, 311198, Note_on_c, 0, 60, 12
1, 311198, Control_c, 0, 64, 63
1, 311212, Control_c, 0, 64, 57
1, 311227, Control_c, 0, 64, 51
1, 311242, Control_c, 0, 64, 43
1, 311257, Control_c, 0, 64, 33
1, 311272, Control_c, 0, 64, 0
1, 311347, Control_c, 0, 64, 31
1, 311361, Control_c, 0, 64, 37
1, 311376, Control_c, 0, 64, 45
1, 311391, Control_c, 0, 64, 52
1, 311401, Note_off_c, 0, 60, 45
1, 311406, Control_c, 0, 64, 58
1, 311420, Control_c, 0, 64, 61
1, 311435, Control_c, 0, 64, 63
1, 311450, Control_c, 0, 64, 65
1, 311456, Note_on_c, 0, 59, 29
1, 311465, Control_c, 0, 64, 66
1, 311480, Control_c, 0, 64, 68
1, 311494, Control_c, 0, 64, 71
1, 311509, Control_c, 0, 64, 73
1, 311509, Control_c, 0, 67, 122
1, 311521, Note_off_c, 0, 59, 63
1, 311524, Control_c, 0, 64, 75
1, 311524, Control_c, 0, 67, 119
1, 311534, Note_off_c, 0, 67, 63
1, 311539, Control_c, 0, 64, 78
1, 311539, Control_c, 0, 67, 117
1, 311554, Control_c, 0, 64, 80
1, 311568, Control_c, 0, 64, 82
1, 311568, Control_c, 0, 67, 113
1, 311583, Control_c, 0, 64, 84
1, 311598, Control_c, 0, 64, 85
1, 311598, Control_c, 0, 67, 111
1, 311612, Control_c, 0, 64, 86
1, 311612, Control_c, 0, 67, 109
1, 311627, Control_c, 0, 64, 87
1, 311627, Control_c, 0, 67, 101
1, 311642, Control_c, 0, 67, 88
1, 311657, Control_c, 0, 64, 87
1, 311657, Control_c, 0, 67, 76
1, 311672, Control_c, 0, 67, 70
1, 311686, Control_c, 0, 64, 88
1, 311686, Control_c, 0, 67, 68
1, 311701, Control_c, 0, 67, 67
1, 311716, Control_c, 0, 64, 88
1, 311716, Control_c, 0, 67, 66
1, 311738, Control_c, 0, 67, 65
1, 311753, Control_c, 0, 64, 89
1, 311753, Control_c, 0, 67, 64
1, 311758, Note_on_c, 0, 59, 41
1, 311768, Control_c, 0, 64, 89
1, 311783, Control_c, 0, 67, 64
1, 311798, Control_c, 0, 64, 90
1, 311812, Control_c, 0, 64, 90
1, 311812, Control_c, 0, 67, 63
1, 311816, Note_on_c, 0, 86, 67
1, 311827, Control_c, 0, 64, 91
1, 311842, Control_c, 0, 64, 91
1, 311842, Control_c, 0, 67, 62
1, 311847, Note_on_c, 0, 74, 35
1, 311851, Note_on_c, 0, 79, 33
1, 311857, Control_c, 0, 64, 92
1, 311872, Control_c, 0, 64, 93
1, 311872, Control_c, 0, 67, 62
1, 311886, Control_c, 0, 64, 93
1, 311901, Control_c, 0, 64, 94
1, 311916, Note_off_c, 0, 59, 43
1, 311916, Control_c, 0, 64, 94
1, 311916, Control_c, 0, 67, 61
1, 311932, Control_c, 0, 64, 95
1, 311932, Control_c, 0, 67, 60
1, 311946, Control_c, 0, 64, 95
1, 311946, Control_c, 0, 67, 60
1, 311963, Control_c, 0, 67, 59
1, 311978, Control_c, 0, 64, 96
1, 311985, Note_off_c, 0, 74, 38
1, 311992, Control_c, 0, 67, 58
1, 311996, Note_off_c, 0, 43, 40
1, 312005, Note_off_c, 0, 86, 61
1, 312007, Control_c, 0, 67, 53
1, 312022, Control_c, 0, 67, 0
1, 312095, Note_on_c, 0, 86, 87
1, 312101, Note_on_c, 0, 74, 54
1, 312101, Note_off_c, 0, 79, 33
1, 312260, Note_off_c, 0, 74, 41
1, 312281, Note_off_c, 0, 86, 57
1, 312298, Note_on_c, 0, 43, 37
1, 312348, Control_c, 0, 64, 95
1, 312354, Note_on_c, 0, 86, 71
1, 312362, Control_c, 0, 64, 91
1, 312367, Note_on_c, 0, 74, 46
1, 312377, Control_c, 0, 64, 81
1, 312378, Note_off_c, 0, 50, 41
1, 312387, Note_on_c, 0, 79, 37
1, 312392, Control_c, 0, 64, 70
1, 312407, Control_c, 0, 64, 61
1, 312422, Control_c, 0, 64, 52
1, 312436, Control_c, 0, 64, 49
1, 312451, Control_c, 0, 64, 50
1, 312466, Control_c, 0, 64, 54
1, 312488, Control_c, 0, 64, 60
1, 312503, Control_c, 0, 64, 63
1, 312518, Control_c, 0, 64, 66
1, 312533, Control_c, 0, 64, 69
1, 312548, Control_c, 0, 64, 71
1, 312562, Control_c, 0, 64, 73
1, 312564, Note_off_c, 0, 74, 49
1, 312576, Note_off_c, 0, 43, 47
1, 312577, Control_c, 0, 64, 75
1, 312581, Note_on_c, 0, 51, 47
1, 312592, Control_c, 0, 64, 77
1, 312607, Control_c, 0, 64, 78
1, 312622, Control_c, 0, 64, 79
1, 312636, Control_c, 0, 64, 80
1, 312646, Note_off_c, 0, 51, 48
1, 312651, Control_c, 0, 64, 81
1, 312666, Control_c, 0, 64, 81
1, 312696, Control_c, 0, 64, 82
1, 312740, Note_off_c, 0, 86, 61
1, 312753, Note_on_c, 0, 84, 74
1, 312767, Note_on_c, 0, 56, 47
1, 312768, Note_on_c, 0, 72, 50
1, 312813, Note_off_c, 0, 79, 41
1, 312837, Note_off_c, 0, 56, 60
1, 312837, Note_off_c, 0, 72, 49
1, 312933, Control_c, 0, 64, 81
1, 312948, Control_c, 0, 64, 74
1, 312951, Note_on_c, 0, 86, 73
1, 312953, Note_on_c, 0, 58, 60
1, 312953, Note_off_c, 0, 84, 60
1, 312963, Control_c, 0, 64, 64
1, 312965, Note_on_c, 0, 79, 32
1, 312978, Control_c, 0, 64, 51
1, 312986, Note_on_c, 0, 74, 29
1, 312992, Control_c, 0, 64, 41
1, 313022, Control_c, 0, 64, 48
1, 313037, Control_c, 0, 64, 57
1, 313052, Control_c, 0, 64, 63
1, 313067, Control_c, 0, 64, 66
1, 313082, Control_c, 0, 64, 68
1, 313096, Control_c, 0, 64, 71
1, 313111, Control_c, 0, 64, 73
1, 313126, Control_c, 0, 64, 74
1, 313141, Note_on_c, 0, 60, 50
1, 313141, Control_c, 0, 64, 76
1, 313144, Note_off_c, 0, 74, 41
1, 313156, Control_c, 0, 64, 77
1, 313171, Control_c, 0, 64, 79
1, 313178, Note_off_c, 0, 58, 28
1, 313185, Control_c, 0, 64, 79
1, 313200, Control_c, 0, 64, 80
1, 313205, Note_off_c, 0, 60, 57
1, 313237, Control_c, 0, 64, 80
1, 313296, Control_c, 0, 67, 39
1, 313311, Control_c, 0, 67, 47
1, 313320, Note_off_c, 0, 86, 59
1, 313326, Control_c, 0, 67, 55
1, 313329, Note_on_c, 0, 84, 74
1, 313341, Note_on_c, 0, 72, 61
1, 313341, Control_c, 0, 67, 60
1, 313342, Note_on_c, 0, 68, 43
1, 313354, Note_off_c, 0, 79, 52
1, 313356, Control_c, 0, 67, 61
1, 313370, Note_off_c, 0, 68, 51
1, 313385, Control_c, 0, 67, 60
1, 313400, Control_c, 0, 67, 58
1, 313406, Note_off_c, 0, 72, 57
1, 313415, Control_c, 0, 67, 55
1, 313429, Control_c, 0, 67, 53
1, 313444, Control_c, 0, 67, 51
1, 313458, Control_c, 0, 67, 49
1, 313473, Control_c, 0, 67, 47
1, 313488, Control_c, 0, 67, 47
1, 313503, Control_c, 0, 64, 78
1, 313503, Control_c, 0, 67, 46
1, 313517, Control_c, 0, 64, 70
1, 313529, Note_on_c, 0, 86, 79
1, 313532, Control_c, 0, 64, 59
1, 313532, Control_c, 0, 67, 45
1, 313537, Note_on_c, 0, 43, 47
1, 313541, Note_off_c, 0, 84, 46
1, 313545, Note_on_c, 0, 79, 43
1, 313547, Control_c, 0, 64, 42
1, 313557, Note_on_c, 0, 74, 43
1, 313563, Control_c, 0, 64, 0
1, 313593, Control_c, 0, 64, 34
1, 313607, Control_c, 0, 64, 50
1, 313610, Note_off_c, 0, 74, 43
1, 313622, Control_c, 0, 64, 59
1, 313637, Control_c, 0, 64, 63
1, 313652, Control_c, 0, 64, 64
1, 313652, Control_c, 0, 67, 46
1, 313667, Control_c, 0, 64, 65
1, 313696, Control_c, 0, 64, 65
1, 313710, Note_off_c, 0, 79, 60
1, 313711, Note_off_c, 0, 86, 63
1, 313711, Control_c, 0, 64, 66
1, 313720, Note_on_c, 0, 49, 47
1, 313722, Note_on_c, 0, 84, 65
1, 313738, Note_on_c, 0, 72, 49
1, 313741, Control_c, 0, 64, 66
1, 313770, Control_c, 0, 64, 67
1, 313780, Note_off_c, 0, 72, 56
1, 313785, Control_c, 0, 64, 67
1, 313815, Control_c, 0, 64, 68
1, 313841, Note_off_c, 0, 49, 53
1, 313860, Control_c, 0, 64, 67
1, 313874, Control_c, 0, 64, 65
1, 313885, Note_off_c, 0, 84, 60
1, 313889, Control_c, 0, 64, 58
1, 313896, Note_on_c, 0, 86, 63
1, 313904, Control_c, 0, 64, 43
1, 313917, Note_on_c, 0, 74, 40
1, 313919, Control_c, 0, 64, 31
1, 313919, Note_on_c, 0, 79, 30
1, 313925, Note_on_c, 0, 50, 40
1, 313933, Control_c, 0, 64, 29
1, 313948, Control_c, 0, 64, 35
1, 313963, Control_c, 0, 64, 47
1, 313963, Control_c, 0, 67, 45
1, 313975, Note_off_c, 0, 74, 52
1, 313985, Control_c, 0, 64, 57
1, 313993, Note_off_c, 0, 43, 39
1, 314000, Control_c, 0, 64, 62
1, 314004, Note_off_c, 0, 86, 62
1, 314012, Note_off_c, 0, 79, 61
1, 314015, Control_c, 0, 64, 65
1, 314015, Control_c, 0, 67, 45
1, 314029, Control_c, 0, 64, 66
1, 314029, Control_c, 0, 67, 43
1, 314031, Note_off_c, 0, 50, 61
1, 314044, Control_c, 0, 64, 67
1, 314044, Control_c, 0, 67, 43
1, 314059, Control_c, 0, 64, 68
1, 314059, Control_c, 0, 67, 41
1, 314074, Control_c, 0, 64, 70
1, 314074, Control_c, 0, 67, 41
1, 314089, Control_c, 0, 64, 72
1, 314089, Control_c, 0, 67, 39
1, 314104, Control_c, 0, 64, 73
1, 314104, Control_c, 0, 67, 38
1, 314107, Note_on_c, 0, 59, 56
1, 314119, Control_c, 0, 67, 37
1, 314133, Control_c, 0, 67, 0
1, 314204, Note_off_c, 0, 59, 58
1, 314222, Control_c, 0, 64, 73
1, 314237, Control_c, 0, 64, 74
1, 314252, Control_c, 0, 64, 75
1, 314259, Note_on_c, 0, 83, 78
1, 314267, Note_on_c, 0, 71, 61
1, 314267, Control_c, 0, 64, 77
1, 314274, Note_on_c, 0, 50, 50
1, 314281, Control_c, 0, 64, 79
1, 314296, Control_c, 0, 64, 81
1, 314311, Control_c, 0, 64, 82
1, 314317, Note_off_c, 0, 71, 57
1, 314326, Control_c, 0, 64, 84
1, 314340, Control_c, 0, 64, 85
1, 314342, Note_off_c, 0, 83, 64
1, 314357, Control_c, 0, 64, 86
1, 314372, Control_c, 0, 64, 87
1, 314386, Control_c, 0, 64, 87
1, 314401, Control_c, 0, 64, 88
1, 314416, Control_c, 0, 64, 88
1, 314428, Note_on_c, 0, 84, 85
1, 314430, Control_c, 0, 64, 89
1, 314439, Note_on_c, 0, 62, 58
1, 314441, Note_off_c, 0, 50, 43
1, 314442, Note_on_c, 0, 72, 66
1, 314445, Note_on_c, 0, 75, 58
1, 314460, Control_c, 0, 64, 89
1, 314463, Note_off_c, 0, 62, 64
1, 314475, Control_c, 0, 64, 90
1, 314483, Note_off_c, 0, 75, 50
1, 314490, Control_c, 0, 64, 90
1, 314518, Note_off_c, 0, 72, 55
1, 314519, Control_c, 0, 64, 91
1, 314549, Control_c, 0, 64, 91
1, 314558, Note_off_c, 0, 84, 63
1, 314599, Note_on_c, 0, 43, 54
1, 314623, Control_c, 0, 64, 91
1, 314638, Control_c, 0, 64, 87
1, 314638, Note_on_c, 0, 86, 84
1, 314652, Control_c, 0, 64, 76
1, 314661, Note_on_c, 0, 74, 64
1, 314661, Note_on_c, 0, 77, 63
1, 314667, Control_c, 0, 64, 63
1, 314682, Control_c, 0, 64, 48
1, 314697, Control_c, 0, 64, 42
1, 314712, Control_c, 0, 64, 44
1, 314734, Control_c, 0, 64, 55
1, 314749, Control_c, 0, 64, 63
1, 314754, Note_off_c, 0, 77, 64
1, 314763, Control_c, 0, 64, 68
1, 314778, Control_c, 0, 64, 72
1, 314790, Note_off_c, 0, 43, 60
1, 314793, Control_c, 0, 64, 74
1, 314802, Note_off_c, 0, 74, 55
1, 314808, Control_c, 0, 64, 75
1, 314813, Note_off_c, 0, 86, 66
1, 314823, Control_c, 0, 64, 78
1, 314830, Note_on_c, 0, 51, 58
1, 314837, Control_c, 0, 64, 80
1, 314852, Control_c, 0, 64, 82
1, 314867, Control_c, 0, 64, 84
1, 314882, Control_c, 0, 64, 86
1, 314897, Control_c, 0, 64, 88
1, 314912, Control_c, 0, 64, 90
1, 314927, Control_c, 0, 64, 93
1, 314942, Control_c, 0, 64, 94
1, 314956, Control_c, 0, 64, 96
1, 314968, Note_off_c, 0, 51, 61
1, 314986, Control_c, 0, 64, 98
1, 314999, Note_on_c, 0, 87, 82
1, 315009, Note_on_c, 0, 56, 60
1, 315014, Note_on_c, 0, 75, 65
1, 315016, Control_c, 0, 64, 100
1, 315045, Control_c, 0, 64, 103
1, 315046, Note_off_c, 0, 56, 63
1, 315075, Control_c, 0, 64, 105
1, 315081, Note_off_c, 0, 75, 62
1, 315109, Note_off_c, 0, 87, 65
1, 315119, Control_c, 0, 64, 107
1, 315179, Control_c, 0, 64, 104
1, 315187, Note_on_c, 0, 86, 92
1, 315194, Control_c, 0, 64, 91
1, 315198, Note_on_c, 0, 60, 53
1, 315204, Note_on_c, 0, 77, 66
1, 315206, Note_on_c, 0, 74, 65
1, 315209, Control_c, 0, 64, 76
1, 315224, Control_c, 0, 64, 63
1, 315239, Control_c, 0, 64, 57
1, 315253, Control_c, 0, 64, 58
1, 315268, Control_c, 0, 64, 62
1, 315283, Control_c, 0, 64, 67
1, 315298, Control_c, 0, 64, 73
1, 315312, Note_off_c, 0, 77, 63
1, 315313, Control_c, 0, 64, 78
1, 315327, Control_c, 0, 64, 80
1, 315328, Note_off_c, 0, 86, 60
1, 315331, Note_off_c, 0, 74, 63
1, 315336, Note_off_c, 0, 60, 61
1, 315342, Control_c, 0, 64, 83
1, 315357, Control_c, 0, 64, 84
1, 315359, Note_on_c, 0, 62, 60
1, 315372, Control_c, 0, 64, 86
1, 315386, Control_c, 0, 64, 88
1, 315401, Control_c, 0, 64, 89
1, 315416, Control_c, 0, 64, 91
1, 315425, Note_off_c, 0, 62, 58
1, 315431, Control_c, 0, 64, 91
1, 315446, Control_c, 0, 64, 92
1, 315550, Note_on_c, 0, 68, 65
1, 315556, Note_on_c, 0, 84, 82
1, 315565, Note_on_c, 0, 72, 67
1, 315577, Note_off_c, 0, 68, 68
1, 315608, Note_off_c, 0, 84, 65
1, 315616, Note_off_c, 0, 72, 62
1, 315646, Control_c, 0, 64, 92
1, 315704, Control_c, 0, 64, 92
1, 315719, Control_c, 0, 64, 88
1, 315734, Control_c, 0, 64, 77
1, 315749, Control_c, 0, 64, 64
1, 315753, Note_on_c, 0, 82, 77
1, 315755, Note_on_c, 0, 43, 49
1, 315761, Note_on_c, 0, 70, 73
1, 315764, Control_c, 0, 64, 59
1, 315773, Note_on_c, 0, 74, 29
1, 315793, Control_c, 0, 64, 62
1, 315804, Note_off_c, 0, 74, 44
1, 315808, Control_c, 0, 64, 66
1, 315823, Control_c, 0, 64, 72
1, 315827, Note_off_c, 0, 82, 63
1, 315827, Note_off_c, 0, 70, 59
1, 315838, Control_c, 0, 64, 75
1, 315852, Control_c, 0, 64, 74
1, 315867, Control_c, 0, 64, 73
1, 315882, Control_c, 0, 64, 70
1, 315896, Control_c, 0, 64, 64
1, 315911, Control_c, 0, 64, 61
1, 315930, Note_on_c, 0, 80, 72
1, 315941, Control_c, 0, 64, 64
1, 315943, Note_on_c, 0, 72, 59
1, 315947, Note_on_c, 0, 68, 66
1, 315949, Note_on_c, 0, 49, 51
1, 315957, Control_c, 0, 64, 68
1, 315972, Control_c, 0, 64, 73
1, 315987, Control_c, 0, 64, 76
1, 316001, Control_c, 0, 64, 77
1, 316009, Note_off_c, 0, 72, 60
1, 316016, Control_c, 0, 64, 78
1, 316031, Note_off_c, 0, 80, 57
1, 316031, Control_c, 0, 64, 78
1, 316044, Note_off_c, 0, 68, 62
1, 316075, Control_c, 0, 64, 75
1, 316090, Control_c, 0, 64, 66
1, 316096, Note_off_c, 0, 49, 56
1, 316105, Control_c, 0, 64, 52
1, 316120, Control_c, 0, 64, 33
1, 316122, Note_on_c, 0, 79, 65
1, 316126, Note_on_c, 0, 71, 52
1, 316135, Control_c, 0, 64, 0
1, 316139, Note_on_c, 0, 67, 46
1, 316146, Note_on_c, 0, 50, 52
1, 316149, Control_c, 0, 64, 34
1, 316164, Note_off_c, 0, 43, 44
1, 316164, Control_c, 0, 64, 51
1, 316179, Control_c, 0, 64, 62
1, 316185, Note_off_c, 0, 50, 64
1, 316194, Control_c, 0, 64, 68
1, 316208, Control_c, 0, 64, 72
1, 316231, Control_c, 0, 64, 74
1, 316246, Control_c, 0, 64, 75
1, 316261, Control_c, 0, 64, 76
1, 316276, Control_c, 0, 64, 78
1, 316290, Control_c, 0, 64, 79
1, 316305, Control_c, 0, 64, 80
1, 316320, Control_c, 0, 64, 81
1, 316334, Control_c, 0, 64, 82
1, 316338, Note_on_c, 0, 62, 56
1, 316339, Note_off_c, 0, 67, 42
1, 316348, Note_off_c, 0, 71, 57
1, 316349, Control_c, 0, 64, 82
1, 316364, Control_c, 0, 64, 84
1, 316375, Note_off_c, 0, 79, 39
1, 316379, Control_c, 0, 64, 85
1, 316394, Control_c, 0, 64, 86
1, 316408, Control_c, 0, 64, 87
1, 316423, Control_c, 0, 64, 88
1, 316438, Control_c, 0, 64, 89
1, 316453, Control_c, 0, 64, 89
1, 316468, Control_c, 0, 64, 90
1, 316477, Note_off_c, 0, 62, 51
1, 316508, Note_on_c, 0, 79, 79
1, 316524, Note_on_c, 0, 67, 65
1, 316525, Note_on_c, 0, 74, 63
1, 316527, Control_c, 0, 64, 90
1, 316529, Note_on_c, 0, 71, 55
1, 316557, Control_c, 0, 64, 91
1, 316603, Note_off_c, 0, 71, 46
1, 316631, Control_c, 0, 64, 91
1, 316646, Note_off_c, 0, 79, 61
1, 316653, Note_off_c, 0, 67, 38
1, 316700, Note_off_c, 0, 74, 48
1, 316725, Note_on_c, 0, 62, 60
1, 316733, Note_on_c, 0, 79, 86
1, 316746, Note_off_c, 0, 62, 64
1, 316751, Note_on_c, 0, 67, 63
1, 316887, Note_off_c, 0, 67, 54
1, 316894, Note_off_c, 0, 79, 61
1, 316913, Control_c, 0, 64, 91
1, 316914, Note_on_c, 0, 43, 42
1, 316943, Control_c, 0, 64, 90
1, 316957, Control_c, 0, 64, 86
1, 316980, Control_c, 0, 64, 74
1, 316984, Note_on_c, 0, 79, 81
1, 316995, Control_c, 0, 64, 62
1, 317007, Note_on_c, 0, 72, 44
1, 317010, Control_c, 0, 64, 43
1, 317012, Note_on_c, 0, 67, 45
1, 317025, Control_c, 0, 64, 0
1, 317084, Control_c, 0, 64, 45
1, 317099, Control_c, 0, 64, 58
1, 317113, Control_c, 0, 64, 64
1, 317128, Control_c, 0, 64, 67
1, 317143, Control_c, 0, 64, 70
1, 317150, Note_off_c, 0, 43, 61
1, 317157, Control_c, 0, 64, 71
1, 317172, Control_c, 0, 64, 73
1, 317183, Note_on_c, 0, 51, 56
1, 317187, Control_c, 0, 64, 75
1, 317202, Control_c, 0, 64, 77
1, 317210, Note_off_c, 0, 67, 38
1, 317217, Control_c, 0, 64, 78
1, 317231, Control_c, 0, 64, 79
1, 317246, Control_c, 0, 64, 80
1, 317261, Control_c, 0, 64, 80
1, 317273, Note_off_c, 0, 79, 58
1, 317276, Control_c, 0, 64, 81
1, 317291, Control_c, 0, 64, 81
1, 317293, Note_off_c, 0, 51, 45
1, 317335, Control_c, 0, 64, 82
1, 317350, Note_on_c, 0, 77, 82
1, 317360, Note_on_c, 0, 56, 56
1, 317365, Note_on_c, 0, 65, 61
1, 317380, Control_c, 0, 64, 82
1, 317386, Note_off_c, 0, 72, 39
1, 317404, Note_off_c, 0, 56, 62
1, 317410, Control_c, 0, 64, 83
1, 317424, Control_c, 0, 64, 83
1, 317431, Note_off_c, 0, 65, 57
1, 317454, Control_c, 0, 64, 84
1, 317537, Note_on_c, 0, 79, 73
1, 317539, Note_off_c, 0, 77, 60
1, 317544, Control_c, 0, 64, 79
1, 317547, Note_on_c, 0, 61, 55
1, 317551, Note_on_c, 0, 72, 49
1, 317559, Control_c, 0, 64, 68
1, 317568, Note_on_c, 0, 67, 46
1, 317573, Control_c, 0, 64, 50
1, 317588, Control_c, 0, 64, 30
1, 317603, Control_c, 0, 64, 0
1, 317618, Control_c, 0, 64, 32
1, 317633, Control_c, 0, 64, 47
1, 317647, Control_c, 0, 64, 59
1, 317662, Control_c, 0, 64, 64
1, 317671, Note_off_c, 0, 61, 59
1, 317677, Control_c, 0, 64, 68
1, 317692, Control_c, 0, 64, 70
1, 317707, Control_c, 0, 64, 72
1, 317716, Note_off_c, 0, 67, 60
1, 317729, Control_c, 0, 64, 73
1, 317735, Note_on_c, 0, 62, 53
1, 317744, Control_c, 0, 64, 74
1, 317759, Control_c, 0, 64, 76
1, 317773, Control_c, 0, 64, 77
1, 317788, Control_c, 0, 64, 78
1, 317803, Control_c, 0, 64, 79
1, 317818, Control_c, 0, 64, 79
1, 317842, Note_off_c, 0, 62, 51
1, 317880, Note_off_c, 0, 79, 61
1, 317909, Note_on_c, 0, 77, 75
1, 317910, Note_on_c, 0, 68, 51
1, 317914, Note_off_c, 0, 72, 59
1, 317920, Note_on_c, 0, 65, 62
1, 317934, Note_off_c, 0, 68, 60
1, 317951, Control_c, 0, 64, 80
1, 317989, Note_off_c, 0, 65, 57
1, 318075, Note_off_c, 0, 77, 60
1, 318084, Control_c, 0, 64, 79
1, 318098, Control_c, 0, 64, 73
1, 318109, Note_on_c, 0, 79, 63
1, 318113, Control_c, 0, 64, 62
1, 318121, Note_on_c, 0, 43, 48
1, 318127, Note_on_c, 0, 67, 51
1, 318128, Control_c, 0, 64, 44
1, 318133, Note_on_c, 0, 71, 28
1, 318143, Control_c, 0, 64, 0
1, 318188, Control_c, 0, 64, 43
1, 318198, Note_off_c, 0, 67, 55
1, 318203, Control_c, 0, 64, 54
1, 318218, Control_c, 0, 64, 60
1, 318233, Control_c, 0, 64, 62
1, 318247, Control_c, 0, 64, 62
1, 318277, Control_c, 0, 64, 63
1, 318280, Note_off_c, 0, 79, 58
1, 318292, Control_c, 0, 64, 63
1, 318304, Note_on_c, 0, 77, 65
1, 318306, Control_c, 0, 64, 64
1, 318307, Note_on_c, 0, 49, 46
1, 318312, Note_off_c, 0, 71, 51
1, 318321, Control_c, 0, 64, 65
1, 318322, Note_on_c, 0, 65, 41
1, 318336, Control_c, 0, 64, 66
1, 318352, Control_c, 0, 64, 67
1, 318358, Note_off_c, 0, 65, 50
1, 318367, Control_c, 0, 64, 68
1, 318382, Control_c, 0, 64, 68
1, 318396, Control_c, 0, 64, 69
1, 318411, Control_c, 0, 64, 69
1, 318441, Control_c, 0, 64, 69
1, 318442, Note_off_c, 0, 49, 56
1, 318447, Note_off_c, 0, 77, 54
1, 318456, Control_c, 0, 64, 67
1, 318477, Control_c, 0, 64, 61
1, 318486, Note_on_c, 0, 71, 30
1, 318489, Note_on_c, 0, 79, 54
1, 318492, Control_c, 0, 64, 45
1, 318497, Note_on_c, 0, 67, 42
1, 318507, Control_c, 0, 64, 30
1, 318510, Note_on_c, 0, 50, 47
1, 318522, Control_c, 0, 64, 0
1, 318537, Control_c, 0, 64, 30
1, 318543, Note_off_c, 0, 43, 37
1, 318551, Control_c, 0, 64, 43
1, 318566, Control_c, 0, 64, 56
1, 318581, Control_c, 0, 64, 64
1, 318596, Control_c, 0, 64, 69
1, 318597, Note_off_c, 0, 50, 62
1, 318611, Control_c, 0, 64, 72
1, 318626, Control_c, 0, 64, 73
1, 318640, Note_off_c, 0, 79, 55
1, 318641, Control_c, 0, 64, 74
1, 318656, Control_c, 0, 64, 76
1, 318664, Note_off_c, 0, 67, 42
1, 318665, Note_off_c, 0, 71, 40
1, 318671, Control_c, 0, 64, 78
1, 318680, Note_on_c, 0, 59, 58
1, 318686, Control_c, 0, 64, 79
1, 318701, Control_c, 0, 64, 82
1, 318715, Control_c, 0, 64, 83
1, 318730, Control_c, 0, 64, 84
1, 318745, Control_c, 0, 64, 85
1, 318760, Control_c, 0, 64, 86
1, 318775, Control_c, 0, 64, 87
1, 318778, Note_off_c, 0, 59, 55
1, 318790, Control_c, 0, 64, 88
1, 318804, Control_c, 0, 64, 90
1, 318819, Control_c, 0, 64, 92
1, 318834, Note_on_c, 0, 79, 77
1, 318834, Control_c, 0, 64, 93
1, 318843, Note_on_c, 0, 67, 66
1, 318847, Note_on_c, 0, 50, 58
1, 318849, Control_c, 0, 64, 94
1, 318864, Control_c, 0, 64, 95
1, 318872, Note_off_c, 0, 67, 68
1, 318893, Control_c, 0, 64, 97
1, 318896, Note_off_c, 0, 79, 64
1, 319006, Note_on_c, 0, 80, 87
1, 319008, Note_on_c, 0, 68, 74
1, 319011, Control_c, 0, 64, 99
1, 319012, Note_on_c, 0, 62, 64
1, 319012, Poly_aftertouch_c, 0, 72, 127
1, 319014, Note_off_c, 0, 50, 52
1, 319045, Poly_aftertouch_c, 0, 72, 0
1, 319046, Note_off_c, 0, 62, 65
1, 319091, Note_off_c, 0, 68, 59
1, 319120, Note_off_c, 0, 80, 63
1, 319195, Note_on_c, 0, 43, 52
1, 319205, Control_c, 0, 64, 97
1, 319227, Control_c, 0, 64, 86
1, 319228, Note_on_c, 0, 74, 58
1, 319228, Note_on_c, 0, 82, 87
1, 319240, Note_on_c, 0, 70, 63
1, 319242, Control_c, 0, 64, 70
1, 319257, Control_c, 0, 64, 54
1, 319268, Note_off_c, 0, 74, 55
1, 319272, Control_c, 0, 64, 0
1, 319316, Control_c, 0, 64, 46
1, 319331, Control_c, 0, 64, 60
1, 319346, Control_c, 0, 64, 67
1, 319360, Control_c, 0, 64, 73
1, 319375, Control_c, 0, 64, 77
1, 319377, Note_off_c, 0, 43, 61
1, 319383, Note_off_c, 0, 82, 60
1, 319390, Control_c, 0, 64, 79
1, 319392, Note_off_c, 0, 70, 63
1, 319405, Control_c, 0, 64, 81
1, 319412, Note_on_c, 0, 51, 65
1, 319419, Control_c, 0, 64, 84
1, 319434, Control_c, 0, 64, 86
1, 319449, Control_c, 0, 64, 87
1, 319464, Control_c, 0, 64, 88
1, 319479, Control_c, 0, 64, 88
1, 319508, Control_c, 0, 64, 89
1, 319547, Note_off_c, 0, 51, 60
1, 319578, Note_on_c, 0, 84, 92
1, 319586, Note_on_c, 0, 56, 64
1, 319595, Note_on_c, 0, 72, 59
1, 319596, Note_on_c, 0, 75, 62
1, 319633, Note_off_c, 0, 72, 51
1, 319636, Note_off_c, 0, 56, 60
1, 319642, Control_c, 0, 64, 89
1, 319652, Note_off_c, 0, 84, 64
1, 319663, Note_off_c, 0, 75, 59
1, 319774, Note_on_c, 0, 82, 82
1, 319775, Control_c, 0, 64, 85
1, 319783, Note_on_c, 0, 61, 54
1, 319788, Note_on_c, 0, 74, 55
1, 319790, Note_on_c, 0, 70, 64
1, 319790, Control_c, 0, 64, 73
1, 319805, Control_c, 0, 64, 60
1, 319819, Control_c, 0, 64, 43
1, 319834, Control_c, 0, 64, 37
1, 319849, Control_c, 0, 64, 40
1, 319864, Control_c, 0, 64, 50
1, 319876, Note_off_c, 0, 74, 63
1, 319878, Control_c, 0, 64, 59
1, 319893, Control_c, 0, 64, 64
1, 319908, Note_off_c, 0, 82, 62
1, 319908, Control_c, 0, 64, 67
1, 319923, Control_c, 0, 64, 69
1, 319938, Note_off_c, 0, 70, 57
1, 319938, Control_c, 0, 64, 71
1, 319954, Control_c, 0, 64, 72
1, 319973, Note_on_c, 0, 62, 52
1, 319976, Control_c, 0, 64, 74
1, 319991, Control_c, 0, 64, 75
1, 320006, Control_c, 0, 64, 76
1, 320021, Control_c, 0, 64, 77
1, 320036, Control_c, 0, 64, 78
1, 320050, Control_c, 0, 64, 78
1, 320065, Control_c, 0, 64, 79
1, 320075, Note_off_c, 0, 62, 59
1, 320080, Control_c, 0, 64, 79
1, 320110, Control_c, 0, 64, 80
1, 320124, Control_c, 0, 67, 39
1, 320125, Note_off_c, 0, 61, 22
1, 320139, Control_c, 0, 67, 58
1, 320149, Note_on_c, 0, 80, 79
1, 320150, Note_on_c, 0, 65, 46
1, 320154, Control_c, 0, 64, 80
1, 320154, Control_c, 0, 67, 78
1, 320161, Note_on_c, 0, 68, 60
1, 320168, Control_c, 0, 67, 93
1, 320174, Note_off_c, 0, 65, 57
1, 320182, Control_c, 0, 67, 101
1, 320212, Poly_aftertouch_c, 0, 72, 127
1, 320227, Control_c, 0, 64, 81
1, 320242, Control_c, 0, 67, 98
1, 320243, Poly_aftertouch_c, 0, 72, 0
1, 320257, Control_c, 0, 67, 96
1, 320271, Control_c, 0, 67, 94
1, 320274, Note_off_c, 0, 68, 54
1, 320277, Note_off_c, 0, 80, 61
1, 320286, Control_c, 0, 67, 92
1, 320301, Control_c, 0, 67, 92
1, 320316, Control_c, 0, 67, 91
1, 320331, Control_c, 0, 67, 90
1, 320374, Note_on_c, 0, 43, 52
1, 320390, Control_c, 0, 67, 91
1, 320405, Control_c, 0, 64, 78
1, 320405, Control_c, 0, 67, 92
1, 320420, Control_c, 0, 64, 70
1, 320420, Control_c, 0, 67, 93
1, 320426, Note_on_c, 0, 77, 73
1, 320435, Control_c, 0, 64, 58
1, 320435, Control_c, 0, 67, 94
1, 320449, Control_c, 0, 64, 48
1, 320453, Note_on_c, 0, 65, 45
1, 320461, Note_on_c, 0, 67, 44
1, 320464, Control_c, 0, 64, 45
1, 320479, Control_c, 0, 64, 46
1, 320493, Control_c, 0, 64, 53
1, 320508, Control_c, 0, 64, 60
1, 320520, Note_off_c, 0, 67, 58
1, 320523, Control_c, 0, 64, 63
1, 320531, Note_off_c, 0, 65, 63
1, 320538, Control_c, 0, 64, 65
1, 320538, Control_c, 0, 67, 93
1, 320553, Control_c, 0, 64, 66
1, 320553, Control_c, 0, 67, 92
1, 320563, Poly_aftertouch_c, 0, 71, 127
1, 320568, Control_c, 0, 64, 67
1, 320568, Control_c, 0, 67, 92
1, 320582, Control_c, 0, 64, 68
1, 320597, Note_off_c, 0, 77, 60
1, 320597, Control_c, 0, 64, 69
1, 320597, Control_c, 0, 67, 91
1, 320612, Control_c, 0, 64, 70
1, 320612, Control_c, 0, 67, 90
1, 320627, Control_c, 0, 64, 70
1, 320642, Note_off_c, 0, 43, 35
1, 320653, Note_on_c, 0, 75, 59
1, 320667, Note_on_c, 0, 50, 49
1, 320672, Note_on_c, 0, 63, 54
1, 320677, Poly_aftertouch_c, 0, 71, 0
1, 320686, Control_c, 0, 64, 71
1, 320716, Control_c, 0, 64, 71
1, 320716, Control_c, 0, 67, 90
1, 320742, Note_off_c, 0, 63, 61
1, 320751, Note_off_c, 0, 75, 63
1, 320754, Control_c, 0, 64, 72
1, 320790, Note_off_c, 0, 50, 60
1, 320828, Control_c, 0, 64, 70
1, 320843, Control_c, 0, 64, 63
1, 320847, Note_on_c, 0, 74, 66
1, 320858, Control_c, 0, 64, 54
1, 320862, Note_on_c, 0, 59, 42
1, 320867, Note_on_c, 0, 62, 43
1, 320872, Control_c, 0, 64, 46
1, 320887, Control_c, 0, 64, 41
1, 320917, Control_c, 0, 64, 45
1, 320931, Control_c, 0, 64, 53
1, 320946, Control_c, 0, 64, 60
1, 320961, Control_c, 0, 64, 64
1, 320961, Control_c, 0, 67, 89
1, 320976, Control_c, 0, 64, 66
1, 320976, Control_c, 0, 67, 88
1, 320991, Control_c, 0, 64, 68
1, 320991, Control_c, 0, 67, 87
1, 320992, Note_off_c, 0, 59, 64
1, 321001, Note_off_c, 0, 74, 62
1, 321005, Control_c, 0, 64, 70
1, 321005, Control_c, 0, 67, 86
1, 321020, Note_off_c, 0, 62, 36
1, 321020, Control_c, 0, 64, 72
1, 321020, Control_c, 0, 67, 83
1, 321033, Note_on_c, 0, 58, 57
1, 321035, Control_c, 0, 64, 73
1, 321035, Control_c, 0, 67, 81
1, 321050, Control_c, 0, 64, 75
1, 321050, Control_c, 0, 67, 79
1, 321065, Control_c, 0, 64, 76
1, 321065, Control_c, 0, 67, 77
1, 321079, Control_c, 0, 64, 77
1, 321079, Control_c, 0, 67, 75
1, 321094, Control_c, 0, 64, 78
1, 321094, Control_c, 0, 67, 72
1, 321109, Control_c, 0, 64, 79
1, 321109, Control_c, 0, 67, 70
1, 321124, Control_c, 0, 64, 79
1, 321124, Control_c, 0, 67, 65
1, 321139, Control_c, 0, 64, 80
1, 321139, Control_c, 0, 67, 60
1, 321154, Control_c, 0, 64, 81
1, 321154, Control_c, 0, 67, 49
1, 321169, Control_c, 0, 64, 82
1, 321169, Control_c, 0, 67, 37
1, 321184, Control_c, 0, 64, 83
1, 321184, Control_c, 0, 67, 0
1, 321192, Note_off_c, 0, 58, 57
1, 321194, Note_on_c, 0, 74, 87
1, 321198, Control_c, 0, 64, 84
1, 321205, Note_on_c, 0, 62, 65
1, 321210, Note_on_c, 0, 59, 60
1, 321213, Control_c, 0, 64, 84
1, 321228, Control_c, 0, 64, 85
1, 321238, Note_off_c, 0, 62, 66
1, 321243, Control_c, 0, 64, 86
1, 321258, Control_c, 0, 64, 87
1, 321265, Note_off_c, 0, 74, 63
1, 321287, Control_c, 0, 64, 88
1, 321316, Control_c, 0, 64, 88
1, 321346, Control_c, 0, 64, 89
1, 321371, Note_on_c, 0, 75, 89
1, 321374, Note_on_c, 0, 67, 50
1, 321376, Control_c, 0, 64, 89
1, 321382, Note_on_c, 0, 63, 67
1, 321390, Control_c, 0, 64, 90
1, 321397, Note_off_c, 0, 67, 58
1, 321404, Note_off_c, 0, 59, 64
1, 321420, Control_c, 0, 64, 90
1, 321435, Note_off_c, 0, 63, 63
1, 321435, Control_c, 0, 64, 91
1, 321481, Poly_aftertouch_c, 0, 65, 0
1, 321493, Note_off_c, 0, 75, 62
1, 321577, Control_c, 0, 64, 87
1, 321577, Note_on_c, 0, 43, 48
1, 321589, Note_on_c, 0, 77, 82
1, 321592, Control_c, 0, 64, 77
1, 321607, Control_c, 0, 64, 64
1, 321610, Note_on_c, 0, 65, 45
1, 321613, Note_on_c, 0, 68, 55
1, 321621, Control_c, 0, 64, 48
1, 321636, Control_c, 0, 64, 35
1, 321667, Control_c, 0, 64, 46
1, 321681, Control_c, 0, 64, 58
1, 321696, Control_c, 0, 64, 64
1, 321711, Note_off_c, 0, 43, 56
1, 321711, Control_c, 0, 64, 67
1, 321726, Control_c, 0, 64, 70
1, 321741, Control_c, 0, 64, 72
1, 321748, Note_off_c, 0, 65, 62
1, 321750, Note_off_c, 0, 77, 63
1, 321755, Control_c, 0, 64, 73
1, 321770, Control_c, 0, 64, 75
1, 321777, Note_on_c, 0, 51, 55
1, 321785, Control_c, 0, 64, 77
1, 321800, Control_c, 0, 64, 79
1, 321810, Note_off_c, 0, 68, 63
1, 321815, Control_c, 0, 64, 80
1, 321829, Control_c, 0, 64, 81
1, 321844, Control_c, 0, 64, 82
1, 321859, Control_c, 0, 64, 83
1, 321870, Note_off_c, 0, 51, 57
1, 321874, Control_c, 0, 64, 84
1, 321889, Control_c, 0, 64, 85
1, 321903, Control_c, 0, 64, 85
1, 321918, Control_c, 0, 64, 86
1, 321941, Note_on_c, 0, 56, 54
1, 321941, Note_on_c, 0, 75, 80
1, 321947, Control_c, 0, 64, 86
1, 321962, Note_on_c, 0, 63, 58
1, 321962, Control_c, 0, 64, 87
1, 321976, Note_off_c, 0, 56, 64
1, 321977, Control_c, 0, 64, 87
1, 321978, Note_on_c, 0, 67, 12
1, 321992, Control_c, 0, 64, 88
1, 322003, Note_off_c, 0, 63, 60
1, 322028, Note_off_c, 0, 67, 49
1, 322036, Control_c, 0, 64, 88
1, 322042, Note_off_c, 0, 75, 65
1, 322111, Control_c, 0, 64, 88
1, 322120, Note_on_c, 0, 74, 80
1, 322126, Control_c, 0, 64, 84
1, 322135, Note_on_c, 0, 60, 57
1, 322140, Control_c, 0, 64, 73
1, 322146, Note_on_c, 0, 62, 48
1, 322152, Note_on_c, 0, 65, 47
1, 322155, Control_c, 0, 64, 62
1, 322170, Control_c, 0, 64, 47
1, 322185, Control_c, 0, 64, 43
1, 322200, Control_c, 0, 64, 46
1, 322221, Control_c, 0, 64, 55
1, 322236, Control_c, 0, 64, 62
1, 322251, Control_c, 0, 64, 67
1, 322259, Note_off_c, 0, 65, 58
1, 322266, Control_c, 0, 64, 71
1, 322276, Note_off_c, 0, 74, 60
1, 322281, Note_off_c, 0, 62, 62
1, 322281, Control_c, 0, 64, 75
1, 322282, Note_off_c, 0, 60, 62
1, 322295, Control_c, 0, 64, 77
1, 322299, Note_on_c, 0, 63, 62
1, 322310, Control_c, 0, 64, 79
1, 322325, Control_c, 0, 64, 81
1, 322341, Control_c, 0, 64, 84
1, 322356, Control_c, 0, 64, 86
1, 322370, Control_c, 0, 64, 87
1, 322385, Control_c, 0, 64, 89
1, 322400, Control_c, 0, 64, 90
1, 322415, Control_c, 0, 64, 91
1, 322430, Control_c, 0, 64, 92
1, 322445, Control_c, 0, 64, 92
1, 322459, Control_c, 0, 64, 93
1, 322470, Note_on_c, 0, 68, 49
1, 322474, Note_on_c, 0, 72, 84
1, 322474, Control_c, 0, 64, 93
1, 322482, Note_on_c, 0, 60, 65
1, 322501, Note_off_c, 0, 68, 66
1, 322504, Control_c, 0, 64, 94
1, 322519, Control_c, 0, 64, 94
1, 322528, Note_off_c, 0, 63, 56
1, 322534, Control_c, 0, 64, 95
1, 322549, Control_c, 0, 64, 95
1, 322561, Note_off_c, 0, 60, 58
1, 322564, Control_c, 0, 64, 96
1, 322596, Note_off_c, 0, 72, 63
1, 322652, Control_c, 0, 64, 95
1, 322666, Note_on_c, 0, 74, 91
1, 322667, Control_c, 0, 64, 87
1, 322682, Control_c, 0, 64, 71
1, 322688, Note_on_c, 0, 43, 50
1, 322688, Note_on_c, 0, 62, 55
1, 322694, Note_on_c, 0, 65, 52
1, 322696, Control_c, 0, 64, 59
1, 322711, Control_c, 0, 64, 49
1, 322726, Control_c, 0, 64, 48
1, 322741, Control_c, 0, 64, 51
1, 322756, Control_c, 0, 64, 59
1, 322770, Control_c, 0, 64, 64
1, 322785, Control_c, 0, 64, 67
1, 322788, Note_off_c, 0, 65, 63
1, 322800, Control_c, 0, 64, 70
1, 322815, Control_c, 0, 64, 72
1, 322830, Control_c, 0, 64, 74
1, 322844, Control_c, 0, 64, 76
1, 322847, Note_off_c, 0, 62, 59
1, 322856, Note_on_c, 0, 49, 59
1, 322859, Control_c, 0, 64, 79
1, 322865, Note_off_c, 0, 74, 63
1, 322874, Control_c, 0, 64, 81
1, 322889, Control_c, 0, 64, 84
1, 322904, Control_c, 0, 64, 86
1, 322919, Control_c, 0, 64, 87
1, 322933, Control_c, 0, 64, 89
1, 322948, Control_c, 0, 64, 90
1, 322970, Control_c, 0, 64, 92
1, 322985, Control_c, 0, 64, 93
1, 323000, Control_c, 0, 64, 95
1, 323004, Note_off_c, 0, 43, 58
1, 323015, Control_c, 0, 64, 96
1, 323020, Note_off_c, 0, 49, 57
1, 323035, Note_on_c, 0, 75, 84
1, 323047, Note_on_c, 0, 50, 56
1, 323049, Note_on_c, 0, 63, 64
1, 323059, Control_c, 0, 64, 98
1, 323089, Control_c, 0, 64, 100
1, 323100, Poly_aftertouch_c, 0, 67, 127
1, 323112, Note_off_c, 0, 63, 62
1, 323118, Control_c, 0, 64, 102
1, 323136, Note_off_c, 0, 50, 62
1, 323145, Poly_aftertouch_c, 0, 67, 0
1, 323150, Note_off_c, 0, 75, 65
1, 323164, Control_c, 0, 64, 104
1, 323208, Control_c, 0, 64, 100
1, 323220, Note_on_c, 0, 74, 94
1, 323223, Control_c, 0, 64, 87
1, 323227, Note_on_c, 0, 58, 65
1, 323238, Control_c, 0, 64, 73
1, 323239, Note_on_c, 0, 62, 60
1, 323251, Note_on_c, 0, 65, 47
1, 323253, Control_c, 0, 64, 61
1, 323267, Control_c, 0, 64, 54
1, 323282, Control_c, 0, 64, 54
1, 323297, Control_c, 0, 64, 60
1, 323307, Note_off_c, 0, 62, 0
1, 323307, Note_on_c, 0, 62, 3
1, 323312, Control_c, 0, 64, 66
1, 323316, Note_off_c, 0, 65, 0
1, 323316, Note_on_c, 0, 65, 7
1, 323327, Control_c, 0, 64, 72
1, 323342, Control_c, 0, 64, 78
1, 323357, Control_c, 0, 64, 81
1, 323362, Note_off_c, 0, 58, 61
1, 323372, Control_c, 0, 64, 83
1, 323387, Control_c, 0, 64, 86
1, 323401, Control_c, 0, 64, 89
1, 323403, Note_on_c, 0, 50, 61
1, 323410, Note_off_c, 0, 65, 53
1, 323416, Control_c, 0, 64, 93
1, 323417, Note_off_c, 0, 62, 50
1, 323423, Note_off_c, 0, 74, 62
1, 323431, Control_c, 0, 64, 96
1, 323446, Control_c, 0, 64, 99
1, 323461, Control_c, 0, 64, 101
1, 323475, Control_c, 0, 64, 103
1, 323490, Control_c, 0, 64, 105
1, 323505, Control_c, 0, 64, 108
1, 323534, Control_c, 0, 64, 110
1, 323564, Control_c, 0, 64, 113
1, 323587, Note_on_c, 0, 72, 91
1, 323598, Note_on_c, 0, 62, 56
1, 323610, Note_on_c, 0, 60, 60
1, 323626, Note_off_c, 0, 62, 65
1, 323653, Control_c, 0, 64, 115
1, 323675, Poly_aftertouch_c, 0, 63, 0
1, 323702, Poly_aftertouch_c, 0, 63, 0
1, 323705, Note_off_c, 0, 50, 62
1, 323762, Note_off_c, 0, 60, 57
1, 323804, Note_off_c, 0, 72, 60
1, 323867, Note_on_c, 0, 43, 55
1, 323876, Note_on_c, 0, 56, 48
1, 323882, Control_c, 0, 64, 113
1, 323897, Control_c, 0, 64, 108
1, 323907, Note_on_c, 0, 74, 85
1, 323911, Control_c, 0, 64, 101
1, 323921, Note_on_c, 0, 62, 56
1, 323921, Note_on_c, 0, 65, 56
1, 323926, Control_c, 0, 64, 93
1, 323941, Control_c, 0, 64, 84
1, 323956, Control_c, 0, 64, 74
1, 323971, Control_c, 0, 64, 64
1, 323986, Control_c, 0, 64, 50
1, 324001, Control_c, 0, 64, 0
1, 324105, Control_c, 0, 64, 36
1, 324120, Control_c, 0, 64, 53
1, 324134, Control_c, 0, 64, 62
1, 324149, Control_c, 0, 64, 65
1, 324164, Control_c, 0, 64, 67
1, 324179, Control_c, 0, 64, 69
1, 324194, Control_c, 0, 64, 71
1, 324208, Control_c, 0, 64, 74
1, 324211, Note_off_c, 0, 65, 50
1, 324223, Control_c, 0, 64, 77
1, 324237, Note_off_c, 0, 56, 36
1, 324238, Control_c, 0, 64, 80
1, 324239, Note_on_c, 0, 51, 50
1, 324253, Control_c, 0, 64, 82
1, 324260, Note_off_c, 0, 74, 58
1, 324268, Control_c, 0, 64, 83
1, 324279, Note_off_c, 0, 62, 62
1, 324283, Control_c, 0, 64, 84
1, 324289, Note_off_c, 0, 43, 36
1, 324297, Control_c, 0, 64, 85
1, 324312, Control_c, 0, 64, 86
1, 324327, Control_c, 0, 64, 87
1, 324356, Control_c, 0, 64, 88
1, 324427, Note_off_c, 0, 51, 50
1, 324430, Control_c, 0, 67, 42
1, 324436, Note_on_c, 0, 72, 76
1, 324440, Note_on_c, 0, 56, 60
1, 324445, Control_c, 0, 67, 53
1, 324466, Note_on_c, 0, 63, 54
1, 324467, Control_c, 0, 67, 62
1, 324469, Note_on_c, 0, 60, 46
1, 324482, Control_c, 0, 67, 71
1, 324488, Note_off_c, 0, 56, 63
1, 324497, Control_c, 0, 67, 78
1, 324512, Control_c, 0, 67, 83
1, 324527, Control_c, 0, 67, 86
1, 324531, Note_off_c, 0, 60, 52
1, 324535, Note_off_c, 0, 72, 62
1, 324541, Control_c, 0, 67, 87
1, 324599, Note_off_c, 0, 63, 30
1, 324660, Control_c, 0, 67, 88
1, 324665, Note_on_c, 0, 60, 46
1, 324670, Note_on_c, 0, 70, 75
1, 324674, Control_c, 0, 64, 87
1, 324689, Control_c, 0, 64, 82
1, 324694, Note_on_c, 0, 62, 32
1, 324699, Note_on_c, 0, 58, 47
1, 324704, Control_c, 0, 64, 72
1, 324704, Control_c, 0, 67, 88
1, 324719, Control_c, 0, 64, 58
1, 324719, Control_c, 0, 67, 90
1, 324734, Control_c, 0, 64, 44
1, 324734, Control_c, 0, 67, 90
1, 324750, Control_c, 0, 64, 36
1, 324750, Control_c, 0, 67, 91
1, 324764, Control_c, 0, 64, 37
1, 324764, Control_c, 0, 67, 92
1, 324779, Control_c, 0, 64, 42
1, 324794, Control_c, 0, 64, 51
1, 324794, Control_c, 0, 67, 94
1, 324809, Control_c, 0, 64, 59
1, 324809, Control_c, 0, 67, 107
1, 324824, Control_c, 0, 64, 64
1, 324824, Control_c, 0, 67, 124
1, 324831, Note_off_c, 0, 62, 56
1, 324838, Control_c, 0, 64, 68
1, 324838, Control_c, 0, 67, 127
1, 324850, Note_off_c, 0, 60, 61
1, 324853, Note_off_c, 0, 70, 61
1, 324853, Control_c, 0, 64, 71
1, 324868, Control_c, 0, 64, 73
1, 324873, Note_on_c, 0, 63, 50
1, 324883, Control_c, 0, 64, 75
1, 324884, Note_off_c, 0, 58, 48
1, 324898, Control_c, 0, 64, 76
1, 324913, Control_c, 0, 64, 77
1, 324928, Control_c, 0, 64, 78
1, 324943, Control_c, 0, 64, 79
1, 324957, Control_c, 0, 64, 79
1, 324972, Control_c, 0, 64, 80
1, 325002, Control_c, 0, 64, 80
1, 325087, Note_on_c, 0, 68, 67
1, 325092, Note_on_c, 0, 66, 40
1, 325102, Note_on_c, 0, 56, 52
1, 325117, Note_on_c, 0, 60, 19
1, 325120, Note_off_c, 0, 66, 55
1, 325157, Note_off_c, 0, 60, 54
1, 325221, Note_off_c, 0, 63, 32
1, 325232, Note_off_c, 0, 56, 54
1, 325249, Note_off_c, 0, 68, 56
1, 325364, Control_c, 0, 64, 77
1, 325376, Note_on_c, 0, 70, 67
1, 325379, Note_on_c, 0, 43, 44
1, 325379, Control_c, 0, 64, 69
1, 325394, Control_c, 0, 64, 60
1, 325395, Note_on_c, 0, 62, 39
1, 325405, Note_on_c, 0, 58, 45
1, 325410, Control_c, 0, 64, 50
1, 325425, Control_c, 0, 64, 48
1, 325434, Note_off_c, 0, 62, 62
1, 325439, Control_c, 0, 64, 50
1, 325454, Control_c, 0, 64, 56
1, 325469, Control_c, 0, 64, 62
1, 325476, Note_off_c, 0, 70, 63
1, 325484, Control_c, 0, 64, 65
1, 325498, Control_c, 0, 64, 68
1, 325500, Note_off_c, 0, 58, 54
1, 325513, Control_c, 0, 64, 71
1, 325528, Control_c, 0, 64, 72
1, 325544, Control_c, 0, 64, 73
1, 325574, Control_c, 0, 64, 71
1, 325588, Control_c, 0, 64, 66
1, 325603, Control_c, 0, 64, 57
1, 325617, Note_on_c, 0, 68, 57
1, 325618, Control_c, 0, 64, 49
1, 325622, Note_on_c, 0, 60, 52
1, 325633, Control_c, 0, 64, 45
1, 325638, Note_on_c, 0, 56, 41
1, 325640, Note_on_c, 0, 49, 23
1, 325648, Control_c, 0, 64, 46
1, 325662, Control_c, 0, 64, 50
1, 325677, Control_c, 0, 64, 57
1, 325692, Control_c, 0, 64, 62
1, 325707, Control_c, 0, 64, 65
1, 325710, Note_off_c, 0, 56, 61
1, 325721, Control_c, 0, 64, 68
1, 325736, Control_c, 0, 64, 70
1, 325738, Note_off_c, 0, 60, 59
1, 325751, Control_c, 0, 64, 73
1, 325759, Note_off_c, 0, 68, 57
1, 325766, Control_c, 0, 64, 74
1, 325781, Control_c, 0, 64, 74
1, 325825, Control_c, 0, 64, 74
1, 325840, Note_on_c, 0, 67, 60
1, 325840, Control_c, 0, 64, 67
1, 325852, Note_off_c, 0, 49, 41
1, 325855, Control_c, 0, 64, 56
1, 325861, Note_on_c, 0, 59, 45
1, 325870, Control_c, 0, 64, 39
1, 325873, Note_on_c, 0, 55, 31
1, 325875, Note_on_c, 0, 50, 41
1, 325885, Control_c, 0, 64, 0
1, 325911, Note_off_c, 0, 43, 56
1, 325914, Control_c, 0, 64, 40
1, 325929, Control_c, 0, 64, 55
1, 325944, Control_c, 0, 64, 64
1, 325966, Control_c, 0, 64, 67
1, 325980, Note_off_c, 0, 55, 51
1, 325981, Control_c, 0, 64, 70
1, 325993, Note_off_c, 0, 67, 62
1, 325995, Control_c, 0, 64, 72
1, 326010, Control_c, 0, 64, 73
1, 326025, Control_c, 0, 64, 74
1, 326040, Control_c, 0, 64, 75
1, 326055, Control_c, 0, 64, 76
1, 326059, Note_off_c, 0, 59, 57
1, 326069, Control_c, 0, 64, 76
1, 326084, Control_c, 0, 64, 77
1, 326099, Control_c, 0, 64, 78
1, 326129, Control_c, 0, 64, 78
1, 326159, Control_c, 0, 64, 79
1, 326174, Control_c, 0, 64, 79
1, 326179, Note_on_c, 0, 62, 41
1, 326182, Note_off_c, 0, 50, 41
1, 326218, Control_c, 0, 64, 80
1, 326292, Control_c, 0, 67, 124
1, 326307, Control_c, 0, 67, 116
1, 326321, Control_c, 0, 67, 110
1, 326337, Control_c, 0, 67, 105
1, 326352, Control_c, 0, 67, 102
1, 326367, Control_c, 0, 67, 100
1, 326382, Control_c, 0, 67, 96
1, 326397, Control_c, 0, 67, 93
1, 326411, Control_c, 0, 67, 92
1, 326441, Control_c, 0, 67, 91
1, 326448, Note_on_c, 0, 50, 32
1, 326451, Note_on_c, 0, 57, 56
1, 326456, Control_c, 0, 67, 89
1, 326471, Control_c, 0, 67, 88
1, 326485, Control_c, 0, 67, 86
1, 326486, Note_on_c, 0, 64, 39
1, 326500, Control_c, 0, 67, 71
1, 326515, Control_c, 0, 67, 60
1, 326530, Control_c, 0, 67, 51
1, 326544, Control_c, 0, 67, 44
1, 326559, Control_c, 0, 67, 37
1, 326574, Control_c, 0, 67, 0
1, 326656, Note_on_c, 0, 59, 69
1, 326669, Note_off_c, 0, 57, 49
1, 326744, Note_off_c, 0, 62, 35
1, 326757, Note_off_c, 0, 64, 39
1, 326818, Control_c, 0, 64, 79
1, 326848, Control_c, 0, 64, 79
1, 326862, Control_c, 0, 64, 78
1, 326877, Control_c, 0, 64, 75
1, 326890, Note_on_c, 0, 43, 46
1, 326892, Control_c, 0, 64, 71
1, 326900, Note_on_c, 0, 60, 57
1, 326907, Control_c, 0, 64, 65
1, 326922, Note_off_c, 0, 59, 59
1, 326922, Control_c, 0, 64, 56
1, 326923, Note_off_c, 0, 50, 47
1, 326931, Note_on_c, 0, 62, 31
1, 326937, Control_c, 0, 64, 46
1, 326952, Control_c, 0, 64, 35
1, 326967, Control_c, 0, 64, 0
1, 327000, Poly_aftertouch_c, 0, 64, 127
1, 327041, Control_c, 0, 64, 36
1, 327056, Control_c, 0, 64, 48
1, 327070, Control_c, 0, 64, 58
1, 327085, Control_c, 0, 64, 63
1, 327100, Control_c, 0, 64, 65
1, 327115, Control_c, 0, 64, 66
1, 327122, Note_on_c, 0, 49, 42
1, 327130, Control_c, 0, 64, 68
1, 327145, Control_c, 0, 64, 69
1, 327160, Control_c, 0, 64, 70
1, 327175, Control_c, 0, 64, 72
1, 327190, Control_c, 0, 64, 73
1, 327205, Control_c, 0, 64, 73
1, 327205, Note_off_c, 0, 49, 49
1, 327234, Control_c, 0, 64, 74
1, 327264, Control_c, 0, 64, 74
1, 327291, Note_off_c, 0, 43, 33
1, 327296, Note_on_c, 0, 59, 65
1, 327314, Note_on_c, 0, 50, 24
1, 327338, Note_off_c, 0, 60, 59
1, 327355, Note_off_c, 0, 50, 54
1, 327370, Note_off_c, 0, 62, 43
1, 327379, Poly_aftertouch_c, 0, 64, 0
1, 327503, Note_on_c, 0, 60, 57
1, 327520, Note_off_c, 0, 59, 53
1, 327523, Control_c, 0, 64, 73
1, 327526, Note_on_c, 0, 64, 44
1, 327527, Note_on_c, 0, 62, 29
1, 327538, Control_c, 0, 64, 68
1, 327553, Control_c, 0, 64, 60
1, 327567, Control_c, 0, 64, 48
1, 327582, Control_c, 0, 64, 36
1, 327582, Control_c, 0, 67, 44
1, 327597, Control_c, 0, 64, 31
1, 327597, Control_c, 0, 67, 55
1, 327612, Control_c, 0, 64, 35
1, 327612, Control_c, 0, 67, 62
1, 327627, Control_c, 0, 64, 44
1, 327627, Control_c, 0, 67, 67
1, 327641, Control_c, 0, 64, 54
1, 327641, Control_c, 0, 67, 70
1, 327656, Control_c, 0, 64, 61
1, 327656, Control_c, 0, 67, 73
1, 327671, Control_c, 0, 64, 64
1, 327671, Control_c, 0, 67, 77
1, 327685, Control_c, 0, 64, 67
1, 327685, Control_c, 0, 67, 79
1, 327700, Control_c, 0, 64, 68
1, 327700, Control_c, 0, 67, 81
1, 327715, Note_off_c, 0, 62, 39
1, 327715, Control_c, 0, 64, 69
1, 327715, Control_c, 0, 67, 83
1, 327730, Note_on_c, 0, 50, 39
1, 327730, Control_c, 0, 64, 71
1, 327730, Control_c, 0, 67, 85
1, 327745, Control_c, 0, 64, 72
1, 327745, Control_c, 0, 67, 86
1, 327759, Control_c, 0, 64, 73
1, 327759, Control_c, 0, 67, 87
1, 327774, Control_c, 0, 64, 74
1, 327774, Control_c, 0, 67, 89
1, 327789, Control_c, 0, 64, 74
1, 327789, Control_c, 0, 67, 101
1, 327804, Control_c, 0, 64, 75
1, 327804, Control_c, 0, 67, 116
1, 327819, Control_c, 0, 67, 127
1, 327861, Note_off_c, 0, 50, 60
1, 327889, Note_off_c, 0, 60, 64
1, 327907, Note_off_c, 0, 64, 61
1, 327912, Note_on_c, 0, 57, 64
1, 327928, Note_on_c, 0, 62, 46
1, 327955, Note_off_c, 0, 62, 56
1, 328102, Note_off_c, 0, 57, 40
1, 328134, Note_on_c, 0, 43, 51
1, 328146, Control_c, 0, 64, 74
1, 328161, Control_c, 0, 64, 72
1, 328176, Control_c, 0, 64, 67
1, 328190, Control_c, 0, 64, 59
1, 328212, Note_on_c, 0, 64, 56
1, 328213, Control_c, 0, 64, 49
1, 328219, Note_on_c, 0, 66, 51
1, 328227, Control_c, 0, 64, 37
1, 328242, Control_c, 0, 64, 0
1, 328244, Note_on_c, 0, 67, 40
1, 328302, Control_c, 0, 64, 30
1, 328316, Control_c, 0, 64, 37
1, 328331, Control_c, 0, 64, 43
1, 328346, Control_c, 0, 64, 47
1, 328361, Control_c, 0, 64, 50
1, 328376, Control_c, 0, 64, 52
1, 328390, Control_c, 0, 64, 52
1, 328404, Control_c, 0, 64, 53
1, 328449, Control_c, 0, 64, 53
1, 328454, Note_on_c, 0, 62, 54
1, 328507, Note_off_c, 0, 64, 50
1, 328567, Control_c, 0, 64, 53
1, 328582, Control_c, 0, 64, 52
1, 328597, Control_c, 0, 64, 50
1, 328612, Control_c, 0, 64, 49
1, 328621, Note_off_c, 0, 66, 22
1, 328624, Note_off_c, 0, 62, 62
1, 328627, Control_c, 0, 64, 47
1, 328629, Note_on_c, 0, 50, 45
1, 328641, Control_c, 0, 64, 45
1, 328652, Note_on_c, 0, 60, 45
1, 328656, Control_c, 0, 64, 43
1, 328671, Control_c, 0, 64, 42
1, 328686, Control_c, 0, 64, 39
1, 328701, Control_c, 0, 64, 36
1, 328715, Control_c, 0, 64, 34
1, 328731, Control_c, 0, 64, 33
1, 328761, Control_c, 0, 64, 31
1, 328820, Control_c, 0, 64, 32
1, 328830, Note_off_c, 0, 60, 53
1, 328835, Control_c, 0, 64, 38
1, 328849, Control_c, 0, 64, 46
1, 328853, Note_on_c, 0, 59, 53
1, 328857, Note_off_c, 0, 43, 55
1, 328864, Control_c, 0, 64, 54
1, 328879, Control_c, 0, 64, 59
1, 328885, Note_off_c, 0, 67, 50
1, 328894, Control_c, 0, 64, 62
1, 328909, Control_c, 0, 64, 63
1, 328924, Control_c, 0, 64, 64
1, 328938, Control_c, 0, 64, 65
1, 328961, Control_c, 0, 64, 66
1, 328976, Control_c, 0, 64, 67
1, 328991, Control_c, 0, 64, 67
1, 329006, Control_c, 0, 64, 68
1, 329006, Control_c, 0, 67, 125
1, 329020, Control_c, 0, 64, 68
1, 329064, Control_c, 0, 64, 69
1, 329066, Note_on_c, 0, 57, 49
1, 329070, Note_off_c, 0, 59, 60
1, 329083, Note_on_c, 0, 62, 50
1, 329094, Control_c, 0, 64, 69
1, 329094, Control_c, 0, 67, 123
1, 329101, Note_on_c, 0, 64, 40
1, 329116, Note_off_c, 0, 62, 64
1, 329124, Control_c, 0, 67, 121
1, 329138, Control_c, 0, 64, 70
1, 329153, Control_c, 0, 67, 119
1, 329183, Control_c, 0, 67, 117
1, 329198, Control_c, 0, 67, 115
1, 329227, Control_c, 0, 67, 112
1, 329271, Note_on_c, 0, 59, 64
1, 329283, Note_off_c, 0, 57, 52
1, 329371, Note_off_c, 0, 64, 33
1, 329390, Control_c, 0, 64, 69
1, 329390, Control_c, 0, 67, 114
1, 329420, Control_c, 0, 64, 68
1, 329435, Control_c, 0, 64, 65
1, 329450, Control_c, 0, 64, 61
1, 329464, Control_c, 0, 64, 54
1, 329477, Note_off_c, 0, 59, 58
1, 329479, Note_on_c, 0, 60, 54
1, 329479, Control_c, 0, 64, 48
1, 329479, Control_c, 0, 67, 116
1, 329480, Note_on_c, 0, 43, 40
1, 329494, Control_c, 0, 64, 39
1, 329503, Note_off_c, 0, 50, 49
1, 329507, Note_on_c, 0, 62, 41
1, 329509, Control_c, 0, 64, 0
1, 329518, Note_on_c, 0, 64, 25
1, 329614, Control_c, 0, 64, 29
1, 329628, Control_c, 0, 64, 40
1, 329643, Control_c, 0, 64, 50
1, 329658, Control_c, 0, 64, 58
1, 329673, Control_c, 0, 64, 61
1, 329687, Control_c, 0, 64, 63
1, 329708, Note_on_c, 0, 49, 24
1, 329709, Control_c, 0, 64, 64
1, 329724, Control_c, 0, 64, 65
1, 329739, Control_c, 0, 64, 66
1, 329754, Control_c, 0, 64, 67
1, 329769, Control_c, 0, 64, 68
1, 329784, Control_c, 0, 64, 69
1, 329798, Control_c, 0, 64, 69
1, 329812, Note_off_c, 0, 49, 35
1, 329828, Control_c, 0, 64, 70
1, 329858, Control_c, 0, 64, 70
1, 329881, Note_off_c, 0, 43, 37
1, 329883, Note_on_c, 0, 59, 60
1, 329885, Note_on_c, 0, 50, 42
1, 329887, Control_c, 0, 64, 71
1, 329916, Note_off_c, 0, 50, 51
1, 329916, Note_off_c, 0, 60, 61
1, 329917, Control_c, 0, 64, 71
1, 329949, Note_off_c, 0, 64, 37
1, 329953, Note_off_c, 0, 62, 41
1, 329976, Control_c, 0, 64, 72
1, 330050, Control_c, 0, 67, 118
1, 330065, Control_c, 0, 64, 71
1, 330079, Note_on_c, 0, 60, 54
1, 330079, Control_c, 0, 64, 69
1, 330094, Control_c, 0, 64, 64
1, 330099, Note_off_c, 0, 59, 53
1, 330101, Note_on_c, 0, 64, 45
1, 330109, Control_c, 0, 64, 55
1, 330118, Note_on_c, 0, 62, 33
1, 330124, Control_c, 0, 64, 46
1, 330139, Control_c, 0, 64, 40
1, 330153, Control_c, 0, 64, 41
1, 330168, Control_c, 0, 64, 48
1, 330183, Control_c, 0, 64, 57
1, 330198, Control_c, 0, 64, 62
1, 330213, Control_c, 0, 64, 64
1, 330228, Control_c, 0, 64, 66
1, 330243, Control_c, 0, 64, 68
1, 330257, Control_c, 0, 64, 69
1, 330257, Control_c, 0, 67, 116
1, 330263, Note_off_c, 0, 62, 37
1, 330272, Control_c, 0, 64, 70
1, 330287, Control_c, 0, 64, 72
1, 330287, Note_on_c, 0, 50, 35
1, 330302, Control_c, 0, 64, 73
1, 330317, Control_c, 0, 64, 74
1, 330332, Control_c, 0, 64, 75
1, 330332, Control_c, 0, 67, 114
1, 330347, Control_c, 0, 64, 75
1, 330377, Control_c, 0, 64, 76
1, 330377, Control_c, 0, 67, 111
1, 330382, Note_off_c, 0, 50, 49
1, 330392, Control_c, 0, 64, 76
1, 330407, Control_c, 0, 67, 109
1, 330421, Control_c, 0, 64, 77
1, 330427, Note_off_c, 0, 60, 63
1, 330436, Control_c, 0, 67, 105
1, 330457, Note_off_c, 0, 64, 63
1, 330458, Control_c, 0, 64, 77
1, 330458, Control_c, 0, 67, 103
1, 330465, Note_on_c, 0, 57, 59
1, 330481, Note_on_c, 0, 62, 47
1, 330488, Control_c, 0, 67, 89
1, 330503, Control_c, 0, 67, 71
1, 330506, Note_off_c, 0, 62, 58
1, 330517, Control_c, 0, 67, 59
1, 330532, Control_c, 0, 67, 53
1, 330547, Control_c, 0, 67, 51
1, 330562, Control_c, 0, 67, 51
1, 330619, Note_off_c, 0, 57, 36
1, 330636, Control_c, 0, 67, 51
1, 330650, Control_c, 0, 67, 52
1, 330654, Note_on_c, 0, 43, 52
1, 330680, Control_c, 0, 64, 76
1, 330680, Control_c, 0, 67, 53
1, 330695, Control_c, 0, 64, 72
1, 330695, Control_c, 0, 67, 53
1, 330709, Control_c, 0, 64, 65
1, 330716, Note_on_c, 0, 66, 63
1, 330724, Control_c, 0, 64, 56
1, 330724, Control_c, 0, 67, 54
1, 330739, Control_c, 0, 64, 45
1, 330753, Note_on_c, 0, 67, 40
1, 330754, Control_c, 0, 64, 31
1, 330769, Control_c, 0, 64, 0
1, 330783, Control_c, 0, 64, 29
1, 330798, Control_c, 0, 64, 34
1, 330812, Poly_aftertouch_c, 0, 64, 127
1, 330813, Control_c, 0, 64, 41
1, 330827, Control_c, 0, 64, 48
1, 330842, Control_c, 0, 64, 55
1, 330857, Control_c, 0, 64, 60
1, 330860, Poly_aftertouch_c, 0, 64, 0
1, 330872, Control_c, 0, 64, 63
1, 330887, Control_c, 0, 64, 64
1, 330898, Poly_aftertouch_c, 0, 64, 127
1, 330901, Control_c, 0, 64, 66
1, 330901, Control_c, 0, 67, 53
1, 330916, Control_c, 0, 64, 67
1, 330931, Control_c, 0, 64, 68
1, 330946, Control_c, 0, 64, 69
1, 330961, Control_c, 0, 64, 69
1, 330966, Note_on_c, 0, 62, 66
1, 330976, Control_c, 0, 64, 70
1, 330991, Control_c, 0, 64, 70
1, 331006, Control_c, 0, 64, 71
1, 331021, Control_c, 0, 64, 72
1, 331035, Control_c, 0, 64, 73
1, 331050, Control_c, 0, 64, 73
1, 331063, Poly_aftertouch_c, 0, 64, 0
1, 331125, Control_c, 0, 64, 70
1, 331140, Control_c, 0, 64, 64
1, 331143, Note_off_c, 0, 62, 63
1, 331155, Control_c, 0, 64, 55
1, 331165, Note_off_c, 0, 66, 59
1, 331166, Note_on_c, 0, 60, 62
1, 331170, Control_c, 0, 64, 51
1, 331173, Note_on_c, 0, 50, 46
1, 331185, Control_c, 0, 64, 52
1, 331206, Control_c, 0, 64, 55
1, 331206, Control_c, 0, 67, 53
1, 331221, Control_c, 0, 64, 58
1, 331236, Control_c, 0, 64, 59
1, 331251, Control_c, 0, 64, 60
1, 331265, Control_c, 0, 64, 61
1, 331265, Control_c, 0, 67, 52
1, 331280, Control_c, 0, 64, 64
1, 331295, Control_c, 0, 64, 67
1, 331295, Control_c, 0, 67, 51
1, 331308, Note_off_c, 0, 60, 58
1, 331310, Control_c, 0, 64, 70
1, 331310, Control_c, 0, 67, 51
1, 331325, Control_c, 0, 64, 73
1, 331325, Control_c, 0, 67, 50
1, 331340, Control_c, 0, 64, 75
1, 331340, Control_c, 0, 67, 49
1, 331354, Control_c, 0, 64, 78
1, 331354, Control_c, 0, 67, 49
1, 331369, Control_c, 0, 64, 80
1, 331369, Control_c, 0, 67, 48
1, 331372, Note_on_c, 0, 59, 70
1, 331378, Note_off_c, 0, 43, 32
1, 331384, Control_c, 0, 64, 82
1, 331384, Control_c, 0, 67, 47
1, 331400, Control_c, 0, 64, 83
1, 331400, Control_c, 0, 67, 47
1, 331410, Note_off_c, 0, 59, 64
1, 331414, Control_c, 0, 64, 85
1, 331429, Control_c, 0, 64, 86
1, 331429, Control_c, 0, 67, 46
1, 331438, Note_off_c, 0, 67, 64
1, 331444, Control_c, 0, 64, 86
1, 331444, Control_c, 0, 67, 45
1, 331459, Control_c, 0, 64, 87
1, 331474, Control_c, 0, 67, 44
1, 331504, Control_c, 0, 67, 43
1, 331533, Control_c, 0, 67, 43
1, 331548, Control_c, 0, 67, 42
1, 331563, Control_c, 0, 67, 0
1, 331564, Note_on_c, 0, 69, 76
1, 331567, Note_on_c, 0, 62, 65
1, 331610, Note_off_c, 0, 62, 58
1, 331631, Poly_aftertouch_c, 0, 67, 127
1, 331673, Poly_aftertouch_c, 0, 67, 0
1, 331727, Note_on_c, 0, 71, 78
1, 331746, Note_on_c, 0, 66, 70
1, 331774, Note_off_c, 0, 69, 54
1, 331825, Note_off_c, 0, 66, 58
1, 331934, Control_c, 0, 64, 86
1, 331935, Note_on_c, 0, 43, 53
1, 331936, Note_on_c, 0, 74, 81
1, 331942, Note_off_c, 0, 50, 56
1, 331956, Control_c, 0, 64, 82
1, 331969, Note_off_c, 0, 71, 57
1, 331971, Note_on_c, 0, 65, 50
1, 331971, Control_c, 0, 64, 69
1, 331986, Control_c, 0, 64, 55
1, 332001, Control_c, 0, 64, 36
1, 332016, Control_c, 0, 64, 0
1, 332045, Control_c, 0, 64, 43
1, 332060, Control_c, 0, 64, 58
1, 332075, Control_c, 0, 64, 65
1, 332089, Control_c, 0, 64, 69
1, 332091, Note_off_c, 0, 74, 64
1, 332104, Control_c, 0, 64, 72
1, 332119, Control_c, 0, 64, 74
1, 332122, Note_off_c, 0, 43, 62
1, 332133, Note_on_c, 0, 51, 63
1, 332134, Control_c, 0, 64, 75
1, 332149, Control_c, 0, 64, 77
1, 332163, Control_c, 0, 64, 78
1, 332178, Control_c, 0, 64, 80
1, 332193, Control_c, 0, 64, 81
1, 332208, Control_c, 0, 64, 82
1, 332237, Control_c, 0, 64, 82
1, 332271, Note_off_c, 0, 51, 60
1, 332275, Note_off_c, 0, 65, 60
1, 332282, Control_c, 0, 64, 83
1, 332308, Note_on_c, 0, 75, 79
1, 332310, Note_on_c, 0, 56, 64
1, 332333, Note_on_c, 0, 67, 52
1, 332341, Control_c, 0, 64, 83
1, 332353, Note_off_c, 0, 56, 59
1, 332371, Control_c, 0, 64, 84
1, 332386, Control_c, 0, 64, 84
1, 332400, Control_c, 0, 64, 85
1, 332415, Control_c, 0, 64, 86
1, 332430, Control_c, 0, 64, 86
1, 332493, Note_off_c, 0, 75, 64
1, 332504, Control_c, 0, 64, 85
1, 332508, Note_on_c, 0, 72, 77
1, 332515, Note_on_c, 0, 60, 66
1, 332519, Control_c, 0, 64, 79
1, 332525, Note_on_c, 0, 63, 60
1, 332534, Control_c, 0, 64, 68
1, 332540, Note_off_c, 0, 67, 57
1, 332548, Control_c, 0, 64, 56
1, 332563, Control_c, 0, 64, 46
1, 332578, Control_c, 0, 64, 45
1, 332593, Control_c, 0, 64, 53
1, 332607, Control_c, 0, 64, 62
1, 332622, Control_c, 0, 64, 68
1, 332637, Control_c, 0, 64, 73
1, 332652, Control_c, 0, 64, 76
1, 332662, Note_off_c, 0, 60, 62
1, 332667, Control_c, 0, 64, 78
1, 332671, Note_off_c, 0, 63, 60
1, 332675, Note_off_c, 0, 72, 58
1, 332680, Note_on_c, 0, 62, 69
1, 332681, Control_c, 0, 64, 80
1, 332704, Control_c, 0, 64, 83
1, 332719, Control_c, 0, 64, 84
1, 332735, Control_c, 0, 64, 86
1, 332750, Control_c, 0, 64, 86
1, 332764, Control_c, 0, 64, 87
1, 332766, Note_off_c, 0, 62, 52
1, 332794, Control_c, 0, 64, 88
1, 332880, Note_on_c, 0, 68, 78
1, 332882, Note_on_c, 0, 66, 56
1, 332904, Note_off_c, 0, 66, 62
1, 332907, Note_on_c, 0, 60, 55
1, 332957, Control_c, 0, 64, 88
1, 332985, Note_off_c, 0, 60, 61
1, 333000, Note_off_c, 0, 68, 61
1, 333075, Control_c, 0, 64, 88
1, 333090, Control_c, 0, 64, 86
1, 333098, Note_on_c, 0, 71, 78
1, 333101, Note_on_c, 0, 43, 46
1, 333104, Control_c, 0, 64, 79
1, 333107, Note_on_c, 0, 67, 64
1, 333117, Note_on_c, 0, 59, 54
1, 333119, Control_c, 0, 64, 67
1, 333134, Note_on_c, 0, 66, 56
1, 333134, Control_c, 0, 64, 51
1, 333149, Control_c, 0, 64, 0
1, 333194, Control_c, 0, 64, 42
1, 333209, Control_c, 0, 64, 53
1, 333223, Control_c, 0, 64, 60
1, 333238, Note_off_c, 0, 66, 58
1, 333238, Control_c, 0, 64, 63
1, 333243, Note_off_c, 0, 67, 38
1, 333253, Control_c, 0, 64, 65
1, 333268, Control_c, 0, 64, 65
1, 333283, Control_c, 0, 64, 66
1, 333297, Control_c, 0, 64, 68
1, 333312, Control_c, 0, 64, 69
1, 333327, Control_c, 0, 64, 70
1, 333342, Control_c, 0, 64, 72
1, 333357, Note_on_c, 0, 65, 58
1, 333357, Control_c, 0, 64, 73
1, 333371, Control_c, 0, 64, 74
1, 333386, Control_c, 0, 64, 75
1, 333401, Control_c, 0, 64, 76
1, 333416, Control_c, 0, 64, 76
1, 333420, Note_off_c, 0, 59, 50
1, 333430, Control_c, 0, 64, 77
1, 333465, Note_off_c, 0, 71, 54
1, 333522, Note_off_c, 0, 65, 52
1, 333535, Note_on_c, 0, 67, 74
1, 333542, Note_on_c, 0, 50, 52
1, 333548, Note_on_c, 0, 63, 66
1, 333572, Note_off_c, 0, 43, 37
1, 333602, Control_c, 0, 64, 78
1, 333612, Note_off_c, 0, 50, 63
1, 333617, Control_c, 0, 64, 79
1, 333632, Control_c, 0, 64, 81
1, 333647, Control_c, 0, 64, 82
1, 333661, Control_c, 0, 64, 83
1, 333666, Note_off_c, 0, 63, 57
1, 333676, Control_c, 0, 64, 84
1, 333688, Note_off_c, 0, 67, 63
1, 333691, Control_c, 0, 64, 85
1, 333706, Control_c, 0, 64, 86
1, 333715, Note_on_c, 0, 62, 77
1, 333721, Control_c, 0, 64, 87
1, 333735, Control_c, 0, 64, 88
1, 333750, Control_c, 0, 64, 88
1, 333765, Control_c, 0, 64, 89
1, 333780, Control_c, 0, 64, 89
1, 333809, Control_c, 0, 64, 90
1, 333846, Note_off_c, 0, 62, 56
1, 333853, Control_c, 0, 64, 90
1, 333876, Note_on_c, 0, 67, 77
1, 333881, Note_on_c, 0, 72, 86
1, 333898, Control_c, 0, 64, 91
1, 333899, Note_on_c, 0, 68, 73
1, 333906, Note_off_c, 0, 67, 64
1, 333927, Control_c, 0, 64, 91
1, 333942, Control_c, 0, 64, 92
1, 333996, Note_off_c, 0, 68, 60
1, 334018, Note_off_c, 0, 72, 62
1, 334050, Note_on_c, 0, 71, 86
1, 334061, Note_on_c, 0, 62, 65
1, 334105, Note_off_c, 0, 62, 55
1, 334120, Control_c, 0, 64, 92
1, 334231, Control_c, 0, 64, 90
1, 334234, Note_off_c, 0, 71, 62
1, 334246, Control_c, 0, 64, 80
1, 334258, Note_on_c, 0, 74, 89
1, 334259, Note_on_c, 0, 43, 61
1, 334261, Control_c, 0, 64, 66
1, 334276, Control_c, 0, 64, 51
1, 334279, Note_on_c, 0, 65, 66
1, 334291, Control_c, 0, 64, 40
1, 334306, Control_c, 0, 64, 40
1, 334320, Control_c, 0, 64, 54
1, 334336, Control_c, 0, 64, 65
1, 334350, Control_c, 0, 64, 73
1, 334361, Note_off_c, 0, 65, 61
1, 334365, Control_c, 0, 64, 81
1, 334380, Control_c, 0, 64, 84
1, 334381, Note_off_c, 0, 74, 66
1, 334395, Control_c, 0, 64, 86
1, 334396, Note_off_c, 0, 43, 59
1, 334410, Control_c, 0, 64, 88
1, 334425, Control_c, 0, 64, 91
1, 334430, Note_on_c, 0, 51, 67
1, 334440, Control_c, 0, 64, 92
1, 334455, Control_c, 0, 64, 94
1, 334469, Control_c, 0, 64, 95
1, 334484, Control_c, 0, 64, 96
1, 334544, Control_c, 0, 64, 98
1, 334561, Note_off_c, 0, 51, 59
1, 334593, Note_on_c, 0, 75, 97
1, 334598, Note_on_c, 0, 56, 67
1, 334615, Note_on_c, 0, 66, 67
1, 334632, Control_c, 0, 64, 100
1, 334634, Note_off_c, 0, 56, 63
1, 334642, Note_off_c, 0, 66, 63
1, 334662, Control_c, 0, 64, 105
1, 334676, Control_c, 0, 64, 108
1, 334691, Control_c, 0, 64, 110
1, 334706, Control_c, 0, 64, 112
1, 334744, Note_off_c, 0, 75, 65
1, 334750, Control_c, 0, 64, 106
1, 334765, Control_c, 0, 64, 89
1, 334780, Control_c, 0, 64, 75
1, 334788, Note_on_c, 0, 78, 98
1, 334794, Control_c, 0, 64, 69
1, 334795, Note_on_c, 0, 68, 83
1, 334800, Note_on_c, 0, 60, 68
1, 334809, Control_c, 0, 64, 68
1, 334824, Control_c, 0, 64, 72
1, 334839, Control_c, 0, 64, 79
1, 334854, Control_c, 0, 64, 88
1, 334869, Control_c, 0, 64, 96
1, 334884, Control_c, 0, 64, 101
1, 334899, Control_c, 0, 64, 105
1, 334914, Control_c, 0, 64, 110
1, 334917, Note_off_c, 0, 60, 61
1, 334929, Control_c, 0, 64, 115
1, 334950, Control_c, 0, 64, 119
1, 334959, Note_on_c, 0, 62, 74
1, 334965, Control_c, 0, 64, 127
1, 334985, Note_off_c, 0, 78, 59
1, 334994, Note_off_c, 0, 62, 63
1, 335107, Note_off_c, 0, 68, 61
1, 335139, Note_on_c, 0, 72, 89
1, 335146, Note_on_c, 0, 66, 82
1, 335151, Note_on_c, 0, 63, 82
1, 335170, Note_off_c, 0, 66, 71
1, 335173, Note_off_c, 0, 63, 70
1, 335215, Note_off_c, 0, 72, 63
1, 335353, Note_on_c, 0, 43, 72
1, 335395, Note_on_c, 0, 79, 88
1, 335396, Control_c, 0, 64, 100
1, 335410, Note_on_c, 0, 71, 87
1, 335411, Control_c, 0, 64, 73
1, 335425, Control_c, 0, 64, 47
1, 335440, Control_c, 0, 64, 0
1, 335499, Control_c, 0, 64, 42
1, 335514, Control_c, 0, 64, 57
1, 335529, Control_c, 0, 64, 62
1, 335544, Control_c, 0, 64, 65
1, 335551, Note_off_c, 0, 79, 65
1, 335559, Control_c, 0, 64, 67
1, 335573, Control_c, 0, 64, 68
1, 335588, Control_c, 0, 64, 70
1, 335600, Note_on_c, 0, 77, 88
1, 335603, Control_c, 0, 64, 74
1, 335606, Note_on_c, 0, 68, 80
1, 335607, Note_on_c, 0, 49, 68
1, 335617, Control_c, 0, 64, 78
1, 335632, Control_c, 0, 64, 82
1, 335647, Control_c, 0, 64, 86
1, 335662, Control_c, 0, 64, 89
1, 335677, Control_c, 0, 64, 93
1, 335682, Note_off_c, 0, 68, 51
1, 335699, Control_c, 0, 64, 95
1, 335729, Note_off_c, 0, 77, 60
1, 335741, Note_off_c, 0, 71, 59
1, 335744, Control_c, 0, 64, 94
1, 335755, Note_off_c, 0, 49, 58
1, 335759, Control_c, 0, 64, 88
1, 335773, Control_c, 0, 64, 79
1, 335780, Note_off_c, 0, 43, 60
1, 335781, Note_on_c, 0, 74, 99
1, 335788, Control_c, 0, 64, 74
1, 335790, Note_on_c, 0, 50, 79
1, 335796, Note_on_c, 0, 67, 83
1, 335818, Control_c, 0, 64, 76
1, 335822, Note_off_c, 0, 50, 67
1, 335832, Control_c, 0, 64, 81
1, 335847, Note_on_c, 0, 69, 14
1, 335847, Note_off_c, 0, 69, 127
1, 335847, Control_c, 0, 64, 90
1, 335855, Note_off_c, 0, 67, 59
1, 335862, Control_c, 0, 64, 96
1, 335877, Control_c, 0, 64, 99
1, 335894, Note_off_c, 0, 74, 65
1, 335959, Note_on_c, 0, 59, 93
1, 336011, Control_c, 0, 64, 102
1, 336026, Control_c, 0, 64, 105
1, 336041, Control_c, 0, 64, 109
1, 336055, Control_c, 0, 64, 115
1, 336070, Control_c, 0, 64, 119
1, 336115, Control_c, 0, 64, 115
1, 336130, Control_c, 0, 64, 90
1, 336144, Note_on_c, 0, 91, 104
1, 336145, Control_c, 0, 64, 65
1, 336148, Note_on_c, 0, 79, 90
1, 336150, Note_on_c, 0, 86, 90
1, 336160, Control_c, 0, 64, 0
1, 336160, Note_on_c, 0, 62, 73
1, 336204, Control_c, 0, 64, 41
1, 336219, Control_c, 0, 64, 62
1, 336234, Control_c, 0, 64, 72
1, 336248, Control_c, 0, 64, 85
1, 336263, Control_c, 0, 64, 97
1, 336278, Control_c, 0, 64, 105
1, 336293, Control_c, 0, 64, 122
1, 336308, Control_c, 0, 64, 127
1, 336331, Note_off_c, 0, 91, 63
1, 336336, Note_off_c, 0, 79, 60
1, 336407, Note_off_c, 0, 86, 64
1, 336412, Note_on_c, 0, 71, 70
1, 336456, Note_on_c, 0, 91, 102
1, 336458, Note_off_c, 0, 71, 61
1, 336458, Note_on_c, 0, 79, 91
1, 336494, Note_off_c, 0, 59, 60
1, 336494, Note_off_c, 0, 62, 64
1, 336625, Note_off_c, 0, 79, 60
1, 336632, Note_off_c, 0, 91, 63
1, 336657, Note_on_c, 0, 43, 71
1, 336701, Note_on_c, 0, 91, 102
1, 336705, Note_on_c, 0, 84, 90
1, 336709, Note_on_c, 0, 79, 89
1, 336731, Control_c, 0, 64, 101
1, 336745, Control_c, 0, 64, 71
1, 336760, Control_c, 0, 64, 49
1, 336775, Control_c, 0, 64, 0
1, 336805, Control_c, 0, 64, 41
1, 336819, Control_c, 0, 64, 60
1, 336834, Control_c, 0, 64, 70
1, 336849, Control_c, 0, 64, 79
1, 336864, Control_c, 0, 64, 85
1, 336878, Control_c, 0, 64, 88
1, 336893, Control_c, 0, 64, 92
1, 336908, Control_c, 0, 64, 98
1, 336911, Note_on_c, 0, 51, 78
1, 336912, Note_off_c, 0, 43, 61
1, 336923, Control_c, 0, 64, 108
1, 336928, Note_off_c, 0, 79, 63
1, 336938, Control_c, 0, 64, 127
1, 336985, Note_off_c, 0, 91, 60
1, 337051, Note_off_c, 0, 51, 61
1, 337083, Note_on_c, 0, 89, 96
1, 337085, Note_on_c, 0, 56, 74
1, 337086, Note_on_c, 0, 77, 93
1, 337112, Note_off_c, 0, 84, 63
1, 337117, Note_off_c, 0, 56, 65
1, 337187, Note_off_c, 0, 77, 58
1, 337243, Note_off_c, 0, 89, 60
1, 337271, Control_c, 0, 64, 110
1, 337275, Note_on_c, 0, 91, 96
1, 337278, Note_on_c, 0, 84, 81
1, 337281, Note_on_c, 0, 60, 71
1, 337283, Note_on_c, 0, 79, 82
1, 337286, Control_c, 0, 64, 72
1, 337301, Control_c, 0, 64, 59
1, 337316, Control_c, 0, 64, 58
1, 337331, Control_c, 0, 64, 62
1, 337345, Control_c, 0, 64, 70
1, 337360, Control_c, 0, 64, 84
1, 337375, Control_c, 0, 64, 101
1, 337390, Control_c, 0, 64, 105
1, 337404, Control_c, 0, 64, 108
1, 337417, Note_off_c, 0, 60, 63
1, 337419, Control_c, 0, 64, 113
1, 337434, Control_c, 0, 64, 119
1, 337444, Note_on_c, 0, 62, 73
1, 337449, Control_c, 0, 64, 127
1, 337457, Note_off_c, 0, 79, 63
1, 337495, Note_off_c, 0, 62, 62
1, 337538, Note_off_c, 0, 91, 60
1, 337614, Note_on_c, 0, 68, 75
1, 337621, Note_on_c, 0, 77, 88
1, 337623, Note_on_c, 0, 89, 90
1, 337636, Note_off_c, 0, 68, 71
1, 337647, Note_off_c, 0, 84, 62
1, 337734, Note_off_c, 0, 77, 61
1, 337764, Note_off_c, 0, 89, 62
1, 337790, Control_c, 0, 64, 114
1, 337805, Note_on_c, 0, 83, 66
1, 337805, Note_on_c, 0, 43, 74
1, 337805, Note_on_c, 0, 91, 100
1, 337805, Control_c, 0, 64, 78
1, 337814, Note_on_c, 0, 79, 82
1, 337820, Control_c, 0, 64, 55
1, 337835, Control_c, 0, 64, 0
1, 337880, Control_c, 0, 64, 48
1, 337894, Control_c, 0, 64, 64
1, 337909, Note_off_c, 0, 79, 61
1, 337909, Control_c, 0, 64, 68
1, 337924, Control_c, 0, 64, 72
1, 337945, Note_off_c, 0, 91, 64
1, 337946, Control_c, 0, 64, 73
1, 337961, Control_c, 0, 64, 73
1, 337975, Control_c, 0, 64, 74
1, 337990, Note_on_c, 0, 89, 85
1, 337990, Control_c, 0, 64, 75
1, 337992, Note_on_c, 0, 49, 67
1, 337999, Note_on_c, 0, 77, 78
1, 338005, Control_c, 0, 64, 77
1, 338016, Note_off_c, 0, 83, 52
1, 338020, Control_c, 0, 64, 79
1, 338035, Control_c, 0, 64, 82
1, 338050, Control_c, 0, 64, 86
1, 338064, Control_c, 0, 64, 91
1, 338078, Note_off_c, 0, 77, 59
1, 338079, Control_c, 0, 64, 96
1, 338094, Control_c, 0, 64, 100
1, 338126, Note_off_c, 0, 89, 59
1, 338139, Control_c, 0, 64, 85
1, 338142, Note_off_c, 0, 49, 60
1, 338154, Control_c, 0, 64, 67
1, 338158, Note_on_c, 0, 91, 89
1, 338160, Note_off_c, 0, 43, 61
1, 338165, Note_on_c, 0, 50, 70
1, 338166, Note_on_c, 0, 83, 74
1, 338168, Note_on_c, 0, 79, 77
1, 338169, Control_c, 0, 64, 55
1, 338196, Note_off_c, 0, 50, 66
1, 338199, Control_c, 0, 64, 61
1, 338214, Control_c, 0, 64, 70
1, 338228, Control_c, 0, 64, 84
1, 338243, Control_c, 0, 64, 97
1, 338258, Control_c, 0, 64, 101
1, 338261, Note_off_c, 0, 83, 62
1, 338273, Control_c, 0, 64, 103
1, 338277, Note_off_c, 0, 79, 62
1, 338277, Note_off_c, 0, 91, 65
1, 338288, Control_c, 0, 64, 105
1, 338302, Control_c, 0, 64, 107
1, 338318, Control_c, 0, 64, 109
1, 338324, Note_on_c, 0, 59, 87
1, 338333, Control_c, 0, 64, 111
1, 338348, Control_c, 0, 64, 114
1, 338363, Control_c, 0, 64, 116
1, 338377, Control_c, 0, 64, 118
1, 338392, Control_c, 0, 64, 120
1, 338407, Control_c, 0, 64, 124
1, 338422, Control_c, 0, 64, 127
1, 338485, Note_on_c, 0, 91, 90
1, 338492, Note_on_c, 0, 79, 84
1, 338496, Note_on_c, 0, 62, 79
1, 338531, Note_off_c, 0, 79, 67
1, 338550, Note_off_c, 0, 91, 63
1, 338604, Note_on_c, 0, 84, 43
1, 338651, Note_off_c, 0, 84, 57
1, 338667, Note_on_c, 0, 92, 101
1, 338668, Note_on_c, 0, 80, 97
1, 338670, Note_on_c, 0, 71, 74
1, 338702, Note_off_c, 0, 71, 67
1, 338708, Note_off_c, 0, 59, 44
1, 338725, Note_off_c, 0, 62, 64
1, 338831, Note_off_c, 0, 92, 65
1, 338851, Note_off_c, 0, 80, 60
1, 338880, Note_on_c, 0, 43, 70
1, 338934, Note_on_c, 0, 94, 103
1, 338938, Note_on_c, 0, 86, 81
1, 338938, Note_on_c, 0, 82, 86
1, 338947, Control_c, 0, 64, 104
1, 338962, Control_c, 0, 64, 71
1, 338976, Control_c, 0, 64, 44
1, 338990, Note_off_c, 0, 86, 0
1, 338991, Control_c, 0, 64, 0
1, 339021, Control_c, 0, 64, 39
1, 339027, Poly_aftertouch_c, 0, 86, 127
1, 339036, Control_c, 0, 64, 60
1, 339050, Control_c, 0, 64, 70
1, 339065, Control_c, 0, 64, 79
1, 339072, Poly_aftertouch_c, 0, 86, 0
1, 339080, Control_c, 0, 64, 84
1, 339095, Control_c, 0, 64, 87
1, 339111, Control_c, 0, 64, 92
1, 339120, Note_off_c, 0, 94, 65
1, 339124, Note_off_c, 0, 43, 61
1, 339126, Control_c, 0, 64, 96
1, 339141, Control_c, 0, 64, 102
1, 339143, Note_on_c, 0, 51, 72
1, 339155, Control_c, 0, 64, 107
1, 339162, Note_off_c, 0, 82, 63
1, 339170, Control_c, 0, 64, 110
1, 339185, Control_c, 0, 64, 114
1, 339199, Control_c, 0, 64, 118
1, 339214, Control_c, 0, 64, 120
1, 339229, Control_c, 0, 64, 124
1, 339244, Control_c, 0, 64, 127
1, 339270, Note_off_c, 0, 51, 61
1, 339296, Note_on_c, 0, 92, 101
1, 339300, Note_on_c, 0, 80, 89
1, 339305, Note_on_c, 0, 54, 67
1, 339312, Note_on_c, 0, 84, 64
1, 339331, Note_off_c, 0, 84, 66
1, 339335, Note_off_c, 0, 54, 65
1, 339399, Note_off_c, 0, 80, 62
1, 339400, Note_off_c, 0, 92, 65
1, 339459, Control_c, 0, 64, 124
1, 339473, Control_c, 0, 64, 99
1, 339488, Control_c, 0, 64, 83
1, 339492, Note_on_c, 0, 90, 91
1, 339501, Note_on_c, 0, 78, 80
1, 339503, Control_c, 0, 64, 72
1, 339510, Note_on_c, 0, 82, 74
1, 339518, Control_c, 0, 64, 66
1, 339533, Control_c, 0, 64, 66
1, 339540, Note_on_c, 0, 56, 33
1, 339547, Control_c, 0, 64, 68
1, 339562, Control_c, 0, 64, 73
1, 339577, Control_c, 0, 64, 80
1, 339591, Control_c, 0, 64, 86
1, 339606, Control_c, 0, 64, 90
1, 339621, Control_c, 0, 64, 93
1, 339624, Note_off_c, 0, 90, 64
1, 339636, Control_c, 0, 64, 96
1, 339639, Note_off_c, 0, 78, 61
1, 339640, Note_off_c, 0, 82, 62
1, 339651, Control_c, 0, 64, 98
1, 339680, Control_c, 0, 64, 100
1, 339698, Note_on_c, 0, 60, 56
1, 339804, Note_off_c, 0, 60, 60
1, 339832, Note_off_c, 0, 56, 40
1, 339833, Note_on_c, 0, 87, 90
1, 339835, Note_on_c, 0, 66, 71
1, 339835, Note_on_c, 0, 78, 65
1, 339841, Note_on_c, 0, 75, 77
1, 339859, Control_c, 0, 64, 102
1, 339862, Note_off_c, 0, 66, 68
1, 339871, Note_off_c, 0, 78, 61
1, 339903, Control_c, 0, 64, 104
1, 339919, Control_c, 0, 64, 106
1, 339934, Control_c, 0, 64, 109
1, 339936, Note_off_c, 0, 75, 64
1, 339963, Control_c, 0, 64, 111
1, 339964, Note_off_c, 0, 87, 62
1, 339993, Control_c, 0, 64, 108
1, 340008, Control_c, 0, 64, 90
1, 340022, Control_c, 0, 64, 66
1, 340028, Note_on_c, 0, 86, 82
1, 340029, Note_on_c, 0, 43, 57
1, 340037, Control_c, 0, 64, 46
1, 340041, Note_on_c, 0, 74, 70
1, 340041, Note_on_c, 0, 77, 55
1, 340052, Control_c, 0, 64, 36
1, 340067, Control_c, 0, 64, 40
1, 340081, Control_c, 0, 64, 53
1, 340096, Control_c, 0, 64, 64
1, 340111, Control_c, 0, 64, 72
1, 340124, Note_off_c, 0, 74, 61
1, 340126, Control_c, 0, 64, 79
1, 340131, Note_off_c, 0, 86, 64
1, 340136, Note_off_c, 0, 77, 63
1, 340141, Control_c, 0, 64, 80
1, 340156, Control_c, 0, 64, 81
1, 340170, Control_c, 0, 64, 81
1, 340222, Control_c, 0, 64, 82
1, 340226, Note_on_c, 0, 49, 53
1, 340227, Note_on_c, 0, 84, 82
1, 340252, Note_on_c, 0, 75, 55
1, 340252, Control_c, 0, 64, 82
1, 340259, Note_on_c, 0, 72, 41
1, 340267, Control_c, 0, 64, 83
1, 340282, Control_c, 0, 64, 84
1, 340296, Control_c, 0, 64, 86
1, 340310, Note_off_c, 0, 72, 43
1, 340311, Control_c, 0, 64, 89
1, 340317, Note_off_c, 0, 75, 54
1, 340317, Note_off_c, 0, 84, 63
1, 340326, Control_c, 0, 64, 92
1, 340341, Control_c, 0, 64, 92
1, 340356, Control_c, 0, 64, 92
1, 340370, Control_c, 0, 64, 87
1, 340385, Note_off_c, 0, 49, 57
1, 340385, Control_c, 0, 64, 75
1, 340400, Control_c, 0, 64, 64
1, 340405, Note_on_c, 0, 83, 75
1, 340414, Note_on_c, 0, 71, 60
1, 340414, Control_c, 0, 64, 58
1, 340418, Note_on_c, 0, 74, 58
1, 340422, Note_on_c, 0, 50, 46
1, 340429, Control_c, 0, 64, 59
1, 340431, Note_off_c, 0, 43, 55
1, 340444, Control_c, 0, 64, 63
1, 340459, Control_c, 0, 64, 68
1, 340474, Note_off_c, 0, 50, 63
1, 340474, Control_c, 0, 64, 74
1, 340488, Control_c, 0, 64, 78
1, 340500, Note_off_c, 0, 71, 55
1, 340503, Control_c, 0, 64, 81
1, 340510, Note_off_c, 0, 74, 63
1, 340518, Control_c, 0, 64, 84
1, 340530, Note_off_c, 0, 83, 62
1, 340533, Control_c, 0, 64, 89
1, 340548, Control_c, 0, 64, 96
1, 340562, Control_c, 0, 64, 100
1, 340577, Control_c, 0, 64, 103
1, 340597, Note_on_c, 0, 59, 66
1, 340622, Control_c, 0, 64, 101
1, 340637, Control_c, 0, 64, 87
1, 340652, Control_c, 0, 64, 65
1, 340667, Control_c, 0, 64, 41
1, 340682, Control_c, 0, 64, 0
1, 340712, Control_c, 0, 64, 46
1, 340726, Control_c, 0, 64, 62
1, 340741, Control_c, 0, 64, 70
1, 340751, Note_on_c, 0, 83, 79
1, 340756, Control_c, 0, 64, 77
1, 340765, Note_on_c, 0, 71, 64
1, 340765, Note_on_c, 0, 74, 63
1, 340771, Control_c, 0, 64, 79
1, 340780, Note_on_c, 0, 62, 56
1, 340786, Control_c, 0, 64, 80
1, 340801, Control_c, 0, 64, 82
1, 340803, Note_off_c, 0, 74, 62
1, 340813, Note_off_c, 0, 71, 56
1, 340816, Control_c, 0, 64, 84
1, 340831, Control_c, 0, 64, 87
1, 340842, Note_off_c, 0, 83, 64
1, 340845, Control_c, 0, 64, 89
1, 340860, Control_c, 0, 64, 90
1, 340875, Control_c, 0, 64, 91
1, 340890, Control_c, 0, 64, 92
1, 340905, Control_c, 0, 64, 92
1, 340919, Control_c, 0, 64, 93
1, 340920, Note_on_c, 0, 84, 86
1, 340929, Note_on_c, 0, 71, 63
1, 340947, Note_on_c, 0, 72, 69
1, 340951, Note_on_c, 0, 75, 58
1, 340956, Control_c, 0, 64, 94
1, 340959, Note_off_c, 0, 71, 62
1, 340971, Control_c, 0, 64, 94
1, 340973, Note_off_c, 0, 75, 62
1, 340977, Note_off_c, 0, 62, 63
1, 340978, Note_off_c, 0, 59, 56
1, 340986, Control_c, 0, 64, 95
1, 341001, Control_c, 0, 64, 96
1, 341009, Note_off_c, 0, 72, 59
1, 341037, Note_off_c, 0, 84, 63
1, 341045, Control_c, 0, 64, 98
1, 341119, Control_c, 0, 64, 94
1, 341129, Note_on_c, 0, 43, 55
1, 341135, Control_c, 0, 64, 81
1, 341141, Note_on_c, 0, 86, 80
1, 341149, Note_on_c, 0, 77, 59
1, 341150, Control_c, 0, 64, 66
1, 341161, Note_on_c, 0, 74, 56
1, 341165, Control_c, 0, 64, 49
1, 341179, Control_c, 0, 64, 44
1, 341194, Control_c, 0, 64, 47
1, 341209, Control_c, 0, 64, 57
1, 341224, Control_c, 0, 64, 65
1, 341238, Control_c, 0, 64, 72
1, 341246, Note_off_c, 0, 77, 63
1, 341253, Control_c, 0, 64, 78
1, 341263, Note_off_c, 0, 86, 65
1, 341268, Control_c, 0, 64, 81
1, 341281, Note_off_c, 0, 74, 64
1, 341283, Control_c, 0, 64, 84
1, 341298, Control_c, 0, 64, 86
1, 341300, Note_off_c, 0, 43, 60
1, 341312, Control_c, 0, 64, 89
1, 341325, Note_on_c, 0, 51, 53
1, 341327, Control_c, 0, 64, 92
1, 341342, Control_c, 0, 64, 94
1, 341357, Control_c, 0, 64, 97
1, 341371, Control_c, 0, 64, 99
1, 341401, Control_c, 0, 64, 102
1, 341431, Control_c, 0, 64, 105
1, 341455, Note_off_c, 0, 51, 57
1, 341460, Control_c, 0, 64, 108
1, 341480, Note_on_c, 0, 83, 82
1, 341490, Control_c, 0, 64, 110
1, 341492, Note_on_c, 0, 71, 67
1, 341495, Note_on_c, 0, 56, 62
1, 341521, Control_c, 0, 64, 113
1, 341546, Note_off_c, 0, 71, 57
1, 341550, Control_c, 0, 64, 118
1, 341555, Note_off_c, 0, 56, 61
1, 341565, Control_c, 0, 64, 127
1, 341578, Note_off_c, 0, 83, 64
1, 341663, Note_on_c, 0, 86, 88
1, 341668, Control_c, 0, 64, 105
1, 341676, Note_on_c, 0, 60, 61
1, 341680, Note_on_c, 0, 74, 62
1, 341691, Control_c, 0, 64, 81
1, 341698, Note_on_c, 0, 77, 61
1, 341706, Control_c, 0, 64, 64
1, 341721, Control_c, 0, 64, 55
1, 341736, Control_c, 0, 64, 56
1, 341750, Control_c, 0, 64, 62
1, 341765, Control_c, 0, 64, 73
1, 341780, Control_c, 0, 64, 87
1, 341794, Control_c, 0, 64, 101
1, 341809, Control_c, 0, 64, 108
1, 341812, Note_off_c, 0, 77, 63
1, 341824, Control_c, 0, 64, 122
1, 341838, Note_off_c, 0, 86, 62
1, 341839, Control_c, 0, 64, 127
1, 341845, Note_off_c, 0, 74, 63
1, 341847, Note_on_c, 0, 62, 69
1, 341855, Note_off_c, 0, 60, 60
1, 341990, Note_off_c, 0, 62, 62
1, 342023, Note_on_c, 0, 84, 91
1, 342026, Note_on_c, 0, 72, 79
1, 342029, Note_on_c, 0, 68, 68
1, 342037, Poly_aftertouch_c, 0, 75, 0
1, 342053, Note_off_c, 0, 68, 69
1, 342068, Note_off_c, 0, 72, 63
1, 342116, Note_off_c, 0, 84, 63
1, 342226, Note_on_c, 0, 79, 46
1, 342230, Note_on_c, 0, 43, 62
1, 342232, Note_on_c, 0, 87, 95
1, 342241, Note_on_c, 0, 75, 70
1, 342253, Control_c, 0, 64, 109
1, 342267, Control_c, 0, 64, 76
1, 342282, Control_c, 0, 64, 55
1, 342297, Control_c, 0, 64, 44
1, 342312, Control_c, 0, 64, 46
1, 342327, Control_c, 0, 64, 54
1, 342342, Control_c, 0, 64, 65
1, 342357, Control_c, 0, 64, 75
1, 342359, Note_off_c, 0, 79, 62
1, 342372, Control_c, 0, 64, 89
1, 342387, Control_c, 0, 64, 96
1, 342402, Control_c, 0, 64, 102
1, 342404, Note_off_c, 0, 75, 65
1, 342405, Note_off_c, 0, 87, 67
1, 342407, Note_on_c, 0, 50, 70
1, 342416, Control_c, 0, 64, 108
1, 342417, Note_off_c, 0, 43, 58
1, 342438, Control_c, 0, 64, 120
1, 342453, Control_c, 0, 64, 127
1, 342546, Note_off_c, 0, 50, 62
1, 342581, Note_on_c, 0, 86, 95
1, 342581, Note_on_c, 0, 55, 62
1, 342589, Note_on_c, 0, 74, 87
1, 342641, Note_off_c, 0, 86, 62
1, 342646, Note_off_c, 0, 74, 60
1, 342661, Note_off_c, 0, 55, 62
1, 342751, Note_on_c, 0, 82, 94
1, 342756, Note_on_c, 0, 58, 77
1, 342761, Note_on_c, 0, 70, 81
1, 342765, Note_on_c, 0, 74, 74
1, 342850, Note_off_c, 0, 70, 62
1, 342864, Note_off_c, 0, 74, 63
1, 342900, Note_off_c, 0, 82, 60
1, 342912, Note_on_c, 0, 62, 72
1, 343085, Note_on_c, 0, 67, 74
1, 343088, Note_on_c, 0, 86, 101
1, 343091, Note_off_c, 0, 62, 62
1, 343096, Note_on_c, 0, 74, 84
1, 343111, Note_off_c, 0, 67, 67
1, 343132, Note_off_c, 0, 58, 62
1, 343170, Note_off_c, 0, 74, 57
1, 343224, Note_off_c, 0, 86, 67
1, 343296, Note_on_c, 0, 43, 67
1, 343304, Note_on_c, 0, 89, 96
1, 343313, Note_on_c, 0, 77, 87
1, 343320, Control_c, 0, 64, 115
1, 343335, Control_c, 0, 64, 78
1, 343337, Note_on_c, 0, 80, 60
1, 343350, Control_c, 0, 64, 60
1, 343365, Control_c, 0, 64, 42
1, 343379, Control_c, 0, 64, 40
1, 343394, Control_c, 0, 64, 52
1, 343409, Control_c, 0, 64, 65
1, 343424, Control_c, 0, 64, 77
1, 343439, Control_c, 0, 64, 95
1, 343451, Note_off_c, 0, 80, 63
1, 343454, Control_c, 0, 64, 105
1, 343469, Control_c, 0, 64, 116
1, 343484, Note_off_c, 0, 89, 60
1, 343484, Control_c, 0, 64, 127
1, 343488, Note_off_c, 0, 43, 60
1, 343493, Note_on_c, 0, 51, 74
1, 343528, Note_off_c, 0, 77, 58
1, 343656, Note_off_c, 0, 51, 61
1, 343670, Note_on_c, 0, 91, 97
1, 343678, Note_on_c, 0, 56, 67
1, 343680, Note_on_c, 0, 79, 78
1, 343695, Note_on_c, 0, 82, 68
1, 343719, Note_off_c, 0, 82, 68
1, 343722, Note_off_c, 0, 56, 62
1, 343728, Note_off_c, 0, 79, 63
1, 343730, Note_off_c, 0, 91, 66
1, 343874, Note_on_c, 0, 60, 61
1, 343885, Note_on_c, 0, 87, 89
1, 343894, Note_on_c, 0, 75, 79
1, 343895, Note_on_c, 0, 79, 65
1, 343914, Control_c, 0, 64, 83
1, 343936, Control_c, 0, 64, 66
1, 343951, Control_c, 0, 64, 54
1, 343966, Control_c, 0, 64, 52
1, 343981, Control_c, 0, 64, 56
1, 343995, Control_c, 0, 64, 63
1, 344010, Control_c, 0, 64, 69
1, 344025, Control_c, 0, 64, 78
1, 344040, Control_c, 0, 64, 83
1, 344055, Control_c, 0, 64, 87
1, 344069, Control_c, 0, 64, 92
1, 344084, Control_c, 0, 64, 98
1, 344098, Note_off_c, 0, 79, 61
1, 344099, Control_c, 0, 64, 104
1, 344106, Note_on_c, 0, 63, 69
1, 344106, Note_off_c, 0, 60, 62
1, 344114, Control_c, 0, 64, 115
1, 344129, Control_c, 0, 64, 127
1, 344132, Note_off_c, 0, 87, 60
1, 344146, Note_off_c, 0, 75, 62
1, 344356, Note_off_c, 0, 63, 50
1, 344360, Note_on_c, 0, 66, 56
1, 344420, Note_on_c, 0, 86, 81
1, 344425, Note_off_c, 0, 66, 58
1, 344433, Note_on_c, 0, 74, 60
1, 344438, Note_on_c, 0, 77, 48
1, 344535, Note_off_c, 0, 77, 53
1, 344571, Note_off_c, 0, 86, 63
1, 344599, Note_off_c, 0, 74, 63
1, 344842, Note_on_c, 0, 43, 49
1, 344881, Note_on_c, 0, 83, 76
1, 344892, Control_c, 0, 64, 92
1, 344894, Note_on_c, 0, 74, 58
1, 344902, Note_on_c, 0, 71, 51
1, 344907, Control_c, 0, 64, 72
1, 344922, Control_c, 0, 64, 56
1, 344937, Control_c, 0, 64, 37
1, 344952, Control_c, 0, 64, 0
1, 344966, Control_c, 0, 64, 30
1, 344981, Control_c, 0, 64, 40
1, 344996, Control_c, 0, 64, 51
1, 345010, Control_c, 0, 64, 59
1, 345025, Control_c, 0, 64, 63
1, 345040, Control_c, 0, 64, 66
1, 345055, Control_c, 0, 64, 68
1, 345070, Control_c, 0, 64, 70
1, 345079, Note_off_c, 0, 71, 48
1, 345085, Note_off_c, 0, 74, 59
1, 345085, Control_c, 0, 64, 71
1, 345085, Control_c, 0, 67, 37
1, 345099, Control_c, 0, 64, 72
1, 345101, Note_off_c, 0, 83, 60
1, 345129, Control_c, 0, 64, 72
1, 345174, Control_c, 0, 67, 38
1, 345189, Control_c, 0, 67, 39
1, 345203, Control_c, 0, 67, 39
1, 345218, Control_c, 0, 67, 41
1, 345220, Note_on_c, 0, 81, 71
1, 345222, Note_on_c, 0, 49, 42
1, 345233, Control_c, 0, 67, 45
1, 345248, Control_c, 0, 67, 66
1, 345255, Note_on_c, 0, 72, 36
1, 345263, Control_c, 0, 67, 86
1, 345266, Note_on_c, 0, 69, 17
1, 345277, Control_c, 0, 67, 95
1, 345292, Control_c, 0, 64, 73
1, 345292, Control_c, 0, 67, 99
1, 345307, Control_c, 0, 67, 102
1, 345319, Note_off_c, 0, 69, 46
1, 345321, Note_off_c, 0, 72, 59
1, 345326, Note_off_c, 0, 81, 62
1, 345336, Control_c, 0, 67, 105
1, 345351, Control_c, 0, 67, 107
1, 345366, Control_c, 0, 64, 73
1, 345366, Control_c, 0, 67, 110
1, 345381, Control_c, 0, 67, 113
1, 345396, Control_c, 0, 64, 73
1, 345405, Note_off_c, 0, 49, 56
1, 345410, Control_c, 0, 64, 71
1, 345433, Control_c, 0, 64, 63
1, 345448, Note_on_c, 0, 79, 57
1, 345448, Control_c, 0, 64, 49
1, 345454, Note_on_c, 0, 50, 44
1, 345463, Control_c, 0, 64, 38
1, 345466, Note_on_c, 0, 67, 34
1, 345475, Note_on_c, 0, 71, 26
1, 345478, Control_c, 0, 64, 37
1, 345492, Control_c, 0, 64, 44
1, 345508, Control_c, 0, 64, 56
1, 345509, Note_off_c, 0, 43, 59
1, 345523, Control_c, 0, 64, 63
1, 345537, Note_off_c, 0, 50, 63
1, 345538, Control_c, 0, 64, 67
1, 345538, Control_c, 0, 67, 115
1, 345553, Control_c, 0, 64, 71
1, 345567, Control_c, 0, 64, 72
1, 345582, Control_c, 0, 64, 73
1, 345597, Control_c, 0, 64, 73
1, 345612, Control_c, 0, 64, 74
1, 345622, Note_off_c, 0, 71, 39
1, 345627, Note_off_c, 0, 79, 52
1, 345639, Note_off_c, 0, 67, 35
1, 345671, Control_c, 0, 64, 74
1, 345674, Note_on_c, 0, 62, 52
1, 345701, Control_c, 0, 64, 75
1, 345715, Control_c, 0, 64, 76
1, 345730, Control_c, 0, 64, 76
1, 345730, Control_c, 0, 67, 113
1, 345745, Control_c, 0, 64, 77
1, 345774, Control_c, 0, 64, 76
1, 345789, Control_c, 0, 64, 73
1, 345804, Control_c, 0, 64, 68
1, 345819, Control_c, 0, 64, 64
1, 345819, Control_c, 0, 67, 110
1, 345833, Control_c, 0, 64, 64
1, 345848, Control_c, 0, 64, 65
1, 345848, Control_c, 0, 67, 108
1, 345860, Note_on_c, 0, 79, 69
1, 345863, Control_c, 0, 64, 68
1, 345863, Control_c, 0, 67, 106
1, 345878, Note_on_c, 0, 71, 49
1, 345878, Control_c, 0, 64, 72
1, 345880, Note_on_c, 0, 65, 53
1, 345883, Note_on_c, 0, 67, 50
1, 345884, Note_off_c, 0, 62, 56
1, 345893, Control_c, 0, 64, 75
1, 345893, Control_c, 0, 67, 103
1, 345907, Control_c, 0, 64, 78
1, 345907, Control_c, 0, 67, 101
1, 345918, Note_off_c, 0, 71, 60
1, 345922, Control_c, 0, 64, 80
1, 345925, Note_off_c, 0, 67, 58
1, 345937, Control_c, 0, 64, 81
1, 345937, Control_c, 0, 67, 99
1, 345952, Control_c, 0, 64, 83
1, 345967, Note_off_c, 0, 79, 63
1, 345967, Control_c, 0, 64, 84
1, 345982, Control_c, 0, 64, 85
1, 345997, Control_c, 0, 64, 85
1, 346012, Note_off_c, 0, 65, 36
1, 346037, Note_on_c, 0, 62, 55
1, 346053, Note_on_c, 0, 81, 82
1, 346056, Control_c, 0, 67, 97
1, 346060, Note_off_c, 0, 62, 58
1, 346074, Note_on_c, 0, 69, 49
1, 346076, Note_on_c, 0, 72, 49
1, 346086, Control_c, 0, 64, 86
1, 346097, Note_off_c, 0, 69, 58
1, 346098, Note_off_c, 0, 72, 57
1, 346122, Note_off_c, 0, 81, 64
1, 346150, Note_on_c, 0, 43, 56
1, 346159, Control_c, 0, 67, 99
1, 346183, Note_off_c, 0, 43, 56
1, 346211, Control_c, 0, 67, 102
1, 346256, Control_c, 0, 67, 104
1, 346301, Control_c, 0, 64, 85
1, 346316, Control_c, 0, 64, 83
1, 346322, Note_on_c, 0, 83, 77
1, 346331, Control_c, 0, 64, 75
1, 346334, Note_on_c, 0, 63, 61
1, 346337, Note_on_c, 0, 74, 52
1, 346345, Control_c, 0, 64, 64
1, 346355, Note_on_c, 0, 71, 42
1, 346360, Control_c, 0, 64, 49
1, 346375, Control_c, 0, 64, 42
1, 346390, Control_c, 0, 64, 41
1, 346405, Control_c, 0, 64, 47
1, 346420, Control_c, 0, 64, 56
1, 346435, Control_c, 0, 64, 62
1, 346450, Control_c, 0, 64, 67
1, 346464, Control_c, 0, 64, 71
1, 346479, Control_c, 0, 64, 74
1, 346494, Control_c, 0, 64, 75
1, 346509, Control_c, 0, 64, 77
1, 346524, Control_c, 0, 64, 79
1, 346538, Control_c, 0, 64, 80
1, 346553, Control_c, 0, 64, 81
1, 346568, Control_c, 0, 64, 82
1, 346582, Control_c, 0, 64, 82
1, 346586, Note_on_c, 0, 51, 44
1, 346603, Note_off_c, 0, 63, 53
1, 346605, Note_off_c, 0, 83, 57
1, 346610, Note_off_c, 0, 71, 39
1, 346612, Control_c, 0, 64, 83
1, 346626, Note_off_c, 0, 74, 61
1, 346644, Note_off_c, 0, 51, 54
1, 346721, Note_on_c, 0, 81, 74
1, 346745, Note_on_c, 0, 55, 51
1, 346763, Note_on_c, 0, 72, 41
1, 346776, Note_on_c, 0, 69, 4
1, 346813, Note_off_c, 0, 72, 58
1, 346821, Note_off_c, 0, 81, 62
1, 346831, Note_off_c, 0, 69, 50
1, 346908, Control_c, 0, 64, 81
1, 346908, Control_c, 0, 67, 107
1, 346912, Note_on_c, 0, 60, 63
1, 346912, Note_off_c, 0, 55, 59
1, 346914, Note_on_c, 0, 79, 67
1, 346930, Control_c, 0, 64, 74
1, 346945, Control_c, 0, 64, 62
1, 346945, Control_c, 0, 67, 110
1, 346957, Note_on_c, 0, 71, 41
1, 346960, Control_c, 0, 64, 47
1, 346975, Control_c, 0, 64, 35
1, 346975, Control_c, 0, 67, 113
1, 346978, Note_on_c, 0, 67, 13
1, 346989, Control_c, 0, 64, 36
1, 347004, Control_c, 0, 64, 44
1, 347004, Control_c, 0, 67, 117
1, 347019, Control_c, 0, 64, 54
1, 347019, Control_c, 0, 67, 119
1, 347034, Control_c, 0, 64, 61
1, 347049, Control_c, 0, 64, 64
1, 347049, Control_c, 0, 67, 122
1, 347064, Control_c, 0, 64, 66
1, 347064, Control_c, 0, 67, 127
1, 347079, Control_c, 0, 64, 68
1, 347091, Note_off_c, 0, 60, 62
1, 347094, Control_c, 0, 64, 69
1, 347109, Control_c, 0, 64, 70
1, 347124, Note_on_c, 0, 62, 65
1, 347124, Control_c, 0, 64, 71
1, 347129, Note_off_c, 0, 79, 59
1, 347139, Note_off_c, 0, 67, 41
1, 347139, Control_c, 0, 64, 72
1, 347153, Control_c, 0, 64, 73
1, 347165, Note_off_c, 0, 71, 61
1, 347168, Control_c, 0, 64, 74
1, 347198, Control_c, 0, 64, 74
1, 347213, Control_c, 0, 64, 75
1, 347243, Control_c, 0, 64, 75
1, 347277, Note_off_c, 0, 62, 50
1, 347280, Note_on_c, 0, 63, 61
1, 347287, Control_c, 0, 64, 76
1, 347307, Note_on_c, 0, 77, 71
1, 347311, Note_off_c, 0, 63, 65
1, 347320, Note_on_c, 0, 65, 44
1, 347328, Note_on_c, 0, 69, 35
1, 347347, Note_off_c, 0, 65, 55
1, 347355, Note_off_c, 0, 77, 57
1, 347361, Note_off_c, 0, 69, 54
1, 347376, Control_c, 0, 64, 76
1, 347409, Note_on_c, 0, 43, 65
1, 347420, Control_c, 0, 64, 77
1, 347436, Note_off_c, 0, 43, 63
1, 347465, Control_c, 0, 64, 76
1, 347479, Control_c, 0, 64, 72
1, 347494, Control_c, 0, 64, 64
1, 347509, Control_c, 0, 64, 53
1, 347512, Note_on_c, 0, 79, 71
1, 347523, Control_c, 0, 64, 47
1, 347536, Note_on_c, 0, 71, 52
1, 347538, Note_on_c, 0, 62, 56
1, 347538, Control_c, 0, 64, 48
1, 347541, Note_on_c, 0, 67, 43
1, 347553, Control_c, 0, 64, 54
1, 347568, Control_c, 0, 64, 61
1, 347579, Note_off_c, 0, 62, 64
1, 347583, Control_c, 0, 64, 66
1, 347597, Control_c, 0, 64, 70
1, 347612, Control_c, 0, 64, 73
1, 347618, Note_off_c, 0, 79, 62
1, 347619, Note_off_c, 0, 71, 62
1, 347627, Control_c, 0, 64, 74
1, 347635, Note_off_c, 0, 67, 37
1, 347642, Control_c, 0, 64, 75
1, 347657, Control_c, 0, 64, 75
1, 347672, Control_c, 0, 64, 76
1, 347694, Control_c, 0, 64, 76
1, 347724, Control_c, 0, 64, 77
1, 347737, Note_on_c, 0, 77, 71
1, 347752, Note_on_c, 0, 67, 55
1, 347761, Note_on_c, 0, 69, 37
1, 347793, Note_off_c, 0, 69, 53
1, 347796, Note_off_c, 0, 67, 59
1, 347804, Poly_aftertouch_c, 0, 65, 127
1, 347819, Note_off_c, 0, 77, 60
1, 347841, Poly_aftertouch_c, 0, 65, 0
1, 347931, Note_on_c, 0, 79, 62
1, 347961, Note_on_c, 0, 67, 20
1, 347969, Note_on_c, 0, 71, 33
1, 347982, Note_on_c, 0, 62, 24
1, 348013, Note_off_c, 0, 67, 46
1, 348019, Note_off_c, 0, 71, 45
1, 348027, Poly_aftertouch_c, 0, 60, 127
1, 348067, Note_off_c, 0, 79, 59
1, 348077, Poly_aftertouch_c, 0, 60, 0
1, 348098, Note_off_c, 0, 62, 51
1, 348116, Note_on_c, 0, 55, 60
1, 348125, Control_c, 0, 64, 76
1, 348140, Control_c, 0, 64, 72
1, 348155, Control_c, 0, 64, 65
1, 348170, Control_c, 0, 64, 57
1, 348185, Control_c, 0, 64, 55
1, 348200, Control_c, 0, 64, 56
1, 348214, Control_c, 0, 64, 60
1, 348229, Control_c, 0, 64, 64
1, 348244, Control_c, 0, 64, 68
1, 348259, Control_c, 0, 64, 71
1, 348274, Control_c, 0, 64, 73
1, 348289, Control_c, 0, 64, 74
1, 348299, Note_on_c, 0, 79, 71
1, 348303, Control_c, 0, 64, 76
1, 348318, Note_on_c, 0, 65, 52
1, 348318, Control_c, 0, 64, 77
1, 348322, Note_on_c, 0, 71, 45
1, 348323, Note_on_c, 0, 67, 45
1, 348333, Control_c, 0, 64, 78
1, 348347, Control_c, 0, 64, 79
1, 348362, Control_c, 0, 64, 80
1, 348364, Note_off_c, 0, 71, 49
1, 348371, Note_off_c, 0, 67, 49
1, 348372, Note_off_c, 0, 65, 44
1, 348377, Control_c, 0, 64, 81
1, 348392, Control_c, 0, 64, 81
1, 348404, Note_off_c, 0, 79, 63
1, 348407, Control_c, 0, 64, 82
1, 348465, Note_off_c, 0, 55, 50
1, 348493, Note_on_c, 0, 81, 86
1, 348498, Note_on_c, 0, 62, 31
1, 348510, Note_on_c, 0, 72, 55
1, 348513, Note_on_c, 0, 69, 54
1, 348533, Note_off_c, 0, 72, 60
1, 348534, Note_off_c, 0, 62, 51
1, 348539, Note_off_c, 0, 69, 59
1, 348569, Note_off_c, 0, 81, 64
1, 348586, Note_on_c, 0, 43, 67
1, 348619, Note_off_c, 0, 43, 63
1, 348726, Control_c, 0, 64, 81
1, 348741, Control_c, 0, 64, 78
1, 348742, Note_on_c, 0, 83, 84
1, 348752, Note_on_c, 0, 63, 70
1, 348756, Control_c, 0, 64, 71
1, 348758, Note_on_c, 0, 74, 51
1, 348767, Note_on_c, 0, 71, 49
1, 348771, Control_c, 0, 64, 61
1, 348785, Control_c, 0, 64, 52
1, 348800, Control_c, 0, 64, 49
1, 348815, Control_c, 0, 64, 51
1, 348830, Control_c, 0, 64, 57
1, 348845, Control_c, 0, 64, 62
1, 348859, Control_c, 0, 64, 67
1, 348874, Control_c, 0, 64, 71
1, 348889, Control_c, 0, 64, 74
1, 348904, Control_c, 0, 64, 76
1, 348919, Control_c, 0, 64, 78
1, 348933, Control_c, 0, 64, 79
1, 348946, Note_on_c, 0, 51, 60
1, 348948, Control_c, 0, 64, 81
1, 348954, Note_off_c, 0, 63, 59
1, 348963, Control_c, 0, 64, 82
1, 348974, Note_off_c, 0, 71, 59
1, 348978, Control_c, 0, 64, 82
1, 348980, Note_off_c, 0, 83, 57
1, 348990, Note_off_c, 0, 74, 60
1, 348992, Control_c, 0, 64, 83
1, 349034, Note_off_c, 0, 51, 62
1, 349096, Control_c, 0, 67, 119
1, 349109, Note_on_c, 0, 81, 81
1, 349111, Control_c, 0, 67, 117
1, 349115, Note_on_c, 0, 55, 64
1, 349126, Control_c, 0, 67, 115
1, 349138, Note_on_c, 0, 69, 54
1, 349141, Control_c, 0, 64, 83
1, 349141, Control_c, 0, 67, 113
1, 349152, Note_on_c, 0, 72, 47
1, 349156, Control_c, 0, 67, 109
1, 349177, Control_c, 0, 67, 102
1, 349192, Control_c, 0, 67, 96
1, 349194, Note_off_c, 0, 69, 57
1, 349204, Note_off_c, 0, 72, 60
1, 349207, Control_c, 0, 67, 94
1, 349219, Note_off_c, 0, 81, 63
1, 349297, Control_c, 0, 64, 81
1, 349297, Control_c, 0, 67, 94
1, 349311, Control_c, 0, 64, 72
1, 349318, Note_on_c, 0, 60, 69
1, 349319, Note_on_c, 0, 79, 77
1, 349326, Control_c, 0, 64, 58
1, 349326, Control_c, 0, 67, 93
1, 349333, Note_on_c, 0, 71, 62
1, 349335, Note_off_c, 0, 55, 57
1, 349341, Control_c, 0, 64, 44
1, 349344, Note_on_c, 0, 67, 47
1, 349356, Control_c, 0, 64, 35
1, 349370, Control_c, 0, 64, 36
1, 349370, Control_c, 0, 67, 92
1, 349384, Control_c, 0, 64, 45
1, 349384, Control_c, 0, 67, 91
1, 349399, Control_c, 0, 64, 56
1, 349399, Control_c, 0, 67, 90
1, 349414, Control_c, 0, 64, 63
1, 349429, Control_c, 0, 64, 67
1, 349429, Control_c, 0, 67, 90
1, 349444, Control_c, 0, 64, 71
1, 349458, Control_c, 0, 64, 73
1, 349473, Control_c, 0, 64, 75
1, 349485, Note_off_c, 0, 60, 63
1, 349488, Control_c, 0, 64, 78
1, 349488, Control_c, 0, 67, 89
1, 349502, Note_on_c, 0, 62, 74
1, 349504, Control_c, 0, 64, 80
1, 349519, Control_c, 0, 64, 83
1, 349534, Control_c, 0, 64, 85
1, 349534, Control_c, 0, 67, 90
1, 349548, Control_c, 0, 64, 87
1, 349553, Note_off_c, 0, 79, 59
1, 349563, Control_c, 0, 64, 88
1, 349574, Note_off_c, 0, 67, 38
1, 349578, Control_c, 0, 64, 88
1, 349578, Control_c, 0, 67, 90
1, 349586, Note_off_c, 0, 71, 62
1, 349593, Control_c, 0, 64, 89
1, 349593, Control_c, 0, 67, 92
1, 349607, Control_c, 0, 67, 92
1, 349622, Control_c, 0, 64, 89
1, 349622, Control_c, 0, 67, 93
1, 349665, Note_on_c, 0, 63, 72
1, 349666, Note_off_c, 0, 62, 48
1, 349685, Note_on_c, 0, 77, 80
1, 349690, Note_off_c, 0, 63, 69
1, 349694, Note_on_c, 0, 65, 60
1, 349696, Control_c, 0, 67, 94
1, 349698, Note_on_c, 0, 69, 58
1, 349717, Note_off_c, 0, 65, 58
1, 349720, Note_off_c, 0, 69, 63
1, 349741, Control_c, 0, 67, 94
1, 349746, Note_off_c, 0, 77, 64
1, 349770, Control_c, 0, 67, 95
1, 349794, Note_on_c, 0, 43, 67
1, 349815, Control_c, 0, 67, 98
1, 349825, Note_off_c, 0, 43, 65
1, 349830, Control_c, 0, 67, 100
1, 349845, Control_c, 0, 64, 88
1, 349845, Control_c, 0, 67, 102
1, 349860, Control_c, 0, 64, 79
1, 349874, Control_c, 0, 64, 66
1, 349889, Control_c, 0, 64, 55
1, 349900, Note_on_c, 0, 79, 76
1, 349904, Control_c, 0, 64, 50
1, 349925, Control_c, 0, 64, 51
1, 349934, Note_on_c, 0, 67, 59
1, 349940, Note_on_c, 0, 60, 47
1, 349940, Control_c, 0, 64, 58
1, 349945, Note_on_c, 0, 71, 38
1, 349955, Control_c, 0, 64, 64
1, 349965, Note_off_c, 0, 60, 54
1, 349970, Control_c, 0, 64, 67
1, 349985, Control_c, 0, 64, 71
1, 350000, Control_c, 0, 64, 73
1, 350009, Note_off_c, 0, 67, 61
1, 350012, Note_off_c, 0, 79, 63
1, 350012, Note_off_c, 0, 71, 63
1, 350015, Control_c, 0, 64, 74
1, 350030, Control_c, 0, 64, 76
1, 350045, Control_c, 0, 64, 76
1, 350060, Control_c, 0, 64, 77
1, 350074, Control_c, 0, 64, 77
1, 350089, Control_c, 0, 64, 78
1, 350110, Note_on_c, 0, 77, 79
1, 350128, Note_on_c, 0, 65, 44
1, 350139, Note_on_c, 0, 69, 41
1, 350142, Note_on_c, 0, 71, 65
1, 350179, Note_off_c, 0, 65, 53
1, 350180, Note_off_c, 0, 69, 60
1, 350188, Note_off_c, 0, 71, 50
1, 350193, Control_c, 0, 67, 104
1, 350208, Note_off_c, 0, 77, 62
1, 350252, Control_c, 0, 67, 106
1, 350297, Control_c, 0, 64, 77
1, 350312, Note_on_c, 0, 79, 67
1, 350312, Control_c, 0, 64, 74
1, 350312, Control_c, 0, 67, 108
1, 350313, Note_on_c, 0, 62, 50
1, 350327, Control_c, 0, 64, 71
1, 350331, Note_on_c, 0, 71, 52
1, 350335, Note_on_c, 0, 67, 47
1, 350342, Control_c, 0, 64, 69
1, 350356, Control_c, 0, 64, 68
1, 350356, Control_c, 0, 67, 110
1, 350401, Control_c, 0, 64, 69
1, 350416, Control_c, 0, 67, 113
1, 350419, Note_off_c, 0, 71, 34
1, 350424, Note_off_c, 0, 67, 34
1, 350460, Control_c, 0, 67, 115
1, 350490, Control_c, 0, 64, 69
1, 350490, Control_c, 0, 67, 117
1, 350494, Note_off_c, 0, 79, 57
1, 350504, Note_off_c, 0, 62, 61
1, 350519, Control_c, 0, 64, 69
1, 350519, Control_c, 0, 67, 119
1, 350521, Note_on_c, 0, 55, 51
1, 350534, Control_c, 0, 64, 66
1, 350549, Control_c, 0, 64, 58
1, 350563, Control_c, 0, 64, 49
1, 350578, Control_c, 0, 64, 41
1, 350593, Control_c, 0, 64, 39
1, 350608, Control_c, 0, 64, 42
1, 350623, Control_c, 0, 64, 51
1, 350638, Control_c, 0, 64, 59
1, 350653, Control_c, 0, 64, 64
1, 350675, Control_c, 0, 64, 67
1, 350690, Control_c, 0, 64, 70
1, 350704, Control_c, 0, 64, 72
1, 350719, Control_c, 0, 64, 73
1, 350726, Note_on_c, 0, 79, 65
1, 350734, Control_c, 0, 64, 75
1, 350745, Note_on_c, 0, 65, 39
1, 350748, Control_c, 0, 64, 77
1, 350748, Control_c, 0, 67, 121
1, 350758, Note_on_c, 0, 71, 40
1, 350762, Note_on_c, 0, 67, 36
1, 350763, Control_c, 0, 64, 79
1, 350778, Control_c, 0, 64, 80
1, 350778, Control_c, 0, 67, 124
1, 350793, Control_c, 0, 64, 81
1, 350793, Control_c, 0, 67, 126
1, 350804, Note_off_c, 0, 67, 49
1, 350805, Note_off_c, 0, 65, 43
1, 350807, Note_off_c, 0, 71, 44
1, 350808, Control_c, 0, 64, 82
1, 350823, Control_c, 0, 64, 83
1, 350838, Control_c, 0, 64, 83
1, 350853, Control_c, 0, 64, 84
1, 350876, Note_off_c, 0, 79, 58
1, 350987, Note_on_c, 0, 62, 35
1, 350987, Note_off_c, 0, 55, 48
1, 350991, Note_on_c, 0, 81, 72
1, 351019, Note_off_c, 0, 62, 53
1, 351025, Note_on_c, 0, 72, 38
1, 351029, Note_on_c, 0, 69, 30
1, 351093, Note_off_c, 0, 72, 48
1, 351139, Note_on_c, 0, 43, 52
1, 351153, Note_off_c, 0, 81, 57
1, 351160, Note_off_c, 0, 69, 43
1, 351167, Note_off_c, 0, 43, 56
1, 351348, Note_on_c, 0, 83, 72
1, 351352, Note_on_c, 0, 63, 57
1, 351358, Control_c, 0, 64, 83
1, 351372, Control_c, 0, 64, 80
1, 351383, Note_on_c, 0, 74, 38
1, 351387, Control_c, 0, 64, 73
1, 351402, Control_c, 0, 64, 64
1, 351417, Control_c, 0, 64, 56
1, 351437, Poly_aftertouch_c, 0, 71, 127
1, 351440, Control_c, 0, 64, 54
1, 351454, Control_c, 0, 64, 55
1, 351469, Control_c, 0, 64, 58
1, 351484, Control_c, 0, 64, 61
1, 351498, Control_c, 0, 64, 63
1, 351513, Control_c, 0, 64, 65
1, 351528, Control_c, 0, 64, 67
1, 351543, Control_c, 0, 64, 70
1, 351558, Control_c, 0, 64, 71
1, 351572, Control_c, 0, 64, 72
1, 351587, Control_c, 0, 64, 73
1, 351602, Control_c, 0, 64, 74
1, 351617, Control_c, 0, 64, 75
1, 351632, Control_c, 0, 64, 77
1, 351646, Control_c, 0, 64, 78
1, 351648, Note_on_c, 0, 51, 47
1, 351661, Control_c, 0, 64, 79
1, 351667, Note_off_c, 0, 63, 38
1, 351676, Control_c, 0, 64, 80
1, 351686, Note_off_c, 0, 83, 39
1, 351691, Control_c, 0, 64, 81
1, 351693, Poly_aftertouch_c, 0, 71, 0
1, 351705, Control_c, 0, 64, 82
1, 351714, Note_off_c, 0, 74, 41
1, 351720, Control_c, 0, 64, 82
1, 351735, Control_c, 0, 64, 83
1, 351765, Control_c, 0, 64, 83
1, 351774, Note_off_c, 0, 51, 61
1, 351859, Note_on_c, 0, 81, 66
1, 351878, Note_on_c, 0, 55, 42
1, 351897, Note_on_c, 0, 69, 35
1, 351908, Note_on_c, 0, 72, 28
1, 351935, Note_off_c, 0, 69, 50
1, 351944, Note_off_c, 0, 72, 52
1, 351950, Note_off_c, 0, 81, 61
1, 352027, Note_off_c, 0, 55, 55
1, 352071, Note_on_c, 0, 79, 62
1, 352078, Note_on_c, 0, 60, 42
1, 352112, Note_on_c, 0, 67, 21
1, 352151, Poly_aftertouch_c, 0, 71, 127
1, 352157, Note_off_c, 0, 67, 51
1, 352174, Note_off_c, 0, 79, 63
1, 352191, Poly_aftertouch_c, 0, 71, 0
1, 352209, Note_off_c, 0, 60, 56
1, 352251, Note_on_c, 0, 55, 48
1, 352414, Note_on_c, 0, 83, 70
1, 352430, Note_on_c, 0, 63, 52
1, 352447, Note_on_c, 0, 74, 37
1, 352486, Note_off_c, 0, 74, 48
1, 352488, Poly_aftertouch_c, 0, 71, 127
1, 352499, Control_c, 0, 64, 84
1, 352504, Note_off_c, 0, 83, 60
1, 352525, Poly_aftertouch_c, 0, 71, 0
1, 352544, Note_off_c, 0, 55, 27
1, 352560, Note_off_c, 0, 63, 55
1, 352573, Control_c, 0, 64, 84
1, 352602, Control_c, 0, 64, 85
1, 352610, Note_on_c, 0, 81, 78
1, 352611, Note_on_c, 0, 60, 46
1, 352617, Control_c, 0, 64, 86
1, 352632, Control_c, 0, 64, 88
1, 352641, Note_on_c, 0, 72, 46
1, 352647, Control_c, 0, 64, 89
1, 352654, Note_on_c, 0, 69, 25
1, 352662, Control_c, 0, 64, 91
1, 352677, Control_c, 0, 64, 93
1, 352692, Control_c, 0, 64, 96
1, 352707, Control_c, 0, 64, 99
1, 352722, Control_c, 0, 64, 101
1, 352736, Control_c, 0, 64, 104
1, 352736, Control_c, 0, 67, 124
1, 352739, Note_off_c, 0, 60, 63
1, 352751, Control_c, 0, 64, 106
1, 352751, Control_c, 0, 67, 114
1, 352766, Control_c, 0, 64, 109
1, 352766, Control_c, 0, 67, 108
1, 352781, Control_c, 0, 64, 112
1, 352781, Control_c, 0, 67, 105
1, 352790, Note_off_c, 0, 72, 53
1, 352796, Control_c, 0, 64, 114
1, 352797, Note_on_c, 0, 67, 59
1, 352797, Note_off_c, 0, 69, 43
1, 352811, Note_off_c, 0, 81, 60
1, 352811, Control_c, 0, 64, 117
1, 352826, Control_c, 0, 64, 120
1, 352826, Control_c, 0, 67, 103
1, 352841, Control_c, 0, 64, 127
1, 352862, Note_off_c, 0, 67, 55
1, 352958, Note_on_c, 0, 79, 76
1, 352964, Note_on_c, 0, 63, 54
1, 352984, Note_on_c, 0, 71, 55
1, 352996, Control_c, 0, 67, 101
1, 353005, Note_on_c, 0, 67, 44
1, 353040, Note_off_c, 0, 67, 52
1, 353048, Note_off_c, 0, 71, 61
1, 353063, Note_off_c, 0, 79, 62
1, 353085, Control_c, 0, 67, 99
1, 353091, Note_off_c, 0, 63, 55
1, 353151, Note_on_c, 0, 77, 83
1, 353166, Note_on_c, 0, 72, 55
1, 353170, Note_on_c, 0, 69, 59
1, 353172, Note_on_c, 0, 65, 51
1, 353188, Control_c, 0, 67, 97
1, 353217, Control_c, 0, 67, 96
1, 353232, Control_c, 0, 67, 95
1, 353247, Control_c, 0, 67, 86
1, 353262, Control_c, 0, 67, 66
1, 353273, Note_off_c, 0, 69, 60
1, 353276, Note_off_c, 0, 65, 60
1, 353276, Control_c, 0, 67, 46
1, 353291, Control_c, 0, 67, 0
1, 353295, Note_off_c, 0, 72, 62
1, 353298, Note_off_c, 0, 77, 64
1, 353330, Note_on_c, 0, 67, 58
1, 353493, Note_on_c, 0, 79, 80
1, 353506, Note_on_c, 0, 75, 66
1, 353511, Note_on_c, 0, 71, 53
1, 353540, Note_off_c, 0, 75, 63
1, 353549, Note_off_c, 0, 71, 57
1, 353638, Note_off_c, 0, 67, 42
1, 353667, Note_off_c, 0, 79, 61
1, 353766, Note_on_c, 0, 83, 82
1, 353768, Note_on_c, 0, 79, 44
1, 353789, Control_c, 0, 64, 106
1, 353803, Note_on_c, 0, 74, 49
1, 353804, Control_c, 0, 64, 84
1, 353819, Control_c, 0, 64, 73
1, 353833, Control_c, 0, 64, 65
1, 353848, Control_c, 0, 64, 63
1, 353860, Poly_aftertouch_c, 0, 71, 127
1, 353878, Control_c, 0, 64, 64
1, 353892, Control_c, 0, 64, 67
1, 353907, Control_c, 0, 64, 73
1, 353916, Note_off_c, 0, 74, 0
1, 353916, Note_on_c, 0, 74, 8
1, 353922, Control_c, 0, 64, 79
1, 353937, Control_c, 0, 64, 82
1, 353952, Control_c, 0, 64, 84
1, 353966, Control_c, 0, 64, 87
1, 353981, Control_c, 0, 64, 90
1, 353996, Control_c, 0, 64, 93
1, 354011, Control_c, 0, 64, 97
1, 354023, Note_off_c, 0, 79, 47
1, 354026, Control_c, 0, 64, 99
1, 354027, Note_on_c, 0, 75, 51
1, 354040, Control_c, 0, 64, 101
1, 354047, Poly_aftertouch_c, 0, 71, 0
1, 354055, Control_c, 0, 64, 103
1, 354055, Control_c, 0, 67, 41
1, 354059, Note_off_c, 0, 83, 55
1, 354070, Control_c, 0, 64, 105
1, 354070, Control_c, 0, 67, 51
1, 354071, Note_off_c, 0, 74, 42
1, 354085, Control_c, 0, 67, 60
1, 354099, Control_c, 0, 64, 108
1, 354099, Control_c, 0, 67, 64
1, 354114, Control_c, 0, 67, 68
1, 354129, Control_c, 0, 67, 74
1, 354144, Control_c, 0, 67, 82
1, 354159, Control_c, 0, 67, 89
1, 354173, Control_c, 0, 67, 98
1, 354188, Control_c, 0, 67, 106
1, 354203, Control_c, 0, 67, 114
1, 354209, Note_on_c, 0, 81, 78
1, 354209, Note_off_c, 0, 75, 40
1, 354215, Note_on_c, 0, 79, 56
1, 354218, Control_c, 0, 67, 123
1, 354233, Control_c, 0, 67, 127
1, 354242, Note_on_c, 0, 72, 47
1, 354242, Note_off_c, 0, 79, 61
1, 354249, Note_on_c, 0, 69, 36
1, 354288, Note_off_c, 0, 69, 50
1, 354290, Note_off_c, 0, 72, 58
1, 354303, Note_off_c, 0, 81, 62
1, 354426, Note_on_c, 0, 79, 66
1, 354434, Control_c, 0, 64, 99
1, 354449, Control_c, 0, 64, 86
1, 354451, Note_on_c, 0, 71, 44
1, 354453, Note_on_c, 0, 75, 34
1, 354463, Note_on_c, 0, 67, 33
1, 354464, Control_c, 0, 64, 74
1, 354478, Control_c, 0, 64, 65
1, 354493, Control_c, 0, 64, 61
1, 354508, Control_c, 0, 64, 60
1, 354522, Control_c, 0, 64, 62
1, 354537, Control_c, 0, 64, 65
1, 354552, Control_c, 0, 64, 69
1, 354567, Control_c, 0, 64, 73
1, 354582, Control_c, 0, 64, 77
1, 354597, Control_c, 0, 64, 80
1, 354611, Control_c, 0, 64, 82
1, 354615, Note_off_c, 0, 79, 54
1, 354616, Note_off_c, 0, 71, 61
1, 354626, Control_c, 0, 64, 85
1, 354641, Control_c, 0, 64, 88
1, 354656, Control_c, 0, 64, 91
1, 354662, Note_on_c, 0, 72, 45
1, 354670, Note_off_c, 0, 67, 39
1, 354671, Control_c, 0, 64, 94
1, 354683, Note_off_c, 0, 75, 35
1, 354686, Control_c, 0, 64, 97
1, 354701, Control_c, 0, 64, 99
1, 354715, Control_c, 0, 64, 101
1, 354730, Control_c, 0, 64, 104
1, 354745, Control_c, 0, 64, 106
1, 354760, Control_c, 0, 64, 108
1, 354789, Control_c, 0, 64, 110
1, 354836, Note_off_c, 0, 72, 36
1, 354926, Note_on_c, 0, 77, 62
1, 354939, Note_on_c, 0, 75, 16
1, 354954, Note_on_c, 0, 65, 30
1, 354965, Note_on_c, 0, 69, 30
1, 354972, Note_off_c, 0, 75, 49
1, 354999, Note_off_c, 0, 69, 55
1, 355058, Note_off_c, 0, 77, 63
1, 355138, Note_off_c, 0, 65, 42
1, 355316, Control_c, 0, 64, 103
1, 355324, Note_on_c, 0, 43, 40
1, 355331, Control_c, 0, 64, 89
1, 355333, Note_on_c, 0, 75, 60
1, 355339, Note_on_c, 0, 63, 46
1, 355345, Control_c, 0, 64, 73
1, 355354, Note_on_c, 0, 67, 35
1, 355360, Control_c, 0, 64, 63
1, 355375, Control_c, 0, 64, 58
1, 355389, Control_c, 0, 64, 57
1, 355404, Control_c, 0, 64, 59
1, 355419, Control_c, 0, 64, 62
1, 355434, Control_c, 0, 64, 65
1, 355449, Control_c, 0, 64, 69
1, 355463, Control_c, 0, 64, 72
1, 355478, Control_c, 0, 64, 75
1, 355485, Note_off_c, 0, 63, 57
1, 355491, Note_off_c, 0, 67, 43
1, 355493, Control_c, 0, 64, 76
1, 355503, Note_off_c, 0, 75, 59
1, 355508, Control_c, 0, 64, 77
1, 355523, Control_c, 0, 64, 78
1, 355537, Control_c, 0, 64, 79
1, 355552, Control_c, 0, 64, 80
1, 355582, Control_c, 0, 64, 78
1, 355597, Control_c, 0, 64, 73
1, 355611, Control_c, 0, 64, 66
1, 355615, Note_on_c, 0, 74, 63
1, 355626, Control_c, 0, 64, 61
1, 355627, Note_on_c, 0, 49, 31
1, 355633, Note_on_c, 0, 66, 50
1, 355641, Control_c, 0, 64, 60
1, 355646, Note_on_c, 0, 62, 25
1, 355656, Control_c, 0, 64, 62
1, 355670, Control_c, 0, 64, 65
1, 355685, Control_c, 0, 64, 69
1, 355696, Note_off_c, 0, 66, 57
1, 355696, Note_off_c, 0, 74, 58
1, 355700, Control_c, 0, 64, 73
1, 355705, Note_off_c, 0, 62, 45
1, 355715, Control_c, 0, 64, 75
1, 355730, Control_c, 0, 64, 76
1, 355744, Control_c, 0, 64, 77
1, 355759, Control_c, 0, 64, 78
1, 355774, Control_c, 0, 64, 78
1, 355789, Control_c, 0, 64, 79
1, 355823, Note_off_c, 0, 49, 54
1, 355834, Control_c, 0, 64, 78
1, 355849, Control_c, 0, 64, 72
1, 355851, Note_on_c, 0, 62, 32
1, 355855, Note_on_c, 0, 59, 39
1, 355855, Note_on_c, 0, 71, 50
1, 355863, Control_c, 0, 64, 63
1, 355878, Control_c, 0, 64, 51
1, 355885, Note_on_c, 0, 50, 34
1, 355889, Note_off_c, 0, 43, 53
1, 355893, Control_c, 0, 64, 43
1, 355931, Control_c, 0, 64, 50
1, 355946, Control_c, 0, 64, 59
1, 355961, Control_c, 0, 64, 65
1, 355975, Control_c, 0, 64, 69
1, 355990, Control_c, 0, 64, 73
1, 356005, Control_c, 0, 64, 75
1, 356015, Note_off_c, 0, 71, 58
1, 356020, Control_c, 0, 64, 77
1, 356035, Note_off_c, 0, 59, 43
1, 356035, Control_c, 0, 64, 79
1, 356049, Control_c, 0, 64, 80
1, 356064, Control_c, 0, 64, 81
1, 356076, Note_off_c, 0, 62, 55
1, 356079, Control_c, 0, 64, 82
1, 356093, Control_c, 0, 64, 83
1, 356108, Control_c, 0, 64, 83
1, 356123, Control_c, 0, 64, 84
1, 356138, Control_c, 0, 64, 84
1, 356153, Control_c, 0, 64, 85
1, 356168, Control_c, 0, 64, 86
1, 356197, Control_c, 0, 64, 87
1, 356203, Note_on_c, 0, 62, 43
1, 356212, Control_c, 0, 64, 87
1, 356227, Control_c, 0, 64, 88
1, 356228, Note_off_c, 0, 50, 42
1, 356257, Control_c, 0, 64, 88
1, 356301, Control_c, 0, 64, 89
1, 356360, Control_c, 0, 64, 89
1, 356470, Note_on_c, 0, 57, 48
1, 356486, Note_on_c, 0, 50, 25
1, 356545, Poly_aftertouch_c, 0, 64, 127
1, 356697, Note_off_c, 0, 57, 58
1, 356704, Note_on_c, 0, 59, 60
1, 356739, Control_c, 0, 64, 89
1, 356798, Note_off_c, 0, 62, 35
1, 356838, Poly_aftertouch_c, 0, 64, 0
1, 356843, Control_c, 0, 64, 88
1, 356872, Control_c, 0, 64, 88
1, 356887, Control_c, 0, 64, 87
1, 356902, Control_c, 0, 64, 86
1, 356916, Control_c, 0, 64, 85
1, 356931, Control_c, 0, 64, 84
1, 356943, Note_on_c, 0, 43, 41
1, 356946, Control_c, 0, 64, 82
1, 356951, Note_off_c, 0, 59, 52
1, 356961, Control_c, 0, 64, 79
1, 356976, Control_c, 0, 64, 75
1, 356979, Note_on_c, 0, 60, 48
1, 356990, Control_c, 0, 64, 70
1, 357005, Note_off_c, 0, 50, 41
1, 357005, Control_c, 0, 64, 64
1, 357009, Note_on_c, 0, 62, 39
1, 357020, Control_c, 0, 64, 56
1, 357035, Control_c, 0, 64, 49
1, 357038, Note_on_c, 0, 64, 26
1, 357050, Control_c, 0, 64, 42
1, 357065, Control_c, 0, 64, 38
1, 357080, Control_c, 0, 64, 37
1, 357095, Control_c, 0, 64, 36
1, 357169, Control_c, 0, 64, 37
1, 357183, Control_c, 0, 64, 38
1, 357198, Control_c, 0, 64, 41
1, 357205, Note_on_c, 0, 49, 38
1, 357213, Control_c, 0, 64, 47
1, 357228, Control_c, 0, 64, 54
1, 357242, Control_c, 0, 64, 59
1, 357257, Control_c, 0, 64, 61
1, 357272, Control_c, 0, 64, 63
1, 357287, Control_c, 0, 64, 64
1, 357299, Note_off_c, 0, 49, 51
1, 357302, Control_c, 0, 64, 66
1, 357316, Control_c, 0, 64, 67
1, 357331, Control_c, 0, 64, 68
1, 357346, Control_c, 0, 64, 69
1, 357361, Control_c, 0, 64, 70
1, 357376, Control_c, 0, 64, 71
1, 357385, Note_on_c, 0, 59, 56
1, 357390, Control_c, 0, 64, 71
1, 357401, Note_on_c, 0, 50, 35
1, 357412, Note_off_c, 0, 43, 35
1, 357413, Control_c, 0, 64, 72
1, 357425, Note_off_c, 0, 60, 59
1, 357428, Control_c, 0, 64, 72
1, 357443, Note_off_c, 0, 50, 45
1, 357454, Note_off_c, 0, 62, 42
1, 357457, Control_c, 0, 64, 73
1, 357476, Note_off_c, 0, 64, 43
1, 357601, Note_on_c, 0, 60, 57
1, 357615, Note_off_c, 0, 59, 53
1, 357622, Control_c, 0, 64, 72
1, 357622, Note_on_c, 0, 64, 37
1, 357636, Note_on_c, 0, 62, 40
1, 357637, Control_c, 0, 64, 68
1, 357652, Control_c, 0, 64, 61
1, 357667, Control_c, 0, 64, 53
1, 357682, Control_c, 0, 64, 49
1, 357696, Control_c, 0, 64, 50
1, 357711, Control_c, 0, 64, 53
1, 357726, Control_c, 0, 64, 58
1, 357740, Control_c, 0, 64, 62
1, 357755, Control_c, 0, 64, 64
1, 357770, Control_c, 0, 64, 67
1, 357785, Control_c, 0, 64, 69
1, 357800, Control_c, 0, 64, 70
1, 357804, Note_on_c, 0, 50, 41
1, 357807, Note_off_c, 0, 62, 42
1, 357814, Control_c, 0, 64, 71
1, 357829, Control_c, 0, 64, 71
1, 357844, Control_c, 0, 64, 72
1, 357858, Control_c, 0, 64, 73
1, 357873, Control_c, 0, 64, 73
1, 357888, Control_c, 0, 64, 74
1, 357928, Note_off_c, 0, 50, 50
1, 357989, Note_off_c, 0, 60, 62
1, 358010, Note_on_c, 0, 57, 58
1, 358037, Note_off_c, 0, 64, 51
1, 358041, Note_on_c, 0, 62, 15
1, 358084, Note_off_c, 0, 62, 53
1, 358222, Note_on_c, 0, 43, 40
1, 358251, Control_c, 0, 64, 73
1, 358263, Note_off_c, 0, 57, 36
1, 358281, Control_c, 0, 64, 73
1, 358296, Control_c, 0, 64, 72
1, 358311, Control_c, 0, 64, 69
1, 358320, Note_on_c, 0, 64, 53
1, 358326, Control_c, 0, 64, 67
1, 358339, Note_on_c, 0, 66, 48
1, 358341, Control_c, 0, 64, 64
1, 358356, Control_c, 0, 64, 60
1, 358370, Control_c, 0, 64, 57
1, 358385, Control_c, 0, 64, 55
1, 358400, Control_c, 0, 64, 53
1, 358402, Poly_aftertouch_c, 0, 67, 127
1, 358415, Control_c, 0, 64, 53
1, 358504, Control_c, 0, 64, 53
1, 358534, Control_c, 0, 64, 54
1, 358599, Note_on_c, 0, 62, 54
1, 358788, Note_off_c, 0, 62, 55
1, 358800, Note_on_c, 0, 60, 46
1, 358800, Note_off_c, 0, 64, 40
1, 358804, Note_on_c, 0, 50, 35
1, 358815, Note_off_c, 0, 66, 36
1, 358829, Control_c, 0, 64, 53
1, 358844, Control_c, 0, 64, 53
1, 358859, Control_c, 0, 64, 52
1, 358874, Control_c, 0, 64, 51
1, 358889, Control_c, 0, 64, 51
1, 358904, Control_c, 0, 64, 50
1, 358926, Control_c, 0, 64, 49
1, 358941, Control_c, 0, 64, 49
1, 359000, Control_c, 0, 64, 50
1, 359007, Note_off_c, 0, 60, 52
1, 359014, Control_c, 0, 64, 54
1, 359029, Control_c, 0, 64, 59
1, 359030, Note_on_c, 0, 59, 50
1, 359044, Control_c, 0, 64, 62
1, 359059, Control_c, 0, 64, 64
1, 359067, Note_off_c, 0, 43, 37
1, 359067, Poly_aftertouch_c, 0, 67, 0
1, 359074, Control_c, 0, 64, 66
1, 359090, Control_c, 0, 64, 67
1, 359105, Control_c, 0, 64, 69
1, 359119, Control_c, 0, 64, 70
1, 359134, Control_c, 0, 64, 70
1, 359247, Note_on_c, 0, 57, 58
1, 359271, Note_on_c, 0, 62, 46
1, 359293, Note_off_c, 0, 59, 36
1, 359306, Note_off_c, 0, 62, 62
1, 359312, Note_on_c, 0, 64, 26
1, 359401, Control_c, 0, 64, 70
1, 359434, Note_on_c, 0, 59, 66
1, 359446, Control_c, 0, 64, 69
1, 359464, Note_off_c, 0, 57, 59
1, 359490, Control_c, 0, 64, 69
1, 359534, Control_c, 0, 64, 68
1, 359542, Note_off_c, 0, 64, 38
1, 359549, Control_c, 0, 64, 68
1, 359564, Control_c, 0, 64, 67
1, 359578, Control_c, 0, 64, 66
1, 359593, Control_c, 0, 64, 63
1, 359608, Control_c, 0, 64, 60
1, 359623, Control_c, 0, 64, 57
1, 359637, Control_c, 0, 64, 54
1, 359642, Note_on_c, 0, 60, 56
1, 359660, Control_c, 0, 64, 51
1, 359661, Note_on_c, 0, 43, 33
1, 359670, Note_off_c, 0, 50, 60
1, 359675, Control_c, 0, 64, 48
1, 359681, Note_on_c, 0, 62, 44
1, 359690, Control_c, 0, 64, 45
1, 359691, Note_off_c, 0, 59, 55
1, 359703, Note_on_c, 0, 64, 28
1, 359705, Control_c, 0, 64, 42
1, 359719, Control_c, 0, 64, 40
1, 359734, Control_c, 0, 64, 37
1, 359749, Control_c, 0, 64, 35
1, 359764, Control_c, 0, 64, 35
1, 359852, Control_c, 0, 64, 35
1, 359867, Control_c, 0, 64, 36
1, 359882, Control_c, 0, 64, 38
1, 359887, Note_on_c, 0, 49, 20
1, 359897, Control_c, 0, 64, 42
1, 359912, Control_c, 0, 64, 47
1, 359927, Control_c, 0, 64, 53
1, 359941, Control_c, 0, 64, 58
1, 359956, Control_c, 0, 64, 60
1, 359971, Control_c, 0, 64, 62
1, 359986, Control_c, 0, 64, 63
1, 360001, Control_c, 0, 64, 64
1, 360007, Note_off_c, 0, 49, 33
1, 360016, Control_c, 0, 64, 65
1, 360031, Control_c, 0, 64, 66
1, 360046, Control_c, 0, 64, 67
1, 360055, Note_on_c, 0, 59, 65
1, 360058, Note_on_c, 0, 50, 42
1, 360059, Note_off_c, 0, 43, 34
1, 360060, Control_c, 0, 64, 68
1, 360075, Control_c, 0, 64, 69
1, 360089, Note_off_c, 0, 50, 63
1, 360090, Control_c, 0, 64, 69
1, 360101, Note_off_c, 0, 60, 59
1, 360105, Control_c, 0, 64, 70
1, 360134, Control_c, 0, 64, 70
1, 360138, Note_off_c, 0, 62, 35
1, 360144, Note_off_c, 0, 64, 45
1, 360253, Note_on_c, 0, 60, 62
1, 360267, Control_c, 0, 64, 70
1, 360269, Note_on_c, 0, 62, 44
1, 360282, Control_c, 0, 64, 68
1, 360283, Note_on_c, 0, 64, 42
1, 360297, Control_c, 0, 64, 64
1, 360308, Note_off_c, 0, 59, 54
1, 360312, Control_c, 0, 64, 59
1, 360326, Control_c, 0, 64, 52
1, 360341, Control_c, 0, 64, 47
1, 360356, Control_c, 0, 64, 44
1, 360371, Control_c, 0, 64, 44
1, 360408, Control_c, 0, 64, 45
1, 360423, Control_c, 0, 64, 49
1, 360436, Note_off_c, 0, 62, 53
1, 360438, Control_c, 0, 64, 56
1, 360453, Control_c, 0, 64, 61
1, 360467, Control_c, 0, 64, 64
1, 360474, Note_on_c, 0, 50, 40
1, 360482, Control_c, 0, 64, 66
1, 360497, Control_c, 0, 64, 67
1, 360512, Control_c, 0, 64, 68
1, 360527, Control_c, 0, 64, 69
1, 360541, Control_c, 0, 64, 70
1, 360556, Control_c, 0, 64, 71
1, 360571, Control_c, 0, 64, 72
1, 360579, Note_off_c, 0, 50, 54
1, 360586, Control_c, 0, 64, 72
1, 360602, Control_c, 0, 64, 73
1, 360616, Control_c, 0, 64, 73
1, 360631, Control_c, 0, 64, 74
1, 360675, Control_c, 0, 64, 74
1, 360681, Note_off_c, 0, 60, 62
1, 360684, Note_on_c, 0, 57, 60
1, 360704, Note_on_c, 0, 62, 16
1, 360709, Note_off_c, 0, 64, 54
1, 360745, Note_off_c, 0, 62, 53
1, 360891, Note_on_c, 0, 43, 42
1, 360913, Control_c, 0, 64, 74
1, 360943, Control_c, 0, 64, 73
1, 360958, Control_c, 0, 64, 72
1, 360973, Control_c, 0, 64, 71
1, 360988, Control_c, 0, 64, 68
1, 360994, Note_on_c, 0, 66, 67
1, 361003, Control_c, 0, 64, 64
1, 361011, Note_off_c, 0, 57, 37
1, 361017, Control_c, 0, 64, 59
1, 361032, Control_c, 0, 64, 55
1, 361047, Control_c, 0, 64, 53
1, 361062, Control_c, 0, 64, 50
1, 361076, Control_c, 0, 64, 49
1, 361091, Control_c, 0, 64, 47
1, 361106, Control_c, 0, 64, 46
1, 361116, Poly_aftertouch_c, 0, 67, 127
1, 361121, Control_c, 0, 64, 45
1, 361158, Control_c, 0, 64, 46
1, 361172, Control_c, 0, 64, 49
1, 361187, Control_c, 0, 64, 55
1, 361191, Poly_aftertouch_c, 0, 64, 127
1, 361202, Control_c, 0, 64, 60
1, 361217, Control_c, 0, 64, 62
1, 361232, Control_c, 0, 64, 64
1, 361247, Control_c, 0, 64, 64
1, 361262, Control_c, 0, 64, 65
1, 361277, Control_c, 0, 64, 66
1, 361291, Control_c, 0, 64, 66
1, 361333, Note_on_c, 0, 62, 57
1, 361395, Control_c, 0, 64, 66
1, 361422, Poly_aftertouch_c, 0, 64, 0
1, 361424, Control_c, 0, 64, 65
1, 361439, Control_c, 0, 64, 65
1, 361454, Control_c, 0, 64, 64
1, 361469, Control_c, 0, 64, 63
1, 361485, Control_c, 0, 64, 61
1, 361500, Control_c, 0, 64, 57
1, 361514, Control_c, 0, 64, 53
1, 361516, Note_off_c, 0, 66, 36
1, 361529, Control_c, 0, 64, 50
1, 361541, Note_on_c, 0, 50, 38
1, 361542, Note_off_c, 0, 62, 59
1, 361544, Control_c, 0, 64, 47
1, 361550, Note_on_c, 0, 60, 51
1, 361559, Control_c, 0, 64, 45
1, 361574, Control_c, 0, 64, 43
1, 361588, Control_c, 0, 64, 41
1, 361603, Control_c, 0, 64, 39
1, 361618, Control_c, 0, 64, 38
1, 361633, Control_c, 0, 64, 37
1, 361648, Control_c, 0, 64, 36
1, 361662, Control_c, 0, 64, 36
1, 361692, Control_c, 0, 64, 37
1, 361706, Control_c, 0, 64, 44
1, 361713, Note_off_c, 0, 60, 61
1, 361721, Note_off_c, 0, 43, 34
1, 361721, Control_c, 0, 64, 53
1, 361736, Control_c, 0, 64, 60
1, 361744, Note_on_c, 0, 59, 54
1, 361751, Control_c, 0, 64, 64
1, 361766, Control_c, 0, 64, 66
1, 361781, Control_c, 0, 64, 68
1, 361795, Control_c, 0, 64, 69
1, 361810, Note_off_c, 0, 59, 64
1, 361810, Control_c, 0, 64, 70
1, 361825, Control_c, 0, 64, 71
1, 361840, Control_c, 0, 64, 72
1, 361855, Control_c, 0, 64, 72
1, 361881, Poly_aftertouch_c, 0, 67, 0
1, 361965, Note_on_c, 0, 69, 64
1, 361974, Note_on_c, 0, 62, 49
1, 361995, Control_c, 0, 64, 72
1, 362011, Note_on_c, 0, 67, 29
1, 362025, Note_off_c, 0, 62, 54
1, 362049, Note_off_c, 0, 67, 51
1, 362160, Note_on_c, 0, 71, 71
1, 362193, Note_on_c, 0, 66, 44
1, 362203, Control_c, 0, 64, 71
1, 362218, Control_c, 0, 64, 71
1, 362232, Note_off_c, 0, 69, 39
1, 362247, Control_c, 0, 64, 70
1, 362262, Control_c, 0, 64, 70
1, 362278, Control_c, 0, 64, 69
1, 362293, Control_c, 0, 64, 69
1, 362323, Control_c, 0, 64, 68
1, 362337, Control_c, 0, 64, 67
1, 362352, Control_c, 0, 64, 66
1, 362367, Control_c, 0, 64, 65
1, 362381, Note_off_c, 0, 66, 18
1, 362382, Control_c, 0, 64, 61
1, 362386, Note_on_c, 0, 43, 42
1, 362390, Note_on_c, 0, 72, 69
1, 362397, Control_c, 0, 64, 56
1, 362398, Note_off_c, 0, 71, 60
1, 362411, Control_c, 0, 64, 51
1, 362414, Note_on_c, 0, 64, 43
1, 362426, Control_c, 0, 64, 44
1, 362428, Note_off_c, 0, 50, 48
1, 362441, Control_c, 0, 64, 38
1, 362455, Control_c, 0, 64, 33
1, 362470, Control_c, 0, 64, 31
1, 362529, Control_c, 0, 64, 32
1, 362544, Control_c, 0, 64, 33
1, 362559, Control_c, 0, 64, 34
1, 362574, Control_c, 0, 64, 37
1, 362589, Control_c, 0, 64, 41
1, 362603, Control_c, 0, 64, 43
1, 362604, Note_on_c, 0, 49, 39
1, 362618, Control_c, 0, 64, 45
1, 362633, Control_c, 0, 64, 45
1, 362730, Control_c, 0, 64, 46
1, 362736, Note_off_c, 0, 49, 56
1, 362744, Control_c, 0, 64, 46
1, 362759, Control_c, 0, 64, 48
1, 362774, Control_c, 0, 64, 52
1, 362785, Note_off_c, 0, 64, 40
1, 362789, Control_c, 0, 64, 56
1, 362791, Note_on_c, 0, 66, 49
1, 362791, Note_on_c, 0, 74, 66
1, 362802, Note_on_c, 0, 50, 38
1, 362803, Control_c, 0, 64, 60
1, 362809, Note_off_c, 0, 72, 57
1, 362818, Control_c, 0, 64, 62
1, 362820, Note_off_c, 0, 43, 42
1, 362833, Control_c, 0, 64, 64
1, 362844, Note_off_c, 0, 66, 61
1, 362848, Control_c, 0, 64, 65
1, 362861, Note_off_c, 0, 50, 63
1, 362863, Control_c, 0, 64, 67
1, 362878, Control_c, 0, 64, 67
1, 362892, Control_c, 0, 64, 68
1, 362907, Control_c, 0, 64, 69
1, 362922, Control_c, 0, 64, 69
1, 362962, Note_off_c, 0, 74, 61
1, 362981, Control_c, 0, 64, 68
1, 362987, Note_on_c, 0, 71, 69
1, 362996, Control_c, 0, 64, 63
1, 362997, Note_on_c, 0, 61, 46
1, 363002, Note_on_c, 0, 62, 52
1, 363011, Control_c, 0, 64, 54
1, 363026, Control_c, 0, 64, 44
1, 363041, Control_c, 0, 64, 40
1, 363055, Control_c, 0, 64, 41
1, 363070, Control_c, 0, 64, 48
1, 363086, Control_c, 0, 64, 56
1, 363101, Control_c, 0, 64, 61
1, 363116, Control_c, 0, 64, 63
1, 363131, Control_c, 0, 64, 64
1, 363146, Control_c, 0, 64, 65
1, 363160, Control_c, 0, 64, 66
1, 363175, Control_c, 0, 64, 66
1, 363177, Note_off_c, 0, 62, 52
1, 363180, Note_on_c, 0, 50, 39
1, 363190, Control_c, 0, 64, 67
1, 363193, Note_off_c, 0, 61, 32
1, 363205, Control_c, 0, 64, 68
1, 363220, Control_c, 0, 64, 68
1, 363234, Control_c, 0, 64, 69
1, 363264, Control_c, 0, 64, 69
1, 363356, Note_off_c, 0, 50, 35
1, 363363, Note_off_c, 0, 71, 51
1, 363368, Note_on_c, 0, 62, 40
1, 363372, Note_on_c, 0, 72, 62
1, 363396, Note_on_c, 0, 64, 37
1, 363425, Note_off_c, 0, 62, 62
1, 363470, Note_off_c, 0, 72, 59
1, 363504, Note_off_c, 0, 64, 30
1, 363553, Control_c, 0, 64, 69
1, 363567, Control_c, 0, 64, 67
1, 363582, Control_c, 0, 64, 61
1, 363590, Note_on_c, 0, 69, 64
1, 363596, Control_c, 0, 64, 49
1, 363608, Note_on_c, 0, 43, 42
1, 363611, Control_c, 0, 64, 36
1, 363620, Note_on_c, 0, 66, 49
1, 363626, Control_c, 0, 64, 32
1, 363641, Control_c, 0, 64, 34
1, 363651, Note_on_c, 0, 64, 34
1, 363656, Control_c, 0, 64, 42
1, 363670, Control_c, 0, 64, 52
1, 363685, Control_c, 0, 64, 59
1, 363700, Control_c, 0, 64, 62
1, 363715, Control_c, 0, 64, 63
1, 363730, Control_c, 0, 64, 64
1, 363759, Control_c, 0, 64, 64
1, 363774, Control_c, 0, 64, 65
1, 363789, Control_c, 0, 64, 65
1, 363794, Note_off_c, 0, 64, 51
1, 363803, Control_c, 0, 64, 66
1, 363811, Note_off_c, 0, 66, 54
1, 363812, Note_off_c, 0, 69, 56
1, 363814, Note_on_c, 0, 62, 45
1, 363818, Control_c, 0, 64, 66
1, 363833, Control_c, 0, 64, 67
1, 363848, Control_c, 0, 64, 67
1, 363863, Control_c, 0, 64, 68
1, 363879, Control_c, 0, 64, 68
1, 363894, Control_c, 0, 64, 69
1, 363938, Control_c, 0, 64, 68
1, 363953, Control_c, 0, 64, 64
1, 363968, Control_c, 0, 64, 58
1, 363982, Control_c, 0, 64, 54
1, 363984, Note_off_c, 0, 62, 61
1, 363994, Note_on_c, 0, 67, 60
1, 363999, Note_on_c, 0, 50, 51
1, 364012, Control_c, 0, 64, 57
1, 364013, Note_off_c, 0, 43, 49
1, 364018, Note_on_c, 0, 60, 31
1, 364026, Control_c, 0, 64, 61
1, 364041, Control_c, 0, 64, 64
1, 364056, Control_c, 0, 64, 66
1, 364071, Control_c, 0, 64, 67
1, 364086, Control_c, 0, 64, 69
1, 364100, Control_c, 0, 64, 70
1, 364112, Note_off_c, 0, 50, 57
1, 364115, Control_c, 0, 64, 71
1, 364130, Control_c, 0, 64, 72
1, 364153, Control_c, 0, 64, 73
1, 364168, Control_c, 0, 64, 73
1, 364182, Control_c, 0, 64, 74
1, 364188, Note_off_c, 0, 60, 44
1, 364197, Control_c, 0, 64, 74
1, 364199, Note_off_c, 0, 67, 62
1, 364215, Note_on_c, 0, 59, 59
1, 364226, Control_c, 0, 64, 75
1, 364241, Control_c, 0, 64, 75
1, 364242, Note_off_c, 0, 59, 65
1, 364419, Note_on_c, 0, 69, 63
1, 364460, Note_on_c, 0, 62, 36
1, 364496, Poly_aftertouch_c, 0, 67, 127
1, 364501, Note_off_c, 0, 62, 48
1, 364529, Poly_aftertouch_c, 0, 67, 0
1, 364620, Note_on_c, 0, 71, 65
1, 364660, Note_on_c, 0, 66, 42
1, 364702, Control_c, 0, 64, 75
1, 364703, Note_off_c, 0, 69, 34
1, 364747, Control_c, 0, 64, 74
1, 364776, Control_c, 0, 64, 74
1, 364791, Control_c, 0, 64, 73
1, 364806, Control_c, 0, 64, 72
1, 364821, Control_c, 0, 64, 70
1, 364836, Control_c, 0, 64, 67
1, 364842, Note_on_c, 0, 43, 45
1, 364850, Control_c, 0, 64, 62
1, 364854, Note_off_c, 0, 71, 54
1, 364857, Note_on_c, 0, 72, 58
1, 364865, Control_c, 0, 64, 56
1, 364877, Note_on_c, 0, 64, 32
1, 364880, Control_c, 0, 64, 50
1, 364887, Note_off_c, 0, 66, 42
1, 364902, Control_c, 0, 64, 45
1, 364917, Control_c, 0, 64, 41
1, 364931, Control_c, 0, 64, 38
1, 364946, Control_c, 0, 64, 37
1, 364991, Control_c, 0, 64, 38
1, 365006, Control_c, 0, 64, 39
1, 365021, Control_c, 0, 64, 40
1, 365036, Control_c, 0, 64, 41
1, 365050, Control_c, 0, 64, 43
1, 365065, Control_c, 0, 64, 47
1, 365080, Control_c, 0, 64, 54
1, 365083, Note_on_c, 0, 49, 36
1, 365095, Control_c, 0, 64, 59
1, 365110, Control_c, 0, 64, 62
1, 365124, Control_c, 0, 64, 63
1, 365139, Control_c, 0, 64, 63
1, 365154, Control_c, 0, 64, 64
1, 365169, Control_c, 0, 64, 65
1, 365184, Control_c, 0, 64, 65
1, 365213, Control_c, 0, 64, 66
1, 365228, Note_off_c, 0, 49, 37
1, 365231, Note_off_c, 0, 72, 58
1, 365243, Control_c, 0, 64, 66
1, 365244, Note_on_c, 0, 74, 58
1, 365259, Note_off_c, 0, 64, 42
1, 365265, Note_on_c, 0, 66, 38
1, 365273, Control_c, 0, 64, 67
1, 365279, Note_on_c, 0, 50, 39
1, 365283, Note_off_c, 0, 43, 35
1, 365303, Control_c, 0, 64, 67
1, 365318, Control_c, 0, 64, 68
1, 365325, Note_off_c, 0, 50, 60
1, 365362, Control_c, 0, 64, 68
1, 365439, Note_off_c, 0, 66, 57
1, 365447, Note_off_c, 0, 74, 56
1, 365450, Control_c, 0, 64, 68
1, 365456, Note_on_c, 0, 61, 43
1, 365459, Note_on_c, 0, 71, 49
1, 365465, Control_c, 0, 64, 66
1, 365467, Note_on_c, 0, 62, 34
1, 365481, Control_c, 0, 64, 61
1, 365496, Control_c, 0, 64, 55
1, 365511, Control_c, 0, 64, 51
1, 365526, Control_c, 0, 64, 51
1, 365541, Control_c, 0, 64, 52
1, 365555, Control_c, 0, 64, 55
1, 365570, Control_c, 0, 64, 59
1, 365585, Control_c, 0, 64, 62
1, 365600, Control_c, 0, 64, 64
1, 365615, Control_c, 0, 64, 66
1, 365629, Control_c, 0, 64, 67
1, 365652, Control_c, 0, 64, 68
1, 365667, Control_c, 0, 64, 69
1, 365681, Control_c, 0, 64, 70
1, 365683, Note_on_c, 0, 50, 35
1, 365696, Control_c, 0, 64, 70
1, 365711, Control_c, 0, 64, 71
1, 365712, Note_off_c, 0, 62, 40
1, 365713, Note_off_c, 0, 61, 40
1, 365741, Control_c, 0, 64, 71
1, 365815, Control_c, 0, 64, 72
1, 365882, Note_on_c, 0, 72, 55
1, 365882, Note_off_c, 0, 50, 38
1, 365890, Note_on_c, 0, 62, 38
1, 365895, Note_on_c, 0, 64, 33
1, 365901, Note_off_c, 0, 71, 36
1, 365927, Note_off_c, 0, 62, 54
1, 365968, Note_off_c, 0, 72, 60
1, 366019, Note_off_c, 0, 64, 36
1, 366052, Control_c, 0, 64, 71
1, 366081, Control_c, 0, 64, 70
1, 366096, Control_c, 0, 64, 66
1, 366111, Control_c, 0, 64, 60
1, 366119, Note_on_c, 0, 69, 46
1, 366121, Note_on_c, 0, 43, 36
1, 366126, Control_c, 0, 64, 53
1, 366139, Note_on_c, 0, 66, 44
1, 366141, Control_c, 0, 64, 48
1, 366155, Control_c, 0, 64, 46
1, 366160, Note_on_c, 0, 64, 18
1, 366170, Control_c, 0, 64, 47
1, 366185, Control_c, 0, 64, 49
1, 366199, Control_c, 0, 64, 52
1, 366214, Control_c, 0, 64, 56
1, 366229, Control_c, 0, 64, 60
1, 366244, Control_c, 0, 64, 62
1, 366259, Control_c, 0, 64, 64
1, 366275, Control_c, 0, 64, 64
1, 366290, Control_c, 0, 64, 65
1, 366304, Control_c, 0, 64, 66
1, 366319, Control_c, 0, 64, 66
1, 366334, Control_c, 0, 64, 67
1, 366349, Control_c, 0, 64, 67
1, 366364, Control_c, 0, 64, 68
1, 366367, Note_off_c, 0, 69, 55
1, 366374, Note_on_c, 0, 62, 34
1, 366374, Note_off_c, 0, 64, 45
1, 366416, Control_c, 0, 64, 69
1, 366422, Note_off_c, 0, 66, 37
1, 366564, Control_c, 0, 64, 68
1, 366578, Control_c, 0, 64, 68
1, 366591, Note_on_c, 0, 67, 45
1, 366593, Control_c, 0, 64, 67
1, 366608, Control_c, 0, 64, 65
1, 366615, Note_on_c, 0, 60, 25
1, 366622, Control_c, 0, 64, 63
1, 366623, Note_on_c, 0, 50, 23
1, 366637, Control_c, 0, 64, 59
1, 366652, Control_c, 0, 64, 56
1, 366667, Control_c, 0, 64, 52
1, 366679, Note_off_c, 0, 62, 42
1, 366682, Control_c, 0, 64, 50
1, 366696, Control_c, 0, 64, 48
1, 366711, Control_c, 0, 64, 46
1, 366726, Control_c, 0, 64, 45
1, 366741, Control_c, 0, 64, 44
1, 366756, Control_c, 0, 64, 44
1, 366929, Note_on_c, 0, 59, 37
1, 366932, Note_off_c, 0, 60, 43
1, 366934, Control_c, 0, 64, 46
1, 366949, Control_c, 0, 64, 53
1, 366964, Control_c, 0, 64, 60
1, 366978, Control_c, 0, 64, 65
1, 366989, Note_off_c, 0, 43, 61
1, 366993, Control_c, 0, 64, 67
1, 367008, Control_c, 0, 64, 69
1, 367009, Note_off_c, 0, 50, 54
1, 367022, Control_c, 0, 64, 70
1, 367037, Control_c, 0, 64, 71
1, 367052, Control_c, 0, 64, 72
1, 367052, Control_c, 0, 67, 119
1, 367068, Control_c, 0, 64, 73
1, 367068, Control_c, 0, 67, 111
1, 367081, Note_off_c, 0, 59, 37
1, 367083, Control_c, 0, 64, 74
1, 367083, Control_c, 0, 67, 105
1, 367098, Control_c, 0, 67, 102
1, 367113, Control_c, 0, 64, 74
1, 367127, Control_c, 0, 64, 75
1, 367179, Control_c, 0, 67, 104
1, 367192, Note_off_c, 0, 67, 54
1, 367224, Control_c, 0, 64, 74
1, 367239, Control_c, 0, 64, 67
1, 367245, Note_on_c, 0, 38, 67
1, 367253, Control_c, 0, 64, 52
1, 367268, Control_c, 0, 64, 0
1, 367271, Note_off_c, 0, 38, 57
1, 367435, Note_on_c, 0, 40, 69
1, 367460, Note_off_c, 0, 40, 62
1, 367549, Control_c, 0, 67, 106
1, 367638, Control_c, 0, 67, 108
1, 367639, Note_on_c, 0, 42, 76
1, 367800, Control_c, 0, 64, 44
1, 367815, Control_c, 0, 64, 50
1, 367815, Control_c, 0, 67, 105
1, 367816, Note_on_c, 0, 62, 61
1, 367819, Note_on_c, 0, 60, 54
1, 367830, Control_c, 0, 64, 52
1, 367830, Control_c, 0, 67, 103
1, 367844, Control_c, 0, 64, 54
1, 367844, Control_c, 0, 67, 100
1, 367850, Note_off_c, 0, 42, 63
1, 367859, Control_c, 0, 64, 56
1, 367859, Control_c, 0, 67, 98
1, 367875, Control_c, 0, 64, 57
1, 367875, Control_c, 0, 67, 95
1, 367897, Control_c, 0, 67, 92
1, 367912, Control_c, 0, 67, 74
1, 367927, Control_c, 0, 67, 45
1, 367942, Control_c, 0, 64, 55
1, 367942, Control_c, 0, 67, 0
1, 367957, Control_c, 0, 64, 52
1, 367960, Note_off_c, 0, 62, 58
1, 367972, Control_c, 0, 64, 46
1, 367987, Note_off_c, 0, 60, 54
1, 367987, Control_c, 0, 64, 39
1, 367993, Note_on_c, 0, 43, 76
1, 367999, Note_on_c, 0, 50, 57
1, 368001, Control_c, 0, 64, 32
1, 368016, Control_c, 0, 64, 0
1, 368021, Note_off_c, 0, 43, 65
1, 368028, Note_off_c, 0, 50, 64
1, 368181, Note_on_c, 0, 45, 77
1, 368356, Note_on_c, 0, 62, 57
1, 368363, Note_on_c, 0, 60, 56
1, 368486, Note_off_c, 0, 60, 45
1, 368493, Note_off_c, 0, 62, 54
1, 368513, Note_off_c, 0, 45, 55
1, 368529, Note_on_c, 0, 47, 79
1, 368545, Note_on_c, 0, 54, 56
1, 368572, Note_off_c, 0, 54, 63
1, 368713, Note_off_c, 0, 47, 65
1, 368714, Note_on_c, 0, 48, 91
1, 368738, Note_off_c, 0, 48, 67
1, 368940, Note_on_c, 0, 50, 82
1, 368943, Note_on_c, 0, 64, 63
1, 369097, Note_off_c, 0, 64, 60
1, 369117, Note_on_c, 0, 59, 48
1, 369123, Note_on_c, 0, 67, 49
1, 369263, Note_off_c, 0, 59, 35
1, 369269, Note_off_c, 0, 67, 59
1, 369297, Note_on_c, 0, 64, 58
1, 369448, Note_off_c, 0, 64, 63
1, 369460, Note_off_c, 0, 50, 62
1, 369465, Note_on_c, 0, 48, 79
1, 369465, Note_on_c, 0, 67, 71
1, 369473, Note_on_c, 0, 59, 53
1, 369490, Note_off_c, 0, 48, 66
1, 369635, Note_on_c, 0, 50, 79
1, 369641, Note_on_c, 0, 64, 67
1, 369660, Note_off_c, 0, 50, 68
1, 369677, Note_off_c, 0, 67, 38
1, 369680, Note_off_c, 0, 59, 43
1, 369808, Note_off_c, 0, 64, 65
1, 369825, Note_on_c, 0, 52, 90
1, 369943, Control_c, 0, 64, 31
1, 369958, Control_c, 0, 64, 48
1, 369972, Control_c, 0, 64, 58
1, 369987, Control_c, 0, 64, 61
1, 370002, Control_c, 0, 64, 61
1, 370008, Note_on_c, 0, 62, 63
1, 370024, Note_off_c, 0, 52, 60
1, 370032, Control_c, 0, 64, 62
1, 370091, Control_c, 0, 64, 62
1, 370172, Control_c, 0, 64, 62
1, 370173, Note_off_c, 0, 62, 63
1, 370179, Note_on_c, 0, 70, 71
1, 370184, Note_on_c, 0, 54, 79
1, 370187, Note_on_c, 0, 60, 60
1, 370217, Note_off_c, 0, 60, 66
1, 370227, Note_off_c, 0, 54, 61
1, 370237, Note_off_c, 0, 70, 63
1, 370246, Control_c, 0, 64, 61
1, 370307, Control_c, 0, 64, 61
1, 370322, Control_c, 0, 64, 58
1, 370337, Control_c, 0, 64, 53
1, 370351, Control_c, 0, 64, 42
1, 370365, Note_on_c, 0, 52, 90
1, 370366, Control_c, 0, 64, 0
1, 370547, Note_on_c, 0, 60, 71
1, 370702, Note_off_c, 0, 60, 63
1, 370716, Note_on_c, 0, 50, 82
1, 370716, Note_on_c, 0, 58, 61
1, 370721, Note_on_c, 0, 66, 63
1, 370742, Note_off_c, 0, 52, 61
1, 370747, Note_off_c, 0, 58, 63
1, 370766, Note_off_c, 0, 66, 61
1, 370902, Note_off_c, 0, 50, 65
1, 370905, Note_on_c, 0, 52, 89
1, 370930, Note_off_c, 0, 52, 66
1, 371145, Note_on_c, 0, 59, 66
1, 371148, Note_on_c, 0, 50, 78
1, 371293, Note_off_c, 0, 59, 63
1, 371310, Note_on_c, 0, 66, 65
1, 371328, Note_on_c, 0, 55, 42
1, 371424, Note_off_c, 0, 55, 31
1, 371458, Note_off_c, 0, 66, 60
1, 371484, Note_on_c, 0, 59, 62
1, 371500, Control_c, 0, 64, 32
1, 371515, Control_c, 0, 64, 35
1, 371530, Control_c, 0, 64, 36
1, 371574, Control_c, 0, 64, 35
1, 371589, Control_c, 0, 64, 32
1, 371604, Control_c, 0, 64, 29
1, 371618, Control_c, 0, 64, 0
1, 371629, Note_off_c, 0, 59, 60
1, 371644, Note_off_c, 0, 50, 60
1, 371650, Note_on_c, 0, 48, 77
1, 371659, Note_on_c, 0, 67, 58
1, 371664, Note_on_c, 0, 58, 47
1, 371677, Note_off_c, 0, 48, 64
1, 371713, Note_off_c, 0, 58, 48
1, 371817, Note_off_c, 0, 67, 37
1, 371826, Note_on_c, 0, 50, 75
1, 371827, Note_on_c, 0, 59, 50
1, 371852, Note_off_c, 0, 50, 67
1, 371879, Control_c, 0, 64, 31
1, 371894, Control_c, 0, 64, 36
1, 371909, Control_c, 0, 64, 42
1, 371923, Control_c, 0, 64, 47
1, 371938, Control_c, 0, 64, 49
1, 371953, Control_c, 0, 64, 50
1, 371963, Note_off_c, 0, 59, 64
1, 371968, Control_c, 0, 64, 49
1, 371983, Control_c, 0, 64, 46
1, 371997, Control_c, 0, 64, 42
1, 372012, Control_c, 0, 64, 37
1, 372018, Note_on_c, 0, 48, 88
1, 372027, Control_c, 0, 64, 33
1, 372041, Control_c, 0, 64, 30
1, 372071, Control_c, 0, 64, 0
1, 372115, Control_c, 0, 64, 29
1, 372145, Control_c, 0, 64, 32
1, 372160, Control_c, 0, 64, 32
1, 372190, Control_c, 0, 64, 33
1, 372205, Control_c, 0, 64, 34
1, 372206, Note_on_c, 0, 62, 54
1, 372213, Note_on_c, 0, 53, 48
1, 372220, Control_c, 0, 64, 34
1, 372249, Control_c, 0, 64, 35
1, 372339, Note_off_c, 0, 53, 37
1, 372342, Note_off_c, 0, 48, 61
1, 372368, Note_off_c, 0, 62, 59
1, 372380, Note_on_c, 0, 47, 78
1, 372390, Control_c, 0, 64, 36
1, 372396, Note_on_c, 0, 54, 64
1, 372404, Control_c, 0, 64, 37
1, 372419, Control_c, 0, 64, 40
1, 372431, Note_off_c, 0, 54, 61
1, 372434, Control_c, 0, 64, 42
1, 372449, Control_c, 0, 64, 44
1, 372464, Control_c, 0, 64, 47
1, 372479, Control_c, 0, 64, 49
1, 372494, Control_c, 0, 64, 51
1, 372497, Note_off_c, 0, 47, 61
1, 372509, Control_c, 0, 64, 53
1, 372523, Control_c, 0, 64, 52
1, 372538, Control_c, 0, 64, 48
1, 372553, Control_c, 0, 64, 38
1, 372560, Note_on_c, 0, 45, 90
1, 372567, Control_c, 0, 64, 0
1, 372746, Note_on_c, 0, 64, 71
1, 372750, Note_on_c, 0, 53, 61
1, 372867, Note_off_c, 0, 53, 37
1, 372878, Note_off_c, 0, 64, 63
1, 372896, Note_off_c, 0, 45, 61
1, 372911, Note_on_c, 0, 38, 86
1, 372923, Note_on_c, 0, 54, 66
1, 372951, Note_off_c, 0, 54, 65
1, 373013, Control_c, 0, 64, 29
1, 373057, Control_c, 0, 64, 0
1, 373111, Note_on_c, 0, 43, 87
1, 373125, Note_off_c, 0, 38, 64
1, 373284, Note_on_c, 0, 64, 85
1, 373439, Note_off_c, 0, 64, 48
1, 373454, Note_on_c, 0, 66, 82
1, 373457, Note_off_c, 0, 43, 64
1, 373459, Note_on_c, 0, 38, 88
1, 373468, Note_on_c, 0, 59, 61
1, 373476, Note_on_c, 0, 55, 58
1, 373604, Note_off_c, 0, 66, 62
1, 373619, Note_off_c, 0, 38, 62
1, 373634, Note_on_c, 0, 50, 89
1, 373636, Note_off_c, 0, 55, 40
1, 373643, Note_on_c, 0, 64, 80
1, 373654, Note_off_c, 0, 59, 59
1, 373668, Note_off_c, 0, 50, 67
1, 373818, Note_off_c, 0, 64, 60
1, 373847, Note_on_c, 0, 48, 91
1, 373850, Note_on_c, 0, 67, 71
1, 373856, Note_on_c, 0, 55, 58
1, 373866, Note_on_c, 0, 62, 47
1, 373890, Note_off_c, 0, 48, 65
1, 373975, Note_off_c, 0, 67, 60
1, 374015, Note_on_c, 0, 47, 84
1, 374017, Note_off_c, 0, 55, 31
1, 374019, Note_on_c, 0, 64, 69
1, 374020, Control_c, 0, 64, 30
1, 374035, Control_c, 0, 64, 37
1, 374050, Control_c, 0, 64, 46
1, 374053, Note_off_c, 0, 47, 65
1, 374065, Control_c, 0, 64, 53
1, 374080, Control_c, 0, 64, 57
1, 374095, Control_c, 0, 64, 59
1, 374110, Control_c, 0, 64, 60
1, 374111, Note_off_c, 0, 62, 30
1, 374124, Control_c, 0, 64, 60
1, 374130, Note_off_c, 0, 64, 63
1, 374169, Control_c, 0, 64, 59
1, 374184, Control_c, 0, 64, 55
1, 374187, Note_on_c, 0, 48, 91
1, 374199, Control_c, 0, 64, 49
1, 374213, Control_c, 0, 64, 45
1, 374228, Control_c, 0, 64, 42
1, 374243, Control_c, 0, 64, 41
1, 374259, Control_c, 0, 64, 40
1, 374274, Control_c, 0, 64, 40
1, 374288, Control_c, 0, 64, 39
1, 374303, Control_c, 0, 64, 38
1, 374318, Control_c, 0, 64, 37
1, 374333, Control_c, 0, 64, 37
1, 374355, Note_on_c, 0, 62, 59
1, 374366, Note_on_c, 0, 47, 81
1, 374367, Note_off_c, 0, 48, 54
1, 374377, Note_on_c, 0, 53, 39
1, 374533, Note_on_c, 0, 45, 86
1, 374533, Note_off_c, 0, 62, 61
1, 374536, Note_off_c, 0, 53, 55
1, 374539, Note_on_c, 0, 54, 60
1, 374540, Control_c, 0, 64, 36
1, 374555, Control_c, 0, 64, 36
1, 374560, Note_off_c, 0, 47, 63
1, 374584, Control_c, 0, 64, 35
1, 374604, Note_off_c, 0, 54, 62
1, 374636, Control_c, 0, 64, 35
1, 374651, Control_c, 0, 64, 34
1, 374666, Control_c, 0, 64, 34
1, 374681, Control_c, 0, 64, 33
1, 374696, Control_c, 0, 64, 33
1, 374701, Note_on_c, 0, 43, 85
1, 374711, Control_c, 0, 64, 32
1, 374712, Note_off_c, 0, 45, 57
1, 374740, Control_c, 0, 64, 30
1, 374769, Control_c, 0, 64, 0
1, 374864, Note_off_c, 0, 43, 62
1, 374873, Note_on_c, 0, 45, 88
1, 374873, Note_on_c, 0, 64, 72
1, 374876, Note_on_c, 0, 53, 68
1, 374998, Note_off_c, 0, 64, 55
1, 375013, Note_off_c, 0, 45, 63
1, 375032, Note_off_c, 0, 53, 58
1, 375035, Note_on_c, 0, 38, 85
1, 375039, Note_on_c, 0, 54, 65
1, 375076, Note_off_c, 0, 54, 61
1, 375203, Note_off_c, 0, 38, 63
1, 375210, Note_on_c, 0, 43, 96
1, 375245, Note_off_c, 0, 43, 65
1, 375389, Note_on_c, 0, 62, 56
1, 375397, Note_on_c, 0, 54, 53
1, 375399, Note_on_c, 0, 59, 53
1, 375509, Note_off_c, 0, 62, 57
1, 375511, Note_off_c, 0, 59, 60
1, 375534, Note_off_c, 0, 54, 60
1, 375544, Note_on_c, 0, 50, 90
1, 375548, Note_on_c, 0, 52, 72
1, 375584, Note_off_c, 0, 50, 65
1, 375661, Note_off_c, 0, 52, 39
1, 375726, Note_on_c, 0, 59, 50
1, 375728, Note_on_c, 0, 55, 45
1, 375742, Note_on_c, 0, 54, 41
1, 375860, Note_off_c, 0, 59, 55
1, 375875, Note_on_c, 0, 38, 90
1, 375875, Note_off_c, 0, 55, 58
1, 375880, Note_off_c, 0, 54, 58
1, 375891, Note_on_c, 0, 52, 69
1, 375907, Note_off_c, 0, 38, 68
1, 376035, Note_off_c, 0, 52, 60
1, 376058, Note_on_c, 0, 55, 52
1, 376060, Note_on_c, 0, 59, 52
1, 376071, Note_on_c, 0, 54, 38
1, 376169, Note_off_c, 0, 55, 62
1, 376183, Note_off_c, 0, 59, 65
1, 376204, Note_off_c, 0, 54, 62
1, 376223, Note_on_c, 0, 45, 95
1, 376396, Note_off_c, 0, 45, 64
1, 376399, Note_on_c, 0, 62, 69
1, 376407, Note_on_c, 0, 47, 78
1, 376413, Note_on_c, 0, 53, 55
1, 376554, Note_off_c, 0, 62, 61
1, 376557, Note_off_c, 0, 53, 37
1, 376561, Note_off_c, 0, 47, 64
1, 376566, Note_on_c, 0, 54, 60
1, 376570, Note_on_c, 0, 48, 81
1, 376723, Note_off_c, 0, 54, 61
1, 376732, Note_on_c, 0, 38, 92
1, 376749, Note_off_c, 0, 48, 62
1, 376924, Note_on_c, 0, 64, 76
1, 376926, Note_on_c, 0, 48, 87
1, 376929, Note_on_c, 0, 53, 71
1, 376953, Note_off_c, 0, 38, 58
1, 377001, Control_c, 0, 64, 32
1, 377016, Control_c, 0, 64, 46
1, 377031, Control_c, 0, 64, 53
1, 377046, Control_c, 0, 64, 56
1, 377061, Control_c, 0, 64, 56
1, 377079, Note_off_c, 0, 64, 61
1, 377082, Note_off_c, 0, 53, 62
1, 377088, Note_on_c, 0, 45, 94
1, 377091, Control_c, 0, 64, 58
1, 377101, Note_on_c, 0, 54, 70
1, 377105, Control_c, 0, 64, 59
1, 377111, Note_off_c, 0, 48, 58
1, 377120, Control_c, 0, 64, 61
1, 377135, Control_c, 0, 64, 63
1, 377150, Control_c, 0, 64, 65
1, 377162, Note_off_c, 0, 54, 60
1, 377165, Control_c, 0, 64, 66
1, 377180, Control_c, 0, 64, 67
1, 377195, Control_c, 0, 64, 68
1, 377225, Control_c, 0, 64, 61
1, 377239, Control_c, 0, 64, 0
1, 377249, Note_on_c, 0, 43, 96
1, 377262, Note_off_c, 0, 45, 54
1, 377285, Note_off_c, 0, 43, 65
1, 377414, Note_on_c, 0, 62, 62
1, 377421, Note_on_c, 0, 59, 66
1, 377421, Note_on_c, 0, 54, 61
1, 377529, Note_off_c, 0, 62, 60
1, 377535, Note_off_c, 0, 59, 62
1, 377555, Note_off_c, 0, 54, 62
1, 377564, Note_on_c, 0, 50, 93
1, 377570, Note_on_c, 0, 52, 81
1, 377600, Note_off_c, 0, 50, 67
1, 377716, Note_off_c, 0, 52, 55
1, 377744, Note_on_c, 0, 59, 64
1, 377754, Note_on_c, 0, 55, 56
1, 377757, Note_on_c, 0, 54, 58
1, 377874, Note_off_c, 0, 59, 55
1, 377892, Note_on_c, 0, 38, 93
1, 377901, Note_off_c, 0, 55, 55
1, 377911, Note_on_c, 0, 52, 78
1, 377916, Note_off_c, 0, 54, 56
1, 377920, Note_off_c, 0, 38, 70
1, 377958, Control_c, 0, 64, 40
1, 377973, Control_c, 0, 64, 52
1, 377988, Control_c, 0, 64, 58
1, 378003, Control_c, 0, 64, 59
1, 378060, Note_off_c, 0, 52, 60
1, 378071, Note_on_c, 0, 59, 72
1, 378076, Note_on_c, 0, 55, 63
1, 378078, Note_on_c, 0, 54, 55
1, 378121, Control_c, 0, 64, 60
1, 378136, Control_c, 0, 64, 61
1, 378151, Control_c, 0, 64, 61
1, 378166, Control_c, 0, 64, 62
1, 378198, Note_off_c, 0, 55, 62
1, 378203, Note_off_c, 0, 59, 64
1, 378210, Control_c, 0, 64, 61
1, 378218, Note_off_c, 0, 54, 63
1, 378225, Control_c, 0, 64, 56
1, 378231, Note_on_c, 0, 45, 91
1, 378240, Control_c, 0, 64, 39
1, 378256, Control_c, 0, 64, 0
1, 378411, Note_on_c, 0, 62, 78
1, 378417, Note_on_c, 0, 47, 87
1, 378421, Note_off_c, 0, 45, 64
1, 378423, Note_on_c, 0, 53, 71
1, 378583, Note_on_c, 0, 54, 80
1, 378585, Note_on_c, 0, 48, 96
1, 378589, Note_off_c, 0, 47, 66
1, 378607, Note_off_c, 0, 53, 56
1, 378627, Note_off_c, 0, 62, 59
1, 378677, Control_c, 0, 64, 36
1, 378691, Control_c, 0, 64, 47
1, 378706, Control_c, 0, 64, 52
1, 378721, Control_c, 0, 64, 54
1, 378736, Control_c, 0, 64, 55
1, 378740, Note_off_c, 0, 54, 60
1, 378763, Note_on_c, 0, 38, 89
1, 378777, Note_off_c, 0, 48, 64
1, 378870, Control_c, 0, 64, 55
1, 378899, Control_c, 0, 64, 56
1, 378928, Control_c, 0, 64, 54
1, 378943, Control_c, 0, 64, 47
1, 378958, Control_c, 0, 64, 36
1, 378959, Note_on_c, 0, 64, 87
1, 378962, Note_on_c, 0, 48, 95
1, 378967, Note_on_c, 0, 53, 72
1, 378973, Control_c, 0, 64, 0
1, 379001, Note_off_c, 0, 38, 63
1, 379017, Control_c, 0, 64, 29
1, 379032, Control_c, 0, 64, 31
1, 379048, Control_c, 0, 64, 32
1, 379063, Control_c, 0, 64, 33
1, 379129, Control_c, 0, 64, 0
1, 379195, Note_on_c, 0, 45, 92
1, 379196, Note_off_c, 0, 53, 55
1, 379204, Note_on_c, 0, 54, 78
1, 379204, Note_off_c, 0, 48, 63
1, 379322, Control_c, 0, 64, 50
1, 379330, Note_off_c, 0, 45, 65
1, 379337, Control_c, 0, 64, 69
1, 379345, Note_off_c, 0, 54, 63
1, 379352, Control_c, 0, 64, 75
1, 379366, Control_c, 0, 64, 83
1, 379381, Control_c, 0, 64, 89
1, 379389, Note_off_c, 0, 64, 63
1, 379396, Control_c, 0, 64, 98
1, 379411, Control_c, 0, 64, 108
1, 379426, Control_c, 0, 64, 122
1, 379440, Control_c, 0, 64, 127
1, 379559, Control_c, 0, 64, 99
1, 379574, Control_c, 0, 64, 58
1, 379588, Control_c, 0, 64, 0
1, 379729, Note_on_c, 0, 37, 71
1, 379780, Note_on_c, 0, 46, 68
1, 379781, Control_c, 0, 64, 49
1, 379794, Note_off_c, 0, 37, 62
1, 379796, Control_c, 0, 64, 64
1, 379811, Control_c, 0, 64, 66
1, 379825, Control_c, 0, 64, 68
1, 379827, Note_on_c, 0, 55, 59
1, 379834, Note_on_c, 0, 51, 58
1, 379840, Control_c, 0, 64, 72
1, 379856, Control_c, 0, 64, 79
1, 379868, Note_off_c, 0, 51, 63
1, 379869, Note_off_c, 0, 46, 60
1, 379878, Control_c, 0, 64, 86
1, 379888, Note_on_c, 0, 58, 64
1, 379893, Control_c, 0, 64, 91
1, 379908, Control_c, 0, 64, 95
1, 379919, Note_on_c, 0, 63, 65
1, 379922, Note_off_c, 0, 55, 53
1, 379923, Control_c, 0, 64, 97
1, 379937, Control_c, 0, 64, 100
1, 379952, Control_c, 0, 64, 104
1, 379967, Control_c, 0, 64, 109
1, 379969, Note_on_c, 0, 67, 72
1, 379973, Note_off_c, 0, 58, 61
1, 379982, Control_c, 0, 64, 124
1, 379997, Control_c, 0, 64, 127
1, 380018, Note_off_c, 0, 63, 59
1, 380363, Note_off_c, 0, 67, 35
1, 380364, Note_on_c, 0, 37, 52
1, 380388, Note_on_c, 0, 55, 46
1, 380407, Note_off_c, 0, 37, 59
1, 380426, Note_on_c, 0, 46, 57
1, 380432, Note_on_c, 0, 58, 61
1, 380455, Note_on_c, 0, 63, 64
1, 380456, Note_on_c, 0, 51, 62
1, 380481, Note_on_c, 0, 67, 73
1, 380492, Note_off_c, 0, 55, 54
1, 380507, Note_off_c, 0, 51, 58
1, 380521, Note_off_c, 0, 58, 62
1, 380525, Note_off_c, 0, 46, 61
1, 380622, Note_off_c, 0, 63, 35
1, 380742, Note_off_c, 0, 67, 51
1, 380772, Note_on_c, 0, 37, 66
1, 380810, Note_on_c, 0, 55, 67
1, 380820, Note_off_c, 0, 37, 63
1, 380829, Note_on_c, 0, 46, 76
1, 380846, Note_on_c, 0, 58, 82
1, 380855, Note_on_c, 0, 51, 74
1, 380857, Note_off_c, 0, 55, 60
1, 380869, Note_on_c, 0, 63, 82
1, 380895, Note_off_c, 0, 51, 60
1, 380899, Note_off_c, 0, 46, 61
1, 380903, Note_on_c, 0, 67, 88
1, 380909, Note_on_c, 0, 61, 37
1, 380909, Note_off_c, 0, 58, 64
1, 380939, Note_off_c, 0, 61, 53
1, 380945, Note_off_c, 0, 63, 63
1, 381116, Note_on_c, 0, 37, 75
1, 381168, Note_off_c, 0, 67, 39
1, 381168, Note_on_c, 0, 46, 80
1, 381175, Note_off_c, 0, 37, 62
1, 381207, Note_on_c, 0, 51, 72
1, 381210, Note_on_c, 0, 55, 78
1, 381221, Note_off_c, 0, 46, 61
1, 381258, Note_on_c, 0, 58, 81
1, 381267, Note_off_c, 0, 51, 57
1, 381270, Note_off_c, 0, 55, 61
1, 381296, Note_on_c, 0, 63, 84
1, 381329, Note_off_c, 0, 58, 63
1, 381356, Note_on_c, 0, 67, 98
1, 381392, Note_off_c, 0, 63, 64
1, 381419, Poly_aftertouch_c, 0, 46, 127
1, 381449, Poly_aftertouch_c, 0, 46, 0
1, 381486, Note_on_c, 0, 37, 79
1, 381556, Note_on_c, 0, 46, 82
1, 381566, Note_off_c, 0, 37, 61
1, 381627, Note_off_c, 0, 46, 62
1, 381633, Note_on_c, 0, 51, 92
1, 381663, Note_off_c, 0, 51, 61
1, 381698, Note_on_c, 0, 55, 85
1, 381704, Note_off_c, 0, 67, 59
1, 381770, Note_on_c, 0, 58, 79
1, 381845, Note_on_c, 0, 63, 87
1, 381940, Note_on_c, 0, 67, 98
1, 382763, Note_off_c, 0, 55, 41
1, 382799, Note_off_c, 0, 58, 58
1, 382800, Note_off_c, 0, 63, 51
1, 382835, Note_on_c, 0, 31, 82
1, 382841, Note_off_c, 0, 67, 51
1, 382887, Control_c, 0, 64, 106
1, 382901, Control_c, 0, 64, 65
1, 382916, Control_c, 0, 64, 0
1, 385341, Control_c, 0, 64, 38
1, 385356, Control_c, 0, 64, 51
1, 385370, Control_c, 0, 64, 57
1, 385385, Control_c, 0, 64, 59
1, 385400, Control_c, 0, 64, 61
1, 385415, Control_c, 0, 64, 62
1, 385430, Control_c, 0, 64, 64
1, 385446, Control_c, 0, 64, 65
1, 385461, Control_c, 0, 64, 66
1, 385475, Control_c, 0, 64, 68
1, 385490, Control_c, 0, 64, 70
1, 385505, Control_c, 0, 64, 73
1, 385519, Control_c, 0, 64, 75
1, 385534, Control_c, 0, 64, 76
1, 385549, Control_c, 0, 64, 79
1, 385564, Control_c, 0, 64, 81
1, 385579, Control_c, 0, 64, 83
1, 385593, Control_c, 0, 64, 85
1, 385608, Control_c, 0, 64, 87
1, 385623, Control_c, 0, 64, 88
1, 385638, Control_c, 0, 64, 90
1, 385653, Control_c, 0, 64, 92
1, 385667, Control_c, 0, 64, 93
1, 385682, Control_c, 0, 64, 94
1, 385697, Control_c, 0, 64, 95
1, 385717, Note_off_c, 0, 31, 31
1, 385741, Control_c, 0, 64, 97
1, 385801, Control_c, 0, 64, 99
1, 386119, Control_c, 0, 67, 40
1, 386134, Control_c, 0, 67, 58
1, 386149, Control_c, 0, 67, 71
1, 386164, Control_c, 0, 67, 77
1, 386179, Control_c, 0, 67, 81
1, 386193, Control_c, 0, 67, 85
1, 386208, Control_c, 0, 67, 88
1, 386223, Control_c, 0, 67, 90
1, 386239, Control_c, 0, 67, 91
1, 386254, Control_c, 0, 67, 92
1, 386269, Control_c, 0, 67, 93
1, 386284, Control_c, 0, 67, 94
1, 386298, Control_c, 0, 67, 94
1, 386313, Control_c, 0, 67, 96
1, 386342, Control_c, 0, 67, 110
1, 386357, Control_c, 0, 67, 127
1, 387497, Note_on_c, 0, 57, 31
1, 387538, Note_on_c, 0, 62, 17
1, 387544, Note_on_c, 0, 59, 13
1, 387551, Note_on_c, 0, 64, 9
1, 387590, Note_off_c, 0, 59, 49
1, 387799, Note_on_c, 0, 59, 45
1, 387804, Note_off_c, 0, 62, 30
1, 387811, Note_off_c, 0, 64, 39
1, 387887, Note_off_c, 0, 57, 41
1, 388093, Control_c, 0, 64, 97
1, 388129, Control_c, 0, 64, 95
1, 388144, Control_c, 0, 64, 94
1, 388159, Control_c, 0, 64, 92
1, 388174, Control_c, 0, 64, 90
1, 388183, Note_on_c, 0, 43, 29
1, 388188, Control_c, 0, 64, 87
1, 388203, Control_c, 0, 64, 83
1, 388218, Control_c, 0, 64, 77
1, 388233, Control_c, 0, 64, 71
1, 388248, Control_c, 0, 64, 64
1, 388258, Note_on_c, 0, 60, 38
1, 388263, Control_c, 0, 64, 59
1, 388278, Control_c, 0, 64, 54
1, 388282, Note_on_c, 0, 62, 27
1, 388293, Control_c, 0, 64, 49
1, 388307, Note_off_c, 0, 59, 37
1, 388308, Control_c, 0, 64, 43
1, 388322, Control_c, 0, 64, 35
1, 388337, Poly_aftertouch_c, 0, 64, 127
1, 388337, Control_c, 0, 64, 0
1, 388440, Control_c, 0, 64, 34
1, 388455, Control_c, 0, 64, 46
1, 388470, Control_c, 0, 64, 57
1, 388485, Control_c, 0, 64, 62
1, 388500, Control_c, 0, 64, 64
1, 388514, Control_c, 0, 64, 65
1, 388525, Note_on_c, 0, 49, 35
1, 388529, Control_c, 0, 64, 66
1, 388544, Control_c, 0, 64, 68
1, 388559, Control_c, 0, 64, 70
1, 388574, Control_c, 0, 64, 71
1, 388588, Control_c, 0, 64, 72
1, 388603, Control_c, 0, 64, 73
1, 388618, Control_c, 0, 64, 74
1, 388633, Control_c, 0, 64, 74
1, 388650, Note_off_c, 0, 49, 37
1, 388664, Control_c, 0, 64, 75
1, 388718, Note_on_c, 0, 59, 49
1, 388741, Note_off_c, 0, 43, 36
1, 388761, Note_off_c, 0, 60, 50
1, 388767, Note_on_c, 0, 50, 3
1, 388796, Poly_aftertouch_c, 0, 64, 0
1, 388796, Note_off_c, 0, 62, 39
1, 388806, Note_off_c, 0, 50, 52
1, 388928, Note_off_c, 0, 59, 37
1, 388930, Note_on_c, 0, 60, 39
1, 388937, Control_c, 0, 64, 74
1, 388952, Control_c, 0, 64, 72
1, 388964, Note_on_c, 0, 62, 31
1, 388967, Control_c, 0, 64, 67
1, 388974, Note_on_c, 0, 64, 27
1, 388982, Control_c, 0, 64, 60
1, 388997, Control_c, 0, 64, 51
1, 389011, Control_c, 0, 64, 45
1, 389026, Control_c, 0, 64, 43
1, 389041, Control_c, 0, 64, 44
1, 389056, Control_c, 0, 64, 47
1, 389070, Control_c, 0, 64, 51
1, 389085, Control_c, 0, 64, 57
1, 389100, Control_c, 0, 64, 62
1, 389115, Control_c, 0, 64, 65
1, 389130, Control_c, 0, 64, 67
1, 389144, Control_c, 0, 64, 68
1, 389145, Note_on_c, 0, 50, 32
1, 389159, Control_c, 0, 64, 70
1, 389172, Note_off_c, 0, 62, 37
1, 389174, Control_c, 0, 64, 71
1, 389189, Control_c, 0, 64, 72
1, 389204, Control_c, 0, 64, 73
1, 389218, Control_c, 0, 64, 74
1, 389233, Control_c, 0, 64, 74
1, 389307, Control_c, 0, 64, 75
1, 389309, Note_off_c, 0, 50, 43
1, 389324, Note_off_c, 0, 60, 63
1, 389343, Note_on_c, 0, 57, 50
1, 389367, Note_on_c, 0, 62, 32
1, 389373, Note_off_c, 0, 64, 41
1, 389402, Note_off_c, 0, 62, 48
1, 389500, Control_c, 0, 64, 74
1, 389546, Note_off_c, 0, 57, 32
1, 389574, Control_c, 0, 64, 73
1, 389580, Note_on_c, 0, 43, 38
1, 389589, Control_c, 0, 64, 71
1, 389604, Control_c, 0, 64, 66
1, 389627, Control_c, 0, 64, 61
1, 389628, Note_on_c, 0, 64, 45
1, 389641, Control_c, 0, 64, 53
1, 389649, Note_on_c, 0, 66, 44
1, 389656, Control_c, 0, 64, 49
1, 389671, Control_c, 0, 64, 44
1, 389676, Note_on_c, 0, 67, 25
1, 389686, Control_c, 0, 64, 38
1, 389700, Control_c, 0, 64, 33
1, 389715, Control_c, 0, 64, 28
1, 389730, Control_c, 0, 64, 0
1, 389774, Control_c, 0, 64, 29
1, 389789, Control_c, 0, 64, 32
1, 389805, Control_c, 0, 64, 37
1, 389820, Control_c, 0, 64, 44
1, 389834, Control_c, 0, 64, 53
1, 389849, Control_c, 0, 64, 58
1, 389864, Control_c, 0, 64, 60
1, 389879, Control_c, 0, 64, 61
1, 389886, Note_on_c, 0, 62, 48
1, 389893, Control_c, 0, 64, 61
1, 389923, Control_c, 0, 64, 62
1, 390028, Control_c, 0, 64, 61
1, 390033, Note_off_c, 0, 64, 26
1, 390042, Control_c, 0, 64, 57
1, 390057, Control_c, 0, 64, 51
1, 390069, Note_off_c, 0, 66, 29
1, 390072, Control_c, 0, 64, 44
1, 390072, Note_off_c, 0, 62, 59
1, 390075, Note_on_c, 0, 50, 37
1, 390086, Control_c, 0, 64, 39
1, 390090, Note_on_c, 0, 60, 44
1, 390101, Control_c, 0, 64, 37
1, 390116, Control_c, 0, 64, 35
1, 390160, Control_c, 0, 64, 36
1, 390175, Control_c, 0, 64, 37
1, 390190, Control_c, 0, 64, 41
1, 390204, Control_c, 0, 64, 46
1, 390219, Control_c, 0, 64, 52
1, 390236, Control_c, 0, 64, 58
1, 390251, Control_c, 0, 64, 61
1, 390265, Control_c, 0, 64, 62
1, 390273, Note_off_c, 0, 60, 54
1, 390280, Control_c, 0, 64, 63
1, 390281, Note_off_c, 0, 43, 35
1, 390295, Control_c, 0, 64, 64
1, 390299, Note_on_c, 0, 59, 55
1, 390309, Control_c, 0, 64, 64
1, 390330, Note_off_c, 0, 67, 46
1, 390339, Control_c, 0, 64, 65
1, 390519, Note_on_c, 0, 57, 58
1, 390522, Note_off_c, 0, 59, 56
1, 390539, Note_on_c, 0, 62, 43
1, 390542, Note_on_c, 0, 64, 49
1, 390567, Note_off_c, 0, 62, 59
1, 390712, Note_on_c, 0, 59, 70
1, 390716, Control_c, 0, 64, 64
1, 390726, Note_off_c, 0, 57, 56
1, 390750, Note_off_c, 0, 64, 39
1, 390776, Control_c, 0, 64, 64
1, 390806, Control_c, 0, 64, 63
1, 390821, Control_c, 0, 64, 63
1, 390835, Control_c, 0, 64, 62
1, 390850, Control_c, 0, 64, 61
1, 390865, Control_c, 0, 64, 58
1, 390880, Control_c, 0, 64, 54
1, 390895, Control_c, 0, 64, 49
1, 390909, Control_c, 0, 64, 43
1, 390924, Control_c, 0, 64, 35
1, 390928, Note_on_c, 0, 60, 52
1, 390929, Note_on_c, 0, 43, 37
1, 390939, Control_c, 0, 64, 0
1, 390944, Note_off_c, 0, 50, 43
1, 390955, Note_on_c, 0, 62, 41
1, 390957, Note_off_c, 0, 59, 51
1, 390981, Note_on_c, 0, 64, 33
1, 391088, Control_c, 0, 64, 35
1, 391110, Control_c, 0, 64, 46
1, 391125, Control_c, 0, 64, 55
1, 391139, Control_c, 0, 64, 60
1, 391141, Note_on_c, 0, 49, 37
1, 391154, Control_c, 0, 64, 61
1, 391169, Control_c, 0, 64, 62
1, 391184, Control_c, 0, 64, 63
1, 391199, Control_c, 0, 64, 64
1, 391214, Control_c, 0, 64, 65
1, 391229, Control_c, 0, 64, 66
1, 391244, Control_c, 0, 64, 66
1, 391258, Control_c, 0, 64, 67
1, 391273, Control_c, 0, 64, 67
1, 391285, Note_off_c, 0, 49, 33
1, 391288, Control_c, 0, 64, 68
1, 391312, Note_off_c, 0, 43, 37
1, 391321, Note_on_c, 0, 59, 63
1, 391331, Note_on_c, 0, 50, 41
1, 391359, Note_off_c, 0, 50, 56
1, 391361, Note_off_c, 0, 60, 61
1, 391369, Note_off_c, 0, 64, 38
1, 391377, Control_c, 0, 64, 68
1, 391394, Note_off_c, 0, 62, 38
1, 391480, Control_c, 0, 64, 68
1, 391510, Control_c, 0, 64, 67
1, 391525, Control_c, 0, 64, 66
1, 391526, Note_on_c, 0, 60, 54
1, 391539, Control_c, 0, 64, 63
1, 391543, Note_on_c, 0, 62, 42
1, 391554, Control_c, 0, 64, 57
1, 391556, Note_on_c, 0, 64, 42
1, 391563, Note_off_c, 0, 59, 54
1, 391569, Control_c, 0, 64, 48
1, 391584, Control_c, 0, 64, 40
1, 391599, Control_c, 0, 64, 31
1, 391613, Control_c, 0, 64, 0
1, 391673, Control_c, 0, 64, 29
1, 391688, Control_c, 0, 64, 38
1, 391703, Control_c, 0, 64, 49
1, 391718, Control_c, 0, 64, 59
1, 391732, Control_c, 0, 64, 63
1, 391741, Note_off_c, 0, 62, 40
1, 391747, Note_on_c, 0, 50, 28
1, 391747, Control_c, 0, 64, 65
1, 391762, Control_c, 0, 64, 66
1, 391777, Control_c, 0, 64, 67
1, 391792, Control_c, 0, 64, 68
1, 391806, Control_c, 0, 64, 70
1, 391821, Control_c, 0, 64, 71
1, 391837, Control_c, 0, 64, 72
1, 391859, Control_c, 0, 64, 72
1, 391874, Control_c, 0, 64, 73
1, 391918, Control_c, 0, 64, 73
1, 391935, Note_off_c, 0, 50, 43
1, 392001, Note_off_c, 0, 60, 59
1, 392006, Note_on_c, 0, 57, 51
1, 392018, Note_on_c, 0, 62, 26
1, 392055, Note_off_c, 0, 62, 52
1, 392061, Note_off_c, 0, 64, 60
1, 392342, Note_on_c, 0, 43, 32
1, 392377, Control_c, 0, 64, 72
1, 392392, Control_c, 0, 64, 70
1, 392406, Control_c, 0, 64, 66
1, 392410, Note_off_c, 0, 57, 32
1, 392421, Note_on_c, 0, 65, 51
1, 392421, Control_c, 0, 64, 61
1, 392436, Control_c, 0, 64, 54
1, 392439, Note_on_c, 0, 67, 46
1, 392451, Control_c, 0, 64, 47
1, 392466, Control_c, 0, 64, 40
1, 392481, Control_c, 0, 64, 35
1, 392496, Control_c, 0, 64, 31
1, 392521, Poly_aftertouch_c, 0, 64, 127
1, 392540, Control_c, 0, 64, 32
1, 392555, Control_c, 0, 64, 39
1, 392570, Control_c, 0, 64, 49
1, 392585, Control_c, 0, 64, 59
1, 392600, Control_c, 0, 64, 63
1, 392621, Control_c, 0, 64, 65
1, 392638, Control_c, 0, 64, 66
1, 392653, Control_c, 0, 64, 67
1, 392667, Control_c, 0, 64, 69
1, 392682, Control_c, 0, 64, 70
1, 392697, Control_c, 0, 64, 72
1, 392711, Control_c, 0, 64, 73
1, 392717, Note_off_c, 0, 43, 40
1, 392726, Control_c, 0, 64, 74
1, 392756, Control_c, 0, 64, 74
1, 392771, Control_c, 0, 64, 75
1, 392799, Control_c, 0, 64, 75
1, 392862, Note_on_c, 0, 62, 52
1, 393035, Poly_aftertouch_c, 0, 64, 0
1, 393095, Control_c, 0, 64, 75
1, 393118, Note_off_c, 0, 62, 53
1, 393129, Note_on_c, 0, 57, 38
1, 393129, Note_on_c, 0, 60, 42
1, 393155, Control_c, 0, 64, 74
1, 393169, Control_c, 0, 64, 74
1, 393184, Control_c, 0, 64, 73
1, 393214, Control_c, 0, 64, 73
1, 393228, Control_c, 0, 64, 72
1, 393258, Control_c, 0, 64, 72
1, 393288, Note_off_c, 0, 60, 60
1, 393288, Control_c, 0, 64, 71
1, 393302, Control_c, 0, 64, 71
1, 393332, Control_c, 0, 64, 70
1, 393399, Control_c, 0, 64, 70
1, 393465, Note_on_c, 0, 60, 32
1, 393475, Note_off_c, 0, 57, 38
1, 393486, Note_on_c, 0, 62, 30
1, 393563, Note_off_c, 0, 67, 52
1, 393565, Note_off_c, 0, 65, 36
1, 393774, Note_on_c, 0, 53, 46
1, 393786, Note_off_c, 0, 60, 0
1, 393796, Note_on_c, 0, 69, 31
1, 393823, Poly_aftertouch_c, 0, 60, 127
1, 393830, Note_off_c, 0, 62, 43
1, 393840, Poly_aftertouch_c, 0, 64, 127
1, 393963, Control_c, 0, 67, 124
1, 393978, Control_c, 0, 67, 119
1, 393989, Note_on_c, 0, 55, 60
1, 393993, Control_c, 0, 67, 117
1, 394009, Note_on_c, 0, 62, 43
1, 394014, Poly_aftertouch_c, 0, 60, 0
1, 394028, Note_off_c, 0, 69, 38
1, 394040, Poly_aftertouch_c, 0, 64, 0
1, 394052, Control_c, 0, 64, 69
1, 394067, Control_c, 0, 67, 115
1, 394120, Note_off_c, 0, 53, 32
1, 394163, Control_c, 0, 64, 69
1, 394163, Control_c, 0, 67, 117
1, 394178, Control_c, 0, 64, 68
1, 394193, Control_c, 0, 64, 67
1, 394207, Control_c, 0, 64, 65
1, 394222, Control_c, 0, 64, 60
1, 394223, Note_off_c, 0, 62, 54
1, 394235, Note_on_c, 0, 57, 57
1, 394238, Control_c, 0, 64, 55
1, 394241, Note_on_c, 0, 65, 37
1, 394245, Note_on_c, 0, 64, 37
1, 394253, Control_c, 0, 64, 50
1, 394253, Control_c, 0, 67, 119
1, 394268, Control_c, 0, 64, 46
1, 394280, Note_off_c, 0, 55, 57
1, 394282, Control_c, 0, 64, 43
1, 394295, Poly_aftertouch_c, 0, 60, 127
1, 394297, Control_c, 0, 64, 41
1, 394312, Control_c, 0, 64, 41
1, 394327, Control_c, 0, 64, 41
1, 394342, Control_c, 0, 64, 43
1, 394356, Control_c, 0, 64, 48
1, 394371, Control_c, 0, 64, 53
1, 394386, Control_c, 0, 64, 57
1, 394401, Control_c, 0, 64, 60
1, 394416, Control_c, 0, 64, 62
1, 394430, Control_c, 0, 64, 63
1, 394445, Control_c, 0, 64, 64
1, 394454, Poly_aftertouch_c, 0, 60, 0
1, 394459, Note_on_c, 0, 62, 44
1, 394460, Control_c, 0, 64, 64
1, 394472, Note_off_c, 0, 65, 33
1, 394490, Control_c, 0, 64, 65
1, 394499, Note_off_c, 0, 64, 34
1, 394623, Control_c, 0, 64, 64
1, 394636, Note_off_c, 0, 62, 56
1, 394641, Note_on_c, 0, 59, 62
1, 394651, Note_off_c, 0, 57, 62
1, 394653, Control_c, 0, 64, 64
1, 394655, Note_on_c, 0, 65, 39
1, 394658, Note_on_c, 0, 64, 32
1, 394680, Note_on_c, 0, 60, 4
1, 394682, Control_c, 0, 64, 63
1, 394742, Control_c, 0, 64, 63
1, 394786, Control_c, 0, 64, 62
1, 394800, Control_c, 0, 64, 60
1, 394815, Control_c, 0, 64, 57
1, 394830, Control_c, 0, 64, 52
1, 394842, Note_on_c, 0, 57, 62
1, 394845, Control_c, 0, 64, 47
1, 394868, Note_off_c, 0, 60, 39
1, 394868, Control_c, 0, 64, 43
1, 394870, Note_off_c, 0, 65, 37
1, 394872, Note_on_c, 0, 62, 42
1, 394874, Note_off_c, 0, 59, 53
1, 394882, Control_c, 0, 64, 42
1, 394893, Note_off_c, 0, 64, 42
1, 394912, Control_c, 0, 64, 43
1, 394927, Control_c, 0, 64, 46
1, 394942, Control_c, 0, 64, 52
1, 394956, Control_c, 0, 64, 58
1, 394956, Control_c, 0, 67, 117
1, 394971, Control_c, 0, 64, 61
1, 394986, Control_c, 0, 64, 62
1, 395015, Control_c, 0, 64, 62
1, 395040, Note_off_c, 0, 62, 56
1, 395063, Note_on_c, 0, 65, 42
1, 395076, Note_on_c, 0, 64, 28
1, 395107, Poly_aftertouch_c, 0, 60, 127
1, 395179, Control_c, 0, 64, 62
1, 395238, Control_c, 0, 64, 61
1, 395240, Note_on_c, 0, 55, 62
1, 395242, Poly_aftertouch_c, 0, 60, 0
1, 395262, Note_on_c, 0, 62, 49
1, 395265, Note_off_c, 0, 65, 37
1, 395266, Note_off_c, 0, 57, 58
1, 395283, Control_c, 0, 64, 61
1, 395283, Note_off_c, 0, 64, 44
1, 395357, Control_c, 0, 64, 60
1, 395372, Control_c, 0, 64, 58
1, 395386, Control_c, 0, 64, 55
1, 395401, Control_c, 0, 64, 50
1, 395401, Control_c, 0, 67, 119
1, 395416, Control_c, 0, 64, 46
1, 395430, Control_c, 0, 64, 42
1, 395445, Control_c, 0, 64, 40
1, 395464, Note_off_c, 0, 62, 56
1, 395471, Note_on_c, 0, 57, 58
1, 395477, Note_on_c, 0, 65, 43
1, 395490, Control_c, 0, 64, 42
1, 395495, Note_on_c, 0, 64, 27
1, 395499, Note_off_c, 0, 55, 56
1, 395504, Control_c, 0, 64, 46
1, 395519, Control_c, 0, 64, 52
1, 395533, Poly_aftertouch_c, 0, 60, 127
1, 395534, Control_c, 0, 64, 57
1, 395549, Control_c, 0, 64, 60
1, 395564, Control_c, 0, 64, 61
1, 395578, Control_c, 0, 64, 62
1, 395601, Control_c, 0, 64, 62
1, 395616, Control_c, 0, 64, 63
1, 395660, Control_c, 0, 64, 63
1, 395704, Poly_aftertouch_c, 0, 60, 0
1, 395709, Note_off_c, 0, 57, 60
1, 395719, Note_off_c, 0, 65, 34
1, 395719, Control_c, 0, 64, 63
1, 395721, Note_on_c, 0, 59, 56
1, 395721, Note_on_c, 0, 62, 46
1, 395745, Note_off_c, 0, 64, 43
1, 395764, Control_c, 0, 67, 117
1, 395793, Control_c, 0, 67, 115
1, 395824, Control_c, 0, 67, 113
1, 395853, Control_c, 0, 67, 111
1, 395879, Note_off_c, 0, 62, 56
1, 395883, Control_c, 0, 67, 108
1, 395896, Note_on_c, 0, 57, 62
1, 395906, Note_off_c, 0, 59, 58
1, 395908, Note_on_c, 0, 64, 29
1, 395913, Note_on_c, 0, 65, 38
1, 395913, Control_c, 0, 67, 106
1, 395924, Note_on_c, 0, 60, 13
1, 395927, Control_c, 0, 67, 100
1, 395942, Control_c, 0, 67, 71
1, 395957, Control_c, 0, 67, 49
1, 395972, Control_c, 0, 64, 62
1, 395972, Control_c, 0, 67, 0
1, 395987, Control_c, 0, 64, 62
1, 396001, Control_c, 0, 64, 59
1, 396016, Control_c, 0, 64, 56
1, 396031, Control_c, 0, 64, 52
1, 396046, Control_c, 0, 64, 51
1, 396076, Control_c, 0, 64, 53
1, 396081, Note_on_c, 0, 55, 65
1, 396091, Control_c, 0, 64, 55
1, 396097, Note_off_c, 0, 60, 42
1, 396099, Note_on_c, 0, 62, 49
1, 396106, Control_c, 0, 64, 58
1, 396111, Note_off_c, 0, 65, 35
1, 396118, Note_off_c, 0, 57, 60
1, 396121, Control_c, 0, 64, 60
1, 396135, Control_c, 0, 64, 62
1, 396146, Note_off_c, 0, 64, 43
1, 396150, Control_c, 0, 64, 62
1, 396165, Control_c, 0, 64, 63
1, 396195, Control_c, 0, 64, 63
1, 396262, Note_on_c, 0, 57, 68
1, 396264, Note_off_c, 0, 62, 56
1, 396274, Note_off_c, 0, 55, 58
1, 396283, Note_on_c, 0, 64, 39
1, 396284, Note_on_c, 0, 65, 41
1, 396302, Note_on_c, 0, 60, 12
1, 396453, Note_on_c, 0, 59, 71
1, 396468, Control_c, 0, 64, 63
1, 396470, Note_off_c, 0, 57, 54
1, 396472, Note_on_c, 0, 62, 53
1, 396486, Note_off_c, 0, 60, 40
1, 396492, Note_off_c, 0, 65, 37
1, 396513, Note_off_c, 0, 64, 37
1, 396572, Control_c, 0, 64, 62
1, 396587, Control_c, 0, 64, 62
1, 396602, Control_c, 0, 64, 60
1, 396617, Control_c, 0, 64, 56
1, 396633, Control_c, 0, 64, 50
1, 396648, Control_c, 0, 64, 44
1, 396650, Note_on_c, 0, 57, 68
1, 396654, Note_off_c, 0, 62, 59
1, 396663, Control_c, 0, 64, 38
1, 396673, Note_off_c, 0, 59, 56
1, 396677, Control_c, 0, 64, 36
1, 396678, Note_on_c, 0, 64, 37
1, 396681, Note_on_c, 0, 65, 45
1, 396692, Control_c, 0, 64, 37
1, 396707, Control_c, 0, 64, 41
1, 396715, Poly_aftertouch_c, 0, 60, 127
1, 396722, Control_c, 0, 64, 48
1, 396737, Control_c, 0, 64, 55
1, 396751, Control_c, 0, 64, 60
1, 396766, Control_c, 0, 64, 61
1, 396781, Control_c, 0, 64, 62
1, 396796, Control_c, 0, 64, 62
1, 396825, Control_c, 0, 64, 63
1, 396848, Poly_aftertouch_c, 0, 60, 0
1, 396860, Note_off_c, 0, 65, 37
1, 396875, Note_on_c, 0, 62, 44
1, 396886, Note_off_c, 0, 64, 37
1, 397030, Note_off_c, 0, 62, 58
1, 397033, Control_c, 0, 67, 37
1, 397048, Note_on_c, 0, 59, 59
1, 397048, Control_c, 0, 64, 62
1, 397048, Control_c, 0, 67, 38
1, 397059, Note_on_c, 0, 65, 43
1, 397063, Control_c, 0, 64, 61
1, 397063, Control_c, 0, 67, 39
1, 397071, Note_off_c, 0, 57, 57
1, 397075, Note_on_c, 0, 64, 29
1, 397077, Control_c, 0, 64, 58
1, 397077, Control_c, 0, 67, 40
1, 397092, Control_c, 0, 64, 53
1, 397092, Control_c, 0, 67, 56
1, 397112, Poly_aftertouch_c, 0, 60, 127
1, 397114, Control_c, 0, 64, 49
1, 397114, Control_c, 0, 67, 75
1, 397129, Control_c, 0, 64, 45
1, 397129, Control_c, 0, 67, 89
1, 397144, Control_c, 0, 64, 43
1, 397144, Control_c, 0, 67, 96
1, 397158, Control_c, 0, 64, 43
1, 397158, Control_c, 0, 67, 100
1, 397188, Control_c, 0, 64, 43
1, 397188, Control_c, 0, 67, 102
1, 397203, Control_c, 0, 64, 45
1, 397218, Control_c, 0, 64, 48
1, 397232, Control_c, 0, 64, 52
1, 397247, Control_c, 0, 64, 56
1, 397253, Note_off_c, 0, 65, 35
1, 397262, Control_c, 0, 64, 59
1, 397267, Note_on_c, 0, 57, 56
1, 397269, Poly_aftertouch_c, 0, 60, 0
1, 397277, Control_c, 0, 64, 60
1, 397277, Control_c, 0, 67, 104
1, 397279, Note_on_c, 0, 62, 41
1, 397290, Note_off_c, 0, 64, 43
1, 397292, Control_c, 0, 64, 61
1, 397299, Note_off_c, 0, 59, 55
1, 397307, Control_c, 0, 64, 62
1, 397307, Control_c, 0, 67, 106
1, 397322, Control_c, 0, 64, 62
1, 397337, Control_c, 0, 67, 121
1, 397351, Control_c, 0, 67, 127
1, 397396, Control_c, 0, 64, 61
1, 397410, Control_c, 0, 64, 60
1, 397426, Control_c, 0, 64, 59
1, 397441, Control_c, 0, 64, 57
1, 397448, Note_off_c, 0, 62, 54
1, 397456, Control_c, 0, 64, 54
1, 397471, Control_c, 0, 64, 53
1, 397483, Note_on_c, 0, 65, 44
1, 397486, Control_c, 0, 64, 53
1, 397500, Control_c, 0, 64, 52
1, 397501, Note_on_c, 0, 64, 33
1, 397525, Note_on_c, 0, 60, 12
1, 397560, Control_c, 0, 64, 53
1, 397604, Control_c, 0, 64, 53
1, 397633, Control_c, 0, 64, 54
1, 397663, Control_c, 0, 64, 54
1, 397710, Note_on_c, 0, 55, 51
1, 397719, Note_off_c, 0, 65, 32
1, 397724, Note_on_c, 0, 62, 38
1, 397754, Note_off_c, 0, 64, 45
1, 397764, Note_off_c, 0, 57, 59
1, 397768, Note_off_c, 0, 60, 42
1, 397907, Control_c, 0, 64, 54
1, 397922, Control_c, 0, 64, 52
1, 397937, Control_c, 0, 64, 50
1, 397952, Control_c, 0, 64, 47
1, 397967, Control_c, 0, 64, 44
1, 397970, Note_on_c, 0, 53, 52
1, 397978, Note_on_c, 0, 64, 32
1, 397979, Note_on_c, 0, 69, 27
1, 397981, Control_c, 0, 64, 41
1, 397987, Note_off_c, 0, 62, 37
1, 397996, Control_c, 0, 64, 40
1, 397997, Note_off_c, 0, 55, 58
1, 398002, Poly_aftertouch_c, 0, 60, 127
1, 398040, Control_c, 0, 64, 41
1, 398055, Control_c, 0, 64, 44
1, 398070, Control_c, 0, 64, 48
1, 398085, Control_c, 0, 64, 53
1, 398100, Control_c, 0, 64, 56
1, 398115, Control_c, 0, 64, 57
1, 398159, Control_c, 0, 64, 57
1, 398174, Note_off_c, 0, 53, 61
1, 398182, Note_on_c, 0, 62, 41
1, 398191, Poly_aftertouch_c, 0, 60, 0
1, 398192, Note_on_c, 0, 55, 44
1, 398192, Note_off_c, 0, 69, 45
1, 398201, Note_off_c, 0, 64, 44
1, 398264, Control_c, 0, 64, 58
1, 398294, Control_c, 0, 64, 57
1, 398309, Control_c, 0, 64, 54
1, 398323, Control_c, 0, 64, 50
1, 398338, Control_c, 0, 64, 46
1, 398353, Control_c, 0, 64, 44
1, 398371, Note_off_c, 0, 62, 52
1, 398383, Control_c, 0, 64, 44
1, 398389, Note_off_c, 0, 55, 48
1, 398392, Note_on_c, 0, 69, 38
1, 398393, Note_on_c, 0, 53, 48
1, 398397, Control_c, 0, 64, 47
1, 398402, Note_on_c, 0, 64, 31
1, 398412, Control_c, 0, 64, 53
1, 398427, Control_c, 0, 64, 57
1, 398441, Control_c, 0, 64, 60
1, 398447, Poly_aftertouch_c, 0, 60, 127
1, 398456, Control_c, 0, 64, 61
1, 398471, Control_c, 0, 64, 62
1, 398486, Note_off_c, 0, 53, 63
1, 398486, Control_c, 0, 64, 63
1, 398501, Control_c, 0, 64, 64
1, 398515, Control_c, 0, 64, 65
1, 398530, Control_c, 0, 64, 65
1, 398575, Control_c, 0, 64, 65
1, 398597, Note_on_c, 0, 41, 62
1, 398597, Control_c, 0, 64, 62
1, 398612, Poly_aftertouch_c, 0, 60, 0
1, 398612, Control_c, 0, 64, 56
1, 398627, Control_c, 0, 64, 50
1, 398627, Note_on_c, 0, 62, 39
1, 398636, Note_off_c, 0, 69, 36
1, 398642, Control_c, 0, 64, 48
1, 398644, Note_off_c, 0, 64, 45
1, 398656, Control_c, 0, 64, 49
1, 398671, Control_c, 0, 64, 51
1, 398686, Control_c, 0, 64, 56
1, 398701, Control_c, 0, 64, 60
1, 398716, Control_c, 0, 64, 62
1, 398730, Control_c, 0, 64, 63
1, 398745, Control_c, 0, 64, 64
1, 398753, Note_off_c, 0, 41, 63
1, 398760, Control_c, 0, 64, 64
1, 398789, Note_on_c, 0, 53, 66
1, 398789, Control_c, 0, 64, 65
1, 398791, Note_on_c, 0, 69, 51
1, 398793, Note_off_c, 0, 62, 57
1, 398804, Control_c, 0, 64, 65
1, 398804, Control_c, 0, 67, 120
1, 398806, Note_on_c, 0, 64, 34
1, 398819, Control_c, 0, 67, 112
1, 398829, Note_on_c, 0, 60, 19
1, 398834, Control_c, 0, 64, 66
1, 398834, Control_c, 0, 67, 103
1, 398848, Control_c, 0, 64, 66
1, 398848, Control_c, 0, 67, 92
1, 398863, Control_c, 0, 67, 82
1, 398878, Control_c, 0, 67, 73
1, 398893, Control_c, 0, 67, 68
1, 398908, Control_c, 0, 67, 65
1, 398923, Control_c, 0, 67, 63
1, 398938, Control_c, 0, 67, 62
1, 398952, Control_c, 0, 67, 60
1, 398967, Control_c, 0, 67, 57
1, 398973, Note_on_c, 0, 55, 71
1, 398980, Note_off_c, 0, 53, 63
1, 398982, Control_c, 0, 67, 54
1, 398987, Note_on_c, 0, 62, 55
1, 398988, Note_off_c, 0, 60, 42
1, 398997, Control_c, 0, 67, 48
1, 399000, Note_off_c, 0, 69, 48
1, 399012, Control_c, 0, 67, 43
1, 399027, Control_c, 0, 67, 39
1, 399042, Control_c, 0, 67, 38
1, 399051, Note_off_c, 0, 64, 41
1, 399072, Control_c, 0, 67, 37
1, 399146, Control_c, 0, 64, 66
1, 399161, Control_c, 0, 64, 63
1, 399176, Control_c, 0, 64, 58
1, 399179, Note_on_c, 0, 57, 72
1, 399181, Note_off_c, 0, 62, 60
1, 399191, Control_c, 0, 64, 49
1, 399199, Note_on_c, 0, 64, 41
1, 399200, Note_on_c, 0, 65, 49
1, 399206, Control_c, 0, 64, 39
1, 399220, Control_c, 0, 64, 29
1, 399221, Note_on_c, 0, 60, 20
1, 399223, Note_off_c, 0, 55, 59
1, 399235, Control_c, 0, 64, 0
1, 399235, Control_c, 0, 67, 0
1, 399264, Control_c, 0, 64, 34
1, 399279, Control_c, 0, 64, 42
1, 399294, Control_c, 0, 64, 51
1, 399309, Control_c, 0, 64, 58
1, 399324, Control_c, 0, 64, 61
1, 399346, Control_c, 0, 64, 62
1, 399361, Control_c, 0, 64, 63
1, 399369, Note_off_c, 0, 60, 43
1, 399376, Control_c, 0, 64, 63
1, 399391, Control_c, 0, 64, 64
1, 399396, Note_on_c, 0, 62, 54
1, 399405, Control_c, 0, 64, 65
1, 399420, Note_off_c, 0, 65, 37
1, 399420, Control_c, 0, 64, 66
1, 399428, Note_off_c, 0, 64, 37
1, 399435, Control_c, 0, 64, 67
1, 399450, Control_c, 0, 64, 67
1, 399465, Control_c, 0, 64, 68
1, 399539, Control_c, 0, 64, 67
1, 399544, Note_off_c, 0, 62, 62
1, 399553, Control_c, 0, 64, 64
1, 399555, Note_on_c, 0, 59, 76
1, 399568, Control_c, 0, 64, 58
1, 399578, Note_on_c, 0, 64, 47
1, 399583, Note_on_c, 0, 65, 46
1, 399583, Control_c, 0, 64, 51
1, 399594, Note_off_c, 0, 57, 59
1, 399597, Control_c, 0, 64, 50
1, 399612, Control_c, 0, 64, 51
1, 399627, Control_c, 0, 64, 55
1, 399642, Control_c, 0, 64, 60
1, 399654, Poly_aftertouch_c, 0, 60, 0
1, 399657, Control_c, 0, 64, 63
1, 399671, Control_c, 0, 64, 65
1, 399686, Control_c, 0, 64, 66
1, 399701, Control_c, 0, 64, 66
1, 399745, Control_c, 0, 64, 64
1, 399757, Note_on_c, 0, 60, 72
1, 399760, Control_c, 0, 64, 58
1, 399764, Note_off_c, 0, 59, 63
1, 399771, Note_off_c, 0, 64, 56
1, 399775, Note_off_c, 0, 65, 37
1, 399775, Control_c, 0, 64, 50
1, 399787, Note_on_c, 0, 62, 58
1, 399790, Control_c, 0, 64, 47
1, 399805, Control_c, 0, 64, 47
1, 399820, Control_c, 0, 64, 52
1, 399835, Control_c, 0, 64, 60
1, 399850, Control_c, 0, 64, 64
1, 399865, Control_c, 0, 64, 66
1, 399880, Control_c, 0, 64, 67
1, 399894, Control_c, 0, 64, 68
1, 399904, Note_off_c, 0, 60, 62
1, 399909, Control_c, 0, 64, 68
1, 399924, Control_c, 0, 64, 69
1, 399925, Note_off_c, 0, 62, 54
1, 399961, Note_on_c, 0, 64, 44
1, 399967, Note_on_c, 0, 65, 44
1, 399990, Poly_aftertouch_c, 0, 60, 127
1, 400124, Control_c, 0, 64, 68
1, 400137, Note_on_c, 0, 59, 70
1, 400139, Control_c, 0, 64, 66
1, 400154, Control_c, 0, 64, 65
1, 400157, Note_on_c, 0, 62, 51
1, 400157, Poly_aftertouch_c, 0, 60, 0
1, 400169, Control_c, 0, 64, 64
1, 400180, Note_off_c, 0, 65, 33
1, 400196, Note_off_c, 0, 64, 33
1, 400258, Control_c, 0, 64, 64
1, 400273, Control_c, 0, 64, 62
1, 400288, Control_c, 0, 64, 58
1, 400302, Control_c, 0, 64, 54
1, 400317, Control_c, 0, 64, 50
1, 400325, Note_off_c, 0, 62, 59
1, 400332, Control_c, 0, 64, 49
1, 400339, Note_on_c, 0, 57, 67
1, 400345, Note_on_c, 0, 64, 47
1, 400347, Control_c, 0, 64, 50
1, 400359, Note_on_c, 0, 65, 41
1, 400361, Note_off_c, 0, 59, 60
1, 400362, Control_c, 0, 64, 52
1, 400369, Note_on_c, 0, 60, 15
1, 400376, Control_c, 0, 64, 55
1, 400391, Control_c, 0, 64, 57
1, 400406, Control_c, 0, 64, 58
1, 400420, Control_c, 0, 64, 59
1, 400450, Control_c, 0, 64, 59
1, 400465, Control_c, 0, 64, 60
1, 400480, Control_c, 0, 64, 60
1, 400494, Control_c, 0, 64, 61
1, 400524, Control_c, 0, 64, 61
1, 400532, Note_off_c, 0, 60, 40
1, 400533, Note_off_c, 0, 57, 64
1, 400538, Control_c, 0, 64, 62
1, 400541, Note_on_c, 0, 59, 79
1, 400541, Note_on_c, 0, 62, 57
1, 400553, Control_c, 0, 64, 63
1, 400566, Note_off_c, 0, 65, 36
1, 400568, Control_c, 0, 64, 63
1, 400578, Note_off_c, 0, 64, 37
1, 400583, Control_c, 0, 64, 64
1, 400598, Control_c, 0, 64, 64
1, 400629, Control_c, 0, 64, 65
1, 400643, Control_c, 0, 64, 65
1, 400673, Control_c, 0, 64, 66
1, 400703, Control_c, 0, 64, 65
1, 400717, Control_c, 0, 64, 65
1, 400730, Note_on_c, 0, 57, 76
1, 400732, Control_c, 0, 64, 63
1, 400737, Note_off_c, 0, 62, 55
1, 400741, Note_on_c, 0, 65, 53
1, 400743, Note_on_c, 0, 64, 48
1, 400747, Control_c, 0, 64, 61
1, 400762, Control_c, 0, 64, 61
1, 400767, Note_off_c, 0, 59, 54
1, 400792, Control_c, 0, 64, 61
1, 400796, Poly_aftertouch_c, 0, 60, 127
1, 400807, Control_c, 0, 64, 62
1, 400821, Control_c, 0, 64, 64
1, 400836, Control_c, 0, 64, 65
1, 400858, Control_c, 0, 64, 65
1, 400903, Control_c, 0, 64, 65
1, 400918, Control_c, 0, 64, 63
1, 400929, Note_off_c, 0, 65, 35
1, 400932, Control_c, 0, 64, 59
1, 400939, Note_on_c, 0, 55, 81
1, 400947, Control_c, 0, 64, 54
1, 400951, Poly_aftertouch_c, 0, 60, 0
1, 400955, Note_on_c, 0, 62, 57
1, 400962, Control_c, 0, 64, 49
1, 400977, Control_c, 0, 64, 48
1, 400980, Note_off_c, 0, 64, 54
1, 400983, Note_off_c, 0, 57, 59
1, 400992, Control_c, 0, 64, 49
1, 401006, Control_c, 0, 64, 52
1, 401021, Control_c, 0, 64, 56
1, 401036, Control_c, 0, 64, 60
1, 401051, Control_c, 0, 64, 62
1, 401066, Control_c, 0, 64, 65
1, 401081, Control_c, 0, 64, 66
1, 401096, Control_c, 0, 64, 67
1, 401111, Control_c, 0, 64, 68
1, 401140, Control_c, 0, 64, 67
1, 401149, Note_off_c, 0, 62, 59
1, 401154, Note_on_c, 0, 53, 79
1, 401155, Control_c, 0, 64, 64
1, 401163, Note_on_c, 0, 64, 44
1, 401169, Control_c, 0, 64, 53
1, 401176, Note_on_c, 0, 69, 55
1, 401182, Note_off_c, 0, 55, 61
1, 401184, Control_c, 0, 64, 40
1, 401199, Control_c, 0, 64, 29
1, 401214, Control_c, 0, 64, 0
1, 401229, Control_c, 0, 64, 33
1, 401231, Poly_aftertouch_c, 0, 60, 127
1, 401243, Control_c, 0, 64, 43
1, 401258, Control_c, 0, 64, 51
1, 401273, Control_c, 0, 64, 58
1, 401288, Control_c, 0, 64, 61
1, 401290, Poly_aftertouch_c, 0, 60, 0
1, 401303, Control_c, 0, 64, 63
1, 401317, Control_c, 0, 64, 64
1, 401332, Control_c, 0, 64, 65
1, 401347, Control_c, 0, 64, 66
1, 401361, Control_c, 0, 64, 68
1, 401364, Note_off_c, 0, 69, 56
1, 401376, Control_c, 0, 64, 70
1, 401379, Note_on_c, 0, 57, 82
1, 401383, Note_off_c, 0, 53, 63
1, 401391, Control_c, 0, 64, 71
1, 401399, Note_on_c, 0, 62, 71
1, 401405, Note_off_c, 0, 64, 63
1, 401406, Control_c, 0, 64, 72
1, 401422, Control_c, 0, 64, 73
1, 401437, Control_c, 0, 64, 74
1, 401452, Control_c, 0, 64, 74
1, 401466, Control_c, 0, 64, 75
1, 401490, Note_off_c, 0, 62, 62
1, 401498, Note_off_c, 0, 57, 62
1, 401525, Note_on_c, 0, 47, 70
1, 401526, Control_c, 0, 64, 75
1, 401637, Control_c, 0, 64, 75
1, 401667, Control_c, 0, 64, 74
1, 401681, Control_c, 0, 64, 70
1, 401694, Note_on_c, 0, 65, 73
1, 401696, Control_c, 0, 64, 64
1, 401699, Note_on_c, 0, 60, 80
1, 401711, Control_c, 0, 64, 53
1, 401712, Note_on_c, 0, 64, 63
1, 401726, Control_c, 0, 64, 41
1, 401728, Note_on_c, 0, 57, 42
1, 401741, Control_c, 0, 64, 0
1, 401825, Note_off_c, 0, 57, 0
1, 401844, Control_c, 0, 64, 40
1, 401859, Control_c, 0, 64, 53
1, 401862, Poly_aftertouch_c, 0, 57, 127
1, 401874, Control_c, 0, 64, 62
1, 401889, Control_c, 0, 64, 64
1, 401904, Control_c, 0, 64, 64
1, 401918, Control_c, 0, 64, 65
1, 401933, Control_c, 0, 64, 66
1, 401935, Note_off_c, 0, 65, 58
1, 401948, Control_c, 0, 64, 67
1, 401949, Note_on_c, 0, 63, 61
1, 401963, Control_c, 0, 64, 68
1, 401978, Control_c, 0, 64, 69
1, 401992, Control_c, 0, 64, 70
1, 401996, Poly_aftertouch_c, 0, 57, 0
1, 402001, Note_off_c, 0, 64, 39
1, 402007, Note_off_c, 0, 60, 54
1, 402007, Control_c, 0, 64, 71
1, 402022, Control_c, 0, 64, 71
1, 402037, Control_c, 0, 64, 72
1, 402125, Note_on_c, 0, 64, 42
1, 402126, Control_c, 0, 64, 71
1, 402130, Note_on_c, 0, 59, 79
1, 402139, Note_on_c, 0, 67, 69
1, 402140, Control_c, 0, 64, 66
1, 402155, Note_off_c, 0, 63, 36
1, 402155, Control_c, 0, 64, 57
1, 402163, Note_on_c, 0, 57, 29
1, 402170, Control_c, 0, 64, 47
1, 402184, Control_c, 0, 64, 44
1, 402199, Control_c, 0, 64, 44
1, 402215, Control_c, 0, 64, 49
1, 402230, Control_c, 0, 64, 55
1, 402242, Note_off_c, 0, 57, 0
1, 402245, Control_c, 0, 64, 60
1, 402260, Control_c, 0, 64, 63
1, 402275, Control_c, 0, 64, 65
1, 402279, Poly_aftertouch_c, 0, 57, 127
1, 402289, Control_c, 0, 64, 65
1, 402319, Control_c, 0, 64, 64
1, 402342, Control_c, 0, 64, 61
1, 402357, Control_c, 0, 64, 53
1, 402371, Control_c, 0, 64, 46
1, 402380, Poly_aftertouch_c, 0, 57, 0
1, 402383, Note_on_c, 0, 58, 75
1, 402386, Control_c, 0, 64, 42
1, 402395, Note_on_c, 0, 63, 60
1, 402401, Control_c, 0, 64, 42
1, 402416, Control_c, 0, 64, 47
1, 402422, Note_off_c, 0, 59, 53
1, 402430, Control_c, 0, 64, 54
1, 402445, Control_c, 0, 64, 59
1, 402460, Control_c, 0, 64, 62
1, 402464, Note_off_c, 0, 67, 59
1, 402475, Control_c, 0, 64, 64
1, 402489, Control_c, 0, 64, 65
1, 402498, Note_off_c, 0, 64, 36
1, 402504, Control_c, 0, 64, 66
1, 402519, Control_c, 0, 64, 67
1, 402534, Control_c, 0, 64, 67
1, 402611, Note_on_c, 0, 64, 51
1, 402630, Note_on_c, 0, 66, 69
1, 402655, Note_on_c, 0, 60, 39
1, 402682, Note_off_c, 0, 63, 32
1, 402771, Control_c, 0, 64, 68
1, 402801, Control_c, 0, 64, 68
1, 402815, Control_c, 0, 64, 69
1, 402830, Control_c, 0, 64, 69
1, 402842, Note_off_c, 0, 60, 17
1, 402860, Control_c, 0, 64, 68
1, 402875, Control_c, 0, 64, 65
1, 402886, Note_on_c, 0, 57, 68
1, 402889, Control_c, 0, 64, 62
1, 402893, Note_off_c, 0, 58, 63
1, 402904, Control_c, 0, 64, 60
1, 402908, Note_on_c, 0, 63, 64
1, 402919, Control_c, 0, 64, 61
1, 402934, Control_c, 0, 64, 63
1, 402947, Note_off_c, 0, 64, 60
1, 402948, Control_c, 0, 64, 65
1, 402963, Control_c, 0, 64, 68
1, 402978, Control_c, 0, 64, 71
1, 402982, Note_off_c, 0, 66, 55
1, 402993, Control_c, 0, 64, 74
1, 403004, Note_off_c, 0, 47, 61
1, 403009, Control_c, 0, 64, 75
1, 403023, Note_off_c, 0, 57, 62
1, 403024, Control_c, 0, 64, 76
1, 403038, Control_c, 0, 64, 77
1, 403053, Control_c, 0, 64, 78
1, 403068, Control_c, 0, 64, 78
1, 403090, Control_c, 0, 64, 79
1, 403150, Control_c, 0, 64, 79
1, 403215, Note_on_c, 0, 35, 60
1, 403224, Note_off_c, 0, 63, 31
1, 403238, Control_c, 0, 64, 79
1, 403283, Control_c, 0, 64, 78
1, 403288, Note_on_c, 0, 63, 48
1, 403296, Note_on_c, 0, 61, 64
1, 403298, Control_c, 0, 64, 75
1, 403312, Control_c, 0, 64, 69
1, 403314, Note_on_c, 0, 64, 56
1, 403327, Control_c, 0, 64, 62
1, 403342, Control_c, 0, 64, 55
1, 403357, Control_c, 0, 64, 49
1, 403371, Control_c, 0, 64, 43
1, 403386, Control_c, 0, 64, 37
1, 403401, Control_c, 0, 64, 32
1, 403416, Control_c, 0, 64, 0
1, 403609, Control_c, 0, 64, 31
1, 403623, Control_c, 0, 64, 35
1, 403638, Control_c, 0, 64, 40
1, 403647, Note_on_c, 0, 59, 68
1, 403653, Control_c, 0, 64, 46
1, 403668, Control_c, 0, 64, 52
1, 403683, Control_c, 0, 64, 57
1, 403698, Note_off_c, 0, 61, 59
1, 403698, Control_c, 0, 64, 59
1, 403707, Note_off_c, 0, 63, 51
1, 403712, Control_c, 0, 64, 60
1, 403727, Control_c, 0, 64, 61
1, 403742, Control_c, 0, 64, 62
1, 403757, Control_c, 0, 64, 63
1, 403771, Control_c, 0, 64, 64
1, 403786, Control_c, 0, 64, 64
1, 403801, Control_c, 0, 64, 65
1, 403854, Control_c, 0, 64, 63
1, 403868, Control_c, 0, 64, 58
1, 403883, Control_c, 0, 64, 46
1, 403888, Note_on_c, 0, 57, 58
1, 403889, Note_on_c, 0, 47, 51
1, 403898, Control_c, 0, 64, 30
1, 403913, Control_c, 0, 64, 0
1, 403916, Note_off_c, 0, 59, 63
1, 403942, Control_c, 0, 64, 32
1, 403957, Control_c, 0, 64, 45
1, 403972, Control_c, 0, 64, 56
1, 403987, Control_c, 0, 64, 62
1, 403992, Note_off_c, 0, 35, 61
1, 404002, Control_c, 0, 64, 64
1, 404017, Control_c, 0, 64, 65
1, 404032, Control_c, 0, 64, 65
1, 404047, Control_c, 0, 64, 66
1, 404061, Control_c, 0, 64, 67
1, 404076, Control_c, 0, 64, 68
1, 404091, Control_c, 0, 64, 69
1, 404106, Control_c, 0, 64, 70
1, 404109, Note_on_c, 0, 56, 69
1, 404121, Control_c, 0, 64, 71
1, 404135, Control_c, 0, 64, 73
1, 404150, Note_off_c, 0, 57, 62
1, 404150, Control_c, 0, 64, 75
1, 404155, Note_off_c, 0, 64, 65
1, 404165, Control_c, 0, 64, 76
1, 404180, Control_c, 0, 64, 77
1, 404181, Note_off_c, 0, 56, 63
1, 404194, Control_c, 0, 64, 78
1, 404209, Control_c, 0, 64, 79
1, 404224, Control_c, 0, 64, 80
1, 404239, Control_c, 0, 64, 80
1, 404339, Note_on_c, 0, 59, 54
1, 404354, Note_on_c, 0, 66, 73
1, 404369, Note_on_c, 0, 64, 64
1, 404426, Note_off_c, 0, 47, 63
1, 404428, Note_off_c, 0, 59, 60
1, 404542, Note_on_c, 0, 68, 82
1, 404545, Note_on_c, 0, 63, 68
1, 404653, Note_off_c, 0, 63, 59
1, 404743, Note_off_c, 0, 68, 59
1, 404755, Note_on_c, 0, 40, 52
1, 404789, Note_on_c, 0, 69, 81
1, 404795, Control_c, 0, 64, 78
1, 404804, Note_on_c, 0, 61, 64
1, 404810, Control_c, 0, 64, 72
1, 404824, Note_off_c, 0, 66, 62
1, 404825, Control_c, 0, 64, 63
1, 404831, Note_off_c, 0, 64, 46
1, 404840, Control_c, 0, 64, 43
1, 404855, Control_c, 0, 64, 0
1, 404944, Control_c, 0, 64, 41
1, 404958, Control_c, 0, 64, 56
1, 404973, Control_c, 0, 64, 63
1, 404988, Control_c, 0, 64, 65
1, 405001, Note_on_c, 0, 46, 52
1, 405003, Control_c, 0, 64, 65
1, 405017, Control_c, 0, 64, 66
1, 405032, Control_c, 0, 64, 67
1, 405047, Control_c, 0, 64, 68
1, 405050, Note_off_c, 0, 61, 62
1, 405062, Control_c, 0, 64, 69
1, 405077, Control_c, 0, 64, 69
1, 405121, Control_c, 0, 64, 70
1, 405169, Note_off_c, 0, 69, 41
1, 405178, Note_on_c, 0, 71, 78
1, 405180, Note_on_c, 0, 47, 54
1, 405186, Note_on_c, 0, 63, 60
1, 405195, Note_off_c, 0, 40, 35
1, 405197, Note_off_c, 0, 46, 30
1, 405254, Control_c, 0, 64, 70
1, 405256, Note_off_c, 0, 47, 63
1, 405299, Control_c, 0, 64, 71
1, 405361, Note_off_c, 0, 63, 38
1, 405379, Note_on_c, 0, 68, 77
1, 405380, Control_c, 0, 64, 70
1, 405383, Note_on_c, 0, 58, 54
1, 405390, Note_on_c, 0, 59, 55
1, 405393, Note_off_c, 0, 71, 60
1, 405395, Control_c, 0, 64, 66
1, 405410, Control_c, 0, 64, 57
1, 405426, Control_c, 0, 64, 41
1, 405440, Control_c, 0, 64, 0
1, 405500, Control_c, 0, 64, 39
1, 405514, Control_c, 0, 64, 51
1, 405528, Control_c, 0, 64, 61
1, 405543, Control_c, 0, 64, 64
1, 405558, Control_c, 0, 64, 66
1, 405572, Note_on_c, 0, 47, 49
1, 405572, Control_c, 0, 64, 67
1, 405587, Control_c, 0, 64, 68
1, 405594, Note_off_c, 0, 59, 56
1, 405602, Control_c, 0, 64, 70
1, 405617, Control_c, 0, 64, 71
1, 405624, Note_off_c, 0, 58, 37
1, 405632, Control_c, 0, 64, 72
1, 405661, Control_c, 0, 64, 72
1, 405706, Control_c, 0, 64, 73
1, 405714, Note_off_c, 0, 47, 33
1, 405752, Note_on_c, 0, 69, 75
1, 405758, Note_off_c, 0, 68, 57
1, 405758, Note_on_c, 0, 59, 53
1, 405770, Note_on_c, 0, 61, 53
1, 405795, Note_off_c, 0, 59, 65
1, 405809, Control_c, 0, 64, 73
1, 405844, Note_off_c, 0, 69, 60
1, 405852, Note_off_c, 0, 61, 46
1, 405928, Control_c, 0, 64, 73
1, 405943, Control_c, 0, 64, 71
1, 405957, Control_c, 0, 64, 64
1, 405958, Note_on_c, 0, 66, 68
1, 405971, Note_on_c, 0, 40, 43
1, 405972, Control_c, 0, 64, 52
1, 405978, Note_on_c, 0, 63, 52
1, 405987, Note_on_c, 0, 61, 54
1, 405987, Control_c, 0, 64, 31
1, 406002, Control_c, 0, 64, 0
1, 406046, Control_c, 0, 64, 33
1, 406061, Control_c, 0, 64, 47
1, 406083, Control_c, 0, 64, 58
1, 406098, Control_c, 0, 64, 63
1, 406113, Control_c, 0, 64, 65
1, 406127, Control_c, 0, 64, 66
1, 406142, Control_c, 0, 64, 67
1, 406144, Note_off_c, 0, 61, 61
1, 406157, Control_c, 0, 64, 68
1, 406160, Note_off_c, 0, 63, 62
1, 406160, Note_off_c, 0, 66, 63
1, 406172, Control_c, 0, 64, 70
1, 406176, Note_on_c, 0, 59, 56
1, 406187, Control_c, 0, 64, 70
1, 406202, Control_c, 0, 64, 71
1, 406217, Control_c, 0, 64, 72
1, 406232, Control_c, 0, 64, 72
1, 406277, Control_c, 0, 64, 73
1, 406348, Note_off_c, 0, 59, 50
1, 406365, Note_on_c, 0, 64, 62
1, 406366, Control_c, 0, 64, 71
1, 406375, Note_on_c, 0, 57, 52
1, 406381, Control_c, 0, 64, 65
1, 406391, Note_on_c, 0, 47, 42
1, 406396, Control_c, 0, 64, 57
1, 406411, Control_c, 0, 64, 52
1, 406426, Control_c, 0, 64, 52
1, 406440, Control_c, 0, 64, 55
1, 406455, Control_c, 0, 64, 60
1, 406470, Control_c, 0, 64, 64
1, 406485, Control_c, 0, 64, 66
1, 406490, Note_off_c, 0, 40, 34
1, 406500, Control_c, 0, 64, 68
1, 406515, Control_c, 0, 64, 69
1, 406530, Control_c, 0, 64, 70
1, 406542, Note_off_c, 0, 57, 64
1, 406544, Control_c, 0, 64, 70
1, 406572, Note_off_c, 0, 64, 65
1, 406573, Note_on_c, 0, 56, 52
1, 406574, Control_c, 0, 64, 71
1, 406634, Note_off_c, 0, 56, 62
1, 406768, Note_on_c, 0, 59, 49
1, 406769, Note_on_c, 0, 66, 68
1, 406783, Note_on_c, 0, 64, 49
1, 406841, Note_off_c, 0, 59, 53
1, 406965, Note_on_c, 0, 68, 71
1, 406981, Note_on_c, 0, 63, 53
1, 407048, Note_off_c, 0, 63, 53
1, 407145, Note_off_c, 0, 68, 62
1, 407174, Control_c, 0, 64, 70
1, 407184, Note_off_c, 0, 64, 15
1, 407189, Note_on_c, 0, 40, 37
1, 407189, Control_c, 0, 64, 66
1, 407195, Note_on_c, 0, 69, 65
1, 407204, Control_c, 0, 64, 60
1, 407218, Control_c, 0, 64, 52
1, 407219, Note_on_c, 0, 61, 40
1, 407222, Note_off_c, 0, 66, 46
1, 407227, Note_off_c, 0, 47, 47
1, 407233, Control_c, 0, 64, 41
1, 407248, Control_c, 0, 64, 0
1, 407337, Control_c, 0, 64, 39
1, 407352, Control_c, 0, 64, 52
1, 407367, Control_c, 0, 64, 60
1, 407382, Control_c, 0, 64, 63
1, 407397, Control_c, 0, 64, 64
1, 407408, Note_on_c, 0, 46, 43
1, 407411, Control_c, 0, 64, 64
1, 407426, Control_c, 0, 64, 65
1, 407441, Note_off_c, 0, 61, 60
1, 407441, Control_c, 0, 64, 66
1, 407456, Control_c, 0, 64, 66
1, 407471, Control_c, 0, 64, 67
1, 407500, Control_c, 0, 64, 67
1, 407532, Note_off_c, 0, 46, 54
1, 407541, Note_off_c, 0, 40, 42
1, 407543, Note_off_c, 0, 69, 38
1, 407564, Note_on_c, 0, 71, 67
1, 407576, Note_on_c, 0, 47, 51
1, 407590, Note_on_c, 0, 63, 48
1, 407626, Control_c, 0, 64, 68
1, 407640, Note_off_c, 0, 47, 61
1, 407745, Note_off_c, 0, 63, 36
1, 407759, Control_c, 0, 64, 67
1, 407767, Note_on_c, 0, 68, 64
1, 407769, Note_on_c, 0, 58, 51
1, 407774, Control_c, 0, 64, 63
1, 407780, Note_on_c, 0, 59, 42
1, 407785, Note_off_c, 0, 71, 50
1, 407789, Control_c, 0, 64, 53
1, 407805, Control_c, 0, 64, 31
1, 407820, Control_c, 0, 64, 0
1, 407879, Control_c, 0, 64, 41
1, 407894, Control_c, 0, 64, 56
1, 407908, Control_c, 0, 64, 63
1, 407923, Control_c, 0, 64, 65
1, 407938, Control_c, 0, 64, 66
1, 407952, Control_c, 0, 64, 66
1, 407955, Note_off_c, 0, 58, 53
1, 407956, Note_on_c, 0, 47, 49
1, 407967, Control_c, 0, 64, 67
1, 407982, Control_c, 0, 64, 69
1, 407997, Control_c, 0, 64, 70
1, 407999, Note_off_c, 0, 59, 42
1, 408027, Control_c, 0, 64, 70
1, 408056, Control_c, 0, 64, 71
1, 408086, Control_c, 0, 67, 43
1, 408101, Control_c, 0, 67, 56
1, 408115, Note_off_c, 0, 68, 38
1, 408116, Control_c, 0, 67, 70
1, 408120, Note_off_c, 0, 47, 31
1, 408131, Control_c, 0, 67, 77
1, 408143, Note_on_c, 0, 69, 62
1, 408146, Control_c, 0, 67, 82
1, 408155, Note_on_c, 0, 59, 58
1, 408160, Control_c, 0, 67, 83
1, 408162, Note_on_c, 0, 61, 42
1, 408175, Control_c, 0, 67, 84
1, 408183, Note_off_c, 0, 69, 62
1, 408184, Note_off_c, 0, 59, 66
1, 408205, Control_c, 0, 67, 85
1, 408223, Note_off_c, 0, 61, 59
1, 408234, Control_c, 0, 67, 85
1, 408249, Control_c, 0, 67, 86
1, 408323, Control_c, 0, 67, 85
1, 408345, Control_c, 0, 64, 69
1, 408345, Control_c, 0, 67, 85
1, 408360, Control_c, 0, 64, 65
1, 408360, Control_c, 0, 67, 83
1, 408375, Note_on_c, 0, 66, 66
1, 408375, Control_c, 0, 64, 55
1, 408375, Control_c, 0, 67, 83
1, 408378, Note_on_c, 0, 40, 43
1, 408390, Control_c, 0, 64, 39
1, 408390, Control_c, 0, 67, 82
1, 408396, Note_on_c, 0, 61, 26
1, 408405, Control_c, 0, 64, 0
1, 408405, Control_c, 0, 67, 81
1, 408408, Note_on_c, 0, 63, 36
1, 408420, Control_c, 0, 67, 81
1, 408434, Control_c, 0, 67, 80
1, 408449, Control_c, 0, 64, 35
1, 408449, Control_c, 0, 67, 79
1, 408464, Control_c, 0, 64, 46
1, 408464, Control_c, 0, 67, 78
1, 408479, Control_c, 0, 64, 56
1, 408479, Control_c, 0, 67, 77
1, 408494, Control_c, 0, 64, 62
1, 408494, Control_c, 0, 67, 77
1, 408508, Control_c, 0, 64, 64
1, 408508, Control_c, 0, 67, 76
1, 408523, Control_c, 0, 64, 64
1, 408523, Control_c, 0, 67, 75
1, 408533, Note_off_c, 0, 63, 58
1, 408536, Note_off_c, 0, 61, 56
1, 408538, Control_c, 0, 64, 65
1, 408538, Control_c, 0, 67, 75
1, 408553, Control_c, 0, 64, 65
1, 408553, Control_c, 0, 67, 74
1, 408554, Note_off_c, 0, 66, 63
1, 408567, Control_c, 0, 64, 66
1, 408573, Note_on_c, 0, 59, 50
1, 408582, Control_c, 0, 64, 66
1, 408582, Control_c, 0, 67, 73
1, 408597, Control_c, 0, 64, 67
1, 408613, Control_c, 0, 64, 67
1, 408613, Control_c, 0, 67, 73
1, 408628, Control_c, 0, 64, 68
1, 408643, Control_c, 0, 67, 72
1, 408672, Control_c, 0, 64, 68
1, 408672, Control_c, 0, 67, 71
1, 408730, Note_off_c, 0, 59, 48
1, 408775, Control_c, 0, 64, 66
1, 408777, Note_on_c, 0, 64, 52
1, 408790, Control_c, 0, 64, 61
1, 408798, Note_on_c, 0, 47, 43
1, 408801, Note_on_c, 0, 57, 32
1, 408805, Control_c, 0, 64, 53
1, 408820, Control_c, 0, 64, 47
1, 408835, Control_c, 0, 64, 47
1, 408849, Control_c, 0, 64, 49
1, 408849, Control_c, 0, 67, 71
1, 408864, Control_c, 0, 64, 54
1, 408864, Control_c, 0, 67, 70
1, 408879, Control_c, 0, 64, 58
1, 408879, Control_c, 0, 67, 70
1, 408894, Control_c, 0, 64, 61
1, 408894, Control_c, 0, 67, 69
1, 408909, Control_c, 0, 64, 63
1, 408909, Control_c, 0, 67, 68
1, 408924, Control_c, 0, 64, 64
1, 408924, Control_c, 0, 67, 68
1, 408938, Control_c, 0, 64, 65
1, 408938, Control_c, 0, 67, 66
1, 408953, Control_c, 0, 64, 66
1, 408953, Control_c, 0, 67, 66
1, 408959, Note_off_c, 0, 40, 36
1, 408968, Control_c, 0, 64, 66
1, 408968, Control_c, 0, 67, 64
1, 408981, Note_on_c, 0, 56, 54
1, 408982, Note_off_c, 0, 57, 56
1, 408983, Control_c, 0, 64, 67
1, 408983, Control_c, 0, 67, 63
1, 408998, Control_c, 0, 67, 62
1, 409013, Control_c, 0, 64, 67
1, 409013, Control_c, 0, 67, 62
1, 409028, Control_c, 0, 67, 61
1, 409043, Control_c, 0, 67, 60
1, 409057, Control_c, 0, 67, 58
1, 409064, Note_off_c, 0, 56, 59
1, 409072, Control_c, 0, 67, 57
1, 409094, Control_c, 0, 67, 55
1, 409108, Control_c, 0, 67, 54
1, 409123, Control_c, 0, 67, 51
1, 409138, Control_c, 0, 67, 49
1, 409148, Note_off_c, 0, 47, 63
1, 409151, Note_off_c, 0, 64, 62
1, 409153, Control_c, 0, 67, 46
1, 409178, Note_on_c, 0, 52, 69
1, 409183, Control_c, 0, 64, 67
1, 409198, Control_c, 0, 64, 65
1, 409213, Control_c, 0, 64, 61
1, 409213, Control_c, 0, 67, 47
1, 409228, Control_c, 0, 64, 52
1, 409228, Control_c, 0, 67, 49
1, 409242, Control_c, 0, 64, 44
1, 409242, Control_c, 0, 67, 51
1, 409257, Control_c, 0, 64, 36
1, 409257, Control_c, 0, 67, 53
1, 409272, Control_c, 0, 64, 30
1, 409272, Control_c, 0, 67, 53
1, 409287, Control_c, 0, 64, 0
1, 409287, Control_c, 0, 67, 54
1, 409316, Control_c, 0, 67, 55
1, 409346, Control_c, 0, 67, 56
1, 409347, Note_off_c, 0, 52, 59
1, 409350, Note_on_c, 0, 54, 64
1, 409361, Control_c, 0, 67, 56
1, 409390, Control_c, 0, 67, 57
1, 409421, Control_c, 0, 67, 58
1, 409451, Control_c, 0, 67, 58
1, 409538, Note_off_c, 0, 54, 57
1, 409542, Note_on_c, 0, 56, 64
1, 409584, Control_c, 0, 64, 32
1, 409598, Control_c, 0, 64, 43
1, 409598, Control_c, 0, 67, 58
1, 409613, Control_c, 0, 64, 52
1, 409628, Control_c, 0, 64, 58
1, 409628, Control_c, 0, 67, 57
1, 409643, Control_c, 0, 64, 59
1, 409672, Control_c, 0, 67, 56
1, 409687, Control_c, 0, 64, 59
1, 409702, Control_c, 0, 67, 56
1, 409717, Control_c, 0, 67, 55
1, 409731, Control_c, 0, 67, 54
1, 409746, Control_c, 0, 67, 54
1, 409747, Note_on_c, 0, 64, 59
1, 409753, Note_off_c, 0, 56, 61
1, 409756, Note_on_c, 0, 63, 46
1, 409761, Control_c, 0, 67, 53
1, 409776, Control_c, 0, 64, 60
1, 409776, Control_c, 0, 67, 52
1, 409791, Control_c, 0, 67, 51
1, 409806, Control_c, 0, 64, 60
1, 409806, Control_c, 0, 67, 49
1, 409828, Control_c, 0, 64, 61
1, 409828, Control_c, 0, 67, 47
1, 409843, Control_c, 0, 64, 61
1, 409843, Control_c, 0, 67, 44
1, 409858, Control_c, 0, 64, 62
1, 409858, Control_c, 0, 67, 39
1, 409873, Control_c, 0, 67, 0
1, 409887, Control_c, 0, 64, 61
1, 409902, Control_c, 0, 64, 58
1, 409904, Note_off_c, 0, 64, 63
1, 409916, Note_off_c, 0, 63, 54
1, 409917, Control_c, 0, 64, 51
1, 409921, Note_on_c, 0, 59, 77
1, 409931, Control_c, 0, 64, 41
1, 409934, Note_on_c, 0, 62, 62
1, 409946, Control_c, 0, 64, 30
1, 409991, Control_c, 0, 64, 33
1, 410006, Control_c, 0, 64, 37
1, 410021, Control_c, 0, 64, 42
1, 410035, Control_c, 0, 64, 48
1, 410050, Control_c, 0, 64, 55
1, 410065, Control_c, 0, 64, 59
1, 410074, Note_off_c, 0, 62, 53
1, 410080, Control_c, 0, 64, 61
1, 410095, Control_c, 0, 64, 61
1, 410110, Control_c, 0, 64, 62
1, 410119, Note_off_c, 0, 59, 65
1, 410128, Note_on_c, 0, 60, 76
1, 410154, Control_c, 0, 64, 61
1, 410169, Control_c, 0, 64, 57
1, 410184, Control_c, 0, 64, 47
1, 410199, Control_c, 0, 64, 33
1, 410214, Control_c, 0, 64, 0
1, 410274, Control_c, 0, 64, 30
1, 410289, Control_c, 0, 64, 43
1, 410303, Control_c, 0, 64, 54
1, 410318, Control_c, 0, 64, 60
1, 410333, Control_c, 0, 64, 62
1, 410341, Note_on_c, 0, 69, 72
1, 410346, Note_on_c, 0, 68, 63
1, 410348, Control_c, 0, 64, 63
1, 410362, Control_c, 0, 64, 64
1, 410372, Note_off_c, 0, 60, 64
1, 410377, Control_c, 0, 64, 65
1, 410392, Control_c, 0, 64, 66
1, 410407, Control_c, 0, 64, 67
1, 410422, Control_c, 0, 64, 69
1, 410436, Control_c, 0, 64, 70
1, 410451, Control_c, 0, 64, 71
1, 410466, Control_c, 0, 64, 72
1, 410481, Control_c, 0, 64, 73
1, 410551, Note_on_c, 0, 63, 84
1, 410553, Note_off_c, 0, 68, 59
1, 410554, Note_off_c, 0, 69, 60
1, 410554, Control_c, 0, 64, 70
1, 410577, Control_c, 0, 64, 62
1, 410578, Note_on_c, 0, 65, 73
1, 410592, Control_c, 0, 64, 44
1, 410607, Control_c, 0, 64, 0
1, 410651, Control_c, 0, 64, 32
1, 410666, Control_c, 0, 64, 47
1, 410680, Control_c, 0, 64, 58
1, 410695, Control_c, 0, 64, 63
1, 410710, Control_c, 0, 64, 66
1, 410725, Control_c, 0, 64, 67
1, 410740, Control_c, 0, 64, 69
1, 410742, Note_off_c, 0, 65, 60
1, 410754, Control_c, 0, 64, 72
1, 410769, Control_c, 0, 64, 75
1, 410784, Control_c, 0, 64, 79
1, 410799, Control_c, 0, 64, 83
1, 410814, Control_c, 0, 64, 86
1, 410822, Note_off_c, 0, 63, 64
1, 410828, Control_c, 0, 64, 89
1, 410843, Control_c, 0, 64, 89
1, 410882, Note_on_c, 0, 62, 82
1, 410888, Control_c, 0, 64, 87
1, 410890, Note_on_c, 0, 52, 67
1, 410903, Control_c, 0, 64, 76
1, 410918, Control_c, 0, 64, 61
1, 410933, Control_c, 0, 64, 37
1, 410948, Control_c, 0, 64, 0
1, 410962, Control_c, 0, 64, 32
1, 410977, Control_c, 0, 64, 52
1, 410992, Control_c, 0, 64, 64
1, 411007, Control_c, 0, 64, 70
1, 411008, Note_off_c, 0, 52, 59
1, 411022, Control_c, 0, 64, 76
1, 411037, Control_c, 0, 64, 79
1, 411052, Control_c, 0, 64, 83
1, 411067, Control_c, 0, 64, 86
1, 411082, Control_c, 0, 64, 89
1, 411097, Control_c, 0, 64, 90
1, 411106, Note_off_c, 0, 62, 61
1, 411112, Control_c, 0, 64, 91
1, 411126, Control_c, 0, 64, 91
1, 411141, Control_c, 0, 64, 92
1, 411142, Note_on_c, 0, 81, 84
1, 411153, Note_on_c, 0, 74, 73
1, 411155, Note_on_c, 0, 65, 66
1, 411171, Control_c, 0, 64, 92
1, 411200, Control_c, 0, 64, 93
1, 411246, Note_off_c, 0, 74, 51
1, 411307, Note_off_c, 0, 65, 61
1, 411349, Note_on_c, 0, 69, 79
1, 411356, Note_on_c, 0, 84, 90
1, 411367, Note_on_c, 0, 77, 78
1, 411376, Note_off_c, 0, 81, 60
1, 411394, Note_off_c, 0, 69, 58
1, 411465, Note_on_c, 0, 52, 65
1, 411514, Note_on_c, 0, 59, 61
1, 411533, Control_c, 0, 64, 92
1, 411548, Control_c, 0, 64, 83
1, 411563, Control_c, 0, 64, 69
1, 411572, Note_off_c, 0, 77, 53
1, 411577, Control_c, 0, 64, 52
1, 411592, Control_c, 0, 64, 38
1, 411600, Note_on_c, 0, 67, 66
1, 411607, Control_c, 0, 64, 36
1, 411615, Note_off_c, 0, 52, 59
1, 411617, Note_on_c, 0, 83, 86
1, 411622, Control_c, 0, 64, 43
1, 411623, Note_off_c, 0, 84, 60
1, 411631, Note_on_c, 0, 76, 80
1, 411637, Control_c, 0, 64, 58
1, 411651, Note_off_c, 0, 59, 63
1, 411651, Control_c, 0, 64, 66
1, 411666, Control_c, 0, 64, 74
1, 411681, Control_c, 0, 64, 81
1, 411695, Note_off_c, 0, 76, 60
1, 411696, Control_c, 0, 64, 85
1, 411708, Note_off_c, 0, 83, 65
1, 411711, Control_c, 0, 64, 89
1, 411726, Control_c, 0, 64, 95
1, 411740, Control_c, 0, 64, 99
1, 411755, Control_c, 0, 64, 103
1, 411770, Control_c, 0, 64, 106
1, 411777, Note_off_c, 0, 67, 62
1, 411785, Control_c, 0, 64, 108
1, 411815, Control_c, 0, 64, 111
1, 411848, Note_on_c, 0, 71, 67
1, 411860, Note_on_c, 0, 88, 83
1, 411872, Note_on_c, 0, 79, 65
1, 411949, Control_c, 0, 64, 114
1, 411955, Note_off_c, 0, 79, 57
1, 412082, Note_on_c, 0, 91, 90
1, 412086, Note_off_c, 0, 88, 64
1, 412087, Note_on_c, 0, 74, 68
1, 412088, Note_on_c, 0, 83, 78
1, 412097, Note_off_c, 0, 71, 58
1, 412137, Note_off_c, 0, 83, 60
1, 412273, Note_on_c, 0, 89, 89
1, 412276, Note_on_c, 0, 72, 70
1, 412285, Note_on_c, 0, 81, 74
1, 412285, Note_off_c, 0, 74, 57
1, 412296, Note_off_c, 0, 91, 65
1, 412356, Note_off_c, 0, 81, 59
1, 412414, Note_off_c, 0, 89, 62
1, 412489, Control_c, 0, 64, 101
1, 412496, Note_on_c, 0, 93, 97
1, 412504, Note_on_c, 0, 76, 71
1, 412504, Control_c, 0, 64, 86
1, 412519, Control_c, 0, 64, 74
1, 412520, Note_on_c, 0, 84, 63
1, 412524, Note_off_c, 0, 72, 53
1, 412533, Control_c, 0, 64, 67
1, 412544, Note_off_c, 0, 84, 52
1, 412548, Control_c, 0, 64, 66
1, 412563, Control_c, 0, 64, 66
1, 412578, Control_c, 0, 64, 68
1, 412594, Control_c, 0, 64, 71
1, 412609, Control_c, 0, 64, 73
1, 412623, Control_c, 0, 64, 74
1, 412638, Control_c, 0, 64, 74
1, 412653, Control_c, 0, 64, 75
1, 412668, Control_c, 0, 64, 76
1, 412683, Control_c, 0, 64, 76
1, 412697, Control_c, 0, 64, 77
1, 412741, Note_off_c, 0, 93, 61
1, 412776, Note_on_c, 0, 95, 92
1, 412778, Note_off_c, 0, 76, 56
1, 412787, Note_on_c, 0, 77, 54
1, 412789, Note_on_c, 0, 86, 70
1, 412898, Control_c, 0, 64, 77
1, 413029, Note_off_c, 0, 77, 39
1, 413052, Note_on_c, 0, 92, 89
1, 413062, Note_on_c, 0, 74, 57
1, 413070, Note_on_c, 0, 83, 66
1, 413085, Note_off_c, 0, 95, 60
1, 413087, Note_off_c, 0, 86, 61
1, 413091, Control_c, 0, 64, 78
1, 413121, Control_c, 0, 64, 78
1, 413136, Control_c, 0, 64, 79
1, 413150, Control_c, 0, 64, 80
1, 413165, Control_c, 0, 64, 80
1, 413180, Control_c, 0, 64, 81
1, 413195, Control_c, 0, 64, 82
1, 413195, Note_off_c, 0, 92, 67
1, 413210, Control_c, 0, 64, 82
1, 413224, Control_c, 0, 64, 83
1, 413239, Control_c, 0, 64, 83
1, 413269, Control_c, 0, 64, 84
1, 413282, Note_off_c, 0, 83, 54
1, 413298, Control_c, 0, 64, 84
1, 413313, Control_c, 0, 64, 85
1, 413328, Control_c, 0, 64, 86
1, 413343, Control_c, 0, 64, 86
1, 413350, Note_on_c, 0, 88, 86
1, 413357, Control_c, 0, 64, 87
1, 413365, Note_on_c, 0, 80, 67
1, 413372, Note_on_c, 0, 71, 46
1, 413372, Control_c, 0, 64, 89
1, 413379, Note_off_c, 0, 74, 50
1, 413387, Control_c, 0, 64, 90
1, 413403, Control_c, 0, 64, 93
1, 413418, Control_c, 0, 64, 96
1, 413433, Control_c, 0, 64, 100
1, 413447, Control_c, 0, 64, 106
1, 413462, Control_c, 0, 64, 114
1, 413477, Control_c, 0, 64, 127
1, 413559, Note_off_c, 0, 71, 34
1, 413713, Note_off_c, 0, 88, 38
1, 413736, Note_on_c, 0, 76, 59
1, 413738, Note_on_c, 0, 83, 83
1, 413753, Note_on_c, 0, 74, 70
1, 413772, Note_off_c, 0, 76, 61
1, 413784, Note_off_c, 0, 80, 60
1, 413804, Note_off_c, 0, 74, 63
1, 413972, Note_off_c, 0, 83, 65
1, 414384, Note_on_c, 0, 91, 86
1, 414385, Note_on_c, 0, 84, 70
1, 414391, Note_on_c, 0, 48, 59
1, 414394, Note_on_c, 0, 76, 68
1, 414395, Note_on_c, 0, 36, 48
1, 414396, Control_c, 0, 64, 103
1, 414410, Control_c, 0, 64, 83
1, 414425, Control_c, 0, 64, 69
1, 414440, Control_c, 0, 64, 54
1, 414455, Control_c, 0, 64, 38
1, 414469, Control_c, 0, 64, 0
1, 414632, Control_c, 0, 64, 32
1, 414647, Control_c, 0, 64, 44
1, 414662, Control_c, 0, 64, 56
1, 414677, Control_c, 0, 64, 63
1, 414692, Control_c, 0, 64, 66
1, 414706, Control_c, 0, 64, 68
1, 414721, Control_c, 0, 64, 71
1, 414736, Control_c, 0, 64, 75
1, 414751, Control_c, 0, 64, 78
1, 414766, Control_c, 0, 64, 82
1, 414781, Control_c, 0, 64, 84
1, 414795, Control_c, 0, 64, 86
1, 414810, Control_c, 0, 64, 88
1, 414825, Control_c, 0, 64, 89
1, 414840, Control_c, 0, 64, 90
1, 414854, Control_c, 0, 64, 91
1, 414869, Control_c, 0, 64, 92
1, 414884, Control_c, 0, 64, 93
1, 414890, Note_on_c, 0, 43, 49
1, 414899, Control_c, 0, 64, 93
1, 414914, Control_c, 0, 64, 94
1, 414928, Control_c, 0, 64, 95
1, 414943, Control_c, 0, 64, 95
1, 414958, Control_c, 0, 64, 96
1, 414983, Note_off_c, 0, 48, 34
1, 415203, Note_off_c, 0, 43, 55
1, 415204, Control_c, 0, 64, 98
1, 415374, Note_on_c, 0, 48, 44
1, 415411, Control_c, 0, 64, 94
1, 415425, Control_c, 0, 64, 91
1, 415440, Control_c, 0, 64, 89
1, 415455, Control_c, 0, 64, 88
1, 415801, Note_off_c, 0, 76, 39
1, 415812, Control_c, 0, 64, 88
1, 415812, Note_off_c, 0, 91, 61
1, 415858, Note_off_c, 0, 84, 58
1, 416106, Note_on_c, 0, 43, 36
1, 416178, Note_off_c, 0, 48, 40
1, 416355, Note_on_c, 0, 48, 45
1, 416364, Note_off_c, 0, 43, 41
1, 416546, Control_c, 0, 64, 88
1, 416582, Control_c, 0, 64, 86
1, 416590, Note_on_c, 0, 67, 53
1, 416598, Control_c, 0, 64, 82
1, 416601, Note_on_c, 0, 43, 37
1, 416601, Note_on_c, 0, 60, 46
1, 416602, Note_on_c, 0, 55, 38
1, 416611, Note_on_c, 0, 64, 44
1, 416613, Control_c, 0, 64, 76
1, 416628, Note_off_c, 0, 48, 40
1, 416628, Control_c, 0, 64, 71
1, 416643, Control_c, 0, 64, 66
1, 416658, Control_c, 0, 64, 63
1, 416672, Control_c, 0, 64, 61
1, 416687, Control_c, 0, 64, 61
1, 416702, Control_c, 0, 64, 61
1, 416717, Control_c, 0, 64, 62
1, 416731, Control_c, 0, 64, 63
1, 416746, Control_c, 0, 64, 65
1, 416761, Control_c, 0, 64, 67
1, 416776, Control_c, 0, 64, 69
1, 416791, Control_c, 0, 64, 71
1, 416805, Control_c, 0, 64, 73
1, 416817, Note_off_c, 0, 43, 40
1, 416820, Control_c, 0, 64, 74
1, 416823, Note_on_c, 0, 48, 41
1, 416835, Control_c, 0, 64, 75
1, 416850, Control_c, 0, 64, 76
1, 416865, Control_c, 0, 64, 78
1, 416880, Control_c, 0, 64, 79
1, 416894, Control_c, 0, 64, 80
1, 416909, Control_c, 0, 64, 81
1, 416924, Control_c, 0, 64, 82
1, 416939, Control_c, 0, 64, 83
1, 416954, Control_c, 0, 64, 84
1, 416969, Control_c, 0, 64, 84
1, 416984, Control_c, 0, 64, 85
1, 416998, Control_c, 0, 64, 86
1, 417013, Control_c, 0, 64, 87
1, 417028, Control_c, 0, 64, 88
1, 417043, Control_c, 0, 64, 89
1, 417058, Control_c, 0, 64, 89
1, 417061, Note_on_c, 0, 43, 39
1, 417067, Note_off_c, 0, 48, 37
1, 417072, Control_c, 0, 64, 90
1, 417087, Control_c, 0, 64, 91
1, 417102, Control_c, 0, 64, 92
1, 417116, Control_c, 0, 64, 93
1, 417131, Control_c, 0, 64, 94
1, 417146, Control_c, 0, 64, 94
1, 417161, Control_c, 0, 64, 95
1, 417176, Control_c, 0, 64, 96
1, 417248, Note_off_c, 0, 55, 34
1, 417359, Note_off_c, 0, 43, 61
1, 417437, Note_off_c, 0, 60, 31
1, 417554, Note_on_c, 0, 48, 50
1, 417645, Note_off_c, 0, 48, 51
1, 417765, Note_on_c, 0, 43, 55
1, 417814, Note_off_c, 0, 67, 34
1, 417818, Note_off_c, 0, 64, 42
1, 417862, Note_off_c, 0, 36, 36
1, 417999, Control_c, 0, 64, 94
1, 418012, Note_on_c, 0, 67, 64
1, 418013, Control_c, 0, 64, 91
1, 418024, Note_on_c, 0, 60, 51
1, 418026, Note_on_c, 0, 36, 42
1, 418027, Note_on_c, 0, 55, 44
1, 418028, Note_on_c, 0, 64, 54
1, 418028, Control_c, 0, 64, 86
1, 418032, Note_on_c, 0, 48, 43
1, 418043, Control_c, 0, 64, 79
1, 418047, Note_off_c, 0, 43, 52
1, 418065, Control_c, 0, 64, 72
1, 418080, Control_c, 0, 64, 63
1, 418095, Control_c, 0, 64, 53
1, 418110, Control_c, 0, 64, 44
1, 418125, Control_c, 0, 64, 40
1, 418139, Control_c, 0, 64, 40
1, 418154, Control_c, 0, 64, 42
1, 418169, Control_c, 0, 64, 46
1, 418184, Control_c, 0, 64, 52
1, 418200, Control_c, 0, 64, 58
1, 418215, Control_c, 0, 64, 62
1, 418230, Control_c, 0, 64, 65
1, 418244, Control_c, 0, 64, 67
1, 418252, Note_on_c, 0, 43, 40
1, 418258, Control_c, 0, 64, 69
1, 418259, Note_off_c, 0, 48, 42
1, 418273, Control_c, 0, 64, 70
1, 418288, Control_c, 0, 64, 72
1, 418302, Control_c, 0, 64, 74
1, 418317, Control_c, 0, 64, 75
1, 418332, Control_c, 0, 64, 76
1, 418347, Control_c, 0, 64, 77
1, 418362, Control_c, 0, 64, 77
1, 418376, Control_c, 0, 64, 78
1, 418391, Control_c, 0, 64, 79
1, 418406, Control_c, 0, 64, 80
1, 418421, Control_c, 0, 64, 82
1, 418436, Control_c, 0, 64, 83
1, 418451, Control_c, 0, 64, 84
1, 418455, Note_off_c, 0, 55, 37
1, 418465, Control_c, 0, 64, 85
1, 418474, Note_off_c, 0, 43, 34
1, 418480, Control_c, 0, 64, 86
1, 418495, Control_c, 0, 64, 87
1, 418500, Note_on_c, 0, 48, 42
1, 418510, Control_c, 0, 64, 88
1, 418525, Control_c, 0, 64, 89
1, 418555, Control_c, 0, 64, 89
1, 418561, Note_off_c, 0, 60, 39
1, 418569, Control_c, 0, 64, 90
1, 418599, Control_c, 0, 64, 90
1, 418614, Control_c, 0, 64, 91
1, 418629, Control_c, 0, 64, 91
1, 418658, Control_c, 0, 64, 92
1, 418732, Control_c, 0, 64, 92
1, 418743, Note_off_c, 0, 48, 33
1, 419138, Note_on_c, 0, 43, 30
1, 419275, Note_off_c, 0, 64, 38
1, 419315, Note_off_c, 0, 67, 33
1, 419338, Note_off_c, 0, 43, 36
1, 419380, Note_on_c, 0, 48, 41
1, 419517, Note_off_c, 0, 48, 33
1, 419599, Note_on_c, 0, 67, 50
1, 419613, Note_on_c, 0, 43, 32
1, 419613, Note_on_c, 0, 60, 39
1, 419615, Note_on_c, 0, 64, 38
1, 419625, Note_on_c, 0, 55, 29
1, 419804, Note_off_c, 0, 43, 38
1, 419850, Note_on_c, 0, 48, 39
1, 419942, Note_off_c, 0, 48, 34
1, 420087, Note_on_c, 0, 43, 42
1, 420340, Note_off_c, 0, 55, 38
1, 420370, Note_off_c, 0, 43, 61
1, 420395, Note_off_c, 0, 60, 51
1, 420616, Note_on_c, 0, 48, 53
1, 420827, Note_off_c, 0, 67, 38
1, 420841, Note_on_c, 0, 43, 63
1, 420881, Note_off_c, 0, 48, 37
1, 420889, Control_c, 0, 64, 92
1, 420907, Note_off_c, 0, 36, 41
1, 420920, Note_off_c, 0, 64, 37
1, 420993, Control_c, 0, 64, 91
1, 421008, Control_c, 0, 64, 91
1, 421023, Control_c, 0, 64, 90
1, 421037, Control_c, 0, 64, 89
1, 421052, Control_c, 0, 64, 88
1, 421074, Control_c, 0, 64, 85
1, 421089, Control_c, 0, 64, 83
1, 421104, Control_c, 0, 64, 80
1, 421118, Control_c, 0, 64, 76
1, 421121, Note_on_c, 0, 65, 65
1, 421133, Control_c, 0, 64, 72
1, 421134, Note_on_c, 0, 58, 47
1, 421140, Note_on_c, 0, 62, 49
1, 421141, Note_on_c, 0, 36, 49
1, 421142, Note_on_c, 0, 48, 52
1, 421143, Note_on_c, 0, 53, 42
1, 421148, Control_c, 0, 64, 66
1, 421163, Control_c, 0, 64, 58
1, 421170, Note_off_c, 0, 43, 54
1, 421178, Control_c, 0, 64, 51
1, 421193, Control_c, 0, 64, 42
1, 421208, Control_c, 0, 64, 29
1, 421223, Control_c, 0, 64, 0
1, 421364, Note_off_c, 0, 48, 54
1, 421370, Note_on_c, 0, 43, 43
1, 421370, Control_c, 0, 64, 35
1, 421386, Control_c, 0, 64, 43
1, 421401, Control_c, 0, 64, 50
1, 421416, Control_c, 0, 64, 57
1, 421431, Control_c, 0, 64, 61
1, 421446, Control_c, 0, 64, 62
1, 421460, Control_c, 0, 64, 63
1, 421475, Control_c, 0, 64, 64
1, 421490, Control_c, 0, 64, 65
1, 421505, Control_c, 0, 64, 66
1, 421519, Control_c, 0, 64, 67
1, 421534, Control_c, 0, 64, 67
1, 421548, Note_off_c, 0, 43, 50
1, 421549, Control_c, 0, 64, 68
1, 421564, Control_c, 0, 64, 69
1, 421579, Control_c, 0, 64, 70
1, 421593, Control_c, 0, 64, 70
1, 421607, Note_on_c, 0, 48, 45
1, 421608, Control_c, 0, 64, 71
1, 421638, Control_c, 0, 64, 71
1, 421682, Control_c, 0, 64, 72
1, 421727, Control_c, 0, 64, 72
1, 421771, Control_c, 0, 64, 73
1, 422075, Note_on_c, 0, 43, 40
1, 422090, Control_c, 0, 64, 72
1, 422119, Control_c, 0, 64, 72
1, 422126, Note_off_c, 0, 48, 31
1, 422134, Note_off_c, 0, 43, 50
1, 422134, Control_c, 0, 64, 71
1, 422278, Note_on_c, 0, 48, 50
1, 422335, Note_off_c, 0, 48, 56
1, 422335, Note_off_c, 0, 62, 53
1, 422338, Note_off_c, 0, 58, 56
1, 422341, Note_off_c, 0, 65, 53
1, 422360, Note_off_c, 0, 53, 36
1, 422490, Control_c, 0, 64, 71
1, 422496, Note_on_c, 0, 65, 53
1, 422499, Note_on_c, 0, 58, 46
1, 422502, Note_on_c, 0, 62, 38
1, 422505, Note_on_c, 0, 43, 42
1, 422512, Note_on_c, 0, 53, 33
1, 422520, Control_c, 0, 64, 70
1, 422534, Control_c, 0, 64, 68
1, 422549, Control_c, 0, 64, 64
1, 422572, Control_c, 0, 64, 58
1, 422587, Control_c, 0, 64, 51
1, 422602, Control_c, 0, 64, 46
1, 422616, Control_c, 0, 64, 45
1, 422631, Control_c, 0, 64, 46
1, 422646, Control_c, 0, 64, 48
1, 422660, Control_c, 0, 64, 52
1, 422675, Control_c, 0, 64, 57
1, 422690, Control_c, 0, 64, 61
1, 422705, Control_c, 0, 64, 63
1, 422719, Note_off_c, 0, 43, 38
1, 422720, Control_c, 0, 64, 65
1, 422734, Control_c, 0, 64, 65
1, 422737, Note_on_c, 0, 48, 41
1, 422750, Control_c, 0, 64, 66
1, 422765, Control_c, 0, 64, 67
1, 422780, Control_c, 0, 64, 68
1, 422795, Control_c, 0, 64, 69
1, 422809, Control_c, 0, 64, 69
1, 422832, Note_off_c, 0, 48, 36
1, 422854, Control_c, 0, 64, 70
1, 422964, Note_on_c, 0, 43, 40
1, 423490, Note_off_c, 0, 43, 40
1, 423491, Note_on_c, 0, 48, 46
1, 423676, Note_off_c, 0, 65, 54
1, 423677, Note_off_c, 0, 53, 31
1, 423691, Note_off_c, 0, 62, 34
1, 423693, Note_off_c, 0, 58, 35
1, 423719, Note_on_c, 0, 43, 37
1, 423723, Note_off_c, 0, 48, 33
1, 423759, Note_off_c, 0, 36, 31
1, 423870, Control_c, 0, 64, 69
1, 423929, Control_c, 0, 64, 69
1, 423944, Control_c, 0, 64, 68
1, 423959, Control_c, 0, 64, 67
1, 423968, Note_on_c, 0, 65, 50
1, 423971, Note_on_c, 0, 58, 41
1, 423974, Control_c, 0, 64, 64
1, 423983, Note_on_c, 0, 36, 36
1, 423983, Note_on_c, 0, 62, 36
1, 423987, Note_on_c, 0, 48, 27
1, 423989, Control_c, 0, 64, 60
1, 423992, Note_off_c, 0, 43, 37
1, 423994, Note_on_c, 0, 53, 21
1, 424004, Control_c, 0, 64, 56
1, 424019, Control_c, 0, 64, 52
1, 424033, Control_c, 0, 64, 51
1, 424048, Control_c, 0, 64, 51
1, 424085, Control_c, 0, 64, 51
1, 424100, Control_c, 0, 64, 52
1, 424114, Control_c, 0, 64, 52
1, 424129, Control_c, 0, 64, 53
1, 424144, Control_c, 0, 64, 55
1, 424159, Control_c, 0, 64, 57
1, 424174, Control_c, 0, 64, 60
1, 424189, Control_c, 0, 64, 62
1, 424196, Note_off_c, 0, 48, 41
1, 424204, Control_c, 0, 64, 64
1, 424206, Note_on_c, 0, 43, 34
1, 424219, Control_c, 0, 64, 65
1, 424233, Control_c, 0, 64, 66
1, 424247, Control_c, 0, 64, 67
1, 424262, Control_c, 0, 64, 68
1, 424292, Control_c, 0, 64, 69
1, 424321, Control_c, 0, 64, 69
1, 424400, Note_off_c, 0, 43, 36
1, 424430, Note_on_c, 0, 48, 39
1, 424645, Note_off_c, 0, 53, 37
1, 424776, Note_off_c, 0, 58, 35
1, 424794, Note_off_c, 0, 62, 41
1, 424996, Note_off_c, 0, 48, 28
1, 425026, Note_on_c, 0, 43, 31
1, 425108, Note_off_c, 0, 65, 41
1, 425144, Control_c, 0, 64, 69
1, 425215, Note_off_c, 0, 43, 37
1, 425233, Control_c, 0, 64, 68
1, 425246, Note_on_c, 0, 48, 41
1, 425322, Control_c, 0, 64, 68
1, 425382, Control_c, 0, 64, 67
1, 425412, Control_c, 0, 64, 67
1, 425426, Control_c, 0, 64, 66
1, 425441, Control_c, 0, 64, 65
1, 425456, Control_c, 0, 64, 63
1, 425468, Note_on_c, 0, 65, 44
1, 425471, Note_on_c, 0, 43, 28
1, 425471, Control_c, 0, 64, 61
1, 425474, Note_off_c, 0, 48, 32
1, 425475, Note_on_c, 0, 58, 36
1, 425482, Note_on_c, 0, 62, 34
1, 425485, Control_c, 0, 64, 58
1, 425500, Control_c, 0, 64, 56
1, 425511, Poly_aftertouch_c, 0, 53, 127
1, 425515, Control_c, 0, 64, 53
1, 425530, Control_c, 0, 64, 50
1, 425552, Control_c, 0, 64, 48
1, 425567, Control_c, 0, 64, 46
1, 425582, Control_c, 0, 64, 46
1, 425627, Control_c, 0, 64, 47
1, 425641, Control_c, 0, 64, 49
1, 425656, Control_c, 0, 64, 53
1, 425671, Control_c, 0, 64, 57
1, 425685, Control_c, 0, 64, 60
1, 425700, Control_c, 0, 64, 62
1, 425708, Note_off_c, 0, 43, 40
1, 425715, Control_c, 0, 64, 63
1, 425728, Note_on_c, 0, 48, 35
1, 425730, Control_c, 0, 64, 64
1, 425746, Control_c, 0, 64, 65
1, 425760, Control_c, 0, 64, 66
1, 425775, Control_c, 0, 64, 67
1, 425790, Control_c, 0, 64, 67
1, 425834, Control_c, 0, 64, 68
1, 425983, Control_c, 0, 64, 67
1, 425984, Note_off_c, 0, 48, 36
1, 425989, Note_on_c, 0, 43, 31
1, 425998, Control_c, 0, 64, 66
1, 426012, Control_c, 0, 64, 64
1, 426027, Control_c, 0, 64, 62
1, 426042, Control_c, 0, 64, 59
1, 426057, Control_c, 0, 64, 58
1, 426072, Control_c, 0, 64, 56
1, 426086, Control_c, 0, 64, 56
1, 426131, Control_c, 0, 64, 56
1, 426146, Control_c, 0, 64, 57
1, 426160, Control_c, 0, 64, 59
1, 426176, Control_c, 0, 64, 62
1, 426191, Control_c, 0, 64, 64
1, 426206, Control_c, 0, 64, 65
1, 426221, Control_c, 0, 64, 66
1, 426236, Control_c, 0, 64, 66
1, 426250, Control_c, 0, 64, 67
1, 426265, Control_c, 0, 64, 67
1, 426280, Control_c, 0, 64, 68
1, 426295, Control_c, 0, 64, 68
1, 426295, Control_c, 0, 67, 39
1, 426317, Control_c, 0, 67, 43
1, 426332, Control_c, 0, 64, 69
1, 426332, Control_c, 0, 67, 44
1, 426347, Control_c, 0, 67, 45
1, 426362, Control_c, 0, 67, 45
1, 426376, Control_c, 0, 67, 46
1, 426598, Control_c, 0, 67, 45
1, 426633, Note_on_c, 0, 48, 30
1, 426663, Note_off_c, 0, 43, 37
1, 426687, Control_c, 0, 67, 46
1, 426702, Control_c, 0, 67, 47
1, 426717, Control_c, 0, 67, 47
1, 426776, Control_c, 0, 67, 48
1, 426791, Control_c, 0, 67, 49
1, 426806, Control_c, 0, 67, 50
1, 426821, Control_c, 0, 67, 51
1, 426835, Control_c, 0, 67, 51
1, 426850, Control_c, 0, 67, 53
1, 426854, Poly_aftertouch_c, 0, 53, 0
1, 426865, Control_c, 0, 67, 78
1, 426880, Control_c, 0, 67, 106
1, 426895, Control_c, 0, 67, 124
1, 426909, Control_c, 0, 67, 127
1, 426921, Note_off_c, 0, 58, 36
1, 426925, Note_on_c, 0, 43, 29
1, 426946, Note_off_c, 0, 48, 32
1, 426961, Note_off_c, 0, 65, 58
1, 427062, Note_off_c, 0, 36, 41
1, 427135, Note_off_c, 0, 62, 42
1, 427318, Control_c, 0, 64, 68
1, 427332, Control_c, 0, 64, 68
1, 427347, Control_c, 0, 64, 67
1, 427362, Control_c, 0, 64, 66
1, 427364, Note_on_c, 0, 67, 34
1, 427366, Note_on_c, 0, 36, 26
1, 427374, Note_on_c, 0, 60, 23
1, 427377, Control_c, 0, 64, 65
1, 427378, Note_on_c, 0, 64, 28
1, 427384, Note_on_c, 0, 48, 6
1, 427392, Control_c, 0, 64, 63
1, 427399, Poly_aftertouch_c, 0, 55, 127
1, 427406, Control_c, 0, 64, 60
1, 427421, Control_c, 0, 64, 58
1, 427436, Control_c, 0, 64, 55
1, 427450, Control_c, 0, 64, 53
1, 427457, Note_off_c, 0, 43, 38
1, 427465, Control_c, 0, 64, 51
1, 427480, Control_c, 0, 64, 49
1, 427495, Control_c, 0, 64, 47
1, 427510, Control_c, 0, 64, 45
1, 427524, Control_c, 0, 64, 43
1, 427539, Control_c, 0, 64, 42
1, 427599, Control_c, 0, 64, 43
1, 427614, Control_c, 0, 64, 45
1, 427629, Control_c, 0, 64, 49
1, 427644, Control_c, 0, 64, 54
1, 427658, Control_c, 0, 64, 58
1, 427673, Control_c, 0, 64, 61
1, 427688, Control_c, 0, 64, 62
1, 427703, Control_c, 0, 64, 63
1, 427718, Control_c, 0, 64, 64
1, 427732, Control_c, 0, 64, 65
1, 427747, Control_c, 0, 64, 67
1, 427754, Note_on_c, 0, 43, 23
1, 427762, Control_c, 0, 64, 68
1, 427778, Control_c, 0, 64, 68
1, 427793, Control_c, 0, 64, 69
1, 427815, Control_c, 0, 64, 70
1, 427817, Note_off_c, 0, 48, 31
1, 427829, Control_c, 0, 64, 70
1, 427844, Control_c, 0, 64, 71
1, 427859, Control_c, 0, 64, 71
1, 427874, Control_c, 0, 64, 72
1, 427888, Control_c, 0, 64, 72
1, 427918, Control_c, 0, 64, 73
1, 427948, Control_c, 0, 64, 73
1, 428077, Note_on_c, 0, 48, 28
1, 428133, Note_off_c, 0, 43, 27
1, 428317, Poly_aftertouch_c, 0, 55, 0
1, 428416, Note_off_c, 0, 60, 38
1, 428633, Note_off_c, 0, 64, 36
1, 428750, Note_on_c, 0, 43, 13
1, 428791, Note_off_c, 0, 48, 31
1, 428948, Note_off_c, 0, 67, 35
1, 428977, Note_on_c, 0, 48, 29
1, 429009, Note_off_c, 0, 43, 34
1, 429211, Note_on_c, 0, 67, 39
1, 429230, Note_on_c, 0, 64, 35
1, 429232, Note_on_c, 0, 43, 18
1, 429232, Note_on_c, 0, 60, 28
1, 429233, Note_off_c, 0, 48, 39
1, 429241, Note_on_c, 0, 55, 22
1, 429435, Note_off_c, 0, 43, 34
1, 429447, Note_on_c, 0, 48, 32
1, 429697, Note_on_c, 0, 43, 31
1, 429730, Note_off_c, 0, 48, 32
1, 429949, Control_c, 0, 64, 74
1, 430023, Control_c, 0, 64, 74
1, 430075, Control_c, 0, 64, 75
1, 430120, Control_c, 0, 64, 75
1, 430180, Control_c, 0, 64, 76
1, 430261, Note_off_c, 0, 55, 14
1, 430316, Note_on_c, 0, 48, 40
1, 430339, Note_off_c, 0, 43, 34
1, 430387, Note_off_c, 0, 60, 42
1, 430418, Note_off_c, 0, 64, 44
1, 430451, Note_off_c, 0, 67, 55
1, 430554, Note_on_c, 0, 43, 42
1, 430601, Note_off_c, 0, 48, 35
1, 430609, Control_c, 0, 67, 115
1, 430624, Control_c, 0, 67, 104
1, 430625, Note_off_c, 0, 36, 41
1, 430639, Control_c, 0, 67, 98
1, 430654, Control_c, 0, 67, 95
1, 430668, Control_c, 0, 67, 94
1, 430683, Control_c, 0, 67, 93
1, 430698, Control_c, 0, 67, 92
1, 430809, Control_c, 0, 67, 93
1, 430818, Note_on_c, 0, 67, 59
1, 430824, Control_c, 0, 64, 75
1, 430829, Note_on_c, 0, 48, 40
1, 430835, Note_on_c, 0, 55, 36
1, 430839, Control_c, 0, 64, 73
1, 430839, Control_c, 0, 67, 94
1, 430839, Note_on_c, 0, 60, 40
1, 430839, Note_on_c, 0, 64, 44
1, 430848, Note_on_c, 0, 36, 39
1, 430854, Control_c, 0, 64, 70
1, 430854, Control_c, 0, 67, 94
1, 430869, Control_c, 0, 64, 64
1, 430872, Note_off_c, 0, 43, 37
1, 430883, Control_c, 0, 64, 57
1, 430883, Control_c, 0, 67, 95
1, 430898, Control_c, 0, 64, 50
1, 430913, Control_c, 0, 64, 44
1, 430928, Control_c, 0, 64, 41
1, 430943, Control_c, 0, 64, 39
1, 430957, Control_c, 0, 67, 96
1, 430973, Control_c, 0, 64, 40
1, 430988, Control_c, 0, 64, 42
1, 431003, Control_c, 0, 64, 46
1, 431017, Control_c, 0, 64, 51
1, 431032, Control_c, 0, 64, 57
1, 431047, Control_c, 0, 64, 61
1, 431062, Control_c, 0, 64, 64
1, 431077, Control_c, 0, 64, 65
1, 431078, Note_on_c, 0, 43, 39
1, 431084, Note_off_c, 0, 48, 45
1, 431091, Control_c, 0, 64, 67
1, 431106, Control_c, 0, 64, 69
1, 431106, Control_c, 0, 67, 95
1, 431121, Control_c, 0, 64, 71
1, 431136, Control_c, 0, 64, 73
1, 431136, Control_c, 0, 67, 94
1, 431151, Control_c, 0, 64, 75
1, 431165, Control_c, 0, 64, 78
1, 431180, Control_c, 0, 64, 80
1, 431195, Control_c, 0, 64, 83
1, 431195, Control_c, 0, 67, 94
1, 431210, Control_c, 0, 64, 85
1, 431224, Control_c, 0, 64, 87
1, 431224, Control_c, 0, 67, 93
1, 431239, Control_c, 0, 64, 89
1, 431254, Control_c, 0, 64, 91
1, 431254, Control_c, 0, 67, 92
1, 431269, Control_c, 0, 64, 94
1, 431283, Note_off_c, 0, 43, 50
1, 431284, Control_c, 0, 64, 97
1, 431284, Control_c, 0, 67, 91
1, 431298, Control_c, 0, 64, 99
1, 431298, Control_c, 0, 67, 90
1, 431313, Control_c, 0, 64, 102
1, 431323, Note_on_c, 0, 48, 42
1, 431328, Control_c, 0, 64, 105
1, 431328, Control_c, 0, 67, 90
1, 431343, Control_c, 0, 64, 108
1, 431343, Control_c, 0, 67, 89
1, 431358, Control_c, 0, 64, 110
1, 431358, Control_c, 0, 67, 88
1, 431373, Control_c, 0, 64, 114
1, 431388, Control_c, 0, 64, 116
1, 431388, Control_c, 0, 67, 88
1, 431403, Control_c, 0, 64, 120
1, 431403, Control_c, 0, 67, 87
1, 431417, Control_c, 0, 64, 127
1, 431417, Control_c, 0, 67, 86
1, 431447, Control_c, 0, 67, 86
1, 431462, Control_c, 0, 67, 85
1, 431477, Control_c, 0, 67, 85
1, 431491, Control_c, 0, 67, 84
1, 431506, Control_c, 0, 67, 83
1, 431521, Control_c, 0, 67, 68
1, 431536, Control_c, 0, 67, 43
1, 431538, Note_off_c, 0, 48, 39
1, 431558, Control_c, 0, 67, 0
1, 431723, Note_off_c, 0, 55, 35
1, 431888, Note_on_c, 0, 43, 42
1, 431995, Note_off_c, 0, 60, 36
1, 432032, Note_off_c, 0, 64, 56
1, 432049, Note_off_c, 0, 67, 57
1, 432112, Note_off_c, 0, 43, 59
1, 432123, Note_on_c, 0, 48, 59
1, 432243, Note_off_c, 0, 48, 53
1, 432348, Note_on_c, 0, 67, 73
1, 432362, Note_on_c, 0, 43, 42
1, 432365, Note_on_c, 0, 55, 48
1, 432366, Note_on_c, 0, 60, 53
1, 432368, Note_on_c, 0, 64, 56
1, 432482, Note_off_c, 0, 43, 53
1, 432606, Note_on_c, 0, 48, 59
1, 432666, Note_off_c, 0, 55, 35
1, 432690, Note_off_c, 0, 48, 53
1, 432857, Note_on_c, 0, 43, 57
1, 433084, Note_off_c, 0, 43, 58
1, 433183, Note_off_c, 0, 60, 38
1, 433396, Note_on_c, 0, 48, 73
1, 433543, Note_off_c, 0, 48, 56
1, 433576, Note_off_c, 0, 64, 55
1, 433623, Note_off_c, 0, 67, 61
1, 433737, Note_on_c, 0, 43, 69
1, 433885, Note_off_c, 0, 36, 40
1, 434214, Note_on_c, 0, 50, 58
1, 434228, Note_on_c, 0, 36, 53
1, 434234, Control_c, 0, 64, 105
1, 434240, Note_on_c, 0, 59, 61
1, 434242, Note_on_c, 0, 69, 79
1, 434246, Note_on_c, 0, 55, 69
1, 434249, Control_c, 0, 64, 86
1, 434254, Note_on_c, 0, 65, 64
1, 434264, Control_c, 0, 64, 72
1, 434279, Control_c, 0, 64, 61
1, 434294, Control_c, 0, 64, 50
1, 434307, Note_off_c, 0, 43, 49
1, 434309, Control_c, 0, 64, 37
1, 434323, Control_c, 0, 64, 0
1, 434656, Control_c, 0, 64, 35
1, 434671, Control_c, 0, 64, 43
1, 434686, Control_c, 0, 64, 49
1, 434701, Control_c, 0, 64, 52
1, 434715, Control_c, 0, 64, 53
1, 434741, Note_on_c, 0, 43, 55
1, 434776, Note_off_c, 0, 50, 55
1, 434804, Control_c, 0, 64, 54
1, 434819, Control_c, 0, 64, 55
1, 434834, Control_c, 0, 64, 56
1, 434848, Control_c, 0, 64, 58
1, 434863, Control_c, 0, 64, 59
1, 434878, Control_c, 0, 64, 61
1, 434893, Control_c, 0, 64, 62
1, 434908, Control_c, 0, 64, 63
1, 434922, Control_c, 0, 64, 64
1, 434952, Control_c, 0, 64, 65
1, 434968, Control_c, 0, 64, 65
1, 434983, Control_c, 0, 64, 66
1, 435175, Control_c, 0, 64, 65
1, 435186, Note_on_c, 0, 50, 47
1, 435189, Control_c, 0, 64, 65
1, 435204, Control_c, 0, 64, 64
1, 435212, Note_off_c, 0, 43, 59
1, 435219, Control_c, 0, 64, 63
1, 435234, Control_c, 0, 64, 61
1, 435249, Control_c, 0, 64, 58
1, 435263, Control_c, 0, 64, 56
1, 435278, Control_c, 0, 64, 55
1, 435301, Control_c, 0, 64, 53
1, 435316, Control_c, 0, 64, 52
1, 435360, Control_c, 0, 64, 53
1, 435375, Control_c, 0, 64, 54
1, 435389, Control_c, 0, 64, 55
1, 435404, Control_c, 0, 64, 58
1, 435419, Control_c, 0, 64, 61
1, 435434, Control_c, 0, 64, 63
1, 435449, Control_c, 0, 64, 65
1, 435463, Control_c, 0, 64, 66
1, 435479, Control_c, 0, 64, 67
1, 435494, Control_c, 0, 64, 68
1, 435509, Control_c, 0, 64, 69
1, 435524, Control_c, 0, 64, 71
1, 435538, Control_c, 0, 64, 72
1, 435553, Control_c, 0, 64, 73
1, 435568, Control_c, 0, 64, 74
1, 435583, Control_c, 0, 64, 75
1, 435597, Control_c, 0, 64, 75
1, 435612, Control_c, 0, 64, 76
1, 435627, Control_c, 0, 64, 77
1, 435657, Control_c, 0, 64, 77
1, 435686, Control_c, 0, 64, 78
1, 435925, Control_c, 0, 64, 77
1, 435969, Control_c, 0, 64, 77
1, 435984, Control_c, 0, 64, 76
1, 435998, Note_on_c, 0, 43, 35
1, 435999, Control_c, 0, 64, 75
1, 436013, Control_c, 0, 64, 74
1, 436028, Control_c, 0, 64, 72
1, 436050, Control_c, 0, 64, 71
1, 436059, Note_off_c, 0, 50, 33
1, 436065, Control_c, 0, 64, 69
1, 436080, Control_c, 0, 64, 68
1, 436094, Control_c, 0, 64, 67
1, 436109, Control_c, 0, 64, 66
1, 436124, Control_c, 0, 64, 65
1, 436154, Control_c, 0, 64, 64
1, 436169, Control_c, 0, 64, 64
1, 436273, Note_on_c, 0, 50, 35
1, 436287, Note_off_c, 0, 43, 40
1, 436450, Control_c, 0, 64, 63
1, 436509, Control_c, 0, 64, 63
1, 436509, Control_c, 0, 67, 39
1, 436524, Control_c, 0, 67, 48
1, 436528, Note_on_c, 0, 43, 34
1, 436539, Control_c, 0, 64, 62
1, 436539, Control_c, 0, 67, 54
1, 436554, Control_c, 0, 67, 59
1, 436563, Note_off_c, 0, 50, 35
1, 436570, Control_c, 0, 64, 62
1, 436570, Control_c, 0, 67, 64
1, 436584, Control_c, 0, 67, 72
1, 436599, Control_c, 0, 64, 61
1, 436599, Control_c, 0, 67, 82
1, 436614, Control_c, 0, 67, 90
1, 436628, Control_c, 0, 67, 96
1, 436643, Control_c, 0, 64, 61
1, 436643, Control_c, 0, 67, 100
1, 436658, Control_c, 0, 67, 104
1, 436673, Control_c, 0, 67, 107
1, 436688, Control_c, 0, 64, 60
1, 436688, Control_c, 0, 67, 110
1, 436703, Control_c, 0, 67, 113
1, 436717, Control_c, 0, 64, 60
1, 436717, Control_c, 0, 67, 115
1, 436732, Control_c, 0, 67, 119
1, 436747, Control_c, 0, 67, 124
1, 436762, Control_c, 0, 64, 59
1, 436762, Control_c, 0, 67, 127
1, 436787, Note_on_c, 0, 50, 39
1, 436798, Note_off_c, 0, 43, 39
1, 436814, Control_c, 0, 64, 59
1, 437066, Control_c, 0, 64, 58
1, 437091, Note_on_c, 0, 43, 29
1, 437110, Control_c, 0, 64, 58
1, 437123, Note_off_c, 0, 50, 30
1, 437125, Control_c, 0, 64, 57
1, 437140, Control_c, 0, 64, 57
1, 437155, Control_c, 0, 64, 56
1, 437169, Control_c, 0, 64, 55
1, 437184, Control_c, 0, 64, 53
1, 437199, Control_c, 0, 64, 52
1, 437214, Control_c, 0, 64, 51
1, 437229, Control_c, 0, 64, 51
1, 437243, Control_c, 0, 64, 50
1, 437273, Control_c, 0, 64, 49
1, 437288, Control_c, 0, 64, 49
1, 437422, Control_c, 0, 64, 49
1, 437437, Control_c, 0, 64, 50
1, 437452, Control_c, 0, 64, 52
1, 437466, Control_c, 0, 64, 56
1, 437481, Control_c, 0, 64, 60
1, 437496, Control_c, 0, 64, 63
1, 437511, Control_c, 0, 64, 65
1, 437526, Control_c, 0, 64, 67
1, 437548, Control_c, 0, 64, 69
1, 437548, Control_c, 0, 67, 125
1, 437563, Control_c, 0, 64, 70
1, 437578, Control_c, 0, 64, 72
1, 437592, Control_c, 0, 64, 73
1, 437607, Control_c, 0, 64, 75
1, 437607, Control_c, 0, 67, 123
1, 437622, Control_c, 0, 64, 76
1, 437637, Control_c, 0, 64, 77
1, 437652, Control_c, 0, 64, 78
1, 437666, Control_c, 0, 64, 78
1, 437681, Control_c, 0, 64, 79
1, 437681, Control_c, 0, 67, 121
1, 437696, Control_c, 0, 64, 80
1, 437711, Control_c, 0, 64, 81
1, 437726, Control_c, 0, 64, 82
1, 437740, Control_c, 0, 64, 82
1, 437740, Control_c, 0, 67, 119
1, 437755, Control_c, 0, 64, 83
1, 437770, Control_c, 0, 64, 84
1, 437785, Control_c, 0, 64, 85
1, 437800, Control_c, 0, 64, 86
1, 437800, Control_c, 0, 67, 117
1, 437814, Control_c, 0, 64, 87
1, 437829, Control_c, 0, 64, 88
1, 437844, Control_c, 0, 64, 89
1, 437844, Control_c, 0, 67, 115
1, 437859, Control_c, 0, 64, 90
1, 437874, Note_on_c, 0, 50, 30
1, 437874, Control_c, 0, 64, 91
1, 437889, Control_c, 0, 64, 92
1, 437889, Control_c, 0, 67, 113
1, 437904, Control_c, 0, 64, 93
1, 437918, Control_c, 0, 64, 93
1, 437933, Control_c, 0, 64, 94
1, 437933, Control_c, 0, 67, 111
1, 437938, Note_off_c, 0, 43, 37
1, 437948, Control_c, 0, 64, 95
1, 437978, Control_c, 0, 64, 97
1, 437978, Control_c, 0, 67, 109
1, 438007, Control_c, 0, 67, 107
1, 438022, Control_c, 0, 64, 99
1, 438037, Control_c, 0, 67, 105
1, 438081, Control_c, 0, 67, 103
1, 438110, Control_c, 0, 67, 101
1, 438125, Control_c, 0, 64, 101
1, 438140, Control_c, 0, 67, 98
1, 438171, Control_c, 0, 67, 96
1, 438180, Note_off_c, 0, 50, 39
1, 438186, Control_c, 0, 67, 94
1, 438189, Note_off_c, 0, 65, 27
1, 438201, Control_c, 0, 67, 92
1, 438215, Control_c, 0, 67, 81
1, 438230, Control_c, 0, 67, 71
1, 438245, Control_c, 0, 67, 64
1, 438260, Control_c, 0, 67, 58
1, 438275, Control_c, 0, 67, 53
1, 438277, Note_on_c, 0, 43, 30
1, 438297, Control_c, 0, 67, 48
1, 438312, Control_c, 0, 67, 44
1, 438327, Control_c, 0, 67, 41
1, 438342, Control_c, 0, 67, 39
1, 438357, Control_c, 0, 67, 37
1, 438371, Control_c, 0, 67, 0
1, 438379, Note_off_c, 0, 69, 24
1, 438473, Note_off_c, 0, 59, 33
1, 438485, Note_off_c, 0, 36, 35
1, 438595, Note_off_c, 0, 55, 40
1, 438830, Control_c, 0, 64, 99
1, 438845, Control_c, 0, 64, 96
1, 438853, Note_on_c, 0, 36, 35
1, 438860, Control_c, 0, 64, 93
1, 438875, Control_c, 0, 64, 90
1, 438889, Control_c, 0, 64, 86
1, 438891, Poly_aftertouch_c, 0, 59, 127
1, 438904, Control_c, 0, 64, 82
1, 438919, Control_c, 0, 64, 78
1, 438933, Control_c, 0, 64, 75
1, 438948, Control_c, 0, 64, 71
1, 438960, Note_on_c, 0, 62, 66
1, 438964, Control_c, 0, 64, 67
1, 438979, Control_c, 0, 64, 63
1, 438994, Control_c, 0, 64, 61
1, 439009, Control_c, 0, 64, 59
1, 439019, Note_off_c, 0, 43, 34
1, 439024, Control_c, 0, 64, 58
1, 439026, Poly_aftertouch_c, 0, 59, 0
1, 439046, Control_c, 0, 64, 57
1, 439075, Control_c, 0, 64, 57
1, 439090, Control_c, 0, 64, 56
1, 439105, Control_c, 0, 64, 56
1, 439135, Control_c, 0, 64, 55
1, 439406, Note_on_c, 0, 59, 35
1, 439409, Note_on_c, 0, 43, 28
1, 439416, Control_c, 0, 64, 56
1, 439416, Control_c, 0, 67, 40
1, 439430, Control_c, 0, 64, 57
1, 439430, Control_c, 0, 67, 49
1, 439445, Control_c, 0, 64, 58
1, 439445, Control_c, 0, 67, 58
1, 439460, Control_c, 0, 64, 58
1, 439460, Control_c, 0, 67, 66
1, 439475, Control_c, 0, 64, 59
1, 439475, Control_c, 0, 67, 71
1, 439490, Control_c, 0, 64, 60
1, 439490, Control_c, 0, 67, 79
1, 439505, Control_c, 0, 64, 60
1, 439505, Control_c, 0, 67, 86
1, 439520, Control_c, 0, 64, 61
1, 439520, Control_c, 0, 67, 97
1, 439534, Control_c, 0, 64, 61
1, 439534, Control_c, 0, 67, 107
1, 439549, Control_c, 0, 64, 62
1, 439549, Control_c, 0, 67, 118
1, 439564, Control_c, 0, 67, 127
1, 439579, Control_c, 0, 64, 63
1, 439594, Control_c, 0, 64, 63
1, 439638, Control_c, 0, 64, 64
1, 439742, Control_c, 0, 64, 63
1, 439758, Control_c, 0, 64, 63
1, 439773, Control_c, 0, 64, 62
1, 439792, Note_on_c, 0, 50, 28
1, 439794, Control_c, 0, 64, 61
1, 439809, Note_on_c, 0, 53, 24
1, 439809, Control_c, 0, 64, 59
1, 439812, Note_on_c, 0, 55, 22
1, 439824, Control_c, 0, 64, 58
1, 439839, Control_c, 0, 64, 57
1, 439854, Control_c, 0, 64, 55
1, 439868, Control_c, 0, 64, 54
1, 439883, Control_c, 0, 64, 53
1, 439898, Control_c, 0, 64, 52
1, 439913, Control_c, 0, 64, 51
1, 439916, Note_off_c, 0, 59, 42
1, 439928, Note_off_c, 0, 43, 36
1, 439928, Control_c, 0, 64, 51
1, 439943, Control_c, 0, 64, 50
1, 440017, Control_c, 0, 64, 51
1, 440032, Control_c, 0, 64, 53
1, 440047, Control_c, 0, 64, 57
1, 440061, Control_c, 0, 64, 60
1, 440076, Control_c, 0, 64, 62
1, 440091, Control_c, 0, 64, 63
1, 440106, Control_c, 0, 64, 64
1, 440121, Control_c, 0, 64, 65
1, 440135, Control_c, 0, 64, 67
1, 440150, Control_c, 0, 64, 68
1, 440165, Control_c, 0, 64, 68
1, 440194, Control_c, 0, 64, 69
1, 440268, Control_c, 0, 67, 125
1, 440309, Note_on_c, 0, 43, 27
1, 440318, Note_on_c, 0, 59, 34
1, 440363, Note_off_c, 0, 50, 34
1, 440387, Control_c, 0, 64, 68
1, 440402, Control_c, 0, 64, 68
1, 440432, Control_c, 0, 64, 67
1, 440457, Note_on_c, 0, 64, 61
1, 440475, Note_off_c, 0, 53, 36
1, 440475, Note_off_c, 0, 55, 38
1, 440476, Control_c, 0, 67, 123
1, 440539, Note_off_c, 0, 59, 36
1, 440542, Control_c, 0, 64, 68
1, 440542, Control_c, 0, 67, 121
1, 440558, Control_c, 0, 64, 68
1, 440573, Control_c, 0, 64, 69
1, 440588, Control_c, 0, 64, 69
1, 440588, Control_c, 0, 67, 119
1, 440603, Control_c, 0, 64, 70
1, 440617, Control_c, 0, 64, 70
1, 440617, Control_c, 0, 67, 117
1, 440631, Note_on_c, 0, 53, 15
1, 440632, Control_c, 0, 64, 71
1, 440632, Control_c, 0, 67, 115
1, 440639, Note_on_c, 0, 55, 24
1, 440639, Note_off_c, 0, 43, 38
1, 440644, Note_off_c, 0, 62, 31
1, 440646, Note_on_c, 0, 50, 26
1, 440647, Control_c, 0, 64, 71
1, 440647, Control_c, 0, 67, 109
1, 440662, Control_c, 0, 64, 72
1, 440662, Control_c, 0, 67, 101
1, 440676, Note_off_c, 0, 64, 56
1, 440677, Control_c, 0, 67, 95
1, 440691, Control_c, 0, 64, 72
1, 440691, Control_c, 0, 67, 91
1, 440706, Control_c, 0, 67, 90
1, 440855, Control_c, 0, 67, 90
1, 440870, Control_c, 0, 67, 91
1, 440873, Note_off_c, 0, 50, 40
1, 440874, Note_on_c, 0, 43, 36
1, 440899, Control_c, 0, 64, 71
1, 440903, Note_on_c, 0, 65, 59
1, 440914, Control_c, 0, 64, 68
1, 440914, Control_c, 0, 67, 92
1, 440928, Control_c, 0, 64, 63
1, 440943, Control_c, 0, 64, 57
1, 440958, Control_c, 0, 64, 53
1, 440973, Control_c, 0, 64, 52
1, 440988, Control_c, 0, 64, 52
1, 441002, Control_c, 0, 64, 54
1, 441002, Control_c, 0, 67, 91
1, 441017, Control_c, 0, 64, 56
1, 441017, Control_c, 0, 67, 90
1, 441032, Control_c, 0, 64, 59
1, 441032, Control_c, 0, 67, 90
1, 441047, Control_c, 0, 64, 62
1, 441047, Control_c, 0, 67, 89
1, 441062, Control_c, 0, 64, 65
1, 441062, Control_c, 0, 67, 88
1, 441076, Control_c, 0, 64, 68
1, 441076, Control_c, 0, 67, 88
1, 441091, Control_c, 0, 64, 70
1, 441091, Control_c, 0, 67, 86
1, 441098, Note_off_c, 0, 65, 59
1, 441106, Control_c, 0, 64, 72
1, 441106, Control_c, 0, 67, 86
1, 441121, Control_c, 0, 64, 73
1, 441121, Control_c, 0, 67, 85
1, 441135, Control_c, 0, 64, 75
1, 441135, Control_c, 0, 67, 85
1, 441141, Note_on_c, 0, 59, 15
1, 441150, Note_on_c, 0, 50, 30
1, 441150, Control_c, 0, 64, 77
1, 441165, Note_off_c, 0, 43, 37
1, 441165, Control_c, 0, 64, 79
1, 441165, Control_c, 0, 67, 84
1, 441180, Control_c, 0, 64, 80
1, 441180, Control_c, 0, 67, 83
1, 441195, Control_c, 0, 64, 82
1, 441210, Control_c, 0, 64, 83
1, 441225, Control_c, 0, 64, 83
1, 441240, Control_c, 0, 64, 84
1, 441245, Note_off_c, 0, 53, 41
1, 441250, Note_on_c, 0, 67, 65
1, 441251, Note_off_c, 0, 55, 41
1, 441254, Note_off_c, 0, 59, 29
1, 441269, Control_c, 0, 67, 83
1, 441291, Control_c, 0, 67, 82
1, 441306, Control_c, 0, 67, 66
1, 441321, Control_c, 0, 67, 45
1, 441335, Control_c, 0, 67, 0
1, 441386, Note_on_c, 0, 43, 35
1, 441401, Note_on_c, 0, 55, 27
1, 441402, Note_on_c, 0, 53, 31
1, 441411, Control_c, 0, 64, 84
1, 441427, Note_off_c, 0, 50, 33
1, 441440, Control_c, 0, 64, 85
1, 441455, Control_c, 0, 64, 86
1, 441462, Note_off_c, 0, 67, 60
1, 441470, Control_c, 0, 64, 87
1, 441485, Control_c, 0, 64, 89
1, 441500, Control_c, 0, 64, 91
1, 441514, Control_c, 0, 64, 92
1, 441529, Control_c, 0, 64, 94
1, 441544, Control_c, 0, 64, 96
1, 441558, Control_c, 0, 64, 99
1, 441573, Control_c, 0, 64, 102
1, 441584, Note_on_c, 0, 67, 71
1, 441588, Control_c, 0, 64, 106
1, 441603, Control_c, 0, 64, 110
1, 441618, Control_c, 0, 64, 117
1, 441633, Control_c, 0, 64, 127
1, 441809, Note_on_c, 0, 59, 43
1, 441818, Note_on_c, 0, 50, 38
1, 441829, Note_off_c, 0, 67, 61
1, 441832, Note_off_c, 0, 43, 40
1, 441907, Note_off_c, 0, 53, 40
1, 441925, Note_off_c, 0, 55, 41
1, 441932, Note_on_c, 0, 67, 80
1, 441991, Note_off_c, 0, 59, 38
1, 442055, Note_off_c, 0, 50, 39
1, 442129, Note_on_c, 0, 43, 36
1, 442132, Note_on_c, 0, 53, 39
1, 442135, Note_on_c, 0, 55, 38
1, 442215, Note_off_c, 0, 36, 43
1, 442253, Note_off_c, 0, 67, 60
1, 442414, Note_on_c, 0, 36, 42
1, 442450, Note_on_c, 0, 67, 79
1, 442471, Control_c, 0, 64, 108
1, 442486, Control_c, 0, 64, 97
1, 442491, Note_off_c, 0, 43, 40
1, 442500, Control_c, 0, 64, 87
1, 442515, Control_c, 0, 64, 80
1, 442530, Control_c, 0, 64, 74
1, 442545, Control_c, 0, 64, 68
1, 442560, Control_c, 0, 64, 63
1, 442572, Note_off_c, 0, 53, 36
1, 442575, Control_c, 0, 64, 59
1, 442590, Control_c, 0, 64, 58
1, 442605, Control_c, 0, 64, 57
1, 442620, Control_c, 0, 64, 57
1, 442655, Note_off_c, 0, 55, 32
1, 442679, Control_c, 0, 64, 56
1, 442694, Control_c, 0, 64, 56
1, 442723, Control_c, 0, 64, 55
1, 442768, Control_c, 0, 64, 55
1, 442804, Control_c, 0, 64, 54
1, 442819, Control_c, 0, 64, 54
1, 442834, Control_c, 0, 64, 53
1, 442849, Control_c, 0, 64, 52
1, 442864, Control_c, 0, 64, 51
1, 442879, Note_on_c, 0, 43, 41
1, 442879, Note_on_c, 0, 60, 34
1, 442879, Control_c, 0, 64, 50
1, 442954, Control_c, 0, 64, 51
1, 442968, Control_c, 0, 64, 54
1, 442983, Control_c, 0, 64, 57
1, 442998, Control_c, 0, 64, 60
1, 443012, Control_c, 0, 64, 62
1, 443027, Control_c, 0, 64, 63
1, 443042, Control_c, 0, 64, 63
1, 443057, Control_c, 0, 64, 64
1, 443072, Control_c, 0, 64, 64
1, 443086, Control_c, 0, 64, 66
1, 443101, Control_c, 0, 64, 66
1, 443116, Control_c, 0, 64, 67
1, 443130, Control_c, 0, 64, 67
1, 443234, Control_c, 0, 64, 67
1, 443244, Note_on_c, 0, 52, 41
1, 443244, Note_on_c, 0, 55, 35
1, 443249, Control_c, 0, 64, 66
1, 443264, Control_c, 0, 64, 64
1, 443278, Control_c, 0, 64, 62
1, 443293, Control_c, 0, 64, 59
1, 443308, Control_c, 0, 64, 58
1, 443312, Note_off_c, 0, 60, 40
1, 443323, Control_c, 0, 64, 57
1, 443338, Control_c, 0, 64, 56
1, 443397, Note_off_c, 0, 43, 26
1, 443398, Control_c, 0, 64, 57
1, 443412, Control_c, 0, 64, 59
1, 443427, Control_c, 0, 64, 62
1, 443442, Control_c, 0, 64, 65
1, 443457, Control_c, 0, 64, 68
1, 443471, Control_c, 0, 64, 72
1, 443486, Control_c, 0, 64, 74
1, 443501, Control_c, 0, 64, 76
1, 443516, Control_c, 0, 64, 78
1, 443538, Control_c, 0, 64, 79
1, 443553, Control_c, 0, 64, 81
1, 443568, Control_c, 0, 64, 82
1, 443583, Control_c, 0, 64, 82
1, 443597, Control_c, 0, 64, 83
1, 443627, Control_c, 0, 64, 83
1, 443835, Control_c, 0, 64, 83
1, 443850, Control_c, 0, 67, 43
1, 443865, Control_c, 0, 67, 53
1, 443869, Note_on_c, 0, 43, 34
1, 443877, Note_on_c, 0, 60, 31
1, 443880, Control_c, 0, 67, 58
1, 443895, Control_c, 0, 64, 82
1, 443895, Control_c, 0, 67, 59
1, 443897, Note_off_c, 0, 55, 42
1, 443903, Note_off_c, 0, 52, 35
1, 443909, Control_c, 0, 64, 82
1, 443924, Control_c, 0, 64, 81
1, 443939, Control_c, 0, 64, 81
1, 443953, Control_c, 0, 64, 80
1, 443953, Control_c, 0, 67, 60
1, 443968, Control_c, 0, 64, 80
1, 443968, Control_c, 0, 67, 60
1, 443983, Control_c, 0, 64, 79
1, 443983, Control_c, 0, 67, 62
1, 443998, Control_c, 0, 64, 79
1, 443998, Control_c, 0, 67, 62
1, 444013, Control_c, 0, 64, 78
1, 444027, Control_c, 0, 64, 77
1, 444042, Control_c, 0, 64, 77
1, 444057, Control_c, 0, 64, 76
1, 444072, Control_c, 0, 64, 75
1, 444072, Control_c, 0, 67, 62
1, 444074, Note_off_c, 0, 67, 52
1, 444087, Control_c, 0, 64, 74
1, 444087, Control_c, 0, 67, 61
1, 444101, Control_c, 0, 64, 74
1, 444101, Control_c, 0, 67, 60
1, 444111, Note_on_c, 0, 52, 34
1, 444113, Note_on_c, 0, 55, 35
1, 444116, Note_off_c, 0, 43, 39
1, 444116, Control_c, 0, 64, 73
1, 444116, Control_c, 0, 67, 60
1, 444131, Control_c, 0, 64, 73
1, 444131, Control_c, 0, 67, 59
1, 444146, Control_c, 0, 67, 58
1, 444161, Control_c, 0, 64, 72
1, 444161, Control_c, 0, 67, 58
1, 444172, Note_off_c, 0, 60, 42
1, 444176, Control_c, 0, 67, 57
1, 444191, Control_c, 0, 64, 72
1, 444191, Control_c, 0, 67, 56
1, 444206, Control_c, 0, 67, 56
1, 444220, Control_c, 0, 64, 71
1, 444220, Control_c, 0, 67, 55
1, 444235, Control_c, 0, 64, 71
1, 444235, Control_c, 0, 67, 54
1, 444239, Note_on_c, 0, 65, 64
1, 444250, Control_c, 0, 64, 70
1, 444250, Control_c, 0, 67, 54
1, 444265, Control_c, 0, 64, 70
1, 444286, Control_c, 0, 64, 69
1, 444286, Control_c, 0, 67, 53
1, 444293, Note_off_c, 0, 55, 36
1, 444301, Control_c, 0, 64, 68
1, 444315, Note_off_c, 0, 65, 62
1, 444316, Control_c, 0, 64, 67
1, 444331, Control_c, 0, 64, 66
1, 444334, Note_on_c, 0, 64, 60
1, 444346, Control_c, 0, 64, 65
1, 444361, Control_c, 0, 64, 64
1, 444375, Control_c, 0, 64, 63
1, 444375, Control_c, 0, 67, 54
1, 444384, Note_off_c, 0, 64, 60
1, 444390, Control_c, 0, 64, 62
1, 444393, Note_on_c, 0, 62, 59
1, 444405, Control_c, 0, 64, 60
1, 444405, Control_c, 0, 67, 54
1, 444420, Control_c, 0, 64, 58
1, 444435, Control_c, 0, 64, 56
1, 444435, Control_c, 0, 67, 55
1, 444450, Control_c, 0, 64, 52
1, 444461, Note_off_c, 0, 62, 62
1, 444464, Control_c, 0, 64, 48
1, 444477, Note_on_c, 0, 64, 57
1, 444477, Note_off_c, 0, 52, 34
1, 444478, Control_c, 0, 64, 44
1, 444478, Control_c, 0, 67, 56
1, 444489, Note_on_c, 0, 43, 37
1, 444493, Control_c, 0, 64, 39
1, 444493, Control_c, 0, 67, 56
1, 444508, Control_c, 0, 64, 33
1, 444523, Control_c, 0, 64, 29
1, 444523, Control_c, 0, 67, 57
1, 444538, Control_c, 0, 64, 0
1, 444554, Control_c, 0, 67, 58
1, 444569, Control_c, 0, 67, 58
1, 444598, Control_c, 0, 67, 60
1, 444613, Control_c, 0, 67, 61
1, 444628, Control_c, 0, 67, 62
1, 444643, Control_c, 0, 67, 62
1, 444657, Control_c, 0, 67, 63
1, 444672, Control_c, 0, 67, 64
1, 444687, Control_c, 0, 64, 31
1, 444687, Control_c, 0, 67, 64
1, 444702, Control_c, 0, 64, 35
1, 444702, Control_c, 0, 67, 65
1, 444715, Note_on_c, 0, 52, 36
1, 444717, Control_c, 0, 64, 39
1, 444717, Control_c, 0, 67, 66
1, 444721, Note_off_c, 0, 43, 37
1, 444724, Note_on_c, 0, 55, 33
1, 444731, Control_c, 0, 64, 45
1, 444746, Control_c, 0, 64, 51
1, 444746, Control_c, 0, 67, 66
1, 444761, Control_c, 0, 64, 55
1, 444761, Control_c, 0, 67, 67
1, 444775, Control_c, 0, 64, 59
1, 444775, Control_c, 0, 67, 70
1, 444790, Control_c, 0, 64, 61
1, 444790, Control_c, 0, 67, 103
1, 444805, Control_c, 0, 64, 62
1, 444805, Control_c, 0, 67, 126
1, 444820, Control_c, 0, 64, 62
1, 444835, Control_c, 0, 64, 63
1, 444849, Control_c, 0, 64, 63
1, 444894, Control_c, 0, 64, 64
1, 444976, Note_on_c, 0, 60, 34
1, 444983, Control_c, 0, 64, 63
1, 444985, Note_on_c, 0, 43, 26
1, 444998, Control_c, 0, 64, 62
1, 445013, Control_c, 0, 64, 60
1, 445035, Control_c, 0, 64, 56
1, 445049, Control_c, 0, 64, 53
1, 445063, Note_off_c, 0, 52, 36
1, 445064, Control_c, 0, 64, 51
1, 445073, Note_off_c, 0, 55, 41
1, 445079, Control_c, 0, 64, 50
1, 445109, Control_c, 0, 64, 51
1, 445124, Control_c, 0, 64, 53
1, 445139, Control_c, 0, 64, 57
1, 445153, Control_c, 0, 64, 61
1, 445168, Control_c, 0, 64, 64
1, 445183, Control_c, 0, 64, 66
1, 445198, Control_c, 0, 64, 69
1, 445213, Control_c, 0, 64, 71
1, 445228, Control_c, 0, 64, 73
1, 445243, Control_c, 0, 64, 75
1, 445257, Control_c, 0, 64, 77
1, 445272, Control_c, 0, 64, 78
1, 445272, Control_c, 0, 67, 124
1, 445287, Control_c, 0, 64, 80
1, 445301, Control_c, 0, 64, 82
1, 445316, Control_c, 0, 64, 83
1, 445331, Control_c, 0, 64, 84
1, 445331, Control_c, 0, 67, 122
1, 445347, Control_c, 0, 64, 85
1, 445362, Control_c, 0, 64, 85
1, 445377, Control_c, 0, 64, 86
1, 445392, Control_c, 0, 64, 86
1, 445406, Control_c, 0, 64, 87
1, 445421, Control_c, 0, 64, 87
1, 445436, Control_c, 0, 64, 88
1, 445495, Control_c, 0, 64, 88
1, 445569, Control_c, 0, 67, 120
1, 445592, Note_on_c, 0, 52, 32
1, 445610, Note_on_c, 0, 55, 29
1, 445613, Control_c, 0, 67, 118
1, 445623, Note_off_c, 0, 60, 37
1, 445658, Control_c, 0, 67, 116
1, 445673, Note_off_c, 0, 43, 38
1, 445702, Control_c, 0, 67, 114
1, 445762, Control_c, 0, 67, 112
1, 445839, Note_off_c, 0, 52, 33
1, 445843, Control_c, 0, 67, 109
1, 445881, Note_on_c, 0, 43, 32
1, 445887, Note_on_c, 0, 60, 36
1, 445887, Control_c, 0, 67, 107
1, 445931, Control_c, 0, 67, 105
1, 445961, Control_c, 0, 67, 103
1, 445976, Control_c, 0, 67, 100
1, 445991, Control_c, 0, 67, 94
1, 445993, Note_off_c, 0, 36, 39
1, 446006, Control_c, 0, 67, 87
1, 446021, Control_c, 0, 67, 77
1, 446036, Control_c, 0, 67, 68
1, 446050, Control_c, 0, 67, 60
1, 446065, Control_c, 0, 67, 53
1, 446076, Note_off_c, 0, 64, 56
1, 446080, Control_c, 0, 67, 47
1, 446095, Control_c, 0, 64, 88
1, 446095, Control_c, 0, 67, 44
1, 446097, Note_off_c, 0, 55, 38
1, 446110, Control_c, 0, 67, 43
1, 446244, Control_c, 0, 64, 87
1, 446259, Control_c, 0, 64, 87
1, 446259, Control_c, 0, 67, 44
1, 446259, Note_on_c, 0, 36, 36
1, 446274, Control_c, 0, 64, 85
1, 446289, Control_c, 0, 64, 83
1, 446289, Control_c, 0, 67, 45
1, 446303, Control_c, 0, 64, 80
1, 446318, Control_c, 0, 64, 76
1, 446333, Control_c, 0, 64, 72
1, 446333, Control_c, 0, 67, 45
1, 446334, Note_on_c, 0, 64, 66
1, 446347, Control_c, 0, 64, 67
1, 446362, Control_c, 0, 64, 62
1, 446377, Control_c, 0, 64, 56
1, 446392, Control_c, 0, 64, 53
1, 446393, Note_off_c, 0, 43, 40
1, 446407, Control_c, 0, 64, 51
1, 446418, Note_off_c, 0, 60, 54
1, 446421, Control_c, 0, 64, 49
1, 446421, Control_c, 0, 67, 46
1, 446436, Control_c, 0, 64, 48
1, 446451, Control_c, 0, 64, 47
1, 446465, Control_c, 0, 64, 46
1, 446495, Control_c, 0, 64, 48
1, 446510, Control_c, 0, 64, 51
1, 446533, Control_c, 0, 64, 56
1, 446547, Control_c, 0, 64, 59
1, 446562, Control_c, 0, 64, 62
1, 446577, Control_c, 0, 64, 64
1, 446592, Control_c, 0, 64, 66
1, 446607, Control_c, 0, 64, 67
1, 446621, Control_c, 0, 64, 68
1, 446636, Control_c, 0, 64, 70
1, 446641, Note_on_c, 0, 43, 35
1, 446650, Note_on_c, 0, 60, 38
1, 446651, Control_c, 0, 64, 71
1, 446666, Control_c, 0, 64, 72
1, 446680, Control_c, 0, 64, 73
1, 446695, Control_c, 0, 64, 74
1, 446710, Control_c, 0, 64, 74
1, 446725, Control_c, 0, 64, 75
1, 446740, Control_c, 0, 64, 75
1, 446754, Control_c, 0, 64, 76
1, 446799, Control_c, 0, 64, 76
1, 446933, Note_on_c, 0, 59, 38
1, 446939, Note_on_c, 0, 48, 39
1, 446948, Control_c, 0, 64, 77
1, 446953, Note_on_c, 0, 52, 26
1, 446993, Control_c, 0, 67, 45
1, 447013, Note_off_c, 0, 43, 34
1, 447028, Note_off_c, 0, 36, 36
1, 447037, Note_off_c, 0, 60, 23
1, 447052, Control_c, 0, 67, 45
1, 447082, Control_c, 0, 67, 44
1, 447111, Control_c, 0, 67, 43
1, 447141, Control_c, 0, 67, 43
1, 447156, Control_c, 0, 67, 42
1, 447170, Control_c, 0, 64, 77
1, 447170, Control_c, 0, 67, 41
1, 447200, Control_c, 0, 64, 78
1, 447200, Control_c, 0, 67, 41
1, 447230, Control_c, 0, 67, 40
1, 447282, Control_c, 0, 64, 78
1, 447282, Control_c, 0, 67, 39
1, 447341, Control_c, 0, 67, 39
1, 447385, Control_c, 0, 67, 38
1, 447453, Note_off_c, 0, 64, 39
1, 447474, Control_c, 0, 67, 37
1, 447480, Note_on_c, 0, 60, 33
1, 447487, Note_on_c, 0, 43, 30
1, 447506, Note_off_c, 0, 48, 48
1, 447564, Note_off_c, 0, 52, 26
1, 447577, Control_c, 0, 67, 0
1, 447595, Note_off_c, 0, 59, 40
1, 447600, Note_on_c, 0, 64, 57
1, 447660, Note_off_c, 0, 60, 28
1, 447744, Note_on_c, 0, 59, 19
1, 447747, Note_on_c, 0, 52, 17
1, 447753, Note_on_c, 0, 48, 40
1, 447837, Note_off_c, 0, 64, 55
1, 447947, Note_off_c, 0, 52, 35
1, 447964, Control_c, 0, 64, 78
1, 447979, Control_c, 0, 64, 77
1, 447993, Note_on_c, 0, 64, 58
1, 447993, Control_c, 0, 64, 76
1, 448008, Note_on_c, 0, 57, 42
1, 448008, Control_c, 0, 64, 75
1, 448009, Note_off_c, 0, 48, 30
1, 448060, Note_off_c, 0, 59, 41
1, 448197, Note_off_c, 0, 57, 53
1, 448223, Control_c, 0, 64, 76
1, 448232, Note_on_c, 0, 59, 46
1, 448235, Note_off_c, 0, 64, 58
1, 448252, Note_on_c, 0, 48, 42
1, 448280, Note_off_c, 0, 43, 39
1, 448323, Note_off_c, 0, 59, 58
1, 448341, Note_on_c, 0, 64, 74
1, 448476, Note_on_c, 0, 43, 36
1, 448489, Note_on_c, 0, 52, 31
1, 448489, Control_c, 0, 64, 76
1, 448490, Note_on_c, 0, 57, 32
1, 448510, Note_off_c, 0, 48, 35
1, 448519, Control_c, 0, 64, 77
1, 448534, Control_c, 0, 64, 78
1, 448549, Control_c, 0, 64, 79
1, 448564, Control_c, 0, 64, 81
1, 448579, Note_off_c, 0, 64, 57
1, 448579, Control_c, 0, 64, 82
1, 448594, Control_c, 0, 64, 84
1, 448609, Control_c, 0, 64, 85
1, 448623, Control_c, 0, 64, 86
1, 448638, Control_c, 0, 64, 87
1, 448653, Note_on_c, 0, 64, 74
1, 448653, Control_c, 0, 64, 88
1, 448668, Control_c, 0, 64, 88
1, 448683, Control_c, 0, 64, 89
1, 448698, Control_c, 0, 64, 89
1, 448713, Control_c, 0, 64, 90
1, 448726, Note_off_c, 0, 57, 38
1, 448728, Control_c, 0, 64, 90
1, 448742, Control_c, 0, 64, 91
1, 448757, Control_c, 0, 64, 91
1, 448779, Control_c, 0, 64, 92
1, 448809, Control_c, 0, 64, 92
1, 448823, Control_c, 0, 64, 93
1, 448838, Control_c, 0, 64, 93
1, 448853, Control_c, 0, 64, 94
1, 448868, Control_c, 0, 64, 95
1, 448883, Control_c, 0, 64, 96
1, 448900, Note_on_c, 0, 48, 41
1, 448903, Note_off_c, 0, 43, 59
1, 448927, Note_on_c, 0, 59, 43
1, 448927, Control_c, 0, 64, 98
1, 448930, Note_off_c, 0, 64, 59
1, 449014, Note_on_c, 0, 64, 81
1, 449017, Control_c, 0, 64, 100
1, 449036, Note_off_c, 0, 52, 39
1, 449054, Note_off_c, 0, 59, 46
1, 449162, Note_on_c, 0, 52, 38
1, 449171, Note_on_c, 0, 43, 40
1, 449200, Note_on_c, 0, 57, 36
1, 449240, Note_off_c, 0, 48, 37
1, 449286, Note_off_c, 0, 52, 46
1, 449348, Note_off_c, 0, 64, 63
1, 449491, Control_c, 0, 64, 98
1, 449494, Note_on_c, 0, 36, 44
1, 449506, Control_c, 0, 64, 96
1, 449529, Control_c, 0, 64, 93
1, 449544, Control_c, 0, 64, 89
1, 449559, Control_c, 0, 64, 84
1, 449571, Note_on_c, 0, 65, 76
1, 449573, Control_c, 0, 64, 79
1, 449588, Control_c, 0, 64, 75
1, 449603, Control_c, 0, 64, 70
1, 449614, Note_off_c, 0, 43, 34
1, 449618, Control_c, 0, 64, 66
1, 449633, Control_c, 0, 64, 62
1, 449647, Control_c, 0, 64, 58
1, 449662, Control_c, 0, 64, 56
1, 449668, Note_off_c, 0, 57, 59
1, 449677, Control_c, 0, 64, 55
1, 449705, Control_c, 0, 64, 54
1, 449720, Control_c, 0, 64, 53
1, 449735, Control_c, 0, 64, 53
1, 449750, Control_c, 0, 64, 52
1, 449765, Control_c, 0, 64, 51
1, 449780, Control_c, 0, 64, 51
1, 449795, Control_c, 0, 64, 50
1, 449810, Control_c, 0, 64, 49
1, 449825, Control_c, 0, 64, 49
1, 449839, Control_c, 0, 64, 48
1, 449854, Control_c, 0, 64, 47
1, 449869, Control_c, 0, 64, 46
1, 449884, Control_c, 0, 64, 45
1, 449898, Control_c, 0, 64, 44
1, 449913, Control_c, 0, 64, 43
1, 449925, Note_on_c, 0, 43, 37
1, 449928, Control_c, 0, 64, 43
1, 449934, Note_on_c, 0, 59, 39
1, 449972, Control_c, 0, 64, 43
1, 449987, Control_c, 0, 64, 47
1, 450002, Control_c, 0, 64, 53
1, 450017, Control_c, 0, 64, 59
1, 450032, Control_c, 0, 64, 63
1, 450046, Control_c, 0, 64, 65
1, 450061, Control_c, 0, 64, 67
1, 450076, Control_c, 0, 64, 69
1, 450090, Control_c, 0, 64, 70
1, 450105, Control_c, 0, 64, 71
1, 450120, Control_c, 0, 64, 72
1, 450136, Control_c, 0, 64, 73
1, 450151, Control_c, 0, 64, 74
1, 450166, Control_c, 0, 64, 74
1, 450181, Control_c, 0, 64, 75
1, 450195, Control_c, 0, 64, 76
1, 450210, Control_c, 0, 64, 77
1, 450225, Control_c, 0, 64, 78
1, 450240, Control_c, 0, 64, 78
1, 450277, Control_c, 0, 64, 79
1, 450307, Control_c, 0, 64, 79
1, 450313, Note_on_c, 0, 55, 44
1, 450325, Note_on_c, 0, 50, 40
1, 450351, Control_c, 0, 64, 80
1, 450358, Note_on_c, 0, 53, 33
1, 450408, Note_off_c, 0, 43, 32
1, 450440, Control_c, 0, 64, 80
1, 450506, Note_off_c, 0, 53, 40
1, 450528, Control_c, 0, 64, 81
1, 450583, Note_off_c, 0, 65, 57
1, 450667, Note_off_c, 0, 55, 35
1, 450785, Note_on_c, 0, 67, 69
1, 450857, Note_off_c, 0, 59, 37
1, 450884, Control_c, 0, 64, 80
1, 450974, Control_c, 0, 64, 80
1, 450989, Control_c, 0, 64, 79
1, 451004, Control_c, 0, 64, 79
1, 451026, Control_c, 0, 64, 78
1, 451041, Control_c, 0, 64, 77
1, 451056, Control_c, 0, 64, 76
1, 451070, Control_c, 0, 64, 75
1, 451085, Control_c, 0, 64, 73
1, 451100, Control_c, 0, 64, 71
1, 451115, Control_c, 0, 64, 69
1, 451119, Note_on_c, 0, 43, 35
1, 451130, Control_c, 0, 64, 67
1, 451144, Control_c, 0, 64, 65
1, 451159, Control_c, 0, 64, 64
1, 451174, Control_c, 0, 64, 63
1, 451189, Control_c, 0, 64, 62
1, 451199, Note_off_c, 0, 50, 43
1, 451204, Control_c, 0, 64, 62
1, 451230, Note_on_c, 0, 65, 67
1, 451248, Control_c, 0, 64, 61
1, 451292, Control_c, 0, 64, 61
1, 451301, Note_off_c, 0, 67, 39
1, 451351, Control_c, 0, 64, 60
1, 451375, Note_off_c, 0, 43, 54
1, 451381, Control_c, 0, 64, 60
1, 451398, Note_on_c, 0, 50, 33
1, 451410, Control_c, 0, 64, 59
1, 451425, Control_c, 0, 67, 41
1, 451440, Control_c, 0, 64, 59
1, 451440, Control_c, 0, 67, 53
1, 451455, Control_c, 0, 67, 64
1, 451468, Note_off_c, 0, 65, 57
1, 451470, Control_c, 0, 64, 58
1, 451470, Control_c, 0, 67, 74
1, 451475, Note_on_c, 0, 64, 62
1, 451485, Control_c, 0, 67, 84
1, 451500, Control_c, 0, 64, 58
1, 451500, Control_c, 0, 67, 96
1, 451515, Control_c, 0, 67, 111
1, 451530, Control_c, 0, 67, 127
1, 451539, Note_off_c, 0, 64, 64
1, 451544, Control_c, 0, 64, 57
1, 451546, Note_on_c, 0, 62, 64
1, 451574, Control_c, 0, 64, 57
1, 451604, Control_c, 0, 64, 56
1, 451607, Note_off_c, 0, 62, 62
1, 451616, Note_on_c, 0, 60, 59
1, 451618, Control_c, 0, 64, 56
1, 451633, Control_c, 0, 64, 55
1, 451648, Control_c, 0, 64, 54
1, 451662, Control_c, 0, 64, 53
1, 451677, Control_c, 0, 64, 52
1, 451688, Note_on_c, 0, 43, 36
1, 451688, Note_off_c, 0, 60, 58
1, 451691, Note_on_c, 0, 62, 56
1, 451692, Control_c, 0, 64, 50
1, 451702, Note_off_c, 0, 50, 43
1, 451707, Control_c, 0, 64, 48
1, 451722, Control_c, 0, 64, 45
1, 451738, Control_c, 0, 64, 42
1, 451753, Control_c, 0, 64, 39
1, 451774, Control_c, 0, 64, 35
1, 451789, Control_c, 0, 64, 32
1, 451819, Control_c, 0, 64, 30
1, 451923, Control_c, 0, 64, 33
1, 451938, Control_c, 0, 64, 37
1, 451953, Note_on_c, 0, 50, 38
1, 451953, Control_c, 0, 64, 40
1, 451968, Note_off_c, 0, 43, 38
1, 451968, Control_c, 0, 64, 44
1, 451973, Note_on_c, 0, 59, 35
1, 451983, Control_c, 0, 64, 48
1, 451998, Control_c, 0, 64, 54
1, 452012, Control_c, 0, 64, 58
1, 452027, Control_c, 0, 64, 60
1, 452042, Control_c, 0, 64, 62
1, 452057, Control_c, 0, 64, 62
1, 452072, Control_c, 0, 64, 63
1, 452086, Control_c, 0, 64, 64
1, 452101, Control_c, 0, 64, 65
1, 452116, Control_c, 0, 64, 66
1, 452131, Control_c, 0, 64, 66
1, 452146, Control_c, 0, 64, 67
1, 452175, Control_c, 0, 64, 67
1, 452190, Control_c, 0, 64, 68
1, 452205, Control_c, 0, 64, 68
1, 452224, Note_on_c, 0, 43, 25
1, 452234, Control_c, 0, 64, 69
1, 452239, Note_on_c, 0, 53, 29
1, 452239, Note_on_c, 0, 55, 32
1, 452249, Control_c, 0, 64, 69
1, 452264, Control_c, 0, 64, 70
1, 452279, Control_c, 0, 64, 70
1, 452293, Control_c, 0, 64, 71
1, 452303, Note_off_c, 0, 50, 36
1, 452323, Control_c, 0, 64, 71
1, 452335, Note_off_c, 0, 59, 41
1, 452338, Control_c, 0, 64, 72
1, 452353, Control_c, 0, 64, 72
1, 452367, Control_c, 0, 64, 73
1, 452382, Control_c, 0, 64, 73
1, 452397, Control_c, 0, 64, 74
1, 452412, Control_c, 0, 64, 75
1, 452427, Control_c, 0, 64, 75
1, 452442, Control_c, 0, 64, 76
1, 452457, Control_c, 0, 64, 76
1, 452472, Control_c, 0, 64, 77
1, 452486, Control_c, 0, 64, 78
1, 452501, Control_c, 0, 64, 78
1, 452539, Control_c, 0, 64, 79
1, 452598, Control_c, 0, 64, 79
1, 452746, Control_c, 0, 64, 80
1, 452877, Note_on_c, 0, 59, 30
1, 452882, Note_on_c, 0, 50, 32
1, 452907, Note_off_c, 0, 53, 33
1, 452915, Note_off_c, 0, 55, 38
1, 452916, Note_off_c, 0, 43, 35
1, 453147, Note_on_c, 0, 43, 33
1, 453151, Note_on_c, 0, 53, 22
1, 453157, Note_on_c, 0, 55, 29
1, 453157, Note_off_c, 0, 50, 36
1, 453163, Note_off_c, 0, 59, 34
1, 453201, Note_off_c, 0, 62, 61
1, 453230, Note_off_c, 0, 36, 37
1, 453347, Control_c, 0, 64, 79
1, 453421, Control_c, 0, 64, 79
1, 453429, Note_on_c, 0, 36, 25
1, 453436, Control_c, 0, 64, 78
1, 453450, Control_c, 0, 64, 77
1, 453464, Control_c, 0, 64, 76
1, 453479, Control_c, 0, 64, 74
1, 453483, Note_on_c, 0, 62, 61
1, 453494, Control_c, 0, 64, 72
1, 453509, Control_c, 0, 64, 69
1, 453524, Control_c, 0, 64, 65
1, 453530, Note_off_c, 0, 43, 36
1, 453539, Control_c, 0, 64, 61
1, 453554, Control_c, 0, 64, 59
1, 453569, Control_c, 0, 64, 58
1, 453583, Control_c, 0, 64, 57
1, 453744, Note_on_c, 0, 43, 33
1, 453744, Note_on_c, 0, 59, 41
1, 453776, Control_c, 0, 64, 58
1, 453786, Note_off_c, 0, 53, 38
1, 453791, Control_c, 0, 64, 58
1, 453793, Note_off_c, 0, 55, 40
1, 453805, Control_c, 0, 64, 59
1, 453820, Control_c, 0, 64, 60
1, 453835, Control_c, 0, 64, 62
1, 453850, Control_c, 0, 64, 64
1, 453864, Control_c, 0, 64, 65
1, 453879, Control_c, 0, 64, 67
1, 453894, Control_c, 0, 64, 69
1, 453909, Control_c, 0, 64, 70
1, 453924, Control_c, 0, 64, 71
1, 453938, Control_c, 0, 64, 72
1, 453953, Control_c, 0, 64, 73
1, 453968, Control_c, 0, 64, 74
1, 453983, Control_c, 0, 64, 75
1, 453998, Control_c, 0, 64, 76
1, 454020, Control_c, 0, 64, 77
1, 454035, Control_c, 0, 64, 78
1, 454035, Control_c, 0, 67, 123
1, 454040, Note_on_c, 0, 50, 37
1, 454050, Control_c, 0, 64, 79
1, 454050, Control_c, 0, 67, 116
1, 454052, Note_on_c, 0, 55, 31
1, 454053, Note_on_c, 0, 53, 29
1, 454064, Control_c, 0, 64, 80
1, 454064, Control_c, 0, 67, 110
1, 454079, Control_c, 0, 64, 81
1, 454079, Control_c, 0, 67, 104
1, 454094, Control_c, 0, 64, 82
1, 454094, Control_c, 0, 67, 97
1, 454109, Control_c, 0, 64, 83
1, 454109, Control_c, 0, 67, 88
1, 454124, Control_c, 0, 64, 84
1, 454124, Control_c, 0, 67, 77
1, 454140, Control_c, 0, 64, 85
1, 454140, Control_c, 0, 67, 68
1, 454147, Note_off_c, 0, 59, 36
1, 454155, Control_c, 0, 64, 86
1, 454155, Control_c, 0, 67, 60
1, 454169, Control_c, 0, 64, 86
1, 454169, Control_c, 0, 67, 54
1, 454177, Note_off_c, 0, 43, 36
1, 454184, Control_c, 0, 64, 87
1, 454184, Control_c, 0, 67, 50
1, 454199, Control_c, 0, 64, 88
1, 454199, Control_c, 0, 67, 46
1, 454214, Control_c, 0, 67, 42
1, 454229, Control_c, 0, 64, 88
1, 454229, Control_c, 0, 67, 38
1, 454243, Control_c, 0, 67, 0
1, 454258, Control_c, 0, 64, 89
1, 454526, Note_on_c, 0, 43, 33
1, 454528, Note_on_c, 0, 59, 37
1, 454612, Note_off_c, 0, 50, 39
1, 454613, Control_c, 0, 64, 88
1, 454643, Control_c, 0, 64, 88
1, 454649, Note_on_c, 0, 64, 60
1, 454652, Note_off_c, 0, 53, 39
1, 454658, Note_off_c, 0, 55, 41
1, 454673, Control_c, 0, 64, 87
1, 454702, Control_c, 0, 64, 87
1, 454769, Control_c, 0, 64, 86
1, 454794, Note_on_c, 0, 55, 33
1, 454794, Note_on_c, 0, 50, 37
1, 454797, Note_on_c, 0, 53, 36
1, 454806, Note_off_c, 0, 59, 39
1, 454814, Note_off_c, 0, 43, 38
1, 454844, Note_off_c, 0, 62, 35
1, 454993, Control_c, 0, 64, 86
1, 455008, Control_c, 0, 64, 85
1, 455023, Control_c, 0, 64, 81
1, 455035, Note_on_c, 0, 65, 72
1, 455038, Control_c, 0, 64, 75
1, 455045, Note_on_c, 0, 43, 40
1, 455053, Control_c, 0, 64, 68
1, 455067, Control_c, 0, 64, 64
1, 455082, Control_c, 0, 64, 63
1, 455102, Note_off_c, 0, 50, 33
1, 455111, Control_c, 0, 64, 64
1, 455126, Control_c, 0, 64, 66
1, 455135, Note_off_c, 0, 64, 33
1, 455141, Control_c, 0, 64, 68
1, 455156, Control_c, 0, 64, 71
1, 455171, Control_c, 0, 64, 73
1, 455185, Control_c, 0, 64, 74
1, 455200, Control_c, 0, 64, 76
1, 455215, Control_c, 0, 64, 77
1, 455229, Control_c, 0, 64, 79
1, 455239, Note_off_c, 0, 65, 61
1, 455244, Control_c, 0, 64, 80
1, 455247, Note_on_c, 0, 59, 51
1, 455259, Control_c, 0, 64, 82
1, 455274, Control_c, 0, 64, 84
1, 455284, Note_on_c, 0, 50, 31
1, 455289, Control_c, 0, 64, 85
1, 455303, Control_c, 0, 64, 87
1, 455318, Control_c, 0, 64, 89
1, 455329, Note_off_c, 0, 43, 34
1, 455333, Control_c, 0, 64, 91
1, 455348, Control_c, 0, 64, 92
1, 455362, Note_on_c, 0, 67, 79
1, 455363, Control_c, 0, 64, 93
1, 455378, Control_c, 0, 64, 94
1, 455384, Note_off_c, 0, 53, 35
1, 455396, Note_off_c, 0, 55, 36
1, 455432, Note_off_c, 0, 59, 29
1, 455488, Note_on_c, 0, 53, 44
1, 455492, Note_on_c, 0, 43, 44
1, 455492, Note_on_c, 0, 55, 46
1, 455605, Note_off_c, 0, 67, 61
1, 455682, Control_c, 0, 64, 93
1, 455685, Note_on_c, 0, 67, 87
1, 455697, Control_c, 0, 64, 91
1, 455709, Note_off_c, 0, 50, 40
1, 455711, Control_c, 0, 64, 90
1, 455816, Control_c, 0, 64, 91
1, 455831, Control_c, 0, 64, 91
1, 455846, Control_c, 0, 64, 92
1, 455860, Control_c, 0, 64, 93
1, 455875, Control_c, 0, 64, 95
1, 455890, Control_c, 0, 64, 97
1, 455905, Control_c, 0, 64, 99
1, 455920, Control_c, 0, 64, 101
1, 455923, Note_on_c, 0, 59, 60
1, 455923, Note_off_c, 0, 43, 57
1, 455926, Note_on_c, 0, 50, 50
1, 455934, Control_c, 0, 64, 103
1, 455949, Note_off_c, 0, 67, 60
1, 455949, Control_c, 0, 64, 106
1, 455964, Control_c, 0, 64, 109
1, 455979, Control_c, 0, 64, 114
1, 455994, Control_c, 0, 64, 120
1, 456008, Control_c, 0, 64, 127
1, 456016, Note_off_c, 0, 53, 46
1, 456019, Note_off_c, 0, 55, 56
1, 456043, Note_on_c, 0, 67, 91
1, 456081, Note_off_c, 0, 59, 62
1, 456104, Note_off_c, 0, 50, 60
1, 456255, Note_on_c, 0, 43, 44
1, 456283, Note_on_c, 0, 53, 45
1, 456286, Note_on_c, 0, 55, 44
1, 456403, Note_off_c, 0, 36, 41
1, 456443, Note_off_c, 0, 67, 58
1, 456602, Note_on_c, 0, 36, 59
1, 456666, Note_on_c, 0, 67, 86
1, 456666, Note_off_c, 0, 43, 51
1, 456683, Control_c, 0, 64, 108
1, 456698, Control_c, 0, 64, 100
1, 456713, Control_c, 0, 64, 94
1, 456728, Control_c, 0, 64, 88
1, 456743, Control_c, 0, 64, 82
1, 456757, Control_c, 0, 64, 77
1, 456761, Note_off_c, 0, 53, 37
1, 456772, Control_c, 0, 64, 73
1, 456787, Control_c, 0, 64, 68
1, 456802, Control_c, 0, 64, 64
1, 456808, Note_off_c, 0, 55, 34
1, 456817, Control_c, 0, 64, 61
1, 456831, Control_c, 0, 64, 59
1, 456846, Control_c, 0, 64, 58
1, 456861, Control_c, 0, 64, 58
1, 456875, Control_c, 0, 64, 57
1, 456890, Control_c, 0, 64, 57
1, 456905, Control_c, 0, 64, 56
1, 456920, Control_c, 0, 64, 55
1, 456949, Control_c, 0, 64, 55
1, 456964, Control_c, 0, 64, 54
1, 456979, Control_c, 0, 64, 53
1, 456994, Control_c, 0, 64, 53
1, 457016, Control_c, 0, 64, 52
1, 457031, Control_c, 0, 64, 51
1, 457046, Control_c, 0, 64, 50
1, 457061, Control_c, 0, 64, 49
1, 457076, Control_c, 0, 64, 48
1, 457090, Control_c, 0, 64, 47
1, 457100, Note_on_c, 0, 60, 47
1, 457105, Control_c, 0, 64, 46
1, 457113, Note_on_c, 0, 43, 42
1, 457120, Control_c, 0, 64, 45
1, 457135, Control_c, 0, 64, 45
1, 457193, Control_c, 0, 64, 45
1, 457207, Control_c, 0, 64, 47
1, 457222, Control_c, 0, 64, 50
1, 457237, Control_c, 0, 64, 53
1, 457252, Control_c, 0, 64, 57
1, 457267, Control_c, 0, 64, 60
1, 457281, Control_c, 0, 64, 63
1, 457296, Control_c, 0, 64, 67
1, 457311, Control_c, 0, 64, 69
1, 457327, Control_c, 0, 64, 71
1, 457342, Control_c, 0, 64, 72
1, 457357, Control_c, 0, 64, 73
1, 457372, Control_c, 0, 64, 73
1, 457386, Control_c, 0, 64, 74
1, 457401, Control_c, 0, 64, 75
1, 457416, Control_c, 0, 64, 76
1, 457430, Control_c, 0, 64, 76
1, 457460, Control_c, 0, 64, 77
1, 457466, Note_on_c, 0, 52, 49
1, 457468, Note_on_c, 0, 55, 47
1, 457490, Control_c, 0, 64, 77
1, 457504, Control_c, 0, 64, 78
1, 457518, Note_off_c, 0, 60, 57
1, 457519, Control_c, 0, 64, 79
1, 457524, Note_off_c, 0, 43, 29
1, 457534, Control_c, 0, 64, 80
1, 457549, Control_c, 0, 64, 80
1, 457564, Control_c, 0, 64, 81
1, 457578, Control_c, 0, 64, 82
1, 457593, Control_c, 0, 64, 82
1, 457608, Control_c, 0, 64, 83
1, 457623, Control_c, 0, 64, 84
1, 457637, Control_c, 0, 64, 84
1, 457667, Control_c, 0, 64, 85
1, 457712, Control_c, 0, 64, 85
1, 458016, Note_on_c, 0, 60, 39
1, 458020, Note_on_c, 0, 43, 31
1, 458060, Note_off_c, 0, 52, 38
1, 458060, Control_c, 0, 64, 85
1, 458076, Note_off_c, 0, 55, 39
1, 458209, Control_c, 0, 64, 84
1, 458250, Note_off_c, 0, 67, 60
1, 458260, Note_on_c, 0, 52, 47
1, 458272, Note_on_c, 0, 55, 48
1, 458283, Control_c, 0, 64, 84
1, 458302, Note_off_c, 0, 43, 36
1, 458305, Note_off_c, 0, 60, 38
1, 458378, Note_on_c, 0, 65, 69
1, 458475, Control_c, 0, 64, 83
1, 458511, Note_off_c, 0, 65, 60
1, 458522, Note_on_c, 0, 64, 73
1, 458527, Control_c, 0, 64, 83
1, 458542, Control_c, 0, 64, 82
1, 458557, Control_c, 0, 64, 81
1, 458572, Control_c, 0, 64, 80
1, 458587, Control_c, 0, 64, 79
1, 458601, Control_c, 0, 64, 77
1, 458606, Note_off_c, 0, 64, 62
1, 458612, Note_on_c, 0, 62, 75
1, 458616, Control_c, 0, 64, 73
1, 458631, Control_c, 0, 64, 70
1, 458642, Note_on_c, 0, 43, 37
1, 458646, Control_c, 0, 64, 65
1, 458660, Control_c, 0, 64, 61
1, 458666, Note_off_c, 0, 55, 42
1, 458675, Control_c, 0, 64, 56
1, 458691, Note_off_c, 0, 62, 63
1, 458691, Control_c, 0, 64, 52
1, 458706, Note_off_c, 0, 52, 36
1, 458706, Control_c, 0, 64, 46
1, 458713, Note_on_c, 0, 64, 64
1, 458721, Control_c, 0, 64, 33
1, 458735, Control_c, 0, 64, 0
1, 458839, Control_c, 0, 64, 33
1, 458854, Control_c, 0, 64, 43
1, 458869, Control_c, 0, 64, 52
1, 458883, Control_c, 0, 64, 58
1, 458898, Control_c, 0, 64, 60
1, 458913, Control_c, 0, 64, 61
1, 458925, Note_on_c, 0, 55, 44
1, 458929, Control_c, 0, 64, 63
1, 458937, Note_on_c, 0, 52, 37
1, 458943, Control_c, 0, 64, 64
1, 458945, Note_off_c, 0, 43, 39
1, 458958, Control_c, 0, 64, 66
1, 458973, Control_c, 0, 64, 67
1, 458988, Control_c, 0, 64, 68
1, 459003, Control_c, 0, 64, 69
1, 459018, Control_c, 0, 64, 69
1, 459033, Control_c, 0, 64, 70
1, 459047, Control_c, 0, 64, 71
1, 459062, Control_c, 0, 64, 71
1, 459092, Control_c, 0, 64, 72
1, 459107, Control_c, 0, 64, 72
1, 459122, Control_c, 0, 64, 73
1, 459137, Control_c, 0, 64, 73
1, 459166, Control_c, 0, 64, 74
1, 459170, Note_on_c, 0, 60, 39
1, 459176, Note_on_c, 0, 43, 36
1, 459195, Control_c, 0, 64, 74
1, 459210, Control_c, 0, 64, 75
1, 459225, Note_off_c, 0, 55, 36
1, 459225, Control_c, 0, 64, 75
1, 459237, Note_off_c, 0, 52, 36
1, 459240, Control_c, 0, 64, 76
1, 459262, Control_c, 0, 64, 77
1, 459277, Control_c, 0, 64, 78
1, 459292, Control_c, 0, 64, 79
1, 459307, Control_c, 0, 64, 80
1, 459322, Control_c, 0, 64, 81
1, 459337, Control_c, 0, 64, 82
1, 459351, Control_c, 0, 64, 84
1, 459366, Control_c, 0, 64, 85
1, 459381, Control_c, 0, 64, 86
1, 459396, Control_c, 0, 64, 88
1, 459410, Control_c, 0, 64, 89
1, 459425, Control_c, 0, 64, 89
1, 459440, Control_c, 0, 64, 90
1, 459455, Control_c, 0, 64, 90
1, 459470, Control_c, 0, 64, 91
1, 459499, Control_c, 0, 64, 91
1, 459544, Control_c, 0, 64, 92
1, 459688, Note_off_c, 0, 60, 40
1, 459690, Note_on_c, 0, 55, 46
1, 459692, Note_on_c, 0, 52, 38
1, 459750, Note_off_c, 0, 43, 34
1, 459847, Note_off_c, 0, 52, 54
1, 459911, Note_on_c, 0, 60, 64
1, 459921, Note_on_c, 0, 43, 42
1, 459975, Note_off_c, 0, 55, 46
1, 460011, Note_off_c, 0, 64, 64
1, 460022, Note_off_c, 0, 36, 37
1, 460070, Control_c, 0, 64, 91
1, 460144, Note_on_c, 0, 36, 51
1, 460144, Control_c, 0, 64, 91
1, 460174, Control_c, 0, 64, 90
1, 460188, Control_c, 0, 64, 88
1, 460203, Control_c, 0, 64, 86
1, 460218, Control_c, 0, 64, 83
1, 460224, Note_on_c, 0, 64, 81
1, 460231, Note_off_c, 0, 43, 36
1, 460232, Control_c, 0, 64, 78
1, 460247, Control_c, 0, 64, 71
1, 460262, Control_c, 0, 64, 64
1, 460277, Control_c, 0, 64, 56
1, 460288, Note_off_c, 0, 60, 59
1, 460292, Control_c, 0, 64, 49
1, 460306, Control_c, 0, 64, 42
1, 460321, Control_c, 0, 64, 36
1, 460336, Control_c, 0, 64, 32
1, 460366, Control_c, 0, 64, 30
1, 460395, Control_c, 0, 64, 32
1, 460410, Control_c, 0, 64, 36
1, 460425, Control_c, 0, 64, 41
1, 460440, Control_c, 0, 64, 46
1, 460454, Control_c, 0, 64, 53
1, 460469, Control_c, 0, 64, 59
1, 460484, Control_c, 0, 64, 62
1, 460496, Note_on_c, 0, 62, 56
1, 460499, Control_c, 0, 64, 64
1, 460514, Note_on_c, 0, 43, 38
1, 460514, Control_c, 0, 64, 65
1, 460529, Control_c, 0, 64, 66
1, 460544, Control_c, 0, 64, 68
1, 460559, Control_c, 0, 64, 69
1, 460574, Control_c, 0, 64, 71
1, 460589, Control_c, 0, 64, 71
1, 460603, Control_c, 0, 64, 72
1, 460633, Control_c, 0, 64, 73
1, 460663, Control_c, 0, 64, 73
1, 460693, Control_c, 0, 64, 74
1, 460775, Note_on_c, 0, 58, 57
1, 460789, Control_c, 0, 64, 74
1, 460792, Note_on_c, 0, 48, 44
1, 460796, Note_on_c, 0, 52, 33
1, 460850, Note_off_c, 0, 43, 33
1, 460863, Control_c, 0, 64, 75
1, 460863, Note_off_c, 0, 62, 32
1, 460893, Control_c, 0, 64, 75
1, 460908, Control_c, 0, 64, 76
1, 460922, Control_c, 0, 64, 76
1, 460937, Control_c, 0, 64, 77
1, 460952, Control_c, 0, 64, 77
1, 460967, Control_c, 0, 64, 78
1, 460982, Control_c, 0, 64, 78
1, 460996, Control_c, 0, 64, 79
1, 461011, Control_c, 0, 64, 79
1, 461026, Control_c, 0, 64, 80
1, 461041, Control_c, 0, 64, 80
1, 461055, Control_c, 0, 64, 81
1, 461070, Control_c, 0, 64, 81
1, 461115, Control_c, 0, 64, 82
1, 461250, Note_off_c, 0, 64, 56
1, 461267, Note_on_c, 0, 62, 45
1, 461276, Note_on_c, 0, 43, 30
1, 461340, Note_off_c, 0, 48, 37
1, 461348, Note_off_c, 0, 52, 27
1, 461395, Note_on_c, 0, 64, 67
1, 461402, Note_off_c, 0, 58, 37
1, 461486, Control_c, 0, 64, 82
1, 461525, Note_off_c, 0, 62, 25
1, 461536, Note_on_c, 0, 58, 44
1, 461553, Note_off_c, 0, 43, 37
1, 461557, Note_on_c, 0, 52, 33
1, 461580, Note_on_c, 0, 48, 31
1, 461654, Note_off_c, 0, 64, 60
1, 461671, Control_c, 0, 64, 83
1, 461764, Note_on_c, 0, 64, 77
1, 461786, Note_on_c, 0, 43, 40
1, 461800, Note_off_c, 0, 58, 61
1, 461810, Note_off_c, 0, 48, 41
1, 461990, Note_on_c, 0, 62, 54
1, 461997, Control_c, 0, 64, 83
1, 462010, Note_on_c, 0, 48, 38
1, 462011, Note_off_c, 0, 64, 61
1, 462017, Note_off_c, 0, 43, 37
1, 462022, Note_off_c, 0, 52, 14
1, 462079, Note_on_c, 0, 64, 78
1, 462147, Control_c, 0, 64, 84
1, 462205, Note_off_c, 0, 62, 27
1, 462221, Note_on_c, 0, 58, 50
1, 462231, Note_on_c, 0, 52, 41
1, 462249, Note_on_c, 0, 43, 37
1, 462282, Note_off_c, 0, 48, 35
1, 462317, Control_c, 0, 64, 84
1, 462361, Note_off_c, 0, 64, 63
1, 462362, Control_c, 0, 64, 85
1, 462391, Control_c, 0, 64, 85
1, 462397, Note_off_c, 0, 52, 43
1, 462420, Control_c, 0, 64, 86
1, 462423, Note_on_c, 0, 64, 83
1, 462446, Note_off_c, 0, 58, 60
1, 462465, Control_c, 0, 64, 86
1, 462480, Control_c, 0, 64, 87
1, 462494, Control_c, 0, 64, 87
1, 462509, Control_c, 0, 64, 88
1, 462524, Control_c, 0, 64, 88
1, 462539, Control_c, 0, 64, 89
1, 462554, Control_c, 0, 64, 89
1, 462568, Control_c, 0, 64, 90
1, 462583, Control_c, 0, 64, 90
1, 462598, Control_c, 0, 64, 91
1, 462613, Control_c, 0, 64, 91
1, 462627, Control_c, 0, 64, 92
1, 462642, Control_c, 0, 64, 92
1, 462657, Control_c, 0, 64, 93
1, 462672, Control_c, 0, 64, 93
1, 462678, Note_on_c, 0, 62, 51
1, 462687, Control_c, 0, 64, 94
1, 462693, Note_on_c, 0, 48, 44
1, 462702, Control_c, 0, 64, 94
1, 462707, Note_off_c, 0, 43, 38
1, 462717, Control_c, 0, 64, 95
1, 462722, Note_off_c, 0, 64, 58
1, 462732, Control_c, 0, 64, 95
1, 462746, Control_c, 0, 64, 96
1, 462817, Note_on_c, 0, 64, 89
1, 462850, Note_off_c, 0, 62, 62
1, 462850, Control_c, 0, 64, 98
1, 463000, Note_off_c, 0, 48, 27
1, 463043, Note_on_c, 0, 43, 34
1, 463049, Note_on_c, 0, 52, 24
1, 463051, Note_on_c, 0, 58, 49
1, 463082, Note_off_c, 0, 52, 46
1, 463113, Note_off_c, 0, 58, 54
1, 463188, Note_off_c, 0, 36, 34
1, 463442, Note_on_c, 0, 36, 50
1, 463480, Control_c, 0, 64, 96
1, 463495, Control_c, 0, 64, 93
1, 463510, Control_c, 0, 64, 88
1, 463513, Note_on_c, 0, 62, 80
1, 463525, Control_c, 0, 64, 82
1, 463540, Control_c, 0, 64, 77
1, 463555, Control_c, 0, 64, 73
1, 463569, Control_c, 0, 64, 70
1, 463584, Control_c, 0, 64, 66
1, 463587, Note_off_c, 0, 64, 62
1, 463599, Control_c, 0, 64, 63
1, 463608, Note_off_c, 0, 43, 33
1, 463614, Control_c, 0, 64, 61
1, 463629, Control_c, 0, 64, 60
1, 463643, Control_c, 0, 64, 59
1, 463673, Control_c, 0, 64, 58
1, 463688, Control_c, 0, 64, 58
1, 463703, Control_c, 0, 64, 57
1, 463719, Control_c, 0, 64, 57
1, 463733, Control_c, 0, 64, 56
1, 463770, Control_c, 0, 64, 56
1, 463814, Control_c, 0, 64, 55
1, 463962, Control_c, 0, 64, 56
1, 464006, Control_c, 0, 64, 56
1, 464051, Control_c, 0, 64, 57
1, 464076, Note_on_c, 0, 60, 49
1, 464076, Note_on_c, 0, 44, 40
1, 464095, Control_c, 0, 64, 57
1, 464139, Control_c, 0, 64, 58
1, 464154, Control_c, 0, 64, 58
1, 464184, Control_c, 0, 64, 59
1, 464198, Control_c, 0, 64, 59
1, 464228, Control_c, 0, 64, 60
1, 464243, Control_c, 0, 64, 61
1, 464258, Control_c, 0, 64, 61
1, 464273, Control_c, 0, 64, 62
1, 464288, Control_c, 0, 64, 62
1, 464303, Control_c, 0, 64, 63
1, 464333, Control_c, 0, 64, 63
1, 464347, Control_c, 0, 64, 64
1, 464454, Note_on_c, 0, 56, 49
1, 464467, Note_on_c, 0, 50, 39
1, 464478, Note_on_c, 0, 53, 28
1, 464480, Control_c, 0, 64, 64
1, 464518, Control_c, 0, 64, 65
1, 464533, Control_c, 0, 64, 67
1, 464548, Control_c, 0, 64, 69
1, 464563, Control_c, 0, 64, 71
1, 464577, Control_c, 0, 64, 73
1, 464592, Control_c, 0, 64, 75
1, 464607, Control_c, 0, 64, 76
1, 464622, Control_c, 0, 64, 78
1, 464637, Control_c, 0, 64, 79
1, 464652, Control_c, 0, 64, 80
1, 464666, Control_c, 0, 64, 81
1, 464682, Control_c, 0, 64, 81
1, 464684, Note_off_c, 0, 44, 39
1, 464696, Control_c, 0, 64, 82
1, 464726, Control_c, 0, 64, 82
1, 464756, Control_c, 0, 64, 83
1, 464880, Note_on_c, 0, 64, 77
1, 464937, Note_off_c, 0, 56, 35
1, 464962, Note_off_c, 0, 62, 58
1, 464965, Note_off_c, 0, 60, 64
1, 465132, Note_off_c, 0, 53, 41
1, 465185, Control_c, 0, 64, 82
1, 465201, Note_on_c, 0, 44, 35
1, 465282, Control_c, 0, 64, 82
1, 465287, Note_off_c, 0, 50, 34
1, 465295, Note_on_c, 0, 62, 74
1, 465311, Control_c, 0, 64, 81
1, 465342, Control_c, 0, 64, 81
1, 465343, Note_off_c, 0, 64, 60
1, 465372, Control_c, 0, 64, 80
1, 465387, Control_c, 0, 64, 80
1, 465416, Control_c, 0, 64, 79
1, 465431, Control_c, 0, 64, 79
1, 465445, Control_c, 0, 64, 78
1, 465460, Control_c, 0, 64, 77
1, 465468, Note_on_c, 0, 50, 40
1, 465475, Control_c, 0, 64, 76
1, 465490, Control_c, 0, 64, 75
1, 465498, Note_off_c, 0, 44, 38
1, 465505, Control_c, 0, 64, 73
1, 465519, Control_c, 0, 64, 72
1, 465532, Note_off_c, 0, 62, 58
1, 465534, Note_on_c, 0, 60, 67
1, 465534, Control_c, 0, 64, 70
1, 465549, Control_c, 0, 64, 69
1, 465564, Control_c, 0, 64, 67
1, 465579, Control_c, 0, 64, 65
1, 465593, Control_c, 0, 64, 65
1, 465608, Control_c, 0, 64, 64
1, 465615, Note_off_c, 0, 60, 61
1, 465623, Control_c, 0, 64, 64
1, 465630, Note_on_c, 0, 58, 76
1, 465638, Control_c, 0, 64, 63
1, 465653, Control_c, 0, 64, 63
1, 465668, Control_c, 0, 64, 62
1, 465683, Control_c, 0, 64, 62
1, 465691, Note_off_c, 0, 58, 58
1, 465698, Control_c, 0, 64, 61
1, 465712, Control_c, 0, 64, 60
1, 465718, Note_on_c, 0, 60, 74
1, 465727, Control_c, 0, 64, 58
1, 465742, Control_c, 0, 64, 57
1, 465757, Control_c, 0, 64, 55
1, 465771, Control_c, 0, 64, 52
1, 465777, Note_off_c, 0, 60, 59
1, 465786, Control_c, 0, 64, 50
1, 465801, Control_c, 0, 64, 47
1, 465808, Note_on_c, 0, 62, 70
1, 465816, Control_c, 0, 64, 44
1, 465820, Note_on_c, 0, 44, 44
1, 465831, Control_c, 0, 64, 40
1, 465845, Control_c, 0, 64, 37
1, 465860, Control_c, 0, 64, 36
1, 465874, Note_off_c, 0, 50, 35
1, 465890, Control_c, 0, 64, 37
1, 465905, Control_c, 0, 64, 40
1, 465919, Control_c, 0, 64, 45
1, 465934, Control_c, 0, 64, 50
1, 465949, Control_c, 0, 64, 55
1, 465963, Control_c, 0, 64, 57
1, 465978, Control_c, 0, 64, 57
1, 466016, Control_c, 0, 64, 58
1, 466031, Control_c, 0, 64, 60
1, 466045, Control_c, 0, 64, 61
1, 466084, Note_on_c, 0, 60, 44
1, 466086, Note_off_c, 0, 44, 49
1, 466088, Note_on_c, 0, 50, 34
1, 466150, Control_c, 0, 64, 61
1, 466165, Control_c, 0, 64, 62
1, 466180, Control_c, 0, 64, 64
1, 466194, Control_c, 0, 64, 66
1, 466209, Control_c, 0, 64, 67
1, 466224, Control_c, 0, 64, 68
1, 466239, Control_c, 0, 64, 68
1, 466254, Control_c, 0, 64, 69
1, 466268, Control_c, 0, 64, 69
1, 466298, Control_c, 0, 64, 70
1, 466373, Note_on_c, 0, 56, 42
1, 466383, Note_on_c, 0, 44, 30
1, 466405, Note_on_c, 0, 53, 13
1, 466431, Control_c, 0, 64, 69
1, 466440, Note_off_c, 0, 50, 35
1, 466446, Control_c, 0, 64, 67
1, 466461, Control_c, 0, 64, 64
1, 466476, Control_c, 0, 64, 61
1, 466491, Control_c, 0, 64, 58
1, 466506, Control_c, 0, 64, 57
1, 466539, Note_off_c, 0, 60, 38
1, 466565, Control_c, 0, 64, 58
1, 466580, Control_c, 0, 64, 59
1, 466594, Control_c, 0, 64, 61
1, 466609, Control_c, 0, 64, 63
1, 466624, Control_c, 0, 64, 65
1, 466639, Control_c, 0, 64, 67
1, 466654, Control_c, 0, 64, 69
1, 466668, Control_c, 0, 64, 70
1, 466683, Control_c, 0, 64, 72
1, 466698, Control_c, 0, 64, 74
1, 466712, Control_c, 0, 64, 75
1, 466727, Control_c, 0, 64, 75
1, 466750, Control_c, 0, 64, 76
1, 466765, Control_c, 0, 64, 77
1, 466780, Control_c, 0, 64, 78
1, 466794, Control_c, 0, 64, 78
1, 466824, Control_c, 0, 64, 79
1, 467075, Note_on_c, 0, 50, 23
1, 467091, Note_on_c, 0, 60, 33
1, 467106, Control_c, 0, 67, 44
1, 467121, Control_c, 0, 67, 53
1, 467136, Control_c, 0, 67, 61
1, 467139, Note_off_c, 0, 53, 37
1, 467150, Note_off_c, 0, 44, 39
1, 467151, Control_c, 0, 67, 71
1, 467165, Control_c, 0, 67, 81
1, 467175, Note_off_c, 0, 56, 34
1, 467180, Control_c, 0, 67, 89
1, 467195, Control_c, 0, 67, 96
1, 467209, Control_c, 0, 67, 102
1, 467224, Control_c, 0, 67, 108
1, 467239, Control_c, 0, 67, 111
1, 467358, Control_c, 0, 67, 114
1, 467403, Control_c, 0, 67, 116
1, 467423, Note_on_c, 0, 56, 34
1, 467432, Control_c, 0, 67, 118
1, 467433, Note_on_c, 0, 44, 36
1, 467462, Control_c, 0, 67, 127
1, 467476, Note_on_c, 0, 53, 8
1, 467565, Note_off_c, 0, 50, 35
1, 467711, Note_off_c, 0, 36, 40
1, 467728, Note_off_c, 0, 62, 33
1, 467870, Control_c, 0, 64, 78
1, 467885, Note_off_c, 0, 53, 34
1, 468018, Control_c, 0, 64, 78
1, 468047, Control_c, 0, 64, 77
1, 468062, Control_c, 0, 64, 77
1, 468077, Control_c, 0, 64, 76
1, 468086, Note_on_c, 0, 36, 26
1, 468092, Control_c, 0, 64, 75
1, 468106, Control_c, 0, 64, 74
1, 468121, Control_c, 0, 64, 72
1, 468136, Control_c, 0, 64, 71
1, 468151, Control_c, 0, 64, 68
1, 468164, Note_off_c, 0, 56, 38
1, 468166, Control_c, 0, 64, 65
1, 468177, Note_on_c, 0, 62, 50
1, 468181, Control_c, 0, 64, 63
1, 468196, Control_c, 0, 64, 61
1, 468211, Control_c, 0, 64, 60
1, 468247, Control_c, 0, 64, 59
1, 468262, Control_c, 0, 64, 59
1, 468272, Note_off_c, 0, 44, 40
1, 468277, Control_c, 0, 64, 58
1, 468292, Control_c, 0, 64, 57
1, 468295, Note_off_c, 0, 60, 42
1, 468307, Control_c, 0, 64, 56
1, 468321, Control_c, 0, 64, 56
1, 468336, Control_c, 0, 64, 55
1, 468351, Control_c, 0, 64, 55
1, 468366, Control_c, 0, 64, 54
1, 468381, Control_c, 0, 64, 54
1, 468396, Control_c, 0, 64, 53
1, 468425, Control_c, 0, 64, 53
1, 468440, Control_c, 0, 64, 52
1, 468470, Control_c, 0, 64, 52
1, 468515, Control_c, 0, 64, 51
1, 468690, Note_on_c, 0, 59, 24
1, 468696, Note_on_c, 0, 43, 17
1, 468811, Control_c, 0, 64, 52
1, 468826, Control_c, 0, 64, 53
1, 468841, Control_c, 0, 64, 54
1, 468855, Control_c, 0, 64, 55
1, 468870, Control_c, 0, 64, 56
1, 468885, Control_c, 0, 64, 57
1, 468900, Control_c, 0, 64, 58
1, 468915, Control_c, 0, 64, 59
1, 468929, Control_c, 0, 64, 61
1, 468944, Control_c, 0, 64, 61
1, 468959, Control_c, 0, 64, 62
1, 468974, Control_c, 0, 64, 62
1, 468996, Control_c, 0, 64, 63
1, 469026, Control_c, 0, 64, 63
1, 469041, Control_c, 0, 64, 64
1, 469070, Control_c, 0, 64, 64
1, 469100, Control_c, 0, 64, 65
1, 469109, Note_on_c, 0, 50, 24
1, 469111, Note_on_c, 0, 53, 11
1, 469117, Note_on_c, 0, 55, 12
1, 469129, Control_c, 0, 64, 65
1, 469144, Control_c, 0, 64, 66
1, 469159, Control_c, 0, 64, 67
1, 469174, Control_c, 0, 64, 67
1, 469188, Control_c, 0, 64, 68
1, 469203, Control_c, 0, 64, 69
1, 469211, Note_off_c, 0, 59, 42
1, 469218, Control_c, 0, 64, 70
1, 469233, Control_c, 0, 64, 70
1, 469263, Control_c, 0, 64, 71
1, 469320, Note_off_c, 0, 43, 41
1, 469338, Control_c, 0, 64, 71
1, 469652, Note_on_c, 0, 43, 23
1, 469664, Control_c, 0, 64, 71
1, 469672, Note_on_c, 0, 59, 13
1, 469693, Control_c, 0, 64, 70
1, 469723, Control_c, 0, 64, 70
1, 469740, Note_off_c, 0, 50, 40
1, 469745, Control_c, 0, 64, 69
1, 469760, Control_c, 0, 64, 69
1, 469789, Note_off_c, 0, 53, 27
1, 469790, Control_c, 0, 64, 68
1, 469796, Note_on_c, 0, 64, 53
1, 469807, Note_off_c, 0, 55, 33
1, 469910, Note_off_c, 0, 59, 26
1, 469980, Note_off_c, 0, 62, 29
1, 469984, Note_on_c, 0, 50, 20
1, 470002, Note_on_c, 0, 55, 10
1, 470002, Note_off_c, 0, 43, 36
1, 470003, Note_on_c, 0, 53, 11
1, 470056, Control_c, 0, 64, 69
1, 470083, Note_off_c, 0, 64, 33
1, 470220, Control_c, 0, 64, 68
1, 470227, Note_on_c, 0, 65, 52
1, 470234, Control_c, 0, 64, 67
1, 470241, Note_on_c, 0, 43, 27
1, 470249, Control_c, 0, 64, 64
1, 470259, Note_off_c, 0, 50, 40
1, 470264, Control_c, 0, 64, 62
1, 470279, Control_c, 0, 64, 61
1, 470308, Control_c, 0, 64, 62
1, 470323, Control_c, 0, 64, 62
1, 470352, Control_c, 0, 64, 63
1, 470367, Control_c, 0, 64, 64
1, 470382, Control_c, 0, 64, 65
1, 470397, Control_c, 0, 64, 66
1, 470412, Control_c, 0, 64, 68
1, 470427, Control_c, 0, 64, 69
1, 470437, Note_off_c, 0, 65, 59
1, 470441, Control_c, 0, 64, 70
1, 470456, Control_c, 0, 64, 71
1, 470471, Control_c, 0, 64, 72
1, 470494, Control_c, 0, 64, 72
1, 470497, Note_on_c, 0, 50, 24
1, 470508, Note_off_c, 0, 43, 39
1, 470521, Poly_aftertouch_c, 0, 59, 127
1, 470523, Control_c, 0, 64, 73
1, 470540, Note_off_c, 0, 53, 39
1, 470561, Poly_aftertouch_c, 0, 59, 0
1, 470567, Control_c, 0, 64, 73
1, 470569, Note_off_c, 0, 55, 40
1, 470576, Note_on_c, 0, 67, 60
1, 470656, Control_c, 0, 64, 73
1, 470670, Control_c, 0, 64, 71
1, 470685, Control_c, 0, 64, 70
1, 470700, Control_c, 0, 64, 68
1, 470723, Note_on_c, 0, 53, 17
1, 470725, Note_on_c, 0, 43, 28
1, 470727, Note_on_c, 0, 55, 18
1, 470774, Control_c, 0, 64, 69
1, 470777, Note_off_c, 0, 67, 54
1, 470779, Note_off_c, 0, 50, 29
1, 470789, Control_c, 0, 64, 70
1, 470804, Control_c, 0, 64, 71
1, 470819, Control_c, 0, 64, 72
1, 470833, Control_c, 0, 64, 72
1, 470848, Control_c, 0, 64, 73
1, 470863, Control_c, 0, 64, 73
1, 470908, Control_c, 0, 64, 74
1, 470911, Note_on_c, 0, 67, 60
1, 470911, Note_off_c, 0, 53, 42
1, 470934, Note_off_c, 0, 55, 41
1, 471172, Note_off_c, 0, 67, 38
1, 471189, Note_on_c, 0, 59, 18
1, 471195, Note_on_c, 0, 50, 21
1, 471268, Note_off_c, 0, 43, 36
1, 471302, Note_on_c, 0, 67, 64
1, 471326, Note_off_c, 0, 59, 40
1, 471464, Control_c, 0, 64, 74
1, 471513, Note_on_c, 0, 43, 28
1, 471551, Note_on_c, 0, 53, 23
1, 471555, Note_on_c, 0, 55, 22
1, 471579, Note_off_c, 0, 50, 30
1, 471682, Note_off_c, 0, 67, 49
1, 471698, Note_off_c, 0, 36, 42
1, 471865, Control_c, 0, 64, 74
1, 471905, Note_on_c, 0, 36, 22
1, 471910, Control_c, 0, 64, 73
1, 471924, Control_c, 0, 64, 73
1, 471939, Control_c, 0, 64, 72
1, 471954, Control_c, 0, 64, 71
1, 471969, Note_on_c, 0, 67, 53
1, 471969, Control_c, 0, 64, 69
1, 471991, Control_c, 0, 64, 68
1, 472005, Control_c, 0, 64, 66
1, 472014, Note_off_c, 0, 53, 39
1, 472020, Control_c, 0, 64, 64
1, 472027, Note_off_c, 0, 55, 41
1, 472035, Control_c, 0, 64, 63
1, 472050, Control_c, 0, 64, 62
1, 472069, Note_off_c, 0, 43, 37
1, 472095, Control_c, 0, 64, 62
1, 472110, Control_c, 0, 64, 61
1, 472125, Control_c, 0, 64, 61
1, 472139, Control_c, 0, 64, 60
1, 472154, Control_c, 0, 64, 60
1, 472169, Control_c, 0, 64, 59
1, 472184, Control_c, 0, 64, 59
1, 472199, Control_c, 0, 64, 58
1, 472213, Control_c, 0, 64, 58
1, 472228, Control_c, 0, 64, 57
1, 472258, Control_c, 0, 64, 57
1, 472287, Control_c, 0, 64, 56
1, 472317, Control_c, 0, 64, 56
1, 472391, Control_c, 0, 64, 55
1, 472434, Note_on_c, 0, 60, 28
1, 472448, Note_on_c, 0, 43, 22
1, 472510, Control_c, 0, 64, 55
1, 472584, Control_c, 0, 64, 55
1, 472599, Control_c, 0, 64, 56
1, 472614, Control_c, 0, 64, 56
1, 472628, Control_c, 0, 64, 57
1, 472643, Control_c, 0, 64, 58
1, 472658, Control_c, 0, 64, 58
1, 472673, Control_c, 0, 64, 59
1, 472688, Control_c, 0, 64, 59
1, 472703, Control_c, 0, 64, 60
1, 472718, Control_c, 0, 64, 61
1, 472754, Control_c, 0, 64, 61
1, 472814, Control_c, 0, 64, 62
1, 472864, Note_on_c, 0, 55, 23
1, 472868, Note_on_c, 0, 52, 24
1, 472947, Control_c, 0, 64, 62
1, 472957, Note_off_c, 0, 60, 40
1, 472977, Control_c, 0, 64, 63
1, 473007, Control_c, 0, 64, 63
1, 473022, Control_c, 0, 64, 64
1, 473036, Control_c, 0, 64, 64
1, 473051, Control_c, 0, 64, 65
1, 473066, Control_c, 0, 64, 65
1, 473080, Control_c, 0, 64, 66
1, 473090, Note_off_c, 0, 43, 35
1, 473095, Control_c, 0, 64, 67
1, 473110, Control_c, 0, 64, 69
1, 473125, Control_c, 0, 64, 70
1, 473140, Control_c, 0, 64, 71
1, 473154, Control_c, 0, 64, 72
1, 473169, Control_c, 0, 64, 72
1, 473184, Control_c, 0, 64, 73
1, 473199, Control_c, 0, 64, 73
1, 473214, Control_c, 0, 64, 74
1, 473228, Control_c, 0, 64, 74
1, 473243, Control_c, 0, 64, 75
1, 473273, Control_c, 0, 64, 75
1, 473498, Note_on_c, 0, 60, 24
1, 473520, Note_on_c, 0, 43, 21
1, 473571, Note_off_c, 0, 52, 33
1, 473582, Note_off_c, 0, 55, 40
1, 473730, Note_off_c, 0, 67, 33
1, 473740, Control_c, 0, 64, 75
1, 473770, Control_c, 0, 64, 74
1, 473785, Control_c, 0, 64, 74
1, 473792, Note_on_c, 0, 55, 11
1, 473797, Note_on_c, 0, 52, 15
1, 473800, Control_c, 0, 64, 73
1, 473806, Note_off_c, 0, 43, 35
1, 473815, Control_c, 0, 64, 72
1, 473830, Note_off_c, 0, 60, 37
1, 473830, Control_c, 0, 64, 71
1, 473845, Control_c, 0, 64, 70
1, 473859, Control_c, 0, 64, 69
1, 473874, Control_c, 0, 64, 68
1, 473889, Control_c, 0, 64, 67
1, 473903, Control_c, 0, 64, 66
1, 473908, Note_on_c, 0, 65, 44
1, 473909, Note_off_c, 0, 55, 35
1, 473918, Control_c, 0, 64, 66
1, 473933, Control_c, 0, 64, 65
1, 473948, Control_c, 0, 64, 65
1, 473949, Note_off_c, 0, 65, 62
1, 473963, Control_c, 0, 64, 64
1, 473973, Note_on_c, 0, 64, 51
1, 473992, Control_c, 0, 64, 64
1, 474022, Control_c, 0, 64, 63
1, 474025, Note_off_c, 0, 64, 60
1, 474044, Note_on_c, 0, 62, 43
1, 474051, Control_c, 0, 64, 63
1, 474066, Control_c, 0, 64, 62
1, 474081, Control_c, 0, 64, 62
1, 474097, Control_c, 0, 64, 61
1, 474101, Note_off_c, 0, 62, 58
1, 474112, Control_c, 0, 64, 60
1, 474114, Note_on_c, 0, 64, 51
1, 474126, Control_c, 0, 64, 59
1, 474141, Control_c, 0, 64, 58
1, 474143, Note_off_c, 0, 52, 38
1, 474155, Note_on_c, 0, 43, 19
1, 474156, Control_c, 0, 64, 56
1, 474171, Control_c, 0, 64, 55
1, 474186, Control_c, 0, 64, 53
1, 474200, Control_c, 0, 64, 52
1, 474215, Control_c, 0, 64, 51
1, 474238, Control_c, 0, 64, 50
1, 474368, Note_on_c, 0, 55, 36
1, 474371, Control_c, 0, 64, 51
1, 474384, Note_off_c, 0, 43, 39
1, 474386, Control_c, 0, 64, 51
1, 474391, Note_on_c, 0, 52, 29
1, 474400, Control_c, 0, 64, 52
1, 474415, Control_c, 0, 64, 52
1, 474430, Control_c, 0, 64, 53
1, 474445, Control_c, 0, 64, 54
1, 474460, Control_c, 0, 64, 55
1, 474474, Control_c, 0, 64, 57
1, 474489, Control_c, 0, 64, 58
1, 474504, Control_c, 0, 64, 59
1, 474519, Control_c, 0, 64, 59
1, 474533, Control_c, 0, 64, 60
1, 474548, Control_c, 0, 64, 60
1, 474641, Note_off_c, 0, 55, 40
1, 474644, Note_on_c, 0, 43, 28
1, 474645, Note_on_c, 0, 60, 22
1, 474676, Note_off_c, 0, 52, 33
1, 474800, Control_c, 0, 64, 61
1, 474815, Control_c, 0, 64, 62
1, 474830, Control_c, 0, 64, 62
1, 474845, Control_c, 0, 64, 64
1, 474860, Control_c, 0, 64, 65
1, 474874, Control_c, 0, 64, 67
1, 474889, Control_c, 0, 64, 69
1, 474905, Control_c, 0, 64, 71
1, 474920, Control_c, 0, 64, 72
1, 474935, Control_c, 0, 64, 73
1, 474949, Control_c, 0, 64, 74
1, 474964, Control_c, 0, 64, 75
1, 474986, Control_c, 0, 64, 76
1, 475001, Control_c, 0, 64, 77
1, 475016, Control_c, 0, 64, 77
1, 475031, Control_c, 0, 64, 78
1, 475046, Control_c, 0, 64, 79
1, 475061, Control_c, 0, 64, 80
1, 475076, Control_c, 0, 64, 81
1, 475091, Control_c, 0, 64, 81
1, 475105, Control_c, 0, 64, 82
1, 475120, Control_c, 0, 64, 82
1, 475135, Control_c, 0, 64, 83
1, 475150, Control_c, 0, 64, 83
1, 475164, Control_c, 0, 64, 84
1, 475194, Control_c, 0, 64, 84
1, 475246, Note_on_c, 0, 52, 30
1, 475247, Note_on_c, 0, 55, 26
1, 475253, Control_c, 0, 64, 85
1, 475258, Note_off_c, 0, 60, 36
1, 475282, Control_c, 0, 64, 85
1, 475312, Control_c, 0, 64, 86
1, 475323, Note_off_c, 0, 43, 38
1, 475342, Control_c, 0, 64, 86
1, 475371, Control_c, 0, 64, 87
1, 475430, Control_c, 0, 64, 87
1, 475535, Control_c, 0, 64, 88
1, 475603, Note_off_c, 0, 55, 39
1, 475619, Note_on_c, 0, 43, 22
1, 475623, Control_c, 0, 67, 124
1, 475629, Note_on_c, 0, 60, 31
1, 475638, Control_c, 0, 67, 119
1, 475642, Note_off_c, 0, 52, 34
1, 475653, Control_c, 0, 67, 112
1, 475667, Control_c, 0, 67, 103
1, 475682, Control_c, 0, 67, 92
1, 475699, Control_c, 0, 67, 83
1, 475714, Control_c, 0, 67, 76
1, 475735, Control_c, 0, 67, 70
1, 475747, Note_off_c, 0, 36, 41
1, 475750, Control_c, 0, 67, 64
1, 475765, Control_c, 0, 67, 54
1, 475779, Control_c, 0, 67, 45
1, 475794, Control_c, 0, 67, 0
1, 476025, Note_on_c, 0, 34, 69
1, 476047, Control_c, 0, 64, 87
1, 476061, Control_c, 0, 64, 86
1, 476076, Control_c, 0, 64, 81
1, 476081, Note_off_c, 0, 43, 46
1, 476091, Control_c, 0, 64, 74
1, 476097, Note_on_c, 0, 62, 88
1, 476105, Control_c, 0, 64, 67
1, 476120, Control_c, 0, 64, 61
1, 476134, Note_off_c, 0, 64, 31
1, 476135, Control_c, 0, 64, 55
1, 476137, Note_off_c, 0, 60, 59
1, 476150, Control_c, 0, 64, 54
1, 476179, Control_c, 0, 64, 55
1, 476194, Control_c, 0, 64, 56
1, 476209, Control_c, 0, 64, 57
1, 476224, Control_c, 0, 64, 59
1, 476239, Control_c, 0, 64, 60
1, 476253, Control_c, 0, 64, 61
1, 476268, Control_c, 0, 64, 61
1, 476277, Note_on_c, 0, 64, 85
1, 476290, Note_off_c, 0, 62, 63
1, 476313, Control_c, 0, 64, 61
1, 476343, Control_c, 0, 64, 60
1, 476358, Control_c, 0, 64, 59
1, 476371, Note_on_c, 0, 62, 90
1, 476372, Control_c, 0, 64, 59
1, 476372, Note_off_c, 0, 64, 62
1, 476387, Control_c, 0, 64, 58
1, 476402, Control_c, 0, 64, 57
1, 476417, Control_c, 0, 64, 56
1, 476430, Note_off_c, 0, 62, 59
1, 476432, Control_c, 0, 64, 56
1, 476444, Note_on_c, 0, 60, 83
1, 476446, Control_c, 0, 64, 55
1, 476461, Control_c, 0, 64, 54
1, 476483, Control_c, 0, 64, 53
1, 476499, Control_c, 0, 64, 52
1, 476510, Note_off_c, 0, 60, 58
1, 476514, Control_c, 0, 64, 50
1, 476528, Control_c, 0, 64, 48
1, 476542, Note_on_c, 0, 62, 83
1, 476543, Control_c, 0, 64, 45
1, 476558, Control_c, 0, 64, 40
1, 476573, Control_c, 0, 64, 30
1, 476578, Note_on_c, 0, 41, 55
1, 476588, Control_c, 0, 64, 0
1, 476795, Control_c, 0, 64, 37
1, 476810, Control_c, 0, 64, 44
1, 476825, Control_c, 0, 64, 48
1, 476840, Control_c, 0, 64, 50
1, 476855, Control_c, 0, 64, 52
1, 476869, Control_c, 0, 64, 54
1, 476884, Control_c, 0, 64, 55
1, 476899, Control_c, 0, 64, 56
1, 476914, Control_c, 0, 64, 57
1, 476928, Control_c, 0, 64, 57
1, 476943, Control_c, 0, 64, 58
1, 476958, Control_c, 0, 64, 59
1, 476973, Control_c, 0, 64, 60
1, 476988, Control_c, 0, 64, 61
1, 477002, Control_c, 0, 64, 61
1, 477017, Control_c, 0, 64, 62
1, 477032, Control_c, 0, 64, 63
1, 477047, Control_c, 0, 64, 64
1, 477059, Note_on_c, 0, 46, 59
1, 477062, Control_c, 0, 64, 65
1, 477076, Control_c, 0, 64, 67
1, 477091, Control_c, 0, 64, 68
1, 477106, Control_c, 0, 64, 70
1, 477121, Control_c, 0, 64, 71
1, 477136, Control_c, 0, 64, 73
1, 477150, Control_c, 0, 64, 75
1, 477165, Control_c, 0, 64, 76
1, 477180, Control_c, 0, 64, 78
1, 477195, Control_c, 0, 64, 80
1, 477210, Control_c, 0, 64, 81
1, 477232, Control_c, 0, 64, 82
1, 477246, Control_c, 0, 64, 84
1, 477261, Control_c, 0, 64, 84
1, 477276, Control_c, 0, 64, 85
1, 477279, Note_off_c, 0, 41, 55
1, 477291, Control_c, 0, 64, 86
1, 477307, Control_c, 0, 64, 87
1, 477322, Control_c, 0, 64, 88
1, 477351, Control_c, 0, 64, 88
1, 477381, Control_c, 0, 64, 89
1, 477683, Note_on_c, 0, 41, 46
1, 477725, Note_on_c, 0, 57, 51
1, 477741, Note_on_c, 0, 50, 38
1, 477766, Control_c, 0, 64, 88
1, 477796, Control_c, 0, 64, 88
1, 477822, Note_off_c, 0, 46, 37
1, 477825, Control_c, 0, 64, 87
1, 477840, Control_c, 0, 64, 87
1, 477855, Control_c, 0, 64, 86
1, 477869, Control_c, 0, 64, 86
1, 477884, Control_c, 0, 64, 85
1, 477899, Control_c, 0, 64, 84
1, 477914, Control_c, 0, 64, 83
1, 477929, Control_c, 0, 64, 82
1, 477943, Note_on_c, 0, 53, 66
1, 477943, Control_c, 0, 64, 81
1, 477956, Note_on_c, 0, 46, 50
1, 477958, Control_c, 0, 64, 80
1, 477981, Control_c, 0, 64, 79
1, 477996, Control_c, 0, 64, 78
1, 477997, Note_off_c, 0, 50, 40
1, 478011, Note_off_c, 0, 57, 57
1, 478011, Control_c, 0, 64, 77
1, 478025, Control_c, 0, 64, 76
1, 478040, Control_c, 0, 64, 75
1, 478045, Note_off_c, 0, 41, 36
1, 478055, Control_c, 0, 64, 75
1, 478070, Control_c, 0, 64, 74
1, 478084, Control_c, 0, 64, 73
1, 478101, Control_c, 0, 64, 72
1, 478116, Control_c, 0, 64, 69
1, 478130, Control_c, 0, 64, 66
1, 478145, Control_c, 0, 64, 63
1, 478153, Note_on_c, 0, 57, 66
1, 478161, Control_c, 0, 64, 60
1, 478164, Note_on_c, 0, 41, 57
1, 478175, Note_off_c, 0, 53, 61
1, 478175, Control_c, 0, 64, 58
1, 478179, Note_on_c, 0, 50, 33
1, 478190, Control_c, 0, 64, 57
1, 478205, Control_c, 0, 64, 57
1, 478212, Note_off_c, 0, 46, 53
1, 478264, Control_c, 0, 64, 56
1, 478293, Control_c, 0, 64, 57
1, 478323, Control_c, 0, 64, 56
1, 478331, Note_off_c, 0, 50, 44
1, 478338, Control_c, 0, 64, 56
1, 478353, Control_c, 0, 64, 55
1, 478361, Note_on_c, 0, 53, 66
1, 478367, Control_c, 0, 64, 55
1, 478372, Note_on_c, 0, 46, 45
1, 478396, Note_off_c, 0, 41, 56
1, 478414, Note_off_c, 0, 57, 59
1, 478427, Control_c, 0, 64, 56
1, 478441, Control_c, 0, 64, 56
1, 478456, Control_c, 0, 64, 58
1, 478471, Control_c, 0, 64, 58
1, 478486, Control_c, 0, 64, 59
1, 478501, Control_c, 0, 64, 59
1, 478646, Note_on_c, 0, 40, 35
1, 478679, Control_c, 0, 64, 59
1, 478706, Note_on_c, 0, 57, 53
1, 478708, Control_c, 0, 64, 58
1, 478730, Control_c, 0, 64, 56
1, 478734, Note_off_c, 0, 46, 37
1, 478736, Note_on_c, 0, 50, 24
1, 478745, Control_c, 0, 64, 55
1, 478760, Control_c, 0, 64, 54
1, 478774, Note_off_c, 0, 53, 56
1, 478775, Control_c, 0, 64, 52
1, 478790, Control_c, 0, 64, 50
1, 478805, Control_c, 0, 64, 46
1, 478820, Control_c, 0, 64, 40
1, 478835, Control_c, 0, 64, 31
1, 478849, Control_c, 0, 64, 0
1, 478923, Control_c, 0, 64, 30
1, 478938, Control_c, 0, 64, 41
1, 478953, Control_c, 0, 64, 52
1, 478968, Control_c, 0, 64, 59
1, 478983, Control_c, 0, 64, 63
1, 478997, Control_c, 0, 64, 64
1, 479012, Control_c, 0, 64, 65
1, 479027, Control_c, 0, 64, 66
1, 479042, Control_c, 0, 64, 67
1, 479057, Control_c, 0, 64, 67
1, 479071, Note_off_c, 0, 50, 42
1, 479071, Control_c, 0, 64, 68
1, 479086, Control_c, 0, 64, 68
1, 479309, Control_c, 0, 64, 68
1, 479323, Control_c, 0, 64, 66
1, 479325, Note_on_c, 0, 46, 33
1, 479338, Control_c, 0, 64, 62
1, 479344, Note_on_c, 0, 55, 38
1, 479353, Control_c, 0, 64, 56
1, 479359, Note_off_c, 0, 57, 59
1, 479361, Note_off_c, 0, 40, 54
1, 479366, Note_on_c, 0, 50, 15
1, 479368, Control_c, 0, 64, 51
1, 479383, Control_c, 0, 64, 47
1, 479397, Control_c, 0, 64, 44
1, 479413, Note_off_c, 0, 50, 51
1, 479441, Control_c, 0, 64, 45
1, 479456, Control_c, 0, 64, 48
1, 479479, Control_c, 0, 64, 54
1, 479488, Note_off_c, 0, 55, 62
1, 479493, Control_c, 0, 64, 60
1, 479508, Control_c, 0, 64, 63
1, 479523, Control_c, 0, 64, 64
1, 479523, Control_c, 0, 67, 56
1, 479538, Control_c, 0, 64, 65
1, 479538, Control_c, 0, 67, 83
1, 479553, Control_c, 0, 64, 66
1, 479553, Control_c, 0, 67, 105
1, 479568, Control_c, 0, 64, 67
1, 479568, Control_c, 0, 67, 118
1, 479583, Control_c, 0, 64, 68
1, 479583, Control_c, 0, 67, 127
1, 479612, Control_c, 0, 64, 68
1, 479705, Note_on_c, 0, 40, 38
1, 479746, Control_c, 0, 64, 68
1, 479761, Control_c, 0, 64, 67
1, 479775, Note_on_c, 0, 60, 59
1, 479776, Control_c, 0, 64, 65
1, 479791, Control_c, 0, 64, 61
1, 479798, Note_off_c, 0, 46, 34
1, 479806, Control_c, 0, 64, 56
1, 479809, Note_on_c, 0, 55, 28
1, 479820, Control_c, 0, 64, 51
1, 479835, Control_c, 0, 64, 47
1, 479850, Control_c, 0, 64, 43
1, 479860, Note_off_c, 0, 62, 54
1, 479863, Poly_aftertouch_c, 0, 50, 127
1, 479865, Control_c, 0, 64, 41
1, 479880, Control_c, 0, 64, 39
1, 479894, Control_c, 0, 64, 38
1, 479924, Control_c, 0, 64, 39
1, 479938, Control_c, 0, 64, 41
1, 479953, Control_c, 0, 64, 46
1, 479968, Control_c, 0, 64, 51
1, 479983, Control_c, 0, 64, 56
1, 479998, Control_c, 0, 64, 59
1, 480000, Poly_aftertouch_c, 0, 50, 0
1, 480012, Control_c, 0, 64, 60
1, 480027, Control_c, 0, 64, 61
1, 480087, Control_c, 0, 64, 60
1, 480102, Control_c, 0, 64, 59
1, 480116, Control_c, 0, 64, 58
1, 480131, Control_c, 0, 64, 57
1, 480146, Control_c, 0, 64, 56
1, 480159, Note_off_c, 0, 60, 59
1, 480161, Control_c, 0, 64, 56
1, 480161, Note_on_c, 0, 62, 58
1, 480166, Note_off_c, 0, 55, 44
1, 480356, Note_off_c, 0, 62, 62
1, 480370, Note_on_c, 0, 60, 60
1, 480439, Note_off_c, 0, 60, 60
1, 480509, Note_on_c, 0, 58, 63
1, 480548, Note_off_c, 0, 34, 38
1, 480643, Control_c, 0, 64, 55
1, 480673, Control_c, 0, 64, 55
1, 480683, Note_on_c, 0, 33, 48
1, 480688, Note_off_c, 0, 58, 50
1, 480688, Control_c, 0, 64, 54
1, 480702, Control_c, 0, 64, 53
1, 480717, Control_c, 0, 64, 52
1, 480732, Control_c, 0, 64, 51
1, 480747, Control_c, 0, 64, 50
1, 480762, Control_c, 0, 64, 49
1, 480773, Note_on_c, 0, 57, 55
1, 480776, Control_c, 0, 64, 47
1, 480791, Control_c, 0, 64, 45
1, 480796, Note_off_c, 0, 40, 33
1, 480806, Control_c, 0, 64, 43
1, 480821, Control_c, 0, 64, 41
1, 480835, Control_c, 0, 64, 39
1, 480850, Control_c, 0, 64, 36
1, 480865, Control_c, 0, 64, 32
1, 480880, Control_c, 0, 64, 29
1, 480894, Control_c, 0, 64, 0
1, 481273, Control_c, 0, 64, 30
1, 481289, Control_c, 0, 64, 33
1, 481304, Control_c, 0, 64, 35
1, 481318, Control_c, 0, 64, 40
1, 481333, Control_c, 0, 64, 45
1, 481338, Note_on_c, 0, 61, 29
1, 481345, Note_on_c, 0, 40, 20
1, 481348, Control_c, 0, 64, 51
1, 481363, Control_c, 0, 64, 57
1, 481378, Control_c, 0, 64, 60
1, 481392, Control_c, 0, 64, 62
1, 481407, Control_c, 0, 64, 63
1, 481422, Control_c, 0, 64, 64
1, 481437, Control_c, 0, 64, 66
1, 481452, Control_c, 0, 64, 67
1, 481467, Control_c, 0, 64, 69
1, 481482, Control_c, 0, 64, 71
1, 481494, Note_off_c, 0, 33, 34
1, 481497, Control_c, 0, 64, 73
1, 481511, Control_c, 0, 64, 74
1, 481526, Control_c, 0, 64, 76
1, 481541, Control_c, 0, 64, 77
1, 481556, Control_c, 0, 64, 79
1, 481571, Control_c, 0, 64, 80
1, 481586, Control_c, 0, 64, 82
1, 481600, Control_c, 0, 64, 84
1, 481615, Control_c, 0, 64, 85
1, 481630, Control_c, 0, 64, 86
1, 481645, Control_c, 0, 64, 87
1, 481660, Control_c, 0, 64, 88
1, 481674, Control_c, 0, 64, 89
1, 481689, Control_c, 0, 64, 89
1, 481704, Control_c, 0, 64, 90
1, 481726, Control_c, 0, 64, 90
1, 481741, Control_c, 0, 64, 91
1, 481756, Control_c, 0, 64, 91
1, 481771, Control_c, 0, 64, 92
1, 481771, Note_on_c, 0, 49, 26
1, 481774, Note_on_c, 0, 64, 37
1, 481800, Control_c, 0, 64, 92
1, 481810, Poly_aftertouch_c, 0, 52, 127
1, 481815, Control_c, 0, 64, 93
1, 481844, Control_c, 0, 64, 93
1, 481864, Note_off_c, 0, 40, 40
1, 481889, Control_c, 0, 64, 94
1, 481914, Note_off_c, 0, 57, 34
1, 481997, Poly_aftertouch_c, 0, 52, 0
1, 482003, Note_off_c, 0, 61, 38
1, 482066, Control_c, 0, 64, 94
1, 482370, Note_on_c, 0, 61, 36
1, 482382, Note_on_c, 0, 52, 33
1, 482544, Note_off_c, 0, 64, 28
1, 482617, Note_on_c, 0, 57, 30
1, 482621, Note_on_c, 0, 54, 28
1, 482650, Note_off_c, 0, 61, 37
1, 482650, Note_off_c, 0, 52, 38
1, 482815, Note_off_c, 0, 49, 24
1, 482859, Note_on_c, 0, 52, 25
1, 482860, Note_on_c, 0, 61, 33
1, 482893, Note_off_c, 0, 57, 35
1, 482904, Note_off_c, 0, 54, 38
1, 483103, Note_on_c, 0, 54, 29
1, 483104, Note_off_c, 0, 61, 31
1, 483113, Note_on_c, 0, 57, 30
1, 483128, Note_off_c, 0, 52, 34
1, 483375, Note_on_c, 0, 61, 30
1, 483423, Poly_aftertouch_c, 0, 52, 127
1, 483425, Note_on_c, 0, 52, 3
1, 483431, Note_off_c, 0, 54, 33
1, 483435, Note_off_c, 0, 57, 34
1, 483652, Control_c, 0, 64, 94
1, 483886, Note_off_c, 0, 61, 41
1, 483892, Note_on_c, 0, 57, 33
1, 483897, Note_off_c, 0, 52, 40
1, 483909, Note_on_c, 0, 54, 15
1, 483972, Control_c, 0, 64, 93
1, 484016, Control_c, 0, 64, 93
1, 484090, Control_c, 0, 64, 92
1, 484108, Note_on_c, 0, 61, 47
1, 484108, Note_off_c, 0, 57, 40
1, 484124, Note_on_c, 0, 52, 40
1, 484135, Control_c, 0, 64, 92
1, 484149, Note_off_c, 0, 54, 40
1, 484194, Control_c, 0, 64, 91
1, 484224, Control_c, 0, 64, 91
1, 484254, Control_c, 0, 64, 90
1, 484269, Control_c, 0, 64, 90
1, 484284, Control_c, 0, 64, 89
1, 484299, Control_c, 0, 64, 89
1, 484313, Control_c, 0, 64, 87
1, 484328, Control_c, 0, 64, 84
1, 484343, Control_c, 0, 64, 78
1, 484343, Note_on_c, 0, 68, 47
1, 484358, Control_c, 0, 64, 71
1, 484373, Note_on_c, 0, 45, 36
1, 484373, Control_c, 0, 64, 64
1, 484379, Note_off_c, 0, 61, 48
1, 484387, Control_c, 0, 64, 58
1, 484400, Note_off_c, 0, 52, 35
1, 484402, Control_c, 0, 64, 55
1, 484432, Control_c, 0, 64, 56
1, 484446, Control_c, 0, 64, 57
1, 484461, Control_c, 0, 64, 59
1, 484476, Control_c, 0, 64, 62
1, 484492, Control_c, 0, 64, 64
1, 484507, Control_c, 0, 64, 67
1, 484522, Control_c, 0, 64, 69
1, 484536, Control_c, 0, 64, 71
1, 484551, Control_c, 0, 64, 73
1, 484566, Control_c, 0, 64, 75
1, 484579, Note_on_c, 0, 52, 31
1, 484581, Control_c, 0, 64, 76
1, 484590, Note_on_c, 0, 66, 41
1, 484596, Control_c, 0, 64, 78
1, 484602, Note_on_c, 0, 61, 33
1, 484610, Control_c, 0, 64, 80
1, 484625, Control_c, 0, 64, 81
1, 484640, Control_c, 0, 64, 83
1, 484654, Control_c, 0, 64, 85
1, 484665, Note_off_c, 0, 68, 36
1, 484669, Control_c, 0, 64, 87
1, 484684, Control_c, 0, 64, 88
1, 484699, Control_c, 0, 64, 89
1, 484722, Control_c, 0, 64, 91
1, 484736, Control_c, 0, 64, 91
1, 484751, Control_c, 0, 64, 92
1, 484766, Control_c, 0, 64, 92
1, 484781, Control_c, 0, 64, 93
1, 484791, Note_off_c, 0, 61, 42
1, 484796, Note_off_c, 0, 45, 32
1, 484834, Note_on_c, 0, 68, 31
1, 484867, Note_on_c, 0, 57, 33
1, 484877, Note_off_c, 0, 52, 35
1, 484898, Control_c, 0, 64, 93
1, 484926, Note_off_c, 0, 66, 33
1, 485357, Note_off_c, 0, 57, 51
1, 485373, Note_on_c, 0, 66, 37
1, 485382, Note_on_c, 0, 52, 37
1, 485384, Note_on_c, 0, 61, 24
1, 485417, Note_off_c, 0, 68, 27
1, 485581, Note_on_c, 0, 68, 34
1, 485585, Note_off_c, 0, 61, 40
1, 485599, Note_on_c, 0, 57, 28
1, 485601, Note_off_c, 0, 66, 34
1, 485792, Note_off_c, 0, 68, 53
1, 485820, Note_on_c, 0, 64, 62
1, 485828, Note_on_c, 0, 66, 43
1, 485831, Note_off_c, 0, 57, 39
1, 485895, Poly_aftertouch_c, 0, 61, 127
1, 486010, Poly_aftertouch_c, 0, 61, 0
1, 486052, Note_off_c, 0, 52, 33
1, 486081, Note_off_c, 0, 66, 35
1, 486088, Note_on_c, 0, 68, 35
1, 486097, Note_on_c, 0, 57, 29
1, 486148, Note_off_c, 0, 64, 37
1, 486336, Note_on_c, 0, 66, 38
1, 486363, Note_on_c, 0, 52, 32
1, 486376, Note_on_c, 0, 61, 8
1, 486389, Note_off_c, 0, 57, 37
1, 486419, Note_off_c, 0, 68, 34
1, 486836, Note_on_c, 0, 57, 32
1, 486855, Note_on_c, 0, 68, 42
1, 486855, Note_off_c, 0, 52, 40
1, 486874, Note_off_c, 0, 61, 39
1, 486907, Note_off_c, 0, 66, 39
1, 487071, Control_c, 0, 64, 93
1, 487137, Note_on_c, 0, 66, 51
1, 487140, Note_on_c, 0, 52, 32
1, 487160, Control_c, 0, 67, 119
1, 487172, Note_on_c, 0, 61, 19
1, 487172, Note_off_c, 0, 57, 35
1, 487175, Control_c, 0, 67, 112
1, 487190, Control_c, 0, 67, 105
1, 487205, Control_c, 0, 67, 96
1, 487219, Control_c, 0, 67, 85
1, 487234, Control_c, 0, 67, 73
1, 487249, Control_c, 0, 67, 62
1, 487263, Control_c, 0, 67, 52
1, 487278, Control_c, 0, 67, 43
1, 487293, Control_c, 0, 67, 0
1, 487367, Control_c, 0, 64, 92
1, 487411, Control_c, 0, 64, 92
1, 487412, Note_off_c, 0, 61, 39
1, 487441, Control_c, 0, 64, 91
1, 487455, Control_c, 0, 64, 91
1, 487470, Control_c, 0, 64, 90
1, 487485, Control_c, 0, 64, 89
1, 487500, Control_c, 0, 64, 88
1, 487515, Control_c, 0, 64, 88
1, 487524, Note_on_c, 0, 45, 36
1, 487530, Control_c, 0, 64, 87
1, 487545, Control_c, 0, 64, 86
1, 487560, Control_c, 0, 64, 85
1, 487574, Control_c, 0, 64, 84
1, 487589, Control_c, 0, 64, 83
1, 487604, Control_c, 0, 64, 82
1, 487619, Control_c, 0, 64, 81
1, 487629, Note_on_c, 0, 73, 75
1, 487634, Control_c, 0, 64, 79
1, 487644, Note_off_c, 0, 68, 3
1, 487648, Control_c, 0, 64, 76
1, 487663, Control_c, 0, 64, 73
1, 487665, Note_off_c, 0, 52, 32
1, 487679, Control_c, 0, 64, 69
1, 487694, Control_c, 0, 64, 64
1, 487696, Note_off_c, 0, 66, 54
1, 487716, Control_c, 0, 64, 58
1, 487731, Control_c, 0, 64, 54
1, 487746, Control_c, 0, 64, 52
1, 487790, Control_c, 0, 64, 53
1, 487805, Control_c, 0, 64, 56
1, 487820, Control_c, 0, 64, 60
1, 487834, Control_c, 0, 64, 64
1, 487849, Control_c, 0, 64, 67
1, 487864, Control_c, 0, 64, 71
1, 487879, Control_c, 0, 64, 74
1, 487894, Control_c, 0, 64, 76
1, 487909, Control_c, 0, 64, 78
1, 487924, Control_c, 0, 64, 80
1, 487939, Control_c, 0, 64, 82
1, 487953, Control_c, 0, 64, 85
1, 487968, Control_c, 0, 64, 87
1, 487983, Control_c, 0, 64, 89
1, 487998, Control_c, 0, 64, 90
1, 488013, Control_c, 0, 64, 92
1, 488028, Control_c, 0, 64, 93
1, 488043, Control_c, 0, 64, 94
1, 488044, Note_on_c, 0, 66, 42
1, 488058, Control_c, 0, 64, 95
1, 488062, Note_on_c, 0, 52, 32
1, 488073, Note_on_c, 0, 61, 26
1, 488087, Control_c, 0, 64, 98
1, 488117, Control_c, 0, 64, 100
1, 488132, Control_c, 0, 67, 40
1, 488147, Control_c, 0, 67, 47
1, 488161, Control_c, 0, 67, 60
1, 488176, Control_c, 0, 67, 71
1, 488191, Control_c, 0, 67, 81
1, 488205, Control_c, 0, 64, 102
1, 488205, Control_c, 0, 67, 90
1, 488220, Control_c, 0, 67, 98
1, 488235, Control_c, 0, 67, 106
1, 488239, Note_off_c, 0, 45, 34
1, 488250, Control_c, 0, 67, 115
1, 488265, Control_c, 0, 67, 125
1, 488273, Note_off_c, 0, 61, 39
1, 488279, Control_c, 0, 67, 127
1, 488308, Note_off_c, 0, 52, 40
1, 488366, Note_on_c, 0, 68, 40
1, 488374, Note_on_c, 0, 57, 21
1, 488403, Note_off_c, 0, 66, 37
1, 488533, Note_off_c, 0, 57, 36
1, 488594, Note_on_c, 0, 64, 38
1, 488597, Note_on_c, 0, 61, 40
1, 488606, Note_off_c, 0, 68, 38
1, 488644, Note_off_c, 0, 64, 49
1, 488803, Note_on_c, 0, 64, 42
1, 488818, Note_on_c, 0, 66, 49
1, 488865, Note_off_c, 0, 66, 56
1, 488892, Note_off_c, 0, 64, 55
1, 489000, Note_off_c, 0, 61, 41
1, 489022, Note_on_c, 0, 68, 51
1, 489028, Control_c, 0, 64, 104
1, 489043, Note_on_c, 0, 69, 44
1, 489055, Note_off_c, 0, 68, 64
1, 489059, Note_off_c, 0, 73, 32
1, 489090, Note_off_c, 0, 69, 62
1, 489247, Note_on_c, 0, 73, 52
1, 489267, Note_on_c, 0, 68, 34
1, 489319, Note_off_c, 0, 68, 45
1, 489335, Poly_aftertouch_c, 0, 77, 127
1, 489348, Poly_aftertouch_c, 0, 76, 127
1, 489374, Poly_aftertouch_c, 0, 77, 0
1, 489391, Poly_aftertouch_c, 0, 76, 0
1, 489471, Note_on_c, 0, 69, 45
1, 489474, Note_on_c, 0, 78, 56
1, 489476, Note_off_c, 0, 73, 58
1, 489651, Note_off_c, 0, 69, 41
1, 489702, Note_on_c, 0, 80, 55
1, 489703, Note_on_c, 0, 73, 42
1, 489732, Note_off_c, 0, 78, 38
1, 489745, Note_off_c, 0, 73, 63
1, 489962, Note_on_c, 0, 78, 50
1, 489974, Note_on_c, 0, 64, 32
1, 489998, Note_off_c, 0, 80, 37
1, 490019, Note_off_c, 0, 64, 48
1, 490046, Note_off_c, 0, 78, 47
1, 490243, Note_on_c, 0, 81, 54
1, 490257, Note_on_c, 0, 78, 42
1, 490287, Note_on_c, 0, 72, 16
1, 490336, Note_off_c, 0, 72, 47
1, 490347, Note_off_c, 0, 78, 48
1, 490555, Control_c, 0, 67, 123
1, 490563, Note_on_c, 0, 76, 47
1, 490570, Control_c, 0, 67, 119
1, 490578, Note_on_c, 0, 73, 47
1, 490585, Control_c, 0, 67, 116
1, 490599, Control_c, 0, 67, 112
1, 490614, Control_c, 0, 67, 109
1, 490629, Control_c, 0, 67, 107
1, 490644, Control_c, 0, 67, 103
1, 490659, Control_c, 0, 67, 98
1, 490660, Note_off_c, 0, 73, 60
1, 490673, Control_c, 0, 67, 88
1, 490688, Control_c, 0, 67, 74
1, 490711, Control_c, 0, 67, 65
1, 490725, Note_off_c, 0, 81, 63
1, 490725, Control_c, 0, 67, 59
1, 490740, Control_c, 0, 67, 56
1, 490755, Control_c, 0, 67, 55
1, 490770, Control_c, 0, 67, 54
1, 490799, Control_c, 0, 67, 53
1, 490829, Control_c, 0, 67, 53
1, 490964, Control_c, 0, 67, 53
1, 490994, Control_c, 0, 67, 54
1, 491024, Control_c, 0, 67, 54
1, 491043, Note_on_c, 0, 80, 32
1, 491050, Note_on_c, 0, 69, 34
1, 491083, Control_c, 0, 67, 55
1, 491089, Note_on_c, 0, 88, 80
1, 491116, Note_on_c, 0, 85, 58
1, 491201, Control_c, 0, 67, 56
1, 491245, Control_c, 0, 67, 56
1, 491260, Control_c, 0, 67, 57
1, 491275, Control_c, 0, 67, 58
1, 491290, Control_c, 0, 67, 59
1, 491304, Control_c, 0, 67, 60
1, 491319, Control_c, 0, 67, 61
1, 491334, Control_c, 0, 67, 62
1, 491349, Control_c, 0, 67, 62
1, 491378, Control_c, 0, 67, 63
1, 491408, Control_c, 0, 67, 64
1, 491475, Control_c, 0, 67, 64
1, 491507, Note_on_c, 0, 79, 41
1, 491519, Control_c, 0, 67, 65
1, 491523, Note_on_c, 0, 81, 42
1, 491543, Note_off_c, 0, 69, 8
1, 491545, Note_off_c, 0, 85, 39
1, 491548, Control_c, 0, 67, 66
1, 491563, Control_c, 0, 67, 66
1, 491578, Control_c, 0, 67, 67
1, 491593, Control_c, 0, 67, 68
1, 491608, Control_c, 0, 67, 69
1, 491610, Note_off_c, 0, 80, 33
1, 491623, Control_c, 0, 67, 70
1, 491653, Control_c, 0, 67, 70
1, 491667, Control_c, 0, 67, 71
1, 491698, Control_c, 0, 67, 71
1, 491713, Control_c, 0, 67, 72
1, 491822, Note_on_c, 0, 80, 47
1, 491844, Note_on_c, 0, 85, 48
1, 491881, Note_off_c, 0, 81, 35
1, 491891, Control_c, 0, 64, 102
1, 491906, Control_c, 0, 64, 100
1, 491906, Control_c, 0, 67, 73
1, 491921, Control_c, 0, 64, 98
1, 491935, Control_c, 0, 64, 95
1, 491950, Control_c, 0, 64, 94
1, 491965, Control_c, 0, 64, 92
1, 491979, Control_c, 0, 64, 91
1, 491981, Note_off_c, 0, 79, 34
1, 491994, Control_c, 0, 64, 90
1, 492009, Control_c, 0, 64, 89
1, 492024, Control_c, 0, 64, 88
1, 492024, Control_c, 0, 67, 72
1, 492039, Control_c, 0, 64, 88
1, 492068, Control_c, 0, 64, 87
1, 492091, Poly_aftertouch_c, 0, 69, 127
1, 492098, Control_c, 0, 64, 87
1, 492157, Control_c, 0, 64, 86
1, 492209, Control_c, 0, 64, 86
1, 492268, Control_c, 0, 64, 85
1, 492386, Control_c, 0, 67, 71
1, 492412, Note_on_c, 0, 79, 47
1, 492418, Note_on_c, 0, 81, 51
1, 492476, Note_off_c, 0, 85, 33
1, 492536, Control_c, 0, 64, 85
1, 492559, Note_off_c, 0, 80, 33
1, 492652, Note_on_c, 0, 80, 43
1, 492654, Note_on_c, 0, 85, 59
1, 492654, Control_c, 0, 64, 84
1, 492683, Note_off_c, 0, 81, 54
1, 492699, Control_c, 0, 64, 84
1, 492703, Note_off_c, 0, 79, 37
1, 492729, Control_c, 0, 64, 83
1, 492744, Control_c, 0, 64, 83
1, 492758, Control_c, 0, 64, 82
1, 492773, Control_c, 0, 64, 82
1, 492788, Control_c, 0, 64, 81
1, 492788, Control_c, 0, 67, 72
1, 492802, Control_c, 0, 64, 80
1, 492817, Control_c, 0, 64, 80
1, 492832, Control_c, 0, 64, 79
1, 492847, Control_c, 0, 64, 79
1, 492862, Control_c, 0, 64, 78
1, 492876, Control_c, 0, 64, 78
1, 492876, Control_c, 0, 67, 73
1, 492891, Control_c, 0, 64, 77
1, 492899, Note_on_c, 0, 79, 55
1, 492906, Control_c, 0, 64, 76
1, 492914, Note_off_c, 0, 85, 54
1, 492921, Control_c, 0, 64, 74
1, 492921, Control_c, 0, 67, 73
1, 492923, Note_on_c, 0, 81, 45
1, 492936, Control_c, 0, 64, 73
1, 492958, Control_c, 0, 64, 72
1, 492973, Control_c, 0, 64, 71
1, 492988, Control_c, 0, 64, 69
1, 493002, Control_c, 0, 64, 67
1, 493017, Control_c, 0, 64, 66
1, 493032, Control_c, 0, 64, 66
1, 493076, Control_c, 0, 64, 65
1, 493146, Note_off_c, 0, 80, 38
1, 493149, Poly_aftertouch_c, 0, 70, 127
1, 493157, Note_on_c, 0, 78, 56
1, 493170, Note_on_c, 0, 85, 44
1, 493179, Control_c, 0, 67, 74
1, 493181, Note_off_c, 0, 81, 40
1, 493200, Note_off_c, 0, 79, 38
1, 493284, Control_c, 0, 67, 75
1, 493328, Control_c, 0, 67, 75
1, 493387, Control_c, 0, 67, 76
1, 493417, Control_c, 0, 67, 77
1, 493432, Control_c, 0, 67, 77
1, 493470, Note_on_c, 0, 79, 41
1, 493484, Note_on_c, 0, 81, 38
1, 493489, Note_off_c, 0, 85, 39
1, 493491, Control_c, 0, 67, 78
1, 493530, Note_off_c, 0, 78, 38
1, 493639, Control_c, 0, 67, 79
1, 493669, Control_c, 0, 67, 79
1, 493706, Control_c, 0, 67, 80
1, 493736, Control_c, 0, 67, 81
1, 493750, Control_c, 0, 64, 65
1, 493750, Control_c, 0, 67, 81
1, 493780, Control_c, 0, 67, 82
1, 493795, Control_c, 0, 67, 83
1, 493810, Control_c, 0, 67, 84
1, 493824, Control_c, 0, 67, 85
1, 493839, Control_c, 0, 67, 85
1, 493854, Control_c, 0, 67, 86
1, 493869, Control_c, 0, 67, 87
1, 493885, Control_c, 0, 67, 88
1, 493899, Control_c, 0, 67, 90
1, 493914, Control_c, 0, 67, 92
1, 493929, Control_c, 0, 67, 99
1, 493944, Control_c, 0, 67, 107
1, 493958, Control_c, 0, 67, 114
1, 493973, Control_c, 0, 67, 119
1, 493988, Control_c, 0, 67, 124
1, 494003, Control_c, 0, 67, 127
1, 494078, Control_c, 0, 64, 64
1, 494159, Note_on_c, 0, 78, 43
1, 494159, Note_on_c, 0, 85, 40
1, 494211, Control_c, 0, 64, 64
1, 494242, Note_off_c, 0, 81, 35
1, 494280, Note_off_c, 0, 79, 35
1, 494329, Control_c, 0, 64, 64
1, 494344, Control_c, 0, 64, 65
1, 494374, Control_c, 0, 64, 65
1, 494389, Control_c, 0, 64, 66
1, 494404, Control_c, 0, 64, 66
1, 494434, Control_c, 0, 64, 67
1, 494470, Control_c, 0, 64, 67
1, 494574, Control_c, 0, 64, 67
1, 494589, Note_on_c, 0, 77, 39
1, 494589, Control_c, 0, 64, 66
1, 494599, Note_on_c, 0, 81, 33
1, 494604, Control_c, 0, 64, 65
1, 494613, Note_off_c, 0, 76, 43
1, 494619, Control_c, 0, 64, 63
1, 494621, Note_off_c, 0, 78, 36
1, 494633, Control_c, 0, 64, 62
1, 494648, Control_c, 0, 64, 61
1, 494678, Control_c, 0, 64, 62
1, 494693, Control_c, 0, 64, 63
1, 494708, Control_c, 0, 64, 65
1, 494722, Control_c, 0, 64, 69
1, 494737, Control_c, 0, 64, 74
1, 494752, Control_c, 0, 64, 78
1, 494767, Control_c, 0, 64, 80
1, 494781, Control_c, 0, 64, 83
1, 494796, Control_c, 0, 64, 87
1, 494811, Control_c, 0, 64, 94
1, 494813, Poly_aftertouch_c, 0, 69, 0
1, 494826, Control_c, 0, 64, 101
1, 494839, Poly_aftertouch_c, 0, 70, 0
1, 494841, Control_c, 0, 64, 109
1, 494845, Note_off_c, 0, 81, 61
1, 494855, Control_c, 0, 64, 127
1, 494895, Note_off_c, 0, 85, 35
1, 494922, Note_off_c, 0, 77, 36
1, 494943, Note_off_c, 0, 88, 60
1, 495444, Note_on_c, 0, 91, 54
1, 495456, Note_on_c, 0, 60, 30
1, 495459, Note_on_c, 0, 84, 41
1, 495462, Note_on_c, 0, 79, 24
1, 495480, Note_on_c, 0, 76, 6
1, 495486, Control_c, 0, 64, 112
1, 495501, Control_c, 0, 64, 101
1, 495515, Control_c, 0, 64, 93
1, 495530, Control_c, 0, 64, 85
1, 495545, Control_c, 0, 64, 78
1, 495560, Control_c, 0, 64, 72
1, 495575, Control_c, 0, 64, 64
1, 495590, Control_c, 0, 64, 59
1, 495604, Control_c, 0, 64, 56
1, 495619, Control_c, 0, 64, 55
1, 495694, Control_c, 0, 64, 55
1, 495709, Control_c, 0, 64, 57
1, 495724, Control_c, 0, 64, 59
1, 495739, Control_c, 0, 64, 62
1, 495754, Control_c, 0, 64, 65
1, 495768, Control_c, 0, 64, 69
1, 495783, Control_c, 0, 64, 74
1, 495798, Control_c, 0, 64, 77
1, 495812, Control_c, 0, 64, 80
1, 495827, Control_c, 0, 64, 83
1, 495842, Control_c, 0, 64, 87
1, 495857, Control_c, 0, 64, 92
1, 495872, Control_c, 0, 64, 98
1, 495886, Control_c, 0, 64, 103
1, 495901, Control_c, 0, 64, 108
1, 495916, Control_c, 0, 64, 112
1, 495931, Control_c, 0, 64, 119
1, 495954, Control_c, 0, 64, 127
1, 496029, Note_on_c, 0, 67, 26
1, 496113, Note_off_c, 0, 76, 43
1, 496490, Note_on_c, 0, 76, 34
1, 496636, Note_off_c, 0, 67, 42
1, 496881, Note_off_c, 0, 79, 45
1, 497009, Note_off_c, 0, 84, 38
1, 497125, Note_on_c, 0, 67, 33
1, 497185, Note_off_c, 0, 76, 43
1, 497368, Note_off_c, 0, 91, 40
1, 497378, Note_on_c, 0, 76, 30
1, 497380, Note_off_c, 0, 67, 42
1, 497611, Note_on_c, 0, 91, 59
1, 497623, Note_on_c, 0, 84, 46
1, 497623, Note_on_c, 0, 67, 32
1, 497629, Note_on_c, 0, 79, 32
1, 497656, Note_off_c, 0, 76, 42
1, 497857, Note_off_c, 0, 67, 41
1, 497861, Note_on_c, 0, 76, 29
1, 497883, Note_off_c, 0, 79, 43
1, 498133, Note_on_c, 0, 67, 29
1, 498155, Note_off_c, 0, 84, 35
1, 498201, Note_off_c, 0, 76, 39
1, 498451, Control_c, 0, 67, 117
1, 498466, Control_c, 0, 67, 107
1, 498481, Control_c, 0, 67, 99
1, 498495, Control_c, 0, 67, 93
1, 498510, Control_c, 0, 67, 88
1, 498525, Control_c, 0, 67, 85
1, 498539, Control_c, 0, 67, 81
1, 498554, Control_c, 0, 67, 78
1, 498569, Control_c, 0, 67, 72
1, 498584, Control_c, 0, 67, 65
1, 498599, Control_c, 0, 67, 58
1, 498613, Control_c, 0, 67, 51
1, 498628, Control_c, 0, 67, 43
1, 498643, Control_c, 0, 67, 0
1, 498673, Note_on_c, 0, 76, 42
1, 498714, Note_off_c, 0, 67, 42
1, 498854, Note_off_c, 0, 91, 36
1, 498889, Note_on_c, 0, 67, 40
1, 498908, Note_off_c, 0, 76, 37
1, 498940, Note_off_c, 0, 60, 42
1, 499149, Note_on_c, 0, 91, 67
1, 499155, Control_c, 0, 64, 114
1, 499164, Note_on_c, 0, 76, 36
1, 499165, Note_on_c, 0, 79, 39
1, 499166, Note_on_c, 0, 84, 45
1, 499170, Control_c, 0, 64, 98
1, 499185, Control_c, 0, 64, 86
1, 499200, Control_c, 0, 64, 78
1, 499211, Note_on_c, 0, 60, 6
1, 499215, Control_c, 0, 64, 71
1, 499230, Control_c, 0, 64, 67
1, 499244, Control_c, 0, 64, 65
1, 499248, Note_off_c, 0, 67, 44
1, 499274, Control_c, 0, 64, 66
1, 499289, Control_c, 0, 64, 68
1, 499304, Control_c, 0, 64, 71
1, 499318, Control_c, 0, 64, 75
1, 499333, Control_c, 0, 64, 78
1, 499348, Control_c, 0, 64, 81
1, 499362, Control_c, 0, 64, 84
1, 499377, Control_c, 0, 64, 87
1, 499392, Control_c, 0, 64, 91
1, 499407, Control_c, 0, 64, 97
1, 499422, Control_c, 0, 64, 104
1, 499436, Note_off_c, 0, 79, 46
1, 499436, Control_c, 0, 64, 114
1, 499439, Note_on_c, 0, 67, 34
1, 499451, Control_c, 0, 64, 127
1, 499481, Note_off_c, 0, 76, 41
1, 499740, Note_on_c, 0, 76, 23
1, 499797, Note_off_c, 0, 67, 38
1, 499810, Note_off_c, 0, 84, 38
1, 500253, Note_on_c, 0, 67, 31
1, 500306, Note_off_c, 0, 76, 44
1, 500449, Note_off_c, 0, 91, 57
1, 500503, Note_on_c, 0, 76, 34
1, 500518, Note_off_c, 0, 67, 43
1, 500728, Note_on_c, 0, 91, 72
1, 500738, Note_on_c, 0, 67, 38
1, 500747, Note_on_c, 0, 84, 48
1, 500750, Note_on_c, 0, 79, 37
1, 500755, Note_off_c, 0, 76, 41
1, 500975, Note_off_c, 0, 67, 35
1, 500996, Note_on_c, 0, 76, 28
1, 501042, Note_off_c, 0, 79, 40
1, 501242, Note_off_c, 0, 76, 38
1, 501256, Note_on_c, 0, 67, 36
1, 501589, Note_off_c, 0, 84, 49
1, 501808, Note_on_c, 0, 76, 47
1, 501845, Note_off_c, 0, 67, 37
1, 502033, Note_off_c, 0, 76, 38
1, 502068, Note_on_c, 0, 67, 58
1, 502122, Note_off_c, 0, 60, 42
1, 502175, Note_off_c, 0, 91, 61
1, 502417, Note_on_c, 0, 74, 46
1, 502422, Note_on_c, 0, 60, 33
1, 502453, Note_on_c, 0, 91, 73
1, 502461, Control_c, 0, 64, 109
1, 502464, Note_on_c, 0, 89, 67
1, 502467, Note_on_c, 0, 82, 51
1, 502467, Note_on_c, 0, 77, 47
1, 502476, Control_c, 0, 64, 92
1, 502491, Control_c, 0, 64, 80
1, 502506, Control_c, 0, 64, 67
1, 502512, Note_off_c, 0, 67, 38
1, 502521, Control_c, 0, 64, 59
1, 502536, Control_c, 0, 64, 52
1, 502551, Control_c, 0, 64, 48
1, 502566, Control_c, 0, 64, 47
1, 502595, Control_c, 0, 64, 47
1, 502610, Control_c, 0, 64, 50
1, 502625, Control_c, 0, 64, 56
1, 502640, Control_c, 0, 64, 62
1, 502654, Control_c, 0, 64, 66
1, 502669, Control_c, 0, 64, 70
1, 502691, Control_c, 0, 64, 74
1, 502706, Control_c, 0, 64, 77
1, 502721, Control_c, 0, 64, 80
1, 502736, Control_c, 0, 64, 84
1, 502750, Control_c, 0, 64, 89
1, 502765, Control_c, 0, 64, 95
1, 502780, Control_c, 0, 64, 102
1, 502795, Control_c, 0, 64, 110
1, 502810, Control_c, 0, 64, 127
1, 502822, Note_on_c, 0, 67, 39
1, 502848, Note_off_c, 0, 74, 36
1, 503117, Note_on_c, 0, 74, 32
1, 503150, Note_off_c, 0, 67, 32
1, 503241, Note_off_c, 0, 77, 37
1, 503483, Note_off_c, 0, 82, 35
1, 503633, Note_on_c, 0, 67, 38
1, 503677, Note_off_c, 0, 74, 41
1, 503738, Note_off_c, 0, 91, 54
1, 503745, Note_off_c, 0, 89, 32
1, 503878, Note_on_c, 0, 74, 29
1, 503889, Note_off_c, 0, 67, 37
1, 504083, Note_on_c, 0, 91, 60
1, 504093, Note_off_c, 0, 74, 39
1, 504094, Note_on_c, 0, 89, 50
1, 504097, Note_on_c, 0, 82, 40
1, 504102, Note_on_c, 0, 67, 31
1, 504102, Note_on_c, 0, 77, 34
1, 504312, Note_off_c, 0, 67, 41
1, 504344, Note_on_c, 0, 74, 31
1, 504587, Note_off_c, 0, 74, 37
1, 504587, Note_off_c, 0, 77, 34
1, 504598, Note_on_c, 0, 67, 28
1, 504820, Note_off_c, 0, 82, 26
1, 505148, Note_on_c, 0, 74, 39
1, 505166, Note_off_c, 0, 67, 43
1, 505272, Note_off_c, 0, 89, 32
1, 505281, Note_off_c, 0, 91, 37
1, 505369, Note_off_c, 0, 74, 34
1, 505381, Note_on_c, 0, 67, 25
1, 505436, Note_off_c, 0, 60, 41
1, 505608, Note_on_c, 0, 91, 57
1, 505620, Note_on_c, 0, 89, 51
1, 505621, Note_on_c, 0, 77, 34
1, 505621, Control_c, 0, 64, 108
1, 505624, Note_on_c, 0, 74, 42
1, 505627, Note_on_c, 0, 82, 35
1, 505636, Note_on_c, 0, 60, 24
1, 505636, Control_c, 0, 64, 89
1, 505651, Control_c, 0, 64, 78
1, 505666, Control_c, 0, 64, 69
1, 505687, Control_c, 0, 64, 64
1, 505691, Note_off_c, 0, 67, 41
1, 505702, Control_c, 0, 64, 62
1, 505717, Control_c, 0, 64, 62
1, 505746, Control_c, 0, 64, 63
1, 505761, Control_c, 0, 64, 66
1, 505776, Control_c, 0, 64, 71
1, 505791, Control_c, 0, 64, 77
1, 505806, Control_c, 0, 64, 81
1, 505821, Control_c, 0, 64, 84
1, 505836, Control_c, 0, 64, 87
1, 505851, Control_c, 0, 64, 91
1, 505866, Control_c, 0, 64, 96
1, 505880, Control_c, 0, 64, 103
1, 505889, Note_on_c, 0, 67, 14
1, 505895, Control_c, 0, 64, 110
1, 505908, Note_off_c, 0, 74, 32
1, 505910, Control_c, 0, 64, 120
1, 505925, Control_c, 0, 64, 127
1, 506148, Note_on_c, 0, 74, 25
1, 506152, Note_off_c, 0, 67, 39
1, 506369, Control_c, 0, 67, 41
1, 506384, Control_c, 0, 67, 49
1, 506399, Control_c, 0, 67, 56
1, 506414, Control_c, 0, 67, 64
1, 506436, Control_c, 0, 67, 75
1, 506451, Control_c, 0, 67, 86
1, 506466, Control_c, 0, 67, 92
1, 506481, Control_c, 0, 67, 96
1, 506488, Note_off_c, 0, 77, 36
1, 506496, Control_c, 0, 67, 99
1, 506670, Note_off_c, 0, 74, 38
1, 506673, Control_c, 0, 67, 97
1, 506676, Note_on_c, 0, 67, 31
1, 506699, Note_off_c, 0, 82, 33
1, 506703, Control_c, 0, 67, 96
1, 506718, Control_c, 0, 67, 95
1, 506733, Control_c, 0, 67, 94
1, 506748, Control_c, 0, 67, 94
1, 506777, Control_c, 0, 67, 92
1, 506792, Control_c, 0, 67, 92
1, 506807, Control_c, 0, 67, 91
1, 506836, Control_c, 0, 67, 90
1, 506878, Note_off_c, 0, 67, 44
1, 506880, Note_off_c, 0, 89, 31
1, 506882, Control_c, 0, 67, 89
1, 506884, Note_off_c, 0, 91, 38
1, 506888, Note_on_c, 0, 74, 30
1, 506985, Control_c, 0, 67, 88
1, 507030, Control_c, 0, 67, 88
1, 507059, Control_c, 0, 67, 87
1, 507096, Note_off_c, 0, 74, 40
1, 507112, Note_on_c, 0, 67, 30
1, 507112, Note_on_c, 0, 91, 55
1, 507120, Note_on_c, 0, 82, 37
1, 507121, Note_on_c, 0, 77, 38
1, 507126, Note_on_c, 0, 89, 47
1, 507359, Note_off_c, 0, 67, 41
1, 507386, Note_off_c, 0, 77, 40
1, 507388, Note_on_c, 0, 74, 31
1, 507408, Control_c, 0, 67, 88
1, 507532, Note_off_c, 0, 82, 33
1, 507660, Note_off_c, 0, 74, 36
1, 507663, Note_on_c, 0, 67, 19
1, 507749, Control_c, 0, 67, 88
1, 507764, Control_c, 0, 67, 89
1, 507779, Control_c, 0, 67, 90
1, 507794, Control_c, 0, 67, 92
1, 507809, Control_c, 0, 67, 92
1, 507824, Control_c, 0, 67, 94
1, 507839, Control_c, 0, 67, 94
1, 507854, Control_c, 0, 67, 95
1, 507913, Control_c, 0, 67, 96
1, 508024, Control_c, 0, 67, 98
1, 508098, Control_c, 0, 67, 100
1, 508152, Note_on_c, 0, 74, 43
1, 508203, Note_off_c, 0, 67, 42
1, 508349, Control_c, 0, 67, 98
1, 508513, Control_c, 0, 67, 96
1, 508527, Note_off_c, 0, 74, 35
1, 508531, Note_on_c, 0, 67, 24
1, 508587, Control_c, 0, 67, 95
1, 508632, Note_off_c, 0, 60, 41
1, 508635, Note_off_c, 0, 91, 51
1, 508646, Control_c, 0, 67, 94
1, 508787, Control_c, 0, 67, 94
1, 508933, Note_on_c, 0, 76, 31
1, 508969, Note_on_c, 0, 60, 25
1, 509004, Note_on_c, 0, 91, 52
1, 509008, Control_c, 0, 64, 112
1, 509009, Note_on_c, 0, 84, 41
1, 509022, Control_c, 0, 64, 99
1, 509031, Note_on_c, 0, 79, 23
1, 509037, Control_c, 0, 64, 86
1, 509052, Control_c, 0, 64, 76
1, 509062, Note_off_c, 0, 89, 48
1, 509067, Control_c, 0, 64, 67
1, 509082, Control_c, 0, 64, 61
1, 509094, Note_off_c, 0, 67, 43
1, 509097, Control_c, 0, 64, 57
1, 509112, Control_c, 0, 64, 55
1, 509171, Control_c, 0, 64, 56
1, 509186, Control_c, 0, 64, 57
1, 509201, Control_c, 0, 64, 59
1, 509215, Control_c, 0, 64, 62
1, 509230, Control_c, 0, 64, 64
1, 509246, Control_c, 0, 64, 67
1, 509261, Control_c, 0, 64, 71
1, 509261, Control_c, 0, 67, 93
1, 509276, Control_c, 0, 64, 75
1, 509290, Control_c, 0, 64, 78
1, 509290, Control_c, 0, 67, 92
1, 509305, Control_c, 0, 64, 80
1, 509305, Control_c, 0, 67, 92
1, 509320, Control_c, 0, 64, 83
1, 509335, Control_c, 0, 64, 87
1, 509335, Control_c, 0, 67, 91
1, 509350, Control_c, 0, 64, 93
1, 509350, Control_c, 0, 67, 90
1, 509364, Control_c, 0, 64, 98
1, 509364, Control_c, 0, 67, 90
1, 509379, Control_c, 0, 64, 104
1, 509379, Control_c, 0, 67, 89
1, 509394, Control_c, 0, 64, 112
1, 509394, Control_c, 0, 67, 88
1, 509404, Note_on_c, 0, 67, 48
1, 509409, Control_c, 0, 64, 127
1, 509409, Control_c, 0, 67, 87
1, 509431, Control_c, 0, 67, 86
1, 509446, Control_c, 0, 67, 85
1, 509460, Control_c, 0, 67, 85
1, 509471, Note_off_c, 0, 76, 42
1, 509475, Control_c, 0, 67, 84
1, 509490, Control_c, 0, 67, 83
1, 509505, Control_c, 0, 67, 82
1, 509520, Control_c, 0, 67, 81
1, 509535, Control_c, 0, 67, 81
1, 509550, Control_c, 0, 67, 80
1, 509565, Control_c, 0, 67, 79
1, 509624, Control_c, 0, 67, 79
1, 509683, Control_c, 0, 67, 78
1, 509707, Note_on_c, 0, 76, 46
1, 509768, Note_off_c, 0, 60, 42
1, 509776, Note_off_c, 0, 67, 33
1, 510039, Control_c, 0, 67, 77
1, 510113, Note_off_c, 0, 91, 36
1, 510134, Note_off_c, 0, 84, 38
1, 510257, Note_on_c, 0, 72, 38
1, 510265, Note_off_c, 0, 79, 42
1, 510301, Note_off_c, 0, 76, 35
1, 510343, Control_c, 0, 67, 77
1, 510373, Control_c, 0, 67, 76
1, 510417, Control_c, 0, 67, 75
1, 510495, Note_on_c, 0, 67, 41
1, 510531, Note_off_c, 0, 72, 37
1, 510580, Control_c, 0, 67, 75
1, 510715, Note_on_c, 0, 88, 63
1, 510721, Note_on_c, 0, 83, 54
1, 510736, Note_on_c, 0, 76, 40
1, 510737, Note_on_c, 0, 72, 48
1, 510739, Note_off_c, 0, 67, 56
1, 510802, Control_c, 0, 67, 75
1, 510862, Control_c, 0, 67, 76
1, 510922, Note_off_c, 0, 72, 47
1, 510960, Note_on_c, 0, 67, 41
1, 511091, Control_c, 0, 67, 75
1, 511121, Control_c, 0, 67, 75
1, 511166, Control_c, 0, 67, 74
1, 511180, Control_c, 0, 67, 73
1, 511195, Control_c, 0, 67, 73
1, 511210, Note_off_c, 0, 67, 55
1, 511216, Note_on_c, 0, 72, 46
1, 511225, Control_c, 0, 67, 72
1, 511255, Control_c, 0, 67, 71
1, 511284, Control_c, 0, 67, 71
1, 511299, Control_c, 0, 67, 70
1, 511314, Control_c, 0, 67, 70
1, 511343, Control_c, 0, 67, 69
1, 511358, Control_c, 0, 67, 68
1, 511373, Control_c, 0, 67, 68
1, 511388, Control_c, 0, 67, 67
1, 511403, Control_c, 0, 67, 66
1, 511417, Control_c, 0, 67, 64
1, 511432, Control_c, 0, 67, 61
1, 511447, Control_c, 0, 67, 54
1, 511462, Note_off_c, 0, 76, 43
1, 511462, Control_c, 0, 67, 47
1, 511476, Control_c, 0, 67, 41
1, 511491, Control_c, 0, 67, 0
1, 511713, Note_on_c, 0, 67, 45
1, 511770, Note_off_c, 0, 72, 34
1, 511888, Note_off_c, 0, 88, 52
1, 511938, Note_on_c, 0, 72, 51
1, 511940, Note_off_c, 0, 67, 55
1, 512166, Note_on_c, 0, 88, 74
1, 512170, Note_on_c, 0, 67, 44
1, 512179, Note_on_c, 0, 81, 58
1, 512186, Note_on_c, 0, 60, 37
1, 512189, Note_on_c, 0, 76, 41
1, 512211, Control_c, 0, 64, 101
1, 512225, Control_c, 0, 64, 82
1, 512230, Note_off_c, 0, 72, 37
1, 512240, Control_c, 0, 64, 68
1, 512244, Note_off_c, 0, 83, 55
1, 512255, Control_c, 0, 64, 58
1, 512270, Control_c, 0, 64, 49
1, 512285, Control_c, 0, 64, 46
1, 512299, Control_c, 0, 64, 48
1, 512314, Control_c, 0, 64, 52
1, 512329, Control_c, 0, 64, 58
1, 512344, Control_c, 0, 64, 62
1, 512359, Control_c, 0, 64, 66
1, 512373, Control_c, 0, 64, 71
1, 512388, Control_c, 0, 64, 76
1, 512403, Control_c, 0, 64, 81
1, 512425, Control_c, 0, 64, 87
1, 512440, Control_c, 0, 64, 96
1, 512456, Control_c, 0, 64, 108
1, 512471, Control_c, 0, 64, 127
1, 512493, Note_off_c, 0, 67, 56
1, 512496, Note_on_c, 0, 72, 51
1, 512635, Note_off_c, 0, 76, 34
1, 512732, Note_on_c, 0, 67, 47
1, 512741, Note_off_c, 0, 72, 38
1, 512840, Note_off_c, 0, 81, 53
1, 513055, Note_off_c, 0, 88, 62
1, 513231, Note_on_c, 0, 72, 53
1, 513241, Note_off_c, 0, 67, 62
1, 513438, Note_on_c, 0, 67, 70
1, 513464, Note_off_c, 0, 72, 56
1, 513675, Note_on_c, 0, 91, 88
1, 513676, Note_on_c, 0, 76, 72
1, 513680, Note_on_c, 0, 83, 63
1, 513685, Note_off_c, 0, 67, 61
1, 513697, Note_on_c, 0, 72, 54
1, 513928, Note_off_c, 0, 72, 52
1, 513931, Note_on_c, 0, 67, 63
1, 513942, Note_off_c, 0, 76, 57
1, 514120, Note_off_c, 0, 67, 61
1, 514184, Note_on_c, 0, 72, 69
1, 514397, Note_off_c, 0, 72, 53
1, 514691, Note_on_c, 0, 67, 76
1, 514935, Note_off_c, 0, 67, 60
1, 514948, Note_off_c, 0, 83, 55
1, 515024, Note_on_c, 0, 72, 83
1, 515281, Note_off_c, 0, 60, 61
1, 515304, Note_off_c, 0, 72, 61
1, 515313, Note_off_c, 0, 91, 55
1, 515501, Note_on_c, 0, 91, 87
1, 515510, Note_on_c, 0, 73, 72
1, 515511, Note_on_c, 0, 77, 68
1, 515512, Note_on_c, 0, 84, 62
1, 515514, Note_on_c, 0, 60, 56
1, 515514, Note_on_c, 0, 88, 74
1, 515569, Control_c, 0, 64, 91
1, 515584, Control_c, 0, 64, 76
1, 515598, Control_c, 0, 64, 64
1, 515613, Control_c, 0, 64, 54
1, 515628, Control_c, 0, 64, 45
1, 515644, Control_c, 0, 64, 37
1, 515658, Control_c, 0, 64, 0
1, 515792, Control_c, 0, 64, 29
1, 515807, Control_c, 0, 64, 42
1, 515822, Control_c, 0, 64, 55
1, 515837, Control_c, 0, 64, 62
1, 515852, Control_c, 0, 64, 65
1, 515866, Control_c, 0, 64, 67
1, 515881, Control_c, 0, 64, 71
1, 515896, Control_c, 0, 64, 76
1, 515911, Control_c, 0, 64, 81
1, 515926, Control_c, 0, 64, 87
1, 515940, Control_c, 0, 64, 93
1, 515945, Note_on_c, 0, 68, 66
1, 515955, Control_c, 0, 64, 98
1, 515970, Control_c, 0, 64, 106
1, 515985, Control_c, 0, 64, 119
1, 516000, Control_c, 0, 64, 127
1, 516091, Note_off_c, 0, 73, 38
1, 516344, Note_on_c, 0, 73, 63
1, 516382, Note_off_c, 0, 68, 59
1, 516653, Note_off_c, 0, 91, 61
1, 516669, Note_off_c, 0, 88, 61
1, 516683, Note_off_c, 0, 84, 56
1, 516748, Note_off_c, 0, 77, 62
1, 516948, Note_on_c, 0, 68, 38
1, 516993, Note_off_c, 0, 73, 53
1, 517061, Note_on_c, 0, 77, 70
1, 517089, Note_on_c, 0, 72, 36
1, 517193, Note_on_c, 0, 73, 48
1, 517193, Note_off_c, 0, 68, 47
1, 517344, Note_off_c, 0, 77, 63
1, 517349, Note_off_c, 0, 72, 41
1, 517422, Note_on_c, 0, 77, 77
1, 517427, Note_on_c, 0, 68, 50
1, 517462, Note_on_c, 0, 72, 34
1, 517483, Control_c, 0, 64, 105
1, 517498, Control_c, 0, 64, 96
1, 517511, Note_off_c, 0, 73, 47
1, 517512, Control_c, 0, 64, 94
1, 517601, Control_c, 0, 64, 94
1, 517631, Control_c, 0, 64, 95
1, 517646, Control_c, 0, 64, 95
1, 517698, Note_off_c, 0, 72, 41
1, 517698, Control_c, 0, 64, 98
1, 517721, Note_off_c, 0, 77, 60
1, 517740, Note_on_c, 0, 73, 41
1, 517772, Control_c, 0, 64, 100
1, 517785, Note_off_c, 0, 68, 38
1, 517822, Note_on_c, 0, 77, 75
1, 517851, Note_on_c, 0, 72, 31
1, 517986, Note_on_c, 0, 68, 37
1, 518077, Note_off_c, 0, 72, 41
1, 518090, Note_off_c, 0, 77, 60
1, 518129, Control_c, 0, 67, 43
1, 518137, Note_off_c, 0, 73, 34
1, 518143, Control_c, 0, 67, 50
1, 518158, Control_c, 0, 67, 56
1, 518173, Control_c, 0, 67, 65
1, 518185, Note_on_c, 0, 77, 62
1, 518188, Control_c, 0, 67, 75
1, 518202, Control_c, 0, 67, 83
1, 518206, Note_on_c, 0, 72, 18
1, 518217, Control_c, 0, 67, 88
1, 518232, Control_c, 0, 67, 94
1, 518247, Control_c, 0, 67, 98
1, 518261, Control_c, 0, 67, 101
1, 518276, Control_c, 0, 67, 103
1, 518306, Control_c, 0, 67, 109
1, 518321, Control_c, 0, 67, 115
1, 518335, Control_c, 0, 67, 119
1, 518350, Control_c, 0, 67, 121
1, 518365, Control_c, 0, 67, 124
1, 518380, Control_c, 0, 67, 126
1, 518460, Note_off_c, 0, 72, 41
1, 518461, Note_on_c, 0, 73, 38
1, 518473, Note_off_c, 0, 68, 38
1, 518516, Note_off_c, 0, 77, 37
1, 518627, Note_on_c, 0, 77, 51
1, 518652, Note_on_c, 0, 72, 31
1, 518689, Note_off_c, 0, 73, 38
1, 518852, Note_off_c, 0, 72, 49
1, 518883, Note_on_c, 0, 68, 34
1, 519074, Note_off_c, 0, 68, 57
1, 519110, Note_off_c, 0, 60, 34
1, 519387, Control_c, 0, 64, 97
1, 519396, Note_on_c, 0, 62, 56
1, 519402, Control_c, 0, 64, 94
1, 519417, Control_c, 0, 64, 89
1, 519432, Control_c, 0, 64, 82
1, 519432, Note_on_c, 0, 60, 38
1, 519446, Control_c, 0, 64, 73
1, 519461, Control_c, 0, 64, 65
1, 519476, Control_c, 0, 64, 57
1, 519486, Note_on_c, 0, 81, 59
1, 519491, Control_c, 0, 64, 51
1, 519506, Control_c, 0, 64, 44
1, 519512, Note_off_c, 0, 77, 54
1, 519521, Control_c, 0, 64, 37
1, 519536, Control_c, 0, 64, 30
1, 519550, Control_c, 0, 64, 0
1, 519655, Control_c, 0, 64, 37
1, 519670, Control_c, 0, 64, 48
1, 519685, Control_c, 0, 64, 57
1, 519700, Control_c, 0, 64, 62
1, 519714, Control_c, 0, 64, 64
1, 519729, Control_c, 0, 64, 65
1, 519744, Control_c, 0, 64, 67
1, 519759, Control_c, 0, 64, 69
1, 519774, Control_c, 0, 64, 71
1, 519788, Control_c, 0, 64, 72
1, 519803, Control_c, 0, 64, 74
1, 519818, Control_c, 0, 64, 75
1, 519832, Control_c, 0, 64, 76
1, 519838, Note_on_c, 0, 77, 44
1, 519847, Control_c, 0, 64, 77
1, 519853, Note_off_c, 0, 81, 39
1, 519862, Control_c, 0, 64, 78
1, 519877, Control_c, 0, 64, 78
1, 519892, Control_c, 0, 64, 79
1, 519929, Control_c, 0, 64, 79
1, 520094, Note_on_c, 0, 65, 36
1, 520241, Note_off_c, 0, 65, 42
1, 520362, Note_on_c, 0, 71, 17
1, 520508, Note_off_c, 0, 77, 12
1, 520540, Note_off_c, 0, 71, 40
1, 520558, Note_on_c, 0, 67, 36
1, 520612, Control_c, 0, 64, 79
1, 520660, Note_on_c, 0, 64, 55
1, 520678, Control_c, 0, 64, 78
1, 520708, Control_c, 0, 64, 78
1, 520723, Control_c, 0, 64, 77
1, 520737, Control_c, 0, 64, 76
1, 520752, Control_c, 0, 64, 74
1, 520755, Note_off_c, 0, 67, 42
1, 520767, Control_c, 0, 64, 73
1, 520777, Note_on_c, 0, 71, 38
1, 520782, Control_c, 0, 64, 71
1, 520797, Note_off_c, 0, 62, 40
1, 520797, Control_c, 0, 64, 68
1, 520812, Control_c, 0, 64, 66
1, 520827, Control_c, 0, 64, 65
1, 520842, Control_c, 0, 64, 64
1, 520930, Control_c, 0, 64, 64
1, 520945, Control_c, 0, 64, 62
1, 520960, Control_c, 0, 64, 61
1, 520975, Control_c, 0, 64, 59
1, 520986, Note_off_c, 0, 71, 52
1, 520988, Note_on_c, 0, 65, 54
1, 520989, Control_c, 0, 64, 59
1, 521004, Control_c, 0, 64, 58
1, 521014, Note_on_c, 0, 74, 42
1, 521049, Note_off_c, 0, 64, 59
1, 521049, Control_c, 0, 64, 59
1, 521063, Control_c, 0, 64, 59
1, 521078, Control_c, 0, 64, 61
1, 521093, Control_c, 0, 64, 63
1, 521108, Control_c, 0, 64, 65
1, 521123, Control_c, 0, 64, 66
1, 521137, Control_c, 0, 64, 68
1, 521152, Control_c, 0, 64, 69
1, 521167, Control_c, 0, 64, 69
1, 521187, Note_off_c, 0, 74, 56
1, 521206, Note_on_c, 0, 81, 57
1, 521227, Control_c, 0, 64, 69
1, 521242, Control_c, 0, 64, 67
1, 521243, Note_on_c, 0, 72, 29
1, 521257, Control_c, 0, 64, 64
1, 521271, Control_c, 0, 64, 61
1, 521286, Control_c, 0, 64, 61
1, 521300, Note_on_c, 0, 67, 68
1, 521301, Control_c, 0, 64, 61
1, 521316, Control_c, 0, 64, 63
1, 521331, Control_c, 0, 64, 65
1, 521345, Control_c, 0, 64, 68
1, 521360, Control_c, 0, 64, 71
1, 521372, Note_off_c, 0, 65, 62
1, 521375, Control_c, 0, 64, 73
1, 521375, Control_c, 0, 67, 124
1, 521390, Control_c, 0, 64, 76
1, 521390, Control_c, 0, 67, 121
1, 521405, Note_off_c, 0, 81, 55
1, 521411, Note_on_c, 0, 74, 58
1, 521412, Control_c, 0, 64, 78
1, 521412, Control_c, 0, 67, 119
1, 521424, Note_off_c, 0, 72, 41
1, 521427, Control_c, 0, 64, 80
1, 521427, Control_c, 0, 67, 117
1, 521442, Control_c, 0, 64, 83
1, 521457, Control_c, 0, 64, 86
1, 521457, Control_c, 0, 67, 110
1, 521472, Control_c, 0, 64, 89
1, 521472, Control_c, 0, 67, 79
1, 521486, Control_c, 0, 64, 92
1, 521486, Control_c, 0, 67, 60
1, 521501, Control_c, 0, 64, 94
1, 521501, Control_c, 0, 67, 48
1, 521503, Note_off_c, 0, 74, 61
1, 521513, Note_off_c, 0, 67, 56
1, 521516, Control_c, 0, 64, 96
1, 521516, Control_c, 0, 67, 41
1, 521531, Control_c, 0, 67, 37
1, 521546, Control_c, 0, 67, 0
1, 521609, Note_on_c, 0, 67, 78
1, 521618, Control_c, 0, 64, 95
1, 521626, Note_on_c, 0, 83, 65
1, 521633, Control_c, 0, 64, 89
1, 521633, Control_c, 0, 67, 37
1, 521648, Control_c, 0, 64, 80
1, 521663, Control_c, 0, 64, 72
1, 521670, Note_on_c, 0, 74, 5
1, 521677, Control_c, 0, 64, 66
1, 521692, Control_c, 0, 64, 65
1, 521707, Control_c, 0, 64, 65
1, 521722, Control_c, 0, 64, 67
1, 521737, Control_c, 0, 64, 71
1, 521751, Control_c, 0, 64, 75
1, 521766, Control_c, 0, 64, 78
1, 521781, Control_c, 0, 64, 81
1, 521796, Control_c, 0, 64, 86
1, 521810, Control_c, 0, 64, 89
1, 521825, Control_c, 0, 64, 94
1, 521831, Note_on_c, 0, 76, 59
1, 521840, Control_c, 0, 64, 99
1, 521855, Control_c, 0, 64, 104
1, 521870, Control_c, 0, 64, 111
1, 521872, Note_off_c, 0, 83, 55
1, 521885, Control_c, 0, 64, 127
1, 521905, Note_off_c, 0, 67, 61
1, 521928, Note_off_c, 0, 76, 60
1, 521997, Note_on_c, 0, 67, 77
1, 522079, Control_c, 0, 67, 38
1, 522093, Control_c, 0, 67, 39
1, 522108, Control_c, 0, 67, 39
1, 522123, Control_c, 0, 67, 40
1, 522138, Control_c, 0, 67, 41
1, 522153, Note_off_c, 0, 60, 55
1, 522160, Control_c, 0, 67, 42
1, 522174, Control_c, 0, 67, 43
1, 522177, Note_on_c, 0, 86, 61
1, 522189, Control_c, 0, 67, 43
1, 522193, Note_on_c, 0, 77, 44
1, 522197, Note_off_c, 0, 74, 41
1, 522204, Control_c, 0, 67, 44
1, 522219, Control_c, 0, 67, 45
1, 522234, Control_c, 0, 67, 46
1, 522249, Control_c, 0, 67, 47
1, 522263, Control_c, 0, 67, 47
1, 522278, Control_c, 0, 67, 48
1, 522293, Control_c, 0, 67, 49
1, 522323, Control_c, 0, 67, 49
1, 522353, Control_c, 0, 67, 50
1, 522382, Control_c, 0, 67, 51
1, 522441, Control_c, 0, 67, 51
1, 522486, Control_c, 0, 67, 52
1, 522515, Note_on_c, 0, 70, 70
1, 522530, Control_c, 0, 67, 53
1, 522535, Note_on_c, 0, 60, 47
1, 522540, Note_on_c, 0, 74, 62
1, 522545, Control_c, 0, 64, 108
1, 522560, Control_c, 0, 64, 93
1, 522562, Note_off_c, 0, 77, 50
1, 522565, Note_off_c, 0, 86, 57
1, 522574, Control_c, 0, 64, 82
1, 522589, Control_c, 0, 64, 73
1, 522604, Control_c, 0, 64, 65
1, 522619, Control_c, 0, 64, 56
1, 522633, Control_c, 0, 64, 50
1, 522648, Control_c, 0, 64, 45
1, 522663, Control_c, 0, 64, 38
1, 522678, Control_c, 0, 64, 29
1, 522678, Control_c, 0, 67, 53
1, 522693, Note_off_c, 0, 67, 60
1, 522693, Control_c, 0, 64, 0
1, 522797, Control_c, 0, 67, 54
1, 522812, Control_c, 0, 64, 34
1, 522827, Control_c, 0, 64, 43
1, 522842, Control_c, 0, 64, 53
1, 522842, Control_c, 0, 67, 54
1, 522857, Control_c, 0, 64, 60
1, 522872, Control_c, 0, 64, 63
1, 522872, Control_c, 0, 67, 55
1, 522876, Note_on_c, 0, 79, 47
1, 522886, Control_c, 0, 64, 64
1, 522886, Control_c, 0, 67, 56
1, 522909, Control_c, 0, 64, 66
1, 522924, Control_c, 0, 64, 68
1, 522924, Control_c, 0, 67, 56
1, 522938, Control_c, 0, 64, 69
1, 522953, Control_c, 0, 64, 71
1, 522953, Control_c, 0, 67, 57
1, 522968, Control_c, 0, 64, 72
1, 522968, Control_c, 0, 67, 58
1, 522983, Control_c, 0, 64, 74
1, 522983, Control_c, 0, 67, 59
1, 522997, Control_c, 0, 64, 74
1, 522997, Control_c, 0, 67, 60
1, 523012, Control_c, 0, 64, 75
1, 523012, Control_c, 0, 67, 61
1, 523027, Control_c, 0, 64, 76
1, 523027, Control_c, 0, 67, 62
1, 523042, Control_c, 0, 67, 63
1, 523056, Control_c, 0, 64, 77
1, 523056, Control_c, 0, 67, 64
1, 523071, Control_c, 0, 64, 77
1, 523071, Control_c, 0, 67, 66
1, 523086, Note_off_c, 0, 74, 54
1, 523087, Control_c, 0, 67, 67
1, 523095, Note_on_c, 0, 86, 56
1, 523102, Control_c, 0, 64, 78
1, 523102, Control_c, 0, 67, 68
1, 523113, Note_on_c, 0, 77, 41
1, 523117, Control_c, 0, 67, 70
1, 523131, Control_c, 0, 67, 71
1, 523146, Control_c, 0, 67, 72
1, 523161, Control_c, 0, 67, 75
1, 523176, Control_c, 0, 67, 76
1, 523191, Control_c, 0, 67, 77
1, 523205, Control_c, 0, 67, 79
1, 523220, Control_c, 0, 67, 80
1, 523235, Control_c, 0, 67, 86
1, 523246, Note_off_c, 0, 86, 56
1, 523250, Control_c, 0, 67, 98
1, 523265, Control_c, 0, 67, 109
1, 523273, Note_off_c, 0, 79, 25
1, 523280, Control_c, 0, 67, 113
1, 523295, Control_c, 0, 67, 115
1, 523310, Note_off_c, 0, 77, 57
1, 523318, Note_on_c, 0, 76, 50
1, 523339, Control_c, 0, 67, 118
1, 523368, Control_c, 0, 67, 126
1, 523532, Note_off_c, 0, 76, 49
1, 523570, Note_on_c, 0, 74, 45
1, 523573, Note_on_c, 0, 79, 38
1, 523790, Poly_aftertouch_c, 0, 61, 127
1, 523816, Note_on_c, 0, 69, 53
1, 523821, Control_c, 0, 64, 77
1, 523827, Note_off_c, 0, 70, 58
1, 523845, Note_off_c, 0, 79, 57
1, 523849, Note_off_c, 0, 74, 51
1, 523851, Control_c, 0, 64, 77
1, 523860, Note_on_c, 0, 72, 45
1, 523866, Control_c, 0, 64, 76
1, 523880, Control_c, 0, 64, 76
1, 523895, Control_c, 0, 64, 75
1, 523925, Control_c, 0, 64, 74
1, 523940, Control_c, 0, 64, 74
1, 523954, Control_c, 0, 64, 73
1, 523968, Note_off_c, 0, 69, 61
1, 523969, Control_c, 0, 64, 72
1, 523977, Note_on_c, 0, 67, 62
1, 523984, Control_c, 0, 64, 71
1, 523992, Poly_aftertouch_c, 0, 61, 0
1, 523998, Control_c, 0, 64, 70
1, 524013, Control_c, 0, 64, 69
1, 524028, Control_c, 0, 64, 67
1, 524043, Control_c, 0, 64, 65
1, 524052, Note_off_c, 0, 67, 60
1, 524058, Control_c, 0, 64, 63
1, 524073, Control_c, 0, 64, 62
1, 524082, Note_on_c, 0, 65, 49
1, 524088, Control_c, 0, 64, 61
1, 524103, Control_c, 0, 64, 60
1, 524118, Control_c, 0, 64, 59
1, 524132, Control_c, 0, 64, 58
1, 524147, Note_off_c, 0, 72, 54
1, 524147, Control_c, 0, 64, 55
1, 524160, Note_on_c, 0, 70, 46
1, 524162, Control_c, 0, 64, 52
1, 524177, Control_c, 0, 64, 49
1, 524178, Note_off_c, 0, 65, 57
1, 524185, Note_on_c, 0, 67, 49
1, 524191, Control_c, 0, 64, 44
1, 524206, Control_c, 0, 64, 39
1, 524221, Control_c, 0, 64, 33
1, 524236, Control_c, 0, 64, 0
1, 524369, Control_c, 0, 64, 30
1, 524384, Control_c, 0, 64, 38
1, 524406, Control_c, 0, 64, 47
1, 524421, Control_c, 0, 64, 55
1, 524429, Note_on_c, 0, 74, 50
1, 524437, Control_c, 0, 64, 61
1, 524451, Control_c, 0, 64, 64
1, 524466, Control_c, 0, 64, 65
1, 524474, Note_off_c, 0, 70, 37
1, 524481, Control_c, 0, 64, 67
1, 524496, Control_c, 0, 64, 68
1, 524511, Control_c, 0, 64, 70
1, 524526, Control_c, 0, 64, 73
1, 524541, Control_c, 0, 64, 74
1, 524556, Control_c, 0, 64, 76
1, 524571, Control_c, 0, 64, 78
1, 524584, Control_c, 0, 64, 79
1, 524599, Control_c, 0, 64, 81
1, 524611, Note_off_c, 0, 67, 63
1, 524614, Control_c, 0, 64, 83
1, 524628, Control_c, 0, 64, 84
1, 524643, Control_c, 0, 64, 86
1, 524654, Note_off_c, 0, 74, 34
1, 524656, Note_on_c, 0, 76, 41
1, 524658, Control_c, 0, 64, 87
1, 524670, Note_on_c, 0, 69, 33
1, 524673, Control_c, 0, 64, 87
1, 524688, Control_c, 0, 64, 88
1, 524702, Control_c, 0, 64, 88
1, 524717, Control_c, 0, 64, 89
1, 524747, Control_c, 0, 64, 89
1, 524761, Note_off_c, 0, 60, 37
1, 524803, Note_off_c, 0, 76, 35
1, 524806, Control_c, 0, 64, 90
1, 524875, Note_off_c, 0, 69, 42
1, 524890, Note_on_c, 0, 67, 34
1, 524969, Control_c, 0, 64, 90
1, 525089, Note_off_c, 0, 67, 36
1, 525103, Note_on_c, 0, 70, 38
1, 525125, Note_on_c, 0, 65, 17
1, 525309, Note_off_c, 0, 70, 42
1, 525340, Note_off_c, 0, 65, 41
1, 525349, Note_on_c, 0, 62, 41
1, 525407, Control_c, 0, 64, 90
1, 525659, Control_c, 0, 64, 89
1, 525666, Note_on_c, 0, 36, 36
1, 525703, Control_c, 0, 64, 89
1, 525712, Note_on_c, 0, 58, 39
1, 525718, Control_c, 0, 64, 88
1, 525733, Control_c, 0, 64, 88
1, 525748, Control_c, 0, 64, 87
1, 525754, Note_off_c, 0, 62, 41
1, 525762, Control_c, 0, 64, 86
1, 525777, Control_c, 0, 64, 85
1, 525792, Control_c, 0, 64, 84
1, 525807, Control_c, 0, 64, 84
1, 525822, Control_c, 0, 64, 83
1, 525837, Control_c, 0, 64, 82
1, 525851, Control_c, 0, 64, 81
1, 525866, Control_c, 0, 64, 81
1, 525881, Control_c, 0, 64, 80
1, 525903, Control_c, 0, 64, 79
1, 525918, Control_c, 0, 64, 79
1, 525933, Control_c, 0, 64, 78
1, 525948, Control_c, 0, 64, 77
1, 525963, Control_c, 0, 64, 77
1, 525977, Control_c, 0, 64, 76
1, 525980, Note_on_c, 0, 62, 40
1, 525992, Control_c, 0, 64, 76
1, 525994, Note_on_c, 0, 43, 24
1, 526007, Control_c, 0, 64, 75
1, 526037, Control_c, 0, 64, 75
1, 526052, Control_c, 0, 64, 74
1, 526082, Control_c, 0, 64, 74
1, 526097, Control_c, 0, 64, 73
1, 526142, Control_c, 0, 64, 73
1, 526186, Control_c, 0, 64, 72
1, 526203, Note_on_c, 0, 65, 45
1, 526213, Note_on_c, 0, 50, 34
1, 526222, Note_off_c, 0, 43, 37
1, 526223, Note_on_c, 0, 57, 24
1, 526241, Note_off_c, 0, 62, 26
1, 526258, Note_off_c, 0, 58, 40
1, 526412, Note_on_c, 0, 58, 33
1, 526433, Note_on_c, 0, 43, 32
1, 526443, Note_off_c, 0, 50, 43
1, 526459, Note_off_c, 0, 57, 41
1, 526587, Note_off_c, 0, 65, 25
1, 526625, Note_on_c, 0, 57, 34
1, 526630, Note_on_c, 0, 62, 47
1, 526644, Note_off_c, 0, 43, 37
1, 526648, Note_on_c, 0, 50, 27
1, 526675, Note_off_c, 0, 58, 41
1, 526824, Note_on_c, 0, 58, 42
1, 526847, Note_on_c, 0, 43, 35
1, 526869, Note_off_c, 0, 50, 41
1, 526879, Note_off_c, 0, 57, 41
1, 527009, Control_c, 0, 64, 72
1, 527025, Note_off_c, 0, 43, 51
1, 527032, Note_on_c, 0, 64, 62
1, 527033, Note_on_c, 0, 57, 28
1, 527050, Note_on_c, 0, 50, 26
1, 527069, Control_c, 0, 64, 71
1, 527077, Note_off_c, 0, 58, 56
1, 527079, Note_off_c, 0, 62, 56
1, 527084, Control_c, 0, 64, 71
1, 527098, Control_c, 0, 64, 70
1, 527113, Control_c, 0, 64, 70
1, 527128, Control_c, 0, 64, 69
1, 527143, Control_c, 0, 64, 69
1, 527158, Control_c, 0, 64, 68
1, 527187, Control_c, 0, 64, 68
1, 527231, Control_c, 0, 64, 67
1, 527252, Note_on_c, 0, 58, 45
1, 527253, Note_on_c, 0, 43, 34
1, 527259, Note_off_c, 0, 50, 42
1, 527283, Note_off_c, 0, 57, 41
1, 527402, Control_c, 0, 64, 67
1, 527421, Note_off_c, 0, 64, 38
1, 527446, Control_c, 0, 64, 66
1, 527448, Note_off_c, 0, 43, 42
1, 527456, Note_on_c, 0, 62, 47
1, 527459, Note_on_c, 0, 57, 21
1, 527462, Note_on_c, 0, 50, 27
1, 527476, Control_c, 0, 64, 66
1, 527491, Control_c, 0, 64, 65
1, 527495, Note_off_c, 0, 58, 36
1, 527505, Control_c, 0, 64, 65
1, 527520, Control_c, 0, 64, 64
1, 527549, Control_c, 0, 64, 64
1, 527639, Control_c, 0, 64, 64
1, 527662, Note_on_c, 0, 58, 33
1, 527670, Note_on_c, 0, 43, 36
1, 527684, Control_c, 0, 64, 65
1, 527692, Note_off_c, 0, 50, 44
1, 527709, Note_off_c, 0, 57, 42
1, 527713, Control_c, 0, 64, 65
1, 527728, Control_c, 0, 64, 66
1, 527743, Control_c, 0, 64, 66
1, 527772, Control_c, 0, 64, 67
1, 527802, Control_c, 0, 64, 67
1, 527832, Control_c, 0, 64, 68
1, 527847, Control_c, 0, 64, 68
1, 527862, Control_c, 0, 64, 69
1, 527875, Note_on_c, 0, 57, 16
1, 527876, Note_off_c, 0, 43, 40
1, 527876, Control_c, 0, 64, 69
1, 527888, Note_on_c, 0, 64, 40
1, 527891, Control_c, 0, 64, 70
1, 527897, Note_on_c, 0, 50, 24
1, 527916, Note_off_c, 0, 58, 36
1, 527921, Control_c, 0, 64, 70
1, 527942, Note_off_c, 0, 62, 34
1, 527951, Control_c, 0, 64, 71
1, 528010, Control_c, 0, 64, 71
1, 528084, Control_c, 0, 64, 72
1, 528118, Note_on_c, 0, 58, 41
1, 528126, Note_off_c, 0, 50, 36
1, 528130, Note_on_c, 0, 43, 31
1, 528172, Note_off_c, 0, 57, 39
1, 528183, Note_off_c, 0, 36, 41
1, 528215, Note_off_c, 0, 64, 30
1, 528415, Note_on_c, 0, 36, 38
1, 528418, Control_c, 0, 64, 71
1, 528433, Control_c, 0, 64, 70
1, 528448, Control_c, 0, 64, 69
1, 528463, Control_c, 0, 64, 66
1, 528467, Note_on_c, 0, 62, 39
1, 528473, Note_on_c, 0, 57, 32
1, 528477, Control_c, 0, 64, 64
1, 528492, Control_c, 0, 64, 61
1, 528507, Control_c, 0, 64, 58
1, 528515, Note_off_c, 0, 43, 37
1, 528520, Note_off_c, 0, 58, 56
1, 528522, Control_c, 0, 64, 55
1, 528537, Control_c, 0, 64, 53
1, 528551, Control_c, 0, 64, 52
1, 528625, Control_c, 0, 64, 53
1, 528640, Control_c, 0, 64, 56
1, 528655, Control_c, 0, 64, 58
1, 528669, Control_c, 0, 64, 61
1, 528684, Control_c, 0, 64, 63
1, 528699, Control_c, 0, 64, 65
1, 528714, Control_c, 0, 64, 67
1, 528729, Control_c, 0, 64, 69
1, 528744, Control_c, 0, 64, 71
1, 528753, Note_on_c, 0, 58, 38
1, 528759, Control_c, 0, 64, 72
1, 528761, Note_on_c, 0, 43, 32
1, 528774, Control_c, 0, 64, 73
1, 528788, Control_c, 0, 64, 73
1, 528800, Note_off_c, 0, 57, 39
1, 528848, Control_c, 0, 64, 74
1, 528954, Note_on_c, 0, 65, 46
1, 528957, Note_on_c, 0, 57, 19
1, 528965, Note_off_c, 0, 43, 38
1, 528979, Note_on_c, 0, 50, 29
1, 529006, Note_off_c, 0, 58, 34
1, 529008, Note_off_c, 0, 62, 32
1, 529048, Control_c, 0, 64, 73
1, 529135, Control_c, 0, 64, 73
1, 529164, Note_on_c, 0, 58, 39
1, 529177, Note_off_c, 0, 50, 42
1, 529186, Note_on_c, 0, 43, 29
1, 529194, Control_c, 0, 64, 72
1, 529213, Note_off_c, 0, 57, 41
1, 529314, Control_c, 0, 64, 72
1, 529359, Control_c, 0, 64, 71
1, 529371, Note_on_c, 0, 62, 52
1, 529378, Note_on_c, 0, 57, 18
1, 529388, Control_c, 0, 64, 71
1, 529393, Note_off_c, 0, 43, 38
1, 529394, Note_on_c, 0, 50, 31
1, 529395, Note_off_c, 0, 65, 37
1, 529421, Note_off_c, 0, 58, 34
1, 529447, Control_c, 0, 64, 70
1, 529477, Control_c, 0, 64, 70
1, 529551, Control_c, 0, 64, 69
1, 529576, Note_on_c, 0, 58, 48
1, 529585, Note_on_c, 0, 43, 45
1, 529613, Note_off_c, 0, 50, 39
1, 529643, Note_off_c, 0, 57, 40
1, 529736, Control_c, 0, 64, 69
1, 529766, Control_c, 0, 64, 68
1, 529781, Control_c, 0, 64, 67
1, 529796, Control_c, 0, 64, 66
1, 529800, Note_on_c, 0, 57, 16
1, 529802, Note_on_c, 0, 65, 56
1, 529805, Note_off_c, 0, 43, 55
1, 529808, Note_on_c, 0, 50, 38
1, 529811, Control_c, 0, 64, 63
1, 529826, Control_c, 0, 64, 62
1, 529841, Control_c, 0, 64, 60
1, 529845, Note_off_c, 0, 58, 38
1, 529845, Note_off_c, 0, 62, 54
1, 529915, Control_c, 0, 64, 61
1, 529930, Control_c, 0, 64, 62
1, 529944, Control_c, 0, 64, 64
1, 529959, Control_c, 0, 64, 65
1, 529974, Control_c, 0, 64, 66
1, 529989, Control_c, 0, 64, 67
1, 530004, Control_c, 0, 64, 68
1, 530020, Control_c, 0, 64, 69
1, 530029, Note_on_c, 0, 58, 47
1, 530030, Note_on_c, 0, 43, 45
1, 530035, Control_c, 0, 64, 70
1, 530049, Control_c, 0, 64, 71
1, 530064, Control_c, 0, 67, 117
1, 530079, Control_c, 0, 64, 71
1, 530079, Control_c, 0, 67, 110
1, 530087, Note_off_c, 0, 57, 41
1, 530094, Control_c, 0, 64, 72
1, 530094, Control_c, 0, 67, 103
1, 530095, Note_off_c, 0, 50, 36
1, 530109, Control_c, 0, 67, 96
1, 530123, Control_c, 0, 67, 87
1, 530138, Control_c, 0, 64, 72
1, 530138, Control_c, 0, 67, 81
1, 530153, Control_c, 0, 67, 76
1, 530167, Control_c, 0, 67, 74
1, 530182, Control_c, 0, 67, 73
1, 530212, Control_c, 0, 64, 72
1, 530227, Control_c, 0, 64, 71
1, 530227, Control_c, 0, 67, 72
1, 530237, Note_on_c, 0, 62, 59
1, 530241, Control_c, 0, 64, 70
1, 530246, Note_on_c, 0, 50, 46
1, 530249, Note_on_c, 0, 57, 22
1, 530256, Control_c, 0, 64, 68
1, 530256, Control_c, 0, 67, 71
1, 530271, Control_c, 0, 64, 65
1, 530271, Control_c, 0, 67, 71
1, 530273, Note_off_c, 0, 65, 57
1, 530286, Note_off_c, 0, 43, 49
1, 530286, Control_c, 0, 64, 63
1, 530286, Control_c, 0, 67, 70
1, 530297, Note_off_c, 0, 58, 37
1, 530301, Control_c, 0, 64, 63
1, 530301, Control_c, 0, 67, 70
1, 530315, Control_c, 0, 67, 69
1, 530330, Control_c, 0, 67, 68
1, 530360, Control_c, 0, 64, 63
1, 530360, Control_c, 0, 67, 68
1, 530374, Control_c, 0, 64, 64
1, 530374, Control_c, 0, 67, 67
1, 530397, Control_c, 0, 64, 65
1, 530397, Control_c, 0, 67, 66
1, 530412, Control_c, 0, 64, 66
1, 530412, Control_c, 0, 67, 65
1, 530427, Control_c, 0, 64, 67
1, 530427, Control_c, 0, 67, 46
1, 530441, Control_c, 0, 64, 68
1, 530441, Control_c, 0, 67, 0
1, 530456, Control_c, 0, 64, 69
1, 530471, Control_c, 0, 64, 70
1, 530501, Control_c, 0, 64, 70
1, 530505, Note_on_c, 0, 58, 49
1, 530509, Note_on_c, 0, 43, 49
1, 530515, Control_c, 0, 64, 71
1, 530559, Control_c, 0, 64, 71
1, 530575, Note_off_c, 0, 50, 50
1, 530635, Note_off_c, 0, 57, 40
1, 530782, Control_c, 0, 64, 71
1, 530797, Control_c, 0, 64, 70
1, 530813, Control_c, 0, 64, 69
1, 530825, Note_on_c, 0, 48, 67
1, 530828, Control_c, 0, 64, 66
1, 530834, Note_on_c, 0, 64, 60
1, 530842, Control_c, 0, 64, 63
1, 530857, Control_c, 0, 64, 60
1, 530872, Control_c, 0, 64, 58
1, 530887, Control_c, 0, 64, 56
1, 530896, Note_off_c, 0, 58, 35
1, 530902, Control_c, 0, 64, 54
1, 530912, Poly_aftertouch_c, 0, 57, 127
1, 530913, Note_off_c, 0, 62, 55
1, 530915, Note_off_c, 0, 43, 58
1, 530917, Control_c, 0, 64, 51
1, 530932, Control_c, 0, 64, 48
1, 530946, Control_c, 0, 64, 45
1, 530961, Control_c, 0, 64, 42
1, 530976, Control_c, 0, 64, 42
1, 530990, Control_c, 0, 64, 42
1, 531005, Control_c, 0, 64, 44
1, 531020, Control_c, 0, 64, 49
1, 531035, Control_c, 0, 64, 55
1, 531050, Control_c, 0, 64, 60
1, 531064, Control_c, 0, 64, 63
1, 531079, Control_c, 0, 64, 66
1, 531094, Control_c, 0, 64, 68
1, 531109, Control_c, 0, 64, 70
1, 531124, Control_c, 0, 64, 72
1, 531146, Control_c, 0, 64, 73
1, 531161, Control_c, 0, 64, 74
1, 531176, Control_c, 0, 64, 76
1, 531190, Control_c, 0, 64, 77
1, 531205, Control_c, 0, 64, 78
1, 531209, Note_on_c, 0, 43, 49
1, 531212, Note_on_c, 0, 58, 50
1, 531220, Control_c, 0, 64, 80
1, 531235, Control_c, 0, 64, 81
1, 531250, Control_c, 0, 64, 82
1, 531264, Control_c, 0, 64, 83
1, 531279, Control_c, 0, 64, 84
1, 531285, Poly_aftertouch_c, 0, 57, 0
1, 531294, Control_c, 0, 64, 84
1, 531308, Note_off_c, 0, 48, 36
1, 531309, Control_c, 0, 64, 85
1, 531323, Control_c, 0, 64, 85
1, 531338, Control_c, 0, 64, 86
1, 531345, Note_off_c, 0, 64, 61
1, 531383, Control_c, 0, 64, 86
1, 531456, Note_off_c, 0, 36, 40
1, 531635, Control_c, 0, 64, 86
1, 531665, Control_c, 0, 64, 84
1, 531668, Note_on_c, 0, 48, 67
1, 531678, Note_on_c, 0, 41, 48
1, 531680, Control_c, 0, 64, 81
1, 531695, Control_c, 0, 64, 76
1, 531706, Note_on_c, 0, 64, 62
1, 531707, Note_off_c, 0, 43, 58
1, 531710, Control_c, 0, 64, 69
1, 531725, Control_c, 0, 64, 63
1, 531730, Note_on_c, 0, 57, 31
1, 531740, Control_c, 0, 64, 56
1, 531755, Control_c, 0, 64, 51
1, 531769, Control_c, 0, 64, 46
1, 531781, Note_off_c, 0, 58, 58
1, 531784, Control_c, 0, 64, 40
1, 531799, Control_c, 0, 64, 29
1, 531813, Control_c, 0, 64, 0
1, 532043, Control_c, 0, 64, 37
1, 532058, Control_c, 0, 64, 48
1, 532073, Control_c, 0, 64, 56
1, 532087, Control_c, 0, 64, 58
1, 532102, Control_c, 0, 64, 59
1, 532117, Control_c, 0, 64, 60
1, 532121, Note_on_c, 0, 60, 39
1, 532132, Control_c, 0, 64, 62
1, 532136, Note_off_c, 0, 57, 42
1, 532146, Control_c, 0, 64, 64
1, 532161, Control_c, 0, 64, 65
1, 532176, Control_c, 0, 64, 66
1, 532191, Control_c, 0, 64, 66
1, 532206, Control_c, 0, 64, 67
1, 532235, Control_c, 0, 64, 67
1, 532352, Note_off_c, 0, 60, 53
1, 532356, Note_on_c, 0, 57, 40
1, 532569, Note_off_c, 0, 57, 53
1, 532607, Note_on_c, 0, 60, 34
1, 532626, Note_off_c, 0, 48, 62
1, 532798, Note_on_c, 0, 48, 66
1, 532824, Note_off_c, 0, 60, 41
1, 532843, Note_on_c, 0, 57, 22
1, 532969, Control_c, 0, 64, 67
1, 533004, Note_on_c, 0, 49, 69
1, 533013, Note_off_c, 0, 57, 51
1, 533014, Control_c, 0, 64, 66
1, 533031, Note_off_c, 0, 48, 64
1, 533036, Note_on_c, 0, 60, 49
1, 533043, Control_c, 0, 64, 66
1, 533049, Note_off_c, 0, 41, 59
1, 533058, Note_off_c, 0, 64, 58
1, 533102, Control_c, 0, 64, 65
1, 533263, Note_off_c, 0, 60, 60
1, 533266, Control_c, 0, 64, 64
1, 533272, Note_off_c, 0, 49, 64
1, 533274, Note_on_c, 0, 51, 70
1, 533281, Control_c, 0, 64, 62
1, 533288, Note_on_c, 0, 58, 51
1, 533291, Note_on_c, 0, 41, 53
1, 533296, Control_c, 0, 64, 58
1, 533311, Control_c, 0, 64, 54
1, 533326, Control_c, 0, 64, 48
1, 533340, Control_c, 0, 64, 43
1, 533355, Control_c, 0, 64, 38
1, 533370, Control_c, 0, 64, 34
1, 533392, Control_c, 0, 64, 32
1, 533397, Poly_aftertouch_c, 0, 54, 127
1, 533470, Note_on_c, 0, 61, 50
1, 533489, Note_off_c, 0, 58, 37
1, 533493, Poly_aftertouch_c, 0, 54, 0
1, 533511, Note_on_c, 0, 60, 60
1, 533517, Note_off_c, 0, 61, 59
1, 533526, Control_c, 0, 64, 32
1, 533570, Control_c, 0, 64, 33
1, 533668, Note_off_c, 0, 51, 61
1, 533678, Note_on_c, 0, 52, 67
1, 533701, Note_on_c, 0, 58, 63
1, 533710, Note_off_c, 0, 60, 48
1, 533718, Control_c, 0, 64, 33
1, 533866, Control_c, 0, 64, 33
1, 533879, Note_off_c, 0, 52, 59
1, 533881, Control_c, 0, 64, 32
1, 533891, Note_off_c, 0, 58, 54
1, 533896, Control_c, 0, 64, 29
1, 533897, Note_on_c, 0, 54, 59
1, 533901, Note_on_c, 0, 60, 54
1, 533910, Control_c, 0, 64, 0
1, 533970, Control_c, 0, 64, 36
1, 533984, Control_c, 0, 64, 46
1, 533999, Control_c, 0, 64, 55
1, 534000, Note_off_c, 0, 54, 56
1, 534015, Control_c, 0, 64, 60
1, 534030, Control_c, 0, 64, 62
1, 534089, Note_off_c, 0, 60, 60
1, 534132, Note_on_c, 0, 58, 48
1, 534156, Control_c, 0, 64, 61
1, 534171, Control_c, 0, 64, 61
1, 534260, Control_c, 0, 64, 60
1, 534289, Control_c, 0, 64, 60
1, 534323, Note_on_c, 0, 52, 60
1, 534323, Note_off_c, 0, 41, 41
1, 534331, Note_on_c, 0, 60, 51
1, 534339, Note_off_c, 0, 58, 51
1, 534348, Control_c, 0, 64, 59
1, 534540, Control_c, 0, 64, 59
1, 534552, Note_on_c, 0, 48, 61
1, 534555, Control_c, 0, 64, 57
1, 534558, Note_off_c, 0, 60, 59
1, 534563, Note_on_c, 0, 41, 49
1, 534566, Note_on_c, 0, 64, 53
1, 534569, Note_off_c, 0, 52, 46
1, 534570, Control_c, 0, 64, 55
1, 534585, Control_c, 0, 64, 51
1, 534600, Control_c, 0, 64, 47
1, 534614, Control_c, 0, 64, 44
1, 534629, Control_c, 0, 64, 40
1, 534631, Poly_aftertouch_c, 0, 57, 127
1, 534644, Control_c, 0, 64, 36
1, 534659, Control_c, 0, 64, 31
1, 534674, Control_c, 0, 64, 0
1, 534738, Poly_aftertouch_c, 0, 57, 0
1, 534774, Note_on_c, 0, 60, 43
1, 534823, Control_c, 0, 64, 29
1, 534852, Control_c, 0, 64, 31
1, 534867, Control_c, 0, 64, 32
1, 534890, Control_c, 0, 64, 33
1, 534905, Control_c, 0, 64, 34
1, 534919, Control_c, 0, 64, 34
1, 534963, Control_c, 0, 64, 35
1, 534978, Note_off_c, 0, 60, 57
1, 534993, Control_c, 0, 64, 35
1, 534998, Note_on_c, 0, 57, 38
1, 535023, Control_c, 0, 64, 36
1, 535037, Control_c, 0, 64, 37
1, 535052, Control_c, 0, 64, 40
1, 535067, Control_c, 0, 64, 46
1, 535081, Control_c, 0, 64, 53
1, 535096, Control_c, 0, 64, 58
1, 535111, Control_c, 0, 64, 60
1, 535126, Control_c, 0, 64, 62
1, 535141, Control_c, 0, 64, 62
1, 535155, Control_c, 0, 64, 63
1, 535170, Control_c, 0, 64, 64
1, 535181, Note_off_c, 0, 57, 52
1, 535185, Control_c, 0, 64, 64
1, 535200, Control_c, 0, 64, 65
1, 535212, Note_on_c, 0, 60, 39
1, 535227, Note_off_c, 0, 48, 62
1, 535229, Control_c, 0, 64, 65
1, 535387, Note_on_c, 0, 48, 72
1, 535389, Note_off_c, 0, 60, 43
1, 535400, Note_on_c, 0, 57, 45
1, 535570, Note_off_c, 0, 57, 63
1, 535574, Note_on_c, 0, 49, 74
1, 535590, Note_on_c, 0, 60, 64
1, 535600, Note_off_c, 0, 48, 60
1, 535606, Note_off_c, 0, 64, 56
1, 535612, Note_off_c, 0, 41, 64
1, 535615, Control_c, 0, 64, 65
1, 535727, Control_c, 0, 64, 64
1, 535741, Control_c, 0, 64, 64
1, 535756, Control_c, 0, 64, 62
1, 535771, Control_c, 0, 64, 58
1, 535776, Note_off_c, 0, 60, 61
1, 535777, Note_off_c, 0, 49, 63
1, 535785, Control_c, 0, 64, 52
1, 535788, Note_on_c, 0, 51, 72
1, 535791, Note_on_c, 0, 58, 62
1, 535800, Control_c, 0, 64, 45
1, 535804, Note_on_c, 0, 41, 53
1, 535815, Control_c, 0, 64, 37
1, 535830, Control_c, 0, 64, 28
1, 535844, Note_on_c, 0, 54, 16
1, 535845, Control_c, 0, 64, 0
1, 535970, Note_on_c, 0, 61, 44
1, 535985, Note_off_c, 0, 58, 59
1, 535996, Note_on_c, 0, 60, 64
1, 536011, Note_off_c, 0, 54, 39
1, 536020, Note_off_c, 0, 61, 56
1, 536144, Note_off_c, 0, 51, 59
1, 536166, Note_on_c, 0, 52, 68
1, 536181, Note_off_c, 0, 60, 60
1, 536187, Note_on_c, 0, 58, 68
1, 536200, Control_c, 0, 64, 29
1, 536230, Control_c, 0, 64, 31
1, 536244, Control_c, 0, 64, 32
1, 536259, Control_c, 0, 64, 34
1, 536274, Control_c, 0, 64, 37
1, 536289, Control_c, 0, 64, 40
1, 536304, Control_c, 0, 64, 41
1, 536333, Control_c, 0, 64, 39
1, 536348, Control_c, 0, 64, 31
1, 536357, Note_off_c, 0, 58, 59
1, 536363, Control_c, 0, 64, 0
1, 536379, Note_on_c, 0, 60, 65
1, 536381, Note_on_c, 0, 54, 63
1, 536411, Poly_aftertouch_c, 0, 43, 127
1, 536417, Note_off_c, 0, 54, 59
1, 536426, Note_off_c, 0, 52, 25
1, 536476, Control_c, 0, 64, 35
1, 536490, Control_c, 0, 64, 44
1, 536505, Control_c, 0, 64, 50
1, 536520, Control_c, 0, 64, 52
1, 536534, Control_c, 0, 64, 54
1, 536549, Control_c, 0, 64, 55
1, 536558, Note_off_c, 0, 60, 58
1, 536565, Control_c, 0, 64, 57
1, 536580, Control_c, 0, 64, 58
1, 536581, Note_on_c, 0, 58, 57
1, 536595, Control_c, 0, 64, 59
1, 536609, Control_c, 0, 64, 59
1, 536654, Control_c, 0, 64, 60
1, 536669, Control_c, 0, 64, 60
1, 536683, Control_c, 0, 64, 61
1, 536698, Control_c, 0, 64, 61
1, 536727, Control_c, 0, 64, 59
1, 536739, Note_off_c, 0, 58, 57
1, 536742, Control_c, 0, 64, 51
1, 536748, Note_off_c, 0, 41, 57
1, 536754, Poly_aftertouch_c, 0, 43, 0
1, 536757, Control_c, 0, 64, 39
1, 536769, Note_on_c, 0, 52, 61
1, 536769, Note_on_c, 0, 60, 53
1, 536772, Control_c, 0, 64, 0
1, 536876, Control_c, 0, 64, 29
1, 536888, Note_off_c, 0, 60, 64
1, 536891, Control_c, 0, 64, 44
1, 536906, Control_c, 0, 64, 57
1, 536908, Note_off_c, 0, 52, 62
1, 536921, Control_c, 0, 64, 59
1, 536935, Control_c, 0, 64, 58
1, 536939, Note_on_c, 0, 41, 71
1, 536950, Control_c, 0, 64, 51
1, 536965, Control_c, 0, 64, 38
1, 536968, Note_off_c, 0, 41, 66
1, 536980, Control_c, 0, 64, 0
1, 537113, Control_c, 0, 64, 35
1, 537126, Note_on_c, 0, 60, 71
1, 537135, Control_c, 0, 64, 50
1, 537137, Note_on_c, 0, 69, 67
1, 537138, Note_on_c, 0, 57, 59
1, 537139, Note_on_c, 0, 64, 59
1, 537150, Control_c, 0, 64, 55
1, 537153, Note_off_c, 0, 60, 68
1, 537159, Note_off_c, 0, 57, 63
1, 537165, Control_c, 0, 64, 57
1, 537167, Note_off_c, 0, 64, 65
1, 537180, Control_c, 0, 64, 58
1, 537180, Note_off_c, 0, 69, 61
1, 537195, Control_c, 0, 64, 59
1, 537210, Control_c, 0, 64, 60
1, 537225, Control_c, 0, 64, 61
1, 537254, Control_c, 0, 64, 60
1, 537269, Control_c, 0, 64, 59
1, 537284, Control_c, 0, 64, 54
1, 537299, Control_c, 0, 64, 42
1, 537307, Note_on_c, 0, 41, 62
1, 537314, Control_c, 0, 64, 0
1, 537332, Note_off_c, 0, 41, 58
1, 537477, Control_c, 0, 64, 34
1, 537481, Note_on_c, 0, 61, 85
1, 537487, Note_on_c, 0, 57, 83
1, 537488, Note_on_c, 0, 65, 77
1, 537490, Note_on_c, 0, 69, 78
1, 537492, Control_c, 0, 64, 58
1, 537506, Control_c, 0, 64, 64
1, 537508, Note_off_c, 0, 57, 68
1, 537508, Note_off_c, 0, 65, 71
1, 537516, Note_off_c, 0, 61, 64
1, 537521, Control_c, 0, 64, 65
1, 537524, Note_off_c, 0, 69, 62
1, 537536, Control_c, 0, 64, 66
1, 537550, Control_c, 0, 64, 67
1, 537565, Control_c, 0, 64, 68
1, 537580, Control_c, 0, 64, 68
1, 537624, Control_c, 0, 64, 67
1, 537639, Control_c, 0, 64, 59
1, 537654, Control_c, 0, 64, 39
1, 537663, Note_on_c, 0, 41, 64
1, 537669, Control_c, 0, 64, 0
1, 537687, Note_off_c, 0, 41, 59
1, 537845, Note_on_c, 0, 57, 72
1, 537845, Note_on_c, 0, 60, 73
1, 537848, Note_on_c, 0, 69, 73
1, 537851, Note_on_c, 0, 64, 66
1, 537862, Control_c, 0, 64, 29
1, 537877, Note_off_c, 0, 60, 70
1, 537877, Note_off_c, 0, 64, 66
1, 537880, Note_off_c, 0, 57, 68
1, 537883, Note_off_c, 0, 69, 63
1, 537883, Control_c, 0, 64, 52
1, 537898, Control_c, 0, 64, 59
1, 537913, Control_c, 0, 64, 61
1, 537928, Control_c, 0, 64, 62
1, 537943, Control_c, 0, 64, 64
1, 537958, Control_c, 0, 64, 65
1, 537973, Control_c, 0, 64, 65
1, 538003, Control_c, 0, 64, 64
1, 538018, Control_c, 0, 64, 52
1, 538033, Control_c, 0, 64, 0
1, 538037, Note_on_c, 0, 54, 74
1, 538100, Note_off_c, 0, 54, 60
1, 538111, Note_on_c, 0, 56, 65
1, 538174, Note_off_c, 0, 56, 63
1, 538193, Note_on_c, 0, 63, 54
1, 538195, Note_on_c, 0, 58, 67
1, 538213, Note_on_c, 0, 61, 8
1, 538215, Note_off_c, 0, 63, 60
1, 538250, Note_off_c, 0, 58, 61
1, 538263, Note_off_c, 0, 61, 28
1, 538283, Note_on_c, 0, 60, 66
1, 538339, Note_off_c, 0, 60, 54
1, 538358, Note_on_c, 0, 61, 67
1, 538358, Note_on_c, 0, 66, 60
1, 538379, Note_off_c, 0, 66, 64
1, 538426, Note_on_c, 0, 63, 45
1, 538431, Note_off_c, 0, 61, 61
1, 538506, Note_off_c, 0, 63, 64
1, 538521, Note_on_c, 0, 65, 81
1, 538532, Note_on_c, 0, 66, 67
1, 538533, Note_on_c, 0, 70, 68
1, 538551, Note_off_c, 0, 66, 66
1, 538558, Note_off_c, 0, 70, 70
1, 538570, Note_off_c, 0, 65, 61
1, 538613, Note_on_c, 0, 63, 71
1, 538688, Note_off_c, 0, 63, 0
1, 538697, Note_on_c, 0, 61, 71
1, 538706, Note_on_c, 0, 66, 54
1, 538725, Poly_aftertouch_c, 0, 63, 127
1, 538739, Note_off_c, 0, 66, 65
1, 538752, Note_off_c, 0, 61, 62
1, 538752, Poly_aftertouch_c, 0, 63, 0
1, 538753, Note_on_c, 0, 63, 3
1, 538753, Note_off_c, 0, 63, 127
1, 538778, Note_on_c, 0, 60, 74
1, 538844, Note_off_c, 0, 60, 63
1, 538861, Note_on_c, 0, 63, 62
1, 538863, Note_on_c, 0, 58, 72
1, 538870, Control_c, 0, 64, 31
1, 538891, Note_off_c, 0, 58, 67
1, 538891, Note_off_c, 0, 63, 65
1, 538915, Control_c, 0, 64, 32
1, 538930, Control_c, 0, 64, 34
1, 538935, Note_on_c, 0, 60, 68
1, 538945, Control_c, 0, 64, 35
1, 538959, Control_c, 0, 64, 34
1, 538961, Note_off_c, 0, 60, 65
1, 538974, Control_c, 0, 64, 0
1, 539019, Note_on_c, 0, 41, 74
1, 539047, Note_off_c, 0, 41, 64
1, 539152, Control_c, 0, 64, 35
1, 539167, Control_c, 0, 64, 55
1, 539182, Control_c, 0, 64, 59
1, 539196, Control_c, 0, 64, 60
1, 539207, Note_on_c, 0, 60, 77
1, 539211, Control_c, 0, 64, 61
1, 539220, Note_on_c, 0, 64, 64
1, 539221, Note_on_c, 0, 69, 62
1, 539224, Note_on_c, 0, 57, 56
1, 539226, Control_c, 0, 64, 63
1, 539241, Note_off_c, 0, 60, 67
1, 539241, Control_c, 0, 64, 64
1, 539245, Note_off_c, 0, 57, 60
1, 539255, Note_off_c, 0, 64, 63
1, 539255, Note_off_c, 0, 69, 60
1, 539256, Control_c, 0, 64, 64
1, 539270, Control_c, 0, 64, 65
1, 539285, Control_c, 0, 64, 65
1, 539315, Control_c, 0, 64, 66
1, 539329, Control_c, 0, 64, 65
1, 539344, Control_c, 0, 64, 64
1, 539359, Control_c, 0, 64, 58
1, 539382, Note_on_c, 0, 41, 69
1, 539382, Control_c, 0, 64, 40
1, 539397, Control_c, 0, 64, 0
1, 539404, Note_off_c, 0, 41, 63
1, 539559, Control_c, 0, 64, 61
1, 539562, Note_on_c, 0, 61, 92
1, 539562, Note_on_c, 0, 57, 90
1, 539566, Note_on_c, 0, 65, 79
1, 539570, Note_on_c, 0, 69, 79
1, 539574, Control_c, 0, 64, 65
1, 539583, Note_off_c, 0, 57, 73
1, 539589, Control_c, 0, 64, 65
1, 539591, Note_off_c, 0, 65, 64
1, 539597, Note_off_c, 0, 61, 65
1, 539605, Control_c, 0, 64, 66
1, 539606, Note_off_c, 0, 69, 55
1, 539620, Control_c, 0, 64, 67
1, 539634, Control_c, 0, 64, 69
1, 539649, Control_c, 0, 64, 70
1, 539664, Control_c, 0, 64, 70
1, 539694, Control_c, 0, 64, 71
1, 539708, Control_c, 0, 64, 70
1, 539738, Note_on_c, 0, 41, 78
1, 539738, Control_c, 0, 64, 65
1, 539752, Control_c, 0, 64, 46
1, 539767, Note_off_c, 0, 41, 66
1, 539767, Control_c, 0, 64, 0
1, 539926, Note_on_c, 0, 60, 73
1, 539931, Control_c, 0, 64, 37
1, 539931, Note_on_c, 0, 57, 66
1, 539931, Note_on_c, 0, 69, 72
1, 539934, Note_on_c, 0, 64, 68
1, 539945, Control_c, 0, 64, 56
1, 539949, Note_off_c, 0, 57, 64
1, 539950, Note_off_c, 0, 60, 70
1, 539960, Note_off_c, 0, 69, 63
1, 539960, Control_c, 0, 64, 61
1, 539963, Note_off_c, 0, 64, 66
1, 539975, Control_c, 0, 64, 63
1, 539990, Control_c, 0, 64, 65
1, 540005, Control_c, 0, 64, 67
1, 540019, Control_c, 0, 64, 69
1, 540034, Control_c, 0, 64, 71
1, 540049, Control_c, 0, 64, 71
1, 540078, Control_c, 0, 64, 70
1, 540093, Control_c, 0, 64, 59
1, 540104, Note_on_c, 0, 54, 70
1, 540108, Control_c, 0, 64, 0
1, 540176, Note_off_c, 0, 54, 60
1, 540183, Note_on_c, 0, 56, 64
1, 540248, Note_off_c, 0, 56, 62
1, 540262, Note_on_c, 0, 58, 73
1, 540267, Note_on_c, 0, 63, 59
1, 540271, Note_on_c, 0, 61, 44
1, 540287, Note_off_c, 0, 63, 63
1, 540299, Note_off_c, 0, 61, 57
1, 540319, Note_off_c, 0, 58, 63
1, 540346, Note_on_c, 0, 60, 70
1, 540405, Note_off_c, 0, 60, 61
1, 540420, Note_on_c, 0, 66, 73
1, 540423, Note_on_c, 0, 61, 62
1, 540447, Note_off_c, 0, 66, 66
1, 540492, Note_on_c, 0, 63, 75
1, 540499, Note_off_c, 0, 61, 61
1, 540557, Note_off_c, 0, 63, 63
1, 540578, Note_on_c, 0, 65, 78
1, 540593, Note_on_c, 0, 66, 93
1, 540594, Note_on_c, 0, 70, 77
1, 540617, Note_off_c, 0, 66, 63
1, 540623, Note_off_c, 0, 70, 61
1, 540632, Note_off_c, 0, 65, 61
1, 540667, Note_on_c, 0, 63, 67
1, 540729, Note_off_c, 0, 63, 52
1, 540741, Note_on_c, 0, 61, 71
1, 540756, Note_on_c, 0, 63, 53
1, 540766, Note_on_c, 0, 66, 55
1, 540780, Note_off_c, 0, 61, 59
1, 540787, Note_off_c, 0, 66, 59
1, 540792, Note_off_c, 0, 63, 63
1, 540820, Note_on_c, 0, 60, 75
1, 540883, Note_off_c, 0, 60, 63
1, 540911, Note_on_c, 0, 63, 77
1, 540921, Note_on_c, 0, 58, 69
1, 540948, Note_off_c, 0, 63, 63
1, 540950, Note_off_c, 0, 58, 65
1, 540988, Note_on_c, 0, 60, 67
1, 541007, Note_off_c, 0, 60, 64
1, 541059, Note_on_c, 0, 41, 81
1, 541083, Note_off_c, 0, 41, 68
1, 541206, Control_c, 0, 64, 50
1, 541221, Control_c, 0, 64, 60
1, 541236, Control_c, 0, 64, 61
1, 541251, Control_c, 0, 64, 62
1, 541255, Note_on_c, 0, 69, 69
1, 541259, Note_on_c, 0, 57, 67
1, 541260, Note_on_c, 0, 60, 73
1, 541264, Note_on_c, 0, 64, 62
1, 541266, Control_c, 0, 64, 63
1, 541280, Control_c, 0, 64, 64
1, 541287, Note_off_c, 0, 60, 68
1, 541288, Note_off_c, 0, 57, 65
1, 541289, Note_off_c, 0, 64, 67
1, 541295, Control_c, 0, 64, 65
1, 541298, Note_off_c, 0, 69, 59
1, 541310, Control_c, 0, 64, 66
1, 541324, Control_c, 0, 64, 66
1, 541339, Control_c, 0, 64, 67
1, 541398, Control_c, 0, 64, 65
1, 541413, Control_c, 0, 64, 58
1, 541419, Note_on_c, 0, 41, 75
1, 541428, Control_c, 0, 64, 31
1, 541443, Control_c, 0, 64, 0
1, 541449, Note_off_c, 0, 41, 65
1, 541591, Control_c, 0, 64, 62
1, 541593, Note_on_c, 0, 57, 81
1, 541594, Note_on_c, 0, 65, 76
1, 541595, Note_on_c, 0, 69, 85
1, 541598, Note_on_c, 0, 61, 85
1, 541606, Control_c, 0, 64, 66
1, 541625, Note_off_c, 0, 57, 69
1, 541626, Note_off_c, 0, 65, 65
1, 541628, Control_c, 0, 64, 67
1, 541633, Note_off_c, 0, 61, 68
1, 541642, Control_c, 0, 64, 67
1, 541657, Control_c, 0, 64, 68
1, 541658, Note_off_c, 0, 69, 62
1, 541672, Control_c, 0, 64, 68
1, 541687, Control_c, 0, 64, 69
1, 541765, Note_on_c, 0, 41, 88
1, 541788, Note_off_c, 0, 41, 68
1, 541910, Control_c, 0, 64, 66
1, 541924, Control_c, 0, 64, 52
1, 541926, Note_on_c, 0, 72, 79
1, 541927, Note_on_c, 0, 60, 74
1, 541930, Note_on_c, 0, 69, 73
1, 541932, Note_on_c, 0, 65, 71
1, 541939, Control_c, 0, 64, 0
1, 541951, Note_off_c, 0, 69, 71
1, 541952, Note_off_c, 0, 60, 68
1, 541955, Note_off_c, 0, 65, 70
1, 541965, Note_off_c, 0, 72, 67
1, 542099, Note_on_c, 0, 53, 77
1, 542122, Note_off_c, 0, 53, 69
1, 542133, Control_c, 0, 64, 53
1, 542147, Control_c, 0, 64, 65
1, 542162, Control_c, 0, 64, 65
1, 542192, Control_c, 0, 64, 66
1, 542207, Control_c, 0, 64, 68
1, 542221, Control_c, 0, 64, 69
1, 542236, Control_c, 0, 64, 69
1, 542251, Control_c, 0, 64, 70
1, 542259, Note_on_c, 0, 81, 91
1, 542261, Note_on_c, 0, 72, 96
1, 542262, Note_on_c, 0, 76, 89
1, 542263, Note_on_c, 0, 69, 83
1, 542280, Control_c, 0, 64, 70
1, 542282, Note_off_c, 0, 69, 71
1, 542291, Note_off_c, 0, 76, 60
1, 542294, Note_off_c, 0, 72, 65
1, 542295, Control_c, 0, 64, 71
1, 542310, Note_off_c, 0, 81, 63
1, 542310, Control_c, 0, 64, 72
1, 542325, Control_c, 0, 64, 72
1, 542340, Control_c, 0, 64, 73
1, 542407, Control_c, 0, 64, 65
1, 542421, Control_c, 0, 64, 39
1, 542430, Note_on_c, 0, 53, 87
1, 542436, Control_c, 0, 64, 0
1, 542454, Note_off_c, 0, 53, 68
1, 542597, Note_on_c, 0, 81, 92
1, 542599, Note_on_c, 0, 69, 97
1, 542599, Note_on_c, 0, 73, 101
1, 542599, Note_on_c, 0, 77, 91
1, 542599, Control_c, 0, 64, 62
1, 542614, Control_c, 0, 64, 72
1, 542629, Control_c, 0, 64, 78
1, 542633, Note_off_c, 0, 73, 67
1, 542635, Note_off_c, 0, 69, 63
1, 542641, Note_off_c, 0, 77, 65
1, 542644, Control_c, 0, 64, 80
1, 542659, Control_c, 0, 64, 84
1, 542663, Note_off_c, 0, 81, 64
1, 542673, Control_c, 0, 64, 88
1, 542688, Control_c, 0, 64, 90
1, 542703, Control_c, 0, 64, 91
1, 542718, Control_c, 0, 64, 92
1, 542787, Note_on_c, 0, 53, 88
1, 542814, Note_off_c, 0, 53, 65
1, 542951, Note_on_c, 0, 84, 96
1, 542954, Note_on_c, 0, 72, 93
1, 542958, Note_on_c, 0, 77, 86
1, 542958, Note_on_c, 0, 81, 89
1, 542976, Note_off_c, 0, 72, 65
1, 542990, Note_off_c, 0, 77, 64
1, 542999, Note_off_c, 0, 81, 65
1, 543012, Note_off_c, 0, 84, 65
1, 543059, Control_c, 0, 64, 92
1, 543088, Control_c, 0, 64, 93
1, 543103, Control_c, 0, 64, 93
1, 543141, Control_c, 0, 64, 92
1, 543146, Note_on_c, 0, 41, 94
1, 543156, Control_c, 0, 64, 77
1, 543170, Control_c, 0, 64, 52
1, 543185, Control_c, 0, 64, 0
1, 543356, Note_on_c, 0, 90, 101
1, 543359, Note_on_c, 0, 78, 97
1, 543363, Control_c, 0, 64, 36
1, 543370, Note_on_c, 0, 82, 78
1, 543372, Note_on_c, 0, 85, 77
1, 543377, Control_c, 0, 64, 67
1, 543392, Control_c, 0, 64, 72
1, 543395, Note_on_c, 0, 49, 69
1, 543407, Control_c, 0, 64, 77
1, 543422, Control_c, 0, 64, 79
1, 543422, Note_off_c, 0, 41, 58
1, 543437, Control_c, 0, 64, 88
1, 543452, Control_c, 0, 64, 102
1, 543467, Control_c, 0, 64, 127
1, 543521, Note_off_c, 0, 90, 62
1, 543545, Note_off_c, 0, 78, 58
1, 543556, Note_off_c, 0, 49, 63
1, 543577, Note_off_c, 0, 82, 61
1, 543592, Note_on_c, 0, 58, 77
1, 543595, Note_off_c, 0, 85, 62
1, 543625, Note_on_c, 0, 80, 95
1, 543625, Note_on_c, 0, 92, 105
1, 543646, Note_off_c, 0, 58, 60
1, 543756, Note_off_c, 0, 80, 60
1, 543759, Note_off_c, 0, 92, 66
1, 543815, Poly_aftertouch_c, 0, 85, 0
1, 543827, Note_on_c, 0, 61, 74
1, 543827, Note_on_c, 0, 85, 27
1, 543827, Note_on_c, 0, 94, 104
1, 543829, Note_on_c, 0, 82, 97
1, 543842, Note_on_c, 0, 90, 83
1, 543977, Note_off_c, 0, 82, 61
1, 543983, Note_off_c, 0, 94, 61
1, 544012, Note_on_c, 0, 66, 77
1, 544044, Note_off_c, 0, 61, 55
1, 544093, Note_off_c, 0, 90, 32
1, 544134, Note_off_c, 0, 66, 61
1, 544165, Note_on_c, 0, 92, 102
1, 544170, Note_on_c, 0, 80, 89
1, 544170, Note_off_c, 0, 85, 64
1, 544176, Note_on_c, 0, 70, 66
1, 544232, Note_off_c, 0, 70, 63
1, 544280, Note_off_c, 0, 80, 61
1, 544280, Note_off_c, 0, 92, 66
1, 544367, Note_on_c, 0, 90, 91
1, 544369, Note_on_c, 0, 84, 57
1, 544374, Note_on_c, 0, 78, 79
1, 544376, Note_on_c, 0, 53, 62
1, 544379, Control_c, 0, 64, 92
1, 544383, Note_on_c, 0, 87, 66
1, 544394, Control_c, 0, 64, 62
1, 544409, Control_c, 0, 64, 0
1, 544483, Control_c, 0, 64, 52
1, 544498, Control_c, 0, 64, 65
1, 544513, Control_c, 0, 64, 71
1, 544528, Control_c, 0, 64, 79
1, 544542, Control_c, 0, 64, 86
1, 544547, Note_on_c, 0, 60, 65
1, 544557, Control_c, 0, 64, 94
1, 544572, Control_c, 0, 64, 101
1, 544587, Control_c, 0, 64, 108
1, 544602, Control_c, 0, 64, 113
1, 544606, Note_off_c, 0, 53, 38
1, 544608, Note_off_c, 0, 90, 61
1, 544623, Control_c, 0, 64, 116
1, 544636, Note_off_c, 0, 78, 57
1, 544668, Control_c, 0, 64, 118
1, 544715, Note_off_c, 0, 87, 60
1, 544720, Note_on_c, 0, 89, 86
1, 544727, Note_on_c, 0, 77, 77
1, 544735, Note_off_c, 0, 84, 43
1, 544736, Note_off_c, 0, 60, 61
1, 544746, Note_on_c, 0, 63, 64
1, 544772, Control_c, 0, 64, 120
1, 544802, Control_c, 0, 64, 127
1, 544827, Note_off_c, 0, 77, 58
1, 544830, Note_off_c, 0, 89, 61
1, 544877, Note_off_c, 0, 63, 58
1, 544913, Note_on_c, 0, 88, 86
1, 544920, Control_c, 0, 64, 92
1, 544930, Note_on_c, 0, 84, 29
1, 544933, Note_on_c, 0, 69, 54
1, 544935, Control_c, 0, 64, 72
1, 544937, Note_on_c, 0, 76, 58
1, 544945, Note_on_c, 0, 81, 33
1, 544949, Control_c, 0, 64, 62
1, 544964, Control_c, 0, 64, 60
1, 544979, Control_c, 0, 64, 62
1, 544994, Control_c, 0, 64, 67
1, 545002, Note_off_c, 0, 81, 0
1, 545009, Control_c, 0, 64, 74
1, 545023, Control_c, 0, 64, 82
1, 545038, Control_c, 0, 64, 86
1, 545039, Poly_aftertouch_c, 0, 81, 127
1, 545053, Control_c, 0, 64, 89
1, 545057, Note_off_c, 0, 69, 53
1, 545067, Control_c, 0, 64, 92
1, 545082, Control_c, 0, 64, 95
1, 545097, Control_c, 0, 64, 97
1, 545112, Control_c, 0, 64, 100
1, 545125, Note_off_c, 0, 88, 63
1, 545127, Control_c, 0, 64, 102
1, 545134, Note_off_c, 0, 76, 62
1, 545157, Control_c, 0, 64, 105
1, 545165, Note_on_c, 0, 65, 50
1, 545202, Control_c, 0, 64, 108
1, 545246, Control_c, 0, 64, 110
1, 545321, Control_c, 0, 64, 112
1, 545381, Note_on_c, 0, 87, 79
1, 545387, Control_c, 0, 67, 41
1, 545399, Note_on_c, 0, 75, 61
1, 545399, Note_on_c, 0, 77, 59
1, 545402, Control_c, 0, 67, 47
1, 545417, Control_c, 0, 67, 49
1, 545434, Poly_aftertouch_c, 0, 81, 0
1, 545437, Note_off_c, 0, 77, 61
1, 545446, Control_c, 0, 67, 49
1, 545455, Note_off_c, 0, 84, 63
1, 545461, Control_c, 0, 67, 47
1, 545470, Note_off_c, 0, 87, 65
1, 545476, Control_c, 0, 67, 45
1, 545491, Control_c, 0, 67, 43
1, 545492, Note_off_c, 0, 75, 61
1, 545506, Control_c, 0, 67, 40
1, 545520, Control_c, 0, 67, 38
1, 545525, Note_off_c, 0, 65, 59
1, 545535, Control_c, 0, 67, 0
1, 545713, Control_c, 0, 64, 110
1, 545728, Control_c, 0, 64, 107
1, 545730, Note_on_c, 0, 53, 68
1, 545743, Control_c, 0, 64, 99
1, 545744, Note_on_c, 0, 68, 72
1, 545758, Control_c, 0, 64, 88
1, 545767, Note_on_c, 0, 46, 41
1, 545772, Control_c, 0, 64, 74
1, 545787, Control_c, 0, 64, 63
1, 545802, Control_c, 0, 64, 48
1, 545816, Control_c, 0, 64, 0
1, 545950, Control_c, 0, 64, 34
1, 545965, Control_c, 0, 64, 47
1, 545980, Control_c, 0, 64, 59
1, 545995, Control_c, 0, 64, 63
1, 546003, Note_on_c, 0, 62, 46
1, 546010, Control_c, 0, 64, 66
1, 546025, Control_c, 0, 64, 68
1, 546040, Control_c, 0, 64, 69
1, 546055, Control_c, 0, 64, 72
1, 546069, Control_c, 0, 64, 74
1, 546084, Control_c, 0, 64, 76
1, 546099, Control_c, 0, 64, 78
1, 546121, Control_c, 0, 64, 79
1, 546136, Control_c, 0, 64, 80
1, 546151, Control_c, 0, 64, 81
1, 546166, Control_c, 0, 64, 82
1, 546176, Note_off_c, 0, 62, 53
1, 546181, Control_c, 0, 64, 83
1, 546195, Control_c, 0, 64, 84
1, 546198, Note_on_c, 0, 59, 46
1, 546210, Control_c, 0, 64, 85
1, 546225, Control_c, 0, 64, 85
1, 546239, Control_c, 0, 64, 86
1, 546254, Control_c, 0, 64, 86
1, 546300, Control_c, 0, 64, 87
1, 546383, Note_on_c, 0, 62, 50
1, 546388, Note_off_c, 0, 59, 35
1, 546445, Note_off_c, 0, 53, 56
1, 546568, Note_on_c, 0, 53, 76
1, 546574, Note_off_c, 0, 62, 60
1, 546581, Note_on_c, 0, 59, 59
1, 546670, Control_c, 0, 64, 86
1, 546746, Note_on_c, 0, 54, 82
1, 546764, Note_off_c, 0, 53, 56
1, 546772, Note_on_c, 0, 62, 65
1, 546786, Note_off_c, 0, 46, 60
1, 546787, Note_off_c, 0, 59, 50
1, 546790, Control_c, 0, 64, 86
1, 546927, Note_off_c, 0, 68, 56
1, 546930, Control_c, 0, 64, 84
1, 546945, Control_c, 0, 64, 75
1, 546955, Note_on_c, 0, 56, 89
1, 546960, Control_c, 0, 64, 62
1, 546963, Note_off_c, 0, 54, 60
1, 546975, Control_c, 0, 64, 38
1, 546984, Note_on_c, 0, 46, 66
1, 546988, Note_on_c, 0, 63, 65
1, 546990, Control_c, 0, 64, 0
1, 547003, Note_on_c, 0, 59, 31
1, 547017, Note_off_c, 0, 62, 59
1, 547115, Note_off_c, 0, 63, 62
1, 547119, Note_on_c, 0, 66, 73
1, 547121, Control_c, 0, 64, 44
1, 547136, Control_c, 0, 64, 54
1, 547151, Control_c, 0, 64, 59
1, 547160, Note_on_c, 0, 65, 66
1, 547166, Control_c, 0, 64, 62
1, 547181, Control_c, 0, 64, 63
1, 547196, Control_c, 0, 64, 64
1, 547205, Note_off_c, 0, 59, 39
1, 547210, Control_c, 0, 64, 64
1, 547240, Control_c, 0, 64, 65
1, 547265, Note_off_c, 0, 66, 33
1, 547279, Note_off_c, 0, 56, 54
1, 547324, Note_on_c, 0, 57, 82
1, 547330, Note_on_c, 0, 63, 74
1, 547353, Note_off_c, 0, 65, 48
1, 547489, Note_off_c, 0, 57, 63
1, 547491, Control_c, 0, 64, 62
1, 547506, Control_c, 0, 64, 51
1, 547521, Control_c, 0, 64, 30
1, 547524, Note_on_c, 0, 59, 81
1, 547524, Note_off_c, 0, 63, 58
1, 547529, Note_on_c, 0, 65, 66
1, 547536, Control_c, 0, 64, 0
1, 547591, Note_off_c, 0, 59, 62
1, 547596, Control_c, 0, 64, 40
1, 547619, Control_c, 0, 64, 55
1, 547634, Control_c, 0, 64, 62
1, 547648, Control_c, 0, 64, 63
1, 547663, Control_c, 0, 64, 64
1, 547702, Note_off_c, 0, 65, 59
1, 547718, Note_on_c, 0, 63, 61
1, 547766, Control_c, 0, 64, 64
1, 547895, Note_on_c, 0, 57, 71
1, 547908, Note_on_c, 0, 65, 62
1, 547924, Note_off_c, 0, 46, 60
1, 548092, Control_c, 0, 64, 64
1, 548107, Control_c, 0, 64, 62
1, 548115, Note_on_c, 0, 53, 66
1, 548119, Note_on_c, 0, 68, 59
1, 548120, Note_off_c, 0, 63, 17
1, 548122, Control_c, 0, 64, 57
1, 548137, Note_on_c, 0, 46, 51
1, 548137, Control_c, 0, 64, 49
1, 548149, Note_off_c, 0, 57, 61
1, 548152, Control_c, 0, 64, 35
1, 548153, Note_off_c, 0, 65, 50
1, 548166, Control_c, 0, 64, 0
1, 548191, Poly_aftertouch_c, 0, 59, 127
1, 548318, Poly_aftertouch_c, 0, 59, 0
1, 548321, Note_on_c, 0, 62, 47
1, 548344, Control_c, 0, 64, 32
1, 548366, Control_c, 0, 64, 44
1, 548382, Control_c, 0, 64, 55
1, 548397, Control_c, 0, 64, 60
1, 548412, Control_c, 0, 64, 62
1, 548427, Control_c, 0, 64, 63
1, 548441, Control_c, 0, 64, 64
1, 548456, Control_c, 0, 64, 65
1, 548471, Control_c, 0, 64, 66
1, 548486, Control_c, 0, 64, 67
1, 548501, Control_c, 0, 64, 68
1, 548504, Note_off_c, 0, 62, 60
1, 548515, Control_c, 0, 64, 69
1, 548527, Note_on_c, 0, 59, 51
1, 548530, Control_c, 0, 64, 69
1, 548545, Control_c, 0, 64, 70
1, 548575, Control_c, 0, 64, 70
1, 548619, Control_c, 0, 64, 71
1, 548674, Note_off_c, 0, 59, 48
1, 548685, Note_off_c, 0, 53, 55
1, 548698, Note_on_c, 0, 62, 59
1, 548868, Note_on_c, 0, 53, 80
1, 548873, Note_off_c, 0, 62, 61
1, 548882, Note_on_c, 0, 59, 64
1, 549003, Note_off_c, 0, 53, 58
1, 549050, Note_on_c, 0, 54, 79
1, 549063, Note_off_c, 0, 59, 54
1, 549063, Control_c, 0, 64, 70
1, 549069, Note_on_c, 0, 62, 70
1, 549094, Note_off_c, 0, 46, 55
1, 549232, Note_off_c, 0, 68, 60
1, 549250, Control_c, 0, 64, 69
1, 549264, Control_c, 0, 64, 64
1, 549265, Note_on_c, 0, 56, 85
1, 549268, Note_on_c, 0, 46, 52
1, 549278, Note_off_c, 0, 54, 57
1, 549279, Control_c, 0, 64, 51
1, 549290, Note_on_c, 0, 63, 71
1, 549294, Control_c, 0, 64, 0
1, 549301, Note_on_c, 0, 59, 43
1, 549315, Note_off_c, 0, 62, 62
1, 549411, Note_off_c, 0, 63, 61
1, 549413, Note_on_c, 0, 66, 71
1, 549443, Control_c, 0, 64, 35
1, 549455, Note_on_c, 0, 65, 73
1, 549457, Control_c, 0, 64, 49
1, 549472, Control_c, 0, 64, 58
1, 549474, Note_off_c, 0, 66, 62
1, 549487, Control_c, 0, 64, 62
1, 549502, Control_c, 0, 64, 63
1, 549517, Control_c, 0, 64, 63
1, 549546, Control_c, 0, 64, 64
1, 549577, Note_off_c, 0, 56, 57
1, 549609, Note_off_c, 0, 59, 44
1, 549628, Note_on_c, 0, 57, 81
1, 549633, Note_on_c, 0, 63, 78
1, 549668, Note_off_c, 0, 65, 59
1, 549738, Control_c, 0, 64, 64
1, 549774, Note_off_c, 0, 57, 63
1, 549783, Control_c, 0, 64, 64
1, 549798, Control_c, 0, 64, 62
1, 549813, Control_c, 0, 64, 52
1, 549824, Note_on_c, 0, 59, 79
1, 549828, Control_c, 0, 64, 30
1, 549831, Note_on_c, 0, 65, 67
1, 549833, Note_off_c, 0, 63, 58
1, 549843, Control_c, 0, 64, 0
1, 549905, Note_off_c, 0, 59, 61
1, 549938, Control_c, 0, 64, 41
1, 549953, Control_c, 0, 64, 52
1, 549968, Control_c, 0, 64, 58
1, 549984, Control_c, 0, 64, 59
1, 549999, Control_c, 0, 64, 60
1, 550014, Control_c, 0, 64, 60
1, 550029, Control_c, 0, 64, 61
1, 550033, Note_off_c, 0, 65, 59
1, 550041, Note_on_c, 0, 63, 66
1, 550043, Control_c, 0, 64, 62
1, 550057, Control_c, 0, 64, 62
1, 550072, Control_c, 0, 64, 63
1, 550087, Control_c, 0, 64, 63
1, 550102, Control_c, 0, 64, 64
1, 550117, Control_c, 0, 64, 65
1, 550132, Control_c, 0, 64, 65
1, 550147, Control_c, 0, 64, 66
1, 550176, Control_c, 0, 64, 66
1, 550206, Control_c, 0, 64, 66
1, 550221, Control_c, 0, 64, 63
1, 550227, Note_off_c, 0, 63, 56
1, 550235, Note_on_c, 0, 57, 58
1, 550235, Control_c, 0, 64, 56
1, 550245, Note_on_c, 0, 65, 55
1, 550245, Note_off_c, 0, 46, 62
1, 550250, Control_c, 0, 64, 46
1, 550265, Control_c, 0, 64, 39
1, 550279, Control_c, 0, 64, 38
1, 550294, Control_c, 0, 64, 41
1, 550309, Control_c, 0, 64, 49
1, 550324, Control_c, 0, 64, 57
1, 550339, Control_c, 0, 64, 62
1, 550353, Control_c, 0, 64, 63
1, 550368, Control_c, 0, 64, 64
1, 550383, Control_c, 0, 64, 64
1, 550387, Note_off_c, 0, 65, 63
1, 550407, Note_off_c, 0, 57, 64
1, 550427, Control_c, 0, 64, 64
1, 550433, Note_on_c, 0, 46, 76
1, 550442, Control_c, 0, 64, 61
1, 550457, Note_off_c, 0, 46, 66
1, 550457, Control_c, 0, 64, 54
1, 550472, Control_c, 0, 64, 39
1, 550487, Control_c, 0, 64, 0
1, 550591, Control_c, 0, 64, 34
1, 550612, Control_c, 0, 64, 47
1, 550627, Control_c, 0, 64, 57
1, 550631, Note_on_c, 0, 74, 66
1, 550639, Note_on_c, 0, 65, 46
1, 550640, Note_on_c, 0, 69, 56
1, 550642, Control_c, 0, 64, 61
1, 550647, Note_on_c, 0, 62, 41
1, 550657, Control_c, 0, 64, 62
1, 550663, Note_off_c, 0, 69, 62
1, 550666, Note_off_c, 0, 65, 56
1, 550672, Control_c, 0, 64, 63
1, 550677, Note_off_c, 0, 62, 54
1, 550677, Note_off_c, 0, 74, 56
1, 550686, Control_c, 0, 64, 64
1, 550701, Control_c, 0, 64, 65
1, 550716, Control_c, 0, 64, 66
1, 550731, Control_c, 0, 64, 67
1, 550791, Control_c, 0, 64, 64
1, 550806, Note_on_c, 0, 46, 53
1, 550806, Control_c, 0, 64, 56
1, 550821, Control_c, 0, 64, 40
1, 550835, Control_c, 0, 64, 0
1, 550837, Note_off_c, 0, 46, 52
1, 550968, Note_on_c, 0, 66, 84
1, 550973, Note_on_c, 0, 62, 79
1, 550976, Note_on_c, 0, 70, 79
1, 550976, Note_on_c, 0, 74, 81
1, 550984, Control_c, 0, 64, 53
1, 550993, Note_off_c, 0, 62, 70
1, 550995, Note_off_c, 0, 70, 72
1, 550997, Note_off_c, 0, 66, 65
1, 550999, Note_off_c, 0, 74, 69
1, 550999, Control_c, 0, 64, 63
1, 551014, Control_c, 0, 64, 65
1, 551028, Control_c, 0, 64, 65
1, 551043, Control_c, 0, 64, 66
1, 551058, Control_c, 0, 64, 67
1, 551073, Control_c, 0, 64, 68
1, 551117, Control_c, 0, 64, 68
1, 551132, Control_c, 0, 64, 62
1, 551147, Control_c, 0, 64, 47
1, 551160, Note_on_c, 0, 46, 51
1, 551162, Control_c, 0, 64, 0
1, 551193, Note_off_c, 0, 46, 52
1, 551326, Note_on_c, 0, 74, 80
1, 551327, Note_on_c, 0, 62, 74
1, 551327, Note_on_c, 0, 65, 77
1, 551339, Note_on_c, 0, 69, 54
1, 551339, Control_c, 0, 64, 47
1, 551356, Note_off_c, 0, 65, 70
1, 551357, Note_off_c, 0, 74, 66
1, 551360, Note_off_c, 0, 62, 68
1, 551362, Control_c, 0, 64, 62
1, 551369, Note_off_c, 0, 69, 61
1, 551377, Control_c, 0, 64, 63
1, 551391, Control_c, 0, 64, 65
1, 551406, Control_c, 0, 64, 68
1, 551421, Control_c, 0, 64, 72
1, 551435, Control_c, 0, 64, 76
1, 551450, Control_c, 0, 64, 79
1, 551480, Control_c, 0, 64, 79
1, 551495, Control_c, 0, 64, 65
1, 551509, Note_on_c, 0, 59, 75
1, 551509, Control_c, 0, 64, 0
1, 551570, Note_off_c, 0, 59, 63
1, 551592, Note_on_c, 0, 61, 64
1, 551661, Note_off_c, 0, 61, 63
1, 551665, Note_on_c, 0, 69, 65
1, 551667, Note_on_c, 0, 63, 70
1, 551691, Note_off_c, 0, 69, 68
1, 551697, Note_on_c, 0, 66, 8
1, 551697, Note_off_c, 0, 66, 127
1, 551728, Note_off_c, 0, 63, 63
1, 551740, Note_on_c, 0, 65, 80
1, 551819, Note_on_c, 0, 69, 61
1, 551820, Note_on_c, 0, 66, 84
1, 551823, Note_off_c, 0, 65, 58
1, 551825, Note_on_c, 0, 71, 75
1, 551846, Note_off_c, 0, 69, 64
1, 551863, Note_off_c, 0, 71, 64
1, 551896, Note_on_c, 0, 68, 83
1, 551914, Note_off_c, 0, 66, 62
1, 551973, Note_on_c, 0, 75, 83
1, 551974, Note_on_c, 0, 70, 91
1, 551975, Note_off_c, 0, 68, 65
1, 551976, Note_on_c, 0, 71, 77
1, 551994, Note_off_c, 0, 71, 66
1, 552004, Note_off_c, 0, 75, 60
1, 552059, Note_on_c, 0, 68, 84
1, 552062, Note_off_c, 0, 70, 64
1, 552142, Note_on_c, 0, 71, 60
1, 552149, Note_on_c, 0, 66, 80
1, 552157, Note_off_c, 0, 68, 60
1, 552170, Note_on_c, 0, 69, 51
1, 552190, Note_off_c, 0, 71, 62
1, 552193, Note_off_c, 0, 69, 60
1, 552195, Note_off_c, 0, 66, 61
1, 552220, Note_on_c, 0, 65, 74
1, 552281, Note_off_c, 0, 65, 61
1, 552309, Note_on_c, 0, 63, 76
1, 552310, Note_on_c, 0, 69, 58
1, 552318, Note_on_c, 0, 66, 62
1, 552335, Note_off_c, 0, 63, 65
1, 552344, Note_off_c, 0, 69, 63
1, 552349, Note_off_c, 0, 66, 66
1, 552386, Note_on_c, 0, 65, 56
1, 552407, Note_off_c, 0, 65, 60
1, 552451, Note_on_c, 0, 46, 89
1, 552474, Note_off_c, 0, 46, 68
1, 552645, Control_c, 0, 64, 54
1, 552652, Note_on_c, 0, 62, 85
1, 552656, Note_on_c, 0, 69, 78
1, 552656, Note_on_c, 0, 74, 81
1, 552657, Note_on_c, 0, 65, 85
1, 552660, Control_c, 0, 64, 64
1, 552672, Note_off_c, 0, 62, 72
1, 552674, Control_c, 0, 64, 64
1, 552678, Note_off_c, 0, 69, 69
1, 552684, Note_off_c, 0, 65, 64
1, 552685, Note_off_c, 0, 74, 58
1, 552689, Control_c, 0, 64, 66
1, 552704, Control_c, 0, 64, 69
1, 552719, Control_c, 0, 64, 75
1, 552734, Control_c, 0, 64, 79
1, 552748, Control_c, 0, 64, 80
1, 552793, Control_c, 0, 64, 75
1, 552807, Control_c, 0, 64, 61
1, 552814, Note_on_c, 0, 46, 78
1, 552822, Control_c, 0, 64, 0
1, 552835, Note_off_c, 0, 46, 63
1, 552989, Note_on_c, 0, 66, 98
1, 552993, Note_on_c, 0, 62, 91
1, 552993, Note_on_c, 0, 70, 90
1, 552993, Control_c, 0, 64, 46
1, 552997, Note_on_c, 0, 74, 88
1, 553007, Control_c, 0, 64, 69
1, 553012, Note_off_c, 0, 62, 72
1, 553022, Note_off_c, 0, 66, 66
1, 553022, Control_c, 0, 64, 70
1, 553026, Note_off_c, 0, 70, 64
1, 553035, Note_off_c, 0, 74, 51
1, 553038, Control_c, 0, 64, 70
1, 553068, Control_c, 0, 64, 71
1, 553082, Control_c, 0, 64, 72
1, 553097, Control_c, 0, 64, 72
1, 553127, Control_c, 0, 64, 73
1, 553156, Control_c, 0, 64, 72
1, 553159, Note_on_c, 0, 46, 88
1, 553171, Control_c, 0, 64, 65
1, 553184, Note_off_c, 0, 46, 69
1, 553187, Control_c, 0, 64, 42
1, 553202, Control_c, 0, 64, 0
1, 553339, Note_on_c, 0, 65, 87
1, 553342, Note_on_c, 0, 62, 84
1, 553348, Note_on_c, 0, 74, 82
1, 553352, Note_on_c, 0, 69, 69
1, 553360, Note_off_c, 0, 65, 70
1, 553363, Note_off_c, 0, 62, 72
1, 553365, Control_c, 0, 64, 49
1, 553370, Note_off_c, 0, 69, 67
1, 553370, Note_off_c, 0, 74, 70
1, 553379, Control_c, 0, 64, 66
1, 553394, Control_c, 0, 64, 69
1, 553409, Control_c, 0, 64, 74
1, 553423, Control_c, 0, 64, 78
1, 553438, Control_c, 0, 64, 88
1, 553453, Control_c, 0, 64, 93
1, 553483, Control_c, 0, 64, 88
1, 553497, Control_c, 0, 64, 66
1, 553512, Control_c, 0, 64, 0
1, 553519, Note_on_c, 0, 59, 84
1, 553584, Note_off_c, 0, 59, 64
1, 553603, Note_on_c, 0, 61, 70
1, 553673, Note_on_c, 0, 63, 83
1, 553676, Note_off_c, 0, 61, 62
1, 553681, Note_on_c, 0, 69, 77
1, 553696, Note_on_c, 0, 66, 48
1, 553705, Note_off_c, 0, 69, 66
1, 553721, Note_off_c, 0, 66, 36
1, 553737, Note_off_c, 0, 63, 63
1, 553756, Note_on_c, 0, 65, 72
1, 553810, Note_off_c, 0, 65, 61
1, 553825, Note_on_c, 0, 69, 71
1, 553831, Note_on_c, 0, 71, 77
1, 553832, Note_on_c, 0, 66, 72
1, 553850, Note_off_c, 0, 69, 68
1, 553857, Note_off_c, 0, 71, 66
1, 553906, Note_off_c, 0, 66, 64
1, 553907, Note_on_c, 0, 68, 77
1, 553985, Note_on_c, 0, 71, 90
1, 553985, Note_on_c, 0, 75, 92
1, 553986, Note_off_c, 0, 68, 62
1, 553986, Note_on_c, 0, 70, 88
1, 554006, Note_off_c, 0, 71, 65
1, 554013, Note_off_c, 0, 75, 60
1, 554061, Note_off_c, 0, 70, 62
1, 554069, Note_on_c, 0, 68, 73
1, 554143, Note_on_c, 0, 66, 76
1, 554149, Note_off_c, 0, 68, 62
1, 554157, Note_on_c, 0, 71, 82
1, 554160, Note_on_c, 0, 69, 81
1, 554180, Note_off_c, 0, 71, 69
1, 554185, Note_off_c, 0, 66, 61
1, 554185, Note_off_c, 0, 69, 65
1, 554210, Note_on_c, 0, 65, 77
1, 554269, Note_off_c, 0, 65, 63
1, 554290, Control_c, 0, 64, 39
1, 554297, Note_on_c, 0, 69, 81
1, 554299, Note_on_c, 0, 66, 75
1, 554302, Note_on_c, 0, 63, 71
1, 554305, Control_c, 0, 64, 51
1, 554320, Control_c, 0, 64, 58
1, 554321, Note_off_c, 0, 66, 70
1, 554322, Note_off_c, 0, 69, 64
1, 554328, Note_off_c, 0, 63, 66
1, 554335, Control_c, 0, 64, 62
1, 554357, Control_c, 0, 64, 64
1, 554363, Note_on_c, 0, 65, 81
1, 554372, Control_c, 0, 64, 65
1, 554383, Note_off_c, 0, 65, 72
1, 554401, Control_c, 0, 64, 65
1, 554416, Control_c, 0, 64, 58
1, 554431, Control_c, 0, 64, 0
1, 554449, Note_on_c, 0, 46, 90
1, 554469, Note_off_c, 0, 46, 68
1, 554616, Note_on_c, 0, 62, 87
1, 554619, Note_on_c, 0, 74, 86
1, 554624, Control_c, 0, 64, 59
1, 554624, Note_on_c, 0, 65, 93
1, 554637, Note_off_c, 0, 62, 72
1, 554639, Note_on_c, 0, 69, 54
1, 554639, Control_c, 0, 64, 65
1, 554639, Note_off_c, 0, 74, 70
1, 554663, Note_off_c, 0, 69, 59
1, 554676, Note_off_c, 0, 65, 65
1, 554683, Control_c, 0, 64, 66
1, 554698, Control_c, 0, 64, 66
1, 554713, Control_c, 0, 64, 67
1, 554742, Control_c, 0, 64, 65
1, 554757, Control_c, 0, 64, 50
1, 554773, Control_c, 0, 64, 0
1, 554791, Note_on_c, 0, 46, 75
1, 554809, Note_off_c, 0, 46, 63
1, 554952, Note_on_c, 0, 62, 95
1, 554956, Note_on_c, 0, 70, 87
1, 554956, Note_on_c, 0, 74, 94
1, 554962, Note_on_c, 0, 66, 104
1, 554965, Control_c, 0, 64, 51
1, 554970, Note_off_c, 0, 62, 73
1, 554975, Note_off_c, 0, 70, 72
1, 554980, Control_c, 0, 64, 74
1, 554985, Note_off_c, 0, 74, 61
1, 554999, Note_off_c, 0, 66, 67
1, 555009, Control_c, 0, 64, 74
1, 555039, Control_c, 0, 64, 75
1, 555054, Control_c, 0, 64, 76
1, 555068, Control_c, 0, 64, 77
1, 555083, Control_c, 0, 64, 77
1, 555106, Control_c, 0, 64, 78
1, 555121, Control_c, 0, 64, 78
1, 555125, Note_on_c, 0, 46, 90
1, 555146, Note_off_c, 0, 46, 70
1, 555239, Control_c, 0, 64, 75
1, 555254, Control_c, 0, 64, 60
1, 555269, Control_c, 0, 64, 0
1, 555280, Note_on_c, 0, 65, 92
1, 555282, Note_on_c, 0, 77, 94
1, 555283, Note_on_c, 0, 70, 93
1, 555284, Note_on_c, 0, 74, 88
1, 555297, Note_off_c, 0, 65, 74
1, 555302, Note_off_c, 0, 74, 72
1, 555303, Note_off_c, 0, 70, 69
1, 555321, Note_off_c, 0, 77, 66
1, 555453, Note_on_c, 0, 58, 98
1, 555462, Control_c, 0, 64, 34
1, 555476, Control_c, 0, 64, 67
1, 555491, Control_c, 0, 64, 69
1, 555493, Note_off_c, 0, 58, 63
1, 555506, Control_c, 0, 64, 69
1, 555550, Control_c, 0, 64, 70
1, 555596, Control_c, 0, 64, 70
1, 555612, Note_on_c, 0, 74, 105
1, 555613, Note_on_c, 0, 77, 103
1, 555613, Note_on_c, 0, 86, 99
1, 555616, Note_on_c, 0, 81, 95
1, 555625, Control_c, 0, 64, 72
1, 555638, Note_off_c, 0, 74, 64
1, 555638, Note_off_c, 0, 81, 65
1, 555640, Control_c, 0, 64, 74
1, 555646, Note_off_c, 0, 77, 68
1, 555655, Control_c, 0, 64, 76
1, 555660, Note_off_c, 0, 86, 64
1, 555670, Control_c, 0, 64, 78
1, 555685, Control_c, 0, 64, 78
1, 555714, Control_c, 0, 64, 75
1, 555729, Control_c, 0, 64, 60
1, 555744, Control_c, 0, 64, 0
1, 555773, Note_on_c, 0, 58, 99
1, 555802, Note_off_c, 0, 58, 60
1, 555929, Control_c, 0, 64, 64
1, 555944, Control_c, 0, 64, 83
1, 555948, Note_on_c, 0, 86, 100
1, 555949, Note_on_c, 0, 74, 101
1, 555950, Note_on_c, 0, 78, 102
1, 555951, Note_on_c, 0, 82, 93
1, 555959, Control_c, 0, 64, 104
1, 555972, Note_off_c, 0, 74, 65
1, 555973, Control_c, 0, 64, 127
1, 555982, Note_off_c, 0, 78, 67
1, 555986, Note_off_c, 0, 82, 67
1, 555998, Note_off_c, 0, 86, 64
1, 556129, Note_on_c, 0, 58, 99
1, 556166, Note_off_c, 0, 58, 65
1, 556302, Note_on_c, 0, 77, 110
1, 556303, Note_on_c, 0, 89, 101
1, 556305, Note_on_c, 0, 86, 100
1, 556311, Note_on_c, 0, 82, 87
1, 556332, Note_off_c, 0, 77, 69
1, 556353, Note_off_c, 0, 86, 60
1, 556360, Note_off_c, 0, 82, 60
1, 556368, Note_off_c, 0, 89, 60
1, 556471, Note_on_c, 0, 46, 88
1, 556478, Control_c, 0, 64, 88
1, 556493, Control_c, 0, 64, 44
1, 556508, Control_c, 0, 64, 0
1, 556646, Note_on_c, 0, 92, 104
1, 556648, Control_c, 0, 64, 61
1, 556651, Note_on_c, 0, 87, 91
1, 556652, Note_on_c, 0, 80, 90
1, 556657, Note_on_c, 0, 83, 74
1, 556661, Note_on_c, 0, 53, 76
1, 556663, Control_c, 0, 64, 72
1, 556678, Control_c, 0, 64, 77
1, 556693, Note_off_c, 0, 83, 54
1, 556693, Control_c, 0, 64, 80
1, 556708, Control_c, 0, 64, 85
1, 556723, Control_c, 0, 64, 91
1, 556730, Note_on_c, 0, 54, 9
1, 556730, Note_off_c, 0, 54, 127
1, 556738, Control_c, 0, 64, 98
1, 556750, Note_off_c, 0, 92, 66
1, 556753, Control_c, 0, 64, 105
1, 556767, Note_off_c, 0, 80, 61
1, 556767, Control_c, 0, 64, 117
1, 556782, Control_c, 0, 64, 127
1, 556806, Note_off_c, 0, 87, 63
1, 556834, Note_off_c, 0, 46, 59
1, 556843, Note_on_c, 0, 94, 107
1, 556843, Note_on_c, 0, 82, 103
1, 556855, Note_on_c, 0, 59, 81
1, 556863, Note_off_c, 0, 53, 59
1, 556910, Note_off_c, 0, 59, 63
1, 556999, Note_off_c, 0, 94, 62
1, 557015, Note_off_c, 0, 82, 57
1, 557038, Note_on_c, 0, 63, 81
1, 557091, Note_on_c, 0, 95, 99
1, 557094, Note_on_c, 0, 83, 109
1, 557095, Note_on_c, 0, 89, 77
1, 557102, Note_on_c, 0, 87, 82
1, 557108, Control_c, 0, 64, 71
1, 557122, Control_c, 0, 64, 49
1, 557137, Control_c, 0, 64, 47
1, 557138, Note_on_c, 0, 92, 50
1, 557152, Control_c, 0, 64, 58
1, 557168, Note_off_c, 0, 92, 51
1, 557168, Control_c, 0, 64, 68
1, 557183, Control_c, 0, 64, 82
1, 557197, Control_c, 0, 64, 109
1, 557212, Control_c, 0, 64, 127
1, 557274, Note_off_c, 0, 83, 64
1, 557277, Note_off_c, 0, 95, 66
1, 557284, Note_on_c, 0, 65, 66
1, 557421, Note_off_c, 0, 89, 61
1, 557441, Note_on_c, 0, 94, 101
1, 557444, Note_on_c, 0, 82, 96
1, 557447, Note_off_c, 0, 87, 59
1, 557453, Note_off_c, 0, 65, 60
1, 557459, Note_on_c, 0, 71, 79
1, 557465, Note_off_c, 0, 63, 38
1, 557500, Note_off_c, 0, 94, 64
1, 557570, Note_off_c, 0, 82, 50
1, 557611, Note_off_c, 0, 71, 60
1, 557614, Note_on_c, 0, 83, 57
1, 557620, Note_on_c, 0, 92, 96
1, 557620, Control_c, 0, 64, 91
1, 557626, Note_on_c, 0, 80, 87
1, 557632, Note_on_c, 0, 58, 84
1, 557632, Note_on_c, 0, 86, 77
1, 557635, Control_c, 0, 64, 57
1, 557650, Control_c, 0, 64, 0
1, 557709, Control_c, 0, 64, 54
1, 557724, Control_c, 0, 64, 75
1, 557738, Control_c, 0, 64, 92
1, 557753, Control_c, 0, 64, 115
1, 557768, Control_c, 0, 64, 127
1, 557793, Note_off_c, 0, 58, 61
1, 557794, Note_on_c, 0, 65, 73
1, 557824, Note_off_c, 0, 80, 62
1, 557828, Note_off_c, 0, 92, 65
1, 557941, Note_off_c, 0, 65, 60
1, 557949, Note_off_c, 0, 86, 0
1, 557954, Note_on_c, 0, 91, 100
1, 557961, Note_on_c, 0, 79, 82
1, 557967, Note_on_c, 0, 71, 77
1, 557987, Poly_aftertouch_c, 0, 86, 127
1, 557996, Note_off_c, 0, 83, 51
1, 558039, Note_off_c, 0, 79, 62
1, 558048, Note_off_c, 0, 91, 64
1, 558072, Note_on_c, 0, 83, 27
1, 558085, Note_off_c, 0, 71, 56
1, 558108, Poly_aftertouch_c, 0, 86, 0
1, 558129, Note_off_c, 0, 83, 0
1, 558129, Note_on_c, 0, 83, 22
1, 558136, Note_on_c, 0, 86, 48
1, 558141, Note_on_c, 0, 90, 94
1, 558142, Note_on_c, 0, 78, 87
1, 558144, Note_on_c, 0, 74, 79
1, 558147, Control_c, 0, 64, 83
1, 558162, Control_c, 0, 64, 65
1, 558176, Control_c, 0, 64, 60
1, 558191, Control_c, 0, 64, 64
1, 558206, Control_c, 0, 64, 74
1, 558220, Control_c, 0, 64, 99
1, 558235, Control_c, 0, 64, 127
1, 558325, Note_off_c, 0, 74, 60
1, 558349, Note_on_c, 0, 70, 68
1, 558393, Note_off_c, 0, 78, 57
1, 558407, Note_off_c, 0, 90, 63
1, 558548, Note_on_c, 0, 80, 71
1, 558554, Note_on_c, 0, 89, 83
1, 558559, Note_on_c, 0, 77, 74
1, 558568, Note_off_c, 0, 83, 55
1, 558570, Note_off_c, 0, 80, 71
1, 558570, Note_off_c, 0, 86, 55
1, 558589, Note_off_c, 0, 77, 62
1, 558595, Note_off_c, 0, 70, 63
1, 558637, Note_off_c, 0, 89, 64
1, 558798, Control_c, 0, 64, 72
1, 558803, Note_on_c, 0, 39, 96
1, 558804, Note_on_c, 0, 51, 95
1, 558813, Control_c, 0, 64, 0
1, 558865, Control_c, 0, 64, 50
1, 558872, Note_off_c, 0, 39, 65
1, 558880, Control_c, 0, 64, 70
1, 558893, Note_off_c, 0, 51, 63
1, 558895, Control_c, 0, 64, 88
1, 558910, Control_c, 0, 64, 127
1, 559009, Note_on_c, 0, 58, 65
1, 559051, Note_on_c, 0, 94, 107
1, 559058, Note_on_c, 0, 82, 92
1, 559073, Note_on_c, 0, 87, 71
1, 559074, Note_off_c, 0, 58, 64
1, 559081, Note_on_c, 0, 90, 60
1, 559096, Note_on_c, 0, 60, 57
1, 559164, Note_off_c, 0, 60, 63
1, 559185, Note_off_c, 0, 82, 58
1, 559192, Note_on_c, 0, 62, 62
1, 559203, Note_off_c, 0, 94, 63
1, 559212, Note_off_c, 0, 87, 61
1, 559215, Note_off_c, 0, 90, 63
1, 559248, Note_off_c, 0, 62, 62
1, 559274, Note_on_c, 0, 94, 103
1, 559277, Note_on_c, 0, 82, 99
1, 559280, Note_on_c, 0, 63, 71
1, 559291, Note_on_c, 0, 87, 76
1, 559296, Note_on_c, 0, 90, 68
1, 559329, Note_off_c, 0, 63, 66
1, 559355, Note_off_c, 0, 82, 57
1, 559361, Note_on_c, 0, 65, 72
1, 559373, Note_off_c, 0, 94, 63
1, 559383, Note_off_c, 0, 87, 62
1, 559385, Note_off_c, 0, 90, 63
1, 559414, Note_off_c, 0, 65, 60
1, 559442, Note_on_c, 0, 66, 76
1, 559450, Note_on_c, 0, 94, 106
1, 559452, Note_on_c, 0, 82, 100
1, 559460, Note_on_c, 0, 90, 81
1, 559462, Note_on_c, 0, 87, 85
1, 559516, Note_on_c, 0, 68, 67
1, 559540, Note_off_c, 0, 66, 61
1, 559598, Note_on_c, 0, 70, 67
1, 559611, Note_off_c, 0, 68, 54
1, 559656, Note_off_c, 0, 70, 64
1, 559679, Note_on_c, 0, 72, 65
1, 559685, Note_off_c, 0, 82, 57
1, 559687, Note_off_c, 0, 94, 60
1, 559739, Note_off_c, 0, 72, 62
1, 559760, Note_off_c, 0, 90, 63
1, 559766, Note_off_c, 0, 87, 62
1, 559769, Note_on_c, 0, 74, 76
1, 559785, Note_on_c, 0, 92, 103
1, 559790, Note_on_c, 0, 80, 95
1, 559823, Note_off_c, 0, 74, 61
1, 559837, Note_on_c, 0, 72, 71
1, 559853, Note_off_c, 0, 72, 68
1, 559895, Note_off_c, 0, 80, 60
1, 559918, Note_off_c, 0, 92, 66
1, 559939, Control_c, 0, 64, 83
1, 559954, Control_c, 0, 64, 40
1, 559963, Note_on_c, 0, 38, 77
1, 559964, Note_on_c, 0, 94, 109
1, 559965, Note_on_c, 0, 82, 101
1, 559969, Control_c, 0, 64, 0
1, 559972, Note_on_c, 0, 50, 81
1, 559972, Note_on_c, 0, 87, 84
1, 559973, Note_on_c, 0, 90, 82
1, 559987, Note_off_c, 0, 38, 67
1, 559992, Note_on_c, 0, 40, 52
1, 560014, Control_c, 0, 64, 37
1, 560023, Note_off_c, 0, 40, 55
1, 560028, Note_off_c, 0, 50, 64
1, 560029, Control_c, 0, 64, 64
1, 560043, Control_c, 0, 64, 78
1, 560058, Control_c, 0, 64, 99
1, 560073, Control_c, 0, 64, 117
1, 560076, Note_off_c, 0, 82, 62
1, 560080, Note_off_c, 0, 94, 61
1, 560088, Control_c, 0, 64, 127
1, 560132, Note_off_c, 0, 90, 57
1, 560133, Note_on_c, 0, 58, 71
1, 560151, Note_on_c, 0, 92, 102
1, 560157, Note_on_c, 0, 80, 89
1, 560172, Note_off_c, 0, 87, 58
1, 560181, Note_on_c, 0, 90, 4
1, 560202, Note_off_c, 0, 58, 60
1, 560224, Note_on_c, 0, 60, 44
1, 560230, Note_off_c, 0, 80, 61
1, 560239, Note_off_c, 0, 90, 31
1, 560252, Note_off_c, 0, 60, 61
1, 560269, Note_on_c, 0, 62, 65
1, 560287, Note_off_c, 0, 92, 64
1, 560319, Note_on_c, 0, 94, 91
1, 560321, Note_on_c, 0, 82, 82
1, 560321, Note_off_c, 0, 62, 61
1, 560327, Note_on_c, 0, 87, 78
1, 560340, Note_on_c, 0, 90, 81
1, 560356, Note_on_c, 0, 63, 73
1, 560361, Note_off_c, 0, 82, 62
1, 560380, Note_off_c, 0, 87, 65
1, 560382, Note_off_c, 0, 94, 64
1, 560386, Note_off_c, 0, 90, 63
1, 560415, Note_off_c, 0, 63, 63
1, 560455, Note_on_c, 0, 65, 64
1, 560485, Note_off_c, 0, 65, 65
1, 560523, Note_on_c, 0, 66, 78
1, 560604, Note_on_c, 0, 68, 61
1, 560621, Note_off_c, 0, 66, 55
1, 560662, Note_on_c, 0, 90, 95
1, 560666, Note_on_c, 0, 70, 70
1, 560666, Note_on_c, 0, 78, 92
1, 560679, Note_on_c, 0, 82, 73
1, 560685, Note_on_c, 0, 87, 66
1, 560714, Note_off_c, 0, 68, 37
1, 560738, Note_off_c, 0, 70, 61
1, 560742, Note_off_c, 0, 78, 59
1, 560748, Note_on_c, 0, 72, 70
1, 560763, Note_off_c, 0, 90, 62
1, 560776, Note_off_c, 0, 82, 62
1, 560780, Note_off_c, 0, 87, 63
1, 560805, Note_off_c, 0, 72, 61
1, 560839, Note_on_c, 0, 80, 98
1, 560839, Note_on_c, 0, 74, 77
1, 560839, Note_on_c, 0, 92, 103
1, 560883, Note_off_c, 0, 74, 64
1, 560897, Note_on_c, 0, 72, 63
1, 560914, Note_off_c, 0, 72, 67
1, 560949, Note_off_c, 0, 80, 61
1, 560953, Note_off_c, 0, 92, 66
1, 560999, Control_c, 0, 64, 77
1, 561013, Control_c, 0, 64, 49
1, 561018, Note_on_c, 0, 37, 88
1, 561020, Note_on_c, 0, 90, 38
1, 561021, Note_on_c, 0, 49, 85
1, 561021, Note_on_c, 0, 82, 100
1, 561021, Note_on_c, 0, 94, 103
1, 561024, Note_on_c, 0, 87, 91
1, 561028, Control_c, 0, 64, 0
1, 561040, Note_off_c, 0, 37, 67
1, 561045, Note_off_c, 0, 49, 71
1, 561058, Control_c, 0, 64, 39
1, 561073, Control_c, 0, 64, 62
1, 561095, Control_c, 0, 64, 82
1, 561110, Control_c, 0, 64, 127
1, 561143, Note_off_c, 0, 82, 59
1, 561170, Note_on_c, 0, 58, 74
1, 561171, Note_off_c, 0, 94, 62
1, 561173, Poly_aftertouch_c, 0, 37, 127
1, 561210, Poly_aftertouch_c, 0, 37, 0
1, 561239, Note_off_c, 0, 58, 62
1, 561259, Note_on_c, 0, 60, 61
1, 561302, Note_on_c, 0, 62, 68
1, 561304, Note_off_c, 0, 60, 64
1, 561343, Note_off_c, 0, 90, 63
1, 561354, Note_off_c, 0, 87, 62
1, 561367, Note_off_c, 0, 62, 63
1, 561372, Note_on_c, 0, 96, 101
1, 561377, Note_on_c, 0, 84, 96
1, 561383, Note_on_c, 0, 63, 80
1, 561397, Note_on_c, 0, 87, 30
1, 561421, Note_off_c, 0, 87, 47
1, 561442, Note_off_c, 0, 63, 65
1, 561453, Note_off_c, 0, 84, 51
1, 561457, Note_off_c, 0, 96, 66
1, 561551, Note_on_c, 0, 94, 103
1, 561555, Note_on_c, 0, 82, 95
1, 561558, Note_on_c, 0, 66, 77
1, 561561, Note_on_c, 0, 90, 85
1, 561563, Note_on_c, 0, 87, 85
1, 561590, Note_on_c, 0, 95, 45
1, 561616, Note_off_c, 0, 95, 59
1, 561633, Note_on_c, 0, 68, 71
1, 561651, Note_off_c, 0, 66, 55
1, 561668, Note_off_c, 0, 94, 61
1, 561677, Note_off_c, 0, 82, 55
1, 561713, Note_on_c, 0, 70, 72
1, 561742, Note_off_c, 0, 68, 53
1, 561743, Note_off_c, 0, 87, 61
1, 561745, Note_off_c, 0, 90, 62
1, 561786, Note_off_c, 0, 70, 61
1, 561790, Note_on_c, 0, 72, 73
1, 561862, Note_off_c, 0, 72, 63
1, 561889, Note_on_c, 0, 74, 84
1, 561895, Note_on_c, 0, 80, 98
1, 561895, Note_on_c, 0, 92, 102
1, 561937, Note_off_c, 0, 80, 63
1, 561948, Note_off_c, 0, 74, 65
1, 561956, Note_off_c, 0, 92, 65
1, 561963, Note_on_c, 0, 72, 77
1, 561980, Note_off_c, 0, 72, 66
1, 562076, Note_on_c, 0, 82, 76
1, 562079, Note_on_c, 0, 36, 89
1, 562079, Note_on_c, 0, 87, 86
1, 562079, Note_on_c, 0, 90, 94
1, 562082, Control_c, 0, 64, 96
1, 562083, Note_on_c, 0, 78, 91
1, 562097, Control_c, 0, 64, 61
1, 562112, Control_c, 0, 64, 0
1, 562139, Note_off_c, 0, 36, 60
1, 562156, Control_c, 0, 64, 45
1, 562170, Note_on_c, 0, 48, 80
1, 562171, Control_c, 0, 64, 66
1, 562185, Control_c, 0, 64, 75
1, 562192, Note_off_c, 0, 48, 66
1, 562193, Note_off_c, 0, 90, 63
1, 562200, Control_c, 0, 64, 85
1, 562203, Note_on_c, 0, 85, 10
1, 562208, Note_off_c, 0, 78, 59
1, 562215, Control_c, 0, 64, 87
1, 562216, Note_off_c, 0, 87, 62
1, 562250, Note_off_c, 0, 85, 42
1, 562255, Note_on_c, 0, 89, 85
1, 562259, Control_c, 0, 64, 87
1, 562261, Note_on_c, 0, 77, 88
1, 562263, Note_on_c, 0, 55, 81
1, 562289, Control_c, 0, 64, 88
1, 562304, Control_c, 0, 64, 89
1, 562319, Control_c, 0, 64, 91
1, 562333, Control_c, 0, 64, 94
1, 562342, Note_off_c, 0, 55, 59
1, 562348, Control_c, 0, 64, 97
1, 562350, Note_on_c, 0, 56, 81
1, 562352, Note_off_c, 0, 89, 61
1, 562363, Note_off_c, 0, 77, 59
1, 562363, Control_c, 0, 64, 99
1, 562377, Control_c, 0, 64, 101
1, 562380, Note_on_c, 0, 85, 34
1, 562392, Control_c, 0, 64, 103
1, 562407, Note_off_c, 0, 85, 46
1, 562407, Control_c, 0, 64, 107
1, 562422, Note_on_c, 0, 58, 81
1, 562422, Control_c, 0, 64, 111
1, 562426, Note_off_c, 0, 56, 61
1, 562430, Note_off_c, 0, 82, 56
1, 562433, Note_on_c, 0, 88, 101
1, 562434, Note_on_c, 0, 76, 97
1, 562437, Control_c, 0, 64, 118
1, 562452, Control_c, 0, 64, 127
1, 562485, Note_off_c, 0, 58, 63
1, 562508, Note_on_c, 0, 59, 73
1, 562536, Note_off_c, 0, 59, 69
1, 562573, Note_off_c, 0, 88, 63
1, 562602, Note_off_c, 0, 76, 61
1, 562604, Note_on_c, 0, 60, 76
1, 562610, Note_on_c, 0, 62, 70
1, 562672, Note_off_c, 0, 62, 56
1, 562682, Note_on_c, 0, 64, 88
1, 562688, Note_off_c, 0, 60, 66
1, 562747, Note_off_c, 0, 64, 65
1, 562768, Note_on_c, 0, 85, 97
1, 562770, Note_on_c, 0, 73, 97
1, 562773, Note_on_c, 0, 82, 85
1, 562779, Note_on_c, 0, 79, 78
1, 562783, Note_on_c, 0, 67, 89
1, 562840, Note_off_c, 0, 67, 62
1, 562868, Note_off_c, 0, 73, 61
1, 562876, Note_on_c, 0, 70, 89
1, 562878, Note_off_c, 0, 85, 61
1, 562926, Note_off_c, 0, 79, 57
1, 562934, Note_off_c, 0, 70, 63
1, 562945, Note_off_c, 0, 82, 61
1, 562976, Note_on_c, 0, 84, 96
1, 562977, Note_on_c, 0, 72, 93
1, 562979, Note_on_c, 0, 71, 91
1, 563003, Note_off_c, 0, 72, 62
1, 563031, Note_off_c, 0, 84, 66
1, 563033, Note_off_c, 0, 71, 64
1, 563065, Note_on_c, 0, 72, 94
1, 563087, Note_off_c, 0, 72, 64
1, 563212, Note_on_c, 0, 41, 104
1, 563212, Note_on_c, 0, 53, 106
1, 563231, Control_c, 0, 64, 100
1, 563246, Control_c, 0, 64, 63
1, 563261, Control_c, 0, 64, 0
1, 563303, Note_off_c, 0, 41, 66
1, 563320, Control_c, 0, 64, 62
1, 563342, Control_c, 0, 64, 77
1, 563345, Note_off_c, 0, 53, 65
1, 563357, Control_c, 0, 64, 101
1, 563372, Control_c, 0, 64, 127
1, 563431, Note_on_c, 0, 60, 76
1, 563445, Note_on_c, 0, 96, 104
1, 563448, Note_on_c, 0, 92, 104
1, 563449, Note_on_c, 0, 84, 102
1, 563450, Note_on_c, 0, 89, 94
1, 563532, Note_on_c, 0, 62, 60
1, 563554, Note_off_c, 0, 60, 35
1, 563603, Note_off_c, 0, 96, 62
1, 563612, Note_off_c, 0, 84, 53
1, 563613, Note_off_c, 0, 62, 63
1, 563622, Note_on_c, 0, 64, 64
1, 563643, Note_off_c, 0, 92, 64
1, 563647, Note_off_c, 0, 89, 57
1, 563681, Note_on_c, 0, 92, 95
1, 563682, Note_on_c, 0, 89, 89
1, 563685, Note_on_c, 0, 96, 106
1, 563686, Note_on_c, 0, 84, 108
1, 563690, Note_off_c, 0, 64, 66
1, 563694, Note_on_c, 0, 65, 77
1, 563754, Note_on_c, 0, 94, 25
1, 563773, Note_off_c, 0, 65, 63
1, 563784, Note_off_c, 0, 84, 55
1, 563785, Note_off_c, 0, 96, 62
1, 563789, Note_off_c, 0, 94, 29
1, 563802, Note_on_c, 0, 67, 77
1, 563810, Note_off_c, 0, 92, 64
1, 563820, Note_off_c, 0, 89, 60
1, 563845, Note_off_c, 0, 67, 47
1, 563862, Note_on_c, 0, 84, 112
1, 563862, Note_on_c, 0, 89, 93
1, 563863, Note_on_c, 0, 96, 111
1, 563864, Note_on_c, 0, 92, 99
1, 563881, Note_on_c, 0, 68, 81
1, 563963, Note_on_c, 0, 70, 72
1, 563972, Note_off_c, 0, 68, 57
1, 563988, Note_off_c, 0, 96, 64
1, 563993, Note_off_c, 0, 84, 53
1, 564054, Note_on_c, 0, 72, 72
1, 564091, Note_off_c, 0, 70, 56
1, 564124, Note_off_c, 0, 72, 63
1, 564130, Note_on_c, 0, 74, 81
1, 564168, Note_off_c, 0, 89, 50
1, 564199, Note_off_c, 0, 74, 63
1, 564205, Note_on_c, 0, 94, 102
1, 564205, Note_on_c, 0, 82, 107
1, 564223, Note_on_c, 0, 76, 82
1, 564236, Note_off_c, 0, 92, 66
1, 564270, Note_off_c, 0, 76, 65
1, 564290, Note_on_c, 0, 74, 57
1, 564312, Note_off_c, 0, 74, 62
1, 564330, Note_off_c, 0, 82, 60
1, 564350, Note_off_c, 0, 94, 62
1, 564387, Control_c, 0, 64, 95
1, 564393, Poly_aftertouch_c, 0, 72, 0
1, 564398, Note_on_c, 0, 96, 105
1, 564399, Note_on_c, 0, 92, 97
1, 564401, Note_on_c, 0, 40, 89
1, 564401, Note_on_c, 0, 84, 98
1, 564401, Note_on_c, 0, 89, 77
1, 564402, Control_c, 0, 64, 60
1, 564404, Note_on_c, 0, 52, 89
1, 564417, Control_c, 0, 64, 0
1, 564429, Note_off_c, 0, 40, 66
1, 564431, Note_on_c, 0, 41, 50
1, 564447, Control_c, 0, 64, 34
1, 564455, Note_off_c, 0, 41, 61
1, 564461, Control_c, 0, 64, 62
1, 564470, Note_off_c, 0, 52, 63
1, 564476, Control_c, 0, 64, 79
1, 564482, Note_off_c, 0, 96, 65
1, 564491, Control_c, 0, 64, 124
1, 564494, Note_off_c, 0, 84, 63
1, 564506, Control_c, 0, 64, 127
1, 564568, Note_off_c, 0, 92, 65
1, 564581, Note_on_c, 0, 60, 55
1, 564586, Note_on_c, 0, 59, 65
1, 564589, Note_on_c, 0, 94, 98
1, 564591, Note_on_c, 0, 82, 92
1, 564615, Note_off_c, 0, 89, 59
1, 564619, Note_off_c, 0, 59, 63
1, 564639, Note_off_c, 0, 60, 63
1, 564648, Note_on_c, 0, 62, 59
1, 564651, Note_off_c, 0, 82, 64
1, 564698, Note_off_c, 0, 62, 60
1, 564703, Note_on_c, 0, 64, 62
1, 564714, Note_off_c, 0, 94, 63
1, 564758, Note_off_c, 0, 64, 64
1, 564765, Note_on_c, 0, 65, 77
1, 564765, Note_on_c, 0, 96, 105
1, 564766, Note_on_c, 0, 84, 91
1, 564766, Note_on_c, 0, 92, 75
1, 564769, Note_on_c, 0, 89, 59
1, 564810, Note_off_c, 0, 84, 62
1, 564814, Note_off_c, 0, 89, 60
1, 564816, Note_off_c, 0, 65, 62
1, 564835, Note_off_c, 0, 92, 65
1, 564837, Note_off_c, 0, 96, 66
1, 564862, Note_on_c, 0, 67, 73
1, 564918, Note_off_c, 0, 67, 60
1, 564938, Note_on_c, 0, 68, 90
1, 565016, Note_on_c, 0, 70, 72
1, 565040, Note_off_c, 0, 68, 58
1, 565095, Note_on_c, 0, 72, 77
1, 565099, Note_on_c, 0, 92, 96
1, 565101, Note_on_c, 0, 80, 97
1, 565130, Note_on_c, 0, 84, 29
1, 565130, Note_on_c, 0, 89, 35
1, 565140, Note_off_c, 0, 70, 62
1, 565165, Note_off_c, 0, 89, 43
1, 565165, Note_off_c, 0, 80, 59
1, 565166, Note_off_c, 0, 84, 53
1, 565171, Note_off_c, 0, 72, 63
1, 565173, Note_on_c, 0, 74, 87
1, 565194, Note_off_c, 0, 92, 66
1, 565233, Note_off_c, 0, 74, 65
1, 565263, Note_on_c, 0, 94, 97
1, 565265, Note_on_c, 0, 82, 100
1, 565269, Note_on_c, 0, 76, 83
1, 565306, Note_off_c, 0, 76, 66
1, 565335, Note_on_c, 0, 74, 57
1, 565353, Note_off_c, 0, 82, 61
1, 565360, Note_off_c, 0, 74, 40
1, 565367, Note_off_c, 0, 94, 62
1, 565418, Control_c, 0, 64, 73
1, 565430, Note_on_c, 0, 89, 78
1, 565430, Note_on_c, 0, 96, 102
1, 565433, Note_on_c, 0, 92, 100
1, 565433, Control_c, 0, 64, 39
1, 565434, Note_on_c, 0, 84, 101
1, 565438, Note_on_c, 0, 39, 79
1, 565438, Note_on_c, 0, 51, 88
1, 565448, Control_c, 0, 64, 0
1, 565462, Note_off_c, 0, 39, 63
1, 565463, Note_off_c, 0, 51, 69
1, 565463, Control_c, 0, 64, 33
1, 565473, Note_on_c, 0, 42, 34
1, 565477, Control_c, 0, 64, 57
1, 565492, Control_c, 0, 64, 71
1, 565507, Control_c, 0, 64, 89
1, 565520, Note_off_c, 0, 42, 55
1, 565522, Control_c, 0, 64, 127
1, 565573, Note_off_c, 0, 84, 43
1, 565588, Note_on_c, 0, 60, 82
1, 565615, Note_off_c, 0, 96, 64
1, 565656, Note_on_c, 0, 62, 66
1, 565659, Note_off_c, 0, 60, 62
1, 565710, Note_on_c, 0, 64, 75
1, 565720, Note_off_c, 0, 62, 62
1, 565777, Note_off_c, 0, 64, 65
1, 565784, Note_on_c, 0, 65, 75
1, 565792, Note_on_c, 0, 98, 102
1, 565796, Note_on_c, 0, 86, 88
1, 565853, Note_off_c, 0, 65, 62
1, 565881, Note_on_c, 0, 67, 76
1, 565884, Note_off_c, 0, 86, 63
1, 565887, Note_off_c, 0, 98, 64
1, 565929, Note_off_c, 0, 67, 58
1, 565975, Note_on_c, 0, 96, 103
1, 565976, Note_on_c, 0, 84, 93
1, 565981, Note_on_c, 0, 68, 78
1, 566047, Note_on_c, 0, 70, 67
1, 566068, Note_off_c, 0, 96, 63
1, 566074, Note_off_c, 0, 84, 60
1, 566086, Note_off_c, 0, 68, 60
1, 566142, Note_on_c, 0, 72, 72
1, 566142, Note_off_c, 0, 89, 58
1, 566154, Note_off_c, 0, 70, 56
1, 566159, Note_off_c, 0, 92, 66
1, 566207, Note_off_c, 0, 72, 62
1, 566208, Note_on_c, 0, 74, 82
1, 566294, Note_off_c, 0, 74, 64
1, 566308, Note_on_c, 0, 82, 99
1, 566308, Note_on_c, 0, 94, 104
1, 566323, Note_on_c, 0, 76, 80
1, 566373, Note_on_c, 0, 95, 7
1, 566373, Note_off_c, 0, 95, 127
1, 566394, Note_off_c, 0, 76, 65
1, 566402, Note_off_c, 0, 94, 55
1, 566405, Note_on_c, 0, 74, 84
1, 566415, Note_off_c, 0, 82, 58
1, 566426, Note_off_c, 0, 74, 72
1, 566538, Note_on_c, 0, 93, 98
1, 566539, Note_on_c, 0, 38, 78
1, 566545, Note_on_c, 0, 81, 86
1, 566545, Note_on_c, 0, 84, 73
1, 566545, Note_on_c, 0, 90, 88
1, 566545, Control_c, 0, 64, 85
1, 566560, Note_on_c, 0, 40, 60
1, 566560, Control_c, 0, 64, 58
1, 566575, Control_c, 0, 64, 0
1, 566582, Note_on_c, 0, 85, 34
1, 566582, Note_off_c, 0, 85, 127
1, 566613, Note_off_c, 0, 40, 0
1, 566619, Control_c, 0, 64, 44
1, 566634, Control_c, 0, 64, 63
1, 566637, Note_off_c, 0, 38, 63
1, 566649, Control_c, 0, 64, 71
1, 566654, Note_on_c, 0, 50, 79
1, 566655, Note_off_c, 0, 93, 62
1, 566664, Control_c, 0, 64, 80
1, 566667, Note_off_c, 0, 81, 62
1, 566675, Poly_aftertouch_c, 0, 40, 0
1, 566678, Control_c, 0, 64, 85
1, 566687, Note_off_c, 0, 50, 66
1, 566693, Control_c, 0, 64, 86
1, 566708, Control_c, 0, 64, 87
1, 566712, Note_off_c, 0, 90, 66
1, 566723, Control_c, 0, 64, 88
1, 566738, Control_c, 0, 64, 89
1, 566753, Control_c, 0, 64, 92
1, 566758, Note_on_c, 0, 92, 94
1, 566766, Note_on_c, 0, 80, 91
1, 566768, Control_c, 0, 64, 96
1, 566773, Note_on_c, 0, 50, 66
1, 566783, Control_c, 0, 64, 102
1, 566798, Control_c, 0, 64, 114
1, 566811, Note_on_c, 0, 57, 70
1, 566813, Control_c, 0, 64, 127
1, 566824, Note_off_c, 0, 50, 58
1, 566851, Note_off_c, 0, 92, 67
1, 566864, Note_off_c, 0, 80, 62
1, 566882, Note_off_c, 0, 57, 64
1, 566897, Note_on_c, 0, 60, 71
1, 566926, Note_on_c, 0, 91, 92
1, 566932, Note_on_c, 0, 79, 86
1, 566978, Note_off_c, 0, 60, 61
1, 566981, Note_on_c, 0, 57, 75
1, 566986, Note_off_c, 0, 79, 61
1, 567031, Note_off_c, 0, 91, 65
1, 567056, Note_off_c, 0, 57, 63
1, 567093, Note_on_c, 0, 62, 76
1, 567114, Note_on_c, 0, 90, 93
1, 567117, Note_off_c, 0, 62, 70
1, 567121, Note_on_c, 0, 78, 86
1, 567137, Note_off_c, 0, 84, 63
1, 567156, Note_on_c, 0, 87, 25
1, 567158, Note_off_c, 0, 90, 69
1, 567193, Note_off_c, 0, 78, 59
1, 567201, Note_on_c, 0, 69, 83
1, 567201, Note_off_c, 0, 87, 39
1, 567296, Note_off_c, 0, 69, 59
1, 567308, Note_on_c, 0, 87, 80
1, 567313, Note_on_c, 0, 72, 80
1, 567320, Note_on_c, 0, 75, 84
1, 567325, Note_on_c, 0, 84, 76
1, 567378, Note_off_c, 0, 72, 60
1, 567419, Note_off_c, 0, 84, 51
1, 567423, Note_off_c, 0, 75, 62
1, 567424, Note_on_c, 0, 69, 81
1, 567429, Note_off_c, 0, 87, 59
1, 567476, Note_off_c, 0, 69, 64
1, 567534, Note_on_c, 0, 78, 85
1, 567534, Note_on_c, 0, 86, 85
1, 567535, Note_on_c, 0, 74, 81
1, 567540, Note_on_c, 0, 84, 69
1, 567560, Note_off_c, 0, 74, 64
1, 567570, Note_off_c, 0, 84, 63
1, 567588, Note_off_c, 0, 86, 68
1, 567594, Note_off_c, 0, 78, 59
1, 567651, Note_on_c, 0, 72, 91
1, 567680, Note_off_c, 0, 72, 64
1, 567815, Note_on_c, 0, 43, 95
1, 567833, Note_on_c, 0, 88, 89
1, 567836, Control_c, 0, 64, 80
1, 567842, Note_on_c, 0, 82, 80
1, 567843, Note_on_c, 0, 86, 78
1, 567850, Control_c, 0, 64, 55
1, 567865, Control_c, 0, 64, 0
1, 567939, Control_c, 0, 64, 52
1, 567954, Control_c, 0, 64, 66
1, 567964, Note_off_c, 0, 43, 64
1, 567969, Note_off_c, 0, 88, 63
1, 567969, Control_c, 0, 64, 70
1, 567984, Control_c, 0, 64, 74
1, 567989, Note_on_c, 0, 81, 78
1, 567998, Control_c, 0, 64, 76
1, 567999, Note_off_c, 0, 82, 58
1, 568008, Note_off_c, 0, 86, 44
1, 568013, Control_c, 0, 64, 78
1, 568028, Control_c, 0, 64, 80
1, 568043, Control_c, 0, 64, 82
1, 568056, Note_off_c, 0, 81, 54
1, 568058, Control_c, 0, 64, 83
1, 568073, Control_c, 0, 64, 85
1, 568083, Note_on_c, 0, 91, 71
1, 568086, Note_on_c, 0, 62, 90
1, 568087, Control_c, 0, 64, 86
1, 568098, Note_on_c, 0, 82, 66
1, 568102, Control_c, 0, 64, 88
1, 568113, Note_on_c, 0, 86, 55
1, 568117, Control_c, 0, 64, 89
1, 568131, Note_off_c, 0, 91, 58
1, 568131, Control_c, 0, 64, 90
1, 568134, Note_off_c, 0, 86, 61
1, 568140, Note_off_c, 0, 82, 58
1, 568146, Control_c, 0, 64, 91
1, 568161, Control_c, 0, 64, 92
1, 568176, Control_c, 0, 64, 93
1, 568182, Note_on_c, 0, 81, 77
1, 568191, Control_c, 0, 64, 93
1, 568235, Control_c, 0, 64, 94
1, 568250, Control_c, 0, 64, 94
1, 568265, Note_off_c, 0, 81, 60
1, 568265, Control_c, 0, 64, 96
1, 568268, Note_on_c, 0, 64, 97
1, 568271, Note_on_c, 0, 86, 63
1, 568271, Note_on_c, 0, 82, 66
1, 568280, Control_c, 0, 64, 101
1, 568281, Note_on_c, 0, 79, 51
1, 568295, Control_c, 0, 64, 110
1, 568302, Note_off_c, 0, 62, 63
1, 568304, Note_off_c, 0, 79, 59
1, 568309, Control_c, 0, 64, 127
1, 568342, Note_off_c, 0, 82, 62
1, 568360, Note_on_c, 0, 77, 72
1, 568360, Note_off_c, 0, 86, 64
1, 568369, Control_c, 0, 64, 112
1, 568384, Control_c, 0, 64, 94
1, 568388, Note_off_c, 0, 77, 65
1, 568399, Control_c, 0, 64, 81
1, 568414, Control_c, 0, 64, 77
1, 568444, Control_c, 0, 64, 79
1, 568450, Note_on_c, 0, 65, 97
1, 568459, Control_c, 0, 64, 83
1, 568461, Note_off_c, 0, 64, 64
1, 568462, Note_on_c, 0, 82, 74
1, 568473, Note_on_c, 0, 74, 65
1, 568473, Control_c, 0, 64, 90
1, 568488, Control_c, 0, 64, 98
1, 568492, Note_off_c, 0, 74, 60
1, 568503, Control_c, 0, 64, 104
1, 568503, Note_on_c, 0, 79, 51
1, 568518, Control_c, 0, 64, 110
1, 568533, Control_c, 0, 64, 122
1, 568536, Note_off_c, 0, 82, 63
1, 568545, Note_on_c, 0, 76, 70
1, 568545, Note_off_c, 0, 79, 61
1, 568547, Control_c, 0, 64, 127
1, 568578, Note_off_c, 0, 76, 69
1, 568662, Note_on_c, 0, 74, 68
1, 568672, Note_on_c, 0, 70, 73
1, 568673, Note_on_c, 0, 77, 59
1, 568692, Note_off_c, 0, 74, 55
1, 568702, Note_off_c, 0, 77, 60
1, 568742, Note_off_c, 0, 70, 60
1, 568755, Note_on_c, 0, 69, 72
1, 568819, Note_on_c, 0, 67, 94
1, 568821, Note_off_c, 0, 65, 63
1, 568823, Note_on_c, 0, 74, 73
1, 568831, Note_off_c, 0, 69, 59
1, 568860, Note_on_c, 0, 70, 58
1, 568888, Note_off_c, 0, 67, 59
1, 568891, Note_off_c, 0, 70, 63
1, 568901, Note_off_c, 0, 74, 62
1, 568921, Note_on_c, 0, 76, 66
1, 568950, Note_off_c, 0, 76, 52
1, 568969, Control_c, 0, 64, 88
1, 568984, Control_c, 0, 64, 74
1, 568986, Note_on_c, 0, 64, 95
1, 568997, Note_on_c, 0, 70, 72
1, 568999, Control_c, 0, 64, 72
1, 569001, Note_on_c, 0, 67, 73
1, 569014, Control_c, 0, 64, 72
1, 569028, Control_c, 0, 64, 77
1, 569043, Note_off_c, 0, 67, 48
1, 569043, Control_c, 0, 64, 89
1, 569049, Note_off_c, 0, 70, 63
1, 569058, Control_c, 0, 64, 103
1, 569073, Control_c, 0, 64, 117
1, 569087, Control_c, 0, 64, 127
1, 569091, Note_on_c, 0, 62, 63
1, 569124, Note_off_c, 0, 62, 64
1, 569151, Note_on_c, 0, 70, 76
1, 569171, Note_off_c, 0, 70, 72
1, 569245, Note_on_c, 0, 74, 84
1, 569319, Note_off_c, 0, 74, 61
1, 569338, Note_on_c, 0, 65, 91
1, 569341, Note_off_c, 0, 64, 66
1, 569347, Note_on_c, 0, 79, 64
1, 569362, Note_on_c, 0, 70, 79
1, 569398, Note_off_c, 0, 79, 61
1, 569422, Control_c, 0, 64, 90
1, 569428, Note_off_c, 0, 70, 60
1, 569437, Control_c, 0, 64, 65
1, 569448, Note_on_c, 0, 74, 61
1, 569451, Control_c, 0, 64, 48
1, 569466, Control_c, 0, 64, 48
1, 569481, Control_c, 0, 64, 54
1, 569495, Note_on_c, 0, 62, 94
1, 569496, Control_c, 0, 64, 63
1, 569499, Note_on_c, 0, 81, 70
1, 569511, Control_c, 0, 64, 71
1, 569518, Note_off_c, 0, 65, 58
1, 569526, Control_c, 0, 64, 83
1, 569534, Note_off_c, 0, 74, 62
1, 569541, Control_c, 0, 64, 93
1, 569547, Note_on_c, 0, 77, 66
1, 569555, Control_c, 0, 64, 98
1, 569569, Note_off_c, 0, 81, 60
1, 569570, Control_c, 0, 64, 101
1, 569585, Control_c, 0, 64, 105
1, 569600, Control_c, 0, 64, 109
1, 569615, Control_c, 0, 64, 117
1, 569630, Control_c, 0, 64, 127
1, 569633, Note_off_c, 0, 77, 64
1, 569639, Note_on_c, 0, 79, 65
1, 569652, Note_on_c, 0, 60, 93
1, 569660, Note_off_c, 0, 79, 69
1, 569676, Note_off_c, 0, 62, 64
1, 569739, Note_on_c, 0, 82, 72
1, 569812, Note_off_c, 0, 82, 63
1, 569821, Note_on_c, 0, 88, 74
1, 569833, Note_on_c, 0, 62, 91
1, 569836, Note_off_c, 0, 60, 64
1, 569868, Note_off_c, 0, 62, 67
1, 569902, Note_on_c, 0, 82, 73
1, 569931, Note_off_c, 0, 82, 62
1, 569936, Note_off_c, 0, 88, 63
1, 569986, Control_c, 0, 64, 79
1, 569997, Note_on_c, 0, 41, 93
1, 570000, Control_c, 0, 64, 58
1, 570015, Control_c, 0, 64, 38
1, 570017, Note_on_c, 0, 88, 78
1, 570023, Note_on_c, 0, 86, 71
1, 570030, Control_c, 0, 64, 39
1, 570032, Note_on_c, 0, 82, 62
1, 570045, Control_c, 0, 64, 49
1, 570060, Control_c, 0, 64, 65
1, 570065, Note_off_c, 0, 41, 66
1, 570082, Control_c, 0, 64, 74
1, 570097, Control_c, 0, 64, 84
1, 570099, Note_on_c, 0, 81, 78
1, 570105, Note_off_c, 0, 82, 61
1, 570112, Control_c, 0, 64, 86
1, 570115, Note_off_c, 0, 88, 59
1, 570122, Note_off_c, 0, 86, 58
1, 570141, Control_c, 0, 64, 86
1, 570169, Note_off_c, 0, 81, 59
1, 570186, Control_c, 0, 64, 87
1, 570187, Note_on_c, 0, 62, 90
1, 570197, Note_on_c, 0, 91, 76
1, 570200, Control_c, 0, 64, 90
1, 570208, Note_on_c, 0, 86, 61
1, 570208, Note_on_c, 0, 82, 72
1, 570215, Control_c, 0, 64, 94
1, 570230, Control_c, 0, 64, 99
1, 570243, Note_off_c, 0, 86, 63
1, 570256, Note_off_c, 0, 91, 64
1, 570262, Note_off_c, 0, 82, 63
1, 570289, Note_on_c, 0, 81, 76
1, 570304, Control_c, 0, 64, 96
1, 570319, Control_c, 0, 64, 92
1, 570334, Control_c, 0, 64, 89
1, 570376, Note_on_c, 0, 64, 101
1, 570378, Note_on_c, 0, 82, 72
1, 570381, Note_on_c, 0, 86, 71
1, 570384, Note_off_c, 0, 81, 62
1, 570390, Note_on_c, 0, 79, 55
1, 570405, Note_off_c, 0, 62, 61
1, 570408, Control_c, 0, 64, 90
1, 570414, Note_off_c, 0, 79, 59
1, 570423, Control_c, 0, 64, 93
1, 570438, Control_c, 0, 64, 98
1, 570465, Note_off_c, 0, 86, 62
1, 570467, Note_off_c, 0, 82, 62
1, 570481, Note_on_c, 0, 77, 63
1, 570482, Control_c, 0, 64, 91
1, 570497, Control_c, 0, 64, 75
1, 570507, Note_off_c, 0, 77, 65
1, 570512, Control_c, 0, 64, 60
1, 570526, Control_c, 0, 64, 48
1, 570541, Control_c, 0, 64, 48
1, 570556, Control_c, 0, 64, 57
1, 570570, Note_on_c, 0, 65, 90
1, 570571, Control_c, 0, 64, 67
1, 570573, Note_on_c, 0, 82, 74
1, 570583, Note_on_c, 0, 74, 72
1, 570586, Control_c, 0, 64, 77
1, 570596, Note_off_c, 0, 64, 64
1, 570600, Control_c, 0, 64, 86
1, 570605, Note_on_c, 0, 79, 55
1, 570615, Note_off_c, 0, 74, 57
1, 570615, Control_c, 0, 64, 90
1, 570630, Control_c, 0, 64, 93
1, 570644, Note_off_c, 0, 82, 62
1, 570644, Control_c, 0, 64, 95
1, 570659, Control_c, 0, 64, 97
1, 570664, Note_on_c, 0, 76, 76
1, 570674, Note_off_c, 0, 79, 61
1, 570674, Control_c, 0, 64, 99
1, 570689, Note_off_c, 0, 76, 67
1, 570751, Note_on_c, 0, 74, 86
1, 570764, Control_c, 0, 64, 101
1, 570768, Note_on_c, 0, 77, 67
1, 570808, Note_off_c, 0, 77, 57
1, 570810, Note_off_c, 0, 74, 63
1, 570840, Poly_aftertouch_c, 0, 79, 127
1, 570846, Control_c, 0, 64, 104
1, 570859, Note_on_c, 0, 69, 74
1, 570861, Control_c, 0, 64, 110
1, 570874, Poly_aftertouch_c, 0, 79, 0
1, 570876, Control_c, 0, 64, 127
1, 570920, Note_off_c, 0, 69, 56
1, 570928, Note_on_c, 0, 67, 89
1, 570931, Note_off_c, 0, 65, 64
1, 570935, Control_c, 0, 64, 103
1, 570937, Note_on_c, 0, 74, 73
1, 570949, Control_c, 0, 64, 81
1, 570957, Note_on_c, 0, 70, 69
1, 570964, Control_c, 0, 64, 68
1, 570979, Control_c, 0, 64, 64
1, 570989, Note_off_c, 0, 67, 63
1, 570994, Control_c, 0, 64, 66
1, 571004, Note_off_c, 0, 74, 62
1, 571009, Note_off_c, 0, 70, 59
1, 571009, Control_c, 0, 64, 70
1, 571020, Note_on_c, 0, 76, 74
1, 571024, Control_c, 0, 64, 77
1, 571039, Control_c, 0, 64, 85
1, 571054, Control_c, 0, 64, 90
1, 571069, Control_c, 0, 64, 93
1, 571072, Note_off_c, 0, 76, 60
1, 571076, Note_on_c, 0, 64, 89
1, 571083, Control_c, 0, 64, 94
1, 571098, Control_c, 0, 64, 95
1, 571108, Note_on_c, 0, 70, 76
1, 571110, Note_on_c, 0, 67, 69
1, 571128, Control_c, 0, 64, 98
1, 571143, Control_c, 0, 64, 100
1, 571154, Note_off_c, 0, 67, 50
1, 571156, Note_off_c, 0, 70, 61
1, 571157, Control_c, 0, 64, 103
1, 571172, Control_c, 0, 64, 106
1, 571187, Control_c, 0, 64, 109
1, 571198, Note_on_c, 0, 62, 64
1, 571202, Control_c, 0, 64, 112
1, 571217, Control_c, 0, 64, 116
1, 571225, Note_off_c, 0, 62, 65
1, 571231, Control_c, 0, 64, 119
1, 571246, Control_c, 0, 64, 122
1, 571247, Note_on_c, 0, 70, 70
1, 571261, Control_c, 0, 64, 127
1, 571274, Note_off_c, 0, 70, 67
1, 571341, Note_on_c, 0, 74, 83
1, 571401, Note_off_c, 0, 74, 61
1, 571413, Note_on_c, 0, 65, 85
1, 571421, Note_on_c, 0, 79, 65
1, 571432, Note_off_c, 0, 64, 60
1, 571446, Note_on_c, 0, 70, 71
1, 571468, Control_c, 0, 64, 88
1, 571475, Note_off_c, 0, 79, 62
1, 571483, Control_c, 0, 64, 68
1, 571498, Control_c, 0, 64, 53
1, 571499, Note_off_c, 0, 70, 59
1, 571513, Control_c, 0, 64, 47
1, 571515, Note_on_c, 0, 74, 70
1, 571528, Control_c, 0, 64, 48
1, 571544, Control_c, 0, 64, 55
1, 571559, Control_c, 0, 64, 61
1, 571580, Control_c, 0, 64, 65
1, 571591, Note_on_c, 0, 62, 85
1, 571595, Control_c, 0, 64, 70
1, 571600, Note_on_c, 0, 81, 69
1, 571610, Control_c, 0, 64, 82
1, 571612, Note_off_c, 0, 74, 59
1, 571615, Note_on_c, 0, 70, 64
1, 571615, Note_off_c, 0, 65, 55
1, 571625, Control_c, 0, 64, 93
1, 571640, Control_c, 0, 64, 99
1, 571641, Note_off_c, 0, 70, 69
1, 571675, Note_off_c, 0, 81, 61
1, 571684, Control_c, 0, 64, 91
1, 571686, Note_on_c, 0, 77, 72
1, 571699, Control_c, 0, 64, 78
1, 571714, Control_c, 0, 64, 68
1, 571729, Control_c, 0, 64, 65
1, 571743, Control_c, 0, 64, 65
1, 571758, Control_c, 0, 64, 69
1, 571759, Note_off_c, 0, 77, 63
1, 571765, Note_on_c, 0, 79, 65
1, 571773, Control_c, 0, 64, 76
1, 571774, Note_on_c, 0, 60, 85
1, 571788, Control_c, 0, 64, 83
1, 571788, Note_off_c, 0, 79, 67
1, 571798, Note_off_c, 0, 62, 62
1, 571803, Control_c, 0, 64, 87
1, 571818, Control_c, 0, 64, 89
1, 571833, Control_c, 0, 64, 90
1, 571847, Control_c, 0, 64, 91
1, 571862, Control_c, 0, 64, 92
1, 571864, Note_on_c, 0, 82, 75
1, 571877, Control_c, 0, 64, 92
1, 571892, Control_c, 0, 64, 93
1, 571906, Control_c, 0, 64, 93
1, 571921, Control_c, 0, 64, 94
1, 571930, Note_off_c, 0, 82, 62
1, 571936, Control_c, 0, 64, 94
1, 571939, Note_on_c, 0, 79, 61
1, 571947, Note_on_c, 0, 62, 85
1, 571949, Note_on_c, 0, 88, 69
1, 571951, Control_c, 0, 64, 96
1, 571952, Note_off_c, 0, 60, 60
1, 571966, Control_c, 0, 64, 99
1, 571972, Note_off_c, 0, 62, 68
1, 571980, Control_c, 0, 64, 104
1, 571994, Note_off_c, 0, 79, 59
1, 571995, Control_c, 0, 64, 113
1, 572010, Control_c, 0, 64, 127
1, 572028, Note_on_c, 0, 82, 74
1, 572030, Note_off_c, 0, 88, 64
1, 572069, Control_c, 0, 64, 101
1, 572071, Note_off_c, 0, 82, 56
1, 572084, Control_c, 0, 64, 69
1, 572098, Control_c, 0, 64, 0
1, 572113, Note_on_c, 0, 40, 79
1, 572158, Control_c, 0, 64, 44
1, 572167, Note_off_c, 0, 40, 62
1, 572173, Control_c, 0, 64, 65
1, 572188, Control_c, 0, 64, 71
1, 572190, Note_on_c, 0, 52, 75
1, 572203, Control_c, 0, 64, 77
1, 572212, Note_off_c, 0, 52, 66
1, 572217, Control_c, 0, 64, 79
1, 572232, Control_c, 0, 64, 81
1, 572247, Control_c, 0, 64, 84
1, 572262, Control_c, 0, 64, 86
1, 572266, Note_on_c, 0, 86, 76
1, 572269, Note_on_c, 0, 74, 72
1, 572274, Note_on_c, 0, 80, 68
1, 572277, Control_c, 0, 64, 89
1, 572290, Note_on_c, 0, 52, 64
1, 572291, Control_c, 0, 64, 93
1, 572306, Control_c, 0, 64, 97
1, 572311, Note_off_c, 0, 74, 59
1, 572328, Control_c, 0, 64, 99
1, 572343, Note_off_c, 0, 86, 64
1, 572359, Control_c, 0, 64, 101
1, 572363, Note_off_c, 0, 52, 60
1, 572363, Note_off_c, 0, 80, 61
1, 572366, Note_on_c, 0, 59, 65
1, 572389, Control_c, 0, 64, 103
1, 572418, Control_c, 0, 64, 106
1, 572425, Note_off_c, 0, 59, 61
1, 572433, Control_c, 0, 64, 109
1, 572438, Note_on_c, 0, 88, 96
1, 572441, Note_on_c, 0, 76, 89
1, 572447, Note_on_c, 0, 62, 66
1, 572448, Control_c, 0, 64, 114
1, 572453, Note_on_c, 0, 80, 81
1, 572463, Control_c, 0, 64, 127
1, 572487, Note_off_c, 0, 76, 60
1, 572494, Note_off_c, 0, 62, 57
1, 572519, Note_on_c, 0, 59, 72
1, 572525, Note_off_c, 0, 80, 64
1, 572527, Note_off_c, 0, 88, 64
1, 572581, Note_off_c, 0, 59, 64
1, 572612, Note_on_c, 0, 64, 75
1, 572614, Note_on_c, 0, 90, 99
1, 572622, Note_on_c, 0, 78, 87
1, 572635, Note_off_c, 0, 64, 68
1, 572682, Note_on_c, 0, 62, 73
1, 572752, Note_off_c, 0, 78, 56
1, 572766, Note_off_c, 0, 62, 62
1, 572784, Note_on_c, 0, 71, 75
1, 572831, Note_off_c, 0, 71, 57
1, 572842, Note_off_c, 0, 90, 60
1, 572864, Note_on_c, 0, 64, 58
1, 572896, Note_off_c, 0, 64, 65
1, 572931, Note_on_c, 0, 92, 99
1, 572936, Note_on_c, 0, 74, 88
1, 572936, Note_on_c, 0, 80, 92
1, 572975, Note_off_c, 0, 80, 65
1, 572982, Note_off_c, 0, 92, 66
1, 572987, Note_off_c, 0, 74, 64
1, 573017, Note_on_c, 0, 71, 55
1, 573040, Note_off_c, 0, 71, 60
1, 573092, Control_c, 0, 64, 89
1, 573107, Control_c, 0, 64, 58
1, 573112, Note_on_c, 0, 40, 88
1, 573121, Control_c, 0, 64, 0
1, 573127, Poly_aftertouch_c, 0, 69, 0
1, 573152, Control_c, 0, 64, 39
1, 573167, Control_c, 0, 64, 62
1, 573172, Note_off_c, 0, 40, 61
1, 573182, Control_c, 0, 64, 77
1, 573197, Control_c, 0, 64, 97
1, 573210, Note_on_c, 0, 52, 63
1, 573212, Control_c, 0, 64, 127
1, 573231, Note_off_c, 0, 52, 62
1, 573267, Note_on_c, 0, 88, 96
1, 573270, Note_on_c, 0, 76, 91
1, 573275, Note_on_c, 0, 85, 85
1, 573279, Note_on_c, 0, 81, 77
1, 573288, Note_on_c, 0, 52, 79
1, 573340, Note_off_c, 0, 76, 58
1, 573356, Note_off_c, 0, 88, 62
1, 573375, Note_on_c, 0, 61, 65
1, 573396, Note_off_c, 0, 81, 59
1, 573403, Note_off_c, 0, 85, 63
1, 573407, Note_off_c, 0, 61, 67
1, 573432, Note_on_c, 0, 64, 76
1, 573434, Note_on_c, 0, 77, 98
1, 573435, Note_on_c, 0, 89, 96
1, 573475, Note_off_c, 0, 77, 68
1, 573502, Note_off_c, 0, 52, 59
1, 573503, Note_off_c, 0, 89, 56
1, 573504, Note_off_c, 0, 64, 63
1, 573521, Note_on_c, 0, 61, 78
1, 573562, Note_on_c, 0, 88, 37
1, 573572, Note_off_c, 0, 61, 61
1, 573595, Note_off_c, 0, 88, 0
1, 573595, Note_on_c, 0, 88, 38
1, 573600, Note_on_c, 0, 80, 101
1, 573601, Note_on_c, 0, 92, 104
1, 573602, Note_on_c, 0, 85, 79
1, 573627, Note_on_c, 0, 67, 60
1, 573629, Note_on_c, 0, 69, 72
1, 573648, Note_off_c, 0, 69, 67
1, 573654, Note_off_c, 0, 67, 66
1, 573705, Note_on_c, 0, 64, 62
1, 573712, Note_off_c, 0, 80, 57
1, 573735, Note_on_c, 0, 62, 28
1, 573752, Note_off_c, 0, 92, 62
1, 573772, Note_off_c, 0, 62, 51
1, 573776, Note_on_c, 0, 73, 77
1, 573781, Note_off_c, 0, 64, 62
1, 573830, Note_off_c, 0, 73, 63
1, 573860, Note_on_c, 0, 69, 72
1, 573875, Note_off_c, 0, 88, 61
1, 573884, Note_off_c, 0, 69, 67
1, 573917, Note_on_c, 0, 93, 104
1, 573920, Note_on_c, 0, 81, 98
1, 573931, Note_on_c, 0, 76, 82
1, 573945, Note_off_c, 0, 85, 67
1, 573967, Note_off_c, 0, 93, 65
1, 573971, Note_off_c, 0, 81, 59
1, 573985, Note_off_c, 0, 76, 66
1, 573988, Note_on_c, 0, 73, 84
1, 574006, Note_off_c, 0, 73, 72
1, 574078, Control_c, 0, 64, 122
1, 574092, Control_c, 0, 64, 67
1, 574093, Note_on_c, 0, 40, 95
1, 574107, Control_c, 0, 64, 0
1, 574152, Control_c, 0, 64, 43
1, 574162, Note_off_c, 0, 40, 60
1, 574167, Control_c, 0, 64, 68
1, 574180, Note_on_c, 0, 52, 85
1, 574182, Control_c, 0, 64, 85
1, 574197, Control_c, 0, 64, 127
1, 574199, Note_off_c, 0, 52, 68
1, 574262, Note_on_c, 0, 77, 98
1, 574262, Note_on_c, 0, 89, 93
1, 574263, Note_on_c, 0, 82, 86
1, 574264, Note_on_c, 0, 86, 90
1, 574265, Note_on_c, 0, 52, 77
1, 574350, Note_off_c, 0, 77, 59
1, 574356, Note_off_c, 0, 89, 61
1, 574362, Note_on_c, 0, 58, 70
1, 574399, Note_off_c, 0, 86, 62
1, 574399, Note_off_c, 0, 58, 63
1, 574399, Note_off_c, 0, 82, 62
1, 574429, Note_on_c, 0, 91, 98
1, 574432, Note_on_c, 0, 79, 99
1, 574438, Note_on_c, 0, 62, 73
1, 574465, Note_off_c, 0, 62, 67
1, 574467, Note_off_c, 0, 52, 62
1, 574535, Note_off_c, 0, 79, 60
1, 574543, Note_off_c, 0, 91, 62
1, 574613, Note_on_c, 0, 93, 105
1, 574614, Note_on_c, 0, 70, 82
1, 574614, Note_on_c, 0, 81, 103
1, 574614, Note_on_c, 0, 89, 79
1, 574620, Note_on_c, 0, 86, 94
1, 574641, Note_off_c, 0, 70, 62
1, 574692, Note_on_c, 0, 65, 76
1, 574711, Note_off_c, 0, 81, 57
1, 574759, Note_off_c, 0, 93, 62
1, 574775, Note_on_c, 0, 74, 85
1, 574775, Note_off_c, 0, 65, 63
1, 574858, Note_off_c, 0, 74, 60
1, 574864, Note_on_c, 0, 70, 88
1, 574921, Note_off_c, 0, 70, 65
1, 574939, Note_on_c, 0, 82, 105
1, 574940, Note_on_c, 0, 94, 100
1, 574954, Note_on_c, 0, 77, 101
1, 574976, Note_off_c, 0, 86, 57
1, 575011, Note_off_c, 0, 77, 61
1, 575037, Note_on_c, 0, 74, 93
1, 575053, Note_off_c, 0, 74, 74
1, 575077, Note_on_c, 0, 86, 34
1, 575137, Note_off_c, 0, 94, 58
1, 575160, Note_off_c, 0, 82, 53
1, 575172, Note_on_c, 0, 28, 102
1, 575179, Note_off_c, 0, 86, 60
1, 575183, Note_off_c, 0, 89, 40
1, 575196, Control_c, 0, 64, 96
1, 575211, Control_c, 0, 64, 64
1, 575226, Control_c, 0, 64, 0
1, 575322, Control_c, 0, 64, 33
1, 575332, Note_on_c, 0, 41, 82
1, 575332, Note_off_c, 0, 28, 62
1, 575337, Control_c, 0, 64, 60
1, 575338, Note_on_c, 0, 40, 74
1, 575352, Control_c, 0, 64, 76
1, 575366, Note_off_c, 0, 40, 62
1, 575367, Control_c, 0, 64, 93
1, 575374, Note_off_c, 0, 41, 64
1, 575382, Control_c, 0, 64, 127
1, 575421, Note_on_c, 0, 92, 105
1, 575424, Note_on_c, 0, 80, 105
1, 575425, Note_on_c, 0, 86, 102
1, 575429, Note_on_c, 0, 88, 93
1, 575496, Note_on_c, 0, 52, 67
1, 575571, Note_on_c, 0, 59, 73
1, 575576, Note_off_c, 0, 52, 62
1, 575586, Note_off_c, 0, 92, 59
1, 575589, Note_off_c, 0, 80, 58
1, 575634, Note_off_c, 0, 88, 57
1, 575648, Note_off_c, 0, 86, 0
1, 575651, Note_off_c, 0, 59, 64
1, 575666, Note_on_c, 0, 88, 73
1, 575666, Note_on_c, 0, 93, 103
1, 575669, Note_on_c, 0, 81, 106
1, 575673, Note_on_c, 0, 62, 82
1, 575685, Poly_aftertouch_c, 0, 86, 127
1, 575714, Note_on_c, 0, 90, 36
1, 575722, Note_off_c, 0, 62, 65
1, 575741, Note_off_c, 0, 81, 64
1, 575741, Note_off_c, 0, 93, 65
1, 575744, Note_on_c, 0, 64, 79
1, 575749, Note_off_c, 0, 90, 54
1, 575767, Note_off_c, 0, 64, 72
1, 575809, Poly_aftertouch_c, 0, 86, 0
1, 575809, Note_off_c, 0, 88, 60
1, 575833, Note_on_c, 0, 71, 79
1, 575836, Note_on_c, 0, 86, 79
1, 575837, Note_on_c, 0, 88, 72
1, 575840, Note_on_c, 0, 82, 102
1, 575843, Note_on_c, 0, 94, 109
1, 575927, Note_off_c, 0, 71, 62
1, 575928, Note_off_c, 0, 82, 59
1, 575932, Note_on_c, 0, 64, 70
1, 575934, Note_on_c, 0, 62, 71
1, 575940, Note_off_c, 0, 94, 66
1, 575973, Note_off_c, 0, 62, 58
1, 575997, Note_off_c, 0, 64, 65
1, 576002, Note_off_c, 0, 88, 64
1, 576005, Note_off_c, 0, 86, 62
1, 576035, Note_on_c, 0, 74, 91
1, 576039, Note_on_c, 0, 95, 108
1, 576039, Note_on_c, 0, 83, 106
1, 576091, Note_off_c, 0, 74, 69
1, 576110, Note_off_c, 0, 83, 56
1, 576149, Note_off_c, 0, 95, 65
1, 576155, Note_on_c, 0, 76, 93
1, 576271, Note_off_c, 0, 76, 58
1, 576274, Note_on_c, 0, 100, 104
1, 576278, Note_on_c, 0, 88, 105
1, 576280, Note_on_c, 0, 80, 93
1, 576280, Note_on_c, 0, 92, 110
1, 576282, Note_on_c, 0, 86, 97
1, 576293, Note_on_c, 0, 101, 67
1, 576293, Note_off_c, 0, 101, 127
1, 576297, Note_off_c, 0, 86, 72
1, 576308, Note_off_c, 0, 88, 62
1, 576331, Note_on_c, 0, 93, 17
1, 576346, Note_off_c, 0, 92, 67
1, 576367, Note_off_c, 0, 100, 66
1, 576373, Note_off_c, 0, 93, 48
1, 576376, Note_off_c, 0, 80, 62
1, 576403, Note_on_c, 0, 76, 92
1, 576433, Note_off_c, 0, 76, 71
1, 576622, Control_c, 0, 64, 113
1, 576630, Note_on_c, 0, 94, 109
1, 576631, Note_on_c, 0, 103, 112
1, 576632, Note_on_c, 0, 91, 107
1, 576633, Note_on_c, 0, 25, 100
1, 576633, Note_on_c, 0, 100, 109
1, 576636, Note_on_c, 0, 37, 107
1, 576636, Control_c, 0, 64, 64
1, 576651, Control_c, 0, 64, 0
1, 576653, Note_on_c, 0, 99, 47
1, 576653, Note_off_c, 0, 99, 127
1, 576656, Note_on_c, 0, 24, 69
1, 576690, Note_off_c, 0, 25, 64
1, 576691, Note_off_c, 0, 37, 64
1, 576692, Note_off_c, 0, 24, 56
1, 576713, Note_off_c, 0, 103, 69
1, 576725, Control_c, 0, 64, 65
1, 576728, Note_off_c, 0, 91, 62
1, 576729, Note_off_c, 0, 100, 69
1, 576739, Note_off_c, 0, 94, 69
1, 576740, Control_c, 0, 64, 111
1, 576755, Control_c, 0, 64, 127
1, 576992, Note_on_c, 0, 58, 72
1, 577072, Note_off_c, 0, 58, 60
1, 577106, Note_on_c, 0, 55, 58
1, 577162, Note_off_c, 0, 55, 52
1, 577187, Note_on_c, 0, 58, 66
1, 577232, Note_off_c, 0, 58, 56
1, 577271, Note_on_c, 0, 55, 68
1, 577318, Note_off_c, 0, 55, 55
1, 577345, Note_on_c, 0, 58, 71
1, 577406, Note_off_c, 0, 58, 59
1, 577423, Note_on_c, 0, 55, 75
1, 577487, Note_off_c, 0, 55, 58
1, 577517, Note_on_c, 0, 58, 69
1, 577519, Note_on_c, 0, 52, 93
1, 577595, Note_off_c, 0, 58, 61
1, 577608, Note_on_c, 0, 55, 65
1, 577682, Note_off_c, 0, 55, 58
1, 577697, Note_on_c, 0, 54, 92
1, 577705, Note_on_c, 0, 58, 71
1, 577714, Note_off_c, 0, 52, 62
1, 577756, Note_off_c, 0, 58, 59
1, 577789, Note_on_c, 0, 55, 72
1, 577827, Note_off_c, 0, 55, 62
1, 577881, Control_c, 0, 64, 118
1, 577890, Note_on_c, 0, 55, 94
1, 577896, Control_c, 0, 64, 74
1, 577905, Note_off_c, 0, 54, 58
1, 577911, Control_c, 0, 64, 51
1, 577911, Note_on_c, 0, 61, 71
1, 577926, Control_c, 0, 64, 0
1, 577956, Control_c, 0, 64, 39
1, 577971, Control_c, 0, 64, 55
1, 577986, Control_c, 0, 64, 65
1, 577994, Note_off_c, 0, 61, 61
1, 578001, Control_c, 0, 64, 72
1, 578014, Note_on_c, 0, 58, 62
1, 578015, Control_c, 0, 64, 77
1, 578030, Control_c, 0, 64, 80
1, 578045, Control_c, 0, 64, 83
1, 578055, Note_off_c, 0, 58, 59
1, 578060, Control_c, 0, 64, 85
1, 578075, Control_c, 0, 64, 87
1, 578090, Control_c, 0, 64, 88
1, 578092, Note_on_c, 0, 61, 59
1, 578105, Control_c, 0, 64, 89
1, 578120, Control_c, 0, 64, 89
1, 578173, Note_off_c, 0, 61, 58
1, 578179, Note_on_c, 0, 58, 63
1, 578234, Note_off_c, 0, 58, 59
1, 578244, Note_on_c, 0, 57, 87
1, 578251, Note_off_c, 0, 55, 64
1, 578275, Note_on_c, 0, 61, 61
1, 578349, Note_off_c, 0, 61, 54
1, 578364, Control_c, 0, 64, 90
1, 578366, Note_on_c, 0, 58, 62
1, 578394, Control_c, 0, 64, 89
1, 578409, Control_c, 0, 64, 84
1, 578423, Control_c, 0, 64, 69
1, 578428, Note_off_c, 0, 58, 59
1, 578438, Control_c, 0, 64, 47
1, 578449, Note_on_c, 0, 54, 86
1, 578453, Control_c, 0, 64, 0
1, 578462, Note_off_c, 0, 57, 65
1, 578464, Note_on_c, 0, 61, 61
1, 578482, Control_c, 0, 64, 34
1, 578497, Control_c, 0, 64, 53
1, 578513, Control_c, 0, 64, 64
1, 578528, Control_c, 0, 64, 70
1, 578541, Note_off_c, 0, 61, 59
1, 578542, Control_c, 0, 64, 76
1, 578557, Control_c, 0, 64, 80
1, 578560, Note_on_c, 0, 58, 56
1, 578572, Control_c, 0, 64, 83
1, 578586, Control_c, 0, 64, 87
1, 578601, Control_c, 0, 64, 91
1, 578616, Control_c, 0, 64, 94
1, 578631, Control_c, 0, 64, 96
1, 578638, Note_off_c, 0, 58, 55
1, 578646, Control_c, 0, 64, 98
1, 578650, Note_on_c, 0, 61, 57
1, 578660, Control_c, 0, 64, 100
1, 578690, Control_c, 0, 64, 102
1, 578724, Note_off_c, 0, 61, 42
1, 578759, Note_on_c, 0, 58, 62
1, 578765, Control_c, 0, 64, 104
1, 578793, Note_on_c, 0, 55, 87
1, 578808, Note_off_c, 0, 54, 62
1, 578823, Note_off_c, 0, 58, 60
1, 578846, Note_on_c, 0, 61, 61
1, 578914, Note_off_c, 0, 61, 54
1, 578930, Note_on_c, 0, 58, 71
1, 578972, Control_c, 0, 64, 95
1, 578987, Control_c, 0, 64, 75
1, 578994, Note_on_c, 0, 52, 90
1, 579002, Control_c, 0, 64, 57
1, 579017, Note_off_c, 0, 55, 61
1, 579017, Control_c, 0, 64, 0
1, 579019, Note_on_c, 0, 67, 63
1, 579069, Control_c, 0, 64, 45
1, 579084, Control_c, 0, 64, 62
1, 579098, Control_c, 0, 64, 70
1, 579103, Note_off_c, 0, 67, 60
1, 579112, Note_off_c, 0, 58, 58
1, 579113, Control_c, 0, 64, 76
1, 579128, Control_c, 0, 64, 78
1, 579133, Note_on_c, 0, 61, 59
1, 579158, Control_c, 0, 64, 75
1, 579172, Control_c, 0, 64, 67
1, 579187, Control_c, 0, 64, 56
1, 579194, Note_on_c, 0, 50, 81
1, 579202, Control_c, 0, 64, 38
1, 579213, Note_off_c, 0, 61, 57
1, 579217, Control_c, 0, 64, 0
1, 579220, Note_off_c, 0, 52, 60
1, 579225, Note_on_c, 0, 58, 54
1, 579261, Control_c, 0, 64, 42
1, 579276, Control_c, 0, 64, 54
1, 579286, Note_off_c, 0, 58, 63
1, 579290, Control_c, 0, 64, 61
1, 579305, Control_c, 0, 64, 64
1, 579312, Note_on_c, 0, 61, 57
1, 579320, Control_c, 0, 64, 65
1, 579350, Control_c, 0, 64, 65
1, 579364, Control_c, 0, 64, 66
1, 579368, Note_on_c, 0, 52, 90
1, 579376, Note_off_c, 0, 50, 63
1, 579378, Note_off_c, 0, 61, 62
1, 579379, Control_c, 0, 64, 68
1, 579394, Control_c, 0, 64, 72
1, 579407, Note_on_c, 0, 58, 58
1, 579408, Control_c, 0, 64, 77
1, 579418, Note_off_c, 0, 52, 65
1, 579423, Control_c, 0, 64, 79
1, 579446, Note_off_c, 0, 58, 63
1, 579453, Control_c, 0, 64, 79
1, 579468, Control_c, 0, 64, 76
1, 579473, Note_on_c, 0, 61, 52
1, 579482, Control_c, 0, 64, 74
1, 579497, Control_c, 0, 64, 73
1, 579527, Control_c, 0, 64, 74
1, 579534, Note_on_c, 0, 37, 90
1, 579543, Control_c, 0, 64, 77
1, 579548, Note_on_c, 0, 58, 59
1, 579557, Note_off_c, 0, 61, 62
1, 579558, Control_c, 0, 64, 82
1, 579573, Control_c, 0, 64, 83
1, 579587, Control_c, 0, 64, 82
1, 579588, Note_on_c, 0, 36, 29
1, 579600, Note_off_c, 0, 37, 62
1, 579602, Control_c, 0, 64, 75
1, 579610, Note_off_c, 0, 58, 59
1, 579617, Control_c, 0, 64, 64
1, 579622, Note_on_c, 0, 55, 65
1, 579629, Note_off_c, 0, 36, 47
1, 579631, Control_c, 0, 64, 49
1, 579646, Control_c, 0, 64, 36
1, 579661, Control_c, 0, 64, 37
1, 579676, Control_c, 0, 64, 50
1, 579691, Note_off_c, 0, 55, 52
1, 579691, Control_c, 0, 64, 63
1, 579705, Control_c, 0, 64, 68
1, 579715, Note_on_c, 0, 52, 89
1, 579720, Control_c, 0, 64, 71
1, 579725, Note_on_c, 0, 58, 63
1, 579750, Control_c, 0, 64, 72
1, 579765, Control_c, 0, 64, 73
1, 579780, Control_c, 0, 64, 73
1, 579788, Note_off_c, 0, 58, 61
1, 579813, Note_on_c, 0, 55, 67
1, 579881, Note_off_c, 0, 55, 51
1, 579890, Note_on_c, 0, 54, 88
1, 579905, Note_on_c, 0, 58, 65
1, 579914, Note_off_c, 0, 52, 60
1, 579950, Control_c, 0, 64, 74
1, 579956, Note_off_c, 0, 58, 60
1, 579965, Control_c, 0, 64, 74
1, 579980, Control_c, 0, 64, 75
1, 579992, Note_on_c, 0, 55, 66
1, 579995, Control_c, 0, 64, 76
1, 580010, Control_c, 0, 64, 77
1, 580023, Note_off_c, 0, 55, 65
1, 580054, Control_c, 0, 64, 76
1, 580069, Control_c, 0, 64, 68
1, 580084, Control_c, 0, 64, 55
1, 580090, Note_on_c, 0, 55, 90
1, 580099, Control_c, 0, 64, 0
1, 580112, Note_off_c, 0, 54, 61
1, 580114, Note_on_c, 0, 61, 66
1, 580173, Control_c, 0, 64, 40
1, 580181, Note_off_c, 0, 61, 62
1, 580187, Control_c, 0, 64, 55
1, 580202, Control_c, 0, 64, 64
1, 580209, Note_on_c, 0, 58, 64
1, 580217, Control_c, 0, 64, 68
1, 580232, Control_c, 0, 64, 69
1, 580255, Note_off_c, 0, 58, 60
1, 580261, Control_c, 0, 64, 70
1, 580276, Control_c, 0, 64, 70
1, 580287, Note_on_c, 0, 61, 59
1, 580291, Control_c, 0, 64, 71
1, 580306, Control_c, 0, 64, 71
1, 580320, Control_c, 0, 64, 72
1, 580352, Note_off_c, 0, 61, 58
1, 580366, Control_c, 0, 64, 72
1, 580367, Note_on_c, 0, 58, 67
1, 580381, Control_c, 0, 64, 73
1, 580396, Control_c, 0, 64, 74
1, 580410, Control_c, 0, 64, 75
1, 580431, Note_off_c, 0, 58, 62
1, 580454, Control_c, 0, 64, 72
1, 580460, Note_on_c, 0, 57, 87
1, 580469, Control_c, 0, 64, 65
1, 580473, Note_on_c, 0, 61, 59
1, 580475, Note_off_c, 0, 55, 62
1, 580484, Control_c, 0, 64, 54
1, 580499, Control_c, 0, 64, 49
1, 580514, Control_c, 0, 64, 50
1, 580528, Control_c, 0, 64, 56
1, 580541, Note_off_c, 0, 61, 58
1, 580543, Control_c, 0, 64, 62
1, 580566, Control_c, 0, 64, 66
1, 580569, Note_on_c, 0, 58, 60
1, 580581, Control_c, 0, 64, 70
1, 580596, Control_c, 0, 64, 72
1, 580610, Control_c, 0, 64, 72
1, 580638, Note_off_c, 0, 58, 61
1, 580640, Control_c, 0, 64, 71
1, 580655, Control_c, 0, 64, 65
1, 580668, Note_on_c, 0, 61, 55
1, 580669, Note_on_c, 0, 54, 84
1, 580669, Control_c, 0, 64, 52
1, 580684, Control_c, 0, 64, 0
1, 580688, Note_off_c, 0, 57, 61
1, 580729, Control_c, 0, 64, 39
1, 580739, Note_off_c, 0, 61, 58
1, 580743, Control_c, 0, 64, 54
1, 580758, Control_c, 0, 64, 62
1, 580761, Note_on_c, 0, 58, 53
1, 580773, Control_c, 0, 64, 65
1, 580788, Control_c, 0, 64, 67
1, 580803, Control_c, 0, 64, 67
1, 580824, Note_off_c, 0, 58, 56
1, 580832, Control_c, 0, 64, 68
1, 580847, Control_c, 0, 64, 69
1, 580851, Note_on_c, 0, 61, 52
1, 580862, Control_c, 0, 64, 70
1, 580877, Control_c, 0, 64, 71
1, 580892, Control_c, 0, 64, 72
1, 580907, Control_c, 0, 64, 72
1, 580912, Note_off_c, 0, 61, 56
1, 580922, Control_c, 0, 64, 73
1, 580948, Note_on_c, 0, 58, 51
1, 580966, Control_c, 0, 64, 73
1, 581036, Note_off_c, 0, 58, 50
1, 581062, Note_on_c, 0, 61, 38
1, 581070, Note_on_c, 0, 55, 82
1, 581092, Note_off_c, 0, 54, 60
1, 581120, Note_off_c, 0, 61, 58
1, 581164, Note_on_c, 0, 58, 43
1, 581243, Note_off_c, 0, 58, 55
1, 581277, Control_c, 0, 64, 73
1, 581292, Control_c, 0, 64, 71
1, 581313, Note_on_c, 0, 52, 83
1, 581315, Control_c, 0, 64, 65
1, 581330, Control_c, 0, 64, 54
1, 581345, Control_c, 0, 64, 41
1, 581345, Note_on_c, 0, 67, 47
1, 581352, Note_on_c, 0, 58, 11
1, 581359, Control_c, 0, 64, 36
1, 581373, Note_off_c, 0, 55, 54
1, 581374, Control_c, 0, 64, 37
1, 581389, Control_c, 0, 64, 45
1, 581404, Control_c, 0, 64, 55
1, 581418, Control_c, 0, 64, 61
1, 581433, Control_c, 0, 64, 65
1, 581445, Note_off_c, 0, 67, 51
1, 581448, Control_c, 0, 64, 68
1, 581463, Control_c, 0, 64, 69
1, 581467, Note_off_c, 0, 58, 55
1, 581478, Control_c, 0, 64, 70
1, 581492, Control_c, 0, 64, 71
1, 581497, Note_on_c, 0, 61, 37
1, 581537, Control_c, 0, 64, 68
1, 581552, Control_c, 0, 64, 60
1, 581563, Note_on_c, 0, 50, 77
1, 581566, Control_c, 0, 64, 46
1, 581567, Note_off_c, 0, 61, 52
1, 581581, Control_c, 0, 64, 34
1, 581598, Note_on_c, 0, 58, 50
1, 581598, Note_off_c, 0, 52, 60
1, 581610, Control_c, 0, 64, 45
1, 581625, Control_c, 0, 64, 58
1, 581640, Control_c, 0, 64, 65
1, 581655, Control_c, 0, 64, 68
1, 581658, Note_off_c, 0, 58, 58
1, 581685, Control_c, 0, 64, 68
1, 581693, Note_on_c, 0, 61, 48
1, 581700, Control_c, 0, 64, 64
1, 581715, Control_c, 0, 64, 60
1, 581729, Control_c, 0, 64, 57
1, 581744, Note_on_c, 0, 52, 83
1, 581744, Control_c, 0, 64, 57
1, 581748, Note_off_c, 0, 61, 58
1, 581754, Note_off_c, 0, 50, 63
1, 581759, Control_c, 0, 64, 58
1, 581774, Control_c, 0, 64, 61
1, 581781, Note_on_c, 0, 58, 55
1, 581789, Control_c, 0, 64, 66
1, 581803, Control_c, 0, 64, 70
1, 581818, Control_c, 0, 64, 73
1, 581819, Note_off_c, 0, 52, 64
1, 581829, Note_off_c, 0, 58, 60
1, 581848, Control_c, 0, 64, 72
1, 581858, Note_on_c, 0, 61, 48
1, 581863, Control_c, 0, 64, 69
1, 581877, Control_c, 0, 64, 64
1, 581892, Control_c, 0, 64, 59
1, 581922, Control_c, 0, 64, 62
1, 581929, Note_off_c, 0, 61, 52
1, 581931, Note_on_c, 0, 37, 85
1, 581938, Control_c, 0, 64, 67
1, 581944, Note_on_c, 0, 58, 48
1, 581953, Control_c, 0, 64, 71
1, 581968, Control_c, 0, 64, 75
1, 581974, Note_off_c, 0, 58, 55
1, 581982, Control_c, 0, 64, 75
1, 581993, Note_off_c, 0, 37, 62
1, 581997, Control_c, 0, 64, 75
1, 581998, Note_on_c, 0, 55, 62
1, 582012, Control_c, 0, 64, 74
1, 582026, Control_c, 0, 64, 71
1, 582041, Control_c, 0, 64, 67
1, 582063, Control_c, 0, 64, 65
1, 582066, Note_off_c, 0, 55, 54
1, 582078, Control_c, 0, 64, 65
1, 582093, Control_c, 0, 64, 66
1, 582106, Note_on_c, 0, 58, 46
1, 582108, Control_c, 0, 64, 69
1, 582111, Note_on_c, 0, 52, 85
1, 582123, Control_c, 0, 64, 73
1, 582138, Control_c, 0, 64, 73
1, 582168, Note_off_c, 0, 58, 62
1, 582189, Note_on_c, 0, 55, 56
1, 582212, Control_c, 0, 64, 72
1, 582227, Control_c, 0, 64, 70
1, 582241, Control_c, 0, 64, 69
1, 582248, Note_off_c, 0, 55, 48
1, 582257, Control_c, 0, 64, 68
1, 582288, Note_on_c, 0, 54, 81
1, 582288, Note_on_c, 0, 58, 55
1, 582316, Note_off_c, 0, 52, 57
1, 582335, Note_off_c, 0, 58, 60
1, 582346, Control_c, 0, 64, 68
1, 582373, Note_on_c, 0, 55, 51
1, 582390, Control_c, 0, 64, 68
1, 582401, Note_off_c, 0, 55, 56
1, 582405, Control_c, 0, 64, 65
1, 582420, Control_c, 0, 64, 54
1, 582434, Control_c, 0, 64, 35
1, 582449, Control_c, 0, 64, 0
1, 582472, Note_on_c, 0, 55, 79
1, 582490, Note_off_c, 0, 54, 59
1, 582499, Note_on_c, 0, 61, 51
1, 582523, Control_c, 0, 64, 42
1, 582538, Control_c, 0, 64, 56
1, 582552, Control_c, 0, 64, 63
1, 582567, Control_c, 0, 64, 65
1, 582576, Note_off_c, 0, 61, 52
1, 582582, Control_c, 0, 64, 66
1, 582597, Control_c, 0, 64, 67
1, 582605, Note_on_c, 0, 58, 52
1, 582612, Control_c, 0, 64, 68
1, 582627, Control_c, 0, 64, 69
1, 582634, Note_off_c, 0, 55, 58
1, 582642, Control_c, 0, 64, 70
1, 582657, Control_c, 0, 64, 70
1, 582674, Note_off_c, 0, 58, 52
1, 582701, Control_c, 0, 64, 70
1, 582714, Note_on_c, 0, 57, 81
1, 582716, Control_c, 0, 64, 67
1, 582725, Note_on_c, 0, 61, 41
1, 582731, Control_c, 0, 64, 62
1, 582746, Control_c, 0, 64, 56
1, 582761, Control_c, 0, 64, 51
1, 582776, Control_c, 0, 64, 49
1, 582813, Control_c, 0, 64, 50
1, 582828, Control_c, 0, 64, 52
1, 582843, Control_c, 0, 64, 53
1, 582861, Note_off_c, 0, 61, 56
1, 582872, Control_c, 0, 64, 53
1, 582887, Control_c, 0, 64, 54
1, 582892, Note_on_c, 0, 58, 46
1, 582902, Control_c, 0, 64, 54
1, 582931, Control_c, 0, 64, 55
1, 582973, Note_off_c, 0, 58, 53
1, 583023, Note_on_c, 0, 61, 38
1, 583029, Note_on_c, 0, 54, 73
1, 583050, Control_c, 0, 64, 55
1, 583062, Note_off_c, 0, 57, 60
1, 583064, Control_c, 0, 64, 56
1, 583079, Control_c, 0, 64, 56
1, 583109, Control_c, 0, 64, 57
1, 583124, Control_c, 0, 64, 57
1, 583128, Note_off_c, 0, 61, 57
1, 583138, Control_c, 0, 64, 58
1, 583149, Note_on_c, 0, 58, 45
1, 583182, Control_c, 0, 64, 58
1, 583234, Note_off_c, 0, 58, 59
1, 583254, Note_on_c, 0, 55, 71
1, 583256, Control_c, 0, 64, 59
1, 583268, Note_on_c, 0, 61, 46
1, 583286, Control_c, 0, 64, 59
1, 583299, Note_off_c, 0, 54, 58
1, 583301, Control_c, 0, 64, 60
1, 583316, Control_c, 0, 64, 60
1, 583360, Control_c, 0, 64, 61
1, 583363, Note_off_c, 0, 61, 56
1, 583371, Note_on_c, 0, 58, 50
1, 583436, Note_off_c, 0, 58, 59
1, 583449, Note_on_c, 0, 52, 79
1, 583481, Note_off_c, 0, 55, 59
1, 583482, Note_on_c, 0, 61, 39
1, 583534, Note_off_c, 0, 61, 60
1, 583560, Note_on_c, 0, 58, 52
1, 583604, Note_off_c, 0, 58, 61
1, 583628, Note_on_c, 0, 54, 73
1, 583652, Note_on_c, 0, 61, 50
1, 583658, Note_off_c, 0, 52, 61
1, 583705, Note_on_c, 0, 58, 55
1, 583718, Note_off_c, 0, 61, 48
1, 583724, Control_c, 0, 64, 60
1, 583754, Control_c, 0, 64, 60
1, 583768, Control_c, 0, 64, 59
1, 583780, Note_off_c, 0, 58, 60
1, 583783, Control_c, 0, 64, 59
1, 583798, Control_c, 0, 64, 58
1, 583807, Note_on_c, 0, 50, 75
1, 583813, Control_c, 0, 64, 58
1, 583819, Note_on_c, 0, 55, 51
1, 583843, Control_c, 0, 64, 57
1, 583876, Note_off_c, 0, 54, 38
1, 583881, Note_off_c, 0, 55, 51
1, 583914, Note_on_c, 0, 58, 50
1, 583977, Note_off_c, 0, 58, 57
1, 584010, Note_on_c, 0, 52, 77
1, 584016, Note_on_c, 0, 55, 54
1, 584032, Note_off_c, 0, 50, 62
1, 584078, Note_off_c, 0, 55, 55
1, 584105, Note_on_c, 0, 58, 54
1, 584183, Note_off_c, 0, 58, 62
1, 584202, Note_on_c, 0, 49, 76
1, 584210, Note_on_c, 0, 55, 56
1, 584213, Control_c, 0, 64, 57
1, 584232, Note_off_c, 0, 52, 58
1, 584242, Control_c, 0, 64, 56
1, 584272, Control_c, 0, 64, 56
1, 584296, Note_off_c, 0, 55, 52
1, 584330, Note_on_c, 0, 58, 54
1, 584405, Note_off_c, 0, 58, 61
1, 584436, Note_on_c, 0, 55, 53
1, 584488, Control_c, 0, 64, 56
1, 584498, Note_off_c, 0, 55, 54
1, 584534, Note_on_c, 0, 58, 55
1, 584630, Note_off_c, 0, 58, 55
1, 584666, Note_on_c, 0, 50, 66
1, 584678, Note_on_c, 0, 55, 36
1, 584741, Note_off_c, 0, 49, 64
1, 584755, Note_off_c, 0, 55, 44
1, 584780, Note_on_c, 0, 58, 45
1, 584799, Control_c, 0, 67, 37
1, 584814, Control_c, 0, 67, 41
1, 584828, Control_c, 0, 67, 43
1, 584843, Control_c, 0, 67, 44
1, 584858, Control_c, 0, 67, 45
1, 584873, Control_c, 0, 64, 57
1, 584887, Note_off_c, 0, 58, 57
1, 584902, Control_c, 0, 64, 57
1, 584915, Note_on_c, 0, 55, 43
1, 584932, Control_c, 0, 67, 44
1, 584947, Control_c, 0, 64, 58
1, 584961, Control_c, 0, 67, 43
1, 584976, Control_c, 0, 64, 58
1, 584976, Control_c, 0, 67, 43
1, 584991, Control_c, 0, 67, 42
1, 585006, Control_c, 0, 64, 59
1, 585006, Control_c, 0, 67, 41
1, 585020, Control_c, 0, 67, 41
1, 585022, Note_off_c, 0, 55, 49
1, 585033, Note_on_c, 0, 58, 50
1, 585058, Control_c, 0, 64, 59
1, 585058, Control_c, 0, 67, 40
1, 585073, Control_c, 0, 67, 39
1, 585103, Control_c, 0, 64, 60
1, 585103, Control_c, 0, 67, 39
1, 585133, Control_c, 0, 67, 38
1, 585148, Control_c, 0, 67, 37
1, 585178, Control_c, 0, 64, 59
1, 585178, Control_c, 0, 67, 0
1, 585187, Note_off_c, 0, 58, 59
1, 585191, Note_on_c, 0, 51, 70
1, 585193, Control_c, 0, 64, 57
1, 585207, Control_c, 0, 64, 55
1, 585217, Note_on_c, 0, 61, 44
1, 585222, Control_c, 0, 64, 53
1, 585237, Control_c, 0, 64, 52
1, 585244, Note_off_c, 0, 50, 55
1, 585250, Poly_aftertouch_c, 0, 55, 127
1, 585267, Control_c, 0, 64, 53
1, 585282, Control_c, 0, 64, 54
1, 585297, Control_c, 0, 64, 56
1, 585312, Control_c, 0, 64, 57
1, 585326, Control_c, 0, 64, 58
1, 585341, Control_c, 0, 64, 58
1, 585356, Control_c, 0, 64, 59
1, 585371, Control_c, 0, 64, 59
1, 585372, Poly_aftertouch_c, 0, 55, 0
1, 585386, Control_c, 0, 64, 60
1, 585393, Note_on_c, 0, 57, 45
1, 585429, Note_off_c, 0, 61, 31
1, 585430, Control_c, 0, 64, 60
1, 585445, Control_c, 0, 64, 60
1, 585459, Control_c, 0, 64, 59
1, 585467, Note_off_c, 0, 57, 57
1, 585474, Control_c, 0, 64, 57
1, 585489, Control_c, 0, 64, 55
1, 585504, Control_c, 0, 64, 55
1, 585506, Note_on_c, 0, 53, 65
1, 585532, Note_on_c, 0, 63, 50
1, 585533, Control_c, 0, 64, 55
1, 585548, Control_c, 0, 64, 56
1, 585563, Control_c, 0, 64, 57
1, 585578, Control_c, 0, 64, 58
1, 585583, Note_off_c, 0, 51, 59
1, 585593, Control_c, 0, 64, 59
1, 585608, Note_off_c, 0, 63, 59
1, 585608, Control_c, 0, 64, 60
1, 585623, Control_c, 0, 64, 60
1, 585637, Control_c, 0, 64, 61
1, 585640, Note_on_c, 0, 57, 44
1, 585652, Control_c, 0, 64, 61
1, 585682, Control_c, 0, 64, 62
1, 585726, Control_c, 0, 64, 61
1, 585741, Control_c, 0, 64, 60
1, 585756, Control_c, 0, 64, 57
1, 585757, Note_off_c, 0, 57, 56
1, 585766, Note_on_c, 0, 55, 66
1, 585771, Control_c, 0, 64, 54
1, 585783, Note_on_c, 0, 59, 52
1, 585785, Control_c, 0, 64, 52
1, 585807, Control_c, 0, 64, 50
1, 585822, Control_c, 0, 64, 50
1, 585827, Note_off_c, 0, 53, 62
1, 585852, Control_c, 0, 64, 50
1, 585867, Control_c, 0, 64, 52
1, 585882, Control_c, 0, 64, 53
1, 585897, Control_c, 0, 64, 54
1, 585912, Control_c, 0, 64, 55
1, 585916, Note_off_c, 0, 59, 60
1, 585927, Control_c, 0, 64, 56
1, 585938, Note_on_c, 0, 63, 58
1, 585942, Control_c, 0, 64, 58
1, 585956, Control_c, 0, 64, 59
1, 585971, Control_c, 0, 64, 59
1, 585986, Control_c, 0, 64, 60
1, 585999, Control_c, 0, 64, 60
1, 586014, Control_c, 0, 64, 61
1, 586029, Control_c, 0, 64, 61
1, 586039, Note_off_c, 0, 63, 53
1, 586044, Control_c, 0, 64, 62
1, 586059, Control_c, 0, 64, 62
1, 586073, Note_on_c, 0, 71, 58
1, 586088, Control_c, 0, 64, 63
1, 586103, Control_c, 0, 64, 63
1, 586133, Control_c, 0, 64, 64
1, 586199, Note_off_c, 0, 71, 36
1, 586219, Note_on_c, 0, 63, 44
1, 586385, Control_c, 0, 64, 63
1, 586389, Note_on_c, 0, 57, 63
1, 586393, Note_off_c, 0, 63, 50
1, 586399, Control_c, 0, 64, 63
1, 586404, Note_on_c, 0, 65, 45
1, 586414, Control_c, 0, 64, 62
1, 586429, Control_c, 0, 64, 59
1, 586444, Control_c, 0, 64, 57
1, 586459, Control_c, 0, 64, 54
1, 586473, Control_c, 0, 64, 51
1, 586488, Control_c, 0, 64, 48
1, 586503, Control_c, 0, 64, 47
1, 586518, Control_c, 0, 64, 46
1, 586533, Control_c, 0, 64, 45
1, 586558, Note_off_c, 0, 55, 56
1, 586558, Note_off_c, 0, 65, 60
1, 586592, Note_on_c, 0, 61, 42
1, 586673, Control_c, 0, 64, 47
1, 586688, Control_c, 0, 64, 49
1, 586703, Control_c, 0, 64, 55
1, 586718, Control_c, 0, 64, 59
1, 586734, Control_c, 0, 64, 62
1, 586749, Control_c, 0, 64, 65
1, 586764, Control_c, 0, 64, 67
1, 586778, Control_c, 0, 64, 69
1, 586793, Control_c, 0, 64, 72
1, 586808, Control_c, 0, 64, 75
1, 586810, Note_on_c, 0, 63, 42
1, 586822, Control_c, 0, 64, 78
1, 586832, Note_off_c, 0, 61, 35
1, 586837, Control_c, 0, 64, 80
1, 586852, Control_c, 0, 64, 82
1, 586867, Control_c, 0, 64, 84
1, 586882, Control_c, 0, 64, 86
1, 586896, Control_c, 0, 64, 87
1, 586911, Control_c, 0, 64, 88
1, 586926, Control_c, 0, 64, 88
1, 586941, Control_c, 0, 64, 89
1, 587000, Control_c, 0, 64, 89
1, 587009, Note_off_c, 0, 57, 45
1, 587049, Note_on_c, 0, 59, 55
1, 587092, Note_off_c, 0, 63, 47
1, 587193, Control_c, 0, 64, 89
1, 587304, Control_c, 0, 64, 88
1, 587319, Control_c, 0, 64, 88
1, 587334, Control_c, 0, 64, 87
1, 587348, Control_c, 0, 64, 86
1, 587350, Note_on_c, 0, 38, 41
1, 587363, Control_c, 0, 64, 84
1, 587378, Control_c, 0, 64, 82
1, 587393, Control_c, 0, 64, 80
1, 587408, Control_c, 0, 64, 77
1, 587408, Note_on_c, 0, 63, 57
1, 587422, Control_c, 0, 64, 75
1, 587432, Note_on_c, 0, 67, 48
1, 587437, Control_c, 0, 64, 73
1, 587452, Control_c, 0, 64, 71
1, 587467, Control_c, 0, 64, 69
1, 587480, Poly_aftertouch_c, 0, 55, 127
1, 587482, Control_c, 0, 64, 67
1, 587488, Note_off_c, 0, 59, 54
1, 587496, Control_c, 0, 64, 65
1, 587511, Control_c, 0, 64, 64
1, 587527, Control_c, 0, 64, 64
1, 587542, Control_c, 0, 64, 63
1, 587557, Control_c, 0, 64, 63
1, 587586, Control_c, 0, 64, 62
1, 587616, Control_c, 0, 64, 62
1, 587660, Control_c, 0, 64, 61
1, 587764, Control_c, 0, 64, 62
1, 587838, Control_c, 0, 64, 61
1, 587852, Control_c, 0, 64, 61
1, 587867, Control_c, 0, 64, 60
1, 587881, Note_on_c, 0, 50, 38
1, 587882, Control_c, 0, 64, 59
1, 587927, Control_c, 0, 64, 60
1, 587942, Control_c, 0, 64, 63
1, 587957, Control_c, 0, 64, 66
1, 587971, Control_c, 0, 64, 71
1, 587986, Control_c, 0, 64, 76
1, 588001, Control_c, 0, 64, 79
1, 588016, Control_c, 0, 64, 81
1, 588022, Note_off_c, 0, 38, 42
1, 588031, Control_c, 0, 64, 84
1, 588052, Control_c, 0, 64, 87
1, 588067, Control_c, 0, 64, 91
1, 588082, Control_c, 0, 64, 94
1, 588097, Control_c, 0, 64, 97
1, 588112, Control_c, 0, 64, 100
1, 588127, Control_c, 0, 64, 103
1, 588141, Control_c, 0, 64, 106
1, 588150, Note_off_c, 0, 50, 36
1, 588156, Control_c, 0, 64, 108
1, 588171, Control_c, 0, 64, 110
1, 588186, Control_c, 0, 64, 112
1, 588216, Control_c, 0, 64, 115
1, 588261, Control_c, 0, 64, 118
1, 588336, Control_c, 0, 64, 120
1, 588572, Note_on_c, 0, 59, 53
1, 589144, Control_c, 0, 67, 37
1, 589173, Control_c, 0, 67, 38
1, 589188, Control_c, 0, 67, 39
1, 589203, Control_c, 0, 64, 118
1, 589203, Control_c, 0, 67, 40
1, 589232, Control_c, 0, 67, 41
1, 589247, Control_c, 0, 64, 116
1, 589292, Control_c, 0, 64, 114
1, 589337, Control_c, 0, 64, 112
1, 589366, Control_c, 0, 67, 41
1, 589381, Control_c, 0, 64, 110
1, 589425, Control_c, 0, 67, 42
1, 589455, Control_c, 0, 64, 108
1, 589470, Control_c, 0, 67, 43
1, 589512, Note_on_c, 0, 62, 38
1, 589514, Control_c, 0, 67, 43
1, 589551, Control_c, 0, 67, 44
1, 589566, Control_c, 0, 67, 45
1, 589596, Control_c, 0, 67, 45
1, 589611, Control_c, 0, 67, 46
1, 589620, Poly_aftertouch_c, 0, 55, 0
1, 589625, Control_c, 0, 67, 47
1, 589640, Note_off_c, 0, 63, 29
1, 589640, Control_c, 0, 67, 48
1, 589655, Control_c, 0, 67, 49
1, 589670, Control_c, 0, 67, 49
1, 589685, Control_c, 0, 67, 50
1, 589699, Control_c, 0, 67, 51
1, 589709, Note_off_c, 0, 59, 54
1, 589714, Control_c, 0, 67, 51
1, 589729, Control_c, 0, 67, 52
1, 589742, Control_c, 0, 67, 53
1, 589757, Control_c, 0, 67, 63
1, 589772, Control_c, 0, 67, 96
1, 589787, Control_c, 0, 67, 114
1, 589790, Note_off_c, 0, 62, 59
1, 589802, Control_c, 0, 67, 122
1, 589817, Control_c, 0, 67, 126
1, 589871, Note_off_c, 0, 67, 53
1, 590085, Control_c, 0, 64, 106
1, 590148, Note_on_c, 0, 69, 46
1, 590170, Note_on_c, 0, 67, 33
1, 590173, Control_c, 0, 64, 104
1, 590262, Control_c, 0, 64, 102
1, 590277, Control_c, 0, 67, 124
1, 590344, Control_c, 0, 64, 100
1, 590388, Control_c, 0, 64, 98
1, 590433, Control_c, 0, 64, 96
1, 590447, Control_c, 0, 64, 95
1, 590462, Control_c, 0, 64, 94
1, 590477, Control_c, 0, 64, 93
1, 590492, Control_c, 0, 64, 92
1, 590507, Control_c, 0, 64, 91
1, 590508, Note_off_c, 0, 69, 52
1, 590511, Note_on_c, 0, 71, 50
1, 590517, Note_on_c, 0, 66, 37
1, 590521, Control_c, 0, 64, 90
1, 590536, Control_c, 0, 64, 89
1, 590536, Control_c, 0, 67, 126
1, 590551, Control_c, 0, 64, 89
1, 590566, Control_c, 0, 64, 88
1, 590577, Note_off_c, 0, 67, 42
1, 590580, Control_c, 0, 64, 87
1, 590595, Control_c, 0, 64, 86
1, 590610, Control_c, 0, 64, 86
1, 590625, Control_c, 0, 64, 85
1, 590639, Control_c, 0, 64, 85
1, 590654, Control_c, 0, 64, 84
1, 590684, Control_c, 0, 64, 84
1, 590699, Control_c, 0, 64, 83
1, 590715, Control_c, 0, 64, 83
1, 590730, Control_c, 0, 64, 82
1, 590744, Control_c, 0, 64, 81
1, 590759, Control_c, 0, 64, 81
1, 590774, Control_c, 0, 64, 80
1, 590788, Control_c, 0, 64, 80
1, 590803, Control_c, 0, 64, 79
1, 590818, Control_c, 0, 64, 79
1, 590833, Control_c, 0, 64, 78
1, 590848, Control_c, 0, 64, 78
1, 590863, Control_c, 0, 64, 77
1, 590878, Control_c, 0, 64, 77
1, 590893, Control_c, 0, 64, 76
1, 590908, Control_c, 0, 64, 76
1, 590923, Control_c, 0, 64, 75
1, 590937, Control_c, 0, 64, 74
1, 590952, Control_c, 0, 64, 73
1, 590967, Control_c, 0, 64, 72
1, 590976, Note_on_c, 0, 74, 52
1, 590982, Control_c, 0, 64, 69
1, 590987, Note_on_c, 0, 65, 29
1, 590989, Note_on_c, 0, 68, 19
1, 590996, Control_c, 0, 64, 67
1, 591011, Control_c, 0, 64, 65
1, 591026, Control_c, 0, 64, 63
1, 591032, Note_off_c, 0, 66, 57
1, 591048, Control_c, 0, 64, 61
1, 591056, Note_off_c, 0, 71, 58
1, 591063, Control_c, 0, 64, 60
1, 591078, Control_c, 0, 64, 59
1, 591093, Control_c, 0, 64, 58
1, 591107, Control_c, 0, 64, 58
1, 591122, Control_c, 0, 64, 57
1, 591152, Control_c, 0, 64, 57
1, 591167, Control_c, 0, 64, 56
1, 591182, Control_c, 0, 64, 56
1, 591226, Control_c, 0, 64, 55
1, 591374, Control_c, 0, 64, 56
1, 591382, Note_on_c, 0, 55, 31
1, 591389, Control_c, 0, 64, 57
1, 591403, Control_c, 0, 64, 60
1, 591418, Control_c, 0, 64, 62
1, 591433, Control_c, 0, 64, 64
1, 591448, Control_c, 0, 64, 66
1, 591463, Control_c, 0, 64, 68
1, 591477, Control_c, 0, 64, 71
1, 591492, Control_c, 0, 64, 73
1, 591507, Control_c, 0, 64, 73
1, 591527, Note_off_c, 0, 65, 35
1, 591538, Control_c, 0, 64, 74
1, 591677, Note_on_c, 0, 75, 49
1, 591686, Note_on_c, 0, 71, 25
1, 591695, Note_on_c, 0, 67, 13
1, 591755, Note_off_c, 0, 68, 40
1, 591777, Note_off_c, 0, 74, 30
1, 591915, Control_c, 0, 64, 73
1, 591920, Note_off_c, 0, 71, 30
1, 591928, Note_off_c, 0, 67, 0
1, 591930, Control_c, 0, 64, 72
1, 591945, Control_c, 0, 64, 70
1, 591960, Control_c, 0, 64, 67
1, 591964, Note_on_c, 0, 73, 52
1, 591965, Poly_aftertouch_c, 0, 67, 127
1, 591972, Note_on_c, 0, 64, 30
1, 591975, Control_c, 0, 64, 65
1, 591990, Control_c, 0, 64, 64
1, 592005, Control_c, 0, 64, 63
1, 592020, Control_c, 0, 64, 64
1, 592049, Control_c, 0, 64, 64
1, 592064, Control_c, 0, 64, 65
1, 592071, Note_off_c, 0, 75, 40
1, 592079, Control_c, 0, 64, 65
1, 592098, Note_off_c, 0, 55, 40
1, 592109, Control_c, 0, 64, 66
1, 592217, Note_on_c, 0, 55, 35
1, 592301, Control_c, 0, 64, 66
1, 592312, Note_off_c, 0, 64, 44
1, 592332, Control_c, 0, 64, 67
1, 592347, Control_c, 0, 64, 67
1, 592391, Control_c, 0, 64, 67
1, 592406, Control_c, 0, 64, 65
1, 592421, Control_c, 0, 64, 63
1, 592435, Control_c, 0, 64, 61
1, 592450, Control_c, 0, 64, 60
1, 592463, Poly_aftertouch_c, 0, 67, 0
1, 592464, Note_on_c, 0, 79, 58
1, 592476, Note_on_c, 0, 61, 35
1, 592487, Note_on_c, 0, 70, 22
1, 592495, Control_c, 0, 64, 61
1, 592509, Control_c, 0, 64, 63
1, 592524, Control_c, 0, 64, 64
1, 592547, Control_c, 0, 64, 66
1, 592562, Control_c, 0, 64, 67
1, 592576, Control_c, 0, 64, 69
1, 592591, Control_c, 0, 64, 70
1, 592606, Control_c, 0, 64, 70
1, 592621, Control_c, 0, 64, 71
1, 592652, Note_off_c, 0, 79, 39
1, 592680, Control_c, 0, 64, 71
1, 592748, Note_on_c, 0, 75, 62
1, 592757, Note_on_c, 0, 60, 39
1, 592783, Note_off_c, 0, 61, 31
1, 592783, Control_c, 0, 64, 71
1, 592789, Note_on_c, 0, 66, 36
1, 592798, Control_c, 0, 64, 70
1, 592813, Control_c, 0, 64, 69
1, 592814, Note_off_c, 0, 55, 27
1, 592828, Control_c, 0, 64, 68
1, 592842, Control_c, 0, 64, 68
1, 592857, Note_off_c, 0, 70, 39
1, 592932, Note_off_c, 0, 73, 61
1, 592939, Note_off_c, 0, 75, 64
1, 592957, Note_off_c, 0, 66, 57
1, 593000, Note_on_c, 0, 55, 34
1, 593012, Note_off_c, 0, 60, 61
1, 593065, Control_c, 0, 64, 68
1, 593125, Control_c, 0, 64, 69
1, 593170, Control_c, 0, 64, 68
1, 593184, Control_c, 0, 64, 66
1, 593199, Control_c, 0, 64, 62
1, 593214, Control_c, 0, 64, 57
1, 593224, Note_on_c, 0, 72, 61
1, 593228, Note_on_c, 0, 57, 40
1, 593228, Note_on_c, 0, 63, 52
1, 593229, Control_c, 0, 64, 54
1, 593273, Control_c, 0, 64, 56
1, 593295, Control_c, 0, 64, 59
1, 593310, Control_c, 0, 64, 62
1, 593325, Control_c, 0, 64, 64
1, 593340, Control_c, 0, 64, 67
1, 593346, Note_off_c, 0, 57, 62
1, 593355, Control_c, 0, 64, 69
1, 593370, Control_c, 0, 64, 71
1, 593385, Control_c, 0, 64, 72
1, 593393, Note_off_c, 0, 55, 62
1, 593394, Note_off_c, 0, 63, 58
1, 593399, Control_c, 0, 64, 73
1, 593429, Control_c, 0, 64, 74
1, 593485, Note_on_c, 0, 71, 70
1, 593487, Control_c, 0, 64, 73
1, 593494, Note_on_c, 0, 56, 55
1, 593495, Note_on_c, 0, 62, 44
1, 593502, Control_c, 0, 64, 71
1, 593517, Control_c, 0, 64, 65
1, 593521, Note_off_c, 0, 72, 60
1, 593532, Control_c, 0, 64, 57
1, 593546, Control_c, 0, 64, 48
1, 593558, Note_off_c, 0, 56, 0
1, 593558, Note_on_c, 0, 56, 11
1, 593561, Control_c, 0, 64, 43
1, 593576, Control_c, 0, 64, 42
1, 593591, Control_c, 0, 64, 44
1, 593605, Control_c, 0, 64, 48
1, 593620, Control_c, 0, 64, 54
1, 593635, Control_c, 0, 64, 60
1, 593650, Control_c, 0, 64, 64
1, 593665, Control_c, 0, 64, 66
1, 593680, Control_c, 0, 64, 67
1, 593694, Note_off_c, 0, 71, 63
1, 593695, Control_c, 0, 64, 69
1, 593709, Control_c, 0, 64, 70
1, 593724, Control_c, 0, 64, 71
1, 593739, Control_c, 0, 64, 72
1, 593742, Note_on_c, 0, 43, 49
1, 593743, Note_off_c, 0, 62, 53
1, 593754, Control_c, 0, 64, 73
1, 593759, Note_off_c, 0, 56, 42
1, 593769, Control_c, 0, 64, 74
1, 593798, Control_c, 0, 64, 74
1, 593828, Control_c, 0, 64, 75
1, 593872, Control_c, 0, 64, 75
1, 593937, Poly_aftertouch_c, 0, 45, 127
1, 593977, Control_c, 0, 64, 74
1, 593992, Control_c, 0, 64, 71
1, 593996, Note_on_c, 0, 77, 76
1, 594004, Note_on_c, 0, 59, 42
1, 594007, Control_c, 0, 64, 65
1, 594016, Note_on_c, 0, 68, 49
1, 594021, Control_c, 0, 64, 58
1, 594044, Control_c, 0, 64, 52
1, 594059, Control_c, 0, 64, 50
1, 594073, Control_c, 0, 64, 51
1, 594088, Control_c, 0, 64, 53
1, 594103, Control_c, 0, 64, 57
1, 594118, Control_c, 0, 64, 61
1, 594133, Control_c, 0, 64, 64
1, 594147, Control_c, 0, 64, 67
1, 594162, Control_c, 0, 64, 70
1, 594176, Note_off_c, 0, 59, 58
1, 594177, Control_c, 0, 64, 71
1, 594192, Control_c, 0, 64, 73
1, 594207, Control_c, 0, 64, 74
1, 594221, Control_c, 0, 64, 75
1, 594236, Control_c, 0, 64, 75
1, 594251, Control_c, 0, 64, 76
1, 594266, Control_c, 0, 64, 76
1, 594384, Control_c, 0, 64, 76
1, 594399, Control_c, 0, 64, 74
1, 594404, Note_on_c, 0, 73, 61
1, 594413, Note_on_c, 0, 64, 42
1, 594413, Control_c, 0, 64, 71
1, 594419, Note_on_c, 0, 58, 41
1, 594428, Control_c, 0, 64, 65
1, 594443, Note_off_c, 0, 77, 36
1, 594443, Control_c, 0, 64, 58
1, 594451, Poly_aftertouch_c, 0, 45, 0
1, 594458, Control_c, 0, 64, 50
1, 594467, Note_off_c, 0, 43, 39
1, 594473, Control_c, 0, 64, 42
1, 594474, Note_off_c, 0, 68, 54
1, 594488, Control_c, 0, 64, 35
1, 594503, Control_c, 0, 64, 0
1, 594606, Control_c, 0, 64, 31
1, 594621, Control_c, 0, 64, 42
1, 594636, Control_c, 0, 64, 53
1, 594651, Control_c, 0, 64, 60
1, 594666, Control_c, 0, 64, 63
1, 594680, Control_c, 0, 64, 64
1, 594695, Control_c, 0, 64, 65
1, 594711, Control_c, 0, 64, 66
1, 594726, Control_c, 0, 64, 67
1, 594741, Control_c, 0, 64, 68
1, 594755, Control_c, 0, 64, 69
1, 594770, Control_c, 0, 64, 70
1, 594792, Control_c, 0, 64, 71
1, 594807, Control_c, 0, 64, 71
1, 594822, Control_c, 0, 64, 72
1, 594834, Note_on_c, 0, 43, 37
1, 594837, Control_c, 0, 64, 73
1, 594851, Control_c, 0, 64, 73
1, 594866, Control_c, 0, 64, 74
1, 594896, Control_c, 0, 64, 74
1, 594911, Control_c, 0, 64, 75
1, 594941, Control_c, 0, 64, 75
1, 594959, Note_off_c, 0, 43, 39
1, 594986, Control_c, 0, 64, 76
1, 595063, Note_off_c, 0, 58, 36
1, 595201, Note_on_c, 0, 75, 58
1, 595212, Note_on_c, 0, 66, 47
1, 595222, Note_on_c, 0, 60, 29
1, 595231, Note_off_c, 0, 73, 56
1, 595277, Note_off_c, 0, 64, 44
1, 595326, Control_c, 0, 64, 75
1, 595385, Control_c, 0, 64, 75
1, 595400, Control_c, 0, 64, 74
1, 595415, Control_c, 0, 64, 74
1, 595430, Control_c, 0, 64, 73
1, 595445, Control_c, 0, 64, 72
1, 595460, Control_c, 0, 64, 72
1, 595460, Note_off_c, 0, 75, 63
1, 595463, Note_on_c, 0, 72, 58
1, 595466, Note_off_c, 0, 66, 61
1, 595474, Control_c, 0, 64, 71
1, 595476, Note_on_c, 0, 63, 40
1, 595489, Control_c, 0, 64, 70
1, 595495, Note_on_c, 0, 57, 34
1, 595505, Control_c, 0, 64, 70
1, 595517, Note_off_c, 0, 60, 40
1, 595542, Control_c, 0, 64, 69
1, 595572, Control_c, 0, 64, 69
1, 595586, Control_c, 0, 64, 68
1, 595611, Note_off_c, 0, 63, 36
1, 595616, Control_c, 0, 64, 68
1, 595631, Control_c, 0, 64, 67
1, 595646, Control_c, 0, 64, 67
1, 595660, Control_c, 0, 64, 66
1, 595675, Control_c, 0, 64, 66
1, 595680, Note_off_c, 0, 72, 46
1, 595690, Control_c, 0, 64, 65
1, 595691, Note_on_c, 0, 73, 69
1, 595697, Note_on_c, 0, 64, 54
1, 595709, Note_on_c, 0, 58, 49
1, 595719, Control_c, 0, 64, 65
1, 595720, Note_off_c, 0, 57, 39
1, 595779, Control_c, 0, 64, 64
1, 595838, Control_c, 0, 64, 64
1, 595853, Control_c, 0, 64, 63
1, 595868, Control_c, 0, 64, 62
1, 595883, Control_c, 0, 64, 61
1, 595898, Control_c, 0, 64, 61
1, 595900, Note_on_c, 0, 70, 71
1, 595900, Note_off_c, 0, 73, 62
1, 595912, Note_off_c, 0, 58, 56
1, 595917, Note_on_c, 0, 55, 55
1, 595919, Note_on_c, 0, 61, 52
1, 595934, Note_off_c, 0, 64, 61
1, 595972, Control_c, 0, 64, 61
1, 595986, Control_c, 0, 64, 62
1, 596001, Control_c, 0, 64, 62
1, 596016, Control_c, 0, 64, 63
1, 596106, Note_off_c, 0, 61, 55
1, 596124, Note_off_c, 0, 55, 60
1, 596134, Control_c, 0, 64, 62
1, 596142, Note_on_c, 0, 72, 58
1, 596142, Note_off_c, 0, 70, 59
1, 596145, Note_on_c, 0, 57, 43
1, 596149, Control_c, 0, 64, 61
1, 596164, Control_c, 0, 64, 60
1, 596174, Note_on_c, 0, 63, 40
1, 596179, Control_c, 0, 64, 60
1, 596253, Control_c, 0, 64, 60
1, 596340, Note_off_c, 0, 72, 58
1, 596349, Note_off_c, 0, 63, 54
1, 596369, Note_on_c, 0, 69, 54
1, 596370, Note_on_c, 0, 54, 42
1, 596375, Note_off_c, 0, 57, 55
1, 596381, Note_on_c, 0, 60, 39
1, 596409, Control_c, 0, 64, 61
1, 596439, Control_c, 0, 64, 62
1, 596454, Control_c, 0, 64, 62
1, 596483, Control_c, 0, 64, 63
1, 596528, Control_c, 0, 64, 63
1, 596551, Note_off_c, 0, 60, 61
1, 596579, Note_on_c, 0, 61, 49
1, 596584, Note_on_c, 0, 55, 40
1, 596586, Note_off_c, 0, 69, 34
1, 596589, Note_on_c, 0, 70, 59
1, 596598, Note_off_c, 0, 54, 38
1, 596631, Control_c, 0, 64, 64
1, 596654, Note_off_c, 0, 61, 61
1, 596706, Control_c, 0, 64, 64
1, 596795, Control_c, 0, 64, 64
1, 596809, Control_c, 0, 64, 63
1, 596822, Note_off_c, 0, 70, 58
1, 596824, Control_c, 0, 64, 61
1, 596839, Note_on_c, 0, 67, 53
1, 596839, Control_c, 0, 64, 58
1, 596840, Note_on_c, 0, 52, 45
1, 596854, Control_c, 0, 64, 54
1, 596856, Note_on_c, 0, 58, 36
1, 596869, Control_c, 0, 64, 50
1, 596874, Note_off_c, 0, 55, 37
1, 596883, Control_c, 0, 64, 49
1, 596898, Control_c, 0, 64, 48
1, 596913, Control_c, 0, 64, 49
1, 596927, Control_c, 0, 64, 51
1, 596942, Control_c, 0, 64, 54
1, 596957, Control_c, 0, 64, 58
1, 596972, Control_c, 0, 64, 61
1, 596987, Control_c, 0, 64, 63
1, 597002, Control_c, 0, 64, 65
1, 597011, Note_off_c, 0, 58, 63
1, 597016, Control_c, 0, 64, 67
1, 597039, Control_c, 0, 64, 68
1, 597054, Control_c, 0, 64, 68
1, 597114, Control_c, 0, 64, 68
1, 597123, Note_on_c, 0, 70, 72
1, 597136, Note_on_c, 0, 55, 51
1, 597145, Note_on_c, 0, 61, 51
1, 597158, Control_c, 0, 67, 122
1, 597173, Control_c, 0, 67, 105
1, 597188, Control_c, 0, 64, 68
1, 597188, Control_c, 0, 67, 89
1, 597203, Control_c, 0, 67, 74
1, 597213, Note_off_c, 0, 52, 35
1, 597218, Control_c, 0, 64, 70
1, 597218, Control_c, 0, 67, 62
1, 597232, Control_c, 0, 64, 71
1, 597232, Control_c, 0, 67, 54
1, 597247, Control_c, 0, 64, 71
1, 597247, Control_c, 0, 67, 48
1, 597262, Control_c, 0, 64, 72
1, 597262, Control_c, 0, 67, 45
1, 597266, Note_off_c, 0, 67, 25
1, 597273, Note_off_c, 0, 61, 38
1, 597277, Control_c, 0, 67, 42
1, 597292, Control_c, 0, 64, 73
1, 597292, Control_c, 0, 67, 41
1, 597306, Control_c, 0, 67, 39
1, 597321, Control_c, 0, 67, 38
1, 597336, Control_c, 0, 67, 37
1, 597351, Control_c, 0, 64, 71
1, 597361, Note_on_c, 0, 72, 73
1, 597365, Control_c, 0, 64, 66
1, 597365, Control_c, 0, 67, 0
1, 597372, Note_off_c, 0, 55, 61
1, 597375, Note_on_c, 0, 57, 53
1, 597377, Note_on_c, 0, 63, 62
1, 597380, Control_c, 0, 64, 59
1, 597387, Note_off_c, 0, 70, 61
1, 597395, Control_c, 0, 64, 55
1, 597410, Control_c, 0, 64, 54
1, 597425, Control_c, 0, 64, 56
1, 597439, Control_c, 0, 64, 59
1, 597450, Note_off_c, 0, 63, 60
1, 597454, Control_c, 0, 64, 62
1, 597469, Control_c, 0, 64, 65
1, 597484, Control_c, 0, 64, 67
1, 597499, Control_c, 0, 64, 68
1, 597513, Control_c, 0, 64, 69
1, 597528, Control_c, 0, 64, 70
1, 597543, Control_c, 0, 64, 70
1, 597558, Control_c, 0, 64, 71
1, 597558, Control_c, 0, 67, 37
1, 597573, Control_c, 0, 64, 71
1, 597573, Control_c, 0, 67, 38
1, 597603, Control_c, 0, 67, 39
1, 597614, Note_off_c, 0, 57, 59
1, 597632, Control_c, 0, 67, 39
1, 597647, Control_c, 0, 67, 40
1, 597648, Note_on_c, 0, 73, 71
1, 597657, Note_on_c, 0, 58, 46
1, 597659, Note_on_c, 0, 64, 57
1, 597662, Control_c, 0, 64, 71
1, 597671, Note_off_c, 0, 72, 60
1, 597676, Control_c, 0, 64, 69
1, 597676, Control_c, 0, 67, 41
1, 597691, Control_c, 0, 64, 64
1, 597691, Control_c, 0, 67, 41
1, 597706, Control_c, 0, 64, 54
1, 597721, Control_c, 0, 64, 41
1, 597721, Control_c, 0, 67, 42
1, 597736, Control_c, 0, 64, 0
1, 597803, Control_c, 0, 64, 37
1, 597817, Control_c, 0, 64, 48
1, 597832, Control_c, 0, 64, 60
1, 597847, Control_c, 0, 64, 64
1, 597862, Control_c, 0, 64, 67
1, 597877, Control_c, 0, 64, 68
1, 597891, Control_c, 0, 64, 69
1, 597891, Control_c, 0, 67, 43
1, 597907, Control_c, 0, 64, 71
1, 597922, Control_c, 0, 64, 72
1, 597922, Control_c, 0, 67, 43
1, 597937, Control_c, 0, 64, 73
1, 597937, Control_c, 0, 67, 44
1, 597952, Control_c, 0, 64, 74
1, 597952, Control_c, 0, 67, 45
1, 597964, Note_off_c, 0, 73, 64
1, 597966, Control_c, 0, 64, 75
1, 597966, Control_c, 0, 67, 46
1, 597981, Control_c, 0, 67, 47
1, 597996, Control_c, 0, 64, 76
1, 597996, Control_c, 0, 67, 48
1, 598024, Note_on_c, 0, 43, 50
1, 598026, Control_c, 0, 64, 76
1, 598053, Note_off_c, 0, 58, 38
1, 598056, Control_c, 0, 67, 49
1, 598100, Control_c, 0, 64, 77
1, 598248, Control_c, 0, 64, 76
1, 598251, Note_off_c, 0, 64, 54
1, 598276, Note_on_c, 0, 70, 61
1, 598292, Control_c, 0, 67, 49
1, 598294, Note_on_c, 0, 55, 44
1, 598294, Note_on_c, 0, 61, 40
1, 598336, Control_c, 0, 67, 50
1, 598440, Control_c, 0, 67, 51
1, 598470, Control_c, 0, 64, 76
1, 598485, Control_c, 0, 64, 74
1, 598485, Note_off_c, 0, 61, 40
1, 598499, Control_c, 0, 64, 70
1, 598514, Control_c, 0, 64, 66
1, 598515, Note_off_c, 0, 70, 65
1, 598520, Note_on_c, 0, 67, 66
1, 598530, Note_off_c, 0, 55, 59
1, 598533, Note_on_c, 0, 52, 50
1, 598536, Control_c, 0, 64, 62
1, 598542, Note_on_c, 0, 58, 58
1, 598566, Control_c, 0, 67, 51
1, 598581, Control_c, 0, 64, 63
1, 598595, Control_c, 0, 64, 64
1, 598610, Control_c, 0, 64, 66
1, 598625, Control_c, 0, 64, 68
1, 598640, Control_c, 0, 64, 69
1, 598655, Control_c, 0, 64, 70
1, 598694, Note_off_c, 0, 58, 60
1, 598700, Control_c, 0, 64, 69
1, 598715, Control_c, 0, 64, 67
1, 598715, Control_c, 0, 67, 51
1, 598717, Note_off_c, 0, 67, 38
1, 598722, Note_off_c, 0, 52, 59
1, 598729, Control_c, 0, 64, 63
1, 598742, Note_on_c, 0, 60, 55
1, 598744, Control_c, 0, 64, 58
1, 598753, Note_on_c, 0, 54, 46
1, 598758, Note_on_c, 0, 69, 68
1, 598759, Control_c, 0, 64, 58
1, 598759, Control_c, 0, 67, 50
1, 598789, Control_c, 0, 64, 59
1, 598804, Control_c, 0, 64, 62
1, 598818, Control_c, 0, 64, 64
1, 598833, Control_c, 0, 64, 65
1, 598848, Control_c, 0, 64, 68
1, 598863, Control_c, 0, 64, 69
1, 598878, Control_c, 0, 64, 70
1, 598931, Note_off_c, 0, 54, 55
1, 598936, Control_c, 0, 64, 69
1, 598943, Note_off_c, 0, 69, 61
1, 598944, Note_off_c, 0, 60, 62
1, 598946, Note_on_c, 0, 66, 74
1, 598951, Control_c, 0, 64, 64
1, 598958, Note_on_c, 0, 51, 56
1, 598961, Note_on_c, 0, 57, 52
1, 598966, Control_c, 0, 64, 58
1, 598981, Control_c, 0, 64, 53
1, 598996, Control_c, 0, 64, 52
1, 598996, Control_c, 0, 67, 49
1, 599010, Control_c, 0, 64, 54
1, 599010, Control_c, 0, 67, 49
1, 599025, Control_c, 0, 64, 59
1, 599025, Control_c, 0, 67, 48
1, 599040, Control_c, 0, 64, 64
1, 599055, Control_c, 0, 64, 67
1, 599070, Control_c, 0, 64, 69
1, 599070, Control_c, 0, 67, 47
1, 599084, Control_c, 0, 64, 70
1, 599084, Control_c, 0, 67, 47
1, 599099, Control_c, 0, 64, 69
1, 599099, Control_c, 0, 67, 46
1, 599114, Control_c, 0, 64, 68
1, 599114, Control_c, 0, 67, 45
1, 599129, Control_c, 0, 64, 63
1, 599129, Control_c, 0, 67, 45
1, 599141, Note_off_c, 0, 66, 62
1, 599144, Control_c, 0, 64, 55
1, 599144, Control_c, 0, 67, 44
1, 599145, Note_off_c, 0, 57, 55
1, 599159, Control_c, 0, 64, 51
1, 599159, Control_c, 0, 67, 43
1, 599160, Note_off_c, 0, 51, 56
1, 599162, Note_on_c, 0, 67, 68
1, 599166, Note_on_c, 0, 52, 46
1, 599174, Control_c, 0, 64, 51
1, 599174, Control_c, 0, 67, 42
1, 599189, Control_c, 0, 64, 53
1, 599189, Control_c, 0, 67, 41
1, 599193, Note_on_c, 0, 58, 52
1, 599203, Control_c, 0, 64, 58
1, 599203, Control_c, 0, 67, 40
1, 599218, Control_c, 0, 64, 63
1, 599218, Control_c, 0, 67, 39
1, 599233, Control_c, 0, 64, 66
1, 599233, Control_c, 0, 67, 37
1, 599248, Control_c, 0, 64, 69
1, 599248, Control_c, 0, 67, 0
1, 599263, Control_c, 0, 64, 69
1, 599299, Control_c, 0, 64, 68
1, 599314, Control_c, 0, 64, 64
1, 599329, Control_c, 0, 64, 58
1, 599344, Control_c, 0, 64, 53
1, 599350, Note_off_c, 0, 67, 60
1, 599359, Control_c, 0, 64, 52
1, 599362, Note_off_c, 0, 52, 51
1, 599370, Note_off_c, 0, 58, 62
1, 599373, Control_c, 0, 64, 53
1, 599380, Note_on_c, 0, 64, 67
1, 599382, Note_on_c, 0, 55, 59
1, 599385, Note_on_c, 0, 49, 46
1, 599388, Control_c, 0, 64, 58
1, 599403, Control_c, 0, 64, 62
1, 599418, Control_c, 0, 64, 65
1, 599433, Control_c, 0, 64, 68
1, 599448, Control_c, 0, 64, 70
1, 599462, Control_c, 0, 64, 71
1, 599508, Control_c, 0, 64, 71
1, 599523, Control_c, 0, 64, 69
1, 599531, Note_off_c, 0, 55, 38
1, 599537, Control_c, 0, 64, 66
1, 599552, Control_c, 0, 64, 65
1, 599567, Control_c, 0, 64, 64
1, 599573, Note_off_c, 0, 64, 65
1, 599575, Note_on_c, 0, 66, 77
1, 599582, Control_c, 0, 64, 65
1, 599585, Note_on_c, 0, 51, 58
1, 599590, Note_on_c, 0, 57, 39
1, 599597, Control_c, 0, 64, 67
1, 599612, Control_c, 0, 64, 69
1, 599624, Note_off_c, 0, 57, 53
1, 599627, Control_c, 0, 64, 70
1, 599640, Note_off_c, 0, 49, 33
1, 599641, Control_c, 0, 64, 71
1, 599656, Control_c, 0, 64, 72
1, 599701, Control_c, 0, 64, 71
1, 599715, Control_c, 0, 64, 67
1, 599730, Control_c, 0, 64, 61
1, 599745, Control_c, 0, 64, 53
1, 599752, Note_off_c, 0, 51, 56
1, 599759, Control_c, 0, 64, 49
1, 599772, Note_on_c, 0, 63, 74
1, 599774, Control_c, 0, 64, 48
1, 599777, Note_on_c, 0, 48, 60
1, 599789, Control_c, 0, 64, 51
1, 599791, Note_on_c, 0, 54, 51
1, 599801, Note_off_c, 0, 66, 63
1, 599804, Control_c, 0, 64, 55
1, 599819, Control_c, 0, 64, 58
1, 599833, Control_c, 0, 64, 60
1, 599848, Control_c, 0, 64, 63
1, 599863, Control_c, 0, 64, 66
1, 599877, Control_c, 0, 64, 68
1, 599892, Control_c, 0, 64, 70
1, 599903, Note_off_c, 0, 54, 58
1, 599907, Control_c, 0, 64, 71
1, 599937, Control_c, 0, 64, 70
1, 599952, Control_c, 0, 64, 68
1, 599967, Control_c, 0, 64, 61
1, 599975, Note_on_c, 0, 64, 70
1, 599982, Control_c, 0, 64, 52
1, 599988, Note_on_c, 0, 49, 57
1, 599994, Note_off_c, 0, 48, 57
1, 599996, Control_c, 0, 64, 48
1, 599999, Note_on_c, 0, 55, 59
1, 600033, Control_c, 0, 64, 50
1, 600048, Control_c, 0, 64, 55
1, 600063, Control_c, 0, 64, 59
1, 600077, Control_c, 0, 64, 61
1, 600078, Note_off_c, 0, 55, 56
1, 600092, Control_c, 0, 64, 62
1, 600107, Control_c, 0, 64, 64
1, 600122, Control_c, 0, 64, 65
1, 600137, Control_c, 0, 64, 67
1, 600151, Control_c, 0, 64, 68
1, 600181, Control_c, 0, 64, 67
1, 600196, Control_c, 0, 64, 62
1, 600209, Note_on_c, 0, 66, 78
1, 600211, Control_c, 0, 64, 55
1, 600218, Note_on_c, 0, 51, 51
1, 600221, Note_off_c, 0, 49, 54
1, 600225, Control_c, 0, 64, 49
1, 600227, Note_off_c, 0, 63, 17
1, 600229, Note_on_c, 0, 57, 38
1, 600240, Control_c, 0, 64, 45
1, 600270, Control_c, 0, 64, 47
1, 600274, Note_off_c, 0, 64, 52
1, 600284, Control_c, 0, 64, 52
1, 600300, Control_c, 0, 64, 57
1, 600315, Control_c, 0, 64, 61
1, 600330, Control_c, 0, 64, 64
1, 600345, Control_c, 0, 64, 66
1, 600360, Control_c, 0, 64, 69
1, 600374, Control_c, 0, 64, 70
1, 600389, Control_c, 0, 64, 70
1, 600391, Note_off_c, 0, 66, 62
1, 600434, Control_c, 0, 64, 69
1, 600435, Note_off_c, 0, 57, 38
1, 600448, Control_c, 0, 64, 64
1, 600457, Note_on_c, 0, 67, 74
1, 600459, Note_on_c, 0, 52, 48
1, 600463, Control_c, 0, 64, 52
1, 600476, Note_on_c, 0, 58, 59
1, 600478, Control_c, 0, 64, 29
1, 600493, Control_c, 0, 64, 0
1, 600498, Note_off_c, 0, 51, 54
1, 600503, Note_off_c, 0, 43, 56
1, 600537, Control_c, 0, 64, 34
1, 600552, Control_c, 0, 64, 49
1, 600567, Control_c, 0, 64, 61
1, 600581, Control_c, 0, 64, 67
1, 600586, Note_off_c, 0, 58, 61
1, 600596, Control_c, 0, 64, 70
1, 600611, Control_c, 0, 64, 72
1, 600626, Control_c, 0, 64, 73
1, 600632, Note_off_c, 0, 67, 64
1, 600641, Control_c, 0, 64, 74
1, 600655, Control_c, 0, 64, 74
1, 600685, Note_on_c, 0, 43, 59
1, 600711, Note_off_c, 0, 52, 62
1, 600781, Control_c, 0, 64, 75
1, 600826, Poly_aftertouch_c, 0, 70, 127
1, 600851, Poly_aftertouch_c, 0, 70, 0
1, 600885, Control_c, 0, 64, 74
1, 600900, Control_c, 0, 64, 68
1, 600900, Note_on_c, 0, 69, 69
1, 600906, Note_on_c, 0, 54, 56
1, 600915, Control_c, 0, 64, 60
1, 600918, Note_on_c, 0, 60, 47
1, 600929, Control_c, 0, 64, 51
1, 600944, Control_c, 0, 64, 49
1, 600959, Control_c, 0, 64, 51
1, 600968, Note_off_c, 0, 60, 50
1, 600974, Control_c, 0, 64, 57
1, 600989, Control_c, 0, 64, 62
1, 601004, Control_c, 0, 64, 66
1, 601019, Control_c, 0, 64, 68
1, 601033, Control_c, 0, 64, 70
1, 601048, Control_c, 0, 64, 72
1, 601063, Control_c, 0, 64, 73
1, 601073, Note_off_c, 0, 54, 60
1, 601078, Control_c, 0, 64, 74
1, 601093, Control_c, 0, 64, 75
1, 601141, Note_on_c, 0, 70, 74
1, 601153, Control_c, 0, 64, 72
1, 601156, Note_on_c, 0, 55, 54
1, 601168, Control_c, 0, 64, 64
1, 601170, Note_off_c, 0, 69, 55
1, 601173, Note_on_c, 0, 61, 41
1, 601183, Control_c, 0, 64, 48
1, 601197, Control_c, 0, 64, 0
1, 601218, Note_off_c, 0, 61, 0
1, 601218, Note_on_c, 0, 61, 17
1, 601257, Control_c, 0, 64, 32
1, 601261, Note_off_c, 0, 43, 36
1, 601271, Control_c, 0, 64, 46
1, 601286, Control_c, 0, 64, 59
1, 601301, Control_c, 0, 64, 66
1, 601316, Control_c, 0, 64, 68
1, 601330, Control_c, 0, 64, 69
1, 601345, Control_c, 0, 64, 70
1, 601349, Note_off_c, 0, 61, 58
1, 601360, Control_c, 0, 64, 71
1, 601375, Control_c, 0, 64, 73
1, 601376, Note_off_c, 0, 70, 64
1, 601390, Control_c, 0, 64, 74
1, 601403, Note_on_c, 0, 43, 50
1, 601404, Control_c, 0, 64, 74
1, 601409, Note_off_c, 0, 55, 60
1, 601419, Control_c, 0, 64, 75
1, 601434, Control_c, 0, 64, 75
1, 601449, Control_c, 0, 64, 76
1, 601464, Control_c, 0, 64, 76
1, 601478, Control_c, 0, 64, 77
1, 601493, Control_c, 0, 64, 77
1, 601508, Control_c, 0, 64, 78
1, 601545, Control_c, 0, 64, 78
1, 601590, Control_c, 0, 64, 78
1, 601604, Control_c, 0, 64, 75
1, 601617, Note_on_c, 0, 73, 72
1, 601619, Control_c, 0, 64, 67
1, 601634, Control_c, 0, 64, 58
1, 601638, Note_on_c, 0, 58, 49
1, 601643, Note_on_c, 0, 64, 42
1, 601649, Control_c, 0, 64, 53
1, 601663, Control_c, 0, 64, 54
1, 601678, Control_c, 0, 64, 57
1, 601693, Control_c, 0, 64, 62
1, 601704, Note_off_c, 0, 64, 57
1, 601708, Control_c, 0, 64, 66
1, 601724, Control_c, 0, 64, 70
1, 601738, Control_c, 0, 64, 72
1, 601746, Note_off_c, 0, 43, 37
1, 601753, Control_c, 0, 64, 74
1, 601768, Control_c, 0, 64, 76
1, 601783, Control_c, 0, 64, 77
1, 601798, Control_c, 0, 64, 78
1, 601802, Note_off_c, 0, 58, 59
1, 601842, Control_c, 0, 64, 78
1, 601857, Control_c, 0, 64, 73
1, 601866, Note_on_c, 0, 75, 71
1, 601871, Control_c, 0, 64, 64
1, 601886, Control_c, 0, 64, 56
1, 601890, Note_on_c, 0, 66, 49
1, 601896, Note_on_c, 0, 60, 47
1, 601902, Control_c, 0, 64, 55
1, 601917, Control_c, 0, 64, 57
1, 601932, Control_c, 0, 64, 61
1, 601946, Control_c, 0, 64, 65
1, 601961, Control_c, 0, 64, 69
1, 601976, Control_c, 0, 64, 71
1, 601991, Control_c, 0, 64, 73
1, 602006, Control_c, 0, 64, 74
1, 602014, Note_off_c, 0, 66, 48
1, 602021, Control_c, 0, 64, 75
1, 602035, Control_c, 0, 64, 76
1, 602050, Control_c, 0, 64, 77
1, 602051, Note_off_c, 0, 75, 56
1, 602065, Control_c, 0, 64, 77
1, 602100, Note_off_c, 0, 73, 53
1, 602125, Control_c, 0, 64, 75
1, 602134, Note_on_c, 0, 76, 67
1, 602140, Control_c, 0, 64, 68
1, 602144, Note_on_c, 0, 61, 48
1, 602150, Note_off_c, 0, 60, 54
1, 602154, Control_c, 0, 64, 58
1, 602169, Control_c, 0, 64, 48
1, 602170, Note_on_c, 0, 67, 40
1, 602184, Control_c, 0, 64, 44
1, 602199, Control_c, 0, 64, 46
1, 602213, Note_off_c, 0, 67, 47
1, 602214, Control_c, 0, 64, 53
1, 602228, Control_c, 0, 64, 60
1, 602243, Control_c, 0, 64, 64
1, 602258, Control_c, 0, 64, 66
1, 602280, Control_c, 0, 64, 67
1, 602295, Control_c, 0, 64, 69
1, 602310, Control_c, 0, 64, 70
1, 602325, Control_c, 0, 64, 72
1, 602339, Control_c, 0, 64, 73
1, 602354, Control_c, 0, 64, 73
1, 602414, Control_c, 0, 64, 71
1, 602424, Note_on_c, 0, 78, 65
1, 602428, Note_on_c, 0, 63, 46
1, 602428, Control_c, 0, 64, 64
1, 602430, Note_off_c, 0, 76, 57
1, 602443, Control_c, 0, 64, 53
1, 602443, Control_c, 0, 67, 39
1, 602458, Control_c, 0, 64, 43
1, 602458, Control_c, 0, 67, 45
1, 602464, Note_on_c, 0, 69, 35
1, 602473, Control_c, 0, 64, 39
1, 602473, Control_c, 0, 67, 49
1, 602487, Control_c, 0, 64, 42
1, 602487, Control_c, 0, 67, 51
1, 602489, Note_off_c, 0, 61, 29
1, 602502, Control_c, 0, 64, 50
1, 602502, Control_c, 0, 67, 53
1, 602517, Control_c, 0, 64, 58
1, 602517, Control_c, 0, 67, 54
1, 602532, Control_c, 0, 64, 63
1, 602547, Control_c, 0, 64, 66
1, 602561, Control_c, 0, 64, 68
1, 602576, Control_c, 0, 64, 70
1, 602591, Control_c, 0, 64, 72
1, 602606, Control_c, 0, 64, 73
1, 602621, Control_c, 0, 64, 75
1, 602621, Control_c, 0, 67, 54
1, 602635, Control_c, 0, 64, 76
1, 602635, Control_c, 0, 67, 55
1, 602650, Control_c, 0, 64, 76
1, 602662, Note_off_c, 0, 78, 60
1, 602665, Control_c, 0, 67, 56
1, 602679, Control_c, 0, 67, 56
1, 602695, Control_c, 0, 67, 57
1, 602725, Control_c, 0, 67, 58
1, 602735, Note_off_c, 0, 69, 34
1, 602740, Control_c, 0, 64, 73
1, 602740, Control_c, 0, 67, 60
1, 602746, Note_on_c, 0, 79, 56
1, 602751, Note_on_c, 0, 64, 39
1, 602755, Control_c, 0, 64, 65
1, 602755, Control_c, 0, 67, 67
1, 602766, Note_on_c, 0, 70, 41
1, 602769, Control_c, 0, 64, 54
1, 602769, Control_c, 0, 67, 93
1, 602772, Note_off_c, 0, 63, 40
1, 602784, Control_c, 0, 64, 45
1, 602784, Control_c, 0, 67, 113
1, 602799, Control_c, 0, 64, 43
1, 602799, Control_c, 0, 67, 122
1, 602814, Control_c, 0, 64, 46
1, 602814, Control_c, 0, 67, 127
1, 602829, Control_c, 0, 64, 55
1, 602843, Control_c, 0, 64, 62
1, 602858, Control_c, 0, 64, 65
1, 602873, Control_c, 0, 64, 68
1, 602888, Control_c, 0, 64, 70
1, 602898, Note_off_c, 0, 70, 57
1, 602903, Control_c, 0, 64, 72
1, 602918, Control_c, 0, 64, 73
1, 602933, Control_c, 0, 64, 75
1, 602948, Control_c, 0, 64, 76
1, 602962, Control_c, 0, 64, 76
1, 602965, Note_off_c, 0, 79, 63
1, 602977, Control_c, 0, 64, 77
1, 602992, Control_c, 0, 64, 77
1, 603007, Control_c, 0, 64, 78
1, 603092, Note_on_c, 0, 82, 63
1, 603103, Control_c, 0, 64, 76
1, 603114, Note_on_c, 0, 67, 40
1, 603115, Note_on_c, 0, 73, 31
1, 603117, Control_c, 0, 64, 69
1, 603132, Control_c, 0, 64, 60
1, 603146, Note_off_c, 0, 64, 45
1, 603147, Control_c, 0, 64, 53
1, 603162, Control_c, 0, 64, 53
1, 603177, Control_c, 0, 64, 55
1, 603192, Control_c, 0, 64, 60
1, 603207, Control_c, 0, 64, 64
1, 603222, Control_c, 0, 64, 67
1, 603237, Control_c, 0, 64, 71
1, 603251, Control_c, 0, 64, 73
1, 603266, Control_c, 0, 64, 75
1, 603281, Control_c, 0, 64, 76
1, 603291, Note_off_c, 0, 73, 41
1, 603295, Control_c, 0, 64, 78
1, 603310, Control_c, 0, 64, 79
1, 603325, Control_c, 0, 64, 79
1, 603340, Control_c, 0, 64, 80
1, 603369, Control_c, 0, 64, 81
1, 603548, Control_c, 0, 64, 80
1, 603549, Note_on_c, 0, 85, 60
1, 603562, Note_on_c, 0, 70, 41
1, 603563, Control_c, 0, 64, 77
1, 603578, Control_c, 0, 64, 70
1, 603585, Note_on_c, 0, 76, 27
1, 603592, Control_c, 0, 64, 61
1, 603607, Note_off_c, 0, 82, 56
1, 603607, Control_c, 0, 64, 50
1, 603618, Note_off_c, 0, 67, 37
1, 603622, Control_c, 0, 64, 38
1, 603637, Control_c, 0, 64, 29
1, 603667, Control_c, 0, 64, 35
1, 603681, Control_c, 0, 64, 45
1, 603696, Control_c, 0, 64, 56
1, 603711, Control_c, 0, 64, 64
1, 603726, Control_c, 0, 64, 68
1, 603740, Control_c, 0, 64, 72
1, 603755, Control_c, 0, 64, 73
1, 603778, Control_c, 0, 64, 74
1, 603793, Control_c, 0, 64, 76
1, 603807, Control_c, 0, 64, 78
1, 603822, Control_c, 0, 64, 80
1, 603835, Note_off_c, 0, 70, 58
1, 603837, Control_c, 0, 64, 82
1, 603851, Control_c, 0, 64, 84
1, 603866, Control_c, 0, 64, 86
1, 603880, Note_off_c, 0, 76, 43
1, 603881, Control_c, 0, 64, 87
1, 603896, Control_c, 0, 64, 89
1, 603911, Control_c, 0, 64, 90
1, 603925, Control_c, 0, 64, 91
1, 603940, Control_c, 0, 64, 92
1, 603955, Control_c, 0, 64, 93
1, 603970, Control_c, 0, 64, 93
1, 603985, Control_c, 0, 64, 94
1, 604504, Control_c, 0, 64, 93
1, 604526, Control_c, 0, 64, 92
1, 604541, Control_c, 0, 64, 90
1, 604546, Note_on_c, 0, 88, 61
1, 604555, Control_c, 0, 64, 87
1, 604569, Note_on_c, 0, 55, 31
1, 604570, Control_c, 0, 64, 83
1, 604575, Note_on_c, 0, 71, 35
1, 604575, Note_on_c, 0, 79, 31
1, 604585, Control_c, 0, 64, 78
1, 604586, Note_on_c, 0, 74, 31
1, 604600, Control_c, 0, 64, 73
1, 604611, Note_off_c, 0, 85, 19
1, 604615, Control_c, 0, 64, 66
1, 604629, Control_c, 0, 64, 60
1, 604644, Control_c, 0, 64, 54
1, 604659, Control_c, 0, 64, 49
1, 604674, Control_c, 0, 64, 45
1, 604688, Control_c, 0, 64, 43
1, 604703, Control_c, 0, 64, 39
1, 604719, Control_c, 0, 64, 35
1, 604734, Control_c, 0, 64, 32
1, 604808, Control_c, 0, 64, 33
1, 604823, Control_c, 0, 64, 37
1, 604837, Control_c, 0, 64, 45
1, 604852, Control_c, 0, 64, 53
1, 604867, Control_c, 0, 64, 60
1, 604882, Control_c, 0, 64, 64
1, 604897, Control_c, 0, 64, 66
1, 604912, Control_c, 0, 64, 67
1, 604927, Control_c, 0, 64, 69
1, 604941, Control_c, 0, 64, 71
1, 604956, Control_c, 0, 64, 73
1, 604971, Control_c, 0, 64, 76
1, 604986, Control_c, 0, 64, 78
1, 605001, Control_c, 0, 64, 79
1, 605015, Control_c, 0, 64, 81
1, 605030, Control_c, 0, 64, 82
1, 605045, Control_c, 0, 64, 84
1, 605060, Control_c, 0, 64, 84
1, 605074, Control_c, 0, 64, 85
1, 605090, Control_c, 0, 64, 85
1, 605120, Control_c, 0, 64, 86
1, 605217, Note_on_c, 0, 62, 31
1, 605359, Note_off_c, 0, 71, 35
1, 605690, Note_on_c, 0, 71, 30
1, 605768, Note_off_c, 0, 62, 41
1, 606060, Note_off_c, 0, 74, 41
1, 606143, Note_off_c, 0, 79, 41
1, 606477, Note_on_c, 0, 62, 30
1, 606579, Note_off_c, 0, 71, 39
1, 606728, Note_off_c, 0, 88, 57
1, 606736, Note_on_c, 0, 71, 31
1, 606761, Note_off_c, 0, 62, 41
1, 607008, Note_on_c, 0, 88, 59
1, 607011, Note_on_c, 0, 62, 33
1, 607025, Note_on_c, 0, 74, 38
1, 607031, Note_on_c, 0, 79, 34
1, 607080, Note_off_c, 0, 71, 40
1, 607235, Note_off_c, 0, 62, 40
1, 607249, Note_on_c, 0, 71, 31
1, 607335, Note_off_c, 0, 74, 39
1, 607550, Note_on_c, 0, 62, 27
1, 607660, Note_off_c, 0, 79, 39
1, 607674, Note_off_c, 0, 71, 38
1, 608168, Note_on_c, 0, 71, 33
1, 608196, Note_off_c, 0, 62, 41
1, 608409, Note_off_c, 0, 88, 34
1, 608489, Note_on_c, 0, 62, 18
1, 608512, Note_off_c, 0, 71, 37
1, 608536, Note_off_c, 0, 55, 40
1, 608656, Control_c, 0, 64, 85
1, 608730, Control_c, 0, 64, 85
1, 608743, Note_on_c, 0, 88, 52
1, 608745, Control_c, 0, 64, 84
1, 608760, Control_c, 0, 64, 81
1, 608763, Note_on_c, 0, 79, 37
1, 608765, Note_on_c, 0, 71, 29
1, 608766, Note_on_c, 0, 74, 35
1, 608775, Control_c, 0, 64, 77
1, 608781, Note_on_c, 0, 55, 29
1, 608789, Control_c, 0, 64, 73
1, 608804, Control_c, 0, 64, 69
1, 608819, Control_c, 0, 64, 65
1, 608833, Control_c, 0, 64, 62
1, 608846, Note_off_c, 0, 62, 44
1, 608878, Control_c, 0, 64, 62
1, 608893, Control_c, 0, 64, 63
1, 608907, Control_c, 0, 64, 64
1, 608922, Control_c, 0, 64, 66
1, 608937, Control_c, 0, 64, 68
1, 608952, Control_c, 0, 64, 71
1, 608967, Control_c, 0, 64, 72
1, 608981, Control_c, 0, 64, 73
1, 608996, Control_c, 0, 64, 74
1, 609019, Control_c, 0, 64, 75
1, 609026, Note_on_c, 0, 62, 23
1, 609034, Control_c, 0, 64, 76
1, 609048, Control_c, 0, 64, 78
1, 609063, Control_c, 0, 64, 79
1, 609078, Control_c, 0, 64, 80
1, 609088, Note_off_c, 0, 71, 41
1, 609094, Control_c, 0, 64, 82
1, 609109, Control_c, 0, 64, 83
1, 609124, Control_c, 0, 64, 84
1, 609139, Control_c, 0, 64, 84
1, 609153, Control_c, 0, 64, 85
1, 609168, Control_c, 0, 64, 86
1, 609183, Control_c, 0, 64, 87
1, 609198, Control_c, 0, 64, 87
1, 609227, Control_c, 0, 64, 88
1, 609243, Note_off_c, 0, 74, 37
1, 609257, Control_c, 0, 64, 88
1, 609298, Note_on_c, 0, 71, 29
1, 609339, Note_off_c, 0, 62, 38
1, 609356, Note_off_c, 0, 79, 47
1, 609390, Control_c, 0, 64, 89
1, 609868, Note_on_c, 0, 62, 33
1, 609906, Note_off_c, 0, 71, 41
1, 609984, Note_off_c, 0, 88, 36
1, 610102, Note_on_c, 0, 71, 39
1, 610114, Note_off_c, 0, 62, 41
1, 610334, Note_on_c, 0, 88, 64
1, 610355, Note_on_c, 0, 62, 34
1, 610365, Note_on_c, 0, 74, 35
1, 610375, Note_on_c, 0, 79, 29
1, 610379, Note_off_c, 0, 71, 39
1, 610591, Note_off_c, 0, 62, 40
1, 610600, Note_on_c, 0, 71, 30
1, 610623, Note_off_c, 0, 74, 36
1, 610893, Note_on_c, 0, 62, 32
1, 611011, Note_off_c, 0, 71, 37
1, 611451, Note_on_c, 0, 71, 50
1, 611503, Note_off_c, 0, 62, 43
1, 611793, Note_off_c, 0, 71, 30
1, 611795, Note_off_c, 0, 88, 32
1, 611813, Note_on_c, 0, 62, 34
1, 611869, Note_off_c, 0, 79, 33
1, 611942, Note_off_c, 0, 55, 41
1, 612191, Control_c, 0, 64, 88
1, 612236, Control_c, 0, 64, 87
1, 612251, Control_c, 0, 64, 86
1, 612265, Control_c, 0, 64, 83
1, 612271, Note_on_c, 0, 69, 32
1, 612274, Note_on_c, 0, 55, 31
1, 612281, Control_c, 0, 64, 80
1, 612296, Control_c, 0, 64, 76
1, 612311, Control_c, 0, 64, 71
1, 612325, Control_c, 0, 64, 64
1, 612340, Control_c, 0, 64, 58
1, 612355, Control_c, 0, 64, 53
1, 612355, Note_on_c, 0, 72, 35
1, 612370, Control_c, 0, 64, 49
1, 612385, Control_c, 0, 64, 48
1, 612395, Note_off_c, 0, 62, 39
1, 612444, Control_c, 0, 64, 48
1, 612459, Control_c, 0, 64, 51
1, 612474, Control_c, 0, 64, 55
1, 612488, Control_c, 0, 64, 59
1, 612501, Note_on_c, 0, 78, 48
1, 612503, Control_c, 0, 64, 61
1, 612518, Control_c, 0, 64, 64
1, 612533, Control_c, 0, 64, 65
1, 612548, Control_c, 0, 64, 67
1, 612562, Control_c, 0, 64, 69
1, 612577, Control_c, 0, 64, 71
1, 612592, Control_c, 0, 64, 73
1, 612606, Control_c, 0, 64, 75
1, 612621, Control_c, 0, 64, 76
1, 612636, Control_c, 0, 64, 78
1, 612651, Control_c, 0, 64, 79
1, 612666, Control_c, 0, 64, 80
1, 612680, Control_c, 0, 64, 81
1, 612695, Note_on_c, 0, 88, 60
1, 612695, Control_c, 0, 64, 83
1, 612710, Control_c, 0, 64, 84
1, 612725, Control_c, 0, 64, 85
1, 612740, Control_c, 0, 64, 86
1, 612762, Control_c, 0, 64, 87
1, 612777, Control_c, 0, 64, 88
1, 612792, Control_c, 0, 64, 88
1, 612807, Control_c, 0, 64, 89
1, 612821, Control_c, 0, 64, 89
1, 612836, Control_c, 0, 64, 90
1, 612851, Control_c, 0, 64, 90
1, 612881, Control_c, 0, 64, 91
1, 612973, Note_on_c, 0, 62, 26
1, 613014, Control_c, 0, 64, 91
1, 613081, Note_off_c, 0, 69, 42
1, 613470, Note_on_c, 0, 69, 28
1, 613589, Note_off_c, 0, 62, 41
1, 614290, Note_on_c, 0, 62, 19
1, 614355, Note_off_c, 0, 69, 43
1, 614612, Note_on_c, 0, 69, 29
1, 614686, Note_off_c, 0, 62, 41
1, 614871, Note_on_c, 0, 62, 8
1, 614939, Note_off_c, 0, 69, 41
1, 615159, Note_on_c, 0, 69, 21
1, 615184, Note_off_c, 0, 62, 39
1, 615440, Note_on_c, 0, 62, 22
1, 615518, Note_off_c, 0, 69, 38
1, 615573, Control_c, 0, 64, 92
1, 615617, Control_c, 0, 64, 92
1, 615631, Control_c, 0, 64, 93
1, 615638, Note_off_c, 0, 72, 32
1, 615646, Control_c, 0, 64, 94
1, 615661, Control_c, 0, 64, 94
1, 615676, Control_c, 0, 64, 95
1, 615691, Control_c, 0, 64, 96
1, 615773, Control_c, 0, 64, 98
1, 615773, Control_c, 0, 67, 120
1, 615787, Control_c, 0, 67, 100
1, 615802, Control_c, 0, 67, 83
1, 615814, Note_off_c, 0, 88, 42
1, 615817, Control_c, 0, 67, 66
1, 615831, Control_c, 0, 67, 48
1, 615846, Control_c, 0, 67, 0
1, 616193, Note_on_c, 0, 69, 28
1, 616306, Note_off_c, 0, 62, 43
1, 616488, Note_off_c, 0, 69, 36
1, 616546, Note_on_c, 0, 62, 4
1, 616608, Note_off_c, 0, 78, 29
1, 616645, Note_off_c, 0, 55, 40
1, 616684, Control_c, 0, 64, 96
1, 616699, Control_c, 0, 64, 95
1, 616714, Control_c, 0, 64, 95
1, 616728, Control_c, 0, 64, 94
1, 616743, Control_c, 0, 64, 94
1, 616758, Control_c, 0, 64, 93
1, 616773, Control_c, 0, 64, 93
1, 616803, Control_c, 0, 64, 92
1, 616818, Control_c, 0, 64, 92
1, 616848, Control_c, 0, 64, 91
1, 616877, Control_c, 0, 64, 91
1, 616907, Control_c, 0, 64, 90
1, 616921, Control_c, 0, 64, 90
1, 616951, Control_c, 0, 64, 89
1, 616980, Control_c, 0, 64, 89
1, 616995, Control_c, 0, 64, 88
1, 617010, Control_c, 0, 64, 88
1, 617011, Note_on_c, 0, 55, 25
1, 617040, Control_c, 0, 64, 87
1, 617054, Control_c, 0, 64, 87
1, 617070, Control_c, 0, 64, 86
1, 617085, Control_c, 0, 64, 86
1, 617086, Note_on_c, 0, 81, 60
1, 617100, Control_c, 0, 64, 85
1, 617115, Control_c, 0, 64, 84
1, 617144, Control_c, 0, 64, 84
1, 617159, Control_c, 0, 64, 83
1, 617174, Control_c, 0, 64, 83
1, 617189, Control_c, 0, 64, 82
1, 617203, Control_c, 0, 64, 82
1, 617207, Note_off_c, 0, 62, 42
1, 617233, Control_c, 0, 64, 81
1, 617271, Control_c, 0, 64, 81
1, 617285, Control_c, 0, 64, 80
1, 617315, Control_c, 0, 64, 80
1, 617330, Control_c, 0, 64, 79
1, 617359, Control_c, 0, 64, 79
1, 617374, Control_c, 0, 64, 78
1, 617403, Control_c, 0, 64, 78
1, 617418, Control_c, 0, 64, 77
1, 617433, Control_c, 0, 64, 77
1, 617449, Control_c, 0, 64, 76
1, 617478, Control_c, 0, 64, 76
1, 617493, Control_c, 0, 64, 75
1, 617523, Control_c, 0, 64, 75
1, 617528, Note_on_c, 0, 78, 34
1, 617542, Note_on_c, 0, 62, 29
1, 617582, Control_c, 0, 64, 74
1, 617879, Control_c, 0, 64, 74
1, 617894, Control_c, 0, 64, 73
1, 617906, Note_on_c, 0, 72, 22
1, 617909, Control_c, 0, 64, 72
1, 617909, Note_on_c, 0, 74, 30
1, 617924, Control_c, 0, 64, 70
1, 617925, Note_off_c, 0, 78, 33
1, 617926, Note_on_c, 0, 69, 25
1, 617939, Control_c, 0, 64, 68
1, 617953, Control_c, 0, 64, 65
1, 617968, Control_c, 0, 64, 64
1, 617983, Control_c, 0, 64, 63
1, 618023, Note_off_c, 0, 62, 38
1, 618034, Control_c, 0, 64, 63
1, 618049, Control_c, 0, 64, 64
1, 618064, Control_c, 0, 64, 65
1, 618079, Control_c, 0, 64, 66
1, 618094, Control_c, 0, 64, 68
1, 618108, Control_c, 0, 64, 71
1, 618123, Control_c, 0, 64, 72
1, 618138, Control_c, 0, 64, 74
1, 618153, Control_c, 0, 64, 75
1, 618168, Control_c, 0, 64, 75
1, 618183, Control_c, 0, 64, 76
1, 618198, Control_c, 0, 64, 77
1, 618213, Control_c, 0, 64, 78
1, 618227, Control_c, 0, 64, 79
1, 618242, Control_c, 0, 64, 80
1, 618257, Control_c, 0, 64, 81
1, 618316, Control_c, 0, 64, 81
1, 618427, Note_on_c, 0, 62, 25
1, 618434, Control_c, 0, 64, 82
1, 618436, Note_on_c, 0, 78, 16
1, 618449, Control_c, 0, 64, 82
1, 618464, Control_c, 0, 64, 84
1, 618479, Control_c, 0, 64, 85
1, 618483, Note_off_c, 0, 69, 33
1, 618494, Control_c, 0, 64, 86
1, 618508, Control_c, 0, 64, 87
1, 618523, Control_c, 0, 64, 88
1, 618538, Control_c, 0, 64, 88
1, 618553, Control_c, 0, 64, 89
1, 618568, Control_c, 0, 64, 89
1, 618570, Note_on_c, 0, 83, 60
1, 618576, Note_off_c, 0, 72, 40
1, 618576, Note_off_c, 0, 74, 41
1, 618582, Control_c, 0, 64, 90
1, 618597, Control_c, 0, 64, 91
1, 618612, Control_c, 0, 64, 91
1, 618627, Control_c, 0, 64, 92
1, 618642, Control_c, 0, 64, 93
1, 618672, Control_c, 0, 64, 93
1, 618701, Note_off_c, 0, 78, 21
1, 618702, Control_c, 0, 64, 94
1, 618721, Note_off_c, 0, 81, 32
1, 618743, Note_off_c, 0, 62, 38
1, 618757, Note_on_c, 0, 72, 17
1, 618761, Note_on_c, 0, 74, 33
1, 618764, Note_on_c, 0, 69, 17
1, 618770, Note_off_c, 0, 83, 58
1, 618783, Control_c, 0, 64, 94
1, 618949, Note_off_c, 0, 69, 39
1, 618981, Note_on_c, 0, 62, 35
1, 618990, Control_c, 0, 64, 94
1, 619020, Control_c, 0, 64, 93
1, 619033, Note_on_c, 0, 84, 71
1, 619035, Control_c, 0, 64, 90
1, 619049, Control_c, 0, 64, 84
1, 619064, Control_c, 0, 64, 78
1, 619079, Control_c, 0, 64, 73
1, 619094, Control_c, 0, 64, 69
1, 619109, Control_c, 0, 64, 67
1, 619123, Control_c, 0, 64, 66
1, 619153, Control_c, 0, 64, 67
1, 619167, Control_c, 0, 64, 69
1, 619182, Control_c, 0, 64, 72
1, 619197, Control_c, 0, 64, 75
1, 619212, Control_c, 0, 64, 77
1, 619227, Control_c, 0, 64, 79
1, 619242, Control_c, 0, 64, 82
1, 619256, Control_c, 0, 64, 84
1, 619258, Note_off_c, 0, 84, 60
1, 619271, Control_c, 0, 64, 87
1, 619286, Note_on_c, 0, 78, 40
1, 619286, Control_c, 0, 64, 90
1, 619293, Note_off_c, 0, 62, 39
1, 619295, Note_on_c, 0, 69, 26
1, 619301, Control_c, 0, 64, 92
1, 619316, Control_c, 0, 64, 95
1, 619331, Control_c, 0, 64, 97
1, 619334, Note_off_c, 0, 78, 46
1, 619346, Control_c, 0, 64, 99
1, 619360, Control_c, 0, 64, 101
1, 619375, Control_c, 0, 64, 104
1, 619390, Note_on_c, 0, 86, 72
1, 619390, Control_c, 0, 64, 107
1, 619393, Note_off_c, 0, 72, 41
1, 619399, Note_off_c, 0, 74, 43
1, 619405, Control_c, 0, 64, 112
1, 619420, Control_c, 0, 64, 119
1, 619435, Control_c, 0, 64, 127
1, 619532, Note_on_c, 0, 74, 33
1, 619533, Note_on_c, 0, 72, 39
1, 619563, Note_on_c, 0, 62, 23
1, 619611, Note_off_c, 0, 69, 34
1, 619615, Note_off_c, 0, 86, 60
1, 619730, Note_on_c, 0, 86, 76
1, 620010, Note_on_c, 0, 78, 36
1, 620013, Note_off_c, 0, 62, 37
1, 620016, Note_on_c, 0, 69, 14
1, 620020, Note_off_c, 0, 86, 60
1, 620100, Note_off_c, 0, 78, 38
1, 620138, Note_on_c, 0, 86, 70
1, 620167, Note_off_c, 0, 74, 42
1, 620168, Note_off_c, 0, 72, 37
1, 620296, Note_off_c, 0, 69, 37
1, 620338, Note_on_c, 0, 62, 27
1, 620340, Note_on_c, 0, 74, 28
1, 620347, Note_on_c, 0, 72, 31
1, 620492, Note_off_c, 0, 55, 41
1, 620520, Note_off_c, 0, 86, 59
1, 620699, Note_on_c, 0, 55, 14
1, 620710, Control_c, 0, 64, 120
1, 620725, Control_c, 0, 64, 112
1, 620739, Control_c, 0, 64, 106
1, 620744, Note_on_c, 0, 86, 65
1, 620754, Control_c, 0, 64, 100
1, 620769, Control_c, 0, 64, 94
1, 620784, Control_c, 0, 64, 87
1, 620799, Control_c, 0, 64, 82
1, 620813, Control_c, 0, 64, 76
1, 620828, Control_c, 0, 64, 71
1, 620832, Note_off_c, 0, 72, 40
1, 620842, Note_off_c, 0, 62, 42
1, 620843, Control_c, 0, 64, 65
1, 620858, Control_c, 0, 64, 61
1, 620873, Control_c, 0, 64, 58
1, 620887, Control_c, 0, 64, 56
1, 620897, Note_off_c, 0, 74, 32
1, 620902, Control_c, 0, 64, 56
1, 620917, Control_c, 0, 64, 55
1, 620946, Control_c, 0, 64, 55
1, 620976, Control_c, 0, 64, 55
1, 621014, Control_c, 0, 64, 56
1, 621028, Control_c, 0, 64, 58
1, 621043, Control_c, 0, 64, 60
1, 621058, Control_c, 0, 64, 63
1, 621074, Control_c, 0, 64, 65
1, 621089, Control_c, 0, 64, 68
1, 621104, Control_c, 0, 64, 72
1, 621119, Control_c, 0, 64, 75
1, 621133, Control_c, 0, 64, 77
1, 621148, Control_c, 0, 64, 79
1, 621163, Control_c, 0, 64, 81
1, 621177, Control_c, 0, 64, 83
1, 621188, Note_on_c, 0, 62, 37
1, 621193, Control_c, 0, 64, 86
1, 621201, Note_on_c, 0, 79, 30
1, 621208, Control_c, 0, 64, 90
1, 621223, Control_c, 0, 64, 93
1, 621238, Control_c, 0, 64, 96
1, 621252, Control_c, 0, 64, 99
1, 621267, Control_c, 0, 64, 101
1, 621297, Control_c, 0, 64, 104
1, 621578, Control_c, 0, 67, 45
1, 621593, Control_c, 0, 67, 67
1, 621608, Control_c, 0, 67, 86
1, 621623, Control_c, 0, 67, 103
1, 621634, Note_on_c, 0, 74, 36
1, 621637, Control_c, 0, 67, 126
1, 621638, Note_on_c, 0, 71, 37
1, 621697, Control_c, 0, 64, 102
1, 621707, Note_off_c, 0, 79, 41
1, 621844, Note_off_c, 0, 62, 41
1, 622257, Note_on_c, 0, 62, 17
1, 622267, Note_on_c, 0, 79, 25
1, 622271, Note_off_c, 0, 74, 37
1, 622320, Note_off_c, 0, 71, 39
1, 622451, Note_off_c, 0, 86, 53
1, 622544, Note_on_c, 0, 71, 26
1, 622554, Note_on_c, 0, 74, 22
1, 622563, Note_off_c, 0, 79, 44
1, 622571, Note_off_c, 0, 62, 36
1, 622660, Control_c, 0, 64, 100
1, 622678, Note_on_c, 0, 84, 51
1, 622703, Note_off_c, 0, 74, 41
1, 622722, Note_off_c, 0, 84, 58
1, 622735, Control_c, 0, 64, 97
1, 622750, Control_c, 0, 64, 96
1, 622763, Note_on_c, 0, 83, 43
1, 622765, Control_c, 0, 64, 94
1, 622779, Control_c, 0, 64, 92
1, 622794, Control_c, 0, 64, 90
1, 622800, Note_off_c, 0, 83, 54
1, 622809, Control_c, 0, 64, 87
1, 622817, Note_on_c, 0, 81, 50
1, 622823, Control_c, 0, 64, 85
1, 622838, Control_c, 0, 64, 81
1, 622853, Control_c, 0, 64, 77
1, 622868, Control_c, 0, 64, 72
1, 622883, Control_c, 0, 64, 66
1, 622891, Note_off_c, 0, 81, 54
1, 622897, Control_c, 0, 64, 60
1, 622905, Note_on_c, 0, 83, 43
1, 622909, Note_on_c, 0, 62, 30
1, 622912, Control_c, 0, 64, 55
1, 622927, Control_c, 0, 64, 52
1, 622932, Note_off_c, 0, 71, 39
1, 622941, Control_c, 0, 64, 51
1, 622986, Control_c, 0, 64, 52
1, 623001, Control_c, 0, 64, 54
1, 623015, Control_c, 0, 64, 57
1, 623030, Control_c, 0, 64, 60
1, 623045, Control_c, 0, 64, 62
1, 623060, Control_c, 0, 64, 64
1, 623075, Control_c, 0, 64, 66
1, 623090, Control_c, 0, 64, 69
1, 623104, Control_c, 0, 64, 71
1, 623119, Control_c, 0, 64, 73
1, 623134, Control_c, 0, 64, 75
1, 623149, Control_c, 0, 64, 76
1, 623153, Note_off_c, 0, 62, 35
1, 623161, Note_on_c, 0, 71, 32
1, 623162, Note_on_c, 0, 74, 28
1, 623164, Control_c, 0, 64, 78
1, 623179, Control_c, 0, 64, 80
1, 623194, Control_c, 0, 64, 82
1, 623209, Control_c, 0, 64, 83
1, 623223, Control_c, 0, 64, 85
1, 623245, Control_c, 0, 64, 87
1, 623260, Control_c, 0, 64, 89
1, 623275, Control_c, 0, 64, 91
1, 623290, Control_c, 0, 64, 93
1, 623304, Control_c, 0, 64, 95
1, 623334, Control_c, 0, 64, 97
1, 623364, Control_c, 0, 64, 99
1, 623468, Note_on_c, 0, 62, 25
1, 623470, Note_off_c, 0, 74, 33
1, 623474, Note_on_c, 0, 79, 25
1, 623599, Note_off_c, 0, 71, 37
1, 623676, Control_c, 0, 64, 101
1, 624002, Note_off_c, 0, 79, 42
1, 624184, Note_on_c, 0, 71, 15
1, 624188, Note_on_c, 0, 74, 23
1, 624233, Note_off_c, 0, 62, 41
1, 624445, Note_off_c, 0, 71, 37
1, 624472, Note_on_c, 0, 79, 20
1, 624506, Poly_aftertouch_c, 0, 62, 127
1, 624514, Control_c, 0, 67, 122
1, 624529, Control_c, 0, 67, 119
1, 624543, Control_c, 0, 67, 113
1, 624558, Control_c, 0, 67, 104
1, 624573, Control_c, 0, 67, 94
1, 624587, Control_c, 0, 67, 85
1, 624590, Note_off_c, 0, 74, 40
1, 624602, Control_c, 0, 67, 79
1, 624607, Note_off_c, 0, 55, 37
1, 624617, Control_c, 0, 67, 74
1, 624632, Control_c, 0, 67, 71
1, 624635, Note_off_c, 0, 83, 54
1, 624647, Control_c, 0, 67, 70
1, 624661, Control_c, 0, 67, 69
1, 624676, Control_c, 0, 67, 68
1, 624802, Control_c, 0, 64, 98
1, 624817, Control_c, 0, 64, 96
1, 624817, Control_c, 0, 67, 69
1, 624832, Control_c, 0, 64, 94
1, 624832, Control_c, 0, 67, 70
1, 624842, Note_on_c, 0, 55, 33
1, 624847, Control_c, 0, 64, 90
1, 624862, Control_c, 0, 64, 86
1, 624876, Control_c, 0, 64, 79
1, 624876, Control_c, 0, 67, 70
1, 624878, Note_on_c, 0, 83, 68
1, 624891, Control_c, 0, 64, 73
1, 624900, Poly_aftertouch_c, 0, 62, 0
1, 624906, Control_c, 0, 64, 66
1, 624920, Control_c, 0, 64, 60
1, 624920, Control_c, 0, 67, 71
1, 624935, Control_c, 0, 64, 54
1, 624935, Control_c, 0, 67, 71
1, 624950, Control_c, 0, 64, 51
1, 624960, Note_off_c, 0, 79, 49
1, 624965, Control_c, 0, 64, 49
1, 624994, Control_c, 0, 64, 50
1, 624994, Control_c, 0, 67, 72
1, 625009, Control_c, 0, 64, 52
1, 625024, Control_c, 0, 64, 55
1, 625039, Control_c, 0, 64, 59
1, 625054, Control_c, 0, 64, 62
1, 625069, Control_c, 0, 64, 65
1, 625084, Control_c, 0, 64, 68
1, 625099, Control_c, 0, 64, 71
1, 625099, Control_c, 0, 67, 73
1, 625114, Control_c, 0, 64, 74
1, 625128, Control_c, 0, 64, 76
1, 625143, Control_c, 0, 64, 77
1, 625158, Control_c, 0, 64, 79
1, 625173, Control_c, 0, 64, 82
1, 625185, Note_on_c, 0, 62, 27
1, 625186, Note_on_c, 0, 79, 32
1, 625188, Control_c, 0, 64, 84
1, 625203, Control_c, 0, 64, 86
1, 625217, Control_c, 0, 64, 89
1, 625232, Control_c, 0, 64, 91
1, 625247, Control_c, 0, 64, 93
1, 625262, Control_c, 0, 64, 95
1, 625277, Control_c, 0, 64, 97
1, 625291, Control_c, 0, 64, 99
1, 625291, Control_c, 0, 67, 73
1, 625321, Control_c, 0, 64, 102
1, 625350, Control_c, 0, 64, 104
1, 625409, Control_c, 0, 64, 106
1, 625409, Control_c, 0, 67, 74
1, 625469, Control_c, 0, 67, 75
1, 625500, Note_on_c, 0, 78, 35
1, 625504, Note_on_c, 0, 67, 35
1, 625506, Control_c, 0, 67, 75
1, 625528, Note_on_c, 0, 71, 31
1, 625550, Control_c, 0, 67, 76
1, 625595, Control_c, 0, 67, 77
1, 625599, Note_off_c, 0, 62, 38
1, 625624, Control_c, 0, 64, 108
1, 625624, Control_c, 0, 67, 77
1, 625627, Note_off_c, 0, 79, 42
1, 625669, Control_c, 0, 67, 78
1, 625686, Note_off_c, 0, 55, 39
1, 625713, Control_c, 0, 67, 79
1, 625757, Control_c, 0, 64, 110
1, 625802, Control_c, 0, 67, 79
1, 626026, Note_off_c, 0, 83, 56
1, 626040, Control_c, 0, 67, 79
1, 626047, Note_on_c, 0, 79, 23
1, 626055, Note_on_c, 0, 62, 33
1, 626055, Control_c, 0, 67, 78
1, 626064, Note_off_c, 0, 67, 41
1, 626070, Control_c, 0, 67, 77
1, 626085, Control_c, 0, 67, 77
1, 626089, Note_off_c, 0, 71, 40
1, 626100, Control_c, 0, 67, 76
1, 626129, Control_c, 0, 67, 75
1, 626132, Note_off_c, 0, 78, 35
1, 626136, Note_on_c, 0, 83, 66
1, 626158, Note_off_c, 0, 79, 37
1, 626158, Control_c, 0, 67, 75
1, 626173, Control_c, 0, 67, 74
1, 626203, Control_c, 0, 67, 73
1, 626240, Control_c, 0, 67, 73
1, 626270, Control_c, 0, 67, 72
1, 626288, Note_on_c, 0, 71, 38
1, 626289, Note_on_c, 0, 67, 37
1, 626301, Note_on_c, 0, 78, 21
1, 626357, Note_off_c, 0, 83, 56
1, 626403, Control_c, 0, 64, 112
1, 626403, Control_c, 0, 67, 73
1, 626432, Control_c, 0, 67, 73
1, 626462, Control_c, 0, 67, 74
1, 626501, Note_off_c, 0, 67, 32
1, 626547, Note_on_c, 0, 83, 73
1, 626565, Control_c, 0, 67, 75
1, 626569, Note_off_c, 0, 78, 48
1, 626571, Note_on_c, 0, 76, 38
1, 626670, Control_c, 0, 64, 114
1, 626715, Control_c, 0, 67, 75
1, 626804, Control_c, 0, 64, 116
1, 626863, Control_c, 0, 64, 118
1, 626863, Note_on_c, 0, 67, 31
1, 626877, Note_on_c, 0, 78, 18
1, 626878, Control_c, 0, 67, 76
1, 626880, Note_off_c, 0, 83, 46
1, 626893, Note_off_c, 0, 76, 37
1, 626929, Note_off_c, 0, 62, 39
1, 626952, Control_c, 0, 64, 120
1, 626971, Note_on_c, 0, 83, 75
1, 626974, Note_off_c, 0, 71, 40
1, 627003, Control_c, 0, 64, 124
1, 627018, Control_c, 0, 64, 127
1, 627045, Note_off_c, 0, 78, 33
1, 627122, Control_c, 0, 67, 75
1, 627137, Control_c, 0, 67, 75
1, 627138, Note_on_c, 0, 71, 26
1, 627138, Note_on_c, 0, 76, 35
1, 627139, Note_on_c, 0, 62, 27
1, 627152, Control_c, 0, 67, 73
1, 627167, Control_c, 0, 67, 73
1, 627182, Control_c, 0, 67, 72
1, 627197, Control_c, 0, 67, 71
1, 627212, Control_c, 0, 67, 71
1, 627222, Note_off_c, 0, 67, 41
1, 627227, Control_c, 0, 67, 70
1, 627242, Control_c, 0, 67, 70
1, 627245, Note_off_c, 0, 83, 52
1, 627256, Control_c, 0, 67, 69
1, 627271, Control_c, 0, 67, 68
1, 627286, Control_c, 0, 67, 68
1, 627301, Control_c, 0, 67, 67
1, 627315, Control_c, 0, 67, 66
1, 627334, Note_on_c, 0, 83, 84
1, 627345, Control_c, 0, 67, 65
1, 627360, Control_c, 0, 67, 64
1, 627373, Note_off_c, 0, 76, 51
1, 627375, Control_c, 0, 67, 64
1, 627389, Control_c, 0, 67, 63
1, 627419, Control_c, 0, 67, 62
1, 627465, Control_c, 0, 67, 62
1, 627509, Control_c, 0, 67, 61
1, 627553, Note_on_c, 0, 67, 34
1, 627559, Note_on_c, 0, 78, 47
1, 627589, Note_off_c, 0, 62, 40
1, 627604, Note_off_c, 0, 83, 57
1, 627686, Note_on_c, 0, 83, 82
1, 627725, Note_off_c, 0, 71, 38
1, 627767, Note_off_c, 0, 78, 32
1, 627783, Control_c, 0, 67, 62
1, 627798, Control_c, 0, 67, 62
1, 627812, Control_c, 0, 67, 64
1, 627827, Control_c, 0, 67, 64
1, 627842, Control_c, 0, 67, 65
1, 627857, Control_c, 0, 67, 66
1, 627859, Note_on_c, 0, 62, 35
1, 627872, Note_on_c, 0, 76, 45
1, 627872, Control_c, 0, 67, 66
1, 627875, Note_on_c, 0, 71, 23
1, 627886, Control_c, 0, 67, 67
1, 627916, Control_c, 0, 67, 68
1, 627918, Note_off_c, 0, 67, 39
1, 627945, Control_c, 0, 67, 68
1, 627990, Control_c, 0, 67, 69
1, 628008, Note_off_c, 0, 83, 58
1, 628011, Note_off_c, 0, 71, 39
1, 628035, Control_c, 0, 67, 70
1, 628094, Control_c, 0, 67, 70
1, 628153, Control_c, 0, 64, 120
1, 628156, Note_on_c, 0, 55, 39
1, 628168, Control_c, 0, 64, 107
1, 628168, Control_c, 0, 67, 71
1, 628179, Note_on_c, 0, 84, 78
1, 628183, Control_c, 0, 64, 98
1, 628198, Control_c, 0, 64, 89
1, 628212, Control_c, 0, 64, 82
1, 628227, Control_c, 0, 64, 74
1, 628241, Note_off_c, 0, 76, 54
1, 628242, Control_c, 0, 64, 65
1, 628258, Control_c, 0, 64, 58
1, 628261, Note_off_c, 0, 62, 43
1, 628273, Control_c, 0, 64, 52
1, 628288, Control_c, 0, 64, 48
1, 628288, Control_c, 0, 67, 71
1, 628302, Control_c, 0, 64, 44
1, 628317, Control_c, 0, 64, 40
1, 628332, Control_c, 0, 64, 36
1, 628347, Control_c, 0, 64, 31
1, 628406, Control_c, 0, 64, 32
1, 628421, Control_c, 0, 64, 36
1, 628435, Control_c, 0, 64, 43
1, 628450, Control_c, 0, 64, 51
1, 628465, Control_c, 0, 64, 58
1, 628488, Control_c, 0, 64, 62
1, 628503, Control_c, 0, 64, 65
1, 628517, Control_c, 0, 64, 67
1, 628525, Note_on_c, 0, 62, 30
1, 628530, Note_on_c, 0, 78, 38
1, 628532, Control_c, 0, 64, 69
1, 628547, Control_c, 0, 64, 71
1, 628561, Control_c, 0, 64, 74
1, 628576, Control_c, 0, 64, 76
1, 628591, Control_c, 0, 64, 79
1, 628606, Control_c, 0, 64, 82
1, 628621, Control_c, 0, 64, 85
1, 628621, Control_c, 0, 67, 72
1, 628635, Control_c, 0, 64, 87
1, 628635, Control_c, 0, 67, 73
1, 628650, Control_c, 0, 64, 91
1, 628650, Control_c, 0, 67, 73
1, 628665, Control_c, 0, 64, 93
1, 628665, Control_c, 0, 67, 74
1, 628680, Control_c, 0, 64, 96
1, 628680, Control_c, 0, 67, 75
1, 628694, Control_c, 0, 64, 98
1, 628694, Control_c, 0, 67, 75
1, 628709, Control_c, 0, 64, 101
1, 628709, Control_c, 0, 67, 77
1, 628724, Control_c, 0, 64, 103
1, 628724, Control_c, 0, 67, 77
1, 628739, Control_c, 0, 64, 105
1, 628754, Control_c, 0, 64, 108
1, 628754, Control_c, 0, 67, 78
1, 628768, Control_c, 0, 64, 110
1, 628783, Control_c, 0, 64, 112
1, 628798, Control_c, 0, 64, 114
1, 628813, Control_c, 0, 64, 117
1, 628828, Control_c, 0, 64, 119
1, 628843, Control_c, 0, 64, 122
1, 628858, Control_c, 0, 64, 127
1, 628896, Note_on_c, 0, 74, 35
1, 628914, Note_on_c, 0, 69, 32
1, 628927, Note_on_c, 0, 72, 26
1, 628995, Note_off_c, 0, 62, 40
1, 629088, Note_off_c, 0, 72, 39
1, 629140, Control_c, 0, 67, 77
1, 629156, Note_off_c, 0, 84, 61
1, 629199, Note_off_c, 0, 74, 39
1, 629340, Control_c, 0, 67, 77
1, 629368, Note_on_c, 0, 86, 67
1, 629370, Control_c, 0, 67, 76
1, 629399, Control_c, 0, 67, 75
1, 629415, Note_off_c, 0, 78, 60
1, 629502, Control_c, 0, 67, 76
1, 629561, Control_c, 0, 67, 77
1, 629621, Control_c, 0, 67, 77
1, 629636, Control_c, 0, 67, 78
1, 629651, Control_c, 0, 67, 79
1, 629665, Control_c, 0, 67, 80
1, 629677, Note_on_c, 0, 62, 25
1, 629680, Control_c, 0, 67, 81
1, 629695, Control_c, 0, 67, 83
1, 629709, Control_c, 0, 67, 85
1, 629724, Control_c, 0, 64, 119
1, 629724, Control_c, 0, 67, 86
1, 629739, Control_c, 0, 64, 114
1, 629739, Control_c, 0, 67, 88
1, 629741, Note_off_c, 0, 69, 37
1, 629754, Control_c, 0, 64, 109
1, 629754, Control_c, 0, 67, 90
1, 629769, Control_c, 0, 64, 104
1, 629769, Control_c, 0, 67, 91
1, 629783, Control_c, 0, 64, 100
1, 629783, Control_c, 0, 67, 93
1, 629797, Note_on_c, 0, 84, 64
1, 629798, Control_c, 0, 64, 97
1, 629798, Control_c, 0, 67, 94
1, 629813, Control_c, 0, 64, 93
1, 629813, Control_c, 0, 67, 96
1, 629828, Control_c, 0, 64, 90
1, 629843, Control_c, 0, 64, 86
1, 629843, Control_c, 0, 67, 98
1, 629859, Control_c, 0, 64, 83
1, 629866, Note_off_c, 0, 86, 57
1, 629873, Control_c, 0, 64, 79
1, 629873, Control_c, 0, 67, 100
1, 629888, Control_c, 0, 64, 76
1, 629903, Control_c, 0, 64, 73
1, 629903, Control_c, 0, 67, 102
1, 629918, Control_c, 0, 64, 71
1, 629932, Control_c, 0, 64, 68
1, 629947, Control_c, 0, 64, 66
1, 629947, Control_c, 0, 67, 104
1, 629962, Control_c, 0, 64, 65
1, 629973, Note_on_c, 0, 69, 32
1, 629984, Control_c, 0, 64, 64
1, 629984, Control_c, 0, 67, 111
1, 629998, Note_off_c, 0, 62, 40
1, 629999, Control_c, 0, 67, 122
1, 630014, Control_c, 0, 67, 127
1, 630044, Control_c, 0, 64, 64
1, 630057, Note_on_c, 0, 83, 60
1, 630092, Note_off_c, 0, 84, 38
1, 630140, Note_on_c, 0, 81, 57
1, 630143, Note_off_c, 0, 83, 55
1, 630177, Control_c, 0, 64, 63
1, 630206, Control_c, 0, 64, 63
1, 630208, Note_off_c, 0, 81, 62
1, 630219, Note_on_c, 0, 79, 50
1, 630221, Control_c, 0, 64, 62
1, 630236, Control_c, 0, 64, 61
1, 630251, Control_c, 0, 64, 60
1, 630266, Control_c, 0, 64, 59
1, 630280, Control_c, 0, 64, 58
1, 630293, Note_off_c, 0, 79, 59
1, 630295, Control_c, 0, 64, 57
1, 630303, Note_on_c, 0, 81, 52
1, 630309, Note_on_c, 0, 62, 32
1, 630310, Control_c, 0, 64, 55
1, 630325, Control_c, 0, 64, 54
1, 630339, Control_c, 0, 64, 52
1, 630351, Note_off_c, 0, 69, 36
1, 630354, Control_c, 0, 64, 50
1, 630369, Control_c, 0, 64, 48
1, 630384, Control_c, 0, 64, 45
1, 630399, Control_c, 0, 64, 44
1, 630473, Control_c, 0, 64, 45
1, 630488, Control_c, 0, 64, 50
1, 630503, Control_c, 0, 64, 56
1, 630518, Control_c, 0, 64, 60
1, 630532, Control_c, 0, 64, 62
1, 630547, Control_c, 0, 64, 64
1, 630562, Control_c, 0, 64, 66
1, 630577, Control_c, 0, 64, 68
1, 630592, Control_c, 0, 64, 70
1, 630606, Control_c, 0, 64, 72
1, 630620, Note_on_c, 0, 69, 24
1, 630621, Control_c, 0, 64, 74
1, 630636, Note_on_c, 0, 78, 29
1, 630636, Control_c, 0, 64, 76
1, 630650, Note_off_c, 0, 62, 34
1, 630652, Control_c, 0, 64, 78
1, 630667, Control_c, 0, 64, 80
1, 630682, Control_c, 0, 64, 82
1, 630697, Control_c, 0, 64, 84
1, 630711, Control_c, 0, 64, 87
1, 630733, Control_c, 0, 64, 89
1, 630748, Control_c, 0, 64, 91
1, 630762, Control_c, 0, 64, 93
1, 630777, Control_c, 0, 64, 95
1, 630792, Control_c, 0, 64, 97
1, 630807, Control_c, 0, 64, 99
1, 630837, Control_c, 0, 64, 102
1, 630881, Control_c, 0, 64, 104
1, 630936, Note_on_c, 0, 62, 27
1, 630944, Note_on_c, 0, 74, 21
1, 630950, Note_on_c, 0, 72, 21
1, 631037, Note_off_c, 0, 78, 37
1, 631060, Control_c, 0, 64, 106
1, 631078, Note_off_c, 0, 69, 35
1, 631148, Control_c, 0, 64, 108
1, 631252, Control_c, 0, 64, 110
1, 631385, Control_c, 0, 64, 112
1, 631572, Note_on_c, 0, 69, 21
1, 631586, Control_c, 0, 64, 114
1, 631587, Note_off_c, 0, 62, 41
1, 631588, Note_on_c, 0, 78, 27
1, 631631, Note_off_c, 0, 72, 41
1, 631640, Note_off_c, 0, 74, 42
1, 631719, Control_c, 0, 67, 124
1, 631734, Control_c, 0, 67, 115
1, 631749, Control_c, 0, 67, 105
1, 631764, Control_c, 0, 67, 96
1, 631779, Control_c, 0, 67, 87
1, 631788, Note_off_c, 0, 69, 41
1, 631794, Control_c, 0, 67, 76
1, 631809, Control_c, 0, 67, 67
1, 631824, Control_c, 0, 67, 57
1, 631826, Note_on_c, 0, 62, 30
1, 631838, Control_c, 0, 67, 48
1, 631841, Note_on_c, 0, 74, 34
1, 631844, Note_on_c, 0, 72, 33
1, 631853, Control_c, 0, 67, 37
1, 631868, Control_c, 0, 67, 0
1, 631871, Note_off_c, 0, 78, 38
1, 631880, Note_off_c, 0, 81, 60
1, 631936, Note_off_c, 0, 55, 41
1, 632001, Control_c, 0, 64, 112
1, 632031, Control_c, 0, 64, 110
1, 632060, Control_c, 0, 64, 108
1, 632075, Control_c, 0, 64, 106
1, 632089, Note_on_c, 0, 55, 23
1, 632104, Control_c, 0, 64, 102
1, 632119, Control_c, 0, 64, 98
1, 632134, Control_c, 0, 64, 95
1, 632149, Control_c, 0, 64, 91
1, 632153, Note_on_c, 0, 81, 72
1, 632164, Control_c, 0, 64, 86
1, 632178, Control_c, 0, 64, 80
1, 632193, Control_c, 0, 64, 74
1, 632208, Control_c, 0, 64, 68
1, 632230, Control_c, 0, 64, 61
1, 632232, Note_off_c, 0, 62, 42
1, 632245, Control_c, 0, 64, 57
1, 632262, Control_c, 0, 64, 54
1, 632306, Control_c, 0, 64, 55
1, 632321, Control_c, 0, 64, 58
1, 632335, Control_c, 0, 64, 61
1, 632350, Control_c, 0, 64, 65
1, 632365, Control_c, 0, 64, 69
1, 632380, Control_c, 0, 64, 73
1, 632395, Control_c, 0, 64, 75
1, 632409, Control_c, 0, 64, 77
1, 632424, Control_c, 0, 64, 79
1, 632439, Control_c, 0, 64, 82
1, 632450, Note_on_c, 0, 78, 38
1, 632454, Control_c, 0, 64, 85
1, 632469, Control_c, 0, 64, 88
1, 632474, Note_on_c, 0, 62, 22
1, 632483, Control_c, 0, 64, 92
1, 632498, Control_c, 0, 64, 95
1, 632509, Note_off_c, 0, 72, 31
1, 632513, Control_c, 0, 64, 99
1, 632521, Note_off_c, 0, 74, 35
1, 632527, Control_c, 0, 64, 103
1, 632542, Control_c, 0, 64, 108
1, 632557, Control_c, 0, 64, 114
1, 632572, Control_c, 0, 64, 127
1, 632795, Note_on_c, 0, 74, 31
1, 632801, Note_on_c, 0, 72, 30
1, 632811, Note_on_c, 0, 69, 26
1, 632882, Note_off_c, 0, 78, 35
1, 632969, Note_off_c, 0, 62, 41
1, 633278, Note_on_c, 0, 78, 36
1, 633315, Note_on_c, 0, 62, 29
1, 633359, Note_off_c, 0, 69, 43
1, 633408, Note_on_c, 0, 83, 65
1, 633427, Note_off_c, 0, 72, 40
1, 633434, Note_off_c, 0, 74, 39
1, 633558, Note_on_c, 0, 74, 36
1, 633561, Note_on_c, 0, 72, 35
1, 633570, Note_on_c, 0, 69, 33
1, 633579, Note_off_c, 0, 62, 40
1, 633580, Note_off_c, 0, 81, 54
1, 633588, Note_off_c, 0, 78, 28
1, 633608, Note_off_c, 0, 83, 59
1, 633787, Note_off_c, 0, 69, 40
1, 633801, Note_on_c, 0, 62, 27
1, 633804, Note_on_c, 0, 84, 72
1, 633817, Control_c, 0, 64, 98
1, 633831, Control_c, 0, 64, 84
1, 633847, Control_c, 0, 64, 73
1, 633862, Control_c, 0, 64, 66
1, 633877, Control_c, 0, 64, 63
1, 633906, Control_c, 0, 64, 64
1, 633922, Control_c, 0, 64, 66
1, 633937, Control_c, 0, 64, 71
1, 633952, Control_c, 0, 64, 79
1, 633967, Control_c, 0, 64, 83
1, 633981, Control_c, 0, 64, 86
1, 633996, Control_c, 0, 64, 91
1, 634011, Control_c, 0, 64, 96
1, 634021, Note_off_c, 0, 84, 61
1, 634026, Control_c, 0, 64, 102
1, 634041, Note_on_c, 0, 78, 44
1, 634041, Control_c, 0, 64, 110
1, 634055, Control_c, 0, 64, 127
1, 634063, Note_off_c, 0, 62, 43
1, 634067, Note_on_c, 0, 69, 30
1, 634106, Note_off_c, 0, 78, 44
1, 634139, Note_on_c, 0, 86, 76
1, 634154, Note_off_c, 0, 72, 41
1, 634167, Note_off_c, 0, 74, 36
1, 634279, Note_on_c, 0, 62, 29
1, 634294, Note_on_c, 0, 74, 29
1, 634299, Note_on_c, 0, 72, 38
1, 634346, Note_off_c, 0, 69, 32
1, 634389, Note_off_c, 0, 86, 61
1, 634475, Note_on_c, 0, 86, 86
1, 634721, Note_on_c, 0, 78, 52
1, 634731, Note_on_c, 0, 69, 30
1, 634745, Note_off_c, 0, 62, 42
1, 634760, Note_off_c, 0, 86, 61
1, 634844, Note_on_c, 0, 86, 91
1, 634861, Note_off_c, 0, 74, 54
1, 634862, Note_off_c, 0, 78, 56
1, 634870, Note_off_c, 0, 72, 41
1, 634946, Note_off_c, 0, 69, 40
1, 635056, Note_on_c, 0, 74, 21
1, 635065, Note_on_c, 0, 62, 24
1, 635071, Note_on_c, 0, 72, 26
1, 635144, Note_off_c, 0, 55, 41
1, 635237, Note_off_c, 0, 86, 61
1, 635339, Note_on_c, 0, 55, 34
1, 635393, Note_on_c, 0, 86, 85
1, 635419, Note_off_c, 0, 62, 43
1, 635464, Control_c, 0, 64, 118
1, 635478, Control_c, 0, 64, 94
1, 635493, Control_c, 0, 64, 82
1, 635508, Control_c, 0, 64, 72
1, 635511, Note_off_c, 0, 72, 31
1, 635523, Control_c, 0, 64, 65
1, 635538, Control_c, 0, 64, 60
1, 635553, Control_c, 0, 64, 56
1, 635568, Control_c, 0, 64, 55
1, 635583, Control_c, 0, 64, 55
1, 635597, Control_c, 0, 64, 57
1, 635612, Control_c, 0, 64, 59
1, 635627, Control_c, 0, 64, 63
1, 635642, Control_c, 0, 64, 66
1, 635657, Control_c, 0, 64, 72
1, 635671, Control_c, 0, 64, 78
1, 635686, Control_c, 0, 64, 82
1, 635701, Control_c, 0, 64, 84
1, 635716, Control_c, 0, 64, 88
1, 635731, Control_c, 0, 64, 93
1, 635745, Control_c, 0, 64, 99
1, 635760, Control_c, 0, 64, 108
1, 635775, Control_c, 0, 64, 127
1, 635796, Note_on_c, 0, 79, 37
1, 635814, Note_on_c, 0, 62, 29
1, 635874, Note_off_c, 0, 74, 26
1, 636190, Note_on_c, 0, 74, 32
1, 636220, Note_on_c, 0, 71, 35
1, 636361, Note_off_c, 0, 62, 16
1, 636447, Note_off_c, 0, 79, 41
1, 636754, Note_on_c, 0, 79, 30
1, 636755, Note_on_c, 0, 62, 24
1, 636781, Note_off_c, 0, 74, 41
1, 636822, Note_off_c, 0, 71, 40
1, 636981, Note_off_c, 0, 86, 63
1, 636997, Note_on_c, 0, 74, 42
1, 637020, Note_on_c, 0, 71, 19
1, 637026, Note_off_c, 0, 79, 47
1, 637028, Note_off_c, 0, 62, 43
1, 637113, Note_on_c, 0, 84, 74
1, 637198, Note_off_c, 0, 84, 62
1, 637217, Note_on_c, 0, 83, 72
1, 637302, Note_on_c, 0, 81, 71
1, 637302, Control_c, 0, 64, 119
1, 637305, Note_off_c, 0, 83, 58
1, 637316, Control_c, 0, 64, 108
1, 637331, Control_c, 0, 64, 103
1, 637346, Control_c, 0, 64, 97
1, 637351, Note_on_c, 0, 62, 42
1, 637361, Control_c, 0, 64, 89
1, 637376, Control_c, 0, 64, 79
1, 637385, Note_off_c, 0, 74, 42
1, 637390, Control_c, 0, 64, 66
1, 637395, Note_off_c, 0, 81, 60
1, 637404, Note_on_c, 0, 83, 64
1, 637405, Control_c, 0, 64, 54
1, 637413, Note_off_c, 0, 71, 42
1, 637420, Control_c, 0, 64, 34
1, 637434, Control_c, 0, 64, 0
1, 637516, Control_c, 0, 64, 38
1, 637531, Control_c, 0, 64, 54
1, 637546, Control_c, 0, 64, 62
1, 637561, Control_c, 0, 64, 65
1, 637576, Control_c, 0, 64, 67
1, 637590, Control_c, 0, 64, 69
1, 637605, Control_c, 0, 64, 71
1, 637620, Control_c, 0, 64, 74
1, 637635, Control_c, 0, 64, 77
1, 637638, Note_on_c, 0, 71, 36
1, 637639, Note_on_c, 0, 74, 37
1, 637649, Control_c, 0, 64, 80
1, 637664, Control_c, 0, 64, 83
1, 637679, Control_c, 0, 64, 86
1, 637694, Control_c, 0, 64, 88
1, 637696, Note_off_c, 0, 62, 30
1, 637709, Control_c, 0, 64, 94
1, 637723, Control_c, 0, 64, 98
1, 637738, Control_c, 0, 64, 104
1, 637753, Control_c, 0, 64, 112
1, 637768, Control_c, 0, 64, 127
1, 637902, Note_on_c, 0, 62, 30
1, 637904, Note_on_c, 0, 79, 37
1, 637949, Note_off_c, 0, 74, 42
1, 638015, Note_off_c, 0, 71, 35
1, 638218, Note_off_c, 0, 79, 60
1, 638397, Note_off_c, 0, 62, 40
1, 638514, Note_on_c, 0, 74, 37
1, 638515, Note_on_c, 0, 71, 16
1, 638621, Note_off_c, 0, 71, 36
1, 638789, Note_on_c, 0, 79, 51
1, 638802, Note_on_c, 0, 62, 32
1, 638856, Note_off_c, 0, 74, 35
1, 638900, Note_off_c, 0, 55, 40
1, 638922, Note_off_c, 0, 62, 49
1, 638950, Note_off_c, 0, 83, 55
1, 639186, Note_on_c, 0, 51, 54
1, 639236, Control_c, 0, 64, 106
1, 639248, Note_on_c, 0, 83, 81
1, 639251, Control_c, 0, 64, 90
1, 639266, Control_c, 0, 64, 76
1, 639281, Control_c, 0, 64, 66
1, 639295, Control_c, 0, 64, 58
1, 639310, Control_c, 0, 64, 49
1, 639325, Control_c, 0, 64, 41
1, 639340, Control_c, 0, 64, 34
1, 639346, Note_off_c, 0, 79, 62
1, 639355, Control_c, 0, 64, 30
1, 639369, Control_c, 0, 64, 0
1, 639428, Control_c, 0, 64, 31
1, 639445, Control_c, 0, 64, 39
1, 639459, Control_c, 0, 64, 49
1, 639474, Control_c, 0, 64, 59
1, 639489, Control_c, 0, 64, 64
1, 639504, Control_c, 0, 64, 67
1, 639518, Control_c, 0, 64, 70
1, 639533, Control_c, 0, 64, 73
1, 639548, Control_c, 0, 64, 77
1, 639563, Control_c, 0, 64, 82
1, 639578, Control_c, 0, 64, 88
1, 639592, Control_c, 0, 64, 94
1, 639607, Control_c, 0, 64, 101
1, 639622, Control_c, 0, 64, 109
1, 639637, Control_c, 0, 64, 127
1, 639724, Note_on_c, 0, 59, 36
1, 639760, Note_on_c, 0, 79, 33
1, 639870, Note_off_c, 0, 51, 49
1, 640096, Note_on_c, 0, 67, 36
1, 640101, Note_on_c, 0, 75, 42
1, 640109, Note_on_c, 0, 71, 30
1, 640112, Note_off_c, 0, 59, 40
1, 640278, Note_off_c, 0, 79, 41
1, 640541, Note_on_c, 0, 59, 43
1, 640543, Note_on_c, 0, 79, 48
1, 640562, Note_off_c, 0, 67, 39
1, 640567, Note_off_c, 0, 83, 59
1, 640637, Note_off_c, 0, 71, 41
1, 640656, Note_on_c, 0, 83, 80
1, 640656, Note_off_c, 0, 75, 59
1, 640751, Note_off_c, 0, 59, 57
1, 640757, Note_off_c, 0, 79, 25
1, 640765, Note_on_c, 0, 67, 46
1, 640788, Note_on_c, 0, 71, 42
1, 640788, Note_on_c, 0, 75, 60
1, 640818, Note_off_c, 0, 67, 62
1, 640896, Note_off_c, 0, 83, 58
1, 640981, Note_on_c, 0, 83, 85
1, 640994, Note_on_c, 0, 73, 53
1, 641014, Note_off_c, 0, 75, 63
1, 641025, Note_off_c, 0, 71, 36
1, 641204, Note_on_c, 0, 79, 50
1, 641207, Note_on_c, 0, 75, 53
1, 641223, Note_off_c, 0, 83, 58
1, 641266, Note_off_c, 0, 73, 38
1, 641308, Note_on_c, 0, 83, 90
1, 641353, Note_off_c, 0, 79, 52
1, 641360, Note_off_c, 0, 75, 61
1, 641434, Note_on_c, 0, 67, 51
1, 641444, Note_on_c, 0, 75, 49
1, 641463, Note_on_c, 0, 71, 33
1, 641558, Note_off_c, 0, 83, 58
1, 641643, Note_on_c, 0, 83, 90
1, 641678, Note_off_c, 0, 75, 63
1, 641685, Note_off_c, 0, 71, 39
1, 641902, Note_on_c, 0, 75, 53
1, 641903, Note_on_c, 0, 79, 57
1, 641964, Note_off_c, 0, 67, 51
1, 641971, Note_off_c, 0, 83, 55
1, 642036, Note_off_c, 0, 75, 58
1, 642069, Note_on_c, 0, 83, 87
1, 642123, Note_off_c, 0, 79, 62
1, 642307, Note_on_c, 0, 67, 42
1, 642307, Note_on_c, 0, 75, 48
1, 642325, Note_on_c, 0, 71, 41
1, 642383, Note_off_c, 0, 67, 52
1, 642492, Note_off_c, 0, 71, 19
1, 642526, Note_off_c, 0, 75, 55
1, 642743, Note_on_c, 0, 49, 52
1, 642746, Note_on_c, 0, 81, 77
1, 642773, Control_c, 0, 64, 118
1, 642788, Control_c, 0, 64, 97
1, 642803, Control_c, 0, 64, 84
1, 642810, Note_off_c, 0, 83, 63
1, 642817, Control_c, 0, 64, 73
1, 642832, Control_c, 0, 64, 63
1, 642847, Control_c, 0, 64, 56
1, 642862, Control_c, 0, 64, 50
1, 642877, Control_c, 0, 64, 45
1, 642892, Control_c, 0, 64, 41
1, 642907, Control_c, 0, 64, 38
1, 642921, Control_c, 0, 64, 35
1, 642936, Control_c, 0, 64, 35
1, 642951, Control_c, 0, 64, 37
1, 642966, Control_c, 0, 64, 42
1, 642981, Control_c, 0, 64, 49
1, 642996, Control_c, 0, 64, 57
1, 643010, Control_c, 0, 64, 62
1, 643025, Control_c, 0, 64, 66
1, 643040, Control_c, 0, 64, 70
1, 643054, Control_c, 0, 64, 74
1, 643069, Control_c, 0, 64, 78
1, 643084, Control_c, 0, 64, 82
1, 643099, Control_c, 0, 64, 88
1, 643114, Control_c, 0, 64, 93
1, 643128, Control_c, 0, 64, 99
1, 643143, Control_c, 0, 64, 108
1, 643158, Control_c, 0, 64, 127
1, 643260, Note_on_c, 0, 57, 37
1, 643264, Note_on_c, 0, 77, 41
1, 643430, Note_off_c, 0, 49, 39
1, 643492, Control_c, 0, 67, 43
1, 643507, Control_c, 0, 67, 54
1, 643522, Control_c, 0, 67, 62
1, 643537, Control_c, 0, 67, 64
1, 643552, Control_c, 0, 67, 65
1, 643580, Note_off_c, 0, 57, 39
1, 643596, Control_c, 0, 67, 66
1, 643610, Control_c, 0, 67, 67
1, 643625, Control_c, 0, 67, 68
1, 643640, Control_c, 0, 67, 69
1, 643655, Control_c, 0, 67, 70
1, 643664, Note_on_c, 0, 73, 38
1, 643666, Note_on_c, 0, 65, 33
1, 643670, Control_c, 0, 67, 71
1, 643685, Control_c, 0, 67, 81
1, 643695, Note_on_c, 0, 69, 32
1, 643700, Control_c, 0, 67, 94
1, 643714, Control_c, 0, 67, 102
1, 643729, Control_c, 0, 67, 104
1, 643774, Control_c, 0, 67, 106
1, 643825, Note_off_c, 0, 81, 58
1, 643872, Note_off_c, 0, 69, 42
1, 643878, Control_c, 0, 67, 103
1, 643932, Note_off_c, 0, 73, 38
1, 643937, Control_c, 0, 67, 101
1, 643981, Control_c, 0, 67, 99
1, 644025, Control_c, 0, 67, 97
1, 644084, Control_c, 0, 67, 96
1, 644104, Note_on_c, 0, 83, 66
1, 644114, Control_c, 0, 67, 95
1, 644127, Note_off_c, 0, 77, 58
1, 644225, Control_c, 0, 67, 94
1, 644241, Control_c, 0, 67, 94
1, 644271, Control_c, 0, 67, 93
1, 644315, Control_c, 0, 67, 92
1, 644377, Note_on_c, 0, 57, 31
1, 644389, Control_c, 0, 67, 92
1, 644513, Note_on_c, 0, 81, 57
1, 644532, Note_off_c, 0, 83, 57
1, 644537, Control_c, 0, 67, 91
1, 644543, Note_off_c, 0, 65, 41
1, 644694, Note_on_c, 0, 65, 34
1, 644776, Note_off_c, 0, 57, 40
1, 644782, Note_on_c, 0, 79, 53
1, 644801, Note_off_c, 0, 81, 45
1, 644804, Control_c, 0, 67, 92
1, 644863, Note_on_c, 0, 77, 60
1, 644893, Control_c, 0, 67, 92
1, 644926, Note_on_c, 0, 75, 66
1, 644944, Note_off_c, 0, 77, 61
1, 644989, Note_off_c, 0, 79, 36
1, 645031, Note_on_c, 0, 77, 64
1, 645035, Control_c, 0, 67, 93
1, 645043, Note_off_c, 0, 75, 59
1, 645050, Control_c, 0, 64, 124
1, 645056, Note_on_c, 0, 57, 38
1, 645064, Control_c, 0, 64, 101
1, 645071, Note_off_c, 0, 65, 37
1, 645079, Control_c, 0, 64, 87
1, 645094, Control_c, 0, 64, 78
1, 645109, Control_c, 0, 64, 72
1, 645124, Control_c, 0, 64, 67
1, 645138, Control_c, 0, 64, 64
1, 645153, Control_c, 0, 64, 63
1, 645168, Control_c, 0, 64, 63
1, 645198, Control_c, 0, 64, 64
1, 645212, Control_c, 0, 64, 66
1, 645212, Control_c, 0, 67, 92
1, 645227, Control_c, 0, 64, 69
1, 645242, Control_c, 0, 64, 73
1, 645256, Control_c, 0, 64, 76
1, 645271, Control_c, 0, 64, 77
1, 645286, Control_c, 0, 64, 78
1, 645286, Control_c, 0, 67, 92
1, 645301, Control_c, 0, 64, 78
1, 645359, Note_on_c, 0, 73, 43
1, 645363, Note_on_c, 0, 65, 38
1, 645375, Control_c, 0, 64, 79
1, 645449, Control_c, 0, 64, 79
1, 645479, Control_c, 0, 64, 80
1, 645494, Control_c, 0, 64, 81
1, 645509, Control_c, 0, 64, 81
1, 645524, Control_c, 0, 64, 82
1, 645538, Control_c, 0, 64, 82
1, 645568, Control_c, 0, 64, 83
1, 645618, Note_on_c, 0, 75, 41
1, 645639, Note_on_c, 0, 67, 39
1, 645650, Note_on_c, 0, 69, 19
1, 645671, Control_c, 0, 64, 82
1, 645686, Control_c, 0, 64, 81
1, 645709, Control_c, 0, 64, 81
1, 645712, Note_off_c, 0, 65, 35
1, 645716, Note_off_c, 0, 73, 30
1, 645812, Control_c, 0, 64, 82
1, 645812, Control_c, 0, 67, 91
1, 645828, Control_c, 0, 64, 83
1, 645843, Control_c, 0, 64, 86
1, 645858, Control_c, 0, 64, 90
1, 645873, Control_c, 0, 64, 94
1, 645887, Control_c, 0, 64, 99
1, 645902, Control_c, 0, 64, 104
1, 645917, Control_c, 0, 64, 109
1, 645917, Control_c, 0, 67, 90
1, 645932, Control_c, 0, 64, 120
1, 645947, Control_c, 0, 64, 127
1, 645947, Control_c, 0, 67, 90
1, 645976, Control_c, 0, 67, 89
1, 646005, Control_c, 0, 67, 88
1, 646020, Control_c, 0, 67, 88
1, 646050, Control_c, 0, 67, 87
1, 646065, Control_c, 0, 67, 86
1, 646094, Control_c, 0, 67, 86
1, 646124, Control_c, 0, 67, 85
1, 646153, Control_c, 0, 67, 85
1, 646183, Control_c, 0, 67, 84
1, 646227, Control_c, 0, 67, 83
1, 646242, Control_c, 0, 67, 83
1, 646257, Note_on_c, 0, 73, 47
1, 646257, Control_c, 0, 67, 81
1, 646263, Note_on_c, 0, 65, 26
1, 646272, Control_c, 0, 67, 81
1, 646287, Control_c, 0, 67, 80
1, 646308, Note_off_c, 0, 67, 42
1, 646317, Control_c, 0, 67, 79
1, 646332, Control_c, 0, 67, 79
1, 646347, Control_c, 0, 67, 78
1, 646376, Control_c, 0, 67, 77
1, 646421, Note_off_c, 0, 65, 35
1, 646502, Control_c, 0, 67, 78
1, 646507, Note_off_c, 0, 75, 29
1, 646519, Note_on_c, 0, 71, 59
1, 646527, Note_off_c, 0, 57, 35
1, 646534, Note_on_c, 0, 63, 29
1, 646570, Note_off_c, 0, 63, 41
1, 646583, Note_off_c, 0, 69, 43
1, 646607, Note_off_c, 0, 73, 56
1, 646614, Note_off_c, 0, 77, 61
1, 646785, Control_c, 0, 67, 79
1, 646853, Note_on_c, 0, 45, 38
1, 646859, Control_c, 0, 67, 79
1, 646889, Control_c, 0, 64, 115
1, 646903, Control_c, 0, 64, 107
1, 646918, Control_c, 0, 64, 98
1, 646933, Control_c, 0, 64, 91
1, 646948, Control_c, 0, 64, 83
1, 646957, Note_on_c, 0, 73, 67
1, 646963, Control_c, 0, 64, 75
1, 646977, Control_c, 0, 64, 66
1, 646992, Control_c, 0, 64, 60
1, 647007, Control_c, 0, 64, 53
1, 647007, Control_c, 0, 67, 80
1, 647021, Control_c, 0, 64, 47
1, 647036, Control_c, 0, 64, 42
1, 647045, Note_off_c, 0, 71, 62
1, 647051, Control_c, 0, 64, 39
1, 647066, Control_c, 0, 64, 37
1, 647125, Control_c, 0, 64, 39
1, 647140, Control_c, 0, 64, 44
1, 647155, Control_c, 0, 64, 51
1, 647170, Control_c, 0, 64, 58
1, 647184, Control_c, 0, 64, 62
1, 647207, Control_c, 0, 64, 65
1, 647207, Control_c, 0, 67, 79
1, 647222, Control_c, 0, 64, 68
1, 647236, Control_c, 0, 64, 71
1, 647251, Control_c, 0, 64, 74
1, 647251, Control_c, 0, 67, 79
1, 647266, Control_c, 0, 64, 76
1, 647281, Control_c, 0, 64, 80
1, 647296, Control_c, 0, 64, 83
1, 647296, Control_c, 0, 67, 78
1, 647310, Control_c, 0, 64, 87
1, 647325, Control_c, 0, 64, 92
1, 647325, Control_c, 0, 67, 77
1, 647339, Note_on_c, 0, 53, 39
1, 647340, Control_c, 0, 64, 97
1, 647350, Note_on_c, 0, 69, 37
1, 647354, Control_c, 0, 64, 102
1, 647354, Control_c, 0, 67, 77
1, 647369, Control_c, 0, 64, 108
1, 647384, Control_c, 0, 64, 120
1, 647384, Control_c, 0, 67, 76
1, 647399, Control_c, 0, 64, 127
1, 647422, Note_off_c, 0, 45, 34
1, 647504, Control_c, 0, 67, 75
1, 647607, Control_c, 0, 67, 75
1, 647622, Note_off_c, 0, 53, 58
1, 647641, Note_on_c, 0, 61, 41
1, 647641, Note_off_c, 0, 69, 54
1, 647649, Note_on_c, 0, 65, 38
1, 647652, Control_c, 0, 67, 74
1, 647682, Control_c, 0, 67, 73
1, 647697, Control_c, 0, 67, 73
1, 647726, Control_c, 0, 67, 72
1, 647741, Control_c, 0, 67, 71
1, 647756, Control_c, 0, 67, 71
1, 647770, Control_c, 0, 67, 70
1, 647800, Control_c, 0, 67, 69
1, 647815, Control_c, 0, 67, 68
1, 647830, Control_c, 0, 67, 66
1, 647844, Control_c, 0, 67, 62
1, 647859, Control_c, 0, 67, 49
1, 647874, Control_c, 0, 67, 0
1, 647921, Note_off_c, 0, 65, 35
1, 648123, Note_on_c, 0, 69, 43
1, 648130, Note_on_c, 0, 65, 33
1, 648135, Note_off_c, 0, 61, 41
1, 648251, Note_on_c, 0, 75, 70
1, 648329, Note_off_c, 0, 69, 32
1, 648393, Note_on_c, 0, 61, 46
1, 648401, Note_off_c, 0, 73, 56
1, 648493, Note_off_c, 0, 65, 41
1, 648563, Note_off_c, 0, 61, 57
1, 648593, Note_on_c, 0, 77, 78
1, 648622, Control_c, 0, 64, 114
1, 648629, Note_on_c, 0, 69, 26
1, 648637, Control_c, 0, 64, 102
1, 648652, Control_c, 0, 64, 100
1, 648678, Note_off_c, 0, 75, 46
1, 648772, Note_off_c, 0, 69, 36
1, 648793, Control_c, 0, 64, 103
1, 648807, Control_c, 0, 64, 105
1, 648822, Control_c, 0, 64, 108
1, 648837, Control_c, 0, 64, 114
1, 648839, Note_on_c, 0, 73, 61
1, 648846, Note_off_c, 0, 77, 55
1, 648851, Note_on_c, 0, 65, 46
1, 648852, Control_c, 0, 64, 127
1, 648959, Note_on_c, 0, 79, 77
1, 649014, Note_off_c, 0, 73, 51
1, 649086, Note_off_c, 0, 65, 57
1, 649092, Note_on_c, 0, 73, 50
1, 649103, Note_on_c, 0, 69, 62
1, 649196, Note_off_c, 0, 79, 52
1, 649348, Note_on_c, 0, 81, 86
1, 649361, Note_off_c, 0, 69, 55
1, 649646, Note_on_c, 0, 75, 69
1, 649655, Note_on_c, 0, 77, 76
1, 649679, Note_off_c, 0, 73, 62
1, 649807, Note_off_c, 0, 77, 60
1, 649847, Note_on_c, 0, 83, 89
1, 649911, Note_off_c, 0, 81, 56
1, 650058, Note_on_c, 0, 77, 71
1, 650062, Note_on_c, 0, 73, 64
1, 650064, Note_off_c, 0, 75, 60
1, 650124, Note_off_c, 0, 77, 63
1, 650206, Note_off_c, 0, 73, 52
1, 650523, Note_on_c, 0, 43, 60
1, 650586, Note_on_c, 0, 81, 82
1, 650616, Control_c, 0, 64, 113
1, 650631, Control_c, 0, 64, 93
1, 650646, Control_c, 0, 64, 81
1, 650661, Note_off_c, 0, 83, 58
1, 650661, Control_c, 0, 64, 71
1, 650675, Control_c, 0, 64, 63
1, 650690, Control_c, 0, 64, 55
1, 650705, Control_c, 0, 64, 53
1, 650720, Control_c, 0, 64, 52
1, 650735, Control_c, 0, 64, 53
1, 650749, Control_c, 0, 64, 54
1, 650764, Control_c, 0, 64, 55
1, 650779, Control_c, 0, 64, 58
1, 650794, Control_c, 0, 64, 62
1, 650809, Control_c, 0, 64, 66
1, 650824, Control_c, 0, 64, 69
1, 650839, Control_c, 0, 64, 73
1, 650854, Control_c, 0, 64, 77
1, 650868, Control_c, 0, 64, 79
1, 650883, Control_c, 0, 64, 80
1, 650898, Control_c, 0, 64, 81
1, 650913, Control_c, 0, 64, 82
1, 650928, Control_c, 0, 64, 82
1, 650976, Note_on_c, 0, 83, 82
1, 651038, Note_off_c, 0, 81, 56
1, 651122, Note_on_c, 0, 50, 46
1, 651206, Note_on_c, 0, 81, 77
1, 651216, Control_c, 0, 64, 82
1, 651256, Note_off_c, 0, 83, 59
1, 651290, Control_c, 0, 64, 81
1, 651319, Control_c, 0, 64, 81
1, 651334, Note_on_c, 0, 79, 79
1, 651334, Control_c, 0, 64, 80
1, 651349, Control_c, 0, 64, 80
1, 651364, Control_c, 0, 64, 79
1, 651379, Control_c, 0, 64, 78
1, 651393, Control_c, 0, 64, 78
1, 651408, Control_c, 0, 64, 77
1, 651424, Control_c, 0, 64, 76
1, 651439, Control_c, 0, 64, 75
1, 651443, Note_off_c, 0, 81, 37
1, 651450, Note_on_c, 0, 77, 80
1, 651454, Control_c, 0, 64, 73
1, 651469, Control_c, 0, 64, 72
1, 651482, Note_off_c, 0, 79, 62
1, 651484, Control_c, 0, 64, 70
1, 651498, Control_c, 0, 64, 69
1, 651513, Control_c, 0, 64, 67
1, 651528, Control_c, 0, 64, 65
1, 651542, Control_c, 0, 64, 65
1, 651557, Control_c, 0, 64, 64
1, 651572, Control_c, 0, 64, 64
1, 651587, Control_c, 0, 64, 63
1, 651596, Note_on_c, 0, 59, 44
1, 651602, Control_c, 0, 64, 63
1, 651617, Control_c, 0, 64, 62
1, 651632, Control_c, 0, 64, 61
1, 651647, Control_c, 0, 64, 61
1, 651661, Control_c, 0, 64, 60
1, 651672, Note_on_c, 0, 79, 68
1, 651676, Control_c, 0, 64, 59
1, 651698, Control_c, 0, 64, 58
1, 651713, Control_c, 0, 64, 57
1, 651724, Note_off_c, 0, 77, 60
1, 651728, Control_c, 0, 64, 56
1, 651743, Control_c, 0, 64, 54
1, 651757, Control_c, 0, 64, 52
1, 651772, Control_c, 0, 64, 48
1, 651787, Control_c, 0, 64, 44
1, 651802, Control_c, 0, 64, 39
1, 651817, Control_c, 0, 64, 33
1, 651831, Control_c, 0, 64, 31
1, 651861, Control_c, 0, 64, 33
1, 651876, Control_c, 0, 64, 42
1, 651891, Control_c, 0, 64, 54
1, 651906, Control_c, 0, 64, 64
1, 651921, Control_c, 0, 64, 71
1, 651936, Control_c, 0, 64, 78
1, 651950, Control_c, 0, 64, 84
1, 651965, Control_c, 0, 64, 92
1, 651977, Note_off_c, 0, 43, 61
1, 651980, Control_c, 0, 64, 103
1, 651992, Note_off_c, 0, 50, 57
1, 651995, Control_c, 0, 64, 127
1, 652024, Control_c, 0, 67, 47
1, 652039, Control_c, 0, 67, 60
1, 652054, Control_c, 0, 67, 75
1, 652069, Control_c, 0, 67, 92
1, 652084, Control_c, 0, 67, 109
1, 652098, Control_c, 0, 67, 120
1, 652113, Control_c, 0, 67, 127
1, 652205, Note_off_c, 0, 59, 54
1, 652215, Note_on_c, 0, 71, 49
1, 652223, Note_on_c, 0, 63, 43
1, 652365, Note_off_c, 0, 71, 36
1, 652493, Note_off_c, 0, 79, 36
1, 652505, Note_on_c, 0, 74, 50
1, 652521, Note_on_c, 0, 71, 42
1, 652527, Note_on_c, 0, 62, 37
1, 652532, Note_off_c, 0, 63, 36
1, 652536, Note_on_c, 0, 67, 27
1, 652551, Note_on_c, 0, 73, 30
1, 652600, Note_off_c, 0, 71, 49
1, 652762, Note_on_c, 0, 71, 45
1, 652777, Note_off_c, 0, 62, 43
1, 652777, Note_off_c, 0, 74, 34
1, 652782, Note_on_c, 0, 63, 37
1, 652834, Note_off_c, 0, 67, 40
1, 652836, Note_off_c, 0, 73, 39
1, 652879, Note_off_c, 0, 71, 49
1, 653052, Note_on_c, 0, 74, 43
1, 653080, Note_on_c, 0, 62, 26
1, 653087, Note_on_c, 0, 73, 27
1, 653092, Note_on_c, 0, 67, 6
1, 653104, Poly_aftertouch_c, 0, 71, 127
1, 653113, Note_off_c, 0, 63, 37
1, 653158, Poly_aftertouch_c, 0, 71, 0
1, 653416, Note_on_c, 0, 71, 34
1, 653420, Note_on_c, 0, 63, 29
1, 653452, Note_off_c, 0, 67, 0
1, 653459, Note_off_c, 0, 62, 35
1, 653502, Note_off_c, 0, 74, 22
1, 653541, Poly_aftertouch_c, 0, 67, 0
1, 653548, Note_off_c, 0, 73, 34
1, 653724, Note_off_c, 0, 71, 41
1, 654023, Note_on_c, 0, 74, 37
1, 654031, Note_on_c, 0, 62, 29
1, 654039, Note_on_c, 0, 71, 20
1, 654050, Note_on_c, 0, 73, 20
1, 654063, Poly_aftertouch_c, 0, 67, 127
1, 654112, Note_off_c, 0, 63, 38
1, 654138, Control_c, 0, 67, 123
1, 654152, Control_c, 0, 67, 112
1, 654159, Note_off_c, 0, 71, 41
1, 654167, Control_c, 0, 67, 100
1, 654182, Control_c, 0, 67, 90
1, 654197, Control_c, 0, 67, 78
1, 654212, Control_c, 0, 67, 68
1, 654226, Control_c, 0, 67, 58
1, 654241, Control_c, 0, 67, 51
1, 654256, Control_c, 0, 67, 46
1, 654271, Control_c, 0, 67, 41
1, 654285, Control_c, 0, 67, 0
1, 654337, Poly_aftertouch_c, 0, 67, 0
1, 654398, Note_on_c, 0, 63, 32
1, 654398, Note_on_c, 0, 71, 34
1, 654464, Note_off_c, 0, 74, 36
1, 654479, Note_off_c, 0, 62, 39
1, 654505, Note_off_c, 0, 73, 41
1, 654539, Note_off_c, 0, 71, 53
1, 654541, Note_off_c, 0, 63, 34
1, 654902, Note_on_c, 0, 41, 45
1, 654937, Note_on_c, 0, 79, 72
1, 654946, Control_c, 0, 64, 117
1, 654961, Control_c, 0, 64, 97
1, 654975, Control_c, 0, 64, 83
1, 654990, Control_c, 0, 64, 74
1, 655005, Control_c, 0, 64, 66
1, 655020, Control_c, 0, 64, 61
1, 655035, Control_c, 0, 64, 58
1, 655049, Control_c, 0, 64, 57
1, 655064, Control_c, 0, 64, 58
1, 655079, Control_c, 0, 64, 60
1, 655094, Control_c, 0, 64, 62
1, 655109, Control_c, 0, 64, 64
1, 655123, Control_c, 0, 64, 66
1, 655138, Control_c, 0, 64, 67
1, 655153, Control_c, 0, 64, 69
1, 655167, Control_c, 0, 64, 69
1, 655301, Control_c, 0, 64, 69
1, 655358, Note_on_c, 0, 81, 66
1, 655360, Control_c, 0, 64, 68
1, 655375, Note_off_c, 0, 79, 56
1, 655375, Control_c, 0, 64, 68
1, 655375, Control_c, 0, 67, 39
1, 655390, Control_c, 0, 67, 42
1, 655406, Control_c, 0, 64, 67
1, 655406, Control_c, 0, 67, 45
1, 655420, Control_c, 0, 64, 67
1, 655420, Control_c, 0, 67, 49
1, 655443, Control_c, 0, 64, 66
1, 655443, Control_c, 0, 67, 51
1, 655456, Note_on_c, 0, 48, 50
1, 655458, Control_c, 0, 64, 66
1, 655458, Control_c, 0, 67, 53
1, 655472, Control_c, 0, 64, 65
1, 655472, Control_c, 0, 67, 54
1, 655487, Control_c, 0, 64, 65
1, 655487, Control_c, 0, 67, 54
1, 655502, Control_c, 0, 64, 64
1, 655502, Control_c, 0, 67, 55
1, 655517, Control_c, 0, 64, 63
1, 655517, Control_c, 0, 67, 56
1, 655532, Control_c, 0, 64, 63
1, 655532, Control_c, 0, 67, 56
1, 655546, Control_c, 0, 64, 62
1, 655549, Note_on_c, 0, 79, 67
1, 655552, Note_off_c, 0, 81, 59
1, 655561, Control_c, 0, 64, 62
1, 655576, Control_c, 0, 64, 61
1, 655590, Control_c, 0, 64, 61
1, 655590, Control_c, 0, 67, 56
1, 655605, Control_c, 0, 64, 60
1, 655605, Control_c, 0, 67, 55
1, 655620, Control_c, 0, 64, 60
1, 655620, Control_c, 0, 67, 54
1, 655635, Control_c, 0, 64, 59
1, 655635, Control_c, 0, 67, 54
1, 655650, Control_c, 0, 67, 53
1, 655653, Note_on_c, 0, 77, 73
1, 655658, Note_off_c, 0, 79, 58
1, 655665, Control_c, 0, 64, 59
1, 655680, Control_c, 0, 64, 58
1, 655710, Control_c, 0, 67, 53
1, 655724, Control_c, 0, 64, 58
1, 655739, Control_c, 0, 64, 57
1, 655739, Note_off_c, 0, 77, 62
1, 655756, Note_on_c, 0, 75, 65
1, 655769, Control_c, 0, 64, 57
1, 655784, Control_c, 0, 64, 56
1, 655813, Control_c, 0, 64, 56
1, 655828, Control_c, 0, 64, 55
1, 655843, Control_c, 0, 64, 55
1, 655858, Control_c, 0, 64, 54
1, 655872, Control_c, 0, 64, 53
1, 655885, Note_on_c, 0, 57, 35
1, 655887, Control_c, 0, 64, 52
1, 655902, Control_c, 0, 64, 49
1, 655915, Note_off_c, 0, 75, 46
1, 655916, Control_c, 0, 64, 46
1, 655921, Note_on_c, 0, 77, 62
1, 655931, Control_c, 0, 64, 42
1, 655946, Control_c, 0, 64, 36
1, 655961, Control_c, 0, 64, 0
1, 655990, Control_c, 0, 67, 53
1, 656079, Control_c, 0, 64, 37
1, 656094, Control_c, 0, 64, 55
1, 656109, Control_c, 0, 64, 64
1, 656109, Control_c, 0, 67, 54
1, 656124, Control_c, 0, 64, 68
1, 656124, Control_c, 0, 67, 54
1, 656139, Control_c, 0, 64, 73
1, 656139, Control_c, 0, 67, 56
1, 656154, Control_c, 0, 64, 77
1, 656154, Control_c, 0, 67, 57
1, 656169, Control_c, 0, 64, 84
1, 656169, Control_c, 0, 67, 58
1, 656173, Note_off_c, 0, 41, 61
1, 656181, Note_off_c, 0, 77, 65
1, 656190, Control_c, 0, 64, 92
1, 656190, Control_c, 0, 67, 61
1, 656205, Control_c, 0, 64, 102
1, 656205, Control_c, 0, 67, 64
1, 656210, Note_off_c, 0, 48, 34
1, 656221, Control_c, 0, 64, 114
1, 656221, Control_c, 0, 67, 70
1, 656236, Control_c, 0, 64, 127
1, 656236, Control_c, 0, 67, 81
1, 656251, Control_c, 0, 67, 94
1, 656266, Control_c, 0, 67, 110
1, 656281, Control_c, 0, 67, 124
1, 656295, Control_c, 0, 67, 127
1, 656395, Note_off_c, 0, 57, 52
1, 656432, Note_on_c, 0, 61, 24
1, 656436, Note_on_c, 0, 69, 32
1, 656729, Note_on_c, 0, 73, 39
1, 656731, Note_on_c, 0, 65, 25
1, 656738, Note_on_c, 0, 57, 24
1, 656755, Note_off_c, 0, 69, 41
1, 656759, Note_off_c, 0, 61, 39
1, 656771, Poly_aftertouch_c, 0, 63, 127
1, 656780, Poly_aftertouch_c, 0, 71, 127
1, 656795, Poly_aftertouch_c, 0, 67, 127
1, 656884, Poly_aftertouch_c, 0, 67, 0
1, 656921, Poly_aftertouch_c, 0, 67, 127
1, 657000, Note_off_c, 0, 73, 34
1, 657004, Note_on_c, 0, 61, 30
1, 657010, Poly_aftertouch_c, 0, 63, 0
1, 657015, Note_off_c, 0, 65, 38
1, 657016, Note_on_c, 0, 69, 23
1, 657028, Poly_aftertouch_c, 0, 71, 0
1, 657036, Note_off_c, 0, 57, 35
1, 657068, Poly_aftertouch_c, 0, 67, 0
1, 657281, Note_on_c, 0, 65, 20
1, 657282, Note_on_c, 0, 73, 38
1, 657289, Note_on_c, 0, 71, 24
1, 657291, Poly_aftertouch_c, 0, 67, 127
1, 657294, Note_on_c, 0, 57, 32
1, 657333, Poly_aftertouch_c, 0, 63, 127
1, 657335, Note_off_c, 0, 61, 41
1, 657352, Note_off_c, 0, 69, 42
1, 657576, Note_off_c, 0, 65, 38
1, 657585, Note_on_c, 0, 69, 35
1, 657597, Note_on_c, 0, 61, 27
1, 657612, Note_off_c, 0, 73, 30
1, 657620, Poly_aftertouch_c, 0, 63, 0
1, 657676, Note_off_c, 0, 71, 38
1, 657689, Note_off_c, 0, 57, 36
1, 657740, Poly_aftertouch_c, 0, 67, 0
1, 658175, Note_on_c, 0, 71, 31
1, 658179, Note_on_c, 0, 73, 34
1, 658180, Note_on_c, 0, 57, 30
1, 658184, Note_on_c, 0, 67, 12
1, 658210, Poly_aftertouch_c, 0, 65, 127
1, 658211, Note_on_c, 0, 65, 3
1, 658222, Poly_aftertouch_c, 0, 63, 127
1, 658267, Note_off_c, 0, 61, 37
1, 658276, Note_off_c, 0, 69, 39
1, 658504, Note_off_c, 0, 65, 35
1, 658578, Note_on_c, 0, 69, 35
1, 658616, Note_on_c, 0, 61, 9
1, 658655, Poly_aftertouch_c, 0, 63, 0
1, 658689, Note_off_c, 0, 57, 35
1, 658708, Note_off_c, 0, 67, 42
1, 658753, Note_off_c, 0, 61, 47
1, 658756, Note_off_c, 0, 69, 37
1, 658772, Note_off_c, 0, 71, 39
1, 658782, Note_off_c, 0, 73, 61
1, 659155, Note_on_c, 0, 39, 33
1, 659201, Control_c, 0, 64, 111
1, 659215, Control_c, 0, 64, 103
1, 659230, Control_c, 0, 64, 97
1, 659232, Note_on_c, 0, 77, 48
1, 659245, Control_c, 0, 64, 92
1, 659260, Control_c, 0, 64, 87
1, 659275, Control_c, 0, 64, 82
1, 659290, Control_c, 0, 64, 77
1, 659305, Control_c, 0, 64, 71
1, 659319, Control_c, 0, 64, 66
1, 659334, Control_c, 0, 64, 61
1, 659349, Control_c, 0, 64, 58
1, 659364, Control_c, 0, 64, 56
1, 659379, Control_c, 0, 64, 56
1, 659394, Control_c, 0, 64, 55
1, 659424, Control_c, 0, 64, 55
1, 659439, Control_c, 0, 64, 54
1, 659454, Control_c, 0, 64, 54
1, 659513, Control_c, 0, 64, 54
1, 659528, Control_c, 0, 64, 56
1, 659543, Control_c, 0, 64, 58
1, 659557, Control_c, 0, 64, 59
1, 659572, Control_c, 0, 64, 61
1, 659587, Control_c, 0, 64, 63
1, 659602, Control_c, 0, 64, 63
1, 659617, Control_c, 0, 64, 64
1, 659631, Control_c, 0, 64, 64
1, 659662, Note_on_c, 0, 79, 45
1, 659665, Note_off_c, 0, 77, 54
1, 659676, Control_c, 0, 64, 65
1, 659764, Control_c, 0, 64, 65
1, 659779, Control_c, 0, 64, 66
1, 659794, Control_c, 0, 64, 66
1, 659809, Control_c, 0, 64, 67
1, 659811, Note_on_c, 0, 46, 30
1, 659915, Note_off_c, 0, 79, 52
1, 659918, Note_on_c, 0, 77, 49
1, 659979, Control_c, 0, 64, 67
1, 660009, Control_c, 0, 64, 68
1, 660024, Control_c, 0, 64, 68
1, 660038, Control_c, 0, 64, 69
1, 660053, Control_c, 0, 64, 70
1, 660055, Note_off_c, 0, 77, 58
1, 660068, Control_c, 0, 64, 71
1, 660071, Note_on_c, 0, 75, 51
1, 660083, Control_c, 0, 64, 73
1, 660097, Control_c, 0, 64, 74
1, 660112, Control_c, 0, 64, 75
1, 660128, Control_c, 0, 64, 76
1, 660143, Control_c, 0, 64, 77
1, 660157, Control_c, 0, 64, 78
1, 660172, Control_c, 0, 64, 79
1, 660187, Control_c, 0, 64, 79
1, 660195, Note_off_c, 0, 39, 43
1, 660200, Note_off_c, 0, 75, 51
1, 660202, Control_c, 0, 64, 80
1, 660218, Control_c, 0, 64, 80
1, 660233, Control_c, 0, 64, 81
1, 660238, Note_on_c, 0, 73, 44
1, 660262, Control_c, 0, 64, 81
1, 660292, Control_c, 0, 64, 82
1, 660336, Control_c, 0, 64, 82
1, 660381, Control_c, 0, 64, 83
1, 660419, Note_on_c, 0, 55, 32
1, 660425, Control_c, 0, 64, 83
1, 660455, Control_c, 0, 64, 84
1, 660470, Control_c, 0, 64, 84
1, 660485, Control_c, 0, 64, 85
1, 660500, Control_c, 0, 64, 86
1, 660514, Control_c, 0, 64, 87
1, 660523, Note_on_c, 0, 75, 47
1, 660529, Control_c, 0, 64, 88
1, 660544, Control_c, 0, 64, 88
1, 660554, Note_off_c, 0, 73, 59
1, 660559, Control_c, 0, 64, 89
1, 660574, Control_c, 0, 64, 90
1, 660588, Control_c, 0, 64, 92
1, 660603, Control_c, 0, 64, 93
1, 660618, Control_c, 0, 64, 94
1, 660633, Control_c, 0, 64, 95
1, 660635, Note_off_c, 0, 46, 39
1, 660662, Control_c, 0, 64, 98
1, 660685, Control_c, 0, 64, 100
1, 660700, Control_c, 0, 64, 102
1, 660714, Control_c, 0, 64, 105
1, 660729, Control_c, 0, 64, 108
1, 660744, Control_c, 0, 64, 110
1, 660759, Control_c, 0, 64, 115
1, 660774, Control_c, 0, 64, 122
1, 660788, Control_c, 0, 64, 127
1, 661027, Note_off_c, 0, 55, 41
1, 661066, Note_on_c, 0, 58, 35
1, 661092, Note_on_c, 0, 67, 24
1, 661119, Note_off_c, 0, 75, 59
1, 661334, Note_off_c, 0, 67, 43
1, 661379, Note_off_c, 0, 58, 35
1, 661433, Note_on_c, 0, 57, 34
1, 661433, Note_on_c, 0, 70, 38
1, 661454, Note_on_c, 0, 66, 14
1, 661461, Note_on_c, 0, 63, 16
1, 661463, Note_on_c, 0, 62, 21
1, 661619, Note_off_c, 0, 66, 40
1, 661637, Note_off_c, 0, 70, 41
1, 661661, Note_off_c, 0, 62, 40
1, 661717, Note_on_c, 0, 67, 31
1, 661721, Note_on_c, 0, 58, 38
1, 661722, Note_off_c, 0, 63, 31
1, 661725, Note_off_c, 0, 57, 34
1, 661975, Note_on_c, 0, 57, 30
1, 661977, Note_on_c, 0, 70, 39
1, 661988, Note_on_c, 0, 66, 20
1, 661995, Note_on_c, 0, 62, 25
1, 661998, Note_on_c, 0, 63, 19
1, 662036, Note_off_c, 0, 67, 41
1, 662098, Note_off_c, 0, 58, 37
1, 662149, Note_off_c, 0, 63, 27
1, 662199, Note_off_c, 0, 66, 36
1, 662229, Note_off_c, 0, 70, 41
1, 662255, Note_off_c, 0, 62, 37
1, 662271, Note_on_c, 0, 67, 26
1, 662275, Note_on_c, 0, 58, 38
1, 662282, Note_off_c, 0, 57, 37
1, 662785, Note_on_c, 0, 70, 39
1, 662820, Note_on_c, 0, 62, 13
1, 662822, Note_on_c, 0, 57, 25
1, 662828, Note_on_c, 0, 63, 7
1, 662839, Poly_aftertouch_c, 0, 66, 127
1, 662873, Note_off_c, 0, 67, 44
1, 662913, Note_off_c, 0, 58, 39
1, 662952, Note_off_c, 0, 62, 42
1, 662992, Poly_aftertouch_c, 0, 66, 0
1, 663037, Note_off_c, 0, 57, 33
1, 663129, Note_on_c, 0, 58, 34
1, 663131, Note_off_c, 0, 63, 26
1, 663147, Note_on_c, 0, 67, 24
1, 663179, Note_off_c, 0, 58, 59
1, 663182, Note_off_c, 0, 70, 42
1, 663185, Note_off_c, 0, 67, 48
1, 663476, Note_on_c, 0, 82, 45
1, 663478, Note_on_c, 0, 79, 52
1, 663493, Note_on_c, 0, 75, 44
1, 663589, Note_off_c, 0, 82, 54
1, 663782, Note_off_c, 0, 75, 36
1, 663791, Note_on_c, 0, 80, 45
1, 663795, Note_on_c, 0, 86, 63
1, 663809, Note_on_c, 0, 78, 47
1, 663857, Note_off_c, 0, 79, 38
1, 663859, Poly_aftertouch_c, 0, 70, 127
1, 663900, Poly_aftertouch_c, 0, 70, 0
1, 663948, Note_off_c, 0, 78, 32
1, 664084, Note_off_c, 0, 80, 48
1, 664138, Note_on_c, 0, 79, 50
1, 664140, Note_on_c, 0, 82, 51
1, 664180, Note_off_c, 0, 86, 39
1, 664198, Note_on_c, 0, 74, 3
1, 664228, Poly_aftertouch_c, 0, 75, 127
1, 664243, Note_off_c, 0, 74, 44
1, 664298, Poly_aftertouch_c, 0, 75, 0
1, 664335, Poly_aftertouch_c, 0, 75, 127
1, 664453, Note_off_c, 0, 82, 38
1, 664763, Note_on_c, 0, 80, 32
1, 664776, Note_on_c, 0, 86, 46
1, 664812, Poly_aftertouch_c, 0, 70, 127
1, 664846, Poly_aftertouch_c, 0, 75, 0
1, 664852, Poly_aftertouch_c, 0, 78, 127
1, 664863, Note_off_c, 0, 79, 33
1, 664871, Poly_aftertouch_c, 0, 70, 0
1, 664915, Poly_aftertouch_c, 0, 78, 0
1, 665107, Note_off_c, 0, 80, 37
1, 665207, Note_on_c, 0, 79, 46
1, 665228, Note_on_c, 0, 74, 26
1, 665231, Note_on_c, 0, 82, 36
1, 665238, Note_on_c, 0, 75, 31
1, 665257, Note_off_c, 0, 86, 56
1, 665281, Note_off_c, 0, 82, 60
1, 665305, Note_off_c, 0, 79, 62
1, 665313, Note_off_c, 0, 75, 55
1, 665346, Note_off_c, 0, 74, 41
1, 665589, Note_on_c, 0, 72, 57
1, 665591, Control_c, 0, 64, 94
1, 665603, Note_on_c, 0, 70, 41
1, 665605, Note_on_c, 0, 63, 46
1, 665606, Control_c, 0, 64, 80
1, 665609, Note_on_c, 0, 67, 37
1, 665620, Control_c, 0, 64, 70
1, 665635, Control_c, 0, 64, 63
1, 665650, Control_c, 0, 64, 59
1, 665680, Control_c, 0, 64, 61
1, 665694, Control_c, 0, 64, 64
1, 665709, Control_c, 0, 64, 67
1, 665724, Control_c, 0, 64, 70
1, 665738, Note_off_c, 0, 70, 53
1, 665739, Control_c, 0, 64, 74
1, 665754, Control_c, 0, 64, 76
1, 665768, Control_c, 0, 64, 77
1, 665783, Control_c, 0, 64, 79
1, 665799, Control_c, 0, 64, 80
1, 665814, Control_c, 0, 64, 82
1, 665819, Note_off_c, 0, 67, 39
1, 665829, Control_c, 0, 64, 83
1, 665844, Control_c, 0, 64, 84
1, 665859, Control_c, 0, 64, 85
1, 665873, Control_c, 0, 64, 86
1, 665888, Control_c, 0, 64, 87
1, 665967, Note_on_c, 0, 74, 62
1, 665970, Control_c, 0, 64, 86
1, 665970, Note_on_c, 0, 68, 41
1, 665975, Note_on_c, 0, 66, 52
1, 665985, Control_c, 0, 64, 84
1, 665990, Note_on_c, 0, 58, 34
1, 665999, Control_c, 0, 64, 78
1, 666009, Note_off_c, 0, 72, 59
1, 666014, Control_c, 0, 64, 71
1, 666029, Control_c, 0, 64, 65
1, 666042, Note_off_c, 0, 63, 37
1, 666044, Control_c, 0, 64, 62
1, 666058, Control_c, 0, 64, 61
1, 666088, Control_c, 0, 64, 62
1, 666103, Control_c, 0, 64, 63
1, 666119, Control_c, 0, 64, 66
1, 666133, Control_c, 0, 64, 70
1, 666148, Control_c, 0, 64, 76
1, 666162, Note_off_c, 0, 58, 38
1, 666163, Control_c, 0, 64, 81
1, 666176, Note_off_c, 0, 66, 52
1, 666178, Control_c, 0, 64, 84
1, 666193, Control_c, 0, 64, 87
1, 666207, Control_c, 0, 64, 91
1, 666222, Control_c, 0, 64, 94
1, 666237, Control_c, 0, 64, 97
1, 666266, Control_c, 0, 64, 99
1, 666388, Note_on_c, 0, 63, 50
1, 666390, Note_on_c, 0, 72, 55
1, 666395, Note_on_c, 0, 70, 39
1, 666405, Note_on_c, 0, 67, 44
1, 666429, Control_c, 0, 64, 95
1, 666444, Control_c, 0, 64, 86
1, 666459, Control_c, 0, 64, 75
1, 666470, Note_off_c, 0, 68, 35
1, 666474, Control_c, 0, 64, 64
1, 666480, Note_off_c, 0, 74, 58
1, 666489, Control_c, 0, 64, 56
1, 666503, Control_c, 0, 64, 51
1, 666518, Control_c, 0, 64, 50
1, 666533, Control_c, 0, 64, 51
1, 666548, Control_c, 0, 64, 53
1, 666563, Control_c, 0, 64, 57
1, 666578, Control_c, 0, 64, 61
1, 666593, Control_c, 0, 64, 65
1, 666608, Control_c, 0, 64, 71
1, 666623, Control_c, 0, 64, 77
1, 666638, Control_c, 0, 64, 81
1, 666652, Control_c, 0, 64, 86
1, 666674, Control_c, 0, 64, 92
1, 666689, Control_c, 0, 64, 99
1, 666704, Control_c, 0, 64, 109
1, 666719, Control_c, 0, 64, 127
1, 666748, Control_c, 0, 67, 115
1, 666749, Note_off_c, 0, 63, 62
1, 666763, Control_c, 0, 67, 102
1, 666778, Note_off_c, 0, 70, 36
1, 666778, Control_c, 0, 67, 89
1, 666793, Control_c, 0, 67, 78
1, 666808, Control_c, 0, 67, 68
1, 666822, Control_c, 0, 67, 58
1, 666837, Control_c, 0, 67, 49
1, 666852, Control_c, 0, 67, 37
1, 666853, Note_off_c, 0, 72, 61
1, 666867, Control_c, 0, 67, 0
1, 666870, Note_off_c, 0, 67, 35
1, 667208, Note_on_c, 0, 70, 52
1, 667210, Note_on_c, 0, 75, 71
1, 667236, Note_on_c, 0, 67, 43
1, 667237, Note_on_c, 0, 61, 41
1, 667242, Note_on_c, 0, 69, 44
1, 667455, Note_off_c, 0, 70, 57
1, 667467, Note_off_c, 0, 67, 53
1, 667484, Note_off_c, 0, 69, 42
1, 667718, Note_on_c, 0, 79, 80
1, 667730, Note_on_c, 0, 70, 59
1, 667742, Note_on_c, 0, 63, 53
1, 667742, Note_on_c, 0, 73, 48
1, 667752, Note_off_c, 0, 75, 63
1, 667767, Note_off_c, 0, 61, 53
1, 667901, Note_off_c, 0, 63, 59
1, 668079, Note_off_c, 0, 73, 56
1, 668125, Note_off_c, 0, 70, 37
1, 668499, Note_on_c, 0, 43, 44
1, 668542, Control_c, 0, 64, 107
1, 668552, Note_on_c, 0, 76, 68
1, 668557, Control_c, 0, 64, 91
1, 668569, Note_on_c, 0, 71, 49
1, 668572, Control_c, 0, 64, 81
1, 668573, Note_on_c, 0, 67, 38
1, 668587, Control_c, 0, 64, 74
1, 668602, Control_c, 0, 64, 66
1, 668617, Control_c, 0, 64, 59
1, 668632, Control_c, 0, 64, 53
1, 668646, Control_c, 0, 64, 50
1, 668661, Control_c, 0, 64, 48
1, 668735, Control_c, 0, 64, 48
1, 668750, Control_c, 0, 64, 52
1, 668752, Note_off_c, 0, 79, 54
1, 668765, Control_c, 0, 64, 56
1, 668780, Control_c, 0, 64, 60
1, 668794, Control_c, 0, 64, 62
1, 668809, Control_c, 0, 64, 63
1, 668824, Control_c, 0, 64, 65
1, 668838, Control_c, 0, 64, 67
1, 668853, Control_c, 0, 64, 69
1, 668868, Control_c, 0, 64, 70
1, 668883, Control_c, 0, 64, 71
1, 669010, Control_c, 0, 64, 70
1, 669039, Note_on_c, 0, 78, 63
1, 669040, Control_c, 0, 64, 70
1, 669055, Control_c, 0, 64, 69
1, 669069, Control_c, 0, 64, 68
1, 669084, Control_c, 0, 64, 67
1, 669086, Note_off_c, 0, 76, 58
1, 669099, Control_c, 0, 64, 67
1, 669113, Control_c, 0, 64, 66
1, 669128, Control_c, 0, 64, 65
1, 669142, Control_c, 0, 64, 65
1, 669172, Control_c, 0, 64, 64
1, 669200, Note_on_c, 0, 50, 32
1, 669231, Control_c, 0, 64, 64
1, 669292, Note_on_c, 0, 76, 61
1, 669340, Note_off_c, 0, 78, 54
1, 669350, Control_c, 0, 67, 40
1, 669360, Note_off_c, 0, 71, 52
1, 669365, Control_c, 0, 67, 46
1, 669380, Control_c, 0, 67, 51
1, 669395, Control_c, 0, 67, 54
1, 669410, Control_c, 0, 67, 58
1, 669424, Control_c, 0, 67, 64
1, 669439, Note_on_c, 0, 74, 63
1, 669439, Control_c, 0, 67, 72
1, 669454, Control_c, 0, 67, 81
1, 669468, Control_c, 0, 67, 88
1, 669483, Control_c, 0, 64, 63
1, 669483, Control_c, 0, 67, 94
1, 669498, Control_c, 0, 67, 98
1, 669513, Control_c, 0, 67, 103
1, 669528, Control_c, 0, 67, 108
1, 669537, Note_off_c, 0, 76, 31
1, 669542, Control_c, 0, 67, 111
1, 669572, Control_c, 0, 67, 113
1, 669585, Note_on_c, 0, 72, 58
1, 669602, Control_c, 0, 64, 63
1, 669603, Note_off_c, 0, 74, 55
1, 669616, Control_c, 0, 67, 115
1, 669646, Control_c, 0, 64, 62
1, 669646, Control_c, 0, 67, 124
1, 669668, Control_c, 0, 67, 127
1, 669683, Control_c, 0, 64, 62
1, 669698, Control_c, 0, 64, 61
1, 669713, Control_c, 0, 64, 61
1, 669733, Note_on_c, 0, 59, 36
1, 669742, Control_c, 0, 64, 60
1, 669757, Control_c, 0, 64, 59
1, 669772, Control_c, 0, 64, 58
1, 669787, Control_c, 0, 64, 57
1, 669803, Control_c, 0, 64, 55
1, 669818, Control_c, 0, 64, 54
1, 669830, Note_on_c, 0, 74, 59
1, 669833, Control_c, 0, 64, 51
1, 669835, Note_off_c, 0, 72, 55
1, 669847, Control_c, 0, 64, 48
1, 669863, Control_c, 0, 64, 43
1, 669878, Control_c, 0, 64, 36
1, 669892, Control_c, 0, 64, 30
1, 669907, Control_c, 0, 64, 0
1, 669966, Control_c, 0, 64, 33
1, 669981, Control_c, 0, 64, 49
1, 669996, Control_c, 0, 64, 61
1, 670011, Control_c, 0, 64, 68
1, 670026, Control_c, 0, 64, 73
1, 670040, Control_c, 0, 64, 78
1, 670055, Control_c, 0, 64, 84
1, 670061, Note_off_c, 0, 43, 61
1, 670070, Control_c, 0, 64, 91
1, 670085, Control_c, 0, 64, 103
1, 670088, Note_off_c, 0, 50, 41
1, 670099, Control_c, 0, 64, 120
1, 670110, Note_off_c, 0, 74, 62
1, 670114, Control_c, 0, 64, 127
1, 670149, Note_off_c, 0, 67, 42
1, 670364, Note_off_c, 0, 59, 46
1, 670376, Note_on_c, 0, 67, 34
1, 670399, Note_on_c, 0, 63, 33
1, 670574, Note_off_c, 0, 67, 38
1, 670653, Note_off_c, 0, 63, 39
1, 670677, Note_on_c, 0, 73, 35
1, 670683, Note_on_c, 0, 62, 28
1, 670694, Note_on_c, 0, 71, 23
1, 670695, Poly_aftertouch_c, 0, 67, 127
1, 670813, Poly_aftertouch_c, 0, 67, 0
1, 670947, Note_on_c, 0, 67, 34
1, 670970, Note_off_c, 0, 62, 41
1, 670992, Note_on_c, 0, 63, 9
1, 670993, Note_off_c, 0, 71, 28
1, 671014, Note_off_c, 0, 73, 39
1, 671122, Note_off_c, 0, 67, 43
1, 671247, Poly_aftertouch_c, 0, 67, 127
1, 671253, Note_on_c, 0, 73, 26
1, 671254, Note_on_c, 0, 62, 26
1, 671261, Note_on_c, 0, 71, 22
1, 671282, Note_off_c, 0, 63, 34
1, 671389, Poly_aftertouch_c, 0, 67, 0
1, 671577, Note_on_c, 0, 67, 27
1, 671626, Note_on_c, 0, 63, 23
1, 671633, Note_off_c, 0, 62, 37
1, 671704, Note_off_c, 0, 71, 35
1, 671705, Note_off_c, 0, 73, 33
1, 671961, Note_off_c, 0, 67, 42
1, 672229, Note_on_c, 0, 73, 28
1, 672254, Note_on_c, 0, 62, 11
1, 672261, Note_on_c, 0, 71, 21
1, 672265, Poly_aftertouch_c, 0, 67, 127
1, 672358, Note_off_c, 0, 63, 39
1, 672392, Poly_aftertouch_c, 0, 67, 0
1, 672664, Note_on_c, 0, 67, 26
1, 672684, Note_on_c, 0, 63, 22
1, 672755, Note_off_c, 0, 62, 31
1, 672767, Note_off_c, 0, 71, 37
1, 672817, Note_off_c, 0, 73, 41
1, 672841, Note_off_c, 0, 63, 41
1, 673201, Note_off_c, 0, 67, 39
1, 673286, Note_on_c, 0, 43, 25
1, 673317, Control_c, 0, 64, 110
1, 673332, Control_c, 0, 64, 100
1, 673347, Control_c, 0, 64, 91
1, 673358, Note_on_c, 0, 76, 51
1, 673362, Control_c, 0, 64, 84
1, 673377, Control_c, 0, 64, 78
1, 673382, Note_on_c, 0, 71, 29
1, 673386, Poly_aftertouch_c, 0, 67, 127
1, 673391, Control_c, 0, 64, 72
1, 673413, Control_c, 0, 64, 67
1, 673428, Control_c, 0, 64, 64
1, 673443, Control_c, 0, 64, 61
1, 673458, Control_c, 0, 64, 60
1, 673488, Control_c, 0, 64, 61
1, 673503, Control_c, 0, 64, 61
1, 673517, Control_c, 0, 64, 62
1, 673532, Control_c, 0, 64, 64
1, 673547, Control_c, 0, 64, 65
1, 673562, Control_c, 0, 64, 66
1, 673577, Control_c, 0, 64, 66
1, 673591, Control_c, 0, 64, 67
1, 673606, Control_c, 0, 64, 68
1, 673635, Control_c, 0, 64, 68
1, 673726, Note_off_c, 0, 76, 37
1, 673728, Note_on_c, 0, 78, 52
1, 673844, Control_c, 0, 64, 68
1, 673886, Note_on_c, 0, 50, 30
1, 673926, Note_off_c, 0, 78, 57
1, 673953, Note_on_c, 0, 76, 46
1, 673992, Control_c, 0, 64, 67
1, 674015, Note_off_c, 0, 71, 36
1, 674079, Note_off_c, 0, 76, 53
1, 674081, Control_c, 0, 64, 67
1, 674111, Note_on_c, 0, 74, 45
1, 674206, Control_c, 0, 64, 66
1, 674251, Control_c, 0, 64, 66
1, 674302, Note_on_c, 0, 72, 41
1, 674306, Note_off_c, 0, 74, 36
1, 674310, Control_c, 0, 64, 65
1, 674355, Control_c, 0, 64, 65
1, 674384, Control_c, 0, 64, 64
1, 674429, Control_c, 0, 64, 64
1, 674455, Note_on_c, 0, 59, 35
1, 674458, Control_c, 0, 64, 63
1, 674503, Control_c, 0, 64, 63
1, 674547, Control_c, 0, 64, 62
1, 674577, Control_c, 0, 64, 61
1, 674593, Control_c, 0, 64, 60
1, 674607, Control_c, 0, 64, 59
1, 674611, Note_off_c, 0, 72, 51
1, 674620, Note_on_c, 0, 74, 46
1, 674622, Control_c, 0, 64, 58
1, 674637, Control_c, 0, 64, 57
1, 674652, Control_c, 0, 64, 56
1, 674667, Control_c, 0, 64, 56
1, 674681, Control_c, 0, 64, 55
1, 674726, Control_c, 0, 64, 56
1, 674741, Control_c, 0, 64, 59
1, 674755, Control_c, 0, 64, 63
1, 674770, Control_c, 0, 64, 67
1, 674785, Control_c, 0, 64, 73
1, 674799, Control_c, 0, 64, 79
1, 674814, Control_c, 0, 64, 84
1, 674829, Control_c, 0, 64, 89
1, 674844, Control_c, 0, 64, 95
1, 674859, Control_c, 0, 64, 103
1, 674869, Note_off_c, 0, 43, 40
1, 674874, Control_c, 0, 64, 119
1, 674887, Note_off_c, 0, 50, 43
1, 674889, Control_c, 0, 64, 127
1, 674936, Poly_aftertouch_c, 0, 67, 0
1, 675170, Note_off_c, 0, 59, 43
1, 675172, Note_on_c, 0, 67, 30
1, 675185, Note_off_c, 0, 74, 36
1, 675207, Note_on_c, 0, 63, 34
1, 675265, Note_off_c, 0, 63, 39
1, 675354, Note_off_c, 0, 67, 42
1, 675497, Note_on_c, 0, 62, 32
1, 675503, Note_on_c, 0, 73, 29
1, 675509, Poly_aftertouch_c, 0, 67, 127
1, 675526, Note_on_c, 0, 71, 20
1, 675624, Poly_aftertouch_c, 0, 67, 0
1, 675739, Note_off_c, 0, 62, 38
1, 675781, Note_on_c, 0, 67, 30
1, 675805, Note_on_c, 0, 63, 31
1, 675857, Note_off_c, 0, 73, 40
1, 675860, Note_off_c, 0, 71, 40
1, 675982, Note_off_c, 0, 67, 37
1, 676105, Poly_aftertouch_c, 0, 67, 127
1, 676111, Note_on_c, 0, 73, 25
1, 676121, Note_on_c, 0, 71, 19
1, 676144, Note_on_c, 0, 62, 4
1, 676165, Note_off_c, 0, 63, 28
1, 676280, Poly_aftertouch_c, 0, 67, 0
1, 676490, Note_on_c, 0, 67, 26
1, 676511, Note_on_c, 0, 63, 28
1, 676593, Note_off_c, 0, 62, 36
1, 676670, Note_off_c, 0, 71, 31
1, 676692, Note_off_c, 0, 73, 34
1, 676959, Note_off_c, 0, 67, 42
1, 677333, Note_on_c, 0, 73, 24
1, 677359, Note_on_c, 0, 71, 17
1, 677360, Poly_aftertouch_c, 0, 62, 127
1, 677363, Poly_aftertouch_c, 0, 67, 127
1, 677462, Note_off_c, 0, 63, 33
1, 677586, Poly_aftertouch_c, 0, 67, 0
1, 677926, Note_on_c, 0, 67, 21
1, 677932, Note_on_c, 0, 63, 20
1, 678022, Poly_aftertouch_c, 0, 62, 0
1, 678131, Note_off_c, 0, 63, 32
1, 678909, Note_off_c, 0, 67, 40
1, 678995, Note_off_c, 0, 73, 27
1, 679381, Control_c, 0, 64, 120
1, 679387, Note_on_c, 0, 31, 29
1, 679403, Control_c, 0, 64, 109
1, 679418, Control_c, 0, 64, 104
1, 679420, Note_off_c, 0, 71, 5
1, 679433, Control_c, 0, 64, 99
1, 679448, Control_c, 0, 64, 96
1, 679463, Control_c, 0, 64, 93
1, 679477, Control_c, 0, 64, 89
1, 679492, Control_c, 0, 64, 87
1, 679507, Control_c, 0, 64, 85
1, 679522, Control_c, 0, 64, 84
1, 679537, Control_c, 0, 64, 82
1, 679551, Control_c, 0, 64, 81
1, 679566, Control_c, 0, 64, 79
1, 679581, Control_c, 0, 64, 77
1, 679596, Control_c, 0, 64, 76
1, 679610, Control_c, 0, 64, 74
1, 679625, Control_c, 0, 64, 73
1, 679640, Control_c, 0, 64, 71
1, 679655, Control_c, 0, 64, 70
1, 679670, Control_c, 0, 64, 69
1, 679685, Control_c, 0, 64, 68
1, 679700, Control_c, 0, 64, 68
1, 679715, Control_c, 0, 64, 67
1, 679759, Control_c, 0, 64, 67
1, 679818, Control_c, 0, 64, 66
1, 679848, Control_c, 0, 64, 66
1, 679877, Control_c, 0, 64, 65
1, 679922, Control_c, 0, 64, 65
1, 679966, Control_c, 0, 64, 64
1, 679995, Control_c, 0, 64, 64
1, 680055, Control_c, 0, 64, 63
1, 680099, Control_c, 0, 64, 63
1, 680128, Note_on_c, 0, 38, 38
1, 680151, Control_c, 0, 64, 62
1, 680182, Control_c, 0, 64, 62
1, 680197, Control_c, 0, 64, 61
1, 680212, Control_c, 0, 64, 61
1, 680226, Control_c, 0, 64, 60
1, 680330, Control_c, 0, 64, 62
1, 680345, Control_c, 0, 64, 64
1, 680360, Control_c, 0, 64, 67
1, 680374, Control_c, 0, 64, 73
1, 680389, Control_c, 0, 64, 79
1, 680404, Control_c, 0, 64, 83
1, 680419, Control_c, 0, 64, 86
1, 680433, Control_c, 0, 64, 91
1, 680448, Control_c, 0, 64, 97
1, 680463, Control_c, 0, 64, 105
1, 680478, Control_c, 0, 64, 124
1, 680493, Control_c, 0, 64, 127
1, 680556, Note_off_c, 0, 31, 36
1, 680716, Note_on_c, 0, 43, 40
1, 680801, Note_off_c, 0, 38, 42
1, 681100, Note_off_c, 0, 43, 46
1, 681197, Control_c, 0, 67, 123
1, 681212, Control_c, 0, 67, 119
1, 681227, Control_c, 0, 67, 114
1, 681242, Control_c, 0, 67, 109
1, 681256, Control_c, 0, 67, 103
1, 681271, Control_c, 0, 67, 98
1, 681286, Control_c, 0, 67, 90
1, 681301, Control_c, 0, 67, 83
1, 681316, Control_c, 0, 67, 77
1, 681330, Control_c, 0, 67, 71
1, 681345, Control_c, 0, 67, 64
1, 681360, Control_c, 0, 67, 58
1, 681375, Control_c, 0, 67, 51
1, 681390, Control_c, 0, 67, 45
1, 681405, Control_c, 0, 67, 39
1, 681420, Control_c, 0, 67, 0
1, 681589, Note_on_c, 0, 50, 33
1, 682004, Note_on_c, 0, 59, 58
1, 682207, Note_off_c, 0, 50, 43
1, 682380, Note_on_c, 0, 62, 69
1, 682404, Note_off_c, 0, 59, 60
1, 682617, Note_off_c, 0, 62, 61
1, 682768, Note_on_c, 0, 71, 76
1, 683163, Note_on_c, 0, 67, 83
1, 683259, Note_off_c, 0, 71, 56
1, 683876, Note_on_c, 0, 91, 103
1, 683880, Note_on_c, 0, 79, 91
1, 683882, Note_on_c, 0, 86, 94
1, 683886, Note_on_c, 0, 74, 81
1, 683958, Note_off_c, 0, 79, 61
1, 683989, Note_off_c, 0, 74, 59
1, 684082, Note_off_c, 0, 86, 61
1, 684250, Note_off_c, 0, 91, 62
1, 684344, Note_on_c, 0, 79, 102
1, 684344, Note_on_c, 0, 91, 102
1, 684352, Note_on_c, 0, 83, 91
1, 684403, Note_off_c, 0, 79, 53
1, 684406, Note_off_c, 0, 83, 67
1, 684499, Note_off_c, 0, 67, 59
1, 684818, Note_off_c, 0, 91, 61
1, 684996, Note_on_c, 0, 91, 107
1, 684999, Note_on_c, 0, 84, 99
1, 685002, Note_on_c, 0, 79, 90
1, 685003, Note_on_c, 0, 41, 90
1, 685006, Note_on_c, 0, 29, 88
1, 685045, Control_c, 0, 64, 73
1, 685060, Control_c, 0, 64, 29
1, 685075, Control_c, 0, 64, 0
1, 685119, Control_c, 0, 64, 29
1, 685134, Control_c, 0, 64, 54
1, 685149, Control_c, 0, 64, 69
1, 685164, Control_c, 0, 64, 80
1, 685171, Note_off_c, 0, 29, 62
1, 685179, Control_c, 0, 64, 107
1, 685194, Control_c, 0, 64, 127
1, 685226, Note_off_c, 0, 41, 62
1, 685523, Note_on_c, 0, 48, 87
1, 685688, Note_off_c, 0, 79, 61
1, 685823, Note_off_c, 0, 91, 64
1, 685861, Note_on_c, 0, 89, 96
1, 685864, Note_on_c, 0, 56, 78
1, 685866, Note_on_c, 0, 77, 80
1, 685974, Note_off_c, 0, 48, 58
1, 686155, Note_off_c, 0, 77, 59
1, 686165, Note_off_c, 0, 56, 61
1, 686176, Note_on_c, 0, 60, 80
1, 686312, Note_off_c, 0, 60, 61
1, 686315, Note_off_c, 0, 89, 57
1, 686426, Note_on_c, 0, 87, 88
1, 686431, Note_on_c, 0, 75, 79
1, 686436, Note_on_c, 0, 62, 66
1, 686565, Note_off_c, 0, 84, 55
1, 686574, Note_off_c, 0, 75, 62
1, 686623, Note_off_c, 0, 87, 61
1, 686678, Note_on_c, 0, 86, 95
1, 686681, Note_on_c, 0, 65, 73
1, 686685, Note_on_c, 0, 74, 87
1, 686689, Note_off_c, 0, 62, 59
1, 686799, Note_off_c, 0, 86, 63
1, 686839, Note_off_c, 0, 74, 62
1, 687007, Note_on_c, 0, 84, 95
1, 687008, Note_on_c, 0, 68, 69
1, 687018, Note_on_c, 0, 72, 79
1, 687018, Note_on_c, 0, 77, 78
1, 687034, Note_off_c, 0, 65, 60
1, 687356, Note_off_c, 0, 72, 62
1, 687380, Note_on_c, 0, 62, 63
1, 687425, Note_off_c, 0, 68, 55
1, 687644, Note_off_c, 0, 84, 57
1, 687650, Note_on_c, 0, 82, 81
1, 687653, Note_on_c, 0, 70, 73
1, 687656, Note_on_c, 0, 65, 54
1, 687724, Note_off_c, 0, 62, 35
1, 687757, Note_off_c, 0, 65, 61
1, 687769, Note_off_c, 0, 70, 50
1, 687844, Note_off_c, 0, 77, 57
1, 687946, Note_off_c, 0, 82, 61
1, 687960, Note_on_c, 0, 72, 73
1, 688279, Note_on_c, 0, 80, 81
1, 688294, Note_on_c, 0, 68, 52
1, 688309, Note_on_c, 0, 74, 54
1, 688472, Note_off_c, 0, 72, 58
1, 688513, Note_off_c, 0, 80, 63
1, 688514, Note_off_c, 0, 68, 62
1, 688608, Note_off_c, 0, 74, 60
1, 688723, Note_on_c, 0, 78, 84
1, 688736, Note_on_c, 0, 66, 59
1, 688738, Note_on_c, 0, 70, 61
1, 688738, Note_on_c, 0, 72, 40
1, 688783, Note_off_c, 0, 72, 55
1, 688911, Note_off_c, 0, 70, 36
1, 688917, Note_off_c, 0, 66, 53
1, 689133, Note_off_c, 0, 78, 58
1, 689352, Note_on_c, 0, 43, 44
1, 689410, Note_on_c, 0, 75, 84
1, 689418, Note_on_c, 0, 63, 70
1, 689421, Note_on_c, 0, 67, 59
1, 689427, Note_on_c, 0, 71, 64
1, 689434, Control_c, 0, 64, 119
1, 689449, Control_c, 0, 64, 102
1, 689463, Control_c, 0, 64, 92
1, 689478, Control_c, 0, 64, 84
1, 689493, Control_c, 0, 64, 78
1, 689507, Control_c, 0, 64, 72
1, 689522, Control_c, 0, 64, 67
1, 689537, Control_c, 0, 64, 62
1, 689552, Control_c, 0, 64, 59
1, 689567, Control_c, 0, 64, 58
1, 689626, Control_c, 0, 64, 58
1, 689865, Control_c, 0, 64, 57
1, 689916, Control_c, 0, 64, 57
1, 689990, Control_c, 0, 64, 56
1, 690035, Control_c, 0, 64, 56
1, 690079, Control_c, 0, 64, 55
1, 690121, Note_on_c, 0, 49, 44
1, 690137, Control_c, 0, 64, 55
1, 690197, Control_c, 0, 64, 55
1, 690211, Control_c, 0, 64, 57
1, 690226, Control_c, 0, 64, 61
1, 690241, Control_c, 0, 64, 64
1, 690241, Control_c, 0, 67, 38
1, 690256, Control_c, 0, 64, 69
1, 690256, Control_c, 0, 67, 39
1, 690271, Control_c, 0, 64, 77
1, 690271, Control_c, 0, 67, 40
1, 690285, Control_c, 0, 64, 84
1, 690300, Control_c, 0, 64, 88
1, 690315, Control_c, 0, 64, 93
1, 690330, Control_c, 0, 64, 98
1, 690330, Control_c, 0, 67, 39
1, 690345, Control_c, 0, 64, 103
1, 690345, Control_c, 0, 67, 39
1, 690360, Control_c, 0, 64, 109
1, 690374, Control_c, 0, 64, 118
1, 690389, Control_c, 0, 64, 127
1, 690463, Control_c, 0, 67, 39
1, 690478, Control_c, 0, 67, 40
1, 690493, Control_c, 0, 67, 41
1, 690508, Control_c, 0, 67, 41
1, 690523, Control_c, 0, 67, 42
1, 690537, Control_c, 0, 67, 43
1, 690553, Control_c, 0, 67, 43
1, 690586, Note_off_c, 0, 75, 59
1, 690598, Control_c, 0, 67, 44
1, 690613, Control_c, 0, 67, 45
1, 690634, Control_c, 0, 67, 47
1, 690644, Note_off_c, 0, 63, 35
1, 690649, Control_c, 0, 67, 66
1, 690664, Control_c, 0, 67, 86
1, 690679, Control_c, 0, 67, 97
1, 690694, Control_c, 0, 67, 102
1, 690708, Control_c, 0, 67, 105
1, 690723, Control_c, 0, 67, 107
1, 690932, Note_on_c, 0, 74, 51
1, 690941, Note_on_c, 0, 62, 36
1, 690975, Control_c, 0, 64, 108
1, 690990, Control_c, 0, 64, 99
1, 691005, Control_c, 0, 64, 90
1, 691020, Control_c, 0, 64, 83
1, 691034, Control_c, 0, 64, 76
1, 691049, Control_c, 0, 64, 70
1, 691064, Control_c, 0, 64, 64
1, 691078, Control_c, 0, 64, 60
1, 691093, Control_c, 0, 64, 58
1, 691153, Control_c, 0, 64, 59
1, 691167, Control_c, 0, 64, 60
1, 691182, Control_c, 0, 64, 61
1, 691197, Control_c, 0, 64, 63
1, 691212, Control_c, 0, 64, 65
1, 691227, Control_c, 0, 64, 69
1, 691242, Control_c, 0, 64, 73
1, 691257, Control_c, 0, 64, 78
1, 691257, Control_c, 0, 67, 109
1, 691272, Control_c, 0, 64, 82
1, 691286, Control_c, 0, 64, 85
1, 691301, Control_c, 0, 64, 91
1, 691316, Control_c, 0, 64, 96
1, 691316, Control_c, 0, 67, 111
1, 691331, Control_c, 0, 64, 101
1, 691346, Control_c, 0, 64, 108
1, 691361, Control_c, 0, 64, 120
1, 691361, Control_c, 0, 67, 114
1, 691383, Control_c, 0, 64, 127
1, 691398, Control_c, 0, 67, 127
1, 691778, Note_off_c, 0, 49, 30
1, 691986, Note_on_c, 0, 50, 35
1, 692005, Control_c, 0, 64, 103
1, 692020, Control_c, 0, 64, 88
1, 692035, Control_c, 0, 64, 78
1, 692050, Control_c, 0, 64, 70
1, 692065, Control_c, 0, 64, 64
1, 692080, Control_c, 0, 64, 61
1, 692094, Control_c, 0, 64, 60
1, 692131, Control_c, 0, 64, 61
1, 692146, Control_c, 0, 64, 63
1, 692162, Control_c, 0, 64, 66
1, 692177, Control_c, 0, 64, 69
1, 692192, Control_c, 0, 64, 75
1, 692206, Control_c, 0, 64, 79
1, 692221, Control_c, 0, 64, 82
1, 692236, Control_c, 0, 64, 85
1, 692251, Control_c, 0, 64, 88
1, 692258, Note_off_c, 0, 74, 41
1, 692266, Control_c, 0, 64, 92
1, 692273, Note_off_c, 0, 71, 25
1, 692280, Note_off_c, 0, 62, 43
1, 692280, Control_c, 0, 64, 97
1, 692287, Note_off_c, 0, 67, 61
1, 692295, Control_c, 0, 64, 102
1, 692310, Control_c, 0, 64, 108
1, 692326, Control_c, 0, 64, 119
1, 692340, Control_c, 0, 64, 127
1, 692643, Note_on_c, 0, 63, 49
1, 692682, Note_on_c, 0, 59, 30
1, 692704, Note_on_c, 0, 61, 10
1, 692706, Note_off_c, 0, 50, 37
1, 692714, Poly_aftertouch_c, 0, 55, 127
1, 692752, Note_off_c, 0, 61, 50
1, 692851, Note_off_c, 0, 59, 42
1, 692851, Poly_aftertouch_c, 0, 55, 0
1, 692979, Note_on_c, 0, 62, 65
1, 692986, Note_on_c, 0, 50, 43
1, 693050, Note_off_c, 0, 43, 40
1, 693138, Note_off_c, 0, 63, 20
1, 693252, Control_c, 0, 64, 116
1, 693267, Control_c, 0, 64, 101
1, 693275, Note_on_c, 0, 65, 55
1, 693281, Control_c, 0, 64, 89
1, 693291, Note_on_c, 0, 43, 41
1, 693296, Note_on_c, 0, 60, 44
1, 693296, Control_c, 0, 64, 77
1, 693297, Note_on_c, 0, 54, 33
1, 693311, Control_c, 0, 64, 66
1, 693314, Note_off_c, 0, 62, 54
1, 693321, Note_off_c, 0, 50, 44
1, 693326, Control_c, 0, 64, 55
1, 693341, Control_c, 0, 64, 41
1, 693355, Control_c, 0, 64, 0
1, 693430, Control_c, 0, 64, 38
1, 693445, Control_c, 0, 64, 50
1, 693460, Control_c, 0, 64, 61
1, 693474, Control_c, 0, 64, 65
1, 693487, Note_off_c, 0, 43, 58
1, 693489, Control_c, 0, 64, 67
1, 693493, Note_off_c, 0, 60, 49
1, 693504, Control_c, 0, 64, 69
1, 693519, Control_c, 0, 64, 71
1, 693534, Control_c, 0, 64, 73
1, 693536, Note_on_c, 0, 51, 32
1, 693548, Control_c, 0, 64, 76
1, 693563, Control_c, 0, 64, 78
1, 693578, Control_c, 0, 64, 80
1, 693582, Note_off_c, 0, 54, 41
1, 693593, Control_c, 0, 64, 81
1, 693608, Control_c, 0, 64, 83
1, 693630, Control_c, 0, 64, 84
1, 693645, Control_c, 0, 64, 85
1, 693659, Control_c, 0, 64, 86
1, 693689, Control_c, 0, 64, 86
1, 693704, Control_c, 0, 64, 87
1, 693719, Control_c, 0, 64, 87
1, 693722, Note_off_c, 0, 51, 24
1, 693749, Control_c, 0, 64, 88
1, 693758, Note_on_c, 0, 58, 52
1, 693764, Note_on_c, 0, 62, 52
1, 693770, Note_on_c, 0, 56, 36
1, 693779, Control_c, 0, 64, 88
1, 693788, Note_off_c, 0, 65, 54
1, 693829, Note_off_c, 0, 58, 58
1, 693852, Control_c, 0, 64, 89
1, 693873, Note_off_c, 0, 56, 38
1, 693991, Note_on_c, 0, 65, 51
1, 694020, Note_on_c, 0, 60, 31
1, 694059, Note_off_c, 0, 62, 31
1, 694091, Note_off_c, 0, 60, 43
1, 694217, Note_on_c, 0, 58, 48
1, 694245, Note_off_c, 0, 58, 54
1, 694423, Control_c, 0, 64, 88
1, 694429, Note_off_c, 0, 65, 59
1, 694430, Note_on_c, 0, 62, 59
1, 694432, Note_on_c, 0, 56, 51
1, 694457, Note_off_c, 0, 56, 56
1, 694458, Note_on_c, 0, 58, 37
1, 694492, Note_off_c, 0, 58, 47
1, 694593, Note_on_c, 0, 43, 48
1, 694601, Control_c, 0, 64, 88
1, 694631, Control_c, 0, 64, 86
1, 694646, Control_c, 0, 64, 83
1, 694661, Control_c, 0, 64, 76
1, 694671, Note_off_c, 0, 62, 46
1, 694675, Note_on_c, 0, 63, 62
1, 694675, Control_c, 0, 64, 65
1, 694690, Control_c, 0, 64, 55
1, 694691, Note_on_c, 0, 61, 40
1, 694705, Control_c, 0, 64, 45
1, 694706, Note_on_c, 0, 59, 16
1, 694720, Control_c, 0, 64, 41
1, 694732, Note_on_c, 0, 55, 31
1, 694749, Control_c, 0, 64, 44
1, 694764, Control_c, 0, 64, 49
1, 694779, Control_c, 0, 64, 55
1, 694794, Control_c, 0, 64, 58
1, 694808, Control_c, 0, 64, 60
1, 694823, Control_c, 0, 64, 60
1, 694853, Control_c, 0, 64, 61
1, 694877, Note_off_c, 0, 55, 35
1, 694879, Note_off_c, 0, 59, 42
1, 694879, Note_off_c, 0, 61, 41
1, 694897, Note_off_c, 0, 63, 56
1, 694897, Control_c, 0, 64, 61
1, 694899, Note_on_c, 0, 67, 59
1, 694912, Control_c, 0, 64, 62
1, 694915, Note_on_c, 0, 50, 40
1, 694941, Control_c, 0, 64, 62
1, 694956, Control_c, 0, 64, 63
1, 694986, Control_c, 0, 64, 63
1, 695031, Control_c, 0, 64, 62
1, 695043, Note_off_c, 0, 50, 53
1, 695045, Control_c, 0, 64, 61
1, 695060, Control_c, 0, 64, 56
1, 695075, Control_c, 0, 64, 50
1, 695090, Control_c, 0, 64, 43
1, 695105, Control_c, 0, 64, 36
1, 695111, Note_on_c, 0, 63, 53
1, 695126, Control_c, 0, 64, 34
1, 695127, Note_on_c, 0, 59, 36
1, 695130, Note_off_c, 0, 67, 39
1, 695156, Control_c, 0, 64, 35
1, 695171, Control_c, 0, 64, 41
1, 695172, Poly_aftertouch_c, 0, 61, 127
1, 695181, Poly_aftertouch_c, 0, 55, 127
1, 695186, Control_c, 0, 64, 49
1, 695201, Control_c, 0, 64, 57
1, 695215, Control_c, 0, 64, 62
1, 695230, Control_c, 0, 64, 65
1, 695245, Control_c, 0, 64, 67
1, 695260, Control_c, 0, 64, 68
1, 695266, Note_off_c, 0, 43, 37
1, 695275, Control_c, 0, 64, 69
1, 695275, Poly_aftertouch_c, 0, 55, 0
1, 695290, Control_c, 0, 64, 71
1, 695305, Control_c, 0, 64, 71
1, 695320, Control_c, 0, 64, 72
1, 695334, Control_c, 0, 64, 72
1, 695347, Note_on_c, 0, 62, 51
1, 695350, Control_c, 0, 64, 73
1, 695365, Control_c, 0, 64, 73
1, 695379, Note_off_c, 0, 63, 31
1, 695379, Control_c, 0, 64, 74
1, 695387, Note_off_c, 0, 59, 42
1, 695394, Control_c, 0, 64, 74
1, 695409, Control_c, 0, 64, 75
1, 695423, Poly_aftertouch_c, 0, 61, 0
1, 695424, Control_c, 0, 64, 75
1, 695454, Control_c, 0, 64, 76
1, 695466, Note_off_c, 0, 62, 52
1, 695570, Note_on_c, 0, 67, 66
1, 695581, Note_on_c, 0, 61, 45
1, 695586, Note_on_c, 0, 58, 50
1, 695625, Note_off_c, 0, 61, 57
1, 695720, Control_c, 0, 64, 76
1, 695755, Note_off_c, 0, 67, 63
1, 695765, Note_on_c, 0, 59, 63
1, 695765, Note_on_c, 0, 62, 67
1, 695771, Note_off_c, 0, 58, 32
1, 695785, Note_off_c, 0, 59, 64
1, 695935, Control_c, 0, 64, 76
1, 695964, Control_c, 0, 64, 75
1, 695979, Control_c, 0, 64, 73
1, 695994, Control_c, 0, 64, 67
1, 695999, Note_on_c, 0, 43, 47
1, 696003, Note_on_c, 0, 65, 57
1, 696009, Control_c, 0, 64, 57
1, 696014, Note_off_c, 0, 62, 53
1, 696023, Control_c, 0, 64, 45
1, 696027, Note_on_c, 0, 60, 35
1, 696028, Note_on_c, 0, 54, 32
1, 696038, Control_c, 0, 64, 28
1, 696053, Control_c, 0, 64, 0
1, 696113, Control_c, 0, 64, 30
1, 696128, Control_c, 0, 64, 44
1, 696143, Control_c, 0, 64, 55
1, 696159, Control_c, 0, 64, 61
1, 696165, Note_off_c, 0, 43, 55
1, 696173, Control_c, 0, 64, 63
1, 696188, Control_c, 0, 64, 64
1, 696197, Note_off_c, 0, 60, 56
1, 696203, Control_c, 0, 64, 65
1, 696208, Note_on_c, 0, 51, 49
1, 696218, Control_c, 0, 64, 66
1, 696233, Control_c, 0, 64, 67
1, 696247, Note_off_c, 0, 54, 42
1, 696247, Control_c, 0, 64, 67
1, 696262, Control_c, 0, 64, 68
1, 696292, Control_c, 0, 64, 68
1, 696321, Control_c, 0, 64, 69
1, 696380, Note_off_c, 0, 51, 54
1, 696404, Note_on_c, 0, 56, 48
1, 696418, Note_on_c, 0, 58, 46
1, 696418, Note_off_c, 0, 65, 59
1, 696420, Note_on_c, 0, 62, 53
1, 696454, Note_off_c, 0, 58, 59
1, 696464, Note_off_c, 0, 56, 55
1, 696470, Control_c, 0, 64, 69
1, 696485, Control_c, 0, 64, 70
1, 696499, Control_c, 0, 64, 71
1, 696514, Control_c, 0, 64, 72
1, 696529, Control_c, 0, 64, 73
1, 696544, Control_c, 0, 64, 73
1, 696559, Control_c, 0, 64, 74
1, 696603, Control_c, 0, 64, 74
1, 696637, Note_on_c, 0, 65, 56
1, 696659, Note_on_c, 0, 60, 37
1, 696688, Note_off_c, 0, 62, 30
1, 696714, Control_c, 0, 64, 75
1, 696715, Note_off_c, 0, 60, 54
1, 696839, Note_on_c, 0, 58, 52
1, 696888, Note_off_c, 0, 58, 59
1, 697022, Note_on_c, 0, 56, 63
1, 697031, Note_off_c, 0, 65, 60
1, 697040, Note_on_c, 0, 62, 57
1, 697048, Note_on_c, 0, 58, 56
1, 697054, Note_off_c, 0, 56, 64
1, 697085, Control_c, 0, 64, 74
1, 697089, Note_off_c, 0, 58, 57
1, 697203, Note_on_c, 0, 43, 31
1, 697234, Control_c, 0, 64, 73
1, 697248, Control_c, 0, 64, 69
1, 697263, Control_c, 0, 64, 62
1, 697267, Note_on_c, 0, 59, 55
1, 697278, Control_c, 0, 64, 52
1, 697278, Note_on_c, 0, 63, 57
1, 697289, Note_off_c, 0, 62, 48
1, 697293, Control_c, 0, 64, 40
1, 697305, Note_on_c, 0, 61, 42
1, 697308, Control_c, 0, 64, 0
1, 697317, Note_on_c, 0, 55, 27
1, 697374, Control_c, 0, 64, 30
1, 697389, Control_c, 0, 64, 39
1, 697395, Poly_aftertouch_c, 0, 45, 0
1, 697403, Control_c, 0, 64, 48
1, 697418, Control_c, 0, 64, 55
1, 697433, Control_c, 0, 64, 59
1, 697448, Control_c, 0, 64, 60
1, 697463, Control_c, 0, 64, 60
1, 697487, Note_off_c, 0, 55, 45
1, 697496, Note_off_c, 0, 59, 38
1, 697505, Note_on_c, 0, 67, 58
1, 697508, Control_c, 0, 64, 61
1, 697520, Note_on_c, 0, 50, 36
1, 697522, Control_c, 0, 64, 61
1, 697525, Note_off_c, 0, 61, 36
1, 697532, Note_off_c, 0, 63, 38
1, 697537, Control_c, 0, 64, 62
1, 697552, Control_c, 0, 64, 63
1, 697611, Control_c, 0, 64, 62
1, 697626, Control_c, 0, 64, 58
1, 697641, Control_c, 0, 64, 52
1, 697655, Control_c, 0, 64, 45
1, 697670, Control_c, 0, 64, 39
1, 697685, Control_c, 0, 64, 35
1, 697693, Note_off_c, 0, 50, 43
1, 697705, Note_on_c, 0, 63, 51
1, 697711, Note_on_c, 0, 59, 45
1, 697715, Control_c, 0, 64, 37
1, 697729, Control_c, 0, 64, 43
1, 697737, Note_on_c, 0, 55, 23
1, 697743, Note_off_c, 0, 67, 37
1, 697745, Note_on_c, 0, 61, 18
1, 697745, Control_c, 0, 64, 52
1, 697760, Control_c, 0, 64, 58
1, 697775, Control_c, 0, 64, 62
1, 697790, Control_c, 0, 64, 63
1, 697805, Control_c, 0, 64, 64
1, 697819, Control_c, 0, 64, 64
1, 697834, Control_c, 0, 64, 65
1, 697840, Note_off_c, 0, 43, 39
1, 697849, Control_c, 0, 64, 66
1, 697864, Control_c, 0, 64, 66
1, 697878, Note_off_c, 0, 55, 36
1, 697893, Control_c, 0, 64, 67
1, 697923, Control_c, 0, 64, 67
1, 697941, Note_on_c, 0, 62, 51
1, 697952, Control_c, 0, 64, 68
1, 697970, Note_off_c, 0, 59, 35
1, 697997, Note_off_c, 0, 63, 27
1, 697997, Control_c, 0, 64, 68
1, 698026, Control_c, 0, 64, 69
1, 698029, Note_off_c, 0, 61, 41
1, 698036, Note_off_c, 0, 62, 51
1, 698123, Control_c, 0, 64, 68
1, 698138, Control_c, 0, 64, 65
1, 698149, Note_on_c, 0, 67, 67
1, 698152, Control_c, 0, 64, 61
1, 698155, Note_on_c, 0, 61, 48
1, 698156, Note_on_c, 0, 58, 50
1, 698167, Control_c, 0, 64, 60
1, 698170, Note_on_c, 0, 62, 41
1, 698197, Control_c, 0, 64, 61
1, 698202, Note_off_c, 0, 62, 54
1, 698212, Note_off_c, 0, 61, 58
1, 698212, Control_c, 0, 64, 64
1, 698226, Control_c, 0, 64, 66
1, 698241, Control_c, 0, 64, 67
1, 698256, Control_c, 0, 64, 67
1, 698271, Control_c, 0, 64, 68
1, 698301, Note_off_c, 0, 58, 52
1, 698338, Note_on_c, 0, 62, 66
1, 698339, Note_on_c, 0, 59, 53
1, 698342, Note_off_c, 0, 67, 63
1, 698360, Note_off_c, 0, 59, 60
1, 698493, Note_on_c, 0, 43, 47
1, 698553, Control_c, 0, 64, 66
1, 698567, Control_c, 0, 64, 62
1, 698582, Control_c, 0, 64, 56
1, 698585, Note_off_c, 0, 62, 58
1, 698593, Note_on_c, 0, 63, 53
1, 698597, Control_c, 0, 64, 50
1, 698599, Note_on_c, 0, 59, 44
1, 698612, Control_c, 0, 64, 43
1, 698623, Note_on_c, 0, 55, 33
1, 698626, Note_on_c, 0, 61, 28
1, 698627, Control_c, 0, 64, 36
1, 698641, Control_c, 0, 64, 32
1, 698673, Note_off_c, 0, 59, 0
1, 698673, Note_on_c, 0, 59, 6
1, 698686, Control_c, 0, 64, 34
1, 698700, Control_c, 0, 64, 38
1, 698715, Control_c, 0, 64, 43
1, 698730, Control_c, 0, 64, 46
1, 698745, Control_c, 0, 64, 49
1, 698760, Control_c, 0, 64, 52
1, 698775, Control_c, 0, 64, 55
1, 698787, Note_off_c, 0, 55, 31
1, 698790, Control_c, 0, 64, 56
1, 698804, Control_c, 0, 64, 58
1, 698819, Control_c, 0, 64, 59
1, 698819, Note_on_c, 0, 67, 53
1, 698834, Control_c, 0, 64, 60
1, 698835, Note_on_c, 0, 50, 33
1, 698848, Note_off_c, 0, 59, 44
1, 698849, Note_off_c, 0, 63, 38
1, 698849, Control_c, 0, 64, 61
1, 698852, Note_off_c, 0, 61, 36
1, 698871, Control_c, 0, 64, 62
1, 698886, Control_c, 0, 64, 62
1, 698945, Control_c, 0, 64, 61
1, 698960, Control_c, 0, 64, 57
1, 698974, Control_c, 0, 64, 53
1, 698989, Control_c, 0, 64, 49
1, 699004, Control_c, 0, 64, 48
1, 699023, Note_off_c, 0, 50, 47
1, 699034, Control_c, 0, 64, 50
1, 699038, Note_on_c, 0, 63, 50
1, 699049, Control_c, 0, 64, 54
1, 699055, Note_on_c, 0, 59, 35
1, 699064, Control_c, 0, 64, 59
1, 699070, Note_on_c, 0, 61, 7
1, 699070, Note_on_c, 0, 55, 22
1, 699079, Note_off_c, 0, 67, 37
1, 699079, Control_c, 0, 64, 62
1, 699094, Control_c, 0, 64, 64
1, 699109, Control_c, 0, 64, 65
1, 699123, Control_c, 0, 64, 66
1, 699138, Control_c, 0, 64, 67
1, 699153, Control_c, 0, 64, 67
1, 699168, Control_c, 0, 64, 68
1, 699171, Note_off_c, 0, 43, 36
1, 699183, Control_c, 0, 64, 68
1, 699198, Control_c, 0, 64, 69
1, 699213, Note_off_c, 0, 55, 40
1, 699227, Control_c, 0, 64, 69
1, 699257, Control_c, 0, 64, 70
1, 699280, Note_on_c, 0, 62, 44
1, 699301, Control_c, 0, 64, 70
1, 699331, Control_c, 0, 64, 71
1, 699346, Note_off_c, 0, 63, 23
1, 699363, Note_off_c, 0, 62, 54
1, 699367, Note_off_c, 0, 61, 43
1, 699383, Note_off_c, 0, 59, 41
1, 699450, Control_c, 0, 64, 69
1, 699465, Control_c, 0, 64, 67
1, 699480, Control_c, 0, 64, 64
1, 699495, Control_c, 0, 64, 62
1, 699496, Note_on_c, 0, 58, 37
1, 699499, Note_on_c, 0, 67, 46
1, 699503, Note_on_c, 0, 61, 25
1, 699504, Note_on_c, 0, 62, 40
1, 699524, Control_c, 0, 64, 62
1, 699539, Control_c, 0, 64, 64
1, 699553, Note_off_c, 0, 62, 56
1, 699554, Control_c, 0, 64, 66
1, 699566, Note_off_c, 0, 61, 53
1, 699569, Control_c, 0, 64, 68
1, 699584, Control_c, 0, 64, 69
1, 699598, Control_c, 0, 64, 70
1, 699621, Control_c, 0, 64, 71
1, 699636, Control_c, 0, 64, 71
1, 699650, Control_c, 0, 64, 72
1, 699680, Control_c, 0, 64, 72
1, 699707, Note_off_c, 0, 58, 35
1, 699710, Control_c, 0, 64, 73
1, 699757, Note_off_c, 0, 67, 55
1, 699759, Note_on_c, 0, 59, 43
1, 699760, Note_on_c, 0, 62, 54
1, 699787, Note_off_c, 0, 59, 56
1, 700003, Poly_aftertouch_c, 0, 43, 127
1, 700079, Note_on_c, 0, 59, 35
1, 700095, Control_c, 0, 64, 72
1, 700099, Note_off_c, 0, 62, 34
1, 700110, Control_c, 0, 64, 70
1, 700110, Note_on_c, 0, 63, 49
1, 700124, Control_c, 0, 64, 66
1, 700140, Control_c, 0, 64, 61
1, 700154, Note_on_c, 0, 55, 4
1, 700155, Control_c, 0, 64, 55
1, 700170, Control_c, 0, 64, 51
1, 700182, Poly_aftertouch_c, 0, 61, 127
1, 700185, Control_c, 0, 64, 46
1, 700200, Control_c, 0, 64, 44
1, 700214, Control_c, 0, 64, 44
1, 700259, Control_c, 0, 64, 44
1, 700273, Control_c, 0, 64, 46
1, 700288, Control_c, 0, 64, 49
1, 700303, Control_c, 0, 64, 53
1, 700318, Control_c, 0, 64, 57
1, 700333, Control_c, 0, 64, 59
1, 700347, Control_c, 0, 64, 61
1, 700369, Control_c, 0, 64, 62
1, 700384, Control_c, 0, 64, 62
1, 700399, Control_c, 0, 64, 63
1, 700414, Control_c, 0, 64, 63
1, 700423, Note_off_c, 0, 55, 19
1, 700429, Control_c, 0, 64, 64
1, 700441, Note_on_c, 0, 67, 43
1, 700444, Control_c, 0, 64, 64
1, 700462, Note_on_c, 0, 50, 39
1, 700473, Note_off_c, 0, 63, 34
1, 700486, Poly_aftertouch_c, 0, 61, 0
1, 700515, Note_off_c, 0, 59, 44
1, 700651, Control_c, 0, 64, 63
1, 700665, Control_c, 0, 64, 62
1, 700673, Note_on_c, 0, 63, 48
1, 700676, Note_off_c, 0, 50, 37
1, 700680, Control_c, 0, 64, 59
1, 700694, Note_on_c, 0, 59, 36
1, 700695, Control_c, 0, 64, 56
1, 700696, Note_on_c, 0, 61, 27
1, 700709, Note_off_c, 0, 67, 37
1, 700710, Control_c, 0, 64, 52
1, 700712, Note_on_c, 0, 55, 25
1, 700725, Control_c, 0, 64, 48
1, 700739, Control_c, 0, 64, 46
1, 700754, Control_c, 0, 64, 44
1, 700784, Control_c, 0, 64, 45
1, 700799, Control_c, 0, 64, 48
1, 700814, Control_c, 0, 64, 54
1, 700829, Control_c, 0, 64, 59
1, 700843, Control_c, 0, 64, 62
1, 700858, Control_c, 0, 64, 63
1, 700873, Control_c, 0, 64, 64
1, 700882, Note_off_c, 0, 55, 40
1, 700888, Control_c, 0, 64, 65
1, 700903, Control_c, 0, 64, 66
1, 700918, Control_c, 0, 64, 67
1, 700932, Poly_aftertouch_c, 0, 43, 0
1, 700933, Control_c, 0, 64, 68
1, 700936, Note_on_c, 0, 62, 49
1, 700948, Control_c, 0, 64, 68
1, 700963, Control_c, 0, 64, 69
1, 700978, Control_c, 0, 64, 69
1, 701007, Control_c, 0, 64, 70
1, 701043, Note_off_c, 0, 63, 19
1, 701054, Note_off_c, 0, 61, 40
1, 701075, Note_off_c, 0, 62, 52
1, 701082, Control_c, 0, 64, 70
1, 701207, Control_c, 0, 64, 70
1, 701212, Note_on_c, 0, 67, 45
1, 701215, Note_off_c, 0, 59, 36
1, 701222, Control_c, 0, 64, 68
1, 701237, Control_c, 0, 64, 64
1, 701240, Note_on_c, 0, 62, 29
1, 701243, Note_on_c, 0, 61, 20
1, 701249, Note_on_c, 0, 58, 33
1, 701252, Control_c, 0, 64, 59
1, 701267, Control_c, 0, 64, 55
1, 701282, Control_c, 0, 64, 54
1, 701309, Control_c, 0, 64, 55
1, 701314, Note_off_c, 0, 62, 40
1, 701324, Control_c, 0, 64, 58
1, 701339, Control_c, 0, 64, 60
1, 701354, Control_c, 0, 64, 61
1, 701365, Note_off_c, 0, 61, 43
1, 701368, Control_c, 0, 64, 63
1, 701383, Control_c, 0, 64, 63
1, 701413, Control_c, 0, 64, 64
1, 701428, Control_c, 0, 64, 64
1, 701443, Control_c, 0, 64, 65
1, 701457, Control_c, 0, 64, 65
1, 701472, Control_c, 0, 64, 66
1, 701475, Note_off_c, 0, 58, 45
1, 701493, Note_on_c, 0, 59, 45
1, 701499, Note_on_c, 0, 62, 47
1, 701517, Control_c, 0, 64, 66
1, 701556, Note_off_c, 0, 59, 62
1, 701565, Note_off_c, 0, 62, 61
1, 701598, Note_off_c, 0, 67, 62
1, 701694, Control_c, 0, 64, 66
1, 701709, Control_c, 0, 64, 63
1, 701724, Control_c, 0, 64, 59
1, 701733, Note_on_c, 0, 63, 60
1, 701740, Control_c, 0, 64, 52
1, 701753, Note_off_c, 0, 63, 63
1, 701755, Control_c, 0, 64, 40
1, 701770, Control_c, 0, 64, 0
1, 701984, Note_on_c, 0, 62, 55
1, 701994, Note_on_c, 0, 71, 52
1, 702000, Note_on_c, 0, 67, 40
1, 702006, Note_off_c, 0, 62, 60
1, 702017, Note_off_c, 0, 71, 59
1, 702032, Note_off_c, 0, 67, 53
1, 702195, Note_on_c, 0, 73, 60
1, 702215, Note_off_c, 0, 73, 65
1, 702390, Note_on_c, 0, 75, 59
1, 702399, Note_on_c, 0, 67, 40
1, 702420, Note_off_c, 0, 75, 67
1, 702430, Note_off_c, 0, 67, 54
1, 702597, Note_on_c, 0, 80, 57
1, 702632, Note_off_c, 0, 80, 60
1, 702805, Note_on_c, 0, 83, 59
1, 702814, Note_on_c, 0, 74, 44
1, 702820, Note_on_c, 0, 79, 37
1, 702833, Note_off_c, 0, 83, 65
1, 702839, Note_off_c, 0, 74, 52
1, 702848, Note_off_c, 0, 79, 55
1, 703043, Note_on_c, 0, 86, 62
1, 703045, Control_c, 0, 64, 39
1, 703060, Control_c, 0, 64, 49
1, 703068, Note_off_c, 0, 86, 69
1, 703074, Control_c, 0, 64, 56
1, 703089, Control_c, 0, 64, 58
1, 703104, Control_c, 0, 64, 58
1, 703119, Control_c, 0, 64, 59
1, 703133, Control_c, 0, 64, 60
1, 703148, Control_c, 0, 64, 60
1, 703163, Control_c, 0, 64, 61
1, 703252, Control_c, 0, 64, 59
1, 703267, Control_c, 0, 64, 56
1, 703282, Control_c, 0, 64, 53
1, 703297, Control_c, 0, 64, 49
1, 703312, Control_c, 0, 64, 45
1, 703327, Control_c, 0, 64, 41
1, 703342, Control_c, 0, 64, 37
1, 703364, Control_c, 0, 64, 34
1, 703379, Control_c, 0, 64, 31
1, 703394, Control_c, 0, 64, 29
1, 703409, Control_c, 0, 64, 0
1, 703675, Control_c, 0, 64, 29
1, 703690, Control_c, 0, 64, 36
1, 703705, Control_c, 0, 64, 45
1, 703720, Control_c, 0, 64, 53
1, 703733, Note_on_c, 0, 83, 56
1, 703735, Control_c, 0, 64, 57
1, 703745, Note_on_c, 0, 47, 43
1, 703745, Note_on_c, 0, 62, 35
1, 703750, Control_c, 0, 64, 59
1, 703753, Note_on_c, 0, 78, 41
1, 703754, Note_on_c, 0, 54, 27
1, 703756, Note_on_c, 0, 71, 33
1, 703764, Control_c, 0, 64, 60
1, 703794, Control_c, 0, 64, 60
1, 703808, Control_c, 0, 64, 61
1, 703809, Note_off_c, 0, 71, 44
1, 703817, Note_off_c, 0, 78, 48
1, 703829, Note_off_c, 0, 83, 55
1, 703838, Control_c, 0, 64, 61
1, 703851, Note_off_c, 0, 47, 57
1, 703856, Note_off_c, 0, 62, 37
1, 703866, Note_off_c, 0, 54, 38
1, 703912, Control_c, 0, 64, 61
1, 703927, Control_c, 0, 64, 60
1, 703942, Control_c, 0, 64, 57
1, 703957, Control_c, 0, 64, 51
1, 703971, Control_c, 0, 64, 45
1, 703986, Control_c, 0, 64, 39
1, 704001, Control_c, 0, 64, 34
1, 704015, Control_c, 0, 64, 0
1, 704334, Control_c, 0, 64, 30
1, 704349, Control_c, 0, 64, 34
1, 704364, Control_c, 0, 64, 38
1, 704379, Control_c, 0, 64, 42
1, 704394, Control_c, 0, 64, 46
1, 704409, Control_c, 0, 64, 51
1, 704423, Control_c, 0, 64, 55
1, 704438, Control_c, 0, 64, 58
1, 704453, Control_c, 0, 64, 59
1, 704468, Control_c, 0, 64, 60
1, 704483, Control_c, 0, 64, 61
1, 704498, Control_c, 0, 64, 63
1, 704512, Control_c, 0, 64, 64
1, 704527, Control_c, 0, 64, 65
1, 704542, Control_c, 0, 64, 66
1, 704557, Control_c, 0, 64, 67
1, 704572, Control_c, 0, 64, 69
1, 704586, Control_c, 0, 64, 70
1, 704601, Control_c, 0, 64, 72
1, 704616, Control_c, 0, 64, 73
1, 704630, Control_c, 0, 64, 74
1, 704645, Control_c, 0, 64, 76
1, 704660, Control_c, 0, 64, 78
1, 704675, Control_c, 0, 64, 79
1, 704690, Control_c, 0, 64, 81
1, 704704, Control_c, 0, 64, 83
1, 704719, Control_c, 0, 64, 85
1, 704734, Control_c, 0, 64, 87
1, 704749, Control_c, 0, 64, 89
1, 704764, Control_c, 0, 64, 91
1, 704778, Control_c, 0, 64, 93
1, 704793, Control_c, 0, 64, 94
1, 704808, Control_c, 0, 64, 96
1, 704838, Control_c, 0, 64, 99
1, 704875, Control_c, 0, 64, 103
1, 704890, Control_c, 0, 64, 105
1, 704891, Note_on_c, 0, 91, 50
1, 704894, Note_on_c, 0, 59, 37
1, 704896, Note_on_c, 0, 79, 30
1, 704903, Note_on_c, 0, 86, 42
1, 704905, Control_c, 0, 64, 108
1, 704906, Note_on_c, 0, 43, 36
1, 704913, Note_on_c, 0, 50, 31
1, 704919, Control_c, 0, 64, 111
1, 704935, Control_c, 0, 64, 116
1, 704950, Control_c, 0, 64, 127
1, 705099, Note_off_c, 0, 50, 32
1, 705106, Note_off_c, 0, 79, 42
1, 705107, Note_off_c, 0, 43, 39
1, 705118, Note_off_c, 0, 59, 34
1, 705136, Note_off_c, 0, 86, 36
1, 705160, Note_off_c, 0, 91, 32
1, 706993, Note_on_c, 0, 91, 42
1, 706994, Note_on_c, 0, 86, 46
1, 707002, Note_on_c, 0, 79, 23
1, 707014, Note_on_c, 0, 59, 18
1, 707017, Note_on_c, 0, 50, 7
1, 707026, Note_on_c, 0, 43, 23
1, 707203, Note_off_c, 0, 86, 36
1, 707208, Note_off_c, 0, 59, 43
1, 707209, Note_off_c, 0, 50, 42
1, 707220, Note_off_c, 0, 79, 44
1, 707223, Note_off_c, 0, 91, 51
1, 707233, Note_off_c, 0, 43, 35
1, 709258, Control_c, 0, 67, 123
1, 709273, Control_c, 0, 67, 112
1, 709288, Control_c, 0, 67, 101
1, 709302, Control_c, 0, 67, 89
1, 709317, Control_c, 0, 67, 75
1, 709332, Control_c, 0, 67, 62
1, 709354, Control_c, 0, 67, 48
1, 709369, Control_c, 0, 67, 0
1, 709750, Note_on_c, 0, 62, 56
1, 709759, Note_on_c, 0, 50, 48
1, 709759, Note_on_c, 0, 59, 52
1, 709762, Note_on_c, 0, 55, 48
1, 709763, Note_on_c, 0, 31, 36
1, 709765, Note_on_c, 0, 43, 41
1, 710061, Note_off_c, 0, 43, 37
1, 710125, Note_off_c, 0, 50, 33
1, 712254, Poly_aftertouch_c, 0, 43, 127
1, 712312, Poly_aftertouch_c, 0, 50, 127
1, 712660, Control_c, 0, 64, 122
1, 712675, Control_c, 0, 64, 115
1, 712690, Control_c, 0, 64, 111
1, 712705, Control_c, 0, 64, 108
1, 712719, Control_c, 0, 64, 106
1, 712734, Control_c, 0, 64, 104
1, 712749, Control_c, 0, 64, 102
1, 712764, Control_c, 0, 64, 99
1, 712794, Control_c, 0, 64, 96
1, 712809, Control_c, 0, 64, 95
1, 712824, Control_c, 0, 64, 93
1, 712839, Control_c, 0, 64, 92
1, 712853, Control_c, 0, 64, 90
1, 712868, Control_c, 0, 64, 89
1, 712883, Control_c, 0, 64, 88
1, 712898, Control_c, 0, 64, 87
1, 712913, Control_c, 0, 64, 86
1, 712928, Control_c, 0, 64, 85
1, 712943, Control_c, 0, 64, 84
1, 712958, Control_c, 0, 64, 83
1, 712973, Control_c, 0, 64, 81
1, 712988, Control_c, 0, 64, 80
1, 713002, Control_c, 0, 64, 79
1, 713017, Control_c, 0, 64, 78
1, 713032, Control_c, 0, 64, 77
1, 713047, Control_c, 0, 64, 76
1, 713062, Control_c, 0, 64, 75
1, 713076, Control_c, 0, 64, 74
1, 713098, Control_c, 0, 64, 74
1, 713113, Control_c, 0, 64, 73
1, 713128, Control_c, 0, 64, 73
1, 713143, Control_c, 0, 64, 72
1, 713158, Control_c, 0, 64, 72
1, 713172, Control_c, 0, 64, 71
1, 713217, Control_c, 0, 64, 71
1, 713262, Control_c, 0, 64, 70
1, 713276, Control_c, 0, 64, 70
1, 713291, Control_c, 0, 64, 69
1, 713306, Control_c, 0, 64, 68
1, 713335, Control_c, 0, 64, 68
1, 713350, Control_c, 0, 64, 67
1, 713365, Control_c, 0, 64, 67
1, 713380, Control_c, 0, 64, 66
1, 713409, Control_c, 0, 64, 66
1, 713424, Control_c, 0, 64, 65
1, 713439, Control_c, 0, 64, 65
1, 713454, Control_c, 0, 64, 64
1, 713468, Control_c, 0, 64, 64
1, 713483, Control_c, 0, 64, 63
1, 713542, Control_c, 0, 64, 63
1, 713617, Control_c, 0, 64, 62
1, 713721, Control_c, 0, 64, 62
1, 713936, Control_c, 0, 64, 61
1, 714010, Control_c, 0, 64, 61
1, 714084, Control_c, 0, 64, 60
1, 714143, Control_c, 0, 64, 60
1, 714187, Control_c, 0, 64, 59
1, 714246, Control_c, 0, 64, 59
1, 714305, Control_c, 0, 64, 58
1, 714365, Control_c, 0, 64, 58
1, 714410, Control_c, 0, 64, 57
1, 714454, Control_c, 0, 64, 57
1, 714498, Control_c, 0, 64, 56
1, 714529, Control_c, 0, 64, 56
1, 714559, Control_c, 0, 64, 55
1, 714564, Poly_aftertouch_c, 0, 50, 0
1, 714573, Note_off_c, 0, 59, 31
1, 714595, Control_c, 0, 64, 55
1, 714612, Note_off_c, 0, 55, 26
1, 714640, Control_c, 0, 64, 54
1, 714669, Control_c, 0, 64, 54
1, 714699, Control_c, 0, 64, 53
1, 714714, Control_c, 0, 64, 53
1, 714743, Control_c, 0, 64, 52
1, 714758, Control_c, 0, 64, 52
1, 714773, Control_c, 0, 64, 51
1, 714787, Control_c, 0, 64, 51
1, 714802, Control_c, 0, 64, 50
1, 714817, Control_c, 0, 64, 49
1, 714832, Control_c, 0, 64, 48
1, 714846, Control_c, 0, 64, 47
1, 714851, Poly_aftertouch_c, 0, 43, 0
1, 714851, Note_off_c, 0, 62, 35
1, 714861, Control_c, 0, 64, 45
1, 714866, Note_off_c, 0, 31, 43
1, 714876, Control_c, 0, 64, 44
1, 714891, Control_c, 0, 64, 41
1, 714906, Control_c, 0, 64, 38
1, 714920, Control_c, 0, 64, 35
1, 714935, Control_c, 0, 64, 33
1, 714950, Control_c, 0, 64, 31
1, 714979, Control_c, 0, 64, 28
1, 714994, Control_c, 0, 64, 0
1, 720598, Note_on_c, 0, 78, 63
1, 720604, Note_on_c, 0, 73, 47
1, 720607, Note_on_c, 0, 66, 57
1, 720613, Note_on_c, 0, 69, 40
1, 720621, Note_off_c, 0, 78, 62
1, 720627, Note_off_c, 0, 73, 57
1, 720628, Note_off_c, 0, 66, 63
1, 720643, Note_off_c, 0, 69, 54
1, 720877, Note_on_c, 0, 78, 70
1, 720879, Note_on_c, 0, 66, 65
1, 720887, Note_on_c, 0, 69, 46
1, 720888, Note_on_c, 0, 73, 56
1, 720909, Note_off_c, 0, 66, 68
1, 720915, Note_off_c, 0, 69, 57
1, 720919, Note_off_c, 0, 73, 66
1, 720930, Note_off_c, 0, 78, 49
1, 720982, Note_on_c, 0, 80, 58
1, 721013, Note_off_c, 0, 80, 64
1, 721064, Note_on_c, 0, 71, 66
1, 721065, Note_on_c, 0, 76, 63
1, 721078, Note_on_c, 0, 68, 48
1, 721085, Note_on_c, 0, 66, 44
1, 721092, Note_off_c, 0, 76, 66
1, 721093, Note_off_c, 0, 71, 66
1, 721102, Note_off_c, 0, 68, 57
1, 721112, Note_off_c, 0, 66, 54
1, 721365, Note_on_c, 0, 76, 72
1, 721379, Control_c, 0, 64, 41
1, 721388, Note_on_c, 0, 71, 49
1, 721394, Control_c, 0, 64, 59
1, 721395, Note_on_c, 0, 66, 43
1, 721397, Note_on_c, 0, 68, 33
1, 721408, Control_c, 0, 64, 62
1, 721422, Note_off_c, 0, 71, 51
1, 721423, Note_off_c, 0, 66, 58
1, 721423, Control_c, 0, 64, 65
1, 721426, Note_off_c, 0, 68, 50
1, 721438, Control_c, 0, 64, 67
1, 721451, Note_off_c, 0, 76, 63
1, 721453, Control_c, 0, 64, 70
1, 721468, Control_c, 0, 64, 72
1, 721482, Control_c, 0, 64, 75
1, 721497, Control_c, 0, 64, 76
1, 721512, Control_c, 0, 64, 77
1, 721780, Control_c, 0, 64, 74
1, 721795, Control_c, 0, 64, 64
1, 721810, Control_c, 0, 64, 40
1, 721818, Note_on_c, 0, 76, 72
1, 721825, Control_c, 0, 64, 0
1, 721836, Note_on_c, 0, 68, 43
1, 721844, Note_on_c, 0, 71, 38
1, 721848, Note_on_c, 0, 66, 33
1, 721853, Note_off_c, 0, 76, 58
1, 721865, Note_off_c, 0, 68, 52
1, 721874, Note_off_c, 0, 71, 47
1, 721881, Note_off_c, 0, 66, 45
1, 721912, Note_on_c, 0, 78, 65
1, 721941, Note_off_c, 0, 78, 63
1, 722009, Note_on_c, 0, 72, 58
1, 722010, Note_on_c, 0, 66, 54
1, 722015, Note_on_c, 0, 74, 59
1, 722028, Note_off_c, 0, 72, 62
1, 722035, Note_off_c, 0, 74, 60
1, 722041, Note_off_c, 0, 66, 65
1, 722246, Note_on_c, 0, 74, 81
1, 722250, Note_on_c, 0, 72, 63
1, 722257, Note_on_c, 0, 66, 63
1, 722265, Note_on_c, 0, 69, 50
1, 722270, Note_off_c, 0, 72, 64
1, 722290, Note_off_c, 0, 66, 64
1, 722291, Note_off_c, 0, 69, 59
1, 722331, Note_off_c, 0, 74, 61
1, 722338, Note_on_c, 0, 76, 69
1, 722378, Note_off_c, 0, 76, 61
1, 722440, Note_on_c, 0, 71, 58
1, 722440, Note_on_c, 0, 73, 63
1, 722443, Note_on_c, 0, 66, 64
1, 722458, Note_off_c, 0, 73, 65
1, 722464, Note_off_c, 0, 71, 59
1, 722473, Note_off_c, 0, 66, 66
1, 722734, Note_on_c, 0, 73, 84
1, 722744, Note_on_c, 0, 66, 72
1, 722747, Note_on_c, 0, 71, 57
1, 722751, Control_c, 0, 64, 33
1, 722759, Note_on_c, 0, 65, 45
1, 722766, Control_c, 0, 64, 59
1, 722770, Note_off_c, 0, 71, 59
1, 722775, Note_off_c, 0, 66, 63
1, 722780, Control_c, 0, 64, 64
1, 722789, Note_off_c, 0, 65, 52
1, 722795, Control_c, 0, 64, 65
1, 722810, Control_c, 0, 64, 67
1, 722833, Control_c, 0, 64, 69
1, 722848, Control_c, 0, 64, 72
1, 722862, Control_c, 0, 64, 74
1, 722877, Control_c, 0, 64, 76
1, 722892, Control_c, 0, 64, 78
1, 722906, Control_c, 0, 64, 79
1, 722921, Control_c, 0, 64, 80
1, 722931, Note_off_c, 0, 73, 62
1, 722951, Control_c, 0, 64, 80
1, 723190, Note_on_c, 0, 74, 83
1, 723200, Note_on_c, 0, 68, 58
1, 723209, Note_on_c, 0, 66, 51
1, 723218, Note_on_c, 0, 71, 27
1, 723221, Note_off_c, 0, 68, 61
1, 723235, Note_off_c, 0, 66, 56
1, 723239, Note_off_c, 0, 74, 63
1, 723259, Note_off_c, 0, 71, 40
1, 723275, Note_on_c, 0, 76, 83
1, 723276, Control_c, 0, 64, 80
1, 723291, Control_c, 0, 64, 74
1, 723307, Control_c, 0, 64, 58
1, 723319, Note_off_c, 0, 76, 62
1, 723322, Control_c, 0, 64, 0
1, 723372, Note_on_c, 0, 78, 94
1, 723384, Note_on_c, 0, 66, 66
1, 723385, Note_on_c, 0, 69, 69
1, 723387, Note_on_c, 0, 73, 69
1, 723399, Note_off_c, 0, 78, 64
1, 723403, Note_off_c, 0, 69, 66
1, 723403, Note_off_c, 0, 73, 66
1, 723410, Note_off_c, 0, 66, 68
1, 723637, Note_on_c, 0, 78, 80
1, 723645, Note_on_c, 0, 66, 66
1, 723645, Note_on_c, 0, 73, 67
1, 723647, Note_on_c, 0, 69, 54
1, 723671, Note_off_c, 0, 69, 59
1, 723675, Note_off_c, 0, 66, 67
1, 723688, Note_off_c, 0, 73, 52
1, 723704, Note_off_c, 0, 78, 54
1, 723727, Note_on_c, 0, 80, 74
1, 723761, Note_off_c, 0, 80, 63
1, 723814, Note_on_c, 0, 76, 76
1, 723824, Note_on_c, 0, 68, 51
1, 723825, Note_on_c, 0, 71, 59
1, 723832, Note_on_c, 0, 66, 48
1, 723835, Note_off_c, 0, 76, 72
1, 723847, Note_off_c, 0, 71, 60
1, 723847, Note_off_c, 0, 68, 59
1, 723858, Note_off_c, 0, 66, 36
1, 724074, Note_on_c, 0, 68, 55
1, 724077, Note_on_c, 0, 66, 58
1, 724077, Note_on_c, 0, 76, 71
1, 724101, Note_on_c, 0, 71, 43
1, 724146, Note_off_c, 0, 76, 62
1, 724156, Note_off_c, 0, 71, 0
1, 724156, Note_on_c, 0, 71, 17
1, 724173, Note_on_c, 0, 78, 69
1, 724241, Note_off_c, 0, 78, 53
1, 724251, Note_off_c, 0, 71, 38
1, 724259, Note_on_c, 0, 76, 69
1, 724283, Note_off_c, 0, 76, 69
1, 724294, Note_off_c, 0, 68, 59
1, 724300, Note_off_c, 0, 66, 60
1, 724498, Note_on_c, 0, 76, 67
1, 724508, Note_on_c, 0, 71, 52
1, 724516, Note_on_c, 0, 66, 49
1, 724518, Note_on_c, 0, 68, 34
1, 724533, Note_off_c, 0, 76, 59
1, 724541, Note_off_c, 0, 71, 57
1, 724542, Note_off_c, 0, 66, 55
1, 724553, Note_off_c, 0, 68, 46
1, 724588, Note_on_c, 0, 78, 69
1, 724625, Note_off_c, 0, 78, 53
1, 724684, Note_on_c, 0, 66, 49
1, 724685, Note_on_c, 0, 72, 53
1, 724687, Note_on_c, 0, 74, 55
1, 724700, Control_c, 0, 67, 37
1, 724703, Note_on_c, 0, 69, 32
1, 724706, Note_off_c, 0, 72, 59
1, 724708, Note_off_c, 0, 66, 60
1, 724709, Note_off_c, 0, 74, 60
1, 724715, Control_c, 0, 67, 38
1, 724738, Note_off_c, 0, 69, 53
1, 724744, Control_c, 0, 67, 39
1, 724759, Control_c, 0, 67, 41
1, 724774, Control_c, 0, 67, 41
1, 724789, Control_c, 0, 67, 43
1, 724877, Control_c, 0, 67, 42
1, 724892, Control_c, 0, 67, 41
1, 724908, Control_c, 0, 67, 39
1, 724915, Note_on_c, 0, 74, 81
1, 724923, Note_on_c, 0, 72, 51
1, 724923, Control_c, 0, 67, 37
1, 724923, Note_on_c, 0, 66, 62
1, 724929, Note_on_c, 0, 69, 58
1, 724938, Control_c, 0, 67, 0
1, 724946, Note_off_c, 0, 72, 58
1, 724953, Note_off_c, 0, 69, 58
1, 724955, Note_off_c, 0, 66, 64
1, 724987, Note_off_c, 0, 74, 50
1, 725009, Note_on_c, 0, 76, 68
1, 725051, Note_off_c, 0, 76, 63
1, 725116, Note_on_c, 0, 73, 66
1, 725118, Note_on_c, 0, 66, 63
1, 725119, Note_on_c, 0, 71, 55
1, 725135, Note_off_c, 0, 73, 66
1, 725143, Note_off_c, 0, 71, 58
1, 725147, Note_off_c, 0, 66, 65
1, 725374, Note_on_c, 0, 73, 75
1, 725375, Note_on_c, 0, 71, 64
1, 725380, Note_on_c, 0, 66, 60
1, 725387, Note_on_c, 0, 65, 52
1, 725437, Note_off_c, 0, 73, 62
1, 725445, Note_off_c, 0, 65, 0
1, 725472, Note_on_c, 0, 74, 70
1, 725482, Poly_aftertouch_c, 0, 65, 127
1, 725532, Note_off_c, 0, 74, 62
1, 725563, Note_on_c, 0, 73, 68
1, 725612, Control_c, 0, 64, 49
1, 725627, Control_c, 0, 64, 58
1, 725642, Control_c, 0, 64, 59
1, 725656, Poly_aftertouch_c, 0, 65, 0
1, 725656, Control_c, 0, 64, 60
1, 725671, Control_c, 0, 64, 61
1, 725679, Note_off_c, 0, 71, 54
1, 725683, Note_off_c, 0, 73, 62
1, 725686, Control_c, 0, 64, 62
1, 725690, Note_off_c, 0, 66, 60
1, 725795, Note_on_c, 0, 73, 71
1, 725798, Note_on_c, 0, 65, 45
1, 725798, Note_on_c, 0, 71, 58
1, 725803, Note_on_c, 0, 66, 60
1, 725829, Note_off_c, 0, 71, 56
1, 725831, Note_off_c, 0, 65, 57
1, 725844, Note_off_c, 0, 66, 65
1, 725860, Note_off_c, 0, 73, 60
1, 725888, Note_on_c, 0, 76, 71
1, 725925, Note_off_c, 0, 76, 57
1, 725931, Control_c, 0, 64, 58
1, 725946, Control_c, 0, 64, 44
1, 725961, Control_c, 0, 64, 0
1, 725981, Note_on_c, 0, 74, 88
1, 725993, Note_on_c, 0, 69, 62
1, 725996, Note_on_c, 0, 72, 56
1, 725999, Note_off_c, 0, 74, 74
1, 725999, Note_on_c, 0, 66, 55
1, 726013, Note_off_c, 0, 69, 63
1, 726016, Note_off_c, 0, 72, 61
1, 726021, Note_off_c, 0, 66, 59
1, 726229, Note_on_c, 0, 74, 90
1, 726239, Note_on_c, 0, 66, 62
1, 726241, Note_on_c, 0, 69, 64
1, 726241, Note_on_c, 0, 72, 54
1, 726259, Note_off_c, 0, 69, 65
1, 726262, Note_off_c, 0, 72, 59
1, 726268, Note_off_c, 0, 66, 66
1, 726306, Note_off_c, 0, 74, 57
1, 726317, Note_on_c, 0, 76, 76
1, 726364, Note_off_c, 0, 76, 62
1, 726414, Note_on_c, 0, 73, 73
1, 726419, Note_on_c, 0, 71, 63
1, 726420, Note_on_c, 0, 66, 68
1, 726434, Note_off_c, 0, 73, 70
1, 726439, Note_off_c, 0, 71, 63
1, 726447, Note_off_c, 0, 66, 69
1, 726454, Note_on_c, 0, 65, 7
1, 726506, Note_off_c, 0, 65, 28
1, 726674, Note_on_c, 0, 73, 88
1, 726675, Note_on_c, 0, 71, 80
1, 726680, Note_on_c, 0, 66, 72
1, 726691, Note_on_c, 0, 65, 59
1, 726750, Note_off_c, 0, 65, 0
1, 726750, Note_off_c, 0, 73, 60
1, 726765, Note_on_c, 0, 65, 28
1, 726765, Note_on_c, 0, 74, 82
1, 726841, Note_off_c, 0, 74, 62
1, 726857, Note_on_c, 0, 73, 77
1, 726902, Control_c, 0, 64, 33
1, 726908, Note_off_c, 0, 65, 26
1, 726917, Control_c, 0, 64, 57
1, 726932, Control_c, 0, 64, 61
1, 726947, Control_c, 0, 64, 61
1, 726962, Control_c, 0, 64, 62
1, 726973, Note_off_c, 0, 71, 57
1, 726977, Control_c, 0, 64, 63
1, 726992, Note_off_c, 0, 73, 62
1, 726995, Note_off_c, 0, 66, 59
1, 727087, Note_on_c, 0, 73, 82
1, 727093, Note_on_c, 0, 71, 59
1, 727096, Note_on_c, 0, 66, 69
1, 727098, Note_on_c, 0, 65, 53
1, 727113, Note_off_c, 0, 71, 62
1, 727119, Note_off_c, 0, 65, 59
1, 727125, Note_off_c, 0, 66, 68
1, 727147, Note_off_c, 0, 73, 51
1, 727163, Note_on_c, 0, 76, 80
1, 727169, Control_c, 0, 64, 62
1, 727184, Control_c, 0, 64, 55
1, 727199, Control_c, 0, 64, 0
1, 727201, Note_off_c, 0, 76, 61
1, 727257, Note_on_c, 0, 74, 93
1, 727262, Note_on_c, 0, 72, 67
1, 727265, Note_on_c, 0, 66, 70
1, 727270, Note_on_c, 0, 69, 62
1, 727273, Note_off_c, 0, 74, 75
1, 727278, Note_off_c, 0, 72, 65
1, 727288, Note_off_c, 0, 66, 65
1, 727290, Note_off_c, 0, 69, 65
1, 727508, Note_on_c, 0, 74, 91
1, 727518, Note_on_c, 0, 69, 67
1, 727519, Note_on_c, 0, 66, 69
1, 727520, Note_on_c, 0, 72, 60
1, 727537, Note_off_c, 0, 69, 66
1, 727540, Note_off_c, 0, 72, 63
1, 727546, Note_off_c, 0, 66, 67
1, 727589, Note_off_c, 0, 74, 61
1, 727594, Note_on_c, 0, 76, 84
1, 727651, Note_off_c, 0, 76, 65
1, 727695, Note_on_c, 0, 73, 83
1, 727710, Note_on_c, 0, 66, 73
1, 727716, Note_on_c, 0, 71, 51
1, 727719, Note_off_c, 0, 73, 64
1, 727725, Note_on_c, 0, 65, 31
1, 727736, Note_off_c, 0, 66, 69
1, 727741, Note_off_c, 0, 71, 57
1, 727762, Note_off_c, 0, 65, 34
1, 727931, Control_c, 0, 64, 53
1, 727934, Note_on_c, 0, 74, 98
1, 727943, Note_on_c, 0, 66, 81
1, 727946, Note_on_c, 0, 69, 79
1, 727946, Control_c, 0, 64, 61
1, 727948, Note_on_c, 0, 72, 73
1, 727963, Note_off_c, 0, 72, 68
1, 727970, Note_off_c, 0, 69, 65
1, 727970, Note_off_c, 0, 66, 61
1, 727991, Control_c, 0, 64, 62
1, 728005, Control_c, 0, 64, 62
1, 728030, Note_on_c, 0, 76, 84
1, 728033, Note_off_c, 0, 74, 57
1, 728065, Control_c, 0, 64, 63
1, 728087, Control_c, 0, 64, 62
1, 728100, Note_off_c, 0, 76, 64
1, 728103, Control_c, 0, 64, 59
1, 728118, Control_c, 0, 64, 37
1, 728132, Control_c, 0, 64, 0
1, 728136, Note_on_c, 0, 73, 82
1, 728152, Note_on_c, 0, 71, 70
1, 728154, Note_on_c, 0, 66, 74
1, 728162, Note_off_c, 0, 73, 63
1, 728163, Note_on_c, 0, 65, 43
1, 728170, Note_off_c, 0, 71, 65
1, 728179, Note_off_c, 0, 66, 70
1, 728190, Note_off_c, 0, 65, 37
1, 728377, Note_on_c, 0, 74, 84
1, 728383, Note_on_c, 0, 72, 64
1, 728386, Note_on_c, 0, 66, 65
1, 728393, Note_on_c, 0, 69, 57
1, 728399, Note_off_c, 0, 72, 65
1, 728414, Note_off_c, 0, 69, 62
1, 728416, Note_off_c, 0, 66, 67
1, 728454, Note_off_c, 0, 74, 56
1, 728466, Note_on_c, 0, 76, 71
1, 728503, Control_c, 0, 67, 41
1, 728518, Control_c, 0, 67, 57
1, 728521, Note_off_c, 0, 76, 65
1, 728533, Control_c, 0, 67, 78
1, 728548, Control_c, 0, 67, 96
1, 728563, Control_c, 0, 67, 103
1, 728566, Note_on_c, 0, 73, 73
1, 728575, Note_on_c, 0, 71, 65
1, 728578, Control_c, 0, 67, 108
1, 728578, Note_on_c, 0, 65, 51
1, 728581, Note_on_c, 0, 66, 65
1, 728587, Note_off_c, 0, 73, 70
1, 728593, Note_off_c, 0, 71, 64
1, 728600, Note_off_c, 0, 65, 60
1, 728607, Note_off_c, 0, 66, 66
1, 728622, Control_c, 0, 67, 110
1, 728666, Control_c, 0, 67, 113
1, 728740, Control_c, 0, 67, 115
1, 728770, Control_c, 0, 67, 126
1, 728828, Note_on_c, 0, 74, 81
1, 728831, Note_on_c, 0, 66, 64
1, 728836, Note_on_c, 0, 69, 65
1, 728844, Note_on_c, 0, 72, 38
1, 728861, Note_off_c, 0, 66, 67
1, 728870, Note_off_c, 0, 69, 58
1, 728873, Note_off_c, 0, 72, 35
1, 728912, Note_off_c, 0, 74, 57
1, 728935, Note_on_c, 0, 76, 66
1, 728992, Note_off_c, 0, 76, 61
1, 729046, Note_on_c, 0, 73, 74
1, 729052, Note_on_c, 0, 66, 66
1, 729055, Note_on_c, 0, 65, 58
1, 729067, Note_off_c, 0, 73, 69
1, 729074, Note_off_c, 0, 65, 64
1, 729080, Note_off_c, 0, 66, 68
1, 729104, Control_c, 0, 67, 108
1, 729119, Control_c, 0, 67, 84
1, 729134, Control_c, 0, 67, 60
1, 729148, Control_c, 0, 67, 41
1, 729163, Control_c, 0, 67, 0
1, 729290, Note_on_c, 0, 62, 87
1, 729292, Note_on_c, 0, 71, 84
1, 729293, Note_on_c, 0, 69, 79
1, 729310, Note_off_c, 0, 62, 72
1, 729311, Note_off_c, 0, 71, 70
1, 729312, Note_off_c, 0, 69, 72
1, 729387, Note_on_c, 0, 61, 70
1, 729387, Note_on_c, 0, 68, 65
1, 729392, Note_on_c, 0, 66, 62
1, 729406, Note_off_c, 0, 68, 65
1, 729418, Note_off_c, 0, 61, 63
1, 729423, Note_off_c, 0, 66, 66
1, 729499, Note_on_c, 0, 62, 65
1, 729499, Note_on_c, 0, 71, 69
1, 729500, Note_on_c, 0, 69, 64
1, 729524, Note_off_c, 0, 62, 64
1, 729526, Note_off_c, 0, 71, 67
1, 729529, Note_off_c, 0, 69, 67
1, 729612, Note_on_c, 0, 66, 58
1, 729616, Note_on_c, 0, 68, 44
1, 729627, Note_on_c, 0, 61, 43
1, 729642, Note_off_c, 0, 66, 64
1, 729643, Note_off_c, 0, 68, 51
1, 729657, Note_off_c, 0, 61, 51
1, 729715, Note_on_c, 0, 71, 54
1, 729719, Note_on_c, 0, 69, 51
1, 729722, Note_on_c, 0, 62, 44
1, 729739, Note_off_c, 0, 71, 59
1, 729742, Note_off_c, 0, 69, 60
1, 729752, Note_off_c, 0, 62, 52
1, 729803, Note_on_c, 0, 68, 30
1, 729804, Note_on_c, 0, 66, 59
1, 729812, Note_on_c, 0, 61, 35
1, 729832, Note_off_c, 0, 66, 64
1, 729836, Note_off_c, 0, 68, 45
1, 729842, Note_off_c, 0, 61, 48
1, 729910, Note_on_c, 0, 71, 57
1, 729910, Note_on_c, 0, 62, 48
1, 729913, Note_on_c, 0, 69, 48
1, 729933, Note_off_c, 0, 71, 61
1, 729937, Note_off_c, 0, 62, 55
1, 729939, Note_off_c, 0, 69, 58
1, 730146, Note_on_c, 0, 62, 60
1, 730147, Note_on_c, 0, 71, 55
1, 730152, Note_on_c, 0, 69, 53
1, 730166, Note_off_c, 0, 62, 64
1, 730169, Note_off_c, 0, 71, 61
1, 730174, Note_off_c, 0, 69, 60
1, 730244, Note_on_c, 0, 66, 53
1, 730249, Note_on_c, 0, 68, 45
1, 730267, Note_off_c, 0, 66, 61
1, 730277, Note_off_c, 0, 68, 54
1, 730359, Note_on_c, 0, 62, 51
1, 730364, Note_on_c, 0, 71, 52
1, 730377, Note_on_c, 0, 69, 27
1, 730382, Note_off_c, 0, 62, 58
1, 730390, Note_off_c, 0, 71, 55
1, 730419, Note_off_c, 0, 69, 47
1, 730593, Note_on_c, 0, 71, 59
1, 730596, Note_on_c, 0, 78, 52
1, 730601, Control_c, 0, 67, 47
1, 730608, Note_on_c, 0, 80, 37
1, 730615, Note_off_c, 0, 71, 60
1, 730616, Control_c, 0, 67, 56
1, 730620, Note_off_c, 0, 78, 56
1, 730631, Control_c, 0, 67, 58
1, 730638, Note_off_c, 0, 80, 51
1, 730645, Control_c, 0, 67, 60
1, 730660, Control_c, 0, 67, 62
1, 730675, Control_c, 0, 67, 70
1, 730678, Note_on_c, 0, 74, 63
1, 730689, Note_on_c, 0, 68, 44
1, 730690, Control_c, 0, 67, 89
1, 730691, Note_on_c, 0, 73, 45
1, 730705, Control_c, 0, 67, 104
1, 730710, Note_off_c, 0, 74, 64
1, 730715, Note_off_c, 0, 73, 60
1, 730715, Note_off_c, 0, 68, 58
1, 730719, Control_c, 0, 67, 109
1, 730793, Control_c, 0, 67, 107
1, 730807, Note_on_c, 0, 80, 41
1, 730812, Note_on_c, 0, 78, 37
1, 730816, Note_on_c, 0, 71, 38
1, 730823, Control_c, 0, 67, 105
1, 730834, Note_off_c, 0, 80, 52
1, 730842, Note_off_c, 0, 78, 44
1, 730849, Note_off_c, 0, 71, 50
1, 730888, Note_on_c, 0, 74, 60
1, 730897, Note_on_c, 0, 68, 44
1, 730902, Note_on_c, 0, 73, 47
1, 730918, Note_off_c, 0, 74, 62
1, 730924, Note_off_c, 0, 68, 58
1, 730928, Note_off_c, 0, 73, 60
1, 730997, Note_on_c, 0, 80, 60
1, 730999, Note_on_c, 0, 78, 53
1, 731004, Note_on_c, 0, 71, 49
1, 731023, Note_off_c, 0, 78, 61
1, 731025, Note_off_c, 0, 80, 66
1, 731030, Note_off_c, 0, 71, 53
1, 731031, Control_c, 0, 67, 107
1, 731094, Note_on_c, 0, 74, 59
1, 731100, Note_on_c, 0, 73, 49
1, 731100, Note_on_c, 0, 68, 46
1, 731115, Note_off_c, 0, 74, 60
1, 731126, Note_off_c, 0, 73, 60
1, 731126, Control_c, 0, 67, 109
1, 731129, Note_off_c, 0, 68, 62
1, 731156, Control_c, 0, 67, 112
1, 731201, Control_c, 0, 67, 114
1, 731204, Note_on_c, 0, 80, 61
1, 731209, Note_on_c, 0, 78, 55
1, 731211, Note_on_c, 0, 71, 47
1, 731222, Note_off_c, 0, 80, 64
1, 731231, Note_off_c, 0, 78, 58
1, 731240, Note_off_c, 0, 71, 52
1, 731380, Control_c, 0, 67, 112
1, 731425, Control_c, 0, 67, 109
1, 731452, Note_on_c, 0, 80, 61
1, 731454, Note_on_c, 0, 71, 61
1, 731454, Note_on_c, 0, 78, 54
1, 731469, Control_c, 0, 67, 107
1, 731473, Note_off_c, 0, 71, 63
1, 731475, Note_off_c, 0, 78, 60
1, 731475, Note_off_c, 0, 80, 65
1, 731535, Note_on_c, 0, 74, 42
1, 731539, Note_on_c, 0, 73, 45
1, 731559, Note_on_c, 0, 68, 9
1, 731562, Note_off_c, 0, 74, 50
1, 731562, Note_off_c, 0, 73, 56
1, 731613, Note_off_c, 0, 68, 33
1, 731618, Note_on_c, 0, 80, 68
1, 731623, Note_on_c, 0, 78, 55
1, 731627, Note_on_c, 0, 71, 49
1, 731644, Note_off_c, 0, 80, 67
1, 731651, Note_off_c, 0, 78, 62
1, 731654, Note_off_c, 0, 71, 54
1, 731832, Control_c, 0, 67, 105
1, 731847, Control_c, 0, 67, 102
1, 731862, Control_c, 0, 67, 94
1, 731876, Control_c, 0, 67, 87
1, 731891, Control_c, 0, 67, 79
1, 731906, Control_c, 0, 67, 70
1, 731921, Control_c, 0, 67, 51
1, 731936, Control_c, 0, 67, 0
1, 732101, Note_on_c, 0, 90, 78
1, 732106, Note_on_c, 0, 78, 65
1, 732110, Note_on_c, 0, 80, 61
1, 732110, Note_on_c, 0, 86, 63
1, 732113, Note_on_c, 0, 71, 65
1, 732121, Note_on_c, 0, 85, 43
1, 732125, Note_off_c, 0, 78, 64
1, 732127, Note_off_c, 0, 90, 66
1, 732128, Note_off_c, 0, 86, 65
1, 732130, Note_off_c, 0, 80, 65
1, 732140, Note_off_c, 0, 71, 66
1, 732143, Note_off_c, 0, 85, 38
1, 732405, Note_on_c, 0, 56, 90
1, 732493, Note_on_c, 0, 57, 88
1, 732499, Control_c, 0, 64, 29
1, 732507, Note_off_c, 0, 56, 61
1, 732529, Control_c, 0, 64, 0
1, 732576, Note_off_c, 0, 57, 60
1, 732606, Note_on_c, 0, 59, 89
1, 732655, Control_c, 0, 64, 41
1, 732670, Control_c, 0, 64, 60
1, 732685, Control_c, 0, 64, 62
1, 732699, Control_c, 0, 64, 63
1, 732714, Control_c, 0, 64, 64
1, 732729, Control_c, 0, 64, 65
1, 732744, Control_c, 0, 64, 67
1, 732759, Control_c, 0, 64, 68
1, 732773, Control_c, 0, 64, 70
1, 732788, Control_c, 0, 64, 73
1, 732800, Note_off_c, 0, 59, 60
1, 732803, Control_c, 0, 64, 75
1, 732817, Control_c, 0, 64, 77
1, 732832, Control_c, 0, 64, 79
1, 732847, Control_c, 0, 64, 79
1, 732875, Note_on_c, 0, 61, 91
1, 732877, Control_c, 0, 64, 75
1, 732893, Control_c, 0, 64, 63
1, 732908, Control_c, 0, 64, 41
1, 732922, Control_c, 0, 64, 36
1, 732937, Control_c, 0, 64, 45
1, 732952, Control_c, 0, 64, 62
1, 732967, Control_c, 0, 64, 70
1, 732982, Control_c, 0, 64, 76
1, 733011, Control_c, 0, 64, 75
1, 733015, Note_on_c, 0, 62, 101
1, 733026, Control_c, 0, 64, 67
1, 733040, Control_c, 0, 64, 52
1, 733043, Note_off_c, 0, 61, 61
1, 733055, Control_c, 0, 64, 0
1, 733085, Control_c, 0, 64, 30
1, 733100, Control_c, 0, 64, 54
1, 733112, Note_on_c, 0, 47, 71
1, 733115, Control_c, 0, 64, 65
1, 733130, Control_c, 0, 64, 68
1, 733144, Control_c, 0, 64, 69
1, 733179, Note_on_c, 0, 54, 71
1, 733189, Control_c, 0, 64, 67
1, 733204, Control_c, 0, 64, 57
1, 733219, Control_c, 0, 64, 0
1, 733225, Note_on_c, 0, 57, 71
1, 733233, Note_on_c, 0, 64, 93
1, 733237, Note_off_c, 0, 62, 66
1, 733339, Note_off_c, 0, 47, 47
1, 733344, Control_c, 0, 64, 57
1, 733359, Control_c, 0, 64, 67
1, 733374, Control_c, 0, 64, 69
1, 733389, Control_c, 0, 64, 71
1, 733404, Control_c, 0, 64, 74
1, 733419, Control_c, 0, 64, 78
1, 733421, Note_off_c, 0, 54, 61
1, 733434, Control_c, 0, 64, 82
1, 733439, Note_off_c, 0, 57, 63
1, 733448, Control_c, 0, 64, 86
1, 733463, Control_c, 0, 64, 89
1, 733478, Control_c, 0, 64, 90
1, 733487, Note_off_c, 0, 64, 60
1, 733493, Control_c, 0, 64, 91
1, 733507, Control_c, 0, 64, 92
1, 733521, Control_c, 0, 64, 92
1, 733592, Note_on_c, 0, 62, 85
1, 733666, Note_off_c, 0, 62, 61
1, 733693, Note_on_c, 0, 61, 89
1, 733774, Control_c, 0, 64, 92
1, 733777, Note_off_c, 0, 61, 57
1, 733789, Control_c, 0, 64, 88
1, 733804, Control_c, 0, 64, 72
1, 733810, Note_on_c, 0, 59, 87
1, 733812, Note_on_c, 0, 81, 80
1, 733818, Control_c, 0, 64, 46
1, 733824, Note_on_c, 0, 78, 69
1, 733833, Control_c, 0, 64, 0
1, 733836, Note_on_c, 0, 69, 47
1, 733836, Note_on_c, 0, 74, 54
1, 733865, Note_off_c, 0, 69, 53
1, 733886, Note_off_c, 0, 74, 56
1, 733893, Control_c, 0, 64, 45
1, 733908, Control_c, 0, 64, 60
1, 733908, Note_off_c, 0, 81, 62
1, 733910, Note_off_c, 0, 78, 59
1, 733916, Note_on_c, 0, 61, 84
1, 733923, Control_c, 0, 64, 65
1, 733925, Note_off_c, 0, 59, 62
1, 733937, Control_c, 0, 64, 68
1, 733952, Control_c, 0, 64, 69
1, 733967, Control_c, 0, 64, 70
1, 733982, Control_c, 0, 64, 71
1, 733997, Control_c, 0, 64, 71
1, 734011, Control_c, 0, 64, 72
1, 734022, Note_off_c, 0, 61, 62
1, 734024, Note_on_c, 0, 62, 84
1, 734026, Control_c, 0, 64, 72
1, 734041, Control_c, 0, 64, 73
1, 734078, Control_c, 0, 64, 73
1, 734107, Control_c, 0, 64, 74
1, 734125, Note_off_c, 0, 62, 54
1, 734126, Note_on_c, 0, 59, 89
1, 734137, Control_c, 0, 64, 74
1, 734176, Note_off_c, 0, 59, 65
1, 734256, Control_c, 0, 64, 72
1, 734270, Control_c, 0, 64, 63
1, 734280, Note_on_c, 0, 61, 69
1, 734283, Note_on_c, 0, 65, 70
1, 734285, Control_c, 0, 64, 46
1, 734286, Note_on_c, 0, 49, 69
1, 734300, Control_c, 0, 64, 0
1, 734335, Note_off_c, 0, 49, 52
1, 734374, Control_c, 0, 64, 32
1, 734388, Control_c, 0, 64, 45
1, 734403, Control_c, 0, 64, 57
1, 734418, Control_c, 0, 64, 62
1, 734433, Control_c, 0, 64, 63
1, 734462, Control_c, 0, 64, 64
1, 734493, Control_c, 0, 64, 64
1, 734632, Note_on_c, 0, 59, 78
1, 734639, Note_off_c, 0, 65, 57
1, 734641, Note_on_c, 0, 49, 52
1, 734641, Control_c, 0, 64, 64
1, 734680, Note_off_c, 0, 61, 50
1, 734686, Control_c, 0, 64, 63
1, 734730, Control_c, 0, 64, 63
1, 734741, Note_off_c, 0, 59, 65
1, 734749, Note_on_c, 0, 57, 77
1, 734777, Note_off_c, 0, 49, 61
1, 734815, Note_on_c, 0, 42, 54
1, 734856, Control_c, 0, 64, 62
1, 734871, Control_c, 0, 64, 61
1, 734885, Control_c, 0, 64, 55
1, 734900, Control_c, 0, 64, 43
1, 734904, Note_on_c, 0, 56, 74
1, 734912, Note_on_c, 0, 49, 51
1, 734915, Control_c, 0, 64, 0
1, 734919, Note_off_c, 0, 57, 47
1, 734939, Note_on_c, 0, 61, 47
1, 734959, Note_off_c, 0, 49, 60
1, 734966, Note_on_c, 0, 66, 50
1, 735005, Control_c, 0, 64, 31
1, 735019, Control_c, 0, 64, 44
1, 735034, Control_c, 0, 64, 55
1, 735049, Control_c, 0, 64, 60
1, 735064, Control_c, 0, 64, 61
1, 735079, Control_c, 0, 64, 61
1, 735139, Control_c, 0, 64, 62
1, 735158, Note_off_c, 0, 66, 61
1, 735166, Note_off_c, 0, 61, 55
1, 735168, Control_c, 0, 64, 61
1, 735182, Note_off_c, 0, 56, 61
1, 735183, Control_c, 0, 64, 60
1, 735188, Note_on_c, 0, 57, 64
1, 735190, Note_on_c, 0, 49, 54
1, 735198, Control_c, 0, 64, 57
1, 735212, Control_c, 0, 64, 52
1, 735227, Control_c, 0, 64, 49
1, 735242, Control_c, 0, 64, 46
1, 735257, Control_c, 0, 64, 44
1, 735258, Note_off_c, 0, 57, 56
1, 735272, Control_c, 0, 64, 41
1, 735282, Note_on_c, 0, 56, 75
1, 735288, Control_c, 0, 64, 34
1, 735303, Control_c, 0, 64, 0
1, 735345, Note_off_c, 0, 56, 60
1, 735395, Note_on_c, 0, 59, 70
1, 735407, Note_on_c, 0, 61, 62
1, 735464, Note_off_c, 0, 49, 58
1, 735480, Control_c, 0, 64, 37
1, 735495, Control_c, 0, 64, 50
1, 735509, Control_c, 0, 64, 56
1, 735524, Control_c, 0, 64, 58
1, 735539, Control_c, 0, 64, 59
1, 735601, Note_off_c, 0, 61, 48
1, 735621, Control_c, 0, 64, 59
1, 735636, Control_c, 0, 64, 58
1, 735642, Note_off_c, 0, 59, 62
1, 735650, Note_on_c, 0, 57, 68
1, 735650, Control_c, 0, 64, 57
1, 735655, Note_on_c, 0, 49, 47
1, 735663, Note_off_c, 0, 42, 58
1, 735665, Control_c, 0, 64, 56
1, 735680, Control_c, 0, 64, 55
1, 735695, Control_c, 0, 64, 54
1, 735710, Control_c, 0, 64, 53
1, 735714, Note_off_c, 0, 57, 60
1, 735724, Control_c, 0, 64, 53
1, 735739, Control_c, 0, 64, 52
1, 735752, Note_on_c, 0, 56, 73
1, 735769, Control_c, 0, 64, 52
1, 735784, Control_c, 0, 64, 50
1, 735798, Control_c, 0, 64, 48
1, 735813, Control_c, 0, 64, 42
1, 735813, Control_c, 0, 67, 42
1, 735821, Note_off_c, 0, 56, 60
1, 735828, Control_c, 0, 64, 32
1, 735828, Control_c, 0, 67, 56
1, 735842, Control_c, 0, 64, 0
1, 735842, Control_c, 0, 67, 79
1, 735847, Note_off_c, 0, 49, 62
1, 735857, Control_c, 0, 67, 98
1, 735867, Note_on_c, 0, 54, 63
1, 735872, Control_c, 0, 67, 117
1, 735876, Note_on_c, 0, 50, 48
1, 735880, Note_on_c, 0, 42, 42
1, 735887, Control_c, 0, 67, 127
1, 735892, Note_on_c, 0, 60, 53
1, 736081, Note_off_c, 0, 60, 59
1, 736148, Note_on_c, 0, 56, 72
1, 736168, Note_off_c, 0, 54, 47
1, 736190, Note_off_c, 0, 50, 63
1, 736197, Note_off_c, 0, 42, 60
1, 736215, Note_off_c, 0, 56, 61
1, 736253, Note_on_c, 0, 52, 71
1, 736263, Note_on_c, 0, 60, 44
1, 736289, Note_off_c, 0, 60, 55
1, 736325, Note_off_c, 0, 52, 56
1, 736375, Note_on_c, 0, 49, 63
1, 736388, Note_on_c, 0, 42, 57
1, 736410, Note_off_c, 0, 49, 63
1, 736635, Note_on_c, 0, 57, 71
1, 736639, Note_on_c, 0, 49, 57
1, 736644, Note_on_c, 0, 66, 57
1, 736662, Note_on_c, 0, 61, 48
1, 736664, Note_off_c, 0, 66, 62
1, 736676, Note_off_c, 0, 57, 54
1, 736695, Note_off_c, 0, 61, 61
1, 736742, Note_on_c, 0, 56, 67
1, 736799, Note_off_c, 0, 56, 58
1, 736848, Note_on_c, 0, 59, 66
1, 736865, Note_on_c, 0, 61, 45
1, 736918, Control_c, 0, 64, 37
1, 736933, Control_c, 0, 64, 46
1, 736944, Note_off_c, 0, 49, 57
1, 736948, Control_c, 0, 64, 53
1, 736963, Control_c, 0, 64, 56
1, 736978, Control_c, 0, 64, 57
1, 737092, Note_off_c, 0, 61, 57
1, 737103, Control_c, 0, 64, 56
1, 737118, Note_off_c, 0, 59, 64
1, 737118, Control_c, 0, 64, 56
1, 737126, Note_on_c, 0, 49, 43
1, 737128, Note_on_c, 0, 57, 67
1, 737133, Control_c, 0, 64, 54
1, 737148, Control_c, 0, 64, 53
1, 737162, Note_off_c, 0, 42, 58
1, 737163, Control_c, 0, 64, 52
1, 737178, Control_c, 0, 64, 51
1, 737186, Note_off_c, 0, 57, 57
1, 737193, Control_c, 0, 64, 50
1, 737207, Control_c, 0, 64, 49
1, 737217, Note_on_c, 0, 56, 74
1, 737222, Control_c, 0, 64, 48
1, 737237, Control_c, 0, 64, 44
1, 737252, Control_c, 0, 64, 40
1, 737267, Control_c, 0, 64, 33
1, 737281, Control_c, 0, 64, 0
1, 737286, Note_off_c, 0, 56, 57
1, 737318, Note_off_c, 0, 49, 60
1, 737330, Note_on_c, 0, 54, 64
1, 737340, Note_on_c, 0, 50, 42
1, 737341, Note_on_c, 0, 42, 31
1, 737360, Note_on_c, 0, 60, 54
1, 737515, Note_off_c, 0, 60, 61
1, 737580, Note_on_c, 0, 56, 79
1, 737599, Note_off_c, 0, 54, 58
1, 737611, Note_off_c, 0, 42, 53
1, 737616, Note_off_c, 0, 50, 62
1, 737641, Note_off_c, 0, 56, 62
1, 737673, Note_on_c, 0, 60, 53
1, 737681, Note_on_c, 0, 52, 72
1, 737705, Note_off_c, 0, 60, 65
1, 737753, Note_off_c, 0, 52, 60
1, 737756, Control_c, 0, 67, 119
1, 737771, Control_c, 0, 67, 106
1, 737786, Control_c, 0, 67, 91
1, 737793, Note_on_c, 0, 49, 67
1, 737808, Control_c, 0, 67, 75
1, 737816, Note_on_c, 0, 42, 63
1, 737823, Control_c, 0, 67, 58
1, 737837, Note_off_c, 0, 49, 62
1, 737837, Control_c, 0, 67, 41
1, 737852, Control_c, 0, 64, 36
1, 737852, Control_c, 0, 67, 0
1, 737867, Control_c, 0, 64, 43
1, 737882, Control_c, 0, 64, 49
1, 737897, Control_c, 0, 64, 53
1, 737911, Control_c, 0, 64, 54
1, 737926, Control_c, 0, 64, 55
1, 737985, Control_c, 0, 64, 55
1, 738030, Control_c, 0, 64, 55
1, 738045, Control_c, 0, 64, 54
1, 738051, Note_on_c, 0, 49, 60
1, 738054, Note_on_c, 0, 57, 73
1, 738060, Control_c, 0, 64, 52
1, 738070, Note_on_c, 0, 66, 60
1, 738075, Control_c, 0, 64, 51
1, 738090, Control_c, 0, 64, 49
1, 738091, Note_on_c, 0, 61, 50
1, 738103, Note_off_c, 0, 66, 65
1, 738104, Control_c, 0, 64, 49
1, 738119, Control_c, 0, 64, 48
1, 738138, Note_off_c, 0, 61, 63
1, 738153, Note_off_c, 0, 57, 59
1, 738166, Note_on_c, 0, 56, 83
1, 738223, Control_c, 0, 64, 48
1, 738237, Control_c, 0, 64, 49
1, 738252, Control_c, 0, 64, 49
1, 738269, Note_off_c, 0, 56, 62
1, 738282, Control_c, 0, 64, 50
1, 738297, Control_c, 0, 64, 49
1, 738311, Control_c, 0, 64, 48
1, 738315, Note_on_c, 0, 59, 83
1, 738326, Control_c, 0, 64, 41
1, 738336, Note_on_c, 0, 61, 63
1, 738341, Control_c, 0, 64, 31
1, 738355, Control_c, 0, 64, 0
1, 738400, Control_c, 0, 64, 29
1, 738415, Control_c, 0, 64, 37
1, 738429, Note_off_c, 0, 49, 58
1, 738430, Control_c, 0, 64, 46
1, 738445, Control_c, 0, 64, 54
1, 738459, Control_c, 0, 64, 58
1, 738474, Control_c, 0, 64, 58
1, 738490, Control_c, 0, 64, 59
1, 738584, Note_off_c, 0, 61, 54
1, 738660, Control_c, 0, 64, 58
1, 738690, Control_c, 0, 64, 58
1, 738705, Control_c, 0, 64, 57
1, 738719, Note_on_c, 0, 49, 44
1, 738720, Control_c, 0, 64, 57
1, 738729, Note_off_c, 0, 59, 63
1, 738732, Note_off_c, 0, 42, 60
1, 738734, Control_c, 0, 64, 56
1, 738740, Note_on_c, 0, 57, 74
1, 738749, Control_c, 0, 64, 55
1, 738764, Control_c, 0, 64, 53
1, 738778, Control_c, 0, 64, 51
1, 738793, Control_c, 0, 64, 48
1, 738808, Control_c, 0, 64, 46
1, 738820, Note_off_c, 0, 57, 57
1, 738823, Control_c, 0, 64, 44
1, 738838, Control_c, 0, 64, 42
1, 738839, Note_on_c, 0, 56, 79
1, 738853, Control_c, 0, 64, 39
1, 738868, Control_c, 0, 64, 33
1, 738883, Control_c, 0, 64, 0
1, 738902, Note_off_c, 0, 56, 60
1, 738941, Note_off_c, 0, 49, 60
1, 738942, Control_c, 0, 67, 45
1, 738951, Note_on_c, 0, 54, 65
1, 738957, Control_c, 0, 67, 57
1, 738966, Note_on_c, 0, 42, 44
1, 738966, Note_on_c, 0, 50, 42
1, 738972, Control_c, 0, 67, 71
1, 738984, Note_on_c, 0, 60, 52
1, 738986, Control_c, 0, 67, 83
1, 739001, Control_c, 0, 67, 96
1, 739016, Control_c, 0, 67, 109
1, 739031, Control_c, 0, 67, 124
1, 739046, Control_c, 0, 67, 127
1, 739060, Control_c, 0, 64, 44
1, 739075, Control_c, 0, 64, 56
1, 739081, Note_off_c, 0, 42, 61
1, 739084, Note_off_c, 0, 50, 63
1, 739090, Control_c, 0, 64, 60
1, 739105, Control_c, 0, 64, 62
1, 739120, Control_c, 0, 64, 63
1, 739134, Control_c, 0, 64, 63
1, 739142, Note_off_c, 0, 60, 55
1, 739143, Note_off_c, 0, 54, 60
1, 739178, Control_c, 0, 64, 64
1, 739208, Control_c, 0, 64, 63
1, 739221, Note_on_c, 0, 56, 83
1, 739223, Control_c, 0, 64, 62
1, 739238, Control_c, 0, 64, 52
1, 739244, Note_off_c, 0, 56, 68
1, 739252, Control_c, 0, 64, 0
1, 739401, Note_on_c, 0, 52, 67
1, 739403, Note_on_c, 0, 60, 65
1, 739428, Note_off_c, 0, 52, 65
1, 739431, Note_off_c, 0, 60, 67
1, 739522, Note_on_c, 0, 54, 74
1, 739547, Note_off_c, 0, 54, 67
1, 739622, Note_on_c, 0, 52, 62
1, 739640, Note_on_c, 0, 60, 38
1, 739651, Note_off_c, 0, 52, 63
1, 739669, Note_off_c, 0, 60, 52
1, 739721, Note_on_c, 0, 56, 69
1, 739753, Note_off_c, 0, 56, 66
1, 739822, Note_on_c, 0, 52, 65
1, 739824, Note_on_c, 0, 60, 54
1, 739853, Note_off_c, 0, 52, 65
1, 739860, Note_off_c, 0, 60, 64
1, 739932, Note_on_c, 0, 54, 60
1, 739961, Note_off_c, 0, 54, 63
1, 740027, Note_on_c, 0, 52, 61
1, 740055, Note_on_c, 0, 60, 41
1, 740068, Note_off_c, 0, 52, 63
1, 740087, Note_off_c, 0, 60, 58
1, 740153, Note_on_c, 0, 56, 63
1, 740174, Note_off_c, 0, 56, 62
1, 740257, Note_on_c, 0, 52, 59
1, 740273, Note_on_c, 0, 60, 41
1, 740282, Note_off_c, 0, 52, 61
1, 740301, Note_off_c, 0, 60, 59
1, 740383, Note_on_c, 0, 54, 57
1, 740412, Note_off_c, 0, 54, 63
1, 740712, Note_on_c, 0, 80, 73
1, 740719, Note_on_c, 0, 68, 62
1, 740725, Note_on_c, 0, 62, 57
1, 740727, Note_on_c, 0, 72, 50
1, 740733, Note_on_c, 0, 78, 50
1, 740737, Note_off_c, 0, 80, 67
1, 740739, Note_off_c, 0, 68, 62
1, 740746, Note_off_c, 0, 62, 61
1, 740749, Note_off_c, 0, 72, 58
1, 740756, Note_off_c, 0, 78, 54
1, 740764, Control_c, 0, 67, 120
1, 740779, Control_c, 0, 67, 105
1, 740801, Control_c, 0, 67, 88
1, 740816, Control_c, 0, 67, 71
1, 740830, Control_c, 0, 67, 58
1, 740845, Control_c, 0, 67, 52
1, 740860, Control_c, 0, 67, 49
1, 740876, Control_c, 0, 67, 47
1, 740891, Control_c, 0, 67, 47
1, 740906, Control_c, 0, 67, 46
1, 740921, Control_c, 0, 67, 45
1, 741232, Note_on_c, 0, 61, 76
1, 741238, Note_on_c, 0, 41, 45
1, 741250, Note_on_c, 0, 49, 41
1, 741270, Note_on_c, 0, 59, 43
1, 741289, Note_off_c, 0, 49, 61
1, 741338, Note_off_c, 0, 59, 0
1, 741338, Note_on_c, 0, 59, 8
1, 741410, Control_c, 0, 67, 46
1, 741563, Note_on_c, 0, 49, 54
1, 741610, Control_c, 0, 67, 45
1, 741615, Note_off_c, 0, 49, 60
1, 741640, Control_c, 0, 67, 45
1, 741643, Note_on_c, 0, 48, 64
1, 741678, Note_off_c, 0, 48, 61
1, 741700, Control_c, 0, 67, 44
1, 741735, Note_on_c, 0, 49, 63
1, 741762, Note_off_c, 0, 49, 66
1, 741966, Control_c, 0, 67, 43
1, 741981, Control_c, 0, 67, 41
1, 741996, Control_c, 0, 64, 44
1, 741996, Control_c, 0, 67, 40
1, 742010, Control_c, 0, 64, 58
1, 742010, Control_c, 0, 67, 39
1, 742025, Control_c, 0, 64, 62
1, 742025, Control_c, 0, 67, 37
1, 742029, Note_on_c, 0, 49, 55
1, 742037, Note_off_c, 0, 59, 59
1, 742040, Control_c, 0, 64, 64
1, 742040, Control_c, 0, 67, 0
1, 742055, Control_c, 0, 64, 65
1, 742063, Note_off_c, 0, 41, 52
1, 742070, Control_c, 0, 64, 67
1, 742081, Note_off_c, 0, 49, 58
1, 742084, Control_c, 0, 64, 68
1, 742099, Control_c, 0, 64, 69
1, 742114, Control_c, 0, 64, 69
1, 742129, Control_c, 0, 64, 70
1, 742159, Control_c, 0, 64, 70
1, 742174, Control_c, 0, 64, 71
1, 742218, Control_c, 0, 64, 71
1, 742254, Note_on_c, 0, 62, 74
1, 742263, Control_c, 0, 64, 71
1, 742263, Note_on_c, 0, 42, 48
1, 742277, Control_c, 0, 64, 67
1, 742280, Note_on_c, 0, 49, 37
1, 742288, Note_on_c, 0, 57, 43
1, 742292, Control_c, 0, 64, 59
1, 742314, Control_c, 0, 64, 44
1, 742329, Control_c, 0, 64, 34
1, 742337, Note_off_c, 0, 61, 50
1, 742344, Note_off_c, 0, 49, 58
1, 742344, Control_c, 0, 64, 37
1, 742358, Control_c, 0, 64, 48
1, 742373, Control_c, 0, 64, 58
1, 742388, Control_c, 0, 64, 63
1, 742403, Control_c, 0, 64, 65
1, 742418, Control_c, 0, 64, 65
1, 742433, Control_c, 0, 64, 66
1, 742509, Note_on_c, 0, 64, 79
1, 742529, Note_on_c, 0, 49, 52
1, 742552, Note_off_c, 0, 62, 59
1, 742560, Note_off_c, 0, 57, 54
1, 742562, Note_off_c, 0, 42, 62
1, 742580, Note_off_c, 0, 49, 61
1, 742611, Note_on_c, 0, 66, 84
1, 742617, Note_off_c, 0, 64, 65
1, 742671, Control_c, 0, 64, 65
1, 742686, Control_c, 0, 64, 63
1, 742700, Note_off_c, 0, 66, 63
1, 742700, Control_c, 0, 64, 51
1, 742704, Note_on_c, 0, 64, 79
1, 742715, Control_c, 0, 64, 0
1, 742722, Note_on_c, 0, 44, 57
1, 742734, Note_on_c, 0, 59, 49
1, 742959, Note_on_c, 0, 49, 58
1, 743005, Note_off_c, 0, 49, 63
1, 743031, Note_on_c, 0, 48, 64
1, 743073, Note_off_c, 0, 48, 61
1, 743134, Note_on_c, 0, 49, 63
1, 743163, Note_off_c, 0, 49, 65
1, 743390, Control_c, 0, 64, 45
1, 743399, Note_off_c, 0, 59, 63
1, 743405, Note_on_c, 0, 49, 58
1, 743405, Control_c, 0, 64, 57
1, 743420, Control_c, 0, 64, 59
1, 743435, Control_c, 0, 64, 61
1, 743449, Control_c, 0, 64, 62
1, 743452, Note_off_c, 0, 49, 57
1, 743464, Control_c, 0, 64, 64
1, 743479, Control_c, 0, 64, 65
1, 743494, Control_c, 0, 64, 65
1, 743509, Control_c, 0, 64, 66
1, 743523, Control_c, 0, 64, 67
1, 743538, Control_c, 0, 64, 68
1, 743553, Control_c, 0, 64, 69
1, 743567, Control_c, 0, 64, 69
1, 743582, Control_c, 0, 64, 70
1, 743612, Control_c, 0, 64, 69
1, 743614, Note_off_c, 0, 64, 65
1, 743625, Note_on_c, 0, 66, 82
1, 743627, Control_c, 0, 64, 66
1, 743631, Note_off_c, 0, 44, 51
1, 743639, Note_on_c, 0, 45, 60
1, 743641, Control_c, 0, 64, 57
1, 743643, Note_on_c, 0, 61, 59
1, 743645, Note_on_c, 0, 49, 51
1, 743656, Control_c, 0, 64, 0
1, 743706, Note_off_c, 0, 49, 57
1, 743715, Control_c, 0, 64, 40
1, 743730, Control_c, 0, 64, 55
1, 743745, Control_c, 0, 64, 62
1, 743760, Control_c, 0, 64, 64
1, 743774, Control_c, 0, 64, 65
1, 743789, Control_c, 0, 64, 65
1, 743896, Note_on_c, 0, 68, 82
1, 743907, Note_off_c, 0, 61, 38
1, 743915, Note_on_c, 0, 49, 51
1, 743930, Note_off_c, 0, 66, 62
1, 743945, Note_off_c, 0, 49, 63
1, 743983, Note_on_c, 0, 69, 85
1, 743992, Note_off_c, 0, 68, 60
1, 744019, Control_c, 0, 64, 65
1, 744034, Control_c, 0, 64, 64
1, 744048, Control_c, 0, 64, 57
1, 744063, Control_c, 0, 64, 32
1, 744078, Control_c, 0, 64, 0
1, 744084, Note_off_c, 0, 69, 64
1, 744088, Note_on_c, 0, 68, 83
1, 744100, Note_on_c, 0, 47, 67
1, 744103, Note_on_c, 0, 62, 60
1, 744111, Note_on_c, 0, 49, 43
1, 744117, Note_off_c, 0, 45, 61
1, 744141, Note_off_c, 0, 49, 50
1, 744341, Note_on_c, 0, 49, 57
1, 744381, Note_off_c, 0, 49, 65
1, 744419, Note_on_c, 0, 48, 68
1, 744451, Note_off_c, 0, 48, 63
1, 744520, Note_on_c, 0, 49, 71
1, 744555, Note_off_c, 0, 49, 65
1, 744774, Note_off_c, 0, 62, 62
1, 744783, Control_c, 0, 64, 48
1, 744788, Note_on_c, 0, 49, 58
1, 744797, Control_c, 0, 64, 54
1, 744812, Control_c, 0, 64, 56
1, 744827, Control_c, 0, 64, 58
1, 744830, Note_off_c, 0, 49, 61
1, 744842, Control_c, 0, 64, 59
1, 744857, Control_c, 0, 64, 60
1, 744873, Control_c, 0, 64, 61
1, 744888, Control_c, 0, 64, 62
1, 744902, Control_c, 0, 64, 63
1, 744917, Control_c, 0, 64, 64
1, 744932, Control_c, 0, 64, 64
1, 744961, Control_c, 0, 64, 65
1, 744976, Control_c, 0, 64, 64
1, 744991, Control_c, 0, 64, 62
1, 744996, Note_on_c, 0, 66, 77
1, 745006, Control_c, 0, 64, 52
1, 745007, Note_on_c, 0, 45, 57
1, 745017, Note_on_c, 0, 61, 46
1, 745020, Control_c, 0, 64, 35
1, 745030, Note_on_c, 0, 49, 39
1, 745034, Note_off_c, 0, 68, 59
1, 745035, Note_off_c, 0, 47, 58
1, 745035, Control_c, 0, 64, 0
1, 745063, Note_off_c, 0, 49, 56
1, 745065, Control_c, 0, 64, 36
1, 745080, Control_c, 0, 64, 50
1, 745095, Control_c, 0, 64, 59
1, 745110, Control_c, 0, 64, 62
1, 745140, Control_c, 0, 64, 62
1, 745214, Control_c, 0, 64, 62
1, 745248, Note_off_c, 0, 66, 63
1, 745261, Note_on_c, 0, 49, 54
1, 745261, Note_on_c, 0, 68, 69
1, 745268, Note_off_c, 0, 61, 56
1, 745300, Note_off_c, 0, 49, 64
1, 745348, Note_off_c, 0, 68, 62
1, 745360, Note_on_c, 0, 66, 78
1, 745384, Control_c, 0, 64, 59
1, 745399, Control_c, 0, 64, 47
1, 745414, Control_c, 0, 64, 0
1, 745444, Note_off_c, 0, 66, 59
1, 745457, Note_on_c, 0, 64, 70
1, 745471, Note_off_c, 0, 45, 58
1, 745479, Note_on_c, 0, 44, 52
1, 745481, Note_on_c, 0, 59, 47
1, 745539, Note_off_c, 0, 59, 0
1, 745539, Note_on_c, 0, 59, 12
1, 745650, Control_c, 0, 67, 40
1, 745666, Control_c, 0, 67, 57
1, 745681, Control_c, 0, 67, 75
1, 745696, Control_c, 0, 67, 92
1, 745705, Note_on_c, 0, 49, 52
1, 745711, Control_c, 0, 67, 109
1, 745725, Control_c, 0, 67, 120
1, 745740, Control_c, 0, 67, 126
1, 745754, Note_off_c, 0, 49, 63
1, 745787, Note_on_c, 0, 48, 66
1, 745821, Note_off_c, 0, 48, 61
1, 745885, Note_on_c, 0, 49, 57
1, 745913, Note_off_c, 0, 49, 65
1, 746037, Control_c, 0, 67, 124
1, 746073, Control_c, 0, 67, 122
1, 746103, Control_c, 0, 67, 120
1, 746118, Control_c, 0, 64, 49
1, 746132, Control_c, 0, 64, 57
1, 746132, Control_c, 0, 67, 118
1, 746147, Control_c, 0, 64, 59
1, 746162, Control_c, 0, 64, 61
1, 746165, Note_on_c, 0, 49, 51
1, 746177, Control_c, 0, 64, 63
1, 746179, Note_off_c, 0, 59, 57
1, 746192, Control_c, 0, 64, 64
1, 746207, Control_c, 0, 64, 64
1, 746207, Control_c, 0, 67, 116
1, 746221, Note_off_c, 0, 49, 58
1, 746222, Control_c, 0, 64, 65
1, 746225, Note_off_c, 0, 44, 55
1, 746237, Control_c, 0, 64, 66
1, 746266, Control_c, 0, 64, 66
1, 746296, Control_c, 0, 64, 67
1, 746395, Note_on_c, 0, 62, 58
1, 746407, Note_on_c, 0, 42, 48
1, 746414, Control_c, 0, 64, 66
1, 746414, Control_c, 0, 67, 118
1, 746415, Note_on_c, 0, 49, 30
1, 746419, Note_off_c, 0, 64, 60
1, 746421, Note_on_c, 0, 57, 40
1, 746429, Control_c, 0, 64, 62
1, 746443, Control_c, 0, 64, 51
1, 746443, Control_c, 0, 67, 120
1, 746458, Control_c, 0, 64, 32
1, 746460, Note_off_c, 0, 49, 50
1, 746474, Control_c, 0, 64, 0
1, 746474, Control_c, 0, 67, 122
1, 746504, Control_c, 0, 67, 124
1, 746534, Control_c, 0, 64, 32
1, 746534, Control_c, 0, 67, 127
1, 746548, Control_c, 0, 64, 39
1, 746563, Control_c, 0, 64, 46
1, 746578, Control_c, 0, 64, 49
1, 746592, Control_c, 0, 64, 50
1, 746622, Control_c, 0, 64, 50
1, 746669, Note_off_c, 0, 62, 61
1, 746696, Note_on_c, 0, 49, 48
1, 746696, Note_on_c, 0, 64, 60
1, 746743, Note_off_c, 0, 49, 59
1, 746767, Note_off_c, 0, 64, 61
1, 746770, Control_c, 0, 64, 50
1, 746785, Control_c, 0, 64, 51
1, 746800, Note_on_c, 0, 62, 62
1, 746810, Note_off_c, 0, 42, 61
1, 746812, Note_off_c, 0, 57, 60
1, 746837, Control_c, 0, 64, 47
1, 746852, Control_c, 0, 64, 37
1, 746853, Note_off_c, 0, 62, 58
1, 746867, Control_c, 0, 64, 0
1, 746903, Note_on_c, 0, 61, 59
1, 746908, Note_on_c, 0, 41, 50
1, 746921, Note_on_c, 0, 59, 40
1, 746935, Note_off_c, 0, 61, 65
1, 746949, Note_off_c, 0, 59, 55
1, 746998, Poly_aftertouch_c, 0, 49, 0
1, 747156, Note_on_c, 0, 62, 63
1, 747160, Note_on_c, 0, 49, 36
1, 747199, Note_off_c, 0, 49, 60
1, 747206, Note_off_c, 0, 62, 56
1, 747246, Note_on_c, 0, 59, 61
1, 747248, Note_on_c, 0, 48, 42
1, 747284, Note_off_c, 0, 48, 50
1, 747323, Note_off_c, 0, 59, 63
1, 747334, Note_on_c, 0, 49, 43
1, 747348, Note_on_c, 0, 61, 50
1, 747373, Note_off_c, 0, 49, 63
1, 747519, Control_c, 0, 64, 40
1, 747534, Control_c, 0, 64, 52
1, 747556, Control_c, 0, 64, 57
1, 747571, Control_c, 0, 64, 59
1, 747577, Note_on_c, 0, 59, 64
1, 747578, Note_off_c, 0, 61, 63
1, 747584, Note_on_c, 0, 49, 52
1, 747586, Control_c, 0, 64, 60
1, 747601, Control_c, 0, 64, 60
1, 747603, Note_off_c, 0, 41, 61
1, 747616, Control_c, 0, 64, 61
1, 747616, Control_c, 0, 67, 116
1, 747622, Note_off_c, 0, 49, 62
1, 747630, Control_c, 0, 64, 61
1, 747630, Control_c, 0, 67, 101
1, 747645, Control_c, 0, 64, 62
1, 747645, Control_c, 0, 67, 86
1, 747653, Note_off_c, 0, 59, 60
1, 747660, Control_c, 0, 64, 62
1, 747660, Control_c, 0, 67, 75
1, 747675, Control_c, 0, 67, 69
1, 747676, Note_on_c, 0, 61, 74
1, 747690, Control_c, 0, 64, 63
1, 747690, Control_c, 0, 67, 64
1, 747704, Control_c, 0, 67, 60
1, 747719, Control_c, 0, 67, 58
1, 747735, Control_c, 0, 67, 56
1, 747749, Control_c, 0, 67, 55
1, 747764, Control_c, 0, 67, 54
1, 747773, Note_on_c, 0, 62, 74
1, 747775, Note_off_c, 0, 61, 56
1, 747779, Control_c, 0, 64, 62
1, 747781, Note_on_c, 0, 42, 53
1, 747794, Control_c, 0, 64, 59
1, 747794, Control_c, 0, 67, 54
1, 747805, Note_on_c, 0, 57, 47
1, 747809, Control_c, 0, 64, 50
1, 747823, Control_c, 0, 64, 31
1, 747823, Control_c, 0, 67, 53
1, 747838, Control_c, 0, 64, 0
1, 747868, Control_c, 0, 67, 53
1, 747897, Control_c, 0, 67, 52
1, 747912, Control_c, 0, 67, 51
1, 747927, Control_c, 0, 64, 30
1, 747927, Control_c, 0, 67, 50
1, 747942, Control_c, 0, 64, 45
1, 747942, Control_c, 0, 67, 49
1, 747957, Control_c, 0, 64, 54
1, 747957, Control_c, 0, 67, 47
1, 747972, Control_c, 0, 64, 58
1, 747972, Control_c, 0, 67, 46
1, 747986, Control_c, 0, 64, 59
1, 747986, Control_c, 0, 67, 0
1, 748001, Control_c, 0, 64, 59
1, 748022, Note_on_c, 0, 64, 78
1, 748026, Note_off_c, 0, 57, 58
1, 748031, Control_c, 0, 64, 60
1, 748037, Note_on_c, 0, 49, 49
1, 748046, Control_c, 0, 64, 61
1, 748056, Note_off_c, 0, 62, 61
1, 748076, Control_c, 0, 64, 61
1, 748081, Note_off_c, 0, 49, 61
1, 748082, Note_off_c, 0, 42, 62
1, 748091, Control_c, 0, 64, 62
1, 748106, Control_c, 0, 64, 62
1, 748120, Note_on_c, 0, 66, 86
1, 748120, Note_off_c, 0, 64, 65
1, 748195, Control_c, 0, 64, 58
1, 748210, Control_c, 0, 64, 41
1, 748212, Note_off_c, 0, 66, 62
1, 748219, Note_on_c, 0, 64, 80
1, 748225, Note_on_c, 0, 44, 62
1, 748225, Control_c, 0, 64, 0
1, 748230, Note_on_c, 0, 59, 69
1, 748244, Note_off_c, 0, 64, 66
1, 748466, Note_on_c, 0, 49, 58
1, 748469, Note_on_c, 0, 66, 77
1, 748520, Note_off_c, 0, 49, 61
1, 748546, Note_on_c, 0, 48, 62
1, 748558, Note_on_c, 0, 62, 76
1, 748562, Note_off_c, 0, 66, 63
1, 748592, Note_off_c, 0, 48, 58
1, 748636, Note_on_c, 0, 49, 61
1, 748657, Note_off_c, 0, 62, 61
1, 748662, Note_on_c, 0, 64, 79
1, 748674, Note_off_c, 0, 49, 64
1, 748869, Control_c, 0, 64, 45
1, 748884, Control_c, 0, 64, 54
1, 748899, Control_c, 0, 64, 58
1, 748905, Note_on_c, 0, 62, 81
1, 748905, Note_off_c, 0, 64, 65
1, 748905, Note_on_c, 0, 49, 56
1, 748913, Control_c, 0, 64, 60
1, 748928, Control_c, 0, 64, 61
1, 748934, Note_off_c, 0, 59, 45
1, 748943, Control_c, 0, 64, 63
1, 748946, Note_off_c, 0, 49, 61
1, 748958, Control_c, 0, 64, 64
1, 748973, Control_c, 0, 64, 66
1, 748980, Note_off_c, 0, 62, 63
1, 748987, Note_on_c, 0, 64, 89
1, 748987, Control_c, 0, 64, 67
1, 749002, Control_c, 0, 64, 69
1, 749017, Control_c, 0, 64, 70
1, 749048, Note_off_c, 0, 64, 66
1, 749054, Control_c, 0, 64, 70
1, 749073, Note_off_c, 0, 44, 51
1, 749095, Note_on_c, 0, 66, 88
1, 749098, Control_c, 0, 64, 69
1, 749100, Note_on_c, 0, 45, 66
1, 749113, Control_c, 0, 64, 62
1, 749119, Note_on_c, 0, 49, 49
1, 749122, Note_on_c, 0, 61, 53
1, 749128, Control_c, 0, 64, 44
1, 749143, Control_c, 0, 64, 0
1, 749160, Note_off_c, 0, 49, 61
1, 749261, Control_c, 0, 64, 37
1, 749276, Control_c, 0, 64, 55
1, 749291, Control_c, 0, 64, 58
1, 749306, Control_c, 0, 64, 59
1, 749320, Control_c, 0, 64, 59
1, 749325, Note_off_c, 0, 61, 49
1, 749335, Control_c, 0, 64, 60
1, 749340, Note_on_c, 0, 68, 82
1, 749350, Control_c, 0, 64, 61
1, 749357, Note_on_c, 0, 49, 63
1, 749365, Control_c, 0, 64, 62
1, 749392, Note_off_c, 0, 66, 55
1, 749394, Note_off_c, 0, 49, 63
1, 749394, Control_c, 0, 64, 62
1, 749439, Control_c, 0, 64, 63
1, 749444, Note_on_c, 0, 69, 89
1, 749460, Note_off_c, 0, 68, 63
1, 749542, Control_c, 0, 64, 61
1, 749557, Note_on_c, 0, 68, 85
1, 749557, Control_c, 0, 64, 50
1, 749562, Note_off_c, 0, 69, 64
1, 749572, Control_c, 0, 64, 0
1, 749578, Note_on_c, 0, 47, 64
1, 749586, Note_on_c, 0, 62, 56
1, 749587, Note_off_c, 0, 45, 62
1, 749609, Note_off_c, 0, 68, 62
1, 749855, Note_on_c, 0, 49, 62
1, 749861, Note_on_c, 0, 69, 75
1, 749918, Note_off_c, 0, 49, 63
1, 749926, Note_off_c, 0, 69, 62
1, 749934, Note_on_c, 0, 66, 77
1, 749951, Note_on_c, 0, 48, 59
1, 749990, Note_off_c, 0, 48, 58
1, 750051, Note_on_c, 0, 68, 71
1, 750055, Note_on_c, 0, 49, 56
1, 750085, Note_off_c, 0, 49, 63
1, 750087, Note_off_c, 0, 66, 55
1, 750273, Note_off_c, 0, 68, 58
1, 750288, Note_on_c, 0, 49, 53
1, 750291, Control_c, 0, 64, 40
1, 750297, Note_on_c, 0, 69, 65
1, 750299, Note_off_c, 0, 62, 63
1, 750306, Control_c, 0, 64, 39
1, 750320, Note_off_c, 0, 49, 64
1, 750335, Control_c, 0, 64, 40
1, 750350, Control_c, 0, 64, 42
1, 750365, Control_c, 0, 64, 44
1, 750370, Note_off_c, 0, 69, 60
1, 750380, Control_c, 0, 64, 46
1, 750386, Note_on_c, 0, 68, 74
1, 750395, Control_c, 0, 64, 49
1, 750410, Control_c, 0, 64, 51
1, 750425, Control_c, 0, 64, 52
1, 750455, Control_c, 0, 64, 50
1, 750470, Control_c, 0, 64, 41
1, 750472, Note_off_c, 0, 68, 61
1, 750485, Control_c, 0, 64, 0
1, 750493, Note_on_c, 0, 66, 66
1, 750505, Note_on_c, 0, 45, 51
1, 750514, Note_on_c, 0, 61, 47
1, 750517, Note_off_c, 0, 47, 49
1, 750592, Poly_aftertouch_c, 0, 49, 0
1, 750596, Control_c, 0, 64, 30
1, 750611, Control_c, 0, 64, 39
1, 750626, Control_c, 0, 64, 44
1, 750640, Control_c, 0, 64, 45
1, 750700, Control_c, 0, 64, 44
1, 750714, Control_c, 0, 64, 44
1, 750730, Control_c, 0, 64, 43
1, 750733, Note_off_c, 0, 66, 62
1, 750741, Note_on_c, 0, 49, 55
1, 750745, Control_c, 0, 64, 42
1, 750756, Note_on_c, 0, 68, 66
1, 750774, Note_off_c, 0, 49, 64
1, 750777, Note_off_c, 0, 61, 54
1, 750819, Control_c, 0, 64, 42
1, 750823, Note_off_c, 0, 68, 63
1, 750833, Control_c, 0, 64, 43
1, 750845, Note_on_c, 0, 66, 72
1, 750848, Control_c, 0, 64, 44
1, 750863, Control_c, 0, 64, 45
1, 750878, Control_c, 0, 64, 47
1, 750908, Control_c, 0, 64, 46
1, 750923, Control_c, 0, 64, 41
1, 750929, Note_off_c, 0, 66, 55
1, 750938, Control_c, 0, 64, 0
1, 750946, Note_on_c, 0, 64, 68
1, 750960, Note_on_c, 0, 44, 62
1, 750963, Note_off_c, 0, 45, 59
1, 750970, Note_on_c, 0, 59, 50
1, 750977, Note_off_c, 0, 64, 65
1, 751056, Control_c, 0, 67, 40
1, 751071, Control_c, 0, 67, 53
1, 751085, Control_c, 0, 67, 66
1, 751100, Control_c, 0, 67, 74
1, 751115, Control_c, 0, 67, 77
1, 751130, Control_c, 0, 67, 78
1, 751145, Control_c, 0, 67, 79
1, 751204, Control_c, 0, 67, 79
1, 751206, Note_on_c, 0, 66, 65
1, 751214, Note_on_c, 0, 49, 62
1, 751233, Control_c, 0, 67, 81
1, 751248, Control_c, 0, 67, 82
1, 751262, Note_off_c, 0, 66, 60
1, 751264, Control_c, 0, 67, 83
1, 751267, Note_off_c, 0, 49, 61
1, 751270, Note_on_c, 0, 62, 60
1, 751279, Control_c, 0, 67, 84
1, 751301, Control_c, 0, 67, 89
1, 751313, Note_on_c, 0, 48, 56
1, 751316, Control_c, 0, 67, 107
1, 751331, Control_c, 0, 67, 118
1, 751346, Control_c, 0, 67, 121
1, 751358, Note_off_c, 0, 48, 61
1, 751397, Note_on_c, 0, 49, 61
1, 751400, Note_on_c, 0, 64, 65
1, 751400, Note_off_c, 0, 62, 60
1, 751426, Note_off_c, 0, 49, 63
1, 751435, Control_c, 0, 67, 119
1, 751464, Control_c, 0, 67, 117
1, 751494, Control_c, 0, 67, 115
1, 751523, Control_c, 0, 67, 113
1, 751597, Control_c, 0, 67, 111
1, 751626, Note_on_c, 0, 49, 76
1, 751627, Control_c, 0, 64, 42
1, 751637, Note_off_c, 0, 64, 61
1, 751642, Control_c, 0, 64, 51
1, 751642, Control_c, 0, 67, 109
1, 751652, Note_on_c, 0, 66, 68
1, 751656, Note_off_c, 0, 49, 65
1, 751657, Control_c, 0, 64, 54
1, 751671, Control_c, 0, 64, 55
1, 751677, Note_off_c, 0, 44, 63
1, 751686, Control_c, 0, 64, 57
1, 751686, Control_c, 0, 67, 107
1, 751701, Control_c, 0, 64, 58
1, 751716, Control_c, 0, 64, 58
1, 751730, Control_c, 0, 64, 59
1, 751742, Note_off_c, 0, 59, 58
1, 751745, Control_c, 0, 64, 60
1, 751748, Note_off_c, 0, 66, 51
1, 751751, Note_on_c, 0, 64, 67
1, 751760, Control_c, 0, 64, 61
1, 751775, Control_c, 0, 64, 61
1, 751820, Control_c, 0, 67, 109
1, 751864, Control_c, 0, 64, 60
1, 751864, Control_c, 0, 67, 111
1, 751865, Note_off_c, 0, 64, 54
1, 751873, Note_on_c, 0, 62, 61
1, 751879, Control_c, 0, 64, 53
1, 751879, Note_on_c, 0, 42, 53
1, 751890, Note_on_c, 0, 49, 38
1, 751894, Control_c, 0, 64, 36
1, 751894, Control_c, 0, 67, 113
1, 751906, Note_on_c, 0, 57, 38
1, 751908, Control_c, 0, 64, 0
1, 751923, Note_off_c, 0, 49, 52
1, 751938, Control_c, 0, 67, 115
1, 752065, Control_c, 0, 67, 117
1, 752094, Control_c, 0, 67, 119
1, 752109, Control_c, 0, 67, 122
1, 752124, Control_c, 0, 67, 124
1, 752136, Note_off_c, 0, 62, 50
1, 752139, Control_c, 0, 67, 126
1, 752163, Note_on_c, 0, 49, 46
1, 752164, Note_on_c, 0, 64, 63
1, 752210, Note_off_c, 0, 49, 58
1, 752220, Note_off_c, 0, 64, 55
1, 752302, Note_on_c, 0, 62, 57
1, 752318, Note_off_c, 0, 57, 55
1, 752369, Note_off_c, 0, 42, 38
1, 752426, Note_off_c, 0, 62, 59
1, 752478, Note_on_c, 0, 41, 46
1, 752482, Note_on_c, 0, 61, 53
1, 752483, Note_on_c, 0, 49, 47
1, 752497, Note_on_c, 0, 59, 46
1, 752513, Note_off_c, 0, 41, 65
1, 752523, Control_c, 0, 64, 48
1, 752538, Note_off_c, 0, 59, 54
1, 752538, Control_c, 0, 64, 62
1, 752542, Note_off_c, 0, 49, 62
1, 752549, Note_off_c, 0, 61, 63
1, 752553, Control_c, 0, 64, 64
1, 752568, Control_c, 0, 64, 65
1, 752583, Control_c, 0, 64, 67
1, 752598, Control_c, 0, 64, 69
1, 752612, Control_c, 0, 64, 70
1, 752627, Control_c, 0, 64, 71
1, 752642, Control_c, 0, 64, 72
1, 752656, Control_c, 0, 64, 72
1, 752671, Control_c, 0, 64, 73
1, 752686, Control_c, 0, 64, 73
1, 752760, Control_c, 0, 64, 73
1, 752768, Note_on_c, 0, 80, 81
1, 752771, Note_on_c, 0, 71, 79
1, 752782, Note_on_c, 0, 78, 69
1, 752783, Control_c, 0, 64, 68
1, 752797, Note_off_c, 0, 80, 69
1, 752798, Control_c, 0, 64, 55
1, 752798, Note_off_c, 0, 78, 64
1, 752800, Note_off_c, 0, 71, 70
1, 752812, Control_c, 0, 64, 0
1, 752865, Note_on_c, 0, 74, 65
1, 752878, Note_on_c, 0, 73, 52
1, 752887, Note_on_c, 0, 68, 40
1, 752904, Note_off_c, 0, 74, 62
1, 752911, Note_off_c, 0, 73, 62
1, 752914, Note_off_c, 0, 68, 57
1, 752975, Note_on_c, 0, 80, 71
1, 752985, Note_on_c, 0, 71, 55
1, 753000, Note_off_c, 0, 80, 68
1, 753003, Note_on_c, 0, 78, 31
1, 753008, Note_off_c, 0, 71, 58
1, 753038, Note_off_c, 0, 78, 32
1, 753084, Note_on_c, 0, 74, 52
1, 753087, Note_on_c, 0, 73, 48
1, 753090, Note_on_c, 0, 68, 42
1, 753111, Note_off_c, 0, 74, 57
1, 753120, Note_off_c, 0, 73, 62
1, 753123, Note_off_c, 0, 68, 60
1, 753185, Note_on_c, 0, 80, 66
1, 753203, Note_on_c, 0, 71, 42
1, 753211, Note_off_c, 0, 80, 69
1, 753233, Note_off_c, 0, 71, 51
1, 753282, Note_on_c, 0, 74, 57
1, 753288, Note_on_c, 0, 68, 40
1, 753288, Note_on_c, 0, 73, 49
1, 753315, Note_off_c, 0, 74, 61
1, 753322, Note_off_c, 0, 68, 56
1, 753323, Note_off_c, 0, 73, 62
1, 753398, Note_on_c, 0, 80, 56
1, 753409, Note_on_c, 0, 71, 35
1, 753414, Note_on_c, 0, 78, 23
1, 753417, Note_off_c, 0, 80, 64
1, 753444, Note_off_c, 0, 71, 50
1, 753453, Note_off_c, 0, 78, 29
1, 753620, Note_on_c, 0, 83, 68
1, 753621, Note_on_c, 0, 74, 62
1, 753628, Note_on_c, 0, 71, 60
1, 753647, Note_off_c, 0, 74, 63
1, 753658, Note_off_c, 0, 71, 64
1, 753664, Note_off_c, 0, 83, 57
1, 753716, Note_on_c, 0, 80, 66
1, 753757, Note_off_c, 0, 80, 61
1, 753826, Note_on_c, 0, 78, 68
1, 753832, Note_on_c, 0, 86, 67
1, 753840, Note_on_c, 0, 74, 58
1, 753852, Note_off_c, 0, 78, 64
1, 753858, Note_off_c, 0, 86, 64
1, 753859, Note_off_c, 0, 74, 62
1, 753939, Note_on_c, 0, 80, 60
1, 753960, Note_off_c, 0, 80, 62
1, 754055, Note_on_c, 0, 76, 60
1, 754055, Note_on_c, 0, 80, 62
1, 754067, Note_on_c, 0, 86, 63
1, 754082, Note_off_c, 0, 80, 66
1, 754091, Note_off_c, 0, 76, 62
1, 754091, Note_off_c, 0, 86, 66
1, 754175, Note_on_c, 0, 78, 64
1, 754211, Note_off_c, 0, 78, 54
1, 754345, Note_on_c, 0, 90, 80
1, 754351, Note_on_c, 0, 86, 66
1, 754352, Note_on_c, 0, 80, 59
1, 754357, Note_on_c, 0, 83, 48
1, 754365, Note_off_c, 0, 90, 71
1, 754368, Note_off_c, 0, 86, 66
1, 754376, Note_off_c, 0, 80, 65
1, 754379, Note_off_c, 0, 83, 57
1, 754398, Control_c, 0, 67, 111
1, 754413, Control_c, 0, 67, 53
1, 754428, Control_c, 0, 67, 0
1, 754621, Control_c, 0, 64, 32
1, 754636, Control_c, 0, 64, 40
1, 754651, Control_c, 0, 64, 50
1, 754666, Control_c, 0, 64, 57
1, 754678, Note_on_c, 0, 80, 90
1, 754680, Control_c, 0, 64, 61
1, 754681, Note_on_c, 0, 56, 84
1, 754681, Note_on_c, 0, 68, 80
1, 754695, Control_c, 0, 64, 63
1, 754709, Note_off_c, 0, 68, 61
1, 754710, Control_c, 0, 64, 66
1, 754723, Note_off_c, 0, 80, 60
1, 754724, Control_c, 0, 64, 68
1, 754739, Control_c, 0, 64, 72
1, 754754, Control_c, 0, 64, 76
1, 754761, Note_on_c, 0, 81, 97
1, 754766, Note_off_c, 0, 56, 60
1, 754769, Control_c, 0, 64, 79
1, 754771, Note_on_c, 0, 57, 81
1, 754771, Note_on_c, 0, 69, 85
1, 754784, Control_c, 0, 64, 80
1, 754798, Control_c, 0, 64, 81
1, 754804, Note_off_c, 0, 69, 62
1, 754811, Note_off_c, 0, 81, 66
1, 754828, Control_c, 0, 64, 78
1, 754843, Control_c, 0, 64, 67
1, 754847, Note_off_c, 0, 57, 65
1, 754857, Control_c, 0, 64, 40
1, 754860, Note_on_c, 0, 83, 100
1, 754866, Note_on_c, 0, 71, 98
1, 754869, Note_on_c, 0, 59, 94
1, 754872, Control_c, 0, 64, 0
1, 754932, Control_c, 0, 64, 46
1, 754947, Control_c, 0, 64, 62
1, 754962, Control_c, 0, 64, 66
1, 754977, Control_c, 0, 64, 71
1, 754992, Control_c, 0, 64, 77
1, 754998, Note_off_c, 0, 71, 60
1, 755006, Control_c, 0, 64, 88
1, 755012, Note_off_c, 0, 59, 61
1, 755021, Control_c, 0, 64, 127
1, 755043, Note_off_c, 0, 83, 64
1, 755117, Control_c, 0, 64, 91
1, 755132, Note_on_c, 0, 85, 102
1, 755132, Control_c, 0, 64, 60
1, 755134, Note_on_c, 0, 73, 98
1, 755146, Note_on_c, 0, 61, 89
1, 755147, Control_c, 0, 64, 0
1, 755176, Control_c, 0, 64, 41
1, 755191, Control_c, 0, 64, 66
1, 755206, Control_c, 0, 64, 77
1, 755207, Note_off_c, 0, 73, 61
1, 755215, Note_off_c, 0, 85, 65
1, 755221, Control_c, 0, 64, 87
1, 755236, Control_c, 0, 64, 88
1, 755248, Note_on_c, 0, 62, 89
1, 755257, Note_off_c, 0, 61, 63
1, 755263, Note_on_c, 0, 86, 104
1, 755270, Note_on_c, 0, 74, 99
1, 755289, Note_off_c, 0, 62, 63
1, 755302, Note_off_c, 0, 74, 60
1, 755340, Control_c, 0, 64, 89
1, 755350, Note_on_c, 0, 76, 82
1, 755355, Control_c, 0, 64, 90
1, 755358, Note_on_c, 0, 47, 84
1, 755370, Control_c, 0, 64, 95
1, 755374, Note_off_c, 0, 86, 64
1, 755385, Control_c, 0, 64, 105
1, 755400, Control_c, 0, 64, 127
1, 755412, Note_on_c, 0, 54, 81
1, 755420, Note_on_c, 0, 78, 70
1, 755433, Note_off_c, 0, 47, 59
1, 755436, Note_on_c, 0, 57, 65
1, 755436, Note_on_c, 0, 81, 76
1, 755474, Control_c, 0, 64, 99
1, 755483, Note_on_c, 0, 88, 104
1, 755488, Control_c, 0, 64, 62
1, 755493, Note_on_c, 0, 64, 94
1, 755503, Control_c, 0, 64, 0
1, 755547, Control_c, 0, 64, 54
1, 755562, Control_c, 0, 64, 71
1, 755577, Control_c, 0, 64, 81
1, 755591, Note_off_c, 0, 64, 64
1, 755592, Control_c, 0, 64, 90
1, 755599, Note_off_c, 0, 54, 60
1, 755603, Note_off_c, 0, 88, 57
1, 755607, Control_c, 0, 64, 92
1, 755609, Note_off_c, 0, 76, 63
1, 755613, Note_off_c, 0, 57, 63
1, 755621, Control_c, 0, 64, 92
1, 755696, Note_off_c, 0, 81, 61
1, 755723, Note_off_c, 0, 78, 61
1, 755766, Note_on_c, 0, 86, 92
1, 755768, Note_on_c, 0, 62, 81
1, 755768, Note_on_c, 0, 74, 93
1, 755805, Note_off_c, 0, 74, 64
1, 755814, Note_off_c, 0, 86, 65
1, 755824, Note_off_c, 0, 62, 62
1, 755885, Note_on_c, 0, 85, 97
1, 755896, Note_on_c, 0, 73, 76
1, 755898, Note_on_c, 0, 61, 79
1, 755910, Note_on_c, 0, 75, 53
1, 755921, Note_off_c, 0, 73, 65
1, 755931, Note_off_c, 0, 75, 60
1, 755938, Note_off_c, 0, 85, 63
1, 755968, Note_off_c, 0, 61, 57
1, 755996, Note_on_c, 0, 83, 97
1, 755999, Note_on_c, 0, 71, 94
1, 756011, Note_on_c, 0, 59, 80
1, 756022, Note_off_c, 0, 71, 66
1, 756035, Note_off_c, 0, 83, 65
1, 756044, Control_c, 0, 64, 93
1, 756089, Control_c, 0, 64, 93
1, 756091, Note_on_c, 0, 85, 94
1, 756092, Note_on_c, 0, 73, 88
1, 756103, Control_c, 0, 64, 94
1, 756118, Control_c, 0, 64, 95
1, 756136, Note_off_c, 0, 59, 62
1, 756144, Note_off_c, 0, 85, 64
1, 756145, Note_on_c, 0, 62, 57
1, 756145, Note_off_c, 0, 73, 64
1, 756148, Control_c, 0, 64, 97
1, 756167, Note_on_c, 0, 61, 34
1, 756173, Note_off_c, 0, 62, 64
1, 756199, Note_on_c, 0, 86, 100
1, 756201, Note_off_c, 0, 61, 46
1, 756208, Note_on_c, 0, 74, 84
1, 756227, Note_on_c, 0, 76, 60
1, 756230, Note_off_c, 0, 74, 69
1, 756238, Control_c, 0, 64, 99
1, 756241, Note_off_c, 0, 86, 65
1, 756245, Note_off_c, 0, 76, 65
1, 756254, Note_on_c, 0, 49, 79
1, 756282, Control_c, 0, 64, 103
1, 756294, Note_on_c, 0, 71, 100
1, 756294, Note_on_c, 0, 83, 98
1, 756297, Control_c, 0, 64, 108
1, 756311, Control_c, 0, 64, 120
1, 756326, Control_c, 0, 64, 127
1, 756336, Note_off_c, 0, 71, 66
1, 756344, Note_on_c, 0, 59, 61
1, 756348, Note_off_c, 0, 83, 64
1, 756356, Note_off_c, 0, 49, 62
1, 756369, Note_on_c, 0, 58, 38
1, 756399, Note_off_c, 0, 58, 33
1, 756400, Control_c, 0, 64, 86
1, 756415, Control_c, 0, 64, 50
1, 756424, Note_on_c, 0, 77, 64
1, 756428, Note_on_c, 0, 65, 79
1, 756429, Note_on_c, 0, 85, 96
1, 756429, Note_off_c, 0, 59, 67
1, 756430, Control_c, 0, 64, 0
1, 756431, Note_on_c, 0, 73, 86
1, 756474, Control_c, 0, 64, 37
1, 756489, Control_c, 0, 64, 62
1, 756494, Note_off_c, 0, 65, 63
1, 756503, Control_c, 0, 64, 72
1, 756526, Control_c, 0, 64, 84
1, 756541, Control_c, 0, 64, 90
1, 756556, Control_c, 0, 64, 96
1, 756571, Control_c, 0, 64, 104
1, 756585, Control_c, 0, 64, 112
1, 756592, Note_off_c, 0, 85, 58
1, 756600, Control_c, 0, 64, 120
1, 756610, Note_off_c, 0, 73, 57
1, 756615, Control_c, 0, 64, 127
1, 756669, Note_off_c, 0, 77, 61
1, 756716, Note_on_c, 0, 73, 78
1, 756724, Note_on_c, 0, 83, 96
1, 756727, Note_on_c, 0, 71, 87
1, 756736, Note_off_c, 0, 73, 71
1, 756760, Note_off_c, 0, 71, 61
1, 756770, Note_off_c, 0, 83, 64
1, 756870, Note_on_c, 0, 81, 93
1, 756878, Note_on_c, 0, 69, 82
1, 756902, Note_off_c, 0, 69, 65
1, 756913, Note_off_c, 0, 81, 63
1, 757000, Note_on_c, 0, 68, 63
1, 757019, Note_off_c, 0, 68, 64
1, 757045, Control_c, 0, 64, 87
1, 757060, Control_c, 0, 64, 60
1, 757065, Note_on_c, 0, 80, 91
1, 757066, Note_on_c, 0, 42, 82
1, 757069, Note_on_c, 0, 49, 86
1, 757075, Control_c, 0, 64, 0
1, 757085, Note_on_c, 0, 73, 66
1, 757086, Note_on_c, 0, 69, 63
1, 757093, Note_on_c, 0, 68, 54
1, 757095, Note_on_c, 0, 70, 45
1, 757104, Note_off_c, 0, 42, 65
1, 757111, Note_off_c, 0, 49, 63
1, 757120, Control_c, 0, 64, 50
1, 757130, Note_off_c, 0, 70, 48
1, 757134, Control_c, 0, 64, 66
1, 757135, Note_off_c, 0, 80, 65
1, 757136, Note_off_c, 0, 68, 57
1, 757149, Control_c, 0, 64, 71
1, 757164, Control_c, 0, 64, 75
1, 757179, Control_c, 0, 64, 76
1, 757194, Control_c, 0, 64, 77
1, 757257, Note_off_c, 0, 69, 31
1, 757286, Note_off_c, 0, 73, 58
1, 757320, Note_on_c, 0, 61, 79
1, 757326, Note_on_c, 0, 78, 87
1, 757331, Note_on_c, 0, 66, 72
1, 757353, Note_off_c, 0, 78, 60
1, 757356, Note_off_c, 0, 66, 70
1, 757360, Note_off_c, 0, 61, 62
1, 757369, Note_on_c, 0, 62, 72
1, 757401, Note_off_c, 0, 62, 60
1, 757422, Note_on_c, 0, 76, 90
1, 757424, Note_on_c, 0, 61, 68
1, 757438, Control_c, 0, 64, 77
1, 757439, Note_on_c, 0, 64, 67
1, 757449, Note_off_c, 0, 61, 66
1, 757463, Note_off_c, 0, 64, 65
1, 757468, Control_c, 0, 64, 78
1, 757471, Note_off_c, 0, 76, 63
1, 757481, Note_on_c, 0, 62, 72
1, 757483, Control_c, 0, 64, 78
1, 757498, Control_c, 0, 64, 78
1, 757504, Note_off_c, 0, 62, 70
1, 757513, Control_c, 0, 64, 72
1, 757515, Note_on_c, 0, 61, 88
1, 757527, Control_c, 0, 64, 57
1, 757533, Note_on_c, 0, 74, 86
1, 757535, Note_off_c, 0, 61, 70
1, 757542, Control_c, 0, 64, 0
1, 757543, Note_on_c, 0, 66, 68
1, 757561, Note_on_c, 0, 62, 50
1, 757601, Control_c, 0, 64, 37
1, 757607, Note_off_c, 0, 62, 44
1, 757616, Control_c, 0, 64, 49
1, 757631, Control_c, 0, 64, 54
1, 757647, Control_c, 0, 64, 56
1, 757662, Control_c, 0, 64, 57
1, 757676, Note_off_c, 0, 74, 61
1, 757676, Control_c, 0, 64, 58
1, 757691, Control_c, 0, 64, 61
1, 757706, Control_c, 0, 64, 63
1, 757721, Control_c, 0, 64, 64
1, 757736, Control_c, 0, 64, 65
1, 757743, Note_on_c, 0, 73, 80
1, 757745, Note_on_c, 0, 61, 83
1, 757750, Control_c, 0, 64, 66
1, 757755, Note_off_c, 0, 66, 57
1, 757765, Control_c, 0, 64, 68
1, 757774, Note_off_c, 0, 61, 65
1, 757779, Note_off_c, 0, 73, 61
1, 757780, Control_c, 0, 64, 70
1, 757795, Control_c, 0, 64, 72
1, 757810, Control_c, 0, 64, 74
1, 757824, Control_c, 0, 64, 75
1, 757834, Note_on_c, 0, 71, 87
1, 757839, Control_c, 0, 64, 76
1, 757854, Control_c, 0, 64, 76
1, 757874, Note_on_c, 0, 59, 36
1, 757883, Note_off_c, 0, 71, 63
1, 757898, Control_c, 0, 64, 71
1, 757906, Note_off_c, 0, 59, 52
1, 757913, Control_c, 0, 64, 58
1, 757928, Control_c, 0, 64, 0
1, 757951, Note_on_c, 0, 49, 68
1, 757951, Note_on_c, 0, 69, 84
1, 757952, Note_on_c, 0, 42, 64
1, 757962, Note_on_c, 0, 65, 64
1, 757980, Note_off_c, 0, 42, 62
1, 757983, Note_off_c, 0, 49, 64
1, 757984, Note_on_c, 0, 59, 54
1, 757987, Control_c, 0, 64, 46
1, 757990, Note_on_c, 0, 57, 45
1, 757991, Note_off_c, 0, 65, 65
1, 758002, Control_c, 0, 64, 62
1, 758013, Note_off_c, 0, 59, 52
1, 758017, Note_off_c, 0, 57, 56
1, 758017, Control_c, 0, 64, 66
1, 758039, Control_c, 0, 64, 69
1, 758054, Control_c, 0, 64, 70
1, 758069, Control_c, 0, 64, 71
1, 758083, Control_c, 0, 64, 71
1, 758098, Control_c, 0, 64, 72
1, 758118, Note_off_c, 0, 69, 62
1, 758169, Note_on_c, 0, 62, 75
1, 758172, Note_on_c, 0, 68, 78
1, 758175, Note_on_c, 0, 56, 71
1, 758190, Note_off_c, 0, 62, 65
1, 758199, Note_off_c, 0, 56, 63
1, 758214, Note_off_c, 0, 68, 52
1, 758232, Control_c, 0, 64, 72
1, 758262, Control_c, 0, 64, 73
1, 758269, Note_on_c, 0, 69, 91
1, 758276, Control_c, 0, 64, 73
1, 758277, Note_on_c, 0, 57, 67
1, 758291, Control_c, 0, 64, 75
1, 758295, Note_off_c, 0, 57, 65
1, 758306, Note_off_c, 0, 69, 64
1, 758306, Control_c, 0, 64, 76
1, 758321, Control_c, 0, 64, 78
1, 758336, Control_c, 0, 64, 78
1, 758365, Control_c, 0, 64, 76
1, 758380, Control_c, 0, 64, 67
1, 758395, Control_c, 0, 64, 50
1, 758410, Control_c, 0, 64, 0
1, 758429, Note_on_c, 0, 42, 72
1, 758430, Note_on_c, 0, 80, 91
1, 758436, Note_on_c, 0, 49, 74
1, 758436, Note_on_c, 0, 70, 44
1, 758439, Control_c, 0, 64, 31
1, 758455, Control_c, 0, 64, 54
1, 758458, Note_off_c, 0, 42, 66
1, 758462, Note_off_c, 0, 49, 66
1, 758464, Note_on_c, 0, 73, 51
1, 758470, Control_c, 0, 64, 64
1, 758471, Note_on_c, 0, 69, 29
1, 758485, Control_c, 0, 64, 68
1, 758499, Control_c, 0, 64, 71
1, 758507, Note_off_c, 0, 80, 63
1, 758514, Control_c, 0, 64, 72
1, 758529, Control_c, 0, 64, 72
1, 758559, Control_c, 0, 64, 73
1, 758573, Control_c, 0, 64, 73
1, 758587, Note_off_c, 0, 70, 31
1, 758610, Note_off_c, 0, 69, 39
1, 758633, Note_off_c, 0, 73, 58
1, 758658, Note_on_c, 0, 61, 78
1, 758667, Note_on_c, 0, 78, 84
1, 758691, Note_on_c, 0, 66, 54
1, 758696, Note_off_c, 0, 61, 62
1, 758697, Note_off_c, 0, 78, 63
1, 758712, Note_off_c, 0, 66, 59
1, 758714, Note_on_c, 0, 62, 71
1, 758736, Control_c, 0, 64, 74
1, 758756, Note_off_c, 0, 62, 63
1, 758759, Note_on_c, 0, 61, 66
1, 758763, Note_on_c, 0, 76, 87
1, 758766, Control_c, 0, 64, 75
1, 758788, Control_c, 0, 64, 75
1, 758791, Note_off_c, 0, 61, 67
1, 758792, Note_on_c, 0, 64, 56
1, 758803, Control_c, 0, 64, 76
1, 758813, Note_off_c, 0, 64, 61
1, 758816, Note_off_c, 0, 76, 63
1, 758832, Control_c, 0, 64, 76
1, 758847, Control_c, 0, 64, 70
1, 758848, Note_on_c, 0, 62, 54
1, 758858, Note_on_c, 0, 61, 84
1, 758862, Control_c, 0, 64, 55
1, 758876, Note_on_c, 0, 74, 82
1, 758877, Control_c, 0, 64, 0
1, 758879, Note_off_c, 0, 61, 71
1, 758885, Note_on_c, 0, 66, 68
1, 758900, Note_off_c, 0, 62, 0
1, 758921, Control_c, 0, 64, 34
1, 758936, Control_c, 0, 64, 52
1, 758937, Poly_aftertouch_c, 0, 62, 127
1, 758951, Control_c, 0, 64, 62
1, 758965, Control_c, 0, 64, 64
1, 758978, Poly_aftertouch_c, 0, 62, 0
1, 758980, Control_c, 0, 64, 65
1, 759017, Note_off_c, 0, 74, 57
1, 759039, Control_c, 0, 64, 65
1, 759054, Control_c, 0, 64, 66
1, 759069, Control_c, 0, 64, 67
1, 759084, Control_c, 0, 64, 69
1, 759087, Note_on_c, 0, 73, 77
1, 759088, Note_on_c, 0, 61, 83
1, 759098, Control_c, 0, 64, 70
1, 759101, Note_off_c, 0, 66, 63
1, 759109, Note_off_c, 0, 73, 66
1, 759113, Control_c, 0, 64, 71
1, 759117, Note_off_c, 0, 61, 65
1, 759128, Control_c, 0, 64, 71
1, 759143, Control_c, 0, 64, 72
1, 759158, Control_c, 0, 64, 73
1, 759172, Control_c, 0, 64, 74
1, 759174, Note_on_c, 0, 71, 89
1, 759187, Control_c, 0, 64, 74
1, 759200, Note_on_c, 0, 59, 50
1, 759224, Note_off_c, 0, 59, 57
1, 759227, Note_off_c, 0, 71, 61
1, 759231, Control_c, 0, 64, 72
1, 759248, Control_c, 0, 64, 62
1, 759263, Control_c, 0, 64, 30
1, 759277, Control_c, 0, 64, 0
1, 759280, Note_on_c, 0, 42, 70
1, 759281, Note_on_c, 0, 49, 76
1, 759281, Note_on_c, 0, 69, 71
1, 759290, Poly_aftertouch_c, 0, 60, 0
1, 759299, Note_on_c, 0, 59, 53
1, 759301, Note_on_c, 0, 65, 51
1, 759301, Note_on_c, 0, 71, 50
1, 759309, Note_off_c, 0, 49, 67
1, 759310, Note_off_c, 0, 42, 65
1, 759311, Note_on_c, 0, 57, 53
1, 759321, Control_c, 0, 64, 33
1, 759324, Note_off_c, 0, 65, 59
1, 759328, Note_off_c, 0, 71, 34
1, 759336, Control_c, 0, 64, 53
1, 759342, Note_off_c, 0, 57, 50
1, 759346, Note_off_c, 0, 59, 46
1, 759351, Control_c, 0, 64, 62
1, 759366, Control_c, 0, 64, 65
1, 759381, Control_c, 0, 64, 67
1, 759395, Control_c, 0, 64, 67
1, 759410, Control_c, 0, 64, 68
1, 759425, Control_c, 0, 64, 68
1, 759440, Control_c, 0, 64, 69
1, 759455, Control_c, 0, 64, 69
1, 759469, Control_c, 0, 64, 70
1, 759477, Note_off_c, 0, 69, 62
1, 759520, Note_on_c, 0, 68, 79
1, 759525, Note_on_c, 0, 56, 64
1, 759531, Note_on_c, 0, 62, 58
1, 759536, Control_c, 0, 64, 70
1, 759546, Note_off_c, 0, 56, 62
1, 759553, Note_off_c, 0, 62, 60
1, 759582, Note_off_c, 0, 68, 62
1, 759596, Control_c, 0, 64, 71
1, 759631, Note_on_c, 0, 69, 86
1, 759654, Note_on_c, 0, 57, 42
1, 759676, Note_off_c, 0, 69, 63
1, 759682, Note_off_c, 0, 57, 51
1, 759684, Control_c, 0, 64, 71
1, 759699, Control_c, 0, 64, 72
1, 759714, Control_c, 0, 64, 72
1, 759759, Note_on_c, 0, 42, 63
1, 759773, Control_c, 0, 64, 71
1, 759788, Control_c, 0, 64, 62
1, 759803, Control_c, 0, 64, 43
1, 759809, Note_on_c, 0, 49, 69
1, 759813, Note_off_c, 0, 42, 63
1, 759818, Control_c, 0, 64, 0
1, 759828, Note_on_c, 0, 80, 83
1, 759845, Note_off_c, 0, 49, 65
1, 759847, Control_c, 0, 64, 41
1, 759850, Note_on_c, 0, 73, 54
1, 759862, Control_c, 0, 64, 57
1, 759863, Poly_aftertouch_c, 0, 70, 127
1, 759877, Control_c, 0, 64, 65
1, 759877, Note_on_c, 0, 69, 4
1, 759892, Control_c, 0, 64, 69
1, 759905, Note_off_c, 0, 80, 63
1, 759907, Control_c, 0, 64, 72
1, 759921, Control_c, 0, 64, 73
1, 759936, Control_c, 0, 64, 73
1, 759966, Control_c, 0, 64, 74
1, 759980, Poly_aftertouch_c, 0, 70, 0
1, 760011, Note_off_c, 0, 69, 41
1, 760049, Note_on_c, 0, 61, 74
1, 760052, Note_off_c, 0, 73, 0
1, 760065, Note_on_c, 0, 78, 75
1, 760073, Note_on_c, 0, 66, 63
1, 760083, Note_off_c, 0, 61, 65
1, 760088, Note_off_c, 0, 78, 67
1, 760093, Note_off_c, 0, 66, 64
1, 760104, Note_on_c, 0, 62, 68
1, 760108, Poly_aftertouch_c, 0, 73, 0
1, 760130, Control_c, 0, 64, 74
1, 760143, Note_off_c, 0, 62, 59
1, 760144, Control_c, 0, 64, 75
1, 760151, Note_on_c, 0, 76, 83
1, 760157, Note_on_c, 0, 61, 67
1, 760166, Note_on_c, 0, 64, 64
1, 760181, Note_off_c, 0, 61, 70
1, 760184, Note_off_c, 0, 64, 65
1, 760187, Note_off_c, 0, 76, 55
1, 760189, Control_c, 0, 64, 70
1, 760204, Control_c, 0, 64, 60
1, 760218, Control_c, 0, 64, 42
1, 760233, Control_c, 0, 64, 39
1, 760243, Note_on_c, 0, 61, 75
1, 760245, Note_on_c, 0, 62, 39
1, 760245, Note_off_c, 0, 62, 127
1, 760248, Control_c, 0, 64, 44
1, 760258, Note_on_c, 0, 74, 84
1, 760270, Control_c, 0, 64, 55
1, 760274, Note_off_c, 0, 61, 70
1, 760279, Note_on_c, 0, 66, 71
1, 760285, Control_c, 0, 64, 63
1, 760294, Poly_aftertouch_c, 0, 62, 127
1, 760300, Control_c, 0, 64, 68
1, 760315, Control_c, 0, 64, 70
1, 760330, Control_c, 0, 64, 71
1, 760344, Control_c, 0, 64, 71
1, 760351, Poly_aftertouch_c, 0, 62, 0
1, 760397, Note_off_c, 0, 74, 60
1, 760404, Control_c, 0, 64, 72
1, 760433, Control_c, 0, 64, 72
1, 760448, Control_c, 0, 64, 73
1, 760464, Control_c, 0, 64, 74
1, 760475, Note_on_c, 0, 61, 86
1, 760476, Note_on_c, 0, 73, 74
1, 760478, Control_c, 0, 64, 75
1, 760485, Note_off_c, 0, 66, 37
1, 760493, Control_c, 0, 64, 76
1, 760500, Note_off_c, 0, 73, 68
1, 760502, Note_off_c, 0, 61, 66
1, 760508, Control_c, 0, 64, 77
1, 760523, Control_c, 0, 64, 79
1, 760538, Control_c, 0, 64, 80
1, 760552, Control_c, 0, 64, 81
1, 760561, Note_on_c, 0, 71, 87
1, 760567, Control_c, 0, 64, 82
1, 760579, Note_on_c, 0, 59, 61
1, 760600, Note_off_c, 0, 59, 64
1, 760611, Note_off_c, 0, 71, 61
1, 760612, Control_c, 0, 64, 78
1, 760626, Control_c, 0, 64, 64
1, 760641, Control_c, 0, 64, 31
1, 760656, Control_c, 0, 64, 0
1, 760667, Note_on_c, 0, 42, 71
1, 760669, Note_on_c, 0, 69, 89
1, 760670, Note_on_c, 0, 49, 76
1, 760680, Note_on_c, 0, 65, 59
1, 760681, Poly_aftertouch_c, 0, 60, 0
1, 760687, Note_on_c, 0, 59, 49
1, 760688, Note_on_c, 0, 57, 58
1, 760697, Note_off_c, 0, 42, 66
1, 760699, Note_off_c, 0, 49, 66
1, 760700, Control_c, 0, 64, 48
1, 760701, Note_off_c, 0, 65, 63
1, 760715, Control_c, 0, 64, 62
1, 760716, Note_off_c, 0, 57, 61
1, 760717, Note_off_c, 0, 59, 57
1, 760730, Control_c, 0, 64, 67
1, 760745, Control_c, 0, 64, 71
1, 760760, Control_c, 0, 64, 73
1, 760774, Control_c, 0, 64, 74
1, 760789, Control_c, 0, 64, 75
1, 760804, Control_c, 0, 64, 75
1, 760819, Control_c, 0, 64, 76
1, 760834, Control_c, 0, 64, 77
1, 760849, Control_c, 0, 64, 77
1, 760857, Note_off_c, 0, 69, 61
1, 760864, Control_c, 0, 64, 78
1, 760894, Control_c, 0, 64, 78
1, 760897, Note_on_c, 0, 68, 83
1, 760903, Note_on_c, 0, 62, 78
1, 760906, Note_on_c, 0, 56, 71
1, 760909, Control_c, 0, 64, 79
1, 760924, Control_c, 0, 64, 79
1, 760926, Note_off_c, 0, 56, 65
1, 760926, Note_off_c, 0, 62, 70
1, 760938, Control_c, 0, 64, 80
1, 760945, Note_off_c, 0, 68, 53
1, 760953, Control_c, 0, 64, 81
1, 760968, Control_c, 0, 64, 82
1, 760983, Control_c, 0, 64, 83
1, 760986, Note_on_c, 0, 69, 89
1, 760995, Note_on_c, 0, 57, 80
1, 760998, Control_c, 0, 64, 84
1, 761013, Control_c, 0, 64, 85
1, 761030, Note_off_c, 0, 57, 68
1, 761049, Note_off_c, 0, 69, 64
1, 761049, Control_c, 0, 64, 84
1, 761064, Control_c, 0, 64, 75
1, 761079, Control_c, 0, 64, 58
1, 761094, Control_c, 0, 64, 0
1, 761104, Note_on_c, 0, 71, 92
1, 761108, Note_on_c, 0, 42, 78
1, 761117, Note_on_c, 0, 59, 71
1, 761125, Note_on_c, 0, 61, 73
1, 761129, Note_on_c, 0, 66, 73
1, 761129, Note_on_c, 0, 49, 50
1, 761140, Note_off_c, 0, 59, 65
1, 761153, Control_c, 0, 64, 45
1, 761162, Note_off_c, 0, 49, 63
1, 761162, Note_off_c, 0, 71, 62
1, 761168, Control_c, 0, 64, 60
1, 761180, Note_off_c, 0, 61, 64
1, 761183, Control_c, 0, 64, 65
1, 761189, Note_off_c, 0, 66, 63
1, 761198, Control_c, 0, 64, 67
1, 761213, Control_c, 0, 64, 69
1, 761227, Control_c, 0, 64, 70
1, 761242, Control_c, 0, 64, 71
1, 761257, Control_c, 0, 64, 71
1, 761301, Control_c, 0, 64, 72
1, 761330, Note_on_c, 0, 56, 90
1, 761331, Note_on_c, 0, 49, 79
1, 761331, Note_on_c, 0, 68, 90
1, 761331, Control_c, 0, 64, 72
1, 761345, Note_off_c, 0, 42, 64
1, 761346, Control_c, 0, 64, 73
1, 761356, Note_off_c, 0, 56, 66
1, 761356, Note_off_c, 0, 49, 66
1, 761361, Control_c, 0, 64, 74
1, 761375, Control_c, 0, 64, 74
1, 761380, Note_off_c, 0, 68, 62
1, 761390, Control_c, 0, 64, 75
1, 761405, Control_c, 0, 64, 76
1, 761419, Control_c, 0, 64, 77
1, 761423, Note_on_c, 0, 69, 91
1, 761442, Note_on_c, 0, 57, 69
1, 761449, Control_c, 0, 64, 77
1, 761472, Note_off_c, 0, 57, 66
1, 761493, Note_off_c, 0, 69, 61
1, 761493, Control_c, 0, 64, 76
1, 761508, Control_c, 0, 64, 66
1, 761523, Control_c, 0, 64, 0
1, 761527, Note_on_c, 0, 40, 88
1, 761531, Note_on_c, 0, 68, 96
1, 761535, Note_on_c, 0, 56, 84
1, 761542, Note_on_c, 0, 61, 76
1, 761612, Control_c, 0, 64, 44
1, 761627, Control_c, 0, 64, 62
1, 761642, Control_c, 0, 64, 64
1, 761656, Note_off_c, 0, 56, 61
1, 761657, Control_c, 0, 64, 66
1, 761666, Note_off_c, 0, 68, 56
1, 761672, Control_c, 0, 64, 67
1, 761687, Control_c, 0, 64, 69
1, 761702, Control_c, 0, 64, 70
1, 761716, Control_c, 0, 64, 70
1, 761731, Control_c, 0, 64, 71
1, 761739, Note_off_c, 0, 61, 62
1, 761746, Control_c, 0, 64, 71
1, 761761, Control_c, 0, 64, 72
1, 761776, Note_on_c, 0, 45, 83
1, 761778, Note_off_c, 0, 40, 63
1, 761790, Note_on_c, 0, 66, 94
1, 761791, Note_on_c, 0, 54, 87
1, 761798, Control_c, 0, 64, 72
1, 761799, Note_off_c, 0, 45, 64
1, 761828, Control_c, 0, 64, 73
1, 761835, Note_off_c, 0, 54, 60
1, 761857, Control_c, 0, 64, 73
1, 761860, Note_off_c, 0, 66, 62
1, 761872, Control_c, 0, 64, 74
1, 761887, Control_c, 0, 64, 74
1, 761902, Control_c, 0, 64, 76
1, 761912, Note_on_c, 0, 68, 93
1, 761917, Control_c, 0, 64, 77
1, 761918, Note_on_c, 0, 56, 87
1, 761931, Control_c, 0, 64, 78
1, 761975, Note_off_c, 0, 56, 57
1, 761988, Note_off_c, 0, 68, 56
1, 762001, Note_on_c, 0, 38, 91
1, 762006, Control_c, 0, 64, 73
1, 762021, Control_c, 0, 64, 58
1, 762035, Control_c, 0, 64, 0
1, 762084, Note_on_c, 0, 44, 95
1, 762086, Note_on_c, 0, 54, 91
1, 762086, Note_on_c, 0, 66, 92
1, 762092, Note_on_c, 0, 60, 76
1, 762095, Control_c, 0, 64, 41
1, 762110, Control_c, 0, 64, 64
1, 762116, Note_off_c, 0, 38, 65
1, 762121, Note_off_c, 0, 44, 65
1, 762125, Control_c, 0, 64, 72
1, 762140, Control_c, 0, 64, 82
1, 762141, Note_off_c, 0, 54, 61
1, 762145, Note_off_c, 0, 66, 63
1, 762146, Note_off_c, 0, 60, 64
1, 762155, Control_c, 0, 64, 86
1, 762170, Control_c, 0, 64, 90
1, 762184, Control_c, 0, 64, 92
1, 762199, Control_c, 0, 64, 92
1, 762258, Control_c, 0, 64, 93
1, 762391, Control_c, 0, 64, 80
1, 762393, Note_on_c, 0, 62, 81
1, 762394, Note_on_c, 0, 54, 83
1, 762398, Note_on_c, 0, 60, 77
1, 762406, Control_c, 0, 64, 55
1, 762417, Note_off_c, 0, 54, 67
1, 762418, Note_off_c, 0, 62, 67
1, 762421, Control_c, 0, 64, 0
1, 762426, Note_off_c, 0, 60, 69
1, 762605, Note_on_c, 0, 56, 92
1, 762632, Note_off_c, 0, 56, 67
1, 762846, Note_on_c, 0, 37, 67
1, 762888, Control_c, 0, 67, 38
1, 762903, Control_c, 0, 67, 68
1, 762918, Control_c, 0, 67, 102
1, 762933, Control_c, 0, 67, 127
1, 763174, Note_on_c, 0, 44, 53
1, 763175, Note_on_c, 0, 61, 65
1, 763177, Note_on_c, 0, 49, 61
1, 763182, Note_on_c, 0, 56, 56
1, 763183, Note_on_c, 0, 53, 51
1, 763219, Note_off_c, 0, 44, 61
1, 763226, Note_on_c, 0, 45, 60
1, 763278, Note_off_c, 0, 45, 61
1, 763314, Note_on_c, 0, 44, 52
1, 763356, Note_off_c, 0, 44, 56
1, 763370, Control_c, 0, 64, 33
1, 763385, Control_c, 0, 64, 36
1, 763400, Control_c, 0, 64, 38
1, 763408, Poly_aftertouch_c, 0, 44, 0
1, 763415, Control_c, 0, 64, 40
1, 763430, Control_c, 0, 64, 43
1, 763444, Control_c, 0, 64, 46
1, 763445, Note_off_c, 0, 49, 37
1, 763448, Note_off_c, 0, 53, 59
1, 763459, Control_c, 0, 64, 50
1, 763474, Control_c, 0, 64, 51
1, 763489, Control_c, 0, 64, 52
1, 763503, Control_c, 0, 64, 52
1, 763518, Control_c, 0, 64, 53
1, 763533, Control_c, 0, 64, 53
1, 763548, Control_c, 0, 64, 54
1, 763559, Note_off_c, 0, 61, 64
1, 763592, Control_c, 0, 64, 53
1, 763607, Control_c, 0, 64, 52
1, 763621, Control_c, 0, 64, 48
1, 763624, Note_off_c, 0, 56, 53
1, 763627, Note_on_c, 0, 62, 72
1, 763630, Note_off_c, 0, 37, 62
1, 763635, Note_on_c, 0, 44, 56
1, 763636, Note_on_c, 0, 54, 46
1, 763636, Control_c, 0, 64, 41
1, 763651, Note_on_c, 0, 50, 46
1, 763651, Control_c, 0, 64, 0
1, 763654, Note_on_c, 0, 57, 56
1, 763830, Note_off_c, 0, 54, 60
1, 763830, Note_off_c, 0, 57, 62
1, 763834, Note_off_c, 0, 44, 55
1, 763839, Note_on_c, 0, 32, 77
1, 763859, Control_c, 0, 64, 43
1, 763874, Control_c, 0, 64, 59
1, 763888, Control_c, 0, 64, 61
1, 763903, Control_c, 0, 64, 62
1, 763903, Control_c, 0, 67, 111
1, 763918, Control_c, 0, 64, 63
1, 763918, Control_c, 0, 67, 79
1, 763933, Control_c, 0, 64, 64
1, 763933, Control_c, 0, 67, 52
1, 763943, Note_off_c, 0, 62, 62
1, 763948, Control_c, 0, 64, 66
1, 763948, Control_c, 0, 67, 0
1, 763962, Control_c, 0, 64, 66
1, 763977, Control_c, 0, 64, 67
1, 763979, Note_off_c, 0, 50, 37
1, 764007, Control_c, 0, 64, 68
1, 764055, Note_on_c, 0, 56, 23
1, 764055, Note_off_c, 0, 32, 59
1, 764062, Note_on_c, 0, 64, 77
1, 764074, Note_on_c, 0, 44, 52
1, 764079, Note_on_c, 0, 52, 57
1, 764086, Note_on_c, 0, 59, 45
1, 764104, Control_c, 0, 64, 67
1, 764119, Control_c, 0, 64, 63
1, 764134, Control_c, 0, 64, 56
1, 764149, Control_c, 0, 64, 43
1, 764164, Control_c, 0, 64, 0
1, 764239, Note_off_c, 0, 44, 61
1, 764266, Note_on_c, 0, 37, 76
1, 764286, Note_off_c, 0, 52, 58
1, 764291, Note_off_c, 0, 64, 64
1, 764309, Note_off_c, 0, 56, 57
1, 764313, Control_c, 0, 64, 48
1, 764327, Control_c, 0, 64, 60
1, 764342, Control_c, 0, 64, 62
1, 764357, Control_c, 0, 64, 64
1, 764372, Control_c, 0, 64, 67
1, 764387, Control_c, 0, 64, 70
1, 764401, Control_c, 0, 64, 72
1, 764416, Control_c, 0, 64, 73
1, 764437, Note_off_c, 0, 59, 51
1, 764460, Control_c, 0, 64, 72
1, 764475, Control_c, 0, 64, 63
1, 764477, Note_on_c, 0, 66, 82
1, 764483, Note_on_c, 0, 57, 44
1, 764484, Note_on_c, 0, 62, 68
1, 764485, Note_on_c, 0, 44, 70
1, 764488, Note_on_c, 0, 54, 57
1, 764490, Control_c, 0, 64, 47
1, 764505, Control_c, 0, 64, 0
1, 764527, Note_off_c, 0, 44, 62
1, 764539, Note_off_c, 0, 57, 0
1, 764539, Note_on_c, 0, 57, 8
1, 764543, Note_on_c, 0, 45, 73
1, 764564, Control_c, 0, 64, 30
1, 764593, Control_c, 0, 64, 0
1, 764602, Note_off_c, 0, 45, 63
1, 764603, Note_on_c, 0, 44, 69
1, 764636, Note_off_c, 0, 44, 66
1, 764685, Note_on_c, 0, 44, 81
1, 764694, Note_off_c, 0, 54, 42
1, 764697, Control_c, 0, 64, 30
1, 764704, Note_off_c, 0, 62, 61
1, 764707, Note_off_c, 0, 57, 58
1, 764709, Note_off_c, 0, 44, 67
1, 764712, Control_c, 0, 64, 48
1, 764727, Control_c, 0, 64, 60
1, 764742, Control_c, 0, 64, 64
1, 764757, Control_c, 0, 64, 66
1, 764778, Control_c, 0, 64, 67
1, 764808, Control_c, 0, 64, 67
1, 764823, Control_c, 0, 64, 68
1, 764829, Note_off_c, 0, 66, 59
1, 764854, Control_c, 0, 64, 68
1, 764868, Control_c, 0, 64, 69
1, 764906, Note_on_c, 0, 69, 89
1, 764913, Control_c, 0, 64, 69
1, 764918, Note_on_c, 0, 61, 55
1, 764920, Note_off_c, 0, 37, 63
1, 764921, Note_on_c, 0, 57, 66
1, 764928, Control_c, 0, 64, 70
1, 764932, Note_on_c, 0, 64, 56
1, 764939, Note_on_c, 0, 44, 58
1, 764957, Control_c, 0, 64, 70
1, 765016, Control_c, 0, 64, 70
1, 765031, Control_c, 0, 64, 64
1, 765046, Control_c, 0, 64, 48
1, 765061, Control_c, 0, 64, 0
1, 765115, Note_on_c, 0, 32, 86
1, 765118, Note_off_c, 0, 44, 55
1, 765121, Control_c, 0, 64, 32
1, 765135, Control_c, 0, 64, 53
1, 765144, Note_off_c, 0, 64, 63
1, 765146, Note_off_c, 0, 61, 63
1, 765150, Control_c, 0, 64, 63
1, 765165, Control_c, 0, 64, 66
1, 765180, Control_c, 0, 64, 69
1, 765195, Control_c, 0, 64, 72
1, 765210, Control_c, 0, 64, 74
1, 765224, Control_c, 0, 64, 77
1, 765231, Note_off_c, 0, 57, 45
1, 765231, Note_off_c, 0, 69, 58
1, 765239, Control_c, 0, 64, 80
1, 765254, Control_c, 0, 64, 83
1, 765268, Control_c, 0, 64, 87
1, 765283, Control_c, 0, 64, 89
1, 765298, Control_c, 0, 64, 90
1, 765324, Note_on_c, 0, 71, 93
1, 765327, Note_off_c, 0, 32, 57
1, 765328, Control_c, 0, 64, 90
1, 765331, Note_on_c, 0, 44, 68
1, 765334, Note_on_c, 0, 66, 50
1, 765341, Note_on_c, 0, 62, 54
1, 765342, Control_c, 0, 64, 85
1, 765344, Note_on_c, 0, 59, 64
1, 765357, Control_c, 0, 64, 69
1, 765372, Control_c, 0, 64, 49
1, 765386, Control_c, 0, 64, 0
1, 765396, Note_off_c, 0, 62, 0
1, 765396, Note_on_c, 0, 62, 23
1, 765416, Control_c, 0, 64, 43
1, 765431, Control_c, 0, 64, 59
1, 765446, Control_c, 0, 64, 66
1, 765460, Control_c, 0, 64, 69
1, 765475, Control_c, 0, 64, 71
1, 765478, Note_off_c, 0, 59, 54
1, 765490, Control_c, 0, 64, 72
1, 765493, Note_off_c, 0, 71, 61
1, 765505, Control_c, 0, 64, 72
1, 765517, Note_off_c, 0, 44, 62
1, 765518, Note_off_c, 0, 62, 63
1, 765528, Control_c, 0, 64, 73
1, 765539, Note_on_c, 0, 37, 80
1, 765542, Control_c, 0, 64, 73
1, 765545, Note_off_c, 0, 66, 65
1, 765557, Control_c, 0, 64, 74
1, 765572, Control_c, 0, 64, 74
1, 765587, Control_c, 0, 64, 75
1, 765616, Control_c, 0, 64, 75
1, 765647, Control_c, 0, 64, 76
1, 765662, Control_c, 0, 64, 76
1, 765677, Control_c, 0, 64, 77
1, 765705, Control_c, 0, 64, 76
1, 765720, Control_c, 0, 64, 69
1, 765735, Note_on_c, 0, 73, 89
1, 765735, Control_c, 0, 64, 51
1, 765739, Note_on_c, 0, 44, 67
1, 765744, Note_on_c, 0, 68, 78
1, 765744, Note_on_c, 0, 61, 75
1, 765749, Note_on_c, 0, 65, 69
1, 765750, Control_c, 0, 64, 0
1, 765785, Note_off_c, 0, 44, 63
1, 765809, Note_on_c, 0, 45, 62
1, 765866, Note_on_c, 0, 44, 67
1, 765872, Note_off_c, 0, 45, 62
1, 765894, Note_off_c, 0, 44, 65
1, 765949, Note_on_c, 0, 44, 80
1, 765961, Note_off_c, 0, 65, 58
1, 765963, Note_off_c, 0, 61, 57
1, 765971, Control_c, 0, 64, 48
1, 765973, Note_off_c, 0, 44, 66
1, 765986, Control_c, 0, 64, 64
1, 766001, Control_c, 0, 64, 67
1, 766015, Control_c, 0, 64, 71
1, 766030, Control_c, 0, 64, 73
1, 766045, Control_c, 0, 64, 76
1, 766060, Control_c, 0, 64, 80
1, 766075, Control_c, 0, 64, 83
1, 766083, Note_off_c, 0, 73, 59
1, 766089, Control_c, 0, 64, 85
1, 766104, Control_c, 0, 64, 87
1, 766113, Note_off_c, 0, 68, 62
1, 766119, Control_c, 0, 64, 88
1, 766134, Control_c, 0, 64, 89
1, 766173, Note_off_c, 0, 37, 58
1, 766185, Note_on_c, 0, 76, 93
1, 766201, Note_on_c, 0, 44, 59
1, 766206, Note_on_c, 0, 64, 61
1, 766208, Control_c, 0, 64, 86
1, 766223, Control_c, 0, 64, 75
1, 766228, Note_on_c, 0, 73, 55
1, 766235, Note_on_c, 0, 68, 37
1, 766238, Control_c, 0, 64, 58
1, 766253, Control_c, 0, 64, 0
1, 766289, Note_off_c, 0, 68, 0
1, 766289, Note_on_c, 0, 68, 15
1, 766349, Control_c, 0, 64, 46
1, 766364, Control_c, 0, 64, 59
1, 766379, Control_c, 0, 64, 65
1, 766393, Control_c, 0, 64, 70
1, 766408, Control_c, 0, 64, 72
1, 766423, Control_c, 0, 64, 75
1, 766438, Control_c, 0, 64, 76
1, 766442, Note_off_c, 0, 76, 58
1, 766453, Control_c, 0, 64, 78
1, 766468, Note_off_c, 0, 68, 57
1, 766468, Control_c, 0, 64, 79
1, 766481, Note_off_c, 0, 64, 41
1, 766483, Control_c, 0, 64, 79
1, 766489, Note_off_c, 0, 73, 62
1, 766498, Control_c, 0, 64, 80
1, 766506, Note_on_c, 0, 32, 63
1, 766521, Note_off_c, 0, 44, 39
1, 766528, Control_c, 0, 64, 81
1, 766543, Control_c, 0, 64, 81
1, 766700, Note_on_c, 0, 73, 82
1, 766705, Note_off_c, 0, 32, 59
1, 766721, Note_on_c, 0, 44, 55
1, 766722, Note_on_c, 0, 61, 50
1, 766730, Note_on_c, 0, 64, 45
1, 766733, Note_on_c, 0, 68, 55
1, 766750, Control_c, 0, 64, 81
1, 766765, Control_c, 0, 64, 78
1, 766779, Control_c, 0, 64, 74
1, 766794, Control_c, 0, 64, 65
1, 766809, Control_c, 0, 64, 51
1, 766824, Control_c, 0, 64, 0
1, 766868, Control_c, 0, 64, 30
1, 766883, Control_c, 0, 64, 45
1, 766891, Note_off_c, 0, 44, 62
1, 766898, Control_c, 0, 64, 56
1, 766909, Note_off_c, 0, 64, 64
1, 766912, Control_c, 0, 64, 63
1, 766920, Note_on_c, 0, 37, 64
1, 766927, Control_c, 0, 64, 66
1, 766932, Note_off_c, 0, 68, 61
1, 766942, Control_c, 0, 64, 68
1, 766943, Note_off_c, 0, 73, 62
1, 766951, Note_off_c, 0, 61, 62
1, 766957, Control_c, 0, 64, 69
1, 766972, Control_c, 0, 64, 70
1, 766987, Control_c, 0, 64, 72
1, 767002, Control_c, 0, 64, 73
1, 767024, Control_c, 0, 64, 74
1, 767038, Control_c, 0, 64, 76
1, 767053, Control_c, 0, 64, 76
1, 767127, Control_c, 0, 64, 72
1, 767132, Note_on_c, 0, 71, 81
1, 767136, Note_on_c, 0, 44, 61
1, 767139, Note_on_c, 0, 66, 71
1, 767141, Note_on_c, 0, 59, 66
1, 767142, Control_c, 0, 64, 62
1, 767145, Note_on_c, 0, 62, 56
1, 767157, Control_c, 0, 64, 37
1, 767172, Control_c, 0, 64, 0
1, 767172, Control_c, 0, 67, 51
1, 767184, Note_off_c, 0, 44, 63
1, 767186, Control_c, 0, 67, 58
1, 767202, Control_c, 0, 67, 60
1, 767204, Note_on_c, 0, 45, 60
1, 767232, Control_c, 0, 67, 58
1, 767248, Control_c, 0, 64, 37
1, 767248, Control_c, 0, 67, 56
1, 767262, Control_c, 0, 64, 47
1, 767262, Control_c, 0, 67, 53
1, 767264, Note_off_c, 0, 45, 62
1, 767267, Note_on_c, 0, 44, 73
1, 767277, Control_c, 0, 64, 56
1, 767277, Control_c, 0, 67, 51
1, 767292, Control_c, 0, 64, 60
1, 767292, Control_c, 0, 67, 49
1, 767296, Note_off_c, 0, 44, 64
1, 767307, Control_c, 0, 64, 61
1, 767307, Control_c, 0, 67, 47
1, 767322, Control_c, 0, 64, 61
1, 767322, Control_c, 0, 67, 45
1, 767332, Note_off_c, 0, 71, 61
1, 767336, Control_c, 0, 67, 45
1, 767337, Note_off_c, 0, 59, 64
1, 767341, Note_off_c, 0, 62, 63
1, 767349, Note_off_c, 0, 66, 64
1, 767351, Control_c, 0, 64, 62
1, 767351, Control_c, 0, 67, 44
1, 767353, Note_on_c, 0, 44, 79
1, 767366, Control_c, 0, 64, 63
1, 767366, Control_c, 0, 67, 43
1, 767381, Note_off_c, 0, 44, 70
1, 767381, Control_c, 0, 64, 64
1, 767381, Control_c, 0, 67, 43
1, 767396, Control_c, 0, 64, 65
1, 767410, Control_c, 0, 64, 65
1, 767425, Control_c, 0, 67, 42
1, 767470, Control_c, 0, 64, 66
1, 767544, Control_c, 0, 64, 65
1, 767544, Control_c, 0, 67, 43
1, 767559, Control_c, 0, 64, 64
1, 767559, Control_c, 0, 67, 44
1, 767566, Note_off_c, 0, 37, 61
1, 767574, Control_c, 0, 64, 59
1, 767574, Control_c, 0, 67, 45
1, 767576, Note_on_c, 0, 66, 72
1, 767588, Control_c, 0, 64, 49
1, 767588, Control_c, 0, 67, 46
1, 767592, Note_on_c, 0, 54, 47
1, 767592, Note_on_c, 0, 62, 52
1, 767597, Note_on_c, 0, 57, 32
1, 767603, Control_c, 0, 64, 34
1, 767603, Control_c, 0, 67, 47
1, 767607, Note_on_c, 0, 44, 40
1, 767618, Control_c, 0, 64, 0
1, 767633, Control_c, 0, 67, 47
1, 767648, Control_c, 0, 67, 48
1, 767662, Control_c, 0, 67, 49
1, 767677, Control_c, 0, 67, 49
1, 767692, Control_c, 0, 67, 50
1, 767707, Control_c, 0, 64, 44
1, 767722, Control_c, 0, 64, 58
1, 767736, Control_c, 0, 64, 63
1, 767736, Control_c, 0, 67, 51
1, 767759, Control_c, 0, 64, 64
1, 767759, Control_c, 0, 67, 54
1, 767774, Control_c, 0, 64, 64
1, 767774, Control_c, 0, 67, 56
1, 767788, Control_c, 0, 67, 58
1, 767791, Note_off_c, 0, 62, 62
1, 767792, Note_off_c, 0, 66, 64
1, 767793, Note_off_c, 0, 57, 55
1, 767803, Control_c, 0, 64, 65
1, 767803, Control_c, 0, 67, 61
1, 767811, Note_on_c, 0, 32, 58
1, 767812, Note_off_c, 0, 54, 62
1, 767818, Control_c, 0, 67, 65
1, 767822, Note_off_c, 0, 44, 43
1, 767833, Control_c, 0, 64, 65
1, 767833, Control_c, 0, 67, 75
1, 767848, Control_c, 0, 67, 102
1, 767862, Control_c, 0, 67, 123
1, 767877, Control_c, 0, 67, 127
1, 767995, Control_c, 0, 64, 65
1, 768010, Control_c, 0, 64, 63
1, 768018, Note_off_c, 0, 32, 59
1, 768018, Note_on_c, 0, 62, 59
1, 768025, Control_c, 0, 64, 60
1, 768032, Note_on_c, 0, 54, 43
1, 768041, Control_c, 0, 64, 52
1, 768042, Note_on_c, 0, 44, 37
1, 768043, Note_on_c, 0, 50, 32
1, 768049, Note_on_c, 0, 57, 33
1, 768056, Control_c, 0, 64, 40
1, 768071, Control_c, 0, 64, 29
1, 768085, Control_c, 0, 64, 0
1, 768233, Control_c, 0, 64, 30
1, 768248, Control_c, 0, 64, 41
1, 768258, Note_off_c, 0, 44, 62
1, 768263, Control_c, 0, 64, 53
1, 768272, Note_off_c, 0, 50, 55
1, 768275, Note_on_c, 0, 37, 63
1, 768278, Control_c, 0, 64, 59
1, 768283, Note_off_c, 0, 62, 62
1, 768292, Control_c, 0, 64, 60
1, 768304, Note_off_c, 0, 54, 62
1, 768307, Control_c, 0, 64, 61
1, 768310, Note_off_c, 0, 57, 59
1, 768322, Control_c, 0, 64, 61
1, 768337, Control_c, 0, 64, 62
1, 768352, Control_c, 0, 64, 62
1, 768500, Control_c, 0, 64, 62
1, 768522, Control_c, 0, 64, 58
1, 768537, Control_c, 0, 64, 50
1, 768552, Control_c, 0, 64, 36
1, 768558, Note_on_c, 0, 61, 66
1, 768560, Note_on_c, 0, 49, 59
1, 768567, Control_c, 0, 64, 0
1, 768572, Note_on_c, 0, 44, 53
1, 768575, Note_on_c, 0, 56, 48
1, 768580, Note_on_c, 0, 53, 45
1, 768608, Note_off_c, 0, 44, 64
1, 768632, Note_on_c, 0, 45, 47
1, 768683, Note_off_c, 0, 45, 58
1, 768693, Note_on_c, 0, 44, 60
1, 768726, Note_off_c, 0, 44, 64
1, 768759, Control_c, 0, 64, 29
1, 768774, Control_c, 0, 64, 37
1, 768787, Note_on_c, 0, 44, 69
1, 768789, Control_c, 0, 64, 46
1, 768803, Control_c, 0, 64, 53
1, 768805, Note_off_c, 0, 53, 60
1, 768810, Note_off_c, 0, 44, 63
1, 768818, Control_c, 0, 64, 57
1, 768834, Control_c, 0, 64, 58
1, 768841, Note_off_c, 0, 49, 51
1, 768849, Control_c, 0, 64, 59
1, 768864, Control_c, 0, 64, 60
1, 768879, Control_c, 0, 64, 62
1, 768894, Control_c, 0, 64, 63
1, 768908, Control_c, 0, 64, 63
1, 768923, Control_c, 0, 64, 64
1, 768927, Note_off_c, 0, 61, 64
1, 768938, Control_c, 0, 64, 64
1, 768953, Control_c, 0, 64, 65
1, 768963, Note_off_c, 0, 56, 60
1, 768996, Note_off_c, 0, 37, 60
1, 768997, Note_on_c, 0, 62, 75
1, 769008, Note_on_c, 0, 50, 59
1, 769012, Note_on_c, 0, 54, 48
1, 769023, Note_on_c, 0, 44, 49
1, 769029, Note_on_c, 0, 57, 48
1, 769041, Control_c, 0, 64, 64
1, 769056, Control_c, 0, 64, 61
1, 769071, Control_c, 0, 64, 46
1, 769086, Control_c, 0, 64, 0
1, 769130, Control_c, 0, 64, 31
1, 769145, Control_c, 0, 64, 47
1, 769160, Control_c, 0, 64, 58
1, 769175, Note_off_c, 0, 57, 63
1, 769175, Control_c, 0, 64, 64
1, 769184, Note_off_c, 0, 54, 63
1, 769190, Control_c, 0, 64, 65
1, 769204, Control_c, 0, 64, 66
1, 769204, Control_c, 0, 67, 122
1, 769207, Note_on_c, 0, 32, 77
1, 769211, Note_off_c, 0, 62, 63
1, 769213, Note_off_c, 0, 44, 58
1, 769219, Control_c, 0, 64, 67
1, 769219, Control_c, 0, 67, 99
1, 769234, Control_c, 0, 64, 68
1, 769234, Control_c, 0, 67, 73
1, 769249, Control_c, 0, 64, 69
1, 769249, Control_c, 0, 67, 51
1, 769260, Note_off_c, 0, 50, 36
1, 769271, Control_c, 0, 64, 69
1, 769271, Control_c, 0, 67, 0
1, 769286, Control_c, 0, 64, 70
1, 769301, Control_c, 0, 64, 71
1, 769315, Control_c, 0, 64, 71
1, 769330, Control_c, 0, 64, 72
1, 769345, Control_c, 0, 64, 73
1, 769359, Control_c, 0, 64, 73
1, 769389, Control_c, 0, 64, 74
1, 769411, Note_on_c, 0, 56, 21
1, 769411, Note_on_c, 0, 64, 81
1, 769417, Note_off_c, 0, 32, 60
1, 769418, Note_on_c, 0, 52, 70
1, 769422, Note_on_c, 0, 44, 51
1, 769432, Note_on_c, 0, 59, 59
1, 769463, Control_c, 0, 64, 71
1, 769478, Control_c, 0, 64, 64
1, 769493, Control_c, 0, 64, 49
1, 769507, Control_c, 0, 64, 0
1, 769585, Note_off_c, 0, 52, 62
1, 769596, Control_c, 0, 64, 42
1, 769598, Note_off_c, 0, 44, 62
1, 769607, Note_off_c, 0, 64, 64
1, 769611, Control_c, 0, 64, 56
1, 769618, Note_on_c, 0, 37, 73
1, 769627, Control_c, 0, 64, 63
1, 769632, Note_off_c, 0, 56, 58
1, 769642, Note_off_c, 0, 59, 64
1, 769642, Control_c, 0, 64, 65
1, 769656, Control_c, 0, 64, 67
1, 769671, Control_c, 0, 64, 68
1, 769686, Control_c, 0, 64, 69
1, 769701, Control_c, 0, 64, 71
1, 769716, Control_c, 0, 64, 73
1, 769730, Control_c, 0, 64, 75
1, 769745, Control_c, 0, 64, 77
1, 769760, Control_c, 0, 64, 78
1, 769774, Control_c, 0, 64, 79
1, 769789, Control_c, 0, 64, 80
1, 769819, Note_on_c, 0, 66, 88
1, 769821, Note_on_c, 0, 62, 82
1, 769824, Note_on_c, 0, 54, 76
1, 769825, Note_on_c, 0, 44, 66
1, 769826, Note_on_c, 0, 57, 66
1, 769848, Control_c, 0, 64, 78
1, 769863, Control_c, 0, 64, 67
1, 769878, Note_off_c, 0, 44, 62
1, 769878, Control_c, 0, 64, 47
1, 769893, Control_c, 0, 64, 0
1, 769897, Note_on_c, 0, 45, 58
1, 769938, Control_c, 0, 64, 32
1, 769953, Control_c, 0, 64, 51
1, 769959, Note_off_c, 0, 45, 58
1, 769966, Note_on_c, 0, 44, 64
1, 769968, Control_c, 0, 64, 62
1, 769982, Control_c, 0, 64, 66
1, 769995, Note_off_c, 0, 44, 65
1, 769997, Control_c, 0, 64, 70
1, 770015, Note_off_c, 0, 57, 64
1, 770019, Control_c, 0, 64, 71
1, 770024, Note_off_c, 0, 54, 60
1, 770025, Note_off_c, 0, 62, 62
1, 770034, Control_c, 0, 64, 72
1, 770049, Control_c, 0, 64, 72
1, 770054, Note_off_c, 0, 66, 64
1, 770060, Note_on_c, 0, 44, 81
1, 770078, Control_c, 0, 64, 73
1, 770090, Note_off_c, 0, 44, 65
1, 770108, Control_c, 0, 64, 73
1, 770138, Control_c, 0, 64, 74
1, 770152, Control_c, 0, 64, 75
1, 770167, Control_c, 0, 64, 76
1, 770182, Control_c, 0, 64, 78
1, 770197, Control_c, 0, 64, 79
1, 770212, Control_c, 0, 64, 81
1, 770227, Control_c, 0, 64, 81
1, 770253, Note_on_c, 0, 69, 98
1, 770258, Note_off_c, 0, 37, 64
1, 770260, Note_on_c, 0, 57, 77
1, 770261, Note_on_c, 0, 61, 75
1, 770264, Note_on_c, 0, 44, 62
1, 770265, Note_on_c, 0, 64, 79
1, 770272, Control_c, 0, 64, 81
1, 770287, Control_c, 0, 64, 74
1, 770301, Control_c, 0, 64, 58
1, 770316, Control_c, 0, 64, 0
1, 770390, Control_c, 0, 64, 47
1, 770405, Control_c, 0, 64, 63
1, 770420, Control_c, 0, 64, 67
1, 770436, Control_c, 0, 64, 71
1, 770445, Note_off_c, 0, 57, 58
1, 770451, Control_c, 0, 64, 73
1, 770455, Note_off_c, 0, 44, 52
1, 770456, Note_on_c, 0, 32, 87
1, 770465, Control_c, 0, 64, 75
1, 770467, Note_off_c, 0, 64, 61
1, 770468, Note_off_c, 0, 61, 61
1, 770478, Note_off_c, 0, 69, 62
1, 770480, Control_c, 0, 64, 76
1, 770495, Control_c, 0, 64, 78
1, 770510, Control_c, 0, 64, 80
1, 770525, Control_c, 0, 64, 83
1, 770540, Control_c, 0, 64, 86
1, 770554, Control_c, 0, 64, 89
1, 770569, Control_c, 0, 64, 94
1, 770584, Control_c, 0, 64, 100
1, 770598, Control_c, 0, 64, 109
1, 770613, Control_c, 0, 64, 116
1, 770643, Control_c, 0, 64, 114
1, 770658, Control_c, 0, 64, 94
1, 770659, Note_on_c, 0, 71, 91
1, 770663, Note_on_c, 0, 59, 86
1, 770664, Note_on_c, 0, 66, 91
1, 770668, Note_on_c, 0, 62, 80
1, 770668, Note_off_c, 0, 32, 58
1, 770672, Note_on_c, 0, 44, 67
1, 770673, Control_c, 0, 64, 72
1, 770687, Control_c, 0, 64, 57
1, 770702, Control_c, 0, 64, 55
1, 770717, Control_c, 0, 64, 60
1, 770724, Note_off_c, 0, 59, 64
1, 770732, Control_c, 0, 64, 66
1, 770745, Note_off_c, 0, 71, 63
1, 770747, Control_c, 0, 64, 73
1, 770769, Control_c, 0, 64, 79
1, 770769, Note_off_c, 0, 62, 62
1, 770784, Control_c, 0, 64, 82
1, 770797, Note_off_c, 0, 66, 65
1, 770799, Control_c, 0, 64, 84
1, 770813, Control_c, 0, 64, 85
1, 770828, Control_c, 0, 64, 87
1, 770843, Control_c, 0, 64, 90
1, 770848, Note_off_c, 0, 44, 61
1, 770858, Control_c, 0, 64, 96
1, 770873, Control_c, 0, 64, 113
1, 770879, Note_on_c, 0, 37, 90
1, 770887, Control_c, 0, 64, 127
1, 770961, Control_c, 0, 64, 103
1, 770976, Control_c, 0, 64, 63
1, 770991, Control_c, 0, 64, 0
1, 771077, Note_on_c, 0, 73, 92
1, 771080, Note_on_c, 0, 61, 90
1, 771082, Note_on_c, 0, 68, 87
1, 771083, Note_on_c, 0, 65, 84
1, 771084, Note_on_c, 0, 44, 78
1, 771150, Note_on_c, 0, 45, 73
1, 771150, Note_off_c, 0, 44, 64
1, 771220, Note_on_c, 0, 44, 68
1, 771220, Note_off_c, 0, 45, 62
1, 771243, Control_c, 0, 64, 54
1, 771256, Note_off_c, 0, 44, 68
1, 771258, Control_c, 0, 64, 69
1, 771273, Control_c, 0, 64, 73
1, 771283, Note_off_c, 0, 61, 65
1, 771284, Note_off_c, 0, 65, 61
1, 771288, Control_c, 0, 64, 75
1, 771303, Control_c, 0, 64, 78
1, 771305, Note_off_c, 0, 68, 64
1, 771312, Note_on_c, 0, 44, 86
1, 771317, Note_off_c, 0, 73, 66
1, 771318, Control_c, 0, 64, 83
1, 771333, Control_c, 0, 64, 86
1, 771348, Control_c, 0, 64, 87
1, 771363, Note_off_c, 0, 44, 59
1, 771363, Control_c, 0, 64, 87
1, 771377, Control_c, 0, 64, 88
1, 771392, Control_c, 0, 64, 89
1, 771407, Control_c, 0, 64, 89
1, 771421, Control_c, 0, 64, 91
1, 771436, Control_c, 0, 64, 92
1, 771451, Control_c, 0, 64, 93
1, 771466, Control_c, 0, 64, 94
1, 771481, Control_c, 0, 64, 96
1, 771539, Note_on_c, 0, 80, 99
1, 771544, Note_on_c, 0, 68, 93
1, 771544, Note_off_c, 0, 37, 63
1, 771547, Note_on_c, 0, 76, 92
1, 771547, Control_c, 0, 64, 95
1, 771549, Note_on_c, 0, 71, 86
1, 771551, Note_on_c, 0, 44, 74
1, 771562, Control_c, 0, 64, 78
1, 771577, Control_c, 0, 64, 58
1, 771592, Control_c, 0, 64, 0
1, 771799, Control_c, 0, 64, 48
1, 771814, Control_c, 0, 64, 62
1, 771828, Control_c, 0, 64, 66
1, 771843, Control_c, 0, 64, 69
1, 771858, Control_c, 0, 64, 74
1, 771868, Note_on_c, 0, 32, 79
1, 771873, Control_c, 0, 64, 79
1, 771888, Control_c, 0, 64, 83
1, 771896, Note_off_c, 0, 44, 47
1, 771899, Note_off_c, 0, 80, 59
1, 771902, Control_c, 0, 64, 86
1, 771909, Note_off_c, 0, 71, 59
1, 771910, Note_off_c, 0, 76, 58
1, 771917, Control_c, 0, 64, 88
1, 771932, Control_c, 0, 64, 89
1, 771947, Control_c, 0, 64, 90
1, 771951, Note_off_c, 0, 68, 62
1, 771962, Control_c, 0, 64, 90
1, 771977, Control_c, 0, 64, 91
1, 772141, Note_off_c, 0, 32, 59
1, 772152, Note_on_c, 0, 76, 86
1, 772154, Note_on_c, 0, 44, 58
1, 772173, Note_on_c, 0, 73, 66
1, 772173, Note_on_c, 0, 64, 53
1, 772173, Note_on_c, 0, 68, 59
1, 772326, Control_c, 0, 64, 90
1, 772340, Control_c, 0, 64, 82
1, 772355, Control_c, 0, 64, 65
1, 772370, Control_c, 0, 64, 35
1, 772385, Control_c, 0, 64, 0
1, 772387, Note_off_c, 0, 44, 61
1, 772389, Note_off_c, 0, 68, 61
1, 772396, Note_on_c, 0, 37, 68
1, 772445, Control_c, 0, 64, 43
1, 772459, Control_c, 0, 64, 57
1, 772474, Control_c, 0, 64, 64
1, 772479, Note_off_c, 0, 64, 62
1, 772489, Control_c, 0, 64, 70
1, 772504, Control_c, 0, 64, 75
1, 772504, Note_off_c, 0, 76, 60
1, 772519, Control_c, 0, 64, 78
1, 772533, Control_c, 0, 64, 79
1, 772548, Control_c, 0, 64, 81
1, 772563, Control_c, 0, 64, 81
1, 772593, Note_off_c, 0, 73, 60
1, 772606, Note_on_c, 0, 74, 88
1, 772607, Control_c, 0, 64, 81
1, 772611, Note_on_c, 0, 44, 60
1, 772614, Note_on_c, 0, 66, 70
1, 772622, Control_c, 0, 64, 76
1, 772623, Note_on_c, 0, 62, 67
1, 772623, Note_on_c, 0, 69, 64
1, 772637, Control_c, 0, 64, 66
1, 772651, Control_c, 0, 64, 42
1, 772665, Note_off_c, 0, 44, 62
1, 772666, Control_c, 0, 64, 0
1, 772692, Note_on_c, 0, 45, 42
1, 772696, Control_c, 0, 67, 50
1, 772710, Control_c, 0, 67, 64
1, 772725, Control_c, 0, 67, 75
1, 772736, Note_off_c, 0, 45, 53
1, 772740, Control_c, 0, 64, 38
1, 772740, Control_c, 0, 67, 85
1, 772749, Note_on_c, 0, 44, 57
1, 772755, Control_c, 0, 64, 49
1, 772755, Control_c, 0, 67, 94
1, 772770, Control_c, 0, 64, 58
1, 772770, Control_c, 0, 67, 102
1, 772780, Note_off_c, 0, 44, 64
1, 772785, Control_c, 0, 64, 59
1, 772785, Control_c, 0, 67, 107
1, 772816, Note_off_c, 0, 74, 62
1, 772820, Note_off_c, 0, 69, 62
1, 772825, Note_off_c, 0, 62, 64
1, 772827, Note_off_c, 0, 66, 64
1, 772839, Note_on_c, 0, 44, 60
1, 772845, Control_c, 0, 64, 62
1, 772860, Control_c, 0, 64, 64
1, 772863, Note_off_c, 0, 44, 59
1, 772874, Control_c, 0, 64, 66
1, 772889, Control_c, 0, 64, 67
1, 772889, Control_c, 0, 67, 104
1, 772904, Control_c, 0, 64, 68
1, 772919, Control_c, 0, 64, 68
1, 772919, Control_c, 0, 67, 102
1, 772949, Control_c, 0, 67, 100
1, 773055, Note_off_c, 0, 37, 59
1, 773056, Note_on_c, 0, 69, 73
1, 773060, Control_c, 0, 64, 65
1, 773075, Note_on_c, 0, 57, 39
1, 773075, Note_on_c, 0, 66, 55
1, 773075, Control_c, 0, 64, 59
1, 773080, Note_on_c, 0, 62, 42
1, 773089, Note_on_c, 0, 44, 50
1, 773089, Control_c, 0, 64, 45
1, 773104, Control_c, 0, 64, 0
1, 773104, Control_c, 0, 67, 102
1, 773222, Control_c, 0, 64, 41
1, 773237, Control_c, 0, 64, 53
1, 773252, Control_c, 0, 64, 60
1, 773253, Note_off_c, 0, 69, 60
1, 773255, Note_off_c, 0, 62, 61
1, 773267, Control_c, 0, 64, 62
1, 773268, Note_off_c, 0, 66, 64
1, 773281, Control_c, 0, 64, 62
1, 773296, Note_off_c, 0, 44, 58
1, 773298, Note_on_c, 0, 32, 63
1, 773299, Note_off_c, 0, 57, 53
1, 773325, Control_c, 0, 64, 63
1, 773340, Control_c, 0, 64, 63
1, 773355, Control_c, 0, 64, 64
1, 773370, Control_c, 0, 64, 64
1, 773385, Control_c, 0, 64, 65
1, 773399, Control_c, 0, 64, 66
1, 773414, Control_c, 0, 64, 66
1, 773414, Control_c, 0, 67, 104
1, 773429, Control_c, 0, 64, 67
1, 773459, Control_c, 0, 64, 67
1, 773488, Control_c, 0, 67, 107
1, 773518, Control_c, 0, 64, 66
1, 773518, Control_c, 0, 67, 109
1, 773533, Control_c, 0, 64, 61
1, 773534, Note_on_c, 0, 66, 65
1, 773537, Note_on_c, 0, 44, 43
1, 773544, Note_on_c, 0, 54, 44
1, 773548, Note_off_c, 0, 32, 56
1, 773548, Control_c, 0, 64, 46
1, 773548, Control_c, 0, 67, 111
1, 773552, Note_on_c, 0, 62, 45
1, 773557, Note_on_c, 0, 57, 24
1, 773563, Control_c, 0, 64, 0
1, 773563, Control_c, 0, 67, 113
1, 773577, Control_c, 0, 67, 119
1, 773592, Control_c, 0, 67, 127
1, 773622, Control_c, 0, 64, 33
1, 773637, Control_c, 0, 64, 45
1, 773652, Control_c, 0, 64, 57
1, 773667, Control_c, 0, 64, 63
1, 773682, Control_c, 0, 64, 65
1, 773697, Control_c, 0, 64, 66
1, 773712, Control_c, 0, 64, 67
1, 773721, Note_off_c, 0, 54, 56
1, 773727, Control_c, 0, 64, 68
1, 773735, Note_off_c, 0, 62, 37
1, 773740, Note_off_c, 0, 57, 39
1, 773741, Control_c, 0, 64, 70
1, 773763, Control_c, 0, 64, 72
1, 773778, Control_c, 0, 64, 73
1, 773793, Control_c, 0, 64, 74
1, 773808, Note_off_c, 0, 66, 62
1, 773867, Control_c, 0, 64, 72
1, 773882, Control_c, 0, 64, 63
1, 773897, Control_c, 0, 64, 39
1, 773911, Control_c, 0, 64, 0
1, 773914, Note_on_c, 0, 65, 59
1, 773920, Note_on_c, 0, 37, 50
1, 773932, Note_on_c, 0, 56, 48
1, 773932, Note_on_c, 0, 53, 38
1, 773956, Control_c, 0, 64, 43
1, 773961, Note_off_c, 0, 53, 51
1, 773971, Note_off_c, 0, 56, 64
1, 773971, Control_c, 0, 64, 60
1, 773986, Control_c, 0, 64, 65
1, 773987, Note_off_c, 0, 44, 61
1, 773989, Note_off_c, 0, 37, 59
1, 774001, Control_c, 0, 64, 68
1, 774010, Note_off_c, 0, 65, 59
1, 774016, Control_c, 0, 64, 70
1, 774025, Poly_aftertouch_c, 0, 61, 0
1, 774031, Control_c, 0, 64, 71
1, 774045, Control_c, 0, 64, 73
1, 774060, Control_c, 0, 64, 74
1, 774075, Control_c, 0, 64, 75
1, 774090, Control_c, 0, 64, 76
1, 774105, Control_c, 0, 64, 77
1, 774120, Control_c, 0, 64, 78
1, 774194, Control_c, 0, 64, 73
1, 774209, Control_c, 0, 64, 61
1, 774214, Note_on_c, 0, 69, 73
1, 774215, Note_on_c, 0, 60, 70
1, 774223, Control_c, 0, 64, 0
1, 774227, Note_on_c, 0, 67, 47
1, 774233, Note_off_c, 0, 60, 66
1, 774237, Note_off_c, 0, 69, 69
1, 774254, Note_off_c, 0, 67, 58
1, 774330, Note_on_c, 0, 68, 61
1, 774332, Note_on_c, 0, 56, 57
1, 774350, Note_off_c, 0, 68, 41
1, 774353, Note_off_c, 0, 56, 60
1, 774436, Note_on_c, 0, 69, 55
1, 774456, Note_on_c, 0, 60, 29
1, 774457, Note_off_c, 0, 69, 63
1, 774499, Note_off_c, 0, 60, 33
1, 774540, Note_on_c, 0, 66, 61
1, 774567, Note_off_c, 0, 66, 64
1, 774654, Note_on_c, 0, 69, 53
1, 774661, Note_on_c, 0, 67, 34
1, 774677, Note_off_c, 0, 69, 61
1, 774695, Note_off_c, 0, 67, 47
1, 774746, Note_on_c, 0, 68, 45
1, 774748, Note_on_c, 0, 56, 50
1, 774773, Note_off_c, 0, 68, 37
1, 774774, Note_off_c, 0, 56, 56
1, 774857, Note_on_c, 0, 60, 48
1, 774862, Note_on_c, 0, 69, 50
1, 774870, Note_on_c, 0, 67, 36
1, 774881, Note_off_c, 0, 60, 58
1, 774886, Note_off_c, 0, 69, 60
1, 774903, Note_off_c, 0, 67, 48
1, 774957, Note_on_c, 0, 68, 55
1, 774959, Note_on_c, 0, 66, 62
1, 774976, Note_off_c, 0, 68, 61
1, 774985, Note_off_c, 0, 66, 64
1, 775071, Note_on_c, 0, 69, 53
1, 775082, Note_on_c, 0, 67, 30
1, 775084, Note_on_c, 0, 60, 34
1, 775093, Note_off_c, 0, 69, 60
1, 775115, Note_off_c, 0, 60, 34
1, 775117, Note_off_c, 0, 67, 49
1, 775160, Note_on_c, 0, 68, 62
1, 775164, Note_on_c, 0, 56, 62
1, 775178, Note_off_c, 0, 68, 65
1, 775186, Note_off_c, 0, 56, 59
1, 775282, Note_on_c, 0, 68, 65
1, 775289, Note_on_c, 0, 65, 63
1, 775291, Note_on_c, 0, 61, 63
1, 775309, Note_off_c, 0, 68, 67
1, 775316, Note_off_c, 0, 65, 67
1, 775321, Note_off_c, 0, 61, 65
1, 775508, Note_on_c, 0, 69, 66
1, 775514, Note_on_c, 0, 60, 57
1, 775518, Note_on_c, 0, 67, 49
1, 775533, Note_off_c, 0, 69, 69
1, 775535, Note_off_c, 0, 60, 61
1, 775545, Note_off_c, 0, 67, 57
1, 775599, Note_on_c, 0, 68, 65
1, 775609, Note_on_c, 0, 56, 57
1, 775625, Note_off_c, 0, 68, 64
1, 775634, Note_off_c, 0, 56, 58
1, 775712, Note_on_c, 0, 69, 68
1, 775723, Note_on_c, 0, 60, 47
1, 775728, Note_on_c, 0, 67, 41
1, 775736, Note_off_c, 0, 69, 69
1, 775749, Note_off_c, 0, 60, 56
1, 775758, Note_off_c, 0, 67, 51
1, 775810, Note_on_c, 0, 66, 64
1, 775813, Note_on_c, 0, 68, 54
1, 775834, Note_off_c, 0, 68, 61
1, 775840, Note_off_c, 0, 66, 66
1, 775915, Note_on_c, 0, 69, 70
1, 775923, Note_on_c, 0, 60, 53
1, 775923, Note_on_c, 0, 67, 49
1, 775940, Note_off_c, 0, 69, 66
1, 775945, Note_off_c, 0, 60, 60
1, 775947, Note_off_c, 0, 67, 60
1, 776013, Note_on_c, 0, 68, 76
1, 776022, Note_on_c, 0, 56, 65
1, 776037, Note_off_c, 0, 68, 69
1, 776045, Note_off_c, 0, 56, 61
1, 776099, Control_c, 0, 67, 124
1, 776114, Control_c, 0, 67, 109
1, 776127, Note_on_c, 0, 69, 71
1, 776129, Control_c, 0, 67, 92
1, 776131, Note_on_c, 0, 60, 62
1, 776138, Note_on_c, 0, 67, 52
1, 776144, Control_c, 0, 67, 75
1, 776153, Note_off_c, 0, 69, 64
1, 776159, Control_c, 0, 67, 58
1, 776159, Note_off_c, 0, 60, 65
1, 776162, Note_off_c, 0, 67, 62
1, 776174, Control_c, 0, 67, 39
1, 776189, Control_c, 0, 67, 0
1, 776221, Note_on_c, 0, 66, 76
1, 776224, Note_on_c, 0, 68, 66
1, 776242, Note_off_c, 0, 68, 63
1, 776248, Note_off_c, 0, 66, 66
1, 776327, Note_on_c, 0, 69, 74
1, 776341, Note_on_c, 0, 60, 54
1, 776342, Note_on_c, 0, 67, 49
1, 776353, Note_off_c, 0, 69, 63
1, 776362, Note_off_c, 0, 60, 60
1, 776366, Note_off_c, 0, 67, 58
1, 776418, Note_on_c, 0, 68, 71
1, 776422, Note_on_c, 0, 56, 61
1, 776436, Note_off_c, 0, 68, 65
1, 776443, Note_off_c, 0, 56, 62
1, 776548, Note_on_c, 0, 68, 65
1, 776552, Note_on_c, 0, 65, 75
1, 776560, Note_on_c, 0, 61, 66
1, 776572, Note_off_c, 0, 68, 64
1, 776575, Note_off_c, 0, 65, 70
1, 776585, Note_off_c, 0, 61, 64
1, 776824, Note_on_c, 0, 62, 77
1, 776825, Note_on_c, 0, 68, 72
1, 776827, Note_on_c, 0, 65, 73
1, 776829, Note_on_c, 0, 56, 66
1, 776893, Note_off_c, 0, 62, 61
1, 776926, Note_on_c, 0, 61, 70
1, 776975, Note_off_c, 0, 65, 56
1, 777008, Note_off_c, 0, 61, 62
1, 777040, Note_on_c, 0, 60, 69
1, 777064, Note_off_c, 0, 68, 57
1, 777065, Note_off_c, 0, 60, 67
1, 777075, Note_off_c, 0, 56, 61
1, 777275, Note_on_c, 0, 61, 67
1, 777280, Note_on_c, 0, 56, 59
1, 777288, Note_on_c, 0, 65, 56
1, 777299, Note_on_c, 0, 68, 28
1, 777304, Note_off_c, 0, 56, 60
1, 777329, Note_off_c, 0, 65, 59
1, 777336, Note_off_c, 0, 68, 33
1, 777360, Note_off_c, 0, 61, 55
1, 777379, Note_on_c, 0, 60, 66
1, 777448, Note_off_c, 0, 60, 57
1, 777479, Note_on_c, 0, 59, 68
1, 777482, Note_on_c, 0, 65, 61
1, 777486, Note_on_c, 0, 61, 58
1, 777511, Note_off_c, 0, 59, 65
1, 777516, Note_on_c, 0, 68, 17
1, 777521, Note_off_c, 0, 65, 65
1, 777526, Note_off_c, 0, 61, 63
1, 777553, Control_c, 0, 67, 45
1, 777562, Note_off_c, 0, 68, 29
1, 777568, Control_c, 0, 67, 65
1, 777582, Control_c, 0, 67, 77
1, 777597, Control_c, 0, 67, 86
1, 777612, Control_c, 0, 67, 94
1, 777628, Control_c, 0, 67, 98
1, 777716, Control_c, 0, 67, 96
1, 777731, Control_c, 0, 67, 94
1, 777734, Note_on_c, 0, 60, 67
1, 777740, Note_on_c, 0, 68, 46
1, 777742, Note_on_c, 0, 65, 49
1, 777743, Note_on_c, 0, 56, 46
1, 777745, Control_c, 0, 67, 93
1, 777760, Control_c, 0, 67, 92
1, 777765, Note_off_c, 0, 68, 38
1, 777769, Note_off_c, 0, 60, 60
1, 777772, Note_off_c, 0, 56, 55
1, 777775, Note_off_c, 0, 65, 59
1, 777775, Control_c, 0, 67, 92
1, 777790, Control_c, 0, 67, 91
1, 777804, Control_c, 0, 67, 90
1, 777834, Control_c, 0, 67, 90
1, 777837, Note_on_c, 0, 59, 64
1, 777849, Control_c, 0, 67, 89
1, 777864, Control_c, 0, 67, 88
1, 777878, Note_off_c, 0, 59, 61
1, 777879, Control_c, 0, 67, 88
1, 777894, Control_c, 0, 67, 86
1, 777909, Control_c, 0, 67, 86
1, 777923, Control_c, 0, 67, 85
1, 777938, Control_c, 0, 67, 85
1, 777948, Note_on_c, 0, 58, 55
1, 777953, Note_on_c, 0, 63, 56
1, 777953, Control_c, 0, 67, 84
1, 777958, Note_on_c, 0, 68, 40
1, 777968, Control_c, 0, 67, 83
1, 777970, Note_off_c, 0, 58, 59
1, 777977, Note_off_c, 0, 63, 63
1, 777983, Note_on_c, 0, 66, 6
1, 777983, Note_off_c, 0, 66, 127
1, 777988, Note_off_c, 0, 68, 53
1, 777997, Control_c, 0, 67, 83
1, 778086, Control_c, 0, 67, 83
1, 778188, Note_on_c, 0, 57, 66
1, 778189, Control_c, 0, 67, 83
1, 778194, Note_on_c, 0, 68, 54
1, 778195, Note_on_c, 0, 56, 53
1, 778198, Note_on_c, 0, 66, 59
1, 778216, Note_off_c, 0, 57, 64
1, 778255, Note_off_c, 0, 68, 0
1, 778260, Note_off_c, 0, 56, 0
1, 778260, Note_on_c, 0, 56, 23
1, 778271, Control_c, 0, 67, 83
1, 778292, Poly_aftertouch_c, 0, 68, 127
1, 778300, Note_on_c, 0, 58, 68
1, 778330, Control_c, 0, 67, 84
1, 778338, Note_off_c, 0, 58, 60
1, 778375, Control_c, 0, 67, 83
1, 778404, Control_c, 0, 67, 83
1, 778407, Note_off_c, 0, 66, 37
1, 778412, Note_on_c, 0, 59, 71
1, 778419, Note_off_c, 0, 56, 57
1, 778420, Poly_aftertouch_c, 0, 68, 0
1, 778434, Control_c, 0, 67, 82
1, 778441, Note_off_c, 0, 59, 67
1, 778464, Control_c, 0, 67, 81
1, 778627, Control_c, 0, 67, 81
1, 778642, Control_c, 0, 67, 80
1, 778647, Note_on_c, 0, 58, 69
1, 778649, Note_on_c, 0, 68, 54
1, 778650, Note_on_c, 0, 56, 57
1, 778657, Control_c, 0, 67, 79
1, 778657, Note_on_c, 0, 66, 59
1, 778672, Control_c, 0, 67, 79
1, 778672, Note_off_c, 0, 68, 61
1, 778673, Note_off_c, 0, 56, 59
1, 778676, Note_off_c, 0, 58, 65
1, 778687, Control_c, 0, 67, 78
1, 778693, Note_off_c, 0, 66, 65
1, 778701, Control_c, 0, 67, 77
1, 778731, Control_c, 0, 67, 76
1, 778742, Note_on_c, 0, 59, 67
1, 778760, Control_c, 0, 67, 75
1, 778775, Control_c, 0, 67, 75
1, 778783, Note_off_c, 0, 59, 64
1, 778790, Control_c, 0, 67, 73
1, 778845, Note_on_c, 0, 60, 72
1, 778846, Note_on_c, 0, 63, 63
1, 778849, Note_on_c, 0, 68, 42
1, 778849, Control_c, 0, 67, 73
1, 778857, Note_on_c, 0, 66, 55
1, 778871, Note_off_c, 0, 60, 70
1, 778875, Note_off_c, 0, 63, 64
1, 778877, Note_off_c, 0, 68, 54
1, 778878, Note_off_c, 0, 66, 61
1, 778923, Control_c, 0, 67, 72
1, 778967, Control_c, 0, 67, 71
1, 779005, Control_c, 0, 67, 71
1, 779019, Control_c, 0, 67, 70
1, 779034, Control_c, 0, 67, 69
1, 779049, Control_c, 0, 67, 68
1, 779078, Control_c, 0, 67, 68
1, 779092, Note_on_c, 0, 59, 68
1, 779102, Note_on_c, 0, 68, 56
1, 779104, Note_on_c, 0, 66, 56
1, 779106, Note_on_c, 0, 56, 54
1, 779122, Note_off_c, 0, 59, 67
1, 779124, Note_off_c, 0, 68, 62
1, 779131, Note_off_c, 0, 56, 58
1, 779137, Note_off_c, 0, 66, 63
1, 779152, Control_c, 0, 67, 67
1, 779190, Note_on_c, 0, 60, 71
1, 779221, Note_off_c, 0, 60, 63
1, 779257, Control_c, 0, 67, 64
1, 779272, Control_c, 0, 67, 60
1, 779287, Control_c, 0, 67, 45
1, 779302, Control_c, 0, 67, 0
1, 779310, Note_on_c, 0, 65, 66
1, 779312, Note_on_c, 0, 61, 70
1, 779313, Note_on_c, 0, 68, 61
1, 779316, Control_c, 0, 64, 36
1, 779331, Control_c, 0, 64, 58
1, 779334, Note_off_c, 0, 68, 64
1, 779340, Note_off_c, 0, 65, 64
1, 779342, Note_off_c, 0, 61, 65
1, 779346, Control_c, 0, 64, 62
1, 779361, Control_c, 0, 64, 64
1, 779375, Control_c, 0, 64, 66
1, 779390, Control_c, 0, 64, 68
1, 779405, Control_c, 0, 64, 70
1, 779420, Control_c, 0, 64, 71
1, 779435, Control_c, 0, 64, 72
1, 779450, Control_c, 0, 64, 72
1, 779465, Control_c, 0, 64, 73
1, 779480, Control_c, 0, 64, 73
1, 779539, Control_c, 0, 64, 72
1, 779554, Control_c, 0, 64, 63
1, 779568, Control_c, 0, 64, 34
1, 779581, Note_on_c, 0, 68, 59
1, 779583, Control_c, 0, 64, 0
1, 779584, Note_on_c, 0, 62, 78
1, 779586, Note_on_c, 0, 65, 68
1, 779589, Note_on_c, 0, 56, 53
1, 779636, Note_off_c, 0, 56, 0
1, 779636, Note_on_c, 0, 56, 9
1, 779646, Note_off_c, 0, 62, 63
1, 779698, Note_on_c, 0, 61, 82
1, 779778, Note_off_c, 0, 61, 59
1, 779829, Note_on_c, 0, 60, 81
1, 779848, Note_off_c, 0, 65, 59
1, 779860, Note_off_c, 0, 60, 68
1, 779861, Note_off_c, 0, 68, 58
1, 779867, Note_off_c, 0, 56, 57
1, 780080, Note_on_c, 0, 56, 70
1, 780082, Note_on_c, 0, 61, 71
1, 780084, Note_on_c, 0, 65, 67
1, 780085, Note_on_c, 0, 68, 56
1, 780108, Note_off_c, 0, 68, 62
1, 780109, Note_off_c, 0, 56, 63
1, 780124, Note_off_c, 0, 61, 63
1, 780131, Note_off_c, 0, 65, 58
1, 780180, Note_on_c, 0, 60, 72
1, 780228, Note_off_c, 0, 60, 59
1, 780282, Note_on_c, 0, 59, 65
1, 780284, Note_on_c, 0, 65, 55
1, 780287, Note_on_c, 0, 61, 54
1, 780298, Note_on_c, 0, 68, 35
1, 780306, Note_off_c, 0, 59, 65
1, 780310, Note_off_c, 0, 61, 62
1, 780311, Note_off_c, 0, 65, 64
1, 780329, Note_off_c, 0, 68, 35
1, 780528, Note_on_c, 0, 68, 61
1, 780532, Note_on_c, 0, 56, 58
1, 780533, Note_on_c, 0, 65, 63
1, 780535, Note_on_c, 0, 60, 63
1, 780547, Note_off_c, 0, 68, 63
1, 780555, Note_off_c, 0, 56, 59
1, 780569, Note_off_c, 0, 60, 63
1, 780576, Note_off_c, 0, 65, 59
1, 780624, Note_on_c, 0, 59, 64
1, 780664, Note_off_c, 0, 59, 61
1, 780726, Note_on_c, 0, 58, 70
1, 780736, Note_on_c, 0, 63, 62
1, 780738, Note_on_c, 0, 66, 55
1, 780738, Note_on_c, 0, 68, 35
1, 780752, Note_off_c, 0, 58, 66
1, 780760, Note_off_c, 0, 66, 60
1, 780766, Note_off_c, 0, 63, 65
1, 780770, Note_off_c, 0, 68, 46
1, 780990, Note_on_c, 0, 57, 70
1, 780995, Note_on_c, 0, 68, 52
1, 781000, Note_on_c, 0, 66, 59
1, 781007, Note_on_c, 0, 56, 44
1, 781018, Note_off_c, 0, 57, 66
1, 781043, Note_off_c, 0, 68, 0
1, 781066, Control_c, 0, 67, 43
1, 781080, Poly_aftertouch_c, 0, 68, 127
1, 781081, Control_c, 0, 67, 54
1, 781091, Note_on_c, 0, 58, 70
1, 781095, Control_c, 0, 67, 67
1, 781110, Control_c, 0, 67, 77
1, 781125, Control_c, 0, 67, 83
1, 781140, Control_c, 0, 67, 88
1, 781143, Note_off_c, 0, 58, 58
1, 781155, Control_c, 0, 67, 89
1, 781185, Control_c, 0, 67, 90
1, 781192, Note_off_c, 0, 66, 46
1, 781202, Note_on_c, 0, 59, 70
1, 781206, Poly_aftertouch_c, 0, 68, 0
1, 781206, Note_off_c, 0, 56, 56
1, 781229, Note_off_c, 0, 59, 67
1, 781266, Control_c, 0, 67, 90
1, 781295, Control_c, 0, 67, 91
1, 781310, Control_c, 0, 67, 92
1, 781370, Control_c, 0, 67, 91
1, 781384, Control_c, 0, 67, 90
1, 781399, Control_c, 0, 67, 90
1, 781414, Control_c, 0, 67, 88
1, 781429, Control_c, 0, 67, 87
1, 781444, Control_c, 0, 67, 86
1, 781456, Note_on_c, 0, 58, 62
1, 781457, Note_on_c, 0, 56, 47
1, 781459, Control_c, 0, 67, 85
1, 781460, Note_on_c, 0, 66, 60
1, 781461, Note_on_c, 0, 68, 40
1, 781473, Control_c, 0, 67, 85
1, 781484, Note_off_c, 0, 56, 55
1, 781484, Note_off_c, 0, 58, 65
1, 781488, Control_c, 0, 67, 83
1, 781489, Note_off_c, 0, 68, 55
1, 781501, Note_off_c, 0, 66, 60
1, 781503, Control_c, 0, 67, 83
1, 781518, Control_c, 0, 67, 82
1, 781547, Control_c, 0, 67, 81
1, 781548, Note_on_c, 0, 59, 63
1, 781577, Control_c, 0, 67, 81
1, 781595, Note_off_c, 0, 59, 58
1, 781608, Control_c, 0, 67, 80
1, 781637, Control_c, 0, 67, 79
1, 781644, Note_on_c, 0, 63, 64
1, 781646, Note_on_c, 0, 60, 56
1, 781650, Note_on_c, 0, 66, 57
1, 781652, Control_c, 0, 67, 79
1, 781664, Note_on_c, 0, 68, 4
1, 781667, Note_off_c, 0, 60, 62
1, 781673, Note_off_c, 0, 63, 64
1, 781677, Note_off_c, 0, 66, 64
1, 781682, Control_c, 0, 67, 78
1, 781711, Control_c, 0, 67, 77
1, 781712, Note_off_c, 0, 68, 28
1, 781770, Control_c, 0, 67, 77
1, 781800, Control_c, 0, 67, 76
1, 781888, Note_on_c, 0, 66, 68
1, 781888, Note_on_c, 0, 56, 67
1, 781891, Note_on_c, 0, 59, 60
1, 781902, Note_on_c, 0, 68, 43
1, 781909, Note_off_c, 0, 56, 62
1, 781920, Note_off_c, 0, 59, 65
1, 781930, Note_off_c, 0, 68, 38
1, 781930, Note_off_c, 0, 66, 54
1, 781996, Note_on_c, 0, 60, 63
1, 782028, Note_off_c, 0, 60, 64
1, 782059, Control_c, 0, 67, 75
1, 782074, Control_c, 0, 67, 73
1, 782088, Control_c, 0, 67, 69
1, 782103, Control_c, 0, 67, 66
1, 782112, Note_on_c, 0, 65, 67
1, 782118, Control_c, 0, 64, 55
1, 782118, Control_c, 0, 67, 64
1, 782121, Note_on_c, 0, 68, 58
1, 782124, Note_on_c, 0, 61, 55
1, 782133, Control_c, 0, 64, 63
1, 782133, Control_c, 0, 67, 62
1, 782137, Note_off_c, 0, 65, 68
1, 782142, Note_off_c, 0, 68, 62
1, 782146, Note_off_c, 0, 61, 60
1, 782148, Control_c, 0, 64, 64
1, 782148, Control_c, 0, 67, 60
1, 782162, Control_c, 0, 64, 66
1, 782162, Control_c, 0, 67, 60
1, 782177, Control_c, 0, 64, 67
1, 782177, Control_c, 0, 67, 59
1, 782192, Control_c, 0, 64, 68
1, 782207, Control_c, 0, 64, 68
1, 782222, Control_c, 0, 64, 69
1, 782237, Control_c, 0, 64, 69
1, 782252, Control_c, 0, 64, 70
1, 782252, Control_c, 0, 67, 60
1, 782267, Control_c, 0, 64, 70
1, 782267, Control_c, 0, 67, 60
1, 782311, Control_c, 0, 64, 68
1, 782326, Control_c, 0, 64, 61
1, 782326, Control_c, 0, 67, 60
1, 782339, Note_on_c, 0, 66, 87
1, 782341, Control_c, 0, 64, 41
1, 782341, Control_c, 0, 67, 58
1, 782347, Note_on_c, 0, 62, 71
1, 782355, Note_on_c, 0, 60, 65
1, 782356, Control_c, 0, 64, 0
1, 782356, Control_c, 0, 67, 56
1, 782359, Note_off_c, 0, 66, 71
1, 782370, Control_c, 0, 67, 54
1, 782373, Note_off_c, 0, 62, 68
1, 782377, Note_off_c, 0, 60, 64
1, 782385, Control_c, 0, 67, 53
1, 782393, Note_on_c, 0, 64, 67
1, 782400, Control_c, 0, 64, 32
1, 782400, Control_c, 0, 67, 51
1, 782416, Control_c, 0, 64, 39
1, 782416, Control_c, 0, 67, 49
1, 782431, Control_c, 0, 64, 40
1, 782431, Control_c, 0, 67, 46
1, 782434, Note_off_c, 0, 64, 60
1, 782446, Control_c, 0, 64, 40
1, 782446, Control_c, 0, 67, 0
1, 782448, Note_on_c, 0, 69, 73
1, 782460, Control_c, 0, 64, 39
1, 782475, Control_c, 0, 64, 39
1, 782490, Control_c, 0, 64, 38
1, 782496, Note_off_c, 0, 69, 62
1, 782504, Control_c, 0, 64, 38
1, 782508, Note_on_c, 0, 74, 57
1, 782519, Control_c, 0, 64, 37
1, 782528, Note_on_c, 0, 66, 75
1, 782533, Note_on_c, 0, 72, 44
1, 782535, Note_off_c, 0, 74, 63
1, 782553, Note_off_c, 0, 66, 70
1, 782563, Note_off_c, 0, 72, 53
1, 782579, Control_c, 0, 64, 38
1, 782593, Control_c, 0, 64, 38
1, 782599, Note_on_c, 0, 69, 66
1, 782623, Control_c, 0, 64, 38
1, 782625, Note_off_c, 0, 69, 69
1, 782638, Control_c, 0, 64, 30
1, 782642, Note_on_c, 0, 76, 71
1, 782652, Control_c, 0, 64, 0
1, 782663, Note_off_c, 0, 76, 72
1, 782704, Note_on_c, 0, 78, 75
1, 782721, Note_off_c, 0, 78, 62
1, 782724, Note_on_c, 0, 74, 47
1, 782751, Note_on_c, 0, 72, 10
1, 782756, Note_off_c, 0, 74, 57
1, 782780, Note_on_c, 0, 76, 74
1, 782797, Note_off_c, 0, 72, 28
1, 782830, Note_off_c, 0, 76, 64
1, 782836, Note_on_c, 0, 81, 70
1, 782867, Note_off_c, 0, 81, 59
1, 782892, Note_on_c, 0, 86, 76
1, 782899, Note_on_c, 0, 78, 64
1, 782912, Note_off_c, 0, 86, 72
1, 782915, Note_off_c, 0, 78, 62
1, 783119, Control_c, 0, 64, 47
1, 783122, Note_on_c, 0, 94, 98
1, 783123, Note_on_c, 0, 80, 93
1, 783125, Note_on_c, 0, 78, 67
1, 783128, Note_on_c, 0, 68, 76
1, 783134, Control_c, 0, 64, 60
1, 783149, Control_c, 0, 64, 61
1, 783151, Note_off_c, 0, 78, 66
1, 783161, Note_off_c, 0, 80, 65
1, 783164, Note_off_c, 0, 94, 63
1, 783179, Control_c, 0, 64, 61
1, 783199, Note_off_c, 0, 68, 57
1, 783222, Note_on_c, 0, 75, 73
1, 783224, Note_on_c, 0, 84, 80
1, 783239, Control_c, 0, 64, 62
1, 783288, Note_off_c, 0, 75, 64
1, 783291, Note_off_c, 0, 84, 65
1, 783298, Control_c, 0, 64, 60
1, 783313, Control_c, 0, 64, 49
1, 783328, Control_c, 0, 64, 0
1, 783330, Note_on_c, 0, 77, 81
1, 783331, Note_on_c, 0, 92, 96
1, 783333, Note_on_c, 0, 73, 81
1, 783333, Note_on_c, 0, 80, 92
1, 783346, Note_off_c, 0, 92, 76
1, 783347, Note_off_c, 0, 80, 76
1, 783349, Note_off_c, 0, 77, 72
1, 783350, Note_off_c, 0, 73, 72
1, 783567, Note_on_c, 0, 66, 75
1, 783573, Note_on_c, 0, 62, 67
1, 783577, Note_on_c, 0, 60, 65
1, 783587, Control_c, 0, 64, 42
1, 783590, Note_off_c, 0, 66, 70
1, 783602, Note_off_c, 0, 62, 65
1, 783602, Control_c, 0, 64, 55
1, 783605, Note_off_c, 0, 60, 65
1, 783616, Note_on_c, 0, 64, 78
1, 783616, Control_c, 0, 64, 56
1, 783631, Control_c, 0, 64, 57
1, 783646, Control_c, 0, 64, 58
1, 783661, Control_c, 0, 64, 59
1, 783668, Note_off_c, 0, 64, 62
1, 783676, Control_c, 0, 64, 61
1, 783679, Note_on_c, 0, 69, 64
1, 783690, Control_c, 0, 64, 61
1, 783705, Control_c, 0, 64, 62
1, 783720, Control_c, 0, 64, 62
1, 783728, Note_on_c, 0, 74, 65
1, 783734, Note_off_c, 0, 69, 64
1, 783742, Note_on_c, 0, 72, 68
1, 783749, Control_c, 0, 64, 63
1, 783750, Note_on_c, 0, 66, 84
1, 783759, Note_off_c, 0, 74, 64
1, 783771, Note_off_c, 0, 66, 72
1, 783779, Control_c, 0, 64, 63
1, 783783, Note_off_c, 0, 72, 48
1, 783794, Control_c, 0, 64, 64
1, 783808, Control_c, 0, 64, 65
1, 783821, Note_on_c, 0, 69, 79
1, 783823, Control_c, 0, 64, 66
1, 783838, Control_c, 0, 64, 67
1, 783839, Note_off_c, 0, 69, 72
1, 783853, Control_c, 0, 64, 67
1, 783863, Note_on_c, 0, 76, 87
1, 783894, Note_off_c, 0, 76, 70
1, 783930, Note_on_c, 0, 78, 92
1, 783938, Note_on_c, 0, 72, 76
1, 783939, Note_on_c, 0, 74, 76
1, 783950, Note_off_c, 0, 78, 66
1, 783952, Note_off_c, 0, 72, 70
1, 783960, Note_off_c, 0, 74, 72
1, 784009, Note_on_c, 0, 76, 86
1, 784055, Note_off_c, 0, 76, 68
1, 784058, Note_on_c, 0, 81, 87
1, 784061, Control_c, 0, 64, 68
1, 784076, Control_c, 0, 64, 69
1, 784091, Control_c, 0, 64, 71
1, 784106, Control_c, 0, 64, 72
1, 784110, Note_on_c, 0, 86, 100
1, 784116, Note_off_c, 0, 81, 67
1, 784121, Control_c, 0, 64, 71
1, 784124, Note_on_c, 0, 78, 92
1, 784128, Note_on_c, 0, 84, 62
1, 784136, Control_c, 0, 64, 62
1, 784137, Note_off_c, 0, 86, 70
1, 784140, Note_off_c, 0, 78, 72
1, 784148, Note_off_c, 0, 84, 62
1, 784151, Control_c, 0, 64, 0
1, 784378, Note_on_c, 0, 80, 95
1, 784379, Note_on_c, 0, 94, 94
1, 784380, Control_c, 0, 64, 57
1, 784389, Note_on_c, 0, 68, 76
1, 784392, Note_on_c, 0, 78, 62
1, 784395, Control_c, 0, 64, 65
1, 784411, Note_off_c, 0, 78, 63
1, 784416, Note_off_c, 0, 80, 66
1, 784417, Note_off_c, 0, 94, 65
1, 784439, Control_c, 0, 64, 65
1, 784454, Control_c, 0, 64, 66
1, 784469, Control_c, 0, 64, 66
1, 784474, Note_off_c, 0, 68, 49
1, 784482, Note_on_c, 0, 84, 74
1, 784483, Note_on_c, 0, 75, 72
1, 784483, Control_c, 0, 64, 67
1, 784498, Control_c, 0, 64, 67
1, 784555, Note_off_c, 0, 84, 65
1, 784557, Control_c, 0, 64, 67
1, 784562, Note_off_c, 0, 75, 58
1, 784572, Control_c, 0, 64, 61
1, 784587, Control_c, 0, 64, 0
1, 784588, Note_on_c, 0, 77, 83
1, 784589, Note_on_c, 0, 92, 97
1, 784590, Note_on_c, 0, 80, 87
1, 784594, Note_on_c, 0, 73, 78
1, 784606, Note_off_c, 0, 80, 76
1, 784607, Note_off_c, 0, 77, 72
1, 784616, Note_off_c, 0, 73, 69
1, 784619, Note_off_c, 0, 92, 63
1, 784824, Note_on_c, 0, 80, 98
1, 784824, Note_on_c, 0, 94, 96
1, 784825, Control_c, 0, 64, 38
1, 784828, Note_on_c, 0, 78, 79
1, 784833, Note_on_c, 0, 68, 79
1, 784840, Control_c, 0, 64, 61
1, 784854, Control_c, 0, 64, 63
1, 784856, Note_off_c, 0, 78, 57
1, 784865, Note_off_c, 0, 80, 66
1, 784869, Note_off_c, 0, 94, 64
1, 784884, Control_c, 0, 64, 64
1, 784899, Control_c, 0, 64, 64
1, 784907, Note_off_c, 0, 68, 54
1, 784914, Control_c, 0, 64, 65
1, 784920, Note_on_c, 0, 85, 61
1, 784929, Note_on_c, 0, 75, 74
1, 784936, Note_on_c, 0, 84, 77
1, 784940, Note_off_c, 0, 85, 42
1, 784973, Control_c, 0, 64, 62
1, 784995, Control_c, 0, 64, 51
1, 785009, Note_off_c, 0, 75, 60
1, 785010, Control_c, 0, 64, 0
1, 785011, Note_off_c, 0, 84, 63
1, 785037, Note_on_c, 0, 92, 99
1, 785039, Note_on_c, 0, 80, 90
1, 785040, Note_on_c, 0, 77, 84
1, 785045, Note_on_c, 0, 73, 78
1, 785054, Note_off_c, 0, 80, 75
1, 785058, Note_off_c, 0, 77, 74
1, 785064, Note_off_c, 0, 73, 71
1, 785075, Note_off_c, 0, 92, 64
1, 785248, Control_c, 0, 64, 45
1, 785260, Note_on_c, 0, 80, 100
1, 785260, Note_on_c, 0, 94, 94
1, 785262, Control_c, 0, 64, 62
1, 785263, Note_on_c, 0, 78, 86
1, 785265, Note_on_c, 0, 68, 87
1, 785300, Note_off_c, 0, 94, 65
1, 785303, Note_off_c, 0, 80, 65
1, 785306, Control_c, 0, 64, 63
1, 785312, Note_off_c, 0, 78, 57
1, 785321, Control_c, 0, 64, 65
1, 785336, Control_c, 0, 64, 68
1, 785351, Control_c, 0, 64, 70
1, 785355, Note_on_c, 0, 84, 83
1, 785355, Note_off_c, 0, 68, 59
1, 785360, Note_on_c, 0, 75, 80
1, 785366, Control_c, 0, 64, 71
1, 785380, Control_c, 0, 64, 72
1, 785395, Control_c, 0, 64, 72
1, 785420, Note_off_c, 0, 75, 64
1, 785425, Control_c, 0, 64, 69
1, 785427, Note_off_c, 0, 84, 65
1, 785440, Control_c, 0, 64, 51
1, 785454, Control_c, 0, 64, 0
1, 785458, Note_on_c, 0, 73, 90
1, 785459, Note_on_c, 0, 77, 88
1, 785459, Note_on_c, 0, 92, 98
1, 785464, Note_on_c, 0, 80, 86
1, 785475, Note_off_c, 0, 77, 75
1, 785482, Note_off_c, 0, 80, 72
1, 785483, Note_off_c, 0, 92, 67
1, 785485, Note_off_c, 0, 73, 67
1, 785692, Control_c, 0, 64, 63
1, 785695, Note_on_c, 0, 80, 98
1, 785695, Note_on_c, 0, 94, 98
1, 785698, Note_on_c, 0, 78, 84
1, 785702, Note_on_c, 0, 68, 82
1, 785707, Control_c, 0, 64, 70
1, 785735, Note_off_c, 0, 78, 56
1, 785738, Note_off_c, 0, 80, 67
1, 785740, Note_off_c, 0, 94, 64
1, 785759, Control_c, 0, 64, 71
1, 785774, Control_c, 0, 64, 72
1, 785785, Note_off_c, 0, 68, 59
1, 785789, Control_c, 0, 64, 73
1, 785801, Note_on_c, 0, 75, 83
1, 785804, Control_c, 0, 64, 74
1, 785807, Note_on_c, 0, 84, 75
1, 785817, Note_on_c, 0, 83, 71
1, 785818, Control_c, 0, 64, 75
1, 785833, Control_c, 0, 64, 76
1, 785835, Note_off_c, 0, 83, 59
1, 785848, Control_c, 0, 64, 77
1, 785863, Control_c, 0, 64, 78
1, 785866, Note_off_c, 0, 75, 65
1, 785871, Note_off_c, 0, 84, 64
1, 785892, Control_c, 0, 64, 74
1, 785906, Note_on_c, 0, 73, 88
1, 785907, Note_on_c, 0, 80, 94
1, 785907, Control_c, 0, 64, 56
1, 785908, Note_on_c, 0, 92, 97
1, 785909, Note_on_c, 0, 77, 78
1, 785922, Control_c, 0, 64, 0
1, 785923, Note_off_c, 0, 77, 69
1, 785924, Note_off_c, 0, 80, 71
1, 785924, Note_off_c, 0, 73, 70
1, 785925, Note_off_c, 0, 92, 74
1, 785996, Control_c, 0, 67, 51
1, 786011, Control_c, 0, 67, 79
1, 786026, Control_c, 0, 67, 96
1, 786041, Control_c, 0, 67, 104
1, 786055, Control_c, 0, 67, 112
1, 786070, Control_c, 0, 67, 124
1, 786085, Control_c, 0, 67, 127
1, 786161, Note_on_c, 0, 68, 75
1, 786161, Note_on_c, 0, 82, 63
1, 786169, Note_on_c, 0, 56, 61
1, 786190, Note_off_c, 0, 82, 60
1, 786222, Note_off_c, 0, 68, 60
1, 786233, Note_off_c, 0, 56, 52
1, 786262, Note_on_c, 0, 72, 64
1, 786267, Note_on_c, 0, 63, 63
1, 786341, Note_off_c, 0, 72, 62
1, 786344, Note_off_c, 0, 63, 59
1, 786366, Control_c, 0, 67, 120
1, 786375, Note_on_c, 0, 80, 87
1, 786378, Note_on_c, 0, 68, 69
1, 786381, Control_c, 0, 67, 98
1, 786383, Note_on_c, 0, 65, 69
1, 786385, Note_on_c, 0, 61, 66
1, 786397, Control_c, 0, 67, 41
1, 786405, Note_off_c, 0, 68, 69
1, 786407, Note_off_c, 0, 65, 69
1, 786412, Note_off_c, 0, 61, 66
1, 786412, Control_c, 0, 67, 0
1, 786418, Note_off_c, 0, 80, 66
1, 786655, Note_on_c, 0, 81, 107
1, 786661, Note_on_c, 0, 76, 95
1, 786663, Note_on_c, 0, 69, 93
1, 786666, Note_on_c, 0, 80, 86
1, 786669, Note_on_c, 0, 61, 87
1, 786670, Note_on_c, 0, 71, 84
1, 786731, Control_c, 0, 64, 58
1, 786735, Note_off_c, 0, 71, 57
1, 786746, Control_c, 0, 64, 64
1, 786760, Control_c, 0, 64, 66
1, 786775, Control_c, 0, 64, 68
1, 786790, Control_c, 0, 64, 71
1, 786792, Note_off_c, 0, 61, 60
1, 786805, Control_c, 0, 64, 75
1, 786820, Control_c, 0, 64, 78
1, 786821, Note_off_c, 0, 76, 61
1, 786834, Control_c, 0, 64, 81
1, 786841, Note_off_c, 0, 80, 61
1, 786842, Note_off_c, 0, 81, 62
1, 786849, Control_c, 0, 64, 82
1, 786864, Note_on_c, 0, 74, 102
1, 786864, Control_c, 0, 64, 83
1, 786865, Note_on_c, 0, 78, 98
1, 786878, Control_c, 0, 64, 83
1, 786893, Note_on_c, 0, 80, 45
1, 786893, Control_c, 0, 64, 84
1, 786919, Note_off_c, 0, 80, 55
1, 786923, Control_c, 0, 64, 84
1, 786932, Note_off_c, 0, 74, 63
1, 786938, Control_c, 0, 64, 85
1, 786953, Control_c, 0, 64, 86
1, 786968, Control_c, 0, 64, 88
1, 786969, Note_off_c, 0, 78, 62
1, 786983, Control_c, 0, 64, 90
1, 786998, Control_c, 0, 64, 93
1, 787012, Control_c, 0, 64, 98
1, 787027, Control_c, 0, 64, 104
1, 787027, Note_on_c, 0, 61, 88
1, 787033, Note_off_c, 0, 69, 64
1, 787042, Control_c, 0, 64, 110
1, 787057, Control_c, 0, 64, 112
1, 787072, Control_c, 0, 64, 109
1, 787086, Control_c, 0, 64, 84
1, 787101, Control_c, 0, 64, 55
1, 787114, Note_on_c, 0, 85, 100
1, 787116, Control_c, 0, 64, 0
1, 787117, Note_on_c, 0, 77, 103
1, 787117, Note_on_c, 0, 68, 92
1, 787118, Note_on_c, 0, 73, 97
1, 787175, Control_c, 0, 64, 53
1, 787178, Note_off_c, 0, 73, 64
1, 787188, Note_off_c, 0, 61, 65
1, 787188, Note_off_c, 0, 68, 68
1, 787190, Control_c, 0, 64, 82
1, 787192, Note_off_c, 0, 85, 65
1, 787195, Note_off_c, 0, 77, 69
1, 787206, Control_c, 0, 64, 127
1, 787687, Control_c, 0, 64, 124
1, 787701, Control_c, 0, 64, 67
1, 787716, Control_c, 0, 64, 0
1, 788352, Note_on_c, 0, 45, 85
1, 788677, Note_on_c, 0, 61, 69
1, 788689, Note_on_c, 0, 57, 53
1, 788691, Note_on_c, 0, 54, 51
1, 788726, Note_off_c, 0, 61, 58
1, 788732, Note_off_c, 0, 57, 64
1, 788733, Note_on_c, 0, 52, 74
1, 788739, Note_off_c, 0, 54, 58
1, 788801, Note_off_c, 0, 52, 62
1, 788804, Note_on_c, 0, 61, 70
1, 788810, Note_on_c, 0, 57, 60
1, 788831, Note_on_c, 0, 54, 50
1, 788833, Note_off_c, 0, 61, 65
1, 788835, Note_off_c, 0, 57, 57
1, 788846, Note_on_c, 0, 52, 74
1, 788862, Note_off_c, 0, 54, 64
1, 788899, Note_on_c, 0, 61, 89
1, 788902, Note_on_c, 0, 54, 84
1, 788907, Note_on_c, 0, 57, 71
1, 788909, Note_off_c, 0, 52, 62
1, 788923, Note_off_c, 0, 54, 71
1, 788932, Note_off_c, 0, 61, 65
1, 788934, Note_off_c, 0, 57, 66
1, 789183, Note_on_c, 0, 40, 77
1, 789191, Note_off_c, 0, 45, 63
1, 789437, Note_on_c, 0, 47, 83
1, 789448, Note_off_c, 0, 40, 62
1, 789456, Note_off_c, 0, 47, 69
1, 789702, Note_on_c, 0, 52, 70
1, 789704, Note_on_c, 0, 56, 69
1, 789704, Note_on_c, 0, 64, 66
1, 789712, Note_on_c, 0, 62, 56
1, 789730, Note_off_c, 0, 52, 68
1, 789734, Note_off_c, 0, 56, 66
1, 789734, Note_off_c, 0, 64, 66
1, 789735, Note_off_c, 0, 62, 60
1, 790037, Note_on_c, 0, 45, 82
1, 790185, Control_c, 0, 67, 53
1, 790200, Control_c, 0, 67, 78
1, 790215, Control_c, 0, 67, 102
1, 790237, Control_c, 0, 67, 115
1, 790252, Control_c, 0, 67, 122
1, 790337, Note_on_c, 0, 61, 67
1, 790339, Note_on_c, 0, 54, 57
1, 790341, Control_c, 0, 67, 119
1, 790349, Note_on_c, 0, 57, 51
1, 790369, Note_off_c, 0, 61, 63
1, 790371, Control_c, 0, 67, 117
1, 790373, Note_off_c, 0, 57, 61
1, 790378, Note_off_c, 0, 54, 60
1, 790387, Note_on_c, 0, 52, 74
1, 790416, Control_c, 0, 67, 115
1, 790446, Note_on_c, 0, 61, 73
1, 790447, Note_off_c, 0, 52, 63
1, 790448, Note_on_c, 0, 57, 68
1, 790471, Note_on_c, 0, 54, 40
1, 790474, Note_off_c, 0, 61, 65
1, 790475, Control_c, 0, 67, 113
1, 790476, Note_off_c, 0, 57, 65
1, 790494, Note_on_c, 0, 52, 69
1, 790500, Note_off_c, 0, 54, 55
1, 790539, Note_on_c, 0, 54, 68
1, 790539, Note_on_c, 0, 57, 67
1, 790545, Note_on_c, 0, 61, 87
1, 790548, Note_off_c, 0, 52, 62
1, 790549, Control_c, 0, 67, 111
1, 790563, Note_off_c, 0, 54, 65
1, 790565, Note_off_c, 0, 61, 70
1, 790566, Note_off_c, 0, 57, 66
1, 790835, Note_on_c, 0, 40, 74
1, 790840, Note_off_c, 0, 45, 63
1, 790890, Control_c, 0, 67, 109
1, 791016, Control_c, 0, 67, 107
1, 791117, Note_on_c, 0, 47, 75
1, 791123, Note_off_c, 0, 40, 63
1, 791140, Note_off_c, 0, 47, 67
1, 791439, Note_on_c, 0, 64, 64
1, 791439, Note_on_c, 0, 52, 61
1, 791444, Note_on_c, 0, 56, 58
1, 791459, Note_on_c, 0, 62, 42
1, 791463, Note_off_c, 0, 52, 61
1, 791467, Note_off_c, 0, 56, 59
1, 791468, Note_off_c, 0, 64, 67
1, 791487, Note_off_c, 0, 62, 52
1, 791955, Control_c, 0, 67, 105
1, 791987, Note_on_c, 0, 76, 80
1, 791999, Note_on_c, 0, 57, 39
1, 792016, Control_c, 0, 67, 103
1, 792045, Control_c, 0, 64, 51
1, 792060, Control_c, 0, 64, 62
1, 792075, Control_c, 0, 64, 65
1, 792089, Control_c, 0, 64, 69
1, 792104, Control_c, 0, 64, 72
1, 792119, Control_c, 0, 64, 76
1, 792131, Note_off_c, 0, 57, 63
1, 792134, Control_c, 0, 64, 79
1, 792149, Control_c, 0, 64, 82
1, 792164, Control_c, 0, 64, 83
1, 792178, Control_c, 0, 64, 84
1, 792193, Control_c, 0, 64, 84
1, 792327, Control_c, 0, 67, 105
1, 792333, Note_on_c, 0, 69, 53
1, 792354, Note_on_c, 0, 73, 33
1, 792357, Control_c, 0, 64, 82
1, 792360, Note_off_c, 0, 69, 56
1, 792368, Note_on_c, 0, 64, 36
1, 792371, Control_c, 0, 64, 71
1, 792386, Control_c, 0, 64, 53
1, 792387, Note_off_c, 0, 73, 51
1, 792400, Note_off_c, 0, 64, 53
1, 792401, Control_c, 0, 64, 0
1, 792401, Control_c, 0, 67, 107
1, 792408, Note_on_c, 0, 66, 60
1, 792439, Note_off_c, 0, 66, 66
1, 792460, Control_c, 0, 67, 109
1, 792533, Poly_aftertouch_c, 0, 64, 127
1, 792548, Note_on_c, 0, 64, 3
1, 792569, Note_off_c, 0, 64, 58
1, 792571, Control_c, 0, 67, 111
1, 792660, Control_c, 0, 67, 113
1, 792764, Control_c, 0, 67, 111
1, 792778, Control_c, 0, 67, 109
1, 792794, Control_c, 0, 67, 107
1, 792797, Note_on_c, 0, 69, 53
1, 792802, Note_on_c, 0, 64, 53
1, 792804, Note_on_c, 0, 73, 45
1, 792809, Control_c, 0, 67, 105
1, 792824, Control_c, 0, 64, 44
1, 792839, Control_c, 0, 64, 54
1, 792839, Control_c, 0, 67, 103
1, 792853, Note_off_c, 0, 73, 57
1, 792853, Control_c, 0, 64, 58
1, 792861, Note_off_c, 0, 76, 58
1, 792868, Control_c, 0, 64, 59
1, 792883, Control_c, 0, 64, 60
1, 792898, Control_c, 0, 64, 62
1, 792912, Control_c, 0, 64, 63
1, 792927, Control_c, 0, 64, 64
1, 792942, Control_c, 0, 64, 65
1, 792957, Control_c, 0, 64, 65
1, 792972, Control_c, 0, 64, 66
1, 793016, Control_c, 0, 64, 65
1, 793031, Control_c, 0, 64, 60
1, 793036, Note_on_c, 0, 76, 81
1, 793045, Note_off_c, 0, 69, 62
1, 793046, Note_on_c, 0, 52, 57
1, 793046, Control_c, 0, 64, 44
1, 793049, Note_off_c, 0, 64, 55
1, 793061, Control_c, 0, 64, 0
1, 793120, Control_c, 0, 64, 44
1, 793135, Control_c, 0, 64, 56
1, 793135, Control_c, 0, 67, 105
1, 793150, Control_c, 0, 64, 62
1, 793165, Control_c, 0, 64, 63
1, 793209, Control_c, 0, 64, 63
1, 793228, Note_off_c, 0, 52, 56
1, 793255, Note_off_c, 0, 76, 56
1, 793260, Control_c, 0, 64, 64
1, 793264, Note_on_c, 0, 73, 54
1, 793271, Note_on_c, 0, 69, 33
1, 793272, Note_on_c, 0, 64, 52
1, 793299, Note_off_c, 0, 73, 64
1, 793305, Control_c, 0, 64, 64
1, 793306, Note_off_c, 0, 69, 48
1, 793335, Control_c, 0, 64, 65
1, 793400, Note_on_c, 0, 76, 71
1, 793406, Note_off_c, 0, 64, 32
1, 793424, Control_c, 0, 64, 62
1, 793428, Note_off_c, 0, 76, 66
1, 793433, Note_on_c, 0, 78, 74
1, 793439, Control_c, 0, 64, 51
1, 793454, Control_c, 0, 64, 0
1, 793485, Note_on_c, 0, 76, 81
1, 793490, Note_on_c, 0, 59, 66
1, 793505, Note_off_c, 0, 78, 50
1, 793543, Control_c, 0, 64, 47
1, 793558, Control_c, 0, 64, 62
1, 793573, Control_c, 0, 64, 66
1, 793573, Note_off_c, 0, 59, 63
1, 793588, Control_c, 0, 64, 68
1, 793603, Control_c, 0, 64, 69
1, 793618, Control_c, 0, 64, 71
1, 793633, Control_c, 0, 64, 71
1, 793648, Control_c, 0, 64, 72
1, 793732, Note_on_c, 0, 68, 56
1, 793740, Note_on_c, 0, 64, 52
1, 793764, Note_off_c, 0, 64, 59
1, 793765, Note_off_c, 0, 68, 52
1, 793784, Note_on_c, 0, 66, 60
1, 793816, Note_off_c, 0, 66, 66
1, 793834, Note_on_c, 0, 64, 67
1, 793848, Note_off_c, 0, 76, 60
1, 793852, Note_on_c, 0, 74, 78
1, 793855, Control_c, 0, 67, 107
1, 793864, Note_off_c, 0, 64, 64
1, 793884, Control_c, 0, 64, 71
1, 793886, Note_on_c, 0, 66, 70
1, 793899, Control_c, 0, 64, 68
1, 793914, Control_c, 0, 64, 56
1, 793915, Note_off_c, 0, 66, 66
1, 793920, Note_on_c, 0, 64, 76
1, 793923, Note_off_c, 0, 74, 65
1, 793925, Note_on_c, 0, 76, 68
1, 793929, Control_c, 0, 64, 0
1, 793929, Control_c, 0, 67, 109
1, 793939, Note_off_c, 0, 64, 74
1, 793949, Note_off_c, 0, 76, 69
1, 794210, Note_on_c, 0, 76, 83
1, 794219, Note_on_c, 0, 68, 62
1, 794224, Note_on_c, 0, 64, 52
1, 794226, Note_on_c, 0, 74, 57
1, 794238, Note_off_c, 0, 68, 64
1, 794247, Note_off_c, 0, 74, 61
1, 794426, Control_c, 0, 64, 32
1, 794426, Control_c, 0, 67, 107
1, 794440, Control_c, 0, 64, 51
1, 794451, Note_on_c, 0, 52, 59
1, 794455, Control_c, 0, 64, 58
1, 794455, Control_c, 0, 67, 104
1, 794458, Note_off_c, 0, 64, 57
1, 794470, Control_c, 0, 64, 61
1, 794485, Control_c, 0, 64, 63
1, 794485, Control_c, 0, 67, 101
1, 794499, Control_c, 0, 64, 64
1, 794499, Control_c, 0, 67, 99
1, 794514, Control_c, 0, 64, 65
1, 794514, Control_c, 0, 67, 96
1, 794529, Control_c, 0, 64, 66
1, 794529, Control_c, 0, 67, 94
1, 794544, Control_c, 0, 64, 67
1, 794544, Control_c, 0, 67, 92
1, 794559, Control_c, 0, 64, 68
1, 794559, Control_c, 0, 67, 90
1, 794573, Control_c, 0, 64, 69
1, 794573, Control_c, 0, 67, 89
1, 794588, Control_c, 0, 64, 69
1, 794588, Control_c, 0, 67, 88
1, 794603, Control_c, 0, 64, 70
1, 794603, Control_c, 0, 67, 85
1, 794617, Control_c, 0, 67, 81
1, 794632, Control_c, 0, 67, 79
1, 794638, Note_off_c, 0, 52, 59
1, 794670, Note_on_c, 0, 74, 87
1, 794680, Note_off_c, 0, 76, 55
1, 794684, Note_on_c, 0, 64, 49
1, 794691, Control_c, 0, 67, 80
1, 794706, Control_c, 0, 67, 81
1, 794729, Control_c, 0, 67, 83
1, 794744, Control_c, 0, 67, 83
1, 794749, Note_off_c, 0, 74, 57
1, 794764, Note_off_c, 0, 64, 52
1, 794773, Control_c, 0, 64, 70
1, 794773, Control_c, 0, 67, 84
1, 794774, Note_on_c, 0, 76, 91
1, 794778, Poly_aftertouch_c, 0, 68, 0
1, 794803, Control_c, 0, 67, 85
1, 794817, Control_c, 0, 64, 70
1, 794832, Control_c, 0, 64, 68
1, 794847, Control_c, 0, 64, 61
1, 794852, Note_off_c, 0, 76, 61
1, 794862, Control_c, 0, 64, 33
1, 794877, Control_c, 0, 64, 0
1, 794887, Note_on_c, 0, 78, 86
1, 794899, Note_on_c, 0, 57, 51
1, 794921, Control_c, 0, 67, 84
1, 794951, Control_c, 0, 64, 45
1, 794965, Control_c, 0, 64, 59
1, 794980, Control_c, 0, 64, 63
1, 794995, Control_c, 0, 64, 65
1, 794996, Note_off_c, 0, 57, 64
1, 795010, Control_c, 0, 64, 66
1, 795025, Control_c, 0, 64, 66
1, 795025, Control_c, 0, 67, 83
1, 795117, Note_on_c, 0, 73, 63
1, 795135, Note_on_c, 0, 69, 47
1, 795149, Note_on_c, 0, 64, 39
1, 795161, Note_off_c, 0, 69, 56
1, 795174, Note_on_c, 0, 66, 63
1, 795179, Note_off_c, 0, 64, 56
1, 795207, Note_off_c, 0, 66, 67
1, 795230, Note_on_c, 0, 64, 64
1, 795248, Control_c, 0, 67, 84
1, 795258, Note_off_c, 0, 64, 65
1, 795278, Note_on_c, 0, 66, 76
1, 795300, Note_off_c, 0, 66, 72
1, 795308, Control_c, 0, 64, 62
1, 795311, Note_on_c, 0, 64, 82
1, 795321, Note_off_c, 0, 73, 21
1, 795322, Control_c, 0, 64, 43
1, 795332, Note_off_c, 0, 64, 72
1, 795337, Control_c, 0, 64, 0
1, 795337, Control_c, 0, 67, 83
1, 795382, Control_c, 0, 67, 84
1, 795396, Control_c, 0, 67, 85
1, 795426, Control_c, 0, 67, 85
1, 795508, Control_c, 0, 67, 85
1, 795522, Control_c, 0, 67, 84
1, 795537, Control_c, 0, 67, 82
1, 795552, Control_c, 0, 67, 79
1, 795567, Note_on_c, 0, 73, 58
1, 795567, Control_c, 0, 67, 78
1, 795570, Note_on_c, 0, 69, 65
1, 795581, Note_on_c, 0, 64, 54
1, 795582, Control_c, 0, 67, 76
1, 795596, Control_c, 0, 67, 74
1, 795611, Control_c, 0, 67, 73
1, 795626, Control_c, 0, 64, 33
1, 795626, Control_c, 0, 67, 70
1, 795640, Control_c, 0, 64, 49
1, 795640, Control_c, 0, 67, 56
1, 795655, Control_c, 0, 64, 57
1, 795655, Control_c, 0, 67, 0
1, 795670, Control_c, 0, 64, 60
1, 795685, Control_c, 0, 64, 61
1, 795700, Control_c, 0, 64, 62
1, 795729, Control_c, 0, 64, 61
1, 795744, Control_c, 0, 64, 53
1, 795755, Note_off_c, 0, 69, 61
1, 795759, Control_c, 0, 64, 30
1, 795774, Control_c, 0, 64, 0
1, 795779, Note_on_c, 0, 80, 94
1, 795783, Note_on_c, 0, 52, 65
1, 795785, Note_off_c, 0, 64, 56
1, 795786, Note_off_c, 0, 73, 62
1, 795797, Note_off_c, 0, 78, 60
1, 795818, Control_c, 0, 64, 34
1, 795833, Control_c, 0, 64, 52
1, 795848, Control_c, 0, 64, 61
1, 795863, Control_c, 0, 64, 64
1, 795878, Control_c, 0, 64, 66
1, 795893, Control_c, 0, 64, 67
1, 795907, Control_c, 0, 64, 68
1, 795922, Control_c, 0, 64, 70
1, 795937, Control_c, 0, 64, 71
1, 795946, Note_off_c, 0, 52, 58
1, 795952, Control_c, 0, 64, 72
1, 795966, Control_c, 0, 64, 73
1, 795973, Note_off_c, 0, 80, 57
1, 795981, Control_c, 0, 64, 73
1, 795994, Note_on_c, 0, 64, 61
1, 796000, Note_on_c, 0, 73, 64
1, 796006, Note_on_c, 0, 69, 49
1, 796012, Control_c, 0, 64, 74
1, 796027, Note_off_c, 0, 73, 68
1, 796033, Note_off_c, 0, 69, 56
1, 796042, Control_c, 0, 64, 74
1, 796056, Control_c, 0, 64, 75
1, 796071, Control_c, 0, 64, 75
1, 796086, Control_c, 0, 64, 76
1, 796101, Control_c, 0, 64, 76
1, 796107, Note_off_c, 0, 64, 52
1, 796131, Note_on_c, 0, 81, 87
1, 796131, Control_c, 0, 64, 77
1, 796166, Note_on_c, 0, 83, 70
1, 796175, Note_off_c, 0, 81, 66
1, 796175, Control_c, 0, 64, 76
1, 796190, Control_c, 0, 64, 71
1, 796205, Control_c, 0, 64, 55
1, 796207, Note_on_c, 0, 59, 65
1, 796216, Note_off_c, 0, 83, 62
1, 796219, Note_on_c, 0, 81, 90
1, 796226, Control_c, 0, 64, 0
1, 796286, Control_c, 0, 64, 50
1, 796297, Note_off_c, 0, 59, 65
1, 796301, Control_c, 0, 64, 66
1, 796316, Control_c, 0, 64, 72
1, 796331, Control_c, 0, 64, 75
1, 796345, Control_c, 0, 64, 76
1, 796360, Control_c, 0, 64, 78
1, 796389, Control_c, 0, 64, 78
1, 796474, Note_on_c, 0, 74, 59
1, 796485, Note_on_c, 0, 64, 51
1, 796492, Note_off_c, 0, 81, 59
1, 796493, Note_off_c, 0, 74, 61
1, 796510, Note_off_c, 0, 64, 59
1, 796536, Note_on_c, 0, 66, 57
1, 796565, Note_off_c, 0, 66, 64
1, 796581, Note_on_c, 0, 64, 68
1, 796590, Note_on_c, 0, 80, 78
1, 796597, Control_c, 0, 64, 78
1, 796611, Note_off_c, 0, 80, 72
1, 796612, Control_c, 0, 64, 75
1, 796620, Note_off_c, 0, 64, 57
1, 796627, Control_c, 0, 64, 62
1, 796642, Control_c, 0, 64, 32
1, 796647, Note_on_c, 0, 66, 57
1, 796656, Control_c, 0, 64, 0
1, 796664, Note_off_c, 0, 66, 65
1, 796669, Note_on_c, 0, 80, 73
1, 796679, Note_on_c, 0, 64, 53
1, 796686, Control_c, 0, 67, 58
1, 796691, Note_off_c, 0, 80, 71
1, 796701, Control_c, 0, 67, 78
1, 796703, Note_off_c, 0, 64, 60
1, 796716, Control_c, 0, 67, 95
1, 796731, Control_c, 0, 67, 106
1, 796745, Control_c, 0, 67, 116
1, 796760, Control_c, 0, 67, 125
1, 796775, Control_c, 0, 67, 127
1, 796971, Note_on_c, 0, 78, 76
1, 796989, Note_on_c, 0, 74, 51
1, 796991, Note_on_c, 0, 68, 35
1, 797016, Note_off_c, 0, 74, 59
1, 797018, Note_on_c, 0, 64, 37
1, 797022, Note_off_c, 0, 68, 47
1, 797198, Control_c, 0, 64, 32
1, 797213, Control_c, 0, 64, 48
1, 797222, Note_on_c, 0, 52, 52
1, 797222, Note_off_c, 0, 64, 46
1, 797228, Control_c, 0, 64, 57
1, 797243, Control_c, 0, 64, 60
1, 797258, Control_c, 0, 64, 62
1, 797273, Control_c, 0, 64, 63
1, 797287, Control_c, 0, 64, 64
1, 797302, Control_c, 0, 64, 64
1, 797317, Control_c, 0, 64, 65
1, 797347, Control_c, 0, 64, 65
1, 797404, Note_off_c, 0, 52, 60
1, 797419, Note_off_c, 0, 78, 51
1, 797429, Note_on_c, 0, 76, 80
1, 797441, Note_on_c, 0, 64, 55
1, 797494, Control_c, 0, 64, 66
1, 797514, Note_off_c, 0, 76, 62
1, 797520, Note_off_c, 0, 64, 54
1, 797526, Note_on_c, 0, 78, 89
1, 797539, Control_c, 0, 64, 65
1, 797554, Control_c, 0, 64, 58
1, 797568, Control_c, 0, 64, 34
1, 797584, Control_c, 0, 64, 0
1, 797615, Note_off_c, 0, 78, 45
1, 797639, Note_on_c, 0, 80, 84
1, 797642, Note_on_c, 0, 57, 55
1, 797658, Control_c, 0, 64, 33
1, 797673, Control_c, 0, 64, 52
1, 797688, Control_c, 0, 64, 61
1, 797693, Note_off_c, 0, 57, 62
1, 797710, Control_c, 0, 64, 63
1, 797725, Control_c, 0, 64, 64
1, 797740, Control_c, 0, 64, 64
1, 797744, Note_off_c, 0, 80, 62
1, 797755, Control_c, 0, 64, 65
1, 797785, Control_c, 0, 64, 66
1, 797799, Control_c, 0, 64, 66
1, 797869, Note_on_c, 0, 78, 80
1, 797876, Note_on_c, 0, 64, 55
1, 797882, Note_on_c, 0, 69, 56
1, 797891, Note_on_c, 0, 73, 43
1, 797899, Note_off_c, 0, 64, 62
1, 797909, Note_on_c, 0, 66, 67
1, 797911, Note_off_c, 0, 69, 52
1, 797916, Note_off_c, 0, 73, 57
1, 797932, Control_c, 0, 64, 65
1, 797940, Note_off_c, 0, 78, 57
1, 797947, Note_off_c, 0, 66, 61
1, 797947, Control_c, 0, 64, 60
1, 797962, Note_on_c, 0, 76, 74
1, 797962, Control_c, 0, 64, 43
1, 797969, Note_on_c, 0, 64, 69
1, 797977, Control_c, 0, 64, 0
1, 798004, Note_off_c, 0, 64, 61
1, 798040, Note_on_c, 0, 66, 50
1, 798061, Note_off_c, 0, 76, 62
1, 798063, Note_on_c, 0, 78, 80
1, 798065, Note_off_c, 0, 66, 58
1, 798066, Control_c, 0, 64, 46
1, 798070, Note_on_c, 0, 64, 70
1, 798081, Control_c, 0, 64, 60
1, 798095, Control_c, 0, 64, 63
1, 798098, Note_off_c, 0, 64, 69
1, 798110, Control_c, 0, 64, 64
1, 798125, Control_c, 0, 64, 65
1, 798137, Note_off_c, 0, 78, 58
1, 798140, Control_c, 0, 64, 65
1, 798155, Control_c, 0, 64, 66
1, 798288, Note_on_c, 0, 76, 80
1, 798306, Note_on_c, 0, 73, 53
1, 798307, Note_on_c, 0, 64, 67
1, 798311, Note_on_c, 0, 69, 51
1, 798326, Note_off_c, 0, 73, 59
1, 798335, Note_off_c, 0, 69, 59
1, 798337, Note_off_c, 0, 64, 63
1, 798361, Control_c, 0, 64, 64
1, 798364, Note_off_c, 0, 76, 61
1, 798376, Control_c, 0, 64, 58
1, 798381, Note_on_c, 0, 74, 86
1, 798393, Control_c, 0, 64, 41
1, 798407, Control_c, 0, 64, 0
1, 798450, Note_off_c, 0, 74, 61
1, 798507, Note_on_c, 0, 52, 53
1, 798508, Note_on_c, 0, 76, 76
1, 798519, Control_c, 0, 64, 35
1, 798531, Note_off_c, 0, 52, 58
1, 798534, Control_c, 0, 64, 55
1, 798548, Control_c, 0, 64, 61
1, 798563, Control_c, 0, 64, 63
1, 798578, Control_c, 0, 64, 64
1, 798592, Control_c, 0, 64, 65
1, 798607, Control_c, 0, 64, 66
1, 798622, Control_c, 0, 64, 67
1, 798651, Control_c, 0, 64, 67
1, 798662, Note_off_c, 0, 76, 58
1, 798744, Note_on_c, 0, 74, 81
1, 798760, Note_on_c, 0, 76, 60
1, 798770, Note_on_c, 0, 70, 54
1, 798778, Note_off_c, 0, 76, 63
1, 798781, Note_on_c, 0, 67, 30
1, 798800, Note_off_c, 0, 70, 66
1, 798818, Note_off_c, 0, 67, 52
1, 798848, Note_on_c, 0, 73, 81
1, 798858, Control_c, 0, 64, 65
1, 798864, Note_off_c, 0, 74, 60
1, 798873, Control_c, 0, 64, 52
1, 798888, Control_c, 0, 64, 0
1, 798913, Note_off_c, 0, 73, 61
1, 798960, Note_on_c, 0, 74, 90
1, 798962, Control_c, 0, 64, 42
1, 798969, Note_on_c, 0, 59, 57
1, 798977, Control_c, 0, 64, 56
1, 798980, Note_off_c, 0, 74, 69
1, 798991, Control_c, 0, 64, 62
1, 798993, Note_off_c, 0, 59, 64
1, 799006, Control_c, 0, 64, 63
1, 799021, Control_c, 0, 64, 63
1, 799051, Control_c, 0, 64, 64
1, 799080, Control_c, 0, 64, 64
1, 799125, Control_c, 0, 64, 65
1, 799200, Control_c, 0, 64, 63
1, 799222, Control_c, 0, 64, 53
1, 799222, Note_on_c, 0, 64, 53
1, 799225, Note_on_c, 0, 76, 83
1, 799237, Control_c, 0, 64, 0
1, 799243, Note_on_c, 0, 67, 58
1, 799246, Note_off_c, 0, 64, 60
1, 799255, Note_on_c, 0, 66, 70
1, 799268, Note_off_c, 0, 67, 56
1, 799302, Note_off_c, 0, 66, 60
1, 799308, Note_on_c, 0, 73, 80
1, 799308, Note_off_c, 0, 76, 64
1, 799316, Note_on_c, 0, 64, 74
1, 799359, Note_off_c, 0, 64, 65
1, 799383, Note_on_c, 0, 66, 63
1, 799410, Note_off_c, 0, 66, 65
1, 799425, Note_on_c, 0, 64, 64
1, 799429, Note_on_c, 0, 74, 72
1, 799434, Note_off_c, 0, 73, 52
1, 799443, Note_off_c, 0, 64, 66
1, 799657, Note_on_c, 0, 68, 62
1, 799661, Note_on_c, 0, 66, 72
1, 799665, Note_on_c, 0, 62, 50
1, 799667, Control_c, 0, 64, 46
1, 799681, Control_c, 0, 64, 57
1, 799688, Note_off_c, 0, 62, 59
1, 799696, Control_c, 0, 64, 60
1, 799698, Note_off_c, 0, 66, 65
1, 799710, Note_off_c, 0, 68, 58
1, 799711, Control_c, 0, 64, 62
1, 799726, Control_c, 0, 64, 63
1, 799741, Control_c, 0, 64, 64
1, 799747, Note_on_c, 0, 64, 73
1, 799756, Control_c, 0, 64, 65
1, 799756, Control_c, 0, 67, 125
1, 799771, Control_c, 0, 64, 66
1, 799771, Control_c, 0, 67, 122
1, 799786, Control_c, 0, 64, 66
1, 799786, Control_c, 0, 67, 120
1, 799800, Control_c, 0, 67, 118
1, 799815, Control_c, 0, 64, 67
1, 799815, Control_c, 0, 67, 104
1, 799821, Note_off_c, 0, 74, 65
1, 799830, Control_c, 0, 67, 83
1, 799839, Note_off_c, 0, 64, 59
1, 799845, Control_c, 0, 67, 64
1, 799860, Control_c, 0, 67, 51
1, 799868, Note_on_c, 0, 52, 77
1, 799875, Control_c, 0, 67, 40
1, 799889, Control_c, 0, 67, 0
1, 799904, Control_c, 0, 64, 67
1, 799919, Control_c, 0, 64, 68
1, 799934, Control_c, 0, 64, 70
1, 799949, Control_c, 0, 64, 72
1, 799970, Control_c, 0, 64, 73
1, 799986, Control_c, 0, 64, 74
1, 800016, Control_c, 0, 64, 73
1, 800031, Control_c, 0, 64, 70
1, 800045, Control_c, 0, 64, 64
1, 800060, Note_off_c, 0, 52, 60
1, 800060, Control_c, 0, 64, 57
1, 800075, Control_c, 0, 64, 55
1, 800078, Note_on_c, 0, 76, 88
1, 800084, Note_on_c, 0, 64, 66
1, 800090, Control_c, 0, 64, 57
1, 800097, Note_on_c, 0, 68, 59
1, 800105, Control_c, 0, 64, 61
1, 800119, Control_c, 0, 64, 63
1, 800126, Note_off_c, 0, 68, 64
1, 800134, Control_c, 0, 64, 65
1, 800149, Control_c, 0, 64, 67
1, 800164, Control_c, 0, 64, 69
1, 800179, Control_c, 0, 64, 72
1, 800191, Note_on_c, 0, 78, 89
1, 800194, Control_c, 0, 64, 74
1, 800205, Note_off_c, 0, 76, 57
1, 800209, Control_c, 0, 64, 76
1, 800224, Control_c, 0, 64, 77
1, 800249, Note_off_c, 0, 64, 38
1, 800257, Note_off_c, 0, 78, 61
1, 800268, Control_c, 0, 64, 74
1, 800283, Control_c, 0, 64, 65
1, 800298, Control_c, 0, 64, 50
1, 800312, Control_c, 0, 64, 41
1, 800327, Control_c, 0, 64, 43
1, 800334, Note_on_c, 0, 80, 88
1, 800342, Control_c, 0, 64, 51
1, 800347, Note_on_c, 0, 57, 65
1, 800356, Control_c, 0, 64, 60
1, 800371, Control_c, 0, 64, 65
1, 800386, Control_c, 0, 64, 66
1, 800389, Note_off_c, 0, 57, 62
1, 800393, Note_on_c, 0, 81, 79
1, 800398, Note_off_c, 0, 80, 65
1, 800401, Control_c, 0, 64, 67
1, 800474, Note_on_c, 0, 80, 75
1, 800474, Note_off_c, 0, 81, 65
1, 800495, Note_off_c, 0, 80, 72
1, 800504, Control_c, 0, 64, 66
1, 800519, Control_c, 0, 64, 66
1, 800534, Control_c, 0, 64, 65
1, 800551, Note_on_c, 0, 64, 55
1, 800553, Note_on_c, 0, 78, 84
1, 800572, Note_on_c, 0, 69, 63
1, 800574, Note_on_c, 0, 73, 53
1, 800577, Note_off_c, 0, 64, 65
1, 800578, Note_on_c, 0, 66, 64
1, 800591, Note_off_c, 0, 69, 64
1, 800596, Note_off_c, 0, 73, 65
1, 800614, Note_off_c, 0, 78, 60
1, 800641, Note_off_c, 0, 66, 61
1, 800656, Note_on_c, 0, 76, 87
1, 800659, Note_on_c, 0, 64, 59
1, 800683, Control_c, 0, 64, 64
1, 800698, Control_c, 0, 64, 55
1, 800710, Note_off_c, 0, 76, 66
1, 800714, Note_on_c, 0, 66, 63
1, 800720, Control_c, 0, 64, 32
1, 800721, Note_off_c, 0, 64, 63
1, 800735, Control_c, 0, 64, 0
1, 800748, Note_off_c, 0, 66, 65
1, 800771, Note_on_c, 0, 78, 88
1, 800825, Control_c, 0, 64, 32
1, 800828, Note_off_c, 0, 78, 65
1, 800840, Control_c, 0, 64, 38
1, 800842, Note_on_c, 0, 80, 78
1, 800855, Control_c, 0, 64, 44
1, 800869, Control_c, 0, 64, 50
1, 800884, Control_c, 0, 64, 55
1, 800893, Note_on_c, 0, 78, 78
1, 800899, Control_c, 0, 64, 58
1, 800914, Control_c, 0, 64, 60
1, 800925, Note_off_c, 0, 80, 63
1, 800929, Control_c, 0, 64, 60
1, 800943, Control_c, 0, 64, 61
1, 800943, Control_c, 0, 67, 58
1, 800958, Control_c, 0, 64, 62
1, 800958, Control_c, 0, 67, 77
1, 800966, Note_on_c, 0, 76, 82
1, 800973, Control_c, 0, 64, 62
1, 800973, Control_c, 0, 67, 91
1, 800978, Note_on_c, 0, 64, 71
1, 800987, Control_c, 0, 64, 63
1, 800987, Control_c, 0, 67, 100
1, 800989, Note_on_c, 0, 69, 48
1, 800996, Note_on_c, 0, 73, 38
1, 801002, Control_c, 0, 64, 64
1, 801002, Control_c, 0, 67, 104
1, 801004, Note_off_c, 0, 78, 56
1, 801014, Note_off_c, 0, 64, 67
1, 801014, Note_off_c, 0, 69, 57
1, 801017, Control_c, 0, 64, 64
1, 801026, Note_off_c, 0, 73, 34
1, 801032, Control_c, 0, 64, 65
1, 801052, Note_off_c, 0, 76, 59
1, 801061, Control_c, 0, 67, 102
1, 801070, Note_on_c, 0, 74, 88
1, 801076, Control_c, 0, 67, 100
1, 801091, Control_c, 0, 67, 97
1, 801106, Control_c, 0, 64, 63
1, 801106, Control_c, 0, 67, 94
1, 801113, Note_off_c, 0, 74, 65
1, 801121, Control_c, 0, 64, 50
1, 801121, Control_c, 0, 67, 91
1, 801136, Control_c, 0, 64, 0
1, 801136, Control_c, 0, 67, 88
1, 801151, Control_c, 0, 67, 86
1, 801166, Control_c, 0, 67, 85
1, 801178, Note_on_c, 0, 76, 82
1, 801180, Control_c, 0, 67, 84
1, 801192, Note_on_c, 0, 52, 55
1, 801195, Control_c, 0, 67, 83
1, 801210, Control_c, 0, 64, 44
1, 801218, Note_off_c, 0, 52, 62
1, 801225, Control_c, 0, 64, 59
1, 801225, Control_c, 0, 67, 84
1, 801240, Control_c, 0, 64, 63
1, 801240, Control_c, 0, 67, 85
1, 801242, Note_off_c, 0, 76, 64
1, 801254, Control_c, 0, 64, 64
1, 801254, Control_c, 0, 67, 86
1, 801258, Note_on_c, 0, 78, 68
1, 801269, Control_c, 0, 64, 65
1, 801269, Control_c, 0, 67, 90
1, 801284, Control_c, 0, 64, 65
1, 801284, Control_c, 0, 67, 94
1, 801299, Control_c, 0, 67, 98
1, 801309, Note_on_c, 0, 76, 71
1, 801314, Control_c, 0, 67, 102
1, 801323, Note_off_c, 0, 78, 59
1, 801328, Control_c, 0, 67, 106
1, 801343, Control_c, 0, 67, 109
1, 801346, Note_off_c, 0, 76, 61
1, 801358, Control_c, 0, 67, 113
1, 801373, Control_c, 0, 67, 127
1, 801414, Note_on_c, 0, 74, 82
1, 801416, Note_on_c, 0, 76, 69
1, 801435, Note_on_c, 0, 70, 51
1, 801443, Note_off_c, 0, 76, 63
1, 801535, Note_on_c, 0, 73, 80
1, 801546, Note_off_c, 0, 74, 59
1, 801547, Note_off_c, 0, 70, 52
1, 801604, Control_c, 0, 64, 62
1, 801618, Control_c, 0, 64, 50
1, 801632, Note_off_c, 0, 73, 61
1, 801633, Control_c, 0, 64, 0
1, 801665, Note_on_c, 0, 74, 77
1, 801670, Note_on_c, 0, 59, 63
1, 801692, Note_off_c, 0, 74, 66
1, 801692, Control_c, 0, 64, 29
1, 801707, Control_c, 0, 64, 43
1, 801719, Note_off_c, 0, 59, 62
1, 801722, Control_c, 0, 64, 54
1, 801737, Control_c, 0, 64, 61
1, 801752, Control_c, 0, 64, 62
1, 801796, Control_c, 0, 64, 63
1, 801840, Control_c, 0, 64, 63
1, 801899, Control_c, 0, 64, 63
1, 801914, Control_c, 0, 64, 62
1, 801923, Note_on_c, 0, 64, 47
1, 801925, Note_on_c, 0, 76, 79
1, 801929, Control_c, 0, 64, 62
1, 801944, Control_c, 0, 64, 61
1, 801947, Note_off_c, 0, 64, 59
1, 801953, Note_on_c, 0, 67, 45
1, 801955, Note_on_c, 0, 66, 64
1, 801959, Control_c, 0, 64, 60
1, 801974, Control_c, 0, 64, 59
1, 801991, Note_off_c, 0, 67, 45
1, 801996, Note_off_c, 0, 66, 61
1, 802006, Note_off_c, 0, 76, 63
1, 802010, Note_on_c, 0, 73, 71
1, 802021, Note_on_c, 0, 64, 62
1, 802042, Note_off_c, 0, 64, 65
1, 802072, Note_on_c, 0, 66, 63
1, 802077, Control_c, 0, 64, 60
1, 802102, Note_off_c, 0, 66, 66
1, 802107, Control_c, 0, 64, 59
1, 802110, Note_on_c, 0, 64, 75
1, 802122, Control_c, 0, 64, 58
1, 802135, Note_off_c, 0, 64, 71
1, 802137, Control_c, 0, 64, 53
1, 802140, Note_on_c, 0, 74, 68
1, 802151, Control_c, 0, 64, 44
1, 802153, Note_off_c, 0, 73, 51
1, 802166, Control_c, 0, 64, 0
1, 802390, Note_on_c, 0, 66, 67
1, 802397, Note_on_c, 0, 68, 55
1, 802421, Note_on_c, 0, 62, 12
1, 802426, Control_c, 0, 64, 36
1, 802440, Control_c, 0, 64, 43
1, 802442, Note_off_c, 0, 66, 61
1, 802455, Control_c, 0, 64, 51
1, 802463, Note_off_c, 0, 62, 50
1, 802470, Control_c, 0, 64, 57
1, 802477, Note_off_c, 0, 68, 58
1, 802485, Control_c, 0, 64, 59
1, 802495, Note_on_c, 0, 64, 60
1, 802500, Control_c, 0, 64, 60
1, 802559, Control_c, 0, 64, 56
1, 802574, Control_c, 0, 64, 45
1, 802576, Note_off_c, 0, 64, 58
1, 802588, Control_c, 0, 64, 31
1, 802603, Control_c, 0, 64, 0
1, 802618, Control_c, 0, 64, 32
1, 802632, Note_on_c, 0, 52, 52
1, 802632, Control_c, 0, 64, 43
1, 802647, Control_c, 0, 64, 56
1, 802662, Control_c, 0, 64, 62
1, 802677, Control_c, 0, 64, 64
1, 802692, Control_c, 0, 64, 66
1, 802701, Note_off_c, 0, 52, 62
1, 802707, Control_c, 0, 64, 67
1, 802722, Control_c, 0, 64, 69
1, 802737, Control_c, 0, 64, 70
1, 802751, Control_c, 0, 64, 72
1, 802766, Control_c, 0, 64, 72
1, 802781, Control_c, 0, 64, 73
1, 802796, Control_c, 0, 64, 73
1, 802811, Control_c, 0, 64, 74
1, 802825, Control_c, 0, 64, 74
1, 802840, Control_c, 0, 64, 75
1, 802855, Control_c, 0, 64, 75
1, 802876, Note_off_c, 0, 74, 37
1, 802883, Note_on_c, 0, 64, 47
1, 802885, Control_c, 0, 64, 76
1, 802899, Control_c, 0, 64, 75
1, 802944, Control_c, 0, 64, 75
1, 802965, Note_on_c, 0, 76, 73
1, 802966, Note_on_c, 0, 74, 49
1, 803009, Note_on_c, 0, 68, 9
1, 803014, Note_off_c, 0, 74, 59
1, 803026, Control_c, 0, 64, 75
1, 803055, Control_c, 0, 64, 77
1, 803070, Control_c, 0, 64, 78
1, 803076, Note_off_c, 0, 68, 38
1, 803085, Control_c, 0, 64, 80
1, 803086, Note_off_c, 0, 64, 64
1, 803100, Control_c, 0, 64, 81
1, 803114, Control_c, 0, 64, 82
1, 803129, Control_c, 0, 64, 83
1, 803145, Control_c, 0, 64, 83
1, 803159, Control_c, 0, 64, 84
1, 803190, Control_c, 0, 64, 84
1, 803215, Note_on_c, 0, 72, 48
1, 803262, Note_off_c, 0, 72, 60
1, 803272, Note_off_c, 0, 76, 61
1, 803479, Note_on_c, 0, 45, 39
1, 803501, Control_c, 0, 64, 83
1, 803516, Control_c, 0, 64, 74
1, 803530, Control_c, 0, 64, 62
1, 803538, Note_on_c, 0, 88, 84
1, 803545, Control_c, 0, 64, 41
1, 803560, Control_c, 0, 64, 0
1, 803564, Note_on_c, 0, 85, 59
1, 803571, Note_on_c, 0, 76, 41
1, 803574, Control_c, 0, 64, 30
1, 803589, Control_c, 0, 64, 43
1, 803604, Control_c, 0, 64, 56
1, 803619, Control_c, 0, 64, 63
1, 803634, Control_c, 0, 64, 67
1, 803649, Control_c, 0, 64, 70
1, 803664, Control_c, 0, 64, 72
1, 803673, Note_off_c, 0, 88, 65
1, 803679, Control_c, 0, 64, 74
1, 803684, Note_off_c, 0, 45, 61
1, 803688, Note_off_c, 0, 85, 63
1, 803694, Control_c, 0, 64, 75
1, 803712, Note_off_c, 0, 76, 54
1, 803716, Control_c, 0, 64, 76
1, 803718, Note_on_c, 0, 52, 51
1, 803730, Control_c, 0, 64, 77
1, 803744, Note_off_c, 0, 52, 56
1, 803745, Control_c, 0, 64, 77
1, 803779, Note_on_c, 0, 57, 58
1, 803803, Note_off_c, 0, 57, 64
1, 803859, Note_on_c, 0, 66, 68
1, 803873, Note_on_c, 0, 59, 55
1, 803880, Note_off_c, 0, 66, 63
1, 803902, Note_off_c, 0, 59, 60
1, 803925, Poly_aftertouch_c, 0, 64, 127
1, 803930, Note_on_c, 0, 61, 62
1, 803950, Poly_aftertouch_c, 0, 64, 0
1, 803962, Note_off_c, 0, 61, 67
1, 803969, Note_on_c, 0, 64, 49
1, 804007, Note_off_c, 0, 64, 66
1, 804012, Control_c, 0, 67, 124
1, 804027, Control_c, 0, 67, 105
1, 804042, Control_c, 0, 67, 85
1, 804057, Control_c, 0, 67, 62
1, 804060, Note_on_c, 0, 69, 65
1, 804065, Note_on_c, 0, 66, 53
1, 804072, Control_c, 0, 67, 50
1, 804084, Note_off_c, 0, 66, 62
1, 804086, Note_off_c, 0, 69, 69
1, 804087, Control_c, 0, 67, 45
1, 804161, Control_c, 0, 67, 46
1, 804176, Control_c, 0, 67, 47
1, 804191, Control_c, 0, 64, 77
1, 804191, Control_c, 0, 67, 49
1, 804205, Control_c, 0, 67, 49
1, 804279, Control_c, 0, 67, 49
1, 804294, Control_c, 0, 67, 47
1, 804295, Note_on_c, 0, 61, 58
1, 804299, Note_on_c, 0, 52, 45
1, 804305, Note_on_c, 0, 57, 41
1, 804317, Note_off_c, 0, 61, 59
1, 804324, Control_c, 0, 67, 47
1, 804330, Note_off_c, 0, 52, 52
1, 804332, Note_off_c, 0, 57, 52
1, 804353, Control_c, 0, 67, 46
1, 804412, Control_c, 0, 67, 47
1, 804442, Control_c, 0, 67, 47
1, 804528, Note_on_c, 0, 88, 94
1, 804538, Note_on_c, 0, 73, 61
1, 804538, Control_c, 0, 67, 47
1, 804539, Note_on_c, 0, 76, 66
1, 804546, Note_on_c, 0, 81, 61
1, 804553, Control_c, 0, 67, 45
1, 804559, Note_off_c, 0, 73, 64
1, 804568, Control_c, 0, 67, 44
1, 804580, Note_off_c, 0, 81, 49
1, 804583, Note_off_c, 0, 76, 47
1, 804583, Control_c, 0, 67, 42
1, 804598, Control_c, 0, 67, 41
1, 804612, Control_c, 0, 67, 38
1, 804627, Control_c, 0, 67, 0
1, 804760, Note_on_c, 0, 66, 56
1, 804771, Note_on_c, 0, 61, 48
1, 804783, Note_off_c, 0, 66, 60
1, 804798, Note_off_c, 0, 61, 56
1, 804834, Control_c, 0, 64, 77
1, 804864, Control_c, 0, 64, 78
1, 804879, Control_c, 0, 64, 80
1, 804894, Control_c, 0, 64, 81
1, 804908, Control_c, 0, 64, 82
1, 804923, Control_c, 0, 64, 81
1, 804938, Control_c, 0, 64, 79
1, 804950, Note_off_c, 0, 88, 64
1, 804953, Control_c, 0, 64, 70
1, 804968, Control_c, 0, 64, 60
1, 804982, Control_c, 0, 64, 52
1, 804987, Note_on_c, 0, 45, 58
1, 804997, Control_c, 0, 64, 53
1, 805012, Control_c, 0, 64, 58
1, 805021, Note_on_c, 0, 88, 89
1, 805026, Control_c, 0, 64, 64
1, 805035, Note_on_c, 0, 76, 72
1, 805041, Control_c, 0, 64, 68
1, 805046, Note_on_c, 0, 80, 67
1, 805052, Note_off_c, 0, 88, 66
1, 805056, Control_c, 0, 64, 72
1, 805058, Note_off_c, 0, 76, 70
1, 805061, Note_off_c, 0, 45, 62
1, 805071, Note_off_c, 0, 80, 69
1, 805071, Control_c, 0, 64, 75
1, 805081, Note_on_c, 0, 52, 53
1, 805086, Control_c, 0, 64, 76
1, 805101, Control_c, 0, 64, 77
1, 805106, Note_off_c, 0, 52, 55
1, 805130, Control_c, 0, 64, 77
1, 805148, Note_on_c, 0, 59, 64
1, 805177, Note_off_c, 0, 59, 66
1, 805235, Note_on_c, 0, 62, 71
1, 805239, Note_on_c, 0, 68, 49
1, 805264, Note_off_c, 0, 68, 56
1, 805279, Note_off_c, 0, 62, 61
1, 805291, Poly_aftertouch_c, 0, 64, 127
1, 805306, Note_on_c, 0, 64, 3
1, 805372, Note_off_c, 0, 64, 60
1, 805387, Note_on_c, 0, 66, 64
1, 805391, Note_on_c, 0, 86, 87
1, 805417, Note_on_c, 0, 74, 47
1, 805419, Control_c, 0, 64, 76
1, 805431, Note_off_c, 0, 86, 63
1, 805431, Note_off_c, 0, 66, 61
1, 805434, Control_c, 0, 64, 67
1, 805441, Note_off_c, 0, 74, 56
1, 805449, Control_c, 0, 64, 48
1, 805451, Note_on_c, 0, 68, 80
1, 805463, Note_on_c, 0, 88, 84
1, 805464, Control_c, 0, 64, 0
1, 805470, Note_off_c, 0, 68, 72
1, 805489, Note_on_c, 0, 76, 45
1, 805497, Note_off_c, 0, 88, 66
1, 805515, Note_off_c, 0, 76, 58
1, 805523, Control_c, 0, 67, 37
1, 805538, Control_c, 0, 67, 41
1, 805598, Control_c, 0, 67, 40
1, 805613, Control_c, 0, 67, 39
1, 805628, Control_c, 0, 67, 39
1, 805643, Control_c, 0, 67, 38
1, 805657, Control_c, 0, 67, 37
1, 805672, Control_c, 0, 67, 0
1, 805746, Control_c, 0, 64, 37
1, 805750, Note_on_c, 0, 88, 88
1, 805761, Control_c, 0, 64, 58
1, 805762, Note_on_c, 0, 80, 76
1, 805766, Note_on_c, 0, 74, 68
1, 805774, Note_off_c, 0, 88, 64
1, 805775, Control_c, 0, 64, 63
1, 805780, Note_on_c, 0, 76, 41
1, 805782, Note_off_c, 0, 80, 73
1, 805790, Control_c, 0, 64, 64
1, 805793, Note_off_c, 0, 74, 67
1, 805805, Control_c, 0, 64, 66
1, 805808, Note_off_c, 0, 76, 54
1, 805820, Control_c, 0, 64, 67
1, 805835, Control_c, 0, 64, 68
1, 805849, Control_c, 0, 64, 69
1, 805864, Control_c, 0, 64, 69
1, 805879, Control_c, 0, 64, 70
1, 805894, Control_c, 0, 64, 71
1, 805909, Control_c, 0, 64, 71
1, 805923, Control_c, 0, 64, 72
1, 805938, Control_c, 0, 64, 72
1, 805961, Control_c, 0, 64, 73
1, 805975, Control_c, 0, 64, 73
1, 806005, Note_on_c, 0, 62, 53
1, 806005, Control_c, 0, 64, 74
1, 806010, Note_on_c, 0, 45, 57
1, 806010, Note_on_c, 0, 68, 67
1, 806020, Control_c, 0, 64, 74
1, 806030, Note_off_c, 0, 62, 58
1, 806031, Note_on_c, 0, 56, 4
1, 806035, Control_c, 0, 64, 75
1, 806037, Note_off_c, 0, 45, 59
1, 806037, Note_off_c, 0, 68, 69
1, 806049, Control_c, 0, 64, 75
1, 806067, Note_off_c, 0, 56, 0
1, 806079, Control_c, 0, 64, 76
1, 806090, Poly_aftertouch_c, 0, 56, 0
1, 806228, Control_c, 0, 64, 76
1, 806230, Note_on_c, 0, 86, 90
1, 806236, Note_on_c, 0, 74, 83
1, 806257, Note_off_c, 0, 74, 68
1, 806274, Note_off_c, 0, 86, 65
1, 806287, Control_c, 0, 64, 77
1, 806302, Control_c, 0, 64, 79
1, 806317, Control_c, 0, 64, 80
1, 806329, Note_on_c, 0, 88, 90
1, 806332, Control_c, 0, 64, 82
1, 806337, Note_on_c, 0, 76, 81
1, 806356, Note_off_c, 0, 76, 72
1, 806377, Control_c, 0, 64, 79
1, 806382, Note_off_c, 0, 88, 64
1, 806392, Control_c, 0, 64, 68
1, 806406, Control_c, 0, 64, 49
1, 806421, Control_c, 0, 64, 0
1, 806433, Note_on_c, 0, 45, 48
1, 806445, Note_on_c, 0, 90, 96
1, 806451, Control_c, 0, 64, 37
1, 806455, Note_on_c, 0, 81, 48
1, 806459, Note_on_c, 0, 78, 72
1, 806459, Note_on_c, 0, 85, 75
1, 806466, Control_c, 0, 64, 58
1, 806481, Control_c, 0, 64, 67
1, 806488, Note_off_c, 0, 45, 58
1, 806490, Note_off_c, 0, 90, 69
1, 806496, Control_c, 0, 64, 74
1, 806498, Note_off_c, 0, 85, 55
1, 806504, Note_off_c, 0, 81, 47
1, 806505, Note_off_c, 0, 78, 61
1, 806510, Control_c, 0, 64, 78
1, 806512, Note_on_c, 0, 52, 64
1, 806525, Control_c, 0, 64, 80
1, 806540, Control_c, 0, 64, 82
1, 806550, Note_off_c, 0, 52, 62
1, 806555, Control_c, 0, 64, 82
1, 806570, Control_c, 0, 64, 83
1, 806591, Note_on_c, 0, 57, 69
1, 806619, Note_off_c, 0, 57, 66
1, 806677, Note_on_c, 0, 59, 56
1, 806681, Note_on_c, 0, 64, 71
1, 806713, Note_off_c, 0, 59, 65
1, 806716, Note_off_c, 0, 64, 69
1, 806742, Note_on_c, 0, 61, 75
1, 806787, Note_off_c, 0, 61, 65
1, 806815, Note_on_c, 0, 64, 66
1, 806844, Control_c, 0, 64, 83
1, 806853, Note_off_c, 0, 64, 56
1, 806871, Note_on_c, 0, 68, 74
1, 806873, Control_c, 0, 64, 84
1, 806895, Note_on_c, 0, 69, 74
1, 806896, Note_on_c, 0, 73, 76
1, 806903, Control_c, 0, 64, 84
1, 806918, Control_c, 0, 64, 85
1, 806919, Note_off_c, 0, 69, 67
1, 806919, Note_off_c, 0, 73, 69
1, 806928, Note_off_c, 0, 68, 62
1, 806932, Control_c, 0, 64, 85
1, 806947, Control_c, 0, 64, 86
1, 806949, Note_on_c, 0, 66, 67
1, 806962, Control_c, 0, 64, 87
1, 806977, Control_c, 0, 64, 87
1, 806987, Note_off_c, 0, 66, 62
1, 806992, Control_c, 0, 64, 88
1, 807006, Control_c, 0, 64, 88
1, 807026, Note_on_c, 0, 68, 56
1, 807036, Control_c, 0, 64, 89
1, 807095, Note_on_c, 0, 66, 72
1, 807096, Note_off_c, 0, 68, 61
1, 807101, Note_on_c, 0, 69, 64
1, 807114, Note_on_c, 0, 64, 47
1, 807127, Note_off_c, 0, 69, 67
1, 807135, Note_off_c, 0, 66, 64
1, 807141, Note_off_c, 0, 64, 58
1, 807154, Control_c, 0, 64, 89
1, 807170, Control_c, 0, 64, 90
1, 807172, Note_on_c, 0, 64, 64
1, 807185, Control_c, 0, 64, 91
1, 807200, Control_c, 0, 64, 94
1, 807215, Control_c, 0, 64, 98
1, 807226, Note_off_c, 0, 64, 60
1, 807229, Control_c, 0, 64, 102
1, 807256, Note_on_c, 0, 61, 72
1, 807274, Control_c, 0, 64, 96
1, 807289, Control_c, 0, 64, 80
1, 807303, Control_c, 0, 64, 65
1, 807309, Note_off_c, 0, 61, 63
1, 807318, Control_c, 0, 64, 52
1, 807324, Note_on_c, 0, 92, 106
1, 807330, Note_on_c, 0, 85, 96
1, 807333, Note_on_c, 0, 52, 70
1, 807333, Note_on_c, 0, 80, 91
1, 807348, Control_c, 0, 64, 58
1, 807363, Control_c, 0, 64, 66
1, 807378, Control_c, 0, 64, 75
1, 807391, Note_off_c, 0, 52, 63
1, 807392, Note_on_c, 0, 61, 70
1, 807393, Control_c, 0, 64, 87
1, 807408, Control_c, 0, 64, 95
1, 807422, Control_c, 0, 64, 101
1, 807424, Note_off_c, 0, 61, 64
1, 807429, Note_off_c, 0, 80, 61
1, 807437, Control_c, 0, 64, 108
1, 807438, Note_off_c, 0, 85, 61
1, 807459, Control_c, 0, 64, 122
1, 807462, Note_off_c, 0, 92, 65
1, 807474, Control_c, 0, 64, 127
1, 807482, Note_on_c, 0, 64, 33
1, 807514, Note_off_c, 0, 64, 53
1, 807534, Note_on_c, 0, 69, 74
1, 807561, Note_on_c, 0, 71, 68
1, 807587, Note_off_c, 0, 69, 58
1, 807615, Note_off_c, 0, 71, 61
1, 807620, Note_on_c, 0, 73, 73
1, 807643, Note_off_c, 0, 73, 70
1, 807689, Note_on_c, 0, 86, 88
1, 807695, Note_on_c, 0, 81, 75
1, 807698, Note_on_c, 0, 93, 67
1, 807716, Note_off_c, 0, 93, 65
1, 807717, Note_off_c, 0, 81, 70
1, 807724, Note_on_c, 0, 95, 91
1, 807726, Control_c, 0, 64, 82
1, 807727, Note_off_c, 0, 86, 61
1, 807741, Control_c, 0, 64, 53
1, 807755, Control_c, 0, 64, 0
1, 807757, Note_on_c, 0, 47, 77
1, 807767, Note_on_c, 0, 93, 101
1, 807769, Note_on_c, 0, 81, 95
1, 807780, Note_on_c, 0, 86, 71
1, 807785, Note_on_c, 0, 83, 68
1, 807785, Note_off_c, 0, 81, 75
1, 807785, Control_c, 0, 64, 41
1, 807791, Note_off_c, 0, 95, 68
1, 807796, Note_off_c, 0, 86, 67
1, 807800, Control_c, 0, 64, 63
1, 807804, Note_off_c, 0, 83, 40
1, 807806, Note_off_c, 0, 93, 67
1, 807812, Note_on_c, 0, 88, 14
1, 807815, Control_c, 0, 64, 74
1, 807820, Note_off_c, 0, 47, 63
1, 807829, Note_on_c, 0, 52, 74
1, 807829, Control_c, 0, 64, 86
1, 807844, Control_c, 0, 64, 92
1, 807858, Note_off_c, 0, 88, 30
1, 807859, Control_c, 0, 64, 95
1, 807874, Control_c, 0, 64, 98
1, 807878, Note_off_c, 0, 52, 62
1, 807900, Note_on_c, 0, 59, 74
1, 807903, Control_c, 0, 64, 101
1, 807924, Note_off_c, 0, 59, 67
1, 807947, Control_c, 0, 64, 103
1, 808013, Note_on_c, 0, 64, 59
1, 808013, Note_on_c, 0, 62, 44
1, 808023, Control_c, 0, 64, 105
1, 808044, Note_off_c, 0, 62, 55
1, 808067, Control_c, 0, 64, 107
1, 808076, Note_off_c, 0, 64, 65
1, 808097, Note_on_c, 0, 80, 91
1, 808097, Note_on_c, 0, 92, 91
1, 808097, Control_c, 0, 64, 112
1, 808112, Control_c, 0, 64, 119
1, 808114, Note_on_c, 0, 71, 77
1, 808120, Note_off_c, 0, 92, 68
1, 808125, Note_off_c, 0, 80, 64
1, 808126, Control_c, 0, 64, 127
1, 808138, Note_off_c, 0, 71, 69
1, 808171, Control_c, 0, 64, 112
1, 808174, Note_on_c, 0, 80, 94
1, 808175, Note_on_c, 0, 92, 100
1, 808177, Note_on_c, 0, 76, 82
1, 808183, Note_on_c, 0, 74, 80
1, 808186, Control_c, 0, 64, 81
1, 808198, Note_off_c, 0, 76, 72
1, 808204, Note_off_c, 0, 74, 69
1, 808208, Control_c, 0, 64, 57
1, 808212, Note_off_c, 0, 80, 66
1, 808217, Note_off_c, 0, 92, 68
1, 808223, Control_c, 0, 64, 0
1, 808455, Note_on_c, 0, 90, 85
1, 808461, Note_on_c, 0, 78, 85
1, 808462, Note_on_c, 0, 80, 75
1, 808465, Note_on_c, 0, 86, 72
1, 808478, Note_off_c, 0, 90, 68
1, 808487, Note_off_c, 0, 86, 72
1, 808490, Control_c, 0, 64, 55
1, 808493, Note_off_c, 0, 80, 66
1, 808502, Note_off_c, 0, 78, 62
1, 808504, Control_c, 0, 64, 65
1, 808519, Control_c, 0, 64, 67
1, 808534, Control_c, 0, 64, 70
1, 808549, Control_c, 0, 64, 72
1, 808564, Control_c, 0, 64, 74
1, 808578, Control_c, 0, 64, 76
1, 808593, Control_c, 0, 64, 77
1, 808608, Control_c, 0, 64, 77
1, 808638, Control_c, 0, 64, 78
1, 808652, Control_c, 0, 64, 79
1, 808667, Control_c, 0, 64, 80
1, 808682, Control_c, 0, 64, 81
1, 808696, Control_c, 0, 64, 82
1, 808711, Control_c, 0, 64, 83
1, 808726, Control_c, 0, 64, 84
1, 808741, Control_c, 0, 64, 85
1, 808743, Note_on_c, 0, 68, 70
1, 808744, Note_on_c, 0, 62, 61
1, 808749, Note_on_c, 0, 56, 55
1, 808749, Note_on_c, 0, 40, 62
1, 808756, Control_c, 0, 64, 86
1, 808772, Control_c, 0, 64, 87
1, 808773, Note_off_c, 0, 62, 64
1, 808774, Note_off_c, 0, 56, 58
1, 808778, Note_off_c, 0, 40, 60
1, 808785, Note_off_c, 0, 68, 61
1, 808787, Control_c, 0, 64, 88
1, 808801, Control_c, 0, 64, 89
1, 808816, Control_c, 0, 64, 91
1, 808831, Control_c, 0, 64, 92
1, 808846, Control_c, 0, 64, 92
1, 808850, Poly_aftertouch_c, 0, 66, 0
1, 808860, Control_c, 0, 64, 93
1, 808905, Control_c, 0, 64, 93
1, 809000, Note_on_c, 0, 88, 88
1, 809006, Note_on_c, 0, 76, 81
1, 809029, Note_off_c, 0, 76, 67
1, 809040, Note_off_c, 0, 88, 65
1, 809110, Note_on_c, 0, 90, 93
1, 809118, Note_on_c, 0, 78, 83
1, 809119, Control_c, 0, 64, 94
1, 809164, Control_c, 0, 64, 94
1, 809178, Note_off_c, 0, 78, 59
1, 809183, Note_off_c, 0, 90, 66
1, 809193, Control_c, 0, 64, 94
1, 809208, Control_c, 0, 64, 85
1, 809223, Control_c, 0, 64, 68
1, 809238, Control_c, 0, 64, 48
1, 809245, Note_on_c, 0, 92, 94
1, 809246, Note_on_c, 0, 45, 51
1, 809253, Control_c, 0, 64, 0
1, 809257, Note_on_c, 0, 85, 44
1, 809273, Note_on_c, 0, 80, 52
1, 809283, Control_c, 0, 64, 42
1, 809298, Control_c, 0, 64, 58
1, 809301, Note_off_c, 0, 45, 61
1, 809310, Note_on_c, 0, 81, 26
1, 809313, Control_c, 0, 64, 66
1, 809323, Note_on_c, 0, 52, 59
1, 809327, Control_c, 0, 64, 71
1, 809329, Note_off_c, 0, 80, 54
1, 809331, Note_off_c, 0, 92, 64
1, 809342, Control_c, 0, 64, 75
1, 809357, Control_c, 0, 64, 76
1, 809358, Note_off_c, 0, 52, 63
1, 809361, Poly_aftertouch_c, 0, 82, 127
1, 809372, Control_c, 0, 64, 77
1, 809387, Control_c, 0, 64, 78
1, 809393, Note_on_c, 0, 57, 72
1, 809400, Poly_aftertouch_c, 0, 82, 0
1, 809401, Control_c, 0, 64, 79
1, 809416, Control_c, 0, 64, 79
1, 809422, Note_off_c, 0, 57, 68
1, 809446, Control_c, 0, 64, 80
1, 809461, Control_c, 0, 64, 81
1, 809475, Control_c, 0, 64, 82
1, 809483, Note_on_c, 0, 60, 68
1, 809488, Note_on_c, 0, 90, 77
1, 809490, Control_c, 0, 64, 84
1, 809495, Note_on_c, 0, 78, 68
1, 809505, Control_c, 0, 64, 87
1, 809513, Note_off_c, 0, 90, 67
1, 809519, Control_c, 0, 64, 91
1, 809520, Note_off_c, 0, 78, 67
1, 809526, Note_off_c, 0, 85, 58
1, 809534, Control_c, 0, 64, 95
1, 809539, Note_off_c, 0, 60, 62
1, 809540, Note_off_c, 0, 81, 48
1, 809549, Control_c, 0, 64, 98
1, 809557, Note_on_c, 0, 61, 70
1, 809575, Note_on_c, 0, 88, 84
1, 809587, Note_on_c, 0, 76, 83
1, 809595, Control_c, 0, 64, 87
1, 809606, Note_on_c, 0, 64, 72
1, 809610, Control_c, 0, 64, 69
1, 809611, Note_off_c, 0, 76, 68
1, 809614, Note_off_c, 0, 61, 63
1, 809623, Note_off_c, 0, 88, 66
1, 809623, Note_on_c, 0, 85, 57
1, 809624, Control_c, 0, 64, 48
1, 809639, Control_c, 0, 64, 0
1, 809646, Note_off_c, 0, 85, 63
1, 809654, Control_c, 0, 64, 32
1, 809669, Control_c, 0, 64, 48
1, 809670, Note_off_c, 0, 64, 62
1, 809684, Control_c, 0, 64, 65
1, 809685, Note_on_c, 0, 90, 94
1, 809697, Poly_aftertouch_c, 0, 81, 127
1, 809701, Note_on_c, 0, 78, 73
1, 809702, Note_on_c, 0, 85, 75
1, 809705, Note_on_c, 0, 60, 68
1, 809706, Control_c, 0, 64, 75
1, 809721, Control_c, 0, 64, 89
1, 809736, Control_c, 0, 64, 97
1, 809750, Control_c, 0, 64, 103
1, 809753, Note_off_c, 0, 60, 63
1, 809760, Note_on_c, 0, 61, 72
1, 809765, Control_c, 0, 64, 111
1, 809780, Control_c, 0, 64, 127
1, 809800, Note_off_c, 0, 61, 61
1, 809819, Note_off_c, 0, 90, 63
1, 809825, Note_off_c, 0, 78, 53
1, 809826, Note_on_c, 0, 64, 67
1, 809855, Note_off_c, 0, 64, 66
1, 809911, Note_on_c, 0, 69, 65
1, 809920, Note_on_c, 0, 88, 90
1, 809920, Poly_aftertouch_c, 0, 81, 0
1, 809930, Note_on_c, 0, 76, 81
1, 809932, Note_off_c, 0, 85, 60
1, 809938, Note_off_c, 0, 69, 68
1, 809950, Note_off_c, 0, 76, 70
1, 809960, Note_off_c, 0, 88, 64
1, 809975, Note_on_c, 0, 73, 74
1, 809997, Note_off_c, 0, 73, 70
1, 810013, Note_on_c, 0, 86, 93
1, 810019, Note_on_c, 0, 74, 81
1, 810040, Note_off_c, 0, 74, 71
1, 810062, Note_off_c, 0, 86, 66
1, 810091, Control_c, 0, 64, 80
1, 810105, Control_c, 0, 64, 52
1, 810116, Note_on_c, 0, 52, 66
1, 810120, Note_on_c, 0, 88, 93
1, 810120, Control_c, 0, 64, 0
1, 810123, Note_on_c, 0, 79, 68
1, 810134, Note_on_c, 0, 58, 71
1, 810143, Note_on_c, 0, 76, 60
1, 810160, Note_on_c, 0, 80, 10
1, 810165, Control_c, 0, 64, 37
1, 810175, Note_off_c, 0, 52, 59
1, 810178, Note_off_c, 0, 58, 62
1, 810180, Control_c, 0, 64, 60
1, 810190, Note_on_c, 0, 60, 65
1, 810195, Control_c, 0, 64, 71
1, 810199, Note_off_c, 0, 76, 50
1, 810210, Control_c, 0, 64, 79
1, 810213, Note_off_c, 0, 80, 26
1, 810223, Note_off_c, 0, 60, 65
1, 810224, Control_c, 0, 64, 83
1, 810239, Control_c, 0, 64, 85
1, 810254, Control_c, 0, 64, 87
1, 810255, Note_off_c, 0, 88, 61
1, 810256, Note_on_c, 0, 61, 59
1, 810269, Control_c, 0, 64, 88
1, 810279, Note_off_c, 0, 61, 62
1, 810284, Control_c, 0, 64, 90
1, 810298, Control_c, 0, 64, 91
1, 810309, Note_off_c, 0, 79, 60
1, 810313, Control_c, 0, 64, 91
1, 810339, Note_on_c, 0, 67, 74
1, 810348, Note_on_c, 0, 86, 89
1, 810353, Note_on_c, 0, 74, 83
1, 810357, Control_c, 0, 64, 92
1, 810370, Poly_aftertouch_c, 0, 62, 0
1, 810375, Note_off_c, 0, 74, 72
1, 810393, Note_off_c, 0, 67, 64
1, 810402, Note_off_c, 0, 86, 65
1, 810403, Control_c, 0, 64, 93
1, 810418, Control_c, 0, 64, 95
1, 810421, Note_on_c, 0, 70, 72
1, 810433, Control_c, 0, 64, 99
1, 810450, Note_off_c, 0, 70, 71
1, 810454, Note_on_c, 0, 85, 87
1, 810454, Control_c, 0, 64, 104
1, 810463, Note_on_c, 0, 73, 77
1, 810469, Control_c, 0, 64, 107
1, 810488, Note_off_c, 0, 73, 65
1, 810514, Control_c, 0, 64, 93
1, 810523, Note_off_c, 0, 85, 62
1, 810529, Control_c, 0, 64, 69
1, 810544, Control_c, 0, 64, 42
1, 810559, Control_c, 0, 64, 0
1, 810564, Note_on_c, 0, 47, 70
1, 810565, Note_on_c, 0, 86, 92
1, 810569, Note_on_c, 0, 80, 79
1, 810570, Note_on_c, 0, 74, 79
1, 810588, Note_off_c, 0, 80, 72
1, 810593, Note_off_c, 0, 74, 71
1, 810600, Note_off_c, 0, 86, 66
1, 810603, Control_c, 0, 64, 46
1, 810607, Note_off_c, 0, 47, 61
1, 810618, Control_c, 0, 64, 60
1, 810633, Control_c, 0, 64, 64
1, 810639, Note_on_c, 0, 52, 63
1, 810647, Control_c, 0, 64, 65
1, 810662, Control_c, 0, 64, 65
1, 810677, Control_c, 0, 64, 66
1, 810692, Control_c, 0, 64, 68
1, 810693, Note_off_c, 0, 52, 62
1, 810707, Control_c, 0, 64, 69
1, 810721, Control_c, 0, 64, 69
1, 810733, Note_on_c, 0, 59, 71
1, 810736, Control_c, 0, 64, 70
1, 810751, Control_c, 0, 64, 70
1, 810762, Note_off_c, 0, 59, 68
1, 810766, Control_c, 0, 64, 71
1, 810795, Control_c, 0, 64, 71
1, 810810, Control_c, 0, 64, 72
1, 810822, Note_on_c, 0, 88, 93
1, 810825, Control_c, 0, 64, 73
1, 810830, Note_on_c, 0, 76, 72
1, 810831, Note_on_c, 0, 62, 54
1, 810839, Control_c, 0, 64, 74
1, 810854, Note_off_c, 0, 76, 70
1, 810854, Control_c, 0, 64, 77
1, 810857, Note_off_c, 0, 88, 61
1, 810863, Note_off_c, 0, 62, 63
1, 810866, Note_on_c, 0, 64, 50
1, 810869, Control_c, 0, 64, 80
1, 810884, Control_c, 0, 64, 84
1, 810891, Note_off_c, 0, 64, 60
1, 810898, Control_c, 0, 64, 86
1, 810904, Note_on_c, 0, 85, 88
1, 810913, Note_on_c, 0, 73, 79
1, 810913, Control_c, 0, 64, 86
1, 810927, Note_on_c, 0, 68, 58
1, 810928, Control_c, 0, 64, 80
1, 810937, Note_off_c, 0, 73, 64
1, 810943, Control_c, 0, 64, 64
1, 810946, Note_off_c, 0, 68, 63
1, 810958, Control_c, 0, 64, 34
1, 810973, Control_c, 0, 64, 0
1, 810977, Note_off_c, 0, 85, 62
1, 811003, Control_c, 0, 64, 49
1, 811018, Control_c, 0, 64, 66
1, 811019, Note_on_c, 0, 86, 89
1, 811024, Note_on_c, 0, 78, 75
1, 811033, Note_on_c, 0, 80, 70
1, 811033, Control_c, 0, 64, 74
1, 811033, Note_on_c, 0, 74, 69
1, 811038, Note_off_c, 0, 78, 66
1, 811041, Note_on_c, 0, 76, 61
1, 811047, Control_c, 0, 64, 81
1, 811056, Note_off_c, 0, 80, 68
1, 811061, Note_off_c, 0, 76, 63
1, 811062, Control_c, 0, 64, 83
1, 811067, Note_off_c, 0, 74, 61
1, 811075, Note_off_c, 0, 86, 65
1, 811077, Control_c, 0, 64, 84
1, 811091, Control_c, 0, 64, 84
1, 811121, Control_c, 0, 64, 85
1, 811277, Control_c, 0, 64, 81
1, 811282, Note_on_c, 0, 68, 72
1, 811283, Note_on_c, 0, 62, 73
1, 811289, Note_on_c, 0, 66, 69
1, 811292, Control_c, 0, 64, 65
1, 811301, Note_off_c, 0, 62, 65
1, 811307, Control_c, 0, 64, 0
1, 811308, Note_off_c, 0, 68, 64
1, 811317, Note_off_c, 0, 66, 65
1, 811556, Note_on_c, 0, 66, 71
1, 811559, Control_c, 0, 64, 29
1, 811561, Note_on_c, 0, 56, 49
1, 811564, Note_on_c, 0, 62, 44
1, 811567, Note_on_c, 0, 40, 51
1, 811574, Control_c, 0, 64, 57
1, 811588, Note_off_c, 0, 56, 35
1, 811588, Control_c, 0, 64, 64
1, 811593, Note_off_c, 0, 62, 63
1, 811597, Note_off_c, 0, 40, 59
1, 811603, Control_c, 0, 64, 65
1, 811608, Note_off_c, 0, 66, 64
1, 811618, Control_c, 0, 64, 66
1, 811633, Control_c, 0, 64, 69
1, 811648, Control_c, 0, 64, 71
1, 811662, Control_c, 0, 64, 73
1, 811677, Control_c, 0, 64, 74
1, 811707, Control_c, 0, 64, 74
1, 811736, Control_c, 0, 64, 75
1, 811825, Control_c, 0, 67, 62
1, 811832, Note_on_c, 0, 88, 74
1, 811840, Control_c, 0, 67, 92
1, 811855, Control_c, 0, 67, 115
1, 811862, Note_on_c, 0, 76, 44
1, 811870, Control_c, 0, 67, 127
1, 811896, Note_off_c, 0, 76, 50
1, 811906, Note_off_c, 0, 88, 64
1, 811941, Poly_aftertouch_c, 0, 84, 127
1, 812007, Note_on_c, 0, 89, 81
1, 812021, Poly_aftertouch_c, 0, 84, 0
1, 812024, Note_on_c, 0, 77, 55
1, 812096, Note_off_c, 0, 77, 53
1, 812112, Note_off_c, 0, 89, 62
1, 812204, Control_c, 0, 64, 74
1, 812207, Note_on_c, 0, 45, 52
1, 812219, Control_c, 0, 64, 69
1, 812223, Note_on_c, 0, 91, 76
1, 812234, Control_c, 0, 64, 59
1, 812249, Control_c, 0, 64, 38
1, 812250, Note_on_c, 0, 79, 42
1, 812255, Poly_aftertouch_c, 0, 84, 127
1, 812264, Control_c, 0, 64, 0
1, 812271, Note_on_c, 0, 81, 10
1, 812293, Control_c, 0, 64, 35
1, 812302, Note_off_c, 0, 45, 59
1, 812308, Control_c, 0, 64, 47
1, 812323, Control_c, 0, 64, 57
1, 812330, Note_on_c, 0, 52, 37
1, 812337, Control_c, 0, 64, 63
1, 812352, Control_c, 0, 64, 66
1, 812362, Note_off_c, 0, 79, 60
1, 812367, Control_c, 0, 64, 67
1, 812371, Note_off_c, 0, 52, 62
1, 812382, Control_c, 0, 64, 69
1, 812386, Note_off_c, 0, 91, 59
1, 812397, Control_c, 0, 64, 70
1, 812411, Control_c, 0, 64, 71
1, 812416, Note_on_c, 0, 56, 50
1, 812426, Control_c, 0, 64, 72
1, 812441, Control_c, 0, 64, 73
1, 812456, Control_c, 0, 64, 74
1, 812457, Note_off_c, 0, 56, 63
1, 812471, Control_c, 0, 64, 74
1, 812499, Note_on_c, 0, 89, 77
1, 812500, Control_c, 0, 64, 75
1, 812505, Note_on_c, 0, 57, 56
1, 812510, Note_on_c, 0, 77, 61
1, 812515, Control_c, 0, 64, 75
1, 812526, Note_off_c, 0, 57, 59
1, 812527, Note_off_c, 0, 77, 63
1, 812530, Control_c, 0, 64, 76
1, 812542, Note_off_c, 0, 89, 59
1, 812544, Control_c, 0, 64, 77
1, 812552, Note_off_c, 0, 81, 40
1, 812552, Poly_aftertouch_c, 0, 84, 0
1, 812559, Control_c, 0, 64, 78
1, 812565, Note_on_c, 0, 59, 60
1, 812574, Control_c, 0, 64, 79
1, 812589, Control_c, 0, 64, 80
1, 812598, Note_on_c, 0, 76, 80
1, 812600, Note_on_c, 0, 88, 83
1, 812603, Note_off_c, 0, 59, 65
1, 812628, Note_off_c, 0, 76, 59
1, 812633, Control_c, 0, 64, 79
1, 812637, Note_on_c, 0, 60, 65
1, 812648, Note_off_c, 0, 88, 63
1, 812648, Control_c, 0, 64, 70
1, 812663, Control_c, 0, 64, 55
1, 812667, Note_off_c, 0, 60, 66
1, 812678, Control_c, 0, 64, 0
1, 812709, Note_on_c, 0, 89, 89
1, 812711, Note_on_c, 0, 56, 68
1, 812730, Control_c, 0, 64, 44
1, 812732, Note_on_c, 0, 77, 62
1, 812744, Control_c, 0, 64, 59
1, 812759, Control_c, 0, 64, 67
1, 812762, Note_off_c, 0, 56, 61
1, 812775, Control_c, 0, 64, 71
1, 812779, Poly_aftertouch_c, 0, 81, 127
1, 812781, Note_on_c, 0, 57, 52
1, 812790, Control_c, 0, 64, 73
1, 812803, Poly_aftertouch_c, 0, 84, 127
1, 812805, Control_c, 0, 64, 75
1, 812820, Control_c, 0, 64, 77
1, 812826, Note_off_c, 0, 57, 63
1, 812827, Note_off_c, 0, 89, 60
1, 812835, Control_c, 0, 64, 78
1, 812836, Note_on_c, 0, 60, 64
1, 812849, Control_c, 0, 64, 79
1, 812854, Note_off_c, 0, 77, 54
1, 812864, Control_c, 0, 64, 80
1, 812873, Note_off_c, 0, 60, 62
1, 812879, Control_c, 0, 64, 81
1, 812894, Control_c, 0, 64, 82
1, 812909, Control_c, 0, 64, 82
1, 812916, Note_on_c, 0, 64, 71
1, 812923, Control_c, 0, 64, 83
1, 812938, Control_c, 0, 64, 84
1, 812941, Note_off_c, 0, 64, 68
1, 812946, Note_on_c, 0, 88, 82
1, 812946, Poly_aftertouch_c, 0, 81, 0
1, 812953, Control_c, 0, 64, 85
1, 812961, Note_on_c, 0, 76, 58
1, 812967, Control_c, 0, 64, 87
1, 812979, Note_off_c, 0, 76, 61
1, 812982, Control_c, 0, 64, 89
1, 812983, Poly_aftertouch_c, 0, 81, 127
1, 812997, Control_c, 0, 64, 93
1, 812998, Poly_aftertouch_c, 0, 84, 0
1, 813007, Note_off_c, 0, 88, 55
1, 813009, Note_on_c, 0, 68, 66
1, 813012, Control_c, 0, 64, 97
1, 813024, Poly_aftertouch_c, 0, 81, 0
1, 813027, Control_c, 0, 64, 101
1, 813033, Note_on_c, 0, 86, 86
1, 813042, Control_c, 0, 64, 107
1, 813043, Note_on_c, 0, 74, 76
1, 813057, Control_c, 0, 64, 112
1, 813071, Control_c, 0, 64, 116
1, 813079, Note_off_c, 0, 74, 54
1, 813080, Note_off_c, 0, 68, 61
1, 813116, Control_c, 0, 64, 98
1, 813117, Note_on_c, 0, 63, 74
1, 813121, Note_off_c, 0, 86, 52
1, 813131, Control_c, 0, 64, 73
1, 813145, Note_on_c, 0, 88, 88
1, 813146, Control_c, 0, 64, 50
1, 813158, Note_on_c, 0, 84, 60
1, 813159, Note_on_c, 0, 76, 72
1, 813160, Control_c, 0, 64, 0
1, 813190, Control_c, 0, 64, 44
1, 813202, Note_off_c, 0, 63, 62
1, 813205, Control_c, 0, 64, 62
1, 813212, Note_on_c, 0, 64, 59
1, 813220, Control_c, 0, 64, 73
1, 813234, Control_c, 0, 64, 84
1, 813248, Note_off_c, 0, 64, 64
1, 813249, Control_c, 0, 64, 91
1, 813257, Poly_aftertouch_c, 0, 81, 127
1, 813264, Control_c, 0, 64, 95
1, 813267, Note_on_c, 0, 68, 69
1, 813274, Note_off_c, 0, 76, 52
1, 813279, Control_c, 0, 64, 99
1, 813286, Note_off_c, 0, 88, 64
1, 813293, Control_c, 0, 64, 107
1, 813308, Control_c, 0, 64, 117
1, 813323, Control_c, 0, 64, 127
1, 813324, Note_off_c, 0, 68, 62
1, 813333, Poly_aftertouch_c, 0, 81, 0
1, 813335, Note_off_c, 0, 84, 63
1, 813353, Control_c, 0, 67, 108
1, 813356, Note_on_c, 0, 71, 76
1, 813367, Control_c, 0, 67, 87
1, 813377, Note_off_c, 0, 71, 70
1, 813382, Control_c, 0, 67, 64
1, 813392, Note_on_c, 0, 86, 89
1, 813397, Control_c, 0, 67, 43
1, 813402, Note_on_c, 0, 74, 84
1, 813412, Control_c, 0, 67, 0
1, 813423, Note_off_c, 0, 74, 69
1, 813432, Note_off_c, 0, 86, 65
1, 813445, Note_on_c, 0, 72, 79
1, 813464, Note_off_c, 0, 72, 71
1, 813500, Note_on_c, 0, 84, 92
1, 813516, Note_on_c, 0, 72, 65
1, 813544, Note_off_c, 0, 72, 64
1, 813562, Note_off_c, 0, 84, 58
1, 813591, Note_on_c, 0, 43, 71
1, 813598, Control_c, 0, 64, 75
1, 813602, Note_on_c, 0, 82, 89
1, 813613, Note_on_c, 0, 76, 70
1, 813613, Control_c, 0, 64, 50
1, 813615, Note_on_c, 0, 70, 79
1, 813628, Control_c, 0, 64, 0
1, 813665, Note_off_c, 0, 43, 61
1, 813672, Control_c, 0, 64, 52
1, 813677, Note_on_c, 0, 48, 78
1, 813687, Control_c, 0, 64, 66
1, 813702, Control_c, 0, 64, 74
1, 813709, Note_off_c, 0, 70, 63
1, 813716, Control_c, 0, 64, 81
1, 813730, Note_off_c, 0, 48, 62
1, 813731, Control_c, 0, 64, 84
1, 813746, Control_c, 0, 64, 85
1, 813761, Control_c, 0, 64, 86
1, 813766, Note_on_c, 0, 55, 73
1, 813776, Control_c, 0, 64, 87
1, 813783, Note_off_c, 0, 82, 60
1, 813790, Control_c, 0, 64, 88
1, 813792, Note_off_c, 0, 55, 66
1, 813796, Note_off_c, 0, 76, 62
1, 813805, Control_c, 0, 64, 89
1, 813820, Control_c, 0, 64, 89
1, 813841, Note_on_c, 0, 84, 95
1, 813843, Note_on_c, 0, 58, 72
1, 813849, Note_on_c, 0, 72, 78
1, 813850, Control_c, 0, 64, 90
1, 813864, Control_c, 0, 64, 90
1, 813869, Note_off_c, 0, 72, 68
1, 813879, Control_c, 0, 64, 92
1, 813891, Note_off_c, 0, 84, 66
1, 813894, Note_off_c, 0, 58, 62
1, 813894, Control_c, 0, 64, 93
1, 813909, Control_c, 0, 64, 97
1, 813924, Control_c, 0, 64, 104
1, 813939, Control_c, 0, 64, 119
1, 813942, Note_on_c, 0, 86, 99
1, 813946, Note_on_c, 0, 60, 57
1, 813950, Note_on_c, 0, 74, 82
1, 813954, Control_c, 0, 64, 127
1, 813967, Note_off_c, 0, 60, 63
1, 813973, Note_off_c, 0, 74, 66
1, 813995, Note_off_c, 0, 86, 66
1, 814012, Note_on_c, 0, 58, 27
1, 814028, Control_c, 0, 64, 90
1, 814043, Control_c, 0, 64, 65
1, 814047, Note_off_c, 0, 58, 45
1, 814056, Note_on_c, 0, 88, 96
1, 814057, Control_c, 0, 64, 44
1, 814072, Control_c, 0, 64, 38
1, 814074, Note_on_c, 0, 76, 76
1, 814080, Note_on_c, 0, 67, 74
1, 814085, Note_on_c, 0, 82, 66
1, 814087, Control_c, 0, 64, 46
1, 814102, Control_c, 0, 64, 60
1, 814103, Note_off_c, 0, 67, 69
1, 814116, Control_c, 0, 64, 69
1, 814131, Control_c, 0, 64, 78
1, 814141, Note_on_c, 0, 60, 74
1, 814146, Control_c, 0, 64, 84
1, 814161, Control_c, 0, 64, 87
1, 814176, Control_c, 0, 64, 90
1, 814189, Note_off_c, 0, 76, 61
1, 814198, Control_c, 0, 64, 92
1, 814210, Note_off_c, 0, 60, 62
1, 814213, Control_c, 0, 64, 93
1, 814219, Note_on_c, 0, 67, 75
1, 814228, Note_off_c, 0, 88, 63
1, 814228, Control_c, 0, 64, 94
1, 814243, Control_c, 0, 64, 95
1, 814258, Control_c, 0, 64, 96
1, 814291, Note_off_c, 0, 67, 63
1, 814316, Note_on_c, 0, 86, 88
1, 814320, Note_on_c, 0, 70, 69
1, 814326, Note_on_c, 0, 74, 78
1, 814352, Note_off_c, 0, 74, 66
1, 814363, Note_off_c, 0, 86, 64
1, 814380, Note_off_c, 0, 82, 61
1, 814393, Note_off_c, 0, 70, 59
1, 814421, Control_c, 0, 64, 98
1, 814427, Note_on_c, 0, 67, 63
1, 814434, Note_on_c, 0, 84, 88
1, 814444, Note_on_c, 0, 72, 73
1, 814475, Note_off_c, 0, 67, 57
1, 814478, Note_off_c, 0, 72, 56
1, 814502, Note_off_c, 0, 84, 63
1, 814511, Note_on_c, 0, 70, 60
1, 814554, Control_c, 0, 64, 90
1, 814569, Control_c, 0, 64, 75
1, 814572, Note_on_c, 0, 86, 82
1, 814578, Poly_aftertouch_c, 0, 82, 0
1, 814580, Note_off_c, 0, 70, 50
1, 814584, Control_c, 0, 64, 59
1, 814592, Note_on_c, 0, 79, 35
1, 814595, Note_on_c, 0, 74, 66
1, 814599, Control_c, 0, 64, 53
1, 814610, Note_on_c, 0, 76, 59
1, 814613, Control_c, 0, 64, 55
1, 814628, Control_c, 0, 64, 60
1, 814643, Control_c, 0, 64, 66
1, 814658, Control_c, 0, 64, 73
1, 814667, Note_off_c, 0, 76, 51
1, 814673, Control_c, 0, 64, 80
1, 814687, Note_off_c, 0, 74, 53
1, 814687, Control_c, 0, 64, 83
1, 814700, Note_on_c, 0, 70, 61
1, 814702, Control_c, 0, 64, 85
1, 814717, Control_c, 0, 64, 87
1, 814732, Control_c, 0, 64, 89
1, 814745, Note_off_c, 0, 70, 57
1, 814747, Control_c, 0, 64, 90
1, 814758, Note_off_c, 0, 86, 60
1, 814762, Control_c, 0, 64, 90
1, 814777, Control_c, 0, 64, 91
1, 814791, Control_c, 0, 64, 92
1, 814791, Control_c, 0, 67, 45
1, 814806, Control_c, 0, 67, 61
1, 814821, Control_c, 0, 64, 92
1, 814821, Control_c, 0, 67, 74
1, 814833, Note_on_c, 0, 70, 41
1, 814836, Control_c, 0, 67, 86
1, 814851, Control_c, 0, 67, 99
1, 814865, Control_c, 0, 67, 112
1, 814871, Note_on_c, 0, 84, 76
1, 814880, Control_c, 0, 67, 122
1, 814895, Control_c, 0, 67, 127
1, 814899, Note_on_c, 0, 72, 39
1, 814904, Note_off_c, 0, 79, 39
1, 814940, Note_off_c, 0, 72, 50
1, 814941, Note_off_c, 0, 70, 56
1, 814961, Control_c, 0, 64, 93
1, 814976, Control_c, 0, 67, 124
1, 815003, Note_on_c, 0, 67, 53
1, 815006, Control_c, 0, 67, 121
1, 815036, Control_c, 0, 67, 119
1, 815080, Control_c, 0, 67, 117
1, 815095, Note_off_c, 0, 67, 55
1, 815109, Note_on_c, 0, 60, 48
1, 815132, Note_on_c, 0, 82, 79
1, 815134, Note_off_c, 0, 60, 58
1, 815139, Control_c, 0, 67, 115
1, 815150, Note_on_c, 0, 70, 66
1, 815155, Note_off_c, 0, 84, 40
1, 815170, Control_c, 0, 67, 113
1, 815185, Control_c, 0, 67, 111
1, 815200, Control_c, 0, 67, 109
1, 815230, Control_c, 0, 67, 107
1, 815232, Note_off_c, 0, 82, 61
1, 815248, Note_off_c, 0, 70, 55
1, 815259, Control_c, 0, 67, 105
1, 815269, Note_on_c, 0, 41, 62
1, 815278, Note_on_c, 0, 48, 60
1, 815298, Note_off_c, 0, 41, 64
1, 815316, Note_off_c, 0, 48, 63
1, 815392, Control_c, 0, 67, 107
1, 815407, Control_c, 0, 64, 92
1, 815422, Control_c, 0, 64, 83
1, 815432, Note_on_c, 0, 81, 75
1, 815435, Note_on_c, 0, 60, 90
1, 815436, Control_c, 0, 64, 69
1, 815451, Control_c, 0, 64, 55
1, 815466, Control_c, 0, 64, 49
1, 815480, Control_c, 0, 64, 50
1, 815495, Control_c, 0, 64, 55
1, 815510, Control_c, 0, 64, 63
1, 815525, Control_c, 0, 64, 68
1, 815525, Control_c, 0, 67, 105
1, 815534, Note_off_c, 0, 81, 58
1, 815540, Control_c, 0, 64, 74
1, 815555, Control_c, 0, 64, 78
1, 815555, Control_c, 0, 67, 103
1, 815569, Control_c, 0, 64, 80
1, 815569, Control_c, 0, 67, 101
1, 815571, Note_on_c, 0, 76, 61
1, 815584, Control_c, 0, 64, 81
1, 815584, Control_c, 0, 67, 98
1, 815590, Note_off_c, 0, 60, 59
1, 815599, Control_c, 0, 64, 82
1, 815599, Control_c, 0, 67, 92
1, 815614, Control_c, 0, 67, 82
1, 815629, Control_c, 0, 67, 68
1, 815633, Note_off_c, 0, 76, 59
1, 815644, Control_c, 0, 64, 82
1, 815644, Control_c, 0, 67, 54
1, 815650, Note_on_c, 0, 77, 65
1, 815659, Control_c, 0, 67, 44
1, 815674, Control_c, 0, 67, 0
1, 815724, Note_on_c, 0, 48, 57
1, 815744, Note_off_c, 0, 77, 53
1, 815745, Note_on_c, 0, 74, 60
1, 815784, Note_off_c, 0, 74, 60
1, 815801, Note_on_c, 0, 76, 55
1, 815829, Note_off_c, 0, 76, 56
1, 815844, Control_c, 0, 64, 82
1, 815874, Control_c, 0, 64, 79
1, 815877, Note_on_c, 0, 72, 60
1, 815888, Control_c, 0, 64, 73
1, 815896, Note_off_c, 0, 72, 64
1, 815901, Note_off_c, 0, 48, 53
1, 815903, Control_c, 0, 64, 63
1, 815918, Control_c, 0, 64, 52
1, 815924, Note_on_c, 0, 36, 63
1, 815932, Note_on_c, 0, 74, 65
1, 815933, Control_c, 0, 64, 44
1, 815948, Control_c, 0, 64, 39
1, 815960, Note_off_c, 0, 36, 60
1, 815964, Control_c, 0, 64, 38
1, 815996, Note_off_c, 0, 74, 62
1, 816008, Note_on_c, 0, 69, 64
1, 816008, Control_c, 0, 64, 39
1, 816038, Control_c, 0, 64, 39
1, 816043, Note_off_c, 0, 69, 60
1, 816053, Control_c, 0, 64, 40
1, 816072, Note_on_c, 0, 72, 51
1, 816082, Control_c, 0, 64, 40
1, 816096, Note_off_c, 0, 72, 57
1, 816137, Note_on_c, 0, 65, 60
1, 816143, Note_on_c, 0, 48, 65
1, 816160, Note_off_c, 0, 65, 63
1, 816169, Note_off_c, 0, 48, 57
1, 816189, Note_on_c, 0, 69, 53
1, 816226, Note_off_c, 0, 69, 65
1, 816246, Control_c, 0, 64, 40
1, 816260, Control_c, 0, 64, 39
1, 816265, Note_on_c, 0, 62, 63
1, 816275, Control_c, 0, 64, 34
1, 816290, Control_c, 0, 64, 0
1, 816299, Note_off_c, 0, 62, 60
1, 816355, Note_on_c, 0, 65, 53
1, 816360, Note_on_c, 0, 60, 90
1, 816378, Control_c, 0, 64, 37
1, 816393, Control_c, 0, 64, 58
1, 816402, Note_off_c, 0, 65, 60
1, 816408, Control_c, 0, 64, 66
1, 816419, Note_on_c, 0, 62, 56
1, 816423, Control_c, 0, 64, 70
1, 816440, Note_off_c, 0, 60, 62
1, 816446, Control_c, 0, 64, 73
1, 816460, Control_c, 0, 64, 76
1, 816466, Note_off_c, 0, 62, 62
1, 816475, Control_c, 0, 64, 78
1, 816490, Control_c, 0, 64, 79
1, 816505, Note_on_c, 0, 65, 56
1, 816505, Control_c, 0, 64, 80
1, 816519, Control_c, 0, 64, 80
1, 816536, Note_off_c, 0, 65, 63
1, 816570, Note_on_c, 0, 48, 68
1, 816593, Control_c, 0, 64, 81
1, 816604, Note_off_c, 0, 48, 64
1, 816633, Note_on_c, 0, 72, 43
1, 816636, Poly_aftertouch_c, 0, 69, 127
1, 816637, Control_c, 0, 64, 82
1, 816652, Control_c, 0, 64, 83
1, 816667, Control_c, 0, 64, 85
1, 816674, Poly_aftertouch_c, 0, 69, 0
1, 816682, Control_c, 0, 64, 87
1, 816684, Note_off_c, 0, 72, 61
1, 816688, Note_on_c, 0, 74, 64
1, 816691, Note_on_c, 0, 43, 56
1, 816697, Control_c, 0, 64, 89
1, 816702, Note_on_c, 0, 48, 53
1, 816706, Note_off_c, 0, 74, 64
1, 816711, Control_c, 0, 64, 90
1, 816717, Note_off_c, 0, 43, 61
1, 816726, Control_c, 0, 64, 89
1, 816728, Note_off_c, 0, 48, 57
1, 816741, Control_c, 0, 64, 87
1, 816757, Control_c, 0, 64, 75
1, 816772, Control_c, 0, 64, 62
1, 816787, Control_c, 0, 64, 51
1, 816802, Control_c, 0, 64, 53
1, 816816, Control_c, 0, 64, 59
1, 816819, Note_on_c, 0, 60, 95
1, 816829, Note_on_c, 0, 82, 71
1, 816831, Control_c, 0, 64, 67
1, 816846, Control_c, 0, 64, 74
1, 816857, Note_off_c, 0, 60, 69
1, 816861, Control_c, 0, 64, 82
1, 816865, Note_off_c, 0, 82, 64
1, 816876, Control_c, 0, 64, 86
1, 816890, Control_c, 0, 64, 88
1, 816905, Control_c, 0, 64, 89
1, 816909, Note_on_c, 0, 76, 54
1, 816920, Control_c, 0, 64, 89
1, 816960, Note_off_c, 0, 76, 46
1, 816985, Note_on_c, 0, 79, 61
1, 817021, Note_off_c, 0, 79, 62
1, 817043, Note_on_c, 0, 36, 73
1, 817057, Note_on_c, 0, 72, 61
1, 817074, Note_off_c, 0, 36, 62
1, 817077, Note_off_c, 0, 72, 63
1, 817123, Note_on_c, 0, 76, 64
1, 817171, Note_on_c, 0, 72, 62
1, 817191, Note_off_c, 0, 76, 60
1, 817215, Note_off_c, 0, 72, 61
1, 817219, Note_on_c, 0, 58, 83
1, 817239, Control_c, 0, 64, 89
1, 817254, Control_c, 0, 64, 79
1, 817268, Control_c, 0, 64, 62
1, 817272, Note_off_c, 0, 58, 63
1, 817277, Note_on_c, 0, 64, 61
1, 817283, Control_c, 0, 64, 0
1, 817287, Note_on_c, 0, 60, 88
1, 817307, Note_off_c, 0, 60, 70
1, 817308, Note_off_c, 0, 64, 66
1, 817345, Note_on_c, 0, 72, 57
1, 817380, Note_off_c, 0, 72, 60
1, 817433, Note_on_c, 0, 62, 45
1, 817471, Note_off_c, 0, 62, 51
1, 817504, Note_on_c, 0, 64, 59
1, 817533, Control_c, 0, 64, 29
1, 817542, Note_off_c, 0, 64, 63
1, 817546, Note_on_c, 0, 60, 83
1, 817548, Control_c, 0, 64, 56
1, 817564, Control_c, 0, 64, 63
1, 817570, Note_off_c, 0, 60, 70
1, 817579, Control_c, 0, 64, 66
1, 817593, Note_on_c, 0, 70, 46
1, 817593, Control_c, 0, 64, 68
1, 817608, Control_c, 0, 64, 70
1, 817623, Note_off_c, 0, 70, 63
1, 817623, Control_c, 0, 64, 71
1, 817638, Control_c, 0, 64, 72
1, 817650, Note_on_c, 0, 64, 67
1, 817653, Control_c, 0, 64, 73
1, 817668, Control_c, 0, 64, 73
1, 817707, Note_off_c, 0, 64, 54
1, 817734, Note_on_c, 0, 70, 63
1, 817751, Note_on_c, 0, 36, 75
1, 817775, Note_off_c, 0, 36, 65
1, 817801, Note_off_c, 0, 70, 62
1, 817816, Note_on_c, 0, 76, 57
1, 817875, Note_off_c, 0, 76, 55
1, 817898, Note_on_c, 0, 69, 61
1, 817942, Note_off_c, 0, 69, 60
1, 817962, Note_on_c, 0, 72, 48
1, 817977, Note_on_c, 0, 58, 93
1, 818008, Note_off_c, 0, 72, 49
1, 818012, Note_on_c, 0, 64, 62
1, 818026, Note_off_c, 0, 58, 63
1, 818044, Note_off_c, 0, 64, 65
1, 818082, Note_on_c, 0, 60, 91
1, 818104, Control_c, 0, 64, 74
1, 818117, Note_off_c, 0, 60, 67
1, 818134, Control_c, 0, 64, 74
1, 818149, Control_c, 0, 64, 75
1, 818163, Control_c, 0, 64, 76
1, 818178, Control_c, 0, 64, 76
1, 818191, Note_on_c, 0, 41, 66
1, 818192, Note_on_c, 0, 48, 84
1, 818193, Control_c, 0, 64, 77
1, 818208, Control_c, 0, 64, 76
1, 818214, Note_off_c, 0, 41, 62
1, 818219, Note_off_c, 0, 48, 68
1, 818223, Control_c, 0, 64, 72
1, 818237, Control_c, 0, 64, 60
1, 818252, Control_c, 0, 64, 29
1, 818264, Note_on_c, 0, 81, 69
1, 818267, Control_c, 0, 64, 0
1, 818276, Note_on_c, 0, 62, 85
1, 818312, Control_c, 0, 64, 39
1, 818327, Control_c, 0, 64, 55
1, 818334, Note_off_c, 0, 81, 60
1, 818342, Control_c, 0, 64, 64
1, 818357, Control_c, 0, 64, 68
1, 818360, Note_on_c, 0, 76, 72
1, 818372, Control_c, 0, 64, 71
1, 818386, Control_c, 0, 64, 72
1, 818398, Note_off_c, 0, 62, 60
1, 818401, Control_c, 0, 64, 73
1, 818416, Control_c, 0, 64, 74
1, 818425, Note_off_c, 0, 76, 61
1, 818431, Control_c, 0, 64, 74
1, 818445, Note_on_c, 0, 77, 68
1, 818446, Control_c, 0, 64, 75
1, 818518, Note_on_c, 0, 48, 68
1, 818518, Note_off_c, 0, 77, 61
1, 818521, Note_on_c, 0, 74, 64
1, 818566, Note_off_c, 0, 74, 61
1, 818582, Note_on_c, 0, 76, 59
1, 818586, Note_off_c, 0, 48, 0
1, 818616, Note_off_c, 0, 76, 58
1, 818619, Note_on_c, 0, 48, 26
1, 818660, Note_on_c, 0, 72, 61
1, 818686, Note_off_c, 0, 72, 64
1, 818693, Note_off_c, 0, 48, 52
1, 818720, Control_c, 0, 64, 73
1, 818725, Note_on_c, 0, 74, 71
1, 818726, Note_on_c, 0, 36, 69
1, 818735, Control_c, 0, 64, 70
1, 818750, Control_c, 0, 64, 65
1, 818760, Note_off_c, 0, 36, 63
1, 818765, Control_c, 0, 64, 59
1, 818779, Control_c, 0, 64, 53
1, 818793, Note_off_c, 0, 74, 62
1, 818794, Control_c, 0, 64, 49
1, 818801, Note_on_c, 0, 69, 67
1, 818809, Control_c, 0, 64, 46
1, 818824, Control_c, 0, 64, 46
1, 818831, Note_off_c, 0, 69, 63
1, 818839, Control_c, 0, 64, 45
1, 818853, Control_c, 0, 64, 43
1, 818868, Control_c, 0, 64, 41
1, 818878, Note_on_c, 0, 72, 33
1, 818883, Control_c, 0, 64, 39
1, 818898, Control_c, 0, 64, 38
1, 818911, Note_off_c, 0, 72, 33
1, 818923, Note_on_c, 0, 65, 71
1, 818929, Note_on_c, 0, 48, 84
1, 818955, Note_off_c, 0, 48, 66
1, 818955, Note_off_c, 0, 65, 60
1, 818986, Note_on_c, 0, 69, 68
1, 819030, Control_c, 0, 64, 38
1, 819034, Note_off_c, 0, 69, 58
1, 819045, Control_c, 0, 64, 34
1, 819060, Control_c, 0, 64, 0
1, 819064, Note_on_c, 0, 62, 71
1, 819097, Note_off_c, 0, 62, 62
1, 819140, Note_on_c, 0, 64, 98
1, 819146, Note_on_c, 0, 65, 64
1, 819147, Note_on_c, 0, 69, 69
1, 819165, Control_c, 0, 64, 48
1, 819180, Control_c, 0, 64, 66
1, 819193, Note_off_c, 0, 65, 62
1, 819195, Control_c, 0, 64, 72
1, 819203, Note_off_c, 0, 64, 65
1, 819203, Note_off_c, 0, 69, 56
1, 819209, Control_c, 0, 64, 78
1, 819222, Note_on_c, 0, 60, 76
1, 819224, Control_c, 0, 64, 83
1, 819239, Control_c, 0, 64, 87
1, 819254, Control_c, 0, 64, 91
1, 819260, Note_off_c, 0, 60, 62
1, 819269, Control_c, 0, 64, 93
1, 819284, Control_c, 0, 64, 93
1, 819299, Control_c, 0, 64, 94
1, 819315, Note_on_c, 0, 65, 56
1, 819334, Note_off_c, 0, 65, 64
1, 819340, Note_on_c, 0, 48, 83
1, 819353, Note_on_c, 0, 69, 65
1, 819377, Note_off_c, 0, 48, 60
1, 819406, Note_off_c, 0, 69, 60
1, 819430, Note_on_c, 0, 72, 44
1, 819468, Control_c, 0, 64, 96
1, 819470, Note_on_c, 0, 43, 80
1, 819483, Control_c, 0, 64, 102
1, 819486, Note_on_c, 0, 48, 79
1, 819486, Note_on_c, 0, 74, 69
1, 819498, Control_c, 0, 64, 117
1, 819499, Note_off_c, 0, 72, 61
1, 819501, Note_off_c, 0, 43, 66
1, 819512, Note_off_c, 0, 74, 69
1, 819513, Control_c, 0, 64, 127
1, 819515, Note_off_c, 0, 48, 66
1, 819543, Control_c, 0, 64, 115
1, 819558, Control_c, 0, 64, 82
1, 819573, Control_c, 0, 64, 61
1, 819588, Control_c, 0, 64, 40
1, 819602, Control_c, 0, 64, 47
1, 819606, Note_on_c, 0, 65, 100
1, 819617, Control_c, 0, 64, 61
1, 819618, Note_on_c, 0, 82, 76
1, 819632, Control_c, 0, 64, 74
1, 819638, Note_off_c, 0, 82, 69
1, 819644, Note_off_c, 0, 65, 69
1, 819645, Note_on_c, 0, 70, 58
1, 819647, Control_c, 0, 64, 96
1, 819661, Control_c, 0, 64, 127
1, 819665, Note_off_c, 0, 70, 64
1, 819701, Note_on_c, 0, 73, 51
1, 819701, Note_off_c, 0, 73, 127
1, 819718, Note_on_c, 0, 72, 71
1, 819768, Note_off_c, 0, 72, 61
1, 819781, Note_on_c, 0, 79, 60
1, 819815, Note_off_c, 0, 79, 61
1, 819823, Note_on_c, 0, 36, 90
1, 819842, Note_on_c, 0, 70, 75
1, 819849, Note_off_c, 0, 36, 66
1, 819865, Note_off_c, 0, 70, 70
1, 819927, Note_on_c, 0, 79, 43
1, 819951, Note_off_c, 0, 79, 59
1, 819988, Note_on_c, 0, 72, 66
1, 819995, Note_on_c, 0, 64, 90
1, 820018, Control_c, 0, 64, 78
1, 820024, Note_off_c, 0, 64, 66
1, 820032, Control_c, 0, 64, 49
1, 820047, Control_c, 0, 64, 0
1, 820061, Note_off_c, 0, 72, 59
1, 820062, Note_on_c, 0, 64, 99
1, 820080, Note_on_c, 0, 70, 68
1, 820090, Note_off_c, 0, 64, 70
1, 820103, Note_on_c, 0, 72, 48
1, 820136, Note_off_c, 0, 70, 58
1, 820220, Note_on_c, 0, 67, 60
1, 820220, Note_off_c, 0, 72, 62
1, 820262, Note_off_c, 0, 67, 63
1, 820306, Control_c, 0, 64, 60
1, 820314, Note_on_c, 0, 70, 69
1, 820316, Note_on_c, 0, 62, 95
1, 820321, Control_c, 0, 64, 67
1, 820336, Control_c, 0, 64, 70
1, 820343, Note_off_c, 0, 62, 66
1, 820351, Control_c, 0, 64, 73
1, 820366, Control_c, 0, 64, 75
1, 820377, Note_off_c, 0, 70, 59
1, 820381, Control_c, 0, 64, 78
1, 820390, Note_on_c, 0, 60, 72
1, 820396, Control_c, 0, 64, 79
1, 820410, Control_c, 0, 64, 81
1, 820424, Note_off_c, 0, 60, 61
1, 820425, Control_c, 0, 64, 81
1, 820440, Control_c, 0, 64, 82
1, 820470, Control_c, 0, 64, 82
1, 820470, Note_on_c, 0, 67, 70
1, 820529, Note_off_c, 0, 67, 61
1, 820532, Note_on_c, 0, 70, 71
1, 820540, Note_on_c, 0, 36, 69
1, 820554, Note_on_c, 0, 35, 54
1, 820564, Note_off_c, 0, 36, 63
1, 820565, Note_off_c, 0, 70, 62
1, 820586, Note_off_c, 0, 35, 53
1, 820604, Note_on_c, 0, 67, 70
1, 820680, Note_on_c, 0, 70, 75
1, 820685, Note_off_c, 0, 67, 54
1, 820691, Control_c, 0, 64, 81
1, 820706, Control_c, 0, 64, 74
1, 820721, Control_c, 0, 64, 65
1, 820736, Control_c, 0, 64, 57
1, 820751, Note_off_c, 0, 70, 64
1, 820767, Control_c, 0, 64, 60
1, 820771, Note_on_c, 0, 79, 77
1, 820772, Note_on_c, 0, 60, 97
1, 820781, Control_c, 0, 64, 65
1, 820796, Control_c, 0, 64, 70
1, 820811, Control_c, 0, 64, 74
1, 820826, Control_c, 0, 64, 75
1, 820832, Note_off_c, 0, 60, 60
1, 820874, Note_on_c, 0, 70, 72
1, 820885, Control_c, 0, 64, 76
1, 820891, Note_off_c, 0, 79, 61
1, 820903, Note_on_c, 0, 62, 95
1, 820935, Note_off_c, 0, 62, 68
1, 820937, Control_c, 0, 64, 78
1, 820946, Note_off_c, 0, 70, 64
1, 820952, Control_c, 0, 64, 81
1, 820964, Note_on_c, 0, 67, 81
1, 820967, Control_c, 0, 64, 85
1, 820981, Control_c, 0, 64, 87
1, 820996, Control_c, 0, 64, 89
1, 821010, Note_off_c, 0, 67, 61
1, 821010, Note_on_c, 0, 41, 87
1, 821011, Control_c, 0, 64, 90
1, 821026, Control_c, 0, 64, 90
1, 821032, Note_off_c, 0, 41, 69
1, 821055, Control_c, 0, 64, 89
1, 821070, Control_c, 0, 64, 78
1, 821085, Control_c, 0, 64, 62
1, 821100, Control_c, 0, 64, 30
1, 821109, Note_on_c, 0, 64, 96
1, 821114, Control_c, 0, 64, 0
1, 821119, Note_on_c, 0, 81, 61
1, 821129, Poly_aftertouch_c, 0, 43, 0
1, 821135, Note_on_c, 0, 69, 78
1, 821159, Control_c, 0, 64, 48
1, 821174, Control_c, 0, 64, 62
1, 821175, Note_off_c, 0, 81, 55
1, 821187, Note_off_c, 0, 69, 59
1, 821188, Control_c, 0, 64, 68
1, 821203, Control_c, 0, 64, 73
1, 821218, Control_c, 0, 64, 77
1, 821229, Note_on_c, 0, 70, 71
1, 821233, Control_c, 0, 64, 79
1, 821248, Control_c, 0, 64, 81
1, 821249, Note_off_c, 0, 64, 63
1, 821263, Control_c, 0, 64, 82
1, 821278, Control_c, 0, 64, 83
1, 821289, Note_off_c, 0, 70, 64
1, 821299, Note_on_c, 0, 71, 76
1, 821358, Note_off_c, 0, 71, 54
1, 821369, Note_on_c, 0, 62, 85
1, 821379, Note_on_c, 0, 72, 68
1, 821420, Note_off_c, 0, 62, 63
1, 821421, Note_off_c, 0, 72, 59
1, 821434, Note_on_c, 0, 77, 56
1, 821451, Note_on_c, 0, 60, 93
1, 821481, Note_on_c, 0, 81, 61
1, 821486, Note_off_c, 0, 77, 63
1, 821492, Note_off_c, 0, 60, 67
1, 821498, Note_off_c, 0, 81, 64
1, 821529, Control_c, 0, 64, 79
1, 821545, Control_c, 0, 64, 66
1, 821560, Control_c, 0, 64, 38
1, 821567, Note_on_c, 0, 62, 89
1, 821575, Control_c, 0, 64, 0
1, 821577, Note_on_c, 0, 48, 82
1, 821584, Note_on_c, 0, 65, 61
1, 821620, Note_off_c, 0, 48, 47
1, 821628, Note_off_c, 0, 65, 54
1, 821648, Note_on_c, 0, 67, 58
1, 821648, Control_c, 0, 64, 50
1, 821663, Control_c, 0, 64, 63
1, 821686, Control_c, 0, 64, 67
1, 821694, Note_off_c, 0, 67, 62
1, 821701, Control_c, 0, 64, 70
1, 821716, Control_c, 0, 64, 73
1, 821722, Note_off_c, 0, 62, 61
1, 821724, Note_on_c, 0, 68, 61
1, 821730, Control_c, 0, 64, 74
1, 821745, Control_c, 0, 64, 75
1, 821752, Note_off_c, 0, 68, 68
1, 821760, Control_c, 0, 64, 76
1, 821790, Control_c, 0, 64, 76
1, 821805, Note_on_c, 0, 69, 74
1, 821817, Note_on_c, 0, 60, 78
1, 821861, Note_off_c, 0, 69, 61
1, 821863, Control_c, 0, 64, 77
1, 821864, Note_off_c, 0, 60, 62
1, 821878, Control_c, 0, 64, 78
1, 821893, Control_c, 0, 64, 79
1, 821899, Note_on_c, 0, 58, 92
1, 821908, Control_c, 0, 64, 81
1, 821915, Note_on_c, 0, 72, 58
1, 821919, Note_on_c, 0, 77, 56
1, 821921, Note_off_c, 0, 58, 69
1, 821923, Control_c, 0, 64, 83
1, 821935, Note_off_c, 0, 72, 61
1, 821937, Note_off_c, 0, 77, 61
1, 821937, Control_c, 0, 64, 84
1, 821967, Control_c, 0, 64, 83
1, 821982, Control_c, 0, 64, 75
1, 821996, Control_c, 0, 64, 59
1, 822011, Control_c, 0, 64, 0
1, 822024, Note_on_c, 0, 60, 80
1, 822026, Note_on_c, 0, 36, 79
1, 822053, Note_on_c, 0, 64, 67
1, 822053, Note_off_c, 0, 36, 67
1, 822071, Control_c, 0, 64, 47
1, 822086, Control_c, 0, 64, 62
1, 822088, Note_off_c, 0, 60, 62
1, 822101, Control_c, 0, 64, 67
1, 822116, Control_c, 0, 64, 70
1, 822130, Control_c, 0, 64, 72
1, 822136, Note_off_c, 0, 64, 65
1, 822142, Note_on_c, 0, 65, 66
1, 822145, Control_c, 0, 64, 73
1, 822160, Control_c, 0, 64, 74
1, 822174, Note_off_c, 0, 65, 61
1, 822175, Control_c, 0, 64, 75
1, 822190, Control_c, 0, 64, 75
1, 822239, Note_on_c, 0, 67, 74
1, 822253, Note_on_c, 0, 58, 88
1, 822270, Note_off_c, 0, 67, 60
1, 822290, Note_on_c, 0, 74, 50
1, 822302, Note_off_c, 0, 58, 63
1, 822314, Note_off_c, 0, 74, 56
1, 822348, Note_on_c, 0, 57, 88
1, 822381, Poly_aftertouch_c, 0, 67, 127
1, 822394, Note_off_c, 0, 57, 66
1, 822415, Note_on_c, 0, 64, 39
1, 822434, Poly_aftertouch_c, 0, 67, 0
1, 822449, Control_c, 0, 64, 73
1, 822463, Note_on_c, 0, 58, 87
1, 822464, Control_c, 0, 64, 63
1, 822470, Note_on_c, 0, 43, 90
1, 822479, Control_c, 0, 64, 34
1, 822483, Poly_aftertouch_c, 0, 65, 0
1, 822491, Note_off_c, 0, 43, 67
1, 822494, Control_c, 0, 64, 0
1, 822506, Note_off_c, 0, 58, 62
1, 822515, Note_off_c, 0, 64, 41
1, 822557, Note_on_c, 0, 72, 61
1, 822587, Note_off_c, 0, 72, 62
1, 822625, Note_on_c, 0, 62, 68
1, 822687, Note_off_c, 0, 62, 61
1, 822702, Note_on_c, 0, 63, 66
1, 822725, Note_on_c, 0, 60, 82
1, 822732, Control_c, 0, 64, 49
1, 822735, Note_off_c, 0, 63, 61
1, 822746, Control_c, 0, 64, 58
1, 822761, Control_c, 0, 64, 60
1, 822776, Control_c, 0, 64, 62
1, 822783, Note_off_c, 0, 60, 64
1, 822791, Control_c, 0, 64, 66
1, 822799, Note_on_c, 0, 64, 73
1, 822806, Control_c, 0, 64, 70
1, 822812, Note_on_c, 0, 57, 72
1, 822820, Control_c, 0, 64, 76
1, 822828, Note_off_c, 0, 57, 65
1, 822835, Control_c, 0, 64, 80
1, 822850, Control_c, 0, 64, 81
1, 822865, Control_c, 0, 64, 80
1, 822869, Note_off_c, 0, 64, 61
1, 822879, Control_c, 0, 64, 73
1, 822894, Control_c, 0, 64, 59
1, 822909, Control_c, 0, 64, 0
1, 822912, Note_on_c, 0, 36, 56
1, 822916, Poly_aftertouch_c, 0, 55, 0
1, 822921, Note_on_c, 0, 72, 65
1, 822946, Note_off_c, 0, 36, 55
1, 822953, Control_c, 0, 64, 46
1, 822962, Note_on_c, 0, 76, 67
1, 822964, Note_off_c, 0, 72, 62
1, 822968, Control_c, 0, 64, 62
1, 822978, Note_on_c, 0, 58, 86
1, 822983, Control_c, 0, 64, 68
1, 822998, Control_c, 0, 64, 72
1, 823013, Control_c, 0, 64, 72
1, 823016, Note_off_c, 0, 76, 62
1, 823028, Control_c, 0, 64, 73
1, 823034, Note_on_c, 0, 66, 76
1, 823037, Note_off_c, 0, 58, 61
1, 823043, Control_c, 0, 64, 73
1, 823057, Control_c, 0, 64, 74
1, 823066, Note_off_c, 0, 66, 64
1, 823072, Control_c, 0, 64, 75
1, 823087, Control_c, 0, 64, 76
1, 823102, Control_c, 0, 64, 76
1, 823108, Note_on_c, 0, 67, 80
1, 823132, Note_off_c, 0, 67, 65
1, 823198, Note_on_c, 0, 70, 80
1, 823218, Note_off_c, 0, 70, 72
1, 823222, Note_on_c, 0, 79, 61
1, 823246, Note_off_c, 0, 79, 69
1, 823285, Note_on_c, 0, 72, 74
1, 823332, Note_off_c, 0, 72, 57
1, 823342, Note_on_c, 0, 79, 65
1, 823362, Control_c, 0, 67, 42
1, 823376, Control_c, 0, 67, 61
1, 823391, Control_c, 0, 67, 77
1, 823398, Note_off_c, 0, 79, 58
1, 823406, Control_c, 0, 67, 89
1, 823414, Note_on_c, 0, 84, 67
1, 823420, Control_c, 0, 67, 95
1, 823426, Note_on_c, 0, 82, 80
1, 823435, Control_c, 0, 67, 96
1, 823444, Note_off_c, 0, 82, 72
1, 823450, Control_c, 0, 67, 95
1, 823465, Control_c, 0, 67, 92
1, 823478, Note_off_c, 0, 84, 53
1, 823480, Control_c, 0, 67, 89
1, 823494, Control_c, 0, 67, 86
1, 823502, Note_on_c, 0, 76, 71
1, 823509, Control_c, 0, 67, 82
1, 823524, Control_c, 0, 67, 77
1, 823539, Control_c, 0, 67, 73
1, 823554, Control_c, 0, 67, 71
1, 823564, Note_off_c, 0, 76, 63
1, 823568, Control_c, 0, 67, 70
1, 823570, Note_on_c, 0, 79, 69
1, 823583, Control_c, 0, 64, 76
1, 823583, Control_c, 0, 67, 68
1, 823595, Note_off_c, 0, 79, 67
1, 823598, Control_c, 0, 64, 71
1, 823598, Control_c, 0, 67, 66
1, 823613, Control_c, 0, 64, 61
1, 823613, Control_c, 0, 67, 64
1, 823627, Control_c, 0, 64, 45
1, 823627, Control_c, 0, 67, 63
1, 823642, Control_c, 0, 64, 33
1, 823649, Note_on_c, 0, 60, 79
1, 823657, Control_c, 0, 64, 32
1, 823670, Note_on_c, 0, 70, 70
1, 823672, Control_c, 0, 64, 38
1, 823687, Control_c, 0, 64, 50
1, 823687, Control_c, 0, 67, 64
1, 823701, Control_c, 0, 64, 58
1, 823701, Control_c, 0, 67, 64
1, 823716, Control_c, 0, 64, 63
1, 823728, Note_off_c, 0, 60, 61
1, 823731, Control_c, 0, 64, 65
1, 823731, Control_c, 0, 67, 65
1, 823746, Control_c, 0, 64, 66
1, 823751, Note_off_c, 0, 70, 61
1, 823761, Control_c, 0, 64, 67
1, 823764, Note_on_c, 0, 76, 70
1, 823776, Control_c, 0, 64, 68
1, 823776, Control_c, 0, 67, 64
1, 823784, Note_on_c, 0, 61, 81
1, 823791, Control_c, 0, 64, 68
1, 823806, Control_c, 0, 64, 69
1, 823806, Note_off_c, 0, 61, 70
1, 823820, Control_c, 0, 64, 70
1, 823830, Note_off_c, 0, 76, 62
1, 823835, Control_c, 0, 64, 70
1, 823850, Control_c, 0, 64, 71
1, 823865, Control_c, 0, 64, 71
1, 823873, Note_on_c, 0, 67, 74
1, 823880, Control_c, 0, 64, 72
1, 823903, Note_on_c, 0, 41, 57
1, 823905, Note_on_c, 0, 43, 58
1, 823909, Control_c, 0, 67, 66
1, 823927, Note_off_c, 0, 67, 58
1, 823931, Control_c, 0, 67, 68
1, 823939, Note_off_c, 0, 41, 55
1, 823939, Note_off_c, 0, 43, 53
1, 823947, Control_c, 0, 67, 71
1, 823962, Control_c, 0, 64, 67
1, 823962, Control_c, 0, 67, 73
1, 823977, Control_c, 0, 64, 50
1, 823977, Control_c, 0, 67, 74
1, 823992, Control_c, 0, 64, 0
1, 824010, Note_on_c, 0, 63, 78
1, 824023, Note_on_c, 0, 80, 61
1, 824036, Control_c, 0, 64, 33
1, 824042, Note_on_c, 0, 68, 58
1, 824050, Control_c, 0, 64, 49
1, 824050, Control_c, 0, 67, 73
1, 824065, Control_c, 0, 64, 60
1, 824074, Note_off_c, 0, 68, 66
1, 824080, Control_c, 0, 64, 65
1, 824080, Control_c, 0, 67, 72
1, 824095, Control_c, 0, 64, 67
1, 824095, Control_c, 0, 67, 71
1, 824110, Control_c, 0, 64, 68
1, 824110, Control_c, 0, 67, 70
1, 824125, Note_on_c, 0, 70, 62
1, 824125, Control_c, 0, 64, 69
1, 824125, Control_c, 0, 67, 68
1, 824140, Control_c, 0, 64, 69
1, 824140, Control_c, 0, 67, 68
1, 824154, Note_off_c, 0, 63, 63
1, 824154, Control_c, 0, 67, 67
1, 824199, Note_off_c, 0, 70, 61
1, 824200, Note_on_c, 0, 71, 69
1, 824215, Note_off_c, 0, 80, 32
1, 824243, Control_c, 0, 67, 66
1, 824254, Note_off_c, 0, 71, 55
1, 824269, Note_on_c, 0, 61, 74
1, 824273, Control_c, 0, 67, 66
1, 824283, Note_on_c, 0, 72, 62
1, 824330, Note_on_c, 0, 77, 54
1, 824336, Note_off_c, 0, 72, 57
1, 824347, Control_c, 0, 64, 70
1, 824349, Note_off_c, 0, 61, 61
1, 824352, Note_on_c, 0, 60, 81
1, 824377, Control_c, 0, 67, 65
1, 824386, Note_on_c, 0, 80, 68
1, 824391, Control_c, 0, 64, 70
1, 824402, Note_off_c, 0, 60, 65
1, 824405, Note_off_c, 0, 77, 64
1, 824416, Note_off_c, 0, 80, 65
1, 824436, Control_c, 0, 64, 70
1, 824450, Control_c, 0, 64, 65
1, 824465, Control_c, 0, 64, 53
1, 824472, Note_on_c, 0, 61, 85
1, 824475, Note_on_c, 0, 65, 72
1, 824480, Control_c, 0, 64, 0
1, 824487, Note_on_c, 0, 48, 66
1, 824518, Note_off_c, 0, 48, 51
1, 824539, Note_off_c, 0, 65, 58
1, 824539, Control_c, 0, 64, 41
1, 824554, Control_c, 0, 64, 54
1, 824569, Control_c, 0, 64, 62
1, 824575, Note_on_c, 0, 66, 63
1, 824584, Control_c, 0, 64, 65
1, 824599, Control_c, 0, 64, 67
1, 824614, Control_c, 0, 64, 67
1, 824622, Note_off_c, 0, 66, 61
1, 824628, Control_c, 0, 64, 68
1, 824643, Control_c, 0, 64, 69
1, 824643, Control_c, 0, 67, 64
1, 824657, Note_on_c, 0, 67, 65
1, 824658, Control_c, 0, 64, 69
1, 824658, Control_c, 0, 67, 64
1, 824680, Control_c, 0, 67, 63
1, 824686, Note_off_c, 0, 61, 63
1, 824695, Control_c, 0, 64, 70
1, 824695, Control_c, 0, 67, 62
1, 824710, Control_c, 0, 67, 61
1, 824718, Note_on_c, 0, 60, 77
1, 824724, Note_off_c, 0, 67, 50
1, 824724, Control_c, 0, 67, 60
1, 824733, Note_on_c, 0, 68, 74
1, 824739, Control_c, 0, 67, 58
1, 824755, Control_c, 0, 67, 55
1, 824770, Control_c, 0, 64, 70
1, 824770, Control_c, 0, 67, 53
1, 824785, Control_c, 0, 64, 71
1, 824785, Control_c, 0, 67, 44
1, 824795, Note_off_c, 0, 68, 62
1, 824800, Control_c, 0, 64, 71
1, 824800, Control_c, 0, 67, 0
1, 824813, Note_on_c, 0, 72, 59
1, 824814, Note_on_c, 0, 56, 86
1, 824815, Note_off_c, 0, 60, 65
1, 824815, Control_c, 0, 64, 72
1, 824829, Control_c, 0, 64, 72
1, 824844, Control_c, 0, 64, 73
1, 824853, Note_on_c, 0, 77, 57
1, 824864, Note_off_c, 0, 72, 62
1, 824872, Note_off_c, 0, 77, 60
1, 824903, Control_c, 0, 64, 71
1, 824918, Control_c, 0, 64, 62
1, 824924, Note_off_c, 0, 56, 63
1, 824927, Note_on_c, 0, 58, 88
1, 824933, Control_c, 0, 64, 43
1, 824940, Note_on_c, 0, 53, 56
1, 824947, Control_c, 0, 64, 0
1, 824950, Note_on_c, 0, 60, 72
1, 824974, Note_off_c, 0, 53, 64
1, 825007, Control_c, 0, 64, 41
1, 825022, Control_c, 0, 64, 52
1, 825037, Control_c, 0, 64, 58
1, 825039, Note_on_c, 0, 63, 71
1, 825043, Note_off_c, 0, 60, 57
1, 825052, Control_c, 0, 64, 61
1, 825066, Control_c, 0, 64, 62
1, 825081, Control_c, 0, 64, 63
1, 825096, Control_c, 0, 64, 64
1, 825104, Note_off_c, 0, 63, 63
1, 825111, Control_c, 0, 64, 66
1, 825117, Note_on_c, 0, 64, 68
1, 825126, Control_c, 0, 64, 69
1, 825140, Control_c, 0, 64, 72
1, 825155, Control_c, 0, 64, 74
1, 825159, Note_off_c, 0, 64, 64
1, 825170, Control_c, 0, 64, 75
1, 825189, Note_on_c, 0, 56, 91
1, 825199, Control_c, 0, 64, 72
1, 825204, Note_on_c, 0, 65, 22
1, 825214, Control_c, 0, 64, 62
1, 825219, Note_off_c, 0, 58, 63
1, 825229, Control_c, 0, 64, 47
1, 825242, Note_off_c, 0, 65, 43
1, 825244, Control_c, 0, 64, 39
1, 825259, Control_c, 0, 64, 41
1, 825273, Control_c, 0, 64, 49
1, 825288, Control_c, 0, 64, 58
1, 825303, Control_c, 0, 64, 64
1, 825315, Note_on_c, 0, 72, 51
1, 825318, Control_c, 0, 64, 66
1, 825332, Note_on_c, 0, 74, 51
1, 825333, Control_c, 0, 64, 68
1, 825347, Control_c, 0, 64, 69
1, 825348, Note_on_c, 0, 53, 91
1, 825350, Note_off_c, 0, 56, 65
1, 825357, Note_off_c, 0, 74, 57
1, 825362, Control_c, 0, 64, 70
1, 825369, Note_off_c, 0, 72, 62
1, 825377, Control_c, 0, 64, 71
1, 825392, Control_c, 0, 64, 72
1, 825394, Note_off_c, 0, 53, 67
1, 825406, Control_c, 0, 64, 74
1, 825425, Note_on_c, 0, 80, 69
1, 825429, Control_c, 0, 64, 75
1, 825444, Control_c, 0, 64, 76
1, 825459, Control_c, 0, 64, 78
1, 825473, Control_c, 0, 64, 79
1, 825488, Control_c, 0, 64, 81
1, 825503, Control_c, 0, 64, 83
1, 825504, Note_on_c, 0, 37, 84
1, 825518, Control_c, 0, 64, 86
1, 825530, Note_off_c, 0, 37, 65
1, 825531, Note_on_c, 0, 39, 47
1, 825533, Control_c, 0, 64, 89
1, 825549, Control_c, 0, 64, 91
1, 825564, Control_c, 0, 64, 94
1, 825569, Note_off_c, 0, 39, 51
1, 825578, Control_c, 0, 64, 95
1, 825593, Note_off_c, 0, 80, 61
1, 825624, Control_c, 0, 64, 87
1, 825627, Note_on_c, 0, 85, 74
1, 825630, Note_on_c, 0, 58, 92
1, 825639, Control_c, 0, 64, 70
1, 825653, Control_c, 0, 64, 51
1, 825668, Control_c, 0, 64, 0
1, 825712, Control_c, 0, 64, 33
1, 825727, Control_c, 0, 64, 48
1, 825742, Control_c, 0, 64, 61
1, 825757, Control_c, 0, 64, 66
1, 825771, Control_c, 0, 64, 70
1, 825778, Note_on_c, 0, 80, 67
1, 825782, Note_off_c, 0, 85, 61
1, 825786, Control_c, 0, 64, 71
1, 825801, Control_c, 0, 64, 71
1, 825830, Control_c, 0, 64, 72
1, 825845, Control_c, 0, 64, 72
1, 825846, Note_off_c, 0, 58, 63
1, 825860, Control_c, 0, 64, 73
1, 825866, Note_on_c, 0, 78, 69
1, 825870, Note_off_c, 0, 80, 61
1, 825875, Control_c, 0, 64, 73
1, 825919, Note_off_c, 0, 78, 58
1, 825934, Control_c, 0, 64, 73
1, 825935, Note_on_c, 0, 60, 86
1, 825940, Note_on_c, 0, 73, 69
1, 825949, Control_c, 0, 64, 70
1, 825964, Control_c, 0, 64, 66
1, 825979, Control_c, 0, 64, 62
1, 825994, Note_off_c, 0, 73, 62
1, 825994, Control_c, 0, 64, 60
1, 826014, Note_on_c, 0, 75, 69
1, 826044, Note_on_c, 0, 61, 83
1, 826057, Note_off_c, 0, 60, 66
1, 826068, Control_c, 0, 64, 59
1, 826082, Note_on_c, 0, 70, 66
1, 826082, Note_off_c, 0, 75, 63
1, 826083, Control_c, 0, 64, 57
1, 826097, Control_c, 0, 64, 55
1, 826112, Control_c, 0, 64, 52
1, 826127, Control_c, 0, 64, 47
1, 826128, Note_off_c, 0, 70, 59
1, 826142, Control_c, 0, 64, 43
1, 826155, Note_on_c, 0, 66, 70
1, 826157, Note_on_c, 0, 63, 90
1, 826157, Control_c, 0, 64, 41
1, 826178, Control_c, 0, 64, 40
1, 826180, Note_off_c, 0, 61, 64
1, 826193, Control_c, 0, 64, 39
1, 826201, Note_off_c, 0, 66, 60
1, 826208, Control_c, 0, 64, 39
1, 826223, Control_c, 0, 64, 38
1, 826250, Note_on_c, 0, 73, 61
1, 826328, Note_off_c, 0, 73, 59
1, 826329, Note_on_c, 0, 70, 61
1, 826372, Control_c, 0, 64, 38
1, 826387, Control_c, 0, 64, 37
1, 826397, Note_off_c, 0, 70, 62
1, 826417, Control_c, 0, 64, 38
1, 826423, Note_on_c, 0, 69, 54
1, 826432, Control_c, 0, 64, 39
1, 826441, Note_on_c, 0, 65, 79
1, 826444, Note_off_c, 0, 63, 64
1, 826446, Control_c, 0, 64, 41
1, 826461, Control_c, 0, 64, 45
1, 826465, Note_off_c, 0, 69, 56
1, 826476, Control_c, 0, 64, 50
1, 826491, Control_c, 0, 64, 54
1, 826506, Control_c, 0, 64, 56
1, 826520, Control_c, 0, 64, 56
1, 826521, Note_on_c, 0, 70, 58
1, 826544, Note_off_c, 0, 65, 60
1, 826545, Note_on_c, 0, 66, 81
1, 826550, Control_c, 0, 64, 57
1, 826562, Note_off_c, 0, 70, 62
1, 826580, Control_c, 0, 64, 57
1, 826580, Control_c, 0, 67, 43
1, 826594, Control_c, 0, 67, 53
1, 826596, Note_on_c, 0, 73, 58
1, 826609, Control_c, 0, 64, 57
1, 826609, Control_c, 0, 67, 59
1, 826624, Control_c, 0, 64, 56
1, 826624, Control_c, 0, 67, 64
1, 826636, Note_off_c, 0, 73, 58
1, 826639, Control_c, 0, 64, 55
1, 826639, Control_c, 0, 67, 68
1, 826653, Control_c, 0, 64, 53
1, 826653, Control_c, 0, 67, 77
1, 826658, Note_off_c, 0, 66, 63
1, 826668, Control_c, 0, 64, 49
1, 826668, Control_c, 0, 67, 90
1, 826676, Note_on_c, 0, 70, 75
1, 826682, Note_on_c, 0, 56, 61
1, 826683, Control_c, 0, 64, 45
1, 826683, Control_c, 0, 67, 103
1, 826698, Note_on_c, 0, 72, 57
1, 826698, Control_c, 0, 64, 39
1, 826698, Control_c, 0, 67, 117
1, 826713, Control_c, 0, 64, 34
1, 826713, Control_c, 0, 67, 127
1, 826727, Control_c, 0, 64, 31
1, 826748, Note_off_c, 0, 72, 48
1, 826787, Control_c, 0, 64, 32
1, 826802, Control_c, 0, 64, 35
1, 826802, Note_on_c, 0, 76, 55
1, 826816, Control_c, 0, 64, 40
1, 826831, Control_c, 0, 64, 45
1, 826846, Control_c, 0, 64, 49
1, 826861, Control_c, 0, 64, 50
1, 826874, Note_off_c, 0, 76, 61
1, 826907, Note_on_c, 0, 72, 45
1, 826927, Control_c, 0, 64, 50
1, 826942, Control_c, 0, 64, 49
1, 826972, Control_c, 0, 64, 49
1, 826987, Control_c, 0, 64, 48
1, 826988, Note_off_c, 0, 72, 56
1, 827001, Control_c, 0, 64, 48
1, 827016, Control_c, 0, 64, 47
1, 827021, Note_on_c, 0, 66, 71
1, 827047, Note_off_c, 0, 70, 42
1, 827052, Note_on_c, 0, 84, 59
1, 827138, Note_off_c, 0, 84, 54
1, 827162, Note_off_c, 0, 56, 58
1, 827173, Note_on_c, 0, 70, 65
1, 827189, Note_on_c, 0, 76, 49
1, 827195, Note_off_c, 0, 66, 62
1, 827251, Note_off_c, 0, 76, 60
1, 827310, Note_on_c, 0, 72, 46
1, 827329, Control_c, 0, 64, 47
1, 827343, Control_c, 0, 64, 45
1, 827344, Note_off_c, 0, 72, 51
1, 827358, Control_c, 0, 64, 40
1, 827373, Control_c, 0, 64, 30
1, 827385, Note_off_c, 0, 70, 57
1, 827387, Control_c, 0, 64, 0
1, 827404, Note_on_c, 0, 68, 53
1, 827409, Note_on_c, 0, 61, 41
1, 827421, Note_on_c, 0, 76, 51
1, 827472, Note_off_c, 0, 76, 56
1, 827506, Control_c, 0, 64, 46
1, 827521, Control_c, 0, 64, 58
1, 827536, Control_c, 0, 64, 63
1, 827540, Note_on_c, 0, 84, 46
1, 827547, Note_off_c, 0, 61, 63
1, 827550, Control_c, 0, 64, 66
1, 827565, Control_c, 0, 64, 67
1, 827571, Note_off_c, 0, 68, 63
1, 827580, Control_c, 0, 64, 69
1, 827594, Control_c, 0, 64, 70
1, 827600, Note_off_c, 0, 84, 52
1, 827609, Control_c, 0, 64, 71
1, 827639, Control_c, 0, 64, 71
1, 827641, Note_on_c, 0, 76, 39
1, 827697, Note_off_c, 0, 76, 45
1, 827745, Note_on_c, 0, 80, 78
1, 827766, Note_off_c, 0, 80, 69
1, 827767, Note_on_c, 0, 77, 31
1, 827800, Note_off_c, 0, 77, 47
1, 827808, Note_on_c, 0, 84, 63
1, 827857, Note_off_c, 0, 84, 53
1, 827895, Note_on_c, 0, 77, 48
1, 827941, Note_off_c, 0, 77, 64
1, 827973, Note_on_c, 0, 76, 52
1, 827976, Note_on_c, 0, 56, 63
1, 828000, Note_off_c, 0, 56, 58
1, 828006, Note_off_c, 0, 76, 59
1, 828047, Control_c, 0, 64, 71
1, 828051, Note_on_c, 0, 77, 45
1, 828091, Control_c, 0, 64, 70
1, 828100, Note_off_c, 0, 77, 47
1, 828108, Note_on_c, 0, 76, 45
1, 828151, Control_c, 0, 64, 70
1, 828169, Note_off_c, 0, 76, 56
1, 828205, Note_on_c, 0, 72, 33
1, 828208, Note_on_c, 0, 68, 54
1, 828209, Control_c, 0, 64, 69
1, 828228, Note_off_c, 0, 68, 60
1, 828238, Note_off_c, 0, 72, 52
1, 828273, Note_on_c, 0, 76, 42
1, 828303, Note_off_c, 0, 76, 57
1, 828330, Note_on_c, 0, 72, 53
1, 828366, Note_off_c, 0, 72, 58
1, 828421, Note_on_c, 0, 76, 50
1, 828443, Note_on_c, 0, 80, 87
1, 828468, Note_off_c, 0, 76, 60
1, 828480, Note_off_c, 0, 80, 60
1, 828485, Note_on_c, 0, 77, 57
1, 828507, Note_off_c, 0, 77, 58
1, 828564, Note_on_c, 0, 76, 58
1, 828606, Note_off_c, 0, 76, 60
1, 828626, Note_on_c, 0, 77, 41
1, 828675, Note_on_c, 0, 68, 60
1, 828681, Note_off_c, 0, 77, 56
1, 828686, Note_on_c, 0, 84, 36
1, 828705, Note_off_c, 0, 68, 66
1, 828715, Note_off_c, 0, 84, 48
1, 828800, Note_on_c, 0, 80, 69
1, 828811, Control_c, 0, 64, 68
1, 828825, Note_off_c, 0, 80, 70
1, 828826, Control_c, 0, 64, 61
1, 828832, Note_on_c, 0, 82, 77
1, 828840, Control_c, 0, 64, 42
1, 828855, Note_on_c, 0, 63, 64
1, 828855, Control_c, 0, 64, 0
1, 828873, Note_on_c, 0, 80, 86
1, 828891, Note_off_c, 0, 82, 61
1, 828914, Control_c, 0, 64, 39
1, 828929, Control_c, 0, 64, 54
1, 828936, Note_off_c, 0, 80, 64
1, 828941, Note_off_c, 0, 63, 58
1, 828944, Control_c, 0, 64, 63
1, 828959, Control_c, 0, 64, 66
1, 828961, Note_on_c, 0, 67, 54
1, 828974, Control_c, 0, 64, 68
1, 828988, Control_c, 0, 64, 69
1, 829003, Control_c, 0, 64, 70
1, 829018, Control_c, 0, 64, 70
1, 829026, Note_off_c, 0, 67, 62
1, 829032, Control_c, 0, 64, 71
1, 829044, Note_on_c, 0, 68, 65
1, 829047, Control_c, 0, 64, 71
1, 829068, Note_off_c, 0, 68, 64
1, 829126, Note_on_c, 0, 70, 58
1, 829180, Note_off_c, 0, 70, 59
1, 829201, Note_on_c, 0, 72, 53
1, 829272, Note_on_c, 0, 78, 77
1, 829277, Control_c, 0, 64, 70
1, 829279, Note_on_c, 0, 73, 48
1, 829292, Control_c, 0, 64, 64
1, 829300, Note_off_c, 0, 72, 35
1, 829301, Note_off_c, 0, 73, 63
1, 829307, Control_c, 0, 64, 51
1, 829321, Control_c, 0, 64, 0
1, 829325, Note_off_c, 0, 78, 63
1, 829329, Note_on_c, 0, 77, 54
1, 829341, Note_on_c, 0, 80, 75
1, 829362, Note_off_c, 0, 80, 71
1, 829386, Note_off_c, 0, 77, 58
1, 829431, Note_on_c, 0, 74, 44
1, 829460, Note_off_c, 0, 74, 53
1, 829505, Note_on_c, 0, 77, 56
1, 829552, Note_off_c, 0, 77, 59
1, 829590, Control_c, 0, 64, 49
1, 829593, Note_on_c, 0, 80, 73
1, 829598, Note_on_c, 0, 75, 62
1, 829605, Control_c, 0, 64, 61
1, 829613, Note_off_c, 0, 80, 72
1, 829619, Control_c, 0, 64, 64
1, 829634, Control_c, 0, 64, 66
1, 829649, Control_c, 0, 64, 67
1, 829659, Note_off_c, 0, 75, 63
1, 829663, Control_c, 0, 64, 68
1, 829678, Control_c, 0, 64, 69
1, 829690, Note_on_c, 0, 72, 51
1, 829693, Control_c, 0, 64, 70
1, 829723, Control_c, 0, 64, 70
1, 829726, Note_off_c, 0, 72, 53
1, 829738, Control_c, 0, 64, 71
1, 829766, Note_on_c, 0, 68, 31
1, 829782, Control_c, 0, 64, 71
1, 829798, Note_off_c, 0, 68, 44
1, 829823, Note_on_c, 0, 56, 52
1, 829827, Note_on_c, 0, 66, 49
1, 829827, Control_c, 0, 64, 72
1, 829848, Note_off_c, 0, 56, 57
1, 829851, Note_off_c, 0, 66, 58
1, 829856, Control_c, 0, 64, 72
1, 829886, Control_c, 0, 64, 73
1, 829887, Note_on_c, 0, 68, 55
1, 829934, Note_off_c, 0, 68, 60
1, 829968, Note_on_c, 0, 72, 51
1, 830006, Note_off_c, 0, 72, 52
1, 830030, Note_on_c, 0, 76, 59
1, 830059, Note_on_c, 0, 78, 79
1, 830063, Note_off_c, 0, 76, 67
1, 830095, Note_off_c, 0, 78, 54
1, 830117, Note_on_c, 0, 72, 53
1, 830156, Note_on_c, 0, 80, 81
1, 830173, Note_off_c, 0, 72, 53
1, 830176, Note_off_c, 0, 80, 71
1, 830208, Note_on_c, 0, 76, 58
1, 830247, Control_c, 0, 64, 70
1, 830259, Note_off_c, 0, 76, 49
1, 830262, Control_c, 0, 64, 60
1, 830269, Note_on_c, 0, 82, 79
1, 830277, Control_c, 0, 64, 30
1, 830292, Control_c, 0, 64, 0
1, 830305, Note_on_c, 0, 61, 63
1, 830352, Control_c, 0, 64, 43
1, 830363, Note_on_c, 0, 77, 62
1, 830367, Control_c, 0, 64, 56
1, 830382, Control_c, 0, 64, 63
1, 830396, Control_c, 0, 64, 66
1, 830411, Control_c, 0, 64, 68
1, 830422, Note_off_c, 0, 82, 58
1, 830426, Control_c, 0, 64, 68
1, 830432, Note_on_c, 0, 76, 56
1, 830441, Note_off_c, 0, 77, 54
1, 830441, Control_c, 0, 64, 69
1, 830456, Control_c, 0, 64, 70
1, 830471, Note_off_c, 0, 76, 63
1, 830471, Control_c, 0, 64, 71
1, 830473, Note_off_c, 0, 61, 55
1, 830485, Control_c, 0, 64, 72
1, 830493, Note_on_c, 0, 68, 63
1, 830497, Note_on_c, 0, 72, 65
1, 830515, Control_c, 0, 64, 73
1, 830518, Note_off_c, 0, 68, 64
1, 830545, Control_c, 0, 64, 73
1, 830551, Note_off_c, 0, 72, 50
1, 830585, Note_on_c, 0, 76, 53
1, 830623, Note_off_c, 0, 76, 64
1, 830677, Note_on_c, 0, 72, 45
1, 830704, Note_on_c, 0, 80, 68
1, 830710, Note_off_c, 0, 72, 51
1, 830728, Note_on_c, 0, 76, 56
1, 830728, Note_off_c, 0, 80, 70
1, 830768, Note_off_c, 0, 76, 59
1, 830774, Control_c, 0, 64, 74
1, 830799, Note_on_c, 0, 72, 56
1, 830804, Control_c, 0, 64, 74
1, 830818, Control_c, 0, 64, 75
1, 830833, Note_off_c, 0, 72, 52
1, 830833, Control_c, 0, 64, 76
1, 830848, Control_c, 0, 64, 76
1, 830871, Note_on_c, 0, 76, 63
1, 830878, Control_c, 0, 64, 77
1, 830892, Control_c, 0, 64, 78
1, 830906, Note_off_c, 0, 76, 61
1, 830907, Control_c, 0, 64, 78
1, 830932, Note_on_c, 0, 77, 65
1, 830937, Control_c, 0, 64, 79
1, 830951, Note_on_c, 0, 92, 66
1, 830963, Note_off_c, 0, 77, 64
1, 830968, Note_off_c, 0, 92, 65
1, 830981, Control_c, 0, 64, 79
1, 831027, Note_on_c, 0, 76, 45
1, 831060, Note_off_c, 0, 76, 51
1, 831075, Note_on_c, 0, 77, 69
1, 831115, Control_c, 0, 64, 77
1, 831121, Note_off_c, 0, 77, 59
1, 831130, Control_c, 0, 64, 67
1, 831145, Control_c, 0, 64, 51
1, 831160, Note_on_c, 0, 84, 89
1, 831160, Control_c, 0, 64, 33
1, 831168, Note_on_c, 0, 56, 76
1, 831184, Note_on_c, 0, 76, 49
1, 831189, Control_c, 0, 64, 43
1, 831193, Note_off_c, 0, 56, 68
1, 831204, Control_c, 0, 64, 56
1, 831211, Note_off_c, 0, 76, 53
1, 831219, Control_c, 0, 64, 65
1, 831234, Control_c, 0, 64, 69
1, 831240, Note_on_c, 0, 77, 68
1, 831249, Control_c, 0, 64, 74
1, 831264, Control_c, 0, 64, 78
1, 831279, Control_c, 0, 64, 82
1, 831294, Control_c, 0, 64, 86
1, 831308, Control_c, 0, 64, 91
1, 831309, Note_off_c, 0, 77, 60
1, 831311, Note_on_c, 0, 76, 59
1, 831321, Note_off_c, 0, 84, 59
1, 831323, Control_c, 0, 64, 95
1, 831325, Note_on_c, 0, 78, 70
1, 831338, Control_c, 0, 64, 99
1, 831353, Control_c, 0, 64, 103
1, 831367, Control_c, 0, 64, 106
1, 831376, Note_off_c, 0, 76, 59
1, 831382, Note_off_c, 0, 78, 59
1, 831382, Control_c, 0, 64, 109
1, 831382, Control_c, 0, 67, 124
1, 831397, Control_c, 0, 64, 114
1, 831397, Control_c, 0, 67, 115
1, 831399, Note_on_c, 0, 80, 36
1, 831419, Control_c, 0, 64, 127
1, 831419, Control_c, 0, 67, 104
1, 831434, Control_c, 0, 67, 92
1, 831436, Note_off_c, 0, 80, 54
1, 831449, Control_c, 0, 67, 79
1, 831464, Control_c, 0, 67, 69
1, 831479, Control_c, 0, 67, 58
1, 831493, Control_c, 0, 67, 48
1, 831506, Note_on_c, 0, 85, 79
1, 831508, Control_c, 0, 67, 38
1, 831523, Control_c, 0, 67, 0
1, 831529, Note_off_c, 0, 85, 67
1, 831533, Note_on_c, 0, 87, 79
1, 831538, Control_c, 0, 64, 93
1, 831553, Control_c, 0, 64, 69
1, 831567, Control_c, 0, 64, 45
1, 831575, Note_on_c, 0, 85, 93
1, 831582, Control_c, 0, 64, 0
1, 831583, Note_on_c, 0, 63, 62
1, 831601, Note_off_c, 0, 87, 67
1, 831612, Control_c, 0, 64, 44
1, 831622, Note_off_c, 0, 85, 67
1, 831627, Control_c, 0, 64, 63
1, 831641, Control_c, 0, 64, 74
1, 831656, Control_c, 0, 64, 83
1, 831671, Control_c, 0, 64, 86
1, 831672, Note_off_c, 0, 63, 60
1, 831686, Control_c, 0, 64, 87
1, 831695, Note_on_c, 0, 67, 64
1, 831701, Control_c, 0, 64, 87
1, 831730, Control_c, 0, 64, 88
1, 831735, Note_off_c, 0, 67, 61
1, 831759, Note_on_c, 0, 68, 74
1, 831781, Note_off_c, 0, 68, 71
1, 831828, Note_on_c, 0, 74, 70
1, 831880, Note_off_c, 0, 74, 50
1, 831911, Note_on_c, 0, 75, 60
1, 831938, Control_c, 0, 64, 87
1, 831939, Note_off_c, 0, 75, 60
1, 831941, Note_on_c, 0, 78, 64
1, 831948, Note_on_c, 0, 84, 92
1, 831953, Control_c, 0, 64, 85
1, 831968, Control_c, 0, 64, 78
1, 831979, Note_off_c, 0, 78, 59
1, 831983, Control_c, 0, 64, 68
1, 831985, Note_off_c, 0, 84, 67
1, 831998, Control_c, 0, 64, 57
1, 832003, Note_on_c, 0, 80, 63
1, 832012, Control_c, 0, 64, 47
1, 832027, Control_c, 0, 64, 40
1, 832037, Note_on_c, 0, 84, 80
1, 832042, Note_off_c, 0, 80, 62
1, 832042, Control_c, 0, 64, 34
1, 832054, Note_on_c, 0, 78, 66
1, 832057, Control_c, 0, 64, 33
1, 832058, Note_off_c, 0, 84, 67
1, 832072, Control_c, 0, 64, 32
1, 832102, Control_c, 0, 64, 29
1, 832125, Note_off_c, 0, 78, 59
1, 832179, Note_on_c, 0, 80, 55
1, 832197, Control_c, 0, 64, 34
1, 832212, Control_c, 0, 64, 40
1, 832227, Control_c, 0, 64, 50
1, 832242, Control_c, 0, 64, 62
1, 832254, Note_off_c, 0, 80, 63
1, 832257, Control_c, 0, 64, 67
1, 832271, Control_c, 0, 64, 71
1, 832278, Note_on_c, 0, 82, 86
1, 832286, Control_c, 0, 64, 74
1, 832286, Control_c, 0, 67, 39
1, 832291, Note_on_c, 0, 78, 64
1, 832299, Note_off_c, 0, 82, 67
1, 832301, Control_c, 0, 64, 76
1, 832301, Control_c, 0, 67, 54
1, 832316, Control_c, 0, 64, 79
1, 832316, Control_c, 0, 67, 58
1, 832331, Control_c, 0, 64, 81
1, 832331, Control_c, 0, 67, 57
1, 832346, Control_c, 0, 64, 83
1, 832346, Control_c, 0, 67, 55
1, 832358, Note_off_c, 0, 78, 60
1, 832361, Control_c, 0, 64, 84
1, 832361, Control_c, 0, 67, 53
1, 832376, Control_c, 0, 64, 84
1, 832376, Control_c, 0, 67, 51
1, 832391, Control_c, 0, 67, 49
1, 832396, Note_on_c, 0, 75, 55
1, 832406, Control_c, 0, 67, 46
1, 832421, Control_c, 0, 67, 43
1, 832435, Control_c, 0, 64, 85
1, 832435, Control_c, 0, 67, 40
1, 832444, Note_on_c, 0, 72, 49
1, 832450, Control_c, 0, 67, 38
1, 832456, Note_off_c, 0, 75, 51
1, 832465, Control_c, 0, 67, 0
1, 832511, Note_off_c, 0, 72, 61
1, 832529, Note_on_c, 0, 66, 56
1, 832552, Note_off_c, 0, 66, 62
1, 832556, Note_on_c, 0, 56, 15
1, 832603, Note_off_c, 0, 56, 52
1, 832649, Note_on_c, 0, 72, 34
1, 832681, Note_off_c, 0, 72, 46
1, 832695, Note_on_c, 0, 75, 60
1, 832719, Note_off_c, 0, 75, 65
1, 832733, Control_c, 0, 67, 38
1, 832748, Control_c, 0, 67, 40
1, 832754, Note_on_c, 0, 80, 82
1, 832762, Control_c, 0, 67, 41
1, 832777, Control_c, 0, 67, 43
1, 832787, Note_off_c, 0, 80, 61
1, 832789, Note_on_c, 0, 76, 60
1, 832792, Control_c, 0, 67, 45
1, 832806, Control_c, 0, 67, 47
1, 832821, Control_c, 0, 67, 47
1, 832834, Note_off_c, 0, 76, 52
1, 832836, Control_c, 0, 64, 85
1, 832836, Control_c, 0, 67, 49
1, 832847, Note_on_c, 0, 82, 82
1, 832866, Note_off_c, 0, 82, 69
1, 832866, Control_c, 0, 64, 86
1, 832866, Control_c, 0, 67, 49
1, 832918, Control_c, 0, 67, 48
1, 832933, Control_c, 0, 64, 85
1, 832933, Control_c, 0, 67, 46
1, 832948, Control_c, 0, 64, 74
1, 832948, Control_c, 0, 67, 44
1, 832962, Control_c, 0, 64, 55
1, 832962, Control_c, 0, 67, 43
1, 832977, Control_c, 0, 64, 31
1, 832977, Control_c, 0, 67, 43
1, 832978, Note_on_c, 0, 84, 90
1, 832992, Control_c, 0, 64, 32
1, 833001, Note_on_c, 0, 61, 68
1, 833006, Control_c, 0, 64, 42
1, 833006, Control_c, 0, 67, 41
1, 833021, Control_c, 0, 64, 56
1, 833021, Control_c, 0, 67, 41
1, 833036, Control_c, 0, 64, 64
1, 833036, Control_c, 0, 67, 39
1, 833051, Control_c, 0, 64, 69
1, 833051, Control_c, 0, 67, 39
1, 833066, Control_c, 0, 64, 74
1, 833066, Control_c, 0, 67, 38
1, 833080, Control_c, 0, 64, 76
1, 833080, Control_c, 0, 67, 0
1, 833082, Note_on_c, 0, 76, 62
1, 833095, Control_c, 0, 64, 77
1, 833110, Control_c, 0, 64, 77
1, 833124, Note_on_c, 0, 77, 64
1, 833125, Control_c, 0, 64, 78
1, 833139, Note_off_c, 0, 84, 61
1, 833154, Control_c, 0, 64, 78
1, 833169, Control_c, 0, 64, 79
1, 833184, Note_off_c, 0, 61, 62
1, 833184, Control_c, 0, 64, 79
1, 833192, Note_off_c, 0, 76, 36
1, 833197, Note_on_c, 0, 82, 76
1, 833199, Control_c, 0, 64, 80
1, 833208, Note_on_c, 0, 68, 64
1, 833213, Control_c, 0, 64, 81
1, 833227, Note_off_c, 0, 68, 64
1, 833228, Control_c, 0, 64, 83
1, 833240, Note_off_c, 0, 82, 65
1, 833243, Control_c, 0, 64, 84
1, 833258, Control_c, 0, 64, 86
1, 833273, Control_c, 0, 64, 88
1, 833288, Note_on_c, 0, 76, 36
1, 833288, Control_c, 0, 64, 90
1, 833303, Control_c, 0, 64, 92
1, 833317, Note_on_c, 0, 80, 85
1, 833318, Control_c, 0, 64, 94
1, 833327, Note_off_c, 0, 76, 48
1, 833332, Control_c, 0, 64, 95
1, 833344, Note_off_c, 0, 77, 59
1, 833347, Control_c, 0, 64, 96
1, 833377, Control_c, 0, 64, 98
1, 833386, Note_off_c, 0, 80, 61
1, 833406, Control_c, 0, 64, 101
1, 833419, Note_on_c, 0, 82, 83
1, 833419, Note_on_c, 0, 85, 84
1, 833421, Control_c, 0, 64, 103
1, 833436, Control_c, 0, 64, 105
1, 833451, Control_c, 0, 64, 108
1, 833461, Note_off_c, 0, 85, 52
1, 833466, Control_c, 0, 64, 110
1, 833480, Control_c, 0, 64, 113
1, 833489, Note_off_c, 0, 82, 60
1, 833495, Control_c, 0, 64, 116
1, 833510, Control_c, 0, 64, 119
1, 833514, Note_on_c, 0, 76, 65
1, 833526, Control_c, 0, 64, 124
1, 833541, Control_c, 0, 64, 127
1, 833575, Note_on_c, 0, 77, 60
1, 833597, Note_off_c, 0, 76, 57
1, 833635, Note_off_c, 0, 77, 52
1, 833640, Note_on_c, 0, 89, 84
1, 833666, Note_off_c, 0, 89, 71
1, 833673, Note_on_c, 0, 80, 74
1, 833730, Note_off_c, 0, 80, 56
1, 833766, Note_on_c, 0, 78, 75
1, 833811, Note_off_c, 0, 78, 58
1, 833815, Control_c, 0, 64, 120
1, 833829, Control_c, 0, 64, 86
1, 833843, Control_c, 0, 64, 63
1, 833858, Control_c, 0, 64, 34
1, 833869, Note_on_c, 0, 80, 78
1, 833873, Control_c, 0, 64, 0
1, 833882, Note_on_c, 0, 56, 75
1, 833888, Control_c, 0, 64, 32
1, 833902, Control_c, 0, 64, 52
1, 833908, Note_off_c, 0, 56, 66
1, 833917, Control_c, 0, 64, 64
1, 833932, Control_c, 0, 64, 71
1, 833947, Control_c, 0, 64, 76
1, 833962, Control_c, 0, 64, 79
1, 833977, Control_c, 0, 64, 81
1, 833983, Note_on_c, 0, 68, 58
1, 833991, Control_c, 0, 64, 82
1, 834003, Note_off_c, 0, 68, 63
1, 834006, Control_c, 0, 64, 83
1, 834021, Control_c, 0, 64, 84
1, 834024, Note_on_c, 0, 71, 53
1, 834036, Control_c, 0, 64, 84
1, 834051, Control_c, 0, 67, 39
1, 834065, Note_off_c, 0, 80, 34
1, 834066, Control_c, 0, 64, 85
1, 834066, Control_c, 0, 67, 41
1, 834081, Control_c, 0, 67, 41
1, 834082, Note_on_c, 0, 74, 68
1, 834090, Note_on_c, 0, 78, 79
1, 834094, Note_off_c, 0, 71, 55
1, 834125, Control_c, 0, 64, 85
1, 834125, Control_c, 0, 67, 40
1, 834140, Control_c, 0, 67, 39
1, 834143, Note_off_c, 0, 74, 60
1, 834153, Note_off_c, 0, 78, 56
1, 834154, Control_c, 0, 67, 39
1, 834184, Control_c, 0, 67, 38
1, 834188, Note_on_c, 0, 78, 36
1, 834193, Note_on_c, 0, 77, 84
1, 834221, Note_off_c, 0, 78, 54
1, 834221, Note_off_c, 0, 77, 65
1, 834273, Control_c, 0, 64, 84
1, 834273, Control_c, 0, 67, 39
1, 834288, Control_c, 0, 64, 78
1, 834288, Control_c, 0, 67, 39
1, 834302, Control_c, 0, 64, 66
1, 834302, Control_c, 0, 67, 40
1, 834304, Note_on_c, 0, 78, 81
1, 834317, Control_c, 0, 64, 46
1, 834317, Control_c, 0, 67, 41
1, 834325, Note_off_c, 0, 78, 70
1, 834326, Note_on_c, 0, 63, 68
1, 834333, Control_c, 0, 64, 0
1, 834333, Control_c, 0, 67, 41
1, 834363, Control_c, 0, 67, 42
1, 834392, Control_c, 0, 67, 43
1, 834415, Control_c, 0, 67, 43
1, 834424, Note_off_c, 0, 63, 57
1, 834430, Control_c, 0, 67, 44
1, 834453, Note_on_c, 0, 67, 39
1, 834459, Control_c, 0, 67, 45
1, 834486, Note_off_c, 0, 67, 49
1, 834489, Control_c, 0, 67, 45
1, 834495, Note_on_c, 0, 68, 59
1, 834546, Note_off_c, 0, 68, 60
1, 834548, Control_c, 0, 67, 45
1, 834563, Control_c, 0, 67, 44
1, 834569, Note_on_c, 0, 70, 64
1, 834574, Note_on_c, 0, 80, 76
1, 834577, Control_c, 0, 67, 43
1, 834592, Control_c, 0, 67, 42
1, 834611, Note_off_c, 0, 70, 66
1, 834622, Control_c, 0, 67, 41
1, 834632, Note_off_c, 0, 80, 64
1, 834637, Control_c, 0, 67, 41
1, 834650, Note_on_c, 0, 72, 63
1, 834651, Control_c, 0, 67, 40
1, 834662, Note_on_c, 0, 77, 77
1, 834677, Note_off_c, 0, 72, 65
1, 834681, Control_c, 0, 67, 39
1, 834696, Control_c, 0, 67, 39
1, 834713, Note_on_c, 0, 74, 51
1, 834719, Note_off_c, 0, 77, 63
1, 834725, Control_c, 0, 67, 37
1, 834735, Note_off_c, 0, 74, 57
1, 834740, Control_c, 0, 67, 0
1, 834761, Note_on_c, 0, 78, 71
1, 834767, Note_on_c, 0, 75, 78
1, 834770, Control_c, 0, 64, 45
1, 834784, Control_c, 0, 64, 61
1, 834787, Note_off_c, 0, 75, 72
1, 834796, Note_off_c, 0, 78, 56
1, 834799, Control_c, 0, 64, 66
1, 834814, Control_c, 0, 64, 69
1, 834829, Control_c, 0, 64, 72
1, 834833, Note_on_c, 0, 74, 65
1, 834844, Control_c, 0, 64, 76
1, 834844, Control_c, 0, 67, 37
1, 834859, Control_c, 0, 64, 79
1, 834859, Control_c, 0, 67, 39
1, 834874, Control_c, 0, 64, 81
1, 834874, Control_c, 0, 67, 41
1, 834889, Control_c, 0, 64, 83
1, 834889, Control_c, 0, 67, 41
1, 834904, Control_c, 0, 64, 84
1, 834904, Control_c, 0, 67, 43
1, 834907, Note_on_c, 0, 75, 69
1, 834907, Note_off_c, 0, 74, 62
1, 834919, Control_c, 0, 64, 84
1, 834919, Control_c, 0, 67, 44
1, 834933, Control_c, 0, 64, 85
1, 834933, Control_c, 0, 67, 45
1, 834948, Control_c, 0, 64, 86
1, 834948, Control_c, 0, 67, 45
1, 834963, Control_c, 0, 64, 86
1, 834963, Control_c, 0, 67, 46
1, 834974, Note_on_c, 0, 84, 74
1, 834977, Control_c, 0, 64, 87
1, 834978, Note_on_c, 0, 78, 65
1, 834980, Note_off_c, 0, 75, 61
1, 834986, Note_on_c, 0, 81, 60
1, 834992, Control_c, 0, 67, 45
1, 835005, Note_off_c, 0, 81, 62
1, 835007, Control_c, 0, 64, 87
1, 835007, Control_c, 0, 67, 43
1, 835022, Control_c, 0, 67, 41
1, 835037, Control_c, 0, 64, 88
1, 835037, Control_c, 0, 67, 38
1, 835049, Note_on_c, 0, 74, 77
1, 835051, Control_c, 0, 67, 0
1, 835059, Note_off_c, 0, 78, 57
1, 835062, Note_off_c, 0, 84, 61
1, 835066, Control_c, 0, 64, 89
1, 835081, Control_c, 0, 64, 90
1, 835096, Control_c, 0, 64, 92
1, 835110, Control_c, 0, 64, 93
1, 835114, Note_on_c, 0, 75, 78
1, 835116, Note_off_c, 0, 74, 65
1, 835136, Note_off_c, 0, 75, 73
1, 835142, Control_c, 0, 64, 92
1, 835163, Control_c, 0, 64, 85
1, 835178, Control_c, 0, 64, 72
1, 835193, Control_c, 0, 64, 60
1, 835208, Control_c, 0, 64, 56
1, 835222, Note_on_c, 0, 56, 70
1, 835223, Control_c, 0, 64, 59
1, 835232, Note_on_c, 0, 89, 66
1, 835237, Control_c, 0, 64, 64
1, 835246, Note_on_c, 0, 58, 8
1, 835251, Note_off_c, 0, 56, 66
1, 835252, Control_c, 0, 64, 69
1, 835267, Control_c, 0, 64, 73
1, 835269, Note_off_c, 0, 89, 62
1, 835282, Control_c, 0, 64, 76
1, 835294, Note_off_c, 0, 58, 53
1, 835297, Control_c, 0, 64, 77
1, 835309, Note_on_c, 0, 85, 79
1, 835312, Control_c, 0, 64, 78
1, 835327, Control_c, 0, 64, 80
1, 835335, Note_on_c, 0, 84, 56
1, 835336, Note_on_c, 0, 83, 58
1, 835342, Control_c, 0, 64, 83
1, 835357, Control_c, 0, 64, 86
1, 835360, Note_off_c, 0, 84, 61
1, 835361, Note_off_c, 0, 83, 60
1, 835366, Note_off_c, 0, 85, 63
1, 835372, Control_c, 0, 64, 87
1, 835378, Note_on_c, 0, 81, 81
1, 835396, Note_off_c, 0, 81, 73
1, 835416, Control_c, 0, 64, 83
1, 835431, Control_c, 0, 64, 79
1, 835446, Control_c, 0, 64, 78
1, 835454, Note_on_c, 0, 80, 88
1, 835465, Note_on_c, 0, 81, 81
1, 835476, Note_on_c, 0, 78, 73
1, 835505, Control_c, 0, 64, 79
1, 835520, Control_c, 0, 64, 80
1, 835533, Note_on_c, 0, 75, 78
1, 835535, Control_c, 0, 64, 81
1, 835544, Note_off_c, 0, 81, 62
1, 835549, Control_c, 0, 64, 82
1, 835550, Note_off_c, 0, 80, 40
1, 835564, Control_c, 0, 64, 83
1, 835565, Note_off_c, 0, 78, 51
1, 835579, Control_c, 0, 64, 83
1, 835594, Control_c, 0, 64, 84
1, 835608, Control_c, 0, 64, 84
1, 835610, Note_on_c, 0, 81, 91
1, 835613, Note_off_c, 0, 75, 60
1, 835638, Note_off_c, 0, 81, 68
1, 835638, Control_c, 0, 64, 86
1, 835643, Note_on_c, 0, 72, 83
1, 835653, Control_c, 0, 64, 87
1, 835668, Control_c, 0, 64, 88
1, 835682, Control_c, 0, 64, 90
1, 835697, Control_c, 0, 64, 91
1, 835712, Control_c, 0, 64, 91
1, 835736, Note_off_c, 0, 72, 60
1, 835741, Control_c, 0, 64, 91
1, 835756, Control_c, 0, 64, 86
1, 835771, Note_on_c, 0, 83, 93
1, 835771, Control_c, 0, 64, 72
1, 835783, Note_on_c, 0, 61, 71
1, 835786, Control_c, 0, 64, 56
1, 835801, Control_c, 0, 64, 34
1, 835816, Control_c, 0, 64, 29
1, 835831, Control_c, 0, 64, 37
1, 835846, Control_c, 0, 64, 53
1, 835854, Note_off_c, 0, 61, 59
1, 835860, Control_c, 0, 64, 62
1, 835875, Control_c, 0, 64, 66
1, 835879, Note_on_c, 0, 67, 65
1, 835890, Control_c, 0, 64, 69
1, 835912, Control_c, 0, 64, 70
1, 835928, Control_c, 0, 64, 71
1, 835938, Note_off_c, 0, 67, 60
1, 835943, Control_c, 0, 64, 71
1, 835958, Control_c, 0, 64, 72
1, 835961, Note_on_c, 0, 68, 70
1, 835973, Control_c, 0, 64, 73
1, 835987, Control_c, 0, 64, 76
1, 835998, Note_off_c, 0, 68, 63
1, 836000, Note_off_c, 0, 83, 61
1, 836002, Control_c, 0, 64, 79
1, 836017, Control_c, 0, 64, 83
1, 836027, Note_on_c, 0, 81, 82
1, 836031, Control_c, 0, 64, 86
1, 836046, Control_c, 0, 64, 86
1, 836049, Note_on_c, 0, 72, 71
1, 836076, Control_c, 0, 64, 82
1, 836087, Note_off_c, 0, 81, 61
1, 836090, Note_off_c, 0, 72, 60
1, 836091, Control_c, 0, 64, 71
1, 836105, Control_c, 0, 64, 59
1, 836120, Control_c, 0, 64, 55
1, 836121, Note_on_c, 0, 80, 89
1, 836123, Note_on_c, 0, 73, 74
1, 836135, Control_c, 0, 64, 59
1, 836150, Control_c, 0, 64, 66
1, 836165, Control_c, 0, 64, 73
1, 836173, Note_off_c, 0, 80, 64
1, 836179, Control_c, 0, 64, 82
1, 836186, Note_off_c, 0, 73, 62
1, 836194, Control_c, 0, 64, 88
1, 836203, Note_on_c, 0, 76, 48
1, 836209, Control_c, 0, 64, 92
1, 836218, Note_on_c, 0, 81, 89
1, 836224, Control_c, 0, 64, 95
1, 836226, Note_on_c, 0, 79, 67
1, 836230, Note_off_c, 0, 76, 58
1, 836242, Note_off_c, 0, 79, 68
1, 836254, Control_c, 0, 64, 97
1, 836275, Note_off_c, 0, 81, 63
1, 836319, Note_on_c, 0, 72, 74
1, 836376, Note_off_c, 0, 72, 58
1, 836390, Note_on_c, 0, 73, 72
1, 836445, Note_off_c, 0, 73, 62
1, 836451, Note_on_c, 0, 76, 75
1, 836460, Note_on_c, 0, 80, 91
1, 836491, Control_c, 0, 64, 99
1, 836528, Note_off_c, 0, 76, 63
1, 836535, Control_c, 0, 64, 103
1, 836546, Note_on_c, 0, 78, 88
1, 836558, Note_on_c, 0, 73, 74
1, 836558, Note_off_c, 0, 80, 61
1, 836564, Control_c, 0, 64, 105
1, 836579, Note_on_c, 0, 68, 67
1, 836609, Control_c, 0, 64, 88
1, 836624, Control_c, 0, 64, 64
1, 836626, Note_off_c, 0, 73, 62
1, 836638, Control_c, 0, 64, 34
1, 836639, Note_off_c, 0, 68, 63
1, 836661, Control_c, 0, 64, 0
1, 836668, Note_on_c, 0, 80, 90
1, 836676, Control_c, 0, 64, 37
1, 836686, Note_on_c, 0, 64, 74
1, 836691, Control_c, 0, 64, 55
1, 836695, Note_off_c, 0, 78, 57
1, 836705, Control_c, 0, 64, 66
1, 836720, Control_c, 0, 64, 74
1, 836736, Control_c, 0, 64, 82
1, 836751, Control_c, 0, 64, 84
1, 836758, Note_off_c, 0, 64, 63
1, 836762, Note_on_c, 0, 66, 74
1, 836766, Control_c, 0, 64, 86
1, 836780, Control_c, 0, 64, 88
1, 836795, Control_c, 0, 64, 89
1, 836810, Control_c, 0, 64, 91
1, 836825, Control_c, 0, 64, 92
1, 836829, Note_on_c, 0, 67, 81
1, 836840, Control_c, 0, 64, 95
1, 836854, Note_off_c, 0, 66, 65
1, 836854, Control_c, 0, 64, 97
1, 836858, Note_off_c, 0, 67, 64
1, 836869, Control_c, 0, 64, 99
1, 836884, Control_c, 0, 64, 101
1, 836899, Control_c, 0, 64, 103
1, 836904, Note_off_c, 0, 80, 61
1, 836914, Control_c, 0, 64, 106
1, 836919, Note_on_c, 0, 78, 83
1, 836928, Control_c, 0, 64, 109
1, 836929, Note_on_c, 0, 68, 85
1, 836943, Control_c, 0, 64, 114
1, 836958, Control_c, 0, 64, 117
1, 836973, Control_c, 0, 64, 120
1, 836987, Note_off_c, 0, 68, 61
1, 836987, Control_c, 0, 64, 124
1, 837000, Note_on_c, 0, 73, 71
1, 837002, Control_c, 0, 64, 127
1, 837027, Note_off_c, 0, 78, 60
1, 837041, Note_on_c, 0, 76, 85
1, 837080, Note_off_c, 0, 76, 67
1, 837088, Note_on_c, 0, 80, 90
1, 837095, Note_off_c, 0, 73, 59
1, 837142, Note_off_c, 0, 80, 67
1, 837190, Note_on_c, 0, 81, 88
1, 837195, Note_on_c, 0, 74, 88
1, 837195, Control_c, 0, 64, 83
1, 837200, Note_on_c, 0, 73, 78
1, 837210, Control_c, 0, 64, 59
1, 837219, Note_on_c, 0, 54, 51
1, 837225, Control_c, 0, 64, 30
1, 837251, Note_off_c, 0, 54, 50
1, 837254, Control_c, 0, 64, 43
1, 837269, Control_c, 0, 64, 59
1, 837284, Control_c, 0, 64, 68
1, 837299, Control_c, 0, 64, 75
1, 837314, Control_c, 0, 64, 79
1, 837318, Note_on_c, 0, 60, 54
1, 837328, Control_c, 0, 64, 82
1, 837330, Note_off_c, 0, 81, 42
1, 837342, Note_off_c, 0, 73, 59
1, 837343, Control_c, 0, 64, 84
1, 837345, Note_off_c, 0, 60, 59
1, 837354, Note_off_c, 0, 74, 64
1, 837358, Control_c, 0, 64, 85
1, 837369, Note_on_c, 0, 61, 72
1, 837372, Control_c, 0, 64, 86
1, 837402, Note_off_c, 0, 61, 69
1, 837410, Control_c, 0, 64, 86
1, 837425, Control_c, 0, 64, 87
1, 837440, Control_c, 0, 64, 87
1, 837441, Note_on_c, 0, 76, 86
1, 837443, Note_on_c, 0, 72, 74
1, 837444, Note_on_c, 0, 64, 77
1, 837454, Control_c, 0, 64, 88
1, 837469, Control_c, 0, 64, 89
1, 837472, Note_off_c, 0, 64, 64
1, 837478, Note_off_c, 0, 72, 54
1, 837484, Control_c, 0, 64, 91
1, 837498, Control_c, 0, 64, 93
1, 837500, Note_off_c, 0, 76, 62
1, 837509, Note_on_c, 0, 66, 71
1, 837513, Control_c, 0, 64, 95
1, 837527, Note_on_c, 0, 78, 84
1, 837535, Note_on_c, 0, 74, 79
1, 837554, Note_on_c, 0, 68, 61
1, 837559, Control_c, 0, 64, 96
1, 837572, Note_off_c, 0, 66, 60
1, 837574, Control_c, 0, 64, 89
1, 837578, Note_off_c, 0, 74, 55
1, 837588, Note_on_c, 0, 69, 73
1, 837589, Control_c, 0, 64, 72
1, 837592, Note_off_c, 0, 68, 61
1, 837598, Note_off_c, 0, 78, 59
1, 837603, Control_c, 0, 64, 53
1, 837618, Control_c, 0, 64, 0
1, 837624, Note_on_c, 0, 80, 91
1, 837625, Note_on_c, 0, 76, 83
1, 837643, Note_off_c, 0, 69, 62
1, 837648, Control_c, 0, 64, 41
1, 837663, Control_c, 0, 64, 58
1, 837671, Note_on_c, 0, 72, 77
1, 837677, Control_c, 0, 64, 66
1, 837692, Control_c, 0, 64, 71
1, 837707, Control_c, 0, 64, 72
1, 837722, Control_c, 0, 64, 73
1, 837728, Note_off_c, 0, 72, 62
1, 837737, Control_c, 0, 64, 73
1, 837751, Note_on_c, 0, 70, 72
1, 837766, Control_c, 0, 64, 74
1, 837783, Note_off_c, 0, 70, 60
1, 837811, Note_on_c, 0, 72, 65
1, 837831, Note_off_c, 0, 80, 57
1, 837856, Note_off_c, 0, 72, 57
1, 837876, Note_off_c, 0, 76, 59
1, 837887, Note_on_c, 0, 70, 66
1, 837894, Note_on_c, 0, 78, 78
1, 837896, Note_on_c, 0, 74, 77
1, 837945, Note_off_c, 0, 70, 63
1, 837980, Note_on_c, 0, 68, 61
1, 837987, Note_off_c, 0, 74, 39
1, 837989, Control_c, 0, 64, 73
1, 837991, Note_on_c, 0, 72, 75
1, 837995, Note_on_c, 0, 76, 80
1, 837995, Note_off_c, 0, 78, 39
1, 838003, Control_c, 0, 64, 67
1, 838018, Control_c, 0, 64, 55
1, 838033, Control_c, 0, 64, 35
1, 838039, Note_off_c, 0, 72, 57
1, 838041, Note_off_c, 0, 68, 62
1, 838048, Control_c, 0, 64, 0
1, 838054, Note_on_c, 0, 66, 69
1, 838089, Note_off_c, 0, 76, 62
1, 838092, Control_c, 0, 64, 38
1, 838105, Note_on_c, 0, 78, 78
1, 838105, Note_on_c, 0, 74, 73
1, 838107, Control_c, 0, 64, 50
1, 838121, Control_c, 0, 64, 59
1, 838122, Note_off_c, 0, 66, 63
1, 838136, Control_c, 0, 64, 64
1, 838153, Note_on_c, 0, 68, 61
1, 838159, Control_c, 0, 64, 67
1, 838174, Control_c, 0, 64, 69
1, 838174, Control_c, 0, 67, 49
1, 838189, Control_c, 0, 64, 71
1, 838189, Control_c, 0, 67, 58
1, 838190, Note_off_c, 0, 74, 65
1, 838203, Control_c, 0, 64, 72
1, 838203, Control_c, 0, 67, 62
1, 838212, Note_off_c, 0, 78, 60
1, 838214, Note_off_c, 0, 68, 62
1, 838218, Control_c, 0, 64, 73
1, 838233, Control_c, 0, 64, 74
1, 838233, Control_c, 0, 67, 63
1, 838236, Note_on_c, 0, 66, 65
1, 838277, Control_c, 0, 64, 74
1, 838277, Control_c, 0, 67, 62
1, 838278, Note_off_c, 0, 66, 57
1, 838292, Control_c, 0, 64, 75
1, 838292, Control_c, 0, 67, 62
1, 838307, Control_c, 0, 64, 75
1, 838307, Control_c, 0, 67, 60
1, 838323, Control_c, 0, 67, 59
1, 838336, Note_on_c, 0, 68, 47
1, 838337, Control_c, 0, 64, 76
1, 838337, Control_c, 0, 67, 57
1, 838352, Control_c, 0, 67, 56
1, 838366, Note_off_c, 0, 68, 56
1, 838367, Control_c, 0, 64, 74
1, 838367, Control_c, 0, 67, 54
1, 838381, Control_c, 0, 64, 68
1, 838381, Control_c, 0, 67, 53
1, 838396, Control_c, 0, 64, 61
1, 838396, Control_c, 0, 67, 52
1, 838404, Note_on_c, 0, 72, 66
1, 838411, Control_c, 0, 64, 55
1, 838411, Control_c, 0, 67, 51
1, 838420, Note_on_c, 0, 69, 58
1, 838425, Control_c, 0, 67, 49
1, 838427, Note_on_c, 0, 66, 19
1, 838440, Control_c, 0, 64, 58
1, 838440, Control_c, 0, 67, 47
1, 838455, Control_c, 0, 64, 62
1, 838455, Control_c, 0, 67, 47
1, 838468, Note_off_c, 0, 66, 40
1, 838470, Control_c, 0, 64, 67
1, 838470, Control_c, 0, 67, 46
1, 838485, Control_c, 0, 64, 70
1, 838490, Note_off_c, 0, 69, 51
1, 838499, Control_c, 0, 64, 73
1, 838499, Control_c, 0, 67, 45
1, 838514, Control_c, 0, 64, 75
1, 838514, Control_c, 0, 67, 44
1, 838529, Control_c, 0, 64, 77
1, 838529, Control_c, 0, 67, 43
1, 838543, Note_on_c, 0, 68, 44
1, 838543, Control_c, 0, 64, 78
1, 838543, Control_c, 0, 67, 42
1, 838558, Control_c, 0, 64, 80
1, 838558, Control_c, 0, 67, 41
1, 838573, Control_c, 0, 64, 81
1, 838573, Control_c, 0, 67, 40
1, 838588, Control_c, 0, 64, 82
1, 838588, Control_c, 0, 67, 39
1, 838593, Note_on_c, 0, 74, 78
1, 838593, Note_off_c, 0, 72, 60
1, 838603, Control_c, 0, 64, 82
1, 838603, Control_c, 0, 67, 39
1, 838618, Control_c, 0, 64, 83
1, 838633, Control_c, 0, 64, 83
1, 838642, Note_off_c, 0, 68, 54
1, 838645, Note_off_c, 0, 74, 63
1, 838648, Control_c, 0, 64, 84
1, 838662, Note_on_c, 0, 66, 56
1, 838663, Control_c, 0, 67, 38
1, 838699, Note_off_c, 0, 66, 64
1, 838737, Control_c, 0, 67, 39
1, 838840, Control_c, 0, 64, 81
1, 838844, Note_on_c, 0, 53, 52
1, 838855, Control_c, 0, 64, 70
1, 838870, Control_c, 0, 64, 52
1, 838885, Control_c, 0, 64, 30
1, 838895, Note_on_c, 0, 85, 90
1, 838907, Control_c, 0, 64, 0
1, 838913, Note_on_c, 0, 73, 70
1, 838922, Control_c, 0, 64, 33
1, 838937, Control_c, 0, 64, 50
1, 838949, Note_on_c, 0, 80, 38
1, 838951, Control_c, 0, 64, 62
1, 838966, Control_c, 0, 64, 67
1, 838972, Note_off_c, 0, 85, 67
1, 838979, Note_off_c, 0, 53, 59
1, 838981, Control_c, 0, 64, 74
1, 838986, Note_off_c, 0, 80, 58
1, 838996, Control_c, 0, 64, 77
1, 839010, Note_off_c, 0, 73, 63
1, 839011, Control_c, 0, 64, 81
1, 839017, Note_on_c, 0, 60, 54
1, 839025, Control_c, 0, 64, 84
1, 839025, Control_c, 0, 67, 38
1, 839040, Control_c, 0, 64, 87
1, 839040, Control_c, 0, 67, 37
1, 839055, Note_off_c, 0, 60, 64
1, 839055, Control_c, 0, 64, 89
1, 839055, Control_c, 0, 67, 0
1, 839070, Control_c, 0, 64, 90
1, 839083, Note_on_c, 0, 61, 65
1, 839086, Control_c, 0, 64, 91
1, 839115, Note_off_c, 0, 61, 66
1, 839115, Control_c, 0, 64, 91
1, 839140, Note_on_c, 0, 64, 71
1, 839167, Note_off_c, 0, 64, 68
1, 839208, Note_on_c, 0, 65, 67
1, 839246, Note_off_c, 0, 65, 60
1, 839249, Control_c, 0, 67, 37
1, 839264, Control_c, 0, 67, 38
1, 839279, Control_c, 0, 67, 39
1, 839288, Note_on_c, 0, 68, 37
1, 839294, Control_c, 0, 67, 40
1, 839302, Note_on_c, 0, 67, 45
1, 839309, Control_c, 0, 67, 41
1, 839320, Note_off_c, 0, 68, 34
1, 839328, Note_on_c, 0, 73, 89
1, 839330, Note_off_c, 0, 67, 56
1, 839340, Note_on_c, 0, 77, 69
1, 839353, Control_c, 0, 64, 90
1, 839357, Note_off_c, 0, 73, 64
1, 839367, Control_c, 0, 64, 80
1, 839382, Control_c, 0, 64, 63
1, 839397, Control_c, 0, 64, 45
1, 839397, Control_c, 0, 67, 41
1, 839405, Note_on_c, 0, 80, 71
1, 839409, Note_off_c, 0, 77, 59
1, 839412, Control_c, 0, 64, 31
1, 839441, Control_c, 0, 64, 34
1, 839456, Control_c, 0, 64, 43
1, 839471, Control_c, 0, 64, 49
1, 839478, Note_off_c, 0, 80, 63
1, 839481, Note_on_c, 0, 73, 61
1, 839486, Control_c, 0, 67, 41
1, 839500, Control_c, 0, 64, 46
1, 839500, Control_c, 0, 67, 40
1, 839515, Control_c, 0, 64, 42
1, 839515, Control_c, 0, 67, 39
1, 839530, Control_c, 0, 64, 40
1, 839543, Note_off_c, 0, 73, 60
1, 839545, Control_c, 0, 64, 40
1, 839545, Control_c, 0, 67, 39
1, 839551, Note_on_c, 0, 77, 67
1, 839560, Control_c, 0, 64, 41
1, 839564, Note_on_c, 0, 72, 74
1, 839575, Control_c, 0, 64, 42
1, 839575, Control_c, 0, 67, 37
1, 839587, Note_off_c, 0, 72, 66
1, 839590, Control_c, 0, 64, 43
1, 839604, Note_off_c, 0, 77, 62
1, 839604, Control_c, 0, 67, 0
1, 839619, Control_c, 0, 64, 42
1, 839634, Note_on_c, 0, 68, 59
1, 839634, Control_c, 0, 64, 42
1, 839656, Control_c, 0, 64, 41
1, 839670, Note_off_c, 0, 68, 67
1, 839671, Control_c, 0, 64, 40
1, 839682, Note_on_c, 0, 73, 61
1, 839700, Control_c, 0, 64, 41
1, 839708, Note_off_c, 0, 73, 65
1, 839709, Note_on_c, 0, 65, 61
1, 839715, Control_c, 0, 64, 43
1, 839730, Control_c, 0, 64, 48
1, 839745, Control_c, 0, 64, 56
1, 839760, Control_c, 0, 64, 62
1, 839769, Note_off_c, 0, 65, 62
1, 839774, Control_c, 0, 64, 68
1, 839777, Note_on_c, 0, 85, 88
1, 839777, Note_on_c, 0, 73, 94
1, 839780, Note_on_c, 0, 80, 93
1, 839783, Note_on_c, 0, 71, 86
1, 839789, Control_c, 0, 64, 76
1, 839804, Control_c, 0, 64, 87
1, 839816, Note_off_c, 0, 85, 60
1, 839817, Note_off_c, 0, 73, 61
1, 839819, Control_c, 0, 64, 94
1, 839823, Note_off_c, 0, 80, 66
1, 839825, Note_off_c, 0, 71, 58
1, 839834, Control_c, 0, 64, 101
1, 839849, Control_c, 0, 64, 110
1, 839864, Control_c, 0, 64, 127
1, 839864, Note_on_c, 0, 66, 76
1, 839897, Note_off_c, 0, 66, 59
1, 839961, Note_on_c, 0, 67, 62
1, 839981, Note_off_c, 0, 67, 63
1, 840004, Note_on_c, 0, 73, 22
1, 840019, Note_on_c, 0, 68, 77
1, 840044, Note_off_c, 0, 73, 45
1, 840088, Note_on_c, 0, 71, 91
1, 840090, Note_off_c, 0, 68, 61
1, 840114, Note_off_c, 0, 71, 64
1, 840136, Note_on_c, 0, 81, 87
1, 840153, Note_on_c, 0, 88, 84
1, 840154, Note_on_c, 0, 86, 51
1, 840168, Note_off_c, 0, 81, 61
1, 840176, Control_c, 0, 64, 94
1, 840177, Note_off_c, 0, 86, 60
1, 840190, Control_c, 0, 64, 68
1, 840203, Note_on_c, 0, 54, 79
1, 840205, Control_c, 0, 64, 55
1, 840207, Note_on_c, 0, 76, 49
1, 840207, Note_on_c, 0, 86, 91
1, 840211, Note_on_c, 0, 84, 76
1, 840213, Note_on_c, 0, 74, 55
1, 840220, Control_c, 0, 64, 59
1, 840229, Note_on_c, 0, 85, 57
1, 840229, Note_off_c, 0, 85, 127
1, 840229, Note_off_c, 0, 88, 67
1, 840230, Note_off_c, 0, 76, 59
1, 840235, Control_c, 0, 64, 66
1, 840236, Note_off_c, 0, 74, 56
1, 840238, Note_off_c, 0, 86, 70
1, 840242, Note_off_c, 0, 84, 60
1, 840250, Control_c, 0, 64, 77
1, 840264, Control_c, 0, 64, 97
1, 840279, Control_c, 0, 64, 127
1, 840286, Note_off_c, 0, 54, 60
1, 840312, Note_on_c, 0, 60, 79
1, 840356, Note_off_c, 0, 60, 64
1, 840370, Note_on_c, 0, 61, 72
1, 840426, Note_off_c, 0, 61, 63
1, 840451, Note_on_c, 0, 64, 77
1, 840475, Note_off_c, 0, 64, 71
1, 840543, Note_on_c, 0, 66, 76
1, 840556, Note_on_c, 0, 85, 91
1, 840561, Note_on_c, 0, 73, 87
1, 840575, Note_on_c, 0, 78, 71
1, 840579, Note_off_c, 0, 73, 72
1, 840583, Note_off_c, 0, 85, 59
1, 840600, Note_off_c, 0, 78, 64
1, 840611, Note_off_c, 0, 66, 60
1, 840621, Note_on_c, 0, 69, 81
1, 840623, Note_on_c, 0, 86, 98
1, 840632, Note_on_c, 0, 74, 93
1, 840642, Control_c, 0, 64, 81
1, 840654, Note_off_c, 0, 74, 68
1, 840657, Control_c, 0, 64, 61
1, 840666, Note_off_c, 0, 69, 59
1, 840672, Note_off_c, 0, 86, 68
1, 840672, Control_c, 0, 64, 35
1, 840687, Control_c, 0, 64, 0
1, 840687, Note_on_c, 0, 72, 70
1, 840712, Note_off_c, 0, 72, 66
1, 840750, Note_on_c, 0, 69, 72
1, 840807, Note_on_c, 0, 72, 67
1, 840813, Note_off_c, 0, 69, 62
1, 840836, Control_c, 0, 64, 36
1, 840851, Control_c, 0, 64, 56
1, 840856, Note_on_c, 0, 86, 96
1, 840865, Control_c, 0, 64, 64
1, 840867, Note_on_c, 0, 81, 84
1, 840868, Note_on_c, 0, 74, 86
1, 840869, Note_on_c, 0, 78, 80
1, 840869, Note_off_c, 0, 72, 61
1, 840880, Control_c, 0, 64, 69
1, 840895, Control_c, 0, 64, 73
1, 840910, Control_c, 0, 64, 79
1, 840919, Note_off_c, 0, 81, 63
1, 840925, Control_c, 0, 64, 84
1, 840925, Note_off_c, 0, 74, 59
1, 840936, Note_off_c, 0, 78, 53
1, 840939, Control_c, 0, 64, 89
1, 840954, Control_c, 0, 64, 94
1, 840958, Note_on_c, 0, 72, 71
1, 840969, Control_c, 0, 64, 97
1, 840984, Control_c, 0, 64, 101
1, 840997, Note_off_c, 0, 72, 60
1, 840999, Control_c, 0, 64, 103
1, 841012, Note_on_c, 0, 78, 70
1, 841013, Control_c, 0, 64, 105
1, 841035, Note_off_c, 0, 78, 63
1, 841043, Control_c, 0, 64, 107
1, 841063, Note_on_c, 0, 74, 80
1, 841071, Note_on_c, 0, 81, 78
1, 841087, Control_c, 0, 64, 109
1, 841104, Note_off_c, 0, 81, 54
1, 841107, Note_off_c, 0, 74, 64
1, 841117, Control_c, 0, 64, 111
1, 841124, Note_on_c, 0, 78, 72
1, 841154, Control_c, 0, 64, 114
1, 841184, Control_c, 0, 64, 116
1, 841193, Note_off_c, 0, 78, 60
1, 841214, Control_c, 0, 64, 118
1, 841214, Note_on_c, 0, 72, 71
1, 841234, Note_off_c, 0, 86, 65
1, 841265, Note_off_c, 0, 72, 61
1, 841281, Note_on_c, 0, 78, 89
1, 841284, Note_on_c, 0, 84, 100
1, 841286, Note_on_c, 0, 72, 75
1, 841337, Note_off_c, 0, 72, 65
1, 841351, Note_off_c, 0, 78, 59
1, 841361, Control_c, 0, 64, 120
1, 841396, Note_on_c, 0, 86, 97
1, 841406, Control_c, 0, 64, 127
1, 841407, Note_on_c, 0, 72, 84
1, 841417, Note_on_c, 0, 74, 70
1, 841423, Note_off_c, 0, 72, 70
1, 841424, Note_off_c, 0, 84, 58
1, 841433, Note_off_c, 0, 74, 68
1, 841460, Note_off_c, 0, 86, 65
1, 841468, Note_on_c, 0, 82, 65
1, 841521, Note_off_c, 0, 82, 0
1, 841525, Control_c, 0, 64, 98
1, 841536, Note_on_c, 0, 89, 107
1, 841540, Control_c, 0, 64, 64
1, 841545, Note_on_c, 0, 77, 93
1, 841546, Note_on_c, 0, 56, 85
1, 841549, Note_on_c, 0, 83, 87
1, 841555, Control_c, 0, 64, 44
1, 841559, Poly_aftertouch_c, 0, 82, 127
1, 841569, Poly_aftertouch_c, 0, 82, 0
1, 841569, Control_c, 0, 64, 47
1, 841584, Control_c, 0, 64, 57
1, 841595, Note_off_c, 0, 83, 65
1, 841599, Control_c, 0, 64, 67
1, 841603, Note_off_c, 0, 89, 66
1, 841613, Note_off_c, 0, 77, 63
1, 841614, Control_c, 0, 64, 80
1, 841623, Note_off_c, 0, 56, 63
1, 841629, Control_c, 0, 64, 105
1, 841633, Note_on_c, 0, 61, 33
1, 841641, Note_on_c, 0, 60, 68
1, 841643, Control_c, 0, 64, 127
1, 841667, Note_off_c, 0, 61, 45
1, 841705, Note_off_c, 0, 60, 63
1, 841717, Note_on_c, 0, 61, 50
1, 841741, Note_off_c, 0, 61, 59
1, 841757, Note_on_c, 0, 67, 73
1, 841775, Note_on_c, 0, 73, 42
1, 841780, Note_on_c, 0, 69, 48
1, 841781, Note_off_c, 0, 67, 69
1, 841801, Note_off_c, 0, 73, 53
1, 841807, Note_off_c, 0, 69, 57
1, 841833, Note_on_c, 0, 68, 78
1, 841852, Note_off_c, 0, 68, 71
1, 841907, Note_on_c, 0, 74, 88
1, 841933, Control_c, 0, 64, 109
1, 841934, Note_off_c, 0, 74, 63
1, 841947, Control_c, 0, 64, 75
1, 841962, Control_c, 0, 64, 64
1, 841963, Note_on_c, 0, 83, 84
1, 841968, Note_on_c, 0, 73, 78
1, 841981, Note_off_c, 0, 73, 72
1, 841992, Control_c, 0, 64, 69
1, 842007, Control_c, 0, 64, 80
1, 842022, Control_c, 0, 64, 97
1, 842037, Control_c, 0, 64, 115
1, 842043, Note_on_c, 0, 77, 73
1, 842049, Note_on_c, 0, 79, 49
1, 842051, Note_off_c, 0, 83, 61
1, 842051, Control_c, 0, 64, 127
1, 842073, Note_off_c, 0, 79, 59
1, 842093, Note_on_c, 0, 74, 83
1, 842094, Note_off_c, 0, 77, 65
1, 842155, Note_off_c, 0, 74, 62
1, 842171, Note_on_c, 0, 77, 82
1, 842171, Note_on_c, 0, 80, 63
1, 842190, Note_off_c, 0, 80, 64
1, 842228, Note_off_c, 0, 77, 63
1, 842237, Note_on_c, 0, 69, 59
1, 842242, Note_on_c, 0, 71, 61
1, 842265, Note_on_c, 0, 74, 86
1, 842266, Note_off_c, 0, 69, 67
1, 842269, Note_off_c, 0, 71, 65
1, 842283, Note_off_c, 0, 74, 74
1, 842334, Control_c, 0, 64, 81
1, 842348, Control_c, 0, 64, 48
1, 842350, Note_on_c, 0, 59, 29
1, 842363, Control_c, 0, 64, 0
1, 842373, Note_on_c, 0, 80, 106
1, 842373, Note_on_c, 0, 92, 109
1, 842374, Note_on_c, 0, 61, 69
1, 842376, Note_on_c, 0, 85, 101
1, 842378, Control_c, 0, 64, 38
1, 842392, Control_c, 0, 64, 59
1, 842406, Note_off_c, 0, 92, 66
1, 842407, Control_c, 0, 64, 73
1, 842409, Note_off_c, 0, 80, 63
1, 842414, Note_on_c, 0, 65, 81
1, 842417, Note_off_c, 0, 85, 65
1, 842422, Note_off_c, 0, 61, 61
1, 842422, Control_c, 0, 64, 94
1, 842437, Control_c, 0, 64, 127
1, 842446, Note_off_c, 0, 59, 61
1, 842471, Note_off_c, 0, 65, 62
1, 842496, Note_on_c, 0, 71, 83
1, 842536, Note_off_c, 0, 71, 57
1, 842584, Note_on_c, 0, 72, 81
1, 842654, Note_off_c, 0, 72, 62
1, 842665, Note_on_c, 0, 73, 82
1, 842683, Note_off_c, 0, 73, 72
1, 842729, Note_on_c, 0, 92, 94
1, 842734, Note_on_c, 0, 90, 66
1, 842760, Note_off_c, 0, 90, 68
1, 842767, Note_on_c, 0, 85, 42
1, 842770, Control_c, 0, 64, 96
1, 842779, Note_on_c, 0, 57, 80
1, 842782, Note_on_c, 0, 78, 91
1, 842785, Control_c, 0, 64, 63
1, 842790, Note_on_c, 0, 90, 90
1, 842800, Control_c, 0, 64, 0
1, 842813, Note_off_c, 0, 92, 69
1, 842815, Control_c, 0, 64, 31
1, 842827, Note_on_c, 0, 87, 46
1, 842827, Note_off_c, 0, 90, 69
1, 842829, Control_c, 0, 64, 51
1, 842834, Note_off_c, 0, 78, 64
1, 842838, Note_off_c, 0, 85, 67
1, 842844, Note_on_c, 0, 60, 74
1, 842844, Control_c, 0, 64, 69
1, 842851, Note_off_c, 0, 87, 57
1, 842854, Note_off_c, 0, 57, 62
1, 842859, Control_c, 0, 64, 97
1, 842873, Control_c, 0, 64, 127
1, 842901, Note_off_c, 0, 60, 64
1, 842912, Note_on_c, 0, 61, 77
1, 842945, Note_off_c, 0, 61, 64
1, 843005, Note_on_c, 0, 65, 53
1, 843024, Note_on_c, 0, 64, 33
1, 843027, Note_off_c, 0, 65, 61
1, 843059, Note_off_c, 0, 64, 54
1, 843073, Note_on_c, 0, 66, 68
1, 843119, Note_on_c, 0, 68, 67
1, 843122, Note_on_c, 0, 76, 92
1, 843124, Note_on_c, 0, 88, 99
1, 843139, Note_off_c, 0, 66, 63
1, 843147, Note_off_c, 0, 76, 67
1, 843153, Note_off_c, 0, 88, 68
1, 843167, Note_on_c, 0, 69, 80
1, 843174, Note_off_c, 0, 68, 62
1, 843202, Note_on_c, 0, 90, 97
1, 843204, Note_on_c, 0, 78, 101
1, 843206, Note_off_c, 0, 69, 62
1, 843218, Note_off_c, 0, 78, 73
1, 843237, Note_off_c, 0, 90, 62
1, 843251, Note_on_c, 0, 74, 85
1, 843289, Control_c, 0, 64, 94
1, 843304, Control_c, 0, 64, 68
1, 843316, Note_off_c, 0, 74, 58
1, 843319, Control_c, 0, 64, 41
1, 843333, Control_c, 0, 64, 0
1, 843341, Note_on_c, 0, 72, 78
1, 843351, Note_on_c, 0, 82, 52
1, 843375, Note_off_c, 0, 82, 55
1, 843393, Note_on_c, 0, 66, 49
1, 843414, Control_c, 0, 64, 32
1, 843429, Control_c, 0, 64, 55
1, 843433, Note_off_c, 0, 72, 62
1, 843438, Note_on_c, 0, 90, 103
1, 843441, Note_on_c, 0, 78, 107
1, 843442, Note_on_c, 0, 73, 76
1, 843444, Note_on_c, 0, 81, 92
1, 843444, Control_c, 0, 64, 68
1, 843459, Control_c, 0, 64, 78
1, 843462, Note_off_c, 0, 81, 69
1, 843471, Note_off_c, 0, 78, 68
1, 843474, Control_c, 0, 64, 96
1, 843482, Note_off_c, 0, 90, 69
1, 843489, Control_c, 0, 64, 115
1, 843493, Note_off_c, 0, 73, 65
1, 843504, Control_c, 0, 64, 127
1, 843524, Note_on_c, 0, 76, 63
1, 843542, Note_off_c, 0, 66, 63
1, 843548, Note_off_c, 0, 76, 65
1, 843590, Note_on_c, 0, 75, 79
1, 843644, Note_off_c, 0, 75, 61
1, 843661, Note_on_c, 0, 74, 91
1, 843662, Note_on_c, 0, 73, 96
1, 843677, Note_on_c, 0, 69, 73
1, 843694, Note_off_c, 0, 69, 69
1, 843697, Note_off_c, 0, 73, 68
1, 843723, Note_off_c, 0, 74, 62
1, 843743, Note_on_c, 0, 72, 86
1, 843808, Note_off_c, 0, 72, 65
1, 843821, Note_on_c, 0, 73, 90
1, 843900, Note_off_c, 0, 73, 60
1, 843903, Note_on_c, 0, 92, 110
1, 843907, Note_on_c, 0, 65, 89
1, 843908, Note_on_c, 0, 80, 113
1, 843908, Note_on_c, 0, 85, 108
1, 844009, Note_off_c, 0, 65, 62
1, 844023, Note_off_c, 0, 80, 62
1, 844026, Note_on_c, 0, 73, 90
1, 844028, Note_off_c, 0, 92, 64
1, 844034, Note_off_c, 0, 85, 62
1, 844090, Note_on_c, 0, 81, 112
1, 844090, Note_on_c, 0, 93, 109
1, 844096, Note_on_c, 0, 85, 103
1, 844123, Note_on_c, 0, 66, 105
1, 844124, Note_on_c, 0, 90, 46
1, 844127, Note_off_c, 0, 73, 59
1, 844156, Note_off_c, 0, 90, 55
1, 844162, Note_off_c, 0, 81, 63
1, 844164, Note_off_c, 0, 66, 68
1, 844186, Note_off_c, 0, 85, 62
1, 844219, Note_on_c, 0, 81, 94
1, 844228, Note_off_c, 0, 93, 57
1, 844246, Note_on_c, 0, 86, 81
1, 844287, Note_on_c, 0, 90, 89
1, 844328, Note_on_c, 0, 35, 100
1, 844338, Note_on_c, 0, 95, 105
1, 844370, Control_c, 0, 64, 80
1, 844384, Note_on_c, 0, 92, 46
1, 844385, Control_c, 0, 64, 33
1, 844400, Control_c, 0, 64, 0
1, 844418, Note_off_c, 0, 92, 49
1, 844434, Note_off_c, 0, 35, 64
1, 844444, Control_c, 0, 64, 42
1, 844459, Control_c, 0, 64, 67
1, 844463, Note_on_c, 0, 47, 85
1, 844474, Control_c, 0, 64, 86
1, 844484, Note_off_c, 0, 47, 70
1, 844488, Control_c, 0, 64, 127
1, 844489, Note_off_c, 0, 95, 58
1, 844579, Note_on_c, 0, 54, 77
1, 844591, Note_off_c, 0, 81, 60
1, 844600, Note_off_c, 0, 90, 62
1, 844611, Note_off_c, 0, 86, 63
1, 844652, Note_on_c, 0, 57, 80
1, 844655, Note_on_c, 0, 93, 100
1, 844657, Note_on_c, 0, 90, 90
1, 844658, Note_on_c, 0, 81, 101
1, 844661, Note_off_c, 0, 54, 60
1, 844663, Note_on_c, 0, 86, 89
1, 844677, Note_on_c, 0, 87, 36
1, 844677, Note_off_c, 0, 87, 127
1, 844688, Note_off_c, 0, 81, 67
1, 844689, Note_off_c, 0, 57, 61
1, 844699, Note_off_c, 0, 93, 65
1, 844705, Poly_aftertouch_c, 0, 87, 0
1, 844720, Note_on_c, 0, 60, 62
1, 844720, Note_off_c, 0, 86, 64
1, 844720, Note_off_c, 0, 90, 66
1, 844741, Note_on_c, 0, 62, 50
1, 844747, Note_off_c, 0, 60, 67
1, 844761, Note_on_c, 0, 80, 102
1, 844764, Note_on_c, 0, 92, 103
1, 844765, Note_off_c, 0, 62, 59
1, 844768, Note_on_c, 0, 86, 82
1, 844813, Note_off_c, 0, 80, 62
1, 844830, Control_c, 0, 64, 76
1, 844833, Note_off_c, 0, 92, 66
1, 844838, Note_off_c, 0, 86, 60
1, 844845, Control_c, 0, 64, 55
1, 844851, Poly_aftertouch_c, 0, 66, 0
1, 844860, Control_c, 0, 64, 48
1, 844860, Poly_aftertouch_c, 0, 65, 0
1, 844866, Note_on_c, 0, 86, 79
1, 844868, Note_on_c, 0, 93, 104
1, 844872, Note_on_c, 0, 81, 100
1, 844875, Control_c, 0, 64, 54
1, 844889, Note_on_c, 0, 47, 87
1, 844892, Note_on_c, 0, 92, 64
1, 844897, Control_c, 0, 64, 65
1, 844911, Control_c, 0, 64, 75
1, 844918, Note_off_c, 0, 92, 67
1, 844926, Control_c, 0, 64, 87
1, 844941, Control_c, 0, 64, 94
1, 844956, Control_c, 0, 64, 97
1, 844961, Note_off_c, 0, 47, 64
1, 844971, Control_c, 0, 64, 100
1, 844974, Note_off_c, 0, 81, 59
1, 844979, Note_on_c, 0, 54, 73
1, 844985, Control_c, 0, 64, 103
1, 845000, Control_c, 0, 64, 107
1, 845001, Note_off_c, 0, 54, 67
1, 845010, Note_off_c, 0, 93, 62
1, 845015, Control_c, 0, 64, 109
1, 845030, Control_c, 0, 64, 112
1, 845045, Control_c, 0, 64, 114
1, 845060, Note_on_c, 0, 60, 30
1, 845075, Control_c, 0, 64, 118
1, 845089, Note_off_c, 0, 86, 65
1, 845090, Control_c, 0, 64, 122
1, 845097, Note_off_c, 0, 60, 46
1, 845105, Control_c, 0, 64, 127
1, 845110, Note_on_c, 0, 66, 85
1, 845117, Note_on_c, 0, 80, 91
1, 845117, Note_on_c, 0, 92, 101
1, 845146, Note_off_c, 0, 80, 63
1, 845156, Note_off_c, 0, 92, 65
1, 845179, Note_off_c, 0, 66, 61
1, 845188, Note_on_c, 0, 69, 83
1, 845200, Note_on_c, 0, 90, 93
1, 845201, Note_on_c, 0, 78, 98
1, 845206, Note_off_c, 0, 69, 72
1, 845244, Note_off_c, 0, 78, 60
1, 845264, Note_off_c, 0, 90, 66
1, 845268, Control_c, 0, 64, 79
1, 845283, Control_c, 0, 64, 46
1, 845294, Note_on_c, 0, 52, 85
1, 845298, Control_c, 0, 64, 0
1, 845299, Note_on_c, 0, 84, 95
1, 845304, Note_on_c, 0, 92, 107
1, 845308, Note_on_c, 0, 80, 94
1, 845342, Control_c, 0, 64, 53
1, 845356, Note_off_c, 0, 80, 63
1, 845357, Control_c, 0, 64, 72
1, 845359, Note_off_c, 0, 92, 67
1, 845368, Note_off_c, 0, 52, 62
1, 845368, Note_off_c, 0, 84, 67
1, 845370, Note_on_c, 0, 59, 78
1, 845372, Control_c, 0, 64, 86
1, 845386, Control_c, 0, 64, 108
1, 845401, Control_c, 0, 64, 124
1, 845405, Note_off_c, 0, 59, 64
1, 845416, Control_c, 0, 64, 127
1, 845531, Note_on_c, 0, 68, 76
1, 845536, Note_on_c, 0, 76, 92
1, 845540, Note_on_c, 0, 88, 80
1, 845545, Note_on_c, 0, 86, 78
1, 845566, Note_off_c, 0, 86, 72
1, 845567, Note_off_c, 0, 76, 63
1, 845569, Note_off_c, 0, 88, 65
1, 845584, Note_off_c, 0, 68, 62
1, 845588, Note_on_c, 0, 72, 73
1, 845605, Note_off_c, 0, 72, 67
1, 845642, Note_on_c, 0, 78, 96
1, 845642, Note_on_c, 0, 90, 94
1, 845694, Note_on_c, 0, 85, 18
1, 845699, Note_off_c, 0, 78, 60
1, 845713, Note_off_c, 0, 90, 64
1, 845721, Note_on_c, 0, 45, 74
1, 845732, Note_off_c, 0, 85, 0
1, 845742, Note_on_c, 0, 85, 67
1, 845750, Control_c, 0, 64, 74
1, 845754, Note_on_c, 0, 92, 102
1, 845760, Note_on_c, 0, 80, 86
1, 845765, Control_c, 0, 64, 39
1, 845780, Control_c, 0, 64, 0
1, 845796, Note_on_c, 0, 52, 73
1, 845798, Note_off_c, 0, 45, 63
1, 845824, Control_c, 0, 64, 52
1, 845839, Control_c, 0, 64, 69
1, 845850, Note_off_c, 0, 52, 63
1, 845854, Control_c, 0, 64, 79
1, 845869, Control_c, 0, 64, 89
1, 845872, Note_off_c, 0, 80, 60
1, 845880, Note_off_c, 0, 92, 62
1, 845881, Note_on_c, 0, 57, 63
1, 845883, Control_c, 0, 64, 93
1, 845898, Control_c, 0, 64, 95
1, 845900, Note_off_c, 0, 57, 62
1, 845928, Control_c, 0, 64, 98
1, 845959, Note_off_c, 0, 85, 64
1, 845972, Control_c, 0, 64, 100
1, 845985, Note_on_c, 0, 90, 92
1, 845987, Note_on_c, 0, 78, 89
1, 846002, Control_c, 0, 64, 104
1, 846016, Control_c, 0, 64, 117
1, 846021, Note_off_c, 0, 78, 59
1, 846028, Note_off_c, 0, 90, 66
1, 846031, Control_c, 0, 64, 127
1, 846040, Note_on_c, 0, 64, 40
1, 846067, Note_off_c, 0, 64, 55
1, 846079, Note_on_c, 0, 69, 79
1, 846079, Note_on_c, 0, 88, 91
1, 846085, Note_on_c, 0, 76, 92
1, 846106, Control_c, 0, 64, 82
1, 846118, Note_off_c, 0, 76, 66
1, 846121, Note_off_c, 0, 88, 66
1, 846121, Control_c, 0, 64, 56
1, 846121, Note_off_c, 0, 69, 56
1, 846135, Note_on_c, 0, 81, 44
1, 846135, Control_c, 0, 64, 47
1, 846150, Control_c, 0, 64, 55
1, 846161, Note_on_c, 0, 73, 70
1, 846165, Control_c, 0, 64, 65
1, 846174, Note_off_c, 0, 81, 0
1, 846174, Note_on_c, 0, 81, 41
1, 846180, Control_c, 0, 64, 78
1, 846181, Note_on_c, 0, 90, 101
1, 846184, Note_off_c, 0, 73, 69
1, 846189, Note_on_c, 0, 78, 86
1, 846195, Control_c, 0, 64, 103
1, 846209, Control_c, 0, 64, 127
1, 846236, Note_on_c, 0, 69, 83
1, 846274, Note_off_c, 0, 69, 57
1, 846288, Note_off_c, 0, 90, 63
1, 846306, Note_off_c, 0, 78, 57
1, 846315, Note_on_c, 0, 64, 74
1, 846389, Note_off_c, 0, 64, 63
1, 846393, Note_on_c, 0, 61, 77
1, 846414, Note_off_c, 0, 81, 54
1, 846419, Note_off_c, 0, 61, 68
1, 846432, Note_on_c, 0, 88, 94
1, 846436, Note_on_c, 0, 76, 90
1, 846464, Note_off_c, 0, 76, 63
1, 846469, Note_off_c, 0, 88, 67
1, 846470, Note_on_c, 0, 57, 77
1, 846523, Note_off_c, 0, 57, 61
1, 846530, Note_on_c, 0, 86, 95
1, 846539, Note_on_c, 0, 74, 90
1, 846564, Note_off_c, 0, 74, 64
1, 846583, Note_on_c, 0, 52, 27
1, 846598, Note_off_c, 0, 86, 55
1, 846603, Control_c, 0, 64, 78
1, 846607, Note_on_c, 0, 46, 75
1, 846618, Control_c, 0, 64, 53
1, 846626, Note_off_c, 0, 52, 49
1, 846632, Control_c, 0, 64, 0
1, 846635, Note_on_c, 0, 85, 88
1, 846642, Note_on_c, 0, 73, 79
1, 846642, Note_on_c, 0, 78, 81
1, 846677, Control_c, 0, 64, 48
1, 846691, Control_c, 0, 64, 66
1, 846692, Note_on_c, 0, 53, 57
1, 846706, Control_c, 0, 64, 74
1, 846712, Note_off_c, 0, 46, 56
1, 846721, Control_c, 0, 64, 86
1, 846736, Control_c, 0, 64, 91
1, 846751, Control_c, 0, 64, 95
1, 846765, Note_on_c, 0, 54, 53
1, 846765, Control_c, 0, 64, 98
1, 846780, Control_c, 0, 64, 101
1, 846783, Note_off_c, 0, 53, 61
1, 846795, Control_c, 0, 64, 104
1, 846801, Note_off_c, 0, 54, 64
1, 846810, Control_c, 0, 64, 107
1, 846823, Note_off_c, 0, 73, 60
1, 846825, Control_c, 0, 64, 109
1, 846826, Note_off_c, 0, 85, 62
1, 846846, Note_on_c, 0, 62, 58
1, 846858, Note_off_c, 0, 78, 59
1, 846869, Control_c, 0, 64, 111
1, 846876, Note_off_c, 0, 62, 65
1, 846911, Note_on_c, 0, 84, 90
1, 846920, Note_on_c, 0, 72, 76
1, 846940, Note_off_c, 0, 72, 71
1, 846949, Note_on_c, 0, 65, 70
1, 846967, Note_off_c, 0, 84, 64
1, 847010, Note_off_c, 0, 65, 61
1, 847020, Note_on_c, 0, 85, 97
1, 847024, Note_on_c, 0, 73, 86
1, 847031, Note_on_c, 0, 66, 76
1, 847057, Note_off_c, 0, 66, 69
1, 847072, Note_off_c, 0, 73, 64
1, 847133, Note_off_c, 0, 85, 62
1, 847145, Control_c, 0, 64, 101
1, 847160, Control_c, 0, 64, 78
1, 847171, Note_on_c, 0, 47, 66
1, 847173, Note_on_c, 0, 78, 55
1, 847175, Control_c, 0, 64, 58
1, 847178, Note_on_c, 0, 88, 90
1, 847187, Note_on_c, 0, 76, 72
1, 847189, Control_c, 0, 64, 0
1, 847192, Note_on_c, 0, 83, 46
1, 847234, Control_c, 0, 64, 46
1, 847249, Control_c, 0, 64, 63
1, 847254, Note_off_c, 0, 47, 61
1, 847263, Control_c, 0, 64, 68
1, 847278, Control_c, 0, 64, 73
1, 847280, Note_on_c, 0, 53, 62
1, 847293, Control_c, 0, 64, 75
1, 847308, Control_c, 0, 64, 77
1, 847314, Note_off_c, 0, 88, 62
1, 847318, Note_off_c, 0, 53, 65
1, 847322, Note_off_c, 0, 76, 35
1, 847322, Control_c, 0, 64, 78
1, 847337, Control_c, 0, 64, 79
1, 847338, Note_on_c, 0, 54, 66
1, 847352, Control_c, 0, 64, 80
1, 847355, Note_off_c, 0, 83, 41
1, 847367, Note_off_c, 0, 54, 65
1, 847367, Control_c, 0, 64, 81
1, 847373, Note_off_c, 0, 78, 60
1, 847382, Control_c, 0, 64, 81
1, 847388, Note_on_c, 0, 59, 75
1, 847397, Control_c, 0, 64, 82
1, 847415, Note_off_c, 0, 59, 66
1, 847422, Note_on_c, 0, 86, 90
1, 847426, Control_c, 0, 64, 82
1, 847428, Note_on_c, 0, 74, 87
1, 847441, Control_c, 0, 64, 83
1, 847450, Note_off_c, 0, 74, 70
1, 847456, Control_c, 0, 64, 85
1, 847462, Note_off_c, 0, 86, 65
1, 847471, Control_c, 0, 64, 88
1, 847477, Note_on_c, 0, 65, 61
1, 847486, Control_c, 0, 64, 93
1, 847498, Note_off_c, 0, 65, 63
1, 847501, Control_c, 0, 64, 99
1, 847504, Note_on_c, 0, 85, 89
1, 847510, Note_on_c, 0, 73, 87
1, 847515, Control_c, 0, 64, 104
1, 847525, Note_on_c, 0, 66, 72
1, 847545, Control_c, 0, 64, 102
1, 847552, Note_off_c, 0, 66, 69
1, 847554, Note_off_c, 0, 73, 60
1, 847560, Control_c, 0, 64, 77
1, 847566, Note_off_c, 0, 85, 62
1, 847575, Control_c, 0, 64, 53
1, 847589, Control_c, 0, 64, 0
1, 847602, Note_on_c, 0, 86, 98
1, 847608, Note_on_c, 0, 78, 87
1, 847611, Note_on_c, 0, 74, 93
1, 847613, Note_on_c, 0, 53, 77
1, 847634, Control_c, 0, 64, 54
1, 847649, Control_c, 0, 64, 69
1, 847659, Note_on_c, 0, 54, 65
1, 847663, Control_c, 0, 64, 78
1, 847671, Note_off_c, 0, 53, 62
1, 847678, Control_c, 0, 64, 85
1, 847693, Control_c, 0, 64, 89
1, 847701, Note_off_c, 0, 74, 60
1, 847707, Control_c, 0, 64, 93
1, 847722, Control_c, 0, 64, 96
1, 847734, Note_on_c, 0, 59, 68
1, 847735, Note_off_c, 0, 54, 62
1, 847736, Note_off_c, 0, 86, 61
1, 847737, Control_c, 0, 64, 99
1, 847752, Control_c, 0, 64, 104
1, 847767, Control_c, 0, 64, 107
1, 847774, Note_off_c, 0, 59, 63
1, 847781, Control_c, 0, 64, 112
1, 847792, Note_off_c, 0, 78, 60
1, 847796, Control_c, 0, 64, 118
1, 847810, Note_on_c, 0, 64, 56
1, 847811, Control_c, 0, 64, 127
1, 847832, Note_off_c, 0, 64, 60
1, 847837, Note_on_c, 0, 85, 90
1, 847838, Note_on_c, 0, 73, 87
1, 847872, Note_on_c, 0, 66, 80
1, 847874, Note_off_c, 0, 73, 60
1, 847889, Note_off_c, 0, 85, 63
1, 847932, Note_on_c, 0, 86, 93
1, 847938, Note_on_c, 0, 74, 97
1, 847939, Note_off_c, 0, 66, 63
1, 847957, Note_on_c, 0, 71, 73
1, 847963, Note_off_c, 0, 74, 67
1, 847974, Note_off_c, 0, 71, 66
1, 847983, Note_off_c, 0, 86, 64
1, 847983, Control_c, 0, 64, 73
1, 847998, Control_c, 0, 64, 40
1, 848012, Control_c, 0, 64, 0
1, 848026, Note_on_c, 0, 85, 82
1, 848026, Note_on_c, 0, 78, 71
1, 848027, Control_c, 0, 64, 32
1, 848031, Note_on_c, 0, 73, 99
1, 848042, Control_c, 0, 64, 54
1, 848044, Note_on_c, 0, 61, 79
1, 848057, Control_c, 0, 64, 71
1, 848072, Control_c, 0, 64, 94
1, 848080, Note_on_c, 0, 62, 69
1, 848086, Control_c, 0, 64, 127
1, 848096, Note_off_c, 0, 61, 62
1, 848107, Note_off_c, 0, 62, 65
1, 848138, Note_off_c, 0, 85, 63
1, 848151, Note_on_c, 0, 67, 77
1, 848155, Note_off_c, 0, 78, 60
1, 848158, Note_off_c, 0, 73, 58
1, 848192, Note_off_c, 0, 67, 59
1, 848246, Note_on_c, 0, 83, 92
1, 848252, Note_on_c, 0, 71, 89
1, 848273, Note_on_c, 0, 72, 78
1, 848285, Note_off_c, 0, 83, 66
1, 848292, Note_off_c, 0, 72, 70
1, 848297, Note_off_c, 0, 71, 64
1, 848347, Note_on_c, 0, 81, 85
1, 848354, Note_on_c, 0, 69, 87
1, 848373, Note_on_c, 0, 79, 60
1, 848391, Note_off_c, 0, 81, 65
1, 848392, Note_off_c, 0, 79, 66
1, 848413, Note_off_c, 0, 69, 59
1, 848444, Note_on_c, 0, 73, 25
1, 848453, Note_on_c, 0, 36, 87
1, 848466, Note_on_c, 0, 76, 84
1, 848471, Control_c, 0, 64, 85
1, 848472, Note_on_c, 0, 80, 96
1, 848473, Note_on_c, 0, 68, 92
1, 848482, Note_off_c, 0, 73, 42
1, 848486, Control_c, 0, 64, 58
1, 848497, Note_on_c, 0, 72, 45
1, 848501, Control_c, 0, 64, 0
1, 848516, Control_c, 0, 64, 32
1, 848519, Note_off_c, 0, 72, 37
1, 848530, Control_c, 0, 64, 51
1, 848545, Control_c, 0, 64, 68
1, 848546, Note_on_c, 0, 44, 69
1, 848551, Note_off_c, 0, 36, 61
1, 848560, Control_c, 0, 64, 85
1, 848575, Control_c, 0, 64, 127
1, 848585, Note_off_c, 0, 80, 60
1, 848586, Note_on_c, 0, 74, 40
1, 848590, Note_on_c, 0, 45, 76
1, 848596, Note_off_c, 0, 44, 63
1, 848604, Note_off_c, 0, 68, 58
1, 848611, Note_on_c, 0, 47, 54
1, 848616, Note_off_c, 0, 76, 60
1, 848649, Note_off_c, 0, 47, 35
1, 848651, Note_off_c, 0, 45, 63
1, 848662, Note_off_c, 0, 74, 64
1, 848696, Note_on_c, 0, 50, 56
1, 848699, Note_on_c, 0, 78, 94
1, 848705, Note_on_c, 0, 66, 92
1, 848721, Note_off_c, 0, 50, 61
1, 848741, Note_off_c, 0, 78, 68
1, 848749, Note_off_c, 0, 66, 64
1, 848757, Note_on_c, 0, 54, 75
1, 848798, Note_on_c, 0, 76, 95
1, 848804, Note_on_c, 0, 64, 92
1, 848818, Note_off_c, 0, 54, 61
1, 848821, Control_c, 0, 64, 93
1, 848824, Note_on_c, 0, 57, 75
1, 848835, Control_c, 0, 64, 65
1, 848837, Note_off_c, 0, 64, 66
1, 848839, Note_off_c, 0, 76, 66
1, 848850, Control_c, 0, 64, 44
1, 848865, Control_c, 0, 64, 46
1, 848879, Control_c, 0, 64, 60
1, 848890, Note_off_c, 0, 57, 63
1, 848894, Control_c, 0, 64, 70
1, 848896, Note_on_c, 0, 74, 103
1, 848900, Note_on_c, 0, 62, 97
1, 848901, Note_on_c, 0, 66, 99
1, 848909, Control_c, 0, 64, 84
1, 848914, Note_on_c, 0, 60, 75
1, 848924, Control_c, 0, 64, 105
1, 848929, Note_off_c, 0, 62, 62
1, 848936, Note_on_c, 0, 56, 74
1, 848937, Note_off_c, 0, 74, 66
1, 848939, Control_c, 0, 64, 127
1, 848942, Note_off_c, 0, 60, 65
1, 848943, Note_off_c, 0, 66, 67
1, 849030, Note_on_c, 0, 57, 61
1, 849048, Note_on_c, 0, 54, 74
1, 849061, Note_off_c, 0, 57, 64
1, 849075, Note_off_c, 0, 56, 41
1, 849114, Note_off_c, 0, 54, 61
1, 849137, Note_on_c, 0, 55, 86
1, 849140, Note_on_c, 0, 60, 90
1, 849140, Note_on_c, 0, 72, 95
1, 849171, Note_off_c, 0, 72, 60
1, 849174, Note_off_c, 0, 60, 64
1, 849194, Note_off_c, 0, 55, 57
1, 849217, Note_on_c, 0, 48, 92
1, 849224, Note_on_c, 0, 71, 94
1, 849227, Note_on_c, 0, 59, 103
1, 849263, Note_off_c, 0, 59, 67
1, 849266, Note_off_c, 0, 71, 64
1, 849292, Note_off_c, 0, 48, 62
1, 849309, Control_c, 0, 64, 86
1, 849322, Note_on_c, 0, 69, 98
1, 849323, Note_on_c, 0, 57, 99
1, 849324, Control_c, 0, 64, 50
1, 849327, Note_on_c, 0, 52, 87
1, 849328, Note_on_c, 0, 60, 90
1, 849339, Control_c, 0, 64, 0
1, 849360, Note_on_c, 0, 53, 41
1, 849403, Note_off_c, 0, 53, 37
1, 849406, Control_c, 0, 64, 61
1, 849418, Note_on_c, 0, 51, 79
1, 849421, Note_off_c, 0, 52, 0
1, 849421, Control_c, 0, 64, 72
1, 849435, Control_c, 0, 64, 79
1, 849436, Note_off_c, 0, 69, 60
1, 849436, Note_on_c, 0, 52, 51
1, 849450, Control_c, 0, 64, 85
1, 849453, Note_off_c, 0, 57, 65
1, 849465, Control_c, 0, 64, 93
1, 849479, Control_c, 0, 64, 109
1, 849489, Note_off_c, 0, 52, 62
1, 849494, Control_c, 0, 64, 127
1, 849503, Note_on_c, 0, 50, 72
1, 849530, Note_off_c, 0, 51, 60
1, 849536, Note_off_c, 0, 60, 48
1, 849543, Note_on_c, 0, 64, 31
1, 849549, Note_off_c, 0, 50, 62
1, 849586, Note_off_c, 0, 64, 0
1, 849586, Note_on_c, 0, 64, 54
1, 849588, Note_on_c, 0, 56, 102
1, 849588, Note_on_c, 0, 68, 95
1, 849592, Note_on_c, 0, 48, 102
1, 849677, Note_off_c, 0, 68, 63
1, 849690, Note_off_c, 0, 56, 60
1, 849704, Note_on_c, 0, 45, 92
1, 849707, Note_off_c, 0, 64, 65
1, 849717, Note_off_c, 0, 48, 62
1, 849747, Control_c, 0, 64, 88
1, 849762, Control_c, 0, 64, 58
1, 849764, Note_on_c, 0, 66, 101
1, 849767, Note_on_c, 0, 54, 101
1, 849776, Control_c, 0, 64, 0
1, 849802, Note_off_c, 0, 45, 61
1, 849809, Note_on_c, 0, 61, 25
1, 849809, Note_off_c, 0, 61, 127
1, 849830, Note_on_c, 0, 36, 97
1, 849836, Control_c, 0, 64, 49
1, 849850, Control_c, 0, 64, 69
1, 849865, Control_c, 0, 64, 86
1, 849880, Control_c, 0, 64, 127
1, 849910, Note_off_c, 0, 54, 59
1, 849915, Note_off_c, 0, 66, 61
1, 849983, Note_on_c, 0, 53, 101
1, 849984, Note_on_c, 0, 65, 97
1, 849984, Control_c, 0, 64, 99
1, 849988, Note_on_c, 0, 37, 98
1, 849994, Note_off_c, 0, 36, 61
1, 849999, Control_c, 0, 64, 51
1, 850014, Control_c, 0, 64, 0
1, 850102, Control_c, 0, 66, 127
1, 850136, Note_off_c, 0, 53, 57
1, 850160, Note_on_c, 0, 61, 83
1, 850185, Note_off_c, 0, 37, 63
1, 850226, Note_off_c, 0, 61, 62
1, 850230, Note_on_c, 0, 53, 85
1, 850271, Note_off_c, 0, 53, 62
1, 850288, Note_on_c, 0, 56, 101
1, 850324, Note_off_c, 0, 56, 67
1, 850388, Note_on_c, 0, 61, 78
1, 850458, Note_off_c, 0, 61, 62
1, 850463, Note_on_c, 0, 53, 70
1, 850518, Note_off_c, 0, 53, 59
1, 850525, Control_c, 0, 64, 39
1, 850540, Control_c, 0, 64, 60
1, 850553, Note_on_c, 0, 61, 102
1, 850555, Control_c, 0, 64, 67
1, 850570, Control_c, 0, 64, 75
1, 850571, Note_off_c, 0, 61, 72
1, 850585, Control_c, 0, 64, 90
1, 850599, Control_c, 0, 64, 127
1, 850635, Note_on_c, 0, 61, 65
1, 850658, Control_c, 0, 66, 0
1, 850696, Note_off_c, 0, 61, 63
1, 850708, Note_on_c, 0, 53, 73
1, 850765, Note_off_c, 0, 53, 62
1, 850807, Note_on_c, 0, 44, 100
1, 850888, Control_c, 0, 64, 106
1, 850889, Note_on_c, 0, 56, 56
1, 850903, Control_c, 0, 64, 84
1, 850912, Note_on_c, 0, 45, 98
1, 850918, Control_c, 0, 64, 67
1, 850931, Note_off_c, 0, 44, 63
1, 850932, Control_c, 0, 64, 39
1, 850947, Control_c, 0, 64, 0
1, 850955, Note_off_c, 0, 56, 62
1, 850968, Note_on_c, 0, 53, 71
1, 850999, Note_off_c, 0, 53, 60
1, 851013, Note_on_c, 0, 47, 96
1, 851016, Note_off_c, 0, 45, 62
1, 851081, Control_c, 0, 64, 54
1, 851096, Control_c, 0, 64, 70
1, 851097, Note_off_c, 0, 47, 65
1, 851111, Control_c, 0, 64, 75
1, 851114, Note_on_c, 0, 56, 72
1, 851126, Control_c, 0, 64, 88
1, 851141, Control_c, 0, 64, 127
1, 851181, Note_on_c, 0, 53, 66
1, 851189, Note_off_c, 0, 56, 60
1, 851227, Note_off_c, 0, 53, 56
1, 851245, Control_c, 0, 64, 94
1, 851260, Control_c, 0, 64, 71
1, 851269, Note_on_c, 0, 49, 103
1, 851274, Control_c, 0, 64, 61
1, 851289, Control_c, 0, 64, 61
1, 851303, Note_on_c, 0, 56, 77
1, 851304, Control_c, 0, 64, 66
1, 851305, Note_on_c, 0, 50, 64
1, 851319, Control_c, 0, 64, 76
1, 851334, Control_c, 0, 64, 86
1, 851343, Note_off_c, 0, 65, 56
1, 851348, Control_c, 0, 64, 94
1, 851361, Note_off_c, 0, 50, 64
1, 851363, Control_c, 0, 64, 103
1, 851369, Note_off_c, 0, 49, 59
1, 851378, Control_c, 0, 64, 124
1, 851393, Control_c, 0, 64, 127
1, 851406, Note_on_c, 0, 50, 85
1, 851419, Note_off_c, 0, 56, 61
1, 851445, Note_on_c, 0, 53, 88
1, 851455, Note_off_c, 0, 50, 65
1, 851615, Note_off_c, 0, 53, 61
1, 851621, Note_on_c, 0, 35, 94
1, 851637, Control_c, 0, 64, 93
1, 851652, Control_c, 0, 64, 65
1, 851660, Note_on_c, 0, 52, 100
1, 851667, Control_c, 0, 64, 0
1, 851800, Control_c, 0, 64, 41
1, 851815, Control_c, 0, 64, 59
1, 851830, Control_c, 0, 64, 61
1, 851839, Note_off_c, 0, 35, 63
1, 851845, Control_c, 0, 64, 62
1, 851853, Note_on_c, 0, 57, 63
1, 851860, Control_c, 0, 64, 64
1, 851875, Control_c, 0, 64, 67
1, 851889, Control_c, 0, 64, 69
1, 851905, Control_c, 0, 64, 70
1, 851920, Control_c, 0, 64, 71
1, 851933, Note_on_c, 0, 54, 65
1, 851935, Control_c, 0, 64, 71
1, 851941, Note_off_c, 0, 57, 61
1, 851957, Note_off_c, 0, 52, 55
1, 851981, Note_on_c, 0, 50, 88
1, 852004, Note_off_c, 0, 54, 60
1, 852049, Note_on_c, 0, 57, 69
1, 852094, Note_on_c, 0, 49, 91
1, 852108, Note_on_c, 0, 54, 70
1, 852109, Note_off_c, 0, 57, 60
1, 852112, Control_c, 0, 64, 71
1, 852142, Control_c, 0, 64, 69
1, 852157, Control_c, 0, 64, 65
1, 852161, Note_off_c, 0, 50, 22
1, 852167, Note_off_c, 0, 54, 62
1, 852172, Control_c, 0, 64, 58
1, 852187, Control_c, 0, 64, 48
1, 852199, Note_off_c, 0, 49, 38
1, 852202, Note_on_c, 0, 47, 90
1, 852202, Control_c, 0, 64, 39
1, 852217, Control_c, 0, 64, 0
1, 852237, Note_on_c, 0, 56, 76
1, 852308, Note_on_c, 0, 49, 89
1, 852314, Note_off_c, 0, 56, 57
1, 852319, Note_off_c, 0, 47, 63
1, 852330, Note_on_c, 0, 52, 66
1, 852378, Note_off_c, 0, 52, 62
1, 852402, Note_off_c, 0, 49, 63
1, 852405, Note_on_c, 0, 50, 86
1, 852454, Note_on_c, 0, 56, 73
1, 852462, Note_off_c, 0, 50, 65
1, 852494, Note_on_c, 0, 47, 91
1, 852524, Note_off_c, 0, 56, 60
1, 852543, Note_on_c, 0, 52, 65
1, 852574, Note_off_c, 0, 52, 63
1, 852588, Note_off_c, 0, 47, 62
1, 852601, Note_on_c, 0, 49, 92
1, 852637, Control_c, 0, 64, 39
1, 852652, Control_c, 0, 64, 66
1, 852655, Note_off_c, 0, 49, 66
1, 852667, Control_c, 0, 64, 70
1, 852682, Control_c, 0, 64, 75
1, 852697, Control_c, 0, 64, 79
1, 852704, Note_on_c, 0, 54, 62
1, 852713, Control_c, 0, 64, 83
1, 852727, Control_c, 0, 64, 86
1, 852742, Control_c, 0, 64, 88
1, 852757, Control_c, 0, 64, 90
1, 852772, Control_c, 0, 64, 90
1, 852785, Note_on_c, 0, 50, 64
1, 852787, Note_off_c, 0, 54, 58
1, 852787, Control_c, 0, 64, 91
1, 852816, Control_c, 0, 64, 90
1, 852827, Note_off_c, 0, 50, 63
1, 852831, Control_c, 0, 64, 87
1, 852846, Control_c, 0, 64, 72
1, 852861, Control_c, 0, 64, 39
1, 852863, Note_on_c, 0, 47, 87
1, 852875, Control_c, 0, 64, 0
1, 852890, Note_on_c, 0, 54, 67
1, 852923, Note_off_c, 0, 47, 63
1, 852948, Note_on_c, 0, 45, 90
1, 852952, Note_off_c, 0, 54, 44
1, 852990, Note_on_c, 0, 50, 59
1, 853010, Note_off_c, 0, 45, 64
1, 853014, Note_off_c, 0, 50, 62
1, 853051, Note_on_c, 0, 44, 89
1, 853059, Note_on_c, 0, 37, 84
1, 853098, Control_c, 0, 66, 127
1, 853139, Note_on_c, 0, 53, 48
1, 853141, Note_off_c, 0, 37, 60
1, 853149, Note_off_c, 0, 44, 65
1, 853150, Control_c, 0, 64, 40
1, 853165, Control_c, 0, 64, 56
1, 853180, Control_c, 0, 64, 60
1, 853183, Note_off_c, 0, 53, 63
1, 853194, Control_c, 0, 64, 62
1, 853209, Control_c, 0, 64, 65
1, 853215, Note_on_c, 0, 49, 64
1, 853224, Control_c, 0, 64, 68
1, 853239, Control_c, 0, 64, 72
1, 853245, Note_off_c, 0, 49, 65
1, 853253, Control_c, 0, 64, 73
1, 853268, Control_c, 0, 64, 74
1, 853283, Control_c, 0, 64, 74
1, 853292, Note_on_c, 0, 56, 95
1, 853298, Control_c, 0, 64, 75
1, 853313, Control_c, 0, 64, 76
1, 853315, Note_off_c, 0, 56, 67
1, 853327, Control_c, 0, 64, 77
1, 853340, Note_on_c, 0, 61, 71
1, 853342, Control_c, 0, 64, 77
1, 853357, Control_c, 0, 64, 78
1, 853372, Control_c, 0, 64, 78
1, 853387, Control_c, 0, 64, 79
1, 853392, Note_off_c, 0, 61, 50
1, 853401, Control_c, 0, 64, 80
1, 853416, Control_c, 0, 64, 82
1, 853425, Note_on_c, 0, 53, 62
1, 853431, Control_c, 0, 64, 83
1, 853445, Control_c, 0, 64, 84
1, 853460, Control_c, 0, 64, 85
1, 853466, Note_off_c, 0, 53, 56
1, 853475, Control_c, 0, 64, 86
1, 853490, Control_c, 0, 64, 87
1, 853506, Control_c, 0, 64, 88
1, 853521, Control_c, 0, 64, 90
1, 853536, Control_c, 0, 64, 90
1, 853547, Note_on_c, 0, 61, 97
1, 853550, Control_c, 0, 64, 91
1, 853564, Note_off_c, 0, 61, 76
1, 853580, Control_c, 0, 64, 91
1, 853595, Note_on_c, 0, 56, 60
1, 853595, Control_c, 0, 64, 92
1, 853595, Control_c, 0, 66, 0
1, 853610, Control_c, 0, 64, 92
1, 853624, Control_c, 0, 64, 93
1, 853636, Note_off_c, 0, 56, 57
1, 853687, Note_on_c, 0, 53, 56
1, 853736, Note_off_c, 0, 53, 56
1, 853788, Control_c, 0, 64, 92
1, 853803, Control_c, 0, 64, 91
1, 853809, Note_on_c, 0, 44, 93
1, 853817, Control_c, 0, 64, 87
1, 853828, Note_on_c, 0, 56, 71
1, 853832, Control_c, 0, 64, 80
1, 853847, Control_c, 0, 64, 72
1, 853862, Control_c, 0, 64, 63
1, 853875, Note_off_c, 0, 56, 59
1, 853883, Control_c, 0, 64, 51
1, 853898, Control_c, 0, 64, 35
1, 853913, Control_c, 0, 64, 0
1, 853914, Note_on_c, 0, 45, 89
1, 853919, Note_off_c, 0, 44, 63
1, 853936, Note_on_c, 0, 53, 54
1, 853969, Note_off_c, 0, 53, 65
1, 853995, Note_off_c, 0, 45, 62
1, 854019, Note_on_c, 0, 47, 90
1, 854062, Control_c, 0, 64, 37
1, 854076, Control_c, 0, 64, 54
1, 854090, Note_on_c, 0, 56, 62
1, 854091, Control_c, 0, 64, 61
1, 854106, Control_c, 0, 64, 63
1, 854121, Control_c, 0, 64, 64
1, 854136, Control_c, 0, 64, 66
1, 854150, Control_c, 0, 64, 69
1, 854155, Note_off_c, 0, 56, 59
1, 854165, Note_off_c, 0, 47, 63
1, 854165, Control_c, 0, 64, 73
1, 854175, Note_on_c, 0, 53, 54
1, 854180, Control_c, 0, 64, 76
1, 854194, Control_c, 0, 64, 81
1, 854209, Control_c, 0, 64, 84
1, 854220, Note_off_c, 0, 53, 58
1, 854224, Control_c, 0, 64, 87
1, 854239, Control_c, 0, 64, 88
1, 854268, Note_on_c, 0, 49, 89
1, 854268, Control_c, 0, 64, 87
1, 854283, Control_c, 0, 64, 80
1, 854299, Control_c, 0, 64, 64
1, 854314, Control_c, 0, 64, 32
1, 854329, Control_c, 0, 64, 0
1, 854330, Note_on_c, 0, 56, 57
1, 854373, Control_c, 0, 64, 36
1, 854388, Control_c, 0, 64, 59
1, 854396, Note_on_c, 0, 50, 91
1, 854400, Note_off_c, 0, 49, 65
1, 854403, Control_c, 0, 64, 66
1, 854404, Note_off_c, 0, 56, 60
1, 854418, Control_c, 0, 64, 72
1, 854433, Control_c, 0, 64, 76
1, 854447, Control_c, 0, 64, 80
1, 854451, Note_on_c, 0, 53, 66
1, 854455, Note_off_c, 0, 50, 64
1, 854462, Control_c, 0, 64, 82
1, 854477, Control_c, 0, 64, 84
1, 854491, Control_c, 0, 64, 85
1, 854506, Control_c, 0, 64, 86
1, 854536, Control_c, 0, 64, 86
1, 854577, Note_off_c, 0, 53, 64
1, 854581, Control_c, 0, 64, 86
1, 854584, Note_on_c, 0, 35, 75
1, 854585, Note_on_c, 0, 52, 86
1, 854595, Control_c, 0, 64, 80
1, 854610, Control_c, 0, 64, 66
1, 854633, Control_c, 0, 64, 41
1, 854648, Control_c, 0, 64, 0
1, 854721, Control_c, 0, 64, 40
1, 854736, Control_c, 0, 64, 55
1, 854751, Control_c, 0, 64, 62
1, 854763, Note_off_c, 0, 35, 60
1, 854766, Control_c, 0, 64, 65
1, 854779, Note_on_c, 0, 57, 58
1, 854780, Control_c, 0, 64, 68
1, 854795, Control_c, 0, 64, 70
1, 854811, Control_c, 0, 64, 72
1, 854825, Control_c, 0, 64, 73
1, 854840, Control_c, 0, 64, 74
1, 854855, Control_c, 0, 64, 75
1, 854876, Note_off_c, 0, 57, 61
1, 854894, Note_off_c, 0, 52, 53
1, 854897, Note_on_c, 0, 54, 54
1, 854970, Note_off_c, 0, 54, 57
1, 854972, Note_on_c, 0, 50, 80
1, 855027, Note_on_c, 0, 57, 55
1, 855033, Control_c, 0, 64, 74
1, 855063, Control_c, 0, 64, 74
1, 855078, Control_c, 0, 64, 73
1, 855086, Note_off_c, 0, 57, 57
1, 855087, Note_on_c, 0, 49, 83
1, 855087, Note_off_c, 0, 50, 56
1, 855093, Control_c, 0, 64, 72
1, 855102, Note_on_c, 0, 54, 59
1, 855108, Control_c, 0, 64, 69
1, 855123, Control_c, 0, 64, 65
1, 855138, Control_c, 0, 64, 60
1, 855153, Note_off_c, 0, 54, 61
1, 855153, Control_c, 0, 64, 52
1, 855168, Control_c, 0, 64, 44
1, 855183, Control_c, 0, 64, 32
1, 855189, Note_off_c, 0, 49, 58
1, 855193, Note_on_c, 0, 47, 85
1, 855197, Control_c, 0, 64, 0
1, 855242, Note_on_c, 0, 56, 62
1, 855299, Note_on_c, 0, 49, 83
1, 855306, Note_off_c, 0, 47, 63
1, 855320, Note_off_c, 0, 56, 56
1, 855335, Note_on_c, 0, 52, 56
1, 855384, Note_off_c, 0, 52, 60
1, 855386, Note_off_c, 0, 49, 63
1, 855412, Note_on_c, 0, 50, 77
1, 855457, Note_on_c, 0, 56, 58
1, 855469, Note_off_c, 0, 50, 62
1, 855490, Note_on_c, 0, 47, 83
1, 855529, Note_off_c, 0, 56, 60
1, 855546, Note_on_c, 0, 52, 56
1, 855563, Note_off_c, 0, 47, 57
1, 855573, Note_off_c, 0, 52, 63
1, 855600, Note_on_c, 0, 49, 80
1, 855633, Control_c, 0, 64, 54
1, 855647, Control_c, 0, 64, 64
1, 855659, Note_off_c, 0, 49, 63
1, 855662, Control_c, 0, 64, 66
1, 855677, Control_c, 0, 64, 68
1, 855692, Control_c, 0, 64, 71
1, 855695, Note_on_c, 0, 54, 48
1, 855707, Control_c, 0, 64, 73
1, 855721, Control_c, 0, 64, 74
1, 855736, Control_c, 0, 64, 75
1, 855746, Note_off_c, 0, 54, 55
1, 855771, Note_on_c, 0, 50, 60
1, 855810, Note_off_c, 0, 50, 65
1, 855840, Control_c, 0, 64, 69
1, 855847, Note_on_c, 0, 47, 81
1, 855854, Control_c, 0, 64, 54
1, 855869, Control_c, 0, 64, 0
1, 855879, Note_on_c, 0, 54, 52
1, 855908, Note_off_c, 0, 47, 62
1, 855936, Note_off_c, 0, 54, 49
1, 855940, Note_on_c, 0, 45, 79
1, 855961, Note_on_c, 0, 50, 61
1, 855989, Note_off_c, 0, 45, 60
1, 855992, Note_off_c, 0, 50, 65
1, 856032, Note_on_c, 0, 44, 77
1, 856040, Note_on_c, 0, 37, 75
1, 856062, Control_c, 0, 66, 127
1, 856104, Note_off_c, 0, 37, 62
1, 856130, Note_on_c, 0, 53, 49
1, 856130, Note_off_c, 0, 44, 63
1, 856130, Control_c, 0, 64, 40
1, 856144, Control_c, 0, 64, 60
1, 856159, Control_c, 0, 64, 64
1, 856166, Note_off_c, 0, 53, 63
1, 856174, Control_c, 0, 64, 65
1, 856189, Control_c, 0, 64, 68
1, 856196, Note_on_c, 0, 49, 59
1, 856204, Control_c, 0, 64, 72
1, 856218, Control_c, 0, 64, 76
1, 856226, Note_off_c, 0, 49, 66
1, 856233, Control_c, 0, 64, 79
1, 856248, Control_c, 0, 64, 81
1, 856263, Control_c, 0, 64, 81
1, 856277, Note_on_c, 0, 56, 85
1, 856292, Control_c, 0, 64, 82
1, 856299, Note_off_c, 0, 56, 70
1, 856332, Note_on_c, 0, 61, 63
1, 856366, Note_off_c, 0, 61, 63
1, 856418, Note_on_c, 0, 53, 54
1, 856453, Note_off_c, 0, 53, 55
1, 856539, Note_on_c, 0, 61, 87
1, 856562, Note_off_c, 0, 61, 71
1, 856594, Note_on_c, 0, 56, 57
1, 856633, Control_c, 0, 66, 0
1, 856637, Note_off_c, 0, 56, 62
1, 856679, Note_on_c, 0, 53, 61
1, 856726, Note_off_c, 0, 53, 55
1, 856767, Control_c, 0, 64, 81
1, 856782, Control_c, 0, 64, 81
1, 856796, Note_on_c, 0, 50, 86
1, 856797, Control_c, 0, 64, 77
1, 856808, Note_on_c, 0, 43, 70
1, 856811, Control_c, 0, 64, 70
1, 856826, Control_c, 0, 64, 62
1, 856834, Note_on_c, 0, 59, 62
1, 856841, Control_c, 0, 64, 48
1, 856856, Control_c, 0, 64, 40
1, 856879, Control_c, 0, 64, 35
1, 856893, Control_c, 0, 64, 34
1, 856897, Note_off_c, 0, 59, 63
1, 856914, Note_off_c, 0, 50, 65
1, 856915, Note_on_c, 0, 52, 91
1, 856923, Control_c, 0, 64, 33
1, 856932, Note_on_c, 0, 55, 59
1, 856938, Control_c, 0, 64, 0
1, 856968, Note_off_c, 0, 55, 63
1, 857053, Note_off_c, 0, 52, 62
1, 857063, Note_on_c, 0, 54, 84
1, 857126, Note_on_c, 0, 61, 56
1, 857160, Control_c, 0, 64, 34
1, 857174, Control_c, 0, 64, 43
1, 857189, Control_c, 0, 64, 51
1, 857204, Control_c, 0, 64, 57
1, 857207, Note_off_c, 0, 61, 54
1, 857219, Control_c, 0, 64, 60
1, 857234, Control_c, 0, 64, 60
1, 857244, Note_on_c, 0, 57, 44
1, 857283, Note_off_c, 0, 57, 63
1, 857308, Control_c, 0, 67, 46
1, 857321, Note_off_c, 0, 54, 61
1, 857323, Control_c, 0, 67, 68
1, 857338, Control_c, 0, 67, 81
1, 857350, Note_on_c, 0, 52, 70
1, 857353, Control_c, 0, 64, 61
1, 857353, Control_c, 0, 67, 86
1, 857367, Control_c, 0, 67, 87
1, 857382, Control_c, 0, 64, 62
1, 857397, Control_c, 0, 64, 62
1, 857397, Control_c, 0, 67, 86
1, 857401, Note_on_c, 0, 59, 62
1, 857412, Control_c, 0, 67, 85
1, 857418, Note_on_c, 0, 50, 74
1, 857426, Control_c, 0, 64, 63
1, 857429, Note_off_c, 0, 52, 63
1, 857436, Note_off_c, 0, 43, 34
1, 857441, Control_c, 0, 67, 85
1, 857444, Note_off_c, 0, 50, 68
1, 857456, Control_c, 0, 67, 84
1, 857471, Control_c, 0, 64, 62
1, 857479, Note_off_c, 0, 59, 59
1, 857486, Control_c, 0, 64, 60
1, 857486, Control_c, 0, 67, 83
1, 857496, Note_on_c, 0, 55, 64
1, 857502, Control_c, 0, 64, 47
1, 857502, Control_c, 0, 67, 83
1, 857516, Control_c, 0, 64, 0
1, 857516, Control_c, 0, 67, 81
1, 857528, Note_off_c, 0, 55, 65
1, 857531, Control_c, 0, 67, 80
1, 857539, Note_on_c, 0, 37, 75
1, 857546, Control_c, 0, 67, 79
1, 857561, Control_c, 0, 67, 78
1, 857576, Control_c, 0, 67, 77
1, 857590, Control_c, 0, 64, 30
1, 857590, Control_c, 0, 67, 76
1, 857605, Control_c, 0, 64, 52
1, 857605, Control_c, 0, 67, 75
1, 857618, Note_off_c, 0, 37, 62
1, 857627, Control_c, 0, 64, 63
1, 857627, Control_c, 0, 67, 75
1, 857642, Control_c, 0, 64, 66
1, 857644, Note_on_c, 0, 53, 54
1, 857657, Control_c, 0, 64, 68
1, 857672, Control_c, 0, 64, 70
1, 857680, Note_off_c, 0, 53, 63
1, 857687, Control_c, 0, 64, 71
1, 857702, Control_c, 0, 64, 71
1, 857716, Control_c, 0, 64, 72
1, 857723, Note_on_c, 0, 49, 55
1, 857731, Control_c, 0, 64, 72
1, 857751, Note_off_c, 0, 49, 61
1, 857776, Control_c, 0, 67, 75
1, 857782, Note_on_c, 0, 56, 71
1, 857801, Note_off_c, 0, 56, 64
1, 857835, Control_c, 0, 67, 76
1, 857842, Note_on_c, 0, 61, 59
1, 857886, Note_off_c, 0, 61, 57
1, 857894, Control_c, 0, 67, 77
1, 857932, Note_on_c, 0, 53, 48
1, 857970, Note_off_c, 0, 53, 59
1, 858023, Note_on_c, 0, 61, 63
1, 858040, Note_off_c, 0, 61, 65
1, 858041, Control_c, 0, 67, 76
1, 858064, Note_on_c, 0, 56, 62
1, 858101, Control_c, 0, 67, 75
1, 858116, Control_c, 0, 67, 75
1, 858131, Note_off_c, 0, 56, 54
1, 858131, Control_c, 0, 67, 74
1, 858161, Control_c, 0, 67, 73
1, 858165, Note_on_c, 0, 53, 47
1, 858175, Control_c, 0, 67, 73
1, 858190, Control_c, 0, 67, 72
1, 858203, Note_off_c, 0, 53, 60
1, 858205, Control_c, 0, 67, 71
1, 858220, Control_c, 0, 64, 72
1, 858220, Control_c, 0, 67, 71
1, 858235, Control_c, 0, 64, 70
1, 858249, Control_c, 0, 64, 64
1, 858250, Note_on_c, 0, 50, 70
1, 858256, Note_on_c, 0, 43, 59
1, 858264, Control_c, 0, 64, 50
1, 858279, Control_c, 0, 64, 29
1, 858295, Control_c, 0, 64, 0
1, 858295, Control_c, 0, 67, 71
1, 858310, Note_on_c, 0, 59, 61
1, 858325, Control_c, 0, 67, 72
1, 858354, Control_c, 0, 67, 73
1, 858354, Note_off_c, 0, 59, 62
1, 858376, Note_on_c, 0, 52, 82
1, 858376, Control_c, 0, 67, 73
1, 858377, Note_off_c, 0, 50, 64
1, 858391, Control_c, 0, 67, 75
1, 858406, Control_c, 0, 67, 75
1, 858414, Note_on_c, 0, 55, 42
1, 858420, Control_c, 0, 67, 76
1, 858442, Note_off_c, 0, 55, 56
1, 858450, Control_c, 0, 67, 77
1, 858480, Control_c, 0, 67, 77
1, 858494, Control_c, 0, 67, 79
1, 858502, Note_off_c, 0, 52, 61
1, 858507, Note_on_c, 0, 54, 72
1, 858509, Control_c, 0, 67, 79
1, 858524, Control_c, 0, 67, 81
1, 858539, Control_c, 0, 67, 83
1, 858554, Control_c, 0, 67, 85
1, 858564, Note_on_c, 0, 61, 43
1, 858569, Control_c, 0, 67, 86
1, 858584, Control_c, 0, 67, 88
1, 858599, Control_c, 0, 64, 33
1, 858599, Control_c, 0, 67, 89
1, 858614, Control_c, 0, 64, 44
1, 858614, Control_c, 0, 67, 91
1, 858629, Control_c, 0, 64, 51
1, 858629, Control_c, 0, 67, 92
1, 858637, Note_off_c, 0, 61, 48
1, 858644, Control_c, 0, 64, 56
1, 858644, Control_c, 0, 67, 94
1, 858656, Note_on_c, 0, 57, 47
1, 858658, Control_c, 0, 64, 58
1, 858658, Control_c, 0, 67, 102
1, 858673, Control_c, 0, 64, 58
1, 858673, Control_c, 0, 67, 126
1, 858688, Control_c, 0, 64, 58
1, 858703, Control_c, 0, 64, 56
1, 858703, Note_off_c, 0, 57, 59
1, 858718, Control_c, 0, 64, 54
1, 858733, Control_c, 0, 64, 53
1, 858777, Control_c, 0, 64, 53
1, 858778, Note_off_c, 0, 54, 60
1, 858779, Note_on_c, 0, 52, 75
1, 858791, Control_c, 0, 64, 54
1, 858806, Control_c, 0, 64, 55
1, 858821, Control_c, 0, 64, 57
1, 858832, Note_on_c, 0, 59, 56
1, 858836, Control_c, 0, 64, 58
1, 858851, Control_c, 0, 64, 59
1, 858865, Control_c, 0, 64, 60
1, 858880, Control_c, 0, 64, 61
1, 858885, Note_on_c, 0, 50, 76
1, 858895, Note_off_c, 0, 52, 62
1, 858895, Control_c, 0, 64, 61
1, 858903, Note_off_c, 0, 59, 57
1, 858910, Note_off_c, 0, 50, 66
1, 858910, Control_c, 0, 64, 62
1, 858927, Note_on_c, 0, 55, 57
1, 858928, Note_off_c, 0, 43, 37
1, 858953, Note_off_c, 0, 55, 62
1, 858954, Control_c, 0, 64, 61
1, 858969, Control_c, 0, 64, 50
1, 858983, Control_c, 0, 64, 0
1, 859007, Note_on_c, 0, 37, 75
1, 859043, Control_c, 0, 64, 31
1, 859058, Control_c, 0, 64, 48
1, 859067, Note_on_c, 0, 53, 53
1, 859067, Note_off_c, 0, 37, 61
1, 859073, Control_c, 0, 64, 62
1, 859088, Control_c, 0, 64, 65
1, 859103, Control_c, 0, 64, 68
1, 859108, Note_off_c, 0, 53, 63
1, 859126, Control_c, 0, 64, 69
1, 859141, Control_c, 0, 64, 70
1, 859156, Control_c, 0, 64, 71
1, 859170, Control_c, 0, 64, 72
1, 859172, Note_on_c, 0, 49, 50
1, 859185, Control_c, 0, 64, 73
1, 859198, Note_off_c, 0, 49, 61
1, 859229, Control_c, 0, 64, 73
1, 859251, Note_on_c, 0, 56, 73
1, 859259, Control_c, 0, 64, 74
1, 859279, Note_off_c, 0, 56, 67
1, 859302, Note_on_c, 0, 61, 56
1, 859347, Note_off_c, 0, 61, 57
1, 859395, Note_on_c, 0, 53, 46
1, 859430, Note_off_c, 0, 53, 57
1, 859497, Note_on_c, 0, 61, 73
1, 859528, Note_off_c, 0, 61, 65
1, 859568, Note_on_c, 0, 56, 51
1, 859621, Note_off_c, 0, 56, 58
1, 859665, Note_on_c, 0, 53, 54
1, 859702, Note_off_c, 0, 53, 60
1, 859717, Control_c, 0, 64, 73
1, 859732, Control_c, 0, 64, 72
1, 859747, Control_c, 0, 64, 69
1, 859761, Control_c, 0, 64, 64
1, 859767, Note_on_c, 0, 52, 74
1, 859771, Note_on_c, 0, 48, 76
1, 859776, Control_c, 0, 64, 57
1, 859791, Control_c, 0, 64, 50
1, 859806, Control_c, 0, 64, 47
1, 859821, Control_c, 0, 64, 45
1, 859836, Control_c, 0, 64, 45
1, 859845, Note_on_c, 0, 60, 51
1, 859851, Control_c, 0, 64, 44
1, 859873, Control_c, 0, 64, 43
1, 859889, Control_c, 0, 64, 43
1, 859904, Control_c, 0, 64, 42
1, 859933, Control_c, 0, 64, 42
1, 859950, Note_on_c, 0, 54, 79
1, 859961, Note_off_c, 0, 60, 57
1, 859963, Control_c, 0, 64, 41
1, 859975, Note_off_c, 0, 52, 62
1, 860039, Note_on_c, 0, 55, 53
1, 860082, Note_off_c, 0, 55, 60
1, 860125, Control_c, 0, 64, 41
1, 860140, Control_c, 0, 64, 40
1, 860155, Control_c, 0, 64, 39
1, 860170, Control_c, 0, 64, 38
1, 860180, Note_on_c, 0, 55, 72
1, 860185, Control_c, 0, 64, 37
1, 860199, Note_off_c, 0, 54, 60
1, 860200, Control_c, 0, 64, 36
1, 860214, Control_c, 0, 64, 35
1, 860229, Control_c, 0, 64, 34
1, 860244, Control_c, 0, 64, 34
1, 860259, Control_c, 0, 64, 33
1, 860274, Control_c, 0, 64, 33
1, 860292, Note_on_c, 0, 64, 53
1, 860396, Note_off_c, 0, 64, 56
1, 860423, Note_on_c, 0, 60, 44
1, 860477, Note_off_c, 0, 60, 60
1, 860481, Control_c, 0, 64, 34
1, 860496, Control_c, 0, 64, 38
1, 860510, Control_c, 0, 64, 44
1, 860525, Control_c, 0, 64, 49
1, 860533, Note_on_c, 0, 54, 72
1, 860540, Control_c, 0, 64, 54
1, 860548, Note_off_c, 0, 55, 59
1, 860555, Control_c, 0, 64, 56
1, 860569, Control_c, 0, 64, 56
1, 860584, Control_c, 0, 64, 57
1, 860593, Note_on_c, 0, 60, 52
1, 860593, Note_off_c, 0, 48, 60
1, 860622, Control_c, 0, 64, 57
1, 860634, Note_on_c, 0, 52, 74
1, 860636, Control_c, 0, 64, 58
1, 860639, Note_off_c, 0, 54, 63
1, 860653, Note_off_c, 0, 60, 62
1, 860666, Control_c, 0, 64, 58
1, 860688, Note_on_c, 0, 55, 57
1, 860713, Note_off_c, 0, 52, 59
1, 860741, Control_c, 0, 64, 58
1, 860752, Note_off_c, 0, 55, 55
1, 860754, Note_on_c, 0, 54, 73
1, 860756, Control_c, 0, 64, 56
1, 860766, Note_on_c, 0, 43, 57
1, 860771, Control_c, 0, 64, 53
1, 860785, Control_c, 0, 64, 48
1, 860800, Control_c, 0, 64, 43
1, 860815, Control_c, 0, 64, 39
1, 860829, Note_on_c, 0, 63, 49
1, 860830, Control_c, 0, 64, 38
1, 860859, Control_c, 0, 64, 38
1, 860874, Control_c, 0, 64, 40
1, 860885, Note_off_c, 0, 63, 54
1, 860889, Control_c, 0, 64, 44
1, 860904, Control_c, 0, 64, 49
1, 860919, Control_c, 0, 64, 54
1, 860931, Note_on_c, 0, 59, 45
1, 860934, Control_c, 0, 64, 56
1, 860957, Note_off_c, 0, 59, 59
1, 860978, Control_c, 0, 64, 56
1, 861007, Control_c, 0, 64, 55
1, 861022, Control_c, 0, 64, 55
1, 861023, Note_on_c, 0, 51, 71
1, 861029, Note_off_c, 0, 54, 54
1, 861067, Control_c, 0, 64, 54
1, 861082, Control_c, 0, 64, 54
1, 861094, Note_on_c, 0, 55, 54
1, 861097, Control_c, 0, 64, 53
1, 861112, Control_c, 0, 64, 53
1, 861127, Control_c, 0, 64, 52
1, 861140, Note_off_c, 0, 51, 61
1, 861141, Control_c, 0, 64, 51
1, 861150, Note_off_c, 0, 55, 59
1, 861151, Note_on_c, 0, 54, 72
1, 861156, Control_c, 0, 64, 50
1, 861171, Control_c, 0, 64, 49
1, 861185, Control_c, 0, 64, 48
1, 861188, Note_on_c, 0, 59, 55
1, 861200, Control_c, 0, 64, 47
1, 861215, Control_c, 0, 64, 46
1, 861224, Note_off_c, 0, 59, 65
1, 861230, Control_c, 0, 64, 44
1, 861245, Control_c, 0, 64, 42
1, 861259, Control_c, 0, 64, 40
1, 861267, Note_off_c, 0, 43, 61
1, 861267, Note_off_c, 0, 54, 57
1, 861274, Control_c, 0, 64, 37
1, 861278, Note_on_c, 0, 50, 68
1, 861286, Note_on_c, 0, 46, 57
1, 861289, Control_c, 0, 64, 34
1, 861304, Control_c, 0, 64, 32
1, 861319, Control_c, 0, 64, 29
1, 861333, Control_c, 0, 64, 0
1, 861395, Note_on_c, 0, 58, 46
1, 861400, Control_c, 0, 64, 30
1, 861415, Control_c, 0, 64, 35
1, 861430, Control_c, 0, 64, 44
1, 861443, Note_off_c, 0, 58, 59
1, 861445, Control_c, 0, 64, 51
1, 861460, Control_c, 0, 64, 55
1, 861474, Control_c, 0, 64, 57
1, 861487, Note_on_c, 0, 54, 46
1, 861533, Note_off_c, 0, 54, 59
1, 861535, Control_c, 0, 64, 56
1, 861550, Control_c, 0, 64, 55
1, 861557, Note_off_c, 0, 50, 62
1, 861565, Control_c, 0, 64, 53
1, 861580, Control_c, 0, 64, 51
1, 861591, Note_on_c, 0, 52, 64
1, 861595, Control_c, 0, 64, 50
1, 861600, Note_off_c, 0, 46, 62
1, 861609, Control_c, 0, 64, 48
1, 861624, Control_c, 0, 64, 47
1, 861639, Control_c, 0, 64, 46
1, 861654, Control_c, 0, 64, 44
1, 861661, Note_on_c, 0, 56, 50
1, 861664, Note_off_c, 0, 52, 56
1, 861669, Control_c, 0, 64, 43
1, 861683, Control_c, 0, 64, 41
1, 861698, Control_c, 0, 64, 40
1, 861713, Control_c, 0, 64, 39
1, 861716, Note_on_c, 0, 48, 71
1, 861723, Note_off_c, 0, 56, 53
1, 861728, Control_c, 0, 64, 39
1, 861743, Control_c, 0, 64, 38
1, 861757, Control_c, 0, 64, 37
1, 861772, Control_c, 0, 64, 37
1, 861786, Note_on_c, 0, 52, 42
1, 861802, Control_c, 0, 64, 36
1, 861822, Note_off_c, 0, 52, 56
1, 861839, Note_off_c, 0, 48, 57
1, 861857, Note_on_c, 0, 44, 61
1, 861920, Control_c, 0, 64, 37
1, 861928, Note_off_c, 0, 44, 62
1, 861935, Control_c, 0, 64, 37
1, 861949, Note_on_c, 0, 52, 43
1, 861950, Control_c, 0, 64, 38
1, 861964, Control_c, 0, 64, 38
1, 861979, Control_c, 0, 64, 39
1, 861994, Control_c, 0, 64, 39
1, 862009, Control_c, 0, 64, 40
1, 862024, Note_off_c, 0, 52, 52
1, 862067, Note_on_c, 0, 48, 44
1, 862132, Note_off_c, 0, 48, 48
1, 862194, Note_on_c, 0, 45, 51
1, 862238, Control_c, 0, 64, 39
1, 862289, Note_on_c, 0, 54, 37
1, 862343, Control_c, 0, 64, 39
1, 862363, Note_off_c, 0, 45, 63
1, 862373, Control_c, 0, 64, 38
1, 862386, Note_on_c, 0, 48, 56
1, 862386, Note_off_c, 0, 54, 37
1, 862388, Control_c, 0, 64, 38
1, 862402, Control_c, 0, 64, 37
1, 862417, Control_c, 0, 64, 37
1, 862432, Control_c, 0, 64, 36
1, 862447, Control_c, 0, 64, 36
1, 862462, Control_c, 0, 64, 35
1, 862491, Note_on_c, 0, 50, 26
1, 862492, Control_c, 0, 64, 35
1, 862506, Control_c, 0, 64, 34
1, 862521, Control_c, 0, 64, 34
1, 862536, Control_c, 0, 64, 33
1, 862551, Control_c, 0, 64, 32
1, 862566, Control_c, 0, 64, 30
1, 862580, Control_c, 0, 64, 0
1, 862593, Note_off_c, 0, 48, 49
1, 862615, Note_on_c, 0, 37, 52
1, 862620, Note_off_c, 0, 50, 45
1, 862713, Control_c, 0, 64, 31
1, 862728, Control_c, 0, 64, 45
1, 862743, Control_c, 0, 64, 58
1, 862757, Control_c, 0, 64, 65
1, 862772, Control_c, 0, 64, 68
1, 862782, Note_on_c, 0, 53, 36
1, 862787, Control_c, 0, 64, 71
1, 862796, Note_off_c, 0, 37, 61
1, 862802, Control_c, 0, 64, 74
1, 862817, Control_c, 0, 64, 78
1, 862832, Control_c, 0, 64, 82
1, 862847, Control_c, 0, 64, 84
1, 862867, Note_off_c, 0, 53, 50
1, 862869, Control_c, 0, 64, 86
1, 862884, Control_c, 0, 64, 87
1, 862899, Control_c, 0, 64, 87
1, 862902, Note_on_c, 0, 49, 50
1, 862928, Control_c, 0, 64, 88
1, 862954, Note_off_c, 0, 49, 62
1, 863040, Note_on_c, 0, 56, 49
1, 863103, Note_off_c, 0, 56, 60
1, 863192, Note_on_c, 0, 61, 48
1, 863283, Note_off_c, 0, 61, 55
1, 863377, Note_on_c, 0, 53, 50
1, 863417, Control_c, 0, 64, 87
1, 863481, Note_off_c, 0, 53, 55
1, 863595, Control_c, 0, 64, 87
1, 863642, Note_on_c, 0, 47, 45
1, 863647, Control_c, 0, 64, 86
1, 863661, Control_c, 0, 64, 86
1, 863691, Control_c, 0, 64, 85
1, 863706, Control_c, 0, 64, 83
1, 863721, Control_c, 0, 64, 81
1, 863729, Note_on_c, 0, 54, 45
1, 863732, Note_on_c, 0, 57, 37
1, 863735, Control_c, 0, 64, 78
1, 863750, Control_c, 0, 64, 73
1, 863765, Control_c, 0, 64, 68
1, 863767, Note_on_c, 0, 62, 49
1, 863780, Control_c, 0, 64, 60
1, 863795, Control_c, 0, 64, 54
1, 863809, Control_c, 0, 64, 49
1, 863824, Control_c, 0, 64, 46
1, 863832, Note_on_c, 0, 64, 50
1, 863839, Control_c, 0, 64, 44
1, 863854, Control_c, 0, 64, 41
1, 863869, Control_c, 0, 64, 36
1, 863884, Control_c, 0, 64, 29
1, 863899, Control_c, 0, 64, 0
1, 864210, Control_c, 0, 64, 32
1, 864225, Control_c, 0, 64, 39
1, 864240, Control_c, 0, 64, 48
1, 864255, Control_c, 0, 64, 58
1, 864270, Control_c, 0, 64, 62
1, 864284, Control_c, 0, 64, 64
1, 864299, Control_c, 0, 64, 65
1, 864314, Control_c, 0, 64, 66
1, 864328, Control_c, 0, 64, 67
1, 864343, Control_c, 0, 64, 69
1, 864366, Control_c, 0, 64, 71
1, 864381, Control_c, 0, 64, 73
1, 864396, Control_c, 0, 64, 74
1, 864410, Control_c, 0, 64, 76
1, 864425, Control_c, 0, 64, 78
1, 864440, Control_c, 0, 64, 79
1, 864455, Control_c, 0, 64, 81
1, 864470, Control_c, 0, 64, 82
1, 864484, Control_c, 0, 64, 83
1, 864499, Control_c, 0, 64, 84
1, 864510, Note_off_c, 0, 57, 39
1, 864514, Control_c, 0, 64, 86
1, 864528, Control_c, 0, 64, 87
1, 864544, Control_c, 0, 64, 87
1, 864559, Control_c, 0, 64, 88
1, 864574, Control_c, 0, 64, 89
1, 864603, Control_c, 0, 64, 89
1, 864618, Control_c, 0, 64, 90
1, 864866, Note_off_c, 0, 47, 37
1, 865605, Note_off_c, 0, 62, 59
1, 865616, Note_off_c, 0, 64, 62
1, 865627, Note_off_c, 0, 54, 54
1, 865649, Control_c, 0, 64, 89
1, 865694, Control_c, 0, 64, 89
1, 865724, Control_c, 0, 64, 88
1, 865738, Control_c, 0, 64, 87
1, 865753, Control_c, 0, 64, 85
1, 865768, Control_c, 0, 64, 82
1, 865783, Control_c, 0, 64, 79
1, 865798, Control_c, 0, 64, 75
1, 865813, Control_c, 0, 64, 67
1, 865827, Control_c, 0, 64, 60
1, 865842, Control_c, 0, 64, 50
1, 865864, Control_c, 0, 64, 36
1, 865879, Control_c, 0, 64, 0
1, 865917, Note_on_c, 0, 37, 59
1, 865953, Control_c, 0, 64, 33
1, 865968, Control_c, 0, 64, 49
1, 865983, Control_c, 0, 64, 61
1, 865997, Control_c, 0, 64, 66
1, 866007, Note_off_c, 0, 37, 61
1, 866012, Control_c, 0, 64, 70
1, 866027, Control_c, 0, 64, 73
1, 866027, Control_c, 0, 67, 104
1, 866042, Control_c, 0, 64, 74
1, 866042, Control_c, 0, 67, 73
1, 866057, Control_c, 0, 64, 76
1, 866057, Control_c, 0, 67, 42
1, 866067, Note_on_c, 0, 53, 52
1, 866072, Control_c, 0, 64, 79
1, 866072, Control_c, 0, 67, 0
1, 866087, Control_c, 0, 64, 82
1, 866102, Control_c, 0, 64, 86
1, 866116, Control_c, 0, 64, 89
1, 866131, Control_c, 0, 64, 93
1, 866146, Control_c, 0, 64, 95
1, 866158, Note_off_c, 0, 53, 53
1, 866176, Control_c, 0, 64, 98
1, 866179, Note_on_c, 0, 49, 54
1, 866205, Control_c, 0, 64, 100
1, 866225, Note_off_c, 0, 49, 63
1, 866316, Note_on_c, 0, 56, 68
1, 866354, Note_off_c, 0, 56, 61
1, 866453, Note_on_c, 0, 61, 55
1, 866583, Note_off_c, 0, 61, 61
1, 866620, Note_on_c, 0, 53, 58
1, 866712, Note_off_c, 0, 53, 58
1, 866761, Control_c, 0, 67, 45
1, 866776, Control_c, 0, 67, 54
1, 866791, Control_c, 0, 67, 60
1, 866805, Control_c, 0, 67, 62
1, 866820, Control_c, 0, 67, 63
1, 866924, Control_c, 0, 64, 97
1, 866939, Control_c, 0, 64, 94
1, 866954, Control_c, 0, 64, 89
1, 866969, Control_c, 0, 64, 82
1, 866984, Control_c, 0, 64, 75
1, 866999, Control_c, 0, 64, 66
1, 867004, Note_on_c, 0, 67, 46
1, 867009, Note_on_c, 0, 48, 41
1, 867010, Note_on_c, 0, 55, 42
1, 867011, Note_on_c, 0, 66, 46
1, 867013, Control_c, 0, 64, 55
1, 867019, Note_on_c, 0, 60, 31
1, 867028, Control_c, 0, 64, 42
1, 867033, Note_on_c, 0, 64, 31
1, 867043, Control_c, 0, 64, 0
1, 867088, Control_c, 0, 67, 62
1, 867147, Control_c, 0, 67, 62
1, 867207, Control_c, 0, 67, 61
1, 867310, Control_c, 0, 67, 60
1, 867377, Control_c, 0, 67, 60
1, 867407, Control_c, 0, 64, 31
1, 867407, Control_c, 0, 67, 59
1, 867422, Control_c, 0, 64, 40
1, 867436, Control_c, 0, 64, 50
1, 867436, Control_c, 0, 67, 58
1, 867451, Control_c, 0, 64, 57
1, 867451, Control_c, 0, 67, 58
1, 867466, Control_c, 0, 64, 60
1, 867481, Control_c, 0, 64, 61
1, 867481, Control_c, 0, 67, 57
1, 867496, Control_c, 0, 64, 62
1, 867510, Control_c, 0, 64, 63
1, 867525, Control_c, 0, 64, 65
1, 867525, Control_c, 0, 67, 56
1, 867539, Control_c, 0, 64, 67
1, 867553, Control_c, 0, 64, 69
1, 867568, Control_c, 0, 64, 71
1, 867583, Control_c, 0, 64, 73
1, 867598, Control_c, 0, 64, 75
1, 867598, Control_c, 0, 67, 56
1, 867613, Control_c, 0, 64, 76
1, 867628, Control_c, 0, 64, 79
1, 867643, Control_c, 0, 64, 81
1, 867658, Control_c, 0, 64, 84
1, 867658, Control_c, 0, 67, 55
1, 867673, Control_c, 0, 64, 87
1, 867688, Control_c, 0, 64, 89
1, 867702, Control_c, 0, 64, 92
1, 867717, Control_c, 0, 64, 95
1, 867732, Control_c, 0, 64, 98
1, 867747, Control_c, 0, 64, 100
1, 867747, Control_c, 0, 67, 54
1, 867757, Note_off_c, 0, 60, 39
1, 867761, Control_c, 0, 64, 103
1, 867776, Control_c, 0, 64, 105
1, 867806, Control_c, 0, 64, 108
1, 867806, Control_c, 0, 67, 54
1, 867835, Control_c, 0, 64, 110
1, 867835, Control_c, 0, 67, 53
1, 867865, Control_c, 0, 64, 113
1, 867881, Control_c, 0, 67, 53
1, 867896, Control_c, 0, 64, 115
1, 867940, Control_c, 0, 64, 118
1, 867953, Note_off_c, 0, 48, 40
1, 868058, Control_c, 0, 67, 52
1, 868088, Control_c, 0, 67, 51
1, 868125, Control_c, 0, 67, 51
1, 868155, Control_c, 0, 67, 50
1, 868170, Control_c, 0, 67, 49
1, 868199, Control_c, 0, 67, 49
1, 868214, Control_c, 0, 67, 48
1, 868244, Control_c, 0, 67, 47
1, 868258, Control_c, 0, 67, 47
1, 868288, Control_c, 0, 67, 46
1, 868303, Control_c, 0, 67, 45
1, 868318, Control_c, 0, 67, 45
1, 868332, Control_c, 0, 67, 44
1, 868347, Control_c, 0, 67, 43
1, 868362, Control_c, 0, 67, 43
1, 868376, Control_c, 0, 67, 42
1, 868391, Control_c, 0, 67, 41
1, 868406, Control_c, 0, 67, 41
1, 868411, Note_off_c, 0, 64, 40
1, 868436, Control_c, 0, 67, 40
1, 868444, Note_off_c, 0, 66, 35
1, 868525, Control_c, 0, 67, 41
1, 868526, Note_off_c, 0, 67, 50
1, 868555, Control_c, 0, 67, 41
1, 868570, Control_c, 0, 67, 42
1, 868599, Control_c, 0, 67, 43
1, 868614, Control_c, 0, 67, 43
1, 868634, Note_off_c, 0, 55, 40
1, 868644, Control_c, 0, 67, 45
1, 868658, Control_c, 0, 67, 45
1, 868674, Control_c, 0, 67, 47
1, 868689, Control_c, 0, 67, 48
1, 868704, Control_c, 0, 67, 49
1, 868719, Control_c, 0, 67, 50
1, 868733, Control_c, 0, 67, 51
1, 868748, Control_c, 0, 67, 51
1, 868763, Control_c, 0, 67, 52
1, 868793, Control_c, 0, 67, 53
1, 868822, Control_c, 0, 67, 53
1, 868874, Control_c, 0, 67, 54
1, 869067, Control_c, 0, 67, 55
1, 869081, Control_c, 0, 67, 57
1, 869096, Control_c, 0, 67, 60
1, 869111, Control_c, 0, 67, 62
1, 869125, Control_c, 0, 67, 65
1, 869140, Control_c, 0, 67, 67
1, 869155, Control_c, 0, 67, 68
1, 869170, Control_c, 0, 67, 70
1, 869185, Control_c, 0, 67, 71
1, 869199, Control_c, 0, 67, 71
1, 869214, Control_c, 0, 67, 96
1, 869229, Control_c, 0, 67, 125
1, 869244, Control_c, 0, 64, 110
1, 869244, Control_c, 0, 67, 127
1, 869259, Control_c, 0, 64, 95
1, 869273, Control_c, 0, 64, 78
1, 869288, Control_c, 0, 64, 63
1, 869303, Control_c, 0, 64, 51
1, 869318, Control_c, 0, 64, 44
1, 869333, Control_c, 0, 64, 45
1, 869348, Control_c, 0, 64, 51
1, 869361, Note_on_c, 0, 37, 52
1, 869363, Control_c, 0, 64, 59
1, 869378, Control_c, 0, 64, 65
1, 869391, Note_off_c, 0, 37, 61
1, 869393, Control_c, 0, 64, 70
1, 869407, Control_c, 0, 64, 74
1, 869422, Control_c, 0, 64, 77
1, 869437, Control_c, 0, 64, 79
1, 869452, Note_on_c, 0, 53, 42
1, 869452, Control_c, 0, 64, 81
1, 869467, Control_c, 0, 64, 83
1, 869482, Control_c, 0, 64, 84
1, 869494, Note_off_c, 0, 53, 63
1, 869497, Control_c, 0, 64, 85
1, 869512, Control_c, 0, 64, 86
1, 869519, Note_on_c, 0, 49, 52
1, 869527, Control_c, 0, 64, 87
1, 869544, Note_off_c, 0, 49, 55
1, 869624, Note_on_c, 0, 55, 59
1, 869662, Note_off_c, 0, 55, 64
1, 869700, Note_on_c, 0, 52, 50
1, 869753, Note_off_c, 0, 52, 56
1, 869770, Note_on_c, 0, 56, 58
1, 869800, Control_c, 0, 67, 124
1, 869802, Note_off_c, 0, 56, 64
1, 869829, Control_c, 0, 67, 121
1, 869843, Note_on_c, 0, 61, 60
1, 869864, Note_off_c, 0, 61, 62
1, 869921, Note_on_c, 0, 65, 52
1, 869970, Note_off_c, 0, 65, 58
1, 869990, Note_on_c, 0, 60, 63
1, 870007, Control_c, 0, 67, 119
1, 870010, Note_off_c, 0, 60, 64
1, 870037, Control_c, 0, 64, 87
1, 870037, Control_c, 0, 67, 115
1, 870051, Control_c, 0, 67, 113
1, 870057, Note_on_c, 0, 67, 80
1, 870066, Control_c, 0, 67, 110
1, 870081, Control_c, 0, 67, 105
1, 870093, Note_off_c, 0, 67, 63
1, 870096, Control_c, 0, 67, 100
1, 870111, Control_c, 0, 67, 93
1, 870126, Control_c, 0, 67, 84
1, 870134, Note_on_c, 0, 64, 45
1, 870140, Control_c, 0, 67, 75
1, 870142, Note_on_c, 0, 62, 46
1, 870155, Control_c, 0, 67, 68
1, 870170, Note_off_c, 0, 62, 54
1, 870170, Control_c, 0, 64, 88
1, 870170, Control_c, 0, 67, 60
1, 870174, Note_off_c, 0, 64, 62
1, 870185, Control_c, 0, 67, 53
1, 870200, Control_c, 0, 67, 48
1, 870205, Note_on_c, 0, 68, 60
1, 870214, Control_c, 0, 64, 88
1, 870214, Control_c, 0, 67, 41
1, 870229, Control_c, 0, 64, 89
1, 870229, Control_c, 0, 67, 0
1, 870230, Note_off_c, 0, 68, 64
1, 870244, Control_c, 0, 64, 89
1, 870254, Note_on_c, 0, 73, 81
1, 870259, Control_c, 0, 64, 90
1, 870275, Control_c, 0, 64, 92
1, 870288, Note_off_c, 0, 73, 60
1, 870290, Control_c, 0, 64, 93
1, 870305, Control_c, 0, 64, 94
1, 870314, Note_on_c, 0, 77, 68
1, 870319, Control_c, 0, 64, 95
1, 870334, Control_c, 0, 64, 96
1, 870385, Note_off_c, 0, 77, 61
1, 870385, Control_c, 0, 64, 98
1, 870404, Note_on_c, 0, 72, 72
1, 870426, Note_off_c, 0, 72, 69
1, 870430, Control_c, 0, 64, 100
1, 870460, Control_c, 0, 64, 105
1, 870475, Control_c, 0, 64, 109
1, 870475, Note_on_c, 0, 79, 73
1, 870490, Control_c, 0, 64, 117
1, 870505, Control_c, 0, 64, 127
1, 870512, Note_off_c, 0, 79, 63
1, 870528, Note_on_c, 0, 76, 66
1, 870590, Note_off_c, 0, 76, 61
1, 870603, Note_on_c, 0, 80, 67
1, 870630, Note_off_c, 0, 80, 68
1, 870665, Note_on_c, 0, 85, 64
1, 870704, Note_off_c, 0, 85, 61
1, 870729, Note_on_c, 0, 89, 63
1, 870782, Note_off_c, 0, 89, 56
1, 870796, Note_on_c, 0, 84, 70
1, 870826, Note_off_c, 0, 84, 61
1, 870851, Note_on_c, 0, 79, 60
1, 870892, Note_off_c, 0, 79, 58
1, 870931, Note_on_c, 0, 76, 63
1, 870964, Note_off_c, 0, 76, 61
1, 870987, Note_on_c, 0, 80, 62
1, 871014, Note_off_c, 0, 80, 70
1, 871070, Note_on_c, 0, 85, 71
1, 871109, Note_off_c, 0, 85, 63
1, 871134, Note_on_c, 0, 89, 61
1, 871179, Note_off_c, 0, 89, 58
1, 871199, Note_on_c, 0, 84, 71
1, 871232, Note_off_c, 0, 84, 58
1, 871275, Note_on_c, 0, 79, 58
1, 871309, Note_off_c, 0, 79, 61
1, 871352, Note_on_c, 0, 76, 60
1, 871386, Note_off_c, 0, 76, 65
1, 871417, Note_on_c, 0, 80, 61
1, 871447, Note_off_c, 0, 80, 65
1, 871496, Note_on_c, 0, 85, 70
1, 871538, Note_off_c, 0, 85, 59
1, 871575, Note_on_c, 0, 89, 57
1, 871622, Note_off_c, 0, 89, 60
1, 871635, Note_on_c, 0, 84, 68
1, 871679, Note_off_c, 0, 84, 60
1, 871733, Note_on_c, 0, 79, 58
1, 871774, Note_off_c, 0, 79, 62
1, 871846, Note_on_c, 0, 76, 66
1, 871906, Note_off_c, 0, 76, 55
1, 871957, Note_on_c, 0, 80, 79
1, 871988, Control_c, 0, 64, 114
1, 872003, Control_c, 0, 64, 75
1, 872017, Control_c, 0, 64, 58
1, 872023, Note_off_c, 0, 80, 64
1, 872032, Control_c, 0, 64, 56
1, 872037, Note_on_c, 0, 61, 76
1, 872047, Control_c, 0, 64, 62
1, 872062, Control_c, 0, 64, 71
1, 872077, Control_c, 0, 64, 88
1, 872084, Note_on_c, 0, 68, 72
1, 872091, Control_c, 0, 64, 127
1, 872102, Note_off_c, 0, 61, 64
1, 872143, Note_off_c, 0, 68, 64
1, 872145, Note_on_c, 0, 73, 74
1, 872155, Note_on_c, 0, 80, 102
1, 872157, Note_on_c, 0, 92, 102
1, 872158, Note_on_c, 0, 85, 105
1, 872163, Note_on_c, 0, 77, 105
1, 872169, Note_off_c, 0, 73, 68
1, 872183, Note_off_c, 0, 80, 69
1, 872188, Note_off_c, 0, 77, 74
1, 872188, Note_off_c, 0, 85, 69
1, 872195, Note_off_c, 0, 92, 71
1, 872195, Note_on_c, 0, 90, 32
1, 872195, Note_off_c, 0, 90, 127
1, 872536, Control_c, 0, 64, 78
1, 872550, Control_c, 0, 64, 0
1, 872555, Note_on_c, 0, 80, 78
1, 872564, Note_on_c, 0, 77, 71
1, 872567, Note_on_c, 0, 74, 68
1, 872618, Control_c, 0, 67, 39
1, 872632, Control_c, 0, 67, 50
1, 872642, Note_off_c, 0, 74, 52
1, 872647, Control_c, 0, 67, 58
1, 872654, Poly_aftertouch_c, 0, 68, 127
1, 872662, Control_c, 0, 67, 71
1, 872678, Control_c, 0, 67, 82
1, 872688, Note_on_c, 0, 73, 51
1, 872693, Control_c, 0, 67, 88
1, 872707, Control_c, 0, 67, 89
1, 872764, Note_off_c, 0, 73, 60
1, 872782, Note_off_c, 0, 77, 62
1, 872790, Note_off_c, 0, 80, 58
1, 872801, Note_on_c, 0, 72, 56
1, 872801, Poly_aftertouch_c, 0, 68, 0
1, 872821, Note_off_c, 0, 72, 61
1, 872855, Control_c, 0, 67, 91
1, 872870, Control_c, 0, 67, 92
1, 872885, Control_c, 0, 67, 94
1, 872900, Control_c, 0, 67, 94
1, 872988, Control_c, 0, 67, 95
1, 873035, Note_on_c, 0, 73, 61
1, 873040, Note_on_c, 0, 68, 50
1, 873046, Note_on_c, 0, 80, 37
1, 873050, Note_on_c, 0, 77, 41
1, 873062, Note_off_c, 0, 68, 59
1, 873074, Note_off_c, 0, 73, 52
1, 873077, Note_off_c, 0, 80, 35
1, 873092, Note_off_c, 0, 77, 48
1, 873137, Control_c, 0, 67, 97
1, 873141, Note_on_c, 0, 72, 50
1, 873166, Control_c, 0, 67, 100
1, 873181, Control_c, 0, 67, 117
1, 873189, Note_off_c, 0, 72, 55
1, 873196, Control_c, 0, 67, 127
1, 873239, Note_on_c, 0, 71, 62
1, 873250, Note_on_c, 0, 73, 63
1, 873254, Note_on_c, 0, 77, 47
1, 873264, Note_off_c, 0, 71, 64
1, 873265, Note_on_c, 0, 80, 39
1, 873277, Note_off_c, 0, 73, 68
1, 873278, Note_off_c, 0, 77, 58
1, 873291, Note_off_c, 0, 80, 56
1, 873494, Note_on_c, 0, 72, 67
1, 873496, Note_on_c, 0, 80, 49
1, 873497, Note_on_c, 0, 77, 61
1, 873500, Note_on_c, 0, 68, 48
1, 873519, Note_off_c, 0, 80, 60
1, 873523, Note_off_c, 0, 68, 59
1, 873526, Note_off_c, 0, 72, 60
1, 873530, Note_off_c, 0, 77, 65
1, 873597, Note_on_c, 0, 71, 60
1, 873626, Note_off_c, 0, 71, 63
1, 873703, Note_on_c, 0, 70, 65
1, 873715, Note_on_c, 0, 75, 48
1, 873724, Note_on_c, 0, 80, 19
1, 873730, Note_off_c, 0, 70, 68
1, 873738, Note_off_c, 0, 75, 56
1, 873763, Note_off_c, 0, 80, 30
1, 873940, Note_on_c, 0, 68, 62
1, 873950, Note_on_c, 0, 69, 73
1, 873961, Note_on_c, 0, 78, 64
1, 873969, Note_on_c, 0, 80, 24
1, 873973, Note_off_c, 0, 69, 70
1, 874049, Note_on_c, 0, 70, 72
1, 874103, Note_off_c, 0, 70, 61
1, 874137, Note_off_c, 0, 78, 57
1, 874149, Note_off_c, 0, 80, 55
1, 874153, Note_off_c, 0, 68, 62
1, 874164, Note_on_c, 0, 71, 74
1, 874184, Note_off_c, 0, 71, 65
1, 874218, Control_c, 0, 67, 123
1, 874233, Control_c, 0, 67, 121
1, 874262, Control_c, 0, 67, 119
1, 874395, Note_on_c, 0, 80, 66
1, 874408, Note_on_c, 0, 70, 67
1, 874415, Note_on_c, 0, 68, 41
1, 874415, Note_off_c, 0, 80, 59
1, 874417, Note_on_c, 0, 78, 57
1, 874432, Note_off_c, 0, 70, 69
1, 874441, Note_off_c, 0, 68, 54
1, 874452, Note_off_c, 0, 78, 59
1, 874472, Control_c, 0, 67, 121
1, 874498, Note_on_c, 0, 71, 69
1, 874542, Note_off_c, 0, 71, 63
1, 874599, Note_on_c, 0, 72, 77
1, 874604, Note_on_c, 0, 80, 58
1, 874607, Note_on_c, 0, 75, 66
1, 874618, Note_off_c, 0, 72, 71
1, 874622, Note_off_c, 0, 80, 63
1, 874624, Note_on_c, 0, 78, 45
1, 874633, Note_off_c, 0, 75, 68
1, 874650, Note_off_c, 0, 78, 50
1, 874782, Control_c, 0, 67, 123
1, 874848, Note_on_c, 0, 80, 70
1, 874848, Note_on_c, 0, 71, 74
1, 874851, Note_on_c, 0, 68, 68
1, 874857, Note_on_c, 0, 78, 61
1, 874863, Note_off_c, 0, 80, 66
1, 874872, Note_off_c, 0, 71, 68
1, 874879, Note_off_c, 0, 68, 65
1, 874886, Note_off_c, 0, 78, 64
1, 874941, Note_on_c, 0, 72, 74
1, 874981, Note_off_c, 0, 72, 52
1, 875027, Control_c, 0, 67, 119
1, 875041, Control_c, 0, 67, 109
1, 875054, Note_on_c, 0, 77, 78
1, 875056, Control_c, 0, 64, 41
1, 875056, Control_c, 0, 67, 77
1, 875057, Note_on_c, 0, 80, 64
1, 875062, Note_on_c, 0, 73, 75
1, 875072, Control_c, 0, 64, 58
1, 875072, Control_c, 0, 67, 0
1, 875083, Note_off_c, 0, 80, 65
1, 875087, Control_c, 0, 64, 62
1, 875089, Note_off_c, 0, 73, 63
1, 875102, Control_c, 0, 64, 64
1, 875111, Note_off_c, 0, 77, 63
1, 875116, Control_c, 0, 64, 65
1, 875131, Control_c, 0, 64, 67
1, 875146, Control_c, 0, 64, 69
1, 875161, Control_c, 0, 64, 70
1, 875176, Control_c, 0, 64, 72
1, 875191, Control_c, 0, 64, 73
1, 875205, Control_c, 0, 64, 73
1, 875235, Control_c, 0, 64, 74
1, 875265, Control_c, 0, 64, 73
1, 875294, Control_c, 0, 64, 71
1, 875307, Note_on_c, 0, 68, 53
1, 875309, Note_on_c, 0, 80, 48
1, 875309, Control_c, 0, 64, 65
1, 875320, Note_on_c, 0, 74, 86
1, 875323, Note_on_c, 0, 77, 73
1, 875324, Control_c, 0, 64, 57
1, 875339, Control_c, 0, 64, 47
1, 875345, Note_off_c, 0, 80, 0
1, 875345, Note_on_c, 0, 80, 22
1, 875354, Control_c, 0, 64, 39
1, 875368, Control_c, 0, 64, 34
1, 875383, Control_c, 0, 64, 32
1, 875398, Control_c, 0, 64, 32
1, 875433, Note_off_c, 0, 74, 64
1, 875433, Note_on_c, 0, 73, 88
1, 875442, Control_c, 0, 64, 29
1, 875457, Control_c, 0, 64, 0
1, 875539, Note_off_c, 0, 73, 61
1, 875542, Note_off_c, 0, 77, 64
1, 875557, Note_on_c, 0, 72, 87
1, 875588, Note_off_c, 0, 68, 56
1, 875597, Note_off_c, 0, 80, 46
1, 875599, Note_off_c, 0, 72, 68
1, 875811, Note_on_c, 0, 73, 74
1, 875820, Note_on_c, 0, 68, 53
1, 875820, Control_c, 0, 67, 41
1, 875823, Note_on_c, 0, 80, 39
1, 875835, Control_c, 0, 67, 50
1, 875836, Note_on_c, 0, 77, 55
1, 875846, Note_off_c, 0, 68, 59
1, 875849, Note_off_c, 0, 80, 55
1, 875849, Control_c, 0, 67, 56
1, 875865, Control_c, 0, 67, 60
1, 875873, Note_off_c, 0, 77, 62
1, 875879, Note_off_c, 0, 73, 61
1, 875880, Control_c, 0, 67, 64
1, 875895, Control_c, 0, 67, 64
1, 875912, Note_on_c, 0, 72, 75
1, 875954, Control_c, 0, 67, 64
1, 875968, Note_off_c, 0, 72, 59
1, 875984, Control_c, 0, 67, 63
1, 875998, Control_c, 0, 67, 62
1, 876013, Control_c, 0, 67, 61
1, 876018, Note_on_c, 0, 71, 74
1, 876019, Note_on_c, 0, 73, 59
1, 876028, Note_on_c, 0, 77, 61
1, 876028, Control_c, 0, 67, 60
1, 876035, Note_on_c, 0, 80, 43
1, 876040, Note_off_c, 0, 71, 69
1, 876043, Control_c, 0, 67, 59
1, 876049, Note_off_c, 0, 73, 67
1, 876058, Note_off_c, 0, 77, 66
1, 876061, Note_off_c, 0, 80, 56
1, 876103, Control_c, 0, 67, 58
1, 876132, Control_c, 0, 67, 58
1, 876162, Control_c, 0, 67, 57
1, 876191, Control_c, 0, 67, 56
1, 876206, Control_c, 0, 67, 56
1, 876221, Control_c, 0, 67, 55
1, 876236, Control_c, 0, 67, 54
1, 876251, Control_c, 0, 67, 54
1, 876257, Note_on_c, 0, 72, 71
1, 876261, Note_on_c, 0, 68, 58
1, 876261, Note_on_c, 0, 80, 56
1, 876276, Note_on_c, 0, 77, 52
1, 876281, Note_off_c, 0, 68, 62
1, 876282, Note_off_c, 0, 80, 39
1, 876299, Note_off_c, 0, 72, 49
1, 876304, Note_off_c, 0, 77, 63
1, 876347, Control_c, 0, 67, 54
1, 876362, Note_on_c, 0, 71, 69
1, 876413, Note_off_c, 0, 71, 57
1, 876469, Note_on_c, 0, 70, 71
1, 876471, Note_on_c, 0, 80, 50
1, 876475, Note_on_c, 0, 75, 59
1, 876492, Note_off_c, 0, 70, 70
1, 876493, Note_off_c, 0, 80, 60
1, 876501, Note_off_c, 0, 75, 65
1, 876503, Note_on_c, 0, 78, 15
1, 876549, Note_off_c, 0, 78, 28
1, 876729, Note_on_c, 0, 69, 75
1, 876733, Note_on_c, 0, 68, 61
1, 876738, Note_on_c, 0, 80, 51
1, 876740, Note_on_c, 0, 78, 63
1, 876750, Note_off_c, 0, 69, 71
1, 876762, Control_c, 0, 67, 55
1, 876782, Note_off_c, 0, 80, 0
1, 876807, Control_c, 0, 67, 56
1, 876818, Poly_aftertouch_c, 0, 80, 127
1, 876829, Note_on_c, 0, 70, 71
1, 876869, Note_off_c, 0, 70, 61
1, 876917, Note_off_c, 0, 78, 37
1, 876932, Note_on_c, 0, 71, 73
1, 876944, Note_off_c, 0, 68, 59
1, 876949, Poly_aftertouch_c, 0, 80, 0
1, 876958, Note_off_c, 0, 71, 67
1, 877000, Control_c, 0, 67, 55
1, 877044, Control_c, 0, 67, 54
1, 877073, Control_c, 0, 67, 54
1, 877186, Note_on_c, 0, 68, 53
1, 877190, Note_on_c, 0, 78, 43
1, 877191, Note_on_c, 0, 70, 51
1, 877191, Note_on_c, 0, 80, 42
1, 877207, Note_off_c, 0, 68, 60
1, 877212, Note_off_c, 0, 70, 62
1, 877217, Note_off_c, 0, 78, 53
1, 877217, Note_off_c, 0, 80, 36
1, 877274, Note_on_c, 0, 71, 64
1, 877288, Control_c, 0, 67, 54
1, 877311, Note_off_c, 0, 71, 59
1, 877377, Control_c, 0, 67, 55
1, 877378, Note_on_c, 0, 75, 57
1, 877378, Note_on_c, 0, 72, 61
1, 877387, Note_on_c, 0, 80, 34
1, 877397, Note_off_c, 0, 72, 64
1, 877400, Note_off_c, 0, 75, 65
1, 877401, Note_on_c, 0, 78, 24
1, 877417, Note_off_c, 0, 80, 48
1, 877421, Control_c, 0, 67, 56
1, 877434, Note_off_c, 0, 78, 40
1, 877622, Note_on_c, 0, 71, 67
1, 877626, Note_on_c, 0, 80, 51
1, 877627, Note_on_c, 0, 78, 62
1, 877628, Note_on_c, 0, 68, 50
1, 877647, Note_off_c, 0, 80, 61
1, 877648, Note_off_c, 0, 71, 67
1, 877650, Note_off_c, 0, 68, 58
1, 877664, Note_off_c, 0, 78, 56
1, 877674, Control_c, 0, 67, 56
1, 877703, Control_c, 0, 67, 58
1, 877718, Control_c, 0, 67, 59
1, 877720, Note_on_c, 0, 72, 65
1, 877733, Control_c, 0, 67, 60
1, 877748, Note_off_c, 0, 72, 61
1, 877748, Control_c, 0, 67, 61
1, 877763, Control_c, 0, 67, 62
1, 877823, Control_c, 0, 64, 31
1, 877823, Control_c, 0, 67, 61
1, 877831, Note_on_c, 0, 80, 66
1, 877840, Note_on_c, 0, 77, 74
1, 877842, Note_on_c, 0, 73, 70
1, 877844, Control_c, 0, 64, 57
1, 877844, Control_c, 0, 67, 59
1, 877854, Note_off_c, 0, 80, 67
1, 877859, Control_c, 0, 64, 66
1, 877859, Control_c, 0, 67, 57
1, 877864, Note_off_c, 0, 77, 66
1, 877865, Note_off_c, 0, 73, 69
1, 877874, Control_c, 0, 64, 69
1, 877874, Control_c, 0, 67, 55
1, 877888, Control_c, 0, 64, 72
1, 877888, Control_c, 0, 67, 52
1, 877903, Control_c, 0, 64, 73
1, 877903, Control_c, 0, 67, 49
1, 877918, Control_c, 0, 64, 74
1, 877918, Control_c, 0, 67, 45
1, 877933, Control_c, 0, 64, 75
1, 877933, Control_c, 0, 67, 41
1, 877948, Control_c, 0, 67, 39
1, 877963, Control_c, 0, 67, 39
1, 877978, Control_c, 0, 67, 38
1, 878007, Control_c, 0, 67, 37
1, 878052, Control_c, 0, 64, 74
1, 878067, Control_c, 0, 64, 71
1, 878067, Control_c, 0, 67, 0
1, 878075, Note_on_c, 0, 66, 77
1, 878077, Note_on_c, 0, 62, 75
1, 878082, Control_c, 0, 64, 66
1, 878085, Note_on_c, 0, 60, 66
1, 878096, Control_c, 0, 64, 60
1, 878099, Note_off_c, 0, 66, 70
1, 878102, Note_off_c, 0, 62, 68
1, 878103, Note_off_c, 0, 60, 61
1, 878111, Control_c, 0, 64, 53
1, 878120, Note_on_c, 0, 64, 75
1, 878126, Control_c, 0, 64, 48
1, 878141, Control_c, 0, 64, 47
1, 878155, Note_off_c, 0, 64, 64
1, 878156, Control_c, 0, 64, 46
1, 878180, Note_on_c, 0, 69, 70
1, 878185, Control_c, 0, 64, 46
1, 878200, Control_c, 0, 64, 45
1, 878215, Control_c, 0, 64, 43
1, 878229, Note_off_c, 0, 69, 60
1, 878230, Control_c, 0, 64, 41
1, 878234, Note_on_c, 0, 74, 64
1, 878244, Control_c, 0, 64, 39
1, 878258, Note_on_c, 0, 66, 76
1, 878258, Note_on_c, 0, 72, 56
1, 878260, Control_c, 0, 64, 36
1, 878267, Note_off_c, 0, 74, 65
1, 878275, Control_c, 0, 64, 34
1, 878280, Note_off_c, 0, 66, 69
1, 878290, Control_c, 0, 64, 32
1, 878293, Note_off_c, 0, 72, 59
1, 878304, Control_c, 0, 64, 32
1, 878329, Note_on_c, 0, 69, 74
1, 878352, Note_off_c, 0, 69, 68
1, 878383, Note_on_c, 0, 76, 69
1, 878393, Control_c, 0, 64, 0
1, 878407, Note_off_c, 0, 76, 69
1, 878439, Note_on_c, 0, 78, 74
1, 878455, Note_on_c, 0, 74, 57
1, 878458, Note_on_c, 0, 72, 44
1, 878461, Note_off_c, 0, 78, 67
1, 878475, Note_off_c, 0, 74, 60
1, 878484, Note_off_c, 0, 72, 54
1, 878510, Note_on_c, 0, 76, 65
1, 878553, Note_off_c, 0, 76, 61
1, 878573, Note_on_c, 0, 81, 69
1, 878610, Note_off_c, 0, 81, 61
1, 878632, Note_on_c, 0, 78, 68
1, 878637, Note_on_c, 0, 86, 71
1, 878654, Note_off_c, 0, 86, 68
1, 878658, Note_off_c, 0, 78, 63
1, 878845, Control_c, 0, 64, 33
1, 878860, Control_c, 0, 64, 51
1, 878864, Note_on_c, 0, 80, 100
1, 878865, Note_on_c, 0, 94, 96
1, 878870, Note_on_c, 0, 78, 65
1, 878872, Note_on_c, 0, 68, 72
1, 878875, Control_c, 0, 64, 59
1, 878890, Control_c, 0, 64, 60
1, 878893, Note_off_c, 0, 78, 63
1, 878902, Note_off_c, 0, 80, 65
1, 878903, Note_off_c, 0, 94, 64
1, 878905, Control_c, 0, 64, 61
1, 878919, Control_c, 0, 64, 61
1, 878926, Note_off_c, 0, 68, 57
1, 878934, Control_c, 0, 64, 62
1, 878949, Control_c, 0, 64, 62
1, 878964, Note_on_c, 0, 84, 63
1, 878973, Note_on_c, 0, 75, 68
1, 878981, Note_on_c, 0, 83, 54
1, 879003, Note_off_c, 0, 83, 58
1, 879030, Note_off_c, 0, 75, 64
1, 879035, Note_off_c, 0, 84, 64
1, 879037, Control_c, 0, 64, 61
1, 879052, Control_c, 0, 64, 54
1, 879069, Control_c, 0, 64, 40
1, 879072, Note_on_c, 0, 77, 75
1, 879072, Note_on_c, 0, 80, 89
1, 879075, Note_on_c, 0, 92, 87
1, 879078, Note_on_c, 0, 73, 76
1, 879083, Control_c, 0, 64, 0
1, 879087, Note_off_c, 0, 80, 76
1, 879091, Note_off_c, 0, 77, 65
1, 879091, Note_off_c, 0, 92, 74
1, 879097, Note_off_c, 0, 73, 70
1, 879290, Control_c, 0, 64, 36
1, 879296, Note_on_c, 0, 66, 75
1, 879303, Note_on_c, 0, 62, 66
1, 879305, Control_c, 0, 64, 52
1, 879312, Note_on_c, 0, 60, 53
1, 879320, Control_c, 0, 64, 57
1, 879321, Note_off_c, 0, 66, 69
1, 879340, Note_off_c, 0, 62, 63
1, 879341, Note_off_c, 0, 60, 59
1, 879342, Control_c, 0, 64, 59
1, 879357, Control_c, 0, 64, 60
1, 879361, Note_on_c, 0, 64, 71
1, 879372, Control_c, 0, 64, 61
1, 879387, Control_c, 0, 64, 62
1, 879402, Control_c, 0, 64, 64
1, 879403, Note_off_c, 0, 64, 65
1, 879414, Note_on_c, 0, 69, 71
1, 879416, Control_c, 0, 64, 64
1, 879431, Control_c, 0, 64, 65
1, 879460, Control_c, 0, 64, 65
1, 879475, Note_off_c, 0, 69, 64
1, 879486, Note_on_c, 0, 66, 86
1, 879488, Note_on_c, 0, 72, 64
1, 879490, Control_c, 0, 64, 66
1, 879507, Note_on_c, 0, 74, 33
1, 879514, Note_off_c, 0, 66, 65
1, 879520, Note_off_c, 0, 72, 57
1, 879536, Note_off_c, 0, 74, 45
1, 879564, Note_on_c, 0, 69, 86
1, 879596, Note_off_c, 0, 69, 65
1, 879620, Note_on_c, 0, 76, 83
1, 879639, Note_on_c, 0, 74, 45
1, 879647, Note_off_c, 0, 76, 68
1, 879653, Control_c, 0, 64, 65
1, 879668, Control_c, 0, 64, 58
1, 879673, Note_on_c, 0, 78, 93
1, 879681, Note_on_c, 0, 72, 78
1, 879682, Note_off_c, 0, 74, 0
1, 879682, Note_on_c, 0, 74, 44
1, 879683, Control_c, 0, 64, 42
1, 879698, Control_c, 0, 64, 0
1, 879701, Note_off_c, 0, 72, 71
1, 879704, Note_off_c, 0, 78, 58
1, 879711, Note_off_c, 0, 74, 65
1, 879744, Note_on_c, 0, 76, 87
1, 879800, Note_off_c, 0, 76, 67
1, 879804, Note_on_c, 0, 81, 89
1, 879853, Note_on_c, 0, 86, 95
1, 879856, Note_on_c, 0, 78, 86
1, 879860, Note_off_c, 0, 81, 66
1, 879864, Note_on_c, 0, 84, 73
1, 879877, Note_off_c, 0, 84, 69
1, 879879, Note_off_c, 0, 86, 72
1, 879879, Note_off_c, 0, 78, 63
1, 880106, Note_on_c, 0, 78, 73
1, 880106, Control_c, 0, 64, 46
1, 880107, Note_on_c, 0, 94, 97
1, 880108, Note_on_c, 0, 80, 93
1, 880113, Note_on_c, 0, 68, 69
1, 880121, Control_c, 0, 64, 58
1, 880132, Note_off_c, 0, 78, 63
1, 880136, Control_c, 0, 64, 59
1, 880145, Note_off_c, 0, 94, 64
1, 880145, Note_off_c, 0, 80, 66
1, 880151, Control_c, 0, 64, 60
1, 880166, Control_c, 0, 64, 60
1, 880174, Note_off_c, 0, 68, 53
1, 880181, Control_c, 0, 64, 61
1, 880195, Control_c, 0, 64, 61
1, 880209, Note_on_c, 0, 84, 76
1, 880219, Note_on_c, 0, 75, 67
1, 880278, Note_off_c, 0, 84, 64
1, 880284, Control_c, 0, 64, 61
1, 880298, Note_off_c, 0, 75, 59
1, 880299, Control_c, 0, 64, 56
1, 880314, Control_c, 0, 64, 37
1, 880326, Note_on_c, 0, 92, 87
1, 880327, Note_on_c, 0, 80, 80
1, 880328, Note_on_c, 0, 73, 75
1, 880329, Control_c, 0, 64, 0
1, 880333, Note_on_c, 0, 77, 63
1, 880345, Note_off_c, 0, 92, 70
1, 880347, Note_off_c, 0, 80, 69
1, 880348, Note_off_c, 0, 73, 71
1, 880353, Note_off_c, 0, 77, 63
1, 880536, Control_c, 0, 64, 36
1, 880547, Note_on_c, 0, 94, 95
1, 880547, Note_on_c, 0, 78, 79
1, 880547, Note_on_c, 0, 80, 99
1, 880550, Note_on_c, 0, 68, 79
1, 880551, Control_c, 0, 64, 56
1, 880565, Control_c, 0, 64, 59
1, 880574, Note_off_c, 0, 78, 58
1, 880580, Control_c, 0, 64, 60
1, 880585, Note_off_c, 0, 94, 65
1, 880588, Note_off_c, 0, 80, 66
1, 880595, Control_c, 0, 64, 60
1, 880610, Control_c, 0, 64, 62
1, 880625, Control_c, 0, 64, 64
1, 880640, Control_c, 0, 64, 64
1, 880642, Note_on_c, 0, 84, 73
1, 880643, Note_off_c, 0, 68, 41
1, 880651, Note_on_c, 0, 75, 78
1, 880655, Control_c, 0, 64, 65
1, 880714, Control_c, 0, 64, 65
1, 880720, Note_off_c, 0, 84, 63
1, 880723, Note_off_c, 0, 75, 59
1, 880729, Control_c, 0, 64, 56
1, 880744, Control_c, 0, 64, 0
1, 880747, Note_on_c, 0, 92, 94
1, 880750, Note_on_c, 0, 80, 85
1, 880753, Note_on_c, 0, 77, 79
1, 880755, Note_on_c, 0, 73, 76
1, 880769, Note_off_c, 0, 80, 73
1, 880770, Note_off_c, 0, 92, 68
1, 880774, Note_off_c, 0, 73, 71
1, 880774, Note_off_c, 0, 77, 72
1, 880974, Control_c, 0, 64, 45
1, 880981, Note_on_c, 0, 80, 104
1, 880982, Note_on_c, 0, 78, 91
1, 880982, Note_on_c, 0, 94, 93
1, 880986, Note_on_c, 0, 68, 89
1, 880988, Control_c, 0, 64, 61
1, 881003, Control_c, 0, 64, 62
1, 881017, Note_off_c, 0, 94, 66
1, 881019, Control_c, 0, 64, 62
1, 881023, Note_off_c, 0, 80, 66
1, 881027, Note_off_c, 0, 78, 60
1, 881033, Control_c, 0, 64, 63
1, 881048, Control_c, 0, 64, 64
1, 881063, Control_c, 0, 64, 65
1, 881078, Control_c, 0, 64, 67
1, 881081, Note_on_c, 0, 84, 79
1, 881081, Note_off_c, 0, 68, 54
1, 881093, Control_c, 0, 64, 68
1, 881097, Note_on_c, 0, 74, 73
1, 881099, Note_on_c, 0, 83, 56
1, 881108, Control_c, 0, 64, 69
1, 881123, Note_off_c, 0, 83, 37
1, 881123, Control_c, 0, 64, 69
1, 881149, Note_off_c, 0, 74, 64
1, 881156, Note_off_c, 0, 84, 65
1, 881167, Control_c, 0, 64, 67
1, 881182, Control_c, 0, 64, 54
1, 881183, Note_on_c, 0, 77, 88
1, 881185, Note_on_c, 0, 73, 87
1, 881190, Note_on_c, 0, 80, 88
1, 881191, Note_on_c, 0, 92, 99
1, 881197, Control_c, 0, 64, 0
1, 881205, Note_off_c, 0, 77, 67
1, 881206, Note_off_c, 0, 80, 77
1, 881214, Note_off_c, 0, 92, 65
1, 881220, Note_off_c, 0, 73, 65
1, 881413, Note_on_c, 0, 94, 97
1, 881415, Note_on_c, 0, 80, 102
1, 881417, Note_on_c, 0, 78, 84
1, 881419, Control_c, 0, 64, 55
1, 881420, Note_on_c, 0, 68, 82
1, 881433, Control_c, 0, 64, 63
1, 881452, Note_off_c, 0, 78, 58
1, 881453, Note_off_c, 0, 94, 65
1, 881453, Note_off_c, 0, 80, 66
1, 881485, Note_off_c, 0, 68, 59
1, 881509, Control_c, 0, 64, 64
1, 881511, Note_on_c, 0, 84, 80
1, 881513, Note_on_c, 0, 75, 81
1, 881575, Note_off_c, 0, 75, 65
1, 881591, Control_c, 0, 64, 63
1, 881596, Note_off_c, 0, 84, 65
1, 881605, Control_c, 0, 64, 61
1, 881620, Control_c, 0, 64, 51
1, 881625, Note_on_c, 0, 77, 82
1, 881630, Note_on_c, 0, 73, 80
1, 881633, Note_on_c, 0, 80, 95
1, 881633, Note_on_c, 0, 92, 95
1, 881635, Control_c, 0, 64, 0
1, 881644, Note_off_c, 0, 77, 73
1, 881650, Note_off_c, 0, 73, 72
1, 881650, Note_off_c, 0, 80, 71
1, 881651, Note_off_c, 0, 92, 73
1, 881796, Control_c, 0, 64, 40
1, 881811, Control_c, 0, 64, 44
1, 881826, Control_c, 0, 64, 44
1, 881841, Control_c, 0, 64, 45
1, 881865, Note_on_c, 0, 82, 76
1, 881868, Note_on_c, 0, 66, 55
1, 881869, Note_on_c, 0, 56, 64
1, 881870, Control_c, 0, 64, 45
1, 881871, Note_on_c, 0, 68, 73
1, 881890, Note_off_c, 0, 66, 61
1, 881912, Note_off_c, 0, 82, 59
1, 881921, Note_off_c, 0, 68, 55
1, 881959, Control_c, 0, 64, 45
1, 881965, Note_on_c, 0, 72, 75
1, 881974, Control_c, 0, 64, 44
1, 881975, Note_on_c, 0, 63, 66
1, 881987, Note_off_c, 0, 56, 57
1, 881989, Control_c, 0, 64, 43
1, 882003, Control_c, 0, 64, 43
1, 882018, Control_c, 0, 64, 42
1, 882047, Note_off_c, 0, 72, 61
1, 882053, Note_off_c, 0, 63, 63
1, 882062, Control_c, 0, 64, 44
1, 882077, Note_on_c, 0, 68, 87
1, 882077, Control_c, 0, 64, 48
1, 882082, Note_on_c, 0, 80, 96
1, 882083, Note_on_c, 0, 65, 82
1, 882091, Note_on_c, 0, 61, 74
1, 882092, Control_c, 0, 64, 53
1, 882099, Note_off_c, 0, 68, 68
1, 882107, Control_c, 0, 64, 56
1, 882110, Note_off_c, 0, 65, 64
1, 882117, Note_off_c, 0, 61, 69
1, 882122, Control_c, 0, 64, 57
1, 882127, Note_off_c, 0, 80, 67
1, 882166, Control_c, 0, 64, 57
1, 882196, Control_c, 0, 64, 56
1, 882211, Control_c, 0, 64, 55
1, 882225, Control_c, 0, 64, 54
1, 882227, Note_on_c, 0, 61, 92
1, 882240, Control_c, 0, 64, 52
1, 882256, Control_c, 0, 64, 51
1, 882270, Control_c, 0, 64, 49
1, 882285, Control_c, 0, 64, 46
1, 882300, Control_c, 0, 64, 41
1, 882315, Control_c, 0, 64, 0
1, 882389, Note_on_c, 0, 83, 99
1, 882389, Note_on_c, 0, 84, 96
1, 882393, Note_on_c, 0, 72, 100
1, 882395, Note_on_c, 0, 74, 94
1, 882441, Control_c, 0, 64, 40
1, 882456, Control_c, 0, 64, 62
1, 882471, Control_c, 0, 64, 66
1, 882485, Control_c, 0, 64, 70
1, 882500, Control_c, 0, 64, 73
1, 882515, Control_c, 0, 64, 78
1, 882530, Control_c, 0, 64, 81
1, 882543, Note_off_c, 0, 74, 56
1, 882545, Control_c, 0, 64, 83
1, 882547, Note_off_c, 0, 83, 59
1, 882550, Note_off_c, 0, 61, 58
1, 882558, Note_off_c, 0, 72, 60
1, 882559, Control_c, 0, 64, 84
1, 882567, Note_off_c, 0, 84, 63
1, 882574, Control_c, 0, 64, 85
1, 882589, Control_c, 0, 64, 86
1, 882610, Note_on_c, 0, 69, 82
1, 882611, Note_on_c, 0, 78, 101
1, 882619, Control_c, 0, 64, 86
1, 882634, Control_c, 0, 64, 87
1, 882664, Control_c, 0, 64, 87
1, 882693, Control_c, 0, 64, 88
1, 882708, Control_c, 0, 64, 88
1, 882723, Control_c, 0, 64, 89
1, 882738, Control_c, 0, 64, 90
1, 882752, Control_c, 0, 64, 91
1, 882767, Control_c, 0, 64, 91
1, 882782, Control_c, 0, 64, 92
1, 882795, Note_on_c, 0, 61, 74
1, 882797, Note_off_c, 0, 69, 63
1, 882797, Control_c, 0, 64, 92
1, 882811, Note_on_c, 0, 68, 67
1, 882812, Control_c, 0, 64, 93
1, 882856, Control_c, 0, 64, 92
1, 882868, Note_off_c, 0, 78, 58
1, 882871, Control_c, 0, 64, 81
1, 882885, Control_c, 0, 64, 63
1, 882900, Control_c, 0, 64, 0
1, 882905, Note_on_c, 0, 73, 71
1, 882908, Note_on_c, 0, 77, 86
1, 882922, Note_on_c, 0, 71, 75
1, 883000, Note_off_c, 0, 61, 60
1, 883003, Control_c, 0, 64, 43
1, 883018, Control_c, 0, 64, 65
1, 883033, Control_c, 0, 64, 70
1, 883049, Control_c, 0, 64, 75
1, 883064, Control_c, 0, 64, 78
1, 883084, Note_off_c, 0, 68, 57
1, 883087, Control_c, 0, 64, 80
1, 883101, Control_c, 0, 64, 81
1, 883103, Note_off_c, 0, 73, 63
1, 883105, Note_off_c, 0, 77, 62
1, 883116, Control_c, 0, 64, 83
1, 883131, Control_c, 0, 64, 84
1, 883139, Note_off_c, 0, 71, 57
1, 883146, Control_c, 0, 64, 85
1, 883161, Control_c, 0, 64, 86
1, 883190, Control_c, 0, 64, 86
1, 883220, Control_c, 0, 64, 87
1, 883249, Control_c, 0, 64, 87
1, 883264, Control_c, 0, 64, 88
1, 883279, Control_c, 0, 64, 89
1, 883294, Control_c, 0, 64, 89
1, 883308, Control_c, 0, 64, 90
1, 883323, Control_c, 0, 64, 90
1, 883338, Control_c, 0, 64, 91
1, 883347, Note_on_c, 0, 65, 48
1, 883353, Control_c, 0, 64, 92
1, 883368, Control_c, 0, 64, 93
1, 883382, Control_c, 0, 64, 93
1, 883397, Control_c, 0, 64, 94
1, 883412, Control_c, 0, 64, 95
1, 883427, Control_c, 0, 64, 96
1, 883438, Note_on_c, 0, 71, 72
1, 883454, Note_off_c, 0, 65, 58
1, 883460, Note_off_c, 0, 71, 64
1, 883471, Control_c, 0, 64, 99
1, 883474, Note_on_c, 0, 60, 92
1, 883480, Note_on_c, 0, 69, 84
1, 883501, Control_c, 0, 64, 101
1, 883531, Control_c, 0, 64, 104
1, 883561, Note_off_c, 0, 60, 59
1, 883561, Control_c, 0, 64, 108
1, 883590, Control_c, 0, 64, 111
1, 883620, Control_c, 0, 64, 114
1, 883663, Note_off_c, 0, 69, 62
1, 883664, Control_c, 0, 64, 117
1, 883677, Note_on_c, 0, 61, 98
1, 883713, Note_off_c, 0, 61, 69
1, 883769, Note_on_c, 0, 42, 88
1, 883797, Control_c, 0, 64, 119
1, 883865, Control_c, 0, 64, 116
1, 883877, Note_on_c, 0, 49, 72
1, 883880, Control_c, 0, 64, 97
1, 883895, Control_c, 0, 64, 69
1, 883910, Control_c, 0, 64, 42
1, 883924, Control_c, 0, 64, 0
1, 883925, Note_off_c, 0, 42, 64
1, 883969, Note_on_c, 0, 85, 104
1, 883969, Control_c, 0, 64, 52
1, 883972, Note_on_c, 0, 58, 78
1, 883973, Note_on_c, 0, 73, 102
1, 883975, Note_off_c, 0, 49, 63
1, 883983, Note_on_c, 0, 78, 86
1, 883984, Control_c, 0, 64, 67
1, 883989, Note_on_c, 0, 82, 78
1, 883998, Control_c, 0, 64, 76
1, 884013, Control_c, 0, 64, 85
1, 884018, Note_off_c, 0, 58, 63
1, 884023, Note_off_c, 0, 73, 63
1, 884028, Control_c, 0, 64, 90
1, 884033, Note_off_c, 0, 85, 66
1, 884043, Control_c, 0, 64, 93
1, 884044, Note_off_c, 0, 78, 60
1, 884046, Note_off_c, 0, 82, 65
1, 884057, Control_c, 0, 64, 97
1, 884072, Control_c, 0, 64, 100
1, 884087, Control_c, 0, 64, 103
1, 884102, Control_c, 0, 64, 106
1, 884117, Control_c, 0, 64, 109
1, 884131, Control_c, 0, 64, 113
1, 884161, Control_c, 0, 64, 116
1, 884232, Note_on_c, 0, 61, 84
1, 884239, Note_on_c, 0, 58, 68
1, 884240, Note_on_c, 0, 63, 88
1, 884254, Note_off_c, 0, 58, 68
1, 884256, Note_off_c, 0, 61, 67
1, 884332, Note_on_c, 0, 65, 92
1, 884343, Note_off_c, 0, 63, 60
1, 884398, Control_c, 0, 64, 106
1, 884413, Control_c, 0, 64, 81
1, 884428, Control_c, 0, 64, 60
1, 884438, Note_off_c, 0, 65, 62
1, 884443, Control_c, 0, 64, 0
1, 884452, Note_on_c, 0, 66, 89
1, 884465, Note_on_c, 0, 70, 86
1, 884466, Note_on_c, 0, 73, 84
1, 884487, Control_c, 0, 64, 43
1, 884502, Control_c, 0, 64, 65
1, 884510, Note_off_c, 0, 70, 60
1, 884517, Control_c, 0, 64, 73
1, 884526, Note_off_c, 0, 66, 65
1, 884527, Note_off_c, 0, 73, 57
1, 884531, Control_c, 0, 64, 81
1, 884546, Control_c, 0, 64, 84
1, 884561, Control_c, 0, 64, 86
1, 884583, Control_c, 0, 64, 87
1, 884598, Control_c, 0, 64, 88
1, 884613, Control_c, 0, 64, 89
1, 884643, Control_c, 0, 64, 90
1, 884704, Note_on_c, 0, 65, 80
1, 884709, Note_on_c, 0, 70, 89
1, 884712, Note_on_c, 0, 66, 76
1, 884730, Note_off_c, 0, 70, 65
1, 884732, Note_off_c, 0, 66, 64
1, 884747, Control_c, 0, 64, 91
1, 884759, Note_off_c, 0, 65, 64
1, 884762, Control_c, 0, 64, 93
1, 884777, Control_c, 0, 64, 98
1, 884792, Control_c, 0, 64, 108
1, 884798, Note_on_c, 0, 63, 85
1, 884807, Control_c, 0, 64, 127
1, 884810, Poly_aftertouch_c, 0, 68, 0
1, 884818, Note_off_c, 0, 63, 72
1, 884866, Control_c, 0, 64, 114
1, 884880, Note_on_c, 0, 49, 66
1, 884880, Control_c, 0, 64, 81
1, 884895, Control_c, 0, 64, 61
1, 884910, Control_c, 0, 64, 42
1, 884911, Note_off_c, 0, 49, 65
1, 884911, Poly_aftertouch_c, 0, 73, 0
1, 884925, Note_on_c, 0, 73, 71
1, 884925, Note_on_c, 0, 85, 102
1, 884925, Control_c, 0, 64, 48
1, 884926, Note_on_c, 0, 78, 85
1, 884940, Control_c, 0, 64, 59
1, 884943, Note_on_c, 0, 65, 96
1, 884954, Control_c, 0, 64, 70
1, 884969, Note_off_c, 0, 85, 67
1, 884969, Control_c, 0, 64, 83
1, 884970, Note_off_c, 0, 73, 62
1, 884978, Note_off_c, 0, 78, 63
1, 884984, Control_c, 0, 64, 94
1, 884998, Control_c, 0, 64, 96
1, 885013, Control_c, 0, 64, 99
1, 885043, Control_c, 0, 64, 102
1, 885058, Control_c, 0, 64, 104
1, 885072, Control_c, 0, 64, 107
1, 885085, Note_off_c, 0, 65, 56
1, 885087, Control_c, 0, 64, 109
1, 885102, Control_c, 0, 64, 111
1, 885153, Note_on_c, 0, 66, 87
1, 885157, Note_on_c, 0, 58, 74
1, 885172, Note_on_c, 0, 63, 78
1, 885175, Note_off_c, 0, 58, 67
1, 885196, Note_off_c, 0, 66, 65
1, 885233, Note_off_c, 0, 63, 62
1, 885236, Control_c, 0, 64, 115
1, 885251, Control_c, 0, 64, 127
1, 885254, Note_on_c, 0, 61, 83
1, 885275, Note_off_c, 0, 61, 71
1, 885347, Control_c, 0, 64, 99
1, 885356, Note_on_c, 0, 44, 70
1, 885361, Control_c, 0, 64, 65
1, 885376, Control_c, 0, 64, 0
1, 885383, Note_on_c, 0, 85, 100
1, 885388, Note_on_c, 0, 73, 95
1, 885390, Note_off_c, 0, 44, 66
1, 885391, Note_on_c, 0, 77, 94
1, 885394, Note_on_c, 0, 59, 101
1, 885421, Control_c, 0, 64, 58
1, 885424, Note_off_c, 0, 85, 66
1, 885428, Note_off_c, 0, 77, 66
1, 885436, Control_c, 0, 64, 75
1, 885436, Note_on_c, 0, 76, 16
1, 885436, Note_off_c, 0, 76, 127
1, 885438, Note_off_c, 0, 73, 63
1, 885439, Note_off_c, 0, 59, 69
1, 885451, Control_c, 0, 64, 93
1, 885466, Control_c, 0, 64, 107
1, 885481, Control_c, 0, 64, 109
1, 885582, Note_on_c, 0, 63, 43
1, 885600, Note_on_c, 0, 65, 64
1, 885618, Note_off_c, 0, 65, 65
1, 885626, Note_off_c, 0, 63, 0
1, 885636, Note_on_c, 0, 63, 63
1, 885751, Note_on_c, 0, 71, 93
1, 885752, Note_on_c, 0, 83, 92
1, 885766, Note_off_c, 0, 63, 58
1, 885770, Note_on_c, 0, 61, 76
1, 885778, Note_off_c, 0, 71, 66
1, 885779, Note_off_c, 0, 83, 63
1, 885798, Note_on_c, 0, 56, 74
1, 885837, Note_on_c, 0, 85, 98
1, 885841, Note_on_c, 0, 73, 99
1, 885844, Note_off_c, 0, 56, 63
1, 885844, Note_on_c, 0, 71, 105
1, 885859, Note_off_c, 0, 61, 62
1, 885859, Note_on_c, 0, 65, 61
1, 885864, Note_off_c, 0, 73, 64
1, 885865, Note_off_c, 0, 71, 68
1, 885879, Note_off_c, 0, 65, 63
1, 885883, Note_off_c, 0, 85, 63
1, 885925, Control_c, 0, 64, 107
1, 885940, Control_c, 0, 64, 88
1, 885955, Control_c, 0, 64, 69
1, 885969, Control_c, 0, 64, 51
1, 885984, Control_c, 0, 64, 29
1, 885997, Note_on_c, 0, 80, 46
1, 885999, Control_c, 0, 64, 0
1, 886047, Note_off_c, 0, 80, 43
1, 886124, Note_on_c, 0, 85, 94
1, 886128, Note_on_c, 0, 73, 88
1, 886128, Note_on_c, 0, 81, 82
1, 886133, Note_on_c, 0, 75, 80
1, 886159, Note_on_c, 0, 78, 48
1, 886202, Note_off_c, 0, 78, 42
1, 886211, Note_off_c, 0, 73, 53
1, 886247, Note_on_c, 0, 78, 63
1, 886257, Note_on_c, 0, 73, 46
1, 886309, Note_on_c, 0, 77, 43
1, 886319, Control_c, 0, 64, 63
1, 886333, Control_c, 0, 64, 82
1, 886348, Control_c, 0, 64, 93
1, 886349, Note_off_c, 0, 81, 59
1, 886351, Note_off_c, 0, 85, 62
1, 886360, Note_off_c, 0, 75, 59
1, 886363, Control_c, 0, 64, 96
1, 886368, Note_on_c, 0, 71, 89
1, 886369, Note_off_c, 0, 73, 53
1, 886372, Note_off_c, 0, 78, 59
1, 886373, Note_on_c, 0, 61, 77
1, 886373, Note_off_c, 0, 77, 62
1, 886375, Note_on_c, 0, 69, 75
1, 886378, Note_on_c, 0, 65, 64
1, 886378, Control_c, 0, 64, 100
1, 886385, Note_off_c, 0, 71, 73
1, 886393, Control_c, 0, 64, 119
1, 886396, Note_off_c, 0, 69, 69
1, 886396, Note_off_c, 0, 61, 69
1, 886397, Note_off_c, 0, 65, 64
1, 886408, Control_c, 0, 64, 127
1, 886476, Poly_aftertouch_c, 0, 63, 0
1, 886583, Note_on_c, 0, 71, 98
1, 886584, Note_on_c, 0, 83, 88
1, 886598, Note_on_c, 0, 81, 73
1, 886601, Note_on_c, 0, 77, 75
1, 886607, Note_on_c, 0, 73, 62
1, 886621, Note_off_c, 0, 71, 64
1, 886625, Note_off_c, 0, 73, 65
1, 886638, Note_off_c, 0, 77, 62
1, 886639, Note_off_c, 0, 83, 64
1, 886647, Note_off_c, 0, 81, 66
1, 886717, Note_on_c, 0, 85, 98
1, 886718, Note_on_c, 0, 42, 83
1, 886718, Note_on_c, 0, 73, 85
1, 886795, Note_off_c, 0, 73, 63
1, 886800, Note_off_c, 0, 85, 64
1, 886810, Note_on_c, 0, 49, 71
1, 886827, Note_off_c, 0, 42, 62
1, 886831, Control_c, 0, 64, 105
1, 886845, Control_c, 0, 64, 67
1, 886860, Control_c, 0, 64, 50
1, 886864, Note_on_c, 0, 58, 90
1, 886868, Note_on_c, 0, 78, 69
1, 886868, Note_on_c, 0, 87, 102
1, 886871, Note_on_c, 0, 75, 96
1, 886875, Control_c, 0, 64, 52
1, 886876, Note_on_c, 0, 82, 91
1, 886879, Note_off_c, 0, 49, 63
1, 886890, Control_c, 0, 64, 61
1, 886901, Note_off_c, 0, 58, 66
1, 886905, Control_c, 0, 64, 71
1, 886908, Note_off_c, 0, 87, 67
1, 886913, Note_off_c, 0, 75, 62
1, 886919, Control_c, 0, 64, 89
1, 886922, Note_off_c, 0, 82, 67
1, 886926, Note_off_c, 0, 78, 63
1, 886934, Control_c, 0, 64, 110
1, 886949, Control_c, 0, 64, 118
1, 886964, Control_c, 0, 64, 120
1, 887105, Note_on_c, 0, 63, 87
1, 887113, Control_c, 0, 64, 124
1, 887126, Note_on_c, 0, 61, 35
1, 887157, Control_c, 0, 64, 127
1, 887159, Note_off_c, 0, 61, 51
1, 887198, Note_on_c, 0, 65, 89
1, 887216, Note_off_c, 0, 63, 55
1, 887261, Control_c, 0, 64, 119
1, 887275, Control_c, 0, 64, 82
1, 887290, Control_c, 0, 64, 58
1, 887298, Note_off_c, 0, 65, 63
1, 887305, Control_c, 0, 64, 0
1, 887311, Note_on_c, 0, 66, 101
1, 887319, Note_on_c, 0, 70, 91
1, 887320, Note_on_c, 0, 73, 84
1, 887350, Control_c, 0, 64, 52
1, 887353, Note_off_c, 0, 70, 65
1, 887363, Note_off_c, 0, 66, 64
1, 887365, Control_c, 0, 64, 68
1, 887376, Note_off_c, 0, 73, 61
1, 887379, Control_c, 0, 64, 77
1, 887394, Control_c, 0, 64, 87
1, 887409, Control_c, 0, 64, 91
1, 887424, Control_c, 0, 64, 94
1, 887439, Control_c, 0, 64, 96
1, 887468, Control_c, 0, 64, 98
1, 887537, Note_on_c, 0, 70, 94
1, 887541, Note_on_c, 0, 66, 81
1, 887544, Note_on_c, 0, 65, 84
1, 887553, Note_off_c, 0, 66, 73
1, 887572, Note_off_c, 0, 70, 64
1, 887594, Control_c, 0, 64, 100
1, 887597, Note_off_c, 0, 65, 66
1, 887609, Control_c, 0, 64, 103
1, 887624, Control_c, 0, 64, 114
1, 887627, Note_on_c, 0, 66, 34
1, 887639, Control_c, 0, 64, 127
1, 887646, Note_on_c, 0, 62, 83
1, 887662, Note_off_c, 0, 66, 48
1, 887669, Note_off_c, 0, 62, 70
1, 887713, Control_c, 0, 64, 97
1, 887728, Control_c, 0, 64, 68
1, 887740, Note_on_c, 0, 37, 81
1, 887742, Control_c, 0, 64, 50
1, 887764, Note_off_c, 0, 37, 67
1, 887773, Control_c, 0, 64, 60
1, 887787, Note_on_c, 0, 89, 100
1, 887788, Control_c, 0, 64, 69
1, 887790, Note_on_c, 0, 77, 108
1, 887790, Note_on_c, 0, 82, 89
1, 887792, Note_on_c, 0, 85, 94
1, 887802, Control_c, 0, 64, 84
1, 887814, Note_off_c, 0, 77, 69
1, 887817, Control_c, 0, 64, 104
1, 887819, Note_off_c, 0, 89, 64
1, 887820, Note_on_c, 0, 61, 97
1, 887830, Note_off_c, 0, 85, 68
1, 887832, Control_c, 0, 64, 110
1, 887834, Note_off_c, 0, 82, 66
1, 887862, Control_c, 0, 64, 112
1, 887877, Note_off_c, 0, 61, 59
1, 887892, Control_c, 0, 64, 116
1, 887901, Poly_aftertouch_c, 0, 87, 0
1, 887907, Control_c, 0, 64, 119
1, 887922, Control_c, 0, 64, 127
1, 888014, Note_on_c, 0, 61, 83
1, 888018, Note_on_c, 0, 66, 88
1, 888028, Note_on_c, 0, 59, 78
1, 888032, Note_off_c, 0, 61, 73
1, 888038, Note_off_c, 0, 66, 72
1, 888085, Note_off_c, 0, 59, 63
1, 888116, Note_on_c, 0, 58, 89
1, 888116, Poly_aftertouch_c, 0, 67, 0
1, 888136, Note_off_c, 0, 58, 71
1, 888141, Poly_aftertouch_c, 0, 67, 0
1, 888203, Control_c, 0, 64, 101
1, 888217, Control_c, 0, 64, 65
1, 888218, Note_on_c, 0, 42, 71
1, 888232, Control_c, 0, 64, 0
1, 888233, Note_on_c, 0, 83, 93
1, 888234, Note_on_c, 0, 90, 94
1, 888238, Note_on_c, 0, 85, 89
1, 888238, Note_on_c, 0, 78, 99
1, 888241, Note_off_c, 0, 42, 58
1, 888256, Note_on_c, 0, 59, 101
1, 888262, Note_off_c, 0, 83, 63
1, 888262, Control_c, 0, 64, 39
1, 888266, Note_off_c, 0, 90, 67
1, 888268, Note_off_c, 0, 85, 67
1, 888273, Note_off_c, 0, 78, 63
1, 888277, Control_c, 0, 64, 61
1, 888292, Control_c, 0, 64, 74
1, 888292, Note_off_c, 0, 59, 69
1, 888306, Control_c, 0, 64, 89
1, 888329, Control_c, 0, 64, 102
1, 888344, Control_c, 0, 64, 104
1, 888474, Note_on_c, 0, 65, 47
1, 888491, Note_on_c, 0, 63, 81
1, 888497, Note_off_c, 0, 65, 59
1, 888553, Note_off_c, 0, 63, 57
1, 888580, Control_c, 0, 64, 106
1, 888610, Note_on_c, 0, 61, 63
1, 888615, Note_on_c, 0, 77, 93
1, 888616, Note_on_c, 0, 89, 93
1, 888622, Note_on_c, 0, 56, 72
1, 888624, Control_c, 0, 64, 89
1, 888640, Control_c, 0, 64, 69
1, 888642, Note_off_c, 0, 77, 66
1, 888649, Note_off_c, 0, 89, 65
1, 888655, Control_c, 0, 64, 51
1, 888670, Control_c, 0, 64, 48
1, 888676, Note_off_c, 0, 56, 64
1, 888685, Note_on_c, 0, 71, 97
1, 888685, Control_c, 0, 64, 55
1, 888685, Note_on_c, 0, 89, 85
1, 888688, Note_on_c, 0, 65, 83
1, 888692, Note_on_c, 0, 77, 98
1, 888700, Control_c, 0, 64, 63
1, 888704, Note_off_c, 0, 61, 62
1, 888710, Note_off_c, 0, 65, 70
1, 888711, Note_off_c, 0, 71, 66
1, 888714, Control_c, 0, 64, 71
1, 888717, Note_off_c, 0, 77, 69
1, 888720, Note_off_c, 0, 89, 66
1, 888729, Control_c, 0, 64, 78
1, 888744, Control_c, 0, 64, 80
1, 888833, Control_c, 0, 64, 80
1, 888921, Control_c, 0, 64, 81
1, 888966, Control_c, 0, 64, 80
1, 888969, Note_on_c, 0, 87, 93
1, 888972, Note_on_c, 0, 75, 94
1, 888974, Note_on_c, 0, 83, 87
1, 888981, Control_c, 0, 64, 76
1, 888994, Note_on_c, 0, 81, 60
1, 888995, Control_c, 0, 64, 63
1, 889010, Control_c, 0, 64, 36
1, 889025, Control_c, 0, 64, 0
1, 889103, Note_on_c, 0, 77, 72
1, 889121, Control_c, 0, 64, 55
1, 889136, Control_c, 0, 64, 66
1, 889151, Control_c, 0, 64, 70
1, 889166, Control_c, 0, 64, 73
1, 889180, Control_c, 0, 64, 76
1, 889183, Note_off_c, 0, 87, 61
1, 889195, Control_c, 0, 64, 80
1, 889198, Note_off_c, 0, 75, 58
1, 889210, Control_c, 0, 64, 83
1, 889212, Note_on_c, 0, 71, 77
1, 889213, Note_on_c, 0, 65, 53
1, 889222, Note_on_c, 0, 69, 67
1, 889225, Control_c, 0, 64, 87
1, 889227, Note_on_c, 0, 61, 52
1, 889240, Control_c, 0, 64, 89
1, 889242, Note_off_c, 0, 71, 63
1, 889244, Note_off_c, 0, 81, 49
1, 889254, Note_off_c, 0, 83, 54
1, 889254, Note_off_c, 0, 69, 62
1, 889254, Control_c, 0, 64, 91
1, 889268, Note_off_c, 0, 65, 59
1, 889269, Control_c, 0, 64, 92
1, 889277, Note_off_c, 0, 61, 61
1, 889284, Control_c, 0, 64, 93
1, 889299, Control_c, 0, 64, 94
1, 889314, Control_c, 0, 64, 95
1, 889329, Control_c, 0, 64, 96
1, 889373, Control_c, 0, 64, 98
1, 889400, Note_off_c, 0, 77, 20
1, 889449, Note_on_c, 0, 85, 96
1, 889454, Note_on_c, 0, 73, 87
1, 889490, Note_off_c, 0, 73, 63
1, 889496, Note_off_c, 0, 85, 65
1, 889552, Control_c, 0, 64, 100
1, 889554, Note_on_c, 0, 87, 95
1, 889555, Note_on_c, 0, 75, 91
1, 889567, Control_c, 0, 64, 104
1, 889582, Control_c, 0, 64, 120
1, 889585, Note_on_c, 0, 42, 76
1, 889597, Control_c, 0, 64, 127
1, 889597, Note_on_c, 0, 49, 80
1, 889619, Note_off_c, 0, 75, 60
1, 889621, Note_off_c, 0, 42, 65
1, 889631, Note_off_c, 0, 87, 64
1, 889656, Control_c, 0, 64, 84
1, 889659, Note_off_c, 0, 49, 62
1, 889670, Control_c, 0, 64, 60
1, 889682, Note_on_c, 0, 89, 93
1, 889685, Control_c, 0, 64, 39
1, 889687, Note_on_c, 0, 61, 97
1, 889691, Note_on_c, 0, 77, 82
1, 889691, Note_on_c, 0, 82, 78
1, 889699, Note_on_c, 0, 85, 71
1, 889700, Control_c, 0, 64, 46
1, 889715, Control_c, 0, 64, 59
1, 889727, Note_off_c, 0, 61, 67
1, 889730, Control_c, 0, 64, 70
1, 889744, Control_c, 0, 64, 83
1, 889758, Note_off_c, 0, 77, 62
1, 889759, Control_c, 0, 64, 96
1, 889774, Control_c, 0, 64, 99
1, 889784, Note_off_c, 0, 89, 61
1, 889788, Control_c, 0, 64, 102
1, 889826, Control_c, 0, 64, 104
1, 889876, Note_off_c, 0, 85, 61
1, 889904, Note_off_c, 0, 82, 62
1, 889929, Note_on_c, 0, 75, 85
1, 889931, Note_on_c, 0, 37, 81
1, 889931, Note_on_c, 0, 87, 83
1, 889952, Note_off_c, 0, 75, 67
1, 889956, Note_off_c, 0, 37, 65
1, 889961, Note_off_c, 0, 87, 58
1, 890018, Control_c, 0, 64, 106
1, 890022, Note_on_c, 0, 85, 92
1, 890024, Note_on_c, 0, 73, 89
1, 890048, Control_c, 0, 64, 109
1, 890050, Note_off_c, 0, 73, 61
1, 890063, Control_c, 0, 64, 115
1, 890077, Control_c, 0, 64, 127
1, 890087, Note_off_c, 0, 85, 62
1, 890128, Poly_aftertouch_c, 0, 82, 0
1, 890132, Note_on_c, 0, 87, 95
1, 890134, Note_on_c, 0, 78, 92
1, 890136, Note_on_c, 0, 75, 90
1, 890137, Poly_aftertouch_c, 0, 82, 0
1, 890148, Note_on_c, 0, 82, 44
1, 890155, Note_off_c, 0, 75, 68
1, 890169, Note_off_c, 0, 87, 65
1, 890173, Note_off_c, 0, 78, 55
1, 890190, Note_off_c, 0, 82, 61
1, 890368, Note_on_c, 0, 78, 82
1, 890379, Note_on_c, 0, 69, 95
1, 890379, Note_on_c, 0, 81, 91
1, 890384, Note_off_c, 0, 78, 67
1, 890407, Note_off_c, 0, 69, 64
1, 890408, Note_off_c, 0, 81, 63
1, 890479, Note_on_c, 0, 82, 95
1, 890483, Note_on_c, 0, 70, 95
1, 890508, Note_on_c, 0, 83, 59
1, 890512, Note_on_c, 0, 43, 84
1, 890521, Note_off_c, 0, 70, 64
1, 890527, Note_off_c, 0, 83, 62
1, 890527, Note_off_c, 0, 82, 60
1, 890535, Note_off_c, 0, 43, 67
1, 890575, Control_c, 0, 64, 81
1, 890590, Control_c, 0, 64, 50
1, 890605, Control_c, 0, 64, 0
1, 890614, Note_on_c, 0, 85, 100
1, 890617, Note_on_c, 0, 62, 89
1, 890617, Note_on_c, 0, 64, 95
1, 890620, Note_on_c, 0, 73, 95
1, 890620, Note_on_c, 0, 82, 88
1, 890634, Control_c, 0, 64, 43
1, 890649, Control_c, 0, 64, 65
1, 890656, Note_off_c, 0, 64, 66
1, 890661, Note_off_c, 0, 62, 67
1, 890664, Control_c, 0, 64, 76
1, 890679, Control_c, 0, 64, 92
1, 890693, Control_c, 0, 64, 100
1, 890708, Control_c, 0, 64, 105
1, 890723, Control_c, 0, 64, 108
1, 890731, Note_off_c, 0, 73, 60
1, 890733, Note_off_c, 0, 85, 60
1, 890756, Note_off_c, 0, 82, 60
1, 890847, Note_on_c, 0, 83, 94
1, 890850, Note_on_c, 0, 37, 75
1, 890859, Note_on_c, 0, 71, 75
1, 890883, Note_off_c, 0, 37, 65
1, 890885, Note_off_c, 0, 71, 66
1, 890900, Note_off_c, 0, 83, 58
1, 890945, Note_on_c, 0, 82, 88
1, 890951, Note_on_c, 0, 70, 84
1, 890959, Note_on_c, 0, 44, 87
1, 890966, Note_on_c, 0, 49, 77
1, 890986, Note_off_c, 0, 44, 67
1, 890990, Control_c, 0, 64, 114
1, 890995, Note_off_c, 0, 49, 68
1, 891005, Control_c, 0, 64, 127
1, 891010, Note_off_c, 0, 70, 63
1, 891024, Note_off_c, 0, 82, 61
1, 891034, Control_c, 0, 64, 102
1, 891050, Control_c, 0, 64, 71
1, 891065, Note_on_c, 0, 65, 99
1, 891065, Control_c, 0, 64, 41
1, 891071, Note_on_c, 0, 83, 91
1, 891076, Note_on_c, 0, 71, 86
1, 891080, Control_c, 0, 64, 0
1, 891103, Note_off_c, 0, 65, 68
1, 891110, Control_c, 0, 64, 48
1, 891112, Note_off_c, 0, 71, 65
1, 891124, Note_off_c, 0, 83, 64
1, 891124, Control_c, 0, 64, 66
1, 891139, Control_c, 0, 64, 74
1, 891154, Control_c, 0, 64, 82
1, 891169, Control_c, 0, 64, 84
1, 891184, Control_c, 0, 64, 84
1, 891198, Control_c, 0, 64, 85
1, 891316, Note_on_c, 0, 37, 77
1, 891327, Note_on_c, 0, 85, 91
1, 891332, Note_on_c, 0, 73, 88
1, 891341, Note_off_c, 0, 37, 65
1, 891354, Control_c, 0, 64, 85
1, 891359, Note_off_c, 0, 73, 63
1, 891371, Note_off_c, 0, 85, 60
1, 891384, Control_c, 0, 64, 86
1, 891398, Control_c, 0, 64, 88
1, 891413, Control_c, 0, 64, 91
1, 891428, Control_c, 0, 64, 93
1, 891430, Note_on_c, 0, 64, 95
1, 891435, Note_on_c, 0, 70, 95
1, 891436, Note_on_c, 0, 82, 95
1, 891442, Control_c, 0, 64, 94
1, 891457, Control_c, 0, 64, 95
1, 891475, Note_off_c, 0, 70, 63
1, 891477, Note_off_c, 0, 82, 66
1, 891487, Control_c, 0, 64, 94
1, 891502, Control_c, 0, 64, 87
1, 891517, Control_c, 0, 64, 68
1, 891517, Note_off_c, 0, 64, 60
1, 891532, Control_c, 0, 64, 36
1, 891536, Note_on_c, 0, 65, 90
1, 891538, Note_on_c, 0, 83, 97
1, 891546, Note_on_c, 0, 71, 85
1, 891547, Control_c, 0, 64, 0
1, 891547, Note_on_c, 0, 73, 83
1, 891606, Control_c, 0, 64, 47
1, 891609, Note_on_c, 0, 74, 18
1, 891621, Control_c, 0, 64, 64
1, 891636, Note_off_c, 0, 73, 60
1, 891636, Control_c, 0, 64, 71
1, 891650, Control_c, 0, 64, 75
1, 891657, Note_off_c, 0, 74, 37
1, 891665, Control_c, 0, 64, 78
1, 891669, Note_off_c, 0, 83, 56
1, 891680, Control_c, 0, 64, 80
1, 891684, Note_off_c, 0, 71, 60
1, 891695, Control_c, 0, 64, 82
1, 891710, Control_c, 0, 64, 84
1, 891715, Note_off_c, 0, 65, 62
1, 891724, Control_c, 0, 64, 84
1, 891739, Control_c, 0, 64, 85
1, 891786, Note_on_c, 0, 71, 83
1, 891786, Note_on_c, 0, 81, 79
1, 891788, Note_on_c, 0, 83, 73
1, 891797, Note_on_c, 0, 77, 68
1, 891808, Note_off_c, 0, 71, 70
1, 891813, Control_c, 0, 64, 85
1, 891844, Control_c, 0, 64, 86
1, 891845, Note_off_c, 0, 77, 57
1, 891859, Control_c, 0, 64, 88
1, 891863, Note_off_c, 0, 83, 55
1, 891873, Control_c, 0, 64, 91
1, 891888, Control_c, 0, 64, 96
1, 891890, Note_off_c, 0, 81, 59
1, 891890, Note_on_c, 0, 75, 94
1, 891903, Control_c, 0, 64, 104
1, 891918, Control_c, 0, 64, 127
1, 891948, Note_off_c, 0, 75, 65
1, 891992, Control_c, 0, 64, 82
1, 891998, Note_on_c, 0, 71, 96
1, 892000, Note_on_c, 0, 69, 85
1, 892003, Note_on_c, 0, 61, 78
1, 892004, Note_on_c, 0, 65, 70
1, 892007, Control_c, 0, 64, 54
1, 892021, Control_c, 0, 64, 0
1, 892051, Note_off_c, 0, 71, 64
1, 892051, Control_c, 0, 64, 49
1, 892073, Control_c, 0, 64, 68
1, 892080, Note_on_c, 0, 78, 32
1, 892081, Note_off_c, 0, 69, 65
1, 892088, Control_c, 0, 64, 84
1, 892098, Note_off_c, 0, 65, 62
1, 892100, Note_off_c, 0, 61, 63
1, 892103, Control_c, 0, 64, 114
1, 892117, Note_off_c, 0, 78, 47
1, 892118, Control_c, 0, 64, 127
1, 892238, Note_on_c, 0, 85, 99
1, 892240, Note_on_c, 0, 73, 100
1, 892281, Note_off_c, 0, 73, 65
1, 892301, Note_off_c, 0, 85, 62
1, 892373, Note_on_c, 0, 75, 101
1, 892374, Note_on_c, 0, 87, 98
1, 892419, Note_on_c, 0, 42, 73
1, 892441, Note_on_c, 0, 49, 80
1, 892465, Note_off_c, 0, 75, 63
1, 892473, Note_off_c, 0, 42, 61
1, 892477, Note_off_c, 0, 87, 58
1, 892512, Note_off_c, 0, 49, 64
1, 892546, Control_c, 0, 64, 83
1, 892560, Note_on_c, 0, 61, 99
1, 892561, Control_c, 0, 64, 51
1, 892566, Note_on_c, 0, 89, 99
1, 892567, Note_on_c, 0, 82, 66
1, 892569, Note_on_c, 0, 77, 100
1, 892572, Note_on_c, 0, 85, 96
1, 892576, Control_c, 0, 64, 40
1, 892590, Control_c, 0, 64, 51
1, 892600, Note_off_c, 0, 61, 70
1, 892605, Control_c, 0, 64, 63
1, 892620, Control_c, 0, 64, 75
1, 892636, Control_c, 0, 64, 95
1, 892639, Note_off_c, 0, 77, 64
1, 892651, Control_c, 0, 64, 127
1, 892658, Note_off_c, 0, 89, 57
1, 892742, Note_off_c, 0, 85, 58
1, 892788, Note_off_c, 0, 82, 63
1, 892806, Note_on_c, 0, 37, 87
1, 892826, Note_on_c, 0, 87, 86
1, 892828, Note_on_c, 0, 75, 83
1, 892843, Note_off_c, 0, 37, 68
1, 892849, Note_off_c, 0, 87, 63
1, 892853, Note_off_c, 0, 75, 65
1, 892917, Note_on_c, 0, 85, 89
1, 892918, Note_on_c, 0, 73, 86
1, 892957, Note_off_c, 0, 73, 59
1, 892983, Note_off_c, 0, 85, 61
1, 893028, Note_on_c, 0, 82, 82
1, 893029, Note_on_c, 0, 87, 91
1, 893031, Note_on_c, 0, 75, 91
1, 893032, Note_on_c, 0, 78, 89
1, 893055, Note_off_c, 0, 75, 66
1, 893058, Note_off_c, 0, 78, 58
1, 893064, Note_off_c, 0, 87, 58
1, 893070, Note_off_c, 0, 82, 60
1, 893249, Note_on_c, 0, 78, 83
1, 893255, Note_on_c, 0, 69, 91
1, 893257, Note_on_c, 0, 81, 87
1, 893266, Note_off_c, 0, 78, 72
1, 893281, Note_off_c, 0, 81, 64
1, 893292, Note_off_c, 0, 69, 61
1, 893356, Note_on_c, 0, 82, 90
1, 893356, Note_on_c, 0, 70, 92
1, 893362, Poly_aftertouch_c, 0, 73, 0
1, 893384, Note_on_c, 0, 83, 67
1, 893398, Note_off_c, 0, 70, 65
1, 893400, Note_off_c, 0, 83, 65
1, 893401, Note_on_c, 0, 43, 59
1, 893409, Note_off_c, 0, 82, 62
1, 893413, Note_on_c, 0, 41, 38
1, 893426, Note_off_c, 0, 43, 59
1, 893444, Control_c, 0, 64, 77
1, 893448, Note_off_c, 0, 41, 54
1, 893459, Control_c, 0, 64, 52
1, 893474, Control_c, 0, 64, 0
1, 893481, Note_on_c, 0, 64, 98
1, 893491, Note_on_c, 0, 85, 97
1, 893495, Note_on_c, 0, 73, 87
1, 893497, Note_on_c, 0, 82, 85
1, 893503, Control_c, 0, 64, 44
1, 893518, Control_c, 0, 64, 63
1, 893533, Control_c, 0, 64, 72
1, 893535, Note_off_c, 0, 64, 69
1, 893548, Control_c, 0, 64, 81
1, 893571, Control_c, 0, 64, 86
1, 893586, Control_c, 0, 64, 88
1, 893600, Control_c, 0, 64, 89
1, 893614, Note_off_c, 0, 73, 55
1, 893615, Control_c, 0, 64, 90
1, 893619, Note_off_c, 0, 85, 61
1, 893644, Control_c, 0, 64, 90
1, 893645, Note_off_c, 0, 82, 59
1, 893735, Note_on_c, 0, 83, 84
1, 893743, Note_on_c, 0, 71, 74
1, 893744, Note_on_c, 0, 37, 38
1, 893758, Note_on_c, 0, 81, 61
1, 893767, Note_off_c, 0, 71, 69
1, 893776, Note_off_c, 0, 81, 66
1, 893778, Control_c, 0, 64, 90
1, 893788, Note_off_c, 0, 37, 48
1, 893791, Note_off_c, 0, 83, 62
1, 893803, Poly_aftertouch_c, 0, 35, 127
1, 893833, Poly_aftertouch_c, 0, 35, 0
1, 893838, Note_on_c, 0, 82, 75
1, 893842, Poly_aftertouch_c, 0, 36, 0
1, 893846, Note_on_c, 0, 70, 82
1, 893851, Note_on_c, 0, 44, 84
1, 893854, Note_on_c, 0, 49, 85
1, 893867, Control_c, 0, 64, 90
1, 893869, Note_on_c, 0, 80, 50
1, 893875, Note_off_c, 0, 70, 60
1, 893884, Note_off_c, 0, 44, 66
1, 893891, Note_off_c, 0, 80, 62
1, 893897, Control_c, 0, 64, 91
1, 893899, Note_off_c, 0, 49, 61
1, 893910, Note_off_c, 0, 82, 60
1, 893911, Control_c, 0, 64, 90
1, 893926, Control_c, 0, 64, 81
1, 893941, Control_c, 0, 64, 62
1, 893956, Control_c, 0, 64, 0
1, 893960, Note_on_c, 0, 65, 95
1, 893971, Note_on_c, 0, 83, 92
1, 893975, Note_on_c, 0, 71, 88
1, 893997, Note_off_c, 0, 65, 65
1, 894004, Note_off_c, 0, 71, 63
1, 894015, Control_c, 0, 64, 31
1, 894018, Note_off_c, 0, 83, 63
1, 894030, Control_c, 0, 64, 49
1, 894045, Control_c, 0, 64, 59
1, 894060, Control_c, 0, 64, 61
1, 894075, Control_c, 0, 64, 60
1, 894134, Control_c, 0, 64, 61
1, 894149, Control_c, 0, 64, 62
1, 894163, Control_c, 0, 64, 62
1, 894178, Control_c, 0, 64, 64
1, 894193, Control_c, 0, 64, 66
1, 894208, Control_c, 0, 64, 68
1, 894223, Control_c, 0, 64, 69
1, 894224, Note_on_c, 0, 37, 76
1, 894226, Note_on_c, 0, 85, 88
1, 894236, Note_on_c, 0, 73, 79
1, 894238, Control_c, 0, 64, 71
1, 894250, Note_off_c, 0, 37, 65
1, 894253, Control_c, 0, 64, 72
1, 894256, Note_off_c, 0, 73, 68
1, 894263, Note_off_c, 0, 85, 61
1, 894268, Control_c, 0, 64, 73
1, 894283, Control_c, 0, 64, 74
1, 894298, Control_c, 0, 64, 76
1, 894320, Control_c, 0, 64, 77
1, 894334, Control_c, 0, 64, 78
1, 894346, Note_on_c, 0, 70, 87
1, 894349, Control_c, 0, 64, 79
1, 894350, Note_on_c, 0, 82, 81
1, 894359, Note_on_c, 0, 64, 78
1, 894364, Control_c, 0, 64, 79
1, 894393, Note_off_c, 0, 70, 58
1, 894403, Note_off_c, 0, 82, 62
1, 894423, Control_c, 0, 64, 74
1, 894438, Control_c, 0, 64, 62
1, 894453, Control_c, 0, 64, 33
1, 894463, Note_off_c, 0, 64, 60
1, 894468, Control_c, 0, 64, 0
1, 894471, Note_on_c, 0, 83, 83
1, 894475, Note_on_c, 0, 73, 72
1, 894486, Note_on_c, 0, 71, 70
1, 894486, Note_on_c, 0, 65, 64
1, 894511, Control_c, 0, 64, 42
1, 894526, Control_c, 0, 64, 58
1, 894540, Control_c, 0, 64, 65
1, 894555, Control_c, 0, 64, 69
1, 894558, Note_off_c, 0, 73, 61
1, 894570, Control_c, 0, 64, 72
1, 894584, Control_c, 0, 64, 73
1, 894599, Control_c, 0, 64, 75
1, 894614, Control_c, 0, 64, 76
1, 894621, Note_off_c, 0, 83, 54
1, 894629, Control_c, 0, 64, 77
1, 894643, Note_off_c, 0, 71, 59
1, 894644, Control_c, 0, 64, 78
1, 894674, Control_c, 0, 64, 79
1, 894714, Note_off_c, 0, 65, 61
1, 894742, Note_on_c, 0, 83, 70
1, 894751, Note_on_c, 0, 71, 64
1, 894756, Note_on_c, 0, 81, 62
1, 894757, Note_on_c, 0, 77, 62
1, 894772, Note_off_c, 0, 71, 62
1, 894778, Control_c, 0, 67, 37
1, 894792, Control_c, 0, 67, 55
1, 894807, Control_c, 0, 67, 71
1, 894822, Control_c, 0, 67, 81
1, 894837, Control_c, 0, 67, 85
1, 894838, Note_off_c, 0, 81, 42
1, 894850, Note_off_c, 0, 77, 51
1, 894852, Control_c, 0, 67, 85
1, 894853, Note_on_c, 0, 74, 73
1, 894866, Control_c, 0, 67, 85
1, 894879, Note_off_c, 0, 83, 39
1, 894881, Control_c, 0, 64, 79
1, 894881, Control_c, 0, 67, 83
1, 894896, Control_c, 0, 67, 82
1, 894911, Control_c, 0, 64, 80
1, 894911, Control_c, 0, 67, 80
1, 894915, Note_off_c, 0, 74, 63
1, 894926, Control_c, 0, 64, 80
1, 894926, Control_c, 0, 67, 78
1, 894940, Control_c, 0, 64, 80
1, 894940, Control_c, 0, 67, 77
1, 894955, Control_c, 0, 64, 77
1, 894955, Control_c, 0, 67, 75
1, 894970, Control_c, 0, 64, 66
1, 894970, Control_c, 0, 67, 73
1, 894984, Note_on_c, 0, 71, 68
1, 894984, Control_c, 0, 64, 51
1, 894984, Control_c, 0, 67, 71
1, 894986, Note_on_c, 0, 65, 49
1, 894987, Note_on_c, 0, 61, 55
1, 894999, Control_c, 0, 64, 38
1, 894999, Control_c, 0, 67, 70
1, 895014, Control_c, 0, 64, 42
1, 895014, Control_c, 0, 67, 69
1, 895030, Control_c, 0, 64, 54
1, 895030, Control_c, 0, 67, 68
1, 895045, Control_c, 0, 64, 64
1, 895045, Control_c, 0, 67, 68
1, 895065, Note_off_c, 0, 65, 60
1, 895067, Control_c, 0, 64, 72
1, 895067, Control_c, 0, 67, 67
1, 895076, Note_off_c, 0, 61, 62
1, 895082, Control_c, 0, 64, 79
1, 895082, Control_c, 0, 67, 66
1, 895097, Control_c, 0, 64, 84
1, 895097, Control_c, 0, 67, 65
1, 895112, Note_off_c, 0, 71, 61
1, 895112, Control_c, 0, 64, 87
1, 895112, Control_c, 0, 67, 64
1, 895127, Control_c, 0, 64, 89
1, 895127, Control_c, 0, 67, 64
1, 895142, Control_c, 0, 64, 90
1, 895142, Control_c, 0, 67, 62
1, 895156, Control_c, 0, 64, 91
1, 895156, Control_c, 0, 67, 61
1, 895171, Control_c, 0, 64, 91
1, 895186, Control_c, 0, 64, 92
1, 895186, Control_c, 0, 67, 60
1, 895201, Control_c, 0, 64, 92
1, 895201, Control_c, 0, 67, 60
1, 895215, Control_c, 0, 64, 93
1, 895215, Control_c, 0, 67, 58
1, 895230, Control_c, 0, 64, 93
1, 895230, Control_c, 0, 67, 57
1, 895245, Control_c, 0, 64, 94
1, 895245, Control_c, 0, 67, 56
1, 895260, Control_c, 0, 64, 94
1, 895260, Control_c, 0, 67, 58
1, 895261, Note_on_c, 0, 86, 78
1, 895268, Note_on_c, 0, 74, 63
1, 895270, Note_on_c, 0, 83, 61
1, 895275, Control_c, 0, 64, 96
1, 895275, Control_c, 0, 67, 61
1, 895278, Note_on_c, 0, 73, 63
1, 895278, Note_on_c, 0, 79, 53
1, 895287, Note_off_c, 0, 74, 62
1, 895289, Control_c, 0, 67, 64
1, 895294, Note_off_c, 0, 83, 61
1, 895300, Note_off_c, 0, 79, 59
1, 895304, Control_c, 0, 64, 98
1, 895304, Control_c, 0, 67, 66
1, 895319, Control_c, 0, 67, 67
1, 895329, Note_off_c, 0, 86, 65
1, 895334, Control_c, 0, 67, 68
1, 895349, Control_c, 0, 64, 100
1, 895349, Control_c, 0, 67, 69
1, 895363, Control_c, 0, 67, 70
1, 895378, Control_c, 0, 67, 70
1, 895387, Note_off_c, 0, 73, 54
1, 895393, Control_c, 0, 67, 71
1, 895407, Control_c, 0, 67, 72
1, 895422, Control_c, 0, 67, 73
1, 895428, Note_on_c, 0, 89, 89
1, 895431, Note_on_c, 0, 80, 59
1, 895432, Note_on_c, 0, 77, 75
1, 895437, Control_c, 0, 64, 103
1, 895437, Control_c, 0, 67, 73
1, 895451, Note_off_c, 0, 80, 65
1, 895452, Control_c, 0, 67, 73
1, 895466, Note_off_c, 0, 77, 64
1, 895467, Control_c, 0, 64, 106
1, 895467, Control_c, 0, 67, 71
1, 895482, Control_c, 0, 64, 108
1, 895482, Control_c, 0, 67, 69
1, 895496, Control_c, 0, 64, 112
1, 895496, Control_c, 0, 67, 67
1, 895511, Control_c, 0, 64, 118
1, 895511, Control_c, 0, 67, 64
1, 895514, Note_off_c, 0, 89, 59
1, 895526, Control_c, 0, 64, 127
1, 895526, Control_c, 0, 67, 62
1, 895541, Control_c, 0, 67, 60
1, 895556, Control_c, 0, 67, 58
1, 895571, Control_c, 0, 67, 57
1, 895586, Control_c, 0, 67, 56
1, 895601, Control_c, 0, 64, 98
1, 895601, Control_c, 0, 67, 55
1, 895605, Note_on_c, 0, 45, 67
1, 895609, Note_on_c, 0, 90, 87
1, 895615, Control_c, 0, 64, 72
1, 895615, Control_c, 0, 67, 54
1, 895620, Note_on_c, 0, 78, 70
1, 895625, Note_on_c, 0, 85, 67
1, 895630, Control_c, 0, 64, 56
1, 895645, Control_c, 0, 64, 48
1, 895645, Control_c, 0, 67, 54
1, 895660, Control_c, 0, 64, 50
1, 895660, Control_c, 0, 67, 54
1, 895675, Control_c, 0, 64, 56
1, 895689, Control_c, 0, 64, 64
1, 895698, Note_off_c, 0, 45, 61
1, 895704, Control_c, 0, 64, 70
1, 895707, Note_on_c, 0, 54, 70
1, 895719, Control_c, 0, 64, 77
1, 895733, Control_c, 0, 64, 80
1, 895733, Control_c, 0, 67, 53
1, 895748, Control_c, 0, 64, 82
1, 895748, Control_c, 0, 67, 52
1, 895753, Note_off_c, 0, 54, 59
1, 895763, Control_c, 0, 64, 85
1, 895763, Control_c, 0, 67, 51
1, 895766, Note_off_c, 0, 78, 35
1, 895775, Note_on_c, 0, 57, 72
1, 895777, Note_off_c, 0, 90, 63
1, 895778, Control_c, 0, 64, 87
1, 895778, Control_c, 0, 67, 49
1, 895793, Control_c, 0, 64, 88
1, 895793, Control_c, 0, 67, 48
1, 895811, Note_off_c, 0, 57, 65
1, 895815, Control_c, 0, 64, 92
1, 895815, Control_c, 0, 67, 47
1, 895830, Control_c, 0, 64, 94
1, 895830, Control_c, 0, 67, 41
1, 895836, Note_off_c, 0, 85, 63
1, 895845, Control_c, 0, 64, 96
1, 895845, Control_c, 0, 67, 0
1, 895869, Note_on_c, 0, 92, 88
1, 895870, Note_on_c, 0, 61, 75
1, 895873, Note_on_c, 0, 80, 78
1, 895875, Control_c, 0, 64, 98
1, 895896, Note_off_c, 0, 80, 67
1, 895907, Note_off_c, 0, 61, 59
1, 895909, Note_off_c, 0, 92, 66
1, 895938, Note_on_c, 0, 66, 80
1, 895980, Note_on_c, 0, 88, 77
1, 895984, Note_on_c, 0, 76, 68
1, 895992, Note_on_c, 0, 74, 71
1, 895999, Note_on_c, 0, 86, 53
1, 896009, Note_off_c, 0, 74, 66
1, 896009, Note_off_c, 0, 76, 68
1, 896009, Note_off_c, 0, 88, 63
1, 896013, Note_on_c, 0, 61, 66
1, 896020, Note_off_c, 0, 86, 61
1, 896021, Note_off_c, 0, 66, 64
1, 896024, Control_c, 0, 64, 100
1, 896038, Control_c, 0, 64, 108
1, 896039, Note_off_c, 0, 61, 65
1, 896053, Control_c, 0, 64, 127
1, 896056, Note_on_c, 0, 69, 81
1, 896075, Note_off_c, 0, 69, 71
1, 896092, Note_on_c, 0, 90, 93
1, 896093, Note_on_c, 0, 78, 87
1, 896114, Note_off_c, 0, 78, 62
1, 896129, Note_off_c, 0, 90, 60
1, 896227, Note_on_c, 0, 79, 83
1, 896230, Note_on_c, 0, 78, 75
1, 896239, Note_on_c, 0, 71, 64
1, 896253, Note_off_c, 0, 78, 66
1, 896254, Note_off_c, 0, 79, 61
1, 896257, Note_on_c, 0, 75, 36
1, 896267, Note_on_c, 0, 83, 91
1, 896268, Note_off_c, 0, 71, 65
1, 896271, Note_on_c, 0, 74, 85
1, 896289, Note_on_c, 0, 81, 52
1, 896289, Note_off_c, 0, 75, 44
1, 896291, Note_off_c, 0, 74, 69
1, 896309, Note_off_c, 0, 81, 61
1, 896309, Note_off_c, 0, 83, 61
1, 896320, Note_on_c, 0, 79, 78
1, 896322, Note_on_c, 0, 71, 72
1, 896332, Note_on_c, 0, 78, 73
1, 896340, Note_off_c, 0, 71, 66
1, 896352, Note_off_c, 0, 79, 61
1, 896352, Note_on_c, 0, 83, 73
1, 896353, Note_on_c, 0, 74, 86
1, 896357, Note_off_c, 0, 78, 64
1, 896362, Note_on_c, 0, 81, 84
1, 896373, Note_off_c, 0, 74, 69
1, 896391, Note_off_c, 0, 81, 60
1, 896393, Note_on_c, 0, 71, 89
1, 896395, Note_off_c, 0, 83, 64
1, 896396, Note_on_c, 0, 79, 81
1, 896402, Note_on_c, 0, 78, 93
1, 896414, Note_on_c, 0, 75, 54
1, 896418, Note_off_c, 0, 79, 67
1, 896427, Note_off_c, 0, 78, 58
1, 896429, Note_off_c, 0, 71, 64
1, 896432, Note_off_c, 0, 75, 61
1, 896459, Note_on_c, 0, 86, 93
1, 896465, Note_on_c, 0, 74, 88
1, 896532, Note_on_c, 0, 83, 80
1, 896550, Note_on_c, 0, 75, 34
1, 896561, Note_off_c, 0, 74, 55
1, 896564, Note_off_c, 0, 86, 60
1, 896589, Note_on_c, 0, 79, 80
1, 896590, Note_off_c, 0, 75, 31
1, 896617, Note_off_c, 0, 83, 65
1, 896636, Note_off_c, 0, 79, 64
1, 896667, Note_on_c, 0, 74, 95
1, 896667, Note_on_c, 0, 86, 97
1, 896671, Note_on_c, 0, 73, 80
1, 896673, Note_on_c, 0, 76, 81
1, 896700, Note_off_c, 0, 74, 66
1, 896705, Note_off_c, 0, 86, 66
1, 896738, Note_off_c, 0, 76, 55
1, 896746, Note_off_c, 0, 73, 64
1, 896755, Note_on_c, 0, 77, 86
1, 896775, Note_on_c, 0, 89, 93
1, 896803, Note_off_c, 0, 77, 70
1, 896808, Note_off_c, 0, 89, 65
1, 896876, Control_c, 0, 64, 92
1, 896885, Note_on_c, 0, 90, 107
1, 896888, Note_on_c, 0, 78, 109
1, 896891, Control_c, 0, 64, 65
1, 896893, Note_on_c, 0, 45, 83
1, 896893, Note_on_c, 0, 85, 94
1, 896906, Control_c, 0, 64, 43
1, 896921, Control_c, 0, 64, 39
1, 896935, Control_c, 0, 64, 47
1, 896950, Control_c, 0, 64, 64
1, 896960, Note_off_c, 0, 45, 60
1, 896962, Note_on_c, 0, 54, 78
1, 896965, Control_c, 0, 64, 77
1, 896979, Control_c, 0, 64, 105
1, 896994, Control_c, 0, 64, 127
1, 897009, Note_off_c, 0, 54, 62
1, 897020, Note_off_c, 0, 78, 55
1, 897032, Note_on_c, 0, 57, 69
1, 897035, Note_off_c, 0, 90, 61
1, 897060, Note_off_c, 0, 57, 66
1, 897087, Note_off_c, 0, 85, 63
1, 897113, Note_on_c, 0, 61, 76
1, 897120, Note_on_c, 0, 92, 94
1, 897121, Note_on_c, 0, 80, 92
1, 897151, Note_off_c, 0, 92, 70
1, 897153, Note_off_c, 0, 80, 64
1, 897165, Note_on_c, 0, 66, 85
1, 897172, Note_off_c, 0, 61, 62
1, 897219, Note_on_c, 0, 76, 99
1, 897221, Note_on_c, 0, 88, 93
1, 897243, Note_on_c, 0, 61, 68
1, 897251, Note_off_c, 0, 66, 65
1, 897252, Note_off_c, 0, 76, 63
1, 897252, Note_off_c, 0, 88, 68
1, 897282, Note_on_c, 0, 69, 87
1, 897297, Note_off_c, 0, 61, 61
1, 897310, Note_off_c, 0, 69, 67
1, 897332, Note_on_c, 0, 78, 104
1, 897333, Note_on_c, 0, 90, 105
1, 897367, Note_off_c, 0, 78, 64
1, 897367, Note_off_c, 0, 90, 69
1, 897461, Note_on_c, 0, 79, 90
1, 897461, Note_on_c, 0, 78, 84
1, 897465, Note_on_c, 0, 71, 85
1, 897479, Note_on_c, 0, 75, 64
1, 897486, Note_off_c, 0, 71, 67
1, 897488, Note_off_c, 0, 79, 61
1, 897491, Note_off_c, 0, 78, 54
1, 897497, Note_off_c, 0, 75, 61
1, 897499, Note_on_c, 0, 83, 96
1, 897506, Note_on_c, 0, 74, 90
1, 897517, Note_on_c, 0, 81, 72
1, 897526, Note_off_c, 0, 74, 68
1, 897532, Note_off_c, 0, 81, 67
1, 897537, Note_off_c, 0, 83, 64
1, 897551, Note_on_c, 0, 79, 82
1, 897554, Note_on_c, 0, 71, 74
1, 897557, Note_on_c, 0, 78, 79
1, 897562, Note_on_c, 0, 75, 66
1, 897580, Note_on_c, 0, 72, 38
1, 897585, Note_off_c, 0, 75, 71
1, 897586, Note_off_c, 0, 78, 59
1, 897588, Note_on_c, 0, 83, 89
1, 897588, Note_off_c, 0, 79, 64
1, 897594, Note_on_c, 0, 74, 86
1, 897595, Note_on_c, 0, 81, 81
1, 897596, Note_off_c, 0, 71, 62
1, 897609, Note_off_c, 0, 72, 33
1, 897613, Note_off_c, 0, 74, 71
1, 897631, Note_on_c, 0, 71, 69
1, 897634, Note_on_c, 0, 79, 81
1, 897637, Note_off_c, 0, 83, 65
1, 897639, Note_off_c, 0, 81, 64
1, 897649, Note_on_c, 0, 78, 68
1, 897660, Note_on_c, 0, 75, 63
1, 897664, Note_off_c, 0, 79, 64
1, 897672, Note_off_c, 0, 78, 62
1, 897678, Note_off_c, 0, 75, 62
1, 897681, Note_off_c, 0, 71, 63
1, 897699, Note_on_c, 0, 74, 100
1, 897700, Note_on_c, 0, 86, 101
1, 897770, Note_on_c, 0, 83, 83
1, 897776, Note_on_c, 0, 75, 53
1, 897796, Note_off_c, 0, 75, 62
1, 897807, Note_off_c, 0, 86, 62
1, 897814, Note_on_c, 0, 79, 85
1, 897816, Note_off_c, 0, 74, 54
1, 897851, Note_off_c, 0, 83, 62
1, 897853, Note_off_c, 0, 79, 66
1, 897900, Note_on_c, 0, 73, 89
1, 897903, Note_on_c, 0, 76, 87
1, 897914, Note_on_c, 0, 91, 107
1, 897915, Note_on_c, 0, 79, 103
1, 897917, Note_on_c, 0, 83, 105
1, 897977, Note_off_c, 0, 79, 58
1, 897993, Note_off_c, 0, 91, 66
1, 898020, Note_off_c, 0, 83, 65
1, 898021, Note_on_c, 0, 77, 94
1, 898039, Note_off_c, 0, 76, 62
1, 898058, Note_off_c, 0, 77, 69
1, 898060, Note_off_c, 0, 73, 61
1, 898098, Note_on_c, 0, 80, 109
1, 898099, Note_on_c, 0, 92, 104
1, 898124, Note_on_c, 0, 82, 61
1, 898142, Note_off_c, 0, 82, 64
1, 898187, Note_off_c, 0, 92, 63
1, 898194, Note_off_c, 0, 80, 53
1, 898219, Note_on_c, 0, 83, 88
1, 898262, Note_off_c, 0, 83, 68
1, 898316, Note_on_c, 0, 30, 40
1, 898354, Note_off_c, 0, 30, 56
1, 898355, Note_on_c, 0, 87, 60
1, 898372, Note_on_c, 0, 26, 92
1, 898372, Note_on_c, 0, 38, 103
1, 898385, Note_off_c, 0, 87, 68
1, 898389, Control_c, 0, 64, 82
1, 898404, Control_c, 0, 64, 44
1, 898406, Note_on_c, 0, 95, 112
1, 898409, Note_on_c, 0, 83, 108
1, 898410, Note_on_c, 0, 86, 102
1, 898418, Note_on_c, 0, 89, 97
1, 898419, Control_c, 0, 64, 0
1, 898423, Note_on_c, 0, 85, 62
1, 898423, Note_off_c, 0, 85, 127
1, 898436, Note_off_c, 0, 26, 65
1, 898459, Note_off_c, 0, 38, 65
1, 898463, Control_c, 0, 64, 58
1, 898468, Note_on_c, 0, 88, 8
1, 898468, Note_off_c, 0, 88, 127
1, 898478, Control_c, 0, 64, 82
1, 898493, Control_c, 0, 64, 127
1, 898501, Note_off_c, 0, 89, 63
1, 898543, Note_off_c, 0, 83, 57
1, 898567, Note_off_c, 0, 95, 0
1, 898580, Note_on_c, 0, 45, 74
1, 898585, Note_on_c, 0, 95, 30
1, 898616, Note_off_c, 0, 95, 47
1, 898646, Note_on_c, 0, 90, 25
1, 898652, Note_on_c, 0, 50, 68
1, 898653, Note_off_c, 0, 86, 57
1, 898686, Note_off_c, 0, 90, 39
1, 898692, Note_on_c, 0, 93, 92
1, 898698, Note_on_c, 0, 81, 94
1, 898712, Note_on_c, 0, 86, 61
1, 898716, Note_on_c, 0, 54, 79
1, 898726, Note_off_c, 0, 81, 66
1, 898743, Note_off_c, 0, 93, 66
1, 898749, Note_on_c, 0, 87, 18
1, 898771, Note_off_c, 0, 50, 57
1, 898783, Note_off_c, 0, 54, 61
1, 898787, Note_off_c, 0, 86, 0
1, 898792, Note_off_c, 0, 87, 31
1, 898802, Note_on_c, 0, 57, 78
1, 898805, Note_on_c, 0, 78, 98
1, 898805, Note_on_c, 0, 90, 94
1, 898812, Note_on_c, 0, 86, 50
1, 898844, Note_off_c, 0, 45, 61
1, 898854, Note_off_c, 0, 78, 59
1, 898871, Note_off_c, 0, 57, 62
1, 898883, Note_off_c, 0, 90, 63
1, 898907, Note_off_c, 0, 86, 0
1, 898914, Note_on_c, 0, 54, 18
1, 898919, Note_on_c, 0, 80, 99
1, 898921, Note_on_c, 0, 92, 104
1, 898945, Poly_aftertouch_c, 0, 86, 127
1, 898957, Note_off_c, 0, 54, 43
1, 898964, Note_on_c, 0, 64, 70
1, 898981, Note_off_c, 0, 64, 67
1, 899005, Note_on_c, 0, 57, 56
1, 899023, Note_off_c, 0, 80, 57
1, 899029, Note_off_c, 0, 92, 63
1, 899059, Note_on_c, 0, 66, 71
1, 899073, Poly_aftertouch_c, 0, 86, 0
1, 899128, Note_on_c, 0, 90, 91
1, 899132, Note_on_c, 0, 78, 97
1, 899135, Note_off_c, 0, 66, 60
1, 899157, Note_on_c, 0, 69, 66
1, 899169, Note_off_c, 0, 90, 68
1, 899170, Note_off_c, 0, 78, 62
1, 899177, Note_off_c, 0, 57, 58
1, 899193, Note_off_c, 0, 69, 0
1, 899210, Note_on_c, 0, 66, 74
1, 899230, Poly_aftertouch_c, 0, 69, 127
1, 899231, Note_on_c, 0, 74, 104
1, 899233, Note_on_c, 0, 86, 99
1, 899238, Note_off_c, 0, 66, 66
1, 899240, Poly_aftertouch_c, 0, 69, 0
1, 899268, Note_off_c, 0, 74, 67
1, 899282, Note_off_c, 0, 86, 66
1, 899342, Note_on_c, 0, 88, 92
1, 899342, Note_on_c, 0, 78, 95
1, 899345, Note_on_c, 0, 76, 93
1, 899356, Note_on_c, 0, 81, 76
1, 899395, Note_off_c, 0, 76, 58
1, 899410, Note_off_c, 0, 78, 58
1, 899442, Note_off_c, 0, 88, 51
1, 899457, Note_on_c, 0, 78, 78
1, 899457, Note_on_c, 0, 82, 40
1, 899485, Note_off_c, 0, 82, 49
1, 899485, Note_off_c, 0, 81, 60
1, 899532, Note_off_c, 0, 78, 62
1, 899569, Note_on_c, 0, 81, 91
1, 899575, Note_on_c, 0, 86, 88
1, 899579, Note_on_c, 0, 74, 93
1, 899584, Note_off_c, 0, 81, 75
1, 899614, Note_off_c, 0, 86, 66
1, 899616, Note_off_c, 0, 74, 67
1, 899682, Note_on_c, 0, 81, 92
1, 899685, Note_on_c, 0, 69, 96
1, 899722, Note_on_c, 0, 75, 41
1, 899734, Note_off_c, 0, 69, 59
1, 899746, Note_off_c, 0, 81, 64
1, 899761, Note_off_c, 0, 75, 59
1, 899781, Control_c, 0, 64, 84
1, 899795, Note_on_c, 0, 36, 77
1, 899796, Control_c, 0, 64, 59
1, 899802, Note_on_c, 0, 83, 95
1, 899803, Note_on_c, 0, 71, 84
1, 899804, Note_on_c, 0, 74, 79
1, 899811, Note_on_c, 0, 78, 73
1, 899811, Control_c, 0, 64, 0
1, 899827, Control_c, 0, 64, 29
1, 899830, Note_on_c, 0, 75, 25
1, 899842, Control_c, 0, 64, 44
1, 899857, Control_c, 0, 64, 63
1, 899871, Control_c, 0, 64, 76
1, 899881, Note_off_c, 0, 36, 61
1, 899886, Control_c, 0, 64, 94
1, 899890, Note_on_c, 0, 45, 78
1, 899901, Control_c, 0, 64, 105
1, 899916, Control_c, 0, 64, 108
1, 899931, Control_c, 0, 64, 111
1, 899932, Note_off_c, 0, 83, 61
1, 899934, Note_off_c, 0, 71, 60
1, 899945, Control_c, 0, 64, 114
1, 899946, Note_off_c, 0, 45, 61
1, 899959, Note_on_c, 0, 50, 75
1, 899962, Note_off_c, 0, 75, 18
1, 899975, Control_c, 0, 64, 117
1, 899982, Note_off_c, 0, 74, 63
1, 899983, Note_off_c, 0, 50, 67
1, 899986, Note_off_c, 0, 78, 59
1, 900004, Control_c, 0, 64, 119
1, 900035, Note_on_c, 0, 52, 67
1, 900036, Note_on_c, 0, 81, 86
1, 900048, Note_on_c, 0, 69, 78
1, 900070, Note_off_c, 0, 69, 69
1, 900078, Control_c, 0, 64, 122
1, 900079, Note_off_c, 0, 81, 64
1, 900084, Note_off_c, 0, 52, 56
1, 900090, Note_on_c, 0, 54, 69
1, 900093, Control_c, 0, 64, 127
1, 900137, Note_on_c, 0, 78, 88
1, 900141, Note_on_c, 0, 66, 93
1, 900173, Note_off_c, 0, 54, 58
1, 900179, Note_on_c, 0, 57, 75
1, 900182, Note_off_c, 0, 66, 64
1, 900197, Note_off_c, 0, 78, 57
1, 900242, Control_c, 0, 64, 89
1, 900244, Note_off_c, 0, 57, 62
1, 900254, Note_on_c, 0, 79, 91
1, 900257, Control_c, 0, 64, 62
1, 900257, Note_on_c, 0, 67, 88
1, 900257, Note_on_c, 0, 72, 59
1, 900260, Note_on_c, 0, 74, 86
1, 900271, Note_on_c, 0, 62, 69
1, 900271, Control_c, 0, 64, 0
1, 900308, Control_c, 0, 64, 30
1, 900323, Control_c, 0, 64, 55
1, 900334, Note_off_c, 0, 62, 62
1, 900337, Control_c, 0, 64, 68
1, 900352, Control_c, 0, 64, 77
1, 900362, Note_off_c, 0, 67, 61
1, 900367, Control_c, 0, 64, 84
1, 900368, Note_on_c, 0, 57, 67
1, 900368, Note_off_c, 0, 79, 61
1, 900382, Control_c, 0, 64, 86
1, 900397, Control_c, 0, 64, 88
1, 900412, Control_c, 0, 64, 91
1, 900427, Control_c, 0, 64, 92
1, 900442, Control_c, 0, 64, 93
1, 900445, Note_off_c, 0, 57, 63
1, 900454, Note_on_c, 0, 60, 61
1, 900457, Control_c, 0, 64, 95
1, 900460, Note_off_c, 0, 74, 59
1, 900486, Control_c, 0, 64, 97
1, 900489, Note_off_c, 0, 72, 62
1, 900512, Note_on_c, 0, 66, 79
1, 900513, Note_on_c, 0, 78, 79
1, 900513, Note_off_c, 0, 60, 64
1, 900516, Note_on_c, 0, 61, 67
1, 900531, Control_c, 0, 64, 99
1, 900543, Note_off_c, 0, 66, 61
1, 900545, Note_off_c, 0, 78, 57
1, 900561, Control_c, 0, 64, 102
1, 900576, Control_c, 0, 64, 104
1, 900582, Note_off_c, 0, 61, 62
1, 900605, Control_c, 0, 64, 107
1, 900627, Note_on_c, 0, 62, 81
1, 900631, Note_on_c, 0, 74, 88
1, 900636, Control_c, 0, 64, 111
1, 900650, Control_c, 0, 64, 114
1, 900665, Control_c, 0, 64, 118
1, 900680, Control_c, 0, 64, 122
1, 900691, Note_off_c, 0, 74, 61
1, 900710, Control_c, 0, 64, 118
1, 900725, Control_c, 0, 64, 93
1, 900731, Note_off_c, 0, 62, 59
1, 900740, Control_c, 0, 64, 72
1, 900754, Control_c, 0, 64, 56
1, 900764, Note_on_c, 0, 76, 84
1, 900766, Note_on_c, 0, 66, 69
1, 900769, Control_c, 0, 64, 48
1, 900782, Note_on_c, 0, 64, 65
1, 900784, Control_c, 0, 64, 51
1, 900791, Note_on_c, 0, 69, 60
1, 900799, Control_c, 0, 64, 58
1, 900814, Control_c, 0, 64, 65
1, 900828, Note_off_c, 0, 64, 55
1, 900828, Control_c, 0, 64, 73
1, 900843, Control_c, 0, 64, 79
1, 900858, Control_c, 0, 64, 82
1, 900873, Control_c, 0, 64, 84
1, 900888, Control_c, 0, 64, 86
1, 900902, Control_c, 0, 64, 87
1, 900917, Control_c, 0, 64, 90
1, 900932, Control_c, 0, 64, 93
1, 900936, Note_off_c, 0, 69, 56
1, 900945, Note_off_c, 0, 76, 54
1, 900946, Control_c, 0, 64, 97
1, 900961, Control_c, 0, 64, 100
1, 900966, Note_on_c, 0, 64, 56
1, 900976, Control_c, 0, 64, 104
1, 900991, Control_c, 0, 64, 108
1, 901006, Control_c, 0, 64, 112
1, 901020, Control_c, 0, 64, 118
1, 901035, Control_c, 0, 64, 127
1, 901038, Note_off_c, 0, 64, 62
1, 901079, Note_on_c, 0, 65, 56
1, 901082, Note_on_c, 0, 60, 56
1, 901117, Control_c, 0, 64, 124
1, 901121, Note_off_c, 0, 66, 31
1, 901132, Control_c, 0, 64, 82
1, 901142, Note_on_c, 0, 74, 79
1, 901147, Control_c, 0, 64, 60
1, 901157, Note_on_c, 0, 62, 57
1, 901161, Control_c, 0, 64, 0
1, 901221, Control_c, 0, 64, 31
1, 901230, Note_off_c, 0, 62, 56
1, 901230, Note_off_c, 0, 65, 60
1, 901235, Control_c, 0, 64, 53
1, 901250, Control_c, 0, 64, 63
1, 901265, Control_c, 0, 64, 68
1, 901280, Control_c, 0, 64, 72
1, 901295, Control_c, 0, 64, 76
1, 901298, Note_on_c, 0, 66, 59
1, 901309, Control_c, 0, 64, 81
1, 901324, Control_c, 0, 64, 89
1, 901339, Control_c, 0, 64, 97
1, 901341, Note_off_c, 0, 66, 57
1, 901354, Control_c, 0, 64, 103
1, 901369, Control_c, 0, 64, 109
1, 901384, Control_c, 0, 64, 118
1, 901399, Control_c, 0, 64, 127
1, 901427, Note_on_c, 0, 66, 67
1, 901456, Note_off_c, 0, 66, 66
1, 901483, Note_off_c, 0, 60, 63
1, 901526, Note_on_c, 0, 69, 70
1, 901567, Note_off_c, 0, 74, 62
1, 901614, Note_off_c, 0, 69, 62
1, 901846, Note_on_c, 0, 37, 73
1, 901896, Control_c, 0, 64, 96
1, 901910, Control_c, 0, 64, 70
1, 901910, Control_c, 0, 66, 127
1, 901925, Control_c, 0, 64, 46
1, 901940, Control_c, 0, 64, 0
1, 901968, Note_on_c, 0, 66, 74
1, 901999, Note_on_c, 0, 64, 48
1, 901999, Control_c, 0, 64, 31
1, 902014, Control_c, 0, 64, 44
1, 902029, Control_c, 0, 64, 56
1, 902044, Control_c, 0, 64, 63
1, 902048, Poly_aftertouch_c, 0, 57, 127
1, 902058, Control_c, 0, 64, 66
1, 902073, Control_c, 0, 64, 67
1, 902088, Note_off_c, 0, 37, 61
1, 902088, Control_c, 0, 64, 68
1, 902102, Control_c, 0, 64, 69
1, 902117, Control_c, 0, 64, 70
1, 902132, Control_c, 0, 64, 71
1, 902147, Control_c, 0, 64, 71
1, 902152, Note_on_c, 0, 61, 60
1, 902159, Poly_aftertouch_c, 0, 57, 0
1, 902162, Control_c, 0, 64, 72
1, 902177, Control_c, 0, 64, 72
1, 902192, Control_c, 0, 64, 73
1, 902207, Note_off_c, 0, 61, 59
1, 902222, Control_c, 0, 64, 73
1, 902238, Note_off_c, 0, 64, 37
1, 902248, Note_on_c, 0, 54, 75
1, 902297, Note_off_c, 0, 66, 57
1, 902311, Note_on_c, 0, 61, 59
1, 902368, Note_off_c, 0, 61, 52
1, 902369, Note_on_c, 0, 57, 55
1, 902389, Note_on_c, 0, 56, 90
1, 902404, Note_off_c, 0, 54, 55
1, 902413, Note_off_c, 0, 57, 56
1, 902445, Control_c, 0, 64, 72
1, 902460, Control_c, 0, 64, 65
1, 902474, Control_c, 0, 64, 51
1, 902489, Control_c, 0, 64, 0
1, 902524, Note_on_c, 0, 57, 84
1, 902552, Note_off_c, 0, 56, 60
1, 902592, Note_on_c, 0, 66, 56
1, 902600, Control_c, 0, 64, 40
1, 902615, Control_c, 0, 64, 55
1, 902618, Note_on_c, 0, 60, 38
1, 902630, Control_c, 0, 64, 62
1, 902645, Control_c, 0, 64, 64
1, 902660, Control_c, 0, 64, 64
1, 902670, Note_off_c, 0, 60, 58
1, 902674, Control_c, 0, 64, 66
1, 902688, Note_on_c, 0, 61, 57
1, 902689, Control_c, 0, 64, 68
1, 902704, Control_c, 0, 64, 71
1, 902718, Control_c, 0, 64, 73
1, 902720, Note_off_c, 0, 61, 65
1, 902725, Note_off_c, 0, 66, 54
1, 902732, Control_c, 0, 64, 74
1, 902756, Note_off_c, 0, 57, 65
1, 902774, Note_on_c, 0, 60, 86
1, 902777, Control_c, 0, 64, 73
1, 902791, Control_c, 0, 64, 66
1, 902806, Control_c, 0, 64, 51
1, 902821, Control_c, 0, 64, 0
1, 902856, Note_on_c, 0, 69, 57
1, 902866, Control_c, 0, 64, 30
1, 902867, Note_on_c, 0, 65, 26
1, 902880, Control_c, 0, 64, 48
1, 902883, Note_on_c, 0, 61, 91
1, 902895, Note_off_c, 0, 60, 59
1, 902895, Control_c, 0, 64, 58
1, 902897, Note_off_c, 0, 69, 62
1, 902910, Control_c, 0, 64, 62
1, 902923, Note_off_c, 0, 65, 48
1, 902925, Control_c, 0, 64, 64
1, 902931, Note_on_c, 0, 66, 66
1, 902940, Control_c, 0, 64, 64
1, 902962, Note_off_c, 0, 66, 67
1, 902984, Control_c, 0, 64, 63
1, 902999, Control_c, 0, 64, 54
1, 903014, Control_c, 0, 64, 29
1, 903018, Note_off_c, 0, 61, 65
1, 903020, Note_on_c, 0, 64, 91
1, 903029, Control_c, 0, 64, 0
1, 903110, Note_on_c, 0, 73, 57
1, 903134, Control_c, 0, 64, 43
1, 903148, Control_c, 0, 64, 57
1, 903156, Note_on_c, 0, 67, 30
1, 903163, Control_c, 0, 64, 61
1, 903178, Control_c, 0, 64, 62
1, 903193, Control_c, 0, 64, 62
1, 903200, Note_off_c, 0, 73, 61
1, 903208, Control_c, 0, 64, 63
1, 903212, Note_on_c, 0, 68, 59
1, 903221, Note_off_c, 0, 67, 42
1, 903237, Control_c, 0, 64, 64
1, 903247, Note_off_c, 0, 68, 62
1, 903305, Note_on_c, 0, 62, 81
1, 903309, Note_off_c, 0, 64, 64
1, 903378, Note_on_c, 0, 69, 54
1, 903379, Note_on_c, 0, 65, 48
1, 903408, Control_c, 0, 64, 64
1, 903411, Note_on_c, 0, 61, 85
1, 903415, Note_off_c, 0, 62, 63
1, 903422, Control_c, 0, 64, 65
1, 903429, Note_off_c, 0, 69, 58
1, 903433, Note_off_c, 0, 65, 42
1, 903437, Control_c, 0, 64, 66
1, 903452, Control_c, 0, 64, 66
1, 903464, Note_on_c, 0, 66, 63
1, 903465, Note_off_c, 0, 61, 66
1, 903482, Control_c, 0, 64, 65
1, 903493, Note_off_c, 0, 66, 60
1, 903497, Control_c, 0, 64, 58
1, 903512, Control_c, 0, 64, 42
1, 903527, Control_c, 0, 64, 0
1, 903534, Note_on_c, 0, 59, 77
1, 903539, Note_on_c, 0, 49, 73
1, 903571, Control_c, 0, 64, 33
1, 903586, Control_c, 0, 64, 48
1, 903601, Control_c, 0, 64, 56
1, 903615, Control_c, 0, 64, 60
1, 903616, Note_on_c, 0, 68, 51
1, 903617, Note_off_c, 0, 49, 60
1, 903618, Note_on_c, 0, 62, 45
1, 903630, Control_c, 0, 64, 62
1, 903652, Note_off_c, 0, 59, 56
1, 903663, Note_off_c, 0, 68, 56
1, 903685, Note_on_c, 0, 61, 82
1, 903691, Note_off_c, 0, 62, 60
1, 903694, Note_on_c, 0, 66, 52
1, 903719, Control_c, 0, 64, 61
1, 903730, Note_off_c, 0, 66, 60
1, 903734, Control_c, 0, 64, 61
1, 903794, Note_on_c, 0, 62, 62
1, 903800, Note_off_c, 0, 61, 61
1, 903803, Note_on_c, 0, 68, 48
1, 903843, Note_off_c, 0, 68, 64
1, 903875, Note_off_c, 0, 62, 63
1, 903898, Note_on_c, 0, 64, 55
1, 903898, Control_c, 0, 64, 60
1, 903900, Note_on_c, 0, 59, 89
1, 903913, Control_c, 0, 64, 58
1, 903927, Control_c, 0, 64, 52
1, 903929, Note_off_c, 0, 64, 61
1, 903942, Control_c, 0, 64, 42
1, 903957, Control_c, 0, 64, 0
1, 903998, Note_off_c, 0, 59, 63
1, 904012, Note_on_c, 0, 61, 83
1, 904068, Control_c, 0, 64, 44
1, 904083, Control_c, 0, 64, 56
1, 904098, Control_c, 0, 64, 62
1, 904112, Note_on_c, 0, 68, 47
1, 904113, Control_c, 0, 64, 63
1, 904123, Note_on_c, 0, 57, 39
1, 904127, Control_c, 0, 64, 64
1, 904142, Control_c, 0, 64, 65
1, 904146, Note_on_c, 0, 65, 19
1, 904147, Note_off_c, 0, 61, 57
1, 904154, Note_off_c, 0, 68, 57
1, 904156, Note_off_c, 0, 57, 53
1, 904157, Control_c, 0, 64, 66
1, 904171, Control_c, 0, 64, 67
1, 904183, Note_on_c, 0, 66, 66
1, 904186, Control_c, 0, 64, 69
1, 904197, Note_off_c, 0, 65, 45
1, 904201, Control_c, 0, 64, 70
1, 904203, Poly_aftertouch_c, 0, 59, 0
1, 904216, Control_c, 0, 64, 71
1, 904252, Note_on_c, 0, 60, 90
1, 904253, Note_off_c, 0, 66, 60
1, 904275, Control_c, 0, 64, 70
1, 904290, Control_c, 0, 64, 69
1, 904305, Control_c, 0, 64, 62
1, 904320, Control_c, 0, 64, 49
1, 904335, Control_c, 0, 64, 0
1, 904336, Note_on_c, 0, 69, 67
1, 904337, Note_on_c, 0, 65, 56
1, 904368, Note_on_c, 0, 61, 91
1, 904371, Note_off_c, 0, 60, 65
1, 904391, Note_off_c, 0, 69, 61
1, 904399, Note_off_c, 0, 65, 47
1, 904428, Note_on_c, 0, 66, 61
1, 904449, Note_off_c, 0, 66, 65
1, 904487, Note_on_c, 0, 64, 97
1, 904490, Note_off_c, 0, 61, 65
1, 904527, Control_c, 0, 64, 30
1, 904542, Control_c, 0, 64, 46
1, 904557, Control_c, 0, 64, 53
1, 904565, Note_on_c, 0, 73, 64
1, 904571, Control_c, 0, 64, 57
1, 904586, Control_c, 0, 64, 60
1, 904594, Note_on_c, 0, 67, 33
1, 904601, Control_c, 0, 64, 62
1, 904617, Control_c, 0, 64, 64
1, 904632, Control_c, 0, 64, 66
1, 904647, Control_c, 0, 64, 68
1, 904657, Note_on_c, 0, 68, 65
1, 904661, Note_off_c, 0, 73, 58
1, 904662, Control_c, 0, 64, 71
1, 904676, Control_c, 0, 64, 74
1, 904691, Control_c, 0, 64, 76
1, 904706, Control_c, 0, 64, 77
1, 904707, Note_off_c, 0, 64, 60
1, 904714, Note_off_c, 0, 68, 61
1, 904731, Note_off_c, 0, 67, 36
1, 904735, Control_c, 0, 64, 70
1, 904740, Note_on_c, 0, 62, 93
1, 904750, Control_c, 0, 64, 58
1, 904765, Control_c, 0, 64, 37
1, 904780, Control_c, 0, 64, 31
1, 904802, Control_c, 0, 64, 36
1, 904817, Control_c, 0, 64, 53
1, 904832, Control_c, 0, 64, 63
1, 904833, Note_on_c, 0, 65, 49
1, 904840, Note_on_c, 0, 69, 59
1, 904847, Control_c, 0, 64, 67
1, 904862, Control_c, 0, 64, 71
1, 904876, Note_off_c, 0, 62, 64
1, 904876, Control_c, 0, 64, 72
1, 904878, Note_off_c, 0, 65, 45
1, 904891, Control_c, 0, 64, 73
1, 904901, Note_on_c, 0, 61, 90
1, 904905, Note_off_c, 0, 69, 59
1, 904906, Control_c, 0, 64, 74
1, 904935, Control_c, 0, 64, 74
1, 904943, Note_off_c, 0, 61, 65
1, 904965, Control_c, 0, 64, 75
1, 904980, Control_c, 0, 64, 75
1, 904994, Control_c, 0, 64, 76
1, 905003, Note_on_c, 0, 49, 87
1, 905009, Control_c, 0, 64, 77
1, 905020, Poly_aftertouch_c, 0, 66, 0
1, 905024, Control_c, 0, 64, 77
1, 905035, Note_off_c, 0, 49, 63
1, 905039, Control_c, 0, 64, 78
1, 905054, Control_c, 0, 64, 78
1, 905116, Note_on_c, 0, 66, 94
1, 905128, Control_c, 0, 64, 77
1, 905143, Control_c, 0, 64, 68
1, 905158, Control_c, 0, 64, 55
1, 905172, Control_c, 0, 64, 0
1, 905232, Control_c, 0, 64, 36
1, 905247, Control_c, 0, 64, 48
1, 905262, Control_c, 0, 64, 58
1, 905267, Note_on_c, 0, 69, 56
1, 905271, Note_on_c, 0, 72, 53
1, 905276, Control_c, 0, 64, 63
1, 905291, Control_c, 0, 64, 63
1, 905320, Control_c, 0, 64, 64
1, 905363, Note_off_c, 0, 72, 58
1, 905369, Note_off_c, 0, 69, 49
1, 905388, Note_on_c, 0, 73, 57
1, 905429, Note_off_c, 0, 73, 58
1, 905470, Control_c, 0, 64, 63
1, 905479, Note_on_c, 0, 65, 78
1, 905484, Control_c, 0, 64, 62
1, 905499, Control_c, 0, 64, 61
1, 905510, Note_off_c, 0, 66, 61
1, 905514, Control_c, 0, 64, 60
1, 905529, Control_c, 0, 64, 59
1, 905551, Control_c, 0, 64, 59
1, 905563, Note_on_c, 0, 74, 62
1, 905566, Control_c, 0, 64, 58
1, 905581, Control_c, 0, 64, 58
1, 905583, Note_on_c, 0, 68, 52
1, 905611, Control_c, 0, 64, 57
1, 905624, Note_off_c, 0, 74, 59
1, 905640, Control_c, 0, 64, 57
1, 905649, Note_on_c, 0, 64, 82
1, 905660, Note_on_c, 0, 73, 59
1, 905661, Note_off_c, 0, 68, 56
1, 905670, Control_c, 0, 64, 56
1, 905670, Note_off_c, 0, 65, 58
1, 905685, Control_c, 0, 64, 56
1, 905697, Note_off_c, 0, 73, 60
1, 905714, Control_c, 0, 64, 55
1, 905729, Control_c, 0, 64, 55
1, 905743, Control_c, 0, 64, 54
1, 905760, Note_on_c, 0, 63, 89
1, 905788, Control_c, 0, 64, 54
1, 905789, Note_off_c, 0, 64, 62
1, 905803, Control_c, 0, 64, 53
1, 905806, Note_on_c, 0, 68, 43
1, 905817, Note_on_c, 0, 71, 60
1, 905817, Control_c, 0, 64, 53
1, 905832, Control_c, 0, 64, 52
1, 905847, Control_c, 0, 64, 51
1, 905862, Control_c, 0, 64, 49
1, 905876, Control_c, 0, 64, 48
1, 905878, Note_off_c, 0, 71, 60
1, 905884, Note_off_c, 0, 68, 41
1, 905888, Note_on_c, 0, 59, 78
1, 905891, Note_on_c, 0, 69, 61
1, 905891, Control_c, 0, 64, 47
1, 905895, Note_off_c, 0, 63, 62
1, 905906, Control_c, 0, 64, 47
1, 905920, Note_off_c, 0, 69, 65
1, 905921, Control_c, 0, 64, 45
1, 905936, Control_c, 0, 64, 44
1, 905950, Control_c, 0, 64, 43
1, 905965, Control_c, 0, 64, 41
1, 905980, Control_c, 0, 64, 40
1, 905995, Control_c, 0, 64, 39
1, 906010, Control_c, 0, 64, 38
1, 906011, Note_on_c, 0, 60, 83
1, 906013, Note_off_c, 0, 59, 64
1, 906025, Control_c, 0, 64, 36
1, 906036, Note_on_c, 0, 69, 58
1, 906040, Control_c, 0, 64, 33
1, 906055, Control_c, 0, 64, 31
1, 906062, Note_on_c, 0, 65, 29
1, 906069, Control_c, 0, 64, 0
1, 906081, Note_off_c, 0, 69, 58
1, 906114, Note_off_c, 0, 65, 50
1, 906119, Note_on_c, 0, 61, 84
1, 906126, Note_off_c, 0, 60, 66
1, 906131, Note_on_c, 0, 66, 65
1, 906161, Note_off_c, 0, 66, 67
1, 906245, Note_on_c, 0, 64, 79
1, 906253, Note_off_c, 0, 61, 61
1, 906339, Note_on_c, 0, 73, 51
1, 906361, Note_on_c, 0, 67, 22
1, 906411, Note_off_c, 0, 73, 59
1, 906431, Note_on_c, 0, 68, 54
1, 906470, Note_off_c, 0, 67, 40
1, 906474, Note_off_c, 0, 68, 58
1, 906537, Note_on_c, 0, 62, 77
1, 906555, Note_off_c, 0, 64, 59
1, 906566, Control_c, 0, 64, 33
1, 906581, Control_c, 0, 64, 37
1, 906596, Control_c, 0, 64, 41
1, 906603, Note_on_c, 0, 69, 51
1, 906609, Note_on_c, 0, 65, 30
1, 906611, Control_c, 0, 64, 45
1, 906626, Control_c, 0, 64, 48
1, 906640, Control_c, 0, 64, 53
1, 906648, Note_on_c, 0, 61, 82
1, 906651, Note_off_c, 0, 62, 62
1, 906654, Note_off_c, 0, 69, 59
1, 906655, Control_c, 0, 64, 55
1, 906668, Note_off_c, 0, 65, 41
1, 906670, Control_c, 0, 64, 56
1, 906683, Note_on_c, 0, 66, 61
1, 906699, Note_off_c, 0, 61, 65
1, 906714, Control_c, 0, 64, 55
1, 906717, Note_off_c, 0, 66, 64
1, 906729, Control_c, 0, 64, 54
1, 906744, Control_c, 0, 64, 53
1, 906773, Control_c, 0, 64, 54
1, 906774, Note_on_c, 0, 59, 78
1, 906779, Note_on_c, 0, 49, 73
1, 906788, Control_c, 0, 64, 54
1, 906803, Control_c, 0, 64, 55
1, 906818, Control_c, 0, 64, 55
1, 906833, Control_c, 0, 64, 56
1, 906839, Note_off_c, 0, 49, 59
1, 906848, Control_c, 0, 64, 57
1, 906863, Control_c, 0, 64, 57
1, 906878, Control_c, 0, 64, 58
1, 906892, Control_c, 0, 64, 59
1, 906895, Note_on_c, 0, 68, 54
1, 906897, Poly_aftertouch_c, 0, 62, 127
1, 906907, Control_c, 0, 64, 60
1, 906922, Control_c, 0, 64, 61
1, 906923, Note_off_c, 0, 59, 59
1, 906927, Note_on_c, 0, 61, 74
1, 906937, Control_c, 0, 64, 62
1, 906939, Note_off_c, 0, 68, 57
1, 906952, Control_c, 0, 64, 63
1, 906953, Poly_aftertouch_c, 0, 62, 0
1, 906966, Control_c, 0, 64, 64
1, 906981, Control_c, 0, 64, 64
1, 907028, Note_off_c, 0, 61, 63
1, 907054, Note_on_c, 0, 59, 77
1, 907140, Note_off_c, 0, 59, 52
1, 907152, Note_on_c, 0, 58, 75
1, 907201, Note_on_c, 0, 66, 56
1, 907241, Note_off_c, 0, 66, 61
1, 907256, Control_c, 0, 64, 63
1, 907270, Control_c, 0, 64, 59
1, 907272, Note_off_c, 0, 58, 59
1, 907282, Note_on_c, 0, 59, 69
1, 907285, Control_c, 0, 64, 52
1, 907300, Control_c, 0, 64, 42
1, 907314, Control_c, 0, 64, 0
1, 907374, Control_c, 0, 64, 30
1, 907388, Control_c, 0, 64, 40
1, 907403, Control_c, 0, 64, 50
1, 907418, Control_c, 0, 64, 58
1, 907433, Control_c, 0, 64, 62
1, 907448, Control_c, 0, 64, 63
1, 907462, Control_c, 0, 64, 64
1, 907465, Note_on_c, 0, 66, 19
1, 907477, Control_c, 0, 64, 65
1, 907480, Note_on_c, 0, 68, 28
1, 907492, Control_c, 0, 64, 66
1, 907507, Control_c, 0, 64, 67
1, 907517, Note_off_c, 0, 68, 51
1, 907518, Note_off_c, 0, 66, 44
1, 907521, Control_c, 0, 64, 67
1, 907611, Note_off_c, 0, 59, 57
1, 907626, Note_on_c, 0, 55, 68
1, 907655, Note_on_c, 0, 54, 42
1, 907655, Note_off_c, 0, 54, 127
1, 907772, Note_on_c, 0, 56, 69
1, 907772, Note_off_c, 0, 55, 64
1, 907856, Control_c, 0, 64, 68
1, 907871, Control_c, 0, 64, 68
1, 907886, Control_c, 0, 64, 69
1, 907936, Note_on_c, 0, 49, 50
1, 907939, Note_off_c, 0, 56, 61
1, 907945, Control_c, 0, 64, 68
1, 907953, Note_on_c, 0, 59, 76
1, 907960, Control_c, 0, 64, 64
1, 907974, Control_c, 0, 64, 52
1, 907989, Control_c, 0, 64, 35
1, 908004, Control_c, 0, 64, 0
1, 908019, Control_c, 0, 64, 33
1, 908034, Control_c, 0, 64, 47
1, 908049, Control_c, 0, 64, 59
1, 908064, Control_c, 0, 64, 65
1, 908079, Control_c, 0, 64, 68
1, 908093, Control_c, 0, 64, 71
1, 908100, Note_on_c, 0, 60, 54
1, 908108, Control_c, 0, 64, 73
1, 908123, Control_c, 0, 64, 75
1, 908137, Control_c, 0, 64, 76
1, 908152, Control_c, 0, 64, 76
1, 908164, Note_off_c, 0, 60, 46
1, 908167, Control_c, 0, 64, 77
1, 908197, Control_c, 0, 64, 77
1, 908237, Note_on_c, 0, 65, 38
1, 908241, Control_c, 0, 64, 78
1, 908270, Control_c, 0, 64, 78
1, 908285, Control_c, 0, 64, 79
1, 908300, Control_c, 0, 64, 79
1, 908314, Note_off_c, 0, 65, 55
1, 908315, Control_c, 0, 64, 80
1, 908344, Control_c, 0, 64, 80
1, 908368, Note_on_c, 0, 52, 73
1, 908372, Note_off_c, 0, 59, 48
1, 908372, Note_off_c, 0, 49, 59
1, 908374, Control_c, 0, 66, 0
1, 908389, Control_c, 0, 64, 80
1, 908404, Control_c, 0, 64, 75
1, 908419, Control_c, 0, 64, 66
1, 908434, Control_c, 0, 64, 54
1, 908448, Control_c, 0, 64, 45
1, 908478, Control_c, 0, 64, 51
1, 908493, Control_c, 0, 64, 58
1, 908508, Control_c, 0, 64, 62
1, 908523, Control_c, 0, 64, 65
1, 908544, Control_c, 0, 64, 67
1, 908559, Control_c, 0, 64, 69
1, 908574, Control_c, 0, 64, 70
1, 908589, Control_c, 0, 64, 70
1, 908658, Poly_aftertouch_c, 0, 65, 0
1, 908669, Note_on_c, 0, 53, 72
1, 908693, Control_c, 0, 64, 71
1, 908705, Note_off_c, 0, 52, 57
1, 908708, Control_c, 0, 64, 73
1, 908723, Control_c, 0, 64, 74
1, 908738, Control_c, 0, 64, 74
1, 908767, Control_c, 0, 64, 75
1, 908782, Control_c, 0, 64, 75
1, 908802, Note_off_c, 0, 53, 64
1, 908812, Control_c, 0, 64, 76
1, 908827, Control_c, 0, 64, 76
1, 908957, Note_on_c, 0, 38, 49
1, 909000, Note_on_c, 0, 66, 48
1, 909006, Note_off_c, 0, 38, 58
1, 909012, Note_on_c, 0, 45, 52
1, 909029, Note_off_c, 0, 66, 57
1, 909034, Control_c, 0, 64, 76
1, 909043, Note_on_c, 0, 61, 50
1, 909049, Control_c, 0, 64, 73
1, 909054, Note_off_c, 0, 45, 62
1, 909064, Control_c, 0, 64, 64
1, 909066, Note_on_c, 0, 50, 75
1, 909068, Note_off_c, 0, 61, 59
1, 909071, Note_on_c, 0, 54, 81
1, 909079, Control_c, 0, 64, 44
1, 909091, Note_off_c, 0, 50, 67
1, 909093, Control_c, 0, 64, 0
1, 909101, Note_off_c, 0, 54, 64
1, 909309, Note_on_c, 0, 56, 65
1, 909344, Note_off_c, 0, 56, 66
1, 909428, Note_on_c, 0, 57, 64
1, 909444, Note_on_c, 0, 54, 58
1, 909449, Note_off_c, 0, 57, 64
1, 909473, Note_off_c, 0, 54, 63
1, 909539, Note_on_c, 0, 52, 64
1, 909570, Note_off_c, 0, 52, 65
1, 909663, Note_on_c, 0, 54, 58
1, 909674, Note_on_c, 0, 62, 41
1, 909693, Note_off_c, 0, 54, 63
1, 909704, Note_off_c, 0, 62, 35
1, 909938, Note_on_c, 0, 35, 49
1, 909939, Note_on_c, 0, 47, 46
1, 909939, Note_on_c, 0, 54, 60
1, 909939, Note_on_c, 0, 62, 50
1, 909944, Note_on_c, 0, 57, 43
1, 909945, Control_c, 0, 67, 37
1, 909960, Control_c, 0, 67, 45
1, 909961, Note_off_c, 0, 54, 62
1, 909964, Note_off_c, 0, 62, 60
1, 909971, Note_off_c, 0, 35, 47
1, 909973, Note_off_c, 0, 47, 48
1, 909973, Note_off_c, 0, 57, 35
1, 909975, Control_c, 0, 67, 47
1, 910019, Control_c, 0, 67, 47
1, 910056, Control_c, 0, 67, 46
1, 910071, Control_c, 0, 67, 45
1, 910130, Control_c, 0, 67, 45
1, 910175, Control_c, 0, 67, 44
1, 910226, Note_on_c, 0, 47, 61
1, 910231, Note_on_c, 0, 56, 58
1, 910234, Note_on_c, 0, 52, 49
1, 910242, Note_on_c, 0, 40, 43
1, 910252, Note_off_c, 0, 47, 62
1, 910262, Note_off_c, 0, 52, 54
1, 910266, Control_c, 0, 67, 45
1, 910268, Note_off_c, 0, 56, 64
1, 910277, Note_off_c, 0, 40, 48
1, 910310, Control_c, 0, 67, 45
1, 910502, Control_c, 0, 67, 45
1, 910568, Note_on_c, 0, 49, 53
1, 910569, Note_on_c, 0, 37, 59
1, 910569, Note_on_c, 0, 59, 64
1, 910576, Note_on_c, 0, 52, 53
1, 910586, Note_on_c, 0, 56, 46
1, 910601, Note_off_c, 0, 49, 64
1, 910601, Note_off_c, 0, 52, 57
1, 910604, Note_off_c, 0, 59, 66
1, 910607, Note_off_c, 0, 37, 65
1, 910613, Note_off_c, 0, 56, 55
1, 910695, Control_c, 0, 67, 44
1, 910910, Control_c, 0, 67, 43
1, 910969, Control_c, 0, 67, 43
1, 911014, Note_on_c, 0, 54, 71
1, 911016, Note_on_c, 0, 57, 73
1, 911029, Note_on_c, 0, 49, 60
1, 911041, Note_off_c, 0, 54, 66
1, 911045, Note_on_c, 0, 42, 40
1, 911046, Note_off_c, 0, 57, 65
1, 911051, Note_off_c, 0, 49, 61
1, 911078, Note_off_c, 0, 42, 49
1, 911118, Control_c, 0, 67, 42
1, 911128, Note_on_c, 0, 56, 76
1, 911167, Note_off_c, 0, 56, 60
1, 911264, Note_on_c, 0, 50, 54
1, 911264, Note_on_c, 0, 54, 60
1, 911266, Note_on_c, 0, 55, 49
1, 911266, Note_on_c, 0, 59, 63
1, 911288, Note_off_c, 0, 54, 63
1, 911289, Note_off_c, 0, 50, 59
1, 911296, Note_off_c, 0, 55, 54
1, 911297, Note_off_c, 0, 59, 65
1, 911367, Note_on_c, 0, 52, 67
1, 911403, Note_off_c, 0, 52, 59
1, 911414, Control_c, 0, 67, 41
1, 911480, Note_on_c, 0, 57, 70
1, 911486, Note_on_c, 0, 42, 53
1, 911487, Note_on_c, 0, 54, 57
1, 911494, Note_on_c, 0, 49, 37
1, 911510, Note_off_c, 0, 54, 59
1, 911512, Note_off_c, 0, 57, 63
1, 911514, Note_off_c, 0, 42, 59
1, 911547, Note_off_c, 0, 49, 30
1, 911555, Control_c, 0, 67, 41
1, 911718, Control_c, 0, 67, 41
1, 911733, Control_c, 0, 67, 42
1, 911739, Note_on_c, 0, 35, 58
1, 911739, Note_on_c, 0, 47, 57
1, 911742, Note_on_c, 0, 54, 57
1, 911745, Note_on_c, 0, 62, 53
1, 911748, Note_on_c, 0, 57, 52
1, 911748, Control_c, 0, 67, 43
1, 911762, Control_c, 0, 67, 44
1, 911765, Note_off_c, 0, 54, 60
1, 911766, Note_off_c, 0, 47, 57
1, 911766, Note_off_c, 0, 35, 58
1, 911769, Note_off_c, 0, 62, 58
1, 911771, Note_off_c, 0, 57, 58
1, 911777, Control_c, 0, 67, 45
1, 911985, Control_c, 0, 67, 45
1, 911989, Note_on_c, 0, 47, 69
1, 911993, Note_on_c, 0, 52, 58
1, 911994, Note_on_c, 0, 56, 67
1, 912000, Control_c, 0, 67, 46
1, 912002, Note_on_c, 0, 40, 52
1, 912013, Note_off_c, 0, 47, 60
1, 912018, Note_off_c, 0, 52, 62
1, 912027, Note_off_c, 0, 56, 64
1, 912032, Note_off_c, 0, 40, 60
1, 912222, Control_c, 0, 67, 45
1, 912237, Control_c, 0, 67, 45
1, 912252, Control_c, 0, 67, 44
1, 912264, Note_on_c, 0, 49, 63
1, 912264, Note_on_c, 0, 37, 65
1, 912267, Note_on_c, 0, 52, 59
1, 912270, Note_on_c, 0, 59, 51
1, 912282, Note_on_c, 0, 56, 56
1, 912289, Control_c, 0, 67, 43
1, 912299, Note_off_c, 0, 52, 58
1, 912301, Note_off_c, 0, 37, 64
1, 912301, Note_off_c, 0, 59, 59
1, 912303, Note_off_c, 0, 49, 64
1, 912306, Note_off_c, 0, 56, 60
1, 912422, Control_c, 0, 67, 43
1, 912556, Control_c, 0, 67, 42
1, 912569, Note_on_c, 0, 49, 76
1, 912571, Control_c, 0, 67, 41
1, 912572, Note_on_c, 0, 54, 74
1, 912574, Note_on_c, 0, 57, 71
1, 912585, Control_c, 0, 67, 40
1, 912591, Note_on_c, 0, 42, 45
1, 912591, Note_off_c, 0, 54, 64
1, 912600, Note_off_c, 0, 49, 64
1, 912602, Note_off_c, 0, 57, 66
1, 912616, Control_c, 0, 67, 39
1, 912623, Note_off_c, 0, 42, 49
1, 912631, Control_c, 0, 67, 39
1, 912646, Control_c, 0, 67, 38
1, 912684, Note_on_c, 0, 56, 70
1, 912718, Note_off_c, 0, 56, 64
1, 912779, Control_c, 0, 67, 39
1, 912794, Control_c, 0, 67, 39
1, 912795, Note_on_c, 0, 54, 75
1, 912798, Note_on_c, 0, 59, 78
1, 912798, Note_on_c, 0, 55, 65
1, 912801, Note_on_c, 0, 50, 67
1, 912808, Control_c, 0, 67, 41
1, 912820, Note_off_c, 0, 54, 67
1, 912823, Control_c, 0, 67, 41
1, 912829, Note_off_c, 0, 55, 65
1, 912831, Note_off_c, 0, 50, 65
1, 912837, Note_off_c, 0, 59, 62
1, 912852, Control_c, 0, 67, 42
1, 912897, Control_c, 0, 67, 43
1, 912920, Note_on_c, 0, 52, 49
1, 912950, Note_off_c, 0, 52, 54
1, 913015, Control_c, 0, 67, 43
1, 913032, Note_on_c, 0, 42, 54
1, 913034, Note_on_c, 0, 54, 51
1, 913035, Note_on_c, 0, 57, 58
1, 913038, Control_c, 0, 67, 44
1, 913053, Note_on_c, 0, 49, 22
1, 913053, Control_c, 0, 67, 45
1, 913054, Note_off_c, 0, 49, 43
1, 913057, Note_off_c, 0, 57, 62
1, 913060, Note_off_c, 0, 54, 55
1, 913062, Note_off_c, 0, 42, 63
1, 913067, Control_c, 0, 67, 45
1, 913097, Control_c, 0, 67, 46
1, 913260, Control_c, 0, 67, 47
1, 913275, Control_c, 0, 67, 47
1, 913280, Note_on_c, 0, 54, 57
1, 913281, Note_on_c, 0, 35, 54
1, 913288, Note_on_c, 0, 47, 46
1, 913289, Control_c, 0, 67, 48
1, 913294, Note_on_c, 0, 57, 43
1, 913294, Note_on_c, 0, 62, 40
1, 913304, Note_off_c, 0, 54, 62
1, 913312, Note_off_c, 0, 35, 51
1, 913319, Note_off_c, 0, 57, 37
1, 913324, Note_off_c, 0, 47, 50
1, 913325, Note_off_c, 0, 62, 54
1, 913453, Control_c, 0, 67, 49
1, 913483, Control_c, 0, 67, 49
1, 913543, Note_on_c, 0, 47, 62
1, 913550, Note_on_c, 0, 56, 58
1, 913555, Note_on_c, 0, 40, 48
1, 913562, Note_on_c, 0, 52, 37
1, 913567, Note_off_c, 0, 47, 59
1, 913584, Note_off_c, 0, 56, 64
1, 913585, Note_off_c, 0, 40, 55
1, 913587, Control_c, 0, 67, 50
1, 913598, Note_off_c, 0, 52, 47
1, 913749, Control_c, 0, 67, 51
1, 913787, Control_c, 0, 67, 51
1, 913821, Note_on_c, 0, 52, 58
1, 913826, Note_on_c, 0, 59, 54
1, 913830, Note_on_c, 0, 49, 53
1, 913831, Control_c, 0, 67, 52
1, 913832, Note_on_c, 0, 56, 49
1, 913834, Note_on_c, 0, 37, 50
1, 913844, Note_off_c, 0, 52, 60
1, 913853, Note_off_c, 0, 59, 64
1, 913856, Note_off_c, 0, 49, 56
1, 913858, Note_off_c, 0, 56, 57
1, 913866, Note_off_c, 0, 37, 57
1, 914068, Control_c, 0, 67, 53
1, 914082, Control_c, 0, 67, 53
1, 914094, Note_on_c, 0, 57, 57
1, 914097, Control_c, 0, 67, 54
1, 914098, Note_on_c, 0, 42, 53
1, 914101, Note_on_c, 0, 54, 49
1, 914112, Control_c, 0, 67, 54
1, 914116, Note_on_c, 0, 49, 10
1, 914125, Note_off_c, 0, 57, 65
1, 914126, Note_off_c, 0, 42, 60
1, 914127, Note_off_c, 0, 54, 56
1, 914127, Control_c, 0, 67, 55
1, 914142, Control_c, 0, 67, 56
1, 914157, Control_c, 0, 67, 56
1, 914165, Note_off_c, 0, 49, 38
1, 914172, Control_c, 0, 67, 64
1, 914187, Control_c, 0, 67, 102
1, 914202, Control_c, 0, 67, 124
1, 914217, Control_c, 0, 67, 127
1, 914374, Note_on_c, 0, 59, 60
1, 914375, Note_on_c, 0, 56, 55
1, 914379, Note_on_c, 0, 52, 46
1, 914386, Note_on_c, 0, 37, 50
1, 914389, Note_on_c, 0, 49, 36
1, 914402, Note_off_c, 0, 56, 62
1, 914409, Note_off_c, 0, 52, 51
1, 914410, Note_off_c, 0, 59, 65
1, 914419, Note_off_c, 0, 37, 63
1, 914423, Note_off_c, 0, 49, 48
1, 914679, Note_on_c, 0, 54, 46
1, 914680, Note_on_c, 0, 57, 47
1, 914686, Note_on_c, 0, 42, 40
1, 914704, Note_off_c, 0, 54, 58
1, 914711, Note_off_c, 0, 57, 64
1, 914716, Note_off_c, 0, 42, 54
1, 914756, Poly_aftertouch_c, 0, 49, 0
1, 915002, Note_on_c, 0, 59, 49
1, 915006, Note_on_c, 0, 56, 42
1, 915009, Note_on_c, 0, 37, 44
1, 915018, Note_on_c, 0, 52, 16
1, 915026, Note_on_c, 0, 49, 6
1, 915036, Note_off_c, 0, 56, 55
1, 915042, Note_off_c, 0, 59, 63
1, 915045, Note_off_c, 0, 37, 58
1, 915061, Note_off_c, 0, 52, 38
1, 915074, Note_off_c, 0, 49, 35
1, 915358, Note_on_c, 0, 57, 41
1, 915358, Note_on_c, 0, 42, 46
1, 915369, Note_on_c, 0, 54, 22
1, 915373, Note_on_c, 0, 49, 20
1, 915389, Note_off_c, 0, 57, 60
1, 915391, Note_off_c, 0, 42, 61
1, 915399, Note_off_c, 0, 54, 46
1, 915415, Note_off_c, 0, 49, 42
1, 915810, Note_on_c, 0, 59, 51
1, 915819, Note_on_c, 0, 56, 35
1, 915820, Note_on_c, 0, 49, 24
1, 915820, Note_on_c, 0, 37, 37
1, 915824, Note_on_c, 0, 52, 21
1, 915852, Note_off_c, 0, 59, 61
1, 915853, Note_off_c, 0, 56, 53
1, 915856, Note_off_c, 0, 37, 51
1, 915857, Note_off_c, 0, 49, 44
1, 915868, Note_off_c, 0, 52, 40
1, 916625, Note_on_c, 0, 66, 58
1, 916625, Note_on_c, 0, 70, 58
1, 916627, Note_on_c, 0, 73, 53
1, 916646, Note_off_c, 0, 73, 61
1, 916653, Note_off_c, 0, 70, 66
1, 916657, Note_off_c, 0, 66, 67
1, 917044, Note_on_c, 0, 67, 61
1, 917051, Note_on_c, 0, 61, 43
1, 917055, Note_on_c, 0, 73, 25
1, 917064, Note_on_c, 0, 70, 48
1, 917081, Note_off_c, 0, 67, 59
1, 917165, Note_on_c, 0, 66, 60
1, 917203, Note_off_c, 0, 66, 60
1, 917245, Note_off_c, 0, 70, 56
1, 917284, Note_on_c, 0, 65, 54
1, 917298, Note_off_c, 0, 61, 58
1, 917299, Note_off_c, 0, 73, 43
1, 917304, Note_off_c, 0, 65, 62
1, 917539, Note_on_c, 0, 66, 54
1, 917549, Note_on_c, 0, 61, 42
1, 917552, Note_on_c, 0, 73, 22
1, 917557, Note_on_c, 0, 70, 38
1, 917564, Note_off_c, 0, 66, 61
1, 917578, Note_off_c, 0, 61, 53
1, 917585, Note_off_c, 0, 70, 53
1, 917591, Note_off_c, 0, 73, 31
1, 917645, Note_on_c, 0, 65, 58
1, 917677, Note_off_c, 0, 65, 62
1, 917760, Note_on_c, 0, 64, 60
1, 917769, Note_on_c, 0, 66, 62
1, 917788, Note_off_c, 0, 64, 65
1, 917803, Note_off_c, 0, 66, 65
1, 918011, Note_on_c, 0, 61, 54
1, 918016, Note_on_c, 0, 70, 55
1, 918017, Note_on_c, 0, 65, 52
1, 918035, Note_off_c, 0, 61, 59
1, 918042, Note_off_c, 0, 65, 60
1, 918050, Note_off_c, 0, 70, 65
1, 918116, Note_on_c, 0, 64, 59
1, 918145, Note_off_c, 0, 64, 65
1, 918235, Note_on_c, 0, 63, 63
1, 918239, Note_on_c, 0, 68, 60
1, 918245, Note_on_c, 0, 71, 49
1, 918245, Note_on_c, 0, 73, 43
1, 918270, Note_off_c, 0, 63, 64
1, 918275, Note_off_c, 0, 68, 68
1, 918277, Note_off_c, 0, 71, 60
1, 918277, Note_off_c, 0, 73, 55
1, 918503, Note_on_c, 0, 61, 48
1, 918504, Note_on_c, 0, 62, 58
1, 918507, Note_on_c, 0, 73, 44
1, 918508, Note_on_c, 0, 71, 57
1, 918525, Note_off_c, 0, 62, 62
1, 918571, Note_off_c, 0, 61, 0
1, 918571, Note_on_c, 0, 61, 21
1, 918588, Note_off_c, 0, 73, 0
1, 918616, Note_on_c, 0, 63, 55
1, 918625, Poly_aftertouch_c, 0, 73, 127
1, 918658, Note_off_c, 0, 63, 62
1, 918730, Note_off_c, 0, 71, 39
1, 918736, Poly_aftertouch_c, 0, 73, 0
1, 918736, Note_off_c, 0, 61, 57
1, 918739, Note_on_c, 0, 64, 52
1, 918762, Note_off_c, 0, 64, 60
1, 918977, Note_on_c, 0, 73, 55
1, 918985, Note_on_c, 0, 63, 56
1, 918986, Note_on_c, 0, 61, 42
1, 918991, Note_on_c, 0, 71, 49
1, 918998, Note_off_c, 0, 73, 61
1, 919010, Note_off_c, 0, 63, 63
1, 919014, Note_off_c, 0, 61, 55
1, 919030, Note_off_c, 0, 71, 61
1, 919103, Note_on_c, 0, 64, 55
1, 919137, Note_off_c, 0, 64, 63
1, 919206, Note_on_c, 0, 68, 61
1, 919212, Note_on_c, 0, 65, 52
1, 919234, Note_off_c, 0, 65, 59
1, 919234, Note_off_c, 0, 68, 67
1, 919446, Note_on_c, 0, 64, 68
1, 919460, Note_on_c, 0, 61, 47
1, 919465, Note_on_c, 0, 71, 50
1, 919465, Note_on_c, 0, 73, 40
1, 919475, Note_off_c, 0, 64, 68
1, 919487, Note_off_c, 0, 61, 57
1, 919490, Note_off_c, 0, 71, 60
1, 919494, Note_off_c, 0, 73, 37
1, 919552, Note_on_c, 0, 65, 62
1, 919573, Note_off_c, 0, 65, 64
1, 919677, Note_on_c, 0, 70, 66
1, 919688, Note_on_c, 0, 73, 55
1, 919689, Note_on_c, 0, 66, 64
1, 919702, Note_off_c, 0, 70, 69
1, 919707, Note_off_c, 0, 73, 62
1, 919719, Note_off_c, 0, 66, 66
1, 919725, Control_c, 0, 64, 36
1, 919740, Control_c, 0, 64, 46
1, 919754, Control_c, 0, 64, 50
1, 919776, Control_c, 0, 64, 52
1, 919791, Control_c, 0, 64, 52
1, 919866, Control_c, 0, 64, 52
1, 919881, Control_c, 0, 64, 50
1, 919896, Control_c, 0, 64, 45
1, 919911, Control_c, 0, 64, 0
1, 919942, Note_on_c, 0, 67, 79
1, 919958, Note_on_c, 0, 61, 58
1, 919959, Note_on_c, 0, 70, 63
1, 919982, Note_off_c, 0, 67, 63
1, 920012, Note_off_c, 0, 61, 0
1, 920029, Note_on_c, 0, 61, 37
1, 920047, Note_on_c, 0, 66, 74
1, 920055, Poly_aftertouch_c, 0, 73, 127
1, 920109, Note_off_c, 0, 66, 61
1, 920174, Note_off_c, 0, 70, 56
1, 920183, Note_on_c, 0, 65, 55
1, 920204, Note_off_c, 0, 65, 62
1, 920227, Note_off_c, 0, 61, 58
1, 920235, Poly_aftertouch_c, 0, 73, 0
1, 920425, Note_on_c, 0, 66, 59
1, 920425, Note_on_c, 0, 73, 46
1, 920432, Note_on_c, 0, 61, 46
1, 920439, Note_on_c, 0, 70, 46
1, 920450, Note_off_c, 0, 73, 55
1, 920456, Note_off_c, 0, 61, 58
1, 920456, Note_off_c, 0, 66, 66
1, 920464, Note_off_c, 0, 70, 59
1, 920552, Note_on_c, 0, 65, 30
1, 920567, Note_on_c, 0, 70, 24
1, 920584, Note_off_c, 0, 65, 52
1, 920606, Note_off_c, 0, 70, 30
1, 920649, Note_on_c, 0, 66, 63
1, 920660, Note_on_c, 0, 64, 56
1, 920668, Note_on_c, 0, 73, 26
1, 920681, Note_off_c, 0, 64, 62
1, 920684, Note_off_c, 0, 66, 64
1, 920704, Note_off_c, 0, 73, 42
1, 920893, Note_on_c, 0, 65, 64
1, 920897, Note_on_c, 0, 61, 50
1, 920899, Note_on_c, 0, 73, 48
1, 920907, Note_on_c, 0, 70, 50
1, 920922, Note_off_c, 0, 61, 58
1, 920923, Note_off_c, 0, 65, 64
1, 920924, Note_off_c, 0, 73, 39
1, 920940, Note_off_c, 0, 70, 62
1, 920988, Note_on_c, 0, 64, 73
1, 921022, Note_off_c, 0, 64, 61
1, 921111, Note_on_c, 0, 63, 70
1, 921126, Note_on_c, 0, 73, 39
1, 921126, Note_on_c, 0, 68, 49
1, 921130, Note_on_c, 0, 71, 44
1, 921138, Note_off_c, 0, 63, 68
1, 921150, Note_off_c, 0, 68, 60
1, 921152, Note_off_c, 0, 73, 51
1, 921158, Note_off_c, 0, 71, 51
1, 921379, Note_on_c, 0, 73, 52
1, 921380, Note_on_c, 0, 62, 70
1, 921385, Note_on_c, 0, 61, 50
1, 921395, Note_on_c, 0, 71, 57
1, 921408, Note_off_c, 0, 62, 65
1, 921439, Note_off_c, 0, 73, 0
1, 921469, Note_on_c, 0, 73, 6
1, 921483, Note_on_c, 0, 63, 72
1, 921510, Note_off_c, 0, 71, 53
1, 921528, Note_off_c, 0, 63, 58
1, 921591, Note_on_c, 0, 64, 73
1, 921596, Note_off_c, 0, 61, 60
1, 921600, Note_off_c, 0, 73, 46
1, 921615, Note_off_c, 0, 64, 70
1, 921838, Note_on_c, 0, 63, 67
1, 921843, Note_on_c, 0, 61, 52
1, 921843, Note_on_c, 0, 73, 47
1, 921847, Note_on_c, 0, 71, 64
1, 921866, Note_off_c, 0, 63, 68
1, 921867, Note_off_c, 0, 61, 59
1, 921867, Note_off_c, 0, 73, 58
1, 921889, Note_off_c, 0, 71, 57
1, 921930, Note_on_c, 0, 64, 71
1, 921976, Note_off_c, 0, 64, 62
1, 922040, Note_on_c, 0, 65, 76
1, 922047, Note_on_c, 0, 68, 60
1, 922050, Note_on_c, 0, 73, 44
1, 922062, Note_off_c, 0, 65, 71
1, 922068, Note_on_c, 0, 71, 42
1, 922069, Note_off_c, 0, 68, 64
1, 922075, Note_off_c, 0, 73, 56
1, 922097, Note_off_c, 0, 71, 49
1, 922315, Note_on_c, 0, 64, 74
1, 922322, Note_on_c, 0, 61, 60
1, 922328, Note_on_c, 0, 73, 50
1, 922339, Note_on_c, 0, 71, 49
1, 922339, Note_off_c, 0, 64, 70
1, 922342, Note_off_c, 0, 61, 63
1, 922351, Note_off_c, 0, 73, 39
1, 922363, Note_off_c, 0, 71, 58
1, 922415, Note_on_c, 0, 65, 72
1, 922439, Note_off_c, 0, 65, 66
1, 922535, Note_on_c, 0, 70, 79
1, 922535, Note_on_c, 0, 73, 64
1, 922540, Note_on_c, 0, 66, 71
1, 922542, Control_c, 0, 64, 45
1, 922551, Note_off_c, 0, 73, 67
1, 922557, Note_off_c, 0, 70, 71
1, 922557, Control_c, 0, 64, 62
1, 922566, Note_off_c, 0, 66, 69
1, 922572, Control_c, 0, 64, 63
1, 922587, Control_c, 0, 64, 64
1, 922602, Control_c, 0, 64, 65
1, 922617, Control_c, 0, 64, 66
1, 922632, Control_c, 0, 64, 67
1, 922802, Control_c, 0, 64, 64
1, 922816, Control_c, 0, 64, 52
1, 922831, Control_c, 0, 64, 0
1, 922833, Note_on_c, 0, 71, 87
1, 922839, Note_on_c, 0, 67, 78
1, 922840, Note_on_c, 0, 74, 79
1, 922852, Note_off_c, 0, 71, 70
1, 922864, Note_off_c, 0, 67, 65
1, 922865, Note_off_c, 0, 74, 63
1, 922950, Note_on_c, 0, 73, 70
1, 922959, Note_on_c, 0, 69, 56
1, 922968, Note_on_c, 0, 65, 43
1, 922974, Note_off_c, 0, 73, 66
1, 922981, Note_off_c, 0, 69, 61
1, 922999, Note_off_c, 0, 65, 55
1, 923059, Note_on_c, 0, 67, 54
1, 923061, Note_on_c, 0, 71, 72
1, 923079, Note_on_c, 0, 74, 58
1, 923082, Note_off_c, 0, 67, 62
1, 923085, Note_off_c, 0, 71, 68
1, 923100, Note_off_c, 0, 74, 62
1, 923171, Note_on_c, 0, 65, 48
1, 923175, Note_on_c, 0, 73, 65
1, 923189, Note_on_c, 0, 69, 37
1, 923197, Note_off_c, 0, 65, 58
1, 923201, Note_off_c, 0, 73, 67
1, 923221, Note_off_c, 0, 69, 34
1, 923284, Note_on_c, 0, 67, 47
1, 923286, Note_on_c, 0, 71, 57
1, 923299, Note_on_c, 0, 74, 56
1, 923308, Note_off_c, 0, 71, 60
1, 923310, Note_off_c, 0, 67, 58
1, 923319, Note_off_c, 0, 74, 61
1, 923385, Note_on_c, 0, 73, 65
1, 923400, Note_on_c, 0, 69, 35
1, 923401, Note_on_c, 0, 65, 36
1, 923415, Note_off_c, 0, 73, 61
1, 923432, Note_off_c, 0, 65, 50
1, 923433, Note_off_c, 0, 69, 33
1, 923507, Note_on_c, 0, 71, 57
1, 923509, Note_on_c, 0, 67, 49
1, 923527, Note_on_c, 0, 74, 44
1, 923537, Note_off_c, 0, 71, 60
1, 923541, Note_off_c, 0, 67, 57
1, 923553, Note_off_c, 0, 74, 35
1, 923776, Note_on_c, 0, 67, 62
1, 923779, Note_on_c, 0, 77, 64
1, 923781, Note_on_c, 0, 74, 59
1, 923784, Note_on_c, 0, 61, 58
1, 923789, Note_on_c, 0, 71, 53
1, 923800, Note_off_c, 0, 67, 65
1, 923804, Note_off_c, 0, 74, 64
1, 923809, Note_off_c, 0, 77, 65
1, 923812, Note_off_c, 0, 71, 59
1, 923815, Note_off_c, 0, 61, 64
1, 924048, Note_on_c, 0, 66, 61
1, 924051, Note_on_c, 0, 70, 63
1, 924055, Note_on_c, 0, 73, 59
1, 924076, Note_off_c, 0, 66, 67
1, 924077, Note_off_c, 0, 70, 68
1, 924083, Note_off_c, 0, 73, 65
1, 924347, Note_on_c, 0, 67, 60
1, 924348, Note_on_c, 0, 71, 66
1, 924353, Note_on_c, 0, 74, 65
1, 924366, Note_off_c, 0, 71, 64
1, 924380, Note_off_c, 0, 67, 65
1, 924386, Note_off_c, 0, 74, 62
1, 924453, Note_on_c, 0, 73, 67
1, 924462, Note_on_c, 0, 69, 55
1, 924468, Note_on_c, 0, 65, 41
1, 924483, Note_off_c, 0, 69, 61
1, 924487, Note_off_c, 0, 73, 59
1, 924499, Note_off_c, 0, 65, 57
1, 924556, Note_on_c, 0, 71, 82
1, 924558, Note_on_c, 0, 74, 83
1, 924563, Note_on_c, 0, 67, 65
1, 924577, Note_off_c, 0, 71, 70
1, 924587, Note_off_c, 0, 74, 60
1, 924592, Note_off_c, 0, 67, 68
1, 924676, Note_on_c, 0, 73, 62
1, 924688, Note_on_c, 0, 65, 40
1, 924696, Note_off_c, 0, 73, 65
1, 924715, Note_off_c, 0, 65, 55
1, 924772, Poly_aftertouch_c, 0, 69, 0
1, 924788, Note_on_c, 0, 67, 59
1, 924795, Note_on_c, 0, 74, 65
1, 924799, Note_on_c, 0, 71, 51
1, 924820, Note_off_c, 0, 67, 65
1, 924823, Note_off_c, 0, 74, 67
1, 924824, Note_off_c, 0, 71, 58
1, 924894, Note_on_c, 0, 73, 67
1, 924897, Note_on_c, 0, 69, 45
1, 924921, Note_on_c, 0, 65, 44
1, 924924, Note_off_c, 0, 69, 55
1, 924930, Note_off_c, 0, 73, 57
1, 924947, Note_off_c, 0, 65, 57
1, 925017, Note_on_c, 0, 74, 66
1, 925022, Note_on_c, 0, 67, 63
1, 925024, Note_on_c, 0, 71, 58
1, 925034, Note_off_c, 0, 74, 66
1, 925045, Note_off_c, 0, 71, 61
1, 925047, Note_off_c, 0, 67, 68
1, 925285, Note_on_c, 0, 67, 59
1, 925287, Note_on_c, 0, 74, 60
1, 925289, Note_on_c, 0, 77, 50
1, 925293, Note_on_c, 0, 71, 57
1, 925300, Note_on_c, 0, 61, 48
1, 925306, Note_off_c, 0, 67, 64
1, 925312, Note_off_c, 0, 77, 58
1, 925314, Note_off_c, 0, 74, 65
1, 925314, Note_off_c, 0, 71, 62
1, 925324, Note_off_c, 0, 61, 60
1, 925478, Control_c, 0, 67, 124
1, 925493, Control_c, 0, 67, 109
1, 925508, Control_c, 0, 67, 98
1, 925523, Control_c, 0, 67, 90
1, 925538, Control_c, 0, 67, 82
1, 925553, Control_c, 0, 67, 75
1, 925563, Note_on_c, 0, 66, 59
1, 925568, Note_on_c, 0, 73, 62
1, 925568, Control_c, 0, 67, 65
1, 925571, Note_on_c, 0, 70, 61
1, 925582, Control_c, 0, 67, 53
1, 925591, Note_off_c, 0, 66, 66
1, 925595, Note_off_c, 0, 73, 67
1, 925595, Note_off_c, 0, 70, 65
1, 925597, Control_c, 0, 67, 0
1, 925853, Note_on_c, 0, 71, 105
1, 925856, Note_on_c, 0, 74, 100
1, 925860, Note_on_c, 0, 67, 88
1, 925869, Note_off_c, 0, 71, 68
1, 925881, Note_off_c, 0, 74, 66
1, 925885, Note_off_c, 0, 67, 65
1, 926075, Note_on_c, 0, 73, 86
1, 926076, Note_on_c, 0, 65, 78
1, 926086, Note_on_c, 0, 69, 70
1, 926100, Note_off_c, 0, 65, 67
1, 926104, Note_off_c, 0, 69, 68
1, 926107, Note_off_c, 0, 73, 64
1, 926257, Note_on_c, 0, 71, 78
1, 926265, Note_on_c, 0, 67, 72
1, 926265, Note_on_c, 0, 74, 69
1, 926273, Note_off_c, 0, 71, 68
1, 926291, Note_off_c, 0, 74, 65
1, 926293, Note_off_c, 0, 67, 63
1, 926415, Note_on_c, 0, 73, 69
1, 926418, Note_on_c, 0, 69, 63
1, 926420, Note_on_c, 0, 65, 56
1, 926438, Note_off_c, 0, 69, 64
1, 926444, Note_off_c, 0, 65, 59
1, 926445, Note_off_c, 0, 73, 62
1, 926553, Note_on_c, 0, 67, 56
1, 926559, Note_on_c, 0, 74, 68
1, 926568, Note_on_c, 0, 71, 46
1, 926578, Note_off_c, 0, 67, 63
1, 926586, Note_off_c, 0, 74, 64
1, 926595, Note_off_c, 0, 71, 57
1, 926666, Note_on_c, 0, 73, 68
1, 926671, Note_on_c, 0, 65, 59
1, 926683, Note_on_c, 0, 69, 39
1, 926698, Note_off_c, 0, 73, 60
1, 926708, Note_off_c, 0, 65, 62
1, 926715, Note_off_c, 0, 69, 55
1, 926776, Note_on_c, 0, 67, 64
1, 926782, Note_on_c, 0, 74, 68
1, 926785, Note_on_c, 0, 71, 59
1, 926806, Note_off_c, 0, 71, 61
1, 926811, Note_off_c, 0, 74, 64
1, 926813, Note_off_c, 0, 67, 61
1, 926885, Note_on_c, 0, 73, 63
1, 926892, Note_on_c, 0, 65, 49
1, 926892, Note_on_c, 0, 69, 48
1, 926917, Note_off_c, 0, 73, 62
1, 926918, Note_off_c, 0, 65, 57
1, 926918, Note_off_c, 0, 69, 58
1, 926977, Control_c, 0, 67, 47
1, 926992, Control_c, 0, 67, 60
1, 926993, Note_on_c, 0, 67, 53
1, 926996, Note_on_c, 0, 74, 68
1, 927002, Note_on_c, 0, 71, 53
1, 927007, Control_c, 0, 67, 70
1, 927022, Note_off_c, 0, 67, 59
1, 927022, Control_c, 0, 67, 83
1, 927026, Note_off_c, 0, 74, 64
1, 927026, Note_off_c, 0, 71, 58
1, 927036, Control_c, 0, 67, 100
1, 927051, Control_c, 0, 67, 120
1, 927066, Control_c, 0, 67, 127
1, 927096, Note_on_c, 0, 73, 67
1, 927098, Note_on_c, 0, 69, 51
1, 927100, Note_on_c, 0, 65, 37
1, 927122, Note_off_c, 0, 69, 58
1, 927127, Note_off_c, 0, 73, 60
1, 927129, Note_off_c, 0, 65, 51
1, 927216, Note_on_c, 0, 71, 58
1, 927225, Note_on_c, 0, 67, 52
1, 927230, Note_on_c, 0, 74, 42
1, 927237, Note_off_c, 0, 71, 60
1, 927249, Note_off_c, 0, 67, 59
1, 927264, Note_off_c, 0, 74, 51
1, 927499, Note_on_c, 0, 67, 52
1, 927503, Note_on_c, 0, 74, 59
1, 927504, Note_on_c, 0, 71, 54
1, 927526, Note_off_c, 0, 71, 59
1, 927526, Note_off_c, 0, 67, 62
1, 927538, Note_off_c, 0, 74, 64
1, 927607, Note_on_c, 0, 73, 55
1, 927612, Note_on_c, 0, 69, 45
1, 927619, Note_on_c, 0, 65, 35
1, 927637, Note_off_c, 0, 69, 57
1, 927643, Note_off_c, 0, 73, 62
1, 927651, Note_off_c, 0, 65, 52
1, 927735, Note_on_c, 0, 71, 52
1, 927736, Note_on_c, 0, 74, 60
1, 927738, Note_on_c, 0, 67, 55
1, 927759, Note_off_c, 0, 71, 57
1, 927767, Note_off_c, 0, 67, 64
1, 927768, Note_off_c, 0, 74, 64
1, 928033, Note_on_c, 0, 67, 49
1, 928036, Note_on_c, 0, 74, 57
1, 928037, Note_on_c, 0, 71, 45
1, 928063, Note_off_c, 0, 67, 59
1, 928065, Note_off_c, 0, 71, 53
1, 928072, Note_off_c, 0, 74, 62
1, 928155, Note_on_c, 0, 73, 54
1, 928163, Note_on_c, 0, 65, 42
1, 928165, Note_on_c, 0, 69, 36
1, 928187, Note_off_c, 0, 73, 62
1, 928191, Note_off_c, 0, 65, 54
1, 928196, Note_off_c, 0, 69, 51
1, 928289, Note_on_c, 0, 71, 53
1, 928292, Note_on_c, 0, 67, 52
1, 928304, Note_on_c, 0, 74, 50
1, 928321, Note_off_c, 0, 67, 62
1, 928323, Note_off_c, 0, 71, 55
1, 928337, Note_off_c, 0, 74, 62
1, 928629, Note_on_c, 0, 73, 53
1, 928634, Note_on_c, 0, 65, 52
1, 928639, Note_on_c, 0, 69, 48
1, 928662, Note_off_c, 0, 65, 64
1, 928664, Note_off_c, 0, 69, 59
1, 928665, Note_off_c, 0, 73, 64
1, 929113, Note_on_c, 0, 67, 53
1, 929116, Note_on_c, 0, 71, 52
1, 929121, Note_on_c, 0, 74, 45
1, 929136, Note_off_c, 0, 67, 59
1, 929141, Note_off_c, 0, 71, 56
1, 929145, Note_off_c, 0, 74, 52
1, 930276, Control_c, 0, 64, 33
1, 930291, Control_c, 0, 64, 44
1, 930291, Control_c, 0, 67, 83
1, 930296, Note_on_c, 0, 79, 89
1, 930302, Note_on_c, 0, 67, 82
1, 930304, Note_on_c, 0, 55, 81
1, 930306, Control_c, 0, 64, 53
1, 930306, Control_c, 0, 67, 0
1, 930321, Control_c, 0, 64, 59
1, 930326, Note_off_c, 0, 67, 66
1, 930335, Control_c, 0, 64, 61
1, 930339, Note_off_c, 0, 79, 66
1, 930350, Control_c, 0, 64, 63
1, 930365, Control_c, 0, 64, 66
1, 930377, Note_off_c, 0, 55, 62
1, 930379, Control_c, 0, 64, 69
1, 930388, Note_on_c, 0, 81, 103
1, 930389, Note_on_c, 0, 69, 92
1, 930391, Note_on_c, 0, 57, 81
1, 930394, Control_c, 0, 64, 72
1, 930409, Control_c, 0, 64, 75
1, 930424, Control_c, 0, 64, 78
1, 930431, Note_off_c, 0, 69, 64
1, 930436, Note_off_c, 0, 81, 65
1, 930439, Control_c, 0, 64, 79
1, 930453, Control_c, 0, 64, 79
1, 930465, Note_off_c, 0, 57, 64
1, 930468, Control_c, 0, 64, 79
1, 930483, Note_on_c, 0, 83, 104
1, 930483, Control_c, 0, 64, 73
1, 930484, Note_on_c, 0, 71, 104
1, 930490, Note_on_c, 0, 59, 90
1, 930498, Control_c, 0, 64, 58
1, 930513, Control_c, 0, 64, 0
1, 930573, Control_c, 0, 64, 50
1, 930587, Control_c, 0, 64, 65
1, 930602, Control_c, 0, 64, 70
1, 930603, Note_off_c, 0, 59, 57
1, 930608, Note_off_c, 0, 71, 60
1, 930617, Control_c, 0, 64, 76
1, 930632, Control_c, 0, 64, 85
1, 930640, Note_off_c, 0, 83, 63
1, 930646, Control_c, 0, 64, 96
1, 930661, Control_c, 0, 64, 119
1, 930676, Control_c, 0, 64, 127
1, 930765, Control_c, 0, 64, 90
1, 930771, Note_on_c, 0, 85, 100
1, 930772, Note_on_c, 0, 73, 104
1, 930775, Note_on_c, 0, 61, 87
1, 930779, Control_c, 0, 64, 57
1, 930794, Control_c, 0, 64, 0
1, 930824, Control_c, 0, 64, 39
1, 930839, Control_c, 0, 64, 69
1, 930852, Note_off_c, 0, 85, 63
1, 930853, Control_c, 0, 64, 87
1, 930857, Note_off_c, 0, 73, 60
1, 930868, Control_c, 0, 64, 127
1, 930881, Note_on_c, 0, 62, 90
1, 930893, Note_off_c, 0, 61, 61
1, 930905, Note_on_c, 0, 86, 106
1, 930910, Note_on_c, 0, 74, 96
1, 930910, Note_off_c, 0, 62, 64
1, 930945, Note_off_c, 0, 74, 63
1, 930979, Note_on_c, 0, 47, 85
1, 931008, Note_on_c, 0, 76, 67
1, 931009, Note_on_c, 0, 74, 73
1, 931014, Note_off_c, 0, 86, 63
1, 931025, Note_on_c, 0, 55, 79
1, 931029, Note_off_c, 0, 74, 73
1, 931035, Note_off_c, 0, 47, 63
1, 931061, Note_on_c, 0, 79, 77
1, 931076, Note_off_c, 0, 55, 64
1, 931091, Note_on_c, 0, 60, 76
1, 931114, Note_off_c, 0, 60, 68
1, 931157, Note_on_c, 0, 88, 103
1, 931164, Note_on_c, 0, 71, 105
1, 931196, Note_off_c, 0, 71, 71
1, 931293, Note_off_c, 0, 88, 55
1, 931335, Note_off_c, 0, 76, 63
1, 931450, Note_off_c, 0, 79, 66
1, 931469, Note_on_c, 0, 62, 97
1, 931476, Note_on_c, 0, 86, 97
1, 931477, Note_on_c, 0, 74, 95
1, 931513, Note_off_c, 0, 74, 68
1, 931516, Note_off_c, 0, 62, 64
1, 931522, Note_off_c, 0, 86, 65
1, 931616, Note_on_c, 0, 85, 98
1, 931619, Note_on_c, 0, 73, 98
1, 931622, Note_on_c, 0, 61, 88
1, 931664, Note_off_c, 0, 73, 61
1, 931667, Note_off_c, 0, 85, 64
1, 931679, Note_off_c, 0, 61, 63
1, 931706, Control_c, 0, 64, 110
1, 931720, Control_c, 0, 64, 72
1, 931735, Control_c, 0, 64, 54
1, 931752, Note_on_c, 0, 83, 98
1, 931754, Note_on_c, 0, 71, 87
1, 931758, Control_c, 0, 64, 51
1, 931759, Note_on_c, 0, 59, 85
1, 931773, Control_c, 0, 64, 56
1, 931779, Note_on_c, 0, 72, 54
1, 931779, Note_off_c, 0, 72, 127
1, 931786, Note_off_c, 0, 71, 67
1, 931789, Control_c, 0, 64, 64
1, 931793, Note_off_c, 0, 83, 67
1, 931804, Control_c, 0, 64, 73
1, 931819, Control_c, 0, 64, 83
1, 931833, Control_c, 0, 64, 92
1, 931842, Note_off_c, 0, 59, 64
1, 931848, Control_c, 0, 64, 96
1, 931853, Note_on_c, 0, 73, 98
1, 931853, Note_on_c, 0, 85, 103
1, 931861, Note_on_c, 0, 61, 84
1, 931863, Control_c, 0, 64, 98
1, 931893, Control_c, 0, 64, 101
1, 931897, Note_off_c, 0, 85, 64
1, 931899, Note_off_c, 0, 73, 64
1, 931907, Control_c, 0, 64, 104
1, 931922, Control_c, 0, 64, 114
1, 931923, Note_off_c, 0, 61, 64
1, 931936, Control_c, 0, 64, 127
1, 931954, Note_on_c, 0, 86, 100
1, 931956, Note_on_c, 0, 62, 80
1, 931959, Note_on_c, 0, 74, 89
1, 931978, Note_off_c, 0, 74, 71
1, 931991, Note_off_c, 0, 86, 64
1, 932007, Note_off_c, 0, 62, 64
1, 932034, Note_on_c, 0, 59, 91
1, 932042, Note_on_c, 0, 71, 100
1, 932044, Note_on_c, 0, 83, 100
1, 932069, Control_c, 0, 64, 81
1, 932070, Note_off_c, 0, 71, 67
1, 932081, Note_off_c, 0, 83, 64
1, 932084, Control_c, 0, 64, 47
1, 932099, Control_c, 0, 64, 0
1, 932111, Note_off_c, 0, 59, 66
1, 932138, Note_on_c, 0, 61, 103
1, 932144, Control_c, 0, 64, 31
1, 932144, Note_on_c, 0, 73, 91
1, 932146, Note_on_c, 0, 85, 107
1, 932158, Control_c, 0, 64, 67
1, 932165, Note_off_c, 0, 61, 70
1, 932166, Note_off_c, 0, 73, 68
1, 932173, Control_c, 0, 64, 79
1, 932188, Control_c, 0, 64, 91
1, 932192, Note_off_c, 0, 85, 67
1, 932203, Control_c, 0, 64, 92
1, 932218, Control_c, 0, 64, 93
1, 932232, Control_c, 0, 64, 93
1, 932262, Control_c, 0, 64, 94
1, 932266, Poly_aftertouch_c, 0, 86, 0
1, 932277, Control_c, 0, 64, 96
1, 932292, Control_c, 0, 64, 101
1, 932306, Control_c, 0, 64, 111
1, 932321, Control_c, 0, 64, 127
1, 932395, Control_c, 0, 64, 100
1, 932410, Control_c, 0, 64, 73
1, 932424, Control_c, 0, 64, 58
1, 932426, Note_on_c, 0, 97, 104
1, 932430, Note_on_c, 0, 85, 109
1, 932430, Note_on_c, 0, 95, 106
1, 932431, Note_on_c, 0, 49, 113
1, 932431, Note_on_c, 0, 89, 98
1, 932433, Note_on_c, 0, 37, 109
1, 932439, Control_c, 0, 64, 59
1, 932453, Note_off_c, 0, 49, 70
1, 932454, Note_off_c, 0, 37, 74
1, 932454, Control_c, 0, 64, 79
1, 932458, Note_on_c, 0, 94, 9
1, 932469, Control_c, 0, 64, 127
1, 932472, Note_off_c, 0, 85, 66
1, 932475, Note_off_c, 0, 89, 67
1, 932487, Note_off_c, 0, 95, 63
1, 932490, Note_off_c, 0, 97, 66
1, 932522, Note_off_c, 0, 94, 48
1, 932536, Control_c, 0, 64, 72
1, 932550, Control_c, 0, 64, 0
1, 932608, Note_on_c, 0, 94, 59
1, 932634, Note_off_c, 0, 94, 55
1, 932832, Note_on_c, 0, 102, 109
1, 932835, Note_on_c, 0, 97, 101
1, 932835, Note_on_c, 0, 90, 102
1, 932835, Note_on_c, 0, 93, 105
1, 932837, Note_on_c, 0, 30, 99
1, 932837, Note_on_c, 0, 42, 117
1, 932858, Note_off_c, 0, 30, 71
1, 932862, Control_c, 0, 64, 60
1, 932868, Note_off_c, 0, 42, 66
1, 932872, Note_on_c, 0, 94, 30
1, 932872, Note_off_c, 0, 94, 127
1, 932875, Note_off_c, 0, 90, 68
1, 932875, Note_off_c, 0, 102, 69
1, 932877, Control_c, 0, 64, 127
1, 932882, Note_off_c, 0, 93, 69
1, 932883, Note_off_c, 0, 97, 70
1, 933144, Control_c, 0, 64, 89
1, 933159, Control_c, 0, 64, 62
1, 933173, Control_c, 0, 64, 0
1, 933173, End_track
0, 0, End_of_file
