0, 0, Header, 0, 1, 384
1, 0, Start_track
1, 0, Title_t, "Impromptu Op. 90/1-Frank Duepree"
1, 0, Text_t, "2008 e-Piano Junior Competition recital round"
1, 0, Text_t, "recorded July 2008"
1, 0, Text_t, "http://www.piano-e-competition.com/"
1, 0, Text_t, "File processed for distribution by software from Zenph Studios, Inc., http://www.zenph.com"
1, 0, Instrument_name_t, "Yamaha Disklavier Pro Mark IV concert grand piano, model DCFIIISM4PRO"
1, 0, Sequencer_specific, 39, 67, 113, 0, 1, 0, 1, 0, 73, 109, 112, 114, 111, 109, 112, 116, 117, 32, 79, 112, 57, 48, 47, 49, 70, 114, 97, 110, 107, 32, 68, 117, 101, 112, 114, 101, 101, 32, 32, 32
1, 0, Sequencer_specific, 6, 67, 113, 0, 0, 0, 69
1, 0, System_exclusive, 21, 67, 113, 126, 21, 0, 2, 2, 0, 3, 14, 1, 4, 1, 13, 13, 10, 11, 9, 2, 7, 247
1, 0, Sequencer_specific, 5, 67, 123, 12, 2, 1
1, 0, Tempo, 512820
1, 0, Time_signature, 4, 2, 24, 8
1, 0, System_exclusive, 5, 126, 127, 9, 1, 247
1, 1, System_exclusive, 8, 67, 16, 76, 0, 0, 126, 0, 247
1, 2, System_exclusive, 8, 67, 16, 76, 8, 9, 7, 1, 247
1, 3, Control_c, 0, 0, 0
1, 3, Control_c, 1, 0, 0
1, 3, Control_c, 2, 0, 0
1, 3, Control_c, 3, 0, 0
1, 3, Control_c, 4, 0, 0
1, 3, Control_c, 5, 0, 0
1, 3, Control_c, 6, 0, 0
1, 3, Control_c, 7, 0, 0
1, 3, Control_c, 8, 0, 0
1, 3, Control_c, 9, 0, 127
1, 3, Control_c, 10, 0, 0
1, 3, Control_c, 11, 0, 0
1, 3, Control_c, 12, 0, 0
1, 3, Control_c, 13, 0, 0
1, 3, Control_c, 14, 0, 0
1, 3, Control_c, 15, 0, 0
1, 4, Control_c, 0, 32, 0
1, 4, Control_c, 1, 32, 0
1, 4, Control_c, 2, 32, 0
1, 4, Control_c, 3, 32, 0
1, 4, Control_c, 4, 32, 0
1, 4, Control_c, 5, 32, 0
1, 4, Control_c, 6, 32, 0
1, 4, Control_c, 7, 32, 0
1, 4, Control_c, 8, 32, 0
1, 4, Control_c, 9, 32, 0
1, 4, Control_c, 10, 32, 0
1, 4, Control_c, 11, 32, 0
1, 4, Control_c, 12, 32, 0
1, 4, Control_c, 13, 32, 0
1, 4, Control_c, 14, 32, 0
1, 4, Control_c, 15, 32, 0
1, 5, Program_c, 0, 0
1, 5, Program_c, 1, 0
1, 5, Program_c, 2, 0
1, 5, Program_c, 3, 0
1, 5, Program_c, 4, 0
1, 5, Program_c, 5, 0
1, 5, Program_c, 6, 0
1, 5, Program_c, 7, 0
1, 5, Program_c, 8, 0
1, 5, Program_c, 9, 0
1, 5, Program_c, 10, 0
1, 5, Program_c, 11, 0
1, 5, Program_c, 12, 0
1, 5, Program_c, 13, 0
1, 5, Program_c, 14, 0
1, 5, Program_c, 15, 0
1, 6, Control_c, 0, 7, 100
1, 6, Control_c, 1, 7, 100
1, 6, Control_c, 2, 7, 100
1, 6, Control_c, 3, 7, 100
1, 6, Control_c, 4, 7, 100
1, 6, Control_c, 5, 7, 100
1, 6, Control_c, 6, 7, 100
1, 6, Control_c, 7, 7, 100
1, 6, Control_c, 8, 7, 100
1, 6, Control_c, 9, 7, 100
1, 6, Control_c, 10, 7, 100
1, 6, Control_c, 11, 7, 100
1, 6, Control_c, 12, 7, 100
1, 6, Control_c, 13, 7, 100
1, 6, Control_c, 14, 7, 100
1, 6, Control_c, 15, 7, 100
1, 117, Control_c, 0, 64, 15
1, 229, Control_c, 0, 64, 31
1, 341, Control_c, 0, 64, 46
1, 452, Control_c, 0, 64, 62
1, 564, Control_c, 0, 64, 77
1, 676, Control_c, 0, 64, 93
1, 787, Control_c, 0, 64, 108
1, 899, Control_c, 0, 64, 124
1, 1129, Note_on_c, 0, 79, 87
1, 1135, Note_on_c, 0, 67, 84
1, 1137, Note_on_c, 0, 43, 87
1, 1138, Note_on_c, 0, 31, 86
1, 2218, Control_c, 0, 64, 124
1, 2477, Control_c, 0, 64, 125
1, 2551, Control_c, 0, 64, 125
1, 2566, Control_c, 0, 64, 126
1, 2596, Control_c, 0, 64, 126
1, 2626, Control_c, 0, 64, 127
1, 2656, Control_c, 0, 64, 127
1, 3100, Note_off_c, 0, 31, 65
1, 3508, Control_c, 0, 67, 9
1, 3523, Control_c, 0, 67, 15
1, 3538, Control_c, 0, 67, 22
1, 3552, Control_c, 0, 67, 29
1, 3567, Control_c, 0, 67, 36
1, 3582, Control_c, 0, 67, 43
1, 3598, Control_c, 0, 67, 50
1, 3613, Control_c, 0, 67, 60
1, 3627, Control_c, 0, 67, 69
1, 3642, Control_c, 0, 67, 76
1, 3657, Control_c, 0, 67, 84
1, 3672, Control_c, 0, 67, 90
1, 3687, Control_c, 0, 67, 96
1, 3702, Control_c, 0, 67, 103
1, 3716, Control_c, 0, 67, 111
1, 3731, Control_c, 0, 67, 118
1, 3746, Control_c, 0, 67, 124
1, 3761, Control_c, 0, 67, 127
1, 4017, Note_off_c, 0, 43, 36
1, 4094, Note_off_c, 0, 67, 27
1, 4295, Note_off_c, 0, 79, 36
1, 4539, Control_c, 0, 64, 126
1, 4554, Control_c, 0, 64, 126
1, 4569, Control_c, 0, 64, 125
1, 4598, Control_c, 0, 64, 124
1, 4613, Control_c, 0, 64, 123
1, 4628, Control_c, 0, 64, 123
1, 4643, Control_c, 0, 64, 122
1, 4657, Control_c, 0, 64, 122
1, 4672, Control_c, 0, 64, 121
1, 4687, Control_c, 0, 64, 121
1, 4702, Control_c, 0, 64, 120
1, 4724, Control_c, 0, 64, 120
1, 4739, Control_c, 0, 64, 119
1, 4754, Control_c, 0, 64, 119
1, 4769, Control_c, 0, 64, 118
1, 4784, Control_c, 0, 64, 118
1, 4798, Control_c, 0, 64, 117
1, 4813, Control_c, 0, 64, 116
1, 4828, Control_c, 0, 64, 115
1, 4843, Control_c, 0, 64, 115
1, 4858, Control_c, 0, 64, 114
1, 4872, Control_c, 0, 64, 114
1, 4887, Control_c, 0, 64, 113
1, 4902, Control_c, 0, 64, 112
1, 4917, Control_c, 0, 64, 111
1, 4932, Control_c, 0, 64, 110
1, 4946, Control_c, 0, 64, 109
1, 4961, Control_c, 0, 64, 108
1, 4976, Control_c, 0, 64, 108
1, 4990, Control_c, 0, 64, 107
1, 5005, Control_c, 0, 64, 106
1, 5020, Control_c, 0, 64, 105
1, 5035, Control_c, 0, 64, 105
1, 5050, Control_c, 0, 64, 104
1, 5064, Control_c, 0, 64, 104
1, 5079, Control_c, 0, 64, 103
1, 5094, Control_c, 0, 64, 102
1, 5109, Control_c, 0, 64, 102
1, 5124, Control_c, 0, 64, 101
1, 5139, Control_c, 0, 64, 101
1, 5154, Control_c, 0, 64, 100
1, 5169, Control_c, 0, 64, 100
1, 5183, Control_c, 0, 64, 99
1, 5199, Control_c, 0, 64, 98
1, 5213, Control_c, 0, 64, 97
1, 5228, Control_c, 0, 64, 96
1, 5243, Control_c, 0, 64, 96
1, 5258, Control_c, 0, 64, 95
1, 5273, Control_c, 0, 64, 94
1, 5288, Control_c, 0, 64, 94
1, 5303, Control_c, 0, 64, 93
1, 5333, Control_c, 0, 64, 93
1, 5347, Control_c, 0, 64, 92
1, 5362, Control_c, 0, 64, 90
1, 5377, Control_c, 0, 64, 89
1, 5392, Control_c, 0, 64, 88
1, 5407, Control_c, 0, 64, 88
1, 5421, Control_c, 0, 64, 87
1, 5436, Control_c, 0, 64, 87
1, 5451, Control_c, 0, 64, 85
1, 5473, Control_c, 0, 64, 85
1, 5488, Control_c, 0, 64, 84
1, 5502, Control_c, 0, 64, 83
1, 5517, Control_c, 0, 64, 83
1, 5532, Control_c, 0, 64, 82
1, 5547, Control_c, 0, 64, 82
1, 5562, Control_c, 0, 64, 81
1, 5577, Control_c, 0, 64, 80
1, 5592, Control_c, 0, 64, 79
1, 5607, Control_c, 0, 64, 74
1, 5621, Control_c, 0, 64, 69
1, 5636, Control_c, 0, 64, 64
1, 5651, Control_c, 0, 64, 60
1, 5695, Control_c, 0, 64, 61
1, 5740, Control_c, 0, 64, 61
1, 5843, Control_c, 0, 64, 62
1, 5902, Control_c, 0, 64, 61
1, 6022, Control_c, 0, 64, 61
1, 6027, Note_on_c, 0, 71, 40
1, 6066, Control_c, 0, 64, 60
1, 6081, Control_c, 0, 64, 59
1, 6096, Control_c, 0, 64, 59
1, 6111, Control_c, 0, 64, 58
1, 6125, Control_c, 0, 64, 58
1, 6140, Control_c, 0, 64, 57
1, 6155, Control_c, 0, 64, 56
1, 6170, Control_c, 0, 64, 55
1, 6185, Control_c, 0, 64, 54
1, 6200, Control_c, 0, 64, 53
1, 6237, Control_c, 0, 64, 52
1, 6266, Control_c, 0, 64, 52
1, 6281, Control_c, 0, 64, 51
1, 6296, Control_c, 0, 64, 49
1, 6325, Control_c, 0, 64, 49
1, 6370, Control_c, 0, 64, 49
1, 6388, Note_on_c, 0, 72, 45
1, 6400, Control_c, 0, 64, 50
1, 6415, Control_c, 0, 64, 50
1, 6444, Control_c, 0, 64, 51
1, 6444, Note_off_c, 0, 71, 58
1, 6533, Control_c, 0, 64, 51
1, 6544, Note_on_c, 0, 74, 53
1, 6582, Note_off_c, 0, 72, 63
1, 6592, Control_c, 0, 64, 51
1, 6607, Control_c, 0, 64, 50
1, 6636, Control_c, 0, 64, 51
1, 6651, Control_c, 0, 64, 52
1, 6666, Control_c, 0, 64, 56
1, 6681, Control_c, 0, 64, 62
1, 6696, Control_c, 0, 64, 67
1, 6710, Control_c, 0, 64, 73
1, 6725, Control_c, 0, 64, 78
1, 6740, Control_c, 0, 64, 82
1, 6754, Control_c, 0, 64, 85
1, 6765, Note_off_c, 0, 74, 63
1, 6769, Control_c, 0, 64, 89
1, 6785, Control_c, 0, 64, 91
1, 6800, Control_c, 0, 64, 93
1, 6815, Control_c, 0, 64, 94
1, 6830, Control_c, 0, 64, 95
1, 6845, Control_c, 0, 64, 96
1, 6859, Control_c, 0, 64, 96
1, 6986, Control_c, 0, 64, 95
1, 7000, Control_c, 0, 64, 92
1, 7009, Note_on_c, 0, 74, 47
1, 7015, Control_c, 0, 64, 87
1, 7030, Control_c, 0, 64, 80
1, 7045, Control_c, 0, 64, 72
1, 7060, Control_c, 0, 64, 64
1, 7074, Control_c, 0, 64, 48
1, 7089, Control_c, 0, 64, 34
1, 7104, Control_c, 0, 64, 38
1, 7119, Control_c, 0, 64, 47
1, 7134, Control_c, 0, 64, 57
1, 7148, Control_c, 0, 64, 64
1, 7163, Control_c, 0, 64, 67
1, 7178, Control_c, 0, 64, 72
1, 7193, Control_c, 0, 64, 76
1, 7208, Control_c, 0, 64, 80
1, 7217, Note_off_c, 0, 74, 64
1, 7222, Control_c, 0, 64, 83
1, 7238, Control_c, 0, 64, 84
1, 7253, Control_c, 0, 64, 85
1, 7267, Control_c, 0, 64, 86
1, 7282, Control_c, 0, 64, 87
1, 7297, Control_c, 0, 64, 87
1, 7312, Control_c, 0, 64, 88
1, 7342, Control_c, 0, 64, 88
1, 7490, Control_c, 0, 64, 87
1, 7497, Note_on_c, 0, 74, 45
1, 7505, Control_c, 0, 64, 83
1, 7520, Control_c, 0, 64, 78
1, 7534, Control_c, 0, 64, 71
1, 7549, Control_c, 0, 64, 64
1, 7564, Control_c, 0, 64, 51
1, 7580, Control_c, 0, 64, 48
1, 7595, Control_c, 0, 64, 51
1, 7609, Control_c, 0, 64, 57
1, 7624, Control_c, 0, 64, 62
1, 7639, Control_c, 0, 64, 66
1, 7654, Control_c, 0, 64, 71
1, 7669, Control_c, 0, 64, 75
1, 7683, Control_c, 0, 64, 78
1, 7698, Control_c, 0, 64, 80
1, 7720, Control_c, 0, 64, 81
1, 7735, Control_c, 0, 64, 82
1, 7750, Control_c, 0, 64, 83
1, 7760, Note_off_c, 0, 74, 54
1, 7765, Control_c, 0, 64, 84
1, 7795, Control_c, 0, 64, 84
1, 7943, Control_c, 0, 64, 84
1, 7958, Control_c, 0, 64, 83
1, 7959, Note_on_c, 0, 72, 54
1, 7973, Control_c, 0, 64, 81
1, 7987, Control_c, 0, 64, 79
1, 8002, Control_c, 0, 64, 76
1, 8016, Control_c, 0, 64, 72
1, 8031, Control_c, 0, 64, 68
1, 8046, Control_c, 0, 64, 65
1, 8061, Control_c, 0, 64, 64
1, 8135, Control_c, 0, 64, 64
1, 8149, Control_c, 0, 64, 64
1, 8164, Control_c, 0, 64, 65
1, 8179, Control_c, 0, 64, 66
1, 8194, Control_c, 0, 64, 68
1, 8209, Control_c, 0, 64, 70
1, 8224, Control_c, 0, 64, 73
1, 8239, Control_c, 0, 64, 75
1, 8254, Control_c, 0, 64, 76
1, 8269, Control_c, 0, 64, 77
1, 8337, Note_on_c, 0, 74, 46
1, 8426, Note_off_c, 0, 72, 55
1, 8447, Control_c, 0, 64, 76
1, 8469, Control_c, 0, 64, 74
1, 8484, Control_c, 0, 64, 72
1, 8499, Note_off_c, 0, 74, 53
1, 8499, Control_c, 0, 64, 69
1, 8513, Control_c, 0, 64, 65
1, 8516, Note_on_c, 0, 75, 54
1, 8528, Control_c, 0, 64, 63
1, 8543, Control_c, 0, 64, 62
1, 8558, Control_c, 0, 64, 62
1, 8573, Control_c, 0, 64, 61
1, 8588, Control_c, 0, 64, 60
1, 8603, Control_c, 0, 64, 59
1, 8617, Control_c, 0, 64, 58
1, 8632, Control_c, 0, 64, 57
1, 8647, Control_c, 0, 64, 56
1, 8662, Control_c, 0, 64, 54
1, 8677, Control_c, 0, 64, 54
1, 8692, Control_c, 0, 64, 53
1, 8706, Control_c, 0, 64, 52
1, 8869, Control_c, 0, 64, 53
1, 8884, Control_c, 0, 64, 53
1, 8899, Control_c, 0, 64, 54
1, 8972, Control_c, 0, 64, 54
1, 8987, Control_c, 0, 64, 55
1, 9017, Control_c, 0, 64, 55
1, 9062, Control_c, 0, 64, 56
1, 9106, Control_c, 0, 64, 56
1, 9121, Control_c, 0, 64, 57
1, 9181, Control_c, 0, 64, 57
1, 9233, Control_c, 0, 64, 58
1, 9246, Note_on_c, 0, 74, 32
1, 9262, Control_c, 0, 64, 58
1, 9299, Note_off_c, 0, 75, 57
1, 9322, Control_c, 0, 64, 59
1, 9351, Control_c, 0, 64, 59
1, 9381, Control_c, 0, 64, 60
1, 9395, Control_c, 0, 64, 60
1, 9410, Control_c, 0, 64, 61
1, 9425, Control_c, 0, 64, 61
1, 9440, Control_c, 0, 64, 62
1, 9470, Control_c, 0, 64, 62
1, 9485, Control_c, 0, 64, 63
1, 9515, Control_c, 0, 64, 62
1, 9544, Control_c, 0, 64, 62
1, 9546, Note_on_c, 0, 72, 37
1, 9559, Control_c, 0, 64, 61
1, 9574, Control_c, 0, 64, 58
1, 9579, Note_off_c, 0, 74, 55
1, 9588, Control_c, 0, 64, 54
1, 9603, Control_c, 0, 64, 50
1, 9618, Control_c, 0, 64, 46
1, 9633, Control_c, 0, 64, 44
1, 9648, Control_c, 0, 64, 42
1, 9662, Control_c, 0, 64, 43
1, 9677, Control_c, 0, 64, 50
1, 9692, Control_c, 0, 64, 62
1, 9707, Control_c, 0, 64, 68
1, 9722, Control_c, 0, 64, 74
1, 9736, Control_c, 0, 64, 79
1, 9751, Control_c, 0, 64, 82
1, 9766, Control_c, 0, 64, 84
1, 9772, Note_off_c, 0, 72, 61
1, 9780, Control_c, 0, 64, 85
1, 9795, Control_c, 0, 64, 87
1, 9810, Control_c, 0, 64, 88
1, 9825, Control_c, 0, 64, 88
1, 9855, Control_c, 0, 64, 89
1, 10026, Control_c, 0, 64, 88
1, 10056, Control_c, 0, 64, 87
1, 10063, Note_on_c, 0, 74, 46
1, 10071, Control_c, 0, 64, 86
1, 10085, Control_c, 0, 64, 85
1, 10100, Control_c, 0, 64, 82
1, 10115, Control_c, 0, 64, 79
1, 10130, Control_c, 0, 64, 76
1, 10145, Control_c, 0, 64, 72
1, 10159, Control_c, 0, 64, 70
1, 10174, Control_c, 0, 64, 68
1, 10189, Control_c, 0, 64, 67
1, 10204, Control_c, 0, 64, 67
1, 10218, Control_c, 0, 64, 66
1, 10248, Control_c, 0, 64, 66
1, 10323, Control_c, 0, 64, 65
1, 10406, Note_on_c, 0, 72, 46
1, 10456, Control_c, 0, 64, 65
1, 10500, Control_c, 0, 64, 64
1, 10509, Note_off_c, 0, 74, 33
1, 10529, Control_c, 0, 64, 64
1, 10555, Note_on_c, 0, 71, 48
1, 10574, Control_c, 0, 64, 63
1, 10603, Control_c, 0, 64, 63
1, 10614, Note_off_c, 0, 72, 55
1, 10633, Control_c, 0, 64, 62
1, 11068, Note_on_c, 0, 69, 50
1, 11183, Note_off_c, 0, 71, 37
1, 11250, Control_c, 0, 64, 63
1, 11339, Control_c, 0, 64, 63
1, 11414, Note_on_c, 0, 71, 44
1, 11510, Note_off_c, 0, 69, 58
1, 11580, Note_on_c, 0, 72, 47
1, 11652, Note_off_c, 0, 71, 60
1, 12117, Note_on_c, 0, 74, 41
1, 12206, Note_off_c, 0, 72, 64
1, 12544, Note_on_c, 0, 75, 36
1, 12552, Note_off_c, 0, 74, 47
1, 12764, Note_on_c, 0, 74, 44
1, 12822, Note_off_c, 0, 75, 39
1, 12909, Control_c, 0, 64, 64
1, 12938, Control_c, 0, 64, 64
1, 12990, Control_c, 0, 64, 65
1, 13020, Control_c, 0, 64, 65
1, 13079, Control_c, 0, 64, 66
1, 13109, Control_c, 0, 64, 66
1, 13124, Control_c, 0, 64, 67
1, 13168, Control_c, 0, 64, 67
1, 13184, Control_c, 0, 64, 68
1, 13199, Control_c, 0, 64, 68
1, 13214, Control_c, 0, 64, 69
1, 13228, Control_c, 0, 64, 69
1, 13243, Control_c, 0, 64, 70
1, 13258, Control_c, 0, 64, 70
1, 13273, Control_c, 0, 64, 71
1, 13288, Control_c, 0, 64, 72
1, 13302, Control_c, 0, 64, 72
1, 13317, Control_c, 0, 64, 73
1, 13332, Control_c, 0, 64, 74
1, 13346, Control_c, 0, 64, 75
1, 13361, Control_c, 0, 64, 76
1, 13376, Control_c, 0, 64, 77
1, 13391, Control_c, 0, 64, 78
1, 13406, Control_c, 0, 64, 79
1, 13421, Control_c, 0, 64, 80
1, 13435, Control_c, 0, 64, 81
1, 13450, Control_c, 0, 64, 82
1, 13465, Control_c, 0, 64, 83
1, 13480, Control_c, 0, 64, 84
1, 13495, Control_c, 0, 64, 85
1, 13509, Control_c, 0, 64, 86
1, 13524, Control_c, 0, 64, 87
1, 13539, Control_c, 0, 64, 88
1, 13554, Control_c, 0, 64, 89
1, 13569, Control_c, 0, 64, 90
1, 13584, Control_c, 0, 64, 91
1, 13599, Control_c, 0, 64, 92
1, 13613, Control_c, 0, 64, 93
1, 13628, Note_off_c, 0, 74, 36
1, 13643, Control_c, 0, 64, 93
1, 13658, Control_c, 0, 64, 94
1, 13673, Control_c, 0, 64, 94
1, 13688, Control_c, 0, 64, 95
1, 13709, Control_c, 0, 64, 95
1, 13739, Control_c, 0, 64, 96
1, 13798, Control_c, 0, 64, 96
1, 14274, Control_c, 0, 64, 96
1, 14289, Control_c, 0, 64, 94
1, 14304, Control_c, 0, 64, 90
1, 14318, Control_c, 0, 64, 83
1, 14333, Control_c, 0, 64, 74
1, 14348, Control_c, 0, 64, 66
1, 14363, Control_c, 0, 64, 61
1, 14371, Note_on_c, 0, 71, 47
1, 14372, Note_on_c, 0, 67, 40
1, 14377, Control_c, 0, 64, 64
1, 14380, Note_on_c, 0, 62, 40
1, 14383, Note_on_c, 0, 55, 36
1, 14392, Control_c, 0, 64, 71
1, 14407, Control_c, 0, 64, 78
1, 14421, Note_off_c, 0, 67, 50
1, 14422, Control_c, 0, 64, 85
1, 14426, Note_off_c, 0, 62, 46
1, 14427, Note_off_c, 0, 71, 55
1, 14435, Note_off_c, 0, 55, 51
1, 14437, Control_c, 0, 64, 90
1, 14459, Control_c, 0, 64, 92
1, 14474, Control_c, 0, 64, 93
1, 14489, Control_c, 0, 64, 94
1, 14504, Control_c, 0, 64, 94
1, 14533, Control_c, 0, 64, 95
1, 14548, Control_c, 0, 64, 95
1, 14681, Control_c, 0, 64, 94
1, 14696, Control_c, 0, 64, 90
1, 14706, Note_on_c, 0, 72, 58
1, 14708, Note_on_c, 0, 63, 55
1, 14710, Control_c, 0, 64, 84
1, 14718, Note_on_c, 0, 67, 53
1, 14725, Control_c, 0, 64, 76
1, 14726, Note_on_c, 0, 55, 40
1, 14740, Control_c, 0, 64, 64
1, 14746, Note_off_c, 0, 67, 57
1, 14748, Note_off_c, 0, 63, 61
1, 14750, Note_off_c, 0, 72, 61
1, 14755, Control_c, 0, 64, 0
1, 14759, Note_off_c, 0, 55, 52
1, 14845, Control_c, 0, 64, 47
1, 14845, Note_on_c, 0, 74, 54
1, 14853, Note_on_c, 0, 67, 47
1, 14854, Note_on_c, 0, 55, 44
1, 14857, Note_on_c, 0, 65, 52
1, 14859, Control_c, 0, 64, 68
1, 14874, Control_c, 0, 64, 76
1, 14885, Note_off_c, 0, 55, 63
1, 14886, Note_off_c, 0, 67, 64
1, 14889, Control_c, 0, 64, 83
1, 14893, Note_off_c, 0, 65, 66
1, 14896, Note_off_c, 0, 74, 65
1, 14904, Control_c, 0, 64, 87
1, 14919, Control_c, 0, 64, 89
1, 14934, Control_c, 0, 64, 90
1, 14948, Control_c, 0, 64, 91
1, 14963, Control_c, 0, 64, 92
1, 14978, Control_c, 0, 64, 92
1, 14992, Control_c, 0, 64, 93
1, 15096, Control_c, 0, 64, 92
1, 15111, Control_c, 0, 64, 92
1, 15125, Control_c, 0, 64, 91
1, 15140, Control_c, 0, 64, 88
1, 15155, Control_c, 0, 64, 82
1, 15170, Control_c, 0, 64, 75
1, 15185, Control_c, 0, 64, 66
1, 15207, Control_c, 0, 64, 51
1, 15222, Control_c, 0, 64, 0
1, 15296, Control_c, 0, 64, 40
1, 15299, Note_on_c, 0, 74, 56
1, 15309, Note_on_c, 0, 67, 48
1, 15310, Note_on_c, 0, 55, 41
1, 15311, Note_on_c, 0, 65, 50
1, 15311, Control_c, 0, 64, 65
1, 15325, Control_c, 0, 64, 74
1, 15340, Control_c, 0, 64, 81
1, 15348, Note_off_c, 0, 55, 65
1, 15348, Note_off_c, 0, 67, 65
1, 15351, Note_off_c, 0, 65, 65
1, 15352, Note_off_c, 0, 74, 64
1, 15355, Control_c, 0, 64, 85
1, 15370, Control_c, 0, 64, 86
1, 15385, Control_c, 0, 64, 86
1, 15399, Control_c, 0, 64, 87
1, 15563, Control_c, 0, 64, 86
1, 15578, Control_c, 0, 64, 84
1, 15593, Control_c, 0, 64, 81
1, 15608, Control_c, 0, 64, 75
1, 15623, Control_c, 0, 64, 68
1, 15638, Control_c, 0, 64, 59
1, 15652, Control_c, 0, 64, 37
1, 15667, Control_c, 0, 64, 0
1, 15733, Note_on_c, 0, 74, 53
1, 15739, Note_on_c, 0, 65, 49
1, 15740, Note_on_c, 0, 67, 45
1, 15741, Control_c, 0, 64, 58
1, 15744, Note_on_c, 0, 55, 38
1, 15756, Control_c, 0, 64, 67
1, 15771, Control_c, 0, 64, 73
1, 15779, Note_off_c, 0, 55, 64
1, 15783, Note_off_c, 0, 67, 63
1, 15786, Control_c, 0, 64, 79
1, 15795, Note_off_c, 0, 65, 63
1, 15799, Note_off_c, 0, 74, 60
1, 15801, Control_c, 0, 64, 82
1, 15816, Control_c, 0, 64, 83
1, 15986, Control_c, 0, 64, 83
1, 16016, Control_c, 0, 64, 82
1, 16030, Control_c, 0, 64, 80
1, 16045, Control_c, 0, 64, 77
1, 16060, Control_c, 0, 64, 71
1, 16075, Control_c, 0, 64, 65
1, 16090, Control_c, 0, 64, 51
1, 16104, Control_c, 0, 64, 31
1, 16119, Control_c, 0, 64, 0
1, 16187, Note_on_c, 0, 72, 58
1, 16192, Note_on_c, 0, 63, 53
1, 16193, Control_c, 0, 64, 60
1, 16200, Note_on_c, 0, 67, 49
1, 16206, Note_on_c, 0, 55, 38
1, 16208, Control_c, 0, 64, 69
1, 16222, Control_c, 0, 64, 74
1, 16237, Control_c, 0, 64, 78
1, 16243, Note_off_c, 0, 55, 64
1, 16243, Note_off_c, 0, 67, 63
1, 16247, Note_off_c, 0, 63, 62
1, 16252, Control_c, 0, 64, 80
1, 16256, Note_off_c, 0, 72, 64
1, 16267, Control_c, 0, 64, 81
1, 16282, Control_c, 0, 64, 82
1, 16505, Control_c, 0, 64, 81
1, 16520, Control_c, 0, 64, 80
1, 16522, Note_on_c, 0, 74, 62
1, 16535, Control_c, 0, 64, 78
1, 16539, Note_on_c, 0, 65, 47
1, 16544, Note_on_c, 0, 55, 46
1, 16550, Note_on_c, 0, 67, 41
1, 16550, Control_c, 0, 64, 73
1, 16565, Control_c, 0, 64, 67
1, 16565, Note_off_c, 0, 65, 58
1, 16570, Note_off_c, 0, 55, 57
1, 16574, Note_off_c, 0, 67, 55
1, 16579, Control_c, 0, 64, 58
1, 16582, Note_off_c, 0, 74, 63
1, 16594, Control_c, 0, 64, 32
1, 16609, Control_c, 0, 64, 0
1, 16660, Note_on_c, 0, 67, 55
1, 16660, Note_on_c, 0, 75, 73
1, 16676, Note_on_c, 0, 55, 40
1, 16726, Note_off_c, 0, 67, 0
1, 16726, Note_on_c, 0, 67, 14
1, 16734, Control_c, 0, 64, 61
1, 16749, Control_c, 0, 64, 67
1, 16764, Control_c, 0, 64, 70
1, 16779, Control_c, 0, 64, 73
1, 16786, Note_off_c, 0, 55, 64
1, 16794, Control_c, 0, 64, 74
1, 16809, Control_c, 0, 64, 76
1, 16824, Control_c, 0, 64, 77
1, 16839, Control_c, 0, 64, 77
1, 16853, Control_c, 0, 64, 78
1, 16868, Control_c, 0, 64, 78
1, 16883, Control_c, 0, 64, 79
1, 16898, Control_c, 0, 64, 79
1, 16913, Control_c, 0, 64, 80
1, 16927, Control_c, 0, 64, 80
1, 16972, Control_c, 0, 64, 81
1, 17032, Control_c, 0, 64, 80
1, 17046, Control_c, 0, 64, 75
1, 17061, Control_c, 0, 64, 67
1, 17076, Control_c, 0, 64, 52
1, 17090, Control_c, 0, 64, 0
1, 17114, Note_on_c, 0, 57, 49
1, 17120, Control_c, 0, 64, 39
1, 17135, Control_c, 0, 64, 62
1, 17150, Control_c, 0, 64, 68
1, 17165, Control_c, 0, 64, 73
1, 17166, Note_off_c, 0, 57, 61
1, 17168, Note_off_c, 0, 75, 66
1, 17181, Control_c, 0, 64, 77
1, 17195, Control_c, 0, 64, 78
1, 17210, Control_c, 0, 64, 79
1, 17225, Control_c, 0, 64, 79
1, 17240, Control_c, 0, 64, 80
1, 17247, Note_off_c, 0, 67, 53
1, 17432, Control_c, 0, 64, 79
1, 17450, Note_on_c, 0, 74, 52
1, 17455, Control_c, 0, 64, 77
1, 17459, Note_on_c, 0, 67, 52
1, 17461, Note_on_c, 0, 65, 43
1, 17462, Note_on_c, 0, 59, 47
1, 17470, Control_c, 0, 64, 72
1, 17484, Control_c, 0, 64, 66
1, 17485, Note_off_c, 0, 74, 63
1, 17486, Note_off_c, 0, 65, 58
1, 17491, Note_off_c, 0, 67, 54
1, 17499, Control_c, 0, 64, 49
1, 17510, Note_off_c, 0, 59, 58
1, 17514, Control_c, 0, 64, 0
1, 17585, Note_on_c, 0, 72, 57
1, 17594, Note_on_c, 0, 63, 55
1, 17596, Note_on_c, 0, 67, 44
1, 17601, Note_on_c, 0, 60, 48
1, 17602, Control_c, 0, 64, 40
1, 17617, Control_c, 0, 64, 67
1, 17632, Control_c, 0, 64, 72
1, 17641, Note_off_c, 0, 60, 64
1, 17641, Note_off_c, 0, 67, 48
1, 17647, Control_c, 0, 64, 76
1, 17649, Note_off_c, 0, 63, 56
1, 17662, Control_c, 0, 64, 78
1, 17665, Note_off_c, 0, 72, 64
1, 17676, Control_c, 0, 64, 80
1, 17691, Control_c, 0, 64, 81
1, 17706, Control_c, 0, 64, 82
1, 17721, Control_c, 0, 64, 82
1, 17840, Control_c, 0, 64, 82
1, 17869, Control_c, 0, 64, 81
1, 17884, Control_c, 0, 64, 80
1, 17899, Control_c, 0, 64, 77
1, 17913, Control_c, 0, 64, 73
1, 17928, Control_c, 0, 64, 67
1, 17943, Control_c, 0, 64, 57
1, 17958, Control_c, 0, 64, 16
1, 17974, Control_c, 0, 64, 0
1, 18057, Note_on_c, 0, 74, 51
1, 18059, Note_on_c, 0, 68, 49
1, 18063, Note_on_c, 0, 53, 45
1, 18063, Control_c, 0, 64, 47
1, 18065, Note_on_c, 0, 65, 46
1, 18078, Control_c, 0, 64, 68
1, 18092, Control_c, 0, 64, 76
1, 18107, Control_c, 0, 64, 80
1, 18113, Note_off_c, 0, 53, 62
1, 18114, Note_off_c, 0, 74, 63
1, 18118, Note_off_c, 0, 65, 62
1, 18122, Control_c, 0, 64, 82
1, 18127, Note_off_c, 0, 68, 64
1, 18137, Control_c, 0, 64, 82
1, 18151, Control_c, 0, 64, 83
1, 18166, Control_c, 0, 64, 83
1, 18181, Control_c, 0, 64, 84
1, 18204, Control_c, 0, 64, 84
1, 18380, Note_on_c, 0, 72, 61
1, 18392, Note_on_c, 0, 68, 60
1, 18399, Note_on_c, 0, 63, 53
1, 18405, Note_on_c, 0, 53, 46
1, 18411, Control_c, 0, 64, 84
1, 18423, Note_off_c, 0, 63, 61
1, 18425, Control_c, 0, 64, 81
1, 18427, Note_off_c, 0, 68, 60
1, 18428, Note_off_c, 0, 72, 63
1, 18440, Control_c, 0, 64, 74
1, 18444, Note_off_c, 0, 53, 53
1, 18455, Control_c, 0, 64, 65
1, 18469, Control_c, 0, 64, 0
1, 18506, Note_on_c, 0, 71, 60
1, 18518, Note_on_c, 0, 62, 49
1, 18523, Note_on_c, 0, 67, 45
1, 18536, Note_on_c, 0, 55, 33
1, 18588, Control_c, 0, 64, 23
1, 18603, Control_c, 0, 64, 64
1, 18617, Control_c, 0, 64, 69
1, 18632, Control_c, 0, 64, 73
1, 18647, Control_c, 0, 64, 76
1, 18657, Note_off_c, 0, 62, 56
1, 18662, Control_c, 0, 64, 78
1, 18667, Note_off_c, 0, 67, 55
1, 18677, Control_c, 0, 64, 79
1, 18682, Note_off_c, 0, 71, 53
1, 18691, Control_c, 0, 64, 79
1, 18706, Control_c, 0, 64, 80
1, 18736, Control_c, 0, 64, 81
1, 18766, Control_c, 0, 64, 81
1, 18855, Control_c, 0, 64, 79
1, 18870, Control_c, 0, 64, 74
1, 18885, Control_c, 0, 64, 66
1, 18900, Control_c, 0, 64, 42
1, 18914, Control_c, 0, 64, 0
1, 18969, Note_on_c, 0, 69, 52
1, 18976, Note_on_c, 0, 67, 48
1, 18981, Control_c, 0, 64, 41
1, 18982, Note_on_c, 0, 60, 41
1, 18996, Control_c, 0, 64, 65
1, 19011, Control_c, 0, 64, 70
1, 19025, Note_off_c, 0, 67, 58
1, 19026, Control_c, 0, 64, 74
1, 19033, Note_off_c, 0, 60, 45
1, 19041, Control_c, 0, 64, 77
1, 19044, Note_off_c, 0, 55, 50
1, 19047, Note_off_c, 0, 69, 61
1, 19055, Control_c, 0, 64, 78
1, 19070, Control_c, 0, 64, 79
1, 19100, Control_c, 0, 64, 79
1, 19307, Control_c, 0, 64, 78
1, 19311, Note_on_c, 0, 62, 55
1, 19316, Note_on_c, 0, 67, 56
1, 19316, Note_on_c, 0, 71, 54
1, 19322, Control_c, 0, 64, 74
1, 19328, Note_on_c, 0, 53, 51
1, 19337, Control_c, 0, 64, 64
1, 19342, Note_off_c, 0, 62, 58
1, 19349, Note_on_c, 0, 55, 25
1, 19350, Note_off_c, 0, 67, 59
1, 19352, Control_c, 0, 64, 0
1, 19358, Note_off_c, 0, 71, 62
1, 19360, Note_off_c, 0, 53, 54
1, 19392, Note_off_c, 0, 55, 40
1, 19429, Note_on_c, 0, 72, 66
1, 19442, Note_on_c, 0, 67, 54
1, 19447, Note_on_c, 0, 63, 50
1, 19450, Note_on_c, 0, 55, 34
1, 19450, Note_on_c, 0, 51, 50
1, 19470, Control_c, 0, 64, 64
1, 19485, Control_c, 0, 64, 70
1, 19498, Note_off_c, 0, 55, 63
1, 19499, Note_off_c, 0, 51, 63
1, 19499, Control_c, 0, 64, 74
1, 19514, Control_c, 0, 64, 78
1, 19516, Note_off_c, 0, 67, 58
1, 19519, Note_off_c, 0, 72, 63
1, 19525, Note_off_c, 0, 63, 61
1, 19529, Control_c, 0, 64, 80
1, 19544, Control_c, 0, 64, 81
1, 19560, Control_c, 0, 64, 81
1, 19575, Control_c, 0, 64, 82
1, 19804, Control_c, 0, 64, 81
1, 19819, Control_c, 0, 64, 79
1, 19834, Control_c, 0, 64, 75
1, 19849, Control_c, 0, 64, 68
1, 19863, Control_c, 0, 64, 53
1, 19878, Control_c, 0, 64, 0
1, 19930, Note_on_c, 0, 75, 61
1, 19939, Note_on_c, 0, 67, 50
1, 19946, Note_on_c, 0, 55, 43
1, 19947, Note_on_c, 0, 43, 44
1, 19967, Control_c, 0, 64, 63
1, 19982, Control_c, 0, 64, 69
1, 19996, Control_c, 0, 64, 73
1, 19998, Note_off_c, 0, 55, 64
1, 20005, Note_off_c, 0, 43, 58
1, 20011, Control_c, 0, 64, 77
1, 20026, Control_c, 0, 64, 79
1, 20029, Note_off_c, 0, 67, 61
1, 20032, Note_off_c, 0, 75, 57
1, 20041, Control_c, 0, 64, 81
1, 20056, Control_c, 0, 64, 81
1, 20070, Control_c, 0, 64, 82
1, 20085, Control_c, 0, 64, 83
1, 20100, Control_c, 0, 64, 83
1, 20130, Control_c, 0, 64, 84
1, 20249, Control_c, 0, 64, 80
1, 20263, Control_c, 0, 64, 72
1, 20278, Control_c, 0, 64, 57
1, 20293, Control_c, 0, 64, 0
1, 20308, Note_on_c, 0, 65, 54
1, 20308, Note_on_c, 0, 74, 54
1, 20322, Note_on_c, 0, 43, 35
1, 20323, Note_on_c, 0, 67, 37
1, 20337, Control_c, 0, 64, 49
1, 20352, Control_c, 0, 64, 66
1, 20355, Note_off_c, 0, 65, 62
1, 20368, Control_c, 0, 64, 72
1, 20371, Note_off_c, 0, 67, 44
1, 20377, Poly_aftertouch_c, 0, 55, 127
1, 20381, Note_off_c, 0, 74, 58
1, 20383, Control_c, 0, 64, 76
1, 20395, Note_off_c, 0, 43, 39
1, 20398, Control_c, 0, 64, 77
1, 20413, Poly_aftertouch_c, 0, 55, 0
1, 20479, Control_c, 0, 64, 76
1, 20493, Control_c, 0, 64, 75
1, 20499, Note_on_c, 0, 67, 48
1, 20503, Note_on_c, 0, 72, 60
1, 20508, Control_c, 0, 64, 71
1, 20510, Note_on_c, 0, 63, 50
1, 20522, Note_on_c, 0, 48, 42
1, 20523, Control_c, 0, 64, 66
1, 20527, Note_on_c, 0, 55, 26
1, 20538, Control_c, 0, 64, 56
1, 20553, Control_c, 0, 64, 30
1, 20568, Control_c, 0, 64, 0
1, 20968, Control_c, 0, 64, 18
1, 20983, Control_c, 0, 64, 31
1, 20998, Control_c, 0, 64, 39
1, 21012, Control_c, 0, 64, 43
1, 21027, Control_c, 0, 64, 47
1, 21042, Control_c, 0, 64, 51
1, 21057, Control_c, 0, 64, 54
1, 21072, Control_c, 0, 64, 56
1, 21087, Control_c, 0, 64, 58
1, 21102, Control_c, 0, 64, 60
1, 21116, Control_c, 0, 64, 62
1, 21131, Control_c, 0, 64, 63
1, 21146, Control_c, 0, 64, 63
1, 21161, Control_c, 0, 64, 64
1, 21176, Control_c, 0, 64, 65
1, 21199, Control_c, 0, 64, 67
1, 21214, Control_c, 0, 64, 68
1, 21229, Control_c, 0, 64, 69
1, 21243, Control_c, 0, 64, 69
1, 21258, Control_c, 0, 64, 71
1, 21273, Control_c, 0, 64, 72
1, 21288, Control_c, 0, 64, 74
1, 21303, Control_c, 0, 64, 76
1, 21317, Control_c, 0, 64, 77
1, 21332, Control_c, 0, 64, 78
1, 21347, Control_c, 0, 64, 79
1, 21362, Control_c, 0, 64, 80
1, 21376, Control_c, 0, 64, 81
1, 21391, Control_c, 0, 64, 82
1, 21406, Control_c, 0, 64, 82
1, 21421, Control_c, 0, 64, 83
1, 21436, Note_off_c, 0, 63, 57
1, 21436, Control_c, 0, 64, 83
1, 21450, Control_c, 0, 64, 84
1, 21465, Control_c, 0, 64, 84
1, 21488, Note_off_c, 0, 67, 52
1, 21495, Control_c, 0, 64, 85
1, 21695, Note_off_c, 0, 72, 47
1, 21880, Control_c, 0, 64, 84
1, 21947, Control_c, 0, 64, 84
1, 21992, Control_c, 0, 64, 83
1, 22037, Control_c, 0, 64, 83
1, 22066, Control_c, 0, 64, 82
1, 22081, Control_c, 0, 64, 82
1, 22096, Control_c, 0, 64, 81
1, 22111, Control_c, 0, 64, 80
1, 22125, Control_c, 0, 64, 79
1, 22140, Control_c, 0, 64, 78
1, 22155, Control_c, 0, 64, 77
1, 22170, Control_c, 0, 64, 75
1, 22180, Note_off_c, 0, 55, 42
1, 22185, Control_c, 0, 64, 73
1, 22199, Control_c, 0, 64, 72
1, 22214, Control_c, 0, 64, 70
1, 22228, Note_off_c, 0, 48, 41
1, 22229, Control_c, 0, 64, 69
1, 22231, Note_on_c, 0, 74, 47
1, 22244, Control_c, 0, 64, 68
1, 22259, Control_c, 0, 64, 68
1, 22273, Control_c, 0, 64, 67
1, 22303, Control_c, 0, 64, 67
1, 22318, Control_c, 0, 64, 66
1, 22333, Control_c, 0, 64, 66
1, 22348, Control_c, 0, 64, 65
1, 22362, Control_c, 0, 64, 65
1, 22377, Control_c, 0, 64, 64
1, 22392, Control_c, 0, 64, 64
1, 22437, Control_c, 0, 64, 63
1, 22466, Control_c, 0, 64, 63
1, 22496, Control_c, 0, 64, 62
1, 22510, Control_c, 0, 64, 62
1, 22525, Control_c, 0, 64, 61
1, 22540, Control_c, 0, 64, 60
1, 22555, Control_c, 0, 64, 60
1, 22570, Control_c, 0, 64, 59
1, 22581, Note_on_c, 0, 75, 55
1, 22584, Control_c, 0, 64, 59
1, 22599, Control_c, 0, 64, 58
1, 22614, Control_c, 0, 64, 57
1, 22629, Control_c, 0, 64, 56
1, 22644, Control_c, 0, 64, 55
1, 22650, Note_off_c, 0, 74, 64
1, 22658, Control_c, 0, 64, 54
1, 22673, Control_c, 0, 64, 53
1, 22696, Control_c, 0, 64, 50
1, 22710, Control_c, 0, 64, 47
1, 22725, Control_c, 0, 64, 43
1, 22740, Control_c, 0, 64, 39
1, 22751, Note_on_c, 0, 77, 63
1, 22755, Control_c, 0, 64, 36
1, 22771, Control_c, 0, 64, 31
1, 22782, Note_off_c, 0, 75, 65
1, 22786, Control_c, 0, 64, 18
1, 22801, Control_c, 0, 64, 0
1, 22875, Control_c, 0, 64, 26
1, 22889, Control_c, 0, 64, 47
1, 22904, Control_c, 0, 64, 62
1, 22919, Control_c, 0, 64, 68
1, 22934, Control_c, 0, 64, 73
1, 22948, Control_c, 0, 64, 78
1, 22962, Control_c, 0, 64, 81
1, 22977, Control_c, 0, 64, 83
1, 22988, Note_off_c, 0, 77, 59
1, 22992, Control_c, 0, 64, 84
1, 23007, Control_c, 0, 64, 85
1, 23021, Control_c, 0, 64, 86
1, 23036, Control_c, 0, 64, 87
1, 23227, Note_on_c, 0, 77, 59
1, 23229, Control_c, 0, 64, 86
1, 23244, Control_c, 0, 64, 84
1, 23259, Control_c, 0, 64, 79
1, 23274, Control_c, 0, 64, 73
1, 23288, Control_c, 0, 64, 66
1, 23303, Control_c, 0, 64, 56
1, 23318, Control_c, 0, 64, 47
1, 23332, Control_c, 0, 64, 52
1, 23347, Control_c, 0, 64, 60
1, 23362, Control_c, 0, 64, 65
1, 23377, Control_c, 0, 64, 69
1, 23392, Control_c, 0, 64, 72
1, 23406, Control_c, 0, 64, 76
1, 23418, Note_off_c, 0, 77, 60
1, 23421, Control_c, 0, 64, 78
1, 23444, Control_c, 0, 64, 79
1, 23458, Control_c, 0, 64, 80
1, 23473, Control_c, 0, 64, 81
1, 23488, Control_c, 0, 64, 82
1, 23503, Control_c, 0, 64, 82
1, 23518, Control_c, 0, 64, 83
1, 23690, Note_on_c, 0, 77, 59
1, 23697, Control_c, 0, 64, 81
1, 23712, Control_c, 0, 64, 78
1, 23727, Control_c, 0, 64, 74
1, 23742, Control_c, 0, 64, 67
1, 23757, Control_c, 0, 64, 58
1, 23771, Control_c, 0, 64, 44
1, 23801, Control_c, 0, 64, 50
1, 23816, Control_c, 0, 64, 57
1, 23831, Control_c, 0, 64, 64
1, 23845, Control_c, 0, 64, 68
1, 23860, Control_c, 0, 64, 72
1, 23875, Control_c, 0, 64, 76
1, 23889, Control_c, 0, 64, 78
1, 23904, Control_c, 0, 64, 79
1, 23919, Control_c, 0, 64, 80
1, 23934, Control_c, 0, 64, 81
1, 23949, Control_c, 0, 64, 82
1, 23963, Control_c, 0, 64, 82
1, 23978, Control_c, 0, 64, 83
1, 24008, Control_c, 0, 64, 84
1, 24049, Note_off_c, 0, 77, 32
1, 24193, Control_c, 0, 64, 83
1, 24202, Note_on_c, 0, 75, 61
1, 24208, Control_c, 0, 64, 82
1, 24223, Control_c, 0, 64, 80
1, 24237, Control_c, 0, 64, 79
1, 24252, Control_c, 0, 64, 77
1, 24267, Control_c, 0, 64, 75
1, 24282, Control_c, 0, 64, 72
1, 24297, Control_c, 0, 64, 69
1, 24312, Control_c, 0, 64, 66
1, 24327, Control_c, 0, 64, 65
1, 24386, Control_c, 0, 64, 64
1, 24401, Control_c, 0, 64, 64
1, 24461, Control_c, 0, 64, 63
1, 24475, Control_c, 0, 64, 63
1, 24564, Control_c, 0, 64, 62
1, 24580, Note_on_c, 0, 74, 60
1, 24593, Control_c, 0, 64, 62
1, 24623, Control_c, 0, 64, 61
1, 24658, Note_off_c, 0, 75, 61
1, 24682, Control_c, 0, 64, 61
1, 24702, Note_off_c, 0, 74, 56
1, 24711, Control_c, 0, 64, 60
1, 24726, Control_c, 0, 64, 60
1, 24758, Note_on_c, 0, 79, 64
1, 24771, Control_c, 0, 64, 59
1, 24786, Control_c, 0, 64, 58
1, 24801, Control_c, 0, 64, 57
1, 24816, Control_c, 0, 64, 57
1, 24846, Control_c, 0, 64, 56
1, 24860, Control_c, 0, 64, 56
1, 24890, Control_c, 0, 64, 55
1, 24904, Control_c, 0, 64, 54
1, 24919, Control_c, 0, 64, 53
1, 24941, Control_c, 0, 64, 52
1, 24956, Control_c, 0, 64, 52
1, 24986, Control_c, 0, 64, 51
1, 25001, Control_c, 0, 64, 51
1, 25075, Control_c, 0, 64, 51
1, 25119, Control_c, 0, 64, 52
1, 25194, Control_c, 0, 64, 52
1, 25505, Note_on_c, 0, 77, 42
1, 25594, Control_c, 0, 64, 53
1, 25600, Note_off_c, 0, 79, 55
1, 25608, Control_c, 0, 64, 53
1, 25667, Control_c, 0, 64, 54
1, 25689, Control_c, 0, 64, 54
1, 25704, Control_c, 0, 64, 55
1, 25719, Control_c, 0, 64, 55
1, 25749, Control_c, 0, 64, 56
1, 25779, Control_c, 0, 64, 55
1, 25808, Control_c, 0, 64, 54
1, 25820, Note_on_c, 0, 75, 37
1, 25823, Control_c, 0, 64, 54
1, 25838, Control_c, 0, 64, 52
1, 25853, Control_c, 0, 64, 51
1, 25858, Note_off_c, 0, 77, 56
1, 25867, Control_c, 0, 64, 49
1, 25882, Control_c, 0, 64, 46
1, 25897, Control_c, 0, 64, 42
1, 25912, Control_c, 0, 64, 38
1, 25927, Control_c, 0, 64, 39
1, 25941, Control_c, 0, 64, 46
1, 25957, Control_c, 0, 64, 59
1, 25972, Control_c, 0, 64, 66
1, 25987, Control_c, 0, 64, 71
1, 26002, Control_c, 0, 64, 76
1, 26016, Note_off_c, 0, 75, 65
1, 26017, Control_c, 0, 64, 80
1, 26031, Control_c, 0, 64, 82
1, 26046, Control_c, 0, 64, 83
1, 26061, Control_c, 0, 64, 84
1, 26076, Control_c, 0, 64, 85
1, 26105, Control_c, 0, 64, 86
1, 26297, Control_c, 0, 64, 85
1, 26312, Control_c, 0, 64, 85
1, 26327, Control_c, 0, 64, 84
1, 26342, Control_c, 0, 64, 83
1, 26351, Note_on_c, 0, 74, 45
1, 26357, Control_c, 0, 64, 81
1, 26372, Control_c, 0, 64, 79
1, 26387, Control_c, 0, 64, 76
1, 26402, Control_c, 0, 64, 74
1, 26416, Control_c, 0, 64, 72
1, 26438, Control_c, 0, 64, 71
1, 26453, Control_c, 0, 64, 70
1, 26468, Control_c, 0, 64, 69
1, 26482, Control_c, 0, 64, 68
1, 26497, Control_c, 0, 64, 67
1, 26527, Control_c, 0, 64, 67
1, 26586, Control_c, 0, 64, 66
1, 26616, Control_c, 0, 64, 66
1, 26646, Control_c, 0, 64, 65
1, 26676, Control_c, 0, 64, 65
1, 26706, Control_c, 0, 64, 64
1, 26712, Note_on_c, 0, 72, 48
1, 26735, Control_c, 0, 64, 64
1, 26766, Control_c, 0, 64, 63
1, 26780, Control_c, 0, 64, 62
1, 26795, Control_c, 0, 64, 62
1, 26819, Note_off_c, 0, 74, 33
1, 26825, Control_c, 0, 64, 61
1, 26840, Control_c, 0, 64, 61
1, 26855, Control_c, 0, 64, 60
1, 26860, Note_on_c, 0, 71, 51
1, 26870, Control_c, 0, 64, 59
1, 26884, Control_c, 0, 64, 58
1, 26899, Control_c, 0, 64, 57
1, 26913, Note_off_c, 0, 72, 49
1, 26914, Control_c, 0, 64, 57
1, 26929, Control_c, 0, 64, 56
1, 26944, Control_c, 0, 64, 55
1, 26959, Control_c, 0, 64, 54
1, 27136, Control_c, 0, 64, 55
1, 27188, Control_c, 0, 64, 55
1, 27292, Control_c, 0, 64, 56
1, 27349, Note_on_c, 0, 69, 48
1, 27400, Note_off_c, 0, 71, 58
1, 27440, Control_c, 0, 64, 55
1, 27603, Control_c, 0, 64, 55
1, 27648, Control_c, 0, 64, 55
1, 27694, Note_on_c, 0, 71, 49
1, 27753, Note_off_c, 0, 69, 59
1, 27852, Note_on_c, 0, 72, 47
1, 27934, Note_off_c, 0, 71, 60
1, 28041, Control_c, 0, 64, 55
1, 28100, Control_c, 0, 64, 54
1, 28159, Control_c, 0, 64, 54
1, 28392, Note_on_c, 0, 77, 48
1, 28456, Control_c, 0, 64, 53
1, 28500, Control_c, 0, 64, 53
1, 28533, Note_off_c, 0, 72, 56
1, 28745, Control_c, 0, 64, 52
1, 28804, Note_on_c, 0, 75, 41
1, 28879, Note_off_c, 0, 77, 34
1, 29019, Note_on_c, 0, 74, 41
1, 29049, Note_off_c, 0, 75, 52
1, 29084, Control_c, 0, 64, 53
1, 29099, Control_c, 0, 64, 53
1, 29129, Control_c, 0, 64, 54
1, 29145, Control_c, 0, 64, 54
1, 29160, Control_c, 0, 64, 55
1, 29174, Control_c, 0, 64, 56
1, 29189, Control_c, 0, 64, 57
1, 29204, Control_c, 0, 64, 58
1, 29219, Control_c, 0, 64, 59
1, 29234, Control_c, 0, 64, 60
1, 29248, Control_c, 0, 64, 61
1, 29263, Control_c, 0, 64, 62
1, 29278, Control_c, 0, 64, 62
1, 29293, Control_c, 0, 64, 63
1, 29308, Control_c, 0, 64, 63
1, 29323, Control_c, 0, 64, 64
1, 29338, Control_c, 0, 64, 65
1, 29353, Control_c, 0, 64, 65
1, 29368, Control_c, 0, 64, 66
1, 29382, Control_c, 0, 64, 67
1, 29397, Control_c, 0, 64, 68
1, 29412, Control_c, 0, 64, 69
1, 29434, Control_c, 0, 64, 70
1, 29449, Control_c, 0, 64, 71
1, 29463, Control_c, 0, 64, 72
1, 29478, Control_c, 0, 64, 75
1, 29493, Control_c, 0, 64, 76
1, 29508, Control_c, 0, 64, 78
1, 29523, Control_c, 0, 64, 79
1, 29537, Control_c, 0, 64, 80
1, 29552, Control_c, 0, 64, 81
1, 29567, Control_c, 0, 64, 83
1, 29582, Control_c, 0, 64, 84
1, 29597, Control_c, 0, 64, 85
1, 29612, Control_c, 0, 64, 86
1, 29627, Control_c, 0, 64, 86
1, 29642, Control_c, 0, 64, 87
1, 29656, Control_c, 0, 64, 88
1, 29671, Control_c, 0, 64, 88
1, 29686, Control_c, 0, 64, 89
1, 29715, Control_c, 0, 64, 89
1, 29745, Control_c, 0, 64, 90
1, 29767, Note_off_c, 0, 74, 34
1, 29789, Control_c, 0, 64, 90
1, 30524, Control_c, 0, 64, 90
1, 30539, Control_c, 0, 64, 87
1, 30554, Control_c, 0, 64, 81
1, 30569, Control_c, 0, 64, 74
1, 30584, Control_c, 0, 64, 67
1, 30598, Control_c, 0, 64, 60
1, 30613, Control_c, 0, 64, 59
1, 30620, Note_on_c, 0, 70, 46
1, 30622, Note_on_c, 0, 58, 50
1, 30623, Note_on_c, 0, 74, 48
1, 30628, Control_c, 0, 64, 64
1, 30628, Note_on_c, 0, 65, 42
1, 30643, Control_c, 0, 64, 71
1, 30654, Note_off_c, 0, 58, 66
1, 30657, Note_off_c, 0, 70, 55
1, 30657, Control_c, 0, 64, 77
1, 30663, Note_off_c, 0, 65, 53
1, 30670, Note_off_c, 0, 74, 61
1, 30672, Control_c, 0, 64, 83
1, 30687, Control_c, 0, 64, 85
1, 30702, Control_c, 0, 64, 85
1, 30717, Control_c, 0, 64, 86
1, 30731, Control_c, 0, 64, 87
1, 30792, Control_c, 0, 64, 87
1, 30933, Control_c, 0, 64, 86
1, 30947, Control_c, 0, 64, 83
1, 30956, Note_on_c, 0, 58, 53
1, 30959, Note_on_c, 0, 67, 59
1, 30962, Note_on_c, 0, 75, 62
1, 30962, Control_c, 0, 64, 77
1, 30977, Control_c, 0, 64, 70
1, 30978, Note_on_c, 0, 70, 44
1, 30990, Note_off_c, 0, 67, 56
1, 30992, Control_c, 0, 64, 58
1, 30998, Note_off_c, 0, 58, 61
1, 31001, Note_off_c, 0, 70, 58
1, 31005, Note_off_c, 0, 75, 63
1, 31007, Control_c, 0, 64, 0
1, 31082, Note_on_c, 0, 70, 57
1, 31088, Note_on_c, 0, 77, 64
1, 31095, Control_c, 0, 64, 64
1, 31099, Note_on_c, 0, 58, 54
1, 31100, Note_on_c, 0, 68, 54
1, 31110, Control_c, 0, 64, 72
1, 31125, Control_c, 0, 64, 78
1, 31126, Note_off_c, 0, 68, 61
1, 31127, Note_off_c, 0, 58, 65
1, 31129, Note_off_c, 0, 70, 64
1, 31140, Control_c, 0, 64, 81
1, 31141, Note_off_c, 0, 77, 61
1, 31154, Control_c, 0, 64, 82
1, 31169, Control_c, 0, 64, 83
1, 31184, Control_c, 0, 64, 84
1, 31199, Control_c, 0, 64, 85
1, 31214, Control_c, 0, 64, 85
1, 31392, Control_c, 0, 64, 83
1, 31406, Control_c, 0, 64, 81
1, 31421, Control_c, 0, 64, 76
1, 31436, Control_c, 0, 64, 68
1, 31451, Control_c, 0, 64, 55
1, 31466, Control_c, 0, 64, 0
1, 31523, Note_on_c, 0, 77, 65
1, 31531, Note_on_c, 0, 58, 48
1, 31536, Note_on_c, 0, 68, 53
1, 31538, Note_on_c, 0, 70, 47
1, 31540, Control_c, 0, 64, 58
1, 31556, Control_c, 0, 64, 68
1, 31563, Note_off_c, 0, 70, 59
1, 31566, Note_off_c, 0, 58, 65
1, 31567, Note_off_c, 0, 68, 62
1, 31570, Control_c, 0, 64, 73
1, 31573, Note_off_c, 0, 77, 59
1, 31585, Control_c, 0, 64, 77
1, 31600, Control_c, 0, 64, 79
1, 31615, Control_c, 0, 64, 80
1, 31630, Control_c, 0, 64, 81
1, 31644, Control_c, 0, 64, 81
1, 31859, Control_c, 0, 64, 81
1, 31874, Control_c, 0, 64, 78
1, 31889, Control_c, 0, 64, 74
1, 31903, Control_c, 0, 64, 67
1, 31918, Control_c, 0, 64, 51
1, 31933, Control_c, 0, 64, 0
1, 31982, Note_on_c, 0, 77, 62
1, 31989, Note_on_c, 0, 68, 53
1, 31992, Control_c, 0, 64, 57
1, 31994, Note_on_c, 0, 58, 45
1, 31994, Note_on_c, 0, 70, 46
1, 32007, Control_c, 0, 64, 67
1, 32022, Control_c, 0, 64, 73
1, 32025, Note_off_c, 0, 70, 58
1, 32036, Note_off_c, 0, 58, 65
1, 32037, Control_c, 0, 64, 77
1, 32041, Note_off_c, 0, 68, 60
1, 32042, Note_off_c, 0, 77, 57
1, 32051, Control_c, 0, 64, 80
1, 32066, Control_c, 0, 64, 81
1, 32081, Control_c, 0, 64, 81
1, 32095, Control_c, 0, 64, 82
1, 32110, Control_c, 0, 64, 82
1, 32155, Control_c, 0, 64, 83
1, 32333, Control_c, 0, 64, 82
1, 32348, Control_c, 0, 64, 77
1, 32363, Control_c, 0, 64, 68
1, 32378, Control_c, 0, 64, 46
1, 32393, Control_c, 0, 64, 0
1, 32405, Note_on_c, 0, 75, 63
1, 32422, Note_on_c, 0, 58, 46
1, 32429, Note_on_c, 0, 70, 54
1, 32432, Note_on_c, 0, 67, 53
1, 32445, Control_c, 0, 64, 61
1, 32460, Control_c, 0, 64, 69
1, 32474, Control_c, 0, 64, 75
1, 32489, Control_c, 0, 64, 80
1, 32494, Note_off_c, 0, 67, 62
1, 32503, Note_off_c, 0, 70, 62
1, 32504, Control_c, 0, 64, 81
1, 32512, Note_off_c, 0, 58, 62
1, 32519, Control_c, 0, 64, 82
1, 32520, Note_off_c, 0, 75, 64
1, 32533, Control_c, 0, 64, 83
1, 32548, Control_c, 0, 64, 83
1, 32563, Control_c, 0, 64, 84
1, 32767, Note_on_c, 0, 74, 61
1, 32775, Note_on_c, 0, 65, 55
1, 32775, Note_on_c, 0, 58, 51
1, 32783, Note_on_c, 0, 70, 56
1, 32806, Note_off_c, 0, 70, 60
1, 32808, Note_off_c, 0, 65, 56
1, 32820, Note_off_c, 0, 58, 60
1, 32822, Note_off_c, 0, 74, 62
1, 32830, Control_c, 0, 64, 83
1, 32844, Control_c, 0, 64, 81
1, 32859, Control_c, 0, 64, 75
1, 32874, Control_c, 0, 64, 67
1, 32889, Control_c, 0, 64, 48
1, 32904, Control_c, 0, 64, 0
1, 32906, Note_on_c, 0, 70, 62
1, 32906, Note_on_c, 0, 79, 76
1, 32931, Note_on_c, 0, 58, 46
1, 33007, Control_c, 0, 64, 62
1, 33022, Control_c, 0, 64, 67
1, 33037, Control_c, 0, 64, 69
1, 33052, Control_c, 0, 64, 72
1, 33067, Control_c, 0, 64, 74
1, 33080, Note_off_c, 0, 58, 60
1, 33082, Control_c, 0, 64, 77
1, 33097, Control_c, 0, 64, 79
1, 33112, Control_c, 0, 64, 81
1, 33126, Control_c, 0, 64, 83
1, 33141, Control_c, 0, 64, 84
1, 33156, Control_c, 0, 64, 85
1, 33179, Control_c, 0, 64, 86
1, 33194, Control_c, 0, 64, 87
1, 33209, Control_c, 0, 64, 87
1, 33238, Control_c, 0, 64, 88
1, 33312, Control_c, 0, 64, 87
1, 33327, Control_c, 0, 64, 84
1, 33342, Control_c, 0, 64, 77
1, 33356, Control_c, 0, 64, 68
1, 33371, Control_c, 0, 64, 53
1, 33383, Note_on_c, 0, 60, 49
1, 33386, Control_c, 0, 64, 0
1, 33401, Control_c, 0, 64, 41
1, 33416, Control_c, 0, 64, 62
1, 33431, Control_c, 0, 64, 68
1, 33445, Control_c, 0, 64, 73
1, 33460, Control_c, 0, 64, 76
1, 33472, Note_off_c, 0, 60, 61
1, 33475, Control_c, 0, 64, 78
1, 33490, Control_c, 0, 64, 79
1, 33492, Note_off_c, 0, 79, 41
1, 33505, Control_c, 0, 64, 79
1, 33520, Control_c, 0, 64, 80
1, 33547, Note_off_c, 0, 70, 29
1, 33549, Control_c, 0, 64, 80
1, 33696, Note_on_c, 0, 77, 63
1, 33697, Control_c, 0, 64, 80
1, 33698, Note_on_c, 0, 68, 57
1, 33708, Note_on_c, 0, 62, 50
1, 33712, Control_c, 0, 64, 77
1, 33717, Note_on_c, 0, 70, 45
1, 33727, Control_c, 0, 64, 72
1, 33741, Note_off_c, 0, 70, 57
1, 33741, Control_c, 0, 64, 65
1, 33742, Note_off_c, 0, 68, 64
1, 33747, Note_off_c, 0, 77, 54
1, 33756, Note_off_c, 0, 62, 57
1, 33756, Control_c, 0, 64, 44
1, 33771, Control_c, 0, 64, 0
1, 33835, Note_on_c, 0, 75, 56
1, 33836, Note_on_c, 0, 70, 58
1, 33836, Note_on_c, 0, 63, 45
1, 33837, Note_on_c, 0, 67, 47
1, 33860, Control_c, 0, 64, 57
1, 33875, Control_c, 0, 64, 70
1, 33876, Note_off_c, 0, 70, 60
1, 33882, Note_off_c, 0, 63, 63
1, 33887, Note_off_c, 0, 67, 58
1, 33890, Control_c, 0, 64, 74
1, 33900, Note_off_c, 0, 75, 64
1, 33904, Control_c, 0, 64, 77
1, 33927, Control_c, 0, 64, 79
1, 33942, Control_c, 0, 64, 80
1, 33958, Control_c, 0, 64, 81
1, 33972, Control_c, 0, 64, 81
1, 34105, Control_c, 0, 64, 81
1, 34120, Control_c, 0, 64, 80
1, 34135, Control_c, 0, 64, 77
1, 34150, Control_c, 0, 64, 73
1, 34165, Control_c, 0, 64, 68
1, 34179, Control_c, 0, 64, 64
1, 34194, Control_c, 0, 64, 62
1, 34209, Control_c, 0, 64, 61
1, 34224, Control_c, 0, 64, 54
1, 34239, Control_c, 0, 64, 25
1, 34253, Control_c, 0, 64, 0
1, 34341, Note_on_c, 0, 74, 57
1, 34350, Note_on_c, 0, 68, 58
1, 34355, Note_on_c, 0, 65, 49
1, 34355, Note_on_c, 0, 53, 40
1, 34358, Control_c, 0, 64, 53
1, 34372, Control_c, 0, 64, 69
1, 34387, Note_off_c, 0, 74, 64
1, 34387, Control_c, 0, 64, 75
1, 34398, Note_off_c, 0, 65, 63
1, 34399, Note_off_c, 0, 68, 62
1, 34402, Control_c, 0, 64, 79
1, 34402, Note_off_c, 0, 53, 63
1, 34417, Control_c, 0, 64, 80
1, 34432, Control_c, 0, 64, 81
1, 34446, Control_c, 0, 64, 82
1, 34461, Control_c, 0, 64, 82
1, 34476, Control_c, 0, 64, 83
1, 34683, Note_on_c, 0, 72, 62
1, 34691, Control_c, 0, 64, 82
1, 34694, Note_on_c, 0, 68, 57
1, 34696, Note_on_c, 0, 63, 53
1, 34697, Note_on_c, 0, 53, 49
1, 34706, Control_c, 0, 64, 78
1, 34720, Note_off_c, 0, 68, 57
1, 34721, Control_c, 0, 64, 70
1, 34721, Note_off_c, 0, 72, 60
1, 34727, Note_off_c, 0, 63, 59
1, 34731, Note_off_c, 0, 53, 56
1, 34736, Control_c, 0, 64, 53
1, 34751, Control_c, 0, 64, 0
1, 34811, Note_on_c, 0, 71, 58
1, 34812, Note_on_c, 0, 62, 50
1, 34819, Note_on_c, 0, 55, 45
1, 34820, Note_on_c, 0, 67, 46
1, 34870, Control_c, 0, 64, 53
1, 34885, Control_c, 0, 64, 67
1, 34900, Control_c, 0, 64, 71
1, 34915, Control_c, 0, 64, 75
1, 34919, Note_off_c, 0, 67, 62
1, 34922, Note_off_c, 0, 62, 57
1, 34925, Note_off_c, 0, 71, 60
1, 34929, Control_c, 0, 64, 78
1, 34944, Control_c, 0, 64, 79
1, 34959, Control_c, 0, 64, 80
1, 34974, Control_c, 0, 64, 80
1, 35003, Control_c, 0, 64, 81
1, 35136, Control_c, 0, 64, 80
1, 35151, Control_c, 0, 64, 76
1, 35166, Control_c, 0, 64, 70
1, 35181, Control_c, 0, 64, 60
1, 35195, Control_c, 0, 64, 0
1, 35256, Note_on_c, 0, 69, 57
1, 35261, Note_on_c, 0, 67, 49
1, 35261, Note_on_c, 0, 60, 47
1, 35285, Control_c, 0, 64, 62
1, 35300, Control_c, 0, 64, 70
1, 35303, Note_off_c, 0, 55, 57
1, 35303, Note_off_c, 0, 60, 48
1, 35304, Note_off_c, 0, 67, 61
1, 35314, Control_c, 0, 64, 75
1, 35323, Note_off_c, 0, 69, 61
1, 35329, Control_c, 0, 64, 77
1, 35344, Control_c, 0, 64, 78
1, 35359, Control_c, 0, 64, 78
1, 35374, Control_c, 0, 64, 79
1, 35388, Control_c, 0, 64, 79
1, 35587, Note_on_c, 0, 62, 61
1, 35591, Note_on_c, 0, 71, 61
1, 35602, Note_on_c, 0, 67, 51
1, 35604, Note_on_c, 0, 53, 49
1, 35604, Control_c, 0, 64, 77
1, 35619, Control_c, 0, 64, 72
1, 35624, Note_off_c, 0, 62, 63
1, 35627, Note_off_c, 0, 67, 57
1, 35627, Note_on_c, 0, 55, 20
1, 35633, Note_off_c, 0, 53, 58
1, 35633, Control_c, 0, 64, 63
1, 35639, Note_off_c, 0, 71, 60
1, 35648, Control_c, 0, 64, 0
1, 35664, Note_off_c, 0, 55, 41
1, 35706, Note_on_c, 0, 72, 69
1, 35720, Note_on_c, 0, 67, 52
1, 35727, Note_on_c, 0, 55, 45
1, 35728, Note_on_c, 0, 63, 50
1, 35730, Note_on_c, 0, 51, 50
1, 35738, Control_c, 0, 64, 18
1, 35752, Control_c, 0, 64, 65
1, 35762, Note_off_c, 0, 51, 64
1, 35764, Note_off_c, 0, 55, 66
1, 35766, Note_off_c, 0, 63, 57
1, 35767, Control_c, 0, 64, 71
1, 35770, Note_off_c, 0, 67, 62
1, 35776, Note_off_c, 0, 72, 65
1, 35782, Control_c, 0, 64, 75
1, 35797, Control_c, 0, 64, 78
1, 35812, Control_c, 0, 64, 79
1, 35826, Control_c, 0, 64, 80
1, 35841, Control_c, 0, 64, 81
1, 35870, Control_c, 0, 64, 81
1, 36063, Control_c, 0, 64, 81
1, 36078, Control_c, 0, 64, 80
1, 36092, Control_c, 0, 64, 79
1, 36107, Control_c, 0, 64, 75
1, 36122, Control_c, 0, 64, 66
1, 36137, Control_c, 0, 64, 29
1, 36152, Control_c, 0, 64, 0
1, 36205, Note_on_c, 0, 75, 62
1, 36212, Note_on_c, 0, 67, 51
1, 36218, Note_on_c, 0, 55, 36
1, 36221, Note_on_c, 0, 43, 43
1, 36233, Control_c, 0, 64, 55
1, 36248, Control_c, 0, 64, 67
1, 36263, Control_c, 0, 64, 72
1, 36265, Note_off_c, 0, 55, 64
1, 36267, Note_off_c, 0, 43, 59
1, 36277, Control_c, 0, 64, 76
1, 36280, Note_off_c, 0, 67, 63
1, 36289, Note_off_c, 0, 75, 62
1, 36292, Control_c, 0, 64, 79
1, 36307, Control_c, 0, 64, 80
1, 36322, Control_c, 0, 64, 81
1, 36337, Control_c, 0, 64, 82
1, 36353, Control_c, 0, 64, 82
1, 36367, Control_c, 0, 64, 83
1, 36382, Control_c, 0, 64, 83
1, 36412, Control_c, 0, 64, 84
1, 36516, Control_c, 0, 64, 81
1, 36531, Control_c, 0, 64, 74
1, 36546, Control_c, 0, 64, 64
1, 36560, Control_c, 0, 64, 0
1, 36579, Note_on_c, 0, 74, 53
1, 36582, Note_on_c, 0, 65, 48
1, 36590, Note_on_c, 0, 43, 34
1, 36593, Note_on_c, 0, 67, 40
1, 36596, Note_on_c, 0, 55, 31
1, 36605, Control_c, 0, 64, 42
1, 36620, Control_c, 0, 64, 66
1, 36624, Note_off_c, 0, 65, 65
1, 36635, Control_c, 0, 64, 72
1, 36635, Note_off_c, 0, 67, 54
1, 36642, Note_off_c, 0, 74, 58
1, 36650, Control_c, 0, 64, 77
1, 36653, Note_off_c, 0, 55, 43
1, 36654, Note_off_c, 0, 43, 42
1, 36665, Control_c, 0, 64, 78
1, 36680, Control_c, 0, 64, 79
1, 36754, Control_c, 0, 64, 76
1, 36760, Note_on_c, 0, 67, 48
1, 36760, Note_on_c, 0, 72, 60
1, 36768, Control_c, 0, 64, 72
1, 36770, Note_on_c, 0, 48, 49
1, 36772, Note_on_c, 0, 63, 41
1, 36782, Note_on_c, 0, 55, 33
1, 36783, Control_c, 0, 64, 65
1, 36798, Control_c, 0, 64, 54
1, 36813, Note_off_c, 0, 67, 0
1, 36813, Note_on_c, 0, 67, 7
1, 36813, Control_c, 0, 64, 39
1, 36828, Control_c, 0, 64, 34
1, 36842, Control_c, 0, 64, 33
1, 36857, Control_c, 0, 64, 29
1, 36872, Control_c, 0, 64, 20
1, 36886, Control_c, 0, 64, 0
1, 37013, Control_c, 0, 64, 14
1, 37027, Control_c, 0, 64, 18
1, 37042, Control_c, 0, 64, 25
1, 37057, Control_c, 0, 64, 30
1, 37072, Control_c, 0, 64, 34
1, 37087, Control_c, 0, 64, 40
1, 37101, Control_c, 0, 64, 44
1, 37116, Control_c, 0, 64, 49
1, 37131, Control_c, 0, 64, 55
1, 37147, Control_c, 0, 64, 58
1, 37162, Control_c, 0, 64, 60
1, 37177, Control_c, 0, 64, 61
1, 37190, Control_c, 0, 64, 62
1, 37205, Control_c, 0, 64, 62
1, 37220, Control_c, 0, 64, 63
1, 37235, Control_c, 0, 64, 63
1, 37250, Control_c, 0, 64, 64
1, 37264, Control_c, 0, 64, 64
1, 37294, Control_c, 0, 64, 65
1, 37309, Control_c, 0, 64, 66
1, 37324, Control_c, 0, 64, 66
1, 37338, Control_c, 0, 64, 67
1, 37353, Control_c, 0, 64, 67
1, 37368, Control_c, 0, 64, 68
1, 37383, Control_c, 0, 64, 69
1, 37398, Control_c, 0, 64, 70
1, 37413, Control_c, 0, 64, 71
1, 37428, Control_c, 0, 64, 72
1, 37442, Control_c, 0, 64, 74
1, 37457, Control_c, 0, 64, 75
1, 37472, Control_c, 0, 64, 76
1, 37487, Control_c, 0, 64, 77
1, 37502, Control_c, 0, 64, 78
1, 37516, Control_c, 0, 64, 80
1, 37531, Control_c, 0, 64, 81
1, 37546, Control_c, 0, 64, 83
1, 37561, Control_c, 0, 64, 84
1, 37576, Control_c, 0, 64, 85
1, 37588, Note_off_c, 0, 63, 42
1, 37590, Control_c, 0, 64, 85
1, 37605, Control_c, 0, 64, 86
1, 37620, Control_c, 0, 64, 86
1, 37634, Control_c, 0, 64, 87
1, 37650, Note_off_c, 0, 67, 42
1, 37672, Control_c, 0, 64, 87
1, 37763, Note_off_c, 0, 72, 50
1, 38043, Control_c, 0, 64, 87
1, 38102, Control_c, 0, 64, 86
1, 38146, Control_c, 0, 64, 86
1, 38176, Control_c, 0, 64, 85
1, 38191, Control_c, 0, 64, 85
1, 38221, Control_c, 0, 64, 84
1, 38236, Control_c, 0, 64, 84
1, 38251, Control_c, 0, 64, 83
1, 38265, Control_c, 0, 64, 83
1, 38280, Control_c, 0, 64, 82
1, 38295, Control_c, 0, 64, 81
1, 38310, Control_c, 0, 64, 80
1, 38325, Control_c, 0, 64, 79
1, 38339, Control_c, 0, 64, 78
1, 38354, Control_c, 0, 64, 77
1, 38369, Control_c, 0, 64, 75
1, 38376, Note_off_c, 0, 55, 43
1, 38384, Control_c, 0, 64, 74
1, 38399, Control_c, 0, 64, 73
1, 38421, Control_c, 0, 64, 72
1, 38435, Control_c, 0, 64, 72
1, 38450, Control_c, 0, 64, 71
1, 38453, Note_off_c, 0, 48, 43
1, 38465, Control_c, 0, 64, 71
1, 38480, Control_c, 0, 64, 70
1, 38510, Control_c, 0, 64, 70
1, 38518, Note_on_c, 0, 71, 54
1, 38525, Control_c, 0, 64, 69
1, 38539, Control_c, 0, 64, 69
1, 38554, Control_c, 0, 64, 68
1, 38569, Control_c, 0, 64, 67
1, 38584, Control_c, 0, 64, 67
1, 38599, Control_c, 0, 64, 66
1, 38613, Control_c, 0, 64, 65
1, 38628, Control_c, 0, 64, 64
1, 38643, Control_c, 0, 64, 64
1, 38658, Control_c, 0, 64, 63
1, 38687, Control_c, 0, 64, 62
1, 38702, Control_c, 0, 64, 62
1, 38717, Control_c, 0, 64, 61
1, 38732, Control_c, 0, 64, 59
1, 38748, Control_c, 0, 64, 57
1, 38762, Control_c, 0, 64, 55
1, 38777, Control_c, 0, 64, 55
1, 38792, Control_c, 0, 64, 54
1, 38807, Control_c, 0, 64, 53
1, 38822, Control_c, 0, 64, 51
1, 38836, Control_c, 0, 64, 51
1, 38866, Control_c, 0, 64, 51
1, 38881, Control_c, 0, 64, 52
1, 38892, Note_on_c, 0, 72, 51
1, 38910, Control_c, 0, 64, 52
1, 38940, Control_c, 0, 64, 53
1, 38950, Note_off_c, 0, 71, 62
1, 39014, Control_c, 0, 64, 52
1, 39044, Control_c, 0, 64, 52
1, 39058, Note_on_c, 0, 74, 64
1, 39058, Control_c, 0, 64, 51
1, 39073, Control_c, 0, 64, 50
1, 39079, Note_off_c, 0, 72, 66
1, 39088, Control_c, 0, 64, 46
1, 39103, Control_c, 0, 64, 37
1, 39118, Control_c, 0, 64, 23
1, 39133, Control_c, 0, 64, 0
1, 39169, Control_c, 0, 64, 16
1, 39184, Control_c, 0, 64, 43
1, 39199, Control_c, 0, 64, 60
1, 39213, Control_c, 0, 64, 67
1, 39228, Control_c, 0, 64, 74
1, 39243, Control_c, 0, 64, 81
1, 39258, Control_c, 0, 64, 86
1, 39273, Control_c, 0, 64, 88
1, 39288, Control_c, 0, 64, 90
1, 39303, Control_c, 0, 64, 92
1, 39310, Note_off_c, 0, 74, 63
1, 39318, Control_c, 0, 64, 93
1, 39333, Control_c, 0, 64, 94
1, 39348, Control_c, 0, 64, 95
1, 39362, Control_c, 0, 64, 95
1, 39377, Control_c, 0, 64, 96
1, 39392, Control_c, 0, 64, 96
1, 39406, Control_c, 0, 64, 97
1, 39421, Control_c, 0, 64, 97
1, 39435, Control_c, 0, 64, 98
1, 39509, Control_c, 0, 64, 97
1, 39517, Note_on_c, 0, 74, 72
1, 39524, Control_c, 0, 64, 92
1, 39528, Note_on_c, 0, 71, 61
1, 39529, Note_on_c, 0, 68, 61
1, 39536, Note_on_c, 0, 65, 56
1, 39540, Control_c, 0, 64, 84
1, 39555, Control_c, 0, 64, 73
1, 39570, Control_c, 0, 64, 63
1, 39584, Control_c, 0, 64, 0
1, 39644, Control_c, 0, 64, 39
1, 39658, Control_c, 0, 64, 61
1, 39673, Control_c, 0, 64, 67
1, 39688, Control_c, 0, 64, 71
1, 39703, Control_c, 0, 64, 76
1, 39717, Control_c, 0, 64, 81
1, 39732, Control_c, 0, 64, 83
1, 39747, Control_c, 0, 64, 85
1, 39762, Control_c, 0, 64, 88
1, 39777, Control_c, 0, 64, 90
1, 39780, Note_off_c, 0, 65, 66
1, 39792, Control_c, 0, 64, 91
1, 39807, Control_c, 0, 64, 92
1, 39816, Note_off_c, 0, 68, 63
1, 39822, Control_c, 0, 64, 92
1, 39836, Control_c, 0, 64, 93
1, 39842, Note_off_c, 0, 71, 54
1, 39851, Control_c, 0, 64, 94
1, 39865, Note_off_c, 0, 74, 53
1, 39866, Control_c, 0, 64, 94
1, 39992, Control_c, 0, 64, 94
1, 40007, Control_c, 0, 64, 91
1, 40020, Note_on_c, 0, 74, 68
1, 40022, Control_c, 0, 64, 84
1, 40027, Note_on_c, 0, 66, 63
1, 40033, Note_on_c, 0, 69, 58
1, 40033, Note_on_c, 0, 72, 62
1, 40036, Control_c, 0, 64, 75
1, 40051, Control_c, 0, 64, 65
1, 40066, Control_c, 0, 64, 0
1, 40170, Control_c, 0, 64, 57
1, 40185, Control_c, 0, 64, 66
1, 40200, Control_c, 0, 64, 71
1, 40215, Control_c, 0, 64, 75
1, 40230, Control_c, 0, 64, 78
1, 40245, Control_c, 0, 64, 81
1, 40260, Control_c, 0, 64, 83
1, 40275, Control_c, 0, 64, 84
1, 40285, Note_off_c, 0, 66, 64
1, 40290, Control_c, 0, 64, 86
1, 40300, Note_off_c, 0, 72, 53
1, 40304, Control_c, 0, 64, 87
1, 40319, Control_c, 0, 64, 89
1, 40327, Note_off_c, 0, 69, 49
1, 40334, Control_c, 0, 64, 90
1, 40349, Control_c, 0, 64, 90
1, 40364, Control_c, 0, 64, 91
1, 40394, Control_c, 0, 64, 91
1, 40454, Control_c, 0, 64, 91
1, 40468, Control_c, 0, 64, 88
1, 40483, Control_c, 0, 64, 81
1, 40495, Note_on_c, 0, 69, 56
1, 40496, Note_on_c, 0, 66, 62
1, 40498, Note_on_c, 0, 72, 70
1, 40498, Control_c, 0, 64, 71
1, 40501, Note_on_c, 0, 62, 55
1, 40513, Control_c, 0, 64, 56
1, 40528, Control_c, 0, 64, 0
1, 40554, Note_off_c, 0, 74, 63
1, 40631, Control_c, 0, 64, 63
1, 40646, Control_c, 0, 64, 69
1, 40668, Control_c, 0, 64, 74
1, 40683, Control_c, 0, 64, 81
1, 40698, Control_c, 0, 64, 85
1, 40713, Control_c, 0, 64, 88
1, 40728, Control_c, 0, 64, 90
1, 40742, Control_c, 0, 64, 93
1, 40757, Control_c, 0, 64, 95
1, 40763, Note_off_c, 0, 62, 57
1, 40772, Control_c, 0, 64, 97
1, 40787, Control_c, 0, 64, 98
1, 40803, Note_off_c, 0, 66, 65
1, 40846, Control_c, 0, 64, 98
1, 40861, Note_on_c, 0, 74, 68
1, 40907, Note_off_c, 0, 72, 63
1, 40922, Note_off_c, 0, 69, 61
1, 41008, Control_c, 0, 64, 98
1, 41022, Note_off_c, 0, 74, 62
1, 41059, Note_on_c, 0, 69, 52
1, 41065, Note_on_c, 0, 66, 54
1, 41068, Control_c, 0, 64, 97
1, 41074, Note_on_c, 0, 72, 60
1, 41080, Note_on_c, 0, 60, 48
1, 41083, Control_c, 0, 64, 95
1, 41097, Control_c, 0, 64, 92
1, 41112, Control_c, 0, 64, 88
1, 41128, Control_c, 0, 64, 83
1, 41143, Control_c, 0, 64, 78
1, 41151, Note_on_c, 0, 74, 63
1, 41157, Control_c, 0, 64, 70
1, 41165, Note_off_c, 0, 72, 59
1, 41172, Control_c, 0, 64, 64
1, 41187, Control_c, 0, 64, 56
1, 41202, Control_c, 0, 64, 49
1, 41217, Control_c, 0, 64, 47
1, 41232, Control_c, 0, 64, 46
1, 41246, Control_c, 0, 64, 40
1, 41261, Control_c, 0, 64, 23
1, 41266, Note_on_c, 0, 75, 70
1, 41276, Control_c, 0, 64, 0
1, 41309, Note_off_c, 0, 74, 61
1, 41609, Control_c, 0, 64, 11
1, 41624, Control_c, 0, 64, 14
1, 41669, Control_c, 0, 64, 16
1, 41683, Control_c, 0, 64, 23
1, 41698, Control_c, 0, 64, 25
1, 41713, Control_c, 0, 64, 22
1, 41728, Control_c, 0, 64, 20
1, 41787, Control_c, 0, 64, 18
1, 41802, Control_c, 0, 64, 16
1, 41820, Note_on_c, 0, 74, 56
1, 41854, Note_on_c, 0, 62, 30
1, 41895, Note_off_c, 0, 75, 58
1, 41944, Note_off_c, 0, 60, 38
1, 41980, Control_c, 0, 64, 18
1, 41995, Control_c, 0, 64, 22
1, 42010, Control_c, 0, 64, 25
1, 42024, Control_c, 0, 64, 26
1, 42054, Control_c, 0, 64, 25
1, 42069, Control_c, 0, 64, 22
1, 42084, Control_c, 0, 64, 11
1, 42099, Control_c, 0, 64, 0
1, 42119, Note_on_c, 0, 72, 55
1, 42123, Note_on_c, 0, 63, 32
1, 42144, Note_off_c, 0, 62, 38
1, 42188, Note_off_c, 0, 74, 62
1, 42269, Control_c, 0, 64, 56
1, 42284, Control_c, 0, 64, 68
1, 42299, Control_c, 0, 64, 76
1, 42310, Note_off_c, 0, 66, 65
1, 42314, Control_c, 0, 64, 81
1, 42329, Control_c, 0, 64, 85
1, 42338, Note_off_c, 0, 72, 62
1, 42341, Note_off_c, 0, 63, 59
1, 42343, Control_c, 0, 64, 86
1, 42358, Control_c, 0, 64, 87
1, 42373, Control_c, 0, 64, 88
1, 42388, Control_c, 0, 64, 88
1, 42403, Control_c, 0, 64, 89
1, 42415, Note_off_c, 0, 69, 55
1, 42418, Control_c, 0, 64, 89
1, 42432, Control_c, 0, 64, 90
1, 42566, Control_c, 0, 64, 89
1, 42580, Control_c, 0, 64, 84
1, 42595, Control_c, 0, 64, 75
1, 42605, Note_on_c, 0, 54, 44
1, 42605, Note_on_c, 0, 69, 57
1, 42606, Note_on_c, 0, 74, 53
1, 42608, Note_on_c, 0, 62, 40
1, 42610, Control_c, 0, 64, 63
1, 42625, Control_c, 0, 64, 0
1, 42713, Control_c, 0, 64, 60
1, 42729, Control_c, 0, 64, 69
1, 42744, Control_c, 0, 64, 75
1, 42759, Control_c, 0, 64, 79
1, 42774, Control_c, 0, 64, 81
1, 42789, Control_c, 0, 64, 82
1, 42803, Control_c, 0, 64, 83
1, 42804, Note_off_c, 0, 54, 54
1, 42818, Control_c, 0, 64, 83
1, 42833, Control_c, 0, 64, 84
1, 42847, Note_off_c, 0, 74, 56
1, 42848, Control_c, 0, 64, 84
1, 42944, Note_off_c, 0, 69, 51
1, 42950, Note_off_c, 0, 62, 18
1, 42952, Note_on_c, 0, 72, 56
1, 42974, Control_c, 0, 64, 80
1, 42978, Note_off_c, 0, 72, 57
1, 42989, Control_c, 0, 64, 73
1, 43003, Control_c, 0, 64, 61
1, 43018, Control_c, 0, 64, 0
1, 43054, Note_on_c, 0, 62, 33
1, 43057, Note_on_c, 0, 71, 53
1, 43063, Note_on_c, 0, 67, 51
1, 43071, Note_on_c, 0, 55, 45
1, 43107, Control_c, 0, 64, 61
1, 43122, Control_c, 0, 64, 71
1, 43129, Note_off_c, 0, 67, 61
1, 43136, Control_c, 0, 64, 77
1, 43137, Note_off_c, 0, 62, 59
1, 43143, Note_off_c, 0, 55, 62
1, 43145, Note_off_c, 0, 71, 62
1, 43151, Control_c, 0, 64, 81
1, 43166, Control_c, 0, 64, 83
1, 43181, Control_c, 0, 64, 83
1, 43196, Control_c, 0, 64, 84
1, 43211, Control_c, 0, 64, 85
1, 43226, Control_c, 0, 64, 86
1, 43241, Control_c, 0, 64, 86
1, 43389, Control_c, 0, 64, 85
1, 43404, Control_c, 0, 64, 80
1, 43419, Control_c, 0, 64, 72
1, 43434, Control_c, 0, 64, 59
1, 43449, Control_c, 0, 64, 0
1, 43500, Note_on_c, 0, 69, 54
1, 43511, Note_on_c, 0, 67, 45
1, 43515, Note_on_c, 0, 62, 42
1, 43516, Note_on_c, 0, 53, 48
1, 43530, Note_on_c, 0, 55, 35
1, 43539, Control_c, 0, 64, 63
1, 43553, Control_c, 0, 64, 72
1, 43556, Note_off_c, 0, 62, 62
1, 43557, Note_off_c, 0, 53, 66
1, 43560, Note_off_c, 0, 55, 57
1, 43567, Note_off_c, 0, 69, 66
1, 43568, Control_c, 0, 64, 78
1, 43575, Note_off_c, 0, 67, 61
1, 43583, Control_c, 0, 64, 82
1, 43598, Control_c, 0, 64, 82
1, 43627, Control_c, 0, 64, 83
1, 43664, Control_c, 0, 64, 83
1, 43840, Note_on_c, 0, 71, 62
1, 43840, Note_on_c, 0, 62, 49
1, 43842, Control_c, 0, 64, 82
1, 43855, Note_on_c, 0, 55, 41
1, 43857, Control_c, 0, 64, 78
1, 43862, Note_on_c, 0, 67, 42
1, 43870, Note_off_c, 0, 62, 54
1, 43872, Control_c, 0, 64, 69
1, 43878, Note_on_c, 0, 53, 4
1, 43882, Note_off_c, 0, 71, 57
1, 43886, Control_c, 0, 64, 41
1, 43890, Note_off_c, 0, 55, 51
1, 43893, Note_off_c, 0, 67, 52
1, 43901, Control_c, 0, 64, 0
1, 43923, Note_off_c, 0, 53, 33
1, 43960, Note_on_c, 0, 72, 63
1, 43977, Note_on_c, 0, 67, 57
1, 43978, Note_on_c, 0, 60, 54
1, 43986, Note_on_c, 0, 51, 39
1, 43989, Control_c, 0, 64, 34
1, 43993, Note_on_c, 0, 55, 40
1, 44004, Control_c, 0, 64, 67
1, 44014, Note_off_c, 0, 67, 63
1, 44018, Note_off_c, 0, 60, 61
1, 44019, Control_c, 0, 64, 74
1, 44022, Note_off_c, 0, 51, 51
1, 44024, Note_off_c, 0, 55, 56
1, 44033, Note_off_c, 0, 72, 65
1, 44034, Control_c, 0, 64, 78
1, 44049, Control_c, 0, 64, 80
1, 44063, Control_c, 0, 64, 80
1, 44078, Control_c, 0, 64, 81
1, 44093, Control_c, 0, 64, 81
1, 44256, Control_c, 0, 64, 81
1, 44271, Control_c, 0, 64, 80
1, 44285, Control_c, 0, 64, 78
1, 44300, Control_c, 0, 64, 72
1, 44315, Control_c, 0, 64, 63
1, 44331, Control_c, 0, 64, 0
1, 44415, Note_on_c, 0, 74, 58
1, 44427, Note_on_c, 0, 50, 46
1, 44427, Note_on_c, 0, 67, 49
1, 44430, Note_on_c, 0, 59, 38
1, 44438, Note_on_c, 0, 55, 37
1, 44442, Control_c, 0, 64, 32
1, 44457, Control_c, 0, 64, 66
1, 44463, Note_off_c, 0, 59, 56
1, 44464, Note_off_c, 0, 50, 65
1, 44469, Note_off_c, 0, 55, 58
1, 44472, Control_c, 0, 64, 73
1, 44486, Note_off_c, 0, 67, 59
1, 44487, Control_c, 0, 64, 78
1, 44490, Note_off_c, 0, 74, 64
1, 44502, Control_c, 0, 64, 81
1, 44516, Control_c, 0, 64, 82
1, 44531, Control_c, 0, 64, 82
1, 44546, Control_c, 0, 64, 83
1, 44561, Control_c, 0, 64, 84
1, 44576, Control_c, 0, 64, 84
1, 44590, Control_c, 0, 64, 85
1, 44605, Control_c, 0, 64, 85
1, 44649, Control_c, 0, 64, 86
1, 44694, Control_c, 0, 64, 85
1, 44708, Control_c, 0, 64, 84
1, 44723, Control_c, 0, 64, 77
1, 44738, Control_c, 0, 64, 65
1, 44753, Control_c, 0, 64, 0
1, 44764, Note_on_c, 0, 75, 58
1, 44776, Note_on_c, 0, 67, 47
1, 44778, Note_on_c, 0, 48, 45
1, 44779, Note_on_c, 0, 60, 44
1, 44810, Note_off_c, 0, 60, 57
1, 44812, Control_c, 0, 64, 55
1, 44816, Note_off_c, 0, 67, 53
1, 44817, Note_off_c, 0, 48, 50
1, 44818, Note_on_c, 0, 55, 4
1, 44820, Note_off_c, 0, 75, 57
1, 44827, Control_c, 0, 64, 68
1, 44841, Control_c, 0, 64, 71
1, 44856, Control_c, 0, 64, 72
1, 44862, Note_off_c, 0, 55, 38
1, 44871, Control_c, 0, 64, 72
1, 44886, Control_c, 0, 64, 69
1, 44901, Control_c, 0, 64, 65
1, 44907, Note_on_c, 0, 74, 60
1, 44916, Control_c, 0, 64, 58
1, 44922, Note_on_c, 0, 59, 52
1, 44922, Note_on_c, 0, 67, 51
1, 44923, Note_on_c, 0, 55, 37
1, 44931, Control_c, 0, 64, 46
1, 44946, Control_c, 0, 64, 39
1, 44961, Control_c, 0, 64, 26
1, 44975, Control_c, 0, 64, 0
1, 45250, Control_c, 0, 64, 26
1, 45265, Control_c, 0, 64, 41
1, 45280, Control_c, 0, 64, 46
1, 45295, Control_c, 0, 64, 47
1, 45309, Control_c, 0, 64, 48
1, 45324, Control_c, 0, 64, 51
1, 45339, Control_c, 0, 64, 55
1, 45354, Control_c, 0, 64, 58
1, 45369, Control_c, 0, 64, 61
1, 45384, Control_c, 0, 64, 62
1, 45399, Control_c, 0, 64, 63
1, 45413, Control_c, 0, 64, 64
1, 45428, Control_c, 0, 64, 64
1, 45443, Control_c, 0, 64, 65
1, 45457, Control_c, 0, 64, 66
1, 45472, Control_c, 0, 64, 67
1, 45487, Control_c, 0, 64, 69
1, 45502, Control_c, 0, 64, 70
1, 45517, Control_c, 0, 64, 72
1, 45531, Control_c, 0, 64, 74
1, 45546, Control_c, 0, 64, 76
1, 45561, Control_c, 0, 64, 77
1, 45576, Control_c, 0, 64, 80
1, 45591, Control_c, 0, 64, 82
1, 45605, Control_c, 0, 64, 84
1, 45620, Control_c, 0, 64, 86
1, 45635, Control_c, 0, 64, 89
1, 45649, Control_c, 0, 64, 92
1, 45649, Control_c, 0, 67, 124
1, 45664, Control_c, 0, 64, 95
1, 45664, Control_c, 0, 67, 118
1, 45679, Control_c, 0, 64, 98
1, 45679, Control_c, 0, 67, 111
1, 45694, Control_c, 0, 64, 101
1, 45694, Control_c, 0, 67, 102
1, 45709, Control_c, 0, 64, 104
1, 45709, Control_c, 0, 67, 91
1, 45724, Control_c, 0, 64, 108
1, 45724, Control_c, 0, 67, 81
1, 45736, Note_off_c, 0, 59, 40
1, 45739, Control_c, 0, 64, 114
1, 45739, Control_c, 0, 67, 71
1, 45754, Control_c, 0, 64, 120
1, 45754, Control_c, 0, 67, 58
1, 45768, Control_c, 0, 64, 127
1, 45768, Control_c, 0, 67, 43
1, 45783, Control_c, 0, 67, 26
1, 45798, Control_c, 0, 67, 11
1, 45811, Note_off_c, 0, 67, 54
1, 45813, Control_c, 0, 67, 0
1, 45868, Note_off_c, 0, 74, 63
1, 45938, Note_off_c, 0, 55, 41
1, 46458, Control_c, 0, 64, 113
1, 46472, Control_c, 0, 64, 93
1, 46480, Note_on_c, 0, 71, 91
1, 46482, Note_on_c, 0, 62, 84
1, 46482, Note_on_c, 0, 67, 86
1, 46487, Control_c, 0, 64, 75
1, 46488, Note_on_c, 0, 55, 82
1, 46491, Note_on_c, 0, 43, 84
1, 46502, Control_c, 0, 64, 0
1, 46561, Control_c, 0, 64, 40
1, 46576, Control_c, 0, 64, 69
1, 46591, Control_c, 0, 64, 80
1, 46606, Control_c, 0, 64, 94
1, 46621, Control_c, 0, 64, 101
1, 46636, Control_c, 0, 64, 105
1, 46658, Control_c, 0, 64, 108
1, 46666, Note_off_c, 0, 55, 65
1, 46669, Note_off_c, 0, 43, 61
1, 46669, Note_off_c, 0, 62, 62
1, 46673, Control_c, 0, 64, 113
1, 46678, Note_on_c, 0, 45, 23
1, 46679, Note_off_c, 0, 67, 58
1, 46687, Control_c, 0, 64, 117
1, 46690, Note_off_c, 0, 71, 58
1, 46702, Control_c, 0, 64, 123
1, 46717, Note_off_c, 0, 45, 54
1, 46717, Control_c, 0, 64, 127
1, 46839, Note_on_c, 0, 72, 85
1, 46843, Note_on_c, 0, 55, 79
1, 46844, Note_on_c, 0, 63, 85
1, 46845, Note_on_c, 0, 67, 82
1, 46851, Note_on_c, 0, 43, 70
1, 46881, Note_off_c, 0, 43, 65
1, 46881, Control_c, 0, 64, 120
1, 46889, Note_off_c, 0, 63, 64
1, 46890, Note_off_c, 0, 55, 61
1, 46896, Control_c, 0, 64, 95
1, 46898, Note_off_c, 0, 67, 59
1, 46904, Note_off_c, 0, 72, 62
1, 46910, Control_c, 0, 64, 76
1, 46926, Control_c, 0, 64, 31
1, 46941, Control_c, 0, 64, 0
1, 46946, Note_on_c, 0, 67, 81
1, 46949, Note_on_c, 0, 74, 95
1, 46951, Note_on_c, 0, 65, 88
1, 46953, Note_on_c, 0, 43, 84
1, 46953, Note_on_c, 0, 55, 83
1, 47059, Control_c, 0, 64, 70
1, 47074, Control_c, 0, 64, 81
1, 47089, Control_c, 0, 64, 91
1, 47095, Note_off_c, 0, 43, 60
1, 47104, Control_c, 0, 64, 97
1, 47116, Note_off_c, 0, 65, 64
1, 47119, Control_c, 0, 64, 103
1, 47125, Note_off_c, 0, 55, 63
1, 47127, Note_off_c, 0, 74, 61
1, 47134, Control_c, 0, 64, 109
1, 47149, Control_c, 0, 64, 115
1, 47164, Control_c, 0, 64, 121
1, 47169, Note_off_c, 0, 67, 59
1, 47178, Control_c, 0, 64, 127
1, 47370, Control_c, 0, 64, 108
1, 47385, Control_c, 0, 64, 91
1, 47407, Note_on_c, 0, 74, 92
1, 47408, Control_c, 0, 64, 73
1, 47409, Note_on_c, 0, 65, 88
1, 47409, Note_on_c, 0, 67, 89
1, 47420, Note_on_c, 0, 55, 78
1, 47423, Control_c, 0, 64, 0
1, 47425, Note_on_c, 0, 43, 77
1, 47511, Control_c, 0, 64, 67
1, 47527, Control_c, 0, 64, 76
1, 47542, Control_c, 0, 64, 84
1, 47557, Control_c, 0, 64, 90
1, 47572, Control_c, 0, 64, 93
1, 47578, Note_off_c, 0, 43, 60
1, 47587, Control_c, 0, 64, 96
1, 47596, Note_off_c, 0, 55, 64
1, 47601, Control_c, 0, 64, 98
1, 47616, Control_c, 0, 64, 101
1, 47629, Note_off_c, 0, 74, 60
1, 47631, Control_c, 0, 64, 104
1, 47644, Note_off_c, 0, 65, 51
1, 47646, Control_c, 0, 64, 106
1, 47652, Note_off_c, 0, 67, 62
1, 47660, Control_c, 0, 64, 108
1, 47674, Control_c, 0, 64, 110
1, 47689, Control_c, 0, 64, 111
1, 47704, Control_c, 0, 64, 112
1, 47719, Control_c, 0, 64, 113
1, 47733, Control_c, 0, 64, 115
1, 47748, Control_c, 0, 64, 117
1, 47763, Control_c, 0, 64, 118
1, 47837, Control_c, 0, 64, 117
1, 47852, Control_c, 0, 64, 108
1, 47867, Control_c, 0, 64, 94
1, 47876, Note_on_c, 0, 74, 92
1, 47880, Note_on_c, 0, 65, 88
1, 47880, Note_on_c, 0, 67, 81
1, 47882, Control_c, 0, 64, 77
1, 47887, Note_on_c, 0, 55, 74
1, 47890, Note_on_c, 0, 43, 73
1, 47897, Control_c, 0, 64, 52
1, 47912, Control_c, 0, 64, 0
1, 47971, Control_c, 0, 64, 42
1, 47985, Control_c, 0, 64, 69
1, 48000, Control_c, 0, 64, 77
1, 48015, Control_c, 0, 64, 87
1, 48030, Control_c, 0, 64, 95
1, 48031, Note_off_c, 0, 43, 61
1, 48034, Note_off_c, 0, 55, 66
1, 48044, Control_c, 0, 64, 100
1, 48059, Control_c, 0, 64, 104
1, 48061, Note_off_c, 0, 65, 61
1, 48074, Control_c, 0, 64, 110
1, 48089, Control_c, 0, 64, 117
1, 48091, Note_off_c, 0, 67, 57
1, 48098, Note_off_c, 0, 74, 63
1, 48104, Control_c, 0, 64, 125
1, 48118, Control_c, 0, 64, 127
1, 48319, Control_c, 0, 64, 113
1, 48335, Control_c, 0, 64, 91
1, 48349, Control_c, 0, 64, 72
1, 48351, Note_on_c, 0, 72, 90
1, 48354, Note_on_c, 0, 55, 74
1, 48355, Note_on_c, 0, 63, 90
1, 48356, Note_on_c, 0, 43, 71
1, 48356, Note_on_c, 0, 67, 86
1, 48364, Control_c, 0, 64, 0
1, 48453, Control_c, 0, 64, 43
1, 48468, Control_c, 0, 64, 69
1, 48482, Control_c, 0, 64, 79
1, 48497, Control_c, 0, 64, 89
1, 48512, Control_c, 0, 64, 96
1, 48527, Control_c, 0, 64, 102
1, 48529, Note_off_c, 0, 55, 58
1, 48530, Note_off_c, 0, 43, 60
1, 48542, Control_c, 0, 64, 108
1, 48556, Control_c, 0, 64, 116
1, 48564, Note_off_c, 0, 63, 64
1, 48571, Control_c, 0, 64, 123
1, 48586, Control_c, 0, 64, 127
1, 48600, Control_c, 0, 64, 127
1, 48639, Note_off_c, 0, 72, 59
1, 48643, Note_off_c, 0, 67, 57
1, 48705, Note_on_c, 0, 55, 74
1, 48706, Note_on_c, 0, 65, 84
1, 48708, Note_on_c, 0, 74, 80
1, 48718, Note_on_c, 0, 43, 62
1, 48721, Note_on_c, 0, 67, 70
1, 48749, Note_off_c, 0, 67, 60
1, 48754, Note_off_c, 0, 55, 63
1, 48754, Note_off_c, 0, 65, 64
1, 48760, Note_off_c, 0, 43, 60
1, 48766, Note_off_c, 0, 74, 65
1, 48793, Control_c, 0, 64, 118
1, 48808, Control_c, 0, 64, 100
1, 48823, Control_c, 0, 64, 83
1, 48831, Note_on_c, 0, 75, 97
1, 48834, Note_on_c, 0, 67, 91
1, 48838, Control_c, 0, 64, 65
1, 48839, Note_on_c, 0, 55, 74
1, 48845, Note_on_c, 0, 43, 69
1, 48853, Control_c, 0, 64, 0
1, 48979, Control_c, 0, 64, 18
1, 48994, Control_c, 0, 64, 66
1, 49008, Control_c, 0, 64, 69
1, 49023, Control_c, 0, 64, 73
1, 49038, Control_c, 0, 64, 79
1, 49053, Control_c, 0, 64, 88
1, 49068, Control_c, 0, 64, 96
1, 49079, Note_off_c, 0, 43, 60
1, 49082, Control_c, 0, 64, 100
1, 49097, Control_c, 0, 64, 101
1, 49103, Note_off_c, 0, 55, 54
1, 49112, Control_c, 0, 64, 103
1, 49128, Control_c, 0, 64, 106
1, 49143, Control_c, 0, 64, 109
1, 49158, Control_c, 0, 64, 111
1, 49172, Control_c, 0, 64, 112
1, 49187, Control_c, 0, 64, 113
1, 49202, Control_c, 0, 64, 114
1, 49217, Control_c, 0, 64, 115
1, 49231, Control_c, 0, 64, 115
1, 49291, Control_c, 0, 64, 115
1, 49305, Control_c, 0, 64, 107
1, 49307, Note_on_c, 0, 57, 76
1, 49314, Note_on_c, 0, 45, 72
1, 49320, Control_c, 0, 64, 92
1, 49335, Control_c, 0, 64, 75
1, 49350, Control_c, 0, 64, 41
1, 49365, Control_c, 0, 64, 0
1, 49409, Control_c, 0, 64, 45
1, 49423, Control_c, 0, 64, 72
1, 49438, Control_c, 0, 64, 85
1, 49441, Note_off_c, 0, 75, 62
1, 49453, Control_c, 0, 64, 96
1, 49468, Control_c, 0, 64, 98
1, 49476, Note_off_c, 0, 67, 44
1, 49498, Control_c, 0, 64, 99
1, 49512, Control_c, 0, 64, 99
1, 49531, Note_off_c, 0, 57, 61
1, 49533, Note_off_c, 0, 45, 59
1, 49557, Control_c, 0, 64, 100
1, 49656, Note_on_c, 0, 74, 79
1, 49660, Note_on_c, 0, 65, 73
1, 49668, Note_on_c, 0, 67, 72
1, 49670, Note_on_c, 0, 59, 74
1, 49679, Note_on_c, 0, 47, 64
1, 49683, Control_c, 0, 64, 99
1, 49697, Note_off_c, 0, 65, 64
1, 49698, Control_c, 0, 64, 93
1, 49704, Note_off_c, 0, 47, 65
1, 49706, Note_off_c, 0, 74, 63
1, 49706, Note_off_c, 0, 59, 62
1, 49709, Note_off_c, 0, 67, 58
1, 49712, Control_c, 0, 64, 80
1, 49727, Control_c, 0, 64, 62
1, 49742, Control_c, 0, 64, 0
1, 49770, Note_on_c, 0, 72, 83
1, 49775, Note_on_c, 0, 63, 80
1, 49775, Note_on_c, 0, 67, 79
1, 49782, Note_on_c, 0, 60, 83
1, 49787, Note_on_c, 0, 48, 79
1, 49861, Control_c, 0, 64, 57
1, 49876, Control_c, 0, 64, 73
1, 49891, Control_c, 0, 64, 82
1, 49905, Control_c, 0, 64, 90
1, 49912, Note_off_c, 0, 48, 63
1, 49913, Note_off_c, 0, 60, 63
1, 49920, Control_c, 0, 64, 92
1, 49935, Control_c, 0, 64, 93
1, 49936, Note_off_c, 0, 63, 64
1, 49950, Control_c, 0, 64, 96
1, 49954, Note_off_c, 0, 72, 59
1, 49965, Control_c, 0, 64, 98
1, 49969, Note_off_c, 0, 67, 61
1, 49980, Control_c, 0, 64, 101
1, 49994, Control_c, 0, 64, 102
1, 50009, Control_c, 0, 64, 103
1, 50024, Control_c, 0, 64, 103
1, 50053, Control_c, 0, 64, 104
1, 50068, Control_c, 0, 64, 105
1, 50098, Control_c, 0, 64, 105
1, 50216, Control_c, 0, 64, 102
1, 50231, Control_c, 0, 64, 87
1, 50246, Control_c, 0, 64, 68
1, 50261, Control_c, 0, 64, 0
1, 50266, Note_on_c, 0, 74, 88
1, 50269, Note_on_c, 0, 65, 89
1, 50270, Note_on_c, 0, 68, 90
1, 50272, Note_on_c, 0, 53, 85
1, 50274, Note_on_c, 0, 41, 81
1, 50335, Control_c, 0, 64, 69
1, 50350, Control_c, 0, 64, 82
1, 50365, Control_c, 0, 64, 94
1, 50380, Control_c, 0, 64, 98
1, 50383, Note_off_c, 0, 41, 65
1, 50400, Note_off_c, 0, 53, 66
1, 50404, Note_off_c, 0, 74, 65
1, 50422, Note_off_c, 0, 65, 64
1, 50446, Control_c, 0, 64, 98
1, 50460, Control_c, 0, 64, 99
1, 50469, Note_off_c, 0, 68, 62
1, 50475, Control_c, 0, 64, 99
1, 50490, Control_c, 0, 64, 100
1, 50505, Control_c, 0, 64, 101
1, 50520, Control_c, 0, 64, 101
1, 50535, Control_c, 0, 64, 102
1, 50550, Control_c, 0, 64, 103
1, 50564, Control_c, 0, 64, 104
1, 50579, Control_c, 0, 64, 105
1, 50594, Control_c, 0, 64, 105
1, 50609, Control_c, 0, 64, 106
1, 50624, Control_c, 0, 64, 107
1, 50624, Note_on_c, 0, 53, 79
1, 50624, Note_on_c, 0, 72, 79
1, 50630, Note_on_c, 0, 63, 82
1, 50632, Note_on_c, 0, 41, 70
1, 50633, Note_on_c, 0, 68, 82
1, 50639, Control_c, 0, 64, 108
1, 50665, Note_off_c, 0, 53, 64
1, 50669, Note_off_c, 0, 41, 65
1, 50671, Note_off_c, 0, 72, 65
1, 50678, Note_off_c, 0, 63, 64
1, 50680, Note_off_c, 0, 68, 63
1, 50683, Control_c, 0, 64, 102
1, 50698, Control_c, 0, 64, 87
1, 50713, Control_c, 0, 64, 64
1, 50729, Control_c, 0, 64, 0
1, 50730, Note_on_c, 0, 67, 84
1, 50731, Note_on_c, 0, 71, 87
1, 50734, Note_on_c, 0, 62, 82
1, 50741, Note_on_c, 0, 55, 82
1, 50747, Note_on_c, 0, 43, 78
1, 50891, Control_c, 0, 64, 54
1, 50906, Control_c, 0, 64, 72
1, 50921, Control_c, 0, 64, 80
1, 50936, Control_c, 0, 64, 87
1, 50950, Control_c, 0, 64, 89
1, 50964, Note_off_c, 0, 55, 51
1, 50965, Control_c, 0, 64, 90
1, 50980, Control_c, 0, 64, 92
1, 50994, Note_off_c, 0, 62, 53
1, 50994, Control_c, 0, 64, 96
1, 51009, Control_c, 0, 64, 99
1, 51011, Note_off_c, 0, 67, 60
1, 51024, Control_c, 0, 64, 101
1, 51039, Control_c, 0, 64, 102
1, 51069, Control_c, 0, 64, 102
1, 51083, Control_c, 0, 64, 103
1, 51087, Note_off_c, 0, 71, 51
1, 51098, Control_c, 0, 64, 104
1, 51194, Control_c, 0, 64, 96
1, 51209, Control_c, 0, 64, 81
1, 51212, Note_on_c, 0, 69, 92
1, 51213, Note_on_c, 0, 60, 83
1, 51214, Note_on_c, 0, 67, 82
1, 51216, Note_on_c, 0, 55, 81
1, 51224, Control_c, 0, 64, 60
1, 51239, Control_c, 0, 64, 0
1, 51243, Note_off_c, 0, 43, 60
1, 51313, Control_c, 0, 64, 61
1, 51328, Control_c, 0, 64, 72
1, 51343, Control_c, 0, 64, 81
1, 51358, Control_c, 0, 64, 88
1, 51373, Control_c, 0, 64, 90
1, 51387, Control_c, 0, 64, 91
1, 51402, Control_c, 0, 64, 92
1, 51417, Control_c, 0, 64, 94
1, 51432, Control_c, 0, 64, 97
1, 51439, Note_off_c, 0, 60, 56
1, 51447, Control_c, 0, 64, 99
1, 51462, Control_c, 0, 64, 100
1, 51476, Control_c, 0, 64, 100
1, 51487, Note_off_c, 0, 55, 54
1, 51491, Control_c, 0, 64, 101
1, 51501, Note_off_c, 0, 67, 56
1, 51506, Control_c, 0, 64, 102
1, 51507, Note_off_c, 0, 69, 62
1, 51522, Control_c, 0, 64, 103
1, 51537, Control_c, 0, 64, 104
1, 51559, Note_on_c, 0, 55, 61
1, 51561, Note_on_c, 0, 71, 80
1, 51562, Note_on_c, 0, 62, 82
1, 51565, Note_on_c, 0, 53, 71
1, 51568, Note_on_c, 0, 67, 71
1, 51581, Control_c, 0, 64, 104
1, 51599, Note_off_c, 0, 67, 60
1, 51601, Note_off_c, 0, 53, 66
1, 51605, Note_off_c, 0, 62, 62
1, 51608, Note_off_c, 0, 55, 62
1, 51611, Control_c, 0, 64, 103
1, 51612, Note_off_c, 0, 71, 62
1, 51625, Control_c, 0, 64, 96
1, 51640, Control_c, 0, 64, 79
1, 51655, Control_c, 0, 64, 41
1, 51663, Note_on_c, 0, 72, 101
1, 51666, Note_on_c, 0, 55, 69
1, 51667, Note_on_c, 0, 67, 89
1, 51668, Note_on_c, 0, 63, 96
1, 51669, Note_on_c, 0, 51, 78
1, 51670, Control_c, 0, 64, 0
1, 51788, Control_c, 0, 64, 70
1, 51803, Control_c, 0, 64, 77
1, 51817, Control_c, 0, 64, 86
1, 51832, Control_c, 0, 64, 92
1, 51847, Note_off_c, 0, 55, 64
1, 51847, Control_c, 0, 64, 97
1, 51862, Control_c, 0, 64, 105
1, 51872, Note_off_c, 0, 63, 63
1, 51877, Control_c, 0, 64, 114
1, 51899, Control_c, 0, 64, 125
1, 51908, Note_off_c, 0, 51, 64
1, 51909, Note_off_c, 0, 72, 57
1, 51914, Control_c, 0, 64, 127
1, 51940, Note_off_c, 0, 67, 57
1, 52180, Control_c, 0, 64, 107
1, 52195, Control_c, 0, 64, 87
1, 52210, Control_c, 0, 64, 67
1, 52224, Note_on_c, 0, 75, 102
1, 52225, Control_c, 0, 64, 0
1, 52226, Note_on_c, 0, 67, 88
1, 52228, Note_on_c, 0, 31, 78
1, 52230, Note_on_c, 0, 43, 88
1, 52299, Control_c, 0, 64, 61
1, 52315, Control_c, 0, 64, 79
1, 52329, Control_c, 0, 64, 97
1, 52344, Note_off_c, 0, 31, 63
1, 52344, Control_c, 0, 64, 117
1, 52359, Control_c, 0, 64, 119
1, 52362, Note_off_c, 0, 43, 63
1, 52374, Control_c, 0, 64, 121
1, 52389, Control_c, 0, 64, 127
1, 52514, Note_off_c, 0, 67, 26
1, 52538, Note_off_c, 0, 75, 32
1, 52582, Control_c, 0, 64, 107
1, 52596, Control_c, 0, 64, 83
1, 52611, Control_c, 0, 64, 61
1, 52616, Note_on_c, 0, 74, 80
1, 52619, Note_on_c, 0, 65, 74
1, 52625, Note_on_c, 0, 43, 69
1, 52626, Control_c, 0, 64, 0
1, 52629, Note_on_c, 0, 31, 63
1, 52631, Note_on_c, 0, 67, 77
1, 52663, Control_c, 0, 64, 60
1, 52669, Note_off_c, 0, 65, 65
1, 52678, Control_c, 0, 64, 79
1, 52681, Note_off_c, 0, 31, 63
1, 52687, Note_off_c, 0, 43, 60
1, 52693, Control_c, 0, 64, 101
1, 52696, Note_off_c, 0, 74, 62
1, 52703, Note_off_c, 0, 67, 61
1, 52708, Control_c, 0, 64, 125
1, 52737, Control_c, 0, 64, 115
1, 52752, Control_c, 0, 64, 101
1, 52756, Note_on_c, 0, 67, 69
1, 52756, Note_on_c, 0, 72, 87
1, 52761, Note_on_c, 0, 63, 84
1, 52766, Control_c, 0, 64, 85
1, 52768, Note_on_c, 0, 36, 77
1, 52771, Note_on_c, 0, 43, 71
1, 52781, Control_c, 0, 64, 70
1, 52796, Control_c, 0, 64, 0
1, 53212, Control_c, 0, 64, 14
1, 53227, Control_c, 0, 64, 29
1, 53242, Control_c, 0, 64, 42
1, 53257, Control_c, 0, 64, 48
1, 53286, Control_c, 0, 64, 48
1, 53301, Control_c, 0, 64, 49
1, 53316, Control_c, 0, 64, 52
1, 53331, Control_c, 0, 64, 55
1, 53346, Control_c, 0, 64, 56
1, 53361, Control_c, 0, 64, 57
1, 53376, Control_c, 0, 64, 59
1, 53397, Control_c, 0, 64, 63
1, 53412, Control_c, 0, 64, 65
1, 53427, Control_c, 0, 64, 67
1, 53442, Control_c, 0, 64, 67
1, 53457, Control_c, 0, 64, 68
1, 53471, Control_c, 0, 64, 69
1, 53486, Control_c, 0, 64, 73
1, 53501, Control_c, 0, 64, 80
1, 53516, Control_c, 0, 64, 85
1, 53531, Control_c, 0, 64, 88
1, 53546, Control_c, 0, 64, 88
1, 53561, Control_c, 0, 64, 89
1, 53575, Control_c, 0, 64, 91
1, 53590, Control_c, 0, 64, 95
1, 53605, Control_c, 0, 64, 98
1, 53620, Control_c, 0, 64, 100
1, 53635, Control_c, 0, 64, 101
1, 53650, Control_c, 0, 64, 102
1, 53659, Note_off_c, 0, 63, 61
1, 53664, Control_c, 0, 64, 102
1, 53679, Control_c, 0, 64, 103
1, 53694, Control_c, 0, 64, 104
1, 53724, Control_c, 0, 64, 104
1, 53739, Note_off_c, 0, 67, 59
1, 53794, Note_off_c, 0, 72, 55
1, 53886, Control_c, 0, 67, 8
1, 53901, Control_c, 0, 67, 12
1, 53917, Control_c, 0, 67, 20
1, 53932, Control_c, 0, 67, 28
1, 53947, Control_c, 0, 67, 34
1, 53961, Control_c, 0, 67, 38
1, 53976, Control_c, 0, 67, 44
1, 53991, Control_c, 0, 64, 104
1, 53991, Control_c, 0, 67, 50
1, 54006, Control_c, 0, 67, 58
1, 54020, Control_c, 0, 64, 103
1, 54020, Control_c, 0, 67, 69
1, 54035, Control_c, 0, 64, 103
1, 54035, Control_c, 0, 67, 81
1, 54050, Control_c, 0, 64, 102
1, 54050, Control_c, 0, 67, 95
1, 54065, Control_c, 0, 64, 101
1, 54065, Control_c, 0, 67, 109
1, 54080, Control_c, 0, 64, 101
1, 54080, Control_c, 0, 67, 122
1, 54094, Control_c, 0, 64, 100
1, 54094, Control_c, 0, 67, 127
1, 54109, Control_c, 0, 64, 99
1, 54124, Control_c, 0, 64, 98
1, 54147, Control_c, 0, 64, 98
1, 54162, Control_c, 0, 64, 97
1, 54176, Control_c, 0, 64, 96
1, 54191, Control_c, 0, 64, 95
1, 54206, Control_c, 0, 64, 94
1, 54220, Control_c, 0, 64, 92
1, 54235, Control_c, 0, 64, 90
1, 54250, Control_c, 0, 64, 87
1, 54265, Control_c, 0, 64, 85
1, 54277, Note_off_c, 0, 43, 50
1, 54279, Note_off_c, 0, 36, 49
1, 54280, Control_c, 0, 64, 84
1, 54294, Control_c, 0, 64, 82
1, 54309, Control_c, 0, 64, 80
1, 54324, Control_c, 0, 64, 78
1, 54339, Control_c, 0, 64, 76
1, 54354, Control_c, 0, 64, 74
1, 54368, Control_c, 0, 64, 72
1, 54383, Control_c, 0, 64, 70
1, 54398, Control_c, 0, 64, 67
1, 54407, Note_on_c, 0, 74, 64
1, 54413, Control_c, 0, 64, 66
1, 54427, Control_c, 0, 64, 64
1, 54442, Control_c, 0, 64, 63
1, 54457, Control_c, 0, 64, 63
1, 54472, Control_c, 0, 64, 62
1, 54486, Control_c, 0, 64, 60
1, 54501, Control_c, 0, 64, 58
1, 54516, Control_c, 0, 64, 54
1, 54531, Control_c, 0, 64, 50
1, 54545, Control_c, 0, 64, 48
1, 54560, Control_c, 0, 64, 47
1, 54575, Control_c, 0, 64, 43
1, 54590, Control_c, 0, 64, 31
1, 54605, Control_c, 0, 64, 0
1, 54773, Note_on_c, 0, 75, 60
1, 54813, Control_c, 0, 64, 11
1, 54828, Control_c, 0, 64, 27
1, 54839, Note_off_c, 0, 74, 64
1, 54842, Control_c, 0, 64, 34
1, 54857, Control_c, 0, 64, 39
1, 54872, Control_c, 0, 64, 40
1, 54924, Control_c, 0, 64, 39
1, 54941, Note_on_c, 0, 77, 63
1, 54954, Control_c, 0, 64, 38
1, 54969, Control_c, 0, 64, 34
1, 54973, Note_off_c, 0, 75, 66
1, 54984, Control_c, 0, 64, 23
1, 54998, Control_c, 0, 64, 0
1, 55057, Control_c, 0, 64, 18
1, 55072, Control_c, 0, 64, 51
1, 55087, Control_c, 0, 64, 65
1, 55102, Control_c, 0, 64, 72
1, 55117, Control_c, 0, 64, 83
1, 55132, Control_c, 0, 64, 91
1, 55146, Control_c, 0, 64, 95
1, 55161, Control_c, 0, 64, 97
1, 55167, Note_off_c, 0, 77, 58
1, 55176, Control_c, 0, 64, 99
1, 55191, Control_c, 0, 64, 100
1, 55206, Control_c, 0, 64, 101
1, 55221, Control_c, 0, 64, 101
1, 55265, Control_c, 0, 64, 102
1, 55280, Control_c, 0, 64, 102
1, 55309, Control_c, 0, 64, 103
1, 55368, Control_c, 0, 64, 102
1, 55383, Control_c, 0, 64, 97
1, 55390, Note_on_c, 0, 77, 63
1, 55397, Note_on_c, 0, 74, 58
1, 55398, Control_c, 0, 64, 86
1, 55399, Note_on_c, 0, 71, 56
1, 55400, Note_on_c, 0, 68, 60
1, 55406, Note_on_c, 0, 65, 50
1, 55413, Control_c, 0, 64, 75
1, 55428, Control_c, 0, 64, 63
1, 55442, Control_c, 0, 64, 0
1, 55518, Control_c, 0, 64, 57
1, 55532, Control_c, 0, 64, 67
1, 55547, Control_c, 0, 64, 72
1, 55562, Control_c, 0, 64, 78
1, 55577, Control_c, 0, 64, 83
1, 55591, Control_c, 0, 64, 88
1, 55606, Control_c, 0, 64, 92
1, 55607, Note_off_c, 0, 68, 61
1, 55611, Note_off_c, 0, 77, 57
1, 55621, Control_c, 0, 64, 94
1, 55626, Note_off_c, 0, 71, 62
1, 55642, Note_off_c, 0, 65, 51
1, 55644, Control_c, 0, 64, 96
1, 55659, Control_c, 0, 64, 97
1, 55671, Note_off_c, 0, 74, 59
1, 55673, Control_c, 0, 64, 99
1, 55688, Control_c, 0, 64, 100
1, 55703, Control_c, 0, 64, 102
1, 55718, Control_c, 0, 64, 104
1, 55733, Control_c, 0, 64, 104
1, 55747, Control_c, 0, 64, 105
1, 55762, Control_c, 0, 64, 106
1, 55791, Control_c, 0, 64, 106
1, 55865, Control_c, 0, 64, 106
1, 55880, Control_c, 0, 64, 99
1, 55888, Note_on_c, 0, 77, 72
1, 55895, Note_on_c, 0, 70, 61
1, 55895, Note_on_c, 0, 68, 59
1, 55895, Control_c, 0, 64, 87
1, 55899, Note_on_c, 0, 62, 51
1, 55901, Note_on_c, 0, 65, 42
1, 55910, Control_c, 0, 64, 74
1, 55925, Control_c, 0, 64, 56
1, 55939, Control_c, 0, 64, 0
1, 56044, Control_c, 0, 64, 43
1, 56058, Control_c, 0, 64, 66
1, 56073, Control_c, 0, 64, 73
1, 56085, Note_off_c, 0, 65, 53
1, 56088, Control_c, 0, 64, 79
1, 56103, Control_c, 0, 64, 84
1, 56118, Control_c, 0, 64, 86
1, 56132, Control_c, 0, 64, 89
1, 56147, Control_c, 0, 64, 91
1, 56162, Note_off_c, 0, 62, 47
1, 56162, Control_c, 0, 64, 95
1, 56176, Control_c, 0, 64, 97
1, 56191, Control_c, 0, 64, 100
1, 56206, Control_c, 0, 64, 102
1, 56215, Note_off_c, 0, 77, 58
1, 56220, Note_off_c, 0, 70, 60
1, 56221, Control_c, 0, 64, 104
1, 56223, Note_off_c, 0, 68, 58
1, 56236, Control_c, 0, 64, 107
1, 56251, Control_c, 0, 64, 109
1, 56265, Control_c, 0, 64, 110
1, 56295, Control_c, 0, 64, 110
1, 56299, Note_on_c, 0, 75, 67
1, 56311, Control_c, 0, 64, 105
1, 56321, Note_off_c, 0, 75, 67
1, 56321, Note_on_c, 0, 65, 53
1, 56321, Note_on_c, 0, 68, 36
1, 56324, Note_on_c, 0, 58, 51
1, 56326, Control_c, 0, 64, 93
1, 56341, Control_c, 0, 64, 77
1, 56345, Note_on_c, 0, 77, 68
1, 56355, Control_c, 0, 64, 48
1, 56370, Control_c, 0, 64, 0
1, 56395, Note_on_c, 0, 75, 72
1, 56428, Poly_aftertouch_c, 0, 70, 127
1, 56435, Note_off_c, 0, 77, 61
1, 56526, Control_c, 0, 64, 39
1, 56541, Control_c, 0, 64, 63
1, 56556, Control_c, 0, 64, 68
1, 56570, Control_c, 0, 64, 73
1, 56585, Control_c, 0, 64, 78
1, 56600, Control_c, 0, 64, 83
1, 56610, Poly_aftertouch_c, 0, 70, 0
1, 56614, Control_c, 0, 64, 86
1, 56624, Note_off_c, 0, 68, 55
1, 56629, Control_c, 0, 64, 87
1, 56644, Control_c, 0, 64, 89
1, 56660, Control_c, 0, 64, 91
1, 56675, Control_c, 0, 64, 93
1, 56685, Note_on_c, 0, 74, 72
1, 56689, Control_c, 0, 64, 95
1, 56704, Control_c, 0, 64, 96
1, 56710, Note_off_c, 0, 75, 64
1, 56719, Control_c, 0, 64, 97
1, 56724, Note_off_c, 0, 58, 35
1, 56734, Control_c, 0, 64, 97
1, 56749, Control_c, 0, 64, 98
1, 56778, Control_c, 0, 64, 98
1, 56827, Note_off_c, 0, 65, 54
1, 56881, Control_c, 0, 64, 95
1, 56884, Note_off_c, 0, 74, 55
1, 56895, Note_on_c, 0, 79, 81
1, 56896, Control_c, 0, 64, 88
1, 56911, Note_on_c, 0, 70, 54
1, 56911, Control_c, 0, 64, 78
1, 56913, Note_on_c, 0, 63, 48
1, 56914, Note_on_c, 0, 67, 58
1, 56926, Control_c, 0, 64, 66
1, 56941, Control_c, 0, 64, 0
1, 57045, Control_c, 0, 64, 49
1, 57060, Control_c, 0, 64, 66
1, 57075, Control_c, 0, 64, 72
1, 57089, Control_c, 0, 64, 78
1, 57105, Control_c, 0, 64, 82
1, 57112, Note_off_c, 0, 70, 64
1, 57120, Control_c, 0, 64, 85
1, 57141, Note_off_c, 0, 67, 60
1, 57142, Control_c, 0, 64, 87
1, 57157, Note_off_c, 0, 63, 53
1, 57157, Control_c, 0, 64, 88
1, 57172, Control_c, 0, 64, 89
1, 57186, Control_c, 0, 64, 90
1, 57201, Control_c, 0, 64, 91
1, 57216, Control_c, 0, 64, 91
1, 57231, Control_c, 0, 64, 92
1, 57245, Control_c, 0, 64, 92
1, 57275, Control_c, 0, 64, 93
1, 57364, Control_c, 0, 64, 90
1, 57373, Note_on_c, 0, 74, 55
1, 57379, Control_c, 0, 64, 84
1, 57383, Note_on_c, 0, 68, 56
1, 57389, Note_on_c, 0, 62, 41
1, 57390, Note_on_c, 0, 65, 45
1, 57393, Note_on_c, 0, 59, 42
1, 57394, Control_c, 0, 64, 73
1, 57409, Control_c, 0, 64, 61
1, 57424, Control_c, 0, 64, 0
1, 57512, Control_c, 0, 64, 51
1, 57527, Control_c, 0, 64, 67
1, 57542, Control_c, 0, 64, 72
1, 57556, Control_c, 0, 64, 77
1, 57571, Control_c, 0, 64, 80
1, 57586, Control_c, 0, 64, 83
1, 57601, Note_off_c, 0, 62, 60
1, 57601, Control_c, 0, 64, 85
1, 57604, Note_off_c, 0, 59, 48
1, 57616, Control_c, 0, 64, 87
1, 57630, Control_c, 0, 64, 88
1, 57633, Note_off_c, 0, 68, 63
1, 57645, Control_c, 0, 64, 89
1, 57660, Control_c, 0, 64, 90
1, 57675, Control_c, 0, 64, 90
1, 57677, Note_off_c, 0, 65, 60
1, 57696, Note_on_c, 0, 77, 60
1, 57698, Note_off_c, 0, 74, 54
1, 57704, Note_off_c, 0, 79, 55
1, 57704, Control_c, 0, 64, 91
1, 57719, Control_c, 0, 64, 91
1, 57808, Control_c, 0, 64, 89
1, 57823, Note_off_c, 0, 77, 58
1, 57823, Control_c, 0, 64, 82
1, 57829, Note_on_c, 0, 75, 63
1, 57838, Control_c, 0, 64, 69
1, 57839, Note_on_c, 0, 67, 45
1, 57847, Note_on_c, 0, 60, 38
1, 57851, Note_on_c, 0, 63, 41
1, 57853, Control_c, 0, 64, 0
1, 57965, Control_c, 0, 64, 61
1, 57979, Control_c, 0, 64, 70
1, 57987, Note_off_c, 0, 63, 65
1, 57994, Control_c, 0, 64, 75
1, 58003, Note_off_c, 0, 75, 65
1, 58009, Control_c, 0, 64, 79
1, 58011, Note_off_c, 0, 60, 63
1, 58017, Note_off_c, 0, 67, 61
1, 58024, Control_c, 0, 64, 82
1, 58039, Control_c, 0, 64, 84
1, 58054, Control_c, 0, 64, 86
1, 58068, Control_c, 0, 64, 87
1, 58083, Control_c, 0, 64, 88
1, 58098, Control_c, 0, 64, 89
1, 58113, Control_c, 0, 64, 91
1, 58128, Control_c, 0, 64, 93
1, 58142, Control_c, 0, 64, 93
1, 58186, Control_c, 0, 64, 94
1, 58260, Control_c, 0, 64, 90
1, 58275, Control_c, 0, 64, 80
1, 58290, Control_c, 0, 64, 67
1, 58300, Note_on_c, 0, 68, 53
1, 58303, Note_on_c, 0, 74, 56
1, 58304, Note_on_c, 0, 53, 39
1, 58305, Control_c, 0, 64, 0
1, 58307, Note_on_c, 0, 65, 50
1, 58318, Note_on_c, 0, 56, 41
1, 58393, Control_c, 0, 64, 55
1, 58408, Control_c, 0, 64, 69
1, 58423, Control_c, 0, 64, 75
1, 58438, Control_c, 0, 64, 80
1, 58440, Note_off_c, 0, 65, 64
1, 58452, Control_c, 0, 64, 82
1, 58467, Control_c, 0, 64, 85
1, 58469, Note_off_c, 0, 74, 62
1, 58482, Control_c, 0, 64, 86
1, 58497, Control_c, 0, 64, 87
1, 58512, Control_c, 0, 64, 88
1, 58527, Control_c, 0, 64, 89
1, 58542, Control_c, 0, 64, 90
1, 58557, Control_c, 0, 64, 92
1, 58571, Control_c, 0, 64, 92
1, 58586, Control_c, 0, 64, 93
1, 58601, Control_c, 0, 64, 93
1, 58616, Control_c, 0, 64, 94
1, 58672, Note_on_c, 0, 72, 64
1, 58682, Note_on_c, 0, 63, 58
1, 58688, Note_off_c, 0, 56, 41
1, 58709, Note_off_c, 0, 72, 60
1, 58713, Control_c, 0, 64, 92
1, 58715, Note_off_c, 0, 68, 62
1, 58716, Note_off_c, 0, 63, 64
1, 58723, Note_off_c, 0, 53, 41
1, 58728, Control_c, 0, 64, 85
1, 58743, Control_c, 0, 64, 73
1, 58757, Control_c, 0, 64, 0
1, 58789, Note_on_c, 0, 62, 52
1, 58792, Note_on_c, 0, 67, 57
1, 58793, Note_on_c, 0, 71, 57
1, 58803, Note_on_c, 0, 55, 45
1, 58890, Control_c, 0, 64, 64
1, 58905, Control_c, 0, 64, 70
1, 58920, Control_c, 0, 64, 74
1, 58935, Control_c, 0, 64, 77
1, 58950, Control_c, 0, 64, 80
1, 58951, Note_off_c, 0, 62, 60
1, 58964, Note_off_c, 0, 67, 58
1, 58965, Control_c, 0, 64, 82
1, 58980, Control_c, 0, 64, 84
1, 58983, Note_off_c, 0, 71, 60
1, 58995, Control_c, 0, 64, 86
1, 59009, Control_c, 0, 64, 86
1, 59024, Control_c, 0, 64, 87
1, 59028, Note_off_c, 0, 55, 35
1, 59039, Control_c, 0, 64, 87
1, 59054, Control_c, 0, 64, 88
1, 59069, Control_c, 0, 64, 88
1, 59083, Control_c, 0, 64, 89
1, 59172, Control_c, 0, 64, 87
1, 59187, Control_c, 0, 64, 80
1, 59201, Control_c, 0, 64, 68
1, 59216, Control_c, 0, 64, 0
1, 59232, Note_on_c, 0, 69, 55
1, 59235, Note_on_c, 0, 67, 52
1, 59239, Note_on_c, 0, 60, 49
1, 59240, Note_on_c, 0, 55, 49
1, 59305, Control_c, 0, 64, 63
1, 59320, Control_c, 0, 64, 70
1, 59335, Control_c, 0, 64, 74
1, 59349, Control_c, 0, 64, 77
1, 59364, Control_c, 0, 64, 79
1, 59367, Note_off_c, 0, 60, 58
1, 59387, Control_c, 0, 64, 81
1, 59402, Control_c, 0, 64, 82
1, 59406, Note_off_c, 0, 55, 36
1, 59418, Note_off_c, 0, 69, 56
1, 59431, Control_c, 0, 64, 83
1, 59461, Control_c, 0, 64, 83
1, 59484, Note_off_c, 0, 67, 26
1, 59580, Control_c, 0, 64, 81
1, 59595, Note_on_c, 0, 62, 55
1, 59595, Control_c, 0, 64, 75
1, 59602, Note_on_c, 0, 71, 56
1, 59606, Note_on_c, 0, 67, 57
1, 59609, Note_on_c, 0, 53, 51
1, 59610, Control_c, 0, 64, 66
1, 59621, Note_on_c, 0, 55, 36
1, 59622, Note_off_c, 0, 62, 57
1, 59625, Control_c, 0, 64, 0
1, 59633, Note_off_c, 0, 67, 55
1, 59639, Note_off_c, 0, 71, 63
1, 59642, Note_off_c, 0, 53, 58
1, 59647, Note_off_c, 0, 55, 57
1, 59707, Note_on_c, 0, 72, 67
1, 59716, Note_on_c, 0, 63, 62
1, 59722, Note_on_c, 0, 67, 62
1, 59734, Note_on_c, 0, 55, 51
1, 59736, Note_on_c, 0, 51, 52
1, 59773, Control_c, 0, 64, 66
1, 59775, Note_off_c, 0, 55, 64
1, 59785, Note_off_c, 0, 51, 59
1, 59787, Note_off_c, 0, 63, 61
1, 59788, Control_c, 0, 64, 73
1, 59803, Control_c, 0, 64, 80
1, 59812, Note_off_c, 0, 67, 57
1, 59818, Control_c, 0, 64, 83
1, 59832, Control_c, 0, 64, 86
1, 59839, Note_off_c, 0, 72, 64
1, 59847, Control_c, 0, 64, 87
1, 59862, Control_c, 0, 64, 89
1, 59877, Control_c, 0, 64, 90
1, 59892, Control_c, 0, 64, 90
1, 59907, Control_c, 0, 64, 91
1, 59922, Control_c, 0, 64, 91
1, 60085, Control_c, 0, 64, 90
1, 60099, Control_c, 0, 64, 85
1, 60114, Control_c, 0, 64, 77
1, 60136, Control_c, 0, 64, 65
1, 60151, Control_c, 0, 64, 0
1, 60190, Note_on_c, 0, 77, 67
1, 60196, Note_on_c, 0, 67, 57
1, 60205, Note_on_c, 0, 59, 42
1, 60208, Note_on_c, 0, 50, 36
1, 60212, Note_on_c, 0, 55, 39
1, 60255, Control_c, 0, 64, 66
1, 60270, Note_off_c, 0, 67, 63
1, 60270, Control_c, 0, 64, 73
1, 60273, Note_off_c, 0, 59, 60
1, 60280, Note_off_c, 0, 77, 62
1, 60283, Note_off_c, 0, 50, 59
1, 60285, Control_c, 0, 64, 78
1, 60286, Note_off_c, 0, 55, 64
1, 60300, Control_c, 0, 64, 81
1, 60315, Control_c, 0, 64, 83
1, 60330, Control_c, 0, 64, 84
1, 60345, Control_c, 0, 64, 85
1, 60360, Control_c, 0, 64, 86
1, 60508, Control_c, 0, 64, 85
1, 60523, Control_c, 0, 64, 79
1, 60537, Control_c, 0, 64, 69
1, 60552, Control_c, 0, 64, 34
1, 60567, Control_c, 0, 64, 0
1, 60578, Note_on_c, 0, 75, 51
1, 60581, Note_on_c, 0, 60, 40
1, 60587, Note_on_c, 0, 48, 37
1, 60598, Note_on_c, 0, 67, 34
1, 60611, Control_c, 0, 64, 34
1, 60626, Control_c, 0, 64, 65
1, 60628, Note_on_c, 0, 55, 5
1, 60633, Note_off_c, 0, 60, 57
1, 60641, Control_c, 0, 64, 71
1, 60643, Note_off_c, 0, 48, 44
1, 60652, Note_off_c, 0, 67, 57
1, 60655, Control_c, 0, 64, 76
1, 60661, Note_off_c, 0, 75, 63
1, 60670, Control_c, 0, 64, 80
1, 60676, Note_off_c, 0, 55, 50
1, 60685, Control_c, 0, 64, 80
1, 60745, Control_c, 0, 64, 79
1, 60759, Note_on_c, 0, 74, 53
1, 60759, Control_c, 0, 64, 74
1, 60774, Note_on_c, 0, 67, 49
1, 60774, Control_c, 0, 64, 68
1, 60777, Note_on_c, 0, 59, 36
1, 60780, Note_on_c, 0, 55, 27
1, 60789, Control_c, 0, 64, 62
1, 60804, Control_c, 0, 64, 52
1, 60819, Control_c, 0, 64, 49
1, 60834, Control_c, 0, 64, 49
1, 60845, Note_off_c, 0, 59, 0
1, 60845, Note_on_c, 0, 59, 7
1, 60845, Note_off_c, 0, 67, 0
1, 60845, Note_on_c, 0, 67, 9
1, 60849, Control_c, 0, 64, 48
1, 60854, Note_off_c, 0, 55, 0
1, 60854, Note_on_c, 0, 55, 3
1, 60863, Control_c, 0, 64, 44
1, 60885, Control_c, 0, 64, 39
1, 60900, Control_c, 0, 64, 37
1, 60914, Control_c, 0, 64, 38
1, 60929, Control_c, 0, 64, 39
1, 60944, Control_c, 0, 64, 40
1, 60959, Control_c, 0, 64, 41
1, 60974, Control_c, 0, 64, 42
1, 60989, Control_c, 0, 64, 44
1, 61004, Control_c, 0, 64, 46
1, 61019, Control_c, 0, 64, 46
1, 61049, Control_c, 0, 64, 48
1, 61063, Control_c, 0, 64, 51
1, 61078, Control_c, 0, 64, 53
1, 61093, Control_c, 0, 64, 53
1, 61108, Control_c, 0, 64, 54
1, 61123, Control_c, 0, 64, 55
1, 61138, Control_c, 0, 64, 56
1, 61153, Control_c, 0, 64, 58
1, 61168, Control_c, 0, 64, 60
1, 61183, Control_c, 0, 64, 60
1, 61212, Control_c, 0, 64, 61
1, 61242, Control_c, 0, 64, 62
1, 61257, Control_c, 0, 64, 62
1, 61272, Control_c, 0, 64, 63
1, 61286, Control_c, 0, 64, 63
1, 61301, Control_c, 0, 64, 64
1, 61331, Control_c, 0, 64, 64
1, 61360, Control_c, 0, 64, 65
1, 61390, Control_c, 0, 64, 65
1, 61404, Control_c, 0, 64, 66
1, 61419, Control_c, 0, 64, 66
1, 61434, Control_c, 0, 64, 67
1, 61449, Control_c, 0, 64, 68
1, 61464, Control_c, 0, 64, 69
1, 61478, Control_c, 0, 64, 69
1, 61493, Control_c, 0, 64, 70
1, 61508, Control_c, 0, 64, 71
1, 61523, Control_c, 0, 64, 72
1, 61537, Control_c, 0, 64, 74
1, 61552, Control_c, 0, 64, 75
1, 61567, Control_c, 0, 64, 77
1, 61582, Control_c, 0, 64, 78
1, 61597, Control_c, 0, 64, 80
1, 61612, Control_c, 0, 64, 81
1, 61634, Control_c, 0, 64, 84
1, 61649, Control_c, 0, 64, 86
1, 61664, Control_c, 0, 64, 88
1, 61678, Control_c, 0, 64, 90
1, 61693, Control_c, 0, 64, 92
1, 61708, Control_c, 0, 64, 94
1, 61723, Control_c, 0, 64, 97
1, 61737, Control_c, 0, 64, 100
1, 61752, Control_c, 0, 64, 102
1, 61767, Control_c, 0, 64, 105
1, 61782, Control_c, 0, 64, 107
1, 61797, Control_c, 0, 64, 109
1, 61797, Control_c, 0, 67, 124
1, 61812, Control_c, 0, 64, 112
1, 61812, Control_c, 0, 67, 114
1, 61815, Note_off_c, 0, 59, 41
1, 61827, Control_c, 0, 64, 114
1, 61827, Control_c, 0, 67, 106
1, 61838, Note_off_c, 0, 67, 42
1, 61842, Control_c, 0, 64, 115
1, 61842, Control_c, 0, 67, 99
1, 61856, Control_c, 0, 64, 117
1, 61856, Control_c, 0, 67, 91
1, 61871, Control_c, 0, 64, 118
1, 61871, Control_c, 0, 67, 84
1, 61886, Control_c, 0, 64, 119
1, 61886, Control_c, 0, 67, 76
1, 61900, Control_c, 0, 64, 120
1, 61900, Control_c, 0, 67, 68
1, 61915, Control_c, 0, 64, 121
1, 61915, Control_c, 0, 67, 59
1, 61923, Note_off_c, 0, 74, 48
1, 61930, Control_c, 0, 64, 121
1, 61930, Control_c, 0, 67, 48
1, 61931, Note_off_c, 0, 55, 42
1, 61945, Control_c, 0, 64, 123
1, 61945, Control_c, 0, 67, 36
1, 61960, Control_c, 0, 64, 124
1, 61960, Control_c, 0, 67, 25
1, 61974, Control_c, 0, 64, 126
1, 61974, Control_c, 0, 67, 16
1, 61989, Control_c, 0, 64, 127
1, 61989, Control_c, 0, 67, 9
1, 62004, Control_c, 0, 67, 0
1, 62441, Control_c, 0, 64, 113
1, 62456, Control_c, 0, 64, 96
1, 62462, Note_on_c, 0, 74, 90
1, 62464, Note_on_c, 0, 65, 86
1, 62464, Note_on_c, 0, 70, 86
1, 62465, Note_on_c, 0, 46, 88
1, 62468, Note_on_c, 0, 34, 79
1, 62470, Control_c, 0, 64, 77
1, 62485, Control_c, 0, 64, 0
1, 62559, Control_c, 0, 64, 65
1, 62574, Control_c, 0, 64, 78
1, 62589, Control_c, 0, 64, 93
1, 62604, Control_c, 0, 64, 106
1, 62619, Control_c, 0, 64, 109
1, 62630, Note_off_c, 0, 65, 64
1, 62633, Note_off_c, 0, 74, 66
1, 62633, Control_c, 0, 64, 110
1, 62642, Note_off_c, 0, 34, 63
1, 62666, Note_off_c, 0, 70, 60
1, 62670, Note_off_c, 0, 46, 62
1, 62679, Control_c, 0, 64, 110
1, 62709, Control_c, 0, 64, 111
1, 62724, Control_c, 0, 64, 111
1, 62739, Control_c, 0, 64, 112
1, 62754, Control_c, 0, 64, 112
1, 62813, Note_on_c, 0, 67, 82
1, 62813, Note_on_c, 0, 75, 90
1, 62820, Note_on_c, 0, 46, 86
1, 62825, Note_on_c, 0, 70, 78
1, 62834, Note_on_c, 0, 34, 64
1, 62855, Note_off_c, 0, 67, 64
1, 62858, Note_off_c, 0, 46, 57
1, 62860, Note_off_c, 0, 70, 61
1, 62869, Note_off_c, 0, 34, 64
1, 62869, Note_off_c, 0, 75, 63
1, 62872, Control_c, 0, 64, 107
1, 62887, Control_c, 0, 64, 96
1, 62902, Control_c, 0, 64, 81
1, 62917, Control_c, 0, 64, 65
1, 62927, Note_on_c, 0, 77, 98
1, 62929, Note_on_c, 0, 68, 96
1, 62931, Control_c, 0, 64, 0
1, 62933, Note_on_c, 0, 70, 88
1, 62937, Note_on_c, 0, 46, 91
1, 62939, Note_on_c, 0, 34, 80
1, 63064, Control_c, 0, 64, 67
1, 63079, Control_c, 0, 64, 77
1, 63094, Control_c, 0, 64, 88
1, 63109, Control_c, 0, 64, 96
1, 63131, Control_c, 0, 64, 101
1, 63146, Control_c, 0, 64, 104
1, 63161, Note_off_c, 0, 77, 57
1, 63161, Control_c, 0, 64, 108
1, 63165, Note_off_c, 0, 34, 61
1, 63175, Control_c, 0, 64, 111
1, 63179, Note_off_c, 0, 68, 61
1, 63186, Note_off_c, 0, 46, 61
1, 63190, Control_c, 0, 64, 114
1, 63205, Control_c, 0, 64, 117
1, 63220, Control_c, 0, 64, 118
1, 63222, Note_off_c, 0, 70, 60
1, 63235, Control_c, 0, 64, 119
1, 63249, Control_c, 0, 64, 121
1, 63264, Control_c, 0, 64, 124
1, 63279, Control_c, 0, 64, 127
1, 63398, Control_c, 0, 64, 114
1, 63412, Note_on_c, 0, 70, 92
1, 63412, Note_on_c, 0, 77, 98
1, 63412, Control_c, 0, 64, 98
1, 63414, Note_on_c, 0, 68, 92
1, 63418, Note_on_c, 0, 46, 88
1, 63421, Note_on_c, 0, 34, 77
1, 63427, Control_c, 0, 64, 81
1, 63442, Control_c, 0, 64, 60
1, 63457, Control_c, 0, 64, 0
1, 63532, Control_c, 0, 64, 57
1, 63547, Control_c, 0, 64, 72
1, 63561, Control_c, 0, 64, 81
1, 63576, Control_c, 0, 64, 88
1, 63591, Control_c, 0, 64, 92
1, 63606, Control_c, 0, 64, 94
1, 63619, Note_off_c, 0, 34, 64
1, 63621, Control_c, 0, 64, 96
1, 63629, Note_off_c, 0, 46, 63
1, 63636, Control_c, 0, 64, 99
1, 63651, Control_c, 0, 64, 102
1, 63666, Control_c, 0, 64, 104
1, 63675, Note_off_c, 0, 77, 56
1, 63680, Control_c, 0, 64, 107
1, 63695, Control_c, 0, 64, 109
1, 63698, Note_off_c, 0, 70, 53
1, 63710, Control_c, 0, 64, 113
1, 63725, Control_c, 0, 64, 119
1, 63738, Note_off_c, 0, 68, 29
1, 63740, Control_c, 0, 64, 124
1, 63754, Control_c, 0, 64, 127
1, 63880, Control_c, 0, 64, 126
1, 63895, Control_c, 0, 64, 105
1, 63898, Note_on_c, 0, 77, 96
1, 63904, Note_on_c, 0, 46, 86
1, 63905, Note_on_c, 0, 68, 88
1, 63905, Note_on_c, 0, 70, 86
1, 63909, Note_on_c, 0, 34, 71
1, 63910, Control_c, 0, 64, 88
1, 63924, Control_c, 0, 64, 67
1, 63939, Control_c, 0, 64, 0
1, 64013, Control_c, 0, 64, 55
1, 64028, Control_c, 0, 64, 71
1, 64043, Control_c, 0, 64, 81
1, 64058, Control_c, 0, 64, 91
1, 64072, Control_c, 0, 64, 98
1, 64087, Control_c, 0, 64, 103
1, 64099, Note_off_c, 0, 34, 61
1, 64102, Control_c, 0, 64, 107
1, 64110, Note_off_c, 0, 68, 65
1, 64117, Control_c, 0, 64, 115
1, 64129, Note_off_c, 0, 46, 61
1, 64131, Control_c, 0, 64, 124
1, 64146, Control_c, 0, 64, 127
1, 64164, Note_off_c, 0, 77, 52
1, 64198, Note_off_c, 0, 70, 29
1, 64354, Control_c, 0, 64, 113
1, 64359, Note_on_c, 0, 75, 97
1, 64362, Note_on_c, 0, 46, 90
1, 64363, Note_on_c, 0, 70, 92
1, 64367, Note_on_c, 0, 67, 86
1, 64368, Note_on_c, 0, 34, 80
1, 64369, Control_c, 0, 64, 91
1, 64384, Control_c, 0, 64, 71
1, 64399, Control_c, 0, 64, 0
1, 64489, Control_c, 0, 64, 71
1, 64503, Control_c, 0, 64, 84
1, 64518, Control_c, 0, 64, 96
1, 64533, Control_c, 0, 64, 105
1, 64547, Control_c, 0, 64, 108
1, 64562, Control_c, 0, 64, 112
1, 64577, Control_c, 0, 64, 120
1, 64587, Note_off_c, 0, 34, 61
1, 64592, Control_c, 0, 64, 127
1, 64595, Note_off_c, 0, 67, 55
1, 64604, Note_off_c, 0, 46, 59
1, 64639, Note_off_c, 0, 70, 56
1, 64648, Note_off_c, 0, 75, 62
1, 64712, Note_on_c, 0, 46, 87
1, 64715, Note_on_c, 0, 74, 88
1, 64721, Note_on_c, 0, 65, 75
1, 64727, Note_on_c, 0, 34, 60
1, 64736, Note_on_c, 0, 70, 69
1, 64746, Note_off_c, 0, 65, 70
1, 64754, Note_off_c, 0, 70, 65
1, 64757, Note_off_c, 0, 34, 66
1, 64772, Note_off_c, 0, 74, 66
1, 64777, Note_off_c, 0, 46, 60
1, 64836, Control_c, 0, 64, 122
1, 64851, Control_c, 0, 64, 101
1, 64864, Note_on_c, 0, 70, 94
1, 64864, Note_on_c, 0, 79, 103
1, 64866, Control_c, 0, 64, 83
1, 64867, Note_on_c, 0, 46, 86
1, 64874, Note_on_c, 0, 34, 75
1, 64881, Control_c, 0, 64, 60
1, 64894, Control_c, 0, 64, 0
1, 65013, Control_c, 0, 64, 61
1, 65028, Control_c, 0, 64, 68
1, 65043, Control_c, 0, 64, 74
1, 65058, Control_c, 0, 64, 82
1, 65072, Control_c, 0, 64, 93
1, 65087, Control_c, 0, 64, 102
1, 65103, Control_c, 0, 64, 108
1, 65118, Control_c, 0, 64, 112
1, 65129, Note_off_c, 0, 34, 62
1, 65132, Control_c, 0, 64, 116
1, 65135, Note_off_c, 0, 46, 61
1, 65147, Control_c, 0, 64, 122
1, 65162, Control_c, 0, 64, 127
1, 65311, Control_c, 0, 64, 123
1, 65325, Control_c, 0, 64, 103
1, 65340, Control_c, 0, 64, 87
1, 65341, Note_on_c, 0, 48, 86
1, 65350, Note_on_c, 0, 36, 80
1, 65355, Control_c, 0, 64, 69
1, 65377, Control_c, 0, 64, 0
1, 65451, Control_c, 0, 64, 48
1, 65457, Note_off_c, 0, 70, 59
1, 65466, Control_c, 0, 64, 68
1, 65481, Control_c, 0, 64, 76
1, 65496, Control_c, 0, 64, 83
1, 65511, Control_c, 0, 64, 87
1, 65525, Control_c, 0, 64, 90
1, 65540, Control_c, 0, 64, 92
1, 65555, Control_c, 0, 64, 94
1, 65559, Note_off_c, 0, 48, 62
1, 65562, Note_off_c, 0, 79, 55
1, 65568, Note_off_c, 0, 36, 54
1, 65570, Control_c, 0, 64, 96
1, 65584, Control_c, 0, 64, 97
1, 65599, Control_c, 0, 64, 98
1, 65614, Control_c, 0, 64, 99
1, 65644, Control_c, 0, 64, 100
1, 65658, Control_c, 0, 64, 101
1, 65673, Control_c, 0, 64, 103
1, 65684, Note_on_c, 0, 77, 79
1, 65684, Note_on_c, 0, 68, 76
1, 65686, Note_on_c, 0, 50, 75
1, 65688, Control_c, 0, 64, 105
1, 65696, Note_on_c, 0, 38, 67
1, 65701, Note_on_c, 0, 70, 71
1, 65702, Control_c, 0, 64, 107
1, 65717, Control_c, 0, 64, 108
1, 65723, Note_off_c, 0, 38, 64
1, 65724, Note_off_c, 0, 50, 63
1, 65728, Note_off_c, 0, 70, 65
1, 65739, Note_off_c, 0, 68, 63
1, 65747, Control_c, 0, 64, 107
1, 65750, Note_off_c, 0, 77, 60
1, 65762, Control_c, 0, 64, 98
1, 65776, Control_c, 0, 64, 81
1, 65791, Control_c, 0, 64, 51
1, 65800, Note_on_c, 0, 75, 93
1, 65803, Note_on_c, 0, 70, 85
1, 65806, Note_on_c, 0, 67, 76
1, 65806, Control_c, 0, 64, 0
1, 65807, Note_on_c, 0, 51, 84
1, 65812, Note_on_c, 0, 39, 77
1, 65881, Control_c, 0, 64, 31
1, 65896, Control_c, 0, 64, 72
1, 65911, Control_c, 0, 64, 85
1, 65926, Control_c, 0, 64, 101
1, 65940, Control_c, 0, 64, 105
1, 65943, Note_off_c, 0, 67, 63
1, 65948, Note_off_c, 0, 39, 62
1, 65955, Control_c, 0, 64, 106
1, 65968, Note_off_c, 0, 51, 63
1, 65970, Control_c, 0, 64, 109
1, 65979, Note_on_c, 0, 46, 33
1, 65979, Note_off_c, 0, 75, 59
1, 65985, Control_c, 0, 64, 112
1, 65990, Note_off_c, 0, 70, 61
1, 66000, Control_c, 0, 64, 115
1, 66015, Poly_aftertouch_c, 0, 42, 127
1, 66015, Control_c, 0, 64, 117
1, 66015, Note_off_c, 0, 46, 48
1, 66030, Control_c, 0, 64, 118
1, 66043, Poly_aftertouch_c, 0, 42, 0
1, 66045, Control_c, 0, 64, 118
1, 66059, Control_c, 0, 64, 120
1, 66074, Control_c, 0, 64, 120
1, 66089, Control_c, 0, 64, 121
1, 66140, Control_c, 0, 64, 121
1, 66155, Control_c, 0, 64, 122
1, 66170, Control_c, 0, 64, 123
1, 66185, Control_c, 0, 64, 123
1, 66215, Control_c, 0, 64, 122
1, 66229, Control_c, 0, 64, 113
1, 66244, Control_c, 0, 64, 96
1, 66259, Control_c, 0, 64, 75
1, 66274, Control_c, 0, 64, 0
1, 66310, Note_on_c, 0, 74, 96
1, 66313, Note_on_c, 0, 65, 91
1, 66313, Note_on_c, 0, 53, 93
1, 66313, Note_on_c, 0, 68, 93
1, 66317, Note_on_c, 0, 41, 93
1, 66378, Control_c, 0, 64, 68
1, 66393, Control_c, 0, 64, 90
1, 66408, Control_c, 0, 64, 114
1, 66412, Note_off_c, 0, 41, 65
1, 66423, Control_c, 0, 64, 117
1, 66424, Note_off_c, 0, 53, 64
1, 66438, Control_c, 0, 64, 118
1, 66453, Control_c, 0, 64, 121
1, 66467, Control_c, 0, 64, 127
1, 66494, Note_off_c, 0, 74, 56
1, 66495, Note_off_c, 0, 65, 64
1, 66559, Note_off_c, 0, 68, 62
1, 66683, Note_on_c, 0, 53, 76
1, 66691, Note_on_c, 0, 72, 86
1, 66694, Note_on_c, 0, 41, 69
1, 66695, Note_on_c, 0, 68, 82
1, 66697, Note_on_c, 0, 63, 84
1, 66726, Note_off_c, 0, 41, 64
1, 66729, Note_off_c, 0, 53, 64
1, 66743, Note_off_c, 0, 72, 63
1, 66746, Note_off_c, 0, 63, 62
1, 66749, Control_c, 0, 64, 101
1, 66752, Note_off_c, 0, 68, 64
1, 66764, Control_c, 0, 64, 76
1, 66779, Control_c, 0, 64, 0
1, 66796, Note_on_c, 0, 71, 92
1, 66796, Note_on_c, 0, 67, 91
1, 66799, Note_on_c, 0, 62, 90
1, 66807, Note_on_c, 0, 55, 79
1, 66808, Note_on_c, 0, 43, 83
1, 66964, Control_c, 0, 64, 69
1, 66979, Control_c, 0, 64, 86
1, 66994, Control_c, 0, 64, 98
1, 67009, Control_c, 0, 64, 102
1, 67023, Control_c, 0, 64, 104
1, 67038, Control_c, 0, 64, 107
1, 67053, Control_c, 0, 64, 115
1, 67068, Control_c, 0, 64, 127
1, 67080, Note_off_c, 0, 62, 54
1, 67091, Note_off_c, 0, 67, 52
1, 67096, Note_off_c, 0, 55, 60
1, 67186, Note_off_c, 0, 71, 49
1, 67246, Control_c, 0, 64, 113
1, 67261, Note_on_c, 0, 69, 88
1, 67261, Control_c, 0, 64, 92
1, 67264, Note_on_c, 0, 55, 81
1, 67264, Note_on_c, 0, 67, 86
1, 67264, Note_on_c, 0, 60, 84
1, 67267, Note_off_c, 0, 43, 57
1, 67276, Control_c, 0, 64, 75
1, 67290, Control_c, 0, 64, 53
1, 67305, Control_c, 0, 64, 0
1, 67394, Control_c, 0, 64, 62
1, 67409, Control_c, 0, 64, 72
1, 67423, Control_c, 0, 64, 83
1, 67438, Control_c, 0, 64, 94
1, 67453, Control_c, 0, 64, 101
1, 67467, Control_c, 0, 64, 103
1, 67481, Note_off_c, 0, 60, 54
1, 67482, Control_c, 0, 64, 106
1, 67499, Control_c, 0, 64, 109
1, 67513, Control_c, 0, 64, 113
1, 67528, Control_c, 0, 64, 115
1, 67542, Note_off_c, 0, 55, 60
1, 67543, Control_c, 0, 64, 117
1, 67558, Note_off_c, 0, 69, 61
1, 67558, Control_c, 0, 64, 118
1, 67561, Note_off_c, 0, 67, 55
1, 67572, Control_c, 0, 64, 121
1, 67587, Control_c, 0, 64, 123
1, 67602, Control_c, 0, 64, 125
1, 67624, Control_c, 0, 64, 126
1, 67632, Note_on_c, 0, 53, 73
1, 67633, Note_on_c, 0, 71, 78
1, 67634, Note_on_c, 0, 62, 78
1, 67636, Note_on_c, 0, 55, 69
1, 67651, Note_on_c, 0, 67, 61
1, 67669, Note_off_c, 0, 55, 57
1, 67669, Control_c, 0, 64, 124
1, 67673, Note_off_c, 0, 62, 60
1, 67676, Note_off_c, 0, 53, 64
1, 67678, Note_off_c, 0, 67, 63
1, 67681, Note_off_c, 0, 71, 60
1, 67684, Control_c, 0, 64, 112
1, 67699, Control_c, 0, 64, 96
1, 67714, Control_c, 0, 64, 78
1, 67728, Control_c, 0, 64, 58
1, 67738, Note_on_c, 0, 72, 91
1, 67742, Note_on_c, 0, 67, 87
1, 67743, Control_c, 0, 64, 0
1, 67744, Note_on_c, 0, 63, 91
1, 67747, Note_on_c, 0, 55, 88
1, 67753, Note_on_c, 0, 51, 80
1, 67861, Control_c, 0, 64, 25
1, 67876, Control_c, 0, 64, 57
1, 67891, Control_c, 0, 64, 67
1, 67906, Control_c, 0, 64, 77
1, 67917, Note_off_c, 0, 55, 62
1, 67920, Control_c, 0, 64, 92
1, 67935, Control_c, 0, 64, 112
1, 67950, Control_c, 0, 64, 117
1, 67956, Note_off_c, 0, 63, 62
1, 67963, Note_off_c, 0, 51, 64
1, 67964, Control_c, 0, 64, 118
1, 67979, Control_c, 0, 64, 121
1, 67987, Note_off_c, 0, 72, 58
1, 67994, Control_c, 0, 64, 127
1, 68034, Note_off_c, 0, 67, 50
1, 68232, Control_c, 0, 64, 103
1, 68246, Control_c, 0, 64, 84
1, 68261, Control_c, 0, 64, 64
1, 68268, Note_on_c, 0, 75, 104
1, 68271, Note_on_c, 0, 67, 92
1, 68274, Note_on_c, 0, 43, 94
1, 68276, Note_on_c, 0, 31, 86
1, 68276, Control_c, 0, 64, 0
1, 68351, Control_c, 0, 64, 59
1, 68373, Control_c, 0, 64, 76
1, 68388, Control_c, 0, 64, 91
1, 68402, Control_c, 0, 64, 103
1, 68417, Note_off_c, 0, 31, 60
1, 68417, Control_c, 0, 64, 105
1, 68432, Control_c, 0, 64, 107
1, 68436, Note_off_c, 0, 43, 61
1, 68447, Control_c, 0, 64, 110
1, 68462, Control_c, 0, 64, 115
1, 68477, Control_c, 0, 64, 121
1, 68479, Note_off_c, 0, 75, 62
1, 68485, Note_off_c, 0, 67, 55
1, 68492, Control_c, 0, 64, 127
1, 68668, Control_c, 0, 64, 107
1, 68683, Control_c, 0, 64, 84
1, 68698, Control_c, 0, 64, 63
1, 68702, Note_on_c, 0, 74, 86
1, 68709, Note_on_c, 0, 65, 82
1, 68710, Note_on_c, 0, 43, 71
1, 68712, Control_c, 0, 64, 0
1, 68715, Note_on_c, 0, 67, 76
1, 68718, Note_on_c, 0, 31, 67
1, 68742, Control_c, 0, 64, 64
1, 68757, Control_c, 0, 64, 81
1, 68758, Note_off_c, 0, 31, 64
1, 68760, Note_off_c, 0, 65, 63
1, 68766, Note_off_c, 0, 43, 59
1, 68772, Control_c, 0, 64, 100
1, 68780, Note_off_c, 0, 74, 62
1, 68787, Control_c, 0, 64, 115
1, 68794, Note_off_c, 0, 67, 60
1, 68802, Control_c, 0, 64, 115
1, 68817, Control_c, 0, 64, 112
1, 68832, Control_c, 0, 64, 99
1, 68847, Control_c, 0, 64, 82
1, 68847, Note_on_c, 0, 67, 80
1, 68847, Note_on_c, 0, 72, 86
1, 68854, Note_on_c, 0, 63, 84
1, 68856, Note_on_c, 0, 36, 78
1, 68860, Note_on_c, 0, 43, 67
1, 68861, Control_c, 0, 64, 66
1, 68876, Control_c, 0, 64, 0
1, 69240, Control_c, 0, 64, 16
1, 69285, Control_c, 0, 64, 23
1, 69299, Control_c, 0, 64, 37
1, 69314, Control_c, 0, 64, 46
1, 69329, Control_c, 0, 64, 49
1, 69343, Control_c, 0, 64, 50
1, 69358, Control_c, 0, 64, 52
1, 69373, Control_c, 0, 64, 54
1, 69389, Control_c, 0, 64, 56
1, 69404, Control_c, 0, 64, 59
1, 69418, Control_c, 0, 64, 59
1, 69448, Control_c, 0, 64, 60
1, 69463, Control_c, 0, 64, 61
1, 69478, Control_c, 0, 64, 63
1, 69492, Control_c, 0, 64, 64
1, 69536, Control_c, 0, 64, 64
1, 69551, Control_c, 0, 64, 65
1, 69566, Control_c, 0, 64, 66
1, 69581, Control_c, 0, 64, 66
1, 69610, Control_c, 0, 64, 67
1, 69625, Control_c, 0, 64, 67
1, 69640, Control_c, 0, 64, 68
1, 69655, Control_c, 0, 64, 70
1, 69670, Control_c, 0, 64, 71
1, 69684, Control_c, 0, 64, 72
1, 69699, Control_c, 0, 64, 74
1, 69714, Control_c, 0, 64, 76
1, 69729, Control_c, 0, 64, 79
1, 69744, Control_c, 0, 64, 82
1, 69759, Control_c, 0, 64, 85
1, 69774, Control_c, 0, 64, 86
1, 69782, Note_off_c, 0, 67, 58
1, 69789, Control_c, 0, 64, 87
1, 69804, Control_c, 0, 64, 88
1, 69818, Control_c, 0, 64, 88
1, 69833, Control_c, 0, 64, 89
1, 69848, Control_c, 0, 64, 89
1, 69869, Control_c, 0, 64, 90
1, 69915, Control_c, 0, 64, 90
1, 70364, Note_off_c, 0, 63, 58
1, 70365, Note_on_c, 0, 75, 98
1, 70374, Control_c, 0, 64, 90
1, 70389, Control_c, 0, 64, 89
1, 70395, Note_off_c, 0, 43, 55
1, 70404, Control_c, 0, 64, 87
1, 70408, Note_off_c, 0, 36, 62
1, 70412, Note_off_c, 0, 72, 62
1, 70419, Control_c, 0, 64, 83
1, 70433, Control_c, 0, 64, 80
1, 70448, Control_c, 0, 64, 75
1, 70463, Control_c, 0, 64, 71
1, 70478, Control_c, 0, 64, 68
1, 70492, Control_c, 0, 64, 66
1, 70507, Control_c, 0, 64, 65
1, 70537, Control_c, 0, 64, 64
1, 70552, Control_c, 0, 64, 62
1, 70567, Control_c, 0, 64, 60
1, 70582, Control_c, 0, 64, 60
1, 70619, Control_c, 0, 64, 58
1, 70634, Control_c, 0, 64, 45
1, 70648, Control_c, 0, 64, 0
1, 70783, Control_c, 0, 64, 52
1, 70797, Control_c, 0, 64, 67
1, 70806, Note_on_c, 0, 74, 79
1, 70812, Control_c, 0, 64, 74
1, 70827, Control_c, 0, 64, 79
1, 70841, Note_off_c, 0, 75, 61
1, 70842, Control_c, 0, 64, 83
1, 70857, Control_c, 0, 64, 85
1, 70871, Control_c, 0, 64, 87
1, 70886, Control_c, 0, 64, 88
1, 70915, Control_c, 0, 64, 86
1, 70929, Note_on_c, 0, 73, 95
1, 70930, Control_c, 0, 64, 74
1, 70939, Note_on_c, 0, 63, 92
1, 70941, Note_on_c, 0, 56, 80
1, 70942, Note_on_c, 0, 68, 86
1, 70945, Note_on_c, 0, 44, 78
1, 70945, Note_on_c, 0, 51, 78
1, 70945, Control_c, 0, 64, 0
1, 70966, Note_off_c, 0, 74, 63
1, 70967, Note_on_c, 0, 72, 84
1, 70987, Note_on_c, 0, 69, 31
1, 71020, Note_off_c, 0, 69, 34
1, 71024, Note_off_c, 0, 73, 60
1, 71606, Control_c, 0, 64, 52
1, 71620, Control_c, 0, 64, 64
1, 71665, Control_c, 0, 64, 66
1, 71680, Control_c, 0, 64, 69
1, 71694, Control_c, 0, 64, 75
1, 71709, Control_c, 0, 64, 81
1, 71724, Control_c, 0, 64, 84
1, 71738, Control_c, 0, 64, 86
1, 71753, Control_c, 0, 64, 88
1, 71768, Control_c, 0, 64, 93
1, 71783, Control_c, 0, 64, 97
1, 71798, Control_c, 0, 64, 102
1, 71813, Control_c, 0, 64, 105
1, 71828, Control_c, 0, 64, 108
1, 71842, Control_c, 0, 64, 111
1, 71848, Note_off_c, 0, 63, 61
1, 71857, Control_c, 0, 64, 115
1, 71872, Control_c, 0, 64, 120
1, 71887, Control_c, 0, 64, 124
1, 71902, Control_c, 0, 64, 127
1, 71916, Note_off_c, 0, 68, 58
1, 72064, Note_off_c, 0, 72, 55
1, 72412, Note_on_c, 0, 72, 83
1, 72454, Note_off_c, 0, 56, 65
1, 72463, Note_on_c, 0, 75, 97
1, 72472, Note_off_c, 0, 44, 63
1, 72473, Control_c, 0, 64, 103
1, 72488, Control_c, 0, 64, 80
1, 72492, Note_off_c, 0, 72, 67
1, 72496, Note_off_c, 0, 51, 64
1, 72503, Control_c, 0, 64, 0
1, 72870, Note_on_c, 0, 74, 84
1, 72895, Control_c, 0, 64, 65
1, 72901, Note_off_c, 0, 75, 63
1, 72910, Control_c, 0, 64, 72
1, 72925, Control_c, 0, 64, 81
1, 72939, Control_c, 0, 64, 87
1, 72954, Control_c, 0, 64, 90
1, 72999, Control_c, 0, 64, 89
1, 73007, Note_on_c, 0, 72, 98
1, 73014, Note_on_c, 0, 51, 82
1, 73014, Control_c, 0, 64, 81
1, 73017, Note_on_c, 0, 39, 80
1, 73017, Note_on_c, 0, 48, 83
1, 73017, Note_on_c, 0, 67, 84
1, 73029, Control_c, 0, 64, 69
1, 73030, Note_off_c, 0, 74, 68
1, 73043, Control_c, 0, 64, 0
1, 73310, Control_c, 0, 64, 57
1, 73325, Control_c, 0, 64, 58
1, 73340, Control_c, 0, 64, 56
1, 73355, Control_c, 0, 64, 58
1, 73370, Control_c, 0, 64, 64
1, 73384, Control_c, 0, 64, 69
1, 73399, Control_c, 0, 64, 73
1, 73414, Control_c, 0, 64, 74
1, 73429, Control_c, 0, 64, 75
1, 73444, Control_c, 0, 64, 75
1, 73458, Control_c, 0, 64, 77
1, 73473, Control_c, 0, 64, 81
1, 73488, Control_c, 0, 64, 85
1, 73503, Control_c, 0, 64, 87
1, 73518, Control_c, 0, 64, 88
1, 73533, Control_c, 0, 64, 88
1, 73548, Control_c, 0, 64, 90
1, 73562, Control_c, 0, 64, 93
1, 73577, Control_c, 0, 64, 96
1, 73592, Control_c, 0, 64, 99
1, 73614, Control_c, 0, 64, 100
1, 73629, Control_c, 0, 64, 101
1, 73644, Control_c, 0, 64, 102
1, 73658, Control_c, 0, 64, 104
1, 73673, Control_c, 0, 64, 108
1, 73688, Control_c, 0, 64, 110
1, 73703, Control_c, 0, 64, 112
1, 73717, Control_c, 0, 64, 114
1, 73732, Control_c, 0, 64, 115
1, 73747, Control_c, 0, 64, 119
1, 73762, Note_off_c, 0, 51, 55
1, 73762, Control_c, 0, 64, 124
1, 73777, Control_c, 0, 64, 127
1, 73844, Note_off_c, 0, 39, 57
1, 73935, Note_off_c, 0, 48, 63
1, 74481, Control_c, 0, 64, 113
1, 74496, Control_c, 0, 64, 92
1, 74511, Control_c, 0, 64, 70
1, 74526, Control_c, 0, 64, 0
1, 74551, Note_on_c, 0, 74, 93
1, 74553, Note_on_c, 0, 60, 86
1, 74555, Note_on_c, 0, 48, 80
1, 74582, Note_off_c, 0, 72, 62
1, 74598, Note_off_c, 0, 67, 59
1, 74644, Control_c, 0, 64, 73
1, 74658, Control_c, 0, 64, 85
1, 74671, Note_off_c, 0, 48, 65
1, 74673, Control_c, 0, 64, 97
1, 74682, Note_off_c, 0, 60, 65
1, 74689, Control_c, 0, 64, 101
1, 74704, Control_c, 0, 64, 103
1, 74719, Control_c, 0, 64, 105
1, 74734, Control_c, 0, 64, 110
1, 74749, Control_c, 0, 64, 116
1, 74763, Control_c, 0, 64, 122
1, 74778, Control_c, 0, 64, 127
1, 74867, Note_off_c, 0, 74, 60
1, 74902, Note_on_c, 0, 75, 82
1, 74967, Note_off_c, 0, 75, 64
1, 74970, Poly_aftertouch_c, 0, 74, 127
1, 74970, Control_c, 0, 64, 125
1, 74985, Control_c, 0, 64, 96
1, 75000, Control_c, 0, 64, 72
1, 75001, Poly_aftertouch_c, 0, 74, 0
1, 75008, Note_on_c, 0, 72, 93
1, 75009, Note_on_c, 0, 77, 98
1, 75013, Note_on_c, 0, 68, 94
1, 75014, Note_on_c, 0, 53, 88
1, 75015, Control_c, 0, 64, 0
1, 75017, Note_on_c, 0, 41, 83
1, 75155, Control_c, 0, 64, 72
1, 75167, Note_off_c, 0, 41, 66
1, 75170, Control_c, 0, 64, 84
1, 75180, Note_off_c, 0, 77, 61
1, 75185, Control_c, 0, 64, 95
1, 75193, Note_off_c, 0, 53, 63
1, 75200, Control_c, 0, 64, 98
1, 75215, Control_c, 0, 64, 100
1, 75223, Note_off_c, 0, 72, 59
1, 75229, Control_c, 0, 64, 104
1, 75244, Control_c, 0, 64, 109
1, 75259, Control_c, 0, 64, 114
1, 75273, Note_off_c, 0, 68, 61
1, 75274, Control_c, 0, 64, 116
1, 75288, Control_c, 0, 64, 117
1, 75303, Control_c, 0, 64, 119
1, 75318, Control_c, 0, 64, 121
1, 75333, Control_c, 0, 64, 124
1, 75348, Control_c, 0, 64, 126
1, 75363, Control_c, 0, 64, 127
1, 75422, Control_c, 0, 64, 119
1, 75436, Control_c, 0, 64, 101
1, 75451, Control_c, 0, 64, 79
1, 75466, Control_c, 0, 64, 0
1, 75467, Note_on_c, 0, 75, 95
1, 75469, Note_on_c, 0, 55, 88
1, 75469, Note_on_c, 0, 72, 82
1, 75471, Note_on_c, 0, 67, 85
1, 75473, Note_on_c, 0, 43, 87
1, 75571, Control_c, 0, 64, 66
1, 75585, Control_c, 0, 64, 79
1, 75592, Note_off_c, 0, 43, 62
1, 75600, Control_c, 0, 64, 89
1, 75615, Control_c, 0, 64, 94
1, 75630, Control_c, 0, 64, 96
1, 75633, Note_off_c, 0, 55, 60
1, 75645, Control_c, 0, 64, 99
1, 75659, Control_c, 0, 64, 103
1, 75665, Note_off_c, 0, 67, 55
1, 75674, Control_c, 0, 64, 105
1, 75689, Control_c, 0, 64, 108
1, 75703, Control_c, 0, 64, 109
1, 75718, Control_c, 0, 64, 111
1, 75733, Control_c, 0, 64, 112
1, 75737, Note_off_c, 0, 72, 57
1, 75738, Note_off_c, 0, 75, 60
1, 75748, Control_c, 0, 64, 112
1, 75763, Control_c, 0, 64, 113
1, 75795, Note_on_c, 0, 56, 81
1, 75802, Note_on_c, 0, 44, 68
1, 75807, Note_on_c, 0, 65, 83
1, 75807, Note_on_c, 0, 74, 79
1, 75822, Control_c, 0, 64, 112
1, 75837, Control_c, 0, 64, 105
1, 75858, Note_off_c, 0, 65, 65
1, 75858, Note_off_c, 0, 44, 61
1, 75859, Control_c, 0, 64, 92
1, 75860, Note_off_c, 0, 56, 61
1, 75874, Control_c, 0, 64, 74
1, 75881, Note_off_c, 0, 74, 63
1, 75889, Control_c, 0, 64, 0
1, 75928, Note_on_c, 0, 72, 96
1, 75931, Note_on_c, 0, 55, 87
1, 75934, Note_on_c, 0, 43, 87
1, 75935, Note_on_c, 0, 63, 90
1, 76037, Control_c, 0, 64, 73
1, 76046, Note_off_c, 0, 43, 60
1, 76049, Note_off_c, 0, 55, 67
1, 76051, Control_c, 0, 64, 85
1, 76066, Control_c, 0, 64, 96
1, 76081, Control_c, 0, 64, 97
1, 76092, Note_off_c, 0, 72, 63
1, 76096, Control_c, 0, 64, 98
1, 76111, Control_c, 0, 64, 99
1, 76122, Note_off_c, 0, 63, 64
1, 76126, Control_c, 0, 64, 101
1, 76141, Control_c, 0, 64, 102
1, 76156, Control_c, 0, 64, 102
1, 76290, Control_c, 0, 64, 102
1, 76305, Control_c, 0, 64, 99
1, 76320, Control_c, 0, 64, 94
1, 76335, Control_c, 0, 64, 85
1, 76350, Control_c, 0, 64, 71
1, 76364, Control_c, 0, 64, 43
1, 76379, Control_c, 0, 64, 0
1, 76420, Note_on_c, 0, 71, 90
1, 76421, Note_on_c, 0, 67, 83
1, 76424, Note_on_c, 0, 62, 83
1, 76425, Note_on_c, 0, 31, 79
1, 76427, Note_on_c, 0, 43, 85
1, 76498, Control_c, 0, 64, 62
1, 76513, Control_c, 0, 64, 77
1, 76527, Control_c, 0, 64, 89
1, 76536, Note_off_c, 0, 31, 64
1, 76542, Control_c, 0, 64, 98
1, 76543, Note_off_c, 0, 43, 61
1, 76557, Control_c, 0, 64, 98
1, 76572, Note_off_c, 0, 62, 61
1, 76572, Control_c, 0, 64, 99
1, 76587, Control_c, 0, 64, 100
1, 76609, Control_c, 0, 64, 100
1, 76624, Control_c, 0, 64, 101
1, 76637, Note_off_c, 0, 71, 56
1, 76654, Control_c, 0, 64, 101
1, 76660, Note_off_c, 0, 67, 56
1, 76949, Control_c, 0, 64, 101
1, 76964, Control_c, 0, 64, 97
1, 76979, Control_c, 0, 64, 86
1, 76987, Note_on_c, 0, 72, 86
1, 76990, Note_on_c, 0, 63, 88
1, 76992, Note_on_c, 0, 67, 85
1, 76994, Control_c, 0, 64, 72
1, 76996, Note_on_c, 0, 48, 75
1, 76998, Note_on_c, 0, 36, 71
1, 77000, Note_on_c, 0, 43, 65
1, 77008, Control_c, 0, 64, 45
1, 77023, Control_c, 0, 64, 0
1, 77372, Control_c, 0, 64, 20
1, 77387, Control_c, 0, 64, 23
1, 77417, Control_c, 0, 64, 26
1, 77432, Control_c, 0, 64, 31
1, 77447, Control_c, 0, 64, 36
1, 77461, Control_c, 0, 64, 39
1, 77476, Control_c, 0, 64, 39
1, 77491, Control_c, 0, 64, 40
1, 77506, Control_c, 0, 64, 43
1, 77521, Control_c, 0, 64, 48
1, 77536, Control_c, 0, 64, 52
1, 77550, Control_c, 0, 64, 54
1, 77565, Control_c, 0, 64, 56
1, 77580, Control_c, 0, 64, 57
1, 77595, Control_c, 0, 64, 59
1, 77610, Control_c, 0, 64, 61
1, 77625, Control_c, 0, 64, 62
1, 77639, Control_c, 0, 64, 62
1, 77654, Control_c, 0, 64, 63
1, 77669, Control_c, 0, 64, 64
1, 77683, Control_c, 0, 64, 64
1, 77698, Control_c, 0, 64, 65
1, 77713, Control_c, 0, 64, 66
1, 77728, Control_c, 0, 64, 67
1, 77743, Control_c, 0, 64, 67
1, 77757, Control_c, 0, 64, 68
1, 77772, Control_c, 0, 64, 69
1, 77787, Control_c, 0, 64, 70
1, 77802, Control_c, 0, 64, 71
1, 77817, Control_c, 0, 64, 72
1, 77831, Control_c, 0, 64, 73
1, 77846, Control_c, 0, 64, 74
1, 77861, Control_c, 0, 64, 75
1, 77877, Control_c, 0, 64, 76
1, 77892, Control_c, 0, 64, 78
1, 77906, Control_c, 0, 64, 79
1, 77921, Control_c, 0, 64, 80
1, 77936, Control_c, 0, 64, 81
1, 77951, Control_c, 0, 64, 82
1, 77966, Control_c, 0, 64, 83
1, 77980, Control_c, 0, 64, 85
1, 77995, Control_c, 0, 64, 86
1, 78007, Note_off_c, 0, 67, 56
1, 78010, Control_c, 0, 64, 88
1, 78025, Control_c, 0, 64, 90
1, 78040, Control_c, 0, 64, 91
1, 78055, Control_c, 0, 64, 92
1, 78055, Control_c, 0, 67, 9
1, 78070, Control_c, 0, 64, 93
1, 78070, Control_c, 0, 67, 13
1, 78084, Control_c, 0, 64, 93
1, 78084, Control_c, 0, 67, 16
1, 78106, Control_c, 0, 64, 94
1, 78106, Control_c, 0, 67, 21
1, 78121, Control_c, 0, 64, 94
1, 78121, Control_c, 0, 67, 26
1, 78136, Control_c, 0, 64, 95
1, 78136, Control_c, 0, 67, 29
1, 78151, Control_c, 0, 67, 31
1, 78166, Control_c, 0, 64, 95
1, 78180, Control_c, 0, 67, 31
1, 78195, Control_c, 0, 67, 32
1, 78210, Control_c, 0, 64, 96
1, 78210, Control_c, 0, 67, 34
1, 78225, Control_c, 0, 67, 38
1, 78240, Control_c, 0, 67, 42
1, 78254, Control_c, 0, 67, 44
1, 78269, Control_c, 0, 67, 47
1, 78284, Control_c, 0, 67, 50
1, 78299, Control_c, 0, 67, 53
1, 78314, Control_c, 0, 67, 58
1, 78329, Control_c, 0, 67, 63
1, 78344, Control_c, 0, 67, 67
1, 78359, Control_c, 0, 67, 71
1, 78373, Control_c, 0, 67, 74
1, 78388, Control_c, 0, 67, 78
1, 78403, Control_c, 0, 67, 84
1, 78418, Control_c, 0, 67, 89
1, 78433, Control_c, 0, 67, 95
1, 78447, Control_c, 0, 67, 100
1, 78462, Control_c, 0, 67, 105
1, 78477, Control_c, 0, 67, 112
1, 78492, Control_c, 0, 67, 119
1, 78506, Control_c, 0, 64, 95
1, 78506, Control_c, 0, 67, 127
1, 78551, Control_c, 0, 64, 95
1, 78580, Control_c, 0, 64, 94
1, 78610, Control_c, 0, 64, 94
1, 78639, Control_c, 0, 64, 93
1, 78654, Control_c, 0, 64, 93
1, 78680, Note_off_c, 0, 36, 37
1, 78685, Control_c, 0, 64, 92
1, 78700, Control_c, 0, 64, 92
1, 78715, Control_c, 0, 64, 91
1, 78724, Note_off_c, 0, 48, 39
1, 78729, Control_c, 0, 64, 91
1, 78744, Control_c, 0, 64, 90
1, 78759, Control_c, 0, 64, 89
1, 78774, Control_c, 0, 64, 89
1, 78789, Control_c, 0, 64, 88
1, 78798, Note_off_c, 0, 43, 39
1, 78803, Control_c, 0, 64, 87
1, 78818, Control_c, 0, 64, 85
1, 78833, Control_c, 0, 64, 83
1, 78856, Control_c, 0, 64, 81
1, 78871, Control_c, 0, 64, 79
1, 78885, Control_c, 0, 64, 77
1, 78900, Control_c, 0, 64, 74
1, 78915, Control_c, 0, 64, 72
1, 78929, Control_c, 0, 64, 69
1, 78944, Control_c, 0, 64, 67
1, 78948, Note_on_c, 0, 75, 45
1, 78959, Control_c, 0, 64, 66
1, 78974, Control_c, 0, 64, 66
1, 78989, Control_c, 0, 64, 65
1, 79003, Control_c, 0, 64, 65
1, 79018, Control_c, 0, 64, 64
1, 79033, Control_c, 0, 64, 63
1, 79035, Note_off_c, 0, 72, 58
1, 79048, Control_c, 0, 64, 62
1, 79050, Note_off_c, 0, 63, 35
1, 79063, Control_c, 0, 64, 62
1, 79077, Control_c, 0, 64, 61
1, 79092, Control_c, 0, 64, 60
1, 79107, Control_c, 0, 64, 59
1, 79122, Control_c, 0, 64, 58
1, 79137, Control_c, 0, 64, 58
1, 79152, Control_c, 0, 64, 57
1, 79167, Control_c, 0, 64, 56
1, 79181, Control_c, 0, 64, 55
1, 79196, Control_c, 0, 64, 54
1, 79211, Control_c, 0, 64, 54
1, 79226, Control_c, 0, 64, 53
1, 79241, Control_c, 0, 64, 52
1, 79255, Control_c, 0, 64, 51
1, 79270, Control_c, 0, 64, 49
1, 79285, Control_c, 0, 64, 48
1, 79344, Control_c, 0, 64, 48
1, 79359, Control_c, 0, 64, 46
1, 79410, Note_on_c, 0, 74, 49
1, 79433, Control_c, 0, 64, 46
1, 79447, Control_c, 0, 64, 45
1, 79557, Note_off_c, 0, 75, 40
1, 79569, Note_on_c, 0, 72, 57
1, 79576, Note_on_c, 0, 51, 39
1, 79577, Note_on_c, 0, 63, 35
1, 79578, Note_on_c, 0, 68, 46
1, 79583, Note_on_c, 0, 56, 35
1, 79585, Note_on_c, 0, 44, 25
1, 79632, Note_off_c, 0, 74, 54
1, 79738, Control_c, 0, 64, 46
1, 79767, Control_c, 0, 64, 46
1, 79782, Control_c, 0, 64, 47
1, 79797, Control_c, 0, 64, 47
1, 79812, Control_c, 0, 64, 48
1, 79826, Control_c, 0, 64, 49
1, 79841, Control_c, 0, 64, 49
1, 79856, Control_c, 0, 64, 50
1, 79870, Control_c, 0, 64, 51
1, 79885, Control_c, 0, 64, 53
1, 79900, Control_c, 0, 64, 55
1, 79915, Control_c, 0, 64, 56
1, 79930, Control_c, 0, 64, 57
1, 79945, Control_c, 0, 64, 59
1, 79959, Control_c, 0, 64, 60
1, 79974, Control_c, 0, 64, 61
1, 79989, Control_c, 0, 64, 62
1, 80004, Control_c, 0, 64, 63
1, 80019, Control_c, 0, 64, 64
1, 80034, Control_c, 0, 64, 65
1, 80049, Control_c, 0, 64, 66
1, 80064, Control_c, 0, 64, 66
1, 80078, Control_c, 0, 64, 67
1, 80093, Control_c, 0, 64, 68
1, 80108, Control_c, 0, 64, 69
1, 80123, Control_c, 0, 64, 70
1, 80138, Control_c, 0, 64, 71
1, 80152, Control_c, 0, 64, 72
1, 80167, Control_c, 0, 64, 73
1, 80182, Control_c, 0, 64, 75
1, 80197, Control_c, 0, 64, 77
1, 80212, Control_c, 0, 64, 78
1, 80226, Control_c, 0, 64, 80
1, 80241, Control_c, 0, 64, 81
1, 80256, Control_c, 0, 64, 83
1, 80272, Control_c, 0, 64, 85
1, 80287, Control_c, 0, 64, 87
1, 80301, Control_c, 0, 64, 89
1, 80316, Control_c, 0, 64, 90
1, 80331, Control_c, 0, 64, 91
1, 80353, Control_c, 0, 64, 93
1, 80368, Control_c, 0, 64, 94
1, 80383, Control_c, 0, 64, 95
1, 80398, Control_c, 0, 64, 96
1, 80413, Control_c, 0, 64, 97
1, 80427, Control_c, 0, 64, 97
1, 80472, Control_c, 0, 64, 98
1, 80550, Note_off_c, 0, 68, 53
1, 80616, Note_off_c, 0, 56, 40
1, 80752, Note_off_c, 0, 63, 42
1, 81045, Note_off_c, 0, 44, 39
1, 81080, Control_c, 0, 64, 97
1, 81123, Note_off_c, 0, 51, 35
1, 81146, Control_c, 0, 64, 97
1, 81176, Control_c, 0, 64, 96
1, 81191, Control_c, 0, 64, 96
1, 81205, Control_c, 0, 64, 95
1, 81220, Control_c, 0, 64, 94
1, 81235, Control_c, 0, 64, 93
1, 81250, Control_c, 0, 64, 91
1, 81253, Note_on_c, 0, 75, 49
1, 81265, Control_c, 0, 64, 88
1, 81280, Control_c, 0, 64, 86
1, 81295, Control_c, 0, 64, 84
1, 81310, Control_c, 0, 64, 82
1, 81323, Note_off_c, 0, 72, 61
1, 81324, Control_c, 0, 64, 80
1, 81339, Control_c, 0, 64, 78
1, 81354, Control_c, 0, 64, 76
1, 81369, Control_c, 0, 64, 74
1, 81384, Control_c, 0, 64, 73
1, 81398, Control_c, 0, 64, 72
1, 81413, Control_c, 0, 64, 71
1, 81428, Control_c, 0, 64, 70
1, 81443, Control_c, 0, 64, 69
1, 81457, Control_c, 0, 64, 68
1, 81472, Control_c, 0, 64, 67
1, 81487, Control_c, 0, 64, 67
1, 81531, Control_c, 0, 64, 66
1, 81702, Note_on_c, 0, 74, 45
1, 81828, Control_c, 0, 64, 66
1, 81835, Note_off_c, 0, 75, 38
1, 81861, Note_on_c, 0, 48, 39
1, 81867, Note_on_c, 0, 51, 30
1, 81872, Note_on_c, 0, 72, 51
1, 81875, Note_on_c, 0, 39, 37
1, 81887, Note_on_c, 0, 67, 38
1, 81942, Note_off_c, 0, 74, 38
1, 82014, Control_c, 0, 64, 66
1, 82073, Control_c, 0, 64, 67
1, 82103, Control_c, 0, 64, 67
1, 82118, Control_c, 0, 64, 68
1, 82147, Control_c, 0, 64, 68
1, 82177, Control_c, 0, 64, 69
1, 82192, Control_c, 0, 64, 69
1, 82213, Note_off_c, 0, 51, 0
1, 82221, Control_c, 0, 64, 70
1, 82249, Poly_aftertouch_c, 0, 51, 127
1, 82265, Control_c, 0, 64, 70
1, 82295, Control_c, 0, 64, 71
1, 82325, Control_c, 0, 64, 71
1, 82354, Control_c, 0, 64, 72
1, 82369, Control_c, 0, 64, 72
1, 82384, Control_c, 0, 64, 73
1, 82399, Control_c, 0, 64, 74
1, 82414, Control_c, 0, 64, 75
1, 82428, Control_c, 0, 64, 75
1, 82443, Control_c, 0, 64, 76
1, 82458, Control_c, 0, 64, 77
1, 82472, Control_c, 0, 64, 78
1, 82487, Control_c, 0, 64, 79
1, 82502, Control_c, 0, 64, 81
1, 82517, Control_c, 0, 64, 82
1, 82532, Control_c, 0, 64, 83
1, 82547, Control_c, 0, 64, 83
1, 82562, Control_c, 0, 64, 84
1, 82577, Control_c, 0, 64, 86
1, 82599, Control_c, 0, 64, 88
1, 82614, Control_c, 0, 64, 90
1, 82628, Control_c, 0, 64, 91
1, 82643, Control_c, 0, 64, 91
1, 82658, Control_c, 0, 64, 92
1, 82674, Control_c, 0, 64, 93
1, 82689, Control_c, 0, 64, 94
1, 82703, Control_c, 0, 64, 95
1, 82718, Control_c, 0, 64, 96
1, 82733, Control_c, 0, 64, 96
1, 82763, Control_c, 0, 64, 97
1, 82822, Control_c, 0, 64, 97
1, 82830, Poly_aftertouch_c, 0, 51, 0
1, 82832, Note_off_c, 0, 67, 41
1, 82895, Note_off_c, 0, 72, 50
1, 83207, Note_off_c, 0, 39, 50
1, 83311, Control_c, 0, 64, 97
1, 83316, Note_off_c, 0, 48, 44
1, 83364, Control_c, 0, 64, 96
1, 83393, Control_c, 0, 64, 96
1, 83422, Control_c, 0, 64, 95
1, 83437, Control_c, 0, 64, 95
1, 83468, Control_c, 0, 64, 94
1, 83483, Control_c, 0, 64, 93
1, 83498, Control_c, 0, 64, 92
1, 83513, Control_c, 0, 64, 91
1, 83527, Control_c, 0, 64, 90
1, 83542, Control_c, 0, 64, 88
1, 83557, Control_c, 0, 64, 87
1, 83572, Control_c, 0, 64, 84
1, 83587, Control_c, 0, 64, 82
1, 83601, Control_c, 0, 64, 80
1, 83615, Control_c, 0, 64, 78
1, 83630, Control_c, 0, 64, 75
1, 83636, Note_on_c, 0, 73, 40
1, 83644, Control_c, 0, 64, 72
1, 83659, Control_c, 0, 64, 69
1, 83674, Control_c, 0, 64, 66
1, 83689, Control_c, 0, 64, 65
1, 83704, Control_c, 0, 64, 64
1, 83718, Control_c, 0, 64, 63
1, 83733, Control_c, 0, 64, 60
1, 83748, Control_c, 0, 64, 53
1, 83763, Control_c, 0, 64, 41
1, 83778, Control_c, 0, 64, 33
1, 83793, Control_c, 0, 64, 32
1, 83808, Control_c, 0, 64, 31
1, 83837, Control_c, 0, 64, 34
1, 83852, Control_c, 0, 64, 44
1, 83867, Control_c, 0, 64, 56
1, 83882, Control_c, 0, 64, 63
1, 83897, Control_c, 0, 64, 65
1, 83911, Control_c, 0, 64, 68
1, 83926, Control_c, 0, 64, 69
1, 83941, Control_c, 0, 64, 71
1, 83956, Control_c, 0, 64, 73
1, 83966, Note_off_c, 0, 73, 53
1, 83971, Control_c, 0, 64, 75
1, 83985, Note_on_c, 0, 75, 40
1, 83985, Control_c, 0, 64, 77
1, 84000, Control_c, 0, 64, 77
1, 84015, Control_c, 0, 64, 78
1, 84097, Note_off_c, 0, 75, 56
1, 84112, Control_c, 0, 64, 76
1, 84126, Control_c, 0, 64, 73
1, 84141, Control_c, 0, 64, 68
1, 84156, Control_c, 0, 64, 62
1, 84169, Note_on_c, 0, 73, 39
1, 84171, Control_c, 0, 64, 53
1, 84178, Note_on_c, 0, 68, 31
1, 84182, Note_on_c, 0, 49, 34
1, 84186, Control_c, 0, 64, 48
1, 84200, Control_c, 0, 64, 41
1, 84215, Control_c, 0, 64, 26
1, 84230, Control_c, 0, 64, 0
1, 84233, Note_off_c, 0, 73, 50
1, 84234, Note_on_c, 0, 75, 53
1, 84282, Note_off_c, 0, 75, 60
1, 84305, Note_on_c, 0, 77, 48
1, 84364, Control_c, 0, 64, 55
1, 84379, Control_c, 0, 64, 66
1, 84394, Control_c, 0, 64, 70
1, 84409, Control_c, 0, 64, 72
1, 84423, Control_c, 0, 64, 74
1, 84438, Control_c, 0, 64, 76
1, 84453, Control_c, 0, 64, 77
1, 84467, Control_c, 0, 64, 79
1, 84470, Note_off_c, 0, 68, 27
1, 84477, Note_off_c, 0, 77, 59
1, 84482, Control_c, 0, 64, 80
1, 84523, Note_off_c, 0, 49, 40
1, 84556, Control_c, 0, 64, 79
1, 84571, Control_c, 0, 64, 75
1, 84586, Control_c, 0, 64, 65
1, 84601, Control_c, 0, 64, 25
1, 84616, Control_c, 0, 64, 0
1, 84619, Note_on_c, 0, 68, 41
1, 84624, Note_on_c, 0, 75, 49
1, 84628, Note_on_c, 0, 51, 32
1, 84660, Control_c, 0, 64, 44
1, 84675, Control_c, 0, 64, 67
1, 84690, Control_c, 0, 64, 73
1, 84705, Control_c, 0, 64, 78
1, 84720, Control_c, 0, 64, 80
1, 84734, Control_c, 0, 64, 80
1, 84747, Note_off_c, 0, 75, 56
1, 84749, Control_c, 0, 64, 81
1, 84762, Note_off_c, 0, 51, 30
1, 84764, Control_c, 0, 64, 81
1, 84779, Control_c, 0, 64, 82
1, 84791, Note_off_c, 0, 68, 36
1, 84823, Control_c, 0, 64, 82
1, 84920, Control_c, 0, 64, 81
1, 84930, Note_on_c, 0, 53, 34
1, 84932, Note_on_c, 0, 73, 52
1, 84935, Control_c, 0, 64, 77
1, 84940, Note_on_c, 0, 68, 43
1, 84949, Control_c, 0, 64, 71
1, 84964, Control_c, 0, 64, 60
1, 84964, Note_off_c, 0, 73, 54
1, 84979, Control_c, 0, 64, 0
1, 84979, Note_off_c, 0, 68, 47
1, 84988, Note_off_c, 0, 53, 44
1, 85075, Note_on_c, 0, 72, 57
1, 85078, Note_on_c, 0, 68, 45
1, 85083, Note_on_c, 0, 51, 41
1, 85084, Control_c, 0, 64, 26
1, 85098, Control_c, 0, 64, 66
1, 85113, Control_c, 0, 64, 73
1, 85113, Note_off_c, 0, 72, 64
1, 85123, Note_off_c, 0, 68, 47
1, 85126, Note_off_c, 0, 51, 62
1, 85128, Control_c, 0, 64, 79
1, 85143, Control_c, 0, 64, 83
1, 85158, Control_c, 0, 64, 84
1, 85172, Control_c, 0, 64, 85
1, 85187, Control_c, 0, 64, 86
1, 85202, Control_c, 0, 64, 87
1, 85394, Control_c, 0, 64, 86
1, 85409, Control_c, 0, 64, 84
1, 85424, Control_c, 0, 64, 80
1, 85438, Control_c, 0, 64, 72
1, 85453, Control_c, 0, 64, 62
1, 85468, Control_c, 0, 64, 0
1, 85532, Note_on_c, 0, 70, 53
1, 85537, Note_on_c, 0, 39, 36
1, 85538, Note_on_c, 0, 61, 43
1, 85538, Note_on_c, 0, 67, 41
1, 85546, Note_on_c, 0, 51, 29
1, 85556, Note_on_c, 0, 63, 25
1, 85557, Control_c, 0, 64, 60
1, 85572, Control_c, 0, 64, 71
1, 85594, Control_c, 0, 64, 79
1, 85605, Note_off_c, 0, 61, 59
1, 85606, Note_off_c, 0, 63, 51
1, 85609, Control_c, 0, 64, 84
1, 85615, Note_off_c, 0, 67, 59
1, 85621, Note_off_c, 0, 51, 58
1, 85624, Control_c, 0, 64, 84
1, 85627, Note_off_c, 0, 70, 63
1, 85629, Note_off_c, 0, 39, 59
1, 85638, Control_c, 0, 64, 85
1, 85653, Control_c, 0, 64, 85
1, 85683, Control_c, 0, 64, 86
1, 85831, Control_c, 0, 64, 85
1, 85877, Control_c, 0, 64, 85
1, 85907, Control_c, 0, 64, 84
1, 85921, Control_c, 0, 64, 83
1, 85936, Control_c, 0, 64, 82
1, 85951, Control_c, 0, 64, 81
1, 85966, Control_c, 0, 64, 80
1, 85981, Control_c, 0, 64, 79
1, 85996, Control_c, 0, 64, 75
1, 86011, Control_c, 0, 64, 69
1, 86026, Control_c, 0, 64, 60
1, 86040, Control_c, 0, 64, 37
1, 86052, Note_on_c, 0, 68, 50
1, 86055, Control_c, 0, 64, 0
1, 86058, Note_on_c, 0, 44, 39
1, 86073, Note_on_c, 0, 63, 41
1, 86076, Note_on_c, 0, 60, 36
1, 86129, Control_c, 0, 64, 35
1, 86144, Control_c, 0, 64, 55
1, 86159, Control_c, 0, 64, 63
1, 86174, Control_c, 0, 64, 67
1, 86188, Control_c, 0, 64, 69
1, 86203, Control_c, 0, 64, 72
1, 86207, Note_on_c, 0, 48, 42
1, 86218, Control_c, 0, 64, 75
1, 86232, Control_c, 0, 64, 76
1, 86247, Control_c, 0, 64, 78
1, 86262, Control_c, 0, 64, 79
1, 86267, Note_off_c, 0, 48, 61
1, 86276, Note_off_c, 0, 44, 37
1, 86277, Control_c, 0, 64, 80
1, 86292, Control_c, 0, 64, 81
1, 86306, Control_c, 0, 64, 82
1, 86343, Note_on_c, 0, 56, 37
1, 86344, Control_c, 0, 64, 82
1, 86359, Control_c, 0, 64, 83
1, 86374, Control_c, 0, 64, 83
1, 86451, Note_off_c, 0, 56, 35
1, 86488, Note_on_c, 0, 48, 37
1, 86625, Note_on_c, 0, 51, 41
1, 86637, Note_off_c, 0, 48, 38
1, 86748, Note_on_c, 0, 56, 33
1, 86813, Note_off_c, 0, 51, 25
1, 86847, Control_c, 0, 64, 81
1, 86861, Control_c, 0, 64, 76
1, 86873, Note_on_c, 0, 47, 44
1, 86876, Control_c, 0, 64, 68
1, 86889, Note_off_c, 0, 56, 40
1, 86891, Control_c, 0, 64, 58
1, 86904, Note_off_c, 0, 60, 54
1, 86906, Control_c, 0, 64, 37
1, 86921, Control_c, 0, 64, 34
1, 86935, Control_c, 0, 64, 42
1, 86950, Control_c, 0, 64, 54
1, 86964, Note_off_c, 0, 63, 58
1, 86965, Control_c, 0, 64, 62
1, 86980, Control_c, 0, 64, 67
1, 86995, Control_c, 0, 64, 71
1, 87009, Control_c, 0, 64, 74
1, 87017, Note_on_c, 0, 50, 40
1, 87021, Note_off_c, 0, 68, 63
1, 87024, Control_c, 0, 64, 76
1, 87039, Control_c, 0, 64, 78
1, 87054, Control_c, 0, 64, 79
1, 87069, Control_c, 0, 64, 80
1, 87091, Control_c, 0, 64, 81
1, 87106, Control_c, 0, 64, 81
1, 87121, Control_c, 0, 64, 82
1, 87131, Note_off_c, 0, 47, 45
1, 87150, Control_c, 0, 64, 82
1, 87172, Note_on_c, 0, 56, 35
1, 87196, Note_off_c, 0, 50, 40
1, 87239, Control_c, 0, 64, 80
1, 87254, Control_c, 0, 64, 77
1, 87269, Control_c, 0, 64, 70
1, 87284, Control_c, 0, 64, 63
1, 87289, Note_off_c, 0, 56, 27
1, 87295, Note_on_c, 0, 68, 55
1, 87296, Note_on_c, 0, 48, 43
1, 87298, Control_c, 0, 64, 42
1, 87313, Control_c, 0, 64, 0
1, 87403, Control_c, 0, 64, 29
1, 87417, Control_c, 0, 64, 53
1, 87432, Control_c, 0, 64, 63
1, 87444, Note_on_c, 0, 51, 40
1, 87447, Control_c, 0, 64, 67
1, 87462, Control_c, 0, 64, 69
1, 87477, Control_c, 0, 64, 71
1, 87492, Control_c, 0, 64, 73
1, 87507, Control_c, 0, 64, 75
1, 87522, Control_c, 0, 64, 76
1, 87537, Control_c, 0, 64, 77
1, 87552, Control_c, 0, 64, 78
1, 87566, Control_c, 0, 64, 78
1, 87581, Control_c, 0, 64, 79
1, 87594, Note_on_c, 0, 56, 30
1, 87595, Note_off_c, 0, 48, 28
1, 87596, Control_c, 0, 64, 80
1, 87608, Note_on_c, 0, 72, 61
1, 87611, Control_c, 0, 64, 81
1, 87714, Control_c, 0, 64, 80
1, 87729, Control_c, 0, 64, 77
1, 87744, Control_c, 0, 64, 72
1, 87750, Note_on_c, 0, 44, 40
1, 87758, Control_c, 0, 64, 67
1, 87773, Control_c, 0, 64, 64
1, 87778, Note_on_c, 0, 75, 60
1, 87783, Note_off_c, 0, 51, 26
1, 87787, Note_off_c, 0, 68, 46
1, 87788, Control_c, 0, 64, 61
1, 87791, Note_off_c, 0, 56, 16
1, 87802, Control_c, 0, 64, 58
1, 87817, Control_c, 0, 64, 57
1, 87834, Note_off_c, 0, 72, 59
1, 87840, Control_c, 0, 64, 59
1, 87855, Control_c, 0, 64, 61
1, 87870, Control_c, 0, 64, 64
1, 87885, Control_c, 0, 64, 66
1, 87899, Control_c, 0, 64, 69
1, 87914, Control_c, 0, 64, 72
1, 87929, Control_c, 0, 64, 75
1, 87936, Note_on_c, 0, 48, 47
1, 87944, Control_c, 0, 64, 78
1, 87959, Control_c, 0, 64, 80
1, 87973, Control_c, 0, 64, 81
1, 87988, Control_c, 0, 64, 82
1, 87993, Note_off_c, 0, 44, 30
1, 87999, Note_off_c, 0, 75, 65
1, 88003, Control_c, 0, 64, 83
1, 88017, Control_c, 0, 64, 84
1, 88032, Control_c, 0, 64, 84
1, 88047, Control_c, 0, 64, 85
1, 88062, Note_on_c, 0, 56, 43
1, 88062, Control_c, 0, 64, 85
1, 88063, Note_off_c, 0, 48, 34
1, 88091, Control_c, 0, 64, 86
1, 88106, Control_c, 0, 64, 86
1, 88181, Control_c, 0, 64, 85
1, 88196, Control_c, 0, 64, 83
1, 88201, Note_on_c, 0, 48, 47
1, 88202, Note_on_c, 0, 75, 71
1, 88210, Control_c, 0, 64, 78
1, 88223, Note_off_c, 0, 56, 29
1, 88225, Control_c, 0, 64, 72
1, 88240, Control_c, 0, 64, 68
1, 88255, Control_c, 0, 64, 65
1, 88285, Control_c, 0, 64, 67
1, 88300, Control_c, 0, 64, 70
1, 88315, Control_c, 0, 64, 74
1, 88330, Control_c, 0, 64, 76
1, 88333, Note_on_c, 0, 51, 47
1, 88345, Control_c, 0, 64, 78
1, 88360, Control_c, 0, 64, 79
1, 88375, Control_c, 0, 64, 81
1, 88389, Control_c, 0, 64, 82
1, 88404, Control_c, 0, 64, 83
1, 88409, Note_off_c, 0, 75, 64
1, 88419, Control_c, 0, 64, 84
1, 88434, Control_c, 0, 64, 85
1, 88447, Note_off_c, 0, 48, 43
1, 88449, Control_c, 0, 64, 86
1, 88463, Control_c, 0, 64, 86
1, 88476, Note_on_c, 0, 56, 47
1, 88478, Control_c, 0, 64, 87
1, 88507, Control_c, 0, 64, 87
1, 88522, Control_c, 0, 64, 88
1, 88550, Note_off_c, 0, 51, 26
1, 88604, Control_c, 0, 64, 87
1, 88619, Control_c, 0, 64, 84
1, 88628, Note_off_c, 0, 56, 27
1, 88631, Note_on_c, 0, 47, 51
1, 88633, Note_on_c, 0, 75, 69
1, 88634, Control_c, 0, 64, 78
1, 88648, Control_c, 0, 64, 71
1, 88663, Control_c, 0, 64, 64
1, 88678, Control_c, 0, 64, 54
1, 88693, Control_c, 0, 64, 50
1, 88707, Control_c, 0, 64, 56
1, 88722, Control_c, 0, 64, 62
1, 88737, Control_c, 0, 64, 66
1, 88752, Control_c, 0, 64, 70
1, 88757, Note_on_c, 0, 50, 45
1, 88767, Control_c, 0, 64, 74
1, 88781, Control_c, 0, 64, 77
1, 88796, Control_c, 0, 64, 80
1, 88811, Control_c, 0, 64, 81
1, 88826, Control_c, 0, 64, 83
1, 88831, Note_off_c, 0, 75, 64
1, 88840, Control_c, 0, 64, 84
1, 88856, Control_c, 0, 64, 86
1, 88871, Control_c, 0, 64, 86
1, 88881, Note_off_c, 0, 47, 42
1, 88886, Control_c, 0, 64, 87
1, 88896, Note_on_c, 0, 56, 48
1, 88901, Control_c, 0, 64, 87
1, 88929, Note_off_c, 0, 50, 30
1, 88945, Control_c, 0, 64, 88
1, 88974, Note_off_c, 0, 56, 49
1, 89004, Control_c, 0, 64, 87
1, 89019, Control_c, 0, 64, 84
1, 89033, Control_c, 0, 64, 78
1, 89044, Note_on_c, 0, 75, 67
1, 89048, Note_on_c, 0, 48, 45
1, 89048, Control_c, 0, 64, 70
1, 89064, Control_c, 0, 64, 60
1, 89079, Control_c, 0, 64, 0
1, 89138, Control_c, 0, 64, 43
1, 89153, Control_c, 0, 64, 59
1, 89168, Control_c, 0, 64, 65
1, 89183, Control_c, 0, 64, 70
1, 89185, Note_on_c, 0, 51, 43
1, 89198, Control_c, 0, 64, 74
1, 89212, Control_c, 0, 64, 77
1, 89227, Control_c, 0, 64, 79
1, 89242, Control_c, 0, 64, 81
1, 89251, Note_off_c, 0, 48, 39
1, 89257, Control_c, 0, 64, 83
1, 89272, Control_c, 0, 64, 84
1, 89287, Control_c, 0, 64, 86
1, 89290, Note_off_c, 0, 51, 59
1, 89302, Control_c, 0, 64, 86
1, 89317, Control_c, 0, 64, 87
1, 89326, Note_on_c, 0, 56, 41
1, 89338, Control_c, 0, 64, 87
1, 89353, Control_c, 0, 64, 88
1, 89368, Control_c, 0, 64, 88
1, 89398, Note_off_c, 0, 56, 36
1, 89486, Control_c, 0, 64, 88
1, 89501, Control_c, 0, 64, 84
1, 89516, Control_c, 0, 64, 78
1, 89519, Note_on_c, 0, 49, 44
1, 89525, Note_on_c, 0, 77, 65
1, 89531, Control_c, 0, 64, 69
1, 89546, Control_c, 0, 64, 57
1, 89561, Control_c, 0, 64, 0
1, 89574, Note_off_c, 0, 75, 56
1, 89634, Control_c, 0, 64, 43
1, 89649, Control_c, 0, 64, 63
1, 89656, Note_on_c, 0, 53, 42
1, 89663, Control_c, 0, 64, 68
1, 89678, Control_c, 0, 64, 71
1, 89693, Control_c, 0, 64, 73
1, 89708, Control_c, 0, 64, 76
1, 89719, Note_off_c, 0, 49, 29
1, 89723, Control_c, 0, 64, 79
1, 89737, Control_c, 0, 64, 81
1, 89746, Note_off_c, 0, 53, 64
1, 89752, Control_c, 0, 64, 83
1, 89767, Control_c, 0, 64, 84
1, 89782, Control_c, 0, 64, 85
1, 89786, Note_on_c, 0, 56, 40
1, 89796, Control_c, 0, 64, 85
1, 89811, Control_c, 0, 64, 86
1, 89852, Note_off_c, 0, 56, 36
1, 89857, Control_c, 0, 64, 86
1, 89872, Control_c, 0, 64, 87
1, 89907, Note_on_c, 0, 49, 38
1, 89960, Control_c, 0, 64, 87
1, 90031, Note_off_c, 0, 49, 51
1, 90051, Note_on_c, 0, 55, 43
1, 90196, Note_on_c, 0, 58, 42
1, 90198, Note_off_c, 0, 55, 35
1, 90294, Control_c, 0, 64, 86
1, 90309, Control_c, 0, 64, 82
1, 90311, Note_off_c, 0, 58, 36
1, 90318, Note_on_c, 0, 75, 59
1, 90324, Control_c, 0, 64, 74
1, 90331, Note_on_c, 0, 48, 43
1, 90339, Control_c, 0, 64, 66
1, 90353, Control_c, 0, 64, 57
1, 90368, Control_c, 0, 64, 42
1, 90383, Control_c, 0, 64, 40
1, 90396, Note_off_c, 0, 77, 51
1, 90398, Control_c, 0, 64, 47
1, 90412, Control_c, 0, 64, 56
1, 90427, Control_c, 0, 64, 63
1, 90442, Control_c, 0, 64, 67
1, 90457, Control_c, 0, 64, 69
1, 90464, Note_on_c, 0, 56, 47
1, 90472, Control_c, 0, 64, 72
1, 90486, Control_c, 0, 64, 74
1, 90501, Control_c, 0, 64, 77
1, 90506, Note_off_c, 0, 48, 45
1, 90516, Control_c, 0, 64, 80
1, 90531, Control_c, 0, 64, 82
1, 90546, Control_c, 0, 64, 83
1, 90560, Note_off_c, 0, 56, 53
1, 90560, Control_c, 0, 64, 84
1, 90575, Control_c, 0, 64, 85
1, 90578, Note_on_c, 0, 60, 45
1, 90590, Control_c, 0, 64, 85
1, 90604, Control_c, 0, 64, 86
1, 90634, Control_c, 0, 64, 87
1, 90650, Control_c, 0, 64, 87
1, 90654, Note_off_c, 0, 60, 44
1, 90695, Control_c, 0, 64, 88
1, 90700, Note_on_c, 0, 48, 46
1, 90783, Control_c, 0, 64, 88
1, 90830, Note_off_c, 0, 48, 60
1, 90858, Note_on_c, 0, 51, 48
1, 90953, Note_off_c, 0, 51, 56
1, 90977, Note_on_c, 0, 56, 43
1, 91080, Note_off_c, 0, 56, 48
1, 91087, Control_c, 0, 64, 86
1, 91093, Note_on_c, 0, 46, 49
1, 91102, Control_c, 0, 64, 81
1, 91109, Note_on_c, 0, 73, 59
1, 91117, Control_c, 0, 64, 74
1, 91132, Control_c, 0, 64, 66
1, 91147, Control_c, 0, 64, 49
1, 91151, Note_off_c, 0, 75, 57
1, 91162, Control_c, 0, 64, 0
1, 91191, Control_c, 0, 64, 34
1, 91206, Control_c, 0, 64, 54
1, 91221, Control_c, 0, 64, 64
1, 91235, Control_c, 0, 64, 68
1, 91250, Control_c, 0, 64, 72
1, 91254, Note_on_c, 0, 51, 42
1, 91265, Control_c, 0, 64, 74
1, 91280, Control_c, 0, 64, 77
1, 91290, Note_off_c, 0, 46, 39
1, 91295, Control_c, 0, 64, 78
1, 91309, Control_c, 0, 64, 80
1, 91324, Control_c, 0, 64, 83
1, 91339, Control_c, 0, 64, 84
1, 91354, Control_c, 0, 64, 85
1, 91369, Control_c, 0, 64, 86
1, 91383, Control_c, 0, 64, 86
1, 91387, Note_on_c, 0, 56, 37
1, 91398, Control_c, 0, 64, 87
1, 91413, Control_c, 0, 64, 87
1, 91436, Note_off_c, 0, 51, 31
1, 91466, Note_off_c, 0, 56, 36
1, 91473, Control_c, 0, 64, 85
1, 91488, Control_c, 0, 64, 81
1, 91503, Control_c, 0, 64, 76
1, 91509, Note_on_c, 0, 46, 46
1, 91518, Control_c, 0, 64, 71
1, 91532, Control_c, 0, 64, 66
1, 91547, Control_c, 0, 64, 64
1, 91562, Control_c, 0, 64, 65
1, 91585, Control_c, 0, 64, 66
1, 91600, Control_c, 0, 64, 68
1, 91614, Control_c, 0, 64, 70
1, 91629, Control_c, 0, 64, 72
1, 91644, Control_c, 0, 64, 75
1, 91645, Note_on_c, 0, 51, 39
1, 91658, Control_c, 0, 64, 77
1, 91673, Control_c, 0, 64, 78
1, 91688, Control_c, 0, 64, 79
1, 91703, Control_c, 0, 64, 81
1, 91704, Note_off_c, 0, 46, 41
1, 91718, Control_c, 0, 64, 81
1, 91732, Control_c, 0, 64, 82
1, 91747, Control_c, 0, 64, 83
1, 91762, Control_c, 0, 64, 84
1, 91770, Note_on_c, 0, 55, 38
1, 91777, Control_c, 0, 64, 84
1, 91792, Control_c, 0, 64, 85
1, 91836, Note_off_c, 0, 51, 36
1, 91850, Control_c, 0, 64, 84
1, 91863, Note_off_c, 0, 55, 50
1, 91865, Control_c, 0, 64, 82
1, 91880, Control_c, 0, 64, 77
1, 91895, Control_c, 0, 64, 70
1, 91906, Note_on_c, 0, 44, 40
1, 91910, Note_on_c, 0, 72, 48
1, 91910, Control_c, 0, 64, 64
1, 91925, Control_c, 0, 64, 55
1, 91940, Control_c, 0, 64, 49
1, 91955, Control_c, 0, 64, 50
1, 91970, Control_c, 0, 64, 55
1, 91984, Control_c, 0, 64, 60
1, 91991, Note_off_c, 0, 73, 47
1, 91999, Control_c, 0, 64, 63
1, 92014, Control_c, 0, 64, 66
1, 92029, Control_c, 0, 64, 69
1, 92037, Note_on_c, 0, 51, 32
1, 92044, Control_c, 0, 64, 72
1, 92058, Control_c, 0, 64, 75
1, 92073, Control_c, 0, 64, 77
1, 92074, Note_off_c, 0, 44, 40
1, 92088, Control_c, 0, 64, 79
1, 92103, Control_c, 0, 64, 80
1, 92118, Control_c, 0, 64, 81
1, 92132, Control_c, 0, 64, 82
1, 92143, Note_on_c, 0, 58, 43
1, 92147, Control_c, 0, 64, 83
1, 92162, Control_c, 0, 64, 83
1, 92176, Control_c, 0, 64, 84
1, 92221, Control_c, 0, 64, 84
1, 92228, Note_off_c, 0, 51, 34
1, 92252, Control_c, 0, 64, 85
1, 92256, Note_off_c, 0, 58, 28
1, 92274, Note_on_c, 0, 44, 42
1, 92296, Control_c, 0, 64, 85
1, 92421, Note_off_c, 0, 44, 32
1, 92426, Note_on_c, 0, 51, 33
1, 92514, Note_off_c, 0, 51, 53
1, 92628, Poly_aftertouch_c, 0, 56, 127
1, 92778, Control_c, 0, 64, 84
1, 92791, Poly_aftertouch_c, 0, 56, 0
1, 92793, Control_c, 0, 64, 82
1, 92804, Note_on_c, 0, 70, 57
1, 92807, Control_c, 0, 64, 75
1, 92816, Note_on_c, 0, 49, 37
1, 92822, Control_c, 0, 64, 69
1, 92837, Control_c, 0, 64, 64
1, 92841, Note_off_c, 0, 72, 40
1, 92852, Control_c, 0, 64, 56
1, 92867, Control_c, 0, 64, 41
1, 92882, Control_c, 0, 64, 23
1, 92897, Control_c, 0, 64, 27
1, 92911, Control_c, 0, 64, 43
1, 92926, Control_c, 0, 64, 57
1, 92941, Control_c, 0, 64, 64
1, 92956, Control_c, 0, 64, 67
1, 92958, Note_on_c, 0, 56, 32
1, 92971, Control_c, 0, 64, 70
1, 92986, Control_c, 0, 64, 73
1, 93000, Control_c, 0, 64, 77
1, 93015, Control_c, 0, 64, 79
1, 93030, Control_c, 0, 64, 80
1, 93046, Control_c, 0, 64, 81
1, 93061, Control_c, 0, 64, 82
1, 93078, Note_off_c, 0, 49, 40
1, 93083, Control_c, 0, 64, 83
1, 93098, Control_c, 0, 64, 84
1, 93112, Control_c, 0, 64, 84
1, 93123, Note_on_c, 0, 58, 30
1, 93157, Control_c, 0, 64, 85
1, 93172, Control_c, 0, 64, 85
1, 93180, Note_off_c, 0, 58, 41
1, 93199, Note_off_c, 0, 56, 26
1, 93201, Control_c, 0, 64, 86
1, 93228, Note_on_c, 0, 73, 55
1, 93230, Control_c, 0, 64, 86
1, 93261, Note_on_c, 0, 53, 34
1, 93290, Control_c, 0, 64, 87
1, 93379, Control_c, 0, 64, 87
1, 93382, Note_on_c, 0, 56, 31
1, 93432, Note_off_c, 0, 53, 28
1, 93498, Control_c, 0, 64, 88
1, 93509, Note_on_c, 0, 61, 32
1, 93612, Note_off_c, 0, 61, 30
1, 93616, Control_c, 0, 64, 87
1, 93618, Note_off_c, 0, 56, 38
1, 93630, Control_c, 0, 64, 84
1, 93640, Note_on_c, 0, 72, 57
1, 93645, Note_on_c, 0, 51, 45
1, 93645, Control_c, 0, 64, 79
1, 93660, Note_off_c, 0, 73, 58
1, 93660, Control_c, 0, 64, 70
1, 93675, Control_c, 0, 64, 59
1, 93690, Control_c, 0, 64, 33
1, 93704, Control_c, 0, 64, 26
1, 93715, Note_off_c, 0, 70, 59
1, 93719, Control_c, 0, 64, 34
1, 93734, Control_c, 0, 64, 45
1, 93749, Control_c, 0, 64, 56
1, 93764, Control_c, 0, 64, 64
1, 93777, Note_on_c, 0, 56, 23
1, 93779, Control_c, 0, 64, 67
1, 93794, Control_c, 0, 64, 70
1, 93809, Control_c, 0, 64, 73
1, 93830, Control_c, 0, 64, 76
1, 93845, Control_c, 0, 64, 78
1, 93846, Note_off_c, 0, 51, 36
1, 93861, Control_c, 0, 64, 80
1, 93876, Control_c, 0, 64, 82
1, 93891, Control_c, 0, 64, 83
1, 93906, Control_c, 0, 64, 83
1, 93921, Control_c, 0, 64, 84
1, 93924, Note_on_c, 0, 60, 32
1, 93930, Note_off_c, 0, 56, 40
1, 93935, Control_c, 0, 64, 85
1, 93950, Control_c, 0, 64, 85
1, 93976, Note_off_c, 0, 60, 41
1, 94024, Control_c, 0, 64, 84
1, 94031, Note_on_c, 0, 51, 43
1, 94032, Note_on_c, 0, 70, 53
1, 94039, Control_c, 0, 64, 80
1, 94053, Control_c, 0, 64, 73
1, 94068, Control_c, 0, 64, 65
1, 94083, Control_c, 0, 64, 56
1, 94084, Note_off_c, 0, 72, 56
1, 94098, Control_c, 0, 64, 49
1, 94113, Control_c, 0, 64, 52
1, 94127, Control_c, 0, 64, 58
1, 94142, Control_c, 0, 64, 63
1, 94157, Control_c, 0, 64, 67
1, 94170, Note_off_c, 0, 51, 50
1, 94172, Control_c, 0, 64, 71
1, 94187, Control_c, 0, 64, 74
1, 94189, Note_on_c, 0, 55, 33
1, 94201, Control_c, 0, 64, 76
1, 94216, Control_c, 0, 64, 77
1, 94231, Control_c, 0, 64, 79
1, 94245, Control_c, 0, 64, 80
1, 94258, Note_off_c, 0, 55, 60
1, 94260, Control_c, 0, 64, 81
1, 94275, Control_c, 0, 64, 82
1, 94290, Control_c, 0, 64, 83
1, 94302, Note_on_c, 0, 58, 44
1, 94305, Control_c, 0, 64, 83
1, 94319, Control_c, 0, 64, 84
1, 94340, Note_off_c, 0, 58, 47
1, 94349, Control_c, 0, 64, 85
1, 94408, Control_c, 0, 64, 84
1, 94423, Control_c, 0, 64, 81
1, 94438, Control_c, 0, 64, 74
1, 94446, Note_on_c, 0, 68, 54
1, 94452, Note_on_c, 0, 44, 42
1, 94453, Control_c, 0, 64, 67
1, 94468, Control_c, 0, 64, 58
1, 94482, Control_c, 0, 64, 39
1, 94497, Control_c, 0, 64, 34
1, 94512, Control_c, 0, 64, 42
1, 94527, Control_c, 0, 64, 53
1, 94542, Control_c, 0, 64, 58
1, 94556, Note_off_c, 0, 70, 36
1, 94557, Control_c, 0, 64, 62
1, 94578, Control_c, 0, 64, 63
1, 94593, Control_c, 0, 64, 65
1, 94608, Control_c, 0, 64, 68
1, 94612, Note_on_c, 0, 48, 43
1, 94623, Control_c, 0, 64, 71
1, 94638, Control_c, 0, 64, 75
1, 94654, Control_c, 0, 64, 77
1, 94669, Control_c, 0, 64, 79
1, 94676, Note_off_c, 0, 44, 39
1, 94677, Note_off_c, 0, 48, 62
1, 94683, Control_c, 0, 64, 80
1, 94698, Control_c, 0, 64, 80
1, 94713, Control_c, 0, 64, 81
1, 94728, Control_c, 0, 64, 81
1, 94742, Note_on_c, 0, 56, 27
1, 94743, Control_c, 0, 64, 82
1, 94772, Control_c, 0, 64, 83
1, 94800, Note_off_c, 0, 56, 40
1, 94846, Control_c, 0, 64, 82
1, 94861, Control_c, 0, 64, 80
1, 94865, Note_on_c, 0, 48, 44
1, 94876, Control_c, 0, 64, 75
1, 94891, Control_c, 0, 64, 68
1, 94906, Control_c, 0, 64, 62
1, 94921, Control_c, 0, 64, 58
1, 94936, Control_c, 0, 64, 60
1, 94950, Control_c, 0, 64, 63
1, 94965, Control_c, 0, 64, 66
1, 94980, Control_c, 0, 64, 69
1, 94994, Control_c, 0, 64, 72
1, 95002, Note_on_c, 0, 51, 40
1, 95009, Control_c, 0, 64, 75
1, 95024, Control_c, 0, 64, 77
1, 95039, Control_c, 0, 64, 78
1, 95054, Control_c, 0, 64, 79
1, 95059, Note_off_c, 0, 48, 25
1, 95068, Control_c, 0, 64, 80
1, 95083, Control_c, 0, 64, 81
1, 95098, Control_c, 0, 64, 81
1, 95113, Control_c, 0, 64, 82
1, 95125, Note_on_c, 0, 56, 40
1, 95125, Note_off_c, 0, 51, 0
1, 95143, Control_c, 0, 64, 83
1, 95201, Control_c, 0, 64, 82
1, 95213, Poly_aftertouch_c, 0, 51, 0
1, 95216, Control_c, 0, 64, 78
1, 95231, Control_c, 0, 64, 72
1, 95234, Note_on_c, 0, 47, 50
1, 95234, Note_off_c, 0, 56, 28
1, 95237, Note_off_c, 0, 68, 53
1, 95246, Control_c, 0, 64, 65
1, 95261, Control_c, 0, 64, 57
1, 95275, Control_c, 0, 64, 50
1, 95290, Control_c, 0, 64, 50
1, 95305, Control_c, 0, 64, 53
1, 95328, Control_c, 0, 64, 58
1, 95343, Control_c, 0, 64, 62
1, 95357, Control_c, 0, 64, 65
1, 95372, Control_c, 0, 64, 68
1, 95387, Control_c, 0, 64, 71
1, 95391, Note_on_c, 0, 50, 45
1, 95401, Control_c, 0, 64, 75
1, 95416, Control_c, 0, 64, 78
1, 95431, Control_c, 0, 64, 79
1, 95446, Control_c, 0, 64, 80
1, 95462, Control_c, 0, 64, 81
1, 95477, Control_c, 0, 64, 82
1, 95481, Note_off_c, 0, 47, 47
1, 95492, Control_c, 0, 64, 84
1, 95506, Control_c, 0, 64, 85
1, 95515, Note_on_c, 0, 56, 41
1, 95521, Control_c, 0, 64, 85
1, 95578, Note_off_c, 0, 50, 41
1, 95596, Control_c, 0, 64, 83
1, 95611, Control_c, 0, 64, 79
1, 95625, Control_c, 0, 64, 73
1, 95633, Note_off_c, 0, 56, 26
1, 95640, Control_c, 0, 64, 66
1, 95651, Note_on_c, 0, 68, 62
1, 95655, Control_c, 0, 64, 59
1, 95658, Note_on_c, 0, 48, 41
1, 95670, Control_c, 0, 64, 53
1, 95685, Control_c, 0, 64, 50
1, 95714, Control_c, 0, 64, 51
1, 95729, Control_c, 0, 64, 51
1, 95744, Control_c, 0, 64, 53
1, 95759, Control_c, 0, 64, 57
1, 95773, Control_c, 0, 64, 63
1, 95788, Control_c, 0, 64, 66
1, 95803, Control_c, 0, 64, 69
1, 95809, Note_on_c, 0, 51, 47
1, 95818, Control_c, 0, 64, 72
1, 95833, Control_c, 0, 64, 74
1, 95848, Control_c, 0, 64, 76
1, 95863, Control_c, 0, 64, 78
1, 95877, Control_c, 0, 64, 81
1, 95892, Control_c, 0, 64, 82
1, 95907, Control_c, 0, 64, 83
1, 95910, Note_off_c, 0, 48, 29
1, 95928, Note_on_c, 0, 56, 47
1, 95937, Control_c, 0, 64, 84
1, 95952, Control_c, 0, 64, 84
1, 95966, Control_c, 0, 64, 85
1, 95973, Note_off_c, 0, 56, 43
1, 95975, Note_on_c, 0, 72, 60
1, 95996, Control_c, 0, 64, 86
1, 96077, Control_c, 0, 64, 85
1, 96092, Control_c, 0, 64, 84
1, 96101, Note_on_c, 0, 44, 46
1, 96107, Control_c, 0, 64, 82
1, 96122, Control_c, 0, 64, 77
1, 96132, Note_on_c, 0, 75, 67
1, 96137, Control_c, 0, 64, 72
1, 96151, Control_c, 0, 64, 67
1, 96156, Note_off_c, 0, 51, 24
1, 96166, Control_c, 0, 64, 64
1, 96181, Note_off_c, 0, 68, 53
1, 96196, Control_c, 0, 64, 65
1, 96197, Note_off_c, 0, 72, 55
1, 96211, Control_c, 0, 64, 66
1, 96225, Control_c, 0, 64, 67
1, 96240, Control_c, 0, 64, 70
1, 96256, Control_c, 0, 64, 74
1, 96267, Note_on_c, 0, 48, 53
1, 96271, Control_c, 0, 64, 77
1, 96286, Control_c, 0, 64, 80
1, 96301, Control_c, 0, 64, 82
1, 96316, Control_c, 0, 64, 84
1, 96321, Note_off_c, 0, 44, 32
1, 96330, Control_c, 0, 64, 86
1, 96345, Control_c, 0, 64, 88
1, 96360, Control_c, 0, 64, 89
1, 96366, Note_off_c, 0, 75, 65
1, 96375, Control_c, 0, 64, 90
1, 96390, Control_c, 0, 64, 91
1, 96396, Note_on_c, 0, 56, 46
1, 96404, Control_c, 0, 64, 92
1, 96412, Note_off_c, 0, 48, 36
1, 96419, Control_c, 0, 64, 93
1, 96434, Control_c, 0, 64, 94
1, 96522, Control_c, 0, 64, 93
1, 96527, Note_on_c, 0, 75, 74
1, 96527, Note_on_c, 0, 48, 48
1, 96535, Note_on_c, 0, 63, 61
1, 96537, Control_c, 0, 64, 87
1, 96552, Control_c, 0, 64, 79
1, 96564, Note_off_c, 0, 56, 32
1, 96567, Control_c, 0, 64, 71
1, 96582, Control_c, 0, 64, 64
1, 96596, Control_c, 0, 64, 60
1, 96626, Control_c, 0, 64, 62
1, 96641, Control_c, 0, 64, 64
1, 96650, Note_on_c, 0, 51, 45
1, 96655, Control_c, 0, 64, 67
1, 96670, Control_c, 0, 64, 70
1, 96685, Control_c, 0, 64, 75
1, 96700, Control_c, 0, 64, 79
1, 96715, Control_c, 0, 64, 82
1, 96730, Control_c, 0, 64, 85
1, 96745, Control_c, 0, 64, 86
1, 96760, Control_c, 0, 64, 87
1, 96774, Control_c, 0, 64, 89
1, 96788, Note_on_c, 0, 56, 42
1, 96789, Control_c, 0, 64, 90
1, 96790, Note_off_c, 0, 48, 31
1, 96804, Control_c, 0, 64, 91
1, 96826, Control_c, 0, 64, 92
1, 96831, Note_off_c, 0, 63, 54
1, 96831, Note_off_c, 0, 75, 57
1, 96841, Control_c, 0, 64, 93
1, 96855, Control_c, 0, 64, 93
1, 96924, Note_off_c, 0, 51, 29
1, 96929, Note_on_c, 0, 47, 55
1, 96930, Control_c, 0, 64, 91
1, 96937, Note_on_c, 0, 75, 80
1, 96945, Control_c, 0, 64, 86
1, 96949, Note_on_c, 0, 63, 61
1, 96960, Control_c, 0, 64, 78
1, 96974, Control_c, 0, 64, 69
1, 96987, Note_off_c, 0, 56, 21
1, 96989, Control_c, 0, 64, 57
1, 97004, Control_c, 0, 64, 11
1, 97019, Control_c, 0, 64, 0
1, 97034, Control_c, 0, 64, 37
1, 97049, Control_c, 0, 64, 58
1, 97064, Control_c, 0, 64, 65
1, 97070, Note_on_c, 0, 50, 49
1, 97079, Control_c, 0, 64, 70
1, 97094, Control_c, 0, 64, 74
1, 97109, Control_c, 0, 64, 77
1, 97123, Control_c, 0, 64, 81
1, 97138, Control_c, 0, 64, 84
1, 97153, Control_c, 0, 64, 87
1, 97168, Control_c, 0, 64, 90
1, 97180, Note_off_c, 0, 47, 37
1, 97183, Control_c, 0, 64, 92
1, 97197, Control_c, 0, 64, 93
1, 97201, Note_on_c, 0, 56, 44
1, 97212, Control_c, 0, 64, 94
1, 97216, Note_off_c, 0, 75, 60
1, 97227, Control_c, 0, 64, 95
1, 97230, Note_off_c, 0, 63, 54
1, 97231, Note_off_c, 0, 50, 56
1, 97242, Control_c, 0, 64, 95
1, 97257, Control_c, 0, 64, 96
1, 97316, Control_c, 0, 64, 94
1, 97325, Note_on_c, 0, 48, 52
1, 97327, Note_on_c, 0, 75, 79
1, 97331, Control_c, 0, 64, 88
1, 97336, Note_on_c, 0, 63, 70
1, 97344, Note_off_c, 0, 56, 30
1, 97345, Control_c, 0, 64, 78
1, 97360, Control_c, 0, 64, 68
1, 97375, Control_c, 0, 64, 52
1, 97390, Control_c, 0, 64, 0
1, 97434, Control_c, 0, 64, 37
1, 97449, Control_c, 0, 64, 61
1, 97463, Control_c, 0, 64, 67
1, 97472, Note_on_c, 0, 51, 51
1, 97478, Control_c, 0, 64, 71
1, 97493, Control_c, 0, 64, 74
1, 97508, Control_c, 0, 64, 77
1, 97523, Control_c, 0, 64, 79
1, 97538, Control_c, 0, 64, 81
1, 97540, Note_off_c, 0, 48, 35
1, 97541, Note_off_c, 0, 63, 61
1, 97553, Control_c, 0, 64, 83
1, 97575, Control_c, 0, 64, 85
1, 97590, Control_c, 0, 64, 85
1, 97604, Note_off_c, 0, 51, 59
1, 97604, Control_c, 0, 64, 86
1, 97619, Control_c, 0, 64, 86
1, 97630, Note_on_c, 0, 56, 45
1, 97634, Control_c, 0, 64, 87
1, 97649, Control_c, 0, 64, 87
1, 97664, Control_c, 0, 64, 88
1, 97678, Control_c, 0, 64, 88
1, 97782, Control_c, 0, 64, 88
1, 97797, Control_c, 0, 64, 85
1, 97803, Note_on_c, 0, 49, 50
1, 97812, Control_c, 0, 64, 79
1, 97827, Note_on_c, 0, 76, 71
1, 97827, Control_c, 0, 64, 71
1, 97839, Note_off_c, 0, 56, 30
1, 97842, Control_c, 0, 64, 62
1, 97846, Note_on_c, 0, 64, 51
1, 97857, Control_c, 0, 64, 42
1, 97872, Control_c, 0, 64, 26
1, 97875, Note_off_c, 0, 75, 59
1, 97887, Control_c, 0, 64, 0
1, 97976, Note_on_c, 0, 52, 36
1, 98034, Control_c, 0, 64, 43
1, 98045, Note_off_c, 0, 49, 55
1, 98049, Control_c, 0, 64, 65
1, 98064, Control_c, 0, 64, 71
1, 98079, Control_c, 0, 64, 76
1, 98091, Note_on_c, 0, 56, 39
1, 98093, Control_c, 0, 64, 79
1, 98108, Control_c, 0, 64, 81
1, 98123, Control_c, 0, 64, 83
1, 98138, Note_off_c, 0, 52, 34
1, 98138, Control_c, 0, 64, 85
1, 98153, Control_c, 0, 64, 87
1, 98167, Control_c, 0, 64, 88
1, 98182, Control_c, 0, 64, 89
1, 98194, Note_off_c, 0, 56, 30
1, 98197, Control_c, 0, 64, 90
1, 98206, Note_on_c, 0, 49, 44
1, 98223, Note_off_c, 0, 64, 58
1, 98226, Control_c, 0, 64, 90
1, 98347, Note_on_c, 0, 52, 32
1, 98352, Note_off_c, 0, 49, 33
1, 98433, Note_off_c, 0, 52, 52
1, 98458, Note_on_c, 0, 58, 40
1, 98486, Control_c, 0, 64, 91
1, 98541, Note_off_c, 0, 58, 34
1, 98575, Control_c, 0, 64, 90
1, 98590, Note_on_c, 0, 75, 60
1, 98590, Control_c, 0, 64, 89
1, 98605, Control_c, 0, 64, 84
1, 98607, Note_on_c, 0, 63, 47
1, 98616, Note_on_c, 0, 47, 42
1, 98617, Note_off_c, 0, 76, 61
1, 98620, Control_c, 0, 64, 76
1, 98635, Control_c, 0, 64, 66
1, 98650, Control_c, 0, 64, 50
1, 98665, Control_c, 0, 64, 0
1, 98739, Control_c, 0, 64, 35
1, 98754, Control_c, 0, 64, 64
1, 98769, Control_c, 0, 64, 70
1, 98773, Note_on_c, 0, 54, 40
1, 98784, Control_c, 0, 64, 75
1, 98799, Control_c, 0, 64, 80
1, 98814, Control_c, 0, 64, 83
1, 98829, Control_c, 0, 64, 84
1, 98839, Note_off_c, 0, 47, 43
1, 98843, Control_c, 0, 64, 86
1, 98858, Control_c, 0, 64, 87
1, 98873, Control_c, 0, 64, 88
1, 98888, Control_c, 0, 64, 89
1, 98889, Note_on_c, 0, 59, 31
1, 98903, Control_c, 0, 64, 89
1, 98909, Note_off_c, 0, 54, 31
1, 98917, Control_c, 0, 64, 90
1, 98932, Control_c, 0, 64, 90
1, 98954, Note_off_c, 0, 59, 39
1, 98977, Control_c, 0, 64, 91
1, 98980, Note_on_c, 0, 47, 42
1, 99078, Note_off_c, 0, 63, 49
1, 99130, Note_on_c, 0, 54, 44
1, 99140, Note_off_c, 0, 47, 37
1, 99162, Control_c, 0, 64, 91
1, 99197, Note_off_c, 0, 54, 55
1, 99259, Note_on_c, 0, 59, 23
1, 99316, Note_off_c, 0, 59, 40
1, 99353, Control_c, 0, 64, 88
1, 99368, Control_c, 0, 64, 82
1, 99383, Control_c, 0, 64, 73
1, 99388, Note_on_c, 0, 52, 49
1, 99398, Note_on_c, 0, 73, 57
1, 99398, Control_c, 0, 64, 64
1, 99413, Control_c, 0, 64, 45
1, 99428, Control_c, 0, 64, 16
1, 99443, Control_c, 0, 64, 0
1, 99472, Control_c, 0, 64, 41
1, 99487, Control_c, 0, 64, 60
1, 99502, Control_c, 0, 64, 67
1, 99517, Note_on_c, 0, 56, 44
1, 99517, Control_c, 0, 64, 72
1, 99532, Control_c, 0, 64, 76
1, 99547, Control_c, 0, 64, 80
1, 99562, Control_c, 0, 64, 82
1, 99577, Control_c, 0, 64, 84
1, 99591, Control_c, 0, 64, 86
1, 99606, Control_c, 0, 64, 88
1, 99621, Control_c, 0, 64, 88
1, 99631, Note_off_c, 0, 52, 25
1, 99636, Control_c, 0, 64, 89
1, 99655, Note_on_c, 0, 61, 38
1, 99665, Control_c, 0, 64, 90
1, 99675, Note_off_c, 0, 56, 29
1, 99680, Control_c, 0, 64, 90
1, 99695, Control_c, 0, 64, 91
1, 99702, Note_off_c, 0, 61, 45
1, 99717, Note_off_c, 0, 75, 32
1, 99739, Control_c, 0, 64, 91
1, 99776, Note_on_c, 0, 52, 43
1, 99892, Note_off_c, 0, 52, 54
1, 99913, Note_on_c, 0, 54, 40
1, 99984, Control_c, 0, 64, 92
1, 100025, Note_on_c, 0, 58, 47
1, 100090, Note_off_c, 0, 54, 28
1, 100131, Control_c, 0, 64, 91
1, 100134, Note_off_c, 0, 58, 48
1, 100146, Control_c, 0, 64, 88
1, 100161, Control_c, 0, 64, 82
1, 100162, Note_on_c, 0, 51, 45
1, 100176, Control_c, 0, 64, 73
1, 100185, Note_on_c, 0, 71, 43
1, 100190, Control_c, 0, 64, 65
1, 100205, Control_c, 0, 64, 51
1, 100220, Control_c, 0, 64, 0
1, 100247, Note_off_c, 0, 73, 37
1, 100288, Note_on_c, 0, 54, 37
1, 100295, Control_c, 0, 64, 48
1, 100310, Control_c, 0, 64, 61
1, 100325, Control_c, 0, 64, 65
1, 100340, Control_c, 0, 64, 68
1, 100355, Control_c, 0, 64, 71
1, 100369, Control_c, 0, 64, 75
1, 100374, Note_off_c, 0, 51, 35
1, 100384, Control_c, 0, 64, 77
1, 100399, Control_c, 0, 64, 79
1, 100413, Control_c, 0, 64, 80
1, 100420, Note_on_c, 0, 59, 32
1, 100443, Control_c, 0, 64, 80
1, 100450, Note_off_c, 0, 54, 41
1, 100471, Note_off_c, 0, 59, 41
1, 100487, Control_c, 0, 64, 80
1, 100502, Control_c, 0, 64, 78
1, 100517, Control_c, 0, 64, 74
1, 100532, Control_c, 0, 64, 67
1, 100540, Note_on_c, 0, 51, 36
1, 100547, Control_c, 0, 64, 60
1, 100569, Control_c, 0, 64, 50
1, 100584, Control_c, 0, 64, 49
1, 100599, Control_c, 0, 64, 48
1, 100613, Control_c, 0, 64, 49
1, 100628, Control_c, 0, 64, 52
1, 100643, Control_c, 0, 64, 57
1, 100658, Control_c, 0, 64, 63
1, 100673, Control_c, 0, 64, 65
1, 100687, Control_c, 0, 64, 68
1, 100692, Note_on_c, 0, 55, 36
1, 100702, Control_c, 0, 64, 71
1, 100717, Control_c, 0, 64, 74
1, 100732, Control_c, 0, 64, 76
1, 100738, Note_on_c, 0, 70, 50
1, 100747, Control_c, 0, 64, 77
1, 100761, Control_c, 0, 64, 78
1, 100776, Control_c, 0, 64, 79
1, 100789, Note_off_c, 0, 71, 56
1, 100791, Control_c, 0, 64, 80
1, 100800, Note_off_c, 0, 51, 43
1, 100806, Control_c, 0, 64, 80
1, 100844, Note_on_c, 0, 61, 41
1, 100850, Control_c, 0, 64, 81
1, 100894, Control_c, 0, 64, 81
1, 100911, Note_off_c, 0, 61, 46
1, 100942, Note_off_c, 0, 55, 37
1, 101013, Control_c, 0, 64, 80
1, 101028, Control_c, 0, 64, 77
1, 101043, Control_c, 0, 64, 71
1, 101058, Control_c, 0, 64, 64
1, 101066, Note_on_c, 0, 68, 40
1, 101070, Note_on_c, 0, 52, 33
1, 101073, Control_c, 0, 64, 45
1, 101088, Control_c, 0, 64, 0
1, 101094, Note_off_c, 0, 70, 51
1, 101178, Control_c, 0, 64, 57
1, 101192, Control_c, 0, 64, 65
1, 101207, Control_c, 0, 64, 69
1, 101222, Control_c, 0, 64, 72
1, 101233, Note_on_c, 0, 56, 33
1, 101236, Control_c, 0, 64, 74
1, 101251, Control_c, 0, 64, 77
1, 101266, Control_c, 0, 64, 79
1, 101281, Control_c, 0, 64, 80
1, 101296, Control_c, 0, 64, 81
1, 101297, Note_off_c, 0, 68, 64
1, 101301, Note_off_c, 0, 56, 54
1, 101318, Control_c, 0, 64, 82
1, 101321, Note_off_c, 0, 52, 43
1, 101333, Control_c, 0, 64, 83
1, 101377, Control_c, 0, 64, 83
1, 101379, Note_on_c, 0, 59, 23
1, 101444, Note_off_c, 0, 59, 37
1, 101498, Note_on_c, 0, 68, 51
1, 101499, Note_on_c, 0, 56, 27
1, 101619, Note_on_c, 0, 76, 58
1, 101622, Note_off_c, 0, 56, 34
1, 101640, Note_on_c, 0, 59, 20
1, 101713, Note_off_c, 0, 68, 51
1, 101762, Control_c, 0, 64, 84
1, 101768, Note_on_c, 0, 64, 35
1, 101812, Note_off_c, 0, 59, 35
1, 101881, Control_c, 0, 64, 83
1, 101896, Control_c, 0, 64, 81
1, 101897, Note_on_c, 0, 75, 60
1, 101901, Note_off_c, 0, 64, 40
1, 101911, Control_c, 0, 64, 76
1, 101913, Note_on_c, 0, 54, 40
1, 101926, Control_c, 0, 64, 69
1, 101941, Control_c, 0, 64, 62
1, 101943, Note_off_c, 0, 76, 59
1, 101956, Control_c, 0, 64, 56
1, 101970, Control_c, 0, 64, 55
1, 101985, Control_c, 0, 64, 57
1, 102000, Control_c, 0, 64, 59
1, 102015, Control_c, 0, 64, 62
1, 102026, Note_on_c, 0, 59, 31
1, 102030, Control_c, 0, 64, 65
1, 102045, Control_c, 0, 64, 69
1, 102063, Note_off_c, 0, 54, 39
1, 102066, Control_c, 0, 64, 72
1, 102081, Control_c, 0, 64, 75
1, 102096, Control_c, 0, 64, 77
1, 102111, Control_c, 0, 64, 78
1, 102126, Control_c, 0, 64, 79
1, 102140, Control_c, 0, 64, 80
1, 102155, Control_c, 0, 64, 82
1, 102162, Note_on_c, 0, 63, 40
1, 102170, Control_c, 0, 64, 82
1, 102185, Note_off_c, 0, 59, 36
1, 102185, Control_c, 0, 64, 83
1, 102237, Note_off_c, 0, 63, 35
1, 102289, Control_c, 0, 64, 82
1, 102295, Note_on_c, 0, 54, 43
1, 102296, Note_on_c, 0, 73, 55
1, 102304, Control_c, 0, 64, 78
1, 102319, Control_c, 0, 64, 72
1, 102334, Control_c, 0, 64, 64
1, 102339, Note_off_c, 0, 75, 58
1, 102349, Control_c, 0, 64, 53
1, 102364, Control_c, 0, 64, 46
1, 102379, Control_c, 0, 64, 48
1, 102393, Control_c, 0, 64, 54
1, 102408, Control_c, 0, 64, 61
1, 102423, Control_c, 0, 64, 65
1, 102438, Control_c, 0, 64, 69
1, 102441, Note_on_c, 0, 58, 40
1, 102453, Control_c, 0, 64, 72
1, 102467, Control_c, 0, 64, 76
1, 102482, Control_c, 0, 64, 78
1, 102497, Control_c, 0, 64, 80
1, 102512, Control_c, 0, 64, 81
1, 102513, Note_off_c, 0, 54, 31
1, 102527, Control_c, 0, 64, 82
1, 102532, Note_off_c, 0, 58, 59
1, 102541, Control_c, 0, 64, 83
1, 102556, Control_c, 0, 64, 84
1, 102571, Control_c, 0, 64, 85
1, 102585, Note_on_c, 0, 61, 21
1, 102585, Control_c, 0, 64, 85
1, 102627, Note_off_c, 0, 61, 49
1, 102676, Control_c, 0, 64, 85
1, 102690, Control_c, 0, 64, 82
1, 102705, Control_c, 0, 64, 77
1, 102711, Note_on_c, 0, 47, 47
1, 102720, Control_c, 0, 64, 70
1, 102730, Note_on_c, 0, 71, 45
1, 102735, Control_c, 0, 64, 63
1, 102750, Control_c, 0, 64, 50
1, 102764, Control_c, 0, 64, 34
1, 102779, Control_c, 0, 64, 18
1, 102794, Control_c, 0, 64, 0
1, 102799, Note_off_c, 0, 73, 53
1, 102861, Control_c, 0, 64, 36
1, 102876, Control_c, 0, 64, 55
1, 102890, Control_c, 0, 64, 63
1, 102895, Note_on_c, 0, 51, 31
1, 102905, Control_c, 0, 64, 67
1, 102920, Control_c, 0, 64, 71
1, 102935, Control_c, 0, 64, 75
1, 102950, Control_c, 0, 64, 78
1, 102964, Control_c, 0, 64, 80
1, 102966, Note_off_c, 0, 51, 56
1, 102979, Control_c, 0, 64, 80
1, 102994, Control_c, 0, 64, 81
1, 102996, Note_off_c, 0, 47, 44
1, 103002, Note_on_c, 0, 59, 37
1, 103009, Control_c, 0, 64, 82
1, 103023, Control_c, 0, 64, 83
1, 103038, Control_c, 0, 64, 83
1, 103053, Control_c, 0, 64, 84
1, 103083, Control_c, 0, 64, 84
1, 103088, Note_off_c, 0, 59, 32
1, 103109, Note_on_c, 0, 51, 37
1, 103202, Control_c, 0, 64, 85
1, 103261, Note_on_c, 0, 54, 42
1, 103305, Control_c, 0, 64, 85
1, 103318, Note_off_c, 0, 51, 36
1, 103364, Control_c, 0, 64, 86
1, 103385, Note_on_c, 0, 59, 28
1, 103394, Control_c, 0, 64, 86
1, 103403, Note_off_c, 0, 54, 32
1, 103423, Control_c, 0, 64, 87
1, 103439, Control_c, 0, 64, 87
1, 103499, Control_c, 0, 64, 87
1, 103507, Note_on_c, 0, 50, 49
1, 103513, Control_c, 0, 64, 85
1, 103528, Control_c, 0, 64, 80
1, 103533, Note_off_c, 0, 59, 35
1, 103543, Control_c, 0, 64, 74
1, 103562, Note_off_c, 0, 71, 59
1, 103565, Control_c, 0, 64, 69
1, 103580, Control_c, 0, 64, 64
1, 103595, Control_c, 0, 64, 61
1, 103610, Control_c, 0, 64, 63
1, 103625, Control_c, 0, 64, 66
1, 103639, Control_c, 0, 64, 70
1, 103649, Note_on_c, 0, 53, 54
1, 103654, Control_c, 0, 64, 73
1, 103669, Control_c, 0, 64, 77
1, 103684, Control_c, 0, 64, 78
1, 103699, Control_c, 0, 64, 80
1, 103713, Control_c, 0, 64, 81
1, 103726, Note_off_c, 0, 50, 58
1, 103728, Control_c, 0, 64, 83
1, 103741, Note_off_c, 0, 53, 63
1, 103743, Control_c, 0, 64, 84
1, 103758, Control_c, 0, 64, 85
1, 103768, Note_on_c, 0, 59, 47
1, 103772, Control_c, 0, 64, 86
1, 103787, Control_c, 0, 64, 87
1, 103802, Control_c, 0, 64, 87
1, 103817, Control_c, 0, 64, 88
1, 103846, Control_c, 0, 64, 88
1, 103876, Control_c, 0, 64, 88
1, 103889, Note_on_c, 0, 51, 57
1, 103891, Control_c, 0, 64, 86
1, 103903, Note_on_c, 0, 71, 69
1, 103906, Control_c, 0, 64, 80
1, 103920, Control_c, 0, 64, 72
1, 103924, Note_off_c, 0, 59, 43
1, 103935, Control_c, 0, 64, 64
1, 103950, Control_c, 0, 64, 40
1, 103965, Control_c, 0, 64, 0
1, 104035, Note_on_c, 0, 54, 54
1, 104054, Control_c, 0, 64, 63
1, 104069, Control_c, 0, 64, 69
1, 104084, Note_off_c, 0, 51, 61
1, 104084, Control_c, 0, 64, 74
1, 104099, Control_c, 0, 64, 78
1, 104113, Control_c, 0, 64, 80
1, 104128, Control_c, 0, 64, 82
1, 104143, Control_c, 0, 64, 84
1, 104149, Note_off_c, 0, 54, 61
1, 104157, Control_c, 0, 64, 86
1, 104169, Note_on_c, 0, 59, 42
1, 104172, Control_c, 0, 64, 88
1, 104187, Control_c, 0, 64, 89
1, 104202, Control_c, 0, 64, 90
1, 104221, Note_on_c, 0, 75, 68
1, 104233, Control_c, 0, 64, 90
1, 104248, Control_c, 0, 64, 91
1, 104290, Note_off_c, 0, 59, 40
1, 104343, Control_c, 0, 64, 90
1, 104358, Control_c, 0, 64, 88
1, 104373, Control_c, 0, 64, 83
1, 104385, Note_on_c, 0, 78, 76
1, 104388, Control_c, 0, 64, 75
1, 104394, Note_on_c, 0, 66, 50
1, 104395, Note_on_c, 0, 47, 53
1, 104403, Control_c, 0, 64, 67
1, 104418, Control_c, 0, 64, 56
1, 104426, Note_off_c, 0, 66, 0
1, 104426, Note_on_c, 0, 66, 19
1, 104432, Note_off_c, 0, 71, 52
1, 104433, Control_c, 0, 64, 35
1, 104433, Note_off_c, 0, 75, 63
1, 104448, Control_c, 0, 64, 20
1, 104462, Control_c, 0, 64, 0
1, 104492, Control_c, 0, 64, 11
1, 104507, Control_c, 0, 64, 48
1, 104522, Control_c, 0, 64, 63
1, 104536, Control_c, 0, 64, 69
1, 104551, Note_on_c, 0, 51, 53
1, 104551, Control_c, 0, 64, 73
1, 104566, Control_c, 0, 64, 78
1, 104579, Control_c, 0, 64, 82
1, 104594, Note_off_c, 0, 47, 59
1, 104594, Control_c, 0, 64, 84
1, 104609, Control_c, 0, 64, 87
1, 104624, Control_c, 0, 64, 89
1, 104639, Control_c, 0, 64, 91
1, 104654, Control_c, 0, 64, 93
1, 104665, Note_on_c, 0, 54, 54
1, 104668, Control_c, 0, 64, 94
1, 104683, Control_c, 0, 64, 95
1, 104698, Control_c, 0, 64, 96
1, 104703, Note_off_c, 0, 66, 32
1, 104713, Control_c, 0, 64, 96
1, 104728, Control_c, 0, 64, 97
1, 104741, Note_off_c, 0, 51, 30
1, 104746, Note_off_c, 0, 78, 24
1, 104758, Control_c, 0, 64, 97
1, 104776, Note_off_c, 0, 54, 36
1, 104802, Control_c, 0, 64, 97
1, 104808, Note_on_c, 0, 78, 83
1, 104811, Note_on_c, 0, 47, 58
1, 104814, Note_on_c, 0, 66, 68
1, 104817, Control_c, 0, 64, 93
1, 104832, Control_c, 0, 64, 86
1, 104847, Control_c, 0, 64, 77
1, 104861, Control_c, 0, 64, 67
1, 104876, Control_c, 0, 64, 56
1, 104891, Control_c, 0, 64, 40
1, 104906, Control_c, 0, 64, 43
1, 104921, Control_c, 0, 64, 53
1, 104927, Note_on_c, 0, 51, 51
1, 104935, Control_c, 0, 64, 63
1, 104950, Control_c, 0, 64, 69
1, 104965, Control_c, 0, 64, 74
1, 104979, Control_c, 0, 64, 78
1, 104980, Note_off_c, 0, 47, 61
1, 104994, Control_c, 0, 64, 82
1, 105009, Control_c, 0, 64, 85
1, 105025, Control_c, 0, 64, 88
1, 105032, Note_on_c, 0, 54, 59
1, 105040, Control_c, 0, 64, 90
1, 105062, Control_c, 0, 64, 93
1, 105077, Control_c, 0, 64, 94
1, 105083, Note_off_c, 0, 51, 55
1, 105091, Note_off_c, 0, 66, 62
1, 105091, Control_c, 0, 64, 95
1, 105106, Control_c, 0, 64, 96
1, 105121, Control_c, 0, 64, 97
1, 105136, Control_c, 0, 64, 97
1, 105186, Note_on_c, 0, 46, 66
1, 105187, Note_off_c, 0, 54, 56
1, 105196, Control_c, 0, 64, 96
1, 105197, Note_on_c, 0, 79, 84
1, 105210, Control_c, 0, 64, 92
1, 105213, Note_on_c, 0, 67, 60
1, 105225, Control_c, 0, 64, 83
1, 105240, Control_c, 0, 64, 72
1, 105244, Note_off_c, 0, 78, 61
1, 105255, Control_c, 0, 64, 59
1, 105270, Control_c, 0, 64, 0
1, 105306, Note_on_c, 0, 49, 61
1, 105345, Control_c, 0, 64, 57
1, 105359, Control_c, 0, 64, 66
1, 105374, Control_c, 0, 64, 71
1, 105389, Control_c, 0, 64, 76
1, 105398, Note_off_c, 0, 46, 54
1, 105403, Control_c, 0, 64, 80
1, 105418, Control_c, 0, 64, 84
1, 105431, Note_on_c, 0, 51, 62
1, 105433, Control_c, 0, 64, 87
1, 105440, Note_off_c, 0, 67, 62
1, 105448, Control_c, 0, 64, 90
1, 105463, Control_c, 0, 64, 93
1, 105478, Control_c, 0, 64, 94
1, 105492, Control_c, 0, 64, 96
1, 105507, Control_c, 0, 64, 96
1, 105522, Control_c, 0, 64, 97
1, 105543, Note_off_c, 0, 49, 36
1, 105565, Note_on_c, 0, 44, 59
1, 105578, Note_off_c, 0, 51, 49
1, 105579, Note_on_c, 0, 80, 86
1, 105581, Control_c, 0, 64, 95
1, 105596, Control_c, 0, 64, 89
1, 105598, Note_on_c, 0, 68, 61
1, 105610, Control_c, 0, 64, 79
1, 105625, Control_c, 0, 64, 66
1, 105640, Control_c, 0, 64, 39
1, 105642, Note_off_c, 0, 79, 61
1, 105655, Control_c, 0, 64, 0
1, 105697, Note_on_c, 0, 49, 52
1, 105700, Control_c, 0, 64, 46
1, 105714, Control_c, 0, 64, 62
1, 105729, Control_c, 0, 64, 69
1, 105744, Control_c, 0, 64, 74
1, 105759, Control_c, 0, 64, 79
1, 105774, Control_c, 0, 64, 83
1, 105786, Note_off_c, 0, 44, 63
1, 105789, Control_c, 0, 64, 86
1, 105810, Control_c, 0, 64, 87
1, 105825, Control_c, 0, 64, 89
1, 105835, Note_off_c, 0, 68, 63
1, 105840, Note_on_c, 0, 51, 51
1, 105841, Control_c, 0, 64, 90
1, 105856, Control_c, 0, 64, 91
1, 105871, Control_c, 0, 64, 92
1, 105886, Control_c, 0, 64, 93
1, 105955, Note_off_c, 0, 49, 27
1, 105960, Control_c, 0, 64, 90
1, 105975, Control_c, 0, 64, 84
1, 105978, Note_on_c, 0, 43, 52
1, 105980, Note_on_c, 0, 82, 83
1, 105989, Control_c, 0, 64, 75
1, 105991, Note_on_c, 0, 70, 54
1, 106004, Control_c, 0, 64, 66
1, 106005, Note_off_c, 0, 80, 64
1, 106013, Note_off_c, 0, 51, 40
1, 106019, Control_c, 0, 64, 41
1, 106033, Control_c, 0, 64, 0
1, 106108, Control_c, 0, 64, 53
1, 106117, Note_on_c, 0, 49, 42
1, 106123, Control_c, 0, 64, 65
1, 106138, Control_c, 0, 64, 70
1, 106152, Control_c, 0, 64, 74
1, 106167, Control_c, 0, 64, 78
1, 106178, Note_off_c, 0, 70, 53
1, 106182, Control_c, 0, 64, 80
1, 106197, Control_c, 0, 64, 81
1, 106212, Control_c, 0, 64, 83
1, 106213, Note_off_c, 0, 43, 37
1, 106226, Control_c, 0, 64, 85
1, 106241, Control_c, 0, 64, 87
1, 106251, Note_on_c, 0, 51, 45
1, 106256, Control_c, 0, 64, 87
1, 106271, Control_c, 0, 64, 88
1, 106299, Note_off_c, 0, 51, 45
1, 106315, Control_c, 0, 64, 89
1, 106382, Note_off_c, 0, 49, 31
1, 106394, Note_on_c, 0, 85, 76
1, 106401, Note_on_c, 0, 43, 39
1, 106409, Note_on_c, 0, 73, 48
1, 106457, Note_off_c, 0, 73, 0
1, 106457, Note_on_c, 0, 73, 9
1, 106515, Note_on_c, 0, 46, 45
1, 106561, Note_off_c, 0, 73, 57
1, 106599, Note_off_c, 0, 85, 62
1, 106609, Note_off_c, 0, 43, 40
1, 106642, Note_off_c, 0, 46, 36
1, 106656, Note_on_c, 0, 51, 37
1, 106776, Note_on_c, 0, 44, 45
1, 106782, Control_c, 0, 64, 88
1, 106797, Control_c, 0, 64, 83
1, 106808, Note_off_c, 0, 51, 25
1, 106812, Note_on_c, 0, 83, 60
1, 106812, Control_c, 0, 64, 75
1, 106827, Control_c, 0, 64, 66
1, 106831, Note_on_c, 0, 71, 40
1, 106842, Control_c, 0, 64, 41
1, 106848, Note_off_c, 0, 82, 59
1, 106856, Control_c, 0, 64, 0
1, 106913, Note_on_c, 0, 47, 42
1, 106913, Note_off_c, 0, 44, 56
1, 106931, Control_c, 0, 64, 63
1, 106946, Control_c, 0, 64, 70
1, 106960, Control_c, 0, 64, 74
1, 106975, Note_off_c, 0, 71, 62
1, 106975, Control_c, 0, 64, 78
1, 106990, Control_c, 0, 64, 80
1, 106997, Note_off_c, 0, 47, 60
1, 107005, Control_c, 0, 64, 82
1, 107020, Control_c, 0, 64, 84
1, 107035, Control_c, 0, 64, 86
1, 107044, Note_on_c, 0, 51, 43
1, 107049, Control_c, 0, 64, 87
1, 107064, Control_c, 0, 64, 88
1, 107079, Control_c, 0, 64, 88
1, 107094, Control_c, 0, 64, 89
1, 107109, Control_c, 0, 64, 90
1, 107158, Note_off_c, 0, 51, 56
1, 107168, Control_c, 0, 64, 88
1, 107182, Control_c, 0, 64, 85
1, 107197, Control_c, 0, 64, 78
1, 107205, Note_on_c, 0, 82, 57
1, 107205, Note_off_c, 0, 83, 57
1, 107212, Control_c, 0, 64, 69
1, 107214, Note_on_c, 0, 49, 41
1, 107221, Note_on_c, 0, 70, 38
1, 107227, Control_c, 0, 64, 58
1, 107242, Control_c, 0, 64, 0
1, 107309, Control_c, 0, 64, 54
1, 107324, Control_c, 0, 64, 65
1, 107338, Control_c, 0, 64, 70
1, 107353, Control_c, 0, 64, 73
1, 107368, Control_c, 0, 64, 77
1, 107378, Note_on_c, 0, 52, 44
1, 107382, Control_c, 0, 64, 79
1, 107386, Note_off_c, 0, 70, 58
1, 107387, Note_off_c, 0, 49, 38
1, 107397, Control_c, 0, 64, 81
1, 107412, Control_c, 0, 64, 82
1, 107427, Control_c, 0, 64, 83
1, 107443, Control_c, 0, 64, 84
1, 107448, Note_off_c, 0, 52, 60
1, 107458, Control_c, 0, 64, 85
1, 107473, Control_c, 0, 64, 85
1, 107487, Control_c, 0, 64, 86
1, 107500, Note_on_c, 0, 58, 38
1, 107502, Control_c, 0, 64, 87
1, 107517, Control_c, 0, 64, 87
1, 107528, Note_off_c, 0, 82, 56
1, 107532, Control_c, 0, 64, 88
1, 107533, Note_on_c, 0, 80, 57
1, 107551, Note_on_c, 0, 68, 37
1, 107561, Control_c, 0, 64, 88
1, 107633, Note_off_c, 0, 68, 38
1, 107650, Control_c, 0, 64, 86
1, 107665, Control_c, 0, 64, 82
1, 107674, Note_off_c, 0, 58, 36
1, 107679, Control_c, 0, 64, 75
1, 107694, Note_off_c, 0, 80, 60
1, 107694, Control_c, 0, 64, 67
1, 107702, Note_on_c, 0, 51, 29
1, 107706, Note_on_c, 0, 79, 48
1, 107709, Note_on_c, 0, 67, 37
1, 107709, Control_c, 0, 64, 54
1, 107724, Control_c, 0, 64, 14
1, 107739, Control_c, 0, 64, 0
1, 107783, Control_c, 0, 64, 40
1, 107798, Control_c, 0, 64, 62
1, 107813, Control_c, 0, 64, 68
1, 107828, Control_c, 0, 64, 73
1, 107841, Note_on_c, 0, 58, 33
1, 107843, Control_c, 0, 64, 77
1, 107858, Control_c, 0, 64, 80
1, 107872, Control_c, 0, 64, 82
1, 107887, Control_c, 0, 64, 84
1, 107902, Control_c, 0, 64, 84
1, 107917, Note_off_c, 0, 79, 46
1, 107917, Control_c, 0, 64, 85
1, 107931, Control_c, 0, 64, 86
1, 107935, Note_off_c, 0, 67, 44
1, 107939, Note_off_c, 0, 51, 37
1, 107946, Control_c, 0, 64, 86
1, 107961, Control_c, 0, 64, 87
1, 107986, Note_on_c, 0, 61, 34
1, 107991, Control_c, 0, 64, 87
1, 108005, Control_c, 0, 64, 88
1, 108020, Control_c, 0, 64, 88
1, 108072, Note_off_c, 0, 58, 34
1, 108115, Note_off_c, 0, 61, 33
1, 108121, Note_on_c, 0, 79, 55
1, 108132, Note_on_c, 0, 51, 25
1, 108132, Note_on_c, 0, 67, 46
1, 108251, Note_on_c, 0, 58, 33
1, 108296, Note_off_c, 0, 67, 54
1, 108302, Note_off_c, 0, 51, 34
1, 108390, Note_on_c, 0, 61, 35
1, 108472, Control_c, 0, 64, 88
1, 108487, Control_c, 0, 64, 85
1, 108493, Note_off_c, 0, 58, 34
1, 108502, Control_c, 0, 64, 79
1, 108517, Note_off_c, 0, 61, 25
1, 108517, Control_c, 0, 64, 73
1, 108517, Note_on_c, 0, 80, 60
1, 108526, Note_on_c, 0, 68, 44
1, 108528, Note_on_c, 0, 51, 37
1, 108531, Control_c, 0, 64, 68
1, 108546, Control_c, 0, 64, 65
1, 108549, Note_off_c, 0, 79, 35
1, 108576, Control_c, 0, 64, 67
1, 108591, Control_c, 0, 64, 69
1, 108606, Control_c, 0, 64, 73
1, 108621, Control_c, 0, 64, 76
1, 108633, Note_on_c, 0, 58, 33
1, 108635, Control_c, 0, 64, 79
1, 108650, Control_c, 0, 64, 80
1, 108660, Note_off_c, 0, 51, 29
1, 108661, Note_off_c, 0, 68, 49
1, 108665, Control_c, 0, 64, 81
1, 108680, Control_c, 0, 64, 83
1, 108694, Control_c, 0, 64, 84
1, 108709, Control_c, 0, 64, 84
1, 108726, Note_off_c, 0, 80, 61
1, 108738, Note_on_c, 0, 79, 57
1, 108739, Control_c, 0, 64, 85
1, 108749, Note_on_c, 0, 67, 37
1, 108768, Control_c, 0, 64, 85
1, 108783, Control_c, 0, 64, 86
1, 108830, Note_off_c, 0, 67, 47
1, 108838, Note_on_c, 0, 61, 28
1, 108880, Control_c, 0, 64, 86
1, 108895, Note_off_c, 0, 58, 28
1, 108948, Note_off_c, 0, 79, 53
1, 108962, Note_on_c, 0, 77, 54
1, 108973, Note_on_c, 0, 51, 38
1, 108973, Note_on_c, 0, 65, 35
1, 108985, Note_off_c, 0, 61, 30
1, 109026, Note_off_c, 0, 65, 46
1, 109110, Note_on_c, 0, 58, 28
1, 109168, Note_off_c, 0, 51, 37
1, 109175, Note_off_c, 0, 77, 57
1, 109184, Note_on_c, 0, 79, 58
1, 109202, Note_on_c, 0, 67, 41
1, 109231, Note_off_c, 0, 58, 41
1, 109253, Note_on_c, 0, 61, 37
1, 109256, Note_off_c, 0, 67, 54
1, 109459, Note_off_c, 0, 61, 36
1, 109473, Control_c, 0, 64, 85
1, 109488, Control_c, 0, 64, 83
1, 109503, Control_c, 0, 64, 78
1, 109511, Note_on_c, 0, 56, 39
1, 109518, Control_c, 0, 64, 71
1, 109519, Note_on_c, 0, 80, 62
1, 109528, Note_on_c, 0, 68, 41
1, 109533, Control_c, 0, 64, 64
1, 109555, Control_c, 0, 64, 50
1, 109570, Control_c, 0, 64, 39
1, 109584, Control_c, 0, 64, 36
1, 109587, Note_off_c, 0, 68, 0
1, 109587, Note_on_c, 0, 68, 26
1, 109599, Control_c, 0, 64, 37
1, 109610, Note_off_c, 0, 79, 35
1, 109614, Control_c, 0, 64, 41
1, 109629, Control_c, 0, 64, 46
1, 109644, Control_c, 0, 64, 54
1, 109658, Control_c, 0, 64, 63
1, 109673, Control_c, 0, 64, 68
1, 109675, Note_on_c, 0, 60, 42
1, 109688, Note_off_c, 0, 56, 40
1, 109688, Control_c, 0, 64, 73
1, 109703, Control_c, 0, 64, 78
1, 109718, Control_c, 0, 64, 81
1, 109733, Control_c, 0, 64, 82
1, 109748, Control_c, 0, 64, 82
1, 109755, Note_off_c, 0, 60, 61
1, 109763, Control_c, 0, 64, 83
1, 109777, Control_c, 0, 64, 84
1, 109792, Control_c, 0, 64, 84
1, 109807, Control_c, 0, 64, 85
1, 109808, Note_on_c, 0, 63, 37
1, 109852, Control_c, 0, 64, 85
1, 109864, Note_off_c, 0, 63, 39
1, 109926, Note_on_c, 0, 60, 40
1, 109945, Note_off_c, 0, 68, 52
1, 110068, Note_on_c, 0, 63, 51
1, 110094, Note_off_c, 0, 60, 38
1, 110134, Control_c, 0, 64, 86
1, 110163, Control_c, 0, 64, 86
1, 110171, Note_on_c, 0, 68, 49
1, 110178, Control_c, 0, 64, 87
1, 110207, Control_c, 0, 64, 87
1, 110222, Control_c, 0, 64, 88
1, 110252, Control_c, 0, 64, 88
1, 110260, Note_off_c, 0, 80, 58
1, 110304, Control_c, 0, 64, 88
1, 110307, Note_on_c, 0, 59, 53
1, 110318, Note_off_c, 0, 68, 42
1, 110319, Control_c, 0, 64, 85
1, 110325, Note_off_c, 0, 63, 38
1, 110333, Control_c, 0, 64, 79
1, 110348, Control_c, 0, 64, 73
1, 110363, Control_c, 0, 64, 68
1, 110378, Control_c, 0, 64, 65
1, 110407, Control_c, 0, 64, 67
1, 110422, Control_c, 0, 64, 69
1, 110437, Control_c, 0, 64, 72
1, 110447, Note_on_c, 0, 62, 54
1, 110452, Control_c, 0, 64, 76
1, 110467, Control_c, 0, 64, 80
1, 110481, Control_c, 0, 64, 84
1, 110496, Control_c, 0, 64, 87
1, 110511, Control_c, 0, 64, 90
1, 110526, Control_c, 0, 64, 92
1, 110535, Note_off_c, 0, 59, 58
1, 110541, Control_c, 0, 64, 94
1, 110555, Control_c, 0, 64, 95
1, 110566, Note_on_c, 0, 68, 51
1, 110570, Control_c, 0, 64, 96
1, 110629, Note_off_c, 0, 62, 54
1, 110645, Control_c, 0, 64, 95
1, 110660, Control_c, 0, 64, 92
1, 110675, Control_c, 0, 64, 86
1, 110690, Control_c, 0, 64, 79
1, 110695, Note_on_c, 0, 60, 51
1, 110704, Control_c, 0, 64, 70
1, 110710, Note_on_c, 0, 80, 71
1, 110719, Control_c, 0, 64, 64
1, 110721, Note_off_c, 0, 68, 39
1, 110734, Control_c, 0, 64, 56
1, 110749, Control_c, 0, 64, 52
1, 110764, Control_c, 0, 64, 46
1, 110779, Control_c, 0, 64, 32
1, 110794, Control_c, 0, 64, 0
1, 110823, Control_c, 0, 64, 22
1, 110838, Control_c, 0, 64, 35
1, 110841, Note_on_c, 0, 63, 58
1, 110853, Control_c, 0, 64, 42
1, 110868, Control_c, 0, 64, 53
1, 110883, Control_c, 0, 64, 62
1, 110897, Control_c, 0, 64, 69
1, 110912, Control_c, 0, 64, 76
1, 110927, Control_c, 0, 64, 82
1, 110941, Control_c, 0, 64, 83
1, 110956, Control_c, 0, 64, 84
1, 110967, Note_on_c, 0, 68, 59
1, 110971, Control_c, 0, 64, 86
1, 110986, Control_c, 0, 64, 90
1, 111001, Control_c, 0, 64, 93
1, 111012, Note_on_c, 0, 84, 71
1, 111016, Control_c, 0, 64, 94
1, 111031, Note_off_c, 0, 60, 29
1, 111031, Control_c, 0, 64, 95
1, 111145, Note_off_c, 0, 68, 55
1, 111168, Note_off_c, 0, 80, 52
1, 111191, Note_on_c, 0, 56, 51
1, 111192, Note_on_c, 0, 87, 77
1, 111211, Note_on_c, 0, 75, 47
1, 111344, Note_on_c, 0, 60, 47
1, 111345, Note_off_c, 0, 63, 40
1, 111411, Note_off_c, 0, 56, 34
1, 111433, Note_on_c, 0, 68, 53
1, 111438, Note_off_c, 0, 87, 57
1, 111441, Note_off_c, 0, 60, 55
1, 111473, Note_off_c, 0, 75, 36
1, 111507, Note_off_c, 0, 68, 59
1, 111516, Note_off_c, 0, 84, 53
1, 111580, Note_on_c, 0, 87, 81
1, 111589, Note_on_c, 0, 60, 59
1, 111596, Note_on_c, 0, 75, 62
1, 111601, Control_c, 0, 64, 93
1, 111616, Control_c, 0, 64, 89
1, 111631, Control_c, 0, 64, 85
1, 111645, Control_c, 0, 64, 83
1, 111660, Control_c, 0, 64, 82
1, 111705, Control_c, 0, 64, 83
1, 111718, Note_on_c, 0, 63, 60
1, 111719, Control_c, 0, 64, 84
1, 111734, Control_c, 0, 64, 86
1, 111749, Control_c, 0, 64, 88
1, 111763, Control_c, 0, 64, 89
1, 111778, Control_c, 0, 64, 90
1, 111801, Control_c, 0, 64, 91
1, 111816, Control_c, 0, 64, 93
1, 111828, Note_off_c, 0, 60, 53
1, 111831, Control_c, 0, 64, 93
1, 111846, Control_c, 0, 64, 94
1, 111852, Note_on_c, 0, 68, 56
1, 111860, Control_c, 0, 64, 95
1, 111866, Note_off_c, 0, 75, 54
1, 111875, Control_c, 0, 64, 96
1, 111890, Control_c, 0, 64, 97
1, 111900, Note_off_c, 0, 87, 61
1, 111905, Control_c, 0, 64, 97
1, 111919, Control_c, 0, 64, 98
1, 111964, Control_c, 0, 64, 98
1, 111972, Note_off_c, 0, 68, 36
1, 111978, Control_c, 0, 64, 94
1, 111981, Note_on_c, 0, 59, 59
1, 111981, Note_on_c, 0, 87, 83
1, 111986, Note_off_c, 0, 63, 25
1, 111989, Note_on_c, 0, 75, 72
1, 111993, Control_c, 0, 64, 88
1, 112008, Control_c, 0, 64, 79
1, 112023, Control_c, 0, 64, 70
1, 112038, Control_c, 0, 64, 63
1, 112052, Control_c, 0, 64, 60
1, 112068, Control_c, 0, 64, 62
1, 112083, Control_c, 0, 64, 65
1, 112097, Control_c, 0, 64, 68
1, 112112, Control_c, 0, 64, 73
1, 112121, Note_on_c, 0, 62, 60
1, 112127, Control_c, 0, 64, 78
1, 112142, Control_c, 0, 64, 83
1, 112157, Control_c, 0, 64, 86
1, 112171, Control_c, 0, 64, 88
1, 112186, Control_c, 0, 64, 90
1, 112201, Control_c, 0, 64, 93
1, 112216, Control_c, 0, 64, 94
1, 112219, Note_off_c, 0, 59, 61
1, 112232, Control_c, 0, 64, 96
1, 112240, Note_on_c, 0, 68, 67
1, 112247, Control_c, 0, 64, 97
1, 112258, Note_off_c, 0, 75, 35
1, 112262, Control_c, 0, 64, 99
1, 112276, Control_c, 0, 64, 100
1, 112291, Control_c, 0, 64, 101
1, 112308, Note_off_c, 0, 62, 59
1, 112309, Note_off_c, 0, 87, 57
1, 112350, Control_c, 0, 64, 100
1, 112365, Control_c, 0, 64, 93
1, 112375, Note_on_c, 0, 87, 85
1, 112378, Note_on_c, 0, 60, 64
1, 112379, Note_on_c, 0, 75, 78
1, 112380, Control_c, 0, 64, 83
1, 112394, Note_off_c, 0, 68, 50
1, 112395, Control_c, 0, 64, 71
1, 112410, Control_c, 0, 64, 60
1, 112424, Control_c, 0, 64, 11
1, 112439, Control_c, 0, 64, 0
1, 112454, Control_c, 0, 64, 38
1, 112469, Control_c, 0, 64, 57
1, 112484, Control_c, 0, 64, 65
1, 112499, Control_c, 0, 64, 70
1, 112511, Note_on_c, 0, 63, 64
1, 112513, Control_c, 0, 64, 77
1, 112528, Control_c, 0, 64, 83
1, 112550, Control_c, 0, 64, 87
1, 112562, Note_off_c, 0, 75, 65
1, 112565, Control_c, 0, 64, 90
1, 112580, Control_c, 0, 64, 92
1, 112582, Note_off_c, 0, 60, 58
1, 112594, Control_c, 0, 64, 94
1, 112609, Control_c, 0, 64, 95
1, 112624, Note_off_c, 0, 63, 62
1, 112624, Control_c, 0, 64, 97
1, 112632, Note_on_c, 0, 68, 63
1, 112639, Control_c, 0, 64, 99
1, 112654, Control_c, 0, 64, 100
1, 112669, Control_c, 0, 64, 100
1, 112728, Control_c, 0, 64, 99
1, 112743, Control_c, 0, 64, 92
1, 112749, Note_on_c, 0, 89, 87
1, 112755, Note_on_c, 0, 61, 60
1, 112758, Control_c, 0, 64, 81
1, 112761, Note_on_c, 0, 77, 76
1, 112773, Control_c, 0, 64, 69
1, 112788, Control_c, 0, 64, 37
1, 112788, Note_off_c, 0, 68, 41
1, 112802, Control_c, 0, 64, 0
1, 112819, Note_off_c, 0, 87, 55
1, 112888, Note_on_c, 0, 65, 62
1, 112891, Control_c, 0, 64, 58
1, 112906, Control_c, 0, 64, 69
1, 112920, Control_c, 0, 64, 75
1, 112935, Control_c, 0, 64, 80
1, 112950, Control_c, 0, 64, 84
1, 112964, Note_off_c, 0, 61, 58
1, 112965, Control_c, 0, 64, 87
1, 112980, Control_c, 0, 64, 88
1, 112994, Control_c, 0, 64, 90
1, 113007, Note_on_c, 0, 68, 58
1, 113009, Control_c, 0, 64, 91
1, 113014, Note_off_c, 0, 77, 59
1, 113025, Control_c, 0, 64, 92
1, 113040, Control_c, 0, 64, 93
1, 113054, Note_off_c, 0, 65, 55
1, 113055, Control_c, 0, 64, 93
1, 113085, Control_c, 0, 64, 94
1, 113124, Note_off_c, 0, 68, 61
1, 113128, Note_on_c, 0, 91, 84
1, 113128, Note_on_c, 0, 61, 52
1, 113149, Note_on_c, 0, 79, 60
1, 113157, Note_off_c, 0, 89, 65
1, 113261, Note_on_c, 0, 63, 58
1, 113319, Note_off_c, 0, 79, 62
1, 113355, Note_off_c, 0, 61, 36
1, 113381, Note_on_c, 0, 70, 43
1, 113432, Control_c, 0, 64, 94
1, 113507, Control_c, 0, 64, 93
1, 113512, Note_off_c, 0, 63, 35
1, 113518, Note_on_c, 0, 92, 84
1, 113521, Control_c, 0, 64, 89
1, 113530, Note_off_c, 0, 70, 35
1, 113536, Note_on_c, 0, 80, 61
1, 113536, Control_c, 0, 64, 81
1, 113539, Note_on_c, 0, 60, 50
1, 113548, Note_off_c, 0, 91, 61
1, 113551, Control_c, 0, 64, 70
1, 113566, Control_c, 0, 64, 55
1, 113581, Control_c, 0, 64, 0
1, 113650, Note_on_c, 0, 63, 41
1, 113655, Control_c, 0, 64, 59
1, 113669, Control_c, 0, 64, 71
1, 113684, Control_c, 0, 64, 79
1, 113697, Note_off_c, 0, 60, 49
1, 113699, Control_c, 0, 64, 85
1, 113711, Note_off_c, 0, 92, 66
1, 113714, Control_c, 0, 64, 88
1, 113729, Control_c, 0, 64, 90
1, 113735, Note_off_c, 0, 80, 63
1, 113743, Control_c, 0, 64, 91
1, 113758, Control_c, 0, 64, 93
1, 113773, Control_c, 0, 64, 94
1, 113781, Note_on_c, 0, 68, 38
1, 113788, Control_c, 0, 64, 94
1, 113803, Control_c, 0, 64, 95
1, 113819, Control_c, 0, 64, 95
1, 113841, Note_off_c, 0, 68, 41
1, 113863, Control_c, 0, 64, 96
1, 113890, Note_on_c, 0, 60, 38
1, 113899, Note_off_c, 0, 63, 40
1, 113911, Note_on_c, 0, 87, 67
1, 113920, Note_on_c, 0, 75, 53
1, 114022, Note_on_c, 0, 63, 46
1, 114054, Note_off_c, 0, 75, 64
1, 114067, Note_off_c, 0, 87, 60
1, 114072, Note_off_c, 0, 60, 41
1, 114138, Note_off_c, 0, 63, 54
1, 114162, Note_on_c, 0, 68, 35
1, 114285, Control_c, 0, 64, 93
1, 114300, Control_c, 0, 64, 87
1, 114313, Note_off_c, 0, 68, 42
1, 114314, Control_c, 0, 64, 77
1, 114317, Note_on_c, 0, 87, 68
1, 114320, Note_on_c, 0, 58, 47
1, 114329, Control_c, 0, 64, 67
1, 114341, Note_on_c, 0, 75, 48
1, 114344, Control_c, 0, 64, 50
1, 114359, Control_c, 0, 64, 34
1, 114374, Control_c, 0, 64, 34
1, 114389, Control_c, 0, 64, 43
1, 114404, Control_c, 0, 64, 56
1, 114419, Control_c, 0, 64, 64
1, 114434, Control_c, 0, 64, 70
1, 114448, Control_c, 0, 64, 75
1, 114463, Control_c, 0, 64, 79
1, 114471, Note_on_c, 0, 63, 46
1, 114478, Control_c, 0, 64, 80
1, 114492, Control_c, 0, 64, 82
1, 114507, Control_c, 0, 64, 83
1, 114522, Control_c, 0, 64, 85
1, 114532, Note_off_c, 0, 75, 59
1, 114537, Control_c, 0, 64, 87
1, 114542, Note_off_c, 0, 58, 38
1, 114552, Control_c, 0, 64, 88
1, 114566, Control_c, 0, 64, 89
1, 114581, Control_c, 0, 64, 89
1, 114593, Note_on_c, 0, 67, 35
1, 114596, Control_c, 0, 64, 90
1, 114612, Control_c, 0, 64, 90
1, 114627, Control_c, 0, 64, 91
1, 114671, Note_off_c, 0, 63, 35
1, 114671, Control_c, 0, 64, 90
1, 114686, Control_c, 0, 64, 86
1, 114701, Control_c, 0, 64, 77
1, 114704, Note_on_c, 0, 58, 42
1, 114708, Note_on_c, 0, 85, 57
1, 114710, Note_off_c, 0, 67, 28
1, 114710, Note_off_c, 0, 87, 57
1, 114716, Control_c, 0, 64, 64
1, 114718, Note_on_c, 0, 73, 38
1, 114731, Control_c, 0, 64, 27
1, 114745, Control_c, 0, 64, 0
1, 114775, Control_c, 0, 64, 30
1, 114797, Control_c, 0, 64, 62
1, 114812, Control_c, 0, 64, 69
1, 114827, Control_c, 0, 64, 75
1, 114833, Note_on_c, 0, 63, 36
1, 114833, Note_off_c, 0, 73, 61
1, 114842, Control_c, 0, 64, 78
1, 114856, Note_off_c, 0, 85, 58
1, 114857, Control_c, 0, 64, 80
1, 114871, Control_c, 0, 64, 80
1, 114880, Note_off_c, 0, 58, 61
1, 114886, Control_c, 0, 64, 81
1, 114901, Control_c, 0, 64, 81
1, 114930, Control_c, 0, 64, 82
1, 114957, Note_on_c, 0, 67, 37
1, 115034, Control_c, 0, 64, 81
1, 115043, Note_off_c, 0, 67, 37
1, 115048, Note_off_c, 0, 63, 38
1, 115049, Control_c, 0, 64, 79
1, 115064, Control_c, 0, 64, 75
1, 115078, Control_c, 0, 64, 67
1, 115093, Control_c, 0, 64, 55
1, 115101, Note_on_c, 0, 85, 60
1, 115108, Control_c, 0, 64, 26
1, 115111, Note_on_c, 0, 56, 45
1, 115115, Note_on_c, 0, 73, 46
1, 115122, Control_c, 0, 64, 0
1, 115152, Control_c, 0, 64, 25
1, 115167, Control_c, 0, 64, 41
1, 115182, Control_c, 0, 64, 56
1, 115197, Control_c, 0, 64, 65
1, 115212, Control_c, 0, 64, 69
1, 115227, Control_c, 0, 64, 73
1, 115229, Note_on_c, 0, 63, 41
1, 115241, Control_c, 0, 64, 78
1, 115256, Control_c, 0, 64, 80
1, 115271, Control_c, 0, 64, 82
1, 115286, Control_c, 0, 64, 84
1, 115297, Note_off_c, 0, 56, 35
1, 115301, Control_c, 0, 64, 86
1, 115315, Control_c, 0, 64, 87
1, 115330, Control_c, 0, 64, 87
1, 115334, Note_off_c, 0, 73, 62
1, 115345, Control_c, 0, 64, 88
1, 115352, Note_on_c, 0, 68, 41
1, 115360, Control_c, 0, 64, 88
1, 115389, Control_c, 0, 64, 89
1, 115435, Control_c, 0, 64, 88
1, 115450, Control_c, 0, 64, 86
1, 115465, Control_c, 0, 64, 80
1, 115475, Note_off_c, 0, 63, 37
1, 115480, Control_c, 0, 64, 68
1, 115486, Note_on_c, 0, 84, 53
1, 115494, Control_c, 0, 64, 54
1, 115498, Note_off_c, 0, 68, 43
1, 115500, Note_on_c, 0, 56, 42
1, 115509, Control_c, 0, 64, 0
1, 115517, Note_on_c, 0, 72, 37
1, 115519, Note_off_c, 0, 85, 37
1, 115560, Control_c, 0, 64, 42
1, 115575, Control_c, 0, 64, 62
1, 115590, Control_c, 0, 64, 69
1, 115605, Control_c, 0, 64, 73
1, 115608, Note_off_c, 0, 72, 58
1, 115620, Note_on_c, 0, 63, 42
1, 115620, Control_c, 0, 64, 77
1, 115635, Control_c, 0, 64, 80
1, 115650, Control_c, 0, 64, 81
1, 115665, Control_c, 0, 64, 83
1, 115671, Note_off_c, 0, 84, 56
1, 115680, Control_c, 0, 64, 84
1, 115686, Note_off_c, 0, 56, 39
1, 115694, Control_c, 0, 64, 85
1, 115700, Note_off_c, 0, 63, 60
1, 115709, Control_c, 0, 64, 86
1, 115724, Control_c, 0, 64, 86
1, 115764, Note_on_c, 0, 68, 36
1, 115912, Note_off_c, 0, 68, 22
1, 115916, Control_c, 0, 64, 86
1, 115931, Control_c, 0, 64, 83
1, 115945, Control_c, 0, 64, 77
1, 115948, Note_on_c, 0, 61, 41
1, 115960, Control_c, 0, 64, 66
1, 115965, Note_on_c, 0, 82, 52
1, 115975, Control_c, 0, 64, 45
1, 115990, Control_c, 0, 64, 0
1, 116064, Control_c, 0, 64, 62
1, 116079, Control_c, 0, 64, 68
1, 116094, Control_c, 0, 64, 72
1, 116105, Note_on_c, 0, 68, 25
1, 116109, Control_c, 0, 64, 76
1, 116124, Control_c, 0, 64, 79
1, 116138, Control_c, 0, 64, 82
1, 116153, Control_c, 0, 64, 84
1, 116168, Control_c, 0, 64, 85
1, 116180, Note_off_c, 0, 61, 55
1, 116183, Control_c, 0, 64, 86
1, 116198, Control_c, 0, 64, 87
1, 116213, Control_c, 0, 64, 87
1, 116228, Control_c, 0, 64, 88
1, 116243, Note_on_c, 0, 70, 27
1, 116258, Control_c, 0, 64, 88
1, 116295, Control_c, 0, 64, 89
1, 116363, Note_off_c, 0, 70, 32
1, 116365, Note_on_c, 0, 85, 62
1, 116374, Note_on_c, 0, 65, 38
1, 116380, Note_off_c, 0, 68, 40
1, 116508, Note_on_c, 0, 68, 45
1, 116561, Control_c, 0, 64, 89
1, 116583, Note_off_c, 0, 65, 37
1, 116608, Note_on_c, 0, 73, 41
1, 116621, Control_c, 0, 64, 90
1, 116650, Control_c, 0, 64, 90
1, 116724, Control_c, 0, 64, 89
1, 116739, Control_c, 0, 64, 85
1, 116747, Note_on_c, 0, 84, 60
1, 116751, Note_off_c, 0, 73, 29
1, 116754, Note_off_c, 0, 68, 42
1, 116754, Control_c, 0, 64, 78
1, 116757, Note_on_c, 0, 63, 49
1, 116762, Note_off_c, 0, 85, 58
1, 116768, Control_c, 0, 64, 69
1, 116783, Control_c, 0, 64, 61
1, 116793, Note_off_c, 0, 82, 58
1, 116798, Control_c, 0, 64, 50
1, 116813, Control_c, 0, 64, 51
1, 116828, Control_c, 0, 64, 56
1, 116842, Control_c, 0, 64, 61
1, 116857, Control_c, 0, 64, 65
1, 116872, Control_c, 0, 64, 68
1, 116884, Note_on_c, 0, 68, 43
1, 116887, Control_c, 0, 64, 72
1, 116902, Control_c, 0, 64, 77
1, 116917, Control_c, 0, 64, 81
1, 116932, Control_c, 0, 64, 83
1, 116940, Note_off_c, 0, 63, 45
1, 116946, Control_c, 0, 64, 84
1, 116961, Control_c, 0, 64, 85
1, 116976, Control_c, 0, 64, 86
1, 116991, Control_c, 0, 64, 87
1, 117006, Control_c, 0, 64, 88
1, 117017, Note_off_c, 0, 68, 48
1, 117018, Note_on_c, 0, 72, 40
1, 117021, Control_c, 0, 64, 88
1, 117090, Note_off_c, 0, 72, 37
1, 117103, Control_c, 0, 64, 88
1, 117117, Control_c, 0, 64, 84
1, 117129, Note_on_c, 0, 82, 58
1, 117132, Control_c, 0, 64, 76
1, 117146, Note_on_c, 0, 63, 40
1, 117147, Control_c, 0, 64, 66
1, 117162, Control_c, 0, 64, 48
1, 117177, Control_c, 0, 64, 0
1, 117194, Note_off_c, 0, 84, 56
1, 117236, Control_c, 0, 64, 27
1, 117251, Control_c, 0, 64, 59
1, 117265, Control_c, 0, 64, 65
1, 117270, Note_off_c, 0, 63, 58
1, 117275, Note_on_c, 0, 67, 49
1, 117280, Control_c, 0, 64, 69
1, 117295, Control_c, 0, 64, 72
1, 117310, Control_c, 0, 64, 76
1, 117325, Control_c, 0, 64, 79
1, 117340, Control_c, 0, 64, 81
1, 117355, Control_c, 0, 64, 82
1, 117369, Note_off_c, 0, 67, 63
1, 117370, Control_c, 0, 64, 83
1, 117384, Control_c, 0, 64, 84
1, 117399, Control_c, 0, 64, 85
1, 117406, Note_on_c, 0, 70, 45
1, 117414, Control_c, 0, 64, 86
1, 117429, Control_c, 0, 64, 87
1, 117435, Note_off_c, 0, 70, 54
1, 117444, Control_c, 0, 64, 87
1, 117458, Control_c, 0, 64, 88
1, 117488, Control_c, 0, 64, 89
1, 117503, Control_c, 0, 64, 89
1, 117591, Control_c, 0, 64, 87
1, 117606, Note_on_c, 0, 60, 48
1, 117606, Control_c, 0, 64, 81
1, 117613, Note_on_c, 0, 80, 55
1, 117620, Note_on_c, 0, 56, 39
1, 117621, Note_on_c, 0, 68, 42
1, 117621, Control_c, 0, 64, 73
1, 117636, Control_c, 0, 64, 64
1, 117651, Control_c, 0, 64, 35
1, 117665, Control_c, 0, 64, 0
1, 117685, Note_off_c, 0, 82, 37
1, 117769, Control_c, 0, 64, 37
1, 117791, Control_c, 0, 64, 65
1, 117806, Control_c, 0, 64, 69
1, 117822, Control_c, 0, 64, 72
1, 117837, Control_c, 0, 64, 77
1, 117852, Control_c, 0, 64, 83
1, 117867, Control_c, 0, 64, 87
1, 117879, Note_off_c, 0, 80, 64
1, 117882, Control_c, 0, 64, 90
1, 117896, Control_c, 0, 64, 91
1, 117911, Control_c, 0, 64, 93
1, 117926, Control_c, 0, 64, 94
1, 117933, Note_on_c, 0, 63, 52
1, 117940, Control_c, 0, 64, 95
1, 117941, Note_off_c, 0, 68, 42
1, 117955, Control_c, 0, 64, 95
1, 117970, Control_c, 0, 64, 96
1, 117985, Control_c, 0, 64, 97
1, 118000, Control_c, 0, 64, 97
1, 118014, Control_c, 0, 64, 98
1, 118029, Control_c, 0, 64, 98
1, 118074, Control_c, 0, 64, 99
1, 118076, Note_on_c, 0, 68, 57
1, 118103, Control_c, 0, 64, 99
1, 118133, Control_c, 0, 64, 100
1, 118175, Note_off_c, 0, 68, 63
1, 118178, Control_c, 0, 64, 100
1, 118187, Note_on_c, 0, 72, 63
1, 118207, Control_c, 0, 64, 101
1, 118222, Control_c, 0, 64, 101
1, 118237, Control_c, 0, 64, 102
1, 118244, Note_off_c, 0, 56, 44
1, 118251, Note_off_c, 0, 60, 57
1, 118257, Note_off_c, 0, 63, 53
1, 118267, Control_c, 0, 64, 102
1, 118281, Control_c, 0, 64, 103
1, 118296, Control_c, 0, 64, 103
1, 118311, Control_c, 0, 64, 104
1, 118313, Note_on_c, 0, 68, 65
1, 118324, Note_off_c, 0, 72, 62
1, 118326, Control_c, 0, 64, 104
1, 118340, Control_c, 0, 64, 105
1, 118355, Control_c, 0, 64, 105
1, 118414, Control_c, 0, 64, 106
1, 118434, Note_off_c, 0, 68, 59
1, 118438, Note_on_c, 0, 63, 69
1, 118444, Control_c, 0, 67, 119
1, 118459, Control_c, 0, 67, 104
1, 118474, Control_c, 0, 67, 86
1, 118488, Control_c, 0, 67, 63
1, 118503, Control_c, 0, 67, 44
1, 118518, Control_c, 0, 67, 26
1, 118540, Control_c, 0, 67, 11
1, 118555, Control_c, 0, 67, 0
1, 118575, Note_on_c, 0, 75, 69
1, 118687, Note_on_c, 0, 72, 71
1, 118758, Note_off_c, 0, 75, 55
1, 118798, Note_off_c, 0, 63, 38
1, 118814, Note_on_c, 0, 68, 77
1, 118842, Note_off_c, 0, 72, 61
1, 118876, Note_off_c, 0, 68, 61
1, 118941, Control_c, 0, 64, 102
1, 118950, Note_on_c, 0, 56, 75
1, 118956, Control_c, 0, 64, 94
1, 118959, Note_on_c, 0, 68, 70
1, 118971, Control_c, 0, 64, 82
1, 118985, Control_c, 0, 64, 71
1, 119000, Control_c, 0, 64, 59
1, 119015, Control_c, 0, 64, 0
1, 119075, Control_c, 0, 64, 59
1, 119084, Note_on_c, 0, 72, 66
1, 119089, Control_c, 0, 64, 67
1, 119104, Control_c, 0, 64, 73
1, 119119, Control_c, 0, 64, 79
1, 119134, Control_c, 0, 64, 82
1, 119149, Control_c, 0, 64, 84
1, 119163, Control_c, 0, 64, 86
1, 119176, Note_off_c, 0, 68, 57
1, 119178, Control_c, 0, 64, 88
1, 119193, Control_c, 0, 64, 90
1, 119208, Control_c, 0, 64, 92
1, 119212, Note_on_c, 0, 75, 71
1, 119223, Control_c, 0, 64, 93
1, 119237, Control_c, 0, 64, 94
1, 119252, Control_c, 0, 64, 94
1, 119253, Note_off_c, 0, 72, 54
1, 119272, Note_on_c, 0, 60, 77
1, 119278, Note_off_c, 0, 75, 61
1, 119298, Note_off_c, 0, 56, 59
1, 119349, Control_c, 0, 64, 92
1, 119363, Control_c, 0, 64, 86
1, 119369, Note_off_c, 0, 60, 61
1, 119378, Control_c, 0, 64, 76
1, 119393, Control_c, 0, 64, 65
1, 119394, Note_on_c, 0, 63, 87
1, 119402, Note_on_c, 0, 75, 69
1, 119409, Control_c, 0, 64, 0
1, 119528, Control_c, 0, 64, 33
1, 119541, Note_on_c, 0, 70, 60
1, 119542, Control_c, 0, 64, 64
1, 119557, Control_c, 0, 64, 69
1, 119572, Control_c, 0, 64, 74
1, 119586, Control_c, 0, 64, 80
1, 119601, Control_c, 0, 64, 86
1, 119616, Control_c, 0, 64, 90
1, 119631, Control_c, 0, 64, 91
1, 119646, Control_c, 0, 64, 92
1, 119660, Control_c, 0, 64, 93
1, 119669, Note_off_c, 0, 70, 59
1, 119674, Note_on_c, 0, 67, 65
1, 119675, Control_c, 0, 64, 95
1, 119690, Control_c, 0, 64, 97
1, 119694, Note_off_c, 0, 75, 39
1, 119703, Note_off_c, 0, 63, 61
1, 119705, Control_c, 0, 64, 98
1, 119719, Control_c, 0, 64, 99
1, 119734, Control_c, 0, 64, 100
1, 119779, Control_c, 0, 64, 99
1, 119791, Note_on_c, 0, 63, 86
1, 119793, Control_c, 0, 64, 92
1, 119797, Note_on_c, 0, 75, 73
1, 119808, Control_c, 0, 64, 81
1, 119823, Control_c, 0, 64, 70
1, 119829, Note_off_c, 0, 67, 49
1, 119838, Control_c, 0, 64, 58
1, 119853, Control_c, 0, 64, 42
1, 119868, Control_c, 0, 64, 46
1, 119883, Control_c, 0, 64, 54
1, 119898, Control_c, 0, 64, 63
1, 119912, Control_c, 0, 64, 69
1, 119919, Note_on_c, 0, 70, 65
1, 119927, Control_c, 0, 64, 75
1, 119942, Control_c, 0, 64, 82
1, 119957, Control_c, 0, 64, 87
1, 119972, Control_c, 0, 64, 91
1, 119986, Control_c, 0, 64, 94
1, 119998, Note_off_c, 0, 75, 61
1, 120001, Control_c, 0, 64, 98
1, 120016, Control_c, 0, 64, 102
1, 120038, Control_c, 0, 64, 106
1, 120049, Note_off_c, 0, 63, 59
1, 120050, Note_on_c, 0, 67, 67
1, 120053, Control_c, 0, 64, 109
1, 120062, Note_off_c, 0, 70, 56
1, 120068, Control_c, 0, 64, 111
1, 120082, Control_c, 0, 64, 113
1, 120097, Control_c, 0, 64, 113
1, 120112, Control_c, 0, 64, 114
1, 120157, Control_c, 0, 64, 112
1, 120172, Control_c, 0, 64, 101
1, 120174, Note_on_c, 0, 63, 83
1, 120176, Note_on_c, 0, 75, 72
1, 120186, Control_c, 0, 64, 89
1, 120201, Control_c, 0, 64, 76
1, 120205, Note_off_c, 0, 67, 56
1, 120217, Control_c, 0, 64, 65
1, 120231, Control_c, 0, 64, 37
1, 120246, Control_c, 0, 64, 0
1, 120276, Control_c, 0, 64, 35
1, 120288, Note_on_c, 0, 72, 70
1, 120291, Control_c, 0, 64, 55
1, 120306, Control_c, 0, 64, 63
1, 120321, Control_c, 0, 64, 68
1, 120335, Control_c, 0, 64, 75
1, 120338, Note_off_c, 0, 75, 56
1, 120350, Control_c, 0, 64, 83
1, 120365, Control_c, 0, 64, 90
1, 120380, Control_c, 0, 64, 94
1, 120395, Control_c, 0, 64, 97
1, 120409, Control_c, 0, 64, 101
1, 120410, Note_off_c, 0, 72, 64
1, 120421, Note_on_c, 0, 68, 73
1, 120424, Control_c, 0, 64, 105
1, 120439, Control_c, 0, 64, 108
1, 120445, Note_off_c, 0, 63, 55
1, 120454, Control_c, 0, 64, 110
1, 120469, Control_c, 0, 64, 113
1, 120483, Control_c, 0, 64, 115
1, 120498, Control_c, 0, 64, 116
1, 120545, Note_on_c, 0, 70, 80
1, 120547, Note_on_c, 0, 63, 90
1, 120557, Control_c, 0, 64, 111
1, 120572, Control_c, 0, 64, 100
1, 120587, Note_off_c, 0, 68, 58
1, 120587, Control_c, 0, 64, 88
1, 120602, Control_c, 0, 64, 77
1, 120616, Control_c, 0, 64, 68
1, 120631, Control_c, 0, 64, 61
1, 120646, Control_c, 0, 64, 58
1, 120661, Control_c, 0, 64, 61
1, 120676, Control_c, 0, 64, 65
1, 120685, Note_on_c, 0, 75, 74
1, 120691, Control_c, 0, 64, 71
1, 120705, Control_c, 0, 64, 77
1, 120720, Control_c, 0, 64, 81
1, 120735, Control_c, 0, 64, 84
1, 120750, Control_c, 0, 64, 85
1, 120765, Control_c, 0, 64, 87
1, 120787, Control_c, 0, 64, 89
1, 120802, Control_c, 0, 64, 91
1, 120816, Control_c, 0, 64, 92
1, 120831, Control_c, 0, 64, 93
1, 120840, Note_off_c, 0, 70, 62
1, 120845, Note_on_c, 0, 79, 81
1, 120846, Control_c, 0, 64, 94
1, 120875, Control_c, 0, 64, 94
1, 120877, Note_off_c, 0, 75, 64
1, 120890, Control_c, 0, 64, 95
1, 121010, Control_c, 0, 64, 94
1, 121025, Control_c, 0, 64, 91
1, 121039, Control_c, 0, 64, 85
1, 121054, Control_c, 0, 64, 79
1, 121055, Note_on_c, 0, 65, 82
1, 121060, Note_on_c, 0, 80, 78
1, 121069, Control_c, 0, 64, 72
1, 121084, Control_c, 0, 64, 67
1, 121099, Control_c, 0, 64, 63
1, 121114, Control_c, 0, 64, 61
1, 121121, Note_off_c, 0, 79, 52
1, 121129, Control_c, 0, 64, 58
1, 121139, Note_off_c, 0, 63, 61
1, 121144, Control_c, 0, 64, 53
1, 121158, Control_c, 0, 64, 42
1, 121173, Control_c, 0, 64, 20
1, 121188, Control_c, 0, 64, 0
1, 121248, Note_on_c, 0, 75, 60
1, 121277, Control_c, 0, 64, 45
1, 121292, Control_c, 0, 64, 62
1, 121306, Control_c, 0, 64, 68
1, 121316, Note_off_c, 0, 80, 63
1, 121321, Control_c, 0, 64, 73
1, 121336, Control_c, 0, 64, 78
1, 121351, Control_c, 0, 64, 82
1, 121365, Control_c, 0, 64, 85
1, 121370, Note_on_c, 0, 68, 62
1, 121380, Control_c, 0, 64, 87
1, 121388, Note_off_c, 0, 75, 63
1, 121395, Control_c, 0, 64, 89
1, 121410, Control_c, 0, 64, 91
1, 121425, Control_c, 0, 64, 92
1, 121439, Control_c, 0, 64, 93
1, 121454, Control_c, 0, 64, 93
1, 121469, Control_c, 0, 64, 94
1, 121477, Note_on_c, 0, 80, 70
1, 121483, Control_c, 0, 64, 94
1, 121498, Control_c, 0, 64, 95
1, 121555, Note_off_c, 0, 68, 58
1, 121606, Note_on_c, 0, 73, 68
1, 121662, Note_off_c, 0, 80, 55
1, 121718, Note_on_c, 0, 68, 66
1, 121725, Note_off_c, 0, 73, 59
1, 121833, Note_on_c, 0, 80, 72
1, 121834, Control_c, 0, 64, 93
1, 121844, Note_off_c, 0, 68, 54
1, 121845, Note_on_c, 0, 63, 73
1, 121849, Control_c, 0, 64, 89
1, 121863, Control_c, 0, 64, 80
1, 121878, Control_c, 0, 64, 69
1, 121893, Control_c, 0, 64, 41
1, 121900, Note_off_c, 0, 65, 61
1, 121907, Control_c, 0, 64, 0
1, 121960, Note_on_c, 0, 75, 62
1, 122011, Control_c, 0, 64, 62
1, 122026, Control_c, 0, 64, 69
1, 122029, Note_off_c, 0, 80, 57
1, 122041, Control_c, 0, 64, 74
1, 122051, Note_off_c, 0, 75, 65
1, 122056, Control_c, 0, 64, 78
1, 122070, Note_on_c, 0, 70, 62
1, 122071, Control_c, 0, 64, 81
1, 122086, Control_c, 0, 64, 84
1, 122100, Control_c, 0, 64, 86
1, 122115, Control_c, 0, 64, 87
1, 122127, Note_off_c, 0, 70, 55
1, 122130, Control_c, 0, 64, 88
1, 122145, Control_c, 0, 64, 89
1, 122160, Control_c, 0, 64, 90
1, 122174, Note_on_c, 0, 70, 54
1, 122175, Control_c, 0, 64, 92
1, 122189, Control_c, 0, 64, 93
1, 122204, Control_c, 0, 64, 93
1, 122263, Control_c, 0, 64, 94
1, 122285, Control_c, 0, 64, 94
1, 122315, Note_on_c, 0, 75, 69
1, 122360, Control_c, 0, 64, 95
1, 122375, Control_c, 0, 64, 95
1, 122387, Note_off_c, 0, 70, 56
1, 122445, Note_on_c, 0, 79, 69
1, 122449, Control_c, 0, 64, 96
1, 122543, Note_off_c, 0, 63, 53
1, 122552, Control_c, 0, 64, 94
1, 122567, Control_c, 0, 64, 87
1, 122568, Note_on_c, 0, 61, 71
1, 122577, Note_on_c, 0, 77, 69
1, 122581, Control_c, 0, 64, 77
1, 122592, Note_off_c, 0, 75, 37
1, 122596, Control_c, 0, 64, 67
1, 122602, Note_off_c, 0, 79, 54
1, 122612, Control_c, 0, 64, 46
1, 122627, Control_c, 0, 64, 0
1, 122703, Poly_aftertouch_c, 0, 54, 127
1, 122708, Note_on_c, 0, 70, 63
1, 122730, Control_c, 0, 64, 34
1, 122744, Poly_aftertouch_c, 0, 54, 0
1, 122745, Control_c, 0, 64, 53
1, 122760, Control_c, 0, 64, 60
1, 122775, Control_c, 0, 64, 64
1, 122790, Control_c, 0, 64, 68
1, 122798, Note_off_c, 0, 77, 55
1, 122804, Control_c, 0, 64, 72
1, 122819, Control_c, 0, 64, 75
1, 122828, Note_on_c, 0, 67, 57
1, 122834, Control_c, 0, 64, 77
1, 122849, Control_c, 0, 64, 78
1, 122864, Control_c, 0, 64, 80
1, 122878, Control_c, 0, 64, 82
1, 122893, Control_c, 0, 64, 85
1, 122908, Control_c, 0, 64, 87
1, 122920, Note_off_c, 0, 70, 37
1, 122923, Control_c, 0, 64, 88
1, 122930, Note_on_c, 0, 77, 63
1, 122938, Control_c, 0, 64, 89
1, 122953, Control_c, 0, 64, 90
1, 122968, Control_c, 0, 64, 91
1, 122983, Control_c, 0, 64, 92
1, 122996, Note_off_c, 0, 67, 38
1, 122998, Control_c, 0, 64, 93
1, 123035, Control_c, 0, 64, 93
1, 123050, Note_on_c, 0, 71, 58
1, 123064, Control_c, 0, 64, 94
1, 123079, Control_c, 0, 64, 94
1, 123094, Control_c, 0, 64, 95
1, 123109, Control_c, 0, 64, 95
1, 123138, Control_c, 0, 64, 96
1, 123143, Note_off_c, 0, 77, 33
1, 123168, Control_c, 0, 64, 96
1, 123182, Note_off_c, 0, 71, 54
1, 123183, Note_on_c, 0, 67, 58
1, 123286, Note_on_c, 0, 60, 58
1, 123287, Control_c, 0, 64, 95
1, 123293, Note_off_c, 0, 61, 55
1, 123296, Note_on_c, 0, 77, 63
1, 123301, Control_c, 0, 64, 88
1, 123316, Control_c, 0, 64, 78
1, 123320, Note_off_c, 0, 67, 33
1, 123330, Control_c, 0, 64, 64
1, 123345, Control_c, 0, 64, 0
1, 123421, Control_c, 0, 64, 42
1, 123426, Note_on_c, 0, 72, 61
1, 123435, Control_c, 0, 64, 64
1, 123450, Control_c, 0, 64, 68
1, 123458, Note_off_c, 0, 77, 61
1, 123465, Control_c, 0, 64, 71
1, 123480, Control_c, 0, 64, 75
1, 123495, Control_c, 0, 64, 79
1, 123509, Control_c, 0, 64, 82
1, 123518, Note_off_c, 0, 72, 65
1, 123524, Control_c, 0, 64, 84
1, 123539, Control_c, 0, 64, 86
1, 123552, Note_on_c, 0, 68, 52
1, 123553, Control_c, 0, 64, 88
1, 123568, Control_c, 0, 64, 89
1, 123583, Control_c, 0, 64, 89
1, 123598, Note_off_c, 0, 68, 52
1, 123627, Control_c, 0, 64, 89
1, 123642, Control_c, 0, 64, 86
1, 123652, Note_on_c, 0, 68, 48
1, 123657, Control_c, 0, 64, 82
1, 123672, Control_c, 0, 64, 76
1, 123686, Control_c, 0, 64, 71
1, 123701, Control_c, 0, 64, 68
1, 123716, Control_c, 0, 64, 69
1, 123731, Control_c, 0, 64, 71
1, 123746, Control_c, 0, 64, 74
1, 123761, Control_c, 0, 64, 76
1, 123783, Control_c, 0, 64, 78
1, 123796, Note_on_c, 0, 72, 62
1, 123798, Control_c, 0, 64, 79
1, 123813, Control_c, 0, 64, 80
1, 123827, Control_c, 0, 64, 82
1, 123842, Control_c, 0, 64, 83
1, 123857, Control_c, 0, 64, 84
1, 123872, Control_c, 0, 64, 84
1, 123886, Control_c, 0, 64, 85
1, 123901, Control_c, 0, 64, 85
1, 123908, Note_on_c, 0, 75, 55
1, 123944, Note_off_c, 0, 72, 58
1, 123990, Control_c, 0, 64, 83
1, 124003, Note_off_c, 0, 68, 38
1, 124005, Control_c, 0, 64, 78
1, 124020, Control_c, 0, 64, 72
1, 124031, Note_on_c, 0, 61, 57
1, 124035, Control_c, 0, 64, 66
1, 124038, Note_on_c, 0, 58, 60
1, 124049, Control_c, 0, 64, 58
1, 124056, Note_off_c, 0, 60, 58
1, 124064, Control_c, 0, 64, 44
1, 124078, Control_c, 0, 64, 26
1, 124093, Control_c, 0, 64, 0
1, 124108, Control_c, 0, 64, 16
1, 124123, Control_c, 0, 64, 31
1, 124138, Control_c, 0, 64, 44
1, 124152, Control_c, 0, 64, 54
1, 124160, Note_on_c, 0, 68, 58
1, 124163, Note_off_c, 0, 61, 58
1, 124167, Control_c, 0, 64, 62
1, 124182, Control_c, 0, 64, 66
1, 124197, Control_c, 0, 64, 71
1, 124213, Control_c, 0, 64, 75
1, 124228, Control_c, 0, 64, 79
1, 124243, Control_c, 0, 64, 81
1, 124257, Control_c, 0, 64, 83
1, 124271, Note_on_c, 0, 73, 56
1, 124272, Control_c, 0, 64, 84
1, 124287, Control_c, 0, 64, 86
1, 124301, Control_c, 0, 64, 87
1, 124375, Control_c, 0, 64, 86
1, 124376, Note_off_c, 0, 68, 56
1, 124390, Control_c, 0, 64, 82
1, 124403, Note_on_c, 0, 61, 65
1, 124404, Note_on_c, 0, 65, 57
1, 124405, Control_c, 0, 64, 76
1, 124420, Control_c, 0, 64, 69
1, 124435, Control_c, 0, 64, 62
1, 124449, Control_c, 0, 64, 51
1, 124464, Control_c, 0, 64, 47
1, 124479, Control_c, 0, 64, 47
1, 124494, Control_c, 0, 64, 50
1, 124509, Control_c, 0, 64, 56
1, 124529, Note_on_c, 0, 68, 52
1, 124531, Control_c, 0, 64, 61
1, 124546, Control_c, 0, 64, 64
1, 124561, Control_c, 0, 64, 67
1, 124575, Note_off_c, 0, 58, 59
1, 124576, Control_c, 0, 64, 72
1, 124590, Control_c, 0, 64, 76
1, 124593, Note_off_c, 0, 65, 33
1, 124595, Note_off_c, 0, 73, 29
1, 124605, Control_c, 0, 64, 79
1, 124620, Control_c, 0, 64, 80
1, 124625, Note_off_c, 0, 75, 50
1, 124635, Control_c, 0, 64, 81
1, 124650, Control_c, 0, 64, 82
1, 124656, Note_on_c, 0, 70, 62
1, 124664, Control_c, 0, 64, 82
1, 124679, Control_c, 0, 64, 83
1, 124684, Note_off_c, 0, 68, 59
1, 124768, Control_c, 0, 64, 79
1, 124783, Control_c, 0, 64, 74
1, 124783, Note_on_c, 0, 60, 62
1, 124795, Note_off_c, 0, 61, 62
1, 124798, Control_c, 0, 64, 66
1, 124798, Note_on_c, 0, 63, 56
1, 124813, Control_c, 0, 64, 54
1, 124817, Note_off_c, 0, 70, 48
1, 124828, Control_c, 0, 64, 30
1, 124843, Control_c, 0, 64, 18
1, 124857, Control_c, 0, 64, 14
1, 124872, Control_c, 0, 64, 18
1, 124887, Control_c, 0, 64, 30
1, 124901, Control_c, 0, 64, 43
1, 124911, Note_on_c, 0, 68, 60
1, 124916, Control_c, 0, 64, 57
1, 124931, Control_c, 0, 64, 64
1, 124946, Control_c, 0, 64, 69
1, 124961, Control_c, 0, 64, 73
1, 124975, Control_c, 0, 64, 75
1, 124990, Control_c, 0, 64, 77
1, 125006, Control_c, 0, 64, 79
1, 125021, Control_c, 0, 64, 80
1, 125032, Note_on_c, 0, 72, 59
1, 125035, Note_off_c, 0, 68, 64
1, 125036, Control_c, 0, 64, 81
1, 125051, Control_c, 0, 64, 82
1, 125056, Note_off_c, 0, 63, 32
1, 125066, Control_c, 0, 64, 83
1, 125154, Control_c, 0, 64, 81
1, 125159, Note_off_c, 0, 72, 53
1, 125169, Control_c, 0, 64, 76
1, 125174, Note_on_c, 0, 58, 54
1, 125174, Note_on_c, 0, 67, 58
1, 125174, Note_off_c, 0, 60, 58
1, 125183, Note_on_c, 0, 51, 49
1, 125184, Control_c, 0, 64, 68
1, 125187, Note_on_c, 0, 63, 51
1, 125198, Control_c, 0, 64, 57
1, 125213, Control_c, 0, 64, 0
1, 125295, Control_c, 0, 64, 57
1, 125310, Control_c, 0, 64, 67
1, 125325, Control_c, 0, 64, 72
1, 125339, Control_c, 0, 64, 77
1, 125350, Note_on_c, 0, 75, 56
1, 125354, Control_c, 0, 64, 80
1, 125369, Control_c, 0, 64, 82
1, 125384, Control_c, 0, 64, 85
1, 125399, Control_c, 0, 64, 86
1, 125401, Note_off_c, 0, 58, 65
1, 125409, Note_off_c, 0, 67, 61
1, 125413, Control_c, 0, 64, 88
1, 125428, Control_c, 0, 64, 88
1, 125436, Note_off_c, 0, 51, 63
1, 125443, Control_c, 0, 64, 89
1, 125457, Control_c, 0, 64, 90
1, 125472, Control_c, 0, 64, 90
1, 125487, Control_c, 0, 64, 91
1, 125489, Note_on_c, 0, 73, 65
1, 125502, Control_c, 0, 64, 91
1, 125543, Note_off_c, 0, 63, 38
1, 125636, Control_c, 0, 64, 89
1, 125650, Control_c, 0, 64, 85
1, 125664, Note_off_c, 0, 75, 29
1, 125665, Control_c, 0, 64, 77
1, 125673, Note_on_c, 0, 51, 51
1, 125678, Note_on_c, 0, 72, 61
1, 125679, Note_on_c, 0, 56, 47
1, 125680, Control_c, 0, 64, 69
1, 125681, Note_on_c, 0, 63, 47
1, 125683, Note_on_c, 0, 44, 41
1, 125689, Note_off_c, 0, 73, 56
1, 125689, Note_on_c, 0, 68, 48
1, 125695, Control_c, 0, 64, 59
1, 125710, Control_c, 0, 64, 31
1, 125724, Control_c, 0, 64, 0
1, 125800, Note_off_c, 0, 63, 59
1, 125829, Control_c, 0, 64, 44
1, 125844, Control_c, 0, 64, 57
1, 125859, Control_c, 0, 64, 64
1, 125874, Control_c, 0, 64, 69
1, 125889, Control_c, 0, 64, 75
1, 125897, Note_off_c, 0, 68, 63
1, 125903, Control_c, 0, 64, 81
1, 125915, Note_on_c, 0, 63, 58
1, 125918, Control_c, 0, 64, 85
1, 125933, Control_c, 0, 64, 86
1, 125947, Control_c, 0, 64, 88
1, 125962, Control_c, 0, 64, 90
1, 125977, Control_c, 0, 64, 92
1, 125992, Control_c, 0, 64, 93
1, 126029, Control_c, 0, 64, 93
1, 126044, Note_on_c, 0, 68, 65
1, 126047, Note_off_c, 0, 72, 50
1, 126059, Control_c, 0, 64, 94
1, 126066, Note_off_c, 0, 56, 53
1, 126166, Note_on_c, 0, 72, 73
1, 126169, Note_off_c, 0, 44, 42
1, 126179, Note_off_c, 0, 68, 62
1, 126192, Note_off_c, 0, 51, 56
1, 126211, Note_off_c, 0, 63, 50
1, 126295, Control_c, 0, 64, 93
1, 126298, Note_on_c, 0, 68, 75
1, 126325, Control_c, 0, 64, 93
1, 126354, Note_off_c, 0, 72, 62
1, 126354, Control_c, 0, 64, 92
1, 126384, Control_c, 0, 64, 92
1, 126399, Control_c, 0, 64, 91
1, 126414, Control_c, 0, 64, 91
1, 126418, Note_on_c, 0, 63, 71
1, 126439, Note_off_c, 0, 68, 57
1, 126444, Control_c, 0, 64, 90
1, 126473, Control_c, 0, 64, 90
1, 126488, Control_c, 0, 64, 89
1, 126503, Control_c, 0, 64, 88
1, 126518, Control_c, 0, 64, 86
1, 126533, Control_c, 0, 64, 83
1, 126538, Note_on_c, 0, 75, 77
1, 126547, Control_c, 0, 64, 77
1, 126562, Control_c, 0, 64, 70
1, 126577, Control_c, 0, 64, 55
1, 126593, Control_c, 0, 64, 0
1, 126660, Note_on_c, 0, 72, 75
1, 126696, Control_c, 0, 64, 53
1, 126705, Note_off_c, 0, 63, 62
1, 126711, Control_c, 0, 64, 64
1, 126714, Note_off_c, 0, 75, 61
1, 126726, Control_c, 0, 64, 67
1, 126741, Control_c, 0, 64, 72
1, 126756, Control_c, 0, 64, 79
1, 126778, Control_c, 0, 64, 88
1, 126792, Note_on_c, 0, 68, 77
1, 126792, Control_c, 0, 64, 94
1, 126807, Control_c, 0, 64, 96
1, 126808, Note_off_c, 0, 72, 63
1, 126822, Control_c, 0, 64, 97
1, 126837, Control_c, 0, 64, 98
1, 126850, Note_off_c, 0, 68, 64
1, 126852, Control_c, 0, 64, 98
1, 126867, Control_c, 0, 64, 99
1, 126897, Control_c, 0, 64, 98
1, 126911, Control_c, 0, 64, 91
1, 126915, Note_on_c, 0, 56, 80
1, 126922, Note_on_c, 0, 44, 70
1, 126924, Note_on_c, 0, 68, 81
1, 126926, Control_c, 0, 64, 78
1, 126941, Control_c, 0, 64, 63
1, 126956, Control_c, 0, 64, 0
1, 127030, Control_c, 0, 64, 68
1, 127039, Note_on_c, 0, 72, 72
1, 127045, Control_c, 0, 64, 79
1, 127059, Control_c, 0, 64, 91
1, 127074, Control_c, 0, 64, 97
1, 127089, Control_c, 0, 64, 99
1, 127103, Control_c, 0, 64, 102
1, 127104, Note_off_c, 0, 44, 65
1, 127113, Note_off_c, 0, 56, 65
1, 127118, Control_c, 0, 64, 106
1, 127133, Control_c, 0, 64, 109
1, 127141, Note_off_c, 0, 68, 60
1, 127148, Control_c, 0, 64, 110
1, 127160, Note_on_c, 0, 75, 82
1, 127163, Control_c, 0, 64, 112
1, 127177, Control_c, 0, 64, 113
1, 127192, Control_c, 0, 64, 113
1, 127213, Note_on_c, 0, 60, 80
1, 127214, Note_on_c, 0, 48, 82
1, 127227, Note_off_c, 0, 75, 62
1, 127237, Note_off_c, 0, 48, 67
1, 127240, Note_off_c, 0, 60, 63
1, 127240, Note_off_c, 0, 72, 37
1, 127251, Control_c, 0, 64, 110
1, 127266, Control_c, 0, 64, 101
1, 127281, Control_c, 0, 64, 88
1, 127296, Control_c, 0, 64, 73
1, 127311, Control_c, 0, 64, 50
1, 127315, Note_on_c, 0, 63, 90
1, 127318, Note_on_c, 0, 75, 79
1, 127320, Note_on_c, 0, 51, 82
1, 127326, Control_c, 0, 64, 0
1, 127460, Control_c, 0, 64, 61
1, 127469, Note_on_c, 0, 70, 68
1, 127475, Control_c, 0, 64, 67
1, 127490, Control_c, 0, 64, 73
1, 127505, Control_c, 0, 64, 82
1, 127526, Control_c, 0, 64, 91
1, 127541, Control_c, 0, 64, 97
1, 127556, Control_c, 0, 64, 100
1, 127571, Control_c, 0, 64, 101
1, 127586, Control_c, 0, 64, 104
1, 127600, Control_c, 0, 64, 107
1, 127604, Note_on_c, 0, 67, 72
1, 127607, Note_off_c, 0, 63, 64
1, 127615, Note_off_c, 0, 70, 59
1, 127615, Control_c, 0, 64, 109
1, 127618, Note_off_c, 0, 51, 62
1, 127629, Note_off_c, 0, 75, 53
1, 127630, Control_c, 0, 64, 109
1, 127705, Control_c, 0, 64, 106
1, 127719, Control_c, 0, 64, 98
1, 127721, Note_on_c, 0, 63, 98
1, 127727, Note_on_c, 0, 51, 79
1, 127728, Note_on_c, 0, 75, 83
1, 127734, Control_c, 0, 64, 83
1, 127749, Control_c, 0, 64, 70
1, 127764, Control_c, 0, 64, 46
1, 127776, Note_off_c, 0, 67, 54
1, 127779, Control_c, 0, 64, 0
1, 127839, Control_c, 0, 64, 30
1, 127853, Control_c, 0, 64, 60
1, 127861, Note_on_c, 0, 70, 73
1, 127868, Control_c, 0, 64, 66
1, 127883, Control_c, 0, 64, 71
1, 127898, Control_c, 0, 64, 77
1, 127913, Control_c, 0, 64, 83
1, 127927, Control_c, 0, 64, 89
1, 127942, Control_c, 0, 64, 94
1, 127953, Note_off_c, 0, 75, 60
1, 127957, Control_c, 0, 64, 98
1, 127972, Control_c, 0, 64, 102
1, 127981, Note_on_c, 0, 67, 74
1, 127987, Control_c, 0, 64, 106
1, 128001, Control_c, 0, 64, 110
1, 128014, Note_off_c, 0, 51, 61
1, 128016, Control_c, 0, 64, 113
1, 128017, Note_off_c, 0, 63, 64
1, 128024, Note_off_c, 0, 70, 58
1, 128031, Control_c, 0, 64, 115
1, 128045, Control_c, 0, 64, 116
1, 128105, Control_c, 0, 64, 108
1, 128106, Note_on_c, 0, 75, 84
1, 128119, Note_on_c, 0, 63, 96
1, 128119, Control_c, 0, 64, 95
1, 128125, Note_on_c, 0, 51, 83
1, 128134, Control_c, 0, 64, 80
1, 128146, Note_off_c, 0, 67, 60
1, 128149, Control_c, 0, 64, 66
1, 128164, Control_c, 0, 64, 0
1, 128233, Note_on_c, 0, 71, 69
1, 128276, Control_c, 0, 64, 64
1, 128291, Control_c, 0, 64, 73
1, 128306, Control_c, 0, 64, 80
1, 128307, Note_off_c, 0, 75, 61
1, 128321, Control_c, 0, 64, 89
1, 128336, Control_c, 0, 64, 96
1, 128350, Control_c, 0, 64, 105
1, 128365, Control_c, 0, 64, 113
1, 128380, Control_c, 0, 64, 120
1, 128390, Note_on_c, 0, 68, 80
1, 128395, Control_c, 0, 64, 127
1, 128400, Note_off_c, 0, 71, 61
1, 128414, Note_off_c, 0, 51, 60
1, 128423, Note_off_c, 0, 63, 61
1, 128512, Note_on_c, 0, 63, 95
1, 128513, Control_c, 0, 64, 105
1, 128520, Note_on_c, 0, 51, 83
1, 128520, Note_on_c, 0, 70, 92
1, 128528, Control_c, 0, 64, 87
1, 128543, Control_c, 0, 64, 70
1, 128558, Control_c, 0, 64, 30
1, 128563, Note_off_c, 0, 68, 61
1, 128573, Control_c, 0, 64, 0
1, 128617, Control_c, 0, 64, 44
1, 128632, Control_c, 0, 64, 61
1, 128647, Control_c, 0, 64, 64
1, 128662, Control_c, 0, 64, 69
1, 128666, Note_on_c, 0, 75, 84
1, 128676, Control_c, 0, 64, 79
1, 128691, Control_c, 0, 64, 96
1, 128706, Control_c, 0, 64, 107
1, 128721, Control_c, 0, 64, 109
1, 128736, Control_c, 0, 64, 109
1, 128751, Control_c, 0, 64, 113
1, 128766, Control_c, 0, 64, 119
1, 128781, Control_c, 0, 64, 126
1, 128793, Note_off_c, 0, 70, 61
1, 128796, Control_c, 0, 64, 127
1, 128807, Note_on_c, 0, 79, 91
1, 128834, Note_off_c, 0, 75, 65
1, 128863, Note_off_c, 0, 63, 63
1, 128874, Note_off_c, 0, 51, 60
1, 129052, Note_on_c, 0, 80, 91
1, 129055, Control_c, 0, 64, 121
1, 129063, Note_on_c, 0, 64, 85
1, 129067, Note_on_c, 0, 52, 82
1, 129070, Control_c, 0, 64, 107
1, 129085, Control_c, 0, 64, 92
1, 129100, Control_c, 0, 64, 81
1, 129106, Note_off_c, 0, 79, 53
1, 129115, Control_c, 0, 64, 71
1, 129129, Control_c, 0, 64, 62
1, 129144, Control_c, 0, 64, 43
1, 129159, Control_c, 0, 64, 0
1, 129230, Note_on_c, 0, 75, 71
1, 129278, Control_c, 0, 64, 62
1, 129292, Control_c, 0, 64, 72
1, 129306, Control_c, 0, 64, 84
1, 129317, Note_off_c, 0, 80, 61
1, 129321, Control_c, 0, 64, 94
1, 129336, Control_c, 0, 64, 99
1, 129351, Control_c, 0, 64, 100
1, 129353, Note_on_c, 0, 68, 74
1, 129365, Control_c, 0, 64, 101
1, 129380, Control_c, 0, 64, 103
1, 129382, Note_off_c, 0, 75, 65
1, 129395, Control_c, 0, 64, 105
1, 129410, Control_c, 0, 64, 106
1, 129425, Control_c, 0, 64, 107
1, 129439, Control_c, 0, 64, 107
1, 129454, Control_c, 0, 64, 108
1, 129469, Note_on_c, 0, 80, 81
1, 129499, Control_c, 0, 64, 108
1, 129505, Note_off_c, 0, 52, 64
1, 129532, Note_off_c, 0, 68, 61
1, 129544, Note_off_c, 0, 64, 62
1, 129596, Note_on_c, 0, 73, 77
1, 129681, Note_off_c, 0, 80, 61
1, 129714, Note_on_c, 0, 70, 78
1, 129733, Note_off_c, 0, 73, 59
1, 129833, Control_c, 0, 64, 108
1, 129847, Note_on_c, 0, 80, 83
1, 129848, Note_on_c, 0, 63, 84
1, 129848, Control_c, 0, 64, 104
1, 129856, Note_on_c, 0, 51, 69
1, 129863, Control_c, 0, 64, 95
1, 129878, Control_c, 0, 64, 82
1, 129890, Note_off_c, 0, 70, 59
1, 129893, Control_c, 0, 64, 69
1, 129907, Control_c, 0, 64, 34
1, 129922, Control_c, 0, 64, 0
1, 129988, Note_on_c, 0, 75, 71
1, 130026, Control_c, 0, 64, 67
1, 130041, Control_c, 0, 64, 76
1, 130056, Note_off_c, 0, 80, 59
1, 130056, Control_c, 0, 64, 83
1, 130070, Control_c, 0, 64, 89
1, 130083, Note_off_c, 0, 75, 64
1, 130085, Control_c, 0, 64, 92
1, 130100, Control_c, 0, 64, 94
1, 130108, Note_on_c, 0, 71, 53
1, 130115, Control_c, 0, 64, 96
1, 130129, Control_c, 0, 64, 98
1, 130132, Note_off_c, 0, 71, 57
1, 130144, Control_c, 0, 64, 99
1, 130159, Control_c, 0, 64, 100
1, 130174, Control_c, 0, 64, 101
1, 130203, Control_c, 0, 64, 101
1, 130214, Note_on_c, 0, 71, 61
1, 130218, Control_c, 0, 64, 102
1, 130247, Note_off_c, 0, 63, 64
1, 130247, Control_c, 0, 64, 102
1, 130262, Control_c, 0, 64, 103
1, 130266, Note_off_c, 0, 51, 57
1, 130277, Control_c, 0, 64, 104
1, 130292, Control_c, 0, 64, 104
1, 130307, Control_c, 0, 64, 105
1, 130322, Control_c, 0, 64, 106
1, 130333, Note_on_c, 0, 75, 76
1, 130352, Control_c, 0, 64, 106
1, 130367, Control_c, 0, 64, 107
1, 130370, Note_off_c, 0, 71, 60
1, 130381, Control_c, 0, 64, 107
1, 130396, Control_c, 0, 64, 108
1, 130440, Control_c, 0, 64, 108
1, 130452, Note_on_c, 0, 78, 75
1, 130566, Control_c, 0, 64, 107
1, 130581, Control_c, 0, 64, 103
1, 130584, Note_on_c, 0, 61, 77
1, 130587, Note_on_c, 0, 76, 70
1, 130593, Note_on_c, 0, 49, 70
1, 130597, Control_c, 0, 64, 94
1, 130612, Control_c, 0, 64, 80
1, 130626, Control_c, 0, 64, 69
1, 130632, Note_off_c, 0, 78, 52
1, 130641, Control_c, 0, 64, 56
1, 130656, Control_c, 0, 64, 0
1, 130714, Note_on_c, 0, 71, 65
1, 130754, Note_off_c, 0, 75, 19
1, 130776, Note_off_c, 0, 76, 55
1, 130790, Control_c, 0, 64, 59
1, 130805, Control_c, 0, 64, 67
1, 130819, Control_c, 0, 64, 72
1, 130820, Note_off_c, 0, 71, 62
1, 130832, Note_on_c, 0, 67, 66
1, 130834, Control_c, 0, 64, 78
1, 130849, Control_c, 0, 64, 81
1, 130864, Control_c, 0, 64, 83
1, 130878, Control_c, 0, 64, 84
1, 130893, Control_c, 0, 64, 86
1, 130908, Control_c, 0, 64, 89
1, 130923, Control_c, 0, 64, 91
1, 130938, Control_c, 0, 64, 93
1, 130952, Control_c, 0, 64, 95
1, 130957, Note_on_c, 0, 76, 70
1, 130967, Control_c, 0, 64, 96
1, 130982, Control_c, 0, 64, 97
1, 130997, Control_c, 0, 64, 98
1, 131012, Control_c, 0, 64, 99
1, 131026, Control_c, 0, 64, 99
1, 131041, Control_c, 0, 64, 100
1, 131048, Note_off_c, 0, 67, 49
1, 131070, Note_off_c, 0, 61, 62
1, 131070, Note_on_c, 0, 70, 68
1, 131085, Control_c, 0, 64, 100
1, 131105, Note_off_c, 0, 49, 61
1, 131140, Note_off_c, 0, 76, 53
1, 131174, Control_c, 0, 64, 101
1, 131191, Note_on_c, 0, 67, 59
1, 131204, Control_c, 0, 64, 101
1, 131227, Note_off_c, 0, 70, 53
1, 131234, Control_c, 0, 64, 102
1, 131300, Control_c, 0, 64, 101
1, 131303, Note_on_c, 0, 76, 68
1, 131314, Note_on_c, 0, 59, 68
1, 131315, Control_c, 0, 64, 97
1, 131330, Control_c, 0, 64, 88
1, 131333, Note_on_c, 0, 47, 63
1, 131342, Note_on_c, 0, 46, 55
1, 131344, Control_c, 0, 64, 76
1, 131359, Control_c, 0, 64, 63
1, 131373, Note_off_c, 0, 67, 53
1, 131374, Control_c, 0, 64, 0
1, 131378, Note_off_c, 0, 46, 49
1, 131442, Note_on_c, 0, 71, 64
1, 131472, Note_off_c, 0, 76, 65
1, 131561, Note_off_c, 0, 71, 62
1, 131568, Note_on_c, 0, 68, 69
1, 131598, Control_c, 0, 64, 62
1, 131613, Control_c, 0, 64, 72
1, 131616, Note_off_c, 0, 68, 57
1, 131628, Control_c, 0, 64, 80
1, 131642, Control_c, 0, 64, 86
1, 131657, Control_c, 0, 64, 88
1, 131672, Control_c, 0, 64, 89
1, 131687, Control_c, 0, 64, 91
1, 131689, Note_on_c, 0, 68, 59
1, 131702, Control_c, 0, 64, 92
1, 131717, Control_c, 0, 64, 94
1, 131732, Control_c, 0, 64, 96
1, 131747, Control_c, 0, 64, 98
1, 131762, Control_c, 0, 64, 101
1, 131765, Note_off_c, 0, 47, 57
1, 131776, Control_c, 0, 64, 104
1, 131791, Control_c, 0, 64, 106
1, 131806, Control_c, 0, 64, 107
1, 131818, Note_on_c, 0, 71, 56
1, 131821, Control_c, 0, 64, 108
1, 131836, Control_c, 0, 64, 109
1, 131850, Control_c, 0, 64, 110
1, 131865, Control_c, 0, 64, 110
1, 131871, Note_on_c, 0, 58, 71
1, 131872, Note_off_c, 0, 68, 60
1, 131880, Control_c, 0, 64, 111
1, 131894, Control_c, 0, 64, 112
1, 131924, Control_c, 0, 64, 112
1, 131944, Note_off_c, 0, 59, 61
1, 131955, Note_off_c, 0, 71, 62
1, 131957, Note_on_c, 0, 75, 70
1, 131968, Control_c, 0, 64, 113
1, 131983, Control_c, 0, 64, 113
1, 131998, Control_c, 0, 64, 114
1, 132020, Control_c, 0, 64, 115
1, 132035, Control_c, 0, 64, 116
1, 132050, Control_c, 0, 64, 116
1, 132100, Note_off_c, 0, 58, 63
1, 132109, Control_c, 0, 64, 111
1, 132124, Control_c, 0, 64, 99
1, 132136, Note_on_c, 0, 52, 65
1, 132139, Control_c, 0, 64, 81
1, 132142, Note_on_c, 0, 56, 70
1, 132142, Note_on_c, 0, 68, 65
1, 132154, Control_c, 0, 64, 65
1, 132168, Control_c, 0, 64, 0
1, 132233, Note_off_c, 0, 75, 40
1, 132267, Note_off_c, 0, 52, 66
1, 132273, Control_c, 0, 64, 67
1, 132282, Note_on_c, 0, 71, 64
1, 132288, Control_c, 0, 64, 77
1, 132303, Control_c, 0, 64, 88
1, 132317, Control_c, 0, 64, 95
1, 132332, Control_c, 0, 64, 98
1, 132347, Control_c, 0, 64, 100
1, 132362, Control_c, 0, 64, 101
1, 132377, Control_c, 0, 64, 102
1, 132380, Note_off_c, 0, 68, 35
1, 132391, Control_c, 0, 64, 103
1, 132397, Note_on_c, 0, 73, 66
1, 132415, Note_off_c, 0, 56, 64
1, 132418, Note_off_c, 0, 71, 59
1, 132465, Control_c, 0, 64, 104
1, 132489, Note_off_c, 0, 73, 51
1, 132533, Note_on_c, 0, 56, 65
1, 132591, Note_on_c, 0, 68, 61
1, 132593, Note_on_c, 0, 64, 77
1, 132614, Control_c, 0, 64, 103
1, 132739, Note_on_c, 0, 71, 62
1, 132769, Note_off_c, 0, 68, 55
1, 132769, Note_off_c, 0, 64, 65
1, 132869, Note_on_c, 0, 76, 64
1, 132993, Control_c, 0, 64, 102
1, 132993, Note_off_c, 0, 71, 34
1, 133008, Control_c, 0, 64, 96
1, 133010, Note_on_c, 0, 63, 65
1, 133014, Note_on_c, 0, 54, 51
1, 133017, Note_on_c, 0, 66, 64
1, 133022, Control_c, 0, 64, 87
1, 133037, Control_c, 0, 64, 76
1, 133052, Control_c, 0, 64, 66
1, 133060, Note_off_c, 0, 56, 63
1, 133066, Control_c, 0, 64, 37
1, 133081, Control_c, 0, 64, 0
1, 133126, Control_c, 0, 64, 34
1, 133140, Control_c, 0, 64, 60
1, 133143, Note_on_c, 0, 71, 59
1, 133151, Note_off_c, 0, 76, 59
1, 133155, Control_c, 0, 64, 66
1, 133170, Control_c, 0, 64, 70
1, 133185, Control_c, 0, 64, 76
1, 133200, Control_c, 0, 64, 81
1, 133214, Control_c, 0, 64, 85
1, 133229, Control_c, 0, 64, 88
1, 133244, Control_c, 0, 64, 89
1, 133258, Control_c, 0, 64, 90
1, 133273, Control_c, 0, 64, 92
1, 133282, Note_off_c, 0, 54, 38
1, 133282, Note_on_c, 0, 75, 61
1, 133282, Note_off_c, 0, 66, 36
1, 133288, Control_c, 0, 64, 93
1, 133294, Note_off_c, 0, 71, 61
1, 133303, Control_c, 0, 64, 94
1, 133318, Control_c, 0, 64, 94
1, 133326, Note_off_c, 0, 63, 64
1, 133333, Control_c, 0, 64, 95
1, 133362, Control_c, 0, 64, 94
1, 133377, Control_c, 0, 64, 90
1, 133392, Control_c, 0, 64, 81
1, 133400, Note_on_c, 0, 61, 63
1, 133407, Control_c, 0, 64, 70
1, 133408, Note_on_c, 0, 70, 62
1, 133414, Note_on_c, 0, 54, 48
1, 133422, Control_c, 0, 64, 58
1, 133425, Note_on_c, 0, 66, 56
1, 133434, Note_off_c, 0, 75, 55
1, 133437, Control_c, 0, 64, 0
1, 133481, Control_c, 0, 64, 43
1, 133496, Control_c, 0, 64, 62
1, 133518, Control_c, 0, 64, 67
1, 133533, Control_c, 0, 64, 71
1, 133547, Control_c, 0, 64, 77
1, 133562, Control_c, 0, 64, 82
1, 133568, Note_on_c, 0, 78, 64
1, 133577, Control_c, 0, 64, 86
1, 133592, Control_c, 0, 64, 87
1, 133606, Note_off_c, 0, 61, 63
1, 133607, Control_c, 0, 64, 88
1, 133622, Control_c, 0, 64, 89
1, 133628, Note_off_c, 0, 70, 52
1, 133631, Note_off_c, 0, 54, 62
1, 133637, Control_c, 0, 64, 90
1, 133651, Control_c, 0, 64, 91
1, 133666, Control_c, 0, 64, 93
1, 133681, Control_c, 0, 64, 94
1, 133696, Control_c, 0, 64, 94
1, 133711, Control_c, 0, 64, 95
1, 133715, Note_on_c, 0, 76, 66
1, 133723, Note_off_c, 0, 66, 56
1, 133740, Control_c, 0, 64, 95
1, 133755, Control_c, 0, 64, 96
1, 133784, Control_c, 0, 64, 96
1, 133859, Control_c, 0, 64, 95
1, 133869, Note_off_c, 0, 78, 27
1, 133874, Control_c, 0, 64, 90
1, 133888, Control_c, 0, 64, 81
1, 133903, Control_c, 0, 64, 71
1, 133905, Note_on_c, 0, 47, 48
1, 133906, Note_on_c, 0, 59, 47
1, 133910, Note_on_c, 0, 54, 44
1, 133911, Note_off_c, 0, 76, 62
1, 133913, Note_on_c, 0, 75, 64
1, 133918, Control_c, 0, 64, 61
1, 133923, Note_on_c, 0, 66, 48
1, 133933, Control_c, 0, 64, 11
1, 133948, Control_c, 0, 64, 0
1, 133950, Note_on_c, 0, 71, 27
1, 134021, Note_off_c, 0, 66, 64
1, 134036, Control_c, 0, 64, 46
1, 134051, Control_c, 0, 64, 70
1, 134066, Control_c, 0, 64, 77
1, 134081, Control_c, 0, 64, 84
1, 134096, Control_c, 0, 64, 86
1, 134111, Control_c, 0, 64, 87
1, 134123, Note_off_c, 0, 71, 42
1, 134125, Control_c, 0, 64, 88
1, 134140, Control_c, 0, 64, 89
1, 134146, Note_on_c, 0, 63, 52
1, 134155, Control_c, 0, 64, 90
1, 134170, Control_c, 0, 64, 91
1, 134229, Control_c, 0, 64, 91
1, 134301, Note_on_c, 0, 66, 61
1, 134339, Note_off_c, 0, 63, 38
1, 134372, Note_off_c, 0, 59, 32
1, 134418, Note_on_c, 0, 71, 58
1, 134433, Note_off_c, 0, 75, 54
1, 134435, Note_off_c, 0, 66, 64
1, 134546, Note_on_c, 0, 66, 72
1, 134636, Note_off_c, 0, 47, 42
1, 134650, Note_off_c, 0, 66, 63
1, 134653, Control_c, 0, 64, 91
1, 134656, Note_on_c, 0, 63, 67
1, 134656, Note_off_c, 0, 71, 36
1, 134686, Note_off_c, 0, 54, 47
1, 134711, Control_c, 0, 64, 90
1, 134726, Control_c, 0, 64, 90
1, 134741, Control_c, 0, 64, 89
1, 134756, Control_c, 0, 64, 89
1, 134769, Note_on_c, 0, 75, 71
1, 134771, Control_c, 0, 64, 88
1, 134785, Control_c, 0, 64, 87
1, 134800, Control_c, 0, 64, 85
1, 134811, Note_off_c, 0, 63, 57
1, 134815, Control_c, 0, 64, 82
1, 134830, Control_c, 0, 64, 79
1, 134844, Control_c, 0, 64, 75
1, 134859, Control_c, 0, 64, 72
1, 134874, Control_c, 0, 64, 69
1, 134887, Note_on_c, 0, 71, 62
1, 134889, Control_c, 0, 64, 67
1, 134904, Control_c, 0, 64, 65
1, 134948, Control_c, 0, 64, 66
1, 134957, Note_off_c, 0, 75, 59
1, 134963, Control_c, 0, 64, 66
1, 134978, Control_c, 0, 64, 67
1, 134993, Control_c, 0, 64, 69
1, 135014, Note_on_c, 0, 66, 67
1, 135015, Control_c, 0, 64, 72
1, 135030, Control_c, 0, 64, 73
1, 135044, Note_off_c, 0, 71, 62
1, 135044, Control_c, 0, 64, 74
1, 135074, Control_c, 0, 64, 75
1, 135089, Control_c, 0, 64, 76
1, 135104, Control_c, 0, 64, 77
1, 135109, Note_off_c, 0, 66, 67
1, 135118, Control_c, 0, 64, 78
1, 135133, Control_c, 0, 64, 79
1, 135148, Control_c, 0, 64, 79
1, 135150, Note_on_c, 0, 71, 60
1, 135163, Control_c, 0, 64, 80
1, 135178, Control_c, 0, 64, 80
1, 135193, Control_c, 0, 64, 81
1, 135208, Control_c, 0, 64, 82
1, 135267, Note_off_c, 0, 71, 59
1, 135269, Note_on_c, 0, 75, 66
1, 135393, Note_on_c, 0, 78, 74
1, 135438, Note_off_c, 0, 75, 61
1, 135476, Control_c, 0, 64, 82
1, 135521, Note_off_c, 0, 78, 63
1, 135595, Control_c, 0, 64, 81
1, 135609, Control_c, 0, 64, 79
1, 135624, Control_c, 0, 64, 75
1, 135628, Note_on_c, 0, 47, 48
1, 135631, Note_on_c, 0, 78, 77
1, 135635, Note_on_c, 0, 66, 55
1, 135639, Control_c, 0, 64, 69
1, 135654, Control_c, 0, 64, 62
1, 135668, Control_c, 0, 64, 46
1, 135683, Control_c, 0, 64, 41
1, 135698, Control_c, 0, 64, 42
1, 135713, Control_c, 0, 64, 50
1, 135728, Control_c, 0, 64, 59
1, 135742, Control_c, 0, 64, 64
1, 135765, Control_c, 0, 64, 68
1, 135780, Control_c, 0, 64, 75
1, 135795, Control_c, 0, 64, 81
1, 135801, Note_on_c, 0, 51, 49
1, 135809, Control_c, 0, 64, 85
1, 135824, Control_c, 0, 64, 88
1, 135839, Control_c, 0, 64, 89
1, 135854, Control_c, 0, 64, 90
1, 135859, Note_off_c, 0, 66, 64
1, 135868, Control_c, 0, 64, 91
1, 135883, Control_c, 0, 64, 92
1, 135898, Control_c, 0, 64, 93
1, 135899, Note_off_c, 0, 78, 62
1, 135913, Control_c, 0, 64, 94
1, 135926, Note_off_c, 0, 47, 40
1, 135928, Control_c, 0, 64, 95
1, 135932, Note_on_c, 0, 54, 42
1, 135942, Control_c, 0, 64, 95
1, 135957, Control_c, 0, 64, 96
1, 135972, Control_c, 0, 64, 97
1, 136016, Note_off_c, 0, 54, 43
1, 136045, Control_c, 0, 64, 94
1, 136051, Note_on_c, 0, 47, 52
1, 136053, Note_on_c, 0, 78, 77
1, 136057, Note_off_c, 0, 51, 36
1, 136059, Note_on_c, 0, 66, 61
1, 136060, Control_c, 0, 64, 87
1, 136075, Control_c, 0, 64, 78
1, 136090, Control_c, 0, 64, 69
1, 136105, Control_c, 0, 64, 60
1, 136120, Control_c, 0, 64, 50
1, 136134, Control_c, 0, 64, 52
1, 136149, Control_c, 0, 64, 61
1, 136164, Control_c, 0, 64, 65
1, 136179, Control_c, 0, 64, 69
1, 136185, Note_on_c, 0, 51, 44
1, 136194, Control_c, 0, 64, 73
1, 136209, Control_c, 0, 64, 79
1, 136224, Control_c, 0, 64, 84
1, 136236, Note_off_c, 0, 47, 62
1, 136239, Control_c, 0, 64, 88
1, 136254, Control_c, 0, 64, 89
1, 136269, Control_c, 0, 64, 91
1, 136283, Control_c, 0, 64, 92
1, 136297, Note_off_c, 0, 66, 62
1, 136298, Control_c, 0, 64, 94
1, 136303, Note_on_c, 0, 54, 48
1, 136313, Control_c, 0, 64, 96
1, 136328, Control_c, 0, 64, 98
1, 136343, Control_c, 0, 64, 100
1, 136354, Note_off_c, 0, 51, 50
1, 136357, Control_c, 0, 64, 102
1, 136372, Control_c, 0, 64, 103
1, 136387, Control_c, 0, 64, 103
1, 136417, Control_c, 0, 64, 103
1, 136427, Note_off_c, 0, 54, 55
1, 136431, Control_c, 0, 64, 97
1, 136436, Note_on_c, 0, 79, 77
1, 136441, Note_on_c, 0, 46, 62
1, 136446, Control_c, 0, 64, 87
1, 136449, Note_on_c, 0, 67, 56
1, 136461, Control_c, 0, 64, 74
1, 136476, Control_c, 0, 64, 63
1, 136480, Note_off_c, 0, 78, 63
1, 136490, Control_c, 0, 64, 0
1, 136558, Control_c, 0, 64, 58
1, 136572, Control_c, 0, 64, 67
1, 136576, Note_on_c, 0, 49, 58
1, 136587, Control_c, 0, 64, 73
1, 136602, Control_c, 0, 64, 79
1, 136616, Control_c, 0, 64, 84
1, 136631, Control_c, 0, 64, 87
1, 136646, Control_c, 0, 64, 89
1, 136658, Note_off_c, 0, 46, 34
1, 136661, Control_c, 0, 64, 90
1, 136674, Note_off_c, 0, 67, 62
1, 136676, Control_c, 0, 64, 92
1, 136690, Control_c, 0, 64, 93
1, 136692, Note_on_c, 0, 51, 58
1, 136705, Control_c, 0, 64, 94
1, 136720, Control_c, 0, 64, 96
1, 136735, Control_c, 0, 64, 98
1, 136750, Control_c, 0, 64, 98
1, 136794, Control_c, 0, 64, 98
1, 136808, Control_c, 0, 64, 93
1, 136817, Note_on_c, 0, 80, 82
1, 136819, Note_on_c, 0, 44, 60
1, 136819, Note_off_c, 0, 49, 34
1, 136823, Control_c, 0, 64, 82
1, 136835, Note_on_c, 0, 68, 50
1, 136838, Control_c, 0, 64, 71
1, 136843, Note_off_c, 0, 51, 46
1, 136853, Control_c, 0, 64, 62
1, 136864, Note_off_c, 0, 68, 0
1, 136864, Note_on_c, 0, 68, 19
1, 136868, Control_c, 0, 64, 48
1, 136883, Control_c, 0, 64, 46
1, 136898, Control_c, 0, 64, 51
1, 136912, Note_off_c, 0, 79, 57
1, 136913, Control_c, 0, 64, 59
1, 136927, Control_c, 0, 64, 63
1, 136942, Control_c, 0, 64, 67
1, 136957, Control_c, 0, 64, 71
1, 136958, Note_on_c, 0, 49, 47
1, 136972, Control_c, 0, 64, 76
1, 136987, Control_c, 0, 64, 81
1, 137002, Control_c, 0, 64, 85
1, 137017, Control_c, 0, 64, 88
1, 137018, Note_off_c, 0, 44, 62
1, 137032, Control_c, 0, 64, 89
1, 137047, Control_c, 0, 64, 91
1, 137062, Control_c, 0, 64, 91
1, 137069, Note_off_c, 0, 68, 58
1, 137075, Note_on_c, 0, 51, 53
1, 137077, Control_c, 0, 64, 92
1, 137091, Control_c, 0, 64, 92
1, 137121, Control_c, 0, 64, 93
1, 137151, Control_c, 0, 64, 94
1, 137195, Control_c, 0, 64, 93
1, 137210, Control_c, 0, 64, 91
1, 137218, Note_on_c, 0, 43, 50
1, 137223, Note_on_c, 0, 82, 79
1, 137225, Control_c, 0, 64, 86
1, 137226, Note_off_c, 0, 49, 39
1, 137236, Note_on_c, 0, 70, 60
1, 137238, Note_off_c, 0, 80, 63
1, 137239, Control_c, 0, 64, 78
1, 137261, Control_c, 0, 64, 70
1, 137276, Note_off_c, 0, 51, 28
1, 137276, Control_c, 0, 64, 64
1, 137291, Control_c, 0, 64, 61
1, 137306, Control_c, 0, 64, 61
1, 137321, Control_c, 0, 64, 63
1, 137336, Control_c, 0, 64, 64
1, 137351, Control_c, 0, 64, 68
1, 137357, Note_on_c, 0, 49, 42
1, 137366, Control_c, 0, 64, 73
1, 137381, Control_c, 0, 64, 79
1, 137395, Control_c, 0, 64, 84
1, 137410, Control_c, 0, 64, 86
1, 137418, Note_off_c, 0, 70, 56
1, 137425, Control_c, 0, 64, 87
1, 137439, Control_c, 0, 64, 88
1, 137454, Control_c, 0, 64, 90
1, 137469, Control_c, 0, 64, 92
1, 137484, Control_c, 0, 64, 93
1, 137493, Note_on_c, 0, 51, 46
1, 137495, Note_off_c, 0, 43, 37
1, 137499, Control_c, 0, 64, 93
1, 137528, Control_c, 0, 64, 94
1, 137543, Control_c, 0, 64, 95
1, 137558, Control_c, 0, 64, 96
1, 137573, Control_c, 0, 64, 97
1, 137587, Control_c, 0, 64, 97
1, 137609, Note_off_c, 0, 49, 33
1, 137627, Note_off_c, 0, 51, 29
1, 137637, Note_on_c, 0, 85, 69
1, 137640, Note_on_c, 0, 73, 51
1, 137646, Control_c, 0, 64, 96
1, 137651, Note_on_c, 0, 43, 45
1, 137661, Control_c, 0, 64, 92
1, 137676, Control_c, 0, 64, 85
1, 137684, Note_off_c, 0, 73, 0
1, 137684, Note_on_c, 0, 73, 13
1, 137691, Control_c, 0, 64, 76
1, 137706, Control_c, 0, 64, 69
1, 137720, Control_c, 0, 64, 65
1, 137735, Control_c, 0, 64, 66
1, 137750, Control_c, 0, 64, 70
1, 137765, Control_c, 0, 64, 76
1, 137781, Control_c, 0, 64, 81
1, 137783, Note_on_c, 0, 46, 45
1, 137791, Note_off_c, 0, 73, 54
1, 137796, Control_c, 0, 64, 83
1, 137810, Control_c, 0, 64, 85
1, 137825, Control_c, 0, 64, 87
1, 137836, Note_off_c, 0, 85, 64
1, 137840, Control_c, 0, 64, 90
1, 137855, Control_c, 0, 64, 92
1, 137868, Note_off_c, 0, 43, 41
1, 137869, Control_c, 0, 64, 93
1, 137884, Control_c, 0, 64, 93
1, 137899, Note_on_c, 0, 51, 45
1, 137904, Note_off_c, 0, 46, 36
1, 137914, Control_c, 0, 64, 94
1, 137929, Control_c, 0, 64, 94
1, 138010, Control_c, 0, 64, 94
1, 138025, Control_c, 0, 64, 89
1, 138030, Note_on_c, 0, 44, 51
1, 138040, Control_c, 0, 64, 81
1, 138044, Note_on_c, 0, 83, 56
1, 138048, Note_off_c, 0, 51, 33
1, 138055, Control_c, 0, 64, 71
1, 138058, Note_on_c, 0, 71, 42
1, 138069, Control_c, 0, 64, 58
1, 138070, Note_off_c, 0, 82, 57
1, 138084, Control_c, 0, 64, 0
1, 138144, Control_c, 0, 64, 49
1, 138153, Note_off_c, 0, 44, 57
1, 138159, Control_c, 0, 64, 65
1, 138168, Note_on_c, 0, 47, 45
1, 138174, Control_c, 0, 64, 71
1, 138188, Control_c, 0, 64, 77
1, 138200, Note_off_c, 0, 71, 62
1, 138203, Control_c, 0, 64, 81
1, 138218, Control_c, 0, 64, 84
1, 138233, Control_c, 0, 64, 86
1, 138246, Note_off_c, 0, 47, 61
1, 138248, Control_c, 0, 64, 87
1, 138262, Control_c, 0, 64, 90
1, 138278, Control_c, 0, 64, 91
1, 138293, Control_c, 0, 64, 93
1, 138296, Note_on_c, 0, 51, 47
1, 138308, Control_c, 0, 64, 94
1, 138323, Control_c, 0, 64, 95
1, 138337, Control_c, 0, 64, 96
1, 138352, Control_c, 0, 64, 97
1, 138410, Note_off_c, 0, 51, 54
1, 138411, Control_c, 0, 64, 95
1, 138426, Control_c, 0, 64, 90
1, 138441, Control_c, 0, 64, 80
1, 138444, Note_on_c, 0, 82, 58
1, 138445, Note_on_c, 0, 49, 41
1, 138445, Note_off_c, 0, 83, 60
1, 138455, Control_c, 0, 64, 67
1, 138462, Note_on_c, 0, 70, 42
1, 138470, Control_c, 0, 64, 40
1, 138485, Control_c, 0, 64, 0
1, 138544, Control_c, 0, 64, 55
1, 138559, Control_c, 0, 64, 66
1, 138574, Control_c, 0, 64, 72
1, 138590, Control_c, 0, 64, 77
1, 138601, Note_off_c, 0, 70, 63
1, 138604, Note_on_c, 0, 52, 47
1, 138605, Control_c, 0, 64, 82
1, 138616, Note_off_c, 0, 49, 36
1, 138620, Control_c, 0, 64, 84
1, 138634, Control_c, 0, 64, 86
1, 138649, Control_c, 0, 64, 87
1, 138659, Note_off_c, 0, 52, 61
1, 138664, Control_c, 0, 64, 89
1, 138678, Control_c, 0, 64, 90
1, 138693, Control_c, 0, 64, 91
1, 138708, Control_c, 0, 64, 92
1, 138718, Note_on_c, 0, 58, 41
1, 138723, Control_c, 0, 64, 92
1, 138738, Control_c, 0, 64, 93
1, 138760, Control_c, 0, 64, 93
1, 138771, Note_off_c, 0, 82, 55
1, 138776, Note_on_c, 0, 80, 55
1, 138790, Control_c, 0, 64, 94
1, 138820, Note_on_c, 0, 68, 23
1, 138857, Note_off_c, 0, 68, 51
1, 138876, Note_off_c, 0, 58, 42
1, 138893, Control_c, 0, 64, 90
1, 138893, Control_c, 0, 67, 8
1, 138908, Control_c, 0, 64, 83
1, 138908, Control_c, 0, 67, 11
1, 138923, Control_c, 0, 64, 73
1, 138923, Control_c, 0, 67, 15
1, 138928, Note_off_c, 0, 80, 58
1, 138938, Note_on_c, 0, 51, 34
1, 138938, Note_on_c, 0, 79, 54
1, 138938, Control_c, 0, 64, 60
1, 138938, Control_c, 0, 67, 20
1, 138949, Note_on_c, 0, 67, 29
1, 138953, Control_c, 0, 64, 16
1, 138953, Control_c, 0, 67, 24
1, 138967, Control_c, 0, 64, 0
1, 138967, Control_c, 0, 67, 30
1, 138982, Control_c, 0, 67, 35
1, 138997, Control_c, 0, 67, 41
1, 139011, Control_c, 0, 64, 29
1, 139011, Control_c, 0, 67, 49
1, 139026, Control_c, 0, 64, 57
1, 139026, Control_c, 0, 67, 58
1, 139041, Control_c, 0, 64, 65
1, 139041, Control_c, 0, 67, 66
1, 139056, Control_c, 0, 64, 69
1, 139056, Control_c, 0, 67, 74
1, 139071, Control_c, 0, 64, 73
1, 139071, Control_c, 0, 67, 82
1, 139080, Note_on_c, 0, 58, 37
1, 139086, Control_c, 0, 64, 77
1, 139086, Control_c, 0, 67, 90
1, 139101, Control_c, 0, 64, 80
1, 139101, Control_c, 0, 67, 98
1, 139115, Control_c, 0, 64, 82
1, 139115, Control_c, 0, 67, 106
1, 139130, Control_c, 0, 64, 84
1, 139130, Control_c, 0, 67, 114
1, 139145, Control_c, 0, 64, 85
1, 139145, Control_c, 0, 67, 121
1, 139148, Note_off_c, 0, 79, 54
1, 139160, Control_c, 0, 64, 86
1, 139160, Control_c, 0, 67, 127
1, 139172, Note_off_c, 0, 67, 40
1, 139175, Control_c, 0, 64, 87
1, 139175, Control_c, 0, 67, 127
1, 139178, Note_off_c, 0, 51, 38
1, 139190, Control_c, 0, 64, 87
1, 139204, Control_c, 0, 64, 88
1, 139216, Note_on_c, 0, 61, 40
1, 139219, Control_c, 0, 64, 89
1, 139234, Control_c, 0, 64, 89
1, 139249, Control_c, 0, 64, 90
1, 139278, Control_c, 0, 64, 91
1, 139323, Control_c, 0, 64, 90
1, 139327, Note_off_c, 0, 58, 39
1, 139337, Note_off_c, 0, 61, 36
1, 139338, Control_c, 0, 64, 89
1, 139348, Note_on_c, 0, 51, 30
1, 139348, Note_on_c, 0, 79, 52
1, 139352, Control_c, 0, 64, 86
1, 139367, Control_c, 0, 64, 82
1, 139372, Note_on_c, 0, 67, 32
1, 139383, Control_c, 0, 64, 79
1, 139398, Control_c, 0, 64, 75
1, 139413, Control_c, 0, 64, 73
1, 139428, Control_c, 0, 64, 73
1, 139472, Control_c, 0, 64, 74
1, 139474, Note_on_c, 0, 58, 31
1, 139487, Control_c, 0, 64, 75
1, 139509, Control_c, 0, 64, 78
1, 139521, Note_off_c, 0, 67, 54
1, 139524, Note_off_c, 0, 51, 33
1, 139524, Control_c, 0, 64, 79
1, 139539, Control_c, 0, 64, 81
1, 139554, Control_c, 0, 64, 82
1, 139569, Control_c, 0, 64, 83
1, 139583, Control_c, 0, 64, 85
1, 139598, Control_c, 0, 64, 86
1, 139613, Control_c, 0, 64, 87
1, 139627, Control_c, 0, 64, 88
1, 139641, Note_on_c, 0, 61, 34
1, 139642, Control_c, 0, 64, 89
1, 139657, Control_c, 0, 64, 89
1, 139672, Control_c, 0, 64, 90
1, 139688, Note_off_c, 0, 61, 45
1, 139731, Control_c, 0, 64, 89
1, 139746, Control_c, 0, 64, 87
1, 139751, Note_off_c, 0, 58, 29
1, 139761, Control_c, 0, 64, 85
1, 139762, Note_on_c, 0, 80, 56
1, 139769, Note_on_c, 0, 68, 45
1, 139774, Control_c, 0, 64, 83
1, 139779, Note_on_c, 0, 51, 38
1, 139779, Note_off_c, 0, 79, 54
1, 139789, Control_c, 0, 64, 81
1, 139804, Control_c, 0, 64, 81
1, 139864, Control_c, 0, 64, 82
1, 139879, Control_c, 0, 64, 83
1, 139893, Control_c, 0, 64, 84
1, 139896, Note_off_c, 0, 68, 51
1, 139908, Control_c, 0, 64, 85
1, 139917, Note_on_c, 0, 58, 34
1, 139923, Control_c, 0, 64, 86
1, 139938, Control_c, 0, 64, 86
1, 139968, Control_c, 0, 64, 87
1, 139982, Control_c, 0, 64, 87
1, 139983, Note_off_c, 0, 80, 62
1, 139988, Note_off_c, 0, 51, 29
1, 139994, Note_on_c, 0, 79, 56
1, 139997, Control_c, 0, 64, 88
1, 140014, Note_on_c, 0, 67, 44
1, 140041, Control_c, 0, 64, 88
1, 140075, Note_off_c, 0, 67, 54
1, 140099, Note_on_c, 0, 61, 35
1, 140234, Note_on_c, 0, 77, 55
1, 140235, Note_off_c, 0, 79, 52
1, 140241, Note_off_c, 0, 58, 35
1, 140242, Note_off_c, 0, 61, 23
1, 140260, Note_on_c, 0, 51, 38
1, 140272, Note_on_c, 0, 65, 36
1, 140302, Control_c, 0, 64, 89
1, 140379, Note_off_c, 0, 65, 42
1, 140442, Note_on_c, 0, 58, 26
1, 140457, Note_off_c, 0, 51, 30
1, 140540, Note_on_c, 0, 79, 57
1, 140552, Note_off_c, 0, 77, 59
1, 140557, Note_on_c, 0, 67, 36
1, 140651, Note_on_c, 0, 61, 33
1, 140657, Note_off_c, 0, 67, 50
1, 140731, Note_off_c, 0, 61, 53
1, 140746, Note_off_c, 0, 58, 40
1, 140984, Control_c, 0, 64, 88
1, 141006, Control_c, 0, 64, 85
1, 141021, Control_c, 0, 64, 79
1, 141035, Control_c, 0, 64, 68
1, 141050, Control_c, 0, 64, 54
1, 141054, Note_on_c, 0, 44, 36
1, 141055, Note_on_c, 0, 80, 54
1, 141056, Note_on_c, 0, 68, 41
1, 141065, Control_c, 0, 64, 0
1, 141080, Note_off_c, 0, 79, 60
1, 141104, Note_off_c, 0, 68, 0
1, 141104, Note_on_c, 0, 68, 9
1, 141199, Control_c, 0, 64, 61
1, 141214, Control_c, 0, 64, 69
1, 141228, Control_c, 0, 64, 76
1, 141243, Control_c, 0, 64, 82
1, 141258, Control_c, 0, 64, 87
1, 141274, Control_c, 0, 64, 91
1, 141284, Note_off_c, 0, 44, 56
1, 141288, Control_c, 0, 64, 93
1, 141303, Control_c, 0, 64, 95
1, 141318, Control_c, 0, 64, 97
1, 141333, Control_c, 0, 64, 99
1, 141348, Control_c, 0, 64, 100
1, 141362, Control_c, 0, 64, 101
1, 141377, Control_c, 0, 64, 101
1, 141392, Control_c, 0, 64, 102
1, 141436, Control_c, 0, 64, 102
1, 141441, Note_off_c, 0, 68, 42
1, 141610, Note_on_c, 0, 51, 27
1, 141634, Note_on_c, 0, 60, 5
1, 141639, Note_on_c, 0, 56, 18
1, 141689, Note_off_c, 0, 56, 45
1, 141691, Note_off_c, 0, 51, 37
1, 141697, Note_off_c, 0, 60, 42
1, 141715, Note_off_c, 0, 80, 48
1, 141861, Note_on_c, 0, 60, 30
1, 141866, Note_on_c, 0, 51, 27
1, 141870, Note_on_c, 0, 56, 28
1, 141939, Note_off_c, 0, 51, 40
1, 141941, Note_off_c, 0, 56, 38
1, 141969, Note_off_c, 0, 60, 35
1, 142064, Note_on_c, 0, 60, 31
1, 142081, Note_on_c, 0, 51, 25
1, 142084, Note_on_c, 0, 56, 35
1, 142126, Note_off_c, 0, 51, 47
1, 142127, Note_off_c, 0, 56, 47
1, 142144, Note_off_c, 0, 60, 40
1, 142241, Note_on_c, 0, 60, 40
1, 142247, Note_on_c, 0, 56, 46
1, 142249, Note_on_c, 0, 51, 39
1, 142282, Note_off_c, 0, 56, 57
1, 142287, Note_off_c, 0, 51, 50
1, 142290, Note_off_c, 0, 60, 53
1, 142403, Note_on_c, 0, 51, 35
1, 142407, Note_on_c, 0, 56, 43
1, 142412, Note_on_c, 0, 60, 37
1, 142446, Note_off_c, 0, 56, 52
1, 142449, Note_off_c, 0, 51, 46
1, 142454, Note_off_c, 0, 60, 48
1, 142578, Note_on_c, 0, 73, 65
1, 142582, Note_on_c, 0, 60, 42
1, 142592, Note_on_c, 0, 56, 39
1, 142604, Note_on_c, 0, 51, 18
1, 142630, Note_off_c, 0, 60, 44
1, 142631, Note_off_c, 0, 56, 48
1, 142650, Note_off_c, 0, 51, 47
1, 142749, Note_on_c, 0, 51, 28
1, 142755, Note_on_c, 0, 60, 33
1, 142762, Note_on_c, 0, 56, 33
1, 142789, Note_off_c, 0, 60, 50
1, 142794, Note_off_c, 0, 56, 52
1, 142799, Note_off_c, 0, 51, 43
1, 142818, Note_on_c, 0, 72, 64
1, 142889, Note_on_c, 0, 60, 39
1, 142893, Note_on_c, 0, 51, 28
1, 142907, Note_on_c, 0, 56, 39
1, 142921, Note_off_c, 0, 60, 49
1, 142927, Note_off_c, 0, 73, 50
1, 142937, Note_off_c, 0, 56, 52
1, 142945, Note_off_c, 0, 51, 44
1, 143030, Note_on_c, 0, 71, 72
1, 143041, Note_on_c, 0, 51, 34
1, 143041, Note_on_c, 0, 60, 45
1, 143044, Note_on_c, 0, 56, 49
1, 143078, Note_off_c, 0, 56, 59
1, 143080, Note_off_c, 0, 60, 49
1, 143092, Note_off_c, 0, 51, 54
1, 143101, Note_off_c, 0, 72, 63
1, 143197, Note_on_c, 0, 60, 34
1, 143200, Note_on_c, 0, 51, 27
1, 143201, Note_on_c, 0, 56, 35
1, 143239, Note_off_c, 0, 60, 47
1, 143253, Note_off_c, 0, 56, 45
1, 143265, Note_on_c, 0, 72, 74
1, 143265, Note_off_c, 0, 51, 41
1, 143346, Note_on_c, 0, 51, 41
1, 143360, Note_off_c, 0, 71, 59
1, 143363, Note_on_c, 0, 60, 37
1, 143390, Note_off_c, 0, 60, 49
1, 143410, Note_off_c, 0, 51, 62
1, 143420, Note_off_c, 0, 72, 65
1, 143520, Control_c, 0, 64, 103
1, 143594, Control_c, 0, 64, 98
1, 143609, Control_c, 0, 64, 85
1, 143613, Note_on_c, 0, 37, 51
1, 143623, Control_c, 0, 64, 66
1, 143638, Control_c, 0, 64, 0
1, 143662, Note_on_c, 0, 72, 63
1, 143712, Control_c, 0, 64, 67
1, 143727, Control_c, 0, 64, 76
1, 143730, Note_off_c, 0, 37, 66
1, 143742, Control_c, 0, 64, 84
1, 143757, Control_c, 0, 64, 90
1, 143772, Control_c, 0, 64, 93
1, 143787, Control_c, 0, 64, 94
1, 143801, Control_c, 0, 64, 96
1, 143816, Control_c, 0, 64, 97
1, 143828, Note_on_c, 0, 77, 68
1, 143831, Control_c, 0, 64, 98
1, 143846, Control_c, 0, 64, 99
1, 143861, Control_c, 0, 64, 100
1, 143905, Control_c, 0, 64, 100
1, 143957, Note_on_c, 0, 60, 48
1, 143971, Note_on_c, 0, 53, 41
1, 143976, Note_on_c, 0, 49, 40
1, 144013, Note_off_c, 0, 60, 58
1, 144028, Note_off_c, 0, 53, 52
1, 144080, Note_off_c, 0, 49, 0
1, 144098, Note_on_c, 0, 49, 21
1, 144106, Note_on_c, 0, 53, 40
1, 144116, Note_on_c, 0, 60, 17
1, 144147, Note_off_c, 0, 49, 50
1, 144150, Note_off_c, 0, 60, 41
1, 144153, Note_off_c, 0, 53, 59
1, 144216, Note_off_c, 0, 72, 58
1, 144244, Note_on_c, 0, 53, 45
1, 144255, Note_on_c, 0, 57, 44
1, 144265, Note_on_c, 0, 49, 23
1, 144286, Note_off_c, 0, 57, 53
1, 144292, Note_off_c, 0, 53, 59
1, 144309, Note_off_c, 0, 49, 47
1, 144362, Note_on_c, 0, 57, 52
1, 144393, Note_on_c, 0, 49, 26
1, 144402, Note_on_c, 0, 53, 20
1, 144421, Note_off_c, 0, 57, 53
1, 144439, Note_off_c, 0, 53, 47
1, 144451, Note_off_c, 0, 49, 41
1, 144499, Note_on_c, 0, 57, 47
1, 144529, Note_on_c, 0, 53, 43
1, 144529, Note_on_c, 0, 49, 8
1, 144552, Note_off_c, 0, 57, 62
1, 144568, Note_off_c, 0, 53, 50
1, 144571, Note_off_c, 0, 49, 49
1, 144653, Control_c, 0, 64, 99
1, 144660, Note_on_c, 0, 72, 64
1, 144667, Note_on_c, 0, 53, 36
1, 144668, Control_c, 0, 64, 89
1, 144678, Note_on_c, 0, 58, 45
1, 144683, Control_c, 0, 64, 77
1, 144684, Note_off_c, 0, 77, 56
1, 144684, Note_on_c, 0, 49, 44
1, 144697, Control_c, 0, 64, 66
1, 144707, Note_off_c, 0, 58, 54
1, 144712, Control_c, 0, 64, 49
1, 144717, Note_off_c, 0, 49, 50
1, 144720, Note_off_c, 0, 53, 53
1, 144727, Control_c, 0, 64, 31
1, 144749, Control_c, 0, 64, 36
1, 144764, Control_c, 0, 64, 54
1, 144779, Control_c, 0, 64, 63
1, 144794, Control_c, 0, 64, 67
1, 144804, Note_on_c, 0, 58, 56
1, 144809, Control_c, 0, 64, 72
1, 144815, Note_on_c, 0, 53, 35
1, 144818, Note_on_c, 0, 49, 33
1, 144823, Control_c, 0, 64, 76
1, 144838, Control_c, 0, 64, 79
1, 144841, Note_off_c, 0, 58, 55
1, 144853, Control_c, 0, 64, 81
1, 144854, Note_off_c, 0, 53, 52
1, 144858, Note_off_c, 0, 49, 48
1, 144868, Control_c, 0, 64, 83
1, 144883, Control_c, 0, 64, 86
1, 144897, Control_c, 0, 64, 88
1, 144901, Note_on_c, 0, 70, 71
1, 144912, Control_c, 0, 64, 90
1, 144927, Control_c, 0, 64, 92
1, 144942, Control_c, 0, 64, 92
1, 144946, Note_on_c, 0, 58, 50
1, 144954, Note_on_c, 0, 53, 52
1, 144956, Control_c, 0, 64, 93
1, 144973, Control_c, 0, 64, 94
1, 144980, Note_off_c, 0, 72, 63
1, 144985, Note_off_c, 0, 58, 51
1, 144988, Control_c, 0, 64, 96
1, 144993, Note_on_c, 0, 49, 14
1, 144997, Note_off_c, 0, 53, 60
1, 145002, Control_c, 0, 64, 96
1, 145018, Control_c, 0, 64, 97
1, 145043, Note_off_c, 0, 49, 37
1, 145047, Control_c, 0, 64, 97
1, 145062, Control_c, 0, 64, 98
1, 145077, Control_c, 0, 64, 98
1, 145095, Note_on_c, 0, 58, 43
1, 145095, Note_on_c, 0, 69, 65
1, 145098, Note_on_c, 0, 53, 47
1, 145106, Note_on_c, 0, 49, 25
1, 145121, Control_c, 0, 64, 99
1, 145137, Note_off_c, 0, 70, 62
1, 145148, Note_off_c, 0, 53, 62
1, 145148, Note_off_c, 0, 58, 51
1, 145176, Note_off_c, 0, 49, 40
1, 145235, Note_on_c, 0, 58, 50
1, 145247, Note_on_c, 0, 49, 23
1, 145254, Note_on_c, 0, 53, 40
1, 145254, Control_c, 0, 64, 99
1, 145289, Note_off_c, 0, 53, 53
1, 145291, Note_off_c, 0, 58, 56
1, 145301, Note_on_c, 0, 70, 67
1, 145356, Note_off_c, 0, 49, 0
1, 145373, Note_on_c, 0, 49, 28
1, 145376, Note_on_c, 0, 58, 52
1, 145407, Note_off_c, 0, 58, 65
1, 145434, Note_off_c, 0, 49, 61
1, 145435, Note_off_c, 0, 69, 55
1, 145438, Poly_aftertouch_c, 0, 53, 127
1, 145447, Control_c, 0, 64, 100
1, 145464, Poly_aftertouch_c, 0, 53, 0
1, 145499, Control_c, 0, 64, 100
1, 145512, Note_off_c, 0, 70, 57
1, 145528, Control_c, 0, 64, 101
1, 145617, Control_c, 0, 64, 97
1, 145632, Control_c, 0, 64, 86
1, 145641, Note_on_c, 0, 36, 48
1, 145647, Control_c, 0, 64, 74
1, 145662, Control_c, 0, 64, 62
1, 145676, Control_c, 0, 64, 0
1, 145696, Note_on_c, 0, 70, 56
1, 145736, Control_c, 0, 64, 49
1, 145751, Control_c, 0, 64, 67
1, 145766, Control_c, 0, 64, 74
1, 145770, Note_off_c, 0, 36, 64
1, 145781, Control_c, 0, 64, 80
1, 145796, Control_c, 0, 64, 84
1, 145811, Control_c, 0, 64, 86
1, 145825, Control_c, 0, 64, 89
1, 145840, Control_c, 0, 64, 91
1, 145846, Note_on_c, 0, 75, 61
1, 145855, Control_c, 0, 64, 92
1, 145870, Control_c, 0, 64, 93
1, 145885, Control_c, 0, 64, 94
1, 145900, Control_c, 0, 64, 95
1, 145915, Control_c, 0, 64, 95
1, 145944, Control_c, 0, 64, 96
1, 145951, Note_on_c, 0, 58, 39
1, 145963, Note_on_c, 0, 51, 36
1, 145980, Note_off_c, 0, 58, 53
1, 145985, Note_on_c, 0, 48, 14
1, 145989, Control_c, 0, 64, 96
1, 146003, Note_off_c, 0, 51, 46
1, 146033, Control_c, 0, 64, 97
1, 146051, Note_off_c, 0, 48, 0
1, 146051, Note_on_c, 0, 48, 10
1, 146060, Note_on_c, 0, 58, 49
1, 146066, Note_on_c, 0, 51, 44
1, 146101, Note_off_c, 0, 58, 58
1, 146107, Note_off_c, 0, 51, 59
1, 146177, Note_off_c, 0, 48, 0
1, 146180, Note_off_c, 0, 70, 37
1, 146204, Note_on_c, 0, 51, 52
1, 146208, Note_on_c, 0, 55, 47
1, 146214, Poly_aftertouch_c, 0, 48, 127
1, 146248, Note_off_c, 0, 55, 57
1, 146251, Note_off_c, 0, 51, 61
1, 146276, Poly_aftertouch_c, 0, 48, 0
1, 146344, Note_on_c, 0, 48, 41
1, 146350, Note_on_c, 0, 55, 41
1, 146362, Note_on_c, 0, 51, 38
1, 146380, Note_off_c, 0, 55, 52
1, 146395, Note_off_c, 0, 48, 53
1, 146404, Note_off_c, 0, 51, 41
1, 146467, Note_on_c, 0, 48, 34
1, 146472, Note_on_c, 0, 55, 49
1, 146495, Note_off_c, 0, 55, 60
1, 146532, Note_off_c, 0, 48, 47
1, 146589, Control_c, 0, 64, 95
1, 146604, Control_c, 0, 64, 88
1, 146606, Poly_aftertouch_c, 0, 51, 0
1, 146618, Note_on_c, 0, 48, 41
1, 146618, Note_on_c, 0, 56, 50
1, 146619, Control_c, 0, 64, 77
1, 146621, Note_on_c, 0, 51, 30
1, 146621, Note_on_c, 0, 73, 65
1, 146634, Control_c, 0, 64, 66
1, 146649, Control_c, 0, 64, 48
1, 146651, Note_off_c, 0, 56, 52
1, 146664, Control_c, 0, 64, 40
1, 146668, Note_off_c, 0, 51, 59
1, 146679, Control_c, 0, 64, 55
1, 146693, Note_off_c, 0, 75, 37
1, 146693, Control_c, 0, 64, 65
1, 146708, Control_c, 0, 64, 71
1, 146716, Note_off_c, 0, 48, 0
1, 146723, Control_c, 0, 64, 78
1, 146733, Note_on_c, 0, 48, 30
1, 146738, Control_c, 0, 64, 84
1, 146744, Note_on_c, 0, 56, 54
1, 146747, Note_on_c, 0, 51, 51
1, 146753, Control_c, 0, 64, 87
1, 146767, Control_c, 0, 64, 89
1, 146782, Control_c, 0, 64, 90
1, 146788, Note_off_c, 0, 56, 47
1, 146797, Control_c, 0, 64, 92
1, 146800, Note_off_c, 0, 51, 51
1, 146812, Control_c, 0, 64, 94
1, 146826, Note_on_c, 0, 72, 68
1, 146827, Control_c, 0, 64, 95
1, 146842, Control_c, 0, 64, 97
1, 146857, Control_c, 0, 64, 98
1, 146868, Note_off_c, 0, 73, 61
1, 146872, Control_c, 0, 64, 100
1, 146875, Note_off_c, 0, 48, 0
1, 146875, Note_on_c, 0, 48, 11
1, 146887, Control_c, 0, 64, 101
1, 146888, Note_on_c, 0, 51, 49
1, 146888, Note_on_c, 0, 56, 55
1, 146901, Control_c, 0, 64, 102
1, 146916, Control_c, 0, 64, 103
1, 146931, Control_c, 0, 64, 103
1, 146934, Note_off_c, 0, 56, 54
1, 146935, Note_off_c, 0, 51, 55
1, 146946, Control_c, 0, 64, 104
1, 146961, Control_c, 0, 64, 105
1, 146997, Control_c, 0, 64, 106
1, 147012, Control_c, 0, 64, 106
1, 147027, Control_c, 0, 64, 107
1, 147039, Note_off_c, 0, 48, 0
1, 147039, Note_on_c, 0, 48, 3
1, 147039, Note_on_c, 0, 56, 52
1, 147039, Note_on_c, 0, 70, 71
1, 147045, Note_on_c, 0, 51, 49
1, 147057, Control_c, 0, 64, 107
1, 147086, Control_c, 0, 64, 108
1, 147089, Note_off_c, 0, 51, 55
1, 147090, Note_off_c, 0, 56, 52
1, 147158, Note_on_c, 0, 56, 49
1, 147167, Note_on_c, 0, 51, 49
1, 147190, Control_c, 0, 64, 108
1, 147194, Note_off_c, 0, 72, 64
1, 147202, Note_off_c, 0, 56, 57
1, 147218, Note_off_c, 0, 51, 53
1, 147253, Note_on_c, 0, 68, 78
1, 147259, Note_off_c, 0, 48, 34
1, 147305, Note_on_c, 0, 48, 40
1, 147313, Note_on_c, 0, 56, 48
1, 147318, Note_off_c, 0, 70, 62
1, 147321, Note_on_c, 0, 51, 44
1, 147340, Note_off_c, 0, 56, 58
1, 147358, Note_off_c, 0, 51, 63
1, 147369, Note_off_c, 0, 48, 64
1, 147546, Control_c, 0, 64, 107
1, 147561, Control_c, 0, 64, 101
1, 147576, Control_c, 0, 64, 90
1, 147578, Note_on_c, 0, 75, 77
1, 147581, Note_on_c, 0, 37, 60
1, 147590, Note_on_c, 0, 67, 60
1, 147590, Control_c, 0, 64, 76
1, 147605, Control_c, 0, 64, 62
1, 147610, Note_off_c, 0, 68, 58
1, 147620, Control_c, 0, 64, 0
1, 147709, Control_c, 0, 64, 67
1, 147724, Control_c, 0, 64, 78
1, 147746, Control_c, 0, 64, 89
1, 147751, Note_off_c, 0, 37, 64
1, 147761, Control_c, 0, 64, 94
1, 147775, Control_c, 0, 64, 97
1, 147790, Control_c, 0, 64, 97
1, 147805, Control_c, 0, 64, 98
1, 147820, Note_on_c, 0, 53, 55
1, 147820, Control_c, 0, 64, 99
1, 147835, Note_on_c, 0, 49, 46
1, 147835, Control_c, 0, 64, 100
1, 147858, Note_off_c, 0, 67, 63
1, 147861, Note_off_c, 0, 53, 61
1, 147869, Note_on_c, 0, 73, 70
1, 147872, Note_off_c, 0, 49, 60
1, 147879, Control_c, 0, 64, 100
1, 147883, Note_on_c, 0, 65, 56
1, 147963, Note_on_c, 0, 53, 52
1, 147964, Note_off_c, 0, 75, 63
1, 147974, Note_on_c, 0, 49, 48
1, 147994, Note_off_c, 0, 53, 61
1, 148004, Note_off_c, 0, 73, 63
1, 148020, Note_off_c, 0, 49, 44
1, 148076, Note_on_c, 0, 72, 61
1, 148083, Note_on_c, 0, 63, 62
1, 148084, Note_on_c, 0, 49, 44
1, 148087, Note_on_c, 0, 53, 53
1, 148112, Note_off_c, 0, 65, 39
1, 148126, Note_off_c, 0, 53, 63
1, 148127, Note_off_c, 0, 49, 57
1, 148199, Note_off_c, 0, 63, 64
1, 148213, Note_on_c, 0, 53, 56
1, 148233, Note_on_c, 0, 49, 52
1, 148251, Note_off_c, 0, 53, 63
1, 148273, Note_off_c, 0, 49, 56
1, 148279, Note_on_c, 0, 70, 74
1, 148300, Note_on_c, 0, 61, 58
1, 148313, Note_off_c, 0, 72, 65
1, 148353, Note_on_c, 0, 53, 49
1, 148381, Note_on_c, 0, 49, 39
1, 148389, Note_off_c, 0, 53, 59
1, 148411, Note_off_c, 0, 61, 59
1, 148462, Note_off_c, 0, 49, 38
1, 148473, Control_c, 0, 64, 97
1, 148495, Control_c, 0, 64, 86
1, 148510, Control_c, 0, 64, 72
1, 148523, Note_on_c, 0, 68, 72
1, 148525, Control_c, 0, 64, 36
1, 148529, Note_on_c, 0, 39, 52
1, 148534, Note_on_c, 0, 60, 56
1, 148540, Note_off_c, 0, 70, 56
1, 148540, Control_c, 0, 64, 0
1, 148598, Control_c, 0, 64, 41
1, 148613, Control_c, 0, 64, 67
1, 148624, Note_off_c, 0, 39, 63
1, 148628, Control_c, 0, 64, 75
1, 148643, Control_c, 0, 64, 82
1, 148658, Control_c, 0, 64, 87
1, 148672, Control_c, 0, 64, 90
1, 148687, Control_c, 0, 64, 92
1, 148693, Note_off_c, 0, 60, 57
1, 148702, Control_c, 0, 64, 93
1, 148704, Note_on_c, 0, 56, 53
1, 148705, Note_on_c, 0, 51, 52
1, 148717, Control_c, 0, 64, 94
1, 148730, Note_off_c, 0, 56, 63
1, 148732, Control_c, 0, 64, 96
1, 148747, Control_c, 0, 64, 96
1, 148750, Note_off_c, 0, 51, 55
1, 148776, Control_c, 0, 64, 97
1, 148822, Note_on_c, 0, 56, 53
1, 148827, Note_on_c, 0, 51, 42
1, 148848, Note_off_c, 0, 56, 65
1, 148850, Control_c, 0, 64, 97
1, 148864, Control_c, 0, 64, 98
1, 148879, Control_c, 0, 64, 98
1, 148893, Note_off_c, 0, 51, 48
1, 148894, Control_c, 0, 64, 99
1, 148938, Control_c, 0, 64, 97
1, 148953, Control_c, 0, 64, 90
1, 148969, Control_c, 0, 64, 75
1, 148981, Note_on_c, 0, 72, 69
1, 148984, Control_c, 0, 64, 60
1, 148987, Note_on_c, 0, 63, 55
1, 148991, Note_on_c, 0, 39, 45
1, 148995, Note_off_c, 0, 68, 59
1, 148999, Control_c, 0, 64, 0
1, 149073, Control_c, 0, 64, 64
1, 149078, Note_off_c, 0, 39, 61
1, 149087, Control_c, 0, 64, 73
1, 149102, Control_c, 0, 64, 81
1, 149117, Control_c, 0, 64, 87
1, 149132, Control_c, 0, 64, 89
1, 149147, Control_c, 0, 64, 90
1, 149161, Note_on_c, 0, 51, 40
1, 149161, Control_c, 0, 64, 91
1, 149172, Note_on_c, 0, 55, 31
1, 149176, Control_c, 0, 64, 92
1, 149191, Control_c, 0, 64, 92
1, 149195, Note_off_c, 0, 63, 62
1, 149200, Note_off_c, 0, 51, 49
1, 149206, Note_off_c, 0, 55, 54
1, 149206, Control_c, 0, 64, 93
1, 149221, Control_c, 0, 64, 93
1, 149258, Control_c, 0, 64, 94
1, 149313, Note_on_c, 0, 51, 23
1, 149340, Poly_aftertouch_c, 0, 55, 127
1, 149349, Note_on_c, 0, 61, 49
1, 149349, Note_on_c, 0, 70, 59
1, 149355, Note_off_c, 0, 51, 46
1, 149376, Poly_aftertouch_c, 0, 55, 0
1, 149409, Note_off_c, 0, 72, 56
1, 149421, Note_off_c, 0, 61, 61
1, 149480, Control_c, 0, 64, 93
1, 149495, Control_c, 0, 64, 89
1, 149510, Control_c, 0, 64, 80
1, 149525, Control_c, 0, 64, 68
1, 149535, Note_off_c, 0, 70, 60
1, 149539, Note_on_c, 0, 44, 37
1, 149539, Control_c, 0, 64, 0
1, 149540, Note_on_c, 0, 68, 56
1, 149548, Note_on_c, 0, 60, 45
1, 149658, Control_c, 0, 64, 64
1, 149673, Control_c, 0, 64, 73
1, 149687, Control_c, 0, 64, 82
1, 149697, Note_off_c, 0, 44, 59
1, 149702, Control_c, 0, 64, 90
1, 149717, Control_c, 0, 64, 94
1, 149732, Control_c, 0, 64, 96
1, 149744, Note_off_c, 0, 60, 62
1, 149746, Control_c, 0, 64, 97
1, 149763, Control_c, 0, 64, 98
1, 149778, Control_c, 0, 64, 100
1, 149792, Control_c, 0, 64, 102
1, 149807, Control_c, 0, 64, 103
1, 149822, Control_c, 0, 64, 103
1, 149836, Control_c, 0, 64, 104
1, 149846, Note_off_c, 0, 68, 62
1, 149866, Control_c, 0, 64, 104
1, 149919, Note_on_c, 0, 60, 44
1, 149938, Note_on_c, 0, 56, 34
1, 149943, Note_on_c, 0, 51, 24
1, 149977, Note_off_c, 0, 60, 54
1, 149993, Note_off_c, 0, 56, 44
1, 149993, Note_off_c, 0, 51, 49
1, 150109, Note_on_c, 0, 51, 40
1, 150109, Note_on_c, 0, 60, 42
1, 150115, Note_on_c, 0, 56, 44
1, 150144, Note_off_c, 0, 60, 48
1, 150148, Note_off_c, 0, 56, 54
1, 150154, Note_off_c, 0, 51, 46
1, 150255, Note_on_c, 0, 60, 39
1, 150255, Note_on_c, 0, 56, 44
1, 150267, Note_on_c, 0, 51, 26
1, 150287, Note_off_c, 0, 60, 52
1, 150293, Note_off_c, 0, 56, 59
1, 150305, Note_off_c, 0, 51, 49
1, 150382, Note_on_c, 0, 51, 38
1, 150389, Note_on_c, 0, 60, 47
1, 150390, Note_on_c, 0, 56, 48
1, 150420, Note_off_c, 0, 60, 51
1, 150428, Note_off_c, 0, 56, 59
1, 150431, Note_off_c, 0, 51, 49
1, 150513, Note_on_c, 0, 56, 45
1, 150523, Note_on_c, 0, 60, 40
1, 150526, Note_on_c, 0, 51, 20
1, 150548, Note_off_c, 0, 60, 54
1, 150556, Note_off_c, 0, 56, 59
1, 150562, Note_off_c, 0, 51, 50
1, 150584, Control_c, 0, 64, 105
1, 150657, Note_on_c, 0, 60, 39
1, 150661, Note_on_c, 0, 73, 66
1, 150672, Note_on_c, 0, 56, 42
1, 150680, Note_on_c, 0, 51, 35
1, 150693, Note_off_c, 0, 60, 48
1, 150705, Note_off_c, 0, 56, 52
1, 150717, Note_off_c, 0, 51, 48
1, 150811, Note_on_c, 0, 51, 37
1, 150811, Note_on_c, 0, 60, 43
1, 150819, Note_on_c, 0, 56, 45
1, 150842, Note_off_c, 0, 60, 50
1, 150851, Note_off_c, 0, 56, 55
1, 150859, Note_off_c, 0, 51, 53
1, 150890, Note_on_c, 0, 72, 71
1, 150953, Note_on_c, 0, 60, 47
1, 150953, Note_on_c, 0, 51, 34
1, 150962, Note_on_c, 0, 56, 49
1, 150976, Note_off_c, 0, 73, 59
1, 150996, Note_off_c, 0, 60, 49
1, 150999, Note_off_c, 0, 56, 60
1, 151059, Note_off_c, 0, 51, 0
1, 151075, Note_on_c, 0, 51, 27
1, 151090, Note_on_c, 0, 60, 44
1, 151093, Note_on_c, 0, 56, 53
1, 151102, Note_on_c, 0, 71, 76
1, 151128, Note_off_c, 0, 60, 48
1, 151131, Note_off_c, 0, 56, 60
1, 151143, Note_off_c, 0, 51, 56
1, 151164, Note_off_c, 0, 72, 65
1, 151227, Note_on_c, 0, 51, 36
1, 151236, Note_on_c, 0, 56, 42
1, 151239, Note_on_c, 0, 60, 45
1, 151259, Control_c, 0, 64, 105
1, 151273, Note_off_c, 0, 60, 50
1, 151282, Note_off_c, 0, 56, 54
1, 151284, Note_off_c, 0, 51, 54
1, 151307, Note_on_c, 0, 72, 86
1, 151337, Note_off_c, 0, 71, 62
1, 151366, Note_on_c, 0, 60, 63
1, 151378, Note_on_c, 0, 51, 47
1, 151392, Note_off_c, 0, 60, 66
1, 151427, Note_off_c, 0, 51, 62
1, 151594, Control_c, 0, 64, 105
1, 151608, Control_c, 0, 64, 102
1, 151623, Control_c, 0, 64, 93
1, 151638, Control_c, 0, 64, 80
1, 151643, Note_on_c, 0, 37, 53
1, 151644, Note_on_c, 0, 77, 58
1, 151647, Note_on_c, 0, 84, 77
1, 151653, Control_c, 0, 64, 63
1, 151668, Control_c, 0, 64, 0
1, 151757, Control_c, 0, 64, 53
1, 151771, Control_c, 0, 64, 72
1, 151775, Note_off_c, 0, 37, 66
1, 151786, Control_c, 0, 64, 82
1, 151801, Control_c, 0, 64, 92
1, 151815, Control_c, 0, 64, 96
1, 151830, Control_c, 0, 64, 97
1, 151845, Control_c, 0, 64, 98
1, 151860, Control_c, 0, 64, 99
1, 151875, Control_c, 0, 64, 101
1, 151889, Control_c, 0, 64, 102
1, 151904, Control_c, 0, 64, 103
1, 151910, Note_off_c, 0, 72, 63
1, 151933, Control_c, 0, 64, 103
1, 151971, Note_on_c, 0, 60, 47
1, 151975, Note_on_c, 0, 53, 47
1, 151985, Note_on_c, 0, 49, 40
1, 151997, Note_on_c, 0, 82, 69
1, 152006, Note_off_c, 0, 60, 49
1, 152021, Note_off_c, 0, 53, 63
1, 152037, Note_off_c, 0, 49, 43
1, 152106, Note_off_c, 0, 84, 59
1, 152112, Note_on_c, 0, 60, 51
1, 152121, Note_on_c, 0, 49, 31
1, 152126, Note_on_c, 0, 53, 54
1, 152139, Note_off_c, 0, 60, 53
1, 152156, Note_off_c, 0, 53, 63
1, 152173, Note_off_c, 0, 49, 43
1, 152251, Note_on_c, 0, 60, 52
1, 152253, Note_on_c, 0, 49, 43
1, 152255, Note_on_c, 0, 53, 56
1, 152261, Note_on_c, 0, 81, 75
1, 152283, Note_off_c, 0, 60, 52
1, 152286, Note_off_c, 0, 82, 62
1, 152294, Note_off_c, 0, 53, 63
1, 152303, Note_off_c, 0, 49, 55
1, 152392, Note_on_c, 0, 60, 53
1, 152395, Note_on_c, 0, 53, 48
1, 152406, Note_on_c, 0, 49, 32
1, 152417, Note_off_c, 0, 60, 57
1, 152434, Note_off_c, 0, 53, 62
1, 152444, Note_off_c, 0, 49, 47
1, 152474, Note_on_c, 0, 82, 73
1, 152489, Note_off_c, 0, 77, 55
1, 152514, Note_on_c, 0, 60, 57
1, 152534, Note_on_c, 0, 49, 39
1, 152543, Note_on_c, 0, 53, 47
1, 152545, Note_off_c, 0, 81, 55
1, 152549, Note_off_c, 0, 60, 64
1, 152574, Note_off_c, 0, 49, 58
1, 152588, Note_off_c, 0, 53, 58
1, 152609, Control_c, 0, 64, 104
1, 152653, Control_c, 0, 64, 98
1, 152668, Control_c, 0, 64, 85
1, 152672, Note_on_c, 0, 58, 50
1, 152673, Note_on_c, 0, 49, 48
1, 152676, Note_on_c, 0, 53, 38
1, 152677, Note_on_c, 0, 72, 66
1, 152683, Control_c, 0, 64, 69
1, 152690, Note_off_c, 0, 82, 63
1, 152698, Control_c, 0, 64, 0
1, 152703, Note_off_c, 0, 58, 51
1, 152712, Note_off_c, 0, 53, 53
1, 152716, Note_off_c, 0, 49, 49
1, 152756, Control_c, 0, 64, 66
1, 152771, Control_c, 0, 64, 74
1, 152786, Control_c, 0, 64, 82
1, 152800, Note_on_c, 0, 58, 55
1, 152801, Control_c, 0, 64, 90
1, 152804, Note_on_c, 0, 53, 53
1, 152815, Note_on_c, 0, 49, 40
1, 152816, Control_c, 0, 64, 92
1, 152831, Control_c, 0, 64, 93
1, 152846, Control_c, 0, 64, 94
1, 152852, Note_off_c, 0, 53, 59
1, 152853, Note_off_c, 0, 58, 50
1, 152854, Note_off_c, 0, 49, 50
1, 152860, Control_c, 0, 64, 96
1, 152875, Control_c, 0, 64, 98
1, 152890, Control_c, 0, 64, 100
1, 152895, Note_on_c, 0, 70, 70
1, 152905, Control_c, 0, 64, 101
1, 152920, Control_c, 0, 64, 103
1, 152927, Note_on_c, 0, 53, 39
1, 152929, Note_on_c, 0, 58, 45
1, 152935, Control_c, 0, 64, 103
1, 152944, Note_off_c, 0, 72, 65
1, 152950, Control_c, 0, 64, 104
1, 152955, Note_on_c, 0, 49, 39
1, 152965, Control_c, 0, 64, 105
1, 152982, Note_off_c, 0, 58, 57
1, 152986, Note_off_c, 0, 53, 62
1, 152992, Note_off_c, 0, 49, 53
1, 153002, Control_c, 0, 64, 105
1, 153017, Control_c, 0, 64, 106
1, 153032, Control_c, 0, 64, 106
1, 153047, Control_c, 0, 64, 107
1, 153072, Note_on_c, 0, 58, 54
1, 153090, Note_on_c, 0, 53, 41
1, 153102, Note_on_c, 0, 49, 36
1, 153106, Control_c, 0, 64, 107
1, 153110, Note_on_c, 0, 69, 73
1, 153115, Note_off_c, 0, 58, 58
1, 153121, Note_off_c, 0, 53, 55
1, 153127, Note_off_c, 0, 70, 60
1, 153136, Note_off_c, 0, 49, 47
1, 153200, Note_on_c, 0, 58, 63
1, 153209, Control_c, 0, 64, 108
1, 153233, Note_on_c, 0, 49, 36
1, 153236, Note_on_c, 0, 53, 40
1, 153249, Note_off_c, 0, 58, 55
1, 153265, Note_off_c, 0, 53, 55
1, 153278, Note_off_c, 0, 49, 44
1, 153309, Note_on_c, 0, 70, 78
1, 153320, Note_off_c, 0, 69, 61
1, 153364, Note_on_c, 0, 58, 45
1, 153367, Note_on_c, 0, 49, 31
1, 153385, Note_off_c, 0, 58, 61
1, 153407, Note_off_c, 0, 49, 59
1, 153450, Poly_aftertouch_c, 0, 53, 0
1, 153579, Control_c, 0, 64, 107
1, 153594, Control_c, 0, 64, 105
1, 153609, Control_c, 0, 64, 97
1, 153624, Control_c, 0, 64, 85
1, 153630, Note_on_c, 0, 82, 80
1, 153633, Note_on_c, 0, 36, 49
1, 153639, Control_c, 0, 64, 71
1, 153653, Control_c, 0, 64, 29
1, 153656, Note_on_c, 0, 75, 44
1, 153668, Control_c, 0, 64, 0
1, 153750, Control_c, 0, 64, 40
1, 153766, Control_c, 0, 64, 70
1, 153780, Note_off_c, 0, 36, 64
1, 153781, Control_c, 0, 64, 80
1, 153796, Control_c, 0, 64, 89
1, 153810, Control_c, 0, 64, 94
1, 153825, Control_c, 0, 64, 96
1, 153836, Note_off_c, 0, 70, 56
1, 153840, Control_c, 0, 64, 97
1, 153855, Control_c, 0, 64, 98
1, 153870, Control_c, 0, 64, 100
1, 153884, Control_c, 0, 64, 101
1, 153899, Control_c, 0, 64, 102
1, 153961, Note_on_c, 0, 80, 66
1, 153966, Note_on_c, 0, 48, 46
1, 153970, Note_on_c, 0, 58, 35
1, 153971, Note_on_c, 0, 51, 38
1, 154006, Note_off_c, 0, 48, 48
1, 154008, Note_off_c, 0, 58, 48
1, 154014, Note_off_c, 0, 51, 45
1, 154050, Note_off_c, 0, 82, 40
1, 154089, Note_on_c, 0, 51, 51
1, 154093, Note_on_c, 0, 58, 44
1, 154115, Note_on_c, 0, 48, 29
1, 154120, Note_off_c, 0, 58, 56
1, 154130, Note_off_c, 0, 51, 58
1, 154152, Note_off_c, 0, 48, 53
1, 154192, Note_off_c, 0, 80, 56
1, 154211, Note_on_c, 0, 79, 66
1, 154226, Note_on_c, 0, 58, 45
1, 154234, Note_on_c, 0, 51, 47
1, 154237, Note_on_c, 0, 48, 23
1, 154267, Note_off_c, 0, 51, 57
1, 154267, Note_off_c, 0, 58, 49
1, 154286, Note_off_c, 0, 48, 44
1, 154351, Note_on_c, 0, 58, 52
1, 154375, Note_on_c, 0, 51, 43
1, 154380, Poly_aftertouch_c, 0, 48, 127
1, 154393, Note_off_c, 0, 58, 60
1, 154394, Note_off_c, 0, 75, 54
1, 154410, Note_on_c, 0, 80, 71
1, 154410, Note_off_c, 0, 51, 49
1, 154436, Note_off_c, 0, 79, 57
1, 154447, Poly_aftertouch_c, 0, 48, 0
1, 154491, Poly_aftertouch_c, 0, 48, 127
1, 154500, Note_on_c, 0, 58, 49
1, 154502, Note_on_c, 0, 48, 3
1, 154517, Note_on_c, 0, 51, 39
1, 154528, Note_off_c, 0, 58, 58
1, 154546, Note_off_c, 0, 51, 55
1, 154572, Note_off_c, 0, 48, 38
1, 154619, Control_c, 0, 64, 99
1, 154630, Note_on_c, 0, 73, 69
1, 154631, Note_on_c, 0, 56, 55
1, 154633, Control_c, 0, 64, 90
1, 154637, Note_on_c, 0, 48, 32
1, 154643, Note_on_c, 0, 51, 51
1, 154648, Control_c, 0, 64, 77
1, 154663, Control_c, 0, 64, 64
1, 154672, Note_off_c, 0, 56, 58
1, 154678, Note_off_c, 0, 51, 54
1, 154678, Control_c, 0, 64, 14
1, 154693, Control_c, 0, 64, 0
1, 154695, Note_off_c, 0, 48, 42
1, 154707, Control_c, 0, 64, 52
1, 154717, Note_off_c, 0, 80, 60
1, 154722, Control_c, 0, 64, 67
1, 154737, Control_c, 0, 64, 74
1, 154751, Control_c, 0, 64, 81
1, 154762, Note_on_c, 0, 56, 61
1, 154766, Control_c, 0, 64, 86
1, 154776, Note_on_c, 0, 48, 27
1, 154776, Note_on_c, 0, 51, 56
1, 154781, Control_c, 0, 64, 89
1, 154795, Note_off_c, 0, 56, 55
1, 154796, Control_c, 0, 64, 91
1, 154811, Control_c, 0, 64, 93
1, 154812, Note_off_c, 0, 51, 57
1, 154826, Control_c, 0, 64, 95
1, 154834, Note_off_c, 0, 48, 42
1, 154840, Note_on_c, 0, 72, 79
1, 154840, Control_c, 0, 64, 97
1, 154855, Control_c, 0, 64, 99
1, 154870, Note_off_c, 0, 73, 65
1, 154870, Control_c, 0, 64, 101
1, 154885, Control_c, 0, 64, 104
1, 154894, Note_on_c, 0, 56, 57
1, 154899, Note_on_c, 0, 48, 40
1, 154900, Control_c, 0, 64, 106
1, 154908, Note_on_c, 0, 51, 50
1, 154914, Control_c, 0, 64, 107
1, 154929, Control_c, 0, 64, 108
1, 154941, Note_off_c, 0, 56, 58
1, 154944, Control_c, 0, 64, 109
1, 154952, Note_off_c, 0, 51, 55
1, 154953, Note_off_c, 0, 48, 59
1, 154959, Control_c, 0, 64, 110
1, 154974, Control_c, 0, 64, 110
1, 154989, Control_c, 0, 64, 111
1, 155004, Control_c, 0, 64, 112
1, 155019, Control_c, 0, 64, 113
1, 155033, Control_c, 0, 64, 114
1, 155034, Note_on_c, 0, 56, 61
1, 155036, Note_on_c, 0, 48, 39
1, 155042, Note_on_c, 0, 51, 52
1, 155048, Control_c, 0, 64, 115
1, 155053, Note_on_c, 0, 70, 79
1, 155063, Control_c, 0, 64, 115
1, 155073, Note_off_c, 0, 56, 56
1, 155078, Control_c, 0, 64, 116
1, 155084, Note_off_c, 0, 51, 57
1, 155093, Note_off_c, 0, 48, 60
1, 155093, Control_c, 0, 64, 118
1, 155107, Control_c, 0, 64, 120
1, 155122, Control_c, 0, 64, 123
1, 155137, Control_c, 0, 64, 125
1, 155151, Control_c, 0, 64, 127
1, 155175, Note_on_c, 0, 56, 51
1, 155176, Note_off_c, 0, 72, 54
1, 155181, Note_on_c, 0, 48, 34
1, 155183, Note_on_c, 0, 51, 56
1, 155230, Note_off_c, 0, 56, 57
1, 155236, Note_off_c, 0, 48, 60
1, 155244, Note_off_c, 0, 51, 44
1, 155281, Note_on_c, 0, 68, 84
1, 155324, Note_off_c, 0, 70, 64
1, 155340, Note_on_c, 0, 51, 41
1, 155342, Note_on_c, 0, 56, 62
1, 155355, Note_on_c, 0, 48, 47
1, 155377, Note_off_c, 0, 56, 64
1, 155388, Note_off_c, 0, 51, 62
1, 155394, Note_off_c, 0, 48, 64
1, 155589, Control_c, 0, 64, 109
1, 155594, Note_off_c, 0, 68, 54
1, 155600, Note_on_c, 0, 37, 60
1, 155604, Control_c, 0, 64, 91
1, 155608, Note_on_c, 0, 79, 79
1, 155609, Note_on_c, 0, 75, 63
1, 155619, Control_c, 0, 64, 74
1, 155624, Note_on_c, 0, 67, 49
1, 155634, Control_c, 0, 64, 52
1, 155648, Control_c, 0, 64, 0
1, 155708, Control_c, 0, 64, 66
1, 155723, Control_c, 0, 64, 78
1, 155737, Note_off_c, 0, 37, 65
1, 155737, Control_c, 0, 64, 90
1, 155752, Control_c, 0, 64, 98
1, 155767, Control_c, 0, 64, 100
1, 155782, Control_c, 0, 64, 101
1, 155797, Control_c, 0, 64, 101
1, 155802, Note_off_c, 0, 67, 60
1, 155812, Control_c, 0, 64, 102
1, 155813, Note_off_c, 0, 79, 60
1, 155826, Control_c, 0, 64, 102
1, 155861, Note_on_c, 0, 56, 59
1, 155878, Note_on_c, 0, 49, 42
1, 155887, Note_off_c, 0, 75, 48
1, 155891, Note_on_c, 0, 53, 35
1, 155898, Note_on_c, 0, 77, 74
1, 155901, Note_on_c, 0, 73, 52
1, 155905, Note_off_c, 0, 56, 57
1, 155909, Note_on_c, 0, 65, 58
1, 155918, Note_off_c, 0, 49, 57
1, 155925, Note_off_c, 0, 53, 56
1, 155993, Note_off_c, 0, 65, 65
1, 156006, Note_on_c, 0, 56, 55
1, 156014, Note_off_c, 0, 73, 61
1, 156023, Note_on_c, 0, 53, 52
1, 156047, Note_off_c, 0, 56, 57
1, 156048, Note_on_c, 0, 49, 26
1, 156065, Note_off_c, 0, 53, 61
1, 156085, Note_off_c, 0, 49, 43
1, 156085, Note_off_c, 0, 77, 58
1, 156123, Note_on_c, 0, 72, 65
1, 156127, Note_on_c, 0, 75, 77
1, 156140, Note_on_c, 0, 63, 59
1, 156142, Note_on_c, 0, 57, 49
1, 156148, Note_on_c, 0, 53, 53
1, 156184, Note_off_c, 0, 57, 58
1, 156187, Note_off_c, 0, 53, 64
1, 156226, Note_off_c, 0, 72, 64
1, 156227, Note_off_c, 0, 63, 59
1, 156248, Poly_aftertouch_c, 0, 49, 0
1, 156270, Note_on_c, 0, 57, 60
1, 156274, Note_on_c, 0, 49, 4
1, 156285, Note_on_c, 0, 53, 46
1, 156306, Note_off_c, 0, 57, 62
1, 156327, Note_on_c, 0, 73, 76
1, 156333, Note_on_c, 0, 70, 69
1, 156334, Note_off_c, 0, 53, 60
1, 156338, Note_off_c, 0, 49, 50
1, 156351, Note_on_c, 0, 61, 53
1, 156354, Note_off_c, 0, 75, 57
1, 156418, Note_off_c, 0, 61, 56
1, 156427, Note_on_c, 0, 58, 57
1, 156427, Control_c, 0, 64, 103
1, 156437, Note_on_c, 0, 49, 44
1, 156442, Control_c, 0, 64, 103
1, 156451, Note_on_c, 0, 53, 44
1, 156457, Control_c, 0, 64, 104
1, 156471, Control_c, 0, 64, 105
1, 156473, Note_off_c, 0, 70, 62
1, 156476, Note_off_c, 0, 58, 58
1, 156480, Note_off_c, 0, 53, 64
1, 156486, Control_c, 0, 64, 106
1, 156501, Control_c, 0, 64, 108
1, 156507, Note_off_c, 0, 49, 60
1, 156516, Control_c, 0, 64, 108
1, 156531, Control_c, 0, 64, 109
1, 156572, Note_off_c, 0, 73, 62
1, 156590, Control_c, 0, 64, 105
1, 156604, Control_c, 0, 64, 93
1, 156619, Control_c, 0, 64, 74
1, 156628, Note_on_c, 0, 72, 66
1, 156632, Note_on_c, 0, 60, 58
1, 156634, Control_c, 0, 64, 34
1, 156639, Note_on_c, 0, 68, 55
1, 156640, Note_on_c, 0, 39, 55
1, 156649, Control_c, 0, 64, 0
1, 156709, Control_c, 0, 64, 64
1, 156730, Control_c, 0, 64, 75
1, 156745, Control_c, 0, 64, 84
1, 156748, Note_off_c, 0, 39, 62
1, 156760, Control_c, 0, 64, 90
1, 156775, Control_c, 0, 64, 93
1, 156789, Note_off_c, 0, 72, 65
1, 156790, Control_c, 0, 64, 94
1, 156799, Note_off_c, 0, 60, 61
1, 156804, Control_c, 0, 64, 95
1, 156819, Control_c, 0, 64, 97
1, 156826, Note_on_c, 0, 51, 57
1, 156829, Note_on_c, 0, 56, 52
1, 156834, Control_c, 0, 64, 98
1, 156849, Note_off_c, 0, 68, 64
1, 156849, Control_c, 0, 64, 98
1, 156858, Note_off_c, 0, 56, 64
1, 156864, Control_c, 0, 64, 99
1, 156873, Note_off_c, 0, 51, 56
1, 156879, Control_c, 0, 64, 99
1, 156894, Control_c, 0, 64, 100
1, 156908, Control_c, 0, 64, 101
1, 156923, Control_c, 0, 64, 103
1, 156938, Control_c, 0, 64, 104
1, 156952, Note_on_c, 0, 56, 48
1, 156954, Control_c, 0, 64, 105
1, 156959, Note_on_c, 0, 51, 50
1, 156969, Control_c, 0, 64, 107
1, 156983, Control_c, 0, 64, 108
1, 156986, Note_off_c, 0, 56, 60
1, 156993, Note_off_c, 0, 51, 64
1, 156998, Control_c, 0, 64, 109
1, 157043, Control_c, 0, 64, 107
1, 157058, Control_c, 0, 64, 96
1, 157072, Control_c, 0, 64, 80
1, 157087, Control_c, 0, 64, 63
1, 157092, Note_on_c, 0, 61, 58
1, 157093, Note_on_c, 0, 67, 58
1, 157093, Note_on_c, 0, 73, 63
1, 157102, Control_c, 0, 64, 0
1, 157107, Note_on_c, 0, 39, 50
1, 157147, Control_c, 0, 64, 48
1, 157161, Control_c, 0, 64, 69
1, 157165, Note_off_c, 0, 39, 62
1, 157176, Control_c, 0, 64, 77
1, 157191, Control_c, 0, 64, 85
1, 157206, Control_c, 0, 64, 88
1, 157221, Control_c, 0, 64, 90
1, 157235, Control_c, 0, 64, 92
1, 157250, Control_c, 0, 64, 95
1, 157265, Control_c, 0, 64, 97
1, 157280, Control_c, 0, 64, 99
1, 157294, Control_c, 0, 64, 100
1, 157296, Note_on_c, 0, 58, 42
1, 157296, Note_off_c, 0, 73, 62
1, 157299, Note_on_c, 0, 51, 42
1, 157309, Control_c, 0, 64, 101
1, 157324, Control_c, 0, 64, 102
1, 157329, Note_off_c, 0, 58, 54
1, 157336, Note_off_c, 0, 51, 54
1, 157339, Control_c, 0, 64, 102
1, 157340, Note_on_c, 0, 55, 3
1, 157368, Control_c, 0, 64, 103
1, 157376, Note_off_c, 0, 55, 51
1, 157384, Note_off_c, 0, 61, 30
1, 157451, Note_on_c, 0, 58, 43
1, 157480, Note_on_c, 0, 51, 21
1, 157492, Note_on_c, 0, 55, 34
1, 157502, Note_off_c, 0, 58, 63
1, 157510, Note_on_c, 0, 70, 60
1, 157523, Note_off_c, 0, 55, 50
1, 157530, Note_off_c, 0, 51, 46
1, 157530, Note_off_c, 0, 67, 51
1, 157573, Note_off_c, 0, 70, 63
1, 157777, Control_c, 0, 64, 98
1, 157792, Control_c, 0, 64, 87
1, 157807, Control_c, 0, 64, 74
1, 157822, Note_on_c, 0, 32, 44
1, 157822, Control_c, 0, 64, 59
1, 157834, Note_on_c, 0, 68, 55
1, 157837, Control_c, 0, 64, 0
1, 157840, Note_on_c, 0, 63, 44
1, 157843, Note_on_c, 0, 56, 45
1, 157846, Note_on_c, 0, 60, 46
1, 157911, Control_c, 0, 64, 41
1, 157925, Control_c, 0, 64, 67
1, 157940, Control_c, 0, 64, 74
1, 157955, Control_c, 0, 64, 81
1, 157970, Note_off_c, 0, 32, 54
1, 157970, Control_c, 0, 64, 86
1, 157985, Control_c, 0, 64, 88
1, 158000, Control_c, 0, 64, 90
1, 158014, Control_c, 0, 64, 92
1, 158029, Control_c, 0, 64, 95
1, 158044, Control_c, 0, 64, 98
1, 158059, Control_c, 0, 64, 99
1, 158074, Control_c, 0, 64, 100
1, 158104, Control_c, 0, 64, 100
1, 158119, Control_c, 0, 64, 101
1, 158133, Control_c, 0, 64, 102
1, 158148, Control_c, 0, 64, 102
1, 158177, Control_c, 0, 64, 103
1, 158192, Control_c, 0, 64, 103
1, 158207, Control_c, 0, 64, 104
1, 158229, Control_c, 0, 64, 105
1, 158244, Control_c, 0, 64, 105
1, 158273, Note_on_c, 0, 48, 45
1, 158281, Note_on_c, 0, 44, 29
1, 158294, Note_on_c, 0, 51, 21
1, 158328, Note_off_c, 0, 44, 45
1, 158340, Note_off_c, 0, 48, 54
1, 158342, Note_off_c, 0, 51, 47
1, 158470, Note_on_c, 0, 51, 28
1, 158476, Note_on_c, 0, 48, 44
1, 158479, Note_on_c, 0, 44, 27
1, 158533, Note_off_c, 0, 48, 55
1, 158551, Note_off_c, 0, 44, 41
1, 158552, Note_off_c, 0, 51, 39
1, 158585, Control_c, 0, 64, 106
1, 158662, Note_on_c, 0, 48, 36
1, 158664, Note_on_c, 0, 44, 25
1, 158670, Note_on_c, 0, 51, 30
1, 158715, Note_off_c, 0, 51, 47
1, 158716, Note_off_c, 0, 48, 53
1, 158738, Note_off_c, 0, 44, 40
1, 158807, Note_on_c, 0, 44, 20
1, 158825, Note_on_c, 0, 51, 28
1, 158828, Note_on_c, 0, 48, 28
1, 158867, Note_off_c, 0, 51, 47
1, 158871, Note_off_c, 0, 48, 47
1, 158926, Note_off_c, 0, 44, 0
1, 158963, Poly_aftertouch_c, 0, 44, 127
1, 158983, Note_on_c, 0, 48, 36
1, 158989, Note_on_c, 0, 51, 29
1, 159027, Note_off_c, 0, 51, 49
1, 159031, Note_off_c, 0, 48, 46
1, 159117, Note_off_c, 0, 56, 39
1, 159125, Note_on_c, 0, 48, 36
1, 159132, Note_on_c, 0, 51, 34
1, 159149, Note_off_c, 0, 60, 28
1, 159159, Note_off_c, 0, 68, 39
1, 159164, Note_off_c, 0, 63, 39
1, 159170, Control_c, 0, 64, 106
1, 159176, Note_off_c, 0, 51, 47
1, 159177, Note_off_c, 0, 48, 44
1, 159275, Note_on_c, 0, 48, 29
1, 159280, Note_on_c, 0, 51, 32
1, 159315, Note_off_c, 0, 51, 48
1, 159322, Note_off_c, 0, 48, 46
1, 159428, Note_on_c, 0, 48, 27
1, 159445, Note_on_c, 0, 51, 22
1, 159479, Note_off_c, 0, 48, 46
1, 159499, Note_off_c, 0, 51, 45
1, 159520, Poly_aftertouch_c, 0, 44, 0
1, 159557, Poly_aftertouch_c, 0, 44, 127
1, 159578, Note_on_c, 0, 60, 46
1, 159581, Note_on_c, 0, 48, 28
1, 159584, Note_on_c, 0, 51, 24
1, 159627, Note_off_c, 0, 51, 48
1, 159636, Note_off_c, 0, 48, 46
1, 159660, Control_c, 0, 64, 107
1, 159694, Poly_aftertouch_c, 0, 44, 0
1, 159739, Poly_aftertouch_c, 0, 44, 127
1, 159743, Note_on_c, 0, 48, 31
1, 159760, Note_on_c, 0, 51, 4
1, 159770, Control_c, 0, 64, 107
1, 159786, Note_off_c, 0, 48, 47
1, 159844, Poly_aftertouch_c, 0, 44, 0
1, 159849, Note_off_c, 0, 51, 0
1, 159861, Note_on_c, 0, 44, 21
1, 159873, Note_on_c, 0, 48, 19
1, 159886, Poly_aftertouch_c, 0, 51, 127
1, 159911, Note_off_c, 0, 48, 56
1, 159916, Note_off_c, 0, 44, 61
1, 159922, Poly_aftertouch_c, 0, 51, 0
1, 159944, Note_on_c, 0, 63, 49
1, 160022, Control_c, 0, 64, 108
1, 160077, Note_on_c, 0, 32, 53
1, 160084, Note_on_c, 0, 68, 59
1, 160089, Note_on_c, 0, 56, 47
1, 160115, Note_off_c, 0, 32, 61
1, 160216, Control_c, 0, 64, 108
1, 160265, Note_off_c, 0, 56, 57
1, 160283, Note_off_c, 0, 68, 55
1, 160292, Note_off_c, 0, 60, 41
1, 160296, Note_off_c, 0, 63, 53
1, 160327, Note_on_c, 0, 48, 46
1, 160340, Note_on_c, 0, 51, 27
1, 160349, Control_c, 0, 64, 109
1, 160359, Note_on_c, 0, 44, 4
1, 160375, Note_off_c, 0, 48, 55
1, 160376, Note_off_c, 0, 51, 50
1, 160405, Note_off_c, 0, 44, 48
1, 160498, Note_on_c, 0, 51, 43
1, 160507, Note_on_c, 0, 44, 32
1, 160507, Note_on_c, 0, 48, 37
1, 160536, Note_off_c, 0, 51, 49
1, 160539, Note_off_c, 0, 48, 52
1, 160546, Note_off_c, 0, 44, 49
1, 160629, Note_on_c, 0, 68, 58
1, 160635, Note_on_c, 0, 56, 46
1, 160654, Note_on_c, 0, 44, 35
1, 160664, Note_on_c, 0, 48, 38
1, 160673, Note_on_c, 0, 51, 12
1, 160697, Note_off_c, 0, 44, 46
1, 160699, Note_off_c, 0, 48, 51
1, 160723, Note_off_c, 0, 51, 36
1, 160788, Note_on_c, 0, 51, 29
1, 160792, Note_on_c, 0, 48, 45
1, 160794, Note_on_c, 0, 44, 38
1, 160822, Note_off_c, 0, 56, 55
1, 160831, Note_off_c, 0, 48, 58
1, 160834, Note_off_c, 0, 44, 58
1, 160834, Note_off_c, 0, 68, 61
1, 160840, Note_off_c, 0, 51, 46
1, 160860, Control_c, 0, 64, 109
1, 160932, Note_on_c, 0, 51, 37
1, 160938, Note_on_c, 0, 44, 39
1, 160939, Note_on_c, 0, 48, 39
1, 160978, Note_off_c, 0, 51, 46
1, 160980, Note_off_c, 0, 44, 47
1, 160986, Note_off_c, 0, 48, 46
1, 161072, Note_on_c, 0, 48, 43
1, 161073, Note_on_c, 0, 68, 59
1, 161076, Note_on_c, 0, 56, 50
1, 161076, Note_on_c, 0, 44, 35
1, 161085, Note_on_c, 0, 51, 29
1, 161121, Note_off_c, 0, 48, 58
1, 161124, Note_off_c, 0, 44, 56
1, 161124, Note_off_c, 0, 51, 48
1, 161226, Note_on_c, 0, 44, 35
1, 161230, Note_on_c, 0, 48, 47
1, 161232, Note_on_c, 0, 51, 40
1, 161249, Note_off_c, 0, 68, 59
1, 161268, Note_off_c, 0, 56, 36
1, 161270, Note_off_c, 0, 51, 49
1, 161270, Note_off_c, 0, 48, 56
1, 161280, Note_off_c, 0, 44, 50
1, 161385, Note_on_c, 0, 44, 20
1, 161388, Note_on_c, 0, 48, 41
1, 161395, Note_on_c, 0, 51, 28
1, 161401, Control_c, 0, 64, 110
1, 161425, Note_off_c, 0, 51, 53
1, 161434, Note_off_c, 0, 48, 48
1, 161445, Note_off_c, 0, 44, 43
1, 161493, Note_on_c, 0, 68, 51
1, 161514, Note_on_c, 0, 56, 47
1, 161529, Note_on_c, 0, 51, 43
1, 161532, Note_on_c, 0, 44, 24
1, 161536, Note_on_c, 0, 48, 47
1, 161554, Note_off_c, 0, 56, 62
1, 161570, Note_off_c, 0, 68, 64
1, 161573, Note_off_c, 0, 51, 46
1, 161576, Note_off_c, 0, 48, 51
1, 161601, Note_off_c, 0, 44, 40
1, 161690, Note_on_c, 0, 48, 39
1, 161690, Note_on_c, 0, 51, 23
1, 161711, Poly_aftertouch_c, 0, 44, 127
1, 161719, Note_off_c, 0, 48, 53
1, 161732, Note_off_c, 0, 51, 47
1, 161758, Poly_aftertouch_c, 0, 44, 0
1, 161860, Note_on_c, 0, 44, 35
1, 161870, Note_on_c, 0, 51, 24
1, 161875, Note_on_c, 0, 48, 22
1, 161907, Note_off_c, 0, 51, 42
1, 161908, Note_off_c, 0, 44, 62
1, 161916, Note_off_c, 0, 48, 55
1, 162046, Control_c, 0, 64, 105
1, 162061, Control_c, 0, 64, 92
1, 162076, Control_c, 0, 64, 71
1, 162090, Control_c, 0, 64, 0
1, 162119, Note_on_c, 0, 67, 62
1, 162126, Note_on_c, 0, 31, 48
1, 162128, Note_on_c, 0, 55, 53
1, 162133, Note_on_c, 0, 43, 37
1, 162164, Control_c, 0, 64, 65
1, 162178, Note_off_c, 0, 31, 62
1, 162179, Control_c, 0, 64, 76
1, 162184, Note_off_c, 0, 43, 60
1, 162194, Control_c, 0, 64, 85
1, 162209, Control_c, 0, 64, 92
1, 162223, Control_c, 0, 64, 95
1, 162238, Control_c, 0, 64, 97
1, 162253, Control_c, 0, 64, 99
1, 162268, Control_c, 0, 64, 102
1, 162283, Control_c, 0, 64, 104
1, 162298, Control_c, 0, 64, 104
1, 162328, Control_c, 0, 64, 105
1, 162357, Control_c, 0, 64, 105
1, 162372, Control_c, 0, 64, 106
1, 162431, Control_c, 0, 64, 106
1, 162461, Control_c, 0, 64, 107
1, 162477, Note_on_c, 0, 51, 14
1, 162509, Poly_aftertouch_c, 0, 48, 127
1, 162528, Poly_aftertouch_c, 0, 43, 127
1, 162536, Note_off_c, 0, 51, 44
1, 162555, Poly_aftertouch_c, 0, 48, 0
1, 162621, Poly_aftertouch_c, 0, 43, 0
1, 162631, Note_on_c, 0, 48, 41
1, 162641, Note_on_c, 0, 43, 17
1, 162650, Note_on_c, 0, 51, 35
1, 162691, Note_off_c, 0, 51, 48
1, 162692, Note_off_c, 0, 48, 54
1, 162769, Note_off_c, 0, 43, 0
1, 162783, Note_on_c, 0, 48, 37
1, 162786, Note_on_c, 0, 43, 25
1, 162802, Note_on_c, 0, 51, 38
1, 162838, Note_off_c, 0, 48, 58
1, 162839, Note_off_c, 0, 51, 49
1, 162854, Note_off_c, 0, 43, 42
1, 162939, Note_on_c, 0, 51, 42
1, 162940, Note_on_c, 0, 48, 38
1, 162945, Note_on_c, 0, 43, 17
1, 162972, Note_off_c, 0, 51, 51
1, 162979, Note_off_c, 0, 48, 49
1, 162995, Note_off_c, 0, 43, 46
1, 163079, Note_on_c, 0, 48, 36
1, 163083, Note_on_c, 0, 51, 27
1, 163100, Note_on_c, 0, 43, 7
1, 163120, Note_off_c, 0, 51, 49
1, 163126, Note_off_c, 0, 48, 46
1, 163183, Note_off_c, 0, 43, 0
1, 163195, Control_c, 0, 64, 107
1, 163204, Note_on_c, 0, 48, 39
1, 163207, Note_on_c, 0, 43, 14
1, 163213, Note_on_c, 0, 51, 40
1, 163250, Note_off_c, 0, 51, 49
1, 163252, Note_off_c, 0, 48, 59
1, 163277, Note_off_c, 0, 43, 41
1, 163311, Note_off_c, 0, 55, 57
1, 163353, Note_on_c, 0, 48, 39
1, 163354, Note_on_c, 0, 43, 26
1, 163357, Note_on_c, 0, 51, 38
1, 163377, Note_off_c, 0, 67, 37
1, 163404, Note_off_c, 0, 51, 46
1, 163409, Note_off_c, 0, 48, 43
1, 163422, Note_off_c, 0, 43, 39
1, 163496, Note_on_c, 0, 48, 41
1, 163497, Note_on_c, 0, 43, 29
1, 163499, Note_on_c, 0, 51, 39
1, 163544, Note_off_c, 0, 48, 60
1, 163545, Note_off_c, 0, 51, 49
1, 163569, Note_off_c, 0, 43, 40
1, 163647, Note_on_c, 0, 43, 34
1, 163651, Note_on_c, 0, 48, 41
1, 163652, Note_on_c, 0, 60, 64
1, 163653, Note_on_c, 0, 51, 36
1, 163677, Control_c, 0, 64, 108
1, 163690, Note_off_c, 0, 51, 51
1, 163690, Note_off_c, 0, 48, 58
1, 163701, Note_off_c, 0, 43, 53
1, 163800, Note_on_c, 0, 43, 32
1, 163803, Note_on_c, 0, 51, 37
1, 163803, Note_on_c, 0, 48, 48
1, 163810, Control_c, 0, 64, 108
1, 163842, Note_off_c, 0, 48, 60
1, 163842, Note_off_c, 0, 51, 49
1, 163857, Note_off_c, 0, 43, 44
1, 163884, Control_c, 0, 64, 109
1, 163940, Note_on_c, 0, 43, 38
1, 163944, Note_on_c, 0, 51, 39
1, 163948, Note_on_c, 0, 48, 36
1, 163975, Note_off_c, 0, 48, 58
1, 163981, Note_off_c, 0, 43, 61
1, 163985, Note_off_c, 0, 51, 43
1, 163988, Note_on_c, 0, 63, 63
1, 164123, Note_on_c, 0, 67, 78
1, 164137, Control_c, 0, 64, 109
1, 164137, Note_on_c, 0, 55, 60
1, 164143, Note_on_c, 0, 31, 55
1, 164152, Note_on_c, 0, 43, 38
1, 164173, Note_off_c, 0, 60, 36
1, 164178, Note_off_c, 0, 31, 59
1, 164193, Note_off_c, 0, 43, 55
1, 164337, Control_c, 0, 64, 110
1, 164358, Note_on_c, 0, 51, 42
1, 164360, Note_on_c, 0, 43, 25
1, 164360, Note_on_c, 0, 48, 41
1, 164364, Note_off_c, 0, 55, 57
1, 164376, Note_off_c, 0, 67, 55
1, 164385, Note_off_c, 0, 63, 53
1, 164393, Note_off_c, 0, 51, 54
1, 164397, Control_c, 0, 64, 110
1, 164400, Note_off_c, 0, 48, 52
1, 164413, Note_off_c, 0, 43, 45
1, 164426, Control_c, 0, 64, 111
1, 164489, Note_on_c, 0, 48, 53
1, 164500, Note_on_c, 0, 51, 45
1, 164514, Note_on_c, 0, 43, 24
1, 164516, Control_c, 0, 64, 111
1, 164534, Note_off_c, 0, 51, 53
1, 164539, Note_off_c, 0, 48, 57
1, 164570, Note_off_c, 0, 43, 43
1, 164614, Note_on_c, 0, 67, 82
1, 164622, Note_on_c, 0, 48, 51
1, 164625, Note_on_c, 0, 55, 65
1, 164630, Note_on_c, 0, 51, 54
1, 164634, Note_on_c, 0, 43, 42
1, 164671, Note_off_c, 0, 51, 59
1, 164675, Note_off_c, 0, 43, 58
1, 164676, Note_off_c, 0, 48, 63
1, 164723, Control_c, 0, 64, 112
1, 164737, Control_c, 0, 64, 112
1, 164752, Control_c, 0, 64, 113
1, 164763, Note_on_c, 0, 48, 56
1, 164765, Note_on_c, 0, 51, 54
1, 164767, Control_c, 0, 64, 115
1, 164775, Note_on_c, 0, 43, 52
1, 164782, Control_c, 0, 64, 116
1, 164797, Control_c, 0, 64, 118
1, 164805, Note_off_c, 0, 51, 58
1, 164808, Note_off_c, 0, 43, 61
1, 164811, Control_c, 0, 64, 120
1, 164814, Note_off_c, 0, 48, 63
1, 164826, Control_c, 0, 64, 123
1, 164841, Control_c, 0, 64, 127
1, 164899, Note_on_c, 0, 51, 60
1, 164900, Note_on_c, 0, 43, 50
1, 164900, Note_on_c, 0, 48, 67
1, 164909, Note_off_c, 0, 55, 51
1, 164909, Note_off_c, 0, 67, 51
1, 164931, Control_c, 0, 67, 125
1, 164946, Control_c, 0, 67, 119
1, 164953, Note_off_c, 0, 51, 54
1, 164954, Note_off_c, 0, 43, 58
1, 164960, Note_off_c, 0, 48, 62
1, 164961, Control_c, 0, 67, 111
1, 164983, Control_c, 0, 67, 103
1, 164998, Control_c, 0, 67, 94
1, 165013, Control_c, 0, 67, 85
1, 165028, Control_c, 0, 67, 75
1, 165042, Control_c, 0, 67, 65
1, 165046, Note_on_c, 0, 67, 84
1, 165052, Note_on_c, 0, 48, 62
1, 165054, Note_on_c, 0, 55, 69
1, 165055, Note_on_c, 0, 51, 58
1, 165057, Control_c, 0, 67, 56
1, 165059, Note_on_c, 0, 43, 55
1, 165072, Control_c, 0, 67, 46
1, 165087, Control_c, 0, 67, 36
1, 165102, Control_c, 0, 67, 24
1, 165108, Note_off_c, 0, 43, 54
1, 165111, Note_off_c, 0, 51, 58
1, 165112, Note_off_c, 0, 48, 66
1, 165116, Control_c, 0, 67, 11
1, 165131, Control_c, 0, 67, 0
1, 165197, Note_on_c, 0, 51, 70
1, 165198, Note_on_c, 0, 48, 69
1, 165199, Note_on_c, 0, 43, 64
1, 165248, Note_off_c, 0, 43, 58
1, 165252, Note_off_c, 0, 51, 62
1, 165257, Note_off_c, 0, 48, 65
1, 165324, Note_off_c, 0, 55, 56
1, 165326, Note_off_c, 0, 67, 51
1, 165330, Note_on_c, 0, 48, 73
1, 165332, Note_on_c, 0, 51, 71
1, 165340, Note_on_c, 0, 43, 67
1, 165387, Note_off_c, 0, 43, 55
1, 165387, Note_off_c, 0, 51, 57
1, 165397, Note_off_c, 0, 48, 63
1, 165467, Note_on_c, 0, 67, 97
1, 165472, Note_on_c, 0, 43, 71
1, 165472, Note_on_c, 0, 55, 91
1, 165476, Note_on_c, 0, 48, 71
1, 165477, Note_on_c, 0, 51, 73
1, 165544, Note_off_c, 0, 43, 58
1, 165545, Note_off_c, 0, 51, 58
1, 165546, Note_off_c, 0, 48, 63
1, 165610, Note_on_c, 0, 51, 72
1, 165619, Note_on_c, 0, 43, 60
1, 165619, Note_on_c, 0, 48, 72
1, 165669, Note_off_c, 0, 51, 55
1, 165684, Note_off_c, 0, 67, 60
1, 165687, Note_off_c, 0, 43, 51
1, 165690, Note_off_c, 0, 48, 60
1, 165737, Note_off_c, 0, 55, 58
1, 165768, Note_on_c, 0, 48, 70
1, 165774, Note_on_c, 0, 51, 63
1, 165779, Note_on_c, 0, 43, 65
1, 165792, Note_off_c, 0, 48, 67
1, 165795, Note_off_c, 0, 51, 66
1, 165817, Note_off_c, 0, 43, 62
1, 166008, Note_on_c, 0, 65, 93
1, 166010, Note_on_c, 0, 53, 94
1, 166020, Note_on_c, 0, 41, 101
1, 166021, Note_on_c, 0, 29, 97
1, 166042, Control_c, 0, 64, 104
1, 166057, Control_c, 0, 64, 74
1, 166072, Control_c, 0, 64, 0
1, 166176, Control_c, 0, 64, 63
1, 166190, Control_c, 0, 64, 88
1, 166205, Control_c, 0, 64, 118
1, 166206, Note_off_c, 0, 29, 63
1, 166220, Control_c, 0, 64, 127
1, 166243, Note_off_c, 0, 41, 66
1, 166292, Note_off_c, 0, 53, 63
1, 166375, Note_on_c, 0, 41, 59
1, 166381, Note_on_c, 0, 51, 63
1, 166383, Note_on_c, 0, 48, 52
1, 166432, Note_off_c, 0, 51, 58
1, 166438, Note_off_c, 0, 48, 63
1, 166440, Note_off_c, 0, 41, 60
1, 166522, Note_on_c, 0, 51, 74
1, 166523, Note_on_c, 0, 41, 62
1, 166524, Note_on_c, 0, 48, 63
1, 166574, Note_off_c, 0, 51, 60
1, 166576, Note_off_c, 0, 41, 61
1, 166587, Note_off_c, 0, 48, 65
1, 166655, Note_on_c, 0, 48, 63
1, 166657, Note_on_c, 0, 51, 71
1, 166660, Note_on_c, 0, 41, 68
1, 166707, Note_off_c, 0, 51, 63
1, 166713, Note_off_c, 0, 41, 65
1, 166724, Note_off_c, 0, 48, 65
1, 166791, Note_on_c, 0, 51, 78
1, 166796, Note_on_c, 0, 48, 60
1, 166799, Note_on_c, 0, 41, 68
1, 166833, Note_off_c, 0, 51, 56
1, 166841, Note_off_c, 0, 41, 63
1, 166849, Note_off_c, 0, 48, 64
1, 166907, Note_on_c, 0, 41, 70
1, 166907, Note_on_c, 0, 48, 69
1, 166914, Note_on_c, 0, 51, 62
1, 166933, Note_off_c, 0, 48, 67
1, 166936, Note_off_c, 0, 51, 63
1, 166957, Note_off_c, 0, 41, 65
1, 166992, Note_off_c, 0, 65, 59
1, 166999, Control_c, 0, 64, 92
1, 167013, Control_c, 0, 64, 67
1, 167028, Control_c, 0, 64, 0
1, 167045, Note_on_c, 0, 66, 93
1, 167049, Note_on_c, 0, 54, 85
1, 167052, Note_on_c, 0, 30, 92
1, 167052, Note_on_c, 0, 42, 84
1, 167102, Control_c, 0, 64, 62
1, 167117, Control_c, 0, 64, 78
1, 167127, Note_off_c, 0, 30, 62
1, 167131, Control_c, 0, 64, 95
1, 167138, Note_off_c, 0, 42, 64
1, 167146, Control_c, 0, 64, 115
1, 167161, Control_c, 0, 64, 118
1, 167176, Control_c, 0, 64, 119
1, 167191, Control_c, 0, 64, 121
1, 167213, Control_c, 0, 64, 124
1, 167228, Control_c, 0, 64, 127
1, 167243, Control_c, 0, 64, 127
1, 167243, Note_on_c, 0, 51, 58
1, 167250, Note_off_c, 0, 54, 59
1, 167253, Note_on_c, 0, 42, 49
1, 167273, Note_on_c, 0, 48, 32
1, 167284, Note_off_c, 0, 42, 54
1, 167288, Note_off_c, 0, 51, 59
1, 167316, Note_off_c, 0, 48, 47
1, 167374, Note_on_c, 0, 48, 52
1, 167376, Note_on_c, 0, 42, 50
1, 167377, Note_on_c, 0, 51, 50
1, 167410, Note_off_c, 0, 42, 62
1, 167420, Note_off_c, 0, 51, 59
1, 167428, Note_off_c, 0, 48, 63
1, 167520, Note_on_c, 0, 51, 57
1, 167528, Note_on_c, 0, 42, 38
1, 167536, Note_on_c, 0, 48, 54
1, 167573, Note_off_c, 0, 51, 58
1, 167577, Note_off_c, 0, 48, 58
1, 167580, Note_off_c, 0, 42, 56
1, 167688, Note_on_c, 0, 48, 49
1, 167696, Note_on_c, 0, 42, 41
1, 167702, Note_on_c, 0, 51, 39
1, 167732, Note_off_c, 0, 51, 53
1, 167735, Note_off_c, 0, 42, 51
1, 167741, Note_off_c, 0, 48, 60
1, 167807, Control_c, 0, 67, 8
1, 167822, Control_c, 0, 67, 9
1, 167836, Control_c, 0, 67, 10
1, 167851, Control_c, 0, 67, 11
1, 167854, Note_off_c, 0, 66, 52
1, 167860, Note_on_c, 0, 51, 21
1, 167864, Note_on_c, 0, 48, 51
1, 167866, Control_c, 0, 67, 11
1, 167881, Control_c, 0, 67, 12
1, 167896, Control_c, 0, 67, 13
1, 167898, Note_off_c, 0, 48, 62
1, 167903, Note_off_c, 0, 51, 49
1, 167911, Control_c, 0, 67, 15
1, 167926, Control_c, 0, 67, 17
1, 167941, Control_c, 0, 67, 18
1, 167962, Control_c, 0, 67, 18
1, 167977, Control_c, 0, 67, 20
1, 167992, Control_c, 0, 67, 23
1, 168007, Control_c, 0, 67, 26
1, 168022, Control_c, 0, 67, 27
1, 168036, Control_c, 0, 67, 27
1, 168051, Control_c, 0, 67, 28
1, 168066, Control_c, 0, 67, 30
1, 168081, Control_c, 0, 67, 36
1, 168096, Control_c, 0, 67, 40
1, 168111, Control_c, 0, 64, 109
1, 168111, Control_c, 0, 67, 43
1, 168126, Control_c, 0, 64, 94
1, 168126, Control_c, 0, 67, 44
1, 168141, Control_c, 0, 64, 78
1, 168141, Control_c, 0, 67, 47
1, 168156, Control_c, 0, 64, 63
1, 168156, Control_c, 0, 67, 54
1, 168171, Control_c, 0, 64, 0
1, 168171, Control_c, 0, 67, 67
1, 168180, Note_on_c, 0, 67, 54
1, 168181, Note_on_c, 0, 47, 43
1, 168185, Control_c, 0, 67, 93
1, 168189, Note_on_c, 0, 55, 43
1, 168191, Note_on_c, 0, 43, 40
1, 168192, Note_on_c, 0, 50, 33
1, 168200, Control_c, 0, 67, 122
1, 168215, Control_c, 0, 67, 127
1, 168322, Note_off_c, 0, 55, 52
1, 168386, Note_off_c, 0, 67, 0
1, 168406, Note_on_c, 0, 67, 19
1, 168420, Note_on_c, 0, 55, 28
1, 168475, Note_off_c, 0, 55, 43
1, 168525, Note_off_c, 0, 67, 0
1, 168540, Note_on_c, 0, 67, 32
1, 168552, Note_on_c, 0, 55, 29
1, 168594, Note_off_c, 0, 55, 47
1, 168597, Note_off_c, 0, 67, 56
1, 168682, Note_on_c, 0, 67, 33
1, 168695, Note_on_c, 0, 55, 35
1, 168737, Note_off_c, 0, 55, 51
1, 168748, Note_off_c, 0, 67, 42
1, 168816, Note_on_c, 0, 67, 32
1, 168828, Note_on_c, 0, 55, 36
1, 168866, Note_off_c, 0, 55, 48
1, 168868, Note_off_c, 0, 67, 54
1, 168958, Note_on_c, 0, 67, 40
1, 168967, Note_on_c, 0, 55, 38
1, 169003, Note_off_c, 0, 55, 49
1, 169006, Note_off_c, 0, 67, 48
1, 169082, Control_c, 0, 64, 22
1, 169094, Note_on_c, 0, 67, 39
1, 169097, Control_c, 0, 64, 30
1, 169098, Note_on_c, 0, 55, 40
1, 169112, Control_c, 0, 64, 37
1, 169127, Control_c, 0, 64, 41
1, 169136, Note_off_c, 0, 55, 49
1, 169141, Control_c, 0, 64, 45
1, 169142, Note_off_c, 0, 67, 48
1, 169156, Control_c, 0, 64, 48
1, 169171, Control_c, 0, 64, 50
1, 169186, Control_c, 0, 64, 51
1, 169201, Control_c, 0, 64, 52
1, 169215, Control_c, 0, 64, 52
1, 169229, Note_on_c, 0, 67, 34
1, 169230, Control_c, 0, 64, 53
1, 169232, Note_on_c, 0, 55, 42
1, 169245, Control_c, 0, 64, 54
1, 169260, Control_c, 0, 64, 55
1, 169266, Note_off_c, 0, 55, 53
1, 169275, Note_off_c, 0, 67, 48
1, 169275, Control_c, 0, 64, 56
1, 169289, Control_c, 0, 64, 56
1, 169304, Control_c, 0, 64, 57
1, 169319, Control_c, 0, 64, 57
1, 169333, Control_c, 0, 64, 58
1, 169348, Control_c, 0, 64, 59
1, 169363, Control_c, 0, 64, 61
1, 169371, Note_on_c, 0, 67, 37
1, 169374, Note_on_c, 0, 55, 37
1, 169378, Control_c, 0, 64, 62
1, 169390, Note_off_c, 0, 47, 45
1, 169393, Control_c, 0, 64, 63
1, 169407, Control_c, 0, 64, 64
1, 169411, Note_off_c, 0, 55, 49
1, 169417, Note_off_c, 0, 67, 46
1, 169422, Control_c, 0, 64, 65
1, 169432, Note_off_c, 0, 43, 44
1, 169489, Control_c, 0, 64, 64
1, 169504, Control_c, 0, 64, 63
1, 169518, Note_on_c, 0, 47, 44
1, 169519, Control_c, 0, 64, 62
1, 169525, Note_on_c, 0, 67, 37
1, 169533, Control_c, 0, 64, 58
1, 169536, Note_on_c, 0, 55, 35
1, 169548, Control_c, 0, 64, 54
1, 169563, Control_c, 0, 64, 52
1, 169572, Note_off_c, 0, 55, 50
1, 169578, Note_off_c, 0, 67, 50
1, 169578, Control_c, 0, 64, 52
1, 169579, Note_off_c, 0, 50, 40
1, 169593, Control_c, 0, 64, 52
1, 169607, Control_c, 0, 64, 53
1, 169622, Control_c, 0, 64, 54
1, 169637, Control_c, 0, 64, 55
1, 169652, Control_c, 0, 64, 57
1, 169667, Control_c, 0, 64, 60
1, 169668, Note_on_c, 0, 67, 34
1, 169673, Note_on_c, 0, 55, 43
1, 169682, Control_c, 0, 64, 62
1, 169697, Control_c, 0, 64, 63
1, 169707, Note_off_c, 0, 55, 52
1, 169711, Control_c, 0, 64, 64
1, 169713, Note_off_c, 0, 67, 47
1, 169726, Control_c, 0, 64, 64
1, 169771, Control_c, 0, 64, 65
1, 169804, Note_on_c, 0, 67, 31
1, 169807, Note_on_c, 0, 55, 37
1, 169843, Note_off_c, 0, 55, 51
1, 169847, Note_off_c, 0, 67, 46
1, 169872, Note_on_c, 0, 48, 48
1, 169881, Note_off_c, 0, 47, 52
1, 169890, Control_c, 0, 64, 64
1, 169905, Control_c, 0, 64, 64
1, 169920, Control_c, 0, 64, 61
1, 169935, Control_c, 0, 64, 56
1, 169950, Control_c, 0, 64, 51
1, 169962, Note_off_c, 0, 48, 64
1, 169964, Control_c, 0, 64, 46
1, 169979, Control_c, 0, 64, 37
1, 169986, Note_on_c, 0, 67, 39
1, 169990, Note_on_c, 0, 50, 50
1, 169994, Note_on_c, 0, 55, 37
1, 169994, Control_c, 0, 64, 23
1, 170009, Control_c, 0, 64, 11
1, 170024, Control_c, 0, 64, 22
1, 170038, Control_c, 0, 64, 34
1, 170045, Note_off_c, 0, 55, 55
1, 170050, Note_off_c, 0, 67, 58
1, 170053, Control_c, 0, 64, 46
1, 170068, Control_c, 0, 64, 55
1, 170082, Control_c, 0, 64, 60
1, 170097, Control_c, 0, 64, 62
1, 170112, Control_c, 0, 64, 63
1, 170127, Control_c, 0, 64, 64
1, 170142, Control_c, 0, 64, 64
1, 170152, Note_on_c, 0, 67, 25
1, 170157, Note_on_c, 0, 55, 31
1, 170171, Control_c, 0, 64, 65
1, 170186, Control_c, 0, 64, 65
1, 170197, Note_off_c, 0, 55, 49
1, 170198, Note_off_c, 0, 67, 46
1, 170224, Control_c, 0, 64, 66
1, 170282, Control_c, 0, 64, 66
1, 170299, Note_on_c, 0, 67, 30
1, 170300, Note_on_c, 0, 55, 31
1, 170329, Note_off_c, 0, 50, 52
1, 170334, Note_off_c, 0, 55, 50
1, 170334, Note_off_c, 0, 67, 50
1, 170401, Control_c, 0, 64, 65
1, 170416, Control_c, 0, 64, 64
1, 170428, Note_on_c, 0, 50, 45
1, 170430, Control_c, 0, 64, 62
1, 170436, Note_on_c, 0, 55, 44
1, 170443, Note_on_c, 0, 67, 39
1, 170445, Control_c, 0, 64, 60
1, 170460, Control_c, 0, 64, 57
1, 170475, Control_c, 0, 64, 57
1, 170480, Note_off_c, 0, 55, 46
1, 170481, Note_off_c, 0, 67, 49
1, 170519, Control_c, 0, 64, 57
1, 170535, Control_c, 0, 64, 58
1, 170550, Control_c, 0, 64, 60
1, 170565, Control_c, 0, 64, 63
1, 170579, Note_on_c, 0, 67, 42
1, 170580, Control_c, 0, 64, 64
1, 170581, Note_on_c, 0, 55, 39
1, 170594, Control_c, 0, 64, 65
1, 170609, Control_c, 0, 64, 66
1, 170618, Note_off_c, 0, 67, 49
1, 170620, Note_off_c, 0, 55, 49
1, 170624, Control_c, 0, 64, 66
1, 170639, Control_c, 0, 64, 67
1, 170653, Control_c, 0, 64, 68
1, 170668, Control_c, 0, 64, 69
1, 170683, Control_c, 0, 64, 70
1, 170698, Control_c, 0, 64, 71
1, 170707, Note_on_c, 0, 67, 46
1, 170708, Note_on_c, 0, 55, 43
1, 170713, Control_c, 0, 64, 72
1, 170729, Note_off_c, 0, 50, 59
1, 170753, Note_off_c, 0, 55, 46
1, 170755, Note_off_c, 0, 67, 54
1, 170802, Control_c, 0, 64, 71
1, 170817, Control_c, 0, 64, 70
1, 170832, Control_c, 0, 64, 66
1, 170847, Control_c, 0, 64, 63
1, 170849, Note_on_c, 0, 50, 57
1, 170857, Note_on_c, 0, 67, 46
1, 170861, Control_c, 0, 64, 58
1, 170871, Note_on_c, 0, 55, 24
1, 170876, Control_c, 0, 64, 56
1, 170896, Note_off_c, 0, 67, 50
1, 170905, Control_c, 0, 64, 55
1, 170910, Note_off_c, 0, 55, 52
1, 170935, Control_c, 0, 64, 56
1, 170957, Control_c, 0, 64, 57
1, 170972, Control_c, 0, 64, 60
1, 170987, Control_c, 0, 64, 63
1, 171002, Control_c, 0, 64, 64
1, 171004, Note_on_c, 0, 55, 45
1, 171014, Note_on_c, 0, 67, 37
1, 171017, Control_c, 0, 64, 65
1, 171032, Control_c, 0, 64, 66
1, 171040, Note_off_c, 0, 55, 51
1, 171044, Note_off_c, 0, 67, 53
1, 171047, Control_c, 0, 64, 67
1, 171061, Control_c, 0, 64, 68
1, 171076, Control_c, 0, 64, 69
1, 171091, Control_c, 0, 64, 69
1, 171134, Note_on_c, 0, 67, 52
1, 171141, Note_on_c, 0, 55, 43
1, 171174, Note_off_c, 0, 67, 50
1, 171178, Note_off_c, 0, 55, 49
1, 171179, Control_c, 0, 64, 69
1, 171194, Control_c, 0, 64, 68
1, 171209, Control_c, 0, 64, 67
1, 171225, Control_c, 0, 64, 65
1, 171240, Control_c, 0, 64, 62
1, 171254, Control_c, 0, 64, 58
1, 171269, Control_c, 0, 64, 53
1, 171273, Note_off_c, 0, 50, 60
1, 171276, Note_on_c, 0, 48, 55
1, 171284, Control_c, 0, 64, 49
1, 171295, Note_on_c, 0, 55, 33
1, 171295, Note_on_c, 0, 67, 35
1, 171299, Control_c, 0, 64, 44
1, 171313, Control_c, 0, 64, 39
1, 171329, Control_c, 0, 64, 34
1, 171330, Note_off_c, 0, 55, 51
1, 171333, Note_off_c, 0, 67, 49
1, 171344, Control_c, 0, 64, 30
1, 171374, Control_c, 0, 64, 33
1, 171389, Control_c, 0, 64, 37
1, 171403, Control_c, 0, 64, 44
1, 171418, Control_c, 0, 64, 55
1, 171432, Note_on_c, 0, 55, 39
1, 171433, Control_c, 0, 64, 61
1, 171434, Note_on_c, 0, 67, 35
1, 171448, Control_c, 0, 64, 64
1, 171462, Note_off_c, 0, 55, 54
1, 171463, Control_c, 0, 64, 65
1, 171470, Note_off_c, 0, 67, 49
1, 171477, Control_c, 0, 64, 66
1, 171492, Control_c, 0, 64, 67
1, 171507, Control_c, 0, 64, 68
1, 171522, Control_c, 0, 64, 68
1, 171536, Control_c, 0, 64, 69
1, 171554, Note_on_c, 0, 67, 50
1, 171559, Note_on_c, 0, 55, 45
1, 171596, Note_off_c, 0, 55, 48
1, 171599, Note_off_c, 0, 67, 56
1, 171610, Control_c, 0, 64, 68
1, 171625, Note_on_c, 0, 50, 55
1, 171640, Control_c, 0, 64, 68
1, 171655, Note_off_c, 0, 48, 62
1, 171655, Control_c, 0, 64, 67
1, 171670, Control_c, 0, 64, 66
1, 171685, Control_c, 0, 64, 65
1, 171707, Control_c, 0, 64, 63
1, 171722, Control_c, 0, 64, 62
1, 171736, Control_c, 0, 64, 61
1, 171751, Control_c, 0, 64, 59
1, 171766, Control_c, 0, 64, 54
1, 171781, Control_c, 0, 64, 46
1, 171789, Note_on_c, 0, 51, 63
1, 171789, Note_on_c, 0, 55, 41
1, 171791, Note_on_c, 0, 67, 33
1, 171796, Control_c, 0, 64, 40
1, 171810, Note_off_c, 0, 50, 62
1, 171810, Control_c, 0, 64, 38
1, 171825, Control_c, 0, 64, 37
1, 171840, Control_c, 0, 64, 34
1, 171855, Control_c, 0, 64, 32
1, 171878, Note_off_c, 0, 67, 50
1, 171885, Control_c, 0, 64, 34
1, 171897, Note_off_c, 0, 55, 38
1, 171899, Control_c, 0, 64, 37
1, 171914, Control_c, 0, 64, 40
1, 171929, Control_c, 0, 64, 42
1, 171944, Control_c, 0, 64, 45
1, 171959, Control_c, 0, 64, 49
1, 171974, Control_c, 0, 64, 53
1, 171980, Note_on_c, 0, 55, 39
1, 171981, Note_on_c, 0, 67, 37
1, 171989, Control_c, 0, 64, 56
1, 172003, Control_c, 0, 64, 58
1, 172018, Control_c, 0, 64, 60
1, 172033, Note_off_c, 0, 55, 55
1, 172033, Control_c, 0, 64, 61
1, 172034, Note_off_c, 0, 67, 50
1, 172048, Control_c, 0, 64, 62
1, 172062, Control_c, 0, 64, 63
1, 172077, Control_c, 0, 64, 64
1, 172107, Note_on_c, 0, 55, 41
1, 172111, Note_on_c, 0, 67, 46
1, 172158, Note_off_c, 0, 55, 56
1, 172159, Note_off_c, 0, 67, 58
1, 172212, Control_c, 0, 64, 64
1, 172250, Note_on_c, 0, 55, 40
1, 172250, Note_on_c, 0, 67, 44
1, 172286, Note_off_c, 0, 55, 50
1, 172286, Note_off_c, 0, 67, 51
1, 172315, Control_c, 0, 64, 65
1, 172359, Control_c, 0, 64, 65
1, 172385, Note_on_c, 0, 55, 43
1, 172385, Note_on_c, 0, 67, 43
1, 172422, Note_off_c, 0, 51, 59
1, 172422, Note_off_c, 0, 67, 50
1, 172425, Note_off_c, 0, 55, 47
1, 172456, Note_on_c, 0, 50, 51
1, 172537, Note_on_c, 0, 67, 43
1, 172543, Note_on_c, 0, 55, 42
1, 172545, Control_c, 0, 64, 65
1, 172576, Note_off_c, 0, 67, 51
1, 172579, Note_off_c, 0, 55, 51
1, 172604, Control_c, 0, 64, 64
1, 172619, Control_c, 0, 64, 64
1, 172633, Control_c, 0, 64, 63
1, 172648, Control_c, 0, 64, 61
1, 172663, Control_c, 0, 64, 58
1, 172666, Note_off_c, 0, 50, 60
1, 172677, Control_c, 0, 64, 53
1, 172680, Note_on_c, 0, 67, 47
1, 172683, Note_on_c, 0, 55, 47
1, 172685, Note_on_c, 0, 48, 53
1, 172692, Control_c, 0, 64, 49
1, 172707, Control_c, 0, 64, 48
1, 172721, Note_off_c, 0, 67, 53
1, 172722, Note_off_c, 0, 55, 50
1, 172737, Control_c, 0, 64, 49
1, 172752, Control_c, 0, 64, 51
1, 172767, Control_c, 0, 64, 54
1, 172782, Control_c, 0, 64, 58
1, 172797, Control_c, 0, 64, 62
1, 172812, Control_c, 0, 64, 63
1, 172821, Note_on_c, 0, 67, 47
1, 172824, Note_on_c, 0, 55, 45
1, 172826, Control_c, 0, 64, 64
1, 172841, Control_c, 0, 64, 65
1, 172857, Note_off_c, 0, 67, 52
1, 172860, Note_off_c, 0, 55, 51
1, 172871, Control_c, 0, 64, 65
1, 172885, Control_c, 0, 64, 66
1, 172900, Control_c, 0, 64, 66
1, 172915, Control_c, 0, 64, 67
1, 172965, Note_on_c, 0, 55, 38
1, 172966, Note_on_c, 0, 67, 31
1, 172975, Control_c, 0, 64, 66
1, 172990, Control_c, 0, 64, 66
1, 172996, Note_off_c, 0, 67, 49
1, 172997, Note_off_c, 0, 55, 51
1, 173005, Control_c, 0, 64, 64
1, 173020, Control_c, 0, 64, 60
1, 173035, Control_c, 0, 64, 52
1, 173049, Control_c, 0, 64, 42
1, 173064, Note_off_c, 0, 48, 54
1, 173064, Control_c, 0, 64, 32
1, 173070, Note_on_c, 0, 46, 52
1, 173079, Control_c, 0, 64, 22
1, 173095, Note_on_c, 0, 67, 47
1, 173097, Note_on_c, 0, 55, 44
1, 173108, Control_c, 0, 64, 28
1, 173123, Control_c, 0, 64, 37
1, 173134, Note_off_c, 0, 67, 49
1, 173138, Control_c, 0, 64, 46
1, 173140, Note_off_c, 0, 55, 46
1, 173153, Control_c, 0, 64, 55
1, 173168, Control_c, 0, 64, 61
1, 173182, Control_c, 0, 64, 64
1, 173205, Control_c, 0, 64, 65
1, 173220, Control_c, 0, 64, 66
1, 173226, Note_on_c, 0, 67, 49
1, 173232, Note_on_c, 0, 55, 41
1, 173235, Control_c, 0, 64, 67
1, 173250, Control_c, 0, 64, 67
1, 173267, Note_off_c, 0, 55, 59
1, 173279, Control_c, 0, 64, 68
1, 173292, Note_off_c, 0, 67, 57
1, 173350, Note_on_c, 0, 65, 56
1, 173354, Note_on_c, 0, 53, 60
1, 173394, Note_off_c, 0, 53, 63
1, 173396, Note_off_c, 0, 46, 60
1, 173412, Control_c, 0, 64, 67
1, 173414, Note_off_c, 0, 65, 49
1, 173422, Note_on_c, 0, 44, 44
1, 173442, Control_c, 0, 64, 67
1, 173456, Control_c, 0, 64, 66
1, 173470, Control_c, 0, 64, 62
1, 173485, Control_c, 0, 64, 54
1, 173500, Control_c, 0, 64, 39
1, 173508, Note_off_c, 0, 44, 59
1, 173515, Control_c, 0, 64, 16
1, 173530, Control_c, 0, 64, 0
1, 173544, Note_on_c, 0, 43, 56
1, 173546, Note_on_c, 0, 55, 53
1, 173549, Note_on_c, 0, 67, 57
1, 173551, Note_on_c, 0, 60, 50
1, 173555, Note_on_c, 0, 63, 48
1, 173575, Control_c, 0, 64, 39
1, 173589, Control_c, 0, 64, 60
1, 173604, Control_c, 0, 64, 65
1, 173605, Note_off_c, 0, 60, 52
1, 173609, Note_off_c, 0, 63, 46
1, 173611, Note_off_c, 0, 55, 57
1, 173619, Control_c, 0, 64, 67
1, 173628, Note_off_c, 0, 67, 55
1, 173634, Control_c, 0, 64, 68
1, 173648, Control_c, 0, 64, 68
1, 173663, Control_c, 0, 64, 69
1, 173678, Control_c, 0, 64, 69
1, 173693, Control_c, 0, 64, 70
1, 173707, Control_c, 0, 64, 71
1, 173733, Note_on_c, 0, 67, 44
1, 173739, Note_on_c, 0, 60, 40
1, 173740, Note_on_c, 0, 55, 47
1, 173742, Note_on_c, 0, 63, 44
1, 173774, Note_off_c, 0, 63, 55
1, 173774, Note_off_c, 0, 67, 50
1, 173775, Note_off_c, 0, 60, 59
1, 173780, Note_off_c, 0, 55, 48
1, 173827, Control_c, 0, 64, 70
1, 173857, Control_c, 0, 64, 70
1, 173866, Note_on_c, 0, 55, 45
1, 173870, Note_off_c, 0, 43, 41
1, 173873, Note_on_c, 0, 67, 32
1, 173882, Note_on_c, 0, 63, 36
1, 173888, Note_on_c, 0, 60, 36
1, 173907, Note_off_c, 0, 67, 49
1, 173908, Note_off_c, 0, 55, 47
1, 173912, Note_off_c, 0, 63, 49
1, 173916, Control_c, 0, 64, 69
1, 173917, Note_off_c, 0, 60, 45
1, 173930, Control_c, 0, 64, 68
1, 173953, Control_c, 0, 64, 64
1, 173968, Control_c, 0, 64, 57
1, 173983, Control_c, 0, 64, 48
1, 173988, Note_on_c, 0, 43, 52
1, 173998, Control_c, 0, 64, 44
1, 174001, Note_on_c, 0, 55, 43
1, 174008, Note_on_c, 0, 67, 37
1, 174009, Note_on_c, 0, 63, 45
1, 174012, Control_c, 0, 64, 45
1, 174017, Note_on_c, 0, 60, 42
1, 174027, Control_c, 0, 64, 47
1, 174039, Note_off_c, 0, 63, 56
1, 174040, Note_off_c, 0, 67, 52
1, 174041, Note_off_c, 0, 55, 49
1, 174042, Note_off_c, 0, 60, 57
1, 174042, Control_c, 0, 64, 51
1, 174057, Control_c, 0, 64, 55
1, 174072, Control_c, 0, 64, 59
1, 174086, Control_c, 0, 64, 62
1, 174101, Control_c, 0, 64, 64
1, 174116, Control_c, 0, 64, 65
1, 174129, Note_on_c, 0, 63, 46
1, 174130, Control_c, 0, 64, 65
1, 174135, Note_on_c, 0, 55, 30
1, 174136, Note_on_c, 0, 60, 48
1, 174136, Note_on_c, 0, 67, 33
1, 174145, Control_c, 0, 64, 66
1, 174159, Note_off_c, 0, 63, 57
1, 174160, Control_c, 0, 64, 66
1, 174162, Note_off_c, 0, 60, 58
1, 174166, Note_off_c, 0, 67, 52
1, 174171, Note_off_c, 0, 55, 50
1, 174190, Control_c, 0, 64, 67
1, 174219, Control_c, 0, 64, 67
1, 174234, Control_c, 0, 64, 68
1, 174246, Note_off_c, 0, 43, 54
1, 174249, Control_c, 0, 64, 68
1, 174254, Note_on_c, 0, 67, 45
1, 174257, Note_on_c, 0, 55, 45
1, 174260, Note_on_c, 0, 63, 46
1, 174260, Note_on_c, 0, 60, 51
1, 174281, Note_off_c, 0, 67, 55
1, 174283, Note_off_c, 0, 60, 58
1, 174286, Note_off_c, 0, 63, 57
1, 174293, Control_c, 0, 64, 68
1, 174296, Note_off_c, 0, 55, 47
1, 174308, Control_c, 0, 64, 66
1, 174323, Control_c, 0, 64, 62
1, 174338, Control_c, 0, 64, 47
1, 174353, Control_c, 0, 64, 0
1, 174365, Note_on_c, 0, 67, 62
1, 174374, Note_on_c, 0, 43, 53
1, 174382, Note_on_c, 0, 62, 57
1, 174383, Note_on_c, 0, 59, 56
1, 174386, Note_on_c, 0, 55, 55
1, 174421, Note_off_c, 0, 55, 49
1, 174422, Note_off_c, 0, 59, 61
1, 174422, Note_off_c, 0, 67, 58
1, 174425, Note_off_c, 0, 62, 59
1, 174427, Control_c, 0, 64, 33
1, 174442, Control_c, 0, 64, 56
1, 174456, Control_c, 0, 64, 62
1, 174471, Control_c, 0, 64, 63
1, 174486, Control_c, 0, 64, 64
1, 174501, Control_c, 0, 64, 64
1, 174504, Note_on_c, 0, 67, 46
1, 174508, Note_on_c, 0, 55, 53
1, 174511, Note_on_c, 0, 62, 45
1, 174516, Control_c, 0, 64, 65
1, 174520, Note_on_c, 0, 59, 40
1, 174532, Control_c, 0, 64, 66
1, 174542, Note_off_c, 0, 55, 54
1, 174545, Note_off_c, 0, 67, 53
1, 174546, Control_c, 0, 64, 67
1, 174549, Note_off_c, 0, 62, 54
1, 174551, Note_off_c, 0, 59, 53
1, 174576, Note_off_c, 0, 43, 49
1, 174591, Control_c, 0, 64, 67
1, 174630, Note_on_c, 0, 67, 47
1, 174636, Note_on_c, 0, 55, 45
1, 174642, Note_on_c, 0, 62, 50
1, 174649, Note_on_c, 0, 59, 42
1, 174669, Note_off_c, 0, 55, 50
1, 174677, Note_off_c, 0, 67, 49
1, 174679, Note_off_c, 0, 59, 53
1, 174679, Note_off_c, 0, 62, 61
1, 174702, Control_c, 0, 64, 67
1, 174716, Control_c, 0, 64, 66
1, 174731, Control_c, 0, 64, 63
1, 174746, Control_c, 0, 64, 57
1, 174761, Control_c, 0, 64, 47
1, 174767, Note_on_c, 0, 67, 39
1, 174776, Note_on_c, 0, 59, 54
1, 174776, Control_c, 0, 64, 39
1, 174778, Note_on_c, 0, 62, 53
1, 174779, Note_on_c, 0, 55, 43
1, 174786, Note_on_c, 0, 43, 42
1, 174791, Control_c, 0, 64, 33
1, 174806, Control_c, 0, 64, 29
1, 174813, Note_off_c, 0, 55, 52
1, 174814, Note_off_c, 0, 59, 61
1, 174815, Note_off_c, 0, 62, 62
1, 174821, Control_c, 0, 64, 26
1, 174822, Note_off_c, 0, 67, 51
1, 174835, Control_c, 0, 64, 20
1, 174850, Control_c, 0, 64, 22
1, 174865, Control_c, 0, 64, 31
1, 174879, Control_c, 0, 64, 43
1, 174894, Control_c, 0, 64, 55
1, 174908, Note_on_c, 0, 67, 37
1, 174909, Control_c, 0, 64, 63
1, 174910, Note_on_c, 0, 62, 50
1, 174915, Note_on_c, 0, 59, 48
1, 174916, Note_on_c, 0, 55, 43
1, 174924, Control_c, 0, 64, 64
1, 174939, Control_c, 0, 64, 65
1, 174950, Note_off_c, 0, 59, 55
1, 174951, Note_off_c, 0, 55, 50
1, 174951, Note_off_c, 0, 62, 60
1, 174953, Control_c, 0, 64, 66
1, 174958, Note_off_c, 0, 67, 50
1, 174968, Control_c, 0, 64, 67
1, 174983, Control_c, 0, 64, 68
1, 174998, Control_c, 0, 64, 69
1, 175013, Control_c, 0, 64, 70
1, 175027, Control_c, 0, 64, 70
1, 175047, Note_on_c, 0, 55, 55
1, 175050, Note_on_c, 0, 62, 57
1, 175057, Control_c, 0, 64, 71
1, 175058, Note_on_c, 0, 59, 45
1, 175058, Note_on_c, 0, 67, 44
1, 175083, Note_off_c, 0, 55, 52
1, 175086, Note_off_c, 0, 59, 54
1, 175088, Note_off_c, 0, 62, 61
1, 175097, Note_off_c, 0, 67, 56
1, 175119, Note_off_c, 0, 43, 42
1, 175131, Control_c, 0, 64, 70
1, 175146, Control_c, 0, 64, 69
1, 175161, Control_c, 0, 64, 66
1, 175175, Control_c, 0, 64, 61
1, 175190, Control_c, 0, 64, 49
1, 175205, Control_c, 0, 64, 39
1, 175220, Control_c, 0, 64, 25
1, 175220, Note_on_c, 0, 67, 46
1, 175222, Note_on_c, 0, 48, 48
1, 175223, Note_on_c, 0, 60, 54
1, 175230, Note_on_c, 0, 63, 49
1, 175235, Control_c, 0, 64, 0
1, 175243, Note_on_c, 0, 55, 23
1, 175294, Control_c, 0, 64, 11
1, 175309, Control_c, 0, 64, 39
1, 175325, Control_c, 0, 64, 52
1, 175339, Control_c, 0, 64, 60
1, 175345, Note_off_c, 0, 60, 53
1, 175354, Note_off_c, 0, 63, 59
1, 175354, Control_c, 0, 64, 63
1, 175364, Note_off_c, 0, 67, 59
1, 175369, Control_c, 0, 64, 63
1, 175370, Note_off_c, 0, 55, 47
1, 175384, Control_c, 0, 64, 64
1, 175399, Control_c, 0, 64, 65
1, 175414, Control_c, 0, 64, 67
1, 175429, Control_c, 0, 64, 68
1, 175447, Note_on_c, 0, 67, 48
1, 175450, Control_c, 0, 64, 68
1, 175458, Note_on_c, 0, 55, 49
1, 175465, Control_c, 0, 64, 69
1, 175495, Control_c, 0, 64, 69
1, 175497, Note_off_c, 0, 55, 51
1, 175497, Note_off_c, 0, 67, 58
1, 175524, Control_c, 0, 64, 70
1, 175539, Control_c, 0, 64, 71
1, 175569, Control_c, 0, 64, 71
1, 175590, Note_on_c, 0, 67, 52
1, 175595, Note_on_c, 0, 55, 51
1, 175614, Control_c, 0, 64, 72
1, 175629, Control_c, 0, 64, 72
1, 175631, Note_off_c, 0, 67, 60
1, 175633, Note_off_c, 0, 55, 49
1, 175688, Control_c, 0, 64, 73
1, 175702, Control_c, 0, 64, 73
1, 175716, Control_c, 0, 64, 74
1, 175720, Note_on_c, 0, 67, 61
1, 175730, Note_on_c, 0, 55, 53
1, 175746, Control_c, 0, 64, 74
1, 175763, Note_off_c, 0, 67, 59
1, 175774, Note_off_c, 0, 55, 46
1, 175805, Control_c, 0, 64, 75
1, 175820, Control_c, 0, 64, 75
1, 175849, Control_c, 0, 64, 76
1, 175850, Note_on_c, 0, 67, 59
1, 175855, Note_on_c, 0, 55, 57
1, 175879, Control_c, 0, 64, 76
1, 175893, Note_off_c, 0, 55, 62
1, 175894, Note_off_c, 0, 67, 60
1, 175894, Control_c, 0, 64, 77
1, 175909, Control_c, 0, 64, 77
1, 175924, Control_c, 0, 64, 78
1, 175953, Control_c, 0, 64, 78
1, 175968, Control_c, 0, 64, 79
1, 175983, Note_on_c, 0, 55, 63
1, 175983, Control_c, 0, 64, 79
1, 175989, Note_on_c, 0, 67, 62
1, 175998, Control_c, 0, 64, 80
1, 176013, Control_c, 0, 64, 81
1, 176025, Note_off_c, 0, 55, 58
1, 176027, Control_c, 0, 64, 81
1, 176028, Note_off_c, 0, 67, 62
1, 176042, Control_c, 0, 64, 82
1, 176057, Control_c, 0, 64, 83
1, 176072, Control_c, 0, 64, 84
1, 176087, Control_c, 0, 64, 85
1, 176101, Control_c, 0, 64, 87
1, 176117, Control_c, 0, 64, 89
1, 176122, Note_on_c, 0, 55, 66
1, 176123, Note_on_c, 0, 67, 64
1, 176132, Control_c, 0, 64, 92
1, 176136, Note_off_c, 0, 48, 34
1, 176147, Control_c, 0, 64, 95
1, 176159, Note_off_c, 0, 55, 53
1, 176162, Control_c, 0, 64, 100
1, 176163, Note_off_c, 0, 67, 57
1, 176177, Control_c, 0, 64, 105
1, 176198, Control_c, 0, 64, 110
1, 176198, Control_c, 0, 67, 124
1, 176213, Control_c, 0, 64, 115
1, 176213, Control_c, 0, 67, 112
1, 176228, Control_c, 0, 64, 120
1, 176228, Control_c, 0, 67, 98
1, 176243, Control_c, 0, 64, 126
1, 176243, Control_c, 0, 67, 82
1, 176258, Control_c, 0, 64, 127
1, 176258, Control_c, 0, 67, 67
1, 176271, Note_on_c, 0, 55, 65
1, 176271, Note_on_c, 0, 67, 68
1, 176272, Control_c, 0, 67, 52
1, 176287, Control_c, 0, 67, 40
1, 176302, Control_c, 0, 67, 30
1, 176308, Note_off_c, 0, 55, 58
1, 176313, Note_off_c, 0, 67, 59
1, 176317, Control_c, 0, 67, 21
1, 176332, Control_c, 0, 67, 13
1, 176347, Control_c, 0, 67, 0
1, 176407, Note_on_c, 0, 55, 69
1, 176410, Note_on_c, 0, 67, 72
1, 176461, Note_off_c, 0, 55, 61
1, 176462, Note_off_c, 0, 67, 63
1, 176544, Note_on_c, 0, 67, 75
1, 176549, Note_on_c, 0, 55, 68
1, 176550, Note_on_c, 0, 47, 78
1, 176556, Note_on_c, 0, 35, 73
1, 176569, Control_c, 0, 64, 107
1, 176584, Control_c, 0, 64, 95
1, 176598, Control_c, 0, 64, 85
1, 176609, Note_off_c, 0, 67, 62
1, 176613, Note_off_c, 0, 55, 63
1, 176613, Control_c, 0, 64, 77
1, 176628, Control_c, 0, 64, 74
1, 176642, Control_c, 0, 64, 75
1, 176657, Control_c, 0, 64, 78
1, 176672, Control_c, 0, 64, 83
1, 176687, Control_c, 0, 64, 90
1, 176695, Note_on_c, 0, 67, 73
1, 176696, Note_on_c, 0, 55, 73
1, 176702, Control_c, 0, 64, 96
1, 176717, Control_c, 0, 64, 104
1, 176732, Control_c, 0, 64, 109
1, 176735, Note_off_c, 0, 67, 60
1, 176740, Note_off_c, 0, 55, 62
1, 176746, Control_c, 0, 64, 115
1, 176761, Control_c, 0, 64, 120
1, 176776, Control_c, 0, 64, 127
1, 176782, Note_off_c, 0, 47, 64
1, 176785, Note_off_c, 0, 35, 62
1, 176811, Note_on_c, 0, 67, 76
1, 176818, Note_on_c, 0, 55, 72
1, 176854, Note_on_c, 0, 48, 83
1, 176857, Note_on_c, 0, 36, 77
1, 176872, Note_off_c, 0, 67, 58
1, 176878, Note_off_c, 0, 55, 61
1, 176885, Note_off_c, 0, 36, 64
1, 176888, Note_off_c, 0, 48, 65
1, 176962, Control_c, 0, 64, 110
1, 176972, Note_on_c, 0, 50, 90
1, 176974, Note_on_c, 0, 38, 88
1, 176975, Note_on_c, 0, 67, 82
1, 176977, Control_c, 0, 64, 89
1, 176980, Note_on_c, 0, 55, 78
1, 176992, Control_c, 0, 64, 71
1, 177007, Control_c, 0, 64, 0
1, 177051, Note_off_c, 0, 55, 62
1, 177055, Note_off_c, 0, 67, 57
1, 177110, Control_c, 0, 64, 63
1, 177122, Note_on_c, 0, 67, 76
1, 177125, Control_c, 0, 64, 73
1, 177132, Note_on_c, 0, 55, 72
1, 177140, Control_c, 0, 64, 84
1, 177155, Control_c, 0, 64, 98
1, 177170, Control_c, 0, 64, 110
1, 177182, Note_off_c, 0, 67, 63
1, 177183, Note_off_c, 0, 55, 62
1, 177185, Control_c, 0, 64, 121
1, 177200, Control_c, 0, 64, 127
1, 177256, Note_on_c, 0, 67, 79
1, 177259, Note_on_c, 0, 55, 73
1, 177287, Note_off_c, 0, 50, 60
1, 177311, Note_off_c, 0, 38, 61
1, 177317, Note_off_c, 0, 67, 60
1, 177318, Note_off_c, 0, 55, 63
1, 177398, Note_on_c, 0, 50, 93
1, 177402, Note_on_c, 0, 67, 81
1, 177403, Note_on_c, 0, 38, 88
1, 177405, Note_on_c, 0, 55, 79
1, 177408, Control_c, 0, 64, 114
1, 177422, Control_c, 0, 64, 103
1, 177437, Control_c, 0, 64, 93
1, 177452, Control_c, 0, 64, 86
1, 177464, Note_off_c, 0, 55, 61
1, 177464, Note_off_c, 0, 67, 60
1, 177466, Control_c, 0, 64, 82
1, 177481, Control_c, 0, 64, 81
1, 177496, Control_c, 0, 64, 82
1, 177511, Control_c, 0, 64, 85
1, 177526, Control_c, 0, 64, 90
1, 177540, Control_c, 0, 64, 96
1, 177544, Note_on_c, 0, 67, 81
1, 177546, Note_on_c, 0, 55, 78
1, 177555, Control_c, 0, 64, 104
1, 177570, Control_c, 0, 64, 117
1, 177585, Control_c, 0, 64, 127
1, 177597, Note_off_c, 0, 67, 64
1, 177598, Note_off_c, 0, 55, 64
1, 177672, Note_on_c, 0, 67, 85
1, 177673, Note_on_c, 0, 55, 84
1, 177727, Note_off_c, 0, 50, 58
1, 177735, Note_off_c, 0, 55, 61
1, 177736, Note_off_c, 0, 67, 62
1, 177738, Note_off_c, 0, 38, 61
1, 177823, Note_on_c, 0, 67, 88
1, 177825, Note_on_c, 0, 50, 97
1, 177825, Note_on_c, 0, 55, 85
1, 177830, Note_on_c, 0, 38, 94
1, 177845, Control_c, 0, 64, 110
1, 177860, Control_c, 0, 64, 98
1, 177875, Control_c, 0, 64, 89
1, 177885, Note_off_c, 0, 67, 57
1, 177890, Control_c, 0, 64, 86
1, 177897, Note_off_c, 0, 55, 64
1, 177904, Control_c, 0, 64, 85
1, 177919, Control_c, 0, 64, 86
1, 177934, Control_c, 0, 64, 91
1, 177949, Control_c, 0, 64, 97
1, 177964, Control_c, 0, 64, 104
1, 177968, Note_on_c, 0, 67, 91
1, 177971, Note_on_c, 0, 55, 81
1, 177978, Control_c, 0, 64, 109
1, 177993, Control_c, 0, 64, 114
1, 178008, Control_c, 0, 64, 119
1, 178022, Note_off_c, 0, 55, 58
1, 178023, Control_c, 0, 64, 122
1, 178032, Note_off_c, 0, 67, 62
1, 178038, Control_c, 0, 64, 125
1, 178052, Control_c, 0, 64, 127
1, 178098, Note_on_c, 0, 67, 91
1, 178105, Note_on_c, 0, 55, 88
1, 178149, Note_off_c, 0, 50, 58
1, 178150, Note_off_c, 0, 55, 62
1, 178162, Note_off_c, 0, 38, 62
1, 178171, Note_off_c, 0, 67, 60
1, 178231, Control_c, 0, 64, 110
1, 178240, Note_on_c, 0, 68, 93
1, 178242, Note_on_c, 0, 48, 94
1, 178242, Note_on_c, 0, 56, 86
1, 178243, Note_on_c, 0, 36, 93
1, 178245, Control_c, 0, 64, 87
1, 178260, Control_c, 0, 64, 70
1, 178275, Control_c, 0, 64, 0
1, 178320, Note_off_c, 0, 56, 60
1, 178330, Note_off_c, 0, 68, 63
1, 178349, Control_c, 0, 64, 56
1, 178363, Control_c, 0, 64, 70
1, 178378, Control_c, 0, 64, 83
1, 178392, Note_on_c, 0, 68, 91
1, 178393, Control_c, 0, 64, 101
1, 178401, Note_on_c, 0, 56, 82
1, 178408, Control_c, 0, 64, 126
1, 178422, Control_c, 0, 64, 127
1, 178460, Note_off_c, 0, 56, 63
1, 178463, Note_off_c, 0, 68, 61
1, 178481, Note_off_c, 0, 36, 61
1, 178511, Note_off_c, 0, 48, 62
1, 178529, Note_on_c, 0, 68, 95
1, 178532, Note_on_c, 0, 56, 88
1, 178586, Note_off_c, 0, 56, 64
1, 178598, Note_on_c, 0, 50, 98
1, 178603, Note_on_c, 0, 38, 95
1, 178643, Note_off_c, 0, 68, 59
1, 178708, Note_off_c, 0, 50, 64
1, 178712, Note_off_c, 0, 38, 60
1, 178782, Note_on_c, 0, 45, 22
1, 178816, Control_c, 0, 64, 121
1, 178821, Note_off_c, 0, 45, 54
1, 178831, Control_c, 0, 64, 97
1, 178838, Note_on_c, 0, 67, 90
1, 178839, Note_on_c, 0, 55, 83
1, 178845, Note_on_c, 0, 51, 102
1, 178846, Control_c, 0, 64, 79
1, 178851, Note_on_c, 0, 39, 98
1, 178860, Control_c, 0, 64, 63
1, 178875, Control_c, 0, 64, 0
1, 179083, Control_c, 0, 64, 66
1, 179095, Note_off_c, 0, 67, 58
1, 179098, Control_c, 0, 64, 77
1, 179104, Note_off_c, 0, 55, 61
1, 179113, Control_c, 0, 64, 90
1, 179127, Control_c, 0, 64, 100
1, 179142, Control_c, 0, 64, 108
1, 179157, Control_c, 0, 64, 112
1, 179172, Control_c, 0, 64, 114
1, 179180, Note_on_c, 0, 67, 78
1, 179181, Note_on_c, 0, 55, 68
1, 179194, Control_c, 0, 64, 117
1, 179209, Control_c, 0, 64, 121
1, 179224, Control_c, 0, 64, 125
1, 179238, Note_off_c, 0, 55, 62
1, 179238, Control_c, 0, 64, 127
1, 179240, Note_off_c, 0, 67, 59
1, 179322, Note_on_c, 0, 67, 74
1, 179327, Note_on_c, 0, 55, 71
1, 179376, Note_off_c, 0, 55, 60
1, 179376, Note_off_c, 0, 67, 61
1, 179460, Note_on_c, 0, 67, 72
1, 179465, Note_on_c, 0, 55, 70
1, 179511, Note_off_c, 0, 55, 57
1, 179516, Note_off_c, 0, 67, 62
1, 179583, Note_on_c, 0, 67, 69
1, 179590, Note_off_c, 0, 39, 62
1, 179591, Note_off_c, 0, 51, 58
1, 179593, Note_on_c, 0, 55, 68
1, 179644, Note_on_c, 0, 50, 79
1, 179649, Note_off_c, 0, 55, 61
1, 179650, Note_on_c, 0, 38, 73
1, 179650, Note_off_c, 0, 67, 58
1, 179727, Note_on_c, 0, 67, 73
1, 179736, Note_on_c, 0, 55, 69
1, 179766, Note_off_c, 0, 50, 63
1, 179790, Note_off_c, 0, 55, 56
1, 179792, Note_off_c, 0, 67, 60
1, 179805, Note_off_c, 0, 38, 61
1, 179860, Control_c, 0, 64, 108
1, 179872, Note_on_c, 0, 48, 83
1, 179874, Note_on_c, 0, 36, 82
1, 179875, Note_on_c, 0, 67, 76
1, 179875, Control_c, 0, 64, 84
1, 179884, Note_on_c, 0, 55, 68
1, 179890, Control_c, 0, 64, 66
1, 179905, Control_c, 0, 64, 0
1, 179946, Note_off_c, 0, 55, 61
1, 179951, Note_off_c, 0, 67, 59
1, 179972, Control_c, 0, 64, 65
1, 179987, Control_c, 0, 64, 74
1, 180002, Control_c, 0, 64, 83
1, 180016, Control_c, 0, 64, 92
1, 180030, Note_on_c, 0, 67, 69
1, 180031, Control_c, 0, 64, 97
1, 180043, Note_on_c, 0, 55, 65
1, 180046, Control_c, 0, 64, 101
1, 180061, Control_c, 0, 64, 103
1, 180075, Control_c, 0, 64, 106
1, 180082, Note_off_c, 0, 55, 62
1, 180090, Control_c, 0, 64, 109
1, 180091, Note_off_c, 0, 67, 62
1, 180100, Note_off_c, 0, 48, 65
1, 180105, Control_c, 0, 64, 113
1, 180107, Note_off_c, 0, 36, 62
1, 180121, Control_c, 0, 64, 117
1, 180136, Control_c, 0, 64, 119
1, 180151, Control_c, 0, 64, 121
1, 180165, Note_on_c, 0, 67, 67
1, 180165, Control_c, 0, 64, 124
1, 180171, Note_on_c, 0, 55, 66
1, 180180, Control_c, 0, 64, 127
1, 180223, Note_off_c, 0, 55, 59
1, 180223, Note_off_c, 0, 67, 61
1, 180284, Control_c, 0, 64, 117
1, 180298, Control_c, 0, 64, 96
1, 180300, Note_on_c, 0, 67, 70
1, 180306, Note_on_c, 0, 46, 88
1, 180312, Note_on_c, 0, 55, 69
1, 180312, Note_on_c, 0, 34, 78
1, 180313, Control_c, 0, 64, 79
1, 180328, Control_c, 0, 64, 64
1, 180343, Control_c, 0, 64, 16
1, 180358, Control_c, 0, 64, 0
1, 180371, Note_off_c, 0, 67, 62
1, 180372, Control_c, 0, 64, 56
1, 180381, Note_off_c, 0, 55, 53
1, 180387, Control_c, 0, 64, 67
1, 180402, Control_c, 0, 64, 75
1, 180417, Control_c, 0, 64, 83
1, 180430, Note_on_c, 0, 67, 66
1, 180432, Control_c, 0, 64, 92
1, 180437, Note_on_c, 0, 55, 47
1, 180446, Control_c, 0, 64, 101
1, 180461, Control_c, 0, 64, 106
1, 180476, Control_c, 0, 64, 108
1, 180481, Note_off_c, 0, 55, 63
1, 180490, Control_c, 0, 64, 109
1, 180505, Control_c, 0, 64, 111
1, 180510, Note_off_c, 0, 67, 60
1, 180516, Note_off_c, 0, 46, 62
1, 180520, Control_c, 0, 64, 113
1, 180535, Control_c, 0, 64, 115
1, 180538, Note_off_c, 0, 34, 59
1, 180550, Control_c, 0, 64, 116
1, 180565, Control_c, 0, 64, 117
1, 180566, Note_on_c, 0, 65, 72
1, 180571, Note_on_c, 0, 53, 73
1, 180580, Control_c, 0, 64, 117
1, 180595, Control_c, 0, 64, 118
1, 180609, Control_c, 0, 64, 120
1, 180616, Note_off_c, 0, 53, 57
1, 180624, Control_c, 0, 64, 121
1, 180638, Note_off_c, 0, 65, 61
1, 180648, Note_on_c, 0, 44, 74
1, 180656, Note_on_c, 0, 32, 70
1, 180669, Control_c, 0, 64, 122
1, 180690, Control_c, 0, 64, 123
1, 180705, Control_c, 0, 64, 126
1, 180720, Control_c, 0, 64, 127
1, 180724, Note_off_c, 0, 44, 63
1, 180726, Note_off_c, 0, 32, 62
1, 180750, Control_c, 0, 64, 125
1, 180765, Control_c, 0, 64, 111
1, 180780, Control_c, 0, 64, 95
1, 180794, Control_c, 0, 64, 78
1, 180809, Control_c, 0, 64, 61
1, 180823, Note_on_c, 0, 63, 75
1, 180824, Note_on_c, 0, 67, 80
1, 180824, Control_c, 0, 64, 0
1, 180827, Note_on_c, 0, 60, 73
1, 180828, Note_on_c, 0, 43, 83
1, 180828, Note_on_c, 0, 55, 72
1, 180834, Note_on_c, 0, 31, 82
1, 180914, Control_c, 0, 64, 67
1, 180929, Control_c, 0, 64, 81
1, 180944, Control_c, 0, 64, 91
1, 180959, Control_c, 0, 64, 96
1, 180974, Control_c, 0, 64, 99
1, 180988, Control_c, 0, 64, 102
1, 181003, Control_c, 0, 64, 105
1, 181006, Note_off_c, 0, 31, 62
1, 181018, Control_c, 0, 64, 108
1, 181022, Note_off_c, 0, 67, 57
1, 181029, Note_off_c, 0, 43, 61
1, 181030, Note_off_c, 0, 63, 62
1, 181031, Note_off_c, 0, 55, 57
1, 181033, Control_c, 0, 64, 110
1, 181038, Note_off_c, 0, 60, 58
1, 181048, Control_c, 0, 64, 112
1, 181063, Control_c, 0, 64, 113
1, 181078, Control_c, 0, 64, 114
1, 181093, Control_c, 0, 64, 115
1, 181107, Control_c, 0, 64, 116
1, 181122, Control_c, 0, 64, 116
1, 181131, Note_on_c, 0, 67, 61
1, 181137, Note_on_c, 0, 55, 48
1, 181137, Control_c, 0, 64, 117
1, 181137, Note_on_c, 0, 60, 47
1, 181143, Note_on_c, 0, 63, 48
1, 181152, Control_c, 0, 64, 118
1, 181161, Note_off_c, 0, 60, 61
1, 181167, Control_c, 0, 64, 120
1, 181167, Note_off_c, 0, 67, 62
1, 181173, Note_off_c, 0, 55, 50
1, 181174, Note_off_c, 0, 63, 56
1, 181182, Control_c, 0, 64, 121
1, 181196, Control_c, 0, 64, 121
1, 181211, Control_c, 0, 64, 123
1, 181226, Control_c, 0, 64, 125
1, 181240, Control_c, 0, 64, 127
1, 181253, Note_on_c, 0, 60, 51
1, 181256, Note_on_c, 0, 67, 62
1, 181265, Note_on_c, 0, 63, 62
1, 181271, Note_on_c, 0, 55, 51
1, 181296, Note_off_c, 0, 63, 63
1, 181298, Note_off_c, 0, 67, 58
1, 181300, Control_c, 0, 64, 124
1, 181301, Note_off_c, 0, 55, 59
1, 181304, Note_off_c, 0, 60, 61
1, 181314, Control_c, 0, 64, 109
1, 181329, Control_c, 0, 64, 95
1, 181344, Control_c, 0, 64, 81
1, 181359, Control_c, 0, 64, 69
1, 181371, Note_on_c, 0, 31, 67
1, 181371, Note_on_c, 0, 43, 70
1, 181374, Control_c, 0, 64, 59
1, 181386, Note_on_c, 0, 55, 57
1, 181388, Control_c, 0, 64, 47
1, 181395, Note_on_c, 0, 67, 59
1, 181397, Note_on_c, 0, 63, 58
1, 181400, Note_on_c, 0, 60, 55
1, 181403, Control_c, 0, 64, 50
1, 181418, Control_c, 0, 64, 59
1, 181440, Control_c, 0, 64, 66
1, 181444, Note_off_c, 0, 63, 66
1, 181445, Note_off_c, 0, 60, 62
1, 181447, Note_off_c, 0, 67, 60
1, 181447, Note_off_c, 0, 55, 50
1, 181455, Control_c, 0, 64, 74
1, 181470, Control_c, 0, 64, 83
1, 181485, Control_c, 0, 64, 93
1, 181500, Control_c, 0, 64, 101
1, 181514, Control_c, 0, 64, 103
1, 181516, Note_off_c, 0, 43, 60
1, 181519, Note_off_c, 0, 31, 61
1, 181525, Note_on_c, 0, 67, 55
1, 181526, Note_on_c, 0, 55, 40
1, 181527, Note_on_c, 0, 63, 60
1, 181529, Control_c, 0, 64, 105
1, 181532, Note_on_c, 0, 60, 60
1, 181544, Control_c, 0, 64, 107
1, 181559, Control_c, 0, 64, 109
1, 181567, Note_off_c, 0, 63, 59
1, 181570, Note_off_c, 0, 67, 61
1, 181574, Control_c, 0, 64, 112
1, 181578, Note_off_c, 0, 55, 49
1, 181578, Note_off_c, 0, 60, 59
1, 181588, Control_c, 0, 64, 115
1, 181603, Control_c, 0, 64, 118
1, 181618, Control_c, 0, 64, 119
1, 181633, Control_c, 0, 64, 121
1, 181647, Control_c, 0, 64, 123
1, 181662, Control_c, 0, 64, 125
1, 181675, Note_on_c, 0, 63, 59
1, 181677, Control_c, 0, 64, 126
1, 181678, Note_on_c, 0, 60, 52
1, 181679, Note_on_c, 0, 67, 48
1, 181685, Note_on_c, 0, 55, 51
1, 181702, Note_off_c, 0, 60, 55
1, 181710, Note_off_c, 0, 67, 53
1, 181716, Note_off_c, 0, 63, 59
1, 181723, Control_c, 0, 64, 123
1, 181729, Note_off_c, 0, 55, 53
1, 181737, Control_c, 0, 64, 110
1, 181752, Control_c, 0, 64, 95
1, 181767, Control_c, 0, 64, 79
1, 181782, Control_c, 0, 64, 65
1, 181797, Control_c, 0, 64, 0
1, 181803, Note_on_c, 0, 67, 64
1, 181804, Note_on_c, 0, 31, 66
1, 181804, Note_on_c, 0, 43, 69
1, 181811, Note_on_c, 0, 62, 62
1, 181820, Note_on_c, 0, 55, 60
1, 181820, Note_on_c, 0, 59, 57
1, 181871, Control_c, 0, 64, 29
1, 181874, Note_off_c, 0, 55, 56
1, 181874, Note_off_c, 0, 59, 59
1, 181877, Note_off_c, 0, 67, 58
1, 181880, Note_off_c, 0, 62, 59
1, 181885, Control_c, 0, 64, 69
1, 181900, Control_c, 0, 64, 79
1, 181915, Control_c, 0, 64, 89
1, 181921, Note_off_c, 0, 31, 61
1, 181924, Note_off_c, 0, 43, 59
1, 181930, Control_c, 0, 64, 94
1, 181941, Note_on_c, 0, 55, 40
1, 181942, Note_on_c, 0, 62, 52
1, 181942, Note_on_c, 0, 67, 40
1, 181945, Control_c, 0, 64, 95
1, 181949, Note_on_c, 0, 59, 43
1, 181960, Control_c, 0, 64, 96
1, 181975, Control_c, 0, 64, 98
1, 181990, Control_c, 0, 64, 101
1, 181992, Note_off_c, 0, 67, 59
1, 182000, Note_off_c, 0, 55, 54
1, 182000, Note_off_c, 0, 59, 59
1, 182000, Note_off_c, 0, 62, 60
1, 182005, Control_c, 0, 64, 103
1, 182019, Control_c, 0, 64, 104
1, 182034, Control_c, 0, 64, 105
1, 182049, Control_c, 0, 64, 106
1, 182063, Control_c, 0, 64, 108
1, 182078, Control_c, 0, 64, 109
1, 182084, Note_on_c, 0, 55, 40
1, 182088, Note_on_c, 0, 62, 47
1, 182093, Control_c, 0, 64, 110
1, 182094, Note_on_c, 0, 59, 45
1, 182113, Note_on_c, 0, 67, 23
1, 182124, Note_off_c, 0, 59, 53
1, 182129, Note_off_c, 0, 55, 48
1, 182129, Note_off_c, 0, 62, 61
1, 182137, Control_c, 0, 64, 110
1, 182148, Note_off_c, 0, 67, 42
1, 182152, Control_c, 0, 64, 103
1, 182167, Control_c, 0, 64, 90
1, 182190, Control_c, 0, 64, 75
1, 182204, Control_c, 0, 64, 62
1, 182219, Note_on_c, 0, 43, 57
1, 182219, Control_c, 0, 64, 0
1, 182225, Note_on_c, 0, 31, 58
1, 182225, Note_on_c, 0, 59, 50
1, 182230, Note_on_c, 0, 62, 58
1, 182236, Note_on_c, 0, 55, 48
1, 182238, Note_on_c, 0, 67, 49
1, 182263, Control_c, 0, 64, 49
1, 182274, Note_off_c, 0, 62, 57
1, 182276, Note_off_c, 0, 59, 60
1, 182278, Control_c, 0, 64, 65
1, 182281, Note_off_c, 0, 55, 46
1, 182283, Note_off_c, 0, 67, 57
1, 182293, Control_c, 0, 64, 72
1, 182308, Control_c, 0, 64, 81
1, 182323, Control_c, 0, 64, 91
1, 182337, Control_c, 0, 64, 99
1, 182339, Note_off_c, 0, 31, 62
1, 182348, Note_on_c, 0, 67, 49
1, 182352, Control_c, 0, 64, 102
1, 182363, Note_on_c, 0, 62, 48
1, 182365, Note_on_c, 0, 55, 35
1, 182367, Control_c, 0, 64, 103
1, 182374, Note_on_c, 0, 59, 39
1, 182380, Note_off_c, 0, 43, 35
1, 182382, Control_c, 0, 64, 105
1, 182397, Control_c, 0, 64, 109
1, 182407, Note_off_c, 0, 55, 48
1, 182407, Note_off_c, 0, 62, 58
1, 182411, Control_c, 0, 64, 114
1, 182415, Note_off_c, 0, 59, 48
1, 182419, Note_off_c, 0, 67, 54
1, 182426, Control_c, 0, 64, 116
1, 182441, Control_c, 0, 64, 116
1, 182485, Control_c, 0, 64, 117
1, 182520, Note_on_c, 0, 62, 55
1, 182527, Note_on_c, 0, 59, 42
1, 182530, Note_on_c, 0, 55, 38
1, 182540, Note_on_c, 0, 67, 31
1, 182553, Note_off_c, 0, 59, 56
1, 182555, Note_off_c, 0, 62, 62
1, 182560, Note_off_c, 0, 55, 52
1, 182579, Note_off_c, 0, 67, 47
1, 182723, Control_c, 0, 64, 116
1, 182738, Control_c, 0, 64, 115
1, 182753, Control_c, 0, 64, 115
1, 182768, Control_c, 0, 64, 112
1, 182783, Control_c, 0, 64, 107
1, 182798, Control_c, 0, 64, 98
1, 182813, Control_c, 0, 64, 87
1, 182827, Control_c, 0, 64, 76
1, 182842, Control_c, 0, 64, 65
1, 182842, Control_c, 0, 67, 8
1, 182857, Control_c, 0, 64, 46
1, 182857, Control_c, 0, 67, 9
1, 182872, Note_on_c, 0, 63, 33
1, 182872, Control_c, 0, 64, 0
1, 182872, Control_c, 0, 67, 10
1, 182874, Note_on_c, 0, 67, 48
1, 182878, Note_on_c, 0, 60, 38
1, 182883, Note_on_c, 0, 55, 34
1, 182885, Note_on_c, 0, 48, 41
1, 182886, Control_c, 0, 67, 11
1, 182896, Note_on_c, 0, 36, 34
1, 182901, Control_c, 0, 67, 14
1, 182916, Control_c, 0, 67, 17
1, 182938, Control_c, 0, 67, 22
1, 182953, Control_c, 0, 67, 31
1, 182968, Control_c, 0, 67, 42
1, 182982, Control_c, 0, 67, 55
1, 182997, Control_c, 0, 67, 74
1, 183012, Control_c, 0, 67, 99
1, 183027, Control_c, 0, 67, 126
1, 183042, Control_c, 0, 67, 127
1, 183057, Control_c, 0, 64, 51
1, 183072, Control_c, 0, 64, 69
1, 183086, Control_c, 0, 64, 76
1, 183091, Note_off_c, 0, 36, 57
1, 183101, Control_c, 0, 64, 83
1, 183116, Control_c, 0, 64, 87
1, 183131, Control_c, 0, 64, 89
1, 183133, Note_off_c, 0, 48, 52
1, 183146, Control_c, 0, 64, 91
1, 183160, Control_c, 0, 64, 92
1, 183175, Control_c, 0, 64, 92
1, 183190, Control_c, 0, 64, 93
1, 183219, Control_c, 0, 64, 93
1, 183234, Control_c, 0, 64, 94
1, 183322, Note_off_c, 0, 55, 0
1, 183342, Note_on_c, 0, 55, 26
1, 183463, Note_off_c, 0, 55, 0
1, 183479, Note_on_c, 0, 55, 36
1, 183528, Note_off_c, 0, 55, 58
1, 183624, Note_on_c, 0, 55, 38
1, 183662, Note_off_c, 0, 55, 49
1, 183755, Note_on_c, 0, 55, 40
1, 183761, Control_c, 0, 64, 93
1, 183794, Note_off_c, 0, 55, 56
1, 183805, Control_c, 0, 64, 93
1, 183806, Note_off_c, 0, 60, 36
1, 183835, Control_c, 0, 64, 92
1, 183850, Control_c, 0, 64, 92
1, 183880, Control_c, 0, 64, 91
1, 183884, Note_off_c, 0, 63, 41
1, 183895, Control_c, 0, 64, 91
1, 183900, Note_on_c, 0, 55, 32
1, 183933, Note_off_c, 0, 55, 51
1, 183939, Note_off_c, 0, 67, 37
1, 183954, Control_c, 0, 64, 90
1, 184046, Note_on_c, 0, 55, 36
1, 184079, Note_off_c, 0, 55, 52
1, 184102, Control_c, 0, 64, 90
1, 184147, Control_c, 0, 64, 89
1, 184175, Note_on_c, 0, 55, 32
1, 184192, Control_c, 0, 64, 89
1, 184215, Note_off_c, 0, 55, 51
1, 184221, Control_c, 0, 64, 88
1, 184236, Control_c, 0, 64, 88
1, 184251, Control_c, 0, 64, 87
1, 184265, Control_c, 0, 64, 87
1, 184280, Control_c, 0, 64, 86
1, 184295, Control_c, 0, 64, 85
1, 184310, Control_c, 0, 64, 84
1, 184322, Note_on_c, 0, 55, 32
1, 184325, Control_c, 0, 64, 83
1, 184339, Control_c, 0, 64, 82
1, 184354, Control_c, 0, 64, 81
1, 184359, Note_off_c, 0, 55, 49
1, 184369, Control_c, 0, 64, 80
1, 184384, Control_c, 0, 64, 79
1, 184399, Control_c, 0, 64, 78
1, 184436, Control_c, 0, 64, 78
1, 184465, Control_c, 0, 64, 77
1, 184479, Note_on_c, 0, 55, 40
1, 184503, Note_on_c, 0, 71, 47
1, 184510, Control_c, 0, 64, 77
1, 184521, Note_off_c, 0, 55, 49
1, 184525, Control_c, 0, 64, 76
1, 184539, Control_c, 0, 64, 75
1, 184554, Control_c, 0, 64, 73
1, 184569, Control_c, 0, 64, 71
1, 184584, Control_c, 0, 64, 69
1, 184599, Control_c, 0, 64, 66
1, 184613, Control_c, 0, 64, 65
1, 184625, Note_on_c, 0, 55, 40
1, 184671, Note_off_c, 0, 55, 47
1, 184702, Control_c, 0, 64, 66
1, 184766, Note_on_c, 0, 55, 41
1, 184799, Note_on_c, 0, 72, 53
1, 184816, Note_off_c, 0, 55, 48
1, 184919, Note_off_c, 0, 71, 29
1, 184928, Note_on_c, 0, 74, 55
1, 184935, Note_on_c, 0, 55, 40
1, 184938, Note_off_c, 0, 72, 59
1, 184980, Note_off_c, 0, 55, 48
1, 185029, Control_c, 0, 64, 66
1, 185044, Control_c, 0, 64, 68
1, 185059, Control_c, 0, 64, 71
1, 185074, Control_c, 0, 64, 74
1, 185088, Control_c, 0, 64, 77
1, 185103, Control_c, 0, 64, 79
1, 185104, Note_on_c, 0, 55, 17
1, 185118, Control_c, 0, 64, 80
1, 185133, Control_c, 0, 64, 81
1, 185148, Control_c, 0, 64, 82
1, 185153, Note_off_c, 0, 55, 46
1, 185153, Note_off_c, 0, 74, 61
1, 185162, Control_c, 0, 64, 83
1, 185200, Control_c, 0, 64, 83
1, 185222, Note_on_c, 0, 55, 32
1, 185259, Control_c, 0, 64, 84
1, 185271, Note_off_c, 0, 55, 46
1, 185333, Control_c, 0, 64, 83
1, 185348, Control_c, 0, 64, 83
1, 185359, Note_on_c, 0, 55, 39
1, 185359, Note_on_c, 0, 74, 55
1, 185362, Control_c, 0, 64, 82
1, 185375, Note_on_c, 0, 65, 48
1, 185377, Control_c, 0, 64, 81
1, 185392, Control_c, 0, 64, 80
1, 185406, Control_c, 0, 64, 79
1, 185420, Note_off_c, 0, 55, 41
1, 185421, Control_c, 0, 64, 78
1, 185436, Control_c, 0, 64, 77
1, 185499, Note_on_c, 0, 55, 37
1, 185534, Note_off_c, 0, 74, 62
1, 185545, Note_off_c, 0, 55, 48
1, 185555, Control_c, 0, 64, 78
1, 185600, Control_c, 0, 64, 78
1, 185614, Control_c, 0, 64, 79
1, 185643, Note_on_c, 0, 55, 33
1, 185685, Note_off_c, 0, 55, 49
1, 185749, Control_c, 0, 64, 78
1, 185764, Control_c, 0, 64, 78
1, 185778, Control_c, 0, 64, 76
1, 185787, Note_on_c, 0, 74, 53
1, 185789, Note_on_c, 0, 55, 41
1, 185793, Control_c, 0, 64, 74
1, 185795, Note_on_c, 0, 68, 44
1, 185808, Control_c, 0, 64, 71
1, 185823, Control_c, 0, 64, 68
1, 185825, Note_off_c, 0, 55, 50
1, 185837, Control_c, 0, 64, 65
1, 185843, Note_off_c, 0, 68, 0
1, 185843, Note_on_c, 0, 68, 6
1, 185852, Control_c, 0, 64, 64
1, 185867, Control_c, 0, 64, 63
1, 185882, Control_c, 0, 64, 64
1, 185897, Control_c, 0, 64, 64
1, 185899, Note_off_c, 0, 65, 42
1, 185911, Control_c, 0, 64, 65
1, 185934, Note_on_c, 0, 55, 47
1, 185934, Control_c, 0, 64, 66
1, 185948, Control_c, 0, 64, 68
1, 185963, Control_c, 0, 64, 70
1, 185975, Note_off_c, 0, 55, 55
1, 185978, Control_c, 0, 64, 72
1, 185993, Control_c, 0, 64, 73
1, 186008, Control_c, 0, 64, 74
1, 186023, Control_c, 0, 64, 75
1, 186037, Control_c, 0, 64, 75
1, 186052, Control_c, 0, 64, 76
1, 186083, Note_on_c, 0, 55, 31
1, 186115, Note_off_c, 0, 55, 51
1, 186156, Control_c, 0, 64, 75
1, 186171, Control_c, 0, 64, 75
1, 186185, Control_c, 0, 64, 74
1, 186199, Control_c, 0, 64, 72
1, 186214, Control_c, 0, 64, 71
1, 186222, Note_on_c, 0, 55, 52
1, 186223, Note_on_c, 0, 72, 57
1, 186228, Control_c, 0, 64, 69
1, 186243, Control_c, 0, 64, 67
1, 186248, Note_off_c, 0, 74, 61
1, 186258, Control_c, 0, 64, 65
1, 186261, Note_off_c, 0, 68, 59
1, 186268, Note_off_c, 0, 55, 58
1, 186273, Control_c, 0, 64, 64
1, 186288, Control_c, 0, 64, 65
1, 186356, Note_on_c, 0, 55, 45
1, 186376, Control_c, 0, 64, 65
1, 186411, Note_off_c, 0, 55, 56
1, 186505, Note_on_c, 0, 55, 40
1, 186511, Control_c, 0, 64, 65
1, 186564, Note_off_c, 0, 55, 51
1, 186570, Note_on_c, 0, 74, 47
1, 186601, Note_off_c, 0, 72, 61
1, 186644, Control_c, 0, 64, 64
1, 186663, Note_on_c, 0, 55, 37
1, 186690, Note_on_c, 0, 75, 61
1, 186709, Note_off_c, 0, 74, 54
1, 186724, Note_off_c, 0, 55, 55
1, 186770, Control_c, 0, 64, 65
1, 186800, Control_c, 0, 64, 65
1, 186814, Control_c, 0, 64, 66
1, 186817, Note_on_c, 0, 55, 38
1, 186829, Control_c, 0, 64, 67
1, 186844, Control_c, 0, 64, 68
1, 186858, Control_c, 0, 64, 70
1, 186873, Control_c, 0, 64, 72
1, 186884, Note_off_c, 0, 55, 41
1, 186888, Control_c, 0, 64, 74
1, 186903, Control_c, 0, 64, 76
1, 186918, Control_c, 0, 64, 78
1, 186932, Control_c, 0, 64, 79
1, 186947, Control_c, 0, 64, 80
1, 186951, Note_on_c, 0, 55, 40
1, 186962, Control_c, 0, 64, 81
1, 186977, Control_c, 0, 64, 82
1, 187003, Note_off_c, 0, 55, 53
1, 187007, Control_c, 0, 64, 82
1, 187081, Control_c, 0, 64, 83
1, 187101, Note_on_c, 0, 55, 33
1, 187126, Note_on_c, 0, 63, 41
1, 187170, Note_off_c, 0, 55, 40
1, 187194, Note_off_c, 0, 75, 40
1, 187194, Note_off_c, 0, 63, 0
1, 187194, Note_on_c, 0, 63, 3
1, 187255, Note_on_c, 0, 55, 26
1, 187258, Control_c, 0, 64, 83
1, 187293, Note_on_c, 0, 74, 51
1, 187293, Note_off_c, 0, 55, 50
1, 187418, Note_on_c, 0, 55, 20
1, 187469, Note_off_c, 0, 55, 49
1, 187519, Control_c, 0, 64, 83
1, 187534, Control_c, 0, 64, 82
1, 187549, Control_c, 0, 64, 80
1, 187561, Note_on_c, 0, 55, 32
1, 187563, Control_c, 0, 64, 78
1, 187576, Note_on_c, 0, 72, 57
1, 187578, Control_c, 0, 64, 76
1, 187590, Note_on_c, 0, 67, 43
1, 187593, Control_c, 0, 64, 73
1, 187608, Control_c, 0, 64, 69
1, 187613, Note_off_c, 0, 74, 40
1, 187621, Note_off_c, 0, 55, 43
1, 187623, Control_c, 0, 64, 64
1, 187637, Control_c, 0, 64, 62
1, 187667, Control_c, 0, 64, 63
1, 187681, Control_c, 0, 64, 64
1, 187696, Note_on_c, 0, 55, 36
1, 187697, Control_c, 0, 64, 64
1, 187712, Control_c, 0, 64, 65
1, 187727, Control_c, 0, 64, 67
1, 187742, Control_c, 0, 64, 70
1, 187751, Note_off_c, 0, 55, 45
1, 187756, Control_c, 0, 64, 73
1, 187761, Note_off_c, 0, 63, 38
1, 187771, Control_c, 0, 64, 75
1, 187786, Control_c, 0, 64, 76
1, 187800, Control_c, 0, 64, 77
1, 187830, Control_c, 0, 64, 78
1, 187848, Note_on_c, 0, 55, 39
1, 187887, Note_off_c, 0, 55, 49
1, 187926, Note_off_c, 0, 67, 31
1, 187949, Control_c, 0, 64, 77
1, 187964, Control_c, 0, 64, 76
1, 187978, Control_c, 0, 64, 74
1, 187993, Control_c, 0, 64, 72
1, 187994, Note_on_c, 0, 55, 43
1, 187998, Note_on_c, 0, 74, 54
1, 188008, Control_c, 0, 64, 70
1, 188023, Control_c, 0, 64, 69
1, 188028, Note_off_c, 0, 55, 49
1, 188038, Control_c, 0, 64, 67
1, 188050, Note_off_c, 0, 72, 52
1, 188053, Control_c, 0, 64, 67
1, 188098, Control_c, 0, 64, 67
1, 188113, Control_c, 0, 64, 68
1, 188127, Control_c, 0, 64, 69
1, 188133, Note_on_c, 0, 55, 43
1, 188142, Control_c, 0, 64, 71
1, 188157, Control_c, 0, 64, 72
1, 188179, Control_c, 0, 64, 74
1, 188187, Note_off_c, 0, 55, 46
1, 188194, Control_c, 0, 64, 75
1, 188209, Control_c, 0, 64, 76
1, 188283, Note_on_c, 0, 55, 41
1, 188318, Note_on_c, 0, 72, 59
1, 188342, Control_c, 0, 64, 75
1, 188344, Note_off_c, 0, 55, 42
1, 188357, Control_c, 0, 64, 74
1, 188372, Control_c, 0, 64, 72
1, 188387, Control_c, 0, 64, 69
1, 188393, Note_off_c, 0, 74, 37
1, 188402, Control_c, 0, 64, 65
1, 188417, Control_c, 0, 64, 60
1, 188427, Note_on_c, 0, 55, 42
1, 188429, Note_on_c, 0, 71, 61
1, 188431, Control_c, 0, 64, 54
1, 188446, Control_c, 0, 64, 49
1, 188449, Note_off_c, 0, 72, 61
1, 188461, Control_c, 0, 64, 45
1, 188476, Control_c, 0, 64, 38
1, 188479, Note_off_c, 0, 55, 54
1, 188491, Control_c, 0, 64, 26
1, 188505, Control_c, 0, 64, 22
1, 188520, Control_c, 0, 64, 29
1, 188535, Control_c, 0, 64, 42
1, 188550, Control_c, 0, 64, 55
1, 188565, Control_c, 0, 64, 63
1, 188566, Note_on_c, 0, 55, 38
1, 188579, Control_c, 0, 64, 67
1, 188594, Control_c, 0, 64, 70
1, 188609, Control_c, 0, 64, 74
1, 188622, Note_off_c, 0, 55, 43
1, 188623, Control_c, 0, 64, 77
1, 188638, Control_c, 0, 64, 79
1, 188653, Control_c, 0, 64, 80
1, 188668, Control_c, 0, 64, 81
1, 188683, Control_c, 0, 64, 82
1, 188697, Control_c, 0, 64, 82
1, 188703, Note_on_c, 0, 55, 35
1, 188712, Control_c, 0, 64, 83
1, 188727, Control_c, 0, 64, 83
1, 188747, Note_off_c, 0, 55, 48
1, 188771, Control_c, 0, 64, 84
1, 188854, Note_on_c, 0, 69, 62
1, 188856, Note_on_c, 0, 55, 43
1, 188860, Note_on_c, 0, 65, 48
1, 188903, Note_off_c, 0, 55, 49
1, 188908, Note_off_c, 0, 71, 59
1, 189016, Note_on_c, 0, 55, 36
1, 189041, Note_off_c, 0, 65, 59
1, 189050, Note_off_c, 0, 55, 51
1, 189135, Control_c, 0, 64, 84
1, 189159, Note_on_c, 0, 55, 47
1, 189181, Note_on_c, 0, 71, 51
1, 189204, Note_off_c, 0, 55, 50
1, 189210, Control_c, 0, 64, 84
1, 189219, Note_off_c, 0, 69, 61
1, 189224, Control_c, 0, 64, 81
1, 189239, Control_c, 0, 64, 76
1, 189254, Control_c, 0, 64, 68
1, 189269, Note_on_c, 0, 72, 69
1, 189269, Control_c, 0, 64, 57
1, 189279, Note_on_c, 0, 63, 41
1, 189284, Control_c, 0, 64, 0
1, 189294, Note_off_c, 0, 71, 58
1, 189299, Note_on_c, 0, 55, 42
1, 189343, Note_off_c, 0, 55, 47
1, 189358, Control_c, 0, 64, 41
1, 189373, Control_c, 0, 64, 63
1, 189387, Control_c, 0, 64, 68
1, 189402, Control_c, 0, 64, 73
1, 189417, Control_c, 0, 64, 77
1, 189424, Note_on_c, 0, 55, 47
1, 189432, Control_c, 0, 64, 81
1, 189446, Control_c, 0, 64, 84
1, 189461, Control_c, 0, 64, 86
1, 189467, Note_off_c, 0, 55, 62
1, 189476, Control_c, 0, 64, 87
1, 189491, Control_c, 0, 64, 88
1, 189506, Control_c, 0, 64, 88
1, 189520, Control_c, 0, 64, 89
1, 189535, Control_c, 0, 64, 89
1, 189579, Control_c, 0, 64, 90
1, 189582, Note_off_c, 0, 63, 42
1, 189585, Note_on_c, 0, 55, 38
1, 189641, Note_off_c, 0, 55, 43
1, 189720, Note_on_c, 0, 74, 61
1, 189746, Note_on_c, 0, 60, 43
1, 189749, Poly_aftertouch_c, 0, 55, 127
1, 189776, Note_off_c, 0, 72, 54
1, 189797, Poly_aftertouch_c, 0, 55, 0
1, 189847, Note_off_c, 0, 60, 0
1, 189884, Poly_aftertouch_c, 0, 60, 127
1, 189892, Note_on_c, 0, 60, 6
1, 189902, Note_on_c, 0, 55, 38
1, 189932, Note_off_c, 0, 55, 54
1, 190042, Note_on_c, 0, 55, 37
1, 190063, Note_off_c, 0, 74, 61
1, 190065, Note_on_c, 0, 75, 61
1, 190090, Note_off_c, 0, 55, 46
1, 190093, Note_off_c, 0, 60, 39
1, 190209, Control_c, 0, 64, 88
1, 190223, Note_on_c, 0, 74, 50
1, 190224, Control_c, 0, 64, 85
1, 190235, Note_off_c, 0, 75, 37
1, 190239, Control_c, 0, 64, 80
1, 190246, Note_on_c, 0, 68, 58
1, 190249, Note_on_c, 0, 55, 43
1, 190254, Control_c, 0, 64, 73
1, 190269, Control_c, 0, 64, 66
1, 190283, Control_c, 0, 64, 54
1, 190298, Control_c, 0, 64, 34
1, 190312, Note_off_c, 0, 55, 41
1, 190313, Control_c, 0, 64, 27
1, 190328, Control_c, 0, 64, 30
1, 190343, Control_c, 0, 64, 35
1, 190357, Control_c, 0, 64, 40
1, 190372, Control_c, 0, 64, 47
1, 190387, Control_c, 0, 64, 54
1, 190390, Note_on_c, 0, 55, 23
1, 190392, Note_off_c, 0, 68, 61
1, 190393, Note_on_c, 0, 67, 33
1, 190402, Control_c, 0, 64, 57
1, 190424, Control_c, 0, 64, 57
1, 190444, Note_off_c, 0, 55, 48
1, 190450, Note_off_c, 0, 67, 0
1, 190450, Note_on_c, 0, 67, 14
1, 190454, Control_c, 0, 64, 59
1, 190469, Control_c, 0, 64, 63
1, 190483, Control_c, 0, 64, 65
1, 190499, Control_c, 0, 64, 67
1, 190514, Control_c, 0, 64, 68
1, 190527, Note_on_c, 0, 55, 43
1, 190529, Control_c, 0, 64, 68
1, 190544, Control_c, 0, 64, 69
1, 190559, Control_c, 0, 64, 70
1, 190569, Note_off_c, 0, 55, 50
1, 190573, Control_c, 0, 64, 72
1, 190588, Control_c, 0, 64, 74
1, 190603, Control_c, 0, 64, 75
1, 190618, Control_c, 0, 64, 76
1, 190647, Control_c, 0, 64, 76
1, 190661, Note_on_c, 0, 55, 44
1, 190662, Control_c, 0, 64, 77
1, 190677, Control_c, 0, 64, 79
1, 190693, Control_c, 0, 64, 81
1, 190706, Note_off_c, 0, 55, 48
1, 190707, Control_c, 0, 64, 82
1, 190722, Control_c, 0, 64, 82
1, 190737, Control_c, 0, 64, 83
1, 190752, Control_c, 0, 64, 83
1, 190767, Control_c, 0, 64, 85
1, 190781, Control_c, 0, 64, 86
1, 190791, Note_on_c, 0, 55, 48
1, 190796, Control_c, 0, 64, 87
1, 190811, Control_c, 0, 64, 88
1, 190828, Note_off_c, 0, 55, 55
1, 190840, Control_c, 0, 64, 88
1, 190855, Control_c, 0, 64, 89
1, 190870, Control_c, 0, 64, 89
1, 190915, Control_c, 0, 64, 90
1, 190933, Note_on_c, 0, 55, 50
1, 190968, Note_off_c, 0, 55, 53
1, 190992, Note_off_c, 0, 74, 53
1, 191018, Control_c, 0, 67, 127
1, 191025, Note_off_c, 0, 67, 50
1, 191033, Control_c, 0, 67, 124
1, 191048, Control_c, 0, 67, 122
1, 191063, Control_c, 0, 67, 120
1, 191067, Note_on_c, 0, 55, 54
1, 191078, Control_c, 0, 67, 116
1, 191092, Control_c, 0, 67, 113
1, 191103, Note_off_c, 0, 55, 58
1, 191107, Control_c, 0, 67, 108
1, 191122, Control_c, 0, 67, 103
1, 191137, Control_c, 0, 67, 94
1, 191152, Control_c, 0, 67, 84
1, 191167, Control_c, 0, 67, 75
1, 191189, Control_c, 0, 67, 68
1, 191204, Control_c, 0, 67, 62
1, 191210, Note_on_c, 0, 55, 53
1, 191219, Control_c, 0, 67, 56
1, 191233, Control_c, 0, 64, 90
1, 191233, Control_c, 0, 67, 49
1, 191248, Control_c, 0, 67, 44
1, 191249, Note_off_c, 0, 55, 61
1, 191263, Control_c, 0, 67, 39
1, 191278, Control_c, 0, 64, 91
1, 191278, Control_c, 0, 67, 34
1, 191293, Control_c, 0, 67, 29
1, 191308, Control_c, 0, 64, 92
1, 191308, Control_c, 0, 67, 23
1, 191323, Control_c, 0, 64, 93
1, 191323, Control_c, 0, 67, 18
1, 191338, Control_c, 0, 64, 94
1, 191338, Control_c, 0, 67, 14
1, 191344, Note_on_c, 0, 55, 58
1, 191353, Control_c, 0, 64, 95
1, 191353, Control_c, 0, 67, 10
1, 191368, Control_c, 0, 64, 96
1, 191368, Control_c, 0, 67, 0
1, 191384, Note_off_c, 0, 55, 58
1, 191499, Note_on_c, 0, 71, 77
1, 191501, Note_on_c, 0, 59, 68
1, 191501, Control_c, 0, 64, 95
1, 191503, Note_on_c, 0, 55, 57
1, 191503, Note_on_c, 0, 67, 69
1, 191516, Control_c, 0, 64, 93
1, 191530, Control_c, 0, 64, 92
1, 191538, Note_off_c, 0, 55, 62
1, 191545, Control_c, 0, 64, 90
1, 191560, Control_c, 0, 64, 89
1, 191575, Control_c, 0, 64, 89
1, 191626, Note_on_c, 0, 55, 63
1, 191634, Control_c, 0, 64, 90
1, 191648, Control_c, 0, 64, 91
1, 191663, Control_c, 0, 64, 93
1, 191676, Note_off_c, 0, 55, 57
1, 191678, Control_c, 0, 64, 96
1, 191693, Control_c, 0, 64, 99
1, 191708, Control_c, 0, 64, 101
1, 191712, Note_off_c, 0, 59, 61
1, 191722, Control_c, 0, 64, 103
1, 191737, Note_off_c, 0, 71, 61
1, 191737, Control_c, 0, 64, 104
1, 191749, Note_off_c, 0, 67, 63
1, 191752, Control_c, 0, 64, 105
1, 191766, Note_on_c, 0, 55, 61
1, 191767, Control_c, 0, 64, 106
1, 191782, Control_c, 0, 64, 108
1, 191797, Note_on_c, 0, 69, 78
1, 191797, Control_c, 0, 64, 109
1, 191806, Note_on_c, 0, 72, 69
1, 191806, Note_on_c, 0, 60, 65
1, 191810, Note_off_c, 0, 55, 62
1, 191812, Control_c, 0, 64, 109
1, 191835, Note_off_c, 0, 72, 66
1, 191836, Note_off_c, 0, 60, 67
1, 191838, Note_off_c, 0, 69, 63
1, 191856, Control_c, 0, 64, 105
1, 191871, Control_c, 0, 64, 94
1, 191886, Control_c, 0, 64, 79
1, 191899, Note_on_c, 0, 74, 86
1, 191901, Control_c, 0, 64, 63
1, 191901, Note_on_c, 0, 71, 72
1, 191904, Note_on_c, 0, 62, 85
1, 191907, Note_on_c, 0, 55, 66
1, 191922, Control_c, 0, 64, 0
1, 191977, Note_off_c, 0, 55, 59
1, 192027, Control_c, 0, 64, 62
1, 192041, Control_c, 0, 64, 72
1, 192054, Note_on_c, 0, 55, 69
1, 192056, Control_c, 0, 64, 81
1, 192071, Control_c, 0, 64, 90
1, 192086, Control_c, 0, 64, 97
1, 192101, Control_c, 0, 64, 103
1, 192116, Control_c, 0, 64, 108
1, 192119, Note_off_c, 0, 55, 63
1, 192130, Note_off_c, 0, 74, 64
1, 192131, Control_c, 0, 64, 115
1, 192137, Note_off_c, 0, 62, 56
1, 192139, Note_off_c, 0, 71, 58
1, 192146, Control_c, 0, 64, 123
1, 192161, Control_c, 0, 64, 127
1, 192194, Note_on_c, 0, 55, 74
1, 192253, Note_off_c, 0, 55, 61
1, 192294, Control_c, 0, 64, 111
1, 192309, Control_c, 0, 64, 89
1, 192323, Note_on_c, 0, 71, 91
1, 192324, Control_c, 0, 64, 72
1, 192327, Note_on_c, 0, 74, 92
1, 192328, Note_on_c, 0, 62, 89
1, 192335, Note_on_c, 0, 55, 80
1, 192339, Control_c, 0, 64, 50
1, 192340, Note_on_c, 0, 54, 77
1, 192353, Control_c, 0, 64, 0
1, 192397, Control_c, 0, 64, 14
1, 192399, Note_off_c, 0, 55, 64
1, 192400, Note_off_c, 0, 54, 61
1, 192412, Control_c, 0, 64, 65
1, 192427, Control_c, 0, 64, 73
1, 192442, Control_c, 0, 64, 81
1, 192457, Control_c, 0, 64, 90
1, 192461, Note_on_c, 0, 54, 73
1, 192462, Note_on_c, 0, 55, 72
1, 192471, Control_c, 0, 64, 98
1, 192486, Control_c, 0, 64, 107
1, 192501, Control_c, 0, 64, 116
1, 192516, Control_c, 0, 64, 125
1, 192518, Note_off_c, 0, 74, 65
1, 192520, Note_off_c, 0, 55, 63
1, 192520, Note_off_c, 0, 62, 54
1, 192525, Note_off_c, 0, 71, 60
1, 192528, Note_off_c, 0, 54, 60
1, 192531, Control_c, 0, 64, 127
1, 192588, Note_on_c, 0, 54, 75
1, 192590, Note_on_c, 0, 55, 71
1, 192641, Note_off_c, 0, 54, 60
1, 192642, Note_off_c, 0, 55, 64
1, 192701, Control_c, 0, 64, 101
1, 192716, Control_c, 0, 64, 83
1, 192731, Note_on_c, 0, 71, 84
1, 192731, Control_c, 0, 64, 67
1, 192734, Note_on_c, 0, 74, 91
1, 192736, Note_on_c, 0, 53, 90
1, 192736, Note_on_c, 0, 62, 89
1, 192739, Note_on_c, 0, 55, 83
1, 192745, Control_c, 0, 64, 0
1, 192800, Note_off_c, 0, 53, 65
1, 192805, Control_c, 0, 64, 54
1, 192807, Note_off_c, 0, 55, 62
1, 192819, Control_c, 0, 64, 67
1, 192834, Control_c, 0, 64, 73
1, 192849, Control_c, 0, 64, 81
1, 192864, Control_c, 0, 64, 88
1, 192879, Note_on_c, 0, 53, 88
1, 192879, Control_c, 0, 64, 96
1, 192883, Note_on_c, 0, 55, 77
1, 192894, Control_c, 0, 64, 103
1, 192909, Control_c, 0, 64, 109
1, 192924, Note_off_c, 0, 71, 59
1, 192924, Control_c, 0, 64, 115
1, 192936, Note_off_c, 0, 55, 61
1, 192937, Note_off_c, 0, 53, 65
1, 192939, Control_c, 0, 64, 120
1, 192954, Control_c, 0, 64, 127
1, 192958, Note_off_c, 0, 62, 58
1, 193004, Note_on_c, 0, 53, 77
1, 193007, Note_on_c, 0, 55, 71
1, 193031, Note_off_c, 0, 74, 59
1, 193057, Note_off_c, 0, 53, 65
1, 193062, Note_off_c, 0, 55, 63
1, 193117, Control_c, 0, 64, 104
1, 193132, Control_c, 0, 64, 85
1, 193133, Note_on_c, 0, 72, 94
1, 193137, Note_on_c, 0, 51, 86
1, 193137, Note_on_c, 0, 55, 77
1, 193139, Note_on_c, 0, 60, 88
1, 193144, Note_on_c, 0, 67, 80
1, 193147, Control_c, 0, 64, 67
1, 193162, Control_c, 0, 64, 0
1, 193198, Note_off_c, 0, 51, 61
1, 193200, Note_off_c, 0, 55, 63
1, 193220, Control_c, 0, 64, 67
1, 193235, Control_c, 0, 64, 79
1, 193250, Control_c, 0, 64, 90
1, 193265, Control_c, 0, 64, 98
1, 193267, Note_on_c, 0, 51, 86
1, 193273, Note_on_c, 0, 55, 75
1, 193280, Control_c, 0, 64, 99
1, 193294, Control_c, 0, 64, 100
1, 193309, Control_c, 0, 64, 100
1, 193324, Control_c, 0, 64, 101
1, 193327, Note_off_c, 0, 55, 62
1, 193328, Note_off_c, 0, 51, 61
1, 193333, Note_off_c, 0, 60, 58
1, 193354, Control_c, 0, 64, 101
1, 193356, Note_off_c, 0, 67, 58
1, 193383, Control_c, 0, 64, 102
1, 193398, Control_c, 0, 64, 102
1, 193401, Note_on_c, 0, 50, 80
1, 193404, Note_on_c, 0, 55, 71
1, 193407, Note_off_c, 0, 72, 61
1, 193420, Control_c, 0, 64, 103
1, 193435, Control_c, 0, 64, 104
1, 193440, Note_on_c, 0, 74, 80
1, 193442, Note_on_c, 0, 62, 82
1, 193450, Control_c, 0, 64, 108
1, 193451, Note_off_c, 0, 55, 56
1, 193460, Note_off_c, 0, 50, 62
1, 193465, Control_c, 0, 64, 114
1, 193480, Control_c, 0, 64, 118
1, 193484, Note_off_c, 0, 74, 67
1, 193490, Note_off_c, 0, 62, 62
1, 193494, Control_c, 0, 64, 118
1, 193509, Control_c, 0, 64, 119
1, 193524, Control_c, 0, 64, 118
1, 193539, Control_c, 0, 64, 116
1, 193553, Control_c, 0, 64, 102
1, 193564, Poly_aftertouch_c, 0, 67, 0
1, 193568, Control_c, 0, 64, 85
1, 193577, Note_on_c, 0, 67, 56
1, 193578, Note_on_c, 0, 75, 103
1, 193580, Note_on_c, 0, 63, 98
1, 193583, Control_c, 0, 64, 67
1, 193586, Note_on_c, 0, 48, 80
1, 193589, Note_on_c, 0, 55, 73
1, 193598, Control_c, 0, 64, 0
1, 193648, Note_off_c, 0, 55, 57
1, 193651, Note_off_c, 0, 48, 63
1, 193728, Note_on_c, 0, 48, 69
1, 193728, Note_on_c, 0, 55, 67
1, 193733, Control_c, 0, 64, 62
1, 193748, Control_c, 0, 64, 73
1, 193763, Control_c, 0, 64, 80
1, 193778, Note_off_c, 0, 55, 63
1, 193778, Control_c, 0, 64, 85
1, 193783, Note_off_c, 0, 48, 63
1, 193792, Control_c, 0, 64, 88
1, 193807, Control_c, 0, 64, 91
1, 193822, Control_c, 0, 64, 95
1, 193837, Control_c, 0, 64, 99
1, 193848, Note_on_c, 0, 55, 69
1, 193850, Note_on_c, 0, 48, 66
1, 193851, Control_c, 0, 64, 103
1, 193866, Control_c, 0, 64, 108
1, 193881, Control_c, 0, 64, 112
1, 193884, Note_off_c, 0, 48, 67
1, 193890, Note_off_c, 0, 55, 63
1, 193896, Control_c, 0, 64, 114
1, 193911, Control_c, 0, 64, 115
1, 193940, Control_c, 0, 64, 114
1, 193955, Control_c, 0, 64, 110
1, 193970, Control_c, 0, 64, 100
1, 193972, Note_on_c, 0, 46, 87
1, 193977, Note_on_c, 0, 55, 76
1, 193985, Control_c, 0, 64, 86
1, 193989, Note_off_c, 0, 63, 63
1, 194000, Control_c, 0, 64, 72
1, 194015, Control_c, 0, 64, 57
1, 194018, Note_off_c, 0, 75, 60
1, 194028, Note_off_c, 0, 46, 61
1, 194030, Control_c, 0, 64, 0
1, 194036, Note_off_c, 0, 55, 65
1, 194044, Control_c, 0, 64, 27
1, 194059, Control_c, 0, 64, 62
1, 194074, Control_c, 0, 64, 70
1, 194089, Control_c, 0, 64, 76
1, 194094, Note_on_c, 0, 46, 78
1, 194095, Note_on_c, 0, 55, 65
1, 194104, Control_c, 0, 64, 81
1, 194118, Control_c, 0, 64, 84
1, 194133, Control_c, 0, 64, 87
1, 194148, Note_on_c, 0, 74, 82
1, 194148, Control_c, 0, 64, 90
1, 194154, Note_on_c, 0, 62, 76
1, 194168, Note_off_c, 0, 55, 64
1, 194170, Control_c, 0, 64, 92
1, 194183, Note_off_c, 0, 46, 59
1, 194185, Control_c, 0, 64, 94
1, 194198, Note_off_c, 0, 67, 62
1, 194200, Control_c, 0, 64, 95
1, 194215, Control_c, 0, 64, 97
1, 194229, Control_c, 0, 64, 99
1, 194244, Control_c, 0, 64, 101
1, 194247, Note_on_c, 0, 46, 76
1, 194252, Note_on_c, 0, 55, 71
1, 194259, Control_c, 0, 64, 103
1, 194268, Note_off_c, 0, 62, 56
1, 194274, Control_c, 0, 64, 105
1, 194289, Control_c, 0, 64, 108
1, 194304, Control_c, 0, 64, 110
1, 194310, Note_off_c, 0, 55, 61
1, 194318, Control_c, 0, 64, 111
1, 194334, Note_off_c, 0, 46, 58
1, 194363, Control_c, 0, 64, 110
1, 194367, Note_off_c, 0, 74, 63
1, 194377, Control_c, 0, 64, 103
1, 194392, Control_c, 0, 64, 90
1, 194395, Note_on_c, 0, 72, 84
1, 194399, Note_on_c, 0, 67, 71
1, 194401, Note_on_c, 0, 60, 75
1, 194407, Note_on_c, 0, 45, 70
1, 194407, Control_c, 0, 64, 73
1, 194411, Note_on_c, 0, 55, 75
1, 194422, Control_c, 0, 64, 0
1, 194471, Note_off_c, 0, 45, 63
1, 194472, Note_off_c, 0, 55, 63
1, 194496, Control_c, 0, 64, 61
1, 194511, Control_c, 0, 64, 70
1, 194526, Control_c, 0, 64, 77
1, 194539, Note_on_c, 0, 45, 70
1, 194540, Note_on_c, 0, 55, 71
1, 194540, Control_c, 0, 64, 84
1, 194542, Note_off_c, 0, 60, 59
1, 194555, Control_c, 0, 64, 88
1, 194566, Note_off_c, 0, 67, 63
1, 194570, Control_c, 0, 64, 91
1, 194585, Control_c, 0, 64, 93
1, 194590, Note_off_c, 0, 45, 61
1, 194590, Note_off_c, 0, 55, 63
1, 194599, Control_c, 0, 64, 95
1, 194614, Control_c, 0, 64, 98
1, 194629, Control_c, 0, 64, 101
1, 194644, Control_c, 0, 64, 103
1, 194656, Note_off_c, 0, 72, 52
1, 194659, Control_c, 0, 64, 105
1, 194665, Note_on_c, 0, 45, 76
1, 194667, Note_on_c, 0, 55, 72
1, 194674, Control_c, 0, 64, 106
1, 194688, Control_c, 0, 64, 107
1, 194703, Note_off_c, 0, 55, 65
1, 194703, Control_c, 0, 64, 111
1, 194711, Note_off_c, 0, 45, 63
1, 194718, Control_c, 0, 64, 112
1, 194733, Control_c, 0, 64, 112
1, 194748, Control_c, 0, 64, 112
1, 194763, Control_c, 0, 64, 105
1, 194778, Control_c, 0, 64, 91
1, 194792, Control_c, 0, 64, 72
1, 194798, Note_on_c, 0, 74, 92
1, 194800, Note_on_c, 0, 66, 93
1, 194801, Note_on_c, 0, 62, 85
1, 194802, Note_on_c, 0, 54, 89
1, 194806, Note_on_c, 0, 44, 85
1, 194807, Control_c, 0, 64, 0
1, 194876, Note_off_c, 0, 54, 60
1, 194877, Note_off_c, 0, 44, 62
1, 194881, Control_c, 0, 64, 65
1, 194896, Control_c, 0, 64, 78
1, 194911, Control_c, 0, 64, 89
1, 194933, Control_c, 0, 64, 98
1, 194948, Control_c, 0, 64, 103
1, 194948, Note_on_c, 0, 54, 81
1, 194952, Note_on_c, 0, 44, 80
1, 194963, Control_c, 0, 64, 107
1, 194978, Control_c, 0, 64, 112
1, 194993, Control_c, 0, 64, 118
1, 195000, Note_off_c, 0, 54, 59
1, 195007, Control_c, 0, 64, 123
1, 195011, Note_off_c, 0, 44, 62
1, 195022, Control_c, 0, 64, 127
1, 195025, Note_off_c, 0, 74, 58
1, 195073, Note_on_c, 0, 54, 81
1, 195075, Note_on_c, 0, 44, 73
1, 195113, Note_off_c, 0, 62, 49
1, 195114, Note_off_c, 0, 66, 59
1, 195138, Note_on_c, 0, 72, 80
1, 195142, Note_off_c, 0, 54, 60
1, 195145, Note_off_c, 0, 44, 61
1, 195177, Note_off_c, 0, 72, 60
1, 195185, Control_c, 0, 64, 115
1, 195199, Control_c, 0, 64, 88
1, 195214, Control_c, 0, 64, 63
1, 195223, Note_on_c, 0, 71, 86
1, 195225, Note_on_c, 0, 53, 83
1, 195227, Note_on_c, 0, 43, 78
1, 195229, Control_c, 0, 64, 0
1, 195230, Note_on_c, 0, 65, 80
1, 195232, Note_on_c, 0, 62, 79
1, 195234, Note_on_c, 0, 64, 78
1, 195258, Note_off_c, 0, 64, 71
1, 195264, Note_on_c, 0, 69, 24
1, 195265, Note_off_c, 0, 69, 127
1, 195307, Note_off_c, 0, 53, 62
1, 195318, Note_off_c, 0, 43, 60
1, 195367, Note_on_c, 0, 53, 71
1, 195376, Note_on_c, 0, 43, 63
1, 195393, Control_c, 0, 64, 63
1, 195408, Control_c, 0, 64, 84
1, 195422, Control_c, 0, 64, 105
1, 195424, Note_off_c, 0, 53, 63
1, 195437, Control_c, 0, 64, 121
1, 195447, Note_off_c, 0, 43, 58
1, 195467, Control_c, 0, 64, 123
1, 195482, Control_c, 0, 64, 127
1, 195483, Note_on_c, 0, 43, 60
1, 195483, Note_off_c, 0, 65, 57
1, 195489, Note_on_c, 0, 53, 76
1, 195511, Note_off_c, 0, 53, 71
1, 195530, Note_off_c, 0, 62, 54
1, 195547, Note_off_c, 0, 43, 61
1, 195570, Note_off_c, 0, 71, 58
1, 195615, Control_c, 0, 64, 118
1, 195630, Control_c, 0, 64, 93
1, 195643, Note_on_c, 0, 71, 95
1, 195645, Control_c, 0, 64, 69
1, 195645, Note_on_c, 0, 62, 89
1, 195647, Note_on_c, 0, 67, 92
1, 195649, Note_on_c, 0, 41, 78
1, 195652, Note_on_c, 0, 43, 70
1, 195667, Control_c, 0, 64, 0
1, 195716, Note_off_c, 0, 43, 58
1, 195719, Note_off_c, 0, 41, 65
1, 195756, Control_c, 0, 64, 66
1, 195771, Control_c, 0, 64, 78
1, 195785, Control_c, 0, 64, 91
1, 195787, Note_on_c, 0, 41, 76
1, 195787, Note_on_c, 0, 43, 69
1, 195800, Control_c, 0, 64, 101
1, 195815, Control_c, 0, 64, 106
1, 195830, Control_c, 0, 64, 109
1, 195837, Note_off_c, 0, 43, 59
1, 195843, Note_off_c, 0, 41, 65
1, 195845, Control_c, 0, 64, 113
1, 195858, Note_off_c, 0, 62, 57
1, 195860, Control_c, 0, 64, 121
1, 195875, Control_c, 0, 64, 127
1, 195905, Note_off_c, 0, 71, 58
1, 195913, Note_on_c, 0, 41, 72
1, 195920, Note_on_c, 0, 43, 71
1, 195921, Note_off_c, 0, 67, 59
1, 195963, Note_on_c, 0, 68, 89
1, 195964, Note_off_c, 0, 43, 55
1, 195967, Note_off_c, 0, 41, 65
1, 196008, Note_off_c, 0, 68, 65
1, 196037, Control_c, 0, 64, 93
1, 196050, Note_on_c, 0, 72, 102
1, 196051, Note_on_c, 0, 60, 93
1, 196051, Note_on_c, 0, 67, 95
1, 196052, Control_c, 0, 64, 69
1, 196058, Note_on_c, 0, 39, 78
1, 196060, Note_on_c, 0, 43, 73
1, 196067, Control_c, 0, 64, 0
1, 196120, Note_off_c, 0, 39, 61
1, 196122, Note_off_c, 0, 43, 58
1, 196157, Control_c, 0, 64, 49
1, 196172, Control_c, 0, 64, 74
1, 196185, Note_off_c, 0, 60, 63
1, 196186, Control_c, 0, 64, 86
1, 196192, Note_on_c, 0, 39, 72
1, 196192, Note_on_c, 0, 43, 68
1, 196201, Control_c, 0, 64, 96
1, 196216, Control_c, 0, 64, 100
1, 196231, Control_c, 0, 64, 105
1, 196238, Note_off_c, 0, 67, 63
1, 196241, Note_off_c, 0, 39, 62
1, 196242, Note_off_c, 0, 43, 59
1, 196245, Control_c, 0, 64, 113
1, 196253, Note_off_c, 0, 72, 64
1, 196260, Control_c, 0, 64, 124
1, 196275, Control_c, 0, 64, 127
1, 196326, Note_on_c, 0, 39, 74
1, 196336, Note_on_c, 0, 43, 61
1, 196366, Note_off_c, 0, 39, 61
1, 196366, Note_off_c, 0, 43, 64
1, 196445, Control_c, 0, 64, 109
1, 196460, Control_c, 0, 64, 84
1, 196474, Note_on_c, 0, 75, 98
1, 196475, Control_c, 0, 64, 63
1, 196482, Note_on_c, 0, 43, 69
1, 196482, Note_on_c, 0, 65, 88
1, 196483, Note_on_c, 0, 71, 86
1, 196486, Note_on_c, 0, 31, 80
1, 196490, Control_c, 0, 64, 0
1, 196562, Note_off_c, 0, 43, 61
1, 196564, Control_c, 0, 64, 66
1, 196568, Note_off_c, 0, 31, 62
1, 196578, Control_c, 0, 64, 77
1, 196593, Control_c, 0, 64, 88
1, 196608, Control_c, 0, 64, 97
1, 196623, Control_c, 0, 64, 102
1, 196638, Control_c, 0, 64, 106
1, 196643, Note_on_c, 0, 31, 68
1, 196644, Note_on_c, 0, 43, 68
1, 196653, Control_c, 0, 64, 110
1, 196668, Control_c, 0, 64, 114
1, 196677, Note_off_c, 0, 75, 63
1, 196683, Control_c, 0, 64, 116
1, 196683, Note_off_c, 0, 65, 60
1, 196698, Note_off_c, 0, 43, 58
1, 196698, Control_c, 0, 64, 118
1, 196710, Note_off_c, 0, 31, 60
1, 196712, Control_c, 0, 64, 119
1, 196727, Control_c, 0, 64, 120
1, 196742, Control_c, 0, 64, 121
1, 196757, Control_c, 0, 64, 122
1, 196797, Note_on_c, 0, 43, 74
1, 196808, Note_on_c, 0, 31, 59
1, 196835, Note_off_c, 0, 43, 61
1, 196838, Note_off_c, 0, 31, 65
1, 196868, Note_on_c, 0, 74, 82
1, 196895, Note_off_c, 0, 71, 55
1, 197083, Control_c, 0, 64, 121
1, 197098, Control_c, 0, 64, 114
1, 197113, Control_c, 0, 64, 100
1, 197128, Control_c, 0, 64, 84
1, 197133, Note_on_c, 0, 72, 81
1, 197140, Note_on_c, 0, 63, 70
1, 197142, Control_c, 0, 64, 68
1, 197148, Note_on_c, 0, 36, 62
1, 197148, Note_on_c, 0, 43, 58
1, 197165, Control_c, 0, 64, 0
1, 197168, Note_off_c, 0, 74, 64
1, 197357, Control_c, 0, 64, 69
1, 197372, Control_c, 0, 64, 80
1, 197386, Control_c, 0, 64, 91
1, 197401, Control_c, 0, 64, 95
1, 197416, Control_c, 0, 64, 96
1, 197430, Note_off_c, 0, 43, 61
1, 197432, Control_c, 0, 64, 98
1, 197443, Note_off_c, 0, 36, 64
1, 197447, Control_c, 0, 64, 101
1, 197461, Control_c, 0, 64, 103
1, 197476, Control_c, 0, 64, 104
1, 197695, Note_on_c, 0, 55, 37
1, 197732, Note_off_c, 0, 55, 49
1, 197845, Note_on_c, 0, 55, 45
1, 197896, Note_off_c, 0, 55, 55
1, 197959, Control_c, 0, 64, 104
1, 197988, Control_c, 0, 64, 103
1, 198002, Note_on_c, 0, 55, 38
1, 198018, Control_c, 0, 64, 103
1, 198033, Control_c, 0, 64, 102
1, 198040, Note_off_c, 0, 55, 52
1, 198048, Control_c, 0, 64, 102
1, 198078, Control_c, 0, 64, 101
1, 198092, Control_c, 0, 64, 101
1, 198107, Control_c, 0, 64, 100
1, 198122, Control_c, 0, 64, 99
1, 198122, Control_c, 0, 67, 11
1, 198137, Control_c, 0, 64, 99
1, 198137, Control_c, 0, 67, 18
1, 198141, Note_off_c, 0, 63, 61
1, 198152, Control_c, 0, 64, 98
1, 198152, Control_c, 0, 67, 25
1, 198165, Note_on_c, 0, 55, 24
1, 198166, Control_c, 0, 64, 97
1, 198166, Control_c, 0, 67, 31
1, 198180, Control_c, 0, 64, 97
1, 198180, Control_c, 0, 67, 35
1, 198195, Control_c, 0, 64, 96
1, 198195, Control_c, 0, 67, 40
1, 198201, Note_off_c, 0, 55, 54
1, 198209, Control_c, 0, 64, 95
1, 198209, Control_c, 0, 67, 44
1, 198224, Control_c, 0, 64, 94
1, 198224, Control_c, 0, 67, 50
1, 198239, Control_c, 0, 64, 94
1, 198239, Control_c, 0, 67, 57
1, 198254, Control_c, 0, 64, 93
1, 198254, Control_c, 0, 67, 62
1, 198269, Control_c, 0, 64, 93
1, 198269, Control_c, 0, 67, 68
1, 198283, Control_c, 0, 64, 92
1, 198283, Control_c, 0, 67, 75
1, 198295, Note_on_c, 0, 55, 40
1, 198298, Control_c, 0, 64, 91
1, 198298, Control_c, 0, 67, 82
1, 198313, Control_c, 0, 64, 91
1, 198313, Control_c, 0, 67, 89
1, 198328, Note_off_c, 0, 55, 52
1, 198328, Control_c, 0, 64, 90
1, 198328, Control_c, 0, 67, 96
1, 198343, Control_c, 0, 64, 90
1, 198343, Control_c, 0, 67, 102
1, 198358, Control_c, 0, 67, 108
1, 198361, Note_off_c, 0, 72, 60
1, 198373, Control_c, 0, 64, 89
1, 198373, Control_c, 0, 67, 114
1, 198388, Control_c, 0, 67, 119
1, 198403, Control_c, 0, 64, 89
1, 198403, Control_c, 0, 67, 124
1, 198417, Control_c, 0, 67, 127
1, 198434, Note_on_c, 0, 55, 47
1, 198447, Control_c, 0, 64, 88
1, 198467, Note_off_c, 0, 55, 52
1, 198477, Control_c, 0, 64, 88
1, 198522, Control_c, 0, 64, 87
1, 198552, Control_c, 0, 64, 87
1, 198567, Control_c, 0, 64, 86
1, 198575, Note_on_c, 0, 55, 45
1, 198596, Control_c, 0, 64, 86
1, 198611, Control_c, 0, 64, 85
1, 198615, Note_off_c, 0, 55, 49
1, 198626, Control_c, 0, 64, 85
1, 198640, Control_c, 0, 64, 84
1, 198655, Control_c, 0, 64, 84
1, 198692, Control_c, 0, 64, 83
1, 198707, Control_c, 0, 64, 83
1, 198722, Control_c, 0, 64, 82
1, 198731, Note_on_c, 0, 55, 38
1, 198737, Control_c, 0, 64, 81
1, 198763, Note_off_c, 0, 55, 52
1, 198766, Control_c, 0, 64, 81
1, 198781, Control_c, 0, 64, 80
1, 198796, Control_c, 0, 64, 80
1, 198826, Control_c, 0, 64, 79
1, 198840, Control_c, 0, 64, 78
1, 198855, Control_c, 0, 64, 77
1, 198870, Control_c, 0, 64, 75
1, 198878, Note_on_c, 0, 55, 41
1, 198885, Control_c, 0, 64, 72
1, 198886, Note_on_c, 0, 74, 57
1, 198900, Control_c, 0, 64, 69
1, 198914, Control_c, 0, 64, 66
1, 198928, Control_c, 0, 64, 64
1, 198929, Note_off_c, 0, 55, 46
1, 198943, Control_c, 0, 64, 63
1, 198957, Control_c, 0, 64, 62
1, 198987, Control_c, 0, 64, 63
1, 199026, Note_on_c, 0, 55, 50
1, 199032, Control_c, 0, 64, 63
1, 199047, Control_c, 0, 64, 64
1, 199061, Note_off_c, 0, 55, 54
1, 199061, Control_c, 0, 64, 64
1, 199076, Control_c, 0, 64, 65
1, 199091, Control_c, 0, 64, 66
1, 199106, Control_c, 0, 64, 67
1, 199121, Control_c, 0, 64, 68
1, 199136, Control_c, 0, 64, 70
1, 199151, Control_c, 0, 64, 72
1, 199162, Note_on_c, 0, 55, 51
1, 199165, Control_c, 0, 64, 73
1, 199180, Control_c, 0, 64, 74
1, 199195, Control_c, 0, 64, 75
1, 199204, Note_off_c, 0, 55, 46
1, 199210, Control_c, 0, 64, 75
1, 199222, Note_on_c, 0, 75, 56
1, 199239, Control_c, 0, 64, 76
1, 199279, Note_off_c, 0, 74, 62
1, 199300, Control_c, 0, 64, 75
1, 199315, Control_c, 0, 64, 73
1, 199329, Control_c, 0, 64, 70
1, 199344, Control_c, 0, 64, 65
1, 199348, Note_on_c, 0, 77, 70
1, 199351, Note_off_c, 0, 75, 57
1, 199359, Control_c, 0, 64, 58
1, 199368, Note_on_c, 0, 56, 42
1, 199374, Control_c, 0, 64, 46
1, 199388, Control_c, 0, 64, 35
1, 199410, Control_c, 0, 64, 36
1, 199424, Note_off_c, 0, 56, 57
1, 199425, Control_c, 0, 64, 41
1, 199440, Control_c, 0, 64, 48
1, 199455, Control_c, 0, 64, 57
1, 199470, Control_c, 0, 64, 63
1, 199485, Control_c, 0, 64, 68
1, 199500, Control_c, 0, 64, 72
1, 199510, Note_on_c, 0, 56, 44
1, 199515, Control_c, 0, 64, 77
1, 199529, Control_c, 0, 64, 81
1, 199544, Control_c, 0, 64, 83
1, 199558, Note_off_c, 0, 56, 56
1, 199559, Control_c, 0, 64, 84
1, 199574, Control_c, 0, 64, 86
1, 199579, Note_off_c, 0, 77, 58
1, 199588, Control_c, 0, 64, 87
1, 199603, Control_c, 0, 64, 87
1, 199618, Control_c, 0, 64, 88
1, 199633, Control_c, 0, 64, 88
1, 199647, Note_on_c, 0, 56, 46
1, 199648, Control_c, 0, 64, 89
1, 199662, Control_c, 0, 64, 90
1, 199677, Control_c, 0, 64, 90
1, 199692, Control_c, 0, 64, 91
1, 199705, Note_off_c, 0, 56, 53
1, 199766, Control_c, 0, 64, 89
1, 199780, Control_c, 0, 64, 83
1, 199783, Note_on_c, 0, 77, 75
1, 199795, Control_c, 0, 64, 76
1, 199798, Note_on_c, 0, 65, 51
1, 199802, Note_on_c, 0, 57, 43
1, 199810, Control_c, 0, 64, 67
1, 199825, Control_c, 0, 64, 59
1, 199839, Note_off_c, 0, 57, 50
1, 199840, Control_c, 0, 64, 51
1, 199854, Control_c, 0, 64, 54
1, 199869, Control_c, 0, 64, 61
1, 199884, Control_c, 0, 64, 65
1, 199899, Control_c, 0, 64, 69
1, 199911, Note_on_c, 0, 57, 44
1, 199914, Control_c, 0, 64, 73
1, 199929, Control_c, 0, 64, 78
1, 199944, Control_c, 0, 64, 81
1, 199959, Control_c, 0, 64, 83
1, 199963, Note_off_c, 0, 57, 54
1, 199974, Control_c, 0, 64, 84
1, 199988, Control_c, 0, 64, 85
1, 200003, Control_c, 0, 64, 86
1, 200018, Control_c, 0, 64, 87
1, 200033, Control_c, 0, 64, 88
1, 200039, Note_on_c, 0, 57, 39
1, 200048, Control_c, 0, 64, 90
1, 200057, Note_off_c, 0, 77, 48
1, 200062, Control_c, 0, 64, 91
1, 200078, Control_c, 0, 64, 92
1, 200093, Control_c, 0, 64, 93
1, 200101, Note_off_c, 0, 57, 59
1, 200174, Control_c, 0, 64, 89
1, 200189, Control_c, 0, 64, 83
1, 200193, Note_on_c, 0, 77, 75
1, 200202, Note_on_c, 0, 58, 51
1, 200204, Control_c, 0, 64, 74
1, 200218, Control_c, 0, 64, 65
1, 200219, Note_on_c, 0, 68, 45
1, 200233, Control_c, 0, 64, 50
1, 200248, Control_c, 0, 64, 35
1, 200255, Note_off_c, 0, 58, 60
1, 200263, Control_c, 0, 64, 40
1, 200278, Control_c, 0, 64, 51
1, 200293, Control_c, 0, 64, 60
1, 200307, Control_c, 0, 64, 65
1, 200322, Control_c, 0, 64, 69
1, 200337, Control_c, 0, 64, 72
1, 200340, Note_off_c, 0, 65, 55
1, 200350, Note_on_c, 0, 58, 48
1, 200352, Control_c, 0, 64, 76
1, 200367, Control_c, 0, 64, 79
1, 200382, Note_off_c, 0, 58, 55
1, 200382, Control_c, 0, 64, 80
1, 200397, Control_c, 0, 64, 82
1, 200411, Control_c, 0, 64, 83
1, 200426, Control_c, 0, 64, 84
1, 200441, Control_c, 0, 64, 85
1, 200480, Note_on_c, 0, 58, 57
1, 200485, Control_c, 0, 64, 85
1, 200520, Note_off_c, 0, 58, 62
1, 200616, Note_on_c, 0, 75, 73
1, 200623, Note_on_c, 0, 58, 54
1, 200660, Note_off_c, 0, 58, 60
1, 200767, Note_off_c, 0, 68, 59
1, 200768, Note_on_c, 0, 58, 51
1, 200781, Note_off_c, 0, 77, 48
1, 200817, Note_off_c, 0, 58, 58
1, 200930, Note_on_c, 0, 58, 50
1, 200931, Note_on_c, 0, 74, 61
1, 200963, Note_off_c, 0, 58, 49
1, 200969, Note_off_c, 0, 75, 61
1, 201086, Control_c, 0, 64, 84
1, 201101, Control_c, 0, 64, 81
1, 201103, Note_on_c, 0, 79, 78
1, 201104, Note_on_c, 0, 58, 44
1, 201115, Control_c, 0, 64, 72
1, 201130, Control_c, 0, 64, 63
1, 201145, Control_c, 0, 64, 41
1, 201157, Note_off_c, 0, 58, 43
1, 201160, Control_c, 0, 64, 23
1, 201175, Control_c, 0, 64, 39
1, 201190, Control_c, 0, 64, 57
1, 201205, Control_c, 0, 64, 66
1, 201220, Control_c, 0, 64, 70
1, 201234, Control_c, 0, 64, 73
1, 201249, Control_c, 0, 64, 76
1, 201250, Note_on_c, 0, 58, 42
1, 201264, Control_c, 0, 64, 78
1, 201279, Control_c, 0, 64, 80
1, 201294, Control_c, 0, 64, 81
1, 201297, Note_off_c, 0, 58, 44
1, 201308, Control_c, 0, 64, 82
1, 201323, Control_c, 0, 64, 83
1, 201338, Control_c, 0, 64, 84
1, 201352, Control_c, 0, 64, 85
1, 201367, Control_c, 0, 64, 86
1, 201381, Note_on_c, 0, 58, 46
1, 201382, Control_c, 0, 64, 87
1, 201397, Control_c, 0, 64, 87
1, 201443, Note_off_c, 0, 58, 48
1, 201456, Control_c, 0, 64, 84
1, 201471, Control_c, 0, 64, 77
1, 201482, Note_off_c, 0, 79, 53
1, 201486, Control_c, 0, 64, 68
1, 201501, Control_c, 0, 64, 50
1, 201509, Note_on_c, 0, 67, 47
1, 201512, Note_on_c, 0, 59, 46
1, 201516, Control_c, 0, 64, 40
1, 201531, Control_c, 0, 64, 52
1, 201546, Control_c, 0, 64, 63
1, 201560, Control_c, 0, 64, 68
1, 201561, Note_off_c, 0, 59, 52
1, 201575, Control_c, 0, 64, 72
1, 201590, Control_c, 0, 64, 76
1, 201605, Control_c, 0, 64, 79
1, 201620, Control_c, 0, 64, 80
1, 201634, Control_c, 0, 64, 80
1, 201657, Control_c, 0, 64, 81
1, 201661, Note_off_c, 0, 74, 61
1, 201667, Note_on_c, 0, 77, 64
1, 201672, Control_c, 0, 64, 82
1, 201676, Note_on_c, 0, 59, 46
1, 201688, Control_c, 0, 64, 82
1, 201703, Control_c, 0, 64, 83
1, 201714, Note_off_c, 0, 59, 48
1, 201717, Control_c, 0, 64, 83
1, 201747, Control_c, 0, 64, 84
1, 201782, Note_off_c, 0, 67, 38
1, 201791, Control_c, 0, 64, 84
1, 201802, Note_on_c, 0, 68, 44
1, 201806, Control_c, 0, 64, 85
1, 201821, Control_c, 0, 64, 85
1, 201836, Control_c, 0, 64, 86
1, 201878, Poly_aftertouch_c, 0, 59, 127
1, 201880, Control_c, 0, 64, 86
1, 201913, Poly_aftertouch_c, 0, 59, 0
1, 201939, Control_c, 0, 64, 85
1, 201951, Note_off_c, 0, 77, 36
1, 201954, Control_c, 0, 64, 80
1, 201956, Note_on_c, 0, 75, 64
1, 201969, Control_c, 0, 64, 71
1, 201975, Note_on_c, 0, 67, 44
1, 201982, Note_off_c, 0, 68, 43
1, 201983, Control_c, 0, 64, 62
1, 201994, Note_on_c, 0, 60, 31
1, 201998, Control_c, 0, 64, 18
1, 202013, Control_c, 0, 64, 0
1, 202057, Control_c, 0, 64, 38
1, 202072, Control_c, 0, 64, 63
1, 202087, Control_c, 0, 64, 69
1, 202102, Control_c, 0, 64, 73
1, 202117, Control_c, 0, 64, 78
1, 202126, Note_on_c, 0, 55, 41
1, 202132, Control_c, 0, 64, 81
1, 202147, Control_c, 0, 64, 83
1, 202161, Note_off_c, 0, 75, 63
1, 202162, Control_c, 0, 64, 85
1, 202166, Note_off_c, 0, 55, 48
1, 202176, Control_c, 0, 64, 85
1, 202182, Note_off_c, 0, 60, 38
1, 202191, Control_c, 0, 64, 86
1, 202221, Control_c, 0, 64, 86
1, 202286, Note_on_c, 0, 55, 32
1, 202317, Note_off_c, 0, 55, 54
1, 202398, Note_on_c, 0, 74, 55
1, 202420, Note_on_c, 0, 55, 47
1, 202448, Note_off_c, 0, 55, 55
1, 202547, Note_on_c, 0, 55, 51
1, 202589, Note_off_c, 0, 55, 62
1, 202650, Note_off_c, 0, 67, 32
1, 202698, Note_on_c, 0, 72, 57
1, 202700, Note_on_c, 0, 55, 42
1, 202734, Note_off_c, 0, 55, 51
1, 202762, Control_c, 0, 64, 85
1, 202777, Control_c, 0, 64, 80
1, 202784, Note_off_c, 0, 74, 36
1, 202792, Control_c, 0, 64, 73
1, 202806, Control_c, 0, 64, 65
1, 202814, Note_off_c, 0, 72, 63
1, 202815, Note_on_c, 0, 71, 45
1, 202821, Control_c, 0, 64, 44
1, 202835, Note_on_c, 0, 55, 48
1, 202836, Control_c, 0, 64, 0
1, 202868, Note_off_c, 0, 55, 56
1, 202910, Control_c, 0, 64, 49
1, 202925, Control_c, 0, 64, 66
1, 202940, Control_c, 0, 64, 70
1, 202955, Control_c, 0, 64, 75
1, 202963, Note_on_c, 0, 55, 51
1, 202969, Control_c, 0, 64, 78
1, 202977, Note_off_c, 0, 71, 63
1, 202984, Control_c, 0, 64, 80
1, 202998, Note_off_c, 0, 55, 51
1, 202999, Control_c, 0, 64, 82
1, 203014, Control_c, 0, 64, 84
1, 203029, Control_c, 0, 64, 85
1, 203044, Control_c, 0, 64, 86
1, 203059, Control_c, 0, 64, 87
1, 203073, Control_c, 0, 64, 88
1, 203088, Control_c, 0, 64, 88
1, 203098, Note_on_c, 0, 55, 47
1, 203103, Control_c, 0, 64, 89
1, 203118, Control_c, 0, 64, 89
1, 203127, Note_off_c, 0, 55, 53
1, 203217, Note_on_c, 0, 71, 62
1, 203231, Note_on_c, 0, 68, 58
1, 203234, Note_on_c, 0, 55, 49
1, 203273, Note_off_c, 0, 55, 57
1, 203375, Note_on_c, 0, 55, 50
1, 203411, Note_off_c, 0, 55, 52
1, 203423, Control_c, 0, 64, 90
1, 203436, Note_on_c, 0, 67, 64
1, 203476, Note_off_c, 0, 68, 57
1, 203512, Note_on_c, 0, 55, 56
1, 203512, Control_c, 0, 64, 91
1, 203527, Control_c, 0, 64, 91
1, 203542, Control_c, 0, 64, 92
1, 203552, Note_off_c, 0, 55, 61
1, 203556, Control_c, 0, 64, 93
1, 203571, Control_c, 0, 64, 93
1, 203601, Control_c, 0, 64, 92
1, 203611, Note_off_c, 0, 67, 62
1, 203616, Control_c, 0, 64, 86
1, 203630, Control_c, 0, 64, 76
1, 203644, Note_on_c, 0, 72, 74
1, 203645, Control_c, 0, 64, 65
1, 203649, Note_on_c, 0, 55, 55
1, 203654, Note_on_c, 0, 65, 45
1, 203660, Control_c, 0, 64, 44
1, 203668, Note_off_c, 0, 71, 62
1, 203675, Control_c, 0, 64, 25
1, 203688, Note_off_c, 0, 55, 61
1, 203690, Control_c, 0, 64, 43
1, 203704, Control_c, 0, 64, 59
1, 203719, Control_c, 0, 64, 65
1, 203734, Control_c, 0, 64, 69
1, 203748, Control_c, 0, 64, 73
1, 203763, Control_c, 0, 64, 79
1, 203778, Control_c, 0, 64, 83
1, 203793, Control_c, 0, 64, 87
1, 203808, Control_c, 0, 64, 89
1, 203822, Control_c, 0, 64, 90
1, 203834, Note_on_c, 0, 63, 71
1, 203837, Control_c, 0, 64, 92
1, 203843, Poly_aftertouch_c, 0, 55, 127
1, 203846, Note_off_c, 0, 65, 59
1, 203852, Control_c, 0, 64, 94
1, 203864, Note_off_c, 0, 63, 65
1, 203867, Control_c, 0, 64, 96
1, 203875, Note_off_c, 0, 72, 66
1, 203882, Control_c, 0, 64, 97
1, 203889, Poly_aftertouch_c, 0, 55, 0
1, 203914, Note_on_c, 0, 55, 35
1, 203919, Control_c, 0, 64, 97
1, 203934, Control_c, 0, 64, 98
1, 203968, Note_off_c, 0, 55, 63
1, 204045, Note_on_c, 0, 77, 77
1, 204079, Note_on_c, 0, 62, 57
1, 204096, Note_on_c, 0, 55, 35
1, 204120, Note_off_c, 0, 62, 58
1, 204134, Note_off_c, 0, 55, 48
1, 204194, Note_on_c, 0, 55, 47
1, 204276, Note_off_c, 0, 55, 38
1, 204284, Note_on_c, 0, 60, 59
1, 204323, Note_off_c, 0, 60, 57
1, 204385, Note_on_c, 0, 55, 46
1, 204414, Note_off_c, 0, 55, 52
1, 204421, Note_on_c, 0, 75, 67
1, 204455, Note_off_c, 0, 77, 60
1, 204553, Note_on_c, 0, 55, 47
1, 204572, Note_off_c, 0, 75, 65
1, 204573, Note_on_c, 0, 74, 68
1, 204582, Note_on_c, 0, 68, 56
1, 204601, Control_c, 0, 64, 95
1, 204616, Control_c, 0, 64, 89
1, 204622, Note_off_c, 0, 55, 53
1, 204631, Control_c, 0, 64, 81
1, 204653, Control_c, 0, 64, 70
1, 204668, Control_c, 0, 64, 60
1, 204682, Note_off_c, 0, 68, 60
1, 204683, Control_c, 0, 64, 16
1, 204698, Control_c, 0, 64, 0
1, 204713, Note_on_c, 0, 55, 51
1, 204713, Note_on_c, 0, 67, 54
1, 204727, Control_c, 0, 64, 36
1, 204742, Control_c, 0, 64, 57
1, 204757, Control_c, 0, 64, 64
1, 204763, Note_off_c, 0, 55, 55
1, 204772, Control_c, 0, 64, 67
1, 204786, Control_c, 0, 64, 69
1, 204801, Control_c, 0, 64, 70
1, 204816, Control_c, 0, 64, 71
1, 204831, Control_c, 0, 64, 72
1, 204840, Note_on_c, 0, 55, 54
1, 204846, Control_c, 0, 64, 73
1, 204860, Control_c, 0, 64, 74
1, 204876, Control_c, 0, 64, 74
1, 204885, Note_off_c, 0, 55, 60
1, 204981, Note_on_c, 0, 55, 60
1, 205011, Note_off_c, 0, 55, 53
1, 205053, Control_c, 0, 64, 75
1, 205083, Control_c, 0, 64, 75
1, 205098, Control_c, 0, 64, 76
1, 205101, Note_on_c, 0, 55, 59
1, 205128, Control_c, 0, 64, 76
1, 205142, Control_c, 0, 64, 77
1, 205143, Note_off_c, 0, 55, 60
1, 205157, Control_c, 0, 64, 77
1, 205172, Control_c, 0, 64, 78
1, 205187, Control_c, 0, 64, 79
1, 205201, Control_c, 0, 64, 79
1, 205231, Control_c, 0, 64, 80
1, 205241, Note_on_c, 0, 55, 61
1, 205246, Control_c, 0, 64, 80
1, 205261, Control_c, 0, 64, 81
1, 205276, Note_off_c, 0, 55, 59
1, 205290, Control_c, 0, 64, 82
1, 205367, Note_on_c, 0, 55, 61
1, 205416, Control_c, 0, 64, 82
1, 205446, Control_c, 0, 64, 83
1, 205461, Control_c, 0, 64, 83
1, 205494, Note_off_c, 0, 67, 56
1, 205509, Note_on_c, 0, 56, 71
1, 205520, Control_c, 0, 64, 84
1, 205527, Note_off_c, 0, 74, 58
1, 205534, Control_c, 0, 64, 84
1, 205534, Control_c, 0, 67, 123
1, 205549, Control_c, 0, 64, 85
1, 205549, Control_c, 0, 67, 111
1, 205564, Control_c, 0, 67, 95
1, 205568, Note_off_c, 0, 55, 54
1, 205579, Control_c, 0, 64, 86
1, 205579, Control_c, 0, 67, 78
1, 205594, Control_c, 0, 64, 86
1, 205594, Control_c, 0, 67, 62
1, 205608, Control_c, 0, 64, 87
1, 205608, Control_c, 0, 67, 49
1, 205623, Control_c, 0, 64, 88
1, 205623, Control_c, 0, 67, 35
1, 205638, Control_c, 0, 64, 88
1, 205638, Control_c, 0, 67, 25
1, 205649, Note_on_c, 0, 57, 70
1, 205653, Control_c, 0, 64, 89
1, 205653, Control_c, 0, 67, 13
1, 205668, Control_c, 0, 67, 0
1, 205681, Note_off_c, 0, 56, 63
1, 205684, Control_c, 0, 64, 89
1, 205698, Control_c, 0, 64, 90
1, 205713, Control_c, 0, 64, 92
1, 205728, Control_c, 0, 64, 92
1, 205787, Control_c, 0, 64, 92
1, 205802, Control_c, 0, 64, 88
1, 205817, Control_c, 0, 64, 80
1, 205828, Note_on_c, 0, 58, 77
1, 205828, Note_on_c, 0, 74, 81
1, 205831, Control_c, 0, 64, 68
1, 205842, Note_off_c, 0, 57, 57
1, 205846, Control_c, 0, 64, 23
1, 205861, Control_c, 0, 64, 0
1, 205914, Note_off_c, 0, 58, 65
1, 205950, Control_c, 0, 64, 65
1, 205965, Control_c, 0, 64, 73
1, 205975, Note_on_c, 0, 58, 81
1, 205980, Control_c, 0, 64, 80
1, 205995, Control_c, 0, 64, 87
1, 206010, Control_c, 0, 64, 91
1, 206024, Control_c, 0, 64, 94
1, 206031, Note_off_c, 0, 58, 62
1, 206039, Control_c, 0, 64, 98
1, 206054, Control_c, 0, 64, 101
1, 206069, Control_c, 0, 64, 104
1, 206084, Control_c, 0, 64, 105
1, 206088, Note_on_c, 0, 58, 75
1, 206098, Control_c, 0, 64, 106
1, 206113, Control_c, 0, 64, 108
1, 206128, Control_c, 0, 64, 111
1, 206143, Control_c, 0, 64, 113
1, 206154, Note_on_c, 0, 75, 81
1, 206154, Note_off_c, 0, 58, 62
1, 206165, Control_c, 0, 64, 113
1, 206180, Note_off_c, 0, 74, 52
1, 206198, Note_off_c, 0, 75, 65
1, 206210, Control_c, 0, 64, 113
1, 206225, Control_c, 0, 64, 105
1, 206239, Control_c, 0, 64, 90
1, 206241, Note_on_c, 0, 58, 80
1, 206245, Note_on_c, 0, 77, 97
1, 206250, Note_on_c, 0, 65, 89
1, 206250, Note_on_c, 0, 74, 73
1, 206254, Control_c, 0, 64, 73
1, 206269, Control_c, 0, 64, 26
1, 206284, Control_c, 0, 64, 0
1, 206311, Note_off_c, 0, 58, 63
1, 206372, Control_c, 0, 64, 67
1, 206377, Note_on_c, 0, 58, 70
1, 206387, Control_c, 0, 64, 76
1, 206402, Control_c, 0, 64, 86
1, 206417, Control_c, 0, 64, 95
1, 206431, Control_c, 0, 64, 103
1, 206436, Note_off_c, 0, 58, 64
1, 206446, Control_c, 0, 64, 109
1, 206456, Note_off_c, 0, 77, 58
1, 206461, Control_c, 0, 64, 114
1, 206465, Note_off_c, 0, 65, 62
1, 206477, Control_c, 0, 64, 121
1, 206490, Note_off_c, 0, 74, 65
1, 206492, Control_c, 0, 64, 127
1, 206516, Note_on_c, 0, 58, 77
1, 206582, Note_off_c, 0, 58, 63
1, 206640, Control_c, 0, 64, 126
1, 206654, Control_c, 0, 64, 97
1, 206655, Note_on_c, 0, 58, 77
1, 206656, Note_on_c, 0, 77, 99
1, 206660, Note_on_c, 0, 74, 91
1, 206662, Note_on_c, 0, 65, 91
1, 206664, Note_on_c, 0, 57, 75
1, 206669, Control_c, 0, 64, 80
1, 206684, Control_c, 0, 64, 64
1, 206699, Control_c, 0, 64, 0
1, 206734, Note_off_c, 0, 58, 59
1, 206743, Note_off_c, 0, 57, 60
1, 206758, Control_c, 0, 64, 65
1, 206773, Control_c, 0, 64, 72
1, 206788, Control_c, 0, 64, 79
1, 206798, Note_on_c, 0, 58, 67
1, 206799, Note_on_c, 0, 57, 65
1, 206803, Control_c, 0, 64, 85
1, 206818, Control_c, 0, 64, 90
1, 206833, Control_c, 0, 64, 95
1, 206847, Control_c, 0, 64, 102
1, 206848, Note_off_c, 0, 77, 57
1, 206854, Note_off_c, 0, 58, 63
1, 206862, Control_c, 0, 64, 110
1, 206865, Note_off_c, 0, 57, 62
1, 206869, Note_off_c, 0, 65, 56
1, 206874, Note_off_c, 0, 74, 64
1, 206877, Control_c, 0, 64, 119
1, 206899, Control_c, 0, 64, 125
1, 206914, Control_c, 0, 64, 127
1, 206939, Note_on_c, 0, 57, 71
1, 206939, Note_on_c, 0, 58, 74
1, 206996, Note_off_c, 0, 58, 61
1, 207003, Note_off_c, 0, 57, 62
1, 207062, Control_c, 0, 64, 109
1, 207077, Control_c, 0, 64, 90
1, 207082, Note_on_c, 0, 77, 94
1, 207083, Note_on_c, 0, 74, 90
1, 207084, Note_on_c, 0, 65, 87
1, 207086, Note_on_c, 0, 58, 80
1, 207087, Note_on_c, 0, 56, 77
1, 207092, Control_c, 0, 64, 73
1, 207106, Control_c, 0, 64, 54
1, 207121, Control_c, 0, 64, 0
1, 207146, Note_off_c, 0, 58, 62
1, 207152, Note_off_c, 0, 56, 63
1, 207167, Control_c, 0, 64, 62
1, 207181, Control_c, 0, 64, 70
1, 207196, Control_c, 0, 64, 77
1, 207211, Note_on_c, 0, 58, 78
1, 207211, Control_c, 0, 64, 85
1, 207215, Note_on_c, 0, 56, 74
1, 207226, Control_c, 0, 64, 91
1, 207232, Note_off_c, 0, 65, 64
1, 207241, Control_c, 0, 64, 98
1, 207249, Note_off_c, 0, 74, 64
1, 207255, Note_off_c, 0, 77, 61
1, 207255, Control_c, 0, 64, 103
1, 207269, Note_off_c, 0, 58, 63
1, 207271, Control_c, 0, 64, 107
1, 207283, Note_off_c, 0, 56, 61
1, 207286, Control_c, 0, 64, 110
1, 207301, Control_c, 0, 64, 114
1, 207316, Control_c, 0, 64, 119
1, 207330, Control_c, 0, 64, 127
1, 207336, Note_on_c, 0, 56, 70
1, 207339, Note_on_c, 0, 58, 73
1, 207400, Note_off_c, 0, 58, 57
1, 207418, Note_off_c, 0, 56, 62
1, 207449, Control_c, 0, 64, 121
1, 207464, Control_c, 0, 64, 96
1, 207465, Note_on_c, 0, 79, 93
1, 207468, Note_on_c, 0, 75, 88
1, 207469, Note_on_c, 0, 58, 74
1, 207469, Note_on_c, 0, 67, 92
1, 207478, Control_c, 0, 64, 77
1, 207479, Note_on_c, 0, 55, 76
1, 207493, Control_c, 0, 64, 60
1, 207508, Control_c, 0, 64, 0
1, 207533, Note_off_c, 0, 58, 63
1, 207538, Control_c, 0, 64, 50
1, 207546, Note_off_c, 0, 55, 64
1, 207552, Control_c, 0, 64, 70
1, 207567, Control_c, 0, 64, 79
1, 207582, Control_c, 0, 64, 89
1, 207584, Note_off_c, 0, 75, 68
1, 207592, Note_on_c, 0, 58, 76
1, 207594, Note_on_c, 0, 55, 65
1, 207594, Note_off_c, 0, 67, 57
1, 207596, Control_c, 0, 64, 96
1, 207611, Control_c, 0, 64, 100
1, 207626, Control_c, 0, 64, 105
1, 207649, Control_c, 0, 64, 108
1, 207664, Control_c, 0, 64, 112
1, 207670, Note_off_c, 0, 55, 64
1, 207672, Note_off_c, 0, 58, 63
1, 207678, Control_c, 0, 64, 113
1, 207693, Control_c, 0, 64, 114
1, 207699, Note_off_c, 0, 79, 60
1, 207708, Control_c, 0, 64, 116
1, 207709, Poly_aftertouch_c, 0, 58, 0
1, 207718, Note_on_c, 0, 58, 66
1, 207723, Control_c, 0, 64, 118
1, 207726, Note_on_c, 0, 56, 79
1, 207733, Note_on_c, 0, 53, 64
1, 207737, Control_c, 0, 64, 120
1, 207752, Control_c, 0, 64, 120
1, 207770, Note_off_c, 0, 53, 65
1, 207775, Note_on_c, 0, 80, 90
1, 207777, Note_off_c, 0, 58, 62
1, 207778, Note_on_c, 0, 68, 86
1, 207781, Note_on_c, 0, 77, 78
1, 207781, Note_off_c, 0, 56, 63
1, 207796, Control_c, 0, 64, 121
1, 207811, Control_c, 0, 64, 122
1, 207826, Control_c, 0, 64, 123
1, 207843, Note_off_c, 0, 68, 61
1, 207862, Note_off_c, 0, 77, 59
1, 207874, Note_off_c, 0, 80, 65
1, 207915, Control_c, 0, 64, 114
1, 207921, Note_on_c, 0, 82, 102
1, 207923, Note_on_c, 0, 58, 73
1, 207923, Note_on_c, 0, 79, 87
1, 207924, Note_on_c, 0, 70, 92
1, 207927, Note_on_c, 0, 55, 70
1, 207930, Control_c, 0, 64, 97
1, 207930, Note_on_c, 0, 51, 64
1, 207945, Control_c, 0, 64, 78
1, 207959, Control_c, 0, 64, 54
1, 207974, Control_c, 0, 64, 0
1, 207990, Note_off_c, 0, 51, 57
1, 207998, Note_off_c, 0, 55, 64
1, 207998, Note_off_c, 0, 58, 62
1, 208034, Control_c, 0, 64, 62
1, 208049, Control_c, 0, 64, 74
1, 208057, Note_on_c, 0, 58, 63
1, 208064, Control_c, 0, 64, 86
1, 208070, Note_on_c, 0, 55, 52
1, 208071, Note_on_c, 0, 51, 54
1, 208079, Control_c, 0, 64, 97
1, 208094, Control_c, 0, 64, 103
1, 208097, Note_off_c, 0, 79, 61
1, 208108, Note_off_c, 0, 82, 64
1, 208108, Control_c, 0, 64, 106
1, 208117, Note_off_c, 0, 55, 61
1, 208119, Note_off_c, 0, 58, 58
1, 208121, Note_off_c, 0, 51, 55
1, 208123, Control_c, 0, 64, 108
1, 208138, Control_c, 0, 64, 110
1, 208153, Control_c, 0, 64, 112
1, 208168, Control_c, 0, 64, 112
1, 208171, Note_on_c, 0, 58, 61
1, 208183, Control_c, 0, 64, 113
1, 208187, Note_on_c, 0, 51, 52
1, 208196, Note_on_c, 0, 55, 46
1, 208198, Control_c, 0, 64, 114
1, 208213, Control_c, 0, 64, 115
1, 208218, Note_off_c, 0, 58, 62
1, 208222, Note_off_c, 0, 55, 56
1, 208227, Control_c, 0, 64, 116
1, 208232, Note_off_c, 0, 51, 61
1, 208242, Control_c, 0, 64, 117
1, 208257, Control_c, 0, 64, 118
1, 208301, Control_c, 0, 64, 118
1, 208316, Control_c, 0, 64, 108
1, 208320, Note_on_c, 0, 80, 92
1, 208326, Note_on_c, 0, 77, 83
1, 208327, Note_on_c, 0, 74, 80
1, 208331, Control_c, 0, 64, 93
1, 208335, Note_on_c, 0, 56, 73
1, 208336, Note_on_c, 0, 47, 73
1, 208345, Control_c, 0, 64, 77
1, 208347, Note_on_c, 0, 53, 63
1, 208360, Control_c, 0, 64, 61
1, 208375, Control_c, 0, 64, 0
1, 208381, Note_off_c, 0, 56, 57
1, 208398, Note_off_c, 0, 53, 62
1, 208405, Note_off_c, 0, 47, 62
1, 208427, Control_c, 0, 64, 20
1, 208442, Note_off_c, 0, 70, 52
1, 208442, Control_c, 0, 64, 67
1, 208457, Control_c, 0, 64, 76
1, 208469, Note_on_c, 0, 56, 73
1, 208472, Control_c, 0, 64, 84
1, 208473, Note_on_c, 0, 47, 63
1, 208484, Note_on_c, 0, 53, 62
1, 208487, Control_c, 0, 64, 90
1, 208501, Control_c, 0, 64, 93
1, 208516, Control_c, 0, 64, 96
1, 208519, Note_off_c, 0, 56, 59
1, 208531, Control_c, 0, 64, 99
1, 208535, Note_off_c, 0, 53, 62
1, 208544, Note_off_c, 0, 74, 59
1, 208545, Control_c, 0, 64, 102
1, 208560, Control_c, 0, 64, 104
1, 208575, Control_c, 0, 64, 105
1, 208585, Note_on_c, 0, 56, 68
1, 208590, Control_c, 0, 64, 105
1, 208605, Control_c, 0, 64, 106
1, 208610, Note_on_c, 0, 53, 34
1, 208619, Control_c, 0, 64, 107
1, 208634, Control_c, 0, 64, 109
1, 208638, Note_off_c, 0, 53, 54
1, 208642, Note_off_c, 0, 56, 61
1, 208649, Control_c, 0, 64, 112
1, 208658, Note_off_c, 0, 47, 54
1, 208663, Control_c, 0, 64, 114
1, 208678, Control_c, 0, 64, 114
1, 208701, Note_off_c, 0, 80, 62
1, 208708, Control_c, 0, 64, 114
1, 208723, Control_c, 0, 64, 108
1, 208728, Note_on_c, 0, 79, 84
1, 208729, Note_on_c, 0, 48, 68
1, 208731, Note_on_c, 0, 55, 66
1, 208734, Note_on_c, 0, 75, 84
1, 208737, Note_on_c, 0, 51, 60
1, 208737, Control_c, 0, 64, 93
1, 208752, Control_c, 0, 64, 75
1, 208767, Control_c, 0, 64, 0
1, 208770, Note_off_c, 0, 77, 28
1, 208778, Note_off_c, 0, 55, 59
1, 208779, Note_off_c, 0, 51, 62
1, 208787, Note_off_c, 0, 48, 63
1, 208826, Control_c, 0, 64, 65
1, 208841, Control_c, 0, 64, 76
1, 208849, Note_on_c, 0, 55, 65
1, 208856, Control_c, 0, 64, 90
1, 208857, Note_off_c, 0, 79, 62
1, 208860, Note_on_c, 0, 48, 51
1, 208861, Note_on_c, 0, 51, 65
1, 208872, Control_c, 0, 64, 98
1, 208887, Control_c, 0, 64, 101
1, 208891, Note_off_c, 0, 75, 65
1, 208901, Control_c, 0, 64, 101
1, 208903, Note_off_c, 0, 55, 59
1, 208907, Note_off_c, 0, 51, 57
1, 208911, Note_off_c, 0, 48, 61
1, 208916, Control_c, 0, 64, 102
1, 208931, Control_c, 0, 64, 104
1, 208946, Control_c, 0, 64, 107
1, 208961, Control_c, 0, 64, 110
1, 208975, Control_c, 0, 64, 112
1, 208978, Note_on_c, 0, 51, 60
1, 208978, Note_on_c, 0, 55, 62
1, 208990, Control_c, 0, 64, 114
1, 208993, Note_on_c, 0, 48, 56
1, 209005, Control_c, 0, 64, 116
1, 209010, Note_off_c, 0, 55, 64
1, 209014, Note_off_c, 0, 51, 61
1, 209020, Control_c, 0, 64, 119
1, 209023, Note_off_c, 0, 48, 67
1, 209035, Control_c, 0, 64, 119
1, 209064, Control_c, 0, 64, 119
1, 209079, Control_c, 0, 64, 108
1, 209094, Control_c, 0, 64, 90
1, 209106, Note_on_c, 0, 77, 93
1, 209109, Control_c, 0, 64, 69
1, 209111, Note_on_c, 0, 44, 80
1, 209113, Note_on_c, 0, 65, 83
1, 209113, Note_on_c, 0, 53, 80
1, 209123, Control_c, 0, 64, 0
1, 209168, Note_off_c, 0, 53, 65
1, 209185, Note_off_c, 0, 44, 63
1, 209205, Control_c, 0, 64, 69
1, 209220, Control_c, 0, 64, 81
1, 209235, Control_c, 0, 64, 94
1, 209249, Control_c, 0, 64, 101
1, 209250, Note_on_c, 0, 53, 79
1, 209251, Note_on_c, 0, 46, 86
1, 209264, Control_c, 0, 64, 102
1, 209279, Control_c, 0, 64, 103
1, 209292, Note_off_c, 0, 53, 63
1, 209294, Control_c, 0, 64, 105
1, 209297, Note_off_c, 0, 46, 59
1, 209309, Control_c, 0, 64, 107
1, 209323, Control_c, 0, 64, 109
1, 209338, Control_c, 0, 64, 110
1, 209340, Note_off_c, 0, 77, 58
1, 209353, Control_c, 0, 64, 111
1, 209367, Control_c, 0, 64, 114
1, 209372, Note_on_c, 0, 44, 80
1, 209378, Note_off_c, 0, 65, 61
1, 209382, Control_c, 0, 64, 118
1, 209387, Note_on_c, 0, 53, 58
1, 209397, Control_c, 0, 64, 121
1, 209400, Note_on_c, 0, 55, 40
1, 209412, Control_c, 0, 64, 122
1, 209417, Note_off_c, 0, 53, 69
1, 209423, Note_on_c, 0, 74, 79
1, 209425, Note_off_c, 0, 44, 59
1, 209432, Note_off_c, 0, 55, 54
1, 209450, Note_off_c, 0, 74, 63
1, 209471, Control_c, 0, 64, 117
1, 209486, Control_c, 0, 64, 100
1, 209501, Control_c, 0, 64, 80
1, 209510, Note_on_c, 0, 53, 81
1, 209515, Note_on_c, 0, 43, 81
1, 209515, Control_c, 0, 64, 47
1, 209519, Note_on_c, 0, 71, 94
1, 209525, Note_on_c, 0, 67, 89
1, 209527, Note_on_c, 0, 62, 89
1, 209530, Control_c, 0, 64, 0
1, 209578, Note_off_c, 0, 43, 61
1, 209579, Note_off_c, 0, 53, 64
1, 209620, Control_c, 0, 64, 68
1, 209635, Control_c, 0, 64, 79
1, 209649, Control_c, 0, 64, 89
1, 209651, Note_on_c, 0, 44, 84
1, 209659, Note_on_c, 0, 53, 77
1, 209664, Control_c, 0, 64, 95
1, 209679, Control_c, 0, 64, 100
1, 209694, Control_c, 0, 64, 105
1, 209707, Note_off_c, 0, 53, 62
1, 209709, Control_c, 0, 64, 111
1, 209722, Note_off_c, 0, 44, 62
1, 209724, Control_c, 0, 64, 117
1, 209739, Control_c, 0, 64, 121
1, 209750, Note_off_c, 0, 62, 53
1, 209754, Control_c, 0, 64, 123
1, 209768, Note_off_c, 0, 67, 49
1, 209769, Control_c, 0, 64, 125
1, 209781, Note_on_c, 0, 43, 86
1, 209781, Note_on_c, 0, 53, 81
1, 209784, Control_c, 0, 64, 127
1, 209802, Note_off_c, 0, 71, 47
1, 209808, Note_off_c, 0, 53, 65
1, 209837, Note_off_c, 0, 43, 60
1, 209909, Control_c, 0, 64, 103
1, 209924, Control_c, 0, 64, 78
1, 209925, Note_on_c, 0, 71, 95
1, 209928, Note_on_c, 0, 41, 97
1, 209929, Note_on_c, 0, 67, 94
1, 209932, Note_on_c, 0, 62, 89
1, 209939, Control_c, 0, 64, 0
1, 209989, Note_off_c, 0, 41, 66
1, 209998, Control_c, 0, 64, 66
1, 210013, Control_c, 0, 64, 78
1, 210028, Control_c, 0, 64, 88
1, 210043, Control_c, 0, 64, 92
1, 210052, Note_on_c, 0, 43, 87
1, 210058, Control_c, 0, 64, 93
1, 210072, Control_c, 0, 64, 93
1, 210087, Control_c, 0, 64, 94
1, 210102, Control_c, 0, 64, 96
1, 210116, Control_c, 0, 64, 97
1, 210121, Note_off_c, 0, 43, 60
1, 210121, Note_off_c, 0, 62, 54
1, 210131, Control_c, 0, 64, 97
1, 210166, Note_off_c, 0, 67, 57
1, 210177, Control_c, 0, 64, 98
1, 210179, Note_off_c, 0, 71, 57
1, 210180, Note_on_c, 0, 41, 91
1, 210191, Control_c, 0, 64, 99
1, 210206, Control_c, 0, 64, 100
1, 210221, Control_c, 0, 64, 100
1, 210231, Note_off_c, 0, 41, 66
1, 210236, Note_on_c, 0, 68, 88
1, 210236, Control_c, 0, 64, 101
1, 210279, Note_off_c, 0, 68, 65
1, 210280, Control_c, 0, 64, 98
1, 210295, Control_c, 0, 64, 83
1, 210310, Control_c, 0, 64, 65
1, 210319, Note_on_c, 0, 72, 99
1, 210320, Note_on_c, 0, 67, 97
1, 210321, Note_on_c, 0, 43, 87
1, 210323, Note_on_c, 0, 60, 88
1, 210325, Note_on_c, 0, 39, 89
1, 210325, Control_c, 0, 64, 0
1, 210382, Note_off_c, 0, 43, 61
1, 210392, Note_off_c, 0, 39, 60
1, 210399, Control_c, 0, 64, 61
1, 210414, Control_c, 0, 64, 71
1, 210418, Note_off_c, 0, 60, 63
1, 210429, Control_c, 0, 64, 79
1, 210444, Control_c, 0, 64, 85
1, 210459, Control_c, 0, 64, 89
1, 210460, Note_on_c, 0, 41, 89
1, 210463, Note_on_c, 0, 43, 77
1, 210472, Note_off_c, 0, 67, 63
1, 210475, Control_c, 0, 64, 91
1, 210481, Note_off_c, 0, 72, 64
1, 210489, Control_c, 0, 64, 95
1, 210494, Note_off_c, 0, 43, 61
1, 210504, Control_c, 0, 64, 97
1, 210511, Note_off_c, 0, 41, 64
1, 210519, Control_c, 0, 64, 100
1, 210534, Control_c, 0, 64, 102
1, 210548, Control_c, 0, 64, 104
1, 210563, Control_c, 0, 64, 106
1, 210578, Control_c, 0, 64, 109
1, 210580, Note_on_c, 0, 43, 82
1, 210593, Note_on_c, 0, 39, 84
1, 210593, Control_c, 0, 64, 113
1, 210608, Control_c, 0, 64, 118
1, 210622, Control_c, 0, 64, 121
1, 210631, Note_off_c, 0, 43, 61
1, 210637, Control_c, 0, 64, 123
1, 210648, Note_off_c, 0, 39, 62
1, 210690, Control_c, 0, 64, 122
1, 210704, Control_c, 0, 64, 107
1, 210719, Control_c, 0, 64, 86
1, 210734, Control_c, 0, 64, 64
1, 210738, Note_on_c, 0, 43, 101
1, 210740, Note_on_c, 0, 75, 96
1, 210741, Note_on_c, 0, 31, 93
1, 210742, Note_on_c, 0, 71, 92
1, 210744, Note_on_c, 0, 65, 92
1, 210748, Control_c, 0, 64, 0
1, 210808, Control_c, 0, 64, 69
1, 210821, Note_off_c, 0, 43, 58
1, 210822, Control_c, 0, 64, 80
1, 210824, Note_off_c, 0, 31, 63
1, 210837, Control_c, 0, 64, 91
1, 210852, Control_c, 0, 64, 95
1, 210867, Control_c, 0, 64, 96
1, 210882, Control_c, 0, 64, 97
1, 210896, Control_c, 0, 64, 100
1, 210897, Note_on_c, 0, 32, 88
1, 210899, Note_on_c, 0, 43, 87
1, 210904, Note_off_c, 0, 75, 61
1, 210908, Note_off_c, 0, 65, 60
1, 210910, Control_c, 0, 64, 104
1, 210925, Control_c, 0, 64, 107
1, 210939, Control_c, 0, 64, 109
1, 210947, Note_off_c, 0, 43, 62
1, 210954, Control_c, 0, 64, 109
1, 210961, Note_off_c, 0, 32, 60
1, 210969, Control_c, 0, 64, 110
1, 210984, Control_c, 0, 64, 111
1, 210999, Control_c, 0, 64, 111
1, 211033, Note_on_c, 0, 31, 92
1, 211033, Note_on_c, 0, 43, 93
1, 211058, Control_c, 0, 64, 112
1, 211070, Note_off_c, 0, 31, 65
1, 211078, Note_off_c, 0, 43, 61
1, 211087, Control_c, 0, 64, 112
1, 211093, Note_on_c, 0, 74, 88
1, 211102, Control_c, 0, 64, 113
1, 211110, Note_off_c, 0, 71, 57
1, 211117, Control_c, 0, 64, 114
1, 211132, Control_c, 0, 64, 117
1, 211146, Control_c, 0, 64, 123
1, 211161, Control_c, 0, 64, 127
1, 211208, Note_on_c, 0, 42, 22
1, 211229, Note_off_c, 0, 74, 60
1, 211235, Control_c, 0, 64, 107
1, 211250, Control_c, 0, 64, 80
1, 211251, Note_off_c, 0, 42, 43
1, 211266, Control_c, 0, 64, 0
1, 211281, Note_on_c, 0, 72, 100
1, 211286, Note_on_c, 0, 48, 94
1, 211286, Note_on_c, 0, 63, 96
1, 211290, Note_on_c, 0, 43, 93
1, 211291, Note_on_c, 0, 36, 95
1, 211340, Control_c, 0, 64, 68
1, 211355, Control_c, 0, 64, 87
1, 211370, Control_c, 0, 64, 105
1, 211392, Control_c, 0, 64, 110
1, 211402, Note_off_c, 0, 48, 64
1, 211405, Note_off_c, 0, 36, 63
1, 211421, Note_off_c, 0, 43, 61
1, 211451, Control_c, 0, 64, 110
1, 211542, Note_on_c, 0, 50, 93
1, 211635, Note_off_c, 0, 50, 60
1, 211689, Control_c, 0, 64, 110
1, 211701, Note_on_c, 0, 48, 97
1, 211718, Control_c, 0, 64, 109
1, 211733, Control_c, 0, 64, 108
1, 211748, Control_c, 0, 64, 107
1, 211763, Control_c, 0, 64, 105
1, 211777, Control_c, 0, 64, 104
1, 211782, Note_off_c, 0, 48, 64
1, 211792, Control_c, 0, 64, 103
1, 211807, Control_c, 0, 64, 100
1, 211822, Control_c, 0, 64, 95
1, 211837, Control_c, 0, 64, 86
1, 211839, Note_on_c, 0, 46, 101
1, 211851, Control_c, 0, 64, 80
1, 211866, Control_c, 0, 64, 78
1, 211881, Control_c, 0, 64, 77
1, 211908, Note_off_c, 0, 46, 64
1, 211974, Note_on_c, 0, 48, 90
1, 212027, Note_on_c, 0, 47, 8
1, 212028, Note_off_c, 0, 47, 127
1, 212048, Note_off_c, 0, 48, 64
1, 212074, Control_c, 0, 64, 76
1, 212086, Poly_aftertouch_c, 0, 47, 0
1, 212089, Control_c, 0, 64, 75
1, 212104, Control_c, 0, 64, 72
1, 212106, Note_on_c, 0, 46, 101
1, 212119, Control_c, 0, 64, 70
1, 212141, Control_c, 0, 64, 69
1, 212156, Control_c, 0, 64, 68
1, 212171, Control_c, 0, 64, 69
1, 212180, Note_off_c, 0, 46, 63
1, 212243, Note_on_c, 0, 44, 96
1, 212243, Note_on_c, 0, 48, 94
1, 212260, Control_c, 0, 64, 69
1, 212274, Control_c, 0, 64, 70
1, 212300, Note_off_c, 0, 48, 65
1, 212312, Note_off_c, 0, 44, 63
1, 212369, Note_on_c, 0, 46, 94
1, 212370, Note_on_c, 0, 48, 85
1, 212422, Note_off_c, 0, 48, 64
1, 212427, Note_off_c, 0, 46, 64
1, 212448, Note_off_c, 0, 63, 63
1, 212467, Control_c, 0, 64, 68
1, 212481, Control_c, 0, 64, 66
1, 212492, Note_on_c, 0, 44, 93
1, 212495, Note_on_c, 0, 48, 89
1, 212496, Note_off_c, 0, 72, 56
1, 212496, Control_c, 0, 64, 63
1, 212511, Control_c, 0, 64, 61
1, 212526, Control_c, 0, 64, 59
1, 212541, Control_c, 0, 64, 57
1, 212547, Note_off_c, 0, 48, 64
1, 212556, Note_off_c, 0, 44, 64
1, 212556, Control_c, 0, 64, 51
1, 212571, Control_c, 0, 64, 23
1, 212586, Control_c, 0, 64, 0
1, 212615, Note_on_c, 0, 72, 94
1, 212617, Note_on_c, 0, 60, 96
1, 212618, Note_on_c, 0, 48, 96
1, 212619, Note_on_c, 0, 43, 96
1, 212665, Note_off_c, 0, 60, 63
1, 212665, Note_off_c, 0, 72, 66
1, 212672, Note_off_c, 0, 48, 64
1, 212682, Note_off_c, 0, 43, 62
1, 212718, Control_c, 0, 64, 27
1, 212733, Control_c, 0, 64, 64
1, 212742, Note_on_c, 0, 72, 96
1, 212743, Note_on_c, 0, 44, 92
1, 212743, Note_on_c, 0, 60, 96
1, 212744, Note_on_c, 0, 48, 88
1, 212748, Control_c, 0, 64, 68
1, 212763, Control_c, 0, 64, 71
1, 212778, Control_c, 0, 64, 75
1, 212785, Note_off_c, 0, 72, 67
1, 212788, Note_off_c, 0, 60, 63
1, 212792, Control_c, 0, 64, 78
1, 212796, Note_off_c, 0, 48, 63
1, 212805, Note_off_c, 0, 44, 63
1, 212807, Control_c, 0, 64, 81
1, 212822, Control_c, 0, 64, 83
1, 212837, Control_c, 0, 64, 84
1, 212852, Control_c, 0, 64, 85
1, 212868, Control_c, 0, 64, 89
1, 212870, Note_on_c, 0, 72, 104
1, 212872, Note_on_c, 0, 43, 96
1, 212875, Note_on_c, 0, 48, 93
1, 212875, Note_on_c, 0, 60, 87
1, 212890, Control_c, 0, 64, 94
1, 212899, Note_off_c, 0, 60, 75
1, 212905, Control_c, 0, 64, 99
1, 212920, Control_c, 0, 64, 103
1, 212929, Note_off_c, 0, 48, 65
1, 212929, Note_off_c, 0, 72, 66
1, 212935, Control_c, 0, 64, 104
1, 212944, Note_off_c, 0, 43, 60
1, 212983, Poly_aftertouch_c, 0, 62, 0
1, 212994, Control_c, 0, 64, 102
1, 213009, Control_c, 0, 64, 92
1, 213023, Control_c, 0, 64, 77
1, 213028, Note_on_c, 0, 41, 105
1, 213028, Note_on_c, 0, 48, 104
1, 213029, Note_on_c, 0, 72, 107
1, 213030, Note_on_c, 0, 84, 113
1, 213032, Note_on_c, 0, 74, 100
1, 213033, Note_on_c, 0, 80, 103
1, 213038, Control_c, 0, 64, 55
1, 213053, Control_c, 0, 64, 0
1, 213110, Note_off_c, 0, 48, 64
1, 213118, Note_off_c, 0, 41, 65
1, 213127, Control_c, 0, 64, 42
1, 213141, Control_c, 0, 64, 67
1, 213156, Control_c, 0, 64, 74
1, 213167, Note_on_c, 0, 48, 80
1, 213169, Note_on_c, 0, 43, 88
1, 213171, Control_c, 0, 64, 81
1, 213186, Control_c, 0, 64, 84
1, 213201, Control_c, 0, 64, 85
1, 213215, Control_c, 0, 64, 85
1, 213222, Note_off_c, 0, 48, 60
1, 213230, Note_off_c, 0, 43, 61
1, 213290, Note_on_c, 0, 41, 92
1, 213290, Note_on_c, 0, 48, 86
1, 213304, Control_c, 0, 64, 85
1, 213319, Control_c, 0, 64, 84
1, 213334, Control_c, 0, 64, 81
1, 213341, Note_off_c, 0, 48, 56
1, 213349, Note_off_c, 0, 41, 64
1, 213349, Control_c, 0, 64, 77
1, 213364, Control_c, 0, 64, 72
1, 213379, Control_c, 0, 64, 68
1, 213394, Control_c, 0, 64, 66
1, 213409, Control_c, 0, 64, 65
1, 213414, Note_on_c, 0, 44, 94
1, 213414, Note_on_c, 0, 48, 90
1, 213475, Note_off_c, 0, 48, 64
1, 213485, Note_off_c, 0, 44, 63
1, 213543, Note_on_c, 0, 46, 92
1, 213543, Note_on_c, 0, 48, 86
1, 213608, Note_off_c, 0, 46, 63
1, 213611, Note_off_c, 0, 48, 64
1, 213668, Control_c, 0, 64, 65
1, 213683, Note_on_c, 0, 44, 95
1, 213687, Note_on_c, 0, 48, 84
1, 213713, Control_c, 0, 64, 64
1, 213742, Control_c, 0, 64, 64
1, 213743, Note_off_c, 0, 48, 64
1, 213748, Note_off_c, 0, 44, 64
1, 213757, Control_c, 0, 64, 63
1, 213772, Control_c, 0, 64, 63
1, 213787, Control_c, 0, 64, 62
1, 213808, Note_on_c, 0, 48, 89
1, 213811, Note_on_c, 0, 43, 92
1, 213817, Control_c, 0, 64, 63
1, 213846, Control_c, 0, 64, 63
1, 213849, Note_off_c, 0, 84, 59
1, 213861, Control_c, 0, 64, 64
1, 213862, Note_off_c, 0, 48, 65
1, 213874, Note_off_c, 0, 43, 62
1, 213876, Control_c, 0, 64, 64
1, 213891, Control_c, 0, 64, 65
1, 213893, Note_off_c, 0, 80, 64
1, 213894, Note_off_c, 0, 74, 56
1, 213906, Control_c, 0, 64, 66
1, 213921, Control_c, 0, 64, 67
1, 213921, Note_off_c, 0, 72, 60
1, 213936, Note_on_c, 0, 44, 95
1, 213936, Control_c, 0, 64, 67
1, 213939, Note_on_c, 0, 48, 89
1, 213951, Control_c, 0, 64, 68
1, 213965, Control_c, 0, 64, 68
1, 213980, Control_c, 0, 64, 69
1, 213987, Note_off_c, 0, 48, 63
1, 213993, Note_off_c, 0, 44, 64
1, 214060, Note_on_c, 0, 43, 93
1, 214061, Note_on_c, 0, 48, 92
1, 214109, Note_off_c, 0, 48, 61
1, 214120, Note_off_c, 0, 43, 61
1, 214128, Control_c, 0, 64, 68
1, 214143, Control_c, 0, 64, 67
1, 214157, Control_c, 0, 64, 63
1, 214172, Control_c, 0, 64, 36
1, 214186, Note_on_c, 0, 41, 95
1, 214187, Control_c, 0, 64, 0
1, 214188, Note_on_c, 0, 72, 93
1, 214189, Note_on_c, 0, 48, 91
1, 214191, Note_on_c, 0, 60, 95
1, 214240, Note_off_c, 0, 72, 66
1, 214241, Note_off_c, 0, 60, 62
1, 214243, Note_off_c, 0, 48, 65
1, 214249, Note_off_c, 0, 41, 65
1, 214309, Note_on_c, 0, 48, 89
1, 214312, Note_on_c, 0, 43, 89
1, 214313, Note_on_c, 0, 72, 99
1, 214315, Note_on_c, 0, 60, 98
1, 214351, Control_c, 0, 64, 60
1, 214357, Note_off_c, 0, 72, 68
1, 214360, Note_off_c, 0, 60, 64
1, 214365, Control_c, 0, 64, 67
1, 214366, Note_off_c, 0, 48, 63
1, 214377, Note_off_c, 0, 43, 62
1, 214380, Control_c, 0, 64, 71
1, 214402, Control_c, 0, 64, 76
1, 214417, Control_c, 0, 64, 82
1, 214432, Control_c, 0, 64, 88
1, 214446, Control_c, 0, 64, 94
1, 214450, Note_on_c, 0, 60, 101
1, 214451, Note_on_c, 0, 72, 103
1, 214452, Note_on_c, 0, 48, 88
1, 214461, Control_c, 0, 64, 101
1, 214467, Note_on_c, 0, 43, 63
1, 214468, Note_on_c, 0, 41, 61
1, 214477, Control_c, 0, 64, 109
1, 214480, Note_off_c, 0, 60, 64
1, 214492, Control_c, 0, 64, 116
1, 214494, Note_on_c, 0, 40, 37
1, 214495, Note_off_c, 0, 43, 61
1, 214496, Note_off_c, 0, 72, 65
1, 214497, Note_off_c, 0, 41, 60
1, 214506, Note_off_c, 0, 48, 63
1, 214507, Control_c, 0, 64, 126
1, 214522, Control_c, 0, 64, 127
1, 214532, Note_off_c, 0, 40, 49
1, 214611, Note_on_c, 0, 39, 105
1, 214613, Note_on_c, 0, 48, 97
1, 214619, Note_on_c, 0, 84, 107
1, 214620, Note_on_c, 0, 72, 107
1, 214622, Note_on_c, 0, 79, 103
1, 214625, Note_on_c, 0, 75, 97
1, 214625, Control_c, 0, 64, 123
1, 214640, Control_c, 0, 64, 103
1, 214649, Note_on_c, 0, 74, 51
1, 214650, Note_off_c, 0, 74, 127
1, 214650, Note_on_c, 0, 80, 46
1, 214651, Note_off_c, 0, 80, 127
1, 214655, Control_c, 0, 64, 87
1, 214666, Note_on_c, 0, 42, 35
1, 214669, Control_c, 0, 64, 72
1, 214684, Control_c, 0, 64, 48
1, 214693, Note_off_c, 0, 39, 58
1, 214694, Note_off_c, 0, 48, 61
1, 214699, Note_off_c, 0, 42, 53
1, 214699, Control_c, 0, 64, 0
1, 214750, Note_on_c, 0, 48, 77
1, 214767, Note_on_c, 0, 43, 66
1, 214795, Note_on_c, 0, 41, 24
1, 214818, Control_c, 0, 64, 35
1, 214823, Note_off_c, 0, 43, 58
1, 214828, Note_off_c, 0, 48, 62
1, 214833, Control_c, 0, 64, 46
1, 214839, Note_off_c, 0, 41, 53
1, 214848, Control_c, 0, 64, 51
1, 214862, Control_c, 0, 64, 55
1, 214872, Poly_aftertouch_c, 0, 48, 0
1, 214875, Note_on_c, 0, 39, 79
1, 214877, Control_c, 0, 64, 58
1, 214880, Note_on_c, 0, 48, 79
1, 214892, Control_c, 0, 64, 62
1, 214906, Control_c, 0, 64, 63
1, 214921, Control_c, 0, 64, 64
1, 214944, Note_off_c, 0, 48, 62
1, 214945, Note_off_c, 0, 39, 62
1, 214966, Control_c, 0, 64, 63
1, 214995, Control_c, 0, 64, 64
1, 215008, Note_on_c, 0, 43, 89
1, 215008, Note_on_c, 0, 48, 85
1, 215025, Control_c, 0, 64, 64
1, 215040, Control_c, 0, 64, 65
1, 215054, Control_c, 0, 64, 67
1, 215067, Note_off_c, 0, 48, 64
1, 215078, Note_off_c, 0, 43, 62
1, 215084, Control_c, 0, 64, 67
1, 215139, Note_on_c, 0, 44, 92
1, 215142, Note_on_c, 0, 48, 86
1, 215204, Note_off_c, 0, 48, 65
1, 215206, Note_off_c, 0, 44, 63
1, 215255, Control_c, 0, 64, 67
1, 215269, Note_on_c, 0, 43, 92
1, 215270, Note_on_c, 0, 48, 81
1, 215271, Control_c, 0, 64, 66
1, 215325, Note_off_c, 0, 48, 65
1, 215330, Note_off_c, 0, 43, 62
1, 215330, Control_c, 0, 64, 65
1, 215344, Control_c, 0, 64, 63
1, 215359, Control_c, 0, 64, 62
1, 215389, Control_c, 0, 64, 63
1, 215390, Note_on_c, 0, 48, 87
1, 215391, Note_on_c, 0, 41, 92
1, 215403, Control_c, 0, 64, 65
1, 215412, Note_off_c, 0, 84, 57
1, 215418, Control_c, 0, 64, 65
1, 215433, Control_c, 0, 64, 66
1, 215446, Note_off_c, 0, 79, 60
1, 215447, Note_off_c, 0, 48, 64
1, 215447, Control_c, 0, 64, 66
1, 215454, Note_off_c, 0, 41, 66
1, 215459, Note_off_c, 0, 75, 59
1, 215462, Control_c, 0, 64, 67
1, 215471, Note_off_c, 0, 72, 62
1, 215477, Control_c, 0, 64, 67
1, 215492, Control_c, 0, 64, 68
1, 215507, Control_c, 0, 64, 68
1, 215515, Note_on_c, 0, 43, 91
1, 215516, Note_on_c, 0, 48, 82
1, 215536, Control_c, 0, 64, 69
1, 215564, Note_off_c, 0, 48, 64
1, 215566, Control_c, 0, 64, 69
1, 215578, Note_off_c, 0, 43, 62
1, 215581, Control_c, 0, 64, 70
1, 215635, Note_on_c, 0, 41, 84
1, 215637, Note_on_c, 0, 48, 85
1, 215670, Control_c, 0, 64, 70
1, 215696, Note_off_c, 0, 48, 65
1, 215697, Note_off_c, 0, 41, 66
1, 215728, Control_c, 0, 64, 69
1, 215743, Control_c, 0, 64, 63
1, 215758, Control_c, 0, 64, 32
1, 215760, Note_on_c, 0, 48, 89
1, 215762, Note_on_c, 0, 72, 96
1, 215763, Note_on_c, 0, 39, 87
1, 215763, Note_on_c, 0, 60, 99
1, 215773, Control_c, 0, 64, 0
1, 215817, Note_off_c, 0, 72, 66
1, 215824, Note_off_c, 0, 48, 64
1, 215826, Note_off_c, 0, 60, 60
1, 215836, Note_off_c, 0, 39, 57
1, 215899, Control_c, 0, 64, 59
1, 215900, Note_on_c, 0, 48, 81
1, 215902, Note_on_c, 0, 41, 80
1, 215905, Note_on_c, 0, 60, 101
1, 215905, Note_on_c, 0, 72, 101
1, 215914, Control_c, 0, 64, 64
1, 215929, Control_c, 0, 64, 66
1, 215943, Control_c, 0, 64, 69
1, 215956, Note_off_c, 0, 48, 63
1, 215956, Note_off_c, 0, 72, 66
1, 215958, Control_c, 0, 64, 73
1, 215964, Note_off_c, 0, 60, 59
1, 215969, Note_off_c, 0, 41, 65
1, 215973, Control_c, 0, 64, 78
1, 215988, Control_c, 0, 64, 82
1, 216003, Control_c, 0, 64, 84
1, 216017, Control_c, 0, 64, 84
1, 216029, Note_on_c, 0, 39, 84
1, 216032, Control_c, 0, 64, 85
1, 216034, Note_on_c, 0, 48, 75
1, 216042, Note_on_c, 0, 60, 102
1, 216042, Note_on_c, 0, 72, 101
1, 216047, Control_c, 0, 64, 86
1, 216062, Note_off_c, 0, 48, 66
1, 216063, Control_c, 0, 64, 89
1, 216078, Control_c, 0, 64, 92
1, 216090, Note_off_c, 0, 39, 61
1, 216093, Control_c, 0, 64, 94
1, 216107, Control_c, 0, 64, 95
1, 216118, Note_off_c, 0, 72, 62
1, 216122, Control_c, 0, 64, 95
1, 216129, Note_off_c, 0, 60, 62
1, 216152, Control_c, 0, 64, 95
1, 216166, Control_c, 0, 64, 89
1, 216181, Control_c, 0, 64, 76
1, 216196, Control_c, 0, 64, 26
1, 216200, Note_on_c, 0, 44, 93
1, 216202, Note_on_c, 0, 61, 99
1, 216204, Note_on_c, 0, 65, 99
1, 216204, Note_on_c, 0, 73, 102
1, 216206, Note_on_c, 0, 37, 87
1, 216211, Control_c, 0, 64, 0
1, 216264, Note_off_c, 0, 44, 62
1, 216285, Control_c, 0, 64, 67
1, 216288, Note_off_c, 0, 37, 64
1, 216300, Control_c, 0, 64, 78
1, 216312, Poly_aftertouch_c, 0, 70, 0
1, 216315, Control_c, 0, 64, 88
1, 216330, Control_c, 0, 64, 94
1, 216333, Note_off_c, 0, 65, 66
1, 216338, Note_on_c, 0, 44, 88
1, 216344, Note_off_c, 0, 61, 60
1, 216345, Control_c, 0, 64, 96
1, 216350, Note_on_c, 0, 39, 80
1, 216359, Control_c, 0, 64, 98
1, 216374, Control_c, 0, 64, 100
1, 216389, Control_c, 0, 64, 103
1, 216401, Note_off_c, 0, 44, 62
1, 216402, Note_off_c, 0, 39, 59
1, 216404, Control_c, 0, 64, 104
1, 216419, Control_c, 0, 64, 106
1, 216433, Control_c, 0, 64, 106
1, 216448, Control_c, 0, 64, 107
1, 216463, Control_c, 0, 64, 107
1, 216464, Note_on_c, 0, 44, 84
1, 216467, Note_on_c, 0, 36, 85
1, 216492, Control_c, 0, 64, 108
1, 216516, Note_off_c, 0, 44, 61
1, 216528, Note_off_c, 0, 36, 63
1, 216552, Control_c, 0, 64, 107
1, 216566, Control_c, 0, 64, 99
1, 216581, Control_c, 0, 64, 84
1, 216596, Control_c, 0, 64, 66
1, 216599, Note_off_c, 0, 73, 58
1, 216602, Note_on_c, 0, 77, 102
1, 216603, Note_on_c, 0, 37, 89
1, 216604, Note_on_c, 0, 44, 95
1, 216605, Note_on_c, 0, 65, 100
1, 216611, Control_c, 0, 64, 0
1, 216666, Note_off_c, 0, 44, 61
1, 216678, Control_c, 0, 64, 52
1, 216682, Note_off_c, 0, 37, 64
1, 216692, Control_c, 0, 64, 68
1, 216707, Control_c, 0, 64, 73
1, 216722, Control_c, 0, 64, 77
1, 216737, Control_c, 0, 64, 79
1, 216744, Note_on_c, 0, 39, 83
1, 216747, Note_on_c, 0, 44, 85
1, 216752, Control_c, 0, 64, 83
1, 216762, Note_off_c, 0, 65, 56
1, 216766, Control_c, 0, 64, 87
1, 216781, Control_c, 0, 64, 91
1, 216796, Control_c, 0, 64, 94
1, 216809, Note_off_c, 0, 44, 62
1, 216811, Control_c, 0, 64, 97
1, 216816, Note_off_c, 0, 39, 62
1, 216826, Control_c, 0, 64, 100
1, 216840, Control_c, 0, 64, 103
1, 216856, Control_c, 0, 64, 106
1, 216868, Note_on_c, 0, 44, 72
1, 216871, Control_c, 0, 64, 109
1, 216873, Note_on_c, 0, 41, 84
1, 216873, Note_off_c, 0, 77, 58
1, 216886, Control_c, 0, 64, 112
1, 216902, Control_c, 0, 64, 115
1, 216916, Note_off_c, 0, 44, 63
1, 216916, Control_c, 0, 64, 115
1, 216923, Note_on_c, 0, 80, 88
1, 216923, Note_off_c, 0, 41, 67
1, 216925, Note_on_c, 0, 68, 92
1, 216962, Note_off_c, 0, 68, 66
1, 216965, Note_off_c, 0, 80, 66
1, 216976, Control_c, 0, 64, 112
1, 216990, Control_c, 0, 64, 94
1, 217005, Control_c, 0, 64, 76
1, 217009, Note_on_c, 0, 79, 106
1, 217010, Note_on_c, 0, 43, 98
1, 217012, Note_on_c, 0, 31, 92
1, 217012, Note_on_c, 0, 67, 93
1, 217014, Note_on_c, 0, 72, 91
1, 217016, Note_on_c, 0, 75, 90
1, 217020, Control_c, 0, 64, 0
1, 217096, Note_off_c, 0, 43, 61
1, 217108, Control_c, 0, 64, 48
1, 217123, Control_c, 0, 64, 69
1, 217125, Note_off_c, 0, 31, 57
1, 217132, Note_off_c, 0, 79, 58
1, 217138, Control_c, 0, 64, 77
1, 217143, Note_off_c, 0, 67, 56
1, 217153, Control_c, 0, 64, 86
1, 217156, Note_on_c, 0, 43, 83
1, 217168, Control_c, 0, 64, 92
1, 217182, Control_c, 0, 64, 97
1, 217197, Control_c, 0, 64, 100
1, 217200, Note_off_c, 0, 72, 60
1, 217212, Note_off_c, 0, 75, 58
1, 217212, Control_c, 0, 64, 104
1, 217221, Note_off_c, 0, 43, 61
1, 217227, Control_c, 0, 64, 108
1, 217230, Poly_aftertouch_c, 0, 31, 127
1, 217242, Control_c, 0, 64, 111
1, 217257, Control_c, 0, 64, 112
1, 217266, Poly_aftertouch_c, 0, 31, 0
1, 217272, Control_c, 0, 64, 113
1, 217284, Note_on_c, 0, 43, 84
1, 217361, Control_c, 0, 64, 113
1, 217376, Control_c, 0, 64, 103
1, 217377, Note_off_c, 0, 43, 56
1, 217397, Control_c, 0, 64, 87
1, 217412, Control_c, 0, 64, 66
1, 217421, Note_on_c, 0, 79, 102
1, 217422, Note_on_c, 0, 31, 95
1, 217423, Note_on_c, 0, 74, 93
1, 217424, Note_on_c, 0, 71, 91
1, 217425, Note_on_c, 0, 67, 93
1, 217427, Note_on_c, 0, 43, 66
1, 217427, Control_c, 0, 64, 0
1, 217460, Note_off_c, 0, 43, 64
1, 217501, Control_c, 0, 64, 69
1, 217515, Note_off_c, 0, 79, 63
1, 217516, Control_c, 0, 64, 81
1, 217531, Control_c, 0, 64, 95
1, 217537, Note_on_c, 0, 43, 85
1, 217546, Control_c, 0, 64, 102
1, 217554, Note_off_c, 0, 74, 64
1, 217555, Note_off_c, 0, 67, 53
1, 217561, Control_c, 0, 64, 102
1, 217576, Control_c, 0, 64, 103
1, 217577, Note_off_c, 0, 71, 63
1, 217583, Note_off_c, 0, 43, 61
1, 217590, Control_c, 0, 64, 105
1, 217605, Control_c, 0, 64, 108
1, 217620, Control_c, 0, 64, 111
1, 217635, Control_c, 0, 64, 113
1, 217650, Control_c, 0, 64, 114
1, 217665, Control_c, 0, 64, 117
1, 217677, Note_on_c, 0, 43, 88
1, 217680, Control_c, 0, 64, 120
1, 217695, Control_c, 0, 64, 123
1, 217697, Note_off_c, 0, 31, 58
1, 217710, Control_c, 0, 64, 126
1, 217725, Control_c, 0, 64, 127
1, 217729, Note_off_c, 0, 43, 62
1, 217813, Control_c, 0, 64, 112
1, 217828, Control_c, 0, 64, 90
1, 217843, Control_c, 0, 64, 69
1, 217858, Control_c, 0, 64, 0
1, 217859, Note_on_c, 0, 72, 92
1, 217859, Note_on_c, 0, 67, 92
1, 217860, Note_on_c, 0, 63, 94
1, 217861, Note_on_c, 0, 48, 100
1, 217861, Note_on_c, 0, 60, 92
1, 217865, Note_on_c, 0, 36, 91
1, 217873, Note_on_c, 0, 43, 77
1, 217917, Control_c, 0, 64, 63
1, 217931, Control_c, 0, 64, 74
1, 217946, Control_c, 0, 64, 82
1, 217960, Note_off_c, 0, 36, 63
1, 217961, Control_c, 0, 64, 84
1, 217963, Note_off_c, 0, 48, 66
1, 217968, Note_off_c, 0, 43, 59
1, 218095, Note_on_c, 0, 51, 100
1, 218197, Note_off_c, 0, 51, 59
1, 218220, Control_c, 0, 64, 84
1, 218222, Poly_aftertouch_c, 0, 49, 0
1, 218235, Control_c, 0, 64, 83
1, 218250, Control_c, 0, 64, 83
1, 218258, Note_on_c, 0, 50, 97
1, 218264, Control_c, 0, 64, 82
1, 218279, Control_c, 0, 64, 82
1, 218294, Control_c, 0, 64, 81
1, 218324, Control_c, 0, 64, 81
1, 218337, Note_off_c, 0, 50, 63
1, 218339, Control_c, 0, 64, 79
1, 218354, Control_c, 0, 64, 76
1, 218369, Control_c, 0, 64, 73
1, 218384, Control_c, 0, 64, 71
1, 218399, Control_c, 0, 64, 68
1, 218402, Note_on_c, 0, 48, 100
1, 218413, Control_c, 0, 64, 65
1, 218428, Control_c, 0, 64, 62
1, 218443, Control_c, 0, 64, 61
1, 218472, Note_off_c, 0, 48, 64
1, 218488, Control_c, 0, 64, 60
1, 218503, Control_c, 0, 64, 59
1, 218518, Control_c, 0, 64, 58
1, 218542, Note_on_c, 0, 50, 98
1, 218548, Control_c, 0, 64, 58
1, 218619, Note_off_c, 0, 50, 63
1, 218622, Control_c, 0, 64, 58
1, 218673, Note_on_c, 0, 48, 105
1, 218696, Control_c, 0, 64, 57
1, 218731, Note_off_c, 0, 48, 66
1, 218754, Control_c, 0, 64, 58
1, 218798, Note_on_c, 0, 47, 100
1, 218799, Control_c, 0, 64, 58
1, 218828, Control_c, 0, 64, 59
1, 218858, Control_c, 0, 64, 60
1, 218861, Note_off_c, 0, 47, 63
1, 218880, Control_c, 0, 64, 60
1, 218895, Control_c, 0, 64, 61
1, 218910, Control_c, 0, 64, 61
1, 218925, Control_c, 0, 64, 62
1, 218932, Note_on_c, 0, 48, 99
1, 218940, Control_c, 0, 64, 62
1, 218942, Note_off_c, 0, 63, 57
1, 218954, Control_c, 0, 64, 63
1, 218984, Control_c, 0, 64, 63
1, 219001, Note_off_c, 0, 48, 67
1, 219007, Note_off_c, 0, 72, 54
1, 219010, Note_off_c, 0, 60, 55
1, 219014, Control_c, 0, 64, 64
1, 219030, Note_off_c, 0, 67, 53
1, 219043, Control_c, 0, 64, 64
1, 219056, Note_on_c, 0, 47, 100
1, 219087, Control_c, 0, 64, 65
1, 219102, Control_c, 0, 64, 65
1, 219120, Note_off_c, 0, 47, 65
1, 219161, Control_c, 0, 64, 64
1, 219174, Note_on_c, 0, 46, 107
1, 219176, Control_c, 0, 64, 62
1, 219180, Note_on_c, 0, 72, 95
1, 219182, Note_on_c, 0, 60, 98
1, 219191, Control_c, 0, 64, 52
1, 219206, Control_c, 0, 64, 36
1, 219221, Control_c, 0, 64, 0
1, 219232, Note_off_c, 0, 72, 66
1, 219233, Note_off_c, 0, 60, 61
1, 219246, Note_off_c, 0, 46, 63
1, 219296, Control_c, 0, 64, 31
1, 219299, Note_on_c, 0, 48, 94
1, 219308, Note_on_c, 0, 60, 100
1, 219308, Note_on_c, 0, 72, 100
1, 219310, Control_c, 0, 64, 63
1, 219325, Control_c, 0, 64, 69
1, 219340, Control_c, 0, 64, 74
1, 219353, Note_off_c, 0, 72, 67
1, 219355, Control_c, 0, 64, 78
1, 219359, Note_off_c, 0, 60, 60
1, 219370, Control_c, 0, 64, 81
1, 219370, Note_off_c, 0, 48, 66
1, 219384, Control_c, 0, 64, 84
1, 219399, Control_c, 0, 64, 86
1, 219414, Control_c, 0, 64, 87
1, 219429, Control_c, 0, 64, 88
1, 219434, Note_on_c, 0, 72, 96
1, 219435, Note_on_c, 0, 60, 91
1, 219443, Note_on_c, 0, 47, 92
1, 219444, Control_c, 0, 64, 91
1, 219445, Note_on_c, 0, 46, 60
1, 219456, Note_off_c, 0, 60, 59
1, 219458, Control_c, 0, 64, 94
1, 219473, Control_c, 0, 64, 97
1, 219475, Note_off_c, 0, 46, 58
1, 219484, Note_off_c, 0, 72, 66
1, 219487, Note_off_c, 0, 47, 64
1, 219488, Control_c, 0, 64, 98
1, 219517, Control_c, 0, 64, 99
1, 219547, Control_c, 0, 64, 98
1, 219562, Control_c, 0, 64, 97
1, 219574, Note_on_c, 0, 48, 102
1, 219576, Note_on_c, 0, 72, 101
1, 219576, Note_on_c, 0, 84, 108
1, 219576, Control_c, 0, 64, 91
1, 219578, Note_on_c, 0, 74, 98
1, 219579, Note_on_c, 0, 45, 95
1, 219591, Control_c, 0, 64, 82
1, 219606, Control_c, 0, 64, 73
1, 219629, Control_c, 0, 64, 64
1, 219644, Control_c, 0, 64, 43
1, 219648, Note_off_c, 0, 48, 64
1, 219658, Control_c, 0, 64, 22
1, 219670, Note_off_c, 0, 45, 64
1, 219673, Control_c, 0, 64, 38
1, 219688, Control_c, 0, 64, 49
1, 219702, Control_c, 0, 64, 52
1, 219716, Note_on_c, 0, 48, 90
1, 219717, Note_on_c, 0, 46, 92
1, 219732, Control_c, 0, 64, 53
1, 219747, Control_c, 0, 64, 56
1, 219762, Control_c, 0, 64, 58
1, 219773, Note_off_c, 0, 48, 66
1, 219775, Note_off_c, 0, 46, 63
1, 219777, Control_c, 0, 64, 59
1, 219791, Control_c, 0, 64, 59
1, 219841, Note_on_c, 0, 48, 88
1, 219842, Note_on_c, 0, 45, 93
1, 219896, Control_c, 0, 64, 60
1, 219898, Note_off_c, 0, 45, 64
1, 219904, Note_off_c, 0, 48, 65
1, 219925, Control_c, 0, 64, 60
1, 219940, Control_c, 0, 64, 61
1, 219974, Note_on_c, 0, 48, 96
1, 219978, Note_on_c, 0, 44, 94
1, 219999, Control_c, 0, 64, 61
1, 220014, Control_c, 0, 64, 62
1, 220032, Note_off_c, 0, 48, 66
1, 220048, Note_off_c, 0, 44, 63
1, 220104, Note_on_c, 0, 48, 90
1, 220105, Note_on_c, 0, 46, 95
1, 220133, Control_c, 0, 64, 62
1, 220160, Note_off_c, 0, 48, 66
1, 220163, Note_off_c, 0, 46, 64
1, 220232, Note_on_c, 0, 48, 95
1, 220234, Note_on_c, 0, 44, 90
1, 220253, Control_c, 0, 64, 63
1, 220282, Control_c, 0, 64, 63
1, 220291, Note_off_c, 0, 44, 65
1, 220293, Note_off_c, 0, 48, 66
1, 220297, Poly_aftertouch_c, 0, 80, 127
1, 220330, Note_off_c, 0, 84, 58
1, 220353, Note_on_c, 0, 48, 90
1, 220354, Note_on_c, 0, 43, 93
1, 220356, Control_c, 0, 64, 64
1, 220366, Note_off_c, 0, 74, 57
1, 220366, Poly_aftertouch_c, 0, 80, 0
1, 220393, Control_c, 0, 64, 64
1, 220402, Note_off_c, 0, 72, 59
1, 220419, Note_off_c, 0, 43, 62
1, 220419, Note_off_c, 0, 48, 65
1, 220482, Note_on_c, 0, 44, 94
1, 220485, Note_on_c, 0, 48, 90
1, 220532, Note_off_c, 0, 48, 64
1, 220541, Control_c, 0, 64, 64
1, 220545, Note_off_c, 0, 44, 63
1, 220556, Control_c, 0, 64, 63
1, 220571, Control_c, 0, 64, 62
1, 220604, Note_on_c, 0, 48, 96
1, 220606, Note_on_c, 0, 43, 93
1, 220656, Note_off_c, 0, 48, 66
1, 220663, Note_off_c, 0, 43, 61
1, 220689, Control_c, 0, 64, 62
1, 220704, Control_c, 0, 64, 58
1, 220719, Control_c, 0, 64, 52
1, 220729, Note_on_c, 0, 72, 92
1, 220730, Note_on_c, 0, 60, 93
1, 220733, Note_on_c, 0, 48, 100
1, 220733, Control_c, 0, 64, 34
1, 220737, Note_on_c, 0, 41, 83
1, 220748, Control_c, 0, 64, 0
1, 220752, Note_on_c, 0, 43, 59
1, 220780, Note_off_c, 0, 72, 67
1, 220783, Note_off_c, 0, 60, 62
1, 220784, Note_off_c, 0, 43, 34
1, 220784, Note_off_c, 0, 48, 67
1, 220800, Note_off_c, 0, 41, 67
1, 220855, Note_on_c, 0, 60, 97
1, 220855, Note_on_c, 0, 72, 97
1, 220858, Note_on_c, 0, 48, 92
1, 220859, Note_on_c, 0, 43, 85
1, 220868, Control_c, 0, 64, 57
1, 220883, Control_c, 0, 64, 66
1, 220898, Control_c, 0, 64, 71
1, 220899, Note_off_c, 0, 72, 68
1, 220900, Note_off_c, 0, 60, 64
1, 220910, Note_off_c, 0, 48, 65
1, 220912, Control_c, 0, 64, 77
1, 220919, Note_off_c, 0, 43, 62
1, 220927, Control_c, 0, 64, 81
1, 220942, Control_c, 0, 64, 84
1, 220956, Control_c, 0, 64, 85
1, 220971, Control_c, 0, 64, 86
1, 220974, Note_on_c, 0, 72, 100
1, 220975, Note_on_c, 0, 48, 93
1, 220976, Note_on_c, 0, 60, 93
1, 220980, Note_on_c, 0, 41, 94
1, 220986, Control_c, 0, 64, 89
1, 220998, Note_off_c, 0, 60, 69
1, 221001, Control_c, 0, 64, 92
1, 221016, Control_c, 0, 64, 96
1, 221019, Note_off_c, 0, 48, 64
1, 221020, Note_off_c, 0, 72, 68
1, 221025, Note_off_c, 0, 41, 67
1, 221031, Control_c, 0, 64, 98
1, 221046, Control_c, 0, 64, 100
1, 221061, Control_c, 0, 64, 101
1, 221075, Control_c, 0, 64, 102
1, 221090, Control_c, 0, 64, 103
1, 221133, Note_on_c, 0, 48, 101
1, 221134, Note_on_c, 0, 84, 114
1, 221135, Note_on_c, 0, 72, 108
1, 221136, Note_on_c, 0, 40, 102
1, 221137, Note_on_c, 0, 79, 99
1, 221142, Control_c, 0, 64, 101
1, 221156, Control_c, 0, 64, 92
1, 221171, Control_c, 0, 64, 78
1, 221186, Control_c, 0, 64, 64
1, 221201, Control_c, 0, 64, 0
1, 221213, Note_off_c, 0, 48, 62
1, 221217, Note_off_c, 0, 40, 63
1, 221272, Note_on_c, 0, 48, 79
1, 221273, Note_on_c, 0, 41, 90
1, 221296, Note_on_c, 0, 47, 49
1, 221327, Note_off_c, 0, 41, 66
1, 221331, Note_off_c, 0, 47, 33
1, 221335, Note_off_c, 0, 48, 66
1, 221396, Note_on_c, 0, 48, 80
1, 221399, Note_on_c, 0, 40, 94
1, 221456, Note_off_c, 0, 40, 64
1, 221462, Note_off_c, 0, 48, 65
1, 221532, Note_on_c, 0, 48, 92
1, 221532, Note_on_c, 0, 39, 94
1, 221592, Note_off_c, 0, 48, 66
1, 221606, Note_off_c, 0, 39, 62
1, 221661, Note_on_c, 0, 41, 92
1, 221663, Note_on_c, 0, 48, 83
1, 221723, Note_off_c, 0, 41, 66
1, 221725, Note_off_c, 0, 48, 65
1, 221787, Note_on_c, 0, 39, 93
1, 221788, Note_on_c, 0, 48, 88
1, 221853, Note_off_c, 0, 48, 65
1, 221857, Note_off_c, 0, 39, 62
1, 221921, Note_on_c, 0, 48, 92
1, 221922, Note_on_c, 0, 38, 95
1, 221934, Note_off_c, 0, 84, 59
1, 221976, Note_off_c, 0, 72, 57
1, 221979, Control_c, 0, 64, 11
1, 221982, Note_off_c, 0, 79, 50
1, 221989, Note_off_c, 0, 48, 65
1, 221990, Note_off_c, 0, 38, 63
1, 221994, Control_c, 0, 64, 40
1, 222009, Control_c, 0, 64, 42
1, 222024, Control_c, 0, 64, 37
1, 222039, Control_c, 0, 64, 37
1, 222050, Note_on_c, 0, 39, 91
1, 222053, Note_on_c, 0, 48, 89
1, 222053, Control_c, 0, 64, 40
1, 222068, Control_c, 0, 64, 45
1, 222083, Control_c, 0, 64, 46
1, 222098, Control_c, 0, 64, 44
1, 222107, Note_off_c, 0, 48, 66
1, 222113, Control_c, 0, 64, 45
1, 222117, Note_off_c, 0, 39, 62
1, 222128, Control_c, 0, 64, 47
1, 222143, Control_c, 0, 64, 51
1, 222157, Control_c, 0, 64, 53
1, 222172, Control_c, 0, 64, 52
1, 222175, Note_on_c, 0, 38, 94
1, 222177, Note_on_c, 0, 48, 99
1, 222202, Control_c, 0, 64, 53
1, 222217, Control_c, 0, 64, 53
1, 222232, Control_c, 0, 64, 48
1, 222247, Control_c, 0, 64, 0
1, 222252, Note_off_c, 0, 48, 64
1, 222253, Note_off_c, 0, 38, 63
1, 222312, Note_on_c, 0, 36, 94
1, 222312, Note_on_c, 0, 48, 91
1, 222315, Note_on_c, 0, 72, 93
1, 222315, Note_on_c, 0, 60, 98
1, 222350, Control_c, 0, 64, 63
1, 222365, Control_c, 0, 64, 70
1, 222379, Control_c, 0, 64, 77
1, 222390, Note_off_c, 0, 48, 65
1, 222393, Note_off_c, 0, 72, 64
1, 222394, Control_c, 0, 64, 82
1, 222397, Note_off_c, 0, 60, 60
1, 222401, Note_off_c, 0, 36, 63
1, 222409, Control_c, 0, 64, 85
1, 222423, Control_c, 0, 64, 86
1, 222438, Control_c, 0, 64, 88
1, 222450, Note_on_c, 0, 48, 92
1, 222455, Note_on_c, 0, 36, 78
1, 222455, Control_c, 0, 64, 90
1, 222456, Note_on_c, 0, 72, 96
1, 222458, Note_on_c, 0, 60, 97
1, 222462, Note_on_c, 0, 38, 78
1, 222469, Control_c, 0, 64, 92
1, 222484, Control_c, 0, 64, 93
1, 222499, Control_c, 0, 64, 96
1, 222514, Control_c, 0, 64, 98
1, 222518, Note_off_c, 0, 48, 61
1, 222521, Note_off_c, 0, 36, 62
1, 222523, Note_off_c, 0, 72, 65
1, 222524, Note_off_c, 0, 60, 54
1, 222528, Control_c, 0, 64, 100
1, 222533, Note_off_c, 0, 38, 62
1, 222543, Control_c, 0, 64, 101
1, 222588, Control_c, 0, 64, 102
1, 222596, Note_on_c, 0, 39, 92
1, 222598, Note_on_c, 0, 48, 91
1, 222599, Note_on_c, 0, 60, 107
1, 222601, Note_on_c, 0, 72, 103
1, 222602, Control_c, 0, 64, 107
1, 222625, Control_c, 0, 64, 117
1, 222640, Control_c, 0, 64, 127
1, 222676, Note_off_c, 0, 48, 64
1, 222685, Note_off_c, 0, 72, 66
1, 222697, Note_off_c, 0, 60, 61
1, 222718, Note_off_c, 0, 39, 53
1, 222788, Control_c, 0, 64, 101
1, 222793, Note_on_c, 0, 44, 98
1, 222794, Note_on_c, 0, 65, 101
1, 222795, Note_on_c, 0, 61, 102
1, 222795, Note_on_c, 0, 41, 97
1, 222795, Note_on_c, 0, 73, 105
1, 222802, Control_c, 0, 64, 73
1, 222817, Control_c, 0, 64, 0
1, 222891, Control_c, 0, 64, 56
1, 222906, Control_c, 0, 64, 84
1, 222908, Note_off_c, 0, 44, 62
1, 222921, Control_c, 0, 64, 114
1, 222930, Note_off_c, 0, 61, 61
1, 222933, Note_off_c, 0, 41, 65
1, 222933, Note_off_c, 0, 65, 67
1, 222936, Control_c, 0, 64, 127
1, 222971, Note_on_c, 0, 44, 75
1, 222975, Note_on_c, 0, 39, 79
1, 223020, Note_off_c, 0, 73, 51
1, 223030, Note_off_c, 0, 44, 61
1, 223050, Note_off_c, 0, 39, 63
1, 223103, Note_on_c, 0, 44, 88
1, 223108, Note_on_c, 0, 37, 82
1, 223165, Note_off_c, 0, 44, 62
1, 223174, Note_off_c, 0, 37, 64
1, 223202, Control_c, 0, 64, 105
1, 223217, Control_c, 0, 64, 85
1, 223232, Note_on_c, 0, 37, 83
1, 223232, Control_c, 0, 64, 66
1, 223233, Note_on_c, 0, 44, 95
1, 223237, Note_on_c, 0, 77, 98
1, 223238, Note_on_c, 0, 65, 101
1, 223248, Control_c, 0, 64, 0
1, 223313, Note_off_c, 0, 44, 60
1, 223322, Control_c, 0, 64, 61
1, 223337, Control_c, 0, 64, 71
1, 223339, Note_off_c, 0, 37, 64
1, 223351, Control_c, 0, 64, 80
1, 223374, Control_c, 0, 64, 88
1, 223383, Note_on_c, 0, 44, 87
1, 223387, Note_on_c, 0, 39, 84
1, 223389, Control_c, 0, 64, 91
1, 223398, Note_off_c, 0, 77, 58
1, 223404, Control_c, 0, 64, 92
1, 223418, Control_c, 0, 64, 93
1, 223423, Note_off_c, 0, 65, 58
1, 223433, Control_c, 0, 64, 94
1, 223448, Control_c, 0, 64, 97
1, 223454, Note_off_c, 0, 44, 63
1, 223463, Control_c, 0, 64, 100
1, 223466, Note_off_c, 0, 39, 62
1, 223477, Control_c, 0, 64, 102
1, 223492, Control_c, 0, 64, 103
1, 223501, Note_on_c, 0, 44, 74
1, 223507, Control_c, 0, 64, 105
1, 223509, Note_on_c, 0, 41, 84
1, 223522, Control_c, 0, 64, 107
1, 223537, Control_c, 0, 64, 111
1, 223551, Control_c, 0, 64, 115
1, 223559, Note_off_c, 0, 44, 63
1, 223560, Note_on_c, 0, 80, 91
1, 223564, Note_off_c, 0, 41, 66
1, 223565, Note_on_c, 0, 68, 91
1, 223566, Control_c, 0, 64, 118
1, 223581, Control_c, 0, 64, 119
1, 223606, Note_off_c, 0, 68, 66
1, 223606, Note_off_c, 0, 80, 65
1, 223625, Control_c, 0, 64, 116
1, 223639, Control_c, 0, 64, 101
1, 223653, Note_on_c, 0, 79, 106
1, 223654, Note_on_c, 0, 43, 99
1, 223654, Control_c, 0, 64, 83
1, 223655, Note_on_c, 0, 67, 99
1, 223657, Note_on_c, 0, 72, 89
1, 223657, Note_on_c, 0, 75, 94
1, 223658, Note_on_c, 0, 31, 96
1, 223669, Control_c, 0, 64, 63
1, 223684, Control_c, 0, 64, 0
1, 223746, Note_off_c, 0, 43, 60
1, 223788, Control_c, 0, 64, 51
1, 223803, Control_c, 0, 64, 74
1, 223805, Note_on_c, 0, 43, 79
1, 223815, Note_off_c, 0, 79, 58
1, 223818, Control_c, 0, 64, 87
1, 223827, Note_off_c, 0, 67, 55
1, 223832, Control_c, 0, 64, 99
1, 223847, Control_c, 0, 64, 101
1, 223862, Control_c, 0, 64, 102
1, 223866, Note_off_c, 0, 72, 60
1, 223866, Note_off_c, 0, 43, 61
1, 223866, Note_off_c, 0, 75, 61
1, 223876, Control_c, 0, 64, 103
1, 223887, Note_off_c, 0, 31, 53
1, 223891, Control_c, 0, 64, 105
1, 223906, Control_c, 0, 64, 107
1, 223921, Control_c, 0, 64, 107
1, 223936, Control_c, 0, 64, 108
1, 223949, Note_on_c, 0, 43, 80
1, 223950, Control_c, 0, 64, 108
1, 223965, Control_c, 0, 64, 109
1, 223980, Control_c, 0, 64, 110
1, 223995, Control_c, 0, 64, 111
1, 224017, Note_off_c, 0, 43, 61
1, 224040, Control_c, 0, 64, 109
1, 224055, Control_c, 0, 64, 97
1, 224070, Control_c, 0, 64, 76
1, 224083, Note_on_c, 0, 79, 96
1, 224085, Note_on_c, 0, 74, 93
1, 224085, Control_c, 0, 64, 35
1, 224086, Note_on_c, 0, 67, 91
1, 224086, Note_on_c, 0, 71, 85
1, 224089, Note_on_c, 0, 43, 90
1, 224090, Note_on_c, 0, 31, 86
1, 224099, Control_c, 0, 64, 0
1, 224163, Note_off_c, 0, 43, 62
1, 224167, Control_c, 0, 64, 66
1, 224181, Control_c, 0, 64, 79
1, 224196, Control_c, 0, 64, 93
1, 224211, Control_c, 0, 64, 103
1, 224218, Note_off_c, 0, 79, 62
1, 224226, Control_c, 0, 64, 106
1, 224229, Note_off_c, 0, 67, 60
1, 224241, Control_c, 0, 64, 106
1, 224245, Note_on_c, 0, 43, 81
1, 224255, Control_c, 0, 64, 108
1, 224268, Note_off_c, 0, 74, 65
1, 224270, Control_c, 0, 64, 111
1, 224280, Note_off_c, 0, 71, 61
1, 224285, Control_c, 0, 64, 113
1, 224299, Control_c, 0, 64, 115
1, 224313, Note_off_c, 0, 43, 59
1, 224314, Control_c, 0, 64, 117
1, 224329, Control_c, 0, 64, 117
1, 224344, Control_c, 0, 64, 118
1, 224359, Control_c, 0, 64, 118
1, 224373, Control_c, 0, 64, 119
1, 224388, Control_c, 0, 64, 120
1, 224403, Control_c, 0, 64, 120
1, 224405, Note_on_c, 0, 43, 80
1, 224417, Note_off_c, 0, 31, 58
1, 224447, Note_off_c, 0, 43, 60
1, 224566, Control_c, 0, 64, 113
1, 224581, Control_c, 0, 64, 96
1, 224596, Control_c, 0, 64, 79
1, 224598, Note_on_c, 0, 72, 97
1, 224602, Note_on_c, 0, 67, 88
1, 224604, Note_on_c, 0, 36, 86
1, 224604, Note_on_c, 0, 63, 83
1, 224605, Note_on_c, 0, 48, 85
1, 224605, Note_on_c, 0, 60, 86
1, 224611, Control_c, 0, 64, 60
1, 224625, Control_c, 0, 64, 0
1, 224729, Control_c, 0, 64, 54
1, 224744, Control_c, 0, 64, 70
1, 224759, Control_c, 0, 64, 76
1, 224773, Control_c, 0, 64, 81
1, 224787, Note_off_c, 0, 48, 64
1, 224788, Control_c, 0, 64, 84
1, 224803, Control_c, 0, 64, 87
1, 224815, Note_off_c, 0, 36, 62
1, 224817, Control_c, 0, 64, 88
1, 224832, Control_c, 0, 64, 89
1, 224849, Control_c, 0, 64, 91
1, 224870, Control_c, 0, 64, 91
1, 224880, Note_on_c, 0, 36, 74
1, 224885, Control_c, 0, 64, 92
1, 224888, Note_on_c, 0, 48, 76
1, 224900, Control_c, 0, 64, 92
1, 224915, Control_c, 0, 64, 93
1, 224930, Control_c, 0, 64, 94
1, 224943, Note_off_c, 0, 48, 63
1, 224945, Control_c, 0, 64, 94
1, 224954, Note_off_c, 0, 36, 61
1, 225031, Note_on_c, 0, 36, 78
1, 225043, Note_on_c, 0, 48, 79
1, 225078, Control_c, 0, 64, 95
1, 225093, Control_c, 0, 64, 96
1, 225101, Note_off_c, 0, 48, 62
1, 225107, Note_off_c, 0, 36, 62
1, 225108, Control_c, 0, 64, 97
1, 225177, Note_on_c, 0, 38, 83
1, 225180, Note_on_c, 0, 48, 83
1, 225182, Control_c, 0, 64, 94
1, 225196, Control_c, 0, 64, 85
1, 225211, Control_c, 0, 64, 73
1, 225226, Control_c, 0, 64, 55
1, 225240, Control_c, 0, 64, 0
1, 225250, Note_off_c, 0, 48, 65
1, 225255, Control_c, 0, 64, 25
1, 225263, Note_off_c, 0, 38, 63
1, 225270, Control_c, 0, 64, 57
1, 225285, Control_c, 0, 64, 66
1, 225300, Control_c, 0, 64, 73
1, 225315, Control_c, 0, 64, 81
1, 225317, Note_on_c, 0, 38, 74
1, 225322, Note_on_c, 0, 48, 76
1, 225329, Control_c, 0, 64, 86
1, 225344, Control_c, 0, 64, 88
1, 225359, Control_c, 0, 64, 88
1, 225374, Note_off_c, 0, 48, 63
1, 225374, Control_c, 0, 64, 89
1, 225389, Control_c, 0, 64, 90
1, 225395, Note_off_c, 0, 38, 61
1, 225404, Control_c, 0, 64, 91
1, 225419, Control_c, 0, 64, 93
1, 225434, Control_c, 0, 64, 94
1, 225448, Note_on_c, 0, 38, 73
1, 225448, Control_c, 0, 64, 94
1, 225452, Note_on_c, 0, 48, 79
1, 225463, Control_c, 0, 64, 95
1, 225478, Control_c, 0, 64, 96
1, 225493, Control_c, 0, 64, 98
1, 225502, Note_off_c, 0, 48, 64
1, 225508, Control_c, 0, 64, 101
1, 225517, Note_off_c, 0, 38, 62
1, 225522, Control_c, 0, 64, 103
1, 225537, Control_c, 0, 64, 104
1, 225582, Note_on_c, 0, 39, 82
1, 225582, Control_c, 0, 64, 102
1, 225589, Note_on_c, 0, 48, 84
1, 225596, Control_c, 0, 64, 91
1, 225611, Control_c, 0, 64, 78
1, 225633, Control_c, 0, 64, 66
1, 225649, Control_c, 0, 64, 48
1, 225656, Note_off_c, 0, 48, 64
1, 225658, Note_off_c, 0, 39, 61
1, 225664, Control_c, 0, 64, 46
1, 225678, Control_c, 0, 64, 60
1, 225693, Control_c, 0, 64, 67
1, 225708, Control_c, 0, 64, 76
1, 225714, Note_on_c, 0, 39, 76
1, 225716, Note_on_c, 0, 48, 75
1, 225723, Control_c, 0, 64, 84
1, 225738, Control_c, 0, 64, 90
1, 225752, Control_c, 0, 64, 93
1, 225767, Control_c, 0, 64, 94
1, 225772, Note_off_c, 0, 48, 64
1, 225776, Note_off_c, 0, 39, 61
1, 225782, Control_c, 0, 64, 94
1, 225797, Control_c, 0, 64, 95
1, 225812, Control_c, 0, 64, 96
1, 225815, Note_off_c, 0, 60, 50
1, 225825, Note_off_c, 0, 67, 59
1, 225827, Control_c, 0, 64, 96
1, 225834, Note_on_c, 0, 39, 70
1, 225835, Note_on_c, 0, 48, 74
1, 225842, Control_c, 0, 64, 97
1, 225848, Note_off_c, 0, 63, 48
1, 225857, Control_c, 0, 64, 98
1, 225871, Control_c, 0, 64, 100
1, 225872, Note_off_c, 0, 72, 53
1, 225885, Control_c, 0, 64, 102
1, 225893, Note_off_c, 0, 48, 64
1, 225900, Control_c, 0, 64, 104
1, 225902, Note_off_c, 0, 39, 58
1, 225915, Control_c, 0, 64, 105
1, 225944, Control_c, 0, 64, 104
1, 225959, Control_c, 0, 64, 97
1, 225967, Note_on_c, 0, 40, 73
1, 225969, Note_on_c, 0, 48, 71
1, 225974, Control_c, 0, 64, 84
1, 225976, Note_on_c, 0, 60, 70
1, 225978, Note_on_c, 0, 72, 75
1, 225989, Control_c, 0, 64, 69
1, 226004, Control_c, 0, 64, 57
1, 226018, Control_c, 0, 64, 44
1, 226029, Note_off_c, 0, 40, 64
1, 226033, Note_off_c, 0, 48, 64
1, 226033, Control_c, 0, 64, 57
1, 226039, Note_off_c, 0, 72, 63
1, 226041, Note_off_c, 0, 60, 61
1, 226048, Control_c, 0, 64, 66
1, 226062, Control_c, 0, 64, 74
1, 226077, Control_c, 0, 64, 83
1, 226092, Control_c, 0, 64, 89
1, 226094, Note_on_c, 0, 48, 70
1, 226095, Note_on_c, 0, 40, 72
1, 226101, Note_on_c, 0, 72, 69
1, 226104, Note_on_c, 0, 60, 72
1, 226107, Control_c, 0, 64, 91
1, 226122, Control_c, 0, 64, 92
1, 226137, Control_c, 0, 64, 94
1, 226152, Control_c, 0, 64, 94
1, 226156, Note_off_c, 0, 40, 64
1, 226156, Note_off_c, 0, 48, 64
1, 226158, Note_off_c, 0, 72, 65
1, 226165, Note_off_c, 0, 60, 62
1, 226167, Control_c, 0, 64, 95
1, 226197, Control_c, 0, 64, 95
1, 226226, Control_c, 0, 64, 96
1, 226226, Note_on_c, 0, 48, 68
1, 226232, Note_on_c, 0, 60, 80
1, 226233, Note_on_c, 0, 40, 61
1, 226239, Note_on_c, 0, 72, 72
1, 226241, Control_c, 0, 64, 96
1, 226256, Control_c, 0, 64, 97
1, 226270, Control_c, 0, 64, 97
1, 226282, Note_off_c, 0, 40, 63
1, 226285, Control_c, 0, 64, 98
1, 226286, Note_off_c, 0, 60, 62
1, 226294, Note_off_c, 0, 72, 64
1, 226300, Note_off_c, 0, 48, 59
1, 226330, Control_c, 0, 64, 96
1, 226344, Control_c, 0, 64, 90
1, 226359, Control_c, 0, 64, 76
1, 226372, Note_on_c, 0, 48, 66
1, 226375, Note_on_c, 0, 41, 68
1, 226378, Note_on_c, 0, 72, 71
1, 226381, Control_c, 0, 64, 64
1, 226385, Note_on_c, 0, 61, 77
1, 226396, Control_c, 0, 64, 26
1, 226411, Control_c, 0, 64, 0
1, 226438, Note_off_c, 0, 41, 65
1, 226441, Control_c, 0, 64, 46
1, 226441, Note_off_c, 0, 48, 61
1, 226444, Note_off_c, 0, 61, 64
1, 226447, Note_off_c, 0, 72, 65
1, 226456, Control_c, 0, 64, 62
1, 226471, Control_c, 0, 64, 69
1, 226486, Control_c, 0, 64, 74
1, 226501, Control_c, 0, 64, 79
1, 226501, Note_on_c, 0, 48, 62
1, 226504, Note_on_c, 0, 41, 67
1, 226515, Note_on_c, 0, 72, 69
1, 226516, Control_c, 0, 64, 83
1, 226519, Note_on_c, 0, 61, 77
1, 226530, Control_c, 0, 64, 85
1, 226545, Control_c, 0, 64, 86
1, 226559, Note_off_c, 0, 48, 61
1, 226560, Control_c, 0, 64, 86
1, 226564, Note_off_c, 0, 41, 64
1, 226569, Note_off_c, 0, 72, 63
1, 226575, Control_c, 0, 64, 87
1, 226576, Note_off_c, 0, 61, 63
1, 226590, Control_c, 0, 64, 88
1, 226605, Control_c, 0, 64, 89
1, 226620, Control_c, 0, 64, 90
1, 226632, Note_on_c, 0, 48, 65
1, 226633, Note_on_c, 0, 41, 66
1, 226635, Control_c, 0, 64, 90
1, 226644, Note_on_c, 0, 61, 75
1, 226650, Control_c, 0, 64, 91
1, 226653, Note_on_c, 0, 72, 59
1, 226665, Control_c, 0, 64, 94
1, 226678, Note_off_c, 0, 41, 65
1, 226680, Control_c, 0, 64, 97
1, 226687, Note_off_c, 0, 48, 64
1, 226694, Control_c, 0, 64, 100
1, 226704, Note_off_c, 0, 61, 62
1, 226709, Control_c, 0, 64, 101
1, 226739, Control_c, 0, 64, 100
1, 226754, Control_c, 0, 64, 93
1, 226763, Note_off_c, 0, 72, 0
1, 226768, Control_c, 0, 64, 82
1, 226772, Note_on_c, 0, 42, 69
1, 226773, Note_on_c, 0, 72, 57
1, 226774, Note_on_c, 0, 48, 66
1, 226778, Note_on_c, 0, 62, 78
1, 226783, Control_c, 0, 64, 71
1, 226798, Control_c, 0, 64, 62
1, 226813, Control_c, 0, 64, 51
1, 226817, Note_off_c, 0, 48, 62
1, 226827, Note_off_c, 0, 42, 62
1, 226828, Control_c, 0, 64, 58
1, 226838, Note_off_c, 0, 62, 61
1, 226842, Note_off_c, 0, 72, 63
1, 226842, Control_c, 0, 64, 66
1, 226857, Control_c, 0, 64, 72
1, 226872, Control_c, 0, 64, 78
1, 226887, Control_c, 0, 64, 83
1, 226898, Note_on_c, 0, 42, 60
1, 226901, Note_on_c, 0, 48, 64
1, 226901, Control_c, 0, 64, 86
1, 226906, Note_on_c, 0, 62, 78
1, 226906, Note_on_c, 0, 72, 68
1, 226916, Control_c, 0, 64, 87
1, 226931, Control_c, 0, 64, 87
1, 226946, Control_c, 0, 64, 88
1, 226949, Note_off_c, 0, 48, 62
1, 226951, Note_off_c, 0, 42, 62
1, 226960, Note_off_c, 0, 72, 63
1, 226960, Control_c, 0, 64, 88
1, 226966, Note_off_c, 0, 62, 60
1, 226990, Control_c, 0, 64, 89
1, 227019, Control_c, 0, 64, 89
1, 227029, Note_on_c, 0, 42, 60
1, 227031, Note_on_c, 0, 62, 73
1, 227034, Note_on_c, 0, 48, 63
1, 227039, Note_on_c, 0, 72, 65
1, 227049, Control_c, 0, 64, 90
1, 227064, Control_c, 0, 64, 91
1, 227079, Control_c, 0, 64, 91
1, 227084, Note_off_c, 0, 72, 64
1, 227086, Note_off_c, 0, 48, 63
1, 227087, Note_off_c, 0, 62, 63
1, 227088, Note_off_c, 0, 42, 59
1, 227094, Control_c, 0, 64, 92
1, 227161, Control_c, 0, 64, 88
1, 227172, Note_on_c, 0, 72, 64
1, 227173, Note_on_c, 0, 43, 68
1, 227175, Control_c, 0, 64, 79
1, 227176, Note_on_c, 0, 48, 62
1, 227181, Note_on_c, 0, 63, 71
1, 227190, Control_c, 0, 64, 68
1, 227205, Control_c, 0, 64, 52
1, 227219, Control_c, 0, 64, 0
1, 227221, Note_off_c, 0, 43, 60
1, 227228, Note_off_c, 0, 48, 58
1, 227230, Note_off_c, 0, 63, 63
1, 227234, Control_c, 0, 64, 22
1, 227240, Note_off_c, 0, 72, 63
1, 227251, Control_c, 0, 64, 50
1, 227265, Control_c, 0, 64, 63
1, 227280, Control_c, 0, 64, 68
1, 227295, Control_c, 0, 64, 73
1, 227298, Note_on_c, 0, 48, 59
1, 227302, Note_on_c, 0, 72, 62
1, 227303, Note_on_c, 0, 43, 63
1, 227310, Control_c, 0, 64, 79
1, 227311, Note_on_c, 0, 63, 69
1, 227324, Control_c, 0, 64, 83
1, 227339, Control_c, 0, 64, 85
1, 227350, Note_off_c, 0, 43, 60
1, 227354, Control_c, 0, 64, 86
1, 227356, Note_off_c, 0, 48, 58
1, 227368, Note_off_c, 0, 72, 63
1, 227369, Control_c, 0, 64, 86
1, 227371, Note_off_c, 0, 63, 62
1, 227384, Control_c, 0, 64, 87
1, 227398, Control_c, 0, 64, 87
1, 227413, Control_c, 0, 64, 88
1, 227428, Control_c, 0, 64, 89
1, 227432, Note_on_c, 0, 48, 58
1, 227434, Note_on_c, 0, 43, 68
1, 227439, Note_on_c, 0, 63, 61
1, 227442, Note_on_c, 0, 72, 54
1, 227443, Control_c, 0, 64, 90
1, 227458, Control_c, 0, 64, 93
1, 227472, Note_off_c, 0, 63, 63
1, 227472, Control_c, 0, 64, 94
1, 227475, Note_off_c, 0, 43, 62
1, 227484, Note_off_c, 0, 48, 61
1, 227487, Control_c, 0, 64, 96
1, 227502, Control_c, 0, 64, 96
1, 227509, Note_off_c, 0, 72, 63
1, 227577, Control_c, 0, 64, 95
1, 227591, Control_c, 0, 64, 88
1, 227604, Note_on_c, 0, 64, 64
1, 227606, Control_c, 0, 64, 75
1, 227608, Note_on_c, 0, 44, 63
1, 227610, Note_on_c, 0, 48, 57
1, 227611, Note_on_c, 0, 72, 65
1, 227621, Control_c, 0, 64, 63
1, 227636, Control_c, 0, 64, 0
1, 227692, Note_off_c, 0, 44, 55
1, 227695, Control_c, 0, 64, 59
1, 227710, Control_c, 0, 64, 69
1, 227724, Control_c, 0, 64, 75
1, 227739, Control_c, 0, 64, 81
1, 227754, Control_c, 0, 64, 85
1, 227763, Note_off_c, 0, 48, 0
1, 227769, Note_off_c, 0, 72, 0
1, 227769, Control_c, 0, 64, 87
1, 227773, Note_off_c, 0, 64, 0
1, 227777, Note_on_c, 0, 48, 41
1, 227780, Note_on_c, 0, 44, 51
1, 227782, Note_on_c, 0, 72, 41
1, 227783, Control_c, 0, 64, 89
1, 227784, Note_on_c, 0, 64, 42
1, 227798, Control_c, 0, 64, 91
1, 227813, Control_c, 0, 64, 92
1, 227828, Control_c, 0, 64, 93
1, 227842, Note_off_c, 0, 44, 56
1, 227851, Note_off_c, 0, 48, 57
1, 227877, Note_off_c, 0, 64, 60
1, 227881, Note_off_c, 0, 72, 56
1, 227935, Note_on_c, 0, 48, 48
1, 227940, Note_on_c, 0, 44, 54
1, 227943, Note_on_c, 0, 72, 44
1, 227947, Note_on_c, 0, 64, 52
1, 227988, Note_off_c, 0, 44, 59
1, 227994, Note_off_c, 0, 48, 57
1, 228011, Note_off_c, 0, 64, 60
1, 228011, Note_off_c, 0, 72, 59
1, 228075, Note_on_c, 0, 72, 48
1, 228080, Note_on_c, 0, 64, 56
1, 228081, Note_on_c, 0, 48, 41
1, 228084, Note_on_c, 0, 44, 54
1, 228125, Note_off_c, 0, 44, 59
1, 228131, Note_off_c, 0, 48, 59
1, 228133, Note_off_c, 0, 72, 63
1, 228134, Note_off_c, 0, 64, 63
1, 228218, Note_on_c, 0, 64, 55
1, 228218, Note_on_c, 0, 48, 50
1, 228224, Note_on_c, 0, 44, 50
1, 228225, Note_on_c, 0, 72, 41
1, 228248, Note_off_c, 0, 44, 59
1, 228257, Note_off_c, 0, 64, 53
1, 228259, Note_off_c, 0, 48, 55
1, 228260, Note_off_c, 0, 72, 52
1, 228339, Note_on_c, 0, 44, 45
1, 228343, Note_on_c, 0, 64, 61
1, 228345, Note_on_c, 0, 48, 57
1, 228354, Note_on_c, 0, 72, 47
1, 228382, Note_off_c, 0, 64, 58
1, 228385, Note_off_c, 0, 44, 58
1, 228385, Note_off_c, 0, 72, 52
1, 228390, Note_off_c, 0, 48, 59
1, 228470, Note_on_c, 0, 48, 49
1, 228472, Note_on_c, 0, 64, 55
1, 228483, Note_on_c, 0, 72, 45
1, 228486, Note_on_c, 0, 44, 44
1, 228510, Note_off_c, 0, 48, 55
1, 228515, Note_off_c, 0, 44, 54
1, 228516, Note_off_c, 0, 64, 57
1, 228528, Note_off_c, 0, 72, 49
1, 228602, Note_on_c, 0, 44, 52
1, 228602, Note_on_c, 0, 48, 38
1, 228607, Note_on_c, 0, 72, 26
1, 228621, Note_on_c, 0, 64, 53
1, 228645, Note_off_c, 0, 44, 59
1, 228653, Note_off_c, 0, 64, 55
1, 228656, Note_off_c, 0, 48, 48
1, 228725, Note_off_c, 0, 72, 0
1, 228742, Note_on_c, 0, 72, 20
1, 228746, Note_on_c, 0, 48, 46
1, 228747, Note_on_c, 0, 44, 42
1, 228750, Note_on_c, 0, 64, 50
1, 228783, Note_off_c, 0, 44, 52
1, 228786, Note_off_c, 0, 48, 52
1, 228790, Note_off_c, 0, 64, 50
1, 228820, Note_off_c, 0, 72, 39
1, 228837, Control_c, 0, 64, 92
1, 228852, Control_c, 0, 64, 86
1, 228867, Control_c, 0, 64, 74
1, 228882, Control_c, 0, 64, 61
1, 228888, Note_on_c, 0, 72, 40
1, 228894, Note_on_c, 0, 65, 55
1, 228894, Note_on_c, 0, 44, 47
1, 228896, Note_on_c, 0, 48, 46
1, 228896, Control_c, 0, 64, 0
1, 228941, Control_c, 0, 64, 57
1, 228948, Note_off_c, 0, 48, 55
1, 228949, Note_off_c, 0, 44, 56
1, 228954, Note_off_c, 0, 65, 63
1, 228956, Control_c, 0, 64, 69
1, 228970, Control_c, 0, 64, 76
1, 228985, Control_c, 0, 64, 82
1, 228993, Note_off_c, 0, 72, 0
1, 229000, Control_c, 0, 64, 86
1, 229012, Note_on_c, 0, 72, 30
1, 229015, Control_c, 0, 64, 87
1, 229030, Note_on_c, 0, 44, 41
1, 229037, Note_on_c, 0, 48, 43
1, 229040, Note_on_c, 0, 65, 47
1, 229044, Control_c, 0, 64, 88
1, 229074, Control_c, 0, 64, 88
1, 229077, Note_off_c, 0, 65, 57
1, 229087, Note_off_c, 0, 48, 56
1, 229101, Note_off_c, 0, 72, 50
1, 229118, Control_c, 0, 67, 9
1, 229121, Note_off_c, 0, 44, 37
1, 229133, Control_c, 0, 64, 89
1, 229133, Control_c, 0, 67, 11
1, 229148, Control_c, 0, 67, 14
1, 229163, Control_c, 0, 67, 16
1, 229178, Note_on_c, 0, 44, 26
1, 229178, Note_on_c, 0, 72, 31
1, 229178, Control_c, 0, 67, 19
1, 229183, Note_on_c, 0, 65, 57
1, 229189, Note_on_c, 0, 48, 43
1, 229192, Control_c, 0, 67, 22
1, 229207, Control_c, 0, 64, 89
1, 229207, Control_c, 0, 67, 27
1, 229217, Note_off_c, 0, 65, 67
1, 229222, Control_c, 0, 67, 32
1, 229237, Control_c, 0, 64, 90
1, 229237, Control_c, 0, 67, 38
1, 229250, Note_off_c, 0, 48, 45
1, 229252, Control_c, 0, 64, 91
1, 229252, Control_c, 0, 67, 42
1, 229267, Control_c, 0, 67, 45
1, 229279, Note_off_c, 0, 44, 37
1, 229282, Control_c, 0, 67, 50
1, 229296, Control_c, 0, 64, 91
1, 229296, Control_c, 0, 67, 56
1, 229311, Control_c, 0, 64, 92
1, 229311, Control_c, 0, 67, 62
1, 229326, Control_c, 0, 64, 93
1, 229326, Control_c, 0, 67, 69
1, 229341, Control_c, 0, 64, 93
1, 229341, Control_c, 0, 67, 74
1, 229347, Note_off_c, 0, 72, 25
1, 229356, Control_c, 0, 67, 80
1, 229377, Control_c, 0, 67, 86
1, 229392, Control_c, 0, 67, 90
1, 229407, Control_c, 0, 67, 95
1, 229422, Control_c, 0, 67, 101
1, 229437, Control_c, 0, 64, 92
1, 229437, Control_c, 0, 67, 109
1, 229452, Control_c, 0, 64, 85
1, 229452, Control_c, 0, 67, 120
1, 229467, Control_c, 0, 64, 73
1, 229467, Control_c, 0, 67, 127
1, 229467, Note_on_c, 0, 72, 59
1, 229476, Note_on_c, 0, 63, 44
1, 229479, Note_on_c, 0, 48, 43
1, 229480, Note_on_c, 0, 66, 45
1, 229482, Control_c, 0, 64, 56
1, 229490, Note_on_c, 0, 45, 39
1, 229496, Control_c, 0, 64, 0
1, 229570, Control_c, 0, 64, 63
1, 229585, Control_c, 0, 64, 70
1, 229600, Control_c, 0, 64, 75
1, 229614, Control_c, 0, 64, 81
1, 229629, Control_c, 0, 64, 84
1, 229646, Control_c, 0, 64, 86
1, 229658, Note_off_c, 0, 72, 57
1, 229660, Control_c, 0, 64, 87
1, 229660, Note_off_c, 0, 45, 46
1, 229675, Control_c, 0, 64, 87
1, 229682, Note_off_c, 0, 48, 41
1, 229690, Control_c, 0, 64, 88
1, 229691, Note_off_c, 0, 66, 36
1, 229705, Control_c, 0, 64, 89
1, 229719, Control_c, 0, 64, 90
1, 229732, Note_off_c, 0, 63, 0
1, 229734, Control_c, 0, 64, 91
1, 229749, Note_on_c, 0, 63, 26
1, 229753, Note_on_c, 0, 66, 37
1, 229754, Note_on_c, 0, 48, 37
1, 229763, Note_on_c, 0, 72, 39
1, 229765, Note_on_c, 0, 45, 38
1, 229779, Control_c, 0, 64, 91
1, 229793, Control_c, 0, 64, 92
1, 229808, Control_c, 0, 64, 92
1, 229815, Note_off_c, 0, 45, 56
1, 229832, Note_off_c, 0, 48, 54
1, 229833, Note_off_c, 0, 66, 50
1, 229844, Note_off_c, 0, 72, 38
1, 229887, Note_off_c, 0, 63, 0
1, 229902, Note_on_c, 0, 48, 32
1, 229905, Note_on_c, 0, 63, 23
1, 229914, Note_on_c, 0, 72, 33
1, 229918, Note_on_c, 0, 66, 39
1, 229924, Note_on_c, 0, 45, 41
1, 229961, Note_off_c, 0, 45, 51
1, 229961, Note_off_c, 0, 66, 53
1, 229971, Control_c, 0, 64, 93
1, 229979, Note_off_c, 0, 72, 42
1, 230020, Note_off_c, 0, 48, 0
1, 230040, Note_off_c, 0, 63, 0
1, 230048, Note_on_c, 0, 48, 6
1, 230057, Note_on_c, 0, 63, 24
1, 230066, Note_on_c, 0, 45, 48
1, 230074, Note_on_c, 0, 72, 30
1, 230075, Control_c, 0, 64, 93
1, 230080, Note_on_c, 0, 66, 47
1, 230090, Control_c, 0, 64, 94
1, 230111, Control_c, 0, 64, 95
1, 230112, Note_off_c, 0, 48, 59
1, 230116, Note_off_c, 0, 45, 48
1, 230125, Note_off_c, 0, 66, 48
1, 230126, Note_off_c, 0, 72, 50
1, 230131, Note_off_c, 0, 63, 61
1, 230141, Control_c, 0, 64, 96
1, 230156, Control_c, 0, 64, 95
1, 230171, Control_c, 0, 64, 93
1, 230186, Control_c, 0, 64, 84
1, 230200, Control_c, 0, 64, 70
1, 230215, Control_c, 0, 64, 55
1, 230216, Note_on_c, 0, 72, 43
1, 230221, Note_on_c, 0, 50, 36
1, 230224, Note_on_c, 0, 45, 40
1, 230226, Note_on_c, 0, 62, 41
1, 230230, Control_c, 0, 64, 27
1, 230243, Note_on_c, 0, 66, 24
1, 230245, Control_c, 0, 64, 50
1, 230260, Control_c, 0, 64, 64
1, 230266, Note_off_c, 0, 45, 51
1, 230270, Note_off_c, 0, 50, 49
1, 230274, Control_c, 0, 64, 70
1, 230283, Note_off_c, 0, 62, 41
1, 230283, Note_off_c, 0, 66, 41
1, 230289, Control_c, 0, 64, 76
1, 230304, Control_c, 0, 64, 80
1, 230313, Note_off_c, 0, 72, 0
1, 230319, Control_c, 0, 64, 82
1, 230330, Note_on_c, 0, 72, 24
1, 230334, Control_c, 0, 64, 83
1, 230341, Note_on_c, 0, 50, 36
1, 230343, Note_on_c, 0, 62, 34
1, 230349, Control_c, 0, 64, 84
1, 230352, Note_on_c, 0, 45, 43
1, 230352, Note_on_c, 0, 66, 51
1, 230364, Control_c, 0, 64, 85
1, 230379, Control_c, 0, 64, 86
1, 230393, Control_c, 0, 64, 86
1, 230394, Note_off_c, 0, 45, 58
1, 230394, Note_off_c, 0, 66, 51
1, 230397, Note_off_c, 0, 72, 61
1, 230408, Control_c, 0, 64, 87
1, 230415, Note_off_c, 0, 50, 39
1, 230427, Note_off_c, 0, 62, 37
1, 230468, Control_c, 0, 64, 87
1, 230489, Note_on_c, 0, 50, 31
1, 230491, Note_on_c, 0, 45, 45
1, 230498, Control_c, 0, 64, 88
1, 230499, Note_on_c, 0, 72, 52
1, 230505, Note_on_c, 0, 66, 51
1, 230513, Control_c, 0, 64, 89
1, 230518, Note_on_c, 0, 62, 29
1, 230528, Control_c, 0, 64, 89
1, 230535, Note_off_c, 0, 45, 54
1, 230542, Control_c, 0, 64, 90
1, 230543, Note_off_c, 0, 66, 51
1, 230546, Note_off_c, 0, 50, 57
1, 230551, Note_off_c, 0, 72, 52
1, 230560, Note_off_c, 0, 62, 47
1, 230643, Note_on_c, 0, 50, 35
1, 230656, Note_on_c, 0, 45, 48
1, 230656, Note_on_c, 0, 72, 53
1, 230672, Note_on_c, 0, 66, 36
1, 230674, Note_on_c, 0, 62, 38
1, 230701, Note_off_c, 0, 45, 49
1, 230704, Note_off_c, 0, 50, 39
1, 230708, Note_off_c, 0, 62, 50
1, 230708, Note_off_c, 0, 66, 52
1, 230714, Note_off_c, 0, 72, 52
1, 230806, Note_on_c, 0, 50, 12
1, 230808, Note_on_c, 0, 45, 48
1, 230816, Note_on_c, 0, 72, 61
1, 230826, Note_on_c, 0, 66, 40
1, 230841, Note_off_c, 0, 45, 65
1, 230868, Note_off_c, 0, 66, 50
1, 230907, Note_off_c, 0, 50, 36
1, 230910, Poly_aftertouch_c, 0, 62, 0
1, 230951, Note_off_c, 0, 72, 33
1, 230979, Control_c, 0, 64, 90
1, 231038, Control_c, 0, 64, 89
1, 231053, Control_c, 0, 64, 83
1, 231067, Control_c, 0, 64, 71
1, 231082, Control_c, 0, 64, 53
1, 231091, Note_on_c, 0, 72, 60
1, 231094, Note_on_c, 0, 50, 19
1, 231096, Note_on_c, 0, 46, 44
1, 231097, Control_c, 0, 64, 0
1, 231100, Note_on_c, 0, 67, 49
1, 231116, Note_on_c, 0, 62, 30
1, 231172, Control_c, 0, 64, 61
1, 231186, Control_c, 0, 64, 69
1, 231194, Note_off_c, 0, 46, 51
1, 231201, Control_c, 0, 64, 75
1, 231204, Note_off_c, 0, 50, 53
1, 231216, Control_c, 0, 64, 81
1, 231231, Control_c, 0, 64, 83
1, 231234, Note_off_c, 0, 67, 58
1, 231241, Note_off_c, 0, 62, 45
1, 231245, Note_off_c, 0, 72, 62
1, 231246, Control_c, 0, 64, 85
1, 231261, Control_c, 0, 64, 86
1, 231276, Control_c, 0, 64, 86
1, 231291, Control_c, 0, 64, 87
1, 231305, Note_on_c, 0, 46, 45
1, 231306, Control_c, 0, 64, 88
1, 231313, Note_on_c, 0, 72, 49
1, 231319, Note_on_c, 0, 50, 28
1, 231336, Control_c, 0, 64, 88
1, 231339, Note_on_c, 0, 62, 39
1, 231351, Control_c, 0, 64, 89
1, 231352, Note_on_c, 0, 67, 22
1, 231365, Control_c, 0, 64, 89
1, 231368, Note_off_c, 0, 46, 52
1, 231368, Note_off_c, 0, 50, 45
1, 231377, Note_off_c, 0, 62, 47
1, 231380, Control_c, 0, 64, 90
1, 231386, Note_off_c, 0, 67, 52
1, 231431, Note_off_c, 0, 72, 0
1, 231446, Note_on_c, 0, 72, 34
1, 231458, Note_on_c, 0, 46, 41
1, 231472, Note_on_c, 0, 50, 39
1, 231482, Note_on_c, 0, 62, 47
1, 231498, Control_c, 0, 64, 90
1, 231515, Note_off_c, 0, 62, 50
1, 231520, Note_off_c, 0, 50, 45
1, 231521, Note_off_c, 0, 46, 47
1, 231523, Note_off_c, 0, 72, 62
1, 231546, Poly_aftertouch_c, 0, 67, 0
1, 231592, Poly_aftertouch_c, 0, 67, 0
1, 231595, Note_on_c, 0, 46, 37
1, 231595, Note_on_c, 0, 70, 60
1, 231613, Note_on_c, 0, 50, 25
1, 231615, Note_on_c, 0, 62, 49
1, 231622, Note_on_c, 0, 67, 9
1, 231653, Note_off_c, 0, 62, 46
1, 231655, Note_off_c, 0, 70, 57
1, 231661, Note_off_c, 0, 46, 53
1, 231662, Note_off_c, 0, 50, 46
1, 231667, Note_off_c, 0, 67, 41
1, 231735, Note_on_c, 0, 46, 44
1, 231742, Note_on_c, 0, 70, 42
1, 231744, Note_on_c, 0, 50, 40
1, 231760, Note_on_c, 0, 67, 38
1, 231762, Note_on_c, 0, 62, 27
1, 231781, Note_off_c, 0, 70, 48
1, 231790, Note_off_c, 0, 67, 49
1, 231792, Note_off_c, 0, 46, 51
1, 231798, Note_off_c, 0, 50, 43
1, 231803, Note_off_c, 0, 62, 46
1, 231846, Control_c, 0, 64, 91
1, 231857, Note_on_c, 0, 46, 38
1, 231861, Control_c, 0, 64, 91
1, 231867, Note_on_c, 0, 50, 32
1, 231868, Note_on_c, 0, 70, 60
1, 231876, Control_c, 0, 64, 93
1, 231884, Note_on_c, 0, 62, 29
1, 231885, Note_on_c, 0, 67, 40
1, 231890, Control_c, 0, 64, 94
1, 231899, Note_off_c, 0, 50, 55
1, 231902, Note_off_c, 0, 70, 64
1, 231907, Note_off_c, 0, 46, 58
1, 231911, Note_off_c, 0, 67, 55
1, 231916, Note_off_c, 0, 62, 47
1, 231950, Control_c, 0, 64, 92
1, 231965, Control_c, 0, 64, 86
1, 231980, Control_c, 0, 64, 76
1, 231994, Note_on_c, 0, 70, 67
1, 231994, Control_c, 0, 64, 65
1, 232001, Note_on_c, 0, 48, 39
1, 232009, Note_on_c, 0, 60, 52
1, 232009, Control_c, 0, 64, 38
1, 232021, Note_on_c, 0, 63, 35
1, 232021, Note_on_c, 0, 51, 47
1, 232024, Control_c, 0, 64, 32
1, 232041, Control_c, 0, 64, 47
1, 232051, Note_off_c, 0, 63, 51
1, 232056, Control_c, 0, 64, 60
1, 232057, Note_off_c, 0, 70, 57
1, 232063, Note_off_c, 0, 60, 46
1, 232069, Note_off_c, 0, 51, 57
1, 232070, Control_c, 0, 64, 65
1, 232082, Note_off_c, 0, 48, 52
1, 232085, Control_c, 0, 64, 69
1, 232100, Control_c, 0, 64, 72
1, 232114, Control_c, 0, 64, 76
1, 232129, Control_c, 0, 64, 78
1, 232131, Note_on_c, 0, 48, 34
1, 232132, Note_on_c, 0, 51, 51
1, 232132, Note_on_c, 0, 60, 44
1, 232132, Note_on_c, 0, 70, 52
1, 232139, Note_on_c, 0, 63, 58
1, 232144, Control_c, 0, 64, 80
1, 232159, Control_c, 0, 64, 81
1, 232174, Control_c, 0, 64, 82
1, 232178, Note_off_c, 0, 63, 50
1, 232181, Note_off_c, 0, 70, 55
1, 232185, Note_off_c, 0, 60, 55
1, 232185, Note_off_c, 0, 48, 61
1, 232188, Control_c, 0, 64, 83
1, 232190, Note_off_c, 0, 51, 52
1, 232203, Control_c, 0, 64, 83
1, 232218, Control_c, 0, 64, 84
1, 232233, Control_c, 0, 64, 84
1, 232248, Control_c, 0, 64, 85
1, 232249, Note_on_c, 0, 70, 60
1, 232263, Control_c, 0, 64, 87
1, 232263, Note_on_c, 0, 51, 31
1, 232275, Note_on_c, 0, 60, 40
1, 232277, Note_on_c, 0, 63, 49
1, 232278, Control_c, 0, 64, 87
1, 232290, Note_on_c, 0, 48, 38
1, 232293, Control_c, 0, 64, 88
1, 232307, Control_c, 0, 64, 89
1, 232311, Note_off_c, 0, 60, 50
1, 232316, Note_off_c, 0, 70, 61
1, 232322, Control_c, 0, 64, 89
1, 232324, Note_off_c, 0, 63, 46
1, 232328, Note_off_c, 0, 48, 51
1, 232370, Note_off_c, 0, 51, 0
1, 232374, Control_c, 0, 64, 87
1, 232388, Control_c, 0, 64, 80
1, 232392, Note_on_c, 0, 51, 8
1, 232398, Note_on_c, 0, 69, 66
1, 232400, Note_on_c, 0, 63, 48
1, 232403, Control_c, 0, 64, 68
1, 232407, Note_on_c, 0, 48, 44
1, 232418, Control_c, 0, 64, 56
1, 232419, Note_on_c, 0, 60, 41
1, 232433, Control_c, 0, 64, 46
1, 232448, Control_c, 0, 64, 53
1, 232450, Note_off_c, 0, 48, 61
1, 232453, Note_off_c, 0, 69, 61
1, 232457, Note_off_c, 0, 60, 48
1, 232462, Note_off_c, 0, 51, 54
1, 232462, Control_c, 0, 64, 62
1, 232464, Note_off_c, 0, 63, 61
1, 232477, Control_c, 0, 64, 66
1, 232492, Control_c, 0, 64, 70
1, 232507, Control_c, 0, 64, 73
1, 232522, Control_c, 0, 64, 77
1, 232530, Note_on_c, 0, 69, 64
1, 232531, Note_on_c, 0, 51, 41
1, 232537, Control_c, 0, 64, 79
1, 232551, Note_on_c, 0, 48, 43
1, 232552, Control_c, 0, 64, 81
1, 232553, Note_on_c, 0, 63, 40
1, 232561, Note_on_c, 0, 60, 46
1, 232567, Control_c, 0, 64, 81
1, 232580, Note_off_c, 0, 69, 60
1, 232581, Control_c, 0, 64, 82
1, 232585, Note_off_c, 0, 48, 52
1, 232590, Note_off_c, 0, 60, 51
1, 232592, Note_off_c, 0, 51, 53
1, 232592, Note_off_c, 0, 63, 59
1, 232596, Control_c, 0, 64, 83
1, 232611, Control_c, 0, 64, 84
1, 232626, Control_c, 0, 64, 85
1, 232640, Control_c, 0, 64, 86
1, 232650, Note_on_c, 0, 51, 40
1, 232670, Control_c, 0, 64, 87
1, 232671, Note_on_c, 0, 69, 54
1, 232685, Control_c, 0, 64, 89
1, 232689, Note_on_c, 0, 60, 38
1, 232700, Control_c, 0, 64, 91
1, 232701, Note_off_c, 0, 51, 60
1, 232714, Control_c, 0, 64, 91
1, 232718, Note_off_c, 0, 60, 47
1, 232722, Poly_aftertouch_c, 0, 63, 127
1, 232724, Note_off_c, 0, 69, 60
1, 232743, Poly_aftertouch_c, 0, 63, 0
1, 232755, Poly_aftertouch_c, 0, 48, 0
1, 232788, Control_c, 0, 64, 87
1, 232803, Control_c, 0, 64, 78
1, 232818, Control_c, 0, 64, 67
1, 232823, Note_on_c, 0, 67, 57
1, 232834, Note_on_c, 0, 50, 46
1, 232834, Control_c, 0, 64, 45
1, 232838, Note_on_c, 0, 58, 48
1, 232841, Note_on_c, 0, 62, 33
1, 232849, Control_c, 0, 64, 22
1, 232863, Control_c, 0, 64, 39
1, 232869, Note_off_c, 0, 50, 56
1, 232874, Note_off_c, 0, 58, 54
1, 232878, Control_c, 0, 64, 60
1, 232893, Control_c, 0, 64, 66
1, 232901, Note_off_c, 0, 62, 40
1, 232908, Note_off_c, 0, 67, 59
1, 232908, Control_c, 0, 64, 70
1, 232923, Control_c, 0, 64, 73
1, 232937, Control_c, 0, 64, 75
1, 232952, Control_c, 0, 64, 75
1, 232967, Control_c, 0, 64, 76
1, 232971, Note_on_c, 0, 67, 52
1, 232975, Note_on_c, 0, 50, 45
1, 232981, Note_on_c, 0, 58, 50
1, 232982, Note_on_c, 0, 62, 33
1, 232982, Control_c, 0, 64, 78
1, 232997, Control_c, 0, 64, 80
1, 233011, Control_c, 0, 64, 81
1, 233021, Note_off_c, 0, 50, 54
1, 233026, Control_c, 0, 64, 82
1, 233029, Note_off_c, 0, 58, 44
1, 233039, Note_off_c, 0, 62, 44
1, 233040, Note_off_c, 0, 67, 60
1, 233056, Control_c, 0, 64, 82
1, 233071, Control_c, 0, 64, 84
1, 233085, Control_c, 0, 64, 85
1, 233100, Control_c, 0, 64, 87
1, 233121, Note_on_c, 0, 67, 44
1, 233122, Note_on_c, 0, 50, 44
1, 233137, Control_c, 0, 64, 87
1, 233156, Note_on_c, 0, 58, 35
1, 233167, Control_c, 0, 64, 88
1, 233172, Note_off_c, 0, 50, 54
1, 233177, Note_off_c, 0, 67, 55
1, 233192, Note_off_c, 0, 58, 45
1, 233211, Control_c, 0, 64, 87
1, 233226, Control_c, 0, 64, 81
1, 233241, Control_c, 0, 64, 72
1, 233246, Poly_aftertouch_c, 0, 62, 0
1, 233256, Control_c, 0, 64, 58
1, 233264, Note_on_c, 0, 62, 18
1, 233270, Control_c, 0, 64, 30
1, 233273, Note_on_c, 0, 66, 52
1, 233285, Control_c, 0, 64, 34
1, 233288, Note_on_c, 0, 57, 40
1, 233294, Note_on_c, 0, 50, 35
1, 233300, Control_c, 0, 64, 49
1, 233315, Control_c, 0, 64, 62
1, 233330, Control_c, 0, 64, 67
1, 233345, Control_c, 0, 64, 72
1, 233352, Note_off_c, 0, 50, 44
1, 233353, Note_off_c, 0, 57, 53
1, 233360, Note_off_c, 0, 62, 55
1, 233360, Control_c, 0, 64, 79
1, 233362, Note_off_c, 0, 66, 62
1, 233375, Control_c, 0, 64, 82
1, 233390, Control_c, 0, 64, 83
1, 233419, Control_c, 0, 64, 83
1, 233434, Control_c, 0, 64, 80
1, 233441, Note_on_c, 0, 66, 49
1, 233449, Control_c, 0, 64, 74
1, 233454, Note_on_c, 0, 57, 46
1, 233455, Note_on_c, 0, 50, 43
1, 233455, Note_on_c, 0, 62, 44
1, 233464, Control_c, 0, 64, 71
1, 233479, Control_c, 0, 64, 70
1, 233494, Control_c, 0, 64, 73
1, 233509, Control_c, 0, 64, 77
1, 233509, Note_off_c, 0, 50, 42
1, 233510, Note_off_c, 0, 62, 54
1, 233512, Note_off_c, 0, 57, 47
1, 233523, Note_off_c, 0, 66, 57
1, 233524, Control_c, 0, 64, 82
1, 233538, Control_c, 0, 64, 85
1, 233582, Control_c, 0, 64, 83
1, 233597, Control_c, 0, 64, 81
1, 233605, Note_on_c, 0, 66, 46
1, 233612, Control_c, 0, 64, 79
1, 233628, Control_c, 0, 64, 78
1, 233629, Note_on_c, 0, 57, 48
1, 233637, Note_on_c, 0, 50, 35
1, 233640, Note_on_c, 0, 62, 41
1, 233658, Control_c, 0, 64, 79
1, 233673, Control_c, 0, 64, 80
1, 233679, Note_off_c, 0, 57, 61
1, 233683, Note_off_c, 0, 50, 45
1, 233687, Control_c, 0, 64, 82
1, 233688, Note_off_c, 0, 62, 41
1, 233702, Control_c, 0, 64, 84
1, 233717, Control_c, 0, 64, 85
1, 233732, Control_c, 0, 64, 86
1, 233747, Control_c, 0, 64, 87
1, 233750, Note_off_c, 0, 66, 61
1, 233761, Control_c, 0, 64, 88
1, 233791, Control_c, 0, 64, 87
1, 233806, Control_c, 0, 64, 86
1, 233821, Control_c, 0, 64, 81
1, 233835, Control_c, 0, 64, 73
1, 233846, Note_on_c, 0, 67, 48
1, 233850, Control_c, 0, 64, 65
1, 233872, Control_c, 0, 64, 50
1, 233874, Note_on_c, 0, 62, 33
1, 233879, Note_on_c, 0, 58, 43
1, 233881, Note_on_c, 0, 43, 33
1, 233887, Control_c, 0, 64, 16
1, 233902, Control_c, 0, 64, 0
1, 233976, Control_c, 0, 64, 33
1, 233991, Control_c, 0, 64, 52
1, 234006, Control_c, 0, 64, 62
1, 234020, Control_c, 0, 64, 66
1, 234035, Control_c, 0, 64, 69
1, 234050, Control_c, 0, 64, 71
1, 234065, Control_c, 0, 64, 73
1, 234080, Control_c, 0, 64, 76
1, 234085, Note_on_c, 0, 50, 25
1, 234094, Control_c, 0, 64, 79
1, 234109, Control_c, 0, 64, 81
1, 234123, Control_c, 0, 64, 82
1, 234135, Note_off_c, 0, 50, 46
1, 234138, Control_c, 0, 64, 83
1, 234153, Control_c, 0, 64, 84
1, 234168, Control_c, 0, 64, 84
1, 234197, Control_c, 0, 64, 85
1, 234212, Control_c, 0, 64, 85
1, 234227, Control_c, 0, 64, 86
1, 234237, Note_on_c, 0, 50, 37
1, 234242, Control_c, 0, 64, 86
1, 234286, Control_c, 0, 64, 87
1, 234290, Note_off_c, 0, 50, 42
1, 234331, Control_c, 0, 64, 87
1, 234371, Note_on_c, 0, 50, 34
1, 234430, Note_off_c, 0, 50, 41
1, 234510, Note_on_c, 0, 50, 30
1, 234564, Note_off_c, 0, 50, 43
1, 234666, Note_on_c, 0, 50, 28
1, 234713, Note_off_c, 0, 50, 46
1, 234787, Note_off_c, 0, 58, 34
1, 234813, Note_on_c, 0, 50, 37
1, 234858, Note_off_c, 0, 50, 47
1, 234877, Note_off_c, 0, 62, 40
1, 234937, Note_off_c, 0, 67, 45
1, 234967, Note_on_c, 0, 50, 30
1, 235009, Note_off_c, 0, 50, 47
1, 235121, Note_on_c, 0, 50, 35
1, 235202, Note_off_c, 0, 50, 34
1, 235315, Note_on_c, 0, 67, 49
1, 235321, Note_on_c, 0, 50, 15
1, 235384, Note_off_c, 0, 50, 46
1, 235536, Note_on_c, 0, 50, 12
1, 235593, Note_off_c, 0, 50, 42
1, 235690, Note_on_c, 0, 50, 34
1, 235736, Note_off_c, 0, 50, 54
1, 235817, Note_on_c, 0, 70, 51
1, 235827, Note_off_c, 0, 43, 40
1, 235952, Note_off_c, 0, 67, 35
1, 235977, Note_on_c, 0, 74, 59
1, 235984, Note_off_c, 0, 70, 55
1, 235990, Control_c, 0, 64, 87
1, 236005, Control_c, 0, 64, 86
1, 236020, Control_c, 0, 64, 85
1, 236036, Control_c, 0, 64, 83
1, 236051, Control_c, 0, 64, 80
1, 236066, Control_c, 0, 64, 76
1, 236080, Control_c, 0, 64, 71
1, 236102, Control_c, 0, 64, 68
1, 236117, Control_c, 0, 64, 65
1, 236132, Control_c, 0, 64, 62
1, 236147, Control_c, 0, 64, 61
1, 236150, Note_on_c, 0, 62, 34
1, 236162, Control_c, 0, 64, 60
1, 236177, Control_c, 0, 64, 58
1, 236192, Control_c, 0, 64, 55
1, 236206, Control_c, 0, 64, 49
1, 236221, Control_c, 0, 64, 39
1, 236236, Control_c, 0, 64, 28
1, 236251, Control_c, 0, 64, 32
1, 236266, Note_on_c, 0, 67, 46
1, 236266, Control_c, 0, 64, 44
1, 236272, Note_on_c, 0, 43, 39
1, 236280, Control_c, 0, 64, 57
1, 236295, Control_c, 0, 64, 65
1, 236310, Control_c, 0, 64, 71
1, 236313, Note_off_c, 0, 74, 32
1, 236325, Control_c, 0, 64, 77
1, 236340, Control_c, 0, 64, 80
1, 236354, Control_c, 0, 64, 82
1, 236368, Note_off_c, 0, 62, 27
1, 236369, Control_c, 0, 64, 83
1, 236384, Control_c, 0, 64, 84
1, 236385, Note_on_c, 0, 70, 51
1, 236386, Note_off_c, 0, 43, 30
1, 236398, Control_c, 0, 64, 85
1, 236413, Control_c, 0, 64, 86
1, 236424, Note_off_c, 0, 67, 37
1, 236428, Control_c, 0, 64, 87
1, 236509, Note_on_c, 0, 74, 64
1, 236517, Control_c, 0, 64, 86
1, 236532, Note_off_c, 0, 70, 49
1, 236532, Control_c, 0, 64, 83
1, 236546, Control_c, 0, 64, 76
1, 236561, Control_c, 0, 64, 67
1, 236576, Control_c, 0, 64, 52
1, 236591, Control_c, 0, 64, 0
1, 236612, Note_on_c, 0, 62, 47
1, 236695, Control_c, 0, 64, 53
1, 236710, Control_c, 0, 64, 65
1, 236725, Note_on_c, 0, 43, 35
1, 236725, Control_c, 0, 64, 70
1, 236726, Note_on_c, 0, 67, 51
1, 236740, Control_c, 0, 64, 76
1, 236754, Control_c, 0, 64, 81
1, 236769, Control_c, 0, 64, 85
1, 236776, Note_off_c, 0, 74, 33
1, 236782, Note_off_c, 0, 43, 42
1, 236784, Control_c, 0, 64, 87
1, 236798, Control_c, 0, 64, 88
1, 236813, Control_c, 0, 64, 89
1, 236829, Control_c, 0, 64, 89
1, 236838, Note_on_c, 0, 70, 54
1, 236839, Note_off_c, 0, 62, 22
1, 236841, Note_off_c, 0, 67, 57
1, 236844, Control_c, 0, 64, 90
1, 236925, Control_c, 0, 64, 89
1, 236940, Control_c, 0, 64, 86
1, 236955, Control_c, 0, 64, 78
1, 236961, Note_on_c, 0, 74, 60
1, 236963, Note_off_c, 0, 70, 58
1, 236970, Control_c, 0, 64, 69
1, 236985, Control_c, 0, 64, 40
1, 236999, Control_c, 0, 64, 0
1, 237065, Note_on_c, 0, 62, 44
1, 237118, Control_c, 0, 64, 58
1, 237133, Control_c, 0, 64, 67
1, 237148, Control_c, 0, 64, 71
1, 237151, Note_on_c, 0, 66, 49
1, 237154, Note_on_c, 0, 38, 39
1, 237163, Control_c, 0, 64, 75
1, 237177, Control_c, 0, 64, 80
1, 237192, Control_c, 0, 64, 83
1, 237207, Control_c, 0, 64, 85
1, 237212, Note_off_c, 0, 38, 51
1, 237221, Control_c, 0, 64, 86
1, 237228, Note_off_c, 0, 74, 39
1, 237236, Control_c, 0, 64, 87
1, 237251, Control_c, 0, 64, 88
1, 237256, Note_on_c, 0, 69, 48
1, 237263, Note_off_c, 0, 62, 30
1, 237295, Control_c, 0, 64, 88
1, 237340, Control_c, 0, 64, 87
1, 237345, Note_off_c, 0, 66, 26
1, 237355, Note_off_c, 0, 69, 65
1, 237355, Control_c, 0, 64, 83
1, 237365, Note_on_c, 0, 74, 63
1, 237369, Control_c, 0, 64, 73
1, 237384, Control_c, 0, 64, 62
1, 237399, Control_c, 0, 64, 0
1, 237453, Note_on_c, 0, 62, 50
1, 237518, Control_c, 0, 64, 50
1, 237533, Control_c, 0, 64, 63
1, 237548, Control_c, 0, 64, 66
1, 237563, Control_c, 0, 64, 70
1, 237563, Note_off_c, 0, 62, 48
1, 237564, Note_on_c, 0, 67, 44
1, 237571, Note_on_c, 0, 43, 39
1, 237577, Control_c, 0, 64, 75
1, 237599, Control_c, 0, 64, 81
1, 237614, Control_c, 0, 64, 84
1, 237624, Note_off_c, 0, 74, 64
1, 237630, Control_c, 0, 64, 85
1, 237638, Note_off_c, 0, 43, 42
1, 237645, Control_c, 0, 64, 86
1, 237659, Control_c, 0, 64, 87
1, 237669, Note_on_c, 0, 70, 53
1, 237674, Control_c, 0, 64, 88
1, 237689, Control_c, 0, 64, 89
1, 237748, Control_c, 0, 64, 88
1, 237763, Control_c, 0, 64, 84
1, 237778, Note_off_c, 0, 70, 56
1, 237778, Control_c, 0, 64, 77
1, 237780, Note_on_c, 0, 75, 60
1, 237793, Control_c, 0, 64, 66
1, 237807, Control_c, 0, 64, 27
1, 237822, Control_c, 0, 64, 0
1, 237834, Note_off_c, 0, 67, 34
1, 237886, Note_on_c, 0, 63, 52
1, 237926, Control_c, 0, 64, 58
1, 237941, Control_c, 0, 64, 67
1, 237956, Control_c, 0, 64, 71
1, 237971, Control_c, 0, 64, 75
1, 237971, Note_on_c, 0, 36, 39
1, 237977, Note_on_c, 0, 67, 48
1, 237985, Control_c, 0, 64, 80
1, 237996, Note_off_c, 0, 63, 47
1, 238000, Control_c, 0, 64, 83
1, 238015, Control_c, 0, 64, 85
1, 238022, Note_off_c, 0, 36, 57
1, 238030, Control_c, 0, 64, 86
1, 238045, Control_c, 0, 64, 87
1, 238052, Note_off_c, 0, 67, 63
1, 238059, Control_c, 0, 64, 88
1, 238074, Control_c, 0, 64, 88
1, 238080, Note_on_c, 0, 72, 50
1, 238148, Control_c, 0, 64, 88
1, 238163, Control_c, 0, 64, 86
1, 238168, Note_off_c, 0, 72, 59
1, 238177, Control_c, 0, 64, 80
1, 238192, Control_c, 0, 64, 71
1, 238204, Note_on_c, 0, 66, 43
1, 238207, Control_c, 0, 64, 61
1, 238222, Control_c, 0, 64, 0
1, 238290, Note_off_c, 0, 66, 53
1, 238302, Note_on_c, 0, 72, 52
1, 238348, Control_c, 0, 64, 53
1, 238363, Control_c, 0, 64, 65
1, 238377, Control_c, 0, 64, 69
1, 238392, Note_on_c, 0, 36, 31
1, 238392, Control_c, 0, 64, 73
1, 238399, Note_on_c, 0, 69, 53
1, 238407, Control_c, 0, 64, 78
1, 238423, Control_c, 0, 64, 83
1, 238438, Control_c, 0, 64, 85
1, 238449, Note_off_c, 0, 36, 56
1, 238453, Control_c, 0, 64, 86
1, 238468, Control_c, 0, 64, 87
1, 238472, Note_off_c, 0, 69, 65
1, 238475, Note_off_c, 0, 75, 32
1, 238497, Control_c, 0, 64, 87
1, 238528, Note_on_c, 0, 66, 38
1, 238555, Note_off_c, 0, 66, 55
1, 238571, Control_c, 0, 64, 84
1, 238586, Control_c, 0, 64, 76
1, 238601, Control_c, 0, 64, 66
1, 238603, Note_off_c, 0, 72, 24
1, 238615, Note_on_c, 0, 74, 51
1, 238616, Control_c, 0, 64, 16
1, 238630, Control_c, 0, 64, 0
1, 238724, Note_on_c, 0, 62, 32
1, 238764, Control_c, 0, 64, 25
1, 238779, Control_c, 0, 64, 63
1, 238794, Control_c, 0, 64, 69
1, 238805, Note_on_c, 0, 43, 33
1, 238808, Control_c, 0, 64, 75
1, 238823, Control_c, 0, 64, 80
1, 238826, Note_on_c, 0, 67, 40
1, 238838, Control_c, 0, 64, 84
1, 238853, Control_c, 0, 64, 86
1, 238857, Note_off_c, 0, 62, 33
1, 238866, Note_off_c, 0, 43, 42
1, 238868, Control_c, 0, 64, 87
1, 238882, Control_c, 0, 64, 88
1, 238897, Control_c, 0, 64, 89
1, 238913, Note_on_c, 0, 70, 49
1, 238927, Control_c, 0, 64, 89
1, 238964, Note_off_c, 0, 67, 35
1, 238971, Control_c, 0, 64, 90
1, 238979, Note_off_c, 0, 70, 48
1, 239020, Note_on_c, 0, 62, 40
1, 239060, Control_c, 0, 64, 89
1, 239074, Control_c, 0, 64, 86
1, 239089, Control_c, 0, 64, 76
1, 239112, Control_c, 0, 64, 65
1, 239115, Note_on_c, 0, 70, 51
1, 239122, Note_off_c, 0, 62, 44
1, 239127, Control_c, 0, 64, 28
1, 239142, Control_c, 0, 64, 0
1, 239186, Control_c, 0, 64, 29
1, 239200, Control_c, 0, 64, 62
1, 239215, Control_c, 0, 64, 68
1, 239216, Note_on_c, 0, 43, 38
1, 239222, Note_on_c, 0, 67, 47
1, 239231, Control_c, 0, 64, 73
1, 239246, Control_c, 0, 64, 77
1, 239259, Note_off_c, 0, 43, 56
1, 239261, Control_c, 0, 64, 80
1, 239276, Control_c, 0, 64, 82
1, 239291, Control_c, 0, 64, 83
1, 239293, Note_off_c, 0, 74, 38
1, 239294, Note_off_c, 0, 67, 63
1, 239298, Note_off_c, 0, 70, 38
1, 239305, Control_c, 0, 64, 84
1, 239320, Control_c, 0, 64, 85
1, 239332, Note_on_c, 0, 62, 53
1, 239335, Control_c, 0, 64, 86
1, 239365, Control_c, 0, 64, 86
1, 239390, Note_off_c, 0, 62, 54
1, 239423, Control_c, 0, 64, 83
1, 239433, Note_on_c, 0, 72, 64
1, 239438, Control_c, 0, 64, 76
1, 239453, Control_c, 0, 64, 67
1, 239468, Control_c, 0, 64, 50
1, 239483, Control_c, 0, 64, 0
1, 239520, Note_on_c, 0, 60, 49
1, 239542, Control_c, 0, 64, 28
1, 239557, Control_c, 0, 64, 45
1, 239572, Control_c, 0, 64, 56
1, 239587, Control_c, 0, 64, 62
1, 239598, Note_off_c, 0, 60, 50
1, 239602, Control_c, 0, 64, 65
1, 239617, Control_c, 0, 64, 69
1, 239617, Note_on_c, 0, 63, 42
1, 239631, Control_c, 0, 64, 72
1, 239642, Note_on_c, 0, 44, 38
1, 239646, Control_c, 0, 64, 75
1, 239661, Control_c, 0, 64, 77
1, 239676, Control_c, 0, 64, 78
1, 239678, Note_off_c, 0, 63, 59
1, 239691, Control_c, 0, 64, 80
1, 239703, Note_on_c, 0, 66, 53
1, 239705, Control_c, 0, 64, 81
1, 239708, Note_off_c, 0, 44, 57
1, 239720, Control_c, 0, 64, 82
1, 239735, Control_c, 0, 64, 82
1, 239750, Control_c, 0, 64, 83
1, 239772, Note_off_c, 0, 66, 60
1, 239779, Control_c, 0, 64, 83
1, 239824, Note_on_c, 0, 60, 41
1, 239838, Control_c, 0, 64, 82
1, 239861, Control_c, 0, 64, 76
1, 239876, Control_c, 0, 64, 68
1, 239888, Note_off_c, 0, 60, 40
1, 239891, Control_c, 0, 64, 54
1, 239905, Control_c, 0, 64, 0
1, 239914, Note_on_c, 0, 66, 45
1, 239979, Control_c, 0, 64, 27
1, 239994, Control_c, 0, 64, 63
1, 240009, Control_c, 0, 64, 68
1, 240014, Note_on_c, 0, 63, 44
1, 240020, Note_on_c, 0, 45, 41
1, 240025, Control_c, 0, 64, 72
1, 240040, Control_c, 0, 64, 75
1, 240052, Note_off_c, 0, 72, 63
1, 240054, Control_c, 0, 64, 79
1, 240069, Control_c, 0, 64, 81
1, 240078, Note_off_c, 0, 45, 61
1, 240084, Control_c, 0, 64, 83
1, 240099, Control_c, 0, 64, 84
1, 240110, Note_on_c, 0, 60, 50
1, 240111, Note_off_c, 0, 66, 38
1, 240165, Note_off_c, 0, 60, 44
1, 240177, Note_off_c, 0, 63, 27
1, 240202, Control_c, 0, 64, 81
1, 240217, Control_c, 0, 64, 75
1, 240218, Note_on_c, 0, 70, 55
1, 240232, Control_c, 0, 64, 66
1, 240246, Control_c, 0, 64, 41
1, 240261, Control_c, 0, 64, 0
1, 240317, Note_on_c, 0, 58, 40
1, 240380, Control_c, 0, 64, 39
1, 240395, Control_c, 0, 64, 63
1, 240410, Control_c, 0, 64, 68
1, 240415, Note_on_c, 0, 62, 46
1, 240417, Note_on_c, 0, 46, 43
1, 240424, Note_off_c, 0, 58, 38
1, 240424, Control_c, 0, 64, 71
1, 240439, Control_c, 0, 64, 75
1, 240454, Control_c, 0, 64, 78
1, 240469, Control_c, 0, 64, 81
1, 240473, Note_off_c, 0, 46, 55
1, 240484, Control_c, 0, 64, 82
1, 240499, Control_c, 0, 64, 83
1, 240503, Note_off_c, 0, 62, 55
1, 240513, Note_on_c, 0, 67, 50
1, 240514, Control_c, 0, 64, 84
1, 240543, Control_c, 0, 64, 84
1, 240602, Note_off_c, 0, 67, 57
1, 240624, Control_c, 0, 64, 83
1, 240626, Note_on_c, 0, 58, 49
1, 240639, Control_c, 0, 64, 80
1, 240654, Control_c, 0, 64, 73
1, 240669, Control_c, 0, 64, 65
1, 240684, Control_c, 0, 64, 51
1, 240699, Control_c, 0, 64, 34
1, 240714, Control_c, 0, 64, 11
1, 240726, Note_off_c, 0, 58, 36
1, 240728, Control_c, 0, 64, 0
1, 240737, Note_on_c, 0, 67, 46
1, 240802, Control_c, 0, 64, 25
1, 240818, Control_c, 0, 64, 56
1, 240820, Note_on_c, 0, 50, 37
1, 240830, Note_on_c, 0, 62, 42
1, 240833, Control_c, 0, 64, 64
1, 240848, Control_c, 0, 64, 68
1, 240852, Note_off_c, 0, 50, 58
1, 240863, Control_c, 0, 64, 73
1, 240877, Control_c, 0, 64, 77
1, 240880, Note_off_c, 0, 62, 58
1, 240892, Control_c, 0, 64, 80
1, 240907, Control_c, 0, 64, 81
1, 240911, Note_on_c, 0, 58, 44
1, 240922, Control_c, 0, 64, 82
1, 240937, Control_c, 0, 64, 84
1, 240949, Note_off_c, 0, 58, 51
1, 240951, Control_c, 0, 64, 85
1, 240963, Note_off_c, 0, 70, 38
1, 240966, Control_c, 0, 64, 85
1, 240981, Control_c, 0, 64, 86
1, 240990, Note_off_c, 0, 67, 32
1, 240995, Control_c, 0, 64, 86
1, 241025, Control_c, 0, 64, 86
1, 241030, Note_on_c, 0, 69, 67
1, 241040, Control_c, 0, 64, 83
1, 241055, Control_c, 0, 64, 76
1, 241069, Control_c, 0, 64, 66
1, 241084, Control_c, 0, 64, 47
1, 241099, Control_c, 0, 64, 11
1, 241114, Control_c, 0, 64, 16
1, 241129, Control_c, 0, 64, 32
1, 241132, Note_on_c, 0, 57, 36
1, 241143, Control_c, 0, 64, 47
1, 241158, Control_c, 0, 64, 60
1, 241173, Control_c, 0, 64, 65
1, 241188, Control_c, 0, 64, 70
1, 241202, Control_c, 0, 64, 74
1, 241207, Note_off_c, 0, 57, 60
1, 241213, Note_on_c, 0, 60, 58
1, 241217, Note_on_c, 0, 51, 42
1, 241217, Control_c, 0, 64, 78
1, 241232, Control_c, 0, 64, 81
1, 241247, Control_c, 0, 64, 82
1, 241253, Note_off_c, 0, 69, 57
1, 241262, Control_c, 0, 64, 84
1, 241277, Note_off_c, 0, 51, 40
1, 241277, Control_c, 0, 64, 85
1, 241288, Note_off_c, 0, 60, 62
1, 241292, Control_c, 0, 64, 87
1, 241307, Control_c, 0, 64, 87
1, 241322, Control_c, 0, 64, 88
1, 241325, Note_on_c, 0, 67, 52
1, 241366, Note_off_c, 0, 67, 61
1, 241388, Control_c, 0, 64, 86
1, 241402, Control_c, 0, 64, 81
1, 241417, Control_c, 0, 64, 73
1, 241423, Note_on_c, 0, 72, 68
1, 241432, Control_c, 0, 64, 65
1, 241447, Control_c, 0, 64, 53
1, 241462, Control_c, 0, 64, 42
1, 241477, Control_c, 0, 64, 43
1, 241492, Control_c, 0, 64, 49
1, 241507, Control_c, 0, 64, 57
1, 241521, Control_c, 0, 64, 64
1, 241535, Note_on_c, 0, 63, 65
1, 241536, Control_c, 0, 64, 68
1, 241551, Control_c, 0, 64, 72
1, 241566, Control_c, 0, 64, 75
1, 241581, Control_c, 0, 64, 77
1, 241593, Note_off_c, 0, 63, 54
1, 241595, Control_c, 0, 64, 79
1, 241610, Control_c, 0, 64, 80
1, 241616, Note_on_c, 0, 48, 49
1, 241624, Note_on_c, 0, 67, 51
1, 241626, Control_c, 0, 64, 81
1, 241628, Note_off_c, 0, 72, 62
1, 241641, Control_c, 0, 64, 82
1, 241659, Note_off_c, 0, 48, 63
1, 241700, Control_c, 0, 64, 83
1, 241709, Note_off_c, 0, 67, 57
1, 241724, Note_on_c, 0, 69, 58
1, 241789, Control_c, 0, 64, 80
1, 241804, Control_c, 0, 64, 74
1, 241811, Note_off_c, 0, 69, 65
1, 241814, Note_on_c, 0, 70, 68
1, 241818, Control_c, 0, 64, 66
1, 241833, Control_c, 0, 64, 51
1, 241848, Control_c, 0, 64, 0
1, 241892, Control_c, 0, 64, 18
1, 241907, Control_c, 0, 64, 49
1, 241909, Note_on_c, 0, 58, 57
1, 241922, Control_c, 0, 64, 61
1, 241937, Control_c, 0, 64, 65
1, 241952, Control_c, 0, 64, 69
1, 241966, Control_c, 0, 64, 73
1, 241981, Control_c, 0, 64, 76
1, 241993, Note_off_c, 0, 58, 60
1, 241996, Control_c, 0, 64, 78
1, 242000, Note_on_c, 0, 62, 53
1, 242010, Control_c, 0, 64, 80
1, 242016, Note_on_c, 0, 50, 47
1, 242025, Control_c, 0, 64, 80
1, 242040, Control_c, 0, 64, 81
1, 242055, Control_c, 0, 64, 83
1, 242067, Note_off_c, 0, 50, 44
1, 242070, Control_c, 0, 64, 84
1, 242092, Control_c, 0, 64, 85
1, 242093, Note_off_c, 0, 70, 46
1, 242111, Note_on_c, 0, 67, 49
1, 242122, Control_c, 0, 64, 86
1, 242137, Control_c, 0, 64, 87
1, 242152, Control_c, 0, 64, 87
1, 242166, Control_c, 0, 64, 88
1, 242211, Control_c, 0, 64, 86
1, 242218, Note_on_c, 0, 69, 64
1, 242225, Control_c, 0, 64, 81
1, 242235, Note_off_c, 0, 62, 19
1, 242240, Control_c, 0, 64, 71
1, 242255, Note_off_c, 0, 67, 33
1, 242255, Control_c, 0, 64, 51
1, 242270, Control_c, 0, 64, 0
1, 242312, Note_on_c, 0, 60, 49
1, 242359, Control_c, 0, 64, 38
1, 242374, Control_c, 0, 64, 63
1, 242389, Control_c, 0, 64, 68
1, 242400, Note_on_c, 0, 38, 35
1, 242404, Control_c, 0, 64, 73
1, 242407, Note_on_c, 0, 62, 45
1, 242419, Control_c, 0, 64, 77
1, 242430, Note_off_c, 0, 69, 57
1, 242434, Control_c, 0, 64, 81
1, 242440, Note_off_c, 0, 38, 44
1, 242449, Control_c, 0, 64, 84
1, 242463, Control_c, 0, 64, 85
1, 242469, Note_off_c, 0, 60, 31
1, 242478, Control_c, 0, 64, 86
1, 242493, Control_c, 0, 64, 88
1, 242504, Note_on_c, 0, 66, 56
1, 242508, Control_c, 0, 64, 90
1, 242523, Control_c, 0, 64, 90
1, 242535, Note_off_c, 0, 62, 38
1, 242568, Control_c, 0, 64, 90
1, 242583, Control_c, 0, 64, 85
1, 242597, Control_c, 0, 64, 73
1, 242598, Note_off_c, 0, 66, 66
1, 242609, Note_on_c, 0, 67, 57
1, 242612, Control_c, 0, 64, 46
1, 242627, Control_c, 0, 64, 0
1, 242702, Note_on_c, 0, 55, 55
1, 242797, Note_off_c, 0, 55, 49
1, 242803, Note_on_c, 0, 58, 45
1, 242809, Note_on_c, 0, 43, 47
1, 242847, Note_off_c, 0, 43, 54
1, 242913, Note_on_c, 0, 62, 47
1, 242938, Note_off_c, 0, 58, 38
1, 242998, Note_on_c, 0, 45, 59
1, 243002, Note_on_c, 0, 63, 58
1, 243003, Note_off_c, 0, 62, 55
1, 243032, Note_off_c, 0, 45, 64
1, 243103, Note_on_c, 0, 60, 60
1, 243104, Note_off_c, 0, 63, 58
1, 243152, Note_off_c, 0, 60, 62
1, 243171, Note_on_c, 0, 57, 54
1, 243198, Note_on_c, 0, 48, 61
1, 243230, Note_off_c, 0, 48, 66
1, 243251, Note_off_c, 0, 57, 60
1, 243259, Note_on_c, 0, 63, 58
1, 243345, Note_off_c, 0, 63, 62
1, 243370, Note_on_c, 0, 46, 65
1, 243374, Note_on_c, 0, 62, 52
1, 243405, Note_off_c, 0, 46, 61
1, 243455, Note_off_c, 0, 62, 62
1, 243471, Note_on_c, 0, 58, 49
1, 243534, Note_off_c, 0, 58, 49
1, 243575, Note_off_c, 0, 67, 47
1, 243575, Note_on_c, 0, 62, 45
1, 243577, Note_on_c, 0, 55, 55
1, 243617, Note_off_c, 0, 55, 59
1, 243669, Note_off_c, 0, 62, 59
1, 243690, Note_on_c, 0, 66, 55
1, 243772, Note_off_c, 0, 66, 60
1, 243777, Note_on_c, 0, 50, 48
1, 243784, Note_on_c, 0, 67, 53
1, 243811, Note_off_c, 0, 50, 58
1, 243849, Note_off_c, 0, 67, 57
1, 243890, Note_on_c, 0, 62, 49
1, 243985, Note_on_c, 0, 46, 42
1, 243989, Note_off_c, 0, 62, 54
1, 244002, Note_on_c, 0, 67, 47
1, 244022, Note_off_c, 0, 46, 58
1, 244102, Note_off_c, 0, 67, 62
1, 244109, Note_on_c, 0, 70, 47
1, 244200, Note_off_c, 0, 70, 0
1, 244200, Note_on_c, 0, 70, 3
1, 244285, Note_on_c, 0, 74, 54
1, 244303, Note_off_c, 0, 70, 35
1, 244437, Note_on_c, 0, 62, 34
1, 244473, Control_c, 0, 64, 25
1, 244488, Control_c, 0, 64, 47
1, 244502, Control_c, 0, 64, 60
1, 244504, Note_on_c, 0, 43, 34
1, 244517, Control_c, 0, 64, 64
1, 244531, Note_on_c, 0, 67, 41
1, 244532, Control_c, 0, 64, 65
1, 244547, Control_c, 0, 64, 66
1, 244562, Control_c, 0, 64, 67
1, 244564, Note_off_c, 0, 43, 42
1, 244577, Control_c, 0, 64, 70
1, 244590, Note_off_c, 0, 74, 37
1, 244592, Control_c, 0, 64, 73
1, 244602, Note_off_c, 0, 62, 31
1, 244606, Control_c, 0, 64, 76
1, 244620, Control_c, 0, 64, 77
1, 244635, Control_c, 0, 64, 78
1, 244645, Note_on_c, 0, 70, 44
1, 244650, Control_c, 0, 64, 79
1, 244665, Control_c, 0, 64, 81
1, 244672, Note_off_c, 0, 67, 37
1, 244680, Control_c, 0, 64, 83
1, 244694, Control_c, 0, 64, 83
1, 244737, Note_on_c, 0, 74, 63
1, 244753, Control_c, 0, 64, 83
1, 244768, Control_c, 0, 64, 81
1, 244783, Control_c, 0, 64, 76
1, 244798, Control_c, 0, 64, 69
1, 244814, Control_c, 0, 64, 62
1, 244818, Note_off_c, 0, 70, 35
1, 244829, Control_c, 0, 64, 53
1, 244843, Control_c, 0, 64, 55
1, 244847, Note_on_c, 0, 62, 49
1, 244858, Control_c, 0, 64, 57
1, 244873, Control_c, 0, 64, 59
1, 244888, Control_c, 0, 64, 61
1, 244903, Control_c, 0, 64, 64
1, 244917, Control_c, 0, 64, 67
1, 244929, Note_on_c, 0, 43, 39
1, 244932, Control_c, 0, 64, 73
1, 244947, Control_c, 0, 64, 79
1, 244949, Note_on_c, 0, 67, 54
1, 244962, Control_c, 0, 64, 82
1, 244977, Control_c, 0, 64, 84
1, 244991, Control_c, 0, 64, 85
1, 244993, Note_off_c, 0, 43, 43
1, 245006, Control_c, 0, 64, 86
1, 245011, Note_off_c, 0, 74, 56
1, 245021, Control_c, 0, 64, 88
1, 245036, Control_c, 0, 64, 89
1, 245058, Note_on_c, 0, 70, 48
1, 245066, Control_c, 0, 64, 90
1, 245100, Note_off_c, 0, 67, 49
1, 245103, Control_c, 0, 64, 90
1, 245117, Note_off_c, 0, 62, 34
1, 245147, Note_on_c, 0, 74, 71
1, 245147, Control_c, 0, 64, 89
1, 245162, Control_c, 0, 64, 85
1, 245177, Control_c, 0, 64, 77
1, 245186, Note_off_c, 0, 70, 60
1, 245191, Control_c, 0, 64, 67
1, 245206, Control_c, 0, 64, 25
1, 245221, Control_c, 0, 64, 0
1, 245266, Note_on_c, 0, 62, 36
1, 245295, Control_c, 0, 64, 16
1, 245310, Control_c, 0, 64, 62
1, 245325, Control_c, 0, 64, 67
1, 245338, Note_on_c, 0, 38, 46
1, 245340, Control_c, 0, 64, 71
1, 245355, Note_on_c, 0, 66, 47
1, 245355, Control_c, 0, 64, 76
1, 245369, Control_c, 0, 64, 80
1, 245378, Note_off_c, 0, 38, 60
1, 245384, Control_c, 0, 64, 83
1, 245399, Control_c, 0, 64, 86
1, 245412, Note_off_c, 0, 74, 61
1, 245414, Control_c, 0, 64, 88
1, 245429, Control_c, 0, 64, 89
1, 245435, Note_off_c, 0, 62, 35
1, 245435, Note_on_c, 0, 69, 58
1, 245438, Note_off_c, 0, 66, 56
1, 245443, Control_c, 0, 64, 90
1, 245458, Control_c, 0, 64, 91
1, 245473, Control_c, 0, 64, 92
1, 245488, Control_c, 0, 64, 93
1, 245541, Note_off_c, 0, 69, 65
1, 245543, Note_on_c, 0, 74, 73
1, 245547, Control_c, 0, 64, 90
1, 245561, Control_c, 0, 64, 84
1, 245576, Control_c, 0, 64, 75
1, 245591, Control_c, 0, 64, 65
1, 245607, Control_c, 0, 64, 0
1, 245629, Note_on_c, 0, 62, 56
1, 245652, Control_c, 0, 64, 48
1, 245666, Control_c, 0, 64, 64
1, 245681, Control_c, 0, 64, 69
1, 245696, Control_c, 0, 64, 73
1, 245711, Control_c, 0, 64, 75
1, 245718, Note_on_c, 0, 43, 43
1, 245725, Note_on_c, 0, 67, 56
1, 245726, Control_c, 0, 64, 78
1, 245736, Note_off_c, 0, 62, 56
1, 245740, Control_c, 0, 64, 81
1, 245755, Control_c, 0, 64, 83
1, 245757, Note_off_c, 0, 43, 55
1, 245770, Control_c, 0, 64, 85
1, 245781, Note_off_c, 0, 74, 64
1, 245784, Control_c, 0, 64, 86
1, 245799, Control_c, 0, 64, 86
1, 245805, Note_on_c, 0, 70, 55
1, 245814, Control_c, 0, 64, 87
1, 245837, Control_c, 0, 64, 88
1, 245911, Control_c, 0, 64, 84
1, 245926, Control_c, 0, 64, 75
1, 245939, Note_on_c, 0, 75, 69
1, 245940, Control_c, 0, 64, 64
1, 245949, Note_off_c, 0, 70, 54
1, 245955, Control_c, 0, 64, 0
1, 245966, Note_off_c, 0, 67, 40
1, 246044, Note_on_c, 0, 63, 54
1, 246044, Control_c, 0, 64, 58
1, 246059, Control_c, 0, 64, 65
1, 246073, Control_c, 0, 64, 69
1, 246088, Control_c, 0, 64, 72
1, 246104, Control_c, 0, 64, 76
1, 246119, Control_c, 0, 64, 79
1, 246133, Note_on_c, 0, 36, 48
1, 246134, Control_c, 0, 64, 82
1, 246138, Note_on_c, 0, 67, 52
1, 246139, Note_off_c, 0, 63, 39
1, 246148, Control_c, 0, 64, 84
1, 246163, Control_c, 0, 64, 86
1, 246176, Note_off_c, 0, 36, 61
1, 246178, Control_c, 0, 64, 87
1, 246185, Note_off_c, 0, 67, 63
1, 246193, Control_c, 0, 64, 88
1, 246207, Control_c, 0, 64, 89
1, 246219, Note_on_c, 0, 72, 55
1, 246222, Control_c, 0, 64, 90
1, 246252, Control_c, 0, 64, 90
1, 246297, Control_c, 0, 64, 88
1, 246312, Control_c, 0, 64, 82
1, 246325, Note_off_c, 0, 72, 58
1, 246327, Control_c, 0, 64, 72
1, 246335, Note_on_c, 0, 69, 54
1, 246341, Control_c, 0, 64, 58
1, 246356, Control_c, 0, 64, 0
1, 246388, Note_off_c, 0, 69, 64
1, 246422, Note_on_c, 0, 72, 47
1, 246461, Control_c, 0, 64, 53
1, 246476, Control_c, 0, 64, 64
1, 246490, Control_c, 0, 64, 68
1, 246505, Control_c, 0, 64, 73
1, 246510, Note_on_c, 0, 41, 46
1, 246520, Control_c, 0, 64, 78
1, 246523, Note_on_c, 0, 69, 53
1, 246535, Control_c, 0, 64, 83
1, 246545, Note_off_c, 0, 41, 65
1, 246550, Control_c, 0, 64, 87
1, 246564, Control_c, 0, 64, 89
1, 246567, Note_off_c, 0, 72, 51
1, 246567, Note_off_c, 0, 75, 37
1, 246586, Control_c, 0, 64, 90
1, 246601, Control_c, 0, 64, 91
1, 246604, Note_off_c, 0, 69, 65
1, 246616, Control_c, 0, 64, 93
1, 246631, Control_c, 0, 64, 94
1, 246640, Note_on_c, 0, 65, 48
1, 246646, Control_c, 0, 64, 94
1, 246705, Note_off_c, 0, 65, 62
1, 246720, Control_c, 0, 64, 91
1, 246732, Note_on_c, 0, 74, 58
1, 246735, Control_c, 0, 64, 83
1, 246750, Control_c, 0, 64, 70
1, 246764, Control_c, 0, 64, 46
1, 246779, Control_c, 0, 64, 0
1, 246824, Note_on_c, 0, 62, 48
1, 246897, Control_c, 0, 64, 60
1, 246908, Note_on_c, 0, 34, 44
1, 246911, Note_off_c, 0, 62, 41
1, 246912, Control_c, 0, 64, 67
1, 246920, Note_on_c, 0, 65, 54
1, 246927, Control_c, 0, 64, 72
1, 246942, Control_c, 0, 64, 77
1, 246952, Note_off_c, 0, 34, 61
1, 246957, Control_c, 0, 64, 81
1, 246971, Control_c, 0, 64, 84
1, 246984, Note_off_c, 0, 65, 58
1, 246986, Control_c, 0, 64, 86
1, 247001, Control_c, 0, 64, 87
1, 247013, Note_on_c, 0, 70, 50
1, 247015, Control_c, 0, 64, 88
1, 247030, Control_c, 0, 64, 89
1, 247045, Control_c, 0, 64, 90
1, 247060, Control_c, 0, 64, 91
1, 247075, Control_c, 0, 64, 91
1, 247090, Control_c, 0, 64, 92
1, 247096, Note_off_c, 0, 70, 55
1, 247105, Control_c, 0, 64, 92
1, 247123, Note_on_c, 0, 65, 41
1, 247162, Note_off_c, 0, 65, 51
1, 247164, Control_c, 0, 64, 91
1, 247179, Control_c, 0, 64, 87
1, 247194, Control_c, 0, 64, 78
1, 247209, Control_c, 0, 64, 65
1, 247213, Note_on_c, 0, 70, 53
1, 247221, Note_off_c, 0, 74, 31
1, 247224, Control_c, 0, 64, 0
1, 247286, Note_on_c, 0, 46, 55
1, 247297, Note_on_c, 0, 65, 43
1, 247298, Control_c, 0, 64, 58
1, 247313, Control_c, 0, 64, 66
1, 247327, Note_off_c, 0, 46, 63
1, 247327, Note_off_c, 0, 70, 57
1, 247328, Control_c, 0, 64, 70
1, 247350, Control_c, 0, 64, 72
1, 247361, Note_off_c, 0, 65, 65
1, 247364, Control_c, 0, 64, 75
1, 247379, Control_c, 0, 64, 78
1, 247392, Note_on_c, 0, 62, 55
1, 247394, Control_c, 0, 64, 81
1, 247409, Control_c, 0, 64, 83
1, 247424, Control_c, 0, 64, 84
1, 247439, Control_c, 0, 64, 85
1, 247463, Note_off_c, 0, 62, 51
1, 247483, Control_c, 0, 64, 84
1, 247498, Control_c, 0, 64, 79
1, 247504, Note_on_c, 0, 72, 64
1, 247513, Control_c, 0, 64, 68
1, 247528, Control_c, 0, 64, 48
1, 247543, Control_c, 0, 64, 0
1, 247586, Note_on_c, 0, 60, 50
1, 247602, Control_c, 0, 64, 32
1, 247617, Control_c, 0, 64, 59
1, 247631, Control_c, 0, 64, 65
1, 247646, Control_c, 0, 64, 68
1, 247661, Control_c, 0, 64, 69
1, 247664, Note_off_c, 0, 60, 51
1, 247676, Control_c, 0, 64, 70
1, 247689, Note_on_c, 0, 63, 46
1, 247691, Control_c, 0, 64, 72
1, 247705, Control_c, 0, 64, 74
1, 247717, Note_on_c, 0, 45, 46
1, 247720, Control_c, 0, 64, 76
1, 247735, Control_c, 0, 64, 78
1, 247740, Note_off_c, 0, 63, 59
1, 247750, Control_c, 0, 64, 80
1, 247757, Note_off_c, 0, 45, 62
1, 247764, Control_c, 0, 64, 81
1, 247779, Control_c, 0, 64, 83
1, 247787, Note_on_c, 0, 69, 50
1, 247794, Control_c, 0, 64, 84
1, 247809, Control_c, 0, 64, 84
1, 247824, Control_c, 0, 64, 85
1, 247870, Note_off_c, 0, 69, 60
1, 247883, Control_c, 0, 64, 84
1, 247889, Note_on_c, 0, 66, 50
1, 247898, Control_c, 0, 64, 83
1, 247912, Control_c, 0, 64, 80
1, 247927, Control_c, 0, 64, 72
1, 247928, Note_off_c, 0, 66, 55
1, 247942, Control_c, 0, 64, 64
1, 247957, Control_c, 0, 64, 50
1, 247969, Note_on_c, 0, 69, 44
1, 247972, Control_c, 0, 64, 39
1, 247987, Control_c, 0, 64, 18
1, 248002, Control_c, 0, 64, 0
1, 248047, Control_c, 0, 64, 43
1, 248062, Control_c, 0, 64, 62
1, 248065, Note_on_c, 0, 66, 34
1, 248076, Control_c, 0, 64, 68
1, 248094, Note_off_c, 0, 72, 58
1, 248099, Control_c, 0, 64, 72
1, 248105, Note_on_c, 0, 38, 45
1, 248114, Control_c, 0, 64, 77
1, 248120, Note_off_c, 0, 69, 62
1, 248129, Control_c, 0, 64, 81
1, 248138, Note_off_c, 0, 38, 59
1, 248143, Control_c, 0, 64, 83
1, 248144, Note_off_c, 0, 66, 65
1, 248158, Control_c, 0, 64, 85
1, 248173, Control_c, 0, 64, 86
1, 248177, Note_on_c, 0, 62, 49
1, 248187, Control_c, 0, 64, 87
1, 248214, Note_off_c, 0, 62, 55
1, 248276, Control_c, 0, 64, 84
1, 248277, Note_on_c, 0, 70, 59
1, 248291, Control_c, 0, 64, 77
1, 248306, Control_c, 0, 64, 68
1, 248321, Control_c, 0, 64, 53
1, 248336, Control_c, 0, 64, 0
1, 248378, Note_on_c, 0, 58, 45
1, 248438, Control_c, 0, 64, 59
1, 248448, Note_off_c, 0, 58, 58
1, 248452, Control_c, 0, 64, 66
1, 248467, Control_c, 0, 64, 69
1, 248474, Note_on_c, 0, 62, 47
1, 248482, Control_c, 0, 64, 73
1, 248484, Note_on_c, 0, 43, 44
1, 248497, Control_c, 0, 64, 77
1, 248512, Control_c, 0, 64, 81
1, 248520, Note_off_c, 0, 43, 57
1, 248527, Control_c, 0, 64, 84
1, 248540, Note_off_c, 0, 62, 54
1, 248541, Control_c, 0, 64, 86
1, 248556, Control_c, 0, 64, 87
1, 248565, Note_on_c, 0, 67, 49
1, 248571, Control_c, 0, 64, 88
1, 248586, Control_c, 0, 64, 89
1, 248641, Note_off_c, 0, 67, 58
1, 248669, Note_on_c, 0, 62, 56
1, 248675, Control_c, 0, 64, 87
1, 248690, Control_c, 0, 64, 82
1, 248705, Control_c, 0, 64, 74
1, 248720, Control_c, 0, 64, 64
1, 248734, Control_c, 0, 64, 22
1, 248745, Note_off_c, 0, 62, 57
1, 248749, Control_c, 0, 64, 0
1, 248777, Note_on_c, 0, 67, 54
1, 248860, Note_on_c, 0, 31, 46
1, 248869, Note_on_c, 0, 62, 52
1, 248876, Control_c, 0, 64, 62
1, 248890, Control_c, 0, 64, 68
1, 248898, Note_off_c, 0, 31, 64
1, 248905, Control_c, 0, 64, 73
1, 248913, Note_off_c, 0, 67, 59
1, 248920, Control_c, 0, 64, 78
1, 248935, Control_c, 0, 64, 81
1, 248942, Note_off_c, 0, 62, 45
1, 248945, Note_on_c, 0, 58, 52
1, 248950, Control_c, 0, 64, 84
1, 248965, Control_c, 0, 64, 86
1, 248968, Note_off_c, 0, 70, 26
1, 248979, Note_off_c, 0, 58, 65
1, 248980, Control_c, 0, 64, 87
1, 249050, Note_on_c, 0, 67, 69
1, 249054, Control_c, 0, 64, 84
1, 249069, Control_c, 0, 64, 77
1, 249083, Control_c, 0, 64, 66
1, 249098, Control_c, 0, 64, 22
1, 249113, Control_c, 0, 64, 0
1, 249155, Note_on_c, 0, 63, 60
1, 249172, Control_c, 0, 64, 30
1, 249187, Control_c, 0, 64, 60
1, 249202, Control_c, 0, 64, 66
1, 249216, Control_c, 0, 64, 70
1, 249231, Control_c, 0, 64, 73
1, 249246, Control_c, 0, 64, 76
1, 249248, Note_on_c, 0, 39, 43
1, 249254, Note_on_c, 0, 62, 57
1, 249261, Control_c, 0, 64, 80
1, 249269, Note_off_c, 0, 67, 52
1, 249276, Control_c, 0, 64, 83
1, 249281, Note_off_c, 0, 63, 63
1, 249290, Control_c, 0, 64, 85
1, 249305, Control_c, 0, 64, 87
1, 249308, Note_off_c, 0, 39, 56
1, 249314, Note_off_c, 0, 62, 62
1, 249320, Control_c, 0, 64, 88
1, 249334, Control_c, 0, 64, 89
1, 249339, Note_on_c, 0, 60, 49
1, 249367, Note_off_c, 0, 60, 57
1, 249394, Control_c, 0, 64, 87
1, 249409, Control_c, 0, 64, 82
1, 249424, Control_c, 0, 64, 71
1, 249436, Note_on_c, 0, 75, 68
1, 249439, Control_c, 0, 64, 60
1, 249454, Control_c, 0, 64, 0
1, 249513, Control_c, 0, 64, 33
1, 249527, Control_c, 0, 64, 55
1, 249531, Note_on_c, 0, 63, 53
1, 249542, Control_c, 0, 64, 63
1, 249557, Control_c, 0, 64, 66
1, 249579, Control_c, 0, 64, 69
1, 249594, Control_c, 0, 64, 71
1, 249601, Note_off_c, 0, 63, 57
1, 249610, Control_c, 0, 64, 74
1, 249625, Control_c, 0, 64, 78
1, 249628, Note_on_c, 0, 67, 46
1, 249639, Control_c, 0, 64, 79
1, 249654, Control_c, 0, 64, 80
1, 249657, Note_on_c, 0, 36, 40
1, 249682, Note_off_c, 0, 75, 52
1, 249686, Note_off_c, 0, 67, 56
1, 249690, Note_off_c, 0, 36, 55
1, 249699, Control_c, 0, 64, 81
1, 249707, Note_on_c, 0, 72, 57
1, 249713, Control_c, 0, 64, 82
1, 249728, Control_c, 0, 64, 83
1, 249743, Control_c, 0, 64, 83
1, 249814, Note_off_c, 0, 72, 58
1, 249815, Note_on_c, 0, 74, 65
1, 249817, Control_c, 0, 64, 82
1, 249832, Control_c, 0, 64, 77
1, 249847, Control_c, 0, 64, 69
1, 249862, Control_c, 0, 64, 58
1, 249877, Control_c, 0, 64, 0
1, 249916, Note_on_c, 0, 62, 48
1, 249922, Control_c, 0, 64, 35
1, 249937, Control_c, 0, 64, 57
1, 249951, Control_c, 0, 64, 64
1, 249966, Control_c, 0, 64, 68
1, 249981, Control_c, 0, 64, 71
1, 249996, Control_c, 0, 64, 76
1, 250008, Note_off_c, 0, 74, 41
1, 250008, Note_on_c, 0, 41, 47
1, 250011, Control_c, 0, 64, 79
1, 250026, Note_on_c, 0, 65, 46
1, 250026, Control_c, 0, 64, 81
1, 250031, Note_off_c, 0, 62, 33
1, 250040, Control_c, 0, 64, 82
1, 250044, Note_off_c, 0, 41, 58
1, 250055, Control_c, 0, 64, 83
1, 250070, Control_c, 0, 64, 85
1, 250085, Control_c, 0, 64, 87
1, 250100, Control_c, 0, 64, 89
1, 250103, Note_off_c, 0, 65, 56
1, 250104, Note_on_c, 0, 70, 57
1, 250114, Control_c, 0, 64, 89
1, 250129, Control_c, 0, 64, 90
1, 250144, Control_c, 0, 64, 90
1, 250195, Note_off_c, 0, 70, 64
1, 250203, Control_c, 0, 64, 88
1, 250207, Note_on_c, 0, 72, 61
1, 250218, Control_c, 0, 64, 81
1, 250232, Control_c, 0, 64, 69
1, 250247, Control_c, 0, 64, 34
1, 250262, Control_c, 0, 64, 0
1, 250328, Note_on_c, 0, 63, 51
1, 250329, Control_c, 0, 64, 60
1, 250344, Control_c, 0, 64, 67
1, 250358, Control_c, 0, 64, 70
1, 250373, Control_c, 0, 64, 73
1, 250388, Control_c, 0, 64, 78
1, 250404, Control_c, 0, 64, 81
1, 250410, Note_on_c, 0, 29, 50
1, 250419, Control_c, 0, 64, 84
1, 250426, Note_on_c, 0, 65, 56
1, 250428, Note_off_c, 0, 72, 64
1, 250434, Control_c, 0, 64, 86
1, 250449, Control_c, 0, 64, 87
1, 250449, Note_off_c, 0, 29, 48
1, 250457, Note_off_c, 0, 63, 36
1, 250463, Control_c, 0, 64, 89
1, 250478, Control_c, 0, 64, 90
1, 250493, Control_c, 0, 64, 92
1, 250508, Control_c, 0, 64, 94
1, 250518, Note_on_c, 0, 69, 50
1, 250519, Note_off_c, 0, 65, 56
1, 250523, Control_c, 0, 64, 95
1, 250581, Control_c, 0, 64, 89
1, 250595, Control_c, 0, 64, 79
1, 250604, Note_off_c, 0, 69, 66
1, 250610, Control_c, 0, 64, 65
1, 250625, Note_on_c, 0, 70, 65
1, 250625, Control_c, 0, 64, 0
1, 250712, Note_on_c, 0, 58, 47
1, 250820, Note_on_c, 0, 46, 52
1, 250820, Note_on_c, 0, 62, 55
1, 250844, Note_off_c, 0, 58, 44
1, 250861, Note_off_c, 0, 46, 59
1, 250930, Note_on_c, 0, 65, 51
1, 250930, Note_off_c, 0, 62, 55
1, 251001, Note_on_c, 0, 48, 60
1, 251012, Note_on_c, 0, 66, 64
1, 251034, Note_off_c, 0, 48, 65
1, 251035, Note_off_c, 0, 65, 59
1, 251114, Note_on_c, 0, 63, 62
1, 251129, Note_off_c, 0, 66, 57
1, 251197, Note_off_c, 0, 63, 63
1, 251205, Note_on_c, 0, 51, 61
1, 251207, Note_on_c, 0, 60, 61
1, 251241, Note_off_c, 0, 51, 61
1, 251278, Note_off_c, 0, 60, 57
1, 251299, Note_on_c, 0, 66, 56
1, 251393, Note_on_c, 0, 50, 57
1, 251396, Note_off_c, 0, 66, 63
1, 251415, Note_on_c, 0, 65, 46
1, 251426, Note_off_c, 0, 50, 64
1, 251444, Note_off_c, 0, 70, 56
1, 251460, Note_off_c, 0, 65, 65
1, 251496, Note_on_c, 0, 62, 56
1, 251546, Note_off_c, 0, 62, 55
1, 251579, Note_on_c, 0, 65, 57
1, 251585, Note_on_c, 0, 58, 54
1, 251627, Note_off_c, 0, 58, 60
1, 251674, Note_off_c, 0, 65, 66
1, 251689, Note_on_c, 0, 69, 54
1, 251764, Note_on_c, 0, 53, 55
1, 251770, Note_off_c, 0, 69, 64
1, 251790, Note_on_c, 0, 70, 60
1, 251815, Note_off_c, 0, 53, 59
1, 251844, Note_off_c, 0, 70, 63
1, 251895, Note_on_c, 0, 65, 46
1, 251960, Note_off_c, 0, 65, 51
1, 251978, Note_on_c, 0, 50, 51
1, 251988, Note_on_c, 0, 70, 58
1, 252013, Note_off_c, 0, 50, 65
1, 252092, Note_off_c, 0, 70, 61
1, 252094, Note_on_c, 0, 74, 53
1, 252287, Note_on_c, 0, 77, 63
1, 252291, Note_on_c, 0, 46, 45
1, 252291, Note_off_c, 0, 74, 62
1, 252303, Note_on_c, 0, 65, 47
1, 252390, Control_c, 0, 64, 11
1, 252405, Control_c, 0, 64, 44
1, 252419, Control_c, 0, 64, 50
1, 252434, Control_c, 0, 64, 63
1, 252449, Control_c, 0, 64, 69
1, 252453, Note_on_c, 0, 50, 44
1, 252464, Control_c, 0, 64, 76
1, 252479, Control_c, 0, 64, 80
1, 252494, Control_c, 0, 64, 82
1, 252508, Control_c, 0, 64, 85
1, 252523, Control_c, 0, 64, 89
1, 252526, Note_off_c, 0, 50, 60
1, 252538, Control_c, 0, 64, 91
1, 252545, Note_off_c, 0, 77, 62
1, 252552, Control_c, 0, 64, 92
1, 252567, Control_c, 0, 64, 93
1, 252581, Note_on_c, 0, 53, 49
1, 252584, Note_off_c, 0, 46, 33
1, 252590, Control_c, 0, 64, 95
1, 252604, Control_c, 0, 64, 97
1, 252619, Control_c, 0, 64, 99
1, 252622, Note_off_c, 0, 65, 30
1, 252634, Control_c, 0, 64, 101
1, 252649, Control_c, 0, 64, 101
1, 252664, Control_c, 0, 64, 102
1, 252671, Note_on_c, 0, 50, 45
1, 252679, Control_c, 0, 64, 104
1, 252686, Note_off_c, 0, 53, 38
1, 252694, Control_c, 0, 64, 105
1, 252752, Control_c, 0, 64, 104
1, 252760, Note_off_c, 0, 50, 54
1, 252767, Control_c, 0, 64, 101
1, 252770, Note_on_c, 0, 77, 76
1, 252774, Note_on_c, 0, 65, 59
1, 252774, Note_on_c, 0, 46, 55
1, 252782, Control_c, 0, 64, 98
1, 252797, Control_c, 0, 64, 94
1, 252813, Control_c, 0, 64, 91
1, 252828, Control_c, 0, 64, 89
1, 252843, Control_c, 0, 64, 88
1, 252897, Note_on_c, 0, 50, 63
1, 252932, Control_c, 0, 67, 123
1, 252947, Control_c, 0, 67, 116
1, 252962, Control_c, 0, 67, 107
1, 252963, Note_off_c, 0, 50, 63
1, 252976, Control_c, 0, 64, 89
1, 252976, Control_c, 0, 67, 97
1, 252991, Control_c, 0, 64, 89
1, 252991, Control_c, 0, 67, 85
1, 252999, Note_on_c, 0, 53, 58
1, 253002, Note_off_c, 0, 65, 62
1, 253006, Control_c, 0, 64, 90
1, 253006, Control_c, 0, 67, 73
1, 253021, Control_c, 0, 64, 91
1, 253021, Control_c, 0, 67, 62
1, 253036, Control_c, 0, 64, 91
1, 253036, Control_c, 0, 67, 53
1, 253045, Note_off_c, 0, 46, 39
1, 253050, Control_c, 0, 64, 93
1, 253050, Control_c, 0, 67, 47
1, 253065, Control_c, 0, 64, 94
1, 253065, Control_c, 0, 67, 44
1, 253080, Control_c, 0, 64, 96
1, 253080, Control_c, 0, 67, 43
1, 253081, Note_off_c, 0, 53, 61
1, 253090, Note_on_c, 0, 50, 55
1, 253095, Control_c, 0, 64, 97
1, 253095, Control_c, 0, 67, 43
1, 253124, Control_c, 0, 67, 43
1, 253139, Control_c, 0, 64, 97
1, 253139, Control_c, 0, 67, 44
1, 253154, Control_c, 0, 64, 92
1, 253154, Control_c, 0, 67, 45
1, 253157, Note_off_c, 0, 50, 60
1, 253159, Note_on_c, 0, 78, 84
1, 253168, Note_on_c, 0, 66, 65
1, 253168, Control_c, 0, 64, 84
1, 253168, Control_c, 0, 67, 45
1, 253176, Note_on_c, 0, 45, 59
1, 253183, Note_off_c, 0, 77, 61
1, 253183, Control_c, 0, 64, 74
1, 253198, Control_c, 0, 64, 65
1, 253213, Control_c, 0, 64, 44
1, 253228, Control_c, 0, 64, 0
1, 253242, Control_c, 0, 64, 35
1, 253242, Control_c, 0, 67, 45
1, 253257, Control_c, 0, 64, 57
1, 253257, Control_c, 0, 67, 44
1, 253272, Control_c, 0, 64, 64
1, 253283, Note_on_c, 0, 48, 65
1, 253287, Control_c, 0, 64, 68
1, 253302, Control_c, 0, 64, 73
1, 253317, Control_c, 0, 64, 78
1, 253339, Control_c, 0, 64, 83
1, 253354, Control_c, 0, 64, 86
1, 253365, Note_off_c, 0, 48, 64
1, 253369, Control_c, 0, 64, 87
1, 253383, Control_c, 0, 64, 89
1, 253391, Note_on_c, 0, 50, 56
1, 253396, Note_off_c, 0, 66, 64
1, 253398, Control_c, 0, 64, 91
1, 253413, Control_c, 0, 64, 94
1, 253413, Control_c, 0, 67, 45
1, 253428, Control_c, 0, 64, 96
1, 253443, Control_c, 0, 64, 98
1, 253443, Control_c, 0, 67, 45
1, 253457, Control_c, 0, 64, 100
1, 253457, Control_c, 0, 67, 46
1, 253472, Control_c, 0, 64, 101
1, 253472, Control_c, 0, 67, 46
1, 253474, Note_off_c, 0, 45, 60
1, 253485, Note_on_c, 0, 48, 63
1, 253487, Control_c, 0, 67, 47
1, 253502, Control_c, 0, 67, 47
1, 253517, Control_c, 0, 67, 48
1, 253532, Control_c, 0, 64, 100
1, 253532, Control_c, 0, 67, 48
1, 253543, Note_off_c, 0, 50, 34
1, 253546, Control_c, 0, 64, 93
1, 253546, Control_c, 0, 67, 49
1, 253560, Note_on_c, 0, 79, 85
1, 253561, Control_c, 0, 64, 82
1, 253561, Control_c, 0, 67, 49
1, 253568, Note_off_c, 0, 48, 61
1, 253571, Note_on_c, 0, 43, 59
1, 253575, Note_on_c, 0, 67, 60
1, 253576, Control_c, 0, 64, 69
1, 253576, Control_c, 0, 67, 50
1, 253591, Control_c, 0, 64, 34
1, 253599, Note_off_c, 0, 78, 60
1, 253606, Control_c, 0, 64, 0
1, 253666, Control_c, 0, 64, 50
1, 253681, Control_c, 0, 64, 63
1, 253685, Note_on_c, 0, 48, 65
1, 253695, Control_c, 0, 64, 68
1, 253710, Control_c, 0, 64, 72
1, 253725, Control_c, 0, 64, 77
1, 253731, Note_off_c, 0, 43, 60
1, 253740, Control_c, 0, 64, 81
1, 253755, Control_c, 0, 64, 84
1, 253758, Note_off_c, 0, 48, 64
1, 253770, Control_c, 0, 64, 86
1, 253785, Control_c, 0, 64, 87
1, 253785, Note_on_c, 0, 50, 59
1, 253800, Control_c, 0, 64, 89
1, 253814, Control_c, 0, 64, 91
1, 253829, Control_c, 0, 64, 93
1, 253844, Note_off_c, 0, 67, 34
1, 253844, Control_c, 0, 64, 94
1, 253859, Control_c, 0, 64, 95
1, 253870, Note_off_c, 0, 50, 58
1, 253873, Control_c, 0, 67, 50
1, 253874, Note_on_c, 0, 48, 64
1, 253888, Control_c, 0, 67, 51
1, 253918, Control_c, 0, 64, 93
1, 253932, Control_c, 0, 64, 87
1, 253932, Control_c, 0, 67, 51
1, 253946, Note_off_c, 0, 48, 63
1, 253947, Control_c, 0, 64, 79
1, 253951, Note_on_c, 0, 81, 83
1, 253958, Note_off_c, 0, 79, 64
1, 253962, Control_c, 0, 64, 71
1, 253968, Note_on_c, 0, 69, 61
1, 253970, Note_on_c, 0, 42, 57
1, 253977, Control_c, 0, 64, 64
1, 253992, Control_c, 0, 64, 61
1, 254006, Control_c, 0, 64, 62
1, 254006, Control_c, 0, 67, 51
1, 254021, Control_c, 0, 64, 64
1, 254036, Control_c, 0, 64, 65
1, 254051, Control_c, 0, 64, 67
1, 254073, Control_c, 0, 64, 71
1, 254076, Note_off_c, 0, 69, 67
1, 254077, Note_on_c, 0, 48, 62
1, 254088, Control_c, 0, 64, 75
1, 254103, Note_off_c, 0, 42, 56
1, 254103, Control_c, 0, 64, 80
1, 254118, Control_c, 0, 64, 84
1, 254132, Control_c, 0, 64, 85
1, 254144, Note_off_c, 0, 48, 63
1, 254147, Control_c, 0, 64, 86
1, 254162, Control_c, 0, 64, 87
1, 254177, Control_c, 0, 64, 88
1, 254184, Note_on_c, 0, 50, 55
1, 254192, Control_c, 0, 64, 89
1, 254206, Control_c, 0, 64, 89
1, 254221, Control_c, 0, 64, 90
1, 254236, Control_c, 0, 67, 51
1, 254280, Note_on_c, 0, 48, 51
1, 254295, Control_c, 0, 67, 52
1, 254310, Control_c, 0, 67, 52
1, 254318, Note_off_c, 0, 50, 33
1, 254339, Control_c, 0, 67, 53
1, 254354, Note_off_c, 0, 48, 57
1, 254369, Control_c, 0, 67, 53
1, 254372, Note_on_c, 0, 84, 72
1, 254372, Note_on_c, 0, 42, 52
1, 254377, Note_off_c, 0, 81, 59
1, 254387, Note_on_c, 0, 72, 48
1, 254429, Control_c, 0, 67, 54
1, 254478, Note_on_c, 0, 45, 56
1, 254494, Note_off_c, 0, 42, 52
1, 254521, Note_off_c, 0, 72, 64
1, 254533, Note_off_c, 0, 45, 62
1, 254533, Control_c, 0, 67, 53
1, 254573, Note_on_c, 0, 50, 49
1, 254578, Control_c, 0, 67, 53
1, 254593, Control_c, 0, 67, 52
1, 254637, Control_c, 0, 67, 52
1, 254652, Control_c, 0, 67, 51
1, 254658, Note_on_c, 0, 45, 47
1, 254667, Control_c, 0, 64, 90
1, 254697, Note_off_c, 0, 45, 64
1, 254711, Control_c, 0, 64, 90
1, 254726, Control_c, 0, 64, 88
1, 254741, Control_c, 0, 64, 83
1, 254752, Note_off_c, 0, 84, 52
1, 254755, Control_c, 0, 64, 73
1, 254758, Note_off_c, 0, 50, 36
1, 254763, Note_on_c, 0, 43, 52
1, 254770, Control_c, 0, 64, 53
1, 254775, Note_on_c, 0, 70, 58
1, 254778, Note_on_c, 0, 82, 65
1, 254785, Control_c, 0, 64, 0
1, 254785, Control_c, 0, 67, 52
1, 254815, Control_c, 0, 67, 51
1, 254837, Control_c, 0, 67, 52
1, 254852, Control_c, 0, 67, 52
1, 254867, Control_c, 0, 67, 53
1, 254878, Note_on_c, 0, 46, 57
1, 254882, Control_c, 0, 64, 37
1, 254882, Control_c, 0, 67, 53
1, 254897, Control_c, 0, 64, 66
1, 254911, Control_c, 0, 64, 71
1, 254921, Note_off_c, 0, 46, 63
1, 254926, Control_c, 0, 64, 76
1, 254941, Control_c, 0, 64, 80
1, 254955, Control_c, 0, 64, 83
1, 254970, Control_c, 0, 64, 86
1, 254971, Note_off_c, 0, 70, 59
1, 254971, Note_off_c, 0, 82, 57
1, 254985, Control_c, 0, 64, 89
1, 254985, Control_c, 0, 67, 54
1, 254986, Note_on_c, 0, 50, 34
1, 254996, Note_off_c, 0, 43, 22
1, 255000, Control_c, 0, 64, 91
1, 255015, Control_c, 0, 64, 93
1, 255015, Control_c, 0, 67, 55
1, 255029, Control_c, 0, 64, 96
1, 255044, Control_c, 0, 64, 98
1, 255044, Control_c, 0, 67, 55
1, 255059, Control_c, 0, 64, 100
1, 255059, Control_c, 0, 67, 56
1, 255073, Note_on_c, 0, 46, 37
1, 255074, Control_c, 0, 64, 100
1, 255074, Control_c, 0, 67, 58
1, 255088, Control_c, 0, 67, 61
1, 255101, Note_off_c, 0, 50, 54
1, 255102, Control_c, 0, 67, 65
1, 255117, Control_c, 0, 67, 66
1, 255119, Note_off_c, 0, 46, 38
1, 255132, Control_c, 0, 64, 98
1, 255132, Control_c, 0, 67, 69
1, 255147, Control_c, 0, 64, 90
1, 255147, Control_c, 0, 67, 73
1, 255162, Control_c, 0, 64, 74
1, 255162, Control_c, 0, 67, 79
1, 255168, Note_on_c, 0, 81, 68
1, 255177, Control_c, 0, 64, 57
1, 255177, Control_c, 0, 67, 85
1, 255180, Note_on_c, 0, 69, 52
1, 255192, Control_c, 0, 64, 0
1, 255192, Control_c, 0, 67, 88
1, 255193, Note_on_c, 0, 48, 50
1, 255207, Control_c, 0, 67, 89
1, 255222, Control_c, 0, 67, 89
1, 255237, Control_c, 0, 67, 90
1, 255251, Control_c, 0, 67, 90
1, 255266, Control_c, 0, 64, 42
1, 255281, Control_c, 0, 64, 66
1, 255281, Control_c, 0, 67, 89
1, 255296, Control_c, 0, 64, 71
1, 255301, Note_off_c, 0, 48, 59
1, 255311, Control_c, 0, 64, 77
1, 255311, Control_c, 0, 67, 89
1, 255316, Note_on_c, 0, 51, 47
1, 255326, Control_c, 0, 64, 81
1, 255326, Control_c, 0, 67, 89
1, 255341, Control_c, 0, 64, 84
1, 255353, Note_off_c, 0, 51, 61
1, 255356, Control_c, 0, 64, 86
1, 255360, Note_off_c, 0, 69, 56
1, 255369, Note_off_c, 0, 81, 59
1, 255370, Control_c, 0, 64, 88
1, 255385, Control_c, 0, 64, 88
1, 255400, Control_c, 0, 64, 89
1, 255409, Note_on_c, 0, 57, 39
1, 255415, Control_c, 0, 64, 90
1, 255430, Control_c, 0, 64, 90
1, 255430, Control_c, 0, 67, 90
1, 255444, Control_c, 0, 64, 91
1, 255444, Control_c, 0, 67, 90
1, 255459, Control_c, 0, 64, 91
1, 255474, Control_c, 0, 64, 92
1, 255500, Note_on_c, 0, 79, 58
1, 255502, Note_on_c, 0, 67, 49
1, 255504, Control_c, 0, 67, 91
1, 255514, Note_on_c, 0, 51, 45
1, 255518, Control_c, 0, 64, 92
1, 255524, Note_off_c, 0, 67, 59
1, 255533, Control_c, 0, 67, 92
1, 255545, Note_off_c, 0, 51, 60
1, 255548, Control_c, 0, 67, 93
1, 255563, Control_c, 0, 67, 96
1, 255585, Control_c, 0, 67, 98
1, 255600, Control_c, 0, 67, 100
1, 255615, Control_c, 0, 64, 90
1, 255615, Control_c, 0, 67, 100
1, 255628, Note_off_c, 0, 79, 58
1, 255630, Control_c, 0, 64, 83
1, 255630, Control_c, 0, 67, 101
1, 255645, Control_c, 0, 64, 70
1, 255645, Control_c, 0, 67, 102
1, 255648, Note_on_c, 0, 78, 59
1, 255659, Control_c, 0, 64, 54
1, 255659, Control_c, 0, 67, 104
1, 255660, Note_on_c, 0, 66, 51
1, 255668, Note_off_c, 0, 57, 41
1, 255674, Control_c, 0, 64, 0
1, 255674, Control_c, 0, 67, 106
1, 255682, Note_on_c, 0, 50, 39
1, 255689, Control_c, 0, 67, 107
1, 255733, Control_c, 0, 67, 108
1, 255748, Control_c, 0, 64, 11
1, 255748, Control_c, 0, 67, 108
1, 255763, Control_c, 0, 64, 62
1, 255763, Control_c, 0, 67, 111
1, 255777, Control_c, 0, 64, 68
1, 255777, Control_c, 0, 67, 112
1, 255792, Control_c, 0, 64, 73
1, 255806, Note_on_c, 0, 57, 41
1, 255807, Control_c, 0, 64, 78
1, 255822, Control_c, 0, 64, 82
1, 255822, Control_c, 0, 67, 112
1, 255837, Note_off_c, 0, 66, 60
1, 255838, Control_c, 0, 64, 86
1, 255838, Control_c, 0, 67, 113
1, 255852, Control_c, 0, 64, 88
1, 255852, Control_c, 0, 67, 113
1, 255867, Control_c, 0, 64, 90
1, 255867, Control_c, 0, 67, 115
1, 255869, Note_off_c, 0, 57, 60
1, 255871, Note_off_c, 0, 78, 60
1, 255882, Control_c, 0, 64, 91
1, 255882, Control_c, 0, 67, 116
1, 255896, Control_c, 0, 64, 92
1, 255896, Control_c, 0, 67, 117
1, 255911, Control_c, 0, 64, 93
1, 255926, Control_c, 0, 64, 93
1, 255926, Control_c, 0, 67, 118
1, 255934, Note_on_c, 0, 60, 36
1, 255941, Control_c, 0, 67, 120
1, 255956, Control_c, 0, 64, 94
1, 255956, Control_c, 0, 67, 123
1, 255970, Control_c, 0, 67, 126
1, 255971, Note_off_c, 0, 50, 39
1, 255985, Control_c, 0, 67, 127
1, 256004, Note_off_c, 0, 60, 49
1, 256007, Note_on_c, 0, 57, 41
1, 256077, Note_off_c, 0, 57, 53
1, 256098, Note_on_c, 0, 78, 60
1, 256110, Note_on_c, 0, 50, 39
1, 256113, Note_on_c, 0, 66, 44
1, 256193, Control_c, 0, 64, 94
1, 256205, Note_on_c, 0, 57, 46
1, 256223, Control_c, 0, 64, 95
1, 256238, Control_c, 0, 64, 96
1, 256268, Control_c, 0, 64, 96
1, 256268, Note_off_c, 0, 66, 63
1, 256279, Note_off_c, 0, 57, 61
1, 256298, Control_c, 0, 64, 97
1, 256313, Control_c, 0, 64, 98
1, 256336, Note_on_c, 0, 60, 42
1, 256349, Control_c, 0, 64, 98
1, 256364, Control_c, 0, 64, 99
1, 256369, Note_off_c, 0, 50, 37
1, 256379, Control_c, 0, 64, 100
1, 256394, Control_c, 0, 64, 101
1, 256408, Control_c, 0, 64, 101
1, 256409, Note_off_c, 0, 60, 50
1, 256428, Note_on_c, 0, 57, 37
1, 256438, Control_c, 0, 64, 100
1, 256453, Control_c, 0, 64, 95
1, 256468, Control_c, 0, 64, 86
1, 256483, Control_c, 0, 64, 75
1, 256489, Note_off_c, 0, 57, 54
1, 256498, Control_c, 0, 64, 65
1, 256505, Note_on_c, 0, 50, 39
1, 256512, Control_c, 0, 64, 52
1, 256521, Note_on_c, 0, 79, 53
1, 256525, Note_on_c, 0, 67, 47
1, 256527, Control_c, 0, 64, 54
1, 256530, Note_off_c, 0, 78, 53
1, 256542, Control_c, 0, 64, 61
1, 256557, Control_c, 0, 64, 65
1, 256572, Control_c, 0, 64, 69
1, 256587, Control_c, 0, 64, 74
1, 256593, Note_off_c, 0, 67, 63
1, 256601, Control_c, 0, 64, 79
1, 256616, Control_c, 0, 64, 82
1, 256617, Note_on_c, 0, 57, 49
1, 256631, Control_c, 0, 64, 85
1, 256646, Control_c, 0, 64, 87
1, 256661, Control_c, 0, 64, 88
1, 256672, Note_off_c, 0, 57, 58
1, 256675, Control_c, 0, 64, 90
1, 256690, Control_c, 0, 64, 91
1, 256705, Control_c, 0, 64, 93
1, 256719, Control_c, 0, 64, 94
1, 256721, Note_off_c, 0, 50, 33
1, 256732, Note_on_c, 0, 78, 66
1, 256734, Note_on_c, 0, 60, 37
1, 256734, Control_c, 0, 64, 95
1, 256736, Note_on_c, 0, 66, 49
1, 256742, Note_off_c, 0, 79, 54
1, 256749, Control_c, 0, 64, 97
1, 256764, Control_c, 0, 64, 98
1, 256779, Control_c, 0, 64, 98
1, 256795, Control_c, 0, 64, 99
1, 256811, Note_on_c, 0, 57, 40
1, 256811, Note_off_c, 0, 66, 63
1, 256824, Control_c, 0, 64, 100
1, 256850, Note_off_c, 0, 60, 31
1, 256872, Note_off_c, 0, 57, 48
1, 256892, Note_off_c, 0, 78, 60
1, 256927, Note_on_c, 0, 50, 40
1, 256930, Note_on_c, 0, 76, 58
1, 256935, Note_on_c, 0, 64, 45
1, 257019, Note_on_c, 0, 57, 55
1, 257025, Note_off_c, 0, 64, 36
1, 257084, Control_c, 0, 64, 100
1, 257086, Note_off_c, 0, 57, 61
1, 257113, Control_c, 0, 64, 101
1, 257122, Note_on_c, 0, 78, 66
1, 257123, Note_off_c, 0, 76, 62
1, 257128, Control_c, 0, 64, 101
1, 257138, Note_on_c, 0, 66, 44
1, 257143, Control_c, 0, 64, 102
1, 257144, Note_on_c, 0, 60, 44
1, 257172, Control_c, 0, 64, 103
1, 257187, Control_c, 0, 64, 103
1, 257200, Note_off_c, 0, 50, 27
1, 257204, Note_off_c, 0, 66, 65
1, 257217, Control_c, 0, 64, 104
1, 257236, Note_on_c, 0, 57, 42
1, 257252, Note_off_c, 0, 60, 52
1, 257276, Control_c, 0, 64, 103
1, 257290, Note_off_c, 0, 57, 53
1, 257291, Control_c, 0, 64, 99
1, 257305, Control_c, 0, 64, 90
1, 257320, Control_c, 0, 64, 79
1, 257335, Control_c, 0, 64, 65
1, 257338, Note_on_c, 0, 79, 65
1, 257342, Note_off_c, 0, 78, 60
1, 257347, Note_on_c, 0, 67, 38
1, 257350, Control_c, 0, 64, 0
1, 257353, Note_on_c, 0, 55, 41
1, 257439, Control_c, 0, 64, 60
1, 257444, Note_on_c, 0, 58, 57
1, 257445, Note_off_c, 0, 55, 59
1, 257454, Control_c, 0, 64, 66
1, 257469, Control_c, 0, 64, 68
1, 257484, Control_c, 0, 64, 69
1, 257498, Control_c, 0, 64, 69
1, 257513, Control_c, 0, 64, 70
1, 257515, Note_off_c, 0, 58, 64
1, 257542, Control_c, 0, 64, 70
1, 257559, Note_on_c, 0, 55, 49
1, 257572, Control_c, 0, 64, 71
1, 257611, Note_off_c, 0, 55, 51
1, 257647, Control_c, 0, 64, 70
1, 257648, Note_on_c, 0, 50, 56
1, 257662, Control_c, 0, 64, 70
1, 257677, Control_c, 0, 64, 69
1, 257692, Control_c, 0, 64, 67
1, 257707, Control_c, 0, 64, 65
1, 257721, Control_c, 0, 64, 63
1, 257730, Note_off_c, 0, 50, 60
1, 257745, Note_on_c, 0, 46, 50
1, 257824, Note_off_c, 0, 46, 61
1, 257859, Note_on_c, 0, 55, 53
1, 257862, Control_c, 0, 64, 64
1, 257907, Control_c, 0, 64, 64
1, 257931, Note_off_c, 0, 55, 62
1, 257950, Note_on_c, 0, 50, 48
1, 257994, Note_off_c, 0, 50, 63
1, 258025, Control_c, 0, 64, 63
1, 258040, Control_c, 0, 64, 55
1, 258044, Note_on_c, 0, 46, 44
1, 258054, Control_c, 0, 64, 0
1, 258100, Note_off_c, 0, 46, 58
1, 258128, Control_c, 0, 67, 120
1, 258143, Control_c, 0, 67, 107
1, 258158, Control_c, 0, 67, 95
1, 258167, Note_off_c, 0, 67, 40
1, 258173, Control_c, 0, 67, 82
1, 258175, Note_on_c, 0, 43, 49
1, 258182, Note_off_c, 0, 79, 57
1, 258188, Control_c, 0, 67, 65
1, 258203, Control_c, 0, 67, 40
1, 258217, Control_c, 0, 67, 10
1, 258232, Control_c, 0, 67, 0
1, 258277, Control_c, 0, 64, 64
1, 258289, Note_off_c, 0, 43, 62
1, 258291, Control_c, 0, 64, 64
1, 258306, Control_c, 0, 64, 0
1, 258334, Note_on_c, 0, 67, 85
1, 258423, Note_on_c, 0, 70, 87
1, 258426, Note_off_c, 0, 67, 60
1, 258512, Note_on_c, 0, 74, 87
1, 258533, Note_off_c, 0, 70, 62
1, 258605, Note_on_c, 0, 55, 99
1, 258608, Note_on_c, 0, 43, 90
1, 258608, Note_on_c, 0, 79, 96
1, 258611, Control_c, 0, 64, 90
1, 258618, Note_off_c, 0, 74, 66
1, 258626, Control_c, 0, 64, 127
1, 258630, Note_off_c, 0, 55, 66
1, 258633, Note_off_c, 0, 43, 67
1, 258638, Note_on_c, 0, 75, 41
1, 258711, Note_on_c, 0, 70, 88
1, 258714, Note_off_c, 0, 75, 34
1, 258714, Note_off_c, 0, 79, 61
1, 258806, Note_on_c, 0, 74, 88
1, 258816, Note_off_c, 0, 70, 64
1, 258879, Note_on_c, 0, 58, 94
1, 258882, Note_on_c, 0, 46, 92
1, 258884, Note_on_c, 0, 79, 97
1, 258896, Note_off_c, 0, 74, 68
1, 258908, Note_off_c, 0, 46, 68
1, 258916, Note_off_c, 0, 58, 61
1, 258918, Note_off_c, 0, 79, 67
1, 258951, Control_c, 0, 64, 102
1, 258966, Control_c, 0, 64, 68
1, 258981, Control_c, 0, 64, 0
1, 258982, Note_on_c, 0, 62, 106
1, 258986, Note_on_c, 0, 50, 106
1, 259189, Note_on_c, 0, 78, 108
1, 259192, Note_on_c, 0, 74, 98
1, 259193, Note_on_c, 0, 69, 96
1, 259225, Note_off_c, 0, 69, 69
1, 259233, Control_c, 0, 64, 23
1, 259234, Note_off_c, 0, 74, 69
1, 259244, Note_off_c, 0, 78, 71
1, 259248, Control_c, 0, 64, 39
1, 259263, Control_c, 0, 64, 60
1, 259269, Note_off_c, 0, 62, 63
1, 259277, Note_off_c, 0, 50, 65
1, 259278, Control_c, 0, 64, 65
1, 259307, Control_c, 0, 64, 64
1, 259329, Control_c, 0, 64, 62
1, 259344, Control_c, 0, 64, 61
1, 259359, Control_c, 0, 64, 59
1, 259374, Control_c, 0, 64, 53
1, 259389, Control_c, 0, 64, 31
1, 259398, Note_on_c, 0, 50, 98
1, 259398, Note_on_c, 0, 62, 105
1, 259404, Control_c, 0, 64, 0
1, 259584, Note_on_c, 0, 81, 100
1, 259585, Note_on_c, 0, 74, 103
1, 259587, Note_on_c, 0, 72, 100
1, 259621, Note_off_c, 0, 72, 66
1, 259621, Note_off_c, 0, 81, 67
1, 259626, Note_off_c, 0, 74, 70
1, 259685, Note_off_c, 0, 62, 57
1, 259700, Note_off_c, 0, 50, 59
1, 259783, Note_on_c, 0, 62, 99
1, 259788, Note_on_c, 0, 50, 99
1, 259971, Note_on_c, 0, 70, 102
1, 259973, Note_on_c, 0, 74, 97
1, 259974, Note_on_c, 0, 79, 97
1, 260003, Note_off_c, 0, 70, 65
1, 260004, Note_off_c, 0, 79, 64
1, 260017, Note_off_c, 0, 74, 71
1, 260083, Note_off_c, 0, 50, 59
1, 260084, Note_off_c, 0, 62, 59
1, 260186, Note_on_c, 0, 62, 111
1, 260190, Note_on_c, 0, 50, 102
1, 260374, Note_on_c, 0, 74, 98
1, 260376, Note_on_c, 0, 69, 99
1, 260376, Note_on_c, 0, 78, 104
1, 260408, Note_off_c, 0, 69, 69
1, 260413, Note_off_c, 0, 74, 70
1, 260423, Note_off_c, 0, 78, 71
1, 260434, Note_off_c, 0, 50, 59
1, 260446, Note_off_c, 0, 62, 64
1, 260584, Note_on_c, 0, 63, 115
1, 260588, Note_on_c, 0, 51, 109
1, 260765, Note_on_c, 0, 74, 93
1, 260766, Note_on_c, 0, 67, 102
1, 260768, Note_on_c, 0, 79, 94
1, 260803, Note_off_c, 0, 74, 67
1, 260817, Note_off_c, 0, 67, 60
1, 260826, Note_off_c, 0, 79, 61
1, 260976, Note_on_c, 0, 79, 99
1, 260978, Note_on_c, 0, 67, 93
1, 260978, Note_on_c, 0, 72, 93
1, 260996, Note_off_c, 0, 67, 70
1, 261008, Note_off_c, 0, 72, 65
1, 261026, Note_off_c, 0, 79, 66
1, 261157, Note_on_c, 0, 73, 103
1, 261157, Note_on_c, 0, 85, 103
1, 261160, Note_on_c, 0, 79, 101
1, 261189, Note_off_c, 0, 73, 61
1, 261195, Note_off_c, 0, 85, 66
1, 261198, Note_off_c, 0, 79, 66
1, 261252, Note_off_c, 0, 63, 62
1, 261260, Note_off_c, 0, 51, 56
1, 261305, Note_on_c, 0, 58, 3
1, 261315, Note_off_c, 0, 58, 49
1, 261358, Note_on_c, 0, 62, 96
1, 261362, Note_on_c, 0, 50, 101
1, 261543, Note_on_c, 0, 81, 99
1, 261544, Note_on_c, 0, 86, 93
1, 261544, Note_on_c, 0, 79, 97
1, 261547, Note_on_c, 0, 74, 92
1, 261577, Note_off_c, 0, 79, 64
1, 261596, Note_off_c, 0, 81, 61
1, 261598, Note_off_c, 0, 74, 62
1, 261611, Note_off_c, 0, 86, 60
1, 261755, Note_on_c, 0, 74, 97
1, 261756, Note_on_c, 0, 81, 87
1, 261756, Note_on_c, 0, 86, 96
1, 261759, Note_on_c, 0, 78, 95
1, 261786, Note_off_c, 0, 86, 69
1, 261789, Note_off_c, 0, 81, 65
1, 261801, Note_off_c, 0, 78, 65
1, 261804, Note_off_c, 0, 74, 63
1, 261946, Note_on_c, 0, 74, 93
1, 261947, Note_on_c, 0, 69, 98
1, 261950, Note_on_c, 0, 66, 93
1, 261972, Note_off_c, 0, 66, 66
1, 261977, Note_off_c, 0, 69, 70
1, 261979, Note_off_c, 0, 74, 67
1, 261999, Note_off_c, 0, 62, 59
1, 262024, Note_off_c, 0, 50, 61
1, 262148, Note_on_c, 0, 60, 104
1, 262150, Note_on_c, 0, 48, 97
1, 262333, Note_on_c, 0, 70, 95
1, 262336, Note_on_c, 0, 75, 91
1, 262337, Note_on_c, 0, 63, 95
1, 262375, Note_off_c, 0, 70, 62
1, 262391, Note_off_c, 0, 63, 60
1, 262404, Note_off_c, 0, 75, 60
1, 262534, Note_on_c, 0, 69, 98
1, 262536, Note_on_c, 0, 63, 97
1, 262536, Note_on_c, 0, 75, 95
1, 262561, Note_off_c, 0, 63, 68
1, 262564, Note_off_c, 0, 69, 70
1, 262591, Note_off_c, 0, 75, 66
1, 262722, Note_on_c, 0, 81, 103
1, 262723, Note_on_c, 0, 69, 98
1, 262724, Note_on_c, 0, 75, 96
1, 262747, Note_off_c, 0, 69, 69
1, 262750, Note_off_c, 0, 75, 65
1, 262753, Note_off_c, 0, 81, 61
1, 262766, Note_off_c, 0, 60, 62
1, 262773, Note_off_c, 0, 48, 65
1, 262923, Note_on_c, 0, 58, 104
1, 262927, Note_on_c, 0, 46, 101
1, 263108, Note_on_c, 0, 77, 90
1, 263111, Note_on_c, 0, 70, 97
1, 263111, Note_on_c, 0, 82, 86
1, 263113, Note_on_c, 0, 75, 85
1, 263138, Note_off_c, 0, 75, 65
1, 263151, Note_off_c, 0, 77, 61
1, 263153, Note_off_c, 0, 70, 59
1, 263166, Note_off_c, 0, 82, 62
1, 263313, Note_on_c, 0, 70, 97
1, 263314, Note_on_c, 0, 74, 89
1, 263314, Note_on_c, 0, 82, 98
1, 263320, Note_on_c, 0, 77, 70
1, 263344, Note_off_c, 0, 77, 68
1, 263347, Note_off_c, 0, 74, 67
1, 263347, Note_off_c, 0, 82, 66
1, 263363, Note_off_c, 0, 70, 60
1, 263501, Note_on_c, 0, 65, 96
1, 263501, Note_on_c, 0, 70, 96
1, 263504, Note_on_c, 0, 62, 86
1, 263524, Note_off_c, 0, 62, 69
1, 263529, Note_off_c, 0, 65, 68
1, 263543, Note_off_c, 0, 70, 61
1, 263580, Note_off_c, 0, 58, 61
1, 263600, Note_off_c, 0, 46, 61
1, 263702, Note_on_c, 0, 57, 99
1, 263705, Note_on_c, 0, 45, 100
1, 263905, Note_on_c, 0, 72, 90
1, 263907, Note_on_c, 0, 67, 93
1, 263908, Note_on_c, 0, 63, 93
1, 263935, Note_off_c, 0, 63, 65
1, 263942, Note_off_c, 0, 72, 67
1, 263942, Note_off_c, 0, 67, 65
1, 263956, Control_c, 0, 64, 48
1, 263971, Control_c, 0, 64, 53
1, 263986, Control_c, 0, 64, 50
1, 264001, Control_c, 0, 64, 49
1, 264005, Note_off_c, 0, 45, 65
1, 264013, Note_off_c, 0, 57, 63
1, 264015, Control_c, 0, 64, 48
1, 264030, Control_c, 0, 64, 47
1, 264045, Control_c, 0, 64, 41
1, 264060, Control_c, 0, 64, 16
1, 264075, Control_c, 0, 64, 0
1, 264101, Note_on_c, 0, 60, 99
1, 264102, Note_on_c, 0, 48, 99
1, 264288, Note_on_c, 0, 75, 96
1, 264289, Note_on_c, 0, 69, 100
1, 264290, Note_on_c, 0, 66, 98
1, 264324, Note_off_c, 0, 69, 67
1, 264325, Note_off_c, 0, 66, 63
1, 264328, Note_off_c, 0, 75, 68
1, 264425, Note_off_c, 0, 60, 63
1, 264427, Note_off_c, 0, 48, 68
1, 264430, Control_c, 0, 64, 23
1, 264445, Control_c, 0, 64, 27
1, 264454, Note_on_c, 0, 51, 32
1, 264460, Control_c, 0, 64, 11
1, 264474, Control_c, 0, 64, 0
1, 264488, Note_off_c, 0, 51, 32
1, 264495, Note_on_c, 0, 58, 107
1, 264500, Note_on_c, 0, 46, 107
1, 264692, Note_on_c, 0, 74, 92
1, 264695, Note_on_c, 0, 70, 97
1, 264695, Note_on_c, 0, 67, 95
1, 264724, Note_off_c, 0, 67, 66
1, 264725, Note_off_c, 0, 74, 70
1, 264732, Note_off_c, 0, 70, 65
1, 264837, Note_off_c, 0, 58, 64
1, 264858, Note_off_c, 0, 46, 63
1, 264894, Note_on_c, 0, 57, 101
1, 264896, Note_on_c, 0, 45, 101
1, 265077, Note_on_c, 0, 78, 103
1, 265078, Note_on_c, 0, 72, 91
1, 265080, Note_on_c, 0, 74, 92
1, 265100, Note_off_c, 0, 74, 67
1, 265106, Note_off_c, 0, 72, 68
1, 265114, Note_on_c, 0, 77, 39
1, 265114, Note_off_c, 0, 78, 72
1, 265145, Note_off_c, 0, 77, 36
1, 265196, Note_off_c, 0, 57, 60
1, 265221, Note_off_c, 0, 45, 64
1, 265280, Note_on_c, 0, 55, 105
1, 265282, Note_on_c, 0, 43, 104
1, 265479, Note_on_c, 0, 79, 96
1, 265479, Note_on_c, 0, 74, 93
1, 265480, Note_on_c, 0, 70, 93
1, 265509, Note_off_c, 0, 74, 72
1, 265509, Note_off_c, 0, 70, 63
1, 265514, Note_off_c, 0, 79, 65
1, 265673, Note_on_c, 0, 74, 100
1, 265674, Note_on_c, 0, 62, 102
1, 265675, Note_on_c, 0, 70, 92
1, 265711, Note_off_c, 0, 70, 60
1, 265713, Note_off_c, 0, 62, 61
1, 265736, Note_off_c, 0, 74, 54
1, 265871, Note_on_c, 0, 72, 96
1, 265874, Note_on_c, 0, 62, 93
1, 265875, Note_on_c, 0, 69, 88
1, 265908, Note_off_c, 0, 69, 69
1, 265913, Note_off_c, 0, 62, 60
1, 265917, Note_off_c, 0, 72, 67
1, 266069, Note_on_c, 0, 67, 96
1, 266069, Note_on_c, 0, 70, 96
1, 266071, Note_on_c, 0, 62, 95
1, 266100, Note_off_c, 0, 67, 67
1, 266102, Note_off_c, 0, 62, 62
1, 266116, Note_off_c, 0, 70, 66
1, 266268, Note_on_c, 0, 74, 99
1, 266269, Note_on_c, 0, 67, 91
1, 266273, Note_on_c, 0, 70, 87
1, 266297, Note_off_c, 0, 70, 63
1, 266301, Note_off_c, 0, 67, 65
1, 266306, Note_off_c, 0, 74, 65
1, 266398, Note_off_c, 0, 55, 61
1, 266404, Note_off_c, 0, 43, 56
1, 266471, Note_on_c, 0, 79, 100
1, 266472, Note_on_c, 0, 74, 86
1, 266476, Note_on_c, 0, 70, 96
1, 266478, Note_on_c, 0, 55, 99
1, 266484, Note_on_c, 0, 43, 86
1, 266484, Control_c, 0, 64, 81
1, 266499, Control_c, 0, 64, 127
1, 266503, Note_off_c, 0, 55, 66
1, 266507, Note_off_c, 0, 43, 65
1, 266541, Note_off_c, 0, 79, 56
1, 266549, Note_off_c, 0, 74, 61
1, 266559, Note_off_c, 0, 70, 56
1, 266696, Note_on_c, 0, 74, 95
1, 266698, Note_on_c, 0, 67, 90
1, 266698, Note_on_c, 0, 70, 87
1, 266738, Note_off_c, 0, 74, 71
1, 266740, Note_off_c, 0, 70, 60
1, 266745, Note_off_c, 0, 67, 63
1, 266771, Note_on_c, 0, 58, 100
1, 266776, Note_on_c, 0, 46, 100
1, 266799, Note_off_c, 0, 46, 68
1, 266811, Note_off_c, 0, 58, 69
1, 266847, Control_c, 0, 64, 91
1, 266862, Control_c, 0, 64, 26
1, 266875, Note_on_c, 0, 62, 112
1, 266877, Control_c, 0, 64, 0
1, 266879, Note_on_c, 0, 50, 100
1, 267089, Note_on_c, 0, 74, 97
1, 267091, Note_on_c, 0, 69, 104
1, 267092, Note_on_c, 0, 66, 101
1, 267123, Note_off_c, 0, 66, 68
1, 267126, Note_off_c, 0, 74, 68
1, 267128, Note_off_c, 0, 69, 72
1, 267193, Note_off_c, 0, 62, 60
1, 267193, Note_off_c, 0, 50, 62
1, 267285, Note_on_c, 0, 62, 104
1, 267288, Note_on_c, 0, 50, 102
1, 267473, Note_on_c, 0, 81, 100
1, 267474, Note_on_c, 0, 74, 102
1, 267476, Note_on_c, 0, 72, 100
1, 267509, Note_off_c, 0, 72, 66
1, 267509, Note_off_c, 0, 81, 65
1, 267515, Note_off_c, 0, 74, 70
1, 267580, Note_off_c, 0, 50, 59
1, 267583, Note_off_c, 0, 62, 57
1, 267678, Note_on_c, 0, 62, 101
1, 267680, Note_on_c, 0, 50, 101
1, 267864, Note_on_c, 0, 79, 103
1, 267865, Note_on_c, 0, 74, 98
1, 267866, Note_on_c, 0, 70, 101
1, 267891, Note_off_c, 0, 70, 64
1, 267893, Note_off_c, 0, 79, 67
1, 267902, Note_off_c, 0, 74, 72
1, 267978, Note_off_c, 0, 50, 57
1, 267980, Note_off_c, 0, 62, 58
1, 268069, Note_on_c, 0, 62, 110
1, 268073, Note_on_c, 0, 50, 101
1, 268262, Note_on_c, 0, 74, 96
1, 268263, Note_on_c, 0, 69, 96
1, 268264, Note_on_c, 0, 78, 97
1, 268302, Note_off_c, 0, 69, 68
1, 268306, Note_off_c, 0, 74, 66
1, 268323, Note_off_c, 0, 78, 68
1, 268408, Note_off_c, 0, 62, 65
1, 268420, Control_c, 0, 64, 49
1, 268426, Note_off_c, 0, 50, 63
1, 268435, Control_c, 0, 64, 0
1, 268498, Note_on_c, 0, 63, 110
1, 268500, Note_on_c, 0, 51, 106
1, 268533, Note_on_c, 0, 50, 51
1, 268562, Note_off_c, 0, 50, 37
1, 268689, Note_on_c, 0, 74, 92
1, 268690, Note_on_c, 0, 67, 100
1, 268692, Note_on_c, 0, 79, 91
1, 268723, Note_off_c, 0, 74, 69
1, 268729, Note_off_c, 0, 67, 62
1, 268741, Note_off_c, 0, 79, 60
1, 268888, Note_on_c, 0, 72, 96
1, 268889, Note_on_c, 0, 67, 100
1, 268889, Note_on_c, 0, 79, 98
1, 268916, Note_off_c, 0, 67, 66
1, 268918, Note_off_c, 0, 72, 70
1, 268934, Note_off_c, 0, 79, 66
1, 269083, Note_on_c, 0, 79, 102
1, 269083, Note_on_c, 0, 73, 99
1, 269083, Note_on_c, 0, 85, 101
1, 269120, Note_off_c, 0, 73, 58
1, 269125, Note_off_c, 0, 85, 64
1, 269128, Note_off_c, 0, 79, 64
1, 269202, Note_off_c, 0, 63, 62
1, 269212, Note_off_c, 0, 51, 62
1, 269289, Note_on_c, 0, 62, 101
1, 269295, Note_on_c, 0, 50, 99
1, 269471, Note_on_c, 0, 79, 93
1, 269474, Note_on_c, 0, 81, 93
1, 269474, Note_on_c, 0, 86, 92
1, 269476, Note_on_c, 0, 74, 93
1, 269496, Note_off_c, 0, 79, 65
1, 269508, Note_off_c, 0, 81, 64
1, 269515, Note_off_c, 0, 74, 63
1, 269528, Note_off_c, 0, 86, 62
1, 269678, Note_on_c, 0, 81, 94
1, 269679, Note_on_c, 0, 74, 99
1, 269681, Note_on_c, 0, 86, 98
1, 269682, Note_on_c, 0, 77, 95
1, 269709, Note_off_c, 0, 86, 68
1, 269722, Note_off_c, 0, 81, 64
1, 269724, Note_off_c, 0, 74, 63
1, 269730, Note_off_c, 0, 77, 64
1, 269888, Note_on_c, 0, 69, 98
1, 269888, Note_on_c, 0, 74, 102
1, 269891, Note_on_c, 0, 65, 95
1, 269910, Note_off_c, 0, 65, 72
1, 269912, Note_off_c, 0, 69, 68
1, 269917, Note_off_c, 0, 74, 69
1, 269959, Note_off_c, 0, 62, 58
1, 269989, Note_off_c, 0, 50, 62
1, 270088, Note_on_c, 0, 60, 97
1, 270090, Note_on_c, 0, 48, 97
1, 270268, Note_on_c, 0, 70, 94
1, 270271, Note_on_c, 0, 75, 90
1, 270273, Note_on_c, 0, 63, 90
1, 270310, Note_off_c, 0, 70, 61
1, 270320, Note_off_c, 0, 63, 50
1, 270335, Note_off_c, 0, 75, 56
1, 270464, Note_on_c, 0, 69, 96
1, 270466, Note_on_c, 0, 63, 90
1, 270466, Note_on_c, 0, 75, 95
1, 270489, Note_off_c, 0, 63, 69
1, 270495, Note_off_c, 0, 69, 71
1, 270520, Note_off_c, 0, 75, 67
1, 270657, Note_on_c, 0, 81, 98
1, 270657, Note_on_c, 0, 69, 98
1, 270657, Note_on_c, 0, 75, 98
1, 270684, Note_off_c, 0, 69, 71
1, 270690, Note_off_c, 0, 81, 60
1, 270704, Note_off_c, 0, 75, 62
1, 270707, Note_off_c, 0, 60, 63
1, 270722, Note_off_c, 0, 48, 64
1, 270858, Note_on_c, 0, 58, 100
1, 270862, Note_on_c, 0, 46, 99
1, 271029, Note_on_c, 0, 77, 91
1, 271031, Note_on_c, 0, 70, 96
1, 271032, Note_on_c, 0, 82, 89
1, 271037, Note_on_c, 0, 75, 78
1, 271059, Note_off_c, 0, 75, 70
1, 271071, Note_off_c, 0, 70, 60
1, 271081, Note_off_c, 0, 77, 58
1, 271087, Note_off_c, 0, 82, 62
1, 271227, Note_on_c, 0, 82, 91
1, 271230, Control_c, 0, 64, 30
1, 271231, Note_on_c, 0, 70, 93
1, 271231, Note_on_c, 0, 74, 84
1, 271244, Note_on_c, 0, 77, 63
1, 271245, Control_c, 0, 64, 40
1, 271260, Control_c, 0, 64, 49
1, 271262, Note_off_c, 0, 77, 63
1, 271263, Note_off_c, 0, 74, 66
1, 271264, Note_off_c, 0, 70, 61
1, 271268, Note_off_c, 0, 82, 65
1, 271274, Control_c, 0, 64, 59
1, 271289, Control_c, 0, 64, 64
1, 271312, Control_c, 0, 64, 64
1, 271322, Note_off_c, 0, 58, 63
1, 271326, Control_c, 0, 64, 63
1, 271327, Note_off_c, 0, 46, 60
1, 271341, Control_c, 0, 64, 57
1, 271356, Control_c, 0, 64, 28
1, 271371, Control_c, 0, 64, 0
1, 271413, Note_on_c, 0, 57, 94
1, 271417, Note_on_c, 0, 45, 91
1, 271421, Note_on_c, 0, 72, 91
1, 271423, Note_on_c, 0, 65, 94
1, 271453, Note_off_c, 0, 72, 68
1, 271456, Note_off_c, 0, 65, 67
1, 271504, Control_c, 0, 64, 25
1, 271519, Control_c, 0, 64, 51
1, 271529, Note_off_c, 0, 57, 62
1, 271533, Control_c, 0, 64, 63
1, 271548, Control_c, 0, 64, 68
1, 271558, Note_off_c, 0, 45, 65
1, 271563, Control_c, 0, 64, 71
1, 271578, Control_c, 0, 64, 69
1, 271593, Control_c, 0, 64, 62
1, 271608, Control_c, 0, 64, 0
1, 271623, Note_on_c, 0, 43, 97
1, 271625, Note_on_c, 0, 55, 96
1, 271771, Control_c, 0, 64, 67
1, 271786, Control_c, 0, 64, 79
1, 271789, Note_off_c, 0, 43, 62
1, 271800, Control_c, 0, 64, 88
1, 271815, Control_c, 0, 64, 89
1, 271816, Note_on_c, 0, 63, 97
1, 271817, Note_on_c, 0, 70, 92
1, 271818, Note_on_c, 0, 75, 93
1, 271819, Note_off_c, 0, 55, 63
1, 271844, Control_c, 0, 64, 91
1, 271857, Note_off_c, 0, 63, 65
1, 271859, Control_c, 0, 64, 95
1, 271873, Note_off_c, 0, 70, 61
1, 271874, Control_c, 0, 64, 100
1, 271882, Note_off_c, 0, 75, 60
1, 271889, Control_c, 0, 64, 103
1, 271904, Control_c, 0, 64, 104
1, 271963, Control_c, 0, 64, 104
1, 271994, Control_c, 0, 64, 104
1, 272009, Control_c, 0, 64, 99
1, 272023, Control_c, 0, 64, 91
1, 272038, Control_c, 0, 64, 80
1, 272050, Note_on_c, 0, 63, 113
1, 272058, Note_on_c, 0, 51, 99
1, 272061, Control_c, 0, 64, 68
1, 272075, Control_c, 0, 64, 52
1, 272090, Control_c, 0, 64, 0
1, 272238, Control_c, 0, 64, 59
1, 272253, Control_c, 0, 64, 65
1, 272255, Note_on_c, 0, 72, 85
1, 272263, Note_on_c, 0, 67, 72
1, 272264, Note_on_c, 0, 70, 73
1, 272268, Control_c, 0, 64, 66
1, 272282, Control_c, 0, 64, 68
1, 272287, Note_off_c, 0, 70, 68
1, 272293, Note_off_c, 0, 67, 63
1, 272295, Note_off_c, 0, 72, 65
1, 272297, Control_c, 0, 64, 72
1, 272313, Control_c, 0, 64, 77
1, 272328, Control_c, 0, 64, 81
1, 272417, Control_c, 0, 64, 80
1, 272419, Note_off_c, 0, 51, 61
1, 272421, Note_off_c, 0, 63, 61
1, 272431, Control_c, 0, 64, 76
1, 272446, Control_c, 0, 64, 68
1, 272449, Note_on_c, 0, 62, 97
1, 272454, Note_on_c, 0, 50, 89
1, 272461, Control_c, 0, 64, 52
1, 272475, Control_c, 0, 64, 0
1, 272624, Control_c, 0, 64, 48
1, 272633, Note_on_c, 0, 77, 96
1, 272636, Note_on_c, 0, 70, 93
1, 272637, Note_on_c, 0, 65, 91
1, 272639, Control_c, 0, 64, 59
1, 272654, Control_c, 0, 64, 63
1, 272664, Note_off_c, 0, 65, 67
1, 272668, Note_off_c, 0, 70, 66
1, 272668, Control_c, 0, 64, 63
1, 272675, Note_off_c, 0, 77, 66
1, 272698, Control_c, 0, 64, 64
1, 272713, Control_c, 0, 64, 64
1, 272728, Control_c, 0, 64, 65
1, 272735, Note_off_c, 0, 62, 61
1, 272742, Control_c, 0, 64, 66
1, 272752, Note_off_c, 0, 50, 64
1, 272757, Control_c, 0, 64, 66
1, 272795, Control_c, 0, 64, 66
1, 272810, Control_c, 0, 64, 64
1, 272825, Control_c, 0, 64, 57
1, 272840, Note_on_c, 0, 60, 96
1, 272840, Control_c, 0, 64, 0
1, 272841, Note_on_c, 0, 48, 92
1, 273030, Note_on_c, 0, 81, 89
1, 273033, Note_on_c, 0, 69, 90
1, 273034, Note_on_c, 0, 75, 84
1, 273034, Note_on_c, 0, 77, 88
1, 273053, Note_off_c, 0, 75, 73
1, 273054, Note_off_c, 0, 69, 69
1, 273060, Control_c, 0, 64, 65
1, 273062, Note_off_c, 0, 81, 65
1, 273065, Note_off_c, 0, 77, 64
1, 273075, Control_c, 0, 64, 67
1, 273090, Control_c, 0, 64, 68
1, 273104, Control_c, 0, 64, 68
1, 273119, Control_c, 0, 64, 70
1, 273124, Note_off_c, 0, 48, 64
1, 273134, Note_off_c, 0, 60, 62
1, 273134, Control_c, 0, 64, 72
1, 273149, Control_c, 0, 64, 74
1, 273164, Control_c, 0, 64, 74
1, 273179, Control_c, 0, 64, 74
1, 273194, Control_c, 0, 64, 71
1, 273208, Control_c, 0, 64, 66
1, 273223, Control_c, 0, 64, 49
1, 273238, Control_c, 0, 64, 0
1, 273242, Note_on_c, 0, 58, 93
1, 273249, Note_on_c, 0, 46, 84
1, 273437, Note_on_c, 0, 77, 77
1, 273439, Note_on_c, 0, 70, 83
1, 273439, Note_on_c, 0, 82, 79
1, 273442, Note_on_c, 0, 75, 73
1, 273467, Note_off_c, 0, 75, 70
1, 273477, Note_off_c, 0, 77, 62
1, 273496, Note_off_c, 0, 82, 61
1, 273501, Note_off_c, 0, 70, 44
1, 273652, Note_on_c, 0, 70, 82
1, 273654, Note_on_c, 0, 82, 83
1, 273655, Note_on_c, 0, 77, 78
1, 273659, Note_on_c, 0, 74, 71
1, 273679, Note_off_c, 0, 74, 71
1, 273690, Note_off_c, 0, 77, 62
1, 273697, Note_off_c, 0, 70, 62
1, 273700, Note_off_c, 0, 82, 62
1, 273857, Note_on_c, 0, 77, 75
1, 273861, Note_on_c, 0, 70, 74
1, 273870, Note_on_c, 0, 74, 59
1, 273887, Note_off_c, 0, 70, 66
1, 273895, Note_off_c, 0, 74, 66
1, 273903, Note_off_c, 0, 77, 60
1, 274073, Note_on_c, 0, 74, 72
1, 274080, Note_on_c, 0, 65, 60
1, 274082, Note_on_c, 0, 70, 56
1, 274102, Note_off_c, 0, 70, 62
1, 274103, Note_off_c, 0, 74, 61
1, 274116, Note_off_c, 0, 65, 66
1, 274326, Note_on_c, 0, 70, 63
1, 274345, Note_on_c, 0, 62, 51
1, 274347, Note_on_c, 0, 65, 46
1, 274374, Note_off_c, 0, 65, 59
1, 274389, Note_off_c, 0, 62, 62
1, 274395, Control_c, 0, 64, 39
1, 274399, Note_off_c, 0, 70, 62
1, 274410, Control_c, 0, 64, 54
1, 274425, Control_c, 0, 64, 60
1, 274440, Control_c, 0, 64, 63
1, 274454, Control_c, 0, 64, 64
1, 274469, Control_c, 0, 64, 65
1, 274484, Control_c, 0, 64, 65
1, 274499, Control_c, 0, 64, 66
1, 274513, Note_off_c, 0, 58, 63
1, 274543, Control_c, 0, 64, 67
1, 274558, Control_c, 0, 64, 68
1, 274573, Control_c, 0, 64, 68
1, 274588, Control_c, 0, 64, 69
1, 274617, Control_c, 0, 64, 68
1, 274625, Note_off_c, 0, 46, 58
1, 274632, Control_c, 0, 64, 67
1, 274647, Control_c, 0, 64, 65
1, 274660, Note_on_c, 0, 70, 65
1, 274662, Control_c, 0, 64, 63
1, 274665, Note_on_c, 0, 58, 46
1, 274676, Control_c, 0, 64, 57
1, 274691, Control_c, 0, 64, 50
1, 274706, Control_c, 0, 64, 45
1, 274736, Control_c, 0, 64, 48
1, 274750, Control_c, 0, 64, 54
1, 274765, Control_c, 0, 64, 61
1, 274780, Control_c, 0, 64, 66
1, 274795, Control_c, 0, 64, 70
1, 274810, Control_c, 0, 64, 75
1, 274824, Control_c, 0, 64, 81
1, 274833, Note_off_c, 0, 58, 64
1, 274839, Control_c, 0, 64, 84
1, 274854, Control_c, 0, 64, 87
1, 274869, Control_c, 0, 64, 88
1, 274884, Control_c, 0, 64, 89
1, 274899, Control_c, 0, 64, 89
1, 274928, Control_c, 0, 64, 90
1, 275042, Note_on_c, 0, 74, 59
1, 275053, Note_off_c, 0, 70, 64
1, 275074, Note_on_c, 0, 62, 18
1, 275119, Note_off_c, 0, 62, 40
1, 275247, Control_c, 0, 64, 89
1, 275262, Control_c, 0, 64, 87
1, 275277, Control_c, 0, 64, 84
1, 275281, Note_on_c, 0, 77, 68
1, 275288, Note_off_c, 0, 74, 66
1, 275292, Control_c, 0, 64, 79
1, 275297, Note_on_c, 0, 65, 48
1, 275307, Note_on_c, 0, 46, 43
1, 275307, Control_c, 0, 64, 73
1, 275322, Control_c, 0, 64, 66
1, 275337, Control_c, 0, 64, 56
1, 275352, Control_c, 0, 64, 39
1, 275366, Control_c, 0, 64, 38
1, 275381, Control_c, 0, 64, 43
1, 275396, Control_c, 0, 64, 46
1, 275411, Control_c, 0, 64, 50
1, 275426, Control_c, 0, 64, 56
1, 275440, Control_c, 0, 64, 62
1, 275455, Control_c, 0, 64, 66
1, 275470, Control_c, 0, 64, 70
1, 275471, Note_on_c, 0, 50, 45
1, 275485, Control_c, 0, 64, 75
1, 275499, Control_c, 0, 64, 79
1, 275514, Control_c, 0, 64, 82
1, 275529, Control_c, 0, 64, 84
1, 275544, Control_c, 0, 64, 85
1, 275551, Note_off_c, 0, 50, 56
1, 275557, Note_off_c, 0, 77, 62
1, 275559, Control_c, 0, 64, 86
1, 275573, Control_c, 0, 64, 87
1, 275581, Note_off_c, 0, 46, 34
1, 275588, Control_c, 0, 64, 88
1, 275596, Note_on_c, 0, 53, 37
1, 275603, Control_c, 0, 64, 89
1, 275611, Note_off_c, 0, 65, 56
1, 275618, Control_c, 0, 64, 89
1, 275632, Control_c, 0, 64, 90
1, 275647, Control_c, 0, 64, 90
1, 275662, Control_c, 0, 64, 91
1, 275671, Note_off_c, 0, 53, 54
1, 275677, Control_c, 0, 64, 91
1, 275711, Note_on_c, 0, 50, 33
1, 275736, Control_c, 0, 64, 90
1, 275751, Control_c, 0, 64, 88
1, 275763, Note_on_c, 0, 77, 74
1, 275766, Control_c, 0, 64, 83
1, 275775, Note_off_c, 0, 50, 42
1, 275775, Note_on_c, 0, 65, 55
1, 275781, Control_c, 0, 64, 77
1, 275793, Note_on_c, 0, 46, 52
1, 275803, Control_c, 0, 64, 70
1, 275817, Control_c, 0, 64, 64
1, 275832, Control_c, 0, 64, 62
1, 275847, Control_c, 0, 64, 63
1, 275862, Control_c, 0, 64, 66
1, 275877, Control_c, 0, 64, 68
1, 275891, Control_c, 0, 64, 71
1, 275906, Control_c, 0, 64, 75
1, 275917, Note_on_c, 0, 50, 50
1, 275921, Control_c, 0, 64, 79
1, 275936, Control_c, 0, 64, 82
1, 275951, Control_c, 0, 64, 84
1, 275967, Control_c, 0, 64, 85
1, 275978, Note_off_c, 0, 65, 53
1, 275982, Control_c, 0, 64, 86
1, 275984, Note_off_c, 0, 50, 63
1, 276011, Control_c, 0, 64, 87
1, 276015, Note_on_c, 0, 53, 61
1, 276015, Note_off_c, 0, 46, 36
1, 276026, Control_c, 0, 64, 88
1, 276041, Control_c, 0, 64, 90
1, 276056, Control_c, 0, 64, 91
1, 276070, Control_c, 0, 64, 92
1, 276097, Note_off_c, 0, 53, 61
1, 276121, Note_on_c, 0, 50, 46
1, 276130, Control_c, 0, 64, 91
1, 276145, Control_c, 0, 64, 89
1, 276160, Control_c, 0, 64, 82
1, 276164, Note_off_c, 0, 50, 62
1, 276174, Control_c, 0, 64, 71
1, 276177, Note_on_c, 0, 66, 60
1, 276177, Note_on_c, 0, 78, 78
1, 276189, Control_c, 0, 64, 58
1, 276199, Note_on_c, 0, 45, 53
1, 276204, Note_off_c, 0, 77, 62
1, 276204, Control_c, 0, 64, 0
1, 276278, Control_c, 0, 64, 40
1, 276293, Control_c, 0, 64, 60
1, 276299, Note_on_c, 0, 48, 60
1, 276308, Control_c, 0, 64, 66
1, 276322, Control_c, 0, 64, 69
1, 276337, Control_c, 0, 64, 72
1, 276352, Control_c, 0, 64, 75
1, 276367, Control_c, 0, 64, 79
1, 276368, Note_off_c, 0, 48, 64
1, 276382, Control_c, 0, 64, 83
1, 276396, Control_c, 0, 64, 88
1, 276401, Note_on_c, 0, 50, 54
1, 276411, Control_c, 0, 64, 91
1, 276426, Control_c, 0, 64, 93
1, 276433, Note_off_c, 0, 66, 62
1, 276440, Control_c, 0, 64, 94
1, 276455, Control_c, 0, 64, 95
1, 276470, Control_c, 0, 64, 96
1, 276478, Note_off_c, 0, 45, 61
1, 276485, Control_c, 0, 64, 97
1, 276498, Note_on_c, 0, 48, 57
1, 276529, Control_c, 0, 64, 94
1, 276552, Control_c, 0, 64, 87
1, 276556, Note_off_c, 0, 50, 29
1, 276567, Control_c, 0, 64, 76
1, 276571, Note_off_c, 0, 48, 58
1, 276576, Note_on_c, 0, 79, 78
1, 276579, Note_on_c, 0, 43, 57
1, 276582, Control_c, 0, 64, 64
1, 276586, Note_on_c, 0, 67, 54
1, 276596, Control_c, 0, 64, 0
1, 276670, Control_c, 0, 64, 52
1, 276685, Control_c, 0, 64, 64
1, 276689, Note_on_c, 0, 48, 63
1, 276700, Control_c, 0, 64, 69
1, 276714, Control_c, 0, 64, 74
1, 276729, Control_c, 0, 64, 79
1, 276732, Note_off_c, 0, 43, 60
1, 276744, Control_c, 0, 64, 83
1, 276759, Note_off_c, 0, 48, 64
1, 276759, Control_c, 0, 64, 85
1, 276775, Control_c, 0, 64, 87
1, 276786, Note_on_c, 0, 50, 61
1, 276790, Control_c, 0, 64, 89
1, 276805, Control_c, 0, 64, 90
1, 276819, Control_c, 0, 64, 91
1, 276820, Note_off_c, 0, 67, 45
1, 276834, Control_c, 0, 64, 92
1, 276849, Control_c, 0, 64, 92
1, 276880, Note_on_c, 0, 48, 59
1, 276886, Note_off_c, 0, 50, 54
1, 276887, Note_off_c, 0, 78, 16
1, 276908, Control_c, 0, 64, 92
1, 276923, Control_c, 0, 64, 88
1, 276938, Control_c, 0, 64, 81
1, 276952, Control_c, 0, 64, 72
1, 276954, Note_off_c, 0, 48, 63
1, 276962, Note_on_c, 0, 42, 59
1, 276967, Control_c, 0, 64, 62
1, 276970, Note_on_c, 0, 81, 80
1, 276979, Note_off_c, 0, 79, 61
1, 276982, Control_c, 0, 64, 18
1, 276991, Note_on_c, 0, 69, 52
1, 276997, Control_c, 0, 64, 0
1, 277057, Control_c, 0, 64, 40
1, 277071, Control_c, 0, 64, 61
1, 277082, Note_on_c, 0, 48, 59
1, 277086, Control_c, 0, 64, 67
1, 277099, Note_off_c, 0, 69, 67
1, 277101, Control_c, 0, 64, 73
1, 277116, Control_c, 0, 64, 79
1, 277128, Note_off_c, 0, 42, 55
1, 277131, Note_off_c, 0, 48, 66
1, 277131, Control_c, 0, 64, 83
1, 277145, Control_c, 0, 64, 84
1, 277160, Control_c, 0, 64, 85
1, 277167, Note_on_c, 0, 50, 53
1, 277175, Control_c, 0, 64, 86
1, 277190, Control_c, 0, 64, 87
1, 277205, Control_c, 0, 64, 88
1, 277249, Control_c, 0, 64, 89
1, 277265, Note_on_c, 0, 48, 54
1, 277337, Note_off_c, 0, 50, 27
1, 277355, Note_off_c, 0, 48, 60
1, 277376, Note_on_c, 0, 42, 47
1, 277393, Note_on_c, 0, 84, 70
1, 277393, Note_off_c, 0, 81, 62
1, 277412, Note_on_c, 0, 72, 57
1, 277480, Note_off_c, 0, 42, 53
1, 277486, Note_on_c, 0, 45, 47
1, 277536, Note_off_c, 0, 72, 64
1, 277552, Note_off_c, 0, 45, 64
1, 277581, Note_on_c, 0, 50, 52
1, 277683, Note_on_c, 0, 45, 50
1, 277723, Note_off_c, 0, 45, 63
1, 277746, Control_c, 0, 64, 87
1, 277757, Note_off_c, 0, 50, 39
1, 277760, Control_c, 0, 64, 81
1, 277775, Control_c, 0, 64, 71
1, 277782, Note_on_c, 0, 43, 53
1, 277784, Note_on_c, 0, 82, 64
1, 277789, Note_off_c, 0, 84, 45
1, 277790, Control_c, 0, 64, 46
1, 277798, Note_on_c, 0, 70, 50
1, 277805, Control_c, 0, 64, 0
1, 277886, Note_on_c, 0, 46, 62
1, 277894, Control_c, 0, 64, 57
1, 277909, Control_c, 0, 64, 68
1, 277924, Control_c, 0, 64, 75
1, 277934, Note_off_c, 0, 46, 63
1, 277939, Control_c, 0, 64, 79
1, 277954, Control_c, 0, 64, 81
1, 277968, Control_c, 0, 64, 83
1, 277969, Note_off_c, 0, 70, 60
1, 277983, Control_c, 0, 64, 84
1, 277998, Control_c, 0, 64, 87
1, 278012, Control_c, 0, 64, 88
1, 278017, Note_off_c, 0, 43, 20
1, 278019, Note_on_c, 0, 50, 27
1, 278027, Control_c, 0, 64, 90
1, 278049, Control_c, 0, 64, 91
1, 278064, Control_c, 0, 64, 91
1, 278079, Control_c, 0, 64, 92
1, 278085, Note_on_c, 0, 46, 42
1, 278094, Control_c, 0, 64, 92
1, 278118, Note_off_c, 0, 46, 47
1, 278119, Note_off_c, 0, 50, 49
1, 278154, Control_c, 0, 64, 91
1, 278168, Control_c, 0, 64, 87
1, 278183, Control_c, 0, 64, 77
1, 278194, Note_on_c, 0, 48, 58
1, 278195, Note_on_c, 0, 81, 60
1, 278198, Control_c, 0, 64, 65
1, 278207, Note_on_c, 0, 69, 40
1, 278212, Control_c, 0, 64, 0
1, 278216, Note_off_c, 0, 82, 36
1, 278316, Control_c, 0, 64, 66
1, 278322, Note_off_c, 0, 48, 58
1, 278330, Note_on_c, 0, 51, 40
1, 278331, Control_c, 0, 64, 74
1, 278346, Control_c, 0, 64, 80
1, 278350, Note_off_c, 0, 69, 62
1, 278362, Control_c, 0, 64, 84
1, 278362, Note_off_c, 0, 81, 50
1, 278377, Control_c, 0, 64, 86
1, 278380, Note_off_c, 0, 51, 60
1, 278391, Control_c, 0, 64, 86
1, 278406, Control_c, 0, 64, 87
1, 278421, Control_c, 0, 64, 87
1, 278433, Note_on_c, 0, 57, 41
1, 278436, Control_c, 0, 64, 88
1, 278465, Control_c, 0, 64, 89
1, 278531, Note_on_c, 0, 67, 54
1, 278538, Note_on_c, 0, 79, 56
1, 278562, Note_on_c, 0, 51, 31
1, 278571, Note_off_c, 0, 67, 60
1, 278597, Note_off_c, 0, 51, 46
1, 278598, Control_c, 0, 64, 89
1, 278672, Control_c, 0, 64, 89
1, 278683, Note_off_c, 0, 57, 38
1, 278687, Control_c, 0, 64, 87
1, 278699, Note_off_c, 0, 79, 61
1, 278702, Control_c, 0, 64, 79
1, 278705, Note_on_c, 0, 78, 61
1, 278715, Note_on_c, 0, 66, 53
1, 278717, Control_c, 0, 64, 69
1, 278732, Control_c, 0, 64, 47
1, 278735, Note_on_c, 0, 50, 37
1, 278747, Control_c, 0, 64, 0
1, 278828, Control_c, 0, 64, 38
1, 278842, Control_c, 0, 64, 63
1, 278857, Control_c, 0, 64, 68
1, 278872, Control_c, 0, 64, 71
1, 278887, Note_on_c, 0, 57, 50
1, 278887, Control_c, 0, 64, 76
1, 278902, Control_c, 0, 64, 80
1, 278917, Control_c, 0, 64, 83
1, 278932, Control_c, 0, 64, 85
1, 278947, Control_c, 0, 64, 86
1, 278947, Note_off_c, 0, 57, 58
1, 278962, Control_c, 0, 64, 87
1, 278976, Control_c, 0, 64, 88
1, 278989, Note_off_c, 0, 66, 39
1, 278991, Control_c, 0, 64, 88
1, 279014, Note_on_c, 0, 60, 36
1, 279018, Note_off_c, 0, 78, 37
1, 279048, Note_off_c, 0, 50, 35
1, 279081, Note_off_c, 0, 60, 40
1, 279087, Note_on_c, 0, 57, 33
1, 279141, Note_off_c, 0, 57, 42
1, 279173, Note_on_c, 0, 78, 54
1, 279185, Control_c, 0, 64, 88
1, 279192, Note_on_c, 0, 50, 38
1, 279194, Note_on_c, 0, 66, 46
1, 279215, Control_c, 0, 64, 87
1, 279240, Note_off_c, 0, 66, 0
1, 279240, Note_on_c, 0, 66, 18
1, 279259, Control_c, 0, 67, 9
1, 279274, Control_c, 0, 67, 12
1, 279289, Control_c, 0, 67, 15
1, 279304, Control_c, 0, 67, 20
1, 279304, Note_on_c, 0, 57, 38
1, 279319, Control_c, 0, 67, 23
1, 279333, Control_c, 0, 67, 27
1, 279348, Control_c, 0, 67, 31
1, 279363, Control_c, 0, 67, 35
1, 279370, Note_off_c, 0, 57, 55
1, 279376, Note_off_c, 0, 66, 40
1, 279378, Control_c, 0, 67, 38
1, 279393, Control_c, 0, 67, 43
1, 279407, Control_c, 0, 67, 49
1, 279422, Control_c, 0, 67, 55
1, 279437, Control_c, 0, 67, 60
1, 279439, Note_on_c, 0, 60, 34
1, 279452, Control_c, 0, 67, 64
1, 279462, Note_off_c, 0, 50, 38
1, 279466, Control_c, 0, 67, 67
1, 279481, Control_c, 0, 67, 71
1, 279496, Control_c, 0, 67, 75
1, 279511, Control_c, 0, 67, 79
1, 279514, Note_on_c, 0, 57, 31
1, 279526, Control_c, 0, 67, 83
1, 279548, Control_c, 0, 67, 88
1, 279563, Control_c, 0, 64, 87
1, 279563, Control_c, 0, 67, 93
1, 279566, Note_off_c, 0, 60, 28
1, 279578, Control_c, 0, 64, 85
1, 279578, Control_c, 0, 67, 98
1, 279590, Note_off_c, 0, 57, 41
1, 279593, Control_c, 0, 64, 80
1, 279593, Control_c, 0, 67, 106
1, 279608, Control_c, 0, 64, 75
1, 279608, Control_c, 0, 67, 116
1, 279616, Note_on_c, 0, 50, 36
1, 279619, Note_on_c, 0, 79, 54
1, 279622, Control_c, 0, 64, 70
1, 279622, Control_c, 0, 67, 127
1, 279623, Note_on_c, 0, 67, 40
1, 279637, Control_c, 0, 64, 67
1, 279637, Control_c, 0, 67, 127
1, 279652, Control_c, 0, 64, 66
1, 279653, Note_off_c, 0, 78, 56
1, 279666, Control_c, 0, 64, 67
1, 279681, Control_c, 0, 64, 67
1, 279696, Control_c, 0, 64, 69
1, 279711, Control_c, 0, 64, 71
1, 279720, Note_off_c, 0, 67, 64
1, 279726, Control_c, 0, 64, 73
1, 279740, Control_c, 0, 64, 76
1, 279741, Note_on_c, 0, 57, 38
1, 279755, Control_c, 0, 64, 79
1, 279770, Control_c, 0, 64, 81
1, 279785, Control_c, 0, 64, 82
1, 279794, Note_off_c, 0, 57, 58
1, 279799, Control_c, 0, 64, 82
1, 279814, Control_c, 0, 64, 83
1, 279829, Control_c, 0, 64, 83
1, 279843, Note_off_c, 0, 50, 29
1, 279844, Control_c, 0, 64, 84
1, 279851, Note_on_c, 0, 60, 41
1, 279852, Note_on_c, 0, 78, 63
1, 279857, Note_on_c, 0, 66, 42
1, 279858, Control_c, 0, 64, 84
1, 279873, Control_c, 0, 64, 85
1, 279878, Note_off_c, 0, 79, 51
1, 279888, Control_c, 0, 64, 85
1, 279903, Control_c, 0, 64, 86
1, 279918, Control_c, 0, 64, 87
1, 279922, Note_on_c, 0, 57, 40
1, 279932, Control_c, 0, 64, 87
1, 279971, Note_off_c, 0, 66, 44
1, 279978, Control_c, 0, 64, 88
1, 280027, Note_off_c, 0, 60, 20
1, 280047, Note_off_c, 0, 78, 63
1, 280070, Note_on_c, 0, 50, 33
1, 280078, Note_off_c, 0, 57, 26
1, 280094, Note_on_c, 0, 76, 65
1, 280112, Note_on_c, 0, 64, 38
1, 280205, Note_off_c, 0, 64, 42
1, 280231, Note_on_c, 0, 57, 40
1, 280254, Note_off_c, 0, 50, 31
1, 280354, Note_off_c, 0, 57, 51
1, 280378, Note_on_c, 0, 78, 62
1, 280394, Note_off_c, 0, 76, 54
1, 280398, Note_on_c, 0, 66, 34
1, 280433, Note_on_c, 0, 60, 38
1, 280501, Note_off_c, 0, 66, 58
1, 280599, Note_on_c, 0, 57, 31
1, 280613, Note_off_c, 0, 60, 33
1, 280633, Note_off_c, 0, 57, 51
1, 280875, Control_c, 0, 64, 87
1, 280890, Control_c, 0, 64, 87
1, 280904, Control_c, 0, 64, 84
1, 280919, Control_c, 0, 64, 79
1, 280934, Control_c, 0, 64, 71
1, 280936, Note_on_c, 0, 43, 43
1, 280938, Note_on_c, 0, 79, 54
1, 280949, Control_c, 0, 64, 62
1, 280959, Note_on_c, 0, 67, 43
1, 280964, Control_c, 0, 64, 0
1, 280969, Note_off_c, 0, 78, 38
1, 281119, Control_c, 0, 64, 50
1, 281134, Control_c, 0, 64, 68
1, 281149, Control_c, 0, 64, 75
1, 281164, Control_c, 0, 64, 82
1, 281178, Control_c, 0, 64, 85
1, 281193, Control_c, 0, 64, 87
1, 281208, Control_c, 0, 64, 89
1, 281216, Note_off_c, 0, 43, 47
1, 281223, Control_c, 0, 64, 90
1, 281237, Control_c, 0, 64, 91
1, 281252, Control_c, 0, 64, 91
1, 281267, Control_c, 0, 64, 92
1, 281282, Control_c, 0, 64, 92
1, 281297, Control_c, 0, 64, 93
1, 281311, Control_c, 0, 64, 93
1, 281326, Control_c, 0, 64, 94
1, 281341, Control_c, 0, 64, 94
1, 281371, Control_c, 0, 64, 95
1, 281400, Control_c, 0, 64, 95
1, 281425, Note_off_c, 0, 79, 48
1, 281457, Note_off_c, 0, 67, 36
1, 281514, Note_on_c, 0, 59, 33
1, 281540, Note_on_c, 0, 50, 15
1, 281552, Note_on_c, 0, 55, 13
1, 281624, Note_off_c, 0, 55, 41
1, 281638, Note_off_c, 0, 59, 41
1, 281656, Note_off_c, 0, 50, 32
1, 281764, Note_on_c, 0, 59, 30
1, 281769, Poly_aftertouch_c, 0, 50, 127
1, 281785, Note_on_c, 0, 55, 14
1, 281827, Note_off_c, 0, 59, 41
1, 281828, Note_off_c, 0, 55, 49
1, 281850, Poly_aftertouch_c, 0, 50, 0
1, 281932, Note_on_c, 0, 59, 40
1, 281942, Poly_aftertouch_c, 0, 50, 127
1, 281948, Note_on_c, 0, 55, 38
1, 281990, Note_off_c, 0, 59, 53
1, 281990, Note_off_c, 0, 55, 47
1, 282053, Poly_aftertouch_c, 0, 50, 0
1, 282083, Note_on_c, 0, 59, 23
1, 282089, Poly_aftertouch_c, 0, 50, 127
1, 282096, Note_on_c, 0, 55, 31
1, 282145, Note_off_c, 0, 55, 46
1, 282151, Note_off_c, 0, 59, 40
1, 282203, Poly_aftertouch_c, 0, 50, 0
1, 282225, Note_on_c, 0, 50, 9
1, 282234, Note_on_c, 0, 59, 37
1, 282238, Note_on_c, 0, 55, 41
1, 282282, Note_off_c, 0, 55, 46
1, 282291, Note_off_c, 0, 59, 43
1, 282354, Note_off_c, 0, 50, 0
1, 282387, Note_on_c, 0, 59, 36
1, 282388, Note_on_c, 0, 55, 41
1, 282391, Poly_aftertouch_c, 0, 50, 127
1, 282393, Note_on_c, 0, 72, 57
1, 282437, Note_off_c, 0, 55, 57
1, 282449, Note_off_c, 0, 59, 43
1, 282487, Poly_aftertouch_c, 0, 50, 0
1, 282509, Note_on_c, 0, 50, 7
1, 282545, Note_on_c, 0, 55, 38
1, 282548, Note_on_c, 0, 59, 31
1, 282586, Note_off_c, 0, 55, 47
1, 282589, Note_off_c, 0, 59, 46
1, 282633, Note_on_c, 0, 71, 62
1, 282655, Note_off_c, 0, 50, 0
1, 282691, Poly_aftertouch_c, 0, 50, 127
1, 282698, Note_on_c, 0, 59, 43
1, 282700, Note_on_c, 0, 55, 41
1, 282711, Note_off_c, 0, 72, 63
1, 282736, Note_off_c, 0, 55, 50
1, 282743, Note_off_c, 0, 59, 46
1, 282810, Poly_aftertouch_c, 0, 50, 0
1, 282831, Note_on_c, 0, 50, 12
1, 282837, Note_on_c, 0, 70, 69
1, 282847, Note_on_c, 0, 59, 44
1, 282849, Note_on_c, 0, 55, 45
1, 282885, Note_off_c, 0, 59, 48
1, 282887, Note_off_c, 0, 55, 50
1, 282919, Note_off_c, 0, 71, 62
1, 282923, Note_off_c, 0, 50, 36
1, 282986, Note_on_c, 0, 59, 44
1, 282992, Note_on_c, 0, 50, 15
1, 282994, Note_on_c, 0, 55, 43
1, 283022, Note_off_c, 0, 55, 52
1, 283032, Note_off_c, 0, 59, 44
1, 283044, Note_off_c, 0, 50, 45
1, 283069, Note_on_c, 0, 71, 62
1, 283128, Note_on_c, 0, 59, 60
1, 283129, Note_on_c, 0, 50, 45
1, 283138, Note_off_c, 0, 70, 59
1, 283150, Note_on_c, 0, 55, 43
1, 283167, Control_c, 0, 64, 96
1, 283175, Note_off_c, 0, 55, 57
1, 283176, Note_off_c, 0, 59, 55
1, 283195, Note_off_c, 0, 50, 61
1, 283267, Note_off_c, 0, 71, 53
1, 283426, Control_c, 0, 64, 94
1, 283429, Note_on_c, 0, 36, 54
1, 283440, Control_c, 0, 64, 86
1, 283455, Control_c, 0, 64, 74
1, 283470, Control_c, 0, 64, 57
1, 283485, Control_c, 0, 64, 0
1, 283507, Note_on_c, 0, 71, 54
1, 283574, Control_c, 0, 64, 56
1, 283588, Control_c, 0, 64, 69
1, 283603, Control_c, 0, 64, 75
1, 283618, Control_c, 0, 64, 82
1, 283629, Note_off_c, 0, 36, 64
1, 283633, Control_c, 0, 64, 88
1, 283648, Control_c, 0, 64, 91
1, 283662, Control_c, 0, 64, 93
1, 283677, Control_c, 0, 64, 95
1, 283692, Control_c, 0, 64, 96
1, 283707, Control_c, 0, 64, 97
1, 283722, Control_c, 0, 64, 97
1, 283733, Note_on_c, 0, 76, 63
1, 283737, Control_c, 0, 64, 98
1, 283806, Note_on_c, 0, 52, 46
1, 283819, Note_on_c, 0, 48, 38
1, 283851, Note_off_c, 0, 52, 52
1, 283863, Note_off_c, 0, 48, 47
1, 283927, Note_on_c, 0, 59, 49
1, 283928, Note_on_c, 0, 48, 39
1, 283936, Note_on_c, 0, 52, 37
1, 283968, Note_off_c, 0, 59, 60
1, 283973, Note_off_c, 0, 52, 60
1, 283985, Note_off_c, 0, 48, 41
1, 284047, Note_on_c, 0, 48, 32
1, 284071, Note_on_c, 0, 52, 47
1, 284080, Note_on_c, 0, 56, 41
1, 284104, Note_off_c, 0, 48, 55
1, 284113, Note_off_c, 0, 52, 60
1, 284113, Note_off_c, 0, 56, 51
1, 284119, Note_off_c, 0, 71, 55
1, 284183, Note_on_c, 0, 48, 23
1, 284193, Note_on_c, 0, 56, 51
1, 284202, Note_on_c, 0, 52, 40
1, 284228, Note_off_c, 0, 56, 62
1, 284229, Note_off_c, 0, 52, 62
1, 284235, Note_off_c, 0, 48, 46
1, 284326, Note_on_c, 0, 56, 55
1, 284330, Note_on_c, 0, 48, 34
1, 284344, Note_on_c, 0, 52, 39
1, 284369, Note_off_c, 0, 56, 59
1, 284377, Note_off_c, 0, 48, 48
1, 284379, Note_off_c, 0, 52, 53
1, 284440, Control_c, 0, 64, 97
1, 284455, Control_c, 0, 64, 91
1, 284470, Control_c, 0, 64, 81
1, 284476, Note_on_c, 0, 52, 47
1, 284480, Note_on_c, 0, 71, 63
1, 284482, Note_on_c, 0, 48, 39
1, 284482, Note_on_c, 0, 57, 46
1, 284485, Control_c, 0, 64, 70
1, 284500, Control_c, 0, 64, 59
1, 284510, Note_off_c, 0, 76, 60
1, 284515, Control_c, 0, 64, 0
1, 284520, Note_off_c, 0, 57, 49
1, 284522, Note_off_c, 0, 52, 61
1, 284539, Note_off_c, 0, 48, 44
1, 284559, Control_c, 0, 64, 16
1, 284573, Control_c, 0, 64, 56
1, 284588, Control_c, 0, 64, 64
1, 284603, Control_c, 0, 64, 68
1, 284616, Note_on_c, 0, 52, 31
1, 284618, Control_c, 0, 64, 71
1, 284619, Note_on_c, 0, 57, 42
1, 284624, Note_on_c, 0, 48, 12
1, 284633, Control_c, 0, 64, 75
1, 284647, Control_c, 0, 64, 77
1, 284655, Note_off_c, 0, 57, 49
1, 284662, Control_c, 0, 64, 80
1, 284663, Note_off_c, 0, 52, 60
1, 284675, Note_off_c, 0, 48, 49
1, 284677, Control_c, 0, 64, 82
1, 284692, Control_c, 0, 64, 84
1, 284703, Note_on_c, 0, 69, 68
1, 284707, Control_c, 0, 64, 85
1, 284721, Control_c, 0, 64, 87
1, 284736, Control_c, 0, 64, 88
1, 284752, Control_c, 0, 64, 89
1, 284758, Note_on_c, 0, 57, 51
1, 284762, Note_off_c, 0, 71, 54
1, 284774, Control_c, 0, 64, 90
1, 284775, Note_on_c, 0, 52, 46
1, 284780, Note_on_c, 0, 48, 33
1, 284804, Control_c, 0, 64, 90
1, 284810, Note_off_c, 0, 57, 52
1, 284819, Note_off_c, 0, 52, 60
1, 284819, Control_c, 0, 64, 91
1, 284831, Note_off_c, 0, 48, 45
1, 284908, Note_on_c, 0, 48, 37
1, 284916, Note_on_c, 0, 57, 44
1, 284918, Note_on_c, 0, 52, 46
1, 284920, Note_on_c, 0, 68, 71
1, 284923, Control_c, 0, 64, 91
1, 284945, Note_off_c, 0, 69, 67
1, 284956, Note_off_c, 0, 52, 59
1, 284962, Note_off_c, 0, 57, 49
1, 285023, Note_off_c, 0, 48, 0
1, 285047, Note_on_c, 0, 57, 40
1, 285060, Poly_aftertouch_c, 0, 48, 127
1, 285069, Note_on_c, 0, 52, 42
1, 285098, Note_off_c, 0, 57, 46
1, 285100, Note_off_c, 0, 52, 54
1, 285132, Poly_aftertouch_c, 0, 48, 0
1, 285156, Note_on_c, 0, 69, 71
1, 285198, Note_off_c, 0, 68, 61
1, 285204, Note_on_c, 0, 48, 42
1, 285210, Note_on_c, 0, 57, 47
1, 285232, Note_on_c, 0, 52, 32
1, 285241, Note_off_c, 0, 57, 61
1, 285260, Note_off_c, 0, 48, 62
1, 285269, Note_off_c, 0, 52, 41
1, 285317, Note_off_c, 0, 69, 60
1, 285456, Control_c, 0, 64, 89
1, 285470, Control_c, 0, 64, 81
1, 285483, Note_on_c, 0, 35, 49
1, 285485, Control_c, 0, 64, 67
1, 285500, Control_c, 0, 64, 0
1, 285549, Note_on_c, 0, 69, 60
1, 285612, Control_c, 0, 64, 63
1, 285627, Control_c, 0, 64, 69
1, 285642, Control_c, 0, 64, 74
1, 285657, Control_c, 0, 64, 80
1, 285660, Note_off_c, 0, 35, 59
1, 285672, Control_c, 0, 64, 84
1, 285687, Control_c, 0, 64, 88
1, 285701, Control_c, 0, 64, 89
1, 285716, Control_c, 0, 64, 90
1, 285731, Note_on_c, 0, 74, 56
1, 285731, Control_c, 0, 64, 91
1, 285746, Control_c, 0, 64, 92
1, 285761, Control_c, 0, 64, 93
1, 285775, Control_c, 0, 64, 94
1, 285790, Control_c, 0, 64, 94
1, 285805, Control_c, 0, 64, 95
1, 285819, Control_c, 0, 64, 95
1, 285864, Note_on_c, 0, 50, 51
1, 285864, Control_c, 0, 64, 96
1, 285865, Note_on_c, 0, 57, 46
1, 285881, Note_on_c, 0, 47, 34
1, 285901, Note_off_c, 0, 57, 51
1, 285909, Note_off_c, 0, 50, 55
1, 285953, Control_c, 0, 64, 96
1, 285964, Note_off_c, 0, 47, 0
1, 285987, Note_on_c, 0, 57, 46
1, 285988, Note_on_c, 0, 50, 28
1, 285991, Note_on_c, 0, 47, 13
1, 286020, Note_off_c, 0, 57, 57
1, 286022, Note_off_c, 0, 69, 51
1, 286040, Note_off_c, 0, 50, 43
1, 286077, Note_off_c, 0, 47, 0
1, 286096, Note_on_c, 0, 47, 30
1, 286099, Note_on_c, 0, 50, 37
1, 286112, Note_on_c, 0, 54, 48
1, 286155, Note_off_c, 0, 54, 57
1, 286167, Note_off_c, 0, 47, 40
1, 286211, Note_off_c, 0, 50, 0
1, 286231, Note_on_c, 0, 50, 18
1, 286234, Note_on_c, 0, 54, 53
1, 286236, Note_on_c, 0, 47, 29
1, 286288, Note_off_c, 0, 54, 55
1, 286292, Note_off_c, 0, 50, 56
1, 286298, Note_off_c, 0, 47, 46
1, 286387, Note_on_c, 0, 54, 46
1, 286399, Note_on_c, 0, 50, 35
1, 286417, Note_on_c, 0, 47, 18
1, 286441, Note_off_c, 0, 54, 56
1, 286450, Note_off_c, 0, 50, 47
1, 286467, Note_off_c, 0, 47, 48
1, 286521, Note_on_c, 0, 50, 32
1, 286534, Note_on_c, 0, 55, 47
1, 286538, Control_c, 0, 64, 94
1, 286539, Note_on_c, 0, 47, 34
1, 286543, Note_on_c, 0, 72, 67
1, 286553, Control_c, 0, 64, 86
1, 286568, Control_c, 0, 64, 77
1, 286583, Control_c, 0, 64, 67
1, 286590, Note_off_c, 0, 55, 52
1, 286595, Note_off_c, 0, 50, 56
1, 286597, Control_c, 0, 64, 52
1, 286598, Note_off_c, 0, 47, 44
1, 286612, Control_c, 0, 64, 0
1, 286642, Control_c, 0, 64, 26
1, 286655, Note_off_c, 0, 74, 35
1, 286656, Control_c, 0, 64, 52
1, 286671, Control_c, 0, 64, 63
1, 286673, Note_on_c, 0, 47, 27
1, 286673, Note_on_c, 0, 55, 40
1, 286676, Note_on_c, 0, 50, 39
1, 286686, Control_c, 0, 64, 68
1, 286701, Control_c, 0, 64, 73
1, 286716, Control_c, 0, 64, 78
1, 286721, Note_off_c, 0, 50, 61
1, 286722, Note_off_c, 0, 55, 57
1, 286728, Note_off_c, 0, 47, 46
1, 286730, Control_c, 0, 64, 82
1, 286745, Control_c, 0, 64, 86
1, 286756, Note_on_c, 0, 71, 72
1, 286760, Control_c, 0, 64, 88
1, 286775, Control_c, 0, 64, 91
1, 286790, Control_c, 0, 64, 93
1, 286804, Control_c, 0, 64, 94
1, 286819, Control_c, 0, 64, 95
1, 286825, Note_on_c, 0, 50, 40
1, 286826, Note_on_c, 0, 55, 32
1, 286829, Note_on_c, 0, 47, 30
1, 286834, Control_c, 0, 64, 96
1, 286849, Control_c, 0, 64, 96
1, 286853, Note_off_c, 0, 72, 61
1, 286860, Note_off_c, 0, 55, 52
1, 286864, Control_c, 0, 64, 97
1, 286866, Note_off_c, 0, 50, 49
1, 286879, Control_c, 0, 64, 97
1, 286883, Note_off_c, 0, 47, 44
1, 286909, Control_c, 0, 64, 98
1, 286923, Control_c, 0, 64, 98
1, 286956, Note_on_c, 0, 47, 34
1, 286959, Note_on_c, 0, 69, 77
1, 286968, Note_on_c, 0, 55, 42
1, 286968, Note_on_c, 0, 50, 49
1, 287004, Note_off_c, 0, 55, 50
1, 287004, Note_off_c, 0, 50, 61
1, 287034, Control_c, 0, 64, 99
1, 287053, Note_off_c, 0, 47, 0
1, 287076, Note_off_c, 0, 71, 55
1, 287091, Poly_aftertouch_c, 0, 47, 127
1, 287108, Control_c, 0, 64, 99
1, 287113, Note_on_c, 0, 55, 44
1, 287127, Note_on_c, 0, 50, 41
1, 287138, Control_c, 0, 64, 100
1, 287151, Note_off_c, 0, 55, 50
1, 287165, Note_off_c, 0, 50, 49
1, 287178, Note_on_c, 0, 67, 76
1, 287183, Poly_aftertouch_c, 0, 47, 0
1, 287183, Control_c, 0, 64, 100
1, 287198, Control_c, 0, 64, 101
1, 287206, Note_off_c, 0, 69, 68
1, 287208, Poly_aftertouch_c, 0, 47, 0
1, 287213, Control_c, 0, 64, 101
1, 287228, Control_c, 0, 64, 102
1, 287240, Note_on_c, 0, 47, 9
1, 287251, Note_on_c, 0, 55, 54
1, 287264, Note_on_c, 0, 50, 33
1, 287272, Control_c, 0, 64, 102
1, 287282, Note_off_c, 0, 55, 65
1, 287287, Control_c, 0, 64, 103
1, 287292, Note_off_c, 0, 47, 58
1, 287300, Note_off_c, 0, 50, 43
1, 287302, Control_c, 0, 64, 104
1, 287346, Control_c, 0, 64, 104
1, 287361, Control_c, 0, 64, 105
1, 287376, Control_c, 0, 64, 107
1, 287391, Control_c, 0, 64, 109
1, 287406, Control_c, 0, 64, 110
1, 287420, Control_c, 0, 64, 111
1, 287465, Control_c, 0, 64, 108
1, 287479, Control_c, 0, 64, 99
1, 287494, Control_c, 0, 64, 84
1, 287509, Control_c, 0, 64, 64
1, 287511, Note_on_c, 0, 74, 70
1, 287517, Note_on_c, 0, 36, 48
1, 287517, Note_on_c, 0, 66, 58
1, 287524, Control_c, 0, 64, 0
1, 287551, Note_off_c, 0, 67, 51
1, 287627, Control_c, 0, 64, 58
1, 287642, Control_c, 0, 64, 71
1, 287657, Control_c, 0, 64, 80
1, 287672, Control_c, 0, 64, 88
1, 287679, Note_off_c, 0, 36, 63
1, 287687, Control_c, 0, 64, 91
1, 287702, Control_c, 0, 64, 92
1, 287717, Control_c, 0, 64, 93
1, 287727, Note_off_c, 0, 74, 61
1, 287731, Control_c, 0, 64, 94
1, 287746, Control_c, 0, 64, 95
1, 287761, Control_c, 0, 64, 96
1, 287802, Note_on_c, 0, 48, 48
1, 287808, Note_on_c, 0, 52, 42
1, 287817, Note_on_c, 0, 72, 74
1, 287823, Note_on_c, 0, 64, 60
1, 287839, Note_off_c, 0, 48, 65
1, 287842, Control_c, 0, 64, 97
1, 287843, Note_off_c, 0, 52, 65
1, 287872, Control_c, 0, 64, 97
1, 287901, Control_c, 0, 64, 98
1, 287932, Note_on_c, 0, 52, 62
1, 287954, Note_off_c, 0, 64, 61
1, 287958, Note_on_c, 0, 48, 38
1, 287970, Note_off_c, 0, 52, 63
1, 287991, Note_off_c, 0, 48, 54
1, 288000, Note_off_c, 0, 66, 37
1, 288051, Note_on_c, 0, 71, 70
1, 288056, Note_on_c, 0, 62, 61
1, 288060, Note_on_c, 0, 52, 53
1, 288061, Note_on_c, 0, 48, 48
1, 288068, Note_off_c, 0, 72, 61
1, 288099, Note_off_c, 0, 52, 64
1, 288100, Note_off_c, 0, 48, 63
1, 288147, Note_off_c, 0, 62, 61
1, 288194, Note_on_c, 0, 52, 52
1, 288196, Note_on_c, 0, 48, 51
1, 288226, Note_off_c, 0, 52, 56
1, 288240, Note_off_c, 0, 48, 46
1, 288261, Note_on_c, 0, 69, 68
1, 288263, Note_on_c, 0, 60, 64
1, 288276, Note_off_c, 0, 71, 53
1, 288299, Note_on_c, 0, 52, 52
1, 288311, Note_on_c, 0, 48, 38
1, 288334, Note_off_c, 0, 52, 65
1, 288342, Note_off_c, 0, 60, 56
1, 288342, Note_off_c, 0, 48, 57
1, 288347, Control_c, 0, 64, 98
1, 288362, Control_c, 0, 64, 100
1, 288376, Control_c, 0, 64, 101
1, 288420, Control_c, 0, 64, 96
1, 288435, Control_c, 0, 64, 82
1, 288450, Control_c, 0, 64, 62
1, 288461, Note_on_c, 0, 38, 57
1, 288462, Note_on_c, 0, 67, 68
1, 288462, Note_off_c, 0, 69, 65
1, 288465, Control_c, 0, 64, 0
1, 288477, Note_on_c, 0, 59, 51
1, 288532, Control_c, 0, 64, 67
1, 288536, Note_off_c, 0, 38, 63
1, 288547, Control_c, 0, 64, 76
1, 288562, Control_c, 0, 64, 86
1, 288576, Control_c, 0, 64, 91
1, 288591, Control_c, 0, 64, 93
1, 288606, Control_c, 0, 64, 93
1, 288620, Control_c, 0, 64, 94
1, 288630, Note_off_c, 0, 59, 61
1, 288635, Control_c, 0, 64, 95
1, 288650, Control_c, 0, 64, 96
1, 288657, Note_on_c, 0, 55, 28
1, 288664, Note_on_c, 0, 50, 27
1, 288665, Control_c, 0, 64, 97
1, 288694, Note_off_c, 0, 55, 52
1, 288709, Control_c, 0, 64, 97
1, 288732, Note_off_c, 0, 50, 0
1, 288750, Note_on_c, 0, 50, 26
1, 288764, Note_on_c, 0, 55, 48
1, 288786, Control_c, 0, 64, 98
1, 288796, Note_off_c, 0, 55, 61
1, 288800, Note_off_c, 0, 50, 62
1, 288800, Control_c, 0, 64, 99
1, 288815, Control_c, 0, 64, 100
1, 288830, Control_c, 0, 64, 101
1, 288844, Control_c, 0, 64, 102
1, 288859, Control_c, 0, 64, 101
1, 288874, Control_c, 0, 64, 97
1, 288889, Control_c, 0, 64, 86
1, 288904, Control_c, 0, 64, 71
1, 288912, Note_on_c, 0, 38, 58
1, 288917, Note_on_c, 0, 71, 62
1, 288918, Control_c, 0, 64, 46
1, 288925, Note_on_c, 0, 62, 47
1, 288933, Control_c, 0, 64, 0
1, 288955, Note_off_c, 0, 38, 64
1, 288963, Control_c, 0, 64, 59
1, 288965, Note_off_c, 0, 67, 40
1, 288978, Control_c, 0, 64, 70
1, 288992, Control_c, 0, 64, 77
1, 289007, Control_c, 0, 64, 85
1, 289022, Control_c, 0, 64, 88
1, 289037, Control_c, 0, 64, 91
1, 289052, Control_c, 0, 64, 92
1, 289067, Control_c, 0, 64, 94
1, 289082, Control_c, 0, 64, 95
1, 289082, Note_on_c, 0, 54, 50
1, 289088, Note_on_c, 0, 50, 45
1, 289097, Control_c, 0, 64, 97
1, 289099, Note_off_c, 0, 62, 61
1, 289112, Control_c, 0, 64, 98
1, 289126, Control_c, 0, 64, 99
1, 289126, Note_off_c, 0, 54, 58
1, 289139, Note_off_c, 0, 50, 56
1, 289141, Control_c, 0, 64, 100
1, 289234, Note_on_c, 0, 54, 47
1, 289251, Note_on_c, 0, 50, 14
1, 289292, Note_off_c, 0, 54, 56
1, 289295, Note_on_c, 0, 69, 53
1, 289299, Note_on_c, 0, 60, 49
1, 289307, Note_off_c, 0, 50, 50
1, 289351, Note_off_c, 0, 60, 57
1, 289359, Note_off_c, 0, 71, 32
1, 289444, Control_c, 0, 64, 96
1, 289459, Control_c, 0, 64, 86
1, 289474, Control_c, 0, 64, 72
1, 289489, Control_c, 0, 64, 40
1, 289498, Note_off_c, 0, 69, 63
1, 289504, Control_c, 0, 64, 0
1, 289509, Note_on_c, 0, 67, 54
1, 289511, Note_on_c, 0, 43, 38
1, 289525, Note_on_c, 0, 59, 47
1, 289623, Control_c, 0, 64, 42
1, 289638, Control_c, 0, 64, 67
1, 289653, Control_c, 0, 64, 74
1, 289668, Control_c, 0, 64, 81
1, 289682, Control_c, 0, 64, 86
1, 289696, Note_off_c, 0, 43, 50
1, 289697, Control_c, 0, 64, 90
1, 289712, Control_c, 0, 64, 92
1, 289727, Control_c, 0, 64, 94
1, 289741, Control_c, 0, 64, 96
1, 289756, Control_c, 0, 64, 99
1, 289771, Control_c, 0, 64, 100
1, 289786, Control_c, 0, 64, 101
1, 289800, Control_c, 0, 64, 102
1, 289803, Note_off_c, 0, 59, 36
1, 289815, Control_c, 0, 64, 103
1, 289830, Control_c, 0, 64, 103
1, 289845, Control_c, 0, 64, 104
1, 289860, Control_c, 0, 64, 104
1, 289875, Control_c, 0, 64, 105
1, 289904, Control_c, 0, 64, 105
1, 289905, Note_off_c, 0, 67, 59
1, 289919, Control_c, 0, 64, 106
1, 289934, Control_c, 0, 64, 106
1, 289959, Note_on_c, 0, 59, 33
1, 289964, Control_c, 0, 64, 107
1, 289973, Note_on_c, 0, 55, 19
1, 289999, Note_on_c, 0, 50, 10
1, 290008, Control_c, 0, 64, 107
1, 290064, Note_off_c, 0, 50, 47
1, 290067, Note_off_c, 0, 55, 37
1, 290073, Note_off_c, 0, 59, 39
1, 290161, Note_on_c, 0, 59, 30
1, 290170, Note_on_c, 0, 55, 22
1, 290171, Note_on_c, 0, 50, 20
1, 290233, Note_off_c, 0, 50, 42
1, 290239, Note_off_c, 0, 55, 40
1, 290244, Note_off_c, 0, 59, 37
1, 290281, Control_c, 0, 64, 108
1, 290325, Note_on_c, 0, 55, 35
1, 290327, Note_on_c, 0, 59, 35
1, 290336, Note_on_c, 0, 50, 18
1, 290374, Note_off_c, 0, 59, 45
1, 290384, Note_off_c, 0, 50, 48
1, 290396, Note_off_c, 0, 55, 39
1, 290457, Note_on_c, 0, 55, 27
1, 290464, Note_on_c, 0, 59, 38
1, 290475, Note_on_c, 0, 50, 30
1, 290510, Note_off_c, 0, 59, 44
1, 290523, Note_off_c, 0, 50, 45
1, 290535, Note_off_c, 0, 55, 38
1, 290600, Note_on_c, 0, 50, 38
1, 290602, Note_on_c, 0, 55, 40
1, 290605, Note_on_c, 0, 59, 44
1, 290658, Note_off_c, 0, 55, 53
1, 290659, Note_off_c, 0, 59, 43
1, 290708, Note_off_c, 0, 50, 0
1, 290730, Note_on_c, 0, 50, 5
1, 290736, Note_on_c, 0, 55, 29
1, 290743, Note_on_c, 0, 59, 35
1, 290748, Note_on_c, 0, 72, 65
1, 290798, Note_off_c, 0, 59, 45
1, 290821, Note_off_c, 0, 55, 39
1, 290858, Note_off_c, 0, 50, 0
1, 290879, Note_on_c, 0, 50, 14
1, 290884, Note_on_c, 0, 55, 36
1, 290884, Note_on_c, 0, 59, 42
1, 290936, Note_off_c, 0, 59, 43
1, 290936, Note_off_c, 0, 55, 54
1, 290966, Note_on_c, 0, 71, 68
1, 291006, Note_off_c, 0, 50, 0
1, 291018, Note_on_c, 0, 59, 39
1, 291023, Note_on_c, 0, 55, 41
1, 291027, Note_on_c, 0, 50, 9
1, 291037, Note_off_c, 0, 72, 65
1, 291060, Control_c, 0, 64, 108
1, 291067, Note_off_c, 0, 55, 58
1, 291079, Note_off_c, 0, 59, 44
1, 291086, Note_off_c, 0, 50, 42
1, 291156, Note_on_c, 0, 70, 80
1, 291174, Note_on_c, 0, 59, 40
1, 291177, Note_on_c, 0, 50, 37
1, 291180, Note_on_c, 0, 55, 43
1, 291209, Control_c, 0, 64, 109
1, 291211, Note_off_c, 0, 71, 62
1, 291216, Note_off_c, 0, 55, 49
1, 291222, Note_off_c, 0, 50, 46
1, 291224, Note_off_c, 0, 59, 45
1, 291268, Control_c, 0, 64, 109
1, 291310, Note_on_c, 0, 50, 42
1, 291314, Note_on_c, 0, 59, 24
1, 291317, Note_on_c, 0, 55, 49
1, 291345, Note_off_c, 0, 55, 54
1, 291354, Note_off_c, 0, 50, 51
1, 291360, Note_off_c, 0, 59, 46
1, 291377, Note_on_c, 0, 71, 82
1, 291402, Note_off_c, 0, 70, 63
1, 291454, Note_on_c, 0, 59, 55
1, 291458, Note_on_c, 0, 50, 50
1, 291463, Note_on_c, 0, 55, 44
1, 291477, Note_off_c, 0, 59, 61
1, 291490, Note_off_c, 0, 50, 64
1, 291490, Note_off_c, 0, 55, 54
1, 291750, Control_c, 0, 64, 106
1, 291763, Note_on_c, 0, 83, 77
1, 291764, Control_c, 0, 64, 97
1, 291774, Note_on_c, 0, 36, 57
1, 291779, Control_c, 0, 64, 84
1, 291785, Note_on_c, 0, 76, 67
1, 291794, Control_c, 0, 64, 69
1, 291809, Control_c, 0, 64, 0
1, 291913, Control_c, 0, 64, 66
1, 291928, Control_c, 0, 64, 76
1, 291943, Note_off_c, 0, 71, 60
1, 291943, Control_c, 0, 64, 86
1, 291955, Note_off_c, 0, 36, 64
1, 291958, Control_c, 0, 64, 92
1, 291973, Control_c, 0, 64, 94
1, 291988, Control_c, 0, 64, 95
1, 292003, Control_c, 0, 64, 96
1, 292018, Control_c, 0, 64, 98
1, 292033, Control_c, 0, 64, 99
1, 292048, Control_c, 0, 64, 100
1, 292077, Control_c, 0, 64, 100
1, 292107, Control_c, 0, 64, 101
1, 292137, Control_c, 0, 64, 101
1, 292140, Note_on_c, 0, 52, 45
1, 292140, Note_on_c, 0, 81, 63
1, 292142, Note_on_c, 0, 59, 37
1, 292149, Note_on_c, 0, 48, 35
1, 292191, Note_off_c, 0, 59, 47
1, 292193, Note_off_c, 0, 52, 60
1, 292195, Control_c, 0, 64, 102
1, 292201, Note_off_c, 0, 48, 45
1, 292286, Note_on_c, 0, 48, 29
1, 292289, Note_on_c, 0, 52, 34
1, 292298, Note_off_c, 0, 83, 51
1, 292301, Note_on_c, 0, 59, 19
1, 292325, Note_off_c, 0, 52, 54
1, 292336, Note_off_c, 0, 48, 46
1, 292343, Note_off_c, 0, 59, 50
1, 292409, Note_on_c, 0, 48, 38
1, 292417, Note_on_c, 0, 52, 44
1, 292430, Note_on_c, 0, 59, 45
1, 292431, Note_on_c, 0, 80, 58
1, 292460, Note_off_c, 0, 81, 49
1, 292462, Note_off_c, 0, 59, 51
1, 292463, Note_off_c, 0, 52, 62
1, 292466, Note_off_c, 0, 48, 53
1, 292549, Note_on_c, 0, 48, 27
1, 292556, Note_on_c, 0, 59, 47
1, 292563, Note_on_c, 0, 52, 37
1, 292594, Note_off_c, 0, 59, 48
1, 292597, Note_off_c, 0, 52, 55
1, 292632, Note_on_c, 0, 81, 63
1, 292637, Note_off_c, 0, 48, 0
1, 292666, Note_on_c, 0, 48, 8
1, 292692, Note_on_c, 0, 52, 38
1, 292694, Note_on_c, 0, 59, 42
1, 292701, Note_off_c, 0, 80, 39
1, 292727, Note_off_c, 0, 59, 51
1, 292739, Note_off_c, 0, 52, 61
1, 292781, Control_c, 0, 64, 101
1, 292796, Control_c, 0, 64, 96
1, 292811, Control_c, 0, 64, 84
1, 292812, Note_off_c, 0, 48, 0
1, 292823, Note_off_c, 0, 76, 65
1, 292826, Control_c, 0, 64, 70
1, 292830, Note_off_c, 0, 81, 61
1, 292831, Note_on_c, 0, 48, 25
1, 292834, Note_on_c, 0, 57, 46
1, 292835, Note_on_c, 0, 52, 46
1, 292841, Note_on_c, 0, 71, 56
1, 292841, Control_c, 0, 64, 51
1, 292856, Control_c, 0, 64, 0
1, 292870, Control_c, 0, 64, 22
1, 292878, Note_off_c, 0, 52, 62
1, 292881, Note_off_c, 0, 57, 59
1, 292883, Note_off_c, 0, 48, 57
1, 292885, Control_c, 0, 64, 59
1, 292900, Control_c, 0, 64, 67
1, 292915, Control_c, 0, 64, 73
1, 292930, Control_c, 0, 64, 80
1, 292945, Control_c, 0, 64, 86
1, 292959, Control_c, 0, 64, 89
1, 292966, Note_on_c, 0, 57, 56
1, 292972, Note_on_c, 0, 52, 40
1, 292974, Control_c, 0, 64, 90
1, 292976, Note_on_c, 0, 48, 27
1, 292989, Control_c, 0, 64, 90
1, 293004, Control_c, 0, 64, 91
1, 293008, Note_off_c, 0, 57, 58
1, 293025, Note_off_c, 0, 52, 58
1, 293025, Control_c, 0, 64, 92
1, 293038, Note_off_c, 0, 48, 44
1, 293040, Control_c, 0, 64, 93
1, 293052, Note_on_c, 0, 69, 57
1, 293055, Control_c, 0, 64, 94
1, 293085, Control_c, 0, 64, 95
1, 293100, Control_c, 0, 64, 95
1, 293114, Note_on_c, 0, 48, 35
1, 293115, Control_c, 0, 64, 96
1, 293119, Note_on_c, 0, 52, 47
1, 293127, Note_on_c, 0, 57, 37
1, 293155, Note_off_c, 0, 57, 53
1, 293170, Note_off_c, 0, 52, 60
1, 293225, Note_off_c, 0, 48, 0
1, 293241, Note_on_c, 0, 48, 31
1, 293247, Note_on_c, 0, 57, 51
1, 293251, Note_on_c, 0, 68, 72
1, 293252, Note_on_c, 0, 52, 48
1, 293278, Control_c, 0, 64, 96
1, 293286, Note_off_c, 0, 69, 62
1, 293289, Note_off_c, 0, 57, 56
1, 293295, Note_off_c, 0, 52, 57
1, 293297, Note_off_c, 0, 71, 38
1, 293303, Note_off_c, 0, 48, 57
1, 293322, Control_c, 0, 64, 97
1, 293384, Note_on_c, 0, 48, 28
1, 293395, Note_on_c, 0, 52, 43
1, 293397, Note_on_c, 0, 57, 46
1, 293433, Note_off_c, 0, 57, 51
1, 293446, Note_off_c, 0, 52, 59
1, 293475, Note_on_c, 0, 69, 70
1, 293505, Note_off_c, 0, 68, 64
1, 293505, Note_off_c, 0, 48, 0
1, 293529, Note_on_c, 0, 48, 16
1, 293541, Note_on_c, 0, 57, 54
1, 293561, Note_on_c, 0, 52, 9
1, 293573, Note_off_c, 0, 57, 63
1, 293586, Note_off_c, 0, 48, 60
1, 293600, Note_off_c, 0, 52, 38
1, 293789, Control_c, 0, 64, 96
1, 293804, Control_c, 0, 64, 90
1, 293819, Control_c, 0, 64, 77
1, 293833, Note_on_c, 0, 35, 45
1, 293833, Note_on_c, 0, 81, 63
1, 293834, Control_c, 0, 64, 65
1, 293845, Note_on_c, 0, 74, 51
1, 293848, Control_c, 0, 64, 23
1, 293863, Control_c, 0, 64, 0
1, 293938, Control_c, 0, 64, 61
1, 293953, Control_c, 0, 64, 70
1, 293967, Control_c, 0, 64, 78
1, 293982, Control_c, 0, 64, 86
1, 293997, Control_c, 0, 64, 90
1, 294011, Note_off_c, 0, 35, 42
1, 294012, Control_c, 0, 64, 93
1, 294027, Control_c, 0, 64, 94
1, 294041, Control_c, 0, 64, 96
1, 294056, Control_c, 0, 64, 97
1, 294071, Control_c, 0, 64, 98
1, 294086, Control_c, 0, 64, 98
1, 294124, Note_off_c, 0, 69, 41
1, 294145, Control_c, 0, 64, 99
1, 294173, Note_on_c, 0, 57, 44
1, 294180, Note_on_c, 0, 79, 54
1, 294190, Note_on_c, 0, 50, 29
1, 294212, Note_off_c, 0, 57, 50
1, 294219, Control_c, 0, 64, 99
1, 294234, Note_off_c, 0, 50, 47
1, 294308, Note_on_c, 0, 47, 16
1, 294309, Note_on_c, 0, 50, 40
1, 294311, Note_on_c, 0, 57, 48
1, 294352, Note_off_c, 0, 57, 52
1, 294367, Note_off_c, 0, 50, 54
1, 294413, Note_off_c, 0, 47, 0
1, 294429, Note_on_c, 0, 78, 57
1, 294434, Note_on_c, 0, 50, 32
1, 294435, Note_on_c, 0, 47, 26
1, 294456, Note_on_c, 0, 57, 39
1, 294462, Note_off_c, 0, 81, 25
1, 294480, Note_off_c, 0, 57, 56
1, 294489, Note_off_c, 0, 79, 55
1, 294491, Note_off_c, 0, 50, 56
1, 294561, Note_off_c, 0, 47, 0
1, 294572, Note_on_c, 0, 57, 53
1, 294580, Note_on_c, 0, 47, 31
1, 294585, Note_on_c, 0, 50, 29
1, 294627, Note_off_c, 0, 57, 57
1, 294640, Note_off_c, 0, 50, 53
1, 294641, Note_on_c, 0, 79, 60
1, 294671, Note_off_c, 0, 47, 0
1, 294709, Poly_aftertouch_c, 0, 47, 127
1, 294712, Note_off_c, 0, 78, 39
1, 294714, Note_on_c, 0, 57, 48
1, 294719, Note_on_c, 0, 50, 29
1, 294757, Note_off_c, 0, 57, 59
1, 294775, Control_c, 0, 64, 100
1, 294784, Note_off_c, 0, 50, 50
1, 294804, Control_c, 0, 64, 99
1, 294819, Control_c, 0, 64, 96
1, 294823, Poly_aftertouch_c, 0, 47, 0
1, 294834, Control_c, 0, 64, 86
1, 294847, Note_on_c, 0, 47, 26
1, 294847, Note_on_c, 0, 50, 30
1, 294849, Control_c, 0, 64, 71
1, 294853, Note_on_c, 0, 55, 58
1, 294856, Note_on_c, 0, 72, 59
1, 294858, Note_off_c, 0, 74, 60
1, 294863, Control_c, 0, 64, 37
1, 294865, Note_off_c, 0, 79, 61
1, 294878, Control_c, 0, 64, 0
1, 294898, Note_off_c, 0, 55, 60
1, 294906, Note_off_c, 0, 50, 54
1, 294908, Control_c, 0, 64, 51
1, 294923, Control_c, 0, 64, 67
1, 294935, Note_off_c, 0, 47, 37
1, 294937, Control_c, 0, 64, 73
1, 294952, Control_c, 0, 64, 80
1, 294967, Control_c, 0, 64, 86
1, 294981, Control_c, 0, 64, 88
1, 294996, Note_on_c, 0, 50, 36
1, 294996, Control_c, 0, 64, 89
1, 294997, Note_on_c, 0, 47, 23
1, 294999, Note_on_c, 0, 55, 56
1, 295011, Control_c, 0, 64, 91
1, 295026, Control_c, 0, 64, 92
1, 295041, Note_off_c, 0, 55, 60
1, 295041, Control_c, 0, 64, 94
1, 295055, Note_off_c, 0, 50, 54
1, 295055, Control_c, 0, 64, 95
1, 295070, Control_c, 0, 64, 96
1, 295082, Note_off_c, 0, 47, 36
1, 295100, Control_c, 0, 64, 97
1, 295113, Note_on_c, 0, 71, 77
1, 295115, Control_c, 0, 64, 98
1, 295131, Control_c, 0, 64, 98
1, 295142, Note_on_c, 0, 50, 27
1, 295142, Note_off_c, 0, 72, 66
1, 295151, Note_on_c, 0, 47, 23
1, 295154, Note_on_c, 0, 55, 38
1, 295160, Control_c, 0, 64, 99
1, 295175, Control_c, 0, 64, 99
1, 295190, Control_c, 0, 64, 100
1, 295198, Note_off_c, 0, 55, 49
1, 295199, Note_off_c, 0, 50, 57
1, 295205, Control_c, 0, 64, 101
1, 295210, Note_off_c, 0, 47, 44
1, 295219, Control_c, 0, 64, 102
1, 295249, Control_c, 0, 64, 102
1, 295287, Control_c, 0, 64, 103
1, 295301, Control_c, 0, 64, 103
1, 295314, Note_on_c, 0, 50, 38
1, 295316, Note_on_c, 0, 47, 31
1, 295321, Note_on_c, 0, 55, 45
1, 295357, Note_on_c, 0, 69, 78
1, 295360, Note_off_c, 0, 50, 59
1, 295362, Note_off_c, 0, 55, 49
1, 295386, Note_off_c, 0, 47, 40
1, 295434, Note_off_c, 0, 71, 59
1, 295455, Note_on_c, 0, 55, 39
1, 295457, Note_on_c, 0, 47, 27
1, 295461, Note_on_c, 0, 50, 38
1, 295481, Note_off_c, 0, 55, 55
1, 295504, Note_off_c, 0, 50, 47
1, 295521, Note_off_c, 0, 47, 41
1, 295566, Note_on_c, 0, 67, 80
1, 295591, Note_on_c, 0, 55, 54
1, 295594, Note_on_c, 0, 47, 43
1, 295601, Note_on_c, 0, 50, 46
1, 295608, Note_off_c, 0, 69, 65
1, 295626, Note_off_c, 0, 50, 60
1, 295626, Note_off_c, 0, 55, 63
1, 295628, Control_c, 0, 64, 104
1, 295639, Note_off_c, 0, 47, 63
1, 295643, Control_c, 0, 64, 105
1, 295658, Control_c, 0, 64, 106
1, 295673, Control_c, 0, 64, 107
1, 295687, Control_c, 0, 64, 109
1, 295702, Control_c, 0, 64, 113
1, 295717, Control_c, 0, 64, 118
1, 295731, Control_c, 0, 64, 125
1, 295741, Note_off_c, 0, 67, 62
1, 295746, Control_c, 0, 64, 127
1, 295835, Control_c, 0, 64, 119
1, 295850, Control_c, 0, 64, 100
1, 295865, Control_c, 0, 64, 82
1, 295879, Control_c, 0, 64, 64
1, 295886, Note_on_c, 0, 78, 82
1, 295887, Note_on_c, 0, 36, 55
1, 295887, Note_on_c, 0, 74, 67
1, 295894, Note_on_c, 0, 66, 76
1, 295894, Control_c, 0, 64, 0
1, 295955, Control_c, 0, 64, 64
1, 295970, Control_c, 0, 64, 72
1, 295984, Control_c, 0, 64, 81
1, 295999, Control_c, 0, 64, 90
1, 296017, Note_off_c, 0, 36, 64
1, 296021, Control_c, 0, 64, 99
1, 296036, Control_c, 0, 64, 103
1, 296051, Control_c, 0, 64, 105
1, 296066, Control_c, 0, 64, 107
1, 296081, Note_off_c, 0, 66, 65
1, 296081, Control_c, 0, 64, 109
1, 296093, Note_off_c, 0, 78, 65
1, 296096, Control_c, 0, 64, 110
1, 296110, Control_c, 0, 64, 110
1, 296143, Note_on_c, 0, 52, 60
1, 296146, Note_on_c, 0, 55, 55
1, 296161, Note_on_c, 0, 76, 78
1, 296167, Note_on_c, 0, 48, 33
1, 296168, Note_on_c, 0, 64, 67
1, 296178, Note_on_c, 0, 72, 68
1, 296186, Note_off_c, 0, 52, 56
1, 296195, Note_off_c, 0, 55, 59
1, 296206, Note_off_c, 0, 48, 54
1, 296209, Note_off_c, 0, 74, 61
1, 296264, Note_off_c, 0, 64, 62
1, 296284, Note_on_c, 0, 55, 47
1, 296290, Note_on_c, 0, 52, 53
1, 296294, Note_on_c, 0, 48, 52
1, 296303, Control_c, 0, 64, 111
1, 296313, Note_off_c, 0, 72, 63
1, 296317, Note_off_c, 0, 55, 64
1, 296317, Control_c, 0, 64, 112
1, 296323, Note_off_c, 0, 52, 63
1, 296335, Note_off_c, 0, 48, 58
1, 296361, Control_c, 0, 64, 111
1, 296367, Note_off_c, 0, 76, 61
1, 296376, Control_c, 0, 64, 109
1, 296385, Note_on_c, 0, 74, 74
1, 296391, Control_c, 0, 64, 102
1, 296393, Note_on_c, 0, 62, 76
1, 296394, Note_on_c, 0, 71, 69
1, 296406, Control_c, 0, 64, 96
1, 296409, Note_on_c, 0, 48, 50
1, 296416, Note_on_c, 0, 56, 53
1, 296418, Note_on_c, 0, 52, 53
1, 296421, Control_c, 0, 64, 91
1, 296436, Control_c, 0, 64, 89
1, 296440, Note_off_c, 0, 52, 63
1, 296442, Note_off_c, 0, 48, 56
1, 296447, Note_off_c, 0, 56, 56
1, 296480, Control_c, 0, 64, 90
1, 296481, Note_off_c, 0, 71, 59
1, 296495, Control_c, 0, 64, 91
1, 296496, Note_off_c, 0, 62, 60
1, 296510, Control_c, 0, 64, 93
1, 296516, Note_on_c, 0, 56, 55
1, 296525, Control_c, 0, 64, 93
1, 296527, Note_on_c, 0, 48, 51
1, 296527, Note_on_c, 0, 52, 55
1, 296540, Control_c, 0, 64, 95
1, 296554, Control_c, 0, 64, 96
1, 296565, Note_off_c, 0, 48, 61
1, 296569, Control_c, 0, 64, 96
1, 296570, Note_off_c, 0, 52, 56
1, 296584, Control_c, 0, 64, 97
1, 296585, Note_off_c, 0, 56, 50
1, 296598, Note_on_c, 0, 69, 78
1, 296599, Control_c, 0, 64, 97
1, 296601, Note_on_c, 0, 72, 75
1, 296612, Note_on_c, 0, 60, 61
1, 296614, Control_c, 0, 64, 98
1, 296618, Note_off_c, 0, 74, 57
1, 296628, Control_c, 0, 64, 99
1, 296643, Control_c, 0, 64, 101
1, 296658, Control_c, 0, 64, 102
1, 296662, Note_on_c, 0, 57, 64
1, 296666, Note_on_c, 0, 48, 54
1, 296673, Control_c, 0, 64, 103
1, 296686, Note_on_c, 0, 52, 15
1, 296688, Control_c, 0, 64, 105
1, 296692, Note_off_c, 0, 57, 63
1, 296692, Note_off_c, 0, 69, 61
1, 296702, Control_c, 0, 64, 108
1, 296710, Note_off_c, 0, 48, 63
1, 296717, Control_c, 0, 64, 111
1, 296720, Note_off_c, 0, 52, 55
1, 296725, Note_off_c, 0, 60, 58
1, 296733, Control_c, 0, 64, 113
1, 296748, Control_c, 0, 64, 113
1, 296770, Control_c, 0, 64, 114
1, 296784, Control_c, 0, 64, 113
1, 296799, Control_c, 0, 64, 111
1, 296814, Control_c, 0, 64, 98
1, 296829, Control_c, 0, 64, 79
1, 296844, Control_c, 0, 64, 52
1, 296859, Control_c, 0, 64, 0
1, 296870, Note_on_c, 0, 38, 53
1, 296870, Note_on_c, 0, 71, 71
1, 296873, Note_on_c, 0, 67, 63
1, 296882, Note_on_c, 0, 59, 53
1, 296896, Note_off_c, 0, 72, 55
1, 296933, Control_c, 0, 64, 58
1, 296948, Control_c, 0, 64, 70
1, 296963, Control_c, 0, 64, 78
1, 296963, Note_off_c, 0, 38, 63
1, 296978, Control_c, 0, 64, 85
1, 296992, Control_c, 0, 64, 89
1, 297007, Control_c, 0, 64, 92
1, 297012, Note_off_c, 0, 59, 58
1, 297022, Control_c, 0, 64, 94
1, 297028, Note_off_c, 0, 67, 60
1, 297037, Control_c, 0, 64, 97
1, 297052, Control_c, 0, 64, 99
1, 297066, Control_c, 0, 64, 100
1, 297069, Note_on_c, 0, 50, 42
1, 297081, Control_c, 0, 64, 101
1, 297084, Note_on_c, 0, 55, 21
1, 297096, Control_c, 0, 64, 102
1, 297109, Note_off_c, 0, 50, 47
1, 297111, Control_c, 0, 64, 102
1, 297122, Note_off_c, 0, 55, 53
1, 297126, Control_c, 0, 64, 103
1, 297140, Control_c, 0, 64, 103
1, 297155, Control_c, 0, 64, 104
1, 297180, Note_on_c, 0, 50, 44
1, 297184, Control_c, 0, 64, 104
1, 297185, Note_on_c, 0, 55, 39
1, 297199, Control_c, 0, 64, 105
1, 297206, Note_off_c, 0, 50, 61
1, 297212, Note_off_c, 0, 55, 57
1, 297214, Control_c, 0, 64, 107
1, 297229, Control_c, 0, 64, 108
1, 297244, Control_c, 0, 64, 108
1, 297288, Control_c, 0, 64, 103
1, 297303, Control_c, 0, 64, 91
1, 297318, Control_c, 0, 64, 76
1, 297323, Note_off_c, 0, 71, 62
1, 297333, Control_c, 0, 64, 59
1, 297336, Note_on_c, 0, 72, 69
1, 297341, Note_on_c, 0, 66, 58
1, 297342, Note_on_c, 0, 38, 49
1, 297345, Note_on_c, 0, 60, 59
1, 297348, Control_c, 0, 64, 0
1, 297378, Control_c, 0, 64, 18
1, 297392, Control_c, 0, 64, 65
1, 297401, Note_off_c, 0, 38, 63
1, 297407, Control_c, 0, 64, 72
1, 297422, Control_c, 0, 64, 79
1, 297437, Control_c, 0, 64, 84
1, 297451, Control_c, 0, 64, 87
1, 297466, Control_c, 0, 64, 90
1, 297481, Control_c, 0, 64, 92
1, 297496, Control_c, 0, 64, 93
1, 297518, Control_c, 0, 64, 94
1, 297543, Note_on_c, 0, 57, 48
1, 297549, Control_c, 0, 64, 95
1, 297563, Note_on_c, 0, 50, 24
1, 297563, Control_c, 0, 64, 95
1, 297575, Note_on_c, 0, 54, 13
1, 297577, Note_off_c, 0, 57, 56
1, 297578, Control_c, 0, 64, 96
1, 297607, Note_off_c, 0, 50, 50
1, 297617, Note_off_c, 0, 60, 38
1, 297619, Note_off_c, 0, 54, 42
1, 297684, Note_off_c, 0, 72, 59
1, 297707, Note_on_c, 0, 57, 36
1, 297732, Note_on_c, 0, 50, 21
1, 297745, Note_off_c, 0, 57, 52
1, 297762, Note_on_c, 0, 69, 55
1, 297769, Note_off_c, 0, 66, 63
1, 297774, Note_off_c, 0, 50, 37
1, 297932, Control_c, 0, 64, 95
1, 297947, Control_c, 0, 64, 92
1, 297957, Note_off_c, 0, 69, 60
1, 297962, Control_c, 0, 64, 84
1, 297977, Control_c, 0, 64, 73
1, 297992, Control_c, 0, 64, 58
1, 298006, Control_c, 0, 64, 0
1, 298007, Note_on_c, 0, 67, 52
1, 298025, Note_on_c, 0, 59, 45
1, 298033, Note_on_c, 0, 50, 31
1, 298034, Note_on_c, 0, 55, 31
1, 298036, Note_on_c, 0, 43, 34
1, 298095, Control_c, 0, 64, 23
1, 298110, Control_c, 0, 64, 68
1, 298124, Control_c, 0, 64, 74
1, 298139, Control_c, 0, 64, 80
1, 298154, Control_c, 0, 64, 83
1, 298169, Control_c, 0, 64, 86
1, 298184, Control_c, 0, 64, 88
1, 298199, Control_c, 0, 64, 91
1, 298210, Note_off_c, 0, 67, 64
1, 298213, Control_c, 0, 64, 94
1, 298228, Control_c, 0, 64, 96
1, 298243, Control_c, 0, 64, 98
1, 298244, Note_off_c, 0, 59, 58
1, 298281, Note_off_c, 0, 55, 43
1, 298295, Control_c, 0, 64, 98
1, 298310, Control_c, 0, 64, 99
1, 298322, Note_off_c, 0, 50, 37
1, 298325, Control_c, 0, 64, 99
1, 298349, Note_off_c, 0, 43, 42
1, 298515, Note_on_c, 0, 67, 41
1, 298524, Note_on_c, 0, 55, 25
1, 298627, Note_off_c, 0, 67, 40
1, 298689, Note_off_c, 0, 55, 0
1, 298708, Note_on_c, 0, 55, 21
1, 298713, Note_on_c, 0, 67, 41
1, 298781, Note_off_c, 0, 67, 55
1, 298844, Note_off_c, 0, 55, 0
1, 298865, Note_on_c, 0, 67, 39
1, 298865, Note_on_c, 0, 55, 22
1, 298921, Note_off_c, 0, 67, 55
1, 298987, Note_off_c, 0, 55, 0
1, 299015, Note_on_c, 0, 55, 17
1, 299023, Note_on_c, 0, 67, 29
1, 299073, Note_off_c, 0, 67, 44
1, 299080, Note_off_c, 0, 55, 41
1, 299160, Note_on_c, 0, 67, 32
1, 299165, Note_on_c, 0, 55, 25
1, 299214, Note_off_c, 0, 67, 42
1, 299214, Note_off_c, 0, 55, 45
1, 299303, Note_on_c, 0, 67, 29
1, 299306, Note_on_c, 0, 55, 22
1, 299348, Note_off_c, 0, 55, 47
1, 299357, Note_off_c, 0, 67, 42
1, 299401, Control_c, 0, 64, 99
1, 299440, Note_on_c, 0, 67, 29
1, 299444, Note_on_c, 0, 55, 33
1, 299488, Note_off_c, 0, 55, 46
1, 299491, Note_off_c, 0, 67, 44
1, 299520, Control_c, 0, 64, 98
1, 299578, Control_c, 0, 64, 98
1, 299579, Note_on_c, 0, 67, 34
1, 299582, Note_on_c, 0, 55, 36
1, 299608, Control_c, 0, 64, 97
1, 299626, Note_off_c, 0, 55, 46
1, 299638, Control_c, 0, 64, 97
1, 299667, Control_c, 0, 64, 96
1, 299682, Control_c, 0, 64, 96
1, 299697, Control_c, 0, 64, 95
1, 299699, Note_off_c, 0, 67, 0
1, 299712, Control_c, 0, 64, 94
1, 299718, Note_on_c, 0, 67, 25
1, 299727, Control_c, 0, 64, 93
1, 299729, Note_on_c, 0, 47, 51
1, 299738, Note_on_c, 0, 55, 27
1, 299741, Control_c, 0, 64, 92
1, 299764, Control_c, 0, 64, 92
1, 299778, Control_c, 0, 64, 91
1, 299793, Control_c, 0, 64, 91
1, 299796, Note_off_c, 0, 55, 44
1, 299808, Control_c, 0, 64, 90
1, 299830, Note_off_c, 0, 67, 0
1, 299838, Control_c, 0, 64, 90
1, 299867, Poly_aftertouch_c, 0, 67, 127
1, 299867, Control_c, 0, 64, 89
1, 299880, Note_on_c, 0, 55, 32
1, 299911, Control_c, 0, 64, 89
1, 299957, Control_c, 0, 64, 88
1, 299989, Note_off_c, 0, 55, 0
1, 300001, Control_c, 0, 64, 88
1, 300007, Note_on_c, 0, 55, 28
1, 300046, Control_c, 0, 64, 87
1, 300065, Note_off_c, 0, 55, 42
1, 300075, Control_c, 0, 64, 87
1, 300082, Note_on_c, 0, 48, 51
1, 300083, Note_off_c, 0, 47, 58
1, 300090, Control_c, 0, 64, 86
1, 300102, Poly_aftertouch_c, 0, 67, 0
1, 300105, Control_c, 0, 64, 84
1, 300120, Control_c, 0, 64, 82
1, 300135, Control_c, 0, 64, 77
1, 300150, Control_c, 0, 64, 71
1, 300165, Control_c, 0, 64, 66
1, 300176, Note_off_c, 0, 48, 64
1, 300180, Control_c, 0, 64, 62
1, 300195, Control_c, 0, 64, 61
1, 300206, Note_on_c, 0, 50, 45
1, 300224, Control_c, 0, 64, 61
1, 300234, Note_on_c, 0, 67, 33
1, 300254, Control_c, 0, 64, 62
1, 300257, Note_on_c, 0, 55, 22
1, 300269, Control_c, 0, 64, 62
1, 300284, Control_c, 0, 64, 63
1, 300298, Note_off_c, 0, 55, 48
1, 300299, Control_c, 0, 64, 64
1, 300314, Control_c, 0, 64, 65
1, 300328, Control_c, 0, 64, 67
1, 300343, Control_c, 0, 64, 70
1, 300358, Control_c, 0, 64, 74
1, 300367, Note_off_c, 0, 67, 0
1, 300373, Control_c, 0, 64, 77
1, 300385, Note_on_c, 0, 67, 20
1, 300388, Control_c, 0, 64, 79
1, 300397, Note_on_c, 0, 55, 38
1, 300402, Control_c, 0, 64, 81
1, 300417, Control_c, 0, 64, 82
1, 300432, Control_c, 0, 64, 83
1, 300438, Note_off_c, 0, 55, 47
1, 300447, Control_c, 0, 64, 84
1, 300461, Note_off_c, 0, 67, 38
1, 300462, Control_c, 0, 64, 85
1, 300466, Note_off_c, 0, 50, 31
1, 300533, Note_on_c, 0, 67, 24
1, 300540, Note_on_c, 0, 55, 33
1, 300558, Control_c, 0, 64, 85
1, 300582, Note_off_c, 0, 55, 47
1, 300587, Note_off_c, 0, 67, 45
1, 300617, Control_c, 0, 64, 85
1, 300632, Control_c, 0, 64, 84
1, 300647, Control_c, 0, 64, 83
1, 300662, Note_on_c, 0, 50, 49
1, 300662, Control_c, 0, 64, 81
1, 300677, Control_c, 0, 64, 79
1, 300685, Note_on_c, 0, 67, 33
1, 300692, Control_c, 0, 64, 75
1, 300705, Note_on_c, 0, 55, 10
1, 300707, Control_c, 0, 64, 70
1, 300722, Control_c, 0, 64, 67
1, 300730, Note_off_c, 0, 67, 44
1, 300737, Control_c, 0, 64, 66
1, 300752, Note_off_c, 0, 55, 46
1, 300767, Control_c, 0, 64, 66
1, 300781, Control_c, 0, 64, 67
1, 300796, Control_c, 0, 64, 68
1, 300811, Control_c, 0, 64, 70
1, 300816, Note_on_c, 0, 67, 37
1, 300825, Note_on_c, 0, 55, 26
1, 300826, Control_c, 0, 64, 72
1, 300840, Control_c, 0, 64, 74
1, 300855, Control_c, 0, 64, 76
1, 300867, Note_off_c, 0, 55, 49
1, 300870, Note_off_c, 0, 67, 43
1, 300870, Control_c, 0, 64, 76
1, 300885, Control_c, 0, 64, 77
1, 300900, Control_c, 0, 64, 77
1, 300914, Control_c, 0, 64, 78
1, 300929, Control_c, 0, 64, 79
1, 300931, Note_off_c, 0, 50, 55
1, 300944, Control_c, 0, 64, 80
1, 300946, Note_on_c, 0, 67, 33
1, 300955, Note_on_c, 0, 55, 38
1, 300959, Control_c, 0, 64, 81
1, 300992, Note_off_c, 0, 55, 49
1, 301011, Note_off_c, 0, 67, 42
1, 301048, Control_c, 0, 64, 80
1, 301063, Control_c, 0, 64, 78
1, 301078, Control_c, 0, 64, 75
1, 301091, Note_on_c, 0, 50, 53
1, 301093, Control_c, 0, 64, 71
1, 301096, Note_on_c, 0, 67, 36
1, 301104, Note_on_c, 0, 55, 40
1, 301107, Control_c, 0, 64, 67
1, 301122, Control_c, 0, 64, 65
1, 301144, Note_off_c, 0, 55, 48
1, 301151, Control_c, 0, 64, 66
1, 301165, Note_off_c, 0, 67, 39
1, 301181, Control_c, 0, 64, 66
1, 301196, Control_c, 0, 64, 67
1, 301211, Control_c, 0, 64, 68
1, 301226, Control_c, 0, 64, 69
1, 301235, Note_on_c, 0, 67, 17
1, 301241, Control_c, 0, 64, 71
1, 301256, Note_on_c, 0, 55, 29
1, 301263, Control_c, 0, 64, 73
1, 301278, Control_c, 0, 64, 74
1, 301293, Note_off_c, 0, 67, 45
1, 301293, Note_off_c, 0, 55, 50
1, 301293, Control_c, 0, 64, 74
1, 301307, Control_c, 0, 64, 75
1, 301322, Control_c, 0, 64, 75
1, 301337, Control_c, 0, 64, 76
1, 301351, Control_c, 0, 64, 76
1, 301389, Note_on_c, 0, 55, 42
1, 301395, Note_on_c, 0, 67, 31
1, 301424, Note_off_c, 0, 55, 49
1, 301432, Note_off_c, 0, 67, 49
1, 301470, Control_c, 0, 64, 76
1, 301485, Control_c, 0, 64, 75
1, 301500, Control_c, 0, 64, 73
1, 301515, Control_c, 0, 64, 71
1, 301529, Note_on_c, 0, 48, 55
1, 301531, Control_c, 0, 64, 68
1, 301545, Note_off_c, 0, 50, 57
1, 301546, Control_c, 0, 64, 65
1, 301551, Note_on_c, 0, 67, 39
1, 301553, Note_on_c, 0, 55, 37
1, 301561, Control_c, 0, 64, 64
1, 301590, Note_off_c, 0, 55, 49
1, 301593, Note_off_c, 0, 67, 46
1, 301620, Control_c, 0, 64, 65
1, 301635, Control_c, 0, 64, 65
1, 301649, Control_c, 0, 64, 66
1, 301664, Control_c, 0, 64, 68
1, 301679, Control_c, 0, 64, 70
1, 301688, Note_on_c, 0, 67, 39
1, 301694, Control_c, 0, 64, 71
1, 301700, Note_on_c, 0, 55, 35
1, 301709, Control_c, 0, 64, 72
1, 301724, Control_c, 0, 64, 72
1, 301730, Note_off_c, 0, 67, 48
1, 301734, Note_off_c, 0, 55, 52
1, 301739, Control_c, 0, 64, 73
1, 301754, Control_c, 0, 64, 74
1, 301768, Control_c, 0, 64, 75
1, 301783, Control_c, 0, 64, 75
1, 301848, Note_on_c, 0, 67, 11
1, 301871, Poly_aftertouch_c, 0, 55, 127
1, 301887, Control_c, 0, 64, 75
1, 301891, Note_on_c, 0, 50, 48
1, 301893, Note_off_c, 0, 67, 39
1, 301902, Control_c, 0, 64, 74
1, 301903, Note_off_c, 0, 48, 55
1, 301912, Poly_aftertouch_c, 0, 55, 0
1, 301917, Control_c, 0, 64, 73
1, 301931, Control_c, 0, 64, 71
1, 301946, Control_c, 0, 64, 68
1, 301961, Control_c, 0, 64, 65
1, 301975, Control_c, 0, 64, 64
1, 302013, Control_c, 0, 64, 63
1, 302028, Control_c, 0, 64, 63
1, 302042, Note_off_c, 0, 50, 62
1, 302043, Control_c, 0, 64, 60
1, 302052, Note_on_c, 0, 51, 55
1, 302057, Control_c, 0, 64, 58
1, 302072, Control_c, 0, 64, 57
1, 302077, Note_on_c, 0, 55, 37
1, 302086, Note_on_c, 0, 67, 33
1, 302153, Note_off_c, 0, 67, 41
1, 302161, Control_c, 0, 64, 58
1, 302175, Control_c, 0, 64, 59
1, 302190, Control_c, 0, 64, 61
1, 302205, Control_c, 0, 64, 62
1, 302220, Control_c, 0, 64, 62
1, 302233, Note_off_c, 0, 55, 0
1, 302235, Control_c, 0, 64, 63
1, 302249, Control_c, 0, 64, 65
1, 302254, Note_on_c, 0, 55, 19
1, 302254, Note_on_c, 0, 67, 42
1, 302264, Control_c, 0, 64, 67
1, 302279, Control_c, 0, 64, 69
1, 302294, Control_c, 0, 64, 70
1, 302308, Control_c, 0, 64, 72
1, 302313, Note_off_c, 0, 67, 53
1, 302325, Control_c, 0, 64, 72
1, 302340, Control_c, 0, 64, 73
1, 302354, Control_c, 0, 64, 74
1, 302366, Note_off_c, 0, 55, 0
1, 302369, Control_c, 0, 64, 75
1, 302384, Control_c, 0, 64, 75
1, 302387, Note_on_c, 0, 55, 22
1, 302387, Note_on_c, 0, 67, 40
1, 302398, Control_c, 0, 64, 76
1, 302428, Control_c, 0, 64, 77
1, 302445, Note_off_c, 0, 67, 56
1, 302475, Note_off_c, 0, 55, 37
1, 302487, Control_c, 0, 64, 77
1, 302523, Note_on_c, 0, 55, 40
1, 302527, Note_on_c, 0, 67, 43
1, 302570, Note_off_c, 0, 55, 58
1, 302577, Note_off_c, 0, 67, 47
1, 302654, Note_off_c, 0, 51, 35
1, 302669, Note_on_c, 0, 67, 37
1, 302673, Note_on_c, 0, 55, 40
1, 302712, Note_off_c, 0, 55, 50
1, 302714, Note_on_c, 0, 50, 49
1, 302720, Note_off_c, 0, 67, 43
1, 302813, Note_on_c, 0, 67, 34
1, 302821, Note_on_c, 0, 55, 44
1, 302851, Note_off_c, 0, 67, 47
1, 302857, Note_off_c, 0, 55, 52
1, 302895, Control_c, 0, 64, 77
1, 302910, Control_c, 0, 64, 75
1, 302914, Note_off_c, 0, 50, 52
1, 302924, Control_c, 0, 64, 72
1, 302939, Control_c, 0, 64, 68
1, 302941, Note_on_c, 0, 48, 54
1, 302952, Note_on_c, 0, 55, 48
1, 302954, Control_c, 0, 64, 64
1, 302962, Note_on_c, 0, 67, 46
1, 302969, Control_c, 0, 64, 59
1, 302984, Control_c, 0, 64, 56
1, 302994, Note_off_c, 0, 55, 47
1, 302995, Note_off_c, 0, 67, 53
1, 303013, Control_c, 0, 64, 57
1, 303028, Control_c, 0, 64, 59
1, 303043, Control_c, 0, 64, 62
1, 303058, Control_c, 0, 64, 65
1, 303072, Control_c, 0, 64, 68
1, 303087, Control_c, 0, 64, 71
1, 303098, Note_on_c, 0, 67, 42
1, 303101, Note_on_c, 0, 55, 43
1, 303102, Control_c, 0, 64, 73
1, 303117, Control_c, 0, 64, 74
1, 303133, Note_off_c, 0, 55, 52
1, 303133, Control_c, 0, 64, 75
1, 303137, Note_off_c, 0, 67, 48
1, 303147, Control_c, 0, 64, 76
1, 303162, Control_c, 0, 64, 78
1, 303177, Control_c, 0, 64, 79
1, 303192, Control_c, 0, 64, 79
1, 303207, Control_c, 0, 64, 80
1, 303236, Note_on_c, 0, 55, 46
1, 303236, Control_c, 0, 64, 80
1, 303246, Note_on_c, 0, 67, 40
1, 303251, Control_c, 0, 64, 81
1, 303266, Control_c, 0, 64, 81
1, 303272, Note_off_c, 0, 55, 49
1, 303281, Note_off_c, 0, 67, 49
1, 303325, Control_c, 0, 64, 81
1, 303340, Control_c, 0, 64, 78
1, 303347, Note_off_c, 0, 48, 54
1, 303354, Control_c, 0, 64, 74
1, 303369, Control_c, 0, 64, 68
1, 303371, Note_on_c, 0, 46, 55
1, 303384, Control_c, 0, 64, 62
1, 303387, Note_on_c, 0, 67, 47
1, 303390, Note_on_c, 0, 55, 39
1, 303399, Control_c, 0, 64, 60
1, 303414, Control_c, 0, 64, 61
1, 303429, Control_c, 0, 64, 63
1, 303442, Note_off_c, 0, 67, 54
1, 303444, Control_c, 0, 64, 66
1, 303454, Note_off_c, 0, 55, 41
1, 303459, Control_c, 0, 64, 68
1, 303474, Control_c, 0, 64, 71
1, 303488, Control_c, 0, 64, 73
1, 303510, Control_c, 0, 64, 75
1, 303525, Control_c, 0, 64, 76
1, 303526, Note_on_c, 0, 67, 49
1, 303532, Note_on_c, 0, 55, 41
1, 303540, Control_c, 0, 64, 77
1, 303554, Control_c, 0, 64, 78
1, 303567, Note_off_c, 0, 55, 56
1, 303569, Control_c, 0, 64, 78
1, 303602, Note_off_c, 0, 67, 56
1, 303629, Control_c, 0, 64, 79
1, 303657, Note_on_c, 0, 65, 61
1, 303669, Note_on_c, 0, 53, 59
1, 303683, Note_off_c, 0, 46, 58
1, 303709, Note_off_c, 0, 53, 50
1, 303715, Note_on_c, 0, 44, 51
1, 303727, Note_off_c, 0, 65, 57
1, 303762, Control_c, 0, 64, 76
1, 303777, Control_c, 0, 64, 69
1, 303792, Control_c, 0, 64, 60
1, 303798, Note_off_c, 0, 44, 63
1, 303807, Control_c, 0, 64, 0
1, 303856, Note_on_c, 0, 43, 57
1, 303858, Note_on_c, 0, 67, 63
1, 303864, Note_on_c, 0, 55, 52
1, 303865, Note_on_c, 0, 63, 57
1, 303866, Note_on_c, 0, 60, 53
1, 303881, Control_c, 0, 64, 60
1, 303895, Control_c, 0, 64, 68
1, 303910, Control_c, 0, 64, 72
1, 303911, Note_off_c, 0, 63, 59
1, 303912, Note_off_c, 0, 60, 56
1, 303921, Note_off_c, 0, 55, 53
1, 303926, Control_c, 0, 64, 76
1, 303936, Note_off_c, 0, 43, 61
1, 303941, Control_c, 0, 64, 78
1, 303944, Note_off_c, 0, 67, 53
1, 303956, Control_c, 0, 64, 80
1, 303970, Control_c, 0, 64, 81
1, 303985, Control_c, 0, 64, 81
1, 304015, Control_c, 0, 64, 82
1, 304030, Control_c, 0, 64, 82
1, 304059, Control_c, 0, 64, 83
1, 304087, Note_on_c, 0, 67, 39
1, 304089, Control_c, 0, 64, 83
1, 304093, Note_on_c, 0, 60, 38
1, 304096, Note_on_c, 0, 55, 22
1, 304103, Note_on_c, 0, 63, 36
1, 304117, Note_off_c, 0, 67, 49
1, 304118, Control_c, 0, 64, 84
1, 304126, Note_off_c, 0, 60, 50
1, 304129, Note_off_c, 0, 55, 52
1, 304132, Note_off_c, 0, 63, 52
1, 304133, Control_c, 0, 64, 84
1, 304148, Control_c, 0, 64, 85
1, 304226, Note_on_c, 0, 63, 32
1, 304234, Note_on_c, 0, 55, 26
1, 304234, Note_on_c, 0, 60, 34
1, 304266, Note_off_c, 0, 60, 53
1, 304272, Note_off_c, 0, 63, 51
1, 304274, Control_c, 0, 64, 82
1, 304279, Note_off_c, 0, 55, 49
1, 304289, Control_c, 0, 64, 76
1, 304304, Control_c, 0, 64, 67
1, 304319, Control_c, 0, 64, 58
1, 304333, Control_c, 0, 64, 52
1, 304343, Note_on_c, 0, 43, 51
1, 304348, Control_c, 0, 64, 60
1, 304353, Note_on_c, 0, 63, 44
1, 304358, Note_on_c, 0, 55, 30
1, 304359, Note_on_c, 0, 67, 10
1, 304363, Note_on_c, 0, 60, 50
1, 304363, Control_c, 0, 64, 65
1, 304377, Control_c, 0, 64, 69
1, 304390, Note_off_c, 0, 60, 59
1, 304392, Note_off_c, 0, 63, 54
1, 304392, Control_c, 0, 64, 72
1, 304407, Control_c, 0, 64, 74
1, 304408, Note_off_c, 0, 55, 44
1, 304414, Note_off_c, 0, 67, 43
1, 304422, Control_c, 0, 64, 77
1, 304437, Control_c, 0, 64, 79
1, 304451, Control_c, 0, 64, 80
1, 304458, Note_off_c, 0, 43, 57
1, 304466, Control_c, 0, 64, 80
1, 304486, Note_on_c, 0, 67, 19
1, 304490, Note_on_c, 0, 55, 26
1, 304491, Note_on_c, 0, 63, 40
1, 304496, Note_on_c, 0, 60, 46
1, 304496, Control_c, 0, 64, 81
1, 304511, Control_c, 0, 64, 82
1, 304523, Note_off_c, 0, 63, 51
1, 304526, Control_c, 0, 64, 83
1, 304529, Note_off_c, 0, 67, 46
1, 304532, Note_off_c, 0, 60, 48
1, 304534, Note_off_c, 0, 55, 47
1, 304541, Control_c, 0, 64, 83
1, 304556, Control_c, 0, 64, 84
1, 304570, Control_c, 0, 64, 84
1, 304585, Control_c, 0, 64, 85
1, 304615, Control_c, 0, 64, 85
1, 304630, Note_on_c, 0, 60, 40
1, 304634, Note_on_c, 0, 55, 35
1, 304638, Note_on_c, 0, 67, 19
1, 304651, Note_off_c, 0, 60, 58
1, 304659, Control_c, 0, 64, 84
1, 304674, Control_c, 0, 64, 81
1, 304675, Note_off_c, 0, 55, 48
1, 304675, Note_off_c, 0, 67, 43
1, 304679, Poly_aftertouch_c, 0, 63, 127
1, 304689, Control_c, 0, 64, 76
1, 304703, Poly_aftertouch_c, 0, 63, 0
1, 304703, Control_c, 0, 64, 68
1, 304720, Control_c, 0, 64, 57
1, 304734, Control_c, 0, 64, 49
1, 304746, Note_on_c, 0, 43, 60
1, 304749, Control_c, 0, 64, 52
1, 304755, Note_on_c, 0, 59, 53
1, 304759, Note_on_c, 0, 67, 56
1, 304761, Note_on_c, 0, 62, 50
1, 304764, Control_c, 0, 64, 57
1, 304767, Note_on_c, 0, 55, 53
1, 304779, Control_c, 0, 64, 63
1, 304793, Control_c, 0, 64, 67
1, 304806, Note_off_c, 0, 59, 59
1, 304808, Note_off_c, 0, 62, 58
1, 304808, Control_c, 0, 64, 71
1, 304812, Note_off_c, 0, 55, 50
1, 304818, Note_off_c, 0, 67, 51
1, 304823, Control_c, 0, 64, 75
1, 304838, Control_c, 0, 64, 78
1, 304853, Control_c, 0, 64, 79
1, 304867, Control_c, 0, 64, 80
1, 304873, Note_off_c, 0, 43, 60
1, 304882, Control_c, 0, 64, 81
1, 304889, Note_on_c, 0, 67, 21
1, 304897, Control_c, 0, 64, 81
1, 304898, Note_on_c, 0, 59, 42
1, 304904, Note_on_c, 0, 55, 35
1, 304906, Note_on_c, 0, 62, 48
1, 304912, Control_c, 0, 64, 82
1, 304927, Control_c, 0, 64, 83
1, 304937, Note_off_c, 0, 62, 53
1, 304940, Note_off_c, 0, 55, 49
1, 304941, Control_c, 0, 64, 84
1, 304949, Note_off_c, 0, 59, 44
1, 304956, Note_off_c, 0, 67, 39
1, 305008, Control_c, 0, 64, 85
1, 305036, Note_on_c, 0, 55, 33
1, 305044, Note_on_c, 0, 59, 31
1, 305050, Note_on_c, 0, 62, 43
1, 305054, Note_on_c, 0, 67, 3
1, 305077, Note_off_c, 0, 55, 47
1, 305078, Note_off_c, 0, 62, 53
1, 305080, Note_off_c, 0, 59, 49
1, 305094, Note_off_c, 0, 67, 45
1, 305112, Control_c, 0, 64, 82
1, 305126, Control_c, 0, 64, 77
1, 305141, Control_c, 0, 64, 70
1, 305156, Control_c, 0, 64, 63
1, 305167, Note_on_c, 0, 43, 51
1, 305170, Note_on_c, 0, 67, 37
1, 305171, Control_c, 0, 64, 56
1, 305177, Note_on_c, 0, 62, 50
1, 305181, Note_on_c, 0, 59, 45
1, 305183, Note_on_c, 0, 55, 28
1, 305186, Control_c, 0, 64, 58
1, 305200, Control_c, 0, 64, 62
1, 305215, Note_off_c, 0, 62, 56
1, 305215, Control_c, 0, 64, 64
1, 305220, Note_off_c, 0, 59, 48
1, 305230, Note_off_c, 0, 55, 45
1, 305230, Control_c, 0, 64, 66
1, 305245, Control_c, 0, 64, 68
1, 305260, Control_c, 0, 64, 71
1, 305274, Control_c, 0, 64, 73
1, 305283, Note_off_c, 0, 67, 0
1, 305289, Control_c, 0, 64, 76
1, 305304, Note_on_c, 0, 67, 14
1, 305304, Control_c, 0, 64, 78
1, 305315, Note_on_c, 0, 62, 46
1, 305319, Control_c, 0, 64, 79
1, 305320, Note_on_c, 0, 59, 42
1, 305322, Note_on_c, 0, 55, 30
1, 305329, Note_off_c, 0, 43, 60
1, 305334, Control_c, 0, 64, 80
1, 305349, Control_c, 0, 64, 81
1, 305362, Note_off_c, 0, 59, 46
1, 305363, Control_c, 0, 64, 81
1, 305364, Note_off_c, 0, 55, 47
1, 305365, Note_off_c, 0, 62, 44
1, 305378, Control_c, 0, 64, 82
1, 305393, Control_c, 0, 64, 82
1, 305408, Control_c, 0, 64, 83
1, 305441, Note_off_c, 0, 67, 0
1, 305457, Note_on_c, 0, 67, 30
1, 305462, Note_on_c, 0, 62, 46
1, 305467, Control_c, 0, 64, 84
1, 305481, Note_on_c, 0, 59, 37
1, 305482, Control_c, 0, 64, 84
1, 305488, Note_on_c, 0, 55, 21
1, 305497, Control_c, 0, 64, 85
1, 305501, Note_off_c, 0, 62, 50
1, 305518, Note_off_c, 0, 59, 52
1, 305527, Note_off_c, 0, 55, 53
1, 305556, Note_off_c, 0, 67, 36
1, 305602, Control_c, 0, 64, 84
1, 305616, Control_c, 0, 64, 81
1, 305631, Control_c, 0, 64, 75
1, 305646, Control_c, 0, 64, 67
1, 305661, Control_c, 0, 64, 56
1, 305676, Note_on_c, 0, 67, 49
1, 305676, Control_c, 0, 64, 0
1, 305687, Note_on_c, 0, 63, 45
1, 305688, Note_on_c, 0, 48, 44
1, 305689, Note_on_c, 0, 60, 38
1, 305697, Note_on_c, 0, 55, 28
1, 305831, Control_c, 0, 64, 49
1, 305846, Control_c, 0, 64, 63
1, 305861, Control_c, 0, 64, 66
1, 305876, Control_c, 0, 64, 70
1, 305891, Control_c, 0, 64, 73
1, 305899, Note_off_c, 0, 60, 59
1, 305905, Control_c, 0, 64, 77
1, 305909, Note_off_c, 0, 63, 62
1, 305918, Note_off_c, 0, 67, 52
1, 305920, Control_c, 0, 64, 79
1, 305925, Note_off_c, 0, 55, 41
1, 305935, Control_c, 0, 64, 81
1, 305949, Control_c, 0, 64, 83
1, 305964, Control_c, 0, 64, 84
1, 305979, Note_on_c, 0, 67, 37
1, 305979, Control_c, 0, 64, 86
1, 305994, Control_c, 0, 64, 87
1, 305997, Note_on_c, 0, 55, 36
1, 306009, Control_c, 0, 64, 89
1, 306023, Control_c, 0, 64, 90
1, 306038, Control_c, 0, 64, 91
1, 306046, Note_off_c, 0, 67, 54
1, 306049, Note_off_c, 0, 55, 45
1, 306053, Control_c, 0, 64, 92
1, 306068, Control_c, 0, 64, 94
1, 306083, Control_c, 0, 64, 95
1, 306097, Control_c, 0, 64, 96
1, 306112, Control_c, 0, 64, 96
1, 306127, Control_c, 0, 64, 97
1, 306135, Note_on_c, 0, 67, 49
1, 306141, Control_c, 0, 64, 98
1, 306144, Note_on_c, 0, 55, 46
1, 306156, Control_c, 0, 64, 99
1, 306171, Control_c, 0, 64, 100
1, 306182, Note_off_c, 0, 55, 51
1, 306186, Note_off_c, 0, 67, 56
1, 306201, Control_c, 0, 64, 100
1, 306216, Control_c, 0, 64, 101
1, 306231, Control_c, 0, 64, 102
1, 306246, Control_c, 0, 64, 102
1, 306261, Control_c, 0, 64, 103
1, 306273, Note_on_c, 0, 67, 54
1, 306285, Note_on_c, 0, 55, 53
1, 306290, Control_c, 0, 64, 103
1, 306305, Control_c, 0, 64, 104
1, 306320, Control_c, 0, 64, 105
1, 306326, Note_off_c, 0, 55, 60
1, 306329, Note_off_c, 0, 67, 56
1, 306335, Control_c, 0, 64, 106
1, 306350, Control_c, 0, 64, 107
1, 306365, Control_c, 0, 64, 107
1, 306380, Control_c, 0, 64, 109
1, 306395, Control_c, 0, 64, 110
1, 306410, Control_c, 0, 64, 112
1, 306412, Note_on_c, 0, 67, 54
1, 306417, Note_on_c, 0, 55, 58
1, 306425, Control_c, 0, 64, 114
1, 306439, Control_c, 0, 64, 116
1, 306440, Note_off_c, 0, 48, 41
1, 306454, Control_c, 0, 64, 118
1, 306455, Note_off_c, 0, 55, 61
1, 306466, Note_off_c, 0, 67, 59
1, 306469, Control_c, 0, 64, 122
1, 306484, Control_c, 0, 64, 127
1, 306550, Control_c, 0, 67, 125
1, 306552, Note_on_c, 0, 55, 61
1, 306553, Note_on_c, 0, 67, 58
1, 306565, Control_c, 0, 67, 118
1, 306580, Control_c, 0, 67, 110
1, 306595, Control_c, 0, 67, 101
1, 306598, Note_off_c, 0, 55, 56
1, 306601, Note_off_c, 0, 67, 59
1, 306609, Control_c, 0, 67, 91
1, 306624, Control_c, 0, 67, 80
1, 306639, Control_c, 0, 67, 66
1, 306654, Control_c, 0, 67, 54
1, 306669, Control_c, 0, 67, 42
1, 306680, Note_on_c, 0, 67, 66
1, 306684, Control_c, 0, 67, 33
1, 306689, Note_on_c, 0, 55, 66
1, 306699, Control_c, 0, 67, 26
1, 306714, Control_c, 0, 67, 22
1, 306728, Control_c, 0, 67, 17
1, 306733, Note_off_c, 0, 55, 57
1, 306736, Note_off_c, 0, 67, 62
1, 306743, Control_c, 0, 67, 15
1, 306758, Control_c, 0, 67, 12
1, 306772, Control_c, 0, 67, 9
1, 306787, Control_c, 0, 67, 0
1, 306809, Note_on_c, 0, 67, 70
1, 306814, Note_on_c, 0, 55, 66
1, 306864, Note_off_c, 0, 67, 62
1, 306871, Note_off_c, 0, 55, 62
1, 306949, Note_on_c, 0, 67, 75
1, 306949, Note_on_c, 0, 55, 72
1, 307006, Note_off_c, 0, 67, 59
1, 307013, Note_off_c, 0, 55, 63
1, 307086, Note_on_c, 0, 47, 85
1, 307090, Note_on_c, 0, 55, 73
1, 307090, Note_on_c, 0, 67, 76
1, 307092, Note_on_c, 0, 35, 76
1, 307114, Control_c, 0, 64, 120
1, 307129, Control_c, 0, 64, 108
1, 307143, Control_c, 0, 64, 99
1, 307156, Note_off_c, 0, 67, 60
1, 307158, Control_c, 0, 64, 92
1, 307161, Note_off_c, 0, 55, 60
1, 307173, Control_c, 0, 64, 88
1, 307188, Control_c, 0, 64, 87
1, 307203, Control_c, 0, 64, 87
1, 307218, Control_c, 0, 64, 90
1, 307224, Note_on_c, 0, 67, 80
1, 307225, Note_on_c, 0, 55, 72
1, 307240, Control_c, 0, 64, 95
1, 307255, Control_c, 0, 64, 101
1, 307269, Control_c, 0, 64, 109
1, 307279, Note_off_c, 0, 67, 61
1, 307283, Note_off_c, 0, 55, 61
1, 307284, Control_c, 0, 64, 117
1, 307299, Control_c, 0, 64, 125
1, 307314, Control_c, 0, 64, 127
1, 307340, Note_off_c, 0, 47, 63
1, 307340, Note_off_c, 0, 35, 63
1, 307349, Note_on_c, 0, 55, 75
1, 307349, Note_on_c, 0, 67, 85
1, 307413, Note_on_c, 0, 36, 80
1, 307413, Note_on_c, 0, 48, 80
1, 307414, Note_off_c, 0, 67, 60
1, 307415, Note_off_c, 0, 55, 58
1, 307447, Note_off_c, 0, 36, 67
1, 307448, Note_off_c, 0, 48, 66
1, 307512, Note_on_c, 0, 67, 82
1, 307514, Note_on_c, 0, 55, 81
1, 307516, Note_on_c, 0, 50, 91
1, 307518, Note_on_c, 0, 38, 90
1, 307521, Control_c, 0, 64, 112
1, 307536, Control_c, 0, 64, 93
1, 307551, Control_c, 0, 64, 77
1, 307566, Control_c, 0, 64, 65
1, 307581, Control_c, 0, 64, 27
1, 307590, Note_off_c, 0, 67, 59
1, 307595, Control_c, 0, 64, 0
1, 307599, Note_off_c, 0, 55, 61
1, 307610, Control_c, 0, 64, 39
1, 307625, Control_c, 0, 64, 60
1, 307640, Control_c, 0, 64, 67
1, 307655, Control_c, 0, 64, 73
1, 307666, Note_on_c, 0, 67, 78
1, 307669, Note_on_c, 0, 55, 73
1, 307669, Control_c, 0, 64, 81
1, 307684, Control_c, 0, 64, 90
1, 307699, Control_c, 0, 64, 96
1, 307713, Control_c, 0, 64, 103
1, 307722, Note_off_c, 0, 67, 63
1, 307728, Control_c, 0, 64, 112
1, 307729, Note_off_c, 0, 55, 64
1, 307743, Control_c, 0, 64, 121
1, 307758, Control_c, 0, 64, 127
1, 307802, Note_on_c, 0, 55, 76
1, 307805, Note_on_c, 0, 67, 82
1, 307837, Note_off_c, 0, 50, 56
1, 307849, Note_off_c, 0, 38, 62
1, 307854, Note_off_c, 0, 67, 63
1, 307860, Note_off_c, 0, 55, 63
1, 307944, Note_on_c, 0, 67, 87
1, 307945, Note_on_c, 0, 55, 86
1, 307945, Note_on_c, 0, 50, 90
1, 307948, Note_on_c, 0, 38, 93
1, 308006, Note_off_c, 0, 67, 59
1, 308012, Note_off_c, 0, 55, 61
1, 308084, Note_on_c, 0, 55, 75
1, 308085, Note_on_c, 0, 67, 82
1, 308127, Note_off_c, 0, 67, 65
1, 308130, Note_off_c, 0, 55, 62
1, 308218, Note_on_c, 0, 67, 88
1, 308220, Note_on_c, 0, 55, 83
1, 308250, Note_off_c, 0, 50, 57
1, 308260, Note_off_c, 0, 38, 62
1, 308270, Note_off_c, 0, 67, 61
1, 308273, Note_off_c, 0, 55, 64
1, 308361, Note_on_c, 0, 55, 86
1, 308361, Note_on_c, 0, 67, 84
1, 308364, Note_on_c, 0, 50, 99
1, 308366, Note_on_c, 0, 38, 96
1, 308389, Control_c, 0, 64, 116
1, 308404, Control_c, 0, 64, 106
1, 308417, Note_off_c, 0, 67, 62
1, 308419, Note_off_c, 0, 55, 60
1, 308419, Control_c, 0, 64, 102
1, 308434, Control_c, 0, 64, 102
1, 308497, Note_on_c, 0, 67, 86
1, 308499, Note_on_c, 0, 55, 79
1, 308508, Control_c, 0, 64, 103
1, 308523, Control_c, 0, 64, 105
1, 308537, Control_c, 0, 64, 106
1, 308547, Note_off_c, 0, 55, 62
1, 308547, Note_off_c, 0, 67, 62
1, 308552, Control_c, 0, 64, 107
1, 308567, Control_c, 0, 64, 108
1, 308582, Control_c, 0, 64, 110
1, 308597, Control_c, 0, 64, 112
1, 308611, Control_c, 0, 64, 114
1, 308625, Note_on_c, 0, 67, 94
1, 308626, Control_c, 0, 64, 116
1, 308633, Note_on_c, 0, 55, 80
1, 308641, Control_c, 0, 64, 118
1, 308656, Control_c, 0, 64, 121
1, 308670, Control_c, 0, 64, 125
1, 308671, Note_off_c, 0, 55, 62
1, 308685, Control_c, 0, 64, 127
1, 308690, Note_off_c, 0, 50, 58
1, 308690, Note_off_c, 0, 67, 58
1, 308704, Note_off_c, 0, 38, 62
1, 308780, Note_on_c, 0, 68, 89
1, 308783, Control_c, 0, 64, 112
1, 308783, Note_on_c, 0, 56, 91
1, 308788, Note_on_c, 0, 48, 101
1, 308791, Note_on_c, 0, 36, 95
1, 308797, Control_c, 0, 64, 97
1, 308812, Control_c, 0, 64, 82
1, 308827, Control_c, 0, 64, 68
1, 308842, Control_c, 0, 64, 33
1, 308857, Control_c, 0, 64, 0
1, 308857, Note_off_c, 0, 56, 58
1, 308872, Note_off_c, 0, 68, 63
1, 308872, Control_c, 0, 64, 40
1, 308887, Control_c, 0, 64, 65
1, 308902, Control_c, 0, 64, 76
1, 308916, Control_c, 0, 64, 87
1, 308931, Control_c, 0, 64, 99
1, 308937, Note_on_c, 0, 68, 89
1, 308946, Control_c, 0, 64, 104
1, 308948, Note_on_c, 0, 56, 79
1, 308961, Control_c, 0, 64, 107
1, 308975, Control_c, 0, 64, 108
1, 308990, Control_c, 0, 64, 109
1, 309000, Note_off_c, 0, 68, 63
1, 309000, Note_off_c, 0, 56, 60
1, 309004, Control_c, 0, 64, 110
1, 309019, Control_c, 0, 64, 111
1, 309027, Note_off_c, 0, 36, 59
1, 309032, Note_off_c, 0, 48, 64
1, 309055, Note_on_c, 0, 68, 84
1, 309057, Note_on_c, 0, 56, 73
1, 309103, Note_off_c, 0, 56, 63
1, 309119, Note_on_c, 0, 50, 96
1, 309124, Note_on_c, 0, 38, 92
1, 309144, Note_off_c, 0, 68, 63
1, 309224, Note_off_c, 0, 50, 63
1, 309251, Note_off_c, 0, 38, 58
1, 309285, Control_c, 0, 64, 114
1, 309300, Control_c, 0, 64, 122
1, 309315, Control_c, 0, 64, 127
1, 309374, Control_c, 0, 64, 116
1, 309386, Note_on_c, 0, 67, 83
1, 309389, Control_c, 0, 64, 87
1, 309394, Note_on_c, 0, 55, 76
1, 309402, Note_on_c, 0, 51, 98
1, 309404, Control_c, 0, 64, 0
1, 309408, Note_on_c, 0, 39, 91
1, 309719, Note_off_c, 0, 55, 61
1, 309721, Note_off_c, 0, 67, 55
1, 309783, Control_c, 0, 64, 67
1, 309797, Control_c, 0, 64, 74
1, 309798, Note_on_c, 0, 67, 65
1, 309807, Note_on_c, 0, 55, 61
1, 309812, Control_c, 0, 64, 78
1, 309827, Control_c, 0, 64, 82
1, 309842, Control_c, 0, 64, 86
1, 309854, Note_off_c, 0, 55, 62
1, 309857, Control_c, 0, 64, 90
1, 309862, Note_off_c, 0, 67, 60
1, 309871, Control_c, 0, 64, 94
1, 309886, Control_c, 0, 64, 96
1, 309901, Control_c, 0, 64, 97
1, 309915, Control_c, 0, 64, 98
1, 309930, Control_c, 0, 64, 100
1, 309936, Note_on_c, 0, 67, 60
1, 309944, Note_on_c, 0, 55, 63
1, 309945, Control_c, 0, 64, 102
1, 309960, Control_c, 0, 64, 103
1, 309975, Control_c, 0, 64, 103
1, 309987, Note_off_c, 0, 55, 60
1, 309990, Note_off_c, 0, 67, 60
1, 309990, Control_c, 0, 64, 104
1, 310005, Control_c, 0, 64, 107
1, 310020, Control_c, 0, 64, 109
1, 310035, Control_c, 0, 64, 110
1, 310049, Control_c, 0, 64, 110
1, 310074, Note_on_c, 0, 67, 66
1, 310077, Note_on_c, 0, 55, 62
1, 310094, Control_c, 0, 64, 111
1, 310108, Control_c, 0, 64, 111
1, 310115, Note_off_c, 0, 67, 55
1, 310117, Note_off_c, 0, 55, 57
1, 310177, Note_off_c, 0, 39, 60
1, 310204, Note_off_c, 0, 51, 48
1, 310207, Note_on_c, 0, 55, 66
1, 310211, Note_on_c, 0, 67, 69
1, 310268, Note_off_c, 0, 67, 60
1, 310273, Note_off_c, 0, 55, 58
1, 310288, Note_on_c, 0, 50, 69
1, 310292, Note_on_c, 0, 38, 63
1, 310355, Note_on_c, 0, 67, 61
1, 310359, Note_on_c, 0, 55, 61
1, 310406, Note_off_c, 0, 50, 60
1, 310414, Note_off_c, 0, 67, 61
1, 310419, Note_off_c, 0, 55, 61
1, 310428, Control_c, 0, 64, 112
1, 310435, Note_off_c, 0, 38, 62
1, 310443, Control_c, 0, 64, 112
1, 310473, Control_c, 0, 64, 112
1, 310487, Control_c, 0, 64, 106
1, 310501, Control_c, 0, 64, 95
1, 310510, Note_on_c, 0, 36, 71
1, 310511, Note_on_c, 0, 48, 72
1, 310515, Note_on_c, 0, 67, 62
1, 310516, Control_c, 0, 64, 82
1, 310526, Note_on_c, 0, 55, 57
1, 310531, Control_c, 0, 64, 69
1, 310545, Control_c, 0, 64, 34
1, 310560, Control_c, 0, 64, 0
1, 310574, Note_off_c, 0, 55, 61
1, 310575, Note_off_c, 0, 67, 60
1, 310619, Control_c, 0, 64, 20
1, 310634, Control_c, 0, 64, 63
1, 310649, Control_c, 0, 64, 69
1, 310655, Note_on_c, 0, 67, 50
1, 310664, Control_c, 0, 64, 73
1, 310675, Note_on_c, 0, 55, 51
1, 310679, Control_c, 0, 64, 77
1, 310693, Control_c, 0, 64, 80
1, 310708, Note_off_c, 0, 67, 56
1, 310708, Note_off_c, 0, 55, 52
1, 310708, Control_c, 0, 64, 82
1, 310723, Control_c, 0, 64, 84
1, 310726, Note_off_c, 0, 48, 64
1, 310738, Control_c, 0, 64, 85
1, 310742, Note_off_c, 0, 36, 64
1, 310753, Control_c, 0, 64, 88
1, 310768, Control_c, 0, 64, 90
1, 310783, Control_c, 0, 64, 92
1, 310794, Note_on_c, 0, 67, 51
1, 310798, Control_c, 0, 64, 93
1, 310803, Note_on_c, 0, 55, 54
1, 310812, Control_c, 0, 64, 95
1, 310827, Control_c, 0, 64, 98
1, 310842, Control_c, 0, 64, 101
1, 310846, Note_off_c, 0, 55, 58
1, 310848, Note_off_c, 0, 67, 55
1, 310857, Control_c, 0, 64, 104
1, 310901, Control_c, 0, 64, 103
1, 310916, Control_c, 0, 64, 99
1, 310930, Control_c, 0, 64, 89
1, 310938, Note_on_c, 0, 46, 69
1, 310939, Note_on_c, 0, 67, 52
1, 310945, Note_on_c, 0, 34, 62
1, 310945, Control_c, 0, 64, 74
1, 310948, Note_on_c, 0, 55, 54
1, 310960, Control_c, 0, 64, 61
1, 310975, Control_c, 0, 64, 0
1, 311009, Note_off_c, 0, 67, 57
1, 311010, Note_off_c, 0, 55, 46
1, 311012, Control_c, 0, 64, 56
1, 311027, Control_c, 0, 64, 67
1, 311042, Control_c, 0, 64, 75
1, 311057, Control_c, 0, 64, 82
1, 311071, Control_c, 0, 64, 87
1, 311086, Control_c, 0, 64, 90
1, 311087, Note_on_c, 0, 67, 54
1, 311093, Note_on_c, 0, 55, 56
1, 311101, Control_c, 0, 64, 91
1, 311117, Control_c, 0, 64, 92
1, 311132, Control_c, 0, 64, 94
1, 311137, Note_off_c, 0, 55, 62
1, 311146, Control_c, 0, 64, 95
1, 311158, Note_off_c, 0, 46, 61
1, 311161, Control_c, 0, 64, 96
1, 311176, Note_off_c, 0, 67, 55
1, 311182, Note_off_c, 0, 34, 62
1, 311237, Note_on_c, 0, 65, 64
1, 311248, Note_on_c, 0, 53, 59
1, 311289, Note_off_c, 0, 53, 61
1, 311303, Note_on_c, 0, 44, 61
1, 311305, Note_on_c, 0, 32, 55
1, 311306, Note_off_c, 0, 65, 62
1, 311421, Note_off_c, 0, 32, 57
1, 311433, Note_off_c, 0, 44, 51
1, 311516, Control_c, 0, 64, 93
1, 311531, Control_c, 0, 64, 88
1, 311546, Control_c, 0, 64, 79
1, 311561, Control_c, 0, 64, 69
1, 311576, Control_c, 0, 64, 56
1, 311586, Note_on_c, 0, 64, 52
1, 311588, Note_on_c, 0, 67, 55
1, 311591, Control_c, 0, 64, 0
1, 311594, Note_on_c, 0, 55, 51
1, 311597, Note_on_c, 0, 31, 49
1, 311597, Note_on_c, 0, 60, 48
1, 311604, Note_on_c, 0, 43, 52
1, 311709, Control_c, 0, 64, 64
1, 311724, Control_c, 0, 64, 71
1, 311746, Control_c, 0, 64, 78
1, 311760, Control_c, 0, 64, 84
1, 311775, Control_c, 0, 64, 88
1, 311790, Control_c, 0, 64, 91
1, 311805, Control_c, 0, 64, 94
1, 311820, Control_c, 0, 64, 96
1, 311835, Control_c, 0, 64, 98
1, 311850, Control_c, 0, 64, 100
1, 311853, Note_off_c, 0, 67, 55
1, 311865, Control_c, 0, 64, 101
1, 311868, Note_off_c, 0, 60, 53
1, 311870, Note_off_c, 0, 64, 52
1, 311875, Note_off_c, 0, 43, 58
1, 311880, Control_c, 0, 64, 102
1, 311881, Note_off_c, 0, 55, 38
1, 311895, Note_off_c, 0, 31, 40
1, 311910, Control_c, 0, 64, 102
1, 311977, Note_on_c, 0, 64, 33
1, 311985, Note_on_c, 0, 67, 53
1, 311996, Note_on_c, 0, 55, 26
1, 312005, Note_on_c, 0, 60, 21
1, 312014, Control_c, 0, 64, 103
1, 312042, Note_off_c, 0, 67, 56
1, 312046, Note_off_c, 0, 64, 57
1, 312047, Note_off_c, 0, 60, 45
1, 312050, Note_off_c, 0, 55, 44
1, 312157, Note_on_c, 0, 64, 23
1, 312164, Note_on_c, 0, 60, 36
1, 312167, Note_on_c, 0, 67, 12
1, 312179, Note_on_c, 0, 55, 13
1, 312196, Note_off_c, 0, 60, 50
1, 312209, Note_off_c, 0, 67, 47
1, 312213, Note_off_c, 0, 64, 43
1, 312261, Note_off_c, 0, 55, 0
1, 312273, Note_on_c, 0, 67, 41
1, 312273, Note_on_c, 0, 64, 36
1, 312277, Note_on_c, 0, 55, 32
1, 312279, Note_on_c, 0, 43, 40
1, 312283, Note_on_c, 0, 31, 38
1, 312303, Note_on_c, 0, 60, 39
1, 312328, Note_off_c, 0, 64, 57
1, 312333, Note_off_c, 0, 60, 45
1, 312357, Note_off_c, 0, 31, 51
1, 312383, Note_off_c, 0, 55, 0
1, 312385, Note_off_c, 0, 43, 37
1, 312388, Note_off_c, 0, 67, 0
1, 312405, Note_on_c, 0, 55, 20
1, 312407, Note_on_c, 0, 67, 16
1, 312410, Note_on_c, 0, 64, 40
1, 312434, Note_on_c, 0, 60, 40
1, 312455, Note_off_c, 0, 67, 47
1, 312459, Note_off_c, 0, 60, 54
1, 312461, Note_off_c, 0, 64, 58
1, 312473, Control_c, 0, 64, 103
1, 312476, Note_off_c, 0, 55, 42
1, 312496, Control_c, 0, 64, 104
1, 312540, Control_c, 0, 64, 104
1, 312555, Control_c, 0, 64, 105
1, 312559, Note_on_c, 0, 64, 45
1, 312567, Note_on_c, 0, 55, 41
1, 312574, Note_on_c, 0, 67, 37
1, 312575, Note_on_c, 0, 60, 33
1, 312604, Note_off_c, 0, 60, 45
1, 312605, Note_off_c, 0, 64, 62
1, 312607, Note_off_c, 0, 67, 50
1, 312614, Control_c, 0, 64, 102
1, 312616, Note_off_c, 0, 55, 47
1, 312629, Control_c, 0, 64, 94
1, 312644, Control_c, 0, 64, 82
1, 312658, Control_c, 0, 64, 69
1, 312673, Control_c, 0, 64, 25
1, 312688, Control_c, 0, 64, 0
1, 312696, Note_on_c, 0, 59, 49
1, 312698, Note_on_c, 0, 55, 45
1, 312699, Note_on_c, 0, 67, 57
1, 312705, Note_on_c, 0, 62, 52
1, 312708, Note_on_c, 0, 43, 35
1, 312708, Note_on_c, 0, 31, 35
1, 312748, Note_off_c, 0, 59, 57
1, 312748, Control_c, 0, 64, 63
1, 312750, Note_off_c, 0, 62, 57
1, 312756, Note_off_c, 0, 55, 54
1, 312763, Control_c, 0, 64, 70
1, 312778, Control_c, 0, 64, 75
1, 312793, Control_c, 0, 64, 80
1, 312807, Control_c, 0, 64, 83
1, 312809, Note_off_c, 0, 67, 0
1, 312822, Control_c, 0, 64, 85
1, 312825, Note_on_c, 0, 67, 25
1, 312836, Note_off_c, 0, 43, 31
1, 312837, Control_c, 0, 64, 86
1, 312838, Note_on_c, 0, 59, 45
1, 312839, Note_on_c, 0, 62, 54
1, 312840, Note_on_c, 0, 55, 32
1, 312852, Control_c, 0, 64, 87
1, 312867, Control_c, 0, 64, 89
1, 312875, Note_off_c, 0, 31, 30
1, 312881, Note_off_c, 0, 62, 58
1, 312882, Control_c, 0, 64, 91
1, 312884, Note_off_c, 0, 59, 50
1, 312893, Note_off_c, 0, 67, 54
1, 312896, Control_c, 0, 64, 93
1, 312901, Note_off_c, 0, 55, 41
1, 312911, Control_c, 0, 64, 94
1, 312926, Control_c, 0, 64, 95
1, 312941, Control_c, 0, 64, 96
1, 312956, Control_c, 0, 64, 99
1, 312971, Control_c, 0, 64, 103
1, 312975, Note_on_c, 0, 67, 19
1, 312982, Note_on_c, 0, 62, 47
1, 312986, Control_c, 0, 64, 105
1, 312987, Note_on_c, 0, 59, 42
1, 313001, Control_c, 0, 64, 105
1, 313008, Poly_aftertouch_c, 0, 55, 127
1, 313015, Note_off_c, 0, 59, 53
1, 313020, Note_off_c, 0, 62, 52
1, 313042, Note_off_c, 0, 67, 40
1, 313045, Control_c, 0, 64, 104
1, 313057, Poly_aftertouch_c, 0, 55, 0
1, 313060, Control_c, 0, 64, 99
1, 313075, Control_c, 0, 64, 92
1, 313089, Control_c, 0, 64, 86
1, 313104, Control_c, 0, 64, 80
1, 313111, Note_on_c, 0, 67, 38
1, 313119, Control_c, 0, 64, 78
1, 313120, Note_on_c, 0, 59, 47
1, 313123, Note_on_c, 0, 31, 38
1, 313123, Note_on_c, 0, 43, 39
1, 313124, Note_on_c, 0, 62, 53
1, 313128, Note_on_c, 0, 55, 30
1, 313133, Control_c, 0, 64, 77
1, 313148, Control_c, 0, 64, 81
1, 313157, Note_off_c, 0, 59, 48
1, 313159, Note_off_c, 0, 62, 56
1, 313163, Control_c, 0, 64, 86
1, 313175, Note_off_c, 0, 55, 45
1, 313178, Control_c, 0, 64, 93
1, 313193, Control_c, 0, 64, 98
1, 313206, Note_off_c, 0, 67, 0
1, 313207, Control_c, 0, 64, 102
1, 313222, Control_c, 0, 64, 104
1, 313245, Control_c, 0, 64, 108
1, 313248, Note_off_c, 0, 31, 50
1, 313251, Poly_aftertouch_c, 0, 67, 127
1, 313260, Control_c, 0, 64, 111
1, 313265, Note_on_c, 0, 55, 33
1, 313275, Control_c, 0, 64, 113
1, 313278, Note_on_c, 0, 59, 42
1, 313281, Note_on_c, 0, 62, 41
1, 313289, Control_c, 0, 64, 115
1, 313293, Note_off_c, 0, 43, 42
1, 313310, Note_off_c, 0, 59, 50
1, 313316, Note_off_c, 0, 62, 49
1, 313319, Control_c, 0, 64, 115
1, 313326, Note_off_c, 0, 55, 41
1, 313333, Control_c, 0, 64, 116
1, 313348, Control_c, 0, 64, 116
1, 313403, Poly_aftertouch_c, 0, 67, 0
1, 313423, Note_on_c, 0, 67, 21
1, 313430, Note_on_c, 0, 62, 53
1, 313476, Note_off_c, 0, 62, 56
1, 313481, Poly_aftertouch_c, 0, 59, 127
1, 313496, Control_c, 0, 67, 11
1, 313512, Control_c, 0, 67, 14
1, 313516, Poly_aftertouch_c, 0, 59, 0
1, 313527, Control_c, 0, 67, 15
1, 313534, Note_off_c, 0, 67, 38
1, 313542, Control_c, 0, 67, 15
1, 313586, Control_c, 0, 67, 15
1, 313616, Control_c, 0, 67, 15
1, 313630, Control_c, 0, 67, 14
1, 313645, Control_c, 0, 64, 116
1, 313645, Control_c, 0, 67, 14
1, 313660, Control_c, 0, 64, 112
1, 313675, Control_c, 0, 64, 105
1, 313675, Control_c, 0, 67, 14
1, 313690, Control_c, 0, 64, 95
1, 313690, Control_c, 0, 67, 15
1, 313704, Control_c, 0, 64, 84
1, 313704, Control_c, 0, 67, 15
1, 313713, Note_on_c, 0, 67, 54
1, 313714, Note_on_c, 0, 64, 54
1, 313719, Control_c, 0, 64, 69
1, 313719, Control_c, 0, 67, 16
1, 313723, Note_on_c, 0, 36, 39
1, 313723, Note_on_c, 0, 60, 45
1, 313725, Note_on_c, 0, 55, 40
1, 313733, Note_on_c, 0, 48, 39
1, 313734, Control_c, 0, 64, 42
1, 313734, Control_c, 0, 67, 16
1, 313749, Control_c, 0, 64, 0
1, 313749, Control_c, 0, 67, 17
1, 313764, Control_c, 0, 67, 20
1, 313767, Note_off_c, 0, 55, 0
1, 313767, Note_on_c, 0, 55, 17
1, 313779, Control_c, 0, 67, 27
1, 313793, Control_c, 0, 67, 37
1, 313808, Control_c, 0, 67, 50
1, 313823, Control_c, 0, 67, 65
1, 313838, Control_c, 0, 67, 82
1, 313853, Control_c, 0, 67, 104
1, 313868, Control_c, 0, 67, 127
1, 313897, Control_c, 0, 64, 61
1, 313912, Control_c, 0, 64, 70
1, 313922, Note_off_c, 0, 36, 58
1, 313927, Control_c, 0, 64, 76
1, 313942, Control_c, 0, 64, 82
1, 313956, Control_c, 0, 64, 85
1, 313963, Note_off_c, 0, 48, 55
1, 313971, Control_c, 0, 64, 86
1, 313993, Control_c, 0, 64, 87
1, 314008, Control_c, 0, 64, 89
1, 314023, Control_c, 0, 64, 91
1, 314038, Control_c, 0, 64, 91
1, 314042, Note_off_c, 0, 55, 53
1, 314083, Control_c, 0, 64, 92
1, 314214, Note_on_c, 0, 55, 31
1, 314259, Note_off_c, 0, 55, 46
1, 314321, Control_c, 0, 64, 91
1, 314354, Note_on_c, 0, 55, 35
1, 314365, Control_c, 0, 64, 91
1, 314390, Note_off_c, 0, 55, 50
1, 314394, Control_c, 0, 64, 90
1, 314409, Control_c, 0, 64, 90
1, 314420, Note_off_c, 0, 60, 30
1, 314424, Control_c, 0, 64, 89
1, 314498, Control_c, 0, 64, 89
1, 314506, Note_on_c, 0, 55, 23
1, 314540, Note_off_c, 0, 55, 55
1, 314540, Note_off_c, 0, 64, 37
1, 314543, Note_off_c, 0, 67, 56
1, 314557, Control_c, 0, 64, 88
1, 314601, Control_c, 0, 64, 88
1, 314618, Note_on_c, 0, 55, 45
1, 314661, Note_off_c, 0, 55, 57
1, 314705, Control_c, 0, 64, 87
1, 314765, Note_on_c, 0, 55, 45
1, 314786, Control_c, 0, 64, 87
1, 314819, Note_off_c, 0, 55, 45
1, 314831, Control_c, 0, 64, 86
1, 314893, Note_on_c, 0, 55, 35
1, 314920, Control_c, 0, 64, 86
1, 314945, Note_off_c, 0, 55, 51
1, 314980, Control_c, 0, 64, 85
1, 315010, Control_c, 0, 64, 85
1, 315029, Note_on_c, 0, 55, 30
1, 315039, Control_c, 0, 64, 84
1, 315067, Note_off_c, 0, 55, 48
1, 315159, Control_c, 0, 64, 84
1, 315174, Note_on_c, 0, 55, 34
1, 315189, Control_c, 0, 64, 83
1, 315203, Control_c, 0, 64, 82
1, 315218, Control_c, 0, 64, 78
1, 315218, Note_off_c, 0, 55, 46
1, 315233, Control_c, 0, 64, 73
1, 315248, Control_c, 0, 64, 67
1, 315263, Control_c, 0, 64, 63
1, 315277, Control_c, 0, 64, 61
1, 315292, Control_c, 0, 64, 60
1, 315331, Note_on_c, 0, 55, 34
1, 315332, Note_on_c, 0, 71, 56
1, 315339, Note_on_c, 0, 62, 46
1, 315349, Note_on_c, 0, 67, 40
1, 315351, Control_c, 0, 64, 61
1, 315366, Control_c, 0, 64, 63
1, 315377, Note_off_c, 0, 55, 47
1, 315381, Control_c, 0, 64, 65
1, 315396, Control_c, 0, 64, 69
1, 315410, Control_c, 0, 64, 73
1, 315425, Control_c, 0, 64, 78
1, 315440, Control_c, 0, 64, 81
1, 315455, Control_c, 0, 64, 83
1, 315468, Note_on_c, 0, 55, 40
1, 315470, Note_off_c, 0, 62, 57
1, 315470, Control_c, 0, 64, 84
1, 315490, Note_off_c, 0, 71, 62
1, 315492, Control_c, 0, 64, 85
1, 315507, Control_c, 0, 64, 86
1, 315516, Note_off_c, 0, 55, 48
1, 315522, Control_c, 0, 64, 87
1, 315610, Note_on_c, 0, 55, 39
1, 315648, Note_off_c, 0, 67, 0
1, 315656, Note_on_c, 0, 72, 64
1, 315662, Note_on_c, 0, 67, 30
1, 315668, Note_on_c, 0, 64, 44
1, 315678, Note_off_c, 0, 55, 41
1, 315684, Control_c, 0, 64, 84
1, 315693, Note_off_c, 0, 64, 53
1, 315693, Note_off_c, 0, 67, 52
1, 315699, Control_c, 0, 64, 79
1, 315702, Note_off_c, 0, 72, 61
1, 315714, Control_c, 0, 64, 72
1, 315728, Control_c, 0, 64, 62
1, 315743, Control_c, 0, 64, 43
1, 315750, Note_on_c, 0, 55, 39
1, 315754, Note_on_c, 0, 74, 68
1, 315758, Control_c, 0, 64, 33
1, 315769, Note_on_c, 0, 67, 46
1, 315773, Control_c, 0, 64, 37
1, 315773, Note_on_c, 0, 65, 53
1, 315788, Control_c, 0, 64, 46
1, 315799, Note_off_c, 0, 55, 60
1, 315803, Control_c, 0, 64, 54
1, 315817, Control_c, 0, 64, 61
1, 315832, Control_c, 0, 64, 65
1, 315847, Control_c, 0, 64, 68
1, 315861, Control_c, 0, 64, 72
1, 315876, Control_c, 0, 64, 76
1, 315891, Control_c, 0, 64, 80
1, 315904, Note_on_c, 0, 55, 45
1, 315907, Control_c, 0, 64, 82
1, 315916, Note_off_c, 0, 65, 58
1, 315922, Control_c, 0, 64, 83
1, 315937, Control_c, 0, 64, 83
1, 315937, Note_off_c, 0, 74, 62
1, 315940, Note_off_c, 0, 55, 51
1, 315947, Note_off_c, 0, 67, 54
1, 315951, Control_c, 0, 64, 84
1, 315966, Control_c, 0, 64, 85
1, 315981, Control_c, 0, 64, 86
1, 315996, Control_c, 0, 64, 87
1, 316011, Control_c, 0, 64, 87
1, 316052, Note_on_c, 0, 55, 43
1, 316086, Note_off_c, 0, 55, 51
1, 316114, Control_c, 0, 64, 86
1, 316129, Control_c, 0, 64, 82
1, 316144, Control_c, 0, 64, 77
1, 316158, Control_c, 0, 64, 71
1, 316171, Note_on_c, 0, 74, 56
1, 316173, Control_c, 0, 64, 65
1, 316181, Note_on_c, 0, 65, 48
1, 316188, Control_c, 0, 64, 63
1, 316189, Note_on_c, 0, 67, 35
1, 316198, Note_on_c, 0, 55, 39
1, 316203, Control_c, 0, 64, 64
1, 316218, Control_c, 0, 64, 64
1, 316235, Note_off_c, 0, 55, 53
1, 316240, Control_c, 0, 64, 65
1, 316255, Control_c, 0, 64, 67
1, 316270, Control_c, 0, 64, 69
1, 316284, Control_c, 0, 64, 72
1, 316299, Control_c, 0, 64, 76
1, 316314, Control_c, 0, 64, 79
1, 316329, Control_c, 0, 64, 81
1, 316331, Note_on_c, 0, 55, 43
1, 316344, Control_c, 0, 64, 82
1, 316348, Note_off_c, 0, 67, 58
1, 316355, Note_off_c, 0, 74, 61
1, 316358, Control_c, 0, 64, 82
1, 316369, Note_off_c, 0, 55, 48
1, 316373, Control_c, 0, 64, 83
1, 316381, Note_off_c, 0, 65, 36
1, 316388, Control_c, 0, 64, 83
1, 316403, Control_c, 0, 64, 84
1, 316458, Note_on_c, 0, 55, 34
1, 316506, Note_off_c, 0, 55, 47
1, 316566, Control_c, 0, 64, 83
1, 316581, Control_c, 0, 64, 80
1, 316595, Control_c, 0, 64, 76
1, 316602, Note_on_c, 0, 55, 32
1, 316606, Note_on_c, 0, 74, 51
1, 316610, Control_c, 0, 64, 71
1, 316619, Note_on_c, 0, 65, 41
1, 316622, Note_on_c, 0, 67, 34
1, 316625, Control_c, 0, 64, 67
1, 316637, Note_off_c, 0, 55, 51
1, 316640, Control_c, 0, 64, 65
1, 316655, Control_c, 0, 64, 65
1, 316684, Control_c, 0, 64, 65
1, 316699, Control_c, 0, 64, 66
1, 316715, Control_c, 0, 64, 67
1, 316730, Control_c, 0, 64, 69
1, 316742, Note_off_c, 0, 67, 58
1, 316745, Control_c, 0, 64, 71
1, 316746, Note_on_c, 0, 55, 39
1, 316759, Control_c, 0, 64, 74
1, 316765, Note_off_c, 0, 65, 58
1, 316774, Control_c, 0, 64, 76
1, 316780, Note_off_c, 0, 55, 52
1, 316789, Control_c, 0, 64, 78
1, 316804, Control_c, 0, 64, 79
1, 316811, Note_off_c, 0, 74, 57
1, 316819, Control_c, 0, 64, 79
1, 316834, Control_c, 0, 64, 80
1, 316848, Control_c, 0, 64, 80
1, 316878, Control_c, 0, 64, 81
1, 316888, Note_on_c, 0, 55, 34
1, 316907, Control_c, 0, 64, 82
1, 316921, Note_off_c, 0, 55, 51
1, 316922, Control_c, 0, 64, 82
1, 316967, Control_c, 0, 64, 82
1, 316989, Control_c, 0, 64, 81
1, 317004, Control_c, 0, 64, 77
1, 317019, Control_c, 0, 64, 72
1, 317033, Note_on_c, 0, 72, 61
1, 317034, Control_c, 0, 64, 66
1, 317034, Note_on_c, 0, 55, 41
1, 317040, Note_on_c, 0, 67, 46
1, 317044, Note_on_c, 0, 64, 42
1, 317049, Control_c, 0, 64, 61
1, 317063, Control_c, 0, 64, 58
1, 317075, Note_off_c, 0, 55, 50
1, 317078, Control_c, 0, 64, 60
1, 317093, Control_c, 0, 64, 61
1, 317107, Control_c, 0, 64, 62
1, 317122, Control_c, 0, 64, 64
1, 317137, Control_c, 0, 64, 66
1, 317152, Control_c, 0, 64, 68
1, 317167, Control_c, 0, 64, 72
1, 317178, Note_on_c, 0, 55, 40
1, 317181, Control_c, 0, 64, 75
1, 317196, Control_c, 0, 64, 77
1, 317211, Control_c, 0, 64, 78
1, 317213, Note_off_c, 0, 55, 51
1, 317226, Control_c, 0, 64, 79
1, 317232, Note_off_c, 0, 64, 58
1, 317241, Control_c, 0, 64, 79
1, 317270, Control_c, 0, 64, 80
1, 317285, Control_c, 0, 64, 80
1, 317299, Control_c, 0, 64, 81
1, 317305, Note_off_c, 0, 72, 56
1, 317327, Note_on_c, 0, 55, 40
1, 317356, Note_on_c, 0, 74, 61
1, 317359, Note_on_c, 0, 65, 51
1, 317372, Note_off_c, 0, 55, 49
1, 317384, Note_off_c, 0, 65, 56
1, 317410, Note_off_c, 0, 67, 45
1, 317428, Note_off_c, 0, 74, 60
1, 317463, Control_c, 0, 64, 80
1, 317478, Control_c, 0, 64, 77
1, 317488, Note_on_c, 0, 55, 43
1, 317493, Control_c, 0, 64, 73
1, 317493, Note_on_c, 0, 76, 71
1, 317505, Note_on_c, 0, 67, 52
1, 317508, Control_c, 0, 64, 68
1, 317523, Control_c, 0, 64, 62
1, 317537, Control_c, 0, 64, 55
1, 317539, Note_off_c, 0, 55, 47
1, 317552, Control_c, 0, 64, 54
1, 317558, Note_off_c, 0, 67, 0
1, 317558, Note_on_c, 0, 67, 19
1, 317567, Control_c, 0, 64, 55
1, 317582, Control_c, 0, 64, 56
1, 317597, Control_c, 0, 64, 59
1, 317612, Control_c, 0, 64, 62
1, 317627, Control_c, 0, 64, 65
1, 317642, Control_c, 0, 64, 68
1, 317651, Note_on_c, 0, 55, 35
1, 317657, Control_c, 0, 64, 72
1, 317672, Control_c, 0, 64, 75
1, 317684, Note_off_c, 0, 55, 53
1, 317686, Control_c, 0, 64, 77
1, 317701, Control_c, 0, 64, 79
1, 317716, Control_c, 0, 64, 80
1, 317737, Control_c, 0, 64, 80
1, 317752, Control_c, 0, 64, 81
1, 317767, Control_c, 0, 64, 81
1, 317769, Note_off_c, 0, 76, 64
1, 317782, Control_c, 0, 64, 83
1, 317793, Note_on_c, 0, 55, 35
1, 317797, Control_c, 0, 64, 84
1, 317812, Control_c, 0, 64, 84
1, 317822, Note_off_c, 0, 55, 54
1, 317856, Control_c, 0, 64, 85
1, 317871, Control_c, 0, 64, 86
1, 317886, Control_c, 0, 64, 87
1, 317904, Note_off_c, 0, 67, 39
1, 317928, Note_on_c, 0, 55, 31
1, 317966, Note_off_c, 0, 55, 50
1, 318065, Note_on_c, 0, 55, 26
1, 318105, Note_on_c, 0, 74, 53
1, 318111, Note_off_c, 0, 55, 45
1, 318126, Note_on_c, 0, 65, 40
1, 318180, Note_on_c, 0, 67, 4
1, 318200, Note_on_c, 0, 55, 36
1, 318237, Note_off_c, 0, 65, 42
1, 318237, Note_off_c, 0, 67, 45
1, 318260, Note_off_c, 0, 55, 43
1, 318346, Control_c, 0, 64, 86
1, 318352, Note_off_c, 0, 74, 58
1, 318361, Control_c, 0, 64, 83
1, 318363, Note_on_c, 0, 55, 39
1, 318372, Note_on_c, 0, 72, 54
1, 318376, Control_c, 0, 64, 78
1, 318388, Note_on_c, 0, 67, 28
1, 318391, Control_c, 0, 64, 72
1, 318400, Note_on_c, 0, 64, 35
1, 318406, Control_c, 0, 64, 65
1, 318420, Control_c, 0, 64, 62
1, 318435, Control_c, 0, 64, 63
1, 318436, Note_off_c, 0, 55, 39
1, 318450, Control_c, 0, 64, 64
1, 318465, Control_c, 0, 64, 65
1, 318488, Control_c, 0, 64, 66
1, 318503, Control_c, 0, 64, 68
1, 318512, Note_on_c, 0, 55, 27
1, 318517, Control_c, 0, 64, 70
1, 318532, Control_c, 0, 64, 73
1, 318547, Control_c, 0, 64, 75
1, 318548, Note_off_c, 0, 64, 56
1, 318561, Control_c, 0, 64, 77
1, 318576, Note_off_c, 0, 55, 41
1, 318576, Control_c, 0, 64, 79
1, 318591, Control_c, 0, 64, 79
1, 318606, Control_c, 0, 64, 80
1, 318608, Note_off_c, 0, 72, 57
1, 318635, Control_c, 0, 64, 80
1, 318650, Control_c, 0, 64, 81
1, 318658, Note_on_c, 0, 55, 36
1, 318658, Note_off_c, 0, 67, 26
1, 318665, Control_c, 0, 64, 82
1, 318679, Control_c, 0, 64, 83
1, 318703, Note_off_c, 0, 55, 48
1, 318754, Control_c, 0, 64, 82
1, 318769, Control_c, 0, 64, 81
1, 318783, Control_c, 0, 64, 76
1, 318798, Control_c, 0, 64, 70
1, 318799, Note_on_c, 0, 74, 57
1, 318807, Note_on_c, 0, 55, 40
1, 318808, Note_on_c, 0, 67, 38
1, 318810, Note_on_c, 0, 65, 46
1, 318813, Control_c, 0, 64, 65
1, 318828, Control_c, 0, 64, 62
1, 318841, Note_off_c, 0, 55, 51
1, 318843, Control_c, 0, 64, 62
1, 318858, Control_c, 0, 64, 64
1, 318859, Note_off_c, 0, 67, 0
1, 318859, Note_on_c, 0, 67, 10
1, 318872, Control_c, 0, 64, 67
1, 318887, Control_c, 0, 64, 70
1, 318902, Control_c, 0, 64, 73
1, 318917, Control_c, 0, 64, 76
1, 318932, Control_c, 0, 64, 79
1, 318941, Note_off_c, 0, 65, 58
1, 318942, Note_on_c, 0, 55, 51
1, 318946, Control_c, 0, 64, 81
1, 318961, Control_c, 0, 64, 81
1, 318976, Note_off_c, 0, 74, 57
1, 318976, Control_c, 0, 64, 82
1, 318982, Note_off_c, 0, 55, 49
1, 318991, Control_c, 0, 64, 82
1, 319006, Control_c, 0, 64, 83
1, 319020, Control_c, 0, 64, 83
1, 319035, Control_c, 0, 64, 84
1, 319049, Note_off_c, 0, 67, 41
1, 319050, Control_c, 0, 64, 84
1, 319079, Control_c, 0, 64, 85
1, 319087, Note_on_c, 0, 55, 51
1, 319095, Control_c, 0, 64, 85
1, 319102, Note_on_c, 0, 72, 60
1, 319113, Note_off_c, 0, 55, 59
1, 319129, Note_on_c, 0, 64, 33
1, 319131, Note_off_c, 0, 72, 60
1, 319136, Note_on_c, 0, 67, 17
1, 319162, Note_off_c, 0, 64, 47
1, 319184, Control_c, 0, 64, 84
1, 319199, Control_c, 0, 64, 80
1, 319207, Note_on_c, 0, 55, 53
1, 319209, Note_on_c, 0, 71, 66
1, 319209, Note_off_c, 0, 67, 0
1, 319214, Control_c, 0, 64, 73
1, 319230, Note_on_c, 0, 62, 55
1, 319234, Note_on_c, 0, 67, 26
1, 319237, Control_c, 0, 64, 65
1, 319251, Control_c, 0, 64, 48
1, 319266, Control_c, 0, 64, 18
1, 319268, Note_off_c, 0, 62, 0
1, 319268, Note_on_c, 0, 62, 19
1, 319272, Note_off_c, 0, 55, 51
1, 319281, Control_c, 0, 64, 28
1, 319296, Control_c, 0, 64, 45
1, 319310, Control_c, 0, 64, 57
1, 319325, Control_c, 0, 64, 64
1, 319340, Control_c, 0, 64, 68
1, 319342, Note_on_c, 0, 55, 25
1, 319355, Control_c, 0, 64, 72
1, 319370, Control_c, 0, 64, 76
1, 319384, Control_c, 0, 64, 79
1, 319399, Control_c, 0, 64, 81
1, 319414, Control_c, 0, 64, 82
1, 319429, Control_c, 0, 64, 83
1, 319435, Note_off_c, 0, 62, 38
1, 319444, Control_c, 0, 64, 84
1, 319458, Control_c, 0, 64, 86
1, 319469, Note_off_c, 0, 55, 0
1, 319469, Note_on_c, 0, 55, 3
1, 319473, Control_c, 0, 64, 87
1, 319487, Note_off_c, 0, 67, 38
1, 319488, Control_c, 0, 64, 88
1, 319502, Control_c, 0, 64, 89
1, 319517, Control_c, 0, 64, 89
1, 319561, Note_off_c, 0, 55, 34
1, 319561, Note_off_c, 0, 71, 49
1, 319591, Control_c, 0, 64, 86
1, 319597, Note_on_c, 0, 55, 45
1, 319606, Control_c, 0, 64, 81
1, 319610, Note_on_c, 0, 69, 60
1, 319618, Note_on_c, 0, 67, 55
1, 319621, Control_c, 0, 64, 73
1, 319624, Note_on_c, 0, 60, 50
1, 319636, Control_c, 0, 64, 67
1, 319650, Control_c, 0, 64, 63
1, 319665, Control_c, 0, 64, 64
1, 319680, Control_c, 0, 64, 68
1, 319695, Control_c, 0, 64, 72
1, 319705, Note_off_c, 0, 55, 0
1, 319709, Control_c, 0, 64, 76
1, 319724, Control_c, 0, 64, 79
1, 319733, Note_on_c, 0, 55, 22
1, 319739, Control_c, 0, 64, 82
1, 319754, Control_c, 0, 64, 84
1, 319768, Control_c, 0, 64, 85
1, 319783, Control_c, 0, 64, 86
1, 319788, Note_off_c, 0, 60, 58
1, 319801, Note_off_c, 0, 55, 55
1, 319813, Control_c, 0, 64, 86
1, 319827, Control_c, 0, 64, 87
1, 319833, Note_off_c, 0, 67, 45
1, 319842, Note_off_c, 0, 69, 62
1, 319857, Control_c, 0, 64, 87
1, 319873, Note_on_c, 0, 53, 48
1, 319903, Control_c, 0, 64, 88
1, 319915, Note_on_c, 0, 71, 65
1, 319928, Note_off_c, 0, 53, 57
1, 319937, Note_on_c, 0, 62, 36
1, 319944, Note_on_c, 0, 67, 34
1, 319979, Note_off_c, 0, 62, 45
1, 319981, Note_off_c, 0, 71, 55
1, 319982, Note_off_c, 0, 67, 47
1, 319999, Control_c, 0, 64, 85
1, 320014, Control_c, 0, 64, 79
1, 320029, Control_c, 0, 64, 69
1, 320044, Control_c, 0, 64, 60
1, 320046, Note_on_c, 0, 72, 64
1, 320050, Note_on_c, 0, 52, 50
1, 320053, Note_on_c, 0, 67, 49
1, 320059, Control_c, 0, 64, 52
1, 320070, Note_on_c, 0, 64, 45
1, 320073, Control_c, 0, 64, 54
1, 320088, Control_c, 0, 64, 59
1, 320103, Control_c, 0, 64, 63
1, 320118, Control_c, 0, 64, 66
1, 320132, Control_c, 0, 64, 70
1, 320147, Control_c, 0, 64, 74
1, 320162, Control_c, 0, 64, 77
1, 320177, Control_c, 0, 64, 80
1, 320192, Control_c, 0, 64, 82
1, 320200, Note_on_c, 0, 55, 42
1, 320202, Note_off_c, 0, 64, 63
1, 320206, Control_c, 0, 64, 84
1, 320219, Note_off_c, 0, 67, 64
1, 320221, Control_c, 0, 64, 86
1, 320236, Control_c, 0, 64, 87
1, 320246, Note_off_c, 0, 55, 50
1, 320251, Note_off_c, 0, 72, 63
1, 320251, Control_c, 0, 64, 88
1, 320266, Control_c, 0, 64, 88
1, 320280, Control_c, 0, 64, 89
1, 320289, Note_off_c, 0, 52, 35
1, 320295, Control_c, 0, 64, 90
1, 320310, Control_c, 0, 64, 91
1, 320354, Control_c, 0, 64, 91
1, 320365, Note_on_c, 0, 55, 32
1, 320398, Note_off_c, 0, 55, 51
1, 320414, Control_c, 0, 64, 91
1, 320429, Control_c, 0, 64, 90
1, 320444, Control_c, 0, 64, 87
1, 320458, Control_c, 0, 64, 81
1, 320473, Control_c, 0, 64, 75
1, 320477, Note_on_c, 0, 74, 63
1, 320488, Control_c, 0, 64, 70
1, 320491, Note_on_c, 0, 67, 48
1, 320494, Note_on_c, 0, 71, 48
1, 320496, Note_on_c, 0, 55, 44
1, 320503, Control_c, 0, 64, 66
1, 320506, Note_on_c, 0, 48, 38
1, 320518, Control_c, 0, 64, 65
1, 320532, Control_c, 0, 64, 66
1, 320547, Control_c, 0, 64, 67
1, 320559, Note_off_c, 0, 55, 43
1, 320562, Control_c, 0, 64, 69
1, 320577, Control_c, 0, 64, 72
1, 320592, Control_c, 0, 64, 75
1, 320606, Control_c, 0, 64, 77
1, 320621, Control_c, 0, 64, 79
1, 320636, Control_c, 0, 64, 79
1, 320650, Note_on_c, 0, 55, 40
1, 320650, Control_c, 0, 64, 80
1, 320665, Control_c, 0, 64, 81
1, 320680, Control_c, 0, 64, 82
1, 320682, Note_off_c, 0, 55, 53
1, 320748, Control_c, 0, 64, 82
1, 320772, Note_off_c, 0, 48, 45
1, 320776, Note_off_c, 0, 67, 31
1, 320787, Note_off_c, 0, 71, 53
1, 320790, Note_on_c, 0, 55, 39
1, 320801, Note_off_c, 0, 74, 60
1, 320817, Note_off_c, 0, 55, 56
1, 320853, Note_on_c, 0, 76, 55
1, 320857, Note_on_c, 0, 72, 47
1, 320859, Note_on_c, 0, 67, 31
1, 320915, Note_off_c, 0, 67, 44
1, 320934, Note_off_c, 0, 76, 53
1, 320985, Note_off_c, 0, 72, 22
1, 321015, Control_c, 0, 64, 80
1, 321029, Control_c, 0, 64, 77
1, 321044, Control_c, 0, 64, 72
1, 321048, Note_on_c, 0, 74, 54
1, 321051, Note_on_c, 0, 55, 45
1, 321058, Note_on_c, 0, 43, 47
1, 321058, Note_on_c, 0, 71, 38
1, 321059, Control_c, 0, 64, 67
1, 321063, Note_on_c, 0, 67, 34
1, 321073, Control_c, 0, 64, 64
1, 321088, Control_c, 0, 64, 63
1, 321133, Control_c, 0, 64, 63
1, 321162, Control_c, 0, 64, 64
1, 321177, Control_c, 0, 64, 65
1, 321192, Control_c, 0, 64, 67
1, 321200, Note_off_c, 0, 55, 54
1, 321207, Control_c, 0, 64, 69
1, 321222, Control_c, 0, 64, 72
1, 321237, Control_c, 0, 64, 75
1, 321252, Control_c, 0, 64, 77
1, 321266, Control_c, 0, 64, 79
1, 321281, Control_c, 0, 64, 81
1, 321296, Control_c, 0, 64, 83
1, 321306, Note_on_c, 0, 55, 37
1, 321311, Control_c, 0, 64, 84
1, 321326, Control_c, 0, 64, 85
1, 321340, Control_c, 0, 64, 86
1, 321342, Note_off_c, 0, 55, 51
1, 321355, Control_c, 0, 64, 87
1, 321370, Control_c, 0, 64, 88
1, 321385, Control_c, 0, 64, 89
1, 321400, Control_c, 0, 64, 89
1, 321415, Control_c, 0, 64, 90
1, 321429, Control_c, 0, 64, 90
1, 321440, Note_off_c, 0, 67, 40
1, 321441, Note_on_c, 0, 55, 52
1, 321459, Control_c, 0, 64, 91
1, 321481, Control_c, 0, 64, 91
1, 321490, Note_off_c, 0, 55, 61
1, 321580, Note_on_c, 0, 55, 62
1, 321600, Control_c, 0, 67, 126
1, 321615, Control_c, 0, 67, 123
1, 321630, Control_c, 0, 67, 120
1, 321633, Note_off_c, 0, 55, 59
1, 321645, Control_c, 0, 67, 117
1, 321660, Control_c, 0, 67, 115
1, 321675, Control_c, 0, 67, 113
1, 321690, Control_c, 0, 64, 92
1, 321690, Control_c, 0, 67, 110
1, 321704, Control_c, 0, 67, 106
1, 321719, Note_on_c, 0, 55, 62
1, 321719, Control_c, 0, 67, 103
1, 321735, Control_c, 0, 67, 101
1, 321749, Control_c, 0, 64, 92
1, 321749, Control_c, 0, 67, 99
1, 321764, Control_c, 0, 67, 96
1, 321766, Note_off_c, 0, 55, 59
1, 321779, Control_c, 0, 64, 93
1, 321779, Control_c, 0, 67, 94
1, 321794, Control_c, 0, 67, 91
1, 321809, Control_c, 0, 67, 87
1, 321824, Control_c, 0, 64, 93
1, 321824, Control_c, 0, 67, 85
1, 321830, Note_off_c, 0, 74, 56
1, 321839, Control_c, 0, 67, 82
1, 321853, Control_c, 0, 67, 81
1, 321858, Note_on_c, 0, 55, 71
1, 321868, Control_c, 0, 64, 94
1, 321868, Control_c, 0, 67, 79
1, 321872, Note_off_c, 0, 71, 43
1, 321883, Control_c, 0, 64, 94
1, 321883, Control_c, 0, 67, 77
1, 321897, Control_c, 0, 67, 73
1, 321911, Note_off_c, 0, 55, 60
1, 321912, Control_c, 0, 64, 95
1, 321912, Control_c, 0, 67, 69
1, 321927, Control_c, 0, 64, 95
1, 321927, Control_c, 0, 67, 65
1, 321942, Control_c, 0, 64, 96
1, 321942, Control_c, 0, 67, 61
1, 321957, Control_c, 0, 64, 96
1, 321957, Control_c, 0, 67, 57
1, 321971, Control_c, 0, 67, 52
1, 321983, Note_on_c, 0, 55, 68
1, 321986, Control_c, 0, 64, 97
1, 321986, Control_c, 0, 67, 47
1, 322001, Control_c, 0, 67, 41
1, 322016, Control_c, 0, 64, 97
1, 322016, Control_c, 0, 67, 33
1, 322031, Control_c, 0, 64, 98
1, 322031, Control_c, 0, 67, 25
1, 322045, Control_c, 0, 67, 17
1, 322048, Note_off_c, 0, 55, 63
1, 322060, Control_c, 0, 67, 10
1, 322075, Control_c, 0, 67, 0
1, 322089, Control_c, 0, 64, 98
1, 322107, Note_on_c, 0, 55, 70
1, 322164, Control_c, 0, 64, 99
1, 322170, Note_off_c, 0, 55, 62
1, 322230, Control_c, 0, 64, 99
1, 322241, Note_on_c, 0, 55, 74
1, 322275, Control_c, 0, 64, 100
1, 322290, Control_c, 0, 64, 100
1, 322314, Note_off_c, 0, 55, 57
1, 322321, Control_c, 0, 64, 101
1, 322379, Note_on_c, 0, 71, 86
1, 322380, Note_on_c, 0, 59, 86
1, 322381, Note_on_c, 0, 67, 81
1, 322383, Note_on_c, 0, 55, 71
1, 322439, Control_c, 0, 64, 101
1, 322441, Note_off_c, 0, 55, 63
1, 322454, Control_c, 0, 64, 102
1, 322468, Control_c, 0, 64, 103
1, 322483, Control_c, 0, 64, 103
1, 322497, Control_c, 0, 64, 104
1, 322511, Note_on_c, 0, 55, 74
1, 322512, Control_c, 0, 64, 104
1, 322526, Control_c, 0, 64, 106
1, 322541, Control_c, 0, 64, 108
1, 322556, Control_c, 0, 64, 112
1, 322564, Note_off_c, 0, 55, 62
1, 322571, Control_c, 0, 64, 115
1, 322586, Control_c, 0, 64, 119
1, 322593, Note_off_c, 0, 59, 58
1, 322600, Control_c, 0, 64, 125
1, 322611, Note_off_c, 0, 71, 61
1, 322615, Control_c, 0, 64, 127
1, 322628, Note_off_c, 0, 43, 58
1, 322628, Note_off_c, 0, 67, 60
1, 322643, Note_on_c, 0, 55, 80
1, 322683, Note_on_c, 0, 69, 80
1, 322686, Note_on_c, 0, 60, 76
1, 322689, Note_on_c, 0, 72, 73
1, 322701, Note_off_c, 0, 55, 62
1, 322710, Note_off_c, 0, 69, 66
1, 322715, Note_off_c, 0, 60, 62
1, 322715, Note_off_c, 0, 72, 66
1, 322778, Control_c, 0, 64, 99
1, 322781, Note_on_c, 0, 74, 98
1, 322787, Note_on_c, 0, 62, 93
1, 322787, Note_on_c, 0, 55, 78
1, 322790, Note_on_c, 0, 71, 91
1, 322793, Control_c, 0, 64, 79
1, 322808, Control_c, 0, 64, 0
1, 322854, Note_off_c, 0, 55, 62
1, 322911, Control_c, 0, 64, 68
1, 322924, Note_on_c, 0, 55, 79
1, 322926, Control_c, 0, 64, 77
1, 322941, Control_c, 0, 64, 89
1, 322956, Control_c, 0, 64, 97
1, 322978, Control_c, 0, 64, 103
1, 322992, Note_off_c, 0, 74, 61
1, 322993, Control_c, 0, 64, 109
1, 322995, Note_off_c, 0, 55, 63
1, 323002, Note_off_c, 0, 62, 58
1, 323007, Control_c, 0, 64, 115
1, 323010, Note_off_c, 0, 71, 60
1, 323022, Control_c, 0, 64, 124
1, 323037, Control_c, 0, 64, 127
1, 323072, Note_on_c, 0, 55, 77
1, 323136, Note_off_c, 0, 55, 62
1, 323186, Control_c, 0, 64, 102
1, 323195, Note_on_c, 0, 71, 91
1, 323195, Note_on_c, 0, 74, 95
1, 323198, Note_on_c, 0, 62, 90
1, 323201, Control_c, 0, 64, 82
1, 323205, Note_on_c, 0, 55, 83
1, 323210, Note_on_c, 0, 54, 84
1, 323216, Control_c, 0, 64, 63
1, 323231, Control_c, 0, 64, 0
1, 323272, Note_off_c, 0, 55, 64
1, 323273, Note_off_c, 0, 54, 61
1, 323290, Control_c, 0, 64, 66
1, 323305, Control_c, 0, 64, 74
1, 323320, Control_c, 0, 64, 82
1, 323332, Note_on_c, 0, 55, 72
1, 323335, Control_c, 0, 64, 89
1, 323338, Note_on_c, 0, 54, 79
1, 323349, Control_c, 0, 64, 95
1, 323364, Control_c, 0, 64, 100
1, 323376, Note_off_c, 0, 62, 59
1, 323378, Note_off_c, 0, 74, 61
1, 323379, Control_c, 0, 64, 106
1, 323383, Note_off_c, 0, 71, 61
1, 323391, Note_off_c, 0, 54, 63
1, 323394, Note_off_c, 0, 55, 62
1, 323394, Control_c, 0, 64, 112
1, 323409, Control_c, 0, 64, 117
1, 323423, Control_c, 0, 64, 122
1, 323438, Control_c, 0, 64, 127
1, 323468, Note_on_c, 0, 55, 76
1, 323469, Note_on_c, 0, 54, 79
1, 323521, Note_off_c, 0, 55, 62
1, 323523, Note_off_c, 0, 54, 62
1, 323571, Control_c, 0, 64, 118
1, 323586, Control_c, 0, 64, 96
1, 323601, Control_c, 0, 64, 78
1, 323602, Note_on_c, 0, 53, 91
1, 323602, Note_on_c, 0, 74, 92
1, 323603, Note_on_c, 0, 62, 91
1, 323604, Note_on_c, 0, 71, 85
1, 323607, Note_on_c, 0, 55, 83
1, 323616, Control_c, 0, 64, 63
1, 323630, Control_c, 0, 64, 0
1, 323666, Note_off_c, 0, 53, 65
1, 323669, Note_off_c, 0, 55, 60
1, 323675, Control_c, 0, 64, 64
1, 323690, Control_c, 0, 64, 72
1, 323705, Control_c, 0, 64, 80
1, 323727, Control_c, 0, 64, 87
1, 323741, Note_on_c, 0, 53, 86
1, 323741, Control_c, 0, 64, 93
1, 323742, Note_on_c, 0, 55, 76
1, 323746, Note_off_c, 0, 62, 62
1, 323756, Control_c, 0, 64, 99
1, 323769, Note_off_c, 0, 71, 61
1, 323771, Control_c, 0, 64, 106
1, 323786, Control_c, 0, 64, 112
1, 323787, Note_off_c, 0, 74, 62
1, 323794, Note_off_c, 0, 55, 62
1, 323797, Note_off_c, 0, 53, 66
1, 323801, Control_c, 0, 64, 117
1, 323815, Control_c, 0, 64, 119
1, 323830, Control_c, 0, 64, 122
1, 323845, Control_c, 0, 64, 126
1, 323860, Control_c, 0, 64, 127
1, 323869, Note_on_c, 0, 53, 86
1, 323875, Note_on_c, 0, 55, 79
1, 323928, Note_off_c, 0, 53, 64
1, 323928, Note_off_c, 0, 55, 61
1, 323979, Control_c, 0, 64, 125
1, 323994, Control_c, 0, 64, 100
1, 324004, Note_on_c, 0, 76, 94
1, 324007, Note_on_c, 0, 55, 84
1, 324009, Note_on_c, 0, 52, 91
1, 324009, Note_on_c, 0, 64, 92
1, 324009, Control_c, 0, 64, 82
1, 324011, Note_on_c, 0, 72, 91
1, 324024, Control_c, 0, 64, 66
1, 324039, Control_c, 0, 64, 0
1, 324069, Note_off_c, 0, 52, 66
1, 324069, Control_c, 0, 64, 53
1, 324075, Note_off_c, 0, 55, 62
1, 324084, Control_c, 0, 64, 67
1, 324098, Control_c, 0, 64, 74
1, 324113, Control_c, 0, 64, 81
1, 324128, Control_c, 0, 64, 85
1, 324137, Note_on_c, 0, 52, 91
1, 324140, Note_on_c, 0, 55, 78
1, 324143, Control_c, 0, 64, 89
1, 324158, Control_c, 0, 64, 93
1, 324172, Control_c, 0, 64, 96
1, 324185, Note_off_c, 0, 52, 68
1, 324187, Control_c, 0, 64, 99
1, 324191, Note_off_c, 0, 64, 60
1, 324195, Note_off_c, 0, 55, 63
1, 324202, Control_c, 0, 64, 101
1, 324216, Note_off_c, 0, 72, 62
1, 324217, Control_c, 0, 64, 103
1, 324218, Note_off_c, 0, 76, 62
1, 324232, Control_c, 0, 64, 104
1, 324246, Control_c, 0, 64, 104
1, 324261, Control_c, 0, 64, 105
1, 324268, Note_on_c, 0, 53, 83
1, 324273, Note_on_c, 0, 55, 78
1, 324274, Note_on_c, 0, 50, 77
1, 324290, Control_c, 0, 64, 106
1, 324305, Control_c, 0, 64, 106
1, 324306, Note_off_c, 0, 55, 53
1, 324314, Note_off_c, 0, 50, 59
1, 324316, Note_off_c, 0, 53, 66
1, 324330, Note_on_c, 0, 77, 89
1, 324331, Note_on_c, 0, 65, 86
1, 324335, Control_c, 0, 64, 107
1, 324343, Note_on_c, 0, 74, 66
1, 324343, Note_on_c, 0, 76, 64
1, 324364, Control_c, 0, 64, 107
1, 324371, Note_off_c, 0, 65, 62
1, 324371, Note_off_c, 0, 76, 63
1, 324373, Note_off_c, 0, 74, 64
1, 324379, Control_c, 0, 64, 109
1, 324391, Note_off_c, 0, 77, 61
1, 324394, Control_c, 0, 64, 110
1, 324453, Control_c, 0, 64, 109
1, 324476, Control_c, 0, 64, 102
1, 324491, Control_c, 0, 64, 89
1, 324493, Note_on_c, 0, 55, 77
1, 324494, Note_on_c, 0, 48, 77
1, 324494, Note_on_c, 0, 52, 77
1, 324496, Note_on_c, 0, 79, 96
1, 324498, Note_on_c, 0, 67, 94
1, 324499, Note_on_c, 0, 76, 89
1, 324506, Control_c, 0, 64, 73
1, 324521, Control_c, 0, 64, 45
1, 324536, Control_c, 0, 64, 0
1, 324564, Note_off_c, 0, 52, 61
1, 324574, Note_off_c, 0, 55, 59
1, 324578, Note_off_c, 0, 48, 62
1, 324624, Control_c, 0, 64, 56
1, 324639, Control_c, 0, 64, 70
1, 324645, Note_on_c, 0, 48, 63
1, 324649, Note_on_c, 0, 52, 75
1, 324652, Note_on_c, 0, 55, 64
1, 324654, Control_c, 0, 64, 79
1, 324669, Control_c, 0, 64, 88
1, 324684, Control_c, 0, 64, 93
1, 324694, Note_off_c, 0, 52, 61
1, 324694, Note_off_c, 0, 55, 60
1, 324700, Note_off_c, 0, 48, 63
1, 324700, Control_c, 0, 64, 95
1, 324714, Control_c, 0, 64, 96
1, 324729, Control_c, 0, 64, 98
1, 324745, Control_c, 0, 64, 101
1, 324757, Note_off_c, 0, 79, 60
1, 324760, Control_c, 0, 64, 104
1, 324763, Note_on_c, 0, 55, 71
1, 324767, Note_on_c, 0, 48, 61
1, 324772, Note_on_c, 0, 52, 64
1, 324775, Control_c, 0, 64, 106
1, 324789, Control_c, 0, 64, 107
1, 324797, Note_off_c, 0, 52, 71
1, 324802, Note_off_c, 0, 48, 66
1, 324804, Control_c, 0, 64, 108
1, 324807, Note_off_c, 0, 55, 64
1, 324819, Control_c, 0, 64, 110
1, 324834, Control_c, 0, 64, 112
1, 324837, Note_off_c, 0, 67, 58
1, 324849, Control_c, 0, 64, 112
1, 324878, Control_c, 0, 64, 112
1, 324880, Note_off_c, 0, 76, 63
1, 324893, Control_c, 0, 64, 106
1, 324905, Note_on_c, 0, 53, 72
1, 324906, Note_on_c, 0, 77, 90
1, 324906, Note_on_c, 0, 74, 76
1, 324908, Control_c, 0, 64, 92
1, 324909, Note_on_c, 0, 71, 71
1, 324918, Note_on_c, 0, 44, 54
1, 324919, Note_on_c, 0, 50, 56
1, 324922, Control_c, 0, 64, 77
1, 324937, Control_c, 0, 64, 64
1, 324952, Control_c, 0, 64, 0
1, 324966, Note_off_c, 0, 50, 53
1, 324969, Note_off_c, 0, 44, 46
1, 324972, Note_off_c, 0, 53, 55
1, 324996, Control_c, 0, 64, 44
1, 325011, Control_c, 0, 64, 63
1, 325018, Note_on_c, 0, 44, 49
1, 325024, Note_on_c, 0, 53, 41
1, 325026, Control_c, 0, 64, 69
1, 325032, Note_on_c, 0, 50, 51
1, 325040, Control_c, 0, 64, 74
1, 325055, Control_c, 0, 64, 80
1, 325066, Note_off_c, 0, 53, 65
1, 325070, Control_c, 0, 64, 83
1, 325079, Note_off_c, 0, 50, 59
1, 325085, Control_c, 0, 64, 85
1, 325100, Control_c, 0, 64, 87
1, 325111, Note_off_c, 0, 44, 37
1, 325115, Control_c, 0, 64, 90
1, 325127, Note_off_c, 0, 71, 59
1, 325130, Control_c, 0, 64, 92
1, 325145, Control_c, 0, 64, 94
1, 325155, Note_on_c, 0, 53, 70
1, 325160, Control_c, 0, 64, 95
1, 325162, Note_on_c, 0, 50, 60
1, 325169, Note_on_c, 0, 44, 6
1, 325175, Control_c, 0, 64, 96
1, 325189, Control_c, 0, 64, 98
1, 325195, Note_off_c, 0, 53, 64
1, 325203, Note_off_c, 0, 44, 47
1, 325204, Control_c, 0, 64, 99
1, 325207, Note_off_c, 0, 50, 60
1, 325226, Control_c, 0, 64, 99
1, 325231, Note_off_c, 0, 74, 52
1, 325270, Control_c, 0, 64, 98
1, 325285, Control_c, 0, 64, 92
1, 325297, Note_on_c, 0, 76, 72
1, 325300, Control_c, 0, 64, 78
1, 325302, Note_on_c, 0, 48, 67
1, 325308, Note_on_c, 0, 72, 67
1, 325310, Note_on_c, 0, 52, 63
1, 325313, Note_on_c, 0, 45, 56
1, 325315, Note_off_c, 0, 77, 51
1, 325315, Control_c, 0, 64, 65
1, 325330, Control_c, 0, 64, 0
1, 325352, Note_off_c, 0, 52, 60
1, 325356, Note_off_c, 0, 45, 59
1, 325356, Note_off_c, 0, 48, 64
1, 325404, Control_c, 0, 64, 63
1, 325419, Control_c, 0, 64, 70
1, 325432, Note_on_c, 0, 52, 57
1, 325434, Note_on_c, 0, 48, 54
1, 325434, Control_c, 0, 64, 77
1, 325440, Note_on_c, 0, 45, 50
1, 325448, Control_c, 0, 64, 84
1, 325461, Note_off_c, 0, 76, 68
1, 325463, Control_c, 0, 64, 88
1, 325465, Note_off_c, 0, 72, 65
1, 325478, Note_off_c, 0, 52, 62
1, 325478, Control_c, 0, 64, 92
1, 325479, Note_off_c, 0, 48, 66
1, 325485, Note_off_c, 0, 45, 59
1, 325493, Control_c, 0, 64, 94
1, 325508, Control_c, 0, 64, 96
1, 325523, Control_c, 0, 64, 98
1, 325538, Control_c, 0, 64, 101
1, 325553, Control_c, 0, 64, 103
1, 325568, Control_c, 0, 64, 104
1, 325577, Note_on_c, 0, 52, 49
1, 325583, Control_c, 0, 64, 105
1, 325587, Note_on_c, 0, 48, 50
1, 325598, Control_c, 0, 64, 106
1, 325607, Note_off_c, 0, 52, 60
1, 325612, Control_c, 0, 64, 107
1, 325617, Note_off_c, 0, 48, 55
1, 325627, Control_c, 0, 64, 108
1, 325686, Control_c, 0, 64, 104
1, 325701, Control_c, 0, 64, 93
1, 325716, Control_c, 0, 64, 78
1, 325728, Note_on_c, 0, 41, 58
1, 325731, Control_c, 0, 64, 64
1, 325732, Note_on_c, 0, 77, 78
1, 325738, Note_on_c, 0, 69, 56
1, 325745, Control_c, 0, 64, 0
1, 325791, Note_off_c, 0, 41, 65
1, 325805, Control_c, 0, 64, 60
1, 325819, Control_c, 0, 64, 69
1, 325834, Control_c, 0, 64, 75
1, 325849, Control_c, 0, 64, 82
1, 325863, Control_c, 0, 64, 88
1, 325878, Control_c, 0, 64, 90
1, 325893, Note_on_c, 0, 53, 54
1, 325893, Note_on_c, 0, 57, 44
1, 325893, Control_c, 0, 64, 92
1, 325908, Control_c, 0, 64, 94
1, 325923, Control_c, 0, 64, 95
1, 325927, Note_off_c, 0, 53, 64
1, 325927, Note_off_c, 0, 57, 52
1, 325938, Control_c, 0, 64, 96
1, 325953, Control_c, 0, 64, 97
1, 325975, Control_c, 0, 64, 98
1, 325981, Note_off_c, 0, 77, 57
1, 325990, Control_c, 0, 64, 98
1, 326000, Note_off_c, 0, 69, 64
1, 326005, Control_c, 0, 64, 99
1, 326006, Note_on_c, 0, 57, 53
1, 326013, Note_on_c, 0, 53, 43
1, 326034, Control_c, 0, 64, 100
1, 326035, Note_off_c, 0, 53, 59
1, 326042, Note_off_c, 0, 57, 63
1, 326049, Control_c, 0, 64, 100
1, 326064, Control_c, 0, 64, 101
1, 326065, Note_on_c, 0, 74, 64
1, 326078, Control_c, 0, 64, 101
1, 326084, Note_on_c, 0, 65, 42
1, 326088, Note_off_c, 0, 74, 71
1, 326113, Note_off_c, 0, 65, 53
1, 326152, Control_c, 0, 64, 96
1, 326167, Control_c, 0, 64, 86
1, 326177, Note_on_c, 0, 43, 52
1, 326181, Note_on_c, 0, 71, 66
1, 326182, Control_c, 0, 64, 74
1, 326195, Note_on_c, 0, 62, 48
1, 326197, Control_c, 0, 64, 62
1, 326204, Note_on_c, 0, 67, 42
1, 326212, Control_c, 0, 64, 0
1, 326230, Note_off_c, 0, 62, 0
1, 326230, Note_on_c, 0, 62, 9
1, 326256, Control_c, 0, 64, 22
1, 326270, Control_c, 0, 64, 58
1, 326286, Control_c, 0, 64, 65
1, 326301, Control_c, 0, 64, 70
1, 326316, Control_c, 0, 64, 74
1, 326323, Note_on_c, 0, 55, 56
1, 326331, Control_c, 0, 64, 78
1, 326346, Control_c, 0, 64, 83
1, 326358, Note_off_c, 0, 55, 63
1, 326360, Control_c, 0, 64, 86
1, 326372, Note_off_c, 0, 62, 56
1, 326375, Control_c, 0, 64, 88
1, 326390, Control_c, 0, 64, 90
1, 326397, Note_off_c, 0, 67, 60
1, 326405, Note_off_c, 0, 71, 61
1, 326405, Control_c, 0, 64, 92
1, 326420, Control_c, 0, 64, 93
1, 326434, Control_c, 0, 64, 95
1, 326447, Note_on_c, 0, 55, 58
1, 326449, Control_c, 0, 64, 98
1, 326464, Control_c, 0, 64, 99
1, 326468, Note_off_c, 0, 43, 30
1, 326479, Control_c, 0, 64, 101
1, 326492, Note_off_c, 0, 55, 53
1, 326493, Control_c, 0, 64, 102
1, 326553, Control_c, 0, 64, 101
1, 326567, Control_c, 0, 64, 98
1, 326576, Note_on_c, 0, 71, 76
1, 326582, Control_c, 0, 64, 93
1, 326587, Note_on_c, 0, 43, 59
1, 326587, Note_on_c, 0, 62, 54
1, 326588, Note_on_c, 0, 67, 58
1, 326597, Control_c, 0, 64, 85
1, 326612, Control_c, 0, 64, 79
1, 326627, Control_c, 0, 64, 74
1, 326641, Control_c, 0, 64, 72
1, 326656, Control_c, 0, 64, 73
1, 326671, Control_c, 0, 64, 76
1, 326686, Control_c, 0, 64, 82
1, 326701, Control_c, 0, 64, 87
1, 326701, Note_off_c, 0, 62, 59
1, 326723, Control_c, 0, 64, 91
1, 326738, Control_c, 0, 64, 94
1, 326739, Note_on_c, 0, 55, 56
1, 326753, Control_c, 0, 64, 97
1, 326767, Control_c, 0, 64, 100
1, 326768, Note_off_c, 0, 71, 61
1, 326775, Note_off_c, 0, 43, 52
1, 326782, Control_c, 0, 64, 103
1, 326786, Note_off_c, 0, 55, 59
1, 326787, Note_off_c, 0, 67, 59
1, 326797, Control_c, 0, 64, 105
1, 326811, Control_c, 0, 64, 106
1, 326826, Control_c, 0, 64, 107
1, 326841, Control_c, 0, 64, 109
1, 326856, Control_c, 0, 64, 111
1, 326871, Control_c, 0, 64, 112
1, 326877, Note_on_c, 0, 55, 50
1, 326900, Control_c, 0, 64, 112
1, 326915, Control_c, 0, 64, 113
1, 326930, Control_c, 0, 64, 113
1, 326934, Note_off_c, 0, 55, 53
1, 326945, Control_c, 0, 64, 114
1, 326990, Note_on_c, 0, 71, 72
1, 326995, Note_on_c, 0, 67, 53
1, 327002, Note_on_c, 0, 43, 53
1, 327003, Note_on_c, 0, 62, 54
1, 327005, Control_c, 0, 64, 114
1, 327019, Control_c, 0, 64, 115
1, 327034, Control_c, 0, 64, 115
1, 327049, Control_c, 0, 64, 117
1, 327064, Control_c, 0, 64, 117
1, 327079, Control_c, 0, 64, 118
1, 327094, Control_c, 0, 64, 119
1, 327105, Note_off_c, 0, 62, 60
1, 327109, Control_c, 0, 64, 122
1, 327124, Control_c, 0, 64, 125
1, 327139, Control_c, 0, 64, 127
1, 327141, Note_on_c, 0, 55, 31
1, 327160, Note_off_c, 0, 67, 63
1, 327166, Note_off_c, 0, 55, 57
1, 327178, Note_off_c, 0, 71, 61
1, 327240, Note_off_c, 0, 43, 33
1, 327246, Poly_aftertouch_c, 0, 70, 0
1, 327266, Note_on_c, 0, 55, 47
1, 327308, Note_off_c, 0, 55, 62
1, 327376, Control_c, 0, 64, 114
1, 327390, Control_c, 0, 64, 96
1, 327405, Control_c, 0, 64, 83
1, 327413, Note_on_c, 0, 76, 72
1, 327420, Note_on_c, 0, 67, 62
1, 327420, Control_c, 0, 64, 73
1, 327431, Note_on_c, 0, 55, 47
1, 327434, Control_c, 0, 64, 66
1, 327449, Control_c, 0, 64, 64
1, 327472, Control_c, 0, 64, 66
1, 327487, Control_c, 0, 64, 71
1, 327502, Control_c, 0, 64, 78
1, 327514, Note_off_c, 0, 55, 62
1, 327516, Control_c, 0, 64, 84
1, 327531, Control_c, 0, 64, 88
1, 327546, Control_c, 0, 64, 90
1, 327561, Control_c, 0, 64, 93
1, 327574, Note_off_c, 0, 76, 64
1, 327576, Control_c, 0, 64, 97
1, 327590, Control_c, 0, 64, 101
1, 327605, Control_c, 0, 64, 103
1, 327606, Note_on_c, 0, 57, 46
1, 327620, Control_c, 0, 64, 103
1, 327634, Note_on_c, 0, 55, 33
1, 327635, Control_c, 0, 64, 104
1, 327649, Control_c, 0, 64, 104
1, 327655, Note_off_c, 0, 57, 57
1, 327664, Control_c, 0, 64, 105
1, 327676, Note_off_c, 0, 55, 51
1, 327778, Note_off_c, 0, 67, 0
1, 327798, Note_on_c, 0, 55, 39
1, 327815, Poly_aftertouch_c, 0, 67, 127
1, 327821, Note_off_c, 0, 55, 62
1, 327836, Note_on_c, 0, 65, 51
1, 327837, Note_on_c, 0, 74, 56
1, 327872, Poly_aftertouch_c, 0, 67, 0
1, 327939, Note_off_c, 0, 65, 59
1, 328096, Control_c, 0, 64, 104
1, 328111, Control_c, 0, 64, 102
1, 328120, Note_on_c, 0, 72, 58
1, 328120, Note_off_c, 0, 74, 56
1, 328126, Control_c, 0, 64, 95
1, 328140, Control_c, 0, 64, 85
1, 328141, Note_on_c, 0, 64, 48
1, 328146, Note_on_c, 0, 55, 20
1, 328147, Note_on_c, 0, 60, 37
1, 328154, Note_on_c, 0, 48, 43
1, 328155, Control_c, 0, 64, 72
1, 328170, Control_c, 0, 64, 62
1, 328185, Control_c, 0, 64, 0
1, 328325, Control_c, 0, 64, 66
1, 328340, Control_c, 0, 64, 75
1, 328355, Control_c, 0, 64, 86
1, 328367, Note_off_c, 0, 48, 53
1, 328370, Note_off_c, 0, 55, 53
1, 328370, Control_c, 0, 64, 90
1, 328385, Control_c, 0, 64, 92
1, 328400, Control_c, 0, 64, 92
1, 328414, Control_c, 0, 64, 93
1, 328429, Control_c, 0, 64, 95
1, 328444, Control_c, 0, 64, 96
1, 328454, Note_off_c, 0, 60, 50
1, 328458, Control_c, 0, 64, 97
1, 328596, Note_on_c, 0, 55, 38
1, 328676, Note_off_c, 0, 55, 36
1, 328711, Control_c, 0, 67, 8
1, 328726, Control_c, 0, 67, 9
1, 328748, Note_on_c, 0, 55, 30
1, 328756, Control_c, 0, 67, 10
1, 328770, Control_c, 0, 67, 11
1, 328785, Control_c, 0, 67, 13
1, 328800, Control_c, 0, 67, 17
1, 328815, Control_c, 0, 67, 22
1, 328830, Control_c, 0, 67, 28
1, 328838, Note_off_c, 0, 55, 35
1, 328844, Control_c, 0, 67, 34
1, 328859, Control_c, 0, 67, 40
1, 328874, Control_c, 0, 67, 47
1, 328889, Control_c, 0, 67, 54
1, 328898, Note_on_c, 0, 55, 26
1, 328904, Control_c, 0, 67, 61
1, 328919, Control_c, 0, 67, 67
1, 328933, Control_c, 0, 67, 74
1, 328948, Control_c, 0, 67, 80
1, 328970, Control_c, 0, 67, 85
1, 328981, Note_off_c, 0, 55, 39
1, 328985, Control_c, 0, 67, 89
1, 329000, Control_c, 0, 67, 95
1, 329015, Control_c, 0, 67, 99
1, 329030, Control_c, 0, 67, 103
1, 329044, Control_c, 0, 67, 107
1, 329045, Note_on_c, 0, 55, 24
1, 329059, Control_c, 0, 67, 111
1, 329074, Control_c, 0, 67, 116
1, 329088, Control_c, 0, 67, 122
1, 329099, Note_off_c, 0, 64, 58
1, 329103, Control_c, 0, 67, 127
1, 329115, Note_off_c, 0, 55, 40
1, 329186, Note_on_c, 0, 55, 28
1, 329244, Note_off_c, 0, 55, 42
1, 329267, Note_off_c, 0, 72, 53
1, 329318, Note_on_c, 0, 55, 34
1, 329382, Note_off_c, 0, 55, 42
1, 329452, Note_on_c, 0, 55, 24
1, 329503, Note_off_c, 0, 55, 45
1, 329534, Control_c, 0, 64, 96
1, 329564, Control_c, 0, 64, 96
1, 329578, Control_c, 0, 64, 95
1, 329590, Note_on_c, 0, 55, 26
1, 329593, Control_c, 0, 64, 94
1, 329608, Control_c, 0, 64, 94
1, 329623, Control_c, 0, 64, 93
1, 329637, Control_c, 0, 64, 92
1, 329648, Note_off_c, 0, 55, 44
1, 329652, Control_c, 0, 64, 91
1, 329667, Control_c, 0, 64, 91
1, 329682, Control_c, 0, 64, 90
1, 329697, Control_c, 0, 64, 89
1, 329719, Control_c, 0, 64, 87
1, 329734, Control_c, 0, 64, 83
1, 329749, Control_c, 0, 64, 79
1, 329756, Note_on_c, 0, 55, 27
1, 329759, Note_on_c, 0, 83, 56
1, 329764, Control_c, 0, 64, 77
1, 329779, Control_c, 0, 64, 75
1, 329793, Control_c, 0, 64, 74
1, 329806, Note_off_c, 0, 55, 46
1, 329808, Control_c, 0, 64, 73
1, 329823, Control_c, 0, 64, 73
1, 329852, Control_c, 0, 64, 72
1, 329896, Note_on_c, 0, 55, 36
1, 329926, Control_c, 0, 64, 73
1, 329936, Note_off_c, 0, 55, 48
1, 329941, Control_c, 0, 64, 73
1, 329956, Control_c, 0, 64, 74
1, 329971, Control_c, 0, 64, 75
1, 329985, Control_c, 0, 64, 76
1, 330000, Control_c, 0, 64, 76
1, 330048, Note_on_c, 0, 55, 31
1, 330063, Note_on_c, 0, 84, 50
1, 330081, Note_off_c, 0, 55, 54
1, 330133, Control_c, 0, 64, 76
1, 330148, Control_c, 0, 64, 74
1, 330163, Control_c, 0, 64, 72
1, 330177, Control_c, 0, 64, 67
1, 330185, Note_off_c, 0, 84, 52
1, 330187, Note_on_c, 0, 86, 55
1, 330192, Control_c, 0, 64, 64
1, 330194, Note_on_c, 0, 55, 31
1, 330195, Note_off_c, 0, 83, 24
1, 330207, Control_c, 0, 64, 61
1, 330222, Control_c, 0, 64, 60
1, 330236, Note_off_c, 0, 55, 48
1, 330236, Control_c, 0, 64, 60
1, 330251, Control_c, 0, 64, 61
1, 330266, Control_c, 0, 64, 62
1, 330282, Control_c, 0, 64, 64
1, 330297, Control_c, 0, 64, 66
1, 330312, Control_c, 0, 64, 68
1, 330320, Note_on_c, 0, 55, 38
1, 330326, Control_c, 0, 64, 70
1, 330341, Control_c, 0, 64, 73
1, 330356, Control_c, 0, 64, 75
1, 330371, Control_c, 0, 64, 77
1, 330382, Note_off_c, 0, 55, 41
1, 330386, Control_c, 0, 64, 78
1, 330400, Control_c, 0, 64, 79
1, 330415, Note_off_c, 0, 86, 46
1, 330415, Control_c, 0, 64, 80
1, 330430, Control_c, 0, 64, 81
1, 330445, Control_c, 0, 64, 82
1, 330458, Note_on_c, 0, 55, 15
1, 330467, Control_c, 0, 64, 83
1, 330497, Control_c, 0, 64, 84
1, 330501, Note_off_c, 0, 55, 48
1, 330527, Control_c, 0, 64, 84
1, 330608, Note_on_c, 0, 86, 55
1, 330610, Note_on_c, 0, 55, 28
1, 330622, Note_on_c, 0, 77, 42
1, 330625, Note_on_c, 0, 83, 44
1, 330636, Note_on_c, 0, 80, 36
1, 330653, Note_off_c, 0, 55, 48
1, 330743, Note_on_c, 0, 55, 40
1, 330764, Control_c, 0, 64, 85
1, 330775, Note_off_c, 0, 77, 46
1, 330788, Note_off_c, 0, 55, 48
1, 330791, Note_off_c, 0, 86, 59
1, 330794, Control_c, 0, 64, 85
1, 330811, Note_off_c, 0, 80, 45
1, 330818, Note_off_c, 0, 83, 38
1, 330823, Control_c, 0, 64, 86
1, 330838, Control_c, 0, 64, 86
1, 330853, Control_c, 0, 64, 87
1, 330882, Control_c, 0, 64, 87
1, 330898, Note_on_c, 0, 55, 34
1, 330937, Note_off_c, 0, 55, 50
1, 331000, Control_c, 0, 64, 85
1, 331015, Control_c, 0, 64, 82
1, 331030, Control_c, 0, 64, 75
1, 331034, Note_on_c, 0, 84, 57
1, 331037, Note_on_c, 0, 55, 41
1, 331043, Note_on_c, 0, 81, 49
1, 331045, Note_on_c, 0, 86, 58
1, 331045, Control_c, 0, 64, 68
1, 331047, Note_on_c, 0, 78, 47
1, 331059, Control_c, 0, 64, 63
1, 331075, Control_c, 0, 64, 61
1, 331090, Control_c, 0, 64, 62
1, 331092, Note_off_c, 0, 55, 44
1, 331102, Note_off_c, 0, 78, 0
1, 331102, Note_on_c, 0, 78, 24
1, 331105, Control_c, 0, 64, 64
1, 331120, Control_c, 0, 64, 66
1, 331135, Control_c, 0, 64, 69
1, 331149, Control_c, 0, 64, 72
1, 331162, Note_on_c, 0, 55, 41
1, 331164, Control_c, 0, 64, 76
1, 331179, Control_c, 0, 64, 80
1, 331194, Control_c, 0, 64, 83
1, 331217, Control_c, 0, 64, 84
1, 331219, Note_off_c, 0, 55, 52
1, 331223, Note_off_c, 0, 84, 57
1, 331231, Control_c, 0, 64, 85
1, 331246, Control_c, 0, 64, 85
1, 331261, Control_c, 0, 64, 86
1, 331272, Note_off_c, 0, 81, 35
1, 331276, Control_c, 0, 64, 86
1, 331290, Control_c, 0, 64, 87
1, 331301, Note_on_c, 0, 55, 36
1, 331305, Control_c, 0, 64, 87
1, 331320, Control_c, 0, 64, 88
1, 331321, Note_off_c, 0, 78, 40
1, 331369, Note_off_c, 0, 55, 40
1, 331379, Control_c, 0, 64, 88
1, 331449, Note_on_c, 0, 84, 68
1, 331463, Note_on_c, 0, 81, 59
1, 331464, Note_on_c, 0, 55, 29
1, 331467, Note_on_c, 0, 62, 40
1, 331471, Note_on_c, 0, 78, 42
1, 331473, Note_off_c, 0, 86, 61
1, 331483, Control_c, 0, 64, 89
1, 331515, Note_off_c, 0, 55, 46
1, 331517, Note_off_c, 0, 78, 0
1, 331517, Note_on_c, 0, 78, 10
1, 331587, Control_c, 0, 64, 89
1, 331602, Control_c, 0, 64, 90
1, 331616, Control_c, 0, 64, 90
1, 331626, Note_on_c, 0, 55, 36
1, 331631, Control_c, 0, 64, 91
1, 331660, Note_off_c, 0, 55, 52
1, 331661, Control_c, 0, 64, 91
1, 331691, Control_c, 0, 64, 92
1, 331706, Control_c, 0, 64, 93
1, 331721, Control_c, 0, 64, 94
1, 331736, Control_c, 0, 64, 94
1, 331766, Note_on_c, 0, 55, 43
1, 331783, Note_off_c, 0, 62, 50
1, 331803, Note_off_c, 0, 55, 49
1, 331806, Note_on_c, 0, 86, 64
1, 331843, Note_off_c, 0, 81, 59
1, 331877, Note_off_c, 0, 84, 55
1, 331884, Note_off_c, 0, 78, 48
1, 332025, Control_c, 0, 64, 93
1, 332040, Control_c, 0, 64, 88
1, 332054, Control_c, 0, 64, 81
1, 332069, Note_on_c, 0, 87, 71
1, 332069, Control_c, 0, 64, 73
1, 332081, Note_on_c, 0, 81, 50
1, 332084, Control_c, 0, 64, 64
1, 332088, Note_on_c, 0, 78, 45
1, 332093, Note_on_c, 0, 55, 36
1, 332096, Note_on_c, 0, 60, 33
1, 332097, Note_off_c, 0, 86, 62
1, 332099, Control_c, 0, 64, 51
1, 332114, Control_c, 0, 64, 45
1, 332129, Control_c, 0, 64, 47
1, 332144, Control_c, 0, 64, 51
1, 332159, Control_c, 0, 64, 55
1, 332174, Control_c, 0, 64, 59
1, 332188, Control_c, 0, 64, 64
1, 332203, Control_c, 0, 64, 69
1, 332218, Control_c, 0, 64, 74
1, 332232, Control_c, 0, 64, 79
1, 332238, Note_off_c, 0, 55, 49
1, 332247, Control_c, 0, 64, 83
1, 332262, Control_c, 0, 64, 85
1, 332277, Control_c, 0, 64, 87
1, 332292, Control_c, 0, 64, 88
1, 332306, Control_c, 0, 64, 89
1, 332320, Note_on_c, 0, 55, 38
1, 332321, Control_c, 0, 64, 90
1, 332336, Control_c, 0, 64, 91
1, 332366, Control_c, 0, 64, 91
1, 332380, Control_c, 0, 64, 92
1, 332385, Note_off_c, 0, 55, 41
1, 332441, Note_on_c, 0, 55, 38
1, 332487, Note_off_c, 0, 55, 58
1, 332514, Control_c, 0, 64, 92
1, 332619, Note_off_c, 0, 60, 61
1, 332626, Poly_aftertouch_c, 0, 55, 127
1, 332672, Poly_aftertouch_c, 0, 55, 0
1, 332693, Note_on_c, 0, 55, 27
1, 332721, Note_on_c, 0, 62, 51
1, 332723, Note_on_c, 0, 86, 56
1, 332789, Note_off_c, 0, 62, 58
1, 332813, Note_off_c, 0, 55, 0
1, 332818, Note_off_c, 0, 87, 0
1, 332830, Note_on_c, 0, 55, 33
1, 332877, Control_c, 0, 64, 93
1, 332919, Note_off_c, 0, 55, 0
1, 332947, Note_on_c, 0, 55, 11
1, 332952, Control_c, 0, 64, 92
1, 332970, Note_on_c, 0, 63, 58
1, 332971, Note_on_c, 0, 84, 63
1, 332986, Poly_aftertouch_c, 0, 87, 0
1, 332991, Note_off_c, 0, 86, 56
1, 333026, Note_off_c, 0, 55, 54
1, 333065, Note_off_c, 0, 63, 0
1, 333071, Note_off_c, 0, 78, 62
1, 333087, Note_on_c, 0, 63, 28
1, 333109, Note_on_c, 0, 55, 28
1, 333110, Note_off_c, 0, 84, 59
1, 333118, Note_off_c, 0, 81, 33
1, 333176, Note_off_c, 0, 55, 41
1, 333229, Note_on_c, 0, 55, 43
1, 333247, Control_c, 0, 64, 93
1, 333261, Note_off_c, 0, 55, 63
1, 333272, Note_off_c, 0, 63, 52
1, 333292, Control_c, 0, 64, 93
1, 333351, Control_c, 0, 64, 93
1, 333366, Control_c, 0, 64, 88
1, 333381, Control_c, 0, 64, 80
1, 333384, Note_on_c, 0, 86, 64
1, 333392, Note_on_c, 0, 81, 60
1, 333396, Control_c, 0, 64, 70
1, 333396, Note_on_c, 0, 55, 44
1, 333398, Note_on_c, 0, 74, 43
1, 333402, Note_on_c, 0, 66, 51
1, 333411, Control_c, 0, 64, 62
1, 333426, Control_c, 0, 64, 53
1, 333441, Control_c, 0, 64, 58
1, 333455, Note_off_c, 0, 55, 42
1, 333462, Control_c, 0, 64, 64
1, 333477, Control_c, 0, 64, 70
1, 333493, Control_c, 0, 64, 75
1, 333508, Control_c, 0, 64, 80
1, 333523, Control_c, 0, 64, 84
1, 333538, Control_c, 0, 64, 86
1, 333553, Control_c, 0, 64, 87
1, 333558, Note_on_c, 0, 55, 43
1, 333567, Control_c, 0, 64, 89
1, 333582, Control_c, 0, 64, 91
1, 333587, Note_off_c, 0, 55, 56
1, 333597, Control_c, 0, 64, 91
1, 333612, Control_c, 0, 64, 92
1, 333627, Control_c, 0, 64, 92
1, 333641, Control_c, 0, 64, 93
1, 333656, Control_c, 0, 64, 93
1, 333670, Note_off_c, 0, 81, 58
1, 333682, Note_on_c, 0, 55, 49
1, 333685, Control_c, 0, 64, 94
1, 333686, Note_off_c, 0, 86, 54
1, 333695, Note_off_c, 0, 74, 37
1, 333700, Control_c, 0, 64, 94
1, 333715, Control_c, 0, 64, 95
1, 333726, Note_off_c, 0, 55, 61
1, 333726, Note_off_c, 0, 66, 60
1, 333728, Note_on_c, 0, 84, 58
1, 333730, Control_c, 0, 64, 95
1, 333748, Note_off_c, 0, 84, 67
1, 333789, Control_c, 0, 64, 95
1, 333804, Control_c, 0, 64, 91
1, 333819, Control_c, 0, 64, 84
1, 333826, Note_on_c, 0, 83, 67
1, 333834, Control_c, 0, 64, 74
1, 333837, Note_on_c, 0, 55, 48
1, 333838, Note_on_c, 0, 67, 54
1, 333842, Note_on_c, 0, 79, 48
1, 333849, Control_c, 0, 64, 65
1, 333852, Note_on_c, 0, 74, 45
1, 333864, Control_c, 0, 64, 55
1, 333871, Note_off_c, 0, 55, 49
1, 333878, Control_c, 0, 64, 55
1, 333891, Note_off_c, 0, 79, 0
1, 333891, Note_on_c, 0, 79, 15
1, 333893, Control_c, 0, 64, 60
1, 333908, Control_c, 0, 64, 66
1, 333923, Control_c, 0, 64, 70
1, 333938, Control_c, 0, 64, 74
1, 333952, Control_c, 0, 64, 78
1, 333967, Control_c, 0, 64, 81
1, 333980, Note_on_c, 0, 55, 50
1, 333982, Control_c, 0, 64, 83
1, 333996, Control_c, 0, 64, 85
1, 334011, Control_c, 0, 64, 86
1, 334026, Control_c, 0, 64, 87
1, 334029, Note_off_c, 0, 55, 55
1, 334031, Note_off_c, 0, 67, 54
1, 334056, Control_c, 0, 64, 87
1, 334070, Control_c, 0, 64, 88
1, 334085, Control_c, 0, 64, 89
1, 334100, Control_c, 0, 64, 90
1, 334114, Note_on_c, 0, 55, 39
1, 334130, Control_c, 0, 64, 90
1, 334144, Control_c, 0, 64, 91
1, 334151, Note_off_c, 0, 55, 57
1, 334159, Note_off_c, 0, 74, 36
1, 334159, Control_c, 0, 64, 91
1, 334182, Note_off_c, 0, 79, 40
1, 334189, Control_c, 0, 64, 92
1, 334252, Note_on_c, 0, 79, 37
1, 334254, Note_on_c, 0, 81, 63
1, 334259, Note_on_c, 0, 65, 57
1, 334268, Note_on_c, 0, 55, 52
1, 334272, Note_on_c, 0, 74, 39
1, 334287, Control_c, 0, 64, 92
1, 334296, Note_off_c, 0, 83, 58
1, 334314, Note_off_c, 0, 55, 48
1, 334402, Note_on_c, 0, 55, 54
1, 334405, Control_c, 0, 64, 93
1, 334442, Note_off_c, 0, 55, 60
1, 334464, Control_c, 0, 64, 93
1, 334479, Control_c, 0, 64, 94
1, 334498, Note_off_c, 0, 74, 35
1, 334508, Control_c, 0, 64, 94
1, 334528, Note_off_c, 0, 65, 35
1, 334538, Control_c, 0, 64, 95
1, 334545, Note_on_c, 0, 55, 37
1, 334553, Control_c, 0, 64, 96
1, 334564, Note_on_c, 0, 83, 62
1, 334568, Control_c, 0, 64, 96
1, 334583, Note_off_c, 0, 55, 49
1, 334583, Note_off_c, 0, 81, 52
1, 334585, Note_off_c, 0, 79, 39
1, 334627, Control_c, 0, 64, 96
1, 334642, Control_c, 0, 64, 92
1, 334657, Control_c, 0, 64, 85
1, 334662, Note_off_c, 0, 83, 57
1, 334665, Note_on_c, 0, 84, 73
1, 334672, Control_c, 0, 64, 73
1, 334680, Note_on_c, 0, 63, 56
1, 334682, Note_on_c, 0, 79, 55
1, 334686, Note_on_c, 0, 55, 49
1, 334687, Control_c, 0, 64, 64
1, 334692, Note_on_c, 0, 72, 47
1, 334701, Control_c, 0, 64, 53
1, 334728, Note_off_c, 0, 55, 49
1, 334731, Control_c, 0, 64, 60
1, 334746, Control_c, 0, 64, 66
1, 334761, Control_c, 0, 64, 71
1, 334775, Control_c, 0, 64, 76
1, 334790, Control_c, 0, 64, 80
1, 334805, Control_c, 0, 64, 82
1, 334814, Note_off_c, 0, 72, 64
1, 334819, Control_c, 0, 64, 84
1, 334834, Control_c, 0, 64, 86
1, 334839, Note_on_c, 0, 55, 24
1, 334845, Note_off_c, 0, 79, 62
1, 334849, Control_c, 0, 64, 87
1, 334864, Control_c, 0, 64, 89
1, 334874, Note_off_c, 0, 55, 54
1, 334879, Control_c, 0, 64, 90
1, 334891, Note_off_c, 0, 84, 62
1, 334893, Control_c, 0, 64, 91
1, 334908, Control_c, 0, 64, 91
1, 334923, Control_c, 0, 64, 92
1, 334938, Control_c, 0, 64, 93
1, 334961, Control_c, 0, 64, 94
1, 334975, Control_c, 0, 64, 95
1, 334990, Control_c, 0, 64, 95
1, 334999, Note_on_c, 0, 55, 26
1, 335035, Note_off_c, 0, 55, 52
1, 335049, Control_c, 0, 64, 96
1, 335061, Note_off_c, 0, 63, 48
1, 335126, Note_on_c, 0, 86, 62
1, 335133, Note_on_c, 0, 83, 44
1, 335140, Note_on_c, 0, 60, 53
1, 335148, Note_on_c, 0, 79, 41
1, 335153, Note_on_c, 0, 55, 35
1, 335187, Note_off_c, 0, 55, 52
1, 335298, Note_on_c, 0, 55, 37
1, 335330, Control_c, 0, 64, 96
1, 335333, Note_off_c, 0, 55, 49
1, 335382, Note_off_c, 0, 60, 39
1, 335448, Note_on_c, 0, 60, 25
1, 335488, Note_on_c, 0, 55, 3
1, 335503, Note_off_c, 0, 60, 45
1, 335517, Note_off_c, 0, 83, 61
1, 335519, Note_off_c, 0, 86, 63
1, 335527, Note_on_c, 0, 87, 60
1, 335529, Note_on_c, 0, 84, 51
1, 335534, Note_off_c, 0, 55, 43
1, 335597, Note_off_c, 0, 84, 0
1, 335597, Note_on_c, 0, 84, 19
1, 335639, Note_off_c, 0, 79, 41
1, 335679, Note_off_c, 0, 87, 62
1, 335738, Control_c, 0, 64, 95
1, 335743, Note_off_c, 0, 84, 48
1, 335753, Control_c, 0, 64, 92
1, 335768, Control_c, 0, 64, 85
1, 335782, Control_c, 0, 64, 76
1, 335783, Note_on_c, 0, 86, 57
1, 335797, Control_c, 0, 64, 67
1, 335798, Note_on_c, 0, 67, 40
1, 335799, Note_on_c, 0, 83, 31
1, 335803, Note_on_c, 0, 79, 27
1, 335805, Note_on_c, 0, 55, 41
1, 335812, Control_c, 0, 64, 53
1, 335827, Control_c, 0, 64, 23
1, 335842, Control_c, 0, 64, 25
1, 335856, Control_c, 0, 64, 32
1, 335872, Control_c, 0, 64, 41
1, 335887, Control_c, 0, 64, 52
1, 335902, Control_c, 0, 64, 61
1, 335917, Control_c, 0, 64, 66
1, 335932, Control_c, 0, 64, 71
1, 335946, Control_c, 0, 64, 75
1, 335961, Control_c, 0, 64, 79
1, 335976, Control_c, 0, 64, 83
1, 335991, Control_c, 0, 64, 86
1, 335992, Note_off_c, 0, 55, 47
1, 336006, Control_c, 0, 64, 89
1, 336020, Control_c, 0, 64, 91
1, 336035, Control_c, 0, 64, 92
1, 336050, Control_c, 0, 64, 93
1, 336079, Control_c, 0, 64, 93
1, 336094, Control_c, 0, 64, 94
1, 336100, Note_on_c, 0, 55, 38
1, 336109, Control_c, 0, 64, 95
1, 336124, Control_c, 0, 64, 96
1, 336153, Control_c, 0, 64, 97
1, 336159, Note_off_c, 0, 55, 44
1, 336243, Control_c, 0, 64, 97
1, 336255, Note_on_c, 0, 55, 43
1, 336314, Note_off_c, 0, 55, 43
1, 336394, Note_on_c, 0, 55, 38
1, 336405, Control_c, 0, 64, 98
1, 336460, Note_off_c, 0, 55, 53
1, 336527, Note_on_c, 0, 55, 45
1, 336575, Note_off_c, 0, 55, 58
1, 336576, Control_c, 0, 64, 98
1, 336690, Note_on_c, 0, 55, 47
1, 336729, Note_off_c, 0, 55, 48
1, 336813, Control_c, 0, 64, 99
1, 336824, Note_on_c, 0, 55, 62
1, 336877, Note_off_c, 0, 86, 62
1, 336902, Note_off_c, 0, 83, 55
1, 336945, Note_off_c, 0, 79, 57
1, 336952, Note_on_c, 0, 56, 59
1, 336976, Control_c, 0, 67, 125
1, 336983, Note_off_c, 0, 67, 41
1, 336991, Control_c, 0, 67, 117
1, 337006, Control_c, 0, 67, 111
1, 337020, Control_c, 0, 67, 105
1, 337029, Note_off_c, 0, 55, 31
1, 337035, Control_c, 0, 67, 101
1, 337050, Control_c, 0, 67, 98
1, 337065, Control_c, 0, 67, 97
1, 337089, Note_on_c, 0, 57, 69
1, 337094, Control_c, 0, 67, 96
1, 337109, Control_c, 0, 67, 95
1, 337124, Control_c, 0, 67, 93
1, 337128, Note_off_c, 0, 56, 59
1, 337139, Control_c, 0, 67, 92
1, 337154, Control_c, 0, 67, 91
1, 337220, Control_c, 0, 67, 92
1, 337235, Control_c, 0, 64, 98
1, 337235, Control_c, 0, 67, 93
1, 337250, Control_c, 0, 64, 97
1, 337250, Control_c, 0, 67, 94
1, 337265, Control_c, 0, 64, 93
1, 337278, Note_off_c, 0, 57, 58
1, 337280, Control_c, 0, 64, 87
1, 337280, Control_c, 0, 67, 94
1, 337286, Note_on_c, 0, 58, 65
1, 337292, Note_on_c, 0, 74, 76
1, 337295, Control_c, 0, 64, 79
1, 337309, Control_c, 0, 64, 71
1, 337309, Control_c, 0, 67, 95
1, 337324, Control_c, 0, 64, 64
1, 337324, Control_c, 0, 67, 95
1, 337339, Control_c, 0, 64, 57
1, 337354, Control_c, 0, 64, 52
1, 337354, Control_c, 0, 67, 96
1, 337369, Control_c, 0, 64, 53
1, 337383, Control_c, 0, 64, 54
1, 337383, Control_c, 0, 67, 95
1, 337396, Note_off_c, 0, 58, 64
1, 337398, Control_c, 0, 64, 57
1, 337413, Control_c, 0, 64, 61
1, 337413, Control_c, 0, 67, 94
1, 337427, Control_c, 0, 64, 65
1, 337442, Control_c, 0, 64, 71
1, 337449, Note_on_c, 0, 58, 62
1, 337457, Control_c, 0, 64, 76
1, 337473, Control_c, 0, 64, 80
1, 337488, Control_c, 0, 64, 82
1, 337488, Control_c, 0, 67, 94
1, 337494, Note_off_c, 0, 58, 60
1, 337503, Control_c, 0, 64, 83
1, 337517, Control_c, 0, 64, 84
1, 337532, Control_c, 0, 64, 84
1, 337547, Control_c, 0, 64, 85
1, 337562, Control_c, 0, 64, 86
1, 337562, Control_c, 0, 67, 94
1, 337568, Note_on_c, 0, 58, 67
1, 337577, Control_c, 0, 67, 95
1, 337591, Control_c, 0, 64, 86
1, 337591, Control_c, 0, 67, 96
1, 337606, Control_c, 0, 67, 97
1, 337621, Control_c, 0, 67, 97
1, 337623, Note_on_c, 0, 75, 71
1, 337634, Note_off_c, 0, 58, 56
1, 337636, Control_c, 0, 67, 98
1, 337665, Control_c, 0, 64, 86
1, 337665, Control_c, 0, 67, 98
1, 337680, Control_c, 0, 64, 82
1, 337680, Control_c, 0, 67, 99
1, 337695, Control_c, 0, 64, 76
1, 337710, Control_c, 0, 64, 68
1, 337721, Note_on_c, 0, 77, 88
1, 337724, Control_c, 0, 64, 54
1, 337727, Note_on_c, 0, 58, 59
1, 337733, Note_off_c, 0, 75, 51
1, 337739, Control_c, 0, 64, 34
1, 337739, Control_c, 0, 67, 98
1, 337754, Control_c, 0, 64, 0
1, 337754, Control_c, 0, 67, 99
1, 337788, Note_off_c, 0, 58, 61
1, 337805, Note_off_c, 0, 74, 34
1, 337814, Control_c, 0, 64, 47
1, 337828, Control_c, 0, 64, 67
1, 337828, Control_c, 0, 67, 99
1, 337843, Control_c, 0, 64, 73
1, 337843, Control_c, 0, 67, 100
1, 337858, Control_c, 0, 64, 79
1, 337858, Control_c, 0, 67, 101
1, 337860, Note_on_c, 0, 58, 61
1, 337873, Control_c, 0, 64, 84
1, 337873, Control_c, 0, 67, 101
1, 337888, Control_c, 0, 64, 86
1, 337903, Control_c, 0, 64, 88
1, 337917, Note_off_c, 0, 58, 58
1, 337917, Control_c, 0, 64, 91
1, 337932, Control_c, 0, 64, 93
1, 337932, Control_c, 0, 67, 102
1, 337948, Note_off_c, 0, 77, 60
1, 337954, Control_c, 0, 64, 95
1, 337954, Control_c, 0, 67, 102
1, 337969, Control_c, 0, 64, 97
1, 337969, Control_c, 0, 67, 103
1, 337983, Control_c, 0, 64, 98
1, 337983, Control_c, 0, 67, 104
1, 337984, Note_on_c, 0, 58, 53
1, 337998, Control_c, 0, 64, 101
1, 337998, Control_c, 0, 67, 105
1, 338013, Control_c, 0, 64, 104
1, 338028, Control_c, 0, 64, 105
1, 338028, Control_c, 0, 67, 106
1, 338033, Note_off_c, 0, 58, 61
1, 338043, Control_c, 0, 67, 108
1, 338058, Control_c, 0, 67, 112
1, 338073, Control_c, 0, 67, 117
1, 338088, Control_c, 0, 67, 121
1, 338103, Control_c, 0, 64, 101
1, 338103, Control_c, 0, 67, 123
1, 338118, Control_c, 0, 64, 92
1, 338118, Control_c, 0, 67, 124
1, 338132, Control_c, 0, 64, 82
1, 338132, Control_c, 0, 67, 127
1, 338134, Note_on_c, 0, 77, 75
1, 338137, Note_on_c, 0, 68, 64
1, 338138, Note_on_c, 0, 78, 72
1, 338139, Note_on_c, 0, 74, 61
1, 338140, Note_on_c, 0, 65, 64
1, 338147, Note_on_c, 0, 71, 43
1, 338147, Control_c, 0, 64, 71
1, 338147, Control_c, 0, 67, 127
1, 338161, Note_on_c, 0, 58, 45
1, 338162, Control_c, 0, 64, 60
1, 338176, Control_c, 0, 64, 23
1, 338182, Note_off_c, 0, 58, 60
1, 338191, Control_c, 0, 64, 0
1, 338198, Note_off_c, 0, 65, 60
1, 338206, Control_c, 0, 64, 22
1, 338222, Control_c, 0, 64, 37
1, 338237, Control_c, 0, 64, 47
1, 338246, Note_off_c, 0, 78, 57
1, 338251, Control_c, 0, 64, 56
1, 338266, Control_c, 0, 64, 63
1, 338270, Note_on_c, 0, 58, 58
1, 338277, Note_on_c, 0, 65, 46
1, 338282, Control_c, 0, 64, 67
1, 338296, Control_c, 0, 64, 73
1, 338311, Control_c, 0, 64, 77
1, 338317, Note_off_c, 0, 58, 56
1, 338317, Note_off_c, 0, 65, 65
1, 338326, Control_c, 0, 64, 81
1, 338341, Control_c, 0, 64, 83
1, 338356, Control_c, 0, 64, 86
1, 338371, Note_off_c, 0, 71, 60
1, 338371, Control_c, 0, 64, 89
1, 338386, Control_c, 0, 64, 91
1, 338401, Control_c, 0, 64, 93
1, 338410, Note_on_c, 0, 65, 67
1, 338415, Control_c, 0, 64, 94
1, 338428, Note_off_c, 0, 77, 58
1, 338430, Control_c, 0, 64, 94
1, 338434, Note_off_c, 0, 68, 56
1, 338445, Control_c, 0, 64, 95
1, 338451, Note_off_c, 0, 65, 54
1, 338460, Control_c, 0, 64, 96
1, 338484, Note_off_c, 0, 74, 55
1, 338519, Control_c, 0, 64, 93
1, 338531, Poly_aftertouch_c, 0, 58, 0
1, 338534, Control_c, 0, 64, 87
1, 338543, Note_on_c, 0, 77, 84
1, 338547, Note_on_c, 0, 58, 35
1, 338548, Control_c, 0, 64, 77
1, 338552, Note_on_c, 0, 68, 68
1, 338553, Note_on_c, 0, 70, 65
1, 338560, Note_on_c, 0, 62, 60
1, 338563, Control_c, 0, 64, 66
1, 338578, Control_c, 0, 64, 46
1, 338592, Control_c, 0, 64, 0
1, 338607, Note_off_c, 0, 62, 58
1, 338616, Note_off_c, 0, 58, 60
1, 338652, Control_c, 0, 64, 16
1, 338666, Control_c, 0, 64, 56
1, 338681, Control_c, 0, 64, 65
1, 338704, Control_c, 0, 64, 69
1, 338708, Note_on_c, 0, 62, 58
1, 338711, Note_on_c, 0, 58, 39
1, 338719, Control_c, 0, 64, 72
1, 338734, Control_c, 0, 64, 77
1, 338742, Note_off_c, 0, 58, 57
1, 338747, Note_off_c, 0, 62, 62
1, 338748, Control_c, 0, 64, 81
1, 338763, Control_c, 0, 64, 86
1, 338778, Control_c, 0, 64, 90
1, 338792, Control_c, 0, 64, 92
1, 338807, Control_c, 0, 64, 95
1, 338822, Control_c, 0, 64, 97
1, 338832, Note_on_c, 0, 62, 65
1, 338834, Note_off_c, 0, 68, 54
1, 338837, Note_off_c, 0, 77, 58
1, 338837, Control_c, 0, 64, 99
1, 338844, Note_on_c, 0, 58, 52
1, 338845, Note_off_c, 0, 70, 60
1, 338852, Control_c, 0, 64, 101
1, 338866, Control_c, 0, 64, 102
1, 338869, Note_off_c, 0, 58, 63
1, 338872, Note_off_c, 0, 62, 60
1, 338881, Control_c, 0, 64, 103
1, 338917, Note_on_c, 0, 75, 72
1, 338926, Control_c, 0, 64, 98
1, 338937, Note_on_c, 0, 68, 49
1, 338941, Control_c, 0, 64, 87
1, 338944, Note_off_c, 0, 75, 66
1, 338950, Note_on_c, 0, 58, 68
1, 338955, Control_c, 0, 64, 73
1, 338958, Note_on_c, 0, 77, 76
1, 338964, Note_on_c, 0, 70, 20
1, 338970, Control_c, 0, 64, 18
1, 338982, Note_off_c, 0, 58, 59
1, 338985, Control_c, 0, 64, 0
1, 339003, Note_on_c, 0, 75, 71
1, 339072, Note_on_c, 0, 58, 59
1, 339075, Control_c, 0, 64, 65
1, 339089, Note_off_c, 0, 77, 58
1, 339090, Control_c, 0, 64, 71
1, 339104, Control_c, 0, 64, 76
1, 339107, Note_off_c, 0, 58, 65
1, 339119, Control_c, 0, 64, 81
1, 339134, Control_c, 0, 64, 85
1, 339149, Control_c, 0, 64, 88
1, 339155, Note_off_c, 0, 68, 63
1, 339164, Control_c, 0, 64, 90
1, 339169, Note_off_c, 0, 70, 49
1, 339179, Control_c, 0, 64, 91
1, 339194, Control_c, 0, 64, 91
1, 339204, Note_on_c, 0, 58, 58
1, 339229, Note_on_c, 0, 74, 79
1, 339238, Control_c, 0, 64, 92
1, 339253, Control_c, 0, 64, 92
1, 339263, Note_off_c, 0, 75, 66
1, 339268, Note_off_c, 0, 58, 53
1, 339268, Control_c, 0, 64, 93
1, 339297, Control_c, 0, 64, 93
1, 339327, Control_c, 0, 64, 94
1, 339342, Control_c, 0, 64, 94
1, 339415, Control_c, 0, 64, 94
1, 339430, Control_c, 0, 64, 89
1, 339449, Note_on_c, 0, 79, 89
1, 339453, Control_c, 0, 64, 78
1, 339457, Note_on_c, 0, 63, 55
1, 339468, Control_c, 0, 64, 67
1, 339475, Note_on_c, 0, 70, 51
1, 339481, Note_on_c, 0, 67, 44
1, 339481, Note_off_c, 0, 74, 61
1, 339483, Control_c, 0, 64, 25
1, 339497, Control_c, 0, 64, 0
1, 339511, Note_off_c, 0, 70, 0
1, 339511, Note_on_c, 0, 70, 28
1, 339513, Note_off_c, 0, 63, 49
1, 339518, Note_off_c, 0, 67, 0
1, 339518, Note_on_c, 0, 67, 10
1, 339557, Control_c, 0, 64, 32
1, 339571, Control_c, 0, 64, 65
1, 339586, Control_c, 0, 64, 72
1, 339601, Note_on_c, 0, 63, 52
1, 339601, Control_c, 0, 64, 77
1, 339615, Control_c, 0, 64, 82
1, 339630, Control_c, 0, 64, 85
1, 339643, Note_off_c, 0, 63, 54
1, 339645, Control_c, 0, 64, 87
1, 339647, Note_off_c, 0, 70, 64
1, 339660, Control_c, 0, 64, 88
1, 339663, Note_off_c, 0, 67, 44
1, 339675, Control_c, 0, 64, 89
1, 339689, Control_c, 0, 64, 90
1, 339704, Control_c, 0, 64, 91
1, 339719, Control_c, 0, 64, 92
1, 339727, Note_on_c, 0, 63, 46
1, 339734, Control_c, 0, 64, 93
1, 339763, Control_c, 0, 64, 93
1, 339769, Note_off_c, 0, 63, 49
1, 339823, Control_c, 0, 64, 93
1, 339838, Control_c, 0, 64, 88
1, 339853, Control_c, 0, 64, 80
1, 339861, Note_on_c, 0, 74, 57
1, 339868, Control_c, 0, 64, 70
1, 339870, Note_on_c, 0, 68, 64
1, 339876, Note_on_c, 0, 59, 48
1, 339876, Note_on_c, 0, 62, 50
1, 339883, Control_c, 0, 64, 60
1, 339885, Note_on_c, 0, 65, 35
1, 339898, Control_c, 0, 64, 33
1, 339913, Control_c, 0, 64, 0
1, 339918, Note_off_c, 0, 59, 60
1, 339922, Note_off_c, 0, 62, 61
1, 339924, Note_off_c, 0, 65, 52
1, 339927, Control_c, 0, 64, 16
1, 339942, Control_c, 0, 64, 49
1, 339957, Control_c, 0, 64, 64
1, 339972, Control_c, 0, 64, 71
1, 339987, Control_c, 0, 64, 77
1, 340002, Control_c, 0, 64, 82
1, 340013, Note_on_c, 0, 62, 49
1, 340016, Control_c, 0, 64, 84
1, 340029, Note_on_c, 0, 65, 39
1, 340031, Note_on_c, 0, 59, 39
1, 340031, Control_c, 0, 64, 86
1, 340044, Note_on_c, 0, 77, 75
1, 340046, Control_c, 0, 64, 87
1, 340049, Note_off_c, 0, 68, 64
1, 340061, Control_c, 0, 64, 88
1, 340061, Note_off_c, 0, 62, 47
1, 340064, Note_off_c, 0, 65, 52
1, 340071, Note_off_c, 0, 59, 47
1, 340076, Control_c, 0, 64, 89
1, 340086, Note_off_c, 0, 74, 61
1, 340091, Control_c, 0, 64, 90
1, 340106, Control_c, 0, 67, 127
1, 340120, Control_c, 0, 64, 90
1, 340120, Control_c, 0, 67, 125
1, 340135, Control_c, 0, 64, 91
1, 340135, Control_c, 0, 67, 123
1, 340141, Note_on_c, 0, 65, 50
1, 340144, Note_on_c, 0, 59, 43
1, 340150, Control_c, 0, 64, 92
1, 340150, Control_c, 0, 67, 123
1, 340154, Note_on_c, 0, 62, 41
1, 340158, Note_off_c, 0, 79, 51
1, 340165, Control_c, 0, 64, 92
1, 340165, Control_c, 0, 67, 122
1, 340178, Note_off_c, 0, 59, 51
1, 340180, Control_c, 0, 64, 93
1, 340180, Control_c, 0, 67, 122
1, 340191, Note_off_c, 0, 65, 59
1, 340192, Note_off_c, 0, 62, 55
1, 340246, Control_c, 0, 64, 92
1, 340261, Control_c, 0, 64, 88
1, 340261, Control_c, 0, 67, 123
1, 340276, Control_c, 0, 64, 79
1, 340286, Note_on_c, 0, 75, 73
1, 340291, Control_c, 0, 64, 67
1, 340291, Control_c, 0, 67, 123
1, 340299, Note_on_c, 0, 60, 50
1, 340300, Note_on_c, 0, 63, 59
1, 340302, Note_on_c, 0, 67, 51
1, 340306, Control_c, 0, 64, 36
1, 340320, Control_c, 0, 64, 0
1, 340321, Note_off_c, 0, 77, 57
1, 340339, Note_off_c, 0, 63, 64
1, 340340, Note_off_c, 0, 60, 61
1, 340365, Control_c, 0, 64, 42
1, 340379, Control_c, 0, 64, 65
1, 340394, Control_c, 0, 64, 71
1, 340409, Control_c, 0, 64, 77
1, 340424, Control_c, 0, 64, 81
1, 340431, Note_on_c, 0, 63, 52
1, 340434, Note_off_c, 0, 67, 64
1, 340435, Note_off_c, 0, 75, 66
1, 340438, Control_c, 0, 64, 84
1, 340438, Control_c, 0, 67, 124
1, 340450, Note_on_c, 0, 60, 28
1, 340453, Control_c, 0, 64, 85
1, 340453, Control_c, 0, 67, 124
1, 340457, Note_off_c, 0, 63, 54
1, 340467, Control_c, 0, 64, 86
1, 340467, Control_c, 0, 67, 125
1, 340482, Control_c, 0, 64, 88
1, 340482, Control_c, 0, 67, 126
1, 340486, Note_off_c, 0, 60, 42
1, 340497, Control_c, 0, 64, 89
1, 340497, Control_c, 0, 67, 127
1, 340511, Control_c, 0, 64, 91
1, 340511, Control_c, 0, 67, 127
1, 340526, Control_c, 0, 64, 93
1, 340541, Control_c, 0, 64, 94
1, 340546, Note_on_c, 0, 60, 45
1, 340548, Note_on_c, 0, 63, 51
1, 340556, Control_c, 0, 64, 95
1, 340570, Note_off_c, 0, 60, 61
1, 340571, Control_c, 0, 64, 96
1, 340572, Note_off_c, 0, 63, 58
1, 340601, Control_c, 0, 64, 96
1, 340645, Control_c, 0, 64, 96
1, 340660, Control_c, 0, 64, 93
1, 340675, Control_c, 0, 64, 85
1, 340687, Note_on_c, 0, 74, 76
1, 340690, Control_c, 0, 64, 72
1, 340693, Note_on_c, 0, 65, 64
1, 340696, Note_on_c, 0, 53, 61
1, 340697, Note_on_c, 0, 68, 64
1, 340702, Note_on_c, 0, 56, 59
1, 340705, Control_c, 0, 64, 60
1, 340720, Control_c, 0, 64, 0
1, 340738, Note_off_c, 0, 56, 63
1, 340762, Note_off_c, 0, 53, 59
1, 340794, Control_c, 0, 64, 63
1, 340809, Control_c, 0, 64, 69
1, 340824, Control_c, 0, 64, 75
1, 340825, Note_on_c, 0, 56, 61
1, 340836, Note_on_c, 0, 53, 27
1, 340839, Control_c, 0, 64, 80
1, 340854, Control_c, 0, 64, 84
1, 340857, Note_off_c, 0, 65, 63
1, 340863, Note_off_c, 0, 56, 60
1, 340868, Control_c, 0, 64, 86
1, 340883, Control_c, 0, 64, 88
1, 340886, Note_off_c, 0, 53, 50
1, 340888, Note_off_c, 0, 74, 61
1, 340898, Control_c, 0, 64, 90
1, 340913, Control_c, 0, 64, 91
1, 340928, Control_c, 0, 64, 93
1, 340949, Control_c, 0, 64, 95
1, 340957, Note_on_c, 0, 53, 43
1, 340961, Note_on_c, 0, 56, 59
1, 340964, Control_c, 0, 64, 96
1, 340979, Control_c, 0, 64, 98
1, 340994, Control_c, 0, 64, 99
1, 341004, Note_on_c, 0, 72, 76
1, 341008, Note_off_c, 0, 56, 56
1, 341009, Control_c, 0, 64, 99
1, 341014, Note_off_c, 0, 53, 63
1, 341018, Note_on_c, 0, 63, 64
1, 341045, Note_off_c, 0, 68, 64
1, 341050, Note_off_c, 0, 63, 66
1, 341060, Note_off_c, 0, 72, 63
1, 341068, Control_c, 0, 64, 98
1, 341083, Control_c, 0, 64, 90
1, 341098, Control_c, 0, 64, 78
1, 341111, Note_on_c, 0, 71, 73
1, 341113, Control_c, 0, 64, 64
1, 341113, Note_on_c, 0, 55, 66
1, 341114, Note_on_c, 0, 67, 67
1, 341116, Note_on_c, 0, 62, 66
1, 341128, Control_c, 0, 64, 0
1, 341173, Note_off_c, 0, 55, 61
1, 341232, Control_c, 0, 64, 63
1, 341242, Note_on_c, 0, 55, 46
1, 341247, Control_c, 0, 64, 69
1, 341262, Control_c, 0, 64, 74
1, 341276, Control_c, 0, 64, 81
1, 341291, Control_c, 0, 64, 85
1, 341296, Note_off_c, 0, 55, 58
1, 341306, Control_c, 0, 64, 87
1, 341321, Control_c, 0, 64, 89
1, 341325, Note_off_c, 0, 62, 49
1, 341335, Control_c, 0, 64, 91
1, 341350, Control_c, 0, 64, 93
1, 341365, Control_c, 0, 64, 95
1, 341372, Note_off_c, 0, 67, 39
1, 341378, Note_on_c, 0, 55, 59
1, 341380, Control_c, 0, 64, 97
1, 341394, Control_c, 0, 64, 98
1, 341409, Control_c, 0, 64, 98
1, 341417, Note_off_c, 0, 55, 60
1, 341441, Note_off_c, 0, 71, 37
1, 341484, Control_c, 0, 64, 94
1, 341499, Control_c, 0, 64, 86
1, 341513, Note_on_c, 0, 69, 71
1, 341514, Control_c, 0, 64, 74
1, 341516, Note_on_c, 0, 67, 64
1, 341523, Note_on_c, 0, 53, 58
1, 341525, Note_on_c, 0, 62, 61
1, 341529, Control_c, 0, 64, 63
1, 341536, Note_on_c, 0, 55, 42
1, 341544, Control_c, 0, 64, 0
1, 341565, Note_off_c, 0, 55, 55
1, 341588, Control_c, 0, 64, 36
1, 341603, Control_c, 0, 64, 62
1, 341617, Control_c, 0, 64, 68
1, 341631, Note_off_c, 0, 53, 0
1, 341632, Control_c, 0, 64, 74
1, 341647, Control_c, 0, 64, 81
1, 341650, Note_on_c, 0, 53, 20
1, 341656, Note_on_c, 0, 55, 58
1, 341662, Control_c, 0, 64, 84
1, 341677, Control_c, 0, 64, 87
1, 341699, Control_c, 0, 64, 89
1, 341704, Note_off_c, 0, 55, 63
1, 341708, Note_off_c, 0, 53, 59
1, 341714, Control_c, 0, 64, 90
1, 341722, Note_off_c, 0, 62, 55
1, 341729, Control_c, 0, 64, 92
1, 341744, Control_c, 0, 64, 93
1, 341759, Control_c, 0, 64, 93
1, 341773, Control_c, 0, 64, 94
1, 341788, Control_c, 0, 64, 95
1, 341797, Note_on_c, 0, 55, 44
1, 341803, Control_c, 0, 64, 96
1, 341817, Control_c, 0, 64, 97
1, 341830, Note_off_c, 0, 67, 0
1, 341832, Control_c, 0, 64, 97
1, 341834, Note_on_c, 0, 71, 66
1, 341834, Note_off_c, 0, 55, 51
1, 341846, Note_off_c, 0, 69, 64
1, 341868, Poly_aftertouch_c, 0, 67, 127
1, 341877, Control_c, 0, 64, 96
1, 341891, Note_off_c, 0, 71, 53
1, 341891, Control_c, 0, 64, 90
1, 341903, Poly_aftertouch_c, 0, 67, 0
1, 341906, Control_c, 0, 64, 78
1, 341918, Note_on_c, 0, 67, 40
1, 341921, Control_c, 0, 64, 65
1, 341922, Note_on_c, 0, 72, 79
1, 341928, Note_on_c, 0, 51, 55
1, 341936, Note_on_c, 0, 60, 57
1, 341936, Control_c, 0, 64, 0
1, 342011, Control_c, 0, 64, 62
1, 342025, Control_c, 0, 64, 70
1, 342039, Note_off_c, 0, 60, 63
1, 342040, Control_c, 0, 64, 78
1, 342055, Control_c, 0, 64, 84
1, 342063, Note_on_c, 0, 55, 57
1, 342070, Control_c, 0, 64, 88
1, 342082, Note_off_c, 0, 67, 63
1, 342085, Control_c, 0, 64, 90
1, 342099, Control_c, 0, 64, 92
1, 342101, Note_off_c, 0, 72, 67
1, 342102, Note_off_c, 0, 55, 60
1, 342114, Control_c, 0, 64, 93
1, 342129, Control_c, 0, 64, 94
1, 342143, Control_c, 0, 64, 95
1, 342173, Control_c, 0, 64, 95
1, 342188, Control_c, 0, 64, 96
1, 342201, Note_on_c, 0, 55, 47
1, 342203, Control_c, 0, 64, 96
1, 342217, Control_c, 0, 64, 97
1, 342233, Note_off_c, 0, 55, 51
1, 342286, Note_off_c, 0, 51, 18
1, 342293, Control_c, 0, 64, 96
1, 342307, Control_c, 0, 64, 92
1, 342322, Control_c, 0, 64, 80
1, 342332, Note_on_c, 0, 77, 77
1, 342337, Control_c, 0, 64, 68
1, 342340, Note_on_c, 0, 67, 66
1, 342344, Note_on_c, 0, 74, 62
1, 342347, Note_on_c, 0, 55, 45
1, 342352, Control_c, 0, 64, 37
1, 342354, Note_on_c, 0, 48, 53
1, 342367, Control_c, 0, 64, 0
1, 342416, Note_off_c, 0, 55, 63
1, 342426, Control_c, 0, 64, 62
1, 342448, Control_c, 0, 64, 69
1, 342463, Control_c, 0, 64, 74
1, 342478, Control_c, 0, 64, 80
1, 342493, Control_c, 0, 64, 84
1, 342500, Note_on_c, 0, 55, 53
1, 342508, Control_c, 0, 64, 87
1, 342522, Control_c, 0, 64, 88
1, 342537, Control_c, 0, 64, 89
1, 342541, Note_off_c, 0, 55, 63
1, 342552, Control_c, 0, 64, 90
1, 342566, Control_c, 0, 64, 91
1, 342581, Control_c, 0, 64, 92
1, 342596, Control_c, 0, 64, 92
1, 342613, Note_off_c, 0, 74, 64
1, 342625, Note_off_c, 0, 67, 49
1, 342626, Control_c, 0, 64, 93
1, 342629, Note_off_c, 0, 48, 61
1, 342640, Control_c, 0, 64, 94
1, 342644, Note_on_c, 0, 55, 40
1, 342655, Control_c, 0, 64, 95
1, 342663, Note_on_c, 0, 72, 74
1, 342668, Note_on_c, 0, 67, 36
1, 342669, Note_on_c, 0, 75, 73
1, 342670, Control_c, 0, 64, 96
1, 342677, Note_off_c, 0, 55, 49
1, 342685, Control_c, 0, 64, 97
1, 342700, Control_c, 0, 64, 97
1, 342714, Control_c, 0, 64, 98
1, 342718, Note_off_c, 0, 72, 62
1, 342729, Control_c, 0, 64, 100
1, 342744, Control_c, 0, 64, 101
1, 342744, Control_c, 0, 67, 126
1, 342750, Note_off_c, 0, 75, 53
1, 342759, Control_c, 0, 64, 102
1, 342759, Control_c, 0, 67, 112
1, 342774, Control_c, 0, 67, 101
1, 342787, Note_off_c, 0, 77, 36
1, 342789, Control_c, 0, 67, 91
1, 342804, Control_c, 0, 67, 82
1, 342806, Note_off_c, 0, 67, 35
1, 342819, Control_c, 0, 67, 74
1, 342833, Control_c, 0, 67, 67
1, 342848, Control_c, 0, 67, 61
1, 342863, Control_c, 0, 67, 58
1, 342878, Control_c, 0, 64, 101
1, 342878, Control_c, 0, 67, 57
1, 342893, Control_c, 0, 64, 95
1, 342896, Note_on_c, 0, 74, 77
1, 342902, Note_on_c, 0, 43, 61
1, 342905, Note_on_c, 0, 67, 66
1, 342908, Control_c, 0, 64, 87
1, 342908, Control_c, 0, 67, 56
1, 342911, Note_on_c, 0, 71, 59
1, 342913, Note_on_c, 0, 55, 56
1, 342922, Control_c, 0, 64, 78
1, 342922, Control_c, 0, 67, 56
1, 342937, Control_c, 0, 64, 69
1, 342937, Control_c, 0, 67, 55
1, 342952, Control_c, 0, 64, 56
1, 342952, Control_c, 0, 67, 55
1, 342966, Control_c, 0, 64, 0
1, 342966, Control_c, 0, 67, 54
1, 342981, Control_c, 0, 67, 53
1, 342996, Control_c, 0, 67, 51
1, 343011, Control_c, 0, 67, 47
1, 343026, Control_c, 0, 67, 40
1, 343040, Control_c, 0, 67, 32
1, 343055, Control_c, 0, 67, 22
1, 343071, Control_c, 0, 67, 12
1, 343086, Control_c, 0, 64, 53
1, 343086, Control_c, 0, 67, 0
1, 343101, Control_c, 0, 64, 67
1, 343116, Control_c, 0, 64, 74
1, 343117, Note_off_c, 0, 55, 57
1, 343130, Control_c, 0, 64, 83
1, 343145, Control_c, 0, 64, 90
1, 343160, Control_c, 0, 64, 93
1, 343172, Note_on_c, 0, 55, 47
1, 343175, Control_c, 0, 64, 94
1, 343197, Control_c, 0, 64, 95
1, 343209, Note_off_c, 0, 67, 62
1, 343212, Control_c, 0, 64, 96
1, 343227, Control_c, 0, 64, 97
1, 343241, Note_off_c, 0, 55, 63
1, 343242, Control_c, 0, 64, 98
1, 343257, Control_c, 0, 64, 99
1, 343271, Control_c, 0, 64, 100
1, 343286, Control_c, 0, 64, 101
1, 343301, Control_c, 0, 64, 102
1, 343316, Control_c, 0, 64, 103
1, 343322, Note_on_c, 0, 55, 67
1, 343331, Control_c, 0, 64, 104
1, 343345, Control_c, 0, 64, 106
1, 343360, Control_c, 0, 64, 107
1, 343375, Control_c, 0, 64, 109
1, 343382, Note_off_c, 0, 55, 64
1, 343389, Control_c, 0, 64, 111
1, 343404, Control_c, 0, 64, 114
1, 343419, Control_c, 0, 64, 116
1, 343434, Control_c, 0, 64, 119
1, 343449, Control_c, 0, 64, 121
1, 343461, Note_on_c, 0, 55, 71
1, 343463, Control_c, 0, 64, 124
1, 343478, Control_c, 0, 64, 127
1, 343507, Note_off_c, 0, 74, 61
1, 343528, Note_off_c, 0, 55, 62
1, 343564, Note_off_c, 0, 71, 59
1, 343595, Note_on_c, 0, 55, 75
1, 343659, Note_off_c, 0, 55, 62
1, 343736, Note_on_c, 0, 55, 79
1, 343796, Note_off_c, 0, 55, 62
1, 343869, Note_on_c, 0, 55, 83
1, 343942, Note_off_c, 0, 55, 62
1, 344014, Note_on_c, 0, 55, 80
1, 344088, Note_off_c, 0, 55, 63
1, 344159, Note_on_c, 0, 55, 81
1, 344229, Note_off_c, 0, 55, 62
1, 344284, Note_off_c, 0, 43, 60
1, 344291, Note_on_c, 0, 71, 90
1, 344293, Note_on_c, 0, 55, 79
1, 344296, Note_on_c, 0, 59, 90
1, 344297, Note_on_c, 0, 67, 89
1, 344343, Note_off_c, 0, 55, 64
1, 344428, Note_on_c, 0, 55, 83
1, 344479, Note_off_c, 0, 55, 65
1, 344518, Note_off_c, 0, 59, 59
1, 344526, Note_off_c, 0, 71, 57
1, 344528, Note_off_c, 0, 67, 61
1, 344559, Note_on_c, 0, 55, 83
1, 344596, Note_on_c, 0, 69, 91
1, 344600, Note_on_c, 0, 60, 88
1, 344602, Note_on_c, 0, 72, 83
1, 344612, Note_off_c, 0, 55, 63
1, 344631, Note_off_c, 0, 60, 60
1, 344636, Note_off_c, 0, 69, 67
1, 344640, Note_off_c, 0, 72, 62
1, 344673, Control_c, 0, 64, 96
1, 344696, Control_c, 0, 64, 64
1, 344701, Note_on_c, 0, 74, 99
1, 344703, Note_on_c, 0, 71, 97
1, 344704, Note_on_c, 0, 62, 101
1, 344706, Note_on_c, 0, 55, 91
1, 344711, Control_c, 0, 64, 0
1, 344773, Note_off_c, 0, 55, 62
1, 344814, Control_c, 0, 64, 45
1, 344829, Control_c, 0, 64, 79
1, 344833, Note_on_c, 0, 55, 83
1, 344843, Control_c, 0, 64, 93
1, 344858, Control_c, 0, 64, 108
1, 344873, Control_c, 0, 64, 111
1, 344888, Control_c, 0, 64, 119
1, 344895, Note_off_c, 0, 55, 64
1, 344903, Control_c, 0, 64, 127
1, 344907, Note_off_c, 0, 74, 66
1, 344907, Note_off_c, 0, 62, 56
1, 344909, Note_off_c, 0, 71, 60
1, 344972, Note_on_c, 0, 55, 87
1, 345038, Note_off_c, 0, 55, 64
1, 345065, Control_c, 0, 64, 125
1, 345080, Control_c, 0, 64, 92
1, 345095, Control_c, 0, 64, 65
1, 345103, Note_on_c, 0, 71, 94
1, 345105, Note_on_c, 0, 62, 97
1, 345105, Note_on_c, 0, 74, 95
1, 345109, Note_on_c, 0, 55, 90
1, 345109, Control_c, 0, 64, 0
1, 345111, Note_on_c, 0, 54, 94
1, 345153, Control_c, 0, 64, 56
1, 345164, Note_off_c, 0, 55, 65
1, 345167, Note_off_c, 0, 54, 63
1, 345168, Control_c, 0, 64, 74
1, 345183, Control_c, 0, 64, 85
1, 345198, Control_c, 0, 64, 93
1, 345213, Control_c, 0, 64, 95
1, 345227, Control_c, 0, 64, 97
1, 345241, Note_on_c, 0, 55, 85
1, 345242, Note_on_c, 0, 54, 88
1, 345242, Control_c, 0, 64, 104
1, 345257, Control_c, 0, 64, 113
1, 345272, Control_c, 0, 64, 124
1, 345287, Control_c, 0, 64, 127
1, 345292, Note_off_c, 0, 54, 60
1, 345294, Note_off_c, 0, 55, 63
1, 345302, Note_off_c, 0, 74, 58
1, 345304, Note_off_c, 0, 71, 55
1, 345320, Note_off_c, 0, 62, 51
1, 345373, Note_on_c, 0, 54, 90
1, 345378, Note_on_c, 0, 55, 80
1, 345423, Note_off_c, 0, 55, 61
1, 345443, Note_off_c, 0, 54, 62
1, 345473, Control_c, 0, 64, 106
1, 345488, Control_c, 0, 64, 79
1, 345503, Control_c, 0, 64, 44
1, 345513, Note_on_c, 0, 71, 94
1, 345514, Note_on_c, 0, 53, 96
1, 345514, Note_on_c, 0, 62, 101
1, 345515, Note_on_c, 0, 74, 94
1, 345516, Note_on_c, 0, 55, 94
1, 345518, Control_c, 0, 64, 0
1, 345547, Control_c, 0, 64, 66
1, 345562, Control_c, 0, 64, 84
1, 345571, Note_off_c, 0, 53, 68
1, 345577, Control_c, 0, 64, 107
1, 345579, Note_off_c, 0, 55, 63
1, 345591, Control_c, 0, 64, 113
1, 345621, Note_on_c, 0, 70, 42
1, 345630, Note_off_c, 0, 62, 60
1, 345648, Note_off_c, 0, 70, 47
1, 345651, Control_c, 0, 64, 113
1, 345654, Note_off_c, 0, 74, 63
1, 345659, Note_on_c, 0, 52, 99
1, 345659, Note_off_c, 0, 71, 59
1, 345660, Note_on_c, 0, 55, 88
1, 345665, Control_c, 0, 64, 114
1, 345680, Control_c, 0, 64, 117
1, 345695, Control_c, 0, 64, 119
1, 345710, Control_c, 0, 64, 122
1, 345713, Note_off_c, 0, 52, 68
1, 345716, Note_off_c, 0, 55, 61
1, 345725, Control_c, 0, 64, 124
1, 345740, Control_c, 0, 64, 126
1, 345755, Control_c, 0, 64, 127
1, 345799, Note_on_c, 0, 55, 95
1, 345801, Note_on_c, 0, 50, 94
1, 345864, Note_off_c, 0, 50, 62
1, 345865, Note_off_c, 0, 55, 60
1, 345918, Control_c, 0, 64, 109
1, 345932, Control_c, 0, 64, 86
1, 345945, Note_on_c, 0, 48, 99
1, 345946, Note_on_c, 0, 55, 98
1, 345947, Control_c, 0, 64, 62
1, 345948, Note_on_c, 0, 72, 88
1, 345948, Note_on_c, 0, 76, 99
1, 345949, Note_on_c, 0, 64, 97
1, 345962, Control_c, 0, 64, 0
1, 345991, Control_c, 0, 64, 68
1, 346006, Control_c, 0, 64, 84
1, 346021, Control_c, 0, 64, 104
1, 346024, Note_off_c, 0, 48, 66
1, 346029, Note_off_c, 0, 55, 63
1, 346036, Control_c, 0, 64, 115
1, 346078, Note_off_c, 0, 64, 63
1, 346080, Control_c, 0, 64, 115
1, 346095, Control_c, 0, 64, 117
1, 346101, Note_on_c, 0, 47, 101
1, 346104, Note_on_c, 0, 55, 92
1, 346109, Note_off_c, 0, 72, 64
1, 346110, Control_c, 0, 64, 120
1, 346111, Note_off_c, 0, 76, 65
1, 346124, Control_c, 0, 64, 125
1, 346139, Control_c, 0, 64, 127
1, 346162, Note_off_c, 0, 47, 65
1, 346165, Note_off_c, 0, 55, 62
1, 346265, Note_on_c, 0, 55, 104
1, 346266, Note_on_c, 0, 46, 112
1, 346357, Note_on_c, 0, 65, 96
1, 346357, Note_on_c, 0, 74, 97
1, 346357, Note_on_c, 0, 77, 95
1, 346357, Note_off_c, 0, 55, 56
1, 346370, Note_off_c, 0, 46, 55
1, 346413, Note_off_c, 0, 65, 62
1, 346433, Note_off_c, 0, 74, 64
1, 346442, Note_off_c, 0, 77, 62
1, 346622, Control_c, 0, 64, 117
1, 346622, Note_on_c, 0, 79, 103
1, 346623, Note_on_c, 0, 55, 101
1, 346625, Note_on_c, 0, 76, 104
1, 346625, Note_on_c, 0, 45, 99
1, 346625, Note_on_c, 0, 67, 106
1, 346637, Control_c, 0, 64, 79
1, 346652, Control_c, 0, 64, 0
1, 346829, Control_c, 0, 64, 55
1, 346844, Control_c, 0, 64, 79
1, 346859, Control_c, 0, 64, 90
1, 346874, Control_c, 0, 64, 101
1, 346888, Control_c, 0, 64, 104
1, 346903, Control_c, 0, 64, 109
1, 346908, Note_off_c, 0, 55, 62
1, 346910, Note_off_c, 0, 45, 61
1, 346918, Control_c, 0, 64, 118
1, 346940, Control_c, 0, 64, 127
1, 347003, Note_on_c, 0, 55, 78
1, 347004, Note_on_c, 0, 45, 76
1, 347069, Note_off_c, 0, 55, 61
1, 347072, Note_off_c, 0, 45, 63
1, 347144, Note_on_c, 0, 45, 83
1, 347150, Note_on_c, 0, 55, 74
1, 347198, Note_off_c, 0, 55, 62
1, 347205, Note_off_c, 0, 79, 51
1, 347206, Note_off_c, 0, 45, 64
1, 347214, Note_off_c, 0, 67, 44
1, 347269, Note_on_c, 0, 45, 76
1, 347275, Note_on_c, 0, 55, 75
1, 347331, Note_off_c, 0, 45, 62
1, 347337, Note_off_c, 0, 55, 64
1, 347399, Note_off_c, 0, 76, 59
1, 347406, Note_on_c, 0, 55, 74
1, 347411, Note_on_c, 0, 45, 78
1, 347440, Note_on_c, 0, 77, 89
1, 347445, Note_on_c, 0, 65, 79
1, 347448, Note_on_c, 0, 74, 70
1, 347473, Note_off_c, 0, 45, 61
1, 347482, Note_off_c, 0, 55, 62
1, 347544, Note_on_c, 0, 55, 65
1, 347554, Note_on_c, 0, 45, 67
1, 347576, Note_off_c, 0, 65, 61
1, 347603, Note_off_c, 0, 55, 61
1, 347615, Note_off_c, 0, 45, 63
1, 347618, Note_off_c, 0, 74, 63
1, 347627, Note_off_c, 0, 77, 61
1, 347637, Control_c, 0, 64, 119
1, 347652, Control_c, 0, 64, 91
1, 347667, Control_c, 0, 64, 68
1, 347688, Note_on_c, 0, 76, 89
1, 347689, Control_c, 0, 64, 0
1, 347695, Note_on_c, 0, 73, 84
1, 347698, Note_on_c, 0, 45, 71
1, 347698, Note_on_c, 0, 64, 81
1, 347700, Note_on_c, 0, 55, 75
1, 347749, Control_c, 0, 64, 62
1, 347763, Control_c, 0, 64, 74
1, 347778, Note_off_c, 0, 55, 64
1, 347778, Control_c, 0, 64, 88
1, 347793, Control_c, 0, 64, 99
1, 347802, Note_off_c, 0, 45, 61
1, 347808, Control_c, 0, 64, 106
1, 347823, Control_c, 0, 64, 110
1, 347837, Control_c, 0, 64, 114
1, 347853, Control_c, 0, 64, 118
1, 347856, Note_on_c, 0, 45, 60
1, 347857, Note_off_c, 0, 76, 64
1, 347868, Control_c, 0, 64, 124
1, 347869, Note_off_c, 0, 64, 63
1, 347883, Control_c, 0, 64, 127
1, 347890, Note_off_c, 0, 73, 63
1, 347916, Note_off_c, 0, 45, 64
1, 347967, Note_on_c, 0, 45, 67
1, 348029, Note_off_c, 0, 45, 65
1, 348108, Note_on_c, 0, 45, 72
1, 348166, Note_off_c, 0, 45, 65
1, 348245, Note_on_c, 0, 45, 72
1, 348300, Note_off_c, 0, 45, 63
1, 348372, Note_on_c, 0, 45, 74
1, 348525, Note_off_c, 0, 45, 64
1, 348541, Control_c, 0, 64, 113
1, 348552, Note_on_c, 0, 64, 97
1, 348556, Control_c, 0, 64, 86
1, 348557, Note_on_c, 0, 55, 85
1, 348558, Note_on_c, 0, 61, 89
1, 348562, Note_on_c, 0, 46, 80
1, 348571, Control_c, 0, 64, 62
1, 348585, Control_c, 0, 64, 0
1, 348661, Control_c, 0, 64, 57
1, 348676, Note_off_c, 0, 46, 63
1, 348676, Control_c, 0, 64, 72
1, 348690, Control_c, 0, 64, 81
1, 348705, Control_c, 0, 64, 87
1, 348729, Note_on_c, 0, 45, 66
1, 348762, Note_off_c, 0, 45, 64
1, 348764, Control_c, 0, 64, 85
1, 348779, Control_c, 0, 64, 82
1, 348794, Control_c, 0, 64, 78
1, 348808, Control_c, 0, 64, 72
1, 348823, Control_c, 0, 64, 65
1, 348838, Control_c, 0, 64, 60
1, 348849, Note_on_c, 0, 45, 56
1, 348853, Control_c, 0, 64, 46
1, 348868, Control_c, 0, 64, 0
1, 348900, Note_off_c, 0, 45, 62
1, 349000, Note_on_c, 0, 45, 46
1, 349040, Note_off_c, 0, 45, 60
1, 349135, Note_on_c, 0, 45, 43
1, 349168, Note_on_c, 0, 65, 52
1, 349185, Note_off_c, 0, 64, 60
1, 349200, Note_off_c, 0, 45, 52
1, 349277, Note_on_c, 0, 45, 34
1, 349327, Note_off_c, 0, 45, 55
1, 349424, Note_on_c, 0, 64, 49
1, 349431, Note_on_c, 0, 45, 42
1, 349436, Note_off_c, 0, 65, 59
1, 349487, Note_off_c, 0, 45, 46
1, 349565, Note_on_c, 0, 45, 36
1, 349618, Note_off_c, 0, 45, 52
1, 349697, Note_on_c, 0, 45, 39
1, 349750, Note_off_c, 0, 45, 57
1, 349829, Note_on_c, 0, 45, 45
1, 349839, Control_c, 0, 64, 23
1, 349853, Control_c, 0, 64, 44
1, 349868, Control_c, 0, 64, 45
1, 349879, Note_off_c, 0, 45, 57
1, 349883, Control_c, 0, 64, 50
1, 349898, Control_c, 0, 64, 59
1, 349913, Control_c, 0, 64, 64
1, 349935, Control_c, 0, 64, 65
1, 349949, Control_c, 0, 64, 65
1, 349964, Control_c, 0, 64, 66
1, 349973, Note_on_c, 0, 45, 54
1, 349979, Control_c, 0, 64, 67
1, 349994, Control_c, 0, 64, 70
1, 350007, Note_off_c, 0, 55, 61
1, 350009, Control_c, 0, 64, 72
1, 350014, Note_off_c, 0, 45, 60
1, 350023, Control_c, 0, 64, 74
1, 350031, Note_off_c, 0, 61, 60
1, 350038, Control_c, 0, 64, 74
1, 350053, Control_c, 0, 64, 75
1, 350056, Note_off_c, 0, 64, 65
1, 350068, Control_c, 0, 64, 77
1, 350083, Control_c, 0, 64, 80
1, 350098, Control_c, 0, 64, 81
1, 350107, Note_on_c, 0, 45, 57
1, 350113, Control_c, 0, 64, 82
1, 350128, Control_c, 0, 64, 82
1, 350143, Control_c, 0, 64, 85
1, 350144, Note_off_c, 0, 45, 50
1, 350157, Control_c, 0, 64, 90
1, 350172, Control_c, 0, 64, 95
1, 350187, Control_c, 0, 64, 96
1, 350202, Control_c, 0, 64, 97
1, 350217, Control_c, 0, 64, 98
1, 350231, Control_c, 0, 64, 102
1, 350246, Control_c, 0, 64, 105
1, 350262, Control_c, 0, 64, 106
1, 350336, Control_c, 0, 64, 103
1, 350351, Control_c, 0, 64, 93
1, 350364, Note_on_c, 0, 77, 104
1, 350366, Control_c, 0, 64, 77
1, 350366, Note_on_c, 0, 74, 95
1, 350369, Note_on_c, 0, 65, 96
1, 350370, Note_on_c, 0, 44, 89
1, 350380, Control_c, 0, 64, 63
1, 350395, Control_c, 0, 64, 0
1, 350558, Control_c, 0, 64, 76
1, 350572, Control_c, 0, 64, 103
1, 350587, Control_c, 0, 64, 127
1, 350606, Note_off_c, 0, 44, 63
1, 350663, Note_on_c, 0, 44, 74
1, 350741, Note_off_c, 0, 44, 63
1, 350824, Note_on_c, 0, 44, 78
1, 350831, Note_off_c, 0, 77, 57
1, 350867, Note_off_c, 0, 65, 57
1, 350897, Note_off_c, 0, 44, 63
1, 350962, Note_on_c, 0, 44, 79
1, 351032, Note_off_c, 0, 44, 63
1, 351090, Note_on_c, 0, 44, 72
1, 351126, Note_on_c, 0, 63, 72
1, 351126, Note_on_c, 0, 75, 81
1, 351127, Note_on_c, 0, 72, 71
1, 351168, Note_off_c, 0, 44, 63
1, 351224, Note_on_c, 0, 44, 61
1, 351234, Note_off_c, 0, 74, 60
1, 351235, Note_off_c, 0, 63, 63
1, 351257, Note_off_c, 0, 72, 59
1, 351278, Note_off_c, 0, 75, 66
1, 351305, Note_off_c, 0, 44, 62
1, 351337, Control_c, 0, 64, 113
1, 351351, Control_c, 0, 64, 97
1, 351353, Note_on_c, 0, 74, 78
1, 351359, Note_on_c, 0, 71, 69
1, 351365, Note_on_c, 0, 62, 66
1, 351366, Control_c, 0, 64, 82
1, 351380, Note_on_c, 0, 44, 59
1, 351381, Control_c, 0, 64, 70
1, 351395, Control_c, 0, 64, 58
1, 351410, Control_c, 0, 64, 0
1, 351470, Note_off_c, 0, 44, 60
1, 351508, Poly_aftertouch_c, 0, 44, 0
1, 351520, Note_on_c, 0, 44, 48
1, 351522, Control_c, 0, 64, 40
1, 351536, Control_c, 0, 64, 61
1, 351551, Control_c, 0, 64, 66
1, 351566, Control_c, 0, 64, 71
1, 351581, Control_c, 0, 64, 76
1, 351582, Note_off_c, 0, 44, 62
1, 351596, Control_c, 0, 64, 81
1, 351610, Control_c, 0, 64, 84
1, 351625, Control_c, 0, 64, 84
1, 351641, Note_on_c, 0, 44, 58
1, 351655, Control_c, 0, 64, 85
1, 351669, Control_c, 0, 64, 87
1, 351684, Control_c, 0, 64, 90
1, 351699, Control_c, 0, 64, 93
1, 351700, Note_off_c, 0, 44, 58
1, 351714, Control_c, 0, 64, 94
1, 351728, Control_c, 0, 64, 95
1, 351732, Note_off_c, 0, 74, 62
1, 351743, Control_c, 0, 64, 95
1, 351758, Control_c, 0, 64, 96
1, 351773, Control_c, 0, 64, 97
1, 351788, Control_c, 0, 64, 98
1, 351789, Note_on_c, 0, 44, 52
1, 351792, Note_off_c, 0, 71, 57
1, 351803, Control_c, 0, 64, 98
1, 351818, Control_c, 0, 64, 99
1, 351836, Note_off_c, 0, 44, 59
1, 351848, Note_off_c, 0, 62, 53
1, 351848, Control_c, 0, 64, 100
1, 351863, Control_c, 0, 64, 101
1, 351878, Control_c, 0, 64, 102
1, 351892, Control_c, 0, 64, 102
1, 351922, Control_c, 0, 64, 103
1, 351943, Note_on_c, 0, 44, 45
1, 351967, Control_c, 0, 64, 103
1, 351969, Note_off_c, 0, 44, 60
1, 351997, Control_c, 0, 64, 104
1, 352012, Control_c, 0, 64, 105
1, 352026, Control_c, 0, 64, 106
1, 352041, Control_c, 0, 64, 107
1, 352056, Control_c, 0, 64, 108
1, 352062, Note_on_c, 0, 44, 48
1, 352071, Control_c, 0, 64, 110
1, 352086, Control_c, 0, 64, 110
1, 352100, Control_c, 0, 64, 111
1, 352115, Control_c, 0, 64, 111
1, 352120, Note_off_c, 0, 44, 55
1, 352144, Control_c, 0, 64, 111
1, 352159, Control_c, 0, 64, 108
1, 352182, Control_c, 0, 64, 97
1, 352196, Control_c, 0, 64, 82
1, 352211, Control_c, 0, 64, 66
1, 352213, Note_on_c, 0, 62, 76
1, 352223, Note_on_c, 0, 59, 64
1, 352226, Note_on_c, 0, 43, 73
1, 352226, Control_c, 0, 64, 0
1, 352226, Note_on_c, 0, 53, 61
1, 352300, Control_c, 0, 64, 65
1, 352315, Control_c, 0, 64, 76
1, 352330, Control_c, 0, 64, 88
1, 352345, Control_c, 0, 64, 93
1, 352403, Note_on_c, 0, 44, 42
1, 352419, Control_c, 0, 64, 92
1, 352421, Note_off_c, 0, 43, 53
1, 352433, Control_c, 0, 64, 89
1, 352435, Note_off_c, 0, 44, 53
1, 352448, Control_c, 0, 64, 83
1, 352463, Control_c, 0, 64, 75
1, 352478, Control_c, 0, 64, 69
1, 352493, Control_c, 0, 64, 65
1, 352507, Control_c, 0, 64, 63
1, 352524, Note_on_c, 0, 44, 40
1, 352537, Control_c, 0, 64, 63
1, 352551, Control_c, 0, 64, 62
1, 352553, Note_off_c, 0, 44, 54
1, 352566, Control_c, 0, 64, 59
1, 352581, Control_c, 0, 64, 57
1, 352596, Control_c, 0, 64, 57
1, 352611, Control_c, 0, 64, 56
1, 352626, Control_c, 0, 64, 55
1, 352641, Control_c, 0, 64, 54
1, 352651, Note_on_c, 0, 44, 53
1, 352656, Control_c, 0, 64, 52
1, 352671, Control_c, 0, 64, 51
1, 352686, Control_c, 0, 64, 50
1, 352688, Note_off_c, 0, 44, 64
1, 352701, Control_c, 0, 64, 49
1, 352715, Control_c, 0, 64, 48
1, 352730, Control_c, 0, 64, 48
1, 352791, Note_on_c, 0, 44, 48
1, 352819, Note_on_c, 0, 63, 55
1, 352819, Control_c, 0, 64, 49
1, 352824, Note_off_c, 0, 62, 55
1, 352834, Note_off_c, 0, 44, 62
1, 352834, Control_c, 0, 64, 50
1, 352864, Control_c, 0, 64, 50
1, 352909, Control_c, 0, 64, 50
1, 352930, Control_c, 0, 64, 51
1, 352945, Control_c, 0, 64, 52
1, 352947, Note_on_c, 0, 44, 38
1, 352960, Control_c, 0, 64, 53
1, 352974, Control_c, 0, 64, 53
1, 352980, Note_off_c, 0, 44, 53
1, 352989, Control_c, 0, 64, 54
1, 353004, Control_c, 0, 64, 55
1, 353019, Control_c, 0, 64, 55
1, 353034, Control_c, 0, 64, 56
1, 353049, Control_c, 0, 64, 57
1, 353064, Control_c, 0, 64, 57
1, 353074, Note_on_c, 0, 44, 49
1, 353074, Note_on_c, 0, 62, 50
1, 353077, Note_off_c, 0, 63, 59
1, 353079, Control_c, 0, 64, 58
1, 353094, Control_c, 0, 64, 59
1, 353109, Control_c, 0, 64, 60
1, 353123, Control_c, 0, 64, 60
1, 353123, Note_off_c, 0, 44, 58
1, 353138, Control_c, 0, 64, 61
1, 353168, Control_c, 0, 64, 61
1, 353197, Control_c, 0, 64, 62
1, 353221, Note_on_c, 0, 44, 39
1, 353256, Control_c, 0, 64, 62
1, 353262, Note_off_c, 0, 44, 50
1, 353286, Control_c, 0, 64, 63
1, 353330, Control_c, 0, 64, 63
1, 353344, Note_on_c, 0, 44, 35
1, 353345, Control_c, 0, 64, 64
1, 353360, Control_c, 0, 64, 64
1, 353374, Control_c, 0, 64, 65
1, 353389, Control_c, 0, 64, 66
1, 353398, Note_off_c, 0, 44, 55
1, 353404, Control_c, 0, 64, 67
1, 353419, Control_c, 0, 64, 68
1, 353450, Control_c, 0, 64, 67
1, 353464, Control_c, 0, 64, 65
1, 353479, Control_c, 0, 64, 58
1, 353494, Control_c, 0, 64, 42
1, 353500, Note_on_c, 0, 43, 40
1, 353509, Control_c, 0, 64, 0
1, 353568, Control_c, 0, 64, 44
1, 353573, Note_off_c, 0, 43, 55
1, 353583, Control_c, 0, 64, 61
1, 353597, Control_c, 0, 64, 67
1, 353612, Control_c, 0, 64, 72
1, 353612, Control_c, 0, 67, 8
1, 353627, Control_c, 0, 64, 76
1, 353642, Control_c, 0, 64, 78
1, 353651, Note_on_c, 0, 43, 39
1, 353657, Control_c, 0, 64, 79
1, 353694, Control_c, 0, 64, 79
1, 353709, Control_c, 0, 64, 80
1, 353724, Control_c, 0, 64, 81
1, 353733, Note_off_c, 0, 43, 40
1, 353739, Control_c, 0, 64, 82
1, 353753, Control_c, 0, 64, 83
1, 353753, Control_c, 0, 67, 8
1, 353783, Control_c, 0, 64, 83
1, 353812, Note_off_c, 0, 53, 61
1, 353812, Control_c, 0, 67, 9
1, 353818, Note_on_c, 0, 43, 46
1, 353826, Note_off_c, 0, 59, 59
1, 353857, Control_c, 0, 67, 10
1, 353865, Note_off_c, 0, 62, 61
1, 353872, Control_c, 0, 67, 11
1, 353887, Control_c, 0, 67, 12
1, 353890, Note_off_c, 0, 43, 39
1, 354123, Control_c, 0, 64, 83
1, 354123, Control_c, 0, 67, 11
1, 354138, Control_c, 0, 64, 81
1, 354153, Control_c, 0, 64, 77
1, 354168, Control_c, 0, 64, 71
1, 354169, Note_on_c, 0, 75, 81
1, 354176, Note_on_c, 0, 48, 54
1, 354180, Note_on_c, 0, 69, 60
1, 354183, Control_c, 0, 64, 64
1, 354185, Note_on_c, 0, 42, 57
1, 354197, Control_c, 0, 64, 56
1, 354212, Control_c, 0, 64, 49
1, 354227, Control_c, 0, 64, 44
1, 354243, Control_c, 0, 64, 39
1, 354258, Control_c, 0, 64, 32
1, 354273, Control_c, 0, 64, 16
1, 354288, Control_c, 0, 64, 0
1, 354317, Control_c, 0, 64, 25
1, 354332, Control_c, 0, 64, 39
1, 354332, Control_c, 0, 67, 12
1, 354346, Control_c, 0, 64, 52
1, 354361, Control_c, 0, 64, 60
1, 354361, Control_c, 0, 67, 12
1, 354376, Control_c, 0, 64, 64
1, 354391, Control_c, 0, 64, 67
1, 354391, Control_c, 0, 67, 13
1, 354406, Control_c, 0, 64, 70
1, 354406, Control_c, 0, 67, 13
1, 354428, Control_c, 0, 64, 74
1, 354428, Control_c, 0, 67, 14
1, 354443, Control_c, 0, 64, 78
1, 354443, Control_c, 0, 67, 15
1, 354458, Control_c, 0, 64, 81
1, 354458, Control_c, 0, 67, 18
1, 354473, Control_c, 0, 64, 83
1, 354473, Control_c, 0, 67, 20
1, 354488, Control_c, 0, 64, 85
1, 354488, Control_c, 0, 67, 23
1, 354492, Note_off_c, 0, 42, 62
1, 354502, Control_c, 0, 64, 87
1, 354502, Control_c, 0, 67, 27
1, 354517, Control_c, 0, 64, 89
1, 354517, Control_c, 0, 67, 31
1, 354532, Control_c, 0, 64, 91
1, 354532, Control_c, 0, 67, 36
1, 354547, Control_c, 0, 64, 92
1, 354547, Control_c, 0, 67, 39
1, 354561, Control_c, 0, 64, 93
1, 354561, Control_c, 0, 67, 43
1, 354576, Control_c, 0, 64, 94
1, 354576, Control_c, 0, 67, 47
1, 354591, Control_c, 0, 64, 94
1, 354591, Control_c, 0, 67, 51
1, 354600, Note_on_c, 0, 42, 39
1, 354606, Control_c, 0, 64, 95
1, 354606, Control_c, 0, 67, 55
1, 354620, Control_c, 0, 64, 95
1, 354620, Control_c, 0, 67, 57
1, 354635, Control_c, 0, 64, 96
1, 354635, Control_c, 0, 67, 57
1, 354641, Note_off_c, 0, 42, 55
1, 354650, Control_c, 0, 67, 58
1, 354680, Control_c, 0, 64, 96
1, 354710, Control_c, 0, 67, 57
1, 354725, Control_c, 0, 67, 57
1, 354749, Note_on_c, 0, 42, 44
1, 354786, Note_off_c, 0, 42, 61
1, 354799, Control_c, 0, 67, 57
1, 354814, Control_c, 0, 67, 58
1, 354829, Control_c, 0, 67, 58
1, 354858, Control_c, 0, 67, 59
1, 354873, Control_c, 0, 67, 60
1, 354881, Note_on_c, 0, 42, 50
1, 354888, Control_c, 0, 67, 62
1, 354903, Control_c, 0, 67, 66
1, 354918, Control_c, 0, 67, 68
1, 354922, Note_off_c, 0, 42, 58
1, 354933, Control_c, 0, 67, 71
1, 354947, Control_c, 0, 67, 73
1, 354962, Control_c, 0, 67, 75
1, 354977, Control_c, 0, 67, 77
1, 354988, Note_off_c, 0, 75, 63
1, 354992, Control_c, 0, 67, 79
1, 355007, Control_c, 0, 67, 82
1, 355021, Control_c, 0, 67, 85
1, 355030, Note_on_c, 0, 42, 44
1, 355036, Control_c, 0, 67, 88
1, 355052, Control_c, 0, 67, 90
1, 355057, Note_off_c, 0, 42, 58
1, 355067, Control_c, 0, 67, 93
1, 355082, Control_c, 0, 67, 95
1, 355097, Control_c, 0, 67, 97
1, 355112, Control_c, 0, 67, 101
1, 355126, Control_c, 0, 67, 103
1, 355141, Control_c, 0, 67, 105
1, 355153, Note_on_c, 0, 42, 50
1, 355156, Control_c, 0, 67, 108
1, 355177, Control_c, 0, 64, 97
1, 355177, Control_c, 0, 67, 110
1, 355192, Control_c, 0, 67, 112
1, 355207, Control_c, 0, 67, 115
1, 355222, Note_off_c, 0, 42, 58
1, 355222, Control_c, 0, 67, 116
1, 355226, Note_off_c, 0, 48, 34
1, 355237, Control_c, 0, 67, 119
1, 355252, Control_c, 0, 67, 122
1, 355267, Control_c, 0, 64, 96
1, 355267, Control_c, 0, 67, 126
1, 355282, Control_c, 0, 64, 92
1, 355282, Control_c, 0, 67, 127
1, 355297, Control_c, 0, 64, 83
1, 355306, Note_on_c, 0, 74, 61
1, 355311, Control_c, 0, 64, 73
1, 355326, Control_c, 0, 64, 64
1, 355326, Note_on_c, 0, 50, 47
1, 355341, Control_c, 0, 64, 38
1, 355348, Note_on_c, 0, 42, 32
1, 355370, Control_c, 0, 64, 51
1, 355380, Note_off_c, 0, 42, 50
1, 355385, Control_c, 0, 64, 61
1, 355400, Control_c, 0, 64, 66
1, 355415, Control_c, 0, 64, 70
1, 355430, Control_c, 0, 64, 75
1, 355443, Control_c, 0, 64, 79
1, 355458, Control_c, 0, 64, 82
1, 355473, Control_c, 0, 64, 83
1, 355488, Control_c, 0, 64, 84
1, 355494, Note_on_c, 0, 42, 26
1, 355503, Control_c, 0, 64, 86
1, 355517, Control_c, 0, 64, 87
1, 355523, Note_off_c, 0, 42, 0
1, 355532, Control_c, 0, 64, 88
1, 355539, Poly_aftertouch_c, 0, 42, 0
1, 355547, Control_c, 0, 64, 89
1, 355562, Control_c, 0, 64, 89
1, 355577, Control_c, 0, 64, 90
1, 355592, Control_c, 0, 64, 90
1, 355607, Control_c, 0, 64, 91
1, 355616, Note_on_c, 0, 42, 32
1, 355621, Control_c, 0, 64, 92
1, 355629, Note_off_c, 0, 50, 53
1, 355636, Control_c, 0, 64, 92
1, 355651, Control_c, 0, 64, 93
1, 355652, Note_off_c, 0, 42, 54
1, 355740, Control_c, 0, 64, 89
1, 355755, Control_c, 0, 64, 82
1, 355763, Note_on_c, 0, 42, 44
1, 355763, Note_on_c, 0, 72, 57
1, 355769, Control_c, 0, 64, 73
1, 355781, Note_on_c, 0, 51, 52
1, 355782, Note_off_c, 0, 74, 61
1, 355784, Control_c, 0, 64, 64
1, 355799, Control_c, 0, 64, 49
1, 355814, Control_c, 0, 64, 32
1, 355829, Control_c, 0, 64, 33
1, 355845, Control_c, 0, 64, 44
1, 355854, Note_off_c, 0, 42, 50
1, 355860, Control_c, 0, 64, 55
1, 355874, Control_c, 0, 64, 62
1, 355889, Control_c, 0, 64, 66
1, 355904, Control_c, 0, 64, 70
1, 355926, Control_c, 0, 64, 74
1, 355941, Control_c, 0, 64, 77
1, 355955, Control_c, 0, 64, 80
1, 355962, Note_on_c, 0, 42, 29
1, 355970, Control_c, 0, 64, 82
1, 355985, Control_c, 0, 64, 83
1, 356000, Control_c, 0, 64, 84
1, 356003, Note_off_c, 0, 42, 48
1, 356015, Control_c, 0, 64, 85
1, 356030, Control_c, 0, 64, 86
1, 356045, Control_c, 0, 64, 87
1, 356060, Control_c, 0, 64, 87
1, 356074, Control_c, 0, 64, 88
1, 356089, Control_c, 0, 64, 88
1, 356117, Note_on_c, 0, 42, 45
1, 356118, Control_c, 0, 64, 89
1, 356133, Control_c, 0, 64, 90
1, 356148, Control_c, 0, 64, 90
1, 356152, Note_off_c, 0, 42, 53
1, 356178, Control_c, 0, 64, 91
1, 356186, Note_off_c, 0, 51, 57
1, 356233, Note_off_c, 0, 69, 41
1, 356370, Control_c, 0, 64, 90
1, 356385, Control_c, 0, 64, 87
1, 356400, Control_c, 0, 64, 82
1, 356414, Control_c, 0, 64, 74
1, 356425, Note_on_c, 0, 67, 57
1, 356429, Control_c, 0, 64, 66
1, 356444, Control_c, 0, 64, 50
1, 356445, Note_on_c, 0, 52, 40
1, 356456, Note_on_c, 0, 43, 38
1, 356459, Control_c, 0, 64, 0
1, 356547, Note_off_c, 0, 72, 37
1, 356607, Control_c, 0, 64, 16
1, 356622, Control_c, 0, 64, 65
1, 356638, Control_c, 0, 64, 72
1, 356653, Control_c, 0, 64, 78
1, 356675, Control_c, 0, 64, 82
1, 356683, Note_off_c, 0, 43, 40
1, 356690, Control_c, 0, 64, 83
1, 356704, Control_c, 0, 64, 84
1, 356719, Control_c, 0, 64, 86
1, 356734, Control_c, 0, 64, 87
1, 356748, Control_c, 0, 64, 89
1, 356763, Control_c, 0, 64, 90
1, 356778, Control_c, 0, 64, 90
1, 356793, Control_c, 0, 64, 91
1, 356796, Note_on_c, 0, 43, 24
1, 356808, Control_c, 0, 64, 91
1, 356823, Control_c, 0, 64, 92
1, 356838, Control_c, 0, 64, 92
1, 356848, Note_off_c, 0, 43, 45
1, 356853, Control_c, 0, 64, 93
1, 356868, Control_c, 0, 64, 93
1, 356897, Control_c, 0, 64, 94
1, 356927, Control_c, 0, 64, 94
1, 356957, Note_on_c, 0, 43, 26
1, 357015, Note_off_c, 0, 43, 40
1, 357030, Control_c, 0, 64, 95
1, 357073, Note_on_c, 0, 43, 29
1, 357136, Note_off_c, 0, 43, 49
1, 357214, Note_on_c, 0, 43, 30
1, 357285, Note_off_c, 0, 43, 40
1, 357356, Note_on_c, 0, 43, 34
1, 357464, Note_off_c, 0, 52, 51
1, 357498, Control_c, 0, 64, 92
1, 357509, Note_off_c, 0, 43, 0
1, 357513, Control_c, 0, 64, 86
1, 357527, Control_c, 0, 64, 76
1, 357529, Note_on_c, 0, 43, 24
1, 357541, Note_on_c, 0, 72, 50
1, 357542, Control_c, 0, 64, 66
1, 357550, Note_on_c, 0, 65, 42
1, 357556, Note_on_c, 0, 50, 38
1, 357557, Control_c, 0, 64, 48
1, 357571, Control_c, 0, 64, 0
1, 357601, Control_c, 0, 64, 30
1, 357610, Note_off_c, 0, 67, 34
1, 357616, Control_c, 0, 64, 53
1, 357631, Control_c, 0, 64, 64
1, 357646, Control_c, 0, 64, 69
1, 357660, Control_c, 0, 64, 74
1, 357662, Note_off_c, 0, 43, 37
1, 357675, Control_c, 0, 64, 78
1, 357691, Control_c, 0, 64, 80
1, 357706, Control_c, 0, 64, 81
1, 357720, Control_c, 0, 64, 82
1, 357733, Note_on_c, 0, 43, 28
1, 357735, Control_c, 0, 64, 84
1, 357750, Control_c, 0, 64, 85
1, 357765, Control_c, 0, 64, 86
1, 357790, Note_off_c, 0, 43, 43
1, 357795, Control_c, 0, 64, 87
1, 357809, Control_c, 0, 64, 87
1, 357819, Note_on_c, 0, 71, 52
1, 357824, Control_c, 0, 64, 88
1, 357839, Control_c, 0, 64, 89
1, 357859, Note_off_c, 0, 72, 56
1, 357869, Control_c, 0, 64, 89
1, 357898, Control_c, 0, 64, 90
1, 357899, Note_on_c, 0, 43, 42
1, 357913, Control_c, 0, 64, 90
1, 357969, Note_off_c, 0, 43, 40
1, 358081, Note_on_c, 0, 43, 34
1, 358082, Note_on_c, 0, 69, 54
1, 358120, Control_c, 0, 64, 91
1, 358139, Note_off_c, 0, 71, 55
1, 358172, Note_off_c, 0, 43, 37
1, 358250, Note_on_c, 0, 43, 30
1, 358326, Note_off_c, 0, 43, 38
1, 358395, Note_on_c, 0, 71, 52
1, 358482, Note_on_c, 0, 43, 21
1, 358519, Note_off_c, 0, 65, 62
1, 358545, Note_off_c, 0, 50, 43
1, 358593, Note_off_c, 0, 43, 36
1, 358825, Control_c, 0, 64, 90
1, 358840, Control_c, 0, 64, 87
1, 358855, Control_c, 0, 64, 81
1, 358866, Note_on_c, 0, 72, 51
1, 358869, Control_c, 0, 64, 71
1, 358875, Note_on_c, 0, 64, 45
1, 358884, Control_c, 0, 64, 60
1, 358888, Note_on_c, 0, 48, 41
1, 358889, Note_on_c, 0, 36, 37
1, 358895, Note_off_c, 0, 71, 52
1, 358899, Control_c, 0, 64, 0
1, 358921, Note_off_c, 0, 69, 39
1, 359025, Control_c, 0, 64, 41
1, 359041, Control_c, 0, 64, 65
1, 359055, Control_c, 0, 64, 71
1, 359070, Control_c, 0, 64, 77
1, 359085, Control_c, 0, 64, 82
1, 359100, Control_c, 0, 64, 85
1, 359115, Control_c, 0, 64, 87
1, 359130, Control_c, 0, 64, 88
1, 359131, Note_off_c, 0, 36, 39
1, 359144, Control_c, 0, 64, 90
1, 359159, Control_c, 0, 64, 92
1, 359174, Control_c, 0, 64, 93
1, 359188, Control_c, 0, 64, 94
1, 359203, Control_c, 0, 64, 95
1, 359232, Control_c, 0, 64, 95
1, 359247, Control_c, 0, 64, 96
1, 359262, Control_c, 0, 64, 97
1, 359274, Poly_aftertouch_c, 0, 36, 127
1, 359277, Control_c, 0, 64, 97
1, 359321, Poly_aftertouch_c, 0, 36, 0
1, 359351, Control_c, 0, 64, 98
1, 359407, Poly_aftertouch_c, 0, 36, 127
1, 359464, Poly_aftertouch_c, 0, 36, 0
1, 359521, Note_on_c, 0, 36, 23
1, 359573, Note_off_c, 0, 36, 45
1, 359648, Note_on_c, 0, 36, 26
1, 359709, Note_off_c, 0, 36, 47
1, 359805, Note_on_c, 0, 36, 20
1, 359817, Control_c, 0, 64, 98
1, 359851, Note_off_c, 0, 36, 47
1, 359938, Note_on_c, 0, 36, 31
1, 359991, Note_off_c, 0, 36, 45
1, 360039, Control_c, 0, 64, 99
1, 360094, Note_on_c, 0, 36, 6
1, 360146, Note_off_c, 0, 36, 45
1, 360224, Note_on_c, 0, 36, 26
1, 360287, Note_off_c, 0, 36, 42
1, 360306, Control_c, 0, 64, 99
1, 360383, Note_on_c, 0, 36, 20
1, 360454, Note_off_c, 0, 36, 42
1, 360540, Note_on_c, 0, 36, 27
1, 360620, Note_off_c, 0, 36, 39
1, 360704, Note_on_c, 0, 36, 20
1, 360716, Control_c, 0, 64, 100
1, 360775, Note_off_c, 0, 36, 42
1, 360861, Note_on_c, 0, 36, 28
1, 360928, Note_off_c, 0, 36, 47
1, 361040, Note_on_c, 0, 36, 20
1, 361100, Note_off_c, 0, 36, 43
1, 361181, Control_c, 0, 64, 100
1, 361202, Note_on_c, 0, 36, 20
1, 361283, Note_off_c, 0, 36, 39
1, 361385, Note_on_c, 0, 36, 27
1, 361463, Note_off_c, 0, 36, 39
1, 361574, Note_on_c, 0, 36, 34
1, 361671, Note_off_c, 0, 36, 37
1, 361671, Control_c, 0, 64, 101
1, 361813, Note_on_c, 0, 36, 21
1, 361866, Note_off_c, 0, 36, 46
1, 362182, Control_c, 0, 64, 101
1, 362212, Note_on_c, 0, 36, 21
1, 362336, Note_off_c, 0, 36, 38
1, 362541, Note_off_c, 0, 64, 51
1, 362668, Note_off_c, 0, 72, 35
1, 362841, Control_c, 0, 64, 101
1, 362916, Control_c, 0, 64, 100
1, 362946, Control_c, 0, 64, 100
1, 362975, Control_c, 0, 64, 99
1, 363005, Control_c, 0, 64, 99
1, 363020, Control_c, 0, 64, 98
1, 363035, Control_c, 0, 64, 98
1, 363050, Control_c, 0, 64, 97
1, 363065, Control_c, 0, 64, 97
1, 363080, Control_c, 0, 64, 96
1, 363109, Control_c, 0, 64, 96
1, 363124, Control_c, 0, 64, 95
1, 363139, Control_c, 0, 64, 95
1, 363154, Control_c, 0, 64, 94
1, 363169, Control_c, 0, 64, 94
1, 363183, Control_c, 0, 64, 93
1, 363198, Control_c, 0, 64, 93
1, 363213, Control_c, 0, 64, 92
1, 363228, Control_c, 0, 64, 92
1, 363257, Control_c, 0, 64, 91
1, 363272, Control_c, 0, 64, 91
1, 363301, Control_c, 0, 64, 90
1, 363316, Control_c, 0, 64, 90
1, 363331, Control_c, 0, 64, 89
1, 363346, Control_c, 0, 64, 89
1, 363357, Note_off_c, 0, 48, 33
1, 363375, Control_c, 0, 64, 88
1, 363390, Control_c, 0, 64, 88
1, 363413, Control_c, 0, 64, 87
1, 363428, Control_c, 0, 64, 87
1, 363457, Control_c, 0, 64, 86
1, 363472, Control_c, 0, 64, 86
1, 363516, Control_c, 0, 64, 85
1, 363546, Control_c, 0, 64, 85
1, 363561, Control_c, 0, 64, 84
1, 363590, Control_c, 0, 64, 84
1, 363635, Control_c, 0, 64, 83
1, 363664, Control_c, 0, 64, 83
1, 363694, Control_c, 0, 64, 82
1, 363738, Control_c, 0, 64, 82
1, 363753, Control_c, 0, 64, 81
1, 363768, Control_c, 0, 64, 81
1, 363798, Control_c, 0, 64, 80
1, 363828, Control_c, 0, 64, 80
1, 363858, Control_c, 0, 64, 79
1, 363888, Control_c, 0, 64, 79
1, 363902, Control_c, 0, 64, 78
1, 363917, Control_c, 0, 64, 77
1, 363932, Control_c, 0, 64, 77
1, 363947, Control_c, 0, 64, 76
1, 363962, Control_c, 0, 64, 76
1, 363977, Control_c, 0, 64, 75
1, 363992, Control_c, 0, 64, 74
1, 364006, Control_c, 0, 64, 73
1, 364021, Control_c, 0, 64, 72
1, 364036, Control_c, 0, 64, 72
1, 364051, Control_c, 0, 64, 71
1, 364066, Control_c, 0, 64, 71
1, 364080, Control_c, 0, 64, 70
1, 364124, Control_c, 0, 64, 70
1, 364177, Control_c, 0, 64, 69
1, 364206, Control_c, 0, 64, 69
1, 364236, Control_c, 0, 64, 68
1, 364266, Control_c, 0, 64, 68
1, 364310, Control_c, 0, 64, 67
1, 364325, Control_c, 0, 64, 67
1, 364354, Control_c, 0, 64, 66
1, 364384, Control_c, 0, 64, 66
1, 364413, Control_c, 0, 64, 65
1, 364444, Control_c, 0, 64, 65
1, 364488, Control_c, 0, 64, 64
1, 364503, Control_c, 0, 64, 64
1, 364534, Note_on_c, 0, 71, 34
1, 364547, Control_c, 0, 64, 63
1, 364577, Control_c, 0, 64, 63
1, 364592, Control_c, 0, 64, 62
1, 364606, Control_c, 0, 64, 61
1, 364622, Control_c, 0, 64, 60
1, 364637, Control_c, 0, 64, 59
1, 364652, Control_c, 0, 64, 57
1, 364667, Control_c, 0, 64, 53
1, 364682, Control_c, 0, 64, 49
1, 364696, Control_c, 0, 64, 46
1, 364711, Control_c, 0, 64, 42
1, 364726, Control_c, 0, 64, 39
1, 364741, Control_c, 0, 64, 37
1, 364755, Control_c, 0, 64, 34
1, 364770, Control_c, 0, 64, 28
1, 364785, Control_c, 0, 64, 20
1, 364800, Control_c, 0, 64, 0
1, 364911, Control_c, 0, 64, 14
1, 364926, Control_c, 0, 64, 18
1, 364941, Control_c, 0, 64, 22
1, 364955, Note_on_c, 0, 72, 45
1, 364955, Control_c, 0, 64, 26
1, 364970, Control_c, 0, 64, 29
1, 364985, Control_c, 0, 64, 32
1, 364999, Note_off_c, 0, 71, 55
1, 365000, Control_c, 0, 64, 36
1, 365015, Control_c, 0, 64, 38
1, 365029, Control_c, 0, 64, 39
1, 365044, Control_c, 0, 64, 40
1, 365059, Control_c, 0, 64, 41
1, 365074, Control_c, 0, 64, 42
1, 365089, Control_c, 0, 64, 44
1, 365104, Control_c, 0, 64, 46
1, 365119, Control_c, 0, 64, 48
1, 365124, Note_on_c, 0, 74, 45
1, 365134, Control_c, 0, 64, 49
1, 365142, Note_off_c, 0, 72, 63
1, 365148, Control_c, 0, 64, 50
1, 365193, Control_c, 0, 64, 52
1, 365208, Control_c, 0, 64, 54
1, 365223, Control_c, 0, 64, 57
1, 365237, Control_c, 0, 64, 62
1, 365252, Control_c, 0, 64, 66
1, 365267, Control_c, 0, 64, 71
1, 365281, Control_c, 0, 64, 77
1, 365285, Note_off_c, 0, 74, 66
1, 365296, Control_c, 0, 64, 81
1, 365311, Control_c, 0, 64, 83
1, 365326, Control_c, 0, 64, 85
1, 365341, Control_c, 0, 64, 87
1, 365355, Control_c, 0, 64, 89
1, 365370, Control_c, 0, 64, 90
1, 365385, Control_c, 0, 64, 91
1, 365415, Control_c, 0, 64, 91
1, 365431, Control_c, 0, 64, 92
1, 365446, Control_c, 0, 64, 93
1, 365460, Control_c, 0, 64, 93
1, 365475, Control_c, 0, 64, 94
1, 365668, Note_on_c, 0, 67, 46
1, 365685, Note_on_c, 0, 74, 35
1, 365697, Note_on_c, 0, 55, 21
1, 365743, Note_off_c, 0, 67, 0
1, 365743, Note_on_c, 0, 67, 12
1, 365784, Note_off_c, 0, 74, 63
1, 366195, Note_on_c, 0, 74, 46
1, 366466, Note_off_c, 0, 67, 38
1, 366624, Note_off_c, 0, 55, 41
1, 366660, Control_c, 0, 64, 93
1, 366690, Control_c, 0, 64, 93
1, 366704, Control_c, 0, 64, 92
1, 366719, Control_c, 0, 64, 92
1, 366734, Control_c, 0, 64, 91
1, 366749, Control_c, 0, 64, 91
1, 366754, Note_on_c, 0, 72, 49
1, 366764, Control_c, 0, 64, 90
1, 366779, Control_c, 0, 64, 89
1, 366793, Control_c, 0, 64, 88
1, 366800, Note_off_c, 0, 74, 37
1, 366808, Control_c, 0, 64, 87
1, 366823, Control_c, 0, 64, 86
1, 366838, Control_c, 0, 64, 84
1, 366852, Control_c, 0, 64, 83
1, 366867, Control_c, 0, 64, 82
1, 366882, Control_c, 0, 64, 80
1, 366897, Control_c, 0, 64, 79
1, 366912, Control_c, 0, 64, 78
1, 366926, Control_c, 0, 64, 77
1, 366941, Control_c, 0, 64, 76
1, 366956, Control_c, 0, 64, 75
1, 366971, Control_c, 0, 64, 74
1, 366986, Control_c, 0, 64, 72
1, 367000, Control_c, 0, 64, 71
1, 367015, Control_c, 0, 64, 70
1, 367017, Note_off_c, 0, 72, 58
1, 367019, Note_on_c, 0, 71, 43
1, 367031, Control_c, 0, 64, 69
1, 367046, Control_c, 0, 64, 68
1, 367061, Control_c, 0, 64, 67
1, 367076, Control_c, 0, 64, 66
1, 367091, Control_c, 0, 64, 65
1, 367105, Control_c, 0, 64, 64
1, 367120, Control_c, 0, 64, 63
1, 367135, Control_c, 0, 64, 62
1, 367157, Control_c, 0, 64, 61
1, 367172, Control_c, 0, 64, 59
1, 367187, Control_c, 0, 64, 57
1, 367202, Control_c, 0, 64, 55
1, 367217, Control_c, 0, 64, 53
1, 367231, Control_c, 0, 64, 49
1, 367246, Control_c, 0, 64, 46
1, 367261, Control_c, 0, 64, 41
1, 367275, Control_c, 0, 64, 37
1, 367290, Control_c, 0, 64, 34
1, 367305, Note_on_c, 0, 75, 39
1, 367305, Control_c, 0, 64, 30
1, 367320, Control_c, 0, 64, 22
1, 367335, Control_c, 0, 64, 0
1, 367341, Note_off_c, 0, 71, 55
1, 367867, Note_on_c, 0, 67, 36
1, 367867, Note_on_c, 0, 55, 33
1, 367939, Note_off_c, 0, 67, 0
1, 367939, Note_on_c, 0, 67, 7
1, 367951, Control_c, 0, 64, 29
1, 367966, Control_c, 0, 64, 47
1, 367980, Control_c, 0, 64, 52
1, 367995, Control_c, 0, 64, 52
1, 368010, Control_c, 0, 64, 53
1, 368025, Control_c, 0, 64, 56
1, 368040, Control_c, 0, 64, 58
1, 368055, Control_c, 0, 64, 60
1, 368070, Control_c, 0, 64, 61
1, 368085, Control_c, 0, 64, 61
1, 368114, Control_c, 0, 64, 62
1, 368129, Control_c, 0, 64, 62
1, 368159, Control_c, 0, 64, 63
1, 368188, Note_on_c, 0, 74, 44
1, 368188, Control_c, 0, 64, 63
1, 368247, Control_c, 0, 64, 64
1, 368264, Note_off_c, 0, 75, 36
1, 368277, Control_c, 0, 64, 64
1, 368292, Control_c, 0, 64, 65
1, 368321, Control_c, 0, 64, 65
1, 368351, Control_c, 0, 64, 66
1, 368366, Control_c, 0, 64, 66
1, 368395, Control_c, 0, 64, 67
1, 368410, Control_c, 0, 64, 67
1, 368425, Control_c, 0, 64, 68
1, 368454, Control_c, 0, 64, 68
1, 368484, Control_c, 0, 64, 69
1, 368499, Control_c, 0, 64, 69
1, 368529, Control_c, 0, 64, 70
1, 368555, Note_on_c, 0, 72, 39
1, 368612, Note_off_c, 0, 74, 38
1, 368633, Control_c, 0, 64, 69
1, 368700, Control_c, 0, 64, 70
1, 368715, Control_c, 0, 64, 72
1, 368719, Note_off_c, 0, 67, 46
1, 368729, Control_c, 0, 64, 75
1, 368744, Control_c, 0, 64, 79
1, 368759, Control_c, 0, 64, 81
1, 368774, Control_c, 0, 64, 83
1, 368803, Control_c, 0, 64, 83
1, 368857, Note_off_c, 0, 72, 64
1, 368885, Note_on_c, 0, 67, 47
1, 368897, Note_off_c, 0, 55, 41
1, 368967, Control_c, 0, 64, 83
1, 369011, Control_c, 0, 64, 82
1, 369041, Control_c, 0, 64, 82
1, 369055, Control_c, 0, 64, 81
1, 369070, Control_c, 0, 64, 81
1, 369100, Control_c, 0, 64, 80
1, 369115, Control_c, 0, 64, 80
1, 369129, Control_c, 0, 64, 79
1, 369144, Control_c, 0, 64, 79
1, 369159, Control_c, 0, 64, 78
1, 369174, Note_on_c, 0, 72, 59
1, 369174, Control_c, 0, 64, 77
1, 369179, Note_on_c, 0, 60, 44
1, 369189, Control_c, 0, 64, 77
1, 369203, Control_c, 0, 64, 76
1, 369218, Control_c, 0, 64, 75
1, 369233, Control_c, 0, 64, 75
1, 369247, Control_c, 0, 64, 74
1, 369277, Control_c, 0, 64, 74
1, 369337, Control_c, 0, 64, 73
1, 369366, Control_c, 0, 64, 73
1, 369403, Control_c, 0, 64, 72
1, 369419, Control_c, 0, 64, 72
1, 369434, Control_c, 0, 64, 71
1, 369449, Control_c, 0, 64, 70
1, 369450, Note_on_c, 0, 74, 66
1, 369463, Note_on_c, 0, 62, 52
1, 369464, Control_c, 0, 64, 69
1, 369479, Control_c, 0, 64, 68
1, 369493, Control_c, 0, 64, 68
1, 369508, Control_c, 0, 64, 67
1, 369523, Control_c, 0, 64, 67
1, 369567, Control_c, 0, 64, 66
1, 369574, Note_off_c, 0, 67, 63
1, 369599, Note_off_c, 0, 60, 53
1, 369612, Control_c, 0, 64, 66
1, 369656, Control_c, 0, 64, 65
1, 369685, Control_c, 0, 64, 65
1, 369700, Control_c, 0, 64, 64
1, 369744, Control_c, 0, 64, 64
1, 369759, Control_c, 0, 64, 63
1, 369774, Control_c, 0, 64, 62
1, 369789, Control_c, 0, 64, 61
1, 369804, Control_c, 0, 64, 60
1, 369818, Control_c, 0, 64, 59
1, 369833, Control_c, 0, 64, 57
1, 369848, Control_c, 0, 64, 53
1, 369858, Note_on_c, 0, 75, 65
1, 369863, Control_c, 0, 64, 49
1, 369872, Note_on_c, 0, 63, 43
1, 369877, Control_c, 0, 64, 45
1, 369892, Control_c, 0, 64, 41
1, 369907, Control_c, 0, 64, 30
1, 369922, Control_c, 0, 64, 0
1, 369924, Note_off_c, 0, 72, 58
1, 369937, Note_off_c, 0, 62, 58
1, 369950, Note_off_c, 0, 74, 61
1, 370454, Note_on_c, 0, 74, 43
1, 370470, Note_on_c, 0, 62, 33
1, 370505, Note_off_c, 0, 75, 51
1, 370615, Note_off_c, 0, 63, 34
1, 370718, Note_on_c, 0, 72, 50
1, 370731, Note_on_c, 0, 60, 30
1, 370750, Note_off_c, 0, 74, 56
1, 370812, Note_off_c, 0, 62, 31
1, 370943, Note_off_c, 0, 60, 50
1, 370944, Note_off_c, 0, 72, 55
1, 371021, Note_on_c, 0, 67, 48
1, 371029, Note_on_c, 0, 64, 30
1, 371044, Note_on_c, 0, 55, 37
1, 371051, Control_c, 0, 64, 64
1, 371066, Control_c, 0, 64, 71
1, 371080, Control_c, 0, 64, 76
1, 371095, Control_c, 0, 64, 80
1, 371110, Control_c, 0, 64, 83
1, 371113, Note_off_c, 0, 55, 56
1, 371124, Control_c, 0, 64, 84
1, 371126, Note_off_c, 0, 67, 57
1, 371130, Note_off_c, 0, 64, 53
1, 371139, Control_c, 0, 64, 85
1, 371272, Control_c, 0, 64, 84
1, 371287, Control_c, 0, 64, 83
1, 371302, Control_c, 0, 64, 82
1, 371316, Control_c, 0, 64, 80
1, 371331, Control_c, 0, 64, 77
1, 371346, Control_c, 0, 64, 74
1, 371361, Control_c, 0, 64, 70
1, 371376, Control_c, 0, 64, 67
1, 371390, Control_c, 0, 64, 64
1, 371405, Control_c, 0, 64, 62
1, 371420, Control_c, 0, 64, 57
1, 371435, Control_c, 0, 64, 49
1, 371450, Control_c, 0, 64, 23
1, 371465, Control_c, 0, 64, 0
1, 371537, Note_on_c, 0, 71, 47
1, 371545, Note_on_c, 0, 62, 39
1, 371549, Note_on_c, 0, 55, 33
1, 371555, Note_on_c, 0, 65, 38
1, 371569, Control_c, 0, 64, 65
1, 371584, Control_c, 0, 64, 73
1, 371598, Control_c, 0, 64, 80
1, 371613, Control_c, 0, 64, 83
1, 371617, Note_off_c, 0, 65, 62
1, 371620, Note_off_c, 0, 62, 61
1, 371620, Note_off_c, 0, 71, 62
1, 371628, Control_c, 0, 64, 84
1, 371650, Control_c, 0, 64, 84
1, 371653, Note_off_c, 0, 55, 53
1, 371665, Control_c, 0, 64, 85
1, 371813, Control_c, 0, 64, 84
1, 371844, Control_c, 0, 64, 84
1, 371858, Control_c, 0, 64, 83
1, 371873, Control_c, 0, 64, 83
1, 371903, Control_c, 0, 64, 82
1, 371918, Control_c, 0, 64, 82
1, 371947, Control_c, 0, 64, 81
1, 371962, Control_c, 0, 64, 81
1, 372007, Control_c, 0, 64, 80
1, 372051, Control_c, 0, 64, 80
1, 372065, Control_c, 0, 64, 79
1, 372080, Control_c, 0, 64, 78
1, 372095, Control_c, 0, 64, 76
1, 372110, Control_c, 0, 64, 73
1, 372125, Control_c, 0, 64, 69
1, 372139, Control_c, 0, 64, 64
1, 372154, Control_c, 0, 64, 60
1, 372166, Note_on_c, 0, 72, 48
1, 372169, Control_c, 0, 64, 56
1, 372176, Note_on_c, 0, 48, 32
1, 372184, Control_c, 0, 64, 52
1, 372185, Note_on_c, 0, 64, 32
1, 372187, Note_on_c, 0, 60, 20
1, 372192, Note_on_c, 0, 55, 22
1, 372199, Control_c, 0, 64, 44
1, 372213, Control_c, 0, 64, 22
1, 372228, Control_c, 0, 64, 0
1, 372377, Control_c, 0, 64, 39
1, 372399, Control_c, 0, 64, 48
1, 372413, Control_c, 0, 64, 54
1, 372428, Control_c, 0, 64, 58
1, 372443, Control_c, 0, 64, 61
1, 372458, Control_c, 0, 64, 63
1, 372473, Control_c, 0, 64, 65
1, 372487, Control_c, 0, 64, 67
1, 372502, Control_c, 0, 64, 68
1, 372517, Control_c, 0, 64, 70
1, 372532, Control_c, 0, 64, 72
1, 372547, Control_c, 0, 64, 73
1, 372562, Control_c, 0, 64, 75
1, 372577, Control_c, 0, 64, 77
1, 372592, Control_c, 0, 64, 78
1, 372607, Control_c, 0, 64, 80
1, 372622, Control_c, 0, 64, 81
1, 372637, Control_c, 0, 64, 82
1, 372651, Control_c, 0, 64, 83
1, 372665, Control_c, 0, 64, 83
1, 372680, Control_c, 0, 64, 84
1, 372694, Control_c, 0, 64, 85
1, 372705, Note_off_c, 0, 60, 35
1, 372709, Control_c, 0, 64, 86
1, 372724, Control_c, 0, 64, 86
1, 372739, Control_c, 0, 64, 87
1, 372754, Control_c, 0, 64, 88
1, 372768, Control_c, 0, 64, 88
1, 372783, Control_c, 0, 64, 89
1, 372828, Control_c, 0, 64, 89
1, 372926, Note_off_c, 0, 48, 38
1, 373231, Note_off_c, 0, 55, 42
1, 373695, Control_c, 0, 64, 89
1, 373769, Control_c, 0, 64, 88
1, 373784, Note_off_c, 0, 64, 35
1, 373814, Note_off_c, 0, 72, 33
1, 373814, Control_c, 0, 64, 88
1, 373843, Control_c, 0, 64, 87
1, 373858, Control_c, 0, 64, 87
1, 373873, Control_c, 0, 64, 86
1, 373895, Control_c, 0, 64, 84
1, 373910, Control_c, 0, 64, 83
1, 373924, Control_c, 0, 64, 82
1, 373939, Control_c, 0, 64, 81
1, 373954, Control_c, 0, 64, 81
1, 373969, Control_c, 0, 64, 80
1, 373984, Control_c, 0, 64, 80
1, 373999, Control_c, 0, 64, 79
1, 374014, Control_c, 0, 64, 78
1, 374029, Control_c, 0, 64, 78
1, 374043, Control_c, 0, 64, 77
1, 374058, Control_c, 0, 64, 76
1, 374088, Control_c, 0, 64, 76
1, 374117, Control_c, 0, 64, 75
1, 374132, Control_c, 0, 64, 75
1, 374147, Control_c, 0, 64, 74
1, 374163, Control_c, 0, 64, 73
1, 374178, Control_c, 0, 64, 72
1, 374192, Control_c, 0, 64, 72
1, 374207, Control_c, 0, 64, 71
1, 374222, Control_c, 0, 64, 70
1, 374237, Control_c, 0, 64, 69
1, 374252, Control_c, 0, 64, 68
1, 374267, Control_c, 0, 64, 66
1, 374282, Control_c, 0, 64, 65
1, 374282, Note_on_c, 0, 59, 31
1, 374297, Control_c, 0, 64, 64
1, 374312, Control_c, 0, 64, 64
1, 374327, Control_c, 0, 64, 63
1, 374341, Control_c, 0, 64, 60
1, 374356, Control_c, 0, 64, 55
1, 374371, Control_c, 0, 64, 43
1, 374386, Control_c, 0, 64, 0
1, 374655, Note_on_c, 0, 60, 37
1, 374661, Note_off_c, 0, 59, 48
1, 374804, Note_off_c, 0, 60, 52
1, 374822, Note_on_c, 0, 62, 37
1, 374971, Control_c, 0, 64, 44
1, 374985, Control_c, 0, 64, 64
1, 375000, Control_c, 0, 64, 69
1, 375016, Control_c, 0, 64, 72
1, 375030, Control_c, 0, 64, 76
1, 375045, Control_c, 0, 64, 78
1, 375060, Control_c, 0, 64, 80
1, 375075, Control_c, 0, 64, 82
1, 375090, Control_c, 0, 64, 83
1, 375105, Control_c, 0, 64, 84
1, 375120, Control_c, 0, 64, 86
1, 375124, Note_off_c, 0, 62, 37
1, 375134, Control_c, 0, 64, 87
1, 375149, Control_c, 0, 64, 88
1, 375164, Control_c, 0, 64, 89
1, 375179, Control_c, 0, 64, 89
1, 375194, Control_c, 0, 64, 90
1, 375224, Control_c, 0, 64, 90
1, 375268, Control_c, 0, 64, 91
1, 375354, Note_on_c, 0, 62, 36
1, 375361, Note_on_c, 0, 79, 47
1, 375387, Note_on_c, 0, 67, 33
1, 375633, Note_off_c, 0, 62, 39
1, 375891, Note_off_c, 0, 67, 41
1, 375893, Note_on_c, 0, 62, 44
1, 375898, Note_off_c, 0, 79, 55
1, 375898, Control_c, 0, 64, 90
1, 375957, Control_c, 0, 64, 90
1, 375987, Control_c, 0, 64, 89
1, 376017, Control_c, 0, 64, 89
1, 376076, Control_c, 0, 64, 88
1, 376142, Control_c, 0, 64, 88
1, 376231, Control_c, 0, 64, 87
1, 376306, Control_c, 0, 64, 87
1, 376335, Control_c, 0, 64, 86
1, 376350, Control_c, 0, 64, 86
1, 376365, Control_c, 0, 64, 85
1, 376380, Control_c, 0, 64, 84
1, 376394, Note_on_c, 0, 60, 45
1, 376394, Control_c, 0, 64, 83
1, 376408, Control_c, 0, 64, 83
1, 376423, Control_c, 0, 64, 82
1, 376437, Control_c, 0, 64, 81
1, 376452, Control_c, 0, 64, 80
1, 376467, Control_c, 0, 64, 79
1, 376482, Control_c, 0, 64, 78
1, 376488, Note_off_c, 0, 62, 34
1, 376497, Control_c, 0, 64, 77
1, 376512, Control_c, 0, 64, 76
1, 376527, Control_c, 0, 64, 75
1, 376541, Control_c, 0, 64, 75
1, 376556, Control_c, 0, 64, 74
1, 376571, Control_c, 0, 64, 73
1, 376586, Control_c, 0, 64, 73
1, 376646, Control_c, 0, 64, 72
1, 376691, Control_c, 0, 64, 72
1, 376750, Control_c, 0, 64, 71
1, 376765, Control_c, 0, 64, 71
1, 376780, Control_c, 0, 64, 70
1, 376795, Control_c, 0, 64, 68
1, 376795, Note_on_c, 0, 62, 52
1, 376809, Control_c, 0, 64, 67
1, 376824, Control_c, 0, 64, 65
1, 376839, Control_c, 0, 64, 65
1, 376846, Note_off_c, 0, 60, 58
1, 376853, Control_c, 0, 64, 64
1, 376868, Control_c, 0, 64, 63
1, 376890, Control_c, 0, 64, 63
1, 376905, Control_c, 0, 64, 62
1, 376920, Control_c, 0, 64, 60
1, 376935, Control_c, 0, 64, 59
1, 376950, Control_c, 0, 64, 58
1, 376965, Control_c, 0, 64, 57
1, 376980, Control_c, 0, 64, 56
1, 376995, Control_c, 0, 64, 52
1, 376998, Note_on_c, 0, 63, 54
1, 377009, Control_c, 0, 64, 45
1, 377024, Control_c, 0, 64, 30
1, 377033, Note_off_c, 0, 62, 56
1, 377039, Control_c, 0, 64, 0
1, 377394, Control_c, 0, 64, 20
1, 377411, Control_c, 0, 64, 27
1, 377426, Control_c, 0, 64, 33
1, 377440, Control_c, 0, 64, 37
1, 377455, Control_c, 0, 64, 41
1, 377470, Control_c, 0, 64, 43
1, 377484, Control_c, 0, 64, 43
1, 377499, Control_c, 0, 64, 44
1, 377514, Control_c, 0, 64, 46
1, 377529, Control_c, 0, 64, 47
1, 377544, Control_c, 0, 64, 48
1, 377558, Control_c, 0, 64, 48
1, 377573, Control_c, 0, 64, 49
1, 377588, Control_c, 0, 64, 50
1, 377603, Control_c, 0, 64, 50
1, 377610, Note_on_c, 0, 79, 44
1, 377618, Control_c, 0, 64, 52
1, 377640, Control_c, 0, 64, 53
1, 377644, Note_on_c, 0, 67, 14
1, 377655, Control_c, 0, 64, 56
1, 377670, Control_c, 0, 64, 59
1, 377684, Control_c, 0, 64, 61
1, 377699, Control_c, 0, 64, 63
1, 377714, Control_c, 0, 64, 64
1, 377729, Control_c, 0, 64, 65
1, 377744, Control_c, 0, 64, 66
1, 377758, Control_c, 0, 64, 67
1, 377773, Control_c, 0, 64, 68
1, 377788, Control_c, 0, 64, 69
1, 377803, Control_c, 0, 64, 70
1, 377818, Control_c, 0, 64, 71
1, 377832, Control_c, 0, 64, 71
1, 377847, Control_c, 0, 64, 72
1, 377862, Control_c, 0, 64, 72
1, 377877, Control_c, 0, 64, 73
1, 377882, Note_on_c, 0, 62, 28
1, 377892, Note_off_c, 0, 63, 46
1, 377907, Control_c, 0, 64, 73
1, 378055, Control_c, 0, 64, 73
1, 378070, Control_c, 0, 64, 72
1, 378084, Control_c, 0, 64, 71
1, 378099, Control_c, 0, 64, 69
1, 378114, Control_c, 0, 64, 66
1, 378129, Control_c, 0, 64, 63
1, 378139, Note_on_c, 0, 60, 32
1, 378144, Control_c, 0, 64, 59
1, 378148, Note_off_c, 0, 62, 47
1, 378158, Control_c, 0, 64, 56
1, 378173, Control_c, 0, 64, 51
1, 378188, Control_c, 0, 64, 41
1, 378204, Control_c, 0, 64, 30
1, 378219, Control_c, 0, 64, 29
1, 378234, Control_c, 0, 64, 33
1, 378249, Control_c, 0, 64, 37
1, 378263, Control_c, 0, 64, 43
1, 378278, Control_c, 0, 64, 51
1, 378293, Control_c, 0, 64, 60
1, 378307, Control_c, 0, 64, 64
1, 378322, Control_c, 0, 64, 66
1, 378337, Control_c, 0, 64, 69
1, 378352, Control_c, 0, 64, 71
1, 378367, Control_c, 0, 64, 72
1, 378389, Control_c, 0, 64, 73
1, 378404, Control_c, 0, 64, 74
1, 378419, Control_c, 0, 64, 75
1, 378433, Control_c, 0, 64, 75
1, 378448, Control_c, 0, 64, 76
1, 378452, Note_on_c, 0, 55, 41
1, 378461, Note_off_c, 0, 60, 40
1, 378463, Control_c, 0, 64, 76
1, 378473, Note_off_c, 0, 79, 33
1, 378522, Control_c, 0, 64, 77
1, 378626, Control_c, 0, 64, 77
1, 378697, Note_on_c, 0, 75, 65
1, 378700, Note_on_c, 0, 60, 50
1, 378979, Note_on_c, 0, 77, 71
1, 378989, Note_on_c, 0, 62, 49
1, 379070, Note_off_c, 0, 67, 53
1, 379286, Control_c, 0, 64, 77
1, 379316, Control_c, 0, 64, 76
1, 379330, Control_c, 0, 64, 76
1, 379345, Control_c, 0, 64, 75
1, 379360, Control_c, 0, 64, 74
1, 379373, Note_on_c, 0, 79, 65
1, 379375, Control_c, 0, 64, 73
1, 379376, Note_on_c, 0, 63, 49
1, 379390, Control_c, 0, 64, 71
1, 379404, Control_c, 0, 64, 69
1, 379419, Control_c, 0, 64, 67
1, 379434, Control_c, 0, 64, 66
1, 379439, Note_off_c, 0, 60, 15
1, 379447, Note_off_c, 0, 77, 58
1, 379449, Control_c, 0, 64, 65
1, 379451, Note_off_c, 0, 62, 58
1, 379460, Note_off_c, 0, 75, 62
1, 379478, Control_c, 0, 64, 65
1, 379493, Control_c, 0, 64, 64
1, 379508, Control_c, 0, 64, 64
1, 379537, Control_c, 0, 64, 63
1, 379567, Control_c, 0, 64, 63
1, 379609, Note_off_c, 0, 55, 35
1, 379656, Control_c, 0, 64, 62
1, 379686, Control_c, 0, 64, 62
1, 379689, Note_on_c, 0, 75, 57
1, 379701, Control_c, 0, 64, 61
1, 379716, Control_c, 0, 64, 60
1, 379730, Control_c, 0, 64, 60
1, 379760, Control_c, 0, 64, 59
1, 379774, Control_c, 0, 64, 58
1, 379789, Control_c, 0, 64, 57
1, 379806, Control_c, 0, 64, 56
1, 379820, Control_c, 0, 64, 55
1, 379835, Control_c, 0, 64, 54
1, 379841, Note_off_c, 0, 79, 34
1, 379850, Control_c, 0, 64, 53
1, 379865, Control_c, 0, 64, 52
1, 379886, Control_c, 0, 64, 51
1, 379901, Control_c, 0, 64, 50
1, 379916, Control_c, 0, 64, 48
1, 379931, Control_c, 0, 64, 44
1, 379946, Control_c, 0, 64, 34
1, 379954, Note_on_c, 0, 71, 51
1, 379961, Control_c, 0, 64, 0
1, 379969, Note_on_c, 0, 62, 38
1, 379983, Note_off_c, 0, 75, 57
1, 380014, Note_off_c, 0, 63, 55
1, 380211, Note_on_c, 0, 72, 49
1, 380229, Note_on_c, 0, 60, 39
1, 380250, Note_off_c, 0, 71, 56
1, 380258, Note_off_c, 0, 62, 38
1, 380403, Note_off_c, 0, 60, 57
1, 380435, Note_off_c, 0, 72, 51
1, 380500, Note_on_c, 0, 67, 46
1, 380503, Note_on_c, 0, 64, 44
1, 380518, Note_on_c, 0, 55, 31
1, 380524, Control_c, 0, 64, 68
1, 380539, Control_c, 0, 64, 74
1, 380553, Control_c, 0, 64, 78
1, 380568, Control_c, 0, 64, 79
1, 380583, Control_c, 0, 64, 80
1, 380595, Note_off_c, 0, 67, 57
1, 380598, Control_c, 0, 64, 82
1, 380601, Note_off_c, 0, 64, 56
1, 380613, Control_c, 0, 64, 83
1, 380615, Note_off_c, 0, 55, 38
1, 380636, Control_c, 0, 64, 83
1, 380783, Control_c, 0, 64, 82
1, 380798, Control_c, 0, 64, 82
1, 380813, Control_c, 0, 64, 80
1, 380828, Control_c, 0, 64, 77
1, 380843, Control_c, 0, 64, 74
1, 380858, Control_c, 0, 64, 69
1, 380873, Control_c, 0, 64, 65
1, 380888, Control_c, 0, 64, 62
1, 380902, Control_c, 0, 64, 58
1, 380917, Control_c, 0, 64, 51
1, 380932, Control_c, 0, 64, 38
1, 380947, Control_c, 0, 64, 0
1, 381034, Note_on_c, 0, 71, 44
1, 381035, Control_c, 0, 64, 44
1, 381036, Note_on_c, 0, 62, 36
1, 381045, Note_on_c, 0, 65, 40
1, 381050, Control_c, 0, 64, 65
1, 381052, Note_on_c, 0, 55, 33
1, 381065, Control_c, 0, 64, 71
1, 381080, Control_c, 0, 64, 76
1, 381095, Control_c, 0, 64, 80
1, 381109, Control_c, 0, 64, 83
1, 381117, Note_off_c, 0, 65, 64
1, 381117, Note_off_c, 0, 71, 61
1, 381120, Note_off_c, 0, 62, 55
1, 381124, Control_c, 0, 64, 84
1, 381139, Control_c, 0, 64, 85
1, 381154, Control_c, 0, 64, 86
1, 381169, Control_c, 0, 64, 86
1, 381177, Note_off_c, 0, 55, 43
1, 381317, Control_c, 0, 64, 86
1, 381347, Control_c, 0, 64, 85
1, 381362, Control_c, 0, 64, 85
1, 381383, Control_c, 0, 64, 84
1, 381414, Control_c, 0, 64, 84
1, 381429, Control_c, 0, 64, 83
1, 381444, Control_c, 0, 64, 82
1, 381458, Control_c, 0, 64, 82
1, 381473, Control_c, 0, 64, 81
1, 381488, Control_c, 0, 64, 80
1, 381518, Control_c, 0, 64, 80
1, 381532, Control_c, 0, 64, 79
1, 381547, Control_c, 0, 64, 78
1, 381562, Control_c, 0, 64, 76
1, 381577, Control_c, 0, 64, 74
1, 381592, Control_c, 0, 64, 71
1, 381606, Control_c, 0, 64, 67
1, 381621, Control_c, 0, 64, 64
1, 381636, Control_c, 0, 64, 63
1, 381651, Control_c, 0, 64, 61
1, 381651, Note_on_c, 0, 72, 51
1, 381654, Note_on_c, 0, 64, 42
1, 381656, Note_on_c, 0, 48, 33
1, 381665, Note_on_c, 0, 55, 27
1, 381665, Note_on_c, 0, 60, 21
1, 381666, Control_c, 0, 64, 59
1, 381681, Control_c, 0, 64, 56
1, 381695, Control_c, 0, 64, 51
1, 381710, Control_c, 0, 64, 44
1, 381725, Control_c, 0, 64, 39
1, 381770, Control_c, 0, 64, 39
1, 381799, Control_c, 0, 64, 41
1, 381814, Control_c, 0, 64, 43
1, 381829, Control_c, 0, 64, 48
1, 381844, Control_c, 0, 64, 52
1, 381858, Control_c, 0, 64, 56
1, 381873, Control_c, 0, 64, 58
1, 381888, Control_c, 0, 64, 59
1, 381903, Control_c, 0, 64, 59
1, 381918, Control_c, 0, 64, 60
1, 381932, Control_c, 0, 64, 61
1, 381947, Control_c, 0, 64, 62
1, 381962, Control_c, 0, 64, 62
1, 381976, Control_c, 0, 64, 63
1, 381991, Control_c, 0, 64, 63
1, 382006, Control_c, 0, 64, 64
1, 382021, Control_c, 0, 64, 64
1, 382050, Control_c, 0, 64, 65
1, 382065, Control_c, 0, 64, 65
1, 382095, Control_c, 0, 64, 66
1, 382110, Control_c, 0, 64, 68
1, 382132, Control_c, 0, 64, 70
1, 382147, Control_c, 0, 64, 73
1, 382162, Control_c, 0, 64, 75
1, 382176, Control_c, 0, 64, 77
1, 382191, Control_c, 0, 64, 78
1, 382208, Control_c, 0, 64, 79
1, 382223, Control_c, 0, 64, 81
1, 382237, Control_c, 0, 64, 82
1, 382252, Control_c, 0, 64, 84
1, 382267, Control_c, 0, 64, 85
1, 382274, Note_off_c, 0, 72, 53
1, 382277, Note_off_c, 0, 64, 55
1, 382281, Control_c, 0, 64, 86
1, 382287, Note_off_c, 0, 48, 42
1, 382296, Control_c, 0, 64, 86
1, 382307, Note_off_c, 0, 60, 41
1, 382311, Control_c, 0, 64, 87
1, 382326, Control_c, 0, 64, 87
1, 382335, Note_off_c, 0, 55, 42
1, 382341, Control_c, 0, 64, 88
1, 382370, Control_c, 0, 64, 89
1, 382726, Control_c, 0, 64, 88
1, 382741, Control_c, 0, 64, 87
1, 382755, Control_c, 0, 64, 85
1, 382770, Control_c, 0, 64, 82
1, 382785, Control_c, 0, 64, 76
1, 382799, Control_c, 0, 64, 70
1, 382814, Control_c, 0, 64, 65
1, 382829, Control_c, 0, 64, 61
1, 382844, Control_c, 0, 64, 60
1, 382859, Note_on_c, 0, 67, 41
1, 382859, Control_c, 0, 64, 61
1, 382878, Note_on_c, 0, 64, 23
1, 382881, Control_c, 0, 64, 63
1, 382885, Note_on_c, 0, 55, 26
1, 382896, Control_c, 0, 64, 66
1, 382911, Control_c, 0, 64, 70
1, 382926, Control_c, 0, 64, 74
1, 382941, Control_c, 0, 64, 78
1, 382955, Control_c, 0, 64, 80
1, 382966, Note_off_c, 0, 67, 63
1, 382970, Control_c, 0, 64, 81
1, 382984, Note_off_c, 0, 55, 52
1, 382985, Control_c, 0, 64, 82
1, 382987, Note_off_c, 0, 64, 55
1, 383001, Control_c, 0, 64, 82
1, 383016, Control_c, 0, 64, 83
1, 383031, Control_c, 0, 64, 83
1, 383193, Control_c, 0, 64, 83
1, 383208, Control_c, 0, 64, 82
1, 383222, Control_c, 0, 64, 81
1, 383237, Control_c, 0, 64, 79
1, 383252, Control_c, 0, 64, 76
1, 383267, Control_c, 0, 64, 72
1, 383282, Control_c, 0, 64, 68
1, 383296, Control_c, 0, 64, 65
1, 383311, Control_c, 0, 64, 62
1, 383326, Control_c, 0, 64, 60
1, 383341, Control_c, 0, 64, 58
1, 383356, Control_c, 0, 64, 56
1, 383371, Control_c, 0, 64, 55
1, 383386, Control_c, 0, 64, 54
1, 383401, Control_c, 0, 64, 56
1, 383415, Control_c, 0, 64, 59
1, 383426, Note_on_c, 0, 71, 44
1, 383430, Control_c, 0, 64, 63
1, 383431, Note_on_c, 0, 62, 32
1, 383436, Note_on_c, 0, 65, 38
1, 383441, Note_on_c, 0, 55, 26
1, 383445, Control_c, 0, 64, 67
1, 383460, Control_c, 0, 64, 72
1, 383475, Control_c, 0, 64, 77
1, 383489, Control_c, 0, 64, 80
1, 383504, Control_c, 0, 64, 82
1, 383514, Note_off_c, 0, 65, 63
1, 383518, Note_off_c, 0, 71, 62
1, 383519, Note_off_c, 0, 62, 58
1, 383519, Control_c, 0, 64, 82
1, 383534, Control_c, 0, 64, 83
1, 383549, Control_c, 0, 64, 84
1, 383566, Note_off_c, 0, 55, 35
1, 384046, Control_c, 0, 64, 83
1, 384061, Control_c, 0, 64, 81
1, 384076, Control_c, 0, 64, 78
1, 384090, Note_on_c, 0, 72, 49
1, 384091, Control_c, 0, 64, 74
1, 384092, Note_on_c, 0, 64, 46
1, 384098, Note_on_c, 0, 60, 28
1, 384102, Note_on_c, 0, 48, 32
1, 384106, Control_c, 0, 64, 69
1, 384111, Note_on_c, 0, 55, 26
1, 384120, Control_c, 0, 64, 64
1, 384135, Control_c, 0, 64, 61
1, 384150, Control_c, 0, 64, 61
1, 384180, Control_c, 0, 64, 60
1, 384194, Control_c, 0, 64, 59
1, 384209, Control_c, 0, 64, 57
1, 384224, Control_c, 0, 64, 56
1, 384283, Control_c, 0, 64, 57
1, 384298, Control_c, 0, 64, 57
1, 384313, Control_c, 0, 64, 58
1, 384328, Control_c, 0, 64, 59
1, 384342, Control_c, 0, 64, 59
1, 384357, Control_c, 0, 64, 60
1, 384379, Control_c, 0, 64, 61
1, 384394, Control_c, 0, 64, 62
1, 384409, Control_c, 0, 64, 63
1, 384424, Control_c, 0, 64, 63
1, 384439, Control_c, 0, 64, 64
1, 384453, Control_c, 0, 64, 64
1, 384468, Control_c, 0, 64, 65
1, 384483, Control_c, 0, 64, 65
1, 384498, Control_c, 0, 64, 66
1, 384513, Control_c, 0, 64, 67
1, 384527, Control_c, 0, 64, 67
1, 384542, Control_c, 0, 64, 68
1, 384557, Control_c, 0, 64, 69
1, 384572, Control_c, 0, 64, 69
1, 384587, Control_c, 0, 64, 70
1, 384603, Control_c, 0, 64, 71
1, 384618, Control_c, 0, 64, 72
1, 384632, Control_c, 0, 64, 73
1, 384646, Control_c, 0, 64, 74
1, 384661, Control_c, 0, 64, 76
1, 384675, Control_c, 0, 64, 77
1, 384690, Control_c, 0, 64, 79
1, 384705, Control_c, 0, 64, 80
1, 384720, Control_c, 0, 64, 82
1, 384735, Control_c, 0, 64, 83
1, 384749, Control_c, 0, 64, 85
1, 384764, Control_c, 0, 64, 86
1, 384779, Control_c, 0, 64, 87
1, 384793, Control_c, 0, 64, 88
1, 384803, Note_off_c, 0, 60, 35
1, 384808, Control_c, 0, 64, 89
1, 384823, Control_c, 0, 64, 90
1, 384838, Control_c, 0, 64, 91
1, 384853, Control_c, 0, 64, 93
1, 384867, Control_c, 0, 64, 93
1, 384882, Control_c, 0, 64, 94
1, 384897, Control_c, 0, 64, 95
1, 384911, Note_off_c, 0, 72, 53
1, 384912, Control_c, 0, 64, 96
1, 384927, Control_c, 0, 64, 98
1, 384942, Control_c, 0, 64, 98
1, 384957, Control_c, 0, 64, 99
1, 384971, Control_c, 0, 64, 100
1, 384980, Note_off_c, 0, 64, 37
1, 384986, Control_c, 0, 64, 101
1, 385001, Control_c, 0, 64, 101
1, 385031, Control_c, 0, 64, 102
1, 385038, Note_off_c, 0, 55, 42
1, 385049, Note_off_c, 0, 48, 44
1, 385061, Control_c, 0, 64, 102
1, 385156, Control_c, 0, 64, 103
1, 385750, Control_c, 0, 64, 102
1, 385764, Control_c, 0, 64, 101
1, 385779, Control_c, 0, 64, 99
1, 385794, Control_c, 0, 64, 96
1, 385806, Note_on_c, 0, 55, 47
1, 385806, Note_on_c, 0, 52, 49
1, 385809, Control_c, 0, 64, 91
1, 385814, Note_on_c, 0, 43, 39
1, 385824, Control_c, 0, 64, 86
1, 385839, Control_c, 0, 64, 79
1, 385854, Control_c, 0, 64, 74
1, 385876, Control_c, 0, 64, 68
1, 385891, Control_c, 0, 64, 65
1, 385905, Control_c, 0, 64, 63
1, 385920, Control_c, 0, 64, 61
1, 385950, Control_c, 0, 64, 62
1, 385994, Control_c, 0, 64, 63
1, 386009, Control_c, 0, 64, 64
1, 386024, Control_c, 0, 64, 65
1, 386039, Control_c, 0, 64, 67
1, 386054, Control_c, 0, 64, 70
1, 386068, Control_c, 0, 64, 73
1, 386083, Control_c, 0, 64, 77
1, 386098, Control_c, 0, 64, 81
1, 386113, Control_c, 0, 64, 83
1, 386128, Control_c, 0, 64, 86
1, 386143, Control_c, 0, 64, 88
1, 386158, Control_c, 0, 64, 89
1, 386172, Control_c, 0, 64, 91
1, 386188, Control_c, 0, 64, 92
1, 386203, Control_c, 0, 64, 93
1, 386217, Control_c, 0, 64, 93
1, 386232, Control_c, 0, 64, 94
1, 386247, Control_c, 0, 64, 95
1, 386262, Control_c, 0, 64, 95
1, 386289, Note_off_c, 0, 43, 36
1, 386292, Control_c, 0, 64, 96
1, 386294, Note_off_c, 0, 52, 49
1, 386307, Control_c, 0, 64, 96
1, 386351, Control_c, 0, 64, 97
1, 386395, Control_c, 0, 64, 97
1, 386602, Control_c, 0, 64, 97
1, 386625, Control_c, 0, 64, 94
1, 386640, Control_c, 0, 64, 90
1, 386647, Note_on_c, 0, 59, 56
1, 386654, Control_c, 0, 64, 84
1, 386658, Note_on_c, 0, 53, 46
1, 386662, Note_on_c, 0, 43, 43
1, 386666, Note_on_c, 0, 50, 45
1, 386669, Control_c, 0, 64, 77
1, 386684, Control_c, 0, 64, 72
1, 386699, Control_c, 0, 64, 67
1, 386714, Control_c, 0, 64, 63
1, 386728, Control_c, 0, 64, 60
1, 386743, Control_c, 0, 64, 57
1, 386758, Control_c, 0, 64, 53
1, 386772, Control_c, 0, 64, 47
1, 386787, Control_c, 0, 64, 37
1, 386802, Control_c, 0, 64, 0
1, 386811, Note_off_c, 0, 55, 34
1, 386906, Control_c, 0, 64, 32
1, 386921, Control_c, 0, 64, 52
1, 386936, Control_c, 0, 64, 62
1, 386951, Control_c, 0, 64, 65
1, 386965, Control_c, 0, 64, 68
1, 386980, Control_c, 0, 64, 71
1, 386996, Control_c, 0, 64, 77
1, 387011, Control_c, 0, 64, 81
1, 387025, Control_c, 0, 64, 85
1, 387040, Control_c, 0, 64, 88
1, 387055, Control_c, 0, 64, 90
1, 387059, Note_off_c, 0, 50, 63
1, 387070, Control_c, 0, 64, 92
1, 387085, Control_c, 0, 64, 93
1, 387100, Control_c, 0, 64, 95
1, 387115, Control_c, 0, 64, 95
1, 387130, Control_c, 0, 64, 96
1, 387135, Note_off_c, 0, 43, 40
1, 387144, Control_c, 0, 64, 97
1, 387159, Control_c, 0, 64, 98
1, 387171, Note_off_c, 0, 53, 60
1, 387174, Control_c, 0, 64, 99
1, 387188, Control_c, 0, 64, 99
1, 387203, Control_c, 0, 64, 100
1, 387233, Control_c, 0, 64, 100
1, 387262, Control_c, 0, 64, 101
1, 387833, Control_c, 0, 64, 99
1, 387848, Control_c, 0, 64, 96
1, 387857, Note_on_c, 0, 60, 51
1, 387863, Note_on_c, 0, 36, 39
1, 387863, Note_on_c, 0, 52, 47
1, 387863, Note_on_c, 0, 43, 40
1, 387863, Control_c, 0, 64, 89
1, 387872, Note_on_c, 0, 48, 38
1, 387878, Control_c, 0, 64, 83
1, 387893, Control_c, 0, 64, 78
1, 387908, Control_c, 0, 64, 72
1, 387923, Control_c, 0, 64, 67
1, 387937, Control_c, 0, 64, 63
1, 387952, Control_c, 0, 64, 59
1, 387962, Note_off_c, 0, 59, 37
1, 387967, Control_c, 0, 64, 57
1, 387982, Control_c, 0, 64, 56
1, 387997, Control_c, 0, 64, 54
1, 388011, Control_c, 0, 64, 51
1, 388026, Control_c, 0, 64, 47
1, 388041, Control_c, 0, 64, 43
1, 388085, Control_c, 0, 64, 44
1, 388100, Control_c, 0, 64, 45
1, 388122, Control_c, 0, 64, 46
1, 388137, Control_c, 0, 64, 48
1, 388152, Control_c, 0, 64, 51
1, 388167, Control_c, 0, 64, 53
1, 388182, Control_c, 0, 64, 54
1, 388197, Control_c, 0, 64, 54
1, 388211, Control_c, 0, 64, 56
1, 388226, Control_c, 0, 64, 58
1, 388241, Control_c, 0, 64, 61
1, 388256, Control_c, 0, 64, 62
1, 388271, Control_c, 0, 64, 63
1, 388286, Control_c, 0, 64, 63
1, 388315, Control_c, 0, 64, 64
1, 388330, Control_c, 0, 64, 65
1, 388345, Control_c, 0, 64, 66
1, 388360, Control_c, 0, 64, 66
1, 388374, Control_c, 0, 64, 67
1, 388389, Control_c, 0, 64, 67
1, 388404, Control_c, 0, 64, 68
1, 388418, Control_c, 0, 64, 69
1, 388433, Control_c, 0, 64, 70
1, 388448, Control_c, 0, 64, 71
1, 388463, Control_c, 0, 64, 72
1, 388478, Control_c, 0, 64, 73
1, 388492, Control_c, 0, 64, 74
1, 388507, Control_c, 0, 64, 75
1, 388522, Control_c, 0, 64, 77
1, 388537, Control_c, 0, 64, 78
1, 388552, Control_c, 0, 64, 80
1, 388566, Control_c, 0, 64, 81
1, 388581, Control_c, 0, 64, 82
1, 388597, Control_c, 0, 64, 83
1, 388612, Control_c, 0, 64, 83
1, 388627, Control_c, 0, 64, 85
1, 388641, Control_c, 0, 64, 86
1, 388656, Control_c, 0, 64, 87
1, 388671, Control_c, 0, 64, 88
1, 388686, Control_c, 0, 64, 89
1, 388701, Control_c, 0, 64, 90
1, 388715, Control_c, 0, 64, 91
1, 388730, Control_c, 0, 64, 92
1, 388745, Control_c, 0, 64, 93
1, 388760, Control_c, 0, 64, 94
1, 388775, Control_c, 0, 64, 94
1, 388790, Control_c, 0, 64, 95
1, 388805, Control_c, 0, 64, 95
1, 388834, Control_c, 0, 64, 96
1, 388883, Note_off_c, 0, 48, 45
1, 388886, Control_c, 0, 64, 96
1, 388915, Control_c, 0, 64, 97
1, 388919, Note_off_c, 0, 52, 37
1, 388921, Note_off_c, 0, 36, 39
1, 388927, Note_off_c, 0, 60, 35
1, 388945, Control_c, 0, 64, 97
1, 388975, Control_c, 0, 64, 98
1, 389005, Control_c, 0, 64, 98
1, 389084, Note_off_c, 0, 43, 38
1, 389094, Control_c, 0, 64, 99
1, 389879, Note_on_c, 0, 60, 42
1, 389883, Note_on_c, 0, 36, 28
1, 389884, Note_on_c, 0, 52, 33
1, 389891, Note_on_c, 0, 43, 29
1, 389892, Note_on_c, 0, 48, 31
1, 389892, Note_on_c, 0, 55, 33
1, 390473, Control_c, 0, 64, 99
1, 390517, Control_c, 0, 64, 100
1, 390576, Control_c, 0, 64, 100
1, 390620, Control_c, 0, 64, 101
1, 390680, Control_c, 0, 64, 101
1, 390799, Control_c, 0, 64, 102
1, 390961, Control_c, 0, 64, 102
1, 391005, Note_off_c, 0, 52, 40
1, 391017, Note_off_c, 0, 48, 39
1, 391022, Control_c, 0, 64, 103
1, 391041, Note_off_c, 0, 36, 38
1, 391066, Control_c, 0, 64, 103
1, 391076, Note_off_c, 0, 60, 30
1, 391133, Control_c, 0, 64, 104
1, 391154, Note_off_c, 0, 43, 36
1, 391180, Note_off_c, 0, 55, 42
1, 391207, Control_c, 0, 64, 104
1, 391310, Control_c, 0, 64, 105
1, 392429, Note_on_c, 0, 52, 31
1, 392430, Note_on_c, 0, 60, 39
1, 392439, Note_on_c, 0, 55, 25
1, 392443, Note_on_c, 0, 48, 27
1, 392444, Note_on_c, 0, 43, 22
1, 392448, Note_on_c, 0, 36, 22
1, 396248, Control_c, 0, 67, 127
1, 396263, Control_c, 0, 67, 125
1, 396278, Control_c, 0, 67, 124
1, 396293, Control_c, 0, 67, 123
1, 396307, Control_c, 0, 67, 122
1, 396322, Control_c, 0, 67, 121
1, 396337, Control_c, 0, 67, 120
1, 396359, Control_c, 0, 67, 119
1, 396373, Control_c, 0, 67, 118
1, 396388, Control_c, 0, 67, 117
1, 396403, Control_c, 0, 67, 116
1, 396418, Control_c, 0, 67, 115
1, 396433, Control_c, 0, 67, 114
1, 396448, Control_c, 0, 67, 113
1, 396463, Control_c, 0, 67, 112
1, 396478, Control_c, 0, 67, 111
1, 396493, Control_c, 0, 67, 110
1, 396507, Control_c, 0, 67, 110
1, 396522, Control_c, 0, 67, 109
1, 396537, Control_c, 0, 67, 108
1, 396551, Control_c, 0, 67, 108
1, 396566, Control_c, 0, 67, 107
1, 396582, Control_c, 0, 67, 107
1, 396597, Control_c, 0, 67, 106
1, 396612, Control_c, 0, 64, 104
1, 396612, Control_c, 0, 67, 105
1, 396627, Control_c, 0, 67, 105
1, 396657, Control_c, 0, 67, 104
1, 396672, Control_c, 0, 67, 104
1, 396686, Control_c, 0, 67, 103
1, 396701, Control_c, 0, 67, 102
1, 396716, Control_c, 0, 67, 102
1, 396731, Control_c, 0, 67, 101
1, 396746, Control_c, 0, 67, 101
1, 396761, Control_c, 0, 64, 104
1, 396761, Control_c, 0, 67, 100
1, 396775, Control_c, 0, 67, 99
1, 396790, Control_c, 0, 67, 99
1, 396802, Note_off_c, 0, 52, 35
1, 396805, Control_c, 0, 67, 98
1, 396820, Control_c, 0, 67, 97
1, 396835, Control_c, 0, 67, 97
1, 396849, Control_c, 0, 64, 103
1, 396849, Control_c, 0, 67, 96
1, 396864, Control_c, 0, 67, 96
1, 396879, Control_c, 0, 67, 95
1, 396909, Control_c, 0, 64, 103
1, 396909, Control_c, 0, 67, 95
1, 396923, Control_c, 0, 67, 94
1, 396938, Control_c, 0, 67, 94
1, 396953, Control_c, 0, 67, 93
1, 396968, Control_c, 0, 67, 92
1, 396982, Control_c, 0, 64, 102
1, 396982, Control_c, 0, 67, 91
1, 396997, Control_c, 0, 67, 90
1, 397012, Control_c, 0, 64, 102
1, 397012, Control_c, 0, 67, 90
1, 397020, Note_off_c, 0, 48, 20
1, 397027, Control_c, 0, 67, 89
1, 397042, Control_c, 0, 64, 101
1, 397042, Control_c, 0, 67, 88
1, 397056, Control_c, 0, 67, 88
1, 397071, Control_c, 0, 64, 101
1, 397071, Control_c, 0, 67, 87
1, 397086, Control_c, 0, 67, 87
1, 397109, Control_c, 0, 64, 100
1, 397109, Control_c, 0, 67, 86
1, 397124, Control_c, 0, 64, 100
1, 397124, Control_c, 0, 67, 85
1, 397138, Control_c, 0, 67, 85
1, 397153, Control_c, 0, 67, 84
1, 397168, Control_c, 0, 64, 99
1, 397197, Control_c, 0, 67, 83
1, 397212, Control_c, 0, 64, 99
1, 397227, Control_c, 0, 67, 83
1, 397242, Control_c, 0, 64, 98
1, 397256, Control_c, 0, 67, 82
1, 397286, Control_c, 0, 64, 98
1, 397286, Control_c, 0, 67, 82
1, 397301, Control_c, 0, 67, 81
1, 397316, Control_c, 0, 67, 80
1, 397327, Note_off_c, 0, 43, 18
1, 397330, Control_c, 0, 64, 97
1, 397330, Control_c, 0, 67, 80
1, 397360, Control_c, 0, 67, 79
1, 397375, Control_c, 0, 67, 79
1, 397390, Control_c, 0, 64, 97
1, 397404, Control_c, 0, 67, 78
1, 397434, Control_c, 0, 67, 78
1, 397464, Control_c, 0, 67, 77
1, 397475, Note_off_c, 0, 36, 25
1, 397478, Control_c, 0, 64, 96
1, 397478, Control_c, 0, 67, 77
1, 397493, Control_c, 0, 67, 76
1, 397508, Control_c, 0, 67, 76
1, 397538, Control_c, 0, 67, 75
1, 397626, Control_c, 0, 67, 75
1, 397656, Control_c, 0, 67, 74
1, 397670, Control_c, 0, 64, 96
1, 397745, Control_c, 0, 67, 73
1, 397760, Control_c, 0, 67, 72
1, 397774, Control_c, 0, 64, 95
1, 397774, Control_c, 0, 67, 70
1, 397789, Control_c, 0, 67, 69
1, 397804, Control_c, 0, 67, 67
1, 397819, Control_c, 0, 67, 66
1, 397834, Control_c, 0, 67, 65
1, 397856, Control_c, 0, 67, 65
1, 397871, Control_c, 0, 67, 63
1, 397885, Control_c, 0, 64, 95
1, 397885, Control_c, 0, 67, 62
1, 397900, Control_c, 0, 67, 62
1, 397915, Control_c, 0, 67, 61
1, 397929, Control_c, 0, 67, 60
1, 397944, Control_c, 0, 64, 94
1, 397944, Control_c, 0, 67, 60
1, 397959, Control_c, 0, 67, 59
1, 397974, Control_c, 0, 67, 58
1, 397989, Control_c, 0, 67, 58
1, 398019, Control_c, 0, 67, 57
1, 398034, Control_c, 0, 64, 94
1, 398034, Control_c, 0, 67, 56
1, 398049, Control_c, 0, 67, 55
1, 398064, Control_c, 0, 67, 54
1, 398078, Control_c, 0, 67, 53
1, 398093, Control_c, 0, 64, 93
1, 398093, Control_c, 0, 67, 52
1, 398108, Control_c, 0, 67, 51
1, 398122, Control_c, 0, 67, 51
1, 398137, Control_c, 0, 67, 50
1, 398152, Control_c, 0, 67, 50
1, 398167, Control_c, 0, 67, 49
1, 398183, Control_c, 0, 64, 93
1, 398183, Control_c, 0, 67, 49
1, 398198, Control_c, 0, 67, 48
1, 398213, Control_c, 0, 67, 47
1, 398227, Note_off_c, 0, 60, 16
1, 398242, Control_c, 0, 67, 47
1, 398257, Control_c, 0, 67, 46
1, 398272, Control_c, 0, 64, 92
1, 398272, Control_c, 0, 67, 45
1, 398287, Control_c, 0, 67, 45
1, 398301, Control_c, 0, 67, 44
1, 398316, Control_c, 0, 64, 92
1, 398316, Control_c, 0, 67, 43
1, 398331, Control_c, 0, 67, 43
1, 398345, Control_c, 0, 67, 42
1, 398360, Control_c, 0, 67, 41
1, 398375, Control_c, 0, 64, 91
1, 398375, Control_c, 0, 67, 41
1, 398390, Control_c, 0, 67, 40
1, 398405, Control_c, 0, 67, 39
1, 398419, Control_c, 0, 67, 38
1, 398449, Control_c, 0, 67, 37
1, 398464, Control_c, 0, 64, 91
1, 398464, Control_c, 0, 67, 37
1, 398479, Control_c, 0, 67, 36
1, 398494, Control_c, 0, 67, 35
1, 398508, Control_c, 0, 64, 90
1, 398508, Control_c, 0, 67, 34
1, 398523, Control_c, 0, 67, 33
1, 398538, Control_c, 0, 67, 32
1, 398552, Control_c, 0, 67, 31
1, 398567, Control_c, 0, 64, 90
1, 398567, Control_c, 0, 67, 30
1, 398582, Control_c, 0, 67, 29
1, 398605, Control_c, 0, 67, 28
1, 398620, Control_c, 0, 64, 89
1, 398620, Control_c, 0, 67, 28
1, 398634, Control_c, 0, 67, 27
1, 398649, Control_c, 0, 67, 26
1, 398664, Control_c, 0, 64, 89
1, 398664, Control_c, 0, 67, 26
1, 398679, Control_c, 0, 67, 25
1, 398694, Control_c, 0, 64, 88
1, 398694, Control_c, 0, 67, 23
1, 398708, Control_c, 0, 67, 22
1, 398723, Control_c, 0, 67, 22
1, 398738, Control_c, 0, 67, 21
1, 398752, Control_c, 0, 67, 20
1, 398767, Control_c, 0, 64, 88
1, 398767, Control_c, 0, 67, 20
1, 398782, Control_c, 0, 67, 19
1, 398797, Control_c, 0, 67, 18
1, 398812, Control_c, 0, 67, 17
1, 398827, Control_c, 0, 67, 16
1, 398842, Control_c, 0, 67, 16
1, 398857, Control_c, 0, 64, 87
1, 398857, Control_c, 0, 67, 15
1, 398871, Control_c, 0, 67, 14
1, 398886, Control_c, 0, 67, 13
1, 398901, Control_c, 0, 67, 11
1, 398916, Control_c, 0, 64, 87
1, 398916, Control_c, 0, 67, 10
1, 398931, Control_c, 0, 67, 9
1, 398945, Control_c, 0, 67, 9
1, 398960, Control_c, 0, 67, 8
1, 398976, Control_c, 0, 64, 86
1, 398976, Control_c, 0, 67, 8
1, 398991, Control_c, 0, 67, 0
1, 399035, Control_c, 0, 64, 86
1, 399065, Control_c, 0, 64, 85
1, 399110, Control_c, 0, 64, 85
1, 399118, Note_off_c, 0, 55, 19
1, 399139, Control_c, 0, 64, 84
1, 399168, Control_c, 0, 64, 84
1, 399198, Control_c, 0, 64, 83
1, 399242, Control_c, 0, 64, 83
1, 399257, Control_c, 0, 64, 82
1, 399287, Control_c, 0, 64, 82
1, 399331, Control_c, 0, 64, 81
1, 399369, Control_c, 0, 64, 81
1, 399383, Control_c, 0, 64, 80
1, 399413, Control_c, 0, 64, 80
1, 399457, Control_c, 0, 64, 79
1, 399487, Control_c, 0, 64, 79
1, 399546, Control_c, 0, 64, 78
1, 399605, Control_c, 0, 64, 78
1, 399649, Control_c, 0, 64, 77
1, 399679, Control_c, 0, 64, 77
1, 399709, Control_c, 0, 64, 76
1, 399724, Control_c, 0, 64, 76
1, 399739, Control_c, 0, 64, 75
1, 399784, Control_c, 0, 64, 75
1, 399813, Control_c, 0, 64, 74
1, 399843, Control_c, 0, 64, 74
1, 399873, Control_c, 0, 64, 73
1, 399918, Control_c, 0, 64, 73
1, 399947, Control_c, 0, 64, 72
1, 399991, Control_c, 0, 64, 72
1, 400021, Control_c, 0, 64, 71
1, 400065, Control_c, 0, 64, 71
1, 400103, Control_c, 0, 64, 70
1, 400132, Control_c, 0, 64, 70
1, 400162, Control_c, 0, 64, 69
1, 400206, Control_c, 0, 64, 69
1, 400265, Control_c, 0, 64, 68
1, 400310, Control_c, 0, 64, 68
1, 400370, Control_c, 0, 64, 67
1, 400414, Control_c, 0, 64, 67
1, 400459, Control_c, 0, 64, 66
1, 400488, Control_c, 0, 64, 66
1, 400532, Control_c, 0, 64, 65
1, 400637, Control_c, 0, 64, 65
1, 400696, Control_c, 0, 64, 64
1, 400770, Control_c, 0, 64, 64
1, 400830, Control_c, 0, 64, 63
1, 400882, Control_c, 0, 64, 63
1, 400896, Control_c, 0, 64, 62
1, 400985, Control_c, 0, 64, 62
1, 401044, Control_c, 0, 64, 61
1, 401089, Control_c, 0, 64, 61
1, 401207, Control_c, 0, 64, 60
1, 401266, Control_c, 0, 64, 60
1, 401370, Control_c, 0, 64, 59
1, 401400, Control_c, 0, 64, 59
1, 401444, Control_c, 0, 64, 58
1, 401659, Control_c, 0, 64, 58
1, 401837, Control_c, 0, 64, 57
1, 402000, Control_c, 0, 64, 57
1, 402118, Control_c, 0, 64, 56
1, 402208, Control_c, 0, 64, 56
1, 402282, Control_c, 0, 64, 55
1, 402327, Control_c, 0, 64, 55
1, 402408, Control_c, 0, 64, 54
1, 402453, Control_c, 0, 64, 54
1, 402467, Control_c, 0, 64, 53
1, 402541, Control_c, 0, 64, 53
1, 402586, Control_c, 0, 64, 52
1, 402675, Control_c, 0, 64, 52
1, 402779, Control_c, 0, 64, 51
1, 402793, Control_c, 0, 64, 51
1, 402823, Control_c, 0, 64, 50
1, 402882, Control_c, 0, 64, 50
1, 402972, Control_c, 0, 64, 49
1, 403098, Control_c, 0, 64, 49
1, 403128, Control_c, 0, 64, 48
1, 403187, Control_c, 0, 64, 48
1, 403202, Control_c, 0, 64, 47
1, 403231, Control_c, 0, 64, 47
1, 403261, Control_c, 0, 64, 46
1, 403276, Control_c, 0, 64, 46
1, 403320, Control_c, 0, 64, 45
1, 403380, Control_c, 0, 64, 45
1, 403542, Control_c, 0, 64, 44
1, 403617, Control_c, 0, 64, 44
1, 403647, Control_c, 0, 64, 43
1, 403662, Control_c, 0, 64, 43
1, 403677, Control_c, 0, 64, 42
1, 403966, Control_c, 0, 64, 43
1, 404025, Control_c, 0, 64, 43
1, 404040, Control_c, 0, 64, 44
1, 404070, Control_c, 0, 64, 44
1, 404085, Control_c, 0, 64, 45
1, 404115, Control_c, 0, 64, 45
1, 404129, Control_c, 0, 64, 46
1, 404144, Control_c, 0, 64, 46
1, 404188, Control_c, 0, 64, 47
1, 404218, Control_c, 0, 64, 48
1, 404233, Control_c, 0, 64, 48
1, 404247, Control_c, 0, 64, 49
1, 404262, Control_c, 0, 64, 49
1, 404277, Control_c, 0, 64, 50
1, 404291, Control_c, 0, 64, 51
1, 404306, Control_c, 0, 64, 51
1, 404321, Control_c, 0, 64, 52
1, 404336, Control_c, 0, 64, 53
1, 404351, Control_c, 0, 64, 54
1, 404365, Control_c, 0, 64, 54
1, 404380, Control_c, 0, 64, 55
1, 404410, Control_c, 0, 64, 56
1, 404425, Control_c, 0, 64, 56
1, 404440, Control_c, 0, 64, 57
1, 404455, Control_c, 0, 64, 57
1, 404470, Control_c, 0, 64, 58
1, 404499, Control_c, 0, 64, 59
1, 404529, Control_c, 0, 64, 59
1, 404559, Control_c, 0, 64, 60
1, 404611, Control_c, 0, 64, 60
1, 404626, Control_c, 0, 64, 61
1, 405203, Control_c, 0, 64, 60
1, 405464, Control_c, 0, 64, 60
1, 405611, Control_c, 0, 64, 60
1, 405818, Control_c, 0, 64, 61
1, 405863, Control_c, 0, 64, 60
1, 406040, Control_c, 0, 64, 61
1, 406107, Control_c, 0, 64, 61
1, 406122, Control_c, 0, 64, 62
1, 406151, Control_c, 0, 64, 62
1, 406182, Control_c, 0, 64, 63
1, 406197, Control_c, 0, 64, 63
1, 406227, Control_c, 0, 64, 64
1, 406271, Control_c, 0, 64, 64
1, 406301, Control_c, 0, 64, 65
1, 406360, Control_c, 0, 64, 65
1, 406405, Control_c, 0, 64, 66
1, 406434, Control_c, 0, 64, 66
1, 406523, Control_c, 0, 64, 67
1, 406628, Control_c, 0, 64, 66
1, 406672, Control_c, 0, 64, 66
1, 406716, Control_c, 0, 64, 65
1, 406931, Control_c, 0, 64, 65
1, 406946, Control_c, 0, 64, 64
1, 406962, Control_c, 0, 64, 63
1, 406991, Control_c, 0, 64, 62
1, 407006, Control_c, 0, 64, 61
1, 407021, Control_c, 0, 64, 58
1, 407036, Control_c, 0, 64, 53
1, 407051, Control_c, 0, 64, 46
1, 407065, Control_c, 0, 64, 38
1, 407080, Control_c, 0, 64, 14
1, 407095, Control_c, 0, 64, 0
1, 407095, End_track
0, 0, End_of_file
