0, 0, Header, 0, 1, 384
1, 0, Start_track
1, 0, Title_t, "Sonata Op. 1--Frank Duepree     "
1, 0, Text_t, "2008 e-Piano Junior Competition recital round"
1, 0, Text_t, "recorded July 2008"
1, 0, Text_t, "http://www.piano-e-competition.com/"
1, 0, Text_t, "File processed for distribution by software from Zenph Studios, Inc., http://www.zenph.com"
1, 0, Instrument_name_t, "Yamaha Disklavier Pro Mark IV concert grand piano, model DCFIIISM4PRO"
1, 0, Sequencer_specific, 39, 67, 113, 0, 1, 0, 1, 0, 83, 111, 110, 97, 116, 97, 32, 79, 112, 46, 32, 49, 32, 32, 32, 32, 70, 114, 97, 110, 107, 32, 68, 117, 101, 112, 114, 101, 101, 32, 32, 32
1, 0, Sequencer_specific, 6, 67, 113, 0, 0, 0, 69
1, 0, System_exclusive, 21, 67, 113, 126, 21, 0, 2, 2, 0, 3, 14, 1, 4, 1, 13, 13, 10, 11, 9, 2, 7, 247
1, 0, Sequencer_specific, 5, 67, 123, 12, 2, 1
1, 0, Tempo, 512820
1, 0, Time_signature, 4, 2, 24, 8
1, 0, System_exclusive, 5, 126, 127, 9, 1, 247
1, 1, System_exclusive, 8, 67, 16, 76, 0, 0, 126, 0, 247
1, 2, System_exclusive, 8, 67, 16, 76, 8, 9, 7, 1, 247
1, 3, Control_c, 0, 0, 0
1, 3, Control_c, 1, 0, 0
1, 3, Control_c, 2, 0, 0
1, 3, Control_c, 3, 0, 0
1, 3, Control_c, 4, 0, 0
1, 3, Control_c, 5, 0, 0
1, 3, Control_c, 6, 0, 0
1, 3, Control_c, 7, 0, 0
1, 3, Control_c, 8, 0, 0
1, 3, Control_c, 9, 0, 127
1, 3, Control_c, 10, 0, 0
1, 3, Control_c, 11, 0, 0
1, 3, Control_c, 12, 0, 0
1, 3, Control_c, 13, 0, 0
1, 3, Control_c, 14, 0, 0
1, 3, Control_c, 15, 0, 0
1, 4, Control_c, 0, 32, 0
1, 4, Control_c, 1, 32, 0
1, 4, Control_c, 2, 32, 0
1, 4, Control_c, 3, 32, 0
1, 4, Control_c, 4, 32, 0
1, 4, Control_c, 5, 32, 0
1, 4, Control_c, 6, 32, 0
1, 4, Control_c, 7, 32, 0
1, 4, Control_c, 8, 32, 0
1, 4, Control_c, 9, 32, 0
1, 4, Control_c, 10, 32, 0
1, 4, Control_c, 11, 32, 0
1, 4, Control_c, 12, 32, 0
1, 4, Control_c, 13, 32, 0
1, 4, Control_c, 14, 32, 0
1, 4, Control_c, 15, 32, 0
1, 5, Program_c, 0, 0
1, 5, Program_c, 1, 0
1, 5, Program_c, 2, 0
1, 5, Program_c, 3, 0
1, 5, Program_c, 4, 0
1, 5, Program_c, 5, 0
1, 5, Program_c, 6, 0
1, 5, Program_c, 7, 0
1, 5, Program_c, 8, 0
1, 5, Program_c, 9, 0
1, 5, Program_c, 10, 0
1, 5, Program_c, 11, 0
1, 5, Program_c, 12, 0
1, 5, Program_c, 13, 0
1, 5, Program_c, 14, 0
1, 5, Program_c, 15, 0
1, 6, Control_c, 0, 7, 100
1, 6, Control_c, 1, 7, 100
1, 6, Control_c, 2, 7, 100
1, 6, Control_c, 3, 7, 100
1, 6, Control_c, 4, 7, 100
1, 6, Control_c, 5, 7, 100
1, 6, Control_c, 6, 7, 100
1, 6, Control_c, 7, 7, 100
1, 6, Control_c, 8, 7, 100
1, 6, Control_c, 9, 7, 100
1, 6, Control_c, 10, 7, 100
1, 6, Control_c, 11, 7, 100
1, 6, Control_c, 12, 7, 100
1, 6, Control_c, 13, 7, 100
1, 6, Control_c, 14, 7, 100
1, 6, Control_c, 15, 7, 100
1, 117, Control_c, 0, 64, 13
1, 229, Control_c, 0, 64, 26
1, 341, Control_c, 0, 64, 39
1, 452, Control_c, 0, 64, 53
1, 564, Control_c, 0, 64, 65
1, 676, Control_c, 0, 64, 79
1, 787, Control_c, 0, 64, 91
1, 899, Control_c, 0, 64, 107
1, 1132, Note_on_c, 0, 67, 52
1, 1308, Control_c, 0, 64, 107
1, 1323, Control_c, 0, 64, 108
1, 1338, Control_c, 0, 64, 108
1, 1352, Control_c, 0, 64, 109
1, 1367, Control_c, 0, 64, 109
1, 1397, Control_c, 0, 64, 110
1, 1433, Control_c, 0, 64, 110
1, 1448, Control_c, 0, 64, 111
1, 1463, Control_c, 0, 64, 111
1, 1493, Control_c, 0, 64, 112
1, 1642, Note_on_c, 0, 72, 60
1, 1803, Note_off_c, 0, 67, 50
1, 1879, Control_c, 0, 64, 108
1, 1894, Control_c, 0, 64, 103
1, 1909, Control_c, 0, 64, 95
1, 1916, Note_on_c, 0, 78, 71
1, 1924, Control_c, 0, 64, 86
1, 1931, Note_on_c, 0, 61, 43
1, 1936, Note_on_c, 0, 67, 53
1, 1938, Control_c, 0, 64, 78
1, 1948, Note_on_c, 0, 71, 53
1, 1953, Control_c, 0, 64, 70
1, 1968, Control_c, 0, 64, 63
1, 1982, Control_c, 0, 64, 42
1, 1984, Note_off_c, 0, 72, 38
1, 1997, Control_c, 0, 64, 16
1, 2012, Control_c, 0, 64, 0
1, 2316, Control_c, 0, 64, 16
1, 2330, Control_c, 0, 64, 42
1, 2345, Control_c, 0, 64, 45
1, 2360, Control_c, 0, 64, 46
1, 2375, Control_c, 0, 64, 51
1, 2390, Control_c, 0, 64, 56
1, 2405, Control_c, 0, 64, 61
1, 2420, Control_c, 0, 64, 62
1, 2465, Control_c, 0, 64, 63
1, 2479, Control_c, 0, 64, 64
1, 2494, Control_c, 0, 64, 64
1, 2554, Control_c, 0, 64, 65
1, 2643, Control_c, 0, 64, 65
1, 2658, Control_c, 0, 64, 66
1, 2672, Control_c, 0, 64, 66
1, 2687, Control_c, 0, 64, 67
1, 2717, Control_c, 0, 64, 68
1, 2732, Control_c, 0, 64, 69
1, 2746, Control_c, 0, 64, 72
1, 2761, Control_c, 0, 64, 74
1, 2776, Control_c, 0, 64, 76
1, 2791, Control_c, 0, 64, 76
1, 2805, Control_c, 0, 64, 77
1, 2820, Control_c, 0, 64, 77
1, 2835, Control_c, 0, 64, 79
1, 2850, Control_c, 0, 64, 80
1, 2865, Control_c, 0, 64, 81
1, 2879, Control_c, 0, 64, 81
1, 2909, Control_c, 0, 64, 82
1, 2932, Control_c, 0, 64, 82
1, 2961, Control_c, 0, 64, 83
1, 2972, Note_on_c, 0, 79, 58
1, 2991, Control_c, 0, 64, 84
1, 3005, Control_c, 0, 64, 84
1, 3020, Control_c, 0, 64, 85
1, 3035, Control_c, 0, 64, 85
1, 3050, Control_c, 0, 64, 86
1, 3065, Control_c, 0, 64, 87
1, 3079, Control_c, 0, 64, 88
1, 3089, Note_off_c, 0, 71, 63
1, 3094, Control_c, 0, 64, 89
1, 3109, Control_c, 0, 64, 90
1, 3117, Note_off_c, 0, 78, 62
1, 3123, Control_c, 0, 64, 91
1, 3138, Control_c, 0, 64, 92
1, 3153, Control_c, 0, 64, 93
1, 3168, Control_c, 0, 64, 94
1, 3183, Control_c, 0, 64, 95
1, 3196, Control_c, 0, 64, 95
1, 3211, Control_c, 0, 64, 96
1, 3226, Control_c, 0, 64, 96
1, 3228, Note_off_c, 0, 67, 28
1, 3238, Note_off_c, 0, 79, 32
1, 3249, Note_off_c, 0, 61, 52
1, 3257, Control_c, 0, 64, 97
1, 3316, Control_c, 0, 64, 96
1, 3331, Control_c, 0, 64, 94
1, 3346, Control_c, 0, 64, 89
1, 3347, Note_on_c, 0, 79, 73
1, 3348, Note_on_c, 0, 67, 59
1, 3349, Note_on_c, 0, 70, 59
1, 3360, Note_on_c, 0, 60, 44
1, 3361, Control_c, 0, 64, 82
1, 3375, Control_c, 0, 64, 73
1, 3390, Control_c, 0, 64, 65
1, 3405, Control_c, 0, 64, 52
1, 3419, Control_c, 0, 64, 45
1, 3434, Control_c, 0, 64, 45
1, 3449, Control_c, 0, 64, 49
1, 3464, Control_c, 0, 64, 58
1, 3479, Control_c, 0, 64, 65
1, 3493, Control_c, 0, 64, 71
1, 3508, Control_c, 0, 64, 76
1, 3523, Control_c, 0, 64, 81
1, 3538, Control_c, 0, 64, 84
1, 3553, Control_c, 0, 64, 86
1, 3567, Control_c, 0, 64, 88
1, 3582, Control_c, 0, 64, 89
1, 3597, Control_c, 0, 64, 91
1, 3612, Control_c, 0, 64, 91
1, 3627, Control_c, 0, 64, 92
1, 3642, Control_c, 0, 64, 93
1, 3655, Note_on_c, 0, 75, 74
1, 3657, Control_c, 0, 64, 93
1, 3679, Control_c, 0, 64, 94
1, 3694, Control_c, 0, 64, 95
1, 3708, Control_c, 0, 64, 96
1, 3738, Control_c, 0, 64, 96
1, 3746, Note_off_c, 0, 79, 59
1, 3752, Control_c, 0, 64, 97
1, 3767, Control_c, 0, 64, 97
1, 3781, Note_off_c, 0, 67, 50
1, 3797, Control_c, 0, 64, 98
1, 3828, Note_off_c, 0, 75, 60
1, 3901, Control_c, 0, 64, 95
1, 3916, Control_c, 0, 64, 86
1, 3931, Control_c, 0, 64, 75
1, 3932, Note_on_c, 0, 59, 54
1, 3932, Note_on_c, 0, 75, 82
1, 3932, Note_off_c, 0, 60, 57
1, 3935, Note_on_c, 0, 69, 57
1, 3943, Note_on_c, 0, 67, 57
1, 3946, Control_c, 0, 64, 64
1, 3955, Note_off_c, 0, 70, 55
1, 3961, Control_c, 0, 64, 20
1, 3976, Control_c, 0, 64, 0
1, 4065, Control_c, 0, 64, 57
1, 4080, Control_c, 0, 64, 69
1, 4095, Control_c, 0, 64, 74
1, 4110, Control_c, 0, 64, 79
1, 4125, Control_c, 0, 64, 84
1, 4140, Control_c, 0, 64, 87
1, 4155, Control_c, 0, 64, 89
1, 4169, Control_c, 0, 64, 90
1, 4184, Control_c, 0, 64, 91
1, 4199, Control_c, 0, 64, 92
1, 4209, Note_off_c, 0, 59, 59
1, 4214, Control_c, 0, 64, 92
1, 4229, Control_c, 0, 64, 93
1, 4232, Note_on_c, 0, 71, 72
1, 4273, Control_c, 0, 64, 93
1, 4327, Note_off_c, 0, 67, 53
1, 4327, Note_off_c, 0, 69, 57
1, 4327, Note_off_c, 0, 75, 64
1, 4532, Control_c, 0, 64, 92
1, 4547, Control_c, 0, 64, 89
1, 4562, Note_on_c, 0, 74, 69
1, 4562, Control_c, 0, 64, 80
1, 4565, Note_on_c, 0, 58, 53
1, 4569, Note_on_c, 0, 64, 50
1, 4574, Note_on_c, 0, 68, 60
1, 4576, Control_c, 0, 64, 70
1, 4591, Control_c, 0, 64, 59
1, 4606, Control_c, 0, 64, 0
1, 4613, Note_off_c, 0, 71, 57
1, 4622, Note_off_c, 0, 68, 0
1, 4622, Note_on_c, 0, 68, 18
1, 4813, Control_c, 0, 64, 30
1, 4828, Control_c, 0, 64, 48
1, 4844, Control_c, 0, 64, 57
1, 4859, Control_c, 0, 64, 62
1, 4873, Control_c, 0, 64, 64
1, 4888, Control_c, 0, 64, 65
1, 4903, Control_c, 0, 64, 66
1, 4918, Control_c, 0, 64, 67
1, 4933, Control_c, 0, 64, 68
1, 4948, Control_c, 0, 64, 69
1, 4962, Control_c, 0, 64, 69
1, 4977, Control_c, 0, 64, 70
1, 5022, Control_c, 0, 64, 69
1, 5037, Control_c, 0, 64, 65
1, 5052, Control_c, 0, 64, 50
1, 5066, Control_c, 0, 64, 0
1, 5091, Note_on_c, 0, 67, 44
1, 5128, Note_off_c, 0, 68, 40
1, 5177, Control_c, 0, 64, 63
1, 5192, Control_c, 0, 64, 68
1, 5205, Note_off_c, 0, 67, 57
1, 5207, Control_c, 0, 64, 71
1, 5222, Control_c, 0, 64, 73
1, 5237, Control_c, 0, 64, 75
1, 5252, Control_c, 0, 64, 78
1, 5266, Control_c, 0, 64, 80
1, 5281, Control_c, 0, 64, 81
1, 5287, Note_on_c, 0, 67, 46
1, 5296, Control_c, 0, 64, 82
1, 5311, Control_c, 0, 64, 83
1, 5326, Control_c, 0, 64, 84
1, 5341, Control_c, 0, 64, 85
1, 5355, Control_c, 0, 64, 86
1, 5370, Control_c, 0, 64, 87
1, 5385, Control_c, 0, 64, 87
1, 5389, Note_off_c, 0, 64, 64
1, 5399, Control_c, 0, 64, 88
1, 5414, Control_c, 0, 64, 88
1, 5444, Control_c, 0, 64, 89
1, 5678, Note_on_c, 0, 73, 52
1, 5690, Note_off_c, 0, 74, 51
1, 5776, Note_off_c, 0, 67, 56
1, 5818, Note_off_c, 0, 73, 64
1, 6044, Control_c, 0, 64, 88
1, 6059, Control_c, 0, 64, 87
1, 6074, Control_c, 0, 64, 84
1, 6085, Note_on_c, 0, 73, 46
1, 6089, Control_c, 0, 64, 78
1, 6092, Note_on_c, 0, 67, 49
1, 6104, Control_c, 0, 64, 73
1, 6106, Note_on_c, 0, 42, 34
1, 6119, Control_c, 0, 64, 67
1, 6134, Control_c, 0, 64, 61
1, 6148, Control_c, 0, 64, 52
1, 6163, Control_c, 0, 64, 46
1, 6178, Control_c, 0, 64, 40
1, 6193, Control_c, 0, 64, 25
1, 6208, Control_c, 0, 64, 0
1, 6326, Control_c, 0, 64, 37
1, 6340, Control_c, 0, 64, 49
1, 6355, Control_c, 0, 64, 55
1, 6370, Control_c, 0, 64, 60
1, 6385, Control_c, 0, 64, 62
1, 6400, Control_c, 0, 64, 63
1, 6414, Control_c, 0, 64, 64
1, 6429, Control_c, 0, 64, 64
1, 6445, Control_c, 0, 64, 65
1, 6460, Control_c, 0, 64, 65
1, 6475, Control_c, 0, 64, 66
1, 6490, Control_c, 0, 64, 67
1, 6505, Control_c, 0, 64, 68
1, 6519, Control_c, 0, 64, 68
1, 6549, Control_c, 0, 64, 69
1, 6623, Control_c, 0, 64, 68
1, 6638, Control_c, 0, 64, 67
1, 6653, Control_c, 0, 64, 64
1, 6675, Control_c, 0, 64, 58
1, 6688, Note_off_c, 0, 67, 58
1, 6690, Control_c, 0, 64, 48
1, 6705, Control_c, 0, 64, 36
1, 6720, Control_c, 0, 64, 26
1, 6733, Note_on_c, 0, 66, 36
1, 6734, Control_c, 0, 64, 31
1, 6749, Control_c, 0, 64, 48
1, 6756, Note_off_c, 0, 58, 53
1, 6764, Control_c, 0, 64, 64
1, 6778, Control_c, 0, 64, 70
1, 6793, Control_c, 0, 64, 76
1, 6808, Control_c, 0, 64, 83
1, 6823, Control_c, 0, 64, 86
1, 6838, Control_c, 0, 64, 88
1, 6848, Note_off_c, 0, 66, 63
1, 6852, Control_c, 0, 64, 89
1, 6861, Note_off_c, 0, 42, 56
1, 6867, Control_c, 0, 64, 90
1, 6882, Control_c, 0, 64, 90
1, 6912, Control_c, 0, 64, 91
1, 7060, Control_c, 0, 64, 90
1, 7090, Control_c, 0, 64, 89
1, 7104, Note_on_c, 0, 62, 40
1, 7105, Control_c, 0, 64, 88
1, 7110, Note_on_c, 0, 66, 44
1, 7115, Note_on_c, 0, 35, 38
1, 7119, Control_c, 0, 64, 86
1, 7134, Control_c, 0, 64, 84
1, 7149, Control_c, 0, 64, 81
1, 7163, Control_c, 0, 64, 78
1, 7178, Control_c, 0, 64, 76
1, 7193, Control_c, 0, 64, 75
1, 7208, Control_c, 0, 64, 73
1, 7223, Control_c, 0, 64, 72
1, 7239, Control_c, 0, 64, 71
1, 7254, Control_c, 0, 64, 70
1, 7268, Control_c, 0, 64, 68
1, 7283, Control_c, 0, 64, 68
1, 7298, Control_c, 0, 64, 67
1, 7342, Control_c, 0, 64, 67
1, 7357, Control_c, 0, 64, 66
1, 7358, Note_off_c, 0, 73, 58
1, 7386, Control_c, 0, 64, 66
1, 7454, Control_c, 0, 64, 65
1, 7542, Control_c, 0, 64, 65
1, 7572, Control_c, 0, 64, 64
1, 7690, Control_c, 0, 64, 64
1, 7705, Note_on_c, 0, 42, 32
1, 7839, Note_off_c, 0, 35, 33
1, 7944, Note_on_c, 0, 47, 27
1, 7992, Note_off_c, 0, 42, 37
1, 8173, Control_c, 0, 64, 64
1, 8203, Control_c, 0, 64, 65
1, 8217, Control_c, 0, 64, 65
1, 8232, Control_c, 0, 64, 66
1, 8262, Control_c, 0, 64, 66
1, 8306, Control_c, 0, 64, 67
1, 8336, Control_c, 0, 64, 66
1, 8350, Control_c, 0, 64, 66
1, 8380, Control_c, 0, 64, 65
1, 8395, Control_c, 0, 64, 65
1, 8410, Control_c, 0, 64, 64
1, 8424, Control_c, 0, 64, 63
1, 8439, Control_c, 0, 64, 62
1, 8454, Control_c, 0, 64, 61
1, 8466, Note_on_c, 0, 74, 56
1, 8469, Control_c, 0, 64, 61
1, 8498, Control_c, 0, 64, 61
1, 8513, Control_c, 0, 64, 62
1, 8528, Control_c, 0, 64, 63
1, 8542, Control_c, 0, 64, 64
1, 8557, Control_c, 0, 64, 65
1, 8572, Note_off_c, 0, 66, 64
1, 8572, Control_c, 0, 64, 68
1, 8587, Control_c, 0, 64, 70
1, 8601, Note_off_c, 0, 62, 51
1, 8602, Control_c, 0, 64, 74
1, 8614, Note_off_c, 0, 47, 54
1, 8617, Control_c, 0, 64, 77
1, 8632, Control_c, 0, 64, 80
1, 8647, Control_c, 0, 64, 82
1, 8662, Control_c, 0, 64, 83
1, 8677, Control_c, 0, 64, 85
1, 8691, Control_c, 0, 64, 86
1, 8706, Control_c, 0, 64, 87
1, 8721, Control_c, 0, 64, 88
1, 8735, Control_c, 0, 64, 88
1, 8750, Control_c, 0, 64, 89
1, 8765, Control_c, 0, 64, 90
1, 8780, Control_c, 0, 64, 90
1, 8795, Control_c, 0, 64, 91
1, 8826, Note_on_c, 0, 70, 70
1, 8853, Note_on_c, 0, 62, 57
1, 8855, Control_c, 0, 64, 90
1, 8870, Control_c, 0, 64, 88
1, 8885, Control_c, 0, 64, 84
1, 8900, Control_c, 0, 64, 79
1, 8921, Control_c, 0, 64, 75
1, 8936, Control_c, 0, 64, 71
1, 8951, Control_c, 0, 64, 69
1, 8981, Control_c, 0, 64, 71
1, 8996, Control_c, 0, 64, 74
1, 9000, Note_off_c, 0, 74, 20
1, 9010, Control_c, 0, 64, 78
1, 9025, Control_c, 0, 64, 81
1, 9040, Control_c, 0, 64, 83
1, 9055, Control_c, 0, 64, 85
1, 9070, Control_c, 0, 64, 86
1, 9085, Control_c, 0, 64, 88
1, 9100, Control_c, 0, 64, 89
1, 9114, Control_c, 0, 64, 89
1, 9129, Control_c, 0, 64, 90
1, 9159, Control_c, 0, 64, 90
1, 9161, Note_on_c, 0, 66, 73
1, 9216, Note_off_c, 0, 62, 61
1, 9260, Note_off_c, 0, 66, 66
1, 9286, Note_off_c, 0, 70, 65
1, 9292, Note_on_c, 0, 60, 65
1, 9514, Control_c, 0, 64, 90
1, 9529, Control_c, 0, 64, 87
1, 9541, Note_on_c, 0, 77, 80
1, 9544, Control_c, 0, 64, 81
1, 9547, Note_on_c, 0, 69, 62
1, 9553, Note_on_c, 0, 61, 57
1, 9553, Note_on_c, 0, 65, 65
1, 9559, Control_c, 0, 64, 74
1, 9573, Control_c, 0, 64, 66
1, 9588, Control_c, 0, 64, 51
1, 9603, Control_c, 0, 64, 0
1, 9622, Note_off_c, 0, 60, 57
1, 9908, Control_c, 0, 64, 64
1, 9923, Control_c, 0, 64, 74
1, 9937, Control_c, 0, 64, 81
1, 9952, Control_c, 0, 64, 86
1, 9967, Control_c, 0, 64, 88
1, 9982, Control_c, 0, 64, 89
1, 9996, Control_c, 0, 64, 90
1, 10011, Control_c, 0, 64, 92
1, 10026, Control_c, 0, 64, 93
1, 10041, Control_c, 0, 64, 95
1, 10056, Control_c, 0, 64, 96
1, 10060, Note_on_c, 0, 76, 63
1, 10070, Control_c, 0, 64, 96
1, 10129, Control_c, 0, 64, 97
1, 10136, Note_off_c, 0, 77, 37
1, 10155, Note_off_c, 0, 76, 61
1, 10262, Note_on_c, 0, 76, 76
1, 10286, Note_off_c, 0, 69, 65
1, 10311, Note_off_c, 0, 65, 65
1, 10433, Control_c, 0, 64, 97
1, 10449, Control_c, 0, 64, 98
1, 10464, Control_c, 0, 64, 99
1, 10479, Control_c, 0, 64, 100
1, 10493, Control_c, 0, 64, 101
1, 10561, Note_on_c, 0, 66, 62
1, 10563, Note_on_c, 0, 70, 67
1, 10567, Control_c, 0, 64, 98
1, 10582, Control_c, 0, 64, 91
1, 10597, Control_c, 0, 64, 83
1, 10611, Control_c, 0, 64, 75
1, 10626, Control_c, 0, 64, 70
1, 10641, Control_c, 0, 64, 68
1, 10656, Control_c, 0, 64, 68
1, 10671, Control_c, 0, 64, 71
1, 10686, Note_on_c, 0, 62, 60
1, 10686, Control_c, 0, 64, 76
1, 10701, Control_c, 0, 64, 81
1, 10716, Control_c, 0, 64, 85
1, 10730, Note_off_c, 0, 62, 58
1, 10731, Control_c, 0, 64, 87
1, 10745, Control_c, 0, 64, 90
1, 10746, Note_off_c, 0, 66, 65
1, 10760, Control_c, 0, 64, 93
1, 10775, Control_c, 0, 64, 95
1, 10790, Control_c, 0, 64, 96
1, 10835, Control_c, 0, 64, 94
1, 10844, Note_on_c, 0, 71, 76
1, 10847, Note_on_c, 0, 67, 71
1, 10850, Control_c, 0, 64, 86
1, 10856, Note_on_c, 0, 62, 62
1, 10864, Note_off_c, 0, 70, 29
1, 10865, Control_c, 0, 64, 73
1, 10865, Note_off_c, 0, 76, 62
1, 10880, Control_c, 0, 64, 29
1, 10894, Control_c, 0, 64, 0
1, 10894, Note_off_c, 0, 61, 60
1, 10983, Control_c, 0, 64, 40
1, 10998, Control_c, 0, 64, 66
1, 11012, Control_c, 0, 64, 71
1, 11027, Control_c, 0, 64, 75
1, 11042, Control_c, 0, 64, 80
1, 11057, Control_c, 0, 64, 84
1, 11072, Control_c, 0, 64, 87
1, 11086, Control_c, 0, 64, 90
1, 11101, Control_c, 0, 64, 92
1, 11102, Note_on_c, 0, 77, 79
1, 11116, Control_c, 0, 64, 94
1, 11130, Control_c, 0, 64, 95
1, 11145, Control_c, 0, 64, 97
1, 11168, Control_c, 0, 64, 99
1, 11183, Control_c, 0, 64, 100
1, 11198, Control_c, 0, 64, 102
1, 11212, Control_c, 0, 64, 103
1, 11223, Note_on_c, 0, 76, 80
1, 11227, Control_c, 0, 64, 104
1, 11240, Note_off_c, 0, 71, 62
1, 11243, Control_c, 0, 64, 105
1, 11258, Control_c, 0, 64, 106
1, 11274, Note_off_c, 0, 67, 60
1, 11282, Note_off_c, 0, 77, 59
1, 11288, Control_c, 0, 64, 107
1, 11332, Control_c, 0, 64, 106
1, 11347, Control_c, 0, 64, 103
1, 11362, Control_c, 0, 64, 90
1, 11362, Note_off_c, 0, 62, 60
1, 11369, Note_on_c, 0, 63, 74
1, 11371, Note_on_c, 0, 75, 86
1, 11374, Note_on_c, 0, 70, 79
1, 11376, Control_c, 0, 64, 74
1, 11379, Note_on_c, 0, 66, 75
1, 11391, Control_c, 0, 64, 49
1, 11406, Control_c, 0, 64, 0
1, 11409, Note_off_c, 0, 76, 59
1, 11479, Control_c, 0, 64, 63
1, 11494, Control_c, 0, 64, 75
1, 11508, Control_c, 0, 64, 86
1, 11523, Control_c, 0, 64, 95
1, 11530, Note_off_c, 0, 70, 59
1, 11538, Control_c, 0, 64, 96
1, 11628, Control_c, 0, 64, 97
1, 11636, Note_on_c, 0, 70, 89
1, 11642, Control_c, 0, 64, 98
1, 11643, Note_off_c, 0, 66, 65
1, 11657, Control_c, 0, 64, 99
1, 11672, Control_c, 0, 64, 100
1, 11687, Control_c, 0, 64, 101
1, 11702, Control_c, 0, 64, 101
1, 11716, Control_c, 0, 64, 102
1, 11717, Note_off_c, 0, 70, 62
1, 11731, Control_c, 0, 64, 103
1, 11737, Note_off_c, 0, 75, 56
1, 11746, Control_c, 0, 64, 104
1, 11760, Control_c, 0, 64, 105
1, 11775, Control_c, 0, 64, 107
1, 11790, Control_c, 0, 64, 109
1, 11805, Control_c, 0, 64, 110
1, 11820, Control_c, 0, 64, 110
1, 11878, Control_c, 0, 64, 107
1, 11885, Note_on_c, 0, 81, 96
1, 11890, Note_on_c, 0, 75, 79
1, 11893, Note_on_c, 0, 74, 80
1, 11893, Control_c, 0, 64, 95
1, 11896, Note_on_c, 0, 59, 72
1, 11916, Control_c, 0, 64, 78
1, 11917, Note_off_c, 0, 63, 60
1, 11931, Control_c, 0, 64, 42
1, 11946, Control_c, 0, 64, 0
1, 12051, Control_c, 0, 64, 67
1, 12065, Control_c, 0, 64, 78
1, 12080, Control_c, 0, 64, 89
1, 12095, Control_c, 0, 64, 95
1, 12110, Control_c, 0, 64, 97
1, 12125, Control_c, 0, 64, 98
1, 12139, Control_c, 0, 64, 99
1, 12154, Control_c, 0, 64, 101
1, 12159, Note_on_c, 0, 54, 75
1, 12169, Control_c, 0, 64, 103
1, 12184, Control_c, 0, 64, 104
1, 12198, Control_c, 0, 64, 105
1, 12213, Control_c, 0, 64, 105
1, 12221, Note_off_c, 0, 74, 58
1, 12227, Note_off_c, 0, 59, 59
1, 12228, Control_c, 0, 64, 106
1, 12243, Control_c, 0, 64, 106
1, 12297, Note_on_c, 0, 73, 69
1, 12357, Note_off_c, 0, 73, 62
1, 12451, Note_on_c, 0, 65, 84
1, 12463, Note_on_c, 0, 73, 80
1, 12468, Note_off_c, 0, 81, 57
1, 12498, Note_off_c, 0, 75, 66
1, 12524, Control_c, 0, 64, 107
1, 12554, Control_c, 0, 64, 108
1, 12569, Control_c, 0, 64, 110
1, 12583, Control_c, 0, 64, 113
1, 12593, Note_off_c, 0, 54, 62
1, 12598, Control_c, 0, 64, 116
1, 12613, Control_c, 0, 64, 120
1, 12628, Control_c, 0, 64, 125
1, 12641, Note_off_c, 0, 65, 67
1, 12643, Control_c, 0, 64, 127
1, 12765, Note_on_c, 0, 82, 97
1, 12848, Note_off_c, 0, 73, 42
1, 13066, Control_c, 0, 64, 105
1, 13081, Control_c, 0, 64, 87
1, 13095, Note_on_c, 0, 78, 95
1, 13095, Control_c, 0, 64, 70
1, 13098, Note_on_c, 0, 66, 78
1, 13098, Note_on_c, 0, 70, 80
1, 13110, Control_c, 0, 64, 0
1, 13155, Note_off_c, 0, 82, 58
1, 13214, Control_c, 0, 64, 67
1, 13228, Control_c, 0, 64, 77
1, 13243, Control_c, 0, 64, 88
1, 13258, Control_c, 0, 64, 95
1, 13273, Control_c, 0, 64, 97
1, 13288, Control_c, 0, 64, 98
1, 13303, Control_c, 0, 64, 101
1, 13318, Control_c, 0, 64, 103
1, 13332, Control_c, 0, 64, 105
1, 13347, Control_c, 0, 64, 105
1, 13349, Note_on_c, 0, 74, 90
1, 13362, Control_c, 0, 64, 106
1, 13386, Note_off_c, 0, 66, 63
1, 13389, Note_off_c, 0, 78, 62
1, 13390, Note_off_c, 0, 70, 60
1, 13392, Control_c, 0, 64, 106
1, 13428, Control_c, 0, 64, 107
1, 13465, Note_on_c, 0, 71, 78
1, 13470, Note_on_c, 0, 67, 74
1, 13473, Control_c, 0, 64, 107
1, 13515, Note_off_c, 0, 71, 61
1, 13516, Note_off_c, 0, 67, 59
1, 13547, Control_c, 0, 64, 106
1, 13562, Control_c, 0, 64, 96
1, 13577, Control_c, 0, 64, 79
1, 13580, Note_on_c, 0, 85, 106
1, 13588, Note_on_c, 0, 71, 86
1, 13590, Note_on_c, 0, 67, 82
1, 13592, Control_c, 0, 64, 59
1, 13606, Control_c, 0, 64, 0
1, 13615, Note_on_c, 0, 86, 56
1, 13640, Note_off_c, 0, 74, 59
1, 13667, Control_c, 0, 64, 61
1, 13674, Note_off_c, 0, 86, 0
1, 13674, Note_on_c, 0, 86, 6
1, 13682, Control_c, 0, 64, 72
1, 13697, Control_c, 0, 64, 82
1, 13711, Control_c, 0, 64, 90
1, 13726, Control_c, 0, 64, 92
1, 13741, Control_c, 0, 64, 93
1, 13756, Note_off_c, 0, 86, 34
1, 13756, Control_c, 0, 64, 94
1, 13758, Note_off_c, 0, 67, 62
1, 13771, Control_c, 0, 64, 96
1, 13777, Note_off_c, 0, 71, 62
1, 13786, Control_c, 0, 64, 97
1, 13801, Control_c, 0, 64, 98
1, 13816, Control_c, 0, 64, 100
1, 13826, Note_on_c, 0, 81, 96
1, 13831, Control_c, 0, 64, 101
1, 13845, Note_off_c, 0, 85, 61
1, 13845, Control_c, 0, 64, 105
1, 13860, Control_c, 0, 64, 108
1, 13875, Control_c, 0, 64, 112
1, 13890, Control_c, 0, 64, 114
1, 13904, Control_c, 0, 64, 116
1, 13915, Note_on_c, 0, 68, 80
1, 13919, Note_on_c, 0, 72, 79
1, 13919, Control_c, 0, 64, 119
1, 13934, Control_c, 0, 64, 125
1, 13949, Control_c, 0, 64, 127
1, 13963, Note_off_c, 0, 68, 64
1, 13966, Note_off_c, 0, 72, 65
1, 14008, Control_c, 0, 64, 118
1, 14023, Control_c, 0, 64, 93
1, 14036, Note_on_c, 0, 77, 97
1, 14036, Note_on_c, 0, 68, 88
1, 14036, Note_on_c, 0, 72, 88
1, 14037, Control_c, 0, 64, 73
1, 14052, Control_c, 0, 64, 0
1, 14060, Note_off_c, 0, 81, 55
1, 14097, Control_c, 0, 64, 53
1, 14111, Control_c, 0, 64, 73
1, 14126, Control_c, 0, 64, 89
1, 14141, Control_c, 0, 64, 102
1, 14163, Control_c, 0, 64, 104
1, 14178, Control_c, 0, 64, 105
1, 14193, Control_c, 0, 64, 107
1, 14197, Note_off_c, 0, 68, 62
1, 14203, Note_off_c, 0, 72, 66
1, 14208, Control_c, 0, 64, 110
1, 14223, Control_c, 0, 64, 115
1, 14237, Control_c, 0, 64, 118
1, 14244, Note_off_c, 0, 77, 63
1, 14252, Control_c, 0, 64, 121
1, 14267, Control_c, 0, 64, 124
1, 14270, Note_on_c, 0, 81, 106
1, 14282, Control_c, 0, 64, 127
1, 14320, Note_on_c, 0, 76, 21
1, 14356, Note_off_c, 0, 76, 53
1, 14373, Note_on_c, 0, 73, 84
1, 14375, Note_on_c, 0, 69, 76
1, 14439, Note_off_c, 0, 69, 59
1, 14445, Note_off_c, 0, 73, 58
1, 14475, Control_c, 0, 64, 118
1, 14490, Control_c, 0, 64, 88
1, 14505, Control_c, 0, 64, 39
1, 14515, Note_on_c, 0, 75, 101
1, 14516, Note_on_c, 0, 69, 87
1, 14516, Note_on_c, 0, 73, 91
1, 14519, Note_off_c, 0, 81, 44
1, 14520, Control_c, 0, 64, 0
1, 14564, Control_c, 0, 64, 68
1, 14579, Control_c, 0, 64, 87
1, 14588, Note_off_c, 0, 73, 67
1, 14594, Control_c, 0, 64, 117
1, 14599, Note_off_c, 0, 69, 66
1, 14609, Control_c, 0, 64, 127
1, 14765, Note_on_c, 0, 67, 84
1, 14769, Note_on_c, 0, 71, 90
1, 14773, Note_on_c, 0, 59, 87
1, 14837, Note_off_c, 0, 67, 64
1, 14838, Note_off_c, 0, 71, 56
1, 14864, Note_off_c, 0, 59, 63
1, 14868, Note_on_c, 0, 81, 100
1, 14884, Note_off_c, 0, 75, 63
1, 15001, Control_c, 0, 64, 99
1, 15009, Note_on_c, 0, 69, 97
1, 15009, Note_on_c, 0, 71, 96
1, 15011, Note_on_c, 0, 65, 92
1, 15013, Note_on_c, 0, 57, 94
1, 15014, Note_on_c, 0, 72, 91
1, 15016, Control_c, 0, 64, 76
1, 15031, Control_c, 0, 64, 27
1, 15046, Control_c, 0, 64, 0
1, 15050, Note_off_c, 0, 81, 59
1, 15060, Control_c, 0, 64, 58
1, 15071, Note_off_c, 0, 72, 43
1, 15075, Control_c, 0, 64, 75
1, 15090, Control_c, 0, 64, 97
1, 15099, Note_off_c, 0, 69, 66
1, 15105, Control_c, 0, 64, 121
1, 15106, Note_off_c, 0, 65, 66
1, 15119, Control_c, 0, 64, 126
1, 15126, Note_off_c, 0, 57, 64
1, 15134, Control_c, 0, 64, 127
1, 15149, Control_c, 0, 64, 127
1, 15280, Note_on_c, 0, 67, 100
1, 15285, Note_on_c, 0, 63, 100
1, 15285, Note_on_c, 0, 55, 90
1, 15349, Note_off_c, 0, 67, 59
1, 15358, Note_off_c, 0, 63, 66
1, 15371, Note_off_c, 0, 55, 63
1, 15386, Note_off_c, 0, 71, 58
1, 15390, Note_on_c, 0, 81, 107
1, 15506, Control_c, 0, 64, 113
1, 15521, Control_c, 0, 64, 86
1, 15536, Control_c, 0, 64, 57
1, 15547, Note_on_c, 0, 67, 107
1, 15549, Note_on_c, 0, 65, 98
1, 15551, Control_c, 0, 64, 0
1, 15552, Note_on_c, 0, 53, 95
1, 15552, Note_on_c, 0, 61, 101
1, 15579, Note_on_c, 0, 79, 42
1, 15584, Note_off_c, 0, 81, 34
1, 15595, Control_c, 0, 64, 71
1, 15605, Note_off_c, 0, 79, 35
1, 15610, Control_c, 0, 64, 91
1, 15619, Note_off_c, 0, 65, 64
1, 15625, Control_c, 0, 64, 120
1, 15631, Note_off_c, 0, 53, 65
1, 15640, Control_c, 0, 64, 127
1, 15657, Note_off_c, 0, 61, 65
1, 15863, Note_on_c, 0, 63, 108
1, 15864, Note_on_c, 0, 59, 89
1, 15866, Note_on_c, 0, 51, 94
1, 15928, Note_off_c, 0, 63, 62
1, 15953, Note_off_c, 0, 59, 64
1, 15986, Note_off_c, 0, 51, 60
1, 16194, Control_c, 0, 64, 114
1, 16209, Control_c, 0, 64, 76
1, 16223, Note_on_c, 0, 62, 101
1, 16224, Control_c, 0, 64, 0
1, 16225, Note_on_c, 0, 50, 95
1, 16226, Note_on_c, 0, 58, 98
1, 16227, Note_on_c, 0, 54, 90
1, 16269, Control_c, 0, 64, 70
1, 16273, Note_off_c, 0, 62, 66
1, 16284, Control_c, 0, 64, 126
1, 16293, Note_off_c, 0, 58, 69
1, 16298, Control_c, 0, 64, 127
1, 16314, Note_off_c, 0, 50, 65
1, 16319, Note_off_c, 0, 54, 65
1, 16629, Note_on_c, 0, 40, 102
1, 16631, Note_on_c, 0, 28, 94
1, 16651, Poly_aftertouch_c, 0, 32, 0
1, 16749, Note_off_c, 0, 67, 62
1, 16805, Note_on_c, 0, 68, 102
1, 16959, Note_off_c, 0, 68, 48
1, 17060, Note_on_c, 0, 68, 103
1, 17065, Note_on_c, 0, 57, 87
1, 17066, Note_on_c, 0, 61, 86
1, 17106, Control_c, 0, 64, 115
1, 17121, Control_c, 0, 64, 102
1, 17136, Control_c, 0, 64, 90
1, 17158, Control_c, 0, 64, 79
1, 17173, Control_c, 0, 64, 70
1, 17187, Control_c, 0, 64, 57
1, 17202, Control_c, 0, 64, 14
1, 17217, Control_c, 0, 64, 0
1, 17351, Control_c, 0, 64, 64
1, 17366, Control_c, 0, 64, 73
1, 17380, Control_c, 0, 64, 84
1, 17395, Control_c, 0, 64, 89
1, 17410, Control_c, 0, 64, 90
1, 17426, Control_c, 0, 64, 93
1, 17429, Note_on_c, 0, 64, 92
1, 17440, Control_c, 0, 64, 97
1, 17455, Control_c, 0, 64, 103
1, 17470, Control_c, 0, 64, 107
1, 17470, Note_off_c, 0, 68, 61
1, 17485, Control_c, 0, 64, 109
1, 17499, Control_c, 0, 64, 109
1, 17508, Note_off_c, 0, 61, 62
1, 17514, Control_c, 0, 64, 110
1, 17527, Note_off_c, 0, 64, 64
1, 17529, Control_c, 0, 64, 110
1, 17544, Control_c, 0, 64, 111
1, 17554, Note_off_c, 0, 57, 63
1, 17559, Control_c, 0, 64, 112
1, 17573, Control_c, 0, 64, 112
1, 17618, Control_c, 0, 64, 113
1, 17664, Control_c, 0, 64, 113
1, 17705, Poly_aftertouch_c, 0, 61, 0
1, 17737, Control_c, 0, 64, 113
1, 17749, Note_on_c, 0, 64, 96
1, 17752, Control_c, 0, 64, 109
1, 17755, Note_on_c, 0, 60, 82
1, 17762, Note_on_c, 0, 52, 79
1, 17762, Note_on_c, 0, 56, 68
1, 17767, Control_c, 0, 64, 103
1, 17782, Control_c, 0, 64, 97
1, 17797, Control_c, 0, 64, 89
1, 17811, Control_c, 0, 64, 79
1, 17826, Control_c, 0, 64, 71
1, 17841, Control_c, 0, 64, 64
1, 17856, Control_c, 0, 64, 60
1, 17871, Control_c, 0, 64, 63
1, 17885, Control_c, 0, 64, 66
1, 17908, Control_c, 0, 64, 72
1, 17923, Control_c, 0, 64, 79
1, 17937, Control_c, 0, 64, 83
1, 17952, Control_c, 0, 64, 85
1, 17967, Control_c, 0, 64, 86
1, 17977, Note_off_c, 0, 60, 59
1, 17982, Control_c, 0, 64, 88
1, 17997, Control_c, 0, 64, 90
1, 18011, Control_c, 0, 64, 92
1, 18026, Control_c, 0, 64, 94
1, 18041, Control_c, 0, 64, 95
1, 18056, Control_c, 0, 64, 95
1, 18071, Control_c, 0, 64, 96
1, 18079, Note_on_c, 0, 60, 89
1, 18085, Control_c, 0, 64, 96
1, 18115, Control_c, 0, 64, 97
1, 18123, Note_off_c, 0, 64, 60
1, 18144, Control_c, 0, 64, 97
1, 18159, Control_c, 0, 64, 98
1, 18171, Note_off_c, 0, 52, 63
1, 18189, Control_c, 0, 64, 98
1, 18233, Control_c, 0, 64, 99
1, 18272, Note_off_c, 0, 56, 60
1, 18396, Note_off_c, 0, 60, 59
1, 18426, Control_c, 0, 64, 98
1, 18436, Note_off_c, 0, 28, 59
1, 18441, Control_c, 0, 64, 96
1, 18445, Note_off_c, 0, 40, 59
1, 18447, Note_on_c, 0, 63, 91
1, 18452, Note_on_c, 0, 59, 71
1, 18456, Control_c, 0, 64, 91
1, 18457, Note_on_c, 0, 55, 71
1, 18471, Control_c, 0, 64, 86
1, 18486, Control_c, 0, 64, 79
1, 18500, Control_c, 0, 64, 73
1, 18515, Control_c, 0, 64, 68
1, 18530, Control_c, 0, 64, 63
1, 18544, Control_c, 0, 64, 58
1, 18559, Control_c, 0, 64, 54
1, 18574, Control_c, 0, 64, 49
1, 18589, Control_c, 0, 64, 44
1, 18604, Control_c, 0, 64, 31
1, 18618, Control_c, 0, 64, 0
1, 18830, Note_on_c, 0, 33, 69
1, 18967, Control_c, 0, 64, 45
1, 18982, Control_c, 0, 64, 63
1, 18984, Note_on_c, 0, 62, 72
1, 18997, Control_c, 0, 64, 70
1, 19008, Note_off_c, 0, 59, 55
1, 19011, Control_c, 0, 64, 74
1, 19026, Control_c, 0, 64, 78
1, 19026, Note_off_c, 0, 55, 63
1, 19041, Control_c, 0, 64, 80
1, 19056, Control_c, 0, 64, 82
1, 19065, Note_off_c, 0, 63, 54
1, 19070, Control_c, 0, 64, 85
1, 19085, Control_c, 0, 64, 87
1, 19100, Control_c, 0, 64, 90
1, 19115, Control_c, 0, 64, 91
1, 19130, Control_c, 0, 64, 91
1, 19140, Note_off_c, 0, 62, 59
1, 19189, Control_c, 0, 64, 91
1, 19204, Control_c, 0, 64, 88
1, 19220, Control_c, 0, 64, 83
1, 19224, Note_on_c, 0, 62, 75
1, 19235, Control_c, 0, 64, 76
1, 19237, Note_on_c, 0, 54, 59
1, 19238, Note_on_c, 0, 58, 52
1, 19249, Control_c, 0, 64, 67
1, 19264, Control_c, 0, 64, 53
1, 19279, Control_c, 0, 64, 26
1, 19293, Control_c, 0, 64, 0
1, 19449, Control_c, 0, 64, 49
1, 19464, Control_c, 0, 64, 61
1, 19479, Control_c, 0, 64, 64
1, 19494, Control_c, 0, 64, 66
1, 19508, Control_c, 0, 64, 67
1, 19523, Control_c, 0, 64, 70
1, 19538, Control_c, 0, 64, 73
1, 19553, Control_c, 0, 64, 76
1, 19568, Control_c, 0, 64, 79
1, 19582, Control_c, 0, 64, 81
1, 19593, Note_on_c, 0, 61, 67
1, 19597, Control_c, 0, 64, 82
1, 19598, Note_off_c, 0, 62, 60
1, 19627, Control_c, 0, 64, 82
1, 19642, Control_c, 0, 64, 81
1, 19656, Control_c, 0, 64, 76
1, 19671, Control_c, 0, 64, 67
1, 19686, Control_c, 0, 64, 57
1, 19700, Control_c, 0, 64, 46
1, 19715, Control_c, 0, 64, 53
1, 19730, Control_c, 0, 64, 63
1, 19745, Control_c, 0, 64, 69
1, 19760, Control_c, 0, 64, 75
1, 19774, Note_off_c, 0, 58, 64
1, 19775, Control_c, 0, 64, 82
1, 19789, Control_c, 0, 64, 84
1, 19824, Note_off_c, 0, 54, 60
1, 19834, Control_c, 0, 64, 84
1, 19864, Control_c, 0, 64, 85
1, 19923, Control_c, 0, 64, 84
1, 19938, Control_c, 0, 64, 80
1, 19953, Control_c, 0, 64, 72
1, 19967, Control_c, 0, 64, 63
1, 19975, Note_on_c, 0, 57, 51
1, 19977, Note_on_c, 0, 53, 52
1, 19982, Control_c, 0, 64, 34
1, 19997, Control_c, 0, 64, 0
1, 20102, Control_c, 0, 64, 55
1, 20116, Control_c, 0, 64, 65
1, 20131, Control_c, 0, 64, 69
1, 20153, Control_c, 0, 64, 74
1, 20168, Control_c, 0, 64, 77
1, 20183, Control_c, 0, 64, 80
1, 20198, Control_c, 0, 64, 83
1, 20208, Note_off_c, 0, 53, 66
1, 20213, Control_c, 0, 64, 85
1, 20228, Control_c, 0, 64, 87
1, 20243, Control_c, 0, 64, 88
1, 20257, Control_c, 0, 64, 89
1, 20272, Control_c, 0, 64, 89
1, 20287, Control_c, 0, 64, 90
1, 20302, Control_c, 0, 64, 90
1, 20317, Control_c, 0, 64, 91
1, 20376, Control_c, 0, 64, 89
1, 20391, Control_c, 0, 64, 84
1, 20405, Note_on_c, 0, 54, 54
1, 20405, Control_c, 0, 64, 77
1, 20421, Control_c, 0, 64, 69
1, 20436, Control_c, 0, 64, 60
1, 20451, Control_c, 0, 64, 53
1, 20466, Control_c, 0, 64, 56
1, 20480, Control_c, 0, 64, 62
1, 20495, Control_c, 0, 64, 66
1, 20510, Control_c, 0, 64, 70
1, 20521, Note_off_c, 0, 33, 65
1, 20524, Control_c, 0, 64, 75
1, 20539, Control_c, 0, 64, 79
1, 20554, Control_c, 0, 64, 81
1, 20569, Control_c, 0, 64, 82
1, 20584, Control_c, 0, 64, 83
1, 20598, Control_c, 0, 64, 84
1, 20613, Control_c, 0, 64, 84
1, 20628, Control_c, 0, 64, 85
1, 20664, Note_on_c, 0, 60, 60
1, 20714, Note_off_c, 0, 61, 55
1, 20747, Note_off_c, 0, 54, 57
1, 20992, Control_c, 0, 64, 85
1, 21007, Control_c, 0, 64, 84
1, 21021, Control_c, 0, 64, 82
1, 21036, Control_c, 0, 64, 79
1, 21044, Note_on_c, 0, 51, 56
1, 21051, Control_c, 0, 64, 74
1, 21056, Note_on_c, 0, 55, 48
1, 21066, Control_c, 0, 64, 69
1, 21081, Control_c, 0, 64, 65
1, 21084, Note_off_c, 0, 57, 55
1, 21095, Control_c, 0, 64, 63
1, 21110, Control_c, 0, 64, 63
1, 21140, Control_c, 0, 64, 62
1, 21155, Control_c, 0, 64, 61
1, 21170, Control_c, 0, 64, 59
1, 21184, Control_c, 0, 64, 58
1, 21273, Control_c, 0, 64, 59
1, 21347, Control_c, 0, 64, 59
1, 21436, Control_c, 0, 64, 60
1, 21465, Control_c, 0, 64, 60
1, 21494, Note_on_c, 0, 45, 43
1, 21495, Control_c, 0, 64, 61
1, 21516, Note_off_c, 0, 51, 54
1, 21525, Control_c, 0, 64, 61
1, 21540, Control_c, 0, 64, 62
1, 21554, Control_c, 0, 64, 63
1, 21569, Control_c, 0, 64, 63
1, 21584, Control_c, 0, 64, 64
1, 21599, Control_c, 0, 64, 64
1, 21702, Note_on_c, 0, 50, 42
1, 21831, Note_off_c, 0, 50, 57
1, 21933, Note_on_c, 0, 50, 38
1, 22110, Control_c, 0, 64, 64
1, 22493, Note_on_c, 0, 49, 36
1, 22538, Note_off_c, 0, 50, 48
1, 22637, Control_c, 0, 64, 64
1, 22762, Note_on_c, 0, 53, 40
1, 22785, Control_c, 0, 64, 64
1, 22788, Note_off_c, 0, 55, 61
1, 22800, Control_c, 0, 64, 63
1, 22830, Control_c, 0, 64, 63
1, 22860, Control_c, 0, 64, 62
1, 22874, Control_c, 0, 64, 63
1, 22889, Control_c, 0, 64, 63
1, 22904, Control_c, 0, 64, 64
1, 22918, Control_c, 0, 64, 66
1, 22933, Control_c, 0, 64, 69
1, 22948, Control_c, 0, 64, 71
1, 22963, Control_c, 0, 64, 74
1, 22978, Control_c, 0, 64, 77
1, 22992, Control_c, 0, 64, 79
1, 23007, Control_c, 0, 64, 80
1, 23022, Control_c, 0, 64, 82
1, 23037, Control_c, 0, 64, 82
1, 23052, Control_c, 0, 64, 83
1, 23110, Control_c, 0, 64, 82
1, 23125, Control_c, 0, 64, 79
1, 23148, Control_c, 0, 64, 74
1, 23163, Control_c, 0, 64, 68
1, 23170, Note_off_c, 0, 49, 45
1, 23178, Control_c, 0, 64, 63
1, 23185, Note_on_c, 0, 48, 37
1, 23192, Control_c, 0, 64, 58
1, 23223, Control_c, 0, 64, 60
1, 23238, Control_c, 0, 64, 61
1, 23253, Control_c, 0, 64, 63
1, 23268, Control_c, 0, 64, 64
1, 23283, Control_c, 0, 64, 67
1, 23297, Control_c, 0, 64, 70
1, 23312, Control_c, 0, 64, 74
1, 23327, Control_c, 0, 64, 77
1, 23341, Control_c, 0, 64, 78
1, 23347, Note_off_c, 0, 45, 54
1, 23356, Control_c, 0, 64, 79
1, 23371, Control_c, 0, 64, 80
1, 23386, Control_c, 0, 64, 81
1, 23401, Control_c, 0, 64, 82
1, 23407, Note_on_c, 0, 54, 48
1, 23417, Control_c, 0, 64, 83
1, 23431, Control_c, 0, 64, 84
1, 23444, Note_off_c, 0, 53, 36
1, 23446, Control_c, 0, 64, 84
1, 23450, Note_off_c, 0, 48, 41
1, 23475, Control_c, 0, 64, 85
1, 23505, Control_c, 0, 64, 86
1, 23520, Control_c, 0, 64, 87
1, 23535, Control_c, 0, 64, 87
1, 23548, Note_off_c, 0, 54, 60
1, 23549, Control_c, 0, 64, 88
1, 23579, Control_c, 0, 64, 88
1, 23623, Control_c, 0, 64, 88
1, 23638, Control_c, 0, 64, 87
1, 23653, Control_c, 0, 64, 83
1, 23668, Control_c, 0, 64, 77
1, 23682, Control_c, 0, 64, 69
1, 23688, Note_on_c, 0, 54, 54
1, 23689, Note_on_c, 0, 48, 37
1, 23694, Note_on_c, 0, 38, 41
1, 23696, Note_on_c, 0, 45, 32
1, 23697, Control_c, 0, 64, 61
1, 23712, Control_c, 0, 64, 43
1, 23727, Control_c, 0, 64, 26
1, 23742, Control_c, 0, 64, 20
1, 23757, Control_c, 0, 64, 27
1, 23772, Control_c, 0, 64, 34
1, 23787, Control_c, 0, 64, 41
1, 23802, Control_c, 0, 64, 51
1, 23816, Control_c, 0, 64, 60
1, 23831, Control_c, 0, 64, 64
1, 23846, Control_c, 0, 64, 68
1, 23860, Control_c, 0, 64, 71
1, 23875, Control_c, 0, 64, 75
1, 23897, Control_c, 0, 64, 78
1, 23912, Control_c, 0, 64, 80
1, 23927, Control_c, 0, 64, 82
1, 23942, Control_c, 0, 64, 83
1, 23952, Note_off_c, 0, 60, 60
1, 23957, Control_c, 0, 64, 85
1, 23972, Control_c, 0, 64, 86
1, 23987, Note_on_c, 0, 57, 52
1, 23987, Control_c, 0, 64, 88
1, 24001, Control_c, 0, 64, 88
1, 24017, Control_c, 0, 64, 89
1, 24032, Control_c, 0, 64, 90
1, 24046, Control_c, 0, 64, 90
1, 24061, Control_c, 0, 64, 91
1, 24076, Control_c, 0, 64, 91
1, 24106, Control_c, 0, 64, 92
1, 24127, Note_off_c, 0, 54, 56
1, 24180, Control_c, 0, 64, 92
1, 24240, Note_on_c, 0, 64, 52
1, 24263, Note_off_c, 0, 57, 55
1, 24311, Note_off_c, 0, 48, 44
1, 24398, Note_off_c, 0, 64, 63
1, 24401, Note_off_c, 0, 38, 40
1, 24403, Note_on_c, 0, 60, 61
1, 24444, Note_off_c, 0, 45, 50
1, 24568, Note_on_c, 0, 68, 64
1, 24605, Note_off_c, 0, 60, 54
1, 24750, Control_c, 0, 64, 91
1, 24765, Control_c, 0, 64, 87
1, 24768, Note_on_c, 0, 74, 65
1, 24778, Note_on_c, 0, 71, 54
1, 24779, Control_c, 0, 64, 79
1, 24788, Note_off_c, 0, 68, 35
1, 24789, Note_on_c, 0, 66, 38
1, 24792, Note_on_c, 0, 62, 44
1, 24794, Control_c, 0, 64, 70
1, 24809, Control_c, 0, 64, 60
1, 24825, Control_c, 0, 64, 0
1, 24829, Note_off_c, 0, 66, 0
1, 24829, Note_on_c, 0, 66, 7
1, 24943, Control_c, 0, 64, 53
1, 24953, Note_on_c, 0, 32, 51
1, 24958, Control_c, 0, 64, 67
1, 24973, Control_c, 0, 64, 74
1, 24988, Control_c, 0, 64, 80
1, 24989, Note_off_c, 0, 66, 55
1, 25003, Control_c, 0, 64, 83
1, 25018, Control_c, 0, 64, 85
1, 25030, Note_off_c, 0, 62, 58
1, 25033, Control_c, 0, 64, 86
1, 25048, Control_c, 0, 64, 87
1, 25062, Control_c, 0, 64, 87
1, 25077, Control_c, 0, 64, 88
1, 25098, Note_on_c, 0, 35, 55
1, 25107, Control_c, 0, 64, 88
1, 25150, Note_off_c, 0, 32, 41
1, 25184, Note_off_c, 0, 74, 36
1, 25208, Note_off_c, 0, 35, 61
1, 25216, Note_off_c, 0, 71, 31
1, 25221, Note_on_c, 0, 70, 62
1, 25230, Note_on_c, 0, 64, 52
1, 25234, Note_on_c, 0, 42, 57
1, 25235, Note_on_c, 0, 60, 44
1, 25277, Note_off_c, 0, 42, 65
1, 25376, Note_on_c, 0, 38, 60
1, 25392, Note_off_c, 0, 70, 63
1, 25396, Note_off_c, 0, 64, 64
1, 25454, Note_off_c, 0, 60, 62
1, 25525, Note_on_c, 0, 46, 70
1, 25587, Note_off_c, 0, 38, 51
1, 25678, Control_c, 0, 64, 87
1, 25692, Control_c, 0, 64, 85
1, 25707, Control_c, 0, 64, 79
1, 25722, Control_c, 0, 64, 72
1, 25723, Note_on_c, 0, 63, 62
1, 25724, Note_on_c, 0, 52, 61
1, 25724, Note_on_c, 0, 59, 52
1, 25736, Note_on_c, 0, 55, 45
1, 25736, Control_c, 0, 64, 64
1, 25751, Control_c, 0, 64, 44
1, 25762, Note_off_c, 0, 46, 63
1, 25766, Control_c, 0, 64, 0
1, 25930, Control_c, 0, 64, 31
1, 25944, Control_c, 0, 64, 65
1, 25957, Note_off_c, 0, 59, 63
1, 25959, Control_c, 0, 64, 69
1, 25974, Control_c, 0, 64, 73
1, 25989, Control_c, 0, 64, 77
1, 25998, Note_off_c, 0, 63, 64
1, 26004, Control_c, 0, 64, 79
1, 26018, Control_c, 0, 64, 80
1, 26033, Control_c, 0, 64, 81
1, 26048, Control_c, 0, 64, 82
1, 26062, Control_c, 0, 64, 83
1, 26077, Control_c, 0, 64, 84
1, 26092, Control_c, 0, 64, 84
1, 26107, Control_c, 0, 64, 85
1, 26189, Control_c, 0, 64, 83
1, 26204, Control_c, 0, 64, 78
1, 26218, Control_c, 0, 64, 71
1, 26225, Note_on_c, 0, 67, 49
1, 26232, Note_on_c, 0, 62, 47
1, 26233, Control_c, 0, 64, 62
1, 26241, Note_on_c, 0, 48, 46
1, 26241, Note_on_c, 0, 58, 42
1, 26248, Control_c, 0, 64, 0
1, 26266, Note_off_c, 0, 52, 64
1, 26288, Note_off_c, 0, 55, 43
1, 26410, Control_c, 0, 64, 20
1, 26426, Control_c, 0, 64, 64
1, 26440, Control_c, 0, 64, 69
1, 26455, Control_c, 0, 64, 73
1, 26470, Control_c, 0, 64, 76
1, 26485, Control_c, 0, 64, 79
1, 26486, Note_off_c, 0, 67, 59
1, 26499, Control_c, 0, 64, 81
1, 26514, Control_c, 0, 64, 82
1, 26522, Note_off_c, 0, 58, 60
1, 26524, Note_off_c, 0, 62, 59
1, 26529, Control_c, 0, 64, 83
1, 26544, Control_c, 0, 64, 84
1, 26559, Control_c, 0, 64, 85
1, 26574, Control_c, 0, 64, 85
1, 26589, Control_c, 0, 64, 86
1, 26604, Control_c, 0, 64, 87
1, 26619, Control_c, 0, 64, 88
1, 26633, Control_c, 0, 64, 88
1, 26707, Control_c, 0, 64, 85
1, 26722, Control_c, 0, 64, 79
1, 26737, Control_c, 0, 64, 70
1, 26747, Note_on_c, 0, 58, 49
1, 26752, Control_c, 0, 64, 50
1, 26756, Note_on_c, 0, 41, 39
1, 26758, Note_on_c, 0, 54, 42
1, 26766, Control_c, 0, 64, 0
1, 26774, Note_off_c, 0, 48, 42
1, 26855, Control_c, 0, 64, 55
1, 26870, Control_c, 0, 64, 66
1, 26892, Control_c, 0, 64, 72
1, 26907, Control_c, 0, 64, 77
1, 26922, Control_c, 0, 64, 82
1, 26937, Control_c, 0, 64, 85
1, 26952, Control_c, 0, 64, 86
1, 26966, Control_c, 0, 64, 87
1, 26980, Note_off_c, 0, 54, 55
1, 26981, Control_c, 0, 64, 88
1, 26996, Control_c, 0, 64, 89
1, 27011, Control_c, 0, 64, 89
1, 27030, Note_off_c, 0, 58, 58
1, 27084, Note_off_c, 0, 41, 50
1, 27189, Note_on_c, 0, 59, 46
1, 27197, Note_on_c, 0, 55, 46
1, 27264, Control_c, 0, 64, 90
1, 27293, Note_off_c, 0, 59, 56
1, 27294, Control_c, 0, 64, 90
1, 27309, Note_off_c, 0, 55, 53
1, 27323, Control_c, 0, 64, 91
1, 27397, Control_c, 0, 64, 90
1, 27412, Control_c, 0, 64, 87
1, 27427, Control_c, 0, 64, 80
1, 27442, Control_c, 0, 64, 71
1, 27451, Note_on_c, 0, 59, 35
1, 27452, Note_on_c, 0, 45, 38
1, 27453, Note_on_c, 0, 39, 36
1, 27456, Control_c, 0, 64, 62
1, 27461, Note_on_c, 0, 49, 33
1, 27461, Note_on_c, 0, 55, 42
1, 27471, Control_c, 0, 64, 34
1, 27486, Control_c, 0, 64, 0
1, 27605, Control_c, 0, 64, 62
1, 27620, Control_c, 0, 64, 69
1, 27641, Control_c, 0, 64, 73
1, 27656, Control_c, 0, 64, 76
1, 27671, Control_c, 0, 64, 79
1, 27686, Control_c, 0, 64, 81
1, 27701, Control_c, 0, 64, 84
1, 27716, Control_c, 0, 64, 86
1, 27731, Control_c, 0, 64, 88
1, 27741, Note_off_c, 0, 39, 51
1, 27741, Note_off_c, 0, 59, 52
1, 27743, Note_off_c, 0, 55, 42
1, 27745, Control_c, 0, 64, 89
1, 27760, Control_c, 0, 64, 90
1, 27775, Control_c, 0, 64, 91
1, 27790, Control_c, 0, 64, 93
1, 27805, Control_c, 0, 64, 94
1, 27820, Control_c, 0, 64, 96
1, 27826, Note_off_c, 0, 49, 41
1, 27834, Control_c, 0, 64, 96
1, 27849, Control_c, 0, 64, 97
1, 27864, Control_c, 0, 64, 99
1, 27879, Control_c, 0, 64, 100
1, 27894, Control_c, 0, 64, 101
1, 27907, Control_c, 0, 64, 101
1, 27922, Control_c, 0, 64, 102
1, 27996, Control_c, 0, 64, 101
1, 28012, Control_c, 0, 64, 98
1, 28027, Control_c, 0, 64, 92
1, 28042, Control_c, 0, 64, 83
1, 28054, Note_on_c, 0, 60, 59
1, 28057, Control_c, 0, 64, 72
1, 28058, Note_on_c, 0, 40, 49
1, 28064, Note_on_c, 0, 56, 51
1, 28067, Note_on_c, 0, 50, 39
1, 28072, Control_c, 0, 64, 62
1, 28086, Control_c, 0, 64, 0
1, 28104, Note_off_c, 0, 45, 46
1, 28205, Control_c, 0, 64, 44
1, 28219, Control_c, 0, 64, 65
1, 28234, Control_c, 0, 64, 70
1, 28249, Control_c, 0, 64, 75
1, 28264, Control_c, 0, 64, 80
1, 28279, Control_c, 0, 64, 85
1, 28294, Control_c, 0, 64, 89
1, 28309, Control_c, 0, 64, 93
1, 28324, Control_c, 0, 64, 95
1, 28338, Control_c, 0, 64, 98
1, 28353, Control_c, 0, 64, 100
1, 28368, Control_c, 0, 64, 103
1, 28390, Control_c, 0, 64, 106
1, 28400, Note_off_c, 0, 50, 51
1, 28405, Control_c, 0, 64, 109
1, 28419, Control_c, 0, 64, 112
1, 28434, Control_c, 0, 64, 114
1, 28449, Control_c, 0, 64, 115
1, 28464, Control_c, 0, 64, 117
1, 28479, Control_c, 0, 64, 118
1, 28493, Note_on_c, 0, 61, 66
1, 28494, Control_c, 0, 64, 120
1, 28496, Note_off_c, 0, 56, 60
1, 28509, Control_c, 0, 64, 121
1, 28523, Control_c, 0, 64, 122
1, 28538, Control_c, 0, 64, 125
1, 28553, Control_c, 0, 64, 126
1, 28560, Note_off_c, 0, 60, 61
1, 28568, Control_c, 0, 64, 127
1, 28586, Note_off_c, 0, 61, 63
1, 28700, Control_c, 0, 64, 127
1, 28715, Control_c, 0, 64, 115
1, 28729, Control_c, 0, 64, 104
1, 28742, Note_on_c, 0, 55, 63
1, 28744, Note_on_c, 0, 61, 68
1, 28744, Control_c, 0, 64, 91
1, 28758, Note_on_c, 0, 45, 53
1, 28759, Control_c, 0, 64, 76
1, 28762, Note_on_c, 0, 52, 50
1, 28774, Control_c, 0, 64, 63
1, 28789, Control_c, 0, 64, 0
1, 28878, Note_off_c, 0, 40, 43
1, 28938, Control_c, 0, 64, 56
1, 28953, Control_c, 0, 64, 67
1, 28968, Control_c, 0, 64, 72
1, 28983, Control_c, 0, 64, 76
1, 28997, Control_c, 0, 64, 79
1, 29012, Control_c, 0, 64, 83
1, 29027, Control_c, 0, 64, 85
1, 29042, Control_c, 0, 64, 88
1, 29057, Control_c, 0, 64, 91
1, 29072, Control_c, 0, 64, 93
1, 29086, Control_c, 0, 64, 94
1, 29090, Note_on_c, 0, 64, 66
1, 29099, Note_off_c, 0, 55, 63
1, 29101, Control_c, 0, 64, 97
1, 29116, Control_c, 0, 64, 99
1, 29138, Control_c, 0, 64, 101
1, 29153, Control_c, 0, 64, 104
1, 29167, Control_c, 0, 64, 106
1, 29182, Control_c, 0, 64, 108
1, 29197, Control_c, 0, 64, 110
1, 29212, Control_c, 0, 64, 113
1, 29227, Control_c, 0, 64, 116
1, 29242, Control_c, 0, 64, 118
1, 29257, Control_c, 0, 64, 120
1, 29272, Control_c, 0, 64, 122
1, 29286, Control_c, 0, 64, 124
1, 29301, Control_c, 0, 64, 127
1, 29316, Control_c, 0, 64, 127
1, 29333, Note_off_c, 0, 61, 62
1, 29347, Note_on_c, 0, 71, 74
1, 29367, Note_off_c, 0, 64, 63
1, 29427, Note_off_c, 0, 45, 59
1, 29432, Note_off_c, 0, 52, 63
1, 29510, Note_off_c, 0, 71, 60
1, 29526, Note_on_c, 0, 67, 78
1, 29697, Note_on_c, 0, 75, 78
1, 29720, Note_off_c, 0, 67, 57
1, 29850, Control_c, 0, 64, 126
1, 29865, Control_c, 0, 64, 113
1, 29882, Note_on_c, 0, 83, 83
1, 29887, Control_c, 0, 64, 102
1, 29888, Note_on_c, 0, 77, 74
1, 29895, Note_on_c, 0, 53, 64
1, 29895, Note_on_c, 0, 71, 67
1, 29897, Note_on_c, 0, 44, 63
1, 29899, Note_on_c, 0, 50, 60
1, 29902, Control_c, 0, 64, 90
1, 29904, Note_off_c, 0, 75, 62
1, 29916, Control_c, 0, 64, 75
1, 29931, Control_c, 0, 64, 63
1, 29946, Control_c, 0, 64, 0
1, 30065, Control_c, 0, 64, 63
1, 30080, Control_c, 0, 64, 72
1, 30094, Control_c, 0, 64, 82
1, 30109, Control_c, 0, 64, 88
1, 30124, Control_c, 0, 64, 90
1, 30129, Note_off_c, 0, 53, 65
1, 30139, Note_off_c, 0, 50, 65
1, 30139, Control_c, 0, 64, 91
1, 30154, Control_c, 0, 64, 92
1, 30169, Control_c, 0, 64, 93
1, 30175, Note_off_c, 0, 83, 55
1, 30184, Control_c, 0, 64, 94
1, 30199, Control_c, 0, 64, 95
1, 30214, Control_c, 0, 64, 96
1, 30228, Control_c, 0, 64, 98
1, 30243, Control_c, 0, 64, 101
1, 30250, Note_off_c, 0, 71, 57
1, 30258, Control_c, 0, 64, 104
1, 30273, Control_c, 0, 64, 107
1, 30288, Control_c, 0, 64, 108
1, 30303, Control_c, 0, 64, 109
1, 30377, Control_c, 0, 64, 104
1, 30391, Control_c, 0, 64, 90
1, 30399, Note_on_c, 0, 53, 66
1, 30400, Note_on_c, 0, 74, 68
1, 30407, Note_on_c, 0, 56, 58
1, 30407, Control_c, 0, 64, 74
1, 30413, Note_on_c, 0, 46, 68
1, 30422, Control_c, 0, 64, 39
1, 30430, Note_off_c, 0, 44, 60
1, 30437, Control_c, 0, 64, 0
1, 30467, Note_off_c, 0, 77, 54
1, 30525, Control_c, 0, 64, 52
1, 30540, Control_c, 0, 64, 65
1, 30554, Note_on_c, 0, 70, 76
1, 30555, Control_c, 0, 64, 72
1, 30570, Control_c, 0, 64, 80
1, 30585, Control_c, 0, 64, 90
1, 30599, Control_c, 0, 64, 96
1, 30614, Control_c, 0, 64, 98
1, 30637, Control_c, 0, 64, 101
1, 30652, Control_c, 0, 64, 105
1, 30653, Note_off_c, 0, 53, 64
1, 30659, Note_off_c, 0, 46, 56
1, 30666, Control_c, 0, 64, 110
1, 30681, Control_c, 0, 64, 115
1, 30685, Note_off_c, 0, 56, 63
1, 30696, Control_c, 0, 64, 119
1, 30705, Note_on_c, 0, 78, 83
1, 30711, Control_c, 0, 64, 122
1, 30726, Control_c, 0, 64, 127
1, 30734, Note_off_c, 0, 70, 62
1, 30740, Control_c, 0, 64, 127
1, 30746, Note_off_c, 0, 74, 65
1, 30858, Control_c, 0, 64, 108
1, 30872, Note_on_c, 0, 81, 85
1, 30873, Control_c, 0, 64, 89
1, 30874, Note_on_c, 0, 69, 67
1, 30881, Note_on_c, 0, 53, 60
1, 30884, Note_off_c, 0, 78, 61
1, 30885, Note_on_c, 0, 73, 68
1, 30887, Note_on_c, 0, 47, 56
1, 30888, Control_c, 0, 64, 72
1, 30903, Control_c, 0, 64, 34
1, 30918, Control_c, 0, 64, 0
1, 31021, Control_c, 0, 64, 65
1, 31036, Control_c, 0, 64, 74
1, 31042, Note_on_c, 0, 49, 66
1, 31048, Note_off_c, 0, 81, 62
1, 31051, Control_c, 0, 64, 84
1, 31066, Control_c, 0, 64, 90
1, 31070, Note_off_c, 0, 53, 62
1, 31081, Control_c, 0, 64, 93
1, 31090, Note_off_c, 0, 73, 64
1, 31096, Control_c, 0, 64, 96
1, 31111, Control_c, 0, 64, 99
1, 31126, Control_c, 0, 64, 103
1, 31140, Control_c, 0, 64, 106
1, 31155, Control_c, 0, 64, 109
1, 31167, Note_off_c, 0, 47, 56
1, 31170, Control_c, 0, 64, 111
1, 31179, Note_on_c, 0, 57, 65
1, 31185, Control_c, 0, 64, 113
1, 31190, Note_off_c, 0, 49, 57
1, 31200, Control_c, 0, 64, 116
1, 31215, Note_off_c, 0, 57, 63
1, 31215, Control_c, 0, 64, 119
1, 31230, Control_c, 0, 64, 121
1, 31245, Control_c, 0, 64, 122
1, 31304, Control_c, 0, 64, 121
1, 31319, Control_c, 0, 64, 113
1, 31334, Control_c, 0, 64, 100
1, 31343, Note_on_c, 0, 80, 80
1, 31346, Note_on_c, 0, 70, 66
1, 31347, Note_on_c, 0, 48, 65
1, 31348, Control_c, 0, 64, 81
1, 31359, Note_on_c, 0, 63, 64
1, 31363, Control_c, 0, 64, 65
1, 31385, Note_off_c, 0, 69, 57
1, 31385, Control_c, 0, 64, 0
1, 31460, Control_c, 0, 64, 46
1, 31475, Control_c, 0, 64, 67
1, 31489, Control_c, 0, 64, 74
1, 31504, Control_c, 0, 64, 83
1, 31519, Control_c, 0, 64, 89
1, 31534, Control_c, 0, 64, 93
1, 31549, Control_c, 0, 64, 94
1, 31552, Note_off_c, 0, 63, 61
1, 31555, Note_on_c, 0, 66, 62
1, 31563, Control_c, 0, 64, 95
1, 31578, Control_c, 0, 64, 96
1, 31593, Control_c, 0, 64, 97
1, 31598, Poly_aftertouch_c, 0, 78, 127
1, 31602, Note_off_c, 0, 70, 59
1, 31608, Control_c, 0, 64, 98
1, 31611, Note_off_c, 0, 48, 57
1, 31623, Control_c, 0, 64, 98
1, 31650, Note_off_c, 0, 80, 60
1, 31652, Control_c, 0, 64, 99
1, 31665, Poly_aftertouch_c, 0, 78, 0
1, 31752, Note_on_c, 0, 73, 58
1, 31767, Note_off_c, 0, 66, 66
1, 31963, Control_c, 0, 64, 98
1, 31978, Control_c, 0, 64, 96
1, 31993, Control_c, 0, 64, 89
1, 32008, Control_c, 0, 64, 77
1, 32010, Note_on_c, 0, 79, 60
1, 32014, Note_on_c, 0, 75, 43
1, 32020, Note_on_c, 0, 59, 37
1, 32023, Control_c, 0, 64, 66
1, 32025, Note_on_c, 0, 55, 31
1, 32038, Control_c, 0, 64, 22
1, 32045, Note_on_c, 0, 49, 20
1, 32053, Control_c, 0, 64, 0
1, 32089, Note_off_c, 0, 73, 34
1, 32253, Control_c, 0, 64, 64
1, 32267, Control_c, 0, 64, 68
1, 32282, Control_c, 0, 64, 71
1, 32297, Control_c, 0, 64, 76
1, 32312, Control_c, 0, 64, 81
1, 32327, Control_c, 0, 64, 87
1, 32342, Control_c, 0, 64, 89
1, 32357, Control_c, 0, 64, 90
1, 32357, Note_off_c, 0, 59, 51
1, 32357, Note_off_c, 0, 79, 61
1, 32372, Control_c, 0, 64, 90
1, 32386, Control_c, 0, 64, 91
1, 32400, Control_c, 0, 64, 93
1, 32409, Note_off_c, 0, 75, 63
1, 32415, Control_c, 0, 64, 95
1, 32422, Note_off_c, 0, 55, 41
1, 32429, Control_c, 0, 64, 96
1, 32444, Control_c, 0, 64, 97
1, 32473, Note_off_c, 0, 49, 38
1, 32592, Control_c, 0, 64, 96
1, 32607, Control_c, 0, 64, 96
1, 32622, Control_c, 0, 64, 95
1, 32637, Control_c, 0, 64, 94
1, 32652, Control_c, 0, 64, 92
1, 32667, Control_c, 0, 64, 90
1, 32682, Control_c, 0, 64, 87
1, 32697, Control_c, 0, 64, 84
1, 32711, Control_c, 0, 64, 81
1, 32726, Control_c, 0, 64, 77
1, 32741, Control_c, 0, 64, 72
1, 32756, Control_c, 0, 64, 66
1, 32771, Control_c, 0, 64, 59
1, 32784, Note_on_c, 0, 56, 65
1, 32785, Control_c, 0, 64, 54
1, 32801, Control_c, 0, 64, 50
1, 32805, Note_on_c, 0, 50, 45
1, 32816, Control_c, 0, 64, 39
1, 32831, Control_c, 0, 64, 0
1, 32971, Control_c, 0, 64, 50
1, 32986, Control_c, 0, 64, 64
1, 33001, Control_c, 0, 64, 65
1, 33004, Note_on_c, 0, 52, 72
1, 33016, Control_c, 0, 64, 66
1, 33031, Control_c, 0, 64, 69
1, 33046, Control_c, 0, 64, 75
1, 33060, Control_c, 0, 64, 82
1, 33075, Control_c, 0, 64, 87
1, 33090, Control_c, 0, 64, 88
1, 33105, Control_c, 0, 64, 89
1, 33120, Control_c, 0, 64, 89
1, 33134, Control_c, 0, 64, 90
1, 33149, Control_c, 0, 64, 92
1, 33164, Control_c, 0, 64, 93
1, 33179, Control_c, 0, 64, 94
1, 33194, Control_c, 0, 64, 95
1, 33202, Note_on_c, 0, 60, 84
1, 33237, Note_off_c, 0, 52, 62
1, 33284, Note_off_c, 0, 56, 64
1, 33445, Control_c, 0, 64, 94
1, 33460, Control_c, 0, 64, 91
1, 33475, Control_c, 0, 64, 84
1, 33484, Note_on_c, 0, 66, 82
1, 33486, Note_on_c, 0, 49, 55
1, 33490, Control_c, 0, 64, 75
1, 33490, Note_on_c, 0, 59, 64
1, 33502, Note_on_c, 0, 55, 58
1, 33505, Control_c, 0, 64, 65
1, 33511, Note_off_c, 0, 50, 43
1, 33519, Note_off_c, 0, 60, 61
1, 33519, Control_c, 0, 64, 42
1, 33534, Control_c, 0, 64, 0
1, 33750, Control_c, 0, 64, 63
1, 33764, Control_c, 0, 64, 70
1, 33779, Control_c, 0, 64, 76
1, 33794, Control_c, 0, 64, 81
1, 33809, Control_c, 0, 64, 85
1, 33824, Control_c, 0, 64, 87
1, 33838, Control_c, 0, 64, 89
1, 33853, Control_c, 0, 64, 90
1, 33864, Note_off_c, 0, 59, 63
1, 33868, Control_c, 0, 64, 91
1, 33880, Note_off_c, 0, 55, 64
1, 33883, Control_c, 0, 64, 92
1, 33898, Control_c, 0, 64, 93
1, 33913, Control_c, 0, 64, 94
1, 33928, Control_c, 0, 64, 95
1, 33943, Control_c, 0, 64, 96
1, 33958, Control_c, 0, 64, 97
1, 33973, Control_c, 0, 64, 98
1, 33987, Control_c, 0, 64, 99
1, 34002, Control_c, 0, 64, 99
1, 34017, Control_c, 0, 64, 100
1, 34106, Control_c, 0, 64, 99
1, 34121, Control_c, 0, 64, 96
1, 34136, Control_c, 0, 64, 89
1, 34150, Control_c, 0, 64, 79
1, 34165, Control_c, 0, 64, 69
1, 34174, Note_on_c, 0, 56, 48
1, 34176, Note_on_c, 0, 58, 54
1, 34180, Control_c, 0, 64, 57
1, 34194, Control_c, 0, 64, 18
1, 34208, Note_off_c, 0, 49, 57
1, 34209, Control_c, 0, 64, 0
1, 34217, Note_on_c, 0, 50, 48
1, 34357, Control_c, 0, 64, 22
1, 34380, Control_c, 0, 64, 65
1, 34395, Control_c, 0, 64, 71
1, 34411, Control_c, 0, 64, 76
1, 34426, Control_c, 0, 64, 80
1, 34441, Control_c, 0, 64, 82
1, 34455, Control_c, 0, 64, 84
1, 34470, Control_c, 0, 64, 86
1, 34485, Control_c, 0, 64, 88
1, 34500, Control_c, 0, 64, 91
1, 34514, Control_c, 0, 64, 93
1, 34529, Control_c, 0, 64, 94
1, 34544, Control_c, 0, 64, 94
1, 34559, Control_c, 0, 64, 95
1, 34561, Note_off_c, 0, 56, 57
1, 34574, Control_c, 0, 64, 95
1, 34588, Control_c, 0, 64, 96
1, 34589, Note_on_c, 0, 67, 75
1, 34603, Control_c, 0, 64, 97
1, 34632, Control_c, 0, 64, 97
1, 34677, Control_c, 0, 64, 98
1, 34692, Control_c, 0, 64, 99
1, 34706, Control_c, 0, 64, 100
1, 34721, Control_c, 0, 64, 101
1, 34736, Control_c, 0, 64, 102
1, 34751, Note_off_c, 0, 58, 0
1, 34751, Control_c, 0, 64, 103
1, 34764, Note_off_c, 0, 66, 65
1, 34766, Control_c, 0, 64, 105
1, 34780, Control_c, 0, 64, 108
1, 34787, Poly_aftertouch_c, 0, 58, 127
1, 34792, Note_off_c, 0, 67, 61
1, 34795, Control_c, 0, 64, 110
1, 34810, Control_c, 0, 64, 111
1, 34825, Control_c, 0, 64, 112
1, 34840, Control_c, 0, 64, 112
1, 34897, Note_on_c, 0, 67, 87
1, 34899, Control_c, 0, 64, 108
1, 34906, Note_on_c, 0, 49, 62
1, 34912, Note_on_c, 0, 59, 64
1, 34912, Note_on_c, 0, 55, 66
1, 34914, Control_c, 0, 64, 97
1, 34917, Note_off_c, 0, 50, 62
1, 34918, Poly_aftertouch_c, 0, 58, 0
1, 34929, Control_c, 0, 64, 84
1, 34944, Control_c, 0, 64, 69
1, 34959, Control_c, 0, 64, 16
1, 34973, Control_c, 0, 64, 0
1, 35032, Control_c, 0, 64, 49
1, 35047, Control_c, 0, 64, 66
1, 35062, Control_c, 0, 64, 71
1, 35077, Control_c, 0, 64, 76
1, 35091, Control_c, 0, 64, 80
1, 35106, Control_c, 0, 64, 83
1, 35129, Control_c, 0, 64, 85
1, 35144, Control_c, 0, 64, 88
1, 35159, Control_c, 0, 64, 90
1, 35173, Control_c, 0, 64, 91
1, 35188, Control_c, 0, 64, 93
1, 35199, Note_on_c, 0, 63, 85
1, 35204, Control_c, 0, 64, 95
1, 35219, Control_c, 0, 64, 98
1, 35232, Note_off_c, 0, 67, 59
1, 35233, Control_c, 0, 64, 100
1, 35248, Control_c, 0, 64, 102
1, 35263, Control_c, 0, 64, 103
1, 35278, Control_c, 0, 64, 106
1, 35279, Note_off_c, 0, 59, 62
1, 35290, Note_off_c, 0, 55, 65
1, 35293, Control_c, 0, 64, 108
1, 35308, Control_c, 0, 64, 112
1, 35322, Control_c, 0, 64, 117
1, 35335, Note_off_c, 0, 63, 66
1, 35337, Control_c, 0, 64, 121
1, 35352, Control_c, 0, 64, 126
1, 35364, Note_off_c, 0, 49, 21
1, 35367, Control_c, 0, 64, 127
1, 35469, Note_on_c, 0, 63, 90
1, 35470, Note_on_c, 0, 48, 67
1, 35470, Control_c, 0, 64, 117
1, 35478, Note_on_c, 0, 57, 69
1, 35484, Note_on_c, 0, 54, 66
1, 35485, Control_c, 0, 64, 105
1, 35500, Control_c, 0, 64, 93
1, 35515, Control_c, 0, 64, 80
1, 35529, Control_c, 0, 64, 68
1, 35544, Control_c, 0, 64, 34
1, 35559, Control_c, 0, 64, 0
1, 35618, Control_c, 0, 64, 57
1, 35633, Control_c, 0, 64, 65
1, 35648, Control_c, 0, 64, 72
1, 35663, Control_c, 0, 64, 80
1, 35678, Control_c, 0, 64, 87
1, 35693, Control_c, 0, 64, 93
1, 35707, Control_c, 0, 64, 99
1, 35722, Control_c, 0, 64, 104
1, 35732, Note_off_c, 0, 48, 57
1, 35737, Control_c, 0, 64, 109
1, 35752, Control_c, 0, 64, 112
1, 35767, Control_c, 0, 64, 113
1, 35773, Note_off_c, 0, 54, 48
1, 35776, Note_on_c, 0, 59, 85
1, 35781, Control_c, 0, 64, 115
1, 35796, Control_c, 0, 64, 116
1, 35810, Note_off_c, 0, 63, 62
1, 35811, Control_c, 0, 64, 118
1, 35826, Control_c, 0, 64, 120
1, 35841, Control_c, 0, 64, 124
1, 35855, Control_c, 0, 64, 127
1, 35879, Note_off_c, 0, 57, 60
1, 36122, Note_on_c, 0, 62, 85
1, 36128, Note_on_c, 0, 47, 67
1, 36130, Note_on_c, 0, 53, 70
1, 36131, Control_c, 0, 64, 116
1, 36142, Note_on_c, 0, 56, 69
1, 36145, Control_c, 0, 64, 102
1, 36152, Note_off_c, 0, 59, 63
1, 36160, Control_c, 0, 64, 90
1, 36175, Control_c, 0, 64, 79
1, 36190, Control_c, 0, 64, 68
1, 36205, Control_c, 0, 64, 39
1, 36219, Control_c, 0, 64, 0
1, 36382, Control_c, 0, 64, 56
1, 36397, Control_c, 0, 64, 66
1, 36412, Control_c, 0, 64, 69
1, 36426, Control_c, 0, 64, 71
1, 36441, Control_c, 0, 64, 73
1, 36456, Control_c, 0, 64, 78
1, 36471, Control_c, 0, 64, 85
1, 36485, Control_c, 0, 64, 90
1, 36500, Control_c, 0, 64, 92
1, 36530, Control_c, 0, 64, 93
1, 36533, Note_on_c, 0, 61, 83
1, 36538, Note_off_c, 0, 62, 62
1, 36545, Control_c, 0, 64, 94
1, 36560, Control_c, 0, 64, 97
1, 36574, Note_off_c, 0, 56, 34
1, 36575, Control_c, 0, 64, 100
1, 36590, Control_c, 0, 64, 101
1, 36604, Control_c, 0, 64, 102
1, 36626, Control_c, 0, 64, 103
1, 36641, Control_c, 0, 64, 105
1, 36656, Control_c, 0, 64, 106
1, 36671, Control_c, 0, 64, 107
1, 36676, Note_off_c, 0, 53, 64
1, 36689, Note_off_c, 0, 61, 62
1, 36715, Control_c, 0, 64, 106
1, 36730, Control_c, 0, 64, 97
1, 36740, Note_on_c, 0, 52, 80
1, 36745, Control_c, 0, 64, 81
1, 36746, Note_on_c, 0, 61, 84
1, 36760, Control_c, 0, 64, 64
1, 36775, Control_c, 0, 64, 0
1, 36820, Control_c, 0, 64, 44
1, 36835, Note_off_c, 0, 47, 38
1, 36835, Control_c, 0, 64, 71
1, 36849, Control_c, 0, 64, 82
1, 36864, Control_c, 0, 64, 94
1, 36879, Control_c, 0, 64, 98
1, 36894, Control_c, 0, 64, 98
1, 36908, Note_on_c, 0, 56, 78
1, 36924, Control_c, 0, 64, 100
1, 36939, Control_c, 0, 64, 102
1, 36953, Control_c, 0, 64, 104
1, 36968, Control_c, 0, 64, 106
1, 36978, Note_off_c, 0, 52, 66
1, 36983, Control_c, 0, 64, 107
1, 36990, Note_on_c, 0, 62, 87
1, 36998, Control_c, 0, 64, 108
1, 37003, Note_off_c, 0, 56, 65
1, 37013, Control_c, 0, 64, 110
1, 37027, Control_c, 0, 64, 112
1, 37042, Control_c, 0, 64, 113
1, 37057, Control_c, 0, 64, 114
1, 37061, Note_on_c, 0, 67, 87
1, 37072, Control_c, 0, 64, 115
1, 37076, Note_off_c, 0, 61, 63
1, 37087, Control_c, 0, 64, 116
1, 37101, Control_c, 0, 64, 118
1, 37116, Control_c, 0, 64, 121
1, 37117, Note_off_c, 0, 67, 59
1, 37131, Control_c, 0, 64, 125
1, 37146, Control_c, 0, 64, 127
1, 37295, Note_on_c, 0, 63, 84
1, 37300, Note_on_c, 0, 73, 93
1, 37302, Note_on_c, 0, 58, 78
1, 37306, Note_on_c, 0, 66, 92
1, 37308, Control_c, 0, 64, 101
1, 37323, Control_c, 0, 64, 80
1, 37328, Note_off_c, 0, 62, 58
1, 37338, Control_c, 0, 64, 46
1, 37353, Control_c, 0, 64, 0
1, 37420, Control_c, 0, 64, 52
1, 37434, Control_c, 0, 64, 71
1, 37449, Control_c, 0, 64, 81
1, 37464, Control_c, 0, 64, 94
1, 37479, Control_c, 0, 64, 103
1, 37494, Control_c, 0, 64, 111
1, 37508, Control_c, 0, 64, 119
1, 37523, Control_c, 0, 64, 127
1, 37570, Note_off_c, 0, 58, 62
1, 37598, Control_c, 0, 64, 99
1, 37600, Note_off_c, 0, 63, 62
1, 37613, Control_c, 0, 64, 74
1, 37614, Note_on_c, 0, 64, 95
1, 37618, Note_on_c, 0, 54, 89
1, 37628, Control_c, 0, 64, 0
1, 37657, Control_c, 0, 64, 61
1, 37666, Note_off_c, 0, 64, 67
1, 37672, Control_c, 0, 64, 81
1, 37687, Note_off_c, 0, 54, 62
1, 37687, Control_c, 0, 64, 109
1, 37702, Control_c, 0, 64, 127
1, 37821, Control_c, 0, 64, 101
1, 37836, Control_c, 0, 64, 75
1, 37850, Control_c, 0, 64, 0
1, 37860, Note_on_c, 0, 43, 84
1, 37910, Control_c, 0, 64, 64
1, 37924, Control_c, 0, 64, 75
1, 37939, Control_c, 0, 64, 84
1, 37954, Control_c, 0, 64, 94
1, 37969, Control_c, 0, 64, 100
1, 37977, Note_off_c, 0, 43, 61
1, 37984, Control_c, 0, 64, 104
1, 37998, Control_c, 0, 64, 107
1, 38013, Control_c, 0, 64, 109
1, 38028, Control_c, 0, 64, 110
1, 38042, Control_c, 0, 64, 112
1, 38057, Control_c, 0, 64, 113
1, 38072, Control_c, 0, 64, 114
1, 38087, Control_c, 0, 64, 115
1, 38124, Control_c, 0, 64, 116
1, 38139, Control_c, 0, 64, 117
1, 38176, Note_on_c, 0, 65, 92
1, 38177, Note_off_c, 0, 66, 44
1, 38185, Note_on_c, 0, 55, 80
1, 38191, Note_on_c, 0, 58, 75
1, 38198, Control_c, 0, 64, 117
1, 38540, Control_c, 0, 64, 117
1, 38569, Note_off_c, 0, 65, 60
1, 38656, Note_on_c, 0, 74, 79
1, 38703, Control_c, 0, 64, 116
1, 38718, Control_c, 0, 64, 116
1, 38723, Note_off_c, 0, 73, 55
1, 38733, Control_c, 0, 64, 115
1, 38747, Control_c, 0, 64, 115
1, 38762, Control_c, 0, 64, 114
1, 38777, Control_c, 0, 64, 113
1, 38791, Note_on_c, 0, 64, 79
1, 38791, Control_c, 0, 64, 113
1, 38806, Control_c, 0, 64, 112
1, 38821, Control_c, 0, 64, 111
1, 38836, Control_c, 0, 64, 110
1, 38851, Control_c, 0, 64, 110
1, 38862, Note_off_c, 0, 64, 58
1, 38873, Control_c, 0, 64, 109
1, 38873, Note_off_c, 0, 74, 58
1, 38888, Control_c, 0, 64, 108
1, 38903, Control_c, 0, 64, 108
1, 38918, Control_c, 0, 64, 107
1, 38933, Control_c, 0, 64, 107
1, 38947, Control_c, 0, 64, 106
1, 38962, Control_c, 0, 64, 104
1, 38977, Control_c, 0, 64, 103
1, 38983, Note_on_c, 0, 74, 81
1, 38991, Note_on_c, 0, 64, 64
1, 38992, Control_c, 0, 64, 100
1, 39006, Control_c, 0, 64, 96
1, 39021, Control_c, 0, 64, 92
1, 39036, Control_c, 0, 64, 86
1, 39051, Control_c, 0, 64, 81
1, 39065, Control_c, 0, 64, 77
1, 39080, Control_c, 0, 64, 75
1, 39095, Control_c, 0, 64, 74
1, 39169, Control_c, 0, 64, 75
1, 39184, Control_c, 0, 64, 76
1, 39200, Control_c, 0, 64, 76
1, 39215, Control_c, 0, 64, 77
1, 39259, Control_c, 0, 64, 76
1, 39274, Control_c, 0, 64, 74
1, 39279, Note_on_c, 0, 70, 80
1, 39289, Control_c, 0, 64, 71
1, 39303, Control_c, 0, 64, 69
1, 39315, Note_off_c, 0, 74, 62
1, 39318, Control_c, 0, 64, 68
1, 39333, Control_c, 0, 64, 69
1, 39348, Control_c, 0, 64, 70
1, 39363, Control_c, 0, 64, 73
1, 39377, Control_c, 0, 64, 80
1, 39392, Control_c, 0, 64, 85
1, 39407, Control_c, 0, 64, 89
1, 39422, Control_c, 0, 64, 91
1, 39435, Note_off_c, 0, 55, 61
1, 39437, Control_c, 0, 64, 93
1, 39451, Control_c, 0, 64, 95
1, 39460, Note_off_c, 0, 70, 57
1, 39466, Control_c, 0, 64, 98
1, 39481, Note_off_c, 0, 64, 60
1, 39481, Control_c, 0, 64, 99
1, 39496, Control_c, 0, 64, 100
1, 39508, Note_off_c, 0, 58, 63
1, 39541, Control_c, 0, 64, 99
1, 39552, Note_on_c, 0, 70, 87
1, 39556, Control_c, 0, 64, 96
1, 39570, Control_c, 0, 64, 88
1, 39585, Control_c, 0, 64, 81
1, 39600, Control_c, 0, 64, 77
1, 39621, Control_c, 0, 64, 76
1, 39636, Control_c, 0, 64, 77
1, 39651, Control_c, 0, 64, 81
1, 39666, Control_c, 0, 64, 87
1, 39681, Control_c, 0, 64, 91
1, 39696, Control_c, 0, 64, 93
1, 39711, Control_c, 0, 64, 94
1, 39726, Control_c, 0, 64, 95
1, 39785, Control_c, 0, 64, 94
1, 39800, Control_c, 0, 64, 90
1, 39814, Control_c, 0, 64, 81
1, 39816, Note_on_c, 0, 66, 83
1, 39829, Note_on_c, 0, 65, 49
1, 39829, Control_c, 0, 64, 69
1, 39844, Control_c, 0, 64, 32
1, 39859, Control_c, 0, 64, 0
1, 39896, Note_off_c, 0, 65, 56
1, 39904, Control_c, 0, 64, 59
1, 39919, Control_c, 0, 64, 69
1, 39934, Control_c, 0, 64, 76
1, 39942, Note_on_c, 0, 64, 62
1, 39948, Note_off_c, 0, 66, 66
1, 39949, Control_c, 0, 64, 83
1, 39963, Control_c, 0, 64, 87
1, 39978, Control_c, 0, 64, 88
1, 39988, Note_off_c, 0, 70, 58
1, 39994, Control_c, 0, 64, 90
1, 40009, Control_c, 0, 64, 91
1, 40024, Control_c, 0, 64, 93
1, 40039, Control_c, 0, 64, 94
1, 40113, Control_c, 0, 64, 93
1, 40121, Note_off_c, 0, 64, 52
1, 40127, Control_c, 0, 64, 89
1, 40142, Control_c, 0, 64, 78
1, 40157, Control_c, 0, 64, 67
1, 40167, Note_on_c, 0, 69, 79
1, 40170, Note_on_c, 0, 65, 68
1, 40172, Control_c, 0, 64, 35
1, 40173, Note_on_c, 0, 63, 50
1, 40187, Control_c, 0, 64, 0
1, 40334, Control_c, 0, 64, 63
1, 40349, Control_c, 0, 64, 71
1, 40372, Control_c, 0, 64, 77
1, 40387, Control_c, 0, 64, 83
1, 40401, Control_c, 0, 64, 86
1, 40414, Note_off_c, 0, 65, 57
1, 40416, Control_c, 0, 64, 88
1, 40431, Control_c, 0, 64, 90
1, 40445, Control_c, 0, 64, 93
1, 40460, Control_c, 0, 64, 95
1, 40474, Note_on_c, 0, 58, 59
1, 40475, Control_c, 0, 64, 96
1, 40489, Note_off_c, 0, 63, 51
1, 40490, Control_c, 0, 64, 97
1, 40505, Control_c, 0, 64, 98
1, 40519, Control_c, 0, 64, 99
1, 40534, Control_c, 0, 64, 100
1, 40549, Control_c, 0, 64, 100
1, 40564, Control_c, 0, 64, 101
1, 40579, Control_c, 0, 64, 102
1, 40590, Note_on_c, 0, 77, 74
1, 40593, Control_c, 0, 64, 103
1, 40608, Control_c, 0, 64, 104
1, 40623, Control_c, 0, 64, 105
1, 40628, Note_off_c, 0, 69, 62
1, 40636, Control_c, 0, 64, 105
1, 40637, Note_off_c, 0, 77, 61
1, 40684, Note_off_c, 0, 58, 60
1, 40696, Control_c, 0, 64, 104
1, 40710, Control_c, 0, 64, 98
1, 40715, Note_on_c, 0, 77, 87
1, 40716, Note_on_c, 0, 51, 60
1, 40725, Control_c, 0, 64, 85
1, 40732, Note_on_c, 0, 69, 70
1, 40740, Control_c, 0, 64, 73
1, 40755, Control_c, 0, 64, 63
1, 40769, Control_c, 0, 64, 56
1, 40786, Control_c, 0, 64, 61
1, 40801, Control_c, 0, 64, 67
1, 40815, Control_c, 0, 64, 75
1, 40830, Control_c, 0, 64, 83
1, 40835, Note_off_c, 0, 69, 65
1, 40845, Control_c, 0, 64, 89
1, 40859, Control_c, 0, 64, 92
1, 40874, Control_c, 0, 64, 95
1, 40889, Control_c, 0, 64, 100
1, 40904, Control_c, 0, 64, 104
1, 40919, Control_c, 0, 64, 105
1, 40933, Control_c, 0, 64, 106
1, 40948, Control_c, 0, 64, 105
1, 40963, Control_c, 0, 64, 103
1, 40973, Note_on_c, 0, 46, 65
1, 40973, Note_off_c, 0, 77, 62
1, 40975, Note_on_c, 0, 73, 82
1, 40978, Note_on_c, 0, 70, 73
1, 40978, Control_c, 0, 64, 93
1, 40993, Control_c, 0, 64, 79
1, 41007, Control_c, 0, 64, 63
1, 41022, Control_c, 0, 64, 0
1, 41037, Control_c, 0, 64, 36
1, 41052, Control_c, 0, 64, 62
1, 41067, Control_c, 0, 64, 70
1, 41076, Note_off_c, 0, 51, 34
1, 41080, Note_off_c, 0, 70, 64
1, 41082, Control_c, 0, 64, 79
1, 41094, Note_off_c, 0, 73, 64
1, 41097, Control_c, 0, 64, 89
1, 41119, Control_c, 0, 64, 92
1, 41134, Control_c, 0, 64, 93
1, 41148, Control_c, 0, 64, 96
1, 41163, Control_c, 0, 64, 99
1, 41178, Control_c, 0, 64, 101
1, 41237, Control_c, 0, 64, 96
1, 41249, Note_off_c, 0, 46, 60
1, 41252, Control_c, 0, 64, 84
1, 41253, Note_on_c, 0, 57, 72
1, 41255, Note_on_c, 0, 73, 87
1, 41258, Note_on_c, 0, 66, 85
1, 41267, Control_c, 0, 64, 69
1, 41282, Control_c, 0, 64, 0
1, 41386, Control_c, 0, 64, 64
1, 41400, Control_c, 0, 64, 74
1, 41415, Control_c, 0, 64, 83
1, 41430, Control_c, 0, 64, 92
1, 41445, Control_c, 0, 64, 95
1, 41460, Control_c, 0, 64, 97
1, 41474, Control_c, 0, 64, 102
1, 41489, Control_c, 0, 64, 110
1, 41504, Control_c, 0, 64, 125
1, 41505, Note_on_c, 0, 69, 88
1, 41511, Note_on_c, 0, 61, 81
1, 41519, Control_c, 0, 64, 127
1, 41528, Note_off_c, 0, 73, 61
1, 41541, Note_off_c, 0, 66, 66
1, 41556, Note_off_c, 0, 61, 62
1, 41601, Note_off_c, 0, 69, 64
1, 41686, Note_off_c, 0, 57, 61
1, 41800, Note_on_c, 0, 74, 90
1, 41801, Control_c, 0, 64, 99
1, 41803, Note_on_c, 0, 56, 70
1, 41806, Note_on_c, 0, 60, 80
1, 41809, Note_on_c, 0, 66, 80
1, 41815, Control_c, 0, 64, 79
1, 41830, Control_c, 0, 64, 60
1, 41845, Control_c, 0, 64, 0
1, 41883, Control_c, 0, 64, 65
1, 41897, Control_c, 0, 64, 77
1, 41912, Control_c, 0, 64, 90
1, 41927, Control_c, 0, 64, 100
1, 41933, Note_on_c, 0, 72, 83
1, 41942, Control_c, 0, 64, 104
1, 41957, Control_c, 0, 64, 105
1, 41971, Control_c, 0, 64, 106
1, 41982, Note_off_c, 0, 60, 59
1, 42009, Note_off_c, 0, 74, 61
1, 42015, Control_c, 0, 64, 106
1, 42045, Control_c, 0, 64, 107
1, 42059, Note_on_c, 0, 51, 80
1, 42060, Note_on_c, 0, 71, 87
1, 42068, Note_off_c, 0, 72, 63
1, 42075, Note_off_c, 0, 56, 62
1, 42093, Note_off_c, 0, 66, 64
1, 42104, Control_c, 0, 64, 107
1, 42119, Control_c, 0, 64, 108
1, 42134, Control_c, 0, 64, 109
1, 42149, Control_c, 0, 64, 111
1, 42157, Note_on_c, 0, 72, 88
1, 42164, Control_c, 0, 64, 114
1, 42171, Note_off_c, 0, 71, 64
1, 42179, Control_c, 0, 64, 118
1, 42194, Control_c, 0, 64, 121
1, 42195, Note_off_c, 0, 72, 61
1, 42209, Control_c, 0, 64, 124
1, 42223, Control_c, 0, 64, 125
1, 42253, Control_c, 0, 64, 123
1, 42268, Control_c, 0, 64, 108
1, 42278, Note_on_c, 0, 80, 101
1, 42281, Note_on_c, 0, 62, 83
1, 42281, Note_on_c, 0, 70, 92
1, 42281, Note_on_c, 0, 75, 93
1, 42283, Control_c, 0, 64, 88
1, 42297, Note_on_c, 0, 81, 79
1, 42297, Control_c, 0, 64, 66
1, 42312, Control_c, 0, 64, 0
1, 42317, Note_off_c, 0, 70, 62
1, 42327, Note_on_c, 0, 76, 38
1, 42327, Note_off_c, 0, 51, 61
1, 42344, Note_off_c, 0, 81, 0
1, 42344, Note_on_c, 0, 81, 37
1, 42370, Note_off_c, 0, 76, 43
1, 42375, Note_off_c, 0, 81, 46
1, 42409, Note_on_c, 0, 60, 83
1, 42429, Note_off_c, 0, 62, 62
1, 42491, Control_c, 0, 64, 63
1, 42498, Note_off_c, 0, 75, 63
1, 42505, Control_c, 0, 64, 74
1, 42516, Note_on_c, 0, 59, 90
1, 42520, Control_c, 0, 64, 91
1, 42535, Control_c, 0, 64, 119
1, 42543, Note_off_c, 0, 60, 61
1, 42548, Note_off_c, 0, 80, 61
1, 42550, Control_c, 0, 64, 127
1, 42620, Note_off_c, 0, 59, 50
1, 42626, Note_on_c, 0, 60, 98
1, 42715, Note_off_c, 0, 60, 62
1, 42763, Note_on_c, 0, 86, 98
1, 42763, Note_on_c, 0, 68, 100
1, 42765, Note_on_c, 0, 80, 101
1, 42766, Note_on_c, 0, 75, 100
1, 42780, Control_c, 0, 64, 123
1, 42794, Control_c, 0, 64, 100
1, 42809, Control_c, 0, 64, 83
1, 42824, Control_c, 0, 64, 62
1, 42838, Control_c, 0, 64, 0
1, 42942, Control_c, 0, 64, 39
1, 42957, Control_c, 0, 64, 68
1, 42972, Control_c, 0, 64, 76
1, 42986, Control_c, 0, 64, 86
1, 42992, Note_off_c, 0, 68, 59
1, 43001, Control_c, 0, 64, 95
1, 43016, Control_c, 0, 64, 101
1, 43031, Control_c, 0, 64, 104
1, 43033, Note_on_c, 0, 63, 103
1, 43045, Control_c, 0, 64, 107
1, 43060, Control_c, 0, 64, 111
1, 43075, Control_c, 0, 64, 113
1, 43079, Note_off_c, 0, 75, 60
1, 43090, Control_c, 0, 64, 115
1, 43101, Note_off_c, 0, 80, 59
1, 43105, Control_c, 0, 64, 117
1, 43119, Control_c, 0, 64, 117
1, 43134, Control_c, 0, 64, 118
1, 43149, Control_c, 0, 64, 119
1, 43163, Control_c, 0, 64, 120
1, 43180, Control_c, 0, 64, 120
1, 43195, Control_c, 0, 64, 121
1, 43209, Control_c, 0, 64, 121
1, 43239, Control_c, 0, 64, 122
1, 43254, Control_c, 0, 64, 122
1, 43321, Note_off_c, 0, 63, 52
1, 43327, Control_c, 0, 64, 113
1, 43335, Note_on_c, 0, 81, 108
1, 43339, Note_on_c, 0, 76, 104
1, 43342, Control_c, 0, 64, 92
1, 43345, Note_on_c, 0, 74, 102
1, 43365, Control_c, 0, 64, 68
1, 43380, Control_c, 0, 64, 0
1, 43454, Control_c, 0, 64, 71
1, 43464, Note_off_c, 0, 86, 59
1, 43468, Control_c, 0, 64, 84
1, 43483, Control_c, 0, 64, 98
1, 43498, Control_c, 0, 64, 103
1, 43513, Control_c, 0, 64, 104
1, 43528, Control_c, 0, 64, 105
1, 43542, Control_c, 0, 64, 106
1, 43557, Control_c, 0, 64, 107
1, 43572, Control_c, 0, 64, 107
1, 43586, Control_c, 0, 64, 108
1, 43622, Note_off_c, 0, 76, 64
1, 43633, Note_on_c, 0, 87, 103
1, 43664, Note_off_c, 0, 81, 63
1, 43691, Control_c, 0, 64, 109
1, 43705, Note_off_c, 0, 74, 56
1, 43706, Control_c, 0, 64, 109
1, 43735, Control_c, 0, 64, 110
1, 43741, Note_on_c, 0, 62, 92
1, 43750, Control_c, 0, 64, 111
1, 43765, Control_c, 0, 64, 112
1, 43780, Control_c, 0, 64, 115
1, 43795, Control_c, 0, 64, 119
1, 43810, Control_c, 0, 64, 125
1, 43824, Control_c, 0, 64, 127
1, 43849, Note_off_c, 0, 62, 61
1, 43854, Control_c, 0, 64, 115
1, 43869, Control_c, 0, 64, 90
1, 43874, Note_on_c, 0, 83, 99
1, 43878, Note_on_c, 0, 77, 99
1, 43879, Note_on_c, 0, 73, 105
1, 43884, Control_c, 0, 64, 66
1, 43899, Control_c, 0, 64, 0
1, 43913, Note_off_c, 0, 87, 59
1, 43958, Control_c, 0, 64, 67
1, 43973, Control_c, 0, 64, 81
1, 43988, Control_c, 0, 64, 96
1, 44003, Control_c, 0, 64, 108
1, 44018, Control_c, 0, 64, 113
1, 44033, Control_c, 0, 64, 114
1, 44048, Control_c, 0, 64, 116
1, 44063, Control_c, 0, 64, 119
1, 44078, Control_c, 0, 64, 121
1, 44079, Note_off_c, 0, 77, 55
1, 44092, Control_c, 0, 64, 122
1, 44114, Control_c, 0, 64, 124
1, 44129, Control_c, 0, 64, 127
1, 44148, Note_on_c, 0, 79, 100
1, 44181, Note_off_c, 0, 83, 0
1, 44181, Note_on_c, 0, 83, 12
1, 44195, Note_off_c, 0, 79, 66
1, 44222, Note_off_c, 0, 73, 57
1, 44228, Note_off_c, 0, 83, 21
1, 44268, Note_on_c, 0, 61, 92
1, 44381, Control_c, 0, 64, 107
1, 44390, Note_off_c, 0, 61, 60
1, 44396, Control_c, 0, 64, 80
1, 44405, Note_on_c, 0, 89, 103
1, 44407, Note_on_c, 0, 82, 99
1, 44408, Note_on_c, 0, 78, 98
1, 44409, Note_on_c, 0, 72, 94
1, 44410, Control_c, 0, 64, 0
1, 44470, Control_c, 0, 64, 68
1, 44484, Control_c, 0, 64, 84
1, 44499, Control_c, 0, 64, 104
1, 44514, Control_c, 0, 64, 120
1, 44529, Control_c, 0, 64, 121
1, 44544, Control_c, 0, 64, 126
1, 44558, Control_c, 0, 64, 127
1, 44561, Note_off_c, 0, 78, 63
1, 44568, Note_on_c, 0, 87, 100
1, 44579, Note_off_c, 0, 89, 67
1, 44600, Note_off_c, 0, 82, 65
1, 44739, Note_on_c, 0, 86, 102
1, 44769, Note_off_c, 0, 87, 61
1, 44886, Note_off_c, 0, 72, 60
1, 44904, Note_on_c, 0, 87, 103
1, 44908, Note_on_c, 0, 60, 95
1, 44923, Note_off_c, 0, 86, 68
1, 44963, Note_off_c, 0, 87, 65
1, 45014, Poly_aftertouch_c, 0, 90, 0
1, 45130, Control_c, 0, 64, 99
1, 45145, Control_c, 0, 64, 69
1, 45159, Control_c, 0, 64, 0
1, 45163, Note_on_c, 0, 86, 104
1, 45165, Note_on_c, 0, 82, 111
1, 45165, Note_on_c, 0, 90, 103
1, 45165, Note_on_c, 0, 94, 113
1, 45169, Note_on_c, 0, 71, 98
1, 45219, Control_c, 0, 64, 70
1, 45220, Note_on_c, 0, 92, 20
1, 45233, Control_c, 0, 64, 89
1, 45248, Control_c, 0, 64, 117
1, 45258, Note_off_c, 0, 92, 39
1, 45263, Control_c, 0, 64, 127
1, 45279, Note_off_c, 0, 71, 59
1, 45328, Note_off_c, 0, 60, 64
1, 45515, Control_c, 0, 64, 110
1, 45530, Control_c, 0, 64, 97
1, 45544, Control_c, 0, 64, 86
1, 45547, Note_on_c, 0, 59, 86
1, 45550, Note_on_c, 0, 47, 89
1, 45559, Control_c, 0, 64, 79
1, 45575, Control_c, 0, 64, 77
1, 45590, Control_c, 0, 64, 78
1, 45612, Control_c, 0, 64, 87
1, 45627, Control_c, 0, 64, 99
1, 45640, Note_off_c, 0, 59, 63
1, 45642, Control_c, 0, 64, 111
1, 45647, Note_off_c, 0, 47, 62
1, 45657, Control_c, 0, 64, 114
1, 45671, Control_c, 0, 64, 113
1, 45686, Control_c, 0, 64, 99
1, 45701, Control_c, 0, 64, 74
1, 45716, Control_c, 0, 64, 0
1, 45726, Note_on_c, 0, 48, 89
1, 45726, Note_on_c, 0, 60, 90
1, 45760, Control_c, 0, 64, 49
1, 45775, Control_c, 0, 64, 75
1, 45789, Control_c, 0, 64, 96
1, 45804, Control_c, 0, 64, 113
1, 45812, Note_off_c, 0, 48, 62
1, 45816, Note_off_c, 0, 60, 60
1, 45819, Control_c, 0, 64, 115
1, 45892, Note_on_c, 0, 60, 96
1, 45895, Note_on_c, 0, 48, 97
1, 45908, Control_c, 0, 64, 115
1, 45923, Control_c, 0, 64, 117
1, 45938, Control_c, 0, 64, 120
1, 45940, Note_off_c, 0, 48, 65
1, 45946, Note_off_c, 0, 60, 63
1, 45953, Control_c, 0, 64, 122
1, 45968, Control_c, 0, 64, 127
1, 45982, Control_c, 0, 64, 127
1, 46008, Note_off_c, 0, 94, 58
1, 46077, Note_off_c, 0, 90, 62
1, 46125, Note_off_c, 0, 86, 60
1, 46135, Poly_aftertouch_c, 0, 54, 0
1, 46170, Note_on_c, 0, 63, 100
1, 46176, Note_on_c, 0, 51, 93
1, 46209, Note_off_c, 0, 51, 64
1, 46216, Note_off_c, 0, 63, 65
1, 46230, Note_off_c, 0, 82, 58
1, 46405, Control_c, 0, 64, 127
1, 46420, Control_c, 0, 64, 89
1, 46432, Note_on_c, 0, 86, 97
1, 46432, Note_on_c, 0, 92, 104
1, 46433, Note_on_c, 0, 70, 96
1, 46433, Note_on_c, 0, 80, 99
1, 46435, Note_on_c, 0, 82, 95
1, 46435, Control_c, 0, 64, 64
1, 46440, Note_on_c, 0, 58, 90
1, 46450, Control_c, 0, 64, 0
1, 46479, Control_c, 0, 64, 61
1, 46494, Control_c, 0, 64, 80
1, 46495, Note_off_c, 0, 70, 62
1, 46509, Control_c, 0, 64, 103
1, 46523, Note_off_c, 0, 58, 64
1, 46524, Control_c, 0, 64, 127
1, 46624, Note_on_c, 0, 66, 102
1, 46626, Note_on_c, 0, 54, 97
1, 46655, Note_off_c, 0, 54, 63
1, 46660, Note_off_c, 0, 66, 64
1, 46767, Note_off_c, 0, 82, 62
1, 46770, Note_off_c, 0, 80, 59
1, 46792, Note_on_c, 0, 62, 98
1, 46796, Note_on_c, 0, 74, 88
1, 46809, Note_on_c, 0, 72, 61
1, 46809, Note_off_c, 0, 62, 73
1, 46817, Note_off_c, 0, 74, 69
1, 46826, Note_off_c, 0, 72, 64
1, 46832, Note_off_c, 0, 92, 57
1, 46932, Note_off_c, 0, 86, 58
1, 46969, Control_c, 0, 64, 123
1, 46984, Control_c, 0, 64, 88
1, 46990, Note_on_c, 0, 85, 102
1, 46990, Note_on_c, 0, 92, 106
1, 46993, Note_on_c, 0, 81, 107
1, 46993, Note_on_c, 0, 80, 104
1, 46997, Note_on_c, 0, 68, 97
1, 46999, Control_c, 0, 64, 57
1, 47013, Control_c, 0, 64, 0
1, 47032, Note_on_c, 0, 67, 50
1, 47056, Note_off_c, 0, 67, 38
1, 47073, Control_c, 0, 64, 30
1, 47087, Control_c, 0, 64, 74
1, 47092, Note_off_c, 0, 80, 67
1, 47109, Control_c, 0, 64, 91
1, 47124, Control_c, 0, 64, 108
1, 47133, Note_off_c, 0, 68, 64
1, 47139, Control_c, 0, 64, 111
1, 47289, Note_on_c, 0, 56, 86
1, 47295, Note_on_c, 0, 44, 78
1, 47343, Note_off_c, 0, 56, 63
1, 47352, Note_off_c, 0, 44, 63
1, 47412, Note_on_c, 0, 57, 86
1, 47416, Note_on_c, 0, 45, 82
1, 47421, Control_c, 0, 64, 112
1, 47450, Control_c, 0, 64, 112
1, 47462, Note_off_c, 0, 57, 61
1, 47465, Control_c, 0, 64, 113
1, 47471, Note_off_c, 0, 45, 64
1, 47509, Control_c, 0, 64, 107
1, 47524, Control_c, 0, 64, 88
1, 47539, Control_c, 0, 64, 65
1, 47553, Note_on_c, 0, 45, 95
1, 47554, Note_on_c, 0, 57, 96
1, 47554, Control_c, 0, 64, 0
1, 47598, Control_c, 0, 64, 44
1, 47613, Control_c, 0, 64, 75
1, 47628, Control_c, 0, 64, 90
1, 47630, Note_off_c, 0, 45, 64
1, 47640, Note_off_c, 0, 57, 64
1, 47642, Note_off_c, 0, 92, 62
1, 47643, Control_c, 0, 64, 104
1, 47658, Control_c, 0, 64, 108
1, 47673, Control_c, 0, 64, 110
1, 47688, Note_off_c, 0, 81, 57
1, 47688, Control_c, 0, 64, 113
1, 47702, Control_c, 0, 64, 120
1, 47717, Control_c, 0, 64, 124
1, 47732, Control_c, 0, 64, 127
1, 47747, Control_c, 0, 64, 127
1, 47833, Note_on_c, 0, 61, 98
1, 47837, Note_on_c, 0, 49, 88
1, 47887, Note_off_c, 0, 49, 64
1, 47893, Note_off_c, 0, 61, 62
1, 47998, Note_off_c, 0, 85, 53
1, 48066, Control_c, 0, 64, 119
1, 48081, Control_c, 0, 64, 89
1, 48096, Control_c, 0, 64, 62
1, 48100, Note_on_c, 0, 90, 106
1, 48102, Note_on_c, 0, 86, 89
1, 48102, Note_on_c, 0, 78, 99
1, 48104, Note_on_c, 0, 81, 93
1, 48106, Note_on_c, 0, 66, 94
1, 48111, Note_on_c, 0, 54, 85
1, 48111, Control_c, 0, 64, 0
1, 48140, Control_c, 0, 64, 31
1, 48155, Control_c, 0, 64, 71
1, 48161, Note_off_c, 0, 66, 66
1, 48170, Control_c, 0, 64, 86
1, 48184, Control_c, 0, 64, 104
1, 48188, Note_off_c, 0, 54, 60
1, 48199, Control_c, 0, 64, 108
1, 48214, Control_c, 0, 64, 109
1, 48218, Poly_aftertouch_c, 0, 56, 0
1, 48293, Note_on_c, 0, 50, 90
1, 48293, Note_on_c, 0, 62, 91
1, 48332, Note_off_c, 0, 50, 64
1, 48332, Note_off_c, 0, 62, 64
1, 48421, Control_c, 0, 64, 109
1, 48451, Control_c, 0, 64, 110
1, 48466, Note_on_c, 0, 70, 95
1, 48466, Control_c, 0, 64, 112
1, 48469, Note_on_c, 0, 58, 91
1, 48480, Note_off_c, 0, 81, 58
1, 48481, Control_c, 0, 64, 115
1, 48496, Control_c, 0, 64, 123
1, 48510, Control_c, 0, 64, 127
1, 48515, Note_off_c, 0, 78, 61
1, 48517, Note_off_c, 0, 70, 61
1, 48523, Note_off_c, 0, 58, 61
1, 48552, Note_off_c, 0, 86, 55
1, 48555, Control_c, 0, 64, 99
1, 48562, Note_off_c, 0, 90, 63
1, 48570, Control_c, 0, 64, 73
1, 48584, Control_c, 0, 64, 0
1, 48591, Note_on_c, 0, 59, 75
1, 48651, Note_on_c, 0, 66, 72
1, 48651, Control_c, 0, 64, 66
1, 48656, Note_off_c, 0, 59, 64
1, 48665, Control_c, 0, 64, 84
1, 48680, Control_c, 0, 64, 103
1, 48692, Note_off_c, 0, 66, 65
1, 48695, Control_c, 0, 64, 115
1, 48699, Note_on_c, 0, 71, 74
1, 48740, Control_c, 0, 64, 115
1, 48741, Note_on_c, 0, 88, 102
1, 48743, Note_on_c, 0, 83, 98
1, 48747, Note_on_c, 0, 78, 100
1, 48755, Control_c, 0, 64, 116
1, 48761, Note_on_c, 0, 76, 92
1, 48770, Control_c, 0, 64, 116
1, 48773, Note_off_c, 0, 71, 62
1, 48785, Control_c, 0, 64, 117
1, 48800, Control_c, 0, 64, 117
1, 48804, Note_off_c, 0, 76, 66
1, 48814, Control_c, 0, 64, 118
1, 48829, Control_c, 0, 64, 119
1, 48840, Note_off_c, 0, 83, 55
1, 48844, Control_c, 0, 64, 120
1, 48845, Note_off_c, 0, 78, 61
1, 48859, Control_c, 0, 64, 122
1, 48874, Control_c, 0, 64, 123
1, 48889, Control_c, 0, 64, 124
1, 48904, Control_c, 0, 64, 125
1, 48934, Control_c, 0, 64, 125
1, 49103, Note_on_c, 0, 85, 94
1, 49106, Note_on_c, 0, 73, 88
1, 49157, Note_off_c, 0, 88, 52
1, 49401, Note_on_c, 0, 78, 97
1, 49404, Note_on_c, 0, 66, 78
1, 49436, Note_off_c, 0, 73, 61
1, 49558, Note_on_c, 0, 82, 86
1, 49574, Note_off_c, 0, 85, 56
1, 49575, Note_on_c, 0, 70, 82
1, 49608, Control_c, 0, 64, 126
1, 49653, Control_c, 0, 64, 126
1, 49668, Note_off_c, 0, 78, 62
1, 49681, Note_on_c, 0, 86, 94
1, 49703, Note_off_c, 0, 82, 65
1, 49712, Control_c, 0, 64, 127
1, 49740, Note_on_c, 0, 62, 72
1, 49742, Control_c, 0, 64, 127
1, 49777, Note_on_c, 0, 74, 87
1, 49780, Note_off_c, 0, 70, 59
1, 49781, Note_off_c, 0, 66, 63
1, 49804, Note_off_c, 0, 62, 61
1, 49849, Note_off_c, 0, 74, 65
1, 49994, Control_c, 0, 64, 97
1, 50009, Control_c, 0, 64, 78
1, 50010, Note_on_c, 0, 85, 98
1, 50013, Note_on_c, 0, 68, 83
1, 50014, Note_on_c, 0, 73, 92
1, 50016, Note_on_c, 0, 56, 70
1, 50023, Control_c, 0, 64, 57
1, 50038, Control_c, 0, 64, 0
1, 50040, Note_off_c, 0, 86, 61
1, 50149, Control_c, 0, 64, 67
1, 50164, Control_c, 0, 64, 77
1, 50179, Control_c, 0, 64, 86
1, 50194, Control_c, 0, 64, 92
1, 50209, Control_c, 0, 64, 95
1, 50223, Control_c, 0, 64, 99
1, 50233, Note_off_c, 0, 85, 63
1, 50238, Control_c, 0, 64, 103
1, 50241, Note_off_c, 0, 68, 63
1, 50253, Control_c, 0, 64, 107
1, 50268, Control_c, 0, 64, 108
1, 50278, Note_off_c, 0, 73, 61
1, 50283, Control_c, 0, 64, 109
1, 50312, Control_c, 0, 64, 109
1, 50342, Control_c, 0, 64, 110
1, 50368, Note_on_c, 0, 66, 85
1, 50376, Note_on_c, 0, 61, 69
1, 50520, Note_on_c, 0, 83, 84
1, 50530, Note_on_c, 0, 71, 64
1, 50535, Control_c, 0, 64, 110
1, 50550, Control_c, 0, 64, 112
1, 50565, Control_c, 0, 64, 115
1, 50579, Control_c, 0, 64, 119
1, 50594, Control_c, 0, 64, 127
1, 50614, Note_off_c, 0, 71, 60
1, 50713, Control_c, 0, 64, 101
1, 50728, Control_c, 0, 64, 77
1, 50728, Note_on_c, 0, 81, 86
1, 50734, Note_on_c, 0, 69, 83
1, 50743, Control_c, 0, 64, 0
1, 50747, Note_off_c, 0, 83, 56
1, 50802, Control_c, 0, 64, 28
1, 50805, Note_off_c, 0, 69, 66
1, 50809, Note_off_c, 0, 66, 58
1, 50817, Control_c, 0, 64, 68
1, 50832, Control_c, 0, 64, 79
1, 50853, Control_c, 0, 64, 92
1, 50856, Note_off_c, 0, 81, 63
1, 50867, Note_off_c, 0, 61, 59
1, 50868, Control_c, 0, 64, 103
1, 50883, Control_c, 0, 64, 108
1, 50898, Control_c, 0, 64, 112
1, 50909, Note_off_c, 0, 56, 56
1, 50913, Control_c, 0, 64, 119
1, 50928, Control_c, 0, 64, 127
1, 50961, Note_on_c, 0, 85, 78
1, 50964, Note_on_c, 0, 73, 75
1, 51032, Control_c, 0, 64, 112
1, 51046, Control_c, 0, 64, 94
1, 51061, Control_c, 0, 64, 76
1, 51076, Control_c, 0, 64, 66
1, 51091, Control_c, 0, 64, 64
1, 51092, Note_on_c, 0, 65, 71
1, 51099, Note_on_c, 0, 60, 68
1, 51100, Note_on_c, 0, 55, 63
1, 51101, Note_off_c, 0, 73, 63
1, 51106, Control_c, 0, 64, 67
1, 51110, Note_off_c, 0, 85, 66
1, 51119, Control_c, 0, 64, 75
1, 51134, Control_c, 0, 64, 87
1, 51149, Control_c, 0, 64, 102
1, 51164, Control_c, 0, 64, 109
1, 51167, Note_off_c, 0, 65, 65
1, 51180, Control_c, 0, 64, 111
1, 51195, Control_c, 0, 64, 113
1, 51209, Control_c, 0, 64, 118
1, 51224, Control_c, 0, 64, 124
1, 51231, Note_on_c, 0, 77, 76
1, 51232, Note_on_c, 0, 65, 66
1, 51239, Control_c, 0, 64, 127
1, 51287, Note_off_c, 0, 60, 63
1, 51287, Note_off_c, 0, 65, 60
1, 51287, Note_off_c, 0, 55, 64
1, 51295, Note_off_c, 0, 77, 61
1, 51479, Note_on_c, 0, 71, 78
1, 51488, Note_on_c, 0, 59, 62
1, 51568, Note_off_c, 0, 59, 62
1, 51795, Control_c, 0, 64, 114
1, 51809, Control_c, 0, 64, 96
1, 51824, Control_c, 0, 64, 78
1, 51828, Note_on_c, 0, 59, 60
1, 51829, Note_on_c, 0, 54, 52
1, 51831, Note_on_c, 0, 64, 60
1, 51839, Control_c, 0, 64, 65
1, 51854, Control_c, 0, 64, 0
1, 51913, Control_c, 0, 64, 35
1, 51927, Control_c, 0, 64, 58
1, 51942, Control_c, 0, 64, 64
1, 51957, Control_c, 0, 64, 68
1, 51973, Control_c, 0, 64, 73
1, 51988, Control_c, 0, 64, 80
1, 52003, Control_c, 0, 64, 85
1, 52017, Control_c, 0, 64, 90
1, 52032, Control_c, 0, 64, 91
1, 52047, Control_c, 0, 64, 93
1, 52062, Control_c, 0, 64, 95
1, 52077, Control_c, 0, 64, 96
1, 52092, Control_c, 0, 64, 98
1, 52106, Control_c, 0, 64, 98
1, 52132, Note_off_c, 0, 54, 57
1, 52136, Control_c, 0, 64, 99
1, 52151, Control_c, 0, 64, 100
1, 52157, Note_off_c, 0, 64, 61
1, 52166, Control_c, 0, 64, 101
1, 52170, Note_on_c, 0, 72, 76
1, 52180, Control_c, 0, 64, 101
1, 52195, Control_c, 0, 64, 102
1, 52210, Control_c, 0, 64, 102
1, 52231, Note_off_c, 0, 59, 61
1, 52240, Control_c, 0, 64, 103
1, 52421, Note_on_c, 0, 76, 83
1, 52484, Control_c, 0, 64, 102
1, 52499, Control_c, 0, 64, 102
1, 52514, Control_c, 0, 64, 101
1, 52529, Control_c, 0, 64, 101
1, 52544, Control_c, 0, 64, 100
1, 52558, Control_c, 0, 64, 98
1, 52570, Note_off_c, 0, 72, 37
1, 52573, Control_c, 0, 64, 96
1, 52578, Note_on_c, 0, 58, 53
1, 52578, Note_off_c, 0, 71, 47
1, 52579, Note_on_c, 0, 63, 53
1, 52582, Note_on_c, 0, 53, 48
1, 52588, Control_c, 0, 64, 93
1, 52603, Control_c, 0, 64, 91
1, 52617, Control_c, 0, 64, 89
1, 52631, Control_c, 0, 64, 86
1, 52646, Control_c, 0, 64, 83
1, 52661, Control_c, 0, 64, 79
1, 52676, Control_c, 0, 64, 75
1, 52691, Control_c, 0, 64, 71
1, 52705, Note_on_c, 0, 68, 71
1, 52705, Control_c, 0, 64, 68
1, 52720, Control_c, 0, 64, 66
1, 52735, Control_c, 0, 64, 65
1, 52765, Control_c, 0, 64, 64
1, 52780, Control_c, 0, 64, 64
1, 52795, Control_c, 0, 64, 63
1, 52810, Control_c, 0, 64, 62
1, 52825, Control_c, 0, 64, 61
1, 52839, Control_c, 0, 64, 61
1, 52854, Control_c, 0, 64, 58
1, 52861, Note_off_c, 0, 76, 35
1, 52869, Control_c, 0, 64, 50
1, 52884, Control_c, 0, 64, 28
1, 52899, Control_c, 0, 64, 0
1, 53012, Note_on_c, 0, 62, 65
1, 53045, Note_off_c, 0, 68, 63
1, 53065, Note_off_c, 0, 63, 64
1, 53077, Control_c, 0, 64, 41
1, 53099, Control_c, 0, 64, 68
1, 53114, Control_c, 0, 64, 77
1, 53128, Control_c, 0, 64, 84
1, 53143, Control_c, 0, 64, 88
1, 53148, Note_off_c, 0, 58, 65
1, 53158, Note_off_c, 0, 53, 66
1, 53158, Control_c, 0, 64, 89
1, 53173, Control_c, 0, 64, 90
1, 53187, Control_c, 0, 64, 91
1, 53202, Control_c, 0, 64, 93
1, 53217, Control_c, 0, 64, 93
1, 53366, Control_c, 0, 64, 93
1, 53380, Control_c, 0, 64, 92
1, 53395, Control_c, 0, 64, 91
1, 53409, Note_on_c, 0, 57, 54
1, 53410, Control_c, 0, 64, 89
1, 53411, Note_on_c, 0, 52, 59
1, 53425, Control_c, 0, 64, 87
1, 53440, Control_c, 0, 64, 85
1, 53454, Control_c, 0, 64, 83
1, 53469, Control_c, 0, 64, 81
1, 53484, Control_c, 0, 64, 79
1, 53499, Control_c, 0, 64, 77
1, 53514, Control_c, 0, 64, 75
1, 53528, Control_c, 0, 64, 73
1, 53543, Control_c, 0, 64, 71
1, 53558, Control_c, 0, 64, 70
1, 53574, Control_c, 0, 64, 69
1, 53588, Control_c, 0, 64, 68
1, 53648, Control_c, 0, 64, 68
1, 53722, Control_c, 0, 64, 67
1, 53751, Control_c, 0, 64, 67
1, 53766, Control_c, 0, 64, 66
1, 53781, Control_c, 0, 64, 65
1, 53796, Control_c, 0, 64, 64
1, 53799, Note_on_c, 0, 47, 53
1, 53810, Control_c, 0, 64, 63
1, 53825, Control_c, 0, 64, 61
1, 53848, Control_c, 0, 64, 60
1, 53849, Note_off_c, 0, 52, 62
1, 53863, Control_c, 0, 64, 58
1, 53877, Control_c, 0, 64, 54
1, 53892, Control_c, 0, 64, 52
1, 53966, Control_c, 0, 64, 52
1, 53981, Control_c, 0, 64, 54
1, 53995, Control_c, 0, 64, 58
1, 54010, Control_c, 0, 64, 61
1, 54025, Control_c, 0, 64, 62
1, 54040, Control_c, 0, 64, 62
1, 54055, Control_c, 0, 64, 63
1, 54070, Control_c, 0, 64, 64
1, 54078, Note_on_c, 0, 52, 50
1, 54085, Control_c, 0, 64, 66
1, 54100, Control_c, 0, 64, 67
1, 54115, Control_c, 0, 64, 69
1, 54129, Control_c, 0, 64, 69
1, 54159, Control_c, 0, 64, 70
1, 54174, Control_c, 0, 64, 71
1, 54189, Control_c, 0, 64, 72
1, 54203, Control_c, 0, 64, 74
1, 54218, Control_c, 0, 64, 75
1, 54233, Control_c, 0, 64, 76
1, 54240, Note_on_c, 0, 68, 52
1, 54277, Control_c, 0, 64, 76
1, 54292, Control_c, 0, 64, 77
1, 54307, Control_c, 0, 64, 79
1, 54321, Control_c, 0, 64, 80
1, 54336, Control_c, 0, 64, 81
1, 54351, Control_c, 0, 64, 81
1, 54365, Note_off_c, 0, 62, 59
1, 54393, Note_on_c, 0, 42, 48
1, 54446, Note_off_c, 0, 57, 35
1, 54614, Note_off_c, 0, 52, 54
1, 54707, Note_off_c, 0, 42, 39
1, 54730, Control_c, 0, 64, 81
1, 54737, Note_on_c, 0, 61, 51
1, 54742, Note_on_c, 0, 57, 44
1, 54744, Control_c, 0, 64, 80
1, 54759, Control_c, 0, 64, 80
1, 54774, Control_c, 0, 64, 79
1, 54789, Note_off_c, 0, 47, 35
1, 54789, Control_c, 0, 64, 78
1, 54804, Control_c, 0, 64, 77
1, 54818, Control_c, 0, 64, 75
1, 54833, Control_c, 0, 64, 74
1, 54848, Control_c, 0, 64, 73
1, 54863, Control_c, 0, 64, 72
1, 54878, Control_c, 0, 64, 71
1, 54893, Control_c, 0, 64, 71
1, 54907, Control_c, 0, 64, 70
1, 54922, Control_c, 0, 64, 70
1, 54937, Control_c, 0, 64, 69
1, 54952, Control_c, 0, 64, 69
1, 54967, Control_c, 0, 64, 68
1, 54997, Control_c, 0, 64, 68
1, 55012, Control_c, 0, 64, 67
1, 55056, Control_c, 0, 64, 67
1, 55099, Note_off_c, 0, 68, 32
1, 55100, Control_c, 0, 64, 66
1, 55130, Control_c, 0, 64, 66
1, 55159, Control_c, 0, 64, 65
1, 55175, Control_c, 0, 64, 65
1, 55190, Control_c, 0, 64, 64
1, 55220, Control_c, 0, 64, 63
1, 55224, Note_on_c, 0, 41, 38
1, 55235, Control_c, 0, 64, 63
1, 55249, Control_c, 0, 64, 61
1, 55264, Control_c, 0, 64, 59
1, 55279, Control_c, 0, 64, 55
1, 55294, Control_c, 0, 64, 52
1, 55309, Control_c, 0, 64, 49
1, 55323, Control_c, 0, 64, 47
1, 55346, Control_c, 0, 64, 44
1, 55361, Control_c, 0, 64, 37
1, 55375, Control_c, 0, 64, 32
1, 55405, Control_c, 0, 64, 37
1, 55420, Control_c, 0, 64, 41
1, 55435, Control_c, 0, 64, 46
1, 55449, Control_c, 0, 64, 50
1, 55464, Control_c, 0, 64, 54
1, 55479, Control_c, 0, 64, 58
1, 55494, Control_c, 0, 64, 61
1, 55509, Control_c, 0, 64, 63
1, 55523, Control_c, 0, 64, 64
1, 55538, Control_c, 0, 64, 64
1, 55553, Control_c, 0, 64, 65
1, 55582, Control_c, 0, 64, 65
1, 55597, Control_c, 0, 64, 66
1, 55612, Control_c, 0, 64, 66
1, 55616, Note_on_c, 0, 46, 46
1, 55627, Control_c, 0, 64, 67
1, 55641, Control_c, 0, 64, 68
1, 55656, Control_c, 0, 64, 68
1, 55671, Control_c, 0, 64, 69
1, 55683, Note_off_c, 0, 41, 46
1, 55715, Control_c, 0, 64, 69
1, 55745, Control_c, 0, 64, 70
1, 55775, Control_c, 0, 64, 70
1, 55805, Control_c, 0, 64, 71
1, 55894, Control_c, 0, 64, 71
1, 55909, Note_on_c, 0, 51, 41
1, 55953, Control_c, 0, 64, 72
1, 56013, Control_c, 0, 64, 72
1, 56043, Control_c, 0, 64, 73
1, 56058, Control_c, 0, 64, 73
1, 56076, Note_on_c, 0, 68, 41
1, 56094, Control_c, 0, 64, 74
1, 56109, Control_c, 0, 64, 75
1, 56124, Control_c, 0, 64, 76
1, 56139, Control_c, 0, 64, 76
1, 56153, Control_c, 0, 64, 77
1, 56168, Control_c, 0, 64, 77
1, 56183, Note_off_c, 0, 57, 58
1, 56183, Control_c, 0, 64, 78
1, 56193, Note_off_c, 0, 61, 60
1, 56198, Control_c, 0, 64, 78
1, 56213, Control_c, 0, 64, 79
1, 56243, Control_c, 0, 64, 79
1, 56248, Note_on_c, 0, 41, 42
1, 56258, Control_c, 0, 64, 80
1, 56272, Control_c, 0, 64, 80
1, 56302, Control_c, 0, 64, 81
1, 56422, Note_off_c, 0, 51, 42
1, 56558, Note_off_c, 0, 41, 42
1, 56559, Note_off_c, 0, 46, 39
1, 56583, Control_c, 0, 64, 80
1, 56595, Note_on_c, 0, 60, 49
1, 56598, Note_on_c, 0, 56, 45
1, 56628, Control_c, 0, 64, 80
1, 56643, Control_c, 0, 64, 79
1, 56657, Control_c, 0, 64, 79
1, 56672, Control_c, 0, 64, 78
1, 56687, Control_c, 0, 64, 76
1, 56702, Control_c, 0, 64, 73
1, 56717, Control_c, 0, 64, 69
1, 56732, Control_c, 0, 64, 66
1, 56747, Control_c, 0, 64, 64
1, 56762, Control_c, 0, 64, 64
1, 56792, Control_c, 0, 64, 63
1, 56807, Control_c, 0, 64, 60
1, 56821, Control_c, 0, 64, 54
1, 56844, Control_c, 0, 64, 49
1, 56889, Control_c, 0, 64, 43
1, 56903, Control_c, 0, 64, 18
1, 56918, Control_c, 0, 64, 0
1, 57175, Note_on_c, 0, 50, 24
1, 57276, Note_off_c, 0, 68, 28
1, 57377, Control_c, 0, 64, 23
1, 57392, Control_c, 0, 64, 28
1, 57421, Control_c, 0, 64, 30
1, 57436, Control_c, 0, 64, 34
1, 57451, Control_c, 0, 64, 39
1, 57466, Control_c, 0, 64, 43
1, 57480, Control_c, 0, 64, 45
1, 57495, Control_c, 0, 64, 46
1, 57510, Control_c, 0, 64, 47
1, 57525, Control_c, 0, 64, 48
1, 57540, Control_c, 0, 64, 50
1, 57555, Control_c, 0, 64, 52
1, 57570, Control_c, 0, 64, 53
1, 57608, Control_c, 0, 64, 53
1, 57623, Control_c, 0, 64, 54
1, 57637, Control_c, 0, 64, 55
1, 57652, Control_c, 0, 64, 57
1, 57667, Control_c, 0, 64, 57
1, 57682, Control_c, 0, 64, 58
1, 57697, Control_c, 0, 64, 59
1, 57712, Control_c, 0, 64, 59
1, 57726, Control_c, 0, 64, 60
1, 57741, Control_c, 0, 64, 61
1, 57744, Note_on_c, 0, 40, 29
1, 57756, Control_c, 0, 64, 62
1, 57770, Control_c, 0, 64, 63
1, 57785, Control_c, 0, 64, 63
1, 57800, Control_c, 0, 64, 64
1, 57815, Control_c, 0, 64, 64
1, 57844, Control_c, 0, 64, 65
1, 57859, Control_c, 0, 64, 66
1, 57873, Control_c, 0, 64, 67
1, 57888, Control_c, 0, 64, 68
1, 57903, Control_c, 0, 64, 70
1, 57918, Control_c, 0, 64, 71
1, 57933, Control_c, 0, 64, 72
1, 57948, Control_c, 0, 64, 73
1, 57962, Control_c, 0, 64, 75
1, 57977, Control_c, 0, 64, 76
1, 57992, Control_c, 0, 64, 78
1, 58007, Control_c, 0, 64, 79
1, 58022, Control_c, 0, 64, 80
1, 58036, Control_c, 0, 64, 81
1, 58051, Control_c, 0, 64, 83
1, 58066, Control_c, 0, 64, 85
1, 58081, Control_c, 0, 64, 87
1, 58096, Control_c, 0, 64, 88
1, 58110, Control_c, 0, 64, 90
1, 58125, Control_c, 0, 64, 92
1, 58140, Control_c, 0, 64, 94
1, 58155, Control_c, 0, 64, 96
1, 58169, Control_c, 0, 64, 98
1, 58184, Control_c, 0, 64, 100
1, 58199, Control_c, 0, 64, 102
1, 58214, Control_c, 0, 64, 103
1, 58229, Note_off_c, 0, 40, 41
1, 58229, Control_c, 0, 64, 105
1, 58243, Control_c, 0, 64, 108
1, 58250, Note_off_c, 0, 50, 40
1, 58258, Control_c, 0, 64, 110
1, 58273, Control_c, 0, 64, 112
1, 58288, Control_c, 0, 64, 113
1, 58303, Control_c, 0, 64, 114
1, 58318, Control_c, 0, 64, 116
1, 58340, Control_c, 0, 64, 119
1, 58355, Control_c, 0, 64, 122
1, 58371, Control_c, 0, 64, 125
1, 58373, Note_on_c, 0, 68, 35
1, 58385, Control_c, 0, 64, 127
1, 58452, Note_off_c, 0, 56, 62
1, 58470, Note_off_c, 0, 60, 61
1, 58537, Note_off_c, 0, 68, 58
1, 59037, Control_c, 0, 64, 117
1, 59052, Control_c, 0, 64, 108
1, 59059, Note_on_c, 0, 76, 62
1, 59063, Note_on_c, 0, 61, 45
1, 59066, Control_c, 0, 64, 99
1, 59069, Note_on_c, 0, 71, 52
1, 59089, Control_c, 0, 64, 88
1, 59091, Note_on_c, 0, 67, 38
1, 59094, Note_on_c, 0, 55, 30
1, 59096, Note_on_c, 0, 45, 35
1, 59104, Control_c, 0, 64, 80
1, 59118, Control_c, 0, 64, 72
1, 59125, Note_off_c, 0, 61, 0
1, 59125, Note_on_c, 0, 61, 22
1, 59133, Control_c, 0, 64, 66
1, 59147, Note_off_c, 0, 67, 0
1, 59147, Note_on_c, 0, 67, 14
1, 59148, Control_c, 0, 64, 62
1, 59164, Control_c, 0, 64, 56
1, 59179, Control_c, 0, 64, 52
1, 59194, Control_c, 0, 64, 46
1, 59208, Control_c, 0, 64, 33
1, 59223, Control_c, 0, 64, 0
1, 59371, Control_c, 0, 64, 22
1, 59386, Control_c, 0, 64, 55
1, 59401, Control_c, 0, 64, 62
1, 59415, Control_c, 0, 64, 65
1, 59430, Control_c, 0, 64, 68
1, 59445, Control_c, 0, 64, 72
1, 59460, Control_c, 0, 64, 79
1, 59475, Control_c, 0, 64, 87
1, 59489, Control_c, 0, 64, 91
1, 59504, Control_c, 0, 64, 94
1, 59519, Control_c, 0, 64, 95
1, 59534, Control_c, 0, 64, 96
1, 59549, Control_c, 0, 64, 97
1, 59564, Control_c, 0, 64, 99
1, 59579, Control_c, 0, 64, 99
1, 59593, Control_c, 0, 64, 100
1, 59594, Note_off_c, 0, 61, 58
1, 59608, Control_c, 0, 64, 100
1, 59623, Control_c, 0, 64, 101
1, 59658, Note_off_c, 0, 76, 54
1, 59805, Note_on_c, 0, 76, 53
1, 59848, Note_off_c, 0, 67, 47
1, 59865, Note_off_c, 0, 71, 45
1, 59927, Control_c, 0, 64, 100
1, 59956, Control_c, 0, 64, 100
1, 60002, Control_c, 0, 64, 99
1, 60032, Control_c, 0, 64, 99
1, 60046, Control_c, 0, 64, 98
1, 60076, Control_c, 0, 64, 98
1, 60091, Control_c, 0, 64, 97
1, 60106, Control_c, 0, 64, 97
1, 60121, Control_c, 0, 64, 96
1, 60136, Control_c, 0, 64, 94
1, 60141, Note_on_c, 0, 70, 53
1, 60151, Control_c, 0, 64, 93
1, 60155, Note_on_c, 0, 66, 43
1, 60160, Note_on_c, 0, 62, 33
1, 60165, Control_c, 0, 64, 91
1, 60180, Control_c, 0, 64, 89
1, 60195, Control_c, 0, 64, 86
1, 60210, Control_c, 0, 64, 84
1, 60225, Control_c, 0, 64, 81
1, 60239, Control_c, 0, 64, 78
1, 60254, Control_c, 0, 64, 76
1, 60269, Control_c, 0, 64, 74
1, 60284, Control_c, 0, 64, 72
1, 60299, Control_c, 0, 64, 70
1, 60313, Control_c, 0, 64, 69
1, 60328, Control_c, 0, 64, 68
1, 60357, Control_c, 0, 64, 67
1, 60368, Note_off_c, 0, 76, 61
1, 60372, Control_c, 0, 64, 67
1, 60387, Control_c, 0, 64, 66
1, 60402, Control_c, 0, 64, 66
1, 60417, Control_c, 0, 64, 65
1, 60446, Control_c, 0, 64, 65
1, 60476, Control_c, 0, 64, 64
1, 60491, Control_c, 0, 64, 64
1, 60520, Control_c, 0, 64, 63
1, 60550, Control_c, 0, 64, 62
1, 60565, Control_c, 0, 64, 62
1, 60587, Control_c, 0, 64, 61
1, 60602, Control_c, 0, 64, 60
1, 60617, Control_c, 0, 64, 60
1, 60646, Control_c, 0, 64, 59
1, 60929, Control_c, 0, 64, 60
1, 60970, Note_on_c, 0, 54, 36
1, 61018, Control_c, 0, 64, 60
1, 61028, Note_off_c, 0, 55, 55
1, 61077, Control_c, 0, 64, 60
1, 61151, Control_c, 0, 64, 60
1, 61166, Control_c, 0, 64, 62
1, 61180, Control_c, 0, 64, 63
1, 61195, Control_c, 0, 64, 65
1, 61210, Control_c, 0, 64, 69
1, 61225, Control_c, 0, 64, 73
1, 61240, Control_c, 0, 64, 78
1, 61254, Control_c, 0, 64, 82
1, 61269, Control_c, 0, 64, 85
1, 61284, Control_c, 0, 64, 87
1, 61299, Control_c, 0, 64, 88
1, 61313, Control_c, 0, 64, 90
1, 61336, Control_c, 0, 64, 91
1, 61338, Note_off_c, 0, 54, 53
1, 61351, Control_c, 0, 64, 92
1, 61366, Control_c, 0, 64, 92
1, 61380, Control_c, 0, 64, 93
1, 61395, Control_c, 0, 64, 93
1, 61407, Note_on_c, 0, 71, 55
1, 61410, Control_c, 0, 64, 94
1, 61425, Control_c, 0, 64, 95
1, 61440, Control_c, 0, 64, 96
1, 61464, Note_off_c, 0, 70, 61
1, 61469, Control_c, 0, 64, 97
1, 61484, Note_off_c, 0, 66, 66
1, 61499, Control_c, 0, 64, 98
1, 61528, Control_c, 0, 64, 98
1, 61547, Note_off_c, 0, 62, 41
1, 61574, Control_c, 0, 64, 99
1, 61712, Poly_aftertouch_c, 0, 47, 127
1, 61840, Control_c, 0, 64, 97
1, 61855, Control_c, 0, 64, 94
1, 61870, Control_c, 0, 64, 87
1, 61878, Note_on_c, 0, 77, 61
1, 61884, Note_on_c, 0, 61, 51
1, 61884, Control_c, 0, 64, 80
1, 61892, Note_on_c, 0, 53, 47
1, 61896, Note_on_c, 0, 69, 51
1, 61899, Control_c, 0, 64, 71
1, 61914, Control_c, 0, 64, 62
1, 61928, Control_c, 0, 64, 0
1, 61948, Note_off_c, 0, 71, 47
1, 62158, Control_c, 0, 64, 63
1, 62173, Control_c, 0, 64, 70
1, 62188, Control_c, 0, 64, 76
1, 62202, Control_c, 0, 64, 82
1, 62217, Control_c, 0, 64, 87
1, 62232, Control_c, 0, 64, 92
1, 62247, Control_c, 0, 64, 96
1, 62262, Control_c, 0, 64, 99
1, 62276, Control_c, 0, 64, 101
1, 62291, Control_c, 0, 64, 103
1, 62293, Note_off_c, 0, 69, 61
1, 62306, Control_c, 0, 64, 105
1, 62321, Control_c, 0, 64, 107
1, 62336, Control_c, 0, 64, 109
1, 62337, Note_off_c, 0, 53, 61
1, 62337, Note_off_c, 0, 61, 57
1, 62351, Control_c, 0, 64, 110
1, 62366, Control_c, 0, 64, 110
1, 62381, Control_c, 0, 64, 112
1, 62396, Control_c, 0, 64, 113
1, 62411, Control_c, 0, 64, 113
1, 62426, Control_c, 0, 64, 114
1, 62485, Control_c, 0, 64, 114
1, 62499, Poly_aftertouch_c, 0, 47, 0
1, 62547, Note_on_c, 0, 53, 46
1, 62554, Note_off_c, 0, 45, 39
1, 62633, Control_c, 0, 64, 115
1, 62663, Control_c, 0, 64, 115
1, 62777, Note_on_c, 0, 45, 43
1, 62777, Note_on_c, 0, 69, 57
1, 62833, Control_c, 0, 64, 116
1, 62848, Control_c, 0, 64, 116
1, 62863, Control_c, 0, 64, 117
1, 62892, Control_c, 0, 64, 118
1, 62901, Note_off_c, 0, 77, 57
1, 62907, Control_c, 0, 64, 119
1, 62922, Control_c, 0, 64, 122
1, 62937, Control_c, 0, 64, 125
1, 62952, Control_c, 0, 64, 127
1, 63138, Note_off_c, 0, 69, 62
1, 63412, Note_on_c, 0, 69, 51
1, 63415, Poly_aftertouch_c, 0, 47, 127
1, 63744, Note_on_c, 0, 61, 45
1, 63763, Note_on_c, 0, 75, 45
1, 63962, Note_on_c, 0, 73, 60
1, 63963, Note_off_c, 0, 69, 59
1, 64012, Note_off_c, 0, 61, 60
1, 64103, Poly_aftertouch_c, 0, 47, 0
1, 64133, Note_off_c, 0, 75, 26
1, 64145, Note_off_c, 0, 53, 62
1, 64160, Note_on_c, 0, 69, 62
1, 64358, Note_on_c, 0, 65, 66
1, 64369, Note_off_c, 0, 73, 55
1, 64381, Note_off_c, 0, 69, 66
1, 64438, Note_off_c, 0, 65, 61
1, 64630, Note_on_c, 0, 63, 69
1, 64643, Note_on_c, 0, 61, 57
1, 64643, Control_c, 0, 64, 125
1, 64646, Note_on_c, 0, 57, 53
1, 64648, Note_on_c, 0, 52, 46
1, 64658, Control_c, 0, 64, 110
1, 64673, Control_c, 0, 64, 101
1, 64687, Control_c, 0, 64, 93
1, 64702, Control_c, 0, 64, 85
1, 64717, Control_c, 0, 64, 78
1, 64731, Control_c, 0, 64, 70
1, 64746, Control_c, 0, 64, 65
1, 64762, Control_c, 0, 64, 59
1, 64777, Control_c, 0, 64, 48
1, 64792, Control_c, 0, 64, 0
1, 65088, Note_on_c, 0, 64, 66
1, 65129, Note_off_c, 0, 63, 65
1, 65214, Note_off_c, 0, 52, 61
1, 65228, Control_c, 0, 64, 43
1, 65243, Control_c, 0, 64, 59
1, 65258, Control_c, 0, 64, 66
1, 65273, Control_c, 0, 64, 71
1, 65287, Control_c, 0, 64, 76
1, 65302, Control_c, 0, 64, 77
1, 65305, Note_on_c, 0, 52, 54
1, 65317, Control_c, 0, 64, 78
1, 65332, Control_c, 0, 64, 78
1, 65346, Control_c, 0, 64, 80
1, 65360, Control_c, 0, 64, 82
1, 65369, Note_off_c, 0, 45, 51
1, 65375, Control_c, 0, 64, 83
1, 65390, Control_c, 0, 64, 84
1, 65434, Control_c, 0, 64, 84
1, 65449, Control_c, 0, 64, 86
1, 65464, Control_c, 0, 64, 88
1, 65478, Control_c, 0, 64, 89
1, 65493, Control_c, 0, 64, 90
1, 65583, Control_c, 0, 64, 89
1, 65598, Control_c, 0, 64, 88
1, 65612, Note_on_c, 0, 69, 56
1, 65613, Control_c, 0, 64, 86
1, 65619, Note_on_c, 0, 43, 50
1, 65628, Control_c, 0, 64, 83
1, 65643, Control_c, 0, 64, 79
1, 65657, Control_c, 0, 64, 74
1, 65672, Control_c, 0, 64, 69
1, 65687, Control_c, 0, 64, 65
1, 65702, Control_c, 0, 64, 62
1, 65717, Control_c, 0, 64, 61
1, 65726, Note_off_c, 0, 64, 61
1, 65776, Control_c, 0, 64, 61
1, 65791, Control_c, 0, 64, 62
1, 65806, Control_c, 0, 64, 63
1, 65828, Control_c, 0, 64, 65
1, 65843, Control_c, 0, 64, 66
1, 65857, Control_c, 0, 64, 68
1, 65872, Control_c, 0, 64, 71
1, 65887, Control_c, 0, 64, 76
1, 65901, Control_c, 0, 64, 80
1, 65916, Control_c, 0, 64, 84
1, 65931, Control_c, 0, 64, 87
1, 65946, Control_c, 0, 64, 89
1, 65961, Control_c, 0, 64, 91
1, 65976, Control_c, 0, 64, 93
1, 65990, Control_c, 0, 64, 95
1, 66005, Control_c, 0, 64, 95
1, 66016, Note_off_c, 0, 43, 58
1, 66020, Control_c, 0, 64, 96
1, 66035, Control_c, 0, 64, 96
1, 66050, Control_c, 0, 64, 97
1, 66065, Control_c, 0, 64, 97
1, 66086, Note_off_c, 0, 52, 59
1, 66095, Control_c, 0, 64, 98
1, 66437, Control_c, 0, 64, 97
1, 66452, Control_c, 0, 64, 95
1, 66467, Control_c, 0, 64, 93
1, 66481, Control_c, 0, 64, 88
1, 66496, Control_c, 0, 64, 82
1, 66504, Note_on_c, 0, 42, 41
1, 66506, Note_on_c, 0, 51, 44
1, 66511, Control_c, 0, 64, 74
1, 66525, Control_c, 0, 64, 68
1, 66540, Control_c, 0, 64, 63
1, 66555, Control_c, 0, 64, 58
1, 66578, Control_c, 0, 64, 55
1, 66593, Control_c, 0, 64, 52
1, 66607, Control_c, 0, 64, 46
1, 66622, Control_c, 0, 64, 27
1, 66637, Control_c, 0, 64, 0
1, 66740, Control_c, 0, 64, 11
1, 66755, Control_c, 0, 64, 50
1, 66770, Control_c, 0, 64, 61
1, 66785, Control_c, 0, 64, 64
1, 66799, Control_c, 0, 64, 66
1, 66814, Control_c, 0, 64, 68
1, 66829, Control_c, 0, 64, 70
1, 66844, Control_c, 0, 64, 75
1, 66859, Control_c, 0, 64, 81
1, 66873, Control_c, 0, 64, 85
1, 66886, Note_off_c, 0, 69, 50
1, 66888, Control_c, 0, 64, 87
1, 66903, Control_c, 0, 64, 88
1, 66918, Control_c, 0, 64, 89
1, 66932, Control_c, 0, 64, 90
1, 66947, Control_c, 0, 64, 91
1, 66962, Control_c, 0, 64, 91
1, 66977, Control_c, 0, 64, 92
1, 66992, Control_c, 0, 64, 93
1, 67022, Control_c, 0, 64, 93
1, 67051, Control_c, 0, 64, 94
1, 67096, Control_c, 0, 64, 94
1, 67126, Note_on_c, 0, 69, 49
1, 67140, Control_c, 0, 64, 95
1, 67171, Control_c, 0, 64, 95
1, 67186, Control_c, 0, 64, 96
1, 67210, Note_off_c, 0, 61, 62
1, 67230, Control_c, 0, 64, 96
1, 67275, Control_c, 0, 64, 97
1, 67304, Control_c, 0, 64, 97
1, 67371, Control_c, 0, 64, 98
1, 67415, Control_c, 0, 64, 98
1, 67460, Control_c, 0, 64, 99
1, 67504, Control_c, 0, 64, 99
1, 67608, Control_c, 0, 64, 100
1, 67675, Note_on_c, 0, 61, 42
1, 67830, Control_c, 0, 64, 100
1, 67866, Note_off_c, 0, 42, 31
1, 67974, Note_off_c, 0, 57, 55
1, 67994, Control_c, 0, 64, 101
1, 68016, Note_off_c, 0, 69, 39
1, 68075, Control_c, 0, 64, 101
1, 68119, Control_c, 0, 64, 102
1, 68193, Control_c, 0, 64, 102
1, 68238, Control_c, 0, 64, 103
1, 68268, Control_c, 0, 64, 103
1, 68327, Control_c, 0, 64, 104
1, 68356, Control_c, 0, 64, 104
1, 68370, Control_c, 0, 64, 105
1, 68400, Control_c, 0, 64, 105
1, 68430, Control_c, 0, 64, 106
1, 68459, Control_c, 0, 64, 106
1, 68489, Control_c, 0, 64, 107
1, 68563, Control_c, 0, 64, 107
1, 68617, Note_on_c, 0, 57, 37
1, 68786, Control_c, 0, 64, 108
1, 68838, Control_c, 0, 64, 108
1, 68912, Control_c, 0, 64, 109
1, 68986, Note_off_c, 0, 57, 52
1, 69119, Control_c, 0, 64, 109
1, 69330, Note_on_c, 0, 57, 31
1, 69660, Note_on_c, 0, 68, 45
1, 69672, Note_on_c, 0, 47, 35
1, 69925, Note_on_c, 0, 66, 46
1, 69949, Note_off_c, 0, 57, 40
1, 69958, Control_c, 0, 64, 110
1, 69967, Note_off_c, 0, 61, 53
1, 69988, Control_c, 0, 64, 110
1, 70003, Control_c, 0, 64, 111
1, 70017, Control_c, 0, 64, 111
1, 70032, Control_c, 0, 64, 112
1, 70047, Control_c, 0, 64, 112
1, 70062, Control_c, 0, 64, 113
1, 70076, Control_c, 0, 64, 113
1, 70091, Control_c, 0, 64, 114
1, 70096, Note_off_c, 0, 51, 37
1, 70106, Control_c, 0, 64, 114
1, 70136, Control_c, 0, 64, 115
1, 70173, Note_on_c, 0, 60, 46
1, 70174, Note_off_c, 0, 47, 40
1, 70195, Control_c, 0, 64, 115
1, 70268, Control_c, 0, 64, 116
1, 70336, Control_c, 0, 64, 116
1, 70352, Control_c, 0, 64, 117
1, 70381, Control_c, 0, 64, 117
1, 70411, Control_c, 0, 64, 118
1, 70445, Note_on_c, 0, 57, 46
1, 70455, Control_c, 0, 64, 118
1, 70485, Control_c, 0, 64, 119
1, 70514, Control_c, 0, 64, 119
1, 70521, Note_off_c, 0, 60, 59
1, 70529, Control_c, 0, 64, 120
1, 70544, Control_c, 0, 64, 120
1, 70558, Note_off_c, 0, 68, 31
1, 70559, Control_c, 0, 64, 121
1, 70560, Note_off_c, 0, 57, 60
1, 70562, Note_off_c, 0, 66, 62
1, 70573, Control_c, 0, 64, 121
1, 70603, Control_c, 0, 64, 122
1, 70618, Control_c, 0, 64, 123
1, 70633, Control_c, 0, 64, 124
1, 70647, Control_c, 0, 64, 125
1, 70662, Control_c, 0, 64, 125
1, 70677, Control_c, 0, 64, 126
1, 70751, Control_c, 0, 64, 125
1, 70766, Control_c, 0, 64, 118
1, 70781, Control_c, 0, 64, 110
1, 70796, Control_c, 0, 64, 101
1, 70811, Control_c, 0, 64, 92
1, 70825, Control_c, 0, 64, 82
1, 70828, Note_on_c, 0, 58, 56
1, 70834, Note_on_c, 0, 55, 50
1, 70839, Note_on_c, 0, 40, 51
1, 70840, Control_c, 0, 64, 72
1, 70844, Note_on_c, 0, 47, 49
1, 70844, Note_on_c, 0, 52, 50
1, 70855, Control_c, 0, 64, 62
1, 70870, Control_c, 0, 64, 44
1, 70885, Control_c, 0, 64, 28
1, 70899, Control_c, 0, 64, 14
1, 70914, Control_c, 0, 64, 0
1, 71085, Control_c, 0, 64, 61
1, 71099, Control_c, 0, 64, 68
1, 71114, Control_c, 0, 64, 72
1, 71129, Control_c, 0, 64, 77
1, 71144, Control_c, 0, 64, 83
1, 71159, Control_c, 0, 64, 88
1, 71174, Control_c, 0, 64, 93
1, 71189, Control_c, 0, 64, 97
1, 71204, Control_c, 0, 64, 101
1, 71219, Control_c, 0, 64, 103
1, 71221, Note_off_c, 0, 58, 60
1, 71234, Control_c, 0, 64, 105
1, 71247, Note_off_c, 0, 55, 56
1, 71249, Control_c, 0, 64, 107
1, 71264, Control_c, 0, 64, 108
1, 71278, Control_c, 0, 64, 110
1, 71293, Control_c, 0, 64, 112
1, 71308, Control_c, 0, 64, 113
1, 71322, Control_c, 0, 64, 114
1, 71337, Control_c, 0, 64, 115
1, 71352, Control_c, 0, 64, 116
1, 71367, Control_c, 0, 64, 118
1, 71382, Control_c, 0, 64, 119
1, 71392, Note_on_c, 0, 58, 58
1, 71393, Note_off_c, 0, 52, 63
1, 71395, Note_on_c, 0, 55, 46
1, 71396, Control_c, 0, 64, 120
1, 71411, Control_c, 0, 64, 121
1, 71426, Control_c, 0, 64, 123
1, 71441, Control_c, 0, 64, 125
1, 71456, Control_c, 0, 64, 127
1, 71470, Control_c, 0, 64, 127
1, 71580, Note_on_c, 0, 52, 65
1, 71584, Note_off_c, 0, 47, 42
1, 71644, Note_off_c, 0, 58, 52
1, 71738, Note_off_c, 0, 55, 36
1, 71749, Note_off_c, 0, 52, 60
1, 71782, Control_c, 0, 64, 113
1, 71783, Note_on_c, 0, 67, 81
1, 71788, Note_on_c, 0, 55, 57
1, 71794, Note_on_c, 0, 58, 57
1, 71796, Control_c, 0, 64, 99
1, 71801, Note_on_c, 0, 46, 63
1, 71818, Control_c, 0, 64, 84
1, 71833, Control_c, 0, 64, 73
1, 71848, Control_c, 0, 64, 65
1, 71863, Control_c, 0, 64, 58
1, 71878, Control_c, 0, 64, 60
1, 71893, Control_c, 0, 64, 64
1, 71908, Control_c, 0, 64, 71
1, 71922, Control_c, 0, 64, 78
1, 71937, Control_c, 0, 64, 87
1, 71952, Control_c, 0, 64, 93
1, 71967, Control_c, 0, 64, 96
1, 71982, Control_c, 0, 64, 99
1, 71992, Note_off_c, 0, 58, 61
1, 71997, Control_c, 0, 64, 101
1, 72012, Control_c, 0, 64, 105
1, 72018, Note_off_c, 0, 55, 60
1, 72027, Control_c, 0, 64, 107
1, 72042, Control_c, 0, 64, 109
1, 72057, Control_c, 0, 64, 111
1, 72071, Control_c, 0, 64, 114
1, 72082, Note_on_c, 0, 47, 78
1, 72083, Note_on_c, 0, 59, 71
1, 72086, Control_c, 0, 64, 121
1, 72095, Note_off_c, 0, 40, 61
1, 72100, Control_c, 0, 64, 127
1, 72107, Note_off_c, 0, 59, 65
1, 72108, Note_off_c, 0, 46, 62
1, 72115, Note_off_c, 0, 47, 68
1, 72133, Note_off_c, 0, 67, 62
1, 72220, Note_on_c, 0, 67, 82
1, 72367, Control_c, 0, 64, 106
1, 72379, Note_on_c, 0, 76, 97
1, 72382, Control_c, 0, 64, 86
1, 72383, Note_on_c, 0, 60, 79
1, 72388, Note_on_c, 0, 71, 75
1, 72390, Note_on_c, 0, 52, 71
1, 72396, Control_c, 0, 64, 70
1, 72402, Note_off_c, 0, 67, 59
1, 72411, Control_c, 0, 64, 34
1, 72426, Control_c, 0, 64, 0
1, 72515, Control_c, 0, 64, 53
1, 72529, Control_c, 0, 64, 70
1, 72544, Control_c, 0, 64, 80
1, 72566, Control_c, 0, 64, 89
1, 72581, Control_c, 0, 64, 95
1, 72596, Control_c, 0, 64, 98
1, 72611, Control_c, 0, 64, 100
1, 72626, Control_c, 0, 64, 102
1, 72641, Control_c, 0, 64, 103
1, 72656, Control_c, 0, 64, 104
1, 72663, Note_off_c, 0, 76, 57
1, 72670, Control_c, 0, 64, 105
1, 72715, Control_c, 0, 64, 106
1, 72723, Note_on_c, 0, 59, 74
1, 72745, Control_c, 0, 64, 106
1, 72759, Note_off_c, 0, 60, 59
1, 72848, Note_on_c, 0, 76, 87
1, 72861, Note_off_c, 0, 52, 64
1, 72880, Note_off_c, 0, 71, 62
1, 73086, Control_c, 0, 64, 106
1, 73101, Control_c, 0, 64, 103
1, 73112, Note_off_c, 0, 76, 59
1, 73116, Control_c, 0, 64, 96
1, 73131, Control_c, 0, 64, 84
1, 73142, Note_on_c, 0, 79, 83
1, 73145, Note_on_c, 0, 58, 58
1, 73146, Control_c, 0, 64, 69
1, 73151, Note_on_c, 0, 65, 62
1, 73151, Note_on_c, 0, 70, 60
1, 73152, Note_on_c, 0, 74, 67
1, 73155, Note_on_c, 0, 48, 54
1, 73160, Control_c, 0, 64, 48
1, 73175, Control_c, 0, 64, 0
1, 73219, Note_off_c, 0, 59, 38
1, 73405, Control_c, 0, 64, 59
1, 73420, Control_c, 0, 64, 70
1, 73434, Control_c, 0, 64, 82
1, 73449, Control_c, 0, 64, 92
1, 73464, Control_c, 0, 64, 98
1, 73479, Control_c, 0, 64, 101
1, 73493, Control_c, 0, 64, 103
1, 73508, Control_c, 0, 64, 105
1, 73523, Control_c, 0, 64, 107
1, 73539, Control_c, 0, 64, 110
1, 73546, Note_off_c, 0, 79, 45
1, 73554, Control_c, 0, 64, 113
1, 73556, Note_off_c, 0, 65, 56
1, 73569, Control_c, 0, 64, 115
1, 73584, Control_c, 0, 64, 117
1, 73598, Control_c, 0, 64, 117
1, 73613, Control_c, 0, 64, 118
1, 73628, Control_c, 0, 64, 120
1, 73643, Control_c, 0, 64, 123
1, 73658, Control_c, 0, 64, 127
1, 73660, Note_on_c, 0, 79, 67
1, 73672, Control_c, 0, 64, 127
1, 73673, Note_off_c, 0, 74, 60
1, 73681, Note_off_c, 0, 70, 63
1, 73681, Note_off_c, 0, 79, 59
1, 73761, Note_off_c, 0, 48, 33
1, 73806, Control_c, 0, 64, 112
1, 73821, Control_c, 0, 64, 92
1, 73836, Control_c, 0, 64, 77
1, 73843, Note_on_c, 0, 51, 44
1, 73849, Note_on_c, 0, 74, 55
1, 73851, Note_on_c, 0, 66, 55
1, 73851, Control_c, 0, 64, 63
1, 73858, Note_on_c, 0, 63, 49
1, 73865, Control_c, 0, 64, 0
1, 73880, Note_on_c, 0, 70, 38
1, 73998, Control_c, 0, 64, 65
1, 74013, Control_c, 0, 64, 75
1, 74014, Note_on_c, 0, 72, 65
1, 74028, Control_c, 0, 64, 84
1, 74043, Control_c, 0, 64, 90
1, 74065, Control_c, 0, 64, 92
1, 74079, Note_off_c, 0, 70, 42
1, 74080, Control_c, 0, 64, 93
1, 74087, Note_off_c, 0, 66, 63
1, 74095, Control_c, 0, 64, 94
1, 74110, Control_c, 0, 64, 96
1, 74124, Control_c, 0, 64, 98
1, 74125, Note_off_c, 0, 63, 57
1, 74138, Note_off_c, 0, 58, 60
1, 74139, Control_c, 0, 64, 99
1, 74143, Note_off_c, 0, 51, 55
1, 74154, Control_c, 0, 64, 100
1, 74167, Note_on_c, 0, 70, 70
1, 74169, Control_c, 0, 64, 101
1, 74198, Control_c, 0, 64, 102
1, 74213, Control_c, 0, 64, 102
1, 74228, Control_c, 0, 64, 103
1, 74257, Control_c, 0, 64, 104
1, 74274, Note_off_c, 0, 74, 36
1, 74302, Control_c, 0, 64, 104
1, 74309, Note_on_c, 0, 66, 67
1, 74332, Control_c, 0, 64, 105
1, 74349, Note_off_c, 0, 72, 34
1, 74421, Control_c, 0, 64, 104
1, 74436, Control_c, 0, 64, 101
1, 74451, Control_c, 0, 64, 93
1, 74466, Control_c, 0, 64, 82
1, 74473, Note_on_c, 0, 62, 62
1, 74474, Note_on_c, 0, 51, 45
1, 74478, Note_on_c, 0, 59, 46
1, 74481, Control_c, 0, 64, 70
1, 74495, Control_c, 0, 64, 48
1, 74510, Control_c, 0, 64, 0
1, 74514, Note_off_c, 0, 70, 61
1, 74525, Note_off_c, 0, 66, 64
1, 74569, Control_c, 0, 64, 39
1, 74584, Control_c, 0, 64, 61
1, 74599, Control_c, 0, 64, 66
1, 74614, Control_c, 0, 64, 71
1, 74629, Control_c, 0, 64, 76
1, 74639, Note_on_c, 0, 57, 49
1, 74644, Control_c, 0, 64, 81
1, 74658, Control_c, 0, 64, 84
1, 74673, Control_c, 0, 64, 85
1, 74688, Control_c, 0, 64, 87
1, 74698, Note_off_c, 0, 59, 37
1, 74703, Control_c, 0, 64, 88
1, 74718, Control_c, 0, 64, 88
1, 74762, Control_c, 0, 64, 85
1, 74777, Control_c, 0, 64, 76
1, 74792, Note_off_c, 0, 57, 49
1, 74792, Control_c, 0, 64, 65
1, 74814, Control_c, 0, 64, 0
1, 74816, Note_on_c, 0, 63, 55
1, 74835, Note_off_c, 0, 62, 58
1, 74838, Note_on_c, 0, 54, 38
1, 74873, Control_c, 0, 64, 43
1, 74888, Control_c, 0, 64, 66
1, 74903, Control_c, 0, 64, 74
1, 74918, Control_c, 0, 64, 81
1, 74933, Control_c, 0, 64, 86
1, 74947, Control_c, 0, 64, 88
1, 74962, Control_c, 0, 64, 90
1, 74977, Control_c, 0, 64, 91
1, 74989, Note_on_c, 0, 47, 50
1, 74992, Control_c, 0, 64, 92
1, 75007, Control_c, 0, 64, 93
1, 75014, Note_off_c, 0, 54, 49
1, 75020, Note_off_c, 0, 51, 33
1, 75021, Control_c, 0, 64, 94
1, 75036, Control_c, 0, 64, 95
1, 75041, Note_off_c, 0, 47, 60
1, 75051, Control_c, 0, 64, 96
1, 75065, Control_c, 0, 64, 97
1, 75080, Control_c, 0, 64, 97
1, 75110, Control_c, 0, 64, 98
1, 75125, Control_c, 0, 64, 98
1, 75215, Control_c, 0, 64, 96
1, 75229, Control_c, 0, 64, 91
1, 75244, Control_c, 0, 64, 82
1, 75256, Note_on_c, 0, 58, 61
1, 75259, Control_c, 0, 64, 70
1, 75261, Note_on_c, 0, 55, 56
1, 75271, Note_on_c, 0, 47, 44
1, 75273, Note_on_c, 0, 40, 50
1, 75274, Control_c, 0, 64, 52
1, 75285, Note_on_c, 0, 52, 51
1, 75288, Control_c, 0, 64, 0
1, 75375, Note_off_c, 0, 63, 42
1, 75422, Control_c, 0, 64, 61
1, 75437, Control_c, 0, 64, 70
1, 75452, Control_c, 0, 64, 78
1, 75467, Control_c, 0, 64, 86
1, 75481, Control_c, 0, 64, 90
1, 75496, Control_c, 0, 64, 92
1, 75511, Control_c, 0, 64, 93
1, 75525, Note_off_c, 0, 55, 60
1, 75526, Control_c, 0, 64, 94
1, 75530, Note_off_c, 0, 58, 63
1, 75541, Control_c, 0, 64, 95
1, 75562, Control_c, 0, 64, 96
1, 75577, Control_c, 0, 64, 97
1, 75592, Control_c, 0, 64, 97
1, 75607, Control_c, 0, 64, 98
1, 75618, Note_off_c, 0, 52, 64
1, 75622, Control_c, 0, 64, 99
1, 75635, Note_on_c, 0, 58, 71
1, 75637, Control_c, 0, 64, 100
1, 75647, Note_on_c, 0, 55, 52
1, 75652, Control_c, 0, 64, 100
1, 75666, Control_c, 0, 64, 102
1, 75681, Control_c, 0, 64, 104
1, 75696, Control_c, 0, 64, 106
1, 75711, Control_c, 0, 64, 108
1, 75726, Control_c, 0, 64, 109
1, 75741, Control_c, 0, 64, 110
1, 75756, Control_c, 0, 64, 112
1, 75770, Control_c, 0, 64, 115
1, 75772, Note_off_c, 0, 47, 48
1, 75774, Note_on_c, 0, 52, 69
1, 75785, Control_c, 0, 64, 120
1, 75800, Control_c, 0, 64, 123
1, 75815, Control_c, 0, 64, 126
1, 75830, Note_off_c, 0, 58, 59
1, 75830, Control_c, 0, 64, 127
1, 75839, Note_off_c, 0, 55, 53
1, 75854, Note_off_c, 0, 52, 61
1, 75889, Control_c, 0, 64, 127
1, 75904, Control_c, 0, 64, 109
1, 75919, Control_c, 0, 64, 90
1, 75924, Note_on_c, 0, 67, 89
1, 75935, Control_c, 0, 64, 65
1, 75937, Note_on_c, 0, 46, 65
1, 75942, Note_on_c, 0, 55, 73
1, 75944, Note_on_c, 0, 58, 71
1, 75950, Control_c, 0, 64, 0
1, 76024, Control_c, 0, 64, 66
1, 76039, Control_c, 0, 64, 76
1, 76053, Control_c, 0, 64, 85
1, 76068, Control_c, 0, 64, 92
1, 76083, Control_c, 0, 64, 95
1, 76098, Control_c, 0, 64, 96
1, 76105, Note_off_c, 0, 58, 57
1, 76111, Note_off_c, 0, 55, 61
1, 76112, Control_c, 0, 64, 97
1, 76127, Control_c, 0, 64, 98
1, 76142, Control_c, 0, 64, 100
1, 76157, Control_c, 0, 64, 102
1, 76172, Control_c, 0, 64, 104
1, 76186, Control_c, 0, 64, 107
1, 76192, Note_on_c, 0, 59, 75
1, 76193, Note_on_c, 0, 47, 77
1, 76201, Control_c, 0, 64, 111
1, 76210, Note_off_c, 0, 40, 63
1, 76215, Note_off_c, 0, 59, 66
1, 76216, Control_c, 0, 64, 117
1, 76218, Note_off_c, 0, 46, 61
1, 76229, Note_off_c, 0, 47, 66
1, 76231, Control_c, 0, 64, 121
1, 76242, Note_off_c, 0, 67, 60
1, 76246, Control_c, 0, 64, 124
1, 76261, Control_c, 0, 64, 127
1, 76327, Note_on_c, 0, 67, 79
1, 76446, Control_c, 0, 64, 114
1, 76461, Control_c, 0, 64, 91
1, 76471, Note_on_c, 0, 76, 94
1, 76471, Note_on_c, 0, 60, 86
1, 76474, Note_on_c, 0, 52, 79
1, 76476, Control_c, 0, 64, 70
1, 76478, Note_on_c, 0, 71, 74
1, 76491, Control_c, 0, 64, 0
1, 76499, Note_off_c, 0, 67, 59
1, 76579, Control_c, 0, 64, 61
1, 76594, Control_c, 0, 64, 74
1, 76608, Control_c, 0, 64, 85
1, 76623, Control_c, 0, 64, 95
1, 76638, Control_c, 0, 64, 100
1, 76642, Note_off_c, 0, 52, 64
1, 76653, Control_c, 0, 64, 105
1, 76668, Control_c, 0, 64, 110
1, 76683, Control_c, 0, 64, 120
1, 76698, Control_c, 0, 64, 127
1, 76709, Note_off_c, 0, 76, 64
1, 76769, Note_on_c, 0, 59, 86
1, 76775, Note_on_c, 0, 50, 80
1, 76850, Note_off_c, 0, 60, 38
1, 76915, Note_on_c, 0, 76, 86
1, 76933, Note_off_c, 0, 50, 61
1, 76961, Note_off_c, 0, 71, 62
1, 77070, Note_off_c, 0, 76, 65
1, 77209, Control_c, 0, 64, 111
1, 77224, Control_c, 0, 64, 96
1, 77239, Control_c, 0, 64, 82
1, 77254, Control_c, 0, 64, 70
1, 77257, Note_on_c, 0, 80, 84
1, 77266, Note_on_c, 0, 49, 42
1, 77268, Control_c, 0, 64, 49
1, 77271, Note_on_c, 0, 58, 55
1, 77273, Note_on_c, 0, 76, 64
1, 77274, Note_on_c, 0, 68, 64
1, 77283, Control_c, 0, 64, 0
1, 77319, Note_off_c, 0, 59, 59
1, 77506, Control_c, 0, 64, 62
1, 77521, Control_c, 0, 64, 76
1, 77536, Control_c, 0, 64, 88
1, 77551, Control_c, 0, 64, 98
1, 77565, Control_c, 0, 64, 100
1, 77580, Control_c, 0, 64, 101
1, 77582, Note_off_c, 0, 58, 64
1, 77595, Control_c, 0, 64, 104
1, 77610, Control_c, 0, 64, 107
1, 77624, Note_off_c, 0, 49, 61
1, 77625, Control_c, 0, 64, 111
1, 77629, Note_off_c, 0, 80, 60
1, 77640, Control_c, 0, 64, 114
1, 77655, Control_c, 0, 64, 116
1, 77670, Control_c, 0, 64, 118
1, 77684, Control_c, 0, 64, 120
1, 77699, Control_c, 0, 64, 122
1, 77714, Control_c, 0, 64, 126
1, 77729, Control_c, 0, 64, 127
1, 77736, Note_on_c, 0, 80, 74
1, 77780, Note_off_c, 0, 76, 64
1, 77796, Note_off_c, 0, 80, 62
1, 77839, Note_off_c, 0, 68, 36
1, 77856, Note_on_c, 0, 44, 54
1, 77869, Control_c, 0, 64, 116
1, 77884, Control_c, 0, 64, 100
1, 77897, Note_on_c, 0, 51, 56
1, 77899, Control_c, 0, 64, 85
1, 77914, Control_c, 0, 64, 70
1, 77929, Control_c, 0, 64, 53
1, 77937, Note_on_c, 0, 75, 68
1, 77944, Control_c, 0, 64, 0
1, 77950, Note_on_c, 0, 59, 52
1, 77950, Note_on_c, 0, 68, 51
1, 77953, Note_on_c, 0, 64, 52
1, 78003, Control_c, 0, 64, 53
1, 78018, Control_c, 0, 64, 67
1, 78032, Control_c, 0, 64, 77
1, 78047, Control_c, 0, 64, 86
1, 78062, Control_c, 0, 64, 93
1, 78075, Control_c, 0, 64, 97
1, 78090, Control_c, 0, 64, 100
1, 78095, Note_on_c, 0, 73, 73
1, 78105, Control_c, 0, 64, 102
1, 78110, Note_off_c, 0, 64, 64
1, 78115, Note_off_c, 0, 44, 61
1, 78120, Control_c, 0, 64, 104
1, 78135, Control_c, 0, 64, 105
1, 78145, Note_off_c, 0, 59, 57
1, 78150, Control_c, 0, 64, 105
1, 78175, Note_off_c, 0, 51, 62
1, 78179, Note_off_c, 0, 68, 62
1, 78194, Control_c, 0, 64, 106
1, 78224, Note_off_c, 0, 75, 35
1, 78233, Note_on_c, 0, 71, 72
1, 78239, Control_c, 0, 64, 106
1, 78239, Note_on_c, 0, 63, 60
1, 78254, Control_c, 0, 64, 107
1, 78269, Control_c, 0, 64, 107
1, 78298, Control_c, 0, 64, 108
1, 78313, Control_c, 0, 64, 108
1, 78316, Note_off_c, 0, 63, 59
1, 78328, Control_c, 0, 64, 109
1, 78343, Control_c, 0, 64, 110
1, 78358, Control_c, 0, 64, 110
1, 78366, Note_on_c, 0, 68, 76
1, 78373, Control_c, 0, 64, 111
1, 78403, Control_c, 0, 64, 112
1, 78418, Control_c, 0, 64, 112
1, 78433, Control_c, 0, 64, 113
1, 78492, Control_c, 0, 64, 112
1, 78498, Note_on_c, 0, 61, 59
1, 78506, Control_c, 0, 64, 107
1, 78509, Note_on_c, 0, 62, 78
1, 78521, Control_c, 0, 64, 101
1, 78536, Control_c, 0, 64, 96
1, 78546, Note_off_c, 0, 73, 19
1, 78558, Control_c, 0, 64, 91
1, 78566, Note_off_c, 0, 71, 55
1, 78573, Control_c, 0, 64, 89
1, 78582, Note_off_c, 0, 68, 62
1, 78588, Control_c, 0, 64, 88
1, 78632, Control_c, 0, 64, 89
1, 78643, Note_on_c, 0, 59, 55
1, 78647, Control_c, 0, 64, 89
1, 78662, Control_c, 0, 64, 91
1, 78677, Control_c, 0, 64, 93
1, 78692, Control_c, 0, 64, 95
1, 78706, Control_c, 0, 64, 96
1, 78764, Note_off_c, 0, 61, 39
1, 78788, Note_on_c, 0, 56, 63
1, 78803, Note_on_c, 0, 63, 75
1, 78837, Note_off_c, 0, 59, 37
1, 78870, Note_off_c, 0, 62, 62
1, 78923, Poly_aftertouch_c, 0, 66, 127
1, 78927, Note_on_c, 0, 51, 61
1, 78957, Note_off_c, 0, 56, 60
1, 78957, Control_c, 0, 64, 97
1, 78960, Note_off_c, 0, 63, 60
1, 78984, Poly_aftertouch_c, 0, 66, 0
1, 78987, Control_c, 0, 64, 97
1, 79002, Control_c, 0, 64, 98
1, 79120, Control_c, 0, 64, 95
1, 79136, Control_c, 0, 64, 87
1, 79151, Control_c, 0, 64, 75
1, 79160, Note_on_c, 0, 55, 59
1, 79160, Note_on_c, 0, 70, 73
1, 79166, Control_c, 0, 64, 62
1, 79168, Note_on_c, 0, 59, 53
1, 79169, Note_on_c, 0, 63, 50
1, 79173, Note_off_c, 0, 51, 42
1, 79181, Control_c, 0, 64, 0
1, 79284, Control_c, 0, 64, 58
1, 79306, Control_c, 0, 64, 67
1, 79321, Control_c, 0, 64, 73
1, 79325, Note_on_c, 0, 68, 79
1, 79336, Control_c, 0, 64, 80
1, 79351, Control_c, 0, 64, 86
1, 79366, Control_c, 0, 64, 90
1, 79374, Note_off_c, 0, 63, 63
1, 79375, Note_off_c, 0, 59, 57
1, 79381, Control_c, 0, 64, 93
1, 79396, Control_c, 0, 64, 94
1, 79410, Control_c, 0, 64, 95
1, 79425, Control_c, 0, 64, 97
1, 79428, Note_off_c, 0, 70, 0
1, 79440, Control_c, 0, 64, 99
1, 79447, Note_on_c, 0, 54, 72
1, 79452, Note_on_c, 0, 63, 80
1, 79454, Control_c, 0, 64, 101
1, 79469, Control_c, 0, 64, 104
1, 79484, Control_c, 0, 64, 107
1, 79493, Poly_aftertouch_c, 0, 70, 0
1, 79499, Control_c, 0, 64, 110
1, 79514, Control_c, 0, 64, 114
1, 79525, Note_off_c, 0, 55, 60
1, 79528, Control_c, 0, 64, 120
1, 79543, Control_c, 0, 64, 127
1, 79560, Note_on_c, 0, 59, 80
1, 79591, Note_off_c, 0, 63, 63
1, 79598, Note_off_c, 0, 59, 61
1, 79607, Note_off_c, 0, 54, 32
1, 79635, Note_off_c, 0, 68, 63
1, 79662, Control_c, 0, 64, 109
1, 79677, Control_c, 0, 64, 89
1, 79685, Note_on_c, 0, 73, 91
1, 79691, Note_on_c, 0, 62, 75
1, 79692, Note_on_c, 0, 53, 74
1, 79692, Control_c, 0, 64, 71
1, 79694, Note_on_c, 0, 58, 75
1, 79700, Note_on_c, 0, 66, 71
1, 79707, Control_c, 0, 64, 20
1, 79722, Control_c, 0, 64, 0
1, 79766, Control_c, 0, 64, 66
1, 79781, Control_c, 0, 64, 75
1, 79796, Control_c, 0, 64, 84
1, 79809, Note_on_c, 0, 71, 81
1, 79810, Control_c, 0, 64, 90
1, 79825, Control_c, 0, 64, 93
1, 79840, Control_c, 0, 64, 97
1, 79843, Note_off_c, 0, 66, 62
1, 79855, Control_c, 0, 64, 100
1, 79861, Note_off_c, 0, 73, 60
1, 79870, Control_c, 0, 64, 102
1, 79874, Note_off_c, 0, 62, 52
1, 79884, Control_c, 0, 64, 103
1, 79903, Note_off_c, 0, 53, 62
1, 79914, Note_off_c, 0, 58, 63
1, 79929, Note_on_c, 0, 59, 87
1, 79932, Note_on_c, 0, 51, 78
1, 79938, Note_on_c, 0, 66, 94
1, 79974, Control_c, 0, 64, 103
1, 79989, Control_c, 0, 64, 104
1, 80004, Control_c, 0, 64, 106
1, 80007, Note_off_c, 0, 59, 65
1, 80010, Note_off_c, 0, 51, 60
1, 80019, Control_c, 0, 64, 111
1, 80033, Control_c, 0, 64, 121
1, 80051, Note_on_c, 0, 62, 83
1, 80056, Control_c, 0, 64, 127
1, 80070, Note_off_c, 0, 66, 65
1, 80077, Note_off_c, 0, 62, 66
1, 80102, Note_off_c, 0, 71, 62
1, 80159, Control_c, 0, 64, 102
1, 80174, Control_c, 0, 64, 84
1, 80180, Note_on_c, 0, 61, 86
1, 80180, Note_on_c, 0, 78, 94
1, 80183, Note_on_c, 0, 67, 82
1, 80189, Control_c, 0, 64, 68
1, 80191, Note_on_c, 0, 72, 69
1, 80192, Note_on_c, 0, 71, 77
1, 80195, Note_on_c, 0, 51, 73
1, 80204, Control_c, 0, 64, 11
1, 80209, Note_on_c, 0, 69, 53
1, 80210, Note_off_c, 0, 69, 127
1, 80219, Control_c, 0, 64, 0
1, 80233, Control_c, 0, 64, 42
1, 80236, Note_on_c, 0, 54, 11
1, 80248, Control_c, 0, 64, 65
1, 80263, Control_c, 0, 64, 74
1, 80270, Note_off_c, 0, 51, 52
1, 80271, Note_off_c, 0, 78, 60
1, 80275, Note_off_c, 0, 72, 64
1, 80278, Control_c, 0, 64, 83
1, 80283, Note_off_c, 0, 54, 38
1, 80293, Control_c, 0, 64, 91
1, 80300, Note_on_c, 0, 76, 86
1, 80308, Control_c, 0, 64, 95
1, 80323, Control_c, 0, 64, 99
1, 80329, Note_off_c, 0, 71, 58
1, 80336, Note_off_c, 0, 67, 57
1, 80338, Control_c, 0, 64, 103
1, 80346, Note_off_c, 0, 76, 68
1, 80352, Control_c, 0, 64, 106
1, 80367, Control_c, 0, 64, 107
1, 80394, Note_off_c, 0, 61, 60
1, 80397, Control_c, 0, 64, 106
1, 80412, Control_c, 0, 64, 100
1, 80426, Control_c, 0, 64, 87
1, 80441, Control_c, 0, 64, 75
1, 80446, Note_on_c, 0, 62, 82
1, 80446, Note_on_c, 0, 71, 96
1, 80450, Note_on_c, 0, 50, 81
1, 80451, Note_on_c, 0, 64, 90
1, 80456, Control_c, 0, 64, 66
1, 80461, Note_on_c, 0, 67, 65
1, 80470, Note_on_c, 0, 65, 65
1, 80470, Note_off_c, 0, 62, 67
1, 80471, Control_c, 0, 64, 65
1, 80483, Note_off_c, 0, 50, 64
1, 80485, Control_c, 0, 64, 69
1, 80488, Note_off_c, 0, 65, 68
1, 80500, Note_off_c, 0, 67, 46
1, 80500, Control_c, 0, 64, 77
1, 80515, Control_c, 0, 64, 88
1, 80530, Control_c, 0, 64, 95
1, 80545, Control_c, 0, 64, 98
1, 80559, Control_c, 0, 64, 101
1, 80574, Control_c, 0, 64, 105
1, 80583, Note_on_c, 0, 67, 95
1, 80589, Control_c, 0, 64, 110
1, 80591, Note_off_c, 0, 64, 61
1, 80603, Control_c, 0, 64, 114
1, 80606, Note_off_c, 0, 71, 61
1, 80618, Control_c, 0, 64, 117
1, 80632, Note_off_c, 0, 67, 63
1, 80633, Control_c, 0, 64, 120
1, 80648, Control_c, 0, 64, 125
1, 80663, Control_c, 0, 64, 127
1, 80753, Control_c, 0, 64, 120
1, 80767, Control_c, 0, 64, 102
1, 80782, Control_c, 0, 64, 84
1, 80787, Note_on_c, 0, 64, 70
1, 80795, Note_on_c, 0, 55, 86
1, 80805, Note_on_c, 0, 49, 90
1, 80805, Control_c, 0, 64, 62
1, 80808, Note_on_c, 0, 58, 88
1, 80820, Control_c, 0, 64, 0
1, 80997, Control_c, 0, 64, 73
1, 81012, Control_c, 0, 64, 86
1, 81027, Control_c, 0, 64, 99
1, 81032, Note_off_c, 0, 55, 62
1, 81042, Control_c, 0, 64, 101
1, 81056, Control_c, 0, 64, 102
1, 81071, Control_c, 0, 64, 103
1, 81086, Control_c, 0, 64, 105
1, 81101, Control_c, 0, 64, 110
1, 81116, Control_c, 0, 64, 114
1, 81121, Note_off_c, 0, 58, 63
1, 81130, Note_off_c, 0, 64, 0
1, 81130, Control_c, 0, 64, 117
1, 81131, Note_off_c, 0, 49, 57
1, 81136, Note_on_c, 0, 65, 94
1, 81145, Control_c, 0, 64, 120
1, 81160, Control_c, 0, 64, 127
1, 81181, Poly_aftertouch_c, 0, 64, 0
1, 81226, Poly_aftertouch_c, 0, 64, 0
1, 81338, Control_c, 0, 64, 110
1, 81353, Control_c, 0, 64, 83
1, 81368, Control_c, 0, 64, 52
1, 81373, Note_off_c, 0, 65, 59
1, 81379, Note_on_c, 0, 63, 90
1, 81381, Note_on_c, 0, 48, 79
1, 81381, Note_on_c, 0, 52, 79
1, 81382, Control_c, 0, 64, 0
1, 81384, Note_on_c, 0, 41, 75
1, 81387, Note_on_c, 0, 57, 76
1, 81412, Control_c, 0, 64, 51
1, 81421, Note_off_c, 0, 57, 63
1, 81426, Control_c, 0, 64, 75
1, 81441, Control_c, 0, 64, 91
1, 81447, Note_off_c, 0, 63, 65
1, 81456, Control_c, 0, 64, 109
1, 81469, Note_on_c, 0, 72, 84
1, 81471, Control_c, 0, 64, 118
1, 81478, Note_off_c, 0, 52, 61
1, 81486, Control_c, 0, 64, 120
1, 81500, Control_c, 0, 64, 126
1, 81512, Note_off_c, 0, 72, 57
1, 81515, Control_c, 0, 64, 127
1, 81576, Note_on_c, 0, 66, 84
1, 81654, Note_on_c, 0, 69, 82
1, 81668, Note_on_c, 0, 53, 92
1, 81685, Note_off_c, 0, 66, 64
1, 81752, Note_on_c, 0, 76, 87
1, 81752, Poly_aftertouch_c, 0, 46, 127
1, 81759, Note_off_c, 0, 41, 60
1, 81772, Note_off_c, 0, 69, 66
1, 81778, Note_off_c, 0, 48, 64
1, 81792, Poly_aftertouch_c, 0, 46, 0
1, 81834, Note_off_c, 0, 53, 66
1, 81841, Note_on_c, 0, 75, 92
1, 81848, Note_off_c, 0, 76, 68
1, 81891, Note_off_c, 0, 75, 64
1, 81983, Control_c, 0, 64, 114
1, 81998, Control_c, 0, 64, 92
1, 81998, Note_on_c, 0, 78, 91
1, 81998, Note_on_c, 0, 85, 92
1, 82004, Note_on_c, 0, 73, 84
1, 82013, Control_c, 0, 64, 72
1, 82028, Control_c, 0, 64, 0
1, 82113, Note_on_c, 0, 60, 74
1, 82146, Control_c, 0, 64, 70
1, 82161, Control_c, 0, 64, 82
1, 82176, Control_c, 0, 64, 94
1, 82191, Control_c, 0, 64, 102
1, 82203, Note_off_c, 0, 60, 54
1, 82205, Control_c, 0, 64, 106
1, 82216, Note_on_c, 0, 54, 78
1, 82220, Control_c, 0, 64, 111
1, 82227, Note_off_c, 0, 73, 60
1, 82235, Control_c, 0, 64, 114
1, 82249, Control_c, 0, 64, 115
1, 82269, Note_off_c, 0, 85, 63
1, 82327, Note_on_c, 0, 84, 89
1, 82330, Note_on_c, 0, 57, 70
1, 82335, Note_on_c, 0, 72, 78
1, 82414, Note_off_c, 0, 57, 62
1, 82436, Note_on_c, 0, 64, 76
1, 82436, Note_off_c, 0, 84, 62
1, 82440, Note_off_c, 0, 72, 60
1, 82514, Note_off_c, 0, 78, 62
1, 82560, Note_on_c, 0, 63, 70
1, 82592, Note_off_c, 0, 64, 60
1, 82602, Note_off_c, 0, 54, 56
1, 82658, Control_c, 0, 64, 114
1, 82672, Control_c, 0, 64, 110
1, 82687, Control_c, 0, 64, 102
1, 82702, Control_c, 0, 64, 91
1, 82715, Note_on_c, 0, 82, 83
1, 82717, Control_c, 0, 64, 76
1, 82723, Note_off_c, 0, 63, 59
1, 82724, Note_on_c, 0, 61, 62
1, 82724, Note_on_c, 0, 77, 70
1, 82729, Note_on_c, 0, 70, 68
1, 82732, Control_c, 0, 64, 63
1, 82746, Control_c, 0, 64, 0
1, 82880, Control_c, 0, 64, 47
1, 82895, Control_c, 0, 64, 68
1, 82910, Control_c, 0, 64, 77
1, 82925, Control_c, 0, 64, 84
1, 82940, Control_c, 0, 64, 88
1, 82954, Control_c, 0, 64, 90
1, 82969, Control_c, 0, 64, 92
1, 82978, Note_off_c, 0, 82, 60
1, 82984, Control_c, 0, 64, 93
1, 82998, Control_c, 0, 64, 94
1, 83006, Note_off_c, 0, 70, 60
1, 83013, Control_c, 0, 64, 94
1, 83028, Control_c, 0, 64, 95
1, 83029, Note_off_c, 0, 61, 61
1, 83031, Note_on_c, 0, 60, 58
1, 83050, Control_c, 0, 64, 95
1, 83065, Control_c, 0, 64, 96
1, 83080, Control_c, 0, 64, 97
1, 83095, Control_c, 0, 64, 99
1, 83110, Control_c, 0, 64, 100
1, 83125, Control_c, 0, 64, 102
1, 83140, Control_c, 0, 64, 103
1, 83155, Control_c, 0, 64, 104
1, 83157, Note_on_c, 0, 80, 79
1, 83163, Note_on_c, 0, 68, 68
1, 83170, Control_c, 0, 64, 106
1, 83184, Control_c, 0, 64, 108
1, 83199, Control_c, 0, 64, 111
1, 83214, Control_c, 0, 64, 114
1, 83229, Control_c, 0, 64, 115
1, 83231, Note_off_c, 0, 68, 58
1, 83244, Control_c, 0, 64, 116
1, 83252, Note_off_c, 0, 77, 57
1, 83303, Control_c, 0, 64, 114
1, 83318, Control_c, 0, 64, 105
1, 83333, Control_c, 0, 64, 92
1, 83348, Control_c, 0, 64, 78
1, 83348, Note_on_c, 0, 78, 79
1, 83352, Note_off_c, 0, 60, 57
1, 83358, Note_on_c, 0, 73, 54
1, 83360, Note_on_c, 0, 58, 48
1, 83360, Note_on_c, 0, 66, 53
1, 83363, Control_c, 0, 64, 63
1, 83377, Control_c, 0, 64, 0
1, 83481, Control_c, 0, 64, 51
1, 83485, Note_off_c, 0, 80, 34
1, 83495, Control_c, 0, 64, 67
1, 83510, Control_c, 0, 64, 74
1, 83525, Control_c, 0, 64, 79
1, 83540, Control_c, 0, 64, 82
1, 83555, Control_c, 0, 64, 85
1, 83569, Control_c, 0, 64, 88
1, 83584, Control_c, 0, 64, 92
1, 83599, Control_c, 0, 64, 94
1, 83643, Control_c, 0, 64, 93
1, 83658, Control_c, 0, 64, 93
1, 83666, Note_off_c, 0, 78, 61
1, 83670, Note_on_c, 0, 56, 53
1, 83673, Note_off_c, 0, 66, 59
1, 83673, Control_c, 0, 64, 92
1, 83759, Note_off_c, 0, 58, 37
1, 83768, Note_off_c, 0, 56, 62
1, 83809, Note_on_c, 0, 77, 67
1, 83819, Note_on_c, 0, 65, 50
1, 83824, Note_off_c, 0, 73, 64
1, 83868, Note_off_c, 0, 65, 51
1, 84007, Control_c, 0, 64, 90
1, 84022, Control_c, 0, 64, 83
1, 84035, Note_on_c, 0, 80, 73
1, 84037, Control_c, 0, 64, 73
1, 84049, Note_off_c, 0, 77, 53
1, 84049, Note_on_c, 0, 68, 46
1, 84052, Control_c, 0, 64, 60
1, 84052, Note_on_c, 0, 60, 49
1, 84055, Note_on_c, 0, 55, 41
1, 84061, Note_on_c, 0, 64, 39
1, 84061, Note_on_c, 0, 71, 50
1, 84067, Control_c, 0, 64, 0
1, 84200, Control_c, 0, 64, 41
1, 84215, Control_c, 0, 64, 64
1, 84230, Control_c, 0, 64, 70
1, 84244, Control_c, 0, 64, 76
1, 84251, Note_off_c, 0, 71, 62
1, 84259, Control_c, 0, 64, 82
1, 84261, Note_off_c, 0, 68, 63
1, 84274, Control_c, 0, 64, 86
1, 84289, Control_c, 0, 64, 89
1, 84304, Control_c, 0, 64, 91
1, 84318, Control_c, 0, 64, 92
1, 84333, Control_c, 0, 64, 93
1, 84378, Control_c, 0, 64, 92
1, 84392, Control_c, 0, 64, 88
1, 84407, Control_c, 0, 64, 80
1, 84422, Control_c, 0, 64, 70
1, 84431, Note_on_c, 0, 70, 53
1, 84436, Note_on_c, 0, 67, 47
1, 84436, Control_c, 0, 64, 61
1, 84451, Control_c, 0, 64, 60
1, 84466, Control_c, 0, 64, 65
1, 84481, Control_c, 0, 64, 70
1, 84496, Control_c, 0, 64, 77
1, 84502, Note_off_c, 0, 55, 53
1, 84511, Control_c, 0, 64, 83
1, 84522, Note_off_c, 0, 64, 63
1, 84526, Control_c, 0, 64, 87
1, 84548, Control_c, 0, 64, 90
1, 84563, Control_c, 0, 64, 93
1, 84564, Note_off_c, 0, 60, 62
1, 84567, Note_off_c, 0, 67, 55
1, 84578, Control_c, 0, 64, 96
1, 84592, Control_c, 0, 64, 98
1, 84607, Control_c, 0, 64, 99
1, 84622, Control_c, 0, 64, 99
1, 84637, Control_c, 0, 64, 100
1, 84651, Control_c, 0, 64, 101
1, 84681, Control_c, 0, 64, 101
1, 84808, Note_off_c, 0, 70, 55
1, 84816, Control_c, 0, 64, 100
1, 84830, Control_c, 0, 64, 91
1, 84845, Control_c, 0, 64, 80
1, 84859, Note_on_c, 0, 71, 57
1, 84860, Control_c, 0, 64, 68
1, 84863, Note_on_c, 0, 67, 72
1, 84871, Note_on_c, 0, 60, 55
1, 84874, Control_c, 0, 64, 45
1, 84881, Note_on_c, 0, 56, 51
1, 84889, Control_c, 0, 64, 0
1, 85067, Control_c, 0, 64, 64
1, 85082, Control_c, 0, 64, 71
1, 85097, Control_c, 0, 64, 78
1, 85112, Control_c, 0, 64, 84
1, 85127, Control_c, 0, 64, 88
1, 85141, Control_c, 0, 64, 93
1, 85156, Control_c, 0, 64, 96
1, 85171, Control_c, 0, 64, 98
1, 85186, Control_c, 0, 64, 100
1, 85200, Control_c, 0, 64, 102
1, 85215, Control_c, 0, 64, 103
1, 85217, Note_on_c, 0, 72, 68
1, 85218, Note_off_c, 0, 67, 63
1, 85230, Control_c, 0, 64, 104
1, 85245, Control_c, 0, 64, 105
1, 85252, Note_off_c, 0, 71, 52
1, 85260, Control_c, 0, 64, 105
1, 85274, Control_c, 0, 64, 106
1, 85312, Control_c, 0, 64, 106
1, 85327, Control_c, 0, 64, 107
1, 85331, Note_off_c, 0, 60, 58
1, 85378, Note_on_c, 0, 66, 75
1, 85392, Note_off_c, 0, 80, 59
1, 85445, Control_c, 0, 64, 107
1, 85454, Note_off_c, 0, 56, 34
1, 85497, Note_off_c, 0, 66, 62
1, 85504, Control_c, 0, 64, 108
1, 85565, Control_c, 0, 64, 105
1, 85579, Control_c, 0, 64, 96
1, 85580, Note_on_c, 0, 66, 90
1, 85589, Note_on_c, 0, 59, 73
1, 85593, Note_on_c, 0, 55, 70
1, 85594, Control_c, 0, 64, 79
1, 85609, Control_c, 0, 64, 64
1, 85623, Control_c, 0, 64, 0
1, 85697, Control_c, 0, 64, 65
1, 85703, Note_on_c, 0, 77, 76
1, 85712, Control_c, 0, 64, 74
1, 85714, Note_off_c, 0, 72, 63
1, 85727, Control_c, 0, 64, 82
1, 85742, Control_c, 0, 64, 88
1, 85757, Control_c, 0, 64, 92
1, 85772, Control_c, 0, 64, 94
1, 85787, Control_c, 0, 64, 96
1, 85801, Note_on_c, 0, 73, 87
1, 85802, Control_c, 0, 64, 98
1, 85816, Control_c, 0, 64, 100
1, 85817, Note_off_c, 0, 66, 61
1, 85825, Note_off_c, 0, 77, 60
1, 85831, Control_c, 0, 64, 101
1, 85846, Control_c, 0, 64, 103
1, 85861, Control_c, 0, 64, 104
1, 85874, Note_off_c, 0, 73, 65
1, 85876, Control_c, 0, 64, 105
1, 85885, Note_on_c, 0, 65, 89
1, 85885, Note_on_c, 0, 74, 82
1, 85890, Control_c, 0, 64, 106
1, 85905, Control_c, 0, 64, 108
1, 85920, Control_c, 0, 64, 109
1, 85924, Note_off_c, 0, 59, 61
1, 85935, Control_c, 0, 64, 109
1, 85948, Note_off_c, 0, 55, 63
1, 85950, Control_c, 0, 64, 110
1, 85964, Control_c, 0, 64, 112
1, 85979, Control_c, 0, 64, 114
1, 85983, Note_on_c, 0, 81, 89
1, 85989, Note_off_c, 0, 74, 63
1, 85994, Control_c, 0, 64, 116
1, 86009, Control_c, 0, 64, 119
1, 86023, Control_c, 0, 64, 124
1, 86046, Control_c, 0, 64, 127
1, 86072, Note_on_c, 0, 80, 90
1, 86073, Note_off_c, 0, 65, 53
1, 86087, Note_off_c, 0, 81, 60
1, 86127, Note_off_c, 0, 80, 66
1, 86165, Control_c, 0, 64, 95
1, 86177, Note_on_c, 0, 87, 101
1, 86179, Control_c, 0, 64, 73
1, 86180, Note_on_c, 0, 65, 98
1, 86180, Note_on_c, 0, 75, 104
1, 86181, Note_on_c, 0, 82, 93
1, 86184, Note_on_c, 0, 58, 83
1, 86189, Note_on_c, 0, 54, 80
1, 86194, Control_c, 0, 64, 0
1, 86268, Control_c, 0, 64, 66
1, 86283, Control_c, 0, 64, 78
1, 86297, Control_c, 0, 64, 93
1, 86314, Control_c, 0, 64, 106
1, 86329, Control_c, 0, 64, 111
1, 86344, Control_c, 0, 64, 112
1, 86359, Control_c, 0, 64, 115
1, 86374, Control_c, 0, 64, 120
1, 86378, Note_off_c, 0, 75, 61
1, 86388, Control_c, 0, 64, 125
1, 86403, Control_c, 0, 64, 127
1, 86416, Note_off_c, 0, 87, 61
1, 86418, Control_c, 0, 64, 127
1, 86476, Note_off_c, 0, 65, 54
1, 86488, Note_on_c, 0, 86, 96
1, 86493, Note_on_c, 0, 74, 90
1, 86573, Note_off_c, 0, 74, 63
1, 86585, Note_off_c, 0, 86, 63
1, 86642, Note_on_c, 0, 64, 85
1, 86647, Note_off_c, 0, 82, 63
1, 86686, Note_off_c, 0, 58, 63
1, 86705, Note_off_c, 0, 54, 58
1, 86723, Note_off_c, 0, 64, 67
1, 86869, Control_c, 0, 64, 106
1, 86880, Note_on_c, 0, 57, 60
1, 86881, Note_on_c, 0, 90, 100
1, 86884, Control_c, 0, 64, 88
1, 86885, Note_on_c, 0, 78, 94
1, 86885, Note_on_c, 0, 81, 91
1, 86890, Note_on_c, 0, 63, 88
1, 86892, Note_on_c, 0, 53, 70
1, 86899, Control_c, 0, 64, 72
1, 86914, Control_c, 0, 64, 23
1, 86919, Note_on_c, 0, 85, 46
1, 86928, Control_c, 0, 64, 0
1, 86945, Note_off_c, 0, 85, 54
1, 87003, Control_c, 0, 64, 59
1, 87018, Control_c, 0, 64, 76
1, 87033, Control_c, 0, 64, 95
1, 87047, Control_c, 0, 64, 110
1, 87058, Note_off_c, 0, 90, 66
1, 87061, Control_c, 0, 64, 113
1, 87076, Control_c, 0, 64, 114
1, 87091, Control_c, 0, 64, 116
1, 87100, Note_off_c, 0, 81, 62
1, 87105, Note_off_c, 0, 78, 60
1, 87106, Control_c, 0, 64, 117
1, 87137, Control_c, 0, 64, 118
1, 87211, Note_off_c, 0, 63, 64
1, 87310, Note_on_c, 0, 81, 71
1, 87315, Note_on_c, 0, 69, 70
1, 87318, Note_on_c, 0, 78, 66
1, 87412, Poly_aftertouch_c, 0, 79, 0
1, 87466, Note_on_c, 0, 62, 68
1, 87487, Note_off_c, 0, 69, 66
1, 87514, Note_off_c, 0, 62, 57
1, 87626, Note_on_c, 0, 62, 79
1, 87644, Note_off_c, 0, 81, 58
1, 87706, Control_c, 0, 64, 118
1, 87751, Control_c, 0, 64, 119
1, 87757, Note_off_c, 0, 78, 63
1, 87887, Note_on_c, 0, 61, 86
1, 87922, Note_off_c, 0, 62, 60
1, 88034, Control_c, 0, 64, 119
1, 88048, Control_c, 0, 64, 120
1, 88063, Control_c, 0, 64, 120
1, 88107, Control_c, 0, 64, 116
1, 88122, Control_c, 0, 64, 99
1, 88134, Note_on_c, 0, 82, 89
1, 88134, Note_on_c, 0, 87, 97
1, 88134, Note_off_c, 0, 61, 62
1, 88137, Control_c, 0, 64, 79
1, 88139, Note_on_c, 0, 60, 80
1, 88139, Note_on_c, 0, 75, 91
1, 88145, Note_off_c, 0, 57, 60
1, 88148, Note_off_c, 0, 53, 38
1, 88152, Control_c, 0, 64, 48
1, 88166, Control_c, 0, 64, 0
1, 88225, Control_c, 0, 64, 67
1, 88240, Control_c, 0, 64, 80
1, 88255, Control_c, 0, 64, 96
1, 88270, Control_c, 0, 64, 112
1, 88292, Control_c, 0, 64, 115
1, 88307, Control_c, 0, 64, 115
1, 88322, Control_c, 0, 64, 118
1, 88335, Note_off_c, 0, 75, 59
1, 88337, Control_c, 0, 64, 120
1, 88352, Control_c, 0, 64, 122
1, 88366, Control_c, 0, 64, 123
1, 88368, Note_off_c, 0, 87, 61
1, 88381, Control_c, 0, 64, 123
1, 88411, Control_c, 0, 64, 124
1, 88422, Note_on_c, 0, 86, 97
1, 88425, Note_on_c, 0, 74, 91
1, 88425, Control_c, 0, 64, 124
1, 88440, Control_c, 0, 64, 125
1, 88455, Control_c, 0, 64, 125
1, 88470, Control_c, 0, 64, 127
1, 88499, Note_off_c, 0, 74, 63
1, 88517, Note_off_c, 0, 86, 59
1, 88553, Note_on_c, 0, 58, 82
1, 88562, Note_off_c, 0, 82, 64
1, 88610, Note_off_c, 0, 60, 61
1, 88738, Note_off_c, 0, 58, 63
1, 88753, Control_c, 0, 64, 107
1, 88764, Note_on_c, 0, 90, 94
1, 88766, Note_on_c, 0, 83, 82
1, 88768, Control_c, 0, 64, 88
1, 88772, Note_on_c, 0, 62, 79
1, 88772, Note_on_c, 0, 78, 86
1, 88773, Note_on_c, 0, 56, 74
1, 88775, Note_on_c, 0, 80, 81
1, 88782, Control_c, 0, 64, 70
1, 88784, Note_on_c, 0, 52, 66
1, 88797, Control_c, 0, 64, 0
1, 88901, Control_c, 0, 64, 61
1, 88915, Control_c, 0, 64, 78
1, 88930, Control_c, 0, 64, 96
1, 88937, Note_off_c, 0, 90, 65
1, 88945, Control_c, 0, 64, 107
1, 88951, Note_off_c, 0, 83, 62
1, 88960, Control_c, 0, 64, 107
1, 88975, Control_c, 0, 64, 108
1, 88979, Note_off_c, 0, 78, 63
1, 88984, Note_off_c, 0, 80, 65
1, 88989, Control_c, 0, 64, 109
1, 89004, Control_c, 0, 64, 110
1, 89019, Control_c, 0, 64, 111
1, 89041, Control_c, 0, 64, 111
1, 89071, Control_c, 0, 64, 112
1, 89086, Control_c, 0, 64, 112
1, 89116, Note_on_c, 0, 80, 79
1, 89116, Note_off_c, 0, 62, 59
1, 89127, Note_on_c, 0, 68, 68
1, 89225, Note_off_c, 0, 68, 63
1, 89250, Note_on_c, 0, 61, 60
1, 89284, Note_off_c, 0, 61, 62
1, 89393, Note_on_c, 0, 61, 85
1, 89456, Control_c, 0, 64, 113
1, 89472, Note_off_c, 0, 56, 65
1, 89486, Control_c, 0, 64, 113
1, 89498, Note_off_c, 0, 52, 53
1, 89501, Control_c, 0, 64, 114
1, 89532, Control_c, 0, 64, 116
1, 89546, Control_c, 0, 64, 120
1, 89561, Control_c, 0, 64, 124
1, 89576, Control_c, 0, 64, 127
1, 89647, Note_on_c, 0, 60, 90
1, 89681, Note_off_c, 0, 61, 60
1, 89870, Note_off_c, 0, 80, 64
1, 89879, Control_c, 0, 64, 118
1, 89890, Note_on_c, 0, 59, 84
1, 89894, Control_c, 0, 64, 85
1, 89895, Note_on_c, 0, 87, 98
1, 89896, Note_on_c, 0, 79, 84
1, 89899, Note_on_c, 0, 75, 86
1, 89907, Note_off_c, 0, 60, 58
1, 89909, Control_c, 0, 64, 60
1, 89924, Control_c, 0, 64, 0
1, 89984, Control_c, 0, 64, 67
1, 89998, Control_c, 0, 64, 82
1, 90013, Control_c, 0, 64, 99
1, 90028, Control_c, 0, 64, 113
1, 90043, Control_c, 0, 64, 120
1, 90056, Control_c, 0, 64, 127
1, 90065, Note_off_c, 0, 75, 63
1, 90085, Note_off_c, 0, 87, 61
1, 90144, Note_on_c, 0, 74, 96
1, 90144, Note_on_c, 0, 86, 97
1, 90177, Note_off_c, 0, 79, 64
1, 90231, Note_off_c, 0, 74, 62
1, 90252, Note_off_c, 0, 59, 60
1, 90255, Note_on_c, 0, 60, 89
1, 90260, Note_off_c, 0, 86, 62
1, 90410, Note_off_c, 0, 60, 59
1, 90457, Control_c, 0, 64, 104
1, 90465, Note_on_c, 0, 90, 112
1, 90467, Note_on_c, 0, 78, 103
1, 90467, Note_on_c, 0, 85, 96
1, 90470, Note_on_c, 0, 61, 82
1, 90471, Note_on_c, 0, 80, 93
1, 90472, Control_c, 0, 64, 74
1, 90476, Note_on_c, 0, 56, 88
1, 90481, Note_on_c, 0, 51, 90
1, 90486, Control_c, 0, 64, 0
1, 90553, Control_c, 0, 64, 69
1, 90568, Control_c, 0, 64, 91
1, 90583, Control_c, 0, 64, 122
1, 90598, Control_c, 0, 64, 127
1, 90614, Note_off_c, 0, 80, 63
1, 90621, Note_off_c, 0, 51, 61
1, 90622, Note_off_c, 0, 85, 64
1, 90632, Note_off_c, 0, 78, 64
1, 90634, Note_off_c, 0, 90, 62
1, 90673, Note_off_c, 0, 56, 64
1, 90678, Note_off_c, 0, 61, 63
1, 90788, Note_on_c, 0, 88, 95
1, 90792, Note_on_c, 0, 76, 94
1, 90792, Note_on_c, 0, 83, 86
1, 90793, Note_on_c, 0, 78, 96
1, 90837, Note_on_c, 0, 85, 29
1, 90863, Note_off_c, 0, 83, 61
1, 90871, Note_off_c, 0, 85, 44
1, 90878, Note_off_c, 0, 88, 59
1, 90918, Note_on_c, 0, 69, 99
1, 90922, Note_off_c, 0, 76, 59
1, 91003, Note_off_c, 0, 78, 62
1, 91041, Note_on_c, 0, 86, 100
1, 91042, Note_on_c, 0, 81, 98
1, 91042, Note_on_c, 0, 76, 92
1, 91045, Note_on_c, 0, 74, 93
1, 91074, Note_off_c, 0, 69, 71
1, 91149, Note_off_c, 0, 86, 61
1, 91167, Note_off_c, 0, 76, 62
1, 91173, Note_off_c, 0, 74, 66
1, 91230, Note_off_c, 0, 81, 64
1, 91263, Note_on_c, 0, 85, 95
1, 91263, Note_on_c, 0, 80, 99
1, 91267, Note_on_c, 0, 75, 95
1, 91374, Note_on_c, 0, 59, 92
1, 91397, Note_off_c, 0, 75, 56
1, 91426, Note_off_c, 0, 85, 58
1, 91435, Note_off_c, 0, 80, 42
1, 91468, Note_off_c, 0, 59, 63
1, 91495, Control_c, 0, 64, 121
1, 91507, Note_on_c, 0, 84, 103
1, 91508, Note_on_c, 0, 58, 100
1, 91509, Control_c, 0, 64, 87
1, 91513, Note_on_c, 0, 74, 92
1, 91515, Note_on_c, 0, 80, 95
1, 91524, Control_c, 0, 64, 0
1, 91598, Control_c, 0, 64, 67
1, 91613, Control_c, 0, 64, 84
1, 91628, Control_c, 0, 64, 104
1, 91642, Control_c, 0, 64, 119
1, 91656, Note_off_c, 0, 74, 62
1, 91657, Control_c, 0, 64, 120
1, 91672, Control_c, 0, 64, 122
1, 91687, Control_c, 0, 64, 127
1, 91695, Note_off_c, 0, 84, 60
1, 91702, Note_off_c, 0, 80, 62
1, 91723, Note_off_c, 0, 58, 58
1, 91752, Note_on_c, 0, 80, 91
1, 91753, Note_on_c, 0, 85, 101
1, 91755, Note_on_c, 0, 75, 98
1, 91850, Note_on_c, 0, 48, 86
1, 91854, Note_off_c, 0, 80, 61
1, 91857, Note_off_c, 0, 75, 61
1, 91860, Note_off_c, 0, 85, 63
1, 91996, Note_off_c, 0, 48, 64
1, 92036, Control_c, 0, 64, 115
1, 92047, Note_on_c, 0, 49, 92
1, 92051, Control_c, 0, 64, 82
1, 92052, Note_on_c, 0, 88, 105
1, 92054, Note_on_c, 0, 76, 105
1, 92055, Note_on_c, 0, 79, 98
1, 92056, Note_on_c, 0, 83, 95
1, 92065, Control_c, 0, 64, 0
1, 92085, Note_on_c, 0, 80, 47
1, 92086, Note_off_c, 0, 80, 127
1, 92228, Control_c, 0, 64, 74
1, 92243, Control_c, 0, 64, 97
1, 92258, Control_c, 0, 64, 120
1, 92273, Control_c, 0, 64, 124
1, 92288, Control_c, 0, 64, 127
1, 92337, Note_off_c, 0, 76, 56
1, 92338, Note_off_c, 0, 88, 55
1, 92350, Note_on_c, 0, 59, 92
1, 92352, Note_on_c, 0, 55, 82
1, 92451, Note_off_c, 0, 83, 0
1, 92464, Note_on_c, 0, 86, 96
1, 92466, Note_on_c, 0, 74, 87
1, 92479, Note_off_c, 0, 79, 59
1, 92480, Poly_aftertouch_c, 0, 83, 0
1, 92509, Note_off_c, 0, 59, 61
1, 92513, Note_off_c, 0, 74, 68
1, 92520, Note_off_c, 0, 49, 60
1, 92550, Note_off_c, 0, 55, 65
1, 92609, Note_on_c, 0, 85, 94
1, 92615, Note_on_c, 0, 73, 93
1, 92619, Note_off_c, 0, 86, 56
1, 92712, Note_off_c, 0, 85, 61
1, 92715, Note_off_c, 0, 73, 58
1, 92905, Note_on_c, 0, 83, 94
1, 92908, Note_on_c, 0, 71, 94
1, 92909, Note_on_c, 0, 70, 84
1, 92913, Note_on_c, 0, 65, 79
1, 92919, Note_on_c, 0, 62, 75
1, 92966, Note_off_c, 0, 71, 64
1, 93046, Note_off_c, 0, 65, 65
1, 93084, Note_off_c, 0, 70, 59
1, 93231, Note_off_c, 0, 83, 52
1, 93242, Note_on_c, 0, 61, 70
1, 93242, Note_on_c, 0, 86, 99
1, 93244, Control_c, 0, 64, 107
1, 93249, Note_on_c, 0, 71, 71
1, 93249, Note_on_c, 0, 81, 86
1, 93251, Note_on_c, 0, 76, 83
1, 93253, Note_on_c, 0, 66, 74
1, 93258, Note_off_c, 0, 62, 60
1, 93259, Control_c, 0, 64, 86
1, 93274, Control_c, 0, 64, 67
1, 93288, Control_c, 0, 64, 0
1, 93421, Control_c, 0, 64, 46
1, 93436, Control_c, 0, 64, 72
1, 93451, Control_c, 0, 64, 81
1, 93466, Control_c, 0, 64, 89
1, 93469, Note_off_c, 0, 76, 60
1, 93480, Control_c, 0, 64, 95
1, 93495, Control_c, 0, 64, 100
1, 93511, Control_c, 0, 64, 104
1, 93534, Control_c, 0, 64, 107
1, 93549, Control_c, 0, 64, 109
1, 93564, Control_c, 0, 64, 110
1, 93565, Note_off_c, 0, 71, 60
1, 93579, Control_c, 0, 64, 110
1, 93593, Control_c, 0, 64, 111
1, 93608, Control_c, 0, 64, 113
1, 93620, Note_off_c, 0, 61, 61
1, 93623, Control_c, 0, 64, 116
1, 93633, Note_off_c, 0, 66, 67
1, 93637, Control_c, 0, 64, 118
1, 93638, Note_on_c, 0, 76, 83
1, 93652, Control_c, 0, 64, 120
1, 93667, Control_c, 0, 64, 122
1, 93682, Control_c, 0, 64, 127
1, 93684, Note_off_c, 0, 81, 60
1, 93688, Note_off_c, 0, 86, 59
1, 93717, Note_off_c, 0, 76, 67
1, 93948, Control_c, 0, 64, 120
1, 93963, Control_c, 0, 64, 97
1, 93973, Note_on_c, 0, 79, 82
1, 93978, Control_c, 0, 64, 79
1, 93979, Note_on_c, 0, 52, 61
1, 93981, Note_on_c, 0, 74, 65
1, 93990, Note_on_c, 0, 69, 57
1, 93993, Control_c, 0, 64, 61
1, 94008, Control_c, 0, 64, 0
1, 94082, Control_c, 0, 64, 65
1, 94097, Control_c, 0, 64, 74
1, 94111, Control_c, 0, 64, 83
1, 94113, Note_on_c, 0, 53, 58
1, 94126, Control_c, 0, 64, 89
1, 94141, Control_c, 0, 64, 93
1, 94149, Note_off_c, 0, 52, 62
1, 94155, Control_c, 0, 64, 94
1, 94163, Note_off_c, 0, 53, 65
1, 94170, Control_c, 0, 64, 96
1, 94181, Note_off_c, 0, 69, 58
1, 94185, Control_c, 0, 64, 96
1, 94200, Control_c, 0, 64, 97
1, 94204, Note_on_c, 0, 60, 62
1, 94297, Control_c, 0, 64, 96
1, 94309, Note_off_c, 0, 60, 60
1, 94312, Control_c, 0, 64, 96
1, 94327, Control_c, 0, 64, 94
1, 94332, Note_on_c, 0, 54, 61
1, 94342, Control_c, 0, 64, 92
1, 94342, Note_on_c, 0, 69, 77
1, 94357, Control_c, 0, 64, 88
1, 94372, Control_c, 0, 64, 84
1, 94387, Control_c, 0, 64, 80
1, 94401, Control_c, 0, 64, 75
1, 94416, Control_c, 0, 64, 71
1, 94431, Control_c, 0, 64, 68
1, 94446, Control_c, 0, 64, 66
1, 94455, Note_on_c, 0, 57, 65
1, 94460, Control_c, 0, 64, 65
1, 94505, Control_c, 0, 64, 65
1, 94520, Control_c, 0, 64, 64
1, 94534, Control_c, 0, 64, 64
1, 94564, Control_c, 0, 64, 63
1, 94566, Note_off_c, 0, 57, 62
1, 94578, Control_c, 0, 64, 62
1, 94584, Note_on_c, 0, 64, 62
1, 94593, Control_c, 0, 64, 61
1, 94608, Control_c, 0, 64, 60
1, 94623, Control_c, 0, 64, 57
1, 94638, Control_c, 0, 64, 54
1, 94652, Control_c, 0, 64, 51
1, 94667, Control_c, 0, 64, 47
1, 94682, Control_c, 0, 64, 40
1, 94697, Control_c, 0, 64, 32
1, 94712, Control_c, 0, 64, 0
1, 94742, Note_on_c, 0, 63, 60
1, 94771, Note_off_c, 0, 64, 48
1, 94890, Control_c, 0, 64, 16
1, 94905, Control_c, 0, 64, 57
1, 94920, Control_c, 0, 64, 65
1, 94922, Note_off_c, 0, 69, 60
1, 94934, Control_c, 0, 64, 70
1, 94949, Control_c, 0, 64, 75
1, 94964, Control_c, 0, 64, 80
1, 94978, Control_c, 0, 64, 84
1, 94993, Control_c, 0, 64, 86
1, 95008, Control_c, 0, 64, 88
1, 95030, Control_c, 0, 64, 88
1, 95045, Control_c, 0, 64, 89
1, 95060, Control_c, 0, 64, 89
1, 95075, Control_c, 0, 64, 90
1, 95123, Note_on_c, 0, 69, 66
1, 95144, Note_off_c, 0, 74, 65
1, 95281, Note_off_c, 0, 63, 62
1, 95299, Note_on_c, 0, 62, 55
1, 95475, Control_c, 0, 64, 89
1, 95490, Control_c, 0, 64, 86
1, 95505, Control_c, 0, 64, 81
1, 95520, Control_c, 0, 64, 74
1, 95531, Note_on_c, 0, 78, 64
1, 95535, Control_c, 0, 64, 64
1, 95536, Note_on_c, 0, 70, 47
1, 95537, Note_on_c, 0, 61, 51
1, 95541, Note_on_c, 0, 76, 55
1, 95549, Control_c, 0, 64, 45
1, 95564, Control_c, 0, 64, 0
1, 95567, Note_off_c, 0, 62, 52
1, 95606, Note_off_c, 0, 79, 56
1, 95614, Note_off_c, 0, 69, 51
1, 95646, Note_off_c, 0, 54, 37
1, 95808, Control_c, 0, 64, 39
1, 95823, Control_c, 0, 64, 68
1, 95838, Control_c, 0, 64, 74
1, 95853, Control_c, 0, 64, 79
1, 95868, Control_c, 0, 64, 82
1, 95883, Control_c, 0, 64, 85
1, 95895, Note_off_c, 0, 78, 58
1, 95898, Control_c, 0, 64, 87
1, 95902, Note_off_c, 0, 76, 60
1, 95913, Control_c, 0, 64, 90
1, 95928, Control_c, 0, 64, 94
1, 95943, Control_c, 0, 64, 97
1, 95957, Note_on_c, 0, 54, 46
1, 95958, Control_c, 0, 64, 98
1, 95973, Control_c, 0, 64, 99
1, 95987, Control_c, 0, 64, 100
1, 95988, Note_off_c, 0, 70, 62
1, 96002, Control_c, 0, 64, 101
1, 96017, Control_c, 0, 64, 102
1, 96032, Control_c, 0, 64, 103
1, 96047, Control_c, 0, 64, 104
1, 96056, Note_off_c, 0, 61, 62
1, 96107, Control_c, 0, 64, 104
1, 96110, Note_off_c, 0, 54, 62
1, 96151, Control_c, 0, 64, 105
1, 96240, Control_c, 0, 64, 105
1, 96329, Control_c, 0, 64, 102
1, 96344, Control_c, 0, 64, 96
1, 96358, Control_c, 0, 64, 86
1, 96366, Note_on_c, 0, 67, 57
1, 96371, Note_on_c, 0, 57, 44
1, 96371, Note_on_c, 0, 62, 45
1, 96373, Control_c, 0, 64, 74
1, 96377, Note_on_c, 0, 40, 51
1, 96388, Control_c, 0, 64, 64
1, 96403, Control_c, 0, 64, 41
1, 96418, Control_c, 0, 64, 33
1, 96432, Control_c, 0, 64, 45
1, 96447, Control_c, 0, 64, 57
1, 96462, Control_c, 0, 64, 63
1, 96477, Control_c, 0, 64, 68
1, 96492, Control_c, 0, 64, 74
1, 96506, Control_c, 0, 64, 80
1, 96529, Control_c, 0, 64, 84
1, 96544, Control_c, 0, 64, 85
1, 96549, Note_on_c, 0, 41, 54
1, 96573, Control_c, 0, 64, 85
1, 96603, Control_c, 0, 64, 86
1, 96614, Note_off_c, 0, 57, 41
1, 96616, Note_off_c, 0, 40, 41
1, 96619, Note_off_c, 0, 41, 64
1, 96658, Note_on_c, 0, 48, 61
1, 96767, Control_c, 0, 64, 85
1, 96771, Note_on_c, 0, 57, 50
1, 96781, Note_off_c, 0, 48, 64
1, 96782, Control_c, 0, 64, 84
1, 96789, Note_on_c, 0, 42, 54
1, 96797, Control_c, 0, 64, 83
1, 96811, Control_c, 0, 64, 82
1, 96826, Control_c, 0, 64, 81
1, 96841, Control_c, 0, 64, 80
1, 96855, Control_c, 0, 64, 78
1, 96870, Control_c, 0, 64, 76
1, 96885, Control_c, 0, 64, 74
1, 96900, Control_c, 0, 64, 73
1, 96911, Note_on_c, 0, 45, 55
1, 96915, Control_c, 0, 64, 72
1, 96929, Control_c, 0, 64, 72
1, 96944, Control_c, 0, 64, 71
1, 96959, Control_c, 0, 64, 70
1, 96974, Control_c, 0, 64, 69
1, 96989, Control_c, 0, 64, 68
1, 97004, Control_c, 0, 64, 67
1, 97019, Control_c, 0, 64, 66
1, 97034, Control_c, 0, 64, 65
1, 97040, Note_off_c, 0, 45, 63
1, 97048, Control_c, 0, 64, 64
1, 97057, Note_on_c, 0, 52, 59
1, 97063, Control_c, 0, 64, 63
1, 97078, Control_c, 0, 64, 61
1, 97093, Control_c, 0, 64, 59
1, 97108, Control_c, 0, 64, 57
1, 97122, Control_c, 0, 64, 53
1, 97137, Control_c, 0, 64, 49
1, 97152, Control_c, 0, 64, 42
1, 97167, Control_c, 0, 64, 33
1, 97181, Control_c, 0, 64, 23
1, 97196, Control_c, 0, 64, 0
1, 97234, Note_on_c, 0, 51, 55
1, 97237, Note_off_c, 0, 52, 53
1, 97323, Control_c, 0, 64, 14
1, 97337, Control_c, 0, 64, 22
1, 97352, Control_c, 0, 64, 29
1, 97361, Note_off_c, 0, 57, 36
1, 97367, Control_c, 0, 64, 39
1, 97381, Control_c, 0, 64, 48
1, 97396, Control_c, 0, 64, 57
1, 97411, Control_c, 0, 64, 61
1, 97426, Control_c, 0, 64, 63
1, 97441, Control_c, 0, 64, 65
1, 97455, Control_c, 0, 64, 68
1, 97470, Control_c, 0, 64, 71
1, 97485, Control_c, 0, 64, 76
1, 97501, Control_c, 0, 64, 80
1, 97516, Control_c, 0, 64, 82
1, 97531, Control_c, 0, 64, 84
1, 97544, Control_c, 0, 64, 85
1, 97559, Control_c, 0, 64, 87
1, 97574, Control_c, 0, 64, 89
1, 97589, Control_c, 0, 64, 90
1, 97603, Control_c, 0, 64, 91
1, 97633, Control_c, 0, 64, 91
1, 97663, Control_c, 0, 64, 92
1, 97685, Note_on_c, 0, 57, 45
1, 97722, Note_off_c, 0, 62, 57
1, 97737, Control_c, 0, 64, 92
1, 97860, Note_off_c, 0, 51, 50
1, 97928, Note_on_c, 0, 50, 39
1, 98203, Control_c, 0, 64, 92
1, 98218, Control_c, 0, 64, 89
1, 98233, Control_c, 0, 64, 85
1, 98245, Note_on_c, 0, 49, 42
1, 98248, Control_c, 0, 64, 80
1, 98252, Note_on_c, 0, 58, 42
1, 98261, Note_on_c, 0, 66, 46
1, 98263, Control_c, 0, 64, 74
1, 98268, Note_on_c, 0, 64, 40
1, 98277, Control_c, 0, 64, 70
1, 98292, Control_c, 0, 64, 65
1, 98299, Note_off_c, 0, 42, 36
1, 98308, Control_c, 0, 64, 62
1, 98323, Control_c, 0, 64, 61
1, 98338, Control_c, 0, 64, 60
1, 98339, Note_off_c, 0, 50, 40
1, 98353, Note_off_c, 0, 57, 37
1, 98353, Control_c, 0, 64, 59
1, 98357, Note_off_c, 0, 67, 46
1, 98367, Control_c, 0, 64, 56
1, 98382, Control_c, 0, 64, 52
1, 98397, Control_c, 0, 64, 50
1, 98426, Control_c, 0, 64, 51
1, 98456, Control_c, 0, 64, 52
1, 98471, Control_c, 0, 64, 54
1, 98486, Control_c, 0, 64, 57
1, 98500, Control_c, 0, 64, 62
1, 98515, Control_c, 0, 64, 64
1, 98530, Control_c, 0, 64, 65
1, 98545, Control_c, 0, 64, 67
1, 98560, Control_c, 0, 64, 67
1, 98575, Control_c, 0, 64, 68
1, 98590, Control_c, 0, 64, 69
1, 98605, Control_c, 0, 64, 71
1, 98619, Control_c, 0, 64, 73
1, 98634, Control_c, 0, 64, 75
1, 98649, Control_c, 0, 64, 75
1, 98664, Control_c, 0, 64, 76
1, 98679, Control_c, 0, 64, 76
1, 98693, Control_c, 0, 64, 78
1, 98708, Control_c, 0, 64, 80
1, 98723, Control_c, 0, 64, 81
1, 98738, Control_c, 0, 64, 82
1, 98752, Control_c, 0, 64, 83
1, 98752, Control_c, 0, 67, 8
1, 98774, Control_c, 0, 64, 83
1, 98774, Control_c, 0, 67, 9
1, 98789, Control_c, 0, 64, 84
1, 98789, Control_c, 0, 67, 10
1, 98804, Control_c, 0, 64, 86
1, 98804, Control_c, 0, 67, 12
1, 98819, Control_c, 0, 64, 87
1, 98819, Control_c, 0, 67, 13
1, 98834, Control_c, 0, 64, 88
1, 98834, Control_c, 0, 67, 15
1, 98849, Control_c, 0, 64, 89
1, 98849, Control_c, 0, 67, 16
1, 98864, Control_c, 0, 67, 17
1, 98870, Note_on_c, 0, 42, 38
1, 98879, Control_c, 0, 64, 89
1, 98879, Control_c, 0, 67, 19
1, 98894, Control_c, 0, 64, 90
1, 98894, Control_c, 0, 67, 22
1, 98908, Control_c, 0, 64, 92
1, 98908, Control_c, 0, 67, 27
1, 98923, Control_c, 0, 64, 93
1, 98923, Control_c, 0, 67, 31
1, 98938, Control_c, 0, 64, 93
1, 98938, Control_c, 0, 67, 35
1, 98952, Control_c, 0, 64, 94
1, 98952, Control_c, 0, 67, 41
1, 98967, Control_c, 0, 64, 94
1, 98967, Control_c, 0, 67, 46
1, 98982, Control_c, 0, 67, 52
1, 98997, Control_c, 0, 64, 95
1, 98997, Control_c, 0, 67, 59
1, 99012, Control_c, 0, 64, 96
1, 99012, Control_c, 0, 67, 66
1, 99016, Note_off_c, 0, 49, 55
1, 99026, Control_c, 0, 64, 96
1, 99026, Control_c, 0, 67, 72
1, 99042, Control_c, 0, 67, 78
1, 99046, Note_off_c, 0, 42, 56
1, 99057, Control_c, 0, 67, 85
1, 99072, Control_c, 0, 67, 90
1, 99087, Control_c, 0, 67, 94
1, 99102, Control_c, 0, 64, 97
1, 99102, Control_c, 0, 67, 97
1, 99117, Control_c, 0, 67, 99
1, 99132, Control_c, 0, 67, 102
1, 99147, Control_c, 0, 67, 105
1, 99162, Control_c, 0, 67, 108
1, 99176, Control_c, 0, 67, 111
1, 99191, Control_c, 0, 67, 114
1, 99206, Control_c, 0, 67, 116
1, 99221, Control_c, 0, 67, 119
1, 99236, Control_c, 0, 67, 121
1, 99250, Control_c, 0, 67, 124
1, 99265, Control_c, 0, 67, 126
1, 99280, Control_c, 0, 67, 127
1, 99643, Control_c, 0, 64, 96
1, 99657, Control_c, 0, 64, 95
1, 99666, Note_on_c, 0, 43, 39
1, 99672, Control_c, 0, 64, 94
1, 99687, Control_c, 0, 64, 91
1, 99702, Control_c, 0, 64, 89
1, 99717, Control_c, 0, 64, 85
1, 99731, Control_c, 0, 64, 81
1, 99746, Control_c, 0, 64, 77
1, 99761, Control_c, 0, 64, 73
1, 99776, Control_c, 0, 64, 70
1, 99787, Note_off_c, 0, 66, 49
1, 99791, Control_c, 0, 64, 67
1, 99793, Note_off_c, 0, 58, 52
1, 99806, Control_c, 0, 64, 65
1, 99806, Note_off_c, 0, 64, 42
1, 99821, Control_c, 0, 64, 64
1, 99836, Control_c, 0, 64, 62
1, 99850, Control_c, 0, 64, 58
1, 99865, Control_c, 0, 64, 49
1, 99880, Control_c, 0, 64, 11
1, 99895, Control_c, 0, 64, 0
1, 100328, Note_on_c, 0, 33, 43
1, 100554, Note_off_c, 0, 43, 37
1, 100554, Control_c, 0, 64, 29
1, 100569, Control_c, 0, 64, 38
1, 100584, Control_c, 0, 64, 42
1, 100599, Control_c, 0, 64, 45
1, 100614, Control_c, 0, 64, 48
1, 100629, Control_c, 0, 64, 51
1, 100643, Control_c, 0, 64, 53
1, 100658, Control_c, 0, 64, 56
1, 100673, Control_c, 0, 64, 58
1, 100688, Control_c, 0, 64, 60
1, 100703, Control_c, 0, 64, 61
1, 100718, Control_c, 0, 64, 62
1, 100733, Control_c, 0, 64, 62
1, 100748, Control_c, 0, 64, 63
1, 100763, Control_c, 0, 64, 63
1, 100778, Control_c, 0, 64, 64
1, 100792, Control_c, 0, 64, 64
1, 100822, Control_c, 0, 64, 65
1, 100837, Control_c, 0, 64, 65
1, 100852, Control_c, 0, 64, 66
1, 100867, Control_c, 0, 64, 67
1, 100882, Control_c, 0, 64, 67
1, 100896, Control_c, 0, 64, 68
1, 100911, Control_c, 0, 64, 68
1, 100926, Control_c, 0, 64, 69
1, 100941, Control_c, 0, 64, 69
1, 100956, Control_c, 0, 64, 70
1, 100970, Control_c, 0, 64, 72
1, 100985, Control_c, 0, 64, 73
1, 101000, Control_c, 0, 64, 74
1, 101006, Note_on_c, 0, 52, 36
1, 101022, Control_c, 0, 64, 76
1, 101037, Control_c, 0, 64, 78
1, 101052, Control_c, 0, 64, 80
1, 101067, Control_c, 0, 64, 82
1, 101082, Control_c, 0, 64, 83
1, 101096, Control_c, 0, 64, 85
1, 101111, Control_c, 0, 64, 86
1, 101126, Control_c, 0, 64, 88
1, 101141, Control_c, 0, 64, 89
1, 101155, Control_c, 0, 64, 91
1, 101170, Control_c, 0, 64, 92
1, 101185, Control_c, 0, 64, 93
1, 101200, Control_c, 0, 64, 93
1, 101205, Note_off_c, 0, 33, 44
1, 101215, Control_c, 0, 64, 95
1, 101229, Control_c, 0, 64, 96
1, 101244, Control_c, 0, 64, 97
1, 101252, Note_on_c, 0, 53, 42
1, 101259, Control_c, 0, 64, 99
1, 101274, Control_c, 0, 64, 100
1, 101287, Control_c, 0, 64, 101
1, 101302, Control_c, 0, 64, 101
1, 101317, Control_c, 0, 64, 102
1, 101347, Control_c, 0, 64, 102
1, 101362, Control_c, 0, 64, 103
1, 101377, Control_c, 0, 64, 103
1, 101418, Note_off_c, 0, 53, 61
1, 101428, Note_on_c, 0, 60, 47
1, 101588, Note_off_c, 0, 60, 55
1, 101590, Note_on_c, 0, 33, 47
1, 101590, Note_on_c, 0, 54, 50
1, 101794, Note_on_c, 0, 57, 54
1, 101813, Note_off_c, 0, 52, 43
1, 101914, Note_off_c, 0, 33, 40
1, 102007, Note_on_c, 0, 64, 59
1, 102047, Note_off_c, 0, 57, 59
1, 102068, Note_off_c, 0, 54, 26
1, 102408, Control_c, 0, 64, 102
1, 102423, Control_c, 0, 64, 98
1, 102438, Control_c, 0, 64, 92
1, 102453, Control_c, 0, 64, 85
1, 102456, Note_on_c, 0, 58, 49
1, 102459, Note_on_c, 0, 63, 56
1, 102464, Note_on_c, 0, 32, 48
1, 102468, Control_c, 0, 64, 79
1, 102480, Note_on_c, 0, 52, 45
1, 102483, Control_c, 0, 64, 73
1, 102498, Control_c, 0, 64, 67
1, 102520, Control_c, 0, 64, 64
1, 102535, Control_c, 0, 64, 62
1, 102549, Control_c, 0, 64, 59
1, 102558, Note_off_c, 0, 64, 55
1, 102564, Control_c, 0, 64, 56
1, 102579, Control_c, 0, 64, 46
1, 102593, Control_c, 0, 64, 20
1, 102608, Control_c, 0, 64, 0
1, 103082, Control_c, 0, 64, 20
1, 103097, Control_c, 0, 64, 31
1, 103112, Control_c, 0, 64, 35
1, 103127, Control_c, 0, 64, 39
1, 103142, Control_c, 0, 64, 43
1, 103157, Control_c, 0, 64, 46
1, 103171, Control_c, 0, 64, 50
1, 103186, Control_c, 0, 64, 53
1, 103201, Control_c, 0, 64, 55
1, 103216, Control_c, 0, 64, 57
1, 103231, Control_c, 0, 64, 58
1, 103246, Control_c, 0, 64, 60
1, 103268, Control_c, 0, 64, 62
1, 103283, Control_c, 0, 64, 63
1, 103297, Control_c, 0, 64, 64
1, 103312, Control_c, 0, 64, 65
1, 103327, Control_c, 0, 64, 66
1, 103341, Control_c, 0, 64, 67
1, 103356, Control_c, 0, 64, 68
1, 103371, Control_c, 0, 64, 69
1, 103386, Control_c, 0, 64, 71
1, 103401, Control_c, 0, 64, 72
1, 103416, Control_c, 0, 64, 73
1, 103431, Control_c, 0, 64, 74
1, 103446, Control_c, 0, 64, 76
1, 103460, Control_c, 0, 64, 77
1, 103475, Control_c, 0, 64, 79
1, 103490, Control_c, 0, 64, 80
1, 103505, Control_c, 0, 64, 81
1, 103520, Control_c, 0, 64, 81
1, 103534, Control_c, 0, 64, 82
1, 103563, Control_c, 0, 64, 82
1, 103578, Control_c, 0, 64, 83
1, 103608, Control_c, 0, 64, 83
1, 103641, Note_on_c, 0, 62, 42
1, 103682, Control_c, 0, 64, 84
1, 103744, Note_off_c, 0, 63, 25
1, 103819, Note_off_c, 0, 58, 41
1, 104044, Note_off_c, 0, 32, 40
1, 104045, Control_c, 0, 64, 83
1, 104060, Control_c, 0, 64, 83
1, 104075, Control_c, 0, 64, 81
1, 104090, Control_c, 0, 64, 80
1, 104105, Control_c, 0, 64, 77
1, 104110, Note_on_c, 0, 61, 49
1, 104119, Control_c, 0, 64, 73
1, 104126, Note_on_c, 0, 57, 41
1, 104134, Control_c, 0, 64, 69
1, 104136, Note_off_c, 0, 62, 47
1, 104149, Control_c, 0, 64, 65
1, 104164, Control_c, 0, 64, 63
1, 104179, Control_c, 0, 64, 62
1, 104194, Control_c, 0, 64, 59
1, 104209, Control_c, 0, 64, 53
1, 104212, Note_off_c, 0, 52, 38
1, 104224, Control_c, 0, 64, 42
1, 104238, Control_c, 0, 64, 29
1, 104253, Control_c, 0, 64, 20
1, 104268, Control_c, 0, 64, 0
1, 104342, Control_c, 0, 64, 27
1, 104357, Control_c, 0, 64, 46
1, 104371, Control_c, 0, 64, 55
1, 104386, Control_c, 0, 64, 60
1, 104401, Control_c, 0, 64, 63
1, 104416, Control_c, 0, 64, 64
1, 104431, Control_c, 0, 64, 66
1, 104445, Control_c, 0, 64, 68
1, 104460, Control_c, 0, 64, 70
1, 104475, Control_c, 0, 64, 72
1, 104490, Control_c, 0, 64, 74
1, 104505, Control_c, 0, 64, 75
1, 104519, Control_c, 0, 64, 76
1, 104534, Control_c, 0, 64, 77
1, 104549, Control_c, 0, 64, 78
1, 104563, Control_c, 0, 64, 79
1, 104578, Control_c, 0, 64, 81
1, 104593, Control_c, 0, 64, 81
1, 104608, Control_c, 0, 64, 82
1, 104623, Control_c, 0, 64, 82
1, 104638, Control_c, 0, 64, 83
1, 104653, Control_c, 0, 64, 83
1, 104668, Control_c, 0, 64, 84
1, 104683, Control_c, 0, 64, 85
1, 104698, Control_c, 0, 64, 85
1, 104728, Control_c, 0, 64, 86
1, 104775, Note_on_c, 0, 51, 39
1, 104780, Control_c, 0, 64, 86
1, 104781, Note_on_c, 0, 41, 37
1, 104809, Control_c, 0, 64, 87
1, 104824, Control_c, 0, 64, 87
1, 104854, Control_c, 0, 64, 88
1, 104875, Note_off_c, 0, 57, 58
1, 104883, Control_c, 0, 64, 88
1, 104913, Control_c, 0, 64, 89
1, 104928, Control_c, 0, 64, 90
1, 104942, Note_off_c, 0, 51, 54
1, 104957, Control_c, 0, 64, 90
1, 104984, Note_off_c, 0, 61, 56
1, 105327, Control_c, 0, 64, 90
1, 105342, Control_c, 0, 64, 88
1, 105357, Control_c, 0, 64, 86
1, 105371, Note_on_c, 0, 60, 50
1, 105372, Control_c, 0, 64, 82
1, 105386, Note_on_c, 0, 58, 39
1, 105386, Control_c, 0, 64, 76
1, 105401, Note_on_c, 0, 52, 29
1, 105401, Control_c, 0, 64, 72
1, 105416, Control_c, 0, 64, 69
1, 105431, Control_c, 0, 64, 66
1, 105446, Control_c, 0, 64, 65
1, 105461, Control_c, 0, 64, 64
1, 105475, Control_c, 0, 64, 64
1, 105483, Note_off_c, 0, 41, 44
1, 105491, Control_c, 0, 64, 62
1, 105514, Control_c, 0, 64, 61
1, 105529, Control_c, 0, 64, 59
1, 105544, Control_c, 0, 64, 58
1, 105603, Control_c, 0, 64, 59
1, 105617, Control_c, 0, 64, 59
1, 105632, Control_c, 0, 64, 60
1, 105647, Control_c, 0, 64, 62
1, 105662, Control_c, 0, 64, 64
1, 105677, Control_c, 0, 64, 65
1, 105691, Control_c, 0, 64, 65
1, 105706, Control_c, 0, 64, 66
1, 105735, Control_c, 0, 64, 67
1, 105750, Control_c, 0, 64, 68
1, 105765, Control_c, 0, 64, 69
1, 105781, Control_c, 0, 64, 70
1, 105796, Control_c, 0, 64, 71
1, 105825, Control_c, 0, 64, 72
1, 105840, Control_c, 0, 64, 72
1, 105855, Control_c, 0, 64, 73
1, 105870, Control_c, 0, 64, 75
1, 105884, Control_c, 0, 64, 76
1, 105899, Control_c, 0, 64, 77
1, 105914, Control_c, 0, 64, 77
1, 105929, Control_c, 0, 64, 78
1, 105943, Control_c, 0, 64, 78
1, 105958, Control_c, 0, 64, 79
1, 105972, Note_on_c, 0, 42, 33
1, 105973, Control_c, 0, 64, 81
1, 105988, Control_c, 0, 64, 83
1, 106003, Control_c, 0, 64, 84
1, 106018, Control_c, 0, 64, 85
1, 106033, Control_c, 0, 64, 85
1, 106048, Control_c, 0, 64, 86
1, 106063, Control_c, 0, 64, 88
1, 106078, Control_c, 0, 64, 89
1, 106081, Note_off_c, 0, 60, 57
1, 106092, Control_c, 0, 64, 90
1, 106107, Control_c, 0, 64, 91
1, 106118, Note_off_c, 0, 58, 36
1, 106151, Control_c, 0, 64, 91
1, 106166, Control_c, 0, 64, 92
1, 106589, Control_c, 0, 64, 91
1, 106604, Control_c, 0, 64, 90
1, 106619, Control_c, 0, 64, 88
1, 106633, Control_c, 0, 64, 84
1, 106648, Control_c, 0, 64, 79
1, 106663, Control_c, 0, 64, 74
1, 106666, Note_on_c, 0, 61, 40
1, 106678, Control_c, 0, 64, 69
1, 106693, Note_on_c, 0, 57, 33
1, 106693, Control_c, 0, 64, 65
1, 106707, Control_c, 0, 64, 63
1, 106766, Control_c, 0, 64, 63
1, 106796, Control_c, 0, 64, 63
1, 106811, Control_c, 0, 64, 64
1, 106826, Control_c, 0, 64, 65
1, 106841, Control_c, 0, 64, 66
1, 106856, Control_c, 0, 64, 68
1, 106871, Control_c, 0, 64, 72
1, 106885, Control_c, 0, 64, 76
1, 106900, Control_c, 0, 64, 80
1, 106915, Control_c, 0, 64, 83
1, 106925, Note_off_c, 0, 52, 35
1, 106930, Control_c, 0, 64, 84
1, 106945, Control_c, 0, 64, 86
1, 106959, Control_c, 0, 64, 88
1, 106968, Note_off_c, 0, 42, 41
1, 106974, Control_c, 0, 64, 89
1, 106989, Control_c, 0, 64, 91
1, 107011, Control_c, 0, 64, 91
1, 107040, Control_c, 0, 64, 92
1, 107397, Control_c, 0, 64, 91
1, 107412, Control_c, 0, 64, 88
1, 107427, Control_c, 0, 64, 83
1, 107442, Control_c, 0, 64, 77
1, 107448, Note_on_c, 0, 51, 29
1, 107451, Note_on_c, 0, 41, 32
1, 107456, Control_c, 0, 64, 71
1, 107471, Control_c, 0, 64, 65
1, 107486, Control_c, 0, 64, 61
1, 107501, Control_c, 0, 64, 60
1, 107515, Control_c, 0, 64, 61
1, 107523, Note_off_c, 0, 51, 0
1, 107523, Note_on_c, 0, 51, 3
1, 107545, Control_c, 0, 64, 61
1, 107560, Control_c, 0, 64, 62
1, 107575, Control_c, 0, 64, 64
1, 107589, Control_c, 0, 64, 66
1, 107604, Control_c, 0, 64, 70
1, 107619, Control_c, 0, 64, 74
1, 107634, Control_c, 0, 64, 78
1, 107649, Control_c, 0, 64, 81
1, 107663, Control_c, 0, 64, 83
1, 107678, Control_c, 0, 64, 85
1, 107683, Note_off_c, 0, 51, 40
1, 107693, Control_c, 0, 64, 87
1, 107705, Note_off_c, 0, 57, 40
1, 107708, Control_c, 0, 64, 88
1, 107709, Note_off_c, 0, 41, 47
1, 107723, Control_c, 0, 64, 90
1, 107738, Control_c, 0, 64, 91
1, 107760, Control_c, 0, 64, 92
1, 107765, Note_off_c, 0, 61, 55
1, 107775, Control_c, 0, 64, 92
1, 107789, Control_c, 0, 64, 93
1, 107819, Control_c, 0, 64, 93
1, 108278, Control_c, 0, 64, 93
1, 108293, Control_c, 0, 64, 91
1, 108308, Control_c, 0, 64, 88
1, 108323, Control_c, 0, 64, 84
1, 108334, Note_on_c, 0, 64, 48
1, 108337, Control_c, 0, 64, 79
1, 108346, Note_on_c, 0, 52, 38
1, 108346, Note_on_c, 0, 60, 42
1, 108352, Note_on_c, 0, 58, 35
1, 108352, Control_c, 0, 64, 73
1, 108367, Control_c, 0, 64, 68
1, 108382, Control_c, 0, 64, 65
1, 108397, Control_c, 0, 64, 63
1, 108427, Control_c, 0, 64, 63
1, 108441, Control_c, 0, 64, 62
1, 108456, Control_c, 0, 64, 61
1, 108486, Control_c, 0, 64, 61
1, 108508, Control_c, 0, 64, 62
1, 108523, Control_c, 0, 64, 63
1, 108537, Control_c, 0, 64, 63
1, 108552, Control_c, 0, 64, 64
1, 108567, Control_c, 0, 64, 66
1, 108582, Control_c, 0, 64, 67
1, 108597, Control_c, 0, 64, 68
1, 108611, Control_c, 0, 64, 70
1, 108626, Control_c, 0, 64, 71
1, 108641, Control_c, 0, 64, 72
1, 108656, Control_c, 0, 64, 73
1, 108671, Control_c, 0, 64, 74
1, 108687, Control_c, 0, 64, 76
1, 108702, Control_c, 0, 64, 77
1, 108716, Control_c, 0, 64, 79
1, 108731, Control_c, 0, 64, 80
1, 108746, Control_c, 0, 64, 81
1, 108760, Control_c, 0, 64, 83
1, 108776, Control_c, 0, 64, 85
1, 108791, Control_c, 0, 64, 87
1, 108806, Control_c, 0, 64, 88
1, 108821, Control_c, 0, 64, 89
1, 108835, Control_c, 0, 64, 91
1, 108850, Control_c, 0, 64, 92
1, 108865, Control_c, 0, 64, 93
1, 108880, Control_c, 0, 64, 95
1, 108895, Control_c, 0, 64, 96
1, 108909, Control_c, 0, 64, 97
1, 108924, Control_c, 0, 64, 98
1, 108939, Control_c, 0, 64, 100
1, 108954, Control_c, 0, 64, 102
1, 108969, Control_c, 0, 64, 103
1, 108979, Note_off_c, 0, 58, 34
1, 108984, Control_c, 0, 64, 104
1, 108999, Control_c, 0, 64, 104
1, 109003, Note_on_c, 0, 42, 36
1, 109020, Note_off_c, 0, 60, 48
1, 109029, Control_c, 0, 64, 105
1, 109043, Control_c, 0, 64, 106
1, 109058, Control_c, 0, 64, 107
1, 109073, Control_c, 0, 64, 107
1, 109107, Note_off_c, 0, 52, 64
1, 109161, Control_c, 0, 64, 108
1, 109261, Note_off_c, 0, 64, 36
1, 109629, Control_c, 0, 64, 107
1, 109644, Control_c, 0, 64, 107
1, 109658, Control_c, 0, 64, 106
1, 109673, Control_c, 0, 64, 104
1, 109688, Control_c, 0, 64, 101
1, 109694, Note_on_c, 0, 65, 54
1, 109703, Note_on_c, 0, 61, 44
1, 109703, Control_c, 0, 64, 98
1, 109705, Note_on_c, 0, 51, 37
1, 109711, Note_on_c, 0, 57, 30
1, 109718, Control_c, 0, 64, 93
1, 109732, Control_c, 0, 64, 88
1, 109747, Control_c, 0, 64, 83
1, 109762, Control_c, 0, 64, 78
1, 109776, Note_off_c, 0, 42, 39
1, 109777, Control_c, 0, 64, 74
1, 109792, Control_c, 0, 64, 70
1, 109807, Control_c, 0, 64, 67
1, 109822, Control_c, 0, 64, 65
1, 109837, Control_c, 0, 64, 65
1, 109851, Control_c, 0, 64, 64
1, 109866, Control_c, 0, 64, 64
1, 109881, Control_c, 0, 64, 63
1, 109896, Control_c, 0, 64, 63
1, 109910, Control_c, 0, 64, 62
1, 110021, Control_c, 0, 64, 63
1, 110036, Control_c, 0, 64, 64
1, 110051, Control_c, 0, 64, 65
1, 110066, Control_c, 0, 64, 66
1, 110081, Control_c, 0, 64, 69
1, 110096, Control_c, 0, 64, 72
1, 110110, Control_c, 0, 64, 75
1, 110125, Control_c, 0, 64, 77
1, 110140, Control_c, 0, 64, 79
1, 110155, Control_c, 0, 64, 80
1, 110170, Control_c, 0, 64, 81
1, 110184, Control_c, 0, 64, 83
1, 110199, Control_c, 0, 64, 85
1, 110214, Control_c, 0, 64, 87
1, 110229, Control_c, 0, 64, 89
1, 110244, Control_c, 0, 64, 90
1, 110258, Control_c, 0, 64, 92
1, 110273, Control_c, 0, 64, 93
1, 110289, Control_c, 0, 64, 95
1, 110304, Control_c, 0, 64, 97
1, 110319, Control_c, 0, 64, 98
1, 110325, Note_on_c, 0, 41, 34
1, 110334, Control_c, 0, 64, 100
1, 110349, Control_c, 0, 64, 101
1, 110363, Control_c, 0, 64, 103
1, 110378, Control_c, 0, 64, 103
1, 110383, Note_off_c, 0, 57, 40
1, 110390, Note_off_c, 0, 61, 60
1, 110393, Control_c, 0, 64, 104
1, 110422, Control_c, 0, 64, 104
1, 110437, Control_c, 0, 64, 105
1, 110452, Control_c, 0, 64, 106
1, 110467, Control_c, 0, 64, 106
1, 110496, Control_c, 0, 64, 107
1, 110497, Note_off_c, 0, 51, 41
1, 110511, Control_c, 0, 64, 107
1, 110524, Note_off_c, 0, 41, 40
1, 110525, Control_c, 0, 64, 108
1, 110540, Control_c, 0, 64, 108
1, 110889, Control_c, 0, 64, 108
1, 110904, Control_c, 0, 64, 105
1, 110919, Control_c, 0, 64, 101
1, 110933, Control_c, 0, 64, 94
1, 110944, Note_on_c, 0, 72, 56
1, 110948, Control_c, 0, 64, 86
1, 110953, Note_on_c, 0, 56, 36
1, 110954, Note_on_c, 0, 50, 42
1, 110963, Control_c, 0, 64, 78
1, 110964, Note_on_c, 0, 60, 39
1, 110978, Control_c, 0, 64, 72
1, 110993, Control_c, 0, 64, 68
1, 111007, Control_c, 0, 64, 65
1, 111016, Note_off_c, 0, 65, 54
1, 111022, Control_c, 0, 64, 63
1, 111037, Control_c, 0, 64, 63
1, 111052, Control_c, 0, 64, 62
1, 111067, Control_c, 0, 64, 60
1, 111083, Control_c, 0, 64, 58
1, 111097, Control_c, 0, 64, 57
1, 111127, Control_c, 0, 64, 58
1, 111142, Control_c, 0, 64, 59
1, 111156, Control_c, 0, 64, 61
1, 111171, Control_c, 0, 64, 63
1, 111186, Control_c, 0, 64, 66
1, 111201, Control_c, 0, 64, 70
1, 111216, Control_c, 0, 64, 75
1, 111230, Control_c, 0, 64, 81
1, 111245, Control_c, 0, 64, 85
1, 111260, Control_c, 0, 64, 87
1, 111275, Control_c, 0, 64, 90
1, 111288, Note_off_c, 0, 56, 55
1, 111290, Control_c, 0, 64, 93
1, 111304, Control_c, 0, 64, 95
1, 111319, Control_c, 0, 64, 98
1, 111334, Control_c, 0, 64, 99
1, 111348, Control_c, 0, 64, 100
1, 111363, Control_c, 0, 64, 101
1, 111378, Control_c, 0, 64, 102
1, 111393, Control_c, 0, 64, 103
1, 111408, Control_c, 0, 64, 103
1, 111422, Control_c, 0, 64, 104
1, 111437, Control_c, 0, 64, 104
1, 111482, Control_c, 0, 64, 105
1, 111534, Control_c, 0, 64, 105
1, 111595, Note_on_c, 0, 40, 34
1, 111608, Control_c, 0, 64, 106
1, 111610, Note_off_c, 0, 50, 37
1, 111652, Control_c, 0, 64, 106
1, 111682, Control_c, 0, 64, 107
1, 111694, Note_off_c, 0, 60, 38
1, 111697, Control_c, 0, 64, 107
1, 111726, Control_c, 0, 64, 108
1, 111756, Control_c, 0, 64, 108
1, 111856, Note_off_c, 0, 40, 40
1, 111890, Control_c, 0, 64, 109
1, 112171, Control_c, 0, 64, 108
1, 112186, Control_c, 0, 64, 107
1, 112201, Control_c, 0, 64, 103
1, 112212, Note_on_c, 0, 66, 58
1, 112216, Control_c, 0, 64, 98
1, 112221, Note_off_c, 0, 72, 38
1, 112224, Note_on_c, 0, 49, 42
1, 112231, Control_c, 0, 64, 90
1, 112236, Note_on_c, 0, 59, 45
1, 112239, Note_on_c, 0, 55, 38
1, 112253, Control_c, 0, 64, 82
1, 112268, Control_c, 0, 64, 74
1, 112283, Control_c, 0, 64, 65
1, 112298, Control_c, 0, 64, 58
1, 112312, Control_c, 0, 64, 53
1, 112327, Control_c, 0, 64, 53
1, 112342, Control_c, 0, 64, 54
1, 112357, Control_c, 0, 64, 53
1, 112372, Control_c, 0, 64, 52
1, 112386, Control_c, 0, 64, 51
1, 112401, Control_c, 0, 64, 53
1, 112416, Control_c, 0, 64, 56
1, 112431, Control_c, 0, 64, 61
1, 112446, Control_c, 0, 64, 64
1, 112460, Control_c, 0, 64, 66
1, 112475, Control_c, 0, 64, 70
1, 112490, Control_c, 0, 64, 74
1, 112504, Control_c, 0, 64, 80
1, 112519, Control_c, 0, 64, 86
1, 112534, Control_c, 0, 64, 90
1, 112549, Control_c, 0, 64, 93
1, 112564, Control_c, 0, 64, 95
1, 112579, Control_c, 0, 64, 97
1, 112594, Control_c, 0, 64, 98
1, 112609, Control_c, 0, 64, 100
1, 112623, Note_off_c, 0, 55, 42
1, 112624, Control_c, 0, 64, 102
1, 112639, Control_c, 0, 64, 103
1, 112653, Control_c, 0, 64, 104
1, 112668, Control_c, 0, 64, 104
1, 112683, Control_c, 0, 64, 105
1, 112698, Control_c, 0, 64, 105
1, 112735, Note_off_c, 0, 59, 51
1, 112844, Note_on_c, 0, 39, 43
1, 113041, Note_off_c, 0, 39, 58
1, 113127, Note_off_c, 0, 49, 51
1, 113183, Note_on_c, 0, 69, 55
1, 113551, Control_c, 0, 64, 105
1, 113566, Control_c, 0, 64, 102
1, 113581, Control_c, 0, 64, 97
1, 113595, Control_c, 0, 64, 90
1, 113610, Control_c, 0, 64, 82
1, 113616, Note_on_c, 0, 76, 61
1, 113619, Note_on_c, 0, 48, 41
1, 113619, Note_on_c, 0, 54, 40
1, 113621, Note_on_c, 0, 58, 35
1, 113623, Note_on_c, 0, 64, 41
1, 113625, Control_c, 0, 64, 73
1, 113640, Control_c, 0, 64, 65
1, 113655, Control_c, 0, 64, 49
1, 113660, Note_off_c, 0, 64, 0
1, 113660, Note_on_c, 0, 64, 15
1, 113670, Control_c, 0, 64, 0
1, 113671, Note_off_c, 0, 69, 65
1, 113691, Note_off_c, 0, 66, 35
1, 113840, Control_c, 0, 64, 28
1, 113855, Control_c, 0, 64, 60
1, 113870, Control_c, 0, 64, 68
1, 113885, Control_c, 0, 64, 74
1, 113899, Control_c, 0, 64, 81
1, 113914, Control_c, 0, 64, 88
1, 113929, Control_c, 0, 64, 91
1, 113942, Note_off_c, 0, 58, 63
1, 113944, Control_c, 0, 64, 93
1, 113958, Control_c, 0, 64, 94
1, 113973, Control_c, 0, 64, 96
1, 113983, Note_off_c, 0, 54, 50
1, 113988, Control_c, 0, 64, 97
1, 114001, Note_off_c, 0, 48, 49
1, 114003, Control_c, 0, 64, 99
1, 114018, Control_c, 0, 64, 100
1, 114032, Control_c, 0, 64, 100
1, 114047, Control_c, 0, 64, 101
1, 114062, Control_c, 0, 64, 101
1, 114076, Control_c, 0, 64, 102
1, 114091, Control_c, 0, 64, 102
1, 114121, Control_c, 0, 64, 103
1, 114313, Note_on_c, 0, 38, 42
1, 114491, Note_off_c, 0, 38, 48
1, 114899, Control_c, 0, 64, 102
1, 114914, Control_c, 0, 64, 96
1, 114929, Control_c, 0, 64, 88
1, 114944, Control_c, 0, 64, 78
1, 114948, Note_on_c, 0, 57, 37
1, 114955, Note_on_c, 0, 53, 39
1, 114957, Note_on_c, 0, 47, 40
1, 114959, Control_c, 0, 64, 66
1, 114973, Control_c, 0, 64, 53
1, 114988, Control_c, 0, 64, 23
1, 115003, Control_c, 0, 64, 16
1, 115018, Control_c, 0, 64, 31
1, 115033, Control_c, 0, 64, 44
1, 115047, Control_c, 0, 64, 57
1, 115062, Control_c, 0, 64, 64
1, 115078, Control_c, 0, 64, 68
1, 115093, Control_c, 0, 64, 72
1, 115108, Control_c, 0, 64, 77
1, 115122, Control_c, 0, 64, 82
1, 115137, Control_c, 0, 64, 87
1, 115152, Control_c, 0, 64, 91
1, 115167, Control_c, 0, 64, 93
1, 115173, Note_off_c, 0, 57, 60
1, 115176, Note_off_c, 0, 64, 58
1, 115182, Control_c, 0, 64, 95
1, 115196, Control_c, 0, 64, 97
1, 115211, Note_off_c, 0, 53, 65
1, 115211, Control_c, 0, 64, 99
1, 115226, Control_c, 0, 64, 101
1, 115249, Control_c, 0, 64, 102
1, 115264, Control_c, 0, 64, 103
1, 115278, Control_c, 0, 64, 104
1, 115293, Control_c, 0, 64, 104
1, 115308, Control_c, 0, 64, 105
1, 115323, Control_c, 0, 64, 106
1, 115327, Note_off_c, 0, 47, 40
1, 115337, Control_c, 0, 64, 107
1, 115367, Control_c, 0, 64, 107
1, 115396, Control_c, 0, 64, 108
1, 115632, Note_on_c, 0, 37, 39
1, 115641, Note_on_c, 0, 75, 48
1, 115646, Note_on_c, 0, 63, 30
1, 115706, Note_off_c, 0, 76, 59
1, 115897, Note_off_c, 0, 37, 54
1, 116049, Note_off_c, 0, 63, 56
1, 116062, Note_off_c, 0, 75, 57
1, 116338, Control_c, 0, 64, 106
1, 116352, Control_c, 0, 64, 103
1, 116367, Control_c, 0, 64, 97
1, 116382, Control_c, 0, 64, 90
1, 116396, Note_on_c, 0, 74, 52
1, 116397, Control_c, 0, 64, 81
1, 116407, Note_on_c, 0, 70, 44
1, 116410, Note_on_c, 0, 36, 45
1, 116412, Control_c, 0, 64, 73
1, 116420, Note_on_c, 0, 66, 43
1, 116421, Note_on_c, 0, 62, 37
1, 116426, Control_c, 0, 64, 67
1, 116441, Control_c, 0, 64, 63
1, 116454, Note_off_c, 0, 70, 0
1, 116454, Note_on_c, 0, 70, 22
1, 116456, Control_c, 0, 64, 62
1, 116470, Control_c, 0, 64, 61
1, 116485, Control_c, 0, 64, 60
1, 116500, Control_c, 0, 64, 57
1, 116515, Control_c, 0, 64, 53
1, 116530, Control_c, 0, 64, 48
1, 116544, Control_c, 0, 64, 47
1, 116574, Control_c, 0, 64, 46
1, 116589, Control_c, 0, 64, 45
1, 116604, Control_c, 0, 64, 46
1, 116618, Control_c, 0, 64, 51
1, 116633, Control_c, 0, 64, 57
1, 116648, Control_c, 0, 64, 62
1, 116664, Control_c, 0, 64, 65
1, 116679, Control_c, 0, 64, 70
1, 116694, Control_c, 0, 64, 75
1, 116709, Control_c, 0, 64, 81
1, 116723, Control_c, 0, 64, 86
1, 116746, Control_c, 0, 64, 91
1, 116761, Control_c, 0, 64, 94
1, 116775, Control_c, 0, 64, 96
1, 116790, Control_c, 0, 64, 98
1, 116805, Control_c, 0, 64, 100
1, 116818, Poly_aftertouch_c, 0, 42, 127
1, 116820, Control_c, 0, 64, 102
1, 116835, Control_c, 0, 64, 103
1, 116849, Control_c, 0, 64, 104
1, 116864, Control_c, 0, 64, 105
1, 116872, Note_off_c, 0, 66, 38
1, 116879, Control_c, 0, 64, 105
1, 116884, Note_off_c, 0, 62, 58
1, 116893, Control_c, 0, 64, 106
1, 116908, Control_c, 0, 64, 106
1, 116933, Poly_aftertouch_c, 0, 42, 0
1, 116953, Control_c, 0, 64, 107
1, 117015, Note_on_c, 0, 66, 43
1, 117044, Note_on_c, 0, 62, 36
1, 117059, Note_off_c, 0, 70, 36
1, 117196, Note_off_c, 0, 66, 42
1, 117254, Note_off_c, 0, 62, 41
1, 117265, Note_on_c, 0, 42, 51
1, 117301, Note_off_c, 0, 36, 40
1, 117304, Note_off_c, 0, 42, 63
1, 117538, Note_on_c, 0, 75, 68
1, 117552, Note_on_c, 0, 49, 54
1, 117553, Note_on_c, 0, 63, 55
1, 117557, Note_on_c, 0, 47, 55
1, 117571, Note_off_c, 0, 74, 41
1, 117799, Note_off_c, 0, 63, 63
1, 117989, Note_on_c, 0, 65, 56
1, 117997, Note_on_c, 0, 61, 41
1, 118156, Note_off_c, 0, 61, 63
1, 118192, Note_off_c, 0, 65, 65
1, 118218, Note_on_c, 0, 55, 60
1, 118257, Note_off_c, 0, 75, 65
1, 118466, Note_on_c, 0, 82, 74
1, 118473, Note_on_c, 0, 60, 64
1, 118474, Note_on_c, 0, 70, 62
1, 118479, Note_off_c, 0, 47, 51
1, 118538, Note_off_c, 0, 55, 64
1, 118555, Note_off_c, 0, 49, 61
1, 118761, Control_c, 0, 67, 126
1, 118776, Control_c, 0, 67, 125
1, 118791, Control_c, 0, 67, 125
1, 118880, Control_c, 0, 64, 106
1, 118880, Control_c, 0, 67, 125
1, 118895, Control_c, 0, 64, 104
1, 118895, Control_c, 0, 67, 126
1, 118910, Control_c, 0, 64, 99
1, 118910, Control_c, 0, 67, 127
1, 118925, Control_c, 0, 64, 92
1, 118939, Control_c, 0, 64, 81
1, 118954, Control_c, 0, 64, 70
1, 118954, Control_c, 0, 67, 127
1, 118958, Note_on_c, 0, 64, 57
1, 118969, Control_c, 0, 64, 43
1, 118991, Control_c, 0, 64, 0
1, 119096, Control_c, 0, 64, 48
1, 119111, Control_c, 0, 64, 69
1, 119114, Note_off_c, 0, 82, 62
1, 119125, Control_c, 0, 64, 77
1, 119140, Control_c, 0, 64, 85
1, 119155, Control_c, 0, 64, 89
1, 119166, Note_off_c, 0, 70, 62
1, 119170, Control_c, 0, 64, 92
1, 119185, Control_c, 0, 64, 93
1, 119200, Control_c, 0, 64, 95
1, 119214, Control_c, 0, 64, 96
1, 119229, Control_c, 0, 64, 98
1, 119244, Control_c, 0, 64, 99
1, 119259, Control_c, 0, 64, 99
1, 119274, Control_c, 0, 64, 100
1, 119288, Control_c, 0, 64, 101
1, 119303, Control_c, 0, 64, 102
1, 119318, Control_c, 0, 64, 103
1, 119333, Control_c, 0, 64, 103
1, 119377, Control_c, 0, 64, 102
1, 119387, Note_on_c, 0, 77, 73
1, 119392, Control_c, 0, 64, 95
1, 119398, Note_on_c, 0, 65, 62
1, 119407, Control_c, 0, 64, 84
1, 119422, Control_c, 0, 64, 70
1, 119436, Control_c, 0, 64, 41
1, 119451, Control_c, 0, 64, 0
1, 119540, Control_c, 0, 64, 57
1, 119555, Control_c, 0, 64, 71
1, 119569, Control_c, 0, 64, 79
1, 119584, Control_c, 0, 64, 86
1, 119599, Control_c, 0, 64, 90
1, 119605, Note_off_c, 0, 60, 58
1, 119614, Control_c, 0, 64, 93
1, 119629, Control_c, 0, 64, 94
1, 119644, Control_c, 0, 64, 96
1, 119659, Control_c, 0, 64, 98
1, 119674, Control_c, 0, 64, 101
1, 119688, Control_c, 0, 64, 102
1, 119703, Control_c, 0, 64, 103
1, 119718, Control_c, 0, 64, 104
1, 119740, Control_c, 0, 64, 105
1, 119755, Control_c, 0, 64, 106
1, 119769, Control_c, 0, 64, 107
1, 119808, Note_off_c, 0, 65, 41
1, 119814, Control_c, 0, 64, 105
1, 119829, Control_c, 0, 64, 95
1, 119843, Control_c, 0, 64, 78
1, 119851, Note_on_c, 0, 63, 57
1, 119852, Note_on_c, 0, 59, 47
1, 119858, Note_off_c, 0, 64, 63
1, 119858, Control_c, 0, 64, 63
1, 119874, Control_c, 0, 64, 0
1, 119948, Control_c, 0, 64, 48
1, 119963, Control_c, 0, 64, 64
1, 119978, Control_c, 0, 64, 68
1, 119992, Control_c, 0, 64, 71
1, 120007, Control_c, 0, 64, 72
1, 120022, Control_c, 0, 64, 74
1, 120037, Control_c, 0, 64, 77
1, 120041, Note_on_c, 0, 80, 71
1, 120052, Control_c, 0, 64, 81
1, 120063, Note_on_c, 0, 68, 43
1, 120067, Control_c, 0, 64, 84
1, 120076, Note_off_c, 0, 77, 59
1, 120082, Control_c, 0, 64, 87
1, 120097, Control_c, 0, 64, 89
1, 120111, Control_c, 0, 64, 91
1, 120126, Control_c, 0, 64, 93
1, 120141, Control_c, 0, 64, 94
1, 120156, Note_off_c, 0, 68, 62
1, 120156, Control_c, 0, 64, 95
1, 120171, Control_c, 0, 64, 96
1, 120200, Control_c, 0, 64, 97
1, 120215, Control_c, 0, 64, 98
1, 120230, Control_c, 0, 64, 98
1, 120245, Control_c, 0, 64, 99
1, 120259, Control_c, 0, 64, 99
1, 120273, Note_off_c, 0, 80, 64
1, 120289, Control_c, 0, 64, 100
1, 120318, Control_c, 0, 64, 100
1, 120322, Note_off_c, 0, 63, 54
1, 120348, Control_c, 0, 64, 101
1, 120374, Note_on_c, 0, 87, 74
1, 120405, Note_on_c, 0, 75, 44
1, 120437, Note_off_c, 0, 59, 46
1, 120815, Control_c, 0, 64, 100
1, 120830, Control_c, 0, 64, 97
1, 120842, Note_on_c, 0, 62, 45
1, 120845, Control_c, 0, 64, 92
1, 120851, Note_on_c, 0, 58, 48
1, 120860, Control_c, 0, 64, 86
1, 120875, Control_c, 0, 64, 79
1, 120890, Control_c, 0, 64, 72
1, 120905, Control_c, 0, 64, 67
1, 120920, Control_c, 0, 64, 65
1, 120949, Control_c, 0, 64, 66
1, 120964, Control_c, 0, 64, 67
1, 120979, Control_c, 0, 64, 68
1, 120994, Control_c, 0, 64, 71
1, 121009, Control_c, 0, 64, 74
1, 121023, Control_c, 0, 64, 77
1, 121038, Control_c, 0, 64, 79
1, 121053, Control_c, 0, 64, 80
1, 121067, Control_c, 0, 64, 81
1, 121082, Control_c, 0, 64, 82
1, 121097, Control_c, 0, 64, 83
1, 121112, Control_c, 0, 64, 84
1, 121125, Note_off_c, 0, 58, 59
1, 121127, Control_c, 0, 64, 84
1, 121141, Control_c, 0, 64, 85
1, 121156, Control_c, 0, 64, 85
1, 121186, Control_c, 0, 64, 86
1, 121253, Control_c, 0, 64, 84
1, 121267, Control_c, 0, 64, 82
1, 121282, Control_c, 0, 64, 76
1, 121286, Note_on_c, 0, 61, 46
1, 121289, Note_on_c, 0, 57, 43
1, 121297, Control_c, 0, 64, 70
1, 121307, Note_off_c, 0, 62, 51
1, 121312, Control_c, 0, 64, 64
1, 121327, Control_c, 0, 64, 58
1, 121341, Control_c, 0, 64, 56
1, 121356, Control_c, 0, 64, 57
1, 121371, Control_c, 0, 64, 60
1, 121386, Control_c, 0, 64, 62
1, 121401, Control_c, 0, 64, 64
1, 121415, Control_c, 0, 64, 67
1, 121430, Control_c, 0, 64, 71
1, 121445, Control_c, 0, 64, 76
1, 121461, Control_c, 0, 64, 80
1, 121476, Control_c, 0, 64, 82
1, 121490, Control_c, 0, 64, 84
1, 121505, Control_c, 0, 64, 85
1, 121509, Note_off_c, 0, 61, 61
1, 121519, Note_off_c, 0, 75, 62
1, 121520, Control_c, 0, 64, 86
1, 121535, Control_c, 0, 64, 87
1, 121550, Control_c, 0, 64, 88
1, 121559, Note_off_c, 0, 87, 62
1, 121564, Control_c, 0, 64, 89
1, 121594, Control_c, 0, 64, 89
1, 121609, Control_c, 0, 64, 90
1, 121624, Control_c, 0, 64, 90
1, 121712, Control_c, 0, 64, 88
1, 121727, Control_c, 0, 64, 84
1, 121736, Note_on_c, 0, 86, 58
1, 121742, Control_c, 0, 64, 76
1, 121749, Note_on_c, 0, 74, 44
1, 121752, Note_on_c, 0, 60, 40
1, 121757, Control_c, 0, 64, 67
1, 121759, Note_on_c, 0, 56, 36
1, 121769, Note_off_c, 0, 57, 40
1, 121772, Control_c, 0, 64, 59
1, 121787, Control_c, 0, 64, 52
1, 121802, Control_c, 0, 64, 54
1, 121817, Control_c, 0, 64, 58
1, 121831, Control_c, 0, 64, 62
1, 121846, Control_c, 0, 64, 66
1, 121861, Control_c, 0, 64, 70
1, 121876, Control_c, 0, 64, 74
1, 121883, Note_off_c, 0, 86, 65
1, 121890, Control_c, 0, 64, 79
1, 121905, Control_c, 0, 64, 82
1, 121918, Note_off_c, 0, 74, 64
1, 121920, Control_c, 0, 64, 84
1, 121935, Control_c, 0, 64, 86
1, 121950, Control_c, 0, 64, 87
1, 121952, Note_off_c, 0, 60, 57
1, 121965, Control_c, 0, 64, 89
1, 121969, Note_off_c, 0, 56, 53
1, 121980, Control_c, 0, 64, 91
1, 122002, Control_c, 0, 64, 92
1, 122017, Control_c, 0, 64, 93
1, 122032, Control_c, 0, 64, 94
1, 122046, Control_c, 0, 64, 94
1, 122076, Control_c, 0, 64, 95
1, 122151, Control_c, 0, 64, 94
1, 122165, Control_c, 0, 64, 90
1, 122180, Control_c, 0, 64, 83
1, 122195, Note_on_c, 0, 74, 57
1, 122195, Control_c, 0, 64, 75
1, 122198, Note_on_c, 0, 55, 41
1, 122204, Note_on_c, 0, 62, 47
1, 122207, Note_on_c, 0, 59, 37
1, 122209, Control_c, 0, 64, 66
1, 122224, Control_c, 0, 64, 54
1, 122239, Control_c, 0, 64, 31
1, 122254, Control_c, 0, 64, 26
1, 122270, Control_c, 0, 64, 34
1, 122285, Control_c, 0, 64, 43
1, 122300, Control_c, 0, 64, 53
1, 122314, Control_c, 0, 64, 61
1, 122329, Control_c, 0, 64, 66
1, 122344, Control_c, 0, 64, 71
1, 122359, Control_c, 0, 64, 75
1, 122374, Control_c, 0, 64, 79
1, 122388, Control_c, 0, 64, 82
1, 122403, Control_c, 0, 64, 84
1, 122418, Control_c, 0, 64, 85
1, 122433, Control_c, 0, 64, 87
1, 122446, Note_off_c, 0, 62, 59
1, 122448, Control_c, 0, 64, 89
1, 122462, Control_c, 0, 64, 90
1, 122470, Note_off_c, 0, 55, 52
1, 122477, Control_c, 0, 64, 91
1, 122492, Control_c, 0, 64, 91
1, 122536, Control_c, 0, 64, 92
1, 122628, Note_on_c, 0, 58, 40
1, 122632, Note_on_c, 0, 54, 41
1, 122785, Note_off_c, 0, 58, 61
1, 122827, Note_on_c, 0, 77, 62
1, 122836, Note_on_c, 0, 65, 51
1, 122838, Note_off_c, 0, 54, 37
1, 122844, Note_off_c, 0, 74, 58
1, 122884, Note_off_c, 0, 65, 64
1, 122912, Note_off_c, 0, 59, 38
1, 122968, Note_off_c, 0, 77, 62
1, 123033, Control_c, 0, 64, 92
1, 123108, Control_c, 0, 64, 92
1, 123122, Control_c, 0, 64, 91
1, 123137, Control_c, 0, 64, 87
1, 123152, Control_c, 0, 64, 80
1, 123152, Note_on_c, 0, 84, 65
1, 123167, Control_c, 0, 64, 71
1, 123177, Note_on_c, 0, 53, 36
1, 123180, Note_on_c, 0, 57, 31
1, 123180, Note_on_c, 0, 72, 36
1, 123182, Control_c, 0, 64, 60
1, 123197, Control_c, 0, 64, 35
1, 123211, Control_c, 0, 64, 0
1, 123285, Control_c, 0, 64, 31
1, 123300, Control_c, 0, 64, 52
1, 123315, Control_c, 0, 64, 63
1, 123329, Control_c, 0, 64, 67
1, 123344, Control_c, 0, 64, 70
1, 123359, Control_c, 0, 64, 74
1, 123374, Control_c, 0, 64, 78
1, 123389, Control_c, 0, 64, 81
1, 123394, Note_off_c, 0, 53, 56
1, 123403, Control_c, 0, 64, 83
1, 123418, Control_c, 0, 64, 84
1, 123433, Control_c, 0, 64, 85
1, 123448, Control_c, 0, 64, 86
1, 123462, Control_c, 0, 64, 87
1, 123544, Control_c, 0, 64, 87
1, 123559, Control_c, 0, 64, 83
1, 123564, Note_off_c, 0, 57, 36
1, 123569, Note_on_c, 0, 56, 56
1, 123574, Control_c, 0, 64, 74
1, 123589, Control_c, 0, 64, 66
1, 123591, Note_on_c, 0, 52, 39
1, 123604, Control_c, 0, 64, 55
1, 123618, Control_c, 0, 64, 47
1, 123633, Control_c, 0, 64, 49
1, 123648, Control_c, 0, 64, 55
1, 123662, Control_c, 0, 64, 62
1, 123677, Control_c, 0, 64, 65
1, 123692, Control_c, 0, 64, 69
1, 123707, Control_c, 0, 64, 73
1, 123722, Control_c, 0, 64, 77
1, 123737, Control_c, 0, 64, 80
1, 123751, Control_c, 0, 64, 81
1, 123766, Control_c, 0, 64, 82
1, 123781, Control_c, 0, 64, 83
1, 123793, Note_off_c, 0, 52, 52
1, 123796, Control_c, 0, 64, 84
1, 123811, Control_c, 0, 64, 85
1, 123817, Note_on_c, 0, 60, 63
1, 123826, Control_c, 0, 64, 86
1, 123833, Note_off_c, 0, 56, 63
1, 123856, Control_c, 0, 64, 86
1, 123871, Control_c, 0, 64, 87
1, 123900, Control_c, 0, 64, 87
1, 123960, Control_c, 0, 64, 88
1, 124177, Note_on_c, 0, 67, 59
1, 124279, Note_off_c, 0, 60, 40
1, 124354, Note_off_c, 0, 72, 59
1, 124416, Note_off_c, 0, 84, 56
1, 124741, Note_on_c, 0, 83, 44
1, 124753, Note_on_c, 0, 71, 34
1, 124866, Note_off_c, 0, 71, 38
1, 124897, Note_off_c, 0, 83, 54
1, 125265, Control_c, 0, 64, 87
1, 125295, Control_c, 0, 64, 87
1, 125309, Control_c, 0, 64, 86
1, 125324, Control_c, 0, 64, 86
1, 125339, Control_c, 0, 64, 85
1, 125354, Control_c, 0, 64, 84
1, 125369, Control_c, 0, 64, 83
1, 125383, Control_c, 0, 64, 83
1, 125389, Note_on_c, 0, 70, 53
1, 125398, Control_c, 0, 64, 82
1, 125413, Control_c, 0, 64, 81
1, 125427, Control_c, 0, 64, 81
1, 125442, Control_c, 0, 64, 80
1, 125459, Control_c, 0, 64, 79
1, 125474, Control_c, 0, 64, 78
1, 125488, Control_c, 0, 64, 77
1, 125503, Control_c, 0, 64, 76
1, 125518, Control_c, 0, 64, 75
1, 125532, Control_c, 0, 64, 73
1, 125547, Control_c, 0, 64, 71
1, 125562, Control_c, 0, 64, 70
1, 125577, Control_c, 0, 64, 68
1, 125592, Control_c, 0, 64, 67
1, 125606, Control_c, 0, 64, 65
1, 125621, Control_c, 0, 64, 64
1, 125636, Control_c, 0, 64, 64
1, 125650, Control_c, 0, 64, 63
1, 125665, Control_c, 0, 64, 62
1, 125680, Control_c, 0, 64, 60
1, 125695, Control_c, 0, 64, 59
1, 125710, Control_c, 0, 64, 57
1, 125725, Control_c, 0, 64, 55
1, 125747, Control_c, 0, 64, 52
1, 125762, Control_c, 0, 64, 50
1, 125777, Control_c, 0, 64, 48
1, 125792, Control_c, 0, 64, 46
1, 125807, Control_c, 0, 64, 44
1, 125821, Control_c, 0, 64, 41
1, 125836, Control_c, 0, 64, 38
1, 125851, Control_c, 0, 64, 34
1, 125865, Control_c, 0, 64, 31
1, 125880, Control_c, 0, 64, 29
1, 125895, Control_c, 0, 64, 26
1, 125910, Control_c, 0, 64, 25
1, 125948, Note_on_c, 0, 66, 39
1, 125984, Control_c, 0, 64, 23
1, 125999, Note_off_c, 0, 67, 57
1, 125999, Control_c, 0, 64, 22
1, 126103, Control_c, 0, 64, 25
1, 126118, Control_c, 0, 64, 26
1, 126147, Control_c, 0, 64, 28
1, 126162, Control_c, 0, 64, 31
1, 126173, Note_on_c, 0, 74, 46
1, 126177, Control_c, 0, 64, 34
1, 126192, Control_c, 0, 64, 39
1, 126206, Control_c, 0, 64, 41
1, 126221, Control_c, 0, 64, 44
1, 126236, Control_c, 0, 64, 47
1, 126252, Control_c, 0, 64, 51
1, 126267, Control_c, 0, 64, 54
1, 126281, Control_c, 0, 64, 57
1, 126296, Control_c, 0, 64, 58
1, 126311, Control_c, 0, 64, 59
1, 126326, Control_c, 0, 64, 60
1, 126341, Control_c, 0, 64, 60
1, 126370, Control_c, 0, 64, 61
1, 126400, Control_c, 0, 64, 61
1, 126429, Control_c, 0, 64, 62
1, 126459, Control_c, 0, 64, 62
1, 126468, Note_on_c, 0, 81, 51
1, 126481, Control_c, 0, 64, 63
1, 126511, Control_c, 0, 64, 63
1, 126526, Control_c, 0, 64, 64
1, 126541, Control_c, 0, 64, 64
1, 126555, Control_c, 0, 64, 66
1, 126570, Control_c, 0, 64, 68
1, 126585, Control_c, 0, 64, 71
1, 126600, Control_c, 0, 64, 74
1, 126615, Control_c, 0, 64, 76
1, 126630, Control_c, 0, 64, 78
1, 126644, Control_c, 0, 64, 80
1, 126659, Control_c, 0, 64, 81
1, 126674, Control_c, 0, 64, 82
1, 126675, Note_off_c, 0, 81, 58
1, 126688, Control_c, 0, 64, 83
1, 126703, Control_c, 0, 64, 84
1, 126733, Control_c, 0, 64, 84
1, 126762, Control_c, 0, 64, 85
1, 126846, Note_off_c, 0, 74, 57
1, 126896, Note_on_c, 0, 65, 47
1, 126944, Note_off_c, 0, 66, 43
1, 126959, Note_off_c, 0, 70, 38
1, 127074, Control_c, 0, 64, 84
1, 127303, Control_c, 0, 64, 84
1, 127318, Control_c, 0, 64, 83
1, 127333, Control_c, 0, 64, 82
1, 127337, Note_on_c, 0, 69, 53
1, 127348, Control_c, 0, 64, 79
1, 127363, Control_c, 0, 64, 77
1, 127377, Control_c, 0, 64, 73
1, 127392, Control_c, 0, 64, 70
1, 127407, Control_c, 0, 64, 67
1, 127422, Control_c, 0, 64, 65
1, 127510, Control_c, 0, 64, 66
1, 127525, Control_c, 0, 64, 66
1, 127540, Control_c, 0, 64, 67
1, 127555, Control_c, 0, 64, 68
1, 127570, Control_c, 0, 64, 69
1, 127584, Control_c, 0, 64, 69
1, 127599, Control_c, 0, 64, 70
1, 127732, Control_c, 0, 64, 69
1, 127744, Note_on_c, 0, 64, 47
1, 127747, Control_c, 0, 64, 68
1, 127755, Note_off_c, 0, 65, 64
1, 127762, Control_c, 0, 64, 67
1, 127776, Control_c, 0, 64, 66
1, 127791, Control_c, 0, 64, 66
1, 127911, Control_c, 0, 64, 66
1, 127916, Note_on_c, 0, 73, 58
1, 127925, Control_c, 0, 64, 67
1, 127940, Control_c, 0, 64, 68
1, 127955, Control_c, 0, 64, 69
1, 127963, Note_off_c, 0, 69, 64
1, 127978, Control_c, 0, 64, 70
1, 127993, Control_c, 0, 64, 72
1, 128007, Control_c, 0, 64, 74
1, 128022, Control_c, 0, 64, 77
1, 128037, Control_c, 0, 64, 79
1, 128051, Control_c, 0, 64, 80
1, 128066, Control_c, 0, 64, 80
1, 128096, Control_c, 0, 64, 81
1, 128155, Control_c, 0, 64, 80
1, 128170, Control_c, 0, 64, 79
1, 128185, Control_c, 0, 64, 76
1, 128187, Note_on_c, 0, 79, 66
1, 128199, Control_c, 0, 64, 73
1, 128203, Note_on_c, 0, 72, 47
1, 128206, Note_on_c, 0, 68, 46
1, 128214, Control_c, 0, 64, 68
1, 128221, Note_off_c, 0, 73, 25
1, 128229, Control_c, 0, 64, 64
1, 128245, Control_c, 0, 64, 61
1, 128259, Control_c, 0, 64, 61
1, 128274, Control_c, 0, 64, 61
1, 128289, Control_c, 0, 64, 63
1, 128304, Control_c, 0, 64, 64
1, 128319, Control_c, 0, 64, 66
1, 128333, Control_c, 0, 64, 68
1, 128348, Control_c, 0, 64, 72
1, 128363, Control_c, 0, 64, 76
1, 128378, Control_c, 0, 64, 78
1, 128393, Control_c, 0, 64, 80
1, 128408, Control_c, 0, 64, 81
1, 128422, Control_c, 0, 64, 83
1, 128437, Control_c, 0, 64, 84
1, 128452, Control_c, 0, 64, 86
1, 128467, Control_c, 0, 64, 87
1, 128600, Control_c, 0, 64, 85
1, 128615, Control_c, 0, 64, 82
1, 128630, Control_c, 0, 64, 78
1, 128641, Note_on_c, 0, 63, 63
1, 128646, Control_c, 0, 64, 73
1, 128661, Control_c, 0, 64, 69
1, 128675, Control_c, 0, 64, 66
1, 128690, Control_c, 0, 64, 65
1, 128705, Control_c, 0, 64, 66
1, 128727, Control_c, 0, 64, 66
1, 128729, Note_off_c, 0, 64, 61
1, 128742, Control_c, 0, 64, 67
1, 128756, Control_c, 0, 64, 69
1, 128771, Control_c, 0, 64, 71
1, 128786, Control_c, 0, 64, 74
1, 128801, Control_c, 0, 64, 77
1, 128816, Control_c, 0, 64, 79
1, 128831, Control_c, 0, 64, 80
1, 128846, Control_c, 0, 64, 82
1, 128858, Note_off_c, 0, 68, 60
1, 128861, Control_c, 0, 64, 83
1, 128875, Control_c, 0, 64, 84
1, 128890, Control_c, 0, 64, 85
1, 128905, Control_c, 0, 64, 86
1, 128915, Note_off_c, 0, 63, 63
1, 128935, Control_c, 0, 64, 86
1, 128949, Control_c, 0, 64, 87
1, 128979, Control_c, 0, 64, 87
1, 129067, Control_c, 0, 64, 86
1, 129081, Control_c, 0, 64, 83
1, 129093, Note_off_c, 0, 79, 51
1, 129096, Control_c, 0, 64, 78
1, 129102, Note_on_c, 0, 63, 70
1, 129102, Note_on_c, 0, 67, 69
1, 129111, Control_c, 0, 64, 72
1, 129126, Control_c, 0, 64, 66
1, 129141, Control_c, 0, 64, 62
1, 129156, Control_c, 0, 64, 59
1, 129171, Control_c, 0, 64, 59
1, 129171, Note_off_c, 0, 72, 63
1, 129186, Control_c, 0, 64, 58
1, 129200, Control_c, 0, 64, 58
1, 129215, Control_c, 0, 64, 57
1, 129230, Control_c, 0, 64, 56
1, 129245, Control_c, 0, 64, 56
1, 129260, Control_c, 0, 64, 57
1, 129274, Control_c, 0, 64, 58
1, 129289, Control_c, 0, 64, 58
1, 129304, Control_c, 0, 64, 59
1, 129319, Control_c, 0, 64, 61
1, 129334, Control_c, 0, 64, 63
1, 129348, Control_c, 0, 64, 65
1, 129363, Control_c, 0, 64, 68
1, 129378, Control_c, 0, 64, 70
1, 129393, Control_c, 0, 64, 72
1, 129407, Control_c, 0, 64, 75
1, 129422, Control_c, 0, 64, 78
1, 129437, Control_c, 0, 64, 80
1, 129453, Control_c, 0, 64, 82
1, 129468, Control_c, 0, 64, 83
1, 129490, Control_c, 0, 64, 84
1, 129505, Control_c, 0, 64, 85
1, 129519, Control_c, 0, 64, 86
1, 129534, Control_c, 0, 64, 86
1, 129549, Control_c, 0, 64, 87
1, 129594, Control_c, 0, 64, 87
1, 129718, Note_on_c, 0, 72, 71
1, 129813, Note_off_c, 0, 67, 56
1, 129993, Control_c, 0, 64, 87
1, 130008, Control_c, 0, 64, 85
1, 130015, Note_on_c, 0, 78, 83
1, 130019, Note_on_c, 0, 62, 66
1, 130021, Note_on_c, 0, 71, 65
1, 130023, Control_c, 0, 64, 82
1, 130037, Note_on_c, 0, 67, 60
1, 130038, Control_c, 0, 64, 78
1, 130053, Control_c, 0, 64, 73
1, 130060, Note_off_c, 0, 72, 62
1, 130068, Control_c, 0, 64, 67
1, 130072, Note_off_c, 0, 63, 58
1, 130083, Control_c, 0, 64, 62
1, 130097, Control_c, 0, 64, 56
1, 130112, Control_c, 0, 64, 52
1, 130127, Control_c, 0, 64, 49
1, 130142, Control_c, 0, 64, 44
1, 130157, Control_c, 0, 64, 33
1, 130171, Control_c, 0, 64, 0
1, 130186, Control_c, 0, 67, 125
1, 130201, Control_c, 0, 64, 16
1, 130201, Control_c, 0, 67, 121
1, 130223, Control_c, 0, 64, 37
1, 130223, Control_c, 0, 67, 116
1, 130238, Control_c, 0, 64, 52
1, 130238, Control_c, 0, 67, 111
1, 130253, Control_c, 0, 64, 60
1, 130253, Control_c, 0, 67, 105
1, 130268, Control_c, 0, 64, 66
1, 130268, Control_c, 0, 67, 101
1, 130283, Control_c, 0, 64, 70
1, 130283, Control_c, 0, 67, 96
1, 130298, Control_c, 0, 64, 75
1, 130298, Control_c, 0, 67, 91
1, 130313, Control_c, 0, 64, 78
1, 130313, Control_c, 0, 67, 86
1, 130327, Control_c, 0, 64, 80
1, 130327, Control_c, 0, 67, 81
1, 130342, Control_c, 0, 64, 81
1, 130342, Control_c, 0, 67, 76
1, 130357, Control_c, 0, 64, 82
1, 130357, Control_c, 0, 67, 72
1, 130372, Control_c, 0, 64, 84
1, 130372, Control_c, 0, 67, 68
1, 130387, Control_c, 0, 64, 86
1, 130387, Control_c, 0, 67, 65
1, 130402, Control_c, 0, 64, 87
1, 130402, Control_c, 0, 67, 61
1, 130417, Control_c, 0, 64, 88
1, 130417, Control_c, 0, 67, 58
1, 130432, Control_c, 0, 64, 89
1, 130432, Control_c, 0, 67, 56
1, 130447, Control_c, 0, 64, 90
1, 130447, Control_c, 0, 67, 53
1, 130461, Control_c, 0, 64, 91
1, 130461, Control_c, 0, 67, 51
1, 130476, Control_c, 0, 64, 92
1, 130476, Control_c, 0, 67, 47
1, 130491, Control_c, 0, 64, 93
1, 130491, Control_c, 0, 67, 44
1, 130506, Control_c, 0, 67, 40
1, 130520, Control_c, 0, 64, 93
1, 130520, Control_c, 0, 67, 37
1, 130535, Control_c, 0, 67, 34
1, 130550, Control_c, 0, 67, 32
1, 130565, Control_c, 0, 67, 31
1, 130580, Control_c, 0, 64, 93
1, 130594, Control_c, 0, 64, 90
1, 130609, Control_c, 0, 64, 85
1, 130623, Note_off_c, 0, 62, 61
1, 130624, Control_c, 0, 64, 78
1, 130631, Note_on_c, 0, 61, 67
1, 130639, Control_c, 0, 64, 70
1, 130653, Control_c, 0, 64, 60
1, 130653, Control_c, 0, 67, 31
1, 130668, Control_c, 0, 64, 48
1, 130683, Control_c, 0, 64, 49
1, 130683, Control_c, 0, 67, 30
1, 130698, Control_c, 0, 64, 56
1, 130698, Control_c, 0, 67, 30
1, 130713, Control_c, 0, 64, 63
1, 130713, Control_c, 0, 67, 28
1, 130727, Control_c, 0, 64, 67
1, 130727, Control_c, 0, 67, 26
1, 130742, Control_c, 0, 64, 74
1, 130742, Control_c, 0, 67, 24
1, 130757, Control_c, 0, 64, 81
1, 130757, Control_c, 0, 67, 23
1, 130772, Control_c, 0, 64, 85
1, 130772, Control_c, 0, 67, 22
1, 130787, Control_c, 0, 64, 87
1, 130787, Control_c, 0, 67, 22
1, 130797, Note_off_c, 0, 61, 63
1, 130801, Control_c, 0, 64, 88
1, 130801, Control_c, 0, 67, 21
1, 130816, Control_c, 0, 64, 88
1, 130816, Control_c, 0, 67, 21
1, 130831, Control_c, 0, 64, 90
1, 130831, Control_c, 0, 67, 20
1, 130846, Control_c, 0, 64, 91
1, 130861, Control_c, 0, 64, 91
1, 130876, Control_c, 0, 64, 92
1, 130987, Control_c, 0, 64, 89
1, 130995, Note_on_c, 0, 61, 74
1, 131001, Control_c, 0, 64, 84
1, 131001, Control_c, 0, 67, 20
1, 131016, Control_c, 0, 64, 77
1, 131031, Control_c, 0, 64, 67
1, 131047, Control_c, 0, 64, 52
1, 131062, Control_c, 0, 64, 0
1, 131106, Control_c, 0, 64, 27
1, 131121, Control_c, 0, 64, 37
1, 131121, Control_c, 0, 67, 20
1, 131136, Control_c, 0, 64, 53
1, 131150, Control_c, 0, 64, 64
1, 131165, Control_c, 0, 64, 69
1, 131165, Control_c, 0, 67, 19
1, 131180, Control_c, 0, 64, 74
1, 131180, Control_c, 0, 67, 19
1, 131195, Control_c, 0, 64, 80
1, 131195, Control_c, 0, 67, 18
1, 131210, Control_c, 0, 64, 84
1, 131210, Control_c, 0, 67, 12
1, 131225, Control_c, 0, 64, 87
1, 131225, Control_c, 0, 67, 0
1, 131239, Control_c, 0, 64, 90
1, 131254, Control_c, 0, 64, 92
1, 131269, Control_c, 0, 64, 95
1, 131284, Control_c, 0, 64, 97
1, 131299, Control_c, 0, 64, 99
1, 131314, Control_c, 0, 64, 101
1, 131329, Control_c, 0, 64, 103
1, 131344, Control_c, 0, 64, 105
1, 131358, Control_c, 0, 64, 106
1, 131373, Control_c, 0, 64, 107
1, 131388, Control_c, 0, 64, 107
1, 131403, Control_c, 0, 64, 108
1, 131418, Control_c, 0, 64, 108
1, 131432, Note_on_c, 0, 79, 81
1, 131432, Control_c, 0, 64, 109
1, 131447, Control_c, 0, 64, 109
1, 131476, Control_c, 0, 64, 110
1, 131491, Control_c, 0, 64, 111
1, 131506, Control_c, 0, 64, 112
1, 131521, Control_c, 0, 64, 114
1, 131536, Control_c, 0, 64, 116
1, 131540, Note_off_c, 0, 78, 63
1, 131546, Note_off_c, 0, 71, 62
1, 131550, Control_c, 0, 64, 118
1, 131565, Control_c, 0, 64, 121
1, 131580, Control_c, 0, 64, 123
1, 131594, Control_c, 0, 64, 126
1, 131609, Control_c, 0, 64, 127
1, 131648, Note_off_c, 0, 79, 54
1, 131663, Note_off_c, 0, 67, 53
1, 131768, Note_off_c, 0, 61, 55
1, 131779, Note_on_c, 0, 79, 82
1, 131780, Control_c, 0, 64, 118
1, 131783, Note_on_c, 0, 60, 64
1, 131783, Note_on_c, 0, 67, 79
1, 131784, Note_on_c, 0, 70, 72
1, 131794, Control_c, 0, 64, 102
1, 131809, Control_c, 0, 64, 89
1, 131824, Control_c, 0, 64, 77
1, 131839, Control_c, 0, 64, 65
1, 131855, Control_c, 0, 64, 0
1, 131929, Control_c, 0, 64, 42
1, 131944, Control_c, 0, 64, 58
1, 131959, Control_c, 0, 64, 64
1, 131973, Control_c, 0, 64, 68
1, 131989, Control_c, 0, 64, 74
1, 132004, Control_c, 0, 64, 80
1, 132019, Control_c, 0, 64, 85
1, 132034, Control_c, 0, 64, 87
1, 132048, Control_c, 0, 64, 89
1, 132063, Control_c, 0, 64, 91
1, 132078, Control_c, 0, 64, 94
1, 132092, Control_c, 0, 64, 97
1, 132101, Note_on_c, 0, 75, 88
1, 132107, Control_c, 0, 64, 100
1, 132122, Control_c, 0, 64, 101
1, 132137, Control_c, 0, 64, 103
1, 132143, Note_off_c, 0, 79, 60
1, 132152, Control_c, 0, 64, 106
1, 132167, Control_c, 0, 64, 109
1, 132181, Control_c, 0, 64, 113
1, 132196, Control_c, 0, 64, 115
1, 132211, Control_c, 0, 64, 118
1, 132215, Note_off_c, 0, 67, 55
1, 132226, Control_c, 0, 64, 122
1, 132241, Control_c, 0, 64, 127
1, 132279, Note_off_c, 0, 60, 55
1, 132289, Note_off_c, 0, 75, 62
1, 132374, Control_c, 0, 64, 120
1, 132387, Note_on_c, 0, 75, 91
1, 132389, Control_c, 0, 64, 102
1, 132391, Note_on_c, 0, 59, 67
1, 132396, Note_on_c, 0, 69, 75
1, 132396, Note_off_c, 0, 70, 63
1, 132397, Note_on_c, 0, 67, 76
1, 132404, Control_c, 0, 64, 86
1, 132418, Control_c, 0, 64, 70
1, 132433, Control_c, 0, 64, 11
1, 132448, Control_c, 0, 64, 0
1, 132530, Control_c, 0, 64, 52
1, 132545, Control_c, 0, 64, 69
1, 132560, Control_c, 0, 64, 78
1, 132574, Control_c, 0, 64, 85
1, 132588, Note_off_c, 0, 59, 64
1, 132589, Control_c, 0, 64, 90
1, 132604, Control_c, 0, 64, 94
1, 132618, Control_c, 0, 64, 96
1, 132633, Control_c, 0, 64, 100
1, 132649, Control_c, 0, 64, 103
1, 132664, Control_c, 0, 64, 105
1, 132679, Control_c, 0, 64, 107
1, 132709, Control_c, 0, 64, 107
1, 132723, Control_c, 0, 64, 108
1, 132729, Note_on_c, 0, 71, 79
1, 132752, Control_c, 0, 64, 108
1, 132782, Control_c, 0, 64, 109
1, 132788, Note_off_c, 0, 69, 57
1, 132790, Note_off_c, 0, 67, 52
1, 132801, Note_off_c, 0, 75, 61
1, 132811, Control_c, 0, 64, 109
1, 132870, Control_c, 0, 64, 110
1, 133063, Control_c, 0, 64, 109
1, 133075, Note_on_c, 0, 74, 73
1, 133076, Note_on_c, 0, 68, 71
1, 133076, Note_on_c, 0, 58, 62
1, 133078, Control_c, 0, 64, 101
1, 133086, Note_on_c, 0, 64, 54
1, 133093, Control_c, 0, 64, 88
1, 133094, Note_off_c, 0, 71, 58
1, 133108, Control_c, 0, 64, 72
1, 133122, Control_c, 0, 64, 0
1, 133560, Control_c, 0, 64, 18
1, 133575, Control_c, 0, 64, 26
1, 133633, Note_off_c, 0, 68, 55
1, 133645, Note_on_c, 0, 67, 50
1, 133649, Control_c, 0, 64, 25
1, 133663, Control_c, 0, 64, 23
1, 133678, Control_c, 0, 64, 20
1, 133723, Control_c, 0, 64, 23
1, 133737, Control_c, 0, 64, 26
1, 133752, Control_c, 0, 64, 31
1, 133764, Note_off_c, 0, 67, 59
1, 133767, Control_c, 0, 64, 37
1, 133782, Control_c, 0, 64, 42
1, 133797, Control_c, 0, 64, 48
1, 133812, Control_c, 0, 64, 56
1, 133827, Control_c, 0, 64, 59
1, 133842, Control_c, 0, 64, 61
1, 133857, Control_c, 0, 64, 63
1, 133871, Control_c, 0, 64, 64
1, 133875, Note_on_c, 0, 67, 47
1, 133886, Control_c, 0, 64, 65
1, 133901, Control_c, 0, 64, 69
1, 133916, Control_c, 0, 64, 72
1, 133931, Control_c, 0, 64, 77
1, 133945, Control_c, 0, 64, 81
1, 133967, Control_c, 0, 64, 85
1, 133982, Control_c, 0, 64, 88
1, 133997, Control_c, 0, 64, 90
1, 134012, Control_c, 0, 64, 92
1, 134027, Control_c, 0, 64, 94
1, 134039, Note_off_c, 0, 64, 63
1, 134041, Control_c, 0, 64, 96
1, 134056, Control_c, 0, 64, 97
1, 134071, Control_c, 0, 64, 98
1, 134086, Control_c, 0, 64, 98
1, 134101, Control_c, 0, 64, 99
1, 134116, Control_c, 0, 64, 99
1, 134131, Control_c, 0, 64, 100
1, 134175, Control_c, 0, 64, 100
1, 134235, Note_off_c, 0, 74, 59
1, 134260, Note_on_c, 0, 73, 55
1, 134344, Note_off_c, 0, 67, 51
1, 134379, Note_off_c, 0, 73, 63
1, 134605, Control_c, 0, 64, 100
1, 134620, Control_c, 0, 64, 99
1, 134635, Control_c, 0, 64, 97
1, 134650, Control_c, 0, 64, 94
1, 134665, Control_c, 0, 64, 88
1, 134671, Note_on_c, 0, 42, 39
1, 134679, Control_c, 0, 64, 83
1, 134685, Note_on_c, 0, 67, 43
1, 134685, Note_on_c, 0, 73, 46
1, 134694, Control_c, 0, 64, 78
1, 134716, Control_c, 0, 64, 74
1, 134731, Control_c, 0, 64, 70
1, 134746, Control_c, 0, 64, 67
1, 134749, Note_off_c, 0, 67, 0
1, 134749, Note_on_c, 0, 67, 17
1, 134761, Control_c, 0, 64, 65
1, 134775, Control_c, 0, 64, 64
1, 134790, Control_c, 0, 64, 64
1, 134805, Control_c, 0, 64, 63
1, 134820, Control_c, 0, 64, 62
1, 134834, Control_c, 0, 64, 60
1, 134849, Control_c, 0, 64, 59
1, 134864, Control_c, 0, 64, 60
1, 134879, Control_c, 0, 64, 60
1, 134924, Control_c, 0, 64, 61
1, 134939, Control_c, 0, 64, 62
1, 134954, Control_c, 0, 64, 64
1, 134968, Control_c, 0, 64, 65
1, 134983, Control_c, 0, 64, 66
1, 135028, Control_c, 0, 64, 66
1, 135043, Control_c, 0, 64, 67
1, 135058, Control_c, 0, 64, 69
1, 135073, Control_c, 0, 64, 69
1, 135118, Control_c, 0, 64, 70
1, 135133, Control_c, 0, 64, 70
1, 135147, Control_c, 0, 64, 71
1, 135162, Control_c, 0, 64, 71
1, 135251, Control_c, 0, 64, 71
1, 135266, Control_c, 0, 64, 70
1, 135281, Control_c, 0, 64, 70
1, 135293, Note_off_c, 0, 67, 51
1, 135296, Control_c, 0, 64, 69
1, 135310, Control_c, 0, 64, 68
1, 135320, Note_off_c, 0, 58, 44
1, 135325, Control_c, 0, 64, 68
1, 135338, Note_on_c, 0, 66, 40
1, 135340, Control_c, 0, 64, 68
1, 135355, Control_c, 0, 64, 70
1, 135370, Control_c, 0, 64, 73
1, 135384, Control_c, 0, 64, 78
1, 135399, Control_c, 0, 64, 83
1, 135414, Control_c, 0, 64, 86
1, 135428, Note_off_c, 0, 66, 58
1, 135429, Control_c, 0, 64, 88
1, 135440, Note_off_c, 0, 42, 63
1, 135443, Control_c, 0, 64, 89
1, 135466, Control_c, 0, 64, 90
1, 135481, Control_c, 0, 64, 90
1, 135511, Control_c, 0, 64, 91
1, 135540, Control_c, 0, 64, 91
1, 135643, Control_c, 0, 64, 91
1, 135658, Control_c, 0, 64, 90
1, 135673, Control_c, 0, 64, 88
1, 135681, Note_on_c, 0, 66, 46
1, 135687, Note_on_c, 0, 35, 41
1, 135687, Note_on_c, 0, 62, 44
1, 135688, Control_c, 0, 64, 86
1, 135703, Control_c, 0, 64, 83
1, 135717, Control_c, 0, 64, 79
1, 135732, Control_c, 0, 64, 76
1, 135747, Control_c, 0, 64, 73
1, 135761, Control_c, 0, 64, 72
1, 135776, Control_c, 0, 64, 71
1, 135791, Control_c, 0, 64, 71
1, 135821, Control_c, 0, 64, 70
1, 135836, Control_c, 0, 64, 69
1, 135852, Control_c, 0, 64, 69
1, 135866, Control_c, 0, 64, 68
1, 135881, Control_c, 0, 64, 68
1, 135896, Note_off_c, 0, 73, 35
1, 135896, Control_c, 0, 64, 67
1, 136286, Note_on_c, 0, 42, 28
1, 136447, Note_off_c, 0, 35, 32
1, 136542, Note_on_c, 0, 47, 35
1, 136564, Note_off_c, 0, 42, 41
1, 136599, Control_c, 0, 64, 67
1, 136629, Control_c, 0, 64, 66
1, 136660, Control_c, 0, 64, 66
1, 136749, Control_c, 0, 64, 66
1, 136778, Control_c, 0, 64, 67
1, 136793, Control_c, 0, 64, 67
1, 136808, Control_c, 0, 64, 68
1, 136823, Control_c, 0, 64, 68
1, 136838, Control_c, 0, 64, 69
1, 136852, Control_c, 0, 64, 70
1, 136867, Control_c, 0, 64, 71
1, 136882, Control_c, 0, 64, 72
1, 136897, Control_c, 0, 64, 73
1, 136912, Control_c, 0, 64, 73
1, 137065, Note_on_c, 0, 74, 61
1, 137147, Note_off_c, 0, 47, 43
1, 137153, Note_off_c, 0, 66, 55
1, 137177, Note_off_c, 0, 62, 39
1, 137215, Control_c, 0, 64, 74
1, 137229, Control_c, 0, 64, 75
1, 137244, Control_c, 0, 64, 77
1, 137259, Control_c, 0, 64, 79
1, 137274, Control_c, 0, 64, 80
1, 137288, Control_c, 0, 64, 81
1, 137303, Control_c, 0, 64, 82
1, 137318, Control_c, 0, 64, 83
1, 137333, Control_c, 0, 64, 85
1, 137348, Control_c, 0, 64, 86
1, 137362, Control_c, 0, 64, 86
1, 137377, Control_c, 0, 64, 87
1, 137424, Note_on_c, 0, 70, 79
1, 137434, Note_on_c, 0, 62, 61
1, 137437, Control_c, 0, 64, 85
1, 137452, Control_c, 0, 64, 80
1, 137467, Control_c, 0, 64, 73
1, 137482, Control_c, 0, 64, 65
1, 137497, Control_c, 0, 64, 57
1, 137511, Control_c, 0, 64, 58
1, 137526, Control_c, 0, 64, 61
1, 137541, Control_c, 0, 64, 66
1, 137556, Control_c, 0, 64, 70
1, 137571, Control_c, 0, 64, 75
1, 137586, Control_c, 0, 64, 80
1, 137601, Control_c, 0, 64, 85
1, 137616, Control_c, 0, 64, 87
1, 137629, Note_off_c, 0, 74, 38
1, 137630, Control_c, 0, 64, 89
1, 137645, Control_c, 0, 64, 91
1, 137660, Control_c, 0, 64, 92
1, 137675, Control_c, 0, 64, 93
1, 137690, Control_c, 0, 64, 94
1, 137711, Control_c, 0, 64, 95
1, 137726, Control_c, 0, 64, 96
1, 137734, Note_on_c, 0, 66, 85
1, 137741, Control_c, 0, 64, 97
1, 137756, Note_off_c, 0, 62, 60
1, 137756, Control_c, 0, 64, 97
1, 137771, Control_c, 0, 64, 98
1, 137786, Control_c, 0, 64, 99
1, 137800, Control_c, 0, 64, 100
1, 137815, Control_c, 0, 64, 101
1, 137830, Control_c, 0, 64, 102
1, 137831, Note_off_c, 0, 66, 65
1, 137845, Control_c, 0, 64, 102
1, 137859, Note_off_c, 0, 70, 64
1, 137860, Control_c, 0, 64, 103
1, 137872, Note_on_c, 0, 60, 71
1, 137875, Control_c, 0, 64, 103
1, 137890, Control_c, 0, 64, 104
1, 137934, Control_c, 0, 64, 104
1, 138083, Control_c, 0, 64, 104
1, 138098, Control_c, 0, 64, 103
1, 138112, Control_c, 0, 64, 99
1, 138116, Note_on_c, 0, 77, 94
1, 138124, Note_on_c, 0, 69, 73
1, 138127, Control_c, 0, 64, 94
1, 138128, Note_on_c, 0, 65, 75
1, 138129, Note_on_c, 0, 61, 65
1, 138142, Control_c, 0, 64, 87
1, 138157, Control_c, 0, 64, 80
1, 138171, Control_c, 0, 64, 74
1, 138186, Control_c, 0, 64, 69
1, 138201, Control_c, 0, 64, 65
1, 138205, Note_off_c, 0, 60, 55
1, 138216, Control_c, 0, 64, 63
1, 138232, Control_c, 0, 64, 62
1, 138247, Control_c, 0, 64, 60
1, 138261, Control_c, 0, 64, 58
1, 138276, Control_c, 0, 64, 56
1, 138291, Control_c, 0, 64, 55
1, 138321, Control_c, 0, 64, 54
1, 138335, Control_c, 0, 64, 51
1, 138350, Control_c, 0, 64, 49
1, 138380, Control_c, 0, 64, 49
1, 138395, Control_c, 0, 64, 47
1, 138409, Control_c, 0, 64, 44
1, 138424, Control_c, 0, 64, 41
1, 138461, Control_c, 0, 64, 45
1, 138476, Control_c, 0, 64, 49
1, 138491, Control_c, 0, 64, 50
1, 138506, Control_c, 0, 64, 54
1, 138521, Control_c, 0, 64, 61
1, 138535, Control_c, 0, 64, 67
1, 138550, Control_c, 0, 64, 73
1, 138565, Control_c, 0, 64, 80
1, 138580, Control_c, 0, 64, 84
1, 138594, Control_c, 0, 64, 86
1, 138609, Control_c, 0, 64, 87
1, 138624, Control_c, 0, 64, 88
1, 138634, Note_on_c, 0, 76, 75
1, 138639, Control_c, 0, 64, 90
1, 138654, Control_c, 0, 64, 91
1, 138674, Note_off_c, 0, 77, 55
1, 138683, Control_c, 0, 64, 91
1, 138713, Control_c, 0, 64, 92
1, 138728, Control_c, 0, 64, 92
1, 138740, Note_off_c, 0, 76, 64
1, 138742, Control_c, 0, 64, 93
1, 138772, Control_c, 0, 64, 93
1, 138817, Control_c, 0, 64, 94
1, 138836, Note_on_c, 0, 76, 77
1, 138851, Note_off_c, 0, 69, 65
1, 138868, Note_off_c, 0, 65, 64
1, 138891, Control_c, 0, 64, 94
1, 138906, Control_c, 0, 64, 95
1, 138921, Control_c, 0, 64, 95
1, 138935, Control_c, 0, 64, 96
1, 138950, Control_c, 0, 64, 97
1, 138965, Control_c, 0, 64, 98
1, 138980, Control_c, 0, 64, 100
1, 138994, Control_c, 0, 64, 102
1, 139009, Control_c, 0, 64, 105
1, 139024, Control_c, 0, 64, 108
1, 139040, Control_c, 0, 64, 112
1, 139055, Control_c, 0, 64, 115
1, 139085, Note_on_c, 0, 70, 76
1, 139094, Note_on_c, 0, 66, 68
1, 139114, Control_c, 0, 64, 113
1, 139129, Control_c, 0, 64, 108
1, 139144, Control_c, 0, 64, 104
1, 139158, Control_c, 0, 64, 104
1, 139188, Control_c, 0, 64, 106
1, 139210, Control_c, 0, 64, 108
1, 139223, Note_on_c, 0, 62, 63
1, 139225, Control_c, 0, 64, 109
1, 139240, Control_c, 0, 64, 110
1, 139255, Control_c, 0, 64, 111
1, 139260, Note_off_c, 0, 62, 61
1, 139263, Note_off_c, 0, 66, 65
1, 139270, Control_c, 0, 64, 115
1, 139284, Control_c, 0, 64, 124
1, 139299, Control_c, 0, 64, 127
1, 139337, Note_off_c, 0, 70, 52
1, 139373, Control_c, 0, 64, 117
1, 139376, Note_on_c, 0, 71, 86
1, 139380, Note_on_c, 0, 67, 76
1, 139386, Note_on_c, 0, 62, 74
1, 139388, Control_c, 0, 64, 96
1, 139398, Note_off_c, 0, 76, 60
1, 139403, Control_c, 0, 64, 75
1, 139417, Control_c, 0, 64, 0
1, 139419, Note_off_c, 0, 61, 63
1, 139477, Control_c, 0, 64, 39
1, 139491, Control_c, 0, 64, 70
1, 139506, Control_c, 0, 64, 82
1, 139521, Control_c, 0, 64, 99
1, 139536, Control_c, 0, 64, 109
1, 139551, Control_c, 0, 64, 109
1, 139595, Control_c, 0, 64, 111
1, 139610, Control_c, 0, 64, 113
1, 139625, Control_c, 0, 64, 117
1, 139640, Control_c, 0, 64, 120
1, 139646, Note_on_c, 0, 77, 87
1, 139655, Control_c, 0, 64, 122
1, 139669, Control_c, 0, 64, 127
1, 139729, Note_off_c, 0, 71, 49
1, 139750, Note_on_c, 0, 76, 85
1, 139766, Note_off_c, 0, 67, 62
1, 139793, Note_off_c, 0, 77, 60
1, 139882, Note_off_c, 0, 62, 60
1, 139890, Note_on_c, 0, 75, 98
1, 139891, Note_on_c, 0, 70, 89
1, 139893, Control_c, 0, 64, 104
1, 139893, Note_on_c, 0, 66, 87
1, 139897, Note_on_c, 0, 63, 82
1, 139907, Control_c, 0, 64, 81
1, 139916, Note_off_c, 0, 76, 65
1, 139922, Control_c, 0, 64, 0
1, 140003, Control_c, 0, 64, 63
1, 140018, Control_c, 0, 64, 75
1, 140033, Control_c, 0, 64, 89
1, 140048, Control_c, 0, 64, 100
1, 140063, Control_c, 0, 64, 104
1, 140066, Note_off_c, 0, 70, 58
1, 140078, Control_c, 0, 64, 109
1, 140093, Control_c, 0, 64, 115
1, 140107, Control_c, 0, 64, 124
1, 140108, Note_off_c, 0, 66, 65
1, 140122, Control_c, 0, 64, 127
1, 140171, Note_on_c, 0, 70, 95
1, 140244, Note_off_c, 0, 70, 61
1, 140252, Note_off_c, 0, 75, 60
1, 140256, Note_on_c, 0, 80, 42
1, 140343, Note_off_c, 0, 80, 35
1, 140396, Note_off_c, 0, 63, 64
1, 140418, Note_on_c, 0, 81, 103
1, 140419, Note_on_c, 0, 74, 96
1, 140423, Note_on_c, 0, 59, 77
1, 140424, Note_on_c, 0, 75, 97
1, 140431, Control_c, 0, 64, 117
1, 140446, Control_c, 0, 64, 92
1, 140461, Control_c, 0, 64, 72
1, 140476, Control_c, 0, 64, 0
1, 140535, Control_c, 0, 64, 39
1, 140550, Control_c, 0, 64, 71
1, 140564, Control_c, 0, 64, 83
1, 140579, Control_c, 0, 64, 96
1, 140594, Control_c, 0, 64, 103
1, 140609, Control_c, 0, 64, 104
1, 140624, Control_c, 0, 64, 105
1, 140640, Control_c, 0, 64, 107
1, 140654, Control_c, 0, 64, 108
1, 140659, Note_on_c, 0, 54, 88
1, 140662, Note_off_c, 0, 59, 59
1, 140674, Note_off_c, 0, 74, 57
1, 140760, Note_on_c, 0, 73, 82
1, 140822, Note_off_c, 0, 73, 62
1, 140897, Note_off_c, 0, 81, 58
1, 140912, Note_off_c, 0, 75, 70
1, 140918, Note_on_c, 0, 73, 99
1, 140919, Note_on_c, 0, 65, 93
1, 141047, Note_off_c, 0, 54, 61
1, 141091, Control_c, 0, 64, 109
1, 141118, Note_off_c, 0, 65, 62
1, 141199, Note_on_c, 0, 82, 104
1, 141240, Note_on_c, 0, 81, 42
1, 141240, Control_c, 0, 64, 109
1, 141254, Control_c, 0, 64, 110
1, 141265, Note_off_c, 0, 81, 40
1, 141269, Control_c, 0, 64, 111
1, 141282, Note_off_c, 0, 73, 23
1, 141284, Control_c, 0, 64, 112
1, 141299, Control_c, 0, 64, 114
1, 141314, Control_c, 0, 64, 116
1, 141328, Control_c, 0, 64, 122
1, 141343, Control_c, 0, 64, 127
1, 141470, Control_c, 0, 64, 122
1, 141485, Control_c, 0, 64, 97
1, 141500, Control_c, 0, 64, 76
1, 141506, Note_on_c, 0, 66, 93
1, 141508, Note_on_c, 0, 70, 90
1, 141511, Note_on_c, 0, 78, 105
1, 141515, Control_c, 0, 64, 0
1, 141549, Note_off_c, 0, 82, 56
1, 141589, Control_c, 0, 64, 64
1, 141604, Control_c, 0, 64, 73
1, 141618, Control_c, 0, 64, 82
1, 141633, Control_c, 0, 64, 88
1, 141648, Control_c, 0, 64, 92
1, 141663, Control_c, 0, 64, 95
1, 141678, Control_c, 0, 64, 100
1, 141692, Control_c, 0, 64, 106
1, 141707, Control_c, 0, 64, 112
1, 141720, Note_off_c, 0, 66, 58
1, 141723, Control_c, 0, 64, 117
1, 141738, Control_c, 0, 64, 121
1, 141752, Control_c, 0, 64, 126
1, 141755, Note_on_c, 0, 74, 95
1, 141767, Control_c, 0, 64, 127
1, 141786, Note_off_c, 0, 70, 57
1, 141787, Note_off_c, 0, 78, 66
1, 141860, Note_on_c, 0, 71, 85
1, 141865, Note_on_c, 0, 67, 79
1, 141911, Note_off_c, 0, 71, 62
1, 141917, Note_off_c, 0, 67, 61
1, 141945, Control_c, 0, 64, 116
1, 141959, Control_c, 0, 64, 92
1, 141961, Note_on_c, 0, 85, 104
1, 141971, Note_on_c, 0, 67, 85
1, 141971, Note_on_c, 0, 71, 94
1, 141974, Control_c, 0, 64, 71
1, 141989, Control_c, 0, 64, 0
1, 141990, Note_off_c, 0, 74, 68
1, 142048, Control_c, 0, 64, 68
1, 142063, Control_c, 0, 64, 80
1, 142078, Control_c, 0, 64, 93
1, 142093, Control_c, 0, 64, 103
1, 142097, Note_on_c, 0, 70, 55
1, 142108, Control_c, 0, 64, 106
1, 142119, Note_off_c, 0, 67, 61
1, 142123, Control_c, 0, 64, 109
1, 142135, Note_off_c, 0, 70, 54
1, 142138, Control_c, 0, 64, 113
1, 142152, Control_c, 0, 64, 119
1, 142156, Note_off_c, 0, 71, 51
1, 142167, Control_c, 0, 64, 127
1, 142186, Note_on_c, 0, 81, 99
1, 142189, Note_off_c, 0, 85, 63
1, 142303, Note_on_c, 0, 72, 88
1, 142304, Note_on_c, 0, 68, 90
1, 142349, Note_off_c, 0, 72, 67
1, 142353, Note_off_c, 0, 68, 63
1, 142397, Control_c, 0, 64, 101
1, 142407, Note_off_c, 0, 81, 58
1, 142412, Control_c, 0, 64, 73
1, 142413, Note_on_c, 0, 77, 106
1, 142417, Note_on_c, 0, 72, 99
1, 142421, Note_on_c, 0, 68, 86
1, 142427, Control_c, 0, 64, 0
1, 142471, Control_c, 0, 64, 67
1, 142486, Control_c, 0, 64, 83
1, 142501, Control_c, 0, 64, 102
1, 142516, Control_c, 0, 64, 117
1, 142531, Control_c, 0, 64, 117
1, 142546, Note_off_c, 0, 72, 62
1, 142546, Control_c, 0, 64, 120
1, 142558, Note_off_c, 0, 68, 62
1, 142561, Control_c, 0, 64, 127
1, 142605, Note_off_c, 0, 77, 63
1, 142635, Note_on_c, 0, 81, 102
1, 142752, Note_on_c, 0, 73, 85
1, 142759, Note_on_c, 0, 69, 76
1, 142823, Note_off_c, 0, 69, 56
1, 142826, Note_off_c, 0, 73, 55
1, 142826, Control_c, 0, 64, 99
1, 142841, Control_c, 0, 64, 72
1, 142852, Note_off_c, 0, 81, 58
1, 142856, Control_c, 0, 64, 0
1, 142882, Note_on_c, 0, 75, 107
1, 142885, Note_on_c, 0, 69, 91
1, 142885, Note_on_c, 0, 73, 91
1, 142901, Control_c, 0, 64, 66
1, 142916, Control_c, 0, 64, 89
1, 142931, Control_c, 0, 64, 127
1, 142933, Note_off_c, 0, 73, 68
1, 142943, Note_off_c, 0, 69, 67
1, 143044, Note_on_c, 0, 76, 22
1, 143079, Note_off_c, 0, 76, 43
1, 143103, Poly_aftertouch_c, 0, 78, 0
1, 143148, Note_on_c, 0, 67, 87
1, 143151, Note_on_c, 0, 71, 95
1, 143154, Note_on_c, 0, 59, 89
1, 143190, Note_off_c, 0, 71, 63
1, 143195, Note_off_c, 0, 67, 65
1, 143217, Note_off_c, 0, 59, 64
1, 143257, Note_on_c, 0, 81, 99
1, 143258, Note_off_c, 0, 75, 64
1, 143368, Control_c, 0, 64, 96
1, 143382, Control_c, 0, 64, 71
1, 143386, Note_on_c, 0, 71, 102
1, 143389, Note_on_c, 0, 69, 99
1, 143391, Note_on_c, 0, 65, 94
1, 143393, Note_on_c, 0, 57, 91
1, 143394, Note_off_c, 0, 81, 0
1, 143397, Control_c, 0, 64, 0
1, 143427, Control_c, 0, 64, 61
1, 143431, Note_on_c, 0, 81, 19
1, 143437, Note_off_c, 0, 81, 57
1, 143442, Control_c, 0, 64, 78
1, 143444, Note_off_c, 0, 69, 65
1, 143456, Control_c, 0, 64, 102
1, 143459, Note_off_c, 0, 65, 67
1, 143471, Control_c, 0, 64, 127
1, 143477, Note_off_c, 0, 57, 65
1, 143654, Note_on_c, 0, 67, 91
1, 143657, Note_on_c, 0, 55, 86
1, 143661, Note_on_c, 0, 63, 95
1, 143706, Note_off_c, 0, 67, 63
1, 143722, Note_off_c, 0, 63, 64
1, 143729, Note_off_c, 0, 55, 63
1, 143745, Note_off_c, 0, 71, 56
1, 143765, Note_on_c, 0, 81, 101
1, 143953, Control_c, 0, 64, 123
1, 143960, Note_on_c, 0, 67, 103
1, 143964, Note_on_c, 0, 53, 89
1, 143964, Note_on_c, 0, 61, 90
1, 143965, Note_on_c, 0, 65, 88
1, 143968, Control_c, 0, 64, 89
1, 143983, Control_c, 0, 64, 65
1, 143998, Control_c, 0, 64, 0
1, 144003, Note_off_c, 0, 81, 30
1, 144035, Note_off_c, 0, 65, 62
1, 144042, Control_c, 0, 64, 71
1, 144051, Note_off_c, 0, 53, 65
1, 144057, Control_c, 0, 64, 90
1, 144059, Note_off_c, 0, 61, 62
1, 144072, Control_c, 0, 64, 117
1, 144087, Control_c, 0, 64, 127
1, 144259, Note_on_c, 0, 63, 107
1, 144262, Note_on_c, 0, 59, 90
1, 144263, Note_on_c, 0, 51, 93
1, 144303, Note_off_c, 0, 63, 64
1, 144326, Note_off_c, 0, 59, 64
1, 144367, Note_off_c, 0, 51, 59
1, 144598, Control_c, 0, 64, 107
1, 144612, Control_c, 0, 64, 67
1, 144623, Note_on_c, 0, 62, 102
1, 144626, Note_on_c, 0, 50, 97
1, 144626, Note_on_c, 0, 58, 98
1, 144628, Control_c, 0, 64, 0
1, 144629, Note_on_c, 0, 54, 94
1, 144662, Note_off_c, 0, 62, 67
1, 144673, Control_c, 0, 64, 65
1, 144685, Note_off_c, 0, 58, 68
1, 144688, Control_c, 0, 64, 90
1, 144701, Note_off_c, 0, 50, 63
1, 144702, Control_c, 0, 64, 127
1, 144706, Note_off_c, 0, 54, 65
1, 144869, Note_off_c, 0, 67, 57
1, 144917, Note_on_c, 0, 67, 44
1, 144993, Note_on_c, 0, 40, 108
1, 144993, Note_on_c, 0, 28, 98
1, 145124, Note_off_c, 0, 67, 61
1, 145163, Note_on_c, 0, 68, 101
1, 145351, Note_off_c, 0, 68, 58
1, 145439, Note_on_c, 0, 68, 101
1, 145443, Note_on_c, 0, 57, 91
1, 145443, Note_on_c, 0, 61, 89
1, 145452, Control_c, 0, 64, 104
1, 145467, Control_c, 0, 64, 87
1, 145482, Control_c, 0, 64, 68
1, 145497, Control_c, 0, 64, 0
1, 145630, Control_c, 0, 64, 65
1, 145644, Control_c, 0, 64, 76
1, 145659, Control_c, 0, 64, 89
1, 145674, Control_c, 0, 64, 100
1, 145689, Control_c, 0, 64, 107
1, 145704, Control_c, 0, 64, 111
1, 145718, Control_c, 0, 64, 113
1, 145733, Control_c, 0, 64, 114
1, 145748, Control_c, 0, 64, 115
1, 145763, Control_c, 0, 64, 115
1, 145792, Control_c, 0, 64, 116
1, 145801, Note_off_c, 0, 68, 65
1, 145803, Note_on_c, 0, 64, 92
1, 145807, Control_c, 0, 64, 116
1, 145822, Control_c, 0, 64, 117
1, 145837, Control_c, 0, 64, 118
1, 145852, Control_c, 0, 64, 119
1, 145867, Control_c, 0, 64, 120
1, 145871, Note_off_c, 0, 61, 60
1, 145882, Control_c, 0, 64, 120
1, 145889, Note_off_c, 0, 64, 66
1, 145897, Control_c, 0, 64, 121
1, 145911, Control_c, 0, 64, 121
1, 145914, Note_off_c, 0, 57, 62
1, 145926, Control_c, 0, 64, 122
1, 145948, Control_c, 0, 64, 124
1, 145963, Control_c, 0, 64, 126
1, 145977, Control_c, 0, 64, 127
1, 146096, Control_c, 0, 64, 113
1, 146111, Control_c, 0, 64, 96
1, 146120, Note_on_c, 0, 64, 92
1, 146121, Note_on_c, 0, 60, 85
1, 146125, Note_on_c, 0, 52, 84
1, 146126, Control_c, 0, 64, 79
1, 146129, Note_on_c, 0, 56, 72
1, 146141, Control_c, 0, 64, 64
1, 146156, Control_c, 0, 64, 0
1, 146245, Control_c, 0, 64, 67
1, 146260, Control_c, 0, 64, 77
1, 146275, Control_c, 0, 64, 88
1, 146290, Control_c, 0, 64, 94
1, 146305, Control_c, 0, 64, 96
1, 146320, Control_c, 0, 64, 97
1, 146326, Note_off_c, 0, 60, 60
1, 146335, Control_c, 0, 64, 99
1, 146349, Control_c, 0, 64, 101
1, 146364, Control_c, 0, 64, 102
1, 146379, Control_c, 0, 64, 103
1, 146393, Control_c, 0, 64, 104
1, 146408, Control_c, 0, 64, 104
1, 146423, Control_c, 0, 64, 105
1, 146441, Note_on_c, 0, 60, 89
1, 146453, Control_c, 0, 64, 105
1, 146482, Control_c, 0, 64, 106
1, 146483, Note_off_c, 0, 64, 63
1, 146523, Note_off_c, 0, 52, 62
1, 146541, Control_c, 0, 64, 106
1, 146556, Control_c, 0, 64, 107
1, 146586, Control_c, 0, 64, 107
1, 146600, Control_c, 0, 64, 108
1, 146608, Note_off_c, 0, 56, 56
1, 146645, Control_c, 0, 64, 108
1, 146663, Note_off_c, 0, 40, 58
1, 146698, Note_off_c, 0, 60, 51
1, 146716, Note_off_c, 0, 28, 54
1, 146813, Note_on_c, 0, 63, 94
1, 146815, Control_c, 0, 64, 105
1, 146821, Note_on_c, 0, 55, 83
1, 146823, Note_on_c, 0, 59, 79
1, 146830, Control_c, 0, 64, 90
1, 146845, Control_c, 0, 64, 68
1, 146860, Control_c, 0, 64, 0
1, 147229, Note_on_c, 0, 33, 81
1, 147423, Control_c, 0, 64, 26
1, 147433, Note_on_c, 0, 62, 72
1, 147446, Control_c, 0, 64, 60
1, 147461, Control_c, 0, 64, 61
1, 147467, Note_off_c, 0, 59, 60
1, 147476, Control_c, 0, 64, 64
1, 147479, Note_off_c, 0, 55, 58
1, 147491, Control_c, 0, 64, 70
1, 147505, Control_c, 0, 64, 77
1, 147520, Control_c, 0, 64, 85
1, 147522, Note_off_c, 0, 63, 53
1, 147535, Control_c, 0, 64, 89
1, 147564, Control_c, 0, 64, 90
1, 147579, Control_c, 0, 64, 93
1, 147594, Control_c, 0, 64, 96
1, 147601, Note_off_c, 0, 62, 59
1, 147609, Control_c, 0, 64, 98
1, 147653, Control_c, 0, 64, 96
1, 147668, Control_c, 0, 64, 91
1, 147680, Note_on_c, 0, 62, 78
1, 147683, Control_c, 0, 64, 81
1, 147688, Note_on_c, 0, 58, 56
1, 147694, Note_on_c, 0, 54, 55
1, 147697, Control_c, 0, 64, 70
1, 147712, Control_c, 0, 64, 51
1, 147727, Control_c, 0, 64, 0
1, 147846, Control_c, 0, 64, 30
1, 147861, Control_c, 0, 64, 55
1, 147876, Control_c, 0, 64, 62
1, 147891, Control_c, 0, 64, 64
1, 147906, Control_c, 0, 64, 68
1, 147921, Control_c, 0, 64, 72
1, 147935, Control_c, 0, 64, 77
1, 147950, Control_c, 0, 64, 80
1, 147965, Control_c, 0, 64, 81
1, 147980, Control_c, 0, 64, 81
1, 148040, Control_c, 0, 64, 81
1, 148048, Note_on_c, 0, 61, 70
1, 148054, Control_c, 0, 64, 76
1, 148058, Note_off_c, 0, 62, 60
1, 148069, Control_c, 0, 64, 68
1, 148084, Control_c, 0, 64, 56
1, 148099, Control_c, 0, 64, 0
1, 148143, Control_c, 0, 64, 14
1, 148158, Control_c, 0, 64, 58
1, 148172, Control_c, 0, 64, 66
1, 148187, Control_c, 0, 64, 72
1, 148210, Control_c, 0, 64, 78
1, 148225, Control_c, 0, 64, 84
1, 148240, Control_c, 0, 64, 87
1, 148243, Note_off_c, 0, 58, 64
1, 148254, Control_c, 0, 64, 89
1, 148269, Control_c, 0, 64, 90
1, 148284, Control_c, 0, 64, 91
1, 148286, Note_off_c, 0, 54, 58
1, 148299, Control_c, 0, 64, 92
1, 148314, Control_c, 0, 64, 93
1, 148328, Control_c, 0, 64, 93
1, 148343, Control_c, 0, 64, 94
1, 148387, Control_c, 0, 64, 93
1, 148402, Control_c, 0, 64, 91
1, 148417, Control_c, 0, 64, 85
1, 148432, Control_c, 0, 64, 75
1, 148437, Note_on_c, 0, 57, 55
1, 148439, Note_on_c, 0, 53, 60
1, 148446, Control_c, 0, 64, 62
1, 148461, Control_c, 0, 64, 0
1, 148579, Control_c, 0, 64, 58
1, 148594, Control_c, 0, 64, 66
1, 148609, Control_c, 0, 64, 71
1, 148625, Control_c, 0, 64, 76
1, 148640, Control_c, 0, 64, 81
1, 148655, Control_c, 0, 64, 85
1, 148669, Control_c, 0, 64, 87
1, 148684, Control_c, 0, 64, 89
1, 148685, Note_off_c, 0, 53, 66
1, 148699, Control_c, 0, 64, 91
1, 148714, Control_c, 0, 64, 92
1, 148729, Control_c, 0, 64, 93
1, 148743, Control_c, 0, 64, 94
1, 148773, Control_c, 0, 64, 95
1, 148818, Control_c, 0, 64, 94
1, 148833, Control_c, 0, 64, 91
1, 148848, Control_c, 0, 64, 85
1, 148863, Control_c, 0, 64, 75
1, 148867, Note_on_c, 0, 54, 63
1, 148877, Control_c, 0, 64, 64
1, 148892, Control_c, 0, 64, 34
1, 148907, Control_c, 0, 64, 0
1, 148937, Control_c, 0, 64, 51
1, 148958, Control_c, 0, 64, 63
1, 148973, Control_c, 0, 64, 67
1, 148988, Control_c, 0, 64, 72
1, 149003, Control_c, 0, 64, 78
1, 149017, Note_off_c, 0, 33, 64
1, 149018, Control_c, 0, 64, 83
1, 149032, Control_c, 0, 64, 85
1, 149047, Control_c, 0, 64, 87
1, 149062, Control_c, 0, 64, 88
1, 149077, Control_c, 0, 64, 89
1, 149092, Control_c, 0, 64, 90
1, 149107, Control_c, 0, 64, 91
1, 149122, Control_c, 0, 64, 92
1, 149140, Note_on_c, 0, 60, 62
1, 149181, Control_c, 0, 64, 92
1, 149219, Note_off_c, 0, 54, 57
1, 149355, Note_off_c, 0, 61, 51
1, 149433, Control_c, 0, 64, 92
1, 149448, Control_c, 0, 64, 91
1, 149463, Control_c, 0, 64, 89
1, 149478, Control_c, 0, 64, 87
1, 149492, Control_c, 0, 64, 83
1, 149507, Control_c, 0, 64, 78
1, 149512, Note_on_c, 0, 55, 59
1, 149522, Control_c, 0, 64, 73
1, 149523, Note_on_c, 0, 51, 47
1, 149537, Control_c, 0, 64, 67
1, 149552, Control_c, 0, 64, 63
1, 149566, Control_c, 0, 64, 60
1, 149580, Note_off_c, 0, 57, 55
1, 149581, Control_c, 0, 64, 58
1, 149596, Control_c, 0, 64, 57
1, 149626, Control_c, 0, 64, 57
1, 149641, Control_c, 0, 64, 56
1, 149655, Control_c, 0, 64, 56
1, 149722, Control_c, 0, 64, 56
1, 149737, Control_c, 0, 64, 57
1, 149766, Control_c, 0, 64, 57
1, 149811, Control_c, 0, 64, 58
1, 149855, Control_c, 0, 64, 58
1, 149885, Control_c, 0, 64, 59
1, 149900, Control_c, 0, 64, 59
1, 149915, Control_c, 0, 64, 60
1, 149930, Control_c, 0, 64, 60
1, 149974, Control_c, 0, 64, 61
1, 149998, Note_on_c, 0, 45, 41
1, 150025, Note_off_c, 0, 51, 53
1, 150033, Control_c, 0, 64, 61
1, 150092, Control_c, 0, 64, 62
1, 150196, Control_c, 0, 64, 62
1, 150198, Note_on_c, 0, 50, 49
1, 150241, Control_c, 0, 64, 63
1, 150256, Control_c, 0, 64, 63
1, 150271, Control_c, 0, 64, 64
1, 150286, Control_c, 0, 64, 65
1, 150301, Control_c, 0, 64, 66
1, 150315, Control_c, 0, 64, 68
1, 150330, Control_c, 0, 64, 69
1, 150332, Note_off_c, 0, 50, 63
1, 150345, Control_c, 0, 64, 70
1, 150359, Control_c, 0, 64, 72
1, 150374, Control_c, 0, 64, 72
1, 150389, Control_c, 0, 64, 73
1, 150404, Control_c, 0, 64, 73
1, 150465, Note_on_c, 0, 50, 47
1, 150471, Control_c, 0, 64, 73
1, 150486, Control_c, 0, 64, 72
1, 150501, Control_c, 0, 64, 71
1, 150515, Control_c, 0, 64, 70
1, 150530, Control_c, 0, 64, 69
1, 150545, Control_c, 0, 64, 67
1, 150560, Control_c, 0, 64, 66
1, 150574, Control_c, 0, 64, 65
1, 150693, Control_c, 0, 64, 65
1, 150752, Control_c, 0, 64, 64
1, 150841, Control_c, 0, 64, 65
1, 150930, Control_c, 0, 64, 65
1, 151050, Note_on_c, 0, 49, 42
1, 151098, Note_off_c, 0, 50, 58
1, 151250, Control_c, 0, 64, 66
1, 151307, Note_on_c, 0, 53, 42
1, 151324, Control_c, 0, 64, 65
1, 151351, Note_off_c, 0, 55, 64
1, 151368, Control_c, 0, 64, 65
1, 151397, Control_c, 0, 64, 64
1, 151457, Control_c, 0, 64, 65
1, 151471, Control_c, 0, 64, 66
1, 151486, Control_c, 0, 64, 68
1, 151501, Control_c, 0, 64, 71
1, 151516, Control_c, 0, 64, 74
1, 151531, Control_c, 0, 64, 77
1, 151545, Control_c, 0, 64, 80
1, 151560, Control_c, 0, 64, 82
1, 151575, Control_c, 0, 64, 83
1, 151590, Control_c, 0, 64, 84
1, 151664, Control_c, 0, 64, 83
1, 151679, Control_c, 0, 64, 79
1, 151694, Control_c, 0, 64, 72
1, 151709, Control_c, 0, 64, 64
1, 151710, Note_off_c, 0, 49, 41
1, 151717, Note_on_c, 0, 48, 43
1, 151723, Control_c, 0, 64, 39
1, 151738, Control_c, 0, 64, 0
1, 151783, Control_c, 0, 64, 22
1, 151797, Control_c, 0, 64, 45
1, 151813, Control_c, 0, 64, 58
1, 151828, Control_c, 0, 64, 64
1, 151843, Control_c, 0, 64, 69
1, 151858, Control_c, 0, 64, 73
1, 151873, Control_c, 0, 64, 78
1, 151887, Control_c, 0, 64, 81
1, 151890, Note_off_c, 0, 45, 55
1, 151902, Control_c, 0, 64, 84
1, 151917, Control_c, 0, 64, 86
1, 151932, Control_c, 0, 64, 88
1, 151954, Control_c, 0, 64, 89
1, 151956, Note_on_c, 0, 54, 52
1, 151969, Control_c, 0, 64, 91
1, 151984, Control_c, 0, 64, 92
1, 151996, Note_off_c, 0, 53, 51
1, 151998, Control_c, 0, 64, 93
1, 152013, Control_c, 0, 64, 94
1, 152021, Note_off_c, 0, 48, 40
1, 152028, Control_c, 0, 64, 95
1, 152043, Control_c, 0, 64, 97
1, 152058, Control_c, 0, 64, 98
1, 152073, Control_c, 0, 64, 100
1, 152088, Control_c, 0, 64, 101
1, 152093, Note_off_c, 0, 54, 60
1, 152102, Control_c, 0, 64, 102
1, 152117, Control_c, 0, 64, 104
1, 152132, Control_c, 0, 64, 105
1, 152146, Control_c, 0, 64, 106
1, 152205, Control_c, 0, 64, 105
1, 152219, Control_c, 0, 64, 100
1, 152234, Control_c, 0, 64, 91
1, 152246, Note_on_c, 0, 54, 58
1, 152249, Control_c, 0, 64, 79
1, 152261, Note_on_c, 0, 48, 41
1, 152263, Note_on_c, 0, 45, 39
1, 152264, Control_c, 0, 64, 64
1, 152272, Note_on_c, 0, 38, 44
1, 152279, Control_c, 0, 64, 0
1, 152427, Control_c, 0, 64, 37
1, 152442, Control_c, 0, 64, 62
1, 152457, Control_c, 0, 64, 67
1, 152472, Control_c, 0, 64, 71
1, 152486, Control_c, 0, 64, 76
1, 152501, Control_c, 0, 64, 81
1, 152516, Control_c, 0, 64, 86
1, 152530, Control_c, 0, 64, 89
1, 152545, Control_c, 0, 64, 92
1, 152550, Note_off_c, 0, 60, 61
1, 152559, Note_on_c, 0, 57, 64
1, 152560, Control_c, 0, 64, 95
1, 152575, Control_c, 0, 64, 98
1, 152590, Control_c, 0, 64, 100
1, 152605, Control_c, 0, 64, 102
1, 152621, Control_c, 0, 64, 104
1, 152635, Control_c, 0, 64, 106
1, 152650, Control_c, 0, 64, 107
1, 152665, Control_c, 0, 64, 108
1, 152680, Control_c, 0, 64, 109
1, 152702, Control_c, 0, 64, 111
1, 152709, Note_off_c, 0, 54, 53
1, 152717, Control_c, 0, 64, 113
1, 152732, Control_c, 0, 64, 115
1, 152747, Control_c, 0, 64, 117
1, 152762, Control_c, 0, 64, 117
1, 152776, Control_c, 0, 64, 119
1, 152791, Control_c, 0, 64, 121
1, 152806, Control_c, 0, 64, 122
1, 152821, Control_c, 0, 64, 123
1, 152830, Note_on_c, 0, 64, 68
1, 152836, Control_c, 0, 64, 124
1, 152850, Control_c, 0, 64, 125
1, 152865, Control_c, 0, 64, 127
1, 152866, Note_off_c, 0, 57, 58
1, 152890, Note_off_c, 0, 48, 41
1, 152988, Note_off_c, 0, 38, 39
1, 153001, Note_off_c, 0, 64, 64
1, 153010, Note_on_c, 0, 60, 64
1, 153027, Note_off_c, 0, 45, 53
1, 153194, Note_on_c, 0, 68, 56
1, 153215, Note_off_c, 0, 60, 51
1, 153239, Note_off_c, 0, 68, 0
1, 153239, Note_on_c, 0, 68, 30
1, 153309, Poly_aftertouch_c, 0, 69, 0
1, 153383, Control_c, 0, 64, 125
1, 153388, Note_off_c, 0, 68, 38
1, 153398, Control_c, 0, 64, 111
1, 153414, Control_c, 0, 64, 96
1, 153425, Note_on_c, 0, 71, 58
1, 153426, Note_on_c, 0, 74, 68
1, 153429, Control_c, 0, 64, 81
1, 153451, Control_c, 0, 64, 66
1, 153453, Note_on_c, 0, 62, 49
1, 153457, Note_on_c, 0, 66, 43
1, 153465, Control_c, 0, 64, 0
1, 153501, Note_off_c, 0, 66, 0
1, 153501, Note_on_c, 0, 66, 14
1, 153614, Note_on_c, 0, 32, 54
1, 153614, Control_c, 0, 64, 63
1, 153629, Control_c, 0, 64, 72
1, 153644, Control_c, 0, 64, 80
1, 153650, Note_off_c, 0, 66, 53
1, 153659, Control_c, 0, 64, 89
1, 153673, Control_c, 0, 64, 94
1, 153683, Note_off_c, 0, 62, 61
1, 153688, Control_c, 0, 64, 96
1, 153702, Control_c, 0, 64, 97
1, 153717, Control_c, 0, 64, 98
1, 153732, Control_c, 0, 64, 99
1, 153746, Control_c, 0, 64, 100
1, 153760, Note_on_c, 0, 35, 62
1, 153761, Control_c, 0, 64, 100
1, 153776, Control_c, 0, 64, 101
1, 153790, Control_c, 0, 64, 102
1, 153805, Control_c, 0, 64, 102
1, 153820, Control_c, 0, 64, 103
1, 153831, Note_off_c, 0, 32, 32
1, 153831, Note_off_c, 0, 74, 37
1, 153835, Control_c, 0, 64, 104
1, 153850, Control_c, 0, 64, 104
1, 153854, Note_off_c, 0, 71, 36
1, 153888, Note_on_c, 0, 70, 70
1, 153891, Note_off_c, 0, 35, 62
1, 153903, Note_on_c, 0, 60, 43
1, 153907, Note_on_c, 0, 42, 63
1, 153913, Note_on_c, 0, 64, 52
1, 153939, Control_c, 0, 64, 105
1, 153960, Note_off_c, 0, 42, 63
1, 154046, Note_on_c, 0, 38, 60
1, 154052, Note_off_c, 0, 64, 65
1, 154052, Note_off_c, 0, 70, 64
1, 154115, Note_off_c, 0, 60, 62
1, 154192, Note_on_c, 0, 46, 71
1, 154236, Note_off_c, 0, 38, 60
1, 154288, Control_c, 0, 64, 104
1, 154303, Control_c, 0, 64, 104
1, 154318, Control_c, 0, 64, 99
1, 154333, Control_c, 0, 64, 91
1, 154347, Control_c, 0, 64, 79
1, 154360, Note_on_c, 0, 63, 68
1, 154362, Control_c, 0, 64, 65
1, 154369, Note_on_c, 0, 59, 50
1, 154372, Note_on_c, 0, 55, 59
1, 154377, Note_on_c, 0, 52, 64
1, 154377, Control_c, 0, 64, 0
1, 154399, Note_off_c, 0, 46, 63
1, 154570, Control_c, 0, 64, 58
1, 154585, Control_c, 0, 64, 69
1, 154600, Control_c, 0, 64, 76
1, 154613, Note_off_c, 0, 59, 63
1, 154614, Control_c, 0, 64, 82
1, 154629, Control_c, 0, 64, 85
1, 154639, Note_off_c, 0, 63, 65
1, 154644, Control_c, 0, 64, 86
1, 154659, Control_c, 0, 64, 88
1, 154674, Control_c, 0, 64, 90
1, 154688, Control_c, 0, 64, 93
1, 154703, Control_c, 0, 64, 95
1, 154718, Control_c, 0, 64, 97
1, 154732, Control_c, 0, 64, 99
1, 154747, Control_c, 0, 64, 100
1, 154762, Control_c, 0, 64, 100
1, 154777, Control_c, 0, 64, 101
1, 154792, Control_c, 0, 64, 101
1, 154851, Control_c, 0, 64, 101
1, 154866, Control_c, 0, 64, 98
1, 154881, Control_c, 0, 64, 91
1, 154896, Control_c, 0, 64, 79
1, 154901, Note_on_c, 0, 62, 50
1, 154902, Note_on_c, 0, 67, 54
1, 154908, Note_on_c, 0, 48, 53
1, 154911, Control_c, 0, 64, 65
1, 154912, Note_on_c, 0, 58, 41
1, 154926, Control_c, 0, 64, 0
1, 154941, Note_off_c, 0, 52, 62
1, 154982, Note_off_c, 0, 55, 56
1, 155111, Control_c, 0, 64, 48
1, 155126, Control_c, 0, 64, 67
1, 155141, Control_c, 0, 64, 76
1, 155155, Control_c, 0, 64, 82
1, 155169, Note_off_c, 0, 67, 60
1, 155170, Control_c, 0, 64, 84
1, 155185, Note_off_c, 0, 58, 62
1, 155185, Control_c, 0, 64, 85
1, 155200, Control_c, 0, 64, 87
1, 155210, Note_off_c, 0, 62, 61
1, 155215, Control_c, 0, 64, 89
1, 155230, Control_c, 0, 64, 92
1, 155245, Control_c, 0, 64, 94
1, 155260, Control_c, 0, 64, 95
1, 155274, Control_c, 0, 64, 95
1, 155289, Control_c, 0, 64, 96
1, 155304, Control_c, 0, 64, 96
1, 155378, Control_c, 0, 64, 95
1, 155393, Control_c, 0, 64, 90
1, 155408, Control_c, 0, 64, 80
1, 155421, Note_off_c, 0, 48, 59
1, 155423, Control_c, 0, 64, 65
1, 155424, Note_on_c, 0, 41, 48
1, 155425, Note_on_c, 0, 54, 48
1, 155429, Note_on_c, 0, 58, 48
1, 155437, Control_c, 0, 64, 0
1, 155570, Control_c, 0, 64, 65
1, 155585, Control_c, 0, 64, 73
1, 155600, Control_c, 0, 64, 81
1, 155615, Control_c, 0, 64, 87
1, 155629, Control_c, 0, 64, 89
1, 155644, Control_c, 0, 64, 90
1, 155653, Note_off_c, 0, 54, 63
1, 155659, Control_c, 0, 64, 91
1, 155674, Control_c, 0, 64, 93
1, 155697, Note_off_c, 0, 58, 60
1, 155697, Control_c, 0, 64, 94
1, 155711, Control_c, 0, 64, 95
1, 155759, Note_off_c, 0, 41, 49
1, 155860, Control_c, 0, 64, 95
1, 155884, Note_on_c, 0, 59, 50
1, 155898, Note_on_c, 0, 55, 44
1, 155905, Control_c, 0, 64, 96
1, 155920, Control_c, 0, 64, 96
1, 155934, Control_c, 0, 64, 97
1, 155949, Control_c, 0, 64, 98
1, 155964, Control_c, 0, 64, 100
1, 155978, Control_c, 0, 64, 101
1, 155993, Control_c, 0, 64, 101
1, 156008, Control_c, 0, 64, 102
1, 156023, Control_c, 0, 64, 102
1, 156030, Note_off_c, 0, 55, 60
1, 156038, Control_c, 0, 64, 103
1, 156047, Note_off_c, 0, 59, 38
1, 156067, Control_c, 0, 64, 103
1, 156157, Control_c, 0, 64, 102
1, 156172, Control_c, 0, 64, 98
1, 156186, Control_c, 0, 64, 88
1, 156201, Control_c, 0, 64, 77
1, 156205, Note_on_c, 0, 55, 30
1, 156208, Note_on_c, 0, 59, 33
1, 156216, Control_c, 0, 64, 66
1, 156223, Note_on_c, 0, 45, 31
1, 156225, Note_on_c, 0, 39, 29
1, 156229, Note_on_c, 0, 49, 23
1, 156231, Control_c, 0, 64, 39
1, 156246, Control_c, 0, 64, 0
1, 156279, Note_off_c, 0, 55, 0
1, 156279, Note_on_c, 0, 55, 3
1, 156423, Control_c, 0, 64, 58
1, 156446, Control_c, 0, 64, 67
1, 156460, Control_c, 0, 64, 70
1, 156475, Control_c, 0, 64, 73
1, 156490, Control_c, 0, 64, 78
1, 156505, Control_c, 0, 64, 85
1, 156519, Control_c, 0, 64, 92
1, 156534, Control_c, 0, 64, 96
1, 156548, Note_off_c, 0, 55, 40
1, 156549, Control_c, 0, 64, 98
1, 156555, Note_off_c, 0, 59, 51
1, 156564, Control_c, 0, 64, 99
1, 156579, Control_c, 0, 64, 102
1, 156593, Control_c, 0, 64, 107
1, 156609, Control_c, 0, 64, 112
1, 156617, Note_off_c, 0, 39, 40
1, 156624, Control_c, 0, 64, 116
1, 156639, Control_c, 0, 64, 117
1, 156654, Control_c, 0, 64, 118
1, 156657, Note_off_c, 0, 49, 39
1, 156669, Control_c, 0, 64, 119
1, 156683, Control_c, 0, 64, 120
1, 156698, Control_c, 0, 64, 121
1, 156713, Control_c, 0, 64, 121
1, 156816, Control_c, 0, 64, 118
1, 156831, Control_c, 0, 64, 111
1, 156846, Control_c, 0, 64, 102
1, 156861, Control_c, 0, 64, 90
1, 156875, Control_c, 0, 64, 80
1, 156882, Note_on_c, 0, 40, 45
1, 156883, Note_on_c, 0, 60, 51
1, 156888, Note_on_c, 0, 56, 48
1, 156890, Control_c, 0, 64, 70
1, 156901, Note_on_c, 0, 50, 37
1, 156905, Control_c, 0, 64, 61
1, 156920, Control_c, 0, 64, 35
1, 156935, Control_c, 0, 64, 0
1, 156992, Note_off_c, 0, 45, 58
1, 157098, Control_c, 0, 64, 63
1, 157113, Control_c, 0, 64, 71
1, 157127, Control_c, 0, 64, 77
1, 157142, Control_c, 0, 64, 83
1, 157157, Control_c, 0, 64, 86
1, 157179, Control_c, 0, 64, 91
1, 157194, Control_c, 0, 64, 97
1, 157209, Control_c, 0, 64, 103
1, 157224, Control_c, 0, 64, 108
1, 157239, Control_c, 0, 64, 113
1, 157254, Control_c, 0, 64, 124
1, 157269, Control_c, 0, 64, 127
1, 157357, Note_on_c, 0, 61, 60
1, 157372, Note_off_c, 0, 56, 62
1, 157384, Note_off_c, 0, 50, 52
1, 157433, Note_off_c, 0, 60, 62
1, 157458, Note_off_c, 0, 61, 63
1, 157595, Control_c, 0, 64, 112
1, 157597, Note_on_c, 0, 52, 55
1, 157602, Note_on_c, 0, 61, 68
1, 157610, Control_c, 0, 64, 99
1, 157612, Note_on_c, 0, 55, 60
1, 157616, Note_on_c, 0, 45, 55
1, 157624, Control_c, 0, 64, 86
1, 157639, Control_c, 0, 64, 74
1, 157654, Control_c, 0, 64, 61
1, 157669, Control_c, 0, 64, 0
1, 157701, Note_off_c, 0, 40, 56
1, 157743, Control_c, 0, 64, 42
1, 157758, Control_c, 0, 64, 57
1, 157772, Control_c, 0, 64, 65
1, 157787, Control_c, 0, 64, 70
1, 157802, Control_c, 0, 64, 74
1, 157817, Control_c, 0, 64, 81
1, 157832, Control_c, 0, 64, 86
1, 157847, Control_c, 0, 64, 91
1, 157862, Control_c, 0, 64, 95
1, 157877, Control_c, 0, 64, 101
1, 157892, Control_c, 0, 64, 105
1, 157906, Control_c, 0, 64, 109
1, 157928, Control_c, 0, 64, 113
1, 157931, Note_on_c, 0, 64, 74
1, 157940, Note_off_c, 0, 55, 64
1, 157943, Control_c, 0, 64, 117
1, 157957, Control_c, 0, 64, 123
1, 157972, Control_c, 0, 64, 127
1, 158117, Note_off_c, 0, 52, 59
1, 158154, Note_off_c, 0, 61, 62
1, 158187, Note_on_c, 0, 71, 78
1, 158213, Note_off_c, 0, 64, 62
1, 158222, Note_off_c, 0, 45, 37
1, 158344, Note_off_c, 0, 71, 60
1, 158361, Note_on_c, 0, 67, 75
1, 158536, Note_on_c, 0, 75, 85
1, 158564, Note_off_c, 0, 67, 57
1, 158721, Control_c, 0, 64, 117
1, 158725, Note_on_c, 0, 83, 90
1, 158727, Note_on_c, 0, 44, 66
1, 158730, Note_on_c, 0, 50, 65
1, 158730, Note_on_c, 0, 77, 81
1, 158733, Note_on_c, 0, 53, 61
1, 158733, Note_on_c, 0, 71, 81
1, 158736, Control_c, 0, 64, 97
1, 158744, Note_off_c, 0, 75, 64
1, 158751, Control_c, 0, 64, 81
1, 158766, Control_c, 0, 64, 66
1, 158780, Control_c, 0, 64, 0
1, 158855, Control_c, 0, 64, 65
1, 158869, Control_c, 0, 64, 76
1, 158884, Control_c, 0, 64, 86
1, 158899, Control_c, 0, 64, 93
1, 158914, Control_c, 0, 64, 96
1, 158929, Control_c, 0, 64, 97
1, 158941, Note_off_c, 0, 53, 65
1, 158944, Control_c, 0, 64, 99
1, 158957, Note_off_c, 0, 50, 64
1, 158959, Control_c, 0, 64, 102
1, 158973, Control_c, 0, 64, 105
1, 158988, Control_c, 0, 64, 107
1, 159004, Control_c, 0, 64, 107
1, 159018, Control_c, 0, 64, 108
1, 159033, Control_c, 0, 64, 109
1, 159048, Control_c, 0, 64, 111
1, 159058, Note_off_c, 0, 83, 53
1, 159063, Control_c, 0, 64, 113
1, 159072, Note_off_c, 0, 71, 34
1, 159078, Control_c, 0, 64, 115
1, 159093, Control_c, 0, 64, 117
1, 159108, Control_c, 0, 64, 118
1, 159122, Control_c, 0, 64, 120
1, 159137, Control_c, 0, 64, 120
1, 159182, Control_c, 0, 64, 115
1, 159197, Control_c, 0, 64, 102
1, 159211, Control_c, 0, 64, 87
1, 159218, Note_on_c, 0, 53, 77
1, 159221, Note_on_c, 0, 56, 78
1, 159222, Note_on_c, 0, 74, 80
1, 159226, Control_c, 0, 64, 70
1, 159227, Note_on_c, 0, 46, 69
1, 159241, Control_c, 0, 64, 0
1, 159251, Note_off_c, 0, 44, 49
1, 159263, Note_off_c, 0, 77, 59
1, 159329, Control_c, 0, 64, 65
1, 159344, Control_c, 0, 64, 77
1, 159359, Control_c, 0, 64, 87
1, 159374, Control_c, 0, 64, 95
1, 159382, Note_on_c, 0, 70, 82
1, 159389, Control_c, 0, 64, 99
1, 159403, Control_c, 0, 64, 103
1, 159418, Control_c, 0, 64, 109
1, 159441, Control_c, 0, 64, 121
1, 159443, Note_off_c, 0, 46, 62
1, 159449, Note_off_c, 0, 53, 62
1, 159456, Control_c, 0, 64, 127
1, 159465, Note_off_c, 0, 56, 63
1, 159534, Note_off_c, 0, 70, 60
1, 159534, Note_on_c, 0, 78, 87
1, 159568, Note_off_c, 0, 74, 61
1, 159678, Control_c, 0, 64, 114
1, 159682, Note_on_c, 0, 53, 76
1, 159682, Note_on_c, 0, 81, 95
1, 159684, Note_on_c, 0, 47, 74
1, 159688, Note_on_c, 0, 69, 76
1, 159690, Note_on_c, 0, 73, 74
1, 159692, Control_c, 0, 64, 90
1, 159707, Control_c, 0, 64, 70
1, 159715, Note_off_c, 0, 78, 37
1, 159722, Control_c, 0, 64, 0
1, 159812, Control_c, 0, 64, 58
1, 159826, Control_c, 0, 64, 70
1, 159841, Control_c, 0, 64, 79
1, 159856, Note_on_c, 0, 49, 76
1, 159856, Control_c, 0, 64, 89
1, 159871, Control_c, 0, 64, 95
1, 159877, Note_off_c, 0, 81, 60
1, 159883, Note_off_c, 0, 53, 65
1, 159886, Control_c, 0, 64, 98
1, 159901, Control_c, 0, 64, 102
1, 159916, Note_off_c, 0, 73, 62
1, 159916, Control_c, 0, 64, 108
1, 159931, Control_c, 0, 64, 116
1, 159945, Control_c, 0, 64, 127
1, 159960, Control_c, 0, 64, 127
1, 159985, Note_on_c, 0, 57, 72
1, 159985, Note_off_c, 0, 47, 63
1, 159999, Note_off_c, 0, 49, 60
1, 160024, Note_off_c, 0, 57, 60
1, 160138, Control_c, 0, 64, 115
1, 160151, Note_on_c, 0, 80, 88
1, 160152, Control_c, 0, 64, 95
1, 160153, Note_on_c, 0, 48, 71
1, 160154, Note_on_c, 0, 70, 74
1, 160157, Note_on_c, 0, 63, 69
1, 160157, Note_off_c, 0, 69, 61
1, 160167, Control_c, 0, 64, 77
1, 160190, Control_c, 0, 64, 60
1, 160205, Control_c, 0, 64, 0
1, 160264, Control_c, 0, 64, 53
1, 160279, Control_c, 0, 64, 70
1, 160294, Control_c, 0, 64, 80
1, 160308, Control_c, 0, 64, 91
1, 160323, Control_c, 0, 64, 95
1, 160337, Note_off_c, 0, 63, 63
1, 160338, Control_c, 0, 64, 97
1, 160352, Control_c, 0, 64, 98
1, 160354, Note_on_c, 0, 66, 76
1, 160360, Note_off_c, 0, 80, 63
1, 160367, Control_c, 0, 64, 100
1, 160382, Control_c, 0, 64, 102
1, 160397, Control_c, 0, 64, 104
1, 160405, Note_off_c, 0, 70, 56
1, 160412, Note_off_c, 0, 48, 64
1, 160412, Control_c, 0, 64, 104
1, 160456, Control_c, 0, 64, 105
1, 160471, Control_c, 0, 64, 105
1, 160485, Control_c, 0, 64, 106
1, 160566, Note_on_c, 0, 73, 65
1, 160604, Note_off_c, 0, 66, 66
1, 160783, Control_c, 0, 64, 102
1, 160798, Control_c, 0, 64, 94
1, 160813, Control_c, 0, 64, 83
1, 160821, Note_on_c, 0, 79, 69
1, 160825, Note_on_c, 0, 59, 45
1, 160828, Control_c, 0, 64, 70
1, 160828, Note_on_c, 0, 55, 48
1, 160837, Note_on_c, 0, 75, 47
1, 160841, Note_on_c, 0, 49, 34
1, 160843, Control_c, 0, 64, 49
1, 160849, Note_off_c, 0, 73, 54
1, 160857, Control_c, 0, 64, 0
1, 161101, Control_c, 0, 64, 69
1, 161116, Control_c, 0, 64, 82
1, 161131, Control_c, 0, 64, 95
1, 161146, Control_c, 0, 64, 102
1, 161148, Note_off_c, 0, 59, 61
1, 161159, Note_off_c, 0, 79, 62
1, 161191, Control_c, 0, 64, 103
1, 161201, Note_off_c, 0, 75, 65
1, 161203, Note_off_c, 0, 55, 61
1, 161206, Control_c, 0, 64, 104
1, 161221, Control_c, 0, 64, 105
1, 161223, Note_off_c, 0, 49, 40
1, 161383, Control_c, 0, 64, 104
1, 161429, Control_c, 0, 64, 104
1, 161444, Control_c, 0, 64, 103
1, 161459, Control_c, 0, 64, 102
1, 161473, Control_c, 0, 64, 101
1, 161488, Control_c, 0, 64, 100
1, 161503, Control_c, 0, 64, 99
1, 161517, Control_c, 0, 64, 97
1, 161532, Control_c, 0, 64, 95
1, 161547, Control_c, 0, 64, 92
1, 161562, Control_c, 0, 64, 89
1, 161577, Control_c, 0, 64, 86
1, 161591, Control_c, 0, 64, 83
1, 161606, Control_c, 0, 64, 79
1, 161621, Control_c, 0, 64, 73
1, 161636, Control_c, 0, 64, 68
1, 161651, Control_c, 0, 64, 63
1, 161673, Control_c, 0, 64, 60
1, 161688, Control_c, 0, 64, 53
1, 161701, Note_on_c, 0, 56, 52
1, 161703, Control_c, 0, 64, 30
1, 161716, Note_on_c, 0, 50, 36
1, 161718, Control_c, 0, 64, 0
1, 161851, Control_c, 0, 64, 63
1, 161866, Control_c, 0, 64, 70
1, 161880, Control_c, 0, 64, 74
1, 161895, Control_c, 0, 64, 76
1, 161909, Note_on_c, 0, 52, 64
1, 161910, Control_c, 0, 64, 77
1, 161925, Control_c, 0, 64, 80
1, 161939, Control_c, 0, 64, 85
1, 161954, Control_c, 0, 64, 88
1, 161969, Control_c, 0, 64, 90
1, 161984, Control_c, 0, 64, 90
1, 162028, Control_c, 0, 64, 91
1, 162043, Control_c, 0, 64, 93
1, 162058, Control_c, 0, 64, 95
1, 162072, Control_c, 0, 64, 96
1, 162126, Note_on_c, 0, 60, 74
1, 162154, Note_off_c, 0, 52, 63
1, 162161, Control_c, 0, 64, 97
1, 162191, Note_off_c, 0, 56, 64
1, 162399, Control_c, 0, 64, 96
1, 162421, Control_c, 0, 64, 93
1, 162436, Control_c, 0, 64, 87
1, 162444, Note_on_c, 0, 59, 57
1, 162448, Note_on_c, 0, 66, 65
1, 162451, Control_c, 0, 64, 78
1, 162460, Note_off_c, 0, 60, 55
1, 162465, Note_on_c, 0, 55, 54
1, 162466, Control_c, 0, 64, 68
1, 162472, Note_off_c, 0, 50, 42
1, 162475, Note_on_c, 0, 49, 40
1, 162481, Control_c, 0, 64, 54
1, 162495, Control_c, 0, 64, 0
1, 162688, Control_c, 0, 64, 66
1, 162703, Control_c, 0, 64, 74
1, 162718, Control_c, 0, 64, 81
1, 162733, Control_c, 0, 64, 85
1, 162747, Control_c, 0, 64, 88
1, 162762, Control_c, 0, 64, 89
1, 162769, Note_off_c, 0, 59, 62
1, 162772, Note_off_c, 0, 55, 61
1, 162777, Control_c, 0, 64, 91
1, 162792, Control_c, 0, 64, 93
1, 162807, Control_c, 0, 64, 95
1, 162821, Control_c, 0, 64, 97
1, 162836, Control_c, 0, 64, 98
1, 162851, Control_c, 0, 64, 98
1, 162867, Note_off_c, 0, 49, 34
1, 162880, Control_c, 0, 64, 99
1, 162895, Control_c, 0, 64, 99
1, 162925, Control_c, 0, 64, 100
1, 163044, Control_c, 0, 64, 98
1, 163059, Control_c, 0, 64, 94
1, 163074, Control_c, 0, 64, 85
1, 163089, Control_c, 0, 64, 76
1, 163096, Note_on_c, 0, 56, 44
1, 163101, Note_on_c, 0, 58, 44
1, 163104, Control_c, 0, 64, 66
1, 163118, Control_c, 0, 64, 51
1, 163122, Note_on_c, 0, 50, 36
1, 163133, Control_c, 0, 64, 20
1, 163148, Control_c, 0, 64, 0
1, 163259, Control_c, 0, 64, 57
1, 163274, Control_c, 0, 64, 66
1, 163289, Control_c, 0, 64, 71
1, 163303, Control_c, 0, 64, 76
1, 163318, Control_c, 0, 64, 81
1, 163333, Control_c, 0, 64, 85
1, 163348, Control_c, 0, 64, 88
1, 163363, Control_c, 0, 64, 90
1, 163377, Control_c, 0, 64, 92
1, 163392, Control_c, 0, 64, 94
1, 163407, Control_c, 0, 64, 96
1, 163422, Control_c, 0, 64, 97
1, 163437, Control_c, 0, 64, 99
1, 163451, Control_c, 0, 64, 99
1, 163460, Note_off_c, 0, 56, 59
1, 163466, Control_c, 0, 64, 100
1, 163496, Control_c, 0, 64, 101
1, 163511, Control_c, 0, 64, 102
1, 163522, Note_on_c, 0, 67, 62
1, 163526, Control_c, 0, 64, 103
1, 163550, Note_off_c, 0, 58, 61
1, 163555, Control_c, 0, 64, 103
1, 163585, Control_c, 0, 64, 104
1, 163600, Control_c, 0, 64, 105
1, 163615, Control_c, 0, 64, 106
1, 163630, Control_c, 0, 64, 106
1, 163659, Control_c, 0, 64, 107
1, 163674, Control_c, 0, 64, 108
1, 163689, Control_c, 0, 64, 110
1, 163703, Control_c, 0, 64, 112
1, 163718, Control_c, 0, 64, 113
1, 163732, Note_off_c, 0, 67, 57
1, 163733, Control_c, 0, 64, 115
1, 163740, Note_off_c, 0, 66, 61
1, 163748, Control_c, 0, 64, 117
1, 163762, Control_c, 0, 64, 120
1, 163777, Control_c, 0, 64, 123
1, 163793, Control_c, 0, 64, 125
1, 163838, Control_c, 0, 64, 120
1, 163848, Note_on_c, 0, 67, 77
1, 163853, Control_c, 0, 64, 107
1, 163857, Note_on_c, 0, 49, 55
1, 163858, Note_on_c, 0, 55, 60
1, 163862, Note_on_c, 0, 59, 59
1, 163867, Control_c, 0, 64, 94
1, 163876, Note_off_c, 0, 50, 51
1, 163882, Control_c, 0, 64, 80
1, 163897, Control_c, 0, 64, 67
1, 163912, Control_c, 0, 64, 37
1, 163934, Control_c, 0, 64, 0
1, 163964, Control_c, 0, 64, 27
1, 163979, Control_c, 0, 64, 58
1, 163994, Control_c, 0, 64, 64
1, 164008, Control_c, 0, 64, 68
1, 164023, Control_c, 0, 64, 72
1, 164038, Control_c, 0, 64, 78
1, 164053, Control_c, 0, 64, 83
1, 164068, Control_c, 0, 64, 87
1, 164082, Control_c, 0, 64, 90
1, 164097, Control_c, 0, 64, 93
1, 164112, Control_c, 0, 64, 95
1, 164126, Control_c, 0, 64, 99
1, 164141, Control_c, 0, 64, 102
1, 164156, Control_c, 0, 64, 105
1, 164163, Note_on_c, 0, 63, 86
1, 164171, Control_c, 0, 64, 108
1, 164187, Control_c, 0, 64, 112
1, 164198, Note_off_c, 0, 67, 56
1, 164201, Control_c, 0, 64, 117
1, 164216, Control_c, 0, 64, 125
1, 164231, Control_c, 0, 64, 127
1, 164253, Note_off_c, 0, 59, 62
1, 164259, Note_off_c, 0, 55, 60
1, 164307, Note_off_c, 0, 63, 65
1, 164369, Note_off_c, 0, 49, 55
1, 164439, Note_on_c, 0, 63, 90
1, 164446, Note_on_c, 0, 48, 73
1, 164446, Note_on_c, 0, 57, 72
1, 164450, Note_on_c, 0, 54, 81
1, 164468, Control_c, 0, 64, 117
1, 164482, Control_c, 0, 64, 101
1, 164497, Control_c, 0, 64, 88
1, 164512, Control_c, 0, 64, 72
1, 164527, Control_c, 0, 64, 54
1, 164542, Control_c, 0, 64, 0
1, 164572, Control_c, 0, 64, 57
1, 164587, Control_c, 0, 64, 66
1, 164602, Control_c, 0, 64, 72
1, 164617, Control_c, 0, 64, 80
1, 164632, Control_c, 0, 64, 89
1, 164646, Control_c, 0, 64, 100
1, 164653, Note_off_c, 0, 48, 64
1, 164661, Control_c, 0, 64, 115
1, 164684, Control_c, 0, 64, 127
1, 164748, Note_on_c, 0, 59, 90
1, 164748, Note_off_c, 0, 54, 54
1, 164781, Note_off_c, 0, 63, 64
1, 164785, Note_off_c, 0, 57, 61
1, 165094, Note_on_c, 0, 62, 88
1, 165103, Note_on_c, 0, 47, 75
1, 165103, Note_on_c, 0, 53, 78
1, 165105, Note_on_c, 0, 56, 76
1, 165116, Note_off_c, 0, 59, 61
1, 165141, Control_c, 0, 64, 110
1, 165156, Control_c, 0, 64, 91
1, 165171, Control_c, 0, 64, 73
1, 165186, Control_c, 0, 64, 0
1, 165348, Control_c, 0, 64, 61
1, 165363, Control_c, 0, 64, 69
1, 165378, Control_c, 0, 64, 80
1, 165394, Control_c, 0, 64, 92
1, 165416, Control_c, 0, 64, 100
1, 165431, Control_c, 0, 64, 102
1, 165445, Control_c, 0, 64, 103
1, 165460, Control_c, 0, 64, 105
1, 165475, Control_c, 0, 64, 109
1, 165490, Control_c, 0, 64, 112
1, 165505, Control_c, 0, 64, 113
1, 165520, Control_c, 0, 64, 115
1, 165521, Note_off_c, 0, 56, 57
1, 165535, Control_c, 0, 64, 117
1, 165538, Note_on_c, 0, 61, 91
1, 165550, Control_c, 0, 64, 123
1, 165556, Note_off_c, 0, 62, 60
1, 165564, Control_c, 0, 64, 127
1, 165647, Note_off_c, 0, 53, 62
1, 165681, Note_off_c, 0, 61, 63
1, 165712, Control_c, 0, 64, 116
1, 165727, Control_c, 0, 64, 93
1, 165736, Note_on_c, 0, 52, 84
1, 165742, Control_c, 0, 64, 73
1, 165746, Note_on_c, 0, 61, 87
1, 165757, Control_c, 0, 64, 0
1, 165816, Control_c, 0, 64, 60
1, 165831, Note_off_c, 0, 47, 38
1, 165831, Control_c, 0, 64, 74
1, 165845, Control_c, 0, 64, 89
1, 165860, Control_c, 0, 64, 108
1, 165875, Control_c, 0, 64, 113
1, 165903, Note_on_c, 0, 56, 84
1, 165904, Control_c, 0, 64, 114
1, 165919, Control_c, 0, 64, 116
1, 165934, Control_c, 0, 64, 119
1, 165949, Control_c, 0, 64, 123
1, 165964, Control_c, 0, 64, 125
1, 165965, Note_off_c, 0, 52, 66
1, 165971, Note_on_c, 0, 62, 89
1, 165979, Control_c, 0, 64, 127
1, 165993, Note_off_c, 0, 56, 66
1, 166044, Note_on_c, 0, 67, 91
1, 166055, Note_off_c, 0, 61, 60
1, 166095, Note_off_c, 0, 67, 65
1, 166289, Note_on_c, 0, 73, 95
1, 166289, Note_on_c, 0, 63, 93
1, 166294, Note_on_c, 0, 66, 93
1, 166295, Note_on_c, 0, 58, 86
1, 166298, Control_c, 0, 64, 98
1, 166313, Control_c, 0, 64, 76
1, 166320, Note_off_c, 0, 62, 59
1, 166328, Control_c, 0, 64, 0
1, 166402, Control_c, 0, 64, 64
1, 166417, Control_c, 0, 64, 81
1, 166432, Control_c, 0, 64, 107
1, 166447, Control_c, 0, 64, 127
1, 166518, Note_off_c, 0, 58, 56
1, 166562, Note_off_c, 0, 63, 62
1, 166580, Control_c, 0, 64, 98
1, 166593, Note_on_c, 0, 64, 93
1, 166594, Control_c, 0, 64, 71
1, 166598, Note_on_c, 0, 54, 85
1, 166609, Control_c, 0, 64, 0
1, 166632, Note_off_c, 0, 64, 67
1, 166639, Control_c, 0, 64, 69
1, 166648, Note_off_c, 0, 54, 64
1, 166654, Control_c, 0, 64, 92
1, 166668, Control_c, 0, 64, 127
1, 166787, Control_c, 0, 64, 102
1, 166802, Control_c, 0, 64, 67
1, 166817, Control_c, 0, 64, 0
1, 166821, Note_on_c, 0, 43, 97
1, 166861, Control_c, 0, 64, 22
1, 166876, Control_c, 0, 64, 77
1, 166887, Note_off_c, 0, 43, 62
1, 166891, Control_c, 0, 64, 97
1, 166906, Control_c, 0, 64, 119
1, 166942, Control_c, 0, 64, 119
1, 166957, Control_c, 0, 64, 120
1, 166972, Control_c, 0, 64, 122
1, 166987, Control_c, 0, 64, 122
1, 167003, Control_c, 0, 64, 123
1, 167032, Control_c, 0, 64, 123
1, 167035, Note_off_c, 0, 66, 45
1, 167147, Note_on_c, 0, 65, 87
1, 167150, Note_on_c, 0, 55, 77
1, 167165, Control_c, 0, 64, 124
1, 167167, Note_on_c, 0, 58, 89
1, 167521, Control_c, 0, 64, 123
1, 167549, Note_on_c, 0, 74, 89
1, 167583, Note_off_c, 0, 65, 62
1, 167596, Note_off_c, 0, 73, 61
1, 167676, Control_c, 0, 64, 122
1, 167691, Control_c, 0, 64, 122
1, 167706, Control_c, 0, 64, 121
1, 167721, Control_c, 0, 64, 120
1, 167722, Note_on_c, 0, 64, 74
1, 167736, Control_c, 0, 64, 119
1, 167750, Control_c, 0, 64, 117
1, 167765, Control_c, 0, 64, 116
1, 167780, Control_c, 0, 64, 114
1, 167786, Note_off_c, 0, 74, 55
1, 167791, Note_off_c, 0, 64, 62
1, 167796, Control_c, 0, 64, 113
1, 167811, Control_c, 0, 64, 111
1, 167826, Control_c, 0, 64, 109
1, 167840, Control_c, 0, 64, 107
1, 167855, Control_c, 0, 64, 105
1, 167870, Control_c, 0, 64, 103
1, 167885, Control_c, 0, 64, 102
1, 167899, Control_c, 0, 64, 100
1, 167914, Note_on_c, 0, 74, 81
1, 167914, Control_c, 0, 64, 98
1, 167930, Control_c, 0, 64, 96
1, 167931, Note_on_c, 0, 64, 71
1, 167945, Control_c, 0, 64, 94
1, 167960, Control_c, 0, 64, 92
1, 167974, Control_c, 0, 64, 91
1, 167989, Control_c, 0, 64, 90
1, 168004, Control_c, 0, 64, 89
1, 168019, Control_c, 0, 64, 88
1, 168033, Control_c, 0, 64, 88
1, 168048, Control_c, 0, 64, 87
1, 168063, Control_c, 0, 64, 87
1, 168122, Control_c, 0, 64, 86
1, 168152, Control_c, 0, 64, 86
1, 168182, Control_c, 0, 64, 84
1, 168197, Control_c, 0, 64, 80
1, 168204, Note_on_c, 0, 70, 87
1, 168212, Control_c, 0, 64, 73
1, 168226, Control_c, 0, 64, 64
1, 168241, Control_c, 0, 64, 32
1, 168244, Note_off_c, 0, 74, 64
1, 168256, Control_c, 0, 64, 0
1, 168315, Control_c, 0, 64, 55
1, 168330, Control_c, 0, 64, 66
1, 168345, Control_c, 0, 64, 74
1, 168359, Control_c, 0, 64, 80
1, 168374, Control_c, 0, 64, 85
1, 168383, Note_off_c, 0, 55, 60
1, 168389, Control_c, 0, 64, 87
1, 168404, Control_c, 0, 64, 88
1, 168405, Note_off_c, 0, 70, 61
1, 168426, Control_c, 0, 64, 89
1, 168446, Note_off_c, 0, 64, 61
1, 168456, Control_c, 0, 64, 88
1, 168471, Control_c, 0, 64, 84
1, 168483, Note_on_c, 0, 70, 86
1, 168486, Control_c, 0, 64, 77
1, 168489, Note_off_c, 0, 58, 63
1, 168500, Control_c, 0, 64, 67
1, 168515, Control_c, 0, 64, 55
1, 168530, Control_c, 0, 64, 53
1, 168545, Control_c, 0, 64, 64
1, 168560, Control_c, 0, 64, 70
1, 168574, Control_c, 0, 64, 78
1, 168590, Control_c, 0, 64, 87
1, 168605, Control_c, 0, 64, 92
1, 168620, Control_c, 0, 64, 95
1, 168635, Control_c, 0, 64, 97
1, 168650, Control_c, 0, 64, 100
1, 168664, Control_c, 0, 64, 101
1, 168678, Control_c, 0, 64, 102
1, 168708, Control_c, 0, 64, 100
1, 168722, Control_c, 0, 64, 89
1, 168733, Note_on_c, 0, 66, 89
1, 168737, Control_c, 0, 64, 73
1, 168747, Note_on_c, 0, 65, 68
1, 168752, Control_c, 0, 64, 27
1, 168767, Control_c, 0, 64, 0
1, 168811, Control_c, 0, 64, 66
1, 168826, Control_c, 0, 64, 79
1, 168837, Note_off_c, 0, 65, 63
1, 168841, Control_c, 0, 64, 91
1, 168856, Control_c, 0, 64, 99
1, 168861, Note_on_c, 0, 64, 74
1, 168870, Note_off_c, 0, 70, 60
1, 168870, Control_c, 0, 64, 99
1, 168875, Note_off_c, 0, 66, 67
1, 168885, Control_c, 0, 64, 100
1, 168900, Control_c, 0, 64, 102
1, 168915, Control_c, 0, 64, 107
1, 168930, Control_c, 0, 64, 112
1, 168945, Control_c, 0, 64, 114
1, 168960, Control_c, 0, 64, 115
1, 168975, Control_c, 0, 64, 116
1, 169031, Note_off_c, 0, 64, 61
1, 169034, Control_c, 0, 64, 115
1, 169049, Control_c, 0, 64, 107
1, 169061, Note_on_c, 0, 63, 66
1, 169063, Control_c, 0, 64, 95
1, 169066, Note_on_c, 0, 69, 88
1, 169070, Note_on_c, 0, 65, 78
1, 169078, Control_c, 0, 64, 81
1, 169093, Control_c, 0, 64, 68
1, 169107, Control_c, 0, 64, 0
1, 169219, Control_c, 0, 64, 63
1, 169234, Control_c, 0, 64, 72
1, 169249, Control_c, 0, 64, 81
1, 169256, Note_off_c, 0, 65, 64
1, 169263, Control_c, 0, 64, 90
1, 169278, Control_c, 0, 64, 94
1, 169293, Control_c, 0, 64, 96
1, 169308, Control_c, 0, 64, 98
1, 169322, Control_c, 0, 64, 99
1, 169337, Control_c, 0, 64, 100
1, 169352, Control_c, 0, 64, 100
1, 169353, Note_on_c, 0, 58, 69
1, 169367, Control_c, 0, 64, 101
1, 169382, Control_c, 0, 64, 101
1, 169398, Control_c, 0, 64, 102
1, 169405, Note_off_c, 0, 63, 54
1, 169412, Control_c, 0, 64, 104
1, 169427, Control_c, 0, 64, 105
1, 169442, Control_c, 0, 64, 107
1, 169456, Note_on_c, 0, 77, 87
1, 169457, Control_c, 0, 64, 108
1, 169472, Control_c, 0, 64, 109
1, 169486, Control_c, 0, 64, 113
1, 169489, Note_off_c, 0, 69, 64
1, 169501, Control_c, 0, 64, 116
1, 169516, Control_c, 0, 64, 118
1, 169517, Note_off_c, 0, 77, 61
1, 169531, Control_c, 0, 64, 119
1, 169554, Note_off_c, 0, 58, 60
1, 169575, Control_c, 0, 64, 117
1, 169580, Note_on_c, 0, 51, 70
1, 169586, Note_on_c, 0, 77, 87
1, 169590, Control_c, 0, 64, 106
1, 169596, Note_on_c, 0, 69, 82
1, 169605, Control_c, 0, 64, 94
1, 169619, Control_c, 0, 64, 83
1, 169634, Control_c, 0, 64, 75
1, 169649, Control_c, 0, 64, 70
1, 169678, Control_c, 0, 64, 74
1, 169693, Control_c, 0, 64, 83
1, 169696, Note_off_c, 0, 69, 63
1, 169708, Control_c, 0, 64, 92
1, 169723, Control_c, 0, 64, 98
1, 169738, Control_c, 0, 64, 101
1, 169753, Control_c, 0, 64, 105
1, 169768, Control_c, 0, 64, 108
1, 169783, Control_c, 0, 64, 110
1, 169802, Note_off_c, 0, 77, 63
1, 169811, Note_on_c, 0, 46, 81
1, 169812, Control_c, 0, 64, 109
1, 169818, Note_off_c, 0, 51, 62
1, 169827, Control_c, 0, 64, 105
1, 169834, Note_on_c, 0, 73, 85
1, 169836, Note_on_c, 0, 70, 86
1, 169842, Control_c, 0, 64, 94
1, 169856, Control_c, 0, 64, 82
1, 169871, Control_c, 0, 64, 72
1, 169886, Control_c, 0, 64, 68
1, 169901, Control_c, 0, 64, 71
1, 169923, Control_c, 0, 64, 80
1, 169938, Control_c, 0, 64, 93
1, 169944, Note_off_c, 0, 70, 62
1, 169945, Note_off_c, 0, 73, 61
1, 169952, Control_c, 0, 64, 102
1, 169967, Control_c, 0, 64, 105
1, 169982, Control_c, 0, 64, 108
1, 169997, Control_c, 0, 64, 112
1, 170012, Control_c, 0, 64, 116
1, 170027, Control_c, 0, 64, 118
1, 170042, Control_c, 0, 64, 119
1, 170071, Control_c, 0, 64, 118
1, 170086, Control_c, 0, 64, 109
1, 170101, Control_c, 0, 64, 94
1, 170104, Note_on_c, 0, 57, 86
1, 170109, Note_on_c, 0, 73, 90
1, 170113, Note_on_c, 0, 66, 88
1, 170116, Control_c, 0, 64, 78
1, 170120, Note_off_c, 0, 46, 61
1, 170130, Control_c, 0, 64, 62
1, 170145, Control_c, 0, 64, 0
1, 170235, Control_c, 0, 64, 58
1, 170250, Control_c, 0, 64, 74
1, 170265, Control_c, 0, 64, 90
1, 170280, Control_c, 0, 64, 103
1, 170294, Control_c, 0, 64, 107
1, 170309, Control_c, 0, 64, 109
1, 170324, Control_c, 0, 64, 110
1, 170339, Control_c, 0, 64, 112
1, 170354, Control_c, 0, 64, 114
1, 170355, Note_on_c, 0, 69, 86
1, 170355, Note_off_c, 0, 73, 55
1, 170360, Note_on_c, 0, 61, 82
1, 170368, Control_c, 0, 64, 115
1, 170383, Control_c, 0, 64, 117
1, 170391, Note_off_c, 0, 66, 65
1, 170398, Control_c, 0, 64, 118
1, 170412, Note_off_c, 0, 61, 63
1, 170413, Control_c, 0, 64, 119
1, 170428, Control_c, 0, 64, 120
1, 170442, Note_off_c, 0, 69, 64
1, 170442, Control_c, 0, 64, 120
1, 170516, Control_c, 0, 64, 121
1, 170531, Control_c, 0, 64, 121
1, 170546, Control_c, 0, 64, 124
1, 170561, Control_c, 0, 64, 125
1, 170585, Note_off_c, 0, 57, 59
1, 170605, Control_c, 0, 64, 116
1, 170620, Control_c, 0, 64, 96
1, 170623, Note_on_c, 0, 56, 76
1, 170625, Note_on_c, 0, 74, 93
1, 170629, Note_on_c, 0, 66, 86
1, 170629, Note_on_c, 0, 60, 84
1, 170635, Control_c, 0, 64, 70
1, 170650, Control_c, 0, 64, 0
1, 170716, Control_c, 0, 64, 68
1, 170731, Control_c, 0, 64, 85
1, 170746, Control_c, 0, 64, 102
1, 170753, Note_off_c, 0, 60, 65
1, 170757, Note_on_c, 0, 72, 89
1, 170760, Control_c, 0, 64, 116
1, 170775, Control_c, 0, 64, 120
1, 170790, Control_c, 0, 64, 121
1, 170823, Note_off_c, 0, 66, 66
1, 170828, Note_off_c, 0, 74, 61
1, 170859, Note_off_c, 0, 56, 63
1, 170861, Note_on_c, 0, 51, 84
1, 170877, Note_on_c, 0, 71, 91
1, 170879, Control_c, 0, 64, 122
1, 170888, Note_off_c, 0, 72, 63
1, 170894, Control_c, 0, 64, 123
1, 170909, Control_c, 0, 64, 125
1, 170924, Control_c, 0, 64, 127
1, 170972, Note_on_c, 0, 72, 89
1, 170984, Note_off_c, 0, 71, 64
1, 171009, Note_off_c, 0, 72, 62
1, 171085, Note_on_c, 0, 62, 91
1, 171088, Control_c, 0, 64, 112
1, 171095, Note_on_c, 0, 80, 100
1, 171097, Note_on_c, 0, 70, 96
1, 171097, Note_on_c, 0, 75, 95
1, 171103, Control_c, 0, 64, 86
1, 171118, Control_c, 0, 64, 49
1, 171126, Note_off_c, 0, 51, 54
1, 171133, Control_c, 0, 64, 0
1, 171151, Note_on_c, 0, 78, 13
1, 171166, Note_off_c, 0, 78, 39
1, 171204, Note_on_c, 0, 60, 87
1, 171207, Control_c, 0, 64, 65
1, 171222, Control_c, 0, 64, 77
1, 171228, Note_off_c, 0, 62, 61
1, 171237, Control_c, 0, 64, 89
1, 171237, Note_off_c, 0, 70, 59
1, 171252, Control_c, 0, 64, 100
1, 171266, Control_c, 0, 64, 107
1, 171281, Control_c, 0, 64, 112
1, 171296, Control_c, 0, 64, 117
1, 171297, Note_off_c, 0, 60, 61
1, 171302, Note_off_c, 0, 75, 60
1, 171310, Control_c, 0, 64, 123
1, 171319, Note_on_c, 0, 59, 96
1, 171325, Control_c, 0, 64, 127
1, 171327, Note_off_c, 0, 80, 60
1, 171422, Note_off_c, 0, 59, 63
1, 171435, Note_on_c, 0, 60, 98
1, 171530, Note_off_c, 0, 60, 61
1, 171555, Control_c, 0, 64, 120
1, 171565, Note_on_c, 0, 75, 106
1, 171565, Note_on_c, 0, 86, 103
1, 171565, Note_on_c, 0, 80, 105
1, 171568, Note_on_c, 0, 68, 100
1, 171570, Control_c, 0, 64, 89
1, 171584, Control_c, 0, 64, 64
1, 171599, Control_c, 0, 64, 0
1, 171658, Control_c, 0, 64, 65
1, 171673, Control_c, 0, 64, 78
1, 171688, Control_c, 0, 64, 93
1, 171703, Control_c, 0, 64, 101
1, 171717, Control_c, 0, 64, 102
1, 171732, Control_c, 0, 64, 105
1, 171747, Control_c, 0, 64, 109
1, 171762, Control_c, 0, 64, 112
1, 171778, Control_c, 0, 64, 114
1, 171793, Control_c, 0, 64, 115
1, 171801, Note_off_c, 0, 68, 60
1, 171807, Control_c, 0, 64, 116
1, 171813, Note_off_c, 0, 75, 62
1, 171822, Control_c, 0, 64, 116
1, 171837, Control_c, 0, 64, 117
1, 171842, Note_on_c, 0, 63, 102
1, 171852, Control_c, 0, 64, 118
1, 171867, Control_c, 0, 64, 120
1, 171881, Control_c, 0, 64, 122
1, 171896, Control_c, 0, 64, 124
1, 171906, Note_off_c, 0, 80, 55
1, 171911, Control_c, 0, 64, 127
1, 171926, Control_c, 0, 64, 127
1, 172101, Note_off_c, 0, 63, 59
1, 172104, Control_c, 0, 64, 121
1, 172118, Note_on_c, 0, 81, 104
1, 172119, Control_c, 0, 64, 92
1, 172120, Note_on_c, 0, 76, 101
1, 172122, Note_on_c, 0, 74, 108
1, 172133, Control_c, 0, 64, 65
1, 172148, Control_c, 0, 64, 0
1, 172200, Control_c, 0, 64, 57
1, 172215, Control_c, 0, 64, 77
1, 172229, Note_off_c, 0, 86, 57
1, 172230, Control_c, 0, 64, 94
1, 172245, Control_c, 0, 64, 112
1, 172259, Control_c, 0, 64, 116
1, 172274, Control_c, 0, 64, 116
1, 172304, Control_c, 0, 64, 117
1, 172400, Note_off_c, 0, 76, 65
1, 172411, Note_on_c, 0, 87, 100
1, 172433, Note_off_c, 0, 81, 64
1, 172476, Note_off_c, 0, 74, 59
1, 172508, Note_on_c, 0, 62, 94
1, 172525, Control_c, 0, 64, 117
1, 172540, Control_c, 0, 64, 119
1, 172555, Control_c, 0, 64, 122
1, 172570, Control_c, 0, 64, 127
1, 172624, Note_off_c, 0, 62, 61
1, 172629, Control_c, 0, 64, 109
1, 172644, Control_c, 0, 64, 80
1, 172653, Note_on_c, 0, 73, 110
1, 172653, Note_on_c, 0, 83, 98
1, 172656, Note_on_c, 0, 77, 98
1, 172659, Control_c, 0, 64, 0
1, 172684, Note_off_c, 0, 87, 60
1, 172734, Control_c, 0, 64, 70
1, 172748, Control_c, 0, 64, 88
1, 172763, Control_c, 0, 64, 115
1, 172778, Control_c, 0, 64, 127
1, 172887, Note_off_c, 0, 77, 59
1, 172945, Note_on_c, 0, 79, 99
1, 172981, Note_off_c, 0, 83, 0
1, 172981, Note_on_c, 0, 83, 4
1, 172993, Note_off_c, 0, 79, 66
1, 172999, Note_off_c, 0, 73, 52
1, 173029, Note_off_c, 0, 83, 21
1, 173074, Note_on_c, 0, 61, 97
1, 173185, Control_c, 0, 64, 109
1, 173196, Note_off_c, 0, 61, 60
1, 173200, Control_c, 0, 64, 81
1, 173215, Control_c, 0, 64, 0
1, 173217, Note_on_c, 0, 82, 98
1, 173217, Note_on_c, 0, 89, 100
1, 173222, Note_on_c, 0, 78, 98
1, 173224, Note_on_c, 0, 72, 100
1, 173288, Control_c, 0, 64, 71
1, 173303, Control_c, 0, 64, 86
1, 173318, Control_c, 0, 64, 108
1, 173330, Note_off_c, 0, 78, 59
1, 173333, Control_c, 0, 64, 117
1, 173348, Control_c, 0, 64, 119
1, 173363, Control_c, 0, 64, 123
1, 173378, Control_c, 0, 64, 127
1, 173381, Note_on_c, 0, 87, 98
1, 173413, Note_off_c, 0, 82, 64
1, 173413, Note_off_c, 0, 89, 57
1, 173557, Note_on_c, 0, 86, 103
1, 173577, Note_off_c, 0, 87, 61
1, 173720, Note_off_c, 0, 72, 60
1, 173730, Note_on_c, 0, 87, 110
1, 173736, Note_on_c, 0, 60, 99
1, 173759, Note_off_c, 0, 86, 66
1, 173824, Note_off_c, 0, 87, 62
1, 173994, Control_c, 0, 64, 96
1, 174006, Note_on_c, 0, 82, 109
1, 174006, Note_on_c, 0, 86, 101
1, 174006, Note_on_c, 0, 90, 101
1, 174008, Note_on_c, 0, 94, 106
1, 174009, Control_c, 0, 64, 67
1, 174014, Note_on_c, 0, 71, 103
1, 174024, Control_c, 0, 64, 0
1, 174039, Note_on_c, 0, 92, 58
1, 174080, Note_off_c, 0, 92, 54
1, 174083, Control_c, 0, 64, 62
1, 174098, Control_c, 0, 64, 83
1, 174112, Control_c, 0, 64, 110
1, 174127, Control_c, 0, 64, 127
1, 174135, Note_off_c, 0, 71, 58
1, 174186, Note_off_c, 0, 60, 64
1, 174380, Control_c, 0, 64, 112
1, 174395, Control_c, 0, 64, 93
1, 174416, Note_on_c, 0, 59, 89
1, 174417, Control_c, 0, 64, 74
1, 174419, Note_on_c, 0, 47, 88
1, 174432, Control_c, 0, 64, 45
1, 174447, Control_c, 0, 64, 0
1, 174461, Control_c, 0, 64, 11
1, 174476, Control_c, 0, 64, 70
1, 174491, Control_c, 0, 64, 85
1, 174506, Control_c, 0, 64, 107
1, 174521, Control_c, 0, 64, 126
1, 174525, Note_off_c, 0, 59, 63
1, 174531, Note_off_c, 0, 47, 65
1, 174535, Control_c, 0, 64, 127
1, 174565, Control_c, 0, 64, 123
1, 174580, Control_c, 0, 64, 104
1, 174595, Control_c, 0, 64, 81
1, 174601, Note_on_c, 0, 48, 92
1, 174602, Note_on_c, 0, 60, 89
1, 174609, Control_c, 0, 64, 23
1, 174624, Control_c, 0, 64, 0
1, 174668, Control_c, 0, 64, 65
1, 174683, Control_c, 0, 64, 84
1, 174698, Control_c, 0, 64, 107
1, 174713, Control_c, 0, 64, 123
1, 174719, Note_off_c, 0, 60, 60
1, 174731, Note_off_c, 0, 48, 58
1, 174790, Note_on_c, 0, 60, 97
1, 174792, Note_on_c, 0, 48, 87
1, 174796, Note_off_c, 0, 94, 46
1, 174832, Control_c, 0, 64, 123
1, 174833, Note_off_c, 0, 48, 68
1, 174846, Note_off_c, 0, 60, 66
1, 174847, Control_c, 0, 64, 125
1, 174849, Note_off_c, 0, 90, 61
1, 174856, Note_off_c, 0, 86, 62
1, 174861, Control_c, 0, 64, 125
1, 174876, Control_c, 0, 64, 127
1, 175079, Note_on_c, 0, 63, 99
1, 175085, Note_on_c, 0, 51, 88
1, 175126, Note_off_c, 0, 51, 65
1, 175130, Note_off_c, 0, 63, 67
1, 175163, Note_off_c, 0, 82, 51
1, 175344, Control_c, 0, 64, 106
1, 175358, Control_c, 0, 64, 81
1, 175364, Note_on_c, 0, 86, 92
1, 175364, Note_on_c, 0, 92, 100
1, 175366, Note_on_c, 0, 80, 101
1, 175366, Note_on_c, 0, 82, 92
1, 175368, Note_on_c, 0, 70, 95
1, 175373, Note_on_c, 0, 58, 90
1, 175373, Control_c, 0, 64, 54
1, 175388, Control_c, 0, 64, 0
1, 175403, Control_c, 0, 64, 34
1, 175418, Control_c, 0, 64, 74
1, 175422, Note_off_c, 0, 70, 63
1, 175432, Control_c, 0, 64, 93
1, 175447, Control_c, 0, 64, 118
1, 175448, Note_off_c, 0, 58, 63
1, 175462, Control_c, 0, 64, 127
1, 175554, Note_on_c, 0, 54, 95
1, 175554, Note_on_c, 0, 66, 99
1, 175584, Note_off_c, 0, 54, 63
1, 175590, Note_off_c, 0, 66, 65
1, 175723, Note_on_c, 0, 74, 95
1, 175723, Note_off_c, 0, 80, 60
1, 175725, Note_on_c, 0, 62, 95
1, 175732, Note_off_c, 0, 82, 61
1, 175742, Note_off_c, 0, 62, 73
1, 175756, Note_off_c, 0, 74, 69
1, 175793, Note_off_c, 0, 92, 53
1, 175797, Note_off_c, 0, 86, 51
1, 175929, Control_c, 0, 64, 98
1, 175939, Note_on_c, 0, 85, 103
1, 175940, Note_on_c, 0, 92, 107
1, 175941, Note_on_c, 0, 81, 104
1, 175942, Note_on_c, 0, 80, 112
1, 175944, Control_c, 0, 64, 71
1, 175949, Note_on_c, 0, 68, 95
1, 175959, Control_c, 0, 64, 0
1, 176019, Control_c, 0, 64, 20
1, 176033, Control_c, 0, 64, 75
1, 176048, Note_off_c, 0, 80, 68
1, 176048, Control_c, 0, 64, 96
1, 176063, Control_c, 0, 64, 127
1, 176087, Note_off_c, 0, 68, 67
1, 176232, Note_on_c, 0, 56, 87
1, 176236, Note_on_c, 0, 44, 84
1, 176285, Note_off_c, 0, 56, 63
1, 176294, Note_off_c, 0, 44, 63
1, 176341, Poly_aftertouch_c, 0, 46, 0
1, 176361, Note_on_c, 0, 57, 86
1, 176367, Note_on_c, 0, 45, 83
1, 176412, Note_off_c, 0, 57, 62
1, 176418, Note_off_c, 0, 45, 65
1, 176448, Control_c, 0, 64, 119
1, 176463, Control_c, 0, 64, 95
1, 176478, Control_c, 0, 64, 69
1, 176493, Control_c, 0, 64, 0
1, 176498, Note_on_c, 0, 45, 92
1, 176498, Note_on_c, 0, 57, 94
1, 176552, Control_c, 0, 64, 54
1, 176567, Control_c, 0, 64, 75
1, 176576, Note_off_c, 0, 92, 63
1, 176582, Control_c, 0, 64, 88
1, 176583, Note_off_c, 0, 45, 65
1, 176593, Note_off_c, 0, 57, 67
1, 176597, Control_c, 0, 64, 100
1, 176612, Control_c, 0, 64, 106
1, 176627, Control_c, 0, 64, 111
1, 176632, Note_off_c, 0, 81, 55
1, 176649, Control_c, 0, 64, 116
1, 176664, Control_c, 0, 64, 121
1, 176678, Control_c, 0, 64, 126
1, 176693, Control_c, 0, 64, 127
1, 176786, Note_on_c, 0, 61, 96
1, 176791, Note_on_c, 0, 49, 91
1, 176852, Note_off_c, 0, 49, 63
1, 176859, Note_off_c, 0, 61, 64
1, 176997, Note_off_c, 0, 85, 60
1, 177032, Control_c, 0, 64, 96
1, 177047, Control_c, 0, 64, 66
1, 177049, Note_on_c, 0, 90, 97
1, 177050, Note_on_c, 0, 78, 101
1, 177051, Note_on_c, 0, 81, 91
1, 177053, Note_on_c, 0, 86, 86
1, 177055, Note_on_c, 0, 66, 102
1, 177061, Note_on_c, 0, 54, 89
1, 177062, Control_c, 0, 64, 0
1, 177107, Control_c, 0, 64, 70
1, 177121, Control_c, 0, 64, 87
1, 177136, Control_c, 0, 64, 111
1, 177151, Control_c, 0, 64, 117
1, 177156, Note_off_c, 0, 66, 65
1, 177183, Note_off_c, 0, 54, 61
1, 177259, Note_on_c, 0, 50, 96
1, 177260, Note_on_c, 0, 62, 89
1, 177293, Note_off_c, 0, 50, 64
1, 177300, Note_off_c, 0, 62, 62
1, 177358, Control_c, 0, 64, 118
1, 177374, Control_c, 0, 64, 119
1, 177396, Control_c, 0, 64, 121
1, 177411, Control_c, 0, 64, 125
1, 177422, Note_on_c, 0, 70, 98
1, 177426, Control_c, 0, 64, 127
1, 177428, Note_on_c, 0, 58, 87
1, 177467, Note_off_c, 0, 81, 59
1, 177480, Note_off_c, 0, 58, 64
1, 177481, Note_off_c, 0, 70, 60
1, 177506, Note_off_c, 0, 78, 59
1, 177530, Control_c, 0, 64, 92
1, 177533, Note_off_c, 0, 86, 55
1, 177543, Note_on_c, 0, 59, 81
1, 177544, Control_c, 0, 64, 65
1, 177545, Note_off_c, 0, 90, 65
1, 177559, Control_c, 0, 64, 0
1, 177595, Note_on_c, 0, 66, 77
1, 177607, Note_off_c, 0, 59, 62
1, 177618, Control_c, 0, 64, 74
1, 177631, Note_off_c, 0, 66, 66
1, 177633, Control_c, 0, 64, 90
1, 177643, Note_on_c, 0, 71, 78
1, 177648, Control_c, 0, 64, 110
1, 177664, Control_c, 0, 64, 119
1, 177678, Control_c, 0, 64, 119
1, 177693, Control_c, 0, 64, 120
1, 177694, Note_on_c, 0, 88, 97
1, 177698, Note_on_c, 0, 83, 92
1, 177700, Note_on_c, 0, 76, 100
1, 177700, Note_on_c, 0, 78, 98
1, 177708, Note_off_c, 0, 71, 53
1, 177708, Control_c, 0, 64, 121
1, 177723, Control_c, 0, 64, 123
1, 177736, Note_off_c, 0, 76, 67
1, 177738, Control_c, 0, 64, 125
1, 177752, Control_c, 0, 64, 127
1, 177767, Control_c, 0, 64, 127
1, 177793, Note_off_c, 0, 83, 59
1, 177798, Note_off_c, 0, 78, 64
1, 178092, Note_on_c, 0, 73, 85
1, 178092, Note_on_c, 0, 85, 91
1, 178157, Note_off_c, 0, 88, 57
1, 178375, Note_on_c, 0, 78, 89
1, 178379, Note_on_c, 0, 66, 76
1, 178421, Note_off_c, 0, 73, 61
1, 178543, Note_on_c, 0, 82, 83
1, 178552, Note_on_c, 0, 70, 84
1, 178618, Note_off_c, 0, 85, 61
1, 178642, Note_off_c, 0, 78, 63
1, 178648, Note_on_c, 0, 86, 90
1, 178685, Note_off_c, 0, 82, 63
1, 178732, Note_on_c, 0, 62, 72
1, 178739, Note_on_c, 0, 74, 87
1, 178780, Note_off_c, 0, 66, 63
1, 178791, Note_off_c, 0, 70, 60
1, 178815, Note_off_c, 0, 62, 62
1, 178824, Note_off_c, 0, 74, 65
1, 178968, Control_c, 0, 64, 106
1, 178984, Control_c, 0, 64, 86
1, 178985, Note_on_c, 0, 85, 94
1, 178988, Note_on_c, 0, 68, 80
1, 178989, Note_on_c, 0, 73, 90
1, 178991, Note_on_c, 0, 56, 75
1, 178998, Control_c, 0, 64, 66
1, 179013, Control_c, 0, 64, 0
1, 179016, Note_off_c, 0, 86, 65
1, 179117, Control_c, 0, 64, 63
1, 179131, Control_c, 0, 64, 74
1, 179146, Control_c, 0, 64, 85
1, 179160, Control_c, 0, 64, 96
1, 179175, Control_c, 0, 64, 98
1, 179190, Control_c, 0, 64, 99
1, 179205, Control_c, 0, 64, 101
1, 179208, Note_off_c, 0, 85, 64
1, 179213, Note_off_c, 0, 68, 63
1, 179220, Control_c, 0, 64, 105
1, 179235, Control_c, 0, 64, 110
1, 179249, Control_c, 0, 64, 113
1, 179251, Note_off_c, 0, 73, 60
1, 179264, Control_c, 0, 64, 113
1, 179309, Note_on_c, 0, 66, 84
1, 179315, Note_on_c, 0, 61, 73
1, 179462, Note_on_c, 0, 83, 79
1, 179471, Control_c, 0, 64, 114
1, 179477, Note_on_c, 0, 71, 66
1, 179486, Control_c, 0, 64, 115
1, 179501, Control_c, 0, 64, 116
1, 179515, Control_c, 0, 64, 119
1, 179530, Control_c, 0, 64, 126
1, 179545, Control_c, 0, 64, 127
1, 179553, Note_off_c, 0, 71, 60
1, 179656, Control_c, 0, 64, 103
1, 179671, Control_c, 0, 64, 84
1, 179681, Note_on_c, 0, 81, 82
1, 179684, Note_on_c, 0, 69, 82
1, 179686, Control_c, 0, 64, 66
1, 179701, Control_c, 0, 64, 0
1, 179703, Note_off_c, 0, 83, 59
1, 179760, Control_c, 0, 64, 34
1, 179763, Note_off_c, 0, 69, 65
1, 179776, Control_c, 0, 64, 67
1, 179785, Note_off_c, 0, 66, 61
1, 179791, Control_c, 0, 64, 77
1, 179806, Control_c, 0, 64, 88
1, 179813, Note_off_c, 0, 81, 64
1, 179820, Control_c, 0, 64, 98
1, 179822, Note_off_c, 0, 61, 58
1, 179835, Control_c, 0, 64, 103
1, 179850, Control_c, 0, 64, 108
1, 179860, Note_off_c, 0, 56, 61
1, 179865, Control_c, 0, 64, 115
1, 179879, Control_c, 0, 64, 125
1, 179894, Control_c, 0, 64, 127
1, 179903, Note_on_c, 0, 85, 81
1, 179912, Note_on_c, 0, 73, 73
1, 180013, Control_c, 0, 64, 97
1, 180028, Control_c, 0, 64, 79
1, 180043, Control_c, 0, 64, 64
1, 180044, Note_on_c, 0, 65, 72
1, 180048, Note_on_c, 0, 60, 69
1, 180050, Note_on_c, 0, 55, 60
1, 180058, Control_c, 0, 64, 43
1, 180064, Note_off_c, 0, 73, 63
1, 180072, Control_c, 0, 64, 55
1, 180073, Note_off_c, 0, 85, 65
1, 180087, Control_c, 0, 64, 67
1, 180102, Control_c, 0, 64, 79
1, 180117, Control_c, 0, 64, 91
1, 180130, Note_off_c, 0, 65, 65
1, 180132, Control_c, 0, 64, 99
1, 180146, Control_c, 0, 64, 103
1, 180161, Control_c, 0, 64, 105
1, 180176, Control_c, 0, 64, 109
1, 180191, Control_c, 0, 64, 114
1, 180197, Note_on_c, 0, 77, 78
1, 180201, Note_on_c, 0, 65, 65
1, 180206, Control_c, 0, 64, 119
1, 180220, Control_c, 0, 64, 121
1, 180235, Note_off_c, 0, 60, 64
1, 180235, Control_c, 0, 64, 123
1, 180240, Note_off_c, 0, 55, 64
1, 180250, Control_c, 0, 64, 127
1, 180264, Control_c, 0, 64, 127
1, 180271, Note_off_c, 0, 65, 63
1, 180277, Note_off_c, 0, 77, 62
1, 180451, Note_on_c, 0, 71, 79
1, 180458, Note_on_c, 0, 59, 65
1, 180507, Note_off_c, 0, 59, 0
1, 180507, Note_on_c, 0, 59, 9
1, 180538, Note_off_c, 0, 59, 53
1, 180777, Control_c, 0, 64, 107
1, 180785, Note_on_c, 0, 59, 57
1, 180788, Note_on_c, 0, 54, 54
1, 180791, Note_on_c, 0, 64, 58
1, 180792, Control_c, 0, 64, 91
1, 180807, Control_c, 0, 64, 77
1, 180822, Control_c, 0, 64, 66
1, 180837, Control_c, 0, 64, 43
1, 180851, Control_c, 0, 64, 0
1, 180910, Control_c, 0, 64, 30
1, 180925, Control_c, 0, 64, 61
1, 180940, Control_c, 0, 64, 68
1, 180955, Control_c, 0, 64, 75
1, 180970, Control_c, 0, 64, 84
1, 180985, Control_c, 0, 64, 89
1, 181000, Control_c, 0, 64, 91
1, 181014, Control_c, 0, 64, 92
1, 181029, Control_c, 0, 64, 94
1, 181044, Control_c, 0, 64, 98
1, 181059, Control_c, 0, 64, 101
1, 181065, Note_off_c, 0, 54, 59
1, 181074, Control_c, 0, 64, 102
1, 181088, Control_c, 0, 64, 103
1, 181103, Note_off_c, 0, 64, 63
1, 181133, Control_c, 0, 64, 103
1, 181150, Note_on_c, 0, 72, 69
1, 181168, Note_off_c, 0, 59, 61
1, 181378, Control_c, 0, 64, 103
1, 181402, Note_on_c, 0, 76, 69
1, 181408, Control_c, 0, 64, 102
1, 181423, Control_c, 0, 64, 101
1, 181438, Control_c, 0, 64, 100
1, 181452, Control_c, 0, 64, 99
1, 181467, Control_c, 0, 64, 97
1, 181482, Control_c, 0, 64, 96
1, 181497, Control_c, 0, 64, 93
1, 181512, Control_c, 0, 64, 91
1, 181525, Note_on_c, 0, 58, 53
1, 181526, Control_c, 0, 64, 88
1, 181532, Note_on_c, 0, 63, 56
1, 181533, Note_on_c, 0, 53, 50
1, 181541, Control_c, 0, 64, 84
1, 181556, Control_c, 0, 64, 81
1, 181560, Note_off_c, 0, 72, 36
1, 181563, Note_off_c, 0, 71, 56
1, 181571, Control_c, 0, 64, 79
1, 181586, Control_c, 0, 64, 76
1, 181600, Control_c, 0, 64, 73
1, 181615, Control_c, 0, 64, 71
1, 181630, Control_c, 0, 64, 69
1, 181644, Control_c, 0, 64, 67
1, 181651, Note_on_c, 0, 68, 65
1, 181659, Control_c, 0, 64, 65
1, 181674, Control_c, 0, 64, 64
1, 181689, Control_c, 0, 64, 63
1, 181704, Control_c, 0, 64, 61
1, 181718, Control_c, 0, 64, 58
1, 181733, Control_c, 0, 64, 53
1, 181748, Control_c, 0, 64, 50
1, 181763, Control_c, 0, 64, 46
1, 181778, Control_c, 0, 64, 41
1, 181793, Control_c, 0, 64, 35
1, 181800, Note_off_c, 0, 76, 40
1, 181807, Control_c, 0, 64, 16
1, 181822, Control_c, 0, 64, 0
1, 181936, Note_on_c, 0, 62, 62
1, 181953, Note_off_c, 0, 68, 64
1, 182006, Note_off_c, 0, 63, 65
1, 182022, Control_c, 0, 64, 66
1, 182037, Control_c, 0, 64, 76
1, 182052, Control_c, 0, 64, 86
1, 182067, Control_c, 0, 64, 93
1, 182072, Note_off_c, 0, 58, 65
1, 182075, Note_off_c, 0, 53, 64
1, 182082, Control_c, 0, 64, 96
1, 182097, Control_c, 0, 64, 97
1, 182112, Control_c, 0, 64, 98
1, 182126, Control_c, 0, 64, 98
1, 182141, Control_c, 0, 64, 99
1, 182246, Control_c, 0, 64, 98
1, 182275, Control_c, 0, 64, 97
1, 182290, Control_c, 0, 64, 95
1, 182305, Control_c, 0, 64, 93
1, 182320, Note_on_c, 0, 57, 53
1, 182320, Control_c, 0, 64, 90
1, 182331, Note_on_c, 0, 52, 48
1, 182335, Control_c, 0, 64, 86
1, 182349, Control_c, 0, 64, 81
1, 182364, Control_c, 0, 64, 76
1, 182379, Control_c, 0, 64, 71
1, 182394, Control_c, 0, 64, 67
1, 182409, Control_c, 0, 64, 65
1, 182423, Control_c, 0, 64, 64
1, 182438, Control_c, 0, 64, 63
1, 182453, Control_c, 0, 64, 62
1, 182467, Control_c, 0, 64, 62
1, 182482, Control_c, 0, 64, 61
1, 182497, Control_c, 0, 64, 59
1, 182512, Control_c, 0, 64, 57
1, 182527, Control_c, 0, 64, 55
1, 182541, Control_c, 0, 64, 54
1, 182556, Control_c, 0, 64, 54
1, 182586, Control_c, 0, 64, 55
1, 182630, Control_c, 0, 64, 55
1, 182653, Control_c, 0, 64, 56
1, 182667, Control_c, 0, 64, 57
1, 182682, Control_c, 0, 64, 59
1, 182697, Control_c, 0, 64, 61
1, 182711, Note_on_c, 0, 47, 46
1, 182712, Control_c, 0, 64, 63
1, 182727, Control_c, 0, 64, 64
1, 182741, Control_c, 0, 64, 64
1, 182756, Control_c, 0, 64, 65
1, 182771, Control_c, 0, 64, 66
1, 182783, Note_off_c, 0, 52, 54
1, 182786, Control_c, 0, 64, 68
1, 182800, Control_c, 0, 64, 70
1, 182815, Control_c, 0, 64, 74
1, 182830, Control_c, 0, 64, 76
1, 182845, Control_c, 0, 64, 78
1, 182860, Control_c, 0, 64, 78
1, 182875, Control_c, 0, 64, 79
1, 182890, Control_c, 0, 64, 80
1, 182904, Control_c, 0, 64, 81
1, 182919, Control_c, 0, 64, 83
1, 182934, Control_c, 0, 64, 85
1, 182964, Control_c, 0, 64, 85
1, 182988, Note_on_c, 0, 52, 48
1, 183009, Control_c, 0, 64, 86
1, 183038, Control_c, 0, 64, 86
1, 183082, Control_c, 0, 64, 87
1, 183116, Note_on_c, 0, 68, 60
1, 183249, Note_off_c, 0, 62, 61
1, 183262, Note_on_c, 0, 42, 48
1, 183268, Note_off_c, 0, 57, 41
1, 183475, Control_c, 0, 64, 86
1, 183519, Note_off_c, 0, 52, 50
1, 183549, Control_c, 0, 64, 86
1, 183578, Control_c, 0, 64, 85
1, 183593, Note_on_c, 0, 61, 59
1, 183593, Control_c, 0, 64, 85
1, 183608, Control_c, 0, 64, 84
1, 183611, Note_off_c, 0, 42, 58
1, 183615, Note_on_c, 0, 57, 46
1, 183623, Control_c, 0, 64, 84
1, 183653, Control_c, 0, 64, 83
1, 183668, Control_c, 0, 64, 82
1, 183682, Control_c, 0, 64, 80
1, 183697, Control_c, 0, 64, 78
1, 183700, Note_off_c, 0, 47, 45
1, 183712, Control_c, 0, 64, 76
1, 183727, Control_c, 0, 64, 74
1, 183742, Control_c, 0, 64, 72
1, 183757, Control_c, 0, 64, 71
1, 183772, Control_c, 0, 64, 69
1, 183787, Control_c, 0, 64, 68
1, 183802, Control_c, 0, 64, 66
1, 183817, Control_c, 0, 64, 66
1, 183832, Control_c, 0, 64, 65
1, 183855, Note_off_c, 0, 68, 53
1, 183861, Control_c, 0, 64, 65
1, 183876, Control_c, 0, 64, 64
1, 183891, Control_c, 0, 64, 63
1, 183905, Control_c, 0, 64, 61
1, 183920, Control_c, 0, 64, 61
1, 183950, Control_c, 0, 64, 60
1, 183965, Control_c, 0, 64, 58
1, 183979, Control_c, 0, 64, 57
1, 183994, Control_c, 0, 64, 57
1, 184017, Note_on_c, 0, 41, 51
1, 184038, Control_c, 0, 64, 56
1, 184053, Control_c, 0, 64, 56
1, 184068, Control_c, 0, 64, 55
1, 184150, Control_c, 0, 64, 56
1, 184180, Control_c, 0, 64, 56
1, 184194, Control_c, 0, 64, 57
1, 184209, Control_c, 0, 64, 57
1, 184224, Control_c, 0, 64, 58
1, 184253, Control_c, 0, 64, 59
1, 184268, Control_c, 0, 64, 60
1, 184283, Control_c, 0, 64, 60
1, 184298, Control_c, 0, 64, 61
1, 184312, Control_c, 0, 64, 61
1, 184327, Control_c, 0, 64, 62
1, 184357, Control_c, 0, 64, 62
1, 184372, Control_c, 0, 64, 63
1, 184417, Control_c, 0, 64, 63
1, 184429, Note_on_c, 0, 46, 53
1, 184461, Control_c, 0, 64, 64
1, 184530, Note_off_c, 0, 41, 36
1, 184535, Control_c, 0, 64, 64
1, 184566, Control_c, 0, 64, 65
1, 184581, Control_c, 0, 64, 66
1, 184596, Control_c, 0, 64, 66
1, 184610, Control_c, 0, 64, 67
1, 184625, Control_c, 0, 64, 67
1, 184655, Control_c, 0, 64, 68
1, 184684, Control_c, 0, 64, 68
1, 184699, Control_c, 0, 64, 69
1, 184707, Note_on_c, 0, 51, 49
1, 184729, Control_c, 0, 64, 69
1, 184744, Control_c, 0, 64, 70
1, 184773, Control_c, 0, 64, 70
1, 184788, Control_c, 0, 64, 71
1, 184818, Control_c, 0, 64, 71
1, 184862, Control_c, 0, 64, 72
1, 184884, Control_c, 0, 64, 72
1, 184886, Note_on_c, 0, 68, 47
1, 184897, Note_off_c, 0, 46, 27
1, 184899, Control_c, 0, 64, 73
1, 184914, Control_c, 0, 64, 74
1, 184929, Control_c, 0, 64, 75
1, 184943, Control_c, 0, 64, 76
1, 184958, Control_c, 0, 64, 76
1, 184988, Note_off_c, 0, 61, 63
1, 185003, Note_off_c, 0, 57, 58
1, 185003, Control_c, 0, 64, 77
1, 185018, Control_c, 0, 64, 77
1, 185033, Control_c, 0, 64, 78
1, 185048, Control_c, 0, 64, 79
1, 185057, Note_on_c, 0, 41, 42
1, 185063, Control_c, 0, 64, 79
1, 185078, Control_c, 0, 64, 80
1, 185137, Control_c, 0, 64, 80
1, 185180, Note_off_c, 0, 51, 37
1, 185330, Control_c, 0, 64, 80
1, 185390, Control_c, 0, 64, 79
1, 185399, Note_on_c, 0, 60, 47
1, 185405, Control_c, 0, 64, 79
1, 185419, Note_on_c, 0, 56, 43
1, 185434, Control_c, 0, 64, 78
1, 185447, Note_off_c, 0, 41, 46
1, 185449, Control_c, 0, 64, 77
1, 185464, Control_c, 0, 64, 76
1, 185479, Control_c, 0, 64, 75
1, 185493, Control_c, 0, 64, 73
1, 185508, Control_c, 0, 64, 72
1, 185523, Control_c, 0, 64, 71
1, 185538, Control_c, 0, 64, 70
1, 185553, Control_c, 0, 64, 69
1, 185567, Control_c, 0, 64, 69
1, 185597, Control_c, 0, 64, 68
1, 185611, Control_c, 0, 64, 68
1, 185626, Control_c, 0, 64, 67
1, 185649, Control_c, 0, 64, 67
1, 185664, Control_c, 0, 64, 66
1, 185677, Note_off_c, 0, 68, 49
1, 185679, Control_c, 0, 64, 66
1, 185693, Control_c, 0, 64, 65
1, 185708, Control_c, 0, 64, 65
1, 185723, Control_c, 0, 64, 64
1, 185738, Control_c, 0, 64, 64
1, 185782, Control_c, 0, 64, 63
1, 185811, Control_c, 0, 64, 63
1, 185841, Control_c, 0, 64, 62
1, 185885, Control_c, 0, 64, 62
1, 185915, Control_c, 0, 64, 61
1, 185933, Note_on_c, 0, 50, 37
1, 185975, Control_c, 0, 64, 61
1, 186213, Control_c, 0, 64, 61
1, 186242, Control_c, 0, 64, 62
1, 186331, Control_c, 0, 64, 62
1, 186346, Control_c, 0, 64, 63
1, 186376, Control_c, 0, 64, 63
1, 186428, Control_c, 0, 64, 64
1, 186487, Control_c, 0, 64, 64
1, 186498, Note_on_c, 0, 40, 34
1, 186576, Control_c, 0, 64, 65
1, 186664, Control_c, 0, 64, 65
1, 186664, Control_c, 0, 67, 8
1, 186679, Control_c, 0, 64, 66
1, 186679, Control_c, 0, 67, 10
1, 186694, Control_c, 0, 64, 67
1, 186694, Control_c, 0, 67, 14
1, 186708, Control_c, 0, 64, 68
1, 186708, Control_c, 0, 67, 18
1, 186723, Control_c, 0, 64, 69
1, 186723, Control_c, 0, 67, 22
1, 186738, Control_c, 0, 64, 71
1, 186738, Control_c, 0, 67, 26
1, 186753, Control_c, 0, 64, 72
1, 186753, Control_c, 0, 67, 29
1, 186768, Control_c, 0, 64, 73
1, 186768, Control_c, 0, 67, 33
1, 186783, Control_c, 0, 64, 75
1, 186783, Control_c, 0, 67, 37
1, 186798, Control_c, 0, 64, 77
1, 186798, Control_c, 0, 67, 42
1, 186812, Control_c, 0, 64, 79
1, 186812, Control_c, 0, 67, 47
1, 186827, Control_c, 0, 64, 80
1, 186827, Control_c, 0, 67, 52
1, 186842, Control_c, 0, 64, 81
1, 186842, Control_c, 0, 67, 57
1, 186857, Control_c, 0, 64, 82
1, 186857, Control_c, 0, 67, 62
1, 186872, Control_c, 0, 64, 83
1, 186872, Control_c, 0, 67, 67
1, 186887, Control_c, 0, 64, 84
1, 186887, Control_c, 0, 67, 72
1, 186902, Control_c, 0, 64, 84
1, 186902, Control_c, 0, 67, 78
1, 186916, Control_c, 0, 64, 85
1, 186916, Control_c, 0, 67, 84
1, 186931, Control_c, 0, 64, 85
1, 186931, Control_c, 0, 67, 90
1, 186946, Control_c, 0, 64, 86
1, 186946, Control_c, 0, 67, 97
1, 186961, Control_c, 0, 64, 86
1, 186961, Control_c, 0, 67, 103
1, 186976, Control_c, 0, 64, 87
1, 186976, Control_c, 0, 67, 109
1, 186991, Control_c, 0, 64, 87
1, 186991, Control_c, 0, 67, 115
1, 187006, Control_c, 0, 64, 88
1, 187006, Control_c, 0, 67, 119
1, 187021, Control_c, 0, 64, 88
1, 187021, Control_c, 0, 67, 122
1, 187036, Control_c, 0, 64, 89
1, 187036, Control_c, 0, 67, 123
1, 187051, Control_c, 0, 64, 89
1, 187051, Control_c, 0, 67, 124
1, 187065, Control_c, 0, 64, 90
1, 187080, Control_c, 0, 64, 90
1, 187080, Control_c, 0, 67, 125
1, 187095, Control_c, 0, 64, 92
1, 187095, Control_c, 0, 67, 126
1, 187099, Note_on_c, 0, 68, 47
1, 187110, Control_c, 0, 64, 93
1, 187110, Control_c, 0, 67, 127
1, 187121, Note_off_c, 0, 40, 42
1, 187125, Control_c, 0, 64, 94
1, 187146, Control_c, 0, 64, 96
1, 187161, Control_c, 0, 64, 97
1, 187176, Control_c, 0, 64, 98
1, 187177, Note_off_c, 0, 56, 57
1, 187189, Note_off_c, 0, 50, 40
1, 187191, Control_c, 0, 64, 99
1, 187206, Control_c, 0, 64, 100
1, 187209, Note_off_c, 0, 60, 61
1, 187221, Control_c, 0, 64, 101
1, 187259, Note_off_c, 0, 68, 63
1, 187725, Control_c, 0, 64, 99
1, 187739, Control_c, 0, 64, 96
1, 187754, Control_c, 0, 64, 91
1, 187765, Note_on_c, 0, 76, 63
1, 187769, Control_c, 0, 64, 84
1, 187780, Note_on_c, 0, 71, 49
1, 187783, Note_on_c, 0, 45, 41
1, 187784, Control_c, 0, 64, 77
1, 187785, Note_on_c, 0, 55, 38
1, 187796, Note_on_c, 0, 61, 29
1, 187799, Control_c, 0, 64, 71
1, 187803, Note_on_c, 0, 67, 30
1, 187814, Control_c, 0, 64, 66
1, 187829, Control_c, 0, 64, 61
1, 187844, Control_c, 0, 64, 52
1, 187859, Control_c, 0, 64, 41
1, 187874, Control_c, 0, 64, 33
1, 187895, Control_c, 0, 64, 22
1, 187910, Control_c, 0, 64, 0
1, 188044, Control_c, 0, 64, 47
1, 188058, Control_c, 0, 64, 63
1, 188073, Control_c, 0, 64, 67
1, 188088, Control_c, 0, 64, 70
1, 188103, Control_c, 0, 64, 72
1, 188118, Control_c, 0, 64, 75
1, 188133, Control_c, 0, 64, 78
1, 188148, Control_c, 0, 64, 81
1, 188162, Control_c, 0, 64, 84
1, 188177, Control_c, 0, 64, 86
1, 188192, Control_c, 0, 64, 89
1, 188206, Control_c, 0, 64, 91
1, 188221, Control_c, 0, 64, 92
1, 188236, Control_c, 0, 64, 93
1, 188251, Control_c, 0, 64, 93
1, 188266, Control_c, 0, 64, 94
1, 188280, Control_c, 0, 64, 95
1, 188295, Control_c, 0, 64, 96
1, 188310, Control_c, 0, 64, 96
1, 188339, Note_off_c, 0, 61, 49
1, 188340, Control_c, 0, 64, 97
1, 188369, Control_c, 0, 64, 97
1, 188386, Note_off_c, 0, 76, 56
1, 188548, Note_on_c, 0, 76, 57
1, 188571, Note_off_c, 0, 67, 48
1, 188585, Note_off_c, 0, 71, 48
1, 188718, Control_c, 0, 64, 97
1, 188763, Control_c, 0, 64, 96
1, 188792, Control_c, 0, 64, 96
1, 188807, Control_c, 0, 64, 95
1, 188822, Control_c, 0, 64, 95
1, 188836, Control_c, 0, 64, 94
1, 188851, Control_c, 0, 64, 93
1, 188866, Control_c, 0, 64, 92
1, 188868, Note_on_c, 0, 70, 53
1, 188878, Note_on_c, 0, 66, 48
1, 188881, Control_c, 0, 64, 91
1, 188887, Note_on_c, 0, 62, 23
1, 188896, Control_c, 0, 64, 89
1, 188911, Control_c, 0, 64, 87
1, 188926, Control_c, 0, 64, 85
1, 188941, Control_c, 0, 64, 83
1, 188956, Control_c, 0, 64, 80
1, 188971, Control_c, 0, 64, 78
1, 188985, Control_c, 0, 64, 75
1, 189000, Control_c, 0, 64, 73
1, 189015, Control_c, 0, 64, 71
1, 189029, Control_c, 0, 64, 70
1, 189044, Control_c, 0, 64, 70
1, 189059, Control_c, 0, 64, 69
1, 189074, Control_c, 0, 64, 68
1, 189089, Control_c, 0, 64, 67
1, 189093, Note_off_c, 0, 76, 63
1, 189103, Control_c, 0, 64, 66
1, 189118, Control_c, 0, 64, 66
1, 189133, Control_c, 0, 64, 65
1, 189148, Control_c, 0, 64, 65
1, 189163, Control_c, 0, 64, 64
1, 189177, Control_c, 0, 64, 63
1, 189192, Control_c, 0, 64, 62
1, 189207, Control_c, 0, 64, 61
1, 189236, Control_c, 0, 64, 61
1, 189251, Control_c, 0, 64, 60
1, 189266, Control_c, 0, 64, 59
1, 189394, Control_c, 0, 64, 60
1, 189467, Control_c, 0, 64, 60
1, 189497, Control_c, 0, 64, 61
1, 189526, Control_c, 0, 64, 61
1, 189556, Control_c, 0, 64, 62
1, 189696, Note_on_c, 0, 54, 40
1, 189732, Control_c, 0, 64, 61
1, 189744, Note_off_c, 0, 55, 42
1, 189762, Control_c, 0, 64, 61
1, 189836, Control_c, 0, 64, 61
1, 189850, Control_c, 0, 64, 62
1, 189865, Control_c, 0, 64, 63
1, 189880, Control_c, 0, 64, 64
1, 189895, Control_c, 0, 64, 67
1, 189910, Control_c, 0, 64, 70
1, 189924, Control_c, 0, 64, 74
1, 189939, Control_c, 0, 64, 77
1, 189954, Control_c, 0, 64, 81
1, 189969, Control_c, 0, 64, 83
1, 189984, Control_c, 0, 64, 85
1, 189999, Control_c, 0, 64, 87
1, 190014, Control_c, 0, 64, 89
1, 190015, Note_off_c, 0, 54, 56
1, 190029, Control_c, 0, 64, 91
1, 190044, Control_c, 0, 64, 92
1, 190058, Control_c, 0, 64, 93
1, 190073, Control_c, 0, 64, 94
1, 190088, Control_c, 0, 64, 94
1, 190103, Control_c, 0, 64, 95
1, 190118, Control_c, 0, 64, 95
1, 190130, Note_on_c, 0, 71, 58
1, 190139, Control_c, 0, 64, 96
1, 190155, Control_c, 0, 64, 96
1, 190163, Note_off_c, 0, 62, 48
1, 190184, Note_off_c, 0, 70, 59
1, 190206, Note_off_c, 0, 66, 62
1, 190305, Poly_aftertouch_c, 0, 47, 127
1, 190556, Control_c, 0, 64, 95
1, 190571, Control_c, 0, 64, 92
1, 190586, Control_c, 0, 64, 87
1, 190600, Control_c, 0, 64, 81
1, 190615, Control_c, 0, 64, 73
1, 190625, Note_on_c, 0, 77, 56
1, 190630, Control_c, 0, 64, 65
1, 190634, Note_on_c, 0, 53, 46
1, 190637, Note_on_c, 0, 69, 43
1, 190645, Control_c, 0, 64, 53
1, 190652, Note_on_c, 0, 61, 43
1, 190660, Control_c, 0, 64, 25
1, 190674, Control_c, 0, 64, 0
1, 190691, Note_off_c, 0, 71, 59
1, 190949, Control_c, 0, 64, 59
1, 190965, Control_c, 0, 64, 68
1, 190979, Control_c, 0, 64, 75
1, 190994, Control_c, 0, 64, 81
1, 191009, Control_c, 0, 64, 88
1, 191010, Note_off_c, 0, 69, 52
1, 191024, Control_c, 0, 64, 92
1, 191038, Control_c, 0, 64, 94
1, 191053, Control_c, 0, 64, 96
1, 191065, Note_off_c, 0, 61, 58
1, 191068, Control_c, 0, 64, 97
1, 191078, Note_off_c, 0, 53, 63
1, 191083, Control_c, 0, 64, 98
1, 191098, Control_c, 0, 64, 99
1, 191112, Control_c, 0, 64, 99
1, 191127, Control_c, 0, 64, 100
1, 191142, Control_c, 0, 64, 100
1, 191157, Control_c, 0, 64, 101
1, 191176, Poly_aftertouch_c, 0, 47, 0
1, 191251, Note_off_c, 0, 45, 37
1, 191294, Note_on_c, 0, 53, 44
1, 191531, Note_on_c, 0, 69, 52
1, 191537, Note_on_c, 0, 45, 37
1, 191646, Note_off_c, 0, 77, 27
1, 191851, Note_off_c, 0, 69, 63
1, 192175, Note_on_c, 0, 69, 46
1, 192216, Poly_aftertouch_c, 0, 47, 127
1, 192510, Note_on_c, 0, 75, 45
1, 192512, Note_on_c, 0, 61, 40
1, 192726, Note_off_c, 0, 61, 41
1, 192730, Note_on_c, 0, 73, 53
1, 192735, Note_off_c, 0, 69, 38
1, 192813, Poly_aftertouch_c, 0, 47, 0
1, 192846, Note_off_c, 0, 53, 59
1, 192876, Note_off_c, 0, 75, 33
1, 192916, Note_on_c, 0, 69, 55
1, 193104, Note_off_c, 0, 69, 63
1, 193108, Note_on_c, 0, 65, 60
1, 193129, Note_off_c, 0, 73, 23
1, 193150, Note_off_c, 0, 65, 67
1, 193329, Control_c, 0, 64, 100
1, 193344, Control_c, 0, 64, 96
1, 193359, Control_c, 0, 64, 91
1, 193362, Note_on_c, 0, 63, 68
1, 193367, Note_on_c, 0, 61, 59
1, 193373, Control_c, 0, 64, 83
1, 193376, Note_on_c, 0, 52, 42
1, 193379, Note_on_c, 0, 57, 46
1, 193388, Control_c, 0, 64, 74
1, 193403, Control_c, 0, 64, 64
1, 193417, Control_c, 0, 64, 44
1, 193432, Control_c, 0, 64, 0
1, 193812, Note_on_c, 0, 64, 67
1, 193837, Note_off_c, 0, 63, 63
1, 193925, Note_off_c, 0, 52, 66
1, 193987, Control_c, 0, 64, 53
1, 194002, Control_c, 0, 64, 68
1, 194017, Control_c, 0, 64, 75
1, 194032, Control_c, 0, 64, 83
1, 194047, Control_c, 0, 64, 87
1, 194049, Note_on_c, 0, 52, 55
1, 194062, Control_c, 0, 64, 89
1, 194077, Control_c, 0, 64, 90
1, 194092, Control_c, 0, 64, 92
1, 194106, Control_c, 0, 64, 94
1, 194121, Control_c, 0, 64, 95
1, 194137, Control_c, 0, 64, 96
1, 194157, Note_off_c, 0, 45, 49
1, 194271, Control_c, 0, 64, 95
1, 194286, Control_c, 0, 64, 92
1, 194300, Control_c, 0, 64, 87
1, 194315, Control_c, 0, 64, 79
1, 194330, Control_c, 0, 64, 69
1, 194339, Note_on_c, 0, 69, 64
1, 194345, Control_c, 0, 64, 59
1, 194352, Note_on_c, 0, 43, 47
1, 194360, Control_c, 0, 64, 39
1, 194374, Control_c, 0, 64, 27
1, 194389, Control_c, 0, 64, 0
1, 194437, Note_off_c, 0, 64, 59
1, 194566, Control_c, 0, 64, 63
1, 194581, Control_c, 0, 64, 72
1, 194596, Control_c, 0, 64, 79
1, 194611, Control_c, 0, 64, 86
1, 194634, Control_c, 0, 64, 89
1, 194648, Control_c, 0, 64, 92
1, 194663, Control_c, 0, 64, 94
1, 194676, Note_off_c, 0, 52, 62
1, 194678, Control_c, 0, 64, 97
1, 194693, Control_c, 0, 64, 99
1, 194708, Control_c, 0, 64, 101
1, 194715, Note_off_c, 0, 43, 40
1, 194722, Control_c, 0, 64, 102
1, 194737, Control_c, 0, 64, 103
1, 194752, Control_c, 0, 64, 104
1, 194781, Control_c, 0, 64, 104
1, 194796, Control_c, 0, 64, 105
1, 195383, Control_c, 0, 64, 104
1, 195397, Control_c, 0, 64, 100
1, 195412, Control_c, 0, 64, 94
1, 195421, Note_on_c, 0, 42, 36
1, 195427, Control_c, 0, 64, 86
1, 195430, Note_on_c, 0, 51, 35
1, 195442, Control_c, 0, 64, 77
1, 195457, Control_c, 0, 64, 68
1, 195471, Control_c, 0, 64, 56
1, 195486, Control_c, 0, 64, 25
1, 195501, Control_c, 0, 64, 0
1, 195649, Control_c, 0, 64, 35
1, 195664, Control_c, 0, 64, 59
1, 195678, Control_c, 0, 64, 65
1, 195693, Control_c, 0, 64, 68
1, 195708, Control_c, 0, 64, 71
1, 195722, Control_c, 0, 64, 74
1, 195737, Control_c, 0, 64, 77
1, 195754, Control_c, 0, 64, 79
1, 195768, Control_c, 0, 64, 82
1, 195783, Control_c, 0, 64, 84
1, 195798, Control_c, 0, 64, 86
1, 195813, Control_c, 0, 64, 88
1, 195826, Note_off_c, 0, 69, 59
1, 195827, Control_c, 0, 64, 89
1, 195842, Control_c, 0, 64, 91
1, 195857, Control_c, 0, 64, 92
1, 195872, Control_c, 0, 64, 93
1, 195887, Control_c, 0, 64, 93
1, 195901, Control_c, 0, 64, 94
1, 195916, Control_c, 0, 64, 95
1, 195931, Control_c, 0, 64, 95
1, 195946, Control_c, 0, 64, 96
1, 195961, Control_c, 0, 64, 96
1, 195976, Control_c, 0, 64, 97
1, 195991, Control_c, 0, 64, 97
1, 196035, Control_c, 0, 64, 98
1, 196071, Note_on_c, 0, 69, 49
1, 196131, Control_c, 0, 64, 98
1, 196147, Note_off_c, 0, 61, 64
1, 196632, Note_on_c, 0, 61, 44
1, 196636, Control_c, 0, 64, 99
1, 196879, Note_off_c, 0, 42, 39
1, 196998, Control_c, 0, 64, 99
1, 197041, Note_off_c, 0, 57, 31
1, 197192, Control_c, 0, 64, 100
1, 197518, Note_on_c, 0, 57, 33
1, 197532, Note_off_c, 0, 69, 28
1, 197852, Note_off_c, 0, 57, 49
1, 198286, Note_on_c, 0, 57, 30
1, 198617, Note_on_c, 0, 47, 30
1, 198623, Note_on_c, 0, 68, 33
1, 198873, Note_off_c, 0, 57, 37
1, 198885, Note_off_c, 0, 61, 53
1, 198892, Note_on_c, 0, 66, 41
1, 198978, Note_off_c, 0, 51, 34
1, 199172, Note_on_c, 0, 60, 34
1, 199443, Note_off_c, 0, 68, 35
1, 199475, Note_off_c, 0, 66, 33
1, 199485, Note_on_c, 0, 57, 37
1, 199519, Note_off_c, 0, 60, 54
1, 199526, Note_off_c, 0, 47, 42
1, 199603, Note_off_c, 0, 57, 53
1, 199839, Control_c, 0, 64, 99
1, 199860, Control_c, 0, 64, 98
1, 199875, Control_c, 0, 64, 94
1, 199890, Control_c, 0, 64, 90
1, 199905, Control_c, 0, 64, 84
1, 199920, Control_c, 0, 64, 75
1, 199930, Note_on_c, 0, 40, 44
1, 199935, Control_c, 0, 64, 68
1, 199943, Note_on_c, 0, 58, 40
1, 199949, Control_c, 0, 64, 61
1, 199953, Note_on_c, 0, 55, 41
1, 199961, Note_on_c, 0, 47, 34
1, 199964, Control_c, 0, 64, 54
1, 199979, Control_c, 0, 64, 50
1, 199983, Note_on_c, 0, 52, 29
1, 199994, Control_c, 0, 64, 43
1, 200009, Control_c, 0, 64, 16
1, 200024, Control_c, 0, 64, 0
1, 200142, Control_c, 0, 64, 33
1, 200157, Control_c, 0, 64, 64
1, 200172, Control_c, 0, 64, 70
1, 200186, Control_c, 0, 64, 76
1, 200201, Control_c, 0, 64, 81
1, 200216, Control_c, 0, 64, 84
1, 200231, Control_c, 0, 64, 87
1, 200246, Control_c, 0, 64, 88
1, 200260, Control_c, 0, 64, 90
1, 200275, Control_c, 0, 64, 91
1, 200290, Control_c, 0, 64, 93
1, 200305, Control_c, 0, 64, 94
1, 200307, Note_off_c, 0, 58, 54
1, 200319, Control_c, 0, 64, 95
1, 200334, Control_c, 0, 64, 96
1, 200340, Note_off_c, 0, 55, 42
1, 200349, Control_c, 0, 64, 97
1, 200364, Control_c, 0, 64, 97
1, 200379, Control_c, 0, 64, 98
1, 200393, Control_c, 0, 64, 99
1, 200408, Note_off_c, 0, 52, 43
1, 200408, Control_c, 0, 64, 99
1, 200553, Note_on_c, 0, 58, 42
1, 200560, Note_on_c, 0, 55, 37
1, 200602, Control_c, 0, 64, 100
1, 200779, Note_on_c, 0, 52, 48
1, 200804, Note_off_c, 0, 47, 45
1, 200824, Note_off_c, 0, 58, 36
1, 200855, Note_off_c, 0, 55, 39
1, 200891, Control_c, 0, 64, 100
1, 200906, Control_c, 0, 64, 101
1, 201003, Note_off_c, 0, 52, 63
1, 201010, Control_c, 0, 64, 100
1, 201025, Control_c, 0, 64, 97
1, 201031, Note_on_c, 0, 67, 69
1, 201040, Control_c, 0, 64, 93
1, 201043, Note_on_c, 0, 58, 50
1, 201046, Note_on_c, 0, 55, 51
1, 201046, Note_on_c, 0, 46, 48
1, 201055, Control_c, 0, 64, 88
1, 201070, Control_c, 0, 64, 84
1, 201084, Control_c, 0, 64, 80
1, 201099, Control_c, 0, 64, 78
1, 201114, Control_c, 0, 64, 78
1, 201158, Control_c, 0, 64, 80
1, 201173, Control_c, 0, 64, 83
1, 201188, Control_c, 0, 64, 85
1, 201203, Control_c, 0, 64, 87
1, 201217, Control_c, 0, 64, 88
1, 201232, Control_c, 0, 64, 89
1, 201247, Control_c, 0, 64, 90
1, 201262, Control_c, 0, 64, 93
1, 201277, Control_c, 0, 64, 95
1, 201288, Note_off_c, 0, 55, 61
1, 201291, Control_c, 0, 64, 97
1, 201306, Control_c, 0, 64, 98
1, 201315, Note_off_c, 0, 58, 55
1, 201321, Control_c, 0, 64, 99
1, 201337, Control_c, 0, 64, 102
1, 201352, Control_c, 0, 64, 106
1, 201372, Note_on_c, 0, 47, 62
1, 201374, Control_c, 0, 64, 109
1, 201380, Note_on_c, 0, 59, 71
1, 201389, Control_c, 0, 64, 112
1, 201402, Note_off_c, 0, 40, 51
1, 201404, Control_c, 0, 64, 113
1, 201405, Note_off_c, 0, 59, 65
1, 201413, Note_off_c, 0, 46, 54
1, 201413, Note_off_c, 0, 47, 65
1, 201419, Control_c, 0, 64, 115
1, 201434, Control_c, 0, 64, 119
1, 201437, Note_off_c, 0, 67, 63
1, 201448, Control_c, 0, 64, 123
1, 201463, Control_c, 0, 64, 126
1, 201478, Control_c, 0, 64, 127
1, 201516, Note_on_c, 0, 67, 79
1, 201639, Control_c, 0, 64, 109
1, 201654, Control_c, 0, 64, 92
1, 201661, Note_on_c, 0, 60, 75
1, 201665, Note_on_c, 0, 76, 92
1, 201667, Note_on_c, 0, 52, 71
1, 201669, Control_c, 0, 64, 74
1, 201678, Note_on_c, 0, 71, 64
1, 201684, Control_c, 0, 64, 48
1, 201699, Control_c, 0, 64, 0
1, 201709, Note_off_c, 0, 67, 61
1, 201802, Control_c, 0, 64, 65
1, 201817, Control_c, 0, 64, 75
1, 201831, Control_c, 0, 64, 87
1, 201846, Control_c, 0, 64, 95
1, 201861, Control_c, 0, 64, 99
1, 201876, Control_c, 0, 64, 101
1, 201891, Control_c, 0, 64, 103
1, 201901, Note_off_c, 0, 76, 67
1, 201906, Control_c, 0, 64, 106
1, 201920, Control_c, 0, 64, 109
1, 201935, Control_c, 0, 64, 111
1, 201950, Control_c, 0, 64, 112
1, 201951, Note_off_c, 0, 60, 61
1, 201964, Control_c, 0, 64, 113
1, 201978, Note_on_c, 0, 59, 72
1, 201979, Control_c, 0, 64, 114
1, 201994, Control_c, 0, 64, 115
1, 202009, Control_c, 0, 64, 118
1, 202024, Control_c, 0, 64, 119
1, 202054, Control_c, 0, 64, 119
1, 202114, Note_off_c, 0, 52, 63
1, 202125, Note_on_c, 0, 76, 88
1, 202149, Note_off_c, 0, 71, 61
1, 202358, Control_c, 0, 64, 117
1, 202373, Control_c, 0, 64, 114
1, 202388, Control_c, 0, 64, 110
1, 202403, Control_c, 0, 64, 101
1, 202417, Control_c, 0, 64, 92
1, 202426, Note_off_c, 0, 76, 62
1, 202432, Control_c, 0, 64, 82
1, 202447, Control_c, 0, 64, 73
1, 202453, Note_on_c, 0, 48, 51
1, 202456, Note_on_c, 0, 58, 51
1, 202459, Note_on_c, 0, 79, 80
1, 202462, Control_c, 0, 64, 65
1, 202469, Note_on_c, 0, 74, 58
1, 202471, Note_on_c, 0, 70, 53
1, 202472, Note_on_c, 0, 65, 56
1, 202477, Control_c, 0, 64, 58
1, 202489, Note_off_c, 0, 59, 38
1, 202492, Control_c, 0, 64, 46
1, 202507, Control_c, 0, 64, 0
1, 202759, Control_c, 0, 64, 67
1, 202774, Control_c, 0, 64, 75
1, 202788, Control_c, 0, 64, 83
1, 202803, Control_c, 0, 64, 88
1, 202818, Control_c, 0, 64, 92
1, 202833, Control_c, 0, 64, 95
1, 202848, Control_c, 0, 64, 97
1, 202870, Control_c, 0, 64, 99
1, 202871, Note_off_c, 0, 79, 60
1, 202885, Control_c, 0, 64, 101
1, 202900, Control_c, 0, 64, 101
1, 202914, Control_c, 0, 64, 102
1, 202972, Note_off_c, 0, 65, 63
1, 203006, Note_on_c, 0, 79, 68
1, 203024, Note_off_c, 0, 74, 63
1, 203040, Note_off_c, 0, 70, 63
1, 203040, Note_off_c, 0, 79, 60
1, 203044, Note_off_c, 0, 48, 36
1, 203152, Control_c, 0, 64, 100
1, 203167, Control_c, 0, 64, 93
1, 203182, Control_c, 0, 64, 83
1, 203197, Control_c, 0, 64, 71
1, 203200, Note_on_c, 0, 66, 53
1, 203201, Note_on_c, 0, 63, 55
1, 203201, Note_on_c, 0, 70, 47
1, 203202, Note_on_c, 0, 51, 42
1, 203202, Note_on_c, 0, 74, 52
1, 203211, Control_c, 0, 64, 56
1, 203226, Control_c, 0, 64, 0
1, 203248, Note_off_c, 0, 66, 0
1, 203248, Note_on_c, 0, 66, 15
1, 203330, Control_c, 0, 64, 59
1, 203345, Control_c, 0, 64, 69
1, 203359, Control_c, 0, 64, 78
1, 203374, Control_c, 0, 64, 84
1, 203377, Note_on_c, 0, 72, 63
1, 203389, Control_c, 0, 64, 88
1, 203395, Note_off_c, 0, 70, 53
1, 203404, Control_c, 0, 64, 89
1, 203419, Control_c, 0, 64, 91
1, 203429, Note_off_c, 0, 63, 59
1, 203434, Control_c, 0, 64, 92
1, 203449, Control_c, 0, 64, 94
1, 203458, Note_off_c, 0, 66, 48
1, 203464, Control_c, 0, 64, 95
1, 203478, Control_c, 0, 64, 95
1, 203493, Note_off_c, 0, 58, 62
1, 203493, Control_c, 0, 64, 96
1, 203516, Note_off_c, 0, 51, 33
1, 203522, Note_on_c, 0, 70, 63
1, 203522, Control_c, 0, 64, 96
1, 203552, Control_c, 0, 64, 97
1, 203619, Control_c, 0, 64, 97
1, 203670, Note_on_c, 0, 66, 65
1, 203713, Note_off_c, 0, 72, 36
1, 203783, Control_c, 0, 64, 95
1, 203798, Control_c, 0, 64, 90
1, 203813, Control_c, 0, 64, 81
1, 203827, Control_c, 0, 64, 71
1, 203833, Note_off_c, 0, 74, 37
1, 203842, Control_c, 0, 64, 55
1, 203842, Note_on_c, 0, 62, 58
1, 203843, Note_on_c, 0, 59, 45
1, 203857, Control_c, 0, 64, 0
1, 203866, Note_off_c, 0, 70, 58
1, 203875, Note_on_c, 0, 51, 31
1, 203885, Note_off_c, 0, 66, 64
1, 203946, Control_c, 0, 64, 53
1, 203960, Control_c, 0, 64, 65
1, 203975, Control_c, 0, 64, 70
1, 203990, Control_c, 0, 64, 74
1, 204005, Control_c, 0, 64, 77
1, 204020, Note_on_c, 0, 57, 44
1, 204020, Control_c, 0, 64, 80
1, 204034, Control_c, 0, 64, 83
1, 204049, Control_c, 0, 64, 84
1, 204064, Control_c, 0, 64, 86
1, 204079, Control_c, 0, 64, 87
1, 204094, Control_c, 0, 64, 87
1, 204138, Control_c, 0, 64, 86
1, 204140, Note_off_c, 0, 59, 31
1, 204152, Control_c, 0, 64, 82
1, 204167, Control_c, 0, 64, 75
1, 204182, Control_c, 0, 64, 64
1, 204193, Note_off_c, 0, 57, 39
1, 204194, Note_on_c, 0, 63, 50
1, 204197, Control_c, 0, 64, 0
1, 204223, Note_on_c, 0, 54, 32
1, 204260, Note_off_c, 0, 62, 58
1, 204316, Control_c, 0, 64, 55
1, 204331, Control_c, 0, 64, 67
1, 204346, Control_c, 0, 64, 72
1, 204367, Control_c, 0, 64, 76
1, 204382, Control_c, 0, 64, 80
1, 204387, Note_on_c, 0, 47, 46
1, 204397, Control_c, 0, 64, 82
1, 204412, Control_c, 0, 64, 84
1, 204427, Control_c, 0, 64, 86
1, 204433, Note_off_c, 0, 54, 52
1, 204441, Control_c, 0, 64, 88
1, 204447, Note_off_c, 0, 51, 32
1, 204450, Note_off_c, 0, 47, 61
1, 204456, Control_c, 0, 64, 89
1, 204471, Control_c, 0, 64, 90
1, 204486, Control_c, 0, 64, 92
1, 204501, Control_c, 0, 64, 93
1, 204516, Control_c, 0, 64, 93
1, 204531, Control_c, 0, 64, 94
1, 204620, Control_c, 0, 64, 93
1, 204635, Control_c, 0, 64, 89
1, 204650, Control_c, 0, 64, 81
1, 204664, Note_on_c, 0, 58, 60
1, 204665, Control_c, 0, 64, 70
1, 204671, Note_on_c, 0, 55, 51
1, 204676, Note_on_c, 0, 40, 51
1, 204680, Control_c, 0, 64, 54
1, 204684, Note_on_c, 0, 47, 50
1, 204685, Note_on_c, 0, 52, 44
1, 204695, Control_c, 0, 64, 0
1, 204733, Note_off_c, 0, 63, 39
1, 204857, Control_c, 0, 64, 49
1, 204872, Control_c, 0, 64, 68
1, 204887, Control_c, 0, 64, 77
1, 204901, Control_c, 0, 64, 85
1, 204916, Control_c, 0, 64, 89
1, 204931, Control_c, 0, 64, 92
1, 204946, Control_c, 0, 64, 96
1, 204959, Note_off_c, 0, 55, 56
1, 204961, Control_c, 0, 64, 100
1, 204975, Control_c, 0, 64, 106
1, 204990, Note_off_c, 0, 58, 61
1, 204990, Control_c, 0, 64, 110
1, 205005, Control_c, 0, 64, 115
1, 205020, Control_c, 0, 64, 121
1, 205035, Control_c, 0, 64, 127
1, 205085, Note_on_c, 0, 58, 73
1, 205090, Note_on_c, 0, 55, 56
1, 205105, Note_off_c, 0, 52, 62
1, 205249, Note_on_c, 0, 52, 71
1, 205277, Note_off_c, 0, 47, 36
1, 205336, Note_off_c, 0, 58, 55
1, 205347, Note_off_c, 0, 52, 63
1, 205350, Note_off_c, 0, 55, 47
1, 205413, Control_c, 0, 64, 121
1, 205416, Note_on_c, 0, 67, 88
1, 205424, Note_on_c, 0, 55, 73
1, 205427, Note_on_c, 0, 46, 72
1, 205428, Note_on_c, 0, 58, 75
1, 205428, Control_c, 0, 64, 109
1, 205443, Control_c, 0, 64, 101
1, 205458, Control_c, 0, 64, 97
1, 205503, Control_c, 0, 64, 98
1, 205518, Control_c, 0, 64, 106
1, 205532, Control_c, 0, 64, 127
1, 205562, Control_c, 0, 67, 121
1, 205577, Control_c, 0, 67, 113
1, 205592, Note_off_c, 0, 58, 61
1, 205592, Control_c, 0, 67, 104
1, 205592, Note_off_c, 0, 55, 58
1, 205606, Control_c, 0, 67, 95
1, 205621, Control_c, 0, 67, 87
1, 205636, Control_c, 0, 67, 83
1, 205651, Control_c, 0, 67, 81
1, 205666, Control_c, 0, 67, 80
1, 205673, Note_on_c, 0, 59, 76
1, 205680, Control_c, 0, 67, 78
1, 205682, Note_on_c, 0, 47, 77
1, 205694, Note_off_c, 0, 40, 63
1, 205695, Control_c, 0, 67, 77
1, 205696, Note_off_c, 0, 59, 68
1, 205708, Note_off_c, 0, 46, 62
1, 205710, Control_c, 0, 67, 76
1, 205714, Note_off_c, 0, 47, 69
1, 205718, Note_off_c, 0, 67, 60
1, 205739, Control_c, 0, 67, 77
1, 205801, Note_on_c, 0, 67, 83
1, 205939, Control_c, 0, 67, 77
1, 205951, Note_on_c, 0, 76, 101
1, 205954, Control_c, 0, 64, 105
1, 205954, Control_c, 0, 67, 78
1, 205956, Note_on_c, 0, 60, 88
1, 205958, Note_on_c, 0, 52, 81
1, 205961, Note_on_c, 0, 71, 75
1, 205969, Control_c, 0, 64, 87
1, 205984, Control_c, 0, 64, 72
1, 205993, Note_off_c, 0, 67, 60
1, 205999, Control_c, 0, 64, 55
1, 205999, Control_c, 0, 67, 77
1, 206013, Control_c, 0, 64, 0
1, 206028, Control_c, 0, 67, 76
1, 206043, Control_c, 0, 64, 64
1, 206043, Control_c, 0, 67, 75
1, 206058, Control_c, 0, 64, 73
1, 206058, Control_c, 0, 67, 75
1, 206073, Control_c, 0, 64, 83
1, 206073, Control_c, 0, 67, 74
1, 206087, Control_c, 0, 64, 95
1, 206087, Control_c, 0, 67, 73
1, 206102, Control_c, 0, 64, 104
1, 206102, Control_c, 0, 67, 71
1, 206117, Control_c, 0, 64, 112
1, 206117, Control_c, 0, 67, 66
1, 206133, Control_c, 0, 64, 118
1, 206133, Control_c, 0, 67, 58
1, 206148, Control_c, 0, 64, 127
1, 206148, Control_c, 0, 67, 47
1, 206155, Note_off_c, 0, 52, 65
1, 206162, Control_c, 0, 67, 35
1, 206177, Control_c, 0, 67, 21
1, 206186, Note_off_c, 0, 76, 66
1, 206192, Control_c, 0, 67, 0
1, 206245, Note_on_c, 0, 59, 87
1, 206252, Note_on_c, 0, 50, 84
1, 206281, Note_off_c, 0, 60, 58
1, 206393, Note_on_c, 0, 76, 99
1, 206421, Note_off_c, 0, 50, 62
1, 206424, Note_off_c, 0, 71, 60
1, 206533, Note_off_c, 0, 76, 64
1, 206757, Note_on_c, 0, 80, 94
1, 206762, Note_on_c, 0, 68, 91
1, 206762, Note_on_c, 0, 76, 87
1, 206762, Control_c, 0, 64, 118
1, 206765, Note_on_c, 0, 58, 75
1, 206766, Note_on_c, 0, 49, 74
1, 206777, Control_c, 0, 64, 96
1, 206792, Control_c, 0, 64, 79
1, 206807, Control_c, 0, 64, 62
1, 206808, Note_on_c, 0, 81, 38
1, 206822, Control_c, 0, 64, 0
1, 206828, Note_off_c, 0, 59, 53
1, 206873, Note_off_c, 0, 81, 51
1, 207075, Control_c, 0, 64, 72
1, 207090, Control_c, 0, 64, 85
1, 207105, Control_c, 0, 64, 90
1, 207115, Note_off_c, 0, 58, 64
1, 207120, Control_c, 0, 64, 93
1, 207134, Control_c, 0, 64, 100
1, 207137, Note_off_c, 0, 80, 59
1, 207149, Control_c, 0, 64, 110
1, 207156, Note_off_c, 0, 49, 61
1, 207164, Control_c, 0, 64, 114
1, 207178, Control_c, 0, 64, 115
1, 207193, Control_c, 0, 64, 117
1, 207208, Control_c, 0, 64, 120
1, 207223, Control_c, 0, 64, 127
1, 207238, Control_c, 0, 64, 127
1, 207268, Note_on_c, 0, 80, 79
1, 207306, Note_off_c, 0, 76, 62
1, 207315, Note_off_c, 0, 68, 62
1, 207321, Note_off_c, 0, 80, 62
1, 207367, Note_on_c, 0, 44, 65
1, 207414, Note_on_c, 0, 51, 68
1, 207452, Control_c, 0, 64, 117
1, 207467, Control_c, 0, 64, 97
1, 207482, Control_c, 0, 64, 84
1, 207487, Note_on_c, 0, 59, 64
1, 207489, Note_on_c, 0, 75, 76
1, 207492, Note_on_c, 0, 68, 64
1, 207497, Control_c, 0, 64, 71
1, 207501, Note_on_c, 0, 64, 59
1, 207512, Control_c, 0, 64, 55
1, 207527, Control_c, 0, 64, 0
1, 207586, Control_c, 0, 64, 28
1, 207601, Control_c, 0, 64, 57
1, 207616, Control_c, 0, 64, 67
1, 207631, Control_c, 0, 64, 77
1, 207646, Note_off_c, 0, 64, 65
1, 207646, Control_c, 0, 64, 90
1, 207648, Note_on_c, 0, 73, 76
1, 207660, Control_c, 0, 64, 103
1, 207675, Control_c, 0, 64, 108
1, 207677, Note_off_c, 0, 44, 64
1, 207690, Control_c, 0, 64, 109
1, 207704, Control_c, 0, 64, 110
1, 207715, Note_off_c, 0, 59, 60
1, 207718, Note_off_c, 0, 75, 60
1, 207718, Note_off_c, 0, 68, 63
1, 207719, Control_c, 0, 64, 112
1, 207735, Control_c, 0, 64, 114
1, 207750, Control_c, 0, 64, 115
1, 207750, Note_off_c, 0, 51, 63
1, 207765, Control_c, 0, 64, 119
1, 207780, Control_c, 0, 64, 125
1, 207786, Note_on_c, 0, 71, 71
1, 207789, Note_on_c, 0, 63, 72
1, 207795, Control_c, 0, 64, 127
1, 207870, Note_off_c, 0, 73, 51
1, 207891, Note_off_c, 0, 63, 48
1, 207927, Note_on_c, 0, 68, 79
1, 208069, Note_on_c, 0, 61, 68
1, 208075, Note_on_c, 0, 62, 76
1, 208127, Control_c, 0, 64, 123
1, 208142, Control_c, 0, 64, 112
1, 208143, Note_off_c, 0, 68, 63
1, 208143, Note_off_c, 0, 71, 58
1, 208157, Control_c, 0, 64, 107
1, 208172, Control_c, 0, 64, 106
1, 208206, Note_on_c, 0, 59, 61
1, 208231, Control_c, 0, 64, 107
1, 208246, Control_c, 0, 64, 109
1, 208261, Control_c, 0, 64, 111
1, 208275, Control_c, 0, 64, 113
1, 208290, Control_c, 0, 64, 115
1, 208305, Control_c, 0, 64, 115
1, 208335, Control_c, 0, 64, 114
1, 208346, Note_off_c, 0, 61, 49
1, 208349, Control_c, 0, 64, 109
1, 208364, Control_c, 0, 64, 101
1, 208369, Note_on_c, 0, 63, 80
1, 208370, Note_on_c, 0, 56, 66
1, 208379, Control_c, 0, 64, 90
1, 208394, Control_c, 0, 64, 80
1, 208399, Note_off_c, 0, 59, 55
1, 208408, Control_c, 0, 64, 70
1, 208423, Control_c, 0, 64, 63
1, 208429, Note_off_c, 0, 62, 61
1, 208438, Control_c, 0, 64, 63
1, 208453, Control_c, 0, 64, 66
1, 208468, Control_c, 0, 64, 71
1, 208482, Control_c, 0, 64, 78
1, 208496, Note_on_c, 0, 51, 68
1, 208497, Control_c, 0, 64, 87
1, 208512, Control_c, 0, 64, 96
1, 208528, Control_c, 0, 64, 102
1, 208542, Note_off_c, 0, 56, 61
1, 208542, Note_off_c, 0, 63, 60
1, 208543, Control_c, 0, 64, 104
1, 208557, Control_c, 0, 64, 105
1, 208572, Control_c, 0, 64, 108
1, 208587, Control_c, 0, 64, 110
1, 208602, Control_c, 0, 64, 112
1, 208617, Control_c, 0, 64, 113
1, 208631, Control_c, 0, 64, 113
1, 208676, Control_c, 0, 64, 113
1, 208691, Control_c, 0, 64, 104
1, 208693, Note_off_c, 0, 51, 53
1, 208705, Control_c, 0, 64, 90
1, 208706, Note_on_c, 0, 55, 62
1, 208715, Note_on_c, 0, 70, 83
1, 208720, Control_c, 0, 64, 71
1, 208722, Note_on_c, 0, 63, 67
1, 208723, Note_on_c, 0, 59, 66
1, 208735, Control_c, 0, 64, 11
1, 208749, Control_c, 0, 64, 0
1, 208861, Control_c, 0, 64, 68
1, 208876, Note_on_c, 0, 68, 85
1, 208876, Control_c, 0, 64, 79
1, 208891, Control_c, 0, 64, 88
1, 208905, Control_c, 0, 64, 92
1, 208920, Control_c, 0, 64, 93
1, 208927, Note_off_c, 0, 59, 62
1, 208927, Note_off_c, 0, 63, 64
1, 208935, Control_c, 0, 64, 94
1, 208949, Control_c, 0, 64, 96
1, 208964, Control_c, 0, 64, 98
1, 208979, Control_c, 0, 64, 99
1, 208994, Control_c, 0, 64, 100
1, 209006, Note_on_c, 0, 63, 87
1, 209009, Note_on_c, 0, 54, 76
1, 209009, Note_off_c, 0, 70, 35
1, 209009, Control_c, 0, 64, 101
1, 209023, Control_c, 0, 64, 103
1, 209038, Control_c, 0, 64, 107
1, 209041, Note_off_c, 0, 55, 63
1, 209053, Control_c, 0, 64, 113
1, 209068, Control_c, 0, 64, 119
1, 209083, Control_c, 0, 64, 127
1, 209115, Note_on_c, 0, 59, 86
1, 209116, Note_off_c, 0, 54, 58
1, 209130, Note_off_c, 0, 63, 62
1, 209160, Note_off_c, 0, 59, 63
1, 209195, Note_off_c, 0, 68, 64
1, 209231, Control_c, 0, 64, 98
1, 209244, Note_on_c, 0, 73, 96
1, 209246, Control_c, 0, 64, 78
1, 209247, Note_on_c, 0, 58, 82
1, 209253, Note_on_c, 0, 62, 80
1, 209254, Note_on_c, 0, 53, 73
1, 209255, Note_on_c, 0, 66, 81
1, 209261, Control_c, 0, 64, 58
1, 209275, Control_c, 0, 64, 0
1, 209336, Control_c, 0, 64, 67
1, 209351, Control_c, 0, 64, 79
1, 209360, Note_on_c, 0, 71, 83
1, 209366, Control_c, 0, 64, 91
1, 209380, Control_c, 0, 64, 102
1, 209384, Note_off_c, 0, 66, 65
1, 209395, Control_c, 0, 64, 106
1, 209405, Note_off_c, 0, 73, 60
1, 209408, Note_off_c, 0, 62, 60
1, 209410, Control_c, 0, 64, 109
1, 209425, Control_c, 0, 64, 109
1, 209440, Control_c, 0, 64, 110
1, 209469, Note_off_c, 0, 53, 43
1, 209472, Note_off_c, 0, 58, 62
1, 209488, Note_on_c, 0, 59, 86
1, 209490, Note_on_c, 0, 66, 89
1, 209492, Note_on_c, 0, 52, 69
1, 209528, Note_off_c, 0, 52, 67
1, 209563, Note_off_c, 0, 66, 64
1, 209572, Control_c, 0, 64, 110
1, 209578, Poly_aftertouch_c, 0, 62, 0
1, 209587, Control_c, 0, 64, 112
1, 209590, Note_on_c, 0, 62, 53
1, 209608, Note_off_c, 0, 59, 39
1, 209610, Control_c, 0, 64, 117
1, 209616, Note_on_c, 0, 66, 53
1, 209625, Control_c, 0, 64, 123
1, 209640, Control_c, 0, 64, 127
1, 209644, Note_off_c, 0, 66, 55
1, 209644, Note_off_c, 0, 62, 60
1, 209657, Note_off_c, 0, 71, 62
1, 209684, Control_c, 0, 64, 117
1, 209698, Control_c, 0, 64, 98
1, 209713, Control_c, 0, 64, 80
1, 209726, Note_on_c, 0, 61, 85
1, 209728, Note_on_c, 0, 78, 96
1, 209728, Control_c, 0, 64, 60
1, 209730, Note_on_c, 0, 51, 75
1, 209734, Note_on_c, 0, 67, 79
1, 209735, Note_on_c, 0, 71, 81
1, 209743, Control_c, 0, 64, 0
1, 209787, Control_c, 0, 64, 40
1, 209802, Control_c, 0, 64, 70
1, 209817, Control_c, 0, 64, 82
1, 209827, Note_off_c, 0, 78, 58
1, 209832, Control_c, 0, 64, 97
1, 209846, Control_c, 0, 64, 112
1, 209850, Note_on_c, 0, 76, 88
1, 209861, Control_c, 0, 64, 122
1, 209867, Note_off_c, 0, 71, 63
1, 209873, Note_off_c, 0, 67, 59
1, 209876, Control_c, 0, 64, 127
1, 209890, Note_off_c, 0, 51, 60
1, 209897, Note_off_c, 0, 76, 67
1, 209935, Note_off_c, 0, 61, 61
1, 209965, Control_c, 0, 64, 109
1, 209980, Control_c, 0, 64, 90
1, 209995, Note_on_c, 0, 62, 83
1, 209995, Control_c, 0, 64, 71
1, 209995, Note_on_c, 0, 71, 95
1, 209999, Note_on_c, 0, 64, 91
1, 210001, Note_on_c, 0, 50, 80
1, 210005, Note_on_c, 0, 67, 72
1, 210010, Control_c, 0, 64, 0
1, 210030, Note_off_c, 0, 67, 61
1, 210069, Control_c, 0, 64, 64
1, 210084, Control_c, 0, 64, 75
1, 210098, Control_c, 0, 64, 86
1, 210114, Control_c, 0, 64, 93
1, 210114, Note_off_c, 0, 62, 61
1, 210129, Control_c, 0, 64, 95
1, 210144, Control_c, 0, 64, 98
1, 210159, Control_c, 0, 64, 102
1, 210159, Note_on_c, 0, 67, 99
1, 210170, Note_off_c, 0, 50, 60
1, 210174, Control_c, 0, 64, 108
1, 210184, Note_off_c, 0, 64, 63
1, 210184, Note_off_c, 0, 71, 62
1, 210188, Control_c, 0, 64, 114
1, 210203, Control_c, 0, 64, 117
1, 210218, Control_c, 0, 64, 119
1, 210223, Note_off_c, 0, 67, 63
1, 210233, Control_c, 0, 64, 125
1, 210248, Control_c, 0, 64, 127
1, 210402, Note_on_c, 0, 64, 84
1, 210403, Control_c, 0, 64, 114
1, 210413, Note_on_c, 0, 49, 77
1, 210413, Note_on_c, 0, 58, 85
1, 210415, Note_on_c, 0, 55, 79
1, 210418, Control_c, 0, 64, 91
1, 210433, Control_c, 0, 64, 71
1, 210448, Control_c, 0, 64, 0
1, 210551, Control_c, 0, 64, 61
1, 210566, Control_c, 0, 64, 66
1, 210581, Control_c, 0, 64, 70
1, 210595, Control_c, 0, 64, 76
1, 210611, Control_c, 0, 64, 84
1, 210626, Control_c, 0, 64, 92
1, 210631, Note_off_c, 0, 55, 62
1, 210641, Control_c, 0, 64, 95
1, 210656, Control_c, 0, 64, 96
1, 210670, Control_c, 0, 64, 97
1, 210685, Control_c, 0, 64, 99
1, 210697, Note_off_c, 0, 58, 55
1, 210700, Control_c, 0, 64, 101
1, 210715, Control_c, 0, 64, 103
1, 210729, Control_c, 0, 64, 103
1, 210734, Note_off_c, 0, 49, 61
1, 210744, Control_c, 0, 64, 104
1, 210759, Control_c, 0, 64, 106
1, 210764, Note_on_c, 0, 65, 91
1, 210767, Note_off_c, 0, 64, 56
1, 210774, Control_c, 0, 64, 110
1, 210789, Control_c, 0, 64, 117
1, 210803, Control_c, 0, 64, 123
1, 210818, Control_c, 0, 64, 127
1, 210982, Control_c, 0, 64, 100
1, 210997, Control_c, 0, 64, 76
1, 211012, Control_c, 0, 64, 0
1, 211014, Note_on_c, 0, 52, 72
1, 211015, Note_on_c, 0, 48, 74
1, 211018, Note_on_c, 0, 41, 74
1, 211022, Note_on_c, 0, 63, 85
1, 211026, Note_on_c, 0, 57, 78
1, 211029, Note_off_c, 0, 65, 64
1, 211056, Control_c, 0, 64, 68
1, 211064, Note_off_c, 0, 57, 62
1, 211071, Control_c, 0, 64, 83
1, 211086, Control_c, 0, 64, 103
1, 211101, Note_off_c, 0, 63, 66
1, 211108, Control_c, 0, 64, 122
1, 211117, Note_off_c, 0, 52, 62
1, 211123, Control_c, 0, 64, 123
1, 211126, Note_on_c, 0, 72, 76
1, 211138, Control_c, 0, 64, 124
1, 211152, Note_on_c, 0, 74, 40
1, 211153, Note_off_c, 0, 74, 127
1, 211153, Control_c, 0, 64, 127
1, 211182, Note_off_c, 0, 72, 57
1, 211220, Note_on_c, 0, 66, 85
1, 211290, Note_on_c, 0, 53, 88
1, 211307, Note_on_c, 0, 69, 84
1, 211329, Note_off_c, 0, 66, 64
1, 211404, Note_on_c, 0, 76, 86
1, 211413, Note_off_c, 0, 41, 64
1, 211413, Note_off_c, 0, 69, 67
1, 211422, Note_off_c, 0, 48, 65
1, 211470, Note_off_c, 0, 53, 67
1, 211490, Note_on_c, 0, 75, 96
1, 211497, Note_off_c, 0, 76, 66
1, 211542, Note_off_c, 0, 75, 65
1, 211612, Control_c, 0, 64, 110
1, 211626, Control_c, 0, 64, 88
1, 211637, Note_on_c, 0, 78, 95
1, 211637, Note_on_c, 0, 85, 100
1, 211640, Note_on_c, 0, 73, 87
1, 211641, Control_c, 0, 64, 68
1, 211656, Control_c, 0, 64, 0
1, 211760, Note_on_c, 0, 60, 61
1, 211775, Control_c, 0, 64, 55
1, 211790, Control_c, 0, 64, 68
1, 211805, Control_c, 0, 64, 78
1, 211820, Control_c, 0, 64, 90
1, 211821, Note_off_c, 0, 60, 61
1, 211835, Control_c, 0, 64, 100
1, 211857, Note_on_c, 0, 54, 63
1, 211857, Control_c, 0, 64, 105
1, 211862, Note_off_c, 0, 73, 60
1, 211872, Control_c, 0, 64, 106
1, 211887, Control_c, 0, 64, 106
1, 211902, Control_c, 0, 64, 107
1, 211917, Control_c, 0, 64, 109
1, 211921, Note_off_c, 0, 85, 64
1, 211931, Control_c, 0, 64, 110
1, 211973, Note_on_c, 0, 57, 70
1, 211980, Note_on_c, 0, 84, 89
1, 211982, Note_on_c, 0, 72, 76
1, 212035, Control_c, 0, 64, 110
1, 212061, Note_off_c, 0, 57, 61
1, 212084, Note_on_c, 0, 64, 71
1, 212099, Note_off_c, 0, 84, 62
1, 212129, Note_off_c, 0, 72, 63
1, 212139, Note_off_c, 0, 54, 59
1, 212170, Note_off_c, 0, 78, 63
1, 212212, Note_on_c, 0, 63, 69
1, 212219, Note_off_c, 0, 64, 60
1, 212286, Control_c, 0, 64, 110
1, 212315, Control_c, 0, 64, 108
1, 212330, Control_c, 0, 64, 101
1, 212345, Control_c, 0, 64, 88
1, 212360, Control_c, 0, 64, 76
1, 212362, Note_on_c, 0, 82, 84
1, 212367, Note_off_c, 0, 63, 59
1, 212368, Note_on_c, 0, 61, 59
1, 212370, Note_on_c, 0, 77, 67
1, 212371, Note_on_c, 0, 70, 70
1, 212374, Control_c, 0, 64, 63
1, 212389, Control_c, 0, 64, 0
1, 212553, Control_c, 0, 64, 63
1, 212568, Control_c, 0, 64, 72
1, 212583, Control_c, 0, 64, 82
1, 212605, Control_c, 0, 64, 91
1, 212620, Control_c, 0, 64, 95
1, 212635, Control_c, 0, 64, 96
1, 212650, Control_c, 0, 64, 97
1, 212657, Note_off_c, 0, 82, 62
1, 212665, Control_c, 0, 64, 99
1, 212679, Control_c, 0, 64, 100
1, 212690, Note_off_c, 0, 70, 62
1, 212694, Control_c, 0, 64, 101
1, 212695, Note_on_c, 0, 60, 59
1, 212695, Note_off_c, 0, 61, 62
1, 212709, Control_c, 0, 64, 102
1, 212723, Control_c, 0, 64, 103
1, 212738, Control_c, 0, 64, 105
1, 212753, Control_c, 0, 64, 106
1, 212768, Control_c, 0, 64, 108
1, 212783, Control_c, 0, 64, 109
1, 212797, Control_c, 0, 64, 109
1, 212812, Control_c, 0, 64, 111
1, 212821, Note_on_c, 0, 80, 73
1, 212826, Note_on_c, 0, 68, 61
1, 212827, Control_c, 0, 64, 112
1, 212842, Control_c, 0, 64, 113
1, 212857, Control_c, 0, 64, 115
1, 212871, Control_c, 0, 64, 115
1, 212893, Note_off_c, 0, 68, 62
1, 212895, Note_off_c, 0, 77, 56
1, 212961, Control_c, 0, 64, 112
1, 212976, Control_c, 0, 64, 102
1, 212990, Control_c, 0, 64, 89
1, 212996, Note_off_c, 0, 60, 57
1, 213005, Note_on_c, 0, 78, 76
1, 213005, Control_c, 0, 64, 75
1, 213012, Note_on_c, 0, 58, 48
1, 213012, Note_on_c, 0, 73, 55
1, 213015, Note_on_c, 0, 66, 58
1, 213018, Note_off_c, 0, 80, 59
1, 213020, Control_c, 0, 64, 59
1, 213035, Control_c, 0, 64, 0
1, 213153, Control_c, 0, 64, 56
1, 213168, Control_c, 0, 64, 65
1, 213183, Control_c, 0, 64, 71
1, 213197, Control_c, 0, 64, 77
1, 213212, Control_c, 0, 64, 85
1, 213227, Control_c, 0, 64, 90
1, 213241, Control_c, 0, 64, 91
1, 213256, Control_c, 0, 64, 92
1, 213271, Control_c, 0, 64, 93
1, 213301, Control_c, 0, 64, 92
1, 213316, Note_off_c, 0, 78, 63
1, 213317, Control_c, 0, 64, 90
1, 213325, Note_off_c, 0, 66, 61
1, 213328, Note_on_c, 0, 56, 55
1, 213332, Control_c, 0, 64, 85
1, 213354, Control_c, 0, 64, 80
1, 213369, Control_c, 0, 64, 75
1, 213384, Control_c, 0, 64, 74
1, 213399, Control_c, 0, 64, 75
1, 213402, Note_off_c, 0, 58, 32
1, 213414, Control_c, 0, 64, 79
1, 213428, Control_c, 0, 64, 82
1, 213443, Control_c, 0, 64, 85
1, 213451, Note_off_c, 0, 56, 63
1, 213458, Control_c, 0, 64, 85
1, 213468, Note_on_c, 0, 77, 64
1, 213471, Note_off_c, 0, 73, 63
1, 213473, Note_on_c, 0, 65, 57
1, 213473, Control_c, 0, 64, 86
1, 213488, Control_c, 0, 64, 86
1, 213502, Control_c, 0, 64, 88
1, 213517, Control_c, 0, 64, 90
1, 213522, Note_off_c, 0, 65, 56
1, 213532, Control_c, 0, 64, 90
1, 213546, Control_c, 0, 64, 91
1, 213561, Control_c, 0, 64, 91
1, 213591, Control_c, 0, 64, 92
1, 213651, Control_c, 0, 64, 90
1, 213666, Control_c, 0, 64, 85
1, 213681, Control_c, 0, 64, 76
1, 213692, Note_on_c, 0, 80, 71
1, 213695, Control_c, 0, 64, 64
1, 213702, Note_on_c, 0, 68, 49
1, 213706, Note_off_c, 0, 77, 52
1, 213710, Control_c, 0, 64, 18
1, 213712, Note_on_c, 0, 60, 44
1, 213714, Note_on_c, 0, 55, 41
1, 213717, Note_on_c, 0, 64, 40
1, 213721, Note_on_c, 0, 71, 51
1, 213725, Control_c, 0, 64, 0
1, 213873, Control_c, 0, 64, 64
1, 213888, Control_c, 0, 64, 72
1, 213901, Note_off_c, 0, 71, 62
1, 213903, Control_c, 0, 64, 79
1, 213918, Control_c, 0, 64, 83
1, 213923, Note_off_c, 0, 68, 64
1, 213933, Control_c, 0, 64, 85
1, 213947, Control_c, 0, 64, 86
1, 213962, Control_c, 0, 64, 87
1, 213977, Control_c, 0, 64, 89
1, 213992, Control_c, 0, 64, 91
1, 214007, Control_c, 0, 64, 92
1, 214080, Control_c, 0, 64, 89
1, 214103, Control_c, 0, 64, 81
1, 214118, Control_c, 0, 64, 69
1, 214119, Note_on_c, 0, 70, 49
1, 214132, Note_on_c, 0, 67, 42
1, 214133, Control_c, 0, 64, 48
1, 214148, Control_c, 0, 64, 0
1, 214207, Control_c, 0, 64, 63
1, 214222, Control_c, 0, 64, 72
1, 214223, Note_off_c, 0, 55, 63
1, 214237, Control_c, 0, 64, 81
1, 214238, Note_off_c, 0, 64, 64
1, 214252, Control_c, 0, 64, 89
1, 214267, Control_c, 0, 64, 94
1, 214270, Note_off_c, 0, 60, 63
1, 214278, Note_off_c, 0, 67, 57
1, 214281, Control_c, 0, 64, 97
1, 214296, Control_c, 0, 64, 98
1, 214311, Control_c, 0, 64, 101
1, 214326, Control_c, 0, 64, 103
1, 214341, Control_c, 0, 64, 104
1, 214354, Control_c, 0, 64, 105
1, 214383, Control_c, 0, 64, 105
1, 214385, Note_off_c, 0, 70, 62
1, 214398, Control_c, 0, 64, 106
1, 214487, Control_c, 0, 64, 104
1, 214502, Control_c, 0, 64, 95
1, 214517, Control_c, 0, 64, 83
1, 214529, Note_on_c, 0, 67, 72
1, 214532, Control_c, 0, 64, 69
1, 214540, Note_on_c, 0, 71, 52
1, 214547, Note_on_c, 0, 60, 53
1, 214547, Control_c, 0, 64, 20
1, 214557, Note_on_c, 0, 56, 48
1, 214561, Control_c, 0, 64, 0
1, 214724, Control_c, 0, 64, 66
1, 214739, Control_c, 0, 64, 76
1, 214754, Control_c, 0, 64, 81
1, 214768, Control_c, 0, 64, 84
1, 214783, Control_c, 0, 64, 87
1, 214798, Control_c, 0, 64, 92
1, 214813, Control_c, 0, 64, 98
1, 214828, Control_c, 0, 64, 101
1, 214850, Control_c, 0, 64, 102
1, 214865, Control_c, 0, 64, 102
1, 214880, Control_c, 0, 64, 104
1, 214894, Control_c, 0, 64, 106
1, 214902, Note_off_c, 0, 67, 61
1, 214907, Note_on_c, 0, 72, 68
1, 214909, Control_c, 0, 64, 107
1, 214925, Control_c, 0, 64, 108
1, 214948, Note_off_c, 0, 71, 52
1, 214955, Control_c, 0, 64, 109
1, 214999, Control_c, 0, 64, 109
1, 215009, Note_off_c, 0, 60, 56
1, 215044, Note_on_c, 0, 66, 74
1, 215078, Note_off_c, 0, 56, 52
1, 215088, Control_c, 0, 64, 110
1, 215103, Control_c, 0, 64, 110
1, 215117, Control_c, 0, 64, 111
1, 215132, Control_c, 0, 64, 112
1, 215147, Control_c, 0, 64, 112
1, 215162, Control_c, 0, 64, 113
1, 215172, Note_off_c, 0, 66, 64
1, 215206, Control_c, 0, 64, 112
1, 215221, Control_c, 0, 64, 105
1, 215236, Control_c, 0, 64, 94
1, 215251, Control_c, 0, 64, 81
1, 215255, Note_on_c, 0, 66, 81
1, 215265, Control_c, 0, 64, 69
1, 215268, Note_on_c, 0, 59, 66
1, 215270, Note_on_c, 0, 55, 60
1, 215280, Control_c, 0, 64, 50
1, 215295, Control_c, 0, 64, 0
1, 215354, Note_off_c, 0, 80, 62
1, 215358, Note_on_c, 0, 77, 71
1, 215369, Control_c, 0, 64, 62
1, 215384, Control_c, 0, 64, 71
1, 215394, Note_off_c, 0, 72, 63
1, 215399, Control_c, 0, 64, 81
1, 215414, Control_c, 0, 64, 92
1, 215429, Control_c, 0, 64, 98
1, 215444, Control_c, 0, 64, 101
1, 215458, Control_c, 0, 64, 104
1, 215472, Note_on_c, 0, 73, 87
1, 215473, Control_c, 0, 64, 107
1, 215488, Control_c, 0, 64, 108
1, 215489, Note_off_c, 0, 77, 61
1, 215502, Note_off_c, 0, 66, 60
1, 215503, Control_c, 0, 64, 109
1, 215517, Control_c, 0, 64, 110
1, 215532, Control_c, 0, 64, 110
1, 215548, Note_off_c, 0, 73, 65
1, 215560, Note_on_c, 0, 74, 83
1, 215563, Note_on_c, 0, 65, 92
1, 215622, Note_off_c, 0, 59, 61
1, 215668, Note_on_c, 0, 81, 89
1, 215682, Note_off_c, 0, 55, 64
1, 215682, Note_off_c, 0, 74, 63
1, 215718, Control_c, 0, 64, 111
1, 215733, Control_c, 0, 64, 112
1, 215748, Control_c, 0, 64, 115
1, 215756, Note_off_c, 0, 65, 61
1, 215760, Note_on_c, 0, 80, 88
1, 215763, Control_c, 0, 64, 119
1, 215766, Note_off_c, 0, 81, 57
1, 215778, Control_c, 0, 64, 123
1, 215793, Control_c, 0, 64, 126
1, 215813, Note_off_c, 0, 80, 65
1, 215822, Control_c, 0, 64, 125
1, 215837, Control_c, 0, 64, 112
1, 215852, Control_c, 0, 64, 93
1, 215855, Note_on_c, 0, 58, 64
1, 215855, Note_on_c, 0, 65, 104
1, 215858, Note_on_c, 0, 87, 97
1, 215861, Note_on_c, 0, 82, 95
1, 215862, Note_on_c, 0, 75, 97
1, 215864, Note_on_c, 0, 54, 84
1, 215867, Control_c, 0, 64, 72
1, 215882, Control_c, 0, 64, 0
1, 215955, Control_c, 0, 64, 68
1, 215970, Control_c, 0, 64, 81
1, 215985, Control_c, 0, 64, 98
1, 216000, Control_c, 0, 64, 107
1, 216014, Control_c, 0, 64, 109
1, 216029, Control_c, 0, 64, 111
1, 216044, Control_c, 0, 64, 113
1, 216059, Control_c, 0, 64, 114
1, 216072, Note_off_c, 0, 75, 63
1, 216074, Control_c, 0, 64, 114
1, 216088, Note_off_c, 0, 87, 61
1, 216088, Control_c, 0, 64, 115
1, 216148, Control_c, 0, 64, 115
1, 216156, Note_off_c, 0, 65, 60
1, 216156, Note_on_c, 0, 86, 97
1, 216161, Note_on_c, 0, 74, 92
1, 216177, Control_c, 0, 64, 116
1, 216192, Control_c, 0, 64, 116
1, 216207, Control_c, 0, 64, 117
1, 216222, Control_c, 0, 64, 118
1, 216237, Control_c, 0, 64, 120
1, 216248, Note_off_c, 0, 74, 62
1, 216252, Control_c, 0, 64, 122
1, 216255, Note_off_c, 0, 86, 61
1, 216266, Control_c, 0, 64, 123
1, 216281, Control_c, 0, 64, 124
1, 216294, Note_on_c, 0, 64, 92
1, 216296, Control_c, 0, 64, 125
1, 216323, Note_off_c, 0, 82, 63
1, 216347, Control_c, 0, 64, 125
1, 216362, Control_c, 0, 64, 126
1, 216377, Control_c, 0, 64, 127
1, 216406, Note_off_c, 0, 58, 60
1, 216419, Note_off_c, 0, 54, 57
1, 216424, Note_off_c, 0, 64, 65
1, 216541, Control_c, 0, 64, 114
1, 216556, Note_on_c, 0, 53, 77
1, 216556, Control_c, 0, 64, 95
1, 216557, Note_on_c, 0, 90, 97
1, 216562, Note_on_c, 0, 78, 94
1, 216562, Note_on_c, 0, 81, 85
1, 216563, Note_on_c, 0, 63, 92
1, 216565, Note_on_c, 0, 57, 76
1, 216571, Control_c, 0, 64, 78
1, 216586, Control_c, 0, 64, 60
1, 216601, Control_c, 0, 64, 0
1, 216690, Control_c, 0, 64, 52
1, 216705, Control_c, 0, 64, 76
1, 216720, Control_c, 0, 64, 93
1, 216731, Note_off_c, 0, 90, 66
1, 216735, Control_c, 0, 64, 110
1, 216750, Control_c, 0, 64, 114
1, 216764, Control_c, 0, 64, 115
1, 216773, Note_off_c, 0, 81, 62
1, 216776, Note_off_c, 0, 78, 61
1, 216779, Control_c, 0, 64, 119
1, 216794, Control_c, 0, 64, 121
1, 216809, Control_c, 0, 64, 122
1, 216946, Note_on_c, 0, 81, 78
1, 216949, Note_on_c, 0, 69, 77
1, 216952, Note_on_c, 0, 78, 70
1, 216958, Note_off_c, 0, 63, 58
1, 217099, Note_on_c, 0, 62, 77
1, 217109, Note_off_c, 0, 69, 65
1, 217150, Note_off_c, 0, 62, 62
1, 217240, Note_on_c, 0, 62, 87
1, 217242, Note_off_c, 0, 81, 57
1, 217352, Note_off_c, 0, 78, 66
1, 217516, Note_on_c, 0, 61, 93
1, 217544, Note_off_c, 0, 62, 62
1, 217735, Control_c, 0, 64, 119
1, 217750, Control_c, 0, 64, 100
1, 217755, Note_off_c, 0, 53, 26
1, 217763, Note_on_c, 0, 87, 97
1, 217764, Note_on_c, 0, 82, 97
1, 217765, Note_on_c, 0, 60, 91
1, 217765, Note_off_c, 0, 57, 60
1, 217765, Control_c, 0, 64, 77
1, 217769, Note_on_c, 0, 75, 97
1, 217770, Note_off_c, 0, 61, 61
1, 217780, Control_c, 0, 64, 0
1, 217862, Control_c, 0, 64, 43
1, 217876, Control_c, 0, 64, 73
1, 217891, Control_c, 0, 64, 90
1, 217906, Control_c, 0, 64, 119
1, 217920, Control_c, 0, 64, 127
1, 217977, Note_off_c, 0, 75, 63
1, 217991, Note_off_c, 0, 87, 61
1, 218055, Note_on_c, 0, 74, 100
1, 218055, Note_on_c, 0, 86, 97
1, 218141, Note_off_c, 0, 74, 61
1, 218149, Note_off_c, 0, 86, 62
1, 218191, Note_on_c, 0, 58, 83
1, 218198, Note_off_c, 0, 82, 63
1, 218273, Note_off_c, 0, 60, 22
1, 218359, Note_off_c, 0, 58, 61
1, 218380, Control_c, 0, 64, 114
1, 218395, Control_c, 0, 64, 94
1, 218402, Note_on_c, 0, 90, 98
1, 218404, Note_on_c, 0, 83, 88
1, 218406, Note_on_c, 0, 78, 93
1, 218410, Note_on_c, 0, 80, 86
1, 218410, Control_c, 0, 64, 76
1, 218410, Note_on_c, 0, 62, 85
1, 218413, Note_on_c, 0, 56, 77
1, 218422, Note_on_c, 0, 52, 72
1, 218425, Control_c, 0, 64, 39
1, 218440, Control_c, 0, 64, 0
1, 218543, Control_c, 0, 64, 65
1, 218558, Control_c, 0, 64, 82
1, 218573, Control_c, 0, 64, 97
1, 218586, Note_off_c, 0, 90, 63
1, 218595, Control_c, 0, 64, 106
1, 218601, Note_off_c, 0, 83, 62
1, 218610, Control_c, 0, 64, 107
1, 218625, Control_c, 0, 64, 108
1, 218628, Note_off_c, 0, 78, 62
1, 218637, Note_off_c, 0, 80, 64
1, 218640, Control_c, 0, 64, 110
1, 218654, Control_c, 0, 64, 111
1, 218669, Control_c, 0, 64, 111
1, 218714, Control_c, 0, 64, 112
1, 218750, Note_off_c, 0, 62, 59
1, 218753, Note_on_c, 0, 80, 81
1, 218760, Note_on_c, 0, 68, 76
1, 218852, Note_off_c, 0, 68, 63
1, 218871, Note_on_c, 0, 61, 75
1, 218920, Note_off_c, 0, 61, 61
1, 219009, Note_on_c, 0, 61, 92
1, 219042, Note_off_c, 0, 56, 65
1, 219057, Note_off_c, 0, 52, 65
1, 219158, Control_c, 0, 64, 113
1, 219173, Control_c, 0, 64, 114
1, 219188, Control_c, 0, 64, 115
1, 219203, Control_c, 0, 64, 116
1, 219218, Control_c, 0, 64, 116
1, 219232, Control_c, 0, 64, 117
1, 219247, Control_c, 0, 64, 119
1, 219252, Note_on_c, 0, 60, 95
1, 219262, Control_c, 0, 64, 123
1, 219276, Control_c, 0, 64, 126
1, 219282, Note_off_c, 0, 61, 61
1, 219291, Control_c, 0, 64, 127
1, 219450, Note_off_c, 0, 80, 62
1, 219473, Note_off_c, 0, 60, 59
1, 219477, Control_c, 0, 64, 102
1, 219487, Note_on_c, 0, 87, 103
1, 219489, Note_on_c, 0, 59, 91
1, 219490, Note_on_c, 0, 79, 91
1, 219492, Note_on_c, 0, 75, 96
1, 219492, Control_c, 0, 64, 76
1, 219507, Control_c, 0, 64, 0
1, 219540, Note_on_c, 0, 85, 18
1, 219552, Note_off_c, 0, 85, 41
1, 219566, Control_c, 0, 64, 63
1, 219581, Control_c, 0, 64, 79
1, 219596, Control_c, 0, 64, 98
1, 219611, Control_c, 0, 64, 123
1, 219626, Control_c, 0, 64, 127
1, 219674, Note_off_c, 0, 75, 62
1, 219689, Note_off_c, 0, 87, 60
1, 219754, Note_on_c, 0, 74, 98
1, 219755, Note_on_c, 0, 86, 100
1, 219784, Note_off_c, 0, 79, 64
1, 219838, Note_off_c, 0, 74, 60
1, 219848, Note_off_c, 0, 59, 59
1, 219859, Note_off_c, 0, 86, 62
1, 219870, Note_on_c, 0, 60, 96
1, 220017, Note_off_c, 0, 60, 56
1, 220070, Control_c, 0, 64, 120
1, 220089, Note_on_c, 0, 90, 102
1, 220091, Note_on_c, 0, 78, 101
1, 220091, Note_on_c, 0, 85, 96
1, 220093, Control_c, 0, 64, 85
1, 220094, Note_on_c, 0, 80, 97
1, 220097, Note_on_c, 0, 61, 103
1, 220101, Note_on_c, 0, 56, 90
1, 220106, Note_on_c, 0, 51, 90
1, 220107, Control_c, 0, 64, 0
1, 220167, Control_c, 0, 64, 23
1, 220181, Control_c, 0, 64, 76
1, 220196, Control_c, 0, 64, 108
1, 220211, Control_c, 0, 64, 127
1, 220241, Note_off_c, 0, 51, 61
1, 220241, Note_off_c, 0, 80, 62
1, 220249, Note_off_c, 0, 85, 64
1, 220258, Note_off_c, 0, 90, 63
1, 220264, Note_off_c, 0, 78, 65
1, 220289, Note_off_c, 0, 61, 60
1, 220291, Note_off_c, 0, 56, 63
1, 220428, Note_on_c, 0, 88, 93
1, 220431, Note_on_c, 0, 76, 94
1, 220433, Note_on_c, 0, 78, 94
1, 220433, Note_on_c, 0, 83, 84
1, 220505, Note_off_c, 0, 83, 61
1, 220523, Note_off_c, 0, 88, 60
1, 220553, Note_on_c, 0, 69, 102
1, 220568, Note_off_c, 0, 76, 63
1, 220639, Note_off_c, 0, 78, 60
1, 220681, Note_on_c, 0, 81, 100
1, 220684, Note_on_c, 0, 76, 95
1, 220685, Note_on_c, 0, 86, 99
1, 220687, Note_on_c, 0, 74, 98
1, 220687, Note_off_c, 0, 69, 73
1, 220786, Note_off_c, 0, 86, 60
1, 220791, Note_off_c, 0, 76, 60
1, 220810, Note_off_c, 0, 74, 62
1, 220879, Note_off_c, 0, 81, 61
1, 220912, Note_on_c, 0, 85, 99
1, 220916, Note_on_c, 0, 75, 95
1, 220917, Note_on_c, 0, 80, 94
1, 221010, Note_on_c, 0, 59, 95
1, 221029, Note_off_c, 0, 75, 60
1, 221045, Note_off_c, 0, 85, 61
1, 221067, Note_off_c, 0, 80, 51
1, 221105, Note_off_c, 0, 59, 62
1, 221142, Note_on_c, 0, 84, 104
1, 221143, Note_on_c, 0, 58, 100
1, 221147, Note_on_c, 0, 74, 91
1, 221151, Note_on_c, 0, 80, 94
1, 221153, Control_c, 0, 64, 90
1, 221168, Control_c, 0, 64, 64
1, 221183, Control_c, 0, 64, 0
1, 221227, Control_c, 0, 64, 37
1, 221242, Control_c, 0, 64, 82
1, 221257, Control_c, 0, 64, 111
1, 221272, Control_c, 0, 64, 127
1, 221294, Note_off_c, 0, 74, 53
1, 221325, Note_off_c, 0, 84, 62
1, 221331, Note_off_c, 0, 80, 58
1, 221396, Note_on_c, 0, 80, 99
1, 221396, Note_on_c, 0, 85, 97
1, 221397, Note_on_c, 0, 75, 98
1, 221415, Note_off_c, 0, 58, 59
1, 221474, Note_on_c, 0, 48, 85
1, 221486, Note_off_c, 0, 75, 62
1, 221490, Note_off_c, 0, 80, 61
1, 221503, Note_off_c, 0, 85, 64
1, 221610, Note_off_c, 0, 48, 63
1, 221677, Note_on_c, 0, 88, 109
1, 221678, Note_on_c, 0, 49, 100
1, 221679, Note_on_c, 0, 79, 92
1, 221680, Note_on_c, 0, 76, 97
1, 221682, Note_on_c, 0, 83, 92
1, 221695, Control_c, 0, 64, 89
1, 221710, Control_c, 0, 64, 49
1, 221725, Control_c, 0, 64, 0
1, 221828, Control_c, 0, 64, 75
1, 221843, Control_c, 0, 64, 88
1, 221858, Control_c, 0, 64, 103
1, 221873, Control_c, 0, 64, 110
1, 221887, Control_c, 0, 64, 114
1, 221902, Control_c, 0, 64, 119
1, 221917, Control_c, 0, 64, 127
1, 221944, Note_off_c, 0, 76, 57
1, 221963, Note_off_c, 0, 88, 55
1, 221975, Note_on_c, 0, 59, 92
1, 221976, Note_on_c, 0, 55, 81
1, 222074, Note_off_c, 0, 83, 0
1, 222089, Note_on_c, 0, 74, 89
1, 222091, Note_on_c, 0, 86, 94
1, 222116, Note_off_c, 0, 79, 59
1, 222121, Poly_aftertouch_c, 0, 83, 0
1, 222127, Note_off_c, 0, 49, 60
1, 222143, Note_off_c, 0, 59, 62
1, 222145, Note_off_c, 0, 74, 68
1, 222162, Note_off_c, 0, 55, 64
1, 222243, Note_on_c, 0, 85, 95
1, 222250, Note_on_c, 0, 73, 93
1, 222264, Note_off_c, 0, 86, 46
1, 222348, Note_off_c, 0, 85, 62
1, 222360, Note_off_c, 0, 73, 58
1, 222531, Note_on_c, 0, 83, 96
1, 222534, Note_on_c, 0, 71, 91
1, 222536, Note_on_c, 0, 70, 83
1, 222539, Note_on_c, 0, 65, 76
1, 222545, Note_on_c, 0, 62, 73
1, 222607, Note_off_c, 0, 71, 59
1, 222694, Note_off_c, 0, 65, 62
1, 222733, Note_off_c, 0, 70, 59
1, 222860, Note_off_c, 0, 83, 57
1, 222874, Note_on_c, 0, 86, 93
1, 222881, Note_on_c, 0, 61, 71
1, 222881, Note_on_c, 0, 71, 71
1, 222882, Note_on_c, 0, 81, 79
1, 222883, Note_on_c, 0, 76, 78
1, 222884, Note_on_c, 0, 66, 73
1, 222887, Control_c, 0, 64, 120
1, 222890, Note_off_c, 0, 62, 60
1, 222903, Control_c, 0, 64, 99
1, 222918, Control_c, 0, 64, 82
1, 222932, Control_c, 0, 64, 63
1, 222947, Control_c, 0, 64, 0
1, 223088, Control_c, 0, 64, 66
1, 223103, Control_c, 0, 64, 77
1, 223118, Control_c, 0, 64, 90
1, 223125, Note_off_c, 0, 76, 63
1, 223132, Control_c, 0, 64, 103
1, 223147, Control_c, 0, 64, 112
1, 223162, Control_c, 0, 64, 116
1, 223177, Control_c, 0, 64, 117
1, 223178, Note_off_c, 0, 71, 59
1, 223236, Control_c, 0, 64, 117
1, 223247, Note_off_c, 0, 66, 65
1, 223251, Control_c, 0, 64, 118
1, 223258, Note_on_c, 0, 76, 73
1, 223266, Control_c, 0, 64, 120
1, 223269, Note_off_c, 0, 61, 61
1, 223281, Control_c, 0, 64, 122
1, 223292, Note_off_c, 0, 86, 60
1, 223296, Control_c, 0, 64, 123
1, 223314, Note_off_c, 0, 81, 59
1, 223323, Note_off_c, 0, 76, 63
1, 223340, Control_c, 0, 64, 124
1, 223355, Control_c, 0, 64, 127
1, 223578, Control_c, 0, 64, 111
1, 223593, Control_c, 0, 64, 93
1, 223600, Note_on_c, 0, 52, 55
1, 223600, Note_on_c, 0, 79, 78
1, 223606, Note_on_c, 0, 69, 66
1, 223607, Control_c, 0, 64, 77
1, 223609, Note_on_c, 0, 74, 59
1, 223622, Control_c, 0, 64, 61
1, 223637, Control_c, 0, 64, 0
1, 223712, Control_c, 0, 64, 52
1, 223727, Control_c, 0, 64, 68
1, 223732, Note_on_c, 0, 53, 61
1, 223742, Control_c, 0, 64, 74
1, 223756, Control_c, 0, 64, 81
1, 223771, Control_c, 0, 64, 85
1, 223776, Note_off_c, 0, 69, 59
1, 223776, Note_off_c, 0, 52, 61
1, 223786, Control_c, 0, 64, 87
1, 223801, Control_c, 0, 64, 89
1, 223806, Note_off_c, 0, 53, 66
1, 223816, Control_c, 0, 64, 91
1, 223838, Control_c, 0, 64, 93
1, 223853, Control_c, 0, 64, 93
1, 223853, Note_on_c, 0, 60, 62
1, 223927, Control_c, 0, 64, 93
1, 223939, Note_off_c, 0, 60, 60
1, 223942, Control_c, 0, 64, 92
1, 223954, Note_on_c, 0, 69, 76
1, 223955, Note_on_c, 0, 54, 64
1, 223956, Control_c, 0, 64, 89
1, 223971, Control_c, 0, 64, 85
1, 223986, Control_c, 0, 64, 80
1, 224001, Control_c, 0, 64, 75
1, 224016, Control_c, 0, 64, 69
1, 224030, Control_c, 0, 64, 64
1, 224045, Control_c, 0, 64, 63
1, 224065, Note_on_c, 0, 57, 61
1, 224089, Control_c, 0, 64, 62
1, 224104, Control_c, 0, 64, 62
1, 224119, Control_c, 0, 64, 61
1, 224134, Control_c, 0, 64, 60
1, 224148, Control_c, 0, 64, 60
1, 224178, Control_c, 0, 64, 59
1, 224187, Note_on_c, 0, 64, 64
1, 224190, Note_off_c, 0, 57, 62
1, 224193, Control_c, 0, 64, 58
1, 224208, Control_c, 0, 64, 56
1, 224223, Control_c, 0, 64, 56
1, 224238, Control_c, 0, 64, 55
1, 224297, Control_c, 0, 64, 56
1, 224327, Control_c, 0, 64, 57
1, 224342, Control_c, 0, 64, 57
1, 224353, Note_on_c, 0, 63, 63
1, 224356, Control_c, 0, 64, 58
1, 224371, Control_c, 0, 64, 59
1, 224393, Note_off_c, 0, 64, 57
1, 224401, Control_c, 0, 64, 59
1, 224430, Control_c, 0, 64, 60
1, 224445, Control_c, 0, 64, 61
1, 224460, Control_c, 0, 64, 62
1, 224473, Note_off_c, 0, 69, 57
1, 224474, Control_c, 0, 64, 63
1, 224489, Control_c, 0, 64, 64
1, 224505, Control_c, 0, 64, 64
1, 224520, Control_c, 0, 64, 65
1, 224535, Control_c, 0, 64, 65
1, 224550, Control_c, 0, 64, 67
1, 224565, Control_c, 0, 64, 70
1, 224586, Control_c, 0, 64, 74
1, 224601, Control_c, 0, 64, 79
1, 224616, Control_c, 0, 64, 82
1, 224631, Control_c, 0, 64, 84
1, 224646, Control_c, 0, 64, 84
1, 224661, Control_c, 0, 64, 85
1, 224676, Control_c, 0, 64, 86
1, 224691, Control_c, 0, 64, 87
1, 224705, Control_c, 0, 64, 88
1, 224720, Control_c, 0, 64, 88
1, 224723, Note_on_c, 0, 69, 59
1, 224737, Note_off_c, 0, 74, 66
1, 224765, Control_c, 0, 64, 89
1, 224779, Control_c, 0, 64, 89
1, 224831, Note_off_c, 0, 63, 57
1, 224884, Note_on_c, 0, 62, 54
1, 225075, Note_off_c, 0, 54, 35
1, 225075, Control_c, 0, 64, 89
1, 225090, Control_c, 0, 64, 87
1, 225105, Control_c, 0, 64, 82
1, 225114, Note_on_c, 0, 78, 62
1, 225120, Control_c, 0, 64, 75
1, 225122, Note_on_c, 0, 70, 50
1, 225129, Note_on_c, 0, 76, 51
1, 225132, Note_on_c, 0, 61, 49
1, 225135, Control_c, 0, 64, 67
1, 225150, Control_c, 0, 64, 56
1, 225162, Note_off_c, 0, 62, 54
1, 225165, Control_c, 0, 64, 31
1, 225179, Control_c, 0, 64, 0
1, 225245, Note_off_c, 0, 69, 28
1, 225275, Note_off_c, 0, 79, 50
1, 225350, Control_c, 0, 64, 42
1, 225365, Control_c, 0, 64, 64
1, 225380, Control_c, 0, 64, 68
1, 225395, Control_c, 0, 64, 71
1, 225409, Control_c, 0, 64, 74
1, 225424, Control_c, 0, 64, 78
1, 225439, Control_c, 0, 64, 81
1, 225454, Control_c, 0, 64, 85
1, 225469, Control_c, 0, 64, 87
1, 225484, Control_c, 0, 64, 89
1, 225499, Control_c, 0, 64, 90
1, 225499, Note_off_c, 0, 76, 60
1, 225504, Note_off_c, 0, 78, 60
1, 225514, Control_c, 0, 64, 92
1, 225528, Control_c, 0, 64, 93
1, 225542, Note_on_c, 0, 54, 48
1, 225543, Control_c, 0, 64, 95
1, 225558, Control_c, 0, 64, 96
1, 225564, Note_off_c, 0, 70, 63
1, 225573, Control_c, 0, 64, 97
1, 225588, Control_c, 0, 64, 98
1, 225602, Control_c, 0, 64, 99
1, 225617, Control_c, 0, 64, 100
1, 225621, Note_off_c, 0, 61, 61
1, 225646, Control_c, 0, 64, 100
1, 225672, Note_off_c, 0, 54, 62
1, 225720, Control_c, 0, 64, 101
1, 225750, Control_c, 0, 64, 101
1, 225765, Control_c, 0, 64, 102
1, 225794, Control_c, 0, 64, 102
1, 225809, Control_c, 0, 64, 103
1, 225839, Control_c, 0, 64, 103
1, 225913, Control_c, 0, 64, 100
1, 225928, Control_c, 0, 64, 92
1, 225937, Note_on_c, 0, 67, 56
1, 225943, Control_c, 0, 64, 81
1, 225943, Note_on_c, 0, 62, 45
1, 225944, Note_on_c, 0, 57, 43
1, 225950, Note_on_c, 0, 40, 49
1, 225958, Control_c, 0, 64, 70
1, 225973, Control_c, 0, 64, 60
1, 225987, Control_c, 0, 64, 35
1, 226002, Control_c, 0, 64, 33
1, 226017, Control_c, 0, 64, 46
1, 226032, Control_c, 0, 64, 58
1, 226046, Control_c, 0, 64, 64
1, 226061, Control_c, 0, 64, 68
1, 226083, Control_c, 0, 64, 73
1, 226098, Control_c, 0, 64, 78
1, 226114, Control_c, 0, 64, 82
1, 226115, Note_on_c, 0, 41, 60
1, 226129, Control_c, 0, 64, 84
1, 226144, Control_c, 0, 64, 84
1, 226158, Control_c, 0, 64, 85
1, 226173, Control_c, 0, 64, 85
1, 226187, Note_off_c, 0, 40, 40
1, 226188, Control_c, 0, 64, 86
1, 226191, Note_off_c, 0, 57, 36
1, 226200, Note_off_c, 0, 41, 65
1, 226243, Note_on_c, 0, 48, 60
1, 226321, Control_c, 0, 64, 85
1, 226337, Control_c, 0, 64, 84
1, 226351, Control_c, 0, 64, 82
1, 226358, Note_off_c, 0, 48, 65
1, 226366, Control_c, 0, 64, 80
1, 226374, Note_on_c, 0, 42, 59
1, 226377, Note_on_c, 0, 57, 57
1, 226381, Control_c, 0, 64, 77
1, 226396, Control_c, 0, 64, 74
1, 226411, Control_c, 0, 64, 70
1, 226426, Control_c, 0, 64, 67
1, 226441, Control_c, 0, 64, 66
1, 226455, Control_c, 0, 64, 65
1, 226485, Control_c, 0, 64, 65
1, 226493, Note_on_c, 0, 45, 56
1, 226500, Control_c, 0, 64, 64
1, 226515, Control_c, 0, 64, 62
1, 226530, Control_c, 0, 64, 61
1, 226544, Control_c, 0, 64, 60
1, 226574, Control_c, 0, 64, 59
1, 226589, Control_c, 0, 64, 56
1, 226603, Control_c, 0, 64, 52
1, 226618, Control_c, 0, 64, 49
1, 226622, Note_off_c, 0, 45, 63
1, 226633, Control_c, 0, 64, 48
1, 226639, Note_on_c, 0, 52, 62
1, 226648, Control_c, 0, 64, 45
1, 226663, Control_c, 0, 64, 39
1, 226677, Control_c, 0, 64, 28
1, 226692, Control_c, 0, 64, 0
1, 226844, Note_on_c, 0, 51, 56
1, 226905, Note_off_c, 0, 52, 38
1, 226968, Control_c, 0, 64, 25
1, 226982, Control_c, 0, 64, 40
1, 226997, Control_c, 0, 64, 52
1, 227012, Control_c, 0, 64, 59
1, 227027, Control_c, 0, 64, 63
1, 227042, Control_c, 0, 64, 65
1, 227043, Note_off_c, 0, 57, 35
1, 227056, Control_c, 0, 64, 67
1, 227071, Control_c, 0, 64, 71
1, 227084, Control_c, 0, 64, 76
1, 227099, Control_c, 0, 64, 80
1, 227114, Control_c, 0, 64, 81
1, 227129, Control_c, 0, 64, 82
1, 227144, Control_c, 0, 64, 83
1, 227159, Control_c, 0, 64, 85
1, 227173, Control_c, 0, 64, 87
1, 227188, Control_c, 0, 64, 88
1, 227203, Control_c, 0, 64, 88
1, 227262, Control_c, 0, 64, 89
1, 227293, Note_on_c, 0, 57, 44
1, 227318, Note_off_c, 0, 62, 65
1, 227488, Note_off_c, 0, 51, 52
1, 227549, Note_on_c, 0, 50, 43
1, 227818, Control_c, 0, 64, 88
1, 227833, Control_c, 0, 64, 88
1, 227848, Control_c, 0, 64, 85
1, 227858, Note_off_c, 0, 42, 29
1, 227862, Control_c, 0, 64, 82
1, 227866, Note_on_c, 0, 66, 45
1, 227870, Note_on_c, 0, 58, 40
1, 227871, Note_on_c, 0, 49, 43
1, 227877, Control_c, 0, 64, 77
1, 227879, Note_on_c, 0, 64, 43
1, 227892, Control_c, 0, 64, 72
1, 227907, Control_c, 0, 64, 66
1, 227922, Control_c, 0, 64, 61
1, 227937, Control_c, 0, 64, 53
1, 227952, Control_c, 0, 64, 52
1, 227957, Note_off_c, 0, 50, 40
1, 227982, Control_c, 0, 64, 50
1, 227996, Control_c, 0, 64, 46
1, 228002, Note_off_c, 0, 57, 40
1, 228011, Control_c, 0, 64, 37
1, 228022, Note_off_c, 0, 67, 38
1, 228026, Control_c, 0, 64, 23
1, 228041, Control_c, 0, 64, 14
1, 228100, Control_c, 0, 64, 16
1, 228114, Control_c, 0, 64, 22
1, 228129, Control_c, 0, 64, 27
1, 228144, Control_c, 0, 64, 35
1, 228159, Control_c, 0, 64, 42
1, 228174, Control_c, 0, 64, 49
1, 228188, Control_c, 0, 64, 54
1, 228203, Control_c, 0, 64, 58
1, 228218, Control_c, 0, 64, 61
1, 228233, Control_c, 0, 64, 63
1, 228247, Control_c, 0, 64, 64
1, 228262, Control_c, 0, 64, 65
1, 228277, Control_c, 0, 64, 66
1, 228292, Control_c, 0, 64, 66
1, 228307, Control_c, 0, 64, 67
1, 228329, Control_c, 0, 64, 67
1, 228344, Control_c, 0, 64, 68
1, 228359, Control_c, 0, 64, 69
1, 228374, Control_c, 0, 64, 69
1, 228389, Control_c, 0, 64, 70
1, 228403, Control_c, 0, 64, 71
1, 228418, Control_c, 0, 64, 71
1, 228433, Control_c, 0, 64, 72
1, 228447, Control_c, 0, 64, 73
1, 228462, Control_c, 0, 64, 73
1, 228477, Control_c, 0, 64, 74
1, 228503, Note_on_c, 0, 42, 32
1, 228508, Control_c, 0, 64, 75
1, 228523, Control_c, 0, 64, 76
1, 228538, Control_c, 0, 64, 78
1, 228552, Control_c, 0, 64, 81
1, 228567, Control_c, 0, 64, 83
1, 228582, Control_c, 0, 64, 86
1, 228582, Control_c, 0, 67, 11
1, 228597, Control_c, 0, 64, 88
1, 228597, Control_c, 0, 67, 15
1, 228612, Control_c, 0, 64, 90
1, 228612, Control_c, 0, 67, 20
1, 228626, Control_c, 0, 64, 92
1, 228626, Control_c, 0, 67, 26
1, 228641, Control_c, 0, 64, 93
1, 228641, Control_c, 0, 67, 33
1, 228656, Control_c, 0, 64, 94
1, 228656, Control_c, 0, 67, 41
1, 228667, Note_off_c, 0, 49, 52
1, 228670, Control_c, 0, 64, 94
1, 228670, Control_c, 0, 67, 50
1, 228685, Control_c, 0, 64, 95
1, 228685, Control_c, 0, 67, 59
1, 228700, Control_c, 0, 64, 95
1, 228700, Control_c, 0, 67, 66
1, 228715, Control_c, 0, 67, 73
1, 228721, Note_off_c, 0, 42, 41
1, 228730, Control_c, 0, 67, 78
1, 228745, Control_c, 0, 67, 83
1, 228760, Control_c, 0, 67, 87
1, 228775, Control_c, 0, 64, 96
1, 228775, Control_c, 0, 67, 90
1, 228790, Control_c, 0, 67, 93
1, 228804, Control_c, 0, 67, 97
1, 228819, Control_c, 0, 67, 102
1, 228834, Control_c, 0, 67, 108
1, 228849, Control_c, 0, 67, 112
1, 228863, Control_c, 0, 67, 116
1, 228878, Control_c, 0, 67, 119
1, 228893, Control_c, 0, 67, 121
1, 228908, Control_c, 0, 67, 123
1, 228923, Control_c, 0, 67, 124
1, 228937, Control_c, 0, 67, 125
1, 228952, Control_c, 0, 67, 127
1, 229182, Control_c, 0, 64, 95
1, 229196, Control_c, 0, 64, 95
1, 229211, Control_c, 0, 64, 94
1, 229226, Control_c, 0, 64, 93
1, 229241, Control_c, 0, 64, 91
1, 229255, Note_on_c, 0, 43, 41
1, 229256, Control_c, 0, 64, 88
1, 229270, Control_c, 0, 64, 84
1, 229285, Control_c, 0, 64, 79
1, 229301, Control_c, 0, 64, 73
1, 229316, Control_c, 0, 64, 69
1, 229330, Control_c, 0, 64, 65
1, 229345, Control_c, 0, 64, 63
1, 229360, Control_c, 0, 64, 62
1, 229374, Control_c, 0, 64, 58
1, 229389, Control_c, 0, 64, 49
1, 229404, Control_c, 0, 64, 0
1, 229434, Note_off_c, 0, 58, 55
1, 229451, Note_off_c, 0, 66, 44
1, 229469, Note_off_c, 0, 64, 39
1, 229961, Note_on_c, 0, 33, 45
1, 230181, Note_off_c, 0, 43, 41
1, 230524, Control_c, 0, 64, 28
1, 230539, Control_c, 0, 64, 49
1, 230554, Control_c, 0, 64, 56
1, 230576, Control_c, 0, 64, 59
1, 230590, Control_c, 0, 64, 61
1, 230605, Control_c, 0, 64, 62
1, 230620, Control_c, 0, 64, 64
1, 230635, Control_c, 0, 64, 64
1, 230650, Control_c, 0, 64, 65
1, 230665, Control_c, 0, 64, 65
1, 230679, Control_c, 0, 64, 66
1, 230694, Control_c, 0, 64, 67
1, 230708, Note_on_c, 0, 52, 31
1, 230709, Control_c, 0, 64, 68
1, 230724, Control_c, 0, 64, 69
1, 230739, Control_c, 0, 64, 70
1, 230754, Control_c, 0, 64, 71
1, 230769, Control_c, 0, 64, 72
1, 230784, Control_c, 0, 64, 74
1, 230798, Control_c, 0, 64, 76
1, 230813, Control_c, 0, 64, 78
1, 230828, Control_c, 0, 64, 79
1, 230842, Control_c, 0, 64, 81
1, 230857, Control_c, 0, 64, 84
1, 230872, Control_c, 0, 64, 86
1, 230873, Note_off_c, 0, 33, 41
1, 230888, Control_c, 0, 64, 88
1, 230903, Control_c, 0, 64, 88
1, 230947, Control_c, 0, 64, 89
1, 230962, Control_c, 0, 64, 91
1, 230968, Note_on_c, 0, 53, 42
1, 230977, Control_c, 0, 64, 92
1, 230992, Control_c, 0, 64, 92
1, 231007, Control_c, 0, 64, 93
1, 231036, Control_c, 0, 64, 94
1, 231051, Control_c, 0, 64, 96
1, 231065, Control_c, 0, 64, 97
1, 231080, Control_c, 0, 64, 98
1, 231138, Note_off_c, 0, 53, 65
1, 231139, Control_c, 0, 64, 98
1, 231154, Note_on_c, 0, 60, 46
1, 231228, Control_c, 0, 64, 99
1, 231306, Note_on_c, 0, 33, 57
1, 231321, Note_off_c, 0, 60, 56
1, 231322, Note_on_c, 0, 54, 49
1, 231339, Control_c, 0, 64, 99
1, 231399, Control_c, 0, 64, 100
1, 231458, Control_c, 0, 64, 100
1, 231487, Control_c, 0, 64, 101
1, 231511, Note_off_c, 0, 52, 56
1, 231515, Note_on_c, 0, 57, 60
1, 231562, Control_c, 0, 64, 101
1, 231577, Control_c, 0, 64, 102
1, 231636, Control_c, 0, 64, 102
1, 231663, Note_off_c, 0, 33, 36
1, 231665, Control_c, 0, 64, 103
1, 231680, Control_c, 0, 64, 104
1, 231741, Control_c, 0, 64, 104
1, 231744, Note_on_c, 0, 64, 68
1, 231767, Note_off_c, 0, 57, 59
1, 231809, Note_off_c, 0, 54, 34
1, 232074, Control_c, 0, 64, 104
1, 232088, Control_c, 0, 64, 101
1, 232103, Control_c, 0, 64, 93
1, 232114, Note_on_c, 0, 58, 52
1, 232115, Note_on_c, 0, 63, 61
1, 232118, Control_c, 0, 64, 83
1, 232119, Note_on_c, 0, 32, 47
1, 232119, Note_on_c, 0, 52, 52
1, 232133, Control_c, 0, 64, 72
1, 232148, Control_c, 0, 64, 61
1, 232162, Control_c, 0, 64, 0
1, 232182, Note_off_c, 0, 64, 52
1, 232519, Control_c, 0, 64, 23
1, 232534, Control_c, 0, 64, 34
1, 232548, Control_c, 0, 64, 41
1, 232563, Control_c, 0, 64, 48
1, 232578, Control_c, 0, 64, 53
1, 232593, Control_c, 0, 64, 56
1, 232608, Control_c, 0, 64, 58
1, 232623, Control_c, 0, 64, 60
1, 232637, Control_c, 0, 64, 61
1, 232652, Control_c, 0, 64, 62
1, 232667, Control_c, 0, 64, 63
1, 232682, Control_c, 0, 64, 63
1, 232697, Control_c, 0, 64, 64
1, 232711, Control_c, 0, 64, 64
1, 232741, Control_c, 0, 64, 65
1, 232756, Control_c, 0, 64, 65
1, 232771, Control_c, 0, 64, 66
1, 232785, Control_c, 0, 64, 67
1, 232800, Control_c, 0, 64, 68
1, 232823, Control_c, 0, 64, 69
1, 232837, Control_c, 0, 64, 70
1, 232852, Control_c, 0, 64, 71
1, 232867, Control_c, 0, 64, 72
1, 232882, Control_c, 0, 64, 73
1, 232897, Control_c, 0, 64, 74
1, 232911, Control_c, 0, 64, 75
1, 232926, Control_c, 0, 64, 77
1, 232941, Control_c, 0, 64, 78
1, 232956, Control_c, 0, 64, 79
1, 232971, Control_c, 0, 64, 79
1, 232985, Control_c, 0, 64, 80
1, 233000, Control_c, 0, 64, 81
1, 233015, Control_c, 0, 64, 82
1, 233030, Control_c, 0, 64, 83
1, 233044, Control_c, 0, 64, 84
1, 233059, Control_c, 0, 64, 85
1, 233074, Control_c, 0, 64, 87
1, 233089, Control_c, 0, 64, 90
1, 233104, Control_c, 0, 64, 93
1, 233118, Control_c, 0, 64, 95
1, 233133, Control_c, 0, 64, 97
1, 233148, Control_c, 0, 64, 98
1, 233163, Control_c, 0, 64, 99
1, 233178, Control_c, 0, 64, 100
1, 233207, Control_c, 0, 64, 100
1, 233222, Control_c, 0, 64, 101
1, 233237, Control_c, 0, 64, 101
1, 233267, Control_c, 0, 64, 102
1, 233444, Note_on_c, 0, 62, 44
1, 233532, Note_off_c, 0, 63, 39
1, 233583, Note_off_c, 0, 58, 60
1, 233737, Note_off_c, 0, 32, 40
1, 233779, Control_c, 0, 64, 101
1, 233823, Control_c, 0, 64, 101
1, 233853, Control_c, 0, 64, 100
1, 233867, Control_c, 0, 64, 99
1, 233882, Control_c, 0, 64, 96
1, 233897, Control_c, 0, 64, 93
1, 233912, Control_c, 0, 64, 89
1, 233926, Note_on_c, 0, 61, 47
1, 233927, Control_c, 0, 64, 85
1, 233941, Control_c, 0, 64, 81
1, 233945, Note_on_c, 0, 57, 32
1, 233956, Control_c, 0, 64, 76
1, 233959, Note_off_c, 0, 62, 35
1, 233971, Control_c, 0, 64, 71
1, 233985, Control_c, 0, 64, 67
1, 234000, Control_c, 0, 64, 64
1, 234012, Note_off_c, 0, 52, 40
1, 234015, Control_c, 0, 64, 64
1, 234060, Control_c, 0, 64, 62
1, 234075, Control_c, 0, 64, 61
1, 234090, Control_c, 0, 64, 59
1, 234105, Control_c, 0, 64, 58
1, 234120, Control_c, 0, 64, 57
1, 234135, Control_c, 0, 64, 55
1, 234150, Control_c, 0, 64, 51
1, 234164, Control_c, 0, 64, 44
1, 234179, Control_c, 0, 64, 39
1, 234194, Control_c, 0, 64, 38
1, 234239, Control_c, 0, 64, 39
1, 234254, Control_c, 0, 64, 41
1, 234268, Control_c, 0, 64, 44
1, 234283, Control_c, 0, 64, 48
1, 234298, Control_c, 0, 64, 52
1, 234320, Control_c, 0, 64, 55
1, 234335, Control_c, 0, 64, 57
1, 234350, Control_c, 0, 64, 59
1, 234364, Control_c, 0, 64, 61
1, 234379, Control_c, 0, 64, 62
1, 234394, Control_c, 0, 64, 63
1, 234409, Control_c, 0, 64, 64
1, 234423, Control_c, 0, 64, 64
1, 234438, Control_c, 0, 64, 65
1, 234453, Control_c, 0, 64, 65
1, 234468, Control_c, 0, 64, 66
1, 234483, Control_c, 0, 64, 66
1, 234543, Control_c, 0, 64, 67
1, 234573, Note_on_c, 0, 51, 32
1, 234587, Control_c, 0, 64, 67
1, 234594, Note_on_c, 0, 41, 33
1, 234602, Control_c, 0, 64, 69
1, 234616, Control_c, 0, 64, 72
1, 234631, Control_c, 0, 64, 76
1, 234646, Control_c, 0, 64, 80
1, 234661, Control_c, 0, 64, 83
1, 234676, Control_c, 0, 64, 85
1, 234690, Control_c, 0, 64, 87
1, 234700, Note_off_c, 0, 57, 51
1, 234705, Control_c, 0, 64, 88
1, 234720, Control_c, 0, 64, 89
1, 234735, Control_c, 0, 64, 90
1, 234764, Control_c, 0, 64, 91
1, 234769, Note_off_c, 0, 51, 38
1, 234779, Control_c, 0, 64, 91
1, 234790, Note_off_c, 0, 61, 57
1, 234794, Control_c, 0, 64, 92
1, 234804, Note_off_c, 0, 41, 44
1, 234808, Control_c, 0, 64, 93
1, 234823, Control_c, 0, 64, 94
1, 235128, Control_c, 0, 64, 92
1, 235143, Control_c, 0, 64, 89
1, 235158, Control_c, 0, 64, 86
1, 235173, Control_c, 0, 64, 81
1, 235177, Note_on_c, 0, 60, 45
1, 235184, Note_on_c, 0, 58, 39
1, 235187, Control_c, 0, 64, 76
1, 235202, Control_c, 0, 64, 71
1, 235206, Note_on_c, 0, 52, 36
1, 235217, Control_c, 0, 64, 66
1, 235231, Control_c, 0, 64, 63
1, 235246, Control_c, 0, 64, 61
1, 235261, Control_c, 0, 64, 60
1, 235276, Control_c, 0, 64, 60
1, 235291, Control_c, 0, 64, 58
1, 235306, Control_c, 0, 64, 53
1, 235321, Control_c, 0, 64, 46
1, 235336, Control_c, 0, 64, 40
1, 235350, Control_c, 0, 64, 39
1, 235380, Control_c, 0, 64, 39
1, 235410, Control_c, 0, 64, 41
1, 235425, Control_c, 0, 64, 43
1, 235439, Control_c, 0, 64, 46
1, 235454, Control_c, 0, 64, 49
1, 235469, Control_c, 0, 64, 52
1, 235484, Control_c, 0, 64, 54
1, 235499, Control_c, 0, 64, 57
1, 235513, Control_c, 0, 64, 60
1, 235528, Control_c, 0, 64, 62
1, 235543, Control_c, 0, 64, 63
1, 235558, Control_c, 0, 64, 64
1, 235573, Control_c, 0, 64, 65
1, 235587, Control_c, 0, 64, 65
1, 235602, Control_c, 0, 64, 66
1, 235617, Control_c, 0, 64, 67
1, 235631, Control_c, 0, 64, 68
1, 235646, Control_c, 0, 64, 68
1, 235661, Control_c, 0, 64, 69
1, 235677, Control_c, 0, 64, 70
1, 235692, Control_c, 0, 64, 70
1, 235707, Control_c, 0, 64, 71
1, 235722, Control_c, 0, 64, 71
1, 235736, Control_c, 0, 64, 72
1, 235751, Control_c, 0, 64, 72
1, 235766, Control_c, 0, 64, 73
1, 235781, Control_c, 0, 64, 73
1, 235796, Control_c, 0, 64, 74
1, 235800, Note_on_c, 0, 42, 29
1, 235818, Control_c, 0, 64, 75
1, 235833, Control_c, 0, 64, 77
1, 235848, Control_c, 0, 64, 78
1, 235862, Control_c, 0, 64, 80
1, 235877, Control_c, 0, 64, 81
1, 235892, Control_c, 0, 64, 83
1, 235907, Note_off_c, 0, 60, 46
1, 235907, Control_c, 0, 64, 84
1, 235922, Control_c, 0, 64, 85
1, 235936, Control_c, 0, 64, 86
1, 235951, Control_c, 0, 64, 87
1, 235958, Note_off_c, 0, 58, 33
1, 235966, Control_c, 0, 64, 87
1, 235981, Control_c, 0, 64, 88
1, 236040, Control_c, 0, 64, 88
1, 236366, Control_c, 0, 64, 88
1, 236380, Control_c, 0, 64, 87
1, 236395, Control_c, 0, 64, 86
1, 236410, Control_c, 0, 64, 84
1, 236411, Note_off_c, 0, 52, 32
1, 236425, Control_c, 0, 64, 80
1, 236440, Control_c, 0, 64, 76
1, 236454, Control_c, 0, 64, 70
1, 236464, Note_on_c, 0, 57, 33
1, 236465, Note_on_c, 0, 61, 42
1, 236469, Control_c, 0, 64, 66
1, 236485, Control_c, 0, 64, 63
1, 236500, Control_c, 0, 64, 62
1, 236515, Control_c, 0, 64, 61
1, 236530, Control_c, 0, 64, 60
1, 236545, Control_c, 0, 64, 58
1, 236567, Control_c, 0, 64, 56
1, 236582, Control_c, 0, 64, 55
1, 236611, Control_c, 0, 64, 56
1, 236626, Control_c, 0, 64, 56
1, 236641, Control_c, 0, 64, 58
1, 236656, Control_c, 0, 64, 62
1, 236671, Control_c, 0, 64, 65
1, 236685, Control_c, 0, 64, 68
1, 236700, Control_c, 0, 64, 72
1, 236715, Control_c, 0, 64, 75
1, 236730, Control_c, 0, 64, 78
1, 236745, Control_c, 0, 64, 81
1, 236759, Control_c, 0, 64, 82
1, 236774, Control_c, 0, 64, 83
1, 236789, Control_c, 0, 64, 84
1, 236803, Control_c, 0, 64, 85
1, 236819, Control_c, 0, 64, 86
1, 236850, Note_off_c, 0, 42, 32
1, 236864, Control_c, 0, 64, 86
1, 236893, Control_c, 0, 64, 87
1, 237160, Control_c, 0, 64, 85
1, 237175, Control_c, 0, 64, 82
1, 237190, Control_c, 0, 64, 77
1, 237204, Control_c, 0, 64, 70
1, 237219, Control_c, 0, 64, 63
1, 237223, Note_on_c, 0, 51, 28
1, 237225, Note_on_c, 0, 41, 28
1, 237234, Control_c, 0, 64, 52
1, 237249, Control_c, 0, 64, 50
1, 237264, Control_c, 0, 64, 53
1, 237279, Control_c, 0, 64, 56
1, 237294, Control_c, 0, 64, 58
1, 237316, Control_c, 0, 64, 61
1, 237331, Control_c, 0, 64, 65
1, 237346, Control_c, 0, 64, 69
1, 237361, Control_c, 0, 64, 74
1, 237376, Control_c, 0, 64, 79
1, 237390, Control_c, 0, 64, 82
1, 237405, Control_c, 0, 64, 84
1, 237420, Control_c, 0, 64, 86
1, 237428, Note_off_c, 0, 51, 39
1, 237434, Control_c, 0, 64, 87
1, 237447, Note_off_c, 0, 57, 39
1, 237449, Control_c, 0, 64, 88
1, 237452, Note_off_c, 0, 41, 46
1, 237464, Control_c, 0, 64, 89
1, 237479, Control_c, 0, 64, 90
1, 237494, Control_c, 0, 64, 90
1, 237519, Note_off_c, 0, 61, 39
1, 237524, Control_c, 0, 64, 91
1, 237553, Control_c, 0, 64, 91
1, 238026, Control_c, 0, 64, 91
1, 238041, Control_c, 0, 64, 89
1, 238063, Control_c, 0, 64, 86
1, 238079, Control_c, 0, 64, 83
1, 238094, Note_on_c, 0, 64, 48
1, 238094, Control_c, 0, 64, 77
1, 238109, Control_c, 0, 64, 72
1, 238114, Note_on_c, 0, 60, 36
1, 238117, Note_on_c, 0, 58, 32
1, 238121, Note_on_c, 0, 52, 27
1, 238124, Control_c, 0, 64, 67
1, 238138, Control_c, 0, 64, 64
1, 238153, Control_c, 0, 64, 62
1, 238168, Control_c, 0, 64, 61
1, 238183, Control_c, 0, 64, 60
1, 238198, Control_c, 0, 64, 57
1, 238212, Control_c, 0, 64, 55
1, 238227, Control_c, 0, 64, 52
1, 238242, Control_c, 0, 64, 52
1, 238302, Control_c, 0, 64, 52
1, 238316, Control_c, 0, 64, 54
1, 238331, Control_c, 0, 64, 57
1, 238346, Control_c, 0, 64, 61
1, 238361, Control_c, 0, 64, 63
1, 238376, Control_c, 0, 64, 66
1, 238391, Control_c, 0, 64, 68
1, 238405, Control_c, 0, 64, 71
1, 238420, Control_c, 0, 64, 74
1, 238435, Control_c, 0, 64, 77
1, 238449, Control_c, 0, 64, 79
1, 238464, Control_c, 0, 64, 81
1, 238479, Control_c, 0, 64, 83
1, 238494, Control_c, 0, 64, 84
1, 238509, Control_c, 0, 64, 85
1, 238523, Control_c, 0, 64, 87
1, 238538, Control_c, 0, 64, 88
1, 238553, Control_c, 0, 64, 88
1, 238568, Control_c, 0, 64, 89
1, 238582, Control_c, 0, 64, 90
1, 238597, Control_c, 0, 64, 90
1, 238642, Control_c, 0, 64, 91
1, 238686, Control_c, 0, 64, 91
1, 238761, Control_c, 0, 64, 92
1, 238776, Note_on_c, 0, 42, 32
1, 238792, Note_off_c, 0, 60, 54
1, 238842, Control_c, 0, 64, 92
1, 238898, Note_off_c, 0, 52, 58
1, 238916, Note_off_c, 0, 58, 31
1, 238932, Control_c, 0, 64, 93
1, 239360, Control_c, 0, 64, 92
1, 239375, Control_c, 0, 64, 90
1, 239390, Control_c, 0, 64, 86
1, 239405, Control_c, 0, 64, 81
1, 239415, Note_on_c, 0, 65, 53
1, 239419, Control_c, 0, 64, 74
1, 239425, Note_on_c, 0, 57, 34
1, 239425, Note_on_c, 0, 61, 40
1, 239428, Note_on_c, 0, 51, 38
1, 239434, Control_c, 0, 64, 68
1, 239449, Control_c, 0, 64, 63
1, 239455, Note_off_c, 0, 64, 41
1, 239464, Control_c, 0, 64, 58
1, 239479, Control_c, 0, 64, 57
1, 239494, Control_c, 0, 64, 56
1, 239508, Note_off_c, 0, 42, 38
1, 239509, Control_c, 0, 64, 53
1, 239524, Control_c, 0, 64, 47
1, 239539, Control_c, 0, 64, 40
1, 239560, Control_c, 0, 64, 31
1, 239575, Control_c, 0, 64, 29
1, 239634, Control_c, 0, 64, 31
1, 239649, Control_c, 0, 64, 36
1, 239664, Control_c, 0, 64, 42
1, 239680, Control_c, 0, 64, 51
1, 239695, Control_c, 0, 64, 58
1, 239709, Control_c, 0, 64, 63
1, 239724, Control_c, 0, 64, 64
1, 239739, Control_c, 0, 64, 66
1, 239754, Control_c, 0, 64, 67
1, 239769, Control_c, 0, 64, 70
1, 239783, Control_c, 0, 64, 74
1, 239798, Control_c, 0, 64, 78
1, 239813, Control_c, 0, 64, 82
1, 239828, Control_c, 0, 64, 84
1, 239843, Control_c, 0, 64, 86
1, 239858, Control_c, 0, 64, 87
1, 239873, Control_c, 0, 64, 88
1, 239887, Control_c, 0, 64, 90
1, 239902, Control_c, 0, 64, 91
1, 239917, Control_c, 0, 64, 92
1, 239932, Control_c, 0, 64, 92
1, 239947, Control_c, 0, 64, 93
1, 239976, Control_c, 0, 64, 93
1, 240035, Control_c, 0, 64, 94
1, 240054, Note_on_c, 0, 41, 32
1, 240077, Note_off_c, 0, 61, 58
1, 240141, Note_off_c, 0, 57, 48
1, 240234, Note_off_c, 0, 51, 59
1, 240246, Note_off_c, 0, 41, 44
1, 240257, Control_c, 0, 64, 94
1, 240606, Control_c, 0, 64, 94
1, 240636, Control_c, 0, 64, 93
1, 240651, Control_c, 0, 64, 90
1, 240665, Control_c, 0, 64, 85
1, 240671, Note_on_c, 0, 72, 52
1, 240674, Note_on_c, 0, 56, 43
1, 240677, Note_on_c, 0, 60, 44
1, 240678, Note_on_c, 0, 50, 42
1, 240680, Control_c, 0, 64, 79
1, 240695, Control_c, 0, 64, 72
1, 240710, Control_c, 0, 64, 65
1, 240725, Control_c, 0, 64, 57
1, 240740, Control_c, 0, 64, 54
1, 240742, Note_off_c, 0, 65, 53
1, 240743, Note_off_c, 0, 60, 0
1, 240743, Note_on_c, 0, 60, 3
1, 240755, Control_c, 0, 64, 55
1, 240770, Control_c, 0, 64, 54
1, 240785, Control_c, 0, 64, 51
1, 240799, Control_c, 0, 64, 46
1, 240814, Control_c, 0, 64, 44
1, 240829, Control_c, 0, 64, 46
1, 240843, Control_c, 0, 64, 50
1, 240858, Control_c, 0, 64, 56
1, 240873, Control_c, 0, 64, 60
1, 240888, Control_c, 0, 64, 64
1, 240903, Control_c, 0, 64, 67
1, 240917, Control_c, 0, 64, 72
1, 240932, Control_c, 0, 64, 77
1, 240947, Control_c, 0, 64, 82
1, 240962, Control_c, 0, 64, 84
1, 240974, Note_off_c, 0, 56, 56
1, 240976, Control_c, 0, 64, 85
1, 240991, Control_c, 0, 64, 86
1, 241006, Control_c, 0, 64, 87
1, 241021, Control_c, 0, 64, 89
1, 241036, Control_c, 0, 64, 90
1, 241058, Control_c, 0, 64, 91
1, 241073, Control_c, 0, 64, 91
1, 241088, Control_c, 0, 64, 92
1, 241103, Control_c, 0, 64, 92
1, 241118, Control_c, 0, 64, 93
1, 241132, Control_c, 0, 64, 93
1, 241162, Control_c, 0, 64, 94
1, 241206, Control_c, 0, 64, 94
1, 241260, Note_off_c, 0, 50, 36
1, 241304, Note_on_c, 0, 40, 41
1, 241397, Note_off_c, 0, 60, 41
1, 241587, Note_off_c, 0, 40, 40
1, 241926, Control_c, 0, 64, 92
1, 241941, Control_c, 0, 64, 89
1, 241955, Control_c, 0, 64, 84
1, 241965, Note_on_c, 0, 66, 59
1, 241970, Control_c, 0, 64, 78
1, 241973, Note_on_c, 0, 49, 45
1, 241980, Note_on_c, 0, 55, 42
1, 241981, Note_on_c, 0, 59, 45
1, 241985, Control_c, 0, 64, 72
1, 241999, Control_c, 0, 64, 66
1, 242014, Control_c, 0, 64, 61
1, 242029, Control_c, 0, 64, 57
1, 242044, Control_c, 0, 64, 53
1, 242059, Control_c, 0, 64, 47
1, 242075, Control_c, 0, 64, 30
1, 242090, Control_c, 0, 64, 0
1, 242099, Note_off_c, 0, 72, 56
1, 242193, Control_c, 0, 64, 33
1, 242208, Control_c, 0, 64, 62
1, 242222, Control_c, 0, 64, 68
1, 242237, Control_c, 0, 64, 73
1, 242252, Control_c, 0, 64, 78
1, 242267, Control_c, 0, 64, 82
1, 242282, Control_c, 0, 64, 85
1, 242296, Control_c, 0, 64, 89
1, 242311, Control_c, 0, 64, 91
1, 242326, Control_c, 0, 64, 93
1, 242341, Control_c, 0, 64, 94
1, 242356, Control_c, 0, 64, 96
1, 242371, Control_c, 0, 64, 97
1, 242378, Note_off_c, 0, 55, 55
1, 242385, Control_c, 0, 64, 98
1, 242400, Control_c, 0, 64, 99
1, 242415, Control_c, 0, 64, 99
1, 242430, Control_c, 0, 64, 100
1, 242445, Control_c, 0, 64, 100
1, 242460, Control_c, 0, 64, 101
1, 242504, Control_c, 0, 64, 101
1, 242606, Note_off_c, 0, 59, 54
1, 242618, Note_on_c, 0, 39, 43
1, 242793, Note_off_c, 0, 39, 54
1, 242913, Note_off_c, 0, 49, 60
1, 242954, Note_on_c, 0, 69, 55
1, 243320, Control_c, 0, 64, 99
1, 243335, Control_c, 0, 64, 94
1, 243350, Control_c, 0, 64, 86
1, 243362, Note_on_c, 0, 76, 65
1, 243363, Note_on_c, 0, 58, 39
1, 243365, Control_c, 0, 64, 78
1, 243369, Note_on_c, 0, 64, 47
1, 243374, Note_on_c, 0, 54, 40
1, 243379, Control_c, 0, 64, 70
1, 243381, Note_on_c, 0, 48, 40
1, 243394, Control_c, 0, 64, 64
1, 243409, Control_c, 0, 64, 52
1, 243420, Note_off_c, 0, 58, 0
1, 243420, Note_on_c, 0, 58, 10
1, 243424, Control_c, 0, 64, 44
1, 243438, Note_off_c, 0, 69, 65
1, 243439, Control_c, 0, 64, 42
1, 243442, Note_off_c, 0, 66, 35
1, 243453, Control_c, 0, 64, 39
1, 243468, Control_c, 0, 64, 29
1, 243483, Control_c, 0, 64, 0
1, 243557, Control_c, 0, 64, 36
1, 243571, Control_c, 0, 64, 59
1, 243586, Control_c, 0, 64, 67
1, 243601, Control_c, 0, 64, 72
1, 243616, Control_c, 0, 64, 79
1, 243631, Control_c, 0, 64, 86
1, 243645, Control_c, 0, 64, 90
1, 243660, Control_c, 0, 64, 92
1, 243676, Control_c, 0, 64, 94
1, 243691, Control_c, 0, 64, 96
1, 243693, Note_off_c, 0, 58, 56
1, 243706, Control_c, 0, 64, 97
1, 243721, Control_c, 0, 64, 98
1, 243724, Note_off_c, 0, 54, 53
1, 243727, Note_off_c, 0, 48, 51
1, 243736, Control_c, 0, 64, 99
1, 243750, Control_c, 0, 64, 100
1, 243765, Control_c, 0, 64, 100
1, 243780, Control_c, 0, 64, 101
1, 243809, Control_c, 0, 64, 101
1, 243854, Control_c, 0, 64, 102
1, 244065, Note_on_c, 0, 38, 40
1, 244233, Note_off_c, 0, 38, 39
1, 244662, Control_c, 0, 64, 100
1, 244677, Control_c, 0, 64, 95
1, 244687, Note_on_c, 0, 57, 38
1, 244690, Note_on_c, 0, 53, 40
1, 244691, Control_c, 0, 64, 87
1, 244693, Note_on_c, 0, 47, 44
1, 244706, Control_c, 0, 64, 79
1, 244721, Control_c, 0, 64, 70
1, 244736, Control_c, 0, 64, 63
1, 244751, Control_c, 0, 64, 53
1, 244765, Control_c, 0, 64, 51
1, 244780, Control_c, 0, 64, 56
1, 244803, Control_c, 0, 64, 60
1, 244818, Control_c, 0, 64, 63
1, 244832, Control_c, 0, 64, 65
1, 244847, Control_c, 0, 64, 69
1, 244862, Control_c, 0, 64, 74
1, 244877, Control_c, 0, 64, 81
1, 244892, Control_c, 0, 64, 86
1, 244906, Control_c, 0, 64, 88
1, 244921, Control_c, 0, 64, 90
1, 244936, Control_c, 0, 64, 91
1, 244937, Note_off_c, 0, 57, 60
1, 244942, Note_off_c, 0, 64, 56
1, 244950, Control_c, 0, 64, 92
1, 244961, Note_off_c, 0, 53, 65
1, 244965, Control_c, 0, 64, 93
1, 244980, Control_c, 0, 64, 94
1, 244995, Control_c, 0, 64, 95
1, 245010, Control_c, 0, 64, 96
1, 245024, Control_c, 0, 64, 96
1, 245039, Control_c, 0, 64, 97
1, 245051, Note_off_c, 0, 47, 50
1, 245069, Control_c, 0, 64, 97
1, 245113, Control_c, 0, 64, 98
1, 245376, Note_on_c, 0, 37, 39
1, 245387, Note_on_c, 0, 63, 30
1, 245399, Note_on_c, 0, 75, 44
1, 245464, Note_off_c, 0, 76, 38
1, 245714, Note_off_c, 0, 37, 54
1, 245719, Note_off_c, 0, 75, 37
1, 245752, Note_off_c, 0, 63, 42
1, 246144, Control_c, 0, 64, 96
1, 246159, Control_c, 0, 64, 93
1, 246174, Control_c, 0, 64, 89
1, 246189, Control_c, 0, 64, 84
1, 246194, Note_on_c, 0, 74, 48
1, 246201, Note_on_c, 0, 36, 47
1, 246204, Note_on_c, 0, 70, 42
1, 246204, Control_c, 0, 64, 79
1, 246207, Note_on_c, 0, 66, 40
1, 246213, Note_on_c, 0, 62, 44
1, 246219, Control_c, 0, 64, 73
1, 246234, Control_c, 0, 64, 68
1, 246249, Control_c, 0, 64, 64
1, 246250, Note_off_c, 0, 70, 0
1, 246250, Note_on_c, 0, 70, 15
1, 246263, Control_c, 0, 64, 62
1, 246278, Control_c, 0, 64, 61
1, 246300, Control_c, 0, 64, 60
1, 246315, Control_c, 0, 64, 58
1, 246330, Control_c, 0, 64, 53
1, 246344, Control_c, 0, 64, 47
1, 246359, Control_c, 0, 64, 43
1, 246374, Control_c, 0, 64, 44
1, 246389, Control_c, 0, 64, 45
1, 246404, Control_c, 0, 64, 45
1, 246419, Control_c, 0, 64, 47
1, 246433, Control_c, 0, 64, 50
1, 246448, Control_c, 0, 64, 55
1, 246463, Control_c, 0, 64, 61
1, 246478, Control_c, 0, 64, 64
1, 246493, Control_c, 0, 64, 68
1, 246508, Control_c, 0, 64, 73
1, 246523, Control_c, 0, 64, 77
1, 246537, Control_c, 0, 64, 82
1, 246553, Control_c, 0, 64, 85
1, 246568, Control_c, 0, 64, 88
1, 246583, Control_c, 0, 64, 90
1, 246597, Control_c, 0, 64, 93
1, 246612, Control_c, 0, 64, 95
1, 246627, Control_c, 0, 64, 97
1, 246642, Control_c, 0, 64, 98
1, 246657, Control_c, 0, 64, 100
1, 246671, Control_c, 0, 64, 101
1, 246686, Control_c, 0, 64, 102
1, 246690, Note_off_c, 0, 66, 36
1, 246701, Control_c, 0, 64, 103
1, 246707, Note_off_c, 0, 62, 53
1, 246715, Control_c, 0, 64, 103
1, 246760, Control_c, 0, 64, 104
1, 246843, Note_on_c, 0, 66, 45
1, 246860, Note_on_c, 0, 62, 39
1, 246933, Note_off_c, 0, 70, 30
1, 247027, Control_c, 0, 64, 104
1, 247059, Note_off_c, 0, 66, 38
1, 247092, Note_off_c, 0, 62, 60
1, 247116, Note_on_c, 0, 42, 48
1, 247155, Note_off_c, 0, 42, 63
1, 247158, Note_off_c, 0, 36, 40
1, 247242, Control_c, 0, 64, 105
1, 247399, Note_on_c, 0, 63, 58
1, 247402, Note_on_c, 0, 75, 67
1, 247402, Note_off_c, 0, 74, 56
1, 247410, Note_on_c, 0, 49, 53
1, 247411, Note_on_c, 0, 47, 54
1, 247685, Note_off_c, 0, 63, 63
1, 247717, Control_c, 0, 64, 105
1, 247873, Note_on_c, 0, 65, 62
1, 247891, Note_on_c, 0, 61, 57
1, 248013, Note_off_c, 0, 61, 61
1, 248059, Note_off_c, 0, 65, 63
1, 248093, Note_on_c, 0, 55, 65
1, 248130, Note_off_c, 0, 75, 65
1, 248336, Note_on_c, 0, 82, 77
1, 248344, Note_on_c, 0, 70, 62
1, 248355, Note_on_c, 0, 60, 60
1, 248363, Note_off_c, 0, 47, 36
1, 248404, Note_off_c, 0, 55, 64
1, 248410, Note_off_c, 0, 49, 61
1, 248739, Control_c, 0, 64, 105
1, 248754, Control_c, 0, 64, 104
1, 248769, Control_c, 0, 64, 103
1, 248783, Control_c, 0, 64, 99
1, 248798, Control_c, 0, 64, 92
1, 248813, Control_c, 0, 64, 83
1, 248821, Note_on_c, 0, 64, 61
1, 248828, Control_c, 0, 64, 74
1, 248843, Control_c, 0, 64, 65
1, 248857, Control_c, 0, 64, 46
1, 248872, Control_c, 0, 64, 0
1, 248946, Control_c, 0, 64, 60
1, 248958, Note_off_c, 0, 82, 62
1, 248961, Control_c, 0, 64, 68
1, 248976, Control_c, 0, 64, 75
1, 248991, Control_c, 0, 64, 83
1, 249006, Control_c, 0, 64, 87
1, 249021, Control_c, 0, 64, 89
1, 249024, Note_off_c, 0, 70, 63
1, 249036, Control_c, 0, 64, 90
1, 249051, Control_c, 0, 64, 91
1, 249065, Control_c, 0, 64, 92
1, 249080, Control_c, 0, 64, 93
1, 249095, Control_c, 0, 64, 94
1, 249109, Control_c, 0, 64, 95
1, 249124, Control_c, 0, 64, 95
1, 249139, Control_c, 0, 64, 96
1, 249154, Control_c, 0, 64, 96
1, 249169, Control_c, 0, 64, 97
1, 249183, Control_c, 0, 64, 97
1, 249213, Control_c, 0, 64, 98
1, 249292, Note_on_c, 0, 77, 72
1, 249295, Control_c, 0, 64, 96
1, 249301, Note_on_c, 0, 65, 53
1, 249310, Control_c, 0, 64, 91
1, 249325, Control_c, 0, 64, 82
1, 249340, Control_c, 0, 64, 70
1, 249355, Control_c, 0, 64, 52
1, 249370, Control_c, 0, 64, 0
1, 249444, Control_c, 0, 64, 62
1, 249459, Control_c, 0, 64, 70
1, 249474, Control_c, 0, 64, 79
1, 249486, Note_off_c, 0, 60, 60
1, 249488, Control_c, 0, 64, 86
1, 249503, Control_c, 0, 64, 90
1, 249518, Control_c, 0, 64, 92
1, 249533, Control_c, 0, 64, 94
1, 249548, Control_c, 0, 64, 97
1, 249563, Control_c, 0, 64, 100
1, 249578, Control_c, 0, 64, 103
1, 249593, Control_c, 0, 64, 104
1, 249607, Control_c, 0, 64, 106
1, 249622, Control_c, 0, 64, 107
1, 249637, Control_c, 0, 64, 110
1, 249652, Control_c, 0, 64, 113
1, 249667, Control_c, 0, 64, 115
1, 249726, Control_c, 0, 64, 110
1, 249740, Control_c, 0, 64, 99
1, 249742, Note_off_c, 0, 65, 66
1, 249755, Control_c, 0, 64, 84
1, 249762, Note_on_c, 0, 59, 48
1, 249764, Note_on_c, 0, 63, 56
1, 249770, Control_c, 0, 64, 70
1, 249785, Control_c, 0, 64, 43
1, 249787, Note_off_c, 0, 64, 53
1, 249800, Control_c, 0, 64, 0
1, 249805, Note_off_c, 0, 59, 0
1, 249805, Note_on_c, 0, 59, 8
1, 249918, Control_c, 0, 64, 55
1, 249933, Control_c, 0, 64, 66
1, 249948, Control_c, 0, 64, 70
1, 249963, Control_c, 0, 64, 75
1, 249972, Note_on_c, 0, 80, 73
1, 249978, Control_c, 0, 64, 80
1, 249987, Note_on_c, 0, 68, 46
1, 249993, Control_c, 0, 64, 87
1, 249999, Note_off_c, 0, 77, 59
1, 250007, Control_c, 0, 64, 92
1, 250022, Control_c, 0, 64, 94
1, 250044, Control_c, 0, 64, 96
1, 250060, Control_c, 0, 64, 98
1, 250075, Control_c, 0, 64, 100
1, 250090, Control_c, 0, 64, 102
1, 250105, Control_c, 0, 64, 103
1, 250107, Note_off_c, 0, 68, 52
1, 250119, Control_c, 0, 64, 104
1, 250149, Control_c, 0, 64, 104
1, 250163, Control_c, 0, 64, 105
1, 250178, Control_c, 0, 64, 106
1, 250208, Control_c, 0, 64, 106
1, 250216, Note_off_c, 0, 80, 63
1, 250267, Control_c, 0, 64, 107
1, 250278, Note_off_c, 0, 63, 57
1, 250323, Note_on_c, 0, 87, 77
1, 250343, Note_on_c, 0, 75, 41
1, 250357, Note_off_c, 0, 59, 40
1, 250793, Control_c, 0, 64, 105
1, 250806, Note_on_c, 0, 62, 44
1, 250808, Control_c, 0, 64, 100
1, 250818, Note_on_c, 0, 58, 43
1, 250823, Control_c, 0, 64, 94
1, 250837, Control_c, 0, 64, 87
1, 250852, Control_c, 0, 64, 80
1, 250868, Control_c, 0, 64, 73
1, 250883, Control_c, 0, 64, 67
1, 250898, Control_c, 0, 64, 63
1, 250913, Control_c, 0, 64, 62
1, 250928, Control_c, 0, 64, 63
1, 250942, Control_c, 0, 64, 64
1, 250957, Control_c, 0, 64, 66
1, 250972, Control_c, 0, 64, 68
1, 250986, Control_c, 0, 64, 71
1, 251001, Control_c, 0, 64, 75
1, 251016, Control_c, 0, 64, 78
1, 251031, Control_c, 0, 64, 80
1, 251046, Control_c, 0, 64, 82
1, 251060, Control_c, 0, 64, 83
1, 251062, Note_off_c, 0, 58, 60
1, 251075, Control_c, 0, 64, 84
1, 251090, Control_c, 0, 64, 86
1, 251105, Control_c, 0, 64, 88
1, 251120, Control_c, 0, 64, 88
1, 251134, Control_c, 0, 64, 89
1, 251149, Control_c, 0, 64, 89
1, 251239, Control_c, 0, 64, 89
1, 251254, Control_c, 0, 64, 85
1, 251255, Note_off_c, 0, 62, 35
1, 251268, Control_c, 0, 64, 80
1, 251269, Note_on_c, 0, 61, 44
1, 251278, Note_on_c, 0, 57, 40
1, 251283, Control_c, 0, 64, 71
1, 251298, Control_c, 0, 64, 65
1, 251313, Control_c, 0, 64, 60
1, 251342, Control_c, 0, 64, 62
1, 251357, Control_c, 0, 64, 64
1, 251372, Control_c, 0, 64, 66
1, 251386, Control_c, 0, 64, 69
1, 251401, Control_c, 0, 64, 73
1, 251416, Control_c, 0, 64, 77
1, 251431, Control_c, 0, 64, 80
1, 251446, Control_c, 0, 64, 82
1, 251455, Note_off_c, 0, 61, 60
1, 251460, Control_c, 0, 64, 84
1, 251475, Control_c, 0, 64, 85
1, 251490, Control_c, 0, 64, 87
1, 251503, Note_off_c, 0, 75, 54
1, 251504, Control_c, 0, 64, 88
1, 251519, Control_c, 0, 64, 89
1, 251532, Note_off_c, 0, 87, 50
1, 251542, Control_c, 0, 64, 89
1, 251557, Control_c, 0, 64, 90
1, 251586, Control_c, 0, 64, 90
1, 251691, Control_c, 0, 64, 90
1, 251706, Control_c, 0, 64, 86
1, 251721, Control_c, 0, 64, 79
1, 251734, Note_on_c, 0, 56, 41
1, 251736, Control_c, 0, 64, 70
1, 251738, Note_on_c, 0, 74, 45
1, 251738, Note_off_c, 0, 57, 33
1, 251742, Note_on_c, 0, 86, 48
1, 251742, Note_on_c, 0, 60, 38
1, 251751, Control_c, 0, 64, 62
1, 251765, Control_c, 0, 64, 49
1, 251780, Control_c, 0, 64, 50
1, 251793, Control_c, 0, 64, 56
1, 251808, Control_c, 0, 64, 62
1, 251823, Control_c, 0, 64, 66
1, 251838, Control_c, 0, 64, 71
1, 251853, Control_c, 0, 64, 75
1, 251858, Note_off_c, 0, 86, 64
1, 251868, Control_c, 0, 64, 80
1, 251882, Control_c, 0, 64, 83
1, 251894, Note_off_c, 0, 74, 66
1, 251897, Control_c, 0, 64, 84
1, 251912, Control_c, 0, 64, 85
1, 251922, Note_off_c, 0, 60, 57
1, 251926, Control_c, 0, 64, 86
1, 251941, Control_c, 0, 64, 87
1, 251946, Note_off_c, 0, 56, 40
1, 251956, Control_c, 0, 64, 88
1, 251971, Control_c, 0, 64, 89
1, 251986, Control_c, 0, 64, 90
1, 252000, Control_c, 0, 64, 90
1, 252030, Control_c, 0, 64, 91
1, 252045, Control_c, 0, 64, 91
1, 252060, Control_c, 0, 64, 92
1, 252148, Control_c, 0, 64, 90
1, 252163, Control_c, 0, 64, 85
1, 252175, Note_on_c, 0, 74, 61
1, 252178, Control_c, 0, 64, 77
1, 252184, Note_on_c, 0, 62, 51
1, 252187, Note_on_c, 0, 59, 37
1, 252190, Note_on_c, 0, 55, 42
1, 252193, Control_c, 0, 64, 68
1, 252207, Control_c, 0, 64, 60
1, 252219, Note_off_c, 0, 62, 0
1, 252219, Note_on_c, 0, 62, 21
1, 252222, Control_c, 0, 64, 46
1, 252237, Control_c, 0, 64, 36
1, 252252, Control_c, 0, 64, 38
1, 252267, Control_c, 0, 64, 44
1, 252289, Control_c, 0, 64, 52
1, 252304, Control_c, 0, 64, 60
1, 252319, Control_c, 0, 64, 65
1, 252333, Control_c, 0, 64, 69
1, 252348, Control_c, 0, 64, 74
1, 252363, Control_c, 0, 64, 78
1, 252378, Control_c, 0, 64, 82
1, 252393, Control_c, 0, 64, 85
1, 252407, Control_c, 0, 64, 87
1, 252413, Note_off_c, 0, 62, 60
1, 252422, Control_c, 0, 64, 88
1, 252437, Control_c, 0, 64, 89
1, 252453, Control_c, 0, 64, 89
1, 252468, Control_c, 0, 64, 90
1, 252483, Control_c, 0, 64, 90
1, 252485, Note_off_c, 0, 55, 42
1, 252498, Control_c, 0, 64, 91
1, 252512, Control_c, 0, 64, 91
1, 252527, Control_c, 0, 64, 92
1, 252637, Note_on_c, 0, 54, 42
1, 252643, Note_on_c, 0, 58, 43
1, 252646, Control_c, 0, 64, 92
1, 252837, Note_off_c, 0, 58, 55
1, 252849, Note_on_c, 0, 77, 62
1, 252856, Note_on_c, 0, 65, 51
1, 252859, Note_off_c, 0, 74, 59
1, 252917, Note_off_c, 0, 54, 39
1, 252921, Note_off_c, 0, 65, 62
1, 252941, Note_off_c, 0, 59, 40
1, 253013, Note_off_c, 0, 77, 61
1, 253143, Control_c, 0, 64, 92
1, 253157, Control_c, 0, 64, 90
1, 253172, Control_c, 0, 64, 85
1, 253177, Note_on_c, 0, 84, 66
1, 253187, Control_c, 0, 64, 78
1, 253193, Note_on_c, 0, 72, 36
1, 253197, Note_on_c, 0, 53, 39
1, 253197, Note_on_c, 0, 57, 37
1, 253202, Control_c, 0, 64, 69
1, 253217, Control_c, 0, 64, 60
1, 253231, Control_c, 0, 64, 39
1, 253246, Control_c, 0, 64, 0
1, 253247, Note_off_c, 0, 72, 0
1, 253247, Note_on_c, 0, 72, 3
1, 253322, Control_c, 0, 64, 27
1, 253336, Control_c, 0, 64, 51
1, 253351, Control_c, 0, 64, 62
1, 253366, Control_c, 0, 64, 66
1, 253380, Control_c, 0, 64, 69
1, 253395, Control_c, 0, 64, 74
1, 253410, Control_c, 0, 64, 79
1, 253425, Control_c, 0, 64, 82
1, 253440, Control_c, 0, 64, 84
1, 253454, Control_c, 0, 64, 85
1, 253459, Note_off_c, 0, 53, 42
1, 253469, Control_c, 0, 64, 86
1, 253484, Control_c, 0, 64, 87
1, 253499, Control_c, 0, 64, 87
1, 253543, Control_c, 0, 64, 87
1, 253558, Control_c, 0, 64, 85
1, 253573, Control_c, 0, 64, 81
1, 253576, Note_off_c, 0, 57, 26
1, 253588, Control_c, 0, 64, 72
1, 253603, Control_c, 0, 64, 64
1, 253609, Note_on_c, 0, 56, 45
1, 253617, Control_c, 0, 64, 48
1, 253632, Control_c, 0, 64, 37
1, 253641, Note_on_c, 0, 52, 36
1, 253647, Control_c, 0, 64, 38
1, 253662, Control_c, 0, 64, 46
1, 253677, Control_c, 0, 64, 57
1, 253692, Control_c, 0, 64, 64
1, 253706, Control_c, 0, 64, 69
1, 253721, Control_c, 0, 64, 73
1, 253736, Control_c, 0, 64, 77
1, 253751, Control_c, 0, 64, 79
1, 253766, Control_c, 0, 64, 82
1, 253787, Control_c, 0, 64, 83
1, 253802, Control_c, 0, 64, 85
1, 253817, Control_c, 0, 64, 86
1, 253832, Control_c, 0, 64, 86
1, 253837, Note_off_c, 0, 52, 50
1, 253847, Control_c, 0, 64, 87
1, 253862, Control_c, 0, 64, 88
1, 253871, Note_on_c, 0, 60, 55
1, 253877, Control_c, 0, 64, 88
1, 253878, Note_off_c, 0, 56, 62
1, 253892, Control_c, 0, 64, 89
1, 253906, Control_c, 0, 64, 90
1, 253951, Control_c, 0, 64, 90
1, 253980, Control_c, 0, 64, 91
1, 254255, Note_on_c, 0, 67, 52
1, 254342, Note_off_c, 0, 60, 36
1, 254452, Note_off_c, 0, 72, 52
1, 254484, Note_off_c, 0, 84, 53
1, 254873, Note_on_c, 0, 83, 37
1, 254936, Poly_aftertouch_c, 0, 71, 127
1, 254990, Poly_aftertouch_c, 0, 71, 0
1, 254995, Note_off_c, 0, 83, 55
1, 255300, Control_c, 0, 64, 90
1, 255329, Control_c, 0, 64, 90
1, 255344, Control_c, 0, 64, 89
1, 255358, Control_c, 0, 64, 89
1, 255388, Control_c, 0, 64, 88
1, 255403, Control_c, 0, 64, 88
1, 255418, Control_c, 0, 64, 87
1, 255433, Control_c, 0, 64, 87
1, 255448, Control_c, 0, 64, 86
1, 255463, Control_c, 0, 64, 86
1, 255477, Control_c, 0, 64, 85
1, 255492, Control_c, 0, 64, 85
1, 255507, Control_c, 0, 64, 84
1, 255522, Control_c, 0, 64, 84
1, 255537, Control_c, 0, 64, 83
1, 255551, Control_c, 0, 64, 82
1, 255555, Note_on_c, 0, 70, 44
1, 255566, Control_c, 0, 64, 81
1, 255581, Control_c, 0, 64, 80
1, 255596, Control_c, 0, 64, 79
1, 255611, Control_c, 0, 64, 78
1, 255625, Control_c, 0, 64, 77
1, 255640, Control_c, 0, 64, 75
1, 255656, Control_c, 0, 64, 74
1, 255671, Control_c, 0, 64, 72
1, 255686, Control_c, 0, 64, 71
1, 255701, Control_c, 0, 64, 69
1, 255716, Control_c, 0, 64, 69
1, 255730, Control_c, 0, 64, 68
1, 255745, Control_c, 0, 64, 67
1, 255760, Control_c, 0, 64, 67
1, 255774, Control_c, 0, 64, 66
1, 255789, Control_c, 0, 64, 65
1, 255804, Control_c, 0, 64, 65
1, 255819, Control_c, 0, 64, 64
1, 255834, Control_c, 0, 64, 64
1, 255848, Control_c, 0, 64, 63
1, 255863, Control_c, 0, 64, 62
1, 255878, Control_c, 0, 64, 61
1, 255893, Control_c, 0, 64, 60
1, 255922, Control_c, 0, 64, 60
1, 255937, Control_c, 0, 64, 59
1, 255952, Control_c, 0, 64, 58
1, 255967, Control_c, 0, 64, 57
1, 255981, Control_c, 0, 64, 57
1, 256011, Control_c, 0, 64, 56
1, 256034, Control_c, 0, 64, 56
1, 256123, Note_on_c, 0, 66, 34
1, 256151, Note_off_c, 0, 67, 47
1, 256211, Control_c, 0, 64, 56
1, 256226, Control_c, 0, 64, 57
1, 256256, Control_c, 0, 64, 57
1, 256270, Control_c, 0, 64, 58
1, 256286, Control_c, 0, 64, 58
1, 256300, Control_c, 0, 64, 59
1, 256315, Control_c, 0, 64, 60
1, 256330, Control_c, 0, 64, 61
1, 256345, Note_on_c, 0, 74, 37
1, 256345, Control_c, 0, 64, 61
1, 256360, Control_c, 0, 64, 62
1, 256375, Control_c, 0, 64, 62
1, 256390, Control_c, 0, 64, 63
1, 256405, Control_c, 0, 64, 64
1, 256420, Control_c, 0, 64, 64
1, 256434, Control_c, 0, 64, 65
1, 256450, Control_c, 0, 64, 65
1, 256494, Control_c, 0, 64, 66
1, 256524, Control_c, 0, 64, 66
1, 256554, Control_c, 0, 64, 67
1, 256583, Control_c, 0, 64, 67
1, 256598, Control_c, 0, 64, 68
1, 256613, Control_c, 0, 64, 68
1, 256624, Note_on_c, 0, 81, 44
1, 256628, Control_c, 0, 64, 69
1, 256643, Control_c, 0, 64, 71
1, 256658, Control_c, 0, 64, 73
1, 256672, Control_c, 0, 64, 75
1, 256687, Control_c, 0, 64, 78
1, 256702, Control_c, 0, 64, 80
1, 256716, Control_c, 0, 64, 82
1, 256731, Control_c, 0, 64, 84
1, 256746, Control_c, 0, 64, 85
1, 256761, Control_c, 0, 64, 87
1, 256783, Control_c, 0, 64, 88
1, 256785, Note_off_c, 0, 70, 51
1, 256798, Control_c, 0, 64, 89
1, 256813, Control_c, 0, 64, 90
1, 256828, Control_c, 0, 64, 90
1, 256846, Note_off_c, 0, 81, 36
1, 256905, Note_off_c, 0, 74, 37
1, 256946, Control_c, 0, 64, 91
1, 257090, Note_on_c, 0, 65, 36
1, 257121, Note_off_c, 0, 66, 43
1, 257481, Control_c, 0, 64, 90
1, 257510, Control_c, 0, 64, 89
1, 257532, Control_c, 0, 64, 87
1, 257547, Control_c, 0, 64, 84
1, 257552, Note_on_c, 0, 69, 42
1, 257562, Control_c, 0, 64, 80
1, 257577, Control_c, 0, 64, 76
1, 257592, Control_c, 0, 64, 71
1, 257607, Control_c, 0, 64, 66
1, 257621, Control_c, 0, 64, 64
1, 257710, Control_c, 0, 64, 65
1, 257725, Control_c, 0, 64, 65
1, 257740, Control_c, 0, 64, 67
1, 257755, Control_c, 0, 64, 68
1, 257770, Control_c, 0, 64, 69
1, 257785, Control_c, 0, 64, 70
1, 257800, Control_c, 0, 64, 72
1, 257815, Control_c, 0, 64, 72
1, 257829, Control_c, 0, 64, 73
1, 257859, Control_c, 0, 64, 73
1, 257992, Control_c, 0, 64, 73
1, 258002, Note_on_c, 0, 64, 39
1, 258007, Control_c, 0, 64, 72
1, 258008, Note_off_c, 0, 65, 56
1, 258021, Control_c, 0, 64, 71
1, 258036, Control_c, 0, 64, 70
1, 258052, Control_c, 0, 64, 69
1, 258067, Control_c, 0, 64, 68
1, 258156, Control_c, 0, 64, 68
1, 258170, Control_c, 0, 64, 69
1, 258185, Control_c, 0, 64, 71
1, 258190, Note_on_c, 0, 73, 57
1, 258200, Control_c, 0, 64, 73
1, 258215, Control_c, 0, 64, 75
1, 258230, Control_c, 0, 64, 77
1, 258244, Control_c, 0, 64, 78
1, 258253, Note_off_c, 0, 69, 65
1, 258259, Control_c, 0, 64, 80
1, 258282, Control_c, 0, 64, 81
1, 258297, Control_c, 0, 64, 82
1, 258312, Control_c, 0, 64, 83
1, 258326, Control_c, 0, 64, 83
1, 258356, Control_c, 0, 64, 84
1, 258385, Control_c, 0, 64, 84
1, 258432, Note_off_c, 0, 73, 31
1, 258474, Control_c, 0, 64, 83
1, 258489, Control_c, 0, 64, 81
1, 258503, Control_c, 0, 64, 79
1, 258518, Control_c, 0, 64, 75
1, 258532, Note_on_c, 0, 72, 47
1, 258533, Control_c, 0, 64, 71
1, 258538, Note_on_c, 0, 79, 54
1, 258541, Note_on_c, 0, 68, 39
1, 258548, Control_c, 0, 64, 66
1, 258563, Control_c, 0, 64, 63
1, 258577, Control_c, 0, 64, 62
1, 258607, Note_off_c, 0, 68, 0
1, 258607, Note_on_c, 0, 68, 3
1, 258651, Control_c, 0, 64, 62
1, 258666, Control_c, 0, 64, 63
1, 258681, Control_c, 0, 64, 64
1, 258695, Control_c, 0, 64, 66
1, 258710, Control_c, 0, 64, 68
1, 258725, Control_c, 0, 64, 70
1, 258740, Control_c, 0, 64, 73
1, 258755, Control_c, 0, 64, 76
1, 258769, Control_c, 0, 64, 78
1, 258784, Control_c, 0, 64, 79
1, 258799, Control_c, 0, 64, 79
1, 258814, Control_c, 0, 64, 80
1, 258829, Control_c, 0, 64, 81
1, 258845, Control_c, 0, 64, 81
1, 258948, Control_c, 0, 64, 80
1, 258963, Control_c, 0, 64, 78
1, 258978, Control_c, 0, 64, 74
1, 258992, Control_c, 0, 64, 70
1, 258998, Note_off_c, 0, 64, 41
1, 259007, Control_c, 0, 64, 66
1, 259020, Note_on_c, 0, 63, 36
1, 259030, Control_c, 0, 64, 65
1, 259060, Control_c, 0, 64, 65
1, 259089, Control_c, 0, 64, 66
1, 259104, Control_c, 0, 64, 67
1, 259118, Control_c, 0, 64, 68
1, 259133, Control_c, 0, 64, 70
1, 259148, Control_c, 0, 64, 73
1, 259163, Control_c, 0, 64, 76
1, 259178, Control_c, 0, 64, 78
1, 259192, Control_c, 0, 64, 79
1, 259207, Control_c, 0, 64, 80
1, 259222, Control_c, 0, 64, 80
1, 259237, Control_c, 0, 64, 81
1, 259252, Control_c, 0, 64, 81
1, 259253, Note_off_c, 0, 63, 51
1, 259266, Control_c, 0, 64, 82
1, 259290, Note_off_c, 0, 68, 41
1, 259394, Note_off_c, 0, 79, 24
1, 259430, Control_c, 0, 64, 81
1, 259445, Control_c, 0, 64, 80
1, 259460, Control_c, 0, 64, 77
1, 259475, Control_c, 0, 64, 74
1, 259490, Control_c, 0, 64, 70
1, 259496, Note_on_c, 0, 67, 46
1, 259503, Note_on_c, 0, 63, 39
1, 259505, Control_c, 0, 64, 65
1, 259519, Control_c, 0, 64, 63
1, 259534, Control_c, 0, 64, 62
1, 259566, Note_off_c, 0, 72, 58
1, 259579, Control_c, 0, 64, 62
1, 259593, Control_c, 0, 64, 61
1, 259608, Control_c, 0, 64, 60
1, 259623, Control_c, 0, 64, 61
1, 259638, Control_c, 0, 64, 62
1, 259654, Control_c, 0, 64, 62
1, 259669, Control_c, 0, 64, 63
1, 259684, Control_c, 0, 64, 63
1, 259698, Control_c, 0, 64, 64
1, 259713, Control_c, 0, 64, 65
1, 259728, Control_c, 0, 64, 66
1, 259742, Control_c, 0, 64, 67
1, 259757, Control_c, 0, 64, 69
1, 259779, Control_c, 0, 64, 70
1, 259794, Control_c, 0, 64, 72
1, 259809, Control_c, 0, 64, 75
1, 259824, Control_c, 0, 64, 76
1, 259839, Control_c, 0, 64, 77
1, 259854, Control_c, 0, 64, 78
1, 259868, Control_c, 0, 64, 79
1, 259883, Control_c, 0, 64, 80
1, 259898, Control_c, 0, 64, 81
1, 259913, Control_c, 0, 64, 82
1, 259957, Control_c, 0, 64, 82
1, 260208, Note_on_c, 0, 72, 50
1, 260264, Note_off_c, 0, 72, 0
1, 260264, Note_on_c, 0, 72, 16
1, 260301, Note_off_c, 0, 67, 45
1, 260477, Control_c, 0, 64, 81
1, 260488, Note_off_c, 0, 72, 40
1, 260491, Control_c, 0, 64, 78
1, 260505, Note_on_c, 0, 78, 58
1, 260506, Control_c, 0, 64, 75
1, 260523, Note_on_c, 0, 71, 40
1, 260528, Control_c, 0, 64, 71
1, 260531, Note_on_c, 0, 67, 33
1, 260536, Note_on_c, 0, 62, 35
1, 260543, Control_c, 0, 64, 66
1, 260558, Control_c, 0, 64, 63
1, 260560, Note_off_c, 0, 63, 39
1, 260572, Control_c, 0, 64, 61
1, 260587, Control_c, 0, 64, 60
1, 260602, Control_c, 0, 64, 58
1, 260617, Control_c, 0, 64, 56
1, 260632, Control_c, 0, 64, 54
1, 260646, Control_c, 0, 64, 53
1, 260661, Control_c, 0, 64, 53
1, 260676, Control_c, 0, 64, 55
1, 260691, Control_c, 0, 64, 58
1, 260706, Control_c, 0, 64, 60
1, 260721, Control_c, 0, 64, 62
1, 260736, Control_c, 0, 64, 63
1, 260751, Control_c, 0, 64, 64
1, 260766, Control_c, 0, 64, 66
1, 260780, Control_c, 0, 64, 67
1, 260795, Control_c, 0, 64, 69
1, 260810, Control_c, 0, 64, 71
1, 260825, Control_c, 0, 64, 72
1, 260840, Control_c, 0, 64, 73
1, 260854, Control_c, 0, 64, 75
1, 260869, Control_c, 0, 64, 76
1, 260884, Control_c, 0, 64, 77
1, 260898, Control_c, 0, 64, 78
1, 260913, Control_c, 0, 64, 78
1, 260928, Control_c, 0, 64, 79
1, 260958, Control_c, 0, 64, 79
1, 260987, Control_c, 0, 64, 80
1, 261002, Control_c, 0, 64, 80
1, 261032, Control_c, 0, 64, 81
1, 261046, Control_c, 0, 64, 81
1, 261076, Control_c, 0, 64, 82
1, 261091, Control_c, 0, 64, 82
1, 261180, Control_c, 0, 64, 82
1, 261195, Control_c, 0, 64, 80
1, 261210, Control_c, 0, 64, 78
1, 261213, Note_off_c, 0, 62, 41
1, 261225, Control_c, 0, 64, 74
1, 261240, Control_c, 0, 64, 70
1, 261255, Control_c, 0, 64, 67
1, 261258, Note_on_c, 0, 61, 34
1, 261277, Control_c, 0, 64, 67
1, 261307, Control_c, 0, 64, 68
1, 261321, Control_c, 0, 64, 69
1, 261336, Control_c, 0, 64, 72
1, 261347, Note_off_c, 0, 67, 61
1, 261351, Control_c, 0, 64, 75
1, 261366, Control_c, 0, 64, 77
1, 261381, Control_c, 0, 64, 79
1, 261395, Control_c, 0, 64, 80
1, 261398, Note_off_c, 0, 61, 63
1, 261410, Control_c, 0, 64, 81
1, 261425, Control_c, 0, 64, 81
1, 261440, Control_c, 0, 64, 82
1, 261484, Control_c, 0, 64, 82
1, 261588, Control_c, 0, 64, 82
1, 261603, Control_c, 0, 64, 81
1, 261617, Note_on_c, 0, 66, 47
1, 261618, Control_c, 0, 64, 78
1, 261633, Control_c, 0, 64, 74
1, 261634, Note_on_c, 0, 61, 45
1, 261648, Control_c, 0, 64, 69
1, 261663, Control_c, 0, 64, 65
1, 261677, Control_c, 0, 64, 63
1, 261689, Note_off_c, 0, 78, 30
1, 261692, Control_c, 0, 64, 62
1, 261707, Note_off_c, 0, 71, 56
1, 261721, Control_c, 0, 64, 62
1, 261736, Control_c, 0, 64, 61
1, 261751, Control_c, 0, 64, 60
1, 261766, Control_c, 0, 64, 59
1, 261810, Control_c, 0, 64, 59
1, 261825, Control_c, 0, 64, 60
1, 261855, Control_c, 0, 64, 60
1, 261869, Control_c, 0, 64, 61
1, 261884, Control_c, 0, 64, 62
1, 261899, Control_c, 0, 64, 63
1, 261913, Control_c, 0, 64, 64
1, 261928, Control_c, 0, 64, 64
1, 261943, Control_c, 0, 64, 65
1, 261958, Control_c, 0, 64, 65
1, 261973, Control_c, 0, 64, 66
1, 261988, Control_c, 0, 64, 67
1, 262003, Control_c, 0, 64, 68
1, 262025, Control_c, 0, 64, 69
1, 262041, Control_c, 0, 64, 69
1, 262056, Control_c, 0, 64, 71
1, 262071, Control_c, 0, 64, 72
1, 262086, Control_c, 0, 64, 74
1, 262100, Control_c, 0, 64, 76
1, 262115, Control_c, 0, 64, 78
1, 262130, Control_c, 0, 64, 79
1, 262144, Control_c, 0, 64, 80
1, 262159, Control_c, 0, 64, 81
1, 262174, Control_c, 0, 64, 81
1, 262189, Control_c, 0, 64, 82
1, 262204, Control_c, 0, 64, 83
1, 262218, Control_c, 0, 64, 83
1, 262233, Control_c, 0, 64, 84
1, 262269, Note_off_c, 0, 61, 38
1, 262385, Note_on_c, 0, 70, 50
1, 262715, Note_on_c, 0, 76, 50
1, 262722, Note_on_c, 0, 61, 41
1, 263089, Note_off_c, 0, 76, 35
1, 263221, Note_off_c, 0, 70, 52
1, 263222, Note_off_c, 0, 66, 41
1, 263330, Note_off_c, 0, 61, 35
1, 263568, Note_on_c, 0, 60, 39
1, 263702, Note_off_c, 0, 60, 33
1, 263922, Control_c, 0, 64, 83
1, 263937, Control_c, 0, 64, 83
1, 263952, Control_c, 0, 64, 81
1, 263967, Control_c, 0, 64, 79
1, 263982, Control_c, 0, 64, 77
1, 263986, Note_on_c, 0, 56, 47
1, 263994, Note_on_c, 0, 60, 37
1, 263997, Control_c, 0, 64, 72
1, 264012, Control_c, 0, 64, 67
1, 264027, Control_c, 0, 64, 64
1, 264042, Control_c, 0, 64, 62
1, 264071, Control_c, 0, 64, 61
1, 264086, Control_c, 0, 64, 60
1, 264101, Control_c, 0, 64, 58
1, 264115, Control_c, 0, 64, 56
1, 264130, Control_c, 0, 64, 57
1, 264145, Control_c, 0, 64, 57
1, 264160, Control_c, 0, 64, 59
1, 264175, Control_c, 0, 64, 60
1, 264189, Control_c, 0, 64, 62
1, 264204, Control_c, 0, 64, 63
1, 264219, Control_c, 0, 64, 65
1, 264234, Control_c, 0, 64, 66
1, 264249, Control_c, 0, 64, 68
1, 264271, Control_c, 0, 64, 71
1, 264286, Control_c, 0, 64, 73
1, 264301, Control_c, 0, 64, 75
1, 264315, Control_c, 0, 64, 76
1, 264330, Control_c, 0, 64, 78
1, 264345, Control_c, 0, 64, 80
1, 264353, Note_off_c, 0, 60, 64
1, 264360, Control_c, 0, 64, 81
1, 264375, Control_c, 0, 64, 82
1, 264389, Control_c, 0, 64, 83
1, 264404, Control_c, 0, 64, 83
1, 264419, Control_c, 0, 64, 84
1, 264434, Control_c, 0, 64, 85
1, 264450, Control_c, 0, 64, 85
1, 264465, Control_c, 0, 64, 86
1, 264480, Control_c, 0, 64, 86
1, 264524, Control_c, 0, 64, 87
1, 264608, Note_on_c, 0, 60, 47
1, 265127, Note_off_c, 0, 56, 41
1, 265185, Note_on_c, 0, 66, 54
1, 265197, Control_c, 0, 64, 86
1, 265287, Control_c, 0, 64, 86
1, 265360, Control_c, 0, 64, 85
1, 265460, Note_off_c, 0, 60, 30
1, 265464, Control_c, 0, 64, 85
1, 265523, Control_c, 0, 64, 84
1, 265583, Control_c, 0, 64, 84
1, 265642, Control_c, 0, 64, 83
1, 265672, Control_c, 0, 64, 83
1, 265716, Control_c, 0, 64, 82
1, 265731, Control_c, 0, 64, 81
1, 265746, Control_c, 0, 64, 80
1, 265768, Control_c, 0, 64, 79
1, 265783, Control_c, 0, 64, 78
1, 265797, Control_c, 0, 64, 77
1, 265812, Control_c, 0, 64, 75
1, 265827, Note_on_c, 0, 55, 35
1, 265827, Control_c, 0, 64, 73
1, 265842, Control_c, 0, 64, 71
1, 265857, Control_c, 0, 64, 70
1, 265872, Control_c, 0, 64, 68
1, 265886, Control_c, 0, 64, 67
1, 265901, Control_c, 0, 64, 67
1, 265916, Control_c, 0, 64, 66
1, 265931, Control_c, 0, 64, 65
1, 265946, Control_c, 0, 64, 65
1, 265960, Control_c, 0, 64, 64
1, 265990, Control_c, 0, 64, 64
1, 266005, Control_c, 0, 64, 63
1, 266020, Control_c, 0, 64, 63
1, 266036, Control_c, 0, 64, 62
1, 266051, Control_c, 0, 64, 62
1, 266081, Control_c, 0, 64, 61
1, 266096, Control_c, 0, 64, 61
1, 266288, Control_c, 0, 64, 60
1, 266347, Control_c, 0, 64, 61
1, 266366, Note_on_c, 0, 59, 33
1, 266377, Control_c, 0, 64, 61
1, 266391, Control_c, 0, 64, 62
1, 266406, Control_c, 0, 64, 62
1, 266421, Control_c, 0, 64, 63
1, 266436, Control_c, 0, 64, 64
1, 266451, Control_c, 0, 64, 65
1, 266465, Control_c, 0, 64, 66
1, 266480, Control_c, 0, 64, 67
1, 266495, Control_c, 0, 64, 69
1, 266517, Control_c, 0, 64, 70
1, 266532, Control_c, 0, 64, 72
1, 266547, Control_c, 0, 64, 73
1, 266562, Control_c, 0, 64, 75
1, 266577, Control_c, 0, 64, 76
1, 266591, Control_c, 0, 64, 78
1, 266606, Control_c, 0, 64, 79
1, 266621, Control_c, 0, 64, 79
1, 266636, Control_c, 0, 64, 80
1, 266651, Control_c, 0, 64, 80
1, 266665, Control_c, 0, 64, 81
1, 266680, Control_c, 0, 64, 81
1, 266695, Control_c, 0, 64, 82
1, 266710, Control_c, 0, 64, 82
1, 266724, Control_c, 0, 64, 83
1, 266739, Control_c, 0, 64, 83
1, 266754, Control_c, 0, 64, 84
1, 266769, Control_c, 0, 64, 84
1, 266784, Control_c, 0, 64, 85
1, 266799, Control_c, 0, 64, 85
1, 266814, Control_c, 0, 64, 86
1, 266824, Note_off_c, 0, 59, 31
1, 266856, Note_on_c, 0, 64, 47
1, 266859, Control_c, 0, 64, 86
1, 266888, Note_off_c, 0, 55, 42
1, 266888, Control_c, 0, 64, 87
1, 266903, Control_c, 0, 64, 87
1, 266977, Note_off_c, 0, 66, 31
1, 267142, Note_off_c, 0, 64, 55
1, 267311, Control_c, 0, 64, 87
1, 267326, Control_c, 0, 64, 85
1, 267335, Note_on_c, 0, 54, 40
1, 267340, Control_c, 0, 64, 83
1, 267341, Note_on_c, 0, 64, 46
1, 267355, Control_c, 0, 64, 79
1, 267370, Control_c, 0, 64, 74
1, 267385, Control_c, 0, 64, 70
1, 267400, Control_c, 0, 64, 66
1, 267414, Control_c, 0, 64, 64
1, 267429, Control_c, 0, 64, 64
1, 267518, Control_c, 0, 64, 64
1, 267532, Control_c, 0, 64, 65
1, 267547, Control_c, 0, 64, 66
1, 267562, Control_c, 0, 64, 66
1, 267577, Control_c, 0, 64, 67
1, 267622, Control_c, 0, 64, 67
1, 267652, Control_c, 0, 64, 68
1, 267676, Note_on_c, 0, 62, 44
1, 267682, Control_c, 0, 64, 69
1, 267697, Control_c, 0, 64, 69
1, 267711, Control_c, 0, 64, 70
1, 267726, Control_c, 0, 64, 70
1, 267741, Control_c, 0, 64, 71
1, 267771, Control_c, 0, 64, 72
1, 267786, Control_c, 0, 64, 72
1, 267801, Control_c, 0, 64, 73
1, 267816, Control_c, 0, 64, 74
1, 267830, Control_c, 0, 64, 75
1, 267845, Control_c, 0, 64, 75
1, 267854, Note_on_c, 0, 58, 37
1, 267860, Control_c, 0, 64, 76
1, 267875, Control_c, 0, 64, 77
1, 267889, Control_c, 0, 64, 78
1, 267904, Control_c, 0, 64, 79
1, 267919, Control_c, 0, 64, 79
1, 267948, Control_c, 0, 64, 80
1, 268020, Note_on_c, 0, 60, 43
1, 268170, Note_off_c, 0, 62, 38
1, 268218, Note_off_c, 0, 58, 37
1, 268281, Note_off_c, 0, 54, 32
1, 268385, Control_c, 0, 64, 79
1, 268400, Control_c, 0, 64, 79
1, 268415, Control_c, 0, 64, 78
1, 268431, Control_c, 0, 64, 77
1, 268446, Control_c, 0, 64, 75
1, 268460, Control_c, 0, 64, 74
1, 268462, Note_on_c, 0, 61, 49
1, 268475, Control_c, 0, 64, 72
1, 268490, Control_c, 0, 64, 71
1, 268504, Control_c, 0, 64, 70
1, 268519, Control_c, 0, 64, 69
1, 268534, Control_c, 0, 64, 68
1, 268541, Note_off_c, 0, 64, 27
1, 268549, Control_c, 0, 64, 68
1, 268564, Control_c, 0, 64, 67
1, 268579, Control_c, 0, 64, 67
1, 268594, Control_c, 0, 64, 66
1, 268608, Note_off_c, 0, 60, 56
1, 268608, Control_c, 0, 64, 65
1, 268623, Control_c, 0, 64, 65
1, 268653, Control_c, 0, 64, 64
1, 268683, Control_c, 0, 64, 64
1, 268697, Control_c, 0, 64, 63
1, 268727, Control_c, 0, 64, 63
1, 268742, Control_c, 0, 64, 62
1, 268778, Control_c, 0, 64, 62
1, 268793, Control_c, 0, 64, 61
1, 268808, Control_c, 0, 64, 60
1, 268823, Control_c, 0, 64, 60
1, 268853, Control_c, 0, 64, 59
1, 268883, Control_c, 0, 64, 59
1, 268972, Control_c, 0, 64, 58
1, 269056, Note_on_c, 0, 53, 34
1, 269178, Control_c, 0, 64, 59
1, 269193, Control_c, 0, 64, 59
1, 269223, Control_c, 0, 64, 60
1, 269239, Control_c, 0, 64, 60
1, 269254, Control_c, 0, 64, 61
1, 269283, Control_c, 0, 64, 62
1, 269298, Control_c, 0, 64, 62
1, 269313, Control_c, 0, 64, 63
1, 269327, Control_c, 0, 64, 63
1, 269342, Control_c, 0, 64, 64
1, 269357, Control_c, 0, 64, 64
1, 269372, Control_c, 0, 64, 65
1, 269387, Control_c, 0, 64, 65
1, 269401, Control_c, 0, 64, 66
1, 269416, Control_c, 0, 64, 66
1, 269431, Control_c, 0, 64, 67
1, 269461, Control_c, 0, 64, 67
1, 269476, Control_c, 0, 64, 68
1, 269513, Control_c, 0, 64, 68
1, 269527, Control_c, 0, 64, 69
1, 269535, Note_on_c, 0, 57, 33
1, 269557, Control_c, 0, 64, 69
1, 269572, Control_c, 0, 64, 70
1, 269587, Control_c, 0, 64, 70
1, 269601, Control_c, 0, 64, 71
1, 269616, Control_c, 0, 64, 72
1, 269631, Control_c, 0, 64, 73
1, 269646, Control_c, 0, 64, 74
1, 269661, Control_c, 0, 64, 76
1, 269676, Control_c, 0, 64, 76
1, 269690, Control_c, 0, 64, 77
1, 269705, Control_c, 0, 64, 78
1, 269720, Control_c, 0, 64, 79
1, 269735, Control_c, 0, 64, 80
1, 269750, Control_c, 0, 64, 81
1, 269765, Control_c, 0, 64, 81
1, 269809, Control_c, 0, 64, 82
1, 269853, Control_c, 0, 64, 82
1, 269966, Note_on_c, 0, 62, 42
1, 270001, Control_c, 0, 64, 83
1, 270031, Note_off_c, 0, 61, 61
1, 270036, Note_off_c, 0, 53, 50
1, 270143, Note_off_c, 0, 57, 37
1, 270212, Note_off_c, 0, 62, 53
1, 270424, Control_c, 0, 64, 82
1, 270439, Control_c, 0, 64, 81
1, 270454, Control_c, 0, 64, 79
1, 270469, Control_c, 0, 64, 76
1, 270483, Control_c, 0, 64, 72
1, 270498, Control_c, 0, 64, 67
1, 270501, Note_on_c, 0, 52, 38
1, 270506, Note_on_c, 0, 62, 53
1, 270513, Control_c, 0, 64, 62
1, 270528, Control_c, 0, 64, 60
1, 270558, Control_c, 0, 64, 59
1, 270573, Control_c, 0, 64, 57
1, 270588, Control_c, 0, 64, 54
1, 270603, Control_c, 0, 64, 51
1, 270618, Control_c, 0, 64, 51
1, 270632, Control_c, 0, 64, 51
1, 270662, Control_c, 0, 64, 52
1, 270691, Control_c, 0, 64, 53
1, 270706, Control_c, 0, 64, 57
1, 270721, Control_c, 0, 64, 61
1, 270736, Control_c, 0, 64, 64
1, 270750, Control_c, 0, 64, 66
1, 270765, Control_c, 0, 64, 67
1, 270780, Control_c, 0, 64, 69
1, 270795, Control_c, 0, 64, 72
1, 270810, Control_c, 0, 64, 74
1, 270826, Control_c, 0, 64, 76
1, 270841, Control_c, 0, 64, 77
1, 270855, Control_c, 0, 64, 79
1, 270870, Control_c, 0, 64, 79
1, 270885, Control_c, 0, 64, 80
1, 270899, Control_c, 0, 64, 81
1, 270914, Control_c, 0, 64, 82
1, 270944, Control_c, 0, 64, 82
1, 270959, Control_c, 0, 64, 83
1, 270979, Note_on_c, 0, 57, 34
1, 270988, Control_c, 0, 64, 83
1, 271011, Control_c, 0, 64, 84
1, 271026, Control_c, 0, 64, 84
1, 271055, Control_c, 0, 64, 85
1, 271100, Control_c, 0, 64, 85
1, 271159, Control_c, 0, 64, 86
1, 271190, Note_on_c, 0, 67, 52
1, 271273, Note_off_c, 0, 62, 61
1, 271541, Note_on_c, 0, 72, 56
1, 271576, Note_on_c, 0, 62, 33
1, 271625, Note_off_c, 0, 52, 58
1, 271702, Note_off_c, 0, 57, 41
1, 271786, Note_off_c, 0, 67, 51
1, 271952, Control_c, 0, 64, 85
1, 271967, Control_c, 0, 64, 84
1, 271982, Control_c, 0, 64, 82
1, 271997, Control_c, 0, 64, 80
1, 272005, Note_on_c, 0, 51, 40
1, 272011, Control_c, 0, 64, 78
1, 272026, Control_c, 0, 64, 75
1, 272041, Control_c, 0, 64, 72
1, 272055, Control_c, 0, 64, 67
1, 272063, Note_off_c, 0, 62, 40
1, 272070, Control_c, 0, 64, 65
1, 272085, Control_c, 0, 64, 63
1, 272115, Control_c, 0, 64, 62
1, 272129, Control_c, 0, 64, 61
1, 272144, Control_c, 0, 64, 58
1, 272159, Control_c, 0, 64, 55
1, 272174, Control_c, 0, 64, 53
1, 272189, Control_c, 0, 64, 52
1, 272203, Control_c, 0, 64, 51
1, 272218, Control_c, 0, 64, 49
1, 272263, Control_c, 0, 64, 50
1, 272278, Control_c, 0, 64, 50
1, 272293, Control_c, 0, 64, 51
1, 272308, Control_c, 0, 64, 52
1, 272322, Control_c, 0, 64, 54
1, 272337, Control_c, 0, 64, 57
1, 272352, Control_c, 0, 64, 59
1, 272367, Control_c, 0, 64, 60
1, 272382, Control_c, 0, 64, 61
1, 272396, Control_c, 0, 64, 62
1, 272411, Control_c, 0, 64, 63
1, 272427, Control_c, 0, 64, 64
1, 272442, Control_c, 0, 64, 65
1, 272457, Control_c, 0, 64, 65
1, 272471, Control_c, 0, 64, 66
1, 272486, Control_c, 0, 64, 67
1, 272490, Note_on_c, 0, 56, 42
1, 272508, Control_c, 0, 64, 69
1, 272523, Control_c, 0, 64, 72
1, 272538, Control_c, 0, 64, 74
1, 272552, Control_c, 0, 64, 75
1, 272567, Control_c, 0, 64, 76
1, 272582, Control_c, 0, 64, 77
1, 272597, Control_c, 0, 64, 79
1, 272612, Control_c, 0, 64, 80
1, 272627, Control_c, 0, 64, 81
1, 272642, Control_c, 0, 64, 82
1, 272656, Control_c, 0, 64, 83
1, 272671, Control_c, 0, 64, 83
1, 272686, Control_c, 0, 64, 84
1, 272701, Control_c, 0, 64, 84
1, 272716, Control_c, 0, 64, 85
1, 272731, Control_c, 0, 64, 85
1, 272775, Control_c, 0, 64, 86
1, 272805, Control_c, 0, 64, 86
1, 272907, Note_on_c, 0, 61, 40
1, 272916, Note_on_c, 0, 71, 51
1, 273025, Note_off_c, 0, 72, 60
1, 273056, Control_c, 0, 64, 87
1, 273071, Control_c, 0, 64, 87
1, 273080, Note_off_c, 0, 71, 61
1, 273086, Control_c, 0, 64, 88
1, 273087, Note_off_c, 0, 51, 35
1, 273101, Control_c, 0, 64, 88
1, 273116, Control_c, 0, 64, 89
1, 273130, Control_c, 0, 64, 89
1, 273145, Control_c, 0, 64, 90
1, 273160, Control_c, 0, 64, 90
1, 273175, Control_c, 0, 64, 91
1, 273204, Control_c, 0, 64, 91
1, 273276, Note_off_c, 0, 56, 35
1, 273301, Control_c, 0, 64, 90
1, 273316, Control_c, 0, 64, 86
1, 273331, Control_c, 0, 64, 80
1, 273346, Control_c, 0, 64, 72
1, 273347, Note_on_c, 0, 50, 43
1, 273354, Note_on_c, 0, 72, 54
1, 273357, Note_on_c, 0, 68, 44
1, 273360, Note_off_c, 0, 61, 37
1, 273361, Control_c, 0, 64, 65
1, 273370, Note_on_c, 0, 64, 41
1, 273375, Control_c, 0, 64, 53
1, 273390, Control_c, 0, 64, 41
1, 273420, Control_c, 0, 64, 43
1, 273435, Control_c, 0, 64, 48
1, 273449, Control_c, 0, 64, 56
1, 273464, Control_c, 0, 64, 63
1, 273479, Control_c, 0, 64, 68
1, 273494, Control_c, 0, 64, 72
1, 273509, Control_c, 0, 64, 76
1, 273524, Control_c, 0, 64, 79
1, 273539, Control_c, 0, 64, 81
1, 273554, Control_c, 0, 64, 83
1, 273569, Control_c, 0, 64, 84
1, 273583, Control_c, 0, 64, 85
1, 273598, Control_c, 0, 64, 86
1, 273613, Control_c, 0, 64, 87
1, 273627, Control_c, 0, 64, 87
1, 273642, Control_c, 0, 64, 88
1, 273672, Control_c, 0, 64, 88
1, 273673, Note_on_c, 0, 74, 62
1, 273701, Control_c, 0, 64, 89
1, 273761, Control_c, 0, 64, 89
1, 273817, Note_on_c, 0, 54, 46
1, 273959, Note_on_c, 0, 76, 71
1, 273959, Note_off_c, 0, 50, 38
1, 273963, Note_off_c, 0, 54, 56
1, 273980, Note_off_c, 0, 64, 37
1, 273983, Control_c, 0, 64, 90
1, 273998, Note_off_c, 0, 72, 58
1, 274001, Note_off_c, 0, 74, 62
1, 274036, Control_c, 0, 64, 90
1, 274043, Note_off_c, 0, 68, 32
1, 274080, Control_c, 0, 64, 91
1, 274139, Control_c, 0, 64, 91
1, 274272, Control_c, 0, 64, 89
1, 274287, Control_c, 0, 64, 86
1, 274302, Note_on_c, 0, 71, 64
1, 274302, Control_c, 0, 64, 81
1, 274305, Note_on_c, 0, 55, 46
1, 274313, Note_on_c, 0, 61, 42
1, 274314, Note_on_c, 0, 65, 49
1, 274317, Control_c, 0, 64, 75
1, 274332, Control_c, 0, 64, 67
1, 274347, Control_c, 0, 64, 58
1, 274362, Control_c, 0, 64, 46
1, 274376, Control_c, 0, 64, 37
1, 274385, Note_off_c, 0, 76, 52
1, 274391, Control_c, 0, 64, 25
1, 274406, Control_c, 0, 64, 0
1, 274524, Control_c, 0, 64, 37
1, 274539, Control_c, 0, 64, 61
1, 274554, Control_c, 0, 64, 65
1, 274569, Control_c, 0, 64, 68
1, 274584, Control_c, 0, 64, 69
1, 274598, Control_c, 0, 64, 71
1, 274613, Control_c, 0, 64, 72
1, 274628, Control_c, 0, 64, 74
1, 274642, Control_c, 0, 64, 76
1, 274657, Control_c, 0, 64, 77
1, 274663, Note_on_c, 0, 57, 50
1, 274672, Control_c, 0, 64, 79
1, 274687, Control_c, 0, 64, 80
1, 274702, Control_c, 0, 64, 81
1, 274716, Control_c, 0, 64, 81
1, 274731, Control_c, 0, 64, 82
1, 274747, Note_off_c, 0, 61, 57
1, 274754, Control_c, 0, 64, 83
1, 274769, Control_c, 0, 64, 83
1, 274813, Control_c, 0, 64, 84
1, 274995, Note_on_c, 0, 59, 50
1, 275110, Control_c, 0, 64, 83
1, 275169, Control_c, 0, 64, 83
1, 275273, Control_c, 0, 64, 82
1, 275288, Control_c, 0, 64, 82
1, 275303, Control_c, 0, 64, 80
1, 275318, Control_c, 0, 64, 78
1, 275325, Note_on_c, 0, 49, 45
1, 275333, Control_c, 0, 64, 74
1, 275347, Control_c, 0, 64, 70
1, 275362, Control_c, 0, 64, 66
1, 275363, Note_off_c, 0, 57, 58
1, 275377, Control_c, 0, 64, 63
1, 275392, Control_c, 0, 64, 61
1, 275407, Control_c, 0, 64, 59
1, 275421, Control_c, 0, 64, 57
1, 275436, Control_c, 0, 64, 54
1, 275451, Control_c, 0, 64, 53
1, 275453, Note_off_c, 0, 55, 45
1, 275480, Control_c, 0, 64, 54
1, 275503, Control_c, 0, 64, 57
1, 275518, Control_c, 0, 64, 61
1, 275533, Control_c, 0, 64, 64
1, 275547, Control_c, 0, 64, 66
1, 275562, Control_c, 0, 64, 68
1, 275577, Control_c, 0, 64, 71
1, 275592, Control_c, 0, 64, 74
1, 275606, Control_c, 0, 64, 76
1, 275622, Control_c, 0, 64, 78
1, 275637, Control_c, 0, 64, 79
1, 275652, Control_c, 0, 64, 80
1, 275667, Control_c, 0, 64, 81
1, 275682, Control_c, 0, 64, 82
1, 275696, Control_c, 0, 64, 83
1, 275726, Control_c, 0, 64, 83
1, 275757, Control_c, 0, 64, 84
1, 275784, Note_on_c, 0, 70, 61
1, 275786, Control_c, 0, 64, 84
1, 275816, Control_c, 0, 64, 85
1, 275831, Control_c, 0, 64, 85
1, 275852, Note_off_c, 0, 65, 59
1, 275860, Control_c, 0, 64, 86
1, 275867, Note_off_c, 0, 71, 40
1, 275875, Control_c, 0, 64, 86
1, 275889, Control_c, 0, 64, 87
1, 275904, Control_c, 0, 64, 87
1, 275919, Control_c, 0, 64, 88
1, 275934, Control_c, 0, 64, 89
1, 275949, Control_c, 0, 64, 89
1, 275963, Control_c, 0, 64, 90
1, 275978, Note_off_c, 0, 49, 26
1, 275978, Control_c, 0, 64, 90
1, 275993, Control_c, 0, 64, 91
1, 276008, Control_c, 0, 64, 92
1, 276023, Control_c, 0, 64, 93
1, 276037, Control_c, 0, 64, 94
1, 276052, Control_c, 0, 64, 94
1, 276067, Control_c, 0, 64, 95
1, 276082, Control_c, 0, 64, 95
1, 276093, Note_off_c, 0, 70, 38
1, 276111, Control_c, 0, 64, 96
1, 276171, Control_c, 0, 64, 95
1, 276187, Note_off_c, 0, 59, 34
1, 276201, Control_c, 0, 64, 93
1, 276215, Control_c, 0, 64, 90
1, 276226, Note_on_c, 0, 58, 52
1, 276230, Control_c, 0, 64, 84
1, 276231, Note_on_c, 0, 70, 56
1, 276232, Note_on_c, 0, 71, 56
1, 276236, Note_on_c, 0, 48, 50
1, 276238, Note_on_c, 0, 64, 53
1, 276252, Control_c, 0, 64, 78
1, 276267, Control_c, 0, 64, 72
1, 276282, Control_c, 0, 64, 67
1, 276296, Control_c, 0, 64, 64
1, 276311, Control_c, 0, 64, 62
1, 276326, Control_c, 0, 64, 61
1, 276341, Control_c, 0, 64, 60
1, 276356, Control_c, 0, 64, 57
1, 276371, Control_c, 0, 64, 54
1, 276386, Control_c, 0, 64, 52
1, 276401, Control_c, 0, 64, 53
1, 276415, Control_c, 0, 64, 56
1, 276431, Control_c, 0, 64, 59
1, 276446, Control_c, 0, 64, 62
1, 276461, Control_c, 0, 64, 64
1, 276475, Control_c, 0, 64, 67
1, 276490, Control_c, 0, 64, 71
1, 276505, Control_c, 0, 64, 75
1, 276518, Control_c, 0, 64, 80
1, 276533, Control_c, 0, 64, 82
1, 276544, Note_on_c, 0, 72, 71
1, 276548, Control_c, 0, 64, 84
1, 276563, Control_c, 0, 64, 86
1, 276578, Control_c, 0, 64, 88
1, 276592, Control_c, 0, 64, 89
1, 276593, Note_off_c, 0, 48, 64
1, 276607, Control_c, 0, 64, 91
1, 276622, Control_c, 0, 64, 92
1, 276637, Control_c, 0, 64, 94
1, 276651, Control_c, 0, 64, 95
1, 276666, Control_c, 0, 64, 97
1, 276681, Control_c, 0, 64, 98
1, 276696, Control_c, 0, 64, 100
1, 276699, Note_off_c, 0, 58, 58
1, 276711, Control_c, 0, 64, 102
1, 276725, Control_c, 0, 64, 103
1, 276740, Control_c, 0, 64, 105
1, 276755, Control_c, 0, 64, 105
1, 276770, Control_c, 0, 64, 107
1, 276785, Control_c, 0, 64, 107
1, 276800, Control_c, 0, 64, 109
1, 276815, Note_on_c, 0, 74, 68
1, 276815, Control_c, 0, 64, 110
1, 276830, Control_c, 0, 64, 111
1, 276844, Control_c, 0, 64, 112
1, 276859, Control_c, 0, 64, 113
1, 276871, Note_off_c, 0, 64, 63
1, 276885, Note_off_c, 0, 72, 59
1, 276886, Note_off_c, 0, 70, 54
1, 276895, Note_off_c, 0, 71, 58
1, 276933, Control_c, 0, 64, 113
1, 277015, Control_c, 0, 64, 113
1, 277059, Control_c, 0, 64, 110
1, 277074, Control_c, 0, 64, 107
1, 277083, Note_on_c, 0, 69, 71
1, 277083, Note_on_c, 0, 63, 64
1, 277089, Control_c, 0, 64, 102
1, 277098, Note_on_c, 0, 53, 46
1, 277104, Control_c, 0, 64, 96
1, 277110, Note_on_c, 0, 59, 48
1, 277118, Control_c, 0, 64, 86
1, 277133, Control_c, 0, 64, 77
1, 277148, Control_c, 0, 64, 66
1, 277163, Control_c, 0, 64, 0
1, 277175, Note_off_c, 0, 74, 60
1, 277297, Control_c, 0, 64, 64
1, 277312, Control_c, 0, 64, 70
1, 277327, Control_c, 0, 64, 73
1, 277341, Control_c, 0, 64, 77
1, 277346, Note_on_c, 0, 60, 62
1, 277356, Control_c, 0, 64, 81
1, 277371, Control_c, 0, 64, 85
1, 277386, Control_c, 0, 64, 88
1, 277401, Control_c, 0, 64, 89
1, 277454, Note_off_c, 0, 53, 63
1, 277460, Control_c, 0, 64, 90
1, 277474, Control_c, 0, 64, 90
1, 277489, Control_c, 0, 64, 91
1, 277506, Note_off_c, 0, 63, 54
1, 277563, Control_c, 0, 64, 91
1, 277578, Control_c, 0, 64, 92
1, 277579, Note_on_c, 0, 62, 62
1, 277593, Control_c, 0, 64, 93
1, 277608, Control_c, 0, 64, 94
1, 277623, Control_c, 0, 64, 95
1, 277638, Control_c, 0, 64, 97
1, 277652, Control_c, 0, 64, 99
1, 277667, Control_c, 0, 64, 100
1, 277682, Control_c, 0, 64, 101
1, 277697, Control_c, 0, 64, 102
1, 277712, Control_c, 0, 64, 102
1, 277727, Control_c, 0, 64, 104
1, 277748, Control_c, 0, 64, 105
1, 277749, Note_off_c, 0, 60, 58
1, 277763, Control_c, 0, 64, 106
1, 277807, Control_c, 0, 64, 106
1, 277810, Note_off_c, 0, 59, 31
1, 277818, Note_on_c, 0, 54, 50
1, 277822, Control_c, 0, 64, 104
1, 277837, Control_c, 0, 64, 100
1, 277852, Control_c, 0, 64, 93
1, 277867, Control_c, 0, 64, 86
1, 277882, Control_c, 0, 64, 76
1, 277897, Control_c, 0, 64, 68
1, 277912, Control_c, 0, 64, 59
1, 277927, Control_c, 0, 64, 41
1, 277941, Control_c, 0, 64, 48
1, 277956, Control_c, 0, 64, 58
1, 277971, Control_c, 0, 64, 63
1, 277985, Control_c, 0, 64, 67
1, 278000, Control_c, 0, 64, 72
1, 278016, Control_c, 0, 64, 78
1, 278031, Control_c, 0, 64, 84
1, 278046, Control_c, 0, 64, 87
1, 278051, Note_on_c, 0, 70, 61
1, 278061, Control_c, 0, 64, 88
1, 278073, Note_off_c, 0, 62, 60
1, 278076, Control_c, 0, 64, 89
1, 278090, Control_c, 0, 64, 90
1, 278100, Note_off_c, 0, 54, 56
1, 278120, Control_c, 0, 64, 91
1, 278135, Note_off_c, 0, 69, 61
1, 278209, Control_c, 0, 64, 91
1, 278224, Control_c, 0, 64, 92
1, 278238, Control_c, 0, 64, 92
1, 278253, Control_c, 0, 64, 93
1, 278291, Note_on_c, 0, 72, 59
1, 278327, Control_c, 0, 64, 93
1, 278329, Note_off_c, 0, 70, 61
1, 278401, Control_c, 0, 64, 94
1, 278497, Control_c, 0, 64, 92
1, 278512, Control_c, 0, 64, 87
1, 278527, Control_c, 0, 64, 79
1, 278542, Control_c, 0, 64, 67
1, 278555, Note_off_c, 0, 72, 59
1, 278556, Note_on_c, 0, 68, 61
1, 278556, Note_on_c, 0, 70, 53
1, 278557, Control_c, 0, 64, 0
1, 278570, Note_on_c, 0, 55, 48
1, 278660, Control_c, 0, 64, 48
1, 278675, Control_c, 0, 64, 64
1, 278690, Control_c, 0, 64, 66
1, 278705, Control_c, 0, 64, 67
1, 278720, Control_c, 0, 64, 70
1, 278735, Control_c, 0, 64, 75
1, 278749, Control_c, 0, 64, 83
1, 278764, Control_c, 0, 64, 87
1, 278779, Control_c, 0, 64, 88
1, 278794, Control_c, 0, 64, 88
1, 278825, Control_c, 0, 64, 89
1, 278839, Control_c, 0, 64, 89
1, 278866, Note_on_c, 0, 67, 58
1, 278868, Note_off_c, 0, 68, 55
1, 278869, Control_c, 0, 64, 90
1, 278994, Note_on_c, 0, 74, 64
1, 279042, Note_off_c, 0, 67, 56
1, 279149, Note_on_c, 0, 65, 63
1, 279501, Note_on_c, 0, 81, 67
1, 279506, Note_on_c, 0, 64, 47
1, 279513, Control_c, 0, 64, 89
1, 279542, Control_c, 0, 64, 89
1, 279557, Control_c, 0, 64, 88
1, 279558, Note_off_c, 0, 70, 38
1, 279572, Control_c, 0, 64, 87
1, 279587, Control_c, 0, 64, 86
1, 279587, Note_off_c, 0, 74, 61
1, 279602, Control_c, 0, 64, 84
1, 279617, Control_c, 0, 64, 82
1, 279632, Control_c, 0, 64, 80
1, 279647, Control_c, 0, 64, 77
1, 279649, Note_off_c, 0, 65, 38
1, 279662, Control_c, 0, 64, 74
1, 279677, Control_c, 0, 64, 72
1, 279691, Control_c, 0, 64, 70
1, 279706, Control_c, 0, 64, 68
1, 279721, Control_c, 0, 64, 66
1, 279736, Control_c, 0, 64, 66
1, 279751, Control_c, 0, 64, 65
1, 279762, Note_off_c, 0, 55, 27
1, 279766, Control_c, 0, 64, 64
1, 279781, Control_c, 0, 64, 64
1, 279796, Control_c, 0, 64, 63
1, 279810, Control_c, 0, 64, 62
1, 279854, Control_c, 0, 64, 61
1, 279869, Control_c, 0, 64, 60
1, 279884, Control_c, 0, 64, 57
1, 279899, Control_c, 0, 64, 57
1, 279914, Control_c, 0, 64, 56
1, 279928, Control_c, 0, 64, 55
1, 279943, Control_c, 0, 64, 52
1, 279958, Control_c, 0, 64, 47
1, 279973, Control_c, 0, 64, 41
1, 279995, Control_c, 0, 64, 37
1, 280010, Control_c, 0, 64, 35
1, 280025, Control_c, 0, 64, 33
1, 280027, Note_on_c, 0, 70, 45
1, 280040, Control_c, 0, 64, 27
1, 280055, Control_c, 0, 64, 11
1, 280069, Control_c, 0, 64, 0
1, 280143, Control_c, 0, 64, 14
1, 280158, Control_c, 0, 64, 23
1, 280173, Control_c, 0, 64, 32
1, 280187, Control_c, 0, 64, 40
1, 280202, Control_c, 0, 64, 46
1, 280217, Control_c, 0, 64, 50
1, 280232, Control_c, 0, 64, 56
1, 280247, Control_c, 0, 64, 60
1, 280261, Control_c, 0, 64, 61
1, 280276, Control_c, 0, 64, 62
1, 280291, Control_c, 0, 64, 64
1, 280306, Control_c, 0, 64, 65
1, 280321, Control_c, 0, 64, 66
1, 280335, Control_c, 0, 64, 67
1, 280350, Control_c, 0, 64, 67
1, 280365, Control_c, 0, 64, 68
1, 280380, Control_c, 0, 64, 69
1, 280395, Control_c, 0, 64, 71
1, 280410, Note_on_c, 0, 74, 48
1, 280411, Control_c, 0, 64, 73
1, 280426, Control_c, 0, 64, 74
1, 280440, Control_c, 0, 64, 75
1, 280455, Control_c, 0, 64, 75
1, 280470, Control_c, 0, 64, 76
1, 280484, Control_c, 0, 64, 77
1, 280499, Control_c, 0, 64, 78
1, 280514, Control_c, 0, 64, 80
1, 280529, Control_c, 0, 64, 81
1, 280544, Control_c, 0, 64, 82
1, 280559, Control_c, 0, 64, 83
1, 280574, Control_c, 0, 64, 84
1, 280589, Control_c, 0, 64, 86
1, 280604, Control_c, 0, 64, 88
1, 280618, Control_c, 0, 64, 89
1, 280633, Control_c, 0, 64, 90
1, 280648, Control_c, 0, 64, 91
1, 280663, Control_c, 0, 64, 92
1, 280677, Control_c, 0, 64, 93
1, 280692, Control_c, 0, 64, 93
1, 280707, Control_c, 0, 64, 94
1, 280744, Control_c, 0, 64, 94
1, 280787, Note_on_c, 0, 79, 61
1, 280833, Control_c, 0, 64, 95
1, 280883, Note_off_c, 0, 81, 34
1, 280908, Note_off_c, 0, 74, 64
1, 280920, Note_off_c, 0, 79, 61
1, 280925, Note_off_c, 0, 70, 62
1, 281099, Control_c, 0, 64, 94
1, 281114, Control_c, 0, 64, 93
1, 281129, Control_c, 0, 64, 89
1, 281144, Control_c, 0, 64, 84
1, 281155, Note_on_c, 0, 63, 50
1, 281156, Note_on_c, 0, 79, 60
1, 281157, Note_on_c, 0, 69, 53
1, 281158, Note_on_c, 0, 73, 52
1, 281159, Control_c, 0, 64, 78
1, 281169, Note_off_c, 0, 64, 61
1, 281174, Control_c, 0, 64, 72
1, 281189, Control_c, 0, 64, 67
1, 281204, Control_c, 0, 64, 61
1, 281220, Control_c, 0, 64, 50
1, 281234, Control_c, 0, 64, 35
1, 281249, Control_c, 0, 64, 0
1, 281353, Control_c, 0, 64, 43
1, 281368, Control_c, 0, 64, 64
1, 281382, Control_c, 0, 64, 70
1, 281397, Control_c, 0, 64, 74
1, 281412, Control_c, 0, 64, 79
1, 281427, Note_on_c, 0, 77, 66
1, 281427, Control_c, 0, 64, 82
1, 281441, Control_c, 0, 64, 84
1, 281456, Control_c, 0, 64, 85
1, 281471, Control_c, 0, 64, 86
1, 281494, Control_c, 0, 64, 87
1, 281508, Control_c, 0, 64, 88
1, 281519, Note_off_c, 0, 79, 55
1, 281523, Control_c, 0, 64, 90
1, 281538, Control_c, 0, 64, 91
1, 281553, Control_c, 0, 64, 92
1, 281568, Control_c, 0, 64, 93
1, 281597, Control_c, 0, 64, 94
1, 281612, Control_c, 0, 64, 95
1, 281626, Note_off_c, 0, 63, 59
1, 281641, Control_c, 0, 64, 96
1, 281656, Control_c, 0, 64, 96
1, 281667, Note_on_c, 0, 75, 70
1, 281686, Control_c, 0, 64, 97
1, 281721, Note_off_c, 0, 77, 55
1, 281730, Control_c, 0, 64, 97
1, 281733, Note_off_c, 0, 73, 56
1, 281795, Note_off_c, 0, 69, 40
1, 281923, Control_c, 0, 64, 94
1, 281938, Control_c, 0, 64, 88
1, 281949, Note_on_c, 0, 76, 71
1, 281953, Control_c, 0, 64, 79
1, 281954, Note_on_c, 0, 72, 62
1, 281954, Note_on_c, 0, 68, 52
1, 281963, Note_on_c, 0, 62, 49
1, 281965, Note_off_c, 0, 75, 60
1, 281967, Control_c, 0, 64, 68
1, 281982, Control_c, 0, 64, 42
1, 281997, Control_c, 0, 64, 0
1, 282161, Control_c, 0, 64, 64
1, 282176, Control_c, 0, 64, 72
1, 282191, Control_c, 0, 64, 80
1, 282205, Control_c, 0, 64, 85
1, 282220, Control_c, 0, 64, 87
1, 282243, Control_c, 0, 64, 88
1, 282258, Control_c, 0, 64, 89
1, 282267, Note_off_c, 0, 72, 56
1, 282272, Control_c, 0, 64, 90
1, 282285, Note_off_c, 0, 68, 63
1, 282287, Control_c, 0, 64, 91
1, 282302, Control_c, 0, 64, 92
1, 282317, Control_c, 0, 64, 92
1, 282346, Control_c, 0, 64, 93
1, 282389, Note_on_c, 0, 64, 53
1, 282450, Control_c, 0, 64, 93
1, 282762, Note_on_c, 0, 68, 47
1, 283069, Note_off_c, 0, 64, 61
1, 283131, Note_on_c, 0, 72, 49
1, 283154, Note_off_c, 0, 68, 63
1, 283298, Note_on_c, 0, 66, 57
1, 283320, Note_off_c, 0, 72, 64
1, 283328, Note_off_c, 0, 76, 64
1, 283391, Control_c, 0, 64, 94
1, 283421, Control_c, 0, 64, 94
1, 283435, Control_c, 0, 64, 95
1, 283450, Control_c, 0, 64, 95
1, 283465, Note_off_c, 0, 66, 65
1, 283480, Control_c, 0, 64, 96
1, 283510, Control_c, 0, 64, 96
1, 283576, Note_on_c, 0, 66, 55
1, 283577, Note_on_c, 0, 76, 57
1, 283674, Control_c, 0, 64, 97
1, 283718, Control_c, 0, 64, 97
1, 283755, Control_c, 0, 64, 98
1, 283799, Control_c, 0, 64, 98
1, 283844, Control_c, 0, 64, 99
1, 283869, Note_on_c, 0, 64, 46
1, 283915, Note_off_c, 0, 62, 37
1, 283918, Control_c, 0, 64, 99
1, 284027, Note_on_c, 0, 80, 61
1, 284037, Note_off_c, 0, 66, 34
1, 284226, Note_on_c, 0, 62, 50
1, 284492, Note_off_c, 0, 64, 34
1, 284563, Control_c, 0, 64, 99
1, 284578, Control_c, 0, 64, 98
1, 284593, Control_c, 0, 64, 97
1, 284607, Control_c, 0, 64, 96
1, 284622, Control_c, 0, 64, 95
1, 284637, Control_c, 0, 64, 93
1, 284652, Control_c, 0, 64, 91
1, 284667, Control_c, 0, 64, 86
1, 284681, Control_c, 0, 64, 79
1, 284696, Control_c, 0, 64, 71
1, 284711, Control_c, 0, 64, 63
1, 284712, Note_on_c, 0, 61, 41
1, 284716, Note_on_c, 0, 87, 49
1, 284726, Control_c, 0, 64, 48
1, 284741, Control_c, 0, 64, 22
1, 284756, Control_c, 0, 64, 0
1, 284763, Note_off_c, 0, 62, 55
1, 284948, Control_c, 0, 64, 51
1, 284963, Control_c, 0, 64, 63
1, 284977, Control_c, 0, 64, 65
1, 284992, Control_c, 0, 64, 67
1, 285007, Control_c, 0, 64, 70
1, 285022, Control_c, 0, 64, 73
1, 285037, Control_c, 0, 64, 77
1, 285051, Control_c, 0, 64, 81
1, 285057, Note_off_c, 0, 76, 66
1, 285066, Control_c, 0, 64, 82
1, 285081, Control_c, 0, 64, 83
1, 285096, Control_c, 0, 64, 84
1, 285111, Control_c, 0, 64, 85
1, 285126, Control_c, 0, 64, 86
1, 285141, Control_c, 0, 64, 87
1, 285253, Control_c, 0, 64, 86
1, 285268, Control_c, 0, 64, 84
1, 285282, Control_c, 0, 64, 79
1, 285297, Control_c, 0, 64, 73
1, 285310, Note_on_c, 0, 75, 43
1, 285312, Control_c, 0, 64, 68
1, 285327, Control_c, 0, 64, 64
1, 285342, Control_c, 0, 64, 64
1, 285371, Control_c, 0, 64, 63
1, 285383, Note_off_c, 0, 80, 54
1, 285400, Control_c, 0, 64, 64
1, 285415, Control_c, 0, 64, 64
1, 285430, Control_c, 0, 64, 65
1, 285445, Control_c, 0, 64, 66
1, 285460, Control_c, 0, 64, 67
1, 285474, Control_c, 0, 64, 68
1, 285489, Control_c, 0, 64, 70
1, 285505, Control_c, 0, 64, 73
1, 285520, Control_c, 0, 64, 75
1, 285535, Control_c, 0, 64, 77
1, 285549, Control_c, 0, 64, 78
1, 285564, Control_c, 0, 64, 80
1, 285579, Control_c, 0, 64, 82
1, 285594, Control_c, 0, 64, 83
1, 285609, Control_c, 0, 64, 84
1, 285623, Control_c, 0, 64, 85
1, 285638, Control_c, 0, 64, 86
1, 285653, Control_c, 0, 64, 86
1, 285668, Control_c, 0, 64, 87
1, 285683, Control_c, 0, 64, 88
1, 285707, Note_on_c, 0, 79, 54
1, 285713, Control_c, 0, 64, 88
1, 285728, Control_c, 0, 64, 89
1, 285772, Control_c, 0, 64, 89
1, 286074, Note_on_c, 0, 85, 62
1, 286193, Note_off_c, 0, 87, 36
1, 286196, Note_off_c, 0, 75, 37
1, 286201, Note_off_c, 0, 79, 63
1, 286203, Note_off_c, 0, 61, 48
1, 286274, Note_off_c, 0, 85, 35
1, 286372, Control_c, 0, 64, 89
1, 286387, Control_c, 0, 64, 86
1, 286402, Control_c, 0, 64, 80
1, 286407, Note_on_c, 0, 85, 65
1, 286417, Note_on_c, 0, 78, 60
1, 286417, Control_c, 0, 64, 72
1, 286420, Note_on_c, 0, 74, 54
1, 286421, Note_on_c, 0, 66, 54
1, 286425, Note_on_c, 0, 60, 47
1, 286432, Control_c, 0, 64, 65
1, 286447, Control_c, 0, 64, 56
1, 286462, Control_c, 0, 64, 48
1, 286477, Control_c, 0, 64, 42
1, 286492, Control_c, 0, 64, 43
1, 286506, Control_c, 0, 64, 53
1, 286521, Control_c, 0, 64, 63
1, 286536, Control_c, 0, 64, 69
1, 286551, Control_c, 0, 64, 74
1, 286566, Control_c, 0, 64, 80
1, 286580, Control_c, 0, 64, 84
1, 286595, Control_c, 0, 64, 86
1, 286610, Control_c, 0, 64, 88
1, 286625, Control_c, 0, 64, 89
1, 286640, Control_c, 0, 64, 90
1, 286655, Control_c, 0, 64, 91
1, 286663, Note_on_c, 0, 83, 70
1, 286739, Note_off_c, 0, 66, 60
1, 286771, Note_off_c, 0, 85, 37
1, 286807, Note_off_c, 0, 78, 35
1, 286823, Note_off_c, 0, 60, 57
1, 286893, Note_off_c, 0, 74, 45
1, 286895, Note_on_c, 0, 81, 79
1, 287152, Control_c, 0, 64, 89
1, 287167, Control_c, 0, 64, 84
1, 287178, Note_on_c, 0, 87, 78
1, 287179, Note_on_c, 0, 79, 64
1, 287181, Control_c, 0, 64, 77
1, 287182, Note_on_c, 0, 68, 55
1, 287185, Note_on_c, 0, 75, 69
1, 287191, Note_on_c, 0, 61, 48
1, 287196, Control_c, 0, 64, 68
1, 287197, Note_on_c, 0, 64, 51
1, 287204, Note_on_c, 0, 59, 48
1, 287206, Note_off_c, 0, 83, 34
1, 287209, Note_off_c, 0, 81, 55
1, 287211, Control_c, 0, 64, 55
1, 287226, Control_c, 0, 64, 0
1, 287373, Control_c, 0, 64, 59
1, 287388, Control_c, 0, 64, 68
1, 287403, Control_c, 0, 64, 73
1, 287418, Control_c, 0, 64, 79
1, 287433, Control_c, 0, 64, 84
1, 287448, Control_c, 0, 64, 87
1, 287463, Control_c, 0, 64, 88
1, 287485, Control_c, 0, 64, 89
1, 287500, Control_c, 0, 64, 90
1, 287515, Note_off_c, 0, 75, 61
1, 287515, Control_c, 0, 64, 91
1, 287529, Control_c, 0, 64, 92
1, 287544, Control_c, 0, 64, 92
1, 287559, Control_c, 0, 64, 93
1, 287588, Control_c, 0, 64, 93
1, 287630, Note_on_c, 0, 76, 67
1, 287649, Control_c, 0, 64, 94
1, 287674, Note_off_c, 0, 79, 60
1, 287693, Control_c, 0, 64, 94
1, 287901, Note_off_c, 0, 59, 35
1, 287936, Note_off_c, 0, 68, 56
1, 287946, Note_on_c, 0, 80, 81
1, 287989, Control_c, 0, 67, 125
1, 288003, Control_c, 0, 67, 121
1, 288018, Control_c, 0, 67, 116
1, 288033, Control_c, 0, 67, 111
1, 288048, Control_c, 0, 67, 105
1, 288063, Control_c, 0, 67, 99
1, 288077, Control_c, 0, 67, 93
1, 288092, Control_c, 0, 67, 86
1, 288107, Control_c, 0, 67, 81
1, 288122, Control_c, 0, 67, 78
1, 288137, Control_c, 0, 67, 75
1, 288151, Control_c, 0, 67, 73
1, 288166, Control_c, 0, 67, 73
1, 288181, Control_c, 0, 67, 72
1, 288196, Control_c, 0, 67, 71
1, 288211, Control_c, 0, 67, 69
1, 288233, Control_c, 0, 67, 66
1, 288248, Control_c, 0, 67, 62
1, 288263, Control_c, 0, 64, 95
1, 288263, Control_c, 0, 67, 58
1, 288277, Note_on_c, 0, 85, 85
1, 288277, Control_c, 0, 67, 55
1, 288292, Control_c, 0, 64, 95
1, 288292, Control_c, 0, 67, 50
1, 288307, Control_c, 0, 64, 96
1, 288307, Control_c, 0, 67, 43
1, 288309, Note_off_c, 0, 76, 63
1, 288322, Control_c, 0, 64, 97
1, 288322, Control_c, 0, 67, 37
1, 288337, Control_c, 0, 64, 97
1, 288337, Control_c, 0, 67, 33
1, 288351, Control_c, 0, 64, 98
1, 288351, Control_c, 0, 67, 28
1, 288366, Control_c, 0, 64, 99
1, 288366, Control_c, 0, 67, 23
1, 288375, Note_off_c, 0, 61, 52
1, 288381, Control_c, 0, 64, 101
1, 288381, Control_c, 0, 67, 16
1, 288396, Control_c, 0, 64, 102
1, 288396, Control_c, 0, 67, 0
1, 288412, Control_c, 0, 64, 104
1, 288426, Control_c, 0, 64, 105
1, 288427, Note_off_c, 0, 87, 37
1, 288441, Control_c, 0, 64, 106
1, 288456, Control_c, 0, 64, 107
1, 288471, Control_c, 0, 64, 109
1, 288486, Control_c, 0, 64, 111
1, 288501, Control_c, 0, 64, 113
1, 288503, Note_off_c, 0, 85, 54
1, 288516, Control_c, 0, 64, 113
1, 288575, Note_off_c, 0, 64, 59
1, 288590, Control_c, 0, 64, 107
1, 288599, Note_on_c, 0, 85, 95
1, 288601, Note_on_c, 0, 66, 88
1, 288605, Note_on_c, 0, 74, 82
1, 288605, Control_c, 0, 64, 92
1, 288607, Note_on_c, 0, 60, 72
1, 288616, Note_on_c, 0, 58, 72
1, 288620, Control_c, 0, 64, 76
1, 288632, Note_off_c, 0, 80, 62
1, 288634, Control_c, 0, 64, 59
1, 288649, Control_c, 0, 64, 0
1, 288709, Control_c, 0, 64, 60
1, 288724, Control_c, 0, 64, 69
1, 288738, Control_c, 0, 64, 76
1, 288753, Control_c, 0, 64, 83
1, 288768, Control_c, 0, 64, 87
1, 288782, Note_off_c, 0, 74, 63
1, 288783, Control_c, 0, 64, 90
1, 288798, Control_c, 0, 64, 92
1, 288813, Control_c, 0, 64, 94
1, 288827, Control_c, 0, 64, 96
1, 288842, Control_c, 0, 64, 98
1, 288853, Note_on_c, 0, 83, 92
1, 288857, Control_c, 0, 64, 100
1, 288872, Control_c, 0, 64, 102
1, 288887, Control_c, 0, 64, 103
1, 288901, Control_c, 0, 64, 103
1, 288902, Note_off_c, 0, 85, 59
1, 288916, Control_c, 0, 64, 104
1, 288931, Control_c, 0, 64, 105
1, 288945, Control_c, 0, 64, 106
1, 288960, Control_c, 0, 64, 107
1, 288983, Control_c, 0, 64, 107
1, 288998, Control_c, 0, 64, 108
1, 289013, Control_c, 0, 64, 108
1, 289027, Control_c, 0, 64, 109
1, 289042, Control_c, 0, 64, 109
1, 289057, Control_c, 0, 64, 111
1, 289071, Note_on_c, 0, 81, 100
1, 289072, Control_c, 0, 64, 113
1, 289087, Control_c, 0, 64, 117
1, 289101, Control_c, 0, 64, 121
1, 289110, Note_off_c, 0, 83, 57
1, 289116, Control_c, 0, 64, 127
1, 289139, Note_off_c, 0, 66, 60
1, 289140, Note_off_c, 0, 60, 58
1, 289185, Note_off_c, 0, 58, 59
1, 289294, Control_c, 0, 64, 120
1, 289309, Control_c, 0, 64, 97
1, 289320, Note_on_c, 0, 87, 104
1, 289321, Note_on_c, 0, 75, 102
1, 289322, Note_on_c, 0, 67, 94
1, 289323, Note_on_c, 0, 57, 84
1, 289324, Note_on_c, 0, 61, 92
1, 289324, Control_c, 0, 64, 78
1, 289339, Control_c, 0, 64, 46
1, 289354, Control_c, 0, 64, 0
1, 289358, Note_off_c, 0, 81, 54
1, 289376, Note_on_c, 0, 85, 8
1, 289377, Note_off_c, 0, 85, 127
1, 289428, Control_c, 0, 64, 16
1, 289443, Control_c, 0, 64, 70
1, 289457, Control_c, 0, 64, 82
1, 289472, Control_c, 0, 64, 91
1, 289487, Control_c, 0, 64, 94
1, 289502, Control_c, 0, 64, 96
1, 289517, Control_c, 0, 64, 98
1, 289531, Control_c, 0, 64, 102
1, 289546, Control_c, 0, 64, 105
1, 289561, Control_c, 0, 64, 108
1, 289576, Control_c, 0, 64, 109
1, 289591, Control_c, 0, 64, 111
1, 289606, Control_c, 0, 64, 112
1, 289620, Note_off_c, 0, 57, 62
1, 289621, Control_c, 0, 64, 114
1, 289624, Note_off_c, 0, 67, 62
1, 289636, Control_c, 0, 64, 115
1, 289650, Control_c, 0, 64, 117
1, 289665, Control_c, 0, 64, 118
1, 289680, Control_c, 0, 64, 119
1, 289695, Control_c, 0, 64, 120
1, 289697, Note_off_c, 0, 75, 60
1, 289710, Control_c, 0, 64, 121
1, 289731, Control_c, 0, 64, 121
1, 289741, Note_off_c, 0, 87, 59
1, 289746, Control_c, 0, 64, 122
1, 289776, Control_c, 0, 64, 123
1, 289781, Note_on_c, 0, 81, 104
1, 289781, Note_off_c, 0, 61, 58
1, 289791, Control_c, 0, 64, 125
1, 289806, Control_c, 0, 64, 127
1, 289968, Note_off_c, 0, 81, 58
1, 289969, Control_c, 0, 64, 125
1, 289983, Control_c, 0, 64, 95
1, 289996, Note_on_c, 0, 90, 107
1, 289998, Note_on_c, 0, 66, 105
1, 289998, Control_c, 0, 64, 74
1, 289999, Note_on_c, 0, 78, 112
1, 290002, Note_on_c, 0, 56, 89
1, 290002, Note_on_c, 0, 60, 95
1, 290011, Note_on_c, 0, 81, 54
1, 290013, Control_c, 0, 64, 0
1, 290031, Note_off_c, 0, 81, 61
1, 290058, Control_c, 0, 64, 40
1, 290072, Control_c, 0, 64, 69
1, 290087, Control_c, 0, 64, 81
1, 290102, Control_c, 0, 64, 91
1, 290117, Control_c, 0, 64, 97
1, 290132, Control_c, 0, 64, 104
1, 290146, Control_c, 0, 64, 109
1, 290161, Control_c, 0, 64, 111
1, 290255, Note_off_c, 0, 56, 58
1, 290294, Note_off_c, 0, 66, 58
1, 290333, Note_off_c, 0, 78, 59
1, 290414, Note_off_c, 0, 90, 57
1, 290509, Control_c, 0, 64, 112
1, 290524, Control_c, 0, 64, 115
1, 290525, Note_on_c, 0, 81, 103
1, 290536, Note_off_c, 0, 60, 56
1, 290539, Control_c, 0, 64, 122
1, 290554, Control_c, 0, 64, 127
1, 290563, Note_off_c, 0, 81, 68
1, 290760, Note_on_c, 0, 94, 118
1, 290760, Note_on_c, 0, 82, 108
1, 290764, Note_on_c, 0, 65, 107
1, 290767, Note_on_c, 0, 55, 97
1, 290767, Note_on_c, 0, 61, 103
1, 290776, Control_c, 0, 64, 113
1, 290792, Note_on_c, 0, 95, 56
1, 290792, Control_c, 0, 64, 78
1, 290807, Control_c, 0, 64, 0
1, 290818, Note_off_c, 0, 95, 49
1, 290999, Control_c, 0, 64, 70
1, 291013, Control_c, 0, 64, 90
1, 291028, Control_c, 0, 64, 109
1, 291043, Control_c, 0, 64, 115
1, 291058, Control_c, 0, 64, 117
1, 291073, Control_c, 0, 64, 127
1, 291117, Note_off_c, 0, 65, 61
1, 291138, Note_off_c, 0, 94, 63
1, 291171, Note_off_c, 0, 82, 60
1, 291174, Note_off_c, 0, 55, 60
1, 291308, Note_off_c, 0, 61, 58
1, 291418, Note_on_c, 0, 81, 105
1, 291452, Note_off_c, 0, 81, 68
1, 291659, Note_on_c, 0, 98, 110
1, 291659, Control_c, 0, 64, 113
1, 291660, Note_on_c, 0, 64, 108
1, 291661, Note_on_c, 0, 86, 111
1, 291663, Note_on_c, 0, 54, 93
1, 291665, Note_on_c, 0, 60, 95
1, 291669, Note_on_c, 0, 57, 84
1, 291674, Control_c, 0, 64, 79
1, 291689, Control_c, 0, 64, 0
1, 291807, Note_off_c, 0, 64, 62
1, 291807, Control_c, 0, 64, 71
1, 291822, Control_c, 0, 64, 106
1, 291834, Note_off_c, 0, 60, 61
1, 291836, Control_c, 0, 64, 127
1, 291847, Note_off_c, 0, 57, 61
1, 291868, Note_off_c, 0, 54, 63
1, 292024, Note_off_c, 0, 98, 47
1, 292057, Note_off_c, 0, 86, 46
1, 292062, Note_on_c, 0, 42, 101
1, 292113, Note_off_c, 0, 42, 64
1, 292205, Note_on_c, 0, 96, 102
1, 292206, Note_on_c, 0, 84, 100
1, 292316, Note_off_c, 0, 84, 57
1, 292342, Note_off_c, 0, 96, 55
1, 292424, Note_on_c, 0, 64, 102
1, 292426, Note_on_c, 0, 96, 102
1, 292428, Note_on_c, 0, 60, 89
1, 292429, Note_on_c, 0, 84, 97
1, 292430, Note_on_c, 0, 54, 91
1, 292432, Note_on_c, 0, 57, 86
1, 292532, Note_off_c, 0, 84, 62
1, 292611, Note_off_c, 0, 96, 61
1, 292655, Note_on_c, 0, 95, 98
1, 292657, Note_on_c, 0, 83, 87
1, 292737, Note_off_c, 0, 83, 61
1, 292825, Note_off_c, 0, 95, 61
1, 292872, Note_on_c, 0, 93, 101
1, 292873, Note_on_c, 0, 81, 98
1, 292905, Note_off_c, 0, 64, 51
1, 292935, Note_off_c, 0, 81, 61
1, 292965, Note_off_c, 0, 54, 52
1, 293004, Note_off_c, 0, 93, 60
1, 293016, Note_off_c, 0, 60, 55
1, 293019, Note_off_c, 0, 57, 57
1, 293091, Note_on_c, 0, 98, 106
1, 293095, Note_on_c, 0, 86, 107
1, 293173, Note_on_c, 0, 97, 15
1, 293214, Note_off_c, 0, 97, 50
1, 293380, Control_c, 0, 64, 121
1, 293395, Control_c, 0, 64, 86
1, 293410, Control_c, 0, 64, 0
1, 293424, Note_on_c, 0, 41, 109
1, 293501, Note_off_c, 0, 86, 56
1, 293505, Control_c, 0, 64, 69
1, 293508, Note_off_c, 0, 98, 53
1, 293520, Control_c, 0, 64, 102
1, 293535, Control_c, 0, 64, 127
1, 293576, Note_off_c, 0, 41, 66
1, 293600, Note_on_c, 0, 84, 106
1, 293601, Note_on_c, 0, 96, 100
1, 293609, Note_on_c, 0, 98, 77
1, 293623, Note_off_c, 0, 98, 47
1, 293723, Note_off_c, 0, 96, 58
1, 293730, Note_off_c, 0, 84, 52
1, 293815, Note_on_c, 0, 96, 103
1, 293816, Note_on_c, 0, 84, 99
1, 293818, Note_on_c, 0, 64, 94
1, 293818, Note_on_c, 0, 62, 96
1, 293819, Note_on_c, 0, 53, 100
1, 293819, Note_on_c, 0, 57, 92
1, 293924, Note_off_c, 0, 84, 62
1, 294000, Note_off_c, 0, 96, 61
1, 294039, Note_on_c, 0, 95, 97
1, 294041, Note_on_c, 0, 83, 94
1, 294110, Note_off_c, 0, 83, 63
1, 294119, Note_off_c, 0, 64, 58
1, 294152, Note_off_c, 0, 53, 58
1, 294152, Note_off_c, 0, 62, 57
1, 294206, Note_off_c, 0, 95, 64
1, 294236, Note_off_c, 0, 57, 59
1, 294260, Note_on_c, 0, 93, 100
1, 294264, Note_on_c, 0, 81, 97
1, 294340, Note_off_c, 0, 81, 59
1, 294400, Note_off_c, 0, 93, 62
1, 294473, Note_on_c, 0, 98, 107
1, 294475, Note_on_c, 0, 86, 114
1, 294742, Control_c, 0, 64, 94
1, 294757, Control_c, 0, 64, 65
1, 294772, Control_c, 0, 64, 0
1, 294798, Note_on_c, 0, 40, 107
1, 294861, Control_c, 0, 64, 41
1, 294876, Note_off_c, 0, 86, 56
1, 294876, Control_c, 0, 64, 93
1, 294885, Note_off_c, 0, 98, 56
1, 294891, Control_c, 0, 64, 127
1, 294926, Note_off_c, 0, 40, 64
1, 294990, Note_on_c, 0, 96, 105
1, 294991, Note_on_c, 0, 84, 104
1, 295141, Note_off_c, 0, 84, 59
1, 295147, Note_off_c, 0, 96, 59
1, 295228, Note_on_c, 0, 52, 94
1, 295228, Note_on_c, 0, 96, 101
1, 295230, Note_on_c, 0, 56, 96
1, 295231, Note_on_c, 0, 62, 96
1, 295231, Note_on_c, 0, 60, 91
1, 295233, Note_on_c, 0, 84, 102
1, 295275, Note_off_c, 0, 60, 64
1, 295279, Note_off_c, 0, 62, 62
1, 295313, Note_off_c, 0, 56, 70
1, 295320, Note_off_c, 0, 52, 66
1, 295370, Note_off_c, 0, 84, 54
1, 295454, Note_off_c, 0, 96, 59
1, 295491, Note_on_c, 0, 94, 101
1, 295492, Note_on_c, 0, 82, 95
1, 295635, Note_on_c, 0, 38, 103
1, 295639, Note_off_c, 0, 82, 62
1, 295734, Note_off_c, 0, 94, 63
1, 295767, Note_on_c, 0, 80, 99
1, 295768, Note_on_c, 0, 92, 96
1, 295806, Note_on_c, 0, 94, 26
1, 295836, Note_off_c, 0, 94, 32
1, 295844, Note_off_c, 0, 92, 67
1, 295891, Note_off_c, 0, 80, 61
1, 296039, Note_on_c, 0, 86, 96
1, 296292, Note_on_c, 0, 84, 95
1, 296346, Note_off_c, 0, 86, 55
1, 296417, Note_on_c, 0, 36, 100
1, 296455, Note_off_c, 0, 38, 64
1, 296565, Note_on_c, 0, 82, 92
1, 296619, Note_off_c, 0, 84, 60
1, 296826, Note_on_c, 0, 80, 91
1, 296882, Note_off_c, 0, 82, 62
1, 297089, Note_on_c, 0, 74, 83
1, 297096, Note_off_c, 0, 80, 67
1, 297258, Note_on_c, 0, 34, 97
1, 297292, Note_off_c, 0, 36, 64
1, 297358, Note_off_c, 0, 74, 56
1, 297386, Note_on_c, 0, 72, 81
1, 297661, Note_on_c, 0, 70, 80
1, 297710, Note_off_c, 0, 72, 61
1, 297936, Note_on_c, 0, 68, 82
1, 298006, Note_off_c, 0, 70, 49
1, 298081, Note_off_c, 0, 34, 63
1, 298110, Note_on_c, 0, 32, 97
1, 298294, Note_on_c, 0, 62, 74
1, 298316, Note_off_c, 0, 68, 53
1, 298627, Note_on_c, 0, 71, 69
1, 298997, Note_on_c, 0, 69, 69
1, 299054, Note_off_c, 0, 62, 60
1, 299099, Note_off_c, 0, 71, 46
1, 299188, Note_off_c, 0, 32, 61
1, 299225, Note_on_c, 0, 31, 90
1, 299643, Note_on_c, 0, 63, 54
1, 299654, Note_off_c, 0, 31, 61
1, 299872, Note_off_c, 0, 69, 58
1, 300409, Control_c, 0, 64, 124
1, 300424, Control_c, 0, 64, 117
1, 300439, Control_c, 0, 64, 110
1, 300453, Control_c, 0, 64, 103
1, 300468, Control_c, 0, 64, 94
1, 300483, Control_c, 0, 64, 84
1, 300498, Control_c, 0, 64, 72
1, 300513, Control_c, 0, 64, 27
1, 300528, Control_c, 0, 64, 0
1, 300563, Note_on_c, 0, 30, 35
1, 301000, Note_on_c, 0, 33, 32
1, 301082, Control_c, 0, 64, 56
1, 301097, Control_c, 0, 64, 62
1, 301127, Control_c, 0, 64, 64
1, 301142, Control_c, 0, 64, 67
1, 301157, Control_c, 0, 64, 71
1, 301172, Control_c, 0, 64, 74
1, 301187, Control_c, 0, 64, 75
1, 301202, Control_c, 0, 64, 76
1, 301217, Control_c, 0, 64, 78
1, 301230, Control_c, 0, 64, 81
1, 301245, Control_c, 0, 64, 83
1, 301260, Control_c, 0, 64, 83
1, 301275, Control_c, 0, 64, 84
1, 301289, Note_on_c, 0, 70, 43
1, 301290, Control_c, 0, 64, 85
1, 301298, Note_off_c, 0, 33, 50
1, 301304, Control_c, 0, 64, 88
1, 301307, Note_on_c, 0, 40, 42
1, 301318, Note_off_c, 0, 30, 53
1, 301319, Control_c, 0, 64, 90
1, 301334, Control_c, 0, 64, 91
1, 301349, Control_c, 0, 64, 92
1, 301363, Control_c, 0, 64, 93
1, 301378, Control_c, 0, 64, 95
1, 301393, Control_c, 0, 64, 97
1, 301408, Control_c, 0, 64, 97
1, 301423, Control_c, 0, 64, 98
1, 301467, Control_c, 0, 64, 98
1, 301510, Note_on_c, 0, 68, 51
1, 301511, Note_off_c, 0, 63, 61
1, 301527, Control_c, 0, 64, 99
1, 301527, Note_on_c, 0, 36, 50
1, 301528, Note_off_c, 0, 70, 52
1, 301582, Note_off_c, 0, 40, 40
1, 301716, Note_on_c, 0, 62, 53
1, 301726, Note_on_c, 0, 44, 52
1, 301726, Control_c, 0, 64, 98
1, 301771, Control_c, 0, 64, 98
1, 301801, Control_c, 0, 64, 97
1, 301816, Control_c, 0, 64, 97
1, 301828, Note_off_c, 0, 36, 35
1, 301875, Control_c, 0, 64, 96
1, 301890, Control_c, 0, 64, 96
1, 301904, Note_on_c, 0, 71, 56
1, 301904, Control_c, 0, 64, 95
1, 301910, Note_on_c, 0, 50, 58
1, 301919, Control_c, 0, 64, 95
1, 301934, Control_c, 0, 64, 94
1, 301935, Note_off_c, 0, 68, 52
1, 301963, Control_c, 0, 64, 94
1, 301979, Note_off_c, 0, 44, 61
1, 301980, Control_c, 0, 64, 93
1, 301995, Control_c, 0, 64, 93
1, 302001, Note_off_c, 0, 62, 51
1, 302009, Control_c, 0, 64, 92
1, 302024, Control_c, 0, 64, 91
1, 302039, Control_c, 0, 64, 90
1, 302054, Control_c, 0, 64, 90
1, 302069, Control_c, 0, 64, 89
1, 302078, Note_on_c, 0, 69, 59
1, 302084, Control_c, 0, 64, 88
1, 302099, Control_c, 0, 64, 88
1, 302113, Note_off_c, 0, 71, 57
1, 302114, Control_c, 0, 64, 87
1, 302128, Control_c, 0, 64, 86
1, 302143, Control_c, 0, 64, 85
1, 302158, Control_c, 0, 64, 85
1, 302172, Control_c, 0, 64, 84
1, 302187, Control_c, 0, 64, 83
1, 302202, Control_c, 0, 64, 81
1, 302217, Control_c, 0, 64, 79
1, 302232, Control_c, 0, 64, 78
1, 302247, Control_c, 0, 64, 76
1, 302252, Note_on_c, 0, 63, 61
1, 302261, Control_c, 0, 64, 74
1, 302276, Control_c, 0, 64, 73
1, 302291, Control_c, 0, 64, 71
1, 302306, Control_c, 0, 64, 69
1, 302321, Control_c, 0, 64, 68
1, 302335, Control_c, 0, 64, 67
1, 302379, Control_c, 0, 64, 67
1, 302394, Control_c, 0, 64, 66
1, 302409, Control_c, 0, 64, 66
1, 302415, Note_on_c, 0, 72, 66
1, 302424, Control_c, 0, 64, 65
1, 302426, Note_off_c, 0, 69, 64
1, 302439, Control_c, 0, 64, 65
1, 302461, Control_c, 0, 64, 64
1, 302476, Control_c, 0, 64, 64
1, 302491, Control_c, 0, 64, 63
1, 302505, Control_c, 0, 64, 63
1, 302579, Control_c, 0, 64, 63
1, 302589, Note_on_c, 0, 51, 54
1, 302609, Control_c, 0, 64, 64
1, 302655, Note_off_c, 0, 50, 58
1, 302668, Control_c, 0, 64, 64
1, 302683, Control_c, 0, 64, 65
1, 302743, Control_c, 0, 64, 66
1, 302751, Note_off_c, 0, 51, 59
1, 302763, Note_on_c, 0, 49, 52
1, 302832, Control_c, 0, 64, 65
1, 302877, Control_c, 0, 64, 65
1, 302907, Control_c, 0, 64, 64
1, 302922, Control_c, 0, 64, 64
1, 302925, Note_on_c, 0, 44, 51
1, 302925, Note_off_c, 0, 49, 56
1, 302937, Control_c, 0, 64, 63
1, 302951, Control_c, 0, 64, 61
1, 302966, Control_c, 0, 64, 60
1, 302981, Control_c, 0, 64, 60
1, 302995, Control_c, 0, 64, 59
1, 303010, Control_c, 0, 64, 57
1, 303025, Control_c, 0, 64, 57
1, 303040, Control_c, 0, 64, 57
1, 303055, Control_c, 0, 64, 59
1, 303069, Control_c, 0, 64, 60
1, 303084, Control_c, 0, 64, 61
1, 303089, Note_off_c, 0, 63, 48
1, 303099, Control_c, 0, 64, 62
1, 303103, Note_off_c, 0, 72, 63
1, 303106, Note_on_c, 0, 71, 50
1, 303114, Control_c, 0, 64, 64
1, 303128, Control_c, 0, 64, 66
1, 303143, Control_c, 0, 64, 68
1, 303158, Control_c, 0, 64, 71
1, 303173, Control_c, 0, 64, 73
1, 303188, Control_c, 0, 64, 74
1, 303210, Control_c, 0, 64, 74
1, 303240, Control_c, 0, 64, 75
1, 303255, Control_c, 0, 64, 75
1, 303284, Control_c, 0, 64, 76
1, 303290, Note_on_c, 0, 65, 47
1, 303314, Control_c, 0, 64, 76
1, 303358, Control_c, 0, 64, 77
1, 303450, Note_on_c, 0, 77, 58
1, 303611, Control_c, 0, 64, 77
1, 303625, Control_c, 0, 64, 78
1, 303626, Note_on_c, 0, 51, 53
1, 303640, Control_c, 0, 64, 78
1, 303687, Note_off_c, 0, 44, 35
1, 303700, Control_c, 0, 64, 79
1, 303793, Note_on_c, 0, 49, 57
1, 303826, Note_off_c, 0, 51, 33
1, 303907, Control_c, 0, 64, 78
1, 303922, Control_c, 0, 64, 77
1, 303936, Note_on_c, 0, 44, 61
1, 303937, Control_c, 0, 64, 76
1, 303959, Control_c, 0, 64, 75
1, 303974, Control_c, 0, 64, 73
1, 303989, Control_c, 0, 64, 71
1, 304004, Control_c, 0, 64, 69
1, 304019, Control_c, 0, 64, 67
1, 304022, Note_off_c, 0, 49, 35
1, 304033, Control_c, 0, 64, 67
1, 304093, Control_c, 0, 64, 67
1, 304099, Note_on_c, 0, 46, 68
1, 304099, Note_on_c, 0, 76, 64
1, 304107, Control_c, 0, 64, 68
1, 304110, Note_off_c, 0, 71, 59
1, 304122, Control_c, 0, 64, 69
1, 304132, Note_off_c, 0, 77, 45
1, 304137, Control_c, 0, 64, 71
1, 304151, Control_c, 0, 64, 73
1, 304166, Control_c, 0, 64, 75
1, 304181, Control_c, 0, 64, 76
1, 304191, Note_off_c, 0, 44, 33
1, 304196, Control_c, 0, 64, 76
1, 304206, Note_off_c, 0, 65, 61
1, 304211, Control_c, 0, 64, 77
1, 304224, Control_c, 0, 64, 77
1, 304239, Control_c, 0, 64, 78
1, 304242, Note_off_c, 0, 46, 55
1, 304255, Note_on_c, 0, 48, 67
1, 304255, Note_on_c, 0, 70, 73
1, 304270, Note_off_c, 0, 76, 65
1, 304418, Control_c, 0, 64, 75
1, 304424, Note_off_c, 0, 48, 61
1, 304425, Note_on_c, 0, 80, 80
1, 304433, Note_on_c, 0, 49, 66
1, 304433, Control_c, 0, 64, 70
1, 304448, Control_c, 0, 64, 63
1, 304463, Control_c, 0, 64, 47
1, 304478, Control_c, 0, 64, 36
1, 304493, Control_c, 0, 64, 0
1, 304565, Note_on_c, 0, 45, 67
1, 304567, Control_c, 0, 64, 61
1, 304581, Control_c, 0, 64, 67
1, 304596, Control_c, 0, 64, 68
1, 304611, Control_c, 0, 64, 71
1, 304626, Control_c, 0, 64, 77
1, 304641, Control_c, 0, 64, 83
1, 304655, Control_c, 0, 64, 86
1, 304670, Control_c, 0, 64, 87
1, 304737, Control_c, 0, 64, 87
1, 304742, Note_off_c, 0, 45, 34
1, 304743, Note_on_c, 0, 53, 62
1, 304800, Note_off_c, 0, 70, 63
1, 304806, Note_on_c, 0, 69, 76
1, 304853, Note_off_c, 0, 80, 39
1, 304944, Control_c, 0, 64, 87
1, 304959, Control_c, 0, 64, 85
1, 304974, Control_c, 0, 64, 81
1, 304989, Control_c, 0, 64, 75
1, 305004, Control_c, 0, 64, 70
1, 305019, Control_c, 0, 64, 65
1, 305034, Control_c, 0, 64, 61
1, 305048, Control_c, 0, 64, 58
1, 305056, Note_on_c, 0, 81, 82
1, 305063, Control_c, 0, 64, 54
1, 305065, Note_on_c, 0, 60, 60
1, 305078, Control_c, 0, 64, 49
1, 305093, Control_c, 0, 64, 38
1, 305107, Control_c, 0, 64, 20
1, 305122, Control_c, 0, 64, 0
1, 305135, Note_off_c, 0, 53, 65
1, 305183, Control_c, 0, 64, 22
1, 305197, Control_c, 0, 64, 43
1, 305212, Control_c, 0, 64, 59
1, 305227, Control_c, 0, 64, 64
1, 305242, Control_c, 0, 64, 67
1, 305257, Control_c, 0, 64, 69
1, 305271, Control_c, 0, 64, 70
1, 305286, Control_c, 0, 64, 73
1, 305293, Note_off_c, 0, 49, 38
1, 305301, Control_c, 0, 64, 77
1, 305316, Control_c, 0, 64, 80
1, 305330, Control_c, 0, 64, 81
1, 305345, Control_c, 0, 64, 83
1, 305360, Control_c, 0, 64, 83
1, 305383, Note_off_c, 0, 69, 65
1, 305405, Control_c, 0, 64, 81
1, 305418, Note_on_c, 0, 49, 60
1, 305420, Control_c, 0, 64, 76
1, 305435, Control_c, 0, 64, 67
1, 305457, Control_c, 0, 64, 31
1, 305472, Control_c, 0, 64, 0
1, 305541, Note_off_c, 0, 81, 61
1, 305555, Note_on_c, 0, 70, 65
1, 305575, Control_c, 0, 64, 64
1, 305590, Control_c, 0, 64, 72
1, 305604, Control_c, 0, 64, 78
1, 305619, Control_c, 0, 64, 82
1, 305634, Control_c, 0, 64, 84
1, 305649, Control_c, 0, 64, 87
1, 305664, Control_c, 0, 64, 89
1, 305679, Control_c, 0, 64, 91
1, 305694, Control_c, 0, 64, 93
1, 305709, Control_c, 0, 64, 94
1, 305723, Control_c, 0, 64, 95
1, 305738, Control_c, 0, 64, 96
1, 305743, Note_on_c, 0, 82, 76
1, 305753, Control_c, 0, 64, 97
1, 305768, Control_c, 0, 64, 99
1, 305783, Control_c, 0, 64, 100
1, 305797, Control_c, 0, 64, 102
1, 305812, Control_c, 0, 64, 103
1, 305813, Note_off_c, 0, 70, 61
1, 305827, Control_c, 0, 64, 104
1, 305842, Control_c, 0, 64, 105
1, 305857, Control_c, 0, 64, 106
1, 305871, Control_c, 0, 64, 107
1, 305882, Note_on_c, 0, 78, 77
1, 305886, Control_c, 0, 64, 108
1, 305901, Control_c, 0, 64, 110
1, 305915, Control_c, 0, 64, 111
1, 305916, Note_off_c, 0, 49, 36
1, 305930, Control_c, 0, 64, 112
1, 305945, Control_c, 0, 64, 112
1, 305950, Note_off_c, 0, 78, 61
1, 305960, Control_c, 0, 64, 113
1, 305980, Note_off_c, 0, 82, 59
1, 305991, Control_c, 0, 64, 113
1, 306025, Note_on_c, 0, 49, 64
1, 306026, Note_on_c, 0, 78, 77
1, 306069, Note_off_c, 0, 60, 54
1, 306080, Control_c, 0, 64, 114
1, 306109, Control_c, 0, 64, 114
1, 306124, Control_c, 0, 64, 115
1, 306139, Control_c, 0, 64, 116
1, 306153, Control_c, 0, 64, 117
1, 306162, Note_on_c, 0, 74, 71
1, 306165, Note_off_c, 0, 78, 61
1, 306168, Control_c, 0, 64, 119
1, 306183, Control_c, 0, 64, 121
1, 306188, Note_off_c, 0, 74, 66
1, 306206, Control_c, 0, 64, 122
1, 306221, Control_c, 0, 64, 122
1, 306265, Control_c, 0, 64, 119
1, 306280, Control_c, 0, 64, 106
1, 306295, Control_c, 0, 64, 92
1, 306309, Control_c, 0, 64, 74
1, 306324, Control_c, 0, 64, 58
1, 306327, Note_on_c, 0, 77, 78
1, 306328, Note_on_c, 0, 59, 51
1, 306336, Note_on_c, 0, 69, 66
1, 306337, Note_on_c, 0, 65, 68
1, 306339, Control_c, 0, 64, 0
1, 306353, Note_off_c, 0, 49, 51
1, 306457, Control_c, 0, 64, 59
1, 306472, Control_c, 0, 64, 70
1, 306487, Control_c, 0, 64, 77
1, 306502, Control_c, 0, 64, 85
1, 306517, Control_c, 0, 64, 90
1, 306531, Control_c, 0, 64, 93
1, 306546, Control_c, 0, 64, 94
1, 306561, Control_c, 0, 64, 96
1, 306576, Control_c, 0, 64, 98
1, 306591, Control_c, 0, 64, 99
1, 306606, Control_c, 0, 64, 99
1, 306616, Note_off_c, 0, 77, 62
1, 306620, Control_c, 0, 64, 100
1, 306637, Note_on_c, 0, 75, 67
1, 306650, Control_c, 0, 64, 100
1, 306652, Note_on_c, 0, 49, 54
1, 306659, Note_off_c, 0, 59, 63
1, 306660, Note_off_c, 0, 69, 66
1, 306665, Control_c, 0, 64, 101
1, 306704, Note_off_c, 0, 65, 63
1, 306739, Control_c, 0, 64, 101
1, 306769, Control_c, 0, 64, 102
1, 306799, Control_c, 0, 64, 102
1, 306814, Control_c, 0, 64, 103
1, 306843, Control_c, 0, 64, 103
1, 306903, Control_c, 0, 64, 102
1, 306917, Control_c, 0, 64, 95
1, 306932, Control_c, 0, 64, 84
1, 306955, Control_c, 0, 64, 69
1, 306961, Note_on_c, 0, 67, 56
1, 306962, Note_on_c, 0, 64, 53
1, 306967, Note_on_c, 0, 58, 51
1, 306970, Control_c, 0, 64, 0
1, 306976, Note_off_c, 0, 49, 58
1, 307058, Control_c, 0, 64, 14
1, 307073, Control_c, 0, 64, 67
1, 307088, Control_c, 0, 64, 75
1, 307102, Control_c, 0, 64, 83
1, 307117, Control_c, 0, 64, 89
1, 307132, Control_c, 0, 64, 92
1, 307147, Control_c, 0, 64, 95
1, 307162, Control_c, 0, 64, 98
1, 307175, Note_off_c, 0, 67, 63
1, 307176, Control_c, 0, 64, 103
1, 307191, Note_off_c, 0, 64, 55
1, 307191, Control_c, 0, 64, 106
1, 307206, Control_c, 0, 64, 108
1, 307221, Control_c, 0, 64, 109
1, 307236, Control_c, 0, 64, 110
1, 307250, Control_c, 0, 64, 112
1, 307265, Control_c, 0, 64, 115
1, 307277, Note_on_c, 0, 49, 51
1, 307277, Note_off_c, 0, 58, 63
1, 307280, Control_c, 0, 64, 117
1, 307295, Control_c, 0, 64, 119
1, 307309, Control_c, 0, 64, 120
1, 307324, Control_c, 0, 64, 121
1, 307339, Control_c, 0, 64, 123
1, 307354, Note_off_c, 0, 49, 63
1, 307354, Control_c, 0, 64, 127
1, 307432, Note_on_c, 0, 65, 49
1, 307434, Note_on_c, 0, 68, 48
1, 307519, Note_off_c, 0, 65, 56
1, 307530, Note_off_c, 0, 68, 38
1, 307622, Control_c, 0, 64, 115
1, 307637, Control_c, 0, 64, 101
1, 307652, Control_c, 0, 64, 85
1, 307666, Control_c, 0, 64, 73
1, 307667, Note_on_c, 0, 31, 65
1, 307678, Note_on_c, 0, 65, 47
1, 307679, Note_on_c, 0, 68, 41
1, 307681, Control_c, 0, 64, 63
1, 307703, Control_c, 0, 64, 43
1, 307718, Control_c, 0, 64, 25
1, 307733, Control_c, 0, 64, 0
1, 307822, Control_c, 0, 64, 53
1, 307837, Control_c, 0, 64, 66
1, 307852, Control_c, 0, 64, 73
1, 307865, Note_off_c, 0, 75, 59
1, 307867, Control_c, 0, 64, 79
1, 307875, Note_on_c, 0, 73, 59
1, 307881, Control_c, 0, 64, 85
1, 307888, Note_off_c, 0, 68, 63
1, 307896, Control_c, 0, 64, 90
1, 307911, Control_c, 0, 64, 92
1, 307918, Note_off_c, 0, 73, 62
1, 307925, Control_c, 0, 64, 94
1, 307940, Control_c, 0, 64, 96
1, 307955, Control_c, 0, 64, 97
1, 307970, Control_c, 0, 64, 98
1, 307985, Control_c, 0, 64, 98
1, 308042, Note_on_c, 0, 73, 62
1, 308044, Control_c, 0, 64, 99
1, 308045, Note_on_c, 0, 34, 63
1, 308073, Control_c, 0, 64, 99
1, 308103, Control_c, 0, 64, 100
1, 308106, Note_off_c, 0, 65, 53
1, 308132, Control_c, 0, 64, 101
1, 308147, Control_c, 0, 64, 102
1, 308162, Control_c, 0, 64, 103
1, 308176, Note_on_c, 0, 69, 69
1, 308177, Control_c, 0, 64, 104
1, 308192, Control_c, 0, 64, 105
1, 308202, Note_off_c, 0, 73, 62
1, 308207, Control_c, 0, 64, 106
1, 308222, Control_c, 0, 64, 107
1, 308237, Control_c, 0, 64, 108
1, 308243, Note_off_c, 0, 69, 64
1, 308251, Control_c, 0, 64, 109
1, 308266, Control_c, 0, 64, 109
1, 308281, Control_c, 0, 64, 110
1, 308296, Control_c, 0, 64, 110
1, 308298, Note_off_c, 0, 31, 36
1, 308311, Control_c, 0, 64, 111
1, 308322, Note_on_c, 0, 69, 67
1, 308325, Note_on_c, 0, 41, 79
1, 308326, Control_c, 0, 64, 112
1, 308341, Control_c, 0, 64, 112
1, 308345, Note_off_c, 0, 34, 61
1, 308356, Control_c, 0, 64, 113
1, 308415, Control_c, 0, 64, 113
1, 308453, Control_c, 0, 64, 114
1, 308468, Control_c, 0, 64, 115
1, 308471, Note_on_c, 0, 65, 70
1, 308497, Control_c, 0, 64, 115
1, 308512, Control_c, 0, 64, 116
1, 308527, Control_c, 0, 64, 117
1, 308538, Note_off_c, 0, 65, 65
1, 308542, Control_c, 0, 64, 118
1, 308556, Control_c, 0, 64, 118
1, 308558, Note_on_c, 0, 37, 77
1, 308571, Control_c, 0, 64, 119
1, 308586, Control_c, 0, 64, 119
1, 308615, Note_on_c, 0, 65, 60
1, 308622, Note_off_c, 0, 41, 64
1, 308684, Note_off_c, 0, 69, 62
1, 308737, Note_on_c, 0, 45, 82
1, 308768, Note_off_c, 0, 65, 64
1, 308775, Note_on_c, 0, 61, 68
1, 308794, Note_off_c, 0, 37, 64
1, 308845, Note_off_c, 0, 61, 62
1, 308912, Control_c, 0, 64, 119
1, 308941, Control_c, 0, 64, 118
1, 308956, Control_c, 0, 64, 117
1, 308971, Control_c, 0, 64, 115
1, 308986, Control_c, 0, 64, 111
1, 309001, Control_c, 0, 64, 109
1, 309015, Control_c, 0, 64, 106
1, 309030, Control_c, 0, 64, 103
1, 309045, Control_c, 0, 64, 99
1, 309060, Control_c, 0, 64, 93
1, 309071, Note_on_c, 0, 51, 78
1, 309074, Control_c, 0, 64, 86
1, 309079, Note_on_c, 0, 64, 64
1, 309083, Note_on_c, 0, 60, 59
1, 309086, Note_on_c, 0, 56, 56
1, 309089, Control_c, 0, 64, 79
1, 309104, Control_c, 0, 64, 74
1, 309119, Control_c, 0, 64, 70
1, 309134, Control_c, 0, 64, 66
1, 309139, Note_off_c, 0, 45, 58
1, 309149, Control_c, 0, 64, 63
1, 309164, Control_c, 0, 64, 58
1, 309179, Control_c, 0, 64, 51
1, 309202, Control_c, 0, 64, 44
1, 309217, Control_c, 0, 64, 40
1, 309232, Control_c, 0, 64, 33
1, 309246, Control_c, 0, 64, 0
1, 309350, Control_c, 0, 64, 18
1, 309365, Control_c, 0, 64, 51
1, 309379, Control_c, 0, 64, 61
1, 309394, Control_c, 0, 64, 64
1, 309409, Control_c, 0, 64, 67
1, 309424, Control_c, 0, 64, 72
1, 309439, Control_c, 0, 64, 77
1, 309444, Note_off_c, 0, 56, 64
1, 309453, Control_c, 0, 64, 81
1, 309468, Control_c, 0, 64, 82
1, 309527, Control_c, 0, 64, 81
1, 309537, Note_off_c, 0, 60, 50
1, 309542, Control_c, 0, 64, 76
1, 309557, Control_c, 0, 64, 64
1, 309572, Control_c, 0, 64, 0
1, 309572, Note_off_c, 0, 64, 57
1, 309602, Note_on_c, 0, 65, 54
1, 309604, Note_on_c, 0, 61, 53
1, 309613, Note_on_c, 0, 55, 45
1, 309705, Control_c, 0, 64, 68
1, 309710, Note_off_c, 0, 55, 66
1, 309720, Control_c, 0, 64, 79
1, 309735, Control_c, 0, 64, 90
1, 309747, Note_off_c, 0, 61, 63
1, 309750, Control_c, 0, 64, 95
1, 309764, Control_c, 0, 64, 97
1, 309768, Note_off_c, 0, 65, 66
1, 309779, Control_c, 0, 64, 98
1, 309794, Control_c, 0, 64, 100
1, 309809, Control_c, 0, 64, 101
1, 309813, Note_off_c, 0, 51, 61
1, 309824, Control_c, 0, 64, 102
1, 309838, Control_c, 0, 64, 104
1, 309853, Control_c, 0, 64, 105
1, 309868, Control_c, 0, 64, 107
1, 309883, Control_c, 0, 64, 108
1, 309891, Note_on_c, 0, 49, 51
1, 309897, Control_c, 0, 64, 109
1, 309912, Control_c, 0, 64, 109
1, 309927, Control_c, 0, 64, 111
1, 309950, Control_c, 0, 64, 112
1, 309965, Control_c, 0, 64, 114
1, 309976, Note_on_c, 0, 67, 65
1, 309980, Control_c, 0, 64, 115
1, 309995, Control_c, 0, 64, 116
1, 310010, Control_c, 0, 64, 116
1, 310025, Control_c, 0, 64, 117
1, 310109, Note_off_c, 0, 49, 49
1, 310128, Control_c, 0, 64, 117
1, 310132, Note_on_c, 0, 71, 78
1, 310158, Control_c, 0, 64, 118
1, 310188, Control_c, 0, 64, 119
1, 310202, Control_c, 0, 64, 120
1, 310217, Control_c, 0, 64, 122
1, 310232, Control_c, 0, 64, 127
1, 310243, Note_off_c, 0, 67, 38
1, 310246, Note_on_c, 0, 45, 58
1, 310286, Note_off_c, 0, 45, 61
1, 310350, Note_on_c, 0, 77, 80
1, 310357, Note_on_c, 0, 45, 73
1, 310362, Note_off_c, 0, 71, 60
1, 310442, Note_off_c, 0, 45, 61
1, 310487, Note_on_c, 0, 41, 64
1, 310525, Note_off_c, 0, 77, 61
1, 310541, Note_off_c, 0, 41, 64
1, 310556, Note_on_c, 0, 73, 80
1, 310622, Note_on_c, 0, 41, 61
1, 310724, Note_on_c, 0, 81, 92
1, 310769, Note_on_c, 0, 37, 57
1, 310777, Note_off_c, 0, 41, 53
1, 310789, Note_off_c, 0, 73, 59
1, 310949, Note_off_c, 0, 37, 62
1, 310951, Control_c, 0, 64, 102
1, 310966, Control_c, 0, 64, 82
1, 310981, Control_c, 0, 64, 62
1, 310994, Note_on_c, 0, 40, 69
1, 310996, Note_on_c, 0, 87, 80
1, 310996, Control_c, 0, 64, 0
1, 311048, Note_off_c, 0, 81, 53
1, 311143, Control_c, 0, 64, 43
1, 311158, Control_c, 0, 64, 81
1, 311173, Control_c, 0, 64, 97
1, 311188, Control_c, 0, 64, 107
1, 311190, Note_off_c, 0, 40, 63
1, 311200, Note_on_c, 0, 85, 76
1, 311203, Control_c, 0, 64, 108
1, 311217, Control_c, 0, 64, 112
1, 311230, Note_off_c, 0, 87, 62
1, 311232, Control_c, 0, 64, 117
1, 311247, Control_c, 0, 64, 121
1, 311262, Control_c, 0, 64, 124
1, 311267, Note_off_c, 0, 85, 64
1, 311277, Control_c, 0, 64, 125
1, 311292, Control_c, 0, 64, 126
1, 311322, Control_c, 0, 64, 127
1, 311336, Control_c, 0, 64, 127
1, 311370, Note_on_c, 0, 85, 71
1, 311372, Note_on_c, 0, 59, 59
1, 311378, Note_on_c, 0, 53, 61
1, 311522, Note_on_c, 0, 81, 74
1, 311525, Note_off_c, 0, 59, 62
1, 311561, Note_off_c, 0, 85, 61
1, 311572, Note_off_c, 0, 53, 66
1, 311590, Note_off_c, 0, 81, 60
1, 311682, Note_on_c, 0, 81, 75
1, 311817, Note_on_c, 0, 77, 69
1, 311873, Note_off_c, 0, 77, 59
1, 311875, Note_on_c, 0, 31, 67
1, 311965, Note_on_c, 0, 77, 68
1, 312030, Note_off_c, 0, 81, 57
1, 312055, Note_on_c, 0, 34, 73
1, 312093, Note_off_c, 0, 77, 61
1, 312101, Note_on_c, 0, 73, 71
1, 312153, Note_off_c, 0, 73, 62
1, 312245, Note_off_c, 0, 31, 55
1, 312258, Note_on_c, 0, 73, 68
1, 312259, Note_on_c, 0, 41, 76
1, 312297, Note_off_c, 0, 34, 63
1, 312404, Note_on_c, 0, 69, 70
1, 312465, Note_off_c, 0, 69, 62
1, 312470, Note_on_c, 0, 37, 78
1, 312521, Note_off_c, 0, 41, 65
1, 312563, Note_on_c, 0, 69, 70
1, 312601, Note_off_c, 0, 73, 33
1, 312645, Note_on_c, 0, 45, 76
1, 312704, Note_off_c, 0, 69, 67
1, 312719, Note_on_c, 0, 65, 69
1, 312721, Note_off_c, 0, 37, 64
1, 312893, Control_c, 0, 64, 116
1, 312908, Control_c, 0, 64, 109
1, 312923, Control_c, 0, 64, 105
1, 312945, Control_c, 0, 64, 101
1, 312960, Control_c, 0, 64, 95
1, 312975, Control_c, 0, 64, 89
1, 312987, Note_on_c, 0, 68, 64
1, 312989, Note_on_c, 0, 51, 74
1, 312989, Control_c, 0, 64, 81
1, 312991, Note_on_c, 0, 64, 60
1, 313004, Control_c, 0, 64, 71
1, 313019, Control_c, 0, 64, 58
1, 313034, Control_c, 0, 64, 0
1, 313036, Note_off_c, 0, 65, 59
1, 313047, Note_off_c, 0, 45, 64
1, 313301, Control_c, 0, 64, 29
1, 313316, Control_c, 0, 64, 56
1, 313331, Control_c, 0, 64, 61
1, 313346, Control_c, 0, 64, 60
1, 313361, Control_c, 0, 64, 60
1, 313405, Control_c, 0, 64, 59
1, 313420, Control_c, 0, 64, 54
1, 313420, Note_off_c, 0, 68, 62
1, 313435, Control_c, 0, 64, 32
1, 313450, Control_c, 0, 64, 0
1, 313482, Note_off_c, 0, 64, 52
1, 313490, Note_on_c, 0, 69, 64
1, 313492, Note_on_c, 0, 65, 49
1, 313598, Control_c, 0, 64, 65
1, 313612, Control_c, 0, 64, 71
1, 313627, Control_c, 0, 64, 75
1, 313642, Control_c, 0, 64, 78
1, 313656, Control_c, 0, 64, 79
1, 313669, Note_off_c, 0, 69, 63
1, 313675, Note_off_c, 0, 65, 64
1, 313738, Control_c, 0, 64, 78
1, 313753, Control_c, 0, 64, 77
1, 313768, Control_c, 0, 64, 75
1, 313783, Note_on_c, 0, 59, 56
1, 313783, Control_c, 0, 64, 70
1, 313784, Note_on_c, 0, 69, 65
1, 313790, Note_on_c, 0, 65, 56
1, 313798, Control_c, 0, 64, 65
1, 313812, Control_c, 0, 64, 60
1, 313827, Control_c, 0, 64, 56
1, 313829, Note_off_c, 0, 59, 0
1, 313829, Note_on_c, 0, 59, 8
1, 313842, Control_c, 0, 64, 55
1, 313857, Control_c, 0, 64, 56
1, 313871, Control_c, 0, 64, 54
1, 313886, Control_c, 0, 64, 51
1, 313901, Control_c, 0, 64, 47
1, 313916, Control_c, 0, 64, 47
1, 313931, Control_c, 0, 64, 48
1, 313945, Control_c, 0, 64, 48
1, 313975, Control_c, 0, 64, 48
1, 313990, Control_c, 0, 64, 47
1, 314012, Note_off_c, 0, 51, 58
1, 314033, Note_on_c, 0, 52, 55
1, 314049, Control_c, 0, 64, 46
1, 314064, Control_c, 0, 64, 46
1, 314079, Control_c, 0, 64, 45
1, 314094, Control_c, 0, 64, 44
1, 314109, Control_c, 0, 64, 43
1, 314124, Control_c, 0, 64, 42
1, 314139, Control_c, 0, 64, 42
1, 314154, Control_c, 0, 64, 40
1, 314168, Control_c, 0, 64, 38
1, 314183, Control_c, 0, 64, 35
1, 314198, Control_c, 0, 64, 34
1, 314227, Control_c, 0, 64, 33
1, 314239, Note_on_c, 0, 50, 52
1, 314249, Note_off_c, 0, 52, 56
1, 314272, Control_c, 0, 64, 34
1, 314286, Control_c, 0, 64, 36
1, 314301, Control_c, 0, 64, 38
1, 314316, Control_c, 0, 64, 41
1, 314331, Control_c, 0, 64, 44
1, 314346, Control_c, 0, 64, 47
1, 314360, Control_c, 0, 64, 50
1, 314375, Control_c, 0, 64, 53
1, 314390, Control_c, 0, 64, 56
1, 314405, Control_c, 0, 64, 57
1, 314420, Control_c, 0, 64, 57
1, 314453, Note_on_c, 0, 45, 55
1, 314484, Note_off_c, 0, 50, 62
1, 314516, Control_c, 0, 64, 58
1, 314531, Control_c, 0, 64, 59
1, 314546, Control_c, 0, 64, 60
1, 314560, Control_c, 0, 64, 62
1, 314568, Note_off_c, 0, 69, 58
1, 314575, Control_c, 0, 64, 62
1, 314620, Control_c, 0, 64, 62
1, 314634, Note_on_c, 0, 68, 63
1, 314634, Control_c, 0, 64, 61
1, 314637, Note_off_c, 0, 65, 60
1, 314645, Note_on_c, 0, 64, 55
1, 314649, Control_c, 0, 64, 60
1, 314664, Control_c, 0, 64, 60
1, 314679, Control_c, 0, 64, 59
1, 314693, Control_c, 0, 64, 59
1, 314708, Control_c, 0, 64, 58
1, 314738, Control_c, 0, 64, 59
1, 314753, Control_c, 0, 64, 61
1, 314769, Control_c, 0, 64, 64
1, 314783, Control_c, 0, 64, 66
1, 314798, Control_c, 0, 64, 69
1, 314812, Note_off_c, 0, 68, 59
1, 314813, Control_c, 0, 64, 72
1, 314828, Control_c, 0, 64, 75
1, 314838, Note_on_c, 0, 69, 80
1, 314842, Note_on_c, 0, 65, 66
1, 314843, Control_c, 0, 64, 79
1, 314847, Note_off_c, 0, 64, 64
1, 314857, Control_c, 0, 64, 83
1, 314872, Control_c, 0, 64, 87
1, 314886, Note_off_c, 0, 59, 55
1, 314887, Control_c, 0, 64, 92
1, 314892, Note_off_c, 0, 65, 64
1, 314902, Control_c, 0, 64, 95
1, 314917, Control_c, 0, 64, 98
1, 314918, Note_off_c, 0, 69, 66
1, 314932, Control_c, 0, 64, 99
1, 314947, Control_c, 0, 64, 101
1, 314955, Note_off_c, 0, 45, 60
1, 314961, Control_c, 0, 64, 102
1, 314976, Control_c, 0, 64, 102
1, 315021, Control_c, 0, 64, 102
1, 315036, Control_c, 0, 64, 99
1, 315051, Control_c, 0, 64, 91
1, 315065, Control_c, 0, 64, 79
1, 315080, Note_on_c, 0, 72, 86
1, 315080, Control_c, 0, 64, 66
1, 315087, Note_on_c, 0, 68, 72
1, 315094, Note_on_c, 0, 64, 58
1, 315095, Control_c, 0, 64, 0
1, 315251, Control_c, 0, 64, 61
1, 315265, Control_c, 0, 64, 70
1, 315280, Control_c, 0, 64, 78
1, 315291, Note_off_c, 0, 64, 64
1, 315295, Control_c, 0, 64, 86
1, 315304, Note_on_c, 0, 54, 70
1, 315310, Control_c, 0, 64, 92
1, 315325, Control_c, 0, 64, 95
1, 315328, Note_off_c, 0, 68, 65
1, 315340, Control_c, 0, 64, 97
1, 315349, Note_off_c, 0, 72, 65
1, 315355, Control_c, 0, 64, 100
1, 315370, Control_c, 0, 64, 102
1, 315384, Control_c, 0, 64, 103
1, 315399, Control_c, 0, 64, 104
1, 315414, Control_c, 0, 64, 104
1, 315443, Control_c, 0, 64, 105
1, 315491, Note_on_c, 0, 52, 67
1, 315508, Note_off_c, 0, 54, 54
1, 315547, Note_on_c, 0, 84, 84
1, 315554, Note_on_c, 0, 72, 70
1, 315651, Note_off_c, 0, 72, 61
1, 315654, Note_off_c, 0, 84, 61
1, 315711, Control_c, 0, 64, 104
1, 315726, Control_c, 0, 64, 101
1, 315737, Note_on_c, 0, 46, 69
1, 315740, Control_c, 0, 64, 96
1, 315754, Note_on_c, 0, 84, 84
1, 315755, Control_c, 0, 64, 91
1, 315760, Note_on_c, 0, 72, 71
1, 315770, Control_c, 0, 64, 85
1, 315785, Control_c, 0, 64, 81
1, 315800, Control_c, 0, 64, 80
1, 315859, Control_c, 0, 64, 81
1, 315874, Control_c, 0, 64, 82
1, 315889, Control_c, 0, 64, 83
1, 315903, Control_c, 0, 64, 84
1, 315914, Note_on_c, 0, 80, 79
1, 315918, Control_c, 0, 64, 86
1, 315921, Note_off_c, 0, 52, 24
1, 315940, Control_c, 0, 64, 87
1, 315955, Control_c, 0, 64, 88
1, 315970, Control_c, 0, 64, 88
1, 315985, Note_on_c, 0, 48, 71
1, 315985, Control_c, 0, 64, 89
1, 315993, Note_off_c, 0, 80, 63
1, 316000, Control_c, 0, 64, 89
1, 316032, Note_off_c, 0, 46, 38
1, 316044, Control_c, 0, 64, 90
1, 316065, Note_on_c, 0, 80, 78
1, 316112, Note_off_c, 0, 84, 60
1, 316142, Note_off_c, 0, 48, 61
1, 316146, Note_on_c, 0, 50, 68
1, 316149, Note_off_c, 0, 72, 61
1, 316205, Note_on_c, 0, 76, 82
1, 316321, Note_off_c, 0, 50, 60
1, 316326, Control_c, 0, 64, 89
1, 316331, Note_on_c, 0, 52, 75
1, 316336, Note_on_c, 0, 82, 88
1, 316340, Control_c, 0, 64, 87
1, 316342, Note_on_c, 0, 70, 85
1, 316345, Note_off_c, 0, 76, 67
1, 316356, Control_c, 0, 64, 81
1, 316367, Note_off_c, 0, 80, 63
1, 316371, Control_c, 0, 64, 75
1, 316386, Control_c, 0, 64, 70
1, 316401, Control_c, 0, 64, 69
1, 316416, Control_c, 0, 64, 71
1, 316418, Note_off_c, 0, 82, 63
1, 316430, Control_c, 0, 64, 77
1, 316445, Control_c, 0, 64, 83
1, 316460, Control_c, 0, 64, 86
1, 316475, Control_c, 0, 64, 87
1, 316489, Note_on_c, 0, 72, 76
1, 316489, Control_c, 0, 64, 87
1, 316491, Note_off_c, 0, 52, 63
1, 316498, Note_off_c, 0, 70, 55
1, 316504, Control_c, 0, 64, 88
1, 316513, Note_on_c, 0, 48, 70
1, 316519, Control_c, 0, 64, 88
1, 316534, Control_c, 0, 64, 90
1, 316549, Control_c, 0, 64, 91
1, 316563, Control_c, 0, 64, 92
1, 316572, Note_off_c, 0, 72, 64
1, 316578, Control_c, 0, 64, 93
1, 316632, Note_on_c, 0, 80, 93
1, 316637, Control_c, 0, 64, 92
1, 316647, Note_on_c, 0, 72, 79
1, 316652, Control_c, 0, 64, 90
1, 316667, Control_c, 0, 64, 87
1, 316689, Control_c, 0, 64, 85
1, 316704, Note_on_c, 0, 56, 78
1, 316704, Control_c, 0, 64, 85
1, 316741, Note_off_c, 0, 48, 64
1, 316778, Control_c, 0, 64, 85
1, 316791, Note_on_c, 0, 68, 73
1, 316793, Control_c, 0, 64, 86
1, 316808, Control_c, 0, 64, 86
1, 316823, Control_c, 0, 64, 88
1, 316837, Control_c, 0, 64, 89
1, 316852, Control_c, 0, 64, 90
1, 316867, Control_c, 0, 64, 91
1, 316878, Note_off_c, 0, 68, 63
1, 316878, Note_off_c, 0, 80, 59
1, 316881, Control_c, 0, 64, 92
1, 316896, Control_c, 0, 64, 93
1, 316911, Control_c, 0, 64, 93
1, 316926, Control_c, 0, 64, 94
1, 316935, Note_off_c, 0, 56, 61
1, 316941, Control_c, 0, 64, 94
1, 316967, Note_on_c, 0, 63, 84
1, 316975, Note_on_c, 0, 79, 85
1, 317000, Control_c, 0, 64, 92
1, 317015, Control_c, 0, 64, 86
1, 317030, Control_c, 0, 64, 75
1, 317035, Note_off_c, 0, 72, 61
1, 317045, Control_c, 0, 64, 65
1, 317060, Control_c, 0, 64, 43
1, 317075, Control_c, 0, 64, 0
1, 317104, Control_c, 0, 64, 30
1, 317119, Control_c, 0, 64, 53
1, 317132, Note_on_c, 0, 74, 70
1, 317134, Control_c, 0, 64, 63
1, 317149, Control_c, 0, 64, 68
1, 317164, Control_c, 0, 64, 74
1, 317179, Control_c, 0, 64, 79
1, 317194, Control_c, 0, 64, 83
1, 317203, Note_off_c, 0, 74, 63
1, 317209, Control_c, 0, 64, 84
1, 317268, Control_c, 0, 64, 83
1, 317283, Control_c, 0, 64, 78
1, 317287, Note_on_c, 0, 55, 77
1, 317288, Note_off_c, 0, 63, 63
1, 317295, Note_on_c, 0, 74, 69
1, 317298, Control_c, 0, 64, 69
1, 317312, Control_c, 0, 64, 54
1, 317327, Control_c, 0, 64, 27
1, 317342, Control_c, 0, 64, 29
1, 317355, Note_off_c, 0, 79, 53
1, 317357, Control_c, 0, 64, 41
1, 317372, Control_c, 0, 64, 56
1, 317386, Control_c, 0, 64, 64
1, 317401, Control_c, 0, 64, 71
1, 317416, Control_c, 0, 64, 77
1, 317439, Control_c, 0, 64, 85
1, 317439, Note_on_c, 0, 72, 77
1, 317440, Note_off_c, 0, 74, 66
1, 317454, Control_c, 0, 64, 90
1, 317468, Control_c, 0, 64, 91
1, 317512, Control_c, 0, 64, 91
1, 317513, Note_off_c, 0, 72, 59
1, 317527, Control_c, 0, 64, 85
1, 317542, Control_c, 0, 64, 69
1, 317553, Note_off_c, 0, 55, 59
1, 317557, Control_c, 0, 64, 0
1, 317558, Note_on_c, 0, 62, 83
1, 317684, Note_on_c, 0, 75, 82
1, 317704, Control_c, 0, 64, 44
1, 317719, Control_c, 0, 64, 88
1, 317734, Control_c, 0, 64, 111
1, 317737, Note_on_c, 0, 58, 79
1, 317749, Control_c, 0, 64, 122
1, 317752, Note_off_c, 0, 62, 55
1, 317755, Note_off_c, 0, 75, 64
1, 317764, Control_c, 0, 64, 123
1, 317778, Control_c, 0, 64, 127
1, 317838, Note_on_c, 0, 78, 94
1, 317847, Note_on_c, 0, 75, 80
1, 317916, Note_on_c, 0, 66, 90
1, 317953, Note_off_c, 0, 75, 59
1, 317954, Note_off_c, 0, 58, 63
1, 317975, Note_off_c, 0, 78, 64
1, 317980, Note_off_c, 0, 66, 66
1, 317996, Note_on_c, 0, 74, 76
1, 318091, Note_off_c, 0, 74, 47
1, 318182, Note_on_c, 0, 82, 90
1, 318187, Note_on_c, 0, 74, 82
1, 318285, Note_off_c, 0, 74, 70
1, 318348, Note_on_c, 0, 78, 73
1, 318407, Note_off_c, 0, 82, 57
1, 318417, Note_off_c, 0, 78, 59
1, 318499, Control_c, 0, 64, 126
1, 318512, Note_on_c, 0, 80, 79
1, 318512, Note_on_c, 0, 78, 83
1, 318514, Control_c, 0, 64, 114
1, 318523, Note_on_c, 0, 62, 88
1, 318528, Control_c, 0, 64, 108
1, 318543, Control_c, 0, 64, 104
1, 318558, Control_c, 0, 64, 103
1, 318669, Note_on_c, 0, 75, 77
1, 318721, Control_c, 0, 64, 103
1, 318726, Note_off_c, 0, 80, 57
1, 318735, Control_c, 0, 64, 104
1, 318738, Note_off_c, 0, 78, 60
1, 318751, Control_c, 0, 64, 105
1, 318796, Control_c, 0, 64, 104
1, 318811, Control_c, 0, 64, 98
1, 318825, Control_c, 0, 64, 86
1, 318834, Note_off_c, 0, 75, 65
1, 318838, Note_on_c, 0, 61, 81
1, 318838, Note_on_c, 0, 79, 75
1, 318840, Note_on_c, 0, 67, 75
1, 318840, Control_c, 0, 64, 67
1, 318855, Control_c, 0, 64, 0
1, 318875, Note_off_c, 0, 62, 57
1, 318952, Control_c, 0, 64, 63
1, 318966, Control_c, 0, 64, 70
1, 318981, Note_on_c, 0, 74, 67
1, 318981, Control_c, 0, 64, 77
1, 318996, Control_c, 0, 64, 84
1, 319011, Control_c, 0, 64, 88
1, 319025, Control_c, 0, 64, 92
1, 319040, Control_c, 0, 64, 95
1, 319043, Note_off_c, 0, 67, 56
1, 319048, Note_off_c, 0, 74, 61
1, 319055, Control_c, 0, 64, 98
1, 319070, Control_c, 0, 64, 101
1, 319084, Control_c, 0, 64, 103
1, 319114, Control_c, 0, 64, 101
1, 319129, Control_c, 0, 64, 90
1, 319137, Note_on_c, 0, 74, 72
1, 319144, Control_c, 0, 64, 74
1, 319145, Note_on_c, 0, 52, 79
1, 319159, Control_c, 0, 64, 43
1, 319173, Control_c, 0, 64, 0
1, 319232, Control_c, 0, 64, 64
1, 319247, Control_c, 0, 64, 71
1, 319262, Control_c, 0, 64, 77
1, 319275, Note_on_c, 0, 73, 80
1, 319276, Control_c, 0, 64, 83
1, 319291, Control_c, 0, 64, 87
1, 319298, Note_off_c, 0, 79, 27
1, 319302, Note_off_c, 0, 74, 64
1, 319306, Control_c, 0, 64, 90
1, 319311, Note_off_c, 0, 61, 40
1, 319321, Control_c, 0, 64, 93
1, 319329, Note_off_c, 0, 73, 63
1, 319336, Control_c, 0, 64, 94
1, 319350, Control_c, 0, 64, 93
1, 319364, Note_off_c, 0, 52, 64
1, 319365, Control_c, 0, 64, 86
1, 319379, Note_on_c, 0, 58, 85
1, 319380, Control_c, 0, 64, 75
1, 319395, Control_c, 0, 64, 63
1, 319410, Control_c, 0, 64, 43
1, 319424, Control_c, 0, 64, 58
1, 319439, Control_c, 0, 64, 67
1, 319454, Control_c, 0, 64, 75
1, 319469, Control_c, 0, 64, 84
1, 319484, Control_c, 0, 64, 87
1, 319498, Control_c, 0, 64, 85
1, 319513, Note_on_c, 0, 75, 86
1, 319513, Control_c, 0, 64, 78
1, 319528, Control_c, 0, 64, 69
1, 319543, Control_c, 0, 64, 62
1, 319559, Control_c, 0, 64, 60
1, 319573, Note_on_c, 0, 55, 82
1, 319573, Control_c, 0, 64, 62
1, 319584, Note_off_c, 0, 75, 64
1, 319588, Control_c, 0, 64, 64
1, 319603, Control_c, 0, 64, 71
1, 319618, Control_c, 0, 64, 80
1, 319633, Control_c, 0, 64, 91
1, 319647, Control_c, 0, 64, 100
1, 319648, Note_on_c, 0, 78, 91
1, 319649, Note_on_c, 0, 75, 87
1, 319662, Control_c, 0, 64, 103
1, 319685, Control_c, 0, 64, 103
1, 319714, Control_c, 0, 64, 104
1, 319719, Note_off_c, 0, 58, 63
1, 319729, Control_c, 0, 64, 106
1, 319732, Note_on_c, 0, 62, 92
1, 319744, Control_c, 0, 64, 107
1, 319759, Control_c, 0, 64, 108
1, 319766, Note_off_c, 0, 55, 63
1, 319773, Note_off_c, 0, 78, 64
1, 319773, Control_c, 0, 64, 108
1, 319799, Note_on_c, 0, 74, 83
1, 319799, Note_off_c, 0, 75, 64
1, 319803, Control_c, 0, 64, 109
1, 319818, Control_c, 0, 64, 109
1, 319877, Control_c, 0, 64, 110
1, 319907, Control_c, 0, 64, 110
1, 319952, Control_c, 0, 64, 108
1, 319960, Note_off_c, 0, 62, 62
1, 319966, Control_c, 0, 64, 102
1, 319972, Note_on_c, 0, 68, 100
1, 319975, Note_on_c, 0, 82, 99
1, 319981, Control_c, 0, 64, 93
1, 319996, Control_c, 0, 64, 81
1, 320011, Control_c, 0, 64, 72
1, 320025, Control_c, 0, 64, 67
1, 320040, Control_c, 0, 64, 66
1, 320041, Note_off_c, 0, 74, 62
1, 320055, Control_c, 0, 64, 68
1, 320070, Control_c, 0, 64, 72
1, 320085, Control_c, 0, 64, 79
1, 320099, Control_c, 0, 64, 86
1, 320114, Control_c, 0, 64, 91
1, 320129, Control_c, 0, 64, 94
1, 320144, Control_c, 0, 64, 96
1, 320148, Note_on_c, 0, 78, 71
1, 320159, Control_c, 0, 64, 96
1, 320173, Control_c, 0, 64, 97
1, 320183, Note_off_c, 0, 78, 60
1, 320203, Control_c, 0, 64, 98
1, 320221, Note_off_c, 0, 82, 59
1, 320235, Note_off_c, 0, 68, 60
1, 320259, Note_on_c, 0, 78, 97
1, 320266, Note_on_c, 0, 63, 89
1, 320268, Note_on_c, 0, 60, 80
1, 320287, Note_on_c, 0, 80, 71
1, 320315, Poly_aftertouch_c, 0, 82, 127
1, 320336, Control_c, 0, 64, 98
1, 320348, Note_off_c, 0, 78, 59
1, 320352, Control_c, 0, 64, 99
1, 320359, Poly_aftertouch_c, 0, 82, 0
1, 320367, Control_c, 0, 64, 102
1, 320382, Control_c, 0, 64, 105
1, 320388, Note_off_c, 0, 80, 0
1, 320396, Control_c, 0, 64, 109
1, 320401, Note_on_c, 0, 80, 51
1, 320402, Note_on_c, 0, 78, 77
1, 320411, Control_c, 0, 64, 115
1, 320434, Control_c, 0, 64, 121
1, 320449, Control_c, 0, 64, 127
1, 320458, Note_on_c, 0, 75, 49
1, 320497, Note_off_c, 0, 80, 63
1, 320504, Note_off_c, 0, 78, 58
1, 320513, Note_off_c, 0, 60, 59
1, 320523, Note_off_c, 0, 63, 63
1, 320537, Control_c, 0, 64, 123
1, 320546, Note_on_c, 0, 69, 93
1, 320548, Note_off_c, 0, 75, 31
1, 320552, Control_c, 0, 64, 96
1, 320554, Note_on_c, 0, 79, 98
1, 320567, Control_c, 0, 64, 71
1, 320582, Control_c, 0, 64, 0
1, 320655, Control_c, 0, 64, 66
1, 320670, Control_c, 0, 64, 78
1, 320678, Note_on_c, 0, 75, 89
1, 320682, Note_off_c, 0, 79, 67
1, 320685, Control_c, 0, 64, 90
1, 320700, Control_c, 0, 64, 100
1, 320715, Control_c, 0, 64, 108
1, 320730, Control_c, 0, 64, 112
1, 320739, Note_off_c, 0, 69, 64
1, 320744, Control_c, 0, 64, 116
1, 320759, Control_c, 0, 64, 123
1, 320765, Note_off_c, 0, 75, 61
1, 320774, Control_c, 0, 64, 127
1, 320813, Note_on_c, 0, 63, 85
1, 320819, Note_on_c, 0, 59, 79
1, 320825, Note_on_c, 0, 78, 98
1, 320827, Note_on_c, 0, 66, 99
1, 320828, Note_on_c, 0, 75, 85
1, 320914, Note_off_c, 0, 63, 65
1, 320916, Note_off_c, 0, 66, 64
1, 320954, Note_on_c, 0, 74, 89
1, 320980, Note_off_c, 0, 78, 60
1, 320994, Note_off_c, 0, 75, 66
1, 320995, Note_off_c, 0, 74, 70
1, 321128, Note_off_c, 0, 59, 56
1, 321188, Note_on_c, 0, 58, 82
1, 321189, Note_on_c, 0, 62, 87
1, 321195, Note_on_c, 0, 77, 91
1, 321195, Note_on_c, 0, 84, 106
1, 321196, Note_on_c, 0, 74, 90
1, 321196, Note_on_c, 0, 80, 99
1, 321198, Control_c, 0, 64, 107
1, 321212, Control_c, 0, 64, 86
1, 321227, Control_c, 0, 64, 67
1, 321242, Control_c, 0, 64, 0
1, 321331, Control_c, 0, 64, 66
1, 321346, Control_c, 0, 64, 79
1, 321347, Note_off_c, 0, 58, 64
1, 321360, Control_c, 0, 64, 91
1, 321375, Control_c, 0, 64, 98
1, 321390, Control_c, 0, 64, 99
1, 321405, Control_c, 0, 64, 101
1, 321420, Control_c, 0, 64, 104
1, 321421, Note_on_c, 0, 50, 83
1, 321434, Control_c, 0, 64, 108
1, 321436, Note_off_c, 0, 74, 63
1, 321450, Control_c, 0, 64, 112
1, 321465, Control_c, 0, 64, 114
1, 321479, Control_c, 0, 64, 115
1, 321483, Note_off_c, 0, 84, 59
1, 321494, Control_c, 0, 64, 115
1, 321496, Note_off_c, 0, 50, 63
1, 321509, Control_c, 0, 64, 116
1, 321524, Control_c, 0, 64, 116
1, 321545, Note_off_c, 0, 77, 57
1, 321553, Control_c, 0, 64, 117
1, 321568, Control_c, 0, 64, 117
1, 321579, Note_on_c, 0, 50, 91
1, 321579, Note_off_c, 0, 80, 63
1, 321583, Control_c, 0, 64, 118
1, 321597, Note_off_c, 0, 62, 60
1, 321598, Control_c, 0, 64, 119
1, 321613, Control_c, 0, 64, 120
1, 321627, Control_c, 0, 64, 120
1, 321642, Control_c, 0, 64, 121
1, 321657, Control_c, 0, 64, 122
1, 321671, Control_c, 0, 64, 122
1, 321686, Control_c, 0, 64, 123
1, 321701, Control_c, 0, 64, 123
1, 321717, Note_on_c, 0, 53, 91
1, 321731, Control_c, 0, 64, 124
1, 321742, Note_off_c, 0, 50, 55
1, 321746, Control_c, 0, 64, 124
1, 321850, Note_off_c, 0, 53, 67
1, 321858, Note_on_c, 0, 79, 100
1, 321860, Note_on_c, 0, 67, 98
1, 321862, Note_on_c, 0, 60, 88
1, 321879, Control_c, 0, 64, 125
1, 321894, Control_c, 0, 64, 127
1, 321994, Note_off_c, 0, 60, 57
1, 322039, Note_off_c, 0, 67, 61
1, 322045, Note_on_c, 0, 56, 81
1, 322111, Note_off_c, 0, 79, 60
1, 322135, Note_on_c, 0, 78, 100
1, 322137, Note_on_c, 0, 66, 102
1, 322194, Note_off_c, 0, 56, 56
1, 322200, Note_off_c, 0, 66, 68
1, 322225, Note_on_c, 0, 64, 90
1, 322239, Note_off_c, 0, 78, 63
1, 322262, Note_off_c, 0, 64, 70
1, 322458, Note_on_c, 0, 84, 107
1, 322458, Note_on_c, 0, 72, 101
1, 322460, Note_on_c, 0, 75, 103
1, 322461, Note_on_c, 0, 78, 99
1, 322465, Note_on_c, 0, 71, 101
1, 322465, Control_c, 0, 64, 104
1, 322480, Control_c, 0, 64, 69
1, 322494, Control_c, 0, 64, 0
1, 322664, Note_on_c, 0, 51, 91
1, 322695, Control_c, 0, 64, 79
1, 322709, Control_c, 0, 64, 101
1, 322724, Control_c, 0, 64, 122
1, 322739, Control_c, 0, 64, 123
1, 322748, Note_off_c, 0, 51, 62
1, 322755, Control_c, 0, 64, 127
1, 322808, Note_on_c, 0, 51, 93
1, 322812, Note_off_c, 0, 71, 53
1, 322838, Note_off_c, 0, 72, 59
1, 322846, Note_off_c, 0, 84, 58
1, 322936, Note_on_c, 0, 54, 93
1, 322943, Note_off_c, 0, 51, 62
1, 323058, Note_off_c, 0, 75, 0
1, 323058, Note_on_c, 0, 75, 4
1, 323071, Note_off_c, 0, 54, 63
1, 323080, Note_on_c, 0, 63, 95
1, 323097, Note_off_c, 0, 75, 0
1, 323161, Poly_aftertouch_c, 0, 75, 0
1, 323217, Note_off_c, 0, 63, 59
1, 323228, Poly_aftertouch_c, 0, 71, 0
1, 323249, Note_on_c, 0, 59, 75
1, 323323, Note_off_c, 0, 78, 57
1, 323331, Note_on_c, 0, 71, 95
1, 323332, Note_on_c, 0, 83, 99
1, 323426, Note_off_c, 0, 71, 57
1, 323447, Note_on_c, 0, 66, 91
1, 323496, Note_off_c, 0, 66, 65
1, 323508, Note_off_c, 0, 59, 62
1, 323625, Note_on_c, 0, 75, 106
1, 323627, Note_on_c, 0, 87, 105
1, 323639, Note_off_c, 0, 83, 56
1, 323645, Note_on_c, 0, 85, 62
1, 323651, Control_c, 0, 64, 91
1, 323663, Note_off_c, 0, 85, 67
1, 323666, Control_c, 0, 64, 65
1, 323681, Control_c, 0, 64, 0
1, 323740, Control_c, 0, 64, 70
1, 323755, Control_c, 0, 64, 86
1, 323761, Note_on_c, 0, 53, 87
1, 323770, Control_c, 0, 64, 103
1, 323783, Note_off_c, 0, 75, 62
1, 323785, Control_c, 0, 64, 114
1, 323800, Control_c, 0, 64, 117
1, 323815, Control_c, 0, 64, 121
1, 323829, Control_c, 0, 64, 127
1, 323830, Note_off_c, 0, 53, 65
1, 323892, Note_on_c, 0, 53, 91
1, 323895, Note_on_c, 0, 85, 103
1, 323896, Note_on_c, 0, 73, 100
1, 323933, Note_off_c, 0, 87, 62
1, 324032, Note_on_c, 0, 56, 88
1, 324059, Note_off_c, 0, 53, 63
1, 324094, Note_off_c, 0, 73, 59
1, 324145, Note_off_c, 0, 85, 62
1, 324162, Note_off_c, 0, 56, 65
1, 324180, Note_on_c, 0, 84, 96
1, 324181, Note_on_c, 0, 72, 94
1, 324183, Note_on_c, 0, 64, 86
1, 324275, Note_off_c, 0, 72, 60
1, 324281, Note_off_c, 0, 84, 60
1, 324286, Note_off_c, 0, 64, 65
1, 324354, Note_on_c, 0, 60, 83
1, 324451, Note_on_c, 0, 83, 101
1, 324453, Note_on_c, 0, 71, 99
1, 324533, Note_off_c, 0, 71, 56
1, 324546, Note_on_c, 0, 68, 93
1, 324587, Note_off_c, 0, 68, 68
1, 324605, Note_off_c, 0, 60, 62
1, 324703, Note_off_c, 0, 83, 57
1, 324734, Note_on_c, 0, 75, 101
1, 324736, Note_on_c, 0, 87, 107
1, 324741, Control_c, 0, 64, 123
1, 324756, Control_c, 0, 64, 87
1, 324770, Control_c, 0, 64, 0
1, 324829, Control_c, 0, 64, 11
1, 324844, Control_c, 0, 64, 72
1, 324859, Control_c, 0, 64, 88
1, 324874, Control_c, 0, 64, 113
1, 324884, Note_on_c, 0, 54, 91
1, 324888, Control_c, 0, 64, 127
1, 324889, Note_off_c, 0, 75, 61
1, 324971, Note_off_c, 0, 54, 59
1, 325025, Note_on_c, 0, 85, 103
1, 325025, Note_on_c, 0, 73, 99
1, 325030, Note_on_c, 0, 54, 87
1, 325063, Note_off_c, 0, 87, 62
1, 325144, Note_off_c, 0, 54, 53
1, 325173, Note_on_c, 0, 57, 96
1, 325189, Note_off_c, 0, 73, 51
1, 325283, Note_off_c, 0, 57, 59
1, 325296, Note_off_c, 0, 85, 58
1, 325318, Note_on_c, 0, 84, 100
1, 325319, Note_on_c, 0, 72, 102
1, 325319, Note_on_c, 0, 66, 100
1, 325420, Note_off_c, 0, 66, 63
1, 325435, Note_off_c, 0, 72, 60
1, 325497, Note_on_c, 0, 62, 101
1, 325524, Note_off_c, 0, 62, 68
1, 325539, Note_off_c, 0, 84, 57
1, 325609, Poly_aftertouch_c, 0, 61, 0
1, 325685, Note_on_c, 0, 70, 102
1, 325686, Note_on_c, 0, 82, 108
1, 325720, Note_off_c, 0, 70, 67
1, 325745, Note_off_c, 0, 82, 62
1, 325761, Note_on_c, 0, 30, 114
1, 325895, Poly_aftertouch_c, 0, 31, 0
1, 325897, Note_off_c, 0, 30, 53
1, 326080, Note_on_c, 0, 82, 104
1, 326080, Note_on_c, 0, 77, 105
1, 326080, Note_on_c, 0, 89, 124
1, 326081, Note_on_c, 0, 79, 109
1, 326085, Note_on_c, 0, 31, 112
1, 326104, Control_c, 0, 64, 95
1, 326119, Control_c, 0, 64, 0
1, 326341, Control_c, 0, 64, 94
1, 326356, Control_c, 0, 64, 127
1, 326377, Note_off_c, 0, 31, 64
1, 326521, Note_off_c, 0, 82, 52
1, 326618, Note_on_c, 0, 73, 91
1, 326623, Note_on_c, 0, 85, 90
1, 326653, Note_off_c, 0, 79, 59
1, 326654, Note_off_c, 0, 77, 31
1, 326722, Note_off_c, 0, 73, 60
1, 326726, Note_off_c, 0, 85, 63
1, 326814, Note_on_c, 0, 85, 90
1, 326814, Note_on_c, 0, 73, 103
1, 326969, Note_off_c, 0, 85, 60
1, 326980, Note_on_c, 0, 81, 95
1, 326980, Note_on_c, 0, 69, 93
1, 326998, Note_off_c, 0, 73, 40
1, 327011, Note_off_c, 0, 89, 56
1, 327056, Note_off_c, 0, 81, 61
1, 327063, Note_off_c, 0, 69, 62
1, 327130, Note_on_c, 0, 69, 92
1, 327133, Note_on_c, 0, 81, 102
1, 327240, Note_off_c, 0, 69, 64
1, 327255, Note_off_c, 0, 81, 61
1, 327282, Note_on_c, 0, 70, 96
1, 327288, Note_on_c, 0, 82, 98
1, 327347, Note_off_c, 0, 70, 61
1, 327364, Note_off_c, 0, 82, 65
1, 327420, Note_on_c, 0, 82, 98
1, 327425, Note_on_c, 0, 70, 98
1, 327496, Note_off_c, 0, 70, 57
1, 327560, Note_on_c, 0, 66, 90
1, 327565, Note_on_c, 0, 78, 96
1, 327619, Note_off_c, 0, 78, 63
1, 327620, Note_off_c, 0, 66, 65
1, 327658, Note_off_c, 0, 82, 62
1, 327691, Note_on_c, 0, 78, 109
1, 327693, Note_on_c, 0, 66, 92
1, 327744, Note_off_c, 0, 78, 66
1, 327754, Note_off_c, 0, 66, 66
1, 327820, Note_on_c, 0, 73, 89
1, 327824, Note_on_c, 0, 61, 85
1, 327875, Note_off_c, 0, 61, 61
1, 327881, Note_off_c, 0, 73, 61
1, 327958, Note_on_c, 0, 83, 98
1, 327963, Note_on_c, 0, 71, 90
1, 327963, Note_on_c, 0, 79, 89
1, 328020, Note_off_c, 0, 71, 61
1, 328060, Note_off_c, 0, 79, 63
1, 328063, Note_off_c, 0, 83, 58
1, 328113, Note_on_c, 0, 69, 94
1, 328123, Note_on_c, 0, 57, 70
1, 328132, Note_on_c, 0, 59, 66
1, 328149, Note_off_c, 0, 57, 67
1, 328152, Note_off_c, 0, 59, 63
1, 328152, Note_off_c, 0, 69, 63
1, 328315, Note_on_c, 0, 89, 109
1, 328317, Note_on_c, 0, 77, 109
1, 328319, Note_on_c, 0, 83, 95
1, 328319, Note_on_c, 0, 68, 103
1, 328321, Control_c, 0, 64, 114
1, 328326, Note_on_c, 0, 56, 102
1, 328337, Control_c, 0, 64, 81
1, 328352, Control_c, 0, 64, 0
1, 328456, Control_c, 0, 64, 38
1, 328470, Control_c, 0, 64, 83
1, 328481, Note_off_c, 0, 56, 63
1, 328485, Control_c, 0, 64, 108
1, 328495, Note_off_c, 0, 68, 61
1, 328500, Control_c, 0, 64, 127
1, 328550, Note_off_c, 0, 77, 55
1, 328581, Note_on_c, 0, 74, 91
1, 328584, Note_on_c, 0, 86, 92
1, 328584, Note_off_c, 0, 83, 58
1, 328669, Note_off_c, 0, 74, 62
1, 328669, Note_off_c, 0, 86, 64
1, 328758, Note_on_c, 0, 74, 96
1, 328762, Note_on_c, 0, 86, 95
1, 328892, Note_off_c, 0, 74, 63
1, 328901, Note_off_c, 0, 89, 40
1, 328909, Note_off_c, 0, 86, 62
1, 328909, Note_on_c, 0, 82, 95
1, 328912, Note_on_c, 0, 70, 88
1, 328978, Note_off_c, 0, 70, 61
1, 328984, Note_off_c, 0, 82, 63
1, 329049, Note_on_c, 0, 70, 96
1, 329052, Note_on_c, 0, 82, 101
1, 329157, Note_off_c, 0, 82, 64
1, 329170, Note_off_c, 0, 70, 57
1, 329185, Note_on_c, 0, 71, 99
1, 329192, Note_on_c, 0, 83, 96
1, 329243, Note_off_c, 0, 71, 63
1, 329258, Note_off_c, 0, 83, 62
1, 329321, Note_on_c, 0, 83, 100
1, 329325, Note_on_c, 0, 71, 96
1, 329395, Note_off_c, 0, 71, 62
1, 329454, Note_on_c, 0, 67, 93
1, 329460, Note_on_c, 0, 79, 93
1, 329513, Note_off_c, 0, 67, 63
1, 329523, Note_off_c, 0, 79, 63
1, 329547, Note_off_c, 0, 83, 61
1, 329584, Note_on_c, 0, 79, 96
1, 329587, Note_on_c, 0, 67, 93
1, 329647, Note_off_c, 0, 67, 63
1, 329648, Note_off_c, 0, 79, 61
1, 329704, Note_on_c, 0, 74, 93
1, 329708, Note_on_c, 0, 62, 91
1, 329747, Note_off_c, 0, 74, 66
1, 329753, Note_off_c, 0, 62, 63
1, 329828, Note_on_c, 0, 62, 94
1, 329829, Note_on_c, 0, 74, 94
1, 329836, Note_on_c, 0, 72, 99
1, 329836, Note_on_c, 0, 84, 97
1, 329836, Note_on_c, 0, 80, 100
1, 329862, Note_off_c, 0, 74, 66
1, 329865, Note_off_c, 0, 62, 66
1, 329865, Note_off_c, 0, 72, 69
1, 329906, Note_off_c, 0, 80, 65
1, 329911, Note_off_c, 0, 84, 60
1, 329958, Note_on_c, 0, 70, 100
1, 329963, Note_on_c, 0, 58, 94
1, 330012, Note_off_c, 0, 70, 60
1, 330036, Note_off_c, 0, 58, 57
1, 330130, Control_c, 0, 64, 108
1, 330145, Control_c, 0, 64, 78
1, 330152, Note_on_c, 0, 89, 103
1, 330163, Note_on_c, 0, 79, 103
1, 330164, Note_on_c, 0, 69, 100
1, 330166, Note_on_c, 0, 85, 99
1, 330167, Control_c, 0, 64, 0
1, 330170, Note_on_c, 0, 57, 94
1, 330268, Note_off_c, 0, 85, 65
1, 330271, Control_c, 0, 64, 69
1, 330286, Control_c, 0, 64, 92
1, 330287, Note_off_c, 0, 69, 68
1, 330301, Control_c, 0, 64, 121
1, 330315, Control_c, 0, 64, 127
1, 330330, Note_off_c, 0, 57, 66
1, 330359, Note_on_c, 0, 85, 92
1, 330394, Note_off_c, 0, 79, 60
1, 330438, Note_off_c, 0, 85, 64
1, 330456, Note_off_c, 0, 89, 59
1, 330516, Note_on_c, 0, 57, 91
1, 330516, Note_on_c, 0, 85, 93
1, 330653, Note_on_c, 0, 81, 91
1, 330662, Note_off_c, 0, 85, 63
1, 330781, Note_on_c, 0, 45, 88
1, 330874, Note_off_c, 0, 45, 64
1, 330915, Note_on_c, 0, 46, 92
1, 330921, Note_off_c, 0, 57, 57
1, 330984, Note_off_c, 0, 46, 63
1, 331031, Note_off_c, 0, 81, 60
1, 331045, Note_on_c, 0, 46, 89
1, 331052, Note_on_c, 0, 76, 95
1, 331052, Note_on_c, 0, 88, 99
1, 331138, Note_off_c, 0, 76, 64
1, 331166, Note_off_c, 0, 46, 57
1, 331179, Note_on_c, 0, 49, 94
1, 331309, Note_off_c, 0, 88, 59
1, 331311, Note_off_c, 0, 49, 62
1, 331318, Note_on_c, 0, 56, 94
1, 331325, Note_on_c, 0, 80, 105
1, 331326, Note_on_c, 0, 92, 99
1, 331454, Note_off_c, 0, 56, 58
1, 331500, Note_off_c, 0, 80, 61
1, 331503, Note_on_c, 0, 52, 85
1, 331589, Note_on_c, 0, 90, 109
1, 331592, Note_on_c, 0, 78, 101
1, 331627, Note_off_c, 0, 92, 65
1, 331688, Note_on_c, 0, 60, 93
1, 331704, Note_off_c, 0, 52, 61
1, 331774, Note_off_c, 0, 78, 61
1, 331860, Note_off_c, 0, 90, 61
1, 331862, Note_off_c, 0, 60, 63
1, 331887, Note_on_c, 0, 61, 101
1, 331887, Control_c, 0, 64, 121
1, 331890, Note_on_c, 0, 89, 99
1, 331891, Note_on_c, 0, 77, 96
1, 331902, Control_c, 0, 64, 86
1, 331917, Control_c, 0, 64, 31
1, 331932, Control_c, 0, 64, 0
1, 331976, Control_c, 0, 64, 50
1, 331991, Control_c, 0, 64, 78
1, 332006, Control_c, 0, 64, 98
1, 332021, Control_c, 0, 64, 127
1, 332033, Note_off_c, 0, 61, 60
1, 332050, Note_on_c, 0, 49, 82
1, 332050, Note_off_c, 0, 77, 51
1, 332092, Note_off_c, 0, 89, 59
1, 332107, Note_off_c, 0, 49, 60
1, 332170, Note_on_c, 0, 49, 88
1, 332178, Note_on_c, 0, 88, 94
1, 332180, Note_on_c, 0, 76, 92
1, 332242, Note_off_c, 0, 76, 63
1, 332287, Note_on_c, 0, 52, 93
1, 332310, Note_off_c, 0, 49, 56
1, 332397, Note_off_c, 0, 88, 62
1, 332412, Note_off_c, 0, 52, 66
1, 332433, Note_on_c, 0, 58, 100
1, 332441, Note_on_c, 0, 92, 106
1, 332441, Note_on_c, 0, 80, 106
1, 332531, Note_off_c, 0, 58, 63
1, 332598, Note_on_c, 0, 54, 91
1, 332598, Note_off_c, 0, 80, 55
1, 332692, Note_on_c, 0, 90, 100
1, 332696, Note_on_c, 0, 78, 100
1, 332719, Note_off_c, 0, 92, 64
1, 332774, Note_on_c, 0, 62, 97
1, 332796, Note_off_c, 0, 54, 60
1, 332856, Note_off_c, 0, 78, 61
1, 332903, Note_off_c, 0, 62, 57
1, 332928, Note_off_c, 0, 90, 55
1, 332932, Note_on_c, 0, 69, 100
1, 332943, Note_on_c, 0, 77, 96
1, 332943, Note_on_c, 0, 89, 97
1, 333033, Note_off_c, 0, 69, 64
1, 333070, Note_off_c, 0, 77, 55
1, 333109, Note_on_c, 0, 65, 84
1, 333114, Note_off_c, 0, 89, 57
1, 333222, Note_on_c, 0, 88, 97
1, 333224, Note_on_c, 0, 76, 94
1, 333262, Note_on_c, 0, 73, 89
1, 333269, Note_off_c, 0, 76, 68
1, 333273, Note_off_c, 0, 65, 64
1, 333294, Note_off_c, 0, 73, 66
1, 333311, Note_off_c, 0, 88, 63
1, 333415, Control_c, 0, 64, 118
1, 333424, Note_on_c, 0, 60, 75
1, 333429, Control_c, 0, 64, 84
1, 333444, Control_c, 0, 64, 0
1, 333472, Note_on_c, 0, 63, 64
1, 333481, Note_on_c, 0, 66, 88
1, 333498, Note_off_c, 0, 60, 62
1, 333503, Control_c, 0, 64, 70
1, 333505, Note_off_c, 0, 63, 68
1, 333518, Control_c, 0, 64, 91
1, 333519, Note_on_c, 0, 70, 88
1, 333526, Note_off_c, 0, 66, 65
1, 333533, Control_c, 0, 64, 127
1, 333536, Note_off_c, 0, 70, 71
1, 333594, Note_on_c, 0, 94, 102
1, 333595, Note_on_c, 0, 82, 102
1, 333597, Note_on_c, 0, 80, 105
1, 333640, Note_on_c, 0, 87, 23
1, 333641, Note_off_c, 0, 87, 127
1, 333643, Note_on_c, 0, 78, 24
1, 333644, Note_off_c, 0, 78, 127
1, 333711, Note_off_c, 0, 82, 60
1, 333789, Note_on_c, 0, 92, 94
1, 333867, Note_off_c, 0, 92, 65
1, 333926, Note_off_c, 0, 80, 64
1, 333953, Note_on_c, 0, 92, 98
1, 333960, Note_on_c, 0, 78, 103
1, 334099, Note_on_c, 0, 90, 96
1, 334108, Note_off_c, 0, 94, 59
1, 334133, Note_off_c, 0, 92, 64
1, 334176, Note_off_c, 0, 90, 61
1, 334190, Note_off_c, 0, 78, 59
1, 334228, Note_on_c, 0, 77, 100
1, 334351, Note_on_c, 0, 89, 87
1, 334373, Note_on_c, 0, 91, 51
1, 334374, Note_off_c, 0, 91, 127
1, 334423, Note_off_c, 0, 89, 66
1, 334467, Note_off_c, 0, 77, 57
1, 334490, Note_on_c, 0, 76, 94
1, 334490, Note_on_c, 0, 89, 102
1, 334526, Note_off_c, 0, 76, 71
1, 334618, Note_on_c, 0, 88, 99
1, 334654, Note_off_c, 0, 89, 64
1, 334755, Note_off_c, 0, 88, 62
1, 334772, Note_on_c, 0, 68, 104
1, 334779, Note_on_c, 0, 56, 103
1, 334903, Note_off_c, 0, 56, 55
1, 334913, Note_off_c, 0, 68, 56
1, 335036, Note_on_c, 0, 66, 90
1, 335041, Note_on_c, 0, 54, 97
1, 335044, Note_on_c, 0, 88, 100
1, 335047, Note_on_c, 0, 76, 103
1, 335054, Note_off_c, 0, 66, 75
1, 335074, Note_off_c, 0, 54, 62
1, 335138, Note_off_c, 0, 76, 62
1, 335209, Control_c, 0, 64, 93
1, 335223, Control_c, 0, 64, 63
1, 335238, Control_c, 0, 64, 0
1, 335245, Note_on_c, 0, 41, 112
1, 335297, Note_off_c, 0, 41, 68
1, 335297, Control_c, 0, 64, 83
1, 335312, Control_c, 0, 64, 127
1, 335464, Note_off_c, 0, 88, 60
1, 335497, Note_on_c, 0, 65, 97
1, 335498, Note_on_c, 0, 82, 110
1, 335499, Note_on_c, 0, 94, 107
1, 335500, Note_on_c, 0, 63, 94
1, 335501, Note_on_c, 0, 56, 93
1, 335503, Note_on_c, 0, 53, 93
1, 335506, Note_on_c, 0, 59, 86
1, 335532, Note_on_c, 0, 92, 54
1, 335556, Note_off_c, 0, 92, 55
1, 335564, Note_off_c, 0, 53, 65
1, 335571, Note_off_c, 0, 65, 64
1, 335616, Note_off_c, 0, 63, 66
1, 335629, Note_off_c, 0, 56, 64
1, 335629, Note_off_c, 0, 59, 63
1, 335822, Note_on_c, 0, 63, 119
1, 335831, Note_on_c, 0, 51, 103
1, 335858, Note_off_c, 0, 51, 63
1, 335867, Note_off_c, 0, 63, 70
1, 336032, Note_off_c, 0, 82, 56
1, 336204, Note_on_c, 0, 70, 110
1, 336209, Note_on_c, 0, 92, 99
1, 336210, Note_on_c, 0, 80, 100
1, 336212, Note_on_c, 0, 63, 97
1, 336215, Note_on_c, 0, 59, 92
1, 336218, Note_on_c, 0, 58, 93
1, 336247, Note_on_c, 0, 87, 39
1, 336258, Note_off_c, 0, 94, 64
1, 336276, Note_off_c, 0, 87, 35
1, 336497, Note_off_c, 0, 80, 61
1, 336562, Note_off_c, 0, 58, 61
1, 336597, Note_off_c, 0, 70, 53
1, 336610, Note_on_c, 0, 90, 96
1, 336615, Note_on_c, 0, 78, 101
1, 336651, Note_off_c, 0, 92, 65
1, 336828, Note_off_c, 0, 78, 58
1, 336926, Note_on_c, 0, 89, 98
1, 336927, Note_on_c, 0, 68, 107
1, 336927, Note_on_c, 0, 77, 95
1, 336937, Note_on_c, 0, 56, 91
1, 336962, Note_off_c, 0, 90, 64
1, 337043, Note_off_c, 0, 68, 58
1, 337062, Note_off_c, 0, 77, 60
1, 337075, Note_off_c, 0, 56, 62
1, 337098, Note_off_c, 0, 63, 57
1, 337163, Note_off_c, 0, 59, 60
1, 337174, Note_off_c, 0, 89, 61
1, 337201, Note_on_c, 0, 66, 89
1, 337214, Note_on_c, 0, 56, 67
1, 337216, Note_on_c, 0, 87, 102
1, 337219, Note_on_c, 0, 55, 79
1, 337220, Note_off_c, 0, 66, 74
1, 337221, Note_on_c, 0, 75, 98
1, 337232, Note_off_c, 0, 56, 64
1, 337242, Note_off_c, 0, 55, 69
1, 337262, Note_off_c, 0, 75, 69
1, 337303, Note_off_c, 0, 87, 63
1, 337396, Control_c, 0, 64, 89
1, 337411, Control_c, 0, 64, 0
1, 337420, Note_on_c, 0, 40, 103
1, 337424, Note_on_c, 0, 47, 98
1, 337485, Control_c, 0, 64, 85
1, 337497, Note_off_c, 0, 40, 65
1, 337500, Control_c, 0, 64, 127
1, 337508, Note_off_c, 0, 47, 66
1, 337637, Note_on_c, 0, 64, 100
1, 337639, Note_on_c, 0, 62, 105
1, 337639, Note_on_c, 0, 94, 101
1, 337640, Note_on_c, 0, 52, 97
1, 337640, Note_on_c, 0, 82, 101
1, 337649, Note_on_c, 0, 55, 95
1, 337879, Note_off_c, 0, 62, 52
1, 337882, Note_off_c, 0, 64, 57
1, 337893, Note_off_c, 0, 52, 63
1, 337981, Note_off_c, 0, 55, 64
1, 338028, Note_on_c, 0, 62, 109
1, 338030, Note_on_c, 0, 50, 100
1, 338220, Note_off_c, 0, 82, 59
1, 338297, Note_off_c, 0, 50, 62
1, 338333, Note_off_c, 0, 62, 58
1, 338361, Note_off_c, 0, 94, 61
1, 338379, Note_on_c, 0, 92, 107
1, 338381, Note_on_c, 0, 80, 101
1, 338609, Note_off_c, 0, 80, 58
1, 338753, Note_on_c, 0, 90, 102
1, 338756, Note_on_c, 0, 68, 111
1, 338756, Note_on_c, 0, 78, 106
1, 338762, Note_on_c, 0, 56, 100
1, 338782, Note_off_c, 0, 92, 64
1, 338937, Note_off_c, 0, 90, 62
1, 338942, Note_off_c, 0, 78, 66
1, 338971, Note_off_c, 0, 68, 56
1, 338976, Note_off_c, 0, 56, 67
1, 339160, Note_on_c, 0, 88, 104
1, 339161, Note_on_c, 0, 76, 101
1, 339163, Note_on_c, 0, 66, 108
1, 339169, Note_on_c, 0, 54, 102
1, 339212, Note_on_c, 0, 53, 42
1, 339228, Note_off_c, 0, 66, 73
1, 339239, Note_off_c, 0, 54, 62
1, 339240, Note_off_c, 0, 53, 60
1, 339345, Note_off_c, 0, 76, 58
1, 339396, Note_off_c, 0, 88, 53
1, 339573, Note_on_c, 0, 64, 101
1, 339575, Note_on_c, 0, 52, 101
1, 339579, Note_on_c, 0, 86, 104
1, 339581, Note_on_c, 0, 74, 100
1, 339592, Note_off_c, 0, 64, 74
1, 339614, Note_off_c, 0, 52, 70
1, 339686, Poly_aftertouch_c, 0, 54, 0
1, 339761, Control_c, 0, 64, 114
1, 339775, Control_c, 0, 64, 75
1, 339783, Note_off_c, 0, 74, 60
1, 339790, Control_c, 0, 64, 0
1, 339834, Note_on_c, 0, 39, 110
1, 339837, Note_on_c, 0, 27, 103
1, 339858, Note_off_c, 0, 86, 59
1, 339864, Note_off_c, 0, 27, 70
1, 339879, Control_c, 0, 64, 123
1, 339882, Note_off_c, 0, 39, 61
1, 339901, Control_c, 0, 64, 127
1, 340173, Note_on_c, 0, 63, 113
1, 340176, Note_on_c, 0, 94, 108
1, 340177, Note_on_c, 0, 51, 100
1, 340177, Note_on_c, 0, 82, 110
1, 340180, Note_on_c, 0, 53, 88
1, 340180, Note_on_c, 0, 58, 101
1, 340210, Note_on_c, 0, 87, 49
1, 340211, Note_off_c, 0, 87, 127
1, 340493, Note_off_c, 0, 82, 58
1, 340513, Note_off_c, 0, 63, 62
1, 340544, Note_off_c, 0, 51, 54
1, 340625, Note_on_c, 0, 92, 106
1, 340628, Note_on_c, 0, 80, 103
1, 340658, Note_off_c, 0, 94, 60
1, 340753, Note_off_c, 0, 53, 25
1, 340812, Note_on_c, 0, 93, 49
1, 340851, Note_off_c, 0, 80, 59
1, 340879, Note_off_c, 0, 93, 31
1, 340904, Note_off_c, 0, 58, 23
1, 340964, Note_on_c, 0, 90, 102
1, 340966, Note_on_c, 0, 78, 100
1, 340967, Note_on_c, 0, 58, 85
1, 340969, Note_on_c, 0, 62, 103
1, 340972, Note_on_c, 0, 50, 92
1, 340973, Note_on_c, 0, 54, 94
1, 340998, Note_off_c, 0, 92, 57
1, 341006, Control_c, 0, 64, 122
1, 341021, Control_c, 0, 64, 122
1, 341050, Control_c, 0, 64, 125
1, 341065, Control_c, 0, 64, 127
1, 341112, Note_off_c, 0, 78, 59
1, 341128, Note_off_c, 0, 90, 61
1, 341146, Note_off_c, 0, 62, 58
1, 341152, Note_off_c, 0, 50, 59
1, 341285, Note_on_c, 0, 88, 99
1, 341288, Note_on_c, 0, 76, 97
1, 341331, Note_off_c, 0, 58, 54
1, 341407, Note_off_c, 0, 54, 60
1, 341475, Note_off_c, 0, 76, 59
1, 341588, Note_off_c, 0, 88, 64
1, 341604, Note_on_c, 0, 89, 102
1, 341608, Note_on_c, 0, 77, 96
1, 341608, Note_on_c, 0, 61, 99
1, 341609, Note_on_c, 0, 57, 92
1, 341613, Note_on_c, 0, 49, 90
1, 341614, Note_on_c, 0, 53, 83
1, 341621, Control_c, 0, 64, 104
1, 341636, Control_c, 0, 64, 86
1, 341651, Control_c, 0, 64, 72
1, 341665, Control_c, 0, 64, 62
1, 341680, Control_c, 0, 64, 64
1, 341695, Control_c, 0, 64, 73
1, 341710, Control_c, 0, 64, 89
1, 341725, Control_c, 0, 64, 108
1, 341739, Control_c, 0, 64, 127
1, 341769, Note_off_c, 0, 89, 65
1, 341792, Note_off_c, 0, 77, 61
1, 341846, Note_off_c, 0, 61, 61
1, 341939, Note_on_c, 0, 71, 96
1, 341939, Note_on_c, 0, 83, 95
1, 341968, Note_off_c, 0, 57, 59
1, 341977, Note_off_c, 0, 53, 62
1, 342073, Note_off_c, 0, 49, 53
1, 342096, Note_off_c, 0, 71, 57
1, 342165, Note_off_c, 0, 83, 60
1, 342287, Note_on_c, 0, 87, 102
1, 342289, Note_on_c, 0, 75, 102
1, 342292, Note_on_c, 0, 60, 95
1, 342293, Note_on_c, 0, 48, 90
1, 342294, Note_on_c, 0, 58, 89
1, 342296, Control_c, 0, 64, 117
1, 342297, Note_on_c, 0, 54, 92
1, 342311, Control_c, 0, 64, 89
1, 342326, Control_c, 0, 64, 67
1, 342341, Control_c, 0, 64, 0
1, 342385, Control_c, 0, 64, 72
1, 342400, Control_c, 0, 64, 90
1, 342415, Control_c, 0, 64, 112
1, 342429, Control_c, 0, 64, 127
1, 342460, Note_off_c, 0, 48, 64
1, 342465, Note_off_c, 0, 60, 59
1, 342591, Note_off_c, 0, 58, 62
1, 342612, Poly_aftertouch_c, 0, 82, 127
1, 342645, Note_on_c, 0, 59, 95
1, 342648, Note_on_c, 0, 47, 94
1, 342698, Note_on_c, 0, 56, 20
1, 342738, Note_off_c, 0, 56, 43
1, 342753, Note_off_c, 0, 47, 61
1, 342781, Note_off_c, 0, 59, 63
1, 343011, Note_off_c, 0, 75, 57
1, 343048, Note_on_c, 0, 46, 96
1, 343048, Note_on_c, 0, 58, 100
1, 343074, Control_c, 0, 64, 107
1, 343089, Control_c, 0, 64, 89
1, 343104, Control_c, 0, 64, 74
1, 343119, Control_c, 0, 64, 56
1, 343134, Control_c, 0, 64, 0
1, 343149, Poly_aftertouch_c, 0, 82, 0
1, 343178, Control_c, 0, 64, 57
1, 343193, Control_c, 0, 64, 64
1, 343208, Control_c, 0, 64, 68
1, 343223, Control_c, 0, 64, 74
1, 343237, Control_c, 0, 64, 85
1, 343252, Control_c, 0, 64, 95
1, 343267, Control_c, 0, 64, 102
1, 343282, Control_c, 0, 64, 106
1, 343297, Control_c, 0, 64, 109
1, 343311, Control_c, 0, 64, 113
1, 343318, Note_off_c, 0, 58, 61
1, 343326, Control_c, 0, 64, 116
1, 343341, Control_c, 0, 64, 119
1, 343356, Control_c, 0, 64, 120
1, 343370, Control_c, 0, 64, 120
1, 343385, Control_c, 0, 64, 121
1, 343400, Control_c, 0, 64, 123
1, 343407, Note_off_c, 0, 87, 60
1, 343415, Control_c, 0, 64, 125
1, 343430, Control_c, 0, 64, 126
1, 343433, Note_on_c, 0, 88, 96
1, 343436, Note_on_c, 0, 76, 94
1, 343444, Control_c, 0, 64, 127
1, 343474, Control_c, 0, 64, 127
1, 343511, Note_off_c, 0, 54, 58
1, 343513, Note_off_c, 0, 46, 49
1, 343667, Note_off_c, 0, 76, 60
1, 343793, Control_c, 0, 64, 127
1, 343799, Note_on_c, 0, 89, 99
1, 343801, Note_on_c, 0, 77, 96
1, 343801, Note_off_c, 0, 88, 0
1, 343802, Note_on_c, 0, 45, 83
1, 343803, Note_on_c, 0, 55, 87
1, 343804, Note_on_c, 0, 49, 87
1, 343808, Control_c, 0, 64, 115
1, 343823, Control_c, 0, 64, 102
1, 343838, Control_c, 0, 64, 86
1, 343839, Poly_aftertouch_c, 0, 88, 127
1, 343853, Control_c, 0, 64, 69
1, 343862, Poly_aftertouch_c, 0, 88, 0
1, 343867, Control_c, 0, 64, 0
1, 343941, Control_c, 0, 64, 68
1, 343956, Control_c, 0, 64, 80
1, 343971, Control_c, 0, 64, 95
1, 343978, Note_off_c, 0, 89, 65
1, 343985, Control_c, 0, 64, 107
1, 344000, Control_c, 0, 64, 115
1, 344012, Note_off_c, 0, 77, 62
1, 344015, Control_c, 0, 64, 118
1, 344030, Control_c, 0, 64, 124
1, 344045, Control_c, 0, 64, 127
1, 344047, Note_off_c, 0, 55, 60
1, 344063, Note_off_c, 0, 45, 64
1, 344160, Note_on_c, 0, 83, 91
1, 344163, Note_on_c, 0, 71, 83
1, 344201, Note_off_c, 0, 49, 60
1, 344311, Note_off_c, 0, 71, 60
1, 344371, Note_off_c, 0, 83, 55
1, 344520, Note_on_c, 0, 87, 100
1, 344520, Note_on_c, 0, 48, 75
1, 344520, Note_on_c, 0, 54, 79
1, 344522, Note_on_c, 0, 44, 72
1, 344524, Note_on_c, 0, 75, 88
1, 344542, Control_c, 0, 64, 115
1, 344557, Control_c, 0, 64, 91
1, 344571, Control_c, 0, 64, 70
1, 344586, Control_c, 0, 64, 0
1, 344676, Control_c, 0, 64, 52
1, 344690, Control_c, 0, 64, 73
1, 344705, Control_c, 0, 64, 88
1, 344720, Control_c, 0, 64, 106
1, 344735, Control_c, 0, 64, 117
1, 344750, Control_c, 0, 64, 119
1, 344765, Control_c, 0, 64, 120
1, 344779, Control_c, 0, 64, 126
1, 344794, Control_c, 0, 64, 127
1, 344838, Note_off_c, 0, 44, 63
1, 344886, Note_off_c, 0, 48, 63
1, 344912, Note_on_c, 0, 45, 85
1, 344995, Note_off_c, 0, 75, 61
1, 345289, Note_on_c, 0, 51, 89
1, 345618, Note_on_c, 0, 43, 81
1, 345626, Note_on_c, 0, 88, 91
1, 345628, Note_on_c, 0, 76, 88
1, 345658, Note_off_c, 0, 51, 61
1, 345667, Note_off_c, 0, 87, 61
1, 345727, Note_off_c, 0, 76, 66
1, 345736, Note_off_c, 0, 45, 28
1, 345803, Note_off_c, 0, 43, 60
1, 345839, Note_off_c, 0, 54, 40
1, 346052, Note_on_c, 0, 92, 96
1, 346055, Control_c, 0, 64, 120
1, 346058, Note_on_c, 0, 80, 92
1, 346061, Note_on_c, 0, 42, 74
1, 346062, Note_on_c, 0, 48, 77
1, 346064, Note_on_c, 0, 52, 76
1, 346070, Control_c, 0, 64, 98
1, 346085, Note_off_c, 0, 88, 58
1, 346085, Control_c, 0, 64, 81
1, 346100, Control_c, 0, 64, 66
1, 346115, Control_c, 0, 64, 0
1, 346189, Control_c, 0, 64, 60
1, 346204, Control_c, 0, 64, 77
1, 346219, Control_c, 0, 64, 92
1, 346231, Note_off_c, 0, 92, 67
1, 346234, Control_c, 0, 64, 107
1, 346249, Control_c, 0, 64, 113
1, 346260, Note_off_c, 0, 80, 64
1, 346263, Control_c, 0, 64, 116
1, 346278, Control_c, 0, 64, 119
1, 346293, Control_c, 0, 64, 125
1, 346308, Control_c, 0, 64, 127
1, 346377, Note_off_c, 0, 52, 59
1, 346443, Note_on_c, 0, 83, 81
1, 346449, Note_on_c, 0, 71, 70
1, 346520, Note_off_c, 0, 48, 61
1, 346531, Note_off_c, 0, 42, 37
1, 346553, Note_off_c, 0, 71, 61
1, 346864, Control_c, 0, 64, 103
1, 346872, Note_on_c, 0, 87, 87
1, 346873, Note_on_c, 0, 41, 67
1, 346875, Note_on_c, 0, 51, 69
1, 346877, Note_off_c, 0, 83, 54
1, 346878, Note_on_c, 0, 47, 73
1, 346878, Note_on_c, 0, 80, 74
1, 346879, Control_c, 0, 64, 82
1, 346886, Note_on_c, 0, 75, 73
1, 346893, Control_c, 0, 64, 65
1, 346908, Control_c, 0, 64, 0
1, 347027, Control_c, 0, 64, 58
1, 347042, Control_c, 0, 64, 75
1, 347057, Control_c, 0, 64, 88
1, 347063, Note_off_c, 0, 41, 66
1, 347072, Control_c, 0, 64, 99
1, 347086, Control_c, 0, 64, 101
1, 347098, Note_off_c, 0, 47, 65
1, 347101, Control_c, 0, 64, 103
1, 347108, Note_off_c, 0, 51, 61
1, 347116, Control_c, 0, 64, 105
1, 347131, Control_c, 0, 64, 108
1, 347145, Control_c, 0, 64, 110
1, 347160, Control_c, 0, 64, 111
1, 347175, Control_c, 0, 64, 112
1, 347190, Control_c, 0, 64, 113
1, 347204, Control_c, 0, 64, 113
1, 347249, Control_c, 0, 64, 114
1, 347293, Control_c, 0, 64, 114
1, 347308, Control_c, 0, 64, 115
1, 347355, Note_off_c, 0, 87, 59
1, 347367, Note_on_c, 0, 64, 47
1, 347367, Note_on_c, 0, 65, 68
1, 347367, Control_c, 0, 64, 115
1, 347421, Note_off_c, 0, 64, 63
1, 347509, Control_c, 0, 64, 110
1, 347524, Control_c, 0, 64, 101
1, 347539, Control_c, 0, 64, 92
1, 347554, Control_c, 0, 64, 87
1, 347569, Control_c, 0, 64, 85
1, 347583, Control_c, 0, 64, 84
1, 347598, Control_c, 0, 64, 82
1, 347613, Control_c, 0, 64, 79
1, 347628, Control_c, 0, 64, 77
1, 347658, Control_c, 0, 64, 77
1, 347673, Control_c, 0, 64, 82
1, 347688, Control_c, 0, 64, 91
1, 347703, Control_c, 0, 64, 98
1, 347717, Control_c, 0, 64, 101
1, 347732, Control_c, 0, 64, 101
1, 347747, Control_c, 0, 64, 102
1, 347759, Note_off_c, 0, 80, 63
1, 347761, Control_c, 0, 64, 103
1, 347776, Control_c, 0, 64, 105
1, 347791, Control_c, 0, 64, 107
1, 347806, Control_c, 0, 64, 108
1, 347817, Note_on_c, 0, 71, 71
1, 347821, Control_c, 0, 64, 108
1, 347835, Note_off_c, 0, 75, 61
1, 347835, Control_c, 0, 64, 109
1, 347850, Control_c, 0, 64, 110
1, 347865, Control_c, 0, 64, 110
1, 347880, Control_c, 0, 64, 111
1, 347895, Control_c, 0, 64, 112
1, 347909, Control_c, 0, 64, 113
1, 347924, Control_c, 0, 64, 113
1, 347969, Control_c, 0, 64, 114
1, 347984, Control_c, 0, 64, 114
1, 347999, Control_c, 0, 64, 115
1, 348029, Control_c, 0, 64, 115
1, 348043, Control_c, 0, 64, 116
1, 348058, Control_c, 0, 64, 116
1, 348073, Control_c, 0, 64, 117
1, 348088, Control_c, 0, 64, 117
1, 348103, Control_c, 0, 64, 118
1, 348117, Control_c, 0, 64, 118
1, 348151, Note_off_c, 0, 65, 62
1, 348169, Control_c, 0, 64, 119
1, 348197, Note_off_c, 0, 71, 59
1, 348228, Note_on_c, 0, 75, 76
1, 348598, Control_c, 0, 64, 115
1, 348613, Control_c, 0, 64, 107
1, 348628, Note_on_c, 0, 81, 81
1, 348628, Control_c, 0, 64, 95
1, 348636, Note_on_c, 0, 61, 56
1, 348642, Note_on_c, 0, 76, 66
1, 348643, Control_c, 0, 64, 82
1, 348646, Note_on_c, 0, 71, 59
1, 348649, Note_off_c, 0, 75, 62
1, 348658, Control_c, 0, 64, 70
1, 348673, Control_c, 0, 64, 50
1, 348687, Control_c, 0, 64, 0
1, 348821, Control_c, 0, 64, 63
1, 348836, Control_c, 0, 64, 72
1, 348851, Control_c, 0, 64, 81
1, 348865, Control_c, 0, 64, 90
1, 348887, Control_c, 0, 64, 97
1, 348902, Control_c, 0, 64, 103
1, 348908, Note_off_c, 0, 71, 60
1, 348917, Control_c, 0, 64, 107
1, 348932, Control_c, 0, 64, 111
1, 348947, Control_c, 0, 64, 113
1, 348962, Control_c, 0, 64, 115
1, 348991, Control_c, 0, 64, 115
1, 349069, Note_on_c, 0, 71, 67
1, 349074, Note_on_c, 0, 66, 54
1, 349149, Note_off_c, 0, 81, 52
1, 349153, Note_off_c, 0, 76, 67
1, 349268, Note_off_c, 0, 61, 62
1, 349282, Note_off_c, 0, 66, 65
1, 349318, Control_c, 0, 64, 115
1, 349347, Control_c, 0, 64, 114
1, 349362, Control_c, 0, 64, 113
1, 349392, Control_c, 0, 64, 113
1, 349406, Control_c, 0, 64, 112
1, 349421, Control_c, 0, 64, 111
1, 349436, Control_c, 0, 64, 110
1, 349451, Control_c, 0, 64, 109
1, 349466, Control_c, 0, 64, 107
1, 349480, Control_c, 0, 64, 104
1, 349495, Note_on_c, 0, 77, 70
1, 349495, Control_c, 0, 64, 100
1, 349506, Note_on_c, 0, 75, 61
1, 349509, Note_on_c, 0, 68, 58
1, 349510, Control_c, 0, 64, 95
1, 349525, Control_c, 0, 64, 90
1, 349540, Control_c, 0, 64, 84
1, 349555, Control_c, 0, 64, 78
1, 349561, Note_off_c, 0, 71, 51
1, 349570, Control_c, 0, 64, 73
1, 349585, Control_c, 0, 64, 69
1, 349599, Control_c, 0, 64, 65
1, 349614, Control_c, 0, 64, 64
1, 349651, Control_c, 0, 64, 63
1, 349666, Control_c, 0, 64, 62
1, 349680, Control_c, 0, 64, 59
1, 349695, Control_c, 0, 64, 53
1, 349710, Control_c, 0, 64, 50
1, 349725, Control_c, 0, 64, 49
1, 349740, Control_c, 0, 64, 50
1, 349755, Control_c, 0, 64, 50
1, 349769, Control_c, 0, 64, 51
1, 349784, Control_c, 0, 64, 53
1, 349799, Control_c, 0, 64, 59
1, 349814, Control_c, 0, 64, 64
1, 349829, Control_c, 0, 64, 67
1, 349844, Control_c, 0, 64, 70
1, 349859, Control_c, 0, 64, 71
1, 349874, Control_c, 0, 64, 73
1, 349888, Control_c, 0, 64, 74
1, 349904, Control_c, 0, 64, 75
1, 349919, Control_c, 0, 64, 77
1, 349933, Control_c, 0, 64, 78
1, 349942, Note_on_c, 0, 53, 53
1, 349948, Control_c, 0, 64, 80
1, 349955, Note_on_c, 0, 46, 51
1, 349963, Control_c, 0, 64, 81
1, 349978, Control_c, 0, 64, 83
1, 349993, Control_c, 0, 64, 84
1, 350008, Control_c, 0, 64, 85
1, 350018, Note_off_c, 0, 77, 50
1, 350023, Control_c, 0, 64, 87
1, 350037, Control_c, 0, 64, 90
1, 350052, Control_c, 0, 64, 92
1, 350067, Control_c, 0, 64, 94
1, 350082, Control_c, 0, 64, 96
1, 350097, Control_c, 0, 64, 97
1, 350111, Control_c, 0, 64, 98
1, 350126, Note_off_c, 0, 75, 60
1, 350126, Control_c, 0, 64, 100
1, 350141, Control_c, 0, 64, 102
1, 350155, Control_c, 0, 64, 103
1, 350170, Control_c, 0, 64, 104
1, 350185, Control_c, 0, 64, 105
1, 350200, Control_c, 0, 64, 106
1, 350215, Control_c, 0, 64, 107
1, 350224, Note_off_c, 0, 68, 61
1, 350229, Control_c, 0, 64, 107
1, 350244, Control_c, 0, 64, 108
1, 350259, Control_c, 0, 64, 108
1, 350303, Control_c, 0, 64, 109
1, 350348, Control_c, 0, 64, 109
1, 350374, Note_on_c, 0, 59, 53
1, 350444, Control_c, 0, 64, 110
1, 350459, Control_c, 0, 64, 110
1, 350474, Control_c, 0, 64, 111
1, 350489, Control_c, 0, 64, 111
1, 350503, Control_c, 0, 64, 112
1, 350518, Note_off_c, 0, 46, 62
1, 350518, Control_c, 0, 64, 113
1, 350533, Control_c, 0, 64, 114
1, 350548, Control_c, 0, 64, 115
1, 350562, Control_c, 0, 64, 116
1, 350577, Control_c, 0, 64, 118
1, 350592, Control_c, 0, 64, 120
1, 350607, Control_c, 0, 64, 123
1, 350622, Control_c, 0, 64, 126
1, 350637, Control_c, 0, 64, 127
1, 350755, Note_on_c, 0, 63, 67
1, 350768, Note_on_c, 0, 45, 48
1, 350863, Note_off_c, 0, 59, 57
1, 350902, Note_off_c, 0, 45, 62
1, 351148, Control_c, 0, 64, 123
1, 351163, Control_c, 0, 64, 107
1, 351177, Note_on_c, 0, 69, 69
1, 351177, Control_c, 0, 64, 93
1, 351185, Note_on_c, 0, 64, 55
1, 351185, Note_on_c, 0, 49, 51
1, 351188, Note_on_c, 0, 44, 48
1, 351192, Control_c, 0, 64, 80
1, 351207, Control_c, 0, 64, 69
1, 351222, Control_c, 0, 64, 49
1, 351230, Note_off_c, 0, 53, 62
1, 351237, Control_c, 0, 64, 0
1, 351253, Note_off_c, 0, 63, 59
1, 351355, Control_c, 0, 64, 50
1, 351370, Control_c, 0, 64, 66
1, 351385, Control_c, 0, 64, 68
1, 351400, Control_c, 0, 64, 68
1, 351415, Control_c, 0, 64, 70
1, 351430, Control_c, 0, 64, 76
1, 351445, Control_c, 0, 64, 85
1, 351459, Control_c, 0, 64, 93
1, 351474, Control_c, 0, 64, 96
1, 351504, Control_c, 0, 64, 97
1, 351519, Control_c, 0, 64, 97
1, 351534, Control_c, 0, 64, 99
1, 351549, Control_c, 0, 64, 101
1, 351564, Control_c, 0, 64, 102
1, 351593, Note_off_c, 0, 69, 63
1, 351597, Note_on_c, 0, 59, 57
1, 351604, Note_on_c, 0, 54, 49
1, 351608, Control_c, 0, 64, 103
1, 351623, Control_c, 0, 64, 103
1, 351639, Note_off_c, 0, 64, 63
1, 351653, Control_c, 0, 64, 104
1, 351668, Control_c, 0, 64, 105
1, 351697, Control_c, 0, 64, 105
1, 351756, Control_c, 0, 64, 106
1, 351786, Control_c, 0, 64, 106
1, 351800, Control_c, 0, 64, 107
1, 351815, Control_c, 0, 64, 107
1, 351835, Note_off_c, 0, 54, 59
1, 351845, Control_c, 0, 64, 108
1, 351860, Control_c, 0, 64, 108
1, 351897, Control_c, 0, 64, 109
1, 351912, Control_c, 0, 64, 109
1, 351926, Control_c, 0, 64, 110
1, 351941, Control_c, 0, 64, 111
1, 351956, Control_c, 0, 64, 111
1, 351983, Note_off_c, 0, 44, 50
1, 352000, Control_c, 0, 64, 111
1, 352015, Control_c, 0, 64, 107
1, 352020, Note_on_c, 0, 63, 65
1, 352030, Control_c, 0, 64, 100
1, 352034, Note_on_c, 0, 65, 55
1, 352043, Note_on_c, 0, 56, 53
1, 352045, Control_c, 0, 64, 88
1, 352056, Note_off_c, 0, 49, 62
1, 352060, Control_c, 0, 64, 76
1, 352074, Control_c, 0, 64, 65
1, 352076, Note_off_c, 0, 59, 42
1, 352089, Control_c, 0, 64, 46
1, 352104, Control_c, 0, 64, 0
1, 352267, Control_c, 0, 64, 59
1, 352282, Control_c, 0, 64, 64
1, 352297, Control_c, 0, 64, 64
1, 352327, Control_c, 0, 64, 64
1, 352342, Control_c, 0, 64, 66
1, 352357, Control_c, 0, 64, 68
1, 352372, Control_c, 0, 64, 70
1, 352446, Control_c, 0, 64, 70
1, 352491, Control_c, 0, 64, 70
1, 352520, Control_c, 0, 64, 69
1, 352530, Note_on_c, 0, 41, 45
1, 352533, Note_on_c, 0, 34, 39
1, 352535, Control_c, 0, 64, 69
1, 352549, Control_c, 0, 64, 68
1, 352564, Control_c, 0, 64, 67
1, 352579, Control_c, 0, 64, 66
1, 352594, Control_c, 0, 64, 65
1, 352676, Control_c, 0, 64, 66
1, 352691, Control_c, 0, 64, 67
1, 352705, Control_c, 0, 64, 67
1, 352720, Control_c, 0, 64, 68
1, 352740, Note_on_c, 0, 62, 45
1, 352764, Control_c, 0, 64, 69
1, 352779, Control_c, 0, 64, 71
1, 352786, Note_off_c, 0, 63, 59
1, 352794, Control_c, 0, 64, 72
1, 352838, Control_c, 0, 64, 72
1, 352853, Control_c, 0, 64, 73
1, 352868, Control_c, 0, 64, 75
1, 352896, Note_off_c, 0, 62, 60
1, 353016, Control_c, 0, 64, 75
1, 353031, Note_on_c, 0, 62, 51
1, 353046, Control_c, 0, 64, 76
1, 353057, Note_on_c, 0, 47, 42
1, 353060, Control_c, 0, 64, 77
1, 353090, Control_c, 0, 64, 78
1, 353106, Control_c, 0, 64, 79
1, 353120, Control_c, 0, 64, 81
1, 353135, Control_c, 0, 64, 82
1, 353150, Control_c, 0, 64, 84
1, 353165, Note_off_c, 0, 65, 59
1, 353165, Control_c, 0, 64, 87
1, 353180, Control_c, 0, 64, 89
1, 353195, Control_c, 0, 64, 91
1, 353195, Note_off_c, 0, 62, 62
1, 353209, Control_c, 0, 64, 93
1, 353223, Note_off_c, 0, 34, 52
1, 353224, Control_c, 0, 64, 95
1, 353239, Control_c, 0, 64, 96
1, 353240, Note_off_c, 0, 56, 64
1, 353254, Control_c, 0, 64, 98
1, 353269, Control_c, 0, 64, 98
1, 353284, Control_c, 0, 64, 99
1, 353299, Control_c, 0, 64, 99
1, 353314, Control_c, 0, 64, 100
1, 353328, Control_c, 0, 64, 100
1, 353358, Control_c, 0, 64, 101
1, 353450, Note_off_c, 0, 47, 42
1, 353491, Note_on_c, 0, 33, 48
1, 353493, Note_on_c, 0, 51, 47
1, 353673, Note_off_c, 0, 33, 41
1, 353914, Control_c, 0, 64, 100
1, 353929, Control_c, 0, 64, 98
1, 353943, Control_c, 0, 64, 93
1, 353958, Control_c, 0, 64, 87
1, 353973, Control_c, 0, 64, 80
1, 353976, Note_on_c, 0, 57, 52
1, 353978, Note_on_c, 0, 32, 42
1, 353979, Note_on_c, 0, 37, 45
1, 353979, Note_on_c, 0, 52, 48
1, 353988, Control_c, 0, 64, 73
1, 354002, Control_c, 0, 64, 67
1, 354017, Control_c, 0, 64, 63
1, 354032, Control_c, 0, 64, 60
1, 354047, Control_c, 0, 64, 59
1, 354055, Note_off_c, 0, 51, 54
1, 354062, Control_c, 0, 64, 58
1, 354077, Control_c, 0, 64, 55
1, 354092, Control_c, 0, 64, 51
1, 354099, Note_off_c, 0, 41, 57
1, 354107, Control_c, 0, 64, 46
1, 354128, Control_c, 0, 64, 43
1, 354143, Control_c, 0, 64, 42
1, 354158, Control_c, 0, 64, 44
1, 354173, Control_c, 0, 64, 47
1, 354188, Control_c, 0, 64, 50
1, 354202, Control_c, 0, 64, 53
1, 354217, Control_c, 0, 64, 56
1, 354232, Control_c, 0, 64, 59
1, 354247, Control_c, 0, 64, 63
1, 354262, Control_c, 0, 64, 65
1, 354277, Control_c, 0, 64, 67
1, 354292, Control_c, 0, 64, 68
1, 354306, Control_c, 0, 64, 69
1, 354321, Control_c, 0, 64, 69
1, 354336, Control_c, 0, 64, 70
1, 354351, Control_c, 0, 64, 71
1, 354366, Control_c, 0, 64, 72
1, 354381, Control_c, 0, 64, 73
1, 354396, Control_c, 0, 64, 74
1, 354425, Control_c, 0, 64, 75
1, 354440, Control_c, 0, 64, 75
1, 354455, Control_c, 0, 64, 76
1, 354470, Control_c, 0, 64, 77
1, 354484, Control_c, 0, 64, 78
1, 354499, Control_c, 0, 64, 79
1, 354514, Control_c, 0, 64, 80
1, 354528, Control_c, 0, 64, 80
1, 354538, Note_on_c, 0, 42, 42
1, 354540, Note_on_c, 0, 47, 50
1, 354543, Control_c, 0, 64, 81
1, 354558, Control_c, 0, 64, 83
1, 354573, Control_c, 0, 64, 84
1, 354588, Control_c, 0, 64, 87
1, 354602, Control_c, 0, 64, 88
1, 354617, Control_c, 0, 64, 91
1, 354632, Control_c, 0, 64, 93
1, 354647, Control_c, 0, 64, 94
1, 354659, Note_off_c, 0, 57, 59
1, 354662, Control_c, 0, 64, 96
1, 354676, Control_c, 0, 64, 98
1, 354692, Control_c, 0, 64, 100
1, 354707, Control_c, 0, 64, 101
1, 354721, Note_off_c, 0, 47, 59
1, 354722, Control_c, 0, 64, 102
1, 354737, Control_c, 0, 64, 103
1, 354751, Control_c, 0, 64, 105
1, 354766, Control_c, 0, 64, 106
1, 354768, Note_off_c, 0, 52, 63
1, 354781, Control_c, 0, 64, 108
1, 354796, Control_c, 0, 64, 109
1, 354806, Note_off_c, 0, 42, 37
1, 354811, Control_c, 0, 64, 111
1, 354825, Control_c, 0, 64, 112
1, 354840, Control_c, 0, 64, 112
1, 354855, Control_c, 0, 64, 113
1, 354980, Note_off_c, 0, 32, 40
1, 354996, Control_c, 0, 64, 112
1, 355019, Poly_aftertouch_c, 0, 39, 127
1, 355040, Control_c, 0, 64, 112
1, 355070, Control_c, 0, 64, 111
1, 355099, Control_c, 0, 64, 110
1, 355114, Control_c, 0, 64, 109
1, 355129, Control_c, 0, 64, 106
1, 355144, Control_c, 0, 64, 102
1, 355159, Control_c, 0, 64, 96
1, 355174, Control_c, 0, 64, 91
1, 355189, Control_c, 0, 64, 86
1, 355191, Note_on_c, 0, 53, 49
1, 355196, Note_on_c, 0, 49, 42
1, 355198, Note_on_c, 0, 45, 43
1, 355201, Note_on_c, 0, 43, 41
1, 355204, Control_c, 0, 64, 81
1, 355218, Control_c, 0, 64, 78
1, 355233, Control_c, 0, 64, 75
1, 355248, Control_c, 0, 64, 72
1, 355263, Control_c, 0, 64, 68
1, 355277, Control_c, 0, 64, 65
1, 355292, Control_c, 0, 64, 62
1, 355293, Poly_aftertouch_c, 0, 39, 0
1, 355307, Control_c, 0, 64, 61
1, 355326, Note_off_c, 0, 37, 47
1, 355351, Control_c, 0, 64, 60
1, 355366, Control_c, 0, 64, 59
1, 355381, Control_c, 0, 64, 58
1, 355396, Control_c, 0, 64, 59
1, 355411, Control_c, 0, 64, 59
1, 355455, Control_c, 0, 64, 59
1, 355501, Control_c, 0, 64, 59
1, 355515, Control_c, 0, 64, 60
1, 355530, Control_c, 0, 64, 60
1, 355545, Control_c, 0, 64, 61
1, 355560, Control_c, 0, 64, 61
1, 355574, Control_c, 0, 64, 62
1, 355604, Control_c, 0, 64, 62
1, 355656, Control_c, 0, 64, 63
1, 355701, Control_c, 0, 64, 63
1, 355713, Note_on_c, 0, 33, 37
1, 355730, Control_c, 0, 64, 64
1, 355789, Control_c, 0, 64, 64
1, 355830, Note_off_c, 0, 43, 42
1, 355834, Control_c, 0, 64, 65
1, 355922, Control_c, 0, 64, 64
1, 355963, Note_on_c, 0, 54, 36
1, 355967, Note_off_c, 0, 53, 58
1, 356012, Control_c, 0, 64, 64
1, 356071, Control_c, 0, 64, 64
1, 356086, Control_c, 0, 64, 66
1, 356100, Control_c, 0, 64, 68
1, 356115, Control_c, 0, 64, 71
1, 356130, Control_c, 0, 64, 75
1, 356145, Control_c, 0, 64, 78
1, 356160, Control_c, 0, 64, 80
1, 356174, Control_c, 0, 64, 81
1, 356188, Note_off_c, 0, 54, 40
1, 356189, Control_c, 0, 64, 82
1, 356204, Control_c, 0, 64, 83
1, 356219, Control_c, 0, 64, 83
1, 356294, Control_c, 0, 64, 84
1, 356308, Note_on_c, 0, 54, 48
1, 356790, Control_c, 0, 64, 83
1, 356799, Note_on_c, 0, 39, 46
1, 356819, Control_c, 0, 64, 83
1, 356834, Control_c, 0, 64, 82
1, 356864, Control_c, 0, 64, 82
1, 356870, Note_off_c, 0, 33, 15
1, 356879, Control_c, 0, 64, 81
1, 356894, Control_c, 0, 64, 81
1, 356909, Control_c, 0, 64, 80
1, 356987, Note_off_c, 0, 45, 47
1, 357317, Note_on_c, 0, 45, 46
1, 357446, Note_off_c, 0, 39, 48
1, 357746, Control_c, 0, 64, 79
1, 357761, Control_c, 0, 64, 78
1, 357776, Control_c, 0, 64, 75
1, 357789, Note_on_c, 0, 35, 39
1, 357791, Control_c, 0, 64, 71
1, 357806, Control_c, 0, 64, 67
1, 357821, Control_c, 0, 64, 64
1, 357836, Control_c, 0, 64, 63
1, 357851, Control_c, 0, 64, 62
1, 357872, Control_c, 0, 64, 63
1, 357904, Control_c, 0, 64, 63
1, 357918, Control_c, 0, 64, 64
1, 357933, Control_c, 0, 64, 65
1, 357940, Note_off_c, 0, 49, 41
1, 357948, Control_c, 0, 64, 67
1, 357952, Note_off_c, 0, 45, 42
1, 357963, Control_c, 0, 64, 70
1, 357977, Control_c, 0, 64, 74
1, 357992, Control_c, 0, 64, 77
1, 358007, Control_c, 0, 64, 79
1, 358022, Control_c, 0, 64, 79
1, 358031, Note_off_c, 0, 54, 40
1, 358037, Control_c, 0, 64, 80
1, 358051, Control_c, 0, 64, 80
1, 358066, Control_c, 0, 64, 81
1, 358081, Control_c, 0, 64, 81
1, 358186, Note_off_c, 0, 35, 40
1, 358259, Control_c, 0, 64, 80
1, 358274, Control_c, 0, 64, 77
1, 358289, Control_c, 0, 64, 74
1, 358300, Note_on_c, 0, 53, 48
1, 358303, Control_c, 0, 64, 69
1, 358317, Note_on_c, 0, 49, 34
1, 358318, Control_c, 0, 64, 65
1, 358319, Note_on_c, 0, 45, 35
1, 358333, Control_c, 0, 64, 62
1, 358348, Control_c, 0, 64, 59
1, 358363, Control_c, 0, 64, 56
1, 358377, Control_c, 0, 64, 52
1, 358392, Control_c, 0, 64, 46
1, 358407, Control_c, 0, 64, 28
1, 358422, Control_c, 0, 64, 0
1, 358651, Control_c, 0, 64, 44
1, 358666, Control_c, 0, 64, 57
1, 358681, Control_c, 0, 64, 60
1, 358697, Control_c, 0, 64, 62
1, 358712, Control_c, 0, 64, 63
1, 358726, Control_c, 0, 64, 64
1, 358741, Control_c, 0, 64, 65
1, 358756, Control_c, 0, 64, 66
1, 358771, Control_c, 0, 64, 66
1, 358784, Note_on_c, 0, 39, 45
1, 358786, Control_c, 0, 64, 67
1, 358800, Control_c, 0, 64, 67
1, 358815, Control_c, 0, 64, 68
1, 358830, Control_c, 0, 64, 69
1, 358845, Control_c, 0, 64, 69
1, 358860, Control_c, 0, 64, 70
1, 358874, Control_c, 0, 64, 71
1, 358888, Control_c, 0, 64, 72
1, 358903, Control_c, 0, 64, 73
1, 358910, Note_off_c, 0, 45, 55
1, 358918, Control_c, 0, 64, 73
1, 358933, Control_c, 0, 64, 74
1, 358948, Control_c, 0, 64, 75
1, 358963, Control_c, 0, 64, 76
1, 358992, Control_c, 0, 64, 76
1, 359007, Control_c, 0, 64, 77
1, 359022, Control_c, 0, 64, 78
1, 359029, Note_on_c, 0, 54, 35
1, 359037, Control_c, 0, 64, 79
1, 359052, Control_c, 0, 64, 79
1, 359066, Control_c, 0, 64, 80
1, 359081, Control_c, 0, 64, 81
1, 359086, Note_off_c, 0, 53, 52
1, 359096, Control_c, 0, 64, 81
1, 359111, Control_c, 0, 64, 82
1, 359125, Control_c, 0, 64, 82
1, 359140, Control_c, 0, 64, 83
1, 359155, Control_c, 0, 64, 83
1, 359170, Control_c, 0, 64, 84
1, 359186, Note_off_c, 0, 54, 40
1, 359273, Control_c, 0, 64, 82
1, 359288, Control_c, 0, 64, 80
1, 359303, Control_c, 0, 64, 75
1, 359305, Note_on_c, 0, 54, 41
1, 359317, Control_c, 0, 64, 69
1, 359332, Control_c, 0, 64, 63
1, 359341, Note_on_c, 0, 45, 33
1, 359347, Control_c, 0, 64, 52
1, 359370, Control_c, 0, 64, 42
1, 359373, Note_off_c, 0, 39, 20
1, 359385, Control_c, 0, 64, 36
1, 359399, Control_c, 0, 64, 34
1, 359414, Control_c, 0, 64, 35
1, 359429, Control_c, 0, 64, 41
1, 359443, Control_c, 0, 64, 49
1, 359458, Control_c, 0, 64, 59
1, 359473, Control_c, 0, 64, 64
1, 359489, Control_c, 0, 64, 68
1, 359504, Control_c, 0, 64, 71
1, 359519, Control_c, 0, 64, 74
1, 359534, Control_c, 0, 64, 76
1, 359548, Control_c, 0, 64, 77
1, 359563, Control_c, 0, 64, 79
1, 359578, Control_c, 0, 64, 80
1, 359593, Control_c, 0, 64, 81
1, 359608, Control_c, 0, 64, 82
1, 359622, Control_c, 0, 64, 83
1, 359770, Control_c, 0, 64, 82
1, 359785, Control_c, 0, 64, 81
1, 359800, Control_c, 0, 64, 78
1, 359815, Control_c, 0, 64, 74
1, 359830, Control_c, 0, 64, 69
1, 359845, Control_c, 0, 64, 66
1, 359849, Note_on_c, 0, 35, 28
1, 359860, Control_c, 0, 64, 63
1, 359875, Control_c, 0, 64, 61
1, 359889, Control_c, 0, 64, 59
1, 359904, Control_c, 0, 64, 58
1, 359919, Control_c, 0, 64, 58
1, 359933, Control_c, 0, 64, 60
1, 359948, Control_c, 0, 64, 61
1, 359963, Control_c, 0, 64, 63
1, 359978, Control_c, 0, 64, 65
1, 359993, Control_c, 0, 64, 68
1, 360007, Control_c, 0, 64, 72
1, 360022, Control_c, 0, 64, 76
1, 360037, Control_c, 0, 64, 79
1, 360052, Control_c, 0, 64, 81
1, 360066, Control_c, 0, 64, 82
1, 360081, Control_c, 0, 64, 83
1, 360117, Note_off_c, 0, 35, 55
1, 360252, Control_c, 0, 64, 82
1, 360266, Control_c, 0, 64, 81
1, 360281, Control_c, 0, 64, 79
1, 360298, Control_c, 0, 64, 77
1, 360312, Control_c, 0, 64, 73
1, 360327, Control_c, 0, 64, 69
1, 360342, Control_c, 0, 64, 65
1, 360357, Control_c, 0, 64, 64
1, 360371, Control_c, 0, 64, 63
1, 360401, Control_c, 0, 64, 61
1, 360416, Control_c, 0, 64, 56
1, 360431, Control_c, 0, 64, 48
1, 360445, Control_c, 0, 64, 41
1, 360475, Control_c, 0, 64, 41
1, 360489, Control_c, 0, 64, 42
1, 360504, Control_c, 0, 64, 44
1, 360519, Control_c, 0, 64, 48
1, 360534, Control_c, 0, 64, 54
1, 360549, Control_c, 0, 64, 62
1, 360563, Control_c, 0, 64, 65
1, 360578, Control_c, 0, 64, 67
1, 360593, Control_c, 0, 64, 69
1, 360608, Control_c, 0, 64, 72
1, 360623, Control_c, 0, 64, 74
1, 360638, Control_c, 0, 64, 76
1, 360653, Control_c, 0, 64, 79
1, 360668, Control_c, 0, 64, 82
1, 360680, Note_off_c, 0, 45, 41
1, 360682, Control_c, 0, 64, 84
1, 360697, Control_c, 0, 64, 85
1, 360712, Control_c, 0, 64, 86
1, 360727, Control_c, 0, 64, 87
1, 360742, Control_c, 0, 64, 87
1, 360747, Note_off_c, 0, 49, 39
1, 360756, Control_c, 0, 64, 88
1, 360771, Control_c, 0, 64, 89
1, 360786, Control_c, 0, 64, 90
1, 360793, Note_off_c, 0, 54, 36
1, 360801, Control_c, 0, 64, 91
1, 360816, Control_c, 0, 64, 91
1, 360830, Control_c, 0, 64, 92
1, 360845, Control_c, 0, 64, 92
1, 360867, Control_c, 0, 64, 93
1, 360882, Control_c, 0, 64, 93
1, 360897, Control_c, 0, 64, 94
1, 360912, Control_c, 0, 64, 95
1, 360927, Control_c, 0, 64, 96
1, 360942, Control_c, 0, 64, 97
1, 360971, Control_c, 0, 64, 97
1, 360986, Control_c, 0, 64, 98
1, 361001, Control_c, 0, 64, 99
1, 361016, Control_c, 0, 64, 101
1, 361031, Control_c, 0, 64, 103
1, 361045, Control_c, 0, 64, 104
1, 361058, Note_on_c, 0, 45, 29
1, 361060, Control_c, 0, 64, 104
1, 361075, Control_c, 0, 64, 106
1, 361091, Control_c, 0, 64, 107
1, 361106, Control_c, 0, 64, 109
1, 361120, Control_c, 0, 64, 110
1, 361136, Control_c, 0, 64, 110
1, 361165, Control_c, 0, 64, 111
1, 361180, Control_c, 0, 64, 111
1, 361195, Control_c, 0, 64, 112
1, 361210, Control_c, 0, 64, 112
1, 361225, Control_c, 0, 64, 113
1, 361269, Control_c, 0, 67, 9
1, 361284, Control_c, 0, 67, 10
1, 361387, Control_c, 0, 67, 10
1, 361617, Control_c, 0, 64, 112
1, 361632, Control_c, 0, 64, 109
1, 361647, Control_c, 0, 64, 106
1, 361661, Control_c, 0, 64, 102
1, 361676, Control_c, 0, 64, 97
1, 361688, Note_on_c, 0, 65, 45
1, 361691, Control_c, 0, 64, 92
1, 361691, Control_c, 0, 67, 10
1, 361693, Note_on_c, 0, 57, 36
1, 361697, Note_on_c, 0, 35, 22
1, 361698, Note_on_c, 0, 61, 32
1, 361706, Control_c, 0, 64, 87
1, 361720, Control_c, 0, 64, 82
1, 361735, Control_c, 0, 64, 76
1, 361750, Control_c, 0, 64, 71
1, 361765, Control_c, 0, 64, 67
1, 361780, Control_c, 0, 64, 64
1, 361794, Control_c, 0, 64, 63
1, 361824, Control_c, 0, 64, 63
1, 361837, Note_off_c, 0, 45, 40
1, 361854, Control_c, 0, 67, 11
1, 361899, Control_c, 0, 67, 11
1, 361914, Control_c, 0, 64, 63
1, 361943, Control_c, 0, 64, 64
1, 361958, Control_c, 0, 64, 64
1, 361988, Control_c, 0, 64, 65
1, 362003, Control_c, 0, 64, 65
1, 362003, Control_c, 0, 67, 12
1, 362018, Control_c, 0, 64, 66
1, 362033, Control_c, 0, 64, 66
1, 362092, Control_c, 0, 64, 67
1, 362136, Control_c, 0, 64, 67
1, 362181, Control_c, 0, 67, 12
1, 362196, Control_c, 0, 67, 13
1, 362210, Control_c, 0, 64, 68
1, 362225, Control_c, 0, 67, 17
1, 362240, Control_c, 0, 64, 68
1, 362240, Control_c, 0, 67, 21
1, 362254, Control_c, 0, 67, 24
1, 362269, Control_c, 0, 67, 27
1, 362284, Control_c, 0, 64, 69
1, 362284, Control_c, 0, 67, 28
1, 362299, Control_c, 0, 67, 29
1, 362314, Control_c, 0, 64, 69
1, 362314, Control_c, 0, 67, 29
1, 362343, Control_c, 0, 64, 70
1, 362366, Control_c, 0, 67, 30
1, 362381, Control_c, 0, 64, 70
1, 362396, Control_c, 0, 64, 71
1, 362425, Control_c, 0, 64, 71
1, 362484, Control_c, 0, 67, 29
1, 362539, Note_off_c, 0, 65, 56
1, 362551, Note_on_c, 0, 66, 39
1, 362603, Control_c, 0, 64, 71
1, 362632, Control_c, 0, 64, 70
1, 362676, Control_c, 0, 64, 71
1, 362692, Control_c, 0, 64, 73
1, 362707, Control_c, 0, 64, 76
1, 362722, Control_c, 0, 64, 79
1, 362736, Control_c, 0, 64, 81
1, 362751, Control_c, 0, 64, 83
1, 362766, Control_c, 0, 64, 84
1, 362781, Control_c, 0, 64, 85
1, 362784, Note_off_c, 0, 66, 42
1, 362796, Control_c, 0, 64, 86
1, 362811, Control_c, 0, 64, 86
1, 362826, Control_c, 0, 64, 87
1, 362826, Control_c, 0, 67, 30
1, 362840, Control_c, 0, 64, 87
1, 362855, Control_c, 0, 64, 88
1, 362870, Control_c, 0, 64, 88
1, 362880, Note_on_c, 0, 66, 41
1, 362884, Control_c, 0, 64, 89
1, 362884, Control_c, 0, 67, 30
1, 362903, Note_on_c, 0, 45, 29
1, 362914, Control_c, 0, 64, 89
1, 362914, Control_c, 0, 67, 31
1, 362929, Control_c, 0, 64, 90
1, 362929, Control_c, 0, 67, 33
1, 362944, Control_c, 0, 64, 90
1, 362944, Control_c, 0, 67, 38
1, 362958, Control_c, 0, 67, 42
1, 362973, Control_c, 0, 64, 91
1, 362973, Control_c, 0, 67, 45
1, 362988, Control_c, 0, 67, 48
1, 363003, Control_c, 0, 64, 91
1, 363003, Control_c, 0, 67, 52
1, 363018, Control_c, 0, 67, 56
1, 363032, Control_c, 0, 67, 61
1, 363047, Control_c, 0, 67, 65
1, 363062, Control_c, 0, 64, 92
1, 363062, Control_c, 0, 67, 69
1, 363076, Control_c, 0, 67, 74
1, 363091, Control_c, 0, 64, 92
1, 363091, Control_c, 0, 67, 78
1, 363114, Control_c, 0, 67, 83
1, 363129, Control_c, 0, 67, 87
1, 363144, Control_c, 0, 67, 92
1, 363158, Control_c, 0, 64, 93
1, 363158, Control_c, 0, 67, 96
1, 363173, Control_c, 0, 67, 101
1, 363188, Control_c, 0, 67, 105
1, 363203, Control_c, 0, 64, 93
1, 363203, Control_c, 0, 67, 109
1, 363218, Control_c, 0, 67, 116
1, 363232, Control_c, 0, 67, 122
1, 363247, Control_c, 0, 67, 127
1, 363306, Control_c, 0, 64, 94
1, 363338, Note_off_c, 0, 35, 37
1, 363405, Note_off_c, 0, 45, 42
1, 363761, Note_on_c, 0, 45, 30
1, 363907, Control_c, 0, 64, 93
1, 363936, Control_c, 0, 64, 93
1, 363966, Control_c, 0, 64, 92
1, 363981, Control_c, 0, 64, 92
1, 364010, Control_c, 0, 64, 91
1, 364025, Control_c, 0, 64, 90
1, 364040, Control_c, 0, 64, 89
1, 364054, Control_c, 0, 64, 88
1, 364069, Control_c, 0, 64, 87
1, 364084, Control_c, 0, 64, 85
1, 364099, Control_c, 0, 64, 83
1, 364114, Control_c, 0, 64, 82
1, 364127, Note_on_c, 0, 65, 44
1, 364129, Control_c, 0, 64, 80
1, 364134, Note_on_c, 0, 35, 29
1, 364144, Control_c, 0, 64, 78
1, 364159, Control_c, 0, 64, 76
1, 364174, Control_c, 0, 64, 74
1, 364188, Control_c, 0, 64, 73
1, 364203, Control_c, 0, 64, 72
1, 364218, Control_c, 0, 64, 70
1, 364223, Note_off_c, 0, 66, 42
1, 364233, Control_c, 0, 64, 70
1, 364242, Note_off_c, 0, 45, 34
1, 364248, Control_c, 0, 64, 69
1, 364323, Control_c, 0, 64, 68
1, 364337, Control_c, 0, 64, 68
1, 364367, Control_c, 0, 64, 67
1, 364456, Control_c, 0, 64, 67
1, 364775, Control_c, 0, 64, 67
1, 364892, Control_c, 0, 64, 67
1, 364906, Note_on_c, 0, 66, 40
1, 364951, Control_c, 0, 64, 66
1, 364956, Note_off_c, 0, 65, 37
1, 364966, Control_c, 0, 64, 66
1, 364981, Control_c, 0, 64, 65
1, 364996, Control_c, 0, 64, 64
1, 365011, Control_c, 0, 64, 63
1, 365026, Control_c, 0, 64, 62
1, 365041, Control_c, 0, 64, 60
1, 365055, Control_c, 0, 64, 59
1, 365070, Control_c, 0, 64, 58
1, 365086, Control_c, 0, 64, 59
1, 365100, Control_c, 0, 64, 60
1, 365115, Control_c, 0, 64, 62
1, 365130, Control_c, 0, 64, 65
1, 365145, Control_c, 0, 64, 69
1, 365160, Control_c, 0, 64, 73
1, 365175, Control_c, 0, 64, 78
1, 365190, Control_c, 0, 64, 81
1, 365205, Control_c, 0, 64, 84
1, 365220, Control_c, 0, 64, 87
1, 365234, Control_c, 0, 64, 89
1, 365249, Control_c, 0, 64, 94
1, 365264, Control_c, 0, 64, 98
1, 365278, Control_c, 0, 64, 101
1, 365288, Note_off_c, 0, 57, 41
1, 365293, Control_c, 0, 64, 102
1, 365308, Control_c, 0, 64, 102
1, 365338, Control_c, 0, 64, 102
1, 365360, Control_c, 0, 64, 98
1, 365368, Note_off_c, 0, 61, 41
1, 365375, Control_c, 0, 64, 91
1, 365389, Control_c, 0, 64, 82
1, 365404, Control_c, 0, 64, 73
1, 365419, Control_c, 0, 64, 64
1, 365434, Control_c, 0, 64, 49
1, 365449, Control_c, 0, 64, 51
1, 365464, Control_c, 0, 64, 59
1, 365478, Control_c, 0, 64, 64
1, 365493, Control_c, 0, 64, 67
1, 365508, Control_c, 0, 64, 70
1, 365523, Control_c, 0, 64, 72
1, 365538, Control_c, 0, 64, 73
1, 365541, Note_off_c, 0, 66, 60
1, 365586, Note_off_c, 0, 35, 41
1, 365597, Control_c, 0, 64, 72
1, 365612, Control_c, 0, 64, 68
1, 365627, Control_c, 0, 64, 62
1, 365641, Control_c, 0, 64, 57
1, 365652, Note_on_c, 0, 56, 35
1, 365656, Control_c, 0, 64, 59
1, 365671, Control_c, 0, 64, 64
1, 365685, Control_c, 0, 64, 69
1, 365700, Control_c, 0, 64, 74
1, 365715, Control_c, 0, 64, 81
1, 365730, Control_c, 0, 64, 85
1, 365745, Control_c, 0, 64, 88
1, 365753, Note_on_c, 0, 62, 48
1, 365759, Control_c, 0, 64, 91
1, 365766, Note_off_c, 0, 56, 56
1, 365774, Control_c, 0, 64, 94
1, 365789, Control_c, 0, 64, 96
1, 365804, Control_c, 0, 64, 98
1, 365819, Control_c, 0, 64, 100
1, 365834, Control_c, 0, 64, 101
1, 365848, Control_c, 0, 64, 103
1, 365863, Control_c, 0, 64, 103
1, 365879, Control_c, 0, 64, 104
1, 365894, Control_c, 0, 64, 105
1, 365899, Note_on_c, 0, 66, 46
1, 365908, Control_c, 0, 64, 105
1, 365923, Control_c, 0, 64, 106
1, 365938, Control_c, 0, 64, 107
1, 365968, Control_c, 0, 64, 107
1, 365983, Control_c, 0, 64, 108
1, 365998, Control_c, 0, 64, 108
1, 366027, Control_c, 0, 64, 109
1, 366042, Control_c, 0, 64, 109
1, 366087, Control_c, 0, 64, 110
1, 366108, Note_on_c, 0, 71, 49
1, 366138, Note_on_c, 0, 40, 30
1, 366182, Control_c, 0, 64, 110
1, 366215, Note_off_c, 0, 62, 32
1, 366301, Control_c, 0, 64, 111
1, 366361, Control_c, 0, 64, 111
1, 366392, Note_off_c, 0, 71, 50
1, 366405, Control_c, 0, 64, 112
1, 366449, Control_c, 0, 64, 112
1, 366494, Control_c, 0, 64, 113
1, 366529, Note_off_c, 0, 66, 63
1, 366553, Control_c, 0, 64, 113
1, 366867, Note_on_c, 0, 71, 45
1, 367199, Note_on_c, 0, 57, 37
1, 367199, Note_on_c, 0, 65, 48
1, 367200, Note_on_c, 0, 61, 46
1, 367233, Note_on_c, 0, 50, 29
1, 367258, Control_c, 0, 64, 113
1, 367395, Note_off_c, 0, 71, 54
1, 367470, Note_off_c, 0, 40, 40
1, 367566, Note_off_c, 0, 50, 41
1, 367819, Note_on_c, 0, 50, 41
1, 367933, Control_c, 0, 64, 112
1, 367977, Control_c, 0, 64, 112
1, 368007, Control_c, 0, 64, 111
1, 368043, Note_on_c, 0, 40, 45
1, 368051, Control_c, 0, 64, 111
1, 368442, Note_on_c, 0, 66, 54
1, 368570, Note_off_c, 0, 57, 61
1, 368582, Note_off_c, 0, 61, 39
1, 368673, Note_off_c, 0, 65, 57
1, 368698, Note_off_c, 0, 50, 37
1, 368815, Control_c, 0, 64, 107
1, 368829, Control_c, 0, 64, 99
1, 368844, Control_c, 0, 64, 89
1, 368859, Note_on_c, 0, 67, 61
1, 368859, Control_c, 0, 64, 79
1, 368872, Note_on_c, 0, 58, 44
1, 368873, Note_on_c, 0, 62, 43
1, 368874, Control_c, 0, 64, 68
1, 368880, Note_on_c, 0, 49, 39
1, 368889, Control_c, 0, 64, 55
1, 368895, Note_off_c, 0, 66, 65
1, 368904, Control_c, 0, 64, 0
1, 368978, Control_c, 0, 64, 25
1, 368993, Control_c, 0, 64, 55
1, 369008, Control_c, 0, 64, 64
1, 369022, Control_c, 0, 64, 69
1, 369037, Control_c, 0, 64, 74
1, 369052, Control_c, 0, 64, 79
1, 369068, Control_c, 0, 64, 85
1, 369083, Control_c, 0, 64, 88
1, 369105, Control_c, 0, 64, 91
1, 369120, Control_c, 0, 64, 93
1, 369134, Control_c, 0, 64, 94
1, 369149, Control_c, 0, 64, 95
1, 369152, Note_off_c, 0, 40, 41
1, 369164, Control_c, 0, 64, 96
1, 369179, Control_c, 0, 64, 97
1, 369194, Control_c, 0, 64, 98
1, 369241, Note_off_c, 0, 49, 44
1, 369272, Note_on_c, 0, 68, 62
1, 369273, Note_off_c, 0, 58, 57
1, 369294, Note_off_c, 0, 67, 63
1, 369316, Note_off_c, 0, 62, 60
1, 369459, Control_c, 0, 64, 98
1, 369474, Control_c, 0, 64, 99
1, 369489, Control_c, 0, 64, 99
1, 369504, Control_c, 0, 64, 100
1, 369519, Control_c, 0, 64, 101
1, 369563, Control_c, 0, 64, 97
1, 369578, Control_c, 0, 64, 86
1, 369593, Control_c, 0, 64, 72
1, 369607, Control_c, 0, 64, 51
1, 369617, Note_off_c, 0, 68, 64
1, 369622, Control_c, 0, 64, 0
1, 369628, Note_on_c, 0, 63, 59
1, 369628, Note_on_c, 0, 48, 41
1, 369632, Note_on_c, 0, 57, 37
1, 369667, Control_c, 0, 64, 58
1, 369682, Control_c, 0, 64, 67
1, 369697, Control_c, 0, 64, 73
1, 369712, Control_c, 0, 64, 80
1, 369726, Control_c, 0, 64, 88
1, 369732, Note_off_c, 0, 63, 63
1, 369741, Control_c, 0, 64, 92
1, 369756, Control_c, 0, 64, 95
1, 369771, Control_c, 0, 64, 97
1, 369786, Control_c, 0, 64, 99
1, 369786, Note_on_c, 0, 75, 56
1, 369800, Control_c, 0, 64, 100
1, 369815, Control_c, 0, 64, 101
1, 369830, Control_c, 0, 64, 102
1, 369852, Control_c, 0, 64, 103
1, 369859, Note_off_c, 0, 57, 52
1, 369867, Control_c, 0, 64, 103
1, 369882, Control_c, 0, 64, 104
1, 369897, Control_c, 0, 64, 104
1, 369927, Control_c, 0, 64, 105
1, 369931, Note_on_c, 0, 69, 55
1, 369942, Control_c, 0, 64, 105
1, 369956, Control_c, 0, 64, 106
1, 369971, Control_c, 0, 64, 106
1, 370001, Control_c, 0, 64, 107
1, 370031, Control_c, 0, 64, 107
1, 370041, Note_on_c, 0, 72, 70
1, 370075, Note_off_c, 0, 69, 51
1, 370082, Note_off_c, 0, 75, 22
1, 370171, Note_on_c, 0, 79, 72
1, 370212, Note_off_c, 0, 72, 60
1, 370217, Note_on_c, 0, 57, 47
1, 370234, Note_off_c, 0, 48, 48
1, 370252, Note_off_c, 0, 57, 63
1, 370311, Note_off_c, 0, 79, 63
1, 370313, Note_on_c, 0, 78, 76
1, 370520, Control_c, 0, 64, 105
1, 370534, Control_c, 0, 64, 100
1, 370549, Control_c, 0, 64, 90
1, 370552, Note_off_c, 0, 78, 63
1, 370558, Note_on_c, 0, 85, 74
1, 370564, Control_c, 0, 64, 79
1, 370565, Note_on_c, 0, 73, 60
1, 370570, Note_on_c, 0, 69, 48
1, 370571, Note_on_c, 0, 66, 49
1, 370578, Note_on_c, 0, 59, 40
1, 370579, Control_c, 0, 64, 68
1, 370601, Control_c, 0, 64, 33
1, 370611, Note_off_c, 0, 73, 0
1, 370611, Note_on_c, 0, 73, 23
1, 370616, Control_c, 0, 64, 0
1, 370750, Control_c, 0, 64, 40
1, 370765, Control_c, 0, 64, 62
1, 370779, Control_c, 0, 64, 65
1, 370794, Control_c, 0, 64, 68
1, 370809, Control_c, 0, 64, 70
1, 370824, Control_c, 0, 64, 73
1, 370839, Control_c, 0, 64, 75
1, 370853, Control_c, 0, 64, 78
1, 370869, Control_c, 0, 64, 80
1, 370884, Control_c, 0, 64, 82
1, 370898, Control_c, 0, 64, 83
1, 370913, Control_c, 0, 64, 84
1, 370928, Control_c, 0, 64, 85
1, 370929, Note_off_c, 0, 66, 21
1, 370943, Control_c, 0, 64, 86
1, 370958, Control_c, 0, 64, 87
1, 371062, Control_c, 0, 64, 84
1, 371077, Control_c, 0, 64, 78
1, 371092, Control_c, 0, 64, 70
1, 371098, Note_on_c, 0, 65, 43
1, 371106, Control_c, 0, 64, 60
1, 371121, Control_c, 0, 64, 0
1, 371210, Control_c, 0, 64, 53
1, 371224, Control_c, 0, 64, 66
1, 371239, Control_c, 0, 64, 71
1, 371254, Control_c, 0, 64, 75
1, 371269, Control_c, 0, 64, 78
1, 371284, Control_c, 0, 64, 81
1, 371285, Note_off_c, 0, 69, 61
1, 371298, Control_c, 0, 64, 82
1, 371299, Note_off_c, 0, 73, 55
1, 371313, Control_c, 0, 64, 83
1, 371324, Note_off_c, 0, 85, 58
1, 371328, Control_c, 0, 64, 84
1, 371351, Control_c, 0, 64, 85
1, 371366, Control_c, 0, 64, 86
1, 371378, Note_off_c, 0, 65, 60
1, 371380, Control_c, 0, 64, 87
1, 371389, Note_off_c, 0, 59, 39
1, 371395, Control_c, 0, 64, 88
1, 371400, Note_on_c, 0, 84, 53
1, 371410, Control_c, 0, 64, 89
1, 371413, Note_on_c, 0, 72, 41
1, 371424, Control_c, 0, 64, 91
1, 371439, Control_c, 0, 64, 92
1, 371454, Control_c, 0, 64, 94
1, 371470, Control_c, 0, 64, 97
1, 371480, Note_off_c, 0, 84, 63
1, 371485, Control_c, 0, 64, 99
1, 371500, Control_c, 0, 64, 100
1, 371515, Control_c, 0, 64, 102
1, 371517, Note_off_c, 0, 72, 61
1, 371529, Control_c, 0, 64, 104
1, 371544, Control_c, 0, 64, 107
1, 371559, Control_c, 0, 64, 110
1, 371574, Control_c, 0, 64, 111
1, 371603, Control_c, 0, 64, 107
1, 371618, Control_c, 0, 64, 96
1, 371633, Control_c, 0, 64, 80
1, 371647, Control_c, 0, 64, 63
1, 371662, Control_c, 0, 64, 0
1, 371673, Note_on_c, 0, 68, 58
1, 371692, Control_c, 0, 64, 42
1, 371707, Control_c, 0, 64, 66
1, 371710, Note_off_c, 0, 68, 58
1, 371721, Control_c, 0, 64, 74
1, 371733, Note_on_c, 0, 74, 59
1, 371736, Control_c, 0, 64, 81
1, 371751, Control_c, 0, 64, 85
1, 371766, Control_c, 0, 64, 86
1, 371781, Control_c, 0, 64, 88
1, 371795, Control_c, 0, 64, 89
1, 371810, Control_c, 0, 64, 91
1, 371817, Note_on_c, 0, 78, 49
1, 371825, Control_c, 0, 64, 92
1, 371840, Control_c, 0, 64, 93
1, 371855, Control_c, 0, 64, 94
1, 371862, Note_off_c, 0, 78, 0
1, 371862, Note_on_c, 0, 78, 24
1, 371870, Control_c, 0, 64, 94
1, 371900, Control_c, 0, 64, 95
1, 371929, Control_c, 0, 64, 95
1, 371935, Note_on_c, 0, 83, 68
1, 371944, Note_on_c, 0, 64, 28
1, 371944, Control_c, 0, 64, 96
1, 371959, Control_c, 0, 64, 96
1, 371973, Note_off_c, 0, 74, 55
1, 371988, Control_c, 0, 64, 97
1, 372003, Control_c, 0, 64, 97
1, 372018, Control_c, 0, 64, 98
1, 372033, Control_c, 0, 64, 98
1, 372044, Note_off_c, 0, 64, 54
1, 372062, Control_c, 0, 64, 99
1, 372077, Control_c, 0, 64, 99
1, 372114, Control_c, 0, 64, 100
1, 372118, Note_off_c, 0, 83, 62
1, 372129, Control_c, 0, 64, 100
1, 372144, Control_c, 0, 64, 101
1, 372172, Note_off_c, 0, 78, 63
1, 372174, Control_c, 0, 64, 102
1, 372189, Control_c, 0, 64, 102
1, 372203, Control_c, 0, 64, 103
1, 372218, Control_c, 0, 64, 104
1, 372233, Control_c, 0, 64, 104
1, 372247, Control_c, 0, 64, 105
1, 372262, Control_c, 0, 64, 105
1, 372278, Control_c, 0, 64, 106
1, 372293, Control_c, 0, 64, 106
1, 372308, Control_c, 0, 64, 107
1, 372323, Control_c, 0, 64, 107
1, 372347, Note_on_c, 0, 52, 42
1, 372347, Note_on_c, 0, 62, 49
1, 372401, Note_off_c, 0, 62, 59
1, 372442, Note_off_c, 0, 52, 59
1, 372524, Note_on_c, 0, 71, 54
1, 372752, Control_c, 0, 64, 107
1, 372774, Note_on_c, 0, 65, 59
1, 372779, Note_on_c, 0, 40, 45
1, 372780, Note_on_c, 0, 61, 48
1, 372782, Control_c, 0, 64, 106
1, 372785, Note_on_c, 0, 57, 38
1, 372796, Note_on_c, 0, 50, 33
1, 372797, Control_c, 0, 64, 104
1, 372811, Control_c, 0, 64, 103
1, 372826, Control_c, 0, 64, 101
1, 372848, Control_c, 0, 64, 100
1, 372863, Control_c, 0, 64, 99
1, 372877, Control_c, 0, 64, 98
1, 372892, Control_c, 0, 64, 96
1, 372907, Control_c, 0, 64, 95
1, 372922, Control_c, 0, 64, 93
1, 372937, Control_c, 0, 64, 93
1, 372952, Control_c, 0, 64, 92
1, 372964, Note_off_c, 0, 71, 57
1, 372967, Control_c, 0, 64, 92
1, 372982, Control_c, 0, 64, 91
1, 372996, Control_c, 0, 64, 90
1, 373011, Control_c, 0, 64, 89
1, 373026, Control_c, 0, 64, 88
1, 373041, Control_c, 0, 64, 87
1, 373056, Control_c, 0, 64, 87
1, 373071, Control_c, 0, 64, 86
1, 373086, Control_c, 0, 64, 85
1, 373101, Control_c, 0, 64, 84
1, 373115, Control_c, 0, 64, 83
1, 373130, Control_c, 0, 64, 81
1, 373145, Control_c, 0, 64, 80
1, 373160, Control_c, 0, 64, 79
1, 373174, Control_c, 0, 64, 77
1, 373189, Control_c, 0, 64, 73
1, 373195, Note_on_c, 0, 49, 48
1, 373204, Control_c, 0, 64, 69
1, 373219, Control_c, 0, 64, 66
1, 373224, Note_off_c, 0, 50, 58
1, 373234, Control_c, 0, 64, 64
1, 373248, Control_c, 0, 64, 63
1, 373263, Control_c, 0, 64, 64
1, 373278, Control_c, 0, 64, 64
1, 373292, Control_c, 0, 64, 65
1, 373307, Control_c, 0, 64, 66
1, 373322, Control_c, 0, 64, 68
1, 373337, Control_c, 0, 64, 72
1, 373352, Control_c, 0, 64, 76
1, 373366, Control_c, 0, 64, 79
1, 373381, Control_c, 0, 64, 81
1, 373396, Control_c, 0, 64, 82
1, 373411, Control_c, 0, 64, 83
1, 373426, Control_c, 0, 64, 85
1, 373441, Control_c, 0, 64, 85
1, 373500, Control_c, 0, 64, 84
1, 373515, Control_c, 0, 64, 81
1, 373530, Control_c, 0, 64, 75
1, 373545, Control_c, 0, 64, 67
1, 373557, Note_off_c, 0, 49, 56
1, 373559, Control_c, 0, 64, 55
1, 373574, Control_c, 0, 64, 28
1, 373578, Note_on_c, 0, 48, 45
1, 373596, Control_c, 0, 64, 0
1, 373641, Control_c, 0, 64, 27
1, 373655, Control_c, 0, 64, 51
1, 373670, Control_c, 0, 64, 64
1, 373685, Control_c, 0, 64, 69
1, 373700, Control_c, 0, 64, 74
1, 373715, Control_c, 0, 64, 79
1, 373730, Control_c, 0, 64, 83
1, 373745, Control_c, 0, 64, 86
1, 373760, Control_c, 0, 64, 89
1, 373774, Control_c, 0, 64, 92
1, 373789, Control_c, 0, 64, 94
1, 373804, Control_c, 0, 64, 95
1, 373818, Control_c, 0, 64, 96
1, 373894, Control_c, 0, 64, 95
1, 373895, Note_off_c, 0, 48, 42
1, 373909, Control_c, 0, 64, 89
1, 373924, Control_c, 0, 64, 80
1, 373939, Control_c, 0, 64, 68
1, 373954, Control_c, 0, 64, 0
1, 373955, Note_on_c, 0, 66, 52
1, 373970, Note_off_c, 0, 65, 61
1, 373977, Note_on_c, 0, 47, 41
1, 374031, Note_off_c, 0, 40, 54
1, 374042, Control_c, 0, 64, 61
1, 374057, Control_c, 0, 64, 69
1, 374072, Control_c, 0, 64, 77
1, 374087, Control_c, 0, 64, 86
1, 374102, Control_c, 0, 64, 94
1, 374103, Note_off_c, 0, 57, 62
1, 374116, Control_c, 0, 64, 102
1, 374131, Control_c, 0, 64, 108
1, 374141, Note_off_c, 0, 61, 47
1, 374146, Control_c, 0, 64, 112
1, 374161, Control_c, 0, 64, 113
1, 374190, Control_c, 0, 64, 106
1, 374195, Note_off_c, 0, 66, 63
1, 374205, Control_c, 0, 64, 89
1, 374216, Note_off_c, 0, 47, 41
1, 374220, Control_c, 0, 64, 70
1, 374226, Note_on_c, 0, 39, 59
1, 374235, Control_c, 0, 64, 0
1, 374294, Control_c, 0, 64, 67
1, 374308, Control_c, 0, 64, 77
1, 374323, Control_c, 0, 64, 89
1, 374346, Control_c, 0, 64, 93
1, 374361, Control_c, 0, 64, 94
1, 374362, Note_on_c, 0, 46, 58
1, 374376, Control_c, 0, 64, 95
1, 374387, Note_off_c, 0, 39, 57
1, 374391, Control_c, 0, 64, 96
1, 374405, Control_c, 0, 64, 97
1, 374420, Control_c, 0, 64, 99
1, 374435, Control_c, 0, 64, 100
1, 374449, Control_c, 0, 64, 100
1, 374464, Control_c, 0, 64, 101
1, 374494, Control_c, 0, 64, 101
1, 374509, Control_c, 0, 64, 102
1, 374523, Control_c, 0, 64, 102
1, 374535, Note_on_c, 0, 69, 67
1, 374537, Note_on_c, 0, 65, 56
1, 374538, Control_c, 0, 64, 103
1, 374540, Note_on_c, 0, 61, 52
1, 374541, Note_on_c, 0, 57, 48
1, 374551, Note_on_c, 0, 55, 39
1, 374597, Control_c, 0, 64, 103
1, 374672, Control_c, 0, 64, 104
1, 374687, Control_c, 0, 64, 104
1, 374717, Control_c, 0, 64, 105
1, 374776, Control_c, 0, 64, 105
1, 374812, Note_off_c, 0, 69, 63
1, 374816, Note_off_c, 0, 57, 58
1, 374836, Control_c, 0, 64, 106
1, 374865, Control_c, 0, 64, 106
1, 374895, Control_c, 0, 64, 107
1, 374925, Control_c, 0, 64, 107
1, 374928, Note_off_c, 0, 61, 56
1, 374954, Control_c, 0, 64, 108
1, 374969, Control_c, 0, 64, 108
1, 374999, Control_c, 0, 64, 109
1, 375009, Note_on_c, 0, 70, 66
1, 375013, Control_c, 0, 64, 110
1, 375020, Note_on_c, 0, 58, 43
1, 375028, Control_c, 0, 64, 110
1, 375043, Control_c, 0, 64, 111
1, 375056, Note_off_c, 0, 55, 49
1, 375058, Control_c, 0, 64, 111
1, 375095, Control_c, 0, 64, 112
1, 375100, Note_off_c, 0, 65, 54
1, 375110, Control_c, 0, 64, 113
1, 375125, Control_c, 0, 64, 114
1, 375127, Note_off_c, 0, 58, 63
1, 375140, Control_c, 0, 64, 115
1, 375154, Control_c, 0, 64, 115
1, 375169, Control_c, 0, 64, 116
1, 375184, Control_c, 0, 64, 116
1, 375199, Control_c, 0, 64, 119
1, 375214, Control_c, 0, 64, 126
1, 375228, Control_c, 0, 64, 127
1, 375332, Control_c, 0, 64, 127
1, 375346, Control_c, 0, 64, 101
1, 375360, Control_c, 0, 64, 85
1, 375375, Control_c, 0, 64, 70
1, 375381, Note_on_c, 0, 63, 64
1, 375382, Note_on_c, 0, 60, 58
1, 375389, Control_c, 0, 64, 58
1, 375395, Note_on_c, 0, 54, 46
1, 375404, Control_c, 0, 64, 67
1, 375419, Control_c, 0, 64, 79
1, 375434, Control_c, 0, 64, 93
1, 375447, Note_off_c, 0, 60, 61
1, 375449, Control_c, 0, 64, 105
1, 375459, Note_off_c, 0, 63, 64
1, 375465, Control_c, 0, 64, 111
1, 375480, Control_c, 0, 64, 113
1, 375484, Note_off_c, 0, 70, 65
1, 375494, Control_c, 0, 64, 114
1, 375585, Note_on_c, 0, 77, 64
1, 375680, Poly_aftertouch_c, 0, 51, 127
1, 375682, Note_off_c, 0, 77, 61
1, 375710, Note_on_c, 0, 72, 66
1, 375733, Note_off_c, 0, 54, 33
1, 375760, Control_c, 0, 64, 114
1, 375770, Poly_aftertouch_c, 0, 51, 0
1, 375790, Control_c, 0, 64, 115
1, 375817, Note_on_c, 0, 75, 77
1, 375840, Note_off_c, 0, 72, 54
1, 375857, Control_c, 0, 64, 115
1, 375942, Note_on_c, 0, 82, 78
1, 375946, Control_c, 0, 64, 116
1, 375988, Note_on_c, 0, 54, 58
1, 376001, Note_off_c, 0, 46, 61
1, 376016, Note_off_c, 0, 54, 64
1, 376019, Control_c, 0, 64, 116
1, 376034, Control_c, 0, 64, 117
1, 376049, Control_c, 0, 64, 118
1, 376053, Note_off_c, 0, 82, 64
1, 376064, Control_c, 0, 64, 119
1, 376079, Control_c, 0, 64, 119
1, 376094, Control_c, 0, 64, 120
1, 376102, Note_on_c, 0, 81, 82
1, 376109, Note_off_c, 0, 75, 63
1, 376124, Control_c, 0, 64, 120
1, 376139, Control_c, 0, 64, 121
1, 376153, Control_c, 0, 64, 122
1, 376168, Control_c, 0, 64, 123
1, 376203, Note_off_c, 0, 81, 62
1, 376273, Control_c, 0, 64, 120
1, 376288, Control_c, 0, 64, 110
1, 376303, Control_c, 0, 64, 98
1, 376314, Note_on_c, 0, 88, 85
1, 376317, Control_c, 0, 64, 87
1, 376318, Note_on_c, 0, 66, 59
1, 376320, Note_on_c, 0, 56, 50
1, 376322, Note_on_c, 0, 59, 56
1, 376328, Note_on_c, 0, 76, 61
1, 376332, Control_c, 0, 64, 76
1, 376347, Control_c, 0, 64, 64
1, 376362, Control_c, 0, 64, 14
1, 376377, Control_c, 0, 64, 0
1, 376495, Control_c, 0, 64, 32
1, 376509, Control_c, 0, 64, 59
1, 376524, Control_c, 0, 64, 65
1, 376539, Control_c, 0, 64, 67
1, 376554, Control_c, 0, 64, 69
1, 376569, Control_c, 0, 64, 71
1, 376591, Control_c, 0, 64, 75
1, 376606, Control_c, 0, 64, 79
1, 376621, Control_c, 0, 64, 82
1, 376635, Control_c, 0, 64, 83
1, 376650, Control_c, 0, 64, 83
1, 376724, Control_c, 0, 64, 83
1, 376739, Control_c, 0, 64, 81
1, 376754, Control_c, 0, 64, 77
1, 376769, Control_c, 0, 64, 69
1, 376783, Control_c, 0, 64, 61
1, 376798, Control_c, 0, 64, 32
1, 376812, Note_off_c, 0, 59, 59
1, 376813, Control_c, 0, 64, 0
1, 376840, Note_on_c, 0, 60, 42
1, 376917, Control_c, 0, 64, 59
1, 376932, Control_c, 0, 64, 68
1, 376947, Control_c, 0, 64, 73
1, 376962, Control_c, 0, 64, 78
1, 376977, Control_c, 0, 64, 82
1, 376991, Control_c, 0, 64, 84
1, 377000, Note_off_c, 0, 76, 67
1, 377006, Control_c, 0, 64, 86
1, 377021, Control_c, 0, 64, 87
1, 377036, Control_c, 0, 64, 88
1, 377038, Note_off_c, 0, 56, 63
1, 377051, Control_c, 0, 64, 90
1, 377064, Note_off_c, 0, 60, 62
1, 377066, Control_c, 0, 64, 91
1, 377081, Control_c, 0, 64, 92
1, 377096, Control_c, 0, 64, 93
1, 377106, Note_off_c, 0, 66, 65
1, 377111, Control_c, 0, 64, 93
1, 377126, Control_c, 0, 64, 94
1, 377140, Control_c, 0, 64, 95
1, 377155, Control_c, 0, 64, 96
1, 377164, Note_on_c, 0, 87, 56
1, 377170, Control_c, 0, 64, 97
1, 377176, Note_on_c, 0, 75, 42
1, 377185, Control_c, 0, 64, 98
1, 377200, Control_c, 0, 64, 100
1, 377215, Control_c, 0, 64, 100
1, 377230, Control_c, 0, 64, 101
1, 377244, Control_c, 0, 64, 101
1, 377259, Control_c, 0, 64, 102
1, 377274, Control_c, 0, 64, 102
1, 377289, Control_c, 0, 64, 103
1, 377304, Control_c, 0, 64, 103
1, 377319, Control_c, 0, 64, 104
1, 377338, Note_off_c, 0, 88, 52
1, 377358, Note_off_c, 0, 87, 63
1, 377370, Note_off_c, 0, 75, 59
1, 377370, Control_c, 0, 64, 103
1, 377374, Note_on_c, 0, 61, 32
1, 377385, Control_c, 0, 64, 100
1, 377400, Control_c, 0, 64, 90
1, 377414, Control_c, 0, 64, 78
1, 377423, Note_on_c, 0, 65, 47
1, 377429, Control_c, 0, 64, 67
1, 377444, Control_c, 0, 64, 47
1, 377459, Control_c, 0, 64, 18
1, 377468, Note_on_c, 0, 68, 46
1, 377474, Control_c, 0, 64, 44
1, 377489, Control_c, 0, 64, 64
1, 377504, Control_c, 0, 64, 69
1, 377514, Note_on_c, 0, 74, 49
1, 377519, Control_c, 0, 64, 75
1, 377521, Note_on_c, 0, 71, 40
1, 377533, Control_c, 0, 64, 80
1, 377548, Control_c, 0, 64, 84
1, 377563, Control_c, 0, 64, 87
1, 377563, Note_on_c, 0, 77, 49
1, 377578, Control_c, 0, 64, 89
1, 377593, Control_c, 0, 64, 91
1, 377595, Note_off_c, 0, 74, 62
1, 377607, Control_c, 0, 64, 93
1, 377622, Control_c, 0, 64, 95
1, 377637, Control_c, 0, 64, 97
1, 377648, Note_on_c, 0, 81, 50
1, 377652, Control_c, 0, 64, 98
1, 377666, Control_c, 0, 64, 99
1, 377681, Control_c, 0, 64, 100
1, 377696, Control_c, 0, 64, 100
1, 377711, Control_c, 0, 64, 101
1, 377740, Control_c, 0, 64, 101
1, 377743, Note_on_c, 0, 86, 69
1, 377814, Control_c, 0, 64, 102
1, 377867, Note_off_c, 0, 77, 36
1, 377919, Control_c, 0, 64, 102
1, 377978, Control_c, 0, 64, 103
1, 378023, Control_c, 0, 64, 103
1, 378040, Note_off_c, 0, 86, 52
1, 378067, Control_c, 0, 64, 104
1, 378088, Note_off_c, 0, 81, 57
1, 378089, Control_c, 0, 64, 104
1, 378104, Control_c, 0, 64, 105
1, 378119, Control_c, 0, 64, 105
1, 378127, Note_off_c, 0, 68, 48
1, 378140, Note_off_c, 0, 65, 41
1, 378149, Control_c, 0, 64, 106
1, 378160, Note_off_c, 0, 71, 39
1, 378163, Control_c, 0, 64, 106
1, 378222, Control_c, 0, 64, 107
1, 378449, Note_on_c, 0, 86, 57
1, 378504, Note_off_c, 0, 86, 64
1, 378786, Control_c, 0, 64, 106
1, 378789, Note_on_c, 0, 77, 52
1, 378796, Note_on_c, 0, 80, 53
1, 378801, Control_c, 0, 64, 102
1, 378802, Note_on_c, 0, 68, 44
1, 378809, Note_on_c, 0, 65, 34
1, 378816, Control_c, 0, 64, 96
1, 378838, Control_c, 0, 64, 89
1, 378842, Note_on_c, 0, 73, 37
1, 378853, Control_c, 0, 64, 83
1, 378868, Control_c, 0, 64, 77
1, 378883, Control_c, 0, 64, 73
1, 378898, Control_c, 0, 64, 71
1, 378912, Control_c, 0, 64, 70
1, 378957, Control_c, 0, 64, 71
1, 378972, Control_c, 0, 64, 72
1, 378986, Control_c, 0, 64, 75
1, 379001, Control_c, 0, 64, 78
1, 379004, Note_on_c, 0, 66, 47
1, 379016, Control_c, 0, 64, 83
1, 379017, Note_off_c, 0, 68, 61
1, 379031, Control_c, 0, 64, 85
1, 379036, Note_off_c, 0, 73, 30
1, 379045, Control_c, 0, 64, 87
1, 379060, Control_c, 0, 64, 89
1, 379075, Control_c, 0, 64, 91
1, 379090, Control_c, 0, 64, 92
1, 379103, Note_off_c, 0, 66, 59
1, 379105, Control_c, 0, 64, 93
1, 379119, Control_c, 0, 64, 93
1, 379134, Control_c, 0, 64, 94
1, 379149, Control_c, 0, 64, 94
1, 379153, Note_on_c, 0, 74, 47
1, 379164, Control_c, 0, 64, 95
1, 379179, Control_c, 0, 64, 95
1, 379260, Note_off_c, 0, 77, 32
1, 379274, Note_on_c, 0, 68, 48
1, 379338, Note_off_c, 0, 65, 34
1, 379340, Note_off_c, 0, 80, 38
1, 379418, Note_on_c, 0, 71, 47
1, 379445, Control_c, 0, 64, 96
1, 379554, Note_on_c, 0, 79, 49
1, 379691, Control_c, 0, 64, 96
1, 379701, Note_on_c, 0, 78, 61
1, 379735, Control_c, 0, 64, 97
1, 379741, Note_off_c, 0, 61, 40
1, 379750, Control_c, 0, 64, 98
1, 379765, Control_c, 0, 64, 99
1, 379769, Note_off_c, 0, 74, 41
1, 379780, Note_off_c, 0, 79, 35
1, 379780, Control_c, 0, 64, 99
1, 379792, Note_off_c, 0, 71, 52
1, 379795, Control_c, 0, 64, 100
1, 379809, Control_c, 0, 64, 101
1, 379824, Control_c, 0, 64, 103
1, 379827, Note_off_c, 0, 68, 41
1, 379839, Control_c, 0, 64, 104
1, 379850, Note_off_c, 0, 78, 54
1, 379853, Control_c, 0, 64, 105
1, 379868, Control_c, 0, 64, 106
1, 379883, Control_c, 0, 64, 107
1, 379897, Control_c, 0, 64, 108
1, 379912, Control_c, 0, 64, 109
1, 379927, Control_c, 0, 64, 110
1, 379942, Control_c, 0, 64, 111
1, 379957, Control_c, 0, 64, 112
1, 379972, Control_c, 0, 64, 112
1, 379986, Control_c, 0, 64, 113
1, 380001, Control_c, 0, 64, 113
1, 380016, Control_c, 0, 64, 114
1, 380090, Control_c, 0, 64, 113
1, 380105, Control_c, 0, 64, 107
1, 380120, Control_c, 0, 64, 98
1, 380134, Control_c, 0, 64, 86
1, 380136, Note_on_c, 0, 60, 39
1, 380141, Note_on_c, 0, 81, 66
1, 380142, Note_on_c, 0, 69, 58
1, 380149, Control_c, 0, 64, 75
1, 380155, Note_on_c, 0, 77, 45
1, 380164, Control_c, 0, 64, 62
1, 380178, Control_c, 0, 64, 0
1, 380238, Control_c, 0, 64, 52
1, 380254, Control_c, 0, 64, 66
1, 380269, Control_c, 0, 64, 71
1, 380278, Note_off_c, 0, 60, 60
1, 380283, Control_c, 0, 64, 77
1, 380298, Control_c, 0, 64, 84
1, 380313, Control_c, 0, 64, 89
1, 380318, Note_off_c, 0, 69, 65
1, 380336, Control_c, 0, 64, 93
1, 380351, Control_c, 0, 64, 96
1, 380365, Control_c, 0, 64, 99
1, 380380, Control_c, 0, 64, 101
1, 380395, Control_c, 0, 64, 103
1, 380401, Note_off_c, 0, 77, 61
1, 380409, Control_c, 0, 64, 105
1, 380424, Control_c, 0, 64, 106
1, 380429, Note_off_c, 0, 81, 62
1, 380498, Control_c, 0, 64, 103
1, 380506, Note_on_c, 0, 59, 50
1, 380513, Control_c, 0, 64, 95
1, 380528, Control_c, 0, 64, 83
1, 380538, Note_on_c, 0, 62, 50
1, 380543, Control_c, 0, 64, 70
1, 380557, Control_c, 0, 64, 41
1, 380572, Control_c, 0, 64, 0
1, 380574, Note_on_c, 0, 65, 58
1, 380603, Control_c, 0, 64, 22
1, 380617, Control_c, 0, 64, 56
1, 380623, Note_on_c, 0, 74, 42
1, 380631, Note_on_c, 0, 69, 50
1, 380632, Control_c, 0, 64, 64
1, 380647, Note_off_c, 0, 74, 63
1, 380647, Control_c, 0, 64, 68
1, 380652, Note_on_c, 0, 77, 56
1, 380662, Control_c, 0, 64, 72
1, 380677, Control_c, 0, 64, 76
1, 380691, Control_c, 0, 64, 80
1, 380706, Control_c, 0, 64, 83
1, 380721, Control_c, 0, 64, 85
1, 380729, Note_on_c, 0, 81, 53
1, 380736, Control_c, 0, 64, 86
1, 380751, Control_c, 0, 64, 88
1, 380765, Control_c, 0, 64, 89
1, 380780, Control_c, 0, 64, 90
1, 380795, Control_c, 0, 64, 91
1, 380825, Control_c, 0, 64, 91
1, 380839, Control_c, 0, 64, 92
1, 380840, Note_on_c, 0, 86, 75
1, 380854, Control_c, 0, 64, 93
1, 380869, Control_c, 0, 64, 93
1, 380929, Control_c, 0, 64, 94
1, 380932, Note_off_c, 0, 77, 36
1, 380973, Control_c, 0, 64, 94
1, 381129, Control_c, 0, 64, 95
1, 381221, Note_off_c, 0, 86, 60
1, 381278, Control_c, 0, 64, 95
1, 381303, Note_off_c, 0, 59, 54
1, 381377, Note_off_c, 0, 65, 37
1, 381403, Note_off_c, 0, 62, 55
1, 381507, Note_off_c, 0, 81, 0
1, 381545, Poly_aftertouch_c, 0, 81, 127
1, 381588, Note_on_c, 0, 86, 60
1, 381638, Note_off_c, 0, 69, 57
1, 381641, Note_off_c, 0, 86, 55
1, 381656, Poly_aftertouch_c, 0, 81, 0
1, 381893, Control_c, 0, 64, 95
1, 381908, Control_c, 0, 64, 93
1, 381923, Control_c, 0, 64, 88
1, 381937, Control_c, 0, 64, 80
1, 381947, Note_on_c, 0, 80, 63
1, 381952, Note_on_c, 0, 61, 42
1, 381952, Control_c, 0, 64, 70
1, 381953, Note_on_c, 0, 68, 54
1, 381966, Note_on_c, 0, 76, 50
1, 381967, Control_c, 0, 64, 61
1, 381971, Note_on_c, 0, 58, 41
1, 381981, Control_c, 0, 64, 32
1, 381996, Control_c, 0, 64, 0
1, 382041, Control_c, 0, 64, 28
1, 382056, Control_c, 0, 64, 53
1, 382071, Control_c, 0, 64, 63
1, 382085, Control_c, 0, 64, 69
1, 382100, Control_c, 0, 64, 73
1, 382115, Control_c, 0, 64, 78
1, 382130, Control_c, 0, 64, 82
1, 382145, Control_c, 0, 64, 86
1, 382157, Note_off_c, 0, 68, 61
1, 382160, Control_c, 0, 64, 89
1, 382173, Note_on_c, 0, 62, 48
1, 382175, Control_c, 0, 64, 90
1, 382190, Control_c, 0, 64, 91
1, 382204, Control_c, 0, 64, 92
1, 382219, Control_c, 0, 64, 93
1, 382234, Note_off_c, 0, 62, 57
1, 382234, Control_c, 0, 64, 94
1, 382248, Control_c, 0, 64, 94
1, 382263, Control_c, 0, 64, 95
1, 382278, Control_c, 0, 64, 95
1, 382293, Control_c, 0, 64, 96
1, 382333, Note_on_c, 0, 70, 53
1, 382367, Control_c, 0, 64, 96
1, 382479, Note_on_c, 0, 64, 40
1, 382664, Note_on_c, 0, 67, 44
1, 382683, Note_off_c, 0, 64, 40
1, 382702, Note_off_c, 0, 61, 55
1, 382721, Note_off_c, 0, 67, 57
1, 382744, Note_off_c, 0, 58, 51
1, 382749, Note_off_c, 0, 76, 28
1, 382846, Note_on_c, 0, 77, 42
1, 382983, Control_c, 0, 64, 96
1, 382997, Control_c, 0, 64, 95
1, 383012, Control_c, 0, 64, 93
1, 383027, Control_c, 0, 64, 89
1, 383042, Control_c, 0, 64, 82
1, 383057, Control_c, 0, 64, 74
1, 383069, Note_on_c, 0, 65, 34
1, 383072, Control_c, 0, 64, 67
1, 383072, Note_on_c, 0, 76, 47
1, 383081, Note_off_c, 0, 77, 57
1, 383083, Note_on_c, 0, 57, 23
1, 383083, Note_on_c, 0, 62, 34
1, 383085, Note_off_c, 0, 70, 35
1, 383086, Control_c, 0, 64, 59
1, 383101, Control_c, 0, 64, 44
1, 383116, Control_c, 0, 64, 14
1, 383131, Control_c, 0, 64, 0
1, 383254, Note_off_c, 0, 80, 57
1, 383278, Control_c, 0, 64, 16
1, 383293, Control_c, 0, 64, 63
1, 383308, Control_c, 0, 64, 68
1, 383331, Control_c, 0, 64, 72
1, 383346, Control_c, 0, 64, 76
1, 383360, Control_c, 0, 64, 79
1, 383375, Control_c, 0, 64, 82
1, 383390, Control_c, 0, 64, 84
1, 383404, Control_c, 0, 64, 85
1, 383419, Control_c, 0, 64, 86
1, 383434, Control_c, 0, 64, 87
1, 383465, Control_c, 0, 64, 87
1, 383480, Control_c, 0, 64, 88
1, 383539, Control_c, 0, 64, 88
1, 383627, Control_c, 0, 64, 88
1, 383642, Control_c, 0, 64, 85
1, 383657, Control_c, 0, 64, 79
1, 383672, Control_c, 0, 64, 70
1, 383684, Note_on_c, 0, 81, 49
1, 383687, Control_c, 0, 64, 62
1, 383695, Note_on_c, 0, 74, 37
1, 383701, Control_c, 0, 64, 31
1, 383708, Note_on_c, 0, 69, 38
1, 383711, Note_off_c, 0, 76, 38
1, 383716, Control_c, 0, 64, 0
1, 383835, Control_c, 0, 64, 57
1, 383850, Control_c, 0, 64, 67
1, 383865, Control_c, 0, 64, 72
1, 383880, Control_c, 0, 64, 77
1, 383894, Control_c, 0, 64, 82
1, 383907, Note_off_c, 0, 69, 66
1, 383909, Control_c, 0, 64, 86
1, 383924, Control_c, 0, 64, 88
1, 383939, Control_c, 0, 64, 90
1, 383952, Note_off_c, 0, 57, 54
1, 383954, Control_c, 0, 64, 91
1, 383966, Note_off_c, 0, 74, 63
1, 383968, Note_off_c, 0, 81, 54
1, 383969, Control_c, 0, 64, 93
1, 383984, Control_c, 0, 64, 94
1, 383999, Control_c, 0, 64, 96
1, 384006, Note_off_c, 0, 65, 43
1, 384014, Control_c, 0, 64, 96
1, 384017, Note_off_c, 0, 62, 50
1, 384028, Control_c, 0, 64, 97
1, 384043, Control_c, 0, 64, 97
1, 384080, Control_c, 0, 64, 98
1, 384259, Control_c, 0, 64, 96
1, 384273, Control_c, 0, 64, 91
1, 384288, Control_c, 0, 64, 81
1, 384303, Control_c, 0, 64, 71
1, 384309, Note_on_c, 0, 84, 61
1, 384318, Control_c, 0, 64, 61
1, 384321, Note_on_c, 0, 72, 47
1, 384333, Control_c, 0, 64, 38
1, 384337, Note_on_c, 0, 60, 30
1, 384340, Note_on_c, 0, 56, 37
1, 384340, Note_on_c, 0, 62, 37
1, 384345, Note_on_c, 0, 65, 28
1, 384348, Control_c, 0, 64, 0
1, 384481, Control_c, 0, 64, 31
1, 384496, Control_c, 0, 64, 56
1, 384511, Control_c, 0, 64, 64
1, 384525, Control_c, 0, 64, 68
1, 384540, Control_c, 0, 64, 71
1, 384555, Control_c, 0, 64, 75
1, 384569, Control_c, 0, 64, 81
1, 384584, Control_c, 0, 64, 85
1, 384599, Control_c, 0, 64, 87
1, 384614, Control_c, 0, 64, 89
1, 384629, Control_c, 0, 64, 90
1, 384640, Note_off_c, 0, 60, 59
1, 384644, Control_c, 0, 64, 91
1, 384658, Control_c, 0, 64, 93
1, 384670, Note_off_c, 0, 62, 61
1, 384673, Control_c, 0, 64, 94
1, 384688, Control_c, 0, 64, 95
1, 384695, Note_off_c, 0, 56, 53
1, 384703, Control_c, 0, 64, 95
1, 384747, Control_c, 0, 64, 96
1, 384777, Control_c, 0, 64, 96
1, 384874, Note_on_c, 0, 76, 43
1, 385105, Note_off_c, 0, 72, 53
1, 385126, Note_on_c, 0, 56, 40
1, 385164, Note_off_c, 0, 65, 42
1, 385373, Note_off_c, 0, 84, 48
1, 385379, Note_on_c, 0, 50, 39
1, 385379, Note_on_c, 0, 77, 44
1, 385490, Note_off_c, 0, 76, 63
1, 385652, Control_c, 0, 64, 97
1, 385686, Note_off_c, 0, 56, 59
1, 385696, Note_off_c, 0, 50, 50
1, 385770, Control_c, 0, 64, 97
1, 385829, Note_on_c, 0, 80, 61
1, 385837, Note_on_c, 0, 68, 50
1, 385934, Control_c, 0, 64, 98
1, 385979, Note_off_c, 0, 77, 57
1, 386083, Note_on_c, 0, 50, 52
1, 386363, Note_on_c, 0, 71, 48
1, 386385, Note_on_c, 0, 44, 60
1, 386485, Note_off_c, 0, 80, 61
1, 386534, Control_c, 0, 64, 98
1, 386582, Note_off_c, 0, 50, 62
1, 386608, Control_c, 0, 64, 99
1, 386622, Control_c, 0, 64, 99
1, 386637, Control_c, 0, 64, 100
1, 386653, Control_c, 0, 64, 100
1, 386668, Control_c, 0, 64, 101
1, 386683, Control_c, 0, 64, 101
1, 386698, Control_c, 0, 64, 102
1, 386713, Control_c, 0, 64, 103
1, 386727, Control_c, 0, 64, 105
1, 386742, Control_c, 0, 64, 106
1, 386757, Control_c, 0, 64, 107
1, 386772, Control_c, 0, 64, 108
1, 386787, Control_c, 0, 64, 110
1, 386801, Control_c, 0, 64, 111
1, 386816, Control_c, 0, 64, 112
1, 386831, Control_c, 0, 64, 113
1, 386846, Control_c, 0, 64, 113
1, 386854, Note_on_c, 0, 72, 53
1, 386861, Control_c, 0, 64, 114
1, 386891, Control_c, 0, 64, 114
1, 386906, Control_c, 0, 64, 115
1, 386950, Control_c, 0, 64, 115
1, 387021, Note_off_c, 0, 71, 54
1, 387022, Note_off_c, 0, 68, 58
1, 387081, Note_off_c, 0, 72, 65
1, 387108, Note_on_c, 0, 43, 52
1, 387179, Control_c, 0, 64, 115
1, 387224, Control_c, 0, 64, 114
1, 387239, Control_c, 0, 64, 114
1, 387253, Control_c, 0, 64, 113
1, 387268, Control_c, 0, 64, 112
1, 387283, Control_c, 0, 64, 111
1, 387287, Note_off_c, 0, 44, 27
1, 387298, Control_c, 0, 64, 110
1, 387313, Control_c, 0, 64, 109
1, 387327, Control_c, 0, 64, 109
1, 387343, Control_c, 0, 64, 107
1, 387358, Control_c, 0, 64, 105
1, 387372, Control_c, 0, 64, 102
1, 387387, Control_c, 0, 64, 96
1, 387402, Control_c, 0, 64, 89
1, 387417, Control_c, 0, 64, 81
1, 387430, Note_on_c, 0, 75, 60
1, 387432, Control_c, 0, 64, 72
1, 387435, Note_on_c, 0, 71, 49
1, 387439, Note_on_c, 0, 68, 45
1, 387440, Note_on_c, 0, 63, 45
1, 387448, Control_c, 0, 64, 64
1, 387451, Note_on_c, 0, 42, 52
1, 387463, Control_c, 0, 64, 45
1, 387466, Note_off_c, 0, 43, 61
1, 387477, Control_c, 0, 64, 0
1, 387684, Control_c, 0, 64, 28
1, 387699, Control_c, 0, 64, 65
1, 387714, Control_c, 0, 64, 69
1, 387729, Control_c, 0, 64, 73
1, 387743, Control_c, 0, 64, 76
1, 387758, Control_c, 0, 64, 79
1, 387773, Control_c, 0, 64, 83
1, 387788, Control_c, 0, 64, 86
1, 387803, Control_c, 0, 64, 88
1, 387825, Control_c, 0, 64, 89
1, 387840, Control_c, 0, 64, 89
1, 387855, Control_c, 0, 64, 90
1, 387869, Control_c, 0, 64, 91
1, 387884, Control_c, 0, 64, 91
1, 387899, Control_c, 0, 64, 92
1, 387914, Control_c, 0, 64, 92
1, 387929, Control_c, 0, 64, 93
1, 387944, Control_c, 0, 64, 93
1, 388047, Control_c, 0, 64, 91
1, 388056, Note_off_c, 0, 42, 51
1, 388062, Control_c, 0, 64, 86
1, 388077, Control_c, 0, 64, 78
1, 388090, Control_c, 0, 64, 69
1, 388093, Note_on_c, 0, 41, 48
1, 388105, Control_c, 0, 64, 60
1, 388120, Control_c, 0, 64, 30
1, 388135, Control_c, 0, 64, 0
1, 388193, Note_off_c, 0, 75, 35
1, 388208, Control_c, 0, 64, 32
1, 388223, Control_c, 0, 64, 56
1, 388239, Control_c, 0, 64, 64
1, 388254, Control_c, 0, 64, 69
1, 388269, Control_c, 0, 64, 73
1, 388284, Control_c, 0, 64, 77
1, 388298, Control_c, 0, 64, 82
1, 388313, Control_c, 0, 64, 85
1, 388328, Control_c, 0, 64, 87
1, 388343, Control_c, 0, 64, 89
1, 388358, Control_c, 0, 64, 91
1, 388372, Control_c, 0, 64, 92
1, 388387, Control_c, 0, 64, 93
1, 388392, Note_off_c, 0, 41, 56
1, 388402, Control_c, 0, 64, 93
1, 388417, Control_c, 0, 64, 94
1, 388432, Control_c, 0, 64, 95
1, 388447, Control_c, 0, 64, 96
1, 388462, Control_c, 0, 64, 96
1, 388506, Note_on_c, 0, 75, 53
1, 388506, Control_c, 0, 64, 97
1, 388521, Control_c, 0, 64, 97
1, 388551, Control_c, 0, 64, 98
1, 388581, Note_off_c, 0, 71, 56
1, 388584, Note_off_c, 0, 68, 62
1, 388589, Note_off_c, 0, 63, 37
1, 388853, Note_off_c, 0, 75, 36
1, 388898, Control_c, 0, 64, 97
1, 388913, Control_c, 0, 64, 94
1, 388928, Control_c, 0, 64, 87
1, 388942, Control_c, 0, 64, 76
1, 388952, Note_on_c, 0, 40, 53
1, 388953, Note_on_c, 0, 71, 45
1, 388954, Note_on_c, 0, 47, 44
1, 388955, Note_on_c, 0, 67, 43
1, 388956, Note_on_c, 0, 64, 40
1, 388957, Control_c, 0, 64, 66
1, 388972, Control_c, 0, 64, 0
1, 389107, Control_c, 0, 64, 61
1, 389121, Control_c, 0, 64, 68
1, 389136, Control_c, 0, 64, 72
1, 389151, Control_c, 0, 64, 78
1, 389166, Control_c, 0, 64, 85
1, 389181, Control_c, 0, 64, 88
1, 389195, Control_c, 0, 64, 90
1, 389210, Control_c, 0, 64, 91
1, 389221, Note_off_c, 0, 40, 57
1, 389225, Control_c, 0, 64, 93
1, 389236, Note_on_c, 0, 48, 51
1, 389240, Control_c, 0, 64, 94
1, 389255, Control_c, 0, 64, 96
1, 389262, Note_off_c, 0, 47, 40
1, 389269, Control_c, 0, 64, 97
1, 389284, Control_c, 0, 64, 98
1, 389299, Control_c, 0, 64, 98
1, 389302, Note_off_c, 0, 48, 65
1, 389336, Control_c, 0, 64, 99
1, 389351, Control_c, 0, 64, 99
1, 389389, Note_on_c, 0, 55, 52
1, 389439, Note_off_c, 0, 67, 37
1, 389470, Note_off_c, 0, 55, 61
1, 389523, Note_on_c, 0, 49, 56
1, 389656, Note_on_c, 0, 52, 65
1, 389775, Note_off_c, 0, 52, 62
1, 389784, Note_on_c, 0, 59, 66
1, 389833, Note_off_c, 0, 49, 19
1, 389951, Note_on_c, 0, 58, 63
1, 389988, Note_off_c, 0, 59, 52
1, 390277, Control_c, 0, 64, 99
1, 390292, Control_c, 0, 64, 98
1, 390307, Control_c, 0, 64, 96
1, 390311, Note_on_c, 0, 63, 66
1, 390322, Control_c, 0, 64, 94
1, 390337, Control_c, 0, 64, 90
1, 390352, Control_c, 0, 64, 85
1, 390366, Control_c, 0, 64, 80
1, 390375, Note_off_c, 0, 71, 45
1, 390381, Control_c, 0, 64, 76
1, 390396, Control_c, 0, 64, 73
1, 390411, Control_c, 0, 64, 73
1, 390432, Note_off_c, 0, 64, 53
1, 390441, Control_c, 0, 64, 73
1, 390456, Control_c, 0, 64, 75
1, 390470, Control_c, 0, 64, 77
1, 390474, Note_off_c, 0, 58, 56
1, 390485, Note_on_c, 0, 57, 59
1, 390485, Control_c, 0, 64, 80
1, 390500, Control_c, 0, 64, 82
1, 390509, Note_off_c, 0, 63, 64
1, 390514, Control_c, 0, 64, 83
1, 390529, Control_c, 0, 64, 83
1, 390544, Control_c, 0, 64, 84
1, 390559, Control_c, 0, 64, 84
1, 390574, Control_c, 0, 64, 85
1, 390679, Control_c, 0, 64, 83
1, 390691, Note_on_c, 0, 63, 69
1, 390693, Control_c, 0, 64, 78
1, 390695, Note_off_c, 0, 57, 60
1, 390704, Note_on_c, 0, 56, 58
1, 390708, Control_c, 0, 64, 71
1, 390723, Control_c, 0, 64, 62
1, 390738, Control_c, 0, 64, 34
1, 390753, Control_c, 0, 64, 0
1, 390849, Control_c, 0, 64, 47
1, 390864, Control_c, 0, 64, 63
1, 390879, Control_c, 0, 64, 67
1, 390893, Control_c, 0, 64, 69
1, 390908, Control_c, 0, 64, 71
1, 390923, Control_c, 0, 64, 73
1, 390938, Control_c, 0, 64, 75
1, 390953, Control_c, 0, 64, 78
1, 390967, Control_c, 0, 64, 81
1, 390982, Control_c, 0, 64, 83
1, 390997, Control_c, 0, 64, 83
1, 391012, Control_c, 0, 64, 85
1, 391019, Note_off_c, 0, 56, 65
1, 391026, Control_c, 0, 64, 87
1, 391041, Control_c, 0, 64, 89
1, 391056, Control_c, 0, 64, 91
1, 391071, Note_on_c, 0, 59, 54
1, 391071, Control_c, 0, 64, 93
1, 391086, Control_c, 0, 64, 95
1, 391100, Control_c, 0, 64, 98
1, 391115, Control_c, 0, 64, 101
1, 391130, Control_c, 0, 64, 105
1, 391145, Control_c, 0, 64, 107
1, 391160, Control_c, 0, 64, 109
1, 391174, Control_c, 0, 64, 112
1, 391189, Control_c, 0, 64, 113
1, 391204, Control_c, 0, 64, 114
1, 391234, Control_c, 0, 64, 114
1, 391276, Note_on_c, 0, 55, 59
1, 391291, Note_off_c, 0, 59, 62
1, 391299, Note_off_c, 0, 63, 64
1, 391367, Control_c, 0, 64, 115
1, 391382, Control_c, 0, 64, 115
1, 391397, Control_c, 0, 64, 117
1, 391408, Note_off_c, 0, 55, 59
1, 391411, Control_c, 0, 64, 121
1, 391426, Control_c, 0, 64, 127
1, 391442, Control_c, 0, 64, 127
1, 391516, Control_c, 0, 64, 127
1, 391520, Note_on_c, 0, 35, 57
1, 391531, Note_on_c, 0, 59, 59
1, 391531, Control_c, 0, 64, 115
1, 391534, Note_on_c, 0, 55, 55
1, 391546, Control_c, 0, 64, 103
1, 391568, Control_c, 0, 64, 92
1, 391583, Control_c, 0, 64, 81
1, 391598, Control_c, 0, 64, 70
1, 391612, Control_c, 0, 64, 53
1, 391627, Control_c, 0, 64, 0
1, 391672, Control_c, 0, 64, 52
1, 391687, Control_c, 0, 64, 64
1, 391702, Control_c, 0, 64, 68
1, 391710, Note_on_c, 0, 36, 56
1, 391716, Control_c, 0, 64, 72
1, 391731, Control_c, 0, 64, 77
1, 391746, Control_c, 0, 64, 83
1, 391761, Note_off_c, 0, 35, 59
1, 391761, Control_c, 0, 64, 86
1, 391791, Note_off_c, 0, 36, 63
1, 391828, Note_on_c, 0, 43, 54
1, 391922, Note_off_c, 0, 43, 61
1, 391934, Note_on_c, 0, 37, 63
1, 392012, Control_c, 0, 64, 86
1, 392027, Control_c, 0, 64, 85
1, 392057, Control_c, 0, 64, 85
1, 392071, Control_c, 0, 64, 84
1, 392074, Note_on_c, 0, 40, 69
1, 392086, Control_c, 0, 64, 84
1, 392101, Control_c, 0, 64, 83
1, 392116, Control_c, 0, 64, 83
1, 392131, Control_c, 0, 64, 82
1, 392146, Control_c, 0, 64, 82
1, 392160, Control_c, 0, 64, 81
1, 392175, Control_c, 0, 64, 80
1, 392190, Control_c, 0, 64, 79
1, 392191, Note_on_c, 0, 47, 67
1, 392205, Control_c, 0, 64, 78
1, 392220, Control_c, 0, 64, 77
1, 392235, Control_c, 0, 64, 77
1, 392247, Note_off_c, 0, 40, 58
1, 392250, Control_c, 0, 64, 76
1, 392265, Control_c, 0, 64, 75
1, 392280, Control_c, 0, 64, 75
1, 392295, Control_c, 0, 64, 74
1, 392317, Control_c, 0, 64, 74
1, 392332, Control_c, 0, 64, 73
1, 392346, Control_c, 0, 64, 73
1, 392361, Control_c, 0, 64, 72
1, 392376, Control_c, 0, 64, 72
1, 392390, Control_c, 0, 64, 71
1, 392399, Note_on_c, 0, 46, 66
1, 392405, Control_c, 0, 64, 70
1, 392420, Control_c, 0, 64, 68
1, 392435, Control_c, 0, 64, 66
1, 392450, Control_c, 0, 64, 64
1, 392465, Control_c, 0, 64, 60
1, 392470, Note_off_c, 0, 47, 57
1, 392480, Control_c, 0, 64, 45
1, 392483, Note_off_c, 0, 37, 50
1, 392495, Control_c, 0, 64, 0
1, 392776, Control_c, 0, 64, 58
1, 392784, Note_on_c, 0, 63, 63
1, 392790, Control_c, 0, 64, 64
1, 392805, Control_c, 0, 64, 66
1, 392820, Control_c, 0, 64, 69
1, 392835, Control_c, 0, 64, 72
1, 392840, Note_off_c, 0, 55, 54
1, 392850, Control_c, 0, 64, 77
1, 392864, Control_c, 0, 64, 81
1, 392879, Control_c, 0, 64, 84
1, 392894, Control_c, 0, 64, 85
1, 392909, Control_c, 0, 64, 87
1, 392924, Control_c, 0, 64, 88
1, 392926, Note_on_c, 0, 45, 71
1, 392939, Control_c, 0, 64, 90
1, 392954, Control_c, 0, 64, 92
1, 392961, Note_off_c, 0, 46, 56
1, 392965, Note_off_c, 0, 59, 57
1, 392969, Control_c, 0, 64, 93
1, 392977, Note_off_c, 0, 63, 60
1, 392983, Control_c, 0, 64, 94
1, 392998, Control_c, 0, 64, 94
1, 393028, Control_c, 0, 64, 95
1, 393125, Control_c, 0, 64, 94
1, 393140, Control_c, 0, 64, 91
1, 393150, Note_on_c, 0, 63, 80
1, 393154, Note_on_c, 0, 44, 72
1, 393155, Control_c, 0, 64, 85
1, 393160, Note_on_c, 0, 53, 63
1, 393169, Control_c, 0, 64, 76
1, 393184, Control_c, 0, 64, 65
1, 393199, Control_c, 0, 64, 45
1, 393213, Control_c, 0, 64, 0
1, 393224, Note_off_c, 0, 45, 47
1, 393392, Control_c, 0, 64, 14
1, 393407, Control_c, 0, 64, 55
1, 393422, Control_c, 0, 64, 59
1, 393437, Control_c, 0, 64, 61
1, 393452, Control_c, 0, 64, 64
1, 393467, Control_c, 0, 64, 69
1, 393481, Control_c, 0, 64, 74
1, 393496, Control_c, 0, 64, 78
1, 393511, Control_c, 0, 64, 81
1, 393526, Control_c, 0, 64, 82
1, 393540, Control_c, 0, 64, 83
1, 393543, Note_on_c, 0, 59, 75
1, 393555, Control_c, 0, 64, 85
1, 393570, Control_c, 0, 64, 88
1, 393585, Control_c, 0, 64, 91
1, 393600, Control_c, 0, 64, 95
1, 393614, Control_c, 0, 64, 99
1, 393629, Control_c, 0, 64, 103
1, 393642, Note_off_c, 0, 63, 64
1, 393644, Control_c, 0, 64, 108
1, 393659, Note_off_c, 0, 53, 62
1, 393659, Control_c, 0, 64, 114
1, 393674, Control_c, 0, 64, 120
1, 393675, Note_off_c, 0, 59, 62
1, 393688, Control_c, 0, 64, 127
1, 393881, Note_on_c, 0, 59, 75
1, 393888, Note_on_c, 0, 49, 74
1, 393896, Note_on_c, 0, 43, 74
1, 393905, Control_c, 0, 64, 121
1, 393919, Control_c, 0, 64, 106
1, 393920, Note_off_c, 0, 44, 63
1, 393934, Control_c, 0, 64, 95
1, 393949, Control_c, 0, 64, 83
1, 393963, Control_c, 0, 64, 71
1, 393978, Control_c, 0, 64, 46
1, 393993, Control_c, 0, 64, 0
1, 394081, Control_c, 0, 64, 47
1, 394096, Control_c, 0, 64, 62
1, 394110, Control_c, 0, 64, 66
1, 394125, Control_c, 0, 64, 70
1, 394140, Control_c, 0, 64, 75
1, 394155, Control_c, 0, 64, 80
1, 394170, Control_c, 0, 64, 86
1, 394185, Control_c, 0, 64, 90
1, 394200, Control_c, 0, 64, 94
1, 394214, Note_on_c, 0, 55, 75
1, 394215, Control_c, 0, 64, 97
1, 394230, Control_c, 0, 64, 101
1, 394244, Control_c, 0, 64, 107
1, 394259, Control_c, 0, 64, 115
1, 394274, Control_c, 0, 64, 121
1, 394289, Control_c, 0, 64, 127
1, 394301, Note_off_c, 0, 59, 59
1, 394311, Note_off_c, 0, 49, 61
1, 394375, Note_off_c, 0, 55, 64
1, 394549, Note_off_c, 0, 43, 60
1, 394549, Note_on_c, 0, 55, 80
1, 394561, Note_on_c, 0, 42, 72
1, 394562, Note_on_c, 0, 48, 72
1, 394577, Control_c, 0, 64, 122
1, 394592, Control_c, 0, 64, 110
1, 394607, Control_c, 0, 64, 97
1, 394622, Control_c, 0, 64, 86
1, 394638, Control_c, 0, 64, 73
1, 394653, Control_c, 0, 64, 52
1, 394667, Control_c, 0, 64, 0
1, 394756, Control_c, 0, 64, 54
1, 394771, Control_c, 0, 64, 70
1, 394785, Control_c, 0, 64, 75
1, 394800, Control_c, 0, 64, 82
1, 394815, Control_c, 0, 64, 85
1, 394830, Control_c, 0, 64, 88
1, 394833, Note_off_c, 0, 42, 63
1, 394845, Control_c, 0, 64, 92
1, 394859, Control_c, 0, 64, 96
1, 394874, Control_c, 0, 64, 98
1, 394889, Control_c, 0, 64, 99
1, 394904, Control_c, 0, 64, 100
1, 394919, Control_c, 0, 64, 101
1, 394920, Note_on_c, 0, 51, 84
1, 394933, Control_c, 0, 64, 102
1, 394948, Control_c, 0, 64, 103
1, 394963, Control_c, 0, 64, 103
1, 394975, Note_off_c, 0, 55, 64
1, 395008, Control_c, 0, 64, 104
1, 395009, Note_off_c, 0, 48, 60
1, 395023, Control_c, 0, 64, 105
1, 395037, Control_c, 0, 64, 107
1, 395052, Control_c, 0, 64, 107
1, 395067, Control_c, 0, 64, 108
1, 395082, Control_c, 0, 64, 108
1, 395097, Control_c, 0, 64, 111
1, 395112, Control_c, 0, 64, 115
1, 395126, Control_c, 0, 64, 117
1, 395141, Control_c, 0, 64, 119
1, 395156, Control_c, 0, 64, 120
1, 395171, Control_c, 0, 64, 121
1, 395185, Control_c, 0, 64, 122
1, 395200, Control_c, 0, 64, 124
1, 395215, Control_c, 0, 64, 126
1, 395230, Control_c, 0, 64, 127
1, 395344, Note_on_c, 0, 43, 74
1, 395345, Note_on_c, 0, 54, 90
1, 395346, Note_on_c, 0, 47, 76
1, 395356, Control_c, 0, 64, 112
1, 395371, Control_c, 0, 64, 98
1, 395385, Control_c, 0, 64, 81
1, 395400, Control_c, 0, 64, 65
1, 395415, Control_c, 0, 64, 0
1, 395435, Note_off_c, 0, 51, 59
1, 395594, Control_c, 0, 64, 66
1, 395608, Control_c, 0, 64, 77
1, 395623, Control_c, 0, 64, 90
1, 395638, Control_c, 0, 64, 103
1, 395653, Control_c, 0, 64, 109
1, 395668, Control_c, 0, 64, 115
1, 395674, Note_off_c, 0, 54, 66
1, 395682, Control_c, 0, 64, 122
1, 395697, Control_c, 0, 64, 127
1, 395881, Note_on_c, 0, 48, 88
1, 396121, Note_on_c, 0, 55, 96
1, 396126, Note_on_c, 0, 54, 94
1, 396319, Note_off_c, 0, 43, 58
1, 396349, Note_off_c, 0, 47, 33
1, 396380, Note_off_c, 0, 48, 42
1, 396432, Note_off_c, 0, 54, 62
1, 396646, Note_on_c, 0, 60, 86
1, 396663, Note_off_c, 0, 55, 65
1, 396731, Note_off_c, 0, 60, 65
1, 396884, Note_on_c, 0, 67, 95
1, 396890, Note_on_c, 0, 66, 93
1, 397246, Note_on_c, 0, 72, 91
1, 397294, Note_off_c, 0, 66, 61
1, 397443, Note_on_c, 0, 66, 87
1, 397445, Note_off_c, 0, 67, 53
1, 397462, Note_off_c, 0, 72, 68
1, 397721, Control_c, 0, 64, 125
1, 397736, Control_c, 0, 64, 117
1, 397751, Control_c, 0, 64, 108
1, 397766, Control_c, 0, 64, 98
1, 397774, Note_on_c, 0, 78, 93
1, 397780, Control_c, 0, 64, 89
1, 397786, Note_on_c, 0, 67, 68
1, 397791, Note_on_c, 0, 71, 70
1, 397795, Control_c, 0, 64, 81
1, 397796, Note_on_c, 0, 61, 67
1, 397810, Control_c, 0, 64, 74
1, 397826, Control_c, 0, 64, 69
1, 397841, Control_c, 0, 64, 65
1, 397856, Control_c, 0, 64, 61
1, 397860, Note_off_c, 0, 66, 55
1, 397871, Control_c, 0, 64, 57
1, 397885, Control_c, 0, 64, 51
1, 397900, Control_c, 0, 64, 39
1, 397915, Control_c, 0, 64, 0
1, 398221, Note_on_c, 0, 79, 82
1, 398226, Control_c, 0, 64, 64
1, 398241, Control_c, 0, 64, 70
1, 398256, Control_c, 0, 64, 73
1, 398271, Control_c, 0, 64, 78
1, 398285, Control_c, 0, 64, 86
1, 398308, Control_c, 0, 64, 94
1, 398317, Note_off_c, 0, 71, 62
1, 398319, Note_off_c, 0, 78, 58
1, 398322, Control_c, 0, 64, 97
1, 398337, Control_c, 0, 64, 98
1, 398352, Control_c, 0, 64, 102
1, 398367, Control_c, 0, 64, 108
1, 398382, Control_c, 0, 64, 114
1, 398397, Control_c, 0, 64, 118
1, 398411, Control_c, 0, 64, 121
1, 398426, Control_c, 0, 64, 123
1, 398427, Note_off_c, 0, 67, 59
1, 398431, Note_off_c, 0, 79, 57
1, 398441, Control_c, 0, 64, 127
1, 398488, Note_off_c, 0, 61, 59
1, 398514, Note_on_c, 0, 79, 87
1, 398517, Note_on_c, 0, 67, 82
1, 398518, Note_on_c, 0, 70, 76
1, 398525, Note_on_c, 0, 60, 68
1, 398529, Control_c, 0, 64, 124
1, 398544, Control_c, 0, 64, 105
1, 398559, Control_c, 0, 64, 89
1, 398573, Control_c, 0, 64, 73
1, 398588, Control_c, 0, 64, 33
1, 398603, Control_c, 0, 64, 0
1, 398648, Control_c, 0, 64, 29
1, 398663, Control_c, 0, 64, 65
1, 398678, Control_c, 0, 64, 73
1, 398693, Control_c, 0, 64, 82
1, 398707, Control_c, 0, 64, 91
1, 398722, Control_c, 0, 64, 99
1, 398737, Control_c, 0, 64, 103
1, 398752, Control_c, 0, 64, 108
1, 398752, Control_c, 0, 67, 120
1, 398767, Control_c, 0, 64, 114
1, 398767, Control_c, 0, 67, 105
1, 398782, Control_c, 0, 64, 123
1, 398782, Control_c, 0, 67, 93
1, 398790, Note_on_c, 0, 75, 89
1, 398796, Control_c, 0, 64, 127
1, 398796, Control_c, 0, 67, 83
1, 398811, Control_c, 0, 67, 73
1, 398826, Control_c, 0, 67, 55
1, 398841, Control_c, 0, 67, 36
1, 398856, Control_c, 0, 67, 17
1, 398863, Note_off_c, 0, 79, 59
1, 398871, Control_c, 0, 67, 0
1, 398913, Note_off_c, 0, 67, 54
1, 398968, Note_off_c, 0, 75, 60
1, 399014, Note_off_c, 0, 60, 61
1, 399062, Note_on_c, 0, 75, 95
1, 399065, Note_on_c, 0, 59, 83
1, 399066, Note_on_c, 0, 69, 78
1, 399070, Note_on_c, 0, 67, 81
1, 399071, Control_c, 0, 64, 104
1, 399086, Control_c, 0, 64, 79
1, 399089, Note_off_c, 0, 70, 62
1, 399100, Control_c, 0, 64, 50
1, 399115, Control_c, 0, 64, 0
1, 399145, Control_c, 0, 64, 27
1, 399159, Control_c, 0, 64, 70
1, 399174, Control_c, 0, 64, 85
1, 399189, Control_c, 0, 64, 100
1, 399204, Control_c, 0, 64, 112
1, 399219, Control_c, 0, 64, 117
1, 399233, Control_c, 0, 64, 125
1, 399244, Note_off_c, 0, 59, 63
1, 399248, Control_c, 0, 64, 127
1, 399318, Note_off_c, 0, 69, 57
1, 399324, Note_off_c, 0, 67, 61
1, 399333, Note_off_c, 0, 75, 65
1, 399345, Note_on_c, 0, 71, 86
1, 399456, Control_c, 0, 64, 101
1, 399465, Note_on_c, 0, 58, 94
1, 399471, Control_c, 0, 64, 71
1, 399486, Control_c, 0, 64, 0
1, 399491, Note_off_c, 0, 71, 53
1, 399560, Control_c, 0, 64, 74
1, 399574, Control_c, 0, 64, 101
1, 399589, Control_c, 0, 64, 127
1, 399604, Note_off_c, 0, 58, 66
1, 399752, Note_on_c, 0, 34, 75
1, 399752, Note_on_c, 0, 74, 90
1, 399755, Note_on_c, 0, 67, 81
1, 399759, Note_on_c, 0, 64, 80
1, 400140, Note_off_c, 0, 64, 57
1, 400174, Note_on_c, 0, 40, 80
1, 400212, Note_off_c, 0, 34, 37
1, 400215, Note_off_c, 0, 40, 65
1, 400335, Note_on_c, 0, 45, 75
1, 400335, Note_on_c, 0, 46, 86
1, 400597, Note_on_c, 0, 73, 94
1, 400635, Note_on_c, 0, 72, 79
1, 400639, Note_off_c, 0, 67, 60
1, 400676, Note_off_c, 0, 74, 58
1, 400701, Note_off_c, 0, 45, 63
1, 400705, Note_on_c, 0, 52, 72
1, 400706, Note_off_c, 0, 46, 62
1, 400735, Note_off_c, 0, 52, 68
1, 400746, Note_off_c, 0, 72, 56
1, 400771, Note_off_c, 0, 73, 58
1, 400836, Note_on_c, 0, 72, 98
1, 400838, Note_on_c, 0, 67, 84
1, 400840, Note_on_c, 0, 63, 91
1, 400841, Note_on_c, 0, 57, 76
1, 400855, Note_on_c, 0, 58, 68
1, 400949, Note_off_c, 0, 67, 62
1, 401002, Note_off_c, 0, 63, 63
1, 401074, Note_on_c, 0, 66, 101
1, 401108, Note_off_c, 0, 72, 57
1, 401148, Note_off_c, 0, 66, 61
1, 401193, Note_off_c, 0, 58, 51
1, 401195, Note_on_c, 0, 63, 90
1, 401208, Note_off_c, 0, 57, 30
1, 401324, Note_off_c, 0, 63, 63
1, 401400, Note_on_c, 0, 73, 100
1, 401405, Note_on_c, 0, 62, 89
1, 401405, Note_on_c, 0, 69, 94
1, 401405, Control_c, 0, 64, 108
1, 401408, Note_on_c, 0, 65, 86
1, 401420, Control_c, 0, 64, 79
1, 401435, Control_c, 0, 64, 0
1, 401559, Note_off_c, 0, 69, 68
1, 401568, Control_c, 0, 64, 58
1, 401583, Control_c, 0, 64, 92
1, 401598, Control_c, 0, 64, 127
1, 401816, Note_on_c, 0, 35, 77
1, 401930, Note_off_c, 0, 65, 62
1, 401944, Note_on_c, 0, 41, 85
1, 402031, Note_off_c, 0, 35, 62
1, 402075, Note_off_c, 0, 41, 66
1, 402183, Note_off_c, 0, 62, 55
1, 402194, Note_on_c, 0, 74, 92
1, 402204, Note_off_c, 0, 73, 62
1, 402301, Note_on_c, 0, 47, 69
1, 402308, Note_on_c, 0, 48, 68
1, 402438, Note_on_c, 0, 70, 101
1, 402442, Note_on_c, 0, 54, 79
1, 402445, Note_on_c, 0, 62, 83
1, 402469, Note_off_c, 0, 74, 63
1, 402510, Note_off_c, 0, 47, 63
1, 402532, Note_off_c, 0, 48, 66
1, 402656, Note_off_c, 0, 62, 58
1, 402698, Note_on_c, 0, 66, 95
1, 402783, Note_off_c, 0, 66, 65
1, 402836, Note_off_c, 0, 70, 57
1, 402839, Note_on_c, 0, 60, 84
1, 402853, Note_off_c, 0, 54, 60
1, 402899, Note_on_c, 0, 68, 21
1, 402940, Note_off_c, 0, 68, 54
1, 403108, Note_on_c, 0, 77, 93
1, 403111, Control_c, 0, 64, 123
1, 403113, Note_on_c, 0, 61, 67
1, 403115, Note_on_c, 0, 69, 78
1, 403116, Note_on_c, 0, 65, 77
1, 403126, Control_c, 0, 64, 105
1, 403141, Control_c, 0, 64, 93
1, 403156, Control_c, 0, 64, 81
1, 403171, Control_c, 0, 64, 72
1, 403186, Control_c, 0, 64, 63
1, 403200, Control_c, 0, 64, 42
1, 403215, Control_c, 0, 64, 0
1, 403234, Note_off_c, 0, 60, 50
1, 403549, Control_c, 0, 64, 42
1, 403564, Control_c, 0, 64, 53
1, 403579, Control_c, 0, 64, 56
1, 403594, Control_c, 0, 64, 59
1, 403606, Note_on_c, 0, 76, 70
1, 403609, Control_c, 0, 64, 65
1, 403623, Control_c, 0, 64, 70
1, 403638, Control_c, 0, 64, 74
1, 403653, Note_off_c, 0, 77, 51
1, 403653, Control_c, 0, 64, 79
1, 403668, Control_c, 0, 64, 82
1, 403683, Control_c, 0, 64, 84
1, 403697, Control_c, 0, 64, 87
1, 403712, Control_c, 0, 64, 90
1, 403720, Note_off_c, 0, 76, 63
1, 403727, Control_c, 0, 64, 94
1, 403742, Control_c, 0, 64, 100
1, 403757, Control_c, 0, 64, 105
1, 403772, Control_c, 0, 64, 110
1, 403786, Control_c, 0, 64, 113
1, 403801, Control_c, 0, 64, 117
1, 403814, Note_on_c, 0, 76, 74
1, 403816, Control_c, 0, 64, 123
1, 403831, Control_c, 0, 64, 127
1, 403839, Note_off_c, 0, 69, 64
1, 403859, Note_off_c, 0, 65, 60
1, 404067, Note_on_c, 0, 70, 75
1, 404068, Note_on_c, 0, 66, 68
1, 404186, Note_on_c, 0, 62, 68
1, 404236, Note_off_c, 0, 66, 65
1, 404243, Note_off_c, 0, 62, 60
1, 404272, Note_off_c, 0, 70, 57
1, 404348, Note_on_c, 0, 71, 82
1, 404349, Note_on_c, 0, 62, 81
1, 404350, Note_on_c, 0, 67, 77
1, 404372, Control_c, 0, 64, 103
1, 404384, Note_off_c, 0, 61, 62
1, 404385, Note_off_c, 0, 76, 60
1, 404387, Control_c, 0, 64, 88
1, 404402, Control_c, 0, 64, 72
1, 404417, Control_c, 0, 64, 0
1, 404461, Control_c, 0, 64, 52
1, 404476, Control_c, 0, 64, 70
1, 404491, Control_c, 0, 64, 78
1, 404506, Control_c, 0, 64, 89
1, 404520, Control_c, 0, 64, 98
1, 404535, Control_c, 0, 64, 109
1, 404550, Control_c, 0, 64, 127
1, 404595, Note_on_c, 0, 77, 87
1, 404654, Note_off_c, 0, 71, 58
1, 404683, Note_off_c, 0, 67, 60
1, 404708, Note_on_c, 0, 76, 85
1, 404808, Note_off_c, 0, 77, 55
1, 404812, Note_off_c, 0, 62, 58
1, 404813, Note_off_c, 0, 76, 61
1, 404837, Note_on_c, 0, 70, 89
1, 404839, Note_on_c, 0, 75, 92
1, 404839, Note_on_c, 0, 66, 88
1, 404841, Note_on_c, 0, 63, 89
1, 404845, Control_c, 0, 64, 99
1, 404860, Control_c, 0, 64, 77
1, 404875, Control_c, 0, 64, 0
1, 404934, Control_c, 0, 64, 39
1, 404949, Control_c, 0, 64, 73
1, 404964, Control_c, 0, 64, 88
1, 404979, Control_c, 0, 64, 112
1, 404994, Control_c, 0, 64, 127
1, 404995, Note_off_c, 0, 70, 60
1, 405047, Note_off_c, 0, 66, 64
1, 405099, Note_on_c, 0, 70, 94
1, 405145, Note_off_c, 0, 70, 65
1, 405161, Note_off_c, 0, 75, 60
1, 405302, Note_off_c, 0, 63, 63
1, 405323, Note_on_c, 0, 81, 100
1, 405325, Note_on_c, 0, 74, 97
1, 405328, Note_on_c, 0, 75, 95
1, 405328, Control_c, 0, 64, 110
1, 405334, Note_on_c, 0, 59, 87
1, 405342, Control_c, 0, 64, 84
1, 405357, Control_c, 0, 64, 59
1, 405372, Control_c, 0, 64, 0
1, 405432, Control_c, 0, 64, 67
1, 405447, Control_c, 0, 64, 81
1, 405461, Control_c, 0, 64, 95
1, 405476, Control_c, 0, 64, 105
1, 405491, Control_c, 0, 64, 106
1, 405506, Control_c, 0, 64, 107
1, 405520, Control_c, 0, 64, 107
1, 405535, Control_c, 0, 64, 108
1, 405550, Control_c, 0, 64, 109
1, 405559, Note_on_c, 0, 54, 84
1, 405565, Control_c, 0, 64, 109
1, 405570, Note_off_c, 0, 59, 60
1, 405633, Note_off_c, 0, 74, 59
1, 405670, Note_on_c, 0, 73, 83
1, 405751, Note_off_c, 0, 73, 59
1, 405793, Note_off_c, 0, 81, 47
1, 405855, Control_c, 0, 64, 107
1, 405868, Note_on_c, 0, 73, 81
1, 405870, Note_on_c, 0, 66, 101
1, 405870, Control_c, 0, 64, 103
1, 405878, Note_off_c, 0, 75, 65
1, 405885, Control_c, 0, 64, 99
1, 405899, Control_c, 0, 64, 96
1, 405910, Note_off_c, 0, 54, 61
1, 405914, Control_c, 0, 64, 95
1, 406106, Control_c, 0, 64, 96
1, 406120, Note_on_c, 0, 82, 86
1, 406121, Control_c, 0, 64, 96
1, 406144, Note_off_c, 0, 73, 61
1, 406150, Control_c, 0, 64, 97
1, 406165, Control_c, 0, 64, 97
1, 406180, Control_c, 0, 64, 98
1, 406195, Control_c, 0, 64, 98
1, 406200, Note_off_c, 0, 82, 64
1, 406210, Control_c, 0, 64, 99
1, 406225, Control_c, 0, 64, 100
1, 406240, Note_on_c, 0, 81, 92
1, 406240, Control_c, 0, 64, 100
1, 406255, Control_c, 0, 64, 101
1, 406270, Control_c, 0, 64, 103
1, 406274, Note_off_c, 0, 66, 58
1, 406284, Control_c, 0, 64, 105
1, 406299, Control_c, 0, 64, 106
1, 406314, Control_c, 0, 64, 107
1, 406371, Note_on_c, 0, 80, 99
1, 406373, Control_c, 0, 64, 105
1, 406376, Note_on_c, 0, 65, 92
1, 406377, Note_on_c, 0, 71, 85
1, 406377, Note_on_c, 0, 75, 90
1, 406388, Control_c, 0, 64, 92
1, 406401, Note_off_c, 0, 81, 60
1, 406403, Control_c, 0, 64, 73
1, 406417, Control_c, 0, 64, 0
1, 406506, Control_c, 0, 64, 66
1, 406520, Note_off_c, 0, 75, 62
1, 406521, Control_c, 0, 64, 77
1, 406543, Control_c, 0, 64, 88
1, 406558, Control_c, 0, 64, 97
1, 406573, Control_c, 0, 64, 98
1, 406588, Control_c, 0, 64, 99
1, 406590, Note_off_c, 0, 71, 59
1, 406603, Control_c, 0, 64, 101
1, 406618, Control_c, 0, 64, 104
1, 406633, Note_on_c, 0, 75, 93
1, 406633, Control_c, 0, 64, 108
1, 406648, Control_c, 0, 64, 112
1, 406663, Control_c, 0, 64, 121
1, 406678, Control_c, 0, 64, 127
1, 406678, Note_off_c, 0, 75, 66
1, 406688, Note_off_c, 0, 80, 63
1, 406824, Note_off_c, 0, 65, 64
1, 406841, Control_c, 0, 64, 118
1, 406849, Note_on_c, 0, 79, 102
1, 406849, Note_on_c, 0, 86, 102
1, 406854, Note_on_c, 0, 64, 95
1, 406854, Note_on_c, 0, 80, 99
1, 406856, Control_c, 0, 64, 86
1, 406871, Control_c, 0, 64, 63
1, 406886, Control_c, 0, 64, 0
1, 406960, Control_c, 0, 64, 70
1, 406974, Control_c, 0, 64, 85
1, 406989, Control_c, 0, 64, 100
1, 407004, Control_c, 0, 64, 107
1, 407034, Control_c, 0, 64, 108
1, 407048, Control_c, 0, 64, 109
1, 407063, Control_c, 0, 64, 112
1, 407078, Control_c, 0, 64, 114
1, 407089, Note_off_c, 0, 79, 56
1, 407091, Note_on_c, 0, 59, 96
1, 407092, Control_c, 0, 64, 117
1, 407107, Control_c, 0, 64, 123
1, 407122, Control_c, 0, 64, 127
1, 407203, Note_on_c, 0, 78, 91
1, 407299, Note_off_c, 0, 78, 58
1, 407341, Note_off_c, 0, 86, 32
1, 407355, Note_off_c, 0, 59, 54
1, 407355, Note_off_c, 0, 64, 61
1, 407370, Note_on_c, 0, 71, 95
1, 407371, Note_off_c, 0, 80, 68
1, 407374, Note_on_c, 0, 78, 105
1, 407576, Note_off_c, 0, 78, 60
1, 407598, Note_on_c, 0, 87, 88
1, 407668, Note_off_c, 0, 87, 63
1, 407711, Note_on_c, 0, 86, 94
1, 407764, Note_off_c, 0, 86, 65
1, 407810, Note_off_c, 0, 71, 57
1, 407827, Control_c, 0, 64, 110
1, 407838, Note_on_c, 0, 70, 97
1, 407840, Note_on_c, 0, 86, 101
1, 407842, Note_on_c, 0, 79, 105
1, 407842, Control_c, 0, 64, 84
1, 407857, Control_c, 0, 64, 58
1, 407871, Control_c, 0, 64, 0
1, 407945, Control_c, 0, 64, 57
1, 407960, Control_c, 0, 64, 74
1, 407975, Control_c, 0, 64, 86
1, 407990, Control_c, 0, 64, 99
1, 408004, Control_c, 0, 64, 101
1, 408029, Note_off_c, 0, 79, 57
1, 408042, Control_c, 0, 64, 102
1, 408057, Control_c, 0, 64, 104
1, 408062, Note_on_c, 0, 74, 88
1, 408071, Control_c, 0, 64, 108
1, 408086, Control_c, 0, 64, 112
1, 408101, Control_c, 0, 64, 116
1, 408104, Note_off_c, 0, 70, 53
1, 408105, Note_off_c, 0, 86, 59
1, 408115, Control_c, 0, 64, 118
1, 408130, Control_c, 0, 64, 120
1, 408145, Control_c, 0, 64, 123
1, 408160, Control_c, 0, 64, 127
1, 408162, Note_off_c, 0, 74, 62
1, 408176, Note_on_c, 0, 85, 94
1, 408237, Note_off_c, 0, 85, 65
1, 408294, Control_c, 0, 64, 109
1, 408297, Note_on_c, 0, 67, 102
1, 408300, Note_on_c, 0, 85, 102
1, 408309, Control_c, 0, 64, 84
1, 408324, Control_c, 0, 64, 60
1, 408338, Control_c, 0, 64, 0
1, 408383, Control_c, 0, 64, 55
1, 408398, Control_c, 0, 64, 76
1, 408413, Control_c, 0, 64, 93
1, 408428, Control_c, 0, 64, 112
1, 408443, Control_c, 0, 64, 119
1, 408472, Control_c, 0, 64, 120
1, 408487, Control_c, 0, 64, 122
1, 408502, Control_c, 0, 64, 123
1, 408517, Control_c, 0, 64, 124
1, 408520, Note_on_c, 0, 72, 93
1, 408532, Control_c, 0, 64, 126
1, 408546, Control_c, 0, 64, 127
1, 408574, Note_off_c, 0, 85, 61
1, 408608, Note_off_c, 0, 67, 56
1, 408630, Note_on_c, 0, 83, 97
1, 408675, Note_off_c, 0, 83, 63
1, 408723, Note_off_c, 0, 72, 58
1, 408750, Note_on_c, 0, 78, 102
1, 408753, Note_on_c, 0, 83, 107
1, 408802, Note_off_c, 0, 78, 66
1, 409051, Note_off_c, 0, 83, 53
1, 409091, Note_on_c, 0, 81, 97
1, 409130, Note_off_c, 0, 81, 66
1, 409206, Control_c, 0, 64, 96
1, 409220, Note_on_c, 0, 81, 104
1, 409221, Control_c, 0, 64, 72
1, 409222, Note_on_c, 0, 67, 101
1, 409222, Note_on_c, 0, 71, 92
1, 409222, Note_on_c, 0, 77, 99
1, 409223, Note_on_c, 0, 78, 99
1, 409230, Note_on_c, 0, 61, 90
1, 409235, Control_c, 0, 64, 0
1, 409309, Control_c, 0, 64, 58
1, 409324, Control_c, 0, 64, 75
1, 409339, Control_c, 0, 64, 92
1, 409354, Control_c, 0, 64, 103
1, 409368, Control_c, 0, 64, 106
1, 409380, Note_off_c, 0, 77, 59
1, 409383, Control_c, 0, 64, 107
1, 409398, Control_c, 0, 64, 108
1, 409413, Control_c, 0, 64, 109
1, 409428, Control_c, 0, 64, 110
1, 409429, Note_off_c, 0, 81, 57
1, 409459, Note_off_c, 0, 78, 64
1, 409486, Control_c, 0, 64, 111
1, 409495, Note_on_c, 0, 79, 102
1, 409497, Note_on_c, 0, 75, 103
1, 409502, Note_off_c, 0, 71, 55
1, 409516, Control_c, 0, 64, 111
1, 409539, Control_c, 0, 64, 112
1, 409554, Control_c, 0, 64, 113
1, 409568, Control_c, 0, 64, 114
1, 409583, Control_c, 0, 64, 116
1, 409598, Control_c, 0, 64, 118
1, 409601, Note_off_c, 0, 67, 57
1, 409602, Note_off_c, 0, 61, 57
1, 409613, Control_c, 0, 64, 123
1, 409628, Control_c, 0, 64, 127
1, 409656, Note_off_c, 0, 79, 57
1, 409683, Note_off_c, 0, 75, 61
1, 409731, Control_c, 0, 64, 105
1, 409736, Note_on_c, 0, 79, 106
1, 409738, Note_on_c, 0, 70, 104
1, 409742, Note_on_c, 0, 75, 94
1, 409742, Note_on_c, 0, 67, 94
1, 409744, Note_on_c, 0, 60, 87
1, 409746, Control_c, 0, 64, 86
1, 409760, Control_c, 0, 64, 69
1, 409775, Control_c, 0, 64, 48
1, 409790, Control_c, 0, 64, 42
1, 409807, Control_c, 0, 64, 63
1, 409822, Control_c, 0, 64, 73
1, 409837, Control_c, 0, 64, 82
1, 409852, Control_c, 0, 64, 86
1, 409866, Control_c, 0, 64, 87
1, 409881, Control_c, 0, 64, 91
1, 409890, Note_off_c, 0, 75, 60
1, 409896, Control_c, 0, 64, 97
1, 409910, Control_c, 0, 64, 105
1, 409925, Note_off_c, 0, 70, 55
1, 409925, Control_c, 0, 64, 110
1, 409940, Control_c, 0, 64, 111
1, 409955, Control_c, 0, 64, 114
1, 409959, Note_off_c, 0, 67, 55
1, 409961, Note_off_c, 0, 79, 58
1, 409970, Control_c, 0, 64, 121
1, 409975, Note_on_c, 0, 71, 101
1, 409977, Note_on_c, 0, 75, 99
1, 409980, Note_off_c, 0, 60, 55
1, 409984, Control_c, 0, 64, 127
1, 410009, Poly_aftertouch_c, 0, 79, 127
1, 410031, Poly_aftertouch_c, 0, 79, 0
1, 410082, Note_off_c, 0, 71, 52
1, 410087, Note_off_c, 0, 75, 57
1, 410177, Control_c, 0, 64, 93
1, 410192, Control_c, 0, 64, 68
1, 410205, Note_on_c, 0, 59, 94
1, 410207, Note_on_c, 0, 69, 100
1, 410207, Control_c, 0, 64, 0
1, 410214, Note_on_c, 0, 75, 106
1, 410215, Note_on_c, 0, 71, 97
1, 410252, Control_c, 0, 64, 68
1, 410266, Control_c, 0, 64, 88
1, 410269, Note_off_c, 0, 71, 61
1, 410288, Control_c, 0, 64, 124
1, 410299, Note_off_c, 0, 75, 70
1, 410303, Control_c, 0, 64, 127
1, 410340, Note_off_c, 0, 69, 60
1, 410488, Note_on_c, 0, 71, 89
1, 410490, Note_on_c, 0, 67, 79
1, 410491, Note_on_c, 0, 90, 110
1, 410492, Note_on_c, 0, 78, 111
1, 410500, Note_off_c, 0, 59, 58
1, 410528, Note_off_c, 0, 67, 62
1, 410544, Note_off_c, 0, 71, 61
1, 410563, Note_off_c, 0, 90, 67
1, 410580, Note_off_c, 0, 78, 61
1, 410636, Note_on_c, 0, 89, 99
1, 410638, Note_on_c, 0, 77, 106
1, 410670, Note_on_c, 0, 90, 58
1, 410693, Note_off_c, 0, 90, 39
1, 410734, Note_off_c, 0, 89, 63
1, 410736, Note_off_c, 0, 77, 54
1, 410807, Control_c, 0, 64, 105
1, 410822, Control_c, 0, 64, 73
1, 410833, Note_on_c, 0, 64, 89
1, 410833, Note_on_c, 0, 74, 97
1, 410833, Note_on_c, 0, 77, 108
1, 410833, Note_on_c, 0, 89, 112
1, 410835, Note_on_c, 0, 68, 94
1, 410837, Control_c, 0, 64, 0
1, 410876, Note_off_c, 0, 74, 68
1, 410881, Control_c, 0, 64, 63
1, 410896, Control_c, 0, 64, 86
1, 410898, Note_off_c, 0, 68, 69
1, 410907, Note_off_c, 0, 64, 67
1, 410911, Control_c, 0, 64, 117
1, 410926, Control_c, 0, 64, 127
1, 411158, Note_on_c, 0, 58, 104
1, 411158, Note_off_c, 0, 77, 51
1, 411200, Note_off_c, 0, 89, 60
1, 411294, Note_on_c, 0, 88, 96
1, 411298, Note_on_c, 0, 76, 92
1, 411349, Note_off_c, 0, 88, 61
1, 411355, Note_off_c, 0, 76, 60
1, 411449, Note_on_c, 0, 76, 101
1, 411450, Note_on_c, 0, 88, 101
1, 411653, Note_off_c, 0, 76, 66
1, 411667, Note_off_c, 0, 58, 58
1, 411677, Note_on_c, 0, 57, 100
1, 411749, Note_off_c, 0, 88, 62
1, 411775, Note_on_c, 0, 86, 93
1, 411787, Note_on_c, 0, 74, 87
1, 411841, Note_off_c, 0, 74, 64
1, 411845, Note_off_c, 0, 86, 63
1, 411918, Note_on_c, 0, 86, 101
1, 411921, Note_on_c, 0, 74, 100
1, 412112, Note_off_c, 0, 74, 60
1, 412150, Note_on_c, 0, 56, 97
1, 412167, Note_off_c, 0, 57, 61
1, 412231, Note_off_c, 0, 86, 56
1, 412271, Note_on_c, 0, 72, 90
1, 412272, Note_on_c, 0, 84, 95
1, 412345, Note_off_c, 0, 72, 59
1, 412367, Note_off_c, 0, 84, 61
1, 412439, Control_c, 0, 64, 90
1, 412448, Note_on_c, 0, 84, 101
1, 412449, Note_on_c, 0, 62, 102
1, 412449, Note_on_c, 0, 52, 99
1, 412450, Note_on_c, 0, 72, 95
1, 412453, Control_c, 0, 64, 0
1, 412494, Note_off_c, 0, 62, 65
1, 412498, Control_c, 0, 64, 50
1, 412512, Control_c, 0, 64, 98
1, 412517, Note_off_c, 0, 56, 70
1, 412535, Control_c, 0, 64, 127
1, 412541, Note_off_c, 0, 52, 65
1, 412622, Note_off_c, 0, 72, 57
1, 412692, Note_off_c, 0, 84, 56
1, 412755, Note_on_c, 0, 40, 98
1, 412773, Note_on_c, 0, 83, 90
1, 412777, Note_on_c, 0, 71, 87
1, 412813, Note_off_c, 0, 40, 66
1, 412857, Note_off_c, 0, 71, 60
1, 412881, Note_off_c, 0, 83, 58
1, 413009, Note_on_c, 0, 52, 98
1, 413247, Note_on_c, 0, 57, 92
1, 413288, Note_off_c, 0, 52, 63
1, 413454, Note_off_c, 0, 57, 65
1, 413471, Note_on_c, 0, 63, 96
1, 413471, Note_on_c, 0, 79, 93
1, 413471, Note_on_c, 0, 86, 102
1, 413473, Note_on_c, 0, 74, 96
1, 413490, Control_c, 0, 64, 110
1, 413505, Control_c, 0, 64, 81
1, 413520, Control_c, 0, 64, 0
1, 413594, Control_c, 0, 64, 68
1, 413609, Control_c, 0, 64, 82
1, 413623, Control_c, 0, 64, 100
1, 413638, Control_c, 0, 64, 111
1, 413653, Control_c, 0, 64, 112
1, 413683, Note_off_c, 0, 74, 61
1, 413684, Note_on_c, 0, 55, 85
1, 413694, Note_off_c, 0, 63, 63
1, 413698, Control_c, 0, 64, 113
1, 413712, Note_off_c, 0, 86, 61
1, 413713, Control_c, 0, 64, 113
1, 413727, Control_c, 0, 64, 114
1, 413742, Control_c, 0, 64, 115
1, 413743, Note_off_c, 0, 79, 65
1, 413757, Control_c, 0, 64, 116
1, 413772, Control_c, 0, 64, 117
1, 413787, Control_c, 0, 64, 118
1, 413800, Note_on_c, 0, 84, 92
1, 413802, Note_on_c, 0, 72, 88
1, 413802, Control_c, 0, 64, 118
1, 413817, Control_c, 0, 64, 119
1, 413832, Control_c, 0, 64, 122
1, 413847, Control_c, 0, 64, 127
1, 413847, Note_off_c, 0, 84, 65
1, 413850, Note_off_c, 0, 72, 62
1, 413921, Control_c, 0, 64, 109
1, 413936, Control_c, 0, 64, 89
1, 413936, Note_on_c, 0, 60, 85
1, 413937, Note_on_c, 0, 84, 100
1, 413938, Note_on_c, 0, 75, 99
1, 413939, Note_on_c, 0, 72, 96
1, 413950, Control_c, 0, 64, 73
1, 413965, Control_c, 0, 64, 60
1, 413980, Control_c, 0, 64, 37
1, 413995, Control_c, 0, 64, 54
1, 414010, Control_c, 0, 64, 67
1, 414032, Control_c, 0, 64, 80
1, 414038, Note_off_c, 0, 55, 60
1, 414047, Control_c, 0, 64, 94
1, 414062, Control_c, 0, 64, 105
1, 414077, Note_off_c, 0, 72, 64
1, 414077, Control_c, 0, 64, 108
1, 414091, Control_c, 0, 64, 109
1, 414106, Control_c, 0, 64, 110
1, 414121, Control_c, 0, 64, 112
1, 414123, Note_off_c, 0, 84, 60
1, 414136, Control_c, 0, 64, 114
1, 414151, Control_c, 0, 64, 115
1, 414165, Control_c, 0, 64, 116
1, 414168, Note_off_c, 0, 75, 66
1, 414178, Note_off_c, 0, 60, 59
1, 414180, Control_c, 0, 64, 117
1, 414193, Note_on_c, 0, 66, 90
1, 414195, Control_c, 0, 64, 119
1, 414205, Note_on_c, 0, 82, 98
1, 414208, Note_on_c, 0, 70, 100
1, 414210, Control_c, 0, 64, 121
1, 414225, Control_c, 0, 64, 123
1, 414239, Control_c, 0, 64, 126
1, 414254, Control_c, 0, 64, 127
1, 414267, Note_off_c, 0, 70, 60
1, 414282, Note_off_c, 0, 82, 64
1, 414384, Note_off_c, 0, 66, 62
1, 414401, Note_on_c, 0, 58, 89
1, 414612, Note_on_c, 0, 63, 96
1, 414640, Note_off_c, 0, 58, 33
1, 414655, Note_off_c, 0, 63, 71
1, 414847, Note_on_c, 0, 69, 100
1, 414849, Note_on_c, 0, 74, 95
1, 414849, Note_on_c, 0, 86, 101
1, 414852, Note_on_c, 0, 70, 107
1, 414855, Control_c, 0, 64, 95
1, 414869, Control_c, 0, 64, 67
1, 414884, Control_c, 0, 64, 0
1, 414929, Control_c, 0, 64, 60
1, 414944, Control_c, 0, 64, 82
1, 414959, Control_c, 0, 64, 107
1, 414974, Control_c, 0, 64, 127
1, 415016, Note_off_c, 0, 86, 54
1, 415071, Note_off_c, 0, 70, 54
1, 415071, Note_off_c, 0, 74, 55
1, 415075, Note_off_c, 0, 69, 48
1, 415101, Note_on_c, 0, 75, 107
1, 415153, Note_off_c, 0, 75, 71
1, 415218, Note_on_c, 0, 72, 89
1, 415218, Note_on_c, 0, 84, 83
1, 415287, Note_off_c, 0, 84, 60
1, 415302, Note_off_c, 0, 72, 58
1, 415371, Note_on_c, 0, 81, 93
1, 415373, Note_on_c, 0, 84, 95
1, 415375, Note_on_c, 0, 72, 96
1, 415508, Note_off_c, 0, 84, 60
1, 415551, Note_off_c, 0, 72, 57
1, 415584, Note_off_c, 0, 81, 66
1, 415644, Note_on_c, 0, 82, 97
1, 415648, Note_on_c, 0, 78, 96
1, 415649, Note_on_c, 0, 70, 89
1, 415687, Note_on_c, 0, 83, 35
1, 415694, Note_on_c, 0, 75, 32
1, 415718, Note_off_c, 0, 83, 45
1, 415728, Note_off_c, 0, 75, 49
1, 415746, Note_off_c, 0, 82, 61
1, 415755, Note_on_c, 0, 60, 98
1, 415803, Note_off_c, 0, 70, 55
1, 415823, Note_off_c, 0, 78, 60
1, 415876, Note_on_c, 0, 78, 91
1, 415878, Note_on_c, 0, 82, 91
1, 415886, Note_on_c, 0, 70, 94
1, 415936, Note_off_c, 0, 78, 65
1, 415945, Note_off_c, 0, 70, 62
1, 415948, Note_off_c, 0, 82, 63
1, 416101, Note_on_c, 0, 74, 91
1, 416104, Note_on_c, 0, 66, 98
1, 416107, Note_on_c, 0, 78, 92
1, 416178, Note_off_c, 0, 60, 58
1, 416193, Note_off_c, 0, 74, 61
1, 416196, Note_off_c, 0, 66, 58
1, 416205, Note_on_c, 0, 59, 96
1, 416209, Note_off_c, 0, 78, 61
1, 416327, Note_on_c, 0, 66, 105
1, 416330, Note_on_c, 0, 74, 93
1, 416333, Note_on_c, 0, 78, 91
1, 416367, Note_off_c, 0, 78, 64
1, 416372, Note_off_c, 0, 74, 67
1, 416381, Note_off_c, 0, 66, 62
1, 416544, Note_on_c, 0, 74, 94
1, 416545, Note_on_c, 0, 62, 99
1, 416546, Note_on_c, 0, 70, 96
1, 416583, Note_off_c, 0, 62, 64
1, 416607, Note_off_c, 0, 74, 63
1, 416610, Note_off_c, 0, 70, 61
1, 416634, Note_off_c, 0, 59, 59
1, 416667, Note_on_c, 0, 58, 100
1, 416833, Note_on_c, 0, 77, 104
1, 416834, Note_on_c, 0, 65, 101
1, 416834, Note_on_c, 0, 69, 98
1, 416836, Note_on_c, 0, 73, 94
1, 416856, Control_c, 0, 64, 104
1, 416870, Control_c, 0, 64, 71
1, 416885, Control_c, 0, 64, 0
1, 416989, Control_c, 0, 64, 64
1, 417005, Control_c, 0, 64, 76
1, 417028, Control_c, 0, 64, 84
1, 417043, Control_c, 0, 64, 88
1, 417057, Control_c, 0, 64, 90
1, 417060, Note_off_c, 0, 58, 59
1, 417072, Control_c, 0, 64, 92
1, 417087, Control_c, 0, 64, 96
1, 417087, Note_off_c, 0, 77, 52
1, 417099, Note_off_c, 0, 65, 61
1, 417101, Control_c, 0, 64, 102
1, 417108, Note_on_c, 0, 57, 106
1, 417116, Control_c, 0, 64, 106
1, 417131, Control_c, 0, 64, 108
1, 417161, Control_c, 0, 64, 104
1, 417175, Control_c, 0, 64, 85
1, 417187, Note_off_c, 0, 69, 57
1, 417190, Control_c, 0, 64, 0
1, 417205, Note_off_c, 0, 73, 56
1, 417249, Control_c, 0, 64, 66
1, 417250, Note_on_c, 0, 64, 91
1, 417250, Note_on_c, 0, 76, 90
1, 417264, Control_c, 0, 64, 86
1, 417279, Control_c, 0, 64, 112
1, 417293, Control_c, 0, 64, 127
1, 417299, Note_off_c, 0, 64, 65
1, 417299, Note_off_c, 0, 76, 67
1, 417381, Note_on_c, 0, 64, 92
1, 417384, Note_on_c, 0, 76, 93
1, 417428, Note_off_c, 0, 64, 62
1, 417445, Note_off_c, 0, 76, 55
1, 417495, Note_on_c, 0, 70, 52
1, 417496, Note_on_c, 0, 71, 86
1, 417504, Note_off_c, 0, 57, 58
1, 417521, Note_off_c, 0, 70, 59
1, 417538, Note_on_c, 0, 65, 99
1, 417542, Note_off_c, 0, 71, 63
1, 417543, Note_on_c, 0, 53, 85
1, 417573, Note_off_c, 0, 65, 70
1, 417585, Note_off_c, 0, 53, 65
1, 417612, Note_on_c, 0, 70, 95
1, 417623, Note_on_c, 0, 82, 100
1, 417648, Note_off_c, 0, 70, 68
1, 417658, Note_off_c, 0, 82, 60
1, 417732, Note_on_c, 0, 80, 66
1, 417782, Note_off_c, 0, 80, 55
1, 417806, Control_c, 0, 64, 94
1, 417819, Note_on_c, 0, 61, 105
1, 417820, Note_on_c, 0, 88, 109
1, 417821, Control_c, 0, 64, 62
1, 417821, Note_on_c, 0, 76, 98
1, 417822, Note_on_c, 0, 81, 96
1, 417823, Note_on_c, 0, 49, 100
1, 417824, Note_on_c, 0, 54, 94
1, 417835, Control_c, 0, 64, 0
1, 417851, Note_on_c, 0, 80, 13
1, 417862, Note_off_c, 0, 61, 65
1, 417877, Note_off_c, 0, 80, 28
1, 417880, Control_c, 0, 64, 73
1, 417884, Note_on_c, 0, 53, 35
1, 417895, Note_off_c, 0, 54, 61
1, 417895, Control_c, 0, 64, 98
1, 417899, Note_off_c, 0, 49, 60
1, 417910, Control_c, 0, 64, 127
1, 417916, Note_off_c, 0, 53, 53
1, 417952, Poly_aftertouch_c, 0, 48, 0
1, 418062, Note_off_c, 0, 76, 51
1, 418065, Note_on_c, 0, 57, 99
1, 418066, Note_on_c, 0, 45, 108
1, 418076, Note_on_c, 0, 55, 81
1, 418084, Note_off_c, 0, 45, 74
1, 418086, Note_off_c, 0, 57, 63
1, 418093, Note_off_c, 0, 55, 67
1, 418145, Note_off_c, 0, 81, 60
1, 418354, Control_c, 0, 64, 123
1, 418369, Control_c, 0, 64, 85
1, 418381, Note_on_c, 0, 68, 108
1, 418384, Control_c, 0, 64, 0
1, 418387, Note_on_c, 0, 56, 92
1, 418389, Note_on_c, 0, 58, 87
1, 418390, Note_on_c, 0, 61, 90
1, 418457, Control_c, 0, 64, 69
1, 418472, Control_c, 0, 64, 90
1, 418487, Control_c, 0, 64, 114
1, 418502, Control_c, 0, 64, 126
1, 418539, Control_c, 0, 64, 126
1, 418548, Note_off_c, 0, 88, 50
1, 418554, Control_c, 0, 64, 127
1, 418623, Note_off_c, 0, 68, 59
1, 418628, Note_on_c, 0, 89, 100
1, 418629, Note_on_c, 0, 77, 105
1, 418632, Note_off_c, 0, 56, 61
1, 418636, Note_off_c, 0, 61, 56
1, 418657, Note_off_c, 0, 58, 59
1, 418667, Note_off_c, 0, 89, 67
1, 418669, Note_off_c, 0, 77, 65
1, 418724, Note_on_c, 0, 67, 89
1, 418730, Note_on_c, 0, 55, 84
1, 418768, Note_off_c, 0, 67, 64
1, 418781, Note_off_c, 0, 55, 63
1, 418847, Note_on_c, 0, 67, 102
1, 418851, Note_on_c, 0, 55, 89
1, 418857, Note_on_c, 0, 73, 100
1, 418857, Note_on_c, 0, 85, 105
1, 418892, Note_off_c, 0, 85, 67
1, 418895, Note_off_c, 0, 73, 66
1, 418918, Note_off_c, 0, 55, 55
1, 418923, Note_off_c, 0, 67, 58
1, 418973, Note_on_c, 0, 62, 97
1, 419010, Note_off_c, 0, 62, 63
1, 419040, Note_on_c, 0, 81, 104
1, 419078, Note_off_c, 0, 81, 65
1, 419108, Note_on_c, 0, 73, 102
1, 419172, Note_off_c, 0, 73, 56
1, 419244, Note_on_c, 0, 79, 104
1, 419257, Note_on_c, 0, 80, 111
1, 419259, Note_on_c, 0, 92, 112
1, 419284, Note_off_c, 0, 79, 67
1, 419305, Note_on_c, 0, 90, 41
1, 419306, Note_off_c, 0, 90, 127
1, 419393, Note_off_c, 0, 80, 55
1, 419503, Note_off_c, 0, 92, 62
1, 419513, Note_on_c, 0, 61, 103
1, 419556, Note_off_c, 0, 61, 67
1, 419636, Note_on_c, 0, 91, 99
1, 419637, Note_on_c, 0, 79, 96
1, 419739, Note_off_c, 0, 79, 58
1, 419745, Note_off_c, 0, 91, 58
1, 419807, Control_c, 0, 64, 103
1, 419822, Note_on_c, 0, 64, 99
1, 419822, Control_c, 0, 64, 71
1, 419826, Note_on_c, 0, 58, 91
1, 419828, Note_on_c, 0, 60, 87
1, 419828, Note_on_c, 0, 89, 99
1, 419830, Note_on_c, 0, 77, 100
1, 419837, Control_c, 0, 64, 0
1, 419895, Control_c, 0, 64, 74
1, 419910, Control_c, 0, 64, 98
1, 419925, Control_c, 0, 64, 127
1, 419948, Note_off_c, 0, 64, 66
1, 419950, Note_off_c, 0, 58, 65
1, 419958, Note_off_c, 0, 77, 58
1, 419997, Note_off_c, 0, 89, 57
1, 420107, Note_off_c, 0, 60, 34
1, 420113, Note_on_c, 0, 88, 102
1, 420116, Note_on_c, 0, 76, 98
1, 420117, Note_on_c, 0, 68, 97
1, 420118, Note_on_c, 0, 56, 91
1, 420155, Note_off_c, 0, 68, 68
1, 420170, Note_off_c, 0, 56, 65
1, 420217, Note_off_c, 0, 76, 60
1, 420351, Note_on_c, 0, 64, 97
1, 420354, Note_on_c, 0, 52, 95
1, 420393, Note_off_c, 0, 64, 67
1, 420402, Note_on_c, 0, 54, 22
1, 420424, Note_off_c, 0, 52, 62
1, 420441, Note_off_c, 0, 54, 45
1, 420590, Note_on_c, 0, 60, 98
1, 420594, Note_on_c, 0, 48, 90
1, 420615, Note_off_c, 0, 48, 74
1, 420618, Poly_aftertouch_c, 0, 85, 127
1, 420632, Note_off_c, 0, 60, 67
1, 420718, Poly_aftertouch_c, 0, 85, 0
1, 420755, Poly_aftertouch_c, 0, 85, 127
1, 420827, Note_off_c, 0, 88, 60
1, 420834, Poly_aftertouch_c, 0, 85, 0
1, 420858, Note_on_c, 0, 80, 103
1, 420858, Note_on_c, 0, 92, 105
1, 420861, Note_on_c, 0, 71, 102
1, 420865, Note_on_c, 0, 59, 103
1, 420918, Control_c, 0, 64, 108
1, 420933, Control_c, 0, 64, 99
1, 420948, Control_c, 0, 64, 95
1, 420978, Control_c, 0, 64, 98
1, 420994, Control_c, 0, 64, 109
1, 421009, Control_c, 0, 64, 127
1, 421084, Note_off_c, 0, 59, 56
1, 421092, Note_off_c, 0, 80, 62
1, 421092, Note_off_c, 0, 92, 62
1, 421127, Note_off_c, 0, 71, 55
1, 421151, Note_on_c, 0, 79, 101
1, 421151, Note_on_c, 0, 91, 102
1, 421246, Note_off_c, 0, 91, 55
1, 421246, Note_on_c, 0, 70, 97
1, 421254, Note_on_c, 0, 58, 86
1, 421257, Note_off_c, 0, 79, 55
1, 421341, Note_off_c, 0, 70, 58
1, 421343, Note_off_c, 0, 58, 59
1, 421364, Control_c, 0, 64, 101
1, 421379, Control_c, 0, 64, 72
1, 421394, Control_c, 0, 64, 0
1, 421401, Note_on_c, 0, 70, 107
1, 421402, Note_on_c, 0, 77, 105
1, 421403, Note_on_c, 0, 89, 103
1, 421407, Note_on_c, 0, 58, 86
1, 421407, Note_on_c, 0, 66, 99
1, 421408, Note_on_c, 0, 63, 94
1, 421415, Note_on_c, 0, 60, 78
1, 421445, Note_on_c, 0, 57, 38
1, 421453, Control_c, 0, 64, 61
1, 421467, Control_c, 0, 64, 86
1, 421474, Note_off_c, 0, 57, 37
1, 421482, Control_c, 0, 64, 115
1, 421487, Note_off_c, 0, 60, 56
1, 421497, Control_c, 0, 64, 127
1, 421503, Note_off_c, 0, 58, 63
1, 421518, Note_off_c, 0, 70, 58
1, 421534, Note_off_c, 0, 77, 61
1, 421612, Note_off_c, 0, 89, 60
1, 421624, Note_off_c, 0, 63, 56
1, 421648, Note_off_c, 0, 66, 63
1, 421684, Note_on_c, 0, 74, 99
1, 421687, Note_on_c, 0, 62, 98
1, 421687, Note_on_c, 0, 87, 103
1, 421693, Note_on_c, 0, 75, 100
1, 421740, Note_off_c, 0, 74, 67
1, 421754, Note_off_c, 0, 62, 61
1, 421797, Poly_aftertouch_c, 0, 63, 0
1, 421809, Note_off_c, 0, 75, 57
1, 421941, Note_on_c, 0, 70, 106
1, 421947, Note_on_c, 0, 58, 103
1, 421984, Note_off_c, 0, 70, 63
1, 421994, Note_off_c, 0, 58, 65
1, 422187, Note_on_c, 0, 66, 105
1, 422199, Note_on_c, 0, 54, 79
1, 422224, Note_off_c, 0, 66, 69
1, 422226, Note_off_c, 0, 54, 64
1, 422406, Note_off_c, 0, 87, 60
1, 422431, Control_c, 0, 64, 113
1, 422444, Note_on_c, 0, 80, 106
1, 422445, Note_on_c, 0, 77, 106
1, 422445, Note_on_c, 0, 92, 110
1, 422446, Control_c, 0, 64, 76
1, 422450, Note_on_c, 0, 65, 105
1, 422461, Control_c, 0, 64, 0
1, 422470, Note_on_c, 0, 90, 68
1, 422489, Note_off_c, 0, 90, 43
1, 422505, Control_c, 0, 64, 68
1, 422520, Control_c, 0, 64, 84
1, 422535, Control_c, 0, 64, 108
1, 422550, Control_c, 0, 64, 127
1, 422560, Note_off_c, 0, 77, 60
1, 422587, Note_off_c, 0, 65, 63
1, 422715, Note_off_c, 0, 92, 57
1, 422740, Note_on_c, 0, 73, 105
1, 422744, Note_on_c, 0, 61, 102
1, 422758, Note_off_c, 0, 80, 60
1, 422763, Note_off_c, 0, 61, 69
1, 422766, Note_off_c, 0, 73, 68
1, 422888, Note_on_c, 0, 90, 104
1, 422888, Note_on_c, 0, 78, 105
1, 422956, Note_off_c, 0, 78, 61
1, 422984, Note_off_c, 0, 90, 63
1, 423003, Poly_aftertouch_c, 0, 69, 127
1, 423032, Poly_aftertouch_c, 0, 69, 0
1, 423076, Control_c, 0, 64, 112
1, 423088, Note_on_c, 0, 77, 107
1, 423088, Note_on_c, 0, 85, 100
1, 423088, Note_on_c, 0, 89, 112
1, 423091, Note_on_c, 0, 69, 102
1, 423091, Control_c, 0, 64, 79
1, 423093, Note_on_c, 0, 57, 105
1, 423106, Control_c, 0, 64, 0
1, 423180, Control_c, 0, 64, 66
1, 423195, Control_c, 0, 64, 84
1, 423210, Control_c, 0, 64, 103
1, 423225, Control_c, 0, 64, 121
1, 423239, Note_off_c, 0, 89, 60
1, 423239, Control_c, 0, 64, 123
1, 423254, Control_c, 0, 64, 127
1, 423255, Note_off_c, 0, 77, 58
1, 423292, Poly_aftertouch_c, 0, 58, 0
1, 423356, Note_off_c, 0, 85, 64
1, 423396, Note_on_c, 0, 75, 97
1, 423399, Note_on_c, 0, 83, 101
1, 423399, Note_on_c, 0, 87, 97
1, 423422, Note_off_c, 0, 69, 59
1, 423467, Note_off_c, 0, 57, 54
1, 423479, Note_off_c, 0, 83, 57
1, 423488, Note_off_c, 0, 87, 59
1, 423511, Note_off_c, 0, 75, 64
1, 423518, Note_on_c, 0, 61, 98
1, 423626, Note_off_c, 0, 61, 62
1, 423650, Note_on_c, 0, 81, 96
1, 423652, Note_on_c, 0, 73, 104
1, 423653, Note_on_c, 0, 85, 99
1, 423656, Note_on_c, 0, 67, 101
1, 423665, Note_on_c, 0, 55, 89
1, 423668, Note_on_c, 0, 53, 91
1, 423689, Note_off_c, 0, 53, 72
1, 423794, Note_off_c, 0, 73, 60
1, 423794, Note_off_c, 0, 85, 66
1, 423861, Note_off_c, 0, 81, 56
1, 423922, Note_on_c, 0, 71, 102
1, 423922, Note_on_c, 0, 79, 95
1, 423924, Note_on_c, 0, 83, 94
1, 423950, Note_off_c, 0, 67, 56
1, 423985, Note_off_c, 0, 79, 63
1, 423985, Note_off_c, 0, 55, 62
1, 423994, Note_off_c, 0, 83, 57
1, 424019, Note_off_c, 0, 71, 57
1, 424039, Note_on_c, 0, 61, 104
1, 424137, Note_off_c, 0, 61, 65
1, 424173, Note_on_c, 0, 77, 99
1, 424173, Note_on_c, 0, 69, 111
1, 424173, Note_on_c, 0, 81, 99
1, 424179, Note_on_c, 0, 63, 103
1, 424185, Note_on_c, 0, 51, 104
1, 424355, Note_off_c, 0, 81, 54
1, 424373, Note_off_c, 0, 69, 54
1, 424429, Note_off_c, 0, 77, 61
1, 424462, Note_off_c, 0, 63, 59
1, 424470, Note_on_c, 0, 67, 101
1, 424470, Note_on_c, 0, 75, 105
1, 424470, Note_on_c, 0, 79, 97
1, 424569, Note_off_c, 0, 51, 54
1, 424572, Note_off_c, 0, 79, 59
1, 424599, Note_on_c, 0, 61, 100
1, 424609, Note_off_c, 0, 67, 52
1, 424614, Note_on_c, 0, 51, 46
1, 424641, Note_off_c, 0, 51, 58
1, 424643, Note_off_c, 0, 61, 65
1, 424742, Note_off_c, 0, 75, 61
1, 424784, Note_on_c, 0, 66, 100
1, 424784, Note_on_c, 0, 74, 98
1, 424784, Note_on_c, 0, 78, 105
1, 424790, Note_on_c, 0, 59, 103
1, 424793, Note_on_c, 0, 47, 104
1, 424796, Control_c, 0, 64, 106
1, 424811, Control_c, 0, 64, 72
1, 424826, Control_c, 0, 64, 0
1, 424829, Note_on_c, 0, 79, 47
1, 424883, Note_off_c, 0, 79, 36
1, 424945, Control_c, 0, 64, 64
1, 424959, Control_c, 0, 64, 80
1, 424974, Control_c, 0, 64, 92
1, 424990, Control_c, 0, 64, 102
1, 425005, Control_c, 0, 64, 106
1, 425019, Control_c, 0, 64, 113
1, 425022, Note_off_c, 0, 59, 61
1, 425031, Note_off_c, 0, 47, 59
1, 425034, Control_c, 0, 64, 127
1, 425083, Note_off_c, 0, 78, 58
1, 425121, Note_on_c, 0, 60, 109
1, 425124, Note_on_c, 0, 48, 101
1, 425127, Note_off_c, 0, 74, 60
1, 425183, Note_off_c, 0, 66, 67
1, 425356, Note_off_c, 0, 60, 56
1, 425370, Note_off_c, 0, 48, 59
1, 425417, Note_on_c, 0, 77, 103
1, 425418, Note_on_c, 0, 65, 104
1, 425419, Note_on_c, 0, 71, 93
1, 425421, Note_on_c, 0, 68, 100
1, 425434, Note_on_c, 0, 60, 107
1, 425435, Note_on_c, 0, 48, 97
1, 425538, Note_off_c, 0, 60, 56
1, 425570, Note_off_c, 0, 48, 67
1, 425617, Note_off_c, 0, 65, 58
1, 425638, Note_off_c, 0, 77, 55
1, 425748, Note_on_c, 0, 56, 103
1, 425756, Note_on_c, 0, 44, 99
1, 425785, Note_off_c, 0, 71, 52
1, 425853, Note_off_c, 0, 68, 43
1, 425975, Note_off_c, 0, 44, 60
1, 425983, Note_off_c, 0, 56, 57
1, 426090, Note_on_c, 0, 68, 99
1, 426091, Note_on_c, 0, 76, 101
1, 426092, Note_on_c, 0, 64, 99
1, 426092, Note_on_c, 0, 72, 92
1, 426093, Note_on_c, 0, 56, 107
1, 426099, Note_on_c, 0, 44, 91
1, 426124, Note_on_c, 0, 46, 59
1, 426155, Note_off_c, 0, 46, 48
1, 426186, Note_off_c, 0, 56, 64
1, 426219, Note_off_c, 0, 44, 63
1, 426301, Note_off_c, 0, 64, 61
1, 426404, Note_off_c, 0, 76, 49
1, 426486, Note_on_c, 0, 52, 103
1, 426488, Note_on_c, 0, 40, 103
1, 426537, Note_off_c, 0, 72, 58
1, 426582, Note_off_c, 0, 68, 47
1, 426662, Note_off_c, 0, 40, 63
1, 426725, Note_off_c, 0, 52, 63
1, 426924, Note_on_c, 0, 63, 103
1, 426924, Note_on_c, 0, 75, 100
1, 426927, Note_on_c, 0, 71, 101
1, 426930, Note_on_c, 0, 53, 106
1, 426933, Note_on_c, 0, 47, 104
1, 426933, Note_on_c, 0, 41, 97
1, 426954, Control_c, 0, 64, 96
1, 426968, Control_c, 0, 64, 37
1, 426973, Note_on_c, 0, 73, 34
1, 426983, Control_c, 0, 64, 0
1, 426995, Note_off_c, 0, 73, 35
1, 427402, Note_on_c, 0, 48, 96
1, 427413, Note_off_c, 0, 47, 66
1, 427509, Control_c, 0, 64, 47
1, 427524, Control_c, 0, 64, 61
1, 427539, Control_c, 0, 64, 67
1, 427554, Control_c, 0, 64, 74
1, 427569, Control_c, 0, 64, 84
1, 427583, Control_c, 0, 64, 97
1, 427598, Control_c, 0, 64, 111
1, 427613, Control_c, 0, 64, 127
1, 427675, Note_off_c, 0, 48, 64
1, 427766, Note_on_c, 0, 48, 95
1, 427813, Note_off_c, 0, 75, 55
1, 427851, Note_off_c, 0, 63, 58
1, 428099, Note_on_c, 0, 44, 87
1, 428124, Note_off_c, 0, 48, 63
1, 428182, Note_off_c, 0, 41, 62
1, 428189, Note_off_c, 0, 53, 56
1, 428210, Note_off_c, 0, 71, 50
1, 428316, Note_off_c, 0, 44, 63
1, 428430, Note_on_c, 0, 72, 84
1, 428431, Note_on_c, 0, 76, 88
1, 428433, Note_on_c, 0, 44, 94
1, 428435, Note_on_c, 0, 64, 85
1, 428435, Note_on_c, 0, 68, 78
1, 428701, Note_off_c, 0, 64, 61
1, 428768, Note_off_c, 0, 76, 59
1, 428804, Note_on_c, 0, 40, 91
1, 428834, Note_off_c, 0, 72, 59
1, 428956, Note_off_c, 0, 44, 62
1, 428961, Note_off_c, 0, 68, 49
1, 428988, Note_off_c, 0, 40, 63
1, 429205, Note_on_c, 0, 75, 84
1, 429208, Note_on_c, 0, 41, 82
1, 429208, Note_on_c, 0, 71, 74
1, 429210, Note_on_c, 0, 35, 73
1, 429210, Note_on_c, 0, 63, 75
1, 429211, Note_on_c, 0, 29, 77
1, 429229, Control_c, 0, 64, 115
1, 429244, Control_c, 0, 64, 97
1, 429259, Control_c, 0, 64, 84
1, 429275, Control_c, 0, 64, 72
1, 429289, Control_c, 0, 64, 55
1, 429304, Control_c, 0, 64, 0
1, 429652, Note_off_c, 0, 35, 63
1, 429655, Note_on_c, 0, 36, 76
1, 429734, Control_c, 0, 64, 30
1, 429756, Control_c, 0, 64, 56
1, 429771, Control_c, 0, 64, 65
1, 429786, Control_c, 0, 64, 72
1, 429801, Control_c, 0, 64, 80
1, 429816, Control_c, 0, 64, 89
1, 429831, Control_c, 0, 64, 96
1, 429846, Control_c, 0, 64, 99
1, 429858, Note_off_c, 0, 63, 64
1, 429860, Control_c, 0, 64, 102
1, 429875, Control_c, 0, 64, 104
1, 429876, Note_off_c, 0, 71, 57
1, 429882, Note_off_c, 0, 75, 62
1, 429890, Control_c, 0, 64, 106
1, 429905, Control_c, 0, 64, 108
1, 429917, Note_off_c, 0, 36, 63
1, 429920, Control_c, 0, 64, 109
1, 429935, Control_c, 0, 64, 110
1, 429950, Control_c, 0, 64, 111
1, 429965, Control_c, 0, 64, 111
1, 429979, Control_c, 0, 64, 112
1, 430067, Control_c, 0, 64, 111
1, 430082, Control_c, 0, 64, 106
1, 430097, Control_c, 0, 64, 97
1, 430099, Note_on_c, 0, 72, 59
1, 430099, Note_on_c, 0, 76, 66
1, 430102, Note_on_c, 0, 64, 61
1, 430104, Note_on_c, 0, 36, 62
1, 430109, Note_on_c, 0, 68, 56
1, 430111, Control_c, 0, 64, 84
1, 430126, Control_c, 0, 64, 73
1, 430141, Control_c, 0, 64, 64
1, 430156, Control_c, 0, 64, 40
1, 430171, Control_c, 0, 64, 0
1, 430260, Control_c, 0, 64, 48
1, 430275, Control_c, 0, 64, 63
1, 430290, Control_c, 0, 64, 68
1, 430304, Control_c, 0, 64, 73
1, 430319, Control_c, 0, 64, 77
1, 430334, Control_c, 0, 64, 80
1, 430349, Control_c, 0, 64, 83
1, 430364, Control_c, 0, 64, 87
1, 430378, Control_c, 0, 64, 90
1, 430393, Control_c, 0, 64, 93
1, 430408, Control_c, 0, 64, 95
1, 430422, Control_c, 0, 64, 98
1, 430437, Control_c, 0, 64, 102
1, 430444, Note_off_c, 0, 76, 60
1, 430452, Control_c, 0, 64, 106
1, 430467, Control_c, 0, 64, 109
1, 430482, Control_c, 0, 64, 111
1, 430504, Control_c, 0, 64, 112
1, 430519, Control_c, 0, 64, 114
1, 430534, Control_c, 0, 64, 117
1, 430540, Note_off_c, 0, 64, 57
1, 430545, Note_on_c, 0, 32, 65
1, 430549, Control_c, 0, 64, 120
1, 430563, Control_c, 0, 64, 123
1, 430567, Note_off_c, 0, 72, 58
1, 430571, Note_off_c, 0, 36, 59
1, 430579, Control_c, 0, 64, 126
1, 430609, Control_c, 0, 64, 126
1, 430624, Control_c, 0, 64, 127
1, 430632, Note_off_c, 0, 68, 64
1, 430683, Note_off_c, 0, 41, 63
1, 430711, Note_off_c, 0, 29, 56
1, 430764, Note_off_c, 0, 32, 62
1, 430920, Control_c, 0, 64, 126
1, 430934, Control_c, 0, 64, 123
1, 430949, Control_c, 0, 64, 119
1, 430964, Control_c, 0, 64, 112
1, 430978, Control_c, 0, 64, 107
1, 430993, Control_c, 0, 64, 101
1, 431008, Control_c, 0, 64, 95
1, 431023, Control_c, 0, 64, 90
1, 431028, Note_on_c, 0, 75, 53
1, 431029, Note_on_c, 0, 32, 55
1, 431035, Note_on_c, 0, 71, 49
1, 431038, Note_on_c, 0, 63, 46
1, 431038, Control_c, 0, 64, 85
1, 431050, Note_on_c, 0, 66, 43
1, 431053, Control_c, 0, 64, 80
1, 431068, Control_c, 0, 64, 73
1, 431083, Control_c, 0, 64, 67
1, 431097, Control_c, 0, 64, 61
1, 431112, Control_c, 0, 64, 55
1, 431127, Control_c, 0, 64, 53
1, 431157, Control_c, 0, 64, 52
1, 431171, Control_c, 0, 64, 50
1, 431186, Control_c, 0, 64, 48
1, 431216, Control_c, 0, 64, 47
1, 431231, Control_c, 0, 64, 44
1, 431252, Control_c, 0, 64, 39
1, 431267, Control_c, 0, 64, 33
1, 431282, Control_c, 0, 64, 25
1, 431297, Control_c, 0, 64, 11
1, 431312, Control_c, 0, 64, 0
1, 431673, Note_off_c, 0, 32, 58
1, 431694, Note_on_c, 0, 28, 50
1, 431861, Control_c, 0, 64, 41
1, 431875, Control_c, 0, 64, 58
1, 431890, Control_c, 0, 64, 65
1, 431905, Control_c, 0, 64, 70
1, 431920, Control_c, 0, 64, 78
1, 431935, Control_c, 0, 64, 85
1, 431950, Control_c, 0, 64, 90
1, 431952, Note_off_c, 0, 28, 58
1, 431965, Control_c, 0, 64, 92
1, 431980, Control_c, 0, 64, 94
1, 432001, Control_c, 0, 64, 97
1, 432016, Control_c, 0, 64, 100
1, 432031, Control_c, 0, 64, 102
1, 432046, Control_c, 0, 64, 104
1, 432052, Note_off_c, 0, 66, 57
1, 432061, Control_c, 0, 64, 104
1, 432075, Control_c, 0, 64, 105
1, 432083, Note_off_c, 0, 63, 55
1, 432090, Control_c, 0, 64, 105
1, 432105, Control_c, 0, 64, 106
1, 432108, Note_off_c, 0, 71, 37
1, 432120, Control_c, 0, 64, 106
1, 432135, Control_c, 0, 64, 107
1, 432244, Note_off_c, 0, 75, 33
1, 432441, Note_on_c, 0, 30, 42
1, 432447, Control_c, 0, 64, 106
1, 432462, Control_c, 0, 64, 106
1, 432477, Control_c, 0, 64, 105
1, 432492, Control_c, 0, 64, 103
1, 432506, Control_c, 0, 64, 101
1, 432521, Control_c, 0, 64, 98
1, 432536, Control_c, 0, 64, 94
1, 432551, Control_c, 0, 64, 89
1, 432566, Control_c, 0, 64, 85
1, 432580, Control_c, 0, 64, 80
1, 432595, Control_c, 0, 64, 75
1, 432610, Control_c, 0, 64, 71
1, 432624, Control_c, 0, 64, 67
1, 432639, Control_c, 0, 64, 65
1, 432654, Control_c, 0, 64, 64
1, 432669, Control_c, 0, 64, 63
1, 432684, Control_c, 0, 64, 62
1, 432694, Note_on_c, 0, 72, 44
1, 432695, Note_on_c, 0, 74, 46
1, 432698, Control_c, 0, 64, 60
1, 432701, Note_on_c, 0, 42, 35
1, 432709, Note_on_c, 0, 62, 44
1, 432710, Note_on_c, 0, 69, 39
1, 432713, Control_c, 0, 64, 56
1, 432728, Control_c, 0, 64, 51
1, 432751, Control_c, 0, 64, 46
1, 432780, Control_c, 0, 64, 46
1, 432795, Control_c, 0, 64, 45
1, 432824, Control_c, 0, 64, 49
1, 432839, Control_c, 0, 64, 55
1, 432854, Control_c, 0, 64, 62
1, 432869, Control_c, 0, 64, 67
1, 432884, Control_c, 0, 64, 73
1, 432896, Note_off_c, 0, 30, 58
1, 432898, Control_c, 0, 64, 79
1, 432913, Control_c, 0, 64, 84
1, 432928, Control_c, 0, 64, 87
1, 432934, Note_off_c, 0, 42, 63
1, 432943, Control_c, 0, 64, 89
1, 432958, Control_c, 0, 64, 91
1, 432974, Control_c, 0, 64, 93
1, 432989, Control_c, 0, 64, 95
1, 433003, Control_c, 0, 64, 96
1, 433019, Control_c, 0, 64, 97
1, 433063, Control_c, 0, 64, 97
1, 433104, Note_off_c, 0, 62, 57
1, 433202, Note_on_c, 0, 45, 45
1, 433241, Control_c, 0, 64, 98
1, 433467, Note_off_c, 0, 45, 41
1, 433509, Note_off_c, 0, 74, 38
1, 433536, Note_on_c, 0, 52, 46
1, 433650, Note_off_c, 0, 72, 36
1, 433697, Note_off_c, 0, 52, 59
1, 433733, Note_on_c, 0, 48, 52
1, 433783, Note_off_c, 0, 69, 58
1, 433944, Note_on_c, 0, 56, 58
1, 434001, Note_off_c, 0, 48, 33
1, 434123, Control_c, 0, 64, 97
1, 434152, Control_c, 0, 64, 95
1, 434167, Control_c, 0, 64, 92
1, 434182, Control_c, 0, 64, 86
1, 434190, Note_on_c, 0, 75, 64
1, 434195, Note_on_c, 0, 62, 47
1, 434196, Control_c, 0, 64, 78
1, 434198, Note_on_c, 0, 63, 53
1, 434210, Note_on_c, 0, 67, 43
1, 434211, Control_c, 0, 64, 68
1, 434214, Note_on_c, 0, 71, 48
1, 434224, Note_off_c, 0, 56, 58
1, 434226, Control_c, 0, 64, 57
1, 434248, Control_c, 0, 64, 0
1, 434411, Control_c, 0, 64, 65
1, 434426, Control_c, 0, 64, 72
1, 434441, Control_c, 0, 64, 80
1, 434456, Control_c, 0, 64, 86
1, 434471, Control_c, 0, 64, 89
1, 434485, Control_c, 0, 64, 91
1, 434500, Control_c, 0, 64, 93
1, 434515, Control_c, 0, 64, 95
1, 434529, Note_off_c, 0, 67, 63
1, 434530, Control_c, 0, 64, 96
1, 434531, Note_off_c, 0, 63, 61
1, 434544, Control_c, 0, 64, 97
1, 434559, Control_c, 0, 64, 98
1, 434575, Control_c, 0, 64, 99
1, 434590, Control_c, 0, 64, 99
1, 434605, Note_off_c, 0, 71, 58
1, 434605, Control_c, 0, 64, 100
1, 434619, Control_c, 0, 64, 101
1, 434634, Control_c, 0, 64, 101
1, 434661, Note_off_c, 0, 75, 62
1, 434693, Control_c, 0, 64, 102
1, 434782, Control_c, 0, 64, 101
1, 434797, Control_c, 0, 64, 97
1, 434812, Control_c, 0, 64, 89
1, 434827, Control_c, 0, 64, 79
1, 434841, Note_on_c, 0, 68, 47
1, 434841, Control_c, 0, 64, 68
1, 434843, Note_on_c, 0, 64, 46
1, 434846, Note_on_c, 0, 58, 40
1, 434846, Note_on_c, 0, 76, 52
1, 434856, Control_c, 0, 64, 52
1, 434859, Note_off_c, 0, 62, 39
1, 434871, Control_c, 0, 64, 0
1, 434880, Note_off_c, 0, 68, 0
1, 434880, Note_on_c, 0, 68, 21
1, 434946, Control_c, 0, 64, 60
1, 434961, Control_c, 0, 64, 68
1, 434975, Control_c, 0, 64, 74
1, 434997, Control_c, 0, 64, 82
1, 435012, Control_c, 0, 64, 88
1, 435024, Note_off_c, 0, 64, 60
1, 435026, Control_c, 0, 64, 92
1, 435041, Control_c, 0, 64, 93
1, 435056, Control_c, 0, 64, 94
1, 435071, Control_c, 0, 64, 95
1, 435086, Control_c, 0, 64, 96
1, 435101, Control_c, 0, 64, 97
1, 435116, Control_c, 0, 64, 97
1, 435131, Control_c, 0, 64, 98
1, 435137, Note_on_c, 0, 62, 55
1, 435145, Control_c, 0, 64, 99
1, 435160, Control_c, 0, 64, 101
1, 435175, Control_c, 0, 64, 103
1, 435190, Control_c, 0, 64, 103
1, 435205, Control_c, 0, 64, 104
1, 435210, Note_off_c, 0, 62, 55
1, 435219, Control_c, 0, 64, 105
1, 435234, Control_c, 0, 64, 106
1, 435249, Control_c, 0, 64, 107
1, 435264, Control_c, 0, 64, 108
1, 435308, Control_c, 0, 64, 109
1, 435335, Note_on_c, 0, 64, 54
1, 435338, Control_c, 0, 64, 109
1, 435457, Note_off_c, 0, 76, 33
1, 435503, Note_on_c, 0, 72, 61
1, 435518, Note_on_c, 0, 51, 43
1, 435544, Note_off_c, 0, 68, 57
1, 435635, Control_c, 0, 64, 110
1, 435671, Note_on_c, 0, 68, 52
1, 435714, Note_off_c, 0, 72, 58
1, 435772, Note_off_c, 0, 58, 32
1, 435846, Note_on_c, 0, 76, 58
1, 435876, Note_off_c, 0, 68, 63
1, 435879, Control_c, 0, 64, 110
1, 435968, Control_c, 0, 64, 108
1, 435983, Control_c, 0, 64, 100
1, 435998, Control_c, 0, 64, 89
1, 436013, Control_c, 0, 64, 77
1, 436020, Note_on_c, 0, 71, 49
1, 436028, Control_c, 0, 64, 66
1, 436031, Note_off_c, 0, 51, 54
1, 436034, Note_off_c, 0, 76, 60
1, 436040, Note_on_c, 0, 55, 41
1, 436043, Control_c, 0, 64, 42
1, 436058, Control_c, 0, 64, 20
1, 436073, Control_c, 0, 64, 44
1, 436088, Control_c, 0, 64, 59
1, 436102, Control_c, 0, 64, 65
1, 436117, Control_c, 0, 64, 68
1, 436132, Control_c, 0, 64, 73
1, 436143, Note_off_c, 0, 64, 63
1, 436147, Control_c, 0, 64, 77
1, 436162, Control_c, 0, 64, 80
1, 436177, Control_c, 0, 64, 83
1, 436192, Control_c, 0, 64, 85
1, 436197, Note_on_c, 0, 67, 47
1, 436207, Control_c, 0, 64, 87
1, 436222, Control_c, 0, 64, 89
1, 436237, Control_c, 0, 64, 90
1, 436251, Control_c, 0, 64, 91
1, 436266, Control_c, 0, 64, 92
1, 436281, Control_c, 0, 64, 93
1, 436282, Note_off_c, 0, 55, 54
1, 436296, Control_c, 0, 64, 94
1, 436311, Control_c, 0, 64, 94
1, 436341, Control_c, 0, 64, 95
1, 436355, Control_c, 0, 64, 95
1, 436370, Control_c, 0, 64, 96
1, 436385, Control_c, 0, 64, 96
1, 436394, Note_on_c, 0, 75, 53
1, 436399, Control_c, 0, 64, 97
1, 436409, Note_on_c, 0, 63, 47
1, 436414, Control_c, 0, 64, 98
1, 436427, Note_off_c, 0, 67, 51
1, 436429, Control_c, 0, 64, 98
1, 436444, Control_c, 0, 64, 99
1, 436496, Control_c, 0, 64, 100
1, 436511, Note_off_c, 0, 63, 62
1, 436511, Control_c, 0, 64, 101
1, 436526, Control_c, 0, 64, 102
1, 436548, Note_off_c, 0, 71, 35
1, 436594, Note_off_c, 0, 75, 37
1, 436629, Control_c, 0, 64, 101
1, 436644, Control_c, 0, 64, 97
1, 436659, Control_c, 0, 64, 87
1, 436673, Control_c, 0, 64, 76
1, 436688, Control_c, 0, 64, 65
1, 436700, Note_on_c, 0, 62, 41
1, 436702, Note_on_c, 0, 74, 46
1, 436703, Control_c, 0, 64, 31
1, 436705, Note_on_c, 0, 41, 40
1, 436708, Note_on_c, 0, 72, 45
1, 436712, Note_on_c, 0, 46, 31
1, 436718, Control_c, 0, 64, 0
1, 436719, Note_on_c, 0, 68, 32
1, 436762, Control_c, 0, 64, 37
1, 436777, Control_c, 0, 64, 57
1, 436791, Control_c, 0, 64, 65
1, 436806, Control_c, 0, 64, 71
1, 436821, Control_c, 0, 64, 76
1, 436836, Control_c, 0, 64, 81
1, 436851, Control_c, 0, 64, 85
1, 436866, Control_c, 0, 64, 87
1, 436880, Control_c, 0, 64, 88
1, 436895, Control_c, 0, 64, 90
1, 436910, Control_c, 0, 64, 92
1, 436925, Control_c, 0, 64, 93
1, 436940, Control_c, 0, 64, 94
1, 436955, Control_c, 0, 64, 95
1, 436958, Note_off_c, 0, 46, 40
1, 436970, Control_c, 0, 64, 95
1, 436975, Note_on_c, 0, 44, 50
1, 436985, Control_c, 0, 64, 96
1, 437000, Control_c, 0, 64, 96
1, 437009, Note_off_c, 0, 41, 49
1, 437015, Control_c, 0, 64, 97
1, 437059, Control_c, 0, 64, 97
1, 437078, Note_off_c, 0, 44, 55
1, 437089, Control_c, 0, 64, 98
1, 437102, Note_on_c, 0, 47, 50
1, 437163, Control_c, 0, 64, 98
1, 437193, Control_c, 0, 64, 99
1, 437255, Note_off_c, 0, 47, 62
1, 437279, Note_on_c, 0, 51, 54
1, 437334, Control_c, 0, 64, 99
1, 437342, Note_off_c, 0, 51, 59
1, 437462, Note_on_c, 0, 47, 55
1, 437603, Note_off_c, 0, 62, 35
1, 437627, Note_off_c, 0, 74, 58
1, 437641, Note_off_c, 0, 47, 37
1, 437664, Note_off_c, 0, 72, 52
1, 437669, Note_on_c, 0, 55, 54
1, 437686, Note_off_c, 0, 68, 49
1, 437702, Note_off_c, 0, 55, 64
1, 437910, Control_c, 0, 64, 96
1, 437925, Control_c, 0, 64, 88
1, 437940, Control_c, 0, 64, 77
1, 437947, Note_on_c, 0, 75, 62
1, 437950, Note_on_c, 0, 61, 53
1, 437955, Control_c, 0, 64, 68
1, 437955, Note_on_c, 0, 63, 47
1, 437958, Note_on_c, 0, 59, 47
1, 437962, Note_on_c, 0, 67, 49
1, 437963, Note_on_c, 0, 71, 51
1, 437969, Control_c, 0, 64, 58
1, 437992, Control_c, 0, 64, 27
1, 438007, Control_c, 0, 64, 0
1, 438140, Control_c, 0, 64, 39
1, 438155, Control_c, 0, 64, 64
1, 438169, Control_c, 0, 64, 70
1, 438184, Control_c, 0, 64, 77
1, 438199, Control_c, 0, 64, 83
1, 438214, Control_c, 0, 64, 88
1, 438229, Control_c, 0, 64, 91
1, 438243, Control_c, 0, 64, 93
1, 438258, Control_c, 0, 64, 95
1, 438266, Note_off_c, 0, 67, 63
1, 438273, Control_c, 0, 64, 96
1, 438279, Note_off_c, 0, 59, 61
1, 438288, Control_c, 0, 64, 98
1, 438299, Note_off_c, 0, 63, 58
1, 438303, Control_c, 0, 64, 99
1, 438317, Control_c, 0, 64, 99
1, 438347, Control_c, 0, 64, 100
1, 438357, Note_off_c, 0, 71, 47
1, 438362, Control_c, 0, 64, 100
1, 438362, Note_off_c, 0, 61, 32
1, 438475, Note_off_c, 0, 75, 23
1, 438571, Control_c, 0, 64, 99
1, 438586, Control_c, 0, 64, 94
1, 438600, Control_c, 0, 64, 85
1, 438615, Control_c, 0, 64, 74
1, 438630, Note_on_c, 0, 69, 50
1, 438630, Control_c, 0, 64, 64
1, 438631, Note_on_c, 0, 60, 32
1, 438631, Note_on_c, 0, 76, 45
1, 438637, Note_on_c, 0, 65, 19
1, 438641, Note_on_c, 0, 57, 42
1, 438645, Control_c, 0, 64, 46
1, 438648, Note_on_c, 0, 64, 41
1, 438659, Control_c, 0, 64, 0
1, 438755, Control_c, 0, 64, 55
1, 438770, Control_c, 0, 64, 66
1, 438785, Control_c, 0, 64, 72
1, 438800, Control_c, 0, 64, 79
1, 438815, Control_c, 0, 64, 86
1, 438828, Note_off_c, 0, 65, 56
1, 438830, Control_c, 0, 64, 90
1, 438842, Note_off_c, 0, 64, 41
1, 438845, Control_c, 0, 64, 91
1, 438860, Control_c, 0, 64, 92
1, 438874, Control_c, 0, 64, 94
1, 438889, Control_c, 0, 64, 95
1, 438904, Control_c, 0, 64, 96
1, 438919, Control_c, 0, 64, 97
1, 438931, Note_on_c, 0, 64, 59
1, 438934, Control_c, 0, 64, 98
1, 438948, Control_c, 0, 64, 98
1, 438963, Control_c, 0, 64, 99
1, 438978, Control_c, 0, 64, 100
1, 439006, Note_off_c, 0, 64, 61
1, 439037, Control_c, 0, 64, 100
1, 439119, Note_on_c, 0, 65, 62
1, 439293, Note_on_c, 0, 72, 65
1, 439307, Note_off_c, 0, 76, 24
1, 439309, Note_on_c, 0, 50, 42
1, 439343, Note_off_c, 0, 69, 41
1, 439455, Note_off_c, 0, 65, 63
1, 439456, Note_on_c, 0, 69, 59
1, 439597, Note_off_c, 0, 57, 36
1, 439614, Note_off_c, 0, 72, 54
1, 439621, Note_on_c, 0, 76, 62
1, 439640, Note_off_c, 0, 69, 61
1, 439697, Control_c, 0, 64, 100
1, 439712, Control_c, 0, 64, 98
1, 439727, Control_c, 0, 64, 94
1, 439742, Control_c, 0, 64, 87
1, 439757, Control_c, 0, 64, 81
1, 439767, Note_on_c, 0, 69, 63
1, 439768, Note_on_c, 0, 54, 53
1, 439772, Control_c, 0, 64, 76
1, 439776, Note_on_c, 0, 63, 57
1, 439778, Note_off_c, 0, 76, 65
1, 439787, Control_c, 0, 64, 74
1, 439816, Control_c, 0, 64, 75
1, 439824, Note_off_c, 0, 69, 65
1, 439831, Control_c, 0, 64, 78
1, 439846, Control_c, 0, 64, 81
1, 439861, Control_c, 0, 64, 85
1, 439876, Control_c, 0, 64, 86
1, 439882, Note_off_c, 0, 60, 62
1, 439890, Control_c, 0, 64, 87
1, 439905, Control_c, 0, 64, 88
1, 439920, Control_c, 0, 64, 89
1, 439934, Control_c, 0, 64, 89
1, 439949, Control_c, 0, 64, 90
1, 439954, Note_off_c, 0, 54, 62
1, 439965, Note_on_c, 0, 66, 57
1, 439971, Note_off_c, 0, 50, 55
1, 439994, Control_c, 0, 64, 91
1, 440008, Control_c, 0, 64, 91
1, 440038, Control_c, 0, 64, 92
1, 440068, Control_c, 0, 64, 93
1, 440083, Control_c, 0, 64, 94
1, 440097, Control_c, 0, 64, 95
1, 440100, Note_on_c, 0, 75, 61
1, 440142, Control_c, 0, 64, 95
1, 440172, Control_c, 0, 64, 96
1, 440223, Note_off_c, 0, 66, 39
1, 440239, Control_c, 0, 64, 94
1, 440254, Control_c, 0, 64, 87
1, 440269, Control_c, 0, 64, 78
1, 440275, Note_on_c, 0, 70, 54
1, 440281, Note_on_c, 0, 45, 52
1, 440284, Control_c, 0, 64, 68
1, 440299, Control_c, 0, 64, 54
1, 440313, Control_c, 0, 64, 0
1, 440372, Control_c, 0, 64, 35
1, 440387, Control_c, 0, 64, 62
1, 440402, Control_c, 0, 64, 68
1, 440417, Control_c, 0, 64, 72
1, 440432, Control_c, 0, 64, 77
1, 440440, Note_on_c, 0, 67, 52
1, 440446, Control_c, 0, 64, 83
1, 440461, Control_c, 0, 64, 87
1, 440476, Control_c, 0, 64, 90
1, 440491, Control_c, 0, 64, 91
1, 440505, Note_off_c, 0, 63, 64
1, 440505, Control_c, 0, 64, 92
1, 440520, Control_c, 0, 64, 93
1, 440525, Note_off_c, 0, 45, 60
1, 440535, Control_c, 0, 64, 94
1, 440544, Note_off_c, 0, 75, 57
1, 440550, Control_c, 0, 64, 94
1, 440569, Note_on_c, 0, 74, 58
1, 440609, Control_c, 0, 64, 95
1, 440635, Note_on_c, 0, 46, 55
1, 440646, Note_off_c, 0, 70, 38
1, 440661, Note_off_c, 0, 67, 29
1, 440681, Note_off_c, 0, 46, 57
1, 440683, Control_c, 0, 64, 95
1, 440716, Note_off_c, 0, 74, 59
1, 440756, Control_c, 0, 64, 94
1, 440771, Control_c, 0, 64, 89
1, 440786, Control_c, 0, 64, 81
1, 440800, Note_on_c, 0, 74, 47
1, 440801, Control_c, 0, 64, 71
1, 440806, Note_on_c, 0, 46, 45
1, 440809, Note_on_c, 0, 67, 47
1, 440816, Control_c, 0, 64, 60
1, 440817, Note_on_c, 0, 40, 52
1, 440819, Note_on_c, 0, 62, 46
1, 440830, Control_c, 0, 64, 32
1, 440845, Control_c, 0, 64, 0
1, 440920, Control_c, 0, 64, 34
1, 440934, Control_c, 0, 64, 56
1, 440949, Control_c, 0, 64, 63
1, 440965, Control_c, 0, 64, 67
1, 440987, Control_c, 0, 64, 69
1, 441002, Control_c, 0, 64, 72
1, 441017, Control_c, 0, 64, 75
1, 441032, Control_c, 0, 64, 76
1, 441047, Control_c, 0, 64, 78
1, 441061, Control_c, 0, 64, 79
1, 441076, Control_c, 0, 64, 81
1, 441091, Control_c, 0, 64, 82
1, 441106, Control_c, 0, 64, 83
1, 441112, Note_off_c, 0, 40, 58
1, 441115, Note_on_c, 0, 43, 55
1, 441121, Control_c, 0, 64, 83
1, 441135, Control_c, 0, 64, 84
1, 441165, Control_c, 0, 64, 85
1, 441180, Control_c, 0, 64, 86
1, 441194, Control_c, 0, 64, 86
1, 441239, Control_c, 0, 64, 87
1, 441268, Control_c, 0, 64, 87
1, 441278, Note_off_c, 0, 43, 55
1, 441301, Note_off_c, 0, 46, 52
1, 441356, Note_on_c, 0, 50, 49
1, 441363, Note_off_c, 0, 67, 63
1, 441364, Note_on_c, 0, 70, 54
1, 441524, Note_on_c, 0, 46, 50
1, 441546, Note_off_c, 0, 74, 65
1, 441548, Note_on_c, 0, 66, 58
1, 441554, Note_off_c, 0, 50, 36
1, 441650, Note_off_c, 0, 62, 48
1, 441671, Note_off_c, 0, 70, 53
1, 441739, Note_on_c, 0, 54, 63
1, 441753, Note_on_c, 0, 75, 66
1, 441796, Control_c, 0, 64, 87
1, 441797, Note_off_c, 0, 46, 51
1, 441855, Control_c, 0, 64, 86
1, 441973, Control_c, 0, 64, 86
1, 442003, Control_c, 0, 64, 84
1, 442017, Control_c, 0, 64, 82
1, 442032, Control_c, 0, 64, 77
1, 442045, Note_on_c, 0, 60, 62
1, 442047, Note_on_c, 0, 70, 55
1, 442047, Control_c, 0, 64, 71
1, 442057, Note_on_c, 0, 65, 47
1, 442062, Control_c, 0, 64, 64
1, 442077, Control_c, 0, 64, 53
1, 442086, Note_off_c, 0, 54, 61
1, 442091, Control_c, 0, 64, 34
1, 442106, Control_c, 0, 64, 0
1, 442255, Control_c, 0, 64, 65
1, 442270, Control_c, 0, 64, 71
1, 442284, Control_c, 0, 64, 75
1, 442299, Control_c, 0, 64, 79
1, 442301, Note_off_c, 0, 66, 52
1, 442314, Control_c, 0, 64, 82
1, 442328, Control_c, 0, 64, 83
1, 442333, Note_off_c, 0, 65, 64
1, 442340, Note_off_c, 0, 75, 38
1, 442343, Control_c, 0, 64, 84
1, 442373, Control_c, 0, 64, 85
1, 442484, Control_c, 0, 64, 84
1, 442499, Control_c, 0, 64, 82
1, 442514, Control_c, 0, 64, 78
1, 442529, Control_c, 0, 64, 72
1, 442534, Note_on_c, 0, 74, 48
1, 442539, Note_on_c, 0, 64, 38
1, 442543, Control_c, 0, 64, 64
1, 442559, Control_c, 0, 64, 46
1, 442574, Control_c, 0, 64, 18
1, 442589, Control_c, 0, 64, 0
1, 442678, Control_c, 0, 64, 53
1, 442693, Control_c, 0, 64, 64
1, 442707, Control_c, 0, 64, 67
1, 442722, Control_c, 0, 64, 68
1, 442737, Control_c, 0, 64, 70
1, 442753, Control_c, 0, 64, 72
1, 442767, Control_c, 0, 64, 75
1, 442782, Control_c, 0, 64, 78
1, 442797, Control_c, 0, 64, 80
1, 442812, Control_c, 0, 64, 81
1, 442871, Control_c, 0, 64, 80
1, 442886, Control_c, 0, 64, 78
1, 442901, Control_c, 0, 64, 74
1, 442906, Note_on_c, 0, 56, 46
1, 442915, Control_c, 0, 64, 68
1, 442930, Control_c, 0, 64, 63
1, 442945, Control_c, 0, 64, 62
1, 442959, Control_c, 0, 64, 64
1, 442974, Control_c, 0, 64, 65
1, 442989, Control_c, 0, 64, 67
1, 442990, Note_off_c, 0, 74, 61
1, 443004, Control_c, 0, 64, 70
1, 443019, Control_c, 0, 64, 74
1, 443033, Control_c, 0, 64, 77
1, 443043, Note_off_c, 0, 64, 54
1, 443048, Control_c, 0, 64, 79
1, 443063, Control_c, 0, 64, 80
1, 443078, Control_c, 0, 64, 81
1, 443093, Control_c, 0, 64, 81
1, 443108, Control_c, 0, 64, 82
1, 443117, Note_off_c, 0, 70, 60
1, 443122, Control_c, 0, 64, 82
1, 443167, Control_c, 0, 64, 83
1, 443212, Control_c, 0, 64, 83
1, 443293, Control_c, 0, 64, 82
1, 443307, Control_c, 0, 64, 80
1, 443322, Control_c, 0, 64, 75
1, 443337, Control_c, 0, 64, 69
1, 443343, Note_on_c, 0, 75, 49
1, 443346, Note_on_c, 0, 49, 39
1, 443347, Note_on_c, 0, 71, 31
1, 443352, Control_c, 0, 64, 63
1, 443357, Note_on_c, 0, 65, 37
1, 443368, Control_c, 0, 64, 53
1, 443382, Control_c, 0, 64, 44
1, 443397, Control_c, 0, 64, 39
1, 443412, Control_c, 0, 64, 37
1, 443442, Control_c, 0, 64, 39
1, 443456, Control_c, 0, 64, 45
1, 443471, Control_c, 0, 64, 54
1, 443486, Control_c, 0, 64, 62
1, 443501, Control_c, 0, 64, 66
1, 443516, Control_c, 0, 64, 68
1, 443531, Control_c, 0, 64, 71
1, 443546, Control_c, 0, 64, 73
1, 443561, Control_c, 0, 64, 76
1, 443576, Control_c, 0, 64, 78
1, 443590, Control_c, 0, 64, 80
1, 443605, Control_c, 0, 64, 81
1, 443620, Control_c, 0, 64, 82
1, 443635, Control_c, 0, 64, 83
1, 443650, Control_c, 0, 64, 84
1, 443664, Control_c, 0, 64, 85
1, 443679, Control_c, 0, 64, 86
1, 443695, Note_off_c, 0, 56, 37
1, 443709, Control_c, 0, 64, 86
1, 443738, Control_c, 0, 64, 87
1, 443827, Control_c, 0, 64, 85
1, 443842, Control_c, 0, 64, 82
1, 443849, Note_on_c, 0, 53, 42
1, 443856, Control_c, 0, 64, 76
1, 443871, Control_c, 0, 64, 69
1, 443886, Control_c, 0, 64, 64
1, 443901, Control_c, 0, 64, 60
1, 443916, Control_c, 0, 64, 61
1, 443930, Control_c, 0, 64, 63
1, 443945, Control_c, 0, 64, 64
1, 443947, Note_off_c, 0, 49, 40
1, 443960, Control_c, 0, 64, 67
1, 443982, Control_c, 0, 64, 71
1, 443997, Control_c, 0, 64, 74
1, 444012, Control_c, 0, 64, 78
1, 444019, Note_off_c, 0, 65, 43
1, 444027, Control_c, 0, 64, 80
1, 444035, Note_off_c, 0, 71, 62
1, 444042, Control_c, 0, 64, 82
1, 444056, Control_c, 0, 64, 82
1, 444071, Control_c, 0, 64, 83
1, 444074, Note_off_c, 0, 75, 59
1, 444086, Control_c, 0, 64, 83
1, 444115, Control_c, 0, 64, 84
1, 444130, Control_c, 0, 64, 84
1, 444145, Control_c, 0, 64, 85
1, 444176, Control_c, 0, 64, 85
1, 444235, Control_c, 0, 64, 86
1, 444309, Control_c, 0, 64, 86
1, 444324, Control_c, 0, 64, 87
1, 444407, Note_off_c, 0, 53, 38
1, 444442, Control_c, 0, 64, 84
1, 444453, Note_on_c, 0, 74, 40
1, 444457, Control_c, 0, 64, 79
1, 444460, Note_on_c, 0, 70, 32
1, 444462, Note_on_c, 0, 64, 37
1, 444467, Note_on_c, 0, 54, 34
1, 444471, Control_c, 0, 64, 72
1, 444486, Control_c, 0, 64, 65
1, 444501, Control_c, 0, 64, 58
1, 444509, Note_off_c, 0, 64, 0
1, 444509, Note_on_c, 0, 64, 8
1, 444516, Control_c, 0, 64, 52
1, 444523, Note_off_c, 0, 70, 0
1, 444523, Note_on_c, 0, 70, 4
1, 444530, Control_c, 0, 64, 52
1, 444545, Control_c, 0, 64, 55
1, 444560, Control_c, 0, 64, 58
1, 444575, Control_c, 0, 64, 63
1, 444590, Control_c, 0, 64, 67
1, 444604, Control_c, 0, 64, 71
1, 444604, Control_c, 0, 67, 8
1, 444619, Control_c, 0, 64, 77
1, 444619, Control_c, 0, 67, 11
1, 444634, Control_c, 0, 64, 81
1, 444634, Control_c, 0, 67, 16
1, 444649, Control_c, 0, 64, 84
1, 444649, Control_c, 0, 67, 21
1, 444664, Control_c, 0, 64, 85
1, 444664, Control_c, 0, 67, 29
1, 444670, Note_off_c, 0, 64, 48
1, 444678, Control_c, 0, 64, 86
1, 444678, Control_c, 0, 67, 37
1, 444693, Control_c, 0, 64, 87
1, 444693, Control_c, 0, 67, 44
1, 444700, Note_off_c, 0, 74, 62
1, 444708, Control_c, 0, 64, 88
1, 444708, Control_c, 0, 67, 52
1, 444723, Control_c, 0, 64, 88
1, 444723, Control_c, 0, 67, 59
1, 444745, Note_off_c, 0, 54, 51
1, 444745, Control_c, 0, 67, 67
1, 444760, Control_c, 0, 67, 75
1, 444770, Note_off_c, 0, 70, 45
1, 444775, Control_c, 0, 67, 84
1, 444790, Control_c, 0, 67, 92
1, 444804, Control_c, 0, 67, 99
1, 444819, Control_c, 0, 67, 105
1, 444834, Control_c, 0, 67, 111
1, 444849, Control_c, 0, 67, 116
1, 444864, Control_c, 0, 67, 121
1, 444878, Note_off_c, 0, 60, 35
1, 444878, Control_c, 0, 67, 127
1, 445235, Control_c, 0, 64, 88
1, 445250, Control_c, 0, 64, 86
1, 445265, Control_c, 0, 64, 83
1, 445280, Control_c, 0, 64, 78
1, 445290, Note_on_c, 0, 47, 44
1, 445293, Note_on_c, 0, 73, 58
1, 445295, Control_c, 0, 64, 71
1, 445300, Note_on_c, 0, 69, 46
1, 445307, Note_on_c, 0, 63, 39
1, 445309, Control_c, 0, 64, 65
1, 445324, Control_c, 0, 64, 62
1, 445339, Control_c, 0, 64, 60
1, 445353, Control_c, 0, 64, 58
1, 445368, Control_c, 0, 64, 55
1, 445383, Control_c, 0, 64, 48
1, 445398, Control_c, 0, 64, 20
1, 445413, Control_c, 0, 64, 0
1, 445642, Control_c, 0, 64, 46
1, 445657, Control_c, 0, 64, 65
1, 445672, Control_c, 0, 64, 69
1, 445687, Control_c, 0, 64, 73
1, 445702, Control_c, 0, 64, 76
1, 445716, Control_c, 0, 64, 80
1, 445731, Control_c, 0, 64, 84
1, 445747, Control_c, 0, 64, 86
1, 445763, Control_c, 0, 64, 88
1, 445777, Control_c, 0, 64, 89
1, 445792, Control_c, 0, 64, 90
1, 445807, Control_c, 0, 64, 91
1, 445822, Control_c, 0, 64, 92
1, 445837, Control_c, 0, 64, 93
1, 445851, Control_c, 0, 64, 93
1, 445866, Control_c, 0, 64, 94
1, 445881, Control_c, 0, 64, 94
1, 445910, Note_on_c, 0, 78, 59
1, 445911, Control_c, 0, 64, 95
1, 445932, Note_off_c, 0, 63, 36
1, 446022, Note_off_c, 0, 69, 65
1, 446038, Note_off_c, 0, 73, 61
1, 446377, Control_c, 0, 64, 93
1, 446392, Control_c, 0, 64, 89
1, 446407, Control_c, 0, 64, 84
1, 446410, Note_on_c, 0, 72, 51
1, 446421, Note_on_c, 0, 57, 35
1, 446422, Control_c, 0, 64, 78
1, 446424, Note_on_c, 0, 64, 34
1, 446425, Note_on_c, 0, 68, 43
1, 446437, Control_c, 0, 64, 72
1, 446451, Control_c, 0, 64, 67
1, 446466, Control_c, 0, 64, 63
1, 446481, Control_c, 0, 64, 62
1, 446496, Control_c, 0, 64, 61
1, 446513, Note_off_c, 0, 78, 54
1, 446525, Control_c, 0, 64, 61
1, 446540, Control_c, 0, 64, 59
1, 446556, Control_c, 0, 64, 58
1, 446571, Control_c, 0, 64, 58
1, 446586, Control_c, 0, 64, 60
1, 446600, Control_c, 0, 64, 62
1, 446615, Control_c, 0, 64, 64
1, 446630, Control_c, 0, 64, 65
1, 446645, Control_c, 0, 64, 67
1, 446660, Control_c, 0, 64, 68
1, 446674, Control_c, 0, 64, 70
1, 446689, Control_c, 0, 64, 72
1, 446704, Control_c, 0, 64, 73
1, 446719, Control_c, 0, 64, 74
1, 446734, Control_c, 0, 64, 74
1, 446748, Control_c, 0, 64, 75
1, 446763, Control_c, 0, 64, 76
1, 446778, Control_c, 0, 64, 77
1, 446779, Poly_aftertouch_c, 0, 48, 127
1, 446793, Control_c, 0, 64, 78
1, 446807, Control_c, 0, 64, 78
1, 446852, Control_c, 0, 64, 79
1, 446867, Control_c, 0, 64, 79
1, 446881, Control_c, 0, 64, 80
1, 446896, Control_c, 0, 64, 81
1, 446897, Note_off_c, 0, 57, 55
1, 446911, Control_c, 0, 64, 81
1, 446938, Note_on_c, 0, 62, 37
1, 446956, Control_c, 0, 64, 82
1, 446993, Control_c, 0, 64, 82
1, 447081, Control_c, 0, 64, 83
1, 447349, Control_c, 0, 64, 82
1, 447364, Control_c, 0, 64, 82
1, 447379, Control_c, 0, 64, 80
1, 447394, Control_c, 0, 64, 78
1, 447409, Control_c, 0, 64, 76
1, 447412, Note_on_c, 0, 56, 30
1, 447416, Note_off_c, 0, 62, 38
1, 447423, Control_c, 0, 64, 72
1, 447438, Control_c, 0, 64, 69
1, 447453, Control_c, 0, 64, 65
1, 447468, Control_c, 0, 64, 62
1, 447476, Poly_aftertouch_c, 0, 48, 0
1, 447483, Control_c, 0, 64, 61
1, 447527, Control_c, 0, 64, 60
1, 447556, Control_c, 0, 64, 61
1, 447571, Control_c, 0, 64, 62
1, 447586, Control_c, 0, 64, 64
1, 447601, Control_c, 0, 64, 65
1, 447616, Control_c, 0, 64, 68
1, 447630, Control_c, 0, 64, 71
1, 447645, Control_c, 0, 64, 74
1, 447660, Control_c, 0, 64, 76
1, 447675, Control_c, 0, 64, 77
1, 447690, Control_c, 0, 64, 78
1, 447704, Control_c, 0, 64, 80
1, 447727, Control_c, 0, 64, 81
1, 447742, Control_c, 0, 64, 82
1, 447756, Control_c, 0, 64, 82
1, 447786, Control_c, 0, 64, 83
1, 447801, Control_c, 0, 64, 83
1, 447816, Control_c, 0, 64, 84
1, 447830, Control_c, 0, 64, 84
1, 447860, Control_c, 0, 64, 85
1, 447890, Control_c, 0, 64, 85
1, 447901, Note_on_c, 0, 73, 58
1, 447905, Note_off_c, 0, 56, 41
1, 447932, Note_off_c, 0, 72, 64
1, 447934, Control_c, 0, 64, 86
1, 447984, Note_off_c, 0, 68, 63
1, 448023, Control_c, 0, 64, 86
1, 448053, Control_c, 0, 64, 87
1, 448059, Note_off_c, 0, 64, 41
1, 448350, Control_c, 0, 64, 86
1, 448365, Control_c, 0, 64, 84
1, 448379, Control_c, 0, 64, 81
1, 448394, Control_c, 0, 64, 77
1, 448401, Note_on_c, 0, 79, 63
1, 448409, Control_c, 0, 64, 71
1, 448424, Control_c, 0, 64, 65
1, 448425, Note_on_c, 0, 59, 20
1, 448425, Note_on_c, 0, 56, 33
1, 448426, Note_on_c, 0, 71, 34
1, 448429, Note_on_c, 0, 67, 35
1, 448439, Control_c, 0, 64, 59
1, 448445, Note_off_c, 0, 73, 57
1, 448453, Control_c, 0, 64, 54
1, 448476, Control_c, 0, 64, 54
1, 448506, Control_c, 0, 64, 53
1, 448521, Control_c, 0, 64, 50
1, 448535, Control_c, 0, 64, 49
1, 448550, Control_c, 0, 64, 50
1, 448565, Control_c, 0, 64, 55
1, 448579, Control_c, 0, 64, 63
1, 448594, Control_c, 0, 64, 68
1, 448609, Control_c, 0, 64, 73
1, 448624, Control_c, 0, 64, 78
1, 448639, Control_c, 0, 64, 83
1, 448643, Note_off_c, 0, 67, 61
1, 448653, Control_c, 0, 64, 86
1, 448668, Control_c, 0, 64, 89
1, 448683, Control_c, 0, 64, 90
1, 448685, Note_off_c, 0, 79, 59
1, 448697, Control_c, 0, 64, 92
1, 448712, Control_c, 0, 64, 92
1, 448715, Note_off_c, 0, 56, 55
1, 448727, Control_c, 0, 64, 93
1, 448735, Note_off_c, 0, 71, 41
1, 448741, Control_c, 0, 64, 93
1, 448756, Control_c, 0, 64, 94
1, 448771, Control_c, 0, 64, 94
1, 448943, Note_on_c, 0, 63, 29
1, 449357, Control_c, 0, 64, 93
1, 449372, Control_c, 0, 64, 91
1, 449387, Control_c, 0, 64, 88
1, 449401, Control_c, 0, 64, 84
1, 449414, Note_on_c, 0, 71, 43
1, 449416, Control_c, 0, 64, 80
1, 449431, Control_c, 0, 64, 75
1, 449443, Note_on_c, 0, 55, 29
1, 449446, Control_c, 0, 64, 71
1, 449461, Control_c, 0, 64, 68
1, 449475, Control_c, 0, 64, 67
1, 449479, Note_off_c, 0, 59, 53
1, 449491, Control_c, 0, 64, 66
1, 449546, Note_off_c, 0, 63, 42
1, 449550, Control_c, 0, 64, 65
1, 449639, Control_c, 0, 64, 66
1, 449654, Control_c, 0, 64, 66
1, 449669, Control_c, 0, 64, 69
1, 449683, Control_c, 0, 64, 72
1, 449698, Control_c, 0, 64, 76
1, 449713, Control_c, 0, 64, 81
1, 449728, Control_c, 0, 64, 84
1, 449743, Control_c, 0, 64, 86
1, 449758, Control_c, 0, 64, 88
1, 449773, Control_c, 0, 64, 89
1, 449788, Control_c, 0, 64, 90
1, 449790, Note_off_c, 0, 71, 56
1, 449803, Control_c, 0, 64, 90
1, 449818, Control_c, 0, 64, 91
1, 449832, Control_c, 0, 64, 91
1, 449850, Note_off_c, 0, 55, 41
1, 449862, Control_c, 0, 64, 92
1, 449973, Control_c, 0, 64, 92
1, 450105, Note_on_c, 0, 71, 42
1, 450390, Note_on_c, 0, 77, 55
1, 450408, Note_on_c, 0, 63, 39
1, 450418, Note_on_c, 0, 55, 33
1, 450564, Note_off_c, 0, 63, 42
1, 450592, Note_on_c, 0, 75, 63
1, 450610, Control_c, 0, 64, 93
1, 450640, Control_c, 0, 64, 93
1, 450670, Control_c, 0, 64, 94
1, 450670, Note_off_c, 0, 71, 30
1, 450721, Control_c, 0, 64, 94
1, 450780, Control_c, 0, 64, 95
1, 450785, Note_off_c, 0, 77, 28
1, 450787, Note_off_c, 0, 55, 41
1, 450800, Note_on_c, 0, 71, 62
1, 450870, Control_c, 0, 64, 95
1, 450994, Note_off_c, 0, 75, 58
1, 450995, Note_on_c, 0, 67, 64
1, 451005, Note_off_c, 0, 71, 61
1, 451008, Note_on_c, 0, 55, 40
1, 451039, Note_off_c, 0, 47, 42
1, 451046, Note_off_c, 0, 67, 60
1, 451198, Note_off_c, 0, 55, 42
1, 451239, Control_c, 0, 64, 95
1, 451254, Control_c, 0, 64, 93
1, 451269, Control_c, 0, 64, 90
1, 451274, Note_on_c, 0, 65, 63
1, 451281, Note_on_c, 0, 63, 57
1, 451284, Control_c, 0, 64, 85
1, 451284, Note_on_c, 0, 57, 43
1, 451287, Note_on_c, 0, 47, 41
1, 451296, Note_on_c, 0, 59, 51
1, 451299, Control_c, 0, 64, 80
1, 451314, Control_c, 0, 64, 76
1, 451329, Control_c, 0, 64, 72
1, 451344, Control_c, 0, 64, 68
1, 451359, Control_c, 0, 64, 65
1, 451374, Control_c, 0, 64, 64
1, 451388, Control_c, 0, 64, 63
1, 451403, Control_c, 0, 64, 63
1, 451418, Control_c, 0, 64, 61
1, 451433, Control_c, 0, 64, 58
1, 451448, Control_c, 0, 64, 55
1, 451470, Control_c, 0, 64, 52
1, 451485, Control_c, 0, 64, 51
1, 451515, Control_c, 0, 64, 49
1, 451529, Control_c, 0, 64, 44
1, 451544, Control_c, 0, 64, 39
1, 451559, Control_c, 0, 64, 39
1, 451574, Control_c, 0, 64, 43
1, 451589, Control_c, 0, 64, 48
1, 451603, Control_c, 0, 64, 51
1, 451618, Control_c, 0, 64, 53
1, 451633, Control_c, 0, 64, 53
1, 451648, Control_c, 0, 64, 55
1, 451663, Control_c, 0, 64, 57
1, 451678, Control_c, 0, 64, 59
1, 451693, Control_c, 0, 64, 60
1, 451707, Control_c, 0, 64, 60
1, 451746, Note_on_c, 0, 66, 64
1, 451752, Control_c, 0, 64, 59
1, 451767, Control_c, 0, 64, 59
1, 451774, Note_off_c, 0, 65, 65
1, 451782, Control_c, 0, 64, 58
1, 451796, Control_c, 0, 64, 57
1, 451811, Control_c, 0, 64, 56
1, 451826, Control_c, 0, 64, 57
1, 451856, Control_c, 0, 64, 58
1, 451870, Control_c, 0, 64, 59
1, 451885, Control_c, 0, 64, 63
1, 451900, Control_c, 0, 64, 67
1, 451914, Control_c, 0, 64, 73
1, 451929, Control_c, 0, 64, 78
1, 451944, Control_c, 0, 64, 81
1, 451946, Note_off_c, 0, 47, 50
1, 451959, Control_c, 0, 64, 83
1, 451974, Control_c, 0, 64, 85
1, 451988, Control_c, 0, 64, 87
1, 452003, Control_c, 0, 64, 88
1, 452018, Control_c, 0, 64, 89
1, 452033, Control_c, 0, 64, 89
1, 452062, Control_c, 0, 64, 90
1, 452077, Control_c, 0, 64, 90
1, 452092, Control_c, 0, 64, 91
1, 452107, Control_c, 0, 64, 91
1, 452197, Control_c, 0, 64, 91
1, 452219, Control_c, 0, 64, 90
1, 452234, Control_c, 0, 64, 88
1, 452235, Note_on_c, 0, 45, 45
1, 452235, Note_on_c, 0, 71, 54
1, 452249, Control_c, 0, 64, 85
1, 452264, Control_c, 0, 64, 81
1, 452279, Control_c, 0, 64, 76
1, 452293, Control_c, 0, 64, 71
1, 452308, Control_c, 0, 64, 67
1, 452323, Control_c, 0, 64, 65
1, 452331, Note_off_c, 0, 66, 62
1, 452338, Control_c, 0, 64, 64
1, 452367, Control_c, 0, 64, 64
1, 452382, Control_c, 0, 64, 63
1, 452397, Control_c, 0, 64, 63
1, 452456, Control_c, 0, 64, 63
1, 452487, Control_c, 0, 64, 64
1, 452516, Control_c, 0, 64, 64
1, 452531, Control_c, 0, 64, 65
1, 452545, Control_c, 0, 64, 65
1, 452575, Control_c, 0, 64, 66
1, 452590, Control_c, 0, 64, 66
1, 452629, Note_off_c, 0, 57, 49
1, 452635, Control_c, 0, 64, 67
1, 452738, Control_c, 0, 64, 68
1, 452751, Note_on_c, 0, 53, 37
1, 452753, Control_c, 0, 64, 70
1, 452768, Control_c, 0, 64, 72
1, 452783, Control_c, 0, 64, 75
1, 452798, Control_c, 0, 64, 78
1, 452812, Control_c, 0, 64, 80
1, 452827, Control_c, 0, 64, 81
1, 452842, Control_c, 0, 64, 83
1, 452857, Control_c, 0, 64, 84
1, 452861, Note_off_c, 0, 45, 53
1, 452871, Control_c, 0, 64, 85
1, 452886, Control_c, 0, 64, 85
1, 452901, Control_c, 0, 64, 86
1, 452931, Control_c, 0, 64, 86
1, 452968, Control_c, 0, 64, 87
1, 452983, Control_c, 0, 64, 87
1, 453191, Control_c, 0, 64, 87
1, 453206, Control_c, 0, 64, 86
1, 453221, Control_c, 0, 64, 84
1, 453236, Control_c, 0, 64, 81
1, 453250, Control_c, 0, 64, 78
1, 453255, Note_on_c, 0, 44, 43
1, 453265, Control_c, 0, 64, 75
1, 453280, Control_c, 0, 64, 71
1, 453295, Control_c, 0, 64, 68
1, 453310, Control_c, 0, 64, 65
1, 453324, Control_c, 0, 64, 64
1, 453339, Control_c, 0, 64, 63
1, 453354, Control_c, 0, 64, 62
1, 453368, Control_c, 0, 64, 62
1, 453383, Control_c, 0, 64, 61
1, 453398, Control_c, 0, 64, 60
1, 453413, Control_c, 0, 64, 60
1, 453428, Control_c, 0, 64, 60
1, 453442, Control_c, 0, 64, 62
1, 453457, Control_c, 0, 64, 63
1, 453472, Control_c, 0, 64, 66
1, 453487, Control_c, 0, 64, 69
1, 453494, Note_off_c, 0, 71, 38
1, 453502, Control_c, 0, 64, 73
1, 453517, Control_c, 0, 64, 77
1, 453532, Control_c, 0, 64, 79
1, 453547, Control_c, 0, 64, 81
1, 453561, Control_c, 0, 64, 82
1, 453576, Control_c, 0, 64, 83
1, 453591, Control_c, 0, 64, 85
1, 453606, Control_c, 0, 64, 85
1, 453621, Control_c, 0, 64, 86
1, 453635, Control_c, 0, 64, 86
1, 453694, Control_c, 0, 64, 87
1, 453813, Note_on_c, 0, 71, 50
1, 453876, Note_off_c, 0, 63, 61
1, 453932, Note_off_c, 0, 59, 38
1, 453970, Control_c, 0, 64, 87
1, 454345, Note_on_c, 0, 63, 45
1, 454366, Note_on_c, 0, 59, 36
1, 454613, Note_off_c, 0, 44, 51
1, 454808, Note_off_c, 0, 59, 39
1, 455073, Control_c, 0, 64, 88
1, 455251, Note_on_c, 0, 59, 41
1, 455526, Control_c, 0, 64, 88
1, 455541, Control_c, 0, 64, 89
1, 455556, Control_c, 0, 64, 89
1, 455586, Control_c, 0, 64, 90
1, 455601, Control_c, 0, 64, 90
1, 455612, Note_off_c, 0, 71, 32
1, 455628, Note_off_c, 0, 53, 41
1, 455630, Control_c, 0, 64, 91
1, 455645, Control_c, 0, 64, 91
1, 455675, Control_c, 0, 64, 92
1, 455704, Control_c, 0, 64, 92
1, 455803, Note_off_c, 0, 59, 48
1, 455896, Control_c, 0, 64, 93
1, 455942, Note_on_c, 0, 59, 47
1, 456012, Note_off_c, 0, 59, 61
1, 456052, Control_c, 0, 64, 93
1, 456067, Control_c, 0, 64, 94
1, 456082, Control_c, 0, 64, 94
1, 456096, Control_c, 0, 64, 95
1, 456111, Control_c, 0, 64, 95
1, 456186, Control_c, 0, 64, 95
1, 456201, Control_c, 0, 64, 91
1, 456210, Note_on_c, 0, 65, 53
1, 456211, Note_on_c, 0, 58, 45
1, 456216, Control_c, 0, 64, 85
1, 456221, Note_on_c, 0, 49, 44
1, 456223, Note_on_c, 0, 59, 44
1, 456231, Control_c, 0, 64, 76
1, 456246, Control_c, 0, 64, 69
1, 456250, Note_off_c, 0, 63, 63
1, 456260, Control_c, 0, 64, 62
1, 456275, Control_c, 0, 64, 54
1, 456290, Control_c, 0, 64, 53
1, 456305, Control_c, 0, 64, 56
1, 456319, Control_c, 0, 64, 59
1, 456334, Control_c, 0, 64, 62
1, 456349, Control_c, 0, 64, 64
1, 456364, Control_c, 0, 64, 67
1, 456379, Control_c, 0, 64, 71
1, 456393, Control_c, 0, 64, 75
1, 456408, Control_c, 0, 64, 79
1, 456423, Control_c, 0, 64, 81
1, 456438, Control_c, 0, 64, 83
1, 456445, Note_on_c, 0, 56, 52
1, 456453, Control_c, 0, 64, 85
1, 456464, Note_off_c, 0, 58, 37
1, 456468, Control_c, 0, 64, 87
1, 456483, Control_c, 0, 64, 89
1, 456498, Control_c, 0, 64, 90
1, 456512, Control_c, 0, 64, 90
1, 456542, Control_c, 0, 64, 91
1, 456557, Control_c, 0, 64, 91
1, 456572, Control_c, 0, 64, 92
1, 456626, Note_off_c, 0, 56, 59
1, 456641, Note_on_c, 0, 66, 67
1, 456653, Note_off_c, 0, 49, 50
1, 456664, Note_on_c, 0, 50, 53
1, 456808, Note_off_c, 0, 65, 52
1, 456818, Note_off_c, 0, 50, 28
1, 456888, Note_on_c, 0, 47, 54
1, 456947, Note_off_c, 0, 59, 50
1, 456989, Note_off_c, 0, 66, 64
1, 457202, Control_c, 0, 64, 91
1, 457216, Control_c, 0, 64, 88
1, 457231, Control_c, 0, 64, 85
1, 457234, Note_on_c, 0, 71, 62
1, 457239, Note_on_c, 0, 45, 40
1, 457244, Note_on_c, 0, 66, 51
1, 457246, Note_on_c, 0, 59, 45
1, 457246, Control_c, 0, 64, 80
1, 457250, Note_on_c, 0, 62, 46
1, 457261, Control_c, 0, 64, 74
1, 457276, Control_c, 0, 64, 68
1, 457291, Control_c, 0, 64, 65
1, 457295, Note_off_c, 0, 62, 0
1, 457295, Note_on_c, 0, 62, 6
1, 457303, Note_off_c, 0, 47, 37
1, 457306, Control_c, 0, 64, 63
1, 457320, Control_c, 0, 64, 61
1, 457335, Control_c, 0, 64, 61
1, 457350, Control_c, 0, 64, 59
1, 457365, Control_c, 0, 64, 56
1, 457380, Control_c, 0, 64, 51
1, 457395, Control_c, 0, 64, 46
1, 457409, Control_c, 0, 64, 45
1, 457490, Control_c, 0, 64, 46
1, 457505, Control_c, 0, 64, 49
1, 457520, Control_c, 0, 64, 50
1, 457535, Control_c, 0, 64, 52
1, 457550, Control_c, 0, 64, 54
1, 457565, Control_c, 0, 64, 57
1, 457580, Control_c, 0, 64, 60
1, 457595, Control_c, 0, 64, 62
1, 457609, Control_c, 0, 64, 63
1, 457624, Control_c, 0, 64, 64
1, 457639, Control_c, 0, 64, 64
1, 457654, Control_c, 0, 64, 65
1, 457668, Control_c, 0, 64, 65
1, 457713, Control_c, 0, 64, 66
1, 458096, Note_on_c, 0, 43, 38
1, 458145, Note_off_c, 0, 45, 59
1, 458225, Control_c, 0, 64, 66
1, 458269, Control_c, 0, 64, 67
1, 458298, Control_c, 0, 64, 67
1, 458313, Control_c, 0, 64, 68
1, 458325, Note_off_c, 0, 71, 31
1, 458328, Control_c, 0, 64, 69
1, 458343, Control_c, 0, 64, 71
1, 458358, Control_c, 0, 64, 72
1, 458373, Control_c, 0, 64, 73
1, 458388, Control_c, 0, 64, 75
1, 458403, Control_c, 0, 64, 76
1, 458417, Control_c, 0, 64, 79
1, 458432, Control_c, 0, 64, 81
1, 458447, Control_c, 0, 64, 82
1, 458462, Control_c, 0, 64, 84
1, 458477, Control_c, 0, 64, 84
1, 458491, Control_c, 0, 64, 85
1, 458506, Control_c, 0, 64, 85
1, 458521, Control_c, 0, 64, 87
1, 458537, Control_c, 0, 64, 87
1, 458552, Control_c, 0, 64, 88
1, 458567, Control_c, 0, 64, 88
1, 458610, Note_on_c, 0, 71, 48
1, 458641, Control_c, 0, 64, 89
1, 458659, Note_off_c, 0, 66, 61
1, 458688, Note_off_c, 0, 62, 40
1, 458710, Note_off_c, 0, 59, 39
1, 458959, Control_c, 0, 64, 88
1, 458974, Control_c, 0, 64, 88
1, 458988, Control_c, 0, 64, 87
1, 459003, Control_c, 0, 64, 87
1, 459018, Control_c, 0, 64, 86
1, 459033, Control_c, 0, 64, 85
1, 459048, Control_c, 0, 64, 84
1, 459062, Control_c, 0, 64, 83
1, 459076, Note_on_c, 0, 64, 52
1, 459077, Control_c, 0, 64, 82
1, 459088, Note_on_c, 0, 59, 25
1, 459091, Note_on_c, 0, 62, 35
1, 459092, Control_c, 0, 64, 81
1, 459106, Control_c, 0, 64, 81
1, 459121, Control_c, 0, 64, 80
1, 459136, Control_c, 0, 64, 79
1, 459151, Control_c, 0, 64, 79
1, 459166, Control_c, 0, 64, 78
1, 459181, Control_c, 0, 64, 77
1, 459195, Control_c, 0, 64, 76
1, 459210, Control_c, 0, 64, 75
1, 459225, Control_c, 0, 64, 75
1, 459240, Control_c, 0, 64, 74
1, 459255, Control_c, 0, 64, 73
1, 459270, Control_c, 0, 64, 73
1, 459273, Note_off_c, 0, 71, 52
1, 459285, Control_c, 0, 64, 72
1, 459300, Control_c, 0, 64, 72
1, 459314, Control_c, 0, 64, 71
1, 459359, Control_c, 0, 64, 71
1, 459374, Control_c, 0, 64, 70
1, 459419, Control_c, 0, 64, 70
1, 459464, Control_c, 0, 64, 69
1, 459478, Control_c, 0, 64, 69
1, 459508, Control_c, 0, 64, 68
1, 459523, Control_c, 0, 64, 68
1, 459537, Control_c, 0, 64, 67
1, 459552, Control_c, 0, 64, 66
1, 459567, Control_c, 0, 64, 66
1, 459582, Control_c, 0, 64, 65
1, 459597, Control_c, 0, 64, 65
1, 459611, Control_c, 0, 64, 64
1, 459626, Control_c, 0, 64, 64
1, 459641, Control_c, 0, 64, 63
1, 459656, Control_c, 0, 64, 62
1, 459671, Control_c, 0, 64, 59
1, 459685, Control_c, 0, 64, 56
1, 459708, Control_c, 0, 64, 52
1, 459723, Control_c, 0, 64, 48
1, 459737, Control_c, 0, 64, 39
1, 459752, Control_c, 0, 64, 0
1, 460003, Note_on_c, 0, 42, 34
1, 460052, Note_off_c, 0, 43, 42
1, 460375, Control_c, 0, 64, 28
1, 460390, Control_c, 0, 64, 49
1, 460405, Control_c, 0, 64, 56
1, 460420, Control_c, 0, 64, 62
1, 460434, Control_c, 0, 64, 65
1, 460456, Control_c, 0, 64, 66
1, 460471, Control_c, 0, 64, 67
1, 460486, Control_c, 0, 64, 68
1, 460501, Control_c, 0, 64, 68
1, 460507, Note_on_c, 0, 66, 47
1, 460516, Control_c, 0, 64, 69
1, 460531, Control_c, 0, 64, 71
1, 460546, Control_c, 0, 64, 72
1, 460560, Control_c, 0, 64, 73
1, 460570, Note_off_c, 0, 64, 52
1, 460575, Control_c, 0, 64, 75
1, 460590, Control_c, 0, 64, 76
1, 460605, Control_c, 0, 64, 77
1, 460620, Control_c, 0, 64, 79
1, 460634, Control_c, 0, 64, 81
1, 460637, Note_off_c, 0, 62, 39
1, 460638, Note_off_c, 0, 59, 40
1, 460649, Control_c, 0, 64, 83
1, 460664, Control_c, 0, 64, 84
1, 460678, Control_c, 0, 64, 84
1, 460693, Control_c, 0, 64, 85
1, 460708, Control_c, 0, 64, 86
1, 460723, Control_c, 0, 64, 87
1, 460738, Control_c, 0, 64, 87
1, 460752, Control_c, 0, 64, 88
1, 460782, Control_c, 0, 64, 88
1, 460812, Control_c, 0, 64, 89
1, 460841, Control_c, 0, 64, 89
1, 461005, Control_c, 0, 64, 88
1, 461020, Control_c, 0, 64, 85
1, 461035, Control_c, 0, 64, 81
1, 461050, Control_c, 0, 64, 74
1, 461065, Control_c, 0, 64, 67
1, 461070, Note_off_c, 0, 66, 44
1, 461079, Control_c, 0, 64, 61
1, 461084, Note_off_c, 0, 42, 41
1, 461085, Note_on_c, 0, 69, 49
1, 461085, Note_on_c, 0, 40, 41
1, 461087, Note_on_c, 0, 58, 36
1, 461094, Control_c, 0, 64, 53
1, 461095, Note_on_c, 0, 62, 39
1, 461109, Control_c, 0, 64, 50
1, 461124, Control_c, 0, 64, 43
1, 461139, Control_c, 0, 64, 16
1, 461154, Control_c, 0, 64, 0
1, 461324, Control_c, 0, 64, 54
1, 461339, Control_c, 0, 64, 63
1, 461354, Control_c, 0, 64, 65
1, 461369, Control_c, 0, 64, 66
1, 461383, Control_c, 0, 64, 68
1, 461398, Control_c, 0, 64, 72
1, 461413, Control_c, 0, 64, 76
1, 461423, Note_on_c, 0, 67, 52
1, 461428, Control_c, 0, 64, 80
1, 461443, Control_c, 0, 64, 84
1, 461443, Note_off_c, 0, 62, 50
1, 461457, Control_c, 0, 64, 85
1, 461472, Control_c, 0, 64, 87
1, 461483, Note_off_c, 0, 69, 39
1, 461487, Control_c, 0, 64, 88
1, 461502, Control_c, 0, 64, 90
1, 461516, Control_c, 0, 64, 91
1, 461531, Control_c, 0, 64, 92
1, 461546, Control_c, 0, 64, 93
1, 461589, Note_off_c, 0, 58, 40
1, 461600, Note_off_c, 0, 40, 42
1, 461665, Note_on_c, 0, 62, 55
1, 461681, Note_off_c, 0, 67, 58
1, 461843, Note_off_c, 0, 62, 61
1, 461862, Note_on_c, 0, 58, 61
1, 462028, Control_c, 0, 64, 92
1, 462043, Control_c, 0, 64, 88
1, 462057, Control_c, 0, 64, 81
1, 462062, Note_on_c, 0, 54, 63
1, 462072, Control_c, 0, 64, 74
1, 462073, Note_on_c, 0, 57, 50
1, 462087, Control_c, 0, 64, 68
1, 462102, Control_c, 0, 64, 64
1, 462104, Note_off_c, 0, 58, 60
1, 462132, Control_c, 0, 64, 66
1, 462147, Control_c, 0, 64, 68
1, 462161, Control_c, 0, 64, 72
1, 462176, Control_c, 0, 64, 76
1, 462191, Control_c, 0, 64, 78
1, 462206, Control_c, 0, 64, 80
1, 462221, Control_c, 0, 64, 83
1, 462236, Control_c, 0, 64, 85
1, 462251, Control_c, 0, 64, 87
1, 462266, Control_c, 0, 64, 88
1, 462269, Note_on_c, 0, 55, 51
1, 462279, Note_off_c, 0, 57, 61
1, 462281, Control_c, 0, 64, 89
1, 462296, Control_c, 0, 64, 90
1, 462308, Note_off_c, 0, 55, 64
1, 462311, Control_c, 0, 64, 91
1, 462325, Control_c, 0, 64, 91
1, 462340, Control_c, 0, 64, 92
1, 462355, Control_c, 0, 64, 92
1, 462400, Control_c, 0, 64, 93
1, 462434, Note_on_c, 0, 55, 61
1, 462444, Note_on_c, 0, 50, 53
1, 462444, Control_c, 0, 64, 93
1, 462451, Note_off_c, 0, 54, 61
1, 462473, Control_c, 0, 64, 94
1, 462488, Control_c, 0, 64, 94
1, 462503, Control_c, 0, 64, 95
1, 462518, Control_c, 0, 64, 95
1, 462534, Control_c, 0, 64, 96
1, 462548, Control_c, 0, 64, 96
1, 462563, Control_c, 0, 64, 97
1, 462578, Control_c, 0, 64, 98
1, 462584, Note_off_c, 0, 50, 59
1, 462593, Control_c, 0, 64, 100
1, 462597, Note_off_c, 0, 55, 59
1, 462608, Control_c, 0, 64, 101
1, 462622, Control_c, 0, 64, 102
1, 462637, Control_c, 0, 64, 103
1, 462652, Control_c, 0, 64, 103
1, 462667, Control_c, 0, 64, 104
1, 462681, Control_c, 0, 64, 104
1, 462704, Control_c, 0, 64, 105
1, 462719, Control_c, 0, 64, 105
1, 462734, Control_c, 0, 64, 106
1, 462785, Note_on_c, 0, 45, 63
1, 462788, Note_on_c, 0, 50, 64
1, 462790, Note_on_c, 0, 53, 62
1, 462795, Note_on_c, 0, 56, 64
1, 462823, Control_c, 0, 64, 104
1, 462837, Control_c, 0, 64, 101
1, 462852, Control_c, 0, 64, 96
1, 462867, Control_c, 0, 64, 92
1, 462881, Control_c, 0, 64, 87
1, 462896, Control_c, 0, 64, 84
1, 462911, Control_c, 0, 64, 81
1, 462926, Control_c, 0, 64, 79
1, 462941, Control_c, 0, 64, 78
1, 462955, Control_c, 0, 64, 78
1, 462969, Note_on_c, 0, 41, 63
1, 462969, Control_c, 0, 64, 77
1, 462984, Control_c, 0, 64, 77
1, 462987, Note_off_c, 0, 45, 60
1, 463014, Control_c, 0, 64, 76
1, 463132, Control_c, 0, 64, 76
1, 463136, Note_off_c, 0, 53, 65
1, 463137, Note_on_c, 0, 57, 72
1, 463145, Note_on_c, 0, 40, 71
1, 463147, Control_c, 0, 64, 74
1, 463154, Note_off_c, 0, 41, 65
1, 463162, Control_c, 0, 64, 73
1, 463177, Note_off_c, 0, 56, 63
1, 463177, Control_c, 0, 64, 72
1, 463184, Note_off_c, 0, 50, 59
1, 463192, Control_c, 0, 64, 71
1, 463282, Note_off_c, 0, 40, 64
1, 463300, Note_on_c, 0, 38, 76
1, 463356, Control_c, 0, 64, 72
1, 463370, Control_c, 0, 64, 72
1, 463385, Control_c, 0, 64, 73
1, 463445, Control_c, 0, 64, 69
1, 463467, Control_c, 0, 64, 39
1, 463470, Note_off_c, 0, 57, 62
1, 463473, Note_on_c, 0, 56, 71
1, 463482, Control_c, 0, 64, 0
1, 463631, Note_on_c, 0, 53, 73
1, 463632, Note_off_c, 0, 56, 65
1, 463635, Note_on_c, 0, 57, 79
1, 463645, Control_c, 0, 64, 60
1, 463652, Note_off_c, 0, 38, 61
1, 463659, Control_c, 0, 64, 81
1, 463674, Control_c, 0, 64, 87
1, 463689, Control_c, 0, 64, 89
1, 463718, Control_c, 0, 64, 90
1, 463733, Control_c, 0, 64, 92
1, 463748, Control_c, 0, 64, 94
1, 463763, Control_c, 0, 64, 95
1, 463777, Control_c, 0, 64, 96
1, 463792, Control_c, 0, 64, 97
1, 463799, Note_on_c, 0, 61, 83
1, 463803, Note_off_c, 0, 53, 64
1, 463804, Note_on_c, 0, 52, 73
1, 463807, Control_c, 0, 64, 97
1, 463819, Note_off_c, 0, 57, 57
1, 463822, Control_c, 0, 64, 99
1, 463837, Control_c, 0, 64, 100
1, 463852, Control_c, 0, 64, 102
1, 463867, Control_c, 0, 64, 103
1, 463881, Control_c, 0, 64, 105
1, 463896, Control_c, 0, 64, 106
1, 463896, Control_c, 0, 67, 125
1, 463911, Control_c, 0, 64, 107
1, 463911, Control_c, 0, 67, 111
1, 463926, Control_c, 0, 64, 108
1, 463926, Control_c, 0, 67, 98
1, 463936, Note_off_c, 0, 52, 65
1, 463939, Note_on_c, 0, 50, 78
1, 463941, Control_c, 0, 64, 110
1, 463941, Control_c, 0, 67, 81
1, 463946, Note_on_c, 0, 62, 88
1, 463956, Control_c, 0, 64, 111
1, 463956, Control_c, 0, 67, 62
1, 463970, Control_c, 0, 64, 113
1, 463970, Control_c, 0, 67, 42
1, 463971, Note_off_c, 0, 61, 62
1, 463985, Control_c, 0, 64, 114
1, 463985, Control_c, 0, 67, 24
1, 464000, Control_c, 0, 64, 116
1, 464000, Control_c, 0, 67, 0
1, 464015, Control_c, 0, 64, 119
1, 464029, Control_c, 0, 64, 122
1, 464044, Control_c, 0, 64, 126
1, 464059, Control_c, 0, 64, 127
1, 464072, Note_off_c, 0, 62, 61
1, 464103, Control_c, 0, 64, 127
1, 464104, Note_on_c, 0, 61, 88
1, 464119, Control_c, 0, 64, 115
1, 464134, Control_c, 0, 64, 105
1, 464149, Control_c, 0, 64, 95
1, 464164, Control_c, 0, 64, 86
1, 464179, Control_c, 0, 64, 81
1, 464200, Control_c, 0, 64, 80
1, 464221, Note_on_c, 0, 62, 85
1, 464230, Control_c, 0, 64, 83
1, 464245, Control_c, 0, 64, 86
1, 464246, Note_off_c, 0, 61, 58
1, 464252, Note_on_c, 0, 60, 78
1, 464260, Control_c, 0, 64, 91
1, 464275, Control_c, 0, 64, 93
1, 464290, Control_c, 0, 64, 95
1, 464305, Control_c, 0, 64, 97
1, 464320, Control_c, 0, 64, 100
1, 464334, Control_c, 0, 64, 102
1, 464340, Note_on_c, 0, 70, 88
1, 464349, Control_c, 0, 64, 105
1, 464364, Note_off_c, 0, 62, 61
1, 464364, Control_c, 0, 64, 107
1, 464379, Control_c, 0, 64, 108
1, 464394, Control_c, 0, 64, 109
1, 464397, Note_off_c, 0, 60, 59
1, 464403, Note_on_c, 0, 59, 77
1, 464408, Control_c, 0, 64, 110
1, 464423, Control_c, 0, 64, 111
1, 464433, Note_off_c, 0, 70, 61
1, 464438, Control_c, 0, 64, 111
1, 464451, Note_on_c, 0, 65, 89
1, 464482, Control_c, 0, 64, 112
1, 464543, Note_off_c, 0, 65, 68
1, 464551, Note_on_c, 0, 69, 92
1, 464586, Note_on_c, 0, 57, 73
1, 464624, Note_off_c, 0, 59, 61
1, 464651, Note_off_c, 0, 50, 61
1, 464665, Note_on_c, 0, 76, 90
1, 464668, Note_off_c, 0, 69, 68
1, 464718, Note_off_c, 0, 76, 66
1, 464749, Control_c, 0, 64, 112
1, 464764, Control_c, 0, 64, 113
1, 464779, Control_c, 0, 64, 114
1, 464793, Control_c, 0, 64, 115
1, 464808, Control_c, 0, 64, 117
1, 464823, Control_c, 0, 64, 117
1, 464850, Note_off_c, 0, 57, 60
1, 464867, Control_c, 0, 64, 113
1, 464882, Control_c, 0, 64, 99
1, 464886, Note_on_c, 0, 74, 91
1, 464888, Note_on_c, 0, 55, 78
1, 464889, Note_on_c, 0, 60, 90
1, 464889, Note_on_c, 0, 69, 87
1, 464893, Note_on_c, 0, 65, 82
1, 464897, Control_c, 0, 64, 82
1, 464912, Control_c, 0, 64, 64
1, 464928, Control_c, 0, 64, 0
1, 465083, Control_c, 0, 64, 59
1, 465098, Control_c, 0, 64, 68
1, 465113, Control_c, 0, 64, 72
1, 465127, Control_c, 0, 64, 75
1, 465142, Control_c, 0, 64, 78
1, 465157, Control_c, 0, 64, 82
1, 465172, Control_c, 0, 64, 86
1, 465187, Control_c, 0, 64, 90
1, 465202, Control_c, 0, 64, 93
1, 465217, Control_c, 0, 64, 95
1, 465231, Control_c, 0, 64, 97
1, 465246, Control_c, 0, 64, 100
1, 465249, Note_on_c, 0, 43, 81
1, 465261, Control_c, 0, 64, 103
1, 465275, Control_c, 0, 64, 106
1, 465276, Note_off_c, 0, 74, 55
1, 465290, Control_c, 0, 64, 109
1, 465305, Control_c, 0, 64, 113
1, 465309, Note_off_c, 0, 60, 54
1, 465320, Control_c, 0, 64, 118
1, 465330, Note_off_c, 0, 43, 62
1, 465335, Control_c, 0, 64, 124
1, 465349, Control_c, 0, 64, 127
1, 465396, Note_on_c, 0, 74, 84
1, 465406, Note_off_c, 0, 69, 60
1, 465410, Note_off_c, 0, 65, 62
1, 465439, Note_off_c, 0, 74, 60
1, 465531, Note_off_c, 0, 55, 60
1, 465572, Control_c, 0, 64, 109
1, 465587, Control_c, 0, 64, 83
1, 465589, Note_on_c, 0, 46, 80
1, 465601, Control_c, 0, 64, 0
1, 465613, Note_on_c, 0, 69, 87
1, 465614, Note_on_c, 0, 65, 79
1, 465616, Note_on_c, 0, 61, 81
1, 465616, Note_on_c, 0, 58, 84
1, 465661, Control_c, 0, 64, 66
1, 465667, Note_off_c, 0, 58, 66
1, 465675, Control_c, 0, 64, 82
1, 465684, Note_off_c, 0, 61, 64
1, 465697, Control_c, 0, 64, 103
1, 465700, Note_off_c, 0, 65, 66
1, 465712, Control_c, 0, 64, 112
1, 465721, Note_off_c, 0, 69, 68
1, 465743, Control_c, 0, 64, 112
1, 465758, Control_c, 0, 64, 114
1, 465772, Control_c, 0, 64, 116
1, 465787, Control_c, 0, 64, 117
1, 465802, Control_c, 0, 64, 118
1, 465805, Note_on_c, 0, 77, 79
1, 465817, Control_c, 0, 64, 119
1, 465832, Control_c, 0, 64, 120
1, 465846, Control_c, 0, 64, 121
1, 465861, Control_c, 0, 64, 122
1, 465876, Control_c, 0, 64, 124
1, 465891, Control_c, 0, 64, 127
1, 465892, Note_off_c, 0, 77, 61
1, 465904, Note_on_c, 0, 70, 89
1, 465996, Note_on_c, 0, 57, 90
1, 466003, Note_on_c, 0, 73, 87
1, 466040, Note_off_c, 0, 46, 63
1, 466051, Note_off_c, 0, 70, 53
1, 466091, Note_off_c, 0, 57, 60
1, 466103, Note_on_c, 0, 80, 80
1, 466159, Note_off_c, 0, 73, 62
1, 466169, Note_off_c, 0, 80, 61
1, 466195, Note_on_c, 0, 79, 83
1, 466230, Note_off_c, 0, 79, 65
1, 466319, Note_on_c, 0, 89, 98
1, 466326, Note_on_c, 0, 79, 87
1, 466326, Note_on_c, 0, 77, 83
1, 466445, Note_on_c, 0, 65, 65
1, 466548, Note_on_c, 0, 58, 74
1, 466559, Note_off_c, 0, 65, 62
1, 466571, Note_off_c, 0, 79, 58
1, 466584, Note_off_c, 0, 89, 55
1, 466587, Note_off_c, 0, 77, 54
1, 466687, Note_on_c, 0, 61, 68
1, 466698, Note_on_c, 0, 88, 85
1, 466705, Note_on_c, 0, 76, 72
1, 466705, Note_on_c, 0, 80, 69
1, 466803, Note_off_c, 0, 61, 62
1, 466839, Note_on_c, 0, 68, 64
1, 466918, Note_off_c, 0, 88, 53
1, 466932, Note_off_c, 0, 76, 62
1, 466967, Note_off_c, 0, 68, 62
1, 466970, Note_on_c, 0, 67, 66
1, 467123, Note_off_c, 0, 67, 58
1, 467128, Control_c, 0, 64, 117
1, 467143, Control_c, 0, 64, 107
1, 467152, Note_off_c, 0, 80, 64
1, 467157, Note_off_c, 0, 58, 38
1, 467158, Control_c, 0, 64, 97
1, 467170, Note_on_c, 0, 65, 62
1, 467170, Note_on_c, 0, 86, 79
1, 467173, Control_c, 0, 64, 86
1, 467174, Note_on_c, 0, 81, 59
1, 467177, Note_on_c, 0, 74, 62
1, 467188, Control_c, 0, 64, 75
1, 467210, Control_c, 0, 64, 64
1, 467225, Control_c, 0, 64, 0
1, 467389, Control_c, 0, 64, 65
1, 467404, Control_c, 0, 64, 74
1, 467418, Control_c, 0, 64, 83
1, 467433, Control_c, 0, 64, 88
1, 467448, Control_c, 0, 64, 90
1, 467463, Control_c, 0, 64, 91
1, 467477, Control_c, 0, 64, 92
1, 467483, Note_off_c, 0, 86, 57
1, 467492, Control_c, 0, 64, 93
1, 467508, Note_on_c, 0, 64, 54
1, 467515, Note_off_c, 0, 74, 60
1, 467639, Note_on_c, 0, 84, 74
1, 467646, Note_on_c, 0, 72, 61
1, 467655, Control_c, 0, 64, 93
1, 467670, Control_c, 0, 64, 94
1, 467675, Note_off_c, 0, 81, 54
1, 467685, Control_c, 0, 64, 94
1, 467690, Note_off_c, 0, 72, 62
1, 467700, Control_c, 0, 64, 96
1, 467715, Control_c, 0, 64, 97
1, 467744, Control_c, 0, 64, 97
1, 467753, Note_off_c, 0, 84, 59
1, 467757, Note_off_c, 0, 64, 59
1, 467789, Control_c, 0, 64, 96
1, 467804, Control_c, 0, 64, 90
1, 467818, Control_c, 0, 64, 81
1, 467819, Note_on_c, 0, 62, 53
1, 467819, Note_on_c, 0, 82, 73
1, 467828, Note_on_c, 0, 77, 63
1, 467831, Note_on_c, 0, 70, 59
1, 467833, Control_c, 0, 64, 68
1, 467848, Control_c, 0, 64, 23
1, 467862, Control_c, 0, 64, 0
1, 467937, Control_c, 0, 64, 22
1, 467959, Control_c, 0, 64, 64
1, 467974, Control_c, 0, 64, 70
1, 467989, Control_c, 0, 64, 77
1, 468004, Control_c, 0, 64, 84
1, 468019, Control_c, 0, 64, 88
1, 468033, Control_c, 0, 64, 91
1, 468036, Note_off_c, 0, 70, 62
1, 468048, Control_c, 0, 64, 92
1, 468063, Control_c, 0, 64, 93
1, 468078, Note_off_c, 0, 82, 63
1, 468096, Note_off_c, 0, 62, 55
1, 468107, Control_c, 0, 64, 92
1, 468123, Control_c, 0, 64, 90
1, 468138, Control_c, 0, 64, 83
1, 468152, Note_on_c, 0, 60, 50
1, 468153, Control_c, 0, 64, 73
1, 468155, Note_on_c, 0, 81, 71
1, 468157, Note_on_c, 0, 69, 65
1, 468159, Note_off_c, 0, 77, 37
1, 468167, Control_c, 0, 64, 63
1, 468182, Control_c, 0, 64, 27
1, 468197, Control_c, 0, 64, 29
1, 468212, Control_c, 0, 64, 50
1, 468227, Control_c, 0, 64, 63
1, 468241, Control_c, 0, 64, 69
1, 468251, Note_off_c, 0, 69, 58
1, 468256, Control_c, 0, 64, 74
1, 468271, Control_c, 0, 64, 79
1, 468286, Control_c, 0, 64, 83
1, 468293, Note_off_c, 0, 65, 65
1, 468300, Control_c, 0, 64, 85
1, 468315, Control_c, 0, 64, 87
1, 468322, Note_off_c, 0, 60, 61
1, 468330, Control_c, 0, 64, 88
1, 468345, Control_c, 0, 64, 89
1, 468360, Control_c, 0, 64, 90
1, 468374, Control_c, 0, 64, 90
1, 468389, Control_c, 0, 64, 91
1, 468493, Control_c, 0, 64, 90
1, 468508, Control_c, 0, 64, 86
1, 468520, Note_off_c, 0, 81, 57
1, 468523, Control_c, 0, 64, 77
1, 468529, Note_on_c, 0, 84, 72
1, 468536, Note_on_c, 0, 69, 48
1, 468538, Control_c, 0, 64, 65
1, 468538, Note_on_c, 0, 72, 50
1, 468544, Note_on_c, 0, 66, 43
1, 468548, Note_on_c, 0, 59, 21
1, 468553, Control_c, 0, 64, 0
1, 468556, Note_on_c, 0, 76, 45
1, 468598, Note_off_c, 0, 76, 0
1, 468598, Note_on_c, 0, 76, 7
1, 468671, Control_c, 0, 64, 46
1, 468693, Control_c, 0, 64, 65
1, 468708, Control_c, 0, 64, 71
1, 468712, Note_off_c, 0, 76, 63
1, 468722, Control_c, 0, 64, 76
1, 468737, Control_c, 0, 64, 81
1, 468741, Note_off_c, 0, 72, 65
1, 468752, Control_c, 0, 64, 86
1, 468767, Control_c, 0, 64, 88
1, 468782, Control_c, 0, 64, 89
1, 468797, Control_c, 0, 64, 90
1, 468812, Control_c, 0, 64, 92
1, 468826, Control_c, 0, 64, 93
1, 468841, Control_c, 0, 64, 93
1, 468915, Control_c, 0, 64, 89
1, 468931, Control_c, 0, 64, 79
1, 468946, Control_c, 0, 64, 65
1, 468949, Note_on_c, 0, 71, 46
1, 468951, Note_on_c, 0, 75, 43
1, 468961, Control_c, 0, 64, 0
1, 469020, Note_off_c, 0, 69, 65
1, 469021, Control_c, 0, 64, 25
1, 469035, Control_c, 0, 64, 64
1, 469050, Control_c, 0, 64, 73
1, 469057, Note_off_c, 0, 66, 66
1, 469065, Control_c, 0, 64, 80
1, 469066, Note_off_c, 0, 84, 64
1, 469080, Control_c, 0, 64, 85
1, 469095, Control_c, 0, 64, 88
1, 469100, Note_off_c, 0, 59, 55
1, 469110, Control_c, 0, 64, 90
1, 469119, Note_off_c, 0, 75, 65
1, 469124, Control_c, 0, 64, 92
1, 469128, Note_off_c, 0, 71, 60
1, 469139, Control_c, 0, 64, 94
1, 469154, Control_c, 0, 64, 97
1, 469169, Control_c, 0, 64, 99
1, 469184, Control_c, 0, 64, 100
1, 469198, Control_c, 0, 64, 102
1, 469213, Control_c, 0, 64, 104
1, 469228, Control_c, 0, 64, 105
1, 469242, Control_c, 0, 64, 107
1, 469257, Control_c, 0, 64, 107
1, 469272, Control_c, 0, 64, 108
1, 469346, Control_c, 0, 64, 106
1, 469361, Control_c, 0, 64, 99
1, 469376, Control_c, 0, 64, 89
1, 469390, Control_c, 0, 64, 77
1, 469402, Note_on_c, 0, 76, 63
1, 469405, Control_c, 0, 64, 65
1, 469411, Note_on_c, 0, 60, 35
1, 469414, Note_on_c, 0, 66, 40
1, 469417, Note_on_c, 0, 57, 39
1, 469420, Control_c, 0, 64, 14
1, 469442, Control_c, 0, 64, 0
1, 469516, Control_c, 0, 64, 38
1, 469531, Control_c, 0, 64, 64
1, 469546, Control_c, 0, 64, 71
1, 469549, Note_off_c, 0, 57, 62
1, 469561, Control_c, 0, 64, 77
1, 469576, Control_c, 0, 64, 83
1, 469590, Control_c, 0, 64, 87
1, 469605, Control_c, 0, 64, 89
1, 469620, Control_c, 0, 64, 92
1, 469626, Note_off_c, 0, 66, 61
1, 469635, Control_c, 0, 64, 95
1, 469650, Control_c, 0, 64, 97
1, 469664, Control_c, 0, 64, 99
1, 469679, Control_c, 0, 64, 100
1, 469685, Note_off_c, 0, 60, 55
1, 469694, Control_c, 0, 64, 101
1, 469709, Control_c, 0, 64, 103
1, 469724, Control_c, 0, 64, 106
1, 469739, Control_c, 0, 64, 110
1, 469754, Control_c, 0, 64, 113
1, 469763, Note_on_c, 0, 45, 58
1, 469769, Control_c, 0, 64, 117
1, 469769, Note_off_c, 0, 76, 57
1, 469784, Control_c, 0, 64, 120
1, 469799, Control_c, 0, 64, 127
1, 469813, Control_c, 0, 64, 127
1, 469834, Note_off_c, 0, 45, 64
1, 469913, Note_on_c, 0, 76, 67
1, 470050, Control_c, 0, 64, 105
1, 470055, Note_on_c, 0, 59, 65
1, 470058, Note_on_c, 0, 52, 69
1, 470059, Note_on_c, 0, 71, 76
1, 470060, Note_on_c, 0, 67, 65
1, 470064, Control_c, 0, 64, 83
1, 470079, Control_c, 0, 64, 62
1, 470091, Note_off_c, 0, 76, 57
1, 470094, Control_c, 0, 64, 0
1, 470138, Control_c, 0, 64, 67
1, 470150, Note_off_c, 0, 67, 58
1, 470153, Control_c, 0, 64, 80
1, 470168, Control_c, 0, 64, 90
1, 470169, Note_on_c, 0, 79, 79
1, 470191, Control_c, 0, 64, 95
1, 470197, Note_off_c, 0, 71, 61
1, 470206, Control_c, 0, 64, 97
1, 470220, Control_c, 0, 64, 100
1, 470231, Note_off_c, 0, 79, 62
1, 470235, Control_c, 0, 64, 106
1, 470250, Control_c, 0, 64, 114
1, 470264, Control_c, 0, 64, 119
1, 470279, Control_c, 0, 64, 125
1, 470286, Note_on_c, 0, 75, 86
1, 470294, Control_c, 0, 64, 127
1, 470365, Note_on_c, 0, 60, 75
1, 470389, Note_on_c, 0, 76, 79
1, 470436, Note_off_c, 0, 75, 60
1, 470462, Note_off_c, 0, 52, 66
1, 470471, Note_on_c, 0, 84, 79
1, 470489, Note_off_c, 0, 59, 63
1, 470498, Note_off_c, 0, 60, 61
1, 470518, Note_off_c, 0, 76, 63
1, 470571, Note_on_c, 0, 83, 81
1, 470588, Note_off_c, 0, 84, 63
1, 470606, Note_off_c, 0, 83, 63
1, 470724, Note_on_c, 0, 93, 106
1, 470726, Note_on_c, 0, 81, 101
1, 470727, Note_on_c, 0, 82, 101
1, 470755, Control_c, 0, 64, 110
1, 470769, Control_c, 0, 64, 88
1, 470784, Control_c, 0, 64, 71
1, 470799, Control_c, 0, 64, 0
1, 470825, Note_on_c, 0, 67, 66
1, 470902, Control_c, 0, 64, 64
1, 470917, Control_c, 0, 64, 74
1, 470937, Note_on_c, 0, 61, 75
1, 470940, Control_c, 0, 64, 84
1, 470940, Note_off_c, 0, 67, 60
1, 470955, Control_c, 0, 64, 94
1, 470969, Control_c, 0, 64, 98
1, 470984, Control_c, 0, 64, 102
1, 470990, Note_off_c, 0, 81, 56
1, 470992, Note_off_c, 0, 93, 56
1, 470999, Control_c, 0, 64, 105
1, 471013, Control_c, 0, 64, 109
1, 471028, Control_c, 0, 64, 112
1, 471043, Control_c, 0, 64, 113
1, 471049, Note_on_c, 0, 64, 73
1, 471058, Control_c, 0, 64, 113
1, 471073, Control_c, 0, 64, 114
1, 471087, Control_c, 0, 64, 114
1, 471102, Control_c, 0, 64, 115
1, 471104, Note_off_c, 0, 61, 56
1, 471117, Control_c, 0, 64, 115
1, 471161, Control_c, 0, 64, 116
1, 471178, Note_off_c, 0, 64, 61
1, 471179, Note_on_c, 0, 72, 75
1, 471203, Note_on_c, 0, 91, 85
1, 471209, Note_on_c, 0, 79, 82
1, 471212, Note_off_c, 0, 82, 61
1, 471265, Control_c, 0, 64, 115
1, 471312, Note_on_c, 0, 71, 69
1, 471332, Note_off_c, 0, 72, 42
1, 471345, Note_off_c, 0, 79, 61
1, 471347, Note_off_c, 0, 71, 62
1, 471367, Note_off_c, 0, 91, 59
1, 471518, Control_c, 0, 64, 111
1, 471530, Note_on_c, 0, 90, 92
1, 471533, Control_c, 0, 64, 95
1, 471533, Note_on_c, 0, 66, 61
1, 471534, Note_on_c, 0, 82, 69
1, 471536, Note_on_c, 0, 78, 84
1, 471537, Note_on_c, 0, 70, 70
1, 471539, Note_on_c, 0, 85, 78
1, 471548, Control_c, 0, 64, 79
1, 471554, Note_on_c, 0, 62, 55
1, 471563, Control_c, 0, 64, 63
1, 471578, Control_c, 0, 64, 0
1, 471681, Control_c, 0, 64, 65
1, 471703, Control_c, 0, 64, 73
1, 471718, Control_c, 0, 64, 82
1, 471733, Control_c, 0, 64, 87
1, 471748, Control_c, 0, 64, 89
1, 471761, Note_off_c, 0, 62, 62
1, 471763, Control_c, 0, 64, 91
1, 471778, Control_c, 0, 64, 94
1, 471792, Control_c, 0, 64, 96
1, 471807, Control_c, 0, 64, 98
1, 471822, Control_c, 0, 64, 99
1, 471837, Control_c, 0, 64, 99
1, 471866, Control_c, 0, 64, 100
1, 471870, Note_off_c, 0, 78, 61
1, 471878, Note_off_c, 0, 90, 63
1, 471896, Control_c, 0, 64, 100
1, 471916, Note_on_c, 0, 61, 67
1, 471925, Control_c, 0, 64, 101
1, 471956, Control_c, 0, 64, 102
1, 471971, Control_c, 0, 64, 102
1, 471985, Control_c, 0, 64, 103
1, 472000, Control_c, 0, 64, 103
1, 472030, Control_c, 0, 64, 104
1, 472033, Note_off_c, 0, 82, 55
1, 472035, Note_on_c, 0, 88, 75
1, 472042, Note_on_c, 0, 76, 71
1, 472044, Control_c, 0, 64, 105
1, 472059, Control_c, 0, 64, 106
1, 472074, Control_c, 0, 64, 107
1, 472089, Control_c, 0, 64, 107
1, 472104, Control_c, 0, 64, 108
1, 472112, Note_off_c, 0, 76, 62
1, 472112, Note_off_c, 0, 88, 61
1, 472120, Control_c, 0, 64, 108
1, 472132, Note_off_c, 0, 85, 61
1, 472164, Control_c, 0, 64, 109
1, 472192, Note_on_c, 0, 86, 86
1, 472194, Control_c, 0, 64, 109
1, 472198, Note_on_c, 0, 74, 71
1, 472238, Control_c, 0, 64, 110
1, 472240, Note_off_c, 0, 61, 63
1, 472253, Control_c, 0, 64, 110
1, 472267, Control_c, 0, 64, 111
1, 472282, Control_c, 0, 64, 112
1, 472297, Control_c, 0, 64, 112
1, 472312, Control_c, 0, 64, 113
1, 472327, Control_c, 0, 64, 115
1, 472334, Note_off_c, 0, 74, 65
1, 472341, Control_c, 0, 64, 117
1, 472356, Control_c, 0, 64, 119
1, 472371, Control_c, 0, 64, 120
1, 472386, Control_c, 0, 64, 121
1, 472401, Control_c, 0, 64, 123
1, 472416, Control_c, 0, 64, 125
1, 472438, Control_c, 0, 64, 127
1, 472461, Note_on_c, 0, 85, 81
1, 472474, Note_on_c, 0, 73, 71
1, 472475, Note_off_c, 0, 86, 65
1, 472564, Note_off_c, 0, 73, 63
1, 472580, Note_on_c, 0, 60, 52
1, 472592, Note_off_c, 0, 66, 54
1, 472621, Note_off_c, 0, 60, 58
1, 472625, Note_off_c, 0, 70, 51
1, 472749, Control_c, 0, 64, 117
1, 472764, Control_c, 0, 64, 96
1, 472774, Note_on_c, 0, 88, 80
1, 472779, Control_c, 0, 64, 75
1, 472782, Note_on_c, 0, 76, 65
1, 472793, Note_on_c, 0, 69, 50
1, 472793, Control_c, 0, 64, 37
1, 472797, Note_on_c, 0, 59, 47
1, 472797, Note_on_c, 0, 81, 58
1, 472804, Note_on_c, 0, 65, 51
1, 472808, Control_c, 0, 64, 0
1, 472897, Control_c, 0, 64, 66
1, 472902, Note_off_c, 0, 85, 57
1, 472913, Control_c, 0, 64, 77
1, 472928, Control_c, 0, 64, 87
1, 472939, Note_off_c, 0, 81, 62
1, 472943, Control_c, 0, 64, 95
1, 472957, Control_c, 0, 64, 98
1, 472972, Control_c, 0, 64, 100
1, 472976, Note_off_c, 0, 65, 62
1, 472987, Control_c, 0, 64, 102
1, 472996, Note_off_c, 0, 88, 59
1, 473002, Control_c, 0, 64, 104
1, 473017, Control_c, 0, 64, 105
1, 473031, Control_c, 0, 64, 105
1, 473061, Control_c, 0, 64, 106
1, 473120, Control_c, 0, 64, 106
1, 473156, Note_off_c, 0, 76, 61
1, 473159, Note_on_c, 0, 77, 65
1, 473177, Note_on_c, 0, 65, 43
1, 473244, Note_off_c, 0, 69, 65
1, 473247, Note_off_c, 0, 59, 61
1, 473249, Note_off_c, 0, 65, 64
1, 473252, Note_off_c, 0, 77, 61
1, 473483, Control_c, 0, 64, 104
1, 473491, Note_on_c, 0, 86, 71
1, 473497, Control_c, 0, 64, 96
1, 473499, Note_on_c, 0, 79, 53
1, 473502, Note_on_c, 0, 74, 48
1, 473510, Note_on_c, 0, 67, 49
1, 473512, Control_c, 0, 64, 82
1, 473521, Note_on_c, 0, 58, 43
1, 473522, Note_on_c, 0, 64, 41
1, 473527, Control_c, 0, 64, 66
1, 473542, Control_c, 0, 64, 0
1, 473645, Control_c, 0, 64, 68
1, 473660, Control_c, 0, 64, 78
1, 473675, Control_c, 0, 64, 87
1, 473686, Note_off_c, 0, 58, 62
1, 473689, Control_c, 0, 64, 92
1, 473705, Control_c, 0, 64, 93
1, 473720, Control_c, 0, 64, 94
1, 473735, Control_c, 0, 64, 96
1, 473745, Note_off_c, 0, 74, 59
1, 473750, Control_c, 0, 64, 97
1, 473765, Control_c, 0, 64, 97
1, 473779, Control_c, 0, 64, 98
1, 473787, Note_off_c, 0, 86, 57
1, 473810, Note_on_c, 0, 58, 59
1, 473824, Control_c, 0, 64, 99
1, 473838, Control_c, 0, 64, 99
1, 473853, Control_c, 0, 64, 100
1, 473883, Control_c, 0, 64, 100
1, 473898, Control_c, 0, 64, 101
1, 473912, Control_c, 0, 64, 101
1, 473935, Control_c, 0, 64, 102
1, 473936, Note_on_c, 0, 84, 64
1, 473942, Note_on_c, 0, 72, 49
1, 473950, Control_c, 0, 64, 102
1, 473965, Control_c, 0, 64, 103
1, 473980, Control_c, 0, 64, 103
1, 473981, Note_off_c, 0, 79, 54
1, 473988, Note_off_c, 0, 72, 57
1, 473990, Note_off_c, 0, 64, 58
1, 473994, Control_c, 0, 64, 104
1, 474004, Note_off_c, 0, 67, 49
1, 474009, Control_c, 0, 64, 105
1, 474024, Control_c, 0, 64, 107
1, 474038, Control_c, 0, 64, 108
1, 474053, Control_c, 0, 64, 109
1, 474068, Control_c, 0, 64, 110
1, 474083, Control_c, 0, 64, 112
1, 474090, Note_on_c, 0, 83, 64
1, 474098, Control_c, 0, 64, 114
1, 474100, Note_off_c, 0, 84, 53
1, 474107, Note_on_c, 0, 71, 47
1, 474112, Control_c, 0, 64, 118
1, 474127, Control_c, 0, 64, 121
1, 474142, Control_c, 0, 64, 124
1, 474157, Control_c, 0, 64, 127
1, 474172, Control_c, 0, 64, 127
1, 474216, Note_off_c, 0, 71, 53
1, 474372, Note_on_c, 0, 84, 73
1, 474375, Note_off_c, 0, 83, 58
1, 474393, Note_on_c, 0, 67, 36
1, 474395, Note_on_c, 0, 72, 50
1, 474397, Note_on_c, 0, 64, 32
1, 474434, Note_off_c, 0, 64, 57
1, 474464, Note_off_c, 0, 67, 41
1, 474496, Note_off_c, 0, 58, 49
1, 474499, Note_off_c, 0, 72, 61
1, 474699, Control_c, 0, 64, 120
1, 474714, Control_c, 0, 64, 110
1, 474729, Control_c, 0, 64, 100
1, 474732, Note_off_c, 0, 84, 62
1, 474743, Control_c, 0, 64, 89
1, 474744, Note_on_c, 0, 86, 69
1, 474753, Note_on_c, 0, 74, 53
1, 474753, Note_on_c, 0, 79, 51
1, 474755, Note_on_c, 0, 67, 43
1, 474756, Note_on_c, 0, 63, 46
1, 474756, Note_on_c, 0, 57, 40
1, 474758, Control_c, 0, 64, 78
1, 474773, Control_c, 0, 64, 67
1, 474788, Control_c, 0, 64, 26
1, 474803, Control_c, 0, 64, 0
1, 474812, Note_off_c, 0, 67, 0
1, 474812, Note_on_c, 0, 67, 9
1, 474921, Control_c, 0, 64, 63
1, 474932, Note_off_c, 0, 79, 60
1, 474935, Control_c, 0, 64, 69
1, 474950, Control_c, 0, 64, 73
1, 474964, Control_c, 0, 64, 78
1, 474979, Control_c, 0, 64, 84
1, 474994, Control_c, 0, 64, 88
1, 474998, Note_off_c, 0, 63, 60
1, 475009, Control_c, 0, 64, 91
1, 475024, Control_c, 0, 64, 92
1, 475039, Control_c, 0, 64, 92
1, 475053, Control_c, 0, 64, 93
1, 475068, Control_c, 0, 64, 95
1, 475083, Control_c, 0, 64, 97
1, 475098, Control_c, 0, 64, 98
1, 475157, Control_c, 0, 64, 98
1, 475164, Note_on_c, 0, 75, 51
1, 475172, Control_c, 0, 64, 99
1, 475178, Note_on_c, 0, 63, 39
1, 475205, Note_off_c, 0, 74, 63
1, 475221, Note_off_c, 0, 67, 53
1, 475236, Note_off_c, 0, 57, 61
1, 475250, Note_off_c, 0, 75, 65
1, 475259, Note_off_c, 0, 63, 56
1, 475285, Note_off_c, 0, 86, 38
1, 475410, Control_c, 0, 64, 99
1, 475432, Control_c, 0, 64, 100
1, 475447, Control_c, 0, 64, 100
1, 475462, Control_c, 0, 64, 101
1, 475536, Control_c, 0, 64, 99
1, 475551, Control_c, 0, 64, 95
1, 475565, Control_c, 0, 64, 90
1, 475570, Note_on_c, 0, 86, 60
1, 475571, Note_on_c, 0, 82, 55
1, 475573, Note_on_c, 0, 78, 50
1, 475576, Note_on_c, 0, 63, 44
1, 475580, Control_c, 0, 64, 84
1, 475582, Note_on_c, 0, 66, 42
1, 475588, Note_on_c, 0, 74, 41
1, 475590, Note_on_c, 0, 58, 39
1, 475595, Control_c, 0, 64, 78
1, 475609, Control_c, 0, 64, 71
1, 475622, Note_off_c, 0, 78, 0
1, 475622, Note_on_c, 0, 78, 19
1, 475624, Control_c, 0, 64, 64
1, 475631, Note_off_c, 0, 66, 0
1, 475631, Note_on_c, 0, 66, 5
1, 475639, Control_c, 0, 64, 44
1, 475654, Control_c, 0, 64, 0
1, 475728, Control_c, 0, 64, 53
1, 475743, Control_c, 0, 64, 71
1, 475757, Control_c, 0, 64, 80
1, 475772, Control_c, 0, 64, 88
1, 475786, Note_off_c, 0, 74, 59
1, 475787, Control_c, 0, 64, 92
1, 475794, Note_off_c, 0, 58, 57
1, 475802, Control_c, 0, 64, 96
1, 475817, Control_c, 0, 64, 102
1, 475832, Control_c, 0, 64, 108
1, 475847, Control_c, 0, 64, 109
1, 475874, Note_off_c, 0, 86, 53
1, 475936, Note_on_c, 0, 58, 49
1, 476008, Note_off_c, 0, 78, 35
1, 476039, Control_c, 0, 64, 110
1, 476041, Note_on_c, 0, 84, 65
1, 476053, Note_on_c, 0, 72, 54
1, 476054, Control_c, 0, 64, 110
1, 476055, Note_off_c, 0, 82, 35
1, 476069, Control_c, 0, 64, 111
1, 476082, Note_off_c, 0, 72, 63
1, 476083, Control_c, 0, 64, 112
1, 476099, Control_c, 0, 64, 112
1, 476114, Control_c, 0, 64, 113
1, 476129, Control_c, 0, 64, 115
1, 476144, Control_c, 0, 64, 116
1, 476152, Note_off_c, 0, 63, 32
1, 476159, Control_c, 0, 64, 118
1, 476181, Control_c, 0, 64, 119
1, 476196, Control_c, 0, 64, 121
1, 476202, Note_on_c, 0, 82, 65
1, 476205, Note_off_c, 0, 84, 38
1, 476210, Control_c, 0, 64, 125
1, 476215, Note_on_c, 0, 70, 58
1, 476225, Control_c, 0, 64, 127
1, 476285, Note_off_c, 0, 70, 62
1, 476297, Note_off_c, 0, 66, 34
1, 476494, Note_on_c, 0, 83, 68
1, 476504, Note_on_c, 0, 66, 42
1, 476512, Note_on_c, 0, 71, 48
1, 476513, Note_off_c, 0, 82, 52
1, 476515, Note_on_c, 0, 63, 43
1, 476568, Note_off_c, 0, 63, 59
1, 476600, Note_off_c, 0, 66, 57
1, 476643, Note_off_c, 0, 71, 45
1, 476646, Note_off_c, 0, 58, 58
1, 476818, Control_c, 0, 64, 115
1, 476828, Note_off_c, 0, 83, 54
1, 476832, Control_c, 0, 64, 102
1, 476837, Note_on_c, 0, 84, 66
1, 476846, Note_on_c, 0, 67, 49
1, 476847, Control_c, 0, 64, 89
1, 476851, Note_on_c, 0, 72, 54
1, 476851, Note_on_c, 0, 77, 50
1, 476859, Note_on_c, 0, 62, 47
1, 476860, Note_on_c, 0, 57, 36
1, 476862, Control_c, 0, 64, 76
1, 476877, Control_c, 0, 64, 62
1, 476892, Control_c, 0, 64, 0
1, 477003, Control_c, 0, 64, 62
1, 477018, Control_c, 0, 64, 72
1, 477025, Note_off_c, 0, 77, 63
1, 477033, Control_c, 0, 64, 80
1, 477048, Control_c, 0, 64, 87
1, 477063, Control_c, 0, 64, 90
1, 477078, Control_c, 0, 64, 94
1, 477093, Control_c, 0, 64, 96
1, 477108, Control_c, 0, 64, 98
1, 477123, Control_c, 0, 64, 100
1, 477137, Control_c, 0, 64, 101
1, 477152, Control_c, 0, 64, 103
1, 477167, Control_c, 0, 64, 106
1, 477182, Control_c, 0, 64, 109
1, 477182, Note_off_c, 0, 72, 65
1, 477194, Note_off_c, 0, 57, 61
1, 477197, Control_c, 0, 64, 111
1, 477209, Note_on_c, 0, 74, 66
1, 477210, Note_off_c, 0, 67, 65
1, 477211, Control_c, 0, 64, 113
1, 477226, Control_c, 0, 64, 115
1, 477241, Control_c, 0, 64, 116
1, 477255, Control_c, 0, 64, 117
1, 477270, Control_c, 0, 64, 121
1, 477285, Control_c, 0, 64, 124
1, 477300, Control_c, 0, 64, 127
1, 477322, Note_off_c, 0, 84, 57
1, 477367, Note_on_c, 0, 66, 72
1, 477499, Note_off_c, 0, 62, 57
1, 477567, Note_off_c, 0, 66, 65
1, 477596, Control_c, 0, 64, 124
1, 477611, Control_c, 0, 64, 119
1, 477626, Control_c, 0, 64, 113
1, 477641, Control_c, 0, 64, 105
1, 477650, Note_off_c, 0, 74, 63
1, 477655, Control_c, 0, 64, 93
1, 477661, Note_on_c, 0, 71, 69
1, 477664, Note_on_c, 0, 66, 83
1, 477665, Note_on_c, 0, 60, 61
1, 477670, Control_c, 0, 64, 81
1, 477689, Note_on_c, 0, 56, 48
1, 477692, Control_c, 0, 64, 69
1, 477708, Control_c, 0, 64, 56
1, 477723, Control_c, 0, 64, 0
1, 477871, Control_c, 0, 64, 52
1, 477886, Control_c, 0, 64, 67
1, 477901, Control_c, 0, 64, 76
1, 477916, Control_c, 0, 64, 84
1, 477930, Control_c, 0, 64, 88
1, 477945, Control_c, 0, 64, 90
1, 477960, Control_c, 0, 64, 91
1, 477975, Control_c, 0, 64, 93
1, 477990, Control_c, 0, 64, 94
1, 478004, Control_c, 0, 64, 95
1, 478019, Control_c, 0, 64, 95
1, 478033, Note_on_c, 0, 72, 77
1, 478034, Control_c, 0, 64, 96
1, 478049, Control_c, 0, 64, 96
1, 478053, Note_off_c, 0, 71, 52
1, 478064, Control_c, 0, 64, 97
1, 478077, Note_off_c, 0, 66, 57
1, 478078, Control_c, 0, 64, 97
1, 478123, Control_c, 0, 64, 98
1, 478168, Note_on_c, 0, 65, 77
1, 478169, Note_off_c, 0, 60, 61
1, 478226, Control_c, 0, 64, 98
1, 478255, Note_off_c, 0, 65, 63
1, 478256, Control_c, 0, 64, 99
1, 478271, Control_c, 0, 64, 99
1, 478276, Note_off_c, 0, 56, 31
1, 478315, Control_c, 0, 64, 100
1, 478332, Note_on_c, 0, 65, 82
1, 478413, Note_on_c, 0, 77, 83
1, 478435, Note_off_c, 0, 72, 63
1, 478526, Note_on_c, 0, 73, 84
1, 478541, Note_off_c, 0, 77, 59
1, 478575, Control_c, 0, 64, 99
1, 478590, Control_c, 0, 64, 92
1, 478591, Note_off_c, 0, 73, 63
1, 478593, Note_on_c, 0, 74, 66
1, 478595, Note_on_c, 0, 55, 74
1, 478598, Note_on_c, 0, 59, 73
1, 478605, Control_c, 0, 64, 77
1, 478620, Control_c, 0, 64, 64
1, 478634, Control_c, 0, 64, 28
1, 478649, Control_c, 0, 64, 52
1, 478664, Control_c, 0, 64, 64
1, 478679, Control_c, 0, 64, 70
1, 478695, Control_c, 0, 64, 78
1, 478701, Note_on_c, 0, 81, 88
1, 478705, Note_off_c, 0, 55, 63
1, 478707, Note_off_c, 0, 74, 61
1, 478709, Control_c, 0, 64, 87
1, 478717, Note_off_c, 0, 59, 63
1, 478724, Control_c, 0, 64, 91
1, 478739, Control_c, 0, 64, 93
1, 478754, Control_c, 0, 64, 95
1, 478769, Control_c, 0, 64, 98
1, 478783, Note_off_c, 0, 65, 50
1, 478783, Control_c, 0, 64, 100
1, 478786, Note_on_c, 0, 80, 87
1, 478792, Note_off_c, 0, 81, 60
1, 478798, Control_c, 0, 64, 101
1, 478837, Note_off_c, 0, 80, 66
1, 478872, Control_c, 0, 64, 95
1, 478876, Note_on_c, 0, 58, 88
1, 478878, Note_on_c, 0, 65, 92
1, 478878, Note_on_c, 0, 87, 103
1, 478880, Note_on_c, 0, 75, 101
1, 478880, Note_on_c, 0, 82, 91
1, 478885, Note_on_c, 0, 54, 85
1, 478887, Control_c, 0, 64, 78
1, 478902, Control_c, 0, 64, 56
1, 478917, Control_c, 0, 64, 0
1, 478976, Control_c, 0, 64, 52
1, 478991, Control_c, 0, 64, 76
1, 479006, Control_c, 0, 64, 92
1, 479020, Control_c, 0, 64, 110
1, 479035, Control_c, 0, 64, 115
1, 479050, Control_c, 0, 64, 115
1, 479065, Control_c, 0, 64, 117
1, 479080, Control_c, 0, 64, 120
1, 479081, Note_off_c, 0, 75, 62
1, 479095, Control_c, 0, 64, 125
1, 479109, Control_c, 0, 64, 127
1, 479119, Note_off_c, 0, 87, 60
1, 479188, Note_on_c, 0, 86, 94
1, 479192, Note_on_c, 0, 74, 92
1, 479200, Note_off_c, 0, 65, 62
1, 479227, Note_off_c, 0, 74, 71
1, 479290, Note_off_c, 0, 86, 63
1, 479334, Note_on_c, 0, 64, 93
1, 479364, Note_off_c, 0, 82, 63
1, 479427, Note_off_c, 0, 58, 39
1, 479449, Note_off_c, 0, 64, 66
1, 479466, Note_off_c, 0, 54, 58
1, 479562, Control_c, 0, 64, 113
1, 479571, Poly_aftertouch_c, 0, 81, 0
1, 479577, Control_c, 0, 64, 95
1, 479580, Note_on_c, 0, 81, 67
1, 479584, Note_on_c, 0, 90, 98
1, 479587, Note_on_c, 0, 57, 71
1, 479589, Note_on_c, 0, 63, 85
1, 479590, Note_on_c, 0, 78, 89
1, 479592, Note_on_c, 0, 53, 74
1, 479592, Control_c, 0, 64, 78
1, 479606, Control_c, 0, 64, 58
1, 479621, Control_c, 0, 64, 0
1, 479710, Control_c, 0, 64, 65
1, 479725, Control_c, 0, 64, 82
1, 479740, Control_c, 0, 64, 100
1, 479755, Control_c, 0, 64, 112
1, 479760, Note_off_c, 0, 90, 65
1, 479769, Control_c, 0, 64, 113
1, 479784, Control_c, 0, 64, 116
1, 479791, Note_off_c, 0, 81, 63
1, 479795, Note_off_c, 0, 78, 63
1, 479799, Control_c, 0, 64, 120
1, 479814, Control_c, 0, 64, 121
1, 479829, Control_c, 0, 64, 122
1, 479940, Note_off_c, 0, 63, 62
1, 479946, Note_on_c, 0, 81, 85
1, 479949, Note_on_c, 0, 69, 84
1, 479952, Note_on_c, 0, 78, 73
1, 480077, Note_on_c, 0, 62, 79
1, 480116, Note_off_c, 0, 69, 63
1, 480130, Note_off_c, 0, 62, 62
1, 480205, Note_off_c, 0, 81, 57
1, 480213, Note_on_c, 0, 62, 91
1, 480236, Control_c, 0, 64, 122
1, 480280, Note_off_c, 0, 78, 62
1, 480458, Control_c, 0, 64, 121
1, 480479, Note_on_c, 0, 61, 93
1, 480510, Note_off_c, 0, 62, 62
1, 480688, Control_c, 0, 64, 121
1, 480703, Control_c, 0, 64, 108
1, 480709, Note_off_c, 0, 61, 63
1, 480716, Note_off_c, 0, 53, 61
1, 480718, Control_c, 0, 64, 87
1, 480721, Note_on_c, 0, 87, 99
1, 480722, Note_on_c, 0, 82, 98
1, 480723, Note_on_c, 0, 75, 96
1, 480723, Note_off_c, 0, 57, 60
1, 480725, Note_on_c, 0, 60, 97
1, 480733, Control_c, 0, 64, 68
1, 480747, Control_c, 0, 64, 0
1, 480792, Control_c, 0, 64, 65
1, 480806, Control_c, 0, 64, 81
1, 480821, Control_c, 0, 64, 99
1, 480836, Control_c, 0, 64, 113
1, 480851, Control_c, 0, 64, 113
1, 480866, Control_c, 0, 64, 114
1, 480880, Control_c, 0, 64, 117
1, 480896, Control_c, 0, 64, 121
1, 480911, Control_c, 0, 64, 126
1, 480926, Control_c, 0, 64, 127
1, 480930, Note_off_c, 0, 75, 59
1, 480953, Note_off_c, 0, 87, 63
1, 480977, Note_on_c, 0, 59, 94
1, 481009, Note_off_c, 0, 60, 63
1, 481078, Note_on_c, 0, 86, 94
1, 481081, Note_on_c, 0, 74, 92
1, 481122, Note_off_c, 0, 74, 67
1, 481134, Note_off_c, 0, 86, 64
1, 481149, Note_off_c, 0, 82, 63
1, 481221, Note_off_c, 0, 59, 55
1, 481280, Note_on_c, 0, 62, 99
1, 481280, Note_on_c, 0, 90, 105
1, 481281, Note_on_c, 0, 83, 94
1, 481281, Control_c, 0, 64, 120
1, 481283, Note_on_c, 0, 56, 94
1, 481283, Note_on_c, 0, 78, 92
1, 481285, Note_on_c, 0, 52, 88
1, 481287, Note_on_c, 0, 80, 92
1, 481296, Control_c, 0, 64, 91
1, 481311, Control_c, 0, 64, 69
1, 481326, Control_c, 0, 64, 0
1, 481400, Control_c, 0, 64, 64
1, 481409, Note_off_c, 0, 90, 63
1, 481421, Control_c, 0, 64, 80
1, 481436, Control_c, 0, 64, 100
1, 481448, Note_off_c, 0, 83, 60
1, 481451, Control_c, 0, 64, 120
1, 481466, Control_c, 0, 64, 123
1, 481481, Note_off_c, 0, 78, 60
1, 481481, Control_c, 0, 64, 127
1, 481487, Note_off_c, 0, 80, 61
1, 481572, Note_off_c, 0, 62, 56
1, 481601, Note_on_c, 0, 80, 87
1, 481606, Note_on_c, 0, 68, 85
1, 481690, Note_off_c, 0, 68, 61
1, 481708, Note_on_c, 0, 61, 78
1, 481755, Note_off_c, 0, 61, 62
1, 481841, Note_on_c, 0, 61, 98
1, 481885, Note_off_c, 0, 56, 65
1, 481907, Note_off_c, 0, 52, 57
1, 482063, Note_off_c, 0, 80, 62
1, 482070, Note_on_c, 0, 60, 97
1, 482110, Note_off_c, 0, 61, 58
1, 482262, Note_off_c, 0, 60, 61
1, 482290, Control_c, 0, 64, 105
1, 482298, Note_on_c, 0, 59, 89
1, 482299, Note_on_c, 0, 87, 103
1, 482300, Note_on_c, 0, 79, 97
1, 482303, Note_on_c, 0, 75, 93
1, 482305, Control_c, 0, 64, 83
1, 482319, Control_c, 0, 64, 56
1, 482334, Control_c, 0, 64, 0
1, 482378, Control_c, 0, 64, 64
1, 482393, Control_c, 0, 64, 80
1, 482408, Control_c, 0, 64, 99
1, 482423, Control_c, 0, 64, 127
1, 482504, Note_off_c, 0, 75, 62
1, 482543, Note_off_c, 0, 87, 61
1, 482554, Note_on_c, 0, 60, 96
1, 482582, Note_off_c, 0, 59, 61
1, 482630, Note_off_c, 0, 79, 58
1, 482656, Note_on_c, 0, 74, 96
1, 482657, Note_on_c, 0, 86, 97
1, 482701, Note_off_c, 0, 74, 66
1, 482708, Note_off_c, 0, 86, 64
1, 482719, Note_off_c, 0, 60, 61
1, 482839, Control_c, 0, 64, 109
1, 482854, Control_c, 0, 64, 83
1, 482857, Note_on_c, 0, 78, 109
1, 482858, Note_on_c, 0, 90, 101
1, 482858, Note_on_c, 0, 85, 97
1, 482861, Note_on_c, 0, 61, 106
1, 482861, Note_on_c, 0, 80, 92
1, 482864, Note_on_c, 0, 56, 93
1, 482868, Note_on_c, 0, 51, 90
1, 482868, Control_c, 0, 64, 52
1, 482883, Control_c, 0, 64, 0
1, 482935, Control_c, 0, 64, 68
1, 482950, Control_c, 0, 64, 88
1, 482965, Control_c, 0, 64, 114
1, 482980, Control_c, 0, 64, 127
1, 482994, Note_off_c, 0, 51, 61
1, 482996, Note_off_c, 0, 80, 61
1, 483002, Note_off_c, 0, 85, 64
1, 483007, Note_off_c, 0, 90, 63
1, 483011, Note_off_c, 0, 78, 65
1, 483032, Note_off_c, 0, 61, 58
1, 483046, Note_off_c, 0, 56, 62
1, 483149, Poly_aftertouch_c, 0, 82, 127
1, 483174, Note_on_c, 0, 88, 96
1, 483179, Note_on_c, 0, 76, 92
1, 483180, Note_on_c, 0, 78, 92
1, 483185, Note_on_c, 0, 83, 81
1, 483251, Note_off_c, 0, 83, 62
1, 483255, Note_off_c, 0, 88, 62
1, 483272, Poly_aftertouch_c, 0, 82, 0
1, 483274, Note_off_c, 0, 78, 60
1, 483284, Note_off_c, 0, 76, 56
1, 483311, Note_on_c, 0, 69, 102
1, 483386, Note_off_c, 0, 69, 70
1, 483431, Note_on_c, 0, 81, 73
1, 483434, Note_on_c, 0, 86, 97
1, 483436, Note_on_c, 0, 74, 96
1, 483442, Note_on_c, 0, 76, 92
1, 483502, Note_off_c, 0, 76, 55
1, 483502, Note_off_c, 0, 86, 60
1, 483517, Note_off_c, 0, 74, 59
1, 483635, Note_off_c, 0, 81, 54
1, 483651, Note_on_c, 0, 81, 54
1, 483656, Note_on_c, 0, 75, 99
1, 483657, Note_on_c, 0, 85, 96
1, 483684, Note_on_c, 0, 80, 79
1, 483713, Note_off_c, 0, 81, 62
1, 483730, Note_off_c, 0, 75, 62
1, 483747, Note_off_c, 0, 80, 62
1, 483755, Note_on_c, 0, 59, 89
1, 483776, Note_off_c, 0, 85, 61
1, 483849, Note_off_c, 0, 59, 62
1, 483877, Control_c, 0, 64, 100
1, 483885, Note_on_c, 0, 74, 101
1, 483885, Note_on_c, 0, 80, 104
1, 483885, Note_on_c, 0, 84, 100
1, 483886, Note_on_c, 0, 58, 102
1, 483892, Control_c, 0, 64, 74
1, 483906, Control_c, 0, 64, 0
1, 483921, Note_on_c, 0, 59, 30
1, 483941, Note_off_c, 0, 59, 61
1, 483949, Control_c, 0, 64, 64
1, 483951, Note_off_c, 0, 84, 61
1, 483964, Control_c, 0, 64, 85
1, 483970, Note_off_c, 0, 74, 58
1, 483979, Control_c, 0, 64, 111
1, 483994, Control_c, 0, 64, 127
1, 483999, Note_off_c, 0, 58, 65
1, 484053, Note_off_c, 0, 80, 63
1, 484105, Note_on_c, 0, 80, 97
1, 484106, Note_on_c, 0, 85, 97
1, 484108, Note_on_c, 0, 75, 98
1, 484167, Note_off_c, 0, 75, 63
1, 484180, Note_off_c, 0, 85, 60
1, 484206, Note_off_c, 0, 80, 52
1, 484216, Note_on_c, 0, 48, 76
1, 484220, Note_on_c, 0, 47, 83
1, 484278, Note_off_c, 0, 47, 48
1, 484318, Note_off_c, 0, 48, 65
1, 484366, Control_c, 0, 64, 116
1, 484366, Note_on_c, 0, 49, 103
1, 484366, Note_on_c, 0, 88, 102
1, 484369, Note_on_c, 0, 76, 107
1, 484370, Note_on_c, 0, 79, 99
1, 484373, Note_on_c, 0, 83, 96
1, 484381, Control_c, 0, 64, 86
1, 484395, Control_c, 0, 64, 44
1, 484417, Control_c, 0, 64, 0
1, 484441, Note_on_c, 0, 51, 5
1, 484501, Note_off_c, 0, 51, 48
1, 484506, Control_c, 0, 64, 65
1, 484521, Control_c, 0, 64, 88
1, 484536, Control_c, 0, 64, 110
1, 484551, Control_c, 0, 64, 120
1, 484566, Control_c, 0, 64, 121
1, 484580, Control_c, 0, 64, 121
1, 484588, Note_off_c, 0, 76, 61
1, 484595, Control_c, 0, 64, 123
1, 484610, Control_c, 0, 64, 124
1, 484611, Note_off_c, 0, 88, 54
1, 484625, Control_c, 0, 64, 124
1, 484630, Note_on_c, 0, 59, 98
1, 484635, Note_on_c, 0, 55, 89
1, 484666, Note_off_c, 0, 49, 63
1, 484673, Note_off_c, 0, 83, 51
1, 484699, Control_c, 0, 64, 125
1, 484705, Note_off_c, 0, 79, 51
1, 484706, Note_off_c, 0, 55, 64
1, 484707, Note_off_c, 0, 59, 58
1, 484735, Note_on_c, 0, 86, 102
1, 484737, Note_on_c, 0, 74, 99
1, 484787, Note_off_c, 0, 74, 68
1, 484787, Control_c, 0, 64, 125
1, 484802, Control_c, 0, 64, 127
1, 484813, Note_off_c, 0, 86, 61
1, 484817, Control_c, 0, 64, 127
1, 484867, Note_on_c, 0, 85, 101
1, 484870, Note_on_c, 0, 73, 96
1, 484927, Note_off_c, 0, 73, 62
1, 484933, Note_off_c, 0, 85, 63
1, 485094, Note_on_c, 0, 70, 100
1, 485094, Note_on_c, 0, 83, 99
1, 485096, Note_on_c, 0, 65, 87
1, 485097, Note_on_c, 0, 62, 86
1, 485099, Note_on_c, 0, 71, 95
1, 485110, Note_on_c, 0, 72, 76
1, 485126, Note_off_c, 0, 72, 42
1, 485135, Note_off_c, 0, 71, 63
1, 485147, Note_off_c, 0, 83, 64
1, 485148, Note_off_c, 0, 65, 64
1, 485179, Note_off_c, 0, 70, 59
1, 485199, Note_off_c, 0, 62, 55
1, 485350, Note_on_c, 0, 87, 101
1, 485352, Note_on_c, 0, 80, 101
1, 485353, Note_on_c, 0, 75, 103
1, 485355, Note_on_c, 0, 71, 101
1, 485357, Note_on_c, 0, 67, 96
1, 485358, Note_on_c, 0, 61, 93
1, 485359, Note_on_c, 0, 64, 89
1, 485374, Control_c, 0, 64, 95
1, 485388, Control_c, 0, 64, 62
1, 485396, Note_on_c, 0, 85, 41
1, 485403, Control_c, 0, 64, 0
1, 485424, Note_off_c, 0, 85, 35
1, 485448, Control_c, 0, 64, 38
1, 485463, Control_c, 0, 64, 78
1, 485477, Note_off_c, 0, 71, 53
1, 485478, Control_c, 0, 64, 109
1, 485488, Note_off_c, 0, 75, 60
1, 485493, Control_c, 0, 64, 127
1, 485531, Note_off_c, 0, 67, 60
1, 485555, Note_off_c, 0, 87, 60
1, 485562, Note_off_c, 0, 64, 65
1, 485576, Note_off_c, 0, 61, 60
1, 485577, Note_off_c, 0, 80, 62
1, 485603, Note_on_c, 0, 88, 103
1, 485603, Note_on_c, 0, 76, 100
1, 485639, Note_off_c, 0, 76, 71
1, 485655, Note_off_c, 0, 88, 62
1, 485659, Note_on_c, 0, 80, 3
1, 485699, Note_off_c, 0, 80, 45
1, 485849, Control_c, 0, 64, 97
1, 485864, Control_c, 0, 64, 67
1, 485873, Note_on_c, 0, 83, 109
1, 485873, Note_on_c, 0, 88, 106
1, 485874, Note_on_c, 0, 93, 116
1, 485875, Note_on_c, 0, 81, 99
1, 485878, Note_on_c, 0, 64, 102
1, 485879, Note_on_c, 0, 54, 100
1, 485879, Control_c, 0, 64, 0
1, 485881, Note_on_c, 0, 59, 100
1, 485898, Note_on_c, 0, 90, 57
1, 485931, Control_c, 0, 64, 62
1, 485936, Note_off_c, 0, 90, 47
1, 485946, Control_c, 0, 64, 88
1, 485951, Note_off_c, 0, 64, 65
1, 485961, Control_c, 0, 64, 127
1, 485964, Note_off_c, 0, 54, 61
1, 485982, Note_off_c, 0, 59, 66
1, 485984, Note_off_c, 0, 93, 57
1, 485992, Note_off_c, 0, 88, 64
1, 486000, Poly_aftertouch_c, 0, 85, 0
1, 486020, Note_off_c, 0, 83, 55
1, 486033, Note_off_c, 0, 81, 60
1, 486182, Note_on_c, 0, 86, 102
1, 486184, Note_on_c, 0, 91, 101
1, 486185, Note_on_c, 0, 81, 97
1, 486187, Note_on_c, 0, 79, 98
1, 486224, Note_on_c, 0, 82, 35
1, 486244, Note_off_c, 0, 91, 59
1, 486256, Note_off_c, 0, 82, 56
1, 486262, Note_off_c, 0, 81, 56
1, 486262, Note_off_c, 0, 86, 64
1, 486275, Note_off_c, 0, 79, 63
1, 486301, Note_on_c, 0, 72, 105
1, 486349, Note_off_c, 0, 72, 74
1, 486416, Note_on_c, 0, 78, 109
1, 486416, Note_on_c, 0, 85, 100
1, 486416, Note_on_c, 0, 90, 107
1, 486420, Note_on_c, 0, 80, 96
1, 486491, Note_off_c, 0, 90, 65
1, 486504, Note_off_c, 0, 80, 62
1, 486506, Note_off_c, 0, 78, 63
1, 486521, Note_off_c, 0, 85, 63
1, 486634, Note_on_c, 0, 88, 104
1, 486637, Note_on_c, 0, 76, 101
1, 486637, Note_on_c, 0, 78, 95
1, 486641, Note_on_c, 0, 83, 95
1, 486701, Note_off_c, 0, 88, 61
1, 486739, Note_off_c, 0, 76, 45
1, 486740, Note_off_c, 0, 83, 58
1, 486741, Note_on_c, 0, 62, 95
1, 486753, Note_off_c, 0, 78, 51
1, 486827, Note_off_c, 0, 62, 61
1, 486842, Control_c, 0, 64, 101
1, 486854, Note_on_c, 0, 83, 65
1, 486857, Control_c, 0, 64, 71
1, 486861, Note_on_c, 0, 77, 103
1, 486861, Note_on_c, 0, 87, 104
1, 486866, Note_on_c, 0, 61, 108
1, 486872, Control_c, 0, 64, 0
1, 486931, Control_c, 0, 64, 76
1, 486939, Note_off_c, 0, 77, 65
1, 486946, Control_c, 0, 64, 100
1, 486950, Note_off_c, 0, 83, 61
1, 486960, Control_c, 0, 64, 127
1, 487001, Note_off_c, 0, 87, 63
1, 487001, Note_off_c, 0, 61, 64
1, 487097, Note_on_c, 0, 78, 109
1, 487097, Note_on_c, 0, 83, 95
1, 487099, Note_on_c, 0, 88, 100
1, 487186, Note_off_c, 0, 83, 54
1, 487198, Note_on_c, 0, 51, 98
1, 487213, Note_off_c, 0, 88, 61
1, 487214, Note_off_c, 0, 78, 58
1, 487266, Note_off_c, 0, 51, 63
1, 487363, Note_on_c, 0, 91, 114
1, 487364, Note_on_c, 0, 79, 109
1, 487364, Note_on_c, 0, 82, 105
1, 487366, Note_on_c, 0, 52, 102
1, 487366, Note_on_c, 0, 86, 97
1, 487377, Control_c, 0, 64, 109
1, 487382, Note_on_c, 0, 53, 65
1, 487391, Control_c, 0, 64, 79
1, 487406, Control_c, 0, 64, 0
1, 487502, Control_c, 0, 64, 67
1, 487517, Control_c, 0, 64, 81
1, 487532, Control_c, 0, 64, 89
1, 487547, Control_c, 0, 64, 91
1, 487562, Control_c, 0, 64, 91
1, 487577, Control_c, 0, 64, 94
1, 487591, Control_c, 0, 64, 99
1, 487606, Control_c, 0, 64, 104
1, 487611, Note_off_c, 0, 79, 54
1, 487620, Note_off_c, 0, 53, 12
1, 487621, Control_c, 0, 64, 105
1, 487636, Control_c, 0, 64, 106
1, 487651, Control_c, 0, 64, 108
1, 487656, Note_on_c, 0, 62, 97
1, 487657, Note_on_c, 0, 58, 103
1, 487665, Control_c, 0, 64, 110
1, 487676, Note_off_c, 0, 91, 51
1, 487678, Control_c, 0, 64, 114
1, 487687, Note_off_c, 0, 52, 68
1, 487693, Control_c, 0, 64, 117
1, 487705, Note_off_c, 0, 62, 63
1, 487708, Control_c, 0, 64, 118
1, 487723, Control_c, 0, 64, 119
1, 487726, Note_off_c, 0, 58, 65
1, 487737, Note_off_c, 0, 86, 52
1, 487738, Control_c, 0, 64, 120
1, 487746, Note_off_c, 0, 82, 58
1, 487753, Control_c, 0, 64, 122
1, 487767, Control_c, 0, 64, 124
1, 487777, Note_on_c, 0, 89, 98
1, 487782, Control_c, 0, 64, 125
1, 487782, Note_on_c, 0, 77, 98
1, 487797, Control_c, 0, 64, 127
1, 487812, Control_c, 0, 64, 127
1, 487827, Note_off_c, 0, 77, 65
1, 487869, Note_off_c, 0, 89, 65
1, 487915, Note_on_c, 0, 88, 100
1, 487916, Note_on_c, 0, 76, 101
1, 488001, Note_off_c, 0, 76, 61
1, 488101, Note_off_c, 0, 88, 60
1, 488171, Note_on_c, 0, 86, 103
1, 488172, Note_on_c, 0, 74, 101
1, 488174, Note_on_c, 0, 73, 100
1, 488177, Note_on_c, 0, 69, 93
1, 488183, Note_on_c, 0, 65, 82
1, 488212, Note_off_c, 0, 74, 68
1, 488236, Note_off_c, 0, 86, 62
1, 488247, Note_off_c, 0, 73, 58
1, 488251, Note_off_c, 0, 69, 61
1, 488256, Note_off_c, 0, 65, 60
1, 488398, Control_c, 0, 64, 127
1, 488412, Control_c, 0, 64, 87
1, 488423, Note_on_c, 0, 64, 98
1, 488423, Note_on_c, 0, 90, 107
1, 488425, Note_on_c, 0, 74, 99
1, 488425, Note_on_c, 0, 85, 105
1, 488426, Note_on_c, 0, 78, 105
1, 488428, Control_c, 0, 64, 47
1, 488431, Note_on_c, 0, 70, 95
1, 488432, Note_on_c, 0, 67, 91
1, 488443, Control_c, 0, 64, 0
1, 488487, Control_c, 0, 64, 60
1, 488502, Control_c, 0, 64, 79
1, 488517, Control_c, 0, 64, 100
1, 488532, Control_c, 0, 64, 127
1, 488541, Note_off_c, 0, 64, 62
1, 488541, Note_off_c, 0, 74, 64
1, 488541, Note_off_c, 0, 78, 64
1, 488638, Note_off_c, 0, 90, 61
1, 488643, Note_off_c, 0, 67, 57
1, 488655, Note_off_c, 0, 85, 62
1, 488676, Note_off_c, 0, 70, 53
1, 488679, Note_on_c, 0, 79, 113
1, 488679, Note_on_c, 0, 91, 105
1, 488692, Poly_aftertouch_c, 0, 85, 0
1, 488698, Note_on_c, 0, 85, 56
1, 488699, Note_off_c, 0, 85, 127
1, 488699, Note_on_c, 0, 90, 64
1, 488708, Note_off_c, 0, 79, 69
1, 488716, Note_off_c, 0, 90, 63
1, 488717, Note_off_c, 0, 91, 64
1, 488732, Note_on_c, 0, 87, 16
1, 488733, Note_off_c, 0, 87, 127
1, 488970, Control_c, 0, 64, 104
1, 488984, Note_on_c, 0, 91, 117
1, 488984, Note_on_c, 0, 98, 110
1, 488984, Note_on_c, 0, 63, 96
1, 488985, Note_on_c, 0, 86, 106
1, 488985, Control_c, 0, 64, 73
1, 488987, Note_on_c, 0, 72, 103
1, 488988, Note_on_c, 0, 67, 95
1, 488999, Note_on_c, 0, 100, 69
1, 489000, Note_off_c, 0, 100, 127
1, 489000, Control_c, 0, 64, 0
1, 489024, Note_off_c, 0, 72, 66
1, 489043, Note_off_c, 0, 67, 67
1, 489044, Control_c, 0, 64, 53
1, 489059, Control_c, 0, 64, 82
1, 489071, Note_off_c, 0, 63, 64
1, 489074, Control_c, 0, 64, 114
1, 489089, Control_c, 0, 64, 127
1, 489259, Note_off_c, 0, 86, 57
1, 489290, Note_on_c, 0, 51, 100
1, 489290, Note_on_c, 0, 60, 104
1, 489293, Note_on_c, 0, 55, 102
1, 489296, Note_off_c, 0, 98, 49
1, 489319, Note_off_c, 0, 60, 66
1, 489332, Note_off_c, 0, 55, 68
1, 489339, Note_off_c, 0, 51, 65
1, 489389, Note_off_c, 0, 91, 59
1, 489418, Note_on_c, 0, 96, 96
1, 489425, Note_on_c, 0, 84, 96
1, 489475, Note_off_c, 0, 84, 68
1, 489523, Note_off_c, 0, 96, 59
1, 489568, Note_on_c, 0, 39, 103
1, 489577, Note_on_c, 0, 82, 101
1, 489577, Note_on_c, 0, 94, 104
1, 489596, Note_on_c, 0, 41, 55
1, 489623, Note_off_c, 0, 41, 63
1, 489735, Note_off_c, 0, 82, 55
1, 489786, Note_off_c, 0, 94, 62
1, 489817, Note_on_c, 0, 93, 103
1, 489822, Note_on_c, 0, 81, 97
1, 489917, Note_off_c, 0, 81, 60
1, 489921, Note_on_c, 0, 43, 92
1, 489976, Note_off_c, 0, 93, 59
1, 489980, Note_off_c, 0, 39, 56
1, 490033, Note_off_c, 0, 43, 62
1, 490054, Note_on_c, 0, 50, 105
1, 490057, Note_on_c, 0, 90, 102
1, 490062, Note_on_c, 0, 78, 101
1, 490099, Note_on_c, 0, 87, 32
1, 490132, Note_off_c, 0, 87, 34
1, 490184, Note_off_c, 0, 78, 62
1, 490274, Note_off_c, 0, 90, 59
1, 490296, Note_on_c, 0, 91, 103
1, 490298, Note_on_c, 0, 79, 101
1, 490310, Note_off_c, 0, 50, 56
1, 490316, Note_on_c, 0, 90, 66
1, 490329, Note_off_c, 0, 79, 70
1, 490332, Note_off_c, 0, 90, 63
1, 490356, Note_off_c, 0, 91, 61
1, 490385, Note_on_c, 0, 49, 97
1, 490448, Note_off_c, 0, 49, 64
1, 490603, Note_on_c, 0, 98, 110
1, 490606, Note_on_c, 0, 86, 110
1, 490606, Note_on_c, 0, 89, 111
1, 490607, Note_on_c, 0, 48, 106
1, 490631, Control_c, 0, 64, 104
1, 490636, Note_on_c, 0, 90, 41
1, 490637, Note_off_c, 0, 90, 127
1, 490646, Control_c, 0, 64, 70
1, 490661, Control_c, 0, 64, 0
1, 490778, Control_c, 0, 64, 67
1, 490793, Control_c, 0, 64, 96
1, 490808, Control_c, 0, 64, 127
1, 490923, Note_on_c, 0, 60, 102
1, 490927, Note_on_c, 0, 53, 90
1, 490927, Note_on_c, 0, 56, 96
1, 490933, Note_on_c, 0, 50, 82
1, 490950, Note_off_c, 0, 60, 65
1, 490957, Note_off_c, 0, 48, 66
1, 490962, Note_off_c, 0, 56, 68
1, 490963, Note_off_c, 0, 50, 65
1, 490968, Note_off_c, 0, 53, 69
1, 490973, Note_off_c, 0, 98, 56
1, 490976, Note_off_c, 0, 86, 57
1, 491037, Note_off_c, 0, 89, 60
1, 491064, Note_on_c, 0, 96, 106
1, 491068, Note_on_c, 0, 84, 101
1, 491136, Note_off_c, 0, 84, 49
1, 491193, Note_off_c, 0, 96, 63
1, 491234, Note_on_c, 0, 94, 106
1, 491235, Note_on_c, 0, 38, 100
1, 491237, Note_on_c, 0, 82, 99
1, 491242, Note_on_c, 0, 36, 77
1, 491264, Note_off_c, 0, 36, 39
1, 491407, Note_off_c, 0, 82, 62
1, 491463, Note_off_c, 0, 94, 62
1, 491498, Note_on_c, 0, 93, 94
1, 491503, Note_on_c, 0, 81, 105
1, 491544, Note_off_c, 0, 93, 63
1, 491566, Note_off_c, 0, 81, 62
1, 491610, Note_on_c, 0, 41, 95
1, 491656, Note_off_c, 0, 38, 63
1, 491726, Note_off_c, 0, 41, 66
1, 491750, Note_on_c, 0, 88, 101
1, 491753, Note_on_c, 0, 48, 97
1, 491754, Note_on_c, 0, 76, 101
1, 491757, Note_on_c, 0, 85, 100
1, 491787, Note_on_c, 0, 50, 36
1, 491788, Note_off_c, 0, 50, 127
1, 491874, Poly_aftertouch_c, 0, 50, 127
1, 491909, Note_off_c, 0, 76, 53
1, 491917, Poly_aftertouch_c, 0, 50, 0
1, 492006, Note_off_c, 0, 88, 62
1, 492021, Note_off_c, 0, 85, 62
1, 492038, Note_on_c, 0, 89, 100
1, 492039, Note_on_c, 0, 77, 101
1, 492079, Note_off_c, 0, 77, 67
1, 492083, Note_off_c, 0, 48, 60
1, 492105, Note_off_c, 0, 89, 66
1, 492131, Note_on_c, 0, 46, 86
1, 492234, Note_off_c, 0, 46, 50
1, 492319, Note_on_c, 0, 45, 107
1, 492319, Note_on_c, 0, 94, 112
1, 492319, Note_on_c, 0, 98, 114
1, 492321, Note_on_c, 0, 86, 101
1, 492321, Note_on_c, 0, 90, 114
1, 492322, Control_c, 0, 64, 88
1, 492336, Control_c, 0, 64, 0
1, 492425, Control_c, 0, 64, 99
1, 492438, Note_off_c, 0, 45, 65
1, 492440, Control_c, 0, 64, 127
1, 492582, Note_off_c, 0, 86, 46
1, 492618, Note_off_c, 0, 98, 48
1, 492646, Note_on_c, 0, 58, 103
1, 492659, Note_on_c, 0, 54, 94
1, 492659, Note_on_c, 0, 48, 89
1, 492659, Note_on_c, 0, 52, 88
1, 492680, Note_on_c, 0, 49, 61
1, 492683, Note_off_c, 0, 48, 72
1, 492683, Note_off_c, 0, 58, 69
1, 492695, Note_off_c, 0, 54, 66
1, 492698, Note_off_c, 0, 52, 67
1, 492705, Note_off_c, 0, 49, 37
1, 492778, Note_off_c, 0, 90, 58
1, 492790, Note_on_c, 0, 96, 107
1, 492794, Note_on_c, 0, 84, 98
1, 492814, Note_off_c, 0, 94, 54
1, 492851, Note_off_c, 0, 84, 66
1, 492938, Note_off_c, 0, 96, 53
1, 492972, Note_on_c, 0, 94, 104
1, 492975, Note_on_c, 0, 82, 99
1, 492978, Note_on_c, 0, 55, 107
1, 493168, Note_off_c, 0, 82, 59
1, 493247, Note_off_c, 0, 94, 63
1, 493256, Note_on_c, 0, 93, 96
1, 493261, Note_on_c, 0, 81, 96
1, 493299, Note_off_c, 0, 93, 65
1, 493321, Note_off_c, 0, 81, 65
1, 493381, Note_on_c, 0, 60, 96
1, 493485, Note_off_c, 0, 55, 59
1, 493528, Note_off_c, 0, 60, 63
1, 493543, Note_on_c, 0, 78, 101
1, 493543, Note_on_c, 0, 82, 96
1, 493544, Note_on_c, 0, 74, 95
1, 493544, Note_on_c, 0, 86, 102
1, 493547, Note_on_c, 0, 66, 112
1, 493592, Note_off_c, 0, 66, 70
1, 493716, Note_off_c, 0, 74, 60
1, 493720, Note_off_c, 0, 86, 56
1, 493871, Note_on_c, 0, 84, 99
1, 493872, Note_on_c, 0, 72, 95
1, 493878, Note_off_c, 0, 78, 60
1, 493890, Note_off_c, 0, 82, 62
1, 494035, Note_off_c, 0, 72, 62
1, 494175, Note_on_c, 0, 82, 100
1, 494176, Note_on_c, 0, 70, 93
1, 494177, Note_on_c, 0, 43, 103
1, 494198, Note_off_c, 0, 84, 59
1, 494409, Note_off_c, 0, 70, 59
1, 494483, Note_on_c, 0, 81, 97
1, 494484, Note_on_c, 0, 69, 96
1, 494507, Note_off_c, 0, 82, 61
1, 494529, Note_off_c, 0, 81, 65
1, 494585, Note_off_c, 0, 69, 62
1, 494612, Note_on_c, 0, 48, 100
1, 494644, Note_on_c, 0, 47, 54
1, 494671, Note_off_c, 0, 47, 57
1, 494699, Note_off_c, 0, 43, 59
1, 494796, Note_off_c, 0, 48, 66
1, 494811, Note_on_c, 0, 54, 100
1, 494815, Note_on_c, 0, 62, 99
1, 494817, Note_on_c, 0, 66, 93
1, 494817, Note_on_c, 0, 70, 92
1, 494817, Note_on_c, 0, 74, 98
1, 494943, Note_off_c, 0, 54, 60
1, 494992, Poly_aftertouch_c, 0, 55, 0
1, 495045, Note_off_c, 0, 62, 57
1, 495053, Note_off_c, 0, 74, 55
1, 495190, Note_on_c, 0, 72, 98
1, 495194, Note_on_c, 0, 60, 93
1, 495202, Note_off_c, 0, 66, 62
1, 495226, Note_off_c, 0, 70, 60
1, 495406, Note_off_c, 0, 60, 60
1, 495554, Note_on_c, 0, 70, 88
1, 495555, Note_on_c, 0, 58, 81
1, 495560, Note_on_c, 0, 31, 101
1, 495585, Note_off_c, 0, 72, 59
1, 495807, Note_off_c, 0, 58, 58
1, 495997, Note_on_c, 0, 69, 82
1, 496000, Note_on_c, 0, 57, 78
1, 496037, Note_off_c, 0, 70, 59
1, 496149, Note_off_c, 0, 69, 64
1, 496209, Note_off_c, 0, 57, 59
1, 496220, Note_on_c, 0, 36, 91
1, 496309, Note_off_c, 0, 31, 51
1, 496549, Note_on_c, 0, 67, 83
1, 496549, Note_on_c, 0, 39, 83
1, 496550, Note_on_c, 0, 55, 83
1, 496552, Note_on_c, 0, 62, 75
1, 496576, Control_c, 0, 64, 116
1, 496591, Control_c, 0, 64, 94
1, 496606, Control_c, 0, 64, 79
1, 496620, Note_off_c, 0, 36, 51
1, 496621, Control_c, 0, 64, 66
1, 496636, Control_c, 0, 64, 0
1, 497087, Note_on_c, 0, 60, 73
1, 497113, Note_off_c, 0, 62, 56
1, 497281, Control_c, 0, 64, 43
1, 497296, Control_c, 0, 64, 63
1, 497311, Control_c, 0, 64, 67
1, 497325, Control_c, 0, 64, 70
1, 497340, Control_c, 0, 64, 73
1, 497355, Control_c, 0, 64, 76
1, 497369, Control_c, 0, 64, 80
1, 497384, Control_c, 0, 64, 82
1, 497399, Control_c, 0, 64, 82
1, 497426, Poly_aftertouch_c, 0, 48, 127
1, 497443, Control_c, 0, 64, 82
1, 497458, Control_c, 0, 64, 77
1, 497464, Poly_aftertouch_c, 0, 48, 0
1, 497473, Note_on_c, 0, 58, 77
1, 497473, Control_c, 0, 64, 69
1, 497480, Note_on_c, 0, 43, 76
1, 497488, Control_c, 0, 64, 37
1, 497503, Control_c, 0, 64, 0
1, 497545, Note_off_c, 0, 60, 57
1, 497569, Note_off_c, 0, 55, 53
1, 497622, Control_c, 0, 64, 43
1, 497637, Control_c, 0, 64, 67
1, 497651, Control_c, 0, 64, 74
1, 497666, Control_c, 0, 64, 81
1, 497682, Control_c, 0, 64, 88
1, 497697, Control_c, 0, 64, 93
1, 497712, Control_c, 0, 64, 97
1, 497727, Control_c, 0, 64, 99
1, 497742, Control_c, 0, 64, 101
1, 497756, Control_c, 0, 64, 102
1, 497771, Control_c, 0, 64, 102
1, 497786, Control_c, 0, 64, 103
1, 497800, Control_c, 0, 64, 103
1, 497815, Control_c, 0, 64, 104
1, 497822, Note_on_c, 0, 57, 74
1, 497830, Control_c, 0, 64, 105
1, 497845, Control_c, 0, 64, 106
1, 497860, Control_c, 0, 64, 106
1, 497874, Control_c, 0, 64, 107
1, 497911, Control_c, 0, 64, 107
1, 497926, Control_c, 0, 64, 108
1, 497952, Note_off_c, 0, 67, 60
1, 497964, Note_on_c, 0, 48, 78
1, 498000, Control_c, 0, 64, 108
1, 498013, Note_off_c, 0, 57, 61
1, 498030, Control_c, 0, 64, 109
1, 498060, Control_c, 0, 64, 109
1, 498089, Control_c, 0, 64, 110
1, 498104, Control_c, 0, 64, 111
1, 498107, Note_off_c, 0, 48, 62
1, 498118, Control_c, 0, 64, 113
1, 498133, Control_c, 0, 64, 115
1, 498148, Control_c, 0, 64, 115
1, 498179, Control_c, 0, 64, 114
1, 498193, Control_c, 0, 64, 107
1, 498195, Note_off_c, 0, 39, 59
1, 498201, Note_on_c, 0, 66, 79
1, 498204, Note_on_c, 0, 62, 68
1, 498208, Control_c, 0, 64, 95
1, 498212, Note_on_c, 0, 54, 69
1, 498218, Note_on_c, 0, 50, 65
1, 498219, Note_on_c, 0, 38, 63
1, 498223, Control_c, 0, 64, 80
1, 498238, Control_c, 0, 64, 67
1, 498253, Control_c, 0, 64, 26
1, 498267, Control_c, 0, 64, 0
1, 498288, Note_off_c, 0, 58, 52
1, 498303, Note_off_c, 0, 43, 62
1, 498520, Control_c, 0, 64, 63
1, 498535, Control_c, 0, 64, 69
1, 498549, Control_c, 0, 64, 73
1, 498564, Control_c, 0, 64, 77
1, 498579, Control_c, 0, 64, 81
1, 498594, Control_c, 0, 64, 86
1, 498609, Control_c, 0, 64, 94
1, 498611, Note_on_c, 0, 60, 71
1, 498624, Control_c, 0, 64, 103
1, 498639, Control_c, 0, 64, 111
1, 498661, Control_c, 0, 64, 116
1, 498675, Note_off_c, 0, 54, 60
1, 498676, Control_c, 0, 64, 119
1, 498691, Control_c, 0, 64, 122
1, 498696, Note_off_c, 0, 50, 64
1, 498705, Control_c, 0, 64, 127
1, 498719, Note_off_c, 0, 62, 56
1, 498770, Note_off_c, 0, 66, 58
1, 498956, Control_c, 0, 64, 107
1, 498960, Note_on_c, 0, 67, 71
1, 498967, Note_on_c, 0, 58, 67
1, 498970, Note_on_c, 0, 55, 57
1, 498971, Control_c, 0, 64, 91
1, 498973, Note_on_c, 0, 51, 59
1, 498974, Note_on_c, 0, 39, 67
1, 498986, Control_c, 0, 64, 74
1, 499001, Control_c, 0, 64, 62
1, 499002, Note_off_c, 0, 60, 61
1, 499016, Control_c, 0, 64, 0
1, 499054, Note_off_c, 0, 38, 63
1, 499178, Control_c, 0, 64, 60
1, 499193, Control_c, 0, 64, 71
1, 499208, Control_c, 0, 64, 80
1, 499223, Control_c, 0, 64, 86
1, 499238, Note_off_c, 0, 55, 57
1, 499238, Control_c, 0, 64, 88
1, 499253, Control_c, 0, 64, 89
1, 499268, Control_c, 0, 64, 92
1, 499283, Control_c, 0, 64, 96
1, 499298, Control_c, 0, 64, 100
1, 499312, Control_c, 0, 64, 103
1, 499327, Control_c, 0, 64, 104
1, 499342, Control_c, 0, 64, 105
1, 499356, Note_on_c, 0, 57, 69
1, 499357, Control_c, 0, 64, 105
1, 499372, Control_c, 0, 64, 107
1, 499394, Control_c, 0, 64, 110
1, 499409, Control_c, 0, 64, 111
1, 499453, Control_c, 0, 64, 112
1, 499478, Note_off_c, 0, 58, 39
1, 499483, Control_c, 0, 64, 112
1, 499513, Control_c, 0, 64, 113
1, 499542, Control_c, 0, 64, 113
1, 499557, Control_c, 0, 64, 114
1, 499560, Note_off_c, 0, 51, 58
1, 499572, Control_c, 0, 64, 115
1, 499587, Control_c, 0, 64, 116
1, 499602, Control_c, 0, 64, 117
1, 499690, Control_c, 0, 64, 114
1, 499705, Control_c, 0, 64, 106
1, 499719, Control_c, 0, 64, 96
1, 499726, Note_on_c, 0, 62, 70
1, 499731, Note_off_c, 0, 39, 57
1, 499734, Control_c, 0, 64, 84
1, 499739, Note_on_c, 0, 38, 62
1, 499740, Note_on_c, 0, 50, 60
1, 499749, Control_c, 0, 64, 70
1, 499764, Control_c, 0, 64, 55
1, 499778, Control_c, 0, 64, 0
1, 499941, Control_c, 0, 64, 28
1, 499956, Control_c, 0, 64, 68
1, 499971, Control_c, 0, 64, 77
1, 499986, Control_c, 0, 64, 86
1, 500001, Control_c, 0, 64, 90
1, 500016, Control_c, 0, 64, 93
1, 500031, Control_c, 0, 64, 95
1, 500045, Control_c, 0, 64, 98
1, 500061, Control_c, 0, 64, 102
1, 500076, Control_c, 0, 64, 104
1, 500090, Control_c, 0, 64, 105
1, 500102, Note_off_c, 0, 38, 59
1, 500105, Control_c, 0, 64, 106
1, 500116, Note_off_c, 0, 50, 48
1, 500120, Note_on_c, 0, 60, 64
1, 500120, Control_c, 0, 64, 107
1, 500142, Control_c, 0, 64, 109
1, 500157, Control_c, 0, 64, 112
1, 500172, Control_c, 0, 64, 115
1, 500184, Note_off_c, 0, 67, 59
1, 500187, Control_c, 0, 64, 116
1, 500201, Control_c, 0, 64, 117
1, 500224, Note_off_c, 0, 57, 44
1, 500231, Control_c, 0, 64, 119
1, 500246, Control_c, 0, 64, 122
1, 500261, Control_c, 0, 64, 127
1, 500275, Control_c, 0, 64, 127
1, 500314, Note_off_c, 0, 62, 37
1, 500468, Control_c, 0, 64, 125
1, 500483, Control_c, 0, 64, 107
1, 500498, Control_c, 0, 64, 92
1, 500504, Note_on_c, 0, 66, 64
1, 500507, Note_on_c, 0, 51, 44
1, 500511, Note_on_c, 0, 58, 55
1, 500511, Note_on_c, 0, 39, 50
1, 500513, Control_c, 0, 64, 75
1, 500514, Note_on_c, 0, 54, 51
1, 500527, Control_c, 0, 64, 63
1, 500542, Control_c, 0, 64, 0
1, 500579, Note_off_c, 0, 60, 57
1, 500675, Control_c, 0, 64, 64
1, 500690, Control_c, 0, 64, 73
1, 500705, Control_c, 0, 64, 83
1, 500719, Control_c, 0, 64, 89
1, 500734, Control_c, 0, 64, 92
1, 500749, Control_c, 0, 64, 95
1, 500763, Note_off_c, 0, 58, 64
1, 500764, Control_c, 0, 64, 98
1, 500779, Control_c, 0, 64, 102
1, 500794, Control_c, 0, 64, 107
1, 500809, Control_c, 0, 64, 109
1, 500824, Control_c, 0, 64, 111
1, 500839, Control_c, 0, 64, 111
1, 500854, Control_c, 0, 64, 112
1, 500869, Control_c, 0, 64, 115
1, 500891, Control_c, 0, 64, 118
1, 500900, Note_on_c, 0, 57, 62
1, 500906, Control_c, 0, 64, 123
1, 500921, Control_c, 0, 64, 126
1, 500936, Control_c, 0, 64, 127
1, 501001, Note_off_c, 0, 54, 56
1, 501013, Note_off_c, 0, 39, 61
1, 501056, Note_off_c, 0, 57, 61
1, 501069, Note_off_c, 0, 51, 60
1, 501161, Note_off_c, 0, 66, 61
1, 501306, Control_c, 0, 64, 120
1, 501321, Control_c, 0, 64, 103
1, 501327, Note_on_c, 0, 67, 65
1, 501331, Note_on_c, 0, 55, 57
1, 501336, Note_on_c, 0, 62, 56
1, 501336, Control_c, 0, 64, 89
1, 501337, Note_on_c, 0, 40, 57
1, 501350, Control_c, 0, 64, 76
1, 501365, Control_c, 0, 64, 65
1, 501380, Control_c, 0, 64, 40
1, 501395, Control_c, 0, 64, 0
1, 501454, Control_c, 0, 64, 26
1, 501468, Control_c, 0, 64, 59
1, 501477, Note_on_c, 0, 41, 58
1, 501483, Control_c, 0, 64, 68
1, 501498, Control_c, 0, 64, 76
1, 501513, Control_c, 0, 64, 84
1, 501528, Control_c, 0, 64, 89
1, 501542, Control_c, 0, 64, 91
1, 501549, Note_off_c, 0, 40, 55
1, 501557, Control_c, 0, 64, 92
1, 501570, Note_off_c, 0, 41, 65
1, 501572, Control_c, 0, 64, 93
1, 501587, Control_c, 0, 64, 95
1, 501602, Control_c, 0, 64, 95
1, 501604, Note_on_c, 0, 48, 68
1, 501700, Control_c, 0, 64, 94
1, 501712, Note_off_c, 0, 48, 62
1, 501715, Control_c, 0, 64, 93
1, 501729, Control_c, 0, 64, 90
1, 501738, Note_on_c, 0, 42, 61
1, 501742, Note_on_c, 0, 60, 72
1, 501744, Control_c, 0, 64, 87
1, 501759, Control_c, 0, 64, 82
1, 501773, Control_c, 0, 64, 79
1, 501788, Control_c, 0, 64, 76
1, 501803, Control_c, 0, 64, 74
1, 501818, Control_c, 0, 64, 72
1, 501833, Control_c, 0, 64, 71
1, 501845, Note_off_c, 0, 55, 62
1, 501847, Control_c, 0, 64, 70
1, 501858, Note_on_c, 0, 45, 65
1, 501862, Control_c, 0, 64, 69
1, 501876, Note_off_c, 0, 62, 56
1, 501877, Control_c, 0, 64, 68
1, 501892, Control_c, 0, 64, 68
1, 501921, Control_c, 0, 64, 67
1, 501936, Control_c, 0, 64, 66
1, 501951, Control_c, 0, 64, 65
1, 502010, Note_off_c, 0, 45, 65
1, 502013, Note_on_c, 0, 51, 64
1, 502025, Control_c, 0, 64, 65
1, 502070, Control_c, 0, 64, 65
1, 502129, Control_c, 0, 64, 65
1, 502158, Control_c, 0, 64, 64
1, 502173, Control_c, 0, 64, 63
1, 502188, Control_c, 0, 64, 60
1, 502192, Note_on_c, 0, 58, 62
1, 502200, Note_on_c, 0, 50, 53
1, 502203, Control_c, 0, 64, 52
1, 502208, Note_off_c, 0, 51, 55
1, 502218, Control_c, 0, 64, 35
1, 502232, Control_c, 0, 64, 0
1, 502299, Note_off_c, 0, 60, 38
1, 502336, Control_c, 0, 64, 16
1, 502351, Control_c, 0, 64, 62
1, 502365, Control_c, 0, 64, 68
1, 502380, Control_c, 0, 64, 73
1, 502403, Control_c, 0, 64, 79
1, 502418, Control_c, 0, 64, 84
1, 502433, Control_c, 0, 64, 88
1, 502447, Control_c, 0, 64, 90
1, 502462, Control_c, 0, 64, 93
1, 502478, Control_c, 0, 64, 95
1, 502493, Control_c, 0, 64, 96
1, 502508, Control_c, 0, 64, 97
1, 502522, Control_c, 0, 64, 98
1, 502552, Note_off_c, 0, 58, 61
1, 502567, Control_c, 0, 64, 97
1, 502582, Control_c, 0, 64, 94
1, 502596, Control_c, 0, 64, 87
1, 502605, Note_on_c, 0, 57, 57
1, 502606, Note_off_c, 0, 50, 48
1, 502611, Control_c, 0, 64, 77
1, 502624, Note_on_c, 0, 48, 53
1, 502626, Control_c, 0, 64, 65
1, 502641, Control_c, 0, 64, 46
1, 502656, Control_c, 0, 64, 22
1, 502670, Control_c, 0, 64, 11
1, 502685, Control_c, 0, 64, 20
1, 502700, Control_c, 0, 64, 39
1, 502714, Control_c, 0, 64, 60
1, 502729, Control_c, 0, 64, 66
1, 502744, Control_c, 0, 64, 73
1, 502759, Control_c, 0, 64, 80
1, 502774, Control_c, 0, 64, 86
1, 502788, Control_c, 0, 64, 90
1, 502803, Control_c, 0, 64, 92
1, 502809, Note_off_c, 0, 67, 61
1, 502815, Note_off_c, 0, 57, 62
1, 502818, Control_c, 0, 64, 94
1, 502833, Control_c, 0, 64, 96
1, 502848, Control_c, 0, 64, 99
1, 502863, Control_c, 0, 64, 101
1, 502878, Control_c, 0, 64, 102
1, 502893, Control_c, 0, 64, 102
1, 502967, Control_c, 0, 64, 102
1, 502981, Control_c, 0, 64, 97
1, 502996, Control_c, 0, 64, 88
1, 503009, Note_on_c, 0, 66, 58
1, 503011, Control_c, 0, 64, 78
1, 503012, Note_on_c, 0, 46, 54
1, 503021, Note_on_c, 0, 62, 53
1, 503022, Note_on_c, 0, 54, 52
1, 503026, Control_c, 0, 64, 69
1, 503033, Note_off_c, 0, 48, 62
1, 503041, Control_c, 0, 64, 59
1, 503055, Control_c, 0, 64, 43
1, 503070, Control_c, 0, 64, 32
1, 503085, Control_c, 0, 64, 23
1, 503100, Control_c, 0, 64, 0
1, 503137, Control_c, 0, 64, 14
1, 503152, Control_c, 0, 64, 40
1, 503167, Control_c, 0, 64, 58
1, 503182, Control_c, 0, 64, 65
1, 503184, Note_off_c, 0, 42, 46
1, 503196, Control_c, 0, 64, 71
1, 503211, Control_c, 0, 64, 75
1, 503226, Control_c, 0, 64, 78
1, 503241, Control_c, 0, 64, 81
1, 503256, Control_c, 0, 64, 84
1, 503271, Control_c, 0, 64, 87
1, 503286, Control_c, 0, 64, 89
1, 503301, Control_c, 0, 64, 92
1, 503316, Control_c, 0, 64, 93
1, 503331, Control_c, 0, 64, 94
1, 503345, Control_c, 0, 64, 94
1, 503390, Control_c, 0, 64, 94
1, 503405, Control_c, 0, 64, 92
1, 503419, Control_c, 0, 64, 86
1, 503432, Note_on_c, 0, 60, 53
1, 503434, Control_c, 0, 64, 78
1, 503435, Note_off_c, 0, 46, 56
1, 503449, Control_c, 0, 64, 69
1, 503454, Note_on_c, 0, 45, 54
1, 503464, Control_c, 0, 64, 59
1, 503476, Note_off_c, 0, 62, 50
1, 503479, Control_c, 0, 64, 37
1, 503493, Control_c, 0, 64, 34
1, 503508, Control_c, 0, 64, 43
1, 503523, Control_c, 0, 64, 55
1, 503537, Control_c, 0, 64, 64
1, 503552, Control_c, 0, 64, 69
1, 503567, Control_c, 0, 64, 76
1, 503579, Note_off_c, 0, 54, 59
1, 503582, Control_c, 0, 64, 85
1, 503597, Control_c, 0, 64, 90
1, 503611, Control_c, 0, 64, 93
1, 503613, Note_off_c, 0, 45, 64
1, 503620, Note_off_c, 0, 60, 63
1, 503626, Control_c, 0, 64, 95
1, 503641, Control_c, 0, 64, 97
1, 503656, Control_c, 0, 64, 100
1, 503671, Control_c, 0, 64, 102
1, 503677, Note_off_c, 0, 66, 53
1, 503685, Control_c, 0, 64, 103
1, 503700, Control_c, 0, 64, 103
1, 503715, Control_c, 0, 64, 104
1, 503730, Control_c, 0, 64, 105
1, 503745, Control_c, 0, 64, 106
1, 503804, Control_c, 0, 64, 102
1, 503819, Control_c, 0, 64, 93
1, 503834, Control_c, 0, 64, 82
1, 503835, Note_on_c, 0, 62, 47
1, 503836, Note_on_c, 0, 43, 48
1, 503840, Note_on_c, 0, 40, 49
1, 503840, Note_on_c, 0, 67, 52
1, 503846, Note_on_c, 0, 58, 44
1, 503849, Control_c, 0, 64, 71
1, 503863, Control_c, 0, 64, 60
1, 503885, Control_c, 0, 64, 43
1, 503900, Control_c, 0, 64, 36
1, 503915, Control_c, 0, 64, 40
1, 503930, Control_c, 0, 64, 50
1, 503945, Control_c, 0, 64, 61
1, 503960, Control_c, 0, 64, 67
1, 503975, Control_c, 0, 64, 72
1, 503990, Note_off_c, 0, 43, 59
1, 503990, Control_c, 0, 64, 77
1, 504003, Note_on_c, 0, 41, 60
1, 504004, Control_c, 0, 64, 82
1, 504019, Control_c, 0, 64, 85
1, 504034, Control_c, 0, 64, 86
1, 504049, Control_c, 0, 64, 87
1, 504064, Control_c, 0, 64, 87
1, 504079, Control_c, 0, 64, 88
1, 504089, Note_off_c, 0, 40, 41
1, 504094, Control_c, 0, 64, 89
1, 504109, Control_c, 0, 64, 89
1, 504115, Note_off_c, 0, 41, 65
1, 504124, Control_c, 0, 64, 90
1, 504143, Note_on_c, 0, 48, 67
1, 504213, Control_c, 0, 64, 89
1, 504242, Control_c, 0, 64, 89
1, 504257, Control_c, 0, 64, 88
1, 504272, Control_c, 0, 64, 88
1, 504287, Control_c, 0, 64, 87
1, 504302, Note_off_c, 0, 48, 57
1, 504302, Control_c, 0, 64, 86
1, 504308, Note_on_c, 0, 57, 54
1, 504311, Note_on_c, 0, 42, 68
1, 504317, Control_c, 0, 64, 85
1, 504332, Control_c, 0, 64, 84
1, 504347, Control_c, 0, 64, 82
1, 504361, Control_c, 0, 64, 80
1, 504376, Control_c, 0, 64, 78
1, 504391, Control_c, 0, 64, 76
1, 504406, Control_c, 0, 64, 73
1, 504408, Note_off_c, 0, 58, 60
1, 504421, Control_c, 0, 64, 72
1, 504435, Control_c, 0, 64, 70
1, 504446, Note_on_c, 0, 45, 63
1, 504450, Control_c, 0, 64, 69
1, 504465, Control_c, 0, 64, 68
1, 504480, Control_c, 0, 64, 67
1, 504494, Control_c, 0, 64, 66
1, 504509, Control_c, 0, 64, 66
1, 504524, Control_c, 0, 64, 65
1, 504554, Control_c, 0, 64, 65
1, 504568, Control_c, 0, 64, 64
1, 504598, Control_c, 0, 64, 64
1, 504613, Control_c, 0, 64, 63
1, 504629, Note_on_c, 0, 52, 68
1, 504648, Note_off_c, 0, 45, 64
1, 504650, Control_c, 0, 64, 63
1, 504680, Control_c, 0, 64, 62
1, 504694, Control_c, 0, 64, 62
1, 504709, Control_c, 0, 64, 61
1, 504724, Control_c, 0, 64, 60
1, 504739, Control_c, 0, 64, 60
1, 504754, Control_c, 0, 64, 59
1, 504768, Control_c, 0, 64, 58
1, 504783, Control_c, 0, 64, 57
1, 504798, Control_c, 0, 64, 56
1, 504813, Control_c, 0, 64, 55
1, 504828, Control_c, 0, 64, 53
1, 504842, Control_c, 0, 64, 52
1, 504858, Control_c, 0, 64, 52
1, 504873, Control_c, 0, 64, 50
1, 504888, Control_c, 0, 64, 49
1, 504912, Note_on_c, 0, 51, 58
1, 504917, Control_c, 0, 64, 49
1, 504932, Control_c, 0, 64, 48
1, 504972, Note_off_c, 0, 52, 64
1, 505034, Note_off_c, 0, 57, 38
1, 505081, Control_c, 0, 64, 49
1, 505095, Control_c, 0, 64, 50
1, 505110, Control_c, 0, 64, 51
1, 505125, Control_c, 0, 64, 52
1, 505140, Control_c, 0, 64, 53
1, 505155, Control_c, 0, 64, 55
1, 505170, Control_c, 0, 64, 57
1, 505184, Control_c, 0, 64, 59
1, 505199, Control_c, 0, 64, 60
1, 505214, Control_c, 0, 64, 61
1, 505229, Control_c, 0, 64, 62
1, 505244, Control_c, 0, 64, 62
1, 505258, Control_c, 0, 64, 63
1, 505273, Control_c, 0, 64, 64
1, 505288, Control_c, 0, 64, 64
1, 505303, Control_c, 0, 64, 65
1, 505317, Control_c, 0, 64, 65
1, 505332, Control_c, 0, 64, 66
1, 505347, Control_c, 0, 64, 67
1, 505377, Control_c, 0, 64, 67
1, 505399, Control_c, 0, 64, 68
1, 505414, Control_c, 0, 64, 68
1, 505444, Control_c, 0, 64, 69
1, 505459, Control_c, 0, 64, 69
1, 505473, Note_on_c, 0, 57, 46
1, 505473, Control_c, 0, 64, 70
1, 505513, Note_off_c, 0, 62, 59
1, 505562, Control_c, 0, 64, 69
1, 505577, Control_c, 0, 64, 68
1, 505591, Control_c, 0, 64, 68
1, 505606, Control_c, 0, 64, 67
1, 505621, Control_c, 0, 64, 67
1, 505635, Control_c, 0, 64, 66
1, 505667, Control_c, 0, 64, 66
1, 505681, Control_c, 0, 64, 66
1, 505696, Control_c, 0, 64, 67
1, 505706, Note_off_c, 0, 51, 56
1, 505726, Control_c, 0, 64, 67
1, 505745, Note_on_c, 0, 50, 40
1, 505755, Control_c, 0, 64, 68
1, 505770, Control_c, 0, 64, 68
1, 505785, Control_c, 0, 64, 69
1, 505800, Control_c, 0, 64, 69
1, 505814, Control_c, 0, 64, 70
1, 505844, Control_c, 0, 64, 70
1, 505859, Control_c, 0, 64, 71
1, 505874, Control_c, 0, 64, 72
1, 505888, Control_c, 0, 64, 74
1, 505903, Control_c, 0, 64, 75
1, 505918, Control_c, 0, 64, 76
1, 505933, Control_c, 0, 64, 76
1, 505948, Control_c, 0, 64, 77
1, 505978, Control_c, 0, 64, 77
1, 506067, Control_c, 0, 64, 76
1, 506081, Control_c, 0, 64, 75
1, 506096, Control_c, 0, 64, 74
1, 506111, Control_c, 0, 64, 71
1, 506112, Note_on_c, 0, 49, 33
1, 506119, Note_on_c, 0, 64, 42
1, 506125, Note_on_c, 0, 66, 38
1, 506126, Control_c, 0, 64, 68
1, 506137, Note_on_c, 0, 58, 30
1, 506148, Control_c, 0, 64, 65
1, 506163, Control_c, 0, 64, 63
1, 506175, Note_off_c, 0, 57, 24
1, 506177, Control_c, 0, 64, 62
1, 506192, Control_c, 0, 64, 62
1, 506194, Note_off_c, 0, 50, 41
1, 506207, Control_c, 0, 64, 61
1, 506222, Control_c, 0, 64, 60
1, 506237, Control_c, 0, 64, 59
1, 506252, Control_c, 0, 64, 58
1, 506261, Note_off_c, 0, 42, 60
1, 506281, Control_c, 0, 64, 58
1, 506296, Control_c, 0, 64, 57
1, 506309, Note_off_c, 0, 67, 16
1, 506311, Control_c, 0, 64, 57
1, 506414, Control_c, 0, 64, 57
1, 506460, Control_c, 0, 64, 58
1, 506475, Control_c, 0, 64, 58
1, 506490, Control_c, 0, 64, 59
1, 506504, Control_c, 0, 64, 60
1, 506519, Control_c, 0, 64, 61
1, 506534, Control_c, 0, 64, 61
1, 506549, Control_c, 0, 64, 62
1, 506578, Control_c, 0, 64, 63
1, 506593, Control_c, 0, 64, 63
1, 506726, Control_c, 0, 64, 64
1, 506830, Control_c, 0, 64, 64
1, 506854, Note_on_c, 0, 42, 24
1, 506860, Control_c, 0, 64, 65
1, 506911, Control_c, 0, 64, 65
1, 506926, Control_c, 0, 64, 66
1, 506941, Control_c, 0, 64, 67
1, 506956, Control_c, 0, 64, 68
1, 506970, Control_c, 0, 64, 69
1, 506985, Control_c, 0, 64, 70
1, 507000, Control_c, 0, 64, 72
1, 507015, Control_c, 0, 64, 74
1, 507030, Control_c, 0, 64, 77
1, 507045, Control_c, 0, 64, 80
1, 507060, Control_c, 0, 64, 83
1, 507075, Control_c, 0, 64, 86
1, 507089, Control_c, 0, 64, 88
1, 507104, Control_c, 0, 64, 90
1, 507119, Control_c, 0, 64, 92
1, 507134, Control_c, 0, 64, 93
1, 507149, Control_c, 0, 64, 94
1, 507155, Note_off_c, 0, 49, 41
1, 507163, Control_c, 0, 64, 94
1, 507178, Control_c, 0, 64, 95
1, 507180, Note_off_c, 0, 42, 42
1, 507193, Control_c, 0, 64, 96
1, 507208, Control_c, 0, 64, 96
1, 507223, Control_c, 0, 64, 97
1, 507549, Control_c, 0, 64, 96
1, 507564, Control_c, 0, 64, 96
1, 507579, Control_c, 0, 64, 95
1, 507593, Control_c, 0, 64, 94
1, 507608, Control_c, 0, 64, 93
1, 507631, Control_c, 0, 64, 93
1, 507646, Control_c, 0, 64, 92
1, 507660, Control_c, 0, 64, 91
1, 507675, Control_c, 0, 64, 90
1, 507690, Control_c, 0, 64, 89
1, 507700, Note_on_c, 0, 43, 41
1, 507705, Control_c, 0, 64, 88
1, 507719, Control_c, 0, 64, 87
1, 507734, Control_c, 0, 64, 86
1, 507749, Control_c, 0, 64, 84
1, 507749, Control_c, 0, 67, 9
1, 507764, Control_c, 0, 64, 82
1, 507764, Control_c, 0, 67, 12
1, 507779, Control_c, 0, 64, 80
1, 507779, Control_c, 0, 67, 16
1, 507793, Control_c, 0, 64, 78
1, 507793, Control_c, 0, 67, 22
1, 507808, Control_c, 0, 64, 76
1, 507808, Control_c, 0, 67, 29
1, 507823, Control_c, 0, 64, 74
1, 507823, Control_c, 0, 67, 39
1, 507838, Control_c, 0, 64, 72
1, 507838, Control_c, 0, 67, 49
1, 507853, Control_c, 0, 64, 70
1, 507853, Control_c, 0, 67, 58
1, 507868, Control_c, 0, 64, 69
1, 507868, Control_c, 0, 67, 65
1, 507883, Control_c, 0, 64, 68
1, 507883, Control_c, 0, 67, 72
1, 507898, Control_c, 0, 64, 67
1, 507898, Control_c, 0, 67, 78
1, 507912, Control_c, 0, 64, 67
1, 507912, Control_c, 0, 67, 85
1, 507927, Control_c, 0, 67, 93
1, 507928, Note_off_c, 0, 66, 35
1, 507942, Control_c, 0, 67, 100
1, 507957, Control_c, 0, 64, 66
1, 507957, Control_c, 0, 67, 108
1, 507972, Control_c, 0, 67, 115
1, 507987, Control_c, 0, 64, 66
1, 507987, Control_c, 0, 67, 122
1, 507992, Note_off_c, 0, 58, 35
1, 508002, Control_c, 0, 64, 65
1, 508002, Control_c, 0, 67, 127
1, 508017, Control_c, 0, 64, 65
1, 508024, Note_off_c, 0, 64, 39
1, 508031, Control_c, 0, 64, 64
1, 508046, Control_c, 0, 64, 64
1, 508062, Control_c, 0, 64, 63
1, 508077, Control_c, 0, 64, 63
1, 508106, Control_c, 0, 64, 62
1, 508121, Control_c, 0, 64, 61
1, 508136, Control_c, 0, 64, 60
1, 508151, Control_c, 0, 64, 59
1, 508166, Control_c, 0, 64, 58
1, 508181, Control_c, 0, 64, 57
1, 508196, Control_c, 0, 64, 55
1, 508210, Control_c, 0, 64, 53
1, 508225, Control_c, 0, 64, 50
1, 508240, Control_c, 0, 64, 47
1, 508255, Control_c, 0, 64, 44
1, 508270, Control_c, 0, 64, 41
1, 508284, Control_c, 0, 64, 35
1, 508299, Control_c, 0, 64, 27
1, 508314, Control_c, 0, 64, 0
1, 508443, Note_on_c, 0, 33, 43
1, 508712, Note_off_c, 0, 43, 43
1, 508810, Control_c, 0, 64, 20
1, 508825, Control_c, 0, 64, 37
1, 508839, Control_c, 0, 64, 46
1, 508855, Control_c, 0, 64, 51
1, 508870, Control_c, 0, 64, 53
1, 508885, Control_c, 0, 64, 55
1, 508900, Control_c, 0, 64, 57
1, 508914, Control_c, 0, 64, 58
1, 508929, Control_c, 0, 64, 59
1, 508944, Control_c, 0, 64, 60
1, 508959, Control_c, 0, 64, 61
1, 508974, Control_c, 0, 64, 62
1, 508988, Control_c, 0, 64, 63
1, 509018, Control_c, 0, 64, 63
1, 509033, Control_c, 0, 64, 64
1, 509048, Control_c, 0, 64, 65
1, 509063, Control_c, 0, 64, 65
1, 509077, Control_c, 0, 64, 66
1, 509107, Control_c, 0, 64, 66
1, 509122, Control_c, 0, 64, 67
1, 509144, Control_c, 0, 64, 69
1, 509158, Control_c, 0, 64, 70
1, 509173, Control_c, 0, 64, 72
1, 509188, Control_c, 0, 64, 73
1, 509203, Control_c, 0, 64, 74
1, 509218, Control_c, 0, 64, 75
1, 509233, Control_c, 0, 64, 76
1, 509248, Control_c, 0, 64, 77
1, 509251, Note_on_c, 0, 52, 36
1, 509263, Control_c, 0, 64, 78
1, 509278, Control_c, 0, 64, 80
1, 509292, Control_c, 0, 64, 81
1, 509307, Control_c, 0, 64, 82
1, 509322, Control_c, 0, 64, 83
1, 509337, Control_c, 0, 64, 84
1, 509352, Control_c, 0, 64, 86
1, 509366, Control_c, 0, 64, 87
1, 509381, Control_c, 0, 64, 89
1, 509395, Control_c, 0, 64, 89
1, 509410, Control_c, 0, 64, 90
1, 509424, Note_off_c, 0, 33, 43
1, 509424, Control_c, 0, 64, 91
1, 509439, Control_c, 0, 64, 91
1, 509454, Control_c, 0, 64, 92
1, 509483, Control_c, 0, 64, 92
1, 509498, Control_c, 0, 64, 93
1, 509513, Note_on_c, 0, 53, 39
1, 509528, Control_c, 0, 64, 93
1, 509686, Note_on_c, 0, 60, 31
1, 509688, Note_off_c, 0, 53, 50
1, 509844, Note_on_c, 0, 33, 45
1, 509865, Note_off_c, 0, 60, 40
1, 509866, Note_on_c, 0, 54, 40
1, 510071, Note_on_c, 0, 57, 51
1, 510132, Note_off_c, 0, 52, 41
1, 510160, Note_off_c, 0, 33, 41
1, 510307, Note_on_c, 0, 64, 55
1, 510347, Note_off_c, 0, 57, 60
1, 510360, Note_off_c, 0, 54, 52
1, 510700, Control_c, 0, 64, 91
1, 510715, Control_c, 0, 64, 86
1, 510729, Control_c, 0, 64, 78
1, 510743, Note_on_c, 0, 58, 44
1, 510744, Note_on_c, 0, 52, 48
1, 510744, Control_c, 0, 64, 68
1, 510745, Note_on_c, 0, 63, 48
1, 510752, Note_on_c, 0, 32, 38
1, 510759, Control_c, 0, 64, 0
1, 510849, Note_off_c, 0, 64, 54
1, 511612, Control_c, 0, 64, 14
1, 511627, Control_c, 0, 64, 53
1, 511642, Control_c, 0, 64, 58
1, 511657, Control_c, 0, 64, 60
1, 511686, Control_c, 0, 64, 61
1, 511701, Control_c, 0, 64, 63
1, 511716, Control_c, 0, 64, 66
1, 511731, Control_c, 0, 64, 67
1, 511746, Control_c, 0, 64, 68
1, 511761, Control_c, 0, 64, 69
1, 511776, Control_c, 0, 64, 70
1, 511791, Control_c, 0, 64, 71
1, 511805, Control_c, 0, 64, 75
1, 511820, Control_c, 0, 64, 78
1, 511835, Control_c, 0, 64, 80
1, 511850, Control_c, 0, 64, 82
1, 511865, Control_c, 0, 64, 82
1, 511879, Control_c, 0, 64, 83
1, 511894, Control_c, 0, 64, 84
1, 511909, Control_c, 0, 64, 85
1, 511924, Control_c, 0, 64, 87
1, 511939, Control_c, 0, 64, 88
1, 511953, Control_c, 0, 64, 88
1, 511968, Control_c, 0, 64, 89
1, 511983, Control_c, 0, 64, 89
1, 511998, Control_c, 0, 64, 90
1, 512013, Control_c, 0, 64, 91
1, 512027, Control_c, 0, 64, 92
1, 512042, Control_c, 0, 64, 92
1, 512073, Control_c, 0, 64, 93
1, 512088, Control_c, 0, 64, 93
1, 512102, Control_c, 0, 64, 94
1, 512248, Note_on_c, 0, 62, 34
1, 512263, Note_off_c, 0, 32, 40
1, 512288, Control_c, 0, 64, 95
1, 512320, Note_off_c, 0, 63, 27
1, 512377, Note_off_c, 0, 58, 56
1, 512548, Note_off_c, 0, 52, 36
1, 512576, Note_off_c, 0, 62, 39
1, 512656, Control_c, 0, 64, 94
1, 512686, Control_c, 0, 64, 94
1, 512700, Control_c, 0, 64, 93
1, 512715, Control_c, 0, 64, 92
1, 512730, Control_c, 0, 64, 90
1, 512745, Control_c, 0, 64, 88
1, 512753, Note_on_c, 0, 61, 41
1, 512760, Control_c, 0, 64, 85
1, 512774, Note_on_c, 0, 57, 30
1, 512774, Control_c, 0, 64, 83
1, 512789, Control_c, 0, 64, 80
1, 512804, Control_c, 0, 64, 78
1, 512819, Control_c, 0, 64, 75
1, 512834, Control_c, 0, 64, 72
1, 512850, Control_c, 0, 64, 69
1, 512865, Control_c, 0, 64, 68
1, 512887, Control_c, 0, 64, 67
1, 512902, Control_c, 0, 64, 66
1, 512931, Control_c, 0, 64, 66
1, 512946, Control_c, 0, 64, 65
1, 512961, Control_c, 0, 64, 64
1, 512991, Control_c, 0, 64, 64
1, 513020, Control_c, 0, 64, 63
1, 513035, Control_c, 0, 64, 62
1, 513050, Control_c, 0, 64, 62
1, 513065, Control_c, 0, 64, 61
1, 513183, Control_c, 0, 64, 62
1, 513227, Control_c, 0, 64, 62
1, 513242, Control_c, 0, 64, 63
1, 513272, Control_c, 0, 64, 63
1, 513302, Control_c, 0, 64, 64
1, 513316, Control_c, 0, 64, 64
1, 513331, Control_c, 0, 64, 65
1, 513361, Control_c, 0, 64, 65
1, 513391, Control_c, 0, 64, 66
1, 513420, Control_c, 0, 64, 66
1, 513435, Control_c, 0, 64, 67
1, 513478, Note_on_c, 0, 51, 26
1, 513479, Note_on_c, 0, 41, 28
1, 513509, Control_c, 0, 64, 67
1, 513538, Control_c, 0, 64, 68
1, 513553, Control_c, 0, 64, 70
1, 513568, Control_c, 0, 64, 73
1, 513583, Control_c, 0, 64, 78
1, 513597, Control_c, 0, 64, 81
1, 513612, Control_c, 0, 64, 84
1, 513635, Control_c, 0, 64, 85
1, 513637, Note_off_c, 0, 57, 40
1, 513651, Control_c, 0, 64, 86
1, 513665, Note_off_c, 0, 51, 41
1, 513666, Control_c, 0, 64, 87
1, 513680, Control_c, 0, 64, 88
1, 513695, Control_c, 0, 64, 89
1, 513697, Note_off_c, 0, 61, 53
1, 513704, Note_off_c, 0, 41, 47
1, 513725, Control_c, 0, 64, 89
1, 513754, Control_c, 0, 64, 90
1, 514050, Control_c, 0, 64, 89
1, 514065, Control_c, 0, 64, 88
1, 514080, Control_c, 0, 64, 85
1, 514095, Control_c, 0, 64, 81
1, 514110, Control_c, 0, 64, 75
1, 514125, Control_c, 0, 64, 70
1, 514128, Note_on_c, 0, 60, 36
1, 514139, Control_c, 0, 64, 66
1, 514150, Note_on_c, 0, 58, 28
1, 514154, Note_on_c, 0, 52, 29
1, 514154, Control_c, 0, 64, 63
1, 514169, Control_c, 0, 64, 62
1, 514184, Control_c, 0, 64, 61
1, 514199, Control_c, 0, 64, 61
1, 514214, Control_c, 0, 64, 60
1, 514229, Control_c, 0, 64, 57
1, 514244, Control_c, 0, 64, 54
1, 514259, Control_c, 0, 64, 51
1, 514273, Control_c, 0, 64, 51
1, 514333, Control_c, 0, 64, 52
1, 514347, Control_c, 0, 64, 54
1, 514362, Control_c, 0, 64, 57
1, 514384, Control_c, 0, 64, 60
1, 514399, Control_c, 0, 64, 62
1, 514414, Control_c, 0, 64, 64
1, 514429, Control_c, 0, 64, 64
1, 514444, Control_c, 0, 64, 65
1, 514459, Control_c, 0, 64, 66
1, 514474, Control_c, 0, 64, 67
1, 514489, Control_c, 0, 64, 69
1, 514503, Control_c, 0, 64, 70
1, 514518, Control_c, 0, 64, 71
1, 514533, Control_c, 0, 64, 71
1, 514548, Control_c, 0, 64, 72
1, 514563, Control_c, 0, 64, 73
1, 514578, Control_c, 0, 64, 74
1, 514593, Control_c, 0, 64, 76
1, 514607, Control_c, 0, 64, 77
1, 514622, Control_c, 0, 64, 79
1, 514638, Control_c, 0, 64, 81
1, 514652, Control_c, 0, 64, 82
1, 514667, Control_c, 0, 64, 84
1, 514682, Control_c, 0, 64, 85
1, 514697, Control_c, 0, 64, 86
1, 514712, Control_c, 0, 64, 87
1, 514727, Control_c, 0, 64, 88
1, 514742, Control_c, 0, 64, 89
1, 514751, Note_on_c, 0, 42, 34
1, 514757, Control_c, 0, 64, 89
1, 514771, Control_c, 0, 64, 90
1, 514786, Control_c, 0, 64, 90
1, 514801, Control_c, 0, 64, 91
1, 514816, Control_c, 0, 64, 91
1, 514906, Note_off_c, 0, 60, 39
1, 514962, Note_off_c, 0, 58, 34
1, 515357, Control_c, 0, 64, 91
1, 515372, Control_c, 0, 64, 90
1, 515386, Control_c, 0, 64, 88
1, 515400, Control_c, 0, 64, 86
1, 515415, Control_c, 0, 64, 82
1, 515430, Control_c, 0, 64, 78
1, 515438, Note_on_c, 0, 57, 31
1, 515438, Note_on_c, 0, 61, 39
1, 515445, Control_c, 0, 64, 73
1, 515460, Control_c, 0, 64, 69
1, 515475, Control_c, 0, 64, 66
1, 515490, Control_c, 0, 64, 64
1, 515505, Control_c, 0, 64, 63
1, 515593, Control_c, 0, 64, 64
1, 515608, Control_c, 0, 64, 64
1, 515623, Control_c, 0, 64, 65
1, 515638, Control_c, 0, 64, 66
1, 515652, Control_c, 0, 64, 68
1, 515667, Control_c, 0, 64, 70
1, 515682, Control_c, 0, 64, 73
1, 515697, Control_c, 0, 64, 76
1, 515712, Control_c, 0, 64, 78
1, 515726, Control_c, 0, 64, 80
1, 515741, Control_c, 0, 64, 81
1, 515756, Control_c, 0, 64, 83
1, 515767, Note_off_c, 0, 42, 40
1, 515771, Control_c, 0, 64, 84
1, 515786, Control_c, 0, 64, 85
1, 515800, Control_c, 0, 64, 86
1, 515806, Note_off_c, 0, 52, 37
1, 515815, Control_c, 0, 64, 86
1, 515830, Control_c, 0, 64, 87
1, 515859, Control_c, 0, 64, 87
1, 515882, Control_c, 0, 64, 88
1, 515897, Control_c, 0, 64, 88
1, 516149, Control_c, 0, 64, 87
1, 516164, Control_c, 0, 64, 85
1, 516179, Control_c, 0, 64, 81
1, 516194, Control_c, 0, 64, 75
1, 516206, Note_on_c, 0, 51, 29
1, 516209, Control_c, 0, 64, 68
1, 516219, Note_on_c, 0, 41, 22
1, 516223, Control_c, 0, 64, 63
1, 516238, Control_c, 0, 64, 57
1, 516253, Control_c, 0, 64, 57
1, 516268, Control_c, 0, 64, 57
1, 516283, Control_c, 0, 64, 57
1, 516313, Control_c, 0, 64, 57
1, 516327, Control_c, 0, 64, 59
1, 516342, Control_c, 0, 64, 61
1, 516357, Control_c, 0, 64, 64
1, 516372, Control_c, 0, 64, 67
1, 516387, Control_c, 0, 64, 71
1, 516402, Control_c, 0, 64, 76
1, 516416, Control_c, 0, 64, 79
1, 516431, Control_c, 0, 64, 82
1, 516446, Control_c, 0, 64, 84
1, 516459, Note_off_c, 0, 51, 40
1, 516461, Control_c, 0, 64, 85
1, 516472, Note_off_c, 0, 41, 48
1, 516475, Control_c, 0, 64, 86
1, 516479, Note_off_c, 0, 57, 39
1, 516490, Control_c, 0, 64, 87
1, 516505, Control_c, 0, 64, 88
1, 516535, Control_c, 0, 64, 89
1, 516542, Note_off_c, 0, 61, 14
1, 516564, Control_c, 0, 64, 89
1, 517076, Control_c, 0, 64, 88
1, 517091, Control_c, 0, 64, 87
1, 517105, Control_c, 0, 64, 84
1, 517120, Control_c, 0, 64, 81
1, 517129, Note_on_c, 0, 64, 47
1, 517135, Control_c, 0, 64, 76
1, 517150, Note_on_c, 0, 60, 38
1, 517150, Control_c, 0, 64, 71
1, 517151, Note_on_c, 0, 58, 31
1, 517156, Note_on_c, 0, 52, 28
1, 517165, Control_c, 0, 64, 66
1, 517180, Control_c, 0, 64, 63
1, 517195, Control_c, 0, 64, 62
1, 517254, Control_c, 0, 64, 61
1, 517269, Control_c, 0, 64, 60
1, 517298, Control_c, 0, 64, 60
1, 517313, Control_c, 0, 64, 61
1, 517328, Control_c, 0, 64, 61
1, 517343, Control_c, 0, 64, 62
1, 517358, Control_c, 0, 64, 63
1, 517380, Control_c, 0, 64, 64
1, 517395, Control_c, 0, 64, 65
1, 517410, Control_c, 0, 64, 66
1, 517424, Control_c, 0, 64, 68
1, 517439, Control_c, 0, 64, 70
1, 517454, Control_c, 0, 64, 71
1, 517469, Control_c, 0, 64, 72
1, 517484, Control_c, 0, 64, 74
1, 517498, Control_c, 0, 64, 75
1, 517513, Control_c, 0, 64, 77
1, 517528, Control_c, 0, 64, 78
1, 517543, Control_c, 0, 64, 80
1, 517558, Control_c, 0, 64, 81
1, 517572, Control_c, 0, 64, 82
1, 517587, Control_c, 0, 64, 82
1, 517602, Control_c, 0, 64, 83
1, 517616, Control_c, 0, 64, 83
1, 517632, Control_c, 0, 64, 84
1, 517648, Control_c, 0, 64, 85
1, 517663, Control_c, 0, 64, 85
1, 517722, Control_c, 0, 64, 86
1, 517767, Control_c, 0, 64, 86
1, 517777, Note_off_c, 0, 58, 39
1, 517826, Control_c, 0, 64, 87
1, 517863, Note_off_c, 0, 60, 49
1, 517864, Note_on_c, 0, 42, 29
1, 517963, Note_off_c, 0, 52, 56
1, 518149, Note_off_c, 0, 64, 29
1, 518441, Control_c, 0, 64, 86
1, 518456, Control_c, 0, 64, 85
1, 518471, Control_c, 0, 64, 83
1, 518486, Note_on_c, 0, 65, 45
1, 518486, Control_c, 0, 64, 80
1, 518496, Note_on_c, 0, 61, 37
1, 518497, Note_on_c, 0, 57, 35
1, 518498, Note_on_c, 0, 51, 31
1, 518501, Control_c, 0, 64, 76
1, 518515, Control_c, 0, 64, 71
1, 518530, Control_c, 0, 64, 67
1, 518535, Note_off_c, 0, 42, 37
1, 518545, Control_c, 0, 64, 64
1, 518560, Control_c, 0, 64, 63
1, 518575, Control_c, 0, 64, 62
1, 518590, Control_c, 0, 64, 62
1, 518605, Control_c, 0, 64, 60
1, 518619, Control_c, 0, 64, 58
1, 518634, Control_c, 0, 64, 53
1, 518649, Control_c, 0, 64, 48
1, 518663, Control_c, 0, 64, 46
1, 518693, Control_c, 0, 64, 46
1, 518723, Control_c, 0, 64, 45
1, 518737, Control_c, 0, 64, 46
1, 518752, Control_c, 0, 64, 47
1, 518767, Control_c, 0, 64, 48
1, 518782, Control_c, 0, 64, 50
1, 518797, Control_c, 0, 64, 53
1, 518811, Control_c, 0, 64, 58
1, 518826, Control_c, 0, 64, 62
1, 518841, Control_c, 0, 64, 65
1, 518863, Control_c, 0, 64, 67
1, 518878, Control_c, 0, 64, 69
1, 518893, Control_c, 0, 64, 71
1, 518908, Control_c, 0, 64, 73
1, 518923, Control_c, 0, 64, 75
1, 518937, Control_c, 0, 64, 77
1, 518952, Control_c, 0, 64, 79
1, 518967, Control_c, 0, 64, 80
1, 518982, Control_c, 0, 64, 82
1, 518997, Control_c, 0, 64, 83
1, 519012, Control_c, 0, 64, 84
1, 519026, Control_c, 0, 64, 84
1, 519041, Control_c, 0, 64, 85
1, 519070, Control_c, 0, 64, 85
1, 519144, Control_c, 0, 64, 86
1, 519157, Note_on_c, 0, 41, 30
1, 519174, Control_c, 0, 64, 86
1, 519192, Note_off_c, 0, 61, 58
1, 519270, Note_off_c, 0, 57, 36
1, 519323, Control_c, 0, 64, 87
1, 519401, Note_off_c, 0, 51, 50
1, 519482, Note_off_c, 0, 41, 37
1, 519805, Control_c, 0, 64, 86
1, 519819, Control_c, 0, 64, 83
1, 519834, Control_c, 0, 64, 79
1, 519839, Note_on_c, 0, 72, 52
1, 519849, Control_c, 0, 64, 72
1, 519850, Note_on_c, 0, 60, 41
1, 519856, Note_on_c, 0, 50, 35
1, 519862, Note_on_c, 0, 56, 30
1, 519864, Control_c, 0, 64, 67
1, 519878, Control_c, 0, 64, 63
1, 519893, Control_c, 0, 64, 58
1, 519908, Control_c, 0, 64, 53
1, 519909, Note_off_c, 0, 65, 65
1, 519922, Control_c, 0, 64, 49
1, 519937, Control_c, 0, 64, 42
1, 519952, Control_c, 0, 64, 34
1, 519967, Control_c, 0, 64, 20
1, 519982, Control_c, 0, 64, 0
1, 520026, Control_c, 0, 64, 22
1, 520042, Control_c, 0, 64, 48
1, 520057, Control_c, 0, 64, 61
1, 520071, Control_c, 0, 64, 66
1, 520086, Control_c, 0, 64, 70
1, 520101, Control_c, 0, 64, 74
1, 520116, Control_c, 0, 64, 78
1, 520131, Control_c, 0, 64, 81
1, 520146, Control_c, 0, 64, 83
1, 520147, Note_off_c, 0, 56, 55
1, 520161, Control_c, 0, 64, 85
1, 520176, Control_c, 0, 64, 86
1, 520190, Control_c, 0, 64, 88
1, 520205, Control_c, 0, 64, 89
1, 520220, Control_c, 0, 64, 90
1, 520249, Control_c, 0, 64, 91
1, 520264, Control_c, 0, 64, 91
1, 520279, Control_c, 0, 64, 92
1, 520294, Control_c, 0, 64, 92
1, 520353, Control_c, 0, 64, 93
1, 520387, Note_off_c, 0, 50, 37
1, 520513, Note_on_c, 0, 40, 36
1, 520729, Note_off_c, 0, 60, 49
1, 520793, Note_off_c, 0, 40, 39
1, 521154, Control_c, 0, 64, 92
1, 521168, Control_c, 0, 64, 91
1, 521183, Control_c, 0, 64, 88
1, 521198, Control_c, 0, 64, 83
1, 521203, Note_on_c, 0, 66, 53
1, 521213, Control_c, 0, 64, 78
1, 521218, Note_on_c, 0, 59, 48
1, 521219, Note_on_c, 0, 49, 35
1, 521228, Control_c, 0, 64, 71
1, 521235, Note_on_c, 0, 55, 35
1, 521243, Control_c, 0, 64, 65
1, 521258, Control_c, 0, 64, 60
1, 521272, Control_c, 0, 64, 56
1, 521287, Control_c, 0, 64, 54
1, 521302, Control_c, 0, 64, 50
1, 521317, Control_c, 0, 64, 40
1, 521332, Control_c, 0, 64, 0
1, 521401, Note_off_c, 0, 72, 32
1, 521421, Control_c, 0, 64, 37
1, 521436, Control_c, 0, 64, 54
1, 521451, Control_c, 0, 64, 63
1, 521465, Control_c, 0, 64, 68
1, 521480, Control_c, 0, 64, 71
1, 521495, Control_c, 0, 64, 75
1, 521510, Control_c, 0, 64, 77
1, 521525, Control_c, 0, 64, 79
1, 521539, Control_c, 0, 64, 81
1, 521554, Control_c, 0, 64, 83
1, 521569, Control_c, 0, 64, 85
1, 521583, Control_c, 0, 64, 87
1, 521598, Control_c, 0, 64, 88
1, 521613, Control_c, 0, 64, 89
1, 521628, Note_off_c, 0, 55, 41
1, 521629, Control_c, 0, 64, 90
1, 521644, Control_c, 0, 64, 90
1, 521659, Control_c, 0, 64, 91
1, 521674, Control_c, 0, 64, 91
1, 521703, Control_c, 0, 64, 92
1, 521733, Control_c, 0, 64, 92
1, 521842, Note_off_c, 0, 59, 57
1, 521902, Note_on_c, 0, 39, 37
1, 522083, Note_off_c, 0, 39, 49
1, 522191, Note_off_c, 0, 49, 40
1, 522275, Note_on_c, 0, 69, 50
1, 522682, Control_c, 0, 64, 91
1, 522697, Control_c, 0, 64, 87
1, 522711, Note_on_c, 0, 76, 65
1, 522711, Control_c, 0, 64, 80
1, 522722, Note_on_c, 0, 54, 38
1, 522723, Note_on_c, 0, 48, 39
1, 522724, Note_on_c, 0, 64, 40
1, 522726, Control_c, 0, 64, 72
1, 522730, Note_on_c, 0, 58, 24
1, 522741, Control_c, 0, 64, 65
1, 522756, Control_c, 0, 64, 53
1, 522766, Note_off_c, 0, 69, 59
1, 522771, Control_c, 0, 64, 23
1, 522780, Note_off_c, 0, 66, 57
1, 522785, Control_c, 0, 64, 0
1, 522889, Control_c, 0, 64, 35
1, 522904, Control_c, 0, 64, 59
1, 522918, Control_c, 0, 64, 65
1, 522933, Control_c, 0, 64, 69
1, 522948, Control_c, 0, 64, 74
1, 522963, Control_c, 0, 64, 79
1, 522978, Control_c, 0, 64, 83
1, 522993, Control_c, 0, 64, 86
1, 523008, Control_c, 0, 64, 88
1, 523023, Control_c, 0, 64, 89
1, 523037, Control_c, 0, 64, 91
1, 523046, Note_off_c, 0, 58, 56
1, 523052, Control_c, 0, 64, 92
1, 523067, Control_c, 0, 64, 93
1, 523070, Note_off_c, 0, 54, 53
1, 523081, Note_off_c, 0, 48, 52
1, 523082, Control_c, 0, 64, 94
1, 523097, Control_c, 0, 64, 94
1, 523111, Control_c, 0, 64, 95
1, 523126, Control_c, 0, 64, 95
1, 523156, Control_c, 0, 64, 96
1, 523449, Note_on_c, 0, 38, 32
1, 523623, Note_off_c, 0, 38, 39
1, 524097, Control_c, 0, 64, 94
1, 524120, Control_c, 0, 64, 91
1, 524134, Control_c, 0, 64, 85
1, 524149, Note_on_c, 0, 57, 17
1, 524149, Control_c, 0, 64, 77
1, 524151, Note_on_c, 0, 53, 35
1, 524152, Note_on_c, 0, 47, 36
1, 524164, Control_c, 0, 64, 69
1, 524179, Control_c, 0, 64, 63
1, 524194, Control_c, 0, 64, 52
1, 524209, Control_c, 0, 64, 51
1, 524224, Control_c, 0, 64, 54
1, 524238, Control_c, 0, 64, 57
1, 524253, Control_c, 0, 64, 61
1, 524268, Control_c, 0, 64, 64
1, 524282, Control_c, 0, 64, 67
1, 524297, Control_c, 0, 64, 71
1, 524312, Control_c, 0, 64, 76
1, 524327, Control_c, 0, 64, 81
1, 524342, Control_c, 0, 64, 85
1, 524356, Control_c, 0, 64, 87
1, 524372, Control_c, 0, 64, 88
1, 524374, Note_off_c, 0, 57, 53
1, 524387, Control_c, 0, 64, 90
1, 524394, Note_off_c, 0, 53, 56
1, 524398, Note_off_c, 0, 64, 64
1, 524402, Control_c, 0, 64, 91
1, 524416, Control_c, 0, 64, 92
1, 524431, Control_c, 0, 64, 93
1, 524446, Control_c, 0, 64, 94
1, 524475, Control_c, 0, 64, 94
1, 524497, Note_off_c, 0, 47, 40
1, 524535, Control_c, 0, 64, 95
1, 524894, Note_on_c, 0, 37, 36
1, 524904, Note_on_c, 0, 63, 40
1, 524911, Note_on_c, 0, 75, 48
1, 525012, Note_off_c, 0, 76, 59
1, 525219, Note_off_c, 0, 37, 48
1, 525616, Control_c, 0, 64, 94
1, 525632, Control_c, 0, 64, 93
1, 525647, Control_c, 0, 64, 91
1, 525661, Control_c, 0, 64, 88
1, 525676, Note_on_c, 0, 74, 46
1, 525676, Control_c, 0, 64, 83
1, 525688, Note_on_c, 0, 34, 41
1, 525691, Control_c, 0, 64, 78
1, 525697, Note_on_c, 0, 46, 37
1, 525706, Control_c, 0, 64, 73
1, 525721, Control_c, 0, 64, 67
1, 525735, Control_c, 0, 64, 63
1, 525750, Note_off_c, 0, 75, 55
1, 525750, Control_c, 0, 64, 61
1, 525765, Control_c, 0, 64, 60
1, 525795, Control_c, 0, 64, 58
1, 525810, Control_c, 0, 64, 56
1, 525825, Control_c, 0, 64, 54
1, 525840, Note_off_c, 0, 63, 44
1, 525854, Control_c, 0, 64, 55
1, 525868, Control_c, 0, 64, 56
1, 525883, Control_c, 0, 64, 57
1, 525898, Control_c, 0, 64, 59
1, 525913, Control_c, 0, 64, 62
1, 525927, Control_c, 0, 64, 64
1, 525942, Control_c, 0, 64, 66
1, 525957, Control_c, 0, 64, 70
1, 525972, Control_c, 0, 64, 74
1, 525987, Control_c, 0, 64, 77
1, 526001, Control_c, 0, 64, 79
1, 526016, Control_c, 0, 64, 80
1, 526031, Control_c, 0, 64, 81
1, 526046, Control_c, 0, 64, 82
1, 526060, Control_c, 0, 64, 84
1, 526075, Control_c, 0, 64, 84
1, 526090, Control_c, 0, 64, 85
1, 526105, Control_c, 0, 64, 85
1, 526209, Control_c, 0, 64, 84
1, 526224, Control_c, 0, 64, 82
1, 526239, Control_c, 0, 64, 79
1, 526253, Control_c, 0, 64, 75
1, 526268, Control_c, 0, 64, 70
1, 526283, Control_c, 0, 64, 65
1, 526284, Note_on_c, 0, 36, 40
1, 526291, Note_on_c, 0, 63, 32
1, 526298, Control_c, 0, 64, 62
1, 526313, Control_c, 0, 64, 61
1, 526328, Note_off_c, 0, 34, 51
1, 526364, Control_c, 0, 64, 61
1, 526379, Control_c, 0, 64, 60
1, 526394, Control_c, 0, 64, 61
1, 526409, Control_c, 0, 64, 61
1, 526424, Control_c, 0, 64, 62
1, 526439, Control_c, 0, 64, 63
1, 526454, Control_c, 0, 64, 64
1, 526469, Control_c, 0, 64, 66
1, 526483, Control_c, 0, 64, 68
1, 526498, Control_c, 0, 64, 70
1, 526513, Control_c, 0, 64, 72
1, 526528, Control_c, 0, 64, 75
1, 526543, Control_c, 0, 64, 78
1, 526558, Control_c, 0, 64, 79
1, 526573, Control_c, 0, 64, 80
1, 526588, Control_c, 0, 64, 81
1, 526591, Note_on_c, 0, 67, 45
1, 526603, Control_c, 0, 64, 82
1, 526618, Control_c, 0, 64, 83
1, 526632, Control_c, 0, 64, 84
1, 526647, Control_c, 0, 64, 85
1, 526662, Control_c, 0, 64, 85
1, 526701, Note_off_c, 0, 46, 41
1, 526721, Control_c, 0, 64, 86
1, 526928, Control_c, 0, 64, 85
1, 526935, Note_on_c, 0, 73, 54
1, 526943, Control_c, 0, 64, 82
1, 526952, Note_on_c, 0, 47, 45
1, 526954, Note_off_c, 0, 74, 56
1, 526958, Note_on_c, 0, 35, 47
1, 526958, Control_c, 0, 64, 78
1, 526973, Control_c, 0, 64, 72
1, 526977, Note_off_c, 0, 36, 40
1, 526988, Control_c, 0, 64, 66
1, 527002, Control_c, 0, 64, 61
1, 527017, Control_c, 0, 64, 56
1, 527032, Control_c, 0, 64, 55
1, 527047, Control_c, 0, 64, 54
1, 527062, Control_c, 0, 64, 51
1, 527077, Control_c, 0, 64, 44
1, 527092, Control_c, 0, 64, 32
1, 527094, Note_off_c, 0, 63, 43
1, 527095, Note_off_c, 0, 67, 45
1, 527114, Control_c, 0, 64, 23
1, 527129, Control_c, 0, 64, 26
1, 527144, Control_c, 0, 64, 28
1, 527173, Control_c, 0, 64, 31
1, 527188, Control_c, 0, 64, 38
1, 527202, Control_c, 0, 64, 47
1, 527217, Control_c, 0, 64, 59
1, 527233, Control_c, 0, 64, 65
1, 527248, Control_c, 0, 64, 69
1, 527263, Control_c, 0, 64, 73
1, 527278, Control_c, 0, 64, 77
1, 527293, Control_c, 0, 64, 80
1, 527307, Control_c, 0, 64, 82
1, 527322, Control_c, 0, 64, 84
1, 527337, Control_c, 0, 64, 85
1, 527352, Control_c, 0, 64, 86
1, 527368, Control_c, 0, 64, 87
1, 527382, Control_c, 0, 64, 88
1, 527397, Control_c, 0, 64, 89
1, 527412, Control_c, 0, 64, 90
1, 527426, Control_c, 0, 64, 90
1, 527441, Control_c, 0, 64, 91
1, 527471, Control_c, 0, 64, 92
1, 527479, Note_off_c, 0, 35, 40
1, 527486, Control_c, 0, 64, 92
1, 527500, Control_c, 0, 64, 93
1, 527530, Control_c, 0, 64, 93
1, 527533, Note_on_c, 0, 66, 38
1, 527541, Note_off_c, 0, 47, 44
1, 527543, Note_on_c, 0, 62, 35
1, 527560, Control_c, 0, 64, 94
1, 527619, Control_c, 0, 64, 94
1, 527782, Control_c, 0, 64, 95
1, 527923, Control_c, 0, 64, 95
1, 527982, Control_c, 0, 64, 96
1, 528028, Control_c, 0, 64, 96
1, 528063, Note_off_c, 0, 62, 37
1, 528079, Note_on_c, 0, 54, 41
1, 528084, Note_on_c, 0, 42, 47
1, 528123, Note_off_c, 0, 73, 34
1, 528205, Note_off_c, 0, 66, 41
1, 528264, Control_c, 0, 64, 97
1, 528368, Control_c, 0, 64, 97
1, 528487, Control_c, 0, 64, 98
1, 528608, Note_off_c, 0, 42, 60
1, 528620, Note_on_c, 0, 72, 47
1, 528638, Note_on_c, 0, 66, 41
1, 528643, Note_on_c, 0, 62, 40
1, 528735, Note_off_c, 0, 54, 49
1, 528746, Control_c, 0, 64, 98
1, 528791, Note_off_c, 0, 66, 54
1, 528812, Note_off_c, 0, 72, 64
1, 528837, Note_off_c, 0, 62, 57
1, 529117, Control_c, 0, 64, 98
1, 529146, Control_c, 0, 64, 96
1, 529161, Control_c, 0, 64, 92
1, 529176, Control_c, 0, 64, 87
1, 529178, Note_on_c, 0, 48, 55
1, 529180, Note_on_c, 0, 71, 47
1, 529190, Note_on_c, 0, 59, 45
1, 529191, Control_c, 0, 64, 80
1, 529199, Note_on_c, 0, 64, 41
1, 529205, Control_c, 0, 64, 73
1, 529220, Control_c, 0, 64, 65
1, 529235, Control_c, 0, 64, 57
1, 529250, Control_c, 0, 64, 52
1, 529265, Control_c, 0, 64, 52
1, 529294, Control_c, 0, 64, 50
1, 529309, Control_c, 0, 64, 43
1, 529324, Control_c, 0, 64, 40
1, 529339, Control_c, 0, 64, 42
1, 529361, Control_c, 0, 64, 49
1, 529376, Control_c, 0, 64, 58
1, 529391, Control_c, 0, 64, 64
1, 529405, Control_c, 0, 64, 68
1, 529420, Control_c, 0, 64, 74
1, 529435, Control_c, 0, 64, 79
1, 529450, Control_c, 0, 64, 83
1, 529465, Control_c, 0, 64, 86
1, 529479, Control_c, 0, 64, 88
1, 529494, Control_c, 0, 64, 89
1, 529509, Control_c, 0, 64, 90
1, 529512, Note_off_c, 0, 59, 40
1, 529524, Control_c, 0, 64, 91
1, 529539, Note_off_c, 0, 64, 59
1, 529539, Control_c, 0, 64, 92
1, 529554, Control_c, 0, 64, 92
1, 529569, Control_c, 0, 64, 93
1, 529598, Control_c, 0, 64, 93
1, 529743, Note_on_c, 0, 67, 39
1, 529757, Note_on_c, 0, 60, 40
1, 529766, Note_on_c, 0, 64, 22
1, 529796, Note_off_c, 0, 67, 0
1, 529796, Note_on_c, 0, 67, 4
1, 530025, Note_on_c, 0, 52, 54
1, 530477, Note_on_c, 0, 59, 51
1, 530627, Note_off_c, 0, 48, 55
1, 530642, Note_off_c, 0, 52, 63
1, 530665, Note_off_c, 0, 60, 28
1, 530675, Note_off_c, 0, 64, 39
1, 530691, Note_off_c, 0, 67, 39
1, 531048, Note_on_c, 0, 67, 34
1, 531075, Note_on_c, 0, 64, 23
1, 531081, Note_on_c, 0, 60, 22
1, 531173, Note_off_c, 0, 71, 52
1, 531586, Control_c, 0, 64, 92
1, 531590, Note_on_c, 0, 72, 49
1, 531608, Control_c, 0, 64, 89
1, 531622, Control_c, 0, 64, 87
1, 531624, Note_on_c, 0, 58, 43
1, 531637, Control_c, 0, 64, 84
1, 531647, Note_off_c, 0, 60, 22
1, 531652, Control_c, 0, 64, 81
1, 531667, Control_c, 0, 64, 77
1, 531682, Control_c, 0, 64, 72
1, 531692, Note_off_c, 0, 64, 39
1, 531697, Control_c, 0, 64, 68
1, 531712, Control_c, 0, 64, 65
1, 531714, Note_off_c, 0, 67, 40
1, 531723, Note_off_c, 0, 59, 54
1, 531727, Control_c, 0, 64, 64
1, 531771, Control_c, 0, 64, 63
1, 531786, Control_c, 0, 64, 63
1, 531800, Control_c, 0, 64, 62
1, 531815, Control_c, 0, 64, 62
1, 531860, Control_c, 0, 64, 61
1, 531889, Control_c, 0, 64, 62
1, 531904, Control_c, 0, 64, 63
1, 531919, Control_c, 0, 64, 63
1, 531934, Control_c, 0, 64, 64
1, 531948, Control_c, 0, 64, 65
1, 531963, Control_c, 0, 64, 67
1, 531978, Control_c, 0, 64, 68
1, 531992, Control_c, 0, 64, 70
1, 532007, Control_c, 0, 64, 71
1, 532023, Control_c, 0, 64, 72
1, 532038, Control_c, 0, 64, 73
1, 532053, Control_c, 0, 64, 74
1, 532068, Control_c, 0, 64, 76
1, 532083, Control_c, 0, 64, 78
1, 532097, Control_c, 0, 64, 80
1, 532105, Note_on_c, 0, 67, 35
1, 532112, Control_c, 0, 64, 81
1, 532121, Note_on_c, 0, 64, 28
1, 532127, Control_c, 0, 64, 82
1, 532129, Note_on_c, 0, 60, 32
1, 532142, Control_c, 0, 64, 83
1, 532157, Control_c, 0, 64, 84
1, 532171, Control_c, 0, 64, 85
1, 532186, Control_c, 0, 64, 86
1, 532201, Control_c, 0, 64, 87
1, 532216, Control_c, 0, 64, 88
1, 532231, Control_c, 0, 64, 88
1, 532246, Control_c, 0, 64, 89
1, 532260, Control_c, 0, 64, 90
1, 532275, Control_c, 0, 64, 90
1, 532290, Control_c, 0, 64, 91
1, 532293, Note_off_c, 0, 60, 39
1, 532317, Note_off_c, 0, 72, 39
1, 532320, Control_c, 0, 64, 91
1, 532357, Control_c, 0, 64, 92
1, 532386, Control_c, 0, 64, 92
1, 532445, Control_c, 0, 64, 93
1, 532550, Control_c, 0, 64, 92
1, 532564, Control_c, 0, 64, 88
1, 532575, Note_on_c, 0, 71, 55
1, 532579, Control_c, 0, 64, 83
1, 532582, Note_on_c, 0, 57, 50
1, 532585, Note_on_c, 0, 59, 45
1, 532594, Control_c, 0, 64, 76
1, 532595, Note_off_c, 0, 64, 49
1, 532603, Note_off_c, 0, 58, 51
1, 532609, Control_c, 0, 64, 69
1, 532623, Control_c, 0, 64, 64
1, 532638, Control_c, 0, 64, 57
1, 532647, Note_off_c, 0, 67, 53
1, 532653, Control_c, 0, 64, 54
1, 532697, Control_c, 0, 64, 54
1, 532712, Control_c, 0, 64, 52
1, 532727, Control_c, 0, 64, 52
1, 532741, Control_c, 0, 64, 52
1, 532756, Control_c, 0, 64, 54
1, 532771, Control_c, 0, 64, 57
1, 532786, Control_c, 0, 64, 59
1, 532801, Control_c, 0, 64, 62
1, 532817, Control_c, 0, 64, 65
1, 532832, Control_c, 0, 64, 67
1, 532846, Control_c, 0, 64, 70
1, 532861, Control_c, 0, 64, 73
1, 532876, Control_c, 0, 64, 75
1, 532891, Control_c, 0, 64, 77
1, 532906, Control_c, 0, 64, 79
1, 532920, Control_c, 0, 64, 80
1, 532935, Control_c, 0, 64, 81
1, 532950, Control_c, 0, 64, 83
1, 532965, Control_c, 0, 64, 84
1, 532980, Control_c, 0, 64, 85
1, 532994, Control_c, 0, 64, 86
1, 533009, Control_c, 0, 64, 87
1, 533024, Control_c, 0, 64, 87
1, 533038, Control_c, 0, 64, 88
1, 533053, Control_c, 0, 64, 89
1, 533064, Note_on_c, 0, 62, 52
1, 533068, Control_c, 0, 64, 90
1, 533106, Control_c, 0, 64, 91
1, 533150, Control_c, 0, 64, 91
1, 533237, Note_off_c, 0, 59, 51
1, 533289, Note_on_c, 0, 66, 59
1, 533301, Note_off_c, 0, 71, 61
1, 533550, Control_c, 0, 64, 91
1, 533561, Note_off_c, 0, 62, 36
1, 533564, Control_c, 0, 64, 90
1, 533579, Control_c, 0, 64, 90
1, 533594, Note_on_c, 0, 73, 65
1, 533594, Control_c, 0, 64, 89
1, 533610, Control_c, 0, 64, 88
1, 533625, Control_c, 0, 64, 86
1, 533629, Note_on_c, 0, 56, 44
1, 533640, Control_c, 0, 64, 85
1, 533655, Control_c, 0, 64, 84
1, 533666, Note_off_c, 0, 66, 62
1, 533669, Control_c, 0, 64, 83
1, 533684, Control_c, 0, 64, 82
1, 533699, Control_c, 0, 64, 81
1, 533714, Control_c, 0, 64, 80
1, 533729, Control_c, 0, 64, 79
1, 533743, Control_c, 0, 64, 78
1, 533758, Control_c, 0, 64, 77
1, 533773, Control_c, 0, 64, 75
1, 533787, Control_c, 0, 64, 74
1, 533802, Control_c, 0, 64, 72
1, 533811, Note_off_c, 0, 57, 39
1, 533817, Control_c, 0, 64, 70
1, 533832, Control_c, 0, 64, 69
1, 533855, Control_c, 0, 64, 68
1, 533869, Control_c, 0, 64, 68
1, 533884, Control_c, 0, 64, 67
1, 533899, Control_c, 0, 64, 66
1, 533914, Control_c, 0, 64, 65
1, 533929, Control_c, 0, 64, 64
1, 533943, Control_c, 0, 64, 64
1, 533958, Control_c, 0, 64, 63
1, 533973, Control_c, 0, 64, 62
1, 533988, Control_c, 0, 64, 62
1, 534002, Control_c, 0, 64, 61
1, 534017, Control_c, 0, 64, 60
1, 534032, Control_c, 0, 64, 61
1, 534062, Control_c, 0, 64, 61
1, 534076, Control_c, 0, 64, 62
1, 534085, Note_on_c, 0, 62, 33
1, 534086, Note_on_c, 0, 66, 37
1, 534091, Control_c, 0, 64, 62
1, 534106, Control_c, 0, 64, 64
1, 534121, Control_c, 0, 64, 65
1, 534136, Control_c, 0, 64, 67
1, 534150, Control_c, 0, 64, 70
1, 534165, Control_c, 0, 64, 73
1, 534180, Control_c, 0, 64, 76
1, 534195, Control_c, 0, 64, 79
1, 534210, Control_c, 0, 64, 80
1, 534225, Control_c, 0, 64, 82
1, 534240, Control_c, 0, 64, 83
1, 534255, Control_c, 0, 64, 84
1, 534269, Control_c, 0, 64, 85
1, 534284, Control_c, 0, 64, 86
1, 534329, Control_c, 0, 64, 87
1, 534348, Note_off_c, 0, 73, 24
1, 534537, Control_c, 0, 64, 85
1, 534545, Note_on_c, 0, 72, 50
1, 534552, Control_c, 0, 64, 83
1, 534564, Note_on_c, 0, 50, 44
1, 534566, Control_c, 0, 64, 78
1, 534588, Control_c, 0, 64, 72
1, 534603, Control_c, 0, 64, 66
1, 534615, Note_off_c, 0, 66, 51
1, 534618, Control_c, 0, 64, 62
1, 534625, Note_off_c, 0, 62, 35
1, 534633, Control_c, 0, 64, 58
1, 534648, Control_c, 0, 64, 57
1, 534663, Control_c, 0, 64, 57
1, 534678, Note_off_c, 0, 56, 48
1, 534692, Control_c, 0, 64, 56
1, 534722, Control_c, 0, 64, 57
1, 534737, Control_c, 0, 64, 59
1, 534752, Control_c, 0, 64, 61
1, 534766, Control_c, 0, 64, 64
1, 534781, Control_c, 0, 64, 67
1, 534796, Control_c, 0, 64, 69
1, 534811, Control_c, 0, 64, 72
1, 534825, Control_c, 0, 64, 74
1, 534840, Control_c, 0, 64, 77
1, 534855, Control_c, 0, 64, 78
1, 534870, Control_c, 0, 64, 80
1, 534885, Control_c, 0, 64, 81
1, 534899, Control_c, 0, 64, 82
1, 534914, Control_c, 0, 64, 83
1, 534929, Control_c, 0, 64, 84
1, 534944, Control_c, 0, 64, 85
1, 534959, Control_c, 0, 64, 85
1, 534973, Control_c, 0, 64, 86
1, 534988, Control_c, 0, 64, 86
1, 535018, Control_c, 0, 64, 87
1, 535043, Note_on_c, 0, 66, 42
1, 535048, Control_c, 0, 64, 87
1, 535052, Note_on_c, 0, 62, 36
1, 535062, Control_c, 0, 64, 88
1, 535065, Note_off_c, 0, 50, 40
1, 535114, Note_off_c, 0, 66, 0
1, 535114, Note_on_c, 0, 66, 5
1, 535122, Control_c, 0, 64, 88
1, 535167, Note_off_c, 0, 72, 59
1, 535241, Control_c, 0, 64, 89
1, 535352, Control_c, 0, 64, 89
1, 535515, Control_c, 0, 64, 88
1, 535530, Control_c, 0, 64, 85
1, 535545, Control_c, 0, 64, 80
1, 535549, Note_on_c, 0, 71, 51
1, 535558, Note_on_c, 0, 55, 46
1, 535560, Control_c, 0, 64, 74
1, 535574, Control_c, 0, 64, 68
1, 535586, Note_off_c, 0, 62, 41
1, 535589, Control_c, 0, 64, 62
1, 535598, Note_off_c, 0, 66, 59
1, 535604, Control_c, 0, 64, 52
1, 535619, Control_c, 0, 64, 45
1, 535634, Control_c, 0, 64, 36
1, 535648, Control_c, 0, 64, 23
1, 535663, Control_c, 0, 64, 0
1, 535678, Control_c, 0, 64, 16
1, 535693, Control_c, 0, 64, 39
1, 535707, Control_c, 0, 64, 59
1, 535722, Control_c, 0, 64, 67
1, 535737, Control_c, 0, 64, 72
1, 535752, Control_c, 0, 64, 77
1, 535766, Control_c, 0, 64, 81
1, 535781, Control_c, 0, 64, 84
1, 535796, Control_c, 0, 64, 86
1, 535804, Note_off_c, 0, 71, 58
1, 535811, Control_c, 0, 64, 88
1, 535826, Control_c, 0, 64, 90
1, 535840, Control_c, 0, 64, 91
1, 535855, Control_c, 0, 64, 92
1, 535870, Control_c, 0, 64, 93
1, 535880, Note_off_c, 0, 55, 64
1, 535885, Control_c, 0, 64, 93
1, 536100, Note_on_c, 0, 64, 38
1, 536109, Note_on_c, 0, 55, 38
1, 536109, Note_on_c, 0, 61, 35
1, 536249, Control_c, 0, 64, 94
1, 536383, Note_on_c, 0, 52, 40
1, 536457, Control_c, 0, 64, 94
1, 536716, Note_on_c, 0, 45, 48
1, 536800, Note_off_c, 0, 52, 35
1, 536821, Note_off_c, 0, 61, 36
1, 536824, Note_off_c, 0, 55, 35
1, 536825, Note_off_c, 0, 64, 36
1, 537263, Note_on_c, 0, 64, 32
1, 537276, Note_on_c, 0, 61, 34
1, 537286, Note_on_c, 0, 55, 31
1, 537412, Note_off_c, 0, 55, 46
1, 537413, Note_off_c, 0, 61, 45
1, 537421, Note_off_c, 0, 64, 53
1, 537760, Control_c, 0, 64, 94
1, 537790, Control_c, 0, 64, 93
1, 537805, Control_c, 0, 64, 92
1, 537820, Control_c, 0, 64, 89
1, 537832, Note_on_c, 0, 46, 48
1, 537834, Note_on_c, 0, 72, 49
1, 537834, Control_c, 0, 64, 86
1, 537850, Control_c, 0, 64, 82
1, 537865, Control_c, 0, 64, 77
1, 537879, Control_c, 0, 64, 73
1, 537891, Note_off_c, 0, 72, 0
1, 537891, Note_on_c, 0, 72, 12
1, 537894, Control_c, 0, 64, 68
1, 537909, Control_c, 0, 64, 65
1, 537909, Note_off_c, 0, 45, 42
1, 537924, Control_c, 0, 64, 62
1, 537939, Control_c, 0, 64, 61
1, 537954, Control_c, 0, 64, 58
1, 537968, Control_c, 0, 64, 53
1, 537983, Control_c, 0, 64, 38
1, 537998, Control_c, 0, 64, 0
1, 538160, Control_c, 0, 64, 53
1, 538175, Control_c, 0, 64, 63
1, 538190, Control_c, 0, 64, 65
1, 538205, Control_c, 0, 64, 65
1, 538220, Control_c, 0, 64, 66
1, 538234, Control_c, 0, 64, 68
1, 538249, Control_c, 0, 64, 69
1, 538264, Control_c, 0, 64, 71
1, 538279, Control_c, 0, 64, 72
1, 538294, Control_c, 0, 64, 73
1, 538309, Control_c, 0, 64, 74
1, 538324, Control_c, 0, 64, 76
1, 538346, Control_c, 0, 64, 78
1, 538360, Control_c, 0, 64, 80
1, 538375, Control_c, 0, 64, 82
1, 538377, Note_on_c, 0, 67, 32
1, 538390, Control_c, 0, 64, 83
1, 538391, Note_on_c, 0, 60, 27
1, 538402, Note_on_c, 0, 64, 26
1, 538405, Control_c, 0, 64, 84
1, 538421, Control_c, 0, 64, 85
1, 538436, Control_c, 0, 64, 86
1, 538451, Control_c, 0, 64, 87
1, 538465, Control_c, 0, 64, 88
1, 538510, Control_c, 0, 64, 89
1, 538531, Note_off_c, 0, 72, 40
1, 538539, Control_c, 0, 64, 89
1, 538557, Note_off_c, 0, 60, 37
1, 538582, Note_off_c, 0, 64, 40
1, 538619, Note_off_c, 0, 67, 38
1, 538702, Note_on_c, 0, 47, 44
1, 538815, Note_off_c, 0, 46, 37
1, 539057, Control_c, 0, 64, 89
1, 539072, Control_c, 0, 64, 88
1, 539095, Control_c, 0, 64, 86
1, 539109, Control_c, 0, 64, 83
1, 539124, Control_c, 0, 64, 79
1, 539139, Control_c, 0, 64, 74
1, 539149, Note_on_c, 0, 71, 40
1, 539154, Note_on_c, 0, 67, 37
1, 539154, Control_c, 0, 64, 69
1, 539155, Note_on_c, 0, 59, 40
1, 539156, Note_on_c, 0, 48, 43
1, 539163, Note_on_c, 0, 63, 37
1, 539169, Control_c, 0, 64, 64
1, 539183, Control_c, 0, 64, 62
1, 539196, Note_off_c, 0, 47, 52
1, 539198, Control_c, 0, 64, 61
1, 539214, Control_c, 0, 64, 59
1, 539229, Control_c, 0, 64, 55
1, 539244, Control_c, 0, 64, 47
1, 539259, Control_c, 0, 64, 34
1, 539274, Control_c, 0, 64, 25
1, 539288, Control_c, 0, 64, 28
1, 539303, Control_c, 0, 64, 30
1, 539318, Control_c, 0, 64, 32
1, 539333, Control_c, 0, 64, 36
1, 539348, Control_c, 0, 64, 44
1, 539362, Control_c, 0, 64, 57
1, 539377, Control_c, 0, 64, 64
1, 539392, Control_c, 0, 64, 68
1, 539406, Control_c, 0, 64, 72
1, 539421, Control_c, 0, 64, 75
1, 539436, Control_c, 0, 64, 78
1, 539451, Control_c, 0, 64, 81
1, 539466, Control_c, 0, 64, 83
1, 539480, Control_c, 0, 64, 85
1, 539495, Control_c, 0, 64, 87
1, 539501, Note_off_c, 0, 67, 52
1, 539510, Control_c, 0, 64, 88
1, 539520, Note_off_c, 0, 63, 42
1, 539525, Control_c, 0, 64, 88
1, 539540, Control_c, 0, 64, 89
1, 539555, Control_c, 0, 64, 90
1, 539570, Control_c, 0, 64, 90
1, 539599, Control_c, 0, 64, 91
1, 539729, Note_on_c, 0, 63, 37
1, 539731, Note_on_c, 0, 67, 39
1, 539954, Note_on_c, 0, 45, 51
1, 540299, Note_on_c, 0, 38, 59
1, 540353, Note_off_c, 0, 48, 43
1, 540368, Note_off_c, 0, 63, 21
1, 540408, Note_off_c, 0, 67, 21
1, 540698, Note_off_c, 0, 45, 51
1, 540839, Note_on_c, 0, 67, 41
1, 540854, Note_on_c, 0, 63, 44
1, 540928, Note_off_c, 0, 71, 56
1, 540989, Note_off_c, 0, 59, 41
1, 541005, Note_off_c, 0, 67, 50
1, 541018, Note_off_c, 0, 63, 38
1, 541245, Control_c, 0, 64, 90
1, 541260, Control_c, 0, 64, 88
1, 541275, Control_c, 0, 64, 84
1, 541290, Control_c, 0, 64, 79
1, 541304, Control_c, 0, 64, 73
1, 541319, Control_c, 0, 64, 67
1, 541320, Note_on_c, 0, 69, 47
1, 541331, Note_on_c, 0, 39, 51
1, 541331, Note_on_c, 0, 67, 41
1, 541332, Note_on_c, 0, 72, 50
1, 541341, Control_c, 0, 64, 62
1, 541342, Note_on_c, 0, 60, 41
1, 541356, Control_c, 0, 64, 58
1, 541371, Control_c, 0, 64, 57
1, 541385, Control_c, 0, 64, 56
1, 541400, Control_c, 0, 64, 53
1, 541415, Control_c, 0, 64, 48
1, 541424, Note_off_c, 0, 38, 58
1, 541430, Control_c, 0, 64, 42
1, 541445, Control_c, 0, 64, 41
1, 541459, Control_c, 0, 64, 43
1, 541474, Control_c, 0, 64, 45
1, 541489, Control_c, 0, 64, 47
1, 541504, Control_c, 0, 64, 50
1, 541519, Control_c, 0, 64, 55
1, 541534, Control_c, 0, 64, 61
1, 541549, Control_c, 0, 64, 64
1, 541564, Control_c, 0, 64, 66
1, 541578, Control_c, 0, 64, 66
1, 541593, Control_c, 0, 64, 67
1, 541609, Control_c, 0, 64, 68
1, 541623, Control_c, 0, 64, 71
1, 541626, Note_off_c, 0, 67, 53
1, 541638, Control_c, 0, 64, 74
1, 541649, Note_off_c, 0, 69, 55
1, 541653, Control_c, 0, 64, 77
1, 541659, Note_off_c, 0, 60, 48
1, 541668, Control_c, 0, 64, 78
1, 541683, Control_c, 0, 64, 79
1, 541698, Control_c, 0, 64, 80
1, 541713, Control_c, 0, 64, 82
1, 541728, Control_c, 0, 64, 83
1, 541743, Control_c, 0, 64, 84
1, 541757, Control_c, 0, 64, 85
1, 541772, Control_c, 0, 64, 85
1, 541787, Control_c, 0, 64, 86
1, 541801, Control_c, 0, 64, 86
1, 541816, Control_c, 0, 64, 87
1, 541823, Note_on_c, 0, 60, 44
1, 541825, Note_on_c, 0, 69, 43
1, 541831, Control_c, 0, 64, 88
1, 541841, Note_on_c, 0, 67, 37
1, 541846, Control_c, 0, 64, 88
1, 541875, Control_c, 0, 64, 89
1, 541890, Control_c, 0, 64, 89
1, 541905, Control_c, 0, 64, 90
1, 541942, Note_off_c, 0, 39, 62
1, 541944, Note_off_c, 0, 69, 65
1, 541947, Note_off_c, 0, 72, 57
1, 541948, Note_off_c, 0, 67, 53
1, 541964, Control_c, 0, 64, 90
1, 541987, Note_off_c, 0, 60, 60
1, 542282, Control_c, 0, 64, 90
1, 542297, Control_c, 0, 64, 88
1, 542312, Note_on_c, 0, 71, 50
1, 542312, Control_c, 0, 64, 83
1, 542317, Note_on_c, 0, 67, 47
1, 542327, Control_c, 0, 64, 76
1, 542328, Note_on_c, 0, 59, 44
1, 542333, Note_on_c, 0, 40, 57
1, 542335, Note_on_c, 0, 61, 45
1, 542342, Control_c, 0, 64, 69
1, 542357, Control_c, 0, 64, 63
1, 542372, Control_c, 0, 64, 54
1, 542387, Control_c, 0, 64, 47
1, 542402, Control_c, 0, 64, 42
1, 542417, Control_c, 0, 64, 33
1, 542431, Control_c, 0, 64, 0
1, 542491, Control_c, 0, 64, 20
1, 542506, Control_c, 0, 64, 51
1, 542521, Control_c, 0, 64, 64
1, 542536, Control_c, 0, 64, 68
1, 542550, Control_c, 0, 64, 72
1, 542565, Control_c, 0, 64, 75
1, 542580, Control_c, 0, 64, 78
1, 542595, Control_c, 0, 64, 81
1, 542610, Control_c, 0, 64, 83
1, 542624, Control_c, 0, 64, 84
1, 542639, Control_c, 0, 64, 86
1, 542654, Control_c, 0, 64, 86
1, 542669, Control_c, 0, 64, 87
1, 542670, Note_off_c, 0, 59, 47
1, 542672, Note_off_c, 0, 61, 37
1, 542684, Control_c, 0, 64, 88
1, 542688, Note_off_c, 0, 67, 37
1, 542698, Control_c, 0, 64, 88
1, 542713, Control_c, 0, 64, 89
1, 542869, Note_on_c, 0, 67, 41
1, 542875, Note_on_c, 0, 59, 44
1, 542881, Note_on_c, 0, 61, 45
1, 543153, Note_on_c, 0, 37, 57
1, 543447, Control_c, 0, 64, 88
1, 543507, Control_c, 0, 64, 88
1, 543536, Control_c, 0, 64, 87
1, 543542, Note_on_c, 0, 29, 63
1, 543551, Control_c, 0, 64, 87
1, 543566, Control_c, 0, 64, 86
1, 543588, Control_c, 0, 64, 86
1, 543603, Control_c, 0, 64, 85
1, 543618, Control_c, 0, 64, 84
1, 543633, Control_c, 0, 64, 83
1, 543647, Control_c, 0, 64, 83
1, 543662, Control_c, 0, 64, 82
1, 543677, Control_c, 0, 64, 82
1, 543692, Control_c, 0, 64, 81
1, 543707, Control_c, 0, 64, 81
1, 543722, Control_c, 0, 64, 80
1, 543736, Control_c, 0, 64, 79
1, 543751, Control_c, 0, 64, 79
1, 543757, Note_off_c, 0, 37, 53
1, 543766, Control_c, 0, 64, 78
1, 543780, Control_c, 0, 64, 77
1, 543795, Control_c, 0, 64, 76
1, 543810, Control_c, 0, 64, 74
1, 543825, Control_c, 0, 64, 73
1, 543840, Note_off_c, 0, 61, 28
1, 543841, Control_c, 0, 64, 72
1, 543855, Control_c, 0, 64, 70
1, 543870, Control_c, 0, 64, 69
1, 543882, Note_off_c, 0, 59, 29
1, 543885, Control_c, 0, 64, 68
1, 543894, Note_off_c, 0, 67, 31
1, 543899, Control_c, 0, 64, 67
1, 543901, Note_off_c, 0, 40, 60
1, 543914, Control_c, 0, 64, 66
1, 543944, Control_c, 0, 64, 66
1, 543959, Control_c, 0, 64, 65
1, 543973, Control_c, 0, 64, 65
1, 543988, Control_c, 0, 64, 64
1, 544004, Control_c, 0, 64, 64
1, 544019, Control_c, 0, 64, 63
1, 544034, Control_c, 0, 64, 63
1, 544064, Control_c, 0, 64, 62
1, 544078, Control_c, 0, 64, 61
1, 544093, Control_c, 0, 64, 61
1, 544241, Control_c, 0, 64, 61
1, 544256, Control_c, 0, 64, 62
1, 544285, Control_c, 0, 64, 62
1, 544289, Note_on_c, 0, 67, 36
1, 544296, Note_on_c, 0, 59, 24
1, 544300, Control_c, 0, 64, 63
1, 544303, Note_on_c, 0, 61, 31
1, 544315, Control_c, 0, 64, 63
1, 544337, Control_c, 0, 64, 64
1, 544352, Control_c, 0, 64, 65
1, 544367, Control_c, 0, 64, 67
1, 544382, Control_c, 0, 64, 69
1, 544397, Control_c, 0, 64, 72
1, 544411, Control_c, 0, 64, 75
1, 544426, Control_c, 0, 64, 77
1, 544441, Control_c, 0, 64, 79
1, 544456, Control_c, 0, 64, 80
1, 544471, Control_c, 0, 64, 82
1, 544483, Note_off_c, 0, 67, 57
1, 544485, Control_c, 0, 64, 84
1, 544488, Note_off_c, 0, 61, 53
1, 544500, Control_c, 0, 64, 85
1, 544506, Note_off_c, 0, 59, 41
1, 544515, Control_c, 0, 64, 86
1, 544530, Control_c, 0, 64, 87
1, 544536, Note_off_c, 0, 71, 54
1, 544560, Control_c, 0, 64, 87
1, 544575, Control_c, 0, 64, 88
1, 544589, Control_c, 0, 64, 88
1, 544603, Control_c, 0, 64, 89
1, 544660, Note_off_c, 0, 29, 39
1, 544677, Control_c, 0, 64, 89
1, 544871, Control_c, 0, 64, 88
1, 544886, Control_c, 0, 64, 86
1, 544900, Control_c, 0, 64, 82
1, 544915, Control_c, 0, 64, 75
1, 544918, Note_on_c, 0, 72, 56
1, 544919, Note_on_c, 0, 30, 42
1, 544930, Control_c, 0, 64, 69
1, 544932, Note_on_c, 0, 67, 45
1, 544940, Note_on_c, 0, 64, 42
1, 544941, Note_on_c, 0, 58, 28
1, 544944, Control_c, 0, 64, 63
1, 544959, Control_c, 0, 64, 55
1, 544974, Control_c, 0, 64, 52
1, 544989, Control_c, 0, 64, 50
1, 545004, Control_c, 0, 64, 48
1, 545019, Control_c, 0, 64, 43
1, 545034, Control_c, 0, 64, 34
1, 545048, Control_c, 0, 64, 27
1, 545063, Control_c, 0, 64, 30
1, 545086, Control_c, 0, 64, 40
1, 545100, Control_c, 0, 64, 53
1, 545115, Control_c, 0, 64, 61
1, 545130, Control_c, 0, 64, 64
1, 545145, Control_c, 0, 64, 68
1, 545159, Control_c, 0, 64, 71
1, 545174, Control_c, 0, 64, 74
1, 545189, Control_c, 0, 64, 78
1, 545204, Control_c, 0, 64, 81
1, 545219, Control_c, 0, 64, 82
1, 545233, Control_c, 0, 64, 84
1, 545248, Control_c, 0, 64, 84
1, 545263, Control_c, 0, 64, 86
1, 545278, Control_c, 0, 64, 86
1, 545280, Note_off_c, 0, 64, 38
1, 545288, Note_off_c, 0, 67, 34
1, 545293, Note_off_c, 0, 58, 42
1, 545293, Control_c, 0, 64, 87
1, 545308, Control_c, 0, 64, 88
1, 545323, Control_c, 0, 64, 88
1, 545338, Control_c, 0, 64, 89
1, 545382, Control_c, 0, 64, 89
1, 545568, Note_on_c, 0, 67, 36
1, 545574, Note_on_c, 0, 64, 37
1, 545578, Note_on_c, 0, 58, 36
1, 545692, Note_off_c, 0, 30, 27
1, 545711, Note_off_c, 0, 72, 50
1, 545835, Control_c, 0, 64, 90
1, 545836, Note_off_c, 0, 58, 42
1, 546249, Control_c, 0, 64, 89
1, 546264, Control_c, 0, 64, 87
1, 546279, Control_c, 0, 64, 85
1, 546292, Note_on_c, 0, 71, 40
1, 546293, Control_c, 0, 64, 81
1, 546301, Note_on_c, 0, 59, 33
1, 546308, Control_c, 0, 64, 76
1, 546309, Note_on_c, 0, 35, 35
1, 546323, Control_c, 0, 64, 72
1, 546338, Control_c, 0, 64, 68
1, 546353, Control_c, 0, 64, 65
1, 546367, Control_c, 0, 64, 64
1, 546382, Control_c, 0, 64, 64
1, 546458, Control_c, 0, 64, 64
1, 546472, Control_c, 0, 64, 65
1, 546487, Control_c, 0, 64, 65
1, 546502, Control_c, 0, 64, 66
1, 546512, Note_off_c, 0, 64, 57
1, 546517, Control_c, 0, 64, 67
1, 546532, Control_c, 0, 64, 70
1, 546540, Note_off_c, 0, 67, 50
1, 546546, Control_c, 0, 64, 73
1, 546561, Control_c, 0, 64, 76
1, 546584, Control_c, 0, 64, 79
1, 546598, Control_c, 0, 64, 80
1, 546613, Control_c, 0, 64, 81
1, 546628, Control_c, 0, 64, 82
1, 546643, Control_c, 0, 64, 83
1, 546658, Control_c, 0, 64, 84
1, 546672, Control_c, 0, 64, 84
1, 546968, Control_c, 0, 64, 84
1, 546983, Control_c, 0, 64, 83
1, 546998, Control_c, 0, 64, 82
1, 547013, Control_c, 0, 64, 81
1, 547028, Control_c, 0, 64, 79
1, 547043, Control_c, 0, 64, 76
1, 547058, Control_c, 0, 64, 74
1, 547059, Note_on_c, 0, 66, 35
1, 547066, Note_on_c, 0, 62, 35
1, 547072, Control_c, 0, 64, 71
1, 547087, Control_c, 0, 64, 68
1, 547102, Control_c, 0, 64, 66
1, 547116, Control_c, 0, 64, 64
1, 547146, Control_c, 0, 64, 64
1, 547176, Control_c, 0, 64, 63
1, 547207, Control_c, 0, 64, 63
1, 547221, Control_c, 0, 64, 63
1, 547266, Control_c, 0, 64, 64
1, 547295, Control_c, 0, 64, 64
1, 547310, Control_c, 0, 64, 65
1, 547332, Control_c, 0, 64, 65
1, 547347, Control_c, 0, 64, 66
1, 547377, Control_c, 0, 64, 66
1, 547391, Control_c, 0, 64, 67
1, 547406, Control_c, 0, 64, 68
1, 547421, Control_c, 0, 64, 70
1, 547436, Control_c, 0, 64, 71
1, 547451, Control_c, 0, 64, 72
1, 547466, Control_c, 0, 64, 72
1, 547481, Control_c, 0, 64, 73
1, 547495, Control_c, 0, 64, 75
1, 547510, Control_c, 0, 64, 77
1, 547525, Control_c, 0, 64, 78
1, 547540, Control_c, 0, 64, 80
1, 547554, Control_c, 0, 64, 80
1, 547556, Note_off_c, 0, 71, 50
1, 547569, Control_c, 0, 64, 81
1, 547585, Control_c, 0, 64, 82
1, 547598, Note_off_c, 0, 59, 41
1, 547600, Control_c, 0, 64, 83
1, 547615, Control_c, 0, 64, 84
1, 547629, Control_c, 0, 64, 85
1, 547644, Control_c, 0, 64, 85
1, 547659, Control_c, 0, 64, 86
1, 547684, Note_off_c, 0, 66, 46
1, 547689, Control_c, 0, 64, 86
1, 547696, Note_off_c, 0, 62, 40
1, 547703, Control_c, 0, 64, 87
1, 547718, Control_c, 0, 64, 87
1, 547733, Control_c, 0, 64, 88
1, 547747, Control_c, 0, 64, 88
1, 547792, Control_c, 0, 64, 89
1, 547836, Control_c, 0, 64, 89
1, 547925, Control_c, 0, 64, 90
1, 548354, Note_on_c, 0, 54, 31
1, 548357, Note_on_c, 0, 50, 36
1, 548408, Note_off_c, 0, 35, 34
1, 548615, Note_off_c, 0, 50, 41
1, 548661, Note_off_c, 0, 54, 48
1, 548890, Control_c, 0, 64, 89
1, 548905, Control_c, 0, 64, 89
1, 548920, Control_c, 0, 64, 87
1, 548935, Control_c, 0, 64, 85
1, 548948, Note_on_c, 0, 52, 44
1, 548948, Note_on_c, 0, 55, 45
1, 548949, Control_c, 0, 64, 81
1, 548952, Note_on_c, 0, 30, 38
1, 548964, Control_c, 0, 64, 77
1, 548971, Note_on_c, 0, 42, 34
1, 548979, Control_c, 0, 64, 74
1, 548993, Control_c, 0, 64, 70
1, 549008, Control_c, 0, 64, 66
1, 549023, Control_c, 0, 64, 64
1, 549038, Control_c, 0, 64, 63
1, 549053, Control_c, 0, 64, 63
1, 549067, Control_c, 0, 64, 62
1, 549082, Control_c, 0, 64, 61
1, 549097, Control_c, 0, 64, 59
1, 549111, Control_c, 0, 64, 59
1, 549126, Control_c, 0, 64, 59
1, 549141, Control_c, 0, 64, 60
1, 549156, Control_c, 0, 64, 61
1, 549171, Control_c, 0, 64, 62
1, 549186, Control_c, 0, 64, 64
1, 549200, Control_c, 0, 64, 66
1, 549215, Control_c, 0, 64, 70
1, 549230, Control_c, 0, 64, 74
1, 549245, Control_c, 0, 64, 77
1, 549260, Control_c, 0, 64, 80
1, 549274, Control_c, 0, 64, 82
1, 549289, Control_c, 0, 64, 83
1, 549304, Control_c, 0, 64, 84
1, 549318, Control_c, 0, 64, 85
1, 549333, Control_c, 0, 64, 86
1, 549348, Control_c, 0, 64, 87
1, 549358, Note_off_c, 0, 30, 53
1, 549363, Control_c, 0, 64, 88
1, 549378, Control_c, 0, 64, 88
1, 549422, Control_c, 0, 64, 89
1, 549513, Note_off_c, 0, 42, 41
1, 549514, Note_on_c, 0, 60, 45
1, 549993, Control_c, 0, 64, 87
1, 550008, Control_c, 0, 64, 85
1, 550022, Control_c, 0, 64, 81
1, 550037, Control_c, 0, 64, 76
1, 550043, Note_on_c, 0, 59, 46
1, 550047, Note_on_c, 0, 47, 38
1, 550051, Note_off_c, 0, 60, 52
1, 550052, Control_c, 0, 64, 70
1, 550064, Note_on_c, 0, 35, 22
1, 550066, Control_c, 0, 64, 63
1, 550081, Control_c, 0, 64, 56
1, 550096, Control_c, 0, 64, 53
1, 550111, Control_c, 0, 64, 53
1, 550140, Control_c, 0, 64, 52
1, 550155, Control_c, 0, 64, 52
1, 550170, Control_c, 0, 64, 52
1, 550185, Control_c, 0, 64, 56
1, 550200, Control_c, 0, 64, 61
1, 550214, Control_c, 0, 64, 66
1, 550229, Control_c, 0, 64, 70
1, 550244, Control_c, 0, 64, 73
1, 550259, Control_c, 0, 64, 77
1, 550274, Control_c, 0, 64, 79
1, 550289, Control_c, 0, 64, 80
1, 550304, Control_c, 0, 64, 81
1, 550304, Note_off_c, 0, 52, 53
1, 550309, Note_off_c, 0, 55, 66
1, 550326, Control_c, 0, 64, 82
1, 550340, Control_c, 0, 64, 83
1, 550355, Control_c, 0, 64, 83
1, 550370, Control_c, 0, 64, 84
1, 550385, Control_c, 0, 64, 85
1, 550416, Control_c, 0, 64, 85
1, 550460, Control_c, 0, 64, 86
1, 550653, Control_c, 0, 64, 85
1, 550668, Control_c, 0, 64, 84
1, 550683, Control_c, 0, 64, 82
1, 550698, Control_c, 0, 64, 79
1, 550708, Note_on_c, 0, 54, 36
1, 550712, Control_c, 0, 64, 76
1, 550723, Note_on_c, 0, 50, 33
1, 550727, Control_c, 0, 64, 72
1, 550742, Control_c, 0, 64, 67
1, 550757, Control_c, 0, 64, 64
1, 550772, Control_c, 0, 64, 63
1, 550802, Control_c, 0, 64, 63
1, 550817, Control_c, 0, 64, 62
1, 550831, Control_c, 0, 64, 61
1, 550846, Control_c, 0, 64, 59
1, 550920, Control_c, 0, 64, 60
1, 550935, Control_c, 0, 64, 61
1, 550950, Control_c, 0, 64, 62
1, 550964, Control_c, 0, 64, 63
1, 550979, Control_c, 0, 64, 64
1, 550994, Control_c, 0, 64, 65
1, 551009, Control_c, 0, 64, 66
1, 551024, Control_c, 0, 64, 68
1, 551038, Control_c, 0, 64, 70
1, 551053, Control_c, 0, 64, 72
1, 551076, Control_c, 0, 64, 74
1, 551090, Control_c, 0, 64, 75
1, 551105, Control_c, 0, 64, 77
1, 551120, Control_c, 0, 64, 78
1, 551135, Control_c, 0, 64, 81
1, 551150, Control_c, 0, 64, 83
1, 551164, Control_c, 0, 64, 84
1, 551179, Control_c, 0, 64, 85
1, 551195, Control_c, 0, 64, 86
1, 551210, Control_c, 0, 64, 87
1, 551225, Control_c, 0, 64, 88
1, 551240, Control_c, 0, 64, 88
1, 551246, Note_off_c, 0, 50, 40
1, 551255, Control_c, 0, 64, 89
1, 551269, Control_c, 0, 64, 89
1, 551313, Control_c, 0, 64, 90
1, 551349, Note_off_c, 0, 54, 40
1, 551846, Note_off_c, 0, 35, 41
1, 551869, Note_off_c, 0, 47, 44
1, 551895, Note_on_c, 0, 54, 36
1, 551906, Note_on_c, 0, 50, 30
1, 552140, Note_off_c, 0, 50, 41
1, 552210, Note_off_c, 0, 54, 39
1, 552477, Control_c, 0, 64, 88
1, 552491, Control_c, 0, 64, 85
1, 552504, Note_on_c, 0, 52, 44
1, 552506, Control_c, 0, 64, 80
1, 552513, Note_on_c, 0, 55, 42
1, 552515, Note_on_c, 0, 54, 35
1, 552519, Note_on_c, 0, 42, 38
1, 552521, Control_c, 0, 64, 74
1, 552535, Control_c, 0, 64, 68
1, 552550, Control_c, 0, 64, 62
1, 552566, Note_off_c, 0, 54, 0
1, 552566, Note_on_c, 0, 54, 12
1, 552572, Control_c, 0, 64, 57
1, 552587, Control_c, 0, 64, 52
1, 552588, Note_off_c, 0, 59, 63
1, 552602, Control_c, 0, 64, 46
1, 552617, Control_c, 0, 64, 35
1, 552632, Control_c, 0, 64, 0
1, 552780, Control_c, 0, 64, 38
1, 552796, Control_c, 0, 64, 57
1, 552811, Control_c, 0, 64, 62
1, 552826, Control_c, 0, 64, 65
1, 552840, Control_c, 0, 64, 67
1, 552855, Control_c, 0, 64, 71
1, 552870, Control_c, 0, 64, 74
1, 552885, Control_c, 0, 64, 76
1, 552900, Control_c, 0, 64, 79
1, 552914, Control_c, 0, 64, 81
1, 552929, Control_c, 0, 64, 83
1, 552944, Control_c, 0, 64, 85
1, 552958, Control_c, 0, 64, 87
1, 552973, Control_c, 0, 64, 88
1, 552987, Note_off_c, 0, 42, 63
1, 552988, Control_c, 0, 64, 89
1, 553003, Control_c, 0, 64, 90
1, 553018, Control_c, 0, 64, 91
1, 553032, Control_c, 0, 64, 92
1, 553047, Control_c, 0, 64, 93
1, 553052, Note_off_c, 0, 54, 52
1, 553077, Control_c, 0, 64, 93
1, 553106, Control_c, 0, 64, 94
1, 553121, Control_c, 0, 64, 94
1, 553151, Control_c, 0, 64, 95
1, 553165, Control_c, 0, 64, 95
1, 553199, Note_on_c, 0, 60, 42
1, 553210, Control_c, 0, 64, 96
1, 553225, Control_c, 0, 64, 96
1, 553226, Note_off_c, 0, 52, 59
1, 553364, Note_off_c, 0, 55, 55
1, 553365, Control_c, 0, 64, 97
1, 553737, Note_on_c, 0, 66, 48
1, 553747, Note_on_c, 0, 67, 49
1, 553893, Note_off_c, 0, 60, 31
1, 553903, Note_off_c, 0, 66, 55
1, 554004, Control_c, 0, 64, 97
1, 554019, Control_c, 0, 64, 98
1, 554034, Control_c, 0, 64, 98
1, 554049, Control_c, 0, 64, 99
1, 554071, Control_c, 0, 64, 99
1, 554086, Control_c, 0, 64, 100
1, 554101, Control_c, 0, 64, 100
1, 554115, Control_c, 0, 64, 101
1, 554130, Control_c, 0, 64, 102
1, 554145, Control_c, 0, 64, 103
1, 554160, Control_c, 0, 64, 103
1, 554175, Control_c, 0, 64, 104
1, 554189, Control_c, 0, 64, 105
1, 554204, Control_c, 0, 64, 105
1, 554219, Control_c, 0, 64, 106
1, 554234, Control_c, 0, 64, 107
1, 554249, Control_c, 0, 64, 107
1, 554263, Control_c, 0, 64, 108
1, 554278, Control_c, 0, 64, 109
1, 554293, Control_c, 0, 64, 109
1, 554307, Control_c, 0, 64, 110
1, 554322, Control_c, 0, 64, 111
1, 554337, Control_c, 0, 64, 112
1, 554352, Control_c, 0, 64, 112
1, 554367, Control_c, 0, 64, 113
1, 554383, Control_c, 0, 64, 113
1, 554398, Control_c, 0, 64, 114
1, 554412, Control_c, 0, 64, 115
1, 554427, Control_c, 0, 64, 116
1, 554442, Control_c, 0, 64, 117
1, 554457, Control_c, 0, 64, 117
1, 554472, Control_c, 0, 64, 118
1, 554486, Control_c, 0, 64, 119
1, 554501, Control_c, 0, 64, 120
1, 554516, Control_c, 0, 64, 121
1, 554531, Control_c, 0, 64, 122
1, 554546, Control_c, 0, 64, 123
1, 554561, Control_c, 0, 64, 124
1, 554575, Control_c, 0, 64, 125
1, 554590, Control_c, 0, 64, 126
1, 554605, Control_c, 0, 64, 127
1, 554620, Control_c, 0, 64, 127
1, 554700, Note_on_c, 0, 72, 44
1, 555062, Note_on_c, 0, 78, 50
1, 555063, Note_on_c, 0, 79, 51
1, 555224, Note_off_c, 0, 78, 53
1, 555314, Note_off_c, 0, 72, 59
1, 555315, Note_off_c, 0, 67, 57
1, 556295, Note_on_c, 0, 84, 45
1, 556672, Control_c, 0, 64, 120
1, 556678, Note_on_c, 0, 90, 55
1, 556681, Note_on_c, 0, 61, 32
1, 556686, Note_on_c, 0, 67, 43
1, 556687, Control_c, 0, 64, 109
1, 556688, Note_on_c, 0, 71, 35
1, 556701, Control_c, 0, 64, 99
1, 556716, Control_c, 0, 64, 88
1, 556731, Control_c, 0, 64, 76
1, 556733, Note_off_c, 0, 79, 61
1, 556746, Control_c, 0, 64, 57
1, 556753, Note_off_c, 0, 84, 65
1, 556761, Control_c, 0, 64, 0
1, 556785, Note_off_c, 0, 90, 64
1, 557231, Note_on_c, 0, 91, 58
1, 557496, Control_c, 0, 64, 29
1, 557511, Control_c, 0, 64, 47
1, 557525, Control_c, 0, 64, 55
1, 557540, Control_c, 0, 64, 60
1, 557555, Control_c, 0, 64, 63
1, 557570, Control_c, 0, 64, 64
1, 557586, Control_c, 0, 64, 66
1, 557601, Control_c, 0, 64, 67
1, 557616, Control_c, 0, 64, 68
1, 557630, Control_c, 0, 64, 68
1, 557645, Control_c, 0, 64, 69
1, 557660, Control_c, 0, 64, 70
1, 557675, Control_c, 0, 64, 72
1, 557690, Control_c, 0, 64, 73
1, 557704, Control_c, 0, 64, 74
1, 557719, Control_c, 0, 64, 75
1, 557734, Control_c, 0, 64, 76
1, 557748, Control_c, 0, 64, 78
1, 557763, Control_c, 0, 64, 79
1, 557778, Control_c, 0, 64, 80
1, 557793, Control_c, 0, 64, 81
1, 557816, Control_c, 0, 64, 82
1, 557830, Control_c, 0, 64, 83
1, 557845, Control_c, 0, 64, 84
1, 557860, Control_c, 0, 64, 85
1, 557875, Control_c, 0, 64, 85
1, 557889, Control_c, 0, 64, 86
1, 557904, Control_c, 0, 64, 86
1, 557919, Control_c, 0, 64, 87
1, 557978, Control_c, 0, 64, 87
1, 557993, Control_c, 0, 64, 88
1, 558023, Control_c, 0, 64, 88
1, 558052, Control_c, 0, 64, 89
1, 558067, Control_c, 0, 64, 90
1, 558096, Control_c, 0, 64, 91
1, 558126, Control_c, 0, 64, 91
1, 558141, Control_c, 0, 64, 92
1, 558156, Control_c, 0, 64, 92
1, 558170, Note_off_c, 0, 67, 47
1, 558243, Note_off_c, 0, 61, 35
1, 558260, Control_c, 0, 64, 93
1, 558339, Note_on_c, 0, 96, 45
1, 558355, Note_off_c, 0, 71, 28
1, 558394, Control_c, 0, 64, 93
1, 558418, Note_off_c, 0, 91, 55
1, 558453, Control_c, 0, 64, 94
1, 558475, Note_off_c, 0, 96, 60
1, 558527, Control_c, 0, 64, 94
1, 558831, Control_c, 0, 64, 94
1, 558846, Control_c, 0, 64, 93
1, 558860, Control_c, 0, 64, 90
1, 558875, Control_c, 0, 64, 85
1, 558890, Control_c, 0, 64, 79
1, 558895, Note_on_c, 0, 90, 45
1, 558895, Note_on_c, 0, 102, 53
1, 558900, Note_on_c, 0, 95, 41
1, 558900, Note_on_c, 0, 98, 47
1, 558904, Control_c, 0, 64, 73
1, 558913, Note_on_c, 0, 59, 37
1, 558919, Note_on_c, 0, 62, 26
1, 558919, Control_c, 0, 64, 67
1, 558920, Note_on_c, 0, 66, 30
1, 558923, Note_on_c, 0, 71, 21
1, 558934, Control_c, 0, 64, 62
1, 558938, Note_off_c, 0, 90, 0
1, 558938, Note_on_c, 0, 90, 13
1, 558949, Control_c, 0, 64, 56
1, 558964, Control_c, 0, 64, 48
1, 558978, Control_c, 0, 64, 29
1, 558993, Control_c, 0, 64, 0
1, 559053, Control_c, 0, 64, 46
1, 559068, Control_c, 0, 64, 60
1, 559083, Control_c, 0, 64, 64
1, 559097, Control_c, 0, 64, 68
1, 559112, Control_c, 0, 64, 72
1, 559127, Control_c, 0, 64, 77
1, 559142, Control_c, 0, 64, 82
1, 559147, Note_off_c, 0, 102, 61
1, 559157, Control_c, 0, 64, 85
1, 559164, Note_off_c, 0, 98, 60
1, 559172, Control_c, 0, 64, 88
1, 559187, Control_c, 0, 64, 90
1, 559193, Note_off_c, 0, 95, 60
1, 559202, Control_c, 0, 64, 92
1, 559217, Control_c, 0, 64, 94
1, 559232, Control_c, 0, 64, 95
1, 559242, Note_off_c, 0, 90, 52
1, 559247, Control_c, 0, 64, 95
1, 559261, Control_c, 0, 64, 96
1, 559387, Control_c, 0, 64, 96
1, 559542, Note_off_c, 0, 71, 33
1, 559682, Control_c, 0, 64, 97
1, 559712, Control_c, 0, 64, 97
1, 559741, Control_c, 0, 64, 98
1, 559756, Control_c, 0, 64, 98
1, 559771, Control_c, 0, 64, 99
1, 559786, Control_c, 0, 64, 99
1, 559810, Note_on_c, 0, 78, 39
1, 559816, Control_c, 0, 64, 100
1, 559828, Note_on_c, 0, 74, 24
1, 559845, Control_c, 0, 64, 100
1, 559860, Control_c, 0, 64, 101
1, 559875, Control_c, 0, 64, 101
1, 559890, Control_c, 0, 64, 102
1, 559891, Note_off_c, 0, 59, 35
1, 559934, Control_c, 0, 64, 102
1, 559977, Note_off_c, 0, 62, 29
1, 560076, Control_c, 0, 64, 103
1, 560100, Note_off_c, 0, 66, 24
1, 561078, Note_on_c, 0, 66, 28
1, 561082, Note_on_c, 0, 62, 24
1, 561331, Note_off_c, 0, 78, 42
1, 561345, Note_off_c, 0, 74, 37
1, 561453, Note_off_c, 0, 66, 40
1, 561672, Note_off_c, 0, 62, 21
1, 562872, Note_on_c, 0, 54, 24
1, 562874, Note_on_c, 0, 50, 14
1, 564098, Note_on_c, 0, 35, 25
1, 564104, Note_on_c, 0, 47, 23
1, 567667, Control_c, 0, 67, 127
1, 567682, Control_c, 0, 67, 126
1, 567697, Control_c, 0, 67, 124
1, 567712, Control_c, 0, 67, 123
1, 567727, Control_c, 0, 67, 122
1, 567741, Control_c, 0, 67, 120
1, 567756, Control_c, 0, 67, 120
1, 567771, Control_c, 0, 67, 119
1, 567800, Control_c, 0, 67, 118
1, 567815, Control_c, 0, 67, 118
1, 567830, Control_c, 0, 67, 117
1, 567845, Control_c, 0, 67, 116
1, 567859, Control_c, 0, 67, 115
1, 567874, Control_c, 0, 67, 114
1, 567889, Control_c, 0, 67, 113
1, 567904, Control_c, 0, 67, 112
1, 567919, Control_c, 0, 67, 110
1, 567933, Control_c, 0, 67, 109
1, 567948, Control_c, 0, 67, 108
1, 567964, Control_c, 0, 67, 107
1, 567979, Control_c, 0, 67, 106
1, 567994, Control_c, 0, 67, 104
1, 568009, Control_c, 0, 67, 103
1, 568024, Control_c, 0, 67, 102
1, 568038, Control_c, 0, 64, 102
1, 568038, Control_c, 0, 67, 101
1, 568053, Control_c, 0, 67, 100
1, 568068, Control_c, 0, 67, 99
1, 568082, Control_c, 0, 67, 98
1, 568097, Control_c, 0, 67, 97
1, 568112, Control_c, 0, 67, 97
1, 568127, Control_c, 0, 67, 96
1, 568142, Control_c, 0, 67, 96
1, 568156, Control_c, 0, 67, 95
1, 568171, Control_c, 0, 67, 95
1, 568186, Control_c, 0, 67, 94
1, 568201, Control_c, 0, 67, 94
1, 568216, Control_c, 0, 64, 102
1, 568216, Control_c, 0, 67, 93
1, 568231, Control_c, 0, 67, 93
1, 568246, Control_c, 0, 67, 92
1, 568261, Control_c, 0, 67, 92
1, 568297, Control_c, 0, 67, 91
1, 568312, Control_c, 0, 64, 101
1, 568312, Control_c, 0, 67, 90
1, 568327, Control_c, 0, 67, 90
1, 568342, Control_c, 0, 67, 89
1, 568357, Control_c, 0, 67, 88
1, 568371, Control_c, 0, 64, 101
1, 568371, Control_c, 0, 67, 88
1, 568386, Control_c, 0, 67, 87
1, 568401, Control_c, 0, 67, 86
1, 568416, Control_c, 0, 67, 85
1, 568431, Control_c, 0, 64, 100
1, 568431, Control_c, 0, 67, 84
1, 568446, Control_c, 0, 67, 83
1, 568457, Note_off_c, 0, 54, 20
1, 568460, Control_c, 0, 64, 100
1, 568460, Control_c, 0, 67, 82
1, 568475, Control_c, 0, 67, 81
1, 568490, Control_c, 0, 67, 80
1, 568505, Control_c, 0, 67, 80
1, 568520, Control_c, 0, 64, 99
1, 568520, Control_c, 0, 67, 79
1, 568535, Control_c, 0, 67, 78
1, 568550, Control_c, 0, 67, 77
1, 568564, Control_c, 0, 64, 99
1, 568564, Control_c, 0, 67, 76
1, 568579, Control_c, 0, 67, 75
1, 568594, Control_c, 0, 67, 74
1, 568608, Control_c, 0, 64, 98
1, 568608, Control_c, 0, 67, 73
1, 568623, Control_c, 0, 67, 72
1, 568638, Control_c, 0, 67, 71
1, 568653, Control_c, 0, 67, 70
1, 568668, Control_c, 0, 64, 98
1, 568668, Control_c, 0, 67, 70
1, 568682, Control_c, 0, 67, 69
1, 568697, Control_c, 0, 67, 68
1, 568712, Control_c, 0, 67, 67
1, 568727, Control_c, 0, 67, 66
1, 568742, Control_c, 0, 64, 97
1, 568742, Control_c, 0, 67, 65
1, 568758, Control_c, 0, 67, 64
1, 568773, Control_c, 0, 67, 62
1, 568787, Control_c, 0, 67, 61
1, 568802, Control_c, 0, 67, 60
1, 568817, Control_c, 0, 64, 97
1, 568817, Control_c, 0, 67, 59
1, 568832, Control_c, 0, 67, 58
1, 568847, Control_c, 0, 67, 58
1, 568861, Control_c, 0, 67, 57
1, 568876, Control_c, 0, 64, 96
1, 568876, Control_c, 0, 67, 57
1, 568896, Note_off_c, 0, 50, 7
1, 568905, Control_c, 0, 67, 56
1, 568935, Control_c, 0, 67, 55
1, 568950, Control_c, 0, 64, 96
1, 568950, Control_c, 0, 67, 55
1, 568965, Control_c, 0, 67, 54
1, 568971, Note_off_c, 0, 47, 35
1, 568979, Control_c, 0, 67, 54
1, 568994, Control_c, 0, 64, 95
1, 568994, Control_c, 0, 67, 53
1, 569009, Control_c, 0, 67, 52
1, 569024, Control_c, 0, 67, 52
1, 569046, Control_c, 0, 64, 95
1, 569046, Control_c, 0, 67, 51
1, 569076, Control_c, 0, 67, 51
1, 569106, Control_c, 0, 64, 94
1, 569111, Note_off_c, 0, 35, 27
1, 569135, Control_c, 0, 67, 50
1, 569165, Control_c, 0, 64, 94
1, 569180, Control_c, 0, 67, 50
1, 569209, Control_c, 0, 64, 93
1, 569253, Control_c, 0, 67, 49
1, 569268, Control_c, 0, 64, 93
1, 569313, Control_c, 0, 64, 92
1, 569358, Control_c, 0, 64, 92
1, 569373, Control_c, 0, 67, 49
1, 569417, Control_c, 0, 64, 91
1, 569446, Control_c, 0, 64, 91
1, 569491, Control_c, 0, 64, 90
1, 569520, Control_c, 0, 67, 48
1, 569535, Control_c, 0, 64, 90
1, 569566, Control_c, 0, 64, 89
1, 569610, Control_c, 0, 64, 89
1, 569610, Control_c, 0, 67, 48
1, 569654, Control_c, 0, 67, 46
1, 569669, Control_c, 0, 64, 88
1, 569669, Control_c, 0, 67, 41
1, 569684, Control_c, 0, 67, 37
1, 569699, Control_c, 0, 64, 88
1, 569699, Control_c, 0, 67, 35
1, 569714, Control_c, 0, 67, 33
1, 569728, Control_c, 0, 67, 32
1, 569743, Control_c, 0, 64, 87
1, 569743, Control_c, 0, 67, 31
1, 569758, Control_c, 0, 67, 30
1, 569773, Control_c, 0, 67, 30
1, 569796, Control_c, 0, 67, 29
1, 569810, Control_c, 0, 64, 87
1, 569810, Control_c, 0, 67, 28
1, 569825, Control_c, 0, 67, 27
1, 569840, Control_c, 0, 67, 26
1, 569855, Control_c, 0, 67, 25
1, 569869, Control_c, 0, 64, 86
1, 569869, Control_c, 0, 67, 24
1, 569884, Control_c, 0, 67, 23
1, 569899, Control_c, 0, 67, 22
1, 569914, Control_c, 0, 64, 86
1, 569914, Control_c, 0, 67, 21
1, 569929, Control_c, 0, 67, 20
1, 569943, Control_c, 0, 67, 20
1, 569958, Control_c, 0, 67, 19
1, 569973, Control_c, 0, 67, 18
1, 569988, Control_c, 0, 64, 85
1, 569988, Control_c, 0, 67, 17
1, 570003, Control_c, 0, 67, 16
1, 570017, Control_c, 0, 67, 16
1, 570032, Control_c, 0, 67, 15
1, 570047, Control_c, 0, 67, 14
1, 570061, Control_c, 0, 67, 13
1, 570076, Control_c, 0, 64, 85
1, 570076, Control_c, 0, 67, 13
1, 570091, Control_c, 0, 67, 12
1, 570106, Control_c, 0, 67, 11
1, 570121, Control_c, 0, 67, 10
1, 570136, Control_c, 0, 67, 9
1, 570151, Control_c, 0, 64, 84
1, 570151, Control_c, 0, 67, 9
1, 570166, Control_c, 0, 67, 8
1, 570180, Control_c, 0, 67, 0
1, 570225, Control_c, 0, 64, 84
1, 570284, Control_c, 0, 64, 83
1, 570343, Control_c, 0, 64, 83
1, 570389, Control_c, 0, 64, 82
1, 570433, Control_c, 0, 64, 82
1, 570477, Control_c, 0, 64, 81
1, 570507, Control_c, 0, 64, 81
1, 570559, Control_c, 0, 64, 80
1, 570589, Control_c, 0, 64, 80
1, 570619, Control_c, 0, 64, 79
1, 570648, Control_c, 0, 64, 79
1, 570692, Control_c, 0, 64, 78
1, 570722, Control_c, 0, 64, 78
1, 570766, Control_c, 0, 64, 77
1, 570796, Control_c, 0, 64, 77
1, 570825, Control_c, 0, 64, 76
1, 570855, Control_c, 0, 64, 76
1, 570899, Control_c, 0, 64, 75
1, 570929, Control_c, 0, 64, 75
1, 570958, Control_c, 0, 64, 74
1, 571003, Control_c, 0, 64, 74
1, 571048, Control_c, 0, 64, 73
1, 571107, Control_c, 0, 64, 73
1, 571152, Control_c, 0, 64, 72
1, 571182, Control_c, 0, 64, 72
1, 571212, Control_c, 0, 64, 71
1, 571256, Control_c, 0, 64, 71
1, 571308, Control_c, 0, 64, 70
1, 571322, Control_c, 0, 64, 70
1, 571367, Control_c, 0, 64, 69
1, 571397, Control_c, 0, 64, 69
1, 571456, Control_c, 0, 64, 68
1, 571501, Control_c, 0, 64, 68
1, 571545, Control_c, 0, 64, 67
1, 571633, Control_c, 0, 64, 67
1, 571707, Control_c, 0, 64, 66
1, 571826, Control_c, 0, 64, 66
1, 571915, Control_c, 0, 64, 65
1, 572020, Control_c, 0, 64, 65
1, 572131, Control_c, 0, 64, 64
1, 572205, Control_c, 0, 64, 64
1, 572338, Control_c, 0, 64, 63
1, 572516, Control_c, 0, 64, 63
1, 572604, Control_c, 0, 64, 62
1, 572649, Control_c, 0, 64, 62
1, 572723, Control_c, 0, 64, 61
1, 572768, Control_c, 0, 64, 61
1, 572865, Control_c, 0, 64, 60
1, 572894, Control_c, 0, 64, 60
1, 572909, Control_c, 0, 64, 59
1, 572983, Control_c, 0, 64, 59
1, 573012, Control_c, 0, 64, 58
1, 573117, Control_c, 0, 64, 58
1, 573442, Control_c, 0, 64, 58
1, 573486, Control_c, 0, 64, 59
1, 573516, Control_c, 0, 64, 59
1, 573555, Control_c, 0, 64, 60
1, 573628, Control_c, 0, 64, 60
1, 573776, Control_c, 0, 64, 61
1, 573835, Control_c, 0, 64, 61
1, 573865, Control_c, 0, 64, 62
1, 574250, Control_c, 0, 64, 61
1, 574466, Control_c, 0, 64, 62
1, 574569, Control_c, 0, 64, 62
1, 574821, Control_c, 0, 64, 63
1, 574880, Control_c, 0, 64, 63
1, 574939, Control_c, 0, 64, 64
1, 574998, Control_c, 0, 64, 64
1, 575333, Control_c, 0, 64, 65
1, 575451, Control_c, 0, 64, 65
1, 575599, Control_c, 0, 64, 65
1, 576036, Control_c, 0, 64, 64
1, 576875, Control_c, 0, 64, 64
1, 576934, Control_c, 0, 64, 63
1, 576964, Control_c, 0, 64, 63
1, 576993, Control_c, 0, 64, 62
1, 577023, Control_c, 0, 64, 62
1, 577052, Control_c, 0, 64, 61
1, 577082, Control_c, 0, 64, 62
1, 577112, Control_c, 0, 64, 62
1, 577156, Control_c, 0, 64, 63
1, 577186, Control_c, 0, 64, 63
1, 577215, Control_c, 0, 64, 64
1, 577260, Control_c, 0, 64, 64
1, 577282, Control_c, 0, 64, 65
1, 577370, Control_c, 0, 64, 64
1, 577400, Control_c, 0, 64, 64
1, 577654, Control_c, 0, 64, 64
1, 577668, Control_c, 0, 64, 64
1, 577713, Control_c, 0, 64, 64
1, 577743, Control_c, 0, 64, 65
1, 577949, Control_c, 0, 64, 64
1, 578008, Control_c, 0, 64, 64
1, 578031, Control_c, 0, 64, 63
1, 578046, Control_c, 0, 64, 62
1, 578061, Control_c, 0, 64, 61
1, 578075, Control_c, 0, 64, 60
1, 578090, Control_c, 0, 64, 59
1, 578105, Control_c, 0, 64, 57
1, 578120, Control_c, 0, 64, 55
1, 578135, Control_c, 0, 64, 52
1, 578149, Control_c, 0, 64, 44
1, 578164, Control_c, 0, 64, 16
1, 578179, Control_c, 0, 64, 0
1, 578179, End_track
0, 0, End_of_file
